,note,step,duration,channel,velocity
0,56.0,4,80,0.0,52.0
1,44.0,0,88,0.0,54.0
2,51.0,4,84,0.0,50.0
3,63.0,4,72,0.0,56.0
4,68.0,4,68,0.0,58.0
5,72.0,4,64,0.0,66.0
6,60.0,4,76,0.0,54.0
7,65.0,0,40,0.0,56.0
8,64.0,48,24,0.0,60.0
9,68.0,72,72,0.0,72.0
10,49.0,0,84,0.0,40.0
11,61.0,0,84,0.0,46.0
12,56.0,0,84,0.0,46.0
13,70.0,24,26,0.0,50.0
14,72.0,8,116,0.0,60.0
15,68.0,4,124,0.0,56.0
16,63.0,4,128,0.0,54.0
17,44.0,24,144,0.0,50.0
18,51.0,4,140,0.0,48.0
19,56.0,4,136,0.0,50.0
20,60.0,4,132,0.0,52.0
21,44.0,0,12,0.0,36.0
22,60.0,0,16,0.0,38.0
23,56.0,16,16,0.0,30.0
24,51.0,16,12,0.0,34.0
25,72.0,164,48,0.0,66.0
26,44.0,16,12,0.0,38.0
27,56.0,0,16,0.0,28.0
28,59.0,16,16,0.0,36.0
29,50.0,16,12,0.0,36.0
30,71.0,0,48,0.0,64.0
31,44.0,16,12,0.0,38.0
32,60.0,0,16,0.0,38.0
33,56.0,16,16,0.0,30.0
34,51.0,16,12,0.0,34.0
35,72.0,0,48,0.0,69.0
36,44.0,16,12,0.0,38.0
37,55.0,0,16,0.0,32.0
38,61.0,16,16,0.0,40.0
39,51.0,16,12,0.0,34.0
40,75.0,0,48,0.0,72.0
41,44.0,16,12,0.0,40.0
42,60.0,0,16,0.0,38.0
43,56.0,16,16,0.0,30.0
44,72.0,0,40,0.0,70.0
45,51.0,16,12,0.0,36.0
46,39.0,0,12,0.0,40.0
47,61.0,0,16,0.0,38.0
48,55.0,16,16,0.0,28.0
49,72.0,16,36,0.0,66.0
50,51.0,16,12,0.0,34.0
51,70.0,4,12,0.0,60.0
52,44.0,0,12,0.0,36.0
53,60.0,0,16,0.0,36.0
54,56.0,16,16,0.0,28.0
55,68.0,12,40,0.0,58.0
56,51.0,16,12,0.0,34.0
57,44.0,0,12,0.0,32.0
58,58.0,16,12,0.0,40.0
59,51.0,16,12,0.0,28.0
60,63.0,16,48,0.0,58.0
61,44.0,0,12,0.0,34.0
62,60.0,16,24,0.0,62.0
63,56.0,16,15,0.0,38.0
64,51.0,7,13,0.0,36.0
65,63.0,8,24,0.0,68.0
66,44.0,17,12,0.0,38.0
67,68.0,0,24,0.0,70.0
68,56.0,0,15,0.0,32.0
69,60.0,16,15,0.0,40.0
70,51.0,7,13,0.0,36.0
71,70.0,8,24,0.0,69.0
72,44.0,17,13,0.0,38.0
73,72.0,0,24,0.0,72.0
74,68.0,7,4,0.0,60.0
75,70.0,4,4,0.0,64.0
76,60.0,0,16,0.0,42.0
77,56.0,17,16,0.0,34.0
78,68.0,4,4,0.0,68.0
79,67.0,3,4,0.0,73.0
80,51.0,1,11,0.0,36.0
81,68.0,4,8,0.0,74.0
82,48.0,8,12,0.0,40.0
83,79.0,0,16,0.0,82.0
84,63.0,16,16,0.0,46.0
85,77.0,0,16,0.0,78.0
86,51.0,16,10,0.0,42.0
87,75.0,0,12,0.0,76.0
88,39.0,16,10,0.0,44.0
89,63.0,16,16,0.0,44.0
90,70.0,0,48,0.0,68.0
91,55.0,16,16,0.0,38.0
92,69.0,2,8,0.0,64.0
93,49.0,16,12,0.0,34.0
94,70.0,8,8,0.0,65.0
95,71.0,2,7,0.0,65.0
96,64.0,6,16,0.0,30.0
97,70.0,7,7,0.0,58.0
98,73.0,0,6,0.0,43.0
99,71.0,6,5,0.0,46.0
100,70.0,5,5,0.0,42.0
101,56.0,7,16,0.0,28.0
102,61.0,16,16,0.0,34.0
103,52.0,5,40,0.0,34.0
104,70.0,0,40,0.0,46.0
105,56.0,16,16,0.0,32.0
106,61.0,16,16,0.0,32.0
107,51.0,16,40,0.0,34.0
108,55.0,16,12,0.0,30.0
109,71.0,0,48,0.0,62.0
110,44.0,0,12,0.0,34.0
111,56.0,0,16,0.0,28.0
112,60.0,16,16,0.0,36.0
113,51.0,16,12,0.0,34.0
114,72.0,16,48,0.0,66.0
115,44.0,0,12,0.0,38.0
116,56.0,0,16,0.0,28.0
117,59.0,16,16,0.0,36.0
118,50.0,16,12,0.0,36.0
119,71.0,16,48,0.0,64.0
120,44.0,16,12,0.0,38.0
121,60.0,0,16,0.0,38.0
122,56.0,16,16,0.0,30.0
123,51.0,16,12,0.0,34.0
124,72.0,0,48,0.0,69.0
125,44.0,0,12,0.0,38.0
126,61.0,16,16,0.0,40.0
127,55.0,0,16,0.0,30.0
128,51.0,16,12,0.0,34.0
129,75.0,16,48,0.0,74.0
130,44.0,16,12,0.0,40.0
131,56.0,0,16,0.0,30.0
132,60.0,16,16,0.0,38.0
133,72.0,0,40,0.0,66.0
134,51.0,16,12,0.0,34.0
135,48.0,16,12,0.0,28.0
136,55.0,0,16,0.0,22.0
137,64.0,16,16,0.0,32.0
138,72.0,0,36,0.0,54.0
139,60.0,16,16,0.0,32.0
140,70.0,4,12,0.0,50.0
141,53.0,12,16,0.0,32.0
142,68.0,0,32,0.0,48.0
143,60.0,16,16,0.0,24.0
144,65.0,0,16,0.0,32.0
145,68.0,8,4,0.0,48.0
146,56.0,16,12,0.0,34.0
147,70.0,4,2,0.0,44.0
148,70.0,4,5,0.0,56.0
149,72.0,4,5,0.0,48.0
150,49.0,0,12,0.0,32.0
151,70.0,4,5,0.0,53.0
152,72.0,4,5,0.0,50.0
153,70.0,0,5,0.0,56.0
154,72.0,4,5,0.0,54.0
155,58.0,0,12,0.0,32.0
156,65.0,4,12,0.0,40.0
157,70.0,4,5,0.0,61.0
158,72.0,4,5,0.0,59.0
159,70.0,0,4,0.0,65.0
160,72.0,3,4,0.0,60.0
161,70.0,3,4,0.0,62.0
162,68.0,3,4,0.0,58.0
163,70.0,3,4,0.0,64.0
164,72.0,0,9,0.0,66.0
165,48.0,4,12,0.0,40.0
166,55.0,4,28,0.0,40.0
167,73.0,9,9,0.0,74.0
168,72.0,2,9,0.0,70.0
169,58.0,7,16,0.0,34.0
170,64.0,0,16,0.0,44.0
171,71.0,9,9,0.0,64.0
172,72.0,4,2,0.0,74.0
173,60.0,5,16,0.0,40.0
174,72.0,4,8,0.0,76.0
175,80.0,0,12,0.0,74.0
176,53.0,8,16,0.0,38.0
177,56.0,0,16,0.0,30.0
178,65.0,0,16,0.0,40.0
179,79.0,16,24,0.0,72.0
180,77.0,8,4,0.0,68.0
181,60.0,16,16,0.0,38.0
182,49.0,8,12,0.0,36.0
183,77.0,0,16,0.0,68.0
184,65.0,0,16,0.0,38.0
185,56.0,16,16,0.0,28.0
186,75.0,0,24,0.0,70.0
187,73.0,8,4,0.0,62.0
188,58.0,16,16,0.0,32.0
189,73.0,0,6,0.0,52.0
190,75.0,6,5,0.0,54.0
191,51.0,8,16,0.0,32.0
192,73.0,5,5,0.0,50.0
193,72.0,0,12,0.0,50.0
194,55.0,5,16,0.0,24.0
195,63.0,0,16,0.0,34.0
196,61.0,16,12,0.0,30.0
197,70.0,8,8,0.0,54.0
198,44.0,0,12,0.0,34.0
199,60.0,0,16,0.0,32.0
200,56.0,16,16,0.0,24.0
201,51.0,16,12,0.0,32.0
202,68.0,8,48,0.0,54.0
203,44.0,0,12,0.0,34.0
204,59.0,0,16,0.0,30.0
205,56.0,16,16,0.0,22.0
206,50.0,16,12,0.0,32.0
207,65.0,16,48,0.0,56.0
208,44.0,0,12,0.0,34.0
209,60.0,16,16,0.0,32.0
210,56.0,0,16,0.0,24.0
211,68.0,16,40,0.0,54.0
212,51.0,16,12,0.0,32.0
213,48.0,16,12,0.0,40.0
214,63.0,16,16,0.0,40.0
215,67.0,0,36,0.0,62.0
216,56.0,16,12,0.0,38.0
217,68.0,4,12,0.0,60.0
218,63.0,16,16,0.0,44.0
219,55.0,0,40,0.0,42.0
220,70.0,12,48,0.0,66.0
221,58.0,16,16,0.0,40.0
222,63.0,16,16,0.0,44.0
223,54.0,0,40,0.0,44.0
224,72.0,16,40,0.0,70.0
225,58.0,16,16,0.0,40.0
226,63.0,16,16,0.0,46.0
227,53.0,0,40,0.0,46.0
228,57.0,16,12,0.0,44.0
229,72.0,16,48,0.0,74.0
230,46.0,0,12,0.0,46.0
231,61.0,16,16,0.0,48.0
232,58.0,16,12,0.0,46.0
233,73.0,16,48,0.0,76.0
234,51.0,0,12,0.0,44.0
235,73.0,16,16,0.0,74.0
236,73.0,8,8,0.0,68.0
237,66.0,16,16,0.0,40.0
238,75.0,8,8,0.0,70.0
239,58.0,0,12,0.0,36.0
240,73.0,8,8,0.0,68.0
241,63.0,16,16,0.0,42.0
242,72.0,8,36,0.0,66.0
243,54.0,0,40,0.0,46.0
244,58.0,16,16,0.0,38.0
245,70.0,4,12,0.0,64.0
246,63.0,16,16,0.0,42.0
247,53.0,0,40,0.0,44.0
248,60.0,16,12,0.0,38.0
249,69.0,12,48,0.0,62.0
250,46.0,16,12,0.0,42.0
251,61.0,16,16,0.0,40.0
252,58.0,16,16,0.0,36.0
253,70.0,16,0,0.0,66.0
254,61.0,16,16,0.0,42.0
255,52.0,0,40,0.0,42.0
256,56.0,16,16,0.0,38.0
257,61.0,16,16,0.0,40.0
258,72.0,16,36,0.0,70.0
259,51.0,0,40,0.0,41.0
260,55.0,16,16,0.0,36.0
261,70.0,4,12,0.0,68.0
262,49.0,12,12,0.0,40.0
263,63.0,16,16,0.0,40.0
264,77.0,0,48,0.0,78.0
265,55.0,16,16,0.0,36.0
266,48.0,16,12,0.0,38.0
267,63.0,16,16,0.0,38.0
268,56.0,16,12,0.0,36.0
269,75.0,0,48,0.0,80.0
270,46.0,0,12,0.0,40.0
271,63.0,16,16,0.0,38.0
272,73.0,16,40,0.0,70.0
273,55.0,16,12,0.0,34.0
274,72.0,8,6,0.0,60.0
275,72.0,0,8,0.0,52.0
276,44.0,8,12,0.0,34.0
277,72.0,12,4,0.0,54.0
278,73.0,4,4,0.0,56.0
279,72.0,4,4,0.0,54.0
280,71.0,4,4,0.0,52.0
281,72.0,4,4,0.0,54.0
282,63.0,0,16,0.0,32.0
283,82.0,4,4,0.0,48.0
284,80.0,4,4,0.0,52.0
285,56.0,0,12,0.0,30.0
286,75.0,4,4,0.0,54.0
287,72.0,4,4,0.0,54.0
288,39.0,0,12,0.0,42.0
289,63.0,16,12,0.0,46.0
290,69.0,4,48,0.0,50.0
291,54.0,16,16,0.0,42.0
292,55.0,0,16,0.0,41.0
293,70.0,16,24,0.0,48.0
294,61.0,16,16,0.0,42.0
295,71.0,4,12,0.0,52.0
296,51.0,16,16,0.0,32.0
297,44.0,0,12,0.0,32.0
298,60.0,0,16,0.0,34.0
299,56.0,16,16,0.0,26.0
300,51.0,16,12,0.0,32.0
301,72.0,12,48,0.0,60.0
302,44.0,16,12,0.0,36.0
303,59.0,0,16,0.0,34.0
304,56.0,16,16,0.0,26.0
305,50.0,16,12,0.0,34.0
306,71.0,0,48,0.0,58.0
307,44.0,16,12,0.0,36.0
308,56.0,16,16,0.0,28.0
309,60.0,0,16,0.0,36.0
310,51.0,16,12,0.0,32.0
311,72.0,0,48,0.0,63.0
312,44.0,16,12,0.0,36.0
313,55.0,0,16,0.0,28.0
314,61.0,16,16,0.0,38.0
315,51.0,16,12,0.0,32.0
316,75.0,0,48,0.0,66.0
317,44.0,0,12,0.0,40.0
318,60.0,0,16,0.0,38.0
319,56.0,16,16,0.0,30.0
320,72.0,16,40,0.0,62.0
321,51.0,16,12,0.0,38.0
322,48.0,0,12,0.0,34.0
323,64.0,0,16,0.0,32.0
324,55.0,16,16,0.0,24.0
325,72.0,16,36,0.0,60.0
326,70.0,4,12,0.0,54.0
327,60.0,16,16,0.0,32.0
328,53.0,0,16,0.0,34.0
329,65.0,0,16,0.0,34.0
330,68.0,12,32,0.0,52.0
331,60.0,16,16,0.0,26.0
332,56.0,16,12,0.0,34.0
333,68.0,8,4,0.0,46.0
334,70.0,4,2,0.0,44.0
335,70.0,0,5,0.0,56.0
336,72.0,4,5,0.0,48.0
337,49.0,4,12,0.0,32.0
338,70.0,4,5,0.0,53.0
339,72.0,4,5,0.0,50.0
340,70.0,0,5,0.0,56.0
341,72.0,4,5,0.0,54.0
342,65.0,4,12,0.0,40.0
343,58.0,0,12,0.0,32.0
344,70.0,4,5,0.0,61.0
345,72.0,4,5,0.0,59.0
346,70.0,0,4,0.0,65.0
347,72.0,3,4,0.0,60.0
348,70.0,3,4,0.0,62.0
349,68.0,3,4,0.0,62.0
350,70.0,3,4,0.0,66.0
351,72.0,4,9,0.0,66.0
352,48.0,0,12,0.0,40.0
353,55.0,4,28,0.0,40.0
354,73.0,9,9,0.0,74.0
355,72.0,2,9,0.0,70.0
356,64.0,7,16,0.0,44.0
357,58.0,0,16,0.0,36.0
358,71.0,9,9,0.0,64.0
359,72.0,4,2,0.0,74.0
360,72.0,4,8,0.0,76.0
361,60.0,5,16,0.0,40.0
362,80.0,0,12,0.0,74.0
363,53.0,8,16,0.0,38.0
364,65.0,0,16,0.0,40.0
365,56.0,0,16,0.0,30.0
366,79.0,16,24,0.0,72.0
367,77.0,8,4,0.0,68.0
368,60.0,16,16,0.0,38.0
369,49.0,8,12,0.0,36.0
370,77.0,0,16,0.0,68.0
371,56.0,16,16,0.0,28.0
372,65.0,0,16,0.0,38.0
373,75.0,0,16,0.0,70.0
374,73.0,16,14,0.0,70.0
375,58.0,0,16,0.0,34.0
376,73.0,16,6,0.0,62.0
377,75.0,6,5,0.0,64.0
378,51.0,0,16,0.0,34.0
379,73.0,5,5,0.0,62.0
380,72.0,0,12,0.0,58.0
381,55.0,0,16,0.0,24.0
382,63.0,5,16,0.0,34.0
383,61.0,16,12,0.0,30.0
384,70.0,8,8,0.0,56.0
385,44.0,0,12,0.0,34.0
386,56.0,16,16,0.0,24.0
387,60.0,0,16,0.0,32.0
388,51.0,16,12,0.0,32.0
389,68.0,8,48,0.0,56.0
390,44.0,0,12,0.0,34.0
391,56.0,0,16,0.0,22.0
392,59.0,16,16,0.0,30.0
393,50.0,16,12,0.0,32.0
394,65.0,16,48,0.0,56.0
395,44.0,0,12,0.0,34.0
396,60.0,0,16,0.0,32.0
397,56.0,16,16,0.0,24.0
398,68.0,16,40,0.0,54.0
399,51.0,16,12,0.0,32.0
400,48.0,16,12,0.0,40.0
401,63.0,16,16,0.0,40.0
402,67.0,0,36,0.0,62.0
403,56.0,16,12,0.0,38.0
404,68.0,4,12,0.0,60.0
405,63.0,16,16,0.0,44.0
406,55.0,0,40,0.0,42.0
407,70.0,12,48,0.0,66.0
408,58.0,16,16,0.0,40.0
409,63.0,16,16,0.0,44.0
410,72.0,16,40,0.0,70.0
411,54.0,0,40,0.0,44.0
412,58.0,16,16,0.0,40.0
413,63.0,16,16,0.0,46.0
414,53.0,16,40,0.0,46.0
415,57.0,16,12,0.0,44.0
416,72.0,0,48,0.0,74.0
417,46.0,0,12,0.0,46.0
418,61.0,16,16,0.0,48.0
419,58.0,16,12,0.0,46.0
420,73.0,16,48,0.0,76.0
421,51.0,0,12,0.0,44.0
422,73.0,16,16,0.0,74.0
423,73.0,8,8,0.0,68.0
424,66.0,16,16,0.0,40.0
425,75.0,8,8,0.0,70.0
426,58.0,0,12,0.0,36.0
427,73.0,8,8,0.0,68.0
428,63.0,16,16,0.0,42.0
429,72.0,8,36,0.0,66.0
430,54.0,0,40,0.0,46.0
431,58.0,16,16,0.0,38.0
432,70.0,4,12,0.0,64.0
433,63.0,16,16,0.0,42.0
434,53.0,12,40,0.0,44.0
435,60.0,16,12,0.0,38.0
436,69.0,0,48,0.0,62.0
437,46.0,0,12,0.0,42.0
438,61.0,16,16,0.0,40.0
439,70.0,16,48,0.0,62.0
440,58.0,16,16,0.0,36.0
441,61.0,16,16,0.0,42.0
442,52.0,0,40,0.0,42.0
443,56.0,16,16,0.0,38.0
444,70.0,16,48,0.0,66.0
445,61.0,16,16,0.0,40.0
446,72.0,0,36,0.0,68.0
447,51.0,16,40,0.0,41.0
448,55.0,16,16,0.0,36.0
449,70.0,4,12,0.0,62.0
450,49.0,12,12,0.0,40.0
451,63.0,16,16,0.0,40.0
452,55.0,16,16,0.0,36.0
453,77.0,0,48,0.0,70.0
454,48.0,16,12,0.0,38.0
455,63.0,16,16,0.0,38.0
456,56.0,16,12,0.0,36.0
457,75.0,0,48,0.0,67.0
458,46.0,16,12,0.0,40.0
459,63.0,16,16,0.0,38.0
460,73.0,0,40,0.0,58.0
461,55.0,16,12,0.0,34.0
462,72.0,8,6,0.0,54.0
463,72.0,0,16,0.0,52.0
464,44.0,8,25,0.0,34.0
465,72.0,24,8,0.0,54.0
466,73.0,8,6,0.0,56.0
467,72.0,5,6,0.0,54.0
468,71.0,6,6,0.0,52.0
469,72.0,6,6,0.0,54.0
470,82.0,6,6,0.0,50.0
471,63.0,1,32,0.0,32.0
472,80.0,6,6,0.0,48.0
473,84.0,3,6,0.0,46.0
474,80.0,6,6,0.0,50.0
475,56.0,3,23,0.0,30.0
476,75.0,6,8,0.0,54.0
477,72.0,8,8,0.0,54.0
478,39.0,0,12,0.0,42.0
479,63.0,16,12,0.0,46.0
480,69.0,8,48,0.0,50.0
481,54.0,16,16,0.0,42.0
482,55.0,16,16,0.0,41.0
483,70.0,0,24,0.0,48.0
484,61.0,16,16,0.0,42.0
485,71.0,4,12,0.0,52.0
486,51.0,16,16,0.0,32.0
487,44.0,0,12,0.0,32.0
488,60.0,0,16,0.0,34.0
489,56.0,16,16,0.0,26.0
490,51.0,16,12,0.0,32.0
491,72.0,12,48,0.0,60.0
492,44.0,0,12,0.0,36.0
493,56.0,0,16,0.0,26.0
494,59.0,16,16,0.0,34.0
495,50.0,16,12,0.0,34.0
496,71.0,16,48,0.0,58.0
497,44.0,16,12,0.0,36.0
498,56.0,0,16,0.0,28.0
499,60.0,16,16,0.0,36.0
500,51.0,16,12,0.0,32.0
501,72.0,0,48,0.0,63.0
502,44.0,16,12,0.0,36.0
503,61.0,16,16,0.0,38.0
504,55.0,0,16,0.0,30.0
505,51.0,16,12,0.0,32.0
506,75.0,0,48,0.0,66.0
507,44.0,16,12,0.0,40.0
508,60.0,0,16,0.0,38.0
509,56.0,16,16,0.0,30.0
510,72.0,0,40,0.0,62.0
511,51.0,16,12,0.0,38.0
512,48.0,16,12,0.0,34.0
513,64.0,16,16,0.0,32.0
514,55.0,0,16,0.0,24.0
515,72.0,0,36,0.0,60.0
516,70.0,4,12,0.0,54.0
517,60.0,16,16,0.0,32.0
518,53.0,12,16,0.0,34.0
519,68.0,0,32,0.0,52.0
520,65.0,0,16,0.0,34.0
521,60.0,16,16,0.0,26.0
522,68.0,8,4,0.0,46.0
523,56.0,16,12,0.0,34.0
524,70.0,4,2,0.0,44.0
525,70.0,0,5,0.0,46.0
526,72.0,4,5,0.0,46.0
527,49.0,4,12,0.0,32.0
528,70.0,4,5,0.0,54.0
529,72.0,4,5,0.0,51.0
530,70.0,4,5,0.0,56.0
531,72.0,4,5,0.0,54.0
532,58.0,0,12,0.0,32.0
533,65.0,0,12,0.0,40.0
534,70.0,4,5,0.0,60.0
535,72.0,4,5,0.0,57.0
536,70.0,0,4,0.0,62.0
537,72.0,3,4,0.0,59.0
538,70.0,3,4,0.0,62.0
539,68.0,3,4,0.0,60.0
540,70.0,3,4,0.0,64.0
541,72.0,4,9,0.0,64.0
542,55.0,4,28,0.0,40.0
543,48.0,0,12,0.0,40.0
544,73.0,9,9,0.0,66.0
545,72.0,2,9,0.0,64.0
546,64.0,0,16,0.0,44.0
547,58.0,7,16,0.0,36.0
548,71.0,9,9,0.0,62.0
549,72.0,4,2,0.0,66.0
550,72.0,4,8,0.0,68.0
551,60.0,5,16,0.0,40.0
552,80.0,8,12,0.0,68.0
553,53.0,0,16,0.0,38.0
554,56.0,0,16,0.0,28.0
555,65.0,16,16,0.0,38.0
556,79.0,0,24,0.0,67.0
557,77.0,8,4,0.0,64.0
558,60.0,16,16,0.0,36.0
559,49.0,8,12,0.0,34.0
560,77.0,0,16,0.0,62.0
561,75.0,16,16,0.0,60.0
562,56.0,0,16,0.0,26.0
563,65.0,0,16,0.0,36.0
564,73.0,0,8,0.0,56.0
565,58.0,16,16,0.0,32.0
566,73.0,16,6,0.0,50.0
567,75.0,6,5,0.0,52.0
568,51.0,0,16,0.0,34.0
569,73.0,5,5,0.0,48.0
570,72.0,0,12,0.0,48.0
571,55.0,5,16,0.0,24.0
572,63.0,0,16,0.0,34.0
573,61.0,16,12,0.0,30.0
574,70.0,8,8,0.0,50.0
575,44.0,8,16,0.0,36.0
576,56.0,16,16,0.0,26.0
577,60.0,0,16,0.0,34.0
578,68.0,0,46,0.0,50.0
579,50.0,16,16,0.0,52.0
580,60.0,16,16,0.0,38.0
581,56.0,0,16,0.0,30.0
582,53.0,16,32,0.0,54.0
583,51.0,16,14,0.0,48.0
584,44.0,16,14,0.0,46.0
585,60.0,16,16,0.0,36.0
586,56.0,0,16,0.0,26.0
587,51.0,16,14,0.0,36.0
588,43.0,0,12,0.0,44.0
589,52.0,16,16,0.0,24.0
590,58.0,0,16,0.0,32.0
591,72.0,16,40,0.0,62.0
592,72.0,8,4,0.0,54.0
593,48.0,16,14,0.0,30.0
594,73.0,4,4,0.0,56.0
595,41.0,4,8,0.0,46.0
596,72.0,0,14,0.0,58.0
597,65.0,0,8,0.0,44.0
598,71.0,0,8,0.0,58.0
599,56.0,16,8,0.0,30.0
600,60.0,0,8,0.0,38.0
601,72.0,0,8,0.0,62.0
602,65.0,16,8,0.0,48.0
603,60.0,0,8,0.0,38.0
604,56.0,0,8,0.0,30.0
605,60.0,0,8,0.0,40.0
606,56.0,0,8,0.0,32.0
607,65.0,16,8,0.0,52.0
608,77.0,0,8,0.0,60.0
609,60.0,0,8,0.0,42.0
610,76.0,0,8,0.0,66.0
611,65.0,0,8,0.0,54.0
612,56.0,16,8,0.0,34.0
613,56.0,0,8,0.0,38.0
614,60.0,0,8,0.0,46.0
615,75.0,0,8,0.0,72.0
616,65.0,16,8,0.0,56.0
617,65.0,0,8,0.0,57.0
618,46.0,16,8,0.0,50.0
619,74.0,0,8,0.0,66.0
620,55.0,16,8,0.0,32.0
621,61.0,0,8,0.0,42.0
622,65.0,0,8,0.0,54.0
623,73.0,0,8,0.0,67.0
624,65.0,0,8,0.0,55.0
625,72.0,0,8,0.0,66.0
626,61.0,16,8,0.0,43.0
627,55.0,0,8,0.0,33.0
628,65.0,0,8,0.0,56.0
629,55.0,0,8,0.0,34.0
630,61.0,0,8,0.0,44.0
631,70.0,16,8,0.0,66.0
632,72.0,0,8,0.0,68.0
633,61.0,16,8,0.0,43.0
634,65.0,0,8,0.0,56.0
635,55.0,0,8,0.0,33.0
636,65.0,0,6,0.0,52.0
637,73.0,16,6,0.0,72.0
638,61.0,0,8,0.0,40.0
639,55.0,0,8,0.0,30.0
640,67.0,8,4,0.0,68.0
641,68.0,4,4,0.0,66.0
642,67.0,0,12,0.0,69.0
643,65.0,0,12,0.0,50.0
644,66.0,0,8,0.0,68.0
645,65.0,0,8,0.0,51.0
646,60.0,16,8,0.0,42.0
647,58.0,0,8,0.0,34.0
648,55.0,0,8,0.0,30.0
649,65.0,0,8,0.0,48.0
650,60.0,0,8,0.0,42.0
651,58.0,0,8,0.0,34.0
652,55.0,16,8,0.0,30.0
653,67.0,0,8,0.0,66.0
654,58.0,16,8,0.0,30.0
655,55.0,0,8,0.0,26.0
656,64.0,0,8,0.0,46.0
657,73.0,0,8,0.0,64.0
658,60.0,0,8,0.0,38.0
659,55.0,0,8,0.0,26.0
660,58.0,0,8,0.0,30.0
661,60.0,16,8,0.0,38.0
662,64.0,0,8,0.0,47.0
663,72.0,0,8,0.0,62.0
664,67.0,0,8,0.0,59.0
665,60.0,0,8,0.0,38.0
666,64.0,16,8,0.0,46.0
667,55.0,0,8,0.0,26.0
668,58.0,0,8,0.0,30.0
669,48.0,4,92,0.0,50.0
670,65.0,0,8,0.0,46.0
671,70.0,16,8,0.0,54.0
672,68.0,0,8,0.0,57.0
673,60.0,0,8,0.0,44.0
674,65.0,0,8,0.0,48.0
675,56.0,16,8,0.0,36.0
676,65.0,0,8,0.0,56.0
677,56.0,16,8,0.0,36.0
678,60.0,0,8,0.0,44.0
679,67.0,0,8,0.0,63.0
680,56.0,0,8,0.0,36.0
681,68.0,16,8,0.0,66.0
682,65.0,0,8,0.0,56.0
683,60.0,0,8,0.0,44.0
684,53.0,0,60,0.0,48.0
685,70.0,0,8,0.0,67.0
686,65.0,16,8,0.0,54.0
687,51.0,0,16,0.0,51.0
688,71.0,16,8,0.0,65.0
689,65.0,0,8,0.0,50.0
690,49.0,0,16,0.0,48.0
691,64.0,16,8,0.0,50.0
692,72.0,0,8,0.0,68.0
693,64.0,0,8,0.0,56.0
694,73.0,16,8,0.0,70.0
695,60.0,0,8,0.0,42.0
696,58.0,0,8,0.0,34.0
697,55.0,0,8,0.0,30.0
698,58.0,0,8,0.0,34.0
699,60.0,0,8,0.0,44.0
700,72.0,0,8,0.0,68.0
701,55.0,0,8,0.0,30.0
702,48.0,0,44,0.0,52.0
703,70.0,10,3,0.0,56.0
704,72.0,3,3,0.0,58.0
705,70.0,0,12,0.0,58.0
706,64.0,16,28,0.0,56.0
707,65.0,0,8,0.0,58.0
708,68.0,0,8,0.0,62.0
709,53.0,3,24,0.0,52.0
710,60.0,0,14,0.0,46.0
711,56.0,16,14,0.0,38.0
712,65.0,16,8,0.0,54.0
713,70.0,0,8,0.0,64.0
714,49.0,0,16,0.0,48.0
715,72.0,16,8,0.0,71.0
716,64.0,0,8,0.0,54.0
717,55.0,16,8,0.0,30.0
718,73.0,0,8,0.0,72.0
719,64.0,0,8,0.0,57.0
720,60.0,0,8,0.0,44.0
721,58.0,0,8,0.0,36.0
722,60.0,0,8,0.0,44.0
723,58.0,0,8,0.0,36.0
724,55.0,16,8,0.0,30.0
725,72.0,0,8,0.0,70.0
726,48.0,0,44,0.0,53.0
727,70.0,10,3,0.0,57.0
728,72.0,3,3,0.0,59.0
729,70.0,0,12,0.0,60.0
730,64.0,0,28,0.0,56.0
731,53.0,3,24,0.0,52.0
732,60.0,16,8,0.0,50.0
733,65.0,0,8,0.0,58.0
734,68.0,0,8,0.0,66.0
735,56.0,0,8,0.0,42.0
736,62.0,16,8,0.0,52.0
737,56.0,0,8,0.0,44.0
738,68.0,0,8,0.0,64.0
739,52.0,0,8,0.0,38.0
740,70.0,0,8,0.0,70.0
741,68.0,0,8,0.0,60.0
742,63.0,0,8,0.0,56.0
743,56.0,0,8,0.0,48.0
744,72.0,16,8,0.0,70.0
745,51.0,0,8,0.0,42.0
746,65.0,0,8,0.0,58.0
747,56.0,0,8,0.0,50.0
748,51.0,0,8,0.0,44.0
749,73.0,16,8,0.0,72.0
750,68.0,0,8,0.0,62.0
751,63.0,0,8,0.0,56.0
752,56.0,0,8,0.0,48.0
753,72.0,0,8,0.0,70.0
754,68.0,0,8,0.0,60.0
755,51.0,16,8,0.0,42.0
756,70.0,0,3,0.0,56.0
757,72.0,3,3,0.0,58.0
758,70.0,3,8,0.0,58.0
759,51.0,0,8,0.0,40.0
760,56.0,0,8,0.0,46.0
761,62.0,0,8,0.0,54.0
762,65.0,10,14,0.0,56.0
763,68.0,0,8,0.0,68.0
764,64.0,0,8,0.0,56.0
765,61.0,16,8,0.0,54.0
766,51.0,0,8,0.0,40.0
767,56.0,0,8,0.0,46.0
768,70.0,0,8,0.0,66.0
769,61.0,0,8,0.0,52.0
770,55.0,0,8,0.0,44.0
771,51.0,0,8,0.0,38.0
772,63.0,16,24,0.0,54.0
773,72.0,16,8,0.0,71.0
774,44.0,0,8,0.0,60.0
775,60.0,0,8,0.0,52.0
776,56.0,16,8,0.0,44.0
777,63.0,0,8,0.0,58.0
778,73.0,0,8,0.0,74.0
779,72.0,16,8,0.0,72.0
780,60.0,0,8,0.0,50.0
781,56.0,0,8,0.0,42.0
782,70.0,10,3,0.0,56.0
783,63.0,0,14,0.0,56.0
784,72.0,3,3,0.0,58.0
785,70.0,0,8,0.0,62.0
786,43.0,3,8,0.0,64.0
787,68.0,0,8,0.0,73.0
788,64.0,16,8,0.0,55.0
789,60.0,0,8,0.0,48.0
790,55.0,0,8,0.0,34.0
791,58.0,0,8,0.0,40.0
792,58.0,0,8,0.0,44.0
793,70.0,0,8,0.0,72.0
794,64.0,16,8,0.0,54.0
795,60.0,0,8,0.0,52.0
796,55.0,0,8,0.0,38.0
797,72.0,16,8,0.0,74.0
798,41.0,0,8,0.0,58.0
799,65.0,0,8,0.0,54.0
800,60.0,0,8,0.0,46.0
801,53.0,16,8,0.0,42.0
802,68.0,0,8,0.0,64.0
803,71.0,0,8,0.0,76.0
804,60.0,0,8,0.0,44.0
805,53.0,0,8,0.0,40.0
806,72.0,16,8,0.0,74.0
807,68.0,0,8,0.0,62.0
808,65.0,0,8,0.0,52.0
809,60.0,0,8,0.0,38.0
810,68.0,0,8,0.0,58.0
811,80.0,0,8,0.0,76.0
812,65.0,0,8,0.0,46.0
813,53.0,16,8,0.0,34.0
814,60.0,0,8,0.0,42.0
815,79.0,0,8,0.0,78.0
816,68.0,0,8,0.0,60.0
817,65.0,0,8,0.0,50.0
818,53.0,16,8,0.0,38.0
819,68.0,0,8,0.0,64.0
820,78.0,0,8,0.0,79.0
821,53.0,16,8,0.0,40.0
822,60.0,0,8,0.0,44.0
823,65.0,0,8,0.0,52.0
824,67.0,0,8,0.0,56.0
825,77.0,16,8,0.0,76.0
826,46.0,0,8,0.0,54.0
827,67.0,0,8,0.0,54.0
828,55.0,0,8,0.0,32.0
829,58.0,0,8,0.0,36.0
830,65.0,0,8,0.0,48.0
831,61.0,0,8,0.0,40.0
832,76.0,16,8,0.0,75.0
833,67.0,0,8,0.0,52.0
834,65.0,0,8,0.0,48.0
835,61.0,0,8,0.0,40.0
836,58.0,0,8,0.0,36.0
837,55.0,16,8,0.0,32.0
838,75.0,0,8,0.0,76.0
839,65.0,16,8,0.0,51.0
840,61.0,0,8,0.0,43.0
841,74.0,0,8,0.0,74.0
842,67.0,0,8,0.0,60.0
843,55.0,0,8,0.0,35.0
844,58.0,0,8,0.0,39.0
845,55.0,0,8,0.0,37.0
846,58.0,0,8,0.0,41.0
847,67.0,16,8,0.0,62.0
848,61.0,0,8,0.0,45.0
849,65.0,0,8,0.0,53.0
850,73.0,0,8,0.0,75.0
851,72.0,16,6,0.0,76.0
852,55.0,0,8,0.0,38.0
853,61.0,0,8,0.0,46.0
854,58.0,0,8,0.0,42.0
855,65.0,0,8,0.0,54.0
856,70.0,8,4,0.0,60.0
857,72.0,4,4,0.0,58.0
858,67.0,0,24,0.0,62.0
859,70.0,4,8,0.0,74.0
860,48.0,0,8,0.0,56.0
861,58.0,0,8,0.0,44.0
862,55.0,0,8,0.0,40.0
863,67.0,16,8,0.0,62.0
864,69.0,0,8,0.0,73.0
865,65.0,0,8,0.0,52.0
866,65.0,0,8,0.0,52.0
867,58.0,0,8,0.0,44.0
868,67.0,0,8,0.0,59.0
869,70.0,16,8,0.0,72.0
870,55.0,0,8,0.0,40.0
871,55.0,16,8,0.0,44.0
872,64.0,0,8,0.0,56.0
873,73.0,0,8,0.0,72.0
874,58.0,0,8,0.0,52.0
875,55.0,0,8,0.0,42.0
876,72.0,16,8,0.0,71.0
877,64.0,0,8,0.0,55.0
878,58.0,0,8,0.0,50.0
879,58.0,0,8,0.0,48.0
880,55.0,0,8,0.0,40.0
881,67.0,16,8,0.0,68.0
882,64.0,0,8,0.0,53.0
883,70.0,0,8,0.0,68.0
884,65.0,16,8,0.0,48.0
885,60.0,0,8,0.0,44.0
886,56.0,0,8,0.0,36.0
887,68.0,0,8,0.0,67.0
888,65.0,16,8,0.0,49.0
889,67.0,0,8,0.0,64.0
890,65.0,0,8,0.0,50.0
891,56.0,0,8,0.0,34.0
892,60.0,16,8,0.0,42.0
893,56.0,0,8,0.0,32.0
894,65.0,16,8,0.0,48.0
895,68.0,0,8,0.0,64.0
896,60.0,0,8,0.0,40.0
897,53.0,0,60,0.0,50.0
898,65.0,16,8,0.0,46.0
899,70.0,0,8,0.0,64.0
900,51.0,0,16,0.0,51.0
901,65.0,0,8,0.0,44.0
902,71.0,0,8,0.0,60.0
903,49.0,16,16,0.0,47.0
904,64.0,16,8,0.0,46.0
905,72.0,0,8,0.0,62.0
906,58.0,0,8,0.0,34.0
907,55.0,16,8,0.0,28.0
908,60.0,0,8,0.0,42.0
909,73.0,0,8,0.0,66.0
910,64.0,0,8,0.0,48.0
911,72.0,16,8,0.0,64.0
912,60.0,0,8,0.0,44.0
913,55.0,0,8,0.0,30.0
914,58.0,0,8,0.0,36.0
915,48.0,0,44,0.0,52.0
916,70.0,10,3,0.0,54.0
917,72.0,3,3,0.0,56.0
918,64.0,0,28,0.0,46.0
919,70.0,0,12,0.0,62.0
920,53.0,3,24,0.0,52.0
921,65.0,16,8,0.0,54.0
922,68.0,0,8,0.0,68.0
923,60.0,0,14,0.0,46.0
924,56.0,0,14,0.0,38.0
925,70.0,0,8,0.0,66.0
926,65.0,16,8,0.0,52.0
927,49.0,0,16,0.0,50.0
928,72.0,16,8,0.0,76.0
929,64.0,0,8,0.0,60.0
930,55.0,0,8,0.0,32.0
931,58.0,16,8,0.0,38.0
932,64.0,0,8,0.0,58.0
933,73.0,0,8,0.0,74.0
934,60.0,0,8,0.0,46.0
935,72.0,0,8,0.0,74.0
936,58.0,0,8,0.0,38.0
937,55.0,0,8,0.0,34.0
938,60.0,16,8,0.0,46.0
939,48.0,0,44,0.0,54.0
940,70.0,10,3,0.0,56.0
941,72.0,3,3,0.0,58.0
942,70.0,0,12,0.0,70.0
943,64.0,0,28,0.0,58.0
944,53.0,3,24,0.0,56.0
945,60.0,16,8,0.0,54.0
946,65.0,0,8,0.0,62.0
947,56.0,0,8,0.0,46.0
948,68.0,0,8,0.0,70.0
949,68.0,0,8,0.0,64.0
950,70.0,0,8,0.0,72.0
951,62.0,0,8,0.0,56.0
952,56.0,16,8,0.0,48.0
953,52.0,0,8,0.0,42.0
954,63.0,0,8,0.0,60.0
955,51.0,0,8,0.0,46.0
956,56.0,0,8,0.0,52.0
957,72.0,16,8,0.0,76.0
958,68.0,0,8,0.0,62.0
959,73.0,0,8,0.0,78.0
960,68.0,0,8,0.0,64.0
961,65.0,0,8,0.0,62.0
962,56.0,0,8,0.0,54.0
963,51.0,16,8,0.0,48.0
964,68.0,0,8,0.0,62.0
965,72.0,16,8,0.0,76.0
966,51.0,0,8,0.0,46.0
967,56.0,0,8,0.0,52.0
968,63.0,0,8,0.0,60.0
969,70.0,0,3,0.0,56.0
970,72.0,3,3,0.0,58.0
971,70.0,0,8,0.0,62.0
972,62.0,0,8,0.0,58.0
973,56.0,0,8,0.0,50.0
974,51.0,3,8,0.0,44.0
975,65.0,10,14,0.0,54.0
976,64.0,0,8,0.0,58.0
977,68.0,0,8,0.0,74.0
978,61.0,0,8,0.0,58.0
979,56.0,16,8,0.0,50.0
980,51.0,0,8,0.0,44.0
981,61.0,0,8,0.0,56.0
982,55.0,0,8,0.0,48.0
983,70.0,0,8,0.0,74.0
984,51.0,0,8,0.0,42.0
985,72.0,16,8,0.0,80.0
986,63.0,16,24,0.0,56.0
987,44.0,0,8,0.0,62.0
988,73.0,16,8,0.0,81.0
989,66.0,0,8,0.0,64.0
990,63.0,0,8,0.0,56.0
991,56.0,0,8,0.0,46.0
992,56.0,16,8,0.0,44.0
993,63.0,0,8,0.0,54.0
994,72.0,0,8,0.0,80.0
995,70.0,10,3,0.0,56.0
996,66.0,0,14,0.0,62.0
997,72.0,3,3,0.0,58.0
998,44.0,0,8,0.0,64.0
999,70.0,3,8,0.0,62.0
1000,68.0,0,8,0.0,75.0
1001,61.0,0,8,0.0,54.0
1002,56.0,16,8,0.0,44.0
1003,66.0,0,8,0.0,62.0
1004,70.0,0,8,0.0,77.0
1005,56.0,0,8,0.0,46.0
1006,61.0,16,8,0.0,56.0
1007,72.0,16,8,0.0,80.0
1008,66.0,0,24,0.0,64.0
1009,44.0,0,8,0.0,60.0
1010,60.0,16,8,0.0,50.0
1011,56.0,0,8,0.0,42.0
1012,66.0,0,8,0.0,68.0
1013,73.0,0,8,0.0,84.0
1014,56.0,0,8,0.0,44.0
1015,60.0,16,8,0.0,52.0
1016,66.0,0,8,0.0,66.0
1017,75.0,0,8,0.0,82.0
1018,49.0,0,8,0.0,62.0
1019,77.0,16,8,0.0,76.0
1020,65.0,0,8,0.0,62.0
1021,61.0,0,8,0.0,54.0
1022,56.0,16,8,0.0,46.0
1023,72.0,0,8,0.0,76.0
1024,65.0,0,8,0.0,64.0
1025,61.0,0,8,0.0,58.0
1026,56.0,0,8,0.0,50.0
1027,65.0,16,8,0.0,68.0
1028,73.0,0,8,0.0,80.0
1029,48.0,0,8,0.0,54.0
1030,69.0,16,16,0.0,60.0
1031,66.0,0,8,0.0,48.0
1032,63.0,0,8,0.0,40.0
1033,75.0,16,12,0.0,66.0
1034,81.0,0,32,0.0,76.0
1035,68.0,0,8,0.0,62.0
1036,66.0,0,8,0.0,48.0
1037,56.0,0,8,0.0,38.0
1038,80.0,16,8,0.0,74.0
1039,49.0,0,8,0.0,54.0
1040,70.0,0,16,0.0,56.0
1041,65.0,0,8,0.0,48.0
1042,61.0,0,8,0.0,40.0
1043,73.0,16,12,0.0,56.0
1044,82.0,16,32,0.0,66.0
1045,80.0,0,8,0.0,66.0
1046,68.0,16,8,0.0,56.0
1047,56.0,0,8,0.0,38.0
1048,65.0,0,8,0.0,48.0
1049,74.0,0,8,0.0,78.0
1050,68.0,16,8,0.0,62.0
1051,46.0,0,8,0.0,58.0
1052,68.0,0,8,0.0,64.0
1053,75.0,16,8,0.0,80.0
1054,58.0,0,8,0.0,40.0
1055,65.0,0,8,0.0,48.0
1056,58.0,0,8,0.0,42.0
1057,77.0,0,8,0.0,82.0
1058,68.0,16,8,0.0,66.0
1059,65.0,0,8,0.0,50.0
1060,66.0,0,8,0.0,68.0
1061,51.0,0,8,0.0,60.0
1062,78.0,16,8,0.0,82.0
1063,66.0,0,8,0.0,66.0
1064,74.0,0,8,0.0,78.0
1065,58.0,0,8,0.0,42.0
1066,63.0,16,8,0.0,50.0
1067,66.0,0,8,0.0,74.0
1068,75.0,0,8,0.0,82.0
1069,63.0,16,8,0.0,52.0
1070,58.0,0,8,0.0,44.0
1071,50.0,0,8,0.0,60.0
1072,71.0,16,16,0.0,68.0
1073,68.0,0,8,0.0,54.0
1074,65.0,0,8,0.0,46.0
1075,77.0,16,12,0.0,64.0
1076,83.0,0,32,0.0,78.0
1077,58.0,0,8,0.0,42.0
1078,68.0,0,8,0.0,52.0
1079,70.0,16,8,0.0,66.0
1080,82.0,0,8,0.0,76.0
1081,51.0,16,8,0.0,62.0
1082,71.0,0,16,0.0,66.0
1083,66.0,0,8,0.0,52.0
1084,63.0,16,8,0.0,44.0
1085,75.0,0,12,0.0,64.0
1086,83.0,0,32,0.0,76.0
1087,66.0,0,8,0.0,50.0
1088,58.0,0,8,0.0,40.0
1089,82.0,0,8,0.0,76.0
1090,70.0,16,8,0.0,66.0
1091,48.0,16,8,0.0,60.0
1092,69.0,0,16,0.0,68.0
1093,63.0,16,8,0.0,46.0
1094,66.0,0,8,0.0,54.0
1095,75.0,0,12,0.0,66.0
1096,81.0,0,32,0.0,78.0
1097,80.0,0,8,0.0,72.0
1098,66.0,0,8,0.0,56.0
1099,68.0,16,8,0.0,62.0
1100,56.0,0,8,0.0,46.0
1101,49.0,16,8,0.0,62.0
1102,67.0,0,16,0.0,68.0
1103,65.0,16,8,0.0,57.0
1104,61.0,0,8,0.0,49.0
1105,73.0,0,12,0.0,64.0
1106,79.0,0,32,0.0,78.0
1107,80.0,0,8,0.0,72.0
1108,68.0,0,8,0.0,62.0
1109,65.0,0,8,0.0,58.0
1110,56.0,16,8,0.0,48.0
1111,46.0,16,8,0.0,56.0
1112,67.0,0,16,0.0,70.0
1113,61.0,0,8,0.0,50.0
1114,64.0,0,8,0.0,58.0
1115,73.0,16,12,0.0,66.0
1116,79.0,0,32,0.0,80.0
1117,54.0,16,8,0.0,48.0
1118,78.0,0,8,0.0,72.0
1119,66.0,0,8,0.0,62.0
1120,64.0,0,8,0.0,58.0
1121,47.0,0,8,0.0,56.0
1122,65.0,16,16,0.0,62.0
1123,59.0,0,8,0.0,48.0
1124,63.0,16,8,0.0,56.0
1125,71.0,0,12,0.0,58.0
1126,77.0,0,32,0.0,72.0
1127,66.0,0,8,0.0,62.0
1128,63.0,0,8,0.0,52.0
1129,78.0,0,8,0.0,72.0
1130,54.0,16,8,0.0,42.0
1131,44.0,0,8,0.0,60.0
1132,65.0,16,16,0.0,72.0
1133,62.0,0,8,0.0,56.0
1134,59.0,16,8,0.0,48.0
1135,71.0,0,12,0.0,68.0
1136,77.0,0,32,0.0,82.0
1137,76.0,0,8,0.0,78.0
1138,62.0,0,8,0.0,56.0
1139,52.0,0,8,0.0,46.0
1140,64.0,16,8,0.0,68.0
1141,43.0,0,8,0.0,62.0
1142,64.0,0,16,0.0,72.0
1143,58.0,0,8,0.0,52.0
1144,61.0,16,8,0.0,60.0
1145,70.0,0,12,0.0,68.0
1146,76.0,16,32,0.0,82.0
1147,61.0,0,8,0.0,60.0
1148,51.0,16,8,0.0,50.0
1149,63.0,0,8,0.0,68.0
1150,75.0,0,8,0.0,78.0
1151,42.0,16,8,0.0,66.0
1152,63.0,0,16,0.0,75.0
1153,60.0,0,8,0.0,63.0
1154,57.0,0,8,0.0,55.0
1155,69.0,16,12,0.0,70.0
1156,75.0,0,32,0.0,85.0
1157,60.0,0,8,0.0,62.0
1158,50.0,16,8,0.0,52.0
1159,74.0,0,8,0.0,74.0
1160,62.0,0,8,0.0,64.0
1161,41.0,0,8,0.0,70.0
1162,62.0,0,16,0.0,70.0
1163,56.0,0,8,0.0,58.0
1164,59.0,0,8,0.0,66.0
1165,68.0,16,12,0.0,68.0
1166,74.0,16,32,0.0,80.0
1167,61.0,0,6,0.0,76.0
1168,73.0,0,6,0.0,86.0
1169,59.0,16,8,0.0,70.0
1170,49.0,0,8,0.0,60.0
1171,73.0,8,4,0.0,68.0
1172,74.0,4,4,0.0,60.0
1173,30.0,0,8,0.0,86.0
1174,42.0,0,8,0.0,76.0
1175,73.0,4,14,0.0,78.0
1176,66.0,16,8,0.0,64.0
1177,72.0,0,8,0.0,80.0
1178,54.0,0,8,0.0,38.0
1179,57.0,0,8,0.0,44.0
1180,61.0,0,8,0.0,52.0
1181,66.0,0,8,0.0,66.0
1182,61.0,0,8,0.0,50.0
1183,57.0,0,8,0.0,42.0
1184,54.0,16,8,0.0,36.0
1185,73.0,0,8,0.0,78.0
1186,54.0,0,8,0.0,38.0
1187,78.0,0,8,0.0,77.0
1188,57.0,0,8,0.0,44.0
1189,66.0,16,8,0.0,68.0
1190,61.0,0,8,0.0,52.0
1191,61.0,0,8,0.0,54.0
1192,57.0,0,8,0.0,46.0
1193,54.0,16,8,0.0,40.0
1194,66.0,0,8,0.0,67.0
1195,77.0,0,8,0.0,76.0
1196,66.0,0,8,0.0,66.0
1197,76.0,16,8,0.0,75.0
1198,57.0,0,8,0.0,43.0
1199,61.0,0,8,0.0,51.0
1200,54.0,0,8,0.0,37.0
1201,75.0,16,8,0.0,76.0
1202,47.0,0,8,0.0,60.0
1203,66.0,0,8,0.0,64.0
1204,74.0,0,8,0.0,74.0
1205,66.0,0,8,0.0,62.0
1206,56.0,0,8,0.0,44.0
1207,54.0,0,8,0.0,40.0
1208,62.0,16,8,0.0,52.0
1209,73.0,0,8,0.0,72.0
1210,66.0,0,8,0.0,60.0
1211,62.0,0,8,0.0,51.0
1212,54.0,0,8,0.0,39.0
1213,56.0,16,8,0.0,43.0
1214,62.0,0,8,0.0,50.0
1215,56.0,0,8,0.0,42.0
1216,54.0,16,8,0.0,38.0
1217,71.0,0,8,0.0,72.0
1218,66.0,0,8,0.0,58.0
1219,62.0,0,8,0.0,52.0
1220,66.0,16,8,0.0,60.0
1221,73.0,0,8,0.0,76.0
1222,54.0,0,8,0.0,40.0
1223,56.0,0,8,0.0,44.0
1224,74.0,16,6,0.0,72.0
1225,66.0,0,6,0.0,58.0
1226,56.0,0,8,0.0,46.0
1227,54.0,0,8,0.0,42.0
1228,62.0,0,8,0.0,54.0
1229,68.0,8,4,0.0,58.0
1230,69.0,4,4,0.0,60.0
1231,68.0,0,12,0.0,70.0
1232,66.0,0,20,0.0,64.0
1233,61.0,16,8,0.0,51.0
1234,66.0,0,8,0.0,64.0
1235,59.0,0,8,0.0,45.0
1236,56.0,0,8,0.0,41.0
1237,67.0,0,8,0.0,68.0
1238,61.0,16,8,0.0,49.0
1239,68.0,0,8,0.0,70.0
1240,66.0,0,8,0.0,62.0
1241,56.0,0,8,0.0,39.0
1242,59.0,0,8,0.0,43.0
1243,56.0,0,8,0.0,42.0
1244,59.0,0,8,0.0,46.0
1245,61.0,0,8,0.0,52.0
1246,74.0,0,8,0.0,72.0
1247,65.0,16,8,0.0,66.0
1248,65.0,0,8,0.0,64.0
1249,73.0,0,8,0.0,74.0
1250,59.0,0,8,0.0,44.0
1251,61.0,16,8,0.0,50.0
1252,56.0,0,8,0.0,40.0
1253,61.0,0,8,0.0,48.0
1254,59.0,0,8,0.0,42.0
1255,56.0,0,8,0.0,38.0
1256,68.0,16,8,0.0,70.0
1257,65.0,0,8,0.0,60.0
1258,49.0,4,92,0.0,62.0
1259,66.0,0,8,0.0,58.0
1260,71.0,0,8,0.0,68.0
1261,57.0,0,8,0.0,46.0
1262,61.0,16,8,0.0,54.0
1263,66.0,0,8,0.0,56.0
1264,69.0,0,8,0.0,66.0
1265,66.0,0,8,0.0,54.0
1266,68.0,16,8,0.0,64.0
1267,61.0,0,8,0.0,54.0
1268,57.0,0,8,0.0,46.0
1269,61.0,0,8,0.0,52.0
1270,57.0,0,8,0.0,44.0
1271,69.0,16,8,0.0,62.0
1272,66.0,0,8,0.0,50.0
1273,54.0,16,60,0.0,58.0
1274,66.0,0,8,0.0,52.0
1275,71.0,16,8,0.0,63.0
1276,52.0,0,16,0.0,58.0
1277,72.0,0,8,0.0,66.0
1278,66.0,16,8,0.0,50.0
1279,50.0,0,16,0.0,56.0
1280,73.0,0,8,0.0,68.0
1281,65.0,0,8,0.0,56.0
1282,74.0,0,8,0.0,70.0
1283,61.0,0,8,0.0,52.0
1284,59.0,0,8,0.0,44.0
1285,56.0,16,8,0.0,38.0
1286,65.0,0,8,0.0,58.0
1287,61.0,0,8,0.0,50.0
1288,59.0,0,8,0.0,42.0
1289,56.0,0,8,0.0,36.0
1290,73.0,16,8,0.0,68.0
1291,49.0,16,44,0.0,58.0
1292,71.0,10,3,0.0,56.0
1293,73.0,3,3,0.0,58.0
1294,65.0,0,28,0.0,56.0
1295,71.0,3,12,0.0,62.0
1296,69.0,0,8,0.0,68.0
1297,66.0,16,8,0.0,58.0
1298,54.0,0,24,0.0,60.0
1299,61.0,0,14,0.0,54.0
1300,57.0,0,14,0.0,46.0
1301,71.0,0,8,0.0,70.0
1302,66.0,0,8,0.0,60.0
1303,50.0,16,16,0.0,60.0
1304,73.0,0,8,0.0,72.0
1305,65.0,0,8,0.0,58.0
1306,65.0,0,8,0.0,60.0
1307,59.0,0,8,0.0,44.0
1308,56.0,0,8,0.0,38.0
1309,61.0,0,8,0.0,52.0
1310,74.0,16,8,0.0,74.0
1311,59.0,0,8,0.0,44.0
1312,61.0,0,8,0.0,52.0
1313,56.0,0,8,0.0,38.0
1314,73.0,16,8,0.0,72.0
1315,49.0,16,44,0.0,62.0
1316,71.0,10,3,0.0,58.0
1317,73.0,3,3,0.0,60.0
1318,71.0,0,12,0.0,64.0
1319,65.0,0,28,0.0,58.0
1320,69.0,16,8,0.0,68.0
1321,61.0,0,8,0.0,56.0
1322,57.0,0,8,0.0,48.0
1323,66.0,0,8,0.0,60.0
1324,54.0,3,24,0.0,62.0
1325,71.0,0,8,0.0,70.0
1326,69.0,16,8,0.0,62.0
1327,63.0,0,8,0.0,64.0
1328,57.0,0,8,0.0,56.0
1329,53.0,0,8,0.0,50.0
1330,57.0,16,8,0.0,56.0
1331,52.0,0,8,0.0,50.0
1332,64.0,0,8,0.0,64.0
1333,73.0,0,8,0.0,76.0
1334,69.0,0,8,0.0,64.0
1335,66.0,16,8,0.0,66.0
1336,52.0,0,8,0.0,52.0
1337,57.0,0,8,0.0,58.0
1338,74.0,0,8,0.0,78.0
1339,69.0,0,8,0.0,66.0
1340,69.0,0,8,0.0,64.0
1341,64.0,0,8,0.0,64.0
1342,57.0,0,8,0.0,56.0
1343,52.0,16,8,0.0,50.0
1344,73.0,0,8,0.0,76.0
1345,71.0,0,3,0.0,58.0
1346,73.0,3,3,0.0,60.0
1347,57.0,0,8,0.0,54.0
1348,52.0,0,8,0.0,48.0
1349,71.0,0,8,0.0,64.0
1350,66.0,10,14,0.0,62.0
1351,63.0,3,8,0.0,62.0
1352,52.0,0,8,0.0,48.0
1353,57.0,0,8,0.0,54.0
1354,69.0,0,8,0.0,72.0
1355,62.0,16,8,0.0,62.0
1356,65.0,0,8,0.0,62.0
1357,56.0,0,8,0.0,52.0
1358,71.0,0,8,0.0,74.0
1359,62.0,0,8,0.0,60.0
1360,52.0,0,8,0.0,46.0
1361,73.0,0,8,0.0,78.0
1362,45.0,16,8,0.0,64.0
1363,64.0,16,24,0.0,60.0
1364,61.0,0,8,0.0,60.0
1365,64.0,0,8,0.0,60.0
1366,74.0,0,8,0.0,80.0
1367,57.0,16,8,0.0,52.0
1368,61.0,0,8,0.0,58.0
1369,57.0,0,8,0.0,50.0
1370,73.0,16,8,0.0,78.0
1371,71.0,10,3,0.0,58.0
1372,64.0,0,14,0.0,58.0
1373,73.0,3,3,0.0,60.0
1374,44.0,0,8,0.0,68.0
1375,71.0,3,8,0.0,66.0
1376,61.0,0,8,0.0,56.0
1377,65.0,0,8,0.0,62.0
1378,56.0,16,8,0.0,42.0
1379,69.0,0,8,0.0,76.0
1380,59.0,0,8,0.0,48.0
1381,56.0,0,8,0.0,46.0
1382,71.0,0,8,0.0,78.0
1383,61.0,0,8,0.0,60.0
1384,65.0,16,8,0.0,58.0
1385,59.0,0,8,0.0,52.0
1386,73.0,16,8,0.0,82.0
1387,42.0,0,8,0.0,78.0
1388,66.0,0,8,0.0,60.0
1389,54.0,0,8,0.0,46.0
1390,61.0,0,8,0.0,52.0
1391,69.0,16,8,0.0,72.0
1392,72.0,0,8,0.0,86.0
1393,54.0,0,8,0.0,48.0
1394,66.0,16,8,0.0,62.0
1395,61.0,0,8,0.0,54.0
1396,73.0,0,8,0.0,84.0
1397,69.0,0,8,0.0,72.0
1398,66.0,0,8,0.0,58.0
1399,54.0,0,8,0.0,44.0
1400,61.0,0,8,0.0,50.0
1401,81.0,16,8,0.0,82.0
1402,69.0,0,8,0.0,68.0
1403,80.0,0,8,0.0,80.0
1404,54.0,0,8,0.0,42.0
1405,61.0,16,8,0.0,48.0
1406,66.0,0,8,0.0,56.0
1407,69.0,0,8,0.0,66.0
1408,54.0,0,8,0.0,40.0
1409,79.0,0,8,0.0,79.0
1410,69.0,0,8,0.0,64.0
1411,66.0,16,8,0.0,54.0
1412,61.0,0,8,0.0,46.0
1413,68.0,16,8,0.0,62.0
1414,78.0,0,8,0.0,80.0
1415,47.0,0,8,0.0,64.0
1416,66.0,0,8,0.0,52.0
1417,62.0,0,8,0.0,44.0
1418,59.0,0,8,0.0,40.0
1419,56.0,16,8,0.0,36.0
1420,68.0,0,8,0.0,64.0
1421,77.0,0,8,0.0,80.0
1422,68.0,0,8,0.0,66.0
1423,62.0,16,8,0.0,46.0
1424,66.0,0,8,0.0,54.0
1425,59.0,0,8,0.0,42.0
1426,56.0,0,8,0.0,38.0
1427,76.0,0,8,0.0,78.0
1428,59.0,0,8,0.0,44.0
1429,66.0,0,8,0.0,56.0
1430,62.0,0,8,0.0,48.0
1431,68.0,16,8,0.0,66.0
1432,75.0,0,8,0.0,76.0
1433,56.0,0,8,0.0,40.0
1434,74.0,0,8,0.0,78.0
1435,59.0,0,8,0.0,48.0
1436,62.0,0,8,0.0,52.0
1437,56.0,16,8,0.0,44.0
1438,66.0,0,8,0.0,60.0
1439,68.0,0,8,0.0,67.0
1440,73.0,0,6,0.0,80.0
1441,56.0,16,8,0.0,46.0
1442,59.0,0,8,0.0,50.0
1443,66.0,0,8,0.0,62.0
1444,62.0,0,8,0.0,54.0
1445,71.0,8,4,0.0,66.0
1446,73.0,4,4,0.0,60.0
1447,37.0,4,8,0.0,76.0
1448,71.0,0,8,0.0,74.0
1449,68.0,0,24,0.0,68.0
1450,62.0,0,8,0.0,60.0
1451,59.0,0,8,0.0,52.0
1452,70.0,16,8,0.0,74.0
1453,68.0,0,8,0.0,70.0
1454,56.0,0,8,0.0,46.0
1455,68.0,0,8,0.0,68.0
1456,71.0,0,8,0.0,72.0
1457,56.0,0,8,0.0,48.0
1458,59.0,16,8,0.0,54.0
1459,62.0,0,8,0.0,60.0
1460,74.0,16,8,0.0,78.0
1461,65.0,0,8,0.0,64.0
1462,61.0,0,8,0.0,60.0
1463,59.0,0,8,0.0,52.0
1464,56.0,0,8,0.0,46.0
1465,65.0,0,8,0.0,62.0
1466,73.0,16,8,0.0,76.0
1467,59.0,0,8,0.0,48.0
1468,56.0,0,8,0.0,42.0
1469,65.0,0,8,0.0,58.0
1470,68.0,16,8,0.0,72.0
1471,61.0,0,8,0.0,56.0
1472,49.0,0,44,0.0,72.0
1473,71.0,0,8,0.0,72.0
1474,66.0,16,8,0.0,58.0
1475,66.0,0,8,0.0,56.0
1476,57.0,16,8,0.0,50.0
1477,69.0,0,8,0.0,70.0
1478,61.0,0,8,0.0,58.0
1479,68.0,0,8,0.0,68.0
1480,66.0,16,8,0.0,54.0
1481,61.0,0,8,0.0,56.0
1482,57.0,0,8,0.0,48.0
1483,61.0,0,8,0.0,52.0
1484,57.0,16,8,0.0,44.0
1485,69.0,0,8,0.0,64.0
1486,66.0,0,8,0.0,52.0
1487,54.0,0,60,0.0,66.0
1488,66.0,0,8,0.0,50.0
1489,71.0,0,8,0.0,62.0
1490,52.0,16,16,0.0,56.0
1491,66.0,0,8,0.0,54.0
1492,72.0,16,8,0.0,70.0
1493,50.0,0,16,0.0,54.0
1494,65.0,0,8,0.0,56.0
1495,73.0,0,8,0.0,72.0
1496,56.0,16,8,0.0,40.0
1497,59.0,0,8,0.0,46.0
1498,74.0,0,8,0.0,74.0
1499,61.0,0,8,0.0,54.0
1500,65.0,0,8,0.0,58.0
1501,61.0,16,8,0.0,56.0
1502,59.0,0,8,0.0,48.0
1503,56.0,0,8,0.0,42.0
1504,73.0,0,8,0.0,72.0
1505,49.0,16,44,0.0,58.0
1506,71.0,10,3,0.0,60.0
1507,73.0,3,3,0.0,58.0
1508,65.0,0,28,0.0,56.0
1509,71.0,3,12,0.0,66.0
1510,66.0,16,8,0.0,58.0
1511,54.0,0,24,0.0,56.0
1512,69.0,0,8,0.0,74.0
1513,61.0,0,14,0.0,58.0
1514,57.0,0,14,0.0,50.0
1515,71.0,0,8,0.0,76.0
1516,66.0,0,8,0.0,58.0
1517,50.0,16,16,0.0,56.0
1518,73.0,0,8,0.0,78.0
1519,65.0,16,8,0.0,58.0
1520,59.0,0,8,0.0,50.0
1521,61.0,0,8,0.0,58.0
1522,56.0,0,8,0.0,46.0
1523,74.0,16,8,0.0,80.0
1524,65.0,0,8,0.0,60.0
1525,59.0,0,8,0.0,52.0
1526,56.0,0,8,0.0,46.0
1527,73.0,0,8,0.0,78.0
1528,61.0,16,8,0.0,60.0
1529,49.0,0,44,0.0,60.0
1530,71.0,10,3,0.0,64.0
1531,73.0,3,3,0.0,60.0
1532,65.0,0,28,0.0,58.0
1533,71.0,0,12,0.0,70.0
1534,61.0,0,8,0.0,62.0
1535,54.0,3,24,0.0,62.0
1536,57.0,0,8,0.0,54.0
1537,69.0,16,8,0.0,78.0
1538,66.0,0,8,0.0,62.0
1539,71.0,0,8,0.0,80.0
1540,63.0,0,8,0.0,64.0
1541,57.0,0,8,0.0,58.0
1542,53.0,16,8,0.0,52.0
1543,69.0,0,8,0.0,66.0
1544,69.0,0,8,0.0,58.0
1545,64.0,0,8,0.0,60.0
1546,57.0,0,8,0.0,52.0
1547,73.0,16,8,0.0,72.0
1548,52.0,0,8,0.0,46.0
1549,74.0,0,8,0.0,74.0
1550,69.0,16,8,0.0,60.0
1551,52.0,0,8,0.0,48.0
1552,57.0,0,8,0.0,54.0
1553,66.0,0,8,0.0,62.0
1554,52.0,0,8,0.0,46.0
1555,57.0,0,8,0.0,52.0
1556,73.0,0,8,0.0,72.0
1557,69.0,16,8,0.0,58.0
1558,64.0,0,8,0.0,60.0
1559,71.0,0,3,0.0,62.0
1560,73.0,3,3,0.0,60.0
1561,71.0,3,8,0.0,68.0
1562,66.0,10,14,0.0,56.0
1563,63.0,0,8,0.0,58.0
1564,52.0,0,8,0.0,44.0
1565,57.0,0,8,0.0,50.0
1566,62.0,0,8,0.0,58.0
1567,57.0,0,8,0.0,50.0
1568,52.0,16,8,0.0,44.0
1569,65.0,0,8,0.0,62.0
1570,69.0,0,8,0.0,76.0
1571,52.0,0,8,0.0,42.0
1572,56.0,0,8,0.0,48.0
1573,62.0,0,8,0.0,56.0
1574,71.0,16,8,0.0,78.0
1575,45.0,16,8,0.0,62.0
1576,73.0,0,8,0.0,82.0
1577,64.0,0,24,0.0,58.0
1578,64.0,16,8,0.0,56.0
1579,67.0,0,8,0.0,66.0
1580,74.0,0,8,0.0,78.0
1581,57.0,0,8,0.0,46.0
1582,64.0,0,8,0.0,54.0
1583,73.0,0,8,0.0,76.0
1584,57.0,0,8,0.0,44.0
1585,71.0,10,3,0.0,62.0
1586,67.0,16,14,0.0,64.0
1587,73.0,3,3,0.0,60.0
1588,45.0,3,8,0.0,64.0
1589,71.0,0,8,0.0,68.0
1590,57.0,0,8,0.0,44.0
1591,62.0,0,8,0.0,54.0
1592,67.0,0,8,0.0,62.0
1593,69.0,16,8,0.0,76.0
1594,71.0,16,8,0.0,78.0
1595,57.0,0,8,0.0,46.0
1596,62.0,0,8,0.0,56.0
1597,73.0,16,8,0.0,82.0
1598,45.0,0,8,0.0,68.0
1599,67.0,0,24,0.0,64.0
1600,74.0,0,8,0.0,80.0
1601,57.0,16,8,0.0,50.0
1602,61.0,0,8,0.0,58.0
1603,67.0,0,8,0.0,62.0
1604,67.0,16,8,0.0,64.0
1605,76.0,0,8,0.0,82.0
1606,61.0,0,8,0.0,60.0
1607,57.0,0,8,0.0,52.0
1608,78.0,16,8,0.0,86.0
1609,66.0,0,8,0.0,68.0
1610,50.0,0,8,0.0,70.0
1611,62.0,0,8,0.0,62.0
1612,57.0,0,8,0.0,54.0
1613,73.0,0,8,0.0,80.0
1614,66.0,16,8,0.0,62.0
1615,62.0,0,8,0.0,58.0
1616,74.0,16,8,0.0,78.0
1617,57.0,0,8,0.0,50.0
1618,66.0,0,8,0.0,56.0
1619,49.0,0,8,0.0,66.0
1620,70.0,16,16,0.0,70.0
1621,67.0,0,8,0.0,58.0
1622,64.0,0,8,0.0,50.0
1623,76.0,16,12,0.0,66.0
1624,82.0,0,32,0.0,80.0
1625,81.0,0,8,0.0,76.0
1626,57.0,16,8,0.0,46.0
1627,67.0,0,8,0.0,56.0
1628,69.0,0,8,0.0,66.0
1629,50.0,0,8,0.0,66.0
1630,71.0,0,16,0.0,70.0
1631,62.0,16,8,0.0,52.0
1632,66.0,0,8,0.0,60.0
1633,74.0,0,12,0.0,68.0
1634,83.0,16,32,0.0,80.0
1635,57.0,16,8,0.0,50.0
1636,81.0,0,8,0.0,78.0
1637,69.0,0,8,0.0,68.0
1638,66.0,0,8,0.0,60.0
1639,47.0,16,8,0.0,66.0
1640,69.0,0,8,0.0,64.0
1641,75.0,0,8,0.0,82.0
1642,69.0,0,8,0.0,66.0
1643,76.0,0,8,0.0,84.0
1644,66.0,16,8,0.0,60.0
1645,59.0,0,8,0.0,52.0
1646,69.0,0,8,0.0,68.0
1647,59.0,0,8,0.0,52.0
1648,78.0,16,8,0.0,86.0
1649,66.0,0,8,0.0,60.0
1650,52.0,0,8,0.0,68.0
1651,79.0,16,8,0.0,88.0
1652,67.0,0,8,0.0,70.0
1653,75.0,0,8,0.0,82.0
1654,64.0,0,8,0.0,60.0
1655,59.0,16,8,0.0,52.0
1656,67.0,0,8,0.0,66.0
1657,76.0,0,8,0.0,86.0
1658,67.0,0,8,0.0,70.0
1659,64.0,16,8,0.0,56.0
1660,59.0,0,8,0.0,48.0
1661,51.0,0,8,0.0,68.0
1662,72.0,16,16,0.0,74.0
1663,69.0,0,8,0.0,60.0
1664,66.0,0,8,0.0,52.0
1665,78.0,16,12,0.0,72.0
1666,84.0,0,32,0.0,84.0
1667,69.0,0,8,0.0,58.0
1668,83.0,0,8,0.0,78.0
1669,71.0,0,8,0.0,68.0
1670,59.0,16,8,0.0,48.0
1671,52.0,16,8,0.0,68.0
1672,72.0,0,16,0.0,76.0
1673,64.0,0,8,0.0,52.0
1674,67.0,0,8,0.0,60.0
1675,76.0,16,12,0.0,68.0
1676,84.0,0,32,0.0,86.0
1677,83.0,0,8,0.0,76.0
1678,71.0,0,8,0.0,66.0
1679,67.0,16,8,0.0,60.0
1680,59.0,0,8,0.0,50.0
1681,49.0,16,8,0.0,70.0
1682,70.0,0,16,0.0,72.0
1683,64.0,0,8,0.0,52.0
1684,67.0,0,8,0.0,60.0
1685,76.0,16,12,0.0,68.0
1686,82.0,0,32,0.0,82.0
1687,69.0,0,8,0.0,74.0
1688,81.0,16,8,0.0,84.0
1689,57.0,0,8,0.0,50.0
1690,67.0,0,8,0.0,60.0
1691,50.0,0,8,0.0,68.0
1692,68.0,16,16,0.0,76.0
1693,62.0,0,8,0.0,54.0
1694,66.0,16,8,0.0,62.0
1695,74.0,0,12,0.0,74.0
1696,80.0,0,32,0.0,86.0
1697,81.0,0,8,0.0,87.0
1698,66.0,16,8,0.0,60.0
1699,57.0,0,8,0.0,50.0
1700,69.0,0,8,0.0,77.0
1701,48.0,16,8,0.0,70.0
1702,69.0,0,16,0.0,78.0
1703,63.0,0,8,0.0,52.0
1704,66.0,0,8,0.0,60.0
1705,75.0,16,12,0.0,74.0
1706,81.0,0,32,0.0,88.0
1707,66.0,16,8,0.0,60.0
1708,56.0,0,8,0.0,50.0
1709,80.0,0,8,0.0,80.0
1710,68.0,0,8,0.0,70.0
1711,49.0,0,8,0.0,72.0
1712,67.0,16,16,0.0,74.0
1713,65.0,0,8,0.0,60.0
1714,61.0,0,8,0.0,52.0
1715,73.0,16,12,0.0,68.0
1716,79.0,0,32,0.0,84.0
1717,68.0,16,8,0.0,70.0
1718,65.0,0,8,0.0,58.0
1719,56.0,0,8,0.0,48.0
1720,80.0,0,8,0.0,80.0
1721,46.0,16,8,0.0,74.0
1722,67.0,0,16,0.0,76.0
1723,64.0,16,8,0.0,64.0
1724,61.0,0,8,0.0,56.0
1725,73.0,0,12,0.0,66.0
1726,79.0,0,32,0.0,86.0
1727,78.0,16,8,0.0,84.0
1728,66.0,0,8,0.0,74.0
1729,54.0,0,8,0.0,52.0
1730,64.0,0,8,0.0,62.0
1731,45.0,0,8,0.0,78.0
1732,66.0,16,16,0.0,80.0
1733,60.0,0,8,0.0,60.0
1734,63.0,0,8,0.0,68.0
1735,72.0,16,12,0.0,71.0
1736,78.0,0,32,0.0,90.0
1737,63.0,16,8,0.0,66.0
1738,65.0,0,8,0.0,78.0
1739,53.0,0,8,0.0,56.0
1740,77.0,0,8,0.0,88.0
1741,44.0,0,8,0.0,82.0
1742,65.0,16,16,0.0,82.0
1743,62.0,16,8,0.0,72.0
1744,59.0,0,8,0.0,64.0
1745,71.0,0,12,0.0,73.0
1746,77.0,0,32,0.0,92.0
1747,62.0,0,8,0.0,70.0
1748,76.0,0,8,0.0,88.0
1749,52.0,16,8,0.0,60.0
1750,64.0,0,8,0.0,78.0
1751,43.0,16,8,0.0,86.0
1752,64.0,0,16,0.0,82.0
1753,58.0,16,8,0.0,66.0
1754,61.0,0,8,0.0,74.0
1755,70.0,0,12,0.0,78.0
1756,76.0,0,32,0.0,92.0
1757,51.0,16,8,0.0,66.0
1758,61.0,0,8,0.0,76.0
1759,63.0,0,12,0.0,84.0
1760,75.0,0,12,0.0,94.0
1761,44.0,16,12,0.0,54.0
1762,60.0,16,16,0.0,52.0
1763,56.0,0,16,0.0,44.0
1764,51.0,16,12,0.0,48.0
1765,72.0,0,48,0.0,80.0
1766,44.0,16,12,0.0,56.0
1767,56.0,16,16,0.0,42.0
1768,59.0,0,16,0.0,50.0
1769,50.0,16,12,0.0,50.0
1770,71.0,0,48,0.0,76.0
1771,44.0,0,12,0.0,56.0
1772,56.0,16,16,0.0,44.0
1773,60.0,0,16,0.0,52.0
1774,51.0,16,12,0.0,48.0
1775,72.0,16,48,0.0,81.0
1776,44.0,0,12,0.0,56.0
1777,61.0,0,16,0.0,54.0
1778,55.0,16,16,0.0,44.0
1779,51.0,16,12,0.0,48.0
1780,75.0,16,48,0.0,84.0
1781,44.0,0,12,0.0,56.0
1782,60.0,16,16,0.0,52.0
1783,56.0,0,16,0.0,44.0
1784,72.0,16,40,0.0,82.0
1785,51.0,16,12,0.0,50.0
1786,39.0,16,12,0.0,56.0
1787,61.0,0,16,0.0,52.0
1788,55.0,16,16,0.0,44.0
1789,72.0,0,36,0.0,78.0
1790,51.0,16,12,0.0,48.0
1791,70.0,4,12,0.0,74.0
1792,44.0,12,12,0.0,52.0
1793,56.0,16,16,0.0,42.0
1794,60.0,0,16,0.0,50.0
1795,68.0,0,40,0.0,72.0
1796,51.0,16,12,0.0,48.0
1797,44.0,0,12,0.0,48.0
1798,58.0,16,12,0.0,54.0
1799,51.0,16,12,0.0,42.0
1800,63.0,16,48,0.0,70.0
1801,44.0,16,12,0.0,50.0
1802,60.0,0,24,0.0,66.0
1803,56.0,16,15,0.0,50.0
1804,51.0,7,13,0.0,48.0
1805,63.0,8,24,0.0,79.0
1806,44.0,17,12,0.0,54.0
1807,68.0,0,24,0.0,79.0
1808,60.0,0,15,0.0,52.0
1809,56.0,16,15,0.0,44.0
1810,51.0,7,13,0.0,48.0
1811,70.0,8,24,0.0,80.0
1812,44.0,0,13,0.0,54.0
1813,72.0,17,24,0.0,82.0
1814,68.0,7,4,0.0,68.0
1815,70.0,4,4,0.0,66.0
1816,56.0,0,16,0.0,46.0
1817,60.0,17,16,0.0,54.0
1818,68.0,4,4,0.0,70.0
1819,67.0,3,4,0.0,78.0
1820,51.0,1,11,0.0,48.0
1821,68.0,4,8,0.0,76.0
1822,48.0,0,12,0.0,56.0
1823,79.0,8,16,0.0,84.0
1824,77.0,16,16,0.0,82.0
1825,63.0,0,16,0.0,58.0
1826,51.0,0,10,0.0,54.0
1827,75.0,16,12,0.0,80.0
1828,39.0,16,10,0.0,56.0
1829,63.0,16,16,0.0,56.0
1830,55.0,16,16,0.0,50.0
1831,70.0,0,48,0.0,74.0
1832,69.0,0,10,0.0,62.0
1833,49.0,16,12,0.0,46.0
1834,70.0,10,8,0.0,64.0
1835,71.0,2,7,0.0,68.0
1836,70.0,7,7,0.0,60.0
1837,64.0,6,16,0.0,42.0
1838,73.0,0,6,0.0,72.0
1839,71.0,6,5,0.0,68.0
1840,56.0,7,16,0.0,40.0
1841,70.0,5,0,0.0,62.0
1842,61.0,16,16,0.0,46.0
1843,52.0,0,40,0.0,46.0
1844,56.0,16,16,0.0,44.0
1845,61.0,16,16,0.0,44.0
1846,51.0,16,40,0.0,46.0
1847,55.0,16,12,0.0,42.0
1848,71.0,0,48,0.0,72.0
1849,44.0,0,12,0.0,46.0
1850,60.0,0,16,0.0,48.0
1851,56.0,16,16,0.0,40.0
1852,51.0,16,12,0.0,46.0
1853,72.0,16,48,0.0,74.0
1854,44.0,16,12,0.0,50.0
1855,56.0,16,16,0.0,40.0
1856,59.0,0,16,0.0,48.0
1857,50.0,16,12,0.0,48.0
1858,71.0,0,48,0.0,72.0
1859,44.0,16,12,0.0,50.0
1860,56.0,16,16,0.0,42.0
1861,60.0,0,16,0.0,50.0
1862,51.0,16,12,0.0,46.0
1863,72.0,0,48,0.0,77.0
1864,44.0,0,12,0.0,50.0
1865,55.0,0,16,0.0,44.0
1866,61.0,16,16,0.0,52.0
1867,51.0,16,12,0.0,46.0
1868,75.0,16,48,0.0,78.0
1869,44.0,0,12,0.0,52.0
1870,56.0,16,16,0.0,42.0
1871,60.0,0,16,0.0,50.0
1872,72.0,16,40,0.0,74.0
1873,51.0,16,12,0.0,46.0
1874,48.0,0,12,0.0,40.0
1875,55.0,16,16,0.0,34.0
1876,64.0,0,16,0.0,44.0
1877,72.0,16,36,0.0,68.0
1878,60.0,16,16,0.0,44.0
1879,70.0,4,12,0.0,62.0
1880,53.0,12,16,0.0,44.0
1881,65.0,16,16,0.0,44.0
1882,60.0,0,16,0.0,34.0
1883,68.0,0,32,0.0,60.0
1884,56.0,16,12,0.0,46.0
1885,68.0,8,4,0.0,56.0
1886,70.0,4,2,0.0,52.0
1887,70.0,4,5,0.0,58.0
1888,72.0,4,5,0.0,52.0
1889,49.0,0,12,0.0,44.0
1890,70.0,4,5,0.0,57.0
1891,72.0,4,5,0.0,54.0
1892,70.0,4,5,0.0,60.0
1893,72.0,4,5,0.0,58.0
1894,65.0,0,12,0.0,52.0
1895,58.0,0,12,0.0,42.0
1896,70.0,4,5,0.0,65.0
1897,72.0,4,5,0.0,63.0
1898,70.0,4,4,0.0,69.0
1899,72.0,3,4,0.0,64.0
1900,70.0,3,4,0.0,66.0
1901,68.0,3,4,0.0,66.0
1902,70.0,3,4,0.0,70.0
1903,72.0,0,9,0.0,70.0
1904,55.0,0,28,0.0,52.0
1905,48.0,4,12,0.0,52.0
1906,73.0,9,9,0.0,78.0
1907,72.0,2,9,0.0,74.0
1908,58.0,0,16,0.0,46.0
1909,64.0,7,16,0.0,56.0
1910,71.0,9,9,0.0,68.0
1911,72.0,4,2,0.0,80.0
1912,60.0,5,16,0.0,52.0
1913,72.0,4,8,0.0,80.0
1914,80.0,0,12,0.0,78.0
1915,53.0,8,16,0.0,50.0
1916,65.0,16,16,0.0,52.0
1917,56.0,0,16,0.0,42.0
1918,79.0,0,24,0.0,74.0
1919,77.0,8,4,0.0,74.0
1920,60.0,16,16,0.0,50.0
1921,49.0,0,12,0.0,48.0
1922,77.0,8,16,0.0,74.0
1923,56.0,16,16,0.0,40.0
1924,65.0,0,16,0.0,50.0
1925,75.0,0,24,0.0,70.0
1926,73.0,8,4,0.0,74.0
1927,58.0,16,16,0.0,44.0
1928,73.0,0,6,0.0,70.0
1929,75.0,6,5,0.0,64.0
1930,51.0,8,16,0.0,44.0
1931,73.0,5,5,0.0,60.0
1932,72.0,0,12,0.0,58.0
1933,55.0,5,16,0.0,36.0
1934,63.0,0,16,0.0,46.0
1935,61.0,16,12,0.0,42.0
1936,70.0,8,8,0.0,60.0
1937,44.0,8,12,0.0,46.0
1938,60.0,0,16,0.0,44.0
1939,56.0,16,16,0.0,36.0
1940,51.0,16,12,0.0,44.0
1941,68.0,0,48,0.0,64.0
1942,44.0,16,12,0.0,46.0
1943,59.0,16,16,0.0,42.0
1944,56.0,0,16,0.0,34.0
1945,50.0,16,12,0.0,44.0
1946,65.0,0,48,0.0,66.0
1947,44.0,0,12,0.0,46.0
1948,60.0,0,16,0.0,44.0
1949,56.0,16,16,0.0,36.0
1950,68.0,16,40,0.0,54.0
1951,51.0,16,12,0.0,44.0
1952,48.0,0,12,0.0,52.0
1953,63.0,16,16,0.0,52.0
1954,67.0,16,36,0.0,68.0
1955,56.0,16,12,0.0,50.0
1956,68.0,4,12,0.0,66.0
1957,63.0,16,16,0.0,50.0
1958,55.0,12,40,0.0,48.0
1959,70.0,0,48,0.0,72.0
1960,58.0,16,16,0.0,46.0
1961,63.0,16,16,0.0,50.0
1962,54.0,16,40,0.0,50.0
1963,72.0,0,40,0.0,76.0
1964,58.0,16,16,0.0,46.0
1965,63.0,16,16,0.0,52.0
1966,53.0,0,40,0.0,52.0
1967,57.0,16,12,0.0,50.0
1968,72.0,16,48,0.0,78.0
1969,46.0,0,12,0.0,52.0
1970,61.0,16,16,0.0,54.0
1971,58.0,16,12,0.0,52.0
1972,73.0,16,48,0.0,80.0
1973,51.0,16,12,0.0,50.0
1974,73.0,0,16,0.0,78.0
1975,73.0,8,8,0.0,74.0
1976,66.0,16,16,0.0,46.0
1977,75.0,0,8,0.0,76.0
1978,58.0,8,12,0.0,42.0
1979,73.0,8,8,0.0,74.0
1980,63.0,16,16,0.0,48.0
1981,72.0,8,36,0.0,70.0
1982,54.0,0,40,0.0,52.0
1983,58.0,16,16,0.0,44.0
1984,70.0,4,12,0.0,68.0
1985,63.0,16,16,0.0,48.0
1986,53.0,0,40,0.0,50.0
1987,60.0,16,12,0.0,44.0
1988,69.0,12,48,0.0,66.0
1989,46.0,0,12,0.0,48.0
1990,61.0,16,16,0.0,46.0
1991,58.0,16,16,0.0,42.0
1992,70.0,16,0,0.0,70.0
1993,61.0,16,16,0.0,48.0
1994,52.0,0,40,0.0,48.0
1995,56.0,16,16,0.0,44.0
1996,61.0,16,16,0.0,46.0
1997,72.0,16,36,0.0,74.0
1998,51.0,0,40,0.0,47.0
1999,55.0,16,16,0.0,42.0
2000,70.0,4,12,0.0,72.0
2001,49.0,12,12,0.0,46.0
2002,63.0,16,16,0.0,46.0
2003,77.0,0,48,0.0,78.0
2004,55.0,16,16,0.0,42.0
2005,48.0,16,12,0.0,44.0
2006,63.0,16,16,0.0,44.0
2007,56.0,16,12,0.0,42.0
2008,75.0,0,48,0.0,78.0
2009,46.0,0,12,0.0,46.0
2010,63.0,16,16,0.0,44.0
2011,73.0,16,40,0.0,70.0
2012,55.0,16,12,0.0,40.0
2013,72.0,8,6,0.0,60.0
2014,72.0,8,8,0.0,52.0
2015,44.0,0,12,0.0,40.0
2016,72.0,12,4,0.0,56.0
2017,73.0,0,4,0.0,58.0
2018,72.0,4,4,0.0,56.0
2019,71.0,4,4,0.0,54.0
2020,63.0,4,16,0.0,38.0
2021,72.0,4,4,0.0,56.0
2022,82.0,0,4,0.0,50.0
2023,80.0,4,4,0.0,54.0
2024,56.0,4,12,0.0,36.0
2025,75.0,4,4,0.0,56.0
2026,72.0,4,4,0.0,56.0
2027,39.0,4,12,0.0,48.0
2028,63.0,16,12,0.0,52.0
2029,54.0,16,16,0.0,48.0
2030,69.0,0,48,0.0,52.0
2031,55.0,16,16,0.0,47.0
2032,70.0,0,24,0.0,48.0
2033,61.0,16,16,0.0,48.0
2034,51.0,16,16,0.0,38.0
2035,71.0,4,12,0.0,56.0
2036,44.0,12,12,0.0,38.0
2037,56.0,16,16,0.0,32.0
2038,60.0,0,16,0.0,40.0
2039,51.0,16,12,0.0,38.0
2040,72.0,0,48,0.0,64.0
2041,44.0,0,12,0.0,42.0
2042,56.0,0,16,0.0,32.0
2043,59.0,16,16,0.0,40.0
2044,50.0,16,12,0.0,40.0
2045,71.0,16,48,0.0,62.0
2046,44.0,16,12,0.0,42.0
2047,60.0,0,16,0.0,42.0
2048,56.0,16,16,0.0,34.0
2049,51.0,16,12,0.0,38.0
2050,72.0,0,48,0.0,67.0
2051,44.0,0,12,0.0,42.0
2052,61.0,16,16,0.0,44.0
2053,55.0,0,16,0.0,36.0
2054,51.0,16,12,0.0,38.0
2055,75.0,16,48,0.0,70.0
2056,44.0,16,12,0.0,46.0
2057,56.0,16,16,0.0,36.0
2058,60.0,0,16,0.0,44.0
2059,72.0,0,40,0.0,66.0
2060,51.0,16,12,0.0,44.0
2061,48.0,0,12,0.0,36.0
2062,55.0,0,16,0.0,24.0
2063,64.0,16,16,0.0,34.0
2064,72.0,16,36,0.0,60.0
2065,70.0,4,12,0.0,54.0
2066,60.0,16,16,0.0,34.0
2067,53.0,0,16,0.0,36.0
2068,68.0,12,32,0.0,52.0
2069,60.0,0,16,0.0,28.0
2070,65.0,16,16,0.0,36.0
2071,68.0,8,4,0.0,46.0
2072,56.0,16,12,0.0,36.0
2073,70.0,4,2,0.0,44.0
2074,70.0,4,5,0.0,56.0
2075,72.0,4,5,0.0,48.0
2076,49.0,0,12,0.0,34.0
2077,70.0,4,5,0.0,53.0
2078,72.0,4,5,0.0,50.0
2079,70.0,0,5,0.0,56.0
2080,72.0,4,5,0.0,54.0
2081,58.0,4,12,0.0,32.0
2082,65.0,0,12,0.0,42.0
2083,70.0,4,5,0.0,61.0
2084,72.0,4,5,0.0,59.0
2085,70.0,0,4,0.0,65.0
2086,72.0,3,4,0.0,60.0
2087,70.0,3,4,0.0,62.0
2088,68.0,3,4,0.0,62.0
2089,70.0,3,4,0.0,66.0
2090,72.0,0,9,0.0,66.0
2091,55.0,4,28,0.0,42.0
2092,48.0,4,12,0.0,42.0
2093,73.0,9,9,0.0,74.0
2094,72.0,2,9,0.0,70.0
2095,58.0,0,16,0.0,38.0
2096,64.0,7,16,0.0,46.0
2097,71.0,9,9,0.0,64.0
2098,72.0,4,2,0.0,74.0
2099,60.0,5,16,0.0,42.0
2100,72.0,4,8,0.0,76.0
2101,80.0,0,12,0.0,74.0
2102,53.0,8,16,0.0,40.0
2103,56.0,0,16,0.0,34.0
2104,65.0,16,16,0.0,42.0
2105,79.0,0,24,0.0,72.0
2106,77.0,8,4,0.0,68.0
2107,60.0,16,16,0.0,40.0
2108,49.0,0,12,0.0,38.0
2109,77.0,8,16,0.0,68.0
2110,56.0,0,16,0.0,32.0
2111,65.0,0,16,0.0,40.0
2112,75.0,16,16,0.0,66.0
2113,73.0,0,14,0.0,60.0
2114,58.0,16,16,0.0,36.0
2115,73.0,0,6,0.0,54.0
2116,75.0,6,5,0.0,56.0
2117,73.0,5,5,0.0,54.0
2118,51.0,16,16,0.0,36.0
2119,72.0,5,12,0.0,50.0
2120,55.0,0,16,0.0,28.0
2121,63.0,0,16,0.0,36.0
2122,61.0,16,12,0.0,32.0
2123,70.0,8,8,0.0,52.0
2124,44.0,8,12,0.0,36.0
2125,60.0,16,16,0.0,34.0
2126,56.0,0,16,0.0,26.0
2127,51.0,16,12,0.0,34.0
2128,68.0,0,48,0.0,54.0
2129,44.0,0,12,0.0,36.0
2130,59.0,0,16,0.0,32.0
2131,56.0,16,16,0.0,24.0
2132,50.0,16,12,0.0,34.0
2133,65.0,16,48,0.0,56.0
2134,44.0,0,12,0.0,36.0
2135,56.0,16,16,0.0,26.0
2136,60.0,0,16,0.0,34.0
2137,68.0,16,40,0.0,54.0
2138,51.0,16,12,0.0,34.0
2139,48.0,16,12,0.0,38.0
2140,63.0,16,16,0.0,38.0
2141,67.0,0,36,0.0,62.0
2142,56.0,16,12,0.0,36.0
2143,68.0,4,12,0.0,60.0
2144,63.0,16,16,0.0,42.0
2145,55.0,0,40,0.0,40.0
2146,70.0,12,48,0.0,62.0
2147,58.0,16,16,0.0,38.0
2148,63.0,16,16,0.0,42.0
2149,72.0,16,40,0.0,66.0
2150,54.0,0,40,0.0,42.0
2151,58.0,16,16,0.0,38.0
2152,63.0,16,16,0.0,44.0
2153,53.0,16,40,0.0,44.0
2154,57.0,16,12,0.0,42.0
2155,72.0,0,48,0.0,70.0
2156,46.0,16,12,0.0,44.0
2157,61.0,16,16,0.0,46.0
2158,58.0,16,12,0.0,44.0
2159,73.0,0,48,0.0,72.0
2160,51.0,0,12,0.0,44.0
2161,73.0,16,16,0.0,68.0
2162,73.0,8,8,0.0,58.0
2163,66.0,16,16,0.0,40.0
2164,75.0,8,8,0.0,60.0
2165,58.0,0,12,0.0,36.0
2166,73.0,8,8,0.0,58.0
2167,63.0,16,16,0.0,40.0
2168,72.0,0,36,0.0,56.0
2169,54.0,8,40,0.0,44.0
2170,58.0,16,16,0.0,36.0
2171,70.0,4,12,0.0,54.0
2172,63.0,16,16,0.0,40.0
2173,53.0,12,40,0.0,42.0
2174,60.0,16,12,0.0,36.0
2175,69.0,0,48,0.0,54.0
2176,46.0,0,12,0.0,40.0
2177,61.0,16,16,0.0,38.0
2178,58.0,16,16,0.0,34.0
2179,70.0,0,0,0.0,62.0
2180,61.0,16,16,0.0,36.0
2181,52.0,16,40,0.0,36.0
2182,56.0,16,16,0.0,32.0
2183,61.0,16,16,0.0,34.0
2184,72.0,16,36,0.0,64.0
2185,51.0,0,40,0.0,35.0
2186,70.0,4,12,0.0,58.0
2187,55.0,16,16,0.0,30.0
2188,49.0,0,12,0.0,34.0
2189,63.0,16,16,0.0,38.0
2190,77.0,12,48,0.0,66.0
2191,55.0,16,16,0.0,34.0
2192,48.0,0,12,0.0,36.0
2193,63.0,16,16,0.0,36.0
2194,56.0,16,12,0.0,34.0
2195,75.0,16,48,0.0,63.0
2196,46.0,16,12,0.0,34.0
2197,63.0,16,16,0.0,36.0
2198,73.0,0,40,0.0,60.0
2199,55.0,16,12,0.0,34.0
2200,72.0,8,6,0.0,52.0
2201,72.0,0,16,0.0,50.0
2202,44.0,8,25,0.0,32.0
2203,72.0,24,8,0.0,48.0
2204,73.0,8,6,0.0,50.0
2205,72.0,5,6,0.0,48.0
2206,71.0,6,6,0.0,46.0
2207,72.0,6,6,0.0,48.0
2208,82.0,6,6,0.0,48.0
2209,63.0,1,32,0.0,34.0
2210,80.0,6,6,0.0,46.0
2211,84.0,3,6,0.0,50.0
2212,80.0,6,6,0.0,44.0
2213,75.0,6,8,0.0,46.0
2214,56.0,3,23,0.0,32.0
2215,72.0,8,8,0.0,48.0
2216,39.0,0,12,0.0,34.0
2217,63.0,16,12,0.0,38.0
2218,69.0,8,48,0.0,48.0
2219,54.0,16,16,0.0,34.0
2220,55.0,16,32,0.0,35.0
2221,70.0,0,48,0.0,48.0
2222,61.0,32,32,0.0,36.0
2223,51.0,32,32,0.0,30.0
2224,71.0,8,24,0.0,44.0
2225,72.0,24,10,0.0,46.0
2226,44.0,0,11,0.0,30.0
2227,73.0,10,10,0.0,55.0
2228,71.0,5,9,0.0,48.0
2229,56.0,5,16,0.0,22.0
2230,60.0,0,16,0.0,30.0
2231,73.0,9,9,0.0,46.0
2232,51.0,2,15,0.0,28.0
2233,72.0,7,10,0.0,44.0
2234,71.0,0,10,0.0,42.0
2235,44.0,10,11,0.0,34.0
2236,72.0,10,10,0.0,50.0
2237,70.0,5,9,0.0,48.0
2238,59.0,0,15,0.0,30.0
2239,56.0,5,15,0.0,22.0
2240,72.0,9,9,0.0,54.0
2241,50.0,1,16,0.0,30.0
2242,71.0,8,10,0.0,52.0
2243,72.0,0,10,0.0,56.0
2244,44.0,10,11,0.0,38.0
2245,73.0,10,10,0.0,52.0
2246,71.0,5,9,0.0,50.0
2247,60.0,0,16,0.0,38.0
2248,56.0,5,16,0.0,30.0
2249,73.0,9,9,0.0,52.0
2250,51.0,2,15,0.0,34.0
2251,72.0,7,10,0.0,50.0
2252,75.0,10,10,0.0,56.0
2253,44.0,0,11,0.0,38.0
2254,77.0,10,10,0.0,52.0
2255,74.0,5,9,0.0,53.0
2256,55.0,5,16,0.0,34.0
2257,61.0,0,16,0.0,40.0
2258,77.0,9,9,0.0,50.0
2259,51.0,2,15,0.0,34.0
2260,75.0,7,10,0.0,48.0
2261,72.0,10,10,0.0,50.0
2262,44.0,0,13,0.0,38.0
2263,73.0,10,10,0.0,54.0
2264,71.0,3,9,0.0,50.0
2265,60.0,0,15,0.0,38.0
2266,56.0,7,15,0.0,32.0
2267,73.0,9,9,0.0,52.0
2268,51.0,3,14,0.0,34.0
2269,72.0,6,10,0.0,50.0
2270,70.0,0,10,0.0,50.0
2271,48.0,10,13,0.0,36.0
2272,72.0,10,10,0.0,48.0
2273,69.0,3,9,0.0,46.0
2274,55.0,7,16,0.0,28.0
2275,64.0,0,16,0.0,36.0
2276,72.0,9,9,0.0,49.0
2277,70.0,5,10,0.0,46.0
2278,60.0,4,15,0.0,30.0
2279,67.0,0,5,0.0,44.0
2280,68.0,4,5,0.0,40.0
2281,70.0,4,5,0.0,50.0
2282,68.0,4,5,0.0,54.0
2283,53.0,10,18,0.0,40.0
2284,70.0,4,5,0.0,51.0
2285,68.0,2,5,0.0,56.0
2286,70.0,4,5,0.0,53.0
2287,68.0,4,5,0.0,57.0
2288,70.0,4,5,0.0,52.0
2289,65.0,0,21,0.0,40.0
2290,60.0,2,21,0.0,32.0
2291,68.0,4,5,0.0,55.0
2292,70.0,1,5,0.0,50.0
2293,68.0,4,5,0.0,52.0
2294,67.0,4,5,0.0,58.0
2295,56.0,3,15,0.0,38.0
2296,68.0,4,5,0.0,54.0
2297,69.0,4,5,0.0,48.0
2298,70.0,4,5,0.0,46.0
2299,72.0,4,5,0.0,46.0
2300,49.0,0,15,0.0,44.0
2301,70.0,4,5,0.0,52.0
2302,72.0,4,5,0.0,50.0
2303,70.0,1,5,0.0,56.0
2304,72.0,4,5,0.0,54.0
2305,70.0,4,5,0.0,58.0
2306,72.0,4,5,0.0,54.0
2307,58.0,0,20,0.0,36.0
2308,65.0,3,20,0.0,44.0
2309,70.0,4,5,0.0,58.0
2310,72.0,1,5,0.0,52.0
2311,70.0,4,5,0.0,54.0
2312,69.0,4,5,0.0,54.0
2313,70.0,4,5,0.0,62.0
2314,71.0,0,6,0.0,50.0
2315,72.0,6,5,0.0,52.0
2316,55.0,3,31,0.0,42.0
2317,48.0,4,14,0.0,42.0
2318,73.0,5,5,0.0,62.0
2319,72.0,0,5,0.0,58.0
2320,71.0,5,5,0.0,56.0
2321,58.0,0,14,0.0,30.0
2322,64.0,5,14,0.0,38.0
2323,72.0,5,5,0.0,56.0
2324,75.0,5,5,0.0,60.0
2325,72.0,5,2,0.0,55.0
2326,60.0,1,16,0.0,34.0
2327,72.0,3,8,0.0,52.0
2328,73.0,4,18,0.0,56.0
2329,80.0,2,14,0.0,66.0
2330,53.0,6,16,0.0,36.0
2331,56.0,16,14,0.0,28.0
2332,65.0,0,14,0.0,36.0
2333,79.0,0,24,0.0,62.0
2334,77.0,8,4,0.0,56.0
2335,60.0,16,14,0.0,38.0
2336,49.0,0,14,0.0,40.0
2337,77.0,8,16,0.0,56.0
2338,56.0,0,14,0.0,30.0
2339,65.0,0,14,0.0,38.0
2340,75.0,16,16,0.0,60.0
2341,73.0,16,6,0.0,60.0
2342,73.0,10,3,0.0,60.0
2343,58.0,0,14,0.0,38.0
2344,75.0,3,3,0.0,56.0
2345,51.0,0,14,0.0,44.0
2346,73.0,3,16,0.0,58.0
2347,55.0,0,14,0.0,34.0
2348,63.0,16,14,0.0,42.0
2349,72.0,0,16,0.0,56.0
2350,70.0,8,6,0.0,58.0
2351,61.0,16,14,0.0,48.0
2352,52.0,8,14,0.0,48.0
2353,67.0,0,14,0.0,46.0
2354,58.0,16,14,0.0,36.0
2355,60.0,16,14,0.0,58.0
2356,72.0,0,48,0.0,68.0
2357,53.0,16,14,0.0,42.0
2358,80.0,0,16,0.0,76.0
2359,56.0,16,14,0.0,32.0
2360,65.0,0,14,0.0,42.0
2361,79.0,0,16,0.0,70.0
2362,77.0,16,12,0.0,68.0
2363,60.0,0,14,0.0,40.0
2364,49.0,0,14,0.0,38.0
2365,77.0,16,16,0.0,62.0
2366,56.0,0,14,0.0,24.0
2367,65.0,0,14,0.0,34.0
2368,75.0,16,16,0.0,60.0
2369,73.0,0,12,0.0,56.0
2370,58.0,16,14,0.0,28.0
2371,73.0,0,6,0.0,44.0
2372,75.0,6,5,0.0,46.0
2373,73.0,5,5,0.0,45.0
2374,55.0,5,14,0.0,22.0
2375,72.0,0,16,0.0,44.0
2376,63.0,0,30,0.0,32.0
2377,51.0,16,46,0.0,32.0
2378,61.0,0,32,0.0,30.0
2379,70.0,16,32,0.0,40.0
2380,44.0,40,88,0.0,50.0
2381,51.0,4,84,0.0,48.0
2382,56.0,4,80,0.0,50.0
2383,63.0,4,72,0.0,54.0
2384,72.0,4,64,0.0,64.0
2385,68.0,4,68,0.0,56.0
2386,60.0,4,76,0.0,52.0
2387,65.0,0,40,0.0,44.0
2388,64.0,48,24,0.0,52.0
2389,68.0,0,72,0.0,72.0
2390,61.0,0,84,0.0,50.0
2391,49.0,0,108,0.0,40.0
2392,56.0,72,108,0.0,46.0
2393,70.0,24,48,0.0,40.0
2394,44.0,48,156,0.0,40.0
2395,72.0,20,116,0.0,46.0
2396,68.0,4,136,0.0,46.0
2397,63.0,4,140,0.0,47.0
2398,60.0,4,144,0.0,48.0
2399,56.0,4,148,0.0,46.0
2400,51.0,4,152,0.0,44.0
