,note,step,duration,channel,velocity
0,66.0,0,48,0.0,43.0
1,75.0,0,12,0.0,52.0
2,47.0,48,24,0.0,30.0
3,74.0,12,12,0.0,55.0
4,66.0,12,16,0.0,26.0
5,54.0,24,40,0.0,34.0
6,75.0,0,24,0.0,58.0
7,74.0,0,12,0.0,58.0
8,47.0,24,24,0.0,34.0
9,73.0,12,12,0.0,58.0
10,53.0,24,40,0.0,33.0
11,65.0,12,16,0.0,31.0
12,74.0,0,22,0.0,56.0
13,47.0,24,24,0.0,31.0
14,52.0,24,40,0.0,31.0
15,64.0,24,16,0.0,28.0
16,73.0,0,94,0.0,56.0
17,47.0,24,24,0.0,30.0
18,75.0,24,24,0.0,55.0
19,67.0,0,16,0.0,36.0
20,55.0,0,40,0.0,38.0
21,76.0,24,24,0.0,57.0
22,47.0,24,24,0.0,37.0
23,78.0,0,24,0.0,60.0
24,80.0,24,36,0.0,68.0
25,69.0,24,16,0.0,32.0
26,57.0,0,40,0.0,38.0
27,78.0,12,12,0.0,59.0
28,77.0,0,12,0.0,57.0
29,47.0,12,24,0.0,37.0
30,78.0,24,36,0.0,55.0
31,68.0,24,16,0.0,33.0
32,56.0,0,40,0.0,38.0
33,77.0,12,12,0.0,56.0
34,47.0,0,24,0.0,34.0
35,55.0,24,40,0.0,35.0
36,67.0,24,16,0.0,32.0
37,47.0,24,24,0.0,33.0
38,76.0,12,118,0.0,52.0
39,66.0,0,16,0.0,26.0
40,54.0,24,40,0.0,30.0
41,75.0,24,22,0.0,54.0
42,47.0,0,24,0.0,34.0
43,73.0,24,34,0.0,50.0
44,71.0,12,12,0.0,56.0
45,64.0,12,16,0.0,36.0
46,52.0,24,40,0.0,30.0
47,73.0,0,24,0.0,62.0
48,75.0,0,22,0.0,58.0
49,47.0,24,24,0.0,34.0
50,73.0,12,12,0.0,62.0
51,54.0,24,40,0.0,38.0
52,66.0,12,16,0.0,36.0
53,75.0,0,24,0.0,65.0
54,37.0,24,16,0.0,34.0
55,78.0,0,16,0.0,63.0
56,49.0,0,24,0.0,30.0
57,56.0,24,24,0.0,40.0
58,61.0,24,24,0.0,34.0
59,76.0,24,88,0.0,63.0
60,56.0,24,24,0.0,32.0
61,64.0,0,16,0.0,30.0
62,76.0,24,48,0.0,48.0
63,68.0,0,24,0.0,48.0
64,52.0,24,24,0.0,31.0
65,70.0,24,22,0.0,46.0
66,59.0,0,24,0.0,26.0
67,71.0,0,8,0.0,40.0
68,73.0,8,8,0.0,45.0
69,49.0,24,88,0.0,35.0
70,71.0,8,6,0.0,41.0
71,56.0,24,24,0.0,28.0
72,70.0,0,10,0.0,40.0
73,71.0,12,10,0.0,39.0
74,64.0,8,24,0.0,26.0
75,75.0,12,16,0.0,50.0
76,59.0,0,16,0.0,26.0
77,73.0,18,4,0.0,45.0
78,42.0,6,24,0.0,34.0
79,49.0,24,24,0.0,32.0
80,58.0,24,24,0.0,38.0
81,54.0,24,24,0.0,32.0
82,70.0,0,102,0.0,42.0
83,65.0,8,8,0.0,48.0
84,64.0,24,24,0.0,30.0
85,66.0,8,8,0.0,44.0
86,68.0,0,6,0.0,48.0
87,70.0,6,6,0.0,50.0
88,71.0,6,6,0.0,48.0
89,58.0,8,22,0.0,32.0
90,73.0,6,6,0.0,44.0
91,75.0,0,15,0.0,50.0
92,47.0,6,16,0.0,30.0
93,77.0,15,14,0.0,52.0
94,76.0,5,14,0.0,49.0
95,74.0,14,14,0.0,48.0
96,54.0,9,40,0.0,34.0
97,66.0,5,16,0.0,26.0
98,75.0,9,15,0.0,54.0
99,74.0,15,15,0.0,55.0
100,47.0,0,16,0.0,34.0
101,76.0,15,14,0.0,54.0
102,75.0,5,14,0.0,54.0
103,73.0,14,14,0.0,58.0
104,53.0,9,40,0.0,33.0
105,65.0,5,16,0.0,31.0
106,74.0,9,15,0.0,56.0
107,47.0,0,16,0.0,31.0
108,64.0,24,16,0.0,28.0
109,52.0,24,40,0.0,31.0
110,73.0,15,83,0.0,52.0
111,47.0,24,16,0.0,30.0
112,72.0,11,10,0.0,50.0
113,73.0,10,10,0.0,47.0
114,74.0,7,10,0.0,45.0
115,75.0,10,10,0.0,47.0
116,76.0,3,10,0.0,51.0
117,67.0,7,16,0.0,36.0
118,55.0,3,40,0.0,38.0
119,77.0,10,11,0.0,50.0
120,78.0,11,8,0.0,58.0
121,79.0,8,8,0.0,56.0
122,47.0,0,16,0.0,37.0
123,80.0,8,8,0.0,59.0
124,81.0,0,8,0.0,62.0
125,82.0,8,8,0.0,65.0
126,83.0,8,8,0.0,64.0
127,84.0,0,8,0.0,62.0
128,81.0,8,8,0.0,58.0
129,57.0,8,40,0.0,38.0
130,69.0,8,16,0.0,32.0
131,78.0,8,8,0.0,54.0
132,77.0,0,8,0.0,58.0
133,78.0,8,8,0.0,56.0
134,47.0,8,16,0.0,37.0
135,79.0,8,8,0.0,59.0
136,80.0,8,8,0.0,60.0
137,81.0,8,8,0.0,55.0
138,82.0,8,8,0.0,50.0
139,83.0,8,8,0.0,44.0
140,56.0,0,40,0.0,38.0
141,68.0,0,16,0.0,33.0
142,80.0,8,8,0.0,47.0
143,77.0,8,8,0.0,44.0
144,47.0,0,16,0.0,37.0
145,55.0,24,40,0.0,35.0
146,67.0,24,16,0.0,32.0
147,47.0,24,16,0.0,33.0
148,76.0,8,120,0.0,54.0
149,66.0,24,16,0.0,26.0
150,54.0,24,40,0.0,30.0
151,75.0,0,24,0.0,54.0
152,73.0,24,24,0.0,56.0
153,41.0,0,24,0.0,36.0
154,49.0,24,24,0.0,35.0
155,75.0,0,24,0.0,70.0
156,59.0,24,24,0.0,38.0
157,73.0,0,24,0.0,64.0
158,53.0,24,24,0.0,40.0
159,68.0,0,48,0.0,60.0
160,61.0,24,24,0.0,46.0
161,73.0,24,12,0.0,68.0
162,49.0,0,24,0.0,36.0
163,73.0,18,6,0.0,64.0
164,42.0,0,24,0.0,40.0
165,49.0,24,24,0.0,38.0
166,58.0,24,24,0.0,40.0
167,82.0,6,72,0.0,66.0
168,80.0,0,18,0.0,64.0
169,54.0,24,24,0.0,36.0
170,78.0,18,18,0.0,58.0
171,61.0,6,24,0.0,38.0
172,77.0,12,18,0.0,65.0
173,49.0,12,24,0.0,34.0
174,75.0,6,18,0.0,67.0
175,73.0,0,24,0.0,68.0
176,41.0,18,24,0.0,36.0
177,49.0,24,24,0.0,35.0
178,75.0,0,36,0.0,64.0
179,59.0,24,24,0.0,38.0
180,73.0,12,12,0.0,68.0
181,53.0,0,24,0.0,48.0
182,68.0,12,48,0.0,64.0
183,61.0,24,24,0.0,50.0
184,73.0,0,16,0.0,70.0
185,49.0,24,24,0.0,44.0
186,73.0,4,4,0.0,48.0
187,66.0,16,8,0.0,52.0
188,82.0,0,24,0.0,72.0
189,42.0,4,24,0.0,40.0
190,49.0,24,24,0.0,38.0
191,83.0,0,36,0.0,66.0
192,58.0,24,24,0.0,43.0
193,82.0,12,12,0.0,72.0
194,80.0,0,18,0.0,68.0
195,54.0,12,24,0.0,36.0
196,78.0,18,18,0.0,67.0
197,61.0,6,24,0.0,38.0
198,77.0,12,18,0.0,65.0
199,75.0,6,18,0.0,64.0
200,49.0,12,24,0.0,34.0
201,73.0,0,14,0.0,64.0
202,75.0,14,5,0.0,56.0
203,77.0,5,5,0.0,58.0
204,41.0,18,24,0.0,38.0
205,49.0,0,24,0.0,36.0
206,75.0,5,36,0.0,56.0
207,73.0,12,4,0.0,62.0
208,59.0,24,24,0.0,38.0
209,73.0,6,6,0.0,60.0
210,53.0,6,24,0.0,34.0
211,68.0,0,48,0.0,58.0
212,61.0,24,24,0.0,35.0
213,49.0,24,24,0.0,30.0
214,73.0,0,24,0.0,64.0
215,42.0,0,24,0.0,34.0
216,49.0,24,24,0.0,30.0
217,59.0,24,24,0.0,32.0
218,55.0,24,24,0.0,30.0
219,64.0,24,24,0.0,28.0
220,76.0,24,142,0.0,57.0
221,59.0,24,24,0.0,26.0
222,42.0,24,24,0.0,30.0
223,66.0,24,6,0.0,34.0
224,68.0,12,6,0.0,36.0
225,49.0,0,24,0.0,26.0
226,70.0,0,6,0.0,39.0
227,71.0,12,6,0.0,40.0
228,58.0,12,24,0.0,28.0
229,54.0,0,24,0.0,26.0
230,73.0,12,24,0.0,38.0
231,64.0,24,24,0.0,25.0
232,58.0,0,24,0.0,26.0
233,75.0,24,24,0.0,48.0
234,47.0,0,24,0.0,31.0
235,54.0,24,24,0.0,30.0
236,63.0,24,24,0.0,35.0
237,59.0,24,24,0.0,32.0
238,71.0,24,96,0.0,38.0
239,66.0,24,24,0.0,32.0
240,54.0,24,24,0.0,28.0
241,75.0,24,12,0.0,52.0
242,47.0,0,24,0.0,30.0
243,74.0,12,12,0.0,55.0
244,66.0,12,16,0.0,26.0
245,54.0,24,40,0.0,34.0
246,75.0,0,24,0.0,58.0
247,74.0,24,12,0.0,58.0
248,47.0,0,24,0.0,34.0
249,73.0,12,12,0.0,58.0
250,65.0,0,16,0.0,31.0
251,53.0,24,40,0.0,33.0
252,74.0,12,22,0.0,56.0
253,47.0,0,24,0.0,31.0
254,52.0,24,40,0.0,31.0
255,64.0,24,16,0.0,28.0
256,73.0,24,94,0.0,56.0
257,47.0,24,24,0.0,30.0
258,75.0,24,24,0.0,60.0
259,55.0,0,40,0.0,38.0
260,67.0,0,16,0.0,36.0
261,76.0,24,24,0.0,62.0
262,78.0,0,12,0.0,60.0
263,47.0,24,24,0.0,37.0
264,80.0,0,30,0.0,56.0
265,78.0,6,6,0.0,48.0
266,57.0,24,40,0.0,38.0
267,69.0,24,16,0.0,32.0
268,80.0,6,6,0.0,52.0
269,78.0,6,6,0.0,48.0
270,47.0,0,24,0.0,37.0
271,77.0,6,24,0.0,50.0
272,78.0,0,12,0.0,50.0
273,77.0,12,12,0.0,48.0
274,83.0,0,12,0.0,38.0
275,56.0,24,40,0.0,38.0
276,68.0,12,16,0.0,33.0
277,77.0,12,12,0.0,42.0
278,47.0,12,24,0.0,34.0
279,55.0,24,40,0.0,35.0
280,67.0,24,16,0.0,32.0
281,47.0,24,24,0.0,33.0
282,76.0,0,118,0.0,52.0
283,75.0,0,10,0.0,54.0
284,54.0,24,40,0.0,30.0
285,66.0,24,16,0.0,26.0
286,73.0,12,5,0.0,40.0
287,75.0,3,5,0.0,48.0
288,73.0,3,5,0.0,54.0
289,75.0,3,5,0.0,50.0
290,47.0,3,24,0.0,34.0
291,73.0,0,34,0.0,48.0
292,71.0,12,12,0.0,50.0
293,52.0,24,40,0.0,30.0
294,64.0,0,16,0.0,36.0
295,73.0,12,24,0.0,62.0
296,75.0,0,22,0.0,56.0
297,47.0,24,24,0.0,34.0
298,73.0,12,12,0.0,62.0
299,54.0,24,40,0.0,38.0
300,66.0,0,16,0.0,36.0
301,75.0,12,24,0.0,65.0
302,37.0,24,16,0.0,34.0
303,78.0,0,16,0.0,54.0
304,49.0,0,24,0.0,30.0
305,56.0,24,24,0.0,40.0
306,61.0,24,24,0.0,34.0
307,76.0,24,88,0.0,63.0
308,56.0,24,24,0.0,32.0
309,64.0,24,16,0.0,30.0
310,76.0,0,44,0.0,46.0
311,68.0,24,6,0.0,46.0
312,70.0,6,6,0.0,44.0
313,68.0,6,6,0.0,45.0
314,67.0,6,5,0.0,46.0
315,52.0,0,24,0.0,31.0
316,68.0,5,5,0.0,48.0
317,70.0,4,4,0.0,50.0
318,71.0,4,4,0.0,52.0
319,73.0,4,4,0.0,52.0
320,75.0,4,4,0.0,50.0
321,76.0,4,4,0.0,48.0
322,59.0,1,24,0.0,26.0
323,78.0,0,4,0.0,49.0
324,79.0,4,4,0.0,50.0
325,82.0,4,4,0.0,52.0
326,80.0,4,4,0.0,51.0
327,49.0,24,88,0.0,35.0
328,78.0,4,4,0.0,50.0
329,56.0,4,24,0.0,28.0
330,76.0,4,4,0.0,48.0
331,75.0,4,5,0.0,49.0
332,76.0,5,5,0.0,50.0
333,75.0,5,4,0.0,48.0
334,73.0,4,5,0.0,46.0
335,64.0,0,24,0.0,26.0
336,75.0,5,5,0.0,44.0
337,76.0,0,6,0.0,40.0
338,68.0,6,6,0.0,38.0
339,59.0,5,16,0.0,26.0
340,75.0,6,6,0.0,40.0
341,73.0,9,4,0.0,34.0
342,42.0,0,24,0.0,34.0
343,49.0,24,24,0.0,32.0
344,58.0,24,24,0.0,38.0
345,54.0,24,24,0.0,32.0
346,70.0,3,102,0.0,38.0
347,65.0,8,8,0.0,38.0
348,66.0,8,8,0.0,44.0
349,64.0,24,24,0.0,30.0
350,68.0,0,6,0.0,48.0
351,70.0,6,6,0.0,50.0
352,71.0,6,6,0.0,46.0
353,58.0,8,22,0.0,32.0
354,73.0,6,6,0.0,44.0
355,75.0,0,12,0.0,42.0
356,47.0,6,16,0.0,30.0
357,77.0,24,12,0.0,52.0
358,76.0,12,12,0.0,49.0
359,74.0,0,12,0.0,48.0
360,54.0,0,40,0.0,34.0
361,66.0,12,16,0.0,26.0
362,75.0,12,12,0.0,54.0
363,74.0,12,12,0.0,53.0
364,47.0,0,16,0.0,34.0
365,76.0,0,12,0.0,58.0
366,75.0,12,12,0.0,58.0
367,73.0,0,12,0.0,54.0
368,65.0,12,16,0.0,31.0
369,53.0,24,40,0.0,33.0
370,74.0,12,12,0.0,56.0
371,47.0,0,16,0.0,31.0
372,64.0,24,16,0.0,28.0
373,52.0,24,40,0.0,31.0
374,47.0,24,16,0.0,30.0
375,73.0,12,92,0.0,52.0
376,72.0,24,12,0.0,46.0
377,73.0,12,12,0.0,48.0
378,75.0,0,12,0.0,51.0
379,67.0,12,16,0.0,36.0
380,55.0,0,40,0.0,38.0
381,76.0,12,12,0.0,50.0
382,77.0,12,9,0.0,60.0
383,47.0,0,16,0.0,37.0
384,78.0,9,9,0.0,50.0
385,80.0,9,9,0.0,53.0
386,78.0,3,9,0.0,52.0
387,83.0,9,7,0.0,54.0
388,84.0,9,9,0.0,52.0
389,96.0,6,6,0.0,66.0
390,69.0,3,16,0.0,32.0
391,57.0,6,40,0.0,38.0
392,78.0,9,8,0.0,56.0
393,76.0,0,9,0.0,58.0
394,47.0,9,16,0.0,37.0
395,77.0,9,9,0.0,54.0
396,78.0,9,9,0.0,55.0
397,77.0,3,9,0.0,56.0
398,82.0,9,9,0.0,52.0
399,83.0,9,9,0.0,48.0
400,95.0,6,8,0.0,54.0
401,56.0,6,40,0.0,38.0
402,68.0,3,16,0.0,33.0
403,77.0,9,9,0.0,56.0
404,47.0,0,16,0.0,37.0
405,55.0,24,40,0.0,35.0
406,67.0,24,16,0.0,32.0
407,47.0,24,16,0.0,33.0
408,76.0,9,120,0.0,54.0
409,54.0,24,40,0.0,30.0
410,66.0,24,16,0.0,26.0
411,75.0,0,24,0.0,54.0
412,73.0,24,24,0.0,56.0
413,41.0,0,24,0.0,36.0
414,49.0,24,24,0.0,35.0
415,75.0,0,24,0.0,70.0
416,73.0,24,24,0.0,64.0
417,59.0,0,24,0.0,38.0
418,53.0,24,24,0.0,40.0
419,61.0,24,24,0.0,46.0
420,68.0,0,48,0.0,60.0
421,73.0,0,20,0.0,66.0
422,49.0,24,24,0.0,36.0
423,42.0,24,24,0.0,40.0
424,49.0,24,24,0.0,38.0
425,82.0,0,72,0.0,66.0
426,58.0,24,24,0.0,40.0
427,80.0,24,18,0.0,64.0
428,54.0,0,24,0.0,36.0
429,78.0,18,18,0.0,58.0
430,61.0,6,24,0.0,38.0
431,77.0,12,18,0.0,65.0
432,75.0,6,18,0.0,67.0
433,49.0,12,24,0.0,34.0
434,73.0,0,24,0.0,68.0
435,41.0,18,24,0.0,36.0
436,49.0,0,24,0.0,35.0
437,75.0,24,36,0.0,64.0
438,73.0,12,4,0.0,60.0
439,59.0,24,24,0.0,38.0
440,73.0,6,6,0.0,58.0
441,53.0,6,24,0.0,48.0
442,68.0,0,48,0.0,64.0
443,61.0,24,24,0.0,50.0
444,73.0,24,16,0.0,70.0
445,73.0,4,4,0.0,56.0
446,66.0,16,8,0.0,52.0
447,49.0,0,24,0.0,44.0
448,42.0,4,24,0.0,40.0
449,82.0,0,24,0.0,72.0
450,49.0,0,24,0.0,38.0
451,83.0,24,36,0.0,66.0
452,82.0,12,12,0.0,72.0
453,58.0,24,24,0.0,43.0
454,80.0,12,18,0.0,68.0
455,54.0,0,24,0.0,36.0
456,78.0,18,18,0.0,67.0
457,61.0,6,24,0.0,38.0
458,77.0,12,18,0.0,65.0
459,75.0,6,18,0.0,64.0
460,49.0,12,24,0.0,34.0
461,73.0,18,14,0.0,64.0
462,75.0,14,5,0.0,56.0
463,77.0,5,5,0.0,58.0
464,41.0,0,24,0.0,38.0
465,49.0,0,24,0.0,36.0
466,75.0,5,36,0.0,56.0
467,73.0,12,4,0.0,62.0
468,73.0,6,6,0.0,60.0
469,59.0,24,24,0.0,38.0
470,53.0,0,24,0.0,34.0
471,68.0,6,48,0.0,58.0
472,61.0,24,24,0.0,35.0
473,73.0,0,24,0.0,64.0
474,49.0,24,24,0.0,30.0
475,42.0,0,24,0.0,34.0
476,49.0,24,24,0.0,30.0
477,59.0,24,24,0.0,32.0
478,55.0,24,24,0.0,30.0
479,64.0,24,24,0.0,28.0
480,76.0,24,142,0.0,68.0
481,59.0,24,24,0.0,26.0
482,42.0,24,24,0.0,30.0
483,66.0,24,6,0.0,34.0
484,68.0,12,6,0.0,36.0
485,49.0,0,24,0.0,26.0
486,70.0,12,6,0.0,39.0
487,71.0,12,6,0.0,40.0
488,58.0,0,24,0.0,28.0
489,54.0,0,24,0.0,26.0
490,73.0,12,24,0.0,38.0
491,64.0,24,24,0.0,25.0
492,58.0,24,24,0.0,26.0
493,75.0,0,24,0.0,48.0
494,47.0,0,24,0.0,31.0
495,54.0,24,24,0.0,28.0
496,63.0,24,24,0.0,32.0
497,71.0,24,84,0.0,38.0
498,59.0,24,24,0.0,28.0
499,66.0,24,24,0.0,28.0
500,70.0,0,24,0.0,46.0
501,71.0,24,24,0.0,53.0
502,54.0,0,24,0.0,30.0
503,46.0,0,24,0.0,30.0
504,49.0,24,24,0.0,28.0
505,73.0,24,72,0.0,54.0
506,54.0,24,24,0.0,30.0
507,49.0,0,24,0.0,32.0
508,78.0,24,48,0.0,59.0
509,61.0,24,24,0.0,36.0
510,75.0,24,24,0.0,60.0
511,54.0,0,24,0.0,30.0
512,44.0,0,24,0.0,36.0
513,51.0,24,24,0.0,32.0
514,54.0,24,24,0.0,34.0
515,73.0,24,72,0.0,53.0
516,51.0,24,24,0.0,36.0
517,59.0,24,24,0.0,34.0
518,71.0,0,60,0.0,44.0
519,54.0,24,24,0.0,36.0
520,44.0,24,24,0.0,36.0
521,83.0,0,36,0.0,62.0
522,82.0,12,12,0.0,61.0
523,49.0,24,24,0.0,30.0
524,80.0,0,12,0.0,63.0
525,78.0,12,12,0.0,65.0
526,53.0,12,24,0.0,32.0
527,77.0,0,12,0.0,66.0
528,78.0,12,12,0.0,62.0
529,49.0,12,24,0.0,34.0
530,80.0,0,12,0.0,70.0
531,59.0,12,24,0.0,34.0
532,71.0,12,12,0.0,60.0
533,73.0,12,12,0.0,58.0
534,68.0,12,12,0.0,60.0
535,53.0,0,24,0.0,30.0
536,42.0,0,24,0.0,36.0
537,49.0,24,24,0.0,33.0
538,53.0,24,24,0.0,32.0
539,49.0,24,24,0.0,30.0
540,58.0,24,24,0.0,34.0
541,53.0,24,24,0.0,33.0
542,42.0,24,24,0.0,39.0
543,47.0,24,24,0.0,40.0
544,70.0,12,204,0.0,50.0
545,51.0,24,24,0.0,43.0
546,47.0,0,24,0.0,36.0
547,58.0,24,24,0.0,36.0
548,75.0,24,48,0.0,52.0
549,51.0,24,24,0.0,32.0
550,71.0,0,24,0.0,48.0
551,41.0,0,24,0.0,34.0
552,47.0,24,24,0.0,32.0
553,70.0,24,48,0.0,49.0
554,68.0,0,22,0.0,46.0
555,51.0,24,24,0.0,28.0
556,47.0,24,24,0.0,30.0
557,56.0,24,24,0.0,30.0
558,51.0,24,24,0.0,26.0
559,80.0,0,84,0.0,66.0
560,78.0,12,12,0.0,44.0
561,41.0,24,24,0.0,31.0
562,77.0,12,12,0.0,48.0
563,46.0,0,24,0.0,28.0
564,75.0,12,12,0.0,47.0
565,74.0,0,12,0.0,49.0
566,50.0,12,24,0.0,28.0
567,75.0,12,12,0.0,47.0
568,76.0,0,12,0.0,46.0
569,77.0,12,12,0.0,42.0
570,46.0,12,24,0.0,30.0
571,69.0,12,12,0.0,44.0
572,56.0,0,24,0.0,28.0
573,70.0,12,12,0.0,42.0
574,71.0,0,16,0.0,42.0
575,65.0,8,8,0.0,44.0
576,50.0,12,24,0.0,27.0
577,70.0,8,8,0.0,41.0
578,39.0,0,24,0.0,30.0
579,46.0,24,24,0.0,29.0
580,68.0,8,60,0.0,44.0
581,54.0,24,24,0.0,28.0
582,51.0,24,24,0.0,29.0
583,58.0,24,24,0.0,32.0
584,66.0,0,60,0.0,40.0
585,65.0,12,6,0.0,56.0
586,54.0,24,24,0.0,31.0
587,46.0,12,24,0.0,32.0
588,65.0,0,36,0.0,50.0
589,53.0,24,24,0.0,31.0
590,62.0,0,24,0.0,32.0
591,58.0,24,24,0.0,32.0
592,70.0,24,60,0.0,52.0
593,65.0,24,24,0.0,34.0
594,70.0,24,12,0.0,58.0
595,53.0,0,24,0.0,32.0
596,70.0,0,24,0.0,60.0
597,46.0,24,24,0.0,38.0
598,71.0,24,24,0.0,46.0
599,54.0,0,24,0.0,36.0
600,63.0,24,24,0.0,42.0
601,57.0,24,24,0.0,40.0
602,66.0,24,24,0.0,44.0
603,54.0,24,24,0.0,42.0
604,46.0,24,24,0.0,42.0
605,71.0,0,36,0.0,58.0
606,55.0,24,24,0.0,38.0
607,72.0,12,12,0.0,54.0
608,75.0,0,8,0.0,60.0
609,73.0,8,8,0.0,62.0
610,72.0,8,4,0.0,57.0
611,64.0,12,24,0.0,40.0
612,58.0,0,24,0.0,42.0
613,72.0,8,24,0.0,58.0
614,67.0,24,24,0.0,43.0
615,72.0,24,12,0.0,62.0
616,55.0,0,24,0.0,42.0
617,72.0,24,12,0.0,68.0
618,46.0,0,24,0.0,43.0
619,56.0,24,24,0.0,42.0
620,65.0,24,24,0.0,44.0
621,59.0,24,24,0.0,42.0
622,73.0,0,72,0.0,60.0
623,68.0,24,24,0.0,46.0
624,73.0,24,12,0.0,70.0
625,56.0,0,24,0.0,44.0
626,73.0,24,12,0.0,66.0
627,46.0,0,24,0.0,45.0
628,56.0,0,24,0.0,42.0
629,65.0,24,24,0.0,50.0
630,74.0,24,72,0.0,66.0
631,58.0,24,24,0.0,47.0
632,68.0,24,24,0.0,52.0
633,74.0,24,12,0.0,72.0
634,56.0,0,24,0.0,50.0
635,46.0,0,24,0.0,50.0
636,54.0,24,24,0.0,48.0
637,74.0,24,48,0.0,74.0
638,75.0,0,24,0.0,78.0
639,63.0,24,24,0.0,54.0
640,58.0,0,24,0.0,54.0
641,66.0,24,24,0.0,46.0
642,54.0,24,24,0.0,52.0
643,90.0,24,84,0.0,78.0
644,89.0,12,12,0.0,70.0
645,46.0,24,24,0.0,50.0
646,87.0,12,10,0.0,64.0
647,85.0,10,10,0.0,63.0
648,54.0,0,24,0.0,48.0
649,83.0,10,9,0.0,62.0
650,87.0,5,9,0.0,65.0
651,63.0,4,24,0.0,45.0
652,82.0,9,10,0.0,60.0
653,81.0,10,6,0.0,72.0
654,78.0,6,6,0.0,64.0
655,77.0,6,5,0.0,62.0
656,75.0,5,5,0.0,60.0
657,57.0,0,24,0.0,44.0
658,74.0,5,5,0.0,58.0
659,77.0,3,5,0.0,70.0
660,75.0,5,5,0.0,62.0
661,73.0,5,5,0.0,60.0
662,71.0,5,5,0.0,54.0
663,66.0,2,24,0.0,36.0
664,70.0,5,5,0.0,48.0
665,69.0,4,5,0.0,54.0
666,66.0,5,5,0.0,50.0
667,65.0,5,5,0.0,46.0
668,63.0,5,5,0.0,42.0
669,54.0,1,24,0.0,34.0
670,62.0,0,12,0.0,46.0
671,46.0,5,15,0.0,36.0
672,53.0,15,14,0.0,34.0
673,58.0,5,14,0.0,36.0
674,62.0,14,14,0.0,38.0
675,58.0,14,15,0.0,32.0
676,65.0,15,30,0.0,32.0
677,70.0,9,96,0.0,52.0
678,71.0,48,6,0.0,37.0
679,72.0,12,6,0.0,45.0
680,41.0,0,24,0.0,30.0
681,73.0,12,24,0.0,47.0
682,49.0,24,24,0.0,30.0
683,75.0,0,36,0.0,48.0
684,73.0,12,12,0.0,46.0
685,59.0,24,24,0.0,28.0
686,53.0,0,24,0.0,32.0
687,61.0,24,24,0.0,36.0
688,68.0,12,48,0.0,50.0
689,73.0,0,20,0.0,51.0
690,49.0,24,24,0.0,34.0
691,42.0,24,24,0.0,34.0
692,49.0,24,24,0.0,32.0
693,82.0,0,72,0.0,54.0
694,58.0,24,24,0.0,36.0
695,80.0,24,18,0.0,46.0
696,54.0,0,24,0.0,30.0
697,78.0,18,18,0.0,48.0
698,61.0,6,24,0.0,33.0
699,77.0,12,18,0.0,55.0
700,49.0,12,24,0.0,30.0
701,75.0,6,18,0.0,53.0
702,73.0,0,14,0.0,56.0
703,75.0,14,5,0.0,52.0
704,77.0,5,5,0.0,54.0
705,41.0,18,24,0.0,34.0
706,49.0,0,24,0.0,33.0
707,75.0,5,36,0.0,56.0
708,73.0,12,4,0.0,54.0
709,59.0,24,24,0.0,36.0
710,73.0,6,6,0.0,52.0
711,53.0,6,24,0.0,46.0
712,68.0,0,48,0.0,54.0
713,61.0,24,24,0.0,48.0
714,73.0,24,16,0.0,64.0
715,49.0,0,24,0.0,42.0
716,66.0,16,8,0.0,50.0
717,73.0,4,4,0.0,46.0
718,82.0,4,24,0.0,64.0
719,42.0,0,24,0.0,40.0
720,49.0,0,24,0.0,38.0
721,83.0,24,36,0.0,66.0
722,82.0,12,12,0.0,64.0
723,58.0,24,24,0.0,43.0
724,80.0,12,18,0.0,58.0
725,54.0,0,24,0.0,36.0
726,78.0,18,18,0.0,60.0
727,61.0,6,24,0.0,38.0
728,77.0,12,18,0.0,58.0
729,75.0,6,18,0.0,56.0
730,49.0,12,24,0.0,34.0
731,73.0,0,24,0.0,58.0
732,41.0,18,24,0.0,38.0
733,75.0,24,24,0.0,60.0
734,49.0,0,24,0.0,36.0
735,73.0,24,10,0.0,58.0
736,59.0,0,24,0.0,38.0
737,73.0,18,6,0.0,56.0
738,53.0,6,24,0.0,34.0
739,68.0,0,48,0.0,54.0
740,61.0,24,24,0.0,35.0
741,49.0,0,24,0.0,30.0
742,73.0,24,24,0.0,58.0
743,42.0,24,24,0.0,34.0
744,49.0,24,24,0.0,30.0
745,59.0,24,24,0.0,32.0
746,55.0,24,24,0.0,30.0
747,64.0,24,24,0.0,28.0
748,76.0,0,142,0.0,57.0
749,59.0,24,24,0.0,26.0
750,42.0,24,24,0.0,30.0
751,66.0,0,6,0.0,34.0
752,68.0,12,6,0.0,36.0
753,49.0,24,24,0.0,26.0
754,70.0,0,6,0.0,39.0
755,71.0,12,6,0.0,40.0
756,58.0,12,24,0.0,28.0
757,73.0,0,24,0.0,36.0
758,54.0,12,24,0.0,26.0
759,64.0,24,24,0.0,25.0
760,58.0,0,24,0.0,26.0
761,75.0,24,24,0.0,46.0
762,47.0,24,24,0.0,31.0
763,54.0,24,24,0.0,28.0
764,63.0,24,24,0.0,32.0
765,71.0,0,84,0.0,38.0
766,59.0,24,24,0.0,28.0
767,70.0,24,24,0.0,46.0
768,66.0,0,24,0.0,28.0
769,71.0,24,24,0.0,52.0
770,54.0,0,24,0.0,30.0
771,46.0,0,24,0.0,30.0
772,49.0,24,24,0.0,28.0
773,73.0,24,72,0.0,56.0
774,54.0,24,24,0.0,30.0
775,49.0,0,24,0.0,32.0
776,61.0,24,24,0.0,36.0
777,78.0,24,48,0.0,60.0
778,75.0,0,24,0.0,64.0
779,54.0,24,24,0.0,30.0
780,44.0,0,24,0.0,36.0
781,51.0,24,24,0.0,32.0
782,73.0,24,60,0.0,62.0
783,54.0,24,24,0.0,34.0
784,71.0,24,12,0.0,54.0
785,51.0,0,24,0.0,36.0
786,71.0,16,8,0.0,52.0
787,59.0,8,24,0.0,34.0
788,83.0,0,36,0.0,64.0
789,54.0,24,24,0.0,36.0
790,83.0,0,12,0.0,50.0
791,44.0,24,24,0.0,36.0
792,82.0,12,12,0.0,56.0
793,80.0,0,12,0.0,58.0
794,78.0,12,6,0.0,56.0
795,77.0,6,3,0.0,52.0
796,49.0,12,24,0.0,30.0
797,78.0,3,3,0.0,56.0
798,77.0,0,12,0.0,54.0
799,75.0,12,12,0.0,56.0
800,53.0,3,24,0.0,32.0
801,77.0,12,12,0.0,59.0
802,49.0,0,24,0.0,34.0
803,78.0,12,12,0.0,61.0
804,80.0,0,12,0.0,58.0
805,59.0,12,24,0.0,34.0
806,71.0,12,12,0.0,55.0
807,73.0,12,12,0.0,56.0
808,53.0,0,24,0.0,30.0
809,68.0,12,12,0.0,60.0
810,42.0,12,24,0.0,36.0
811,49.0,24,24,0.0,33.0
812,53.0,24,24,0.0,32.0
813,49.0,24,24,0.0,30.0
814,58.0,24,24,0.0,34.0
815,53.0,24,24,0.0,33.0
816,42.0,24,24,0.0,39.0
817,70.0,0,172,0.0,52.0
818,71.0,4,11,0.0,50.0
819,47.0,24,24,0.0,40.0
820,70.0,11,11,0.0,52.0
821,69.0,2,11,0.0,53.0
822,70.0,11,11,0.0,48.0
823,51.0,9,24,0.0,43.0
824,47.0,0,24,0.0,36.0
825,75.0,11,33,0.0,48.0
826,74.0,9,7,0.0,42.0
827,73.0,7,7,0.0,43.0
828,58.0,24,24,0.0,36.0
829,72.0,7,7,0.0,40.0
830,51.0,1,24,0.0,32.0
831,71.0,6,18,0.0,38.0
832,41.0,18,24,0.0,34.0
833,47.0,24,24,0.0,32.0
834,70.0,0,48,0.0,44.0
835,51.0,24,24,0.0,28.0
836,68.0,0,24,0.0,44.0
837,47.0,0,24,0.0,30.0
838,56.0,24,24,0.0,30.0
839,51.0,24,24,0.0,26.0
840,80.0,24,81,0.0,54.0
841,78.0,9,9,0.0,42.0
842,41.0,24,24,0.0,31.0
843,77.0,9,9,0.0,44.0
844,75.0,3,9,0.0,42.0
845,74.0,9,9,0.0,46.0
846,46.0,6,24,0.0,28.0
847,75.0,9,9,0.0,49.0
848,74.0,6,9,0.0,49.0
849,50.0,3,24,0.0,28.0
850,73.0,9,9,0.0,52.0
851,74.0,9,8,0.0,48.0
852,75.0,8,8,0.0,46.0
853,76.0,8,8,0.0,45.0
854,46.0,0,24,0.0,30.0
855,77.0,8,8,0.0,42.0
856,69.0,8,8,0.0,46.0
857,56.0,0,24,0.0,28.0
858,70.0,8,8,0.0,40.0
859,65.0,8,8,0.0,40.0
860,71.0,0,16,0.0,42.0
861,70.0,8,8,0.0,42.0
862,50.0,8,24,0.0,27.0
863,39.0,0,24,0.0,30.0
864,46.0,24,24,0.0,29.0
865,54.0,24,24,0.0,28.0
866,68.0,8,72,0.0,48.0
867,51.0,24,24,0.0,29.0
868,66.0,0,48,0.0,42.0
869,58.0,24,24,0.0,32.0
870,65.0,12,6,0.0,54.0
871,54.0,24,24,0.0,31.0
872,65.0,12,12,0.0,48.0
873,46.0,0,24,0.0,32.0
874,53.0,0,24,0.0,31.0
875,62.0,24,24,0.0,32.0
876,58.0,24,24,0.0,32.0
877,70.0,24,72,0.0,52.0
878,65.0,24,24,0.0,34.0
879,70.0,24,12,0.0,58.0
880,53.0,0,24,0.0,32.0
881,70.0,24,24,0.0,60.0
882,46.0,0,24,0.0,38.0
883,54.0,0,24,0.0,36.0
884,71.0,24,24,0.0,46.0
885,63.0,24,24,0.0,42.0
886,57.0,24,24,0.0,40.0
887,66.0,24,24,0.0,44.0
888,54.0,0,24,0.0,42.0
889,71.0,24,36,0.0,54.0
890,46.0,24,24,0.0,42.0
891,72.0,12,12,0.0,54.0
892,55.0,24,24,0.0,38.0
893,75.0,12,8,0.0,60.0
894,73.0,8,8,0.0,62.0
895,72.0,8,4,0.0,57.0
896,64.0,0,24,0.0,40.0
897,58.0,8,24,0.0,42.0
898,72.0,0,24,0.0,58.0
899,67.0,24,24,0.0,43.0
900,72.0,0,12,0.0,62.0
901,55.0,24,24,0.0,42.0
902,72.0,24,12,0.0,68.0
903,46.0,0,24,0.0,43.0
904,56.0,24,24,0.0,42.0
905,65.0,24,24,0.0,44.0
906,73.0,0,72,0.0,60.0
907,59.0,24,24,0.0,42.0
908,68.0,24,24,0.0,46.0
909,73.0,24,12,0.0,70.0
910,56.0,0,24,0.0,44.0
911,73.0,24,12,0.0,66.0
912,46.0,0,24,0.0,45.0
913,56.0,24,24,0.0,42.0
914,65.0,24,24,0.0,50.0
915,58.0,24,24,0.0,47.0
916,74.0,0,72,0.0,66.0
917,68.0,24,24,0.0,52.0
918,74.0,24,12,0.0,72.0
919,56.0,0,24,0.0,50.0
920,46.0,0,24,0.0,50.0
921,54.0,24,24,0.0,48.0
922,74.0,24,48,0.0,74.0
923,63.0,0,24,0.0,54.0
924,75.0,24,24,0.0,78.0
925,58.0,0,24,0.0,54.0
926,66.0,24,24,0.0,46.0
927,54.0,24,24,0.0,52.0
928,90.0,24,78,0.0,78.0
929,89.0,6,6,0.0,60.0
930,87.0,6,6,0.0,58.0
931,90.0,6,6,0.0,60.0
932,46.0,24,24,0.0,50.0
933,85.0,6,6,0.0,56.0
934,83.0,6,6,0.0,58.0
935,87.0,6,6,0.0,56.0
936,82.0,6,6,0.0,58.0
937,54.0,0,24,0.0,48.0
938,81.0,0,6,0.0,54.0
939,87.0,6,6,0.0,56.0
940,80.0,6,6,0.0,54.0
941,63.0,6,24,0.0,45.0
942,78.0,6,6,0.0,56.0
943,81.0,0,6,0.0,66.0
944,77.0,6,6,0.0,56.0
945,75.0,6,6,0.0,54.0
946,57.0,6,24,0.0,44.0
947,78.0,6,6,0.0,58.0
948,73.0,6,6,0.0,54.0
949,71.0,6,6,0.0,52.0
950,75.0,6,6,0.0,56.0
951,70.0,6,6,0.0,54.0
952,66.0,0,24,0.0,36.0
953,69.0,6,6,0.0,58.0
954,66.0,6,6,0.0,56.0
955,65.0,6,6,0.0,54.0
956,54.0,0,24,0.0,34.0
957,63.0,6,6,0.0,52.0
958,62.0,6,12,0.0,54.0
959,46.0,0,15,0.0,36.0
960,53.0,15,14,0.0,34.0
961,58.0,5,14,0.0,36.0
962,62.0,14,14,0.0,38.0
963,58.0,14,15,0.0,32.0
964,65.0,15,30,0.0,32.0
965,70.0,9,96,0.0,52.0
966,71.0,48,6,0.0,37.0
967,72.0,12,6,0.0,45.0
968,41.0,12,24,0.0,30.0
969,73.0,0,24,0.0,47.0
970,49.0,24,24,0.0,30.0
971,75.0,0,36,0.0,48.0
972,73.0,12,12,0.0,46.0
973,59.0,24,24,0.0,28.0
974,53.0,0,24,0.0,32.0
975,61.0,24,24,0.0,36.0
976,68.0,12,48,0.0,50.0
977,73.0,0,20,0.0,51.0
978,49.0,24,24,0.0,34.0
979,42.0,24,24,0.0,34.0
980,49.0,24,24,0.0,32.0
981,82.0,0,72,0.0,54.0
982,58.0,24,24,0.0,36.0
983,80.0,24,18,0.0,46.0
984,54.0,0,24,0.0,30.0
985,78.0,18,18,0.0,48.0
986,61.0,6,24,0.0,33.0
987,77.0,12,18,0.0,55.0
988,75.0,6,18,0.0,53.0
989,49.0,12,24,0.0,30.0
990,73.0,0,14,0.0,56.0
991,75.0,14,5,0.0,52.0
992,77.0,5,5,0.0,54.0
993,41.0,18,24,0.0,34.0
994,49.0,5,24,0.0,33.0
995,75.0,0,36,0.0,56.0
996,59.0,24,24,0.0,36.0
997,73.0,12,12,0.0,54.0
998,53.0,0,24,0.0,46.0
999,68.0,12,48,0.0,54.0
1000,61.0,24,24,0.0,48.0
1001,73.0,24,16,0.0,60.0
1002,66.0,16,8,0.0,50.0
1003,49.0,0,24,0.0,42.0
1004,73.0,4,4,0.0,46.0
1005,82.0,0,24,0.0,58.0
1006,42.0,4,24,0.0,40.0
1007,49.0,0,24,0.0,38.0
1008,83.0,24,36,0.0,60.0
1009,58.0,24,24,0.0,43.0
1010,82.0,12,12,0.0,58.0
1011,80.0,0,18,0.0,56.0
1012,54.0,12,24,0.0,36.0
1013,78.0,18,18,0.0,58.0
1014,61.0,6,24,0.0,38.0
1015,77.0,12,18,0.0,56.0
1016,75.0,6,18,0.0,54.0
1017,49.0,12,24,0.0,34.0
1018,73.0,18,24,0.0,56.0
1019,41.0,0,24,0.0,38.0
1020,75.0,24,24,0.0,58.0
1021,49.0,0,24,0.0,36.0
1022,73.0,24,10,0.0,56.0
1023,73.0,18,6,0.0,54.0
1024,59.0,0,24,0.0,38.0
1025,53.0,6,24,0.0,34.0
1026,68.0,0,48,0.0,52.0
1027,61.0,24,24,0.0,35.0
1028,73.0,24,24,0.0,56.0
1029,49.0,0,24,0.0,30.0
1030,42.0,0,24,0.0,34.0
1031,49.0,24,24,0.0,30.0
1032,59.0,24,24,0.0,32.0
1033,55.0,24,24,0.0,30.0
1034,64.0,24,24,0.0,28.0
1035,76.0,24,142,0.0,54.0
1036,59.0,24,24,0.0,26.0
1037,42.0,24,24,0.0,30.0
1038,66.0,0,6,0.0,34.0
1039,68.0,12,6,0.0,36.0
1040,49.0,24,24,0.0,26.0
1041,70.0,0,6,0.0,39.0
1042,71.0,12,6,0.0,40.0
1043,58.0,12,24,0.0,28.0
1044,54.0,0,24,0.0,26.0
1045,73.0,12,24,0.0,36.0
1046,64.0,24,24,0.0,25.0
1047,58.0,0,24,0.0,40.0
1048,74.0,24,24,0.0,68.0
1049,47.0,24,16,0.0,40.0
1050,53.0,16,16,0.0,38.0
1051,54.0,8,16,0.0,40.0
1052,62.0,8,36,0.0,24.0
1053,66.0,0,36,0.0,34.0
1054,55.0,16,16,0.0,42.0
1055,54.0,16,16,0.0,40.0
1056,62.0,0,12,0.0,26.0
1057,66.0,8,12,0.0,36.0
1058,42.0,8,16,0.0,38.0
1059,62.0,16,12,0.0,18.0
1060,66.0,0,12,0.0,28.0
1061,47.0,0,16,0.0,44.0
1062,53.0,16,16,0.0,40.0
1063,71.0,0,132,0.0,68.0
1064,54.0,8,16,0.0,42.0
1065,66.0,8,36,0.0,36.0
1066,62.0,0,36,0.0,26.0
1067,55.0,16,16,0.0,44.0
1068,54.0,16,16,0.0,42.0
1069,70.0,0,36,0.0,64.0
1070,62.0,8,12,0.0,34.0
1071,66.0,0,12,0.0,44.0
1072,71.0,4,12,0.0,68.0
1073,42.0,8,16,0.0,38.0
1074,47.0,0,16,0.0,42.0
1075,54.0,16,16,0.0,40.0
1076,55.0,8,16,0.0,42.0
1077,71.0,8,36,0.0,42.0
1078,67.0,0,36,0.0,36.0
1079,64.0,0,36,0.0,32.0
1080,57.0,16,16,0.0,44.0
1081,55.0,16,16,0.0,42.0
1082,67.0,0,12,0.0,30.0
1083,71.0,8,12,0.0,36.0
1084,74.0,12,84,0.0,72.0
1085,64.0,0,12,0.0,26.0
1086,47.0,8,16,0.0,40.0
1087,64.0,0,12,0.0,34.0
1088,67.0,0,12,0.0,38.0
1089,71.0,0,12,0.0,44.0
1090,52.0,0,16,0.0,42.0
1091,54.0,16,16,0.0,44.0
1092,55.0,8,16,0.0,46.0
1093,64.0,8,36,0.0,36.0
1094,67.0,0,36,0.0,40.0
1095,71.0,0,36,0.0,46.0
1096,57.0,16,16,0.0,48.0
1097,55.0,16,15,0.0,44.0
1098,73.0,16,84,0.0,72.0
1099,64.0,8,12,0.0,24.0
1100,67.0,0,12,0.0,28.0
1101,71.0,0,12,0.0,34.0
1102,47.0,7,17,0.0,40.0
1103,63.0,17,12,0.0,30.0
1104,69.0,0,12,0.0,34.0
1105,71.0,0,12,0.0,40.0
1106,54.0,0,16,0.0,50.0
1107,58.0,16,16,0.0,44.0
1108,59.0,8,16,0.0,46.0
1109,71.0,0,36,0.0,44.0
1110,69.0,0,36,0.0,38.0
1111,63.0,8,36,0.0,34.0
1112,60.0,16,16,0.0,48.0
1113,59.0,16,16,0.0,44.0
1114,47.0,8,16,0.0,40.0
1115,71.0,8,36,0.0,46.0
1116,69.0,0,36,0.0,40.0
1117,63.0,0,36,0.0,36.0
1118,54.0,16,16,0.0,42.0
1119,58.0,16,16,0.0,44.0
1120,75.0,0,132,0.0,74.0
1121,59.0,8,16,0.0,46.0
1122,63.0,0,36,0.0,30.0
1123,69.0,8,36,0.0,34.0
1124,71.0,0,36,0.0,40.0
1125,60.0,0,16,0.0,48.0
1126,74.0,16,24,0.0,68.0
1127,59.0,16,16,0.0,46.0
1128,75.0,0,12,0.0,70.0
1129,63.0,0,12,0.0,36.0
1130,69.0,0,12,0.0,40.0
1131,71.0,8,12,0.0,46.0
1132,47.0,8,16,0.0,40.0
1133,52.0,0,16,0.0,42.0
1134,58.0,16,16,0.0,44.0
1135,59.0,8,16,0.0,46.0
1136,67.0,8,36,0.0,32.0
1137,71.0,0,36,0.0,42.0
1138,60.0,16,16,0.0,48.0
1139,59.0,16,16,0.0,44.0
1140,47.0,8,16,0.0,36.0
1141,78.0,16,96,0.0,74.0
1142,52.0,0,16,0.0,38.0
1143,58.0,16,16,0.0,37.0
1144,71.0,0,60,0.0,34.0
1145,76.0,16,36,0.0,64.0
1146,67.0,8,60,0.0,24.0
1147,59.0,16,16,0.0,39.0
1148,60.0,0,16,0.0,38.0
1149,59.0,16,16,0.0,34.0
1150,83.0,0,36,0.0,60.0
1151,47.0,16,16,0.0,30.0
1152,52.0,0,16,0.0,44.0
1153,58.0,16,16,0.0,38.0
1154,67.0,16,36,0.0,30.0
1155,76.0,0,36,0.0,56.0
1156,71.0,16,84,0.0,46.0
1157,59.0,16,16,0.0,40.0
1158,61.0,0,17,0.0,42.0
1159,59.0,17,16,0.0,40.0
1160,76.0,16,36,0.0,62.0
1161,71.0,0,36,0.0,44.0
1162,67.0,0,36,0.0,34.0
1163,78.0,3,12,0.0,58.0
1164,47.0,16,15,0.0,34.0
1165,54.0,0,16,0.0,36.0
1166,58.0,16,16,0.0,38.0
1167,66.0,0,36,0.0,30.0
1168,74.0,12,36,0.0,60.0
1169,71.0,0,36,0.0,40.0
1170,59.0,16,16,0.0,40.0
1171,61.0,0,16,0.0,42.0
1172,59.0,16,17,0.0,40.0
1173,74.0,0,36,0.0,68.0
1174,71.0,16,36,0.0,50.0
1175,66.0,0,36,0.0,40.0
1176,47.0,17,15,0.0,34.0
1177,76.0,3,12,0.0,62.0
1178,71.0,0,12,0.0,44.0
1179,73.0,0,12,0.0,66.0
1180,64.0,12,12,0.0,34.0
1181,55.0,0,16,0.0,36.0
1182,58.0,16,16,0.0,38.0
1183,59.0,16,16,0.0,40.0
1184,61.0,0,16,0.0,42.0
1185,59.0,16,16,0.0,40.0
1186,71.0,0,48,0.0,58.0
1187,47.0,16,16,0.0,32.0
1188,83.0,16,48,0.0,68.0
1189,54.0,16,16,0.0,38.0
1190,58.0,16,16,0.0,36.0
1191,59.0,16,16,0.0,38.0
1192,61.0,0,16,0.0,40.0
1193,59.0,16,16,0.0,36.0
1194,66.0,0,36,0.0,26.0
1195,71.0,16,36,0.0,36.0
1196,74.0,0,48,0.0,62.0
1197,47.0,16,16,0.0,32.0
1198,52.0,0,16,0.0,28.0
1199,58.0,16,16,0.0,32.0
1200,73.0,16,36,0.0,64.0
1201,59.0,16,16,0.0,34.0
1202,61.0,0,16,0.0,35.0
1203,73.0,16,24,0.0,62.0
1204,59.0,16,16,0.0,33.0
1205,71.0,0,84,0.0,34.0
1206,67.0,0,84,0.0,24.0
1207,73.0,4,6,0.0,56.0
1208,47.0,16,16,0.0,28.0
1209,54.0,12,16,0.0,32.0
1210,58.0,16,16,0.0,30.0
1211,73.0,0,36,0.0,52.0
1212,59.0,16,16,0.0,31.0
1213,76.0,8,8,0.0,42.0
1214,61.0,0,16,0.0,32.0
1215,59.0,16,16,0.0,30.0
1216,74.0,8,36,0.0,52.0
1217,71.0,0,84,0.0,30.0
1218,66.0,0,84,0.0,20.0
1219,47.0,16,16,0.0,24.0
1220,73.0,12,0,0.0,50.0
1221,56.0,0,16,0.0,30.0
1222,58.0,16,16,0.0,28.0
1223,59.0,16,16,0.0,30.0
1224,61.0,16,16,0.0,32.0
1225,59.0,16,16,0.0,31.0
1226,65.0,0,84,0.0,20.0
1227,71.0,0,84,0.0,28.0
1228,47.0,16,16,0.0,26.0
1229,55.0,0,16,0.0,34.0
1230,58.0,16,16,0.0,33.0
1231,59.0,16,16,0.0,36.0
1232,61.0,16,16,0.0,38.0
1233,59.0,16,16,0.0,36.0
1234,73.0,0,88,0.0,66.0
1235,70.0,16,88,0.0,46.0
1236,71.0,8,6,0.0,62.0
1237,47.0,16,16,0.0,30.0
1238,64.0,0,97,0.0,36.0
1239,47.0,8,16,0.0,40.0
1240,53.0,16,16,0.0,38.0
1241,54.0,8,16,0.0,40.0
1242,66.0,0,36,0.0,38.0
1243,62.0,8,36,0.0,28.0
1244,55.0,16,16,0.0,42.0
1245,54.0,16,16,0.0,40.0
1246,62.0,0,12,0.0,30.0
1247,66.0,8,12,0.0,40.0
1248,42.0,8,16,0.0,38.0
1249,66.0,0,12,0.0,32.0
1250,62.0,0,12,0.0,22.0
1251,47.0,16,16,0.0,44.0
1252,53.0,16,16,0.0,40.0
1253,71.0,0,132,0.0,72.0
1254,54.0,8,16,0.0,42.0
1255,62.0,0,36,0.0,30.0
1256,66.0,8,36,0.0,40.0
1257,55.0,0,16,0.0,44.0
1258,54.0,16,16,0.0,42.0
1259,66.0,0,12,0.0,44.0
1260,62.0,8,12,0.0,34.0
1261,70.0,16,36,0.0,64.0
1262,71.0,4,12,0.0,68.0
1263,42.0,8,16,0.0,38.0
1264,47.0,0,16,0.0,42.0
1265,54.0,16,16,0.0,40.0
1266,55.0,8,16,0.0,42.0
1267,67.0,0,36,0.0,36.0
1268,71.0,0,36,0.0,42.0
1269,64.0,8,36,0.0,32.0
1270,57.0,16,16,0.0,44.0
1271,55.0,16,16,0.0,42.0
1272,71.0,8,12,0.0,36.0
1273,74.0,12,84,0.0,72.0
1274,64.0,0,12,0.0,26.0
1275,67.0,0,12,0.0,30.0
1276,47.0,8,16,0.0,40.0
1277,71.0,0,12,0.0,44.0
1278,64.0,0,12,0.0,34.0
1279,67.0,16,12,0.0,38.0
1280,52.0,0,16,0.0,42.0
1281,54.0,16,16,0.0,44.0
1282,55.0,8,16,0.0,46.0
1283,71.0,0,36,0.0,46.0
1284,64.0,0,36,0.0,36.0
1285,67.0,8,36,0.0,40.0
1286,57.0,16,16,0.0,48.0
1287,55.0,16,15,0.0,44.0
1288,73.0,0,84,0.0,72.0
1289,71.0,0,12,0.0,34.0
1290,67.0,8,12,0.0,28.0
1291,64.0,0,12,0.0,24.0
1292,47.0,7,17,0.0,40.0
1293,63.0,0,12,0.0,30.0
1294,69.0,0,12,0.0,34.0
1295,71.0,0,12,0.0,40.0
1296,54.0,17,16,0.0,50.0
1297,58.0,16,16,0.0,44.0
1298,59.0,8,16,0.0,46.0
1299,69.0,8,36,0.0,38.0
1300,63.0,0,36,0.0,34.0
1301,71.0,0,36,0.0,44.0
1302,60.0,16,16,0.0,48.0
1303,59.0,16,16,0.0,44.0
1304,47.0,8,16,0.0,40.0
1305,63.0,8,36,0.0,36.0
1306,71.0,0,36,0.0,46.0
1307,69.0,0,36,0.0,40.0
1308,54.0,16,16,0.0,42.0
1309,58.0,16,16,0.0,44.0
1310,75.0,0,132,0.0,74.0
1311,59.0,8,16,0.0,46.0
1312,71.0,0,36,0.0,40.0
1313,69.0,0,36,0.0,34.0
1314,63.0,8,36,0.0,30.0
1315,60.0,16,16,0.0,48.0
1316,74.0,0,24,0.0,68.0
1317,59.0,16,16,0.0,46.0
1318,71.0,0,12,0.0,46.0
1319,75.0,0,12,0.0,72.0
1320,63.0,8,12,0.0,36.0
1321,69.0,0,12,0.0,40.0
1322,47.0,8,16,0.0,40.0
1323,64.0,0,12,0.0,40.0
1324,67.0,0,12,0.0,50.0
1325,48.0,0,16,0.0,48.0
1326,54.0,16,16,0.0,46.0
1327,55.0,8,16,0.0,48.0
1328,57.0,16,16,0.0,47.0
1329,67.0,0,40,0.0,44.0
1330,64.0,8,40,0.0,34.0
1331,55.0,16,16,0.0,44.0
1332,43.0,4,16,0.0,46.0
1333,76.0,16,96,0.0,74.0
1334,48.0,16,16,0.0,44.0
1335,54.0,16,16,0.0,40.0
1336,67.0,12,56,0.0,48.0
1337,64.0,0,56,0.0,38.0
1338,55.0,16,16,0.0,36.0
1339,57.0,0,16,0.0,42.0
1340,55.0,16,16,0.0,32.0
1341,43.0,16,16,0.0,28.0
1342,48.0,0,16,0.0,34.0
1343,54.0,16,16,0.0,44.0
1344,72.0,16,36,0.0,64.0
1345,64.0,0,84,0.0,26.0
1346,67.0,16,84,0.0,34.0
1347,55.0,16,16,0.0,32.0
1348,57.0,0,16,0.0,46.0
1349,55.0,16,16,0.0,40.0
1350,67.0,0,36,0.0,34.0
1351,64.0,0,36,0.0,38.0
1352,72.0,16,36,0.0,66.0
1353,74.0,4,12,0.0,64.0
1354,43.0,16,16,0.0,36.0
1355,50.0,0,16,0.0,44.0
1356,54.0,16,16,0.0,40.0
1357,62.0,0,36,0.0,44.0
1358,67.0,0,36,0.0,40.0
1359,71.0,12,36,0.0,62.0
1360,55.0,16,16,0.0,42.0
1361,57.0,16,16,0.0,46.0
1362,55.0,16,16,0.0,42.0
1363,62.0,0,36,0.0,42.0
1364,67.0,0,36,0.0,36.0
1365,71.0,0,36,0.0,64.0
1366,72.0,4,12,0.0,68.0
1367,43.0,16,16,0.0,44.0
1368,67.0,12,12,0.0,48.0
1369,60.0,0,12,0.0,40.0
1370,69.0,0,12,0.0,66.0
1371,52.0,0,16,0.0,42.0
1372,54.0,16,16,0.0,44.0
1373,55.0,16,16,0.0,46.0
1374,57.0,0,16,0.0,48.0
1375,55.0,16,16,0.0,44.0
1376,43.0,16,16,0.0,40.0
1377,79.0,0,48,0.0,74.0
1378,69.0,16,48,0.0,50.0
1379,67.0,0,48,0.0,56.0
1380,50.0,16,16,0.0,42.0
1381,54.0,16,16,0.0,44.0
1382,55.0,16,16,0.0,46.0
1383,57.0,16,16,0.0,40.0
1384,55.0,16,16,0.0,38.0
1385,67.0,0,36,0.0,36.0
1386,62.0,0,36,0.0,40.0
1387,71.0,0,48,0.0,62.0
1388,43.0,16,16,0.0,36.0
1389,48.0,0,16,0.0,36.0
1390,54.0,16,16,0.0,40.0
1391,64.0,16,36,0.0,42.0
1392,67.0,0,36,0.0,38.0
1393,72.0,0,36,0.0,68.0
1394,55.0,16,16,0.0,42.0
1395,57.0,0,16,0.0,44.0
1396,72.0,0,24,0.0,64.0
1397,55.0,16,16,0.0,42.0
1398,67.0,0,36,0.0,30.0
1399,64.0,16,36,0.0,36.0
1400,74.0,4,6,0.0,64.0
1401,43.0,16,16,0.0,36.0
1402,50.0,0,16,0.0,38.0
1403,54.0,16,16,0.0,40.0
1404,62.0,12,36,0.0,42.0
1405,67.0,0,36,0.0,38.0
1406,71.0,0,36,0.0,62.0
1407,55.0,16,16,0.0,42.0
1408,57.0,0,16,0.0,38.0
1409,55.0,16,16,0.0,34.0
1410,67.0,16,36,0.0,32.0
1411,62.0,0,36,0.0,36.0
1412,71.0,0,36,0.0,56.0
1413,72.0,4,12,0.0,54.0
1414,43.0,16,16,0.0,30.0
1415,52.0,0,16,0.0,36.0
1416,54.0,16,16,0.0,38.0
1417,52.0,16,16,0.0,34.0
1418,54.0,16,16,0.0,36.0
1419,52.0,16,16,0.0,34.0
1420,61.0,12,84,0.0,28.0
1421,50.0,16,16,0.0,34.0
1422,49.0,0,16,0.0,38.0
1423,50.0,16,16,0.0,32.0
1424,49.0,16,16,0.0,30.0
1425,64.0,16,48,0.0,28.0
1426,70.0,0,144,0.0,46.0
1427,67.0,0,144,0.0,34.0
1428,50.0,16,16,0.0,32.0
1429,49.0,16,16,0.0,24.0
1430,42.0,16,16,0.0,28.0
1431,47.0,0,16,0.0,30.0
1432,53.0,16,16,0.0,30.0
1433,54.0,16,16,0.0,32.0
1434,55.0,16,16,0.0,34.0
1435,54.0,16,16,0.0,32.0
1436,62.0,0,88,0.0,28.0
1437,66.0,0,88,0.0,34.0
1438,74.0,16,88,0.0,56.0
1439,42.0,16,16,0.0,32.0
1440,46.0,0,16,0.0,26.0
1441,53.0,16,16,0.0,28.0
1442,74.0,4,48,0.0,50.0
1443,54.0,16,16,0.0,30.0
1444,55.0,16,16,0.0,32.0
1445,54.0,16,16,0.0,28.0
1446,73.0,0,36,0.0,48.0
1447,66.0,4,88,0.0,24.0
1448,64.0,8,92,0.0,30.0
1449,71.0,4,6,0.0,42.0
1450,42.0,16,16,0.0,30.0
1451,47.0,0,16,0.0,34.0
1452,53.0,16,16,0.0,32.0
1453,54.0,16,16,0.0,34.0
1454,55.0,16,16,0.0,36.0
1455,54.0,16,16,0.0,32.0
1456,62.0,12,96,0.0,20.0
1457,66.0,0,96,0.0,24.0
1458,71.0,0,96,0.0,44.0
1459,42.0,16,16,0.0,26.0
1460,47.0,16,16,0.0,30.0
1461,53.0,16,16,0.0,32.0
1462,54.0,16,16,0.0,34.0
1463,55.0,16,16,0.0,36.0
1464,54.0,16,16,0.0,32.0
1465,42.0,16,16,0.0,30.0
1466,41.0,0,16,0.0,36.0
1467,48.0,16,16,0.0,34.0
1468,49.0,16,16,0.0,36.0
1469,50.0,16,16,0.0,38.0
1470,49.0,16,16,0.0,36.0
1471,73.0,0,84,0.0,68.0
1472,71.0,0,84,0.0,44.0
1473,68.0,16,84,0.0,40.0
1474,61.0,0,84,0.0,54.0
1475,41.0,16,16,0.0,32.0
1476,42.0,0,16,0.0,36.0
1477,48.0,16,16,0.0,38.0
1478,49.0,16,16,0.0,40.0
1479,73.0,0,60,0.0,78.0
1480,50.0,16,16,0.0,44.0
1481,49.0,16,16,0.0,40.0
1482,61.0,0,84,0.0,66.0
1483,66.0,0,84,0.0,56.0
1484,69.0,16,84,0.0,50.0
1485,73.0,8,12,0.0,78.0
1486,42.0,8,16,0.0,36.0
1487,43.0,16,16,0.0,40.0
1488,51.0,16,16,0.0,44.0
1489,52.0,16,16,0.0,46.0
1490,54.0,16,16,0.0,50.0
1491,52.0,16,16,0.0,45.0
1492,70.0,0,84,0.0,56.0
1493,43.0,16,16,0.0,42.0
1494,44.0,16,16,0.0,46.0
1495,51.0,16,16,0.0,46.0
1496,52.0,16,16,0.0,48.0
1497,54.0,16,16,0.0,46.0
1498,52.0,16,16,0.0,44.0
1499,64.0,0,184,0.0,64.0
1500,73.0,0,184,0.0,50.0
1501,68.0,0,96,0.0,58.0
1502,44.0,16,16,0.0,40.0
1503,45.0,16,16,0.0,42.0
1504,56.0,16,16,0.0,42.0
1505,76.0,0,228,0.0,78.0
1506,67.0,0,36,0.0,42.0
1507,57.0,16,16,0.0,44.0
1508,58.0,0,16,0.0,46.0
1509,57.0,16,16,0.0,42.0
1510,76.0,0,36,0.0,66.0
1511,69.0,16,36,0.0,46.0
1512,67.0,0,36,0.0,40.0
1513,45.0,16,16,0.0,38.0
1514,77.0,4,12,0.0,64.0
1515,50.0,0,16,0.0,42.0
1516,56.0,16,16,0.0,44.0
1517,74.0,0,36,0.0,62.0
1518,69.0,0,36,0.0,42.0
1519,65.0,12,36,0.0,36.0
1520,57.0,16,16,0.0,46.0
1521,58.0,16,16,0.0,44.0
1522,57.0,16,16,0.0,42.0
1523,74.0,0,36,0.0,64.0
1524,69.0,0,36,0.0,44.0
1525,65.0,0,36,0.0,38.0
1526,76.0,4,12,0.0,68.0
1527,45.0,16,16,0.0,40.0
1528,69.0,12,12,0.0,48.0
1529,73.0,0,12,0.0,66.0
1530,64.0,0,12,0.0,40.0
1531,52.0,0,16,0.0,42.0
1532,56.0,16,16,0.0,44.0
1533,57.0,16,16,0.0,46.0
1534,58.0,16,16,0.0,46.0
1535,57.0,16,16,0.0,43.0
1536,69.0,0,48,0.0,60.0
1537,52.0,16,16,0.0,38.0
1538,81.0,0,48,0.0,74.0
1539,45.0,16,16,0.0,36.0
1540,51.0,16,16,0.0,34.0
1541,52.0,16,16,0.0,35.0
1542,54.0,0,16,0.0,36.0
1543,52.0,16,16,0.0,34.0
1544,67.0,16,36,0.0,36.0
1545,73.0,0,48,0.0,58.0
1546,45.0,16,16,0.0,30.0
1547,44.0,0,16,0.0,30.0
1548,50.0,16,16,0.0,34.0
1549,68.0,0,36,0.0,34.0
1550,72.0,16,36,0.0,50.0
1551,51.0,16,16,0.0,36.0
1552,53.0,0,16,0.0,38.0
1553,51.0,16,16,0.0,34.0
1554,72.0,0,36,0.0,56.0
1555,63.0,16,36,0.0,32.0
1556,73.0,4,12,0.0,54.0
1557,39.0,16,16,0.0,32.0
1558,43.0,0,16,0.0,32.0
1559,50.0,16,16,0.0,34.0
1560,70.0,0,36,0.0,48.0
1561,61.0,12,36,0.0,34.0
1562,51.0,16,16,0.0,36.0
1563,52.0,0,16,0.0,38.0
1564,51.0,16,16,0.0,36.0
1565,61.0,0,36,0.0,24.0
1566,63.0,0,36,0.0,30.0
1567,70.0,16,36,0.0,54.0
1568,72.0,4,12,0.0,56.0
1569,39.0,16,16,0.0,30.0
1570,60.0,0,12,0.0,30.0
1571,68.0,12,12,0.0,50.0
1572,44.0,0,16,0.0,32.0
1573,50.0,16,16,0.0,32.0
1574,51.0,16,16,0.0,34.0
1575,52.0,16,16,0.0,36.0
1576,51.0,16,16,0.0,34.0
1577,39.0,16,16,0.0,30.0
1578,68.0,0,48,0.0,44.0
1579,80.0,0,48,0.0,54.0
1580,44.0,16,16,0.0,34.0
1581,50.0,16,16,0.0,32.0
1582,51.0,16,16,0.0,34.0
1583,52.0,16,16,0.0,36.0
1584,51.0,16,16,0.0,34.0
1585,44.0,16,16,0.0,32.0
1586,43.0,16,16,0.0,40.0
1587,50.0,16,16,0.0,38.0
1588,51.0,16,16,0.0,40.0
1589,52.0,16,16,0.0,42.0
1590,51.0,16,16,0.0,40.0
1591,70.0,0,84,0.0,52.0
1592,63.0,0,84,0.0,64.0
1593,73.0,0,84,0.0,56.0
1594,75.0,0,84,0.0,78.0
1595,43.0,16,16,0.0,36.0
1596,44.0,0,16,0.0,40.0
1597,50.0,16,16,0.0,42.0
1598,51.0,16,16,0.0,44.0
1599,75.0,0,60,0.0,82.0
1600,52.0,16,16,0.0,46.0
1601,51.0,16,16,0.0,42.0
1602,75.0,8,12,0.0,82.0
1603,63.0,16,84,0.0,70.0
1604,71.0,0,84,0.0,56.0
1605,68.0,0,84,0.0,62.0
1606,44.0,8,16,0.0,38.0
1607,45.0,16,16,0.0,40.0
1608,53.0,16,16,0.0,44.0
1609,54.0,16,16,0.0,46.0
1610,56.0,16,16,0.0,50.0
1611,54.0,16,16,0.0,45.0
1612,72.0,0,84,0.0,58.0
1613,45.0,16,16,0.0,42.0
1614,46.0,0,16,0.0,46.0
1615,53.0,16,16,0.0,46.0
1616,54.0,16,16,0.0,48.0
1617,56.0,16,16,0.0,46.0
1618,54.0,16,16,0.0,44.0
1619,66.0,0,184,0.0,66.0
1620,75.0,0,184,0.0,52.0
1621,70.0,16,96,0.0,58.0
1622,46.0,16,16,0.0,40.0
1623,47.0,0,16,0.0,42.0
1624,58.0,16,16,0.0,42.0
1625,78.0,0,228,0.0,80.0
1626,69.0,16,36,0.0,42.0
1627,59.0,16,16,0.0,44.0
1628,60.0,16,16,0.0,46.0
1629,59.0,16,16,0.0,42.0
1630,69.0,0,36,0.0,46.0
1631,78.0,0,36,0.0,66.0
1632,47.0,16,16,0.0,38.0
1633,79.0,4,12,0.0,64.0
1634,52.0,0,16,0.0,42.0
1635,58.0,16,16,0.0,44.0
1636,67.0,0,36,0.0,42.0
1637,76.0,12,36,0.0,62.0
1638,59.0,16,16,0.0,46.0
1639,60.0,0,16,0.0,44.0
1640,59.0,16,16,0.0,42.0
1641,67.0,16,36,0.0,36.0
1642,71.0,0,36,0.0,40.0
1643,76.0,0,36,0.0,64.0
1644,78.0,4,12,0.0,68.0
1645,47.0,16,16,0.0,40.0
1646,71.0,0,12,0.0,48.0
1647,75.0,12,12,0.0,66.0
1648,66.0,0,12,0.0,40.0
1649,54.0,0,16,0.0,42.0
1650,58.0,16,16,0.0,44.0
1651,59.0,16,16,0.0,46.0
1652,60.0,0,16,0.0,46.0
1653,59.0,16,16,0.0,43.0
1654,71.0,16,48,0.0,60.0
1655,83.0,0,48,0.0,74.0
1656,47.0,16,16,0.0,38.0
1657,41.0,16,16,0.0,36.0
1658,50.0,16,16,0.0,34.0
1659,51.0,16,16,0.0,35.0
1660,52.0,0,16,0.0,36.0
1661,51.0,16,16,0.0,34.0
1662,62.0,16,36,0.0,26.0
1663,68.0,0,36,0.0,32.0
1664,71.0,0,48,0.0,58.0
1665,41.0,16,16,0.0,30.0
1666,42.0,0,16,0.0,30.0
1667,48.0,16,16,0.0,34.0
1668,61.0,16,36,0.0,30.0
1669,70.0,0,36,0.0,50.0
1670,49.0,16,16,0.0,36.0
1671,51.0,16,16,0.0,38.0
1672,49.0,16,16,0.0,34.0
1673,70.0,0,36,0.0,56.0
1674,61.0,0,36,0.0,34.0
1675,71.0,4,12,0.0,54.0
1676,37.0,16,16,0.0,32.0
1677,41.0,0,16,0.0,32.0
1678,48.0,16,16,0.0,34.0
1679,68.0,0,36,0.0,48.0
1680,59.0,12,36,0.0,28.0
1681,49.0,16,16,0.0,36.0
1682,50.0,0,16,0.0,38.0
1683,49.0,16,16,0.0,36.0
1684,61.0,0,36,0.0,30.0
1685,59.0,0,36,0.0,24.0
1686,68.0,16,36,0.0,54.0
1687,70.0,4,12,0.0,56.0
1688,37.0,16,16,0.0,40.0
1689,42.0,0,16,0.0,36.0
1690,66.0,12,24,0.0,54.0
1691,58.0,0,24,0.0,34.0
1692,48.0,16,16,0.0,36.0
1693,49.0,16,16,0.0,38.0
1694,51.0,16,16,0.0,40.0
1695,49.0,16,16,0.0,36.0
1696,61.0,0,36,0.0,36.0
1697,70.0,0,36,0.0,60.0
1698,71.0,4,12,0.0,58.0
1699,37.0,16,16,0.0,32.0
1700,41.0,12,16,0.0,32.0
1701,48.0,16,16,0.0,34.0
1702,59.0,0,36,0.0,34.0
1703,68.0,0,36,0.0,50.0
1704,49.0,16,16,0.0,36.0
1705,50.0,0,16,0.0,36.0
1706,49.0,16,16,0.0,34.0
1707,68.0,0,36,0.0,52.0
1708,61.0,16,36,0.0,32.0
1709,59.0,0,36,0.0,26.0
1710,70.0,4,12,0.0,52.0
1711,37.0,16,16,0.0,34.0
1712,42.0,0,16,0.0,34.0
1713,48.0,16,16,0.0,38.0
1714,66.0,12,48,0.0,50.0
1715,58.0,0,48,0.0,34.0
1716,49.0,16,16,0.0,40.0
1717,50.0,16,16,0.0,40.0
1718,49.0,16,16,0.0,38.0
1719,37.0,16,16,0.0,34.0
1720,42.0,16,16,0.0,42.0
1721,48.0,16,16,0.0,42.0
1722,49.0,16,16,0.0,44.0
1723,50.0,16,16,0.0,46.0
1724,49.0,16,16,0.0,44.0
1725,37.0,16,16,0.0,40.0
1726,42.0,16,16,0.0,44.0
1727,48.0,16,16,0.0,44.0
1728,49.0,16,16,0.0,48.0
1729,50.0,16,16,0.0,52.0
1730,49.0,16,16,0.0,48.0
1731,42.0,16,16,0.0,42.0
1732,52.0,16,16,0.0,56.0
1733,50.0,16,16,0.0,52.0
1734,42.0,16,16,0.0,48.0
1735,54.0,16,16,0.0,58.0
1736,52.0,16,16,0.0,56.0
1737,42.0,16,16,0.0,46.0
1738,47.0,16,16,0.0,40.0
1739,53.0,16,16,0.0,38.0
1740,54.0,8,16,0.0,40.0
1741,62.0,0,36,0.0,24.0
1742,66.0,8,36,0.0,34.0
1743,55.0,16,16,0.0,42.0
1744,54.0,16,16,0.0,40.0
1745,66.0,8,12,0.0,36.0
1746,62.0,0,12,0.0,26.0
1747,42.0,8,16,0.0,38.0
1748,62.0,0,12,0.0,18.0
1749,66.0,0,12,0.0,28.0
1750,47.0,16,16,0.0,44.0
1751,53.0,16,16,0.0,40.0
1752,71.0,0,132,0.0,68.0
1753,54.0,8,16,0.0,42.0
1754,62.0,8,36,0.0,26.0
1755,66.0,0,36,0.0,36.0
1756,55.0,16,16,0.0,44.0
1757,54.0,16,16,0.0,42.0
1758,70.0,0,36,0.0,66.0
1759,66.0,0,12,0.0,44.0
1760,62.0,8,12,0.0,34.0
1761,71.0,4,12,0.0,68.0
1762,42.0,8,16,0.0,38.0
1763,47.0,0,16,0.0,42.0
1764,54.0,16,16,0.0,40.0
1765,55.0,8,16,0.0,42.0
1766,71.0,0,36,0.0,42.0
1767,64.0,8,36,0.0,32.0
1768,67.0,0,36,0.0,36.0
1769,57.0,16,16,0.0,44.0
1770,55.0,16,16,0.0,42.0
1771,67.0,0,12,0.0,30.0
1772,74.0,12,84,0.0,72.0
1773,71.0,0,12,0.0,36.0
1774,64.0,8,12,0.0,26.0
1775,47.0,8,16,0.0,40.0
1776,67.0,0,12,0.0,38.0
1777,71.0,0,12,0.0,44.0
1778,64.0,16,12,0.0,34.0
1779,52.0,0,16,0.0,42.0
1780,54.0,16,16,0.0,44.0
1781,55.0,8,16,0.0,46.0
1782,71.0,0,36,0.0,46.0
1783,67.0,8,36,0.0,40.0
1784,64.0,0,36,0.0,36.0
1785,57.0,16,16,0.0,48.0
1786,55.0,16,15,0.0,44.0
1787,64.0,8,12,0.0,24.0
1788,73.0,0,84,0.0,72.0
1789,71.0,0,12,0.0,34.0
1790,67.0,0,12,0.0,28.0
1791,47.0,7,17,0.0,40.0
1792,71.0,0,12,0.0,40.0
1793,69.0,0,12,0.0,34.0
1794,63.0,0,12,0.0,30.0
1795,54.0,0,16,0.0,50.0
1796,58.0,16,16,0.0,44.0
1797,59.0,8,16,0.0,46.0
1798,69.0,0,36,0.0,38.0
1799,63.0,0,36,0.0,34.0
1800,71.0,8,36,0.0,44.0
1801,60.0,16,16,0.0,48.0
1802,59.0,16,16,0.0,44.0
1803,47.0,8,16,0.0,40.0
1804,71.0,0,36,0.0,46.0
1805,63.0,8,36,0.0,36.0
1806,69.0,0,36,0.0,40.0
1807,54.0,16,16,0.0,42.0
1808,58.0,16,16,0.0,44.0
1809,75.0,17,132,0.0,74.0
1810,59.0,8,16,0.0,46.0
1811,69.0,0,36,0.0,34.0
1812,71.0,8,36,0.0,40.0
1813,63.0,0,36,0.0,30.0
1814,60.0,16,16,0.0,48.0
1815,74.0,0,24,0.0,68.0
1816,59.0,16,16,0.0,46.0
1817,71.0,0,12,0.0,46.0
1818,75.0,8,12,0.0,70.0
1819,69.0,0,12,0.0,40.0
1820,63.0,0,12,0.0,36.0
1821,47.0,8,16,0.0,40.0
1822,67.0,0,12,0.0,50.0
1823,64.0,16,12,0.0,40.0
1824,48.0,0,16,0.0,48.0
1825,54.0,16,16,0.0,46.0
1826,55.0,8,16,0.0,48.0
1827,64.0,0,40,0.0,34.0
1828,57.0,16,16,0.0,47.0
1829,67.0,8,40,0.0,44.0
1830,55.0,16,16,0.0,44.0
1831,76.0,0,96,0.0,74.0
1832,43.0,4,16,0.0,46.0
1833,48.0,16,16,0.0,44.0
1834,54.0,16,16,0.0,40.0
1835,67.0,12,56,0.0,48.0
1836,64.0,0,56,0.0,38.0
1837,55.0,16,16,0.0,36.0
1838,57.0,16,16,0.0,42.0
1839,55.0,16,16,0.0,32.0
1840,43.0,16,16,0.0,28.0
1841,48.0,16,16,0.0,34.0
1842,54.0,16,16,0.0,44.0
1843,72.0,0,36,0.0,64.0
1844,64.0,0,84,0.0,26.0
1845,67.0,0,84,0.0,34.0
1846,55.0,16,16,0.0,32.0
1847,57.0,0,16,0.0,46.0
1848,55.0,16,16,0.0,40.0
1849,64.0,16,36,0.0,38.0
1850,67.0,0,36,0.0,34.0
1851,72.0,0,36,0.0,66.0
1852,74.0,4,12,0.0,64.0
1853,43.0,16,16,0.0,36.0
1854,50.0,0,16,0.0,44.0
1855,54.0,16,16,0.0,40.0
1856,62.0,12,36,0.0,44.0
1857,67.0,0,36,0.0,40.0
1858,71.0,0,36,0.0,62.0
1859,55.0,16,16,0.0,42.0
1860,57.0,0,16,0.0,46.0
1861,55.0,16,16,0.0,42.0
1862,71.0,16,36,0.0,64.0
1863,67.0,0,36,0.0,36.0
1864,62.0,0,36,0.0,42.0
1865,43.0,16,16,0.0,44.0
1866,72.0,4,12,0.0,68.0
1867,69.0,12,12,0.0,66.0
1868,67.0,0,12,0.0,48.0
1869,60.0,0,12,0.0,40.0
1870,52.0,0,16,0.0,42.0
1871,54.0,16,16,0.0,44.0
1872,55.0,16,16,0.0,46.0
1873,57.0,16,16,0.0,48.0
1874,55.0,16,16,0.0,44.0
1875,79.0,0,48,0.0,74.0
1876,69.0,0,48,0.0,50.0
1877,43.0,16,16,0.0,40.0
1878,67.0,0,48,0.0,56.0
1879,50.0,16,16,0.0,42.0
1880,54.0,16,16,0.0,44.0
1881,55.0,16,16,0.0,46.0
1882,57.0,16,16,0.0,40.0
1883,55.0,16,16,0.0,38.0
1884,62.0,0,36,0.0,40.0
1885,67.0,0,36,0.0,36.0
1886,71.0,0,48,0.0,62.0
1887,43.0,16,16,0.0,36.0
1888,48.0,0,16,0.0,36.0
1889,54.0,16,16,0.0,40.0
1890,64.0,0,36,0.0,42.0
1891,67.0,0,36,0.0,38.0
1892,72.0,16,36,0.0,68.0
1893,55.0,16,16,0.0,42.0
1894,57.0,0,16,0.0,44.0
1895,72.0,0,24,0.0,64.0
1896,55.0,16,16,0.0,42.0
1897,64.0,16,36,0.0,36.0
1898,67.0,0,36,0.0,30.0
1899,74.0,4,6,0.0,64.0
1900,43.0,16,16,0.0,36.0
1901,50.0,12,16,0.0,38.0
1902,54.0,16,16,0.0,40.0
1903,67.0,0,36,0.0,38.0
1904,62.0,0,36,0.0,42.0
1905,71.0,0,36,0.0,62.0
1906,55.0,16,16,0.0,42.0
1907,57.0,0,16,0.0,38.0
1908,55.0,16,16,0.0,34.0
1909,62.0,0,36,0.0,36.0
1910,71.0,16,36,0.0,56.0
1911,67.0,0,36,0.0,32.0
1912,43.0,16,16,0.0,30.0
1913,72.0,4,12,0.0,54.0
1914,52.0,12,16,0.0,36.0
1915,54.0,16,16,0.0,38.0
1916,52.0,16,16,0.0,34.0
1917,54.0,16,16,0.0,36.0
1918,52.0,16,16,0.0,34.0
1919,61.0,0,84,0.0,28.0
1920,50.0,16,16,0.0,34.0
1921,49.0,0,16,0.0,38.0
1922,50.0,16,16,0.0,32.0
1923,64.0,16,48,0.0,28.0
1924,49.0,16,16,0.0,30.0
1925,70.0,0,144,0.0,46.0
1926,67.0,0,144,0.0,34.0
1927,50.0,16,16,0.0,32.0
1928,49.0,16,16,0.0,24.0
1929,42.0,16,16,0.0,28.0
1930,47.0,16,16,0.0,30.0
1931,53.0,16,16,0.0,30.0
1932,54.0,16,16,0.0,32.0
1933,55.0,16,16,0.0,34.0
1934,54.0,16,16,0.0,32.0
1935,62.0,0,88,0.0,28.0
1936,66.0,0,88,0.0,34.0
1937,74.0,0,88,0.0,58.0
1938,42.0,16,16,0.0,32.0
1939,46.0,0,16,0.0,30.0
1940,53.0,16,16,0.0,34.0
1941,54.0,16,16,0.0,38.0
1942,74.0,0,0,0.0,70.0
1943,55.0,16,16,0.0,40.0
1944,54.0,16,16,0.0,44.0
1945,66.0,4,88,0.0,30.0
1946,64.0,8,92,0.0,40.0
1947,73.0,4,6,0.0,75.0
1948,42.0,16,16,0.0,48.0
1949,41.0,0,16,0.0,52.0
1950,49.0,16,16,0.0,48.0
1951,59.0,16,16,0.0,54.0
1952,56.0,16,16,0.0,54.0
1953,73.0,12,72,0.0,60.0
1954,80.0,0,72,0.0,84.0
1955,68.0,0,72,0.0,68.0
1956,71.0,0,72,0.0,54.0
1957,61.0,16,16,0.0,60.0
1958,59.0,16,16,0.0,60.0
1959,68.0,16,84,0.0,70.0
1960,42.0,0,24,0.0,34.0
1961,49.0,24,24,0.0,30.0
1962,59.0,24,24,0.0,32.0
1963,55.0,24,24,0.0,30.0
1964,64.0,24,24,0.0,28.0
1965,76.0,96,142,0.0,57.0
1966,59.0,24,24,0.0,25.0
1967,42.0,24,24,0.0,30.0
1968,66.0,0,6,0.0,34.0
1969,68.0,12,6,0.0,36.0
1970,49.0,24,24,0.0,26.0
1971,70.0,0,6,0.0,39.0
1972,71.0,12,6,0.0,40.0
1973,58.0,12,24,0.0,28.0
1974,54.0,0,24,0.0,26.0
1975,73.0,12,24,0.0,38.0
1976,64.0,24,24,0.0,25.0
1977,74.0,0,24,0.0,46.0
1978,58.0,24,24,0.0,26.0
1979,75.0,24,12,0.0,52.0
1980,47.0,0,24,0.0,30.0
1981,74.0,12,12,0.0,55.0
1982,66.0,0,16,0.0,26.0
1983,54.0,24,40,0.0,34.0
1984,75.0,12,24,0.0,58.0
1985,74.0,0,12,0.0,58.0
1986,47.0,24,24,0.0,34.0
1987,73.0,12,12,0.0,58.0
1988,65.0,0,16,0.0,31.0
1989,53.0,24,40,0.0,33.0
1990,74.0,12,22,0.0,56.0
1991,47.0,0,24,0.0,31.0
1992,64.0,24,16,0.0,28.0
1993,52.0,24,40,0.0,31.0
1994,73.0,24,94,0.0,56.0
1995,47.0,24,24,0.0,30.0
1996,75.0,24,24,0.0,55.0
1997,67.0,0,16,0.0,36.0
1998,55.0,0,40,0.0,38.0
1999,76.0,24,24,0.0,57.0
2000,78.0,0,24,0.0,60.0
2001,47.0,24,24,0.0,37.0
2002,80.0,0,36,0.0,68.0
2003,69.0,24,16,0.0,32.0
2004,57.0,24,40,0.0,38.0
2005,78.0,12,12,0.0,59.0
2006,77.0,12,12,0.0,57.0
2007,47.0,0,24,0.0,37.0
2008,78.0,0,36,0.0,55.0
2009,68.0,24,16,0.0,33.0
2010,56.0,24,40,0.0,38.0
2011,77.0,12,12,0.0,56.0
2012,47.0,0,24,0.0,34.0
2013,67.0,24,16,0.0,32.0
2014,55.0,24,40,0.0,35.0
2015,47.0,24,24,0.0,33.0
2016,76.0,12,118,0.0,52.0
2017,75.0,0,10,0.0,54.0
2018,54.0,24,40,0.0,30.0
2019,66.0,24,16,0.0,26.0
2020,73.0,12,5,0.0,40.0
2021,75.0,3,5,0.0,48.0
2022,73.0,3,5,0.0,54.0
2023,75.0,3,5,0.0,50.0
2024,47.0,0,24,0.0,34.0
2025,73.0,3,34,0.0,50.0
2026,71.0,12,12,0.0,56.0
2027,64.0,0,16,0.0,36.0
2028,52.0,24,40,0.0,30.0
2029,73.0,12,24,0.0,62.0
2030,75.0,0,22,0.0,58.0
2031,47.0,24,24,0.0,34.0
2032,73.0,12,12,0.0,62.0
2033,66.0,12,16,0.0,36.0
2034,54.0,24,40,0.0,38.0
2035,75.0,0,24,0.0,65.0
2036,37.0,24,16,0.0,34.0
2037,78.0,0,16,0.0,63.0
2038,49.0,24,24,0.0,30.0
2039,56.0,24,24,0.0,40.0
2040,61.0,24,24,0.0,34.0
2041,76.0,0,88,0.0,63.0
2042,56.0,24,24,0.0,32.0
2043,64.0,24,16,0.0,30.0
2044,76.0,0,48,0.0,48.0
2045,87.0,24,12,0.0,56.0
2046,85.0,12,12,0.0,58.0
2047,52.0,0,24,0.0,31.0
2048,83.0,12,12,0.0,57.0
2049,59.0,0,24,0.0,26.0
2050,80.0,12,12,0.0,55.0
2051,76.0,0,9,0.0,54.0
2052,49.0,24,88,0.0,35.0
2053,73.0,9,9,0.0,53.0
2054,56.0,12,24,0.0,28.0
2055,71.0,9,9,0.0,49.0
2056,68.0,3,9,0.0,47.0
2057,70.0,9,9,0.0,45.0
2058,64.0,6,24,0.0,26.0
2059,71.0,9,9,0.0,44.0
2060,75.0,6,9,0.0,48.0
2061,59.0,3,16,0.0,26.0
2062,73.0,9,9,0.0,47.0
2063,42.0,0,24,0.0,34.0
2064,49.0,24,24,0.0,32.0
2065,58.0,24,24,0.0,38.0
2066,54.0,24,24,0.0,32.0
2067,70.0,9,102,0.0,42.0
2068,65.0,8,8,0.0,48.0
2069,64.0,24,24,0.0,30.0
2070,66.0,8,8,0.0,44.0
2071,68.0,0,6,0.0,48.0
2072,70.0,6,6,0.0,50.0
2073,71.0,6,6,0.0,48.0
2074,58.0,8,22,0.0,32.0
2075,73.0,6,6,0.0,44.0
2076,75.0,0,15,0.0,50.0
2077,47.0,6,16,0.0,30.0
2078,77.0,15,14,0.0,52.0
2079,76.0,5,14,0.0,49.0
2080,74.0,14,14,0.0,48.0
2081,54.0,9,40,0.0,34.0
2082,66.0,5,16,0.0,26.0
2083,75.0,9,15,0.0,54.0
2084,74.0,15,15,0.0,55.0
2085,47.0,0,16,0.0,34.0
2086,76.0,15,14,0.0,54.0
2087,75.0,5,14,0.0,54.0
2088,73.0,14,14,0.0,58.0
2089,65.0,5,16,0.0,31.0
2090,53.0,9,40,0.0,33.0
2091,74.0,9,15,0.0,56.0
2092,47.0,15,16,0.0,31.0
2093,52.0,24,40,0.0,31.0
2094,64.0,24,16,0.0,28.0
2095,73.0,0,83,0.0,52.0
2096,47.0,24,16,0.0,30.0
2097,72.0,11,10,0.0,50.0
2098,73.0,10,10,0.0,47.0
2099,74.0,7,10,0.0,45.0
2100,75.0,10,10,0.0,47.0
2101,76.0,3,10,0.0,51.0
2102,55.0,3,40,0.0,38.0
2103,67.0,7,16,0.0,36.0
2104,77.0,10,11,0.0,50.0
2105,78.0,11,8,0.0,58.0
2106,47.0,0,16,0.0,37.0
2107,79.0,8,8,0.0,56.0
2108,80.0,8,8,0.0,59.0
2109,81.0,0,8,0.0,62.0
2110,82.0,8,8,0.0,65.0
2111,83.0,8,8,0.0,64.0
2112,84.0,8,8,0.0,62.0
2113,57.0,8,40,0.0,38.0
2114,69.0,0,16,0.0,32.0
2115,81.0,8,8,0.0,58.0
2116,78.0,8,8,0.0,54.0
2117,77.0,0,8,0.0,58.0
2118,47.0,8,16,0.0,37.0
2119,78.0,8,8,0.0,56.0
2120,79.0,8,8,0.0,59.0
2121,80.0,0,8,0.0,60.0
2122,81.0,8,8,0.0,55.0
2123,82.0,8,8,0.0,50.0
2124,83.0,0,8,0.0,44.0
2125,56.0,8,40,0.0,38.0
2126,80.0,8,8,0.0,47.0
2127,68.0,8,16,0.0,33.0
2128,77.0,8,8,0.0,44.0
2129,47.0,8,16,0.0,37.0
2130,67.0,24,16,0.0,32.0
2131,55.0,24,40,0.0,35.0
2132,47.0,24,16,0.0,33.0
2133,76.0,0,120,0.0,54.0
2134,66.0,24,16,0.0,26.0
2135,54.0,24,40,0.0,30.0
2136,75.0,0,24,0.0,54.0
2137,73.0,0,24,0.0,56.0
2138,41.0,24,24,0.0,36.0
2139,49.0,0,24,0.0,35.0
2140,75.0,24,36,0.0,63.0
2141,59.0,24,24,0.0,38.0
2142,73.0,12,12,0.0,62.0
2143,53.0,12,24,0.0,40.0
2144,61.0,24,24,0.0,46.0
2145,68.0,0,48,0.0,60.0
2146,49.0,24,24,0.0,36.0
2147,73.0,0,24,0.0,68.0
2148,42.0,24,24,0.0,40.0
2149,49.0,24,24,0.0,38.0
2150,82.0,0,72,0.0,66.0
2151,58.0,24,24,0.0,40.0
2152,80.0,0,18,0.0,64.0
2153,54.0,24,24,0.0,36.0
2154,78.0,18,18,0.0,58.0
2155,61.0,6,24,0.0,38.0
2156,77.0,12,18,0.0,65.0
2157,75.0,6,18,0.0,67.0
2158,49.0,12,24,0.0,34.0
2159,73.0,18,14,0.0,56.0
2160,75.0,14,5,0.0,52.0
2161,41.0,0,24,0.0,34.0
2162,77.0,5,5,0.0,54.0
2163,49.0,0,24,0.0,33.0
2164,75.0,5,36,0.0,56.0
2165,73.0,12,4,0.0,54.0
2166,73.0,6,6,0.0,52.0
2167,59.0,24,24,0.0,36.0
2168,53.0,6,24,0.0,46.0
2169,68.0,0,48,0.0,54.0
2170,61.0,24,24,0.0,48.0
2171,73.0,24,16,0.0,64.0
2172,66.0,16,8,0.0,50.0
2173,49.0,0,24,0.0,42.0
2174,73.0,4,4,0.0,46.0
2175,42.0,0,24,0.0,40.0
2176,82.0,4,24,0.0,66.0
2177,49.0,24,24,0.0,38.0
2178,83.0,0,36,0.0,68.0
2179,82.0,12,12,0.0,66.0
2180,58.0,24,24,0.0,45.0
2181,80.0,12,18,0.0,60.0
2182,54.0,0,24,0.0,40.0
2183,78.0,18,18,0.0,60.0
2184,61.0,6,24,0.0,42.0
2185,77.0,12,18,0.0,61.0
2186,49.0,12,20,0.0,38.0
2187,75.0,6,14,0.0,60.0
2188,41.0,18,24,0.0,44.0
2189,73.0,0,24,0.0,68.0
2190,49.0,0,24,0.0,44.0
2191,75.0,24,24,0.0,74.0
2192,59.0,24,24,0.0,46.0
2193,73.0,0,24,0.0,72.0
2194,53.0,0,24,0.0,43.0
2195,68.0,24,48,0.0,70.0
2196,61.0,24,24,0.0,43.0
2197,49.0,24,24,0.0,38.0
2198,73.0,0,24,0.0,76.0
2199,42.0,0,24,0.0,50.0
2200,49.0,24,24,0.0,45.0
2201,59.0,24,24,0.0,48.0
2202,55.0,24,24,0.0,56.0
2203,64.0,24,24,0.0,60.0
2204,76.0,24,142,0.0,78.0
2205,59.0,24,24,0.0,57.0
2206,42.0,24,24,0.0,60.0
2207,66.0,0,12,0.0,62.0
2208,68.0,12,12,0.0,61.0
2209,49.0,24,24,0.0,40.0
2210,70.0,0,8,0.0,56.0
2211,71.0,8,8,0.0,62.0
2212,73.0,8,8,0.0,66.0
2213,58.0,12,24,0.0,50.0
2214,75.0,8,8,0.0,74.0
2215,76.0,8,8,0.0,70.0
2216,54.0,0,24,0.0,50.0
2217,78.0,8,8,0.0,72.0
2218,80.0,8,8,0.0,74.0
2219,82.0,8,8,0.0,72.0
2220,83.0,8,8,0.0,66.0
2221,64.0,0,24,0.0,60.0
2222,85.0,0,8,0.0,76.0
2223,58.0,8,24,0.0,54.0
2224,87.0,16,8,0.0,80.0
2225,44.0,8,24,0.0,48.0
2226,83.0,0,72,0.0,76.0
2227,59.0,24,24,0.0,43.0
2228,51.0,24,48,0.0,48.0
2229,44.0,24,24,0.0,52.0
2230,82.0,0,48,0.0,72.0
2231,80.0,24,24,0.0,78.0
2232,52.0,24,48,0.0,48.0
2233,59.0,0,24,0.0,42.0
2234,46.0,0,48,0.0,44.0
2235,61.0,24,24,0.0,38.0
2236,54.0,24,48,0.0,40.0
2237,78.0,24,72,0.0,70.0
2238,76.0,24,48,0.0,66.0
2239,47.0,0,48,0.0,42.0
2240,63.0,0,24,0.0,34.0
2241,54.0,24,48,0.0,38.0
2242,75.0,24,24,0.0,67.0
2243,73.0,0,24,0.0,64.0
2244,49.0,24,24,0.0,30.0
2245,75.0,24,24,0.0,60.0
2246,58.0,0,24,0.0,35.0
2247,73.0,0,24,0.0,58.0
2248,64.0,24,24,0.0,34.0
2249,51.0,24,24,0.0,32.0
2250,61.0,24,24,0.0,34.0
2251,71.0,0,48,0.0,54.0
2252,67.0,0,0,0.0,26.0
2253,70.0,24,24,0.0,50.0
2254,68.0,24,4,0.0,52.0
2255,70.0,4,4,0.0,36.0
2256,68.0,4,4,0.0,42.0
2257,70.0,4,4,0.0,39.0
2258,68.0,4,4,0.0,46.0
2259,70.0,4,4,0.0,41.0
2260,52.0,0,24,0.0,36.0
2261,68.0,4,4,0.0,47.0
2262,70.0,4,4,0.0,44.0
2263,68.0,4,4,0.0,46.0
2264,70.0,4,4,0.0,42.0
2265,68.0,4,4,0.0,46.0
2266,59.0,0,24,0.0,30.0
2267,70.0,4,4,0.0,42.0
2268,68.0,0,4,0.0,46.0
2269,70.0,4,4,0.0,42.0
2270,68.0,4,4,0.0,46.0
2271,67.0,4,6,0.0,51.0
2272,64.0,4,24,0.0,32.0
2273,68.0,6,6,0.0,52.0
2274,53.0,6,24,0.0,34.0
2275,56.0,24,24,0.0,34.0
2276,70.0,0,48,0.0,52.0
2277,71.0,0,20,0.0,56.0
2278,62.0,24,24,0.0,30.0
2279,71.0,0,6,0.0,48.0
2280,42.0,24,24,0.0,37.0
2281,49.0,18,24,0.0,38.0
2282,54.0,24,24,0.0,40.0
2283,59.0,24,24,0.0,38.0
2284,66.0,6,114,0.0,44.0
2285,64.0,24,24,0.0,37.0
2286,71.0,24,24,0.0,46.0
2287,73.0,24,8,0.0,50.0
2288,76.0,8,8,0.0,46.0
2289,78.0,8,8,0.0,47.0
2290,83.0,8,8,0.0,48.0
2291,85.0,8,8,0.0,51.0
2292,87.0,8,8,0.0,54.0
2293,88.0,8,4,0.0,52.0
2294,85.0,4,4,0.0,50.0
2295,90.0,4,4,0.0,52.0
2296,91.0,4,4,0.0,50.0
2297,85.0,4,4,0.0,50.0
2298,87.0,4,4,0.0,55.0
2299,88.0,4,4,0.0,58.0
2300,85.0,4,4,0.0,56.0
2301,90.0,4,4,0.0,62.0
2302,91.0,4,4,0.0,56.0
2303,85.0,4,4,0.0,54.0
2304,87.0,4,4,0.0,55.0
2305,88.0,4,4,0.0,58.0
2306,85.0,4,4,0.0,54.0
2307,90.0,4,4,0.0,54.0
2308,91.0,4,4,0.0,53.0
2309,85.0,4,4,0.0,52.0
2310,87.0,4,4,0.0,53.0
2311,88.0,4,4,0.0,54.0
2312,85.0,4,4,0.0,50.0
2313,90.0,4,4,0.0,44.0
2314,91.0,4,4,0.0,43.0
2315,85.0,4,10,0.0,46.0
2316,42.0,6,8,0.0,50.0
2317,49.0,2,8,0.0,44.0
2318,54.0,4,6,0.0,40.0
2319,87.0,4,14,0.0,48.0
2320,88.0,4,16,0.0,50.0
2321,94.0,16,4,0.0,48.0
2322,97.0,0,4,0.0,56.0
2323,92.0,4,4,0.0,54.0
2324,93.0,4,4,0.0,51.0
2325,96.0,0,4,0.0,59.0
2326,91.0,4,4,0.0,53.0
2327,95.0,4,4,0.0,62.0
2328,92.0,0,4,0.0,54.0
2329,90.0,4,4,0.0,53.0
2330,94.0,0,4,0.0,59.0
2331,91.0,4,4,0.0,52.0
2332,89.0,4,4,0.0,55.0
2333,90.0,4,4,0.0,48.0
2334,93.0,0,4,0.0,60.0
2335,88.0,4,4,0.0,52.0
2336,89.0,4,4,0.0,42.0
2337,92.0,0,4,0.0,60.0
2338,87.0,4,4,0.0,58.0
2339,91.0,4,4,0.0,60.0
2340,88.0,0,4,0.0,54.0
2341,86.0,4,4,0.0,59.0
2342,90.0,0,4,0.0,64.0
2343,87.0,4,4,0.0,48.0
2344,85.0,4,4,0.0,58.0
2345,89.0,0,4,0.0,62.0
2346,86.0,4,4,0.0,52.0
2347,84.0,4,4,0.0,60.0
2348,88.0,0,4,0.0,62.0
2349,85.0,4,4,0.0,51.0
2350,83.0,4,4,0.0,57.0
2351,84.0,0,4,0.0,51.0
2352,87.0,4,4,0.0,63.0
2353,82.0,4,4,0.0,60.0
2354,83.0,4,4,0.0,50.0
2355,86.0,0,4,0.0,59.0
2356,81.0,4,4,0.0,54.0
2357,82.0,4,4,0.0,49.0
2358,85.0,0,4,0.0,61.0
2359,80.0,4,4,0.0,56.0
2360,84.0,4,4,0.0,59.0
2361,81.0,0,4,0.0,51.0
2362,79.0,4,4,0.0,55.0
2363,80.0,4,4,0.0,50.0
2364,83.0,0,4,0.0,60.0
2365,78.0,4,4,0.0,55.0
2366,79.0,4,4,0.0,48.0
2367,82.0,0,4,0.0,56.0
2368,77.0,4,4,0.0,51.0
2369,81.0,0,4,0.0,56.0
2370,78.0,4,4,0.0,48.0
2371,76.0,4,4,0.0,51.0
2372,77.0,4,4,0.0,42.0
2373,80.0,0,4,0.0,54.0
2374,75.0,4,4,0.0,52.0
2375,79.0,4,4,0.0,53.0
2376,76.0,0,4,0.0,41.0
2377,74.0,4,4,0.0,50.0
2378,75.0,4,4,0.0,42.0
2379,78.0,0,4,0.0,50.0
2380,73.0,4,4,0.0,45.0
2381,74.0,0,4,0.0,38.0
2382,77.0,4,4,0.0,48.0
2383,64.0,0,180,0.0,48.0
2384,58.0,4,184,0.0,40.0
2385,72.0,4,16,0.0,46.0
2386,73.0,0,16,0.0,36.0
2387,71.0,16,16,0.0,40.0
2388,76.0,16,44,0.0,46.0
2389,75.0,12,12,0.0,42.0
2390,73.0,12,12,0.0,44.0
2391,70.0,16,36,0.0,38.0
2392,64.0,12,24,0.0,36.0
2393,71.0,0,60,0.0,40.0
2394,63.0,0,60,0.0,24.0
2395,47.0,24,60,0.0,30.0
2396,54.0,0,120,0.0,32.0
2397,35.0,0,24,0.0,32.0
2398,92.0,72,24,0.0,52.0
2399,90.0,0,12,0.0,50.0
2400,42.0,24,12,0.0,28.0
2401,47.0,12,12,0.0,30.0
2402,85.0,0,12,0.0,44.0
2403,54.0,0,12,0.0,31.0
2404,83.0,12,12,0.0,43.0
2405,59.0,12,12,0.0,35.0
2406,78.0,0,12,0.0,38.0
2407,73.0,0,12,0.0,39.0
2408,61.0,12,12,0.0,38.0
2409,71.0,12,12,0.0,38.0
2410,63.0,0,12,0.0,36.0
2411,61.0,0,12,0.0,34.0
2412,66.0,12,12,0.0,36.0
2413,71.0,12,12,0.0,40.0
2414,59.0,0,12,0.0,33.0
2415,54.0,12,12,0.0,32.0
2416,78.0,0,12,0.0,41.0
2417,51.0,12,12,0.0,31.0
2418,83.0,0,12,0.0,42.0
2419,90.0,0,24,0.0,45.0
2420,49.0,12,24,0.0,30.0
2421,95.0,24,24,0.0,44.0
2422,47.0,0,24,0.0,28.0
2423,42.0,24,24,0.0,26.0
2424,97.0,0,24,0.0,42.0
2425,35.0,0,144,0.0,24.0
2426,99.0,24,144,0.0,48.0
