,note,step,duration,channel,velocity
0,38.0,240,120,0.0,0.0
1,45.0,120,480,0.0,0.0
2,53.0,120,120,0.0,0.0
3,38.0,120,120,0.0,0.0
4,57.0,120,240,0.0,0.0
5,38.0,240,120,0.0,0.0
6,45.0,120,480,0.0,0.0
7,53.0,120,120,0.0,0.0
8,38.0,120,120,0.0,0.0
9,57.0,120,240,0.0,0.0
10,38.0,240,120,0.0,0.0
11,45.0,120,480,0.0,0.0
12,53.0,120,120,0.0,0.0
13,38.0,120,120,0.0,0.0
14,57.0,120,240,0.0,0.0
15,38.0,240,120,0.0,0.0
16,45.0,120,480,0.0,0.0
17,53.0,120,120,0.0,0.0
18,38.0,120,120,0.0,0.0
19,57.0,120,240,0.0,0.0
20,69.0,120,480,0.0,0.0
21,38.0,240,120,0.0,0.0
22,45.0,120,480,0.0,0.0
23,53.0,120,120,0.0,0.0
24,38.0,0,120,0.0,0.0
25,57.0,120,240,0.0,0.0
26,65.0,0,240,0.0,0.0
27,62.0,120,1440,0.0,0.0
28,38.0,240,120,0.0,0.0
29,45.0,120,480,0.0,0.0
30,53.0,120,120,0.0,0.0
31,38.0,120,120,0.0,0.0
32,57.0,120,240,0.0,0.0
33,38.0,240,120,0.0,0.0
34,45.0,120,480,0.0,0.0
35,53.0,120,120,0.0,0.0
36,38.0,120,120,0.0,0.0
37,57.0,0,240,0.0,0.0
38,65.0,120,240,0.0,0.0
39,38.0,120,120,0.0,0.0
40,45.0,120,480,0.0,0.0
41,69.0,0,360,0.0,0.0
42,53.0,120,120,0.0,0.0
43,38.0,120,120,0.0,0.0
44,57.0,120,240,0.0,0.0
45,74.0,0,120,0.0,0.0
46,72.0,120,1320,0.0,0.0
47,38.0,240,120,0.0,0.0
48,45.0,120,480,0.0,0.0
49,53.0,120,120,0.0,0.0
50,38.0,120,120,0.0,0.0
51,57.0,120,240,0.0,0.0
52,38.0,240,120,0.0,0.0
53,45.0,0,480,0.0,0.0
54,53.0,120,120,0.0,0.0
55,38.0,120,120,0.0,0.0
56,57.0,0,240,0.0,0.0
57,70.0,120,120,0.0,0.0
58,38.0,240,120,0.0,0.0
59,69.0,120,720,0.0,0.0
60,45.0,120,480,0.0,0.0
61,53.0,120,120,0.0,0.0
62,38.0,120,120,0.0,0.0
63,57.0,0,240,0.0,0.0
64,38.0,240,120,0.0,0.0
65,45.0,120,480,0.0,0.0
66,53.0,120,120,0.0,0.0
67,38.0,120,120,0.0,0.0
68,57.0,0,240,0.0,0.0
69,69.0,120,120,0.0,0.0
70,38.0,240,120,0.0,0.0
71,69.0,0,480,0.0,0.0
72,45.0,40,480,0.0,0.0
73,53.0,120,120,0.0,0.0
74,38.0,120,120,0.0,0.0
75,57.0,120,240,0.0,0.0
76,65.0,24,40,0.0,0.0
77,62.0,28,28,0.0,0.0
78,64.0,28,28,0.0,0.0
79,65.0,0,28,0.0,0.0
80,64.0,120,240,0.0,0.0
81,38.0,120,120,0.0,0.0
82,45.0,120,480,0.0,0.0
83,53.0,120,120,0.0,0.0
84,62.0,0,240,0.0,0.0
85,38.0,120,120,0.0,0.0
86,57.0,120,240,0.0,0.0
87,38.0,240,120,0.0,0.0
88,45.0,120,480,0.0,0.0
89,53.0,120,120,0.0,0.0
90,38.0,120,120,0.0,0.0
91,57.0,0,240,0.0,0.0
92,65.0,120,240,0.0,0.0
93,38.0,120,120,0.0,0.0
94,69.0,120,240,0.0,0.0
95,45.0,0,480,0.0,0.0
96,74.0,120,360,0.0,0.0
97,53.0,120,120,0.0,0.0
98,38.0,120,120,0.0,0.0
99,57.0,0,240,0.0,0.0
100,77.0,120,120,0.0,0.0
101,76.0,120,1320,0.0,0.0
102,38.0,240,120,0.0,0.0
103,45.0,120,480,0.0,0.0
104,53.0,120,120,0.0,0.0
105,38.0,120,120,0.0,0.0
106,57.0,120,240,0.0,0.0
107,38.0,240,120,0.0,0.0
108,45.0,0,480,0.0,0.0
109,53.0,120,120,0.0,0.0
110,38.0,120,120,0.0,0.0
111,57.0,0,240,0.0,0.0
112,74.0,120,120,0.0,0.0
113,38.0,240,120,0.0,0.0
114,45.0,0,480,0.0,0.0
115,53.0,60,120,0.0,0.0
116,69.0,0,0,0.0,0.0
117,38.0,60,120,0.0,0.0
118,71.0,0,60,0.0,0.0
119,57.0,0,240,0.0,0.0
120,72.0,60,60,0.0,0.0
121,71.0,60,60,0.0,0.0
122,72.0,60,60,0.0,0.0
123,71.0,60,60,0.0,0.0
124,38.0,0,120,0.0,0.0
125,72.0,60,60,0.0,0.0
126,71.0,60,60,0.0,0.0
127,72.0,60,60,0.0,0.0
128,43.0,0,480,0.0,0.0
129,71.0,60,60,0.0,0.0
130,53.0,0,120,0.0,0.0
131,72.0,60,60,0.0,0.0
132,71.0,60,60,0.0,0.0
133,72.0,60,60,0.0,0.0
134,38.0,60,120,0.0,0.0
135,71.0,0,60,0.0,0.0
136,55.0,120,240,0.0,0.0
137,72.0,60,60,0.0,0.0
138,71.0,60,60,0.0,0.0
139,69.0,60,60,0.0,0.0
140,71.0,0,60,0.0,0.0
141,72.0,120,720,0.0,0.0
142,36.0,240,120,0.0,0.0
143,45.0,120,480,0.0,0.0
144,53.0,120,120,0.0,0.0
145,36.0,120,120,0.0,0.0
146,57.0,0,240,0.0,0.0
147,70.0,120,480,0.0,0.0
148,36.0,240,120,0.0,0.0
149,45.0,120,480,0.0,0.0
150,53.0,120,120,0.0,0.0
151,36.0,0,120,0.0,0.0
152,57.0,60,240,0.0,0.0
153,69.0,0,240,0.0,0.0
154,36.0,0,120,0.0,0.0
155,67.0,60,60,0.0,0.0
156,69.0,60,60,0.0,0.0
157,43.0,0,120,0.0,0.0
158,67.0,60,60,0.0,0.0
159,69.0,60,60,0.0,0.0
160,53.0,60,120,0.0,0.0
161,67.0,60,60,0.0,0.0
162,69.0,0,60,0.0,0.0
163,36.0,0,120,0.0,0.0
164,67.0,60,60,0.0,0.0
165,69.0,60,60,0.0,0.0
166,67.0,60,60,0.0,0.0
167,55.0,0,240,0.0,0.0
168,69.0,60,60,0.0,0.0
169,65.0,60,60,0.0,0.0
170,67.0,120,60,0.0,0.0
171,69.0,240,480,0.0,0.0
172,36.0,120,120,0.0,0.0
173,43.0,120,120,0.0,0.0
174,53.0,120,120,0.0,0.0
175,36.0,0,120,0.0,0.0
176,55.0,0,240,0.0,0.0
177,65.0,120,120,0.0,0.0
178,36.0,120,120,0.0,0.0
179,60.0,0,1440,0.0,0.0
180,46.0,120,120,0.0,0.0
181,53.0,120,120,0.0,0.0
182,36.0,240,120,0.0,0.0
183,55.0,120,240,0.0,0.0
184,36.0,120,120,0.0,0.0
185,46.0,120,120,0.0,0.0
186,53.0,120,120,0.0,0.0
187,36.0,240,120,0.0,0.0
188,55.0,120,240,0.0,0.0
189,60.0,48,144,0.0,0.0
190,36.0,24,120,0.0,0.0
191,46.0,48,120,0.0,0.0
192,62.0,48,48,0.0,0.0
193,60.0,0,48,0.0,0.0
194,59.0,48,48,0.0,0.0
195,52.0,24,120,0.0,0.0
196,60.0,24,48,0.0,0.0
197,62.0,48,48,0.0,0.0
198,36.0,0,120,0.0,0.0
199,64.0,48,48,0.0,0.0
200,65.0,48,48,0.0,0.0
201,67.0,48,48,0.0,0.0
202,55.0,48,240,0.0,0.0
203,69.0,48,48,0.0,0.0
204,70.0,48,48,0.0,0.0
205,72.0,48,48,0.0,0.0
206,74.0,0,48,0.0,0.0
207,76.0,48,48,0.0,0.0
208,36.0,24,120,0.0,0.0
209,77.0,24,48,0.0,0.0
210,79.0,48,48,0.0,0.0
211,46.0,0,120,0.0,0.0
212,81.0,48,48,0.0,0.0
213,82.0,48,48,0.0,0.0
214,84.0,48,48,0.0,0.0
215,52.0,24,120,0.0,0.0
216,86.0,24,48,0.0,0.0
217,88.0,48,48,0.0,0.0
218,36.0,0,120,0.0,0.0
219,89.0,48,48,0.0,0.0
220,91.0,48,48,0.0,0.0
221,93.0,48,48,0.0,0.0
222,55.0,0,240,0.0,0.0
223,94.0,48,48,0.0,0.0
224,96.0,48,48,0.0,0.0
225,98.0,48,48,0.0,0.0
226,100.0,120,48,0.0,0.0
227,41.0,120,120,0.0,0.0
228,101.0,240,480,0.0,0.0
229,48.0,120,120,0.0,0.0
230,57.0,120,120,0.0,0.0
231,41.0,0,120,0.0,0.0
232,60.0,120,240,0.0,0.0
233,41.0,120,120,0.0,0.0
234,48.0,120,120,0.0,0.0
235,57.0,120,120,0.0,0.0
236,41.0,240,120,0.0,0.0
237,60.0,60,240,0.0,0.0
238,41.0,60,120,0.0,0.0
239,71.0,60,60,0.0,0.0
240,72.0,0,60,0.0,0.0
241,71.0,60,60,0.0,0.0
242,51.0,0,120,0.0,0.0
243,72.0,60,60,0.0,0.0
244,57.0,0,120,0.0,0.0
245,71.0,60,60,0.0,0.0
246,72.0,60,60,0.0,0.0
247,71.0,60,60,0.0,0.0
248,41.0,60,120,0.0,0.0
249,72.0,0,60,0.0,0.0
250,59.0,0,240,0.0,0.0
251,71.0,60,60,0.0,0.0
252,72.0,60,60,0.0,0.0
253,69.0,60,60,0.0,0.0
254,71.0,120,60,0.0,0.0
255,72.0,240,480,0.0,0.0
256,41.0,120,120,0.0,0.0
257,47.0,120,120,0.0,0.0
258,57.0,120,120,0.0,0.0
259,41.0,0,120,0.0,0.0
260,59.0,0,240,0.0,0.0
261,69.0,120,120,0.0,0.0
262,64.0,240,480,0.0,0.0
263,40.0,120,120,0.0,0.0
264,48.0,120,120,0.0,0.0
265,57.0,120,120,0.0,0.0
266,40.0,0,120,0.0,0.0
267,89.0,37,516,0.0,0.0
268,60.0,120,240,0.0,0.0
269,40.0,120,120,0.0,0.0
270,48.0,36,120,0.0,0.0
271,57.0,27,120,0.0,0.0
272,88.0,37,37,0.0,0.0
273,84.0,10,37,0.0,0.0
274,81.0,37,37,0.0,0.0
275,40.0,18,120,0.0,0.0
276,77.0,37,37,0.0,0.0
277,76.0,19,37,0.0,0.0
278,72.0,37,37,0.0,0.0
279,69.0,37,37,0.0,0.0
280,65.0,37,37,0.0,0.0
281,64.0,37,37,0.0,0.0
282,60.0,37,37,0.0,0.0
283,57.0,37,37,0.0,0.0
284,53.0,120,37,0.0,0.0
285,40.0,120,120,0.0,0.0
286,52.0,96,480,0.0,0.0
287,50.0,120,120,0.0,0.0
288,56.0,120,120,0.0,0.0
289,40.0,0,120,0.0,0.0
290,59.0,16,240,0.0,0.0
291,52.0,32,96,0.0,0.0
292,53.0,32,32,0.0,0.0
293,52.0,32,32,0.0,0.0
294,51.0,32,32,0.0,0.0
295,52.0,16,32,0.0,0.0
296,54.0,32,32,0.0,0.0
297,40.0,24,120,0.0,0.0
298,56.0,32,32,0.0,0.0
299,57.0,32,32,0.0,0.0
300,59.0,8,32,0.0,0.0
301,60.0,32,32,0.0,0.0
302,50.0,0,120,0.0,0.0
303,62.0,32,32,0.0,0.0
304,64.0,32,32,0.0,0.0
305,66.0,32,32,0.0,0.0
306,56.0,8,120,0.0,0.0
307,68.0,32,32,0.0,0.0
308,69.0,32,32,0.0,0.0
309,71.0,24,32,0.0,0.0
310,72.0,32,32,0.0,0.0
311,40.0,16,120,0.0,0.0
312,74.0,32,32,0.0,0.0
313,76.0,32,32,0.0,0.0
314,78.0,16,32,0.0,0.0
315,80.0,32,32,0.0,0.0
316,59.0,0,240,0.0,0.0
317,81.0,32,32,0.0,0.0
318,83.0,32,32,0.0,0.0
319,84.0,32,32,0.0,0.0
320,86.0,32,32,0.0,0.0
321,88.0,32,32,0.0,0.0
322,90.0,32,32,0.0,0.0
323,92.0,120,32,0.0,0.0
324,33.0,120,120,0.0,0.0
325,93.0,0,480,0.0,0.0
326,40.0,120,120,0.0,0.0
327,48.0,120,120,0.0,0.0
328,33.0,240,120,0.0,0.0
329,52.0,120,240,0.0,0.0
330,33.0,120,120,0.0,0.0
331,40.0,120,120,0.0,0.0
332,48.0,120,120,0.0,0.0
333,33.0,240,120,0.0,0.0
334,52.0,120,240,0.0,0.0
335,33.0,120,120,0.0,0.0
336,40.0,120,120,0.0,0.0
337,48.0,120,120,0.0,0.0
338,33.0,240,120,0.0,0.0
339,52.0,120,240,0.0,0.0
340,33.0,120,120,0.0,0.0
341,40.0,120,120,0.0,0.0
342,48.0,120,120,0.0,0.0
343,33.0,240,120,0.0,0.0
344,52.0,120,240,0.0,0.0
345,64.0,0,480,0.0,0.0
346,33.0,120,120,0.0,0.0
347,40.0,120,120,0.0,0.0
348,48.0,120,120,0.0,0.0
349,33.0,240,120,0.0,0.0
350,60.0,0,240,0.0,0.0
351,52.0,120,240,0.0,0.0
352,33.0,120,120,0.0,0.0
353,57.0,120,1440,0.0,0.0
354,40.0,120,120,0.0,0.0
355,48.0,120,120,0.0,0.0
356,33.0,240,120,0.0,0.0
357,52.0,120,240,0.0,0.0
358,33.0,120,120,0.0,0.0
359,40.0,120,120,0.0,0.0
360,48.0,120,120,0.0,0.0
361,33.0,240,120,0.0,0.0
362,52.0,0,240,0.0,0.0
363,33.0,120,120,0.0,0.0
364,60.0,0,240,0.0,0.0
365,40.0,120,120,0.0,0.0
366,64.0,120,360,0.0,0.0
367,48.0,120,120,0.0,0.0
368,33.0,120,120,0.0,0.0
369,52.0,120,240,0.0,0.0
370,69.0,0,120,0.0,0.0
371,67.0,120,1320,0.0,0.0
372,33.0,120,120,0.0,0.0
373,40.0,120,120,0.0,0.0
374,48.0,120,120,0.0,0.0
375,33.0,240,120,0.0,0.0
376,52.0,120,240,0.0,0.0
377,33.0,120,120,0.0,0.0
378,40.0,120,120,0.0,0.0
379,48.0,120,120,0.0,0.0
380,33.0,120,120,0.0,0.0
381,52.0,120,240,0.0,0.0
382,65.0,0,120,0.0,0.0
383,64.0,120,720,0.0,0.0
384,33.0,120,120,0.0,0.0
385,40.0,120,120,0.0,0.0
386,48.0,120,120,0.0,0.0
387,33.0,240,120,0.0,0.0
388,52.0,0,240,0.0,0.0
389,33.0,120,120,0.0,0.0
390,40.0,120,120,0.0,0.0
391,48.0,120,120,0.0,0.0
392,33.0,240,120,0.0,0.0
393,52.0,0,240,0.0,0.0
394,64.0,120,0,0.0,0.0
395,33.0,120,120,0.0,0.0
396,40.0,120,120,0.0,0.0
397,48.0,120,120,0.0,0.0
398,33.0,0,120,0.0,0.0
399,52.0,120,240,0.0,0.0
400,60.0,24,40,0.0,0.0
401,57.0,28,28,0.0,0.0
402,59.0,28,28,0.0,0.0
403,60.0,0,28,0.0,0.0
404,33.0,120,120,0.0,0.0
405,59.0,0,240,0.0,0.0
406,40.0,120,120,0.0,0.0
407,48.0,120,120,0.0,0.0
408,57.0,0,240,0.0,0.0
409,33.0,240,120,0.0,0.0
410,52.0,120,240,0.0,0.0
411,33.0,120,120,0.0,0.0
412,40.0,120,120,0.0,0.0
413,48.0,120,120,0.0,0.0
414,33.0,240,120,0.0,0.0
415,52.0,0,240,0.0,0.0
416,60.0,120,240,0.0,0.0
417,33.0,120,120,0.0,0.0
418,64.0,120,240,0.0,0.0
419,40.0,0,120,0.0,0.0
420,48.0,120,120,0.0,0.0
421,69.0,120,360,0.0,0.0
422,33.0,120,120,0.0,0.0
423,52.0,120,240,0.0,0.0
424,72.0,0,120,0.0,0.0
425,71.0,120,1320,0.0,0.0
426,33.0,120,120,0.0,0.0
427,40.0,120,120,0.0,0.0
428,48.0,120,120,0.0,0.0
429,33.0,240,120,0.0,0.0
430,52.0,120,240,0.0,0.0
431,33.0,120,120,0.0,0.0
432,40.0,120,120,0.0,0.0
433,48.0,120,120,0.0,0.0
434,33.0,120,120,0.0,0.0
435,52.0,120,240,0.0,0.0
436,69.0,0,120,0.0,0.0
437,64.0,0,360,0.0,0.0
438,33.0,120,120,0.0,0.0
439,40.0,120,120,0.0,0.0
440,48.0,60,120,0.0,0.0
441,64.0,60,60,0.0,0.0
442,33.0,0,120,0.0,0.0
443,66.0,60,60,0.0,0.0
444,67.0,60,60,0.0,0.0
445,52.0,0,240,0.0,0.0
446,66.0,60,60,0.0,0.0
447,67.0,60,60,0.0,0.0
448,66.0,60,60,0.0,0.0
449,33.0,60,120,0.0,0.0
450,67.0,60,60,0.0,0.0
451,66.0,0,60,0.0,0.0
452,38.0,60,120,0.0,0.0
453,67.0,60,60,0.0,0.0
454,66.0,0,60,0.0,0.0
455,48.0,0,120,0.0,0.0
456,67.0,60,60,0.0,0.0
457,66.0,60,60,0.0,0.0
458,33.0,60,120,0.0,0.0
459,67.0,60,60,0.0,0.0
460,66.0,0,60,0.0,0.0
461,67.0,60,60,0.0,0.0
462,50.0,0,240,0.0,0.0
463,66.0,60,60,0.0,0.0
464,64.0,60,60,0.0,0.0
465,66.0,120,60,0.0,0.0
466,31.0,120,120,0.0,0.0
467,67.0,0,720,0.0,0.0
468,40.0,120,120,0.0,0.0
469,48.0,120,120,0.0,0.0
470,31.0,240,120,0.0,0.0
471,52.0,120,240,0.0,0.0
472,31.0,120,120,0.0,0.0
473,65.0,240,480,0.0,0.0
474,40.0,120,120,0.0,0.0
475,48.0,120,120,0.0,0.0
476,31.0,0,120,0.0,0.0
477,64.0,60,240,0.0,0.0
478,52.0,0,240,0.0,0.0
479,31.0,0,120,0.0,0.0
480,62.0,60,60,0.0,0.0
481,64.0,60,60,0.0,0.0
482,62.0,60,60,0.0,0.0
483,38.0,0,120,0.0,0.0
484,64.0,60,60,0.0,0.0
485,62.0,60,60,0.0,0.0
486,48.0,60,120,0.0,0.0
487,64.0,0,60,0.0,0.0
488,62.0,60,60,0.0,0.0
489,31.0,0,120,0.0,0.0
490,64.0,60,60,0.0,0.0
491,50.0,120,240,0.0,0.0
492,62.0,60,60,0.0,0.0
493,64.0,60,60,0.0,0.0
494,60.0,60,60,0.0,0.0
495,62.0,0,60,0.0,0.0
496,64.0,0,480,0.0,0.0
497,31.0,120,120,0.0,0.0
498,38.0,120,120,0.0,0.0
499,48.0,120,120,0.0,0.0
500,31.0,240,120,0.0,0.0
501,50.0,120,240,0.0,0.0
502,60.0,0,120,0.0,0.0
503,31.0,120,120,0.0,0.0
504,38.0,120,120,0.0,0.0
505,48.0,120,120,0.0,0.0
506,31.0,240,120,0.0,0.0
507,50.0,120,240,0.0,0.0
508,31.0,120,120,0.0,0.0
509,38.0,120,120,0.0,0.0
510,48.0,120,120,0.0,0.0
511,31.0,240,120,0.0,0.0
512,50.0,0,240,0.0,0.0
513,55.0,120,0,0.0,0.0
514,31.0,24,120,0.0,0.0
515,41.0,0,120,0.0,0.0
516,57.0,48,48,0.0,0.0
517,55.0,48,48,0.0,0.0
518,47.0,24,120,0.0,0.0
519,54.0,48,48,0.0,0.0
520,55.0,24,48,0.0,0.0
521,57.0,48,48,0.0,0.0
522,31.0,0,120,0.0,0.0
523,59.0,48,48,0.0,0.0
524,60.0,48,48,0.0,0.0
525,62.0,48,48,0.0,0.0
526,50.0,0,240,0.0,0.0
527,64.0,48,48,0.0,0.0
528,65.0,48,48,0.0,0.0
529,67.0,48,48,0.0,0.0
530,69.0,48,48,0.0,0.0
531,71.0,48,48,0.0,0.0
532,31.0,24,120,0.0,0.0
533,72.0,24,48,0.0,0.0
534,74.0,48,48,0.0,0.0
535,41.0,48,120,0.0,0.0
536,76.0,48,48,0.0,0.0
537,77.0,0,48,0.0,0.0
538,47.0,24,120,0.0,0.0
539,79.0,48,48,0.0,0.0
540,81.0,24,48,0.0,0.0
541,83.0,48,48,0.0,0.0
542,31.0,0,120,0.0,0.0
543,84.0,48,48,0.0,0.0
544,86.0,48,48,0.0,0.0
545,50.0,0,240,0.0,0.0
546,88.0,48,48,0.0,0.0
547,89.0,48,48,0.0,0.0
548,91.0,48,48,0.0,0.0
549,93.0,48,48,0.0,0.0
550,95.0,120,48,0.0,0.0
551,36.0,120,120,0.0,0.0
552,96.0,0,480,0.0,0.0
553,43.0,120,120,0.0,0.0
554,52.0,120,120,0.0,0.0
555,36.0,240,120,0.0,0.0
556,55.0,120,240,0.0,0.0
557,36.0,120,120,0.0,0.0
558,43.0,120,120,0.0,0.0
559,52.0,120,120,0.0,0.0
560,36.0,240,120,0.0,0.0
561,55.0,60,240,0.0,0.0
562,36.0,60,120,0.0,0.0
563,66.0,60,60,0.0,0.0
564,67.0,0,60,0.0,0.0
565,66.0,60,60,0.0,0.0
566,42.0,0,120,0.0,0.0
567,67.0,60,60,0.0,0.0
568,66.0,60,60,0.0,0.0
569,52.0,0,120,0.0,0.0
570,67.0,60,60,0.0,0.0
571,36.0,0,120,0.0,0.0
572,66.0,60,60,0.0,0.0
573,67.0,60,60,0.0,0.0
574,54.0,120,240,0.0,0.0
575,66.0,60,60,0.0,0.0
576,67.0,60,60,0.0,0.0
577,64.0,60,60,0.0,0.0
578,66.0,0,60,0.0,0.0
579,67.0,0,480,0.0,0.0
580,36.0,120,120,0.0,0.0
581,42.0,120,120,0.0,0.0
582,52.0,120,120,0.0,0.0
583,36.0,240,120,0.0,0.0
584,54.0,120,240,0.0,0.0
585,64.0,0,120,0.0,0.0
586,59.0,0,480,0.0,0.0
587,35.0,120,120,0.0,0.0
588,43.0,120,120,0.0,0.0
589,52.0,120,120,0.0,0.0
590,35.0,240,120,0.0,0.0
591,84.0,56,288,0.0,0.0
592,55.0,48,240,0.0,0.0
593,35.0,40,120,0.0,0.0
594,83.0,16,56,0.0,0.0
595,79.0,56,56,0.0,0.0
596,43.0,32,120,0.0,0.0
597,76.0,24,56,0.0,0.0
598,72.0,56,56,0.0,0.0
599,52.0,24,120,0.0,0.0
600,71.0,32,56,0.0,0.0
601,67.0,56,56,0.0,0.0
602,35.0,16,120,0.0,0.0
603,64.0,40,56,0.0,0.0
604,60.0,56,56,0.0,0.0
605,59.0,56,56,0.0,0.0
606,55.0,56,56,0.0,0.0
607,52.0,56,56,0.0,0.0
608,48.0,120,56,0.0,0.0
609,35.0,120,120,0.0,0.0
610,47.0,36,792,0.0,0.0
611,45.0,120,120,0.0,0.0
612,51.0,120,120,0.0,0.0
613,35.0,240,120,0.0,0.0
614,54.0,72,240,0.0,0.0
615,35.0,24,120,0.0,0.0
616,48.0,12,36,0.0,0.0
617,51.0,36,36,0.0,0.0
618,45.0,12,120,0.0,0.0
619,54.0,36,36,0.0,0.0
620,57.0,24,36,0.0,0.0
621,60.0,36,36,0.0,0.0
622,51.0,0,120,0.0,0.0
623,63.0,36,36,0.0,0.0
624,66.0,36,36,0.0,0.0
625,69.0,36,36,0.0,0.0
626,35.0,24,120,0.0,0.0
627,72.0,36,36,0.0,0.0
628,75.0,36,36,0.0,0.0
629,78.0,12,36,0.0,0.0
630,81.0,36,36,0.0,0.0
631,54.0,120,240,0.0,0.0
632,84.0,36,36,0.0,0.0
633,87.0,36,36,0.0,0.0
634,90.0,36,36,0.0,0.0
635,93.0,36,36,0.0,0.0
636,96.0,36,36,0.0,0.0
637,99.0,0,36,0.0,0.0
638,100.0,0,480,0.0,0.0
639,40.0,120,120,0.0,0.0
640,47.0,120,120,0.0,0.0
641,55.0,120,120,0.0,0.0
642,40.0,240,120,0.0,0.0
643,59.0,120,240,0.0,0.0
644,40.0,120,120,0.0,0.0
645,47.0,120,120,0.0,0.0
646,55.0,120,120,0.0,0.0
647,40.0,240,120,0.0,0.0
648,59.0,120,240,0.0,0.0
649,39.0,120,120,0.0,0.0
650,47.0,120,120,0.0,0.0
651,55.0,120,120,0.0,0.0
652,39.0,0,120,0.0,0.0
653,59.0,0,240,0.0,0.0
654,67.0,160,0,0.0,0.0
655,67.0,40,0,0.0,0.0
656,70.0,120,40,0.0,0.0
657,38.0,120,120,0.0,0.0
658,68.0,240,480,0.0,0.0
659,47.0,120,120,0.0,0.0
660,53.0,120,120,0.0,0.0
661,38.0,0,120,0.0,0.0
662,55.0,120,240,0.0,0.0
663,67.0,0,120,0.0,0.0
664,67.0,240,480,0.0,0.0
665,36.0,120,120,0.0,0.0
666,43.0,120,120,0.0,0.0
667,51.0,120,120,0.0,0.0
668,36.0,0,120,0.0,0.0
669,63.0,0,240,0.0,0.0
670,55.0,120,240,0.0,0.0
671,60.0,120,1440,0.0,0.0
672,36.0,120,120,0.0,0.0
673,43.0,120,120,0.0,0.0
674,51.0,120,120,0.0,0.0
675,36.0,240,120,0.0,0.0
676,55.0,120,240,0.0,0.0
677,36.0,120,120,0.0,0.0
678,43.0,120,120,0.0,0.0
679,51.0,120,120,0.0,0.0
680,36.0,240,120,0.0,0.0
681,55.0,0,240,0.0,0.0
682,36.0,120,120,0.0,0.0
683,63.0,0,240,0.0,0.0
684,43.0,120,120,0.0,0.0
685,67.0,120,360,0.0,0.0
686,51.0,120,120,0.0,0.0
687,36.0,120,120,0.0,0.0
688,55.0,120,240,0.0,0.0
689,72.0,0,120,0.0,0.0
690,70.0,240,480,0.0,0.0
691,36.0,120,120,0.0,0.0
692,44.0,120,120,0.0,0.0
693,51.0,120,120,0.0,0.0
694,36.0,0,120,0.0,0.0
695,56.0,120,240,0.0,0.0
696,68.0,0,240,0.0,0.0
697,36.0,120,120,0.0,0.0
698,63.0,84,996,0.0,0.0
699,44.0,120,120,0.0,0.0
700,51.0,120,120,0.0,0.0
701,36.0,240,120,0.0,0.0
702,56.0,120,240,0.0,0.0
703,36.0,120,120,0.0,0.0
704,44.0,36,120,0.0,0.0
705,54.0,120,120,0.0,0.0
706,36.0,120,120,0.0,0.0
707,56.0,120,240,0.0,0.0
708,68.0,120,0,0.0,0.0
709,68.0,0,0,0.0,0.0
710,36.0,120,120,0.0,0.0
711,44.0,120,120,0.0,0.0
712,65.0,0,120,0.0,0.0
713,66.0,0,120,0.0,0.0
714,54.0,120,120,0.0,0.0
715,63.0,120,120,0.0,0.0
716,36.0,0,120,0.0,0.0
717,66.0,120,120,0.0,0.0
718,56.0,0,120,0.0,0.0
719,68.0,0,0,0.0,0.0
720,37.0,120,120,0.0,0.0
721,44.0,120,120,0.0,0.0
722,53.0,120,120,0.0,0.0
723,37.0,240,120,0.0,0.0
724,56.0,120,240,0.0,0.0
725,65.0,0,240,0.0,0.0
726,61.0,0,1200,0.0,0.0
727,37.0,120,120,0.0,0.0
728,44.0,120,120,0.0,0.0
729,53.0,120,120,0.0,0.0
730,37.0,240,120,0.0,0.0
731,56.0,120,240,0.0,0.0
732,37.0,120,120,0.0,0.0
733,44.0,120,120,0.0,0.0
734,53.0,120,120,0.0,0.0
735,37.0,240,120,0.0,0.0
736,65.0,0,240,0.0,0.0
737,56.0,120,240,0.0,0.0
738,68.0,0,240,0.0,0.0
739,37.0,120,120,0.0,0.0
740,44.0,120,120,0.0,0.0
741,73.0,120,360,0.0,0.0
742,53.0,120,120,0.0,0.0
743,37.0,120,120,0.0,0.0
744,56.0,0,240,0.0,0.0
745,77.0,120,120,0.0,0.0
746,75.0,240,480,0.0,0.0
747,37.0,120,120,0.0,0.0
748,44.0,120,120,0.0,0.0
749,53.0,120,120,0.0,0.0
750,37.0,0,120,0.0,0.0
751,56.0,0,240,0.0,0.0
752,73.0,120,240,0.0,0.0
753,37.0,120,120,0.0,0.0
754,68.0,0,720,0.0,0.0
755,44.0,120,120,0.0,0.0
756,53.0,120,120,0.0,0.0
757,37.0,240,120,0.0,0.0
758,56.0,120,240,0.0,0.0
759,37.0,120,120,0.0,0.0
760,44.0,120,120,0.0,0.0
761,53.0,120,120,0.0,0.0
762,37.0,240,120,0.0,0.0
763,56.0,120,240,0.0,0.0
764,65.0,0,240,0.0,0.0
765,68.0,120,240,0.0,0.0
766,37.0,120,120,0.0,0.0
767,44.0,0,120,0.0,0.0
768,53.0,120,120,0.0,0.0
769,73.0,120,360,0.0,0.0
770,37.0,120,120,0.0,0.0
771,56.0,120,240,0.0,0.0
772,77.0,0,120,0.0,0.0
773,75.0,240,480,0.0,0.0
774,37.0,120,120,0.0,0.0
775,45.0,120,120,0.0,0.0
776,53.0,120,120,0.0,0.0
777,37.0,0,120,0.0,0.0
778,57.0,120,240,0.0,0.0
779,73.0,0,240,0.0,0.0
780,37.0,120,120,0.0,0.0
781,45.0,120,120,0.0,0.0
782,53.0,120,120,0.0,0.0
783,37.0,240,120,0.0,0.0
784,57.0,120,240,0.0,0.0
785,37.0,120,120,0.0,0.0
786,45.0,0,120,0.0,0.0
787,69.0,120,0,0.0,0.0
788,53.0,120,120,0.0,0.0
789,37.0,240,120,0.0,0.0
790,57.0,120,240,0.0,0.0
791,69.0,0,240,0.0,0.0
792,37.0,120,120,0.0,0.0
793,69.0,120,240,0.0,0.0
794,45.0,0,120,0.0,0.0
795,65.0,240,240,0.0,0.0
796,53.0,120,120,0.0,0.0
797,37.0,0,120,0.0,0.0
798,57.0,120,240,0.0,0.0
799,67.0,0,120,0.0,0.0
800,69.0,0,1680,0.0,0.0
801,37.0,120,120,0.0,0.0
802,45.0,120,120,0.0,0.0
803,53.0,120,120,0.0,0.0
804,37.0,240,120,0.0,0.0
805,57.0,120,240,0.0,0.0
806,37.0,120,120,0.0,0.0
807,45.0,120,120,0.0,0.0
808,53.0,120,120,0.0,0.0
809,37.0,240,120,0.0,0.0
810,57.0,120,240,0.0,0.0
811,37.0,120,120,0.0,0.0
812,45.0,120,120,0.0,0.0
813,53.0,120,120,0.0,0.0
814,69.0,0,240,0.0,0.0
815,37.0,240,120,0.0,0.0
816,69.0,0,240,0.0,0.0
817,81.0,0,0,0.0,0.0
818,57.0,0,240,0.0,0.0
819,37.0,60,120,0.0,0.0
820,69.0,60,180,0.0,0.0
821,81.0,0,180,0.0,0.0
822,45.0,0,120,0.0,0.0
823,84.0,120,60,0.0,0.0
824,72.0,0,60,0.0,0.0
825,53.0,120,120,0.0,0.0
826,70.0,120,360,0.0,0.0
827,82.0,0,360,0.0,0.0
828,37.0,120,120,0.0,0.0
829,57.0,0,240,0.0,0.0
830,69.0,0,120,0.0,0.0
831,38.0,120,120,0.0,0.0
832,81.0,120,0,0.0,0.0
833,69.0,0,480,0.0,0.0
834,45.0,120,120,0.0,0.0
835,53.0,120,120,0.0,0.0
836,38.0,0,120,0.0,0.0
837,65.0,0,240,0.0,0.0
838,57.0,120,240,0.0,0.0
839,77.0,0,240,0.0,0.0
840,74.0,20,1160,0.0,0.0
841,38.0,120,120,0.0,0.0
842,62.0,20,1180,0.0,0.0
843,45.0,120,120,0.0,0.0
844,53.0,120,120,0.0,0.0
845,38.0,240,120,0.0,0.0
846,57.0,120,240,0.0,0.0
847,38.0,120,120,0.0,0.0
848,45.0,120,120,0.0,0.0
849,53.0,80,120,0.0,0.0
850,38.0,240,120,0.0,0.0
851,65.0,0,240,0.0,0.0
852,57.0,120,240,0.0,0.0
853,77.0,0,240,0.0,0.0
854,81.0,0,240,0.0,0.0
855,69.0,0,240,0.0,0.0
856,38.0,120,120,0.0,0.0
857,45.0,120,120,0.0,0.0
858,74.0,0,360,0.0,0.0
859,86.0,120,360,0.0,0.0
860,53.0,120,120,0.0,0.0
861,38.0,120,120,0.0,0.0
862,57.0,120,240,0.0,0.0
863,89.0,0,120,0.0,0.0
864,77.0,0,120,0.0,0.0
865,34.0,120,120,0.0,0.0
866,88.0,0,480,0.0,0.0
867,76.0,0,480,0.0,0.0
868,43.0,120,120,0.0,0.0
869,50.0,120,120,0.0,0.0
870,34.0,240,120,0.0,0.0
871,52.0,0,240,0.0,0.0
872,86.0,0,240,0.0,0.0
873,74.0,120,240,0.0,0.0
874,67.0,0,240,0.0,0.0
875,79.0,0,240,0.0,0.0
876,34.0,120,120,0.0,0.0
877,43.0,120,120,0.0,0.0
878,74.0,0,360,0.0,0.0
879,86.0,120,360,0.0,0.0
880,50.0,120,120,0.0,0.0
881,34.0,120,120,0.0,0.0
882,52.0,0,240,0.0,0.0
883,89.0,120,120,0.0,0.0
884,77.0,0,120,0.0,0.0
885,34.0,120,120,0.0,0.0
886,76.0,0,480,0.0,0.0
887,88.0,0,480,0.0,0.0
888,44.0,120,120,0.0,0.0
889,50.0,120,120,0.0,0.0
890,34.0,240,120,0.0,0.0
891,86.0,0,240,0.0,0.0
892,74.0,0,240,0.0,0.0
893,53.0,120,240,0.0,0.0
894,80.0,0,240,0.0,0.0
895,68.0,0,240,0.0,0.0
896,34.0,120,120,0.0,0.0
897,44.0,120,120,0.0,0.0
898,50.0,120,120,0.0,0.0
899,86.0,0,240,0.0,0.0
900,74.0,240,240,0.0,0.0
901,34.0,0,120,0.0,0.0
902,53.0,0,240,0.0,0.0
903,77.0,0,240,0.0,0.0
904,89.0,80,240,0.0,0.0
905,98.0,40,80,0.0,0.0
906,101.0,0,80,0.0,0.0
907,34.0,40,120,0.0,0.0
908,100.0,0,80,0.0,0.0
909,97.0,80,80,0.0,0.0
910,44.0,80,120,0.0,0.0
911,96.0,0,80,0.0,0.0
912,99.0,0,80,0.0,0.0
913,98.0,40,80,0.0,0.0
914,95.0,0,80,0.0,0.0
915,50.0,40,120,0.0,0.0
916,97.0,80,80,0.0,0.0
917,94.0,0,80,0.0,0.0
918,34.0,80,120,0.0,0.0
919,93.0,0,80,0.0,0.0
920,96.0,0,80,0.0,0.0
921,95.0,80,80,0.0,0.0
922,92.0,0,80,0.0,0.0
923,53.0,0,240,0.0,0.0
924,91.0,0,80,0.0,0.0
925,94.0,80,80,0.0,0.0
926,90.0,0,80,0.0,0.0
927,93.0,80,80,0.0,0.0
928,89.0,40,80,0.0,0.0
929,34.0,40,120,0.0,0.0
930,92.0,0,80,0.0,0.0
931,88.0,0,80,0.0,0.0
932,91.0,80,80,0.0,0.0
933,44.0,0,120,0.0,0.0
934,90.0,0,80,0.0,0.0
935,87.0,80,80,0.0,0.0
936,50.0,40,120,0.0,0.0
937,89.0,40,80,0.0,0.0
938,86.0,0,80,0.0,0.0
939,85.0,0,80,0.0,0.0
940,88.0,80,80,0.0,0.0
941,34.0,0,120,0.0,0.0
942,84.0,0,80,0.0,0.0
943,87.0,80,80,0.0,0.0
944,86.0,0,80,0.0,0.0
945,83.0,80,80,0.0,0.0
946,53.0,80,240,0.0,0.0
947,85.0,80,80,0.0,0.0
948,82.0,0,80,0.0,0.0
949,84.0,0,80,0.0,0.0
950,81.0,0,80,0.0,0.0
951,34.0,40,120,0.0,0.0
952,83.0,40,80,0.0,0.0
953,80.0,0,80,0.0,0.0
954,82.0,0,80,0.0,0.0
955,79.0,80,80,0.0,0.0
956,44.0,0,120,0.0,0.0
957,81.0,0,80,0.0,0.0
958,78.0,80,80,0.0,0.0
959,50.0,40,120,0.0,0.0
960,80.0,40,80,0.0,0.0
961,77.0,0,80,0.0,0.0
962,79.0,80,80,0.0,0.0
963,76.0,0,80,0.0,0.0
964,34.0,80,120,0.0,0.0
965,75.0,0,80,0.0,0.0
966,78.0,0,80,0.0,0.0
967,53.0,80,240,0.0,0.0
968,77.0,80,80,0.0,0.0
969,74.0,0,80,0.0,0.0
970,76.0,0,80,0.0,0.0
971,73.0,80,80,0.0,0.0
972,75.0,0,80,0.0,0.0
973,72.0,0,80,0.0,0.0
974,74.0,40,80,0.0,0.0
975,71.0,0,80,0.0,0.0
976,34.0,40,120,0.0,0.0
977,70.0,80,80,0.0,0.0
978,73.0,0,80,0.0,0.0
979,44.0,0,120,0.0,0.0
980,69.0,0,80,0.0,0.0
981,72.0,80,80,0.0,0.0
982,68.0,40,80,0.0,0.0
983,71.0,0,80,0.0,0.0
984,50.0,40,120,0.0,0.0
985,67.0,80,80,0.0,0.0
986,70.0,0,80,0.0,0.0
987,34.0,80,120,0.0,0.0
988,66.0,0,80,0.0,0.0
989,69.0,0,80,0.0,0.0
990,68.0,0,80,0.0,0.0
991,53.0,0,240,0.0,0.0
992,65.0,80,80,0.0,0.0
993,64.0,0,80,0.0,0.0
994,67.0,80,0,0.0,0.0
995,62.0,120,80,0.0,0.0
996,57.0,240,480,0.0,0.0
997,33.0,120,120,0.0,0.0
998,41.0,120,120,0.0,0.0
999,50.0,120,120,0.0,0.0
1000,33.0,0,120,0.0,0.0
1001,53.0,120,240,0.0,0.0
1002,69.0,0,120,0.0,0.0
1003,33.0,120,120,0.0,0.0
1004,69.0,0,960,0.0,0.0
1005,41.0,120,120,0.0,0.0
1006,50.0,120,120,0.0,0.0
1007,33.0,240,120,0.0,0.0
1008,53.0,120,240,0.0,0.0
1009,33.0,120,120,0.0,0.0
1010,41.0,120,120,0.0,0.0
1011,67.0,120,360,0.0,0.0
1012,50.0,120,120,0.0,0.0
1013,33.0,120,120,0.0,0.0
1014,53.0,120,240,0.0,0.0
1015,65.0,0,120,0.0,0.0
1016,64.0,100,120,0.0,0.0
1017,33.0,0,120,0.0,0.0
1018,41.0,80,120,0.0,0.0
1019,65.0,20,100,0.0,0.0
1020,64.0,40,100,0.0,0.0
1021,50.0,60,120,0.0,0.0
1022,62.0,60,100,0.0,0.0
1023,33.0,40,120,0.0,0.0
1024,64.0,100,100,0.0,0.0
1025,53.0,120,240,0.0,0.0
1026,65.0,100,100,0.0,0.0
1027,62.0,0,100,0.0,0.0
1028,69.0,0,240,0.0,0.0
1029,57.0,0,240,0.0,0.0
1030,33.0,120,120,0.0,0.0
1031,41.0,120,120,0.0,0.0
1032,50.0,120,120,0.0,0.0
1033,33.0,120,120,0.0,0.0
1034,81.0,0,120,0.0,0.0
1035,53.0,120,240,0.0,0.0
1036,93.0,120,120,0.0,0.0
1037,93.0,0,960,0.0,0.0
1038,81.0,0,960,0.0,0.0
1039,33.0,120,120,0.0,0.0
1040,41.0,120,120,0.0,0.0
1041,50.0,120,120,0.0,0.0
1042,33.0,240,120,0.0,0.0
1043,53.0,120,240,0.0,0.0
1044,33.0,120,120,0.0,0.0
1045,41.0,120,120,0.0,0.0
1046,91.0,0,360,0.0,0.0
1047,79.0,120,360,0.0,0.0
1048,50.0,120,120,0.0,0.0
1049,33.0,120,120,0.0,0.0
1050,53.0,0,240,0.0,0.0
1051,77.0,120,120,0.0,0.0
1052,89.0,0,120,0.0,0.0
1053,33.0,100,120,0.0,0.0
1054,76.0,0,120,0.0,0.0
1055,88.0,0,120,0.0,0.0
1056,89.0,20,100,0.0,0.0
1057,41.0,80,120,0.0,0.0
1058,77.0,0,100,0.0,0.0
1059,88.0,40,100,0.0,0.0
1060,76.0,0,100,0.0,0.0
1061,50.0,60,120,0.0,0.0
1062,86.0,60,100,0.0,0.0
1063,74.0,0,100,0.0,0.0
1064,33.0,40,120,0.0,0.0
1065,76.0,100,100,0.0,0.0
1066,88.0,0,100,0.0,0.0
1067,53.0,0,240,0.0,0.0
1068,77.0,100,100,0.0,0.0
1069,89.0,0,100,0.0,0.0
1070,86.0,120,60,0.0,0.0
1071,74.0,0,60,0.0,0.0
1072,33.0,120,120,0.0,0.0
1073,82.0,0,240,0.0,0.0
1074,94.0,120,240,0.0,0.0
1075,43.0,0,120,0.0,0.0
1076,76.0,0,240,0.0,0.0
1077,50.0,120,120,0.0,0.0
1078,88.0,240,240,0.0,0.0
1079,33.0,0,120,0.0,0.0
1080,52.0,120,240,0.0,0.0
1081,89.0,0,240,0.0,0.0
1082,77.0,0,240,0.0,0.0
1083,81.0,0,240,0.0,0.0
1084,93.0,120,240,0.0,0.0
1085,33.0,120,120,0.0,0.0
1086,43.0,0,120,0.0,0.0
1087,91.0,240,240,0.0,0.0
1088,50.0,120,120,0.0,0.0
1089,79.0,0,240,0.0,0.0
1090,33.0,0,120,0.0,0.0
1091,52.0,0,240,0.0,0.0
1092,70.0,120,240,0.0,0.0
1093,82.0,0,240,0.0,0.0
1094,33.0,120,120,0.0,0.0
1095,74.0,0,240,0.0,0.0
1096,86.0,0,240,0.0,0.0
1097,43.0,120,120,0.0,0.0
1098,79.0,240,240,0.0,0.0
1099,67.0,0,240,0.0,0.0
1100,50.0,120,120,0.0,0.0
1101,33.0,0,120,0.0,0.0
1102,52.0,0,240,0.0,0.0
1103,81.0,120,240,0.0,0.0
1104,69.0,0,240,0.0,0.0
1105,84.0,0,240,0.0,0.0
1106,72.0,120,240,0.0,0.0
1107,33.0,120,120,0.0,0.0
1108,43.0,0,120,0.0,0.0
1109,70.0,0,240,0.0,0.0
1110,82.0,0,240,0.0,0.0
1111,50.0,120,120,0.0,0.0
1112,33.0,240,120,0.0,0.0
1113,52.0,120,240,0.0,0.0
1114,76.0,0,120,0.0,0.0
1115,64.0,0,120,0.0,0.0
1116,79.0,0,240,0.0,0.0
1117,67.0,120,240,0.0,0.0
1118,33.0,120,120,0.0,0.0
1119,43.0,0,120,0.0,0.0
1120,70.0,240,240,0.0,0.0
1121,58.0,0,240,0.0,0.0
1122,50.0,120,120,0.0,0.0
1123,33.0,0,120,0.0,0.0
1124,60.0,0,240,0.0,0.0
1125,52.0,120,240,0.0,0.0
1126,72.0,0,240,0.0,0.0
1127,64.0,0,240,0.0,0.0
1128,76.0,120,240,0.0,0.0
1129,33.0,120,120,0.0,0.0
1130,43.0,0,120,0.0,0.0
1131,50.0,120,120,0.0,0.0
1132,74.0,0,240,0.0,0.0
1133,62.0,0,240,0.0,0.0
1134,33.0,240,120,0.0,0.0
1135,67.0,0,240,0.0,0.0
1136,55.0,120,240,0.0,0.0
1137,52.0,0,240,0.0,0.0
1138,33.0,120,120,0.0,0.0
1139,70.0,0,720,0.0,0.0
1140,58.0,0,720,0.0,0.0
1141,43.0,120,120,0.0,0.0
1142,50.0,120,120,0.0,0.0
1143,33.0,240,120,0.0,0.0
1144,52.0,120,240,0.0,0.0
1145,61.0,0,720,0.0,0.0
1146,33.0,120,120,0.0,0.0
1147,49.0,120,720,0.0,0.0
1148,43.0,120,120,0.0,0.0
1149,45.0,120,120,0.0,0.0
1150,33.0,240,120,0.0,0.0
1151,52.0,0,240,0.0,0.0
1152,38.0,120,120,0.0,0.0
1153,62.0,240,480,0.0,0.0
1154,50.0,0,480,0.0,0.0
1155,45.0,120,120,0.0,0.0
1156,53.0,120,120,0.0,0.0
1157,38.0,0,120,0.0,0.0
1158,57.0,120,240,0.0,0.0
1159,38.0,120,120,0.0,0.0
1160,45.0,120,120,0.0,0.0
1161,53.0,120,120,0.0,0.0
1162,38.0,240,120,0.0,0.0
1163,57.0,120,240,0.0,0.0
1164,89.0,120,480,0.0,0.0
1165,101.0,40,600,0.0,0.0
1166,38.0,120,120,0.0,0.0
1167,44.0,120,120,0.0,0.0
1168,53.0,120,120,0.0,0.0
1169,38.0,0,120,0.0,0.0
1170,56.0,40,240,0.0,0.0
1171,100.0,40,40,0.0,0.0
1172,98.0,40,40,0.0,0.0
1173,95.0,0,40,0.0,0.0
1174,38.0,40,120,0.0,0.0
1175,91.0,40,40,0.0,0.0
1176,89.0,40,40,0.0,0.0
1177,88.0,0,40,0.0,0.0
1178,44.0,40,120,0.0,0.0
1179,86.0,40,40,0.0,0.0
1180,83.0,40,40,0.0,0.0
1181,79.0,0,40,0.0,0.0
1182,77.0,40,40,0.0,0.0
1183,53.0,40,120,0.0,0.0
1184,76.0,40,40,0.0,0.0
1185,74.0,0,40,0.0,0.0
1186,38.0,40,120,0.0,0.0
1187,71.0,40,40,0.0,0.0
1188,67.0,40,40,0.0,0.0
1189,65.0,0,40,0.0,0.0
1190,64.0,40,40,0.0,0.0
1191,56.0,120,240,0.0,0.0
1192,62.0,40,40,0.0,0.0
1193,59.0,40,40,0.0,0.0
1194,55.0,40,40,0.0,0.0
1195,53.0,40,40,0.0,0.0
1196,52.0,0,40,0.0,0.0
1197,50.0,120,960,0.0,0.0
1198,38.0,120,120,0.0,0.0
1199,45.0,120,120,0.0,0.0
1200,53.0,120,120,0.0,0.0
1201,38.0,240,120,0.0,0.0
1202,57.0,120,240,0.0,0.0
1203,38.0,120,120,0.0,0.0
1204,45.0,0,120,0.0,0.0
1205,53.0,120,120,0.0,0.0
1206,38.0,240,120,0.0,0.0
1207,57.0,120,240,0.0,0.0
1208,38.0,120,120,0.0,0.0
1209,71.0,0,720,0.0,0.0
1210,59.0,120,720,0.0,0.0
1211,44.0,120,120,0.0,0.0
1212,53.0,120,120,0.0,0.0
1213,38.0,240,120,0.0,0.0
1214,56.0,0,240,0.0,0.0
1215,58.0,120,720,0.0,0.0
1216,70.0,0,720,0.0,0.0
1217,38.0,120,120,0.0,0.0
1218,44.0,120,120,0.0,0.0
1219,53.0,120,120,0.0,0.0
1220,38.0,240,120,0.0,0.0
1221,56.0,0,240,0.0,0.0
1222,65.0,0,0,0.0,0.0
1223,57.0,0,480,0.0,0.0
1224,38.0,120,120,0.0,0.0
1225,69.0,0,480,0.0,0.0
1226,45.0,120,120,0.0,0.0
1227,53.0,120,120,0.0,0.0
1228,38.0,0,120,0.0,0.0
1229,57.0,120,240,0.0,0.0
1230,38.0,120,120,0.0,0.0
1231,45.0,120,120,0.0,0.0
1232,53.0,120,120,0.0,0.0
1233,38.0,240,120,0.0,0.0
1234,57.0,120,240,0.0,0.0
1235,38.0,120,120,0.0,0.0
1236,101.0,40,600,0.0,0.0
1237,89.0,120,480,0.0,0.0
1238,44.0,120,120,0.0,0.0
1239,53.0,120,120,0.0,0.0
1240,38.0,0,120,0.0,0.0
1241,56.0,40,240,0.0,0.0
1242,100.0,40,40,0.0,0.0
1243,98.0,40,40,0.0,0.0
1244,95.0,0,40,0.0,0.0
1245,91.0,40,40,0.0,0.0
1246,38.0,40,120,0.0,0.0
1247,89.0,40,40,0.0,0.0
1248,88.0,0,40,0.0,0.0
1249,44.0,40,120,0.0,0.0
1250,86.0,40,40,0.0,0.0
1251,83.0,40,40,0.0,0.0
1252,79.0,0,40,0.0,0.0
1253,77.0,40,40,0.0,0.0
1254,53.0,0,120,0.0,0.0
1255,76.0,40,40,0.0,0.0
1256,74.0,40,40,0.0,0.0
1257,71.0,40,40,0.0,0.0
1258,38.0,40,120,0.0,0.0
1259,67.0,40,40,0.0,0.0
1260,65.0,0,40,0.0,0.0
1261,64.0,40,40,0.0,0.0
1262,56.0,120,240,0.0,0.0
1263,62.0,40,40,0.0,0.0
1264,59.0,40,40,0.0,0.0
1265,55.0,40,40,0.0,0.0
1266,53.0,40,40,0.0,0.0
1267,52.0,0,40,0.0,0.0
1268,38.0,120,120,0.0,0.0
1269,50.0,120,960,0.0,0.0
1270,45.0,120,120,0.0,0.0
1271,53.0,120,120,0.0,0.0
1272,38.0,240,120,0.0,0.0
1273,57.0,120,240,0.0,0.0
1274,38.0,120,120,0.0,0.0
1275,45.0,0,120,0.0,0.0
1276,53.0,120,120,0.0,0.0
1277,38.0,240,120,0.0,0.0
1278,57.0,120,240,0.0,0.0
1279,65.0,0,144,0.0,0.0
1280,38.0,24,120,0.0,0.0
1281,44.0,48,120,0.0,0.0
1282,59.0,96,0,0.0,0.0
1283,71.0,0,0,0.0,0.0
1284,53.0,72,120,0.0,0.0
1285,65.0,0,0,0.0,0.0
1286,59.0,72,0,0.0,0.0
1287,71.0,0,0,0.0,0.0
1288,38.0,96,120,0.0,0.0
1289,59.0,48,0,0.0,0.0
1290,56.0,120,240,0.0,0.0
1291,65.0,0,0,0.0,0.0
1292,59.0,0,144,0.0,0.0
1293,71.0,144,0,0.0,0.0
1294,58.0,0,144,0.0,0.0
1295,38.0,24,120,0.0,0.0
1296,65.0,0,144,0.0,0.0
1297,44.0,48,120,0.0,0.0
1298,70.0,96,0,0.0,0.0
1299,53.0,72,120,0.0,0.0
1300,65.0,0,0,0.0,0.0
1301,58.0,0,0,0.0,0.0
1302,70.0,72,0,0.0,0.0
1303,38.0,96,120,0.0,0.0
1304,70.0,48,0,0.0,0.0
1305,58.0,0,144,0.0,0.0
1306,65.0,144,144,0.0,0.0
1307,56.0,0,240,0.0,0.0
1308,65.0,0,144,0.0,0.0
1309,70.0,0,144,0.0,0.0
1310,58.0,240,144,0.0,0.0
1311,38.0,960,480,0.0,0.0
1312,45.0,30,210,0.0,0.0
1313,53.0,0,180,0.0,0.0
1314,57.0,0,150,0.0,0.0
1315,65.0,0,120,0.0,0.0
1316,69.0,210,90,0.0,0.0
1317,65.0,0,720,0.0,0.0
1318,69.0,0,720,0.0,0.0
1319,74.0,0,720,0.0,0.0
1320,77.0,0,720,0.0,0.0
1321,86.0,0,720,0.0,0.0
1322,98.0,60,720,0.0,0.0
1323,94.0,60,60,0.0,0.0
1324,93.0,60,60,0.0,0.0
1325,89.0,60,60,0.0,0.0
1326,86.0,60,60,0.0,0.0
1327,82.0,60,60,0.0,0.0
1328,81.0,60,60,0.0,0.0
1329,77.0,60,60,0.0,0.0
1330,74.0,60,60,0.0,0.0
1331,70.0,60,60,0.0,0.0
1332,69.0,60,60,0.0,0.0
1333,65.0,60,60,0.0,0.0
1334,62.0,60,60,0.0,0.0
1335,58.0,60,60,0.0,0.0
1336,57.0,60,60,0.0,0.0
1337,53.0,60,60,0.0,0.0
1338,50.0,60,60,0.0,0.0
1339,46.0,60,60,0.0,0.0
1340,45.0,60,60,0.0,0.0
1341,41.0,60,60,0.0,0.0
1342,38.0,60,60,0.0,0.0
1343,34.0,60,60,0.0,0.0
1344,33.0,60,60,0.0,0.0
1345,29.0,60,60,0.0,0.0
1346,28.0,1200,60,0.0,0.0
1347,26.0,1440,1200,0.0,0.0
1348,26.0,1440,1200,0.0,0.0
1349,26.0,1,1200,0.0,0.0
