,note,step,duration,channel,velocity
0,70.0,160,15,0.0,0.0
1,39.0,160,150,0.0,0.0
2,58.0,0,150,0.0,0.0
3,55.0,160,150,0.0,0.0
4,67.0,0,150,0.0,0.0
5,46.0,160,150,0.0,0.0
6,39.0,160,150,0.0,0.0
7,75.0,0,150,0.0,0.0
8,63.0,0,150,0.0,0.0
9,55.0,160,150,0.0,0.0
10,46.0,0,150,0.0,0.0
11,70.0,160,150,0.0,0.0
12,39.0,160,150,0.0,0.0
13,79.0,0,150,0.0,0.0
14,58.0,160,150,0.0,0.0
15,67.0,0,150,0.0,0.0
16,75.0,160,150,0.0,0.0
17,46.0,0,150,0.0,0.0
18,82.0,0,150,0.0,0.0
19,39.0,160,150,0.0,0.0
20,63.0,0,150,0.0,0.0
21,70.0,160,150,0.0,0.0
22,55.0,160,150,0.0,0.0
23,79.0,0,150,0.0,0.0
24,87.0,160,150,0.0,0.0
25,46.0,0,150,0.0,0.0
26,67.0,0,150,0.0,0.0
27,75.0,160,150,0.0,0.0
28,58.0,160,150,0.0,0.0
29,82.0,0,150,0.0,0.0
30,91.0,160,150,0.0,0.0
31,51.0,0,150,0.0,0.0
32,70.0,0,150,0.0,0.0
33,79.0,160,150,0.0,0.0
34,58.0,160,150,0.0,0.0
35,82.0,0,150,0.0,0.0
36,89.0,0,150,0.0,0.0
37,51.0,160,150,0.0,0.0
38,71.0,0,150,0.0,0.0
39,74.0,160,150,0.0,0.0
40,59.0,0,150,0.0,0.0
41,80.0,160,150,0.0,0.0
42,51.0,160,150,0.0,0.0
43,87.0,0,150,0.0,0.0
44,75.0,0,150,0.0,0.0
45,72.0,160,150,0.0,0.0
46,80.0,160,150,0.0,0.0
47,60.0,0,150,0.0,0.0
48,51.0,0,150,0.0,0.0
49,84.0,160,150,0.0,0.0
50,68.0,0,150,0.0,0.0
51,72.0,160,150,0.0,0.0
52,62.0,160,150,0.0,0.0
53,80.0,0,150,0.0,0.0
54,84.0,0,150,0.0,0.0
55,51.0,160,150,0.0,0.0
56,72.0,160,150,0.0,0.0
57,67.0,0,150,0.0,0.0
58,63.0,0,150,0.0,0.0
59,79.0,160,150,0.0,0.0
60,58.0,160,150,0.0,0.0
61,82.0,0,150,0.0,0.0
62,67.0,0,150,0.0,0.0
63,70.0,160,150,0.0,0.0
64,63.0,0,150,0.0,0.0
65,75.0,160,150,0.0,0.0
66,51.0,160,150,0.0,0.0
67,79.0,0,150,0.0,0.0
68,63.0,160,150,0.0,0.0
69,67.0,0,150,0.0,0.0
70,70.0,0,150,0.0,0.0
71,55.0,160,150,0.0,0.0
72,75.0,160,150,0.0,0.0
73,41.0,0,150,0.0,0.0
74,63.0,0,150,0.0,0.0
75,60.0,160,150,0.0,0.0
76,69.0,0,150,0.0,0.0
77,53.0,160,150,0.0,0.0
78,74.0,0,150,0.0,0.0
79,48.0,160,150,0.0,0.0
80,62.0,160,150,0.0,0.0
81,60.0,0,150,0.0,0.0
82,53.0,0,150,0.0,0.0
83,69.0,160,150,0.0,0.0
84,75.0,0,150,0.0,0.0
85,41.0,160,150,0.0,0.0
86,63.0,0,150,0.0,0.0
87,60.0,160,150,0.0,0.0
88,69.0,0,150,0.0,0.0
89,53.0,160,150,0.0,0.0
90,79.0,160,150,0.0,0.0
91,46.0,0,150,0.0,0.0
92,67.0,0,150,0.0,0.0
93,63.0,160,150,0.0,0.0
94,70.0,0,150,0.0,0.0
95,53.0,160,150,0.0,0.0
96,50.0,0,150,0.0,0.0
97,77.0,160,150,0.0,0.0
98,62.0,0,150,0.0,0.0
99,65.0,160,150,0.0,0.0
100,70.0,0,150,0.0,0.0
101,53.0,160,150,0.0,0.0
102,74.0,0,150,0.0,0.0
103,46.0,160,150,0.0,0.0
104,58.0,160,150,0.0,0.0
105,62.0,0,150,0.0,0.0
106,65.0,0,150,0.0,0.0
107,53.0,160,150,0.0,0.0
108,75.0,160,150,0.0,0.0
109,41.0,0,150,0.0,0.0
110,60.0,160,150,0.0,0.0
111,63.0,0,150,0.0,0.0
112,69.0,0,150,0.0,0.0
113,53.0,160,150,0.0,0.0
114,74.0,0,150,0.0,0.0
115,48.0,160,150,0.0,0.0
116,62.0,160,150,0.0,0.0
117,59.0,0,150,0.0,0.0
118,53.0,160,150,0.0,0.0
119,69.0,0,150,0.0,0.0
120,75.0,0,150,0.0,0.0
121,41.0,160,150,0.0,0.0
122,60.0,0,150,0.0,0.0
123,63.0,160,150,0.0,0.0
124,53.0,0,150,0.0,0.0
125,69.0,160,150,0.0,0.0
126,46.0,0,150,0.0,0.0
127,79.0,160,150,0.0,0.0
128,67.0,0,150,0.0,0.0
129,63.0,160,150,0.0,0.0
130,72.0,160,150,0.0,0.0
131,56.0,0,150,0.0,0.0
132,77.0,0,150,0.0,0.0
133,53.0,160,150,0.0,0.0
134,65.0,0,150,0.0,0.0
135,62.0,160,150,0.0,0.0
136,68.0,160,150,0.0,0.0
137,53.0,0,150,0.0,0.0
138,46.0,0,150,0.0,0.0
139,72.0,160,150,0.0,0.0
140,56.0,160,150,0.0,0.0
141,60.0,0,150,0.0,0.0
142,65.0,160,150,0.0,0.0
143,50.0,0,150,0.0,0.0
144,39.0,0,150,0.0,0.0
145,70.0,160,150,0.0,0.0
146,55.0,0,150,0.0,0.0
147,58.0,160,150,0.0,0.0
148,46.0,0,150,0.0,0.0
149,67.0,160,150,0.0,0.0
150,75.0,160,150,0.0,0.0
151,39.0,0,150,0.0,0.0
152,63.0,160,150,0.0,0.0
153,55.0,0,150,0.0,0.0
154,46.0,0,150,0.0,0.0
155,70.0,160,150,0.0,0.0
156,39.0,160,150,0.0,0.0
157,79.0,0,150,0.0,0.0
158,67.0,0,150,0.0,0.0
159,58.0,160,150,0.0,0.0
160,46.0,160,150,0.0,0.0
161,75.0,0,150,0.0,0.0
162,82.0,160,150,0.0,0.0
163,39.0,0,150,0.0,0.0
164,63.0,160,150,0.0,0.0
165,70.0,0,150,0.0,0.0
166,79.0,160,150,0.0,0.0
167,55.0,0,150,0.0,0.0
168,87.0,0,150,0.0,0.0
169,46.0,160,150,0.0,0.0
170,75.0,0,150,0.0,0.0
171,67.0,160,150,0.0,0.0
172,82.0,0,150,0.0,0.0
173,58.0,160,150,0.0,0.0
174,51.0,160,150,0.0,0.0
175,91.0,0,150,0.0,0.0
176,70.0,160,150,0.0,0.0
177,79.0,0,150,0.0,0.0
178,82.0,0,150,0.0,0.0
179,58.0,160,150,0.0,0.0
180,51.0,160,150,0.0,0.0
181,89.0,0,150,0.0,0.0
182,71.0,160,150,0.0,0.0
183,74.0,0,150,0.0,0.0
184,80.0,160,150,0.0,0.0
185,59.0,0,150,0.0,0.0
186,51.0,160,150,0.0,0.0
187,87.0,0,150,0.0,0.0
188,75.0,160,150,0.0,0.0
189,72.0,0,150,0.0,0.0
190,80.0,160,150,0.0,0.0
191,60.0,0,150,0.0,0.0
192,51.0,160,150,0.0,0.0
193,84.0,0,150,0.0,0.0
194,72.0,0,150,0.0,0.0
195,68.0,160,150,0.0,0.0
196,80.0,160,150,0.0,0.0
197,62.0,0,150,0.0,0.0
198,84.0,160,150,0.0,0.0
199,51.0,0,150,0.0,0.0
200,72.0,160,150,0.0,0.0
201,67.0,0,150,0.0,0.0
202,63.0,160,150,0.0,0.0
203,79.0,0,150,0.0,0.0
204,82.0,160,150,0.0,0.0
205,58.0,0,150,0.0,0.0
206,67.0,0,150,0.0,0.0
207,70.0,160,150,0.0,0.0
208,63.0,160,150,0.0,0.0
209,75.0,0,150,0.0,0.0
210,79.0,0,150,0.0,0.0
211,51.0,160,150,0.0,0.0
212,63.0,0,150,0.0,0.0
213,67.0,160,150,0.0,0.0
214,55.0,160,150,0.0,0.0
215,75.0,0,150,0.0,0.0
216,78.0,0,150,0.0,0.0
217,47.0,160,150,0.0,0.0
218,66.0,160,150,0.0,0.0
219,63.0,0,150,0.0,0.0
220,57.0,0,150,0.0,0.0
221,75.0,160,150,0.0,0.0
222,77.0,0,150,0.0,0.0
223,51.0,160,150,0.0,0.0
224,63.0,0,150,0.0,0.0
225,65.0,160,150,0.0,0.0
226,75.0,160,150,0.0,0.0
227,57.0,0,150,0.0,0.0
228,47.0,0,150,0.0,0.0
229,78.0,160,150,0.0,0.0
230,63.0,160,150,0.0,0.0
231,66.0,0,150,0.0,0.0
232,75.0,160,150,0.0,0.0
233,57.0,0,150,0.0,0.0
234,79.0,0,150,0.0,0.0
235,46.0,160,150,0.0,0.0
236,67.0,0,150,0.0,0.0
237,62.0,160,150,0.0,0.0
238,74.0,160,150,0.0,0.0
239,55.0,0,150,0.0,0.0
240,45.0,160,150,0.0,0.0
241,81.0,0,150,0.0,0.0
242,62.0,160,150,0.0,0.0
243,69.0,0,150,0.0,0.0
244,74.0,160,150,0.0,0.0
245,54.0,0,150,0.0,0.0
246,82.0,160,150,0.0,0.0
247,43.0,0,150,0.0,0.0
248,70.0,0,150,0.0,0.0
249,62.0,160,150,0.0,0.0
250,74.0,160,150,0.0,0.0
251,55.0,0,150,0.0,0.0
252,41.0,0,150,0.0,0.0
253,84.0,160,150,0.0,0.0
254,70.0,0,150,0.0,0.0
255,72.0,160,150,0.0,0.0
256,63.0,0,150,0.0,0.0
257,77.0,160,150,0.0,0.0
258,53.0,160,150,0.0,0.0
259,86.0,0,150,0.0,0.0
260,74.0,0,150,0.0,0.0
261,70.0,160,150,0.0,0.0
262,77.0,0,150,0.0,0.0
263,63.0,160,150,0.0,0.0
264,81.0,0,150,0.0,0.0
265,60.0,160,150,0.0,0.0
266,69.0,0,150,0.0,0.0
267,65.0,160,150,0.0,0.0
268,63.0,0,150,0.0,0.0
269,77.0,160,150,0.0,0.0
270,46.0,160,150,0.0,0.0
271,84.0,0,150,0.0,0.0
272,72.0,160,150,0.0,0.0
273,63.0,0,150,0.0,0.0
274,77.0,0,150,0.0,0.0
275,53.0,160,150,0.0,0.0
276,46.0,0,150,0.0,0.0
277,82.0,160,150,0.0,0.0
278,62.0,0,150,0.0,0.0
279,70.0,160,150,0.0,0.0
280,53.0,160,150,0.0,0.0
281,77.0,0,15,0.0,0.0
282,46.0,0,150,0.0,0.0
283,65.0,0,150,0.0,0.0
284,61.0,160,150,0.0,0.0
285,70.0,160,150,0.0,0.0
286,53.0,0,150,0.0,0.0
287,44.0,0,150,0.0,0.0
288,77.0,160,150,0.0,0.0
289,65.0,160,150,0.0,0.0
290,59.0,0,150,0.0,0.0
291,53.0,160,150,0.0,0.0
292,71.0,0,150,0.0,0.0
293,75.0,160,150,0.0,0.0
294,49.0,0,150,0.0,0.0
295,63.0,160,150,0.0,0.0
296,59.0,0,150,0.0,0.0
297,53.0,160,150,0.0,0.0
298,70.0,0,150,0.0,0.0
299,37.0,160,150,0.0,0.0
300,77.0,0,150,0.0,0.0
301,59.0,160,150,0.0,0.0
302,61.0,0,150,0.0,0.0
303,68.0,0,150,0.0,0.0
304,53.0,160,150,0.0,0.0
305,80.0,0,150,0.0,0.0
306,42.0,160,150,0.0,0.0
307,61.0,0,150,0.0,0.0
308,58.0,160,150,0.0,0.0
309,70.0,0,150,0.0,0.0
310,54.0,160,150,0.0,0.0
311,78.0,160,150,0.0,0.0
312,49.0,0,150,0.0,0.0
313,61.0,160,150,0.0,0.0
314,58.0,0,150,0.0,0.0
315,54.0,0,150,0.0,0.0
316,70.0,160,150,0.0,0.0
317,42.0,160,150,0.0,0.0
318,73.0,0,150,0.0,0.0
319,61.0,0,150,0.0,0.0
320,58.0,160,150,0.0,0.0
321,70.0,0,150,0.0,0.0
322,49.0,160,150,0.0,0.0
323,77.0,0,150,0.0,0.0
324,37.0,160,150,0.0,0.0
325,61.0,0,150,0.0,0.0
326,59.0,160,150,0.0,0.0
327,53.0,160,150,0.0,0.0
328,71.0,0,150,0.0,0.0
329,75.0,0,150,0.0,0.0
330,44.0,160,150,0.0,0.0
331,61.0,160,150,0.0,0.0
332,59.0,0,150,0.0,0.0
333,70.0,160,150,0.0,0.0
334,53.0,0,150,0.0,0.0
335,37.0,160,150,0.0,0.0
336,77.0,0,150,0.0,0.0
337,59.0,160,150,0.0,0.0
338,61.0,0,150,0.0,0.0
339,53.0,160,150,0.0,0.0
340,68.0,0,150,0.0,0.0
341,42.0,0,150,0.0,0.0
342,80.0,160,150,0.0,0.0
343,58.0,160,150,0.0,0.0
344,61.0,0,150,0.0,0.0
345,70.0,0,150,0.0,0.0
346,54.0,160,150,0.0,0.0
347,49.0,160,150,0.0,0.0
348,78.0,0,150,0.0,0.0
349,61.0,160,150,0.0,0.0
350,58.0,0,150,0.0,0.0
351,54.0,160,150,0.0,0.0
352,70.0,0,150,0.0,0.0
353,42.0,0,150,0.0,0.0
354,73.0,160,150,0.0,0.0
355,58.0,0,150,0.0,0.0
356,61.0,160,150,0.0,0.0
357,70.0,160,150,0.0,0.0
358,49.0,0,150,0.0,0.0
359,42.0,0,150,0.0,0.0
360,76.0,160,150,0.0,0.0
361,58.0,0,150,0.0,0.0
362,64.0,160,150,0.0,0.0
363,70.0,0,150,0.0,0.0
364,49.0,160,150,0.0,0.0
365,82.0,160,150,0.0,0.0
366,42.0,0,150,0.0,0.0
367,61.0,0,150,0.0,0.0
368,64.0,160,150,0.0,0.0
369,73.0,0,150,0.0,0.0
370,54.0,160,150,0.0,0.0
371,85.0,160,150,0.0,0.0
372,42.0,0,150,0.0,0.0
373,70.0,160,150,0.0,0.0
374,64.0,0,150,0.0,0.0
375,58.0,160,150,0.0,0.0
376,76.0,0,150,0.0,0.0
377,86.0,0,150,0.0,0.0
378,41.0,160,150,0.0,0.0
379,70.0,0,150,0.0,0.0
380,65.0,160,150,0.0,0.0
381,77.0,160,150,0.0,0.0
382,58.0,0,150,0.0,0.0
383,53.0,160,150,0.0,0.0
384,87.0,0,150,0.0,0.0
385,70.0,0,150,0.0,0.0
386,67.0,160,150,0.0,0.0
387,79.0,160,150,0.0,0.0
388,58.0,0,150,0.0,0.0
389,53.0,0,150,0.0,0.0
390,83.0,160,150,0.0,0.0
391,68.0,160,150,0.0,0.0
392,65.0,0,150,0.0,0.0
393,59.0,0,150,0.0,0.0
394,74.0,160,150,0.0,0.0
395,53.0,0,150,0.0,0.0
396,84.0,160,150,0.0,0.0
397,69.0,0,150,0.0,0.0
398,65.0,160,150,0.0,0.0
399,75.0,0,150,0.0,0.0
400,60.0,160,150,0.0,0.0
401,86.0,0,150,0.0,0.0
402,53.0,160,150,0.0,0.0
403,65.0,160,150,0.0,0.0
404,69.0,0,150,0.0,0.0
405,77.0,0,150,0.0,0.0
406,63.0,160,150,0.0,0.0
407,53.0,0,150,0.0,0.0
408,81.0,160,150,0.0,0.0
409,63.0,0,150,0.0,0.0
410,69.0,160,150,0.0,0.0
411,57.0,160,150,0.0,0.0
412,72.0,0,150,0.0,0.0
413,84.0,0,150,0.0,0.0
414,46.0,160,150,0.0,0.0
415,63.0,160,150,0.0,0.0
416,65.0,0,150,0.0,0.0
417,75.0,0,150,0.0,0.0
418,53.0,160,150,0.0,0.0
419,82.0,0,150,0.0,0.0
420,46.0,160,150,0.0,0.0
421,62.0,0,150,0.0,0.0
422,65.0,160,150,0.0,0.0
423,53.0,0,150,0.0,0.0
424,74.0,160,150,0.0,0.0
425,46.0,0,150,0.0,0.0
426,77.0,160,150,0.0,0.0
427,65.0,0,150,0.0,0.0
428,61.0,160,150,0.0,0.0
429,70.0,160,150,0.0,0.0
430,53.0,0,150,0.0,0.0
431,44.0,160,150,0.0,0.0
432,77.0,0,150,0.0,0.0
433,65.0,160,150,0.0,0.0
434,59.0,0,150,0.0,0.0
435,71.0,0,150,0.0,0.0
436,53.0,160,150,0.0,0.0
437,75.0,0,150,0.0,0.0
438,49.0,160,150,0.0,0.0
439,59.0,160,150,0.0,0.0
440,63.0,0,150,0.0,0.0
441,53.0,0,150,0.0,0.0
442,70.0,160,150,0.0,0.0
443,37.0,0,150,0.0,0.0
444,77.0,160,150,0.0,0.0
445,61.0,160,150,0.0,0.0
446,59.0,0,150,0.0,0.0
447,68.0,0,150,0.0,0.0
448,53.0,160,150,0.0,0.0
449,42.0,0,150,0.0,0.0
450,80.0,160,150,0.0,0.0
451,61.0,160,150,0.0,0.0
452,58.0,0,150,0.0,0.0
453,70.0,160,150,0.0,0.0
454,54.0,0,150,0.0,0.0
455,49.0,0,150,0.0,0.0
456,78.0,160,150,0.0,0.0
457,58.0,0,150,0.0,0.0
458,61.0,160,150,0.0,0.0
459,70.0,160,150,0.0,0.0
460,54.0,0,150,0.0,0.0
461,73.0,0,150,0.0,0.0
462,42.0,160,150,0.0,0.0
463,61.0,160,150,0.0,0.0
464,58.0,0,150,0.0,0.0
465,49.0,0,150,0.0,0.0
466,70.0,160,150,0.0,0.0
467,37.0,0,150,0.0,0.0
468,77.0,160,150,0.0,0.0
469,61.0,0,150,0.0,0.0
470,59.0,160,150,0.0,0.0
471,71.0,160,150,0.0,0.0
472,53.0,0,150,0.0,0.0
473,44.0,0,150,0.0,0.0
474,75.0,160,150,0.0,0.0
475,61.0,160,150,0.0,0.0
476,59.0,0,150,0.0,0.0
477,70.0,0,150,0.0,0.0
478,53.0,160,150,0.0,0.0
479,37.0,160,150,0.0,0.0
480,77.0,0,150,0.0,0.0
481,61.0,0,150,0.0,0.0
482,59.0,160,150,0.0,0.0
483,53.0,0,150,0.0,0.0
484,68.0,160,150,0.0,0.0
485,42.0,0,150,0.0,0.0
486,80.0,160,150,0.0,0.0
487,61.0,160,150,0.0,0.0
488,58.0,0,150,0.0,0.0
489,70.0,0,150,0.0,0.0
490,54.0,160,150,0.0,0.0
491,78.0,0,150,0.0,0.0
492,49.0,160,150,0.0,0.0
493,61.0,160,150,0.0,0.0
494,58.0,0,150,0.0,0.0
495,54.0,0,150,0.0,0.0
496,70.0,160,150,0.0,0.0
497,42.0,0,150,0.0,0.0
498,77.0,160,150,0.0,0.0
499,58.0,160,150,0.0,0.0
500,61.0,0,150,0.0,0.0
501,70.0,0,150,0.0,0.0
502,49.0,160,150,0.0,0.0
503,76.0,160,150,0.0,0.0
504,43.0,0,150,0.0,0.0
505,61.0,0,150,0.0,0.0
506,58.0,160,150,0.0,0.0
507,70.0,0,150,0.0,0.0
508,52.0,160,150,0.0,0.0
509,79.0,0,150,0.0,0.0
510,46.0,160,150,0.0,0.0
511,64.0,0,150,0.0,0.0
512,61.0,160,150,0.0,0.0
513,73.0,0,150,0.0,0.0
514,52.0,160,150,0.0,0.0
515,78.0,0,150,0.0,0.0
516,45.0,160,150,0.0,0.0
517,63.0,0,150,0.0,0.0
518,60.0,160,150,0.0,0.0
519,51.0,0,150,0.0,0.0
520,72.0,160,150,0.0,0.0
521,81.0,0,150,0.0,0.0
522,48.0,160,150,0.0,0.0
523,66.0,160,150,0.0,0.0
524,63.0,0,150,0.0,0.0
525,54.0,0,150,0.0,0.0
526,75.0,160,150,0.0,0.0
527,47.0,160,150,0.0,0.0
528,80.0,0,150,0.0,0.0
529,62.0,0,150,0.0,0.0
530,65.0,160,150,0.0,0.0
531,74.0,0,150,0.0,0.0
532,53.0,160,150,0.0,0.0
533,50.0,160,150,0.0,0.0
534,83.0,0,150,0.0,0.0
535,68.0,160,150,0.0,0.0
536,65.0,0,150,0.0,0.0
537,77.0,160,150,0.0,0.0
538,56.0,0,150,0.0,0.0
539,49.0,160,150,0.0,0.0
540,82.0,0,150,0.0,0.0
541,64.0,0,150,0.0,0.0
542,67.0,160,150,0.0,0.0
543,55.0,0,150,0.0,0.0
544,76.0,160,150,0.0,0.0
545,52.0,0,150,0.0,0.0
546,85.0,160,150,0.0,0.0
547,67.0,160,150,0.0,0.0
548,70.0,0,150,0.0,0.0
549,79.0,160,150,0.0,0.0
550,58.0,0,150,0.0,0.0
551,51.0,160,150,0.0,0.0
552,84.0,0,150,0.0,0.0
553,69.0,0,150,0.0,0.0
554,66.0,160,150,0.0,0.0
555,78.0,0,150,0.0,0.0
556,57.0,160,150,0.0,0.0
557,54.0,160,150,0.0,0.0
558,87.0,0,150,0.0,0.0
559,69.0,160,150,0.0,0.0
560,72.0,0,150,0.0,0.0
561,60.0,160,150,0.0,0.0
562,81.0,0,150,0.0,0.0
563,86.0,0,150,0.0,0.0
564,53.0,160,150,0.0,0.0
565,68.0,0,150,0.0,0.0
566,71.0,160,150,0.0,0.0
567,59.0,0,150,0.0,0.0
568,80.0,240,150,0.0,0.0
569,89.0,400,240,0.0,0.0
570,58.0,0,240,0.0,0.0
571,70.0,160,150,0.0,0.0
572,39.0,0,150,0.0,0.0
573,58.0,160,150,0.0,0.0
574,55.0,0,150,0.0,0.0
575,67.0,160,150,0.0,0.0
576,46.0,0,150,0.0,0.0
577,39.0,0,150,0.0,0.0
578,75.0,160,150,0.0,0.0
579,55.0,160,150,0.0,0.0
580,63.0,0,150,0.0,0.0
581,70.0,160,150,0.0,0.0
582,46.0,0,150,0.0,0.0
583,39.0,160,150,0.0,0.0
584,79.0,0,150,0.0,0.0
585,67.0,160,150,0.0,0.0
586,58.0,0,150,0.0,0.0
587,75.0,160,150,0.0,0.0
588,46.0,0,150,0.0,0.0
589,39.0,0,150,0.0,0.0
590,82.0,160,150,0.0,0.0
591,63.0,0,150,0.0,0.0
592,70.0,160,150,0.0,0.0
593,79.0,160,150,0.0,0.0
594,55.0,0,150,0.0,0.0
595,46.0,0,150,0.0,0.0
596,87.0,160,150,0.0,0.0
597,67.0,0,150,0.0,0.0
598,75.0,160,150,0.0,0.0
599,82.0,160,150,0.0,0.0
600,58.0,0,150,0.0,0.0
601,51.0,160,150,0.0,0.0
602,91.0,0,150,0.0,0.0
603,79.0,160,150,0.0,0.0
604,70.0,0,150,0.0,0.0
605,58.0,160,150,0.0,0.0
606,82.0,0,150,0.0,0.0
607,51.0,160,150,0.0,0.0
608,89.0,0,150,0.0,0.0
609,74.0,160,150,0.0,0.0
610,71.0,0,150,0.0,0.0
611,80.0,160,150,0.0,0.0
612,59.0,0,150,0.0,0.0
613,51.0,160,150,0.0,0.0
614,87.0,0,150,0.0,0.0
615,75.0,160,150,0.0,0.0
616,72.0,0,150,0.0,0.0
617,60.0,0,150,0.0,0.0
618,80.0,160,150,0.0,0.0
619,51.0,0,150,0.0,0.0
620,84.0,160,150,0.0,0.0
621,68.0,0,150,0.0,0.0
622,72.0,160,150,0.0,0.0
623,62.0,0,150,0.0,0.0
624,80.0,160,150,0.0,0.0
625,51.0,160,150,0.0,0.0
626,84.0,0,150,0.0,0.0
627,72.0,0,150,0.0,0.0
628,67.0,160,150,0.0,0.0
629,79.0,0,150,0.0,0.0
630,63.0,160,150,0.0,0.0
631,82.0,160,150,0.0,0.0
632,58.0,0,150,0.0,0.0
633,70.0,0,150,0.0,0.0
634,67.0,160,150,0.0,0.0
635,75.0,0,150,0.0,0.0
636,63.0,160,150,0.0,0.0
637,79.0,0,150,0.0,0.0
638,51.0,160,150,0.0,0.0
639,67.0,0,150,0.0,0.0
640,63.0,160,150,0.0,0.0
641,55.0,0,150,0.0,0.0
642,70.0,160,150,0.0,0.0
643,41.0,0,150,0.0,0.0
644,75.0,160,150,0.0,0.0
645,60.0,160,150,0.0,0.0
646,63.0,0,150,0.0,0.0
647,53.0,0,150,0.0,0.0
648,69.0,160,150,0.0,0.0
649,74.0,160,150,0.0,0.0
650,48.0,0,150,0.0,0.0
651,62.0,160,150,0.0,0.0
652,60.0,0,150,0.0,0.0
653,69.0,160,150,0.0,0.0
654,53.0,0,150,0.0,0.0
655,41.0,160,150,0.0,0.0
656,75.0,0,150,0.0,0.0
657,63.0,160,150,0.0,0.0
658,60.0,0,150,0.0,0.0
659,53.0,0,150,0.0,0.0
660,69.0,160,150,0.0,0.0
661,46.0,0,150,0.0,0.0
662,79.0,160,150,0.0,0.0
663,67.0,0,150,0.0,0.0
664,63.0,160,150,0.0,0.0
665,70.0,0,150,0.0,0.0
666,53.0,160,150,0.0,0.0
667,77.0,0,150,0.0,0.0
668,50.0,160,150,0.0,0.0
669,65.0,160,150,0.0,0.0
670,62.0,0,150,0.0,0.0
671,53.0,0,150,0.0,0.0
672,70.0,160,150,0.0,0.0
673,46.0,0,150,0.0,0.0
674,74.0,160,150,0.0,0.0
675,58.0,160,150,0.0,0.0
676,62.0,0,150,0.0,0.0
677,65.0,160,150,0.0,0.0
678,53.0,0,150,0.0,0.0
679,41.0,0,150,0.0,0.0
680,75.0,160,150,0.0,0.0
681,63.0,0,150,0.0,0.0
682,60.0,160,150,0.0,0.0
683,53.0,0,150,0.0,0.0
684,69.0,160,150,0.0,0.0
685,48.0,160,150,0.0,0.0
686,74.0,0,150,0.0,0.0
687,62.0,0,150,0.0,0.0
688,59.0,160,150,0.0,0.0
689,69.0,0,150,0.0,0.0
690,53.0,160,150,0.0,0.0
691,75.0,0,150,0.0,0.0
692,41.0,160,150,0.0,0.0
693,60.0,0,150,0.0,0.0
694,63.0,160,150,0.0,0.0
695,53.0,0,150,0.0,0.0
696,69.0,160,150,0.0,0.0
697,79.0,160,150,0.0,0.0
698,46.0,0,150,0.0,0.0
699,63.0,160,150,0.0,0.0
700,67.0,0,150,0.0,0.0
701,56.0,0,150,0.0,0.0
702,72.0,160,150,0.0,0.0
703,77.0,160,150,0.0,0.0
704,53.0,0,150,0.0,0.0
705,62.0,0,150,0.0,0.0
706,65.0,160,150,0.0,0.0
707,53.0,0,150,0.0,0.0
708,68.0,160,150,0.0,0.0
709,72.0,0,150,0.0,0.0
710,46.0,160,150,0.0,0.0
711,60.0,0,150,0.0,0.0
712,56.0,160,150,0.0,0.0
713,50.0,0,150,0.0,0.0
714,65.0,160,150,0.0,0.0
715,39.0,160,150,0.0,0.0
716,70.0,0,150,0.0,0.0
717,55.0,160,150,0.0,0.0
718,58.0,0,150,0.0,0.0
719,67.0,160,150,0.0,0.0
720,46.0,0,150,0.0,0.0
721,39.0,0,150,0.0,0.0
722,75.0,160,150,0.0,0.0
723,55.0,160,150,0.0,0.0
724,63.0,0,150,0.0,0.0
725,70.0,0,150,0.0,0.0
726,46.0,160,150,0.0,0.0
727,39.0,0,150,0.0,0.0
728,79.0,160,150,0.0,0.0
729,58.0,160,150,0.0,0.0
730,67.0,0,150,0.0,0.0
731,75.0,0,150,0.0,0.0
732,46.0,160,150,0.0,0.0
733,82.0,0,150,0.0,0.0
734,39.0,160,150,0.0,0.0
735,70.0,160,150,0.0,0.0
736,63.0,0,150,0.0,0.0
737,55.0,0,150,0.0,0.0
738,79.0,160,150,0.0,0.0
739,46.0,160,150,0.0,0.0
740,87.0,0,150,0.0,0.0
741,75.0,160,150,0.0,0.0
742,67.0,0,150,0.0,0.0
743,58.0,160,150,0.0,0.0
744,82.0,0,150,0.0,0.0
745,51.0,0,150,0.0,0.0
746,91.0,160,150,0.0,0.0
747,70.0,0,150,0.0,0.0
748,79.0,160,150,0.0,0.0
749,58.0,160,150,0.0,0.0
750,82.0,0,150,0.0,0.0
751,90.0,0,150,0.0,0.0
752,45.0,160,150,0.0,0.0
753,60.0,0,150,0.0,0.0
754,75.0,160,150,0.0,0.0
755,81.0,160,150,0.0,0.0
756,54.0,0,150,0.0,0.0
757,47.0,0,150,0.0,0.0
758,89.0,160,150,0.0,0.0
759,62.0,160,150,0.0,0.0
760,74.0,0,150,0.0,0.0
761,80.0,0,150,0.0,0.0
762,56.0,160,150,0.0,0.0
763,88.0,0,150,0.0,0.0
764,49.0,160,150,0.0,0.0
765,64.0,0,150,0.0,0.0
766,73.0,160,150,0.0,0.0
767,79.0,0,150,0.0,0.0
768,58.0,160,150,0.0,0.0
769,87.0,0,150,0.0,0.0
770,51.0,160,150,0.0,0.0
771,66.0,0,150,0.0,0.0
772,72.0,160,150,0.0,0.0
773,60.0,160,150,0.0,0.0
774,78.0,0,150,0.0,0.0
775,53.0,0,150,0.0,0.0
776,86.0,160,150,0.0,0.0
777,68.0,0,150,0.0,0.0
778,71.0,160,150,0.0,0.0
779,62.0,0,150,0.0,0.0
780,77.0,160,150,0.0,0.0
781,85.0,0,150,0.0,0.0
782,55.0,160,150,0.0,0.0
783,73.0,0,150,0.0,0.0
784,70.0,160,150,0.0,0.0
785,64.0,160,150,0.0,0.0
786,79.0,0,150,0.0,0.0
787,84.0,160,150,0.0,0.0
788,56.0,0,150,0.0,0.0
789,72.0,0,150,0.0,0.0
790,68.0,160,150,0.0,0.0
791,65.0,160,150,0.0,0.0
792,77.0,0,150,0.0,0.0
793,86.0,0,150,0.0,0.0
794,60.0,160,150,0.0,0.0
795,68.0,0,150,0.0,0.0
796,72.0,160,150,0.0,0.0
797,65.0,160,150,0.0,0.0
798,77.0,0,150,0.0,0.0
799,56.0,0,150,0.0,0.0
800,87.0,160,150,0.0,0.0
801,72.0,0,150,0.0,0.0
802,68.0,160,150,0.0,0.0
803,65.0,160,150,0.0,0.0
804,77.0,0,150,0.0,0.0
805,53.0,0,150,0.0,0.0
806,89.0,160,150,0.0,0.0
807,75.0,0,150,0.0,0.0
808,77.0,160,150,0.0,0.0
809,68.0,0,150,0.0,0.0
810,84.0,160,150,0.0,0.0
811,91.0,0,150,0.0,0.0
812,63.0,160,150,0.0,0.0
813,75.0,160,150,0.0,0.0
814,79.0,0,150,0.0,0.0
815,84.0,160,150,0.0,0.0
816,68.0,0,150,0.0,0.0
817,89.0,0,150,0.0,0.0
818,56.0,160,150,0.0,0.0
819,77.0,0,150,0.0,0.0
820,75.0,160,150,0.0,0.0
821,80.0,0,150,0.0,0.0
822,68.0,160,150,0.0,0.0
823,84.0,0,150,0.0,0.0
824,44.0,160,150,0.0,0.0
825,72.0,160,150,0.0,0.0
826,68.0,0,150,0.0,0.0
827,65.0,160,150,0.0,0.0
828,77.0,0,150,0.0,0.0
829,86.0,160,150,0.0,0.0
830,60.0,0,150,0.0,0.0
831,68.0,0,150,0.0,0.0
832,74.0,160,150,0.0,0.0
833,65.0,0,150,0.0,0.0
834,77.0,160,150,0.0,0.0
835,53.0,0,150,0.0,0.0
836,84.0,160,150,0.0,0.0
837,68.0,0,150,0.0,0.0
838,72.0,160,150,0.0,0.0
839,63.0,0,150,0.0,0.0
840,77.0,160,150,0.0,0.0
841,46.0,0,150,0.0,0.0
842,77.0,160,150,0.0,0.0
843,63.0,160,150,0.0,0.0
844,65.0,0,150,0.0,0.0
845,72.0,0,150,0.0,0.0
846,56.0,160,150,0.0,0.0
847,79.0,160,150,0.0,0.0
848,53.0,0,150,0.0,0.0
849,62.0,0,150,0.0,0.0
850,65.0,160,150,0.0,0.0
851,72.0,0,150,0.0,0.0
852,56.0,160,150,0.0,0.0
853,46.0,160,150,0.0,0.0
854,74.0,0,150,0.0,0.0
855,62.0,0,150,0.0,0.0
856,58.0,160,150,0.0,0.0
857,70.0,160,150,0.0,0.0
858,56.0,0,150,0.0,0.0
859,75.0,0,150,0.0,0.0
860,39.0,160,150,0.0,0.0
861,63.0,160,150,0.0,0.0
862,55.0,0,150,0.0,0.0
863,46.0,0,150,0.0,0.0
864,70.0,160,150,0.0,0.0
865,39.0,160,150,0.0,0.0
866,82.0,0,150,0.0,0.0
867,67.0,160,150,0.0,0.0
868,58.0,0,150,0.0,0.0
869,46.0,160,150,0.0,0.0
870,75.0,0,150,0.0,0.0
871,83.0,0,150,0.0,0.0
872,39.0,160,150,0.0,0.0
873,67.0,0,150,0.0,0.0
874,58.0,160,150,0.0,0.0
875,75.0,160,150,0.0,0.0
876,46.0,0,150,0.0,0.0
877,39.0,0,150,0.0,0.0
878,82.0,160,150,0.0,0.0
879,68.0,0,150,0.0,0.0
880,56.0,160,150,0.0,0.0
881,46.0,160,150,0.0,0.0
882,74.0,0,150,0.0,0.0
883,81.0,0,150,0.0,0.0
884,39.0,160,150,0.0,0.0
885,68.0,0,150,0.0,0.0
886,58.0,160,150,0.0,0.0
887,74.0,160,150,0.0,0.0
888,46.0,0,150,0.0,0.0
889,39.0,160,150,0.0,0.0
890,80.0,0,150,0.0,0.0
891,68.0,0,150,0.0,0.0
892,58.0,160,150,0.0,0.0
893,46.0,0,150,0.0,0.0
894,74.0,160,150,0.0,0.0
895,39.0,0,150,0.0,0.0
896,79.0,160,150,0.0,0.0
897,58.0,0,150,0.0,0.0
898,67.0,160,150,0.0,0.0
899,75.0,0,150,0.0,0.0
900,46.0,160,150,0.0,0.0
901,82.0,160,150,0.0,0.0
902,39.0,0,150,0.0,0.0
903,67.0,160,150,0.0,0.0
904,58.0,0,150,0.0,0.0
905,46.0,0,150,0.0,0.0
906,75.0,160,150,0.0,0.0
907,39.0,0,150,0.0,0.0
908,84.0,160,150,0.0,0.0
909,58.0,0,150,0.0,0.0
910,67.0,160,150,0.0,0.0
911,46.0,160,150,0.0,0.0
912,75.0,0,150,0.0,0.0
913,82.0,0,150,0.0,0.0
914,39.0,160,150,0.0,0.0
915,68.0,0,150,0.0,0.0
916,56.0,160,150,0.0,0.0
917,74.0,0,150,0.0,0.0
918,46.0,160,150,0.0,0.0
919,39.0,160,150,0.0,0.0
920,81.0,0,150,0.0,0.0
921,68.0,160,150,0.0,0.0
922,58.0,0,150,0.0,0.0
923,74.0,0,150,0.0,0.0
924,46.0,160,150,0.0,0.0
925,80.0,0,150,0.0,0.0
926,39.0,160,150,0.0,0.0
927,68.0,0,150,0.0,0.0
928,58.0,160,150,0.0,0.0
929,74.0,0,150,0.0,0.0
930,46.0,160,150,0.0,0.0
931,79.0,0,150,0.0,0.0
932,39.0,160,150,0.0,0.0
933,67.0,160,150,0.0,0.0
934,58.0,0,150,0.0,0.0
935,75.0,160,150,0.0,0.0
936,46.0,0,150,0.0,0.0
937,39.0,0,150,0.0,0.0
938,82.0,160,150,0.0,0.0
939,58.0,0,150,0.0,0.0
940,67.0,160,150,0.0,0.0
941,79.0,0,150,0.0,0.0
942,46.0,160,150,0.0,0.0
943,87.0,0,150,0.0,0.0
944,43.0,160,150,0.0,0.0
945,75.0,0,150,0.0,0.0
946,58.0,160,150,0.0,0.0
947,82.0,160,150,0.0,0.0
948,51.0,0,150,0.0,0.0
949,91.0,160,150,0.0,0.0
950,43.0,0,150,0.0,0.0
951,65.0,160,150,0.0,0.0
952,74.0,0,150,0.0,0.0
953,83.0,0,150,0.0,0.0
954,59.0,160,150,0.0,0.0
955,89.0,0,150,0.0,0.0
956,50.0,160,150,0.0,0.0
957,74.0,0,150,0.0,0.0
958,65.0,160,150,0.0,0.0
959,79.0,160,150,0.0,0.0
960,59.0,0,150,0.0,0.0
961,48.0,160,150,0.0,0.0
962,87.0,0,150,0.0,0.0
963,63.0,160,150,0.0,0.0
964,72.0,0,150,0.0,0.0
965,79.0,160,150,0.0,0.0
966,55.0,0,150,0.0,0.0
967,87.0,160,150,0.0,0.0
968,45.0,0,150,0.0,0.0
969,63.0,0,150,0.0,0.0
970,72.0,160,150,0.0,0.0
971,78.0,0,150,0.0,0.0
972,54.0,160,150,0.0,0.0
973,86.0,0,150,0.0,0.0
974,51.0,160,150,0.0,0.0
975,63.0,0,150,0.0,0.0
976,71.0,160,150,0.0,0.0
977,54.0,160,150,0.0,0.0
978,78.0,0,150,0.0,0.0
979,84.0,0,150,0.0,0.0
980,44.0,160,150,0.0,0.0
981,72.0,0,150,0.0,0.0
982,63.0,160,150,0.0,0.0
983,78.0,0,150,0.0,0.0
984,54.0,160,150,0.0,0.0
985,84.0,0,150,0.0,0.0
986,46.0,160,150,0.0,0.0
987,68.0,0,150,0.0,0.0
988,62.0,160,150,0.0,0.0
989,56.0,160,150,0.0,0.0
990,77.0,0,150,0.0,0.0
991,53.0,160,150,0.0,0.0
992,82.0,0,150,0.0,0.0
993,67.0,160,150,0.0,0.0
994,62.0,0,150,0.0,0.0
995,72.0,160,150,0.0,0.0
996,56.0,0,150,0.0,0.0
997,80.0,0,150,0.0,0.0
998,46.0,160,150,0.0,0.0
999,65.0,160,150,0.0,0.0
1000,58.0,0,150,0.0,0.0
1001,74.0,0,150,0.0,0.0
1002,56.0,160,150,0.0,0.0
1003,79.0,0,150,0.0,0.0
1004,39.0,160,150,0.0,0.0
1005,55.0,0,150,0.0,0.0
1006,63.0,160,150,0.0,0.0
1007,46.0,0,150,0.0,0.0
1008,75.0,160,150,0.0,0.0
1009,82.0,0,150,0.0,0.0
1010,39.0,160,150,0.0,0.0
1011,58.0,160,150,0.0,0.0
1012,67.0,0,150,0.0,0.0
1013,75.0,160,150,0.0,0.0
1014,46.0,0,150,0.0,0.0
1015,39.0,160,150,0.0,0.0
1016,83.0,0,150,0.0,0.0
1017,67.0,160,150,0.0,0.0
1018,58.0,0,150,0.0,0.0
1019,46.0,0,150,0.0,0.0
1020,75.0,160,150,0.0,0.0
1021,82.0,160,150,0.0,0.0
1022,39.0,0,150,0.0,0.0
1023,68.0,160,150,0.0,0.0
1024,56.0,0,150,0.0,0.0
1025,46.0,160,150,0.0,0.0
1026,74.0,0,150,0.0,0.0
1027,39.0,0,150,0.0,0.0
1028,81.0,160,150,0.0,0.0
1029,58.0,0,150,0.0,0.0
1030,68.0,160,150,0.0,0.0
1031,46.0,160,150,0.0,0.0
1032,74.0,0,150,0.0,0.0
1033,80.0,160,150,0.0,0.0
1034,39.0,0,150,0.0,0.0
1035,58.0,0,150,0.0,0.0
1036,68.0,160,150,0.0,0.0
1037,46.0,160,150,0.0,0.0
1038,74.0,0,150,0.0,0.0
1039,39.0,0,150,0.0,0.0
1040,79.0,160,150,0.0,0.0
1041,58.0,0,150,0.0,0.0
1042,67.0,160,150,0.0,0.0
1043,75.0,0,150,0.0,0.0
1044,46.0,160,150,0.0,0.0
1045,82.0,0,150,0.0,0.0
1046,39.0,160,150,0.0,0.0
1047,67.0,160,150,0.0,0.0
1048,58.0,0,150,0.0,0.0
1049,46.0,160,150,0.0,0.0
1050,75.0,0,150,0.0,0.0
1051,39.0,160,150,0.0,0.0
1052,84.0,0,150,0.0,0.0
1053,67.0,160,150,0.0,0.0
1054,58.0,0,150,0.0,0.0
1055,46.0,160,150,0.0,0.0
1056,75.0,0,150,0.0,0.0
1057,39.0,160,150,0.0,0.0
1058,82.0,0,150,0.0,0.0
1059,68.0,0,150,0.0,0.0
1060,56.0,160,150,0.0,0.0
1061,74.0,0,150,0.0,0.0
1062,46.0,160,150,0.0,0.0
1063,81.0,0,150,0.0,0.0
1064,39.0,160,150,0.0,0.0
1065,68.0,160,150,0.0,0.0
1066,58.0,0,150,0.0,0.0
1067,46.0,0,150,0.0,0.0
1068,74.0,160,150,0.0,0.0
1069,80.0,160,150,0.0,0.0
1070,39.0,0,150,0.0,0.0
1071,68.0,0,150,0.0,0.0
1072,58.0,160,150,0.0,0.0
1073,74.0,0,150,0.0,0.0
1074,46.0,160,150,0.0,0.0
1075,79.0,160,150,0.0,0.0
1076,39.0,0,150,0.0,0.0
1077,67.0,0,150,0.0,0.0
1078,58.0,160,150,0.0,0.0
1079,75.0,160,150,0.0,0.0
1080,46.0,0,150,0.0,0.0
1081,82.0,0,150,0.0,0.0
1082,39.0,160,150,0.0,0.0
1083,58.0,0,150,0.0,0.0
1084,70.0,160,150,0.0,0.0
1085,79.0,160,150,0.0,0.0
1086,46.0,0,150,0.0,0.0
1087,39.0,160,150,0.0,0.0
1088,87.0,0,150,0.0,0.0
1089,58.0,0,150,0.0,0.0
1090,75.0,160,150,0.0,0.0
1091,51.0,0,150,0.0,0.0
1092,82.0,160,150,0.0,0.0
1093,91.0,160,150,0.0,0.0
1094,31.0,0,150,0.0,0.0
1095,74.0,0,150,0.0,0.0
1096,59.0,160,150,0.0,0.0
1097,83.0,160,150,0.0,0.0
1098,53.0,0,150,0.0,0.0
1099,43.0,160,150,0.0,0.0
1100,89.0,0,150,0.0,0.0
1101,59.0,0,150,0.0,0.0
1102,74.0,160,150,0.0,0.0
1103,53.0,0,150,0.0,0.0
1104,83.0,160,150,0.0,0.0
1105,88.0,0,150,0.0,0.0
1106,44.0,160,150,0.0,0.0
1107,74.0,160,150,0.0,0.0
1108,59.0,0,150,0.0,0.0
1109,52.0,0,150,0.0,0.0
1110,83.0,160,150,0.0,0.0
1111,88.0,0,150,0.0,0.0
1112,45.0,160,150,0.0,0.0
1113,73.0,160,150,0.0,0.0
1114,61.0,0,150,0.0,0.0
1115,81.0,160,150,0.0,0.0
1116,52.0,0,150,0.0,0.0
1117,45.0,160,150,0.0,0.0
1118,87.0,0,150,0.0,0.0
1119,72.0,0,150,0.0,0.0
1120,60.0,160,150,0.0,0.0
1121,53.0,0,150,0.0,0.0
1122,81.0,160,150,0.0,0.0
1123,84.0,0,150,0.0,0.0
1124,45.0,160,150,0.0,0.0
1125,69.0,160,150,0.0,0.0
1126,63.0,0,150,0.0,0.0
1127,54.0,0,150,0.0,0.0
1128,75.0,160,150,0.0,0.0
1129,46.0,160,150,0.0,0.0
1130,84.0,0,150,0.0,0.0
1131,69.0,0,150,0.0,0.0
1132,63.0,160,150,0.0,0.0
1133,75.0,160,150,0.0,0.0
1134,54.0,0,150,0.0,0.0
1135,46.0,160,150,0.0,0.0
1136,82.0,0,150,0.0,0.0
1137,70.0,0,150,0.0,0.0
1138,63.0,160,150,0.0,0.0
1139,75.0,160,150,0.0,0.0
1140,55.0,0,150,0.0,0.0
1141,34.0,160,150,0.0,0.0
1142,74.0,0,150,0.0,0.0
1143,56.0,160,150,0.0,0.0
1144,62.0,0,150,0.0,0.0
1145,70.0,0,150,0.0,0.0
1146,46.0,160,150,0.0,0.0
1147,75.0,160,150,0.0,0.0
1148,39.0,0,150,0.0,0.0
1149,55.0,160,150,0.0,0.0
1150,63.0,0,150,0.0,0.0
1151,46.0,0,150,0.0,0.0
1152,70.0,160,150,0.0,0.0
1153,39.0,160,150,0.0,0.0
1154,82.0,0,150,0.0,0.0
1155,63.0,160,150,0.0,0.0
1156,58.0,0,150,0.0,0.0
1157,70.0,160,150,0.0,0.0
1158,46.0,0,150,0.0,0.0
1159,39.0,0,150,0.0,0.0
1160,75.0,160,150,0.0,0.0
1161,55.0,160,150,0.0,0.0
1162,63.0,0,150,0.0,0.0
1163,70.0,0,150,0.0,0.0
1164,46.0,160,150,0.0,0.0
1165,81.0,160,150,0.0,0.0
1166,39.0,0,150,0.0,0.0
1167,63.0,0,150,0.0,0.0
1168,58.0,160,150,0.0,0.0
1169,70.0,160,150,0.0,0.0
1170,46.0,0,150,0.0,0.0
1171,75.0,0,150,0.0,0.0
1172,39.0,160,150,0.0,0.0
1173,55.0,0,150,0.0,0.0
1174,63.0,160,150,0.0,0.0
1175,70.0,160,150,0.0,0.0
1176,46.0,0,150,0.0,0.0
1177,80.0,0,150,0.0,0.0
1178,39.0,160,150,0.0,0.0
1179,63.0,0,150,0.0,0.0
1180,58.0,160,150,0.0,0.0
1181,70.0,160,150,0.0,0.0
1182,46.0,0,150,0.0,0.0
1183,39.0,160,150,0.0,0.0
1184,75.0,0,150,0.0,0.0
1185,63.0,0,150,0.0,0.0
1186,55.0,160,150,0.0,0.0
1187,70.0,160,150,0.0,0.0
1188,46.0,0,150,0.0,0.0
1189,39.0,160,150,0.0,0.0
1190,79.0,0,150,0.0,0.0
1191,63.0,0,150,0.0,0.0
1192,58.0,160,150,0.0,0.0
1193,70.0,0,150,0.0,0.0
1194,46.0,160,150,0.0,0.0
1195,39.0,160,150,0.0,0.0
1196,75.0,0,150,0.0,0.0
1197,55.0,160,150,0.0,0.0
1198,63.0,0,150,0.0,0.0
1199,70.0,160,150,0.0,0.0
1200,46.0,0,150,0.0,0.0
1201,39.0,0,150,0.0,0.0
1202,78.0,160,150,0.0,0.0
1203,58.0,0,150,0.0,0.0
1204,63.0,160,150,0.0,0.0
1205,70.0,0,150,0.0,0.0
1206,46.0,160,150,0.0,0.0
1207,75.0,0,150,0.0,0.0
1208,39.0,160,150,0.0,0.0
1209,63.0,160,150,0.0,0.0
1210,55.0,0,150,0.0,0.0
1211,46.0,160,150,0.0,0.0
1212,70.0,0,150,0.0,0.0
1213,79.0,160,150,0.0,0.0
1214,39.0,0,150,0.0,0.0
1215,63.0,160,150,0.0,0.0
1216,58.0,0,150,0.0,0.0
1217,46.0,480,150,0.0,0.0
1218,70.0,0,150,0.0,0.0
1219,75.0,0,480,0.0,0.0
1220,39.0,1440,480,0.0,0.0
1221,67.0,0,480,0.0,0.0
1222,70.0,0,480,0.0,0.0
1223,75.0,0,480,0.0,0.0
1224,79.0,2400,480,0.0,0.0
1225,99.0,0,480,0.0,0.0
1226,87.0,0,480,0.0,0.0
1227,94.0,0,480,0.0,0.0
1228,39.0,0,1440,0.0,0.0
1229,46.0,0,1440,0.0,0.0
1230,51.0,0,1440,0.0,0.0
1231,63.0,0,1440,0.0,0.0
1232,58.0,1440,1440,0.0,0.0
1233,55.0,0,1440,0.0,0.0
1234,67.0,0,1440,0.0,0.0
