,note,step,duration,channel,velocity
0,49.0,0,1680,0.0,90.0
1,37.0,0,1680,0.0,76.0
2,40.0,0,240,0.0,90.0
3,28.0,0,0,0.0,76.0
4,56.0,0,960,0.0,76.0
5,61.0,960,960,0.0,90.0
6,49.0,960,0,0.0,72.0
7,40.0,240,1920,0.0,90.0
8,49.0,120,0,0.0,65.0
9,61.0,0,1440,0.0,85.0
10,60.0,0,1920,0.0,64.0
11,57.0,120,3480,0.0,81.0
12,41.0,0,3360,0.0,85.0
13,51.0,120,3600,0.0,79.0
14,48.0,1440,1920,0.0,64.0
15,29.0,120,3360,0.0,85.0
16,46.0,1920,120,0.0,52.0
17,34.0,0,120,0.0,44.0
18,53.0,120,120,0.0,29.0
19,49.0,0,120,0.0,22.0
20,58.0,120,120,0.0,22.0
21,61.0,0,120,0.0,26.0
22,41.0,120,120,0.0,33.0
23,46.0,0,120,0.0,29.0
24,34.0,120,120,0.0,25.0
25,53.0,120,120,0.0,29.0
26,58.0,0,120,0.0,23.0
27,49.0,120,120,0.0,23.0
28,61.0,0,120,0.0,27.0
29,41.0,120,120,0.0,35.0
30,46.0,0,120,0.0,33.0
31,34.0,120,120,0.0,27.0
32,53.0,120,120,0.0,30.0
33,58.0,0,120,0.0,24.0
34,49.0,120,120,0.0,24.0
35,61.0,0,120,0.0,29.0
36,41.0,120,120,0.0,35.0
37,34.0,120,120,0.0,28.0
38,46.0,0,120,0.0,34.0
39,53.0,120,120,0.0,35.0
40,58.0,0,120,0.0,26.0
41,61.0,0,120,0.0,31.0
42,49.0,120,120,0.0,26.0
43,41.0,120,120,0.0,39.0
44,46.0,120,120,0.0,38.0
45,34.0,0,120,0.0,30.0
46,53.0,120,120,0.0,35.0
47,58.0,0,120,0.0,28.0
48,49.0,0,120,0.0,28.0
49,61.0,120,120,0.0,34.0
50,41.0,120,120,0.0,39.0
51,46.0,120,120,0.0,35.0
52,34.0,0,120,0.0,29.0
53,53.0,120,120,0.0,34.0
54,61.0,0,120,0.0,30.0
55,49.0,0,120,0.0,25.0
56,58.0,120,120,0.0,25.0
57,41.0,120,120,0.0,36.0
58,46.0,120,120,0.0,33.0
59,34.0,0,120,0.0,27.0
60,53.0,120,120,0.0,30.0
61,49.0,120,120,0.0,24.0
62,61.0,0,120,0.0,29.0
63,58.0,0,120,0.0,24.0
64,41.0,120,120,0.0,35.0
65,34.0,0,120,0.0,25.0
66,46.0,120,120,0.0,29.0
67,53.0,120,120,0.0,29.0
68,58.0,120,120,0.0,24.0
69,61.0,0,120,0.0,28.0
70,49.0,0,120,0.0,24.0
71,53.0,120,120,0.0,33.0
72,73.0,120,120,0.0,54.0
73,46.0,0,120,0.0,35.0
74,70.0,120,60,0.0,51.0
75,53.0,0,120,0.0,34.0
76,58.0,0,120,0.0,30.0
77,61.0,120,120,0.0,30.0
78,53.0,120,120,0.0,31.0
79,72.0,0,120,0.0,51.0
80,73.0,0,120,0.0,54.0
81,46.0,120,120,0.0,35.0
82,70.0,0,60,0.0,51.0
83,53.0,120,120,0.0,33.0
84,58.0,0,120,0.0,31.0
85,61.0,120,120,0.0,31.0
86,53.0,120,120,0.0,31.0
87,73.0,120,120,0.0,54.0
88,46.0,0,120,0.0,35.0
89,70.0,120,60,0.0,51.0
90,53.0,0,120,0.0,34.0
91,61.0,0,120,0.0,31.0
92,58.0,120,120,0.0,31.0
93,72.0,120,120,0.0,51.0
94,53.0,0,120,0.0,31.0
95,73.0,0,120,0.0,54.0
96,46.0,120,120,0.0,35.0
97,70.0,120,60,0.0,51.0
98,53.0,0,120,0.0,33.0
99,61.0,120,120,0.0,31.0
100,58.0,0,120,0.0,31.0
101,53.0,120,120,0.0,31.0
102,46.0,120,120,0.0,35.0
103,73.0,0,120,0.0,54.0
104,70.0,120,60,0.0,51.0
105,53.0,0,120,0.0,33.0
106,61.0,120,120,0.0,31.0
107,58.0,0,120,0.0,31.0
108,72.0,0,120,0.0,61.0
109,53.0,120,120,0.0,33.0
110,46.0,0,120,0.0,37.0
111,73.0,120,120,0.0,66.0
112,82.0,120,60,0.0,64.0
113,53.0,0,120,0.0,35.0
114,58.0,120,120,0.0,34.0
115,61.0,0,120,0.0,34.0
116,53.0,120,120,0.0,34.0
117,48.0,120,120,0.0,35.0
118,81.0,0,120,0.0,61.0
119,72.0,0,60,0.0,57.0
120,54.0,120,120,0.0,34.0
121,57.0,120,120,0.0,30.0
122,63.0,0,120,0.0,30.0
123,54.0,120,120,0.0,31.0
124,73.0,0,120,0.0,49.0
125,48.0,0,120,0.0,35.0
126,75.0,120,120,0.0,52.0
127,72.0,120,60,0.0,49.0
128,54.0,0,120,0.0,33.0
129,57.0,0,120,0.0,31.0
130,63.0,120,120,0.0,31.0
131,54.0,120,120,0.0,31.0
132,48.0,0,120,0.0,35.0
133,78.0,120,120,0.0,55.0
134,72.0,0,60,0.0,49.0
135,51.0,120,120,0.0,34.0
136,63.0,120,120,0.0,30.0
137,57.0,0,120,0.0,30.0
138,51.0,0,120,0.0,31.0
139,73.0,120,120,0.0,49.0
140,48.0,0,120,0.0,35.0
141,75.0,120,120,0.0,52.0
142,72.0,0,60,0.0,49.0
143,54.0,120,120,0.0,33.0
144,57.0,120,120,0.0,31.0
145,63.0,0,120,0.0,31.0
146,54.0,120,120,0.0,31.0
147,78.0,120,120,0.0,55.0
148,48.0,0,120,0.0,35.0
149,72.0,120,60,0.0,49.0
150,51.0,0,120,0.0,34.0
151,57.0,0,120,0.0,30.0
152,63.0,120,120,0.0,30.0
153,73.0,0,120,0.0,49.0
154,51.0,120,120,0.0,31.0
155,48.0,0,120,0.0,35.0
156,75.0,120,120,0.0,52.0
157,72.0,0,60,0.0,49.0
158,54.0,120,120,0.0,33.0
159,63.0,120,120,0.0,31.0
160,57.0,0,120,0.0,31.0
161,54.0,120,120,0.0,31.0
162,78.0,120,120,0.0,58.0
163,48.0,0,120,0.0,35.0
164,72.0,120,60,0.0,51.0
165,51.0,0,120,0.0,35.0
166,57.0,120,120,0.0,34.0
167,63.0,0,120,0.0,34.0
168,51.0,120,120,0.0,35.0
169,73.0,0,120,0.0,65.0
170,75.0,0,120,0.0,71.0
171,48.0,120,120,0.0,39.0
172,84.0,0,60,0.0,64.0
173,54.0,120,120,0.0,37.0
174,63.0,120,120,0.0,37.0
175,57.0,0,120,0.0,37.0
176,54.0,120,120,0.0,38.0
177,49.0,0,120,0.0,35.0
178,73.0,0,60,0.0,57.0
179,53.0,120,120,0.0,34.0
180,84.0,120,240,0.0,61.0
181,65.0,120,120,0.0,30.0
182,57.0,0,120,0.0,30.0
183,75.0,0,120,0.0,49.0
184,53.0,120,120,0.0,31.0
185,77.0,0,120,0.0,52.0
186,49.0,0,120,0.0,35.0
187,73.0,0,60,0.0,49.0
188,53.0,120,120,0.0,33.0
189,82.0,120,240,0.0,52.0
190,58.0,0,120,0.0,31.0
191,65.0,120,120,0.0,31.0
192,53.0,120,120,0.0,31.0
193,52.0,120,120,0.0,56.0
194,85.0,0,120,0.0,82.0
195,73.0,0,120,0.0,69.0
196,79.0,0,60,0.0,63.0
197,84.0,0,60,0.0,75.0
198,61.0,120,120,0.0,53.0
199,67.0,120,120,0.0,50.0
200,52.0,0,120,0.0,51.0
201,82.0,0,120,0.0,72.0
202,73.0,120,120,0.0,61.0
203,53.0,120,120,0.0,56.0
204,77.0,0,120,0.0,64.0
205,81.0,0,120,0.0,78.0
206,84.0,0,60,0.0,68.0
207,72.0,0,60,0.0,57.0
208,60.0,120,120,0.0,52.0
209,69.0,120,120,0.0,58.0
210,53.0,120,120,0.0,51.0
211,66.0,0,120,0.0,46.0
212,45.0,0,120,0.0,33.0
213,78.0,120,120,0.0,55.0
214,77.0,0,60,0.0,50.0
215,72.0,0,60,0.0,42.0
216,54.0,120,120,0.0,30.0
217,63.0,120,120,0.0,29.0
218,45.0,0,120,0.0,29.0
219,66.0,120,120,0.0,40.0
220,75.0,0,120,0.0,49.0
221,46.0,120,120,0.0,33.0
222,70.0,0,120,0.0,44.0
223,73.0,0,120,0.0,52.0
224,77.0,0,60,0.0,49.0
225,65.0,0,60,0.0,40.0
226,53.0,120,120,0.0,30.0
227,61.0,120,120,0.0,29.0
228,46.0,120,120,0.0,29.0
229,73.0,0,120,0.0,69.0
230,85.0,120,120,0.0,82.0
231,52.0,0,120,0.0,56.0
232,79.0,120,60,0.0,63.0
233,84.0,0,60,0.0,75.0
234,61.0,0,120,0.0,53.0
235,67.0,120,120,0.0,50.0
236,52.0,0,120,0.0,51.0
237,82.0,0,120,0.0,72.0
238,73.0,120,120,0.0,61.0
239,81.0,0,120,0.0,78.0
240,77.0,0,120,0.0,64.0
241,53.0,120,120,0.0,56.0
242,72.0,120,60,0.0,57.0
243,84.0,0,60,0.0,68.0
244,60.0,0,120,0.0,52.0
245,69.0,120,120,0.0,58.0
246,53.0,120,120,0.0,51.0
247,45.0,120,120,0.0,33.0
248,78.0,0,120,0.0,55.0
249,66.0,0,120,0.0,46.0
250,72.0,120,60,0.0,42.0
251,77.0,0,60,0.0,50.0
252,54.0,0,120,0.0,30.0
253,63.0,120,120,0.0,29.0
254,45.0,0,120,0.0,29.0
255,75.0,0,120,0.0,49.0
256,66.0,120,120,0.0,40.0
257,70.0,0,120,0.0,44.0
258,74.0,0,120,0.0,52.0
259,46.0,120,120,0.0,33.0
260,65.0,0,60,0.0,40.0
261,73.0,0,60,0.0,40.0
262,77.0,120,60,0.0,49.0
263,53.0,0,120,0.0,30.0
264,61.0,120,120,0.0,29.0
265,46.0,120,120,0.0,29.0
266,43.0,120,120,0.0,56.0
267,82.0,0,120,0.0,75.0
268,77.0,0,120,0.0,75.0
269,89.0,0,120,0.0,89.0
270,88.0,0,60,0.0,83.0
271,76.0,120,60,0.0,70.0
272,48.0,0,120,0.0,53.0
273,49.0,120,120,0.0,50.0
274,58.0,120,120,0.0,49.0
275,73.0,0,120,0.0,62.0
276,85.0,0,120,0.0,72.0
277,43.0,120,120,0.0,52.0
278,76.0,0,120,0.0,68.0
279,84.0,0,120,0.0,80.0
280,72.0,0,120,0.0,68.0
281,70.0,120,60,0.0,62.0
282,82.0,0,60,0.0,75.0
283,48.0,0,120,0.0,49.0
284,49.0,120,120,0.0,49.0
285,58.0,120,120,0.0,49.0
286,43.0,0,120,0.0,47.0
287,82.0,120,120,0.0,80.0
288,70.0,0,120,0.0,68.0
289,76.0,0,60,0.0,61.0
290,80.0,120,60,0.0,73.0
291,48.0,0,120,0.0,45.0
292,49.0,120,120,0.0,42.0
293,67.0,120,120,0.0,57.0
294,58.0,0,120,0.0,44.0
295,79.0,0,120,0.0,68.0
296,75.0,120,120,0.0,59.0
297,78.0,0,120,0.0,69.0
298,45.0,0,120,0.0,49.0
299,72.0,0,60,0.0,64.0
300,66.0,120,60,0.0,55.0
301,50.0,0,120,0.0,44.0
302,51.0,120,120,0.0,46.0
303,60.0,120,120,0.0,44.0
304,68.0,120,120,0.0,57.0
305,80.0,0,120,0.0,68.0
306,47.0,0,120,0.0,47.0
307,79.0,120,60,0.0,62.0
308,74.0,0,60,0.0,52.0
309,52.0,0,120,0.0,45.0
310,53.0,120,120,0.0,42.0
311,65.0,0,120,0.0,51.0
312,77.0,120,120,0.0,61.0
313,62.0,0,120,0.0,44.0
314,75.0,120,120,0.0,63.0
315,72.0,0,120,0.0,53.0
316,48.0,0,120,0.0,49.0
317,67.0,0,60,0.0,52.0
318,63.0,0,60,0.0,44.0
319,54.0,120,120,0.0,39.0
320,55.0,120,120,0.0,40.0
321,63.0,120,120,0.0,39.0
322,75.0,120,120,0.0,67.0
323,72.0,0,120,0.0,57.0
324,46.0,0,120,0.0,52.0
325,63.0,0,60,0.0,49.0
326,66.0,0,60,0.0,59.0
327,53.0,120,120,0.0,45.0
328,54.0,120,120,0.0,41.0
329,63.0,120,120,0.0,42.0
330,75.0,0,120,0.0,62.0
331,72.0,0,120,0.0,53.0
332,45.0,120,120,0.0,52.0
333,63.0,0,60,0.0,46.0
334,65.0,0,60,0.0,56.0
335,52.0,120,120,0.0,41.0
336,53.0,120,120,0.0,42.0
337,63.0,120,120,0.0,41.0
338,46.0,0,120,0.0,51.0
339,73.0,120,120,0.0,68.0
340,65.0,0,120,0.0,40.0
341,61.0,0,120,0.0,40.0
342,70.0,120,120,0.0,59.0
343,53.0,0,120,0.0,44.0
344,58.0,120,120,0.0,47.0
345,72.0,120,120,0.0,67.0
346,41.0,0,120,0.0,48.0
347,73.0,0,120,0.0,68.0
348,46.0,120,120,0.0,51.0
349,65.0,0,120,0.0,40.0
350,61.0,120,120,0.0,40.0
351,70.0,0,120,0.0,60.0
352,53.0,0,120,0.0,43.0
353,58.0,120,120,0.0,48.0
354,41.0,120,120,0.0,48.0
355,46.0,0,120,0.0,51.0
356,73.0,120,120,0.0,68.0
357,70.0,0,120,0.0,60.0
358,53.0,0,120,0.0,44.0
359,61.0,0,120,0.0,40.0
360,65.0,120,120,0.0,40.0
361,58.0,120,120,0.0,48.0
362,41.0,120,120,0.0,48.0
363,72.0,0,120,0.0,68.0
364,46.0,0,120,0.0,51.0
365,73.0,120,120,0.0,68.0
366,65.0,0,120,0.0,40.0
367,61.0,0,120,0.0,40.0
368,70.0,120,120,0.0,60.0
369,53.0,0,120,0.0,43.0
370,58.0,120,120,0.0,48.0
371,41.0,120,120,0.0,48.0
372,46.0,0,120,0.0,51.0
373,73.0,120,120,0.0,68.0
374,53.0,120,120,0.0,49.0
375,70.0,0,120,0.0,67.0
376,65.0,0,120,0.0,46.0
377,61.0,0,120,0.0,46.0
378,58.0,120,120,0.0,48.0
379,72.0,0,120,0.0,73.0
380,41.0,120,120,0.0,49.0
381,46.0,120,120,0.0,54.0
382,73.0,0,120,0.0,84.0
383,70.0,0,120,0.0,52.0
384,53.0,120,120,0.0,51.0
385,82.0,0,120,0.0,76.0
386,77.0,0,120,0.0,52.0
387,61.0,120,120,0.0,50.0
388,49.0,120,120,0.0,50.0
389,81.0,120,120,0.0,76.0
390,48.0,0,120,0.0,51.0
391,54.0,0,120,0.0,44.0
392,69.0,0,120,0.0,46.0
393,72.0,120,120,0.0,67.0
394,63.0,120,120,0.0,47.0
395,48.0,120,120,0.0,48.0
396,73.0,0,120,0.0,67.0
397,54.0,120,120,0.0,51.0
398,75.0,0,120,0.0,68.0
399,66.0,0,120,0.0,40.0
400,72.0,0,120,0.0,60.0
401,69.0,0,120,0.0,40.0
402,57.0,120,120,0.0,43.0
403,63.0,120,120,0.0,48.0
404,48.0,120,120,0.0,48.0
405,51.0,120,120,0.0,51.0
406,78.0,0,120,0.0,71.0
407,66.0,0,120,0.0,40.0
408,72.0,0,120,0.0,59.0
409,57.0,120,120,0.0,44.0
410,69.0,0,120,0.0,40.0
411,63.0,120,120,0.0,47.0
412,73.0,120,120,0.0,67.0
413,48.0,0,120,0.0,48.0
414,54.0,0,120,0.0,51.0
415,75.0,120,120,0.0,68.0
416,72.0,0,120,0.0,60.0
417,69.0,0,120,0.0,40.0
418,66.0,120,120,0.0,40.0
419,57.0,0,120,0.0,43.0
420,63.0,120,120,0.0,48.0
421,48.0,120,120,0.0,48.0
422,51.0,120,120,0.0,51.0
423,78.0,0,120,0.0,71.0
424,57.0,0,120,0.0,44.0
425,66.0,0,120,0.0,40.0
426,69.0,0,120,0.0,40.0
427,72.0,120,120,0.0,59.0
428,63.0,120,120,0.0,47.0
429,73.0,0,120,0.0,67.0
430,48.0,120,120,0.0,48.0
431,54.0,0,120,0.0,51.0
432,75.0,120,120,0.0,68.0
433,57.0,120,120,0.0,43.0
434,66.0,0,120,0.0,40.0
435,72.0,0,120,0.0,60.0
436,69.0,0,120,0.0,40.0
437,63.0,120,120,0.0,48.0
438,48.0,120,120,0.0,48.0
439,51.0,0,120,0.0,52.0
440,78.0,120,120,0.0,74.0
441,69.0,0,120,0.0,42.0
442,72.0,120,120,0.0,63.0
443,57.0,0,120,0.0,46.0
444,66.0,0,120,0.0,42.0
445,63.0,120,120,0.0,50.0
446,48.0,0,120,0.0,51.0
447,73.0,120,120,0.0,78.0
448,75.0,0,120,0.0,88.0
449,54.0,120,120,0.0,57.0
450,84.0,120,120,0.0,78.0
451,57.0,0,120,0.0,54.0
452,72.0,0,120,0.0,54.0
453,78.0,0,120,0.0,54.0
454,63.0,120,120,0.0,54.0
455,48.0,120,120,0.0,55.0
456,49.0,120,120,0.0,51.0
457,84.0,0,120,0.0,73.0
458,72.0,120,120,0.0,50.0
459,57.0,0,120,0.0,50.0
460,73.0,0,120,0.0,72.0
461,65.0,120,120,0.0,47.0
462,53.0,120,120,0.0,48.0
463,75.0,0,120,0.0,64.0
464,58.0,0,120,0.0,51.0
465,77.0,120,120,0.0,69.0
466,61.0,120,120,0.0,49.0
467,73.0,0,120,0.0,44.0
468,82.0,0,120,0.0,69.0
469,70.0,0,120,0.0,44.0
470,65.0,120,120,0.0,48.0
471,49.0,120,120,0.0,48.0
472,85.0,0,120,0.0,85.0
473,52.0,120,120,0.0,61.0
474,61.0,0,120,0.0,59.0
475,73.0,0,120,0.0,71.0
476,79.0,120,120,0.0,71.0
477,84.0,0,120,0.0,84.0
478,67.0,120,120,0.0,55.0
479,52.0,0,120,0.0,57.0
480,82.0,120,120,0.0,80.0
481,81.0,0,120,0.0,86.0
482,53.0,120,120,0.0,61.0
483,84.0,120,120,0.0,80.0
484,72.0,0,120,0.0,67.0
485,77.0,0,120,0.0,67.0
486,60.0,0,120,0.0,58.0
487,69.0,120,120,0.0,57.0
488,53.0,120,120,0.0,57.0
489,78.0,120,120,0.0,67.0
490,45.0,0,120,0.0,48.0
491,54.0,120,120,0.0,44.0
492,66.0,0,120,0.0,55.0
493,77.0,0,120,0.0,66.0
494,72.0,0,120,0.0,55.0
495,63.0,120,120,0.0,44.0
496,45.0,0,120,0.0,44.0
497,75.0,120,120,0.0,64.0
498,46.0,120,120,0.0,48.0
499,74.0,0,120,0.0,69.0
500,65.0,0,120,0.0,53.0
501,70.0,120,120,0.0,53.0
502,77.0,0,120,0.0,64.0
503,73.0,0,120,0.0,53.0
504,53.0,0,120,0.0,44.0
505,61.0,120,120,0.0,44.0
506,46.0,120,120,0.0,44.0
507,85.0,120,120,0.0,85.0
508,52.0,0,120,0.0,61.0
509,79.0,0,120,0.0,71.0
510,61.0,0,120,0.0,59.0
511,73.0,0,120,0.0,71.0
512,84.0,120,120,0.0,84.0
513,67.0,120,120,0.0,55.0
514,52.0,120,120,0.0,57.0
515,82.0,0,120,0.0,80.0
516,53.0,120,120,0.0,61.0
517,81.0,0,120,0.0,86.0
518,60.0,120,120,0.0,58.0
519,72.0,0,120,0.0,67.0
520,84.0,0,120,0.0,80.0
521,77.0,0,120,0.0,67.0
522,69.0,120,120,0.0,57.0
523,53.0,120,120,0.0,57.0
524,83.0,0,120,0.0,84.0
525,50.0,120,120,0.0,61.0
526,71.0,0,120,0.0,65.0
527,77.0,120,120,0.0,65.0
528,59.0,0,120,0.0,58.0
529,82.0,0,120,0.0,77.0
530,65.0,120,120,0.0,55.0
531,50.0,120,120,0.0,55.0
532,80.0,0,120,0.0,80.0
533,51.0,0,120,0.0,61.0
534,79.0,120,120,0.0,86.0
535,78.0,0,120,0.0,63.0
536,70.0,0,120,0.0,63.0
537,82.0,0,120,0.0,75.0
538,58.0,120,120,0.0,57.0
539,66.0,120,120,0.0,55.0
540,51.0,120,120,0.0,55.0
541,39.0,120,120,0.0,69.0
542,81.0,0,240,0.0,99.0
543,46.0,120,120,0.0,59.0
544,69.0,0,240,0.0,83.0
545,58.0,0,120,0.0,71.0
546,82.0,0,240,0.0,79.0
547,70.0,120,240,0.0,66.0
548,46.0,120,120,0.0,59.0
549,41.0,0,120,0.0,69.0
550,81.0,0,240,0.0,89.0
551,69.0,120,240,0.0,75.0
552,78.0,0,720,0.0,83.0
553,46.0,120,120,0.0,59.0
554,58.0,0,120,0.0,69.0
555,70.0,0,240,0.0,66.0
556,77.0,120,0,0.0,78.0
557,82.0,120,240,0.0,79.0
558,46.0,120,120,0.0,59.0
559,42.0,0,120,0.0,69.0
560,69.0,0,240,0.0,78.0
561,81.0,0,240,0.0,92.0
562,46.0,120,120,0.0,59.0
563,58.0,0,120,0.0,68.0
564,70.0,0,240,0.0,67.0
565,82.0,120,240,0.0,80.0
566,46.0,120,120,0.0,59.0
567,43.0,0,120,0.0,68.0
568,81.0,120,240,0.0,89.0
569,69.0,0,240,0.0,74.0
570,75.0,0,480,0.0,67.0
571,51.0,120,120,0.0,59.0
572,63.0,0,120,0.0,68.0
573,51.0,120,120,0.0,59.0
574,73.0,0,240,0.0,67.0
575,70.0,120,240,0.0,67.0
576,82.0,0,240,0.0,80.0
577,58.0,0,120,0.0,68.0
578,73.0,0,120,0.0,100.0
579,61.0,0,120,0.0,79.0
580,66.0,0,120,0.0,84.0
581,44.0,120,120,0.0,52.0
582,51.0,0,120,0.0,57.0
583,56.0,0,120,0.0,56.0
584,72.0,0,120,0.0,86.0
585,66.0,0,120,0.0,73.0
586,51.0,240,120,0.0,46.0
587,60.0,0,120,0.0,65.0
588,44.0,0,120,0.0,39.0
589,34.0,0,240,0.0,38.0
590,46.0,480,240,0.0,46.0
591,66.0,0,0,0.0,56.0
592,61.0,0,240,0.0,56.0
593,70.0,0,0,0.0,68.0
594,56.0,0,240,0.0,56.0
595,35.0,240,480,0.0,41.0
596,47.0,0,480,0.0,49.0
597,62.0,0,480,0.0,58.0
598,66.0,0,0,0.0,62.0
599,56.0,0,0,0.0,53.0
600,48.0,0,360,0.0,46.0
601,36.0,480,360,0.0,39.0
602,68.0,0,360,0.0,62.0
603,63.0,0,360,0.0,53.0
604,53.0,360,120,0.0,49.0
605,53.0,0,960,0.0,41.0
606,61.0,0,0,0.0,41.0
607,68.0,0,960,0.0,49.0
608,37.0,120,960,0.0,31.0
609,65.0,960,480,0.0,49.0
610,56.0,0,480,0.0,41.0
611,49.0,0,1440,0.0,37.0
612,66.0,0,480,0.0,44.0
613,42.0,0,480,0.0,39.0
614,63.0,0,480,0.0,37.0
615,58.0,480,480,0.0,37.0
616,65.0,480,960,0.0,46.0
617,44.0,0,1200,0.0,36.0
618,45.0,240,240,0.0,37.0
619,46.0,240,240,0.0,39.0
620,44.0,240,240,0.0,37.0
621,60.0,0,1920,0.0,37.0
622,54.0,0,1920,0.0,31.0
623,63.0,960,960,0.0,41.0
624,53.0,120,600,0.0,41.0
625,68.0,0,480,0.0,49.0
626,37.0,60,960,0.0,33.0
627,65.0,480,480,0.0,49.0
628,56.0,0,480,0.0,41.0
629,61.0,0,0,0.0,41.0
630,58.0,0,240,0.0,41.0
631,66.0,0,240,0.0,49.0
632,49.0,480,480,0.0,39.0
633,56.0,240,240,0.0,39.0
634,65.0,0,240,0.0,47.0
635,68.0,0,240,0.0,44.0
636,60.0,0,240,0.0,37.0
637,66.0,0,240,0.0,41.0
638,58.0,240,240,0.0,35.0
639,63.0,0,480,0.0,41.0
640,42.0,240,480,0.0,39.0
641,65.0,0,960,0.0,45.0
642,44.0,0,1200,0.0,29.0
643,45.0,240,240,0.0,37.0
644,48.0,240,160,0.0,35.0
645,46.0,160,160,0.0,34.0
646,63.0,960,960,0.0,41.0
647,60.0,0,1920,0.0,36.0
648,54.0,240,1920,0.0,29.0
649,44.0,160,160,0.0,34.0
650,68.0,0,480,0.0,52.0
651,53.0,0,480,0.0,41.0
652,37.0,160,480,0.0,41.0
653,61.0,0,960,0.0,40.0
654,64.0,480,480,0.0,44.0
655,70.0,0,480,0.0,51.0
656,55.0,0,480,0.0,44.0
657,63.0,0,480,0.0,44.0
658,72.0,480,480,0.0,52.0
659,54.0,0,480,0.0,44.0
660,58.0,480,360,0.0,44.0
661,73.0,0,360,0.0,58.0
662,66.0,0,480,0.0,49.0
663,72.0,0,120,0.0,53.0
664,75.0,0,120,0.0,60.0
665,44.0,0,960,0.0,37.0
666,56.0,0,0,0.0,42.0
667,49.0,0,480,0.0,39.0
668,77.0,0,480,0.0,61.0
669,65.0,0,480,0.0,42.0
670,73.0,120,480,0.0,47.0
671,64.0,0,480,0.0,44.0
672,61.0,0,480,0.0,44.0
673,70.0,0,480,0.0,51.0
674,55.0,480,480,0.0,44.0
675,60.0,0,420,0.0,44.0
676,72.0,0,420,0.0,52.0
677,44.0,0,480,0.0,37.0
678,73.0,60,360,0.0,58.0
679,42.0,0,420,0.0,37.0
680,54.0,0,960,0.0,44.0
681,63.0,480,960,0.0,44.0
682,58.0,420,540,0.0,56.0
683,75.0,360,120,0.0,60.0
684,77.0,0,480,0.0,63.0
685,65.0,480,0,0.0,53.0
686,41.0,60,540,0.0,41.0
687,57.0,60,480,0.0,49.0
688,72.0,0,960,0.0,53.0
689,75.0,0,480,0.0,60.0
690,33.0,0,480,0.0,40.0
691,45.0,0,480,0.0,48.0
692,61.0,0,480,0.0,53.0
693,73.0,0,480,0.0,63.0
694,46.0,0,480,0.0,49.0
695,34.0,0,480,0.0,41.0
696,70.0,480,480,0.0,63.0
697,48.0,0,360,0.0,49.0
698,36.0,0,360,0.0,41.0
699,68.0,0,360,0.0,53.0
700,64.0,0,360,0.0,53.0
701,72.0,480,360,0.0,63.0
702,49.0,0,120,0.0,45.0
703,65.0,0,120,0.0,57.0
704,70.0,0,120,0.0,57.0
705,37.0,360,120,0.0,37.0
706,68.0,0,480,0.0,61.0
707,59.0,0,480,0.0,51.0
708,65.0,0,480,0.0,56.0
709,38.0,120,480,0.0,41.0
710,50.0,0,480,0.0,49.0
711,63.0,480,360,0.0,59.0
712,54.0,0,360,0.0,47.0
713,66.0,0,360,0.0,59.0
714,51.0,0,360,0.0,49.0
715,39.0,0,360,0.0,41.0
716,58.0,0,360,0.0,49.0
717,41.0,0,120,0.0,37.0
718,65.0,0,120,0.0,56.0
719,61.0,0,120,0.0,56.0
720,56.0,0,120,0.0,47.0
721,53.0,360,120,0.0,45.0
722,54.0,480,0,0.0,47.0
723,61.0,0,480,0.0,59.0
724,42.0,120,480,0.0,41.0
725,58.0,0,480,0.0,49.0
726,63.0,0,720,0.0,59.0
727,60.0,0,360,0.0,53.0
728,64.0,240,120,0.0,60.0
729,44.0,0,480,0.0,45.0
730,37.0,0,160,0.0,39.0
731,55.0,160,160,0.0,33.0
732,56.0,160,160,0.0,31.0
733,58.0,160,160,0.0,37.0
734,56.0,160,160,0.0,31.0
735,44.0,160,160,0.0,31.0
736,80.0,60,960,0.0,72.0
737,65.0,120,1080,0.0,55.0
738,73.0,60,1020,0.0,60.0
739,49.0,160,160,0.0,39.0
740,55.0,160,160,0.0,35.0
741,68.0,0,480,0.0,49.0
742,73.0,0,480,0.0,49.0
743,77.0,0,480,0.0,60.0
744,56.0,160,160,0.0,35.0
745,58.0,160,160,0.0,37.0
746,68.0,0,240,0.0,39.0
747,65.0,0,240,0.0,34.0
748,56.0,160,160,0.0,33.0
749,78.0,80,240,0.0,55.0
750,75.0,0,240,0.0,41.0
751,70.0,0,240,0.0,41.0
752,44.0,80,160,0.0,33.0
753,51.0,160,160,0.0,39.0
754,55.0,160,160,0.0,35.0
755,56.0,160,160,0.0,35.0
756,58.0,160,160,0.0,37.0
757,77.0,0,720,0.0,65.0
758,56.0,160,160,0.0,33.0
759,44.0,80,160,0.0,33.0
760,75.0,80,240,0.0,55.0
761,72.0,0,960,0.0,45.0
762,66.0,0,960,0.0,38.0
763,54.0,0,160,0.0,39.0
764,70.0,160,240,0.0,58.0
765,55.0,160,160,0.0,35.0
766,56.0,80,160,0.0,35.0
767,68.0,80,240,0.0,52.0
768,58.0,160,160,0.0,37.0
769,61.0,0,240,0.0,61.0
770,56.0,160,160,0.0,33.0
771,63.0,80,120,0.0,55.0
772,44.0,80,160,0.0,33.0
773,65.0,40,120,0.0,62.0
774,49.0,120,120,0.0,39.0
775,55.0,240,120,0.0,34.0
776,56.0,120,120,0.0,33.0
777,80.0,0,480,0.0,68.0
778,65.0,0,480,0.0,55.0
779,58.0,120,120,0.0,37.0
780,56.0,120,120,0.0,31.0
781,56.0,120,120,0.0,37.0
782,44.0,120,120,0.0,37.0
783,68.0,0,480,0.0,49.0
784,77.0,0,480,0.0,62.0
785,73.0,0,0,0.0,57.0
786,49.0,120,120,0.0,39.0
787,78.0,0,240,0.0,66.0
788,70.0,0,240,0.0,55.0
789,55.0,240,120,0.0,35.0
790,77.0,0,240,0.0,55.0
791,56.0,120,120,0.0,35.0
792,68.0,0,0,0.0,48.0
793,58.0,120,120,0.0,37.0
794,77.0,0,160,0.0,57.0
795,56.0,120,120,0.0,33.0
796,80.0,0,160,0.0,55.0
797,72.0,40,160,0.0,46.0
798,56.0,80,120,0.0,37.0
799,78.0,0,160,0.0,55.0
800,70.0,80,160,0.0,46.0
801,44.0,40,120,0.0,31.0
802,51.0,0,120,0.0,39.0
803,55.0,240,120,0.0,35.0
804,56.0,120,120,0.0,35.0
805,58.0,120,120,0.0,37.0
806,77.0,120,720,0.0,61.0
807,56.0,120,120,0.0,33.0
808,56.0,0,120,0.0,37.0
809,66.0,0,960,0.0,32.0
810,72.0,0,960,0.0,38.0
811,75.0,120,240,0.0,60.0
812,44.0,120,120,0.0,33.0
813,70.0,120,160,0.0,60.0
814,54.0,0,240,0.0,39.0
815,68.0,160,160,0.0,51.0
816,55.0,80,120,0.0,35.0
817,70.0,80,160,0.0,51.0
818,56.0,40,120,0.0,35.0
819,58.0,0,120,0.0,39.0
820,68.0,120,160,0.0,58.0
821,56.0,80,0,0.0,39.0
822,61.0,40,160,0.0,53.0
823,63.0,80,160,0.0,53.0
824,44.0,40,120,0.0,35.0
825,49.0,0,120,0.0,44.0
826,56.0,120,120,0.0,39.0
827,58.0,120,120,0.0,39.0
828,56.0,120,120,0.0,39.0
829,68.0,0,480,0.0,59.0
830,65.0,120,120,0.0,44.0
831,56.0,120,120,0.0,40.0
832,58.0,120,120,0.0,40.0
833,56.0,120,120,0.0,41.0
834,82.0,0,480,0.0,68.0
835,73.0,120,960,0.0,58.0
836,80.0,0,960,0.0,73.0
837,70.0,0,480,0.0,57.0
838,44.0,120,120,0.0,45.0
839,56.0,120,120,0.0,40.0
840,58.0,120,120,0.0,41.0
841,56.0,120,120,0.0,41.0
842,84.0,0,480,0.0,73.0
843,72.0,0,480,0.0,61.0
844,66.0,0,120,0.0,47.0
845,56.0,120,120,0.0,44.0
846,73.0,0,360,0.0,68.0
847,85.0,120,360,0.0,75.0
848,58.0,120,120,0.0,44.0
849,56.0,0,120,0.0,44.0
850,87.0,0,120,0.0,73.0
851,80.0,0,960,0.0,61.0
852,78.0,0,960,0.0,61.0
853,75.0,120,120,0.0,70.0
854,49.0,120,120,0.0,48.0
855,56.0,120,120,0.0,42.0
856,58.0,120,120,0.0,42.0
857,89.0,0,480,0.0,78.0
858,56.0,120,120,0.0,42.0
859,65.0,0,120,0.0,49.0
860,56.0,120,120,0.0,46.0
861,58.0,120,120,0.0,46.0
862,56.0,120,120,0.0,46.0
863,70.0,120,480,0.0,61.0
864,80.0,0,960,0.0,66.0
865,77.0,0,960,0.0,66.0
866,82.0,0,480,0.0,73.0
867,44.0,0,120,0.0,50.0
868,56.0,120,120,0.0,46.0
869,58.0,120,120,0.0,46.0
870,80.0,0,480,0.0,66.0
871,84.0,0,480,0.0,78.0
872,78.0,120,480,0.0,66.0
873,72.0,0,480,0.0,66.0
874,56.0,120,120,0.0,46.0
875,66.0,120,120,0.0,52.0
876,56.0,120,120,0.0,49.0
877,85.0,0,360,0.0,79.0
878,73.0,0,360,0.0,66.0
879,58.0,120,120,0.0,49.0
880,87.0,0,120,0.0,77.0
881,75.0,120,120,0.0,64.0
882,56.0,0,120,0.0,49.0
883,45.0,0,120,0.0,57.0
884,52.0,120,120,0.0,51.0
885,53.0,120,120,0.0,51.0
886,60.0,120,120,0.0,51.0
887,77.0,0,480,0.0,70.0
888,89.0,0,480,0.0,81.0
889,57.0,120,120,0.0,58.0
890,64.0,120,120,0.0,53.0
891,65.0,120,120,0.0,53.0
892,87.0,0,960,0.0,74.0
893,84.0,120,960,0.0,66.0
894,72.0,120,120,0.0,53.0
895,46.0,0,120,0.0,59.0
896,90.0,0,720,0.0,78.0
897,78.0,0,720,0.0,66.0
898,52.0,120,120,0.0,52.0
899,53.0,120,120,0.0,52.0
900,89.0,0,240,0.0,77.0
901,61.0,120,120,0.0,53.0
902,77.0,0,240,0.0,64.0
903,58.0,0,120,0.0,60.0
904,88.0,0,240,0.0,75.0
905,64.0,120,120,0.0,55.0
906,76.0,120,240,0.0,63.0
907,65.0,120,120,0.0,55.0
908,73.0,120,120,0.0,56.0
909,89.0,0,240,0.0,75.0
910,85.0,120,960,0.0,74.0
911,77.0,0,240,0.0,63.0
912,82.0,0,960,0.0,74.0
913,48.0,120,120,0.0,61.0
914,55.0,120,120,0.0,55.0
915,56.0,120,120,0.0,55.0
916,63.0,120,120,0.0,55.0
917,80.0,0,480,0.0,72.0
918,92.0,0,480,0.0,85.0
919,60.0,120,120,0.0,62.0
920,67.0,120,120,0.0,57.0
921,68.0,120,120,0.0,57.0
922,87.0,0,960,0.0,57.0
923,75.0,120,120,0.0,57.0
924,90.0,0,960,0.0,71.0
925,50.0,0,120,0.0,62.0
926,82.0,0,720,0.0,70.0
927,94.0,0,720,0.0,84.0
928,57.0,120,120,0.0,56.0
929,58.0,0,120,0.0,57.0
930,65.0,120,120,0.0,57.0
931,92.0,120,240,0.0,80.0
932,80.0,0,240,0.0,67.0
933,89.0,120,480,0.0,81.0
934,62.0,0,120,0.0,63.0
935,69.0,120,120,0.0,58.0
936,90.0,0,360,0.0,84.0
937,78.0,0,360,0.0,70.0
938,70.0,120,120,0.0,59.0
939,77.0,120,120,0.0,66.0
940,89.0,0,120,0.0,78.0
941,82.0,0,0,0.0,73.0
942,39.0,120,120,0.0,59.0
943,80.0,0,240,0.0,73.0
944,46.0,120,120,0.0,52.0
945,92.0,0,240,0.0,86.0
946,51.0,0,120,0.0,52.0
947,58.0,120,120,0.0,52.0
948,78.0,120,240,0.0,60.0
949,90.0,0,240,0.0,72.0
950,41.0,120,120,0.0,59.0
951,46.0,120,120,0.0,52.0
952,77.0,0,240,0.0,57.0
953,89.0,0,240,0.0,72.0
954,50.0,120,120,0.0,52.0
955,74.0,0,240,0.0,60.0
956,82.0,0,0,0.0,54.0
957,56.0,120,120,0.0,52.0
958,86.0,0,240,0.0,72.0
959,42.0,0,120,0.0,62.0
960,46.0,120,120,0.0,52.0
961,77.0,120,240,0.0,69.0
962,89.0,0,240,0.0,81.0
963,51.0,0,120,0.0,52.0
964,58.0,120,120,0.0,52.0
965,87.0,0,240,0.0,71.0
966,75.0,120,240,0.0,60.0
967,43.0,120,120,0.0,61.0
968,49.0,120,120,0.0,52.0
969,70.0,0,240,0.0,61.0
970,82.0,0,240,0.0,72.0
971,52.0,120,120,0.0,52.0
972,73.0,0,240,0.0,56.0
973,85.0,0,240,0.0,67.0
974,76.0,0,480,0.0,55.0
975,58.0,120,120,0.0,52.0
976,44.0,0,120,0.0,59.0
977,49.0,120,120,0.0,52.0
978,82.0,0,240,0.0,80.0
979,70.0,0,240,0.0,66.0
980,53.0,0,120,0.0,52.0
981,68.0,120,240,0.0,61.0
982,61.0,120,120,0.0,52.0
983,80.0,0,240,0.0,73.0
984,77.0,120,480,0.0,61.0
985,46.0,0,120,0.0,58.0
986,66.0,0,240,0.0,61.0
987,49.0,120,120,0.0,52.0
988,61.0,0,240,0.0,61.0
989,54.0,120,120,0.0,52.0
990,61.0,120,120,0.0,52.0
991,73.0,120,0,0.0,67.0
992,66.0,0,0,0.0,67.0
993,78.0,0,240,0.0,74.0
994,44.0,0,120,0.0,52.0
995,51.0,120,120,0.0,47.0
996,56.0,120,120,0.0,47.0
997,75.0,0,480,0.0,80.0
998,61.0,120,120,0.0,47.0
999,42.0,0,120,0.0,55.0
1000,77.0,0,240,0.0,75.0
1001,65.0,0,240,0.0,63.0
1002,48.0,120,120,0.0,47.0
1003,51.0,0,120,0.0,47.0
1004,66.0,0,240,0.0,60.0
1005,72.0,120,480,0.0,51.0
1006,78.0,120,240,0.0,70.0
1007,56.0,120,120,0.0,47.0
1008,41.0,0,120,0.0,55.0
1009,82.0,0,240,0.0,77.0
1010,70.0,0,240,0.0,62.0
1011,44.0,120,120,0.0,47.0
1012,49.0,0,120,0.0,47.0
1013,81.0,0,240,0.0,68.0
1014,69.0,120,240,0.0,51.0
1015,56.0,120,120,0.0,47.0
1016,73.0,0,0,0.0,53.0
1017,46.0,0,120,0.0,56.0
1018,80.0,0,160,0.0,77.0
1019,73.0,40,0,0.0,70.0
1020,68.0,120,160,0.0,64.0
1021,49.0,120,120,0.0,47.0
1022,61.0,0,160,0.0,60.0
1023,54.0,80,120,0.0,47.0
1024,61.0,40,120,0.0,47.0
1025,66.0,0,160,0.0,60.0
1026,78.0,80,160,0.0,70.0
1027,73.0,0,0,0.0,66.0
1028,45.0,120,120,0.0,55.0
1029,75.0,0,240,0.0,80.0
1030,49.0,120,120,0.0,47.0
1031,63.0,0,240,0.0,66.0
1032,54.0,0,120,0.0,47.0
1033,77.0,0,120,0.0,68.0
1034,65.0,120,120,0.0,57.0
1035,75.0,0,120,0.0,63.0
1036,66.0,0,480,0.0,66.0
1037,63.0,0,120,0.0,53.0
1038,61.0,120,120,0.0,47.0
1039,44.0,0,120,0.0,51.0
1040,74.0,120,120,0.0,73.0
1041,62.0,0,120,0.0,61.0
1042,51.0,120,120,0.0,47.0
1043,75.0,0,120,0.0,68.0
1044,63.0,0,120,0.0,57.0
1045,60.0,120,120,0.0,47.0
1046,77.0,0,120,0.0,73.0
1047,65.0,0,120,0.0,61.0
1048,42.0,0,120,0.0,47.0
1049,72.0,0,480,0.0,61.0
1050,66.0,0,120,0.0,58.0
1051,78.0,120,120,0.0,69.0
1052,41.0,120,120,0.0,56.0
1053,67.0,0,160,0.0,70.0
1054,79.0,0,160,0.0,83.0
1055,44.0,120,120,0.0,47.0
1056,73.0,0,320,0.0,67.0
1057,80.0,0,160,0.0,79.0
1058,68.0,40,160,0.0,66.0
1059,48.0,80,120,0.0,46.0
1060,89.0,0,160,0.0,77.0
1061,77.0,80,160,0.0,69.0
1062,56.0,40,120,0.0,46.0
1063,46.0,120,120,0.0,53.0
1064,75.0,0,160,0.0,70.0
1065,87.0,0,160,0.0,82.0
1066,49.0,120,120,0.0,45.0
1067,73.0,0,160,0.0,62.0
1068,85.0,40,160,0.0,73.0
1069,78.0,0,0,0.0,80.0
1070,54.0,80,120,0.0,44.0
1071,61.0,40,120,0.0,44.0
1072,66.0,0,160,0.0,68.0
1073,73.0,80,160,0.0,64.0
1074,44.0,120,120,0.0,50.0
1075,51.0,120,120,0.0,42.0
1076,56.0,120,120,0.0,42.0
1077,61.0,120,120,0.0,41.0
1078,63.0,0,480,0.0,69.0
1079,73.0,0,480,0.0,69.0
1080,44.0,0,120,0.0,49.0
1081,51.0,120,120,0.0,41.0
1082,68.0,0,720,0.0,69.0
1083,66.0,120,240,0.0,61.0
1084,72.0,0,240,0.0,61.0
1085,56.0,120,120,0.0,40.0
1086,75.0,0,900,0.0,82.0
1087,60.0,120,120,0.0,40.0
1088,73.0,0,0,0.0,85.0
1089,65.0,0,160,0.0,72.0
1090,49.0,0,160,0.0,56.0
1091,61.0,160,0,0.0,51.0
1092,56.0,0,160,0.0,56.0
1093,55.0,0,80,0.0,42.0
1094,51.0,0,80,0.0,42.0
1095,70.0,0,80,0.0,73.0
1096,63.0,0,80,0.0,62.0
1097,51.0,0,80,0.0,42.0
1098,55.0,160,80,0.0,42.0
1099,70.0,0,80,0.0,73.0
1100,63.0,0,80,0.0,62.0
1101,61.0,0,80,0.0,51.0
1102,63.0,0,160,0.0,62.0
1103,70.0,0,160,0.0,75.0
1104,61.0,0,160,0.0,56.0
1105,51.0,0,160,0.0,46.0
1106,55.0,160,160,0.0,46.0
1107,56.0,160,80,0.0,42.0
1108,68.0,0,80,0.0,71.0
1109,60.0,0,80,0.0,51.0
1110,78.0,0,80,0.0,74.0
1111,56.0,160,80,0.0,42.0
1112,63.0,0,80,0.0,42.0
1113,72.0,0,80,0.0,62.0
1114,68.0,0,80,0.0,51.0
1115,78.0,0,160,0.0,75.0
1116,72.0,0,160,0.0,63.0
1117,63.0,0,160,0.0,46.0
1118,68.0,0,0,0.0,51.0
1119,56.0,160,160,0.0,46.0
1120,61.0,0,80,0.0,42.0
1121,77.0,0,80,0.0,74.0
1122,73.0,160,80,0.0,62.0
1123,82.0,0,80,0.0,74.0
1124,75.0,160,80,0.0,62.0
1125,63.0,0,80,0.0,42.0
1126,73.0,0,80,0.0,51.0
1127,67.0,0,80,0.0,51.0
1128,73.0,0,160,0.0,56.0
1129,67.0,0,160,0.0,56.0
1130,63.0,0,160,0.0,46.0
1131,75.0,0,160,0.0,64.0
1132,82.0,160,160,0.0,78.0
1133,72.0,0,80,0.0,51.0
1134,80.0,160,80,0.0,73.0
1135,68.0,0,80,0.0,42.0
1136,68.0,0,80,0.0,42.0
1137,80.0,0,80,0.0,51.0
1138,84.0,0,80,0.0,62.0
1139,90.0,0,80,0.0,73.0
1140,75.0,160,80,0.0,42.0
1141,84.0,0,160,0.0,64.0
1142,80.0,0,160,0.0,56.0
1143,90.0,0,160,0.0,78.0
1144,68.0,0,160,0.0,46.0
1145,75.0,160,160,0.0,46.0
1146,73.0,0,80,0.0,42.0
1147,80.0,0,80,0.0,51.0
1148,89.0,160,80,0.0,73.0
1149,85.0,0,80,0.0,62.0
1150,75.0,0,80,0.0,62.0
1151,63.0,160,80,0.0,44.0
1152,67.0,0,80,0.0,44.0
1153,73.0,0,80,0.0,52.0
1154,82.0,0,80,0.0,73.0
1155,82.0,0,160,0.0,75.0
1156,73.0,0,160,0.0,56.0
1157,67.0,0,160,0.0,46.0
1158,63.0,0,160,0.0,46.0
1159,75.0,160,160,0.0,62.0
1160,68.0,160,80,0.0,44.0
1161,72.0,0,80,0.0,52.0
1162,80.0,0,80,0.0,72.0
1163,68.0,160,80,0.0,52.0
1164,63.0,0,80,0.0,44.0
1165,56.0,0,80,0.0,44.0
1166,78.0,0,80,0.0,74.0
1167,72.0,0,80,0.0,62.0
1168,78.0,160,160,0.0,75.0
1169,72.0,0,160,0.0,62.0
1170,56.0,0,160,0.0,46.0
1171,63.0,0,160,0.0,46.0
1172,68.0,0,0,0.0,52.0
1173,73.0,0,80,0.0,60.0
1174,77.0,160,80,0.0,71.0
1175,61.0,0,80,0.0,44.0
1176,61.0,0,80,0.0,52.0
1177,51.0,0,80,0.0,44.0
1178,55.0,160,80,0.0,44.0
1179,63.0,0,80,0.0,62.0
1180,70.0,0,80,0.0,74.0
1181,55.0,0,160,0.0,46.0
1182,63.0,0,160,0.0,64.0
1183,51.0,0,160,0.0,46.0
1184,61.0,160,160,0.0,56.0
1185,70.0,0,160,0.0,78.0
1186,60.0,0,80,0.0,52.0
1187,56.0,0,80,0.0,44.0
1188,68.0,160,80,0.0,74.0
1189,66.0,0,80,0.0,74.0
1190,51.0,0,80,0.0,44.0
1191,44.0,0,80,0.0,44.0
1192,56.0,160,80,0.0,52.0
1193,60.0,0,80,0.0,62.0
1194,44.0,0,160,0.0,46.0
1195,66.0,0,160,0.0,78.0
1196,56.0,0,0,0.0,47.0
1197,51.0,0,160,0.0,46.0
1198,60.0,160,160,0.0,64.0
1199,61.0,0,80,0.0,56.0
1200,49.0,160,80,0.0,39.0
1201,65.0,0,80,0.0,67.0
1202,69.0,0,80,0.0,59.0
1203,64.0,0,80,0.0,49.0
1204,55.0,0,80,0.0,36.0
1205,61.0,160,80,0.0,41.0
1206,55.0,0,160,0.0,37.0
1207,61.0,0,160,0.0,44.0
1208,69.0,160,160,0.0,62.0
1209,64.0,0,160,0.0,51.0
1210,56.0,0,80,0.0,34.0
1211,60.0,160,80,0.0,41.0
1212,68.0,0,80,0.0,58.0
1213,63.0,0,80,0.0,49.0
1214,63.0,160,80,0.0,29.0
1215,56.0,0,80,0.0,29.0
1216,78.0,0,80,0.0,52.0
1217,72.0,0,80,0.0,44.0
1218,68.0,0,80,0.0,36.0
1219,78.0,160,160,0.0,55.0
1220,56.0,0,160,0.0,33.0
1221,63.0,0,160,0.0,33.0
1222,68.0,160,0,0.0,36.0
1223,72.0,0,160,0.0,46.0
1224,73.0,0,80,0.0,44.0
1225,77.0,0,80,0.0,52.0
1226,61.0,0,80,0.0,29.0
1227,76.0,0,80,0.0,44.0
1228,81.0,160,80,0.0,52.0
1229,73.0,0,80,0.0,36.0
1230,67.0,0,80,0.0,36.0
1231,76.0,0,160,0.0,46.0
1232,81.0,0,160,0.0,55.0
1233,67.0,0,160,0.0,39.0
1234,73.0,160,160,0.0,39.0
1235,75.0,0,80,0.0,41.0
1236,80.0,160,80,0.0,51.0
1237,72.0,0,80,0.0,36.0
1238,68.0,0,80,0.0,29.0
1239,80.0,0,80,0.0,31.0
1240,75.0,0,80,0.0,26.0
1241,68.0,160,80,0.0,26.0
1242,90.0,0,80,0.0,46.0
1243,84.0,0,80,0.0,39.0
1244,75.0,0,160,0.0,29.0
1245,80.0,160,160,0.0,35.0
1246,84.0,0,160,0.0,40.0
1247,90.0,0,160,0.0,49.0
1248,68.0,0,160,0.0,29.0
1249,89.0,160,80,0.0,46.0
1250,73.0,0,80,0.0,26.0
1251,80.0,0,80,0.0,31.0
1252,85.0,0,80,0.0,39.0
1253,67.0,0,80,0.0,33.0
1254,73.0,160,80,0.0,39.0
1255,81.0,0,80,0.0,55.0
1256,76.0,0,80,0.0,47.0
1257,81.0,0,160,0.0,59.0
1258,76.0,0,160,0.0,49.0
1259,73.0,0,160,0.0,41.0
1260,67.0,160,160,0.0,35.0
1261,75.0,160,80,0.0,45.0
1262,80.0,0,80,0.0,56.0
1263,68.0,0,80,0.0,33.0
1264,72.0,0,80,0.0,39.0
1265,78.0,0,80,0.0,56.0
1266,72.0,0,80,0.0,47.0
1267,56.0,160,80,0.0,33.0
1268,63.0,0,80,0.0,33.0
1269,68.0,0,80,0.0,39.0
1270,56.0,0,160,0.0,35.0
1271,63.0,0,160,0.0,35.0
1272,78.0,0,160,0.0,59.0
1273,72.0,0,160,0.0,49.0
1274,68.0,160,160,0.0,41.0
1275,68.0,0,80,0.0,39.0
1276,61.0,0,80,0.0,33.0
1277,77.0,160,80,0.0,55.0
1278,73.0,0,80,0.0,47.0
1279,64.0,0,80,0.0,45.0
1280,69.0,160,80,0.0,54.0
1281,61.0,0,80,0.0,39.0
1282,55.0,0,80,0.0,33.0
1283,55.0,0,160,0.0,35.0
1284,61.0,0,160,0.0,41.0
1285,64.0,160,160,0.0,49.0
1286,69.0,0,160,0.0,59.0
1287,63.0,0,80,0.0,45.0
1288,68.0,160,80,0.0,56.0
1289,56.0,0,80,0.0,33.0
1290,60.0,0,80,0.0,39.0
1291,56.0,0,80,0.0,49.0
1292,44.0,0,80,0.0,41.0
1293,63.0,0,80,0.0,52.0
1294,60.0,0,80,0.0,52.0
1295,66.0,160,80,0.0,62.0
1296,44.0,0,160,0.0,39.0
1297,56.0,0,160,0.0,47.0
1298,66.0,160,160,0.0,59.0
1299,60.0,0,160,0.0,49.0
1300,63.0,0,160,0.0,49.0
1301,67.0,0,80,0.0,49.0
1302,60.0,0,80,0.0,41.0
1303,64.0,0,80,0.0,42.0
1304,43.0,0,80,0.0,33.0
1305,55.0,160,80,0.0,39.0
1306,62.0,0,80,0.0,49.0
1307,55.0,0,80,0.0,38.0
1308,57.0,160,80,0.0,45.0
1309,66.0,0,80,0.0,47.0
1310,72.0,0,80,0.0,56.0
1311,62.0,0,160,0.0,49.0
1312,55.0,160,160,0.0,39.0
1313,72.0,0,160,0.0,59.0
1314,66.0,0,160,0.0,49.0
1315,57.0,0,160,0.0,47.0
1316,71.0,0,80,0.0,48.0
1317,67.0,0,80,0.0,41.0
1318,62.0,160,80,0.0,42.0
1319,59.0,0,80,0.0,39.0
1320,55.0,0,80,0.0,31.0
1321,67.0,0,80,0.0,47.0
1322,65.0,160,80,0.0,47.0
1323,77.0,0,80,0.0,56.0
1324,55.0,0,80,0.0,36.0
1325,62.0,0,80,0.0,44.0
1326,71.0,0,80,0.0,47.0
1327,62.0,0,160,0.0,47.0
1328,71.0,0,160,0.0,49.0
1329,67.0,0,0,0.0,46.0
1330,65.0,0,160,0.0,49.0
1331,55.0,0,0,0.0,34.0
1332,77.0,0,160,0.0,59.0
1333,76.0,160,80,0.0,52.0
1334,72.0,0,80,0.0,44.0
1335,64.0,0,80,0.0,41.0
1336,60.0,0,80,0.0,34.0
1337,72.0,0,80,0.0,49.0
1338,84.0,0,80,0.0,56.0
1339,74.0,0,80,0.0,49.0
1340,78.0,0,80,0.0,47.0
1341,69.0,160,80,0.0,44.0
1342,62.0,0,80,0.0,44.0
1343,55.0,0,80,0.0,44.0
1344,84.0,0,160,0.0,59.0
1345,74.0,0,160,0.0,49.0
1346,69.0,0,160,0.0,47.0
1347,62.0,0,160,0.0,47.0
1348,78.0,0,160,0.0,49.0
1349,55.0,0,0,0.0,44.0
1350,72.0,0,160,0.0,49.0
1351,67.0,0,80,0.0,41.0
1352,62.0,0,80,0.0,34.0
1353,71.0,0,80,0.0,46.0
1354,79.0,160,80,0.0,41.0
1355,83.0,0,80,0.0,51.0
1356,79.0,0,80,0.0,49.0
1357,55.0,0,80,0.0,47.0
1358,62.0,0,80,0.0,36.0
1359,67.0,0,80,0.0,44.0
1360,89.0,160,80,0.0,55.0
1361,77.0,0,80,0.0,49.0
1362,83.0,0,80,0.0,47.0
1363,89.0,160,160,0.0,59.0
1364,77.0,0,160,0.0,49.0
1365,79.0,0,160,0.0,49.0
1366,83.0,0,160,0.0,49.0
1367,55.0,0,160,0.0,39.0
1368,62.0,0,0,0.0,34.0
1369,67.0,0,160,0.0,47.0
1370,68.0,0,160,0.0,49.0
1371,70.0,0,160,0.0,45.0
1372,74.0,160,160,0.0,63.0
1373,71.0,160,160,0.0,66.0
1374,80.0,0,160,0.0,80.0
1375,53.0,0,160,0.0,61.0
1376,56.0,0,160,0.0,47.0
1377,65.0,0,160,0.0,56.0
1378,77.0,0,160,0.0,74.0
1379,73.0,160,160,0.0,68.0
1380,83.0,0,160,0.0,84.0
1381,50.0,0,160,0.0,62.0
1382,74.0,160,160,0.0,71.0
1383,76.0,160,160,0.0,66.0
1384,80.0,0,160,0.0,79.0
1385,62.0,0,160,0.0,59.0
1386,56.0,0,160,0.0,49.0
1387,47.0,0,160,0.0,64.0
1388,86.0,0,160,0.0,89.0
1389,77.0,160,160,0.0,74.0
1390,83.0,0,160,0.0,85.0
1391,53.0,160,160,0.0,50.0
1392,79.0,0,160,0.0,72.0
1393,59.0,0,160,0.0,60.0
1394,80.0,0,160,0.0,78.0
1395,44.0,0,160,0.0,69.0
1396,89.0,160,160,0.0,92.0
1397,86.0,0,160,0.0,86.0
1398,50.0,0,160,0.0,53.0
1399,56.0,0,160,0.0,64.0
1400,82.0,160,160,0.0,73.0
1401,41.0,160,0,0.0,69.0
1402,83.0,0,160,0.0,79.0
1403,92.0,0,160,0.0,94.0
1404,95.0,0,160,0.0,90.0
1405,29.0,0,160,0.0,69.0
1406,83.0,0,160,0.0,77.0
1407,52.0,0,160,0.0,50.0
1408,40.0,0,160,0.0,42.0
1409,84.0,0,160,0.0,85.0
1410,96.0,160,160,0.0,101.0
1411,28.0,0,160,0.0,42.0
1412,52.0,0,160,0.0,50.0
1413,40.0,0,160,0.0,36.0
1414,60.0,0,160,0.0,64.0
1415,67.0,0,160,0.0,64.0
1416,72.0,160,160,0.0,77.0
1417,52.0,160,160,0.0,48.0
1418,40.0,0,160,0.0,40.0
1419,67.0,0,160,0.0,64.0
1420,60.0,0,0,0.0,55.0
1421,72.0,0,0,0.0,77.0
1422,40.0,160,160,0.0,40.0
1423,52.0,160,0,0.0,48.0
1424,68.0,0,160,0.0,55.0
1425,60.0,0,160,0.0,63.0
1426,40.0,0,160,0.0,40.0
1427,68.0,0,160,0.0,63.0
1428,72.0,0,0,0.0,75.0
1429,40.0,0,0,0.0,38.0
1430,52.0,160,0,0.0,55.0
1431,68.0,0,160,0.0,63.0
1432,60.0,0,160,0.0,63.0
1433,68.0,0,0,0.0,64.0
1434,60.0,0,0,0.0,64.0
1435,72.0,0,0,0.0,77.0
1436,51.0,0,160,0.0,52.0
1437,39.0,160,160,0.0,44.0
1438,68.0,0,0,0.0,64.0
1439,72.0,0,160,0.0,77.0
1440,60.0,0,160,0.0,64.0
1441,51.0,0,160,0.0,52.0
1442,39.0,160,160,0.0,44.0
1443,72.0,0,160,0.0,81.0
1444,68.0,0,160,0.0,68.0
1445,60.0,0,160,0.0,68.0
1446,39.0,160,160,0.0,47.0
1447,51.0,0,160,0.0,56.0
1448,40.0,0,0,0.0,44.0
1449,52.0,160,0,0.0,52.0
1450,68.0,0,0,0.0,67.0
1451,72.0,0,0,0.0,79.0
1452,60.0,0,0,0.0,67.0
1453,60.0,0,0,0.0,67.0
1454,68.0,0,0,0.0,67.0
1455,72.0,160,0,0.0,80.0
1456,52.0,0,0,0.0,56.0
1457,40.0,0,80,0.0,46.0
1458,69.0,0,80,0.0,68.0
1459,72.0,0,80,0.0,81.0
1460,52.0,160,80,0.0,57.0
1461,60.0,0,80,0.0,68.0
1462,40.0,0,80,0.0,47.0
1463,60.0,0,80,0.0,69.0
1464,52.0,0,80,0.0,58.0
1465,40.0,160,80,0.0,48.0
1466,69.0,0,80,0.0,69.0
1467,72.0,0,80,0.0,82.0
1468,72.0,0,80,0.0,83.0
1469,52.0,0,80,0.0,58.0
1470,60.0,0,80,0.0,71.0
1471,69.0,160,80,0.0,71.0
1472,40.0,0,80,0.0,49.0
1473,73.0,0,80,0.0,84.0
1474,69.0,0,80,0.0,71.0
1475,52.0,160,80,0.0,59.0
1476,61.0,0,80,0.0,71.0
1477,40.0,0,80,0.0,50.0
1478,52.0,0,80,0.0,61.0
1479,73.0,0,80,0.0,85.0
1480,40.0,0,80,0.0,51.0
1481,69.0,0,80,0.0,71.0
1482,61.0,160,80,0.0,71.0
1483,52.0,0,80,0.0,62.0
1484,40.0,160,80,0.0,52.0
1485,69.0,0,80,0.0,72.0
1486,61.0,0,80,0.0,72.0
1487,73.0,0,80,0.0,86.0
1488,61.0,0,80,0.0,73.0
1489,39.0,0,80,0.0,52.0
1490,69.0,0,80,0.0,73.0
1491,73.0,0,80,0.0,88.0
1492,51.0,160,80,0.0,62.0
1493,39.0,0,80,0.0,53.0
1494,51.0,0,80,0.0,63.0
1495,61.0,160,80,0.0,75.0
1496,73.0,0,80,0.0,90.0
1497,69.0,0,80,0.0,75.0
1498,39.0,0,80,0.0,53.0
1499,51.0,160,80,0.0,64.0
1500,73.0,0,80,0.0,91.0
1501,69.0,0,80,0.0,77.0
1502,61.0,0,80,0.0,77.0
1503,68.0,0,80,0.0,78.0
1504,40.0,0,80,0.0,55.0
1505,52.0,160,80,0.0,66.0
1506,61.0,0,80,0.0,78.0
1507,73.0,0,80,0.0,92.0
1508,61.0,0,80,0.0,79.0
1509,73.0,0,80,0.0,93.0
1510,67.0,0,80,0.0,79.0
1511,52.0,160,80,0.0,67.0
1512,40.0,0,80,0.0,56.0
1513,73.0,0,80,0.0,102.0
1514,53.0,0,80,0.0,74.0
1515,41.0,160,80,0.0,52.0
1516,68.0,0,80,0.0,86.0
1517,61.0,0,80,0.0,73.0
1518,77.0,160,160,0.0,95.0
1519,68.0,0,160,0.0,80.0
1520,65.0,0,160,0.0,68.0
1521,61.0,0,160,0.0,71.0
1522,56.0,0,160,0.0,50.0
1523,49.0,160,0,0.0,51.0
1524,65.0,0,0,0.0,72.0
1525,68.0,0,0,0.0,85.0
1526,61.0,0,160,0.0,72.0
1527,56.0,0,0,0.0,53.0
1528,49.0,0,0,0.0,53.0
1529,77.0,160,0,0.0,101.0
1530,61.0,0,160,0.0,75.0
1531,63.0,160,160,0.0,68.0
1532,75.0,0,160,0.0,95.0
1533,61.0,0,160,0.0,68.0
1534,73.0,160,160,0.0,95.0
1535,42.0,0,160,0.0,96.0
1536,30.0,160,160,0.0,68.0
1537,49.0,0,160,0.0,50.0
1538,61.0,0,160,0.0,71.0
1539,54.0,160,0,0.0,51.0
1540,77.0,160,160,0.0,95.0
1541,65.0,0,0,0.0,68.0
1542,70.0,0,160,0.0,80.0
1543,61.0,0,160,0.0,72.0
1544,49.0,0,160,0.0,51.0
1545,65.0,0,0,0.0,72.0
1546,70.0,0,0,0.0,85.0
1547,77.0,0,0,0.0,101.0
1548,54.0,0,160,0.0,53.0
1549,49.0,160,160,0.0,53.0
1550,61.0,0,160,0.0,75.0
1551,75.0,160,160,0.0,95.0
1552,63.0,0,160,0.0,68.0
1553,73.0,160,160,0.0,95.0
1554,61.0,0,160,0.0,68.0
1555,32.0,160,160,0.0,68.0
1556,44.0,0,160,0.0,96.0
1557,49.0,0,160,0.0,50.0
1558,56.0,0,160,0.0,50.0
1559,61.0,0,0,0.0,72.0
1560,77.0,160,160,0.0,95.0
1561,68.0,0,160,0.0,80.0
1562,65.0,0,160,0.0,68.0
1563,61.0,160,0,0.0,75.0
1564,49.0,0,160,0.0,51.0
1565,56.0,160,160,0.0,51.0
1566,65.0,0,0,0.0,72.0
1567,68.0,0,0,0.0,85.0
1568,77.0,0,160,0.0,95.0
1569,49.0,0,160,0.0,53.0
1570,77.0,0,160,0.0,101.0
1571,56.0,0,160,0.0,53.0
1572,63.0,0,160,0.0,68.0
1573,75.0,160,160,0.0,95.0
1574,61.0,160,160,0.0,68.0
1575,73.0,0,160,0.0,95.0
1576,46.0,160,160,0.0,96.0
1577,34.0,0,160,0.0,68.0
1578,58.0,0,0,0.0,51.0
1579,51.0,0,0,0.0,51.0
1580,61.0,160,0,0.0,72.0
1581,67.0,0,0,0.0,80.0
1582,65.0,0,0,0.0,68.0
1583,77.0,0,0,0.0,95.0
1584,65.0,0,0,0.0,72.0
1585,67.0,0,0,0.0,85.0
1586,58.0,0,0,0.0,53.0
1587,61.0,160,0,0.0,75.0
1588,77.0,0,0,0.0,101.0
1589,51.0,0,160,0.0,53.0
1590,75.0,160,160,0.0,95.0
1591,63.0,0,160,0.0,68.0
1592,73.0,160,160,0.0,95.0
1593,61.0,160,0,0.0,95.0
1594,27.0,0,1920,0.0,59.0
1595,55.0,0,1920,0.0,84.0
1596,39.0,0,1920,0.0,70.0
1597,51.0,0,1920,0.0,84.0
1598,63.0,0,1920,0.0,101.0
1599,32.0,1920,1920,0.0,56.0
1600,65.0,0,1920,0.0,95.0
1601,60.0,0,1920,0.0,80.0
1602,54.0,0,1920,0.0,80.0
1603,44.0,0,1920,0.0,66.0
1604,46.0,0,120,0.0,52.0
1605,34.0,1920,120,0.0,44.0
1606,53.0,120,120,0.0,29.0
1607,61.0,120,120,0.0,26.0
1608,49.0,0,120,0.0,22.0
1609,58.0,0,120,0.0,22.0
1610,41.0,120,120,0.0,33.0
1611,46.0,0,120,0.0,29.0
1612,34.0,120,120,0.0,25.0
1613,53.0,120,120,0.0,29.0
1614,58.0,0,120,0.0,23.0
1615,49.0,120,120,0.0,23.0
1616,61.0,0,120,0.0,27.0
1617,41.0,120,120,0.0,35.0
1618,34.0,0,120,0.0,27.0
1619,46.0,120,120,0.0,33.0
1620,53.0,120,120,0.0,30.0
1621,49.0,0,120,0.0,24.0
1622,61.0,0,120,0.0,29.0
1623,58.0,120,120,0.0,24.0
1624,41.0,120,120,0.0,35.0
1625,34.0,120,120,0.0,28.0
1626,46.0,0,120,0.0,34.0
1627,53.0,120,120,0.0,35.0
1628,49.0,0,120,0.0,26.0
1629,61.0,120,120,0.0,31.0
1630,58.0,0,120,0.0,26.0
1631,41.0,120,120,0.0,39.0
1632,46.0,120,120,0.0,38.0
1633,34.0,0,120,0.0,30.0
1634,53.0,120,120,0.0,35.0
1635,49.0,120,120,0.0,28.0
1636,61.0,0,120,0.0,34.0
1637,58.0,0,120,0.0,28.0
1638,41.0,120,120,0.0,39.0
1639,46.0,120,120,0.0,35.0
1640,34.0,0,120,0.0,29.0
1641,53.0,120,120,0.0,34.0
1642,58.0,0,120,0.0,25.0
1643,61.0,0,120,0.0,30.0
1644,49.0,120,120,0.0,25.0
1645,41.0,120,120,0.0,36.0
1646,46.0,120,120,0.0,33.0
1647,34.0,0,120,0.0,27.0
1648,53.0,120,120,0.0,30.0
1649,58.0,0,120,0.0,24.0
1650,61.0,120,120,0.0,29.0
1651,49.0,0,120,0.0,24.0
1652,41.0,120,120,0.0,35.0
1653,46.0,0,120,0.0,29.0
1654,34.0,120,120,0.0,25.0
1655,53.0,120,120,0.0,29.0
1656,58.0,0,120,0.0,24.0
1657,61.0,0,120,0.0,28.0
1658,49.0,120,120,0.0,24.0
1659,53.0,120,120,0.0,33.0
1660,73.0,120,120,0.0,54.0
1661,46.0,0,120,0.0,35.0
1662,70.0,0,60,0.0,51.0
1663,53.0,120,120,0.0,34.0
1664,61.0,120,120,0.0,30.0
1665,58.0,0,120,0.0,30.0
1666,53.0,0,120,0.0,31.0
1667,72.0,120,120,0.0,51.0
1668,46.0,120,120,0.0,35.0
1669,73.0,0,120,0.0,54.0
1670,70.0,120,60,0.0,51.0
1671,53.0,0,120,0.0,33.0
1672,61.0,0,120,0.0,31.0
1673,58.0,120,120,0.0,31.0
1674,53.0,120,120,0.0,31.0
1675,46.0,120,120,0.0,35.0
1676,73.0,0,120,0.0,54.0
1677,70.0,120,60,0.0,51.0
1678,53.0,0,120,0.0,34.0
1679,58.0,0,120,0.0,31.0
1680,61.0,120,120,0.0,31.0
1681,72.0,120,120,0.0,51.0
1682,53.0,0,120,0.0,31.0
1683,46.0,0,120,0.0,35.0
1684,73.0,120,120,0.0,54.0
1685,70.0,0,60,0.0,51.0
1686,53.0,120,120,0.0,33.0
1687,61.0,120,120,0.0,31.0
1688,58.0,0,120,0.0,31.0
1689,53.0,120,120,0.0,31.0
1690,46.0,120,120,0.0,35.0
1691,73.0,0,120,0.0,54.0
1692,70.0,120,60,0.0,51.0
1693,53.0,0,120,0.0,33.0
1694,61.0,0,120,0.0,31.0
1695,58.0,120,120,0.0,31.0
1696,72.0,120,120,0.0,61.0
1697,53.0,0,120,0.0,33.0
1698,46.0,0,120,0.0,37.0
1699,73.0,120,120,0.0,66.0
1700,82.0,120,60,0.0,64.0
1701,53.0,0,120,0.0,35.0
1702,58.0,120,120,0.0,34.0
1703,61.0,0,120,0.0,34.0
1704,53.0,120,120,0.0,34.0
1705,48.0,120,120,0.0,35.0
1706,81.0,0,120,0.0,64.0
1707,72.0,0,60,0.0,59.0
1708,54.0,120,120,0.0,34.0
1709,63.0,120,120,0.0,30.0
1710,57.0,0,120,0.0,30.0
1711,73.0,120,120,0.0,51.0
1712,54.0,0,120,0.0,31.0
1713,75.0,0,120,0.0,54.0
1714,48.0,120,120,0.0,35.0
1715,72.0,120,60,0.0,51.0
1716,54.0,0,120,0.0,33.0
1717,57.0,0,120,0.0,31.0
1718,63.0,120,120,0.0,31.0
1719,54.0,120,120,0.0,31.0
1720,48.0,120,120,0.0,35.0
1721,78.0,0,120,0.0,57.0
1722,72.0,0,60,0.0,51.0
1723,51.0,120,120,0.0,34.0
1724,57.0,120,120,0.0,30.0
1725,63.0,0,120,0.0,30.0
1726,73.0,0,120,0.0,51.0
1727,51.0,120,120,0.0,31.0
1728,75.0,120,120,0.0,54.0
1729,48.0,0,120,0.0,35.0
1730,72.0,120,60,0.0,51.0
1731,54.0,0,120,0.0,33.0
1732,57.0,0,120,0.0,31.0
1733,63.0,120,120,0.0,31.0
1734,54.0,120,120,0.0,31.0
1735,78.0,0,120,0.0,57.0
1736,48.0,120,120,0.0,35.0
1737,72.0,120,60,0.0,51.0
1738,51.0,0,120,0.0,34.0
1739,57.0,0,120,0.0,30.0
1740,63.0,120,120,0.0,30.0
1741,73.0,0,120,0.0,51.0
1742,51.0,120,120,0.0,31.0
1743,75.0,0,120,0.0,54.0
1744,48.0,120,120,0.0,35.0
1745,72.0,120,60,0.0,51.0
1746,54.0,0,120,0.0,33.0
1747,63.0,0,120,0.0,31.0
1748,57.0,120,120,0.0,31.0
1749,54.0,120,120,0.0,31.0
1750,48.0,0,120,0.0,35.0
1751,78.0,120,120,0.0,60.0
1752,72.0,0,60,0.0,53.0
1753,51.0,120,120,0.0,35.0
1754,63.0,0,120,0.0,34.0
1755,57.0,120,120,0.0,34.0
1756,73.0,120,120,0.0,65.0
1757,51.0,0,120,0.0,35.0
1758,75.0,0,120,0.0,71.0
1759,48.0,120,120,0.0,39.0
1760,84.0,0,60,0.0,64.0
1761,54.0,120,120,0.0,37.0
1762,57.0,0,120,0.0,37.0
1763,63.0,120,120,0.0,37.0
1764,54.0,120,120,0.0,38.0
1765,49.0,120,120,0.0,35.0
1766,73.0,0,60,0.0,57.0
1767,53.0,120,120,0.0,34.0
1768,84.0,0,240,0.0,61.0
1769,65.0,120,120,0.0,30.0
1770,57.0,0,120,0.0,30.0
1771,75.0,0,120,0.0,49.0
1772,53.0,120,120,0.0,31.0
1773,77.0,0,120,0.0,52.0
1774,49.0,0,120,0.0,35.0
1775,73.0,0,60,0.0,49.0
1776,53.0,120,120,0.0,33.0
1777,82.0,120,240,0.0,52.0
1778,58.0,120,120,0.0,31.0
1779,65.0,0,120,0.0,31.0
1780,53.0,120,120,0.0,31.0
1781,85.0,120,120,0.0,82.0
1782,73.0,0,120,0.0,69.0
1783,52.0,0,120,0.0,56.0
1784,79.0,0,60,0.0,63.0
1785,84.0,120,60,0.0,75.0
1786,61.0,0,120,0.0,53.0
1787,67.0,120,120,0.0,50.0
1788,82.0,120,120,0.0,72.0
1789,52.0,0,120,0.0,51.0
1790,73.0,0,120,0.0,61.0
1791,53.0,0,120,0.0,56.0
1792,77.0,0,120,0.0,64.0
1793,81.0,120,120,0.0,78.0
1794,72.0,0,60,0.0,57.0
1795,84.0,0,60,0.0,68.0
1796,60.0,120,120,0.0,52.0
1797,69.0,120,120,0.0,58.0
1798,53.0,120,120,0.0,51.0
1799,78.0,0,120,0.0,55.0
1800,66.0,120,120,0.0,46.0
1801,45.0,0,120,0.0,33.0
1802,72.0,0,60,0.0,42.0
1803,77.0,120,60,0.0,50.0
1804,54.0,0,120,0.0,30.0
1805,63.0,120,120,0.0,29.0
1806,66.0,120,120,0.0,40.0
1807,75.0,0,120,0.0,49.0
1808,45.0,0,120,0.0,29.0
1809,46.0,0,120,0.0,33.0
1810,70.0,120,120,0.0,44.0
1811,73.0,0,120,0.0,52.0
1812,77.0,0,60,0.0,49.0
1813,65.0,0,60,0.0,40.0
1814,53.0,120,120,0.0,30.0
1815,61.0,120,120,0.0,29.0
1816,46.0,120,120,0.0,29.0
1817,52.0,120,120,0.0,56.0
1818,73.0,0,120,0.0,69.0
1819,85.0,0,120,0.0,82.0
1820,79.0,0,60,0.0,63.0
1821,84.0,120,60,0.0,75.0
1822,61.0,0,120,0.0,53.0
1823,67.0,120,120,0.0,50.0
1824,52.0,120,120,0.0,51.0
1825,73.0,0,120,0.0,61.0
1826,82.0,0,120,0.0,72.0
1827,53.0,0,120,0.0,56.0
1828,81.0,0,120,0.0,78.0
1829,77.0,120,120,0.0,64.0
1830,84.0,0,60,0.0,68.0
1831,72.0,120,60,0.0,57.0
1832,60.0,0,120,0.0,52.0
1833,69.0,120,120,0.0,58.0
1834,53.0,120,120,0.0,51.0
1835,66.0,0,120,0.0,46.0
1836,45.0,120,120,0.0,33.0
1837,78.0,0,120,0.0,55.0
1838,72.0,0,60,0.0,42.0
1839,77.0,120,60,0.0,50.0
1840,54.0,0,120,0.0,30.0
1841,63.0,120,120,0.0,29.0
1842,75.0,120,120,0.0,49.0
1843,66.0,0,120,0.0,40.0
1844,45.0,0,120,0.0,29.0
1845,74.0,120,120,0.0,52.0
1846,70.0,0,120,0.0,44.0
1847,46.0,0,120,0.0,33.0
1848,65.0,0,60,0.0,40.0
1849,77.0,120,60,0.0,49.0
1850,73.0,0,60,0.0,40.0
1851,53.0,0,120,0.0,30.0
1852,61.0,120,120,0.0,29.0
1853,46.0,120,120,0.0,29.0
1854,43.0,0,120,0.0,56.0
1855,89.0,0,120,0.0,89.0
1856,77.0,120,120,0.0,75.0
1857,82.0,0,120,0.0,75.0
1858,76.0,0,60,0.0,70.0
1859,88.0,120,60,0.0,83.0
1860,48.0,0,120,0.0,53.0
1861,49.0,120,120,0.0,50.0
1862,58.0,0,120,0.0,49.0
1863,85.0,0,120,0.0,75.0
1864,73.0,120,120,0.0,62.0
1865,43.0,0,120,0.0,52.0
1866,72.0,0,120,0.0,68.0
1867,84.0,0,120,0.0,80.0
1868,75.0,120,120,0.0,68.0
1869,82.0,0,60,0.0,75.0
1870,70.0,0,60,0.0,62.0
1871,48.0,120,120,0.0,49.0
1872,49.0,120,120,0.0,49.0
1873,58.0,120,120,0.0,49.0
1874,70.0,0,120,0.0,68.0
1875,43.0,120,120,0.0,47.0
1876,82.0,0,120,0.0,80.0
1877,80.0,0,60,0.0,73.0
1878,76.0,0,60,0.0,61.0
1879,48.0,120,120,0.0,45.0
1880,49.0,120,120,0.0,42.0
1881,67.0,0,120,0.0,57.0
1882,79.0,120,120,0.0,68.0
1883,58.0,0,120,0.0,44.0
1884,45.0,0,120,0.0,49.0
1885,78.0,0,120,0.0,69.0
1886,75.0,120,120,0.0,59.0
1887,72.0,0,60,0.0,62.0
1888,66.0,120,60,0.0,53.0
1889,50.0,0,120,0.0,44.0
1890,51.0,120,120,0.0,46.0
1891,60.0,120,120,0.0,44.0
1892,68.0,120,120,0.0,57.0
1893,80.0,0,120,0.0,68.0
1894,47.0,0,120,0.0,47.0
1895,79.0,0,60,0.0,62.0
1896,74.0,0,60,0.0,52.0
1897,52.0,120,120,0.0,45.0
1898,53.0,120,120,0.0,42.0
1899,62.0,120,120,0.0,44.0
1900,65.0,0,120,0.0,51.0
1901,77.0,0,120,0.0,61.0
1902,72.0,0,120,0.0,53.0
1903,75.0,0,120,0.0,63.0
1904,48.0,120,120,0.0,49.0
1905,67.0,0,60,0.0,52.0
1906,63.0,120,60,0.0,44.0
1907,54.0,0,120,0.0,39.0
1908,55.0,120,120,0.0,40.0
1909,63.0,120,120,0.0,39.0
1910,72.0,120,120,0.0,57.0
1911,75.0,0,120,0.0,67.0
1912,46.0,0,120,0.0,52.0
1913,66.0,0,60,0.0,59.0
1914,63.0,0,60,0.0,49.0
1915,53.0,120,120,0.0,45.0
1916,54.0,120,120,0.0,41.0
1917,63.0,120,120,0.0,42.0
1918,72.0,0,120,0.0,53.0
1919,45.0,0,120,0.0,52.0
1920,75.0,120,120,0.0,62.0
1921,65.0,0,60,0.0,56.0
1922,63.0,0,60,0.0,46.0
1923,52.0,120,120,0.0,41.0
1924,53.0,120,120,0.0,42.0
1925,63.0,120,120,0.0,41.0
1926,46.0,0,120,0.0,51.0
1927,73.0,120,120,0.0,68.0
1928,70.0,0,120,0.0,59.0
1929,65.0,120,120,0.0,40.0
1930,53.0,0,120,0.0,44.0
1931,61.0,0,120,0.0,40.0
1932,58.0,120,120,0.0,47.0
1933,72.0,0,120,0.0,67.0
1934,41.0,120,120,0.0,48.0
1935,46.0,0,120,0.0,51.0
1936,73.0,120,120,0.0,68.0
1937,61.0,0,120,0.0,40.0
1938,53.0,120,120,0.0,43.0
1939,65.0,0,120,0.0,40.0
1940,70.0,0,120,0.0,60.0
1941,58.0,120,120,0.0,48.0
1942,41.0,120,120,0.0,48.0
1943,73.0,120,120,0.0,68.0
1944,46.0,0,120,0.0,51.0
1945,70.0,0,120,0.0,60.0
1946,65.0,0,120,0.0,40.0
1947,61.0,120,120,0.0,40.0
1948,53.0,0,120,0.0,44.0
1949,58.0,120,120,0.0,48.0
1950,72.0,120,120,0.0,68.0
1951,41.0,0,120,0.0,48.0
1952,73.0,120,120,0.0,68.0
1953,46.0,0,120,0.0,51.0
1954,65.0,0,120,0.0,40.0
1955,70.0,0,120,0.0,60.0
1956,53.0,0,120,0.0,43.0
1957,61.0,120,120,0.0,40.0
1958,58.0,120,120,0.0,48.0
1959,41.0,120,120,0.0,48.0
1960,73.0,0,120,0.0,68.0
1961,46.0,120,120,0.0,51.0
1962,70.0,0,120,0.0,67.0
1963,65.0,120,120,0.0,46.0
1964,61.0,0,120,0.0,46.0
1965,53.0,0,120,0.0,49.0
1966,58.0,120,120,0.0,48.0
1967,72.0,120,120,0.0,73.0
1968,41.0,0,120,0.0,49.0
1969,46.0,0,120,0.0,54.0
1970,73.0,120,120,0.0,84.0
1971,53.0,120,120,0.0,51.0
1972,70.0,0,120,0.0,52.0
1973,77.0,0,120,0.0,52.0
1974,82.0,0,120,0.0,76.0
1975,61.0,120,120,0.0,50.0
1976,49.0,120,120,0.0,50.0
1977,81.0,120,120,0.0,76.0
1978,48.0,0,120,0.0,51.0
1979,69.0,0,120,0.0,46.0
1980,72.0,0,120,0.0,67.0
1981,54.0,120,120,0.0,44.0
1982,63.0,120,120,0.0,47.0
1983,48.0,120,120,0.0,48.0
1984,73.0,0,120,0.0,67.0
1985,75.0,120,120,0.0,68.0
1986,54.0,0,120,0.0,51.0
1987,69.0,120,120,0.0,40.0
1988,66.0,0,120,0.0,40.0
1989,57.0,0,120,0.0,43.0
1990,72.0,0,120,0.0,60.0
1991,63.0,120,120,0.0,48.0
1992,48.0,120,120,0.0,48.0
1993,78.0,0,120,0.0,71.0
1994,51.0,120,120,0.0,51.0
1995,66.0,0,120,0.0,40.0
1996,57.0,120,120,0.0,44.0
1997,69.0,0,120,0.0,40.0
1998,72.0,0,120,0.0,59.0
1999,63.0,120,120,0.0,47.0
2000,73.0,0,120,0.0,67.0
2001,48.0,120,120,0.0,48.0
2002,75.0,0,120,0.0,68.0
2003,54.0,120,120,0.0,51.0
2004,72.0,0,120,0.0,60.0
2005,69.0,0,120,0.0,40.0
2006,66.0,120,120,0.0,40.0
2007,57.0,0,120,0.0,43.0
2008,63.0,120,120,0.0,48.0
2009,48.0,120,120,0.0,48.0
2010,78.0,120,120,0.0,71.0
2011,51.0,0,120,0.0,51.0
2012,66.0,0,120,0.0,40.0
2013,69.0,0,120,0.0,40.0
2014,72.0,120,120,0.0,59.0
2015,57.0,0,120,0.0,44.0
2016,63.0,120,120,0.0,47.0
2017,48.0,120,120,0.0,48.0
2018,73.0,0,120,0.0,67.0
2019,75.0,120,120,0.0,68.0
2020,54.0,0,120,0.0,51.0
2021,57.0,0,120,0.0,43.0
2022,69.0,0,120,0.0,40.0
2023,72.0,0,120,0.0,60.0
2024,66.0,120,120,0.0,40.0
2025,63.0,120,120,0.0,48.0
2026,48.0,120,120,0.0,48.0
2027,51.0,0,120,0.0,52.0
2028,78.0,120,120,0.0,74.0
2029,57.0,120,120,0.0,46.0
2030,66.0,0,120,0.0,42.0
2031,69.0,0,120,0.0,42.0
2032,72.0,0,120,0.0,63.0
2033,63.0,120,120,0.0,50.0
2034,73.0,0,120,0.0,82.0
2035,48.0,120,120,0.0,51.0
2036,54.0,120,120,0.0,57.0
2037,75.0,0,120,0.0,88.0
2038,78.0,120,120,0.0,54.0
2039,72.0,0,120,0.0,54.0
2040,57.0,0,120,0.0,54.0
2041,84.0,0,120,0.0,78.0
2042,63.0,120,120,0.0,54.0
2043,48.0,120,120,0.0,55.0
2044,84.0,120,120,0.0,73.0
2045,49.0,0,120,0.0,51.0
2046,57.0,120,120,0.0,50.0
2047,73.0,0,120,0.0,72.0
2048,72.0,0,120,0.0,50.0
2049,65.0,120,120,0.0,47.0
2050,53.0,120,120,0.0,48.0
2051,75.0,0,120,0.0,64.0
2052,58.0,120,120,0.0,51.0
2053,77.0,0,120,0.0,69.0
2054,61.0,120,120,0.0,49.0
2055,70.0,0,120,0.0,44.0
2056,82.0,0,120,0.0,69.0
2057,73.0,0,120,0.0,44.0
2058,65.0,120,120,0.0,48.0
2059,49.0,120,120,0.0,48.0
2060,52.0,120,120,0.0,61.0
2061,85.0,0,120,0.0,85.0
2062,79.0,0,120,0.0,71.0
2063,61.0,120,120,0.0,59.0
2064,73.0,0,120,0.0,71.0
2065,84.0,0,120,0.0,84.0
2066,67.0,120,120,0.0,55.0
2067,82.0,0,120,0.0,80.0
2068,52.0,120,120,0.0,57.0
2069,81.0,0,120,0.0,86.0
2070,53.0,120,120,0.0,61.0
2071,84.0,0,120,0.0,80.0
2072,72.0,120,120,0.0,67.0
2073,77.0,0,120,0.0,67.0
2074,60.0,0,120,0.0,58.0
2075,69.0,120,120,0.0,57.0
2076,53.0,120,120,0.0,57.0
2077,78.0,0,120,0.0,67.0
2078,45.0,120,120,0.0,48.0
2079,54.0,0,120,0.0,44.0
2080,72.0,0,120,0.0,55.0
2081,77.0,0,120,0.0,66.0
2082,66.0,120,120,0.0,55.0
2083,63.0,120,120,0.0,44.0
2084,75.0,120,120,0.0,64.0
2085,45.0,0,120,0.0,44.0
2086,74.0,120,120,0.0,69.0
2087,46.0,0,120,0.0,48.0
2088,53.0,0,120,0.0,44.0
2089,73.0,0,120,0.0,53.0
2090,77.0,0,120,0.0,64.0
2091,70.0,0,120,0.0,53.0
2092,65.0,120,120,0.0,53.0
2093,61.0,120,120,0.0,44.0
2094,46.0,120,120,0.0,44.0
2095,52.0,0,120,0.0,61.0
2096,85.0,120,120,0.0,85.0
2097,61.0,0,120,0.0,59.0
2098,79.0,120,120,0.0,71.0
2099,84.0,0,120,0.0,84.0
2100,73.0,0,120,0.0,71.0
2101,67.0,120,120,0.0,55.0
2102,82.0,120,120,0.0,80.0
2103,52.0,0,120,0.0,57.0
2104,81.0,120,120,0.0,86.0
2105,53.0,0,120,0.0,61.0
2106,72.0,0,120,0.0,67.0
2107,84.0,120,120,0.0,80.0
2108,77.0,0,120,0.0,67.0
2109,60.0,0,120,0.0,58.0
2110,69.0,120,120,0.0,57.0
2111,53.0,120,120,0.0,57.0
2112,83.0,0,120,0.0,84.0
2113,50.0,120,120,0.0,61.0
2114,77.0,0,120,0.0,65.0
2115,71.0,120,120,0.0,65.0
2116,59.0,0,120,0.0,58.0
2117,82.0,0,120,0.0,77.0
2118,65.0,120,120,0.0,55.0
2119,50.0,120,120,0.0,55.0
2120,80.0,0,120,0.0,80.0
2121,51.0,0,120,0.0,61.0
2122,79.0,120,120,0.0,86.0
2123,58.0,120,120,0.0,57.0
2124,78.0,0,120,0.0,63.0
2125,70.0,0,120,0.0,63.0
2126,82.0,0,120,0.0,75.0
2127,66.0,120,120,0.0,55.0
2128,51.0,120,120,0.0,55.0
2129,39.0,120,120,0.0,69.0
2130,46.0,120,120,0.0,59.0
2131,81.0,0,240,0.0,99.0
2132,69.0,0,240,0.0,83.0
2133,58.0,120,120,0.0,71.0
2134,46.0,120,120,0.0,59.0
2135,70.0,0,240,0.0,66.0
2136,82.0,0,240,0.0,79.0
2137,41.0,120,120,0.0,69.0
2138,46.0,120,120,0.0,59.0
2139,81.0,0,240,0.0,89.0
2140,78.0,0,720,0.0,83.0
2141,69.0,0,240,0.0,75.0
2142,58.0,120,120,0.0,69.0
2143,70.0,0,240,0.0,66.0
2144,77.0,0,240,0.0,66.0
2145,82.0,0,240,0.0,79.0
2146,46.0,120,120,0.0,59.0
2147,42.0,0,120,0.0,69.0
2148,69.0,0,240,0.0,78.0
2149,77.0,0,240,0.0,78.0
2150,46.0,120,120,0.0,59.0
2151,81.0,120,240,0.0,92.0
2152,58.0,0,120,0.0,68.0
2153,82.0,0,240,0.0,80.0
2154,70.0,0,240,0.0,67.0
2155,46.0,120,120,0.0,59.0
2156,43.0,0,120,0.0,68.0
2157,51.0,120,120,0.0,59.0
2158,81.0,0,240,0.0,89.0
2159,69.0,120,240,0.0,74.0
2160,75.0,120,480,0.0,67.0
2161,63.0,120,120,0.0,68.0
2162,51.0,120,120,0.0,59.0
2163,70.0,0,240,0.0,67.0
2164,73.0,0,0,0.0,100.0
2165,82.0,0,240,0.0,80.0
2166,61.0,0,120,0.0,79.0
2167,44.0,120,120,0.0,51.0
2168,51.0,0,120,0.0,57.0
2169,58.0,0,120,0.0,68.0
2170,66.0,0,120,0.0,84.0
2171,72.0,240,120,0.0,86.0
2172,51.0,0,120,0.0,46.0
2173,60.0,0,120,0.0,66.0
2174,44.0,0,120,0.0,39.0
2175,56.0,0,120,0.0,56.0
2176,66.0,0,120,0.0,73.0
2177,70.0,0,240,0.0,66.0
2178,61.0,0,240,0.0,56.0
2179,66.0,240,0,0.0,56.0
2180,46.0,480,240,0.0,46.0
2181,34.0,0,240,0.0,38.0
2182,56.0,0,0,0.0,58.0
2183,47.0,0,480,0.0,49.0
2184,35.0,0,480,0.0,41.0
2185,56.0,0,0,0.0,53.0
2186,70.0,0,480,0.0,68.0
2187,62.0,0,480,0.0,58.0
2188,63.0,480,360,0.0,53.0
2189,68.0,0,360,0.0,62.0
2190,48.0,0,360,0.0,46.0
2191,36.0,0,360,0.0,39.0
2192,66.0,0,360,0.0,62.0
2193,53.0,0,0,0.0,41.0
2194,37.0,0,960,0.0,31.0
2195,61.0,0,0,0.0,41.0
2196,68.0,0,960,0.0,49.0
2197,56.0,0,480,0.0,41.0
2198,65.0,960,480,0.0,49.0
2199,49.0,120,1440,0.0,37.0
2200,58.0,0,480,0.0,37.0
2201,63.0,480,480,0.0,37.0
2202,42.0,0,480,0.0,39.0
2203,66.0,0,480,0.0,44.0
2204,65.0,0,960,0.0,47.0
2205,44.0,0,1200,0.0,39.0
2206,45.0,240,240,0.0,37.0
2207,46.0,240,240,0.0,39.0
2208,63.0,960,960,0.0,41.0
2209,44.0,240,240,0.0,37.0
2210,54.0,480,1920,0.0,34.0
2211,60.0,0,1920,0.0,36.0
2212,68.0,0,480,0.0,49.0
2213,53.0,120,600,0.0,41.0
2214,56.0,480,480,0.0,41.0
2215,61.0,60,1020,0.0,41.0
2216,37.0,0,960,0.0,33.0
2217,65.0,0,480,0.0,49.0
2218,66.0,0,240,0.0,49.0
2219,58.0,480,240,0.0,41.0
2220,56.0,240,240,0.0,39.0
2221,61.0,0,480,0.0,41.0
2222,49.0,60,1440,0.0,39.0
2223,65.0,0,240,0.0,47.0
2224,68.0,0,240,0.0,44.0
2225,60.0,0,240,0.0,37.0
2226,66.0,0,240,0.0,41.0
2227,58.0,240,240,0.0,35.0
2228,63.0,0,480,0.0,41.0
2229,42.0,240,480,0.0,39.0
2230,65.0,0,960,0.0,45.0
2231,44.0,0,1200,0.0,29.0
2232,45.0,240,240,0.0,37.0
2233,48.0,240,160,0.0,35.0
2234,46.0,160,160,0.0,34.0
2235,44.0,160,160,0.0,34.0
2236,63.0,960,960,0.0,41.0
2237,60.0,0,1920,0.0,36.0
2238,54.0,240,1920,0.0,31.0
2239,53.0,0,480,0.0,41.0
2240,37.0,0,480,0.0,41.0
2241,68.0,160,480,0.0,53.0
2242,61.0,0,960,0.0,40.0
2243,64.0,0,480,0.0,44.0
2244,70.0,0,480,0.0,51.0
2245,55.0,480,480,0.0,44.0
2246,63.0,480,480,0.0,44.0
2247,72.0,0,480,0.0,52.0
2248,54.0,0,480,0.0,44.0
2249,73.0,0,360,0.0,58.0
2250,58.0,0,360,0.0,44.0
2251,44.0,0,960,0.0,37.0
2252,75.0,0,120,0.0,60.0
2253,66.0,480,480,0.0,49.0
2254,56.0,360,120,0.0,49.0
2255,72.0,0,120,0.0,53.0
2256,77.0,0,480,0.0,61.0
2257,73.0,0,480,0.0,46.0
2258,65.0,0,480,0.0,43.0
2259,56.0,0,480,0.0,45.0
2260,49.0,120,480,0.0,39.0
2261,70.0,0,480,0.0,51.0
2262,64.0,0,480,0.0,44.0
2263,61.0,0,480,0.0,44.0
2264,55.0,480,480,0.0,44.0
2265,60.0,0,420,0.0,44.0
2266,72.0,0,420,0.0,52.0
2267,44.0,0,480,0.0,37.0
2268,73.0,0,360,0.0,58.0
2269,42.0,60,420,0.0,37.0
2270,63.0,0,960,0.0,44.0
2271,58.0,420,540,0.0,56.0
2272,75.0,360,120,0.0,60.0
2273,54.0,480,960,0.0,44.0
2274,65.0,60,480,0.0,53.0
2275,41.0,60,540,0.0,41.0
2276,57.0,0,480,0.0,49.0
2277,77.0,0,480,0.0,63.0
2278,33.0,0,480,0.0,40.0
2279,72.0,0,960,0.0,53.0
2280,75.0,0,480,0.0,60.0
2281,45.0,480,480,0.0,48.0
2282,70.0,0,480,0.0,63.0
2283,61.0,480,480,0.0,53.0
2284,73.0,0,480,0.0,63.0
2285,46.0,0,480,0.0,49.0
2286,34.0,0,480,0.0,41.0
2287,65.0,0,960,0.0,53.0
2288,64.0,0,360,0.0,53.0
2289,72.0,480,360,0.0,63.0
2290,68.0,0,360,0.0,53.0
2291,36.0,0,360,0.0,41.0
2292,48.0,0,360,0.0,49.0
2293,49.0,0,120,0.0,45.0
2294,70.0,360,120,0.0,57.0
2295,65.0,0,0,0.0,56.0
2296,37.0,0,120,0.0,37.0
2297,50.0,0,480,0.0,49.0
2298,38.0,0,480,0.0,41.0
2299,59.0,0,480,0.0,51.0
2300,68.0,120,480,0.0,61.0
2301,58.0,0,360,0.0,49.0
2302,63.0,0,360,0.0,59.0
2303,66.0,0,360,0.0,59.0
2304,39.0,480,360,0.0,41.0
2305,51.0,0,360,0.0,49.0
2306,54.0,0,360,0.0,49.0
2307,65.0,0,120,0.0,56.0
2308,56.0,360,120,0.0,47.0
2309,53.0,0,120,0.0,45.0
2310,41.0,0,120,0.0,37.0
2311,61.0,0,0,0.0,59.0
2312,54.0,0,480,0.0,49.0
2313,42.0,0,480,0.0,41.0
2314,58.0,0,480,0.0,49.0
2315,63.0,120,720,0.0,59.0
2316,64.0,240,120,0.0,60.0
2317,60.0,0,360,0.0,53.0
2318,54.0,0,360,0.0,47.0
2319,44.0,480,480,0.0,45.0
2320,37.0,0,160,0.0,39.0
2321,55.0,160,160,0.0,33.0
2322,56.0,160,160,0.0,31.0
2323,58.0,160,160,0.0,37.0
2324,56.0,160,160,0.0,31.0
2325,44.0,160,160,0.0,31.0
2326,80.0,60,960,0.0,72.0
2327,73.0,60,1020,0.0,60.0
2328,65.0,120,1080,0.0,55.0
2329,49.0,160,160,0.0,39.0
2330,55.0,160,160,0.0,35.0
2331,68.0,0,480,0.0,49.0
2332,56.0,160,160,0.0,35.0
2333,73.0,0,480,0.0,49.0
2334,77.0,0,480,0.0,60.0
2335,58.0,160,160,0.0,37.0
2336,65.0,0,240,0.0,34.0
2337,68.0,0,240,0.0,39.0
2338,56.0,160,160,0.0,33.0
2339,44.0,80,160,0.0,33.0
2340,75.0,0,240,0.0,41.0
2341,70.0,0,240,0.0,41.0
2342,78.0,80,240,0.0,55.0
2343,51.0,160,160,0.0,39.0
2344,55.0,160,160,0.0,35.0
2345,56.0,160,160,0.0,35.0
2346,58.0,160,160,0.0,37.0
2347,77.0,0,720,0.0,68.0
2348,56.0,160,160,0.0,33.0
2349,72.0,0,960,0.0,42.0
2350,66.0,0,960,0.0,33.0
2351,44.0,80,160,0.0,33.0
2352,75.0,80,240,0.0,55.0
2353,54.0,0,160,0.0,39.0
2354,70.0,160,240,0.0,58.0
2355,55.0,160,160,0.0,35.0
2356,68.0,80,240,0.0,52.0
2357,56.0,80,160,0.0,35.0
2358,58.0,0,160,0.0,37.0
2359,61.0,160,240,0.0,61.0
2360,56.0,160,160,0.0,33.0
2361,63.0,80,120,0.0,55.0
2362,44.0,80,160,0.0,33.0
2363,65.0,0,0,0.0,55.0
2364,49.0,0,120,0.0,39.0
2365,55.0,240,120,0.0,34.0
2366,56.0,120,120,0.0,33.0
2367,80.0,0,480,0.0,68.0
2368,58.0,120,120,0.0,37.0
2369,56.0,120,120,0.0,31.0
2370,56.0,120,120,0.0,37.0
2371,73.0,120,960,0.0,57.0
2372,44.0,120,120,0.0,37.0
2373,77.0,0,480,0.0,62.0
2374,68.0,0,480,0.0,49.0
2375,49.0,120,120,0.0,39.0
2376,78.0,0,240,0.0,66.0
2377,70.0,0,240,0.0,55.0
2378,55.0,240,120,0.0,35.0
2379,68.0,0,240,0.0,46.0
2380,73.0,0,480,0.0,57.0
2381,56.0,120,120,0.0,35.0
2382,77.0,0,0,0.0,57.0
2383,58.0,0,120,0.0,37.0
2384,68.0,120,160,0.0,48.0
2385,56.0,120,120,0.0,33.0
2386,72.0,40,160,0.0,46.0
2387,80.0,0,160,0.0,55.0
2388,56.0,80,120,0.0,37.0
2389,44.0,40,120,0.0,31.0
2390,70.0,0,160,0.0,46.0
2391,78.0,80,160,0.0,55.0
2392,51.0,120,120,0.0,39.0
2393,55.0,240,120,0.0,35.0
2394,56.0,120,120,0.0,35.0
2395,58.0,120,120,0.0,37.0
2396,77.0,0,720,0.0,61.0
2397,56.0,0,0,0.0,37.0
2398,44.0,120,120,0.0,33.0
2399,66.0,0,960,0.0,32.0
2400,75.0,120,240,0.0,60.0
2401,72.0,0,960,0.0,36.0
2402,70.0,0,160,0.0,60.0
2403,54.0,120,240,0.0,39.0
2404,68.0,160,160,0.0,51.0
2405,55.0,80,120,0.0,35.0
2406,56.0,40,120,0.0,35.0
2407,70.0,80,160,0.0,51.0
2408,58.0,0,120,0.0,39.0
2409,68.0,120,160,0.0,58.0
2410,56.0,120,120,0.0,35.0
2411,61.0,40,160,0.0,53.0
2412,56.0,80,120,0.0,39.0
2413,44.0,40,120,0.0,35.0
2414,63.0,80,160,0.0,53.0
2415,49.0,0,120,0.0,44.0
2416,56.0,120,120,0.0,39.0
2417,58.0,120,120,0.0,39.0
2418,56.0,120,120,0.0,39.0
2419,68.0,120,480,0.0,61.0
2420,65.0,120,120,0.0,44.0
2421,56.0,120,120,0.0,40.0
2422,58.0,120,120,0.0,40.0
2423,80.0,0,960,0.0,73.0
2424,73.0,0,960,0.0,58.0
2425,82.0,0,480,0.0,68.0
2426,56.0,120,120,0.0,41.0
2427,70.0,0,480,0.0,57.0
2428,44.0,0,120,0.0,45.0
2429,56.0,120,120,0.0,40.0
2430,58.0,120,120,0.0,41.0
2431,84.0,0,480,0.0,73.0
2432,72.0,0,480,0.0,61.0
2433,56.0,120,120,0.0,41.0
2434,66.0,120,120,0.0,47.0
2435,56.0,120,120,0.0,44.0
2436,73.0,0,360,0.0,68.0
2437,85.0,0,360,0.0,75.0
2438,58.0,120,120,0.0,44.0
2439,56.0,0,120,0.0,44.0
2440,75.0,0,120,0.0,70.0
2441,78.0,0,960,0.0,61.0
2442,80.0,120,960,0.0,61.0
2443,87.0,120,120,0.0,73.0
2444,49.0,0,120,0.0,48.0
2445,56.0,120,120,0.0,42.0
2446,58.0,120,120,0.0,42.0
2447,89.0,120,480,0.0,78.0
2448,56.0,120,120,0.0,42.0
2449,65.0,0,120,0.0,49.0
2450,56.0,120,120,0.0,46.0
2451,58.0,120,120,0.0,46.0
2452,56.0,120,120,0.0,46.0
2453,82.0,0,480,0.0,73.0
2454,77.0,0,960,0.0,66.0
2455,80.0,0,960,0.0,66.0
2456,70.0,120,480,0.0,61.0
2457,44.0,0,120,0.0,50.0
2458,56.0,120,120,0.0,46.0
2459,58.0,120,120,0.0,46.0
2460,84.0,120,480,0.0,78.0
2461,80.0,0,480,0.0,66.0
2462,72.0,0,480,0.0,66.0
2463,56.0,120,120,0.0,46.0
2464,78.0,0,480,0.0,66.0
2465,66.0,0,120,0.0,52.0
2466,56.0,120,120,0.0,49.0
2467,85.0,120,360,0.0,79.0
2468,58.0,120,120,0.0,49.0
2469,73.0,0,360,0.0,66.0
2470,56.0,120,120,0.0,49.0
2471,75.0,0,120,0.0,64.0
2472,87.0,0,0,0.0,74.0
2473,45.0,0,120,0.0,57.0
2474,52.0,120,120,0.0,51.0
2475,53.0,120,120,0.0,51.0
2476,89.0,120,480,0.0,81.0
2477,60.0,120,120,0.0,51.0
2478,77.0,0,480,0.0,70.0
2479,57.0,120,120,0.0,58.0
2480,64.0,120,120,0.0,53.0
2481,65.0,120,120,0.0,53.0
2482,84.0,0,960,0.0,66.0
2483,72.0,120,120,0.0,53.0
2484,46.0,0,120,0.0,59.0
2485,52.0,120,120,0.0,52.0
2486,78.0,0,720,0.0,66.0
2487,90.0,0,720,0.0,78.0
2488,53.0,0,120,0.0,52.0
2489,61.0,120,120,0.0,53.0
2490,89.0,0,240,0.0,77.0
2491,77.0,120,240,0.0,64.0
2492,58.0,0,120,0.0,60.0
2493,64.0,120,120,0.0,55.0
2494,76.0,0,240,0.0,63.0
2495,88.0,120,240,0.0,75.0
2496,65.0,0,120,0.0,55.0
2497,73.0,120,120,0.0,56.0
2498,77.0,0,240,0.0,63.0
2499,82.0,120,960,0.0,74.0
2500,85.0,0,960,0.0,74.0
2501,89.0,120,240,0.0,75.0
2502,48.0,0,120,0.0,61.0
2503,55.0,120,120,0.0,55.0
2504,56.0,120,120,0.0,55.0
2505,80.0,120,480,0.0,72.0
2506,92.0,0,480,0.0,85.0
2507,63.0,120,120,0.0,55.0
2508,60.0,0,120,0.0,62.0
2509,67.0,120,120,0.0,57.0
2510,68.0,120,120,0.0,57.0
2511,87.0,0,960,0.0,57.0
2512,90.0,0,960,0.0,71.0
2513,75.0,120,120,0.0,57.0
2514,50.0,120,120,0.0,62.0
2515,82.0,120,720,0.0,70.0
2516,94.0,0,720,0.0,84.0
2517,57.0,120,120,0.0,56.0
2518,58.0,0,120,0.0,57.0
2519,65.0,120,120,0.0,57.0
2520,92.0,0,240,0.0,80.0
2521,80.0,120,240,0.0,67.0
2522,89.0,0,480,0.0,81.0
2523,62.0,0,120,0.0,63.0
2524,69.0,120,120,0.0,58.0
2525,70.0,120,120,0.0,59.0
2526,78.0,120,360,0.0,70.0
2527,90.0,0,360,0.0,84.0
2528,77.0,0,120,0.0,66.0
2529,89.0,120,120,0.0,78.0
2530,82.0,0,480,0.0,62.0
2531,39.0,0,120,0.0,59.0
2532,80.0,0,240,0.0,73.0
2533,92.0,0,240,0.0,86.0
2534,46.0,120,120,0.0,52.0
2535,51.0,0,120,0.0,52.0
2536,58.0,120,120,0.0,52.0
2537,82.0,120,480,0.0,73.0
2538,78.0,0,240,0.0,60.0
2539,90.0,120,240,0.0,72.0
2540,41.0,120,120,0.0,59.0
2541,89.0,0,240,0.0,72.0
2542,46.0,120,120,0.0,52.0
2543,77.0,0,240,0.0,59.0
2544,50.0,0,120,0.0,52.0
2545,82.0,0,0,0.0,61.0
2546,56.0,120,120,0.0,52.0
2547,74.0,120,240,0.0,60.0
2548,86.0,0,240,0.0,72.0
2549,42.0,0,120,0.0,62.0
2550,77.0,0,240,0.0,69.0
2551,89.0,120,240,0.0,81.0
2552,46.0,120,120,0.0,52.0
2553,51.0,0,120,0.0,52.0
2554,58.0,120,120,0.0,52.0
2555,82.0,0,0,0.0,72.0
2556,87.0,120,240,0.0,71.0
2557,75.0,0,240,0.0,60.0
2558,43.0,0,120,0.0,61.0
2559,70.0,120,240,0.0,61.0
2560,49.0,120,120,0.0,52.0
2561,52.0,0,120,0.0,52.0
2562,85.0,120,240,0.0,67.0
2563,76.0,0,480,0.0,53.0
2564,73.0,0,240,0.0,56.0
2565,58.0,120,120,0.0,52.0
2566,44.0,0,120,0.0,59.0
2567,82.0,0,240,0.0,80.0
2568,49.0,120,120,0.0,52.0
2569,70.0,0,240,0.0,66.0
2570,53.0,0,120,0.0,52.0
2571,61.0,120,120,0.0,52.0
2572,77.0,120,480,0.0,64.0
2573,80.0,0,240,0.0,73.0
2574,68.0,120,240,0.0,61.0
2575,46.0,0,120,0.0,58.0
2576,66.0,120,0,0.0,62.0
2577,61.0,0,240,0.0,61.0
2578,49.0,120,120,0.0,52.0
2579,54.0,0,120,0.0,52.0
2580,66.0,0,0,0.0,67.0
2581,78.0,0,240,0.0,74.0
2582,73.0,0,0,0.0,67.0
2583,61.0,0,0,0.0,67.0
2584,44.0,0,120,0.0,52.0
2585,51.0,120,120,0.0,47.0
2586,56.0,120,120,0.0,47.0
2587,61.0,120,120,0.0,47.0
2588,75.0,120,480,0.0,80.0
2589,42.0,120,120,0.0,55.0
2590,77.0,0,240,0.0,75.0
2591,65.0,0,240,0.0,59.0
2592,48.0,120,120,0.0,47.0
2593,51.0,120,120,0.0,47.0
2594,56.0,120,120,0.0,47.0
2595,72.0,0,480,0.0,51.0
2596,78.0,0,240,0.0,70.0
2597,66.0,0,240,0.0,60.0
2598,41.0,120,120,0.0,55.0
2599,82.0,0,240,0.0,77.0
2600,44.0,120,120,0.0,47.0
2601,70.0,0,240,0.0,60.0
2602,49.0,0,120,0.0,47.0
2603,81.0,120,240,0.0,70.0
2604,56.0,120,120,0.0,47.0
2605,69.0,0,240,0.0,50.0
2606,73.0,0,0,0.0,53.0
2607,46.0,120,120,0.0,56.0
2608,80.0,0,160,0.0,77.0
2609,68.0,0,160,0.0,64.0
2610,49.0,120,120,0.0,47.0
2611,61.0,40,160,0.0,60.0
2612,54.0,80,120,0.0,47.0
2613,78.0,80,160,0.0,70.0
2614,73.0,0,320,0.0,70.0
2615,61.0,40,120,0.0,47.0
2616,66.0,0,160,0.0,60.0
2617,45.0,120,120,0.0,55.0
2618,49.0,120,120,0.0,47.0
2619,75.0,0,240,0.0,80.0
2620,63.0,0,240,0.0,66.0
2621,65.0,0,120,0.0,57.0
2622,54.0,120,120,0.0,47.0
2623,77.0,0,120,0.0,68.0
2624,61.0,0,120,0.0,47.0
2625,75.0,120,120,0.0,63.0
2626,73.0,0,480,0.0,66.0
2627,66.0,0,480,0.0,66.0
2628,63.0,0,120,0.0,53.0
2629,74.0,0,120,0.0,73.0
2630,62.0,0,120,0.0,61.0
2631,44.0,120,120,0.0,51.0
2632,51.0,120,120,0.0,47.0
2633,75.0,0,120,0.0,68.0
2634,63.0,0,120,0.0,57.0
2635,60.0,120,120,0.0,47.0
2636,77.0,0,120,0.0,73.0
2637,65.0,0,120,0.0,61.0
2638,78.0,0,120,0.0,69.0
2639,66.0,0,120,0.0,58.0
2640,72.0,0,480,0.0,61.0
2641,42.0,120,120,0.0,47.0
2642,41.0,0,120,0.0,56.0
2643,79.0,120,160,0.0,83.0
2644,67.0,0,160,0.0,70.0
2645,44.0,120,120,0.0,47.0
2646,80.0,0,160,0.0,79.0
2647,68.0,40,160,0.0,66.0
2648,73.0,0,320,0.0,70.0
2649,48.0,80,120,0.0,46.0
2650,77.0,0,160,0.0,69.0
2651,89.0,80,160,0.0,77.0
2652,56.0,40,120,0.0,46.0
2653,46.0,0,120,0.0,53.0
2654,87.0,120,160,0.0,82.0
2655,75.0,0,160,0.0,70.0
2656,49.0,120,120,0.0,45.0
2657,85.0,0,160,0.0,73.0
2658,73.0,40,160,0.0,62.0
2659,78.0,0,320,0.0,70.0
2660,54.0,80,120,0.0,44.0
2661,73.0,80,160,0.0,64.0
2662,78.0,0,160,0.0,80.0
2663,66.0,0,160,0.0,68.0
2664,61.0,40,120,0.0,44.0
2665,44.0,0,120,0.0,50.0
2666,51.0,120,120,0.0,42.0
2667,56.0,120,120,0.0,42.0
2668,63.0,0,480,0.0,69.0
2669,73.0,0,480,0.0,69.0
2670,61.0,120,120,0.0,41.0
2671,44.0,0,120,0.0,49.0
2672,66.0,120,240,0.0,61.0
2673,72.0,0,240,0.0,61.0
2674,68.0,120,720,0.0,69.0
2675,51.0,120,120,0.0,41.0
2676,56.0,120,120,0.0,40.0
2677,75.0,0,900,0.0,82.0
2678,73.0,60,60,0.0,73.0
2679,60.0,120,120,0.0,40.0
2680,49.0,0,160,0.0,56.0
2681,73.0,0,160,0.0,85.0
2682,56.0,0,160,0.0,56.0
2683,65.0,60,160,0.0,72.0
2684,61.0,0,0,0.0,51.0
2685,51.0,160,80,0.0,42.0
2686,55.0,0,80,0.0,42.0
2687,70.0,0,80,0.0,73.0
2688,63.0,0,80,0.0,62.0
2689,70.0,0,80,0.0,73.0
2690,61.0,0,80,0.0,51.0
2691,55.0,0,80,0.0,42.0
2692,51.0,160,80,0.0,42.0
2693,63.0,0,80,0.0,62.0
2694,61.0,0,160,0.0,56.0
2695,51.0,0,160,0.0,46.0
2696,70.0,0,160,0.0,75.0
2697,55.0,0,160,0.0,46.0
2698,63.0,160,160,0.0,62.0
2699,68.0,160,80,0.0,71.0
2700,56.0,0,80,0.0,42.0
2701,60.0,0,80,0.0,51.0
2702,56.0,0,80,0.0,42.0
2703,63.0,0,80,0.0,42.0
2704,78.0,0,80,0.0,74.0
2705,72.0,0,80,0.0,62.0
2706,68.0,160,80,0.0,51.0
2707,68.0,0,0,0.0,51.0
2708,56.0,0,160,0.0,46.0
2709,63.0,0,160,0.0,46.0
2710,78.0,0,160,0.0,75.0
2711,72.0,160,160,0.0,63.0
2712,73.0,0,80,0.0,62.0
2713,77.0,160,80,0.0,74.0
2714,61.0,0,80,0.0,42.0
2715,63.0,0,80,0.0,42.0
2716,75.0,0,80,0.0,62.0
2717,82.0,0,80,0.0,74.0
2718,73.0,160,80,0.0,51.0
2719,67.0,0,80,0.0,51.0
2720,75.0,160,160,0.0,64.0
2721,82.0,0,160,0.0,78.0
2722,63.0,0,160,0.0,46.0
2723,67.0,0,160,0.0,56.0
2724,73.0,0,160,0.0,56.0
2725,80.0,160,80,0.0,73.0
2726,68.0,0,80,0.0,42.0
2727,72.0,0,80,0.0,51.0
2728,68.0,0,80,0.0,42.0
2729,75.0,0,80,0.0,42.0
2730,80.0,160,80,0.0,51.0
2731,84.0,0,80,0.0,62.0
2732,90.0,0,80,0.0,73.0
2733,84.0,160,160,0.0,64.0
2734,90.0,0,160,0.0,78.0
2735,75.0,0,160,0.0,46.0
2736,68.0,0,160,0.0,46.0
2737,80.0,0,0,0.0,51.0
2738,73.0,0,80,0.0,42.0
2739,89.0,160,80,0.0,73.0
2740,85.0,0,80,0.0,62.0
2741,75.0,0,80,0.0,62.0
2742,82.0,0,80,0.0,73.0
2743,63.0,0,80,0.0,44.0
2744,73.0,160,80,0.0,52.0
2745,67.0,0,80,0.0,44.0
2746,82.0,0,160,0.0,75.0
2747,63.0,0,160,0.0,46.0
2748,67.0,0,160,0.0,46.0
2749,73.0,0,160,0.0,56.0
2750,75.0,160,160,0.0,62.0
2751,80.0,160,80,0.0,72.0
2752,72.0,0,80,0.0,52.0
2753,68.0,0,80,0.0,44.0
2754,68.0,0,80,0.0,52.0
2755,63.0,0,80,0.0,44.0
2756,56.0,0,80,0.0,44.0
2757,78.0,0,80,0.0,74.0
2758,72.0,160,80,0.0,62.0
2759,68.0,0,0,0.0,52.0
2760,56.0,0,160,0.0,46.0
2761,63.0,0,160,0.0,46.0
2762,78.0,0,160,0.0,75.0
2763,72.0,0,160,0.0,62.0
2764,77.0,0,80,0.0,71.0
2765,73.0,0,80,0.0,60.0
2766,61.0,160,80,0.0,44.0
2767,51.0,0,80,0.0,44.0
2768,61.0,0,80,0.0,52.0
2769,63.0,160,80,0.0,62.0
2770,70.0,0,80,0.0,74.0
2771,55.0,0,80,0.0,44.0
2772,61.0,160,160,0.0,56.0
2773,55.0,0,160,0.0,46.0
2774,51.0,0,160,0.0,46.0
2775,70.0,0,160,0.0,78.0
2776,63.0,0,160,0.0,64.0
2777,56.0,0,80,0.0,44.0
2778,68.0,0,80,0.0,74.0
2779,60.0,160,80,0.0,52.0
2780,51.0,0,80,0.0,44.0
2781,56.0,0,80,0.0,52.0
2782,44.0,0,80,0.0,44.0
2783,60.0,160,80,0.0,62.0
2784,66.0,0,80,0.0,74.0
2785,66.0,0,160,0.0,78.0
2786,60.0,0,160,0.0,64.0
2787,44.0,160,160,0.0,46.0
2788,51.0,0,160,0.0,46.0
2789,56.0,0,160,0.0,56.0
2790,49.0,0,80,0.0,39.0
2791,56.0,0,80,0.0,47.0
2792,61.0,0,80,0.0,56.0
2793,65.0,160,80,0.0,67.0
2794,64.0,0,80,0.0,49.0
2795,69.0,0,80,0.0,59.0
2796,61.0,160,80,0.0,41.0
2797,55.0,0,80,0.0,36.0
2798,55.0,160,160,0.0,37.0
2799,61.0,0,160,0.0,44.0
2800,69.0,0,160,0.0,62.0
2801,64.0,0,160,0.0,51.0
2802,68.0,0,80,0.0,58.0
2803,63.0,0,80,0.0,49.0
2804,56.0,0,80,0.0,34.0
2805,60.0,160,80,0.0,41.0
2806,72.0,0,80,0.0,44.0
2807,78.0,160,80,0.0,52.0
2808,63.0,0,80,0.0,29.0
2809,68.0,0,80,0.0,36.0
2810,56.0,0,80,0.0,29.0
2811,78.0,160,160,0.0,55.0
2812,72.0,0,160,0.0,46.0
2813,56.0,0,160,0.0,33.0
2814,63.0,0,160,0.0,33.0
2815,68.0,160,0,0.0,36.0
2816,73.0,0,80,0.0,44.0
2817,77.0,0,80,0.0,52.0
2818,61.0,0,80,0.0,29.0
2819,76.0,0,80,0.0,44.0
2820,73.0,0,80,0.0,36.0
2821,67.0,160,80,0.0,36.0
2822,81.0,0,80,0.0,52.0
2823,76.0,0,160,0.0,46.0
2824,81.0,0,160,0.0,55.0
2825,73.0,0,160,0.0,39.0
2826,67.0,160,160,0.0,39.0
2827,72.0,0,80,0.0,36.0
2828,68.0,0,80,0.0,29.0
2829,80.0,160,80,0.0,51.0
2830,75.0,0,80,0.0,41.0
2831,90.0,0,80,0.0,46.0
2832,80.0,0,80,0.0,31.0
2833,75.0,160,80,0.0,26.0
2834,68.0,0,80,0.0,26.0
2835,84.0,0,80,0.0,39.0
2836,84.0,0,160,0.0,40.0
2837,75.0,0,160,0.0,29.0
2838,80.0,0,0,0.0,31.0
2839,68.0,0,160,0.0,29.0
2840,90.0,0,160,0.0,49.0
2841,73.0,0,80,0.0,26.0
2842,89.0,0,80,0.0,46.0
2843,85.0,160,80,0.0,39.0
2844,81.0,160,80,0.0,55.0
2845,76.0,0,80,0.0,47.0
2846,67.0,0,80,0.0,33.0
2847,73.0,0,80,0.0,39.0
2848,81.0,0,160,0.0,59.0
2849,76.0,0,160,0.0,49.0
2850,67.0,0,160,0.0,35.0
2851,73.0,160,160,0.0,41.0
2852,80.0,0,80,0.0,56.0
2853,75.0,0,80,0.0,45.0
2854,68.0,160,80,0.0,33.0
2855,72.0,0,80,0.0,39.0
2856,56.0,160,80,0.0,33.0
2857,63.0,0,80,0.0,33.0
2858,68.0,0,80,0.0,39.0
2859,72.0,0,80,0.0,47.0
2860,78.0,0,80,0.0,56.0
2861,78.0,0,160,0.0,59.0
2862,72.0,0,160,0.0,49.0
2863,56.0,0,160,0.0,35.0
2864,63.0,0,160,0.0,35.0
2865,68.0,0,0,0.0,39.0
2866,77.0,0,80,0.0,55.0
2867,73.0,160,80,0.0,47.0
2868,61.0,0,80,0.0,33.0
2869,69.0,160,80,0.0,56.0
2870,64.0,0,80,0.0,47.0
2871,55.0,0,80,0.0,33.0
2872,61.0,0,80,0.0,39.0
2873,69.0,0,160,0.0,59.0
2874,64.0,0,160,0.0,49.0
2875,55.0,160,160,0.0,35.0
2876,61.0,0,160,0.0,41.0
2877,56.0,0,80,0.0,33.0
2878,63.0,0,80,0.0,45.0
2879,68.0,160,80,0.0,56.0
2880,60.0,0,80,0.0,39.0
2881,44.0,160,80,0.0,41.0
2882,66.0,0,80,0.0,62.0
2883,60.0,0,80,0.0,52.0
2884,63.0,0,80,0.0,52.0
2885,56.0,0,80,0.0,49.0
2886,56.0,0,160,0.0,47.0
2887,44.0,0,160,0.0,39.0
2888,66.0,160,160,0.0,59.0
2889,60.0,0,160,0.0,49.0
2890,63.0,0,160,0.0,49.0
2891,43.0,0,80,0.0,33.0
2892,55.0,160,80,0.0,39.0
2893,60.0,0,80,0.0,41.0
2894,64.0,0,80,0.0,42.0
2895,67.0,0,80,0.0,49.0
2896,72.0,0,80,0.0,56.0
2897,66.0,0,80,0.0,47.0
2898,62.0,0,80,0.0,49.0
2899,57.0,160,80,0.0,45.0
2900,55.0,0,80,0.0,38.0
2901,57.0,0,160,0.0,47.0
2902,62.0,0,160,0.0,49.0
2903,72.0,160,160,0.0,59.0
2904,66.0,0,160,0.0,49.0
2905,55.0,0,0,0.0,31.0
2906,71.0,0,80,0.0,48.0
2907,67.0,0,80,0.0,41.0
2908,59.0,160,80,0.0,39.0
2909,62.0,0,80,0.0,42.0
2910,77.0,0,80,0.0,56.0
2911,65.0,0,80,0.0,47.0
2912,71.0,0,80,0.0,47.0
2913,62.0,160,80,0.0,44.0
2914,55.0,0,80,0.0,36.0
2915,67.0,0,80,0.0,47.0
2916,55.0,0,160,0.0,39.0
2917,62.0,0,160,0.0,47.0
2918,77.0,0,160,0.0,59.0
2919,67.0,0,0,0.0,46.0
2920,71.0,0,160,0.0,49.0
2921,65.0,0,160,0.0,49.0
2922,64.0,0,80,0.0,41.0
2923,60.0,0,80,0.0,34.0
2924,55.0,160,80,0.0,34.0
2925,76.0,0,80,0.0,52.0
2926,72.0,0,80,0.0,44.0
2927,74.0,0,80,0.0,49.0
2928,72.0,160,80,0.0,49.0
2929,84.0,0,80,0.0,56.0
2930,78.0,0,80,0.0,47.0
2931,69.0,0,80,0.0,44.0
2932,55.0,0,80,0.0,44.0
2933,62.0,0,80,0.0,44.0
2934,62.0,160,0,0.0,34.0
2935,84.0,0,160,0.0,59.0
2936,72.0,0,160,0.0,49.0
2937,74.0,0,160,0.0,49.0
2938,78.0,0,160,0.0,49.0
2939,69.0,160,160,0.0,47.0
2940,55.0,0,0,0.0,44.0
2941,67.0,0,80,0.0,41.0
2942,79.0,0,80,0.0,41.0
2943,83.0,0,80,0.0,51.0
2944,71.0,0,80,0.0,46.0
2945,55.0,0,80,0.0,47.0
2946,62.0,0,80,0.0,36.0
2947,89.0,0,80,0.0,55.0
2948,67.0,0,80,0.0,44.0
2949,77.0,0,80,0.0,49.0
2950,83.0,0,80,0.0,47.0
2951,79.0,160,80,0.0,49.0
2952,55.0,0,160,0.0,39.0
2953,67.0,0,160,0.0,47.0
2954,62.0,160,0,0.0,34.0
2955,89.0,0,160,0.0,59.0
2956,79.0,0,160,0.0,49.0
2957,83.0,160,160,0.0,49.0
2958,77.0,0,160,0.0,49.0
2959,68.0,0,160,0.0,49.0
2960,70.0,0,160,0.0,45.0
2961,74.0,0,160,0.0,63.0
2962,53.0,160,160,0.0,61.0
2963,80.0,0,160,0.0,80.0
2964,71.0,0,160,0.0,66.0
2965,56.0,0,160,0.0,47.0
2966,65.0,160,160,0.0,56.0
2967,77.0,0,160,0.0,74.0
2968,73.0,0,160,0.0,68.0
2969,74.0,0,160,0.0,71.0
2970,83.0,0,160,0.0,84.0
2971,50.0,160,160,0.0,62.0
2972,56.0,0,160,0.0,49.0
2973,62.0,0,160,0.0,59.0
2974,76.0,0,160,0.0,66.0
2975,80.0,160,160,0.0,79.0
2976,86.0,0,160,0.0,89.0
2977,77.0,0,160,0.0,74.0
2978,47.0,160,160,0.0,64.0
2979,53.0,0,160,0.0,50.0
2980,79.0,0,160,0.0,72.0
2981,83.0,160,160,0.0,85.0
2982,59.0,0,160,0.0,60.0
2983,80.0,0,160,0.0,78.0
2984,89.0,0,160,0.0,92.0
2985,44.0,160,160,0.0,69.0
2986,56.0,0,160,0.0,64.0
2987,50.0,0,160,0.0,53.0
2988,86.0,0,160,0.0,86.0
2989,82.0,160,160,0.0,73.0
2990,41.0,160,0,0.0,69.0
2991,83.0,0,0,0.0,77.0
2992,92.0,0,160,0.0,94.0
2993,95.0,0,160,0.0,90.0
2994,29.0,0,160,0.0,69.0
2995,28.0,160,160,0.0,42.0
2996,40.0,0,0,0.0,36.0
2997,52.0,160,0,0.0,50.0
2998,96.0,0,160,0.0,101.0
2999,84.0,0,160,0.0,85.0
3000,60.0,0,160,0.0,64.0
3001,72.0,0,0,0.0,77.0
3002,67.0,160,0,0.0,64.0
3003,52.0,160,0,0.0,48.0
3004,72.0,0,0,0.0,77.0
3005,40.0,0,0,0.0,40.0
3006,60.0,0,0,0.0,55.0
3007,68.0,0,160,0.0,55.0
3008,72.0,0,0,0.0,75.0
3009,68.0,0,160,0.0,63.0
3010,60.0,160,160,0.0,63.0
3011,72.0,0,0,0.0,75.0
3012,40.0,0,0,0.0,41.0
3013,52.0,0,0,0.0,49.0
3014,68.0,0,0,0.0,57.0
3015,60.0,160,160,0.0,63.0
3016,72.0,0,160,0.0,80.0
3017,60.0,160,0,0.0,64.0
3018,52.0,0,160,0.0,55.0
3019,40.0,160,160,0.0,38.0
3020,72.0,0,0,0.0,77.0
3021,39.0,0,0,0.0,44.0
3022,51.0,0,0,0.0,52.0
3023,60.0,160,0,0.0,64.0
3024,68.0,0,0,0.0,64.0
3025,68.0,0,0,0.0,68.0
3026,60.0,160,160,0.0,68.0
3027,72.0,160,0,0.0,79.0
3028,39.0,0,160,0.0,47.0
3029,51.0,0,160,0.0,56.0
3030,68.0,0,160,0.0,67.0
3031,72.0,0,0,0.0,79.0
3032,60.0,160,0,0.0,67.0
3033,52.0,0,160,0.0,52.0
3034,40.0,0,0,0.0,44.0
3035,52.0,0,160,0.0,52.0
3036,60.0,0,0,0.0,67.0
3037,68.0,0,0,0.0,67.0
3038,72.0,0,80,0.0,80.0
3039,52.0,160,80,0.0,56.0
3040,40.0,0,80,0.0,46.0
3041,72.0,0,80,0.0,81.0
3042,60.0,160,80,0.0,68.0
3043,52.0,0,80,0.0,57.0
3044,40.0,0,80,0.0,47.0
3045,69.0,0,80,0.0,68.0
3046,40.0,0,80,0.0,48.0
3047,72.0,0,80,0.0,82.0
3048,52.0,0,80,0.0,58.0
3049,69.0,160,80,0.0,69.0
3050,60.0,0,80,0.0,69.0
3051,40.0,0,80,0.0,49.0
3052,60.0,160,80,0.0,71.0
3053,69.0,0,80,0.0,71.0
3054,72.0,0,80,0.0,83.0
3055,52.0,0,80,0.0,58.0
3056,73.0,0,80,0.0,84.0
3057,61.0,160,80,0.0,71.0
3058,40.0,0,80,0.0,50.0
3059,52.0,0,80,0.0,59.0
3060,69.0,0,80,0.0,71.0
3061,69.0,0,80,0.0,71.0
3062,73.0,160,80,0.0,85.0
3063,61.0,0,80,0.0,71.0
3064,40.0,0,80,0.0,51.0
3065,52.0,0,80,0.0,61.0
3066,61.0,0,80,0.0,72.0
3067,52.0,0,80,0.0,62.0
3068,73.0,0,80,0.0,86.0
3069,40.0,160,80,0.0,52.0
3070,69.0,0,80,0.0,72.0
3071,73.0,0,80,0.0,88.0
3072,61.0,0,80,0.0,73.0
3073,51.0,160,80,0.0,62.0
3074,39.0,0,80,0.0,52.0
3075,69.0,0,80,0.0,73.0
3076,39.0,0,80,0.0,53.0
3077,51.0,0,80,0.0,63.0
3078,61.0,160,80,0.0,75.0
3079,73.0,0,80,0.0,90.0
3080,69.0,0,80,0.0,75.0
3081,61.0,0,80,0.0,77.0
3082,39.0,0,80,0.0,53.0
3083,51.0,160,80,0.0,64.0
3084,73.0,0,80,0.0,91.0
3085,69.0,0,80,0.0,77.0
3086,68.0,0,80,0.0,78.0
3087,73.0,0,80,0.0,92.0
3088,61.0,0,80,0.0,78.0
3089,40.0,160,80,0.0,55.0
3090,52.0,0,80,0.0,66.0
3091,67.0,0,80,0.0,79.0
3092,61.0,160,80,0.0,79.0
3093,73.0,0,80,0.0,93.0
3094,52.0,0,80,0.0,67.0
3095,40.0,0,80,0.0,56.0
3096,61.0,0,80,0.0,73.0
3097,68.0,0,80,0.0,86.0
3098,73.0,0,80,0.0,102.0
3099,41.0,160,80,0.0,52.0
3100,53.0,0,80,0.0,74.0
3101,68.0,0,160,0.0,80.0
3102,56.0,0,0,0.0,51.0
3103,77.0,0,160,0.0,95.0
3104,49.0,0,0,0.0,51.0
3105,65.0,0,160,0.0,68.0
3106,61.0,160,0,0.0,72.0
3107,65.0,0,0,0.0,72.0
3108,68.0,160,0,0.0,85.0
3109,77.0,0,0,0.0,101.0
3110,49.0,0,0,0.0,53.0
3111,56.0,0,160,0.0,53.0
3112,61.0,0,160,0.0,75.0
3113,75.0,160,160,0.0,95.0
3114,63.0,0,160,0.0,68.0
3115,73.0,0,160,0.0,95.0
3116,61.0,160,160,0.0,68.0
3117,30.0,160,160,0.0,68.0
3118,42.0,0,160,0.0,96.0
3119,54.0,0,160,0.0,50.0
3120,70.0,160,160,0.0,80.0
3121,65.0,0,160,0.0,68.0
3122,77.0,0,0,0.0,95.0
3123,61.0,0,160,0.0,71.0
3124,49.0,0,160,0.0,50.0
3125,49.0,0,160,0.0,51.0
3126,54.0,0,160,0.0,51.0
3127,70.0,160,0,0.0,85.0
3128,65.0,160,160,0.0,68.0
3129,61.0,0,0,0.0,75.0
3130,77.0,0,0,0.0,101.0
3131,65.0,0,160,0.0,72.0
3132,54.0,0,160,0.0,53.0
3133,49.0,0,160,0.0,53.0
3134,63.0,160,160,0.0,68.0
3135,75.0,0,160,0.0,95.0
3136,61.0,0,160,0.0,68.0
3137,73.0,160,160,0.0,95.0
3138,44.0,160,160,0.0,96.0
3139,32.0,0,160,0.0,68.0
3140,56.0,160,160,0.0,50.0
3141,65.0,0,0,0.0,68.0
3142,77.0,0,0,0.0,95.0
3143,49.0,160,0,0.0,51.0
3144,68.0,0,0,0.0,80.0
3145,61.0,0,0,0.0,72.0
3146,56.0,0,0,0.0,53.0
3147,61.0,0,0,0.0,75.0
3148,77.0,0,0,0.0,101.0
3149,65.0,160,160,0.0,72.0
3150,68.0,0,160,0.0,85.0
3151,49.0,0,160,0.0,53.0
3152,75.0,0,160,0.0,95.0
3153,63.0,160,160,0.0,68.0
3154,73.0,160,160,0.0,95.0
3155,61.0,0,160,0.0,68.0
3156,34.0,0,160,0.0,68.0
3157,46.0,160,160,0.0,96.0
3158,58.0,160,0,0.0,51.0
3159,61.0,0,0,0.0,72.0
3160,77.0,0,160,0.0,95.0
3161,67.0,0,160,0.0,80.0
3162,65.0,0,160,0.0,68.0
3163,51.0,0,0,0.0,51.0
3164,61.0,0,0,0.0,75.0
3165,58.0,0,0,0.0,53.0
3166,77.0,160,0,0.0,101.0
3167,67.0,0,0,0.0,85.0
3168,65.0,0,0,0.0,72.0
3169,51.0,0,160,0.0,53.0
3170,75.0,0,160,0.0,95.0
3171,63.0,160,160,0.0,68.0
3172,61.0,160,160,0.0,68.0
3173,73.0,0,160,0.0,95.0
3174,63.0,0,1920,0.0,101.0
3175,51.0,160,1920,0.0,84.0
3176,61.0,0,1920,0.0,95.0
3177,39.0,0,1920,0.0,70.0
3178,27.0,0,1920,0.0,59.0
3179,55.0,0,1920,0.0,84.0
3180,65.0,0,1860,0.0,95.0
3181,44.0,0,1920,0.0,66.0
3182,32.0,0,1920,0.0,56.0
3183,54.0,0,1920,0.0,80.0
3184,66.0,1860,60,0.0,86.0
3185,60.0,1920,1920,0.0,80.0
3186,45.0,0,120,0.0,66.0
3187,33.0,60,120,0.0,56.0
3188,30.0,120,120,0.0,50.0
3189,42.0,0,120,0.0,60.0
3190,44.0,0,120,0.0,66.0
3191,32.0,240,120,0.0,56.0
3192,45.0,0,120,0.0,62.0
3193,33.0,120,120,0.0,52.0
3194,42.0,0,120,0.0,62.0
3195,30.0,120,120,0.0,52.0
3196,66.0,0,960,0.0,93.0
3197,61.0,0,960,0.0,79.0
3198,54.0,0,960,0.0,79.0
3199,45.0,0,120,0.0,44.0
3200,33.0,360,120,0.0,37.0
3201,42.0,120,120,0.0,39.0
3202,30.0,0,120,0.0,33.0
3203,32.0,240,120,0.0,37.0
3204,44.0,0,120,0.0,44.0
3205,45.0,120,120,0.0,39.0
3206,33.0,0,120,0.0,33.0
3207,42.0,120,120,0.0,39.0
3208,30.0,0,120,0.0,33.0
3209,33.0,0,120,0.0,37.0
3210,45.0,360,120,0.0,44.0
3211,42.0,120,120,0.0,39.0
3212,30.0,0,120,0.0,34.0
3213,32.0,240,120,0.0,37.0
3214,44.0,0,120,0.0,44.0
3215,45.0,0,120,0.0,39.0
3216,33.0,120,120,0.0,34.0
3217,54.0,0,120,0.0,39.0
3218,42.0,120,120,0.0,34.0
3219,69.0,0,480,0.0,47.0
3220,54.0,360,480,0.0,41.0
3221,38.0,0,480,0.0,34.0
3222,70.0,480,480,0.0,44.0
3223,60.0,0,960,0.0,31.0
3224,71.0,0,360,0.0,47.0
3225,62.0,360,0,0.0,40.0
3226,62.0,120,0,0.0,44.0
3227,50.0,0,960,0.0,30.0
3228,59.0,0,960,0.0,39.0
3229,55.0,480,960,0.0,37.0
3230,43.0,0,960,0.0,30.0
3231,50.0,0,360,0.0,39.0
3232,38.0,480,360,0.0,33.0
3233,43.0,0,120,0.0,35.0
3234,31.0,360,120,0.0,29.0
3235,31.0,0,480,0.0,30.0
3236,43.0,120,480,0.0,37.0
3237,38.0,480,120,0.0,39.0
3238,31.0,120,120,0.0,36.0
3239,33.0,240,120,0.0,39.0
3240,35.0,120,120,0.0,36.0
3241,31.0,120,120,0.0,36.0
3242,38.0,0,120,0.0,35.0
3243,50.0,360,120,0.0,41.0
3244,31.0,0,120,0.0,31.0
3245,43.0,120,120,0.0,39.0
3246,45.0,240,120,0.0,42.0
3247,33.0,0,120,0.0,36.0
3248,35.0,120,120,0.0,33.0
3249,47.0,0,120,0.0,39.0
3250,31.0,0,120,0.0,33.0
3251,43.0,120,120,0.0,39.0
3252,50.0,0,120,0.0,46.0
3253,38.0,360,120,0.0,38.0
3254,44.0,0,120,0.0,42.0
3255,32.0,120,120,0.0,36.0
3256,45.0,0,120,0.0,47.0
3257,33.0,240,120,0.0,40.0
3258,35.0,0,120,0.0,36.0
3259,47.0,120,120,0.0,42.0
3260,32.0,0,120,0.0,37.0
3261,44.0,120,120,0.0,45.0
3262,38.0,360,120,0.0,48.0
3263,50.0,0,120,0.0,58.0
3264,32.0,120,120,0.0,45.0
3265,44.0,0,120,0.0,53.0
3266,33.0,0,120,0.0,49.0
3267,45.0,240,120,0.0,60.0
3268,47.0,120,120,0.0,53.0
3269,35.0,0,120,0.0,46.0
3270,44.0,0,120,0.0,56.0
3271,32.0,120,120,0.0,47.0
3272,38.0,0,120,0.0,52.0
3273,50.0,360,120,0.0,63.0
3274,35.0,120,120,0.0,49.0
3275,47.0,0,120,0.0,58.0
3276,37.0,0,120,0.0,57.0
3277,49.0,240,120,0.0,67.0
3278,50.0,0,120,0.0,60.0
3279,38.0,120,120,0.0,51.0
3280,47.0,0,120,0.0,52.0
3281,59.0,120,120,0.0,62.0
3282,71.0,0,480,0.0,49.0
3283,56.0,360,480,0.0,40.0
3284,72.0,480,480,0.0,47.0
3285,40.0,0,480,0.0,36.0
3286,62.0,0,960,0.0,41.0
3287,73.0,0,360,0.0,49.0
3288,64.0,0,1320,0.0,41.0
3289,65.0,120,0,0.0,47.0
3290,52.0,480,480,0.0,33.0
3291,57.0,0,960,0.0,39.0
3292,45.0,0,960,0.0,33.0
3293,45.0,0,120,0.0,39.0
3294,33.0,480,120,0.0,33.0
3295,41.0,120,120,0.0,36.0
3296,29.0,0,120,0.0,29.0
3297,43.0,240,120,0.0,39.0
3298,31.0,0,120,0.0,33.0
3299,45.0,0,120,0.0,35.0
3300,33.0,120,120,0.0,29.0
3301,29.0,0,120,0.0,29.0
3302,41.0,120,120,0.0,35.0
3303,61.0,0,1920,0.0,41.0
3304,53.0,0,0,0.0,38.0
3305,65.0,360,360,0.0,40.0
3306,73.0,0,360,0.0,56.0
3307,66.0,360,120,0.0,55.0
3308,61.0,0,960,0.0,39.0
3309,54.0,120,480,0.0,39.0
3310,45.0,0,960,0.0,31.0
3311,66.0,0,0,0.0,51.0
3312,74.0,0,360,0.0,61.0
3313,67.0,120,0,0.0,60.0
3314,54.0,0,480,0.0,41.0
3315,55.0,0,480,0.0,42.0
3316,47.0,0,960,0.0,35.0
3317,62.0,480,960,0.0,51.0
3318,67.0,0,0,0.0,58.0
3319,35.0,480,120,0.0,35.0
3320,47.0,0,120,0.0,41.0
3321,43.0,0,120,0.0,38.0
3322,31.0,120,120,0.0,31.0
3323,33.0,0,120,0.0,38.0
3324,45.0,240,120,0.0,46.0
3325,47.0,0,120,0.0,41.0
3326,35.0,120,120,0.0,35.0
3327,31.0,120,120,0.0,36.0
3328,43.0,0,120,0.0,42.0
3329,75.0,0,730,0.0,75.0
3330,74.0,120,240,0.0,68.0
3331,67.0,240,0,0.0,58.0
3332,65.0,0,960,0.0,58.0
3333,36.0,0,120,0.0,35.0
3334,48.0,0,120,0.0,41.0
3335,43.0,120,120,0.0,38.0
3336,31.0,0,120,0.0,31.0
3337,74.0,0,370,0.0,73.0
3338,63.0,0,480,0.0,54.0
3339,48.0,0,120,0.0,46.0
3340,36.0,240,120,0.0,38.0
3341,38.0,120,120,0.0,35.0
3342,50.0,0,120,0.0,41.0
3343,31.0,0,120,0.0,36.0
3344,43.0,120,120,0.0,42.0
3345,72.0,0,480,0.0,51.0
3346,70.0,240,120,0.0,61.0
3347,65.0,0,480,0.0,44.0
3348,39.0,0,120,0.0,29.0
3349,51.0,0,120,0.0,35.0
3350,43.0,0,120,0.0,31.0
3351,31.0,120,120,0.0,26.0
3352,70.0,120,370,0.0,68.0
3353,68.0,120,0,0.0,61.0
3354,50.0,0,120,0.0,35.0
3355,38.0,240,120,0.0,29.0
3356,39.0,0,120,0.0,26.0
3357,51.0,0,120,0.0,30.0
3358,56.0,0,120,0.0,30.0
3359,44.0,120,120,0.0,26.0
3360,72.0,40,170,0.0,62.0
3361,63.0,0,960,0.0,58.0
3362,60.0,0,960,0.0,50.0
3363,70.0,160,170,0.0,61.0
3364,53.0,160,120,0.0,35.0
3365,41.0,0,120,0.0,29.0
3366,50.0,0,120,0.0,31.0
3367,38.0,120,120,0.0,26.0
3368,51.0,0,120,0.0,35.0
3369,39.0,240,120,0.0,29.0
3370,68.0,0,490,0.0,64.0
3371,53.0,0,120,0.0,30.0
3372,41.0,0,120,0.0,26.0
3373,62.0,120,120,0.0,30.0
3374,67.0,120,0,0.0,67.0
3375,50.0,0,120,0.0,26.0
3376,59.0,0,960,0.0,49.0
3377,79.0,0,240,0.0,70.0
3378,70.0,0,120,0.0,64.0
3379,58.0,0,120,0.0,55.0
3380,40.0,240,160,0.0,42.0
3381,61.0,120,120,0.0,49.0
3382,69.0,0,120,0.0,58.0
3383,57.0,40,120,0.0,51.0
3384,55.0,160,160,0.0,39.0
3385,45.0,40,320,0.0,39.0
3386,67.0,0,120,0.0,61.0
3387,66.0,0,120,0.0,67.0
3388,62.0,120,120,0.0,56.0
3389,54.0,0,160,0.0,44.0
3390,69.0,0,120,0.0,61.0
3391,57.0,120,120,0.0,51.0
3392,45.0,40,160,0.0,40.0
3393,38.0,160,160,0.0,40.0
3394,72.0,0,0,0.0,68.0
3395,60.0,0,0,0.0,57.0
3396,41.0,120,160,0.0,44.0
3397,63.0,120,120,0.0,52.0
3398,71.0,0,120,0.0,63.0
3399,59.0,40,120,0.0,52.0
3400,69.0,0,120,0.0,62.0
3401,57.0,160,160,0.0,39.0
3402,47.0,40,320,0.0,38.0
3403,64.0,0,120,0.0,57.0
3404,68.0,0,120,0.0,68.0
3405,56.0,120,160,0.0,44.0
3406,71.0,0,120,0.0,62.0
3407,59.0,120,120,0.0,52.0
3408,47.0,40,160,0.0,39.0
3409,62.0,120,0,0.0,59.0
3410,74.0,0,0,0.0,70.0
3411,40.0,160,160,0.0,39.0
3412,43.0,0,160,0.0,46.0
3413,73.0,120,120,0.0,64.0
3414,65.0,0,120,0.0,55.0
3415,49.0,40,160,0.0,40.0
3416,71.0,40,120,0.0,62.0
3417,59.0,160,160,0.0,40.0
3418,61.0,0,120,0.0,52.0
3419,42.0,120,160,0.0,49.0
3420,70.0,0,160,0.0,64.0
3421,66.0,0,160,0.0,55.0
3422,61.0,160,160,0.0,58.0
3423,73.0,0,160,0.0,68.0
3424,49.0,0,160,0.0,42.0
3425,73.0,0,160,0.0,72.0
3426,70.0,160,160,0.0,61.0
3427,58.0,0,160,0.0,42.0
3428,64.0,0,160,0.0,62.0
3429,43.0,0,160,0.0,53.0
3430,76.0,160,0,0.0,78.0
3431,73.0,0,160,0.0,66.0
3432,52.0,0,160,0.0,58.0
3433,61.0,0,160,0.0,60.0
3434,82.0,0,160,0.0,81.0
3435,70.0,160,160,0.0,67.0
3436,80.0,160,160,0.0,72.0
3437,85.0,0,160,0.0,86.0
3438,44.0,0,160,0.0,66.0
3439,88.0,160,160,0.0,84.0
3440,76.0,0,160,0.0,75.0
3441,52.0,0,160,0.0,69.0
3442,88.0,0,160,0.0,77.0
3443,61.0,160,160,0.0,74.0
3444,100.0,0,160,0.0,86.0
3445,44.0,0,120,0.0,59.0
3446,32.0,160,120,0.0,49.0
3447,40.0,120,120,0.0,53.0
3448,28.0,0,120,0.0,44.0
3449,42.0,0,120,0.0,62.0
3450,30.0,240,120,0.0,51.0
3451,44.0,120,120,0.0,56.0
3452,32.0,0,120,0.0,46.0
3453,40.0,0,120,0.0,57.0
3454,28.0,120,120,0.0,47.0
3455,72.0,0,730,0.0,82.0
3456,70.0,120,240,0.0,72.0
3457,58.0,0,240,0.0,52.0
3458,60.0,0,0,0.0,53.0
3459,64.0,0,960,0.0,69.0
3460,44.0,0,120,0.0,59.0
3461,32.0,240,120,0.0,49.0
3462,29.0,120,120,0.0,44.0
3463,41.0,0,120,0.0,53.0
3464,31.0,0,120,0.0,51.0
3465,43.0,240,120,0.0,62.0
3466,70.0,0,480,0.0,77.0
3467,58.0,0,480,0.0,64.0
3468,44.0,120,120,0.0,56.0
3469,32.0,0,120,0.0,46.0
3470,41.0,0,120,0.0,57.0
3471,29.0,120,120,0.0,47.0
3472,56.0,0,360,0.0,55.0
3473,68.0,240,0,0.0,67.0
3474,68.0,0,0,0.0,70.0
3475,65.0,0,960,0.0,56.0
3476,56.0,0,120,0.0,49.0
3477,46.0,0,120,0.0,46.0
3478,34.0,120,120,0.0,38.0
3479,43.0,120,120,0.0,42.0
3480,31.0,0,120,0.0,35.0
3481,56.0,0,360,0.0,52.0
3482,61.0,0,480,0.0,58.0
3483,67.0,240,120,0.0,60.0
3484,44.0,0,120,0.0,51.0
3485,32.0,0,120,0.0,41.0
3486,34.0,0,120,0.0,39.0
3487,46.0,0,120,0.0,46.0
3488,55.0,120,120,0.0,58.0
3489,67.0,0,170,0.0,68.0
3490,43.0,0,120,0.0,40.0
3491,55.0,120,120,0.0,47.0
3492,53.0,40,160,0.0,44.0
3493,64.0,0,800,0.0,61.0
3494,65.0,0,170,0.0,63.0
3495,64.0,0,160,0.0,60.0
3496,52.0,160,160,0.0,30.0
3497,48.0,0,120,0.0,44.0
3498,36.0,0,120,0.0,36.0
3499,45.0,0,120,0.0,39.0
3500,33.0,120,120,0.0,31.0
3501,55.0,160,480,0.0,45.0
3502,46.0,0,120,0.0,44.0
3503,34.0,240,120,0.0,36.0
3504,67.0,0,490,0.0,71.0
3505,48.0,0,120,0.0,38.0
3506,36.0,0,120,0.0,31.0
3507,48.0,120,120,0.0,31.0
3508,60.0,0,120,0.0,38.0
3509,66.0,0,240,0.0,62.0
3510,54.0,120,240,0.0,42.0
3511,69.0,120,240,0.0,59.0
3512,81.0,0,240,0.0,68.0
3513,63.0,0,960,0.0,58.0
3514,60.0,240,120,0.0,60.0
3515,72.0,0,120,0.0,70.0
3516,39.0,0,160,0.0,55.0
3517,66.0,0,120,0.0,53.0
3518,71.0,120,120,0.0,63.0
3519,47.0,40,320,0.0,42.0
3520,57.0,160,160,0.0,42.0
3521,69.0,40,120,0.0,67.0
3522,59.0,0,120,0.0,56.0
3523,68.0,0,120,0.0,73.0
3524,64.0,0,120,0.0,61.0
3525,56.0,120,160,0.0,48.0
3526,59.0,120,120,0.0,56.0
3527,71.0,0,120,0.0,67.0
3528,47.0,40,160,0.0,44.0
3529,40.0,160,160,0.0,44.0
3530,62.0,0,120,0.0,57.0
3531,74.0,0,0,0.0,74.0
3532,62.0,0,120,0.0,62.0
3533,41.0,120,160,0.0,48.0
3534,73.0,120,120,0.0,69.0
3535,68.0,0,120,0.0,57.0
3536,61.0,0,120,0.0,57.0
3537,71.0,40,120,0.0,68.0
3538,59.0,160,160,0.0,42.0
3539,49.0,40,320,0.0,41.0
3540,70.0,0,120,0.0,74.0
3541,66.0,0,120,0.0,62.0
3542,58.0,120,160,0.0,48.0
3543,61.0,0,120,0.0,57.0
3544,73.0,120,120,0.0,68.0
3545,49.0,40,160,0.0,42.0
3546,76.0,0,120,0.0,70.0
3547,64.0,40,120,0.0,58.0
3548,42.0,160,160,0.0,42.0
3549,76.0,0,120,0.0,77.0
3550,64.0,120,120,0.0,64.0
3551,43.0,0,160,0.0,50.0
3552,75.0,120,120,0.0,70.0
3553,70.0,0,120,0.0,60.0
3554,73.0,0,120,0.0,68.0
3555,63.0,40,120,0.0,57.0
3556,61.0,160,160,0.0,44.0
3557,51.0,40,320,0.0,44.0
3558,68.0,120,160,0.0,60.0
3559,72.0,0,160,0.0,70.0
3560,44.0,0,160,0.0,53.0
3561,63.0,160,160,0.0,63.0
3562,75.0,0,0,0.0,79.0
3563,51.0,0,160,0.0,46.0
3564,72.0,160,160,0.0,67.0
3565,60.0,0,160,0.0,46.0
3566,45.0,0,160,0.0,58.0
3567,78.0,0,160,0.0,82.0
3568,66.0,160,160,0.0,68.0
3569,54.0,0,160,0.0,63.0
3570,78.0,0,160,0.0,85.0
3571,75.0,160,160,0.0,71.0
3572,63.0,160,160,0.0,66.0
3573,81.0,0,160,0.0,89.0
3574,69.0,0,160,0.0,73.0
3575,48.0,160,160,0.0,71.0
3576,78.0,0,160,0.0,80.0
3577,81.0,0,160,0.0,94.0
3578,86.0,160,160,0.0,97.0
3579,74.0,0,160,0.0,82.0
3580,54.0,0,160,0.0,74.0
3581,90.0,0,160,0.0,104.0
3582,78.0,0,160,0.0,85.0
3583,62.0,160,160,0.0,81.0
3584,86.0,160,120,0.0,88.0
3585,91.0,0,120,0.0,104.0
3586,46.0,0,160,0.0,86.0
3587,34.0,0,160,0.0,73.0
3588,79.0,0,120,0.0,79.0
3589,82.0,120,120,0.0,93.0
3590,50.0,0,160,0.0,61.0
3591,58.0,40,160,0.0,72.0
3592,55.0,160,160,0.0,68.0
3593,62.0,0,160,0.0,80.0
3594,81.0,40,120,0.0,80.0
3595,84.0,0,120,0.0,94.0
3596,82.0,0,120,0.0,84.0
3597,86.0,0,120,0.0,100.0
3598,58.0,0,160,0.0,68.0
3599,67.0,120,160,0.0,80.0
3600,79.0,0,120,0.0,94.0
3601,74.0,120,120,0.0,80.0
3602,55.0,0,160,0.0,63.0
3603,62.0,40,160,0.0,75.0
3604,38.0,0,80,0.0,66.0
3605,26.0,240,80,0.0,56.0
3606,82.0,0,120,0.0,88.0
3607,86.0,0,120,0.0,104.0
3608,38.0,0,160,0.0,86.0
3609,26.0,80,160,0.0,73.0
3610,74.0,120,120,0.0,79.0
3611,79.0,0,120,0.0,93.0
3612,58.0,0,160,0.0,72.0
3613,50.0,40,160,0.0,61.0
3614,81.0,0,120,0.0,89.0
3615,55.0,160,160,0.0,63.0
3616,62.0,0,160,0.0,75.0
3617,78.0,40,120,0.0,75.0
3618,82.0,0,120,0.0,94.0
3619,79.0,120,120,0.0,80.0
3620,58.0,0,160,0.0,63.0
3621,67.0,0,160,0.0,75.0
3622,91.0,0,120,0.0,89.0
3623,86.0,120,120,0.0,75.0
3624,55.0,0,160,0.0,60.0
3625,62.0,40,160,0.0,71.0
3626,58.0,0,0,0.0,82.0
3627,50.0,0,160,0.0,52.0
3628,89.0,160,120,0.0,101.0
3629,85.0,0,120,0.0,84.0
3630,46.0,0,160,0.0,70.0
3631,82.0,0,120,0.0,90.0
3632,77.0,120,120,0.0,75.0
3633,53.0,40,160,0.0,59.0
3634,61.0,0,160,0.0,70.0
3635,58.0,0,160,0.0,66.0
3636,81.0,0,120,0.0,77.0
3637,84.0,40,120,0.0,91.0
3638,65.0,160,160,0.0,77.0
3639,82.0,0,120,0.0,81.0
3640,85.0,0,120,0.0,96.0
3641,70.0,120,160,0.0,77.0
3642,61.0,0,160,0.0,66.0
3643,77.0,0,120,0.0,91.0
3644,73.0,120,120,0.0,77.0
3645,58.0,0,160,0.0,61.0
3646,65.0,40,160,0.0,72.0
3647,49.0,240,80,0.0,63.0
3648,37.0,0,80,0.0,53.0
3649,85.0,0,120,0.0,82.0
3650,89.0,0,120,0.0,99.0
3651,49.0,0,160,0.0,82.0
3652,37.0,80,160,0.0,70.0
3653,77.0,0,120,0.0,75.0
3654,82.0,120,120,0.0,90.0
3655,61.0,0,160,0.0,70.0
3656,53.0,40,160,0.0,59.0
3657,81.0,0,120,0.0,72.0
3658,84.0,40,120,0.0,85.0
3659,58.0,160,160,0.0,61.0
3660,65.0,0,160,0.0,72.0
3661,85.0,0,120,0.0,91.0
3662,82.0,0,120,0.0,77.0
3663,61.0,120,160,0.0,61.0
3664,70.0,0,160,0.0,72.0
3665,89.0,0,120,0.0,72.0
3666,94.0,120,120,0.0,85.0
3667,58.0,0,160,0.0,58.0
3668,65.0,40,160,0.0,69.0
3669,61.0,160,160,0.0,60.0
3670,53.0,0,160,0.0,50.0
3671,89.0,160,120,0.0,104.0
3672,84.0,0,120,0.0,88.0
3673,44.0,0,160,0.0,86.0
3674,32.0,0,160,0.0,73.0
3675,77.0,0,120,0.0,79.0
3676,80.0,120,120,0.0,93.0
3677,53.0,40,160,0.0,61.0
3678,60.0,0,160,0.0,72.0
3679,65.0,160,160,0.0,80.0
3680,82.0,40,120,0.0,91.0
3681,79.0,0,120,0.0,77.0
3682,56.0,0,160,0.0,68.0
3683,80.0,0,120,0.0,77.0
3684,84.0,120,120,0.0,96.0
3685,68.0,0,160,0.0,80.0
3686,60.0,0,160,0.0,68.0
3687,72.0,120,120,0.0,77.0
3688,77.0,0,120,0.0,91.0
3689,65.0,0,160,0.0,75.0
3690,56.0,40,160,0.0,63.0
3691,36.0,0,20,0.0,86.0
3692,24.0,60,20,0.0,73.0
3693,84.0,0,120,0.0,104.0
3694,80.0,0,120,0.0,88.0
3695,77.0,120,120,0.0,93.0
3696,72.0,0,120,0.0,79.0
3697,60.0,40,160,0.0,72.0
3698,53.0,0,160,0.0,61.0
3699,76.0,0,120,0.0,75.0
3700,79.0,40,120,0.0,89.0
3701,56.0,160,160,0.0,63.0
3702,65.0,0,160,0.0,75.0
3703,77.0,0,120,0.0,80.0
3704,80.0,120,120,0.0,94.0
3705,60.0,0,160,0.0,63.0
3706,68.0,0,160,0.0,75.0
3707,89.0,0,120,0.0,89.0
3708,84.0,120,120,0.0,75.0
3709,56.0,0,160,0.0,60.0
3710,65.0,40,160,0.0,71.0
3711,53.0,0,160,0.0,52.0
3712,60.0,160,160,0.0,62.0
3713,88.0,0,120,0.0,107.0
3714,84.0,160,120,0.0,90.0
3715,44.0,0,160,0.0,73.0
3716,56.0,0,160,0.0,86.0
3717,80.0,0,120,0.0,93.0
3718,76.0,120,120,0.0,79.0
3719,60.0,0,160,0.0,72.0
3720,52.0,40,160,0.0,61.0
3721,64.0,0,160,0.0,80.0
3722,56.0,160,160,0.0,68.0
3723,82.0,40,120,0.0,91.0
3724,79.0,0,120,0.0,77.0
3725,80.0,0,120,0.0,78.0
3726,84.0,0,120,0.0,94.0
3727,68.0,0,160,0.0,80.0
3728,60.0,120,160,0.0,68.0
3729,76.0,120,120,0.0,91.0
3730,72.0,0,120,0.0,77.0
3731,64.0,0,160,0.0,75.0
3732,56.0,40,160,0.0,63.0
3733,48.0,0,20,0.0,86.0
3734,36.0,0,20,0.0,73.0
3735,80.0,60,120,0.0,88.0
3736,84.0,0,120,0.0,104.0
3737,76.0,0,120,0.0,93.0
3738,72.0,120,120,0.0,79.0
3739,52.0,40,160,0.0,61.0
3740,60.0,0,160,0.0,72.0
3741,56.0,160,160,0.0,63.0
3742,79.0,40,120,0.0,89.0
3743,76.0,0,0,0.0,80.0
3744,64.0,0,160,0.0,75.0
3745,80.0,0,120,0.0,94.0
3746,60.0,0,160,0.0,63.0
3747,68.0,120,160,0.0,75.0
3748,88.0,120,120,0.0,89.0
3749,84.0,0,120,0.0,75.0
3750,56.0,0,160,0.0,60.0
3751,64.0,40,160,0.0,71.0
3752,52.0,0,160,0.0,52.0
3753,60.0,160,160,0.0,62.0
3754,88.0,160,120,0.0,104.0
3755,83.0,0,120,0.0,88.0
3756,43.0,0,160,0.0,73.0
3757,55.0,40,0,0.0,61.0
3758,79.0,0,120,0.0,93.0
3759,76.0,120,120,0.0,79.0
3760,64.0,0,160,0.0,72.0
3761,59.0,0,160,0.0,68.0
3762,81.0,0,120,0.0,91.0
3763,78.0,40,120,0.0,77.0
3764,67.0,160,160,0.0,80.0
3765,79.0,0,120,0.0,81.0
3766,83.0,0,120,0.0,96.0
3767,71.0,120,40,0.0,77.0
3768,64.0,0,160,0.0,68.0
3769,76.0,0,120,0.0,91.0
3770,59.0,40,160,0.0,63.0
3771,67.0,0,160,0.0,75.0
3772,47.0,60,20,0.0,86.0
3773,35.0,0,20,0.0,73.0
3774,79.0,0,120,0.0,88.0
3775,83.0,0,120,0.0,104.0
3776,71.0,0,120,0.0,79.0
3777,76.0,120,120,0.0,93.0
3778,55.0,0,160,0.0,61.0
3779,64.0,40,160,0.0,72.0
3780,78.0,40,120,0.0,89.0
3781,67.0,160,160,0.0,75.0
3782,59.0,0,160,0.0,63.0
3783,75.0,0,120,0.0,75.0
3784,76.0,120,120,0.0,80.0
3785,79.0,0,120,0.0,94.0
3786,64.0,0,160,0.0,63.0
3787,71.0,0,160,0.0,75.0
3788,83.0,0,120,0.0,75.0
3789,88.0,120,120,0.0,89.0
3790,59.0,40,160,0.0,60.0
3791,67.0,0,160,0.0,71.0
3792,55.0,0,0,0.0,86.0
3793,64.0,160,160,0.0,62.0
3794,86.0,0,120,0.0,104.0
3795,83.0,160,120,0.0,88.0
3796,43.0,0,160,0.0,73.0
3797,74.0,0,120,0.0,79.0
3798,79.0,120,120,0.0,93.0
3799,59.0,40,160,0.0,72.0
3800,50.0,0,160,0.0,61.0
3801,55.0,160,160,0.0,68.0
3802,81.0,40,120,0.0,91.0
3803,62.0,0,160,0.0,80.0
3804,78.0,0,120,0.0,77.0
3805,83.0,0,120,0.0,96.0
3806,79.0,0,120,0.0,81.0
3807,67.0,120,160,0.0,80.0
3808,59.0,0,160,0.0,68.0
3809,74.0,120,120,0.0,91.0
3810,71.0,0,120,0.0,77.0
3811,55.0,0,160,0.0,63.0
3812,62.0,40,160,0.0,75.0
3813,31.0,0,20,0.0,73.0
3814,43.0,60,20,0.0,86.0
3815,86.0,0,120,0.0,104.0
3816,83.0,0,120,0.0,88.0
3817,79.0,120,120,0.0,93.0
3818,74.0,0,120,0.0,79.0
3819,50.0,0,160,0.0,61.0
3820,59.0,40,160,0.0,72.0
3821,55.0,160,160,0.0,63.0
3822,81.0,40,120,0.0,89.0
3823,62.0,0,160,0.0,75.0
3824,78.0,0,120,0.0,75.0
3825,83.0,0,120,0.0,94.0
3826,79.0,0,120,0.0,80.0
3827,67.0,120,160,0.0,75.0
3828,59.0,0,160,0.0,63.0
3829,86.0,120,120,0.0,75.0
3830,91.0,0,120,0.0,89.0
3831,55.0,40,160,0.0,60.0
3832,62.0,0,160,0.0,71.0
3833,50.0,160,160,0.0,52.0
3834,59.0,0,160,0.0,62.0
3835,86.0,160,120,0.0,104.0
3836,81.0,0,120,0.0,88.0
3837,42.0,0,160,0.0,73.0
3838,54.0,0,160,0.0,86.0
3839,74.0,120,120,0.0,79.0
3840,78.0,0,120,0.0,93.0
3841,57.0,40,160,0.0,72.0
3842,50.0,0,160,0.0,61.0
3843,76.0,0,120,0.0,77.0
3844,79.0,40,120,0.0,91.0
3845,54.0,160,160,0.0,68.0
3846,62.0,0,160,0.0,80.0
3847,78.0,120,120,0.0,81.0
3848,81.0,0,120,0.0,96.0
3849,57.0,0,160,0.0,68.0
3850,66.0,0,160,0.0,80.0
3851,69.0,120,120,0.0,77.0
3852,74.0,0,120,0.0,91.0
3853,62.0,0,160,0.0,75.0
3854,54.0,40,160,0.0,63.0
3855,57.0,0,160,0.0,66.0
3856,50.0,160,160,0.0,56.0
3857,77.0,0,120,0.0,88.0
3858,81.0,0,120,0.0,104.0
3859,53.0,160,160,0.0,86.0
3860,41.0,0,160,0.0,73.0
3861,69.0,0,120,0.0,79.0
3862,74.0,120,120,0.0,93.0
3863,57.0,0,160,0.0,72.0
3864,50.0,40,160,0.0,61.0
3865,53.0,0,160,0.0,63.0
3866,62.0,160,160,0.0,75.0
3867,76.0,0,120,0.0,89.0
3868,73.0,40,120,0.0,75.0
3869,74.0,0,120,0.0,80.0
3870,77.0,0,120,0.0,94.0
3871,57.0,0,160,0.0,63.0
3872,65.0,120,160,0.0,75.0
3873,86.0,120,120,0.0,89.0
3874,81.0,0,120,0.0,75.0
3875,53.0,40,160,0.0,60.0
3876,62.0,0,160,0.0,71.0
3877,50.0,160,160,0.0,52.0
3878,57.0,0,160,0.0,62.0
3879,81.0,0,160,0.0,78.0
3880,84.0,0,160,0.0,78.0
3881,89.0,160,160,0.0,92.0
3882,41.0,0,160,0.0,64.0
3883,53.0,0,160,0.0,77.0
3884,57.0,0,160,0.0,64.0
3885,48.0,0,160,0.0,55.0
3886,78.0,160,160,0.0,86.0
3887,84.0,0,160,0.0,90.0
3888,81.0,0,160,0.0,75.0
3889,77.0,160,0,0.0,83.0
3890,53.0,0,160,0.0,60.0
3891,60.0,160,160,0.0,71.0
3892,57.0,0,160,0.0,60.0
3893,65.0,0,160,0.0,71.0
3894,72.0,0,160,0.0,77.0
3895,77.0,0,0,0.0,77.0
3896,72.0,0,160,0.0,77.0
3897,81.0,0,160,0.0,91.0
3898,53.0,160,160,0.0,57.0
3899,60.0,0,160,0.0,68.0
3900,29.0,80,80,0.0,49.0
3901,69.0,0,0,0.0,78.0
3902,41.0,0,0,0.0,77.0
3903,29.0,0,160,0.0,64.0
3904,77.0,0,160,0.0,92.0
3905,72.0,80,160,0.0,78.0
3906,48.0,160,160,0.0,55.0
3907,66.0,0,160,0.0,86.0
3908,57.0,0,160,0.0,64.0
3909,60.0,0,160,0.0,67.0
3910,53.0,0,160,0.0,57.0
3911,65.0,0,160,0.0,71.0
3912,72.0,0,160,0.0,85.0
3913,69.0,160,160,0.0,71.0
3914,57.0,160,157,0.0,57.0
3915,60.0,0,0,0.0,69.0
3916,57.0,0,160,0.0,69.0
3917,65.0,0,160,0.0,81.0
3918,41.0,160,160,0.0,51.0
3919,29.0,0,160,0.0,53.0
3920,53.0,160,160,0.0,73.0
3921,65.0,0,160,0.0,73.0
3922,66.0,0,120,0.0,86.0
3923,54.0,0,120,0.0,73.0
3924,39.0,0,240,0.0,57.0
3925,27.0,160,240,0.0,57.0
3926,63.0,120,120,0.0,69.0
3927,61.0,120,120,0.0,68.0
3928,59.0,120,120,0.0,59.0
3929,71.0,0,120,0.0,68.0
3930,66.0,120,120,0.0,57.0
3931,39.0,0,120,0.0,46.0
3932,42.0,120,120,0.0,39.0
3933,63.0,0,120,0.0,62.0
3934,59.0,0,120,0.0,52.0
3935,54.0,120,120,0.0,39.0
3936,47.0,120,120,0.0,39.0
3937,61.0,0,120,0.0,55.0
3938,64.0,0,120,0.0,66.0
3939,63.0,0,120,0.0,58.0
3940,66.0,0,120,0.0,69.0
3941,42.0,120,120,0.0,47.0
3942,47.0,0,120,0.0,42.0
3943,71.0,0,120,0.0,56.0
3944,75.0,120,120,0.0,67.0
3945,59.0,120,120,0.0,42.0
3946,51.0,120,120,0.0,44.0
3947,78.0,0,120,0.0,72.0
3948,75.0,0,120,0.0,60.0
3949,47.0,120,120,0.0,49.0
3950,66.0,0,120,0.0,55.0
3951,71.0,120,120,0.0,66.0
3952,51.0,0,120,0.0,42.0
3953,63.0,120,120,0.0,44.0
3954,54.0,0,120,0.0,44.0
3955,73.0,120,120,0.0,70.0
3956,70.0,0,120,0.0,59.0
3957,75.0,0,120,0.0,74.0
3958,71.0,0,120,0.0,62.0
3959,51.0,120,120,0.0,50.0
3960,83.0,120,120,0.0,70.0
3961,78.0,0,120,0.0,58.0
3962,54.0,0,120,0.0,42.0
3963,66.0,120,120,0.0,44.0
3964,59.0,120,120,0.0,44.0
3965,83.0,0,120,0.0,66.0
3966,87.0,0,120,0.0,79.0
3967,54.0,120,120,0.0,56.0
3968,59.0,0,120,0.0,48.0
3969,78.0,120,120,0.0,74.0
3970,75.0,0,120,0.0,62.0
3971,71.0,120,120,0.0,48.0
3972,76.0,120,120,0.0,64.0
3973,63.0,0,120,0.0,48.0
3974,82.0,0,120,0.0,75.0
3975,78.0,0,120,0.0,68.0
3976,83.0,120,120,0.0,80.0
3977,59.0,0,120,0.0,56.0
3978,90.0,120,120,0.0,75.0
3979,63.0,0,120,0.0,51.0
3980,87.0,0,120,0.0,63.0
3981,75.0,120,120,0.0,51.0
3982,66.0,120,120,0.0,52.0
3983,52.0,0,120,0.0,62.0
3984,79.0,0,0,0.0,67.0
3985,82.0,120,160,0.0,89.0
3986,58.0,120,120,0.0,56.0
3987,85.0,0,160,0.0,67.0
3988,91.0,0,0,0.0,79.0
3989,67.0,80,120,0.0,56.0
3990,61.0,40,120,0.0,56.0
3991,79.0,0,160,0.0,67.0
3992,91.0,0,0,0.0,85.0
3993,85.0,80,160,0.0,67.0
3994,51.0,120,120,0.0,62.0
3995,79.0,0,120,0.0,72.0
3996,83.0,0,120,0.0,72.0
3997,54.0,120,120,0.0,53.0
3998,90.0,0,120,0.0,79.0
3999,78.0,0,120,0.0,67.0
4000,66.0,120,120,0.0,53.0
4001,59.0,120,120,0.0,53.0
4002,71.0,0,120,0.0,68.0
4003,39.0,120,120,0.0,46.0
4004,66.0,0,120,0.0,57.0
4005,59.0,120,120,0.0,52.0
4006,42.0,0,120,0.0,39.0
4007,63.0,0,120,0.0,62.0
4008,54.0,120,120,0.0,39.0
4009,64.0,0,120,0.0,66.0
4010,47.0,120,120,0.0,39.0
4011,61.0,0,120,0.0,55.0
4012,63.0,0,120,0.0,58.0
4013,66.0,0,120,0.0,69.0
4014,42.0,120,120,0.0,47.0
4015,71.0,120,120,0.0,56.0
4016,75.0,0,120,0.0,67.0
4017,47.0,0,120,0.0,42.0
4018,59.0,120,120,0.0,42.0
4019,51.0,120,120,0.0,44.0
4020,47.0,0,120,0.0,49.0
4021,78.0,120,120,0.0,72.0
4022,75.0,0,120,0.0,60.0
4023,71.0,0,120,0.0,66.0
4024,51.0,0,120,0.0,42.0
4025,66.0,120,120,0.0,55.0
4026,63.0,120,120,0.0,44.0
4027,54.0,0,120,0.0,44.0
4028,70.0,120,120,0.0,59.0
4029,73.0,0,120,0.0,70.0
4030,75.0,0,120,0.0,74.0
4031,71.0,0,120,0.0,62.0
4032,51.0,120,120,0.0,50.0
4033,83.0,0,120,0.0,70.0
4034,54.0,120,120,0.0,42.0
4035,78.0,0,120,0.0,58.0
4036,66.0,120,120,0.0,44.0
4037,59.0,120,120,0.0,44.0
4038,87.0,0,120,0.0,79.0
4039,83.0,120,120,0.0,66.0
4040,54.0,0,120,0.0,56.0
4041,59.0,0,120,0.0,48.0
4042,75.0,120,120,0.0,62.0
4043,78.0,0,120,0.0,74.0
4044,71.0,120,120,0.0,48.0
4045,63.0,0,120,0.0,48.0
4046,76.0,0,120,0.0,64.0
4047,82.0,120,120,0.0,75.0
4048,83.0,0,120,0.0,80.0
4049,59.0,120,120,0.0,56.0
4050,78.0,0,120,0.0,68.0
4051,63.0,120,120,0.0,51.0
4052,90.0,0,120,0.0,75.0
4053,87.0,0,120,0.0,63.0
4054,75.0,120,120,0.0,51.0
4055,66.0,120,120,0.0,52.0
4056,52.0,120,120,0.0,62.0
4057,82.0,0,160,0.0,89.0
4058,79.0,0,160,0.0,74.0
4059,58.0,120,120,0.0,56.0
4060,79.0,40,160,0.0,67.0
4061,85.0,0,160,0.0,67.0
4062,91.0,80,0,0.0,79.0
4063,67.0,80,120,0.0,56.0
4064,61.0,40,120,0.0,56.0
4065,79.0,0,160,0.0,67.0
4066,85.0,0,160,0.0,67.0
4067,92.0,0,160,0.0,85.0
4068,80.0,0,160,0.0,85.0
4069,84.0,0,160,0.0,85.0
4070,41.0,120,160,0.0,62.0
4071,93.0,0,160,0.0,80.0
4072,81.0,160,160,0.0,80.0
4073,87.0,0,160,0.0,80.0
4074,48.0,0,160,0.0,52.0
4075,58.0,0,160,0.0,56.0
4076,70.0,0,160,0.0,66.0
4077,49.0,0,160,0.0,41.0
4078,57.0,0,160,0.0,49.0
4079,54.0,160,320,0.0,34.0
4080,48.0,160,160,0.0,38.0
4081,69.0,0,160,0.0,58.0
4082,63.0,0,160,0.0,52.0
4083,41.0,160,160,0.0,39.0
4084,66.0,0,160,0.0,61.0
4085,61.0,160,160,0.0,58.0
4086,58.0,0,160,0.0,42.0
4087,73.0,0,160,0.0,70.0
4088,51.0,0,320,0.0,36.0
4089,72.0,0,160,0.0,63.0
4090,60.0,160,160,0.0,53.0
4091,57.0,0,160,0.0,39.0
4092,63.0,160,160,0.0,53.0
4093,66.0,0,160,0.0,63.0
4094,41.0,0,160,0.0,41.0
4095,70.0,0,160,0.0,72.0
4096,58.0,160,160,0.0,60.0
4097,49.0,0,160,0.0,46.0
4098,57.0,0,160,0.0,55.0
4099,69.0,160,160,0.0,64.0
4100,54.0,0,320,0.0,39.0
4101,48.0,0,160,0.0,44.0
4102,63.0,160,160,0.0,57.0
4103,41.0,0,160,0.0,44.0
4104,66.0,0,160,0.0,68.0
4105,58.0,160,160,0.0,48.0
4106,73.0,0,160,0.0,74.0
4107,61.0,0,160,0.0,62.0
4108,72.0,0,160,0.0,68.0
4109,60.0,0,160,0.0,57.0
4110,51.0,0,320,0.0,41.0
4111,57.0,160,160,0.0,46.0
4112,41.0,0,160,0.0,46.0
4113,66.0,0,160,0.0,71.0
4114,63.0,160,0,0.0,42.0
4115,66.0,0,160,0.0,66.0
4116,78.0,0,160,0.0,79.0
4117,58.0,0,160,0.0,51.0
4118,77.0,160,160,0.0,70.0
4119,65.0,0,160,0.0,58.0
4120,57.0,0,160,0.0,47.0
4121,53.0,0,160,0.0,47.0
4122,72.0,160,160,0.0,61.0
4123,75.0,0,160,0.0,72.0
4124,70.0,0,160,0.0,67.0
4125,82.0,0,160,0.0,80.0
4126,61.0,160,160,0.0,53.0
4127,69.0,0,160,0.0,61.0
4128,81.0,0,160,0.0,73.0
4129,60.0,160,160,0.0,49.0
4130,66.0,0,320,0.0,46.0
4131,53.0,0,160,0.0,50.0
4132,75.0,0,160,0.0,63.0
4133,78.0,160,160,0.0,75.0
4134,85.0,0,160,0.0,85.0
4135,70.0,160,160,0.0,56.0
4136,73.0,0,160,0.0,72.0
4137,69.0,0,160,0.0,50.0
4138,63.0,0,320,0.0,48.0
4139,72.0,0,160,0.0,63.0
4140,84.0,160,160,0.0,75.0
4141,53.0,160,160,0.0,51.0
4142,75.0,0,160,0.0,68.0
4143,78.0,160,0,0.0,74.0
4144,70.0,0,160,0.0,49.0
4145,90.0,0,320,0.0,89.0
4146,75.0,0,320,0.0,59.0
4147,69.0,160,160,0.0,58.0
4148,84.0,0,160,0.0,63.0
4149,89.0,160,160,0.0,75.0
4150,88.0,0,160,0.0,74.0
4151,78.0,160,160,0.0,62.0
4152,84.0,160,160,0.0,64.0
4153,87.0,0,160,0.0,77.0
4154,78.0,0,160,0.0,62.0
4155,86.0,160,160,0.0,73.0
4156,81.0,0,160,0.0,58.0
4157,85.0,160,160,0.0,70.0
4158,84.0,160,160,0.0,73.0
4159,75.0,0,160,0.0,62.0
4160,83.0,0,160,0.0,68.0
4161,78.0,160,160,0.0,58.0
4162,75.0,160,160,0.0,55.0
4163,65.0,0,480,0.0,56.0
4164,82.0,0,160,0.0,66.0
4165,81.0,160,160,0.0,69.0
4166,78.0,0,160,0.0,58.0
4167,72.0,160,160,0.0,53.0
4168,80.0,0,160,0.0,63.0
4169,75.0,160,160,0.0,53.0
4170,65.0,0,480,0.0,55.0
4171,79.0,0,160,0.0,63.0
4172,69.0,160,160,0.0,52.0
4173,78.0,0,160,0.0,62.0
4174,77.0,160,160,0.0,59.0
4175,72.0,0,160,0.0,49.0
4176,69.0,0,160,0.0,49.0
4177,76.0,160,160,0.0,59.0
4178,72.0,160,160,0.0,49.0
4179,75.0,0,160,0.0,59.0
4180,74.0,0,160,0.0,53.0
4181,63.0,160,160,0.0,45.0
4182,73.0,0,160,0.0,53.0
4183,69.0,160,160,0.0,46.0
4184,65.0,0,960,0.0,49.0
4185,63.0,160,160,0.0,53.0
4186,72.0,0,160,0.0,53.0
4187,69.0,0,160,0.0,49.0
4188,71.0,160,160,0.0,49.0
4189,74.0,160,160,0.0,49.0
4190,53.0,0,480,0.0,40.0
4191,63.0,0,160,0.0,49.0
4192,69.0,160,0,0.0,53.0
4193,72.0,160,160,0.0,52.0
4194,79.0,0,160,0.0,53.0
4195,75.0,0,100,0.0,49.0
4196,53.0,0,420,0.0,34.0
4197,77.0,160,100,0.0,49.0
4198,34.0,0,60,0.0,39.0
4199,62.0,60,0,0.0,41.0
4200,53.0,0,960,0.0,37.0
4201,70.0,0,0,0.0,41.0
4202,77.0,0,960,0.0,49.0
4203,65.0,0,480,0.0,41.0
4204,46.0,0,1440,0.0,31.0
4205,74.0,0,480,0.0,49.0
4206,58.0,960,960,0.0,37.0
4207,51.0,0,480,0.0,39.0
4208,75.0,0,480,0.0,44.0
4209,72.0,480,480,0.0,37.0
4210,67.0,0,480,0.0,37.0
4211,74.0,0,960,0.0,47.0
4212,53.0,60,1200,0.0,39.0
4213,54.0,240,240,0.0,33.0
4214,55.0,240,240,0.0,35.0
4215,53.0,240,240,0.0,33.0
4216,41.0,420,1980,0.0,29.0
4217,72.0,960,960,0.0,41.0
4218,63.0,0,1920,0.0,39.0
4219,70.0,0,0,0.0,41.0
4220,77.0,0,480,0.0,49.0
4221,62.0,0,480,0.0,41.0
4222,46.0,240,960,0.0,33.0
4223,74.0,0,480,0.0,49.0
4224,65.0,480,480,0.0,41.0
4225,67.0,480,240,0.0,41.0
4226,75.0,0,240,0.0,49.0
4227,65.0,0,240,0.0,39.0
4228,70.0,0,480,0.0,41.0
4229,58.0,0,480,0.0,39.0
4230,74.0,240,240,0.0,47.0
4231,77.0,0,240,0.0,44.0
4232,68.0,0,240,0.0,37.0
4233,71.0,240,240,0.0,37.0
4234,75.0,0,240,0.0,41.0
4235,67.0,0,240,0.0,35.0
4236,51.0,0,480,0.0,39.0
4237,72.0,240,240,0.0,35.0
4238,53.0,240,240,0.0,29.0
4239,54.0,240,240,0.0,37.0
4240,57.0,240,160,0.0,35.0
4241,55.0,160,160,0.0,34.0
4242,74.0,0,960,0.0,45.0
4243,53.0,160,160,0.0,34.0
4244,41.0,0,240,0.0,29.0
4245,42.0,240,240,0.0,37.0
4246,45.0,240,160,0.0,35.0
4247,43.0,160,160,0.0,34.0
4248,41.0,160,160,0.0,34.0
4249,72.0,160,960,0.0,41.0
4250,69.0,0,1920,0.0,36.0
4251,63.0,0,1920,0.0,31.0
4252,34.0,160,240,0.0,39.0
4253,70.0,480,0,0.0,40.0
4254,77.0,0,480,0.0,53.0
4255,62.0,0,480,0.0,42.0
4256,64.0,0,480,0.0,44.0
4257,61.0,0,480,0.0,36.0
4258,79.0,0,480,0.0,51.0
4259,67.0,0,480,0.0,37.0
4260,63.0,0,480,0.0,44.0
4261,81.0,0,480,0.0,52.0
4262,69.0,0,480,0.0,44.0
4263,82.0,0,360,0.0,58.0
4264,67.0,480,360,0.0,44.0
4265,70.0,0,360,0.0,51.0
4266,65.0,360,60,0.0,40.0
4267,84.0,0,120,0.0,60.0
4268,72.0,0,120,0.0,53.0
4269,75.0,480,960,0.0,44.0
4270,81.0,0,120,0.0,53.0
4271,60.0,0,960,0.0,37.0
4272,53.0,30,30,0.0,39.0
4273,86.0,30,480,0.0,61.0
4274,82.0,0,480,0.0,51.0
4275,46.0,60,540,0.0,39.0
4276,65.0,0,480,0.0,46.0
4277,74.0,0,480,0.0,48.0
4278,73.0,0,480,0.0,44.0
4279,64.0,0,480,0.0,44.0
4280,79.0,480,480,0.0,51.0
4281,67.0,0,480,0.0,44.0
4282,70.0,0,480,0.0,44.0
4283,69.0,0,420,0.0,44.0
4284,81.0,0,420,0.0,52.0
4285,53.0,480,480,0.0,37.0
4286,60.0,0,0,0.0,37.0
4287,63.0,0,480,0.0,37.0
4288,65.0,0,480,0.0,44.0
4289,72.0,30,30,0.0,56.0
4290,82.0,30,360,0.0,58.0
4291,60.0,0,0,0.0,41.0
4292,84.0,360,120,0.0,60.0
4293,51.0,0,480,0.0,37.0
4294,63.0,0,480,0.0,37.0
4295,55.0,0,480,0.0,37.0
4296,67.0,420,540,0.0,56.0
4297,50.0,0,480,0.0,41.0
4298,57.0,0,480,0.0,41.0
4299,66.0,0,480,0.0,49.0
4300,86.0,120,480,0.0,63.0
4301,81.0,0,480,0.0,53.0
4302,74.0,0,0,0.0,53.0
4303,84.0,0,480,0.0,60.0
4304,81.0,0,480,0.0,53.0
4305,30.0,0,480,0.0,36.0
4306,42.0,480,480,0.0,42.0
4307,72.0,0,480,0.0,50.0
4308,31.0,0,480,0.0,41.0
4309,43.0,480,480,0.0,49.0
4310,74.0,0,480,0.0,53.0
4311,70.0,0,480,0.0,53.0
4312,79.0,0,480,0.0,63.0
4313,82.0,0,480,0.0,63.0
4314,77.0,0,360,0.0,53.0
4315,33.0,480,360,0.0,41.0
4316,45.0,0,360,0.0,49.0
4317,73.0,0,360,0.0,53.0
4318,81.0,0,360,0.0,63.0
4319,34.0,360,120,0.0,37.0
4320,67.0,120,0,0.0,51.0
4321,74.0,0,0,0.0,56.0
4322,79.0,0,120,0.0,57.0
4323,46.0,0,120,0.0,45.0
4324,47.0,0,480,0.0,49.0
4325,35.0,0,480,0.0,41.0
4326,77.0,0,480,0.0,61.0
4327,65.0,0,480,0.0,51.0
4328,67.0,0,360,0.0,49.0
4329,72.0,0,360,0.0,59.0
4330,48.0,0,360,0.0,49.0
4331,75.0,0,360,0.0,59.0
4332,36.0,480,360,0.0,41.0
4333,63.0,0,360,0.0,49.0
4334,38.0,0,120,0.0,37.0
4335,50.0,0,120,0.0,45.0
4336,70.0,360,120,0.0,56.0
4337,66.0,0,120,0.0,47.0
4338,74.0,0,120,0.0,56.0
4339,51.0,0,480,0.0,49.0
4340,39.0,0,480,0.0,41.0
4341,70.0,0,480,0.0,59.0
4342,67.0,120,480,0.0,49.0
4343,69.0,0,240,0.0,49.0
4344,65.0,0,240,0.0,45.0
4345,67.0,0,240,0.0,50.0
4346,72.0,0,960,0.0,59.0
4347,60.0,0,960,0.0,52.0
4348,63.0,240,240,0.0,43.0
4349,41.0,480,480,0.0,41.0
4350,53.0,0,480,0.0,46.0
4351,34.0,0,160,0.0,39.0
4352,52.0,160,160,0.0,33.0
4353,53.0,160,160,0.0,31.0
4354,55.0,160,160,0.0,37.0
4355,53.0,160,160,0.0,31.0
4356,62.0,0,960,0.0,45.0
4357,70.0,0,960,0.0,49.0
4358,41.0,160,160,0.0,31.0
4359,77.0,240,960,0.0,64.0
4360,46.0,0,160,0.0,39.0
4361,52.0,160,160,0.0,35.0
4362,53.0,160,160,0.0,35.0
4363,74.0,160,480,0.0,60.0
4364,70.0,0,480,0.0,49.0
4365,65.0,0,480,0.0,49.0
4366,55.0,0,160,0.0,37.0
4367,62.0,160,240,0.0,34.0
4368,65.0,0,240,0.0,39.0
4369,53.0,160,160,0.0,33.0
4370,75.0,0,240,0.0,55.0
4371,72.0,0,240,0.0,41.0
4372,41.0,80,160,0.0,33.0
4373,67.0,80,240,0.0,41.0
4374,48.0,0,160,0.0,39.0
4375,52.0,160,160,0.0,35.0
4376,53.0,160,160,0.0,35.0
4377,55.0,160,160,0.0,37.0
4378,74.0,160,720,0.0,68.0
4379,53.0,160,160,0.0,33.0
4380,41.0,80,160,0.0,33.0
4381,63.0,0,960,0.0,35.0
4382,72.0,80,240,0.0,55.0
4383,69.0,0,960,0.0,42.0
4384,51.0,160,160,0.0,39.0
4385,67.0,0,240,0.0,58.0
4386,52.0,160,160,0.0,35.0
4387,53.0,80,160,0.0,35.0
4388,65.0,80,240,0.0,52.0
4389,55.0,160,160,0.0,37.0
4390,58.0,0,240,0.0,61.0
4391,53.0,160,160,0.0,33.0
4392,60.0,80,240,0.0,55.0
4393,41.0,80,160,0.0,33.0
4394,34.0,0,240,0.0,39.0
4395,52.0,240,120,0.0,34.0
4396,53.0,120,120,0.0,33.0
4397,62.0,0,480,0.0,55.0
4398,77.0,0,480,0.0,68.0
4399,55.0,120,120,0.0,37.0
4400,53.0,120,120,0.0,31.0
4401,53.0,120,120,0.0,37.0
4402,70.0,160,960,0.0,54.0
4403,65.0,0,480,0.0,49.0
4404,41.0,120,120,0.0,37.0
4405,74.0,0,480,0.0,62.0
4406,46.0,0,240,0.0,39.0
4407,75.0,120,240,0.0,66.0
4408,67.0,0,240,0.0,55.0
4409,52.0,0,120,0.0,35.0
4410,65.0,0,0,0.0,48.0
4411,74.0,0,0,0.0,57.0
4412,53.0,120,120,0.0,35.0
4413,55.0,120,120,0.0,37.0
4414,53.0,120,120,0.0,33.0
4415,77.0,0,160,0.0,55.0
4416,69.0,40,160,0.0,46.0
4417,53.0,80,120,0.0,37.0
4418,41.0,40,120,0.0,31.0
4419,67.0,80,160,0.0,46.0
4420,70.0,0,960,0.0,57.0
4421,75.0,0,160,0.0,55.0
4422,29.0,120,240,0.0,39.0
4423,52.0,240,120,0.0,35.0
4424,53.0,120,120,0.0,35.0
4425,55.0,120,120,0.0,37.0
4426,74.0,0,720,0.0,64.0
4427,53.0,120,120,0.0,33.0
4428,53.0,0,120,0.0,37.0
4429,41.0,120,120,0.0,33.0
4430,63.0,0,960,0.0,42.0
4431,72.0,120,240,0.0,58.0
4432,69.0,0,960,0.0,41.0
4433,67.0,0,160,0.0,60.0
4434,51.0,120,240,0.0,39.0
4435,65.0,160,160,0.0,51.0
4436,52.0,80,120,0.0,35.0
4437,67.0,80,160,0.0,51.0
4438,53.0,40,120,0.0,35.0
4439,55.0,0,120,0.0,39.0
4440,65.0,120,160,0.0,58.0
4441,53.0,120,120,0.0,35.0
4442,58.0,40,160,0.0,53.0
4443,53.0,80,120,0.0,39.0
4444,60.0,80,100,0.0,53.0
4445,41.0,40,120,0.0,35.0
4446,46.0,30,120,0.0,44.0
4447,53.0,120,120,0.0,39.0
4448,55.0,120,120,0.0,39.0
4449,62.0,60,540,0.0,51.0
4450,53.0,120,120,0.0,39.0
4451,77.0,0,480,0.0,73.0
4452,62.0,120,120,0.0,44.0
4453,53.0,120,120,0.0,40.0
4454,55.0,120,120,0.0,40.0
4455,70.0,30,990,0.0,61.0
4456,67.0,0,480,0.0,57.0
4457,53.0,120,120,0.0,41.0
4458,79.0,0,480,0.0,68.0
4459,41.0,0,120,0.0,45.0
4460,53.0,120,120,0.0,40.0
4461,55.0,120,120,0.0,41.0
4462,53.0,120,120,0.0,41.0
4463,69.0,0,480,0.0,57.0
4464,81.0,0,480,0.0,73.0
4465,63.0,0,120,0.0,47.0
4466,53.0,120,120,0.0,44.0
4467,55.0,120,120,0.0,44.0
4468,82.0,120,360,0.0,75.0
4469,70.0,0,360,0.0,72.0
4470,53.0,0,120,0.0,44.0
4471,84.0,0,120,0.0,73.0
4472,75.0,0,960,0.0,56.0
4473,77.0,0,960,0.0,56.0
4474,72.0,120,120,0.0,70.0
4475,77.0,0,0,0.0,68.0
4476,46.0,120,120,0.0,48.0
4477,53.0,120,120,0.0,42.0
4478,55.0,120,120,0.0,42.0
4479,86.0,0,480,0.0,80.0
4480,53.0,120,120,0.0,42.0
4481,62.0,120,120,0.0,49.0
4482,53.0,120,120,0.0,46.0
4483,55.0,120,120,0.0,46.0
4484,53.0,120,120,0.0,46.0
4485,67.0,0,480,0.0,61.0
4486,79.0,0,480,0.0,73.0
4487,74.0,0,960,0.0,66.0
4488,41.0,120,120,0.0,50.0
4489,53.0,120,120,0.0,46.0
4490,55.0,120,120,0.0,46.0
4491,53.0,120,120,0.0,46.0
4492,81.0,0,480,0.0,78.0
4493,69.0,0,480,0.0,66.0
4494,63.0,120,120,0.0,52.0
4495,53.0,120,120,0.0,49.0
4496,55.0,120,120,0.0,49.0
4497,70.0,0,360,0.0,68.0
4498,82.0,0,360,0.0,81.0
4499,84.0,0,120,0.0,77.0
4500,75.0,0,960,0.0,66.0
4501,77.0,0,960,0.0,66.0
4502,72.0,0,120,0.0,64.0
4503,53.0,120,120,0.0,49.0
4504,42.0,0,120,0.0,57.0
4505,49.0,120,120,0.0,51.0
4506,50.0,120,120,0.0,51.0
4507,86.0,120,480,0.0,88.0
4508,74.0,0,480,0.0,73.0
4509,57.0,120,120,0.0,51.0
4510,54.0,0,120,0.0,58.0
4511,61.0,120,120,0.0,53.0
4512,62.0,120,120,0.0,53.0
4513,84.0,0,960,0.0,74.0
4514,81.0,0,960,0.0,66.0
4515,69.0,120,120,0.0,53.0
4516,43.0,0,120,0.0,59.0
4517,49.0,120,120,0.0,52.0
4518,87.0,120,720,0.0,91.0
4519,75.0,0,720,0.0,78.0
4520,50.0,120,120,0.0,52.0
4521,86.0,0,240,0.0,80.0
4522,74.0,0,240,0.0,67.0
4523,58.0,120,120,0.0,53.0
4524,55.0,0,120,0.0,60.0
4525,73.0,120,240,0.0,66.0
4526,85.0,0,240,0.0,79.0
4527,61.0,120,120,0.0,55.0
4528,62.0,0,120,0.0,55.0
4529,74.0,120,240,0.0,66.0
4530,79.0,0,960,0.0,74.0
4531,82.0,120,960,0.0,74.0
4532,86.0,0,240,0.0,79.0
4533,70.0,120,120,0.0,56.0
4534,45.0,0,120,0.0,61.0
4535,52.0,120,120,0.0,55.0
4536,53.0,120,120,0.0,55.0
4537,77.0,120,480,0.0,72.0
4538,60.0,120,120,0.0,55.0
4539,89.0,0,480,0.0,90.0
4540,57.0,0,120,0.0,62.0
4541,64.0,120,120,0.0,57.0
4542,65.0,120,120,0.0,57.0
4543,84.0,0,960,0.0,57.0
4544,81.0,0,960,0.0,57.0
4545,72.0,120,120,0.0,57.0
4546,87.0,0,960,0.0,71.0
4547,47.0,0,120,0.0,62.0
4548,79.0,120,720,0.0,70.0
4549,91.0,0,720,0.0,84.0
4550,54.0,120,120,0.0,56.0
4551,55.0,0,120,0.0,57.0
4552,86.0,120,480,0.0,85.0
4553,62.0,120,120,0.0,57.0
4554,89.0,0,240,0.0,77.0
4555,77.0,120,240,0.0,64.0
4556,59.0,0,120,0.0,63.0
4557,66.0,120,120,0.0,58.0
4558,67.0,120,120,0.0,59.0
4559,87.0,120,360,0.0,84.0
4560,75.0,0,360,0.0,70.0
4561,74.0,0,120,0.0,66.0
4562,79.0,0,0,0.0,67.0
4563,86.0,120,120,0.0,78.0
4564,36.0,0,120,0.0,59.0
4565,89.0,0,240,0.0,88.0
4566,77.0,120,240,0.0,74.0
4567,43.0,120,120,0.0,52.0
4568,48.0,120,120,0.0,52.0
4569,55.0,120,120,0.0,52.0
4570,87.0,0,240,0.0,76.0
4571,75.0,0,240,0.0,62.0
4572,79.0,0,0,0.0,59.0
4573,38.0,120,120,0.0,59.0
4574,74.0,0,240,0.0,61.0
4575,43.0,120,120,0.0,52.0
4576,86.0,0,240,0.0,73.0
4577,50.0,0,120,0.0,52.0
4578,55.0,120,120,0.0,52.0
4579,79.0,0,0,0.0,59.0
4580,71.0,0,240,0.0,55.0
4581,83.0,120,240,0.0,68.0
4582,39.0,120,120,0.0,62.0
4583,86.0,0,240,0.0,79.0
4584,43.0,120,120,0.0,52.0
4585,74.0,0,240,0.0,67.0
4586,48.0,0,120,0.0,52.0
4587,72.0,0,240,0.0,58.0
4588,84.0,120,240,0.0,69.0
4589,55.0,120,120,0.0,52.0
4590,40.0,0,120,0.0,61.0
4591,67.0,0,240,0.0,61.0
4592,79.0,0,240,0.0,72.0
4593,46.0,120,120,0.0,52.0
4594,49.0,0,120,0.0,52.0
4595,55.0,120,120,0.0,52.0
4596,73.0,120,480,0.0,57.0
4597,41.0,120,120,0.0,59.0
4598,70.0,0,480,0.0,56.0
4599,82.0,120,480,0.0,67.0
4600,48.0,120,120,0.0,52.0
4601,51.0,120,120,0.0,52.0
4602,72.0,0,480,0.0,64.0
4603,75.0,0,480,0.0,64.0
4604,57.0,120,120,0.0,52.0
4605,43.0,0,120,0.0,58.0
4606,46.0,120,120,0.0,52.0
4607,81.0,0,480,0.0,71.0
4608,69.0,0,480,0.0,57.0
4609,51.0,120,120,0.0,52.0
4610,58.0,120,120,0.0,52.0
4611,70.0,0,480,0.0,61.0
4612,75.0,120,480,0.0,73.0
4613,45.0,120,120,0.0,52.0
4614,79.0,0,480,0.0,72.0
4615,48.0,120,120,0.0,47.0
4616,67.0,0,480,0.0,57.0
4617,51.0,0,120,0.0,47.0
4618,75.0,120,0,0.0,73.0
4619,72.0,0,480,0.0,67.0
4620,60.0,120,120,0.0,47.0
4621,48.0,0,120,0.0,55.0
4622,66.0,0,480,0.0,57.0
4623,51.0,120,120,0.0,47.0
4624,78.0,120,480,0.0,71.0
4625,57.0,0,120,0.0,47.0
4626,69.0,0,480,0.0,59.0
4627,63.0,120,120,0.0,47.0
4628,70.0,120,240,0.0,53.0
4629,65.0,120,480,0.0,60.0
4630,77.0,0,480,0.0,70.0
4631,58.0,0,240,0.0,46.0
4632,62.0,0,240,0.0,55.0
4633,50.0,0,240,0.0,46.0
4634,70.0,0,240,0.0,56.0
4635,66.0,0,240,0.0,56.0
4636,78.0,240,240,0.0,72.0
4637,50.0,0,240,0.0,38.0
4638,58.0,0,240,0.0,38.0
4639,62.0,0,240,0.0,46.0
4640,70.0,0,0,0.0,56.0
4641,67.0,0,240,0.0,64.0
4642,79.0,240,240,0.0,77.0
4643,63.0,0,240,0.0,51.0
4644,51.0,0,240,0.0,42.0
4645,58.0,0,0,0.0,38.0
4646,65.0,0,240,0.0,56.0
4647,62.0,0,240,0.0,46.0
4648,53.0,0,240,0.0,38.0
4649,77.0,240,240,0.0,72.0
4650,72.0,240,240,0.0,69.0
4651,69.0,0,240,0.0,60.0
4652,54.0,0,240,0.0,42.0
4653,63.0,0,240,0.0,50.0
4654,74.0,0,240,0.0,68.0
4655,65.0,240,240,0.0,52.0
4656,68.0,0,240,0.0,55.0
4657,47.0,0,240,0.0,39.0
4658,59.0,0,240,0.0,47.0
4659,63.0,240,240,0.0,59.0
4660,67.0,0,240,0.0,62.0
4661,75.0,0,240,0.0,70.0
4662,48.0,0,240,0.0,44.0
4663,60.0,0,240,0.0,52.0
4664,69.0,240,240,0.0,68.0
4665,66.0,0,240,0.0,57.0
4666,51.0,0,240,0.0,40.0
4667,63.0,0,240,0.0,47.0
4668,58.0,0,240,0.0,38.0
4669,50.0,0,240,0.0,36.0
4670,53.0,0,240,0.0,39.0
4671,62.0,0,240,0.0,50.0
4672,70.0,0,240,0.0,69.0
4673,65.0,240,240,0.0,60.0
4674,72.0,0,240,0.0,67.0
4675,45.0,240,240,0.0,36.0
4676,63.0,0,240,0.0,56.0
4677,66.0,0,240,0.0,56.0
4678,57.0,0,240,0.0,42.0
4679,74.0,0,240,0.0,70.0
4680,65.0,0,240,0.0,58.0
4681,62.0,0,240,0.0,54.0
4682,46.0,240,240,0.0,49.0
4683,58.0,0,240,0.0,49.0
4684,67.0,240,180,0.0,69.0
4685,61.0,0,180,0.0,58.0
4686,58.0,0,180,0.0,58.0
4687,55.0,180,60,0.0,50.0
4688,40.0,0,0,0.0,52.0
4689,52.0,0,240,0.0,45.0
4690,28.0,0,240,0.0,44.0
4691,70.0,0,480,0.0,69.0
4692,58.0,0,480,0.0,58.0
4693,55.0,240,240,0.0,55.0
4694,29.0,240,480,0.0,40.0
4695,60.0,60,960,0.0,58.0
4696,41.0,0,720,0.0,48.0
4697,69.0,0,480,0.0,61.0
4698,63.0,0,960,0.0,58.0
4699,57.0,0,480,0.0,51.0
4700,46.0,240,160,0.0,53.0
4701,53.0,240,400,0.0,51.0
4702,62.0,0,160,0.0,65.0
4703,70.0,0,160,0.0,77.0
4704,58.0,0,6,0.0,51.0
4705,66.0,0,80,0.0,73.0
4706,61.0,0,80,0.0,62.0
4707,52.0,154,80,0.0,42.0
4708,61.0,0,80,0.0,62.0
4709,58.0,160,80,0.0,51.0
4710,52.0,0,80,0.0,42.0
4711,66.0,0,80,0.0,73.0
4712,61.0,0,160,0.0,62.0
4713,52.0,160,160,0.0,46.0
4714,66.0,0,160,0.0,75.0
4715,58.0,0,160,0.0,56.0
4716,60.0,0,80,0.0,61.0
4717,65.0,0,80,0.0,66.0
4718,53.0,160,80,0.0,38.0
4719,57.0,0,80,0.0,45.0
4720,53.0,0,80,0.0,42.0
4721,65.0,0,80,0.0,51.0
4722,60.0,0,80,0.0,42.0
4723,75.0,160,80,0.0,74.0
4724,69.0,0,80,0.0,62.0
4725,69.0,0,160,0.0,62.0
4726,60.0,0,160,0.0,46.0
4727,53.0,160,160,0.0,46.0
4728,65.0,0,0,0.0,51.0
4729,75.0,0,160,0.0,75.0
4730,58.0,0,80,0.0,42.0
4731,70.0,160,80,0.0,62.0
4732,74.0,0,80,0.0,74.0
4733,73.0,0,80,0.0,62.0
4734,78.0,160,80,0.0,74.0
4735,64.0,0,80,0.0,51.0
4736,70.0,0,80,0.0,51.0
4737,64.0,0,160,0.0,56.0
4738,70.0,0,160,0.0,56.0
4739,78.0,160,160,0.0,75.0
4740,73.0,0,160,0.0,62.0
4741,65.0,0,80,0.0,40.0
4742,72.0,0,80,0.0,63.0
4743,77.0,0,80,0.0,69.0
4744,69.0,160,80,0.0,48.0
4745,87.0,0,80,0.0,73.0
4746,77.0,0,80,0.0,51.0
4747,72.0,0,80,0.0,42.0
4748,65.0,0,80,0.0,42.0
4749,81.0,160,80,0.0,62.0
4750,72.0,0,160,0.0,46.0
4751,81.0,0,160,0.0,64.0
4752,77.0,0,0,0.0,51.0
4753,87.0,0,160,0.0,78.0
4754,65.0,160,160,0.0,46.0
4755,70.0,0,80,0.0,42.0
4756,82.0,160,80,0.0,62.0
4757,86.0,0,80,0.0,73.0
4758,64.0,0,80,0.0,44.0
4759,73.0,0,80,0.0,62.0
4760,78.0,0,80,0.0,73.0
4761,70.0,160,80,0.0,52.0
4762,64.0,0,160,0.0,46.0
4763,70.0,0,160,0.0,56.0
4764,78.0,0,160,0.0,78.0
4765,73.0,160,160,0.0,64.0
4766,69.0,160,80,0.0,49.0
4767,77.0,0,80,0.0,70.0
4768,65.0,0,80,0.0,41.0
4769,72.0,0,80,0.0,62.0
4770,69.0,0,80,0.0,62.0
4771,75.0,0,80,0.0,74.0
4772,53.0,160,80,0.0,44.0
4773,60.0,0,80,0.0,44.0
4774,65.0,0,80,0.0,52.0
4775,60.0,0,160,0.0,46.0
4776,69.0,160,160,0.0,64.0
4777,75.0,0,160,0.0,78.0
4778,65.0,0,0,0.0,49.0
4779,53.0,0,160,0.0,46.0
4780,74.0,0,80,0.0,69.0
4781,58.0,160,80,0.0,41.0
4782,70.0,0,80,0.0,59.0
4783,61.0,0,80,0.0,62.0
4784,66.0,160,80,0.0,74.0
4785,52.0,0,80,0.0,44.0
4786,58.0,0,80,0.0,52.0
4787,66.0,0,160,0.0,75.0
4788,61.0,0,160,0.0,62.0
4789,52.0,0,160,0.0,46.0
4790,58.0,160,160,0.0,56.0
4791,65.0,160,80,0.0,66.0
4792,60.0,0,80,0.0,59.0
4793,53.0,0,80,0.0,39.0
4794,57.0,0,80,0.0,46.0
4795,63.0,0,80,0.0,74.0
4796,57.0,160,80,0.0,62.0
4797,53.0,0,80,0.0,52.0
4798,41.0,0,80,0.0,44.0
4799,48.0,0,80,0.0,44.0
4800,53.0,160,0,0.0,46.0
4801,48.0,160,160,0.0,46.0
4802,63.0,0,160,0.0,75.0
4803,57.0,0,160,0.0,62.0
4804,41.0,0,160,0.0,46.0
4805,46.0,0,80,0.0,39.0
4806,62.0,0,80,0.0,63.0
4807,58.0,0,80,0.0,53.0
4808,58.0,0,80,0.0,41.0
4809,52.0,0,80,0.0,36.0
4810,48.0,160,80,0.0,36.0
4811,67.0,0,80,0.0,59.0
4812,60.0,0,80,0.0,49.0
4813,60.0,0,160,0.0,51.0
4814,67.0,0,160,0.0,62.0
4815,48.0,0,160,0.0,37.0
4816,58.0,0,160,0.0,44.0
4817,52.0,160,160,0.0,37.0
4818,53.0,0,80,0.0,34.0
4819,65.0,0,80,0.0,58.0
4820,57.0,160,80,0.0,41.0
4821,60.0,160,80,0.0,29.0
4822,75.0,0,80,0.0,52.0
4823,53.0,0,80,0.0,29.0
4824,65.0,0,80,0.0,36.0
4825,69.0,0,80,0.0,44.0
4826,69.0,160,160,0.0,46.0
4827,75.0,0,160,0.0,55.0
4828,65.0,0,160,0.0,39.0
4829,60.0,0,160,0.0,33.0
4830,53.0,0,160,0.0,33.0
4831,65.0,0,80,0.0,36.0
4832,58.0,0,80,0.0,29.0
4833,74.0,160,80,0.0,52.0
4834,70.0,0,80,0.0,44.0
4835,79.0,0,80,0.0,52.0
4836,72.0,0,80,0.0,44.0
4837,60.0,160,80,0.0,36.0
4838,64.0,0,80,0.0,36.0
4839,70.0,0,80,0.0,36.0
4840,60.0,0,160,0.0,39.0
4841,64.0,0,160,0.0,39.0
4842,70.0,0,160,0.0,39.0
4843,79.0,0,160,0.0,55.0
4844,72.0,160,160,0.0,46.0
4845,69.0,0,80,0.0,36.0
4846,65.0,160,80,0.0,29.0
4847,77.0,0,80,0.0,51.0
4848,77.0,0,80,0.0,31.0
4849,72.0,0,80,0.0,26.0
4850,87.0,0,80,0.0,46.0
4851,81.0,0,80,0.0,39.0
4852,65.0,160,80,0.0,26.0
4853,65.0,0,160,0.0,29.0
4854,81.0,0,160,0.0,40.0
4855,77.0,0,0,0.0,31.0
4856,87.0,160,160,0.0,49.0
4857,72.0,0,160,0.0,29.0
4858,82.0,0,80,0.0,39.0
4859,86.0,0,80,0.0,46.0
4860,70.0,160,80,0.0,26.0
4861,79.0,0,80,0.0,55.0
4862,72.0,0,80,0.0,47.0
4863,70.0,0,80,0.0,39.0
4864,64.0,160,80,0.0,33.0
4865,60.0,0,80,0.0,33.0
4866,70.0,0,160,0.0,41.0
4867,60.0,0,160,0.0,35.0
4868,64.0,160,160,0.0,35.0
4869,79.0,0,160,0.0,59.0
4870,72.0,0,160,0.0,49.0
4871,69.0,0,80,0.0,39.0
4872,65.0,160,80,0.0,33.0
4873,77.0,0,80,0.0,56.0
4874,53.0,0,80,0.0,33.0
4875,69.0,0,80,0.0,47.0
4876,75.0,160,80,0.0,56.0
4877,65.0,0,80,0.0,39.0
4878,60.0,0,80,0.0,33.0
4879,60.0,0,160,0.0,35.0
4880,69.0,0,160,0.0,49.0
4881,75.0,160,160,0.0,59.0
4882,53.0,0,160,0.0,35.0
4883,65.0,0,0,0.0,39.0
4884,58.0,0,80,0.0,33.0
4885,70.0,0,80,0.0,47.0
4886,74.0,160,80,0.0,55.0
4887,48.0,0,80,0.0,33.0
4888,58.0,0,80,0.0,39.0
4889,52.0,0,80,0.0,33.0
4890,60.0,160,80,0.0,47.0
4891,67.0,0,80,0.0,56.0
4892,52.0,0,160,0.0,35.0
4893,48.0,0,160,0.0,35.0
4894,58.0,160,160,0.0,41.0
4895,60.0,0,160,0.0,49.0
4896,67.0,0,160,0.0,59.0
4897,57.0,0,80,0.0,39.0
4898,65.0,0,80,0.0,56.0
4899,53.0,160,80,0.0,33.0
4900,53.0,0,80,0.0,49.0
4901,41.0,0,80,0.0,41.0
4902,57.0,160,80,0.0,52.0
4903,63.0,0,80,0.0,62.0
4904,60.0,0,80,0.0,52.0
4905,41.0,160,160,0.0,39.0
4906,53.0,0,160,0.0,47.0
4907,63.0,0,160,0.0,59.0
4908,57.0,0,160,0.0,49.0
4909,60.0,0,160,0.0,49.0
4910,40.0,0,80,0.0,35.0
4911,64.0,160,80,0.0,52.0
4912,57.0,0,80,0.0,44.0
4913,52.0,0,80,0.0,41.0
4914,61.0,0,80,0.0,46.0
4915,63.0,0,80,0.0,47.0
4916,54.0,0,80,0.0,45.0
4917,52.0,0,80,0.0,38.0
4918,59.0,0,80,0.0,49.0
4919,57.0,160,80,0.0,49.0
4920,69.0,0,80,0.0,56.0
4921,63.0,0,160,0.0,49.0
4922,52.0,160,0,0.0,34.0
4923,59.0,0,0,0.0,41.0
4924,57.0,0,160,0.0,49.0
4925,69.0,0,160,0.0,59.0
4926,54.0,0,160,0.0,47.0
4927,64.0,0,80,0.0,44.0
4928,56.0,0,80,0.0,46.0
4929,68.0,0,80,0.0,51.0
4930,74.0,0,80,0.0,56.0
4931,62.0,0,80,0.0,47.0
4932,64.0,0,80,0.0,47.0
4933,68.0,0,80,0.0,47.0
4934,52.0,160,80,0.0,36.0
4935,59.0,0,80,0.0,44.0
4936,59.0,160,160,0.0,47.0
4937,52.0,160,0,0.0,34.0
4938,68.0,0,160,0.0,49.0
4939,64.0,0,0,0.0,41.0
4940,62.0,0,160,0.0,49.0
4941,74.0,0,160,0.0,59.0
4942,57.0,0,80,0.0,34.0
4943,69.0,0,80,0.0,44.0
4944,73.0,0,80,0.0,52.0
4945,61.0,0,80,0.0,46.0
4946,69.0,160,80,0.0,49.0
4947,66.0,0,80,0.0,44.0
4948,59.0,0,80,0.0,44.0
4949,75.0,0,80,0.0,47.0
4950,71.0,0,80,0.0,49.0
4951,52.0,0,80,0.0,44.0
4952,81.0,0,80,0.0,56.0
4953,52.0,0,0,0.0,44.0
4954,59.0,0,0,0.0,34.0
4955,66.0,0,160,0.0,47.0
4956,75.0,0,160,0.0,49.0
4957,71.0,0,160,0.0,49.0
4958,69.0,0,160,0.0,49.0
4959,81.0,0,160,0.0,59.0
4960,76.0,0,80,0.0,41.0
4961,64.0,160,80,0.0,41.0
4962,80.0,0,80,0.0,51.0
4963,68.0,0,80,0.0,46.0
4964,86.0,0,80,0.0,55.0
4965,74.0,0,80,0.0,49.0
4966,76.0,0,80,0.0,49.0
4967,80.0,0,80,0.0,47.0
4968,64.0,0,80,0.0,44.0
4969,52.0,160,80,0.0,47.0
4970,59.0,0,80,0.0,36.0
4971,62.0,0,80,0.0,36.0
4972,52.0,0,160,0.0,39.0
4973,59.0,0,0,0.0,34.0
4974,62.0,0,160,0.0,39.0
4975,80.0,0,160,0.0,49.0
4976,76.0,0,160,0.0,49.0
4977,86.0,0,160,0.0,59.0
4978,74.0,0,160,0.0,49.0
4979,64.0,160,160,0.0,47.0
4980,65.0,160,160,0.0,49.0
4981,71.0,0,160,0.0,63.0
4982,67.0,0,160,0.0,45.0
4983,77.0,0,160,0.0,80.0
4984,68.0,0,160,0.0,66.0
4985,50.0,160,160,0.0,61.0
4986,62.0,0,160,0.0,56.0
4987,74.0,160,160,0.0,74.0
4988,70.0,0,160,0.0,68.0
4989,53.0,0,160,0.0,47.0
4990,80.0,0,160,0.0,84.0
4991,71.0,160,160,0.0,71.0
4992,47.0,0,160,0.0,62.0
4993,73.0,0,160,0.0,66.0
4994,59.0,0,160,0.0,59.0
4995,53.0,0,160,0.0,49.0
4996,77.0,160,160,0.0,79.0
4997,44.0,0,160,0.0,64.0
4998,74.0,160,160,0.0,74.0
4999,83.0,0,160,0.0,89.0
5000,56.0,0,160,0.0,60.0
5001,80.0,0,160,0.0,85.0
5002,47.0,160,160,0.0,50.0
5003,76.0,0,160,0.0,72.0
5004,41.0,0,160,0.0,69.0
5005,86.0,0,160,0.0,92.0
5006,77.0,160,160,0.0,78.0
5007,47.0,0,160,0.0,53.0
5008,53.0,0,160,0.0,64.0
5009,83.0,0,160,0.0,86.0
5010,79.0,160,160,0.0,73.0
5011,38.0,0,160,0.0,77.0
5012,89.0,0,160,0.0,94.0
5013,80.0,160,160,0.0,79.0
5014,26.0,160,160,0.0,69.0
5015,38.0,0,160,0.0,69.0
5016,80.0,0,160,0.0,77.0
5017,92.0,0,160,0.0,90.0
5018,25.0,160,160,0.0,42.0
5019,88.0,0,160,0.0,85.0
5020,81.0,0,160,0.0,85.0
5021,37.0,0,160,0.0,42.0
5022,93.0,0,160,0.0,101.0
5023,37.0,0,160,0.0,36.0
5024,57.0,0,160,0.0,64.0
5025,64.0,0,0,0.0,64.0
5026,69.0,160,0,0.0,77.0
5027,49.0,0,0,0.0,48.0
5028,57.0,0,160,0.0,64.0
5029,37.0,0,160,0.0,40.0
5030,49.0,0,0,0.0,48.0
5031,69.0,160,0,0.0,77.0
5032,64.0,0,0,0.0,55.0
5033,69.0,160,0,0.0,75.0
5034,57.0,0,0,0.0,63.0
5035,37.0,0,0,0.0,40.0
5036,49.0,0,0,0.0,48.0
5037,37.0,0,0,0.0,41.0
5038,49.0,160,0,0.0,49.0
5039,64.0,0,0,0.0,63.0
5040,69.0,0,160,0.0,75.0
5041,57.0,0,160,0.0,63.0
5042,69.0,0,160,0.0,80.0
5043,57.0,0,160,0.0,57.0
5044,49.0,0,160,0.0,55.0
5045,37.0,160,160,0.0,38.0
5046,65.0,0,0,0.0,64.0
5047,48.0,0,160,0.0,52.0
5048,36.0,0,160,0.0,44.0
5049,57.0,0,0,0.0,64.0
5050,65.0,0,0,0.0,64.0
5051,69.0,0,0,0.0,77.0
5052,48.0,160,160,0.0,52.0
5053,36.0,160,0,0.0,47.0
5054,48.0,0,160,0.0,56.0
5055,65.0,160,0,0.0,67.0
5056,69.0,0,0,0.0,79.0
5057,57.0,0,160,0.0,68.0
5058,49.0,0,160,0.0,52.0
5059,57.0,0,0,0.0,67.0
5060,65.0,160,0,0.0,67.0
5061,37.0,0,0,0.0,44.0
5062,65.0,0,0,0.0,67.0
5063,69.0,160,0,0.0,80.0
5064,49.0,0,160,0.0,52.0
5065,57.0,0,0,0.0,67.0
5066,37.0,0,80,0.0,46.0
5067,49.0,0,80,0.0,56.0
5068,65.0,0,80,0.0,68.0
5069,58.0,0,80,0.0,68.0
5070,49.0,0,80,0.0,57.0
5071,37.0,160,80,0.0,47.0
5072,70.0,0,80,0.0,81.0
5073,49.0,0,80,0.0,58.0
5074,70.0,0,80,0.0,82.0
5075,58.0,0,80,0.0,69.0
5076,65.0,160,80,0.0,69.0
5077,37.0,0,80,0.0,48.0
5078,65.0,160,80,0.0,71.0
5079,70.0,0,80,0.0,83.0
5080,58.0,0,80,0.0,71.0
5081,37.0,0,80,0.0,49.0
5082,49.0,0,80,0.0,58.0
5083,70.0,0,80,0.0,84.0
5084,58.0,0,80,0.0,71.0
5085,66.0,0,80,0.0,71.0
5086,49.0,160,80,0.0,59.0
5087,37.0,0,80,0.0,50.0
5088,49.0,160,80,0.0,61.0
5089,37.0,0,80,0.0,51.0
5090,70.0,0,80,0.0,85.0
5091,66.0,0,80,0.0,71.0
5092,58.0,0,80,0.0,71.0
5093,49.0,0,80,0.0,62.0
5094,37.0,0,80,0.0,52.0
5095,70.0,0,80,0.0,86.0
5096,66.0,0,80,0.0,72.0
5097,58.0,160,80,0.0,72.0
5098,36.0,0,80,0.0,52.0
5099,70.0,0,80,0.0,88.0
5100,66.0,0,80,0.0,73.0
5101,58.0,160,80,0.0,73.0
5102,48.0,0,80,0.0,62.0
5103,70.0,0,80,0.0,90.0
5104,66.0,0,80,0.0,75.0
5105,58.0,0,80,0.0,75.0
5106,48.0,160,80,0.0,63.0
5107,36.0,0,80,0.0,53.0
5108,36.0,0,80,0.0,53.0
5109,70.0,160,80,0.0,91.0
5110,66.0,0,80,0.0,77.0
5111,58.0,0,80,0.0,77.0
5112,48.0,0,80,0.0,64.0
5113,37.0,0,80,0.0,55.0
5114,49.0,160,80,0.0,66.0
5115,65.0,0,80,0.0,78.0
5116,58.0,0,80,0.0,78.0
5117,70.0,0,80,0.0,92.0
5118,37.0,0,80,0.0,56.0
5119,49.0,0,80,0.0,67.0
5120,70.0,0,80,0.0,93.0
5121,64.0,0,80,0.0,79.0
5122,58.0,160,80,0.0,79.0
5123,50.0,0,80,0.0,74.0
5124,58.0,0,80,0.0,73.0
5125,65.0,0,80,0.0,86.0
5126,70.0,0,80,0.0,102.0
5127,38.0,160,80,0.0,52.0
5128,58.0,0,160,0.0,71.0
5129,46.0,0,160,0.0,50.0
5130,53.0,160,160,0.0,50.0
5131,62.0,0,0,0.0,68.0
5132,65.0,0,0,0.0,80.0
5133,74.0,0,160,0.0,95.0
5134,58.0,0,160,0.0,72.0
5135,46.0,0,160,0.0,51.0
5136,53.0,160,0,0.0,53.0
5137,74.0,0,160,0.0,95.0
5138,65.0,0,0,0.0,85.0
5139,58.0,0,160,0.0,75.0
5140,46.0,0,160,0.0,53.0
5141,62.0,0,160,0.0,72.0
5142,74.0,0,160,0.0,101.0
5143,60.0,0,160,0.0,68.0
5144,72.0,160,160,0.0,95.0
5145,70.0,160,160,0.0,95.0
5146,58.0,0,160,0.0,68.0
5147,39.0,0,160,0.0,96.0
5148,27.0,160,160,0.0,68.0
5149,51.0,0,0,0.0,51.0
5150,46.0,0,0,0.0,51.0
5151,58.0,160,0,0.0,72.0
5152,62.0,0,0,0.0,68.0
5153,66.0,0,0,0.0,80.0
5154,74.0,0,160,0.0,95.0
5155,74.0,0,160,0.0,95.0
5156,62.0,160,0,0.0,72.0
5157,46.0,0,160,0.0,53.0
5158,51.0,0,160,0.0,53.0
5159,58.0,0,160,0.0,75.0
5160,66.0,0,160,0.0,85.0
5161,74.0,0,160,0.0,101.0
5162,72.0,0,160,0.0,95.0
5163,60.0,160,160,0.0,68.0
5164,58.0,160,160,0.0,68.0
5165,70.0,0,160,0.0,95.0
5166,41.0,0,160,0.0,96.0
5167,29.0,160,160,0.0,68.0
5168,65.0,0,160,0.0,80.0
5169,74.0,0,0,0.0,95.0
5170,62.0,0,160,0.0,68.0
5171,53.0,0,160,0.0,50.0
5172,58.0,160,160,0.0,71.0
5173,46.0,0,160,0.0,50.0
5174,62.0,0,0,0.0,72.0
5175,65.0,0,0,0.0,85.0
5176,74.0,0,0,0.0,101.0
5177,53.0,0,0,0.0,53.0
5178,46.0,0,0,0.0,53.0
5179,58.0,160,0,0.0,75.0
5180,72.0,0,160,0.0,95.0
5181,60.0,160,160,0.0,68.0
5182,70.0,0,160,0.0,95.0
5183,58.0,160,160,0.0,68.0
5184,42.0,160,160,0.0,96.0
5185,30.0,0,160,0.0,68.0
5186,58.0,0,160,0.0,71.0
5187,46.0,0,160,0.0,50.0
5188,51.0,0,160,0.0,50.0
5189,74.0,0,160,0.0,95.0
5190,63.0,0,0,0.0,80.0
5191,51.0,160,160,0.0,51.0
5192,46.0,0,160,0.0,51.0
5193,58.0,0,160,0.0,72.0
5194,74.0,0,0,0.0,101.0
5195,58.0,160,160,0.0,75.0
5196,46.0,0,160,0.0,53.0
5197,51.0,0,160,0.0,53.0
5198,72.0,160,160,0.0,95.0
5199,31.0,40,120,0.0,60.0
5200,43.0,0,120,0.0,72.0
5201,70.0,0,0,0.0,101.0
5202,63.0,0,480,0.0,85.0
5203,32.0,0,60,0.0,73.0
5204,44.0,120,60,0.0,86.0
5205,41.0,0,60,0.0,79.0
5206,29.0,120,60,0.0,66.0
5207,31.0,240,60,0.0,73.0
5208,43.0,0,60,0.0,86.0
5209,44.0,0,60,0.0,81.0
5210,32.0,120,60,0.0,68.0
5211,41.0,0,60,0.0,81.0
5212,29.0,120,60,0.0,68.0
5213,65.0,0,960,0.0,84.0
5214,62.0,360,0,0.0,71.0
5215,74.0,0,960,0.0,101.0
5216,44.0,0,120,0.0,67.0
5217,32.0,0,120,0.0,56.0
5218,29.0,0,60,0.0,49.0
5219,41.0,120,60,0.0,60.0
5220,31.0,0,120,0.0,52.0
5221,43.0,240,120,0.0,62.0
5222,70.0,0,480,0.0,84.0
5223,65.0,0,480,0.0,71.0
5224,62.0,0,0,0.0,69.0
5225,74.0,0,0,0.0,83.0
5226,44.0,120,120,0.0,61.0
5227,32.0,0,120,0.0,51.0
5228,29.0,120,60,0.0,51.0
5229,41.0,0,60,0.0,61.0
5230,71.0,0,480,0.0,83.0
5231,65.0,0,0,0.0,69.0
5232,62.0,0,0,0.0,69.0
5233,74.0,360,0,0.0,82.0
5234,44.0,0,120,0.0,67.0
5235,32.0,0,120,0.0,56.0
5236,41.0,120,60,0.0,60.0
5237,29.0,0,60,0.0,50.0
5238,31.0,0,120,0.0,52.0
5239,43.0,240,120,0.0,66.0
5240,70.0,0,480,0.0,82.0
5241,44.0,120,120,0.0,62.0
5242,32.0,0,120,0.0,51.0
5243,29.0,0,60,0.0,52.0
5244,41.0,120,60,0.0,63.0
5245,74.0,0,480,0.0,82.0
5246,62.0,0,480,0.0,68.0
5247,65.0,0,480,0.0,68.0
5248,71.0,0,0,0.0,88.0
5249,45.0,0,120,0.0,74.0
5250,33.0,360,120,0.0,60.0
5251,42.0,0,60,0.0,63.0
5252,30.0,120,60,0.0,56.0
5253,66.0,0,0,0.0,72.0
5254,63.0,120,0,0.0,72.0
5255,75.0,0,0,0.0,88.0
5256,43.0,240,120,0.0,71.0
5257,31.0,0,120,0.0,59.0
5258,33.0,0,120,0.0,57.0
5259,45.0,0,120,0.0,69.0
5260,54.0,0,60,0.0,69.0
5261,42.0,120,60,0.0,57.0
5262,72.0,0,0,0.0,88.0
5263,34.0,0,120,0.0,63.0
5264,46.0,0,120,0.0,75.0
5265,43.0,120,60,0.0,67.0
5266,31.0,0,60,0.0,56.0
5267,33.0,240,120,0.0,61.0
5268,45.0,0,120,0.0,71.0
5269,67.0,0,480,0.0,74.0
5270,64.0,0,480,0.0,74.0
5271,76.0,360,480,0.0,88.0
5272,34.0,120,120,0.0,59.0
5273,46.0,0,120,0.0,71.0
5274,43.0,0,60,0.0,60.0
5275,55.0,120,60,0.0,71.0
5276,73.0,0,480,0.0,87.0
5277,67.0,0,480,0.0,73.0
5278,64.0,0,480,0.0,73.0
5279,76.0,0,480,0.0,87.0
5280,35.0,0,120,0.0,68.0
5281,47.0,0,0,0.0,60.0
5282,59.0,120,60,0.0,73.0
5283,65.0,0,480,0.0,76.0
5284,68.0,360,480,0.0,76.0
5285,73.0,0,480,0.0,93.0
5286,77.0,0,0,0.0,92.0
5287,48.0,0,160,0.0,68.0
5288,36.0,360,160,0.0,68.0
5289,60.0,0,160,0.0,74.0
5290,48.0,160,160,0.0,74.0
5291,61.0,160,160,0.0,78.0
5292,49.0,0,160,0.0,78.0
5293,69.0,0,480,0.0,76.0
5294,75.0,0,480,0.0,92.0
5295,65.0,0,480,0.0,76.0
5296,50.0,160,480,0.0,66.0
5297,58.0,0,480,0.0,66.0
5298,62.0,0,480,0.0,79.0
5299,70.0,0,480,0.0,93.0
5300,65.0,0,480,0.0,78.0
5301,77.0,0,480,0.0,93.0
5302,66.0,0,480,0.0,79.0
5303,70.0,0,0,0.0,79.0
5304,78.0,0,480,0.0,94.0
5305,63.0,0,480,0.0,80.0
5306,58.0,0,480,0.0,67.0
5307,51.0,480,480,0.0,67.0
5308,66.0,0,480,0.0,80.0
5309,54.0,0,480,0.0,67.0
5310,58.0,0,480,0.0,67.0
5311,63.0,0,480,0.0,67.0
5312,82.0,0,480,0.0,95.0
5313,60.0,0,0,0.0,65.0
5314,72.0,0,480,0.0,79.0
5315,75.0,480,480,0.0,95.0
5316,81.0,0,480,0.0,93.0
5317,69.0,0,480,0.0,77.0
5318,72.0,0,480,0.0,77.0
5319,75.0,0,480,0.0,93.0
5320,65.0,0,480,0.0,78.0
5321,53.0,480,480,0.0,65.0
5322,63.0,0,480,0.0,65.0
5323,58.0,0,480,0.0,86.0
5324,70.0,480,0,0.0,84.0
5325,74.0,0,480,0.0,102.0
5326,82.0,0,0,0.0,101.0
5327,46.0,0,480,0.0,72.0
5328,51.0,0,480,0.0,86.0
5329,39.0,0,480,0.0,70.0
5330,78.0,0,480,0.0,101.0
5331,75.0,0,480,0.0,84.0
5332,34.0,480,480,0.0,72.0
5333,46.0,0,480,0.0,87.0
5334,74.0,0,480,0.0,85.0
5335,70.0,0,0,0.0,85.0
5336,82.0,480,0,0.0,101.0
5337,77.0,0,480,0.0,101.0
5338,78.0,0,480,0.0,101.0
5339,75.0,0,480,0.0,85.0
5340,70.0,0,0,0.0,91.0
5341,82.0,0,0,0.0,108.0
5342,39.0,0,480,0.0,86.0
5343,27.0,0,480,0.0,70.0
5344,77.0,480,960,0.0,108.0
5345,46.0,0,960,0.0,92.0
5346,74.0,0,960,0.0,91.0
5347,34.0,0,960,0.0,74.0
5348,82.0,0,960,0.0,100.0
5349,70.0,0,960,0.0,77.0
5350,65.0,0,960,0.0,74.0
5351,62.0,960,0,0.0,105.0
5352,74.0,960,960,0.0,95.0
5353,94.0,0,960,0.0,117.0
5354,50.0,0,960,0.0,67.0
5355,53.0,0,960,0.0,71.0
5356,46.0,0,960,0.0,65.0
5357,41.0,0,960,0.0,60.0
5358,34.0,0,960,0.0,59.0
5359,58.0,0,960,0.0,91.0
