,note,step,duration,channel,velocity
0,59.0,0,320,1.0,44.0
1,60.0,320,320,1.0,45.0
2,61.0,320,320,1.0,46.0
3,58.0,320,320,1.0,50.0
4,65.0,320,320,1.0,48.0
5,64.0,320,320,1.0,44.0
6,59.0,320,320,1.0,45.0
7,60.0,320,320,1.0,46.0
8,61.0,320,320,1.0,48.0
9,58.0,320,320,1.0,51.0
10,65.0,320,320,1.0,49.0
11,64.0,320,320,1.0,47.0
12,59.0,320,320,1.0,45.0
13,60.0,320,320,1.0,47.0
14,61.0,320,320,1.0,49.0
15,60.0,320,320,1.0,51.0
16,62.0,320,320,1.0,53.0
17,65.0,320,320,1.0,55.0
18,64.0,320,320,1.0,57.0
19,65.0,320,320,1.0,59.0
20,68.0,320,320,1.0,61.0
21,67.0,320,320,1.0,56.0
22,68.0,320,320,1.0,55.0
23,65.0,0,480,1.0,55.0
24,48.0,240,240,3.0,54.0
25,53.0,240,240,3.0,53.0
26,56.0,240,240,3.0,52.0
27,60.0,240,240,3.0,52.0
28,56.0,240,240,3.0,51.0
29,53.0,240,240,3.0,50.0
30,48.0,240,240,3.0,49.0
31,41.0,240,0,5.0,48.0
32,48.0,240,240,3.0,48.0
33,53.0,240,240,3.0,47.0
34,56.0,240,240,3.0,46.0
35,60.0,240,240,3.0,45.0
36,56.0,240,240,3.0,44.0
37,53.0,240,240,3.0,44.0
38,41.0,240,0,5.0,42.0
39,48.0,240,240,3.0,43.0
40,48.0,240,240,3.0,41.0
41,53.0,240,240,3.0,40.0
42,56.0,240,240,3.0,40.0
43,60.0,240,240,3.0,39.0
44,56.0,240,240,3.0,38.0
45,53.0,240,240,3.0,37.0
46,48.0,240,240,3.0,36.0
47,41.0,240,0,5.0,36.0
48,48.0,240,240,3.0,35.0
49,53.0,240,240,3.0,34.0
50,56.0,240,240,3.0,33.0
51,60.0,240,240,3.0,32.0
52,56.0,240,240,3.0,32.0
53,53.0,240,240,3.0,31.0
54,48.0,240,240,3.0,30.0
55,48.0,240,240,3.0,32.0
56,60.0,80,320,1.0,32.0
57,53.0,160,240,3.0,32.0
58,68.0,160,320,1.0,33.0
59,56.0,80,240,3.0,33.0
60,60.0,0,240,3.0,33.0
61,67.0,240,320,1.0,33.0
62,56.0,240,240,3.0,34.0
63,65.0,80,320,1.0,34.0
64,53.0,160,240,3.0,34.0
65,48.0,80,240,3.0,34.0
66,41.0,240,1920,5.0,32.0
67,71.0,160,320,1.0,34.0
68,72.0,0,320,1.0,35.0
69,48.0,240,240,3.0,35.0
70,73.0,80,320,1.0,35.0
71,55.0,160,240,3.0,35.0
72,58.0,80,240,3.0,36.0
73,71.0,160,320,1.0,36.0
74,60.0,0,240,3.0,36.0
75,72.0,240,320,1.0,36.0
76,58.0,240,240,3.0,36.0
77,60.0,80,320,1.0,36.0
78,55.0,160,240,3.0,37.0
79,48.0,80,240,3.0,37.0
80,70.0,160,320,1.0,37.0
81,40.0,240,1920,5.0,35.0
82,69.0,0,320,1.0,37.0
83,48.0,240,240,3.0,38.0
84,68.0,80,320,1.0,38.0
85,53.0,160,240,3.0,38.0
86,56.0,80,240,3.0,39.0
87,67.0,160,320,1.0,38.0
88,60.0,240,240,3.0,39.0
89,65.0,0,320,1.0,39.0
90,56.0,240,240,3.0,39.0
91,77.0,80,320,1.0,39.0
92,53.0,160,240,3.0,40.0
93,48.0,80,240,3.0,40.0
94,71.0,160,320,1.0,40.0
95,41.0,240,1920,5.0,37.0
96,72.0,0,320,1.0,40.0
97,48.0,240,240,3.0,41.0
98,75.0,80,320,1.0,41.0
99,55.0,160,240,3.0,41.0
100,73.0,160,320,1.0,41.0
101,58.0,80,240,3.0,41.0
102,60.0,240,240,3.0,42.0
103,72.0,0,320,1.0,42.0
104,58.0,240,240,3.0,42.0
105,65.0,80,320,1.0,42.0
106,55.0,160,240,3.0,42.0
107,40.0,240,1920,5.0,40.0
108,67.0,160,320,1.0,43.0
109,48.0,80,240,3.0,43.0
110,68.0,0,320,1.0,43.0
111,48.0,240,240,3.0,43.0
112,64.0,80,320,1.0,44.0
113,53.0,160,240,3.0,44.0
114,56.0,80,240,3.0,44.0
115,65.0,160,320,1.0,44.0
116,60.0,240,240,3.0,45.0
117,68.0,0,320,1.0,45.0
118,56.0,240,240,3.0,45.0
119,71.0,80,320,1.0,45.0
120,53.0,160,240,3.0,45.0
121,72.0,160,320,1.0,45.0
122,48.0,80,240,3.0,46.0
123,41.0,240,1920,5.0,43.0
124,73.0,240,320,1.0,46.0
125,51.0,240,240,3.0,46.0
126,74.0,80,320,1.0,46.0
127,58.0,160,240,3.0,47.0
128,77.0,160,320,1.0,47.0
129,61.0,80,240,3.0,47.0
130,63.0,0,240,3.0,47.0
131,75.0,240,320,1.0,47.0
132,61.0,240,240,3.0,48.0
133,68.0,80,320,1.0,48.0
134,58.0,160,240,3.0,48.0
135,51.0,80,240,3.0,48.0
136,43.0,0,1920,5.0,46.0
137,70.0,160,320,1.0,48.0
138,72.0,240,320,1.0,49.0
139,51.0,240,240,3.0,49.0
140,67.0,80,320,1.0,49.0
141,56.0,160,240,3.0,50.0
142,60.0,80,240,3.0,50.0
143,68.0,160,320,1.0,50.0
144,63.0,0,240,3.0,50.0
145,71.0,240,320,1.0,50.0
146,60.0,240,240,3.0,51.0
147,72.0,80,320,1.0,51.0
148,56.0,160,240,3.0,51.0
149,44.0,0,1920,5.0,49.0
150,51.0,80,240,3.0,51.0
151,75.0,160,320,1.0,51.0
152,76.0,0,320,1.0,52.0
153,53.0,240,240,3.0,52.0
154,77.0,80,320,1.0,52.0
155,55.0,160,240,3.0,52.0
156,78.0,160,320,1.0,53.0
157,62.0,80,240,3.0,53.0
158,65.0,0,240,3.0,53.0
159,79.0,240,320,1.0,53.0
160,62.0,240,240,3.0,53.0
161,74.0,80,320,1.0,54.0
162,56.0,160,240,3.0,54.0
163,47.0,240,1920,5.0,52.0
164,77.0,160,320,1.0,54.0
165,55.0,80,240,3.0,54.0
166,76.0,0,320,1.0,54.0
167,55.0,240,240,3.0,55.0
168,71.0,80,320,1.0,55.0
169,58.0,160,240,3.0,55.0
170,60.0,80,240,3.0,56.0
171,72.0,160,320,1.0,55.0
172,64.0,240,240,3.0,56.0
173,73.0,0,320,1.0,56.0
174,60.0,240,240,3.0,56.0
175,70.0,80,320,1.0,56.0
176,58.0,160,240,3.0,57.0
177,55.0,80,240,3.0,57.0
178,48.0,240,0,5.0,57.0
179,77.0,160,320,1.0,57.0
180,76.0,0,320,1.0,57.0
181,55.0,240,240,3.0,58.0
182,71.0,80,320,1.0,58.0
183,58.0,160,240,3.0,58.0
184,60.0,80,240,3.0,58.0
185,72.0,160,320,1.0,58.0
186,64.0,0,240,3.0,59.0
187,73.0,240,320,1.0,59.0
188,60.0,240,240,3.0,59.0
189,70.0,80,320,1.0,59.0
190,58.0,160,240,3.0,59.0
191,77.0,160,320,1.0,60.0
192,55.0,80,240,3.0,60.0
193,76.0,240,320,1.0,60.0
194,55.0,240,240,3.0,61.0
195,71.0,80,320,1.0,61.0
196,58.0,160,240,3.0,61.0
197,72.0,160,320,1.0,61.0
198,60.0,80,240,3.0,61.0
199,64.0,0,240,3.0,61.0
200,73.0,240,320,1.0,60.0
201,60.0,240,240,3.0,60.0
202,72.0,80,320,1.0,59.0
203,58.0,160,240,3.0,58.0
204,55.0,80,240,3.0,57.0
205,48.0,240,0,5.0,56.0
206,74.0,160,320,1.0,58.0
207,77.0,0,320,1.0,56.0
208,55.0,240,240,3.0,55.0
209,76.0,80,320,1.0,54.0
210,58.0,160,240,3.0,53.0
211,77.0,160,320,1.0,52.0
212,60.0,80,240,3.0,52.0
213,64.0,0,240,3.0,51.0
214,80.0,240,320,1.0,51.0
215,60.0,240,240,3.0,49.0
216,79.0,80,320,1.0,49.0
217,58.0,160,240,3.0,48.0
218,55.0,80,240,3.0,47.0
219,80.0,160,320,1.0,47.0
220,48.0,240,240,3.0,44.0
221,77.0,240,480,1.0,46.0
222,53.0,240,240,3.0,43.0
223,56.0,240,240,3.0,42.0
224,65.0,240,240,3.0,41.0
225,60.0,240,240,3.0,38.0
226,56.0,240,240,3.0,35.0
227,53.0,240,240,3.0,32.0
228,41.0,240,0,5.0,36.0
229,75.0,0,320,1.0,36.0
230,48.0,240,240,3.0,36.0
231,77.0,80,320,1.0,36.0
232,53.0,160,240,3.0,37.0
233,56.0,80,240,3.0,37.0
234,75.0,160,320,1.0,37.0
235,63.0,0,240,3.0,37.0
236,77.0,240,320,1.0,37.0
237,60.0,240,240,3.0,38.0
238,75.0,80,320,1.0,38.0
239,56.0,160,240,3.0,38.0
240,41.0,240,0,5.0,39.0
241,53.0,80,240,3.0,38.0
242,77.0,160,320,1.0,38.0
243,73.0,0,320,1.0,39.0
244,49.0,240,240,3.0,39.0
245,75.0,80,320,1.0,39.0
246,53.0,160,240,3.0,39.0
247,56.0,80,240,3.0,40.0
248,73.0,160,320,1.0,40.0
249,61.0,0,240,3.0,40.0
250,75.0,240,320,1.0,40.0
251,56.0,240,240,3.0,41.0
252,73.0,80,320,1.0,41.0
253,53.0,160,240,3.0,41.0
254,49.0,80,240,3.0,41.0
255,75.0,160,320,1.0,41.0
256,72.0,0,320,1.0,42.0
257,49.0,240,240,3.0,42.0
258,73.0,80,320,1.0,42.0
259,53.0,160,240,3.0,42.0
260,72.0,160,320,1.0,43.0
261,56.0,80,240,3.0,43.0
262,61.0,0,240,3.0,43.0
263,73.0,240,320,1.0,43.0
264,56.0,240,240,3.0,43.0
265,72.0,80,320,1.0,44.0
266,53.0,160,240,3.0,44.0
267,73.0,160,320,1.0,44.0
268,41.0,240,1920,5.0,42.0
269,49.0,80,240,3.0,44.0
270,71.0,240,320,1.0,44.0
271,50.0,240,240,3.0,45.0
272,66.0,80,320,1.0,45.0
273,53.0,160,240,3.0,45.0
274,55.0,80,240,3.0,46.0
275,67.0,160,320,1.0,45.0
276,59.0,240,240,3.0,46.0
277,68.0,0,320,1.0,46.0
278,55.0,240,240,3.0,46.0
279,65.0,80,320,1.0,46.0
280,53.0,160,240,3.0,47.0
281,50.0,80,240,3.0,47.0
282,43.0,0,1920,5.0,44.0
283,72.0,160,320,1.0,47.0
284,71.0,0,320,1.0,47.0
285,50.0,240,240,3.0,47.0
286,66.0,80,320,1.0,47.0
287,53.0,160,240,3.0,47.0
288,67.0,160,320,1.0,46.0
289,55.0,80,240,3.0,46.0
290,59.0,0,240,3.0,46.0
291,68.0,240,320,1.0,46.0
292,55.0,240,240,3.0,45.0
293,65.0,80,320,1.0,45.0
294,53.0,160,240,3.0,45.0
295,50.0,80,240,3.0,44.0
296,72.0,160,320,1.0,44.0
297,43.0,0,0,5.0,44.0
298,71.0,240,320,1.0,44.0
299,50.0,240,240,3.0,43.0
300,66.0,80,320,1.0,43.0
301,53.0,160,240,3.0,43.0
302,55.0,80,240,3.0,42.0
303,67.0,160,320,1.0,42.0
304,59.0,0,240,3.0,42.0
305,68.0,240,320,1.0,42.0
306,55.0,240,240,3.0,41.0
307,67.0,80,320,1.0,41.0
308,53.0,160,240,3.0,41.0
309,50.0,80,240,3.0,40.0
310,43.0,0,0,5.0,40.0
311,69.0,160,320,1.0,40.0
312,72.0,240,320,1.0,40.0
313,50.0,240,240,3.0,39.0
314,71.0,80,320,1.0,39.0
315,53.0,160,240,3.0,39.0
316,72.0,160,320,1.0,38.0
317,55.0,80,240,3.0,38.0
318,59.0,0,240,3.0,38.0
319,75.0,240,320,1.0,38.0
320,55.0,240,240,3.0,37.0
321,74.0,80,320,1.0,37.0
322,53.0,160,240,3.0,37.0
323,50.0,80,240,3.0,36.0
324,75.0,160,320,1.0,36.0
325,43.0,240,240,3.0,35.0
326,72.0,0,480,1.0,36.0
327,48.0,240,240,3.0,35.0
328,51.0,240,240,3.0,34.0
329,60.0,240,240,3.0,35.0
330,55.0,240,240,3.0,32.0
331,51.0,240,240,3.0,29.0
332,48.0,240,240,3.0,25.0
333,36.0,0,0,5.0,28.0
334,70.0,240,320,1.0,28.0
335,43.0,240,240,3.0,28.0
336,72.0,80,320,1.0,28.0
337,48.0,160,240,3.0,28.0
338,70.0,160,320,1.0,29.0
339,51.0,80,240,3.0,29.0
340,55.0,0,240,3.0,29.0
341,72.0,240,320,1.0,29.0
342,51.0,240,240,3.0,30.0
343,70.0,80,320,1.0,30.0
344,48.0,160,240,3.0,30.0
345,72.0,160,320,1.0,30.0
346,43.0,80,240,3.0,30.0
347,36.0,240,0,5.0,31.0
348,68.0,0,320,1.0,31.0
349,44.0,240,240,3.0,31.0
350,70.0,80,320,1.0,31.0
351,48.0,160,240,3.0,31.0
352,68.0,160,320,1.0,32.0
353,51.0,80,240,3.0,32.0
354,56.0,240,240,3.0,32.0
355,70.0,0,320,1.0,32.0
356,51.0,240,240,3.0,33.0
357,68.0,80,320,1.0,33.0
358,48.0,160,240,3.0,33.0
359,36.0,240,0,5.0,34.0
360,44.0,80,240,3.0,33.0
361,70.0,160,320,1.0,33.0
362,66.0,0,320,1.0,34.0
363,44.0,240,240,3.0,34.0
364,68.0,80,320,1.0,34.0
365,48.0,160,240,3.0,34.0
366,51.0,80,240,3.0,35.0
367,66.0,160,320,1.0,35.0
368,56.0,240,240,3.0,35.0
369,68.0,0,320,1.0,35.0
370,51.0,240,240,3.0,35.0
371,66.0,80,320,1.0,36.0
372,48.0,160,240,3.0,36.0
373,68.0,160,320,1.0,36.0
374,44.0,80,240,3.0,36.0
375,65.0,240,320,1.0,37.0
376,44.0,240,240,3.0,37.0
377,77.0,80,320,1.0,37.0
378,49.0,160,240,3.0,37.0
379,75.0,160,320,1.0,38.0
380,53.0,80,240,3.0,38.0
381,56.0,0,240,3.0,38.0
382,73.0,240,320,1.0,38.0
383,53.0,240,240,3.0,38.0
384,68.0,80,320,1.0,39.0
385,49.0,160,240,3.0,39.0
386,44.0,80,240,3.0,39.0
387,70.0,160,320,1.0,39.0
388,37.0,240,0,5.0,39.0
389,71.0,0,320,1.0,39.0
390,44.0,240,240,3.0,40.0
391,82.0,80,320,1.0,40.0
392,49.0,160,240,3.0,40.0
393,80.0,160,320,1.0,40.0
394,53.0,80,240,3.0,41.0
395,56.0,240,240,3.0,41.0
396,78.0,0,320,1.0,41.0
397,53.0,240,240,3.0,41.0
398,75.0,80,320,1.0,41.0
399,49.0,160,240,3.0,42.0
400,78.0,160,320,1.0,42.0
401,44.0,80,240,3.0,42.0
402,68.0,240,320,1.0,42.0
403,44.0,240,240,3.0,43.0
404,78.0,80,320,1.0,43.0
405,49.0,160,240,3.0,43.0
406,53.0,80,240,3.0,44.0
407,77.0,160,320,1.0,43.0
408,56.0,240,240,3.0,44.0
409,75.0,0,320,1.0,44.0
410,53.0,240,240,3.0,44.0
411,71.0,80,320,1.0,44.0
412,49.0,160,240,3.0,45.0
413,37.0,0,1920,5.0,42.0
414,44.0,80,240,3.0,45.0
415,75.0,160,320,1.0,45.0
416,65.0,0,320,1.0,45.0
417,44.0,240,240,3.0,45.0
418,75.0,80,320,1.0,45.0
419,49.0,160,240,3.0,45.0
420,73.0,160,320,1.0,45.0
421,53.0,80,240,3.0,45.0
422,56.0,240,240,3.0,45.0
423,71.0,0,320,1.0,45.0
424,53.0,240,240,3.0,46.0
425,68.0,80,320,1.0,46.0
426,49.0,160,240,3.0,46.0
427,44.0,80,240,3.0,46.0
428,37.0,240,1920,5.0,45.0
429,71.0,160,320,1.0,46.0
430,58.0,0,320,1.0,46.0
431,44.0,240,240,3.0,47.0
432,65.0,80,320,1.0,47.0
433,46.0,160,240,3.0,47.0
434,64.0,160,320,1.0,47.0
435,53.0,80,240,3.0,47.0
436,56.0,0,240,3.0,47.0
437,63.0,240,320,1.0,47.0
438,53.0,240,240,3.0,48.0
439,62.0,80,320,1.0,48.0
440,46.0,160,240,3.0,48.0
441,44.0,80,240,3.0,48.0
442,65.0,160,320,1.0,48.0
443,38.0,240,0,5.0,49.0
444,58.0,0,320,1.0,49.0
445,46.0,240,240,3.0,49.0
446,71.0,80,320,1.0,49.0
447,53.0,160,240,3.0,49.0
448,56.0,80,240,3.0,49.0
449,70.0,160,320,1.0,49.0
450,58.0,0,240,3.0,50.0
451,69.0,240,320,1.0,50.0
452,56.0,240,240,3.0,50.0
453,68.0,80,320,1.0,50.0
454,53.0,160,240,3.0,50.0
455,46.0,80,240,3.0,50.0
456,77.0,160,320,1.0,50.0
457,75.0,240,320,1.0,51.0
458,46.0,240,240,3.0,51.0
459,74.0,80,320,1.0,51.0
460,53.0,160,240,3.0,51.0
461,83.0,160,320,1.0,51.0
462,56.0,80,240,3.0,51.0
463,58.0,0,240,3.0,52.0
464,82.0,240,320,1.0,52.0
465,56.0,240,240,3.0,52.0
466,81.0,80,320,1.0,52.0
467,53.0,160,240,3.0,52.0
468,46.0,80,240,3.0,52.0
469,80.0,160,320,1.0,52.0
470,34.0,0,1920,5.0,51.0
471,77.0,0,320,1.0,53.0
472,46.0,240,240,3.0,53.0
473,73.0,80,320,1.0,53.0
474,53.0,160,240,3.0,53.0
475,56.0,80,240,3.0,53.0
476,71.0,160,320,1.0,53.0
477,58.0,0,240,3.0,54.0
478,70.0,240,320,1.0,54.0
479,56.0,240,240,3.0,54.0
480,61.0,80,320,1.0,54.0
481,53.0,160,240,3.0,54.0
482,46.0,80,240,3.0,54.0
483,59.0,160,320,1.0,54.0
484,38.0,240,1920,5.0,53.0
485,58.0,240,320,1.0,55.0
486,46.0,240,240,3.0,55.0
487,62.0,80,320,1.0,55.0
488,51.0,160,240,3.0,55.0
489,63.0,160,320,1.0,55.0
490,54.0,80,240,3.0,56.0
491,58.0,0,240,3.0,56.0
492,65.0,240,320,1.0,56.0
493,54.0,240,240,3.0,56.0
494,66.0,80,320,1.0,56.0
495,51.0,160,240,3.0,56.0
496,39.0,0,1920,5.0,55.0
497,69.0,160,320,1.0,56.0
498,46.0,80,240,3.0,57.0
499,70.0,0,320,1.0,57.0
500,46.0,240,240,3.0,57.0
501,71.0,80,320,1.0,57.0
502,53.0,160,240,3.0,57.0
503,69.0,160,320,1.0,57.0
504,56.0,80,240,3.0,58.0
505,58.0,0,240,3.0,58.0
506,70.0,240,320,1.0,58.0
507,56.0,240,240,3.0,58.0
508,61.0,80,320,1.0,58.0
509,53.0,160,240,3.0,58.0
510,38.0,240,1920,5.0,57.0
511,59.0,160,320,1.0,59.0
512,46.0,80,240,3.0,59.0
513,58.0,0,320,1.0,59.0
514,46.0,240,240,3.0,59.0
515,62.0,80,320,1.0,59.0
516,51.0,160,240,3.0,59.0
517,65.0,160,320,1.0,60.0
518,54.0,80,240,3.0,60.0
519,58.0,240,240,3.0,60.0
520,63.0,0,320,1.0,60.0
521,54.0,240,240,3.0,60.0
522,75.0,80,320,1.0,60.0
523,51.0,160,240,3.0,60.0
524,46.0,80,240,3.0,61.0
525,69.0,160,320,1.0,61.0
526,39.0,240,1920,5.0,59.0
527,70.0,240,320,1.0,61.0
528,46.0,240,240,3.0,61.0
529,73.0,80,320,1.0,61.0
530,53.0,160,240,3.0,61.0
531,71.0,160,320,1.0,62.0
532,56.0,80,240,3.0,62.0
533,58.0,0,240,3.0,62.0
534,70.0,240,320,1.0,62.0
535,56.0,240,240,3.0,62.0
536,63.0,80,320,1.0,62.0
537,53.0,160,240,3.0,62.0
538,38.0,0,1920,5.0,61.0
539,65.0,160,320,1.0,63.0
540,46.0,80,240,3.0,63.0
541,66.0,0,320,1.0,63.0
542,46.0,240,240,3.0,63.0
543,62.0,80,320,1.0,63.0
544,51.0,160,240,3.0,64.0
545,54.0,80,240,3.0,64.0
546,63.0,160,320,1.0,64.0
547,58.0,240,240,3.0,64.0
548,66.0,0,320,1.0,64.0
549,54.0,240,240,3.0,64.0
550,70.0,80,320,1.0,64.0
551,51.0,160,240,3.0,65.0
552,39.0,240,1920,5.0,63.0
553,71.0,160,320,1.0,65.0
554,46.0,80,240,3.0,65.0
555,72.0,240,320,1.0,65.0
556,48.0,240,240,3.0,65.0
557,73.0,80,320,1.0,65.0
558,55.0,160,240,3.0,66.0
559,71.0,160,320,1.0,66.0
560,58.0,80,240,3.0,66.0
561,60.0,0,240,3.0,66.0
562,72.0,240,320,1.0,66.0
563,58.0,240,240,3.0,66.0
564,63.0,80,320,1.0,66.0
565,55.0,160,240,3.0,67.0
566,61.0,160,320,1.0,67.0
567,40.0,0,1920,5.0,65.0
568,48.0,80,240,3.0,67.0
569,60.0,240,320,1.0,67.0
570,48.0,240,240,3.0,67.0
571,64.0,80,320,1.0,68.0
572,53.0,160,240,3.0,68.0
573,56.0,80,240,3.0,68.0
574,67.0,160,320,1.0,68.0
575,60.0,240,240,3.0,68.0
576,65.0,0,320,1.0,68.0
577,56.0,240,240,3.0,68.0
578,77.0,80,320,1.0,69.0
579,53.0,160,240,3.0,69.0
580,71.0,160,320,1.0,69.0
581,41.0,0,1920,5.0,67.0
582,48.0,80,240,3.0,69.0
583,72.0,240,320,1.0,69.0
584,48.0,240,240,3.0,69.0
585,75.0,80,320,1.0,70.0
586,55.0,160,240,3.0,70.0
587,58.0,80,240,3.0,70.0
588,73.0,160,320,1.0,70.0
589,60.0,240,240,3.0,70.0
590,72.0,0,320,1.0,70.0
591,58.0,240,240,3.0,71.0
592,67.0,80,320,1.0,71.0
593,55.0,160,240,3.0,71.0
594,70.0,160,320,1.0,71.0
595,40.0,0,1920,5.0,69.0
596,48.0,80,240,3.0,71.0
597,69.0,240,320,1.0,71.0
598,48.0,240,240,3.0,72.0
599,64.0,80,320,1.0,72.0
600,51.0,160,240,3.0,72.0
601,57.0,80,240,3.0,72.0
602,65.0,160,320,1.0,72.0
603,60.0,240,240,3.0,72.0
604,66.0,0,320,1.0,72.0
605,57.0,240,240,3.0,73.0
606,63.0,80,320,1.0,73.0
607,51.0,160,240,3.0,73.0
608,41.0,0,1920,5.0,71.0
609,48.0,80,240,3.0,73.0
610,70.0,160,320,1.0,73.0
611,69.0,240,320,1.0,73.0
612,48.0,240,240,3.0,74.0
613,64.0,80,320,1.0,74.0
614,51.0,160,240,3.0,74.0
615,65.0,160,320,1.0,74.0
616,57.0,80,240,3.0,74.0
617,60.0,0,240,3.0,74.0
618,66.0,240,320,1.0,74.0
619,57.0,240,240,3.0,75.0
620,63.0,80,320,1.0,75.0
621,51.0,160,240,3.0,75.0
622,41.0,240,0,5.0,75.0
623,72.0,160,320,1.0,75.0
624,48.0,80,240,3.0,75.0
625,71.0,0,320,1.0,75.0
626,50.0,240,240,3.0,76.0
627,66.0,80,320,1.0,76.0
628,55.0,160,240,3.0,76.0
629,67.0,160,320,1.0,76.0
630,59.0,80,240,3.0,76.0
631,62.0,0,240,3.0,76.0
632,68.0,240,320,1.0,76.0
633,59.0,240,240,3.0,76.0
634,65.0,80,320,1.0,76.0
635,55.0,160,240,3.0,77.0
636,50.0,80,240,3.0,77.0
637,72.0,160,320,1.0,77.0
638,71.0,0,320,1.0,78.0
639,50.0,240,240,3.0,78.0
640,66.0,80,320,1.0,78.0
641,53.0,160,240,3.0,78.0
642,55.0,80,240,3.0,79.0
643,67.0,160,320,1.0,79.0
644,59.0,240,240,3.0,79.0
645,68.0,0,320,1.0,79.0
646,55.0,240,240,3.0,80.0
647,65.0,80,320,1.0,80.0
648,53.0,160,240,3.0,80.0
649,80.0,160,320,1.0,80.0
650,50.0,80,240,3.0,81.0
651,41.0,240,1920,5.0,78.0
652,79.0,240,320,1.0,83.0
653,49.0,240,240,3.0,82.0
654,77.0,80,320,1.0,81.0
655,53.0,160,240,3.0,81.0
656,76.0,160,320,1.0,80.0
657,58.0,80,240,3.0,79.0
658,61.0,240,240,3.0,78.0
659,77.0,0,320,1.0,78.0
660,58.0,240,240,3.0,77.0
661,75.0,80,320,1.0,76.0
662,53.0,160,240,3.0,76.0
663,73.0,160,320,1.0,75.0
664,49.0,80,240,3.0,74.0
665,41.0,0,0,5.0,73.0
666,75.0,240,320,1.0,73.0
667,49.0,240,240,3.0,72.0
668,73.0,80,320,1.0,71.0
669,53.0,160,240,3.0,71.0
670,72.0,160,320,1.0,70.0
671,58.0,80,240,3.0,69.0
672,61.0,0,240,3.0,68.0
673,70.0,240,320,1.0,68.0
674,58.0,240,240,3.0,67.0
675,68.0,80,320,1.0,66.0
676,53.0,160,240,3.0,66.0
677,66.0,160,320,1.0,65.0
678,49.0,80,240,3.0,64.0
679,65.0,0,320,1.0,63.0
680,48.0,240,240,3.0,62.0
681,64.0,80,320,1.0,62.0
682,55.0,160,240,3.0,61.0
683,58.0,80,240,3.0,59.0
684,71.0,160,320,1.0,60.0
685,60.0,240,240,3.0,58.0
686,73.0,0,320,1.0,58.0
687,58.0,240,240,3.0,57.0
688,72.0,80,320,1.0,57.0
689,55.0,160,240,3.0,56.0
690,41.0,240,1920,5.0,63.0
691,48.0,80,240,3.0,55.0
692,74.0,160,320,1.0,55.0
693,77.0,0,320,1.0,53.0
694,48.0,240,240,3.0,52.0
695,76.0,80,320,1.0,52.0
696,55.0,160,240,3.0,51.0
697,77.0,160,320,1.0,50.0
698,58.0,80,240,3.0,50.0
699,60.0,0,240,3.0,48.0
700,80.0,240,320,1.0,48.0
701,58.0,240,240,3.0,47.0
702,79.0,80,320,1.0,47.0
703,55.0,160,240,3.0,46.0
704,41.0,240,1920,5.0,53.0
705,48.0,80,240,3.0,45.0
706,80.0,160,320,1.0,45.0
707,48.0,240,240,3.0,42.0
708,53.0,240,240,3.0,41.0
709,56.0,240,240,3.0,40.0
710,60.0,240,240,3.0,38.0
711,56.0,240,240,3.0,37.0
712,53.0,240,240,3.0,36.0
713,48.0,240,240,3.0,35.0
714,41.0,0,0,5.0,34.0
715,77.0,240,1920,1.0,43.0
716,75.0,240,320,1.0,34.0
717,48.0,240,240,3.0,34.0
718,77.0,80,320,1.0,35.0
719,53.0,160,240,3.0,35.0
720,75.0,160,320,1.0,35.0
721,56.0,80,240,3.0,36.0
722,60.0,0,240,3.0,36.0
723,77.0,240,320,1.0,36.0
724,56.0,240,240,3.0,37.0
725,75.0,80,320,1.0,37.0
726,53.0,160,240,3.0,37.0
727,77.0,160,320,1.0,38.0
728,48.0,80,240,3.0,38.0
729,73.0,240,320,1.0,38.0
730,49.0,240,240,3.0,39.0
731,75.0,80,320,1.0,39.0
732,53.0,160,240,3.0,40.0
733,56.0,80,240,3.0,40.0
734,73.0,160,320,1.0,40.0
735,61.0,240,240,3.0,41.0
736,75.0,0,320,1.0,41.0
737,56.0,240,240,3.0,41.0
738,73.0,80,320,1.0,42.0
739,53.0,160,240,3.0,42.0
740,75.0,160,320,1.0,42.0
741,49.0,80,240,3.0,42.0
742,41.0,0,0,5.0,43.0
743,71.0,240,320,1.0,43.0
744,49.0,240,240,3.0,42.0
745,73.0,80,320,1.0,42.0
746,53.0,160,240,3.0,42.0
747,71.0,160,320,1.0,41.0
748,56.0,80,240,3.0,41.0
749,61.0,0,240,3.0,40.0
750,73.0,240,320,1.0,40.0
751,56.0,240,240,3.0,40.0
752,71.0,80,320,1.0,40.0
753,53.0,160,240,3.0,39.0
754,73.0,160,320,1.0,39.0
755,49.0,80,240,3.0,38.0
756,70.0,240,320,1.0,38.0
757,49.0,240,240,3.0,37.0
758,72.0,80,320,1.0,37.0
759,54.0,160,240,3.0,37.0
760,70.0,160,320,1.0,36.0
761,58.0,80,240,3.0,36.0
762,61.0,240,240,3.0,35.0
763,72.0,0,320,1.0,35.0
764,58.0,240,240,3.0,35.0
765,70.0,80,320,1.0,34.0
766,54.0,160,240,3.0,34.0
767,42.0,0,1920,5.0,38.0
768,72.0,160,320,1.0,33.0
769,49.0,80,240,3.0,33.0
770,70.0,0,320,1.0,33.0
771,48.0,240,240,3.0,33.0
772,72.0,80,320,1.0,33.0
773,52.0,160,240,3.0,33.0
774,43.0,240,960,5.0,33.0
775,58.0,80,240,3.0,32.0
776,70.0,160,320,1.0,32.0
777,72.0,240,320,1.0,32.0
778,70.0,320,320,1.0,31.0
779,65.0,320,320,1.0,30.0
780,67.0,320,320,1.0,30.0
781,68.0,320,320,1.0,29.0
782,67.0,320,320,1.0,28.0
783,68.0,320,320,1.0,28.0
784,67.0,320,320,1.0,27.0
785,58.0,320,320,1.0,26.0
786,61.0,320,960,1.0,26.0
787,64.0,0,960,1.0,24.0
788,55.0,0,960,2.0,24.0
789,36.0,0,960,5.0,24.0
790,60.0,0,960,2.0,24.0
791,48.0,960,960,5.0,24.0
792,56.0,0,960,2.0,22.0
793,60.0,0,960,2.0,22.0
794,65.0,960,960,1.0,22.0
795,29.0,0,960,5.0,22.0
796,41.0,0,960,5.0,22.0
797,48.0,1920,960,4.0,18.0
798,56.0,0,960,1.0,18.0
799,53.0,0,0,2.0,16.0
800,41.0,0,0,5.0,16.0
801,41.0,0,0,5.0,14.0
802,48.0,960,0,4.0,14.0
803,56.0,0,960,1.0,16.0
804,53.0,0,0,2.0,14.0
805,56.0,0,1920,1.0,14.0
806,68.0,5040,96,2.0,47.0
807,70.0,240,96,2.0,52.0
808,68.0,240,96,2.0,50.0
809,70.0,240,96,2.0,49.0
810,68.0,240,96,2.0,48.0
811,70.0,240,96,2.0,47.0
812,68.0,240,96,2.0,46.0
813,67.0,240,96,2.0,49.0
814,68.0,240,96,2.0,47.0
815,67.0,240,96,2.0,45.0
816,68.0,240,96,2.0,42.0
817,66.0,240,96,2.0,47.0
818,68.0,240,96,2.0,44.0
819,65.0,0,96,2.0,44.0
820,68.0,240,96,2.0,44.0
821,37.0,0,480,5.0,44.0
822,77.0,240,480,1.0,44.0
823,65.0,0,96,2.0,45.0
824,77.0,0,240,1.0,45.0
825,68.0,240,96,2.0,45.0
826,61.0,0,360,4.0,45.0
827,56.0,0,360,4.0,45.0
828,49.0,240,360,4.0,45.0
829,73.0,0,240,1.0,45.0
830,61.0,0,96,2.0,46.0
831,70.0,240,240,1.0,46.0
832,66.0,240,96,2.0,46.0
833,42.0,0,360,5.0,46.0
834,72.0,0,240,1.0,46.0
835,60.0,240,96,2.0,46.0
836,70.0,0,161,1.0,46.0
837,68.0,160,60,1.0,47.0
838,70.0,40,60,1.0,47.0
839,66.0,40,96,2.0,47.0
840,44.0,0,480,5.0,46.0
841,68.0,0,240,1.0,47.0
842,60.0,0,96,2.0,47.0
843,67.0,240,240,1.0,47.0
844,66.0,0,96,2.0,48.0
845,63.0,0,360,4.0,47.0
846,56.0,0,360,4.0,47.0
847,51.0,0,360,4.0,47.0
848,68.0,240,240,1.0,48.0
849,60.0,0,96,2.0,48.0
850,70.0,0,240,1.0,48.0
851,66.0,240,96,2.0,49.0
852,44.0,240,360,5.0,48.0
853,72.0,0,240,1.0,49.0
854,65.0,0,96,2.0,49.0
855,75.0,0,161,1.0,49.0
856,73.0,160,60,1.0,49.0
857,75.0,40,60,1.0,49.0
858,68.0,40,96,2.0,50.0
859,46.0,240,480,5.0,49.0
860,73.0,0,240,1.0,50.0
861,65.0,0,96,2.0,50.0
862,72.0,0,240,1.0,50.0
863,68.0,0,96,2.0,50.0
864,61.0,0,360,4.0,50.0
865,58.0,0,360,4.0,50.0
866,53.0,240,360,4.0,50.0
867,73.0,240,240,1.0,50.0
868,67.0,240,96,2.0,51.0
869,77.0,0,240,1.0,51.0
870,70.0,0,96,2.0,51.0
871,51.0,0,360,4.0,51.0
872,58.0,0,360,4.0,51.0
873,61.0,0,360,4.0,51.0
874,75.0,240,240,1.0,51.0
875,63.0,0,96,2.0,54.0
876,73.0,240,240,1.0,54.0
877,68.0,0,96,2.0,56.0
878,44.0,0,480,5.0,54.0
879,72.0,240,240,1.0,56.0
880,63.0,0,96,2.0,58.0
881,74.0,240,240,1.0,58.0
882,68.0,0,96,2.0,61.0
883,56.0,0,360,4.0,58.0
884,51.0,0,360,4.0,58.0
885,60.0,0,360,4.0,58.0
886,75.0,240,240,1.0,61.0
887,72.0,240,96,2.0,63.0
888,82.0,0,240,1.0,63.0
889,75.0,0,96,2.0,55.0
890,63.0,0,360,4.0,63.0
891,68.0,0,360,4.0,63.0
892,60.0,0,360,4.0,63.0
893,80.0,240,192,1.0,55.0
894,66.0,240,96,2.0,46.0
895,78.0,0,240,1.0,46.0
896,70.0,240,96,2.0,46.0
897,39.0,0,360,5.0,46.0
898,74.0,0,240,1.0,46.0
899,66.0,240,96,2.0,47.0
900,77.0,0,240,1.0,47.0
901,70.0,240,96,2.0,47.0
902,51.0,0,360,4.0,47.0
903,63.0,0,360,4.0,47.0
904,56.0,0,360,4.0,47.0
905,75.0,0,240,1.0,47.0
906,63.0,0,96,2.0,48.0
907,71.0,0,240,1.0,48.0
908,68.0,240,96,2.0,48.0
909,44.0,240,360,5.0,48.0
910,59.0,0,360,4.0,48.0
911,73.0,0,240,1.0,48.0
912,34.0,200,41,5.0,49.0
913,62.0,0,96,2.0,49.0
914,71.0,40,157,1.0,49.0
915,70.0,160,57,1.0,49.0
916,71.0,40,55,1.0,49.0
917,68.0,40,96,2.0,49.0
918,70.0,0,240,1.0,49.0
919,62.0,0,96,2.0,50.0
920,69.0,0,240,1.0,50.0
921,68.0,0,96,2.0,50.0
922,58.0,0,360,4.0,50.0
923,65.0,240,360,4.0,50.0
924,70.0,240,240,1.0,50.0
925,62.0,0,96,2.0,50.0
926,72.0,0,240,1.0,50.0
927,68.0,240,96,2.0,51.0
928,58.0,0,360,4.0,50.0
929,53.0,240,360,4.0,50.0
930,74.0,0,240,1.0,51.0
931,66.0,0,96,2.0,51.0
932,77.0,240,161,1.0,51.0
933,75.0,160,53,1.0,53.0
934,77.0,40,47,1.0,54.0
935,70.0,40,96,2.0,54.0
936,39.0,0,360,5.0,51.0
937,75.0,0,240,1.0,54.0
938,66.0,0,96,2.0,57.0
939,74.0,240,240,1.0,57.0
940,70.0,240,96,2.0,59.0
941,51.0,0,360,4.0,57.0
942,63.0,0,360,4.0,57.0
943,58.0,0,360,4.0,57.0
944,75.0,0,240,1.0,59.0
945,66.0,0,96,2.0,62.0
946,78.0,0,240,1.0,62.0
947,68.0,240,96,2.0,58.0
948,44.0,240,360,5.0,62.0
949,72.0,0,240,1.0,58.0
950,65.0,0,96,2.0,54.0
951,75.0,240,240,1.0,54.0
952,68.0,240,96,2.0,53.0
953,49.0,0,360,5.0,54.0
954,74.0,0,240,1.0,53.0
955,65.0,240,96,2.0,51.0
956,73.0,0,240,1.0,51.0
957,68.0,240,96,2.0,49.0
958,61.0,0,360,4.0,51.0
959,56.0,0,360,4.0,51.0
960,72.0,0,183,1.0,49.0
961,34.0,0,1,5.0,47.0
962,65.0,0,96,2.0,47.0
963,75.0,240,240,1.0,47.0
964,68.0,0,96,2.0,46.0
965,73.0,240,180,1.0,46.0
966,61.0,240,96,2.0,46.0
967,72.0,0,240,1.0,46.0
968,63.0,240,96,2.0,46.0
969,39.0,0,360,5.0,46.0
970,70.0,0,240,1.0,46.0
971,61.0,240,96,2.0,47.0
972,69.0,0,240,1.0,47.0
973,63.0,240,96,2.0,47.0
974,51.0,0,360,4.0,47.0
975,55.0,0,360,4.0,47.0
976,70.0,0,240,1.0,47.0
977,61.0,0,96,2.0,48.0
978,72.0,240,240,1.0,48.0
979,63.0,240,96,2.0,48.0
980,39.0,0,360,5.0,48.0
981,67.0,0,240,1.0,48.0
982,60.0,0,96,2.0,49.0
983,70.0,0,240,1.0,49.0
984,63.0,0,96,2.0,49.0
985,44.0,240,360,5.0,49.0
986,68.0,240,240,1.0,49.0
987,60.0,0,96,2.0,50.0
988,67.0,0,240,1.0,50.0
989,63.0,240,96,2.0,50.0
990,51.0,240,360,4.0,50.0
991,56.0,0,360,4.0,50.0
992,68.0,0,240,1.0,50.0
993,60.0,0,96,2.0,51.0
994,72.0,240,240,1.0,51.0
995,68.0,240,96,2.0,51.0
996,44.0,0,360,5.0,51.0
997,77.0,0,187,1.0,51.0
998,66.0,240,96,2.0,53.0
999,70.0,240,96,2.0,55.0
1000,39.0,0,360,5.0,53.0
1001,75.0,0,480,1.0,53.0
1002,63.0,0,96,2.0,58.0
1003,73.0,0,240,1.0,58.0
1004,66.0,240,96,2.0,60.0
1005,51.0,240,360,4.0,58.0
1006,58.0,0,360,4.0,58.0
1007,72.0,0,240,1.0,60.0
1008,63.0,0,96,2.0,62.0
1009,70.0,40,240,1.0,62.0
1010,65.0,0,96,2.0,66.0
1011,41.0,200,400,5.0,62.0
1012,57.0,0,360,4.0,62.0
1013,72.0,240,240,1.0,66.0
1014,61.0,240,96,2.0,68.0
1015,65.0,240,96,2.0,58.0
1016,46.0,0,360,5.0,68.0
1017,61.0,0,96,2.0,55.0
1018,64.0,240,96,2.0,51.0
1019,53.0,0,360,4.0,55.0
1020,58.0,240,360,4.0,55.0
1021,65.0,240,96,2.0,48.0
1022,70.0,240,96,2.0,45.0
1023,43.0,0,360,5.0,48.0
1024,64.0,0,96,2.0,42.0
1025,73.0,0,1680,1.0,68.0
1026,48.0,240,360,5.0,42.0
1027,70.0,0,156,2.0,42.0
1028,72.0,240,180,1.0,42.0
1029,73.0,180,60,1.0,43.0
1030,64.0,0,156,2.0,43.0
1031,72.0,60,240,1.0,43.0
1032,55.0,0,360,4.0,43.0
1033,60.0,0,360,4.0,43.0
1034,71.0,0,156,1.0,43.0
1035,70.0,240,240,2.0,43.0
1036,64.0,0,156,2.0,44.0
1037,70.0,240,156,2.0,44.0
1038,36.0,240,480,5.0,44.0
1039,65.0,240,156,2.0,45.0
1040,73.0,0,720,1.0,44.0
1041,48.0,0,360,5.0,45.0
1042,68.0,0,156,2.0,45.0
1043,72.0,240,180,1.0,45.0
1044,73.0,180,60,1.0,46.0
1045,65.0,0,156,2.0,46.0
1046,72.0,0,240,1.0,46.0
1047,56.0,60,360,4.0,46.0
1048,60.0,0,360,4.0,46.0
1049,68.0,0,156,2.0,46.0
1050,70.0,240,240,1.0,46.0
1051,65.0,240,156,2.0,47.0
1052,73.0,0,240,1.0,47.0
1053,68.0,240,156,2.0,48.0
1054,36.0,0,480,5.0,47.0
1055,72.0,0,240,1.0,48.0
1056,64.0,0,156,2.0,49.0
1057,71.0,0,240,1.0,49.0
1058,48.0,240,360,5.0,49.0
1059,70.0,240,156,2.0,51.0
1060,72.0,0,240,1.0,51.0
1061,64.0,0,156,2.0,53.0
1062,73.0,240,240,1.0,53.0
1063,55.0,0,360,4.0,53.0
1064,70.0,240,156,2.0,55.0
1065,72.0,0,240,1.0,55.0
1066,70.0,0,156,2.0,59.0
1067,77.0,240,240,1.0,59.0
1068,64.0,0,360,4.0,59.0
1069,48.0,0,360,5.0,59.0
1070,72.0,0,156,2.0,64.0
1071,79.0,240,240,1.0,64.0
1072,68.0,0,156,2.0,68.0
1073,41.0,240,360,5.0,68.0
1074,73.0,240,156,2.0,62.0
1075,68.0,0,156,2.0,56.0
1076,71.0,240,156,2.0,55.0
1077,80.0,0,900,1.0,68.0
1078,53.0,240,480,4.0,56.0
1079,61.0,0,480,4.0,56.0
1080,67.0,0,156,2.0,53.0
1081,60.0,0,360,4.0,53.0
1082,52.0,240,360,4.0,53.0
1083,72.0,240,156,2.0,51.0
1084,79.0,0,445,1.0,53.0
1085,66.0,240,156,2.0,49.0
1086,78.0,0,240,1.0,49.0
1087,39.0,0,360,5.0,49.0
1088,68.0,240,156,2.0,49.0
1089,71.0,0,195,1.0,49.0
1090,73.0,180,60,1.0,49.0
1091,66.0,60,156,2.0,49.0
1092,71.0,0,240,1.0,49.0
1093,51.0,0,360,4.0,49.0
1094,59.0,0,360,4.0,49.0
1095,68.0,240,156,2.0,48.0
1096,70.0,0,240,1.0,48.0
1097,66.0,240,156,2.0,48.0
1098,51.0,0,360,4.0,48.0
1099,59.0,0,360,4.0,48.0
1100,68.0,240,156,2.0,48.0
1101,64.0,0,156,2.0,47.0
1102,37.0,240,360,5.0,47.0
1103,68.0,240,156,2.0,47.0
1104,71.0,0,967,1.0,48.0
1105,64.0,240,156,2.0,46.0
1106,49.0,0,360,4.0,46.0
1107,54.0,0,360,4.0,46.0
1108,66.0,240,156,2.0,46.0
1109,70.0,0,420,1.0,46.0
1110,64.0,0,156,2.0,46.0
1111,49.0,240,360,4.0,46.0
1112,55.0,0,360,4.0,46.0
1113,67.0,240,156,2.0,45.0
1114,76.0,0,480,1.0,46.0
1115,63.0,0,156,2.0,45.0
1116,75.0,0,240,1.0,45.0
1117,35.0,240,360,5.0,45.0
1118,64.0,0,156,2.0,44.0
1119,68.0,240,180,1.0,44.0
1120,70.0,180,60,1.0,44.0
1121,63.0,0,156,2.0,44.0
1122,68.0,60,240,1.0,44.0
1123,47.0,0,360,4.0,44.0
1124,56.0,0,360,4.0,44.0
1125,64.0,240,156,2.0,44.0
1126,67.0,0,240,1.0,44.0
1127,63.0,0,156,2.0,43.0
1128,56.0,0,360,4.0,43.0
1129,47.0,0,360,4.0,43.0
1130,64.0,240,156,2.0,43.0
1131,61.0,240,156,2.0,43.0
1132,64.0,240,156,2.0,42.0
1133,68.0,240,960,1.0,43.0
1134,61.0,0,156,2.0,42.0
1135,51.0,240,360,4.0,42.0
1136,46.0,0,360,4.0,42.0
1137,58.0,0,360,4.0,42.0
1138,63.0,240,156,2.0,41.0
1139,67.0,0,420,1.0,42.0
1140,61.0,0,156,2.0,41.0
1141,39.0,240,360,5.0,41.0
1142,66.0,240,156,2.0,41.0
1143,60.0,240,156,2.0,40.0
1144,73.0,0,725,1.0,41.0
1145,44.0,0,360,5.0,40.0
1146,68.0,240,156,2.0,40.0
1147,72.0,0,240,1.0,40.0
1148,60.0,0,156,2.0,40.0
1149,70.0,0,240,1.0,40.0
1150,51.0,240,360,4.0,40.0
1151,56.0,0,360,4.0,40.0
1152,63.0,0,156,2.0,39.0
1153,68.0,240,240,1.0,39.0
1154,61.0,0,156,2.0,39.0
1155,72.0,240,240,1.0,39.0
1156,65.0,240,156,2.0,38.0
1157,70.0,0,240,1.0,38.0
1158,58.0,0,156,2.0,38.0
1159,39.0,0,360,5.0,38.0
1160,65.0,240,156,2.0,38.0
1161,58.0,240,156,2.0,37.0
1162,60.0,240,156,2.0,37.0
1163,68.0,240,960,1.0,38.0
1164,61.0,240,156,2.0,36.0
1165,63.0,240,156,2.0,36.0
1166,67.0,0,480,1.0,36.0
1167,60.0,240,156,2.0,36.0
1168,63.0,240,156,2.0,38.0
1169,68.0,0,420,1.0,36.0
1170,60.0,0,156,2.0,38.0
1171,72.0,240,240,1.0,38.0
1172,63.0,240,156,2.0,39.0
1173,70.0,0,180,1.0,39.0
1174,51.0,0,1920,5.0,37.0
1175,72.0,180,60,1.0,39.0
1176,60.0,0,156,2.0,39.0
1177,70.0,0,240,1.0,39.0
1178,63.0,0,156,2.0,39.0
1179,44.0,0,1440,5.0,36.0
1180,68.0,240,240,1.0,39.0
1181,56.0,240,0,5.0,40.0
1182,61.0,0,156,2.0,40.0
1183,72.0,0,240,1.0,40.0
1184,65.0,0,156,2.0,40.0
1185,70.0,240,180,1.0,40.0
1186,72.0,180,60,1.0,40.0
1187,61.0,60,156,2.0,40.0
1188,70.0,0,240,1.0,40.0
1189,65.0,240,156,2.0,40.0
1190,68.0,0,240,1.0,40.0
1191,61.0,0,156,2.0,41.0
1192,72.0,240,240,1.0,41.0
1193,65.0,0,156,2.0,41.0
1194,70.0,240,185,1.0,41.0
1195,44.0,0,480,5.0,41.0
1196,60.0,0,156,2.0,41.0
1197,70.0,240,240,1.0,41.0
1198,63.0,240,156,2.0,42.0
1199,68.0,0,240,1.0,42.0
1200,60.0,240,156,2.0,42.0
1201,72.0,0,240,1.0,42.0
1202,63.0,0,156,2.0,42.0
1203,70.0,240,180,1.0,42.0
1204,72.0,180,60,1.0,43.0
1205,60.0,0,156,2.0,43.0
1206,70.0,60,240,1.0,43.0
1207,56.0,0,360,5.0,43.0
1208,63.0,240,156,2.0,43.0
1209,44.0,0,1440,5.0,41.0
1210,56.0,120,0,5.0,43.0
1211,68.0,0,240,1.0,43.0
1212,61.0,0,156,2.0,43.0
1213,72.0,0,240,1.0,43.0
1214,65.0,240,156,2.0,44.0
1215,70.0,0,180,1.0,44.0
1216,72.0,180,60,1.0,44.0
1217,61.0,0,156,2.0,44.0
1218,70.0,60,240,1.0,44.0
1219,65.0,240,156,2.0,44.0
1220,68.0,0,240,1.0,44.0
1221,61.0,0,156,2.0,45.0
1222,72.0,0,240,1.0,45.0
1223,65.0,0,156,2.0,45.0
1224,70.0,240,180,1.0,45.0
1225,44.0,0,0,5.0,44.0
1226,60.0,240,156,2.0,44.0
1227,63.0,240,156,2.0,45.0
1228,68.0,0,480,1.0,44.0
1229,66.0,240,156,2.0,47.0
1230,60.0,240,156,2.0,48.0
1231,69.0,0,480,1.0,47.0
1232,61.0,240,156,2.0,49.0
1233,67.0,240,156,2.0,50.0
1234,70.0,0,480,1.0,49.0
1235,68.0,0,156,2.0,51.0
1236,62.0,240,156,2.0,52.0
1237,71.0,240,480,1.0,51.0
1238,63.0,240,156,2.0,53.0
1239,69.0,240,156,2.0,54.0
1240,72.0,0,480,1.0,53.0
1241,70.0,0,156,2.0,56.0
1242,64.0,240,156,2.0,57.0
1243,65.0,240,156,2.0,59.0
1244,73.0,240,720,1.0,56.0
1245,71.0,240,156,2.0,63.0
1246,66.0,240,156,2.0,66.0
1247,74.0,0,480,1.0,63.0
1248,72.0,0,156,2.0,69.0
1249,67.0,240,156,2.0,72.0
1250,75.0,240,480,1.0,69.0
1251,73.0,0,156,2.0,75.0
1252,68.0,240,156,2.0,81.0
1253,76.0,240,480,1.0,75.0
1254,69.0,0,156,2.0,72.0
1255,77.0,240,240,1.0,72.0
1256,70.0,0,156,2.0,63.0
1257,78.0,240,240,1.0,63.0
1258,71.0,0,156,2.0,56.0
1259,79.0,240,240,1.0,56.0
1260,72.0,0,156,2.0,50.0
1261,80.0,240,240,1.0,50.0
1262,75.0,0,156,2.0,43.0
1263,78.0,240,187,1.0,43.0
1264,65.0,0,156,2.0,40.0
1265,68.0,240,156,2.0,40.0
1266,37.0,240,480,5.0,40.0
1267,77.0,0,480,1.0,40.0
1268,65.0,0,156,2.0,40.0
1269,77.0,0,240,1.0,40.0
1270,56.0,0,360,4.0,40.0
1271,49.0,240,360,4.0,40.0
1272,61.0,0,360,4.0,40.0
1273,68.0,0,156,2.0,41.0
1274,73.0,240,240,1.0,41.0
1275,61.0,240,156,2.0,41.0
1276,70.0,0,240,1.0,41.0
1277,42.0,0,360,5.0,41.0
1278,66.0,0,156,2.0,41.0
1279,72.0,240,240,1.0,41.0
1280,60.0,240,156,2.0,41.0
1281,70.0,0,161,1.0,41.0
1282,68.0,160,60,1.0,42.0
1283,70.0,40,60,1.0,42.0
1284,66.0,0,156,2.0,42.0
1285,44.0,0,480,5.0,41.0
1286,68.0,40,240,1.0,42.0
1287,60.0,0,156,2.0,42.0
1288,67.0,0,240,1.0,42.0
1289,63.0,240,360,4.0,42.0
1290,56.0,0,360,4.0,42.0
1291,51.0,0,360,4.0,42.0
1292,66.0,240,156,2.0,42.0
1293,68.0,0,240,1.0,42.0
1294,60.0,240,156,2.0,43.0
1295,70.0,0,240,1.0,43.0
1296,44.0,0,360,5.0,43.0
1297,66.0,240,156,2.0,43.0
1298,72.0,0,240,1.0,43.0
1299,65.0,240,156,2.0,43.0
1300,75.0,0,161,1.0,43.0
1301,73.0,160,60,1.0,44.0
1302,75.0,40,60,1.0,44.0
1303,68.0,0,156,2.0,44.0
1304,73.0,40,240,1.0,44.0
1305,46.0,0,480,5.0,43.0
1306,65.0,240,156,2.0,44.0
1307,72.0,0,240,1.0,44.0
1308,61.0,0,360,4.0,44.0
1309,53.0,0,360,4.0,44.0
1310,58.0,0,360,4.0,44.0
1311,68.0,240,156,2.0,44.0
1312,73.0,0,240,1.0,44.0
1313,67.0,0,156,2.0,45.0
1314,77.0,0,240,1.0,45.0
1315,58.0,240,360,4.0,45.0
1316,61.0,0,360,4.0,45.0
1317,51.0,0,360,4.0,45.0
1318,70.0,240,156,2.0,45.0
1319,75.0,0,240,1.0,45.0
1320,63.0,0,156,2.0,46.0
1321,73.0,0,240,1.0,46.0
1322,68.0,0,156,2.0,49.0
1323,72.0,240,240,1.0,49.0
1324,44.0,240,480,5.0,46.0
1325,63.0,240,156,2.0,52.0
1326,74.0,0,240,1.0,52.0
1327,60.0,0,360,4.0,52.0
1328,51.0,0,360,4.0,52.0
1329,56.0,0,360,4.0,52.0
1330,68.0,0,156,2.0,55.0
1331,75.0,240,240,1.0,55.0
1332,72.0,0,156,2.0,58.0
1333,82.0,0,240,1.0,58.0
1334,63.0,240,360,4.0,58.0
1335,68.0,0,360,4.0,58.0
1336,60.0,0,360,4.0,58.0
1337,75.0,240,156,2.0,51.0
1338,80.0,0,192,1.0,51.0
1339,66.0,0,156,2.0,42.0
1340,78.0,240,240,1.0,42.0
1341,39.0,0,360,5.0,42.0
1342,70.0,240,156,2.0,42.0
1343,74.0,0,240,1.0,42.0
1344,66.0,0,156,2.0,43.0
1345,77.0,0,240,1.0,43.0
1346,56.0,240,360,4.0,43.0
1347,63.0,0,360,4.0,43.0
1348,51.0,0,360,4.0,43.0
1349,70.0,240,156,2.0,44.0
1350,75.0,0,240,1.0,44.0
1351,63.0,240,156,2.0,44.0
1352,71.0,0,180,1.0,44.0
1353,59.0,0,360,4.0,44.0
1354,44.0,0,360,5.0,44.0
1355,68.0,0,156,2.0,45.0
1356,73.0,240,240,1.0,45.0
1357,62.0,240,156,2.0,46.0
1358,71.0,0,156,1.0,46.0
1359,70.0,160,57,1.0,46.0
1360,72.0,40,57,1.0,46.0
1361,68.0,40,156,2.0,46.0
1362,70.0,0,240,1.0,46.0
1363,62.0,0,156,2.0,47.0
1364,69.0,0,240,1.0,47.0
1365,58.0,0,360,4.0,47.0
1366,65.0,240,360,4.0,47.0
1367,68.0,0,156,2.0,47.0
1368,70.0,240,240,1.0,47.0
1369,62.0,240,156,2.0,48.0
1370,72.0,0,240,1.0,48.0
1371,58.0,0,360,4.0,48.0
1372,53.0,0,360,4.0,48.0
1373,68.0,0,156,2.0,49.0
1374,74.0,240,240,1.0,49.0
1375,66.0,240,156,2.0,48.0
1376,77.0,0,161,1.0,48.0
1377,75.0,160,53,1.0,48.0
1378,77.0,40,47,1.0,48.0
1379,39.0,0,360,5.0,48.0
1380,70.0,0,156,2.0,49.0
1381,75.0,40,240,1.0,49.0
1382,66.0,0,156,2.0,49.0
1383,74.0,0,240,1.0,49.0
1384,63.0,0,360,4.0,49.0
1385,58.0,240,360,4.0,49.0
1386,51.0,0,360,4.0,49.0
1387,70.0,240,156,2.0,50.0
1388,75.0,0,240,1.0,50.0
1389,66.0,240,156,2.0,51.0
1390,78.0,0,240,1.0,51.0
1391,44.0,0,360,5.0,51.0
1392,68.0,240,156,2.0,52.0
1393,72.0,0,240,1.0,52.0
1394,65.0,0,156,2.0,52.0
1395,75.0,0,240,1.0,52.0
1396,32.0,240,360,5.0,52.0
1397,68.0,0,156,2.0,53.0
1398,74.0,240,240,1.0,53.0
1399,65.0,240,156,2.0,54.0
1400,73.0,0,240,1.0,54.0
1401,56.0,0,360,4.0,54.0
1402,61.0,0,360,4.0,54.0
1403,53.0,0,360,4.0,54.0
1404,68.0,240,156,2.0,55.0
1405,72.0,0,185,1.0,55.0
1406,65.0,240,156,2.0,56.0
1407,75.0,0,240,1.0,56.0
1408,44.0,0,360,5.0,56.0
1409,68.0,240,156,2.0,56.0
1410,73.0,0,240,1.0,56.0
1411,68.0,0,156,2.0,56.0
1412,78.0,0,165,1.0,56.0
1413,77.0,160,57,1.0,57.0
1414,78.0,40,58,1.0,58.0
1415,32.0,240,360,5.0,56.0
1416,71.0,40,156,2.0,58.0
1417,77.0,0,240,1.0,58.0
1418,68.0,240,156,2.0,60.0
1419,76.0,0,240,1.0,60.0
1420,60.0,0,360,4.0,60.0
1421,53.0,0,360,4.0,60.0
1422,62.0,0,360,4.0,60.0
1423,71.0,240,156,2.0,62.0
1424,77.0,0,240,1.0,62.0
1425,68.0,0,156,2.0,63.0
1426,78.0,0,240,1.0,63.0
1427,32.0,240,360,5.0,63.0
1428,44.0,0,360,5.0,63.0
1429,71.0,240,156,2.0,65.0
1430,74.0,0,240,1.0,65.0
1431,63.0,0,156,2.0,67.0
1432,77.0,240,240,1.0,67.0
1433,30.0,0,360,5.0,67.0
1434,42.0,0,360,5.0,67.0
1435,70.0,0,156,2.0,71.0
1436,75.0,240,180,1.0,71.0
1437,75.0,0,156,2.0,87.0
1438,90.0,0,240,1.0,87.0
1439,66.0,240,360,4.0,87.0
1440,70.0,0,360,4.0,87.0
1441,58.0,0,360,4.0,87.0
1442,80.0,0,156,2.0,85.0
1443,89.0,240,240,1.0,85.0
1444,78.0,0,156,2.0,82.0
1445,87.0,0,240,1.0,82.0
1446,70.0,0,360,4.0,82.0
1447,73.0,0,360,4.0,82.0
1448,63.0,240,360,4.0,82.0
1449,82.0,0,156,2.0,80.0
1450,85.0,240,240,1.0,80.0
1451,75.0,0,156,2.0,78.0
1452,83.0,0,240,1.0,78.0
1453,44.0,240,360,5.0,78.0
1454,78.0,0,156,2.0,76.0
1455,84.0,240,240,1.0,76.0
1456,73.0,240,156,2.0,73.0
1457,81.0,0,240,1.0,73.0
1458,56.0,0,360,4.0,73.0
1459,77.0,0,156,2.0,71.0
1460,82.0,240,240,1.0,71.0
1461,72.0,0,156,2.0,69.0
1462,79.0,0,240,1.0,69.0
1463,68.0,240,360,4.0,69.0
1464,75.0,240,156,2.0,67.0
1465,80.0,0,240,1.0,67.0
1466,70.0,0,156,2.0,64.0
1467,77.0,240,240,1.0,64.0
1468,73.0,240,156,2.0,62.0
1469,78.0,0,240,1.0,62.0
1470,69.0,0,156,2.0,60.0
1471,76.0,240,240,1.0,60.0
1472,72.0,240,156,2.0,58.0
1473,77.0,0,240,1.0,58.0
1474,63.0,240,156,2.0,55.0
1475,74.0,0,240,1.0,55.0
1476,54.0,0,360,5.0,55.0
1477,58.0,0,360,5.0,55.0
1478,70.0,0,156,2.0,53.0
1479,75.0,240,192,1.0,53.0
1480,69.0,240,156,2.0,52.0
1481,76.0,0,240,1.0,52.0
1482,53.0,0,360,5.0,52.0
1483,60.0,0,360,5.0,52.0
1484,72.0,0,156,2.0,51.0
1485,77.0,240,185,1.0,51.0
1486,63.0,0,156,2.0,50.0
1487,74.0,240,240,1.0,50.0
1488,54.0,0,360,5.0,50.0
1489,58.0,0,360,5.0,50.0
1490,70.0,0,156,2.0,48.0
1491,75.0,240,240,1.0,48.0
1492,69.0,0,156,2.0,47.0
1493,76.0,0,240,1.0,47.0
1494,60.0,0,360,5.0,47.0
1495,53.0,240,360,5.0,47.0
1496,72.0,0,156,2.0,46.0
1497,77.0,240,192,1.0,46.0
1498,63.0,0,156,2.0,44.0
1499,74.0,240,240,1.0,44.0
1500,58.0,0,360,5.0,44.0
1501,54.0,0,360,5.0,44.0
1502,70.0,0,156,2.0,43.0
1503,75.0,240,240,1.0,43.0
1504,66.0,0,156,2.0,42.0
1505,77.0,240,240,1.0,42.0
1506,70.0,0,156,2.0,40.0
1507,75.0,240,240,1.0,40.0
1508,63.0,240,156,2.0,39.0
1509,73.0,0,240,1.0,39.0
1510,66.0,240,156,2.0,38.0
1511,70.0,0,240,1.0,38.0
1512,60.0,0,156,2.0,40.0
1513,72.0,240,240,1.0,40.0
1514,44.0,0,360,5.0,40.0
1515,66.0,240,156,2.0,40.0
1516,70.0,0,180,1.0,40.0
1517,72.0,180,60,1.0,40.0
1518,60.0,0,156,2.0,41.0
1519,70.0,60,240,1.0,41.0
1520,66.0,0,156,2.0,41.0
1521,68.0,240,240,1.0,41.0
1522,60.0,240,156,2.0,41.0
1523,72.0,0,240,1.0,41.0
1524,66.0,0,156,2.0,42.0
1525,70.0,240,180,1.0,42.0
1526,72.0,180,60,1.0,42.0
1527,56.0,0,480,5.0,41.0
1528,61.0,60,156,2.0,42.0
1529,70.0,0,240,1.0,42.0
1530,65.0,0,156,2.0,43.0
1531,68.0,240,240,1.0,43.0
1532,61.0,0,156,2.0,43.0
1533,72.0,240,240,1.0,43.0
1534,65.0,0,156,2.0,43.0
1535,70.0,240,180,1.0,43.0
1536,56.0,0,960,5.0,42.0
1537,72.0,180,60,1.0,44.0
1538,61.0,0,156,2.0,44.0
1539,70.0,60,240,1.0,44.0
1540,65.0,0,156,2.0,44.0
1541,68.0,240,185,1.0,44.0
1542,44.0,0,0,5.0,46.0
1543,60.0,0,156,2.0,46.0
1544,67.0,240,240,1.0,46.0
1545,66.0,0,156,2.0,49.0
1546,68.0,240,240,1.0,49.0
1547,60.0,240,156,2.0,52.0
1548,70.0,0,240,1.0,52.0
1549,66.0,0,156,2.0,54.0
1550,68.0,240,240,1.0,54.0
1551,66.0,240,156,2.0,56.0
1552,73.0,0,360,1.0,56.0
1553,68.0,240,156,2.0,60.0
1554,75.0,120,120,1.0,63.0
1555,56.0,0,480,5.0,56.0
1556,63.0,0,156,2.0,67.0
1557,68.0,240,156,2.0,60.0
1558,63.0,240,156,2.0,56.0
1559,68.0,240,156,2.0,56.0
1560,59.0,0,960,5.0,67.0
1561,63.0,0,156,2.0,55.0
1562,68.0,240,156,2.0,54.0
1563,47.0,240,480,5.0,55.0
1564,62.0,240,156,2.0,53.0
1565,46.0,0,360,5.0,53.0
1566,68.0,240,156,2.0,53.0
1567,77.0,120,1920,1.0,67.0
1568,67.0,0,156,2.0,52.0
1569,74.0,0,240,1.0,52.0
1570,70.0,240,156,2.0,51.0
1571,51.0,0,440,5.0,52.0
1572,75.0,0,205,1.0,51.0
1573,61.0,240,445,4.0,52.0
1574,66.0,0,156,2.0,50.0
1575,80.0,0,240,1.0,50.0
1576,68.0,0,156,2.0,50.0
1577,51.0,20,480,4.0,50.0
1578,44.0,200,510,5.0,50.0
1579,75.0,240,240,1.0,50.0
1580,60.0,20,480,4.0,50.0
1581,65.0,0,156,2.0,49.0
1582,77.0,240,240,1.0,49.0
1583,61.0,0,360,4.0,49.0
1584,49.0,0,360,5.0,49.0
1585,56.0,0,360,4.0,49.0
1586,68.0,240,156,2.0,48.0
1587,73.0,0,240,1.0,48.0
1588,61.0,0,156,2.0,48.0
1589,72.0,0,240,1.0,48.0
1590,58.0,0,360,4.0,48.0
1591,42.0,240,360,5.0,48.0
1592,66.0,0,156,2.0,47.0
1593,70.0,240,240,1.0,47.0
1594,61.0,40,156,2.0,46.0
1595,72.0,0,180,1.0,46.0
1596,75.0,180,60,1.0,46.0
1597,39.0,200,385,5.0,46.0
1598,66.0,0,156,2.0,45.0
1599,73.0,60,185,1.0,45.0
1600,61.0,0,156,2.0,45.0
1601,66.0,240,156,2.0,44.0
1602,68.0,240,480,1.0,45.0
1603,60.0,0,156,2.0,43.0
1604,67.0,240,240,1.0,43.0
1605,66.0,240,156,2.0,42.0
1606,68.0,0,240,1.0,42.0
1607,51.0,0,960,5.0,45.0
1608,60.0,0,156,2.0,42.0
1609,70.0,0,360,1.0,42.0
1610,66.0,240,156,2.0,41.0
1611,44.0,0,1440,5.0,45.0
1612,68.0,0,0,1.0,40.0
1613,56.0,240,480,5.0,42.0
1614,61.0,120,156,2.0,40.0
1615,49.0,0,360,5.0,40.0
1616,56.0,0,360,4.0,40.0
1617,65.0,240,156,2.0,39.0
1618,60.0,240,156,2.0,39.0
1619,65.0,240,156,2.0,38.0
1620,58.0,240,156,2.0,37.0
1621,65.0,240,156,2.0,37.0
1622,60.0,0,156,2.0,36.0
1623,66.0,240,156,2.0,36.0
1624,32.0,240,480,5.0,36.0
1625,60.0,0,156,2.0,37.0
1626,72.0,240,240,1.0,37.0
1627,66.0,240,156,2.0,37.0
1628,70.0,0,180,1.0,37.0
1629,72.0,180,60,1.0,38.0
1630,60.0,60,156,2.0,38.0
1631,70.0,0,240,1.0,38.0
1632,66.0,240,156,2.0,38.0
1633,56.0,0,480,5.0,38.0
1634,68.0,0,240,1.0,38.0
1635,61.0,240,156,2.0,39.0
1636,72.0,0,240,1.0,39.0
1637,65.0,240,156,2.0,39.0
1638,70.0,0,180,1.0,39.0
1639,72.0,180,60,1.0,40.0
1640,61.0,60,156,2.0,40.0
1641,70.0,0,240,1.0,40.0
1642,65.0,240,156,2.0,40.0
1643,68.0,0,240,1.0,40.0
1644,56.0,0,960,5.0,39.0
1645,61.0,0,156,2.0,41.0
1646,72.0,240,240,1.0,41.0
1647,65.0,240,156,2.0,41.0
1648,70.0,0,180,1.0,41.0
1649,44.0,0,480,5.0,41.0
1650,60.0,0,156,2.0,42.0
1651,70.0,240,240,1.0,42.0
1652,66.0,0,156,2.0,45.0
1653,68.0,240,240,1.0,45.0
1654,60.0,0,156,2.0,47.0
1655,67.0,240,240,1.0,47.0
1656,66.0,0,156,2.0,50.0
1657,68.0,240,240,1.0,50.0
1658,44.0,0,960,5.0,42.0
1659,66.0,0,156,2.0,53.0
1660,73.0,240,360,1.0,53.0
1661,68.0,240,156,2.0,56.0
1662,75.0,120,120,1.0,58.0
1663,56.0,0,480,5.0,53.0
1664,63.0,0,156,2.0,62.0
1665,68.0,240,156,2.0,56.0
1666,63.0,240,156,2.0,51.0
1667,68.0,240,156,2.0,49.0
1668,59.0,120,960,5.0,62.0
1669,63.0,240,156,2.0,47.0
1670,68.0,240,156,2.0,45.0
1671,47.0,0,480,5.0,47.0
1672,62.0,0,156,2.0,44.0
1673,46.0,240,360,5.0,44.0
1674,68.0,240,156,2.0,45.0
1675,77.0,0,1920,1.0,62.0
1676,67.0,0,156,2.0,46.0
1677,74.0,240,240,1.0,46.0
1678,70.0,0,156,2.0,47.0
1679,75.0,240,200,1.0,47.0
1680,51.0,0,440,5.0,46.0
1681,66.0,0,156,2.0,47.0
1682,80.0,0,240,1.0,47.0
1683,68.0,0,156,2.0,48.0
1684,44.0,200,515,5.0,47.0
1685,51.0,20,495,4.0,47.0
1686,75.0,240,240,1.0,48.0
1687,60.0,20,480,5.0,47.0
1688,65.0,0,156,2.0,49.0
1689,77.0,0,240,1.0,49.0
1690,68.0,0,156,2.0,50.0
1691,73.0,240,192,1.0,50.0
1692,61.0,0,440,5.0,49.0
1693,49.0,0,445,5.0,49.0
1694,56.0,240,445,4.0,49.0
1695,66.0,0,156,2.0,51.0
1696,80.0,20,240,1.0,51.0
1697,68.0,240,156,2.0,52.0
1698,51.0,20,495,4.0,51.0
1699,44.0,200,515,5.0,51.0
1700,60.0,0,480,5.0,51.0
1701,75.0,0,240,1.0,52.0
1702,65.0,0,156,2.0,53.0
1703,77.0,0,240,1.0,53.0
1704,61.0,0,360,5.0,53.0
1705,56.0,240,360,4.0,53.0
1706,49.0,0,360,5.0,53.0
1707,68.0,0,156,2.0,54.0
1708,73.0,240,192,1.0,54.0
1709,66.0,0,156,2.0,55.0
1710,80.0,40,240,1.0,55.0
1711,60.0,0,360,5.0,55.0
1712,44.0,200,432,5.0,54.0
1713,68.0,0,156,2.0,56.0
1714,75.0,240,192,1.0,56.0
1715,67.0,0,156,2.0,57.0
1716,81.0,0,240,1.0,57.0
1717,61.0,40,360,5.0,57.0
1718,44.0,200,432,5.0,57.0
1719,69.0,0,156,2.0,59.0
1720,76.0,240,192,1.0,59.0
1721,68.0,0,156,2.0,60.0
1722,82.0,0,240,1.0,60.0
1723,62.0,40,360,5.0,60.0
1724,44.0,200,432,5.0,60.0
1725,70.0,240,156,2.0,61.0
1726,77.0,0,192,1.0,61.0
1727,69.0,0,156,2.0,63.0
1728,83.0,0,240,1.0,63.0
1729,63.0,40,360,5.0,63.0
1730,44.0,200,432,5.0,62.0
1731,71.0,240,156,2.0,64.0
1732,78.0,0,192,1.0,64.0
1733,70.0,0,156,2.0,65.0
1734,84.0,0,240,1.0,65.0
1735,64.0,40,360,5.0,65.0
1736,44.0,200,432,5.0,65.0
1737,72.0,240,156,2.0,67.0
1738,79.0,0,192,1.0,67.0
1739,71.0,40,156,2.0,68.0
1740,85.0,0,240,1.0,68.0
1741,65.0,0,360,5.0,68.0
1742,44.0,200,432,5.0,68.0
1743,73.0,240,156,2.0,69.0
1744,80.0,0,192,1.0,69.0
1745,72.0,40,156,2.0,71.0
1746,66.0,0,360,5.0,71.0
1747,44.0,200,432,5.0,70.0
1748,80.0,240,156,2.0,72.0
1749,86.0,0,480,1.0,71.0
1750,78.0,240,156,2.0,73.0
1751,87.0,0,240,1.0,73.0
1752,80.0,0,156,2.0,75.0
1753,86.0,240,240,1.0,75.0
1754,78.0,0,156,2.0,76.0
1755,89.0,0,240,1.0,76.0
1756,44.0,240,360,5.0,76.0
1757,80.0,0,156,2.0,78.0
1758,87.0,240,240,1.0,78.0
1759,78.0,0,156,2.0,79.0
1760,56.0,240,360,5.0,79.0
1761,80.0,240,156,2.0,80.0
1762,92.0,0,480,1.0,79.0
1763,78.0,240,156,2.0,82.0
1764,87.0,0,240,1.0,82.0
1765,63.0,0,360,4.0,82.0
1766,72.0,0,360,4.0,82.0
1767,80.0,0,156,2.0,83.0
1768,86.0,240,240,1.0,83.0
1769,78.0,0,156,2.0,84.0
1770,89.0,0,240,1.0,84.0
1771,56.0,240,360,5.0,84.0
1772,80.0,0,156,2.0,88.0
1773,87.0,240,240,1.0,88.0
1774,82.0,0,156,2.0,91.0
1775,72.0,240,360,4.0,91.0
1776,78.0,0,360,4.0,91.0
1777,80.0,240,156,2.0,81.0
1778,87.0,0,480,1.0,91.0
1779,82.0,240,156,2.0,70.0
1780,80.0,240,156,2.0,65.0
1781,82.0,240,156,2.0,60.0
1782,80.0,240,156,2.0,56.0
1783,79.0,240,156,2.0,51.0
1784,80.0,240,156,2.0,49.0
1785,79.0,240,156,2.0,46.0
1786,80.0,240,156,2.0,44.0
1787,78.0,240,156,2.0,41.0
1788,80.0,240,156,2.0,39.0
1789,80.0,240,156,2.0,38.0
1790,61.0,0,480,5.0,39.0
1791,68.0,0,480,5.0,39.0
1792,82.0,240,156,2.0,38.0
1793,84.0,240,156,2.0,37.0
1794,85.0,240,156,2.0,36.0
1795,87.0,240,156,2.0,35.0
1796,77.0,240,1400,1.0,39.0
1797,92.0,240,156,2.0,34.0
1798,94.0,240,156,2.0,33.0
1799,96.0,240,156,2.0,32.0
1800,97.0,240,156,2.0,31.0
1801,94.0,240,156,2.0,30.0
1802,89.0,240,1596,1.0,34.0
1803,87.0,240,156,2.0,29.0
1804,92.0,240,480,2.0,29.0
1805,85.0,240,156,2.0,28.0
1806,82.0,240,156,2.0,27.0
1807,80.0,240,156,2.0,27.0
1808,75.0,240,156,2.0,26.0
1809,73.0,240,156,2.0,30.0
1810,70.0,240,156,2.0,34.0
1811,68.0,240,156,2.0,39.0
1812,63.0,240,156,2.0,44.0
1813,61.0,240,156,2.0,56.0
1814,56.0,240,156,2.0,75.0
1815,44.0,240,360,5.0,90.0
1816,44.0,0,1440,4.0,106.0
1817,32.0,1440,1440,5.0,106.0
1818,68.0,0,1440,1.0,106.0
1819,60.0,0,1440,2.0,106.0
1820,54.0,0,1440,2.0,106.0
1821,63.0,0,1440,2.0,106.0
1822,65.0,0,1920,1.0,107.0
1823,61.0,0,1920,2.0,107.0
1824,37.0,0,1920,5.0,107.0
1825,44.0,1440,1920,4.0,107.0
1826,53.0,0,1920,2.0,107.0
1827,44.0,3840,240,5.0,58.0
1828,72.0,0,0,2.0,57.0
1829,68.0,0,0,3.0,57.0
1830,63.0,80,0,3.0,57.0
1831,51.0,80,156,5.0,57.0
1832,72.0,160,0,2.0,57.0
1833,63.0,0,160,3.0,57.0
1834,68.0,0,160,3.0,57.0
1835,39.0,0,240,5.0,57.0
1836,70.0,80,0,2.0,55.0
1837,63.0,0,160,3.0,56.0
1838,61.0,160,160,3.0,56.0
1839,51.0,80,156,5.0,56.0
1840,63.0,160,0,3.0,55.0
1841,61.0,0,160,3.0,55.0
1842,70.0,0,160,2.0,55.0
1843,61.0,0,160,3.0,55.0
1844,63.0,0,0,3.0,54.0
1845,32.0,0,240,5.0,55.0
1846,68.0,160,160,2.0,54.0
1847,60.0,0,160,3.0,54.0
1848,63.0,0,0,3.0,54.0
1849,51.0,80,156,5.0,54.0
1850,60.0,0,0,3.0,53.0
1851,68.0,0,0,2.0,53.0
1852,63.0,0,160,3.0,53.0
1853,60.0,0,0,3.0,53.0
1854,27.0,160,240,5.0,53.0
1855,63.0,160,160,2.0,53.0
1856,51.0,80,156,5.0,52.0
1857,63.0,80,160,2.0,52.0
1858,61.0,0,160,3.0,52.0
1859,58.0,0,160,3.0,52.0
1860,61.0,160,0,3.0,53.0
1861,63.0,160,160,2.0,51.0
1862,58.0,0,160,3.0,51.0
1863,32.0,0,240,5.0,51.0
1864,68.0,0,160,2.0,53.0
1865,61.0,80,0,3.0,55.0
1866,63.0,0,0,3.0,55.0
1867,51.0,80,156,5.0,54.0
1868,68.0,0,0,2.0,57.0
1869,63.0,0,0,3.0,57.0
1870,60.0,160,160,3.0,57.0
1871,39.0,0,240,5.0,57.0
1872,70.0,80,0,2.0,61.0
1873,68.0,0,160,3.0,59.0
1874,63.0,0,160,3.0,59.0
1875,51.0,80,156,5.0,60.0
1876,67.0,0,160,3.0,61.0
1877,63.0,0,160,3.0,61.0
1878,70.0,0,160,2.0,63.0
1879,67.0,160,160,3.0,63.0
1880,63.0,0,160,3.0,63.0
1881,44.0,0,240,5.0,63.0
1882,72.0,160,160,2.0,65.0
1883,70.0,0,160,3.0,65.0
1884,63.0,0,160,3.0,65.0
1885,51.0,80,156,5.0,66.0
1886,72.0,80,160,2.0,67.0
1887,68.0,0,160,3.0,67.0
1888,63.0,0,160,3.0,67.0
1889,56.0,160,156,5.0,69.0
1890,68.0,0,160,3.0,69.0
1891,72.0,0,160,2.0,69.0
1892,66.0,0,0,3.0,71.0
1893,73.0,0,160,2.0,71.0
1894,66.0,0,0,3.0,73.0
1895,68.0,0,0,3.0,73.0
1896,63.0,80,156,5.0,72.0
1897,75.0,80,128,2.0,73.0
1898,68.0,0,160,3.0,74.0
1899,66.0,0,160,3.0,74.0
1900,75.0,0,160,2.0,74.0
1901,49.0,160,240,5.0,74.0
1902,68.0,0,160,3.0,72.0
1903,65.0,160,160,3.0,72.0
1904,77.0,0,160,2.0,72.0
1905,56.0,80,156,5.0,71.0
1906,77.0,0,160,2.0,70.0
1907,65.0,0,160,3.0,70.0
1908,70.0,80,160,3.0,70.0
1909,70.0,0,160,3.0,68.0
1910,66.0,0,0,3.0,66.0
1911,77.0,0,160,2.0,68.0
1912,44.0,0,240,5.0,68.0
1913,75.0,160,160,2.0,66.0
1914,66.0,80,0,3.0,64.0
1915,70.0,0,160,3.0,66.0
1916,56.0,80,156,5.0,65.0
1917,68.0,0,160,3.0,64.0
1918,75.0,160,0,2.0,62.0
1919,68.0,0,160,3.0,62.0
1920,66.0,160,0,3.0,60.0
1921,37.0,0,240,5.0,62.0
1922,68.0,0,160,3.0,60.0
1923,73.0,0,160,2.0,60.0
1924,56.0,80,156,5.0,59.0
1925,68.0,160,0,3.0,56.0
1926,73.0,0,160,2.0,58.0
1927,65.0,0,0,3.0,56.0
1928,73.0,0,160,2.0,56.0
1929,65.0,160,0,3.0,54.0
1930,32.0,0,240,5.0,56.0
1931,68.0,0,160,2.0,54.0
1932,56.0,80,156,5.0,53.0
1933,63.0,160,0,3.0,53.0
1934,66.0,0,160,3.0,52.0
1935,68.0,0,160,2.0,52.0
1936,68.0,0,160,2.0,53.0
1937,66.0,0,0,3.0,55.0
1938,37.0,0,240,5.0,53.0
1939,68.0,160,160,3.0,55.0
1940,73.0,0,160,2.0,55.0
1941,56.0,80,156,5.0,56.0
1942,65.0,80,160,3.0,57.0
1943,68.0,0,160,3.0,57.0
1944,73.0,0,160,2.0,57.0
1945,73.0,0,160,2.0,59.0
1946,68.0,160,0,3.0,61.0
1947,65.0,160,160,3.0,59.0
1948,44.0,0,240,5.0,59.0
1949,63.0,0,160,3.0,61.0
1950,75.0,0,0,2.0,64.0
1951,68.0,0,0,3.0,64.0
1952,73.0,0,160,3.0,61.0
1953,56.0,80,156,5.0,62.0
1954,66.0,160,0,3.0,66.0
1955,68.0,0,0,3.0,66.0
1956,72.0,0,160,3.0,64.0
1957,72.0,0,160,3.0,66.0
1958,75.0,0,160,2.0,66.0
1959,49.0,0,240,5.0,66.0
1960,68.0,0,160,3.0,68.0
1961,73.0,0,160,3.0,68.0
1962,65.0,0,160,3.0,68.0
1963,77.0,160,160,2.0,68.0
1964,56.0,80,156,5.0,69.0
1965,77.0,80,160,2.0,70.0
1966,73.0,0,160,3.0,70.0
1967,68.0,0,160,3.0,70.0
1968,73.0,160,160,3.0,72.0
1969,77.0,0,160,2.0,72.0
1970,68.0,0,160,3.0,72.0
1971,46.0,0,240,5.0,72.0
1972,73.0,0,160,3.0,74.0
1973,68.0,0,160,3.0,74.0
1974,79.0,160,160,2.0,74.0
1975,61.0,80,156,5.0,75.0
1976,68.0,0,128,3.0,76.0
1977,73.0,0,128,3.0,76.0
1978,77.0,80,128,2.0,76.0
1979,75.0,160,0,2.0,76.0
1980,68.0,0,160,3.0,78.0
1981,73.0,0,0,3.0,76.0
1982,39.0,160,240,5.0,78.0
1983,67.0,0,0,3.0,76.0
1984,75.0,80,0,2.0,76.0
1985,75.0,160,0,2.0,75.0
1986,73.0,0,160,3.0,76.0
1987,60.0,0,156,5.0,75.0
1988,67.0,0,160,3.0,75.0
1989,73.0,0,0,3.0,74.0
1990,67.0,0,160,3.0,74.0
1991,73.0,80,0,3.0,74.0
1992,77.0,0,0,2.0,74.0
1993,58.0,80,156,5.0,74.0
1994,51.0,80,636,5.0,76.0
1995,67.0,0,160,3.0,74.0
1996,77.0,0,0,2.0,73.0
1997,67.0,0,160,3.0,73.0
1998,72.0,0,0,3.0,72.0
1999,44.0,0,240,5.0,73.0
2000,75.0,160,160,2.0,72.0
2001,68.0,80,0,3.0,72.0
2002,51.0,80,156,5.0,72.0
2003,68.0,0,0,3.0,71.0
2004,72.0,0,0,3.0,71.0
2005,75.0,160,0,2.0,71.0
2006,60.0,0,156,5.0,71.0
2007,68.0,160,0,3.0,70.0
2008,68.0,80,0,3.0,70.0
2009,73.0,0,160,2.0,70.0
2010,63.0,0,160,3.0,70.0
2011,72.0,0,128,2.0,70.0
2012,63.0,0,128,3.0,70.0
2013,44.0,80,240,5.0,70.0
2014,72.0,0,0,2.0,68.0
2015,65.0,0,160,3.0,69.0
2016,70.0,0,0,3.0,68.0
2017,36.0,0,240,5.0,69.0
2018,64.0,160,160,3.0,68.0
2019,72.0,80,0,2.0,67.0
2020,43.0,80,156,5.0,68.0
2021,70.0,0,160,3.0,67.0
2022,64.0,0,160,3.0,67.0
2023,56.0,160,156,5.0,67.0
2024,70.0,0,160,3.0,67.0
2025,64.0,0,160,3.0,67.0
2026,72.0,0,160,2.0,67.0
2027,70.0,160,160,3.0,66.0
2028,64.0,0,160,3.0,66.0
2029,73.0,80,0,2.0,65.0
2030,55.0,80,156,5.0,66.0
2031,64.0,160,0,3.0,65.0
2032,70.0,0,160,3.0,65.0
2033,73.0,0,0,2.0,65.0
2034,68.0,0,0,3.0,64.0
2035,41.0,0,240,5.0,65.0
2036,65.0,160,160,3.0,64.0
2037,72.0,80,0,2.0,63.0
2038,56.0,80,156,5.0,64.0
2039,65.0,0,0,3.0,63.0
2040,68.0,0,160,3.0,63.0
2041,72.0,0,0,2.0,63.0
2042,60.0,160,0,3.0,62.0
2043,38.0,160,240,5.0,63.0
2044,70.0,0,160,2.0,62.0
2045,65.0,80,0,3.0,61.0
2046,56.0,80,156,5.0,62.0
2047,68.0,0,128,2.0,61.0
2048,60.0,0,128,3.0,61.0
2049,63.0,0,160,3.0,60.0
2050,68.0,160,160,3.0,60.0
2051,72.0,0,160,2.0,60.0
2052,39.0,0,240,5.0,60.0
2053,61.0,0,160,3.0,60.0
2054,70.0,160,160,2.0,60.0
2055,65.0,80,0,3.0,59.0
2056,51.0,80,156,5.0,59.0
2057,55.0,100,60,5.0,59.0
2058,61.0,60,0,3.0,58.0
2059,70.0,0,160,2.0,59.0
2060,53.0,0,156,5.0,58.0
2061,65.0,0,160,3.0,58.0
2062,70.0,0,160,2.0,58.0
2063,72.0,80,0,2.0,57.0
2064,67.0,0,160,3.0,58.0
2065,63.0,160,160,3.0,58.0
2066,51.0,80,156,5.0,57.0
2067,63.0,0,160,3.0,57.0
2068,67.0,0,160,3.0,57.0
2069,63.0,0,160,3.0,56.0
2070,72.0,160,160,2.0,56.0
2071,67.0,0,160,3.0,56.0
2072,44.0,0,240,5.0,56.0
2073,60.0,160,160,3.0,56.0
2074,63.0,0,160,3.0,56.0
2075,68.0,0,160,2.0,56.0
2076,51.0,80,156,5.0,55.0
2077,60.0,80,160,3.0,55.0
2078,63.0,0,160,3.0,55.0
2079,68.0,0,0,2.0,54.0
2080,61.0,0,0,3.0,54.0
2081,65.0,0,0,3.0,54.0
2082,37.0,0,240,5.0,54.0
2083,72.0,160,160,2.0,54.0
2084,65.0,80,0,3.0,53.0
2085,56.0,80,156,5.0,53.0
2086,72.0,0,160,2.0,53.0
2087,61.0,160,0,3.0,52.0
2088,65.0,0,0,3.0,52.0
2089,72.0,0,160,2.0,52.0
2090,61.0,160,0,3.0,51.0
2091,34.0,0,240,5.0,52.0
2092,70.0,80,0,2.0,51.0
2093,65.0,0,160,3.0,51.0
2094,56.0,80,156,5.0,51.0
2095,61.0,0,160,3.0,51.0
2096,65.0,0,160,3.0,51.0
2097,70.0,0,160,2.0,50.0
2098,61.0,0,160,3.0,50.0
2099,65.0,160,160,3.0,50.0
2100,39.0,0,240,5.0,50.0
2101,63.0,0,160,3.0,49.0
2102,72.0,0,160,2.0,49.0
2103,67.0,160,160,3.0,49.0
2104,51.0,80,156,5.0,49.0
2105,67.0,0,160,3.0,49.0
2106,72.0,0,0,2.0,48.0
2107,63.0,0,0,3.0,48.0
2108,67.0,160,160,3.0,48.0
2109,32.0,0,240,5.0,48.0
2110,60.0,160,160,3.0,47.0
2111,68.0,0,160,2.0,47.0
2112,51.0,80,156,5.0,47.0
2113,68.0,0,160,2.0,47.0
2114,56.0,80,160,3.0,47.0
2115,44.0,0,156,5.0,46.0
2116,68.0,160,160,2.0,46.0
2117,56.0,0,160,3.0,46.0
2118,68.0,160,160,2.0,45.0
2119,56.0,0,160,3.0,45.0
2120,42.0,80,156,5.0,45.0
2121,56.0,0,128,3.0,45.0
2122,68.0,80,128,2.0,45.0
2123,56.0,0,160,2.0,47.0
2124,68.0,0,160,2.0,47.0
2125,40.0,160,240,5.0,47.0
2126,64.0,160,160,3.0,48.0
2127,68.0,0,160,2.0,48.0
2128,56.0,0,160,2.0,48.0
2129,47.0,80,156,5.0,49.0
2130,57.0,0,160,2.0,50.0
2131,68.0,0,160,2.0,50.0
2132,64.0,0,0,3.0,51.0
2133,52.0,0,156,5.0,51.0
2134,64.0,160,0,3.0,53.0
2135,58.0,160,160,2.0,51.0
2136,68.0,0,160,2.0,51.0
2137,68.0,0,160,2.0,53.0
2138,59.0,80,0,2.0,54.0
2139,54.0,80,156,5.0,53.0
2140,69.0,0,160,2.0,54.0
2141,63.0,0,160,3.0,54.0
2142,59.0,0,0,2.0,56.0
2143,64.0,160,160,3.0,56.0
2144,71.0,0,161,2.0,56.0
2145,56.0,0,240,5.0,56.0
2146,68.0,0,160,3.0,57.0
2147,64.0,0,160,3.0,57.0
2148,76.0,160,160,2.0,57.0
2149,47.0,80,156,5.0,58.0
2150,68.0,0,160,3.0,59.0
2151,64.0,80,160,3.0,59.0
2152,64.0,0,160,3.0,60.0
2153,68.0,160,160,3.0,60.0
2154,59.0,0,240,5.0,60.0
2155,68.0,0,160,3.0,62.0
2156,64.0,0,160,3.0,62.0
2157,75.0,160,160,2.0,62.0
2158,47.0,80,156,5.0,63.0
2159,68.0,0,160,3.0,63.0
2160,73.0,80,160,2.0,63.0
2161,64.0,0,160,3.0,63.0
2162,64.0,0,160,3.0,65.0
2163,66.0,0,160,3.0,65.0
2164,71.0,160,160,2.0,65.0
2165,35.0,0,240,5.0,65.0
2166,66.0,0,160,3.0,60.0
2167,64.0,160,160,3.0,60.0
2168,71.0,80,0,2.0,59.0
2169,42.0,80,156,5.0,60.0
2170,66.0,0,0,3.0,58.0
2171,64.0,160,0,3.0,58.0
2172,54.0,0,156,5.0,58.0
2173,71.0,0,0,2.0,57.0
2174,71.0,0,0,2.0,56.0
2175,66.0,160,160,3.0,57.0
2176,64.0,80,0,3.0,56.0
2177,56.0,80,156,5.0,57.0
2178,64.0,0,0,3.0,56.0
2179,66.0,0,0,3.0,56.0
2180,57.0,0,156,5.0,56.0
2181,71.0,160,160,2.0,56.0
2182,66.0,0,0,3.0,55.0
2183,71.0,0,160,2.0,55.0
2184,63.0,160,160,3.0,55.0
2185,54.0,80,156,5.0,54.0
2186,71.0,160,0,2.0,53.0
2187,66.0,80,160,3.0,54.0
2188,63.0,0,160,3.0,54.0
2189,47.0,0,156,5.0,53.0
2190,61.0,0,160,3.0,53.0
2191,66.0,160,0,3.0,52.0
2192,69.0,0,0,2.0,51.0
2193,63.0,80,0,3.0,51.0
2194,66.0,0,128,3.0,51.0
2195,35.0,80,240,5.0,51.0
2196,64.0,160,0,3.0,52.0
2197,67.0,0,160,2.0,50.0
2198,36.0,0,240,5.0,50.0
2199,67.0,0,160,2.0,52.0
2200,55.0,0,160,2.0,52.0
2201,43.0,80,156,5.0,53.0
2202,57.0,0,160,2.0,54.0
2203,67.0,80,160,2.0,54.0
2204,64.0,0,0,3.0,56.0
2205,48.0,160,156,5.0,56.0
2206,62.0,0,160,2.0,56.0
2207,64.0,0,0,3.0,58.0
2208,67.0,160,0,2.0,58.0
2209,67.0,0,0,2.0,60.0
2210,60.0,0,160,2.0,58.0
2211,50.0,80,156,5.0,59.0
2212,65.0,80,160,3.0,60.0
2213,67.0,160,0,2.0,61.0
2214,59.0,0,160,2.0,60.0
2215,60.0,0,160,2.0,61.0
2216,52.0,0,240,5.0,61.0
2217,72.0,160,160,2.0,63.0
2218,60.0,80,0,3.0,65.0
2219,64.0,0,0,3.0,65.0
2220,43.0,80,156,5.0,64.0
2221,64.0,160,160,3.0,67.0
2222,60.0,0,160,3.0,67.0
2223,55.0,0,240,5.0,67.0
2224,64.0,160,160,3.0,69.0
2225,71.0,0,160,2.0,69.0
2226,60.0,80,0,3.0,71.0
2227,43.0,80,156,5.0,70.0
2228,64.0,0,160,3.0,71.0
2229,69.0,0,160,2.0,71.0
2230,60.0,160,0,3.0,70.0
2231,65.0,0,0,3.0,70.0
2232,67.0,0,160,2.0,73.0
2233,31.0,160,240,5.0,73.0
2234,67.0,0,0,2.0,69.0
2235,43.0,80,156,5.0,70.0
2236,67.0,160,0,2.0,68.0
2237,60.0,0,160,3.0,69.0
2238,65.0,0,0,3.0,68.0
2239,50.0,0,156,5.0,68.0
2240,60.0,0,0,3.0,66.0
2241,65.0,0,0,3.0,66.0
2242,67.0,160,0,2.0,66.0
2243,65.0,80,0,3.0,65.0
2244,67.0,0,0,2.0,65.0
2245,57.0,80,156,5.0,65.0
2246,60.0,0,160,3.0,65.0
2247,55.0,0,156,5.0,63.0
2248,67.0,0,160,2.0,63.0
2249,60.0,0,160,3.0,63.0
2250,65.0,0,0,3.0,62.0
2251,59.0,160,160,3.0,62.0
2252,67.0,0,160,2.0,62.0
2253,65.0,80,0,3.0,61.0
2254,50.0,80,156,5.0,61.0
2255,67.0,0,0,2.0,59.0
2256,59.0,0,0,3.0,59.0
2257,43.0,160,156,5.0,59.0
2258,64.0,0,160,3.0,59.0
2259,59.0,0,0,3.0,58.0
2260,65.0,0,160,2.0,58.0
2261,59.0,80,0,3.0,56.0
2262,62.0,160,160,3.0,58.0
2263,62.0,0,128,3.0,56.0
2264,65.0,0,128,2.0,56.0
2265,31.0,80,240,5.0,57.0
2266,63.0,0,160,2.0,60.0
2267,32.0,160,240,5.0,60.0
2268,72.0,160,160,3.0,62.0
2269,68.0,0,160,3.0,62.0
2270,44.0,80,156,5.0,63.0
2271,72.0,80,160,3.0,63.0
2272,68.0,160,0,3.0,65.0
2273,60.0,0,635,2.0,60.0
2274,52.0,0,156,5.0,65.0
2275,72.0,0,160,3.0,65.0
2276,60.0,80,0,2.0,67.0
2277,64.0,0,0,2.0,67.0
2278,56.0,80,156,5.0,67.0
2279,64.0,0,0,2.0,69.0
2280,57.0,160,156,5.0,69.0
2281,69.0,80,0,3.0,72.0
2282,73.0,0,0,3.0,72.0
2283,52.0,80,156,5.0,71.0
2284,73.0,0,0,3.0,73.0
2285,61.0,0,635,2.0,69.0
2286,45.0,0,156,5.0,73.0
2287,69.0,160,160,3.0,73.0
2288,64.0,80,0,2.0,76.0
2289,61.0,0,0,2.0,76.0
2290,33.0,80,240,5.0,75.0
2291,65.0,160,160,2.0,77.0
2292,34.0,0,240,5.0,77.0
2293,70.0,80,0,3.0,80.0
2294,74.0,160,160,3.0,79.0
2295,46.0,80,156,5.0,80.0
2296,74.0,0,160,3.0,80.0
2297,70.0,160,0,3.0,82.0
2298,54.0,0,156,5.0,82.0
2299,74.0,0,160,3.0,82.0
2300,62.0,0,0,2.0,83.0
2301,62.0,80,0,2.0,84.0
2302,66.0,0,0,2.0,84.0
2303,58.0,80,156,5.0,84.0
2304,66.0,0,0,2.0,86.0
2305,59.0,160,156,5.0,86.0
2306,75.0,0,160,3.0,87.0
2307,71.0,80,0,3.0,89.0
2308,54.0,80,156,5.0,88.0
2309,75.0,0,160,3.0,89.0
2310,63.0,0,635,2.0,86.0
2311,47.0,0,156,5.0,90.0
2312,75.0,0,160,3.0,90.0
2313,71.0,160,160,3.0,90.0
2314,63.0,80,0,2.0,94.0
2315,67.0,0,0,2.0,94.0
2316,35.0,80,240,5.0,93.0
2317,67.0,0,160,2.0,97.0
2318,63.0,160,160,2.0,97.0
2319,36.0,0,240,5.0,97.0
2320,63.0,80,0,3.0,95.0
2321,67.0,0,160,3.0,96.0
2322,75.0,0,0,2.0,95.0
2323,55.0,80,156,5.0,95.0
2324,67.0,0,160,3.0,95.0
2325,63.0,0,0,3.0,93.0
2326,75.0,160,0,2.0,93.0
2327,63.0,0,0,3.0,92.0
2328,66.0,0,160,3.0,93.0
2329,39.0,0,240,5.0,93.0
2330,66.0,0,160,3.0,92.0
2331,70.0,160,160,2.0,92.0
2332,54.0,80,156,5.0,92.0
2333,63.0,80,160,3.0,91.0
2334,70.0,160,0,2.0,90.0
2335,66.0,0,160,3.0,91.0
2336,63.0,0,160,3.0,90.0
2337,65.0,0,0,3.0,89.0
2338,46.0,0,240,5.0,90.0
2339,62.0,80,0,3.0,88.0
2340,74.0,0,0,2.0,88.0
2341,53.0,80,156,5.0,88.0
2342,74.0,160,0,2.0,87.0
2343,65.0,0,0,3.0,87.0
2344,62.0,0,0,3.0,87.0
2345,62.0,160,0,3.0,85.0
2346,65.0,0,0,3.0,85.0
2347,38.0,0,240,5.0,87.0
2348,69.0,0,160,2.0,85.0
2349,57.0,80,156,5.0,85.0
2350,65.0,0,160,3.0,84.0
2351,62.0,0,160,3.0,84.0
2352,69.0,0,0,2.0,83.0
2353,62.0,0,160,3.0,83.0
2354,64.0,160,160,3.0,83.0
2355,40.0,0,240,5.0,83.0
2356,72.0,160,160,2.0,82.0
2357,69.0,80,0,3.0,81.0
2358,64.0,0,0,3.0,81.0
2359,60.0,0,160,3.0,82.0
2360,52.0,80,156,5.0,81.0
2361,72.0,0,0,2.0,80.0
2362,56.0,0,156,5.0,80.0
2363,64.0,160,160,3.0,80.0
2364,64.0,0,160,3.0,78.0
2365,62.0,0,0,3.0,77.0
2366,71.0,80,0,2.0,77.0
2367,52.0,80,156,5.0,78.0
2368,71.0,0,0,2.0,79.0
2369,62.0,0,0,3.0,79.0
2370,64.0,160,0,3.0,79.0
2371,45.0,0,240,5.0,79.0
2372,72.0,160,160,2.0,84.0
2373,60.0,0,0,3.0,89.0
2374,64.0,0,0,3.0,89.0
2375,52.0,80,156,5.0,86.0
2376,64.0,0,0,3.0,94.0
2377,72.0,160,0,2.0,94.0
2378,57.0,0,156,5.0,94.0
2379,69.0,160,0,3.0,99.0
2380,74.0,0,160,2.0,99.0
2381,64.0,0,0,3.0,104.0
2382,60.0,80,156,5.0,101.0
2383,76.0,80,128,2.0,104.0
2384,69.0,0,128,3.0,104.0
2385,68.0,0,160,3.0,108.0
2386,64.0,0,160,3.0,108.0
2387,76.0,0,160,2.0,108.0
2388,72.0,0,0,3.0,106.0
2389,41.0,0,240,5.0,108.0
2390,65.0,0,160,3.0,106.0
2391,77.0,160,160,2.0,106.0
2392,68.0,0,0,3.0,104.0
2393,72.0,80,0,3.0,104.0
2394,60.0,80,156,5.0,105.0
2395,77.0,0,160,2.0,104.0
2396,65.0,0,160,3.0,104.0
2397,72.0,0,0,3.0,102.0
2398,65.0,0,0,3.0,100.0
2399,68.0,0,0,3.0,100.0
2400,77.0,160,160,2.0,102.0
2401,44.0,0,240,5.0,102.0
2402,72.0,160,160,2.0,100.0
2403,65.0,80,0,3.0,98.0
2404,60.0,80,156,5.0,99.0
2405,72.0,160,0,2.0,96.0
2406,68.0,0,160,3.0,98.0
2407,65.0,0,160,3.0,96.0
2408,67.0,0,160,3.0,96.0
2409,48.0,0,240,5.0,96.0
2410,63.0,0,160,3.0,93.0
2411,67.0,160,160,3.0,93.0
2412,75.0,80,0,2.0,91.0
2413,55.0,80,156,5.0,92.0
2414,63.0,0,160,3.0,91.0
2415,67.0,0,160,3.0,91.0
2416,66.0,160,0,3.0,87.0
2417,63.0,0,160,3.0,89.0
2418,75.0,0,160,2.0,89.0
2419,39.0,160,240,5.0,89.0
2420,63.0,0,0,3.0,85.0
2421,70.0,80,0,2.0,85.0
2422,58.0,80,156,5.0,86.0
2423,66.0,0,160,3.0,85.0
2424,63.0,0,0,3.0,83.0
2425,65.0,0,160,3.0,83.0
2426,70.0,0,160,2.0,83.0
2427,41.0,160,240,5.0,83.0
2428,61.0,160,160,3.0,81.0
2429,65.0,0,160,3.0,81.0
2430,73.0,80,0,2.0,79.0
2431,53.0,80,156,5.0,80.0
2432,65.0,0,160,3.0,79.0
2433,73.0,0,0,2.0,77.0
2434,57.0,160,156,5.0,77.0
2435,65.0,0,0,3.0,75.0
2436,72.0,80,0,2.0,73.0
2437,63.0,0,0,3.0,73.0
2438,53.0,80,156,5.0,74.0
2439,65.0,0,160,3.0,73.0
2440,63.0,160,0,3.0,71.0
2441,72.0,0,0,2.0,71.0
2442,65.0,0,160,3.0,71.0
2443,46.0,0,240,5.0,71.0
2444,73.0,0,160,2.0,69.0
2445,65.0,160,160,3.0,69.0
2446,61.0,0,0,3.0,66.0
2447,53.0,80,156,5.0,68.0
2448,70.0,80,160,2.0,66.0
2449,65.0,0,160,3.0,66.0
2450,61.0,0,0,3.0,64.0
2451,58.0,160,156,5.0,64.0
2452,65.0,0,160,3.0,64.0
2453,61.0,160,0,3.0,62.0
2454,70.0,0,160,2.0,64.0
2455,65.0,0,160,3.0,62.0
2456,72.0,0,160,2.0,62.0
2457,65.0,80,128,3.0,60.0
2458,73.0,0,128,2.0,60.0
2459,70.0,0,128,3.0,60.0
2460,43.0,80,240,5.0,61.0
2461,70.0,0,160,3.0,58.0
2462,64.0,0,160,3.0,58.0
2463,73.0,0,160,2.0,58.0
2464,36.0,160,240,5.0,58.0
2465,70.0,0,160,3.0,59.0
2466,64.0,0,160,3.0,59.0
2467,72.0,0,0,2.0,61.0
2468,64.0,160,0,3.0,63.0
2469,70.0,0,0,3.0,63.0
2470,56.0,0,156,5.0,63.0
2471,70.0,0,0,3.0,65.0
2472,72.0,0,160,2.0,63.0
2473,64.0,0,160,3.0,65.0
2474,73.0,0,0,2.0,67.0
2475,55.0,80,156,5.0,66.0
2476,48.0,80,636,5.0,60.0
2477,64.0,0,160,3.0,67.0
2478,70.0,80,160,3.0,67.0
2479,64.0,160,160,3.0,69.0
2480,68.0,0,160,3.0,69.0
2481,73.0,0,160,2.0,69.0
2482,36.0,0,240,5.0,69.0
2483,72.0,0,160,2.0,71.0
2484,65.0,0,160,3.0,71.0
2485,68.0,160,160,3.0,71.0
2486,65.0,0,160,3.0,73.0
2487,72.0,0,0,2.0,75.0
2488,68.0,0,0,3.0,75.0
2489,56.0,0,156,5.0,75.0
2490,65.0,160,0,3.0,77.0
2491,68.0,0,160,3.0,77.0
2492,73.0,0,160,2.0,77.0
2493,61.0,80,156,5.0,78.0
2494,48.0,80,636,5.0,72.0
2495,73.0,0,160,2.0,79.0
2496,68.0,0,0,3.0,81.0
2497,65.0,0,0,3.0,81.0
2498,73.0,0,160,2.0,81.0
2499,48.0,160,240,5.0,81.0
2500,77.0,80,0,2.0,75.0
2501,73.0,160,160,3.0,78.0
2502,68.0,0,160,3.0,78.0
2503,65.0,80,156,5.0,76.0
2504,56.0,0,156,5.0,76.0
2505,68.0,160,0,3.0,73.0
2506,77.0,0,0,2.0,73.0
2507,73.0,0,160,3.0,75.0
2508,73.0,0,160,3.0,73.0
2509,48.0,0,240,5.0,73.0
2510,67.0,80,0,3.0,68.0
2511,72.0,0,0,3.0,68.0
2512,76.0,0,0,2.0,68.0
2513,55.0,80,156,5.0,69.0
2514,64.0,0,156,5.0,69.0
2515,72.0,0,160,3.0,66.0
2516,76.0,0,160,2.0,66.0
2517,67.0,0,160,3.0,66.0
2518,48.0,160,240,5.0,66.0
2519,72.0,0,160,2.0,62.0
2520,64.0,80,0,3.0,58.0
2521,67.0,0,0,3.0,58.0
2522,60.0,80,156,5.0,60.0
2523,55.0,0,156,5.0,60.0
2524,72.0,0,160,2.0,58.0
2525,67.0,0,0,3.0,54.0
2526,73.0,0,160,2.0,54.0
2527,63.0,0,0,3.0,50.0
2528,67.0,0,0,3.0,50.0
2529,46.0,0,240,5.0,54.0
2530,63.0,80,0,3.0,46.0
2531,67.0,0,0,3.0,46.0
2532,75.0,160,160,2.0,50.0
2533,61.0,80,156,5.0,48.0
2534,51.0,0,156,5.0,48.0
2535,70.0,0,128,2.0,46.0
2536,72.0,160,0,2.0,56.0
2537,68.0,0,0,3.0,56.0
2538,63.0,0,0,3.0,56.0
2539,44.0,0,240,5.0,57.0
2540,63.0,0,0,3.0,56.0
2541,68.0,80,0,3.0,56.0
2542,51.0,80,156,5.0,56.0
2543,72.0,0,160,2.0,56.0
2544,63.0,0,0,3.0,55.0
2545,68.0,0,0,3.0,55.0
2546,63.0,0,0,3.0,54.0
2547,72.0,0,160,2.0,55.0
2548,39.0,160,240,5.0,55.0
2549,61.0,160,160,3.0,54.0
2550,63.0,80,0,3.0,53.0
2551,70.0,0,0,2.0,53.0
2552,51.0,80,156,5.0,54.0
2553,61.0,0,160,3.0,53.0
2554,70.0,160,0,2.0,53.0
2555,63.0,0,160,3.0,53.0
2556,61.0,0,160,3.0,53.0
2557,32.0,0,240,5.0,53.0
2558,63.0,0,160,3.0,52.0
2559,68.0,160,160,2.0,52.0
2560,60.0,0,0,3.0,51.0
2561,51.0,80,156,5.0,51.0
2562,68.0,80,160,2.0,51.0
2563,63.0,0,160,3.0,51.0
2564,63.0,0,160,3.0,50.0
2565,68.0,160,160,2.0,50.0
2566,60.0,0,0,3.0,50.0
2567,27.0,0,240,5.0,50.0
2568,63.0,160,160,2.0,50.0
2569,51.0,80,156,5.0,49.0
2570,58.0,0,160,3.0,49.0
2571,63.0,0,160,2.0,49.0
2572,61.0,0,0,3.0,50.0
2573,58.0,0,160,3.0,50.0
2574,63.0,0,160,2.0,50.0
2575,32.0,160,240,5.0,50.0
2576,63.0,160,160,3.0,51.0
2577,61.0,0,160,3.0,51.0
2578,68.0,0,160,2.0,51.0
2579,51.0,80,156,5.0,52.0
2580,63.0,0,160,3.0,52.0
2581,68.0,80,160,2.0,52.0
2582,61.0,0,160,3.0,52.0
2583,60.0,0,160,3.0,53.0
2584,63.0,0,160,3.0,53.0
2585,68.0,0,160,2.0,53.0
2586,39.0,160,240,5.0,53.0
2587,70.0,0,0,2.0,55.0
2588,63.0,80,0,3.0,55.0
2589,68.0,0,160,3.0,54.0
2590,51.0,80,156,5.0,54.0
2591,67.0,160,0,3.0,56.0
2592,63.0,0,0,3.0,56.0
2593,70.0,0,160,2.0,56.0
2594,63.0,0,0,3.0,57.0
2595,44.0,0,240,5.0,56.0
2596,72.0,80,0,2.0,58.0
2597,63.0,0,0,3.0,58.0
2598,70.0,0,160,3.0,57.0
2599,51.0,80,156,5.0,57.0
2600,68.0,0,160,3.0,58.0
2601,72.0,0,0,2.0,59.0
2602,56.0,160,156,5.0,59.0
2603,68.0,0,160,3.0,59.0
2604,66.0,0,160,3.0,59.0
2605,68.0,0,0,3.0,60.0
2606,73.0,160,160,2.0,60.0
2607,66.0,80,0,3.0,60.0
2608,63.0,80,156,5.0,60.0
2609,75.0,0,128,2.0,60.0
2610,68.0,0,0,3.0,62.0
2611,75.0,0,160,2.0,63.0
2612,66.0,0,160,3.0,63.0
2613,49.0,0,240,5.0,63.0
2614,65.0,160,160,3.0,62.0
2615,77.0,0,160,2.0,62.0
2616,56.0,80,156,5.0,62.0
2617,70.0,0,160,3.0,62.0
2618,65.0,0,160,3.0,62.0
2619,77.0,160,0,2.0,61.0
2620,66.0,160,0,3.0,60.0
2621,70.0,0,0,3.0,60.0
2622,44.0,0,240,5.0,61.0
2623,75.0,80,0,2.0,59.0
2624,56.0,80,156,5.0,60.0
2625,68.0,0,160,3.0,59.0
2626,66.0,160,0,3.0,59.0
2627,68.0,160,0,3.0,58.0
2628,75.0,0,160,2.0,59.0
2629,37.0,0,240,5.0,59.0
2630,73.0,0,160,2.0,58.0
2631,66.0,0,160,3.0,58.0
2632,56.0,80,156,5.0,57.0
2633,65.0,0,160,3.0,57.0
2634,73.0,0,0,2.0,56.0
2635,68.0,160,0,3.0,56.0
2636,65.0,0,160,3.0,56.0
2637,32.0,0,240,5.0,56.0
2638,65.0,160,160,3.0,55.0
2639,68.0,0,160,2.0,55.0
2640,56.0,80,156,5.0,55.0
2641,63.0,0,160,3.0,55.0
2642,66.0,80,160,3.0,55.0
2643,68.0,160,0,2.0,55.0
2644,66.0,0,160,3.0,55.0
2645,63.0,0,160,3.0,55.0
2646,37.0,0,240,5.0,55.0
2647,73.0,160,160,2.0,57.0
2648,68.0,0,160,3.0,57.0
2649,66.0,0,160,3.0,57.0
2650,56.0,80,156,5.0,58.0
2651,68.0,0,160,3.0,59.0
2652,73.0,160,0,2.0,61.0
2653,65.0,0,0,3.0,61.0
2654,68.0,0,160,3.0,61.0
2655,44.0,0,240,5.0,61.0
2656,75.0,0,160,2.0,63.0
2657,73.0,160,160,3.0,63.0
2658,68.0,0,0,3.0,65.0
2659,63.0,0,160,3.0,63.0
2660,56.0,80,156,5.0,64.0
2661,68.0,0,0,3.0,67.0
2662,72.0,0,0,3.0,67.0
2663,75.0,160,0,2.0,67.0
2664,66.0,0,0,3.0,67.0
2665,49.0,0,240,5.0,67.0
2666,65.0,0,160,3.0,69.0
2667,68.0,0,0,3.0,71.0
2668,73.0,0,0,3.0,71.0
2669,77.0,80,0,2.0,71.0
2670,56.0,80,156,5.0,70.0
2671,68.0,0,0,3.0,73.0
2672,73.0,160,0,3.0,73.0
2673,77.0,0,160,2.0,73.0
2674,46.0,0,240,5.0,73.0
2675,79.0,160,160,2.0,75.0
2676,73.0,0,160,3.0,75.0
2677,68.0,80,0,3.0,76.0
2678,61.0,80,156,5.0,76.0
2679,77.0,0,128,2.0,76.0
2680,73.0,0,128,3.0,76.0
2681,73.0,160,160,3.0,78.0
2682,68.0,0,160,3.0,78.0
2683,75.0,0,160,2.0,78.0
2684,39.0,0,240,5.0,78.0
2685,75.0,80,0,2.0,76.0
2686,73.0,0,0,3.0,76.0
2687,67.0,0,0,3.0,76.0
2688,73.0,160,0,3.0,75.0
2689,60.0,0,156,5.0,75.0
2690,67.0,0,0,3.0,74.0
2691,73.0,160,0,3.0,74.0
2692,75.0,0,160,2.0,75.0
2693,67.0,80,0,3.0,73.0
2694,77.0,0,0,2.0,73.0
2695,58.0,80,156,5.0,73.0
2696,51.0,80,636,5.0,76.0
2697,67.0,160,0,3.0,72.0
2698,73.0,0,160,3.0,73.0
2699,72.0,0,160,3.0,72.0
2700,77.0,0,160,2.0,72.0
2701,44.0,0,240,5.0,72.0
2702,72.0,0,160,3.0,71.0
2703,68.0,0,0,3.0,70.0
2704,75.0,80,0,2.0,70.0
2705,51.0,80,156,5.0,71.0
2706,72.0,0,160,3.0,70.0
2707,60.0,0,156,5.0,69.0
2708,72.0,0,160,3.0,69.0
2709,68.0,0,160,3.0,69.0
2710,75.0,160,160,2.0,69.0
2711,73.0,0,160,2.0,68.0
2712,68.0,160,160,3.0,68.0
2713,63.0,0,160,3.0,68.0
2714,72.0,80,128,2.0,67.0
2715,68.0,0,128,3.0,67.0
2716,63.0,0,128,3.0,67.0
2717,44.0,80,240,5.0,68.0
2718,72.0,160,0,2.0,65.0
2719,70.0,0,0,3.0,65.0
2720,65.0,0,160,3.0,66.0
2721,36.0,160,240,5.0,66.0
2722,64.0,0,160,3.0,65.0
2723,43.0,80,156,5.0,65.0
2724,72.0,0,0,2.0,63.0
2725,64.0,0,0,3.0,63.0
2726,70.0,0,160,3.0,64.0
2727,56.0,160,156,5.0,63.0
2728,64.0,0,0,3.0,62.0
2729,70.0,0,0,3.0,62.0
2730,73.0,160,160,2.0,62.0
2731,70.0,0,0,3.0,61.0
2732,64.0,0,0,3.0,61.0
2733,55.0,80,156,5.0,62.0
2734,73.0,80,160,2.0,61.0
2735,64.0,0,160,3.0,60.0
2736,68.0,0,160,3.0,60.0
2737,73.0,160,160,2.0,60.0
2738,41.0,0,240,5.0,60.0
2739,65.0,0,160,3.0,58.0
2740,68.0,80,0,3.0,57.0
2741,72.0,0,0,2.0,57.0
2742,56.0,80,156,5.0,57.0
2743,72.0,160,0,2.0,56.0
2744,65.0,0,0,3.0,56.0
2745,60.0,0,160,3.0,56.0
2746,38.0,0,240,5.0,56.0
2747,60.0,160,160,3.0,55.0
2748,70.0,0,160,2.0,55.0
2749,65.0,0,160,3.0,55.0
2750,56.0,80,156,5.0,55.0
2751,60.0,0,128,3.0,55.0
2752,65.0,80,128,3.0,55.0
2753,68.0,0,128,2.0,55.0
2754,63.0,0,160,3.0,54.0
2755,68.0,0,160,3.0,54.0
2756,72.0,160,160,2.0,54.0
2757,39.0,0,240,5.0,54.0
2758,65.0,160,160,3.0,53.0
2759,61.0,0,0,3.0,53.0
2760,70.0,80,0,2.0,53.0
2761,51.0,80,156,5.0,53.0
2762,55.0,100,60,5.0,52.0
2763,65.0,0,0,3.0,52.0
2764,53.0,60,156,5.0,52.0
2765,70.0,0,160,2.0,52.0
2766,61.0,0,160,3.0,52.0
2767,63.0,0,160,3.0,51.0
2768,67.0,0,160,3.0,51.0
2769,72.0,160,160,2.0,51.0
2770,51.0,80,156,5.0,51.0
2771,63.0,0,0,3.0,50.0
2772,67.0,0,0,3.0,50.0
2773,72.0,160,0,2.0,50.0
2774,63.0,160,0,3.0,49.0
2775,44.0,0,240,5.0,50.0
2776,68.0,80,0,2.0,48.0
2777,60.0,0,0,3.0,48.0
2778,51.0,80,156,5.0,49.0
2779,63.0,0,160,3.0,48.0
2780,68.0,0,160,2.0,48.0
2781,65.0,160,0,3.0,47.0
2782,61.0,0,0,3.0,47.0
2783,37.0,0,240,5.0,48.0
2784,65.0,80,0,3.0,46.0
2785,72.0,0,160,2.0,47.0
2786,61.0,0,0,3.0,46.0
2787,56.0,80,156,5.0,47.0
2788,65.0,0,0,3.0,45.0
2789,72.0,160,0,2.0,45.0
2790,61.0,0,0,3.0,45.0
2791,34.0,0,240,5.0,45.0
2792,65.0,0,160,3.0,45.0
2793,70.0,0,160,2.0,45.0
2794,61.0,80,0,3.0,44.0
2795,56.0,80,156,5.0,44.0
2796,70.0,0,160,2.0,44.0
2797,65.0,0,160,3.0,44.0
2798,61.0,0,160,3.0,43.0
2799,65.0,0,160,3.0,43.0
2800,70.0,0,160,2.0,43.0
2801,63.0,0,0,3.0,42.0
2802,67.0,80,0,3.0,42.0
2803,72.0,0,160,2.0,43.0
2804,51.0,80,156,5.0,42.0
2805,39.0,160,396,5.0,43.0
2806,72.0,0,160,2.0,42.0
2807,67.0,0,0,3.0,41.0
2808,63.0,0,0,3.0,41.0
2809,63.0,160,0,3.0,41.0
2810,67.0,0,0,3.0,41.0
2811,72.0,160,160,2.0,41.0
2812,72.0,0,160,2.0,41.0
2813,63.0,160,0,3.0,39.0
2814,67.0,0,0,3.0,39.0
2815,72.0,160,160,2.0,40.0
2816,72.0,160,0,2.0,38.0
2817,68.0,0,160,3.0,38.0
2818,63.0,0,160,3.0,38.0
2819,63.0,0,160,3.0,38.0
2820,72.0,160,160,2.0,38.0
2821,68.0,0,0,3.0,37.0
2822,75.0,0,160,2.0,37.0
2823,63.0,0,160,3.0,37.0
2824,68.0,0,0,3.0,36.0
2825,72.0,160,160,3.0,37.0
2826,44.0,0,240,5.0,37.0
2827,72.0,160,160,2.0,36.0
2828,63.0,0,160,3.0,36.0
2829,68.0,80,0,3.0,36.0
2830,51.0,80,156,5.0,36.0
2831,72.0,0,160,2.0,36.0
2832,63.0,0,0,3.0,35.0
2833,68.0,0,160,3.0,35.0
2834,72.0,0,160,2.0,35.0
2835,44.0,160,240,5.0,35.0
2836,63.0,0,160,3.0,34.0
2837,60.0,80,0,3.0,33.0
2838,68.0,160,160,2.0,34.0
2839,51.0,80,156,5.0,34.0
2840,63.0,0,160,3.0,33.0
2841,60.0,160,0,3.0,33.0
2842,68.0,0,160,2.0,33.0
2843,63.0,0,0,3.0,32.0
2844,68.0,0,160,2.0,33.0
2845,68.0,0,160,3.0,32.0
2846,72.0,160,160,2.0,32.0
2847,50.0,80,40,5.0,31.0
2848,51.0,40,40,5.0,31.0
2849,72.0,0,160,2.0,31.0
2850,63.0,160,160,3.0,31.0
2851,68.0,0,0,3.0,31.0
2852,53.0,40,40,5.0,31.0
2853,51.0,40,40,5.0,30.0
2854,53.0,40,40,5.0,30.0
2855,51.0,40,40,5.0,30.0
2856,72.0,0,160,2.0,31.0
2857,63.0,0,160,3.0,31.0
2858,53.0,40,40,5.0,30.0
2859,51.0,40,40,5.0,30.0
2860,53.0,40,40,5.0,30.0
2861,67.0,40,0,3.0,29.0
2862,61.0,0,0,3.0,29.0
2863,51.0,40,40,5.0,29.0
2864,70.0,0,0,2.0,29.0
2865,53.0,0,40,5.0,29.0
2866,51.0,40,40,5.0,29.0
2867,50.0,40,40,5.0,29.0
2868,61.0,0,0,3.0,28.0
2869,70.0,0,960,2.0,28.0
2870,67.0,0,960,3.0,28.0
2871,63.0,40,960,3.0,28.0
2872,39.0,0,960,5.0,28.0
2873,51.0,40,1960,5.0,29.0
2874,60.0,0,960,3.0,24.0
2875,68.0,0,960,2.0,24.0
2876,44.0,960,960,5.0,24.0
