,note,step,duration,channel,velocity
0,72.0,0,225,0.0,101.0
1,73.0,0,52,0.0,101.0
2,56.0,0,105,1.0,86.0
3,60.0,120,105,1.0,86.0
4,72.0,60,52,0.0,101.0
5,70.0,0,52,0.0,101.0
6,53.0,120,345,1.0,86.0
7,56.0,60,105,1.0,86.0
8,60.0,0,105,1.0,86.0
9,68.0,60,52,0.0,101.0
10,67.0,60,165,0.0,101.0
11,60.0,0,105,1.0,86.0
12,56.0,0,105,1.0,86.0
13,53.0,120,105,1.0,86.0
14,65.0,60,52,0.0,101.0
15,65.0,60,105,0.0,127.0
16,56.0,0,105,1.0,86.0
17,51.0,0,345,1.0,86.0
18,53.0,0,105,1.0,86.0
19,60.0,0,105,1.0,86.0
20,77.0,0,105,0.0,101.0
21,70.0,0,52,0.0,101.0
22,49.0,120,225,1.0,86.0
23,72.0,60,52,0.0,101.0
24,75.0,60,52,0.0,101.0
25,72.0,15,13,0.0,101.0
26,73.0,15,13,0.0,101.0
27,58.0,120,225,1.0,86.0
28,53.0,0,225,1.0,86.0
29,46.0,0,105,1.0,86.0
30,75.0,15,13,0.0,101.0
31,41.0,0,105,1.0,86.0
32,73.0,15,165,0.0,101.0
33,68.0,0,105,1.0,86.0
34,60.0,120,105,1.0,86.0
35,72.0,60,52,0.0,101.0
36,60.0,0,105,1.0,86.0
37,72.0,0,105,0.0,127.0
38,68.0,60,105,1.0,86.0
39,71.0,0,52,0.0,101.0
40,72.0,60,52,0.0,101.0
41,75.0,45,13,0.0,101.0
42,73.0,0,52,0.0,101.0
43,60.0,0,105,1.0,86.0
44,58.0,0,105,1.0,86.0
45,67.0,15,105,1.0,86.0
46,72.0,60,52,0.0,101.0
47,77.0,0,52,0.0,101.0
48,60.0,0,105,1.0,86.0
49,51.0,120,345,1.0,86.0
50,67.0,0,105,1.0,86.0
51,58.0,60,105,1.0,86.0
52,79.0,60,52,0.0,101.0
53,80.0,0,52,0.0,101.0
54,68.0,60,52,0.0,101.0
55,76.0,60,52,0.0,101.0
56,65.0,0,105,1.0,86.0
57,60.0,0,105,1.0,86.0
58,56.0,0,105,1.0,86.0
59,53.0,60,225,1.0,86.0
60,79.0,60,52,0.0,101.0
61,77.0,60,52,0.0,101.0
62,44.0,0,105,1.0,86.0
63,65.0,60,52,0.0,101.0
64,72.0,60,52,0.0,101.0
65,75.0,60,52,0.0,101.0
66,73.0,60,52,0.0,101.0
67,61.0,0,105,1.0,86.0
68,46.0,0,225,1.0,86.0
69,53.0,0,105,1.0,86.0
70,55.0,0,105,1.0,86.0
71,61.0,60,52,0.0,101.0
72,72.0,0,52,0.0,101.0
73,34.0,60,105,1.0,86.0
74,70.0,60,52,0.0,101.0
75,67.0,60,52,0.0,101.0
76,36.0,0,105,1.0,86.0
77,72.0,60,52,0.0,101.0
78,71.0,0,52,0.0,101.0
79,55.0,60,105,1.0,86.0
80,48.0,0,105,1.0,86.0
81,64.0,0,105,1.0,86.0
82,72.0,60,52,0.0,101.0
83,73.0,60,52,0.0,101.0
84,74.0,60,52,0.0,101.0
85,75.0,0,105,0.0,101.0
86,77.0,120,52,0.0,101.0
87,60.0,0,105,1.0,86.0
88,63.0,0,105,1.0,86.0
89,75.0,60,52,0.0,101.0
90,73.0,0,52,0.0,101.0
91,63.0,60,105,1.0,86.0
92,60.0,0,105,1.0,86.0
93,56.0,60,345,1.0,86.0
94,72.0,60,52,0.0,101.0
95,70.0,60,165,0.0,101.0
96,56.0,120,105,1.0,86.0
97,60.0,0,105,1.0,86.0
98,63.0,0,105,1.0,86.0
99,68.0,60,52,0.0,101.0
100,55.0,0,345,1.0,86.0
101,56.0,0,105,1.0,86.0
102,68.0,0,105,0.0,127.0
103,60.0,0,105,1.0,86.0
104,63.0,60,105,1.0,86.0
105,80.0,120,105,0.0,101.0
106,72.0,0,52,0.0,101.0
107,60.0,0,105,1.0,86.0
108,63.0,0,105,1.0,86.0
109,56.0,120,105,1.0,86.0
110,75.0,60,52,0.0,101.0
111,79.0,60,52,0.0,101.0
112,60.0,0,105,1.0,86.0
113,56.0,0,105,1.0,86.0
114,63.0,0,105,1.0,86.0
115,53.0,0,345,1.0,86.0
116,77.0,60,52,0.0,101.0
117,46.0,60,105,1.0,86.0
118,75.0,0,165,0.0,101.0
119,56.0,0,105,1.0,86.0
120,65.0,120,105,1.0,86.0
121,58.0,0,105,1.0,86.0
122,74.0,60,52,0.0,101.0
123,65.0,0,105,1.0,86.0
124,74.0,0,105,0.0,127.0
125,56.0,0,105,1.0,86.0
126,58.0,60,105,1.0,86.0
127,46.0,0,105,1.0,86.0
128,84.0,120,165,0.0,101.0
129,56.0,120,105,1.0,86.0
130,58.0,0,105,1.0,86.0
131,62.0,0,105,1.0,86.0
132,82.0,60,52,0.0,101.0
133,81.0,0,52,0.0,101.0
134,56.0,0,105,1.0,86.0
135,62.0,60,105,1.0,86.0
136,58.0,0,105,1.0,86.0
137,80.0,60,52,0.0,101.0
138,80.0,60,52,0.0,101.0
139,46.0,0,105,1.0,86.0
140,79.0,60,52,0.0,101.0
141,77.0,60,52,0.0,101.0
142,55.0,0,105,1.0,86.0
143,63.0,0,105,1.0,86.0
144,58.0,0,105,1.0,86.0
145,75.0,60,52,0.0,101.0
146,74.0,0,52,0.0,101.0
147,63.0,60,105,1.0,86.0
148,58.0,0,105,1.0,86.0
149,55.0,0,105,1.0,86.0
150,72.0,60,52,0.0,101.0
151,72.0,0,52,0.0,101.0
152,46.0,60,105,1.0,86.0
153,70.0,60,52,0.0,101.0
154,69.0,0,52,0.0,101.0
155,56.0,0,105,1.0,86.0
156,58.0,60,105,1.0,86.0
157,65.0,0,105,1.0,86.0
158,70.0,60,52,0.0,101.0
159,74.0,45,13,0.0,101.0
160,72.0,0,52,0.0,101.0
161,58.0,0,105,1.0,86.0
162,65.0,0,105,1.0,86.0
163,56.0,15,105,1.0,86.0
164,70.0,60,52,0.0,101.0
165,72.0,60,52,0.0,101.0
166,46.0,0,105,1.0,86.0
167,70.0,60,52,0.0,101.0
168,69.0,60,52,0.0,101.0
169,63.0,0,105,1.0,86.0
170,58.0,0,105,1.0,86.0
171,55.0,0,105,1.0,86.0
172,70.0,60,52,0.0,101.0
173,74.0,45,13,0.0,101.0
174,72.0,0,52,0.0,101.0
175,63.0,0,105,1.0,86.0
176,58.0,0,105,1.0,86.0
177,55.0,15,105,1.0,86.0
178,70.0,60,52,0.0,101.0
179,46.0,60,105,1.0,86.0
180,70.0,0,105,0.0,101.0
181,84.0,0,52,0.0,101.0
182,58.0,120,105,1.0,86.0
183,56.0,0,105,1.0,86.0
184,62.0,0,105,1.0,86.0
185,82.0,60,52,0.0,101.0
186,81.0,0,52,0.0,101.0
187,56.0,0,105,1.0,86.0
188,62.0,60,105,1.0,86.0
189,58.0,0,105,1.0,86.0
190,80.0,60,52,0.0,101.0
191,78.0,60,52,0.0,101.0
192,51.0,0,105,1.0,86.0
193,79.0,60,52,0.0,101.0
194,74.0,0,52,0.0,101.0
195,58.0,0,105,1.0,86.0
196,63.0,0,105,1.0,86.0
197,67.0,60,105,1.0,86.0
198,75.0,60,52,0.0,101.0
199,63.0,60,52,0.0,101.0
200,66.0,0,105,1.0,86.0
201,60.0,0,105,1.0,86.0
202,57.0,0,105,1.0,86.0
203,72.0,60,52,0.0,101.0
204,70.0,60,52,0.0,101.0
205,46.0,0,105,1.0,86.0
206,58.0,60,52,0.0,101.0
207,67.0,60,52,0.0,101.0
208,63.0,0,105,1.0,86.0
209,58.0,0,105,1.0,86.0
210,70.0,60,52,0.0,101.0
211,65.0,0,52,0.0,101.0
212,56.0,0,105,1.0,86.0
213,62.0,60,105,1.0,86.0
214,70.0,60,52,0.0,101.0
215,72.0,15,13,0.0,101.0
216,73.0,15,13,0.0,101.0
217,55.0,8,0,1.0,86.0
218,51.0,60,225,1.0,86.0
219,58.0,120,105,1.0,86.0
220,63.0,0,225,0.0,101.0
221,75.0,0,13,0.0,101.0
222,73.0,0,52,0.0,101.0
223,58.0,7,113,1.0,86.0
224,48.0,7,128,1.0,86.0
225,64.0,8,105,1.0,86.0
226,72.0,60,52,0.0,101.0
227,72.0,60,105,0.0,101.0
228,73.0,120,52,0.0,101.0
229,60.0,0,105,1.0,86.0
230,56.0,0,105,1.0,86.0
231,72.0,60,52,0.0,101.0
232,70.0,60,52,0.0,101.0
233,60.0,0,105,1.0,86.0
234,53.0,0,345,1.0,86.0
235,56.0,0,105,1.0,86.0
236,68.0,60,52,0.0,101.0
237,67.0,0,165,0.0,101.0
238,53.0,0,105,1.0,86.0
239,60.0,120,105,1.0,86.0
240,56.0,0,105,1.0,86.0
241,65.0,60,52,0.0,101.0
242,65.0,0,105,0.0,127.0
243,51.0,60,345,1.0,86.0
244,53.0,0,105,1.0,86.0
245,60.0,0,105,1.0,86.0
246,56.0,60,105,1.0,86.0
247,77.0,120,105,0.0,101.0
248,70.0,0,52,0.0,101.0
249,49.0,0,225,1.0,86.0
250,72.0,60,52,0.0,101.0
251,75.0,0,52,0.0,101.0
252,72.0,15,13,0.0,101.0
253,73.0,15,13,0.0,101.0
254,58.0,0,225,1.0,86.0
255,46.0,60,105,1.0,86.0
256,53.0,120,225,1.0,86.0
257,75.0,15,13,0.0,101.0
258,41.0,0,105,1.0,86.0
259,73.0,15,165,0.0,101.0
260,68.0,120,105,1.0,86.0
261,60.0,0,105,1.0,86.0
262,72.0,60,52,0.0,101.0
263,60.0,0,105,1.0,86.0
264,68.0,0,105,1.0,86.0
265,72.0,60,105,0.0,127.0
266,71.0,120,52,0.0,101.0
267,72.0,60,52,0.0,101.0
268,75.0,45,13,0.0,101.0
269,73.0,0,52,0.0,101.0
270,58.0,0,105,1.0,86.0
271,67.0,15,105,1.0,86.0
272,60.0,0,105,1.0,86.0
273,72.0,60,52,0.0,101.0
274,77.0,60,52,0.0,101.0
275,60.0,0,105,1.0,86.0
276,58.0,0,105,1.0,86.0
277,52.0,0,345,1.0,86.0
278,67.0,0,105,1.0,86.0
279,79.0,60,52,0.0,101.0
280,80.0,60,52,0.0,101.0
281,68.0,60,52,0.0,101.0
282,76.0,0,52,0.0,101.0
283,56.0,60,105,1.0,86.0
284,65.0,0,105,1.0,86.0
285,60.0,0,105,1.0,86.0
286,53.0,0,225,1.0,86.0
287,79.0,60,52,0.0,101.0
288,77.0,60,52,0.0,101.0
289,44.0,0,105,1.0,86.0
290,65.0,60,52,0.0,101.0
291,72.0,0,52,0.0,101.0
292,75.0,60,52,0.0,101.0
293,73.0,60,52,0.0,101.0
294,46.0,60,225,1.0,86.0
295,61.0,0,105,1.0,86.0
296,53.0,0,105,1.0,86.0
297,55.0,0,105,1.0,86.0
298,61.0,60,52,0.0,101.0
299,72.0,60,52,0.0,101.0
300,34.0,0,105,1.0,86.0
301,70.0,60,52,0.0,101.0
302,67.0,0,52,0.0,101.0
303,36.0,60,105,1.0,86.0
304,72.0,60,52,0.0,101.0
305,71.0,60,52,0.0,101.0
306,55.0,0,105,1.0,86.0
307,48.0,0,105,1.0,86.0
308,64.0,0,105,1.0,86.0
309,72.0,60,52,0.0,101.0
310,73.0,60,52,0.0,101.0
311,74.0,60,52,0.0,101.0
312,75.0,60,105,0.0,101.0
313,77.0,120,52,0.0,101.0
314,60.0,0,105,1.0,86.0
315,63.0,0,105,1.0,86.0
316,75.0,60,52,0.0,101.0
317,73.0,60,52,0.0,101.0
318,63.0,0,105,1.0,86.0
319,60.0,0,105,1.0,86.0
320,56.0,0,345,1.0,86.0
321,72.0,60,52,0.0,101.0
322,70.0,60,165,0.0,101.0
323,56.0,0,105,1.0,86.0
324,60.0,120,105,1.0,86.0
325,63.0,0,105,1.0,86.0
326,68.0,60,52,0.0,101.0
327,68.0,60,105,0.0,127.0
328,60.0,0,105,1.0,86.0
329,56.0,0,105,1.0,86.0
330,55.0,0,345,1.0,86.0
331,63.0,0,105,1.0,86.0
332,80.0,120,105,0.0,101.0
333,72.0,0,52,0.0,101.0
334,60.0,120,105,1.0,86.0
335,56.0,0,105,1.0,86.0
336,63.0,0,105,1.0,86.0
337,75.0,60,52,0.0,101.0
338,79.0,60,52,0.0,101.0
339,60.0,0,105,1.0,86.0
340,63.0,0,105,1.0,86.0
341,53.0,0,345,1.0,86.0
342,56.0,0,105,1.0,86.0
343,77.0,60,52,0.0,101.0
344,46.0,60,105,1.0,86.0
345,75.0,0,165,0.0,101.0
346,56.0,0,105,1.0,86.0
347,58.0,120,105,1.0,86.0
348,65.0,0,105,1.0,86.0
349,74.0,60,52,0.0,101.0
350,74.0,0,105,0.0,127.0
351,65.0,0,105,1.0,86.0
352,58.0,0,105,1.0,86.0
353,56.0,60,105,1.0,86.0
354,46.0,0,105,1.0,86.0
355,84.0,120,165,0.0,101.0
356,62.0,120,105,1.0,86.0
357,56.0,0,105,1.0,86.0
358,58.0,0,105,1.0,86.0
359,82.0,60,52,0.0,101.0
360,81.0,0,52,0.0,101.0
361,58.0,0,105,1.0,86.0
362,56.0,60,105,1.0,86.0
363,62.0,0,105,1.0,86.0
364,80.0,60,52,0.0,101.0
365,80.0,0,52,0.0,101.0
366,46.0,60,105,1.0,86.0
367,79.0,60,52,0.0,101.0
368,77.0,0,52,0.0,101.0
369,55.0,0,105,1.0,86.0
370,58.0,0,105,1.0,86.0
371,63.0,60,105,1.0,86.0
372,75.0,60,52,0.0,101.0
373,74.0,0,52,0.0,101.0
374,55.0,0,105,1.0,86.0
375,58.0,0,105,1.0,86.0
376,63.0,60,105,1.0,86.0
377,72.0,60,52,0.0,101.0
378,72.0,0,52,0.0,101.0
379,46.0,60,105,1.0,86.0
380,70.0,60,52,0.0,101.0
381,69.0,60,52,0.0,101.0
382,56.0,0,105,1.0,86.0
383,58.0,0,105,1.0,86.0
384,65.0,0,105,1.0,86.0
385,70.0,60,52,0.0,101.0
386,74.0,45,13,0.0,101.0
387,72.0,15,52,0.0,101.0
388,56.0,0,105,1.0,86.0
389,58.0,0,105,1.0,86.0
390,65.0,0,105,1.0,86.0
391,70.0,60,52,0.0,101.0
392,72.0,0,52,0.0,101.0
393,46.0,60,105,1.0,86.0
394,70.0,60,52,0.0,101.0
395,69.0,60,52,0.0,101.0
396,58.0,0,105,1.0,86.0
397,55.0,0,105,1.0,86.0
398,63.0,0,105,1.0,86.0
399,70.0,60,52,0.0,101.0
400,74.0,45,13,0.0,101.0
401,72.0,0,52,0.0,101.0
402,58.0,0,105,1.0,86.0
403,55.0,0,105,1.0,86.0
404,63.0,15,105,1.0,86.0
405,70.0,60,52,0.0,101.0
406,70.0,0,105,0.0,101.0
407,46.0,60,105,1.0,86.0
408,84.0,120,52,0.0,101.0
409,58.0,0,105,1.0,86.0
410,56.0,0,105,1.0,86.0
411,62.0,0,105,1.0,86.0
412,82.0,60,52,0.0,101.0
413,81.0,0,52,0.0,101.0
414,56.0,60,105,1.0,86.0
415,62.0,0,105,1.0,86.0
416,58.0,0,105,1.0,86.0
417,80.0,60,52,0.0,101.0
418,78.0,60,52,0.0,101.0
419,51.0,0,105,1.0,86.0
420,79.0,60,52,0.0,101.0
421,74.0,0,52,0.0,101.0
422,58.0,0,105,1.0,86.0
423,63.0,60,105,1.0,86.0
424,67.0,0,105,1.0,86.0
425,75.0,60,52,0.0,101.0
426,63.0,0,52,0.0,101.0
427,60.0,60,105,1.0,86.0
428,66.0,0,105,1.0,86.0
429,57.0,0,105,1.0,86.0
430,72.0,60,52,0.0,101.0
431,70.0,0,52,0.0,101.0
432,46.0,60,105,1.0,86.0
433,58.0,60,52,0.0,101.0
434,67.0,0,52,0.0,101.0
435,58.0,60,105,1.0,86.0
436,63.0,0,105,1.0,86.0
437,70.0,60,52,0.0,101.0
438,65.0,0,52,0.0,101.0
439,62.0,60,105,1.0,86.0
440,56.0,0,105,1.0,86.0
441,70.0,60,52,0.0,101.0
442,51.0,60,225,1.0,86.0
443,63.0,0,225,0.0,101.0
444,55.0,0,105,1.0,86.0
445,58.0,120,105,1.0,86.0
446,64.0,120,105,0.0,101.0
447,58.0,120,105,1.0,86.0
448,53.0,0,105,1.0,86.0
449,65.0,0,225,0.0,127.0
450,61.0,0,105,1.0,86.0
451,68.0,90,13,0.0,101.0
452,58.0,0,105,1.0,86.0
453,53.0,0,105,1.0,86.0
454,49.0,120,345,1.0,86.0
455,61.0,120,105,1.0,86.0
456,67.0,0,105,0.0,101.0
457,70.0,15,13,0.0,101.0
458,68.0,0,105,0.0,101.0
459,67.0,0,52,0.0,101.0
460,61.0,0,105,1.0,86.0
461,46.0,15,225,1.0,86.0
462,53.0,120,105,1.0,86.0
463,56.0,0,105,1.0,86.0
464,68.0,60,52,0.0,101.0
465,72.0,0,52,0.0,101.0
466,51.0,0,105,1.0,86.0
467,61.0,0,105,1.0,86.0
468,55.0,60,105,1.0,86.0
469,70.0,60,52,0.0,101.0
470,62.0,0,52,0.0,101.0
471,60.0,120,105,1.0,86.0
472,56.0,0,105,1.0,86.0
473,65.0,60,52,0.0,101.0
474,63.0,60,52,0.0,101.0
475,51.0,60,345,1.0,86.0
476,56.0,0,105,1.0,86.0
477,60.0,0,105,1.0,86.0
478,68.0,60,52,0.0,101.0
479,51.0,120,105,1.0,86.0
480,56.0,0,105,1.0,86.0
481,39.0,60,345,1.0,86.0
482,51.0,120,105,1.0,86.0
483,60.0,0,345,0.0,127.0
484,56.0,0,105,1.0,86.0
485,55.0,120,52,0.0,101.0
486,39.0,0,105,1.0,86.0
487,61.0,60,52,0.0,101.0
488,63.0,0,52,0.0,101.0
489,55.0,0,105,1.0,86.0
490,61.0,60,105,1.0,86.0
491,51.0,0,105,1.0,86.0
492,67.0,60,52,0.0,101.0
493,73.0,60,52,0.0,101.0
494,63.0,0,105,1.0,86.0
495,58.0,0,105,1.0,86.0
496,55.0,0,105,1.0,86.0
497,77.0,60,52,0.0,101.0
498,51.0,0,105,1.0,86.0
499,67.0,120,105,1.0,86.0
500,73.0,45,240,0.0,101.0
501,77.0,15,225,0.0,101.0
502,61.0,0,105,1.0,86.0
503,63.0,0,105,1.0,86.0
504,75.0,90,13,0.0,101.0
505,61.0,120,105,1.0,86.0
506,63.0,0,105,1.0,86.0
507,73.0,0,105,0.0,101.0
508,67.0,0,105,1.0,86.0
509,77.0,15,13,0.0,101.0
510,75.0,0,105,0.0,101.0
511,72.0,15,105,0.0,101.0
512,44.0,0,105,1.0,86.0
513,71.0,0,52,0.0,101.0
514,74.0,0,52,0.0,101.0
515,68.0,0,105,1.0,86.0
516,63.0,120,105,1.0,86.0
517,75.0,60,52,0.0,101.0
518,72.0,0,52,0.0,101.0
519,73.0,0,52,0.0,101.0
520,77.0,0,52,0.0,101.0
521,68.0,60,105,1.0,86.0
522,63.0,0,105,1.0,86.0
523,75.0,60,52,0.0,101.0
524,72.0,0,52,0.0,101.0
525,44.0,60,105,1.0,86.0
526,60.0,120,105,1.0,86.0
527,72.0,0,225,0.0,127.0
528,56.0,0,105,1.0,86.0
529,51.0,0,105,1.0,86.0
530,80.0,0,225,0.0,127.0
531,60.0,0,105,1.0,86.0
532,51.0,0,105,1.0,86.0
533,56.0,0,105,1.0,86.0
534,67.0,120,105,0.0,101.0
535,61.0,0,105,1.0,86.0
536,58.0,120,105,1.0,86.0
537,53.0,0,105,1.0,86.0
538,65.0,0,225,0.0,127.0
539,68.0,90,13,0.0,101.0
540,67.0,0,105,0.0,101.0
541,58.0,0,105,1.0,86.0
542,53.0,120,105,1.0,86.0
543,49.0,120,345,1.0,86.0
544,61.0,0,105,1.0,86.0
545,70.0,15,13,0.0,101.0
546,68.0,0,105,0.0,101.0
547,67.0,0,52,0.0,101.0
548,61.0,0,105,1.0,86.0
549,46.0,15,225,1.0,86.0
550,53.0,0,105,1.0,86.0
551,56.0,120,105,1.0,86.0
552,68.0,60,52,0.0,101.0
553,72.0,0,52,0.0,101.0
554,55.0,0,105,1.0,86.0
555,61.0,60,105,1.0,86.0
556,51.0,0,105,1.0,86.0
557,70.0,60,52,0.0,101.0
558,62.0,120,52,0.0,101.0
559,56.0,0,105,1.0,86.0
560,51.0,0,105,1.0,86.0
561,60.0,0,105,1.0,86.0
562,65.0,60,52,0.0,101.0
563,63.0,0,52,0.0,101.0
564,44.0,60,345,1.0,86.0
565,51.0,60,105,1.0,86.0
566,56.0,0,105,1.0,86.0
567,60.0,0,105,1.0,86.0
568,68.0,60,52,0.0,101.0
569,53.0,0,105,1.0,86.0
570,50.0,120,105,1.0,86.0
571,60.0,0,345,0.0,127.0
572,44.0,60,345,1.0,86.0
573,53.0,0,105,1.0,86.0
574,50.0,120,105,1.0,86.0
575,55.0,120,52,0.0,101.0
576,43.0,0,105,1.0,86.0
577,60.0,60,52,0.0,101.0
578,63.0,60,52,0.0,101.0
579,60.0,0,105,1.0,86.0
580,55.0,0,105,1.0,86.0
581,51.0,0,105,1.0,86.0
582,67.0,60,52,0.0,101.0
583,72.0,0,78,0.0,101.0
584,60.0,0,105,1.0,86.0
585,55.0,0,105,1.0,86.0
586,51.0,60,105,1.0,86.0
587,75.0,90,26,0.0,101.0
588,43.0,0,105,1.0,86.0
589,55.0,120,105,1.0,86.0
590,67.0,15,240,0.0,101.0
591,67.0,0,105,1.0,86.0
592,59.0,0,105,1.0,86.0
593,75.0,15,225,0.0,101.0
594,59.0,0,105,1.0,86.0
595,55.0,0,105,1.0,86.0
596,67.0,0,105,1.0,86.0
597,48.0,120,105,1.0,86.0
598,74.0,0,315,0.0,101.0
599,65.0,120,315,0.0,101.0
600,67.0,0,105,1.0,86.0
601,60.0,0,105,1.0,86.0
602,55.0,120,105,1.0,86.0
603,72.0,0,26,0.0,101.0
604,63.0,90,26,0.0,101.0
605,67.0,30,105,1.0,86.0
606,60.0,0,105,1.0,86.0
607,55.0,0,105,1.0,86.0
608,48.0,120,105,1.0,86.0
609,63.0,0,315,0.0,101.0
610,72.0,0,315,0.0,101.0
611,60.0,0,105,1.0,86.0
612,55.0,120,105,1.0,86.0
613,67.0,0,105,1.0,86.0
614,63.0,0,26,0.0,101.0
615,72.0,90,26,0.0,101.0
616,63.0,0,105,0.0,127.0
617,67.0,0,105,1.0,86.0
618,60.0,0,105,1.0,86.0
619,55.0,30,105,1.0,86.0
620,72.0,0,225,0.0,127.0
621,56.0,0,105,1.0,86.0
622,65.0,0,105,0.0,101.0
623,58.0,120,105,1.0,86.0
624,68.0,90,13,0.0,101.0
625,56.0,120,105,1.0,86.0
626,67.0,0,105,0.0,101.0
627,58.0,0,105,1.0,86.0
628,49.0,120,345,1.0,86.0
629,70.0,15,13,0.0,101.0
630,68.0,0,105,0.0,101.0
631,67.0,0,52,0.0,101.0
632,46.0,15,225,1.0,86.0
633,53.0,0,105,1.0,86.0
634,56.0,0,105,1.0,86.0
635,61.0,120,105,1.0,86.0
636,68.0,60,52,0.0,101.0
637,72.0,0,52,0.0,101.0
638,51.0,0,105,1.0,86.0
639,61.0,0,105,1.0,86.0
640,55.0,60,105,1.0,86.0
641,70.0,60,52,0.0,101.0
642,62.0,0,52,0.0,101.0
643,56.0,0,105,1.0,86.0
644,60.0,120,105,1.0,86.0
645,65.0,60,52,0.0,101.0
646,63.0,0,52,0.0,101.0
647,60.0,0,105,1.0,86.0
648,56.0,60,105,1.0,86.0
649,51.0,60,345,1.0,86.0
650,68.0,60,52,0.0,101.0
651,51.0,0,105,1.0,86.0
652,56.0,120,105,1.0,86.0
653,60.0,60,345,0.0,127.0
654,51.0,0,105,1.0,86.0
655,39.0,0,345,1.0,86.0
656,56.0,120,105,1.0,86.0
657,55.0,0,52,0.0,101.0
658,39.0,120,105,1.0,86.0
659,61.0,60,52,0.0,101.0
660,63.0,0,52,0.0,101.0
661,51.0,0,105,1.0,86.0
662,55.0,60,105,1.0,86.0
663,61.0,0,105,1.0,86.0
664,67.0,60,52,0.0,101.0
665,73.0,60,52,0.0,101.0
666,63.0,0,105,1.0,86.0
667,55.0,0,105,1.0,86.0
668,58.0,0,105,1.0,86.0
669,77.0,60,52,0.0,101.0
670,51.0,15,105,1.0,86.0
671,61.0,0,105,1.0,86.0
672,63.0,0,105,1.0,86.0
673,67.0,120,105,1.0,86.0
674,77.0,0,225,0.0,101.0
675,73.0,45,240,0.0,101.0
676,75.0,90,13,0.0,101.0
677,61.0,0,105,1.0,86.0
678,63.0,0,105,1.0,86.0
679,67.0,120,105,1.0,86.0
680,73.0,0,105,0.0,101.0
681,77.0,15,13,0.0,101.0
682,72.0,0,105,0.0,101.0
683,75.0,15,105,0.0,101.0
684,44.0,0,105,1.0,86.0
685,74.0,0,52,0.0,101.0
686,71.0,120,52,0.0,101.0
687,68.0,0,105,1.0,86.0
688,63.0,0,105,1.0,86.0
689,72.0,0,52,0.0,101.0
690,75.0,60,52,0.0,101.0
691,73.0,0,52,0.0,101.0
692,77.0,0,52,0.0,101.0
693,68.0,0,105,1.0,86.0
694,63.0,60,105,1.0,86.0
695,75.0,60,52,0.0,101.0
696,72.0,0,52,0.0,101.0
697,44.0,0,105,1.0,86.0
698,51.0,0,105,1.0,86.0
699,72.0,0,225,0.0,127.0
700,80.0,60,225,0.0,127.0
701,56.0,120,105,1.0,86.0
702,60.0,0,105,1.0,86.0
703,60.0,120,105,1.0,86.0
704,56.0,0,105,1.0,86.0
705,51.0,0,105,1.0,86.0
706,67.0,0,105,0.0,101.0
707,53.0,0,105,1.0,86.0
708,65.0,0,225,0.0,127.0
709,58.0,0,105,1.0,86.0
710,61.0,120,105,1.0,86.0
711,68.0,90,13,0.0,101.0
712,61.0,0,105,1.0,86.0
713,49.0,120,345,1.0,86.0
714,58.0,0,105,1.0,86.0
715,67.0,120,105,0.0,101.0
716,53.0,0,105,1.0,86.0
717,70.0,15,13,0.0,101.0
718,68.0,0,105,0.0,101.0
719,67.0,0,52,0.0,101.0
720,53.0,120,105,1.0,86.0
721,46.0,15,225,1.0,86.0
722,56.0,0,105,1.0,86.0
723,61.0,0,105,1.0,86.0
724,68.0,60,52,0.0,101.0
725,72.0,0,52,0.0,101.0
726,61.0,0,105,1.0,86.0
727,55.0,60,105,1.0,86.0
728,51.0,0,105,1.0,86.0
729,70.0,60,52,0.0,101.0
730,62.0,0,52,0.0,101.0
731,51.0,0,105,1.0,86.0
732,56.0,0,105,1.0,86.0
733,60.0,120,105,1.0,86.0
734,65.0,60,52,0.0,101.0
735,63.0,0,52,0.0,101.0
736,60.0,60,105,1.0,86.0
737,44.0,60,345,1.0,86.0
738,51.0,0,105,1.0,86.0
739,56.0,0,105,1.0,86.0
740,68.0,60,52,0.0,101.0
741,51.0,0,105,1.0,86.0
742,56.0,120,105,1.0,86.0
743,60.0,0,345,0.0,127.0
744,39.0,60,345,1.0,86.0
745,51.0,0,105,1.0,86.0
746,56.0,120,105,1.0,86.0
747,62.0,0,52,0.0,101.0
748,56.0,0,105,1.0,86.0
749,58.0,120,105,1.0,86.0
750,63.0,60,52,0.0,101.0
751,65.0,60,52,0.0,101.0
752,56.0,0,105,1.0,86.0
753,58.0,0,105,1.0,86.0
754,51.0,120,345,1.0,86.0
755,67.0,60,52,0.0,101.0
756,65.0,0,13,0.0,101.0
757,67.0,15,13,0.0,101.0
758,65.0,15,13,0.0,101.0
759,67.0,15,13,0.0,101.0
760,65.0,15,13,0.0,101.0
761,67.0,15,13,0.0,101.0
762,65.0,15,13,0.0,101.0
763,67.0,15,13,0.0,101.0
764,64.0,0,52,0.0,101.0
765,62.0,15,105,1.0,86.0
766,56.0,0,105,1.0,86.0
767,58.0,0,105,1.0,86.0
768,65.0,60,52,0.0,101.0
769,67.0,0,52,0.0,101.0
770,51.0,60,345,1.0,86.0
771,56.0,60,105,1.0,86.0
772,58.0,0,105,1.0,86.0
773,62.0,0,105,1.0,86.0
774,68.0,60,52,0.0,101.0
775,68.0,60,13,0.0,101.0
776,70.0,15,13,0.0,101.0
777,68.0,15,13,0.0,101.0
778,70.0,15,13,0.0,101.0
779,68.0,15,13,0.0,101.0
780,70.0,15,13,0.0,101.0
781,68.0,15,13,0.0,101.0
782,70.0,15,13,0.0,101.0
783,67.0,15,52,0.0,101.0
784,63.0,0,105,1.0,86.0
785,61.0,0,105,1.0,86.0
786,68.0,60,52,0.0,101.0
787,70.0,0,52,0.0,101.0
788,63.0,60,105,1.0,86.0
789,61.0,0,105,1.0,86.0
790,51.0,0,345,1.0,86.0
791,72.0,60,52,0.0,101.0
792,60.0,0,105,1.0,86.0
793,51.0,0,105,1.0,86.0
794,68.0,0,225,0.0,101.0
795,44.0,60,225,1.0,86.0
796,56.0,120,105,1.0,86.0
797,52.0,0,105,1.0,86.0
798,56.0,0,225,1.0,86.0
799,72.0,120,225,0.0,101.0
800,60.0,0,225,1.0,86.0
801,73.0,0,52,0.0,101.0
802,60.0,0,105,1.0,86.0
803,56.0,120,105,1.0,86.0
804,72.0,60,52,0.0,101.0
805,70.0,60,52,0.0,101.0
806,60.0,0,105,1.0,86.0
807,56.0,0,105,1.0,86.0
808,53.0,120,345,1.0,86.0
809,68.0,60,52,0.0,101.0
810,67.0,0,165,0.0,101.0
811,56.0,120,105,1.0,86.0
812,60.0,0,105,1.0,86.0
813,53.0,0,105,1.0,86.0
814,65.0,60,52,0.0,101.0
815,51.0,60,345,1.0,86.0
816,53.0,60,105,1.0,86.0
817,56.0,0,105,1.0,86.0
818,65.0,0,105,0.0,127.0
819,60.0,0,105,1.0,86.0
820,77.0,0,105,0.0,101.0
821,70.0,120,52,0.0,101.0
822,49.0,120,225,1.0,86.0
823,72.0,60,52,0.0,101.0
824,75.0,0,52,0.0,101.0
825,72.0,15,13,0.0,101.0
826,73.0,15,13,0.0,101.0
827,46.0,60,105,1.0,86.0
828,53.0,0,225,1.0,86.0
829,58.0,0,225,1.0,86.0
830,75.0,15,13,0.0,101.0
831,41.0,15,105,1.0,86.0
832,73.0,0,165,0.0,101.0
833,60.0,0,105,1.0,86.0
834,68.0,120,105,1.0,86.0
835,72.0,60,52,0.0,101.0
836,72.0,60,105,0.0,127.0
837,60.0,0,105,1.0,86.0
838,68.0,0,105,1.0,86.0
839,71.0,0,52,0.0,101.0
840,72.0,60,52,0.0,101.0
841,75.0,45,13,0.0,101.0
842,73.0,0,52,0.0,101.0
843,67.0,0,105,1.0,86.0
844,58.0,15,105,1.0,86.0
845,60.0,0,105,1.0,86.0
846,72.0,60,52,0.0,101.0
847,77.0,0,52,0.0,101.0
848,58.0,60,105,1.0,86.0
849,60.0,0,105,1.0,86.0
850,67.0,0,105,1.0,86.0
851,52.0,120,345,1.0,86.0
852,79.0,60,52,0.0,101.0
853,80.0,0,52,0.0,101.0
854,68.0,60,52,0.0,101.0
855,76.0,0,52,0.0,101.0
856,56.0,0,105,1.0,86.0
857,53.0,60,225,1.0,86.0
858,65.0,60,105,1.0,86.0
859,60.0,0,105,1.0,86.0
860,79.0,60,52,0.0,101.0
861,77.0,60,52,0.0,101.0
862,44.0,0,105,1.0,86.0
863,65.0,60,52,0.0,101.0
864,72.0,0,52,0.0,101.0
865,75.0,60,52,0.0,101.0
866,73.0,0,52,0.0,101.0
867,61.0,0,105,1.0,86.0
868,46.0,60,225,1.0,86.0
869,55.0,0,105,1.0,86.0
870,53.0,60,105,1.0,86.0
871,61.0,60,52,0.0,101.0
872,72.0,60,52,0.0,101.0
873,34.0,0,105,1.0,86.0
874,70.0,60,52,0.0,101.0
875,67.0,60,52,0.0,101.0
876,36.0,0,105,1.0,86.0
877,72.0,60,52,0.0,101.0
878,71.0,0,52,0.0,101.0
879,48.0,60,105,1.0,86.0
880,55.0,0,105,1.0,86.0
881,64.0,0,105,1.0,86.0
882,72.0,60,52,0.0,101.0
883,73.0,60,52,0.0,101.0
884,74.0,60,52,0.0,101.0
885,75.0,0,105,0.0,101.0
886,77.0,120,52,0.0,101.0
887,60.0,0,105,1.0,86.0
888,63.0,0,105,1.0,86.0
889,75.0,60,52,0.0,101.0
890,73.0,0,52,0.0,101.0
891,63.0,60,105,1.0,86.0
892,60.0,0,105,1.0,86.0
893,56.0,60,345,1.0,86.0
894,72.0,60,52,0.0,101.0
895,70.0,60,165,0.0,101.0
896,60.0,0,105,1.0,86.0
897,56.0,0,105,1.0,86.0
898,63.0,120,105,1.0,86.0
899,68.0,60,52,0.0,101.0
900,63.0,0,105,1.0,86.0
901,55.0,0,345,1.0,86.0
902,60.0,0,105,1.0,86.0
903,68.0,60,105,0.0,127.0
904,56.0,0,105,1.0,86.0
905,80.0,0,105,0.0,101.0
906,72.0,120,52,0.0,101.0
907,63.0,0,105,1.0,86.0
908,60.0,0,105,1.0,86.0
909,56.0,0,105,1.0,86.0
910,75.0,60,52,0.0,101.0
911,79.0,0,52,0.0,101.0
912,56.0,60,105,1.0,86.0
913,60.0,0,105,1.0,86.0
914,53.0,120,345,1.0,86.0
915,63.0,0,105,1.0,86.0
916,77.0,60,52,0.0,101.0
917,46.0,60,105,1.0,86.0
918,75.0,0,165,0.0,101.0
919,56.0,120,105,1.0,86.0
920,58.0,0,105,1.0,86.0
921,65.0,0,105,1.0,86.0
922,74.0,60,52,0.0,101.0
923,56.0,0,105,1.0,86.0
924,58.0,0,105,1.0,86.0
925,65.0,0,105,1.0,86.0
926,74.0,60,105,0.0,101.0
927,46.0,120,105,1.0,86.0
928,84.0,0,165,0.0,101.0
929,62.0,0,105,1.0,86.0
930,58.0,0,105,1.0,86.0
931,56.0,120,105,1.0,86.0
932,82.0,60,52,0.0,101.0
933,81.0,0,52,0.0,101.0
934,56.0,60,105,1.0,86.0
935,62.0,0,105,1.0,86.0
936,58.0,0,105,1.0,86.0
937,80.0,60,52,0.0,101.0
938,80.0,0,52,0.0,101.0
939,46.0,60,105,1.0,86.0
940,79.0,60,52,0.0,101.0
941,77.0,60,52,0.0,101.0
942,63.0,0,105,1.0,86.0
943,58.0,0,105,1.0,86.0
944,55.0,0,105,1.0,86.0
945,75.0,60,52,0.0,101.0
946,74.0,60,52,0.0,101.0
947,63.0,0,105,1.0,86.0
948,58.0,0,105,1.0,86.0
949,55.0,0,105,1.0,86.0
950,72.0,60,52,0.0,101.0
951,72.0,0,52,0.0,101.0
952,46.0,60,105,1.0,86.0
953,70.0,60,52,0.0,101.0
954,69.0,0,52,0.0,101.0
955,65.0,0,105,1.0,86.0
956,58.0,60,105,1.0,86.0
957,56.0,0,105,1.0,86.0
958,70.0,60,52,0.0,101.0
959,74.0,45,13,0.0,101.0
960,72.0,15,52,0.0,101.0
961,56.0,0,105,1.0,86.0
962,58.0,0,105,1.0,86.0
963,65.0,0,105,1.0,86.0
964,70.0,60,52,0.0,101.0
965,72.0,60,52,0.0,101.0
966,46.0,0,105,1.0,86.0
967,70.0,60,52,0.0,101.0
968,69.0,60,52,0.0,101.0
969,58.0,0,105,1.0,86.0
970,63.0,0,105,1.0,86.0
971,55.0,0,105,1.0,86.0
972,70.0,60,52,0.0,101.0
973,74.0,45,13,0.0,101.0
974,72.0,0,52,0.0,101.0
975,58.0,0,105,1.0,86.0
976,55.0,15,105,1.0,86.0
977,63.0,0,105,1.0,86.0
978,70.0,60,52,0.0,101.0
979,70.0,60,105,0.0,101.0
980,46.0,0,105,1.0,86.0
981,84.0,0,52,0.0,101.0
982,58.0,0,105,1.0,86.0
983,56.0,120,105,1.0,86.0
984,62.0,0,105,1.0,86.0
985,82.0,60,52,0.0,101.0
986,81.0,0,52,0.0,101.0
987,56.0,60,105,1.0,86.0
988,58.0,0,105,1.0,86.0
989,62.0,0,105,1.0,86.0
990,80.0,60,52,0.0,101.0
991,78.0,0,52,0.0,101.0
992,51.0,60,105,1.0,86.0
993,79.0,60,52,0.0,101.0
994,74.0,0,52,0.0,101.0
995,63.0,60,105,1.0,86.0
996,58.0,0,105,1.0,86.0
997,67.0,0,105,1.0,86.0
998,75.0,60,52,0.0,101.0
999,63.0,0,52,0.0,101.0
1000,57.0,60,105,1.0,86.0
1001,63.0,0,105,1.0,86.0
1002,60.0,0,105,1.0,86.0
1003,72.0,60,52,0.0,101.0
1004,70.0,0,52,0.0,101.0
1005,46.0,60,105,1.0,86.0
1006,58.0,60,52,0.0,101.0
1007,67.0,60,52,0.0,101.0
1008,58.0,0,105,1.0,86.0
1009,63.0,0,105,1.0,86.0
1010,70.0,60,52,0.0,101.0
1011,65.0,0,52,0.0,101.0
1012,62.0,0,105,1.0,86.0
1013,56.0,60,105,1.0,86.0
1014,70.0,60,52,0.0,101.0
1015,51.0,60,225,1.0,86.0
1016,63.0,0,225,0.0,101.0
1017,55.0,0,105,1.0,86.0
1018,58.0,120,105,1.0,86.0
1019,64.0,120,105,0.0,101.0
1020,53.0,0,105,1.0,86.0
1021,58.0,0,105,1.0,86.0
1022,61.0,120,105,1.0,86.0
1023,65.0,120,225,0.0,127.0
1024,68.0,90,13,0.0,101.0
1025,53.0,0,105,1.0,86.0
1026,58.0,0,105,1.0,86.0
1027,67.0,0,105,0.0,101.0
1028,49.0,0,345,1.0,86.0
1029,61.0,120,105,1.0,86.0
1030,70.0,15,13,0.0,101.0
1031,68.0,15,105,0.0,101.0
1032,67.0,0,52,0.0,101.0
1033,61.0,120,105,1.0,86.0
1034,46.0,0,225,1.0,86.0
1035,56.0,0,105,1.0,86.0
1036,53.0,0,105,1.0,86.0
1037,68.0,60,52,0.0,101.0
1038,72.0,0,52,0.0,101.0
1039,51.0,0,105,1.0,86.0
1040,61.0,60,105,1.0,86.0
1041,55.0,0,105,1.0,86.0
1042,70.0,60,52,0.0,101.0
1043,62.0,0,52,0.0,101.0
1044,60.0,120,105,1.0,86.0
1045,56.0,0,105,1.0,86.0
1046,65.0,60,52,0.0,101.0
1047,63.0,60,52,0.0,101.0
1048,60.0,0,105,1.0,86.0
1049,56.0,0,105,1.0,86.0
1050,51.0,60,345,1.0,86.0
1051,68.0,60,52,0.0,101.0
1052,51.0,120,105,1.0,86.0
1053,56.0,0,105,1.0,86.0
1054,39.0,60,345,1.0,86.0
1055,60.0,0,345,0.0,127.0
1056,51.0,0,105,1.0,86.0
1057,56.0,120,105,1.0,86.0
1058,55.0,0,52,0.0,101.0
1059,39.0,120,105,1.0,86.0
1060,61.0,60,52,0.0,101.0
1061,63.0,60,52,0.0,101.0
1062,51.0,0,105,1.0,86.0
1063,61.0,0,105,1.0,86.0
1064,55.0,0,105,1.0,86.0
1065,67.0,60,52,0.0,101.0
1066,73.0,60,52,0.0,101.0
1067,55.0,0,105,1.0,86.0
1068,63.0,0,105,1.0,86.0
1069,58.0,0,105,1.0,86.0
1070,77.0,60,52,0.0,101.0
1071,51.0,15,105,1.0,86.0
1072,67.0,0,105,1.0,86.0
1073,77.0,0,225,0.0,101.0
1074,73.0,45,240,0.0,101.0
1075,63.0,0,105,1.0,86.0
1076,61.0,120,105,1.0,86.0
1077,75.0,90,13,0.0,101.0
1078,61.0,0,105,1.0,86.0
1079,63.0,0,105,1.0,86.0
1080,67.0,120,105,1.0,86.0
1081,73.0,0,105,0.0,101.0
1082,77.0,15,13,0.0,101.0
1083,75.0,0,105,0.0,101.0
1084,44.0,15,105,1.0,86.0
1085,72.0,0,105,0.0,101.0
1086,74.0,0,52,0.0,101.0
1087,71.0,120,52,0.0,101.0
1088,63.0,0,105,1.0,86.0
1089,68.0,0,105,1.0,86.0
1090,72.0,0,52,0.0,101.0
1091,75.0,60,52,0.0,101.0
1092,77.0,0,52,0.0,101.0
1093,73.0,0,52,0.0,101.0
1094,63.0,60,105,1.0,86.0
1095,68.0,0,105,1.0,86.0
1096,75.0,60,52,0.0,101.0
1097,72.0,0,52,0.0,101.0
1098,44.0,0,105,1.0,86.0
1099,56.0,0,105,1.0,86.0
1100,60.0,120,105,1.0,86.0
1101,72.0,0,225,0.0,127.0
1102,80.0,60,225,0.0,127.0
1103,51.0,0,105,1.0,86.0
1104,60.0,0,105,1.0,86.0
1105,67.0,0,105,0.0,101.0
1106,56.0,0,105,1.0,86.0
1107,51.0,120,105,1.0,86.0
1108,65.0,120,225,0.0,127.0
1109,61.0,0,105,1.0,86.0
1110,53.0,120,105,1.0,86.0
1111,58.0,0,105,1.0,86.0
1112,68.0,90,13,0.0,101.0
1113,53.0,0,105,1.0,86.0
1114,67.0,0,105,0.0,101.0
1115,58.0,120,105,1.0,86.0
1116,61.0,0,105,1.0,86.0
1117,49.0,0,345,1.0,86.0
1118,70.0,15,13,0.0,101.0
1119,68.0,0,105,0.0,101.0
1120,67.0,0,52,0.0,101.0
1121,46.0,15,225,1.0,86.0
1122,61.0,120,105,1.0,86.0
1123,56.0,0,105,1.0,86.0
1124,53.0,0,105,1.0,86.0
1125,68.0,60,52,0.0,101.0
1126,72.0,60,52,0.0,101.0
1127,51.0,0,105,1.0,86.0
1128,61.0,0,105,1.0,86.0
1129,55.0,0,105,1.0,86.0
1130,70.0,60,52,0.0,101.0
1131,62.0,120,52,0.0,101.0
1132,51.0,0,105,1.0,86.0
1133,56.0,0,105,1.0,86.0
1134,60.0,0,105,1.0,86.0
1135,65.0,60,52,0.0,101.0
1136,63.0,0,52,0.0,101.0
1137,51.0,60,105,1.0,86.0
1138,56.0,0,105,1.0,86.0
1139,44.0,60,345,1.0,86.0
1140,60.0,0,105,1.0,86.0
1141,68.0,60,52,0.0,101.0
1142,50.0,120,105,1.0,86.0
1143,53.0,0,105,1.0,86.0
1144,53.0,120,105,1.0,86.0
1145,50.0,0,105,1.0,86.0
1146,44.0,0,345,1.0,86.0
1147,60.0,60,345,0.0,127.0
1148,55.0,0,52,0.0,101.0
1149,43.0,120,105,1.0,86.0
1150,60.0,60,52,0.0,101.0
1151,63.0,0,52,0.0,101.0
1152,60.0,0,105,1.0,86.0
1153,55.0,0,105,1.0,86.0
1154,51.0,60,105,1.0,86.0
1155,67.0,60,52,0.0,101.0
1156,72.0,0,78,0.0,101.0
1157,55.0,0,105,1.0,86.0
1158,60.0,60,105,1.0,86.0
1159,51.0,0,105,1.0,86.0
1160,75.0,90,26,0.0,101.0
1161,43.0,0,105,1.0,86.0
1162,75.0,15,225,0.0,101.0
1163,67.0,15,240,0.0,101.0
1164,67.0,120,105,1.0,86.0
1165,59.0,0,105,1.0,86.0
1166,55.0,0,105,1.0,86.0
1167,67.0,0,105,1.0,86.0
1168,59.0,0,105,1.0,86.0
1169,55.0,0,105,1.0,86.0
1170,48.0,120,105,1.0,86.0
1171,65.0,0,315,0.0,101.0
1172,74.0,120,315,0.0,101.0
1173,60.0,120,105,1.0,86.0
1174,55.0,0,105,1.0,86.0
1175,67.0,0,105,1.0,86.0
1176,63.0,0,26,0.0,101.0
1177,72.0,90,26,0.0,101.0
1178,67.0,0,105,1.0,86.0
1179,55.0,0,105,1.0,86.0
1180,60.0,0,105,1.0,86.0
1181,48.0,120,105,1.0,86.0
1182,63.0,0,315,0.0,127.0
1183,72.0,30,315,0.0,127.0
1184,60.0,120,105,1.0,86.0
1185,67.0,0,105,1.0,86.0
1186,55.0,0,105,1.0,86.0
1187,72.0,0,26,0.0,101.0
1188,63.0,90,26,0.0,101.0
1189,60.0,0,105,1.0,86.0
1190,55.0,0,105,1.0,86.0
1191,67.0,0,105,1.0,86.0
1192,63.0,0,105,0.0,101.0
1193,72.0,30,225,0.0,101.0
1194,65.0,120,105,0.0,127.0
1195,58.0,0,105,1.0,86.0
1196,56.0,0,105,1.0,86.0
1197,68.0,90,13,0.0,101.0
1198,58.0,0,105,1.0,86.0
1199,56.0,120,105,1.0,86.0
1200,49.0,120,345,1.0,86.0
1201,67.0,0,105,0.0,127.0
1202,70.0,15,13,0.0,101.0
1203,68.0,0,105,0.0,101.0
1204,67.0,120,52,0.0,101.0
1205,61.0,0,105,1.0,86.0
1206,46.0,15,225,1.0,86.0
1207,53.0,0,105,1.0,86.0
1208,56.0,0,105,1.0,86.0
1209,68.0,60,52,0.0,101.0
1210,72.0,60,52,0.0,101.0
1211,51.0,0,105,1.0,86.0
1212,61.0,0,105,1.0,86.0
1213,55.0,0,105,1.0,86.0
1214,70.0,60,52,0.0,101.0
1215,62.0,0,52,0.0,101.0
1216,60.0,120,105,1.0,86.0
1217,56.0,0,105,1.0,86.0
1218,65.0,60,52,0.0,101.0
1219,63.0,0,52,0.0,101.0
1220,60.0,0,105,1.0,86.0
1221,56.0,60,105,1.0,86.0
1222,51.0,60,345,1.0,86.0
1223,68.0,60,52,0.0,101.0
1224,56.0,0,105,1.0,86.0
1225,51.0,120,105,1.0,86.0
1226,60.0,60,345,0.0,127.0
1227,51.0,120,105,1.0,86.0
1228,56.0,0,105,1.0,86.0
1229,39.0,0,345,1.0,86.0
1230,55.0,0,52,0.0,101.0
1231,39.0,120,105,1.0,86.0
1232,61.0,60,52,0.0,101.0
1233,63.0,0,52,0.0,101.0
1234,61.0,0,105,1.0,86.0
1235,55.0,60,105,1.0,86.0
1236,51.0,0,105,1.0,86.0
1237,67.0,60,52,0.0,101.0
1238,73.0,0,52,0.0,101.0
1239,63.0,0,105,1.0,86.0
1240,55.0,0,105,1.0,86.0
1241,58.0,60,105,1.0,86.0
1242,77.0,60,52,0.0,101.0
1243,73.0,45,13,0.0,101.0
1244,51.0,0,105,1.0,86.0
1245,73.0,15,225,0.0,101.0
1246,61.0,0,105,1.0,86.0
1247,63.0,120,105,1.0,86.0
1248,67.0,0,105,1.0,86.0
1249,77.0,0,225,0.0,101.0
1250,75.0,90,13,0.0,101.0
1251,67.0,0,105,1.0,86.0
1252,73.0,120,105,0.0,101.0
1253,63.0,0,105,1.0,86.0
1254,61.0,0,105,1.0,86.0
1255,77.0,15,13,0.0,101.0
1256,72.0,0,105,0.0,101.0
1257,44.0,15,105,1.0,86.0
1258,75.0,0,105,0.0,101.0
1259,71.0,0,52,0.0,101.0
1260,74.0,0,52,0.0,101.0
1261,63.0,120,105,1.0,86.0
1262,68.0,0,105,1.0,86.0
1263,75.0,0,52,0.0,101.0
1264,72.0,60,52,0.0,101.0
1265,77.0,0,52,0.0,101.0
1266,73.0,60,52,0.0,101.0
1267,68.0,0,105,1.0,86.0
1268,63.0,0,105,1.0,86.0
1269,75.0,0,52,0.0,101.0
1270,72.0,60,52,0.0,101.0
1271,44.0,0,105,1.0,86.0
1272,51.0,120,105,1.0,86.0
1273,56.0,0,105,1.0,86.0
1274,60.0,0,105,1.0,86.0
1275,72.0,60,225,0.0,127.0
1276,80.0,0,225,0.0,127.0
1277,60.0,0,105,1.0,86.0
1278,51.0,0,105,1.0,86.0
1279,56.0,120,105,1.0,86.0
1280,67.0,0,105,0.0,101.0
1281,65.0,120,225,0.0,127.0
1282,61.0,0,105,1.0,86.0
1283,58.0,120,105,1.0,86.0
1284,53.0,0,105,1.0,86.0
1285,68.0,90,13,0.0,101.0
1286,58.0,0,105,1.0,86.0
1287,53.0,0,105,1.0,86.0
1288,49.0,0,345,1.0,86.0
1289,67.0,120,105,0.0,101.0
1290,61.0,0,105,1.0,86.0
1291,70.0,15,13,0.0,101.0
1292,68.0,15,105,0.0,101.0
1293,67.0,0,52,0.0,101.0
1294,61.0,120,105,1.0,86.0
1295,53.0,0,105,1.0,86.0
1296,46.0,0,225,1.0,86.0
1297,56.0,0,105,1.0,86.0
1298,68.0,60,52,0.0,101.0
1299,72.0,0,52,0.0,101.0
1300,61.0,0,105,1.0,86.0
1301,51.0,0,105,1.0,86.0
1302,55.0,60,105,1.0,86.0
1303,70.0,60,52,0.0,101.0
1304,62.0,120,52,0.0,101.0
1305,56.0,0,105,1.0,86.0
1306,51.0,0,105,1.0,86.0
1307,60.0,0,105,1.0,86.0
1308,65.0,60,52,0.0,101.0
1309,63.0,0,52,0.0,101.0
1310,60.0,0,105,1.0,86.0
1311,44.0,60,345,1.0,86.0
1312,51.0,60,105,1.0,86.0
1313,56.0,0,105,1.0,86.0
1314,68.0,60,52,0.0,101.0
1315,51.0,120,105,1.0,86.0
1316,56.0,0,105,1.0,86.0
1317,56.0,120,105,1.0,86.0
1318,39.0,60,345,1.0,86.0
1319,60.0,0,345,0.0,127.0
1320,51.0,0,105,1.0,86.0
1321,62.0,0,52,0.0,101.0
1322,58.0,120,105,1.0,86.0
1323,56.0,0,105,1.0,86.0
1324,63.0,60,52,0.0,101.0
1325,65.0,0,52,0.0,101.0
1326,51.0,120,345,1.0,86.0
1327,56.0,60,105,1.0,86.0
1328,58.0,0,105,1.0,86.0
1329,67.0,60,52,0.0,101.0
1330,65.0,60,13,0.0,101.0
1331,67.0,15,13,0.0,101.0
1332,65.0,15,13,0.0,101.0
1333,67.0,15,13,0.0,101.0
1334,65.0,15,13,0.0,101.0
1335,67.0,15,13,0.0,101.0
1336,65.0,15,13,0.0,101.0
1337,67.0,15,13,0.0,101.0
1338,64.0,0,52,0.0,101.0
1339,62.0,0,105,1.0,86.0
1340,56.0,0,105,1.0,86.0
1341,58.0,15,105,1.0,86.0
1342,65.0,60,52,0.0,101.0
1343,67.0,0,52,0.0,101.0
1344,56.0,0,105,1.0,86.0
1345,51.0,0,345,1.0,86.0
1346,58.0,60,105,1.0,86.0
1347,62.0,0,105,1.0,86.0
1348,68.0,60,52,0.0,101.0
1349,68.0,60,13,0.0,101.0
1350,70.0,15,13,0.0,101.0
1351,68.0,15,13,0.0,101.0
1352,70.0,15,13,0.0,101.0
1353,68.0,15,13,0.0,101.0
1354,70.0,15,13,0.0,101.0
1355,68.0,15,13,0.0,101.0
1356,70.0,15,13,0.0,101.0
1357,67.0,0,52,0.0,101.0
1358,61.0,0,105,1.0,86.0
1359,63.0,15,105,1.0,86.0
1360,68.0,60,52,0.0,101.0
1361,70.0,0,52,0.0,101.0
1362,63.0,60,105,1.0,86.0
1363,61.0,0,105,1.0,86.0
1364,51.0,0,345,1.0,86.0
1365,72.0,60,52,0.0,101.0
1366,68.0,60,225,0.0,101.0
1367,60.0,0,105,1.0,86.0
1368,44.0,0,225,1.0,86.0
1369,51.0,120,105,1.0,86.0
