tick,type,numerator,denominator,clocks_per_click,notated_32nd_notes_per_beat,time,meta,track,tempo,program,channel,control,value,note,velocity
0,time_signature,1,4,24,8,0,1,0,,,,,,,
0,set_tempo,,,,,0,1,0,500000,,,,,,
0,program_change,,,,,0,0,0,,0,0,,,,
0,control_change,,,,,0,0,0,,,0,7,127,,
0,control_change,,,,,0,0,0,,,0,10,76,,
0,program_change,,,,,0,0,0,,0,1,,,,
0,control_change,,,,,0,0,0,,,1,7,127,,
0,control_change,,,,,0,0,0,,,1,10,75,,
0,program_change,,,,,0,0,0,,0,2,,,,
0,control_change,,,,,0,0,0,,,2,7,127,,
0,control_change,,,,,0,0,0,,,2,10,74,,
0,program_change,,,,,0,0,0,,0,3,,,,
0,control_change,,,,,0,0,0,,,3,7,127,,
0,control_change,,,,,0,0,0,,,3,10,66,,
0,program_change,,,,,0,0,0,,0,4,,,,
0,control_change,,,,,0,0,0,,,4,7,127,,
0,control_change,,,,,0,0,0,,,4,10,58,,
108,marker,,,,,108,1,0,,,,,,,
120,control_change,,,,,12,0,0,,,0,32,0,,
120,control_change,,,,,0,0,0,,,0,10,77,,
120,control_change,,,,,0,0,0,,,0,7,127,,
120,control_change,,,,,0,0,0,,,0,91,91,,
120,control_change,,,,,0,0,0,,,0,64,0,,
120,control_change,,,,,0,0,0,,,0,93,28,,
120,control_change,,,,,0,0,0,,,0,0,0,,
360,control_change,,,,,240,0,0,,,1,32,0,,
360,control_change,,,,,0,0,0,,,1,10,76,,
360,control_change,,,,,0,0,0,,,1,7,127,,
360,control_change,,,,,0,0,0,,,1,91,91,,
360,control_change,,,,,0,0,0,,,1,64,0,,
360,control_change,,,,,0,0,0,,,1,93,28,,
360,control_change,,,,,0,0,0,,,1,0,0,,
636,control_change,,,,,276,0,0,,,2,32,0,,
636,control_change,,,,,0,0,0,,,2,10,75,,
636,control_change,,,,,0,0,0,,,2,93,28,,
636,control_change,,,,,0,0,0,,,2,64,0,,
636,control_change,,,,,0,0,0,,,2,91,91,,
636,control_change,,,,,0,0,0,,,2,7,127,,
636,control_change,,,,,0,0,0,,,2,0,0,,
888,control_change,,,,,252,0,0,,,3,32,0,,
888,control_change,,,,,0,0,0,,,3,10,67,,
888,control_change,,,,,0,0,0,,,3,93,28,,
888,control_change,,,,,0,0,0,,,3,64,0,,
888,control_change,,,,,0,0,0,,,3,91,91,,
888,control_change,,,,,0,0,0,,,3,7,127,,
888,control_change,,,,,0,0,0,,,3,0,0,,
1116,control_change,,,,,228,0,0,,,4,32,0,,
1116,control_change,,,,,0,0,0,,,4,10,58,,
1116,control_change,,,,,0,0,0,,,4,93,28,,
1116,control_change,,,,,0,0,0,,,4,91,91,,
1116,control_change,,,,,0,0,0,,,4,64,0,,
1116,control_change,,,,,0,0,0,,,4,7,127,,
1116,control_change,,,,,0,0,0,,,4,0,0,,
2075,note_on,,,,,959,0,0,,,4,,,50,127
2075,note_on,,,,,0,0,0,,,4,,,62,127
2076,note_on,,,,,1,0,0,,,4,,,38,127
2085,note_on,,,,,9,0,0,,,4,,,66,127
2099,note_on,,,,,14,0,0,,,2,,,69,127
2112,note_on,,,,,13,0,0,,,2,,,74,127
2400,note_off,,,,,288,0,0,,,4,,,62,64
2411,note_off,,,,,11,0,0,,,4,,,66,64
2421,note_off,,,,,10,0,0,,,2,,,69,64
2432,note_off,,,,,11,0,0,,,2,,,74,64
2446,note_off,,,,,14,0,0,,,4,,,50,64
2447,note_on,,,,,1,0,0,,,2,,,67,127
2447,note_on,,,,,0,0,0,,,4,,,55,127
2491,note_on,,,,,44,0,0,,,4,,,66,127
2492,note_on,,,,,1,0,0,,,4,,,54,127
2496,note_off,,,,,4,0,0,,,4,,,55,64
2496,note_off,,,,,0,0,0,,,2,,,67,64
2535,note_on,,,,,39,0,0,,,4,,,64,127
2536,note_on,,,,,1,0,0,,,4,,,52,127
2540,note_off,,,,,4,0,0,,,4,,,54,64
2541,note_off,,,,,1,0,0,,,4,,,66,64
2581,note_on,,,,,40,0,0,,,4,,,62,127
2582,note_on,,,,,1,0,0,,,4,,,50,127
2586,note_off,,,,,4,0,0,,,4,,,52,64
2587,note_off,,,,,1,0,0,,,4,,,64,64
2628,note_on,,,,,41,0,0,,,4,,,55,127
2628,note_on,,,,,0,0,0,,,2,,,67,127
2632,note_off,,,,,4,0,0,,,4,,,50,64
2633,note_off,,,,,1,0,0,,,4,,,62,64
2674,note_on,,,,,41,0,0,,,4,,,66,127
2674,note_on,,,,,0,0,0,,,4,,,54,127
2678,note_off,,,,,4,0,0,,,4,,,55,64
2679,note_off,,,,,1,0,0,,,2,,,67,64
2714,note_on,,,,,35,0,0,,,4,,,64,127
2714,note_on,,,,,0,0,0,,,4,,,52,127
2721,note_off,,,,,7,0,0,,,4,,,54,64
2721,note_off,,,,,0,0,0,,,4,,,66,64
2762,note_on,,,,,41,0,0,,,4,,,62,127
2762,note_on,,,,,0,0,0,,,4,,,50,127
2767,note_off,,,,,5,0,0,,,4,,,52,64
2767,note_off,,,,,0,0,0,,,4,,,64,64
2810,note_on,,,,,43,0,0,,,4,,,57,127
2810,note_on,,,,,0,0,0,,,2,,,69,127
2815,note_off,,,,,5,0,0,,,4,,,50,64
2815,note_off,,,,,0,0,0,,,4,,,62,64
2985,note_off,,,,,170,0,0,,,2,,,69,64
2985,note_off,,,,,0,0,0,,,4,,,57,64
2993,note_on,,,,,8,0,0,,,4,,,66,127
2994,note_on,,,,,1,0,0,,,4,,,54,127
3169,note_off,,,,,175,0,0,,,4,,,66,64
3169,note_off,,,,,0,0,0,,,4,,,54,64
3178,note_on,,,,,9,0,0,,,4,,,59,127
3178,note_on,,,,,0,0,0,,,2,,,71,127
3422,note_off,,,,,244,0,0,,,4,,,59,64
3423,note_off,,,,,1,0,0,,,2,,,71,64
3452,note_on,,,,,29,0,0,,,4,,,66,127
3453,note_on,,,,,1,0,0,,,4,,,54,127
3547,note_off,,,,,94,0,0,,,4,,,54,64
3548,note_off,,,,,1,0,0,,,4,,,66,64
3548,note_on,,,,,0,0,0,,,2,,,67,127
3549,note_on,,,,,1,0,0,,,4,,,55,127
3640,note_off,,,,,91,0,0,,,4,,,55,64
3641,note_off,,,,,1,0,0,,,2,,,67,64
3641,note_on,,,,,0,0,0,,,4,,,64,126
3642,note_on,,,,,1,0,0,,,4,,,52,127
3732,note_off,,,,,90,0,0,,,4,,,52,64
3733,note_off,,,,,1,0,0,,,4,,,64,64
3733,note_on,,,,,0,0,0,,,2,,,69,127
3734,note_on,,,,,1,0,0,,,4,,,57,127
3823,note_off,,,,,89,0,0,,,4,,,57,64
3823,note_off,,,,,0,0,0,,,2,,,69,64
3824,note_on,,,,,1,0,0,,,4,,,54,127
3824,note_on,,,,,0,0,0,,,4,,,66,127
3909,note_off,,,,,85,0,0,,,4,,,54,64
3910,note_off,,,,,1,0,0,,,4,,,66,64
3910,note_on,,,,,0,0,0,,,4,,,62,127
3911,note_on,,,,,1,0,0,,,4,,,50,127
3988,note_off,,,,,77,0,0,,,4,,,38,64
4006,note_off,,,,,18,0,0,,,4,,,50,64
4006,note_off,,,,,0,0,0,,,4,,,62,64
4007,note_on,,,,,1,0,0,,,4,,,47,127
4007,note_on,,,,,0,0,0,,,4,,,59,127
4098,note_off,,,,,91,0,0,,,4,,,59,64
4098,note_off,,,,,0,0,0,,,4,,,47,64
4099,note_on,,,,,1,0,0,,,4,,,64,126
4099,note_on,,,,,0,0,0,,,4,,,52,127
4188,note_off,,,,,89,0,0,,,4,,,52,64
4188,note_off,,,,,0,0,0,,,4,,,64,64
4188,note_on,,,,,0,0,0,,,4,,,61,127
4189,note_on,,,,,1,0,0,,,4,,,49,127
4284,note_off,,,,,95,0,0,,,4,,,49,64
4284,note_off,,,,,0,0,0,,,4,,,61,64
4284,note_on,,,,,0,0,0,,,4,,,57,127
4285,note_on,,,,,1,0,0,,,4,,,45,124
4353,note_off,,,,,68,0,0,,,4,,,57,64
4376,note_on,,,,,23,0,0,,,4,,,57,127
4438,note_off,,,,,62,0,0,,,4,,,45,64
4468,note_on,,,,,30,0,0,,,4,,,45,124
4532,note_off,,,,,64,0,0,,,4,,,57,64
4562,note_on,,,,,30,0,0,,,4,,,57,127
4624,note_off,,,,,62,0,0,,,4,,,45,64
4655,note_on,,,,,31,0,0,,,4,,,45,124
4718,note_off,,,,,63,0,0,,,4,,,57,64
4749,note_on,,,,,31,0,0,,,4,,,66,127
4749,note_on,,,,,0,0,0,,,2,,,74,127
4750,note_on,,,,,1,0,0,,,4,,,57,127
4805,note_off,,,,,55,0,0,,,4,,,45,64
4821,note_off,,,,,16,0,0,,,2,,,74,64
4821,note_off,,,,,0,0,0,,,4,,,66,64
4837,note_on,,,,,16,0,0,,,2,,,74,127
4837,note_on,,,,,0,0,0,,,4,,,66,127
4838,note_on,,,,,1,0,0,,,4,,,45,124
4896,note_off,,,,,58,0,0,,,4,,,57,64
4908,marker,,,,,12,1,0,,,,,,,
4919,note_off,,,,,11,0,0,,,4,,,66,64
4919,note_off,,,,,0,0,0,,,2,,,74,64
4925,note_on,,,,,6,0,0,,,2,,,74,127
4926,note_on,,,,,1,0,0,,,4,,,57,127
4926,note_on,,,,,0,0,0,,,4,,,66,127
4984,note_off,,,,,58,0,0,,,4,,,45,64
5007,note_off,,,,,23,0,0,,,4,,,66,64
5007,note_off,,,,,0,0,0,,,2,,,74,64
5014,note_on,,,,,7,0,0,,,4,,,66,127
5014,note_on,,,,,0,0,0,,,2,,,74,127
5015,note_on,,,,,1,0,0,,,4,,,45,124
5072,note_off,,,,,57,0,0,,,4,,,57,64
5088,note_off,,,,,16,0,0,,,2,,,74,64
5088,note_off,,,,,0,0,0,,,4,,,66,64
5102,note_on,,,,,14,0,0,,,2,,,73,127
5102,note_on,,,,,0,0,0,,,4,,,64,126
5103,note_on,,,,,1,0,0,,,4,,,57,127
5164,note_off,,,,,61,0,0,,,4,,,45,64
5180,note_off,,,,,16,0,0,,,4,,,64,64
5180,note_off,,,,,0,0,0,,,2,,,73,64
5194,note_on,,,,,14,0,0,,,2,,,73,127
5195,note_on,,,,,1,0,0,,,4,,,45,124
5195,note_on,,,,,0,0,0,,,4,,,64,126
5256,note_off,,,,,61,0,0,,,4,,,57,64
5287,note_on,,,,,31,0,0,,,4,,,57,127
5349,note_off,,,,,62,0,0,,,4,,,45,64
5379,note_on,,,,,30,0,0,,,4,,,45,124
5441,note_off,,,,,62,0,0,,,4,,,57,64
5441,note_off,,,,,0,0,0,,,4,,,64,64
5442,note_off,,,,,1,0,0,,,2,,,73,64
5469,note_on,,,,,27,0,0,,,2,,,74,127
5469,note_on,,,,,0,0,0,,,1,,,78,124
5470,note_on,,,,,1,0,0,,,4,,,57,127
5529,note_off,,,,,59,0,0,,,4,,,45,64
5544,note_off,,,,,15,0,0,,,2,,,74,64
5545,note_off,,,,,1,0,0,,,1,,,78,64
5559,note_on,,,,,14,0,0,,,1,,,78,124
5559,note_on,,,,,0,0,0,,,2,,,74,127
5560,note_on,,,,,1,0,0,,,4,,,45,124
5617,note_off,,,,,57,0,0,,,4,,,57,64
5639,note_off,,,,,22,0,0,,,2,,,74,64
5639,note_off,,,,,0,0,0,,,1,,,78,64
5647,note_on,,,,,8,0,0,,,1,,,78,124
5648,note_on,,,,,1,0,0,,,4,,,57,127
5648,note_on,,,,,0,0,0,,,2,,,74,127
5706,note_off,,,,,58,0,0,,,4,,,45,64
5727,note_off,,,,,21,0,0,,,2,,,74,64
5727,note_off,,,,,0,0,0,,,1,,,78,64
5734,note_on,,,,,7,0,0,,,2,,,74,127
5734,note_on,,,,,0,0,0,,,1,,,78,124
5735,note_on,,,,,1,0,0,,,4,,,45,124
5792,note_off,,,,,57,0,0,,,4,,,57,64
5808,note_off,,,,,16,0,0,,,1,,,78,64
5808,note_off,,,,,0,0,0,,,2,,,74,64
5822,note_on,,,,,14,0,0,,,2,,,76,127
5822,note_on,,,,,0,0,0,,,2,,,73,127
5823,note_on,,,,,1,0,0,,,4,,,57,127
5878,note_off,,,,,55,0,0,,,4,,,45,64
5893,note_off,,,,,15,0,0,,,2,,,73,64
5893,note_off,,,,,0,0,0,,,2,,,76,64
5907,note_on,,,,,14,0,0,,,2,,,76,127
5908,note_on,,,,,1,0,0,,,4,,,45,124
5908,note_on,,,,,0,0,0,,,2,,,73,127
5968,note_off,,,,,60,0,0,,,4,,,57,64
5999,note_on,,,,,31,0,0,,,4,,,57,127
6060,note_off,,,,,61,0,0,,,4,,,45,64
6091,note_on,,,,,31,0,0,,,4,,,45,124
6150,note_off,,,,,59,0,0,,,4,,,57,64
6151,note_off,,,,,1,0,0,,,2,,,76,64
6151,note_off,,,,,0,0,0,,,2,,,73,64
6182,note_on,,,,,31,0,0,,,1,,,78,124
6182,note_on,,,,,0,0,0,,,1,,,81,124
6183,note_on,,,,,1,0,0,,,4,,,57,127
6242,note_off,,,,,59,0,0,,,4,,,45,64
6258,note_off,,,,,16,0,0,,,1,,,81,64
6258,note_off,,,,,0,0,0,,,1,,,78,64
6272,note_on,,,,,14,0,0,,,1,,,81,124
6273,note_on,,,,,1,0,0,,,1,,,78,124
6273,note_on,,,,,0,0,0,,,4,,,45,124
6333,note_off,,,,,60,0,0,,,4,,,57,64
6356,note_off,,,,,23,0,0,,,1,,,78,64
6356,note_off,,,,,0,0,0,,,1,,,81,64
6363,note_on,,,,,7,0,0,,,4,,,57,127
6363,note_on,,,,,0,0,0,,,1,,,81,124
6363,note_on,,,,,0,0,0,,,1,,,78,124
6425,note_off,,,,,62,0,0,,,4,,,45,64
6450,note_off,,,,,25,0,0,,,1,,,78,64
6451,note_off,,,,,1,0,0,,,1,,,81,64
6455,note_on,,,,,4,0,0,,,1,,,79,124
6457,note_on,,,,,2,0,0,,,4,,,45,124
6500,note_on,,,,,43,0,0,,,1,,,78,124
6508,note_off,,,,,8,0,0,,,1,,,79,64
6546,note_on,,,,,38,0,0,,,1,,,79,124
6550,note_off,,,,,4,0,0,,,1,,,78,64
6588,note_on,,,,,38,0,0,,,1,,,81,124
6594,note_off,,,,,6,0,0,,,1,,,79,64
6629,note_on,,,,,35,0,0,,,1,,,83,124
6636,note_off,,,,,7,0,0,,,1,,,81,64
6671,note_on,,,,,35,0,0,,,1,,,81,124
6679,note_off,,,,,8,0,0,,,1,,,83,64
6711,note_on,,,,,32,0,0,,,1,,,79,124
6719,note_off,,,,,8,0,0,,,1,,,81,64
6754,note_on,,,,,35,0,0,,,1,,,78,124
6761,note_off,,,,,7,0,0,,,1,,,79,64
6794,note_on,,,,,33,0,0,,,2,,,76,127
6804,note_off,,,,,10,0,0,,,1,,,78,64
6840,note_on,,,,,36,0,0,,,2,,,75,127
6846,note_off,,,,,6,0,0,,,2,,,76,64
6886,note_on,,,,,40,0,0,,,2,,,76,127
6890,note_off,,,,,4,0,0,,,2,,,75,64
6922,note_on,,,,,32,0,0,,,1,,,78,124
6934,note_off,,,,,12,0,0,,,2,,,76,64
6959,note_on,,,,,25,0,0,,,1,,,79,124
6969,note_off,,,,,10,0,0,,,1,,,78,64
7005,note_off,,,,,36,0,0,,,1,,,79,64
7005,note_on,,,,,0,0,0,,,1,,,78,124
7044,note_on,,,,,39,0,0,,,2,,,76,127
7051,note_off,,,,,7,0,0,,,1,,,78,64
7088,note_on,,,,,37,0,0,,,2,,,74,127
7093,note_off,,,,,5,0,0,,,2,,,76,64
7130,note_on,,,,,37,0,0,,,2,,,73,127
7130,note_on,,,,,0,0,0,,,4,,,61,127
7137,note_off,,,,,7,0,0,,,2,,,74,64
7144,note_off,,,,,7,0,0,,,4,,,57,64
7175,note_on,,,,,31,0,0,,,2,,,71,126
7176,note_on,,,,,1,0,0,,,4,,,59,127
7182,note_off,,,,,6,0,0,,,4,,,61,64
7182,note_off,,,,,0,0,0,,,2,,,73,64
7219,note_on,,,,,37,0,0,,,2,,,73,127
7220,note_on,,,,,1,0,0,,,4,,,61,127
7226,note_off,,,,,6,0,0,,,2,,,71,64
7226,note_off,,,,,0,0,0,,,4,,,59,64
7261,note_on,,,,,35,0,0,,,2,,,74,127
7262,note_on,,,,,1,0,0,,,4,,,62,127
7268,note_off,,,,,6,0,0,,,4,,,61,64
7269,note_off,,,,,1,0,0,,,2,,,73,64
7304,note_on,,,,,35,0,0,,,2,,,76,127
7304,note_on,,,,,0,0,0,,,4,,,64,126
7308,note_off,,,,,4,0,0,,,4,,,62,64
7309,note_off,,,,,1,0,0,,,2,,,74,64
7346,note_on,,,,,37,0,0,,,2,,,74,127
7346,note_on,,,,,0,0,0,,,4,,,62,127
7353,note_off,,,,,7,0,0,,,4,,,64,64
7353,note_off,,,,,0,0,0,,,2,,,76,64
7384,note_on,,,,,31,0,0,,,2,,,73,127
7385,note_on,,,,,1,0,0,,,4,,,61,127
7391,note_off,,,,,6,0,0,,,4,,,62,64
7392,note_off,,,,,1,0,0,,,2,,,74,64
7427,note_on,,,,,35,0,0,,,4,,,59,127
7427,note_on,,,,,0,0,0,,,2,,,71,126
7433,note_off,,,,,6,0,0,,,4,,,61,64
7434,note_off,,,,,1,0,0,,,2,,,73,64
7471,note_on,,,,,37,0,0,,,2,,,69,124
7471,note_on,,,,,0,0,0,,,4,,,57,127
7477,note_off,,,,,6,0,0,,,4,,,59,64
7478,note_off,,,,,1,0,0,,,2,,,71,64
7513,note_on,,,,,35,0,0,,,2,,,68,127
7513,note_on,,,,,0,0,0,,,4,,,56,127
7522,note_off,,,,,9,0,0,,,4,,,57,64
7522,note_off,,,,,0,0,0,,,2,,,69,64
7559,note_on,,,,,37,0,0,,,2,,,69,124
7560,note_on,,,,,1,0,0,,,4,,,57,127
7566,note_off,,,,,6,0,0,,,4,,,56,64
7566,note_off,,,,,0,0,0,,,2,,,68,64
7603,note_on,,,,,37,0,0,,,2,,,71,126
7604,note_on,,,,,1,0,0,,,4,,,59,127
7608,note_off,,,,,4,0,0,,,4,,,57,64
7608,note_off,,,,,0,0,0,,,2,,,69,64
7644,note_on,,,,,36,0,0,,,4,,,57,127
7644,note_on,,,,,0,0,0,,,2,,,69,124
7654,note_off,,,,,10,0,0,,,4,,,59,64
7655,note_off,,,,,1,0,0,,,2,,,71,64
7686,note_on,,,,,31,0,0,,,2,,,67,127
7686,note_on,,,,,0,0,0,,,4,,,55,127
7692,note_off,,,,,6,0,0,,,4,,,57,64
7693,note_off,,,,,1,0,0,,,2,,,69,64
7730,note_on,,,,,37,0,0,,,4,,,66,127
7730,note_on,,,,,0,0,0,,,4,,,54,127
7737,note_off,,,,,7,0,0,,,4,,,55,64
7737,note_off,,,,,0,0,0,,,2,,,67,64
7774,note_on,,,,,37,0,0,,,4,,,64,126
7775,note_on,,,,,1,0,0,,,4,,,52,127
7781,note_off,,,,,6,0,0,,,4,,,54,64
7781,note_off,,,,,0,0,0,,,4,,,66,64
7805,note_off,,,,,24,0,0,,,4,,,45,64
7820,note_on,,,,,15,0,0,,,4,,,62,127
7821,note_on,,,,,1,0,0,,,4,,,38,110
7821,note_on,,,,,0,0,0,,,4,,,50,127
7828,note_off,,,,,7,0,0,,,4,,,52,64
7828,note_off,,,,,0,0,0,,,4,,,64,64
7904,note_off,,,,,76,0,0,,,4,,,50,64
7913,note_on,,,,,9,0,0,,,4,,,50,127
8000,note_off,,,,,87,0,0,,,4,,,50,64
8007,note_on,,,,,7,0,0,,,4,,,50,127
8092,note_off,,,,,85,0,0,,,4,,,50,64
8100,note_on,,,,,8,0,0,,,4,,,50,127
8184,note_off,,,,,84,0,0,,,4,,,50,64
8184,note_off,,,,,0,0,0,,,4,,,62,64
8193,note_on,,,,,9,0,0,,,4,,,64,126
8193,note_on,,,,,0,0,0,,,4,,,61,127
8194,note_on,,,,,1,0,0,,,4,,,50,127
8278,note_off,,,,,84,0,0,,,4,,,50,64
8286,note_on,,,,,8,0,0,,,4,,,50,127
8370,note_off,,,,,84,0,0,,,4,,,50,64
8371,note_off,,,,,1,0,0,,,4,,,61,64
8371,note_off,,,,,0,0,0,,,4,,,64,64
8379,note_on,,,,,8,0,0,,,4,,,60,127
8379,note_on,,,,,0,0,0,,,4,,,66,127
8380,note_on,,,,,1,0,0,,,4,,,50,127
8463,note_off,,,,,83,0,0,,,4,,,50,64
8472,note_on,,,,,9,0,0,,,4,,,50,127
8556,note_off,,,,,84,0,0,,,4,,,50,64
8557,note_off,,,,,1,0,0,,,4,,,66,64
8557,note_off,,,,,0,0,0,,,4,,,60,64
8564,note_on,,,,,7,0,0,,,4,,,59,127
8564,note_on,,,,,0,0,0,,,2,,,67,127
8565,note_on,,,,,1,0,0,,,4,,,50,127
8650,note_off,,,,,85,0,0,,,4,,,50,64
8657,note_on,,,,,7,0,0,,,4,,,50,127
8702,note_off,,,,,45,0,0,,,2,,,67,64
8702,note_on,,,,,0,0,0,,,2,,,69,127
8726,note_off,,,,,24,0,0,,,2,,,69,64
8726,note_on,,,,,0,0,0,,,2,,,71,127
8748,note_off,,,,,22,0,0,,,4,,,50,64
8748,note_off,,,,,0,0,0,,,4,,,59,64
8759,note_off,,,,,11,0,0,,,2,,,71,64
8759,note_on,,,,,0,0,0,,,2,,,69,127
8760,note_on,,,,,1,0,0,,,4,,,61,127
8760,note_on,,,,,0,0,0,,,4,,,50,127
8845,note_off,,,,,85,0,0,,,4,,,50,64
8853,note_off,,,,,8,0,0,,,2,,,69,64
8853,note_on,,,,,0,0,0,,,2,,,67,127
8854,note_on,,,,,1,0,0,,,4,,,50,127
8940,note_off,,,,,86,0,0,,,4,,,61,64
8940,note_off,,,,,0,0,0,,,4,,,50,64
8947,note_off,,,,,7,0,0,,,2,,,67,64
8947,note_on,,,,,0,0,0,,,4,,,66,127
8948,note_on,,,,,1,0,0,,,4,,,62,127
8948,note_on,,,,,0,0,0,,,4,,,50,127
9035,note_off,,,,,87,0,0,,,4,,,50,64
9044,note_on,,,,,9,0,0,,,4,,,50,127
9130,note_off,,,,,86,0,0,,,4,,,50,64
9138,note_on,,,,,8,0,0,,,4,,,50,127
9222,note_off,,,,,84,0,0,,,4,,,50,64
9230,note_off,,,,,8,0,0,,,4,,,38,64
9230,note_on,,,,,0,0,0,,,4,,,50,127
9313,note_off,,,,,83,0,0,,,4,,,50,64
9314,note_off,,,,,1,0,0,,,4,,,66,64
9314,note_off,,,,,0,0,0,,,4,,,62,64
9322,note_on,,,,,8,0,0,,,4,,,66,127
9323,note_on,,,,,1,0,0,,,4,,,62,127
9323,note_on,,,,,0,0,0,,,4,,,50,127
9324,note_on,,,,,1,0,0,,,4,,,38,127
9408,note_off,,,,,84,0,0,,,4,,,50,64
9418,note_on,,,,,10,0,0,,,4,,,50,127
9504,note_off,,,,,86,0,0,,,4,,,50,64
9512,note_on,,,,,8,0,0,,,4,,,50,127
9600,note_off,,,,,88,0,0,,,4,,,50,64
9608,note_on,,,,,8,0,0,,,4,,,50,127
9695,note_off,,,,,87,0,0,,,4,,,50,64
9695,note_off,,,,,0,0,0,,,4,,,62,64
9696,note_off,,,,,1,0,0,,,4,,,66,64
9704,note_on,,,,,8,0,0,,,2,,,67,127
9705,note_on,,,,,1,0,0,,,4,,,50,127
9709,note_on,,,,,4,0,0,,,4,,,64,126
9792,note_off,,,,,83,0,0,,,4,,,50,64
9799,note_on,,,,,7,0,0,,,4,,,50,127
9886,note_off,,,,,87,0,0,,,2,,,67,64
9886,note_off,,,,,0,0,0,,,4,,,50,64
9892,note_off,,,,,6,0,0,,,4,,,64,64
9893,note_on,,,,,1,0,0,,,2,,,69,127
9893,note_on,,,,,0,0,0,,,4,,,66,127
9894,note_on,,,,,1,0,0,,,4,,,50,127
9981,note_off,,,,,87,0,0,,,4,,,50,64
9988,note_on,,,,,7,0,0,,,4,,,50,127
10075,note_off,,,,,87,0,0,,,4,,,50,64
10075,note_off,,,,,0,0,0,,,4,,,66,64
10076,note_off,,,,,1,0,0,,,2,,,69,64
10081,note_on,,,,,5,0,0,,,2,,,71,127
10082,note_on,,,,,1,0,0,,,2,,,67,127
10082,note_on,,,,,0,0,0,,,4,,,50,127
10166,note_off,,,,,84,0,0,,,4,,,50,64
10174,note_on,,,,,8,0,0,,,4,,,50,127
10220,note_off,,,,,46,0,0,,,2,,,71,64
10220,note_on,,,,,0,0,0,,,2,,,73,127
10248,note_off,,,,,28,0,0,,,2,,,73,64
10248,note_on,,,,,0,0,0,,,2,,,74,127
10270,note_off,,,,,22,0,0,,,4,,,50,64
10279,note_off,,,,,9,0,0,,,2,,,74,64
10280,note_on,,,,,1,0,0,,,4,,,50,127
10280,note_on,,,,,0,0,0,,,2,,,73,127
10365,note_off,,,,,85,0,0,,,4,,,50,64
10372,note_off,,,,,7,0,0,,,2,,,73,64
10373,note_on,,,,,1,0,0,,,2,,,71,127
10373,note_on,,,,,0,0,0,,,4,,,50,127
10460,note_off,,,,,87,0,0,,,4,,,50,64
10460,note_off,,,,,0,0,0,,,2,,,67,64
10468,note_off,,,,,8,0,0,,,2,,,71,64
10469,note_on,,,,,1,0,0,,,4,,,66,127
10469,note_on,,,,,0,0,0,,,2,,,69,127
10470,note_on,,,,,1,0,0,,,4,,,50,127
10555,note_off,,,,,85,0,0,,,4,,,50,64
10562,note_on,,,,,7,0,0,,,4,,,50,127
10651,note_off,,,,,89,0,0,,,4,,,50,64
10658,note_on,,,,,7,0,0,,,4,,,50,127
10680,marker,,,,,22,1,0,,,,,,,
10745,note_off,,,,,65,0,0,,,4,,,50,64
10754,note_off,,,,,9,0,0,,,4,,,38,64
10755,note_on,,,,,1,0,0,,,4,,,50,127
10755,note_on,,,,,0,0,0,,,1,,,78,125
10849,note_off,,,,,94,0,0,,,4,,,50,64
10850,note_off,,,,,1,0,0,,,2,,,69,64
10850,note_off,,,,,0,0,0,,,4,,,66,64
10851,note_on,,,,,1,0,0,,,4,,,55,127
10851,note_on,,,,,0,0,0,,,2,,,76,127
10852,note_on,,,,,1,0,0,,,4,,,43,127
10856,note_off,,,,,4,0,0,,,1,,,78,64
10896,note_on,,,,,40,0,0,,,1,,,86,125
10943,note_off,,,,,47,0,0,,,2,,,76,64
10944,note_on,,,,,1,0,0,,,2,,,76,127
10991,note_off,,,,,47,0,0,,,1,,,86,64
10991,note_on,,,,,0,0,0,,,1,,,86,125
11037,note_off,,,,,46,0,0,,,2,,,76,64
11040,note_on,,,,,3,0,0,,,2,,,76,127
11041,note_on,,,,,1,0,0,,,4,,,62,127
11041,note_on,,,,,0,0,0,,,4,,,50,127
11048,note_off,,,,,7,0,0,,,4,,,55,64
11048,note_off,,,,,0,0,0,,,4,,,43,64
11085,note_off,,,,,37,0,0,,,1,,,86,64
11087,note_on,,,,,2,0,0,,,1,,,86,125
11133,note_off,,,,,46,0,0,,,2,,,76,64
11135,note_on,,,,,2,0,0,,,2,,,76,127
11181,note_off,,,,,46,0,0,,,1,,,86,64
11183,note_on,,,,,2,0,0,,,1,,,86,125
11229,note_off,,,,,46,0,0,,,2,,,76,64
11231,note_on,,,,,2,0,0,,,2,,,76,127
11232,note_on,,,,,1,0,0,,,4,,,47,127
11232,note_on,,,,,0,0,0,,,4,,,59,127
11238,note_off,,,,,6,0,0,,,4,,,50,64
11238,note_off,,,,,0,0,0,,,4,,,62,64
11275,note_off,,,,,37,0,0,,,1,,,86,64
11277,note_on,,,,,2,0,0,,,1,,,86,125
11322,note_off,,,,,45,0,0,,,2,,,76,64
11324,note_on,,,,,2,0,0,,,2,,,76,127
11368,note_off,,,,,44,0,0,,,1,,,86,64
11370,note_on,,,,,2,0,0,,,1,,,86,125
11416,note_off,,,,,46,0,0,,,2,,,76,64
11418,note_on,,,,,2,0,0,,,2,,,76,127
11419,note_on,,,,,1,0,0,,,4,,,43,127
11419,note_on,,,,,0,0,0,,,4,,,55,127
11427,note_off,,,,,8,0,0,,,4,,,59,64
11427,note_off,,,,,0,0,0,,,4,,,47,64
11464,note_off,,,,,37,0,0,,,1,,,86,64
11466,note_on,,,,,2,0,0,,,1,,,86,125
11512,note_off,,,,,46,0,0,,,2,,,76,64
11514,note_on,,,,,2,0,0,,,2,,,76,127
11559,note_off,,,,,45,0,0,,,1,,,86,64
11561,note_on,,,,,2,0,0,,,1,,,86,125
11607,note_off,,,,,46,0,0,,,2,,,76,64
11609,note_on,,,,,2,0,0,,,1,,,78,125
11610,note_on,,,,,1,0,0,,,4,,,45,127
11610,note_on,,,,,0,0,0,,,4,,,57,127
11618,note_off,,,,,8,0,0,,,4,,,55,64
11618,note_off,,,,,0,0,0,,,4,,,43,64
11655,note_off,,,,,37,0,0,,,1,,,86,64
11657,note_on,,,,,2,0,0,,,1,,,86,125
11701,note_off,,,,,44,0,0,,,1,,,78,64
11705,note_on,,,,,4,0,0,,,1,,,78,125
11749,note_off,,,,,44,0,0,,,1,,,86,64
11751,note_on,,,,,2,0,0,,,1,,,86,125
11798,note_off,,,,,47,0,0,,,1,,,78,64
11800,note_on,,,,,2,0,0,,,1,,,78,125
11801,note_on,,,,,1,0,0,,,4,,,62,127
11801,note_on,,,,,0,0,0,,,4,,,50,127
11807,note_off,,,,,6,0,0,,,4,,,45,64
11808,note_off,,,,,1,0,0,,,4,,,57,64
11844,note_off,,,,,36,0,0,,,1,,,86,64
11848,note_on,,,,,4,0,0,,,1,,,86,125
11892,note_off,,,,,44,0,0,,,1,,,78,64
11894,note_on,,,,,2,0,0,,,1,,,78,125
11940,note_off,,,,,46,0,0,,,1,,,86,64
11942,note_on,,,,,2,0,0,,,1,,,86,125
11988,note_off,,,,,46,0,0,,,1,,,78,64
11990,note_on,,,,,2,0,0,,,1,,,78,125
11991,note_on,,,,,1,0,0,,,4,,,48,127
11991,note_on,,,,,0,0,0,,,4,,,60,127
11999,note_off,,,,,8,0,0,,,4,,,50,64
12000,note_off,,,,,1,0,0,,,4,,,62,64
12035,note_off,,,,,35,0,0,,,1,,,86,64
12036,note_on,,,,,1,0,0,,,1,,,86,125
12081,note_off,,,,,45,0,0,,,1,,,78,64
12083,note_on,,,,,2,0,0,,,1,,,78,125
12128,note_off,,,,,45,0,0,,,1,,,86,64
12128,note_on,,,,,0,0,0,,,1,,,86,125
12174,note_off,,,,,46,0,0,,,1,,,78,64
12176,note_on,,,,,2,0,0,,,4,,,57,127
12176,note_on,,,,,0,0,0,,,1,,,78,125
12177,note_on,,,,,1,0,0,,,4,,,45,127
12184,note_off,,,,,7,0,0,,,4,,,48,64
12185,note_off,,,,,1,0,0,,,4,,,60,64
12222,note_off,,,,,37,0,0,,,1,,,86,64
12224,note_on,,,,,2,0,0,,,1,,,86,125
12268,note_off,,,,,44,0,0,,,1,,,78,64
12272,note_on,,,,,4,0,0,,,1,,,78,125
12316,note_off,,,,,44,0,0,,,1,,,86,64
12318,note_on,,,,,2,0,0,,,1,,,86,125
12364,note_off,,,,,46,0,0,,,1,,,78,64
12366,note_on,,,,,2,0,0,,,4,,,59,127
12366,note_on,,,,,0,0,0,,,1,,,79,125
12367,note_on,,,,,1,0,0,,,4,,,47,127
12374,note_off,,,,,7,0,0,,,4,,,45,64
12375,note_off,,,,,1,0,0,,,4,,,57,64
12410,note_off,,,,,35,0,0,,,1,,,86,64
12414,note_on,,,,,4,0,0,,,1,,,86,125
12458,note_off,,,,,44,0,0,,,1,,,79,64
12460,note_on,,,,,2,0,0,,,1,,,79,125
12504,note_off,,,,,44,0,0,,,1,,,86,64
12506,note_on,,,,,2,0,0,,,1,,,86,125
12550,note_off,,,,,44,0,0,,,1,,,79,64
12554,note_on,,,,,4,0,0,,,2,,,67,127
12554,note_on,,,,,0,0,0,,,1,,,79,125
12555,note_on,,,,,1,0,0,,,4,,,55,127
12561,note_off,,,,,6,0,0,,,4,,,59,64
12561,note_off,,,,,0,0,0,,,4,,,47,64
12598,note_off,,,,,37,0,0,,,1,,,86,64
12600,note_on,,,,,2,0,0,,,1,,,86,125
12644,note_off,,,,,44,0,0,,,1,,,79,64
12646,note_on,,,,,2,0,0,,,1,,,79,125
12692,note_off,,,,,46,0,0,,,1,,,86,64
12693,note_on,,,,,1,0,0,,,1,,,86,125
12738,note_off,,,,,45,0,0,,,1,,,79,64
12740,note_on,,,,,2,0,0,,,1,,,79,125
12741,note_on,,,,,1,0,0,,,4,,,62,127
12741,note_on,,,,,0,0,0,,,4,,,50,127
12749,note_off,,,,,8,0,0,,,2,,,67,64
12749,note_off,,,,,0,0,0,,,4,,,55,64
12784,note_off,,,,,35,0,0,,,1,,,86,64
12786,note_on,,,,,2,0,0,,,1,,,86,125
12830,note_off,,,,,44,0,0,,,1,,,79,64
12833,note_on,,,,,3,0,0,,,1,,,79,125
12876,note_off,,,,,43,0,0,,,1,,,86,64
12877,note_on,,,,,1,0,0,,,1,,,86,125
12922,note_off,,,,,45,0,0,,,1,,,79,64
12924,note_on,,,,,2,0,0,,,4,,,47,127
12924,note_on,,,,,0,0,0,,,4,,,59,127
12924,note_on,,,,,0,0,0,,,1,,,79,125
12932,note_off,,,,,8,0,0,,,4,,,50,64
12933,note_off,,,,,1,0,0,,,4,,,62,64
12968,note_off,,,,,35,0,0,,,1,,,86,64
12972,note_on,,,,,4,0,0,,,1,,,86,125
13016,note_off,,,,,44,0,0,,,1,,,79,64
13018,note_on,,,,,2,0,0,,,1,,,79,125
13063,note_off,,,,,45,0,0,,,1,,,86,64
13065,note_on,,,,,2,0,0,,,1,,,86,125
13109,note_off,,,,,44,0,0,,,1,,,79,64
13111,note_on,,,,,2,0,0,,,1,,,80,125
13111,note_on,,,,,0,0,0,,,2,,,74,127
13112,note_on,,,,,1,0,0,,,4,,,46,127
13112,note_on,,,,,0,0,0,,,4,,,58,126
13118,note_off,,,,,6,0,0,,,4,,,47,64
13119,note_off,,,,,1,0,0,,,4,,,59,64
13154,note_off,,,,,35,0,0,,,1,,,86,64
13158,note_on,,,,,4,0,0,,,1,,,86,125
13200,note_off,,,,,42,0,0,,,2,,,74,64
13200,note_off,,,,,0,0,0,,,1,,,80,64
13203,note_on,,,,,3,0,0,,,1,,,80,125
13204,note_on,,,,,1,0,0,,,2,,,74,127
13248,note_off,,,,,44,0,0,,,1,,,86,64
13250,note_on,,,,,2,0,0,,,1,,,86,125
13295,note_off,,,,,45,0,0,,,2,,,74,64
13296,note_off,,,,,1,0,0,,,1,,,80,64
13298,note_on,,,,,2,0,0,,,1,,,80,125
13298,note_on,,,,,0,0,0,,,2,,,74,127
13299,note_on,,,,,1,0,0,,,4,,,53,127
13299,note_on,,,,,0,0,0,,,4,,,65,127
13306,note_off,,,,,7,0,0,,,4,,,46,64
13307,note_off,,,,,1,0,0,,,4,,,58,64
13343,note_off,,,,,36,0,0,,,1,,,86,64
13345,note_on,,,,,2,0,0,,,1,,,86,125
13389,note_off,,,,,44,0,0,,,2,,,74,64
13390,note_off,,,,,1,0,0,,,1,,,80,64
13392,note_on,,,,,2,0,0,,,1,,,80,125
13393,note_on,,,,,1,0,0,,,2,,,74,127
13437,note_off,,,,,44,0,0,,,1,,,86,64
13440,note_on,,,,,3,0,0,,,1,,,86,125
13482,note_off,,,,,42,0,0,,,2,,,74,64
13483,note_off,,,,,1,0,0,,,1,,,80,64
13486,note_on,,,,,3,0,0,,,4,,,62,127
13486,note_on,,,,,0,0,0,,,1,,,80,125
13486,note_on,,,,,0,0,0,,,2,,,74,127
13487,note_on,,,,,1,0,0,,,4,,,50,127
13493,note_off,,,,,6,0,0,,,4,,,65,64
13493,note_off,,,,,0,0,0,,,4,,,53,64
13530,note_off,,,,,37,0,0,,,1,,,86,64
13533,note_on,,,,,3,0,0,,,1,,,86,125
13578,note_off,,,,,45,0,0,,,2,,,74,64
13579,note_off,,,,,1,0,0,,,1,,,80,64
13582,note_on,,,,,3,0,0,,,1,,,80,125
13582,note_on,,,,,0,0,0,,,2,,,74,127
13624,note_off,,,,,42,0,0,,,1,,,86,64
13629,note_on,,,,,5,0,0,,,1,,,86,125
13673,note_off,,,,,44,0,0,,,2,,,74,64
13673,note_off,,,,,0,0,0,,,1,,,80,64
13676,note_on,,,,,3,0,0,,,2,,,74,127
13676,note_on,,,,,0,0,0,,,1,,,80,125
13677,note_on,,,,,1,0,0,,,4,,,46,127
13677,note_on,,,,,0,0,0,,,4,,,58,126
13683,note_off,,,,,6,0,0,,,4,,,50,64
13684,note_off,,,,,1,0,0,,,4,,,62,64
13722,note_off,,,,,38,0,0,,,1,,,86,64
13725,note_on,,,,,3,0,0,,,1,,,86,125
13770,note_off,,,,,45,0,0,,,2,,,74,64
13771,note_off,,,,,1,0,0,,,1,,,80,64
13772,note_on,,,,,1,0,0,,,1,,,80,122
13772,note_on,,,,,0,0,0,,,2,,,74,127
13816,note_off,,,,,44,0,0,,,1,,,86,64
13819,note_on,,,,,3,0,0,,,1,,,86,118
13859,note_off,,,,,40,0,0,,,4,,,58,64
13860,note_off,,,,,1,0,0,,,1,,,86,64
13861,note_off,,,,,1,0,0,,,2,,,74,64
13862,note_off,,,,,1,0,0,,,1,,,80,64
13868,note_on,,,,,6,0,0,,,4,,,57,127
13884,note_on,,,,,16,0,0,,,2,,,76,125
13888,note_off,,,,,4,0,0,,,4,,,46,64
13895,note_on,,,,,7,0,0,,,1,,,81,124
13907,note_on,,,,,12,0,0,,,1,,,85,124
13924,note_on,,,,,17,0,0,,,2,,,69,127
13970,note_on,,,,,46,0,0,,,2,,,68,127
13978,note_off,,,,,8,0,0,,,2,,,69,64
14016,note_on,,,,,38,0,0,,,2,,,69,127
14024,note_off,,,,,8,0,0,,,2,,,68,64
14061,note_on,,,,,37,0,0,,,2,,,71,127
14068,note_off,,,,,7,0,0,,,2,,,69,64
14105,note_on,,,,,37,0,0,,,2,,,69,127
14112,note_off,,,,,7,0,0,,,2,,,71,64
14131,note_off,,,,,19,0,0,,,2,,,76,64
14139,note_off,,,,,8,0,0,,,1,,,81,64
14149,note_off,,,,,10,0,0,,,1,,,85,64
14149,note_on,,,,,0,0,0,,,1,,,81,117
14150,note_on,,,,,1,0,0,,,4,,,66,127
14192,note_off,,,,,42,0,0,,,2,,,69,64
14193,note_on,,,,,1,0,0,,,2,,,69,127
14238,note_on,,,,,45,0,0,,,1,,,79,111
14239,note_on,,,,,1,0,0,,,4,,,64,126
14245,note_off,,,,,6,0,0,,,1,,,81,64
14245,note_off,,,,,0,0,0,,,4,,,66,64
14277,note_off,,,,,32,0,0,,,2,,,69,64
14280,note_on,,,,,3,0,0,,,2,,,69,127
14321,note_on,,,,,41,0,0,,,4,,,62,127
14321,note_on,,,,,0,0,0,,,1,,,78,111
14329,note_off,,,,,8,0,0,,,4,,,64,64
14330,note_off,,,,,1,0,0,,,1,,,79,64
14363,note_off,,,,,33,0,0,,,2,,,69,64
14365,note_on,,,,,2,0,0,,,2,,,69,127
14409,note_on,,,,,44,0,0,,,2,,,76,114
14410,note_on,,,,,1,0,0,,,4,,,61,127
14416,note_off,,,,,6,0,0,,,1,,,78,64
14416,note_off,,,,,0,0,0,,,4,,,62,64
14448,note_off,,,,,32,0,0,,,2,,,69,64
14451,note_on,,,,,3,0,0,,,2,,,69,127
14494,note_on,,,,,43,0,0,,,2,,,74,114
14494,note_on,,,,,0,0,0,,,4,,,59,127
14500,note_off,,,,,6,0,0,,,4,,,61,64
14501,note_off,,,,,1,0,0,,,2,,,76,64
14536,note_off,,,,,35,0,0,,,2,,,69,64
14538,note_on,,,,,2,0,0,,,2,,,69,127
14540,note_off,,,,,2,0,0,,,4,,,57,64
14584,note_on,,,,,44,0,0,,,4,,,57,127
14584,note_on,,,,,0,0,0,,,2,,,73,114
14591,note_off,,,,,7,0,0,,,4,,,59,64
14591,note_off,,,,,0,0,0,,,2,,,74,64
14626,note_off,,,,,35,0,0,,,2,,,69,64
14627,note_on,,,,,1,0,0,,,2,,,69,127
14670,note_on,,,,,43,0,0,,,2,,,74,114
14671,note_on,,,,,1,0,0,,,4,,,59,127
14677,note_off,,,,,6,0,0,,,2,,,73,64
14677,note_off,,,,,0,0,0,,,4,,,57,64
14711,note_off,,,,,34,0,0,,,2,,,69,64
14712,note_on,,,,,1,0,0,,,2,,,69,127
14757,note_on,,,,,45,0,0,,,2,,,76,114
14757,note_on,,,,,0,0,0,,,4,,,61,127
14765,note_off,,,,,8,0,0,,,4,,,59,64
14766,note_off,,,,,1,0,0,,,2,,,74,64
14799,note_off,,,,,33,0,0,,,2,,,69,64
14799,note_on,,,,,0,0,0,,,2,,,69,127
14843,note_on,,,,,44,0,0,,,1,,,78,111
14844,note_on,,,,,1,0,0,,,4,,,62,127
14850,note_off,,,,,6,0,0,,,4,,,61,64
14850,note_off,,,,,0,0,0,,,2,,,76,64
14885,note_off,,,,,35,0,0,,,2,,,69,64
14886,note_on,,,,,1,0,0,,,2,,,69,127
14929,note_on,,,,,43,0,0,,,1,,,81,111
14930,note_on,,,,,1,0,0,,,4,,,64,126
14938,note_off,,,,,8,0,0,,,4,,,62,64
14939,note_off,,,,,1,0,0,,,1,,,78,64
14971,note_off,,,,,32,0,0,,,2,,,69,64
14973,note_on,,,,,2,0,0,,,1,,,79,111
14973,note_on,,,,,0,0,0,,,2,,,69,127
14979,note_off,,,,,6,0,0,,,1,,,81,64
15014,note_on,,,,,35,0,0,,,1,,,78,111
15014,note_on,,,,,0,0,0,,,4,,,61,127
15021,note_off,,,,,7,0,0,,,1,,,79,64
15021,note_off,,,,,0,0,0,,,4,,,64,64
15052,note_off,,,,,31,0,0,,,2,,,69,64
15054,note_on,,,,,2,0,0,,,2,,,76,114
15055,note_on,,,,,1,0,0,,,2,,,69,127
15061,note_off,,,,,6,0,0,,,1,,,78,64
15096,note_on,,,,,35,0,0,,,4,,,62,127
15096,note_on,,,,,0,0,0,,,1,,,79,111
15102,note_off,,,,,6,0,0,,,2,,,76,64
15103,note_off,,,,,1,0,0,,,4,,,61,64
15138,note_off,,,,,35,0,0,,,2,,,69,64
15140,note_on,,,,,2,0,0,,,1,,,78,111
15140,note_on,,,,,0,0,0,,,2,,,69,127
15146,note_off,,,,,6,0,0,,,1,,,79,64
15179,note_on,,,,,33,0,0,,,2,,,76,118
15180,note_on,,,,,1,0,0,,,4,,,59,127
15186,note_off,,,,,6,0,0,,,1,,,78,64
15186,note_off,,,,,0,0,0,,,4,,,62,64
15219,note_off,,,,,33,0,0,,,2,,,69,64
15221,note_on,,,,,2,0,0,,,2,,,74,118
15222,note_on,,,,,1,0,0,,,2,,,69,127
15228,note_off,,,,,6,0,0,,,2,,,76,64
15263,note_off,,,,,35,0,0,,,2,,,69,64
15263,note_off,,,,,0,0,0,,,2,,,74,64
15264,note_on,,,,,1,0,0,,,4,,,57,127
15264,note_on,,,,,0,0,0,,,2,,,73,126
15280,note_off,,,,,16,0,0,,,4,,,59,64
15289,note_on,,,,,9,0,0,,,2,,,76,126
15299,note_on,,,,,10,0,0,,,1,,,81,123
15322,note_on,,,,,23,0,0,,,2,,,69,127
15365,note_on,,,,,43,0,0,,,2,,,68,127
15373,note_off,,,,,8,0,0,,,2,,,69,64
15408,note_on,,,,,35,0,0,,,2,,,69,127
15416,note_off,,,,,8,0,0,,,2,,,68,64
15452,note_on,,,,,36,0,0,,,2,,,71,127
15459,note_off,,,,,7,0,0,,,2,,,69,64
15496,note_on,,,,,37,0,0,,,2,,,69,127
15502,note_off,,,,,6,0,0,,,2,,,71,64
15504,marker,,,,,2,1,0,,,,,,,
15509,note_off,,,,,5,0,0,,,2,,,73,64
15521,note_off,,,,,12,0,0,,,2,,,76,64
15530,note_off,,,,,9,0,0,,,1,,,81,64
15538,note_on,,,,,8,0,0,,,1,,,81,111
15539,note_on,,,,,1,0,0,,,4,,,66,127
15545,note_off,,,,,6,0,0,,,2,,,69,64
15582,note_on,,,,,37,0,0,,,2,,,69,127
15624,note_off,,,,,42,0,0,,,1,,,81,64
15625,note_on,,,,,1,0,0,,,1,,,79,111
15626,note_on,,,,,1,0,0,,,4,,,64,126
15632,note_off,,,,,6,0,0,,,4,,,66,64
15665,note_off,,,,,33,0,0,,,2,,,69,64
15667,note_on,,,,,2,0,0,,,2,,,69,127
15708,note_on,,,,,41,0,0,,,1,,,78,111
15708,note_on,,,,,0,0,0,,,4,,,62,127
15716,note_off,,,,,8,0,0,,,4,,,64,64
15716,note_off,,,,,0,0,0,,,1,,,79,64
15751,note_off,,,,,35,0,0,,,2,,,69,64
15754,note_on,,,,,3,0,0,,,2,,,69,127
15796,note_on,,,,,42,0,0,,,4,,,61,127
15796,note_on,,,,,0,0,0,,,2,,,76,114
15803,note_off,,,,,7,0,0,,,4,,,62,64
15803,note_off,,,,,0,0,0,,,1,,,78,64
15836,note_off,,,,,33,0,0,,,2,,,69,64
15838,note_on,,,,,2,0,0,,,2,,,69,127
15882,note_on,,,,,44,0,0,,,2,,,74,114
15883,note_on,,,,,1,0,0,,,4,,,59,127
15889,note_off,,,,,6,0,0,,,2,,,76,64
15889,note_off,,,,,0,0,0,,,4,,,61,64
15922,note_off,,,,,33,0,0,,,2,,,69,64
15924,note_off,,,,,2,0,0,,,4,,,57,64
15925,note_on,,,,,1,0,0,,,2,,,69,127
15970,note_on,,,,,45,0,0,,,2,,,73,114
15970,note_on,,,,,0,0,0,,,4,,,57,127
15976,note_off,,,,,6,0,0,,,4,,,59,64
15977,note_off,,,,,1,0,0,,,2,,,74,64
16011,note_off,,,,,34,0,0,,,2,,,69,64
16014,note_on,,,,,3,0,0,,,2,,,69,127
16058,note_on,,,,,44,0,0,,,4,,,59,127
16058,note_on,,,,,0,0,0,,,2,,,74,114
16065,note_off,,,,,7,0,0,,,4,,,57,64
16065,note_off,,,,,0,0,0,,,2,,,73,64
16100,note_off,,,,,35,0,0,,,2,,,69,64
16101,note_on,,,,,1,0,0,,,2,,,69,127
16144,note_on,,,,,43,0,0,,,2,,,76,114
16145,note_on,,,,,1,0,0,,,4,,,61,127
16151,note_off,,,,,6,0,0,,,4,,,59,64
16152,note_off,,,,,1,0,0,,,2,,,74,64
16184,note_off,,,,,32,0,0,,,2,,,69,64
16188,note_on,,,,,4,0,0,,,2,,,69,127
16231,note_on,,,,,43,0,0,,,4,,,62,127
16231,note_on,,,,,0,0,0,,,1,,,78,111
16237,note_off,,,,,6,0,0,,,4,,,61,64
16238,note_off,,,,,1,0,0,,,2,,,76,64
16271,note_off,,,,,33,0,0,,,2,,,69,64
16273,note_on,,,,,2,0,0,,,2,,,69,127
16315,note_on,,,,,42,0,0,,,1,,,81,111
16316,note_on,,,,,1,0,0,,,4,,,64,126
16322,note_off,,,,,6,0,0,,,1,,,78,64
16322,note_off,,,,,0,0,0,,,4,,,62,64
16355,note_off,,,,,33,0,0,,,2,,,69,64
16357,note_on,,,,,2,0,0,,,1,,,79,111
16358,note_on,,,,,1,0,0,,,2,,,69,127
16366,note_off,,,,,8,0,0,,,1,,,81,64
16400,note_on,,,,,34,0,0,,,1,,,78,111
16400,note_on,,,,,0,0,0,,,4,,,61,127
16406,note_off,,,,,6,0,0,,,1,,,79,64
16407,note_off,,,,,1,0,0,,,4,,,64,64
16440,note_off,,,,,33,0,0,,,2,,,69,64
16442,note_on,,,,,2,0,0,,,2,,,76,114
16442,note_on,,,,,0,0,0,,,2,,,69,127
16449,note_off,,,,,7,0,0,,,1,,,78,64
16483,note_on,,,,,34,0,0,,,1,,,79,111
16484,note_on,,,,,1,0,0,,,4,,,62,127
16492,note_off,,,,,8,0,0,,,2,,,76,64
16492,note_off,,,,,0,0,0,,,4,,,61,64
16525,note_off,,,,,33,0,0,,,2,,,69,64
16528,note_on,,,,,3,0,0,,,1,,,78,111
16529,note_on,,,,,1,0,0,,,2,,,69,127
16535,note_off,,,,,6,0,0,,,1,,,79,64
16570,note_on,,,,,35,0,0,,,2,,,76,114
16570,note_on,,,,,0,0,0,,,4,,,59,127
16576,note_off,,,,,6,0,0,,,1,,,78,64
16577,note_off,,,,,1,0,0,,,4,,,62,64
16612,note_off,,,,,35,0,0,,,2,,,69,64
16612,note_on,,,,,0,0,0,,,2,,,74,119
16613,note_on,,,,,1,0,0,,,2,,,69,127
16621,note_off,,,,,8,0,0,,,2,,,76,64
16654,note_off,,,,,33,0,0,,,2,,,69,64
16655,note_off,,,,,1,0,0,,,2,,,74,64
16655,note_off,,,,,0,0,0,,,4,,,59,64
16656,note_on,,,,,1,0,0,,,4,,,57,127
16656,note_on,,,,,0,0,0,,,2,,,73,127
16684,note_on,,,,,28,0,0,,,2,,,76,127
16695,note_on,,,,,11,0,0,,,1,,,81,126
16826,note_off,,,,,131,0,0,,,2,,,73,64
16826,note_off,,,,,0,0,0,,,4,,,57,64
16835,note_off,,,,,9,0,0,,,2,,,76,64
16840,note_on,,,,,5,0,0,,,2,,,76,126
16841,note_on,,,,,1,0,0,,,4,,,64,126
16841,note_on,,,,,0,0,0,,,4,,,57,127
16842,note_on,,,,,1,0,0,,,4,,,61,127
16846,note_off,,,,,4,0,0,,,1,,,81,64
16886,note_on,,,,,40,0,0,,,2,,,73,126
16895,note_off,,,,,9,0,0,,,2,,,76,64
16933,note_on,,,,,38,0,0,,,2,,,76,126
16939,note_off,,,,,6,0,0,,,2,,,73,64
16980,note_on,,,,,41,0,0,,,2,,,73,126
16987,note_off,,,,,7,0,0,,,2,,,76,64
17018,note_off,,,,,31,0,0,,,4,,,57,64
17018,note_off,,,,,0,0,0,,,4,,,64,64
17019,note_off,,,,,1,0,0,,,4,,,61,64
17025,note_on,,,,,6,0,0,,,4,,,64,126
17025,note_on,,,,,0,0,0,,,2,,,69,127
17026,note_on,,,,,1,0,0,,,4,,,57,127
17028,note_on,,,,,2,0,0,,,4,,,61,127
17033,note_off,,,,,5,0,0,,,2,,,73,64
17381,note_off,,,,,348,0,0,,,2,,,69,64
17381,note_on,,,,,0,0,0,,,2,,,76,124
17485,note_off,,,,,104,0,0,,,2,,,76,64
17491,note_on,,,,,6,0,0,,,1,,,81,111
17587,note_on,,,,,96,0,0,,,1,,,80,111
17597,note_off,,,,,10,0,0,,,1,,,81,64
17637,note_off,,,,,40,0,0,,,4,,,64,64
17683,note_on,,,,,46,0,0,,,1,,,83,111
17689,note_off,,,,,6,0,0,,,1,,,80,64
17775,note_on,,,,,86,0,0,,,1,,,81,111
17785,note_off,,,,,10,0,0,,,1,,,83,64
17869,note_on,,,,,84,0,0,,,1,,,80,111
17871,note_off,,,,,2,0,0,,,4,,,61,64
17877,note_off,,,,,6,0,0,,,1,,,81,64
17965,note_on,,,,,88,0,0,,,1,,,78,111
17973,note_off,,,,,8,0,0,,,1,,,80,64
18061,note_on,,,,,88,0,0,,,1,,,80,81
18062,note_on,,,,,1,0,0,,,3,,,71,119
18062,note_on,,,,,0,0,0,,,3,,,68,126
18070,note_off,,,,,8,0,0,,,1,,,78,64
18086,note_on,,,,,16,0,0,,,1,,,78,81
18095,note_off,,,,,9,0,0,,,1,,,80,64
18096,note_off,,,,,1,0,0,,,4,,,57,64
18111,note_on,,,,,15,0,0,,,1,,,80,81
18120,note_off,,,,,9,0,0,,,1,,,78,64
18136,note_on,,,,,16,0,0,,,1,,,78,81
18146,note_off,,,,,10,0,0,,,1,,,80,64
18154,note_off,,,,,8,0,0,,,3,,,68,64
18154,note_off,,,,,0,0,0,,,3,,,71,64
18163,note_on,,,,,9,0,0,,,3,,,68,126
18163,note_on,,,,,0,0,0,,,3,,,71,115
18163,note_on,,,,,0,0,0,,,2,,,76,90
18171,note_off,,,,,8,0,0,,,1,,,78,64
18250,note_off,,,,,79,0,0,,,3,,,68,64
18251,note_off,,,,,1,0,0,,,2,,,76,64
18251,note_off,,,,,0,0,0,,,3,,,71,64
18259,note_on,,,,,8,0,0,,,2,,,76,101
18259,note_on,,,,,0,0,0,,,3,,,71,115
18259,note_on,,,,,0,0,0,,,3,,,68,126
18344,note_off,,,,,85,0,0,,,3,,,68,64
18345,note_off,,,,,1,0,0,,,3,,,71,64
18353,note_on,,,,,8,0,0,,,3,,,71,115
18353,note_on,,,,,0,0,0,,,3,,,68,126
18438,note_off,,,,,85,0,0,,,3,,,68,64
18439,note_off,,,,,1,0,0,,,3,,,71,64
18447,note_on,,,,,8,0,0,,,3,,,68,126
18447,note_on,,,,,0,0,0,,,3,,,71,115
18492,note_off,,,,,45,0,0,,,2,,,76,64
18536,note_off,,,,,44,0,0,,,3,,,68,64
18537,note_off,,,,,1,0,0,,,3,,,71,64
18545,note_on,,,,,8,0,0,,,1,,,78,91
18545,note_on,,,,,0,0,0,,,3,,,71,111
18546,note_on,,,,,1,0,0,,,3,,,68,126
18569,note_on,,,,,23,0,0,,,2,,,76,98
18578,note_off,,,,,9,0,0,,,1,,,78,64
18594,note_on,,,,,16,0,0,,,2,,,75,98
18601,note_off,,,,,7,0,0,,,2,,,76,64
18632,note_off,,,,,31,0,0,,,2,,,75,64
18633,note_off,,,,,1,0,0,,,3,,,68,64
18633,note_off,,,,,0,0,0,,,3,,,71,64
18641,note_on,,,,,8,0,0,,,3,,,71,111
18641,note_on,,,,,0,0,0,,,2,,,76,98
18642,note_on,,,,,1,0,0,,,3,,,68,126
18726,note_off,,,,,84,0,0,,,3,,,68,64
18727,note_off,,,,,1,0,0,,,3,,,71,64
18733,note_on,,,,,6,0,0,,,1,,,78,97
18733,note_on,,,,,0,0,0,,,3,,,71,111
18734,note_on,,,,,1,0,0,,,3,,,68,126
18742,note_off,,,,,8,0,0,,,2,,,76,64
18820,note_off,,,,,78,0,0,,,3,,,68,64
18821,note_off,,,,,1,0,0,,,3,,,71,64
18827,note_on,,,,,6,0,0,,,2,,,76,102
18828,note_on,,,,,1,0,0,,,3,,,69,121
18828,note_on,,,,,0,0,0,,,3,,,66,126
18836,note_off,,,,,8,0,0,,,1,,,78,64
18914,note_off,,,,,78,0,0,,,3,,,66,64
18915,note_off,,,,,1,0,0,,,3,,,69,64
18919,note_off,,,,,4,0,0,,,2,,,76,64
18923,note_on,,,,,4,0,0,,,2,,,74,107
18924,note_on,,,,,1,0,0,,,3,,,66,121
18924,note_on,,,,,0,0,0,,,3,,,69,121
19010,note_off,,,,,86,0,0,,,3,,,66,64
19011,note_off,,,,,1,0,0,,,3,,,69,64
19019,note_on,,,,,8,0,0,,,3,,,69,121
19020,note_on,,,,,1,0,0,,,3,,,66,121
19106,note_off,,,,,86,0,0,,,3,,,66,64
19107,note_off,,,,,1,0,0,,,3,,,69,64
19113,note_on,,,,,6,0,0,,,1,,,78,101
19114,note_on,,,,,1,0,0,,,3,,,66,121
19114,note_on,,,,,0,0,0,,,3,,,69,121
19122,note_off,,,,,8,0,0,,,2,,,74,64
19200,note_off,,,,,78,0,0,,,3,,,66,64
19201,note_off,,,,,1,0,0,,,3,,,69,64
19209,note_on,,,,,8,0,0,,,2,,,74,107
19210,note_on,,,,,1,0,0,,,3,,,68,121
19210,note_on,,,,,0,0,0,,,4,,,64,119
19225,note_off,,,,,15,0,0,,,1,,,78,64
19296,note_off,,,,,71,0,0,,,4,,,64,64
19297,note_off,,,,,1,0,0,,,3,,,68,64
19305,note_on,,,,,8,0,0,,,2,,,73,107
19306,note_on,,,,,1,0,0,,,3,,,68,121
19306,note_on,,,,,0,0,0,,,4,,,64,119
19321,note_off,,,,,15,0,0,,,2,,,74,64
19392,note_off,,,,,71,0,0,,,4,,,64,64
19393,note_off,,,,,1,0,0,,,3,,,68,64
19399,note_on,,,,,6,0,0,,,3,,,68,121
19400,note_on,,,,,1,0,0,,,4,,,64,119
19483,note_off,,,,,83,0,0,,,2,,,73,64
19487,note_off,,,,,4,0,0,,,3,,,68,64
19487,note_off,,,,,0,0,0,,,4,,,64,64
19495,note_on,,,,,8,0,0,,,2,,,76,107
19496,note_on,,,,,1,0,0,,,3,,,68,121
19496,note_on,,,,,0,0,0,,,4,,,64,119
19583,note_off,,,,,87,0,0,,,4,,,64,64
19583,note_off,,,,,0,0,0,,,3,,,68,64
19591,note_on,,,,,8,0,0,,,2,,,73,112
19592,note_on,,,,,1,0,0,,,3,,,66,121
19592,note_on,,,,,0,0,0,,,4,,,62,124
19602,note_off,,,,,10,0,0,,,2,,,76,64
19638,note_on,,,,,36,0,0,,,3,,,71,120
19646,note_off,,,,,8,0,0,,,2,,,73,64
19677,note_off,,,,,31,0,0,,,4,,,62,64
19677,note_off,,,,,0,0,0,,,3,,,66,64
19683,note_on,,,,,6,0,0,,,2,,,74,116
19684,note_on,,,,,1,0,0,,,3,,,66,121
19684,note_on,,,,,0,0,0,,,4,,,62,124
19691,note_off,,,,,7,0,0,,,3,,,71,64
19728,note_on,,,,,37,0,0,,,2,,,73,116
19735,note_off,,,,,7,0,0,,,2,,,74,64
19766,note_off,,,,,31,0,0,,,4,,,62,64
19766,note_off,,,,,0,0,0,,,3,,,66,64
19773,note_on,,,,,7,0,0,,,2,,,76,116
19773,note_on,,,,,0,0,0,,,3,,,66,121
19774,note_on,,,,,1,0,0,,,4,,,62,124
19781,note_off,,,,,7,0,0,,,2,,,73,64
19818,note_on,,,,,37,0,0,,,2,,,74,116
19825,note_off,,,,,7,0,0,,,2,,,76,64
19854,note_off,,,,,29,0,0,,,4,,,62,64
19855,note_off,,,,,1,0,0,,,3,,,66,64
19861,note_on,,,,,6,0,0,,,3,,,66,121
19861,note_on,,,,,0,0,0,,,2,,,73,116
19862,note_on,,,,,1,0,0,,,4,,,62,124
19870,note_off,,,,,8,0,0,,,2,,,74,64
19906,note_on,,,,,36,0,0,,,3,,,71,120
19914,note_off,,,,,8,0,0,,,2,,,73,64
19944,note_off,,,,,30,0,0,,,4,,,62,64
19945,note_off,,,,,1,0,0,,,3,,,66,64
19954,note_on,,,,,9,0,0,,,4,,,64,119
19954,note_on,,,,,0,0,0,,,3,,,69,126
19955,note_on,,,,,1,0,0,,,4,,,61,127
19961,note_off,,,,,6,0,0,,,3,,,71,64
19997,note_on,,,,,36,0,0,,,3,,,71,120
20005,note_off,,,,,8,0,0,,,3,,,69,64
20043,note_on,,,,,38,0,0,,,3,,,69,126
20051,note_off,,,,,8,0,0,,,3,,,71,64
20088,note_on,,,,,37,0,0,,,3,,,68,121
20095,note_off,,,,,7,0,0,,,3,,,69,64
20131,note_on,,,,,36,0,0,,,3,,,69,126
20139,note_off,,,,,8,0,0,,,3,,,68,64
20174,note_on,,,,,35,0,0,,,3,,,71,120
20182,note_off,,,,,8,0,0,,,3,,,69,64
20219,note_on,,,,,37,0,0,,,2,,,73,119
20224,note_off,,,,,5,0,0,,,3,,,71,64
20260,note_on,,,,,36,0,0,,,2,,,74,119
20268,note_off,,,,,8,0,0,,,2,,,73,64
20304,note_on,,,,,36,0,0,,,2,,,75,119
20312,note_off,,,,,8,0,0,,,2,,,74,64
20349,note_on,,,,,37,0,0,,,2,,,76,123
20355,note_off,,,,,6,0,0,,,2,,,75,64
20392,note_on,,,,,37,0,0,,,1,,,78,117
20400,note_off,,,,,8,0,0,,,2,,,76,64
20436,note_on,,,,,36,0,0,,,2,,,76,123
20444,note_off,,,,,8,0,0,,,1,,,78,64
20478,note_on,,,,,34,0,0,,,1,,,80,117
20484,note_off,,,,,6,0,0,,,2,,,76,64
20523,note_on,,,,,39,0,0,,,1,,,78,117
20531,note_off,,,,,8,0,0,,,1,,,80,64
20565,note_on,,,,,34,0,0,,,1,,,81,117
20573,note_off,,,,,8,0,0,,,1,,,78,64
20611,note_on,,,,,38,0,0,,,1,,,80,114
20619,note_off,,,,,8,0,0,,,1,,,81,64
20655,note_on,,,,,36,0,0,,,1,,,83,118
20663,note_off,,,,,8,0,0,,,1,,,80,64
20746,note_on,,,,,83,0,0,,,1,,,81,114
20751,note_off,,,,,5,0,0,,,1,,,83,64
20772,marker,,,,,21,1,0,,,,,,,
20832,note_on,,,,,60,0,0,,,1,,,80,114
20840,note_off,,,,,8,0,0,,,1,,,81,64
20922,note_on,,,,,82,0,0,,,1,,,78,114
20930,note_off,,,,,8,0,0,,,1,,,80,64
20983,note_off,,,,,53,0,0,,,4,,,64,64
20983,note_off,,,,,0,0,0,,,4,,,61,64
21012,note_on,,,,,29,0,0,,,2,,,75,124
21013,note_on,,,,,1,0,0,,,3,,,71,118
21013,note_on,,,,,0,0,0,,,3,,,68,121
21020,note_off,,,,,7,0,0,,,1,,,78,64
21101,note_off,,,,,81,0,0,,,3,,,68,64
21101,note_off,,,,,0,0,0,,,3,,,71,64
21109,note_off,,,,,8,0,0,,,2,,,75,64
21110,note_on,,,,,1,0,0,,,3,,,71,118
21110,note_on,,,,,0,0,0,,,1,,,78,120
21111,note_on,,,,,1,0,0,,,3,,,68,121
21155,note_off,,,,,44,0,0,,,1,,,78,64
21159,note_on,,,,,4,0,0,,,2,,,76,126
21195,note_off,,,,,36,0,0,,,2,,,76,64
21198,note_off,,,,,3,0,0,,,3,,,71,64
21198,note_off,,,,,0,0,0,,,3,,,68,64
21206,note_on,,,,,8,0,0,,,2,,,76,126
21207,note_on,,,,,1,0,0,,,3,,,71,118
21207,note_on,,,,,0,0,0,,,3,,,68,121
21294,note_off,,,,,87,0,0,,,3,,,68,64
21294,note_off,,,,,0,0,0,,,3,,,71,64
21302,note_on,,,,,8,0,0,,,3,,,71,118
21303,note_on,,,,,1,0,0,,,3,,,68,121
21390,note_off,,,,,87,0,0,,,3,,,71,64
21390,note_off,,,,,0,0,0,,,3,,,68,64
21396,note_on,,,,,6,0,0,,,3,,,71,118
21397,note_on,,,,,1,0,0,,,3,,,68,121
21444,note_on,,,,,47,0,0,,,1,,,78,119
21445,note_off,,,,,1,0,0,,,2,,,76,64
21484,note_off,,,,,39,0,0,,,3,,,68,64
21484,note_off,,,,,0,0,0,,,3,,,71,64
21492,note_off,,,,,8,0,0,,,1,,,78,64
21493,note_on,,,,,1,0,0,,,2,,,76,125
21493,note_on,,,,,0,0,0,,,3,,,71,118
21494,note_on,,,,,1,0,0,,,3,,,68,121
21539,note_off,,,,,45,0,0,,,2,,,76,64
21539,note_on,,,,,0,0,0,,,2,,,75,125
21576,note_off,,,,,37,0,0,,,3,,,68,64
21576,note_off,,,,,0,0,0,,,3,,,71,64
21585,note_off,,,,,9,0,0,,,2,,,75,64
21585,note_on,,,,,0,0,0,,,2,,,76,125
21586,note_on,,,,,1,0,0,,,3,,,68,121
21586,note_on,,,,,0,0,0,,,3,,,71,118
21656,note_off,,,,,70,0,0,,,2,,,76,64
21671,note_off,,,,,15,0,0,,,3,,,68,64
21672,note_off,,,,,1,0,0,,,3,,,71,64
21680,note_on,,,,,8,0,0,,,2,,,76,120
21680,note_on,,,,,0,0,0,,,3,,,71,118
21681,note_on,,,,,1,0,0,,,3,,,68,121
21769,note_off,,,,,88,0,0,,,3,,,68,64
21769,note_off,,,,,0,0,0,,,3,,,71,64
21778,note_on,,,,,9,0,0,,,3,,,66,121
21778,note_on,,,,,0,0,0,,,3,,,69,116
21861,note_off,,,,,83,0,0,,,3,,,66,64
21862,note_off,,,,,1,0,0,,,3,,,69,64
21870,note_on,,,,,8,0,0,,,2,,,73,120
21870,note_on,,,,,0,0,0,,,3,,,69,116
21871,note_on,,,,,1,0,0,,,3,,,66,116
21873,note_off,,,,,2,0,0,,,2,,,76,64
21953,note_off,,,,,80,0,0,,,3,,,66,64
21954,note_off,,,,,1,0,0,,,3,,,69,64
21960,note_on,,,,,6,0,0,,,3,,,69,116
21960,note_on,,,,,0,0,0,,,3,,,66,116
22045,note_off,,,,,85,0,0,,,3,,,66,64
22046,note_off,,,,,1,0,0,,,3,,,69,64
22054,note_on,,,,,8,0,0,,,2,,,74,120
22055,note_on,,,,,1,0,0,,,3,,,66,116
22055,note_on,,,,,0,0,0,,,3,,,69,116
22057,note_off,,,,,2,0,0,,,2,,,73,64
22140,note_off,,,,,83,0,0,,,3,,,69,64
22140,note_off,,,,,0,0,0,,,3,,,66,64
22146,note_on,,,,,6,0,0,,,3,,,68,116
22147,note_on,,,,,1,0,0,,,3,,,64,114
22232,note_off,,,,,85,0,0,,,3,,,64,64
22232,note_off,,,,,0,0,0,,,3,,,68,64
22238,note_on,,,,,6,0,0,,,2,,,72,120
22239,note_on,,,,,1,0,0,,,3,,,64,119
22239,note_on,,,,,0,0,0,,,3,,,68,121
22242,note_off,,,,,3,0,0,,,2,,,74,64
22323,note_off,,,,,81,0,0,,,3,,,68,64
22323,note_off,,,,,0,0,0,,,3,,,64,64
22330,note_on,,,,,7,0,0,,,3,,,68,121
22330,note_on,,,,,0,0,0,,,3,,,64,119
22413,note_off,,,,,83,0,0,,,3,,,64,64
22414,note_off,,,,,1,0,0,,,3,,,68,64
22422,note_on,,,,,8,0,0,,,2,,,73,120
22422,note_on,,,,,0,0,0,,,3,,,68,121
22423,note_on,,,,,1,0,0,,,3,,,64,119
22425,note_off,,,,,2,0,0,,,2,,,72,64
22505,note_off,,,,,80,0,0,,,3,,,64,64
22506,note_off,,,,,1,0,0,,,3,,,68,64
22512,note_on,,,,,6,0,0,,,3,,,66,121
22513,note_on,,,,,1,0,0,,,4,,,62,124
22597,note_off,,,,,84,0,0,,,3,,,66,64
22597,note_off,,,,,0,0,0,,,4,,,62,64
22603,note_on,,,,,6,0,0,,,2,,,70,126
22604,note_on,,,,,1,0,0,,,4,,,66,121
22604,note_on,,,,,0,0,0,,,4,,,62,124
22608,note_off,,,,,4,0,0,,,2,,,73,64
22689,note_off,,,,,81,0,0,,,4,,,62,64
22689,note_off,,,,,0,0,0,,,4,,,66,64
22697,note_on,,,,,8,0,0,,,4,,,66,121
22698,note_on,,,,,1,0,0,,,4,,,62,124
22781,note_off,,,,,83,0,0,,,4,,,62,64
22781,note_off,,,,,0,0,0,,,4,,,66,64
22788,note_on,,,,,7,0,0,,,4,,,62,124
22788,note_on,,,,,0,0,0,,,4,,,66,121
22788,note_on,,,,,0,0,0,,,2,,,71,123
22792,note_off,,,,,4,0,0,,,2,,,70,64
22873,note_off,,,,,81,0,0,,,4,,,66,64
22873,note_off,,,,,0,0,0,,,4,,,62,64
22880,note_on,,,,,7,0,0,,,4,,,61,125
22880,note_on,,,,,0,0,0,,,4,,,64,119
22927,note_off,,,,,47,0,0,,,2,,,71,64
22927,note_on,,,,,0,0,0,,,2,,,68,126
22974,note_on,,,,,47,0,0,,,2,,,71,123
22982,note_off,,,,,8,0,0,,,2,,,68,64
23018,note_on,,,,,36,0,0,,,2,,,69,126
23026,note_off,,,,,8,0,0,,,2,,,71,64
23061,note_on,,,,,35,0,0,,,1,,,78,121
23105,note_off,,,,,44,0,0,,,2,,,69,64
23105,note_on,,,,,0,0,0,,,2,,,76,124
23112,note_off,,,,,7,0,0,,,1,,,78,64
23148,note_on,,,,,36,0,0,,,2,,,74,124
23155,note_off,,,,,7,0,0,,,2,,,76,64
23194,note_on,,,,,39,0,0,,,2,,,73,124
23202,note_off,,,,,8,0,0,,,2,,,74,64
23238,note_off,,,,,36,0,0,,,4,,,61,64
23239,note_off,,,,,1,0,0,,,4,,,64,64
23239,note_on,,,,,0,0,0,,,2,,,71,123
23240,note_on,,,,,1,0,0,,,4,,,50,127
23240,note_on,,,,,0,0,0,,,4,,,62,121
23246,note_off,,,,,6,0,0,,,2,,,73,64
23284,note_on,,,,,38,0,0,,,1,,,81,121
23330,note_on,,,,,46,0,0,,,2,,,70,126
23331,note_on,,,,,1,0,0,,,4,,,61,122
23331,note_on,,,,,0,0,0,,,4,,,49,127
23339,note_off,,,,,8,0,0,,,4,,,50,64
23340,note_off,,,,,1,0,0,,,2,,,71,64
23340,note_off,,,,,0,0,0,,,4,,,62,64
23374,note_off,,,,,34,0,0,,,1,,,81,64
23378,note_on,,,,,4,0,0,,,1,,,81,121
23424,note_on,,,,,46,0,0,,,2,,,71,123
23425,note_on,,,,,1,0,0,,,4,,,50,127
23425,note_on,,,,,0,0,0,,,4,,,62,121
23431,note_off,,,,,6,0,0,,,4,,,49,64
23432,note_off,,,,,1,0,0,,,4,,,61,64
23432,note_off,,,,,0,0,0,,,2,,,70,64
23468,note_off,,,,,36,0,0,,,1,,,81,64
23471,note_on,,,,,3,0,0,,,1,,,81,121
23517,note_on,,,,,46,0,0,,,4,,,61,122
23517,note_on,,,,,0,0,0,,,2,,,70,126
23518,note_on,,,,,1,0,0,,,4,,,49,127
23525,note_off,,,,,7,0,0,,,4,,,50,64
23526,note_off,,,,,1,0,0,,,2,,,71,64
23526,note_off,,,,,0,0,0,,,4,,,62,64
23560,note_off,,,,,34,0,0,,,1,,,81,64
23563,note_on,,,,,3,0,0,,,1,,,81,121
23611,note_on,,,,,48,0,0,,,4,,,62,121
23611,note_on,,,,,0,0,0,,,2,,,71,123
23612,note_on,,,,,1,0,0,,,4,,,50,127
23618,note_off,,,,,6,0,0,,,4,,,49,64
23619,note_off,,,,,1,0,0,,,2,,,70,64
23619,note_off,,,,,0,0,0,,,4,,,61,64
23654,note_off,,,,,35,0,0,,,1,,,81,64
23656,note_on,,,,,2,0,0,,,2,,,74,124
23664,note_off,,,,,8,0,0,,,2,,,71,64
23700,note_on,,,,,36,0,0,,,1,,,78,121
23708,note_off,,,,,8,0,0,,,2,,,74,64
23744,note_on,,,,,36,0,0,,,2,,,76,124
23752,note_off,,,,,8,0,0,,,1,,,78,64
23787,note_on,,,,,35,0,0,,,1,,,79,121
23795,note_off,,,,,8,0,0,,,2,,,76,64
23832,note_on,,,,,37,0,0,,,1,,,78,121
23839,note_off,,,,,7,0,0,,,1,,,79,64
23876,note_on,,,,,37,0,0,,,2,,,76,124
23884,note_off,,,,,8,0,0,,,1,,,78,64
23921,note_on,,,,,37,0,0,,,2,,,74,124
23928,note_off,,,,,7,0,0,,,2,,,76,64
23959,note_off,,,,,31,0,0,,,4,,,50,64
23960,note_off,,,,,1,0,0,,,4,,,62,64
23966,note_on,,,,,6,0,0,,,4,,,64,119
23966,note_on,,,,,0,0,0,,,2,,,73,124
23967,note_on,,,,,1,0,0,,,4,,,52,127
23975,note_off,,,,,8,0,0,,,2,,,74,64
24013,note_on,,,,,38,0,0,,,1,,,81,121
24059,note_on,,,,,46,0,0,,,2,,,72,124
24060,note_on,,,,,1,0,0,,,4,,,63,120
24060,note_on,,,,,0,0,0,,,4,,,51,127
24068,note_off,,,,,8,0,0,,,4,,,52,64
24069,note_off,,,,,1,0,0,,,2,,,73,64
24069,note_off,,,,,0,0,0,,,4,,,64,64
24104,note_off,,,,,35,0,0,,,1,,,81,64
24106,note_on,,,,,2,0,0,,,1,,,81,121
24152,note_on,,,,,46,0,0,,,2,,,73,124
24153,note_on,,,,,1,0,0,,,4,,,52,127
24153,note_on,,,,,0,0,0,,,4,,,64,119
24161,note_off,,,,,8,0,0,,,4,,,51,64
24161,note_off,,,,,0,0,0,,,4,,,63,64
24162,note_off,,,,,1,0,0,,,2,,,72,64
24196,note_off,,,,,34,0,0,,,1,,,81,64
24198,note_on,,,,,2,0,0,,,1,,,81,121
24246,note_on,,,,,48,0,0,,,2,,,72,124
24247,note_on,,,,,1,0,0,,,4,,,63,120
24247,note_on,,,,,0,0,0,,,4,,,51,127
24253,note_off,,,,,6,0,0,,,4,,,52,64
24254,note_off,,,,,1,0,0,,,2,,,73,64
24254,note_off,,,,,0,0,0,,,4,,,64,64
24289,note_off,,,,,35,0,0,,,1,,,81,64
24291,note_on,,,,,2,0,0,,,1,,,81,121
24337,note_on,,,,,46,0,0,,,2,,,73,124
24338,note_on,,,,,1,0,0,,,4,,,52,127
24338,note_on,,,,,0,0,0,,,4,,,64,119
24346,note_off,,,,,8,0,0,,,4,,,51,64
24347,note_off,,,,,1,0,0,,,4,,,63,64
24347,note_off,,,,,0,0,0,,,2,,,72,64
24382,note_off,,,,,35,0,0,,,1,,,81,64
24385,note_on,,,,,3,0,0,,,2,,,76,124
24391,note_off,,,,,6,0,0,,,2,,,73,64
24432,note_on,,,,,41,0,0,,,1,,,79,121
24439,note_off,,,,,7,0,0,,,2,,,76,64
24475,note_on,,,,,36,0,0,,,1,,,78,121
24482,note_off,,,,,7,0,0,,,1,,,79,64
24519,note_on,,,,,37,0,0,,,1,,,81,121
24527,note_off,,,,,8,0,0,,,1,,,78,64
24563,note_on,,,,,36,0,0,,,1,,,79,121
24569,note_off,,,,,6,0,0,,,1,,,81,64
24607,note_on,,,,,38,0,0,,,1,,,78,121
24615,note_off,,,,,8,0,0,,,1,,,79,64
24653,note_on,,,,,38,0,0,,,2,,,76,124
24659,note_off,,,,,6,0,0,,,1,,,78,64
24690,note_off,,,,,31,0,0,,,4,,,64,64
24690,note_off,,,,,0,0,0,,,4,,,52,64
24698,note_on,,,,,8,0,0,,,2,,,74,124
24699,note_on,,,,,1,0,0,,,4,,,54,127
24699,note_on,,,,,0,0,0,,,4,,,66,121
24705,note_off,,,,,6,0,0,,,2,,,76,64
24744,note_on,,,,,39,0,0,,,1,,,81,121
24792,note_on,,,,,48,0,0,,,2,,,73,124
24792,note_on,,,,,0,0,0,,,4,,,65,121
24792,note_on,,,,,0,0,0,,,4,,,53,127
24798,note_off,,,,,6,0,0,,,4,,,54,64
24799,note_off,,,,,1,0,0,,,2,,,74,64
24799,note_off,,,,,0,0,0,,,4,,,66,64
24834,note_off,,,,,35,0,0,,,1,,,81,64
24838,note_on,,,,,4,0,0,,,1,,,81,121
24884,note_on,,,,,46,0,0,,,4,,,66,121
24884,note_on,,,,,0,0,0,,,2,,,74,124
24885,note_on,,,,,1,0,0,,,4,,,54,127
24892,note_off,,,,,7,0,0,,,4,,,53,64
24892,note_off,,,,,0,0,0,,,4,,,65,64
24893,note_off,,,,,1,0,0,,,2,,,73,64
24927,note_off,,,,,34,0,0,,,1,,,81,64
24931,note_on,,,,,4,0,0,,,1,,,81,121
24977,note_on,,,,,46,0,0,,,2,,,73,124
24977,note_on,,,,,0,0,0,,,4,,,65,121
24978,note_on,,,,,1,0,0,,,4,,,53,127
24984,note_off,,,,,6,0,0,,,2,,,74,64
24984,note_off,,,,,0,0,0,,,4,,,66,64
24984,note_off,,,,,0,0,0,,,4,,,54,64
25020,note_off,,,,,36,0,0,,,1,,,81,64
25022,note_on,,,,,2,0,0,,,1,,,81,121
25070,note_on,,,,,48,0,0,,,2,,,74,124
25071,note_on,,,,,1,0,0,,,4,,,54,127
25071,note_on,,,,,0,0,0,,,4,,,66,121
25078,note_off,,,,,7,0,0,,,4,,,53,64
25078,note_off,,,,,0,0,0,,,4,,,65,64
25079,note_off,,,,,1,0,0,,,2,,,73,64
25113,note_off,,,,,34,0,0,,,1,,,81,64
25114,note_on,,,,,1,0,0,,,1,,,78,119
25121,note_off,,,,,7,0,0,,,2,,,74,64
25161,note_on,,,,,40,0,0,,,1,,,81,119
25167,note_off,,,,,6,0,0,,,1,,,78,64
25206,note_on,,,,,39,0,0,,,1,,,80,119
25213,note_off,,,,,7,0,0,,,1,,,81,64
25249,note_on,,,,,36,0,0,,,1,,,83,119
25256,note_off,,,,,7,0,0,,,1,,,80,64
25294,note_on,,,,,38,0,0,,,1,,,81,119
25302,note_off,,,,,8,0,0,,,1,,,83,64
25338,note_on,,,,,36,0,0,,,1,,,80,119
25344,note_off,,,,,6,0,0,,,1,,,81,64
25382,note_on,,,,,38,0,0,,,1,,,81,119
25390,note_off,,,,,8,0,0,,,1,,,80,64
25421,note_off,,,,,31,0,0,,,4,,,66,64
25421,note_off,,,,,0,0,0,,,4,,,54,64
25428,note_on,,,,,7,0,0,,,4,,,53,127
25428,note_on,,,,,0,0,0,,,2,,,75,122
25436,note_off,,,,,8,0,0,,,1,,,81,64
25475,note_on,,,,,39,0,0,,,4,,,57,127
25521,note_on,,,,,46,0,0,,,1,,,81,119
25521,note_on,,,,,0,0,0,,,4,,,60,122
25537,note_off,,,,,16,0,0,,,4,,,53,64
25568,note_on,,,,,31,0,0,,,4,,,63,117
25575,note_off,,,,,7,0,0,,,4,,,57,64
25583,note_off,,,,,8,0,0,,,2,,,75,64
25614,note_on,,,,,31,0,0,,,4,,,53,127
25621,note_off,,,,,7,0,0,,,4,,,60,64
25660,note_on,,,,,39,0,0,,,4,,,57,127
25706,note_off,,,,,46,0,0,,,4,,,63,64
25706,note_on,,,,,0,0,0,,,1,,,84,119
25707,note_on,,,,,1,0,0,,,4,,,60,122
25708,note_off,,,,,1,0,0,,,1,,,81,64
25722,note_off,,,,,14,0,0,,,4,,,53,64
25753,note_on,,,,,31,0,0,,,4,,,63,117
25761,note_off,,,,,8,0,0,,,4,,,57,64
25799,note_on,,,,,38,0,0,,,4,,,53,127
25807,note_off,,,,,8,0,0,,,4,,,60,64
25845,note_on,,,,,38,0,0,,,4,,,57,127
25893,note_off,,,,,48,0,0,,,4,,,63,64
25894,note_on,,,,,1,0,0,,,4,,,60,122
25894,note_on,,,,,0,0,0,,,1,,,83,119
25895,note_off,,,,,1,0,0,,,1,,,84,64
25908,note_off,,,,,13,0,0,,,4,,,53,64
25939,note_on,,,,,31,0,0,,,4,,,63,117
25947,note_off,,,,,8,0,0,,,4,,,57,64
25985,note_on,,,,,38,0,0,,,4,,,53,127
25993,note_off,,,,,8,0,0,,,4,,,60,64
26032,note_on,,,,,39,0,0,,,4,,,57,127
26078,note_off,,,,,46,0,0,,,4,,,63,64
26079,note_on,,,,,1,0,0,,,4,,,60,122
26079,note_on,,,,,0,0,0,,,1,,,81,119
26081,note_off,,,,,2,0,0,,,1,,,83,64
26093,note_off,,,,,12,0,0,,,4,,,53,64
26125,note_on,,,,,32,0,0,,,4,,,63,117
26132,note_off,,,,,7,0,0,,,4,,,57,64
26165,note_off,,,,,33,0,0,,,1,,,81,64
26169,note_off,,,,,4,0,0,,,4,,,60,64
26171,note_on,,,,,2,0,0,,,4,,,52,127
26171,note_on,,,,,0,0,0,,,1,,,80,119
26217,note_off,,,,,46,0,0,,,4,,,63,64
26263,note_on,,,,,46,0,0,,,3,,,64,124
26349,note_off,,,,,86,0,0,,,3,,,64,64
26357,note_on,,,,,8,0,0,,,3,,,64,124
26357,note_on,,,,,0,0,0,,,3,,,68,121
26435,note_off,,,,,78,0,0,,,1,,,80,64
26442,note_off,,,,,7,0,0,,,3,,,64,64
26446,note_off,,,,,4,0,0,,,3,,,68,64
26450,note_on,,,,,4,0,0,,,2,,,76,110
26450,note_on,,,,,0,0,0,,,3,,,68,121
26451,note_on,,,,,1,0,0,,,3,,,64,124
26535,note_off,,,,,84,0,0,,,3,,,64,64
26536,note_off,,,,,1,0,0,,,2,,,76,64
26540,note_off,,,,,4,0,0,,,3,,,68,64
26542,note_on,,,,,2,0,0,,,2,,,77,105
26543,note_on,,,,,1,0,0,,,2,,,73,107
26543,note_on,,,,,0,0,0,,,3,,,70,106
26544,note_on,,,,,1,0,0,,,3,,,64,124
26627,note_off,,,,,83,0,0,,,3,,,64,64
26628,note_off,,,,,1,0,0,,,2,,,77,64
26631,note_off,,,,,3,0,0,,,3,,,70,64
26635,note_on,,,,,4,0,0,,,1,,,78,102
26636,note_on,,,,,1,0,0,,,3,,,64,124
26636,note_on,,,,,0,0,0,,,3,,,70,106
26719,note_off,,,,,83,0,0,,,3,,,64,64
26723,note_off,,,,,4,0,0,,,2,,,73,64
26724,note_off,,,,,1,0,0,,,3,,,70,64
26726,note_on,,,,,2,0,0,,,2,,,74,105
26727,note_on,,,,,1,0,0,,,3,,,71,108
26727,note_on,,,,,0,0,0,,,3,,,64,124
26812,note_off,,,,,85,0,0,,,3,,,64,64
26812,note_off,,,,,0,0,0,,,1,,,78,64
26819,note_off,,,,,7,0,0,,,3,,,71,64
26820,note_on,,,,,1,0,0,,,1,,,78,102
26821,note_on,,,,,1,0,0,,,3,,,64,124
26821,note_on,,,,,0,0,0,,,3,,,71,108
26906,note_off,,,,,85,0,0,,,2,,,74,64
26906,note_off,,,,,0,0,0,,,3,,,64,64
26913,note_off,,,,,7,0,0,,,3,,,71,64
26915,note_off,,,,,2,0,0,,,1,,,78,64
26915,note_on,,,,,0,0,0,,,2,,,75,105
26916,note_on,,,,,1,0,0,,,3,,,68,116
26916,note_on,,,,,0,0,0,,,3,,,64,124
26999,note_off,,,,,83,0,0,,,3,,,64,64
27005,note_off,,,,,6,0,0,,,3,,,68,64
27005,note_off,,,,,0,0,0,,,2,,,75,64
27008,note_on,,,,,3,0,0,,,2,,,76,115
27008,note_on,,,,,0,0,0,,,3,,,68,116
27009,note_on,,,,,1,0,0,,,3,,,64,124
27095,note_off,,,,,86,0,0,,,3,,,64,64
27101,note_off,,,,,6,0,0,,,3,,,68,64
27103,note_on,,,,,2,0,0,,,3,,,69,116
27103,note_on,,,,,0,0,0,,,2,,,73,117
27104,note_on,,,,,1,0,0,,,3,,,64,124
27188,note_off,,,,,84,0,0,,,3,,,64,64
27189,note_off,,,,,1,0,0,,,2,,,76,64
27193,note_off,,,,,4,0,0,,,3,,,69,64
27197,note_off,,,,,4,0,0,,,2,,,73,64
27197,note_on,,,,,0,0,0,,,2,,,76,115
27198,note_on,,,,,1,0,0,,,3,,,69,116
27198,note_on,,,,,0,0,0,,,3,,,64,124
27274,note_off,,,,,76,0,0,,,2,,,76,64
27281,note_off,,,,,7,0,0,,,3,,,64,64
27287,note_off,,,,,6,0,0,,,3,,,69,64
27289,note_on,,,,,2,0,0,,,3,,,66,121
27289,note_on,,,,,0,0,0,,,1,,,81,112
27290,note_on,,,,,1,0,0,,,3,,,64,124
27374,note_off,,,,,84,0,0,,,3,,,64,64
27378,note_off,,,,,4,0,0,,,3,,,66,64
27382,note_off,,,,,4,0,0,,,1,,,81,64
27383,note_on,,,,,1,0,0,,,2,,,74,115
27383,note_on,,,,,0,0,0,,,3,,,66,121
27384,note_on,,,,,1,0,0,,,3,,,64,124
27467,note_off,,,,,83,0,0,,,3,,,64,64
27471,note_off,,,,,4,0,0,,,3,,,66,64
27474,note_on,,,,,3,0,0,,,3,,,71,118
27475,note_on,,,,,1,0,0,,,3,,,68,116
27475,note_on,,,,,0,0,0,,,3,,,64,124
27560,note_off,,,,,85,0,0,,,3,,,64,64
27560,note_off,,,,,0,0,0,,,2,,,74,64
27564,note_off,,,,,4,0,0,,,3,,,68,64
27567,note_on,,,,,3,0,0,,,3,,,64,124
27567,note_on,,,,,0,0,0,,,3,,,68,116
27567,note_on,,,,,0,0,0,,,2,,,74,115
27652,note_off,,,,,85,0,0,,,2,,,74,64
27653,note_off,,,,,1,0,0,,,3,,,71,64
27653,note_off,,,,,0,0,0,,,3,,,64,64
27658,note_off,,,,,5,0,0,,,3,,,68,64
27661,note_on,,,,,3,0,0,,,2,,,72,119
27662,note_on,,,,,1,0,0,,,3,,,69,116
27662,note_on,,,,,0,0,0,,,3,,,64,124
27745,note_off,,,,,83,0,0,,,3,,,64,64
27749,note_off,,,,,4,0,0,,,3,,,69,64
27751,note_off,,,,,2,0,0,,,2,,,72,64
27751,note_on,,,,,0,0,0,,,2,,,73,117
27752,note_on,,,,,1,0,0,,,3,,,69,116
27752,note_on,,,,,0,0,0,,,3,,,64,124
27836,note_off,,,,,84,0,0,,,3,,,64,64
27836,note_off,,,,,0,0,0,,,2,,,73,64
27844,note_on,,,,,8,0,0,,,2,,,73,117
27845,note_on,,,,,1,0,0,,,3,,,64,124
27928,note_off,,,,,83,0,0,,,3,,,64,64
27928,note_off,,,,,0,0,0,,,2,,,73,64
27935,note_on,,,,,7,0,0,,,2,,,76,120
27935,note_on,,,,,0,0,0,,,2,,,73,122
27936,note_on,,,,,1,0,0,,,3,,,64,124
27995,note_off,,,,,59,0,0,,,3,,,69,64
28018,note_off,,,,,23,0,0,,,3,,,64,64
28019,note_off,,,,,1,0,0,,,2,,,73,64
28019,note_off,,,,,0,0,0,,,2,,,76,64
28025,note_on,,,,,6,0,0,,,2,,,74,120
28025,note_on,,,,,0,0,0,,,1,,,78,117
28026,note_on,,,,,1,0,0,,,3,,,64,124
28072,note_on,,,,,46,0,0,,,1,,,80,117
28080,note_off,,,,,8,0,0,,,1,,,78,64
28117,note_on,,,,,37,0,0,,,1,,,81,117
28125,note_off,,,,,8,0,0,,,1,,,80,64
28161,note_on,,,,,36,0,0,,,1,,,80,117
28169,note_off,,,,,8,0,0,,,1,,,81,64
28206,note_on,,,,,37,0,0,,,1,,,83,117
28213,note_off,,,,,7,0,0,,,1,,,80,64
28249,note_on,,,,,36,0,0,,,1,,,81,117
28257,note_off,,,,,8,0,0,,,1,,,83,64
28294,note_on,,,,,37,0,0,,,1,,,80,117
28301,note_off,,,,,7,0,0,,,1,,,81,64
28338,note_on,,,,,37,0,0,,,1,,,78,117
28345,note_off,,,,,7,0,0,,,1,,,80,64
28374,note_off,,,,,29,0,0,,,2,,,74,64
28383,note_on,,,,,9,0,0,,,2,,,73,122
28383,note_on,,,,,0,0,0,,,2,,,76,120
28390,note_off,,,,,7,0,0,,,1,,,78,64
28428,note_on,,,,,38,0,0,,,1,,,81,117
28436,note_off,,,,,8,0,0,,,2,,,76,64
28472,note_on,,,,,36,0,0,,,1,,,85,117
28479,note_off,,,,,7,0,0,,,1,,,81,64
28517,note_on,,,,,38,0,0,,,1,,,80,117
28527,note_off,,,,,10,0,0,,,1,,,85,64
28562,note_on,,,,,35,0,0,,,1,,,81,117
28562,note_on,,,,,0,0,0,,,3,,,69,121
28569,note_off,,,,,7,0,0,,,1,,,80,64
28571,note_off,,,,,2,0,0,,,2,,,73,64
28606,note_on,,,,,35,0,0,,,2,,,76,120
28613,note_off,,,,,7,0,0,,,1,,,81,64
28621,note_off,,,,,8,0,0,,,4,,,52,64
28652,note_on,,,,,31,0,0,,,1,,,78,117
28657,note_off,,,,,5,0,0,,,2,,,76,64
28697,note_on,,,,,40,0,0,,,2,,,73,122
28704,note_off,,,,,7,0,0,,,1,,,78,64
28741,note_on,,,,,37,0,0,,,3,,,71,123
28741,note_on,,,,,0,0,0,,,2,,,74,120
28746,note_off,,,,,5,0,0,,,3,,,69,64
28750,note_off,,,,,4,0,0,,,2,,,73,64
28788,note_on,,,,,38,0,0,,,2,,,76,120
28796,note_off,,,,,8,0,0,,,2,,,74,64
28832,note_on,,,,,36,0,0,,,1,,,78,117
28840,note_off,,,,,8,0,0,,,2,,,76,64
28878,note_on,,,,,38,0,0,,,2,,,76,120
28884,note_off,,,,,6,0,0,,,1,,,78,64
28922,note_on,,,,,38,0,0,,,1,,,80,117
28923,note_off,,,,,1,0,0,,,3,,,71,64
28923,note_on,,,,,0,0,0,,,3,,,68,121
28931,note_off,,,,,8,0,0,,,2,,,76,64
28968,note_on,,,,,37,0,0,,,1,,,78,117
28975,note_off,,,,,7,0,0,,,1,,,80,64
29012,note_on,,,,,37,0,0,,,2,,,76,120
29019,note_off,,,,,7,0,0,,,1,,,78,64
29058,note_on,,,,,39,0,0,,,2,,,74,120
29065,note_off,,,,,7,0,0,,,2,,,76,64
29104,note_on,,,,,39,0,0,,,2,,,73,122
29112,note_off,,,,,8,0,0,,,2,,,74,64
29148,note_on,,,,,36,0,0,,,2,,,76,120
29156,note_off,,,,,8,0,0,,,2,,,73,64
29194,note_on,,,,,38,0,0,,,1,,,81,122
29202,note_off,,,,,8,0,0,,,2,,,76,64
29238,note_on,,,,,36,0,0,,,1,,,80,122
29248,note_off,,,,,10,0,0,,,1,,,81,64
29284,note_on,,,,,36,0,0,,,1,,,81,124
29292,note_off,,,,,8,0,0,,,1,,,80,64
29330,note_on,,,,,38,0,0,,,2,,,76,125
29375,note_off,,,,,45,0,0,,,3,,,64,64
29375,note_on,,,,,0,0,0,,,2,,,73,125
29376,note_on,,,,,1,0,0,,,4,,,45,127
29376,note_on,,,,,0,0,0,,,4,,,33,127
29421,note_off,,,,,45,0,0,,,3,,,68,64
29421,note_on,,,,,0,0,0,,,3,,,69,126
29462,note_off,,,,,41,0,0,,,1,,,81,64
29466,note_off,,,,,4,0,0,,,4,,,33,64
29466,note_off,,,,,0,0,0,,,4,,,45,64
29467,note_on,,,,,1,0,0,,,4,,,49,127
29467,note_on,,,,,0,0,0,,,1,,,81,124
29468,note_on,,,,,1,0,0,,,4,,,37,127
29506,note_off,,,,,38,0,0,,,2,,,76,64
29512,note_on,,,,,6,0,0,,,2,,,76,125
29549,note_off,,,,,37,0,0,,,2,,,73,64
29556,note_off,,,,,7,0,0,,,4,,,49,64
29556,note_off,,,,,0,0,0,,,4,,,37,64
29557,note_on,,,,,1,0,0,,,2,,,73,125
29557,note_on,,,,,0,0,0,,,4,,,52,127
29558,note_on,,,,,1,0,0,,,4,,,40,127
29594,note_off,,,,,36,0,0,,,3,,,69,64
29602,note_on,,,,,8,0,0,,,3,,,69,126
29642,note_off,,,,,40,0,0,,,1,,,81,64
29646,note_off,,,,,4,0,0,,,4,,,40,64
29647,note_off,,,,,1,0,0,,,4,,,52,64
29647,note_on,,,,,0,0,0,,,1,,,81,124
29648,note_on,,,,,1,0,0,,,4,,,45,127
29648,note_on,,,,,0,0,0,,,4,,,57,127
29687,note_off,,,,,39,0,0,,,2,,,76,64
29690,note_on,,,,,3,0,0,,,2,,,76,125
29729,note_off,,,,,39,0,0,,,2,,,73,64
29736,note_on,,,,,7,0,0,,,2,,,73,125
29773,note_off,,,,,37,0,0,,,3,,,69,64
29781,note_on,,,,,8,0,0,,,3,,,69,126
29821,note_off,,,,,40,0,0,,,1,,,81,64
29825,note_on,,,,,4,0,0,,,1,,,78,124
29840,note_off,,,,,15,0,0,,,2,,,76,64
29871,note_on,,,,,31,0,0,,,1,,,80,124
29879,note_off,,,,,8,0,0,,,1,,,78,64
29915,note_on,,,,,36,0,0,,,1,,,81,124
29923,note_off,,,,,8,0,0,,,1,,,80,64
29960,note_on,,,,,37,0,0,,,1,,,80,124
29968,note_off,,,,,8,0,0,,,1,,,81,64
30005,note_off,,,,,37,0,0,,,4,,,57,64
30005,note_off,,,,,0,0,0,,,4,,,45,64
30006,note_on,,,,,1,0,0,,,1,,,81,124
30013,note_off,,,,,7,0,0,,,1,,,80,64
30050,note_on,,,,,37,0,0,,,1,,,78,124
30088,note_off,,,,,38,0,0,,,2,,,73,64
30096,note_on,,,,,8,0,0,,,2,,,74,125
30096,note_on,,,,,0,0,0,,,4,,,50,127
30097,note_on,,,,,1,0,0,,,4,,,38,127
30134,note_off,,,,,37,0,0,,,3,,,69,64
30141,note_on,,,,,7,0,0,,,2,,,69,126
30181,note_off,,,,,40,0,0,,,1,,,81,64
30185,note_off,,,,,4,0,0,,,4,,,38,64
30186,note_off,,,,,1,0,0,,,4,,,50,64
30186,note_on,,,,,0,0,0,,,1,,,81,124
30187,note_on,,,,,1,0,0,,,4,,,42,127
30187,note_on,,,,,0,0,0,,,4,,,54,127
30226,note_off,,,,,39,0,0,,,1,,,78,64
30230,note_on,,,,,4,0,0,,,1,,,78,124
30269,note_off,,,,,39,0,0,,,2,,,74,64
30276,note_off,,,,,7,0,0,,,4,,,42,64
30277,note_off,,,,,1,0,0,,,4,,,54,64
30277,note_on,,,,,0,0,0,,,2,,,74,125
30277,note_on,,,,,0,0,0,,,4,,,57,127
30278,note_on,,,,,1,0,0,,,4,,,45,127
30314,note_off,,,,,36,0,0,,,2,,,69,64
30322,note_on,,,,,8,0,0,,,2,,,69,126
30361,note_off,,,,,39,0,0,,,1,,,81,64
30366,note_off,,,,,5,0,0,,,4,,,45,64
30366,note_off,,,,,0,0,0,,,4,,,57,64
30367,note_on,,,,,1,0,0,,,4,,,62,127
30367,note_on,,,,,0,0,0,,,1,,,81,126
30368,note_on,,,,,1,0,0,,,4,,,50,127
30406,note_off,,,,,38,0,0,,,1,,,78,64
30412,note_on,,,,,6,0,0,,,1,,,78,126
30448,note_off,,,,,36,0,0,,,2,,,74,64
30456,note_on,,,,,8,0,0,,,2,,,74,127
30494,note_off,,,,,38,0,0,,,2,,,69,64
30502,note_on,,,,,8,0,0,,,2,,,69,126
30540,note_off,,,,,38,0,0,,,4,,,62,64
30540,note_off,,,,,0,0,0,,,4,,,50,64
30542,note_off,,,,,2,0,0,,,1,,,81,64
30546,note_off,,,,,4,0,0,,,2,,,74,64
30547,note_off,,,,,1,0,0,,,1,,,78,64
30547,note_on,,,,,0,0,0,,,2,,,76,127
30548,note_on,,,,,1,0,0,,,2,,,73,127
30548,note_on,,,,,0,0,0,,,4,,,64,124
30549,note_on,,,,,1,0,0,,,4,,,52,127
30632,note_off,,,,,83,0,0,,,4,,,52,64
30632,note_off,,,,,0,0,0,,,4,,,64,64
30640,note_on,,,,,8,0,0,,,4,,,64,124
30641,note_on,,,,,1,0,0,,,4,,,52,127
30685,note_off,,,,,44,0,0,,,2,,,73,64
30686,note_off,,,,,1,0,0,,,2,,,76,64
30686,note_on,,,,,0,0,0,,,1,,,78,116
30687,note_on,,,,,1,0,0,,,2,,,74,119
30705,note_off,,,,,18,0,0,,,2,,,74,64
30718,note_on,,,,,13,0,0,,,2,,,74,119
30719,note_on,,,,,1,0,0,,,2,,,71,118
30727,note_off,,,,,8,0,0,,,2,,,69,64
30727,note_off,,,,,0,0,0,,,1,,,78,64
30733,note_off,,,,,6,0,0,,,4,,,52,64
30734,note_off,,,,,1,0,0,,,4,,,64,64
30741,note_off,,,,,7,0,0,,,2,,,74,64
30741,note_on,,,,,0,0,0,,,2,,,73,119
30742,note_on,,,,,1,0,0,,,2,,,69,126
30743,note_on,,,,,1,0,0,,,4,,,64,124
30743,note_on,,,,,0,0,0,,,4,,,52,127
30762,note_off,,,,,19,0,0,,,2,,,71,64
30823,note_off,,,,,61,0,0,,,4,,,52,64
30824,note_off,,,,,1,0,0,,,4,,,64,64
30830,note_on,,,,,6,0,0,,,4,,,64,124
30831,note_on,,,,,1,0,0,,,4,,,52,127
30916,note_off,,,,,85,0,0,,,4,,,52,64
30916,note_off,,,,,0,0,0,,,4,,,64,64
30923,note_on,,,,,7,0,0,,,4,,,52,127
30923,note_on,,,,,0,0,0,,,4,,,64,124
30985,note_off,,,,,62,0,0,,,2,,,73,64
31008,note_off,,,,,23,0,0,,,4,,,64,64
31008,note_off,,,,,0,0,0,,,4,,,52,64
31015,note_on,,,,,7,0,0,,,2,,,76,127
31015,note_on,,,,,0,0,0,,,2,,,73,127
31016,note_on,,,,,1,0,0,,,4,,,64,124
31016,note_on,,,,,0,0,0,,,4,,,52,127
31097,note_off,,,,,81,0,0,,,4,,,52,64
31098,note_off,,,,,1,0,0,,,4,,,64,64
31106,note_on,,,,,8,0,0,,,2,,,74,127
31106,note_on,,,,,0,0,0,,,2,,,71,127
31107,note_on,,,,,1,0,0,,,4,,,64,124
31107,note_on,,,,,0,0,0,,,4,,,52,127
31108,note_off,,,,,1,0,0,,,2,,,69,64
31112,note_off,,,,,4,0,0,,,2,,,73,64
31112,note_off,,,,,0,0,0,,,2,,,76,64
31186,note_off,,,,,74,0,0,,,4,,,52,64
31186,note_off,,,,,0,0,0,,,4,,,64,64
31190,note_off,,,,,4,0,0,,,2,,,71,64
31194,note_on,,,,,4,0,0,,,2,,,71,127
31195,note_on,,,,,1,0,0,,,4,,,64,124
31195,note_on,,,,,0,0,0,,,2,,,68,126
31196,note_on,,,,,1,0,0,,,4,,,52,127
31200,note_off,,,,,4,0,0,,,2,,,74,64
31286,note_on,,,,,86,0,0,,,2,,,73,127
31294,note_off,,,,,8,0,0,,,2,,,71,64
31332,note_on,,,,,38,0,0,,,2,,,76,127
31346,note_off,,,,,14,0,0,,,2,,,73,64
31377,note_on,,,,,31,0,0,,,1,,,81,126
31390,note_off,,,,,13,0,0,,,2,,,76,64
31423,note_off,,,,,33,0,0,,,1,,,81,64
31423,note_on,,,,,0,0,0,,,1,,,80,126
31468,note_off,,,,,45,0,0,,,1,,,80,64
31468,note_on,,,,,0,0,0,,,1,,,81,126
31513,note_on,,,,,45,0,0,,,2,,,76,127
31549,note_off,,,,,36,0,0,,,2,,,68,64
31557,note_off,,,,,8,0,0,,,4,,,52,64
31558,note_off,,,,,1,0,0,,,4,,,64,64
31558,note_on,,,,,0,0,0,,,2,,,73,127
31559,note_on,,,,,1,0,0,,,4,,,45,127
31559,note_on,,,,,0,0,0,,,4,,,33,127
31602,note_on,,,,,43,0,0,,,2,,,69,126
31644,note_off,,,,,42,0,0,,,1,,,81,64
31648,note_off,,,,,4,0,0,,,4,,,33,64
31649,note_off,,,,,1,0,0,,,4,,,45,64
31649,note_on,,,,,0,0,0,,,1,,,81,126
31650,note_on,,,,,1,0,0,,,4,,,37,127
31650,note_on,,,,,0,0,0,,,4,,,49,127
31689,note_off,,,,,39,0,0,,,2,,,76,64
31692,note_on,,,,,3,0,0,,,2,,,76,127
31735,note_off,,,,,43,0,0,,,2,,,73,64
31739,note_off,,,,,4,0,0,,,4,,,49,64
31739,note_off,,,,,0,0,0,,,4,,,37,64
31740,note_on,,,,,1,0,0,,,2,,,73,127
31740,note_on,,,,,0,0,0,,,4,,,52,127
31740,note_on,,,,,0,0,0,,,4,,,40,127
31775,note_off,,,,,35,0,0,,,2,,,69,64
31783,note_on,,,,,8,0,0,,,2,,,69,126
31823,note_off,,,,,40,0,0,,,1,,,81,64
31829,note_off,,,,,6,0,0,,,4,,,40,64
31829,note_off,,,,,0,0,0,,,4,,,52,64
31830,note_on,,,,,1,0,0,,,4,,,57,127
31830,note_on,,,,,0,0,0,,,1,,,81,126
31831,note_on,,,,,1,0,0,,,4,,,45,127
31869,note_off,,,,,38,0,0,,,2,,,76,64
31873,note_on,,,,,4,0,0,,,2,,,76,127
31913,note_off,,,,,40,0,0,,,2,,,73,64
31919,note_on,,,,,6,0,0,,,2,,,73,127
31956,note_off,,,,,37,0,0,,,2,,,69,64
31963,note_on,,,,,7,0,0,,,2,,,69,126
32004,note_off,,,,,41,0,0,,,1,,,81,64
32007,note_off,,,,,3,0,0,,,2,,,76,64
32008,note_on,,,,,1,0,0,,,1,,,78,126
32052,note_off,,,,,44,0,0,,,1,,,78,64
32053,note_on,,,,,1,0,0,,,1,,,80,126
32098,note_off,,,,,45,0,0,,,1,,,80,64
32098,note_on,,,,,0,0,0,,,1,,,81,126
32143,note_off,,,,,45,0,0,,,1,,,81,64
32143,note_on,,,,,0,0,0,,,1,,,80,126
32188,note_off,,,,,45,0,0,,,1,,,80,64
32188,note_off,,,,,0,0,0,,,4,,,45,64
32189,note_off,,,,,1,0,0,,,4,,,57,64
32189,note_on,,,,,0,0,0,,,1,,,81,126
32232,note_on,,,,,43,0,0,,,1,,,78,126
32271,note_off,,,,,39,0,0,,,2,,,73,64
32279,note_on,,,,,8,0,0,,,2,,,74,127
32279,note_on,,,,,0,0,0,,,4,,,50,127
32280,note_on,,,,,1,0,0,,,4,,,38,127
32317,note_off,,,,,37,0,0,,,2,,,69,64
32326,note_on,,,,,9,0,0,,,2,,,69,126
32364,note_off,,,,,38,0,0,,,1,,,81,64
32371,note_off,,,,,7,0,0,,,4,,,38,64
32371,note_off,,,,,0,0,0,,,4,,,50,64
32371,note_on,,,,,0,0,0,,,1,,,81,126
32372,note_on,,,,,1,0,0,,,4,,,42,127
32372,note_on,,,,,0,0,0,,,4,,,54,127
32411,note_off,,,,,39,0,0,,,1,,,78,64
32417,note_on,,,,,6,0,0,,,1,,,78,126
32457,note_off,,,,,40,0,0,,,2,,,74,64
32461,note_off,,,,,4,0,0,,,4,,,42,64
32461,note_on,,,,,0,0,0,,,2,,,74,127
32462,note_off,,,,,1,0,0,,,4,,,54,64
32462,note_on,,,,,0,0,0,,,4,,,57,127
32463,note_on,,,,,1,0,0,,,4,,,45,127
32500,note_off,,,,,37,0,0,,,2,,,69,64
32506,note_on,,,,,6,0,0,,,2,,,69,126
32546,note_off,,,,,40,0,0,,,1,,,81,64
32550,note_on,,,,,4,0,0,,,1,,,81,126
32552,note_off,,,,,2,0,0,,,4,,,45,64
32552,note_off,,,,,0,0,0,,,4,,,57,64
32553,note_on,,,,,1,0,0,,,4,,,50,127
32553,note_on,,,,,0,0,0,,,4,,,62,127
32592,note_off,,,,,39,0,0,,,1,,,78,64
32596,note_on,,,,,4,0,0,,,1,,,78,126
32636,note_off,,,,,40,0,0,,,2,,,74,64
32640,note_on,,,,,4,0,0,,,2,,,74,127
32679,note_off,,,,,39,0,0,,,2,,,69,64
32687,note_on,,,,,8,0,0,,,2,,,69,126
32692,note_off,,,,,5,0,0,,,2,,,74,64
32724,note_off,,,,,32,0,0,,,4,,,50,64
32725,note_off,,,,,1,0,0,,,4,,,62,64
32725,note_off,,,,,0,0,0,,,1,,,81,64
32732,note_off,,,,,7,0,0,,,1,,,78,64
32732,note_on,,,,,0,0,0,,,2,,,76,127
32733,note_on,,,,,1,0,0,,,2,,,73,127
32733,note_on,,,,,0,0,0,,,4,,,64,124
32734,note_on,,,,,1,0,0,,,4,,,52,127
32820,note_off,,,,,86,0,0,,,4,,,52,64
32820,note_off,,,,,0,0,0,,,4,,,64,64
32826,note_on,,,,,6,0,0,,,4,,,64,124
32827,note_on,,,,,1,0,0,,,4,,,52,127
32872,note_off,,,,,45,0,0,,,2,,,73,64
32872,note_off,,,,,0,0,0,,,2,,,76,64
32873,note_on,,,,,1,0,0,,,2,,,74,119
32873,note_on,,,,,0,0,0,,,1,,,78,116
32889,note_off,,,,,16,0,0,,,2,,,74,64
32899,note_on,,,,,10,0,0,,,2,,,74,119
32899,note_on,,,,,0,0,0,,,2,,,71,118
32907,note_off,,,,,8,0,0,,,1,,,78,64
32908,note_off,,,,,1,0,0,,,2,,,69,64
32916,note_off,,,,,8,0,0,,,4,,,64,64
32916,note_off,,,,,0,0,0,,,4,,,52,64
32925,note_off,,,,,9,0,0,,,2,,,74,64
32925,note_on,,,,,0,0,0,,,2,,,73,124
32926,note_on,,,,,1,0,0,,,2,,,69,126
32926,note_on,,,,,0,0,0,,,4,,,64,124
32927,note_on,,,,,1,0,0,,,4,,,52,127
32946,note_off,,,,,19,0,0,,,2,,,71,64
33009,note_off,,,,,63,0,0,,,4,,,52,64
33010,note_off,,,,,1,0,0,,,4,,,64,64
33018,note_on,,,,,8,0,0,,,4,,,64,124
33018,note_on,,,,,0,0,0,,,4,,,52,127
33105,note_off,,,,,87,0,0,,,4,,,52,64
33105,note_off,,,,,0,0,0,,,4,,,64,64
33112,note_on,,,,,7,0,0,,,4,,,52,127
33112,note_on,,,,,0,0,0,,,4,,,64,124
33176,note_off,,,,,64,0,0,,,2,,,73,64
33199,note_off,,,,,23,0,0,,,4,,,52,64
33200,note_off,,,,,1,0,0,,,4,,,64,64
33206,note_on,,,,,6,0,0,,,2,,,76,127
33206,note_on,,,,,0,0,0,,,2,,,73,127
33207,note_on,,,,,1,0,0,,,4,,,64,124
33207,note_on,,,,,0,0,0,,,4,,,52,127
33290,note_off,,,,,83,0,0,,,4,,,52,64
33291,note_off,,,,,1,0,0,,,4,,,64,64
33297,note_off,,,,,6,0,0,,,2,,,73,64
33298,note_off,,,,,1,0,0,,,2,,,76,64
33298,note_off,,,,,0,0,0,,,2,,,69,64
33299,note_on,,,,,1,0,0,,,2,,,71,127
33299,note_on,,,,,0,0,0,,,2,,,74,127
33300,note_on,,,,,1,0,0,,,4,,,52,127
33300,note_on,,,,,0,0,0,,,4,,,64,124
33380,note_off,,,,,80,0,0,,,2,,,71,64
33380,note_off,,,,,0,0,0,,,4,,,52,64
33381,note_off,,,,,1,0,0,,,4,,,64,64
33386,note_off,,,,,5,0,0,,,2,,,74,64
33387,note_on,,,,,1,0,0,,,2,,,71,127
33387,note_on,,,,,0,0,0,,,2,,,68,126
33388,note_on,,,,,1,0,0,,,4,,,64,124
33388,note_on,,,,,0,0,0,,,4,,,52,127
33480,note_off,,,,,92,0,0,,,2,,,68,64
33481,note_off,,,,,1,0,0,,,4,,,52,64
33481,note_off,,,,,0,0,0,,,2,,,71,64
33482,note_off,,,,,1,0,0,,,4,,,64,64
33482,note_on,,,,,0,0,0,,,2,,,69,126
33483,note_on,,,,,1,0,0,,,4,,,57,127
33624,note_off,,,,,141,0,0,,,2,,,69,64
33624,note_off,,,,,0,0,0,,,4,,,57,64
33624,note_on,,,,,0,0,0,,,2,,,71,127
33625,note_on,,,,,1,0,0,,,4,,,59,127
33650,note_on,,,,,25,0,0,,,2,,,68,126
33652,note_on,,,,,2,0,0,,,4,,,55,127
33660,note_off,,,,,8,0,0,,,2,,,71,64
33662,note_off,,,,,2,0,0,,,4,,,59,64
33679,note_on,,,,,17,0,0,,,4,,,66,126
33680,note_on,,,,,1,0,0,,,4,,,54,127
33686,note_off,,,,,6,0,0,,,4,,,55,64
33686,note_off,,,,,0,0,0,,,2,,,68,64
33797,note_off,,,,,111,0,0,,,4,,,66,64
33798,note_off,,,,,1,0,0,,,4,,,54,64
33822,note_on,,,,,24,0,0,,,2,,,68,126
33823,note_on,,,,,1,0,0,,,4,,,56,127
33848,note_on,,,,,25,0,0,,,4,,,64,124
33849,note_on,,,,,1,0,0,,,4,,,52,127
33859,note_off,,,,,10,0,0,,,2,,,68,64
33859,note_off,,,,,0,0,0,,,4,,,56,64
33877,note_off,,,,,18,0,0,,,4,,,64,64
33877,note_on,,,,,0,0,0,,,4,,,62,127
33878,note_on,,,,,1,0,0,,,4,,,50,127
33880,note_off,,,,,2,0,0,,,4,,,52,64
33997,note_off,,,,,117,0,0,,,4,,,50,64
33997,note_off,,,,,0,0,0,,,4,,,62,64
34021,note_on,,,,,24,0,0,,,4,,,64,124
34021,note_on,,,,,0,0,0,,,4,,,52,127
34048,note_on,,,,,27,0,0,,,4,,,49,127
34048,note_on,,,,,0,0,0,,,4,,,61,127
34059,note_off,,,,,11,0,0,,,4,,,64,64
34060,note_off,,,,,1,0,0,,,4,,,52,64
34078,note_on,,,,,18,0,0,,,4,,,47,127
34078,note_on,,,,,0,0,0,,,4,,,59,127
34086,note_off,,,,,8,0,0,,,4,,,61,64
34087,note_off,,,,,1,0,0,,,4,,,49,64
34216,note_off,,,,,129,0,0,,,4,,,59,64
34222,note_off,,,,,6,0,0,,,4,,,47,64
34224,note_on,,,,,2,0,0,,,4,,,61,127
34224,note_on,,,,,0,0,0,,,4,,,49,127
34249,note_on,,,,,25,0,0,,,4,,,57,127
34250,note_on,,,,,1,0,0,,,4,,,45,127
34258,note_off,,,,,8,0,0,,,4,,,61,64
34259,note_off,,,,,1,0,0,,,4,,,49,64
34279,note_on,,,,,20,0,0,,,4,,,56,127
34280,note_on,,,,,1,0,0,,,4,,,44,127
34286,note_off,,,,,6,0,0,,,4,,,57,64
34288,note_off,,,,,2,0,0,,,4,,,45,64
34464,note_on,,,,,176,0,0,,,2,,,76,127
34478,note_on,,,,,14,0,0,,,1,,,80,126
34489,note_on,,,,,11,0,0,,,1,,,82,126
34501,note_on,,,,,12,0,0,,,1,,,86,126
34651,note_off,,,,,150,0,0,,,4,,,56,64
34653,note_off,,,,,2,0,0,,,4,,,44,64
34653,note_on,,,,,0,0,0,,,4,,,57,127
34655,note_on,,,,,2,0,0,,,4,,,45,127
34747,note_off,,,,,92,0,0,,,2,,,76,64
34758,note_off,,,,,11,0,0,,,1,,,80,64
34768,note_off,,,,,10,0,0,,,1,,,82,64
34779,note_off,,,,,11,0,0,,,1,,,86,64
34841,note_on,,,,,62,0,0,,,2,,,73,127
34855,note_on,,,,,14,0,0,,,2,,,76,127
34873,note_on,,,,,18,0,0,,,1,,,81,126
34891,note_on,,,,,18,0,0,,,1,,,85,126
35048,note_off,,,,,157,0,0,,,4,,,57,64
35052,note_on,,,,,4,0,0,,,2,,,69,126
35053,note_on,,,,,1,0,0,,,4,,,62,127
35096,note_off,,,,,43,0,0,,,2,,,73,64
35105,note_off,,,,,9,0,0,,,2,,,76,64
35115,note_off,,,,,10,0,0,,,1,,,81,64
35126,note_off,,,,,11,0,0,,,1,,,85,64
35140,note_on,,,,,14,0,0,,,1,,,78,124
35238,note_on,,,,,98,0,0,,,2,,,77,125
35247,note_off,,,,,9,0,0,,,1,,,78,64
35326,note_on,,,,,79,0,0,,,1,,,78,124
35334,note_off,,,,,8,0,0,,,2,,,77,64
35414,note_on,,,,,80,0,0,,,2,,,77,125
35422,note_off,,,,,8,0,0,,,1,,,78,64
35508,note_on,,,,,86,0,0,,,1,,,78,124
35516,note_off,,,,,8,0,0,,,2,,,77,64
35596,note_on,,,,,80,0,0,,,1,,,80,124
35604,note_off,,,,,8,0,0,,,1,,,78,64
35684,note_on,,,,,80,0,0,,,1,,,81,124
35690,note_off,,,,,6,0,0,,,1,,,80,64
35774,note_on,,,,,84,0,0,,,2,,,72,125
35775,note_on,,,,,1,0,0,,,4,,,63,125
35789,note_off,,,,,14,0,0,,,2,,,69,64
35789,note_off,,,,,0,0,0,,,4,,,62,64
35855,note_off,,,,,66,0,0,,,1,,,81,64
35863,note_on,,,,,8,0,0,,,1,,,81,124
35953,note_on,,,,,90,0,0,,,1,,,80,124
35961,note_off,,,,,8,0,0,,,1,,,81,64
36049,note_on,,,,,88,0,0,,,1,,,81,124
36057,note_off,,,,,8,0,0,,,1,,,80,64
36135,note_on,,,,,78,0,0,,,1,,,80,124
36143,note_off,,,,,8,0,0,,,1,,,81,64
36229,note_on,,,,,86,0,0,,,1,,,81,124
36237,note_off,,,,,8,0,0,,,1,,,80,64
36322,note_on,,,,,85,0,0,,,1,,,83,124
36327,note_off,,,,,5,0,0,,,1,,,81,64
36410,note_on,,,,,83,0,0,,,1,,,84,124
36418,note_off,,,,,8,0,0,,,1,,,83,64
36425,note_off,,,,,7,0,0,,,4,,,45,64
36498,note_on,,,,,73,0,0,,,1,,,85,124
36499,note_on,,,,,1,0,0,,,4,,,52,127
36507,note_off,,,,,8,0,0,,,1,,,84,64
36515,note_off,,,,,8,0,0,,,2,,,72,64
36515,note_off,,,,,0,0,0,,,4,,,63,64
36545,note_on,,,,,30,0,0,,,1,,,88,125
36546,note_on,,,,,1,0,0,,,4,,,61,127
36562,note_off,,,,,16,0,0,,,1,,,85,64
36590,note_on,,,,,28,0,0,,,1,,,85,124
36591,note_on,,,,,1,0,0,,,4,,,57,127
36605,note_off,,,,,14,0,0,,,1,,,88,64
36626,note_off,,,,,21,0,0,,,4,,,61,64
36634,note_on,,,,,8,0,0,,,1,,,81,123
36634,note_on,,,,,0,0,0,,,4,,,61,127
36648,note_off,,,,,14,0,0,,,1,,,85,64
36649,note_off,,,,,1,0,0,,,4,,,52,64
36670,note_off,,,,,21,0,0,,,1,,,81,64
36678,note_on,,,,,8,0,0,,,4,,,52,127
36678,note_on,,,,,0,0,0,,,1,,,81,123
36715,note_off,,,,,37,0,0,,,4,,,61,64
36723,note_on,,,,,8,0,0,,,1,,,85,119
36723,note_on,,,,,0,0,0,,,4,,,61,127
36737,note_off,,,,,14,0,0,,,1,,,81,64
36738,note_off,,,,,1,0,0,,,4,,,57,64
36771,note_on,,,,,33,0,0,,,1,,,81,123
36771,note_on,,,,,0,0,0,,,4,,,57,127
36783,note_off,,,,,12,0,0,,,1,,,85,64
36807,note_off,,,,,24,0,0,,,4,,,61,64
36813,note_on,,,,,6,0,0,,,2,,,76,125
36814,note_on,,,,,1,0,0,,,4,,,61,127
36826,note_off,,,,,12,0,0,,,1,,,81,64
36826,note_off,,,,,0,0,0,,,4,,,52,64
36848,note_off,,,,,22,0,0,,,2,,,76,64
36854,note_on,,,,,6,0,0,,,4,,,52,127
36854,note_on,,,,,0,0,0,,,2,,,76,125
36891,note_off,,,,,37,0,0,,,4,,,61,64
36897,note_on,,,,,6,0,0,,,1,,,81,123
36898,note_on,,,,,1,0,0,,,4,,,61,127
36913,note_off,,,,,15,0,0,,,2,,,76,64
36913,note_off,,,,,0,0,0,,,4,,,57,64
36945,note_on,,,,,32,0,0,,,2,,,76,125
36946,note_on,,,,,1,0,0,,,4,,,57,127
36959,note_off,,,,,13,0,0,,,1,,,81,64
36980,note_off,,,,,21,0,0,,,4,,,61,64
36986,note_on,,,,,6,0,0,,,2,,,73,125
36987,note_on,,,,,1,0,0,,,4,,,61,127
37000,note_off,,,,,13,0,0,,,2,,,76,64
37001,note_off,,,,,1,0,0,,,4,,,52,64
37022,note_off,,,,,21,0,0,,,2,,,73,64
37030,note_on,,,,,8,0,0,,,2,,,73,125
37031,note_on,,,,,1,0,0,,,4,,,52,127
37070,note_off,,,,,39,0,0,,,4,,,61,64
37078,note_on,,,,,8,0,0,,,2,,,76,125
37079,note_on,,,,,1,0,0,,,4,,,61,127
37093,note_off,,,,,14,0,0,,,2,,,73,64
37093,note_off,,,,,0,0,0,,,4,,,57,64
37123,note_on,,,,,30,0,0,,,4,,,57,127
37123,note_on,,,,,0,0,0,,,2,,,73,125
37137,note_off,,,,,14,0,0,,,2,,,76,64
37160,note_off,,,,,23,0,0,,,4,,,61,64
37168,note_on,,,,,8,0,0,,,4,,,61,127
37168,note_on,,,,,0,0,0,,,2,,,69,123
37182,note_off,,,,,14,0,0,,,2,,,73,64
37183,note_off,,,,,1,0,0,,,4,,,52,64
37214,note_on,,,,,31,0,0,,,2,,,73,125
37214,note_on,,,,,0,0,0,,,4,,,52,127
37238,note_off,,,,,24,0,0,,,2,,,69,64
37260,note_on,,,,,22,0,0,,,2,,,71,122
37261,note_off,,,,,1,0,0,,,4,,,61,64
37271,note_on,,,,,10,0,0,,,4,,,62,127
37285,note_off,,,,,14,0,0,,,2,,,73,64
37286,note_off,,,,,1,0,0,,,4,,,57,64
37308,note_on,,,,,22,0,0,,,2,,,73,125
37318,note_on,,,,,10,0,0,,,4,,,56,127
37334,note_off,,,,,16,0,0,,,2,,,71,64
37350,note_on,,,,,16,0,0,,,2,,,71,122
37358,note_off,,,,,8,0,0,,,4,,,62,64
37365,note_on,,,,,7,0,0,,,4,,,62,127
37367,note_off,,,,,2,0,0,,,2,,,73,64
37381,note_off,,,,,14,0,0,,,4,,,52,64
37387,note_on,,,,,6,0,0,,,2,,,73,125
37414,note_on,,,,,27,0,0,,,4,,,52,127
37424,note_off,,,,,10,0,0,,,2,,,71,64
37445,note_on,,,,,21,0,0,,,2,,,71,124
37453,note_off,,,,,8,0,0,,,4,,,62,64
37461,note_on,,,,,8,0,0,,,4,,,62,127
37472,note_off,,,,,11,0,0,,,2,,,73,64
37476,note_off,,,,,4,0,0,,,4,,,56,64
37489,note_on,,,,,13,0,0,,,2,,,73,125
37511,note_on,,,,,22,0,0,,,4,,,56,127
37534,note_off,,,,,23,0,0,,,2,,,71,64
37547,note_on,,,,,13,0,0,,,2,,,71,119
37549,note_off,,,,,2,0,0,,,4,,,62,64
37557,note_on,,,,,8,0,0,,,4,,,62,127
37572,note_off,,,,,15,0,0,,,4,,,52,64
37580,note_off,,,,,8,0,0,,,2,,,73,64
37601,note_on,,,,,21,0,0,,,4,,,52,127
37604,note_on,,,,,3,0,0,,,2,,,73,124
37633,note_off,,,,,29,0,0,,,2,,,71,64
37639,note_off,,,,,6,0,0,,,4,,,62,64
37647,note_on,,,,,8,0,0,,,4,,,62,127
37651,note_on,,,,,4,0,0,,,2,,,71,119
37660,note_off,,,,,9,0,0,,,4,,,56,64
37679,note_off,,,,,19,0,0,,,2,,,73,64
37685,note_on,,,,,6,0,0,,,4,,,56,127
37699,note_on,,,,,14,0,0,,,2,,,73,124
37718,note_off,,,,,19,0,0,,,4,,,62,64
37724,note_on,,,,,6,0,0,,,4,,,62,127
37733,note_off,,,,,9,0,0,,,2,,,71,64
37734,note_off,,,,,1,0,0,,,4,,,52,64
37748,note_on,,,,,14,0,0,,,2,,,71,119
37758,note_on,,,,,10,0,0,,,4,,,52,127
37767,note_off,,,,,9,0,0,,,2,,,73,64
37789,note_off,,,,,22,0,0,,,4,,,62,64
37795,note_on,,,,,6,0,0,,,4,,,62,127
37800,note_on,,,,,5,0,0,,,2,,,73,125
37804,note_off,,,,,4,0,0,,,2,,,71,64
37806,note_off,,,,,2,0,0,,,4,,,56,64
37835,note_on,,,,,29,0,0,,,2,,,71,125
37839,note_off,,,,,4,0,0,,,2,,,73,64
37839,note_on,,,,,0,0,0,,,4,,,56,127
37864,note_off,,,,,25,0,0,,,4,,,52,64
37885,note_off,,,,,21,0,0,,,4,,,62,64
37893,note_on,,,,,8,0,0,,,4,,,62,127
37893,note_on,,,,,0,0,0,,,2,,,69,124
37897,note_off,,,,,4,0,0,,,2,,,71,64
37919,note_off,,,,,22,0,0,,,2,,,69,64
37919,note_on,,,,,0,0,0,,,2,,,71,124
37940,note_off,,,,,21,0,0,,,4,,,56,64
37944,note_off,,,,,4,0,0,,,4,,,62,64
37947,note_off,,,,,3,0,0,,,2,,,71,64
37948,note_on,,,,,1,0,0,,,4,,,57,127
37948,note_on,,,,,0,0,0,,,2,,,69,127
38229,note_on,,,,,281,0,0,,,2,,,73,126
38229,note_on,,,,,0,0,0,,,4,,,61,127
38243,note_off,,,,,14,0,0,,,4,,,57,64
38244,note_off,,,,,1,0,0,,,2,,,69,64
38279,note_on,,,,,35,0,0,,,2,,,69,123
38279,note_on,,,,,0,0,0,,,4,,,57,127
38287,note_off,,,,,8,0,0,,,4,,,61,64
38288,note_off,,,,,1,0,0,,,2,,,73,64
38323,note_on,,,,,35,0,0,,,4,,,62,127
38323,note_on,,,,,0,0,0,,,2,,,74,126
38329,note_off,,,,,6,0,0,,,4,,,57,64
38330,note_off,,,,,1,0,0,,,2,,,69,64
38415,note_off,,,,,85,0,0,,,4,,,62,64
38416,note_off,,,,,1,0,0,,,2,,,74,64
38416,note_on,,,,,0,0,0,,,2,,,71,125
38417,note_on,,,,,1,0,0,,,4,,,59,127
38465,note_on,,,,,48,0,0,,,2,,,68,123
38465,note_on,,,,,0,0,0,,,4,,,56,127
38473,note_off,,,,,8,0,0,,,4,,,59,64
38474,note_off,,,,,1,0,0,,,2,,,71,64
38507,note_on,,,,,33,0,0,,,2,,,69,123
38508,note_on,,,,,1,0,0,,,4,,,57,127
38516,note_off,,,,,8,0,0,,,4,,,56,64
38516,note_off,,,,,0,0,0,,,2,,,68,64
38601,note_off,,,,,85,0,0,,,4,,,57,64
38602,note_off,,,,,1,0,0,,,2,,,69,64
38602,note_on,,,,,0,0,0,,,4,,,66,123
38603,note_on,,,,,1,0,0,,,4,,,54,127
38647,note_on,,,,,44,0,0,,,4,,,63,125
38648,note_on,,,,,1,0,0,,,4,,,51,127
38654,note_off,,,,,6,0,0,,,4,,,66,64
38654,note_off,,,,,0,0,0,,,4,,,54,64
38695,note_on,,,,,41,0,0,,,4,,,64,121
38696,note_on,,,,,1,0,0,,,4,,,52,127
38702,note_off,,,,,6,0,0,,,4,,,51,64
38702,note_off,,,,,0,0,0,,,4,,,63,64
38872,note_off,,,,,170,0,0,,,4,,,52,64
38872,note_off,,,,,0,0,0,,,4,,,64,64
38880,note_on,,,,,8,0,0,,,1,,,80,126
38881,note_on,,,,,1,0,0,,,2,,,74,127
38881,note_on,,,,,0,0,0,,,2,,,71,127
38882,note_on,,,,,1,0,0,,,4,,,52,127
38882,note_on,,,,,0,0,0,,,4,,,40,127
39067,note_off,,,,,185,0,0,,,4,,,40,64
39067,note_off,,,,,0,0,0,,,4,,,52,64
39068,note_off,,,,,1,0,0,,,2,,,71,64
39068,note_off,,,,,0,0,0,,,2,,,74,64
39069,note_off,,,,,1,0,0,,,1,,,80,64
39075,note_on,,,,,6,0,0,,,4,,,45,127
39075,note_on,,,,,0,0,0,,,2,,,69,126
39076,note_on,,,,,1,0,0,,,4,,,33,127
39086,note_on,,,,,10,0,0,,,2,,,73,127
39097,note_on,,,,,11,0,0,,,2,,,76,127
39109,note_on,,,,,12,0,0,,,1,,,81,126
39338,note_off,,,,,229,0,0,,,2,,,69,64
39347,note_off,,,,,9,0,0,,,2,,,73,64
39357,note_off,,,,,10,0,0,,,2,,,76,64
39365,note_off,,,,,8,0,0,,,1,,,81,64
39473,note_off,,,,,108,0,0,,,4,,,33,64
39474,note_off,,,,,1,0,0,,,4,,,45,64
39474,note_on,,,,,0,0,0,,,4,,,62,127
39475,note_on,,,,,1,0,0,,,4,,,38,127
39475,note_on,,,,,0,0,0,,,4,,,50,127
39484,note_on,,,,,9,0,0,,,4,,,66,127
39500,note_on,,,,,16,0,0,,,2,,,69,127
39512,note_on,,,,,12,0,0,,,2,,,74,127
39771,note_off,,,,,259,0,0,,,4,,,50,64
39802,note_off,,,,,31,0,0,,,4,,,62,64
39811,note_off,,,,,9,0,0,,,4,,,66,64
39820,note_off,,,,,9,0,0,,,2,,,69,64
39832,note_off,,,,,12,0,0,,,2,,,74,64
39846,note_on,,,,,14,0,0,,,2,,,67,126
39846,note_on,,,,,0,0,0,,,4,,,55,127
39891,note_on,,,,,45,0,0,,,4,,,66,126
39891,note_on,,,,,0,0,0,,,4,,,54,127
39896,note_off,,,,,5,0,0,,,4,,,55,64
39896,note_off,,,,,0,0,0,,,2,,,67,64
39935,note_on,,,,,39,0,0,,,4,,,64,127
39936,note_on,,,,,1,0,0,,,4,,,52,127
39939,note_off,,,,,3,0,0,,,4,,,54,64
39940,note_off,,,,,1,0,0,,,4,,,66,64
39981,note_on,,,,,41,0,0,,,4,,,62,127
39982,note_on,,,,,1,0,0,,,4,,,50,127
39985,note_off,,,,,3,0,0,,,4,,,52,64
39986,note_off,,,,,1,0,0,,,4,,,64,64
40027,note_on,,,,,41,0,0,,,2,,,67,127
40028,note_on,,,,,1,0,0,,,4,,,55,127
40032,note_off,,,,,4,0,0,,,4,,,50,64
40032,note_off,,,,,0,0,0,,,4,,,62,64
40073,note_on,,,,,41,0,0,,,4,,,66,127
40074,note_on,,,,,1,0,0,,,4,,,54,127
40078,note_off,,,,,4,0,0,,,4,,,55,64
40079,note_off,,,,,1,0,0,,,2,,,67,64
40114,note_on,,,,,35,0,0,,,4,,,64,127
40114,note_on,,,,,0,0,0,,,4,,,52,127
40120,note_off,,,,,6,0,0,,,4,,,66,64
40120,note_off,,,,,0,0,0,,,4,,,54,64
40162,note_on,,,,,42,0,0,,,4,,,62,127
40162,note_on,,,,,0,0,0,,,4,,,50,127
40166,note_off,,,,,4,0,0,,,4,,,52,64
40167,note_off,,,,,1,0,0,,,4,,,64,64
40210,note_on,,,,,43,0,0,,,4,,,57,127
40210,note_on,,,,,0,0,0,,,2,,,69,126
40214,note_off,,,,,4,0,0,,,4,,,50,64
40215,note_off,,,,,1,0,0,,,4,,,62,64
40386,note_off,,,,,171,0,0,,,4,,,57,64
40387,note_off,,,,,1,0,0,,,2,,,69,64
40393,note_on,,,,,6,0,0,,,4,,,66,126
40394,note_on,,,,,1,0,0,,,4,,,54,127
40569,note_off,,,,,175,0,0,,,4,,,66,64
40569,note_off,,,,,0,0,0,,,4,,,54,64
40577,note_on,,,,,8,0,0,,,2,,,71,127
40578,note_on,,,,,1,0,0,,,4,,,59,127
40822,note_off,,,,,244,0,0,,,4,,,59,64
40823,note_off,,,,,1,0,0,,,2,,,71,64
40852,note_on,,,,,29,0,0,,,4,,,66,126
40852,note_on,,,,,0,0,0,,,4,,,54,127
40946,note_off,,,,,94,0,0,,,4,,,54,64
40946,note_off,,,,,0,0,0,,,4,,,66,64
40947,note_on,,,,,1,0,0,,,2,,,67,126
40947,note_on,,,,,0,0,0,,,4,,,55,127
41040,note_off,,,,,93,0,0,,,4,,,55,64
41040,note_off,,,,,0,0,0,,,2,,,67,64
41041,note_on,,,,,1,0,0,,,4,,,64,124
41041,note_on,,,,,0,0,0,,,4,,,52,127
41132,note_off,,,,,91,0,0,,,4,,,52,64
41133,note_off,,,,,1,0,0,,,4,,,64,64
41133,note_on,,,,,0,0,0,,,2,,,69,126
41134,note_on,,,,,1,0,0,,,4,,,57,127
41222,note_off,,,,,88,0,0,,,4,,,57,64
41223,note_off,,,,,1,0,0,,,2,,,69,64
41223,note_on,,,,,0,0,0,,,4,,,66,126
41224,note_on,,,,,1,0,0,,,4,,,54,127
41311,note_off,,,,,87,0,0,,,4,,,66,64
41311,note_off,,,,,0,0,0,,,4,,,54,64
41312,note_on,,,,,1,0,0,,,4,,,62,127
41312,note_on,,,,,0,0,0,,,4,,,50,127
41388,note_off,,,,,76,0,0,,,4,,,38,64
41405,note_off,,,,,17,0,0,,,4,,,50,64
41405,note_off,,,,,0,0,0,,,4,,,62,64
41406,note_on,,,,,1,0,0,,,4,,,59,127
41406,note_on,,,,,0,0,0,,,4,,,47,127
41497,note_off,,,,,91,0,0,,,4,,,47,64
41497,note_off,,,,,0,0,0,,,4,,,59,64
41498,note_on,,,,,1,0,0,,,4,,,52,127
41498,note_on,,,,,0,0,0,,,4,,,64,124
41587,note_off,,,,,89,0,0,,,4,,,52,64
41588,note_off,,,,,1,0,0,,,4,,,64,64
41588,note_on,,,,,0,0,0,,,4,,,61,127
41589,note_on,,,,,1,0,0,,,4,,,49,127
41683,note_off,,,,,94,0,0,,,4,,,49,64
41684,note_off,,,,,1,0,0,,,4,,,61,64
41684,note_on,,,,,0,0,0,,,4,,,57,127
41685,note_on,,,,,1,0,0,,,4,,,45,127
41753,note_off,,,,,68,0,0,,,4,,,57,64
41776,note_on,,,,,23,0,0,,,4,,,57,127
41837,note_off,,,,,61,0,0,,,4,,,45,64
41868,note_on,,,,,31,0,0,,,4,,,45,127
41931,note_off,,,,,63,0,0,,,4,,,57,64
41962,note_on,,,,,31,0,0,,,4,,,57,127
42024,note_off,,,,,62,0,0,,,4,,,45,64
42054,note_on,,,,,30,0,0,,,4,,,45,127
42118,note_off,,,,,64,0,0,,,4,,,57,64
42148,note_on,,,,,30,0,0,,,2,,,74,125
42148,note_on,,,,,0,0,0,,,4,,,66,126
42149,note_on,,,,,1,0,0,,,4,,,57,127
42207,note_off,,,,,58,0,0,,,4,,,45,64
42222,note_off,,,,,15,0,0,,,4,,,66,64
42223,note_off,,,,,1,0,0,,,2,,,74,64
42237,note_on,,,,,14,0,0,,,4,,,66,126
42237,note_on,,,,,0,0,0,,,2,,,74,125
42238,note_on,,,,,1,0,0,,,4,,,45,127
42295,note_off,,,,,57,0,0,,,4,,,57,64
42318,note_off,,,,,23,0,0,,,4,,,66,64
42319,note_off,,,,,1,0,0,,,2,,,74,64
42325,note_on,,,,,6,0,0,,,2,,,74,125
42325,note_on,,,,,0,0,0,,,4,,,66,126
42326,note_on,,,,,1,0,0,,,4,,,57,127
42384,note_off,,,,,58,0,0,,,4,,,45,64
42407,note_off,,,,,23,0,0,,,4,,,66,64
42407,note_off,,,,,0,0,0,,,2,,,74,64
42413,note_on,,,,,6,0,0,,,2,,,74,125
42414,note_on,,,,,1,0,0,,,4,,,45,127
42414,note_on,,,,,0,0,0,,,4,,,66,126
42472,note_off,,,,,58,0,0,,,4,,,57,64
42487,note_off,,,,,15,0,0,,,4,,,66,64
42488,note_off,,,,,1,0,0,,,2,,,74,64
42502,note_on,,,,,14,0,0,,,2,,,73,125
42502,note_on,,,,,0,0,0,,,4,,,64,124
42503,note_on,,,,,1,0,0,,,4,,,57,127
42564,note_off,,,,,61,0,0,,,4,,,45,64
42579,note_off,,,,,15,0,0,,,4,,,64,64
42580,note_off,,,,,1,0,0,,,2,,,73,64
42596,note_on,,,,,16,0,0,,,4,,,64,124
42596,note_on,,,,,0,0,0,,,2,,,73,125
42597,note_on,,,,,1,0,0,,,4,,,45,127
42656,note_off,,,,,59,0,0,,,4,,,57,64
42687,note_on,,,,,31,0,0,,,4,,,57,127
42748,note_off,,,,,61,0,0,,,4,,,45,64
42779,note_on,,,,,31,0,0,,,4,,,45,127
42840,note_off,,,,,61,0,0,,,4,,,57,64
42841,note_off,,,,,1,0,0,,,2,,,73,64
42841,note_off,,,,,0,0,0,,,4,,,64,64
42868,note_on,,,,,27,0,0,,,1,,,78,122
42869,note_on,,,,,1,0,0,,,4,,,57,127
42869,note_on,,,,,0,0,0,,,2,,,74,125
42929,note_off,,,,,60,0,0,,,4,,,45,64
42944,note_off,,,,,15,0,0,,,2,,,74,64
42945,note_off,,,,,1,0,0,,,1,,,78,64
42959,note_on,,,,,14,0,0,,,2,,,74,125
42959,note_on,,,,,0,0,0,,,1,,,78,122
42960,note_on,,,,,1,0,0,,,4,,,45,127
43017,note_off,,,,,57,0,0,,,4,,,57,64
43040,note_off,,,,,23,0,0,,,2,,,74,64
43041,note_off,,,,,1,0,0,,,1,,,78,64
43047,note_on,,,,,6,0,0,,,1,,,78,122
43047,note_on,,,,,0,0,0,,,2,,,74,125
43048,note_on,,,,,1,0,0,,,4,,,57,127
43105,note_off,,,,,57,0,0,,,4,,,45,64
43128,note_off,,,,,23,0,0,,,2,,,74,64
43129,note_off,,,,,1,0,0,,,1,,,78,64
43135,note_on,,,,,6,0,0,,,1,,,78,122
43136,note_on,,,,,1,0,0,,,4,,,45,127
43136,note_on,,,,,0,0,0,,,2,,,74,125
43195,note_off,,,,,59,0,0,,,4,,,57,64
43208,note_off,,,,,13,0,0,,,2,,,74,64
43209,note_off,,,,,1,0,0,,,1,,,78,64
43223,note_on,,,,,14,0,0,,,2,,,76,125
43223,note_on,,,,,0,0,0,,,2,,,73,125
43224,note_on,,,,,1,0,0,,,4,,,57,127
43279,note_off,,,,,55,0,0,,,4,,,45,64
43295,note_off,,,,,16,0,0,,,2,,,73,64
43296,note_off,,,,,1,0,0,,,2,,,76,64
43309,note_on,,,,,13,0,0,,,2,,,73,125
43309,note_on,,,,,0,0,0,,,2,,,76,125
43310,note_on,,,,,1,0,0,,,4,,,45,127
43369,note_off,,,,,59,0,0,,,4,,,57,64
43398,note_on,,,,,29,0,0,,,4,,,57,127
43461,note_off,,,,,63,0,0,,,4,,,45,64
43491,note_on,,,,,30,0,0,,,4,,,45,127
43553,note_off,,,,,62,0,0,,,2,,,73,64
43553,note_off,,,,,0,0,0,,,4,,,57,64
43554,note_off,,,,,1,0,0,,,2,,,76,64
43583,note_on,,,,,29,0,0,,,1,,,81,122
43583,note_on,,,,,0,0,0,,,1,,,78,122
43584,note_on,,,,,1,0,0,,,4,,,57,127
43643,note_off,,,,,59,0,0,,,4,,,45,64
43658,note_off,,,,,15,0,0,,,1,,,78,64
43659,note_off,,,,,1,0,0,,,1,,,81,64
43675,note_on,,,,,16,0,0,,,1,,,78,122
43675,note_on,,,,,0,0,0,,,1,,,81,122
43676,note_on,,,,,1,0,0,,,4,,,45,127
43733,note_off,,,,,57,0,0,,,4,,,57,64
43756,note_off,,,,,23,0,0,,,1,,,78,64
43757,note_off,,,,,1,0,0,,,1,,,81,64
43765,note_on,,,,,8,0,0,,,1,,,81,122
43765,note_on,,,,,0,0,0,,,1,,,78,122
43766,note_on,,,,,1,0,0,,,4,,,57,127
43826,note_off,,,,,60,0,0,,,4,,,45,64
43850,note_off,,,,,24,0,0,,,1,,,78,64
43851,note_off,,,,,1,0,0,,,1,,,81,64
43856,note_on,,,,,5,0,0,,,1,,,79,122
43858,note_on,,,,,2,0,0,,,4,,,45,127
43900,note_on,,,,,42,0,0,,,1,,,78,122
43908,note_off,,,,,8,0,0,,,1,,,79,64
43949,note_on,,,,,41,0,0,,,1,,,79,122
43950,note_off,,,,,1,0,0,,,1,,,78,64
43989,note_on,,,,,39,0,0,,,1,,,81,122
43996,note_off,,,,,7,0,0,,,1,,,79,64
44031,note_on,,,,,35,0,0,,,1,,,83,122
44037,note_off,,,,,6,0,0,,,1,,,81,64
44073,note_on,,,,,36,0,0,,,1,,,81,122
44079,note_off,,,,,6,0,0,,,1,,,83,64
44112,note_on,,,,,33,0,0,,,1,,,79,122
44121,note_off,,,,,9,0,0,,,1,,,81,64
44153,note_on,,,,,32,0,0,,,1,,,78,122
44160,note_off,,,,,7,0,0,,,1,,,79,64
44194,note_on,,,,,34,0,0,,,2,,,76,125
44203,note_off,,,,,9,0,0,,,1,,,78,64
44240,note_on,,,,,37,0,0,,,2,,,75,125
44245,note_off,,,,,5,0,0,,,2,,,76,64
44286,note_on,,,,,41,0,0,,,2,,,76,125
44290,note_off,,,,,4,0,0,,,2,,,75,64
44322,note_on,,,,,32,0,0,,,1,,,78,122
44334,note_off,,,,,12,0,0,,,2,,,76,64
44362,note_on,,,,,28,0,0,,,1,,,79,122
44368,note_off,,,,,6,0,0,,,1,,,78,64
44405,note_on,,,,,37,0,0,,,1,,,78,122
44409,note_off,,,,,4,0,0,,,1,,,79,64
44445,note_on,,,,,36,0,0,,,2,,,76,125
44451,note_off,,,,,6,0,0,,,1,,,78,64
44487,note_on,,,,,36,0,0,,,2,,,74,125
44493,note_off,,,,,6,0,0,,,2,,,76,64
44530,note_on,,,,,37,0,0,,,2,,,73,125
44530,note_on,,,,,0,0,0,,,4,,,61,127
44538,note_off,,,,,8,0,0,,,2,,,74,64
44546,note_off,,,,,8,0,0,,,4,,,57,64
44575,note_on,,,,,29,0,0,,,2,,,71,124
44575,note_on,,,,,0,0,0,,,4,,,59,127
44583,note_off,,,,,8,0,0,,,4,,,61,64
44584,note_off,,,,,1,0,0,,,2,,,73,64
44619,note_on,,,,,35,0,0,,,4,,,61,127
44619,note_on,,,,,0,0,0,,,2,,,73,125
44626,note_off,,,,,7,0,0,,,4,,,59,64
44626,note_off,,,,,0,0,0,,,2,,,71,64
44661,note_on,,,,,35,0,0,,,2,,,74,125
44662,note_on,,,,,1,0,0,,,4,,,62,127
44668,note_off,,,,,6,0,0,,,2,,,73,64
44668,note_off,,,,,0,0,0,,,4,,,61,64
44703,note_on,,,,,35,0,0,,,2,,,76,125
44704,note_on,,,,,1,0,0,,,4,,,64,124
44708,note_off,,,,,4,0,0,,,4,,,62,64
44709,note_off,,,,,1,0,0,,,2,,,74,64
44746,note_on,,,,,37,0,0,,,2,,,74,125
44746,note_on,,,,,0,0,0,,,4,,,62,127
44752,note_off,,,,,6,0,0,,,4,,,64,64
44753,note_off,,,,,1,0,0,,,2,,,76,64
44784,note_on,,,,,31,0,0,,,2,,,73,125
44784,note_on,,,,,0,0,0,,,4,,,61,127
44791,note_off,,,,,7,0,0,,,4,,,62,64
44791,note_off,,,,,0,0,0,,,2,,,74,64
44826,note_on,,,,,35,0,0,,,2,,,71,124
44827,note_on,,,,,1,0,0,,,4,,,59,127
44833,note_off,,,,,6,0,0,,,4,,,61,64
44833,note_off,,,,,0,0,0,,,2,,,73,64
44870,note_on,,,,,37,0,0,,,2,,,69,122
44871,note_on,,,,,1,0,0,,,4,,,57,127
44877,note_off,,,,,6,0,0,,,4,,,59,64
44878,note_off,,,,,1,0,0,,,2,,,71,64
44915,note_on,,,,,37,0,0,,,2,,,68,126
44915,note_on,,,,,0,0,0,,,4,,,56,127
44921,note_off,,,,,6,0,0,,,4,,,57,64
44922,note_off,,,,,1,0,0,,,2,,,69,64
44959,note_on,,,,,37,0,0,,,2,,,69,122
44959,note_on,,,,,0,0,0,,,4,,,57,127
44965,note_off,,,,,6,0,0,,,4,,,56,64
44966,note_off,,,,,1,0,0,,,2,,,68,64
45003,note_on,,,,,37,0,0,,,2,,,71,124
45003,note_on,,,,,0,0,0,,,4,,,59,127
45008,note_off,,,,,5,0,0,,,4,,,57,64
45008,note_off,,,,,0,0,0,,,2,,,69,64
45045,note_on,,,,,37,0,0,,,2,,,69,122
45046,note_on,,,,,1,0,0,,,4,,,57,127
45054,note_off,,,,,8,0,0,,,4,,,59,64
45054,note_off,,,,,0,0,0,,,2,,,71,64
45085,note_on,,,,,31,0,0,,,2,,,67,126
45086,note_on,,,,,1,0,0,,,4,,,55,127
45092,note_off,,,,,6,0,0,,,4,,,57,64
45093,note_off,,,,,1,0,0,,,2,,,69,64
45130,note_on,,,,,37,0,0,,,4,,,66,126
45130,note_on,,,,,0,0,0,,,4,,,54,127
45136,note_off,,,,,6,0,0,,,4,,,55,64
45137,note_off,,,,,1,0,0,,,2,,,67,64
45174,note_on,,,,,37,0,0,,,4,,,64,124
45174,note_on,,,,,0,0,0,,,4,,,52,127
45182,note_off,,,,,8,0,0,,,4,,,54,64
45183,note_off,,,,,1,0,0,,,4,,,66,64
45204,note_off,,,,,21,0,0,,,4,,,45,64
45220,note_on,,,,,16,0,0,,,4,,,62,127
45221,note_on,,,,,1,0,0,,,4,,,38,110
45221,note_on,,,,,0,0,0,,,4,,,50,127
45229,note_off,,,,,8,0,0,,,4,,,52,64
45230,note_off,,,,,1,0,0,,,4,,,64,64
45303,note_off,,,,,73,0,0,,,4,,,50,64
45313,note_on,,,,,10,0,0,,,4,,,50,127
45399,note_off,,,,,86,0,0,,,4,,,50,64
45407,note_on,,,,,8,0,0,,,4,,,50,127
45492,note_off,,,,,85,0,0,,,4,,,50,64
45499,note_on,,,,,7,0,0,,,4,,,50,127
45585,note_off,,,,,86,0,0,,,4,,,50,64
45585,note_off,,,,,0,0,0,,,4,,,62,64
45593,note_on,,,,,8,0,0,,,4,,,64,124
45594,note_on,,,,,1,0,0,,,4,,,50,127
45594,note_on,,,,,0,0,0,,,4,,,61,127
45677,note_off,,,,,83,0,0,,,4,,,50,64
45684,note_on,,,,,7,0,0,,,4,,,50,127
45771,note_off,,,,,87,0,0,,,4,,,50,64
45771,note_off,,,,,0,0,0,,,4,,,61,64
45772,note_off,,,,,1,0,0,,,4,,,64,64
45778,note_on,,,,,6,0,0,,,4,,,60,127
45778,note_on,,,,,0,0,0,,,4,,,66,126
45779,note_on,,,,,1,0,0,,,4,,,50,127
45863,note_off,,,,,84,0,0,,,4,,,50,64
45871,note_on,,,,,8,0,0,,,4,,,50,127
45957,note_off,,,,,86,0,0,,,4,,,50,64
45958,note_off,,,,,1,0,0,,,4,,,66,64
45958,note_off,,,,,0,0,0,,,4,,,60,64
45964,note_on,,,,,6,0,0,,,4,,,59,127
45964,note_on,,,,,0,0,0,,,2,,,67,126
45965,note_on,,,,,1,0,0,,,4,,,50,127
46049,note_off,,,,,84,0,0,,,4,,,50,64
46057,note_on,,,,,8,0,0,,,4,,,50,127
46102,note_off,,,,,45,0,0,,,2,,,67,64
46103,note_on,,,,,1,0,0,,,2,,,69,126
46126,note_off,,,,,23,0,0,,,2,,,69,64
46127,note_on,,,,,1,0,0,,,2,,,71,127
46148,note_off,,,,,21,0,0,,,4,,,50,64
46149,note_off,,,,,1,0,0,,,4,,,59,64
46159,note_off,,,,,10,0,0,,,2,,,71,64
46159,note_on,,,,,0,0,0,,,2,,,69,126
46160,note_on,,,,,1,0,0,,,4,,,61,127
46160,note_on,,,,,0,0,0,,,4,,,50,127
46245,note_off,,,,,85,0,0,,,4,,,50,64
46253,note_off,,,,,8,0,0,,,2,,,69,64
46253,note_on,,,,,0,0,0,,,2,,,67,126
46254,note_on,,,,,1,0,0,,,4,,,50,127
46340,note_off,,,,,86,0,0,,,4,,,50,64
46341,note_off,,,,,1,0,0,,,4,,,61,64
46347,note_off,,,,,6,0,0,,,2,,,67,64
46347,note_on,,,,,0,0,0,,,4,,,66,126
46348,note_on,,,,,1,0,0,,,4,,,62,127
46348,note_on,,,,,0,0,0,,,4,,,50,127
46435,note_off,,,,,87,0,0,,,4,,,50,64
46443,note_on,,,,,8,0,0,,,4,,,50,127
46530,note_off,,,,,87,0,0,,,4,,,50,64
46537,note_on,,,,,7,0,0,,,4,,,50,127
46622,note_off,,,,,85,0,0,,,4,,,50,64
46630,note_off,,,,,8,0,0,,,4,,,38,64
46630,note_on,,,,,0,0,0,,,4,,,50,127
46715,note_off,,,,,85,0,0,,,4,,,50,64
46716,note_off,,,,,1,0,0,,,4,,,66,64
46716,note_off,,,,,0,0,0,,,4,,,62,64
46722,note_on,,,,,6,0,0,,,4,,,62,127
46722,note_on,,,,,0,0,0,,,4,,,66,126
46723,note_on,,,,,1,0,0,,,4,,,38,127
46723,note_on,,,,,0,0,0,,,4,,,50,127
46810,note_off,,,,,87,0,0,,,4,,,50,64
46818,note_on,,,,,8,0,0,,,4,,,50,127
46904,note_off,,,,,86,0,0,,,4,,,50,64
46911,note_on,,,,,7,0,0,,,4,,,50,127
47000,note_off,,,,,89,0,0,,,4,,,50,64
47008,note_on,,,,,8,0,0,,,4,,,50,127
47096,note_off,,,,,88,0,0,,,4,,,50,64
47097,note_off,,,,,1,0,0,,,4,,,66,64
47097,note_off,,,,,0,0,0,,,4,,,62,64
47103,note_on,,,,,6,0,0,,,2,,,67,126
47103,note_on,,,,,0,0,0,,,4,,,50,127
47109,note_on,,,,,6,0,0,,,4,,,64,124
47190,note_off,,,,,81,0,0,,,4,,,50,64
47198,note_on,,,,,8,0,0,,,4,,,50,127
47285,note_off,,,,,87,0,0,,,4,,,50,64
47286,note_off,,,,,1,0,0,,,2,,,67,64
47292,note_off,,,,,6,0,0,,,4,,,64,64
47294,note_on,,,,,2,0,0,,,2,,,69,126
47294,note_on,,,,,0,0,0,,,4,,,66,126
47295,note_on,,,,,1,0,0,,,4,,,50,127
47379,note_off,,,,,84,0,0,,,4,,,50,64
47387,note_on,,,,,8,0,0,,,4,,,50,127
47473,note_off,,,,,86,0,0,,,4,,,50,64
47474,note_off,,,,,1,0,0,,,4,,,66,64
47474,note_off,,,,,0,0,0,,,2,,,69,64
47482,note_on,,,,,8,0,0,,,2,,,71,127
47483,note_on,,,,,1,0,0,,,2,,,67,126
47483,note_on,,,,,0,0,0,,,4,,,50,127
47566,note_off,,,,,83,0,0,,,4,,,50,64
47573,note_on,,,,,7,0,0,,,4,,,50,127
47620,note_off,,,,,47,0,0,,,2,,,71,64
47620,note_on,,,,,0,0,0,,,2,,,73,127
47647,note_off,,,,,27,0,0,,,2,,,73,64
47648,note_on,,,,,1,0,0,,,2,,,74,127
47669,note_off,,,,,21,0,0,,,4,,,50,64
47679,note_off,,,,,10,0,0,,,2,,,74,64
47679,note_on,,,,,0,0,0,,,2,,,73,127
47680,note_on,,,,,1,0,0,,,4,,,50,127
47764,note_off,,,,,84,0,0,,,4,,,50,64
47772,note_off,,,,,8,0,0,,,2,,,73,64
47772,note_on,,,,,0,0,0,,,2,,,71,127
47773,note_on,,,,,1,0,0,,,4,,,50,127
47859,note_off,,,,,86,0,0,,,4,,,50,64
47860,note_off,,,,,1,0,0,,,2,,,67,64
47868,note_off,,,,,8,0,0,,,2,,,71,64
47868,note_on,,,,,0,0,0,,,2,,,69,126
47869,note_on,,,,,1,0,0,,,4,,,66,126
47869,note_on,,,,,0,0,0,,,4,,,50,127
47954,note_off,,,,,85,0,0,,,4,,,50,64
47963,note_on,,,,,9,0,0,,,4,,,50,127
48049,note_off,,,,,86,0,0,,,4,,,50,64
48059,note_on,,,,,10,0,0,,,4,,,50,127
48145,note_off,,,,,86,0,0,,,4,,,50,64
48153,note_off,,,,,8,0,0,,,4,,,38,64
48154,note_on,,,,,1,0,0,,,4,,,50,127
48154,note_on,,,,,0,0,0,,,1,,,78,123
48248,note_off,,,,,94,0,0,,,4,,,50,64
48249,note_off,,,,,1,0,0,,,2,,,69,64
48249,note_off,,,,,0,0,0,,,4,,,66,64
48250,note_on,,,,,1,0,0,,,2,,,76,126
48250,note_on,,,,,0,0,0,,,4,,,55,127
48251,note_on,,,,,1,0,0,,,4,,,43,127
48257,note_off,,,,,6,0,0,,,1,,,78,64
48297,note_on,,,,,40,0,0,,,1,,,86,123
48341,note_off,,,,,44,0,0,,,2,,,76,64
48345,note_on,,,,,4,0,0,,,2,,,76,126
48389,note_off,,,,,44,0,0,,,1,,,86,64
48391,note_on,,,,,2,0,0,,,1,,,86,123
48438,note_off,,,,,47,0,0,,,2,,,76,64
48439,note_on,,,,,1,0,0,,,2,,,76,126
48440,note_on,,,,,1,0,0,,,4,,,50,127
48440,note_on,,,,,0,0,0,,,4,,,62,127
48448,note_off,,,,,8,0,0,,,4,,,43,64
48448,note_off,,,,,0,0,0,,,4,,,55,64
48485,note_off,,,,,37,0,0,,,1,,,86,64
48487,note_on,,,,,2,0,0,,,1,,,86,123
48533,note_off,,,,,46,0,0,,,2,,,76,64
48535,note_on,,,,,2,0,0,,,2,,,76,126
48581,note_off,,,,,46,0,0,,,1,,,86,64
48583,note_on,,,,,2,0,0,,,1,,,86,123
48627,note_off,,,,,44,0,0,,,2,,,76,64
48629,note_on,,,,,2,0,0,,,2,,,76,126
48630,note_on,,,,,1,0,0,,,4,,,47,127
48630,note_on,,,,,0,0,0,,,4,,,59,127
48638,note_off,,,,,8,0,0,,,4,,,62,64
48638,note_off,,,,,0,0,0,,,4,,,50,64
48675,note_off,,,,,37,0,0,,,1,,,86,64
48677,note_on,,,,,2,0,0,,,1,,,86,123
48721,note_off,,,,,44,0,0,,,2,,,76,64
48723,note_on,,,,,2,0,0,,,2,,,76,126
48768,note_off,,,,,45,0,0,,,1,,,86,64
48772,note_on,,,,,4,0,0,,,1,,,86,123
48816,note_off,,,,,44,0,0,,,2,,,76,64
48818,note_on,,,,,2,0,0,,,4,,,43,127
48818,note_on,,,,,0,0,0,,,4,,,55,127
48818,note_on,,,,,0,0,0,,,2,,,76,126
48827,note_off,,,,,9,0,0,,,4,,,59,64
48827,note_off,,,,,0,0,0,,,4,,,47,64
48864,note_off,,,,,37,0,0,,,1,,,86,64
48866,note_on,,,,,2,0,0,,,1,,,86,123
48912,note_off,,,,,46,0,0,,,2,,,76,64
48913,note_on,,,,,1,0,0,,,2,,,76,126
48960,note_off,,,,,47,0,0,,,1,,,86,64
48961,note_on,,,,,1,0,0,,,1,,,86,123
49006,note_off,,,,,45,0,0,,,2,,,76,64
49010,note_on,,,,,4,0,0,,,4,,,45,127
49010,note_on,,,,,0,0,0,,,4,,,57,127
49010,note_on,,,,,0,0,0,,,1,,,78,123
49017,note_off,,,,,7,0,0,,,4,,,55,64
49017,note_off,,,,,0,0,0,,,4,,,43,64
49054,note_off,,,,,37,0,0,,,1,,,86,64
49056,note_on,,,,,2,0,0,,,1,,,86,123
49102,note_off,,,,,46,0,0,,,1,,,78,64
49104,note_on,,,,,2,0,0,,,1,,,78,123
49150,note_off,,,,,46,0,0,,,1,,,86,64
49152,note_on,,,,,2,0,0,,,1,,,86,123
49198,note_off,,,,,46,0,0,,,1,,,78,64
49200,note_on,,,,,2,0,0,,,1,,,78,123
49200,note_on,,,,,0,0,0,,,4,,,62,127
49201,note_on,,,,,1,0,0,,,4,,,50,127
49209,note_off,,,,,8,0,0,,,4,,,57,64
49209,note_off,,,,,0,0,0,,,4,,,45,64
49246,note_off,,,,,37,0,0,,,1,,,86,64
49248,note_on,,,,,2,0,0,,,1,,,86,123
49292,note_off,,,,,44,0,0,,,1,,,78,64
49296,note_on,,,,,4,0,0,,,1,,,78,123
49340,note_off,,,,,44,0,0,,,1,,,86,64
49342,note_on,,,,,2,0,0,,,1,,,86,123
49388,note_off,,,,,46,0,0,,,1,,,78,64
49390,note_on,,,,,2,0,0,,,1,,,78,123
49391,note_on,,,,,1,0,0,,,4,,,48,127
49391,note_on,,,,,0,0,0,,,4,,,60,127
49399,note_off,,,,,8,0,0,,,4,,,50,64
49399,note_off,,,,,0,0,0,,,4,,,62,64
49434,note_off,,,,,35,0,0,,,1,,,86,64
49436,note_on,,,,,2,0,0,,,1,,,86,123
49480,note_off,,,,,44,0,0,,,1,,,78,64
49482,note_on,,,,,2,0,0,,,1,,,78,123
49526,note_off,,,,,44,0,0,,,1,,,86,64
49528,note_on,,,,,2,0,0,,,1,,,86,123
49572,note_off,,,,,44,0,0,,,1,,,78,64
49576,note_on,,,,,4,0,0,,,1,,,78,123
49577,note_on,,,,,1,0,0,,,4,,,45,127
49577,note_on,,,,,0,0,0,,,4,,,57,127
49583,note_off,,,,,6,0,0,,,4,,,48,64
49584,note_off,,,,,1,0,0,,,4,,,60,64
49620,note_off,,,,,36,0,0,,,1,,,86,64
49622,note_on,,,,,2,0,0,,,1,,,86,123
49668,note_off,,,,,46,0,0,,,1,,,78,64
49670,note_on,,,,,2,0,0,,,1,,,78,123
49716,note_off,,,,,46,0,0,,,1,,,86,64
49718,note_on,,,,,2,0,0,,,1,,,86,123
49764,note_off,,,,,46,0,0,,,1,,,78,64
49766,note_on,,,,,2,0,0,,,1,,,79,123
49767,note_on,,,,,1,0,0,,,4,,,47,127
49767,note_on,,,,,0,0,0,,,4,,,59,127
49775,note_off,,,,,8,0,0,,,4,,,45,64
49776,note_off,,,,,1,0,0,,,4,,,57,64
49811,note_off,,,,,35,0,0,,,1,,,86,64
49812,note_on,,,,,1,0,0,,,1,,,86,123
49857,note_off,,,,,45,0,0,,,1,,,79,64
49860,note_on,,,,,3,0,0,,,1,,,79,123
49905,note_off,,,,,45,0,0,,,1,,,86,64
49907,note_on,,,,,2,0,0,,,1,,,86,123
49951,note_off,,,,,44,0,0,,,1,,,79,64
49953,note_on,,,,,2,0,0,,,1,,,79,123
49953,note_on,,,,,0,0,0,,,2,,,67,126
49954,note_on,,,,,1,0,0,,,4,,,55,127
49960,note_off,,,,,6,0,0,,,4,,,47,64
49961,note_off,,,,,1,0,0,,,4,,,59,64
49998,note_off,,,,,37,0,0,,,1,,,86,64
50000,note_on,,,,,2,0,0,,,1,,,86,123
50044,note_off,,,,,44,0,0,,,1,,,79,64
50046,note_on,,,,,2,0,0,,,1,,,79,123
50092,note_off,,,,,46,0,0,,,1,,,86,64
50094,note_on,,,,,2,0,0,,,1,,,86,123
50138,note_off,,,,,44,0,0,,,1,,,79,64
50140,note_on,,,,,2,0,0,,,4,,,62,127
50140,note_on,,,,,0,0,0,,,1,,,79,123
50141,note_on,,,,,1,0,0,,,4,,,50,127
50148,note_off,,,,,7,0,0,,,4,,,55,64
50149,note_off,,,,,1,0,0,,,2,,,67,64
50184,note_off,,,,,35,0,0,,,1,,,86,64
50186,note_on,,,,,2,0,0,,,1,,,86,123
50230,note_off,,,,,44,0,0,,,1,,,79,64
50232,note_on,,,,,2,0,0,,,1,,,79,123
50276,note_off,,,,,44,0,0,,,1,,,86,64
50278,note_on,,,,,2,0,0,,,1,,,86,123
50322,note_off,,,,,44,0,0,,,1,,,79,64
50324,note_on,,,,,2,0,0,,,1,,,79,123
50325,note_on,,,,,1,0,0,,,4,,,47,127
50325,note_on,,,,,0,0,0,,,4,,,59,127
50331,note_off,,,,,6,0,0,,,4,,,62,64
50331,note_off,,,,,0,0,0,,,4,,,50,64
50368,note_off,,,,,37,0,0,,,1,,,86,64
50370,note_on,,,,,2,0,0,,,1,,,86,123
50414,note_off,,,,,44,0,0,,,1,,,79,64
50418,note_on,,,,,4,0,0,,,1,,,79,123
50462,note_off,,,,,44,0,0,,,1,,,86,64
50464,note_on,,,,,2,0,0,,,1,,,86,123
50508,note_off,,,,,44,0,0,,,1,,,79,64
50510,note_on,,,,,2,0,0,,,1,,,80,123
50511,note_on,,,,,1,0,0,,,4,,,58,126
50511,note_on,,,,,0,0,0,,,2,,,74,127
50512,note_on,,,,,1,0,0,,,4,,,46,127
50518,note_off,,,,,6,0,0,,,4,,,47,64
50519,note_off,,,,,1,0,0,,,4,,,59,64
50556,note_off,,,,,37,0,0,,,1,,,86,64
50556,note_on,,,,,0,0,0,,,1,,,86,123
50600,note_off,,,,,44,0,0,,,2,,,74,64
50601,note_off,,,,,1,0,0,,,1,,,80,64
50604,note_on,,,,,3,0,0,,,2,,,74,127
50604,note_on,,,,,0,0,0,,,1,,,80,123
50647,note_off,,,,,43,0,0,,,1,,,86,64
50651,note_on,,,,,4,0,0,,,1,,,86,123
50695,note_off,,,,,44,0,0,,,1,,,80,64
50695,note_off,,,,,0,0,0,,,2,,,74,64
50698,note_on,,,,,3,0,0,,,1,,,80,123
50698,note_on,,,,,0,0,0,,,2,,,74,127
50699,note_on,,,,,1,0,0,,,4,,,53,127
50699,note_on,,,,,0,0,0,,,4,,,65,126
50706,note_off,,,,,7,0,0,,,4,,,58,64
50706,note_off,,,,,0,0,0,,,4,,,46,64
50743,note_off,,,,,37,0,0,,,1,,,86,64
50745,note_on,,,,,2,0,0,,,1,,,86,123
50791,note_off,,,,,46,0,0,,,2,,,74,64
50791,note_off,,,,,0,0,0,,,1,,,80,64
50792,note_on,,,,,1,0,0,,,2,,,74,127
50792,note_on,,,,,0,0,0,,,1,,,80,123
50837,note_off,,,,,45,0,0,,,1,,,86,64
50839,note_on,,,,,2,0,0,,,1,,,86,123
50883,note_off,,,,,44,0,0,,,1,,,80,64
50883,note_off,,,,,0,0,0,,,2,,,74,64
50886,note_on,,,,,3,0,0,,,1,,,80,123
50886,note_on,,,,,0,0,0,,,2,,,74,127
50887,note_on,,,,,1,0,0,,,4,,,62,127
50887,note_on,,,,,0,0,0,,,4,,,50,127
50893,note_off,,,,,6,0,0,,,4,,,53,64
50894,note_off,,,,,1,0,0,,,4,,,65,64
50931,note_off,,,,,37,0,0,,,1,,,86,64
50933,note_on,,,,,2,0,0,,,1,,,86,123
50979,note_off,,,,,46,0,0,,,2,,,74,64
50979,note_off,,,,,0,0,0,,,1,,,80,64
50980,note_on,,,,,1,0,0,,,1,,,80,123
50980,note_on,,,,,0,0,0,,,2,,,74,127
51025,note_off,,,,,45,0,0,,,1,,,86,64
51027,note_on,,,,,2,0,0,,,1,,,86,123
51073,note_off,,,,,46,0,0,,,2,,,74,64
51073,note_off,,,,,0,0,0,,,1,,,80,64
51074,note_on,,,,,1,0,0,,,1,,,80,123
51075,note_on,,,,,1,0,0,,,4,,,58,126
51075,note_on,,,,,0,0,0,,,2,,,74,127
51076,note_on,,,,,1,0,0,,,4,,,46,127
51084,note_off,,,,,8,0,0,,,4,,,50,64
51084,note_off,,,,,0,0,0,,,4,,,62,64
51121,note_off,,,,,37,0,0,,,1,,,86,64
51125,note_on,,,,,4,0,0,,,1,,,86,123
51169,note_off,,,,,44,0,0,,,1,,,80,64
51169,note_off,,,,,0,0,0,,,2,,,74,64
51172,note_on,,,,,3,0,0,,,1,,,80,120
51172,note_on,,,,,0,0,0,,,2,,,74,126
51217,note_off,,,,,45,0,0,,,1,,,86,64
51219,note_on,,,,,2,0,0,,,1,,,86,116
51260,note_off,,,,,41,0,0,,,4,,,58,64
51261,note_off,,,,,1,0,0,,,1,,,86,64
51262,note_off,,,,,1,0,0,,,2,,,74,64
51262,note_off,,,,,0,0,0,,,1,,,80,64
51269,note_on,,,,,7,0,0,,,4,,,57,127
51286,note_on,,,,,17,0,0,,,2,,,76,123
51290,note_off,,,,,4,0,0,,,4,,,46,64
51296,note_on,,,,,6,0,0,,,1,,,81,122
51308,note_on,,,,,12,0,0,,,1,,,85,122
51325,note_on,,,,,17,0,0,,,2,,,69,126
51371,note_on,,,,,46,0,0,,,2,,,68,126
51379,note_off,,,,,8,0,0,,,2,,,69,64
51417,note_on,,,,,38,0,0,,,2,,,69,126
51424,note_off,,,,,7,0,0,,,2,,,68,64
51462,note_on,,,,,38,0,0,,,2,,,71,125
51468,note_off,,,,,6,0,0,,,2,,,69,64
51506,note_on,,,,,38,0,0,,,2,,,69,126
51514,note_off,,,,,8,0,0,,,2,,,71,64
51531,note_off,,,,,17,0,0,,,2,,,76,64
51540,note_off,,,,,9,0,0,,,1,,,81,64
51549,note_off,,,,,9,0,0,,,1,,,85,64
51549,note_on,,,,,0,0,0,,,1,,,81,113
51550,note_on,,,,,1,0,0,,,4,,,66,126
51592,note_off,,,,,42,0,0,,,2,,,69,64
51593,note_on,,,,,1,0,0,,,2,,,69,126
51639,note_on,,,,,46,0,0,,,1,,,79,109
51639,note_on,,,,,0,0,0,,,4,,,64,124
51644,note_off,,,,,5,0,0,,,1,,,81,64
51644,note_off,,,,,0,0,0,,,4,,,66,64
51678,note_off,,,,,34,0,0,,,2,,,69,64
51680,note_on,,,,,2,0,0,,,2,,,69,126
51722,note_on,,,,,42,0,0,,,1,,,78,109
51723,note_on,,,,,1,0,0,,,4,,,62,127
51729,note_off,,,,,6,0,0,,,4,,,64,64
51730,note_off,,,,,1,0,0,,,1,,,79,64
51765,note_off,,,,,35,0,0,,,2,,,69,64
51765,note_on,,,,,0,0,0,,,2,,,69,126
51809,note_on,,,,,44,0,0,,,4,,,61,127
51809,note_on,,,,,0,0,0,,,2,,,76,112
51816,note_off,,,,,7,0,0,,,4,,,62,64
51816,note_off,,,,,0,0,0,,,1,,,78,64
51849,note_off,,,,,33,0,0,,,2,,,69,64
51851,note_on,,,,,2,0,0,,,2,,,69,126
51893,note_on,,,,,42,0,0,,,2,,,74,112
51894,note_on,,,,,1,0,0,,,4,,,59,127
51902,note_off,,,,,8,0,0,,,2,,,76,64
51902,note_off,,,,,0,0,0,,,4,,,61,64
51936,note_off,,,,,34,0,0,,,2,,,69,64
51937,note_on,,,,,1,0,0,,,2,,,69,126
51941,note_off,,,,,4,0,0,,,4,,,57,64
51984,note_on,,,,,43,0,0,,,2,,,73,112
51984,note_on,,,,,0,0,0,,,4,,,57,127
51992,note_off,,,,,8,0,0,,,4,,,59,64
51993,note_off,,,,,1,0,0,,,2,,,74,64
52026,note_off,,,,,33,0,0,,,2,,,69,64
52028,note_on,,,,,2,0,0,,,2,,,69,126
52070,note_on,,,,,42,0,0,,,4,,,59,127
52070,note_on,,,,,0,0,0,,,2,,,74,112
52077,note_off,,,,,7,0,0,,,4,,,57,64
52077,note_off,,,,,0,0,0,,,2,,,73,64
52111,note_off,,,,,34,0,0,,,2,,,69,64
52113,note_on,,,,,2,0,0,,,2,,,69,126
52157,note_on,,,,,44,0,0,,,2,,,76,112
52158,note_on,,,,,1,0,0,,,4,,,61,127
52166,note_off,,,,,8,0,0,,,2,,,74,64
52166,note_off,,,,,0,0,0,,,4,,,59,64
52200,note_off,,,,,34,0,0,,,2,,,69,64
52200,note_on,,,,,0,0,0,,,2,,,69,126
52244,note_on,,,,,44,0,0,,,4,,,62,127
52244,note_on,,,,,0,0,0,,,1,,,78,109
52250,note_off,,,,,6,0,0,,,4,,,61,64
52251,note_off,,,,,1,0,0,,,2,,,76,64
52286,note_off,,,,,35,0,0,,,2,,,69,64
52286,note_on,,,,,0,0,0,,,2,,,69,126
52330,note_on,,,,,44,0,0,,,1,,,81,109
52331,note_on,,,,,1,0,0,,,4,,,64,124
52339,note_off,,,,,8,0,0,,,1,,,78,64
52339,note_off,,,,,0,0,0,,,4,,,62,64
52372,note_off,,,,,33,0,0,,,2,,,69,64
52374,note_on,,,,,2,0,0,,,1,,,79,109
52375,note_on,,,,,1,0,0,,,2,,,69,126
52381,note_off,,,,,6,0,0,,,1,,,81,64
52414,note_on,,,,,33,0,0,,,1,,,78,109
52414,note_on,,,,,0,0,0,,,4,,,61,127
52420,note_off,,,,,6,0,0,,,1,,,79,64
52421,note_off,,,,,1,0,0,,,4,,,64,64
52452,note_off,,,,,31,0,0,,,2,,,69,64
52454,note_on,,,,,2,0,0,,,2,,,76,112
52454,note_on,,,,,0,0,0,,,2,,,69,126
52461,note_off,,,,,7,0,0,,,1,,,78,64
52497,note_on,,,,,36,0,0,,,1,,,79,109
52498,note_on,,,,,1,0,0,,,4,,,62,127
52504,note_off,,,,,6,0,0,,,2,,,76,64
52504,note_off,,,,,0,0,0,,,4,,,61,64
52537,note_off,,,,,33,0,0,,,2,,,69,64
52539,note_on,,,,,2,0,0,,,1,,,78,109
52540,note_on,,,,,1,0,0,,,2,,,69,126
52546,note_off,,,,,6,0,0,,,1,,,79,64
52581,note_on,,,,,35,0,0,,,2,,,76,116
52581,note_on,,,,,0,0,0,,,4,,,59,127
52587,note_off,,,,,6,0,0,,,1,,,78,64
52588,note_off,,,,,1,0,0,,,4,,,62,64
52619,note_off,,,,,31,0,0,,,2,,,69,64
52623,note_on,,,,,4,0,0,,,2,,,74,116
52623,note_on,,,,,0,0,0,,,2,,,69,126
52630,note_off,,,,,7,0,0,,,2,,,76,64
52662,note_off,,,,,32,0,0,,,2,,,69,64
52663,note_off,,,,,1,0,0,,,2,,,74,64
52663,note_on,,,,,0,0,0,,,2,,,73,122
52664,note_on,,,,,1,0,0,,,4,,,57,127
52680,note_off,,,,,16,0,0,,,4,,,59,64
52689,note_on,,,,,9,0,0,,,2,,,76,122
52699,note_on,,,,,10,0,0,,,1,,,81,119
52722,note_on,,,,,23,0,0,,,2,,,69,126
52766,note_on,,,,,44,0,0,,,2,,,68,126
52774,note_off,,,,,8,0,0,,,2,,,69,64
52808,note_on,,,,,34,0,0,,,2,,,69,126
52816,note_off,,,,,8,0,0,,,2,,,68,64
52852,note_on,,,,,36,0,0,,,2,,,71,125
52860,note_off,,,,,8,0,0,,,2,,,69,64
52895,note_on,,,,,35,0,0,,,2,,,69,126
52902,note_off,,,,,7,0,0,,,2,,,71,64
52910,note_off,,,,,8,0,0,,,2,,,73,64
52921,note_off,,,,,11,0,0,,,2,,,76,64
52931,note_off,,,,,10,0,0,,,1,,,81,64
52939,note_on,,,,,8,0,0,,,1,,,81,109
52939,note_on,,,,,0,0,0,,,4,,,66,126
52945,note_off,,,,,6,0,0,,,2,,,69,64
52982,note_on,,,,,37,0,0,,,2,,,69,126
53024,note_off,,,,,42,0,0,,,1,,,81,64
53027,note_on,,,,,3,0,0,,,4,,,64,124
53027,note_on,,,,,0,0,0,,,1,,,79,109
53033,note_off,,,,,6,0,0,,,4,,,66,64
53065,note_off,,,,,32,0,0,,,2,,,69,64
53066,note_on,,,,,1,0,0,,,2,,,69,126
53108,note_on,,,,,42,0,0,,,1,,,78,109
53108,note_on,,,,,0,0,0,,,4,,,62,127
53116,note_off,,,,,8,0,0,,,4,,,64,64
53117,note_off,,,,,1,0,0,,,1,,,79,64
53152,note_off,,,,,35,0,0,,,2,,,69,64
53152,note_on,,,,,0,0,0,,,2,,,69,126
53196,note_on,,,,,44,0,0,,,4,,,61,127
53196,note_on,,,,,0,0,0,,,2,,,76,112
53203,note_off,,,,,7,0,0,,,4,,,62,64
53203,note_off,,,,,0,0,0,,,1,,,78,64
53236,note_off,,,,,33,0,0,,,2,,,69,64
53238,note_on,,,,,2,0,0,,,2,,,69,126
53281,note_on,,,,,43,0,0,,,2,,,74,112
53281,note_on,,,,,0,0,0,,,4,,,59,127
53289,note_off,,,,,8,0,0,,,2,,,76,64
53289,note_off,,,,,0,0,0,,,4,,,61,64
53324,note_off,,,,,35,0,0,,,2,,,69,64
53326,note_off,,,,,2,0,0,,,4,,,57,64
53326,note_on,,,,,0,0,0,,,2,,,69,126
53369,note_on,,,,,43,0,0,,,2,,,73,112
53370,note_on,,,,,1,0,0,,,4,,,57,127
53377,note_off,,,,,7,0,0,,,4,,,59,64
53378,note_off,,,,,1,0,0,,,2,,,74,64
53411,note_off,,,,,33,0,0,,,2,,,69,64
53413,note_on,,,,,2,0,0,,,2,,,69,126
53457,note_on,,,,,44,0,0,,,2,,,74,112
53458,note_on,,,,,1,0,0,,,4,,,59,127
53466,note_off,,,,,8,0,0,,,4,,,57,64
53466,note_off,,,,,0,0,0,,,2,,,73,64
53499,note_off,,,,,33,0,0,,,2,,,69,64
53502,note_on,,,,,3,0,0,,,2,,,69,126
53544,note_on,,,,,42,0,0,,,2,,,76,112
53544,note_on,,,,,0,0,0,,,4,,,61,127
53552,note_off,,,,,8,0,0,,,4,,,59,64
53553,note_off,,,,,1,0,0,,,2,,,74,64
53586,note_off,,,,,33,0,0,,,2,,,69,64
53588,note_on,,,,,2,0,0,,,2,,,69,126
53630,note_on,,,,,42,0,0,,,1,,,78,106
53631,note_on,,,,,1,0,0,,,4,,,62,127
53639,note_off,,,,,8,0,0,,,4,,,61,64
53639,note_off,,,,,0,0,0,,,2,,,76,64
53670,note_off,,,,,31,0,0,,,2,,,69,64
53675,note_on,,,,,5,0,0,,,2,,,69,126
53715,note_on,,,,,40,0,0,,,4,,,64,124
53715,note_on,,,,,0,0,0,,,1,,,81,106
53724,note_off,,,,,9,0,0,,,4,,,62,64
53724,note_off,,,,,0,0,0,,,1,,,78,64
53757,note_off,,,,,33,0,0,,,2,,,69,64
53759,note_on,,,,,2,0,0,,,2,,,69,126
53759,note_on,,,,,0,0,0,,,1,,,79,106
53766,note_off,,,,,7,0,0,,,1,,,81,64
53800,note_on,,,,,34,0,0,,,1,,,78,106
53801,note_on,,,,,1,0,0,,,4,,,61,127
53807,note_off,,,,,6,0,0,,,1,,,79,64
53808,note_off,,,,,1,0,0,,,4,,,64,64
53840,note_off,,,,,32,0,0,,,2,,,69,64
53843,note_on,,,,,3,0,0,,,2,,,76,112
53843,note_on,,,,,0,0,0,,,2,,,69,126
53849,note_off,,,,,6,0,0,,,1,,,78,64
53884,note_on,,,,,35,0,0,,,1,,,79,106
53884,note_on,,,,,0,0,0,,,4,,,62,127
53892,note_off,,,,,8,0,0,,,2,,,76,64
53893,note_off,,,,,1,0,0,,,4,,,61,64
53926,note_off,,,,,33,0,0,,,2,,,69,64
53928,note_on,,,,,2,0,0,,,2,,,69,126
53928,note_on,,,,,0,0,0,,,1,,,78,106
53937,note_off,,,,,9,0,0,,,1,,,79,64
53969,note_on,,,,,32,0,0,,,2,,,76,112
53970,note_on,,,,,1,0,0,,,4,,,59,127
53976,note_off,,,,,6,0,0,,,1,,,78,64
53976,note_off,,,,,0,0,0,,,4,,,62,64
54011,note_off,,,,,35,0,0,,,2,,,69,64
54013,note_on,,,,,2,0,0,,,2,,,74,115
54014,note_on,,,,,1,0,0,,,2,,,69,126
54020,note_off,,,,,6,0,0,,,2,,,76,64
54055,note_off,,,,,35,0,0,,,2,,,69,64
54055,note_off,,,,,0,0,0,,,2,,,74,64
54056,note_off,,,,,1,0,0,,,4,,,59,64
54056,note_on,,,,,0,0,0,,,2,,,73,125
54057,note_on,,,,,1,0,0,,,4,,,57,127
54082,note_on,,,,,25,0,0,,,2,,,76,125
54094,note_on,,,,,12,0,0,,,1,,,81,122
54227,note_off,,,,,133,0,0,,,4,,,57,64
54227,note_off,,,,,0,0,0,,,2,,,73,64
54235,note_off,,,,,8,0,0,,,2,,,76,64
54240,note_on,,,,,5,0,0,,,2,,,76,122
54240,note_on,,,,,0,0,0,,,4,,,64,124
54240,note_on,,,,,0,0,0,,,4,,,57,127
54241,note_on,,,,,1,0,0,,,4,,,61,127
54245,note_off,,,,,4,0,0,,,1,,,81,64
54288,note_on,,,,,43,0,0,,,2,,,73,122
54296,note_off,,,,,8,0,0,,,2,,,76,64
54332,note_on,,,,,36,0,0,,,2,,,76,122
54340,note_off,,,,,8,0,0,,,2,,,73,64
54380,note_on,,,,,40,0,0,,,2,,,73,122
54388,note_off,,,,,8,0,0,,,2,,,76,64
54419,note_off,,,,,31,0,0,,,4,,,57,64
54419,note_off,,,,,0,0,0,,,4,,,64,64
54420,note_off,,,,,1,0,0,,,4,,,61,64
54425,note_on,,,,,5,0,0,,,2,,,69,126
54426,note_on,,,,,1,0,0,,,4,,,57,127
54426,note_on,,,,,0,0,0,,,4,,,64,124
54427,note_on,,,,,1,0,0,,,4,,,61,127
54434,note_off,,,,,7,0,0,,,2,,,73,64
54781,note_off,,,,,347,0,0,,,2,,,69,64
54782,note_on,,,,,1,0,0,,,2,,,76,122
54884,note_off,,,,,102,0,0,,,2,,,76,64
54892,note_on,,,,,8,0,0,,,1,,,81,109
54988,note_on,,,,,96,0,0,,,1,,,80,109
54997,note_off,,,,,9,0,0,,,1,,,81,64
55038,note_off,,,,,41,0,0,,,4,,,64,64
55082,note_on,,,,,44,0,0,,,1,,,83,109
55090,note_off,,,,,8,0,0,,,1,,,80,64
55173,note_off,,,,,83,0,0,,,1,,,83,64
55176,note_on,,,,,3,0,0,,,1,,,81,109
55267,note_off,,,,,91,0,0,,,1,,,81,64
55270,note_on,,,,,3,0,0,,,1,,,80,109
55272,note_off,,,,,2,0,0,,,4,,,61,64
55363,note_off,,,,,91,0,0,,,1,,,80,64
55366,note_on,,,,,3,0,0,,,1,,,78,109
55460,note_off,,,,,94,0,0,,,1,,,78,64
55462,note_on,,,,,2,0,0,,,1,,,80,82
55463,note_on,,,,,1,0,0,,,3,,,71,120
55463,note_on,,,,,0,0,0,,,3,,,68,126
55486,note_on,,,,,23,0,0,,,1,,,78,82
55496,note_off,,,,,10,0,0,,,1,,,80,64
55496,note_off,,,,,0,0,0,,,4,,,57,64
55512,note_on,,,,,16,0,0,,,1,,,80,82
55520,note_off,,,,,8,0,0,,,1,,,78,64
55537,note_on,,,,,17,0,0,,,1,,,78,82
55545,note_off,,,,,8,0,0,,,1,,,80,64
55554,note_off,,,,,9,0,0,,,3,,,68,64
55555,note_off,,,,,1,0,0,,,3,,,71,64
55563,note_on,,,,,8,0,0,,,2,,,76,91
55563,note_on,,,,,0,0,0,,,3,,,71,116
55564,note_on,,,,,1,0,0,,,3,,,68,126
55570,note_off,,,,,6,0,0,,,1,,,78,64
55650,note_off,,,,,80,0,0,,,3,,,68,64
55651,note_off,,,,,1,0,0,,,3,,,71,64
55651,note_off,,,,,0,0,0,,,2,,,76,64
55659,note_on,,,,,8,0,0,,,3,,,71,116
55659,note_on,,,,,0,0,0,,,2,,,76,100
55660,note_on,,,,,1,0,0,,,3,,,68,126
55744,note_off,,,,,84,0,0,,,3,,,68,64
55745,note_off,,,,,1,0,0,,,3,,,71,64
55753,note_on,,,,,8,0,0,,,3,,,71,116
55753,note_on,,,,,0,0,0,,,3,,,68,126
55838,note_off,,,,,85,0,0,,,3,,,68,64
55839,note_off,,,,,1,0,0,,,3,,,71,64
55847,note_on,,,,,8,0,0,,,3,,,71,116
55848,note_on,,,,,1,0,0,,,3,,,68,126
55892,note_off,,,,,44,0,0,,,2,,,76,64
55936,note_off,,,,,44,0,0,,,3,,,68,64
55937,note_off,,,,,1,0,0,,,3,,,71,64
55945,note_on,,,,,8,0,0,,,1,,,78,90
55945,note_on,,,,,0,0,0,,,3,,,71,112
55946,note_on,,,,,1,0,0,,,3,,,68,126
55969,note_on,,,,,23,0,0,,,2,,,76,96
55979,note_off,,,,,10,0,0,,,1,,,78,64
55994,note_on,,,,,15,0,0,,,2,,,75,96
56002,note_off,,,,,8,0,0,,,2,,,76,64
56033,note_off,,,,,31,0,0,,,2,,,75,64
56033,note_off,,,,,0,0,0,,,3,,,68,64
56034,note_off,,,,,1,0,0,,,3,,,71,64
56040,note_on,,,,,6,0,0,,,2,,,76,96
56041,note_on,,,,,1,0,0,,,3,,,71,112
56041,note_on,,,,,0,0,0,,,3,,,68,126
56126,note_off,,,,,85,0,0,,,3,,,68,64
56126,note_off,,,,,0,0,0,,,3,,,71,64
56135,note_on,,,,,9,0,0,,,3,,,68,126
56135,note_on,,,,,0,0,0,,,3,,,71,112
56135,note_on,,,,,0,0,0,,,1,,,78,96
56141,note_off,,,,,6,0,0,,,2,,,76,64
56220,note_off,,,,,79,0,0,,,3,,,71,64
56220,note_off,,,,,0,0,0,,,3,,,68,64
56229,note_on,,,,,9,0,0,,,2,,,76,101
56229,note_on,,,,,0,0,0,,,3,,,69,121
56229,note_on,,,,,0,0,0,,,3,,,66,126
56237,note_off,,,,,8,0,0,,,1,,,78,64
56316,note_off,,,,,79,0,0,,,3,,,66,64
56316,note_off,,,,,0,0,0,,,3,,,69,64
56320,note_off,,,,,4,0,0,,,2,,,76,64
56323,note_on,,,,,3,0,0,,,3,,,69,121
56323,note_on,,,,,0,0,0,,,2,,,74,106
56324,note_on,,,,,1,0,0,,,3,,,66,121
56411,note_off,,,,,87,0,0,,,3,,,66,64
56412,note_off,,,,,1,0,0,,,3,,,69,64
56420,note_on,,,,,8,0,0,,,3,,,69,121
56420,note_on,,,,,0,0,0,,,3,,,66,121
56507,note_off,,,,,87,0,0,,,3,,,66,64
56508,note_off,,,,,1,0,0,,,3,,,69,64
56514,note_on,,,,,6,0,0,,,1,,,78,100
56514,note_on,,,,,0,0,0,,,3,,,69,121
56515,note_on,,,,,1,0,0,,,3,,,66,121
56522,note_off,,,,,7,0,0,,,2,,,74,64
56601,note_off,,,,,79,0,0,,,3,,,66,64
56602,note_off,,,,,1,0,0,,,3,,,69,64
56610,note_on,,,,,8,0,0,,,3,,,68,121
56610,note_on,,,,,0,0,0,,,2,,,74,106
56611,note_on,,,,,1,0,0,,,3,,,64,119
56626,note_off,,,,,15,0,0,,,1,,,78,64
56697,note_off,,,,,71,0,0,,,3,,,64,64
56698,note_off,,,,,1,0,0,,,3,,,68,64
56706,note_on,,,,,8,0,0,,,2,,,73,106
56706,note_on,,,,,0,0,0,,,3,,,68,121
56706,note_on,,,,,0,0,0,,,3,,,64,119
56720,note_off,,,,,14,0,0,,,2,,,74,64
56793,note_off,,,,,73,0,0,,,3,,,64,64
56794,note_off,,,,,1,0,0,,,3,,,68,64
56800,note_on,,,,,6,0,0,,,3,,,64,119
56800,note_on,,,,,0,0,0,,,3,,,68,121
56883,note_off,,,,,83,0,0,,,2,,,73,64
56887,note_off,,,,,4,0,0,,,3,,,64,64
56888,note_off,,,,,1,0,0,,,3,,,68,64
56896,note_on,,,,,8,0,0,,,2,,,76,106
56896,note_on,,,,,0,0,0,,,3,,,68,121
56897,note_on,,,,,1,0,0,,,3,,,64,119
56983,note_off,,,,,86,0,0,,,3,,,64,64
56984,note_off,,,,,1,0,0,,,3,,,68,64
56992,note_on,,,,,8,0,0,,,2,,,73,114
56992,note_on,,,,,0,0,0,,,3,,,66,121
56993,note_on,,,,,1,0,0,,,4,,,62,124
57002,note_off,,,,,9,0,0,,,2,,,76,64
57041,note_on,,,,,39,0,0,,,2,,,71,124
57048,note_off,,,,,7,0,0,,,2,,,73,64
57075,note_off,,,,,27,0,0,,,4,,,62,64
57076,note_off,,,,,1,0,0,,,3,,,66,64
57084,note_on,,,,,8,0,0,,,3,,,66,121
57084,note_on,,,,,0,0,0,,,2,,,74,118
57085,note_on,,,,,1,0,0,,,4,,,62,124
57091,note_off,,,,,6,0,0,,,2,,,71,64
57129,note_on,,,,,38,0,0,,,2,,,73,118
57137,note_off,,,,,8,0,0,,,2,,,74,64
57166,note_off,,,,,29,0,0,,,3,,,66,64
57166,note_off,,,,,0,0,0,,,4,,,62,64
57174,note_on,,,,,8,0,0,,,2,,,76,118
57175,note_on,,,,,1,0,0,,,3,,,66,121
57175,note_on,,,,,0,0,0,,,4,,,62,124
57181,note_off,,,,,6,0,0,,,2,,,73,64
57220,note_on,,,,,39,0,0,,,2,,,74,118
57226,note_off,,,,,6,0,0,,,2,,,76,64
57255,note_off,,,,,29,0,0,,,4,,,62,64
57255,note_off,,,,,0,0,0,,,3,,,66,64
57262,note_on,,,,,7,0,0,,,2,,,73,118
57262,note_on,,,,,0,0,0,,,3,,,66,121
57263,note_on,,,,,1,0,0,,,4,,,62,124
57270,note_off,,,,,7,0,0,,,2,,,74,64
57307,note_on,,,,,37,0,0,,,2,,,71,124
57314,note_off,,,,,7,0,0,,,2,,,73,64
57345,note_off,,,,,31,0,0,,,4,,,62,64
57346,note_off,,,,,1,0,0,,,3,,,66,64
57352,note_on,,,,,6,0,0,,,3,,,64,119
57352,note_on,,,,,0,0,0,,,2,,,69,126
57353,note_on,,,,,1,0,0,,,4,,,61,127
57360,note_off,,,,,7,0,0,,,2,,,71,64
57397,note_on,,,,,37,0,0,,,2,,,71,124
57405,note_off,,,,,8,0,0,,,2,,,69,64
57443,note_on,,,,,38,0,0,,,2,,,69,126
57451,note_off,,,,,8,0,0,,,2,,,71,64
57488,note_on,,,,,37,0,0,,,2,,,68,121
57495,note_off,,,,,7,0,0,,,2,,,69,64
57531,note_on,,,,,36,0,0,,,2,,,69,126
57539,note_off,,,,,8,0,0,,,2,,,68,64
57575,note_on,,,,,36,0,0,,,2,,,71,124
57582,note_off,,,,,7,0,0,,,2,,,69,64
57619,note_on,,,,,37,0,0,,,2,,,73,121
57624,note_off,,,,,5,0,0,,,2,,,71,64
57661,note_on,,,,,37,0,0,,,2,,,74,121
57669,note_off,,,,,8,0,0,,,2,,,73,64
57705,note_on,,,,,36,0,0,,,2,,,75,121
57713,note_off,,,,,8,0,0,,,2,,,74,64
57749,note_on,,,,,36,0,0,,,2,,,76,121
57757,note_off,,,,,8,0,0,,,2,,,75,64
57793,note_on,,,,,36,0,0,,,1,,,78,119
57800,note_off,,,,,7,0,0,,,2,,,76,64
57837,note_on,,,,,37,0,0,,,2,,,76,125
57844,note_off,,,,,7,0,0,,,1,,,78,64
57879,note_on,,,,,35,0,0,,,1,,,80,119
57886,note_off,,,,,7,0,0,,,2,,,76,64
57922,note_on,,,,,36,0,0,,,1,,,78,119
57930,note_off,,,,,8,0,0,,,1,,,80,64
57966,note_on,,,,,36,0,0,,,1,,,81,119
57974,note_off,,,,,8,0,0,,,1,,,78,64
58012,note_on,,,,,38,0,0,,,1,,,80,119
58020,note_off,,,,,8,0,0,,,1,,,81,64
58057,note_on,,,,,37,0,0,,,1,,,83,123
58064,note_off,,,,,7,0,0,,,1,,,80,64
58145,note_on,,,,,81,0,0,,,1,,,81,119
58152,note_off,,,,,7,0,0,,,1,,,83,64
58234,note_on,,,,,82,0,0,,,1,,,80,119
58239,note_off,,,,,5,0,0,,,1,,,81,64
58322,note_on,,,,,83,0,0,,,1,,,78,119
58330,note_off,,,,,8,0,0,,,1,,,80,64
58383,note_off,,,,,53,0,0,,,4,,,61,64
58384,note_off,,,,,1,0,0,,,3,,,64,64
58413,note_on,,,,,29,0,0,,,2,,,75,127
58414,note_on,,,,,1,0,0,,,3,,,71,118
58414,note_on,,,,,0,0,0,,,3,,,68,121
58422,note_off,,,,,8,0,0,,,1,,,78,64
58502,note_off,,,,,80,0,0,,,3,,,68,64
58503,note_off,,,,,1,0,0,,,3,,,71,64
58509,note_off,,,,,6,0,0,,,2,,,75,64
58510,note_on,,,,,1,0,0,,,3,,,71,118
58510,note_on,,,,,0,0,0,,,1,,,78,123
58511,note_on,,,,,1,0,0,,,3,,,68,121
58557,note_off,,,,,46,0,0,,,1,,,78,64
58559,note_on,,,,,2,0,0,,,2,,,76,127
58595,note_off,,,,,36,0,0,,,2,,,76,64
58599,note_off,,,,,4,0,0,,,3,,,68,64
58600,note_off,,,,,1,0,0,,,3,,,71,64
58608,note_on,,,,,8,0,0,,,2,,,76,127
58608,note_on,,,,,0,0,0,,,3,,,71,118
58609,note_on,,,,,1,0,0,,,3,,,68,121
58695,note_off,,,,,86,0,0,,,3,,,68,64
58696,note_off,,,,,1,0,0,,,3,,,71,64
58702,note_on,,,,,6,0,0,,,3,,,71,118
58703,note_on,,,,,1,0,0,,,3,,,68,121
58789,note_off,,,,,86,0,0,,,3,,,68,64
58790,note_off,,,,,1,0,0,,,3,,,71,64
58798,note_on,,,,,8,0,0,,,3,,,71,118
58799,note_on,,,,,1,0,0,,,3,,,68,121
58845,note_on,,,,,46,0,0,,,1,,,78,119
58846,note_off,,,,,1,0,0,,,2,,,76,64
58885,note_off,,,,,39,0,0,,,3,,,68,64
58886,note_off,,,,,1,0,0,,,3,,,71,64
58892,note_off,,,,,6,0,0,,,1,,,78,64
58893,note_on,,,,,1,0,0,,,2,,,76,125
58893,note_on,,,,,0,0,0,,,3,,,71,118
58894,note_on,,,,,1,0,0,,,3,,,68,121
58940,note_off,,,,,46,0,0,,,2,,,76,64
58941,note_on,,,,,1,0,0,,,2,,,75,125
58978,note_off,,,,,37,0,0,,,3,,,68,64
58978,note_off,,,,,0,0,0,,,3,,,71,64
58986,note_off,,,,,8,0,0,,,2,,,75,64
58987,note_on,,,,,1,0,0,,,3,,,71,118
58987,note_on,,,,,0,0,0,,,2,,,76,125
58988,note_on,,,,,1,0,0,,,3,,,68,121
59055,note_off,,,,,67,0,0,,,2,,,76,64
59072,note_off,,,,,17,0,0,,,3,,,71,64
59072,note_off,,,,,0,0,0,,,3,,,68,64
59080,note_on,,,,,8,0,0,,,2,,,76,120
59081,note_on,,,,,1,0,0,,,3,,,71,118
59081,note_on,,,,,0,0,0,,,3,,,68,121
59172,note_off,,,,,91,0,0,,,3,,,68,64
59172,note_off,,,,,0,0,0,,,3,,,71,64
59178,note_on,,,,,6,0,0,,,3,,,69,116
59179,note_on,,,,,1,0,0,,,3,,,66,121
59262,note_off,,,,,83,0,0,,,3,,,66,64
59262,note_off,,,,,0,0,0,,,3,,,69,64
59270,note_on,,,,,8,0,0,,,2,,,73,120
59271,note_on,,,,,1,0,0,,,3,,,66,116
59271,note_on,,,,,0,0,0,,,3,,,69,116
59275,note_off,,,,,4,0,0,,,2,,,76,64
59354,note_off,,,,,79,0,0,,,3,,,69,64
59354,note_off,,,,,0,0,0,,,3,,,66,64
59361,note_on,,,,,7,0,0,,,3,,,69,116
59361,note_on,,,,,0,0,0,,,3,,,66,116
59446,note_off,,,,,85,0,0,,,3,,,66,64
59447,note_off,,,,,1,0,0,,,3,,,69,64
59455,note_on,,,,,8,0,0,,,3,,,69,116
59455,note_on,,,,,0,0,0,,,2,,,74,120
59456,note_on,,,,,1,0,0,,,3,,,66,116
59458,note_off,,,,,2,0,0,,,2,,,73,64
59541,note_off,,,,,83,0,0,,,3,,,66,64
59542,note_off,,,,,1,0,0,,,3,,,69,64
59548,note_on,,,,,6,0,0,,,3,,,68,116
59548,note_on,,,,,0,0,0,,,3,,,64,114
59631,note_off,,,,,83,0,0,,,3,,,64,64
59632,note_off,,,,,1,0,0,,,3,,,68,64
59640,note_on,,,,,8,0,0,,,2,,,72,120
59640,note_on,,,,,0,0,0,,,3,,,68,121
59641,note_on,,,,,1,0,0,,,3,,,64,119
59643,note_off,,,,,2,0,0,,,2,,,74,64
59724,note_off,,,,,81,0,0,,,3,,,64,64
59724,note_off,,,,,0,0,0,,,3,,,68,64
59730,note_on,,,,,6,0,0,,,3,,,68,121
59731,note_on,,,,,1,0,0,,,3,,,64,119
59816,note_off,,,,,85,0,0,,,3,,,68,64
59816,note_off,,,,,0,0,0,,,3,,,64,64
59822,note_on,,,,,6,0,0,,,2,,,73,120
59823,note_on,,,,,1,0,0,,,3,,,68,121
59823,note_on,,,,,0,0,0,,,3,,,64,119
59827,note_off,,,,,4,0,0,,,2,,,72,64
59906,note_off,,,,,79,0,0,,,3,,,64,64
59906,note_off,,,,,0,0,0,,,3,,,68,64
59915,note_on,,,,,9,0,0,,,3,,,66,121
59915,note_on,,,,,0,0,0,,,3,,,62,124
59996,note_off,,,,,81,0,0,,,3,,,62,64
59997,note_off,,,,,1,0,0,,,3,,,66,64
60005,note_on,,,,,8,0,0,,,2,,,70,126
60005,note_on,,,,,0,0,0,,,4,,,66,121
60006,note_on,,,,,1,0,0,,,4,,,62,124
60008,note_off,,,,,2,0,0,,,2,,,73,64
60090,note_off,,,,,82,0,0,,,4,,,62,64
60091,note_off,,,,,1,0,0,,,4,,,66,64
60097,note_on,,,,,6,0,0,,,4,,,66,121
60097,note_on,,,,,0,0,0,,,4,,,62,124
60182,note_off,,,,,85,0,0,,,4,,,62,64
60183,note_off,,,,,1,0,0,,,4,,,66,64
60189,note_on,,,,,6,0,0,,,2,,,71,123
60190,note_on,,,,,1,0,0,,,4,,,62,124
60190,note_on,,,,,0,0,0,,,4,,,66,121
60192,note_off,,,,,2,0,0,,,2,,,70,64
60273,note_off,,,,,81,0,0,,,4,,,66,64
60273,note_off,,,,,0,0,0,,,4,,,62,64
60281,note_on,,,,,8,0,0,,,4,,,64,119
60282,note_on,,,,,1,0,0,,,4,,,61,125
60326,note_on,,,,,44,0,0,,,2,,,68,126
60328,note_off,,,,,2,0,0,,,2,,,71,64
60375,note_on,,,,,47,0,0,,,2,,,71,123
60382,note_off,,,,,7,0,0,,,2,,,68,64
60419,note_on,,,,,37,0,0,,,2,,,69,126
60426,note_off,,,,,7,0,0,,,2,,,71,64
60461,note_on,,,,,35,0,0,,,1,,,78,121
60505,note_off,,,,,44,0,0,,,2,,,69,64
60505,note_on,,,,,0,0,0,,,2,,,76,124
60512,note_off,,,,,7,0,0,,,1,,,78,64
60550,note_on,,,,,38,0,0,,,2,,,74,124
60558,note_off,,,,,8,0,0,,,2,,,76,64
60594,note_on,,,,,36,0,0,,,2,,,73,124
60602,note_off,,,,,8,0,0,,,2,,,74,64
60639,note_off,,,,,37,0,0,,,4,,,64,64
60639,note_off,,,,,0,0,0,,,4,,,61,64
60640,note_on,,,,,1,0,0,,,4,,,62,121
60640,note_on,,,,,0,0,0,,,2,,,71,123
60641,note_on,,,,,1,0,0,,,4,,,50,127
60648,note_off,,,,,7,0,0,,,2,,,73,64
60686,note_on,,,,,38,0,0,,,1,,,81,121
60732,note_on,,,,,46,0,0,,,2,,,70,126
60732,note_on,,,,,0,0,0,,,4,,,61,122
60733,note_on,,,,,1,0,0,,,4,,,49,127
60740,note_off,,,,,7,0,0,,,4,,,62,64
60740,note_off,,,,,0,0,0,,,4,,,50,64
60741,note_off,,,,,1,0,0,,,2,,,71,64
60777,note_off,,,,,36,0,0,,,1,,,81,64
60779,note_on,,,,,2,0,0,,,1,,,81,121
60825,note_on,,,,,46,0,0,,,2,,,71,123
60826,note_on,,,,,1,0,0,,,4,,,62,121
60826,note_on,,,,,0,0,0,,,4,,,50,127
60834,note_off,,,,,8,0,0,,,4,,,49,64
60834,note_off,,,,,0,0,0,,,4,,,61,64
60835,note_off,,,,,1,0,0,,,2,,,70,64
60869,note_off,,,,,34,0,0,,,1,,,81,64
60871,note_on,,,,,2,0,0,,,1,,,81,121
60917,note_on,,,,,46,0,0,,,2,,,70,126
60918,note_on,,,,,1,0,0,,,4,,,49,127
60918,note_on,,,,,0,0,0,,,4,,,61,122
60926,note_off,,,,,8,0,0,,,4,,,50,64
60926,note_off,,,,,0,0,0,,,4,,,62,64
60927,note_off,,,,,1,0,0,,,2,,,71,64
60961,note_off,,,,,34,0,0,,,1,,,81,64
60965,note_on,,,,,4,0,0,,,1,,,81,121
61011,note_on,,,,,46,0,0,,,2,,,71,123
61012,note_on,,,,,1,0,0,,,4,,,50,127
61012,note_on,,,,,0,0,0,,,4,,,62,121
61018,note_off,,,,,6,0,0,,,4,,,49,64
61019,note_off,,,,,1,0,0,,,2,,,70,64
61019,note_off,,,,,0,0,0,,,4,,,61,64
61053,note_off,,,,,34,0,0,,,1,,,81,64
61056,note_on,,,,,3,0,0,,,2,,,74,124
61063,note_off,,,,,7,0,0,,,2,,,71,64
61100,note_on,,,,,37,0,0,,,1,,,78,121
61107,note_off,,,,,7,0,0,,,2,,,74,64
61146,note_on,,,,,39,0,0,,,2,,,76,124
61152,note_off,,,,,6,0,0,,,1,,,78,64
61188,note_on,,,,,36,0,0,,,1,,,79,121
61196,note_off,,,,,8,0,0,,,2,,,76,64
61232,note_on,,,,,36,0,0,,,1,,,78,121
61240,note_off,,,,,8,0,0,,,1,,,79,64
61276,note_on,,,,,36,0,0,,,2,,,76,124
61284,note_off,,,,,8,0,0,,,1,,,78,64
61322,note_on,,,,,38,0,0,,,2,,,74,124
61330,note_off,,,,,8,0,0,,,2,,,76,64
61361,note_off,,,,,31,0,0,,,4,,,62,64
61361,note_off,,,,,0,0,0,,,4,,,50,64
61368,note_on,,,,,7,0,0,,,4,,,52,127
61368,note_on,,,,,0,0,0,,,4,,,64,119
61368,note_on,,,,,0,0,0,,,2,,,73,124
61375,note_off,,,,,7,0,0,,,2,,,74,64
61414,note_on,,,,,39,0,0,,,1,,,81,121
61460,note_on,,,,,46,0,0,,,2,,,72,124
61460,note_on,,,,,0,0,0,,,4,,,63,120
61461,note_on,,,,,1,0,0,,,4,,,51,127
61468,note_off,,,,,7,0,0,,,4,,,52,64
61469,note_off,,,,,1,0,0,,,2,,,73,64
61469,note_off,,,,,0,0,0,,,4,,,64,64
61504,note_off,,,,,35,0,0,,,1,,,81,64
61508,note_on,,,,,4,0,0,,,1,,,81,121
61554,note_on,,,,,46,0,0,,,2,,,73,124
61554,note_on,,,,,0,0,0,,,4,,,64,119
61555,note_on,,,,,1,0,0,,,4,,,52,127
61560,note_off,,,,,5,0,0,,,4,,,51,64
61561,note_off,,,,,1,0,0,,,4,,,63,64
61561,note_off,,,,,0,0,0,,,2,,,72,64
61598,note_off,,,,,37,0,0,,,1,,,81,64
61600,note_on,,,,,2,0,0,,,1,,,81,121
61646,note_on,,,,,46,0,0,,,4,,,63,120
61646,note_on,,,,,0,0,0,,,2,,,72,124
61647,note_on,,,,,1,0,0,,,4,,,51,127
61655,note_off,,,,,8,0,0,,,4,,,52,64
61655,note_off,,,,,0,0,0,,,4,,,64,64
61656,note_off,,,,,1,0,0,,,2,,,73,64
61690,note_off,,,,,34,0,0,,,1,,,81,64
61692,note_on,,,,,2,0,0,,,1,,,81,121
61740,note_on,,,,,48,0,0,,,4,,,64,119
61740,note_on,,,,,0,0,0,,,2,,,73,124
61741,note_on,,,,,1,0,0,,,4,,,52,127
61747,note_off,,,,,6,0,0,,,4,,,63,64
61747,note_off,,,,,0,0,0,,,4,,,51,64
61748,note_off,,,,,1,0,0,,,2,,,72,64
61782,note_off,,,,,34,0,0,,,1,,,81,64
61786,note_on,,,,,4,0,0,,,2,,,76,124
61794,note_off,,,,,8,0,0,,,2,,,73,64
61832,note_on,,,,,38,0,0,,,1,,,79,121
61840,note_off,,,,,8,0,0,,,2,,,76,64
61876,note_on,,,,,36,0,0,,,1,,,78,121
61884,note_off,,,,,8,0,0,,,1,,,79,64
61919,note_on,,,,,35,0,0,,,1,,,81,121
61926,note_off,,,,,7,0,0,,,1,,,78,64
61963,note_on,,,,,37,0,0,,,1,,,79,121
61970,note_off,,,,,7,0,0,,,1,,,81,64
62009,note_on,,,,,39,0,0,,,1,,,78,121
62016,note_off,,,,,7,0,0,,,1,,,79,64
62053,note_on,,,,,37,0,0,,,2,,,76,124
62061,note_off,,,,,8,0,0,,,1,,,78,64
62091,note_off,,,,,30,0,0,,,4,,,52,64
62092,note_off,,,,,1,0,0,,,4,,,64,64
62098,note_on,,,,,6,0,0,,,2,,,74,124
62099,note_on,,,,,1,0,0,,,4,,,54,127
62099,note_on,,,,,0,0,0,,,4,,,66,121
62106,note_off,,,,,7,0,0,,,2,,,76,64
62144,note_on,,,,,38,0,0,,,1,,,81,121
62192,note_on,,,,,48,0,0,,,2,,,73,124
62193,note_on,,,,,1,0,0,,,4,,,65,121
62193,note_on,,,,,0,0,0,,,4,,,53,127
62199,note_off,,,,,6,0,0,,,4,,,66,64
62199,note_off,,,,,0,0,0,,,4,,,54,64
62200,note_off,,,,,1,0,0,,,2,,,74,64
62236,note_off,,,,,36,0,0,,,1,,,81,64
62238,note_on,,,,,2,0,0,,,1,,,81,121
62284,note_on,,,,,46,0,0,,,2,,,74,124
62285,note_on,,,,,1,0,0,,,4,,,66,121
62285,note_on,,,,,0,0,0,,,4,,,54,127
62293,note_off,,,,,8,0,0,,,4,,,53,64
62293,note_off,,,,,0,0,0,,,4,,,65,64
62294,note_off,,,,,1,0,0,,,2,,,73,64
62328,note_off,,,,,34,0,0,,,1,,,81,64
62330,note_on,,,,,2,0,0,,,1,,,81,121
62376,note_on,,,,,46,0,0,,,2,,,73,124
62377,note_on,,,,,1,0,0,,,4,,,53,127
62377,note_on,,,,,0,0,0,,,4,,,65,121
62385,note_off,,,,,8,0,0,,,4,,,54,64
62386,note_off,,,,,1,0,0,,,4,,,66,64
62386,note_off,,,,,0,0,0,,,2,,,74,64
62421,note_off,,,,,35,0,0,,,1,,,81,64
62424,note_on,,,,,3,0,0,,,1,,,81,121
62471,note_on,,,,,47,0,0,,,4,,,66,121
62471,note_on,,,,,0,0,0,,,2,,,74,124
62472,note_on,,,,,1,0,0,,,4,,,54,127
62477,note_off,,,,,5,0,0,,,4,,,53,64
62478,note_off,,,,,1,0,0,,,2,,,73,64
62478,note_off,,,,,0,0,0,,,4,,,65,64
62513,note_off,,,,,35,0,0,,,1,,,81,64
62515,note_on,,,,,2,0,0,,,1,,,78,121
62523,note_off,,,,,8,0,0,,,2,,,74,64
62561,note_on,,,,,38,0,0,,,1,,,81,121
62568,note_off,,,,,7,0,0,,,1,,,78,64
62607,note_on,,,,,39,0,0,,,1,,,80,121
62615,note_off,,,,,8,0,0,,,1,,,81,64
62649,note_on,,,,,34,0,0,,,1,,,83,121
62657,note_off,,,,,8,0,0,,,1,,,80,64
62693,note_on,,,,,36,0,0,,,1,,,81,121
62701,note_off,,,,,8,0,0,,,1,,,83,64
62737,note_on,,,,,36,0,0,,,1,,,80,121
62745,note_off,,,,,8,0,0,,,1,,,81,64
62784,note_on,,,,,39,0,0,,,1,,,81,121
62791,note_off,,,,,7,0,0,,,1,,,80,64
62820,note_off,,,,,29,0,0,,,4,,,54,64
62821,note_off,,,,,1,0,0,,,4,,,66,64
62829,note_on,,,,,8,0,0,,,2,,,75,124
62830,note_on,,,,,1,0,0,,,4,,,53,127
62835,note_off,,,,,5,0,0,,,1,,,81,64
62874,note_on,,,,,39,0,0,,,4,,,57,127
62922,note_on,,,,,48,0,0,,,1,,,81,121
62923,note_on,,,,,1,0,0,,,4,,,60,122
62936,note_off,,,,,13,0,0,,,4,,,53,64
62967,note_on,,,,,31,0,0,,,4,,,63,117
62975,note_off,,,,,8,0,0,,,4,,,57,64
62983,note_off,,,,,8,0,0,,,2,,,75,64
63015,note_on,,,,,32,0,0,,,4,,,53,127
63023,note_off,,,,,8,0,0,,,4,,,60,64
63061,note_on,,,,,38,0,0,,,4,,,57,127
63108,note_off,,,,,47,0,0,,,4,,,63,64
63108,note_on,,,,,0,0,0,,,4,,,60,122
63108,note_on,,,,,0,0,0,,,1,,,84,121
63110,note_off,,,,,2,0,0,,,1,,,81,64
63124,note_off,,,,,14,0,0,,,4,,,53,64
63155,note_on,,,,,31,0,0,,,4,,,63,117
63162,note_off,,,,,7,0,0,,,4,,,57,64
63201,note_on,,,,,39,0,0,,,4,,,53,127
63208,note_off,,,,,7,0,0,,,4,,,60,64
63247,note_on,,,,,39,0,0,,,4,,,57,127
63293,note_off,,,,,46,0,0,,,4,,,63,64
63293,note_on,,,,,0,0,0,,,1,,,83,119
63294,note_on,,,,,1,0,0,,,4,,,60,122
63295,note_off,,,,,1,0,0,,,1,,,84,64
63309,note_off,,,,,14,0,0,,,4,,,53,64
63340,note_on,,,,,31,0,0,,,4,,,63,117
63348,note_off,,,,,8,0,0,,,4,,,57,64
63386,note_on,,,,,38,0,0,,,4,,,53,127
63394,note_off,,,,,8,0,0,,,4,,,60,64
63432,note_on,,,,,38,0,0,,,4,,,57,127
63478,note_off,,,,,46,0,0,,,4,,,63,64
63479,note_on,,,,,1,0,0,,,1,,,81,119
63479,note_on,,,,,0,0,0,,,4,,,60,122
63482,note_off,,,,,3,0,0,,,1,,,83,64
63494,note_off,,,,,12,0,0,,,4,,,53,64
63525,note_on,,,,,31,0,0,,,4,,,63,117
63533,note_off,,,,,8,0,0,,,4,,,57,64
63565,note_off,,,,,32,0,0,,,1,,,81,64
63571,note_off,,,,,6,0,0,,,4,,,60,64
63572,note_on,,,,,1,0,0,,,4,,,52,127
63572,note_on,,,,,0,0,0,,,1,,,80,119
63618,note_off,,,,,46,0,0,,,4,,,63,64
63664,note_on,,,,,46,0,0,,,3,,,64,124
63749,note_off,,,,,85,0,0,,,3,,,64,64
63756,note_on,,,,,7,0,0,,,3,,,68,121
63757,note_on,,,,,1,0,0,,,3,,,64,124
63834,note_off,,,,,77,0,0,,,1,,,80,64
63842,note_off,,,,,8,0,0,,,3,,,64,64
63848,note_off,,,,,6,0,0,,,3,,,68,64
63850,note_on,,,,,2,0,0,,,2,,,76,118
63850,note_on,,,,,0,0,0,,,3,,,68,117
63851,note_on,,,,,1,0,0,,,3,,,64,124
63935,note_off,,,,,84,0,0,,,3,,,64,64
63936,note_off,,,,,1,0,0,,,2,,,76,64
63940,note_off,,,,,4,0,0,,,3,,,68,64
63944,note_on,,,,,4,0,0,,,2,,,73,109
63944,note_on,,,,,0,0,0,,,2,,,77,109
63945,note_on,,,,,1,0,0,,,3,,,70,112
63945,note_on,,,,,0,0,0,,,3,,,64,124
64028,note_off,,,,,83,0,0,,,3,,,64,64
64029,note_off,,,,,1,0,0,,,2,,,77,64
64033,note_off,,,,,4,0,0,,,3,,,70,64
64035,note_on,,,,,2,0,0,,,3,,,70,112
64035,note_on,,,,,0,0,0,,,1,,,78,106
64036,note_on,,,,,1,0,0,,,3,,,64,124
64119,note_off,,,,,83,0,0,,,3,,,64,64
64123,note_off,,,,,4,0,0,,,2,,,73,64
64125,note_off,,,,,2,0,0,,,3,,,70,64
64127,note_on,,,,,2,0,0,,,2,,,74,109
64128,note_on,,,,,1,0,0,,,3,,,71,110
64128,note_on,,,,,0,0,0,,,3,,,64,124
64212,note_off,,,,,84,0,0,,,3,,,64,64
64213,note_off,,,,,1,0,0,,,1,,,78,64
64219,note_off,,,,,6,0,0,,,3,,,71,64
64221,note_on,,,,,2,0,0,,,1,,,78,110
64222,note_on,,,,,1,0,0,,,3,,,71,114
64222,note_on,,,,,0,0,0,,,3,,,64,124
64308,note_off,,,,,86,0,0,,,3,,,64,64
64308,note_off,,,,,0,0,0,,,2,,,74,64
64312,note_off,,,,,4,0,0,,,3,,,71,64
64315,note_off,,,,,3,0,0,,,1,,,78,64
64315,note_on,,,,,0,0,0,,,2,,,75,113
64316,note_on,,,,,1,0,0,,,3,,,64,124
64316,note_on,,,,,0,0,0,,,3,,,68,116
64401,note_off,,,,,85,0,0,,,3,,,64,64
64404,note_off,,,,,3,0,0,,,2,,,75,64
64406,note_off,,,,,2,0,0,,,3,,,68,64
64408,note_on,,,,,2,0,0,,,2,,,76,113
64409,note_on,,,,,1,0,0,,,3,,,68,116
64409,note_on,,,,,0,0,0,,,3,,,64,124
64496,note_off,,,,,87,0,0,,,3,,,64,64
64501,note_off,,,,,5,0,0,,,3,,,68,64
64503,note_on,,,,,2,0,0,,,2,,,73,117
64504,note_on,,,,,1,0,0,,,3,,,64,124
64504,note_on,,,,,0,0,0,,,3,,,69,116
64589,note_off,,,,,85,0,0,,,2,,,76,64
64589,note_off,,,,,0,0,0,,,3,,,64,64
64594,note_off,,,,,5,0,0,,,3,,,69,64
64597,note_off,,,,,3,0,0,,,2,,,73,64
64598,note_on,,,,,1,0,0,,,2,,,76,117
64598,note_on,,,,,0,0,0,,,3,,,69,116
64599,note_on,,,,,1,0,0,,,3,,,64,124
64674,note_off,,,,,75,0,0,,,2,,,76,64
64682,note_off,,,,,8,0,0,,,3,,,64,64
64688,note_off,,,,,6,0,0,,,3,,,69,64
64690,note_on,,,,,2,0,0,,,1,,,81,114
64690,note_on,,,,,0,0,0,,,3,,,66,121
64691,note_on,,,,,1,0,0,,,3,,,64,124
64775,note_off,,,,,84,0,0,,,3,,,64,64
64779,note_off,,,,,4,0,0,,,3,,,66,64
64783,note_off,,,,,4,0,0,,,1,,,81,64
64783,note_on,,,,,0,0,0,,,2,,,74,117
64784,note_on,,,,,1,0,0,,,3,,,64,124
64784,note_on,,,,,0,0,0,,,3,,,66,121
64867,note_off,,,,,83,0,0,,,3,,,64,64
64873,note_off,,,,,6,0,0,,,3,,,66,64
64875,note_on,,,,,2,0,0,,,3,,,71,118
64875,note_on,,,,,0,0,0,,,3,,,68,116
64876,note_on,,,,,1,0,0,,,3,,,64,124
64959,note_off,,,,,83,0,0,,,3,,,64,64
64960,note_off,,,,,1,0,0,,,2,,,74,64
64966,note_off,,,,,6,0,0,,,3,,,68,64
64968,note_on,,,,,2,0,0,,,3,,,68,116
64968,note_on,,,,,0,0,0,,,2,,,74,117
64969,note_on,,,,,1,0,0,,,3,,,64,124
65052,note_off,,,,,83,0,0,,,2,,,74,64
65053,note_off,,,,,1,0,0,,,3,,,64,64
65054,note_off,,,,,1,0,0,,,3,,,71,64
65060,note_off,,,,,6,0,0,,,3,,,68,64
65061,note_on,,,,,1,0,0,,,2,,,72,117
65061,note_on,,,,,0,0,0,,,3,,,69,116
65062,note_on,,,,,1,0,0,,,3,,,64,124
65145,note_off,,,,,83,0,0,,,3,,,64,64
65150,note_off,,,,,5,0,0,,,3,,,69,64
65151,note_off,,,,,1,0,0,,,2,,,72,64
65153,note_on,,,,,2,0,0,,,2,,,73,117
65154,note_on,,,,,1,0,0,,,3,,,69,116
65154,note_on,,,,,0,0,0,,,3,,,64,124
65237,note_off,,,,,83,0,0,,,3,,,64,64
65238,note_off,,,,,1,0,0,,,2,,,73,64
65244,note_on,,,,,6,0,0,,,3,,,64,124
65244,note_on,,,,,0,0,0,,,2,,,73,117
65327,note_off,,,,,83,0,0,,,3,,,64,64
65328,note_off,,,,,1,0,0,,,2,,,73,64
65336,note_on,,,,,8,0,0,,,2,,,76,122
65336,note_on,,,,,0,0,0,,,2,,,73,122
65337,note_on,,,,,1,0,0,,,3,,,64,124
65397,note_off,,,,,60,0,0,,,3,,,69,64
65420,note_off,,,,,23,0,0,,,3,,,64,64
65420,note_off,,,,,0,0,0,,,2,,,73,64
65420,note_off,,,,,0,0,0,,,2,,,76,64
65426,note_on,,,,,6,0,0,,,2,,,74,122
65426,note_on,,,,,0,0,0,,,1,,,78,119
65427,note_on,,,,,1,0,0,,,3,,,64,124
65472,note_on,,,,,45,0,0,,,1,,,80,119
65480,note_off,,,,,8,0,0,,,1,,,78,64
65517,note_on,,,,,37,0,0,,,1,,,81,119
65524,note_off,,,,,7,0,0,,,1,,,80,64
65563,note_on,,,,,39,0,0,,,1,,,80,119
65570,note_off,,,,,7,0,0,,,1,,,81,64
65607,note_on,,,,,37,0,0,,,1,,,83,119
65614,note_off,,,,,7,0,0,,,1,,,80,64
65652,note_on,,,,,38,0,0,,,1,,,81,119
65658,note_off,,,,,6,0,0,,,1,,,83,64
65694,note_on,,,,,36,0,0,,,1,,,80,119
65702,note_off,,,,,8,0,0,,,1,,,81,64
65738,note_on,,,,,36,0,0,,,1,,,78,119
65747,note_off,,,,,9,0,0,,,1,,,80,64
65776,note_off,,,,,29,0,0,,,2,,,74,64
65784,note_on,,,,,8,0,0,,,2,,,76,122
65784,note_on,,,,,0,0,0,,,2,,,73,122
65790,note_off,,,,,6,0,0,,,1,,,78,64
65829,note_on,,,,,39,0,0,,,1,,,81,119
65836,note_off,,,,,7,0,0,,,2,,,76,64
65873,note_on,,,,,37,0,0,,,1,,,85,119
65880,note_off,,,,,7,0,0,,,1,,,81,64
65917,note_on,,,,,37,0,0,,,1,,,80,119
65925,note_off,,,,,8,0,0,,,1,,,85,64
65963,note_on,,,,,38,0,0,,,1,,,81,119
65964,note_on,,,,,1,0,0,,,3,,,69,121
65970,note_off,,,,,6,0,0,,,1,,,80,64
65973,note_off,,,,,3,0,0,,,2,,,73,64
66006,note_on,,,,,33,0,0,,,2,,,76,122
66014,note_off,,,,,8,0,0,,,1,,,81,64
66024,note_off,,,,,10,0,0,,,4,,,52,64
66052,note_on,,,,,28,0,0,,,1,,,78,119
66060,note_off,,,,,8,0,0,,,2,,,76,64
66096,note_on,,,,,36,0,0,,,2,,,73,122
66104,note_off,,,,,8,0,0,,,1,,,78,64
66143,note_on,,,,,39,0,0,,,3,,,71,123
66143,note_on,,,,,0,0,0,,,2,,,74,122
66145,note_off,,,,,2,0,0,,,3,,,69,64
66151,note_off,,,,,6,0,0,,,2,,,73,64
66188,note_on,,,,,37,0,0,,,2,,,76,122
66195,note_off,,,,,7,0,0,,,2,,,74,64
66234,note_on,,,,,39,0,0,,,1,,,78,119
66241,note_off,,,,,7,0,0,,,2,,,76,64
66278,note_on,,,,,37,0,0,,,2,,,76,122
66286,note_off,,,,,8,0,0,,,1,,,78,64
66324,note_on,,,,,38,0,0,,,3,,,68,121
66324,note_on,,,,,0,0,0,,,1,,,80,119
66325,note_off,,,,,1,0,0,,,3,,,71,64
66331,note_off,,,,,6,0,0,,,2,,,76,64
66369,note_on,,,,,38,0,0,,,1,,,78,119
66377,note_off,,,,,8,0,0,,,1,,,80,64
66413,note_on,,,,,36,0,0,,,2,,,76,122
66421,note_off,,,,,8,0,0,,,1,,,78,64
66459,note_on,,,,,38,0,0,,,2,,,74,122
66467,note_off,,,,,8,0,0,,,2,,,76,64
66504,note_on,,,,,37,0,0,,,2,,,73,122
66512,note_off,,,,,8,0,0,,,2,,,74,64
66551,note_on,,,,,39,0,0,,,2,,,76,122
66558,note_off,,,,,7,0,0,,,2,,,73,64
66595,note_on,,,,,37,0,0,,,1,,,81,124
66602,note_off,,,,,7,0,0,,,2,,,76,64
66641,note_on,,,,,39,0,0,,,1,,,80,124
66648,note_off,,,,,7,0,0,,,1,,,81,64
66685,note_on,,,,,37,0,0,,,1,,,81,124
66693,note_off,,,,,8,0,0,,,1,,,80,64
66731,note_on,,,,,38,0,0,,,2,,,76,127
66777,note_off,,,,,46,0,0,,,3,,,64,64
66778,note_on,,,,,1,0,0,,,2,,,73,127
66778,note_on,,,,,0,0,0,,,4,,,45,127
66779,note_on,,,,,1,0,0,,,4,,,33,127
66821,note_off,,,,,42,0,0,,,3,,,68,64
66822,note_on,,,,,1,0,0,,,3,,,69,126
66863,note_off,,,,,41,0,0,,,1,,,81,64
66866,note_off,,,,,3,0,0,,,4,,,33,64
66867,note_off,,,,,1,0,0,,,4,,,45,64
66867,note_on,,,,,0,0,0,,,1,,,81,126
66868,note_on,,,,,1,0,0,,,4,,,49,127
66868,note_on,,,,,0,0,0,,,4,,,37,127
66908,note_off,,,,,40,0,0,,,2,,,76,64
66912,note_on,,,,,4,0,0,,,2,,,76,127
66950,note_off,,,,,38,0,0,,,2,,,73,64
66958,note_off,,,,,8,0,0,,,4,,,37,64
66958,note_off,,,,,0,0,0,,,4,,,49,64
66959,note_on,,,,,1,0,0,,,4,,,52,127
66959,note_on,,,,,0,0,0,,,2,,,73,127
66960,note_on,,,,,1,0,0,,,4,,,40,127
66994,note_off,,,,,34,0,0,,,3,,,69,64
67002,note_on,,,,,8,0,0,,,3,,,69,126
67042,note_off,,,,,40,0,0,,,1,,,81,64
67048,note_off,,,,,6,0,0,,,4,,,40,64
67048,note_off,,,,,0,0,0,,,4,,,52,64
67049,note_on,,,,,1,0,0,,,4,,,57,127
67049,note_on,,,,,0,0,0,,,1,,,81,126
67050,note_on,,,,,1,0,0,,,4,,,45,127
67088,note_off,,,,,38,0,0,,,2,,,76,64
67092,note_on,,,,,4,0,0,,,2,,,76,127
67130,note_off,,,,,38,0,0,,,2,,,73,64
67137,note_on,,,,,7,0,0,,,2,,,73,127
67175,note_off,,,,,38,0,0,,,3,,,69,64
67182,note_on,,,,,7,0,0,,,3,,,69,126
67222,note_off,,,,,40,0,0,,,1,,,81,64
67227,note_on,,,,,5,0,0,,,1,,,78,126
67243,note_off,,,,,16,0,0,,,2,,,76,64
67272,note_on,,,,,29,0,0,,,1,,,80,126
67279,note_off,,,,,7,0,0,,,1,,,78,64
67316,note_on,,,,,37,0,0,,,1,,,81,126
67323,note_off,,,,,7,0,0,,,1,,,80,64
67360,note_on,,,,,37,0,0,,,1,,,80,126
67369,note_off,,,,,9,0,0,,,1,,,81,64
67406,note_off,,,,,37,0,0,,,4,,,57,64
67406,note_off,,,,,0,0,0,,,4,,,45,64
67407,note_on,,,,,1,0,0,,,1,,,81,126
67414,note_off,,,,,7,0,0,,,1,,,80,64
67452,note_on,,,,,38,0,0,,,1,,,78,126
67489,note_off,,,,,37,0,0,,,2,,,73,64
67497,note_on,,,,,8,0,0,,,2,,,74,127
67498,note_on,,,,,1,0,0,,,4,,,50,127
67498,note_on,,,,,0,0,0,,,4,,,38,127
67535,note_off,,,,,37,0,0,,,3,,,69,64
67542,note_on,,,,,7,0,0,,,3,,,69,126
67583,note_off,,,,,41,0,0,,,1,,,81,64
67586,note_off,,,,,3,0,0,,,4,,,38,64
67587,note_off,,,,,1,0,0,,,4,,,50,64
67587,note_on,,,,,0,0,0,,,1,,,81,126
67588,note_on,,,,,1,0,0,,,4,,,54,127
67588,note_on,,,,,0,0,0,,,4,,,42,127
67627,note_off,,,,,39,0,0,,,1,,,78,64
67632,note_on,,,,,5,0,0,,,1,,,78,126
67669,note_off,,,,,37,0,0,,,2,,,74,64
67677,note_off,,,,,8,0,0,,,4,,,42,64
67677,note_off,,,,,0,0,0,,,4,,,54,64
67678,note_on,,,,,1,0,0,,,4,,,57,127
67678,note_on,,,,,0,0,0,,,2,,,74,127
67679,note_on,,,,,1,0,0,,,4,,,45,127
67715,note_off,,,,,36,0,0,,,3,,,69,64
67721,note_on,,,,,6,0,0,,,3,,,69,126
67763,note_off,,,,,42,0,0,,,1,,,81,64
67767,note_off,,,,,4,0,0,,,4,,,57,64
67767,note_off,,,,,0,0,0,,,4,,,45,64
67768,note_on,,,,,1,0,0,,,4,,,62,127
67768,note_on,,,,,0,0,0,,,1,,,81,126
67769,note_on,,,,,1,0,0,,,4,,,50,127
67806,note_off,,,,,37,0,0,,,1,,,78,64
67812,note_on,,,,,6,0,0,,,1,,,78,126
67849,note_off,,,,,37,0,0,,,2,,,74,64
67857,note_on,,,,,8,0,0,,,2,,,74,127
67895,note_off,,,,,38,0,0,,,3,,,69,64
67901,note_on,,,,,6,0,0,,,3,,,69,126
67939,note_off,,,,,38,0,0,,,4,,,50,64
67940,note_off,,,,,1,0,0,,,4,,,62,64
67942,note_off,,,,,2,0,0,,,1,,,81,64
67948,note_off,,,,,6,0,0,,,1,,,78,64
67948,note_off,,,,,0,0,0,,,2,,,74,64
67949,note_on,,,,,1,0,0,,,2,,,76,127
67949,note_on,,,,,0,0,0,,,2,,,73,127
67950,note_on,,,,,1,0,0,,,4,,,64,124
67950,note_on,,,,,0,0,0,,,4,,,52,127
68033,note_off,,,,,83,0,0,,,4,,,52,64
68034,note_off,,,,,1,0,0,,,4,,,64,64
68040,note_on,,,,,6,0,0,,,4,,,64,124
68040,note_on,,,,,0,0,0,,,4,,,52,127
68087,note_off,,,,,47,0,0,,,2,,,73,64
68088,note_off,,,,,1,0,0,,,2,,,76,64
68088,note_on,,,,,0,0,0,,,1,,,78,116
68088,note_on,,,,,0,0,0,,,2,,,74,119
68106,note_off,,,,,18,0,0,,,2,,,74,64
68120,note_on,,,,,14,0,0,,,3,,,71,118
68120,note_on,,,,,0,0,0,,,2,,,74,119
68128,note_off,,,,,8,0,0,,,1,,,78,64
68129,note_off,,,,,1,0,0,,,3,,,69,64
68135,note_off,,,,,6,0,0,,,4,,,52,64
68136,note_off,,,,,1,0,0,,,4,,,64,64
68142,note_off,,,,,6,0,0,,,2,,,74,64
68142,note_on,,,,,0,0,0,,,2,,,73,119
68143,note_on,,,,,1,0,0,,,3,,,69,126
68143,note_on,,,,,0,0,0,,,4,,,64,124
68144,note_on,,,,,1,0,0,,,4,,,52,127
68163,note_off,,,,,19,0,0,,,3,,,71,64
68224,note_off,,,,,61,0,0,,,4,,,64,64
68224,note_off,,,,,0,0,0,,,4,,,52,64
68231,note_on,,,,,7,0,0,,,4,,,64,124
68232,note_on,,,,,1,0,0,,,4,,,52,127
68316,note_off,,,,,84,0,0,,,4,,,52,64
68317,note_off,,,,,1,0,0,,,4,,,64,64
68323,note_on,,,,,6,0,0,,,4,,,64,124
68324,note_on,,,,,1,0,0,,,4,,,52,127
68386,note_off,,,,,62,0,0,,,2,,,73,64
68409,note_off,,,,,23,0,0,,,4,,,64,64
68409,note_off,,,,,0,0,0,,,4,,,52,64
68415,note_on,,,,,6,0,0,,,2,,,76,127
68416,note_on,,,,,1,0,0,,,2,,,73,127
68416,note_on,,,,,0,0,0,,,4,,,64,124
68417,note_on,,,,,1,0,0,,,4,,,52,127
68498,note_off,,,,,81,0,0,,,4,,,52,64
68498,note_off,,,,,0,0,0,,,4,,,64,64
68507,note_on,,,,,9,0,0,,,2,,,74,127
68507,note_on,,,,,0,0,0,,,3,,,71,127
68508,note_off,,,,,1,0,0,,,3,,,69,64
68508,note_on,,,,,0,0,0,,,4,,,64,124
68508,note_on,,,,,0,0,0,,,4,,,52,127
68512,note_off,,,,,4,0,0,,,2,,,73,64
68513,note_off,,,,,1,0,0,,,2,,,76,64
68586,note_off,,,,,73,0,0,,,4,,,52,64
68587,note_off,,,,,1,0,0,,,4,,,64,64
68593,note_off,,,,,6,0,0,,,3,,,71,64
68593,note_on,,,,,0,0,0,,,3,,,71,127
68594,note_on,,,,,1,0,0,,,4,,,64,124
68594,note_on,,,,,0,0,0,,,3,,,68,126
68595,note_on,,,,,1,0,0,,,4,,,52,127
68601,note_off,,,,,6,0,0,,,2,,,74,64
68687,note_on,,,,,86,0,0,,,2,,,73,127
68695,note_off,,,,,8,0,0,,,3,,,71,64
68733,note_on,,,,,38,0,0,,,2,,,76,127
68747,note_off,,,,,14,0,0,,,2,,,73,64
68777,note_on,,,,,30,0,0,,,1,,,81,126
68791,note_off,,,,,14,0,0,,,2,,,76,64
68823,note_off,,,,,32,0,0,,,1,,,81,64
68824,note_on,,,,,1,0,0,,,1,,,80,126
68868,note_off,,,,,44,0,0,,,1,,,80,64
68869,note_on,,,,,1,0,0,,,1,,,81,126
68914,note_on,,,,,45,0,0,,,2,,,76,127
68950,note_off,,,,,36,0,0,,,3,,,68,64
68958,note_off,,,,,8,0,0,,,4,,,64,64
68958,note_off,,,,,0,0,0,,,4,,,52,64
68959,note_on,,,,,1,0,0,,,2,,,73,127
68959,note_on,,,,,0,0,0,,,4,,,45,127
68960,note_on,,,,,1,0,0,,,4,,,33,127
69003,note_on,,,,,43,0,0,,,3,,,69,126
69045,note_off,,,,,42,0,0,,,1,,,81,64
69049,note_off,,,,,4,0,0,,,4,,,33,64
69049,note_off,,,,,0,0,0,,,4,,,45,64
69050,note_on,,,,,1,0,0,,,4,,,49,127
69050,note_on,,,,,0,0,0,,,1,,,81,126
69051,note_on,,,,,1,0,0,,,4,,,37,127
69089,note_off,,,,,38,0,0,,,2,,,76,64
69095,note_on,,,,,6,0,0,,,2,,,76,127
69135,note_off,,,,,40,0,0,,,2,,,73,64
69139,note_off,,,,,4,0,0,,,4,,,37,64
69140,note_off,,,,,1,0,0,,,4,,,49,64
69140,note_on,,,,,0,0,0,,,2,,,73,127
69141,note_on,,,,,1,0,0,,,4,,,52,127
69141,note_on,,,,,0,0,0,,,4,,,40,127
69177,note_off,,,,,36,0,0,,,3,,,69,64
69184,note_on,,,,,7,0,0,,,2,,,69,126
69225,note_off,,,,,41,0,0,,,1,,,81,64
69228,note_off,,,,,3,0,0,,,4,,,40,64
69229,note_off,,,,,1,0,0,,,4,,,52,64
69229,note_on,,,,,0,0,0,,,1,,,81,126
69230,note_on,,,,,1,0,0,,,4,,,45,127
69230,note_on,,,,,0,0,0,,,4,,,57,127
69269,note_off,,,,,39,0,0,,,2,,,76,64
69275,note_on,,,,,6,0,0,,,2,,,76,127
69315,note_off,,,,,40,0,0,,,2,,,73,64
69319,note_on,,,,,4,0,0,,,2,,,73,127
69357,note_off,,,,,38,0,0,,,2,,,69,64
69364,note_on,,,,,7,0,0,,,2,,,69,126
69404,note_off,,,,,40,0,0,,,1,,,81,64
69410,note_off,,,,,6,0,0,,,2,,,76,64
69410,note_on,,,,,0,0,0,,,1,,,78,126
69455,note_off,,,,,45,0,0,,,1,,,78,64
69456,note_on,,,,,1,0,0,,,1,,,80,126
69498,note_off,,,,,42,0,0,,,1,,,80,64
69499,note_on,,,,,1,0,0,,,1,,,81,126
69543,note_off,,,,,44,0,0,,,1,,,81,64
69544,note_on,,,,,1,0,0,,,1,,,80,126
69589,note_off,,,,,45,0,0,,,1,,,80,64
69589,note_off,,,,,0,0,0,,,4,,,45,64
69590,note_off,,,,,1,0,0,,,4,,,57,64
69590,note_on,,,,,0,0,0,,,1,,,81,126
69635,note_on,,,,,45,0,0,,,1,,,78,126
69671,note_off,,,,,36,0,0,,,2,,,73,64
69679,note_on,,,,,8,0,0,,,2,,,74,127
69679,note_on,,,,,0,0,0,,,4,,,50,127
69680,note_on,,,,,1,0,0,,,4,,,38,127
69717,note_off,,,,,37,0,0,,,2,,,69,64
69727,note_on,,,,,10,0,0,,,2,,,69,126
69767,note_off,,,,,40,0,0,,,1,,,81,64
69771,note_off,,,,,4,0,0,,,4,,,38,64
69771,note_on,,,,,0,0,0,,,1,,,81,126
69772,note_off,,,,,1,0,0,,,4,,,50,64
69772,note_on,,,,,0,0,0,,,4,,,54,127
69773,note_on,,,,,1,0,0,,,4,,,42,127
69812,note_off,,,,,39,0,0,,,1,,,78,64
69816,note_on,,,,,4,0,0,,,1,,,78,126
69856,note_off,,,,,40,0,0,,,2,,,74,64
69862,note_on,,,,,6,0,0,,,2,,,74,127
69863,note_off,,,,,1,0,0,,,4,,,54,64
69863,note_off,,,,,0,0,0,,,4,,,42,64
69864,note_on,,,,,1,0,0,,,4,,,57,127
69864,note_on,,,,,0,0,0,,,4,,,45,127
69900,note_off,,,,,36,0,0,,,2,,,69,64
69908,note_on,,,,,8,0,0,,,2,,,69,126
69947,note_off,,,,,39,0,0,,,1,,,81,64
69952,note_on,,,,,5,0,0,,,1,,,81,126
69953,note_off,,,,,1,0,0,,,4,,,45,64
69953,note_off,,,,,0,0,0,,,4,,,57,64
69954,note_on,,,,,1,0,0,,,4,,,50,127
69954,note_on,,,,,0,0,0,,,4,,,62,127
69993,note_off,,,,,39,0,0,,,1,,,78,64
69997,note_on,,,,,4,0,0,,,1,,,78,126
70038,note_off,,,,,41,0,0,,,2,,,74,64
70042,note_on,,,,,4,0,0,,,2,,,74,127
70080,note_off,,,,,38,0,0,,,2,,,69,64
70088,note_on,,,,,8,0,0,,,2,,,69,126
70094,note_off,,,,,6,0,0,,,2,,,74,64
70125,note_off,,,,,31,0,0,,,4,,,62,64
70125,note_off,,,,,0,0,0,,,4,,,50,64
70127,note_off,,,,,2,0,0,,,1,,,81,64
70131,note_off,,,,,4,0,0,,,1,,,78,64
70132,note_on,,,,,1,0,0,,,2,,,76,127
70132,note_on,,,,,0,0,0,,,2,,,73,127
70133,note_on,,,,,1,0,0,,,4,,,64,124
70133,note_on,,,,,0,0,0,,,4,,,52,127
70219,note_off,,,,,86,0,0,,,4,,,52,64
70220,note_off,,,,,1,0,0,,,4,,,64,64
70226,note_on,,,,,6,0,0,,,4,,,64,124
70227,note_on,,,,,1,0,0,,,4,,,52,127
70272,note_off,,,,,45,0,0,,,2,,,73,64
70272,note_off,,,,,0,0,0,,,2,,,76,64
70272,note_on,,,,,0,0,0,,,1,,,78,116
70272,note_on,,,,,0,0,0,,,2,,,74,119
70291,note_off,,,,,19,0,0,,,2,,,74,64
70300,note_on,,,,,9,0,0,,,2,,,74,119
70301,note_on,,,,,1,0,0,,,2,,,71,118
70309,note_off,,,,,8,0,0,,,1,,,78,64
70309,note_off,,,,,0,0,0,,,2,,,69,64
70318,note_off,,,,,9,0,0,,,4,,,52,64
70318,note_off,,,,,0,0,0,,,4,,,64,64
70324,note_off,,,,,6,0,0,,,2,,,74,64
70325,note_on,,,,,1,0,0,,,2,,,69,126
70325,note_on,,,,,0,0,0,,,2,,,73,124
70326,note_on,,,,,1,0,0,,,4,,,64,124
70326,note_on,,,,,0,0,0,,,4,,,52,127
70347,note_off,,,,,21,0,0,,,2,,,71,64
70410,note_off,,,,,63,0,0,,,4,,,52,64
70411,note_off,,,,,1,0,0,,,4,,,64,64
70417,note_on,,,,,6,0,0,,,4,,,64,124
70418,note_on,,,,,1,0,0,,,4,,,52,127
70505,note_off,,,,,87,0,0,,,4,,,52,64
70505,note_off,,,,,0,0,0,,,4,,,64,64
70513,note_on,,,,,8,0,0,,,4,,,52,127
70513,note_on,,,,,0,0,0,,,4,,,64,124
70576,note_off,,,,,63,0,0,,,2,,,73,64
70600,note_off,,,,,24,0,0,,,4,,,52,64
70601,note_off,,,,,1,0,0,,,4,,,64,64
70608,note_on,,,,,7,0,0,,,2,,,76,127
70608,note_on,,,,,0,0,0,,,2,,,73,127
70608,note_on,,,,,0,0,0,,,4,,,64,124
70609,note_on,,,,,1,0,0,,,4,,,52,127
70692,note_off,,,,,83,0,0,,,4,,,52,64
70692,note_off,,,,,0,0,0,,,4,,,64,64
70699,note_off,,,,,7,0,0,,,2,,,73,64
70699,note_off,,,,,0,0,0,,,2,,,76,64
70700,note_off,,,,,1,0,0,,,2,,,69,64
70700,note_on,,,,,0,0,0,,,2,,,74,127
70701,note_on,,,,,1,0,0,,,2,,,71,127
70701,note_on,,,,,0,0,0,,,4,,,64,124
70702,note_on,,,,,1,0,0,,,4,,,52,127
70780,note_off,,,,,78,0,0,,,2,,,71,64
70781,note_off,,,,,1,0,0,,,4,,,52,64
70781,note_off,,,,,0,0,0,,,4,,,64,64
70788,note_off,,,,,7,0,0,,,2,,,74,64
70788,note_on,,,,,0,0,0,,,2,,,71,127
70789,note_on,,,,,1,0,0,,,4,,,64,124
70789,note_on,,,,,0,0,0,,,2,,,68,126
70790,note_on,,,,,1,0,0,,,4,,,52,127
70882,note_off,,,,,92,0,0,,,2,,,71,64
70882,note_off,,,,,0,0,0,,,2,,,68,64
70883,note_off,,,,,1,0,0,,,4,,,52,64
70884,note_off,,,,,1,0,0,,,4,,,64,64
70884,note_on,,,,,0,0,0,,,2,,,69,126
70884,note_on,,,,,0,0,0,,,4,,,57,127
71024,note_off,,,,,140,0,0,,,2,,,69,64
71025,note_off,,,,,1,0,0,,,4,,,57,64
71025,note_on,,,,,0,0,0,,,2,,,71,127
71026,note_on,,,,,1,0,0,,,4,,,59,127
71051,note_on,,,,,25,0,0,,,2,,,68,126
71053,note_on,,,,,2,0,0,,,4,,,55,127
71063,note_off,,,,,10,0,0,,,2,,,71,64
71063,note_off,,,,,0,0,0,,,4,,,59,64
71079,note_on,,,,,16,0,0,,,4,,,66,126
71079,note_on,,,,,0,0,0,,,4,,,54,127
71087,note_off,,,,,8,0,0,,,2,,,68,64
71088,note_off,,,,,1,0,0,,,4,,,55,64
71198,note_off,,,,,110,0,0,,,4,,,54,64
71198,note_off,,,,,0,0,0,,,4,,,66,64
71222,note_on,,,,,24,0,0,,,2,,,68,126
71224,note_on,,,,,2,0,0,,,4,,,56,127
71249,note_on,,,,,25,0,0,,,4,,,52,127
71249,note_on,,,,,0,0,0,,,4,,,64,124
71259,note_off,,,,,10,0,0,,,2,,,68,64
71260,note_off,,,,,1,0,0,,,4,,,56,64
71277,note_off,,,,,17,0,0,,,4,,,64,64
71277,note_on,,,,,0,0,0,,,4,,,62,127
71278,note_on,,,,,1,0,0,,,4,,,50,127
71280,note_off,,,,,2,0,0,,,4,,,52,64
71398,note_off,,,,,118,0,0,,,4,,,62,64
71398,note_off,,,,,0,0,0,,,4,,,50,64
71423,note_on,,,,,25,0,0,,,4,,,64,124
71423,note_on,,,,,0,0,0,,,4,,,52,127
71448,note_on,,,,,25,0,0,,,4,,,61,127
71449,note_on,,,,,1,0,0,,,4,,,49,127
71460,note_off,,,,,11,0,0,,,4,,,52,64
71460,note_off,,,,,0,0,0,,,4,,,64,64
71479,note_on,,,,,19,0,0,,,4,,,59,127
71480,note_on,,,,,1,0,0,,,4,,,47,127
71486,note_off,,,,,6,0,0,,,4,,,49,64
71486,note_off,,,,,0,0,0,,,4,,,61,64
71618,note_off,,,,,132,0,0,,,4,,,59,64
71622,note_off,,,,,4,0,0,,,4,,,47,64
71624,note_on,,,,,2,0,0,,,4,,,61,127
71625,note_on,,,,,1,0,0,,,4,,,49,127
71649,note_on,,,,,24,0,0,,,4,,,57,127
71650,note_on,,,,,1,0,0,,,4,,,45,127
71659,note_off,,,,,9,0,0,,,4,,,49,64
71659,note_off,,,,,0,0,0,,,4,,,61,64
71680,note_on,,,,,21,0,0,,,4,,,44,127
71680,note_on,,,,,0,0,0,,,4,,,56,127
71688,note_off,,,,,8,0,0,,,4,,,57,64
71689,note_off,,,,,1,0,0,,,4,,,45,64
71866,note_on,,,,,177,0,0,,,2,,,76,127
71878,note_on,,,,,12,0,0,,,1,,,80,126
71891,note_on,,,,,13,0,0,,,1,,,82,126
71901,note_on,,,,,10,0,0,,,1,,,86,126
72052,note_off,,,,,151,0,0,,,4,,,56,64
72053,note_off,,,,,1,0,0,,,4,,,44,64
72054,note_on,,,,,1,0,0,,,4,,,57,127
72055,note_on,,,,,1,0,0,,,4,,,45,127
72147,note_off,,,,,92,0,0,,,2,,,76,64
72158,note_off,,,,,11,0,0,,,1,,,80,64
72169,note_off,,,,,11,0,0,,,1,,,82,64
72181,note_off,,,,,12,0,0,,,1,,,86,64
72243,note_on,,,,,62,0,0,,,2,,,73,127
72256,note_on,,,,,13,0,0,,,2,,,76,127
72275,note_on,,,,,19,0,0,,,1,,,81,126
72293,note_on,,,,,18,0,0,,,1,,,85,126
72450,note_off,,,,,157,0,0,,,4,,,57,64
72452,note_on,,,,,2,0,0,,,2,,,69,126
72453,note_on,,,,,1,0,0,,,4,,,62,127
72496,note_off,,,,,43,0,0,,,2,,,73,64
72505,note_off,,,,,9,0,0,,,2,,,76,64
72517,note_off,,,,,12,0,0,,,1,,,81,64
72527,note_off,,,,,10,0,0,,,1,,,85,64
72540,note_on,,,,,13,0,0,,,1,,,78,124
72638,note_on,,,,,98,0,0,,,2,,,77,125
72647,note_off,,,,,9,0,0,,,1,,,78,64
72728,note_on,,,,,81,0,0,,,1,,,78,124
72734,note_off,,,,,6,0,0,,,2,,,77,64
72815,note_on,,,,,81,0,0,,,2,,,77,125
72823,note_off,,,,,8,0,0,,,1,,,78,64
72911,note_on,,,,,88,0,0,,,1,,,78,124
72917,note_off,,,,,6,0,0,,,2,,,77,64
72997,note_on,,,,,80,0,0,,,1,,,80,124
73005,note_off,,,,,8,0,0,,,1,,,78,64
73084,note_on,,,,,79,0,0,,,1,,,81,124
73092,note_off,,,,,8,0,0,,,1,,,80,64
73174,note_on,,,,,82,0,0,,,2,,,72,125
73175,note_on,,,,,1,0,0,,,4,,,63,125
73189,note_off,,,,,14,0,0,,,2,,,69,64
73190,note_off,,,,,1,0,0,,,4,,,62,64
73256,note_off,,,,,66,0,0,,,1,,,81,64
73263,note_on,,,,,7,0,0,,,1,,,81,124
73356,note_on,,,,,93,0,0,,,1,,,80,124
73363,note_off,,,,,7,0,0,,,1,,,81,64
73450,note_on,,,,,87,0,0,,,1,,,81,124
73457,note_off,,,,,7,0,0,,,1,,,80,64
73536,note_on,,,,,79,0,0,,,1,,,80,124
73544,note_off,,,,,8,0,0,,,1,,,81,64
73630,note_on,,,,,86,0,0,,,1,,,81,124
73638,note_off,,,,,8,0,0,,,1,,,80,64
73722,note_on,,,,,84,0,0,,,1,,,83,124
73730,note_off,,,,,8,0,0,,,1,,,81,64
73811,note_on,,,,,81,0,0,,,1,,,84,124
73818,note_off,,,,,7,0,0,,,1,,,83,64
73826,note_off,,,,,8,0,0,,,4,,,45,64
73899,note_on,,,,,73,0,0,,,4,,,52,127
73899,note_on,,,,,0,0,0,,,1,,,85,124
73908,note_off,,,,,9,0,0,,,1,,,84,64
73915,note_off,,,,,7,0,0,,,2,,,72,64
73917,note_off,,,,,2,0,0,,,4,,,63,64
73946,note_on,,,,,29,0,0,,,1,,,88,125
73946,note_on,,,,,0,0,0,,,4,,,61,127
73962,note_off,,,,,16,0,0,,,1,,,85,64
73993,note_on,,,,,31,0,0,,,1,,,85,124
73994,note_on,,,,,1,0,0,,,4,,,57,127
74005,note_off,,,,,11,0,0,,,1,,,88,64
74027,note_off,,,,,22,0,0,,,4,,,61,64
74034,note_on,,,,,7,0,0,,,1,,,81,123
74035,note_on,,,,,1,0,0,,,4,,,61,127
74049,note_off,,,,,14,0,0,,,1,,,85,64
74049,note_off,,,,,0,0,0,,,4,,,52,64
74071,note_off,,,,,22,0,0,,,1,,,81,64
74078,note_on,,,,,7,0,0,,,1,,,81,123
74079,note_on,,,,,1,0,0,,,4,,,52,127
74116,note_off,,,,,37,0,0,,,4,,,61,64
74124,note_on,,,,,8,0,0,,,4,,,61,127
74124,note_on,,,,,0,0,0,,,1,,,85,119
74138,note_off,,,,,14,0,0,,,1,,,81,64
74138,note_off,,,,,0,0,0,,,4,,,57,64
74172,note_on,,,,,34,0,0,,,1,,,81,123
74172,note_on,,,,,0,0,0,,,4,,,57,127
74186,note_off,,,,,14,0,0,,,1,,,85,64
74207,note_off,,,,,21,0,0,,,4,,,61,64
74213,note_on,,,,,6,0,0,,,2,,,76,125
74213,note_on,,,,,0,0,0,,,4,,,61,127
74227,note_off,,,,,14,0,0,,,1,,,81,64
74228,note_off,,,,,1,0,0,,,4,,,52,64
74247,note_off,,,,,19,0,0,,,2,,,76,64
74255,note_on,,,,,8,0,0,,,2,,,76,125
74256,note_on,,,,,1,0,0,,,4,,,52,127
74291,note_off,,,,,35,0,0,,,4,,,61,64
74298,note_on,,,,,7,0,0,,,1,,,81,123
74299,note_on,,,,,1,0,0,,,4,,,61,127
74313,note_off,,,,,14,0,0,,,2,,,76,64
74313,note_off,,,,,0,0,0,,,4,,,57,64
74346,note_on,,,,,33,0,0,,,2,,,76,125
74347,note_on,,,,,1,0,0,,,4,,,57,127
74361,note_off,,,,,14,0,0,,,1,,,81,64
74380,note_off,,,,,19,0,0,,,4,,,61,64
74388,note_on,,,,,8,0,0,,,4,,,61,127
74388,note_on,,,,,0,0,0,,,2,,,73,125
74402,note_off,,,,,14,0,0,,,2,,,76,64
74402,note_off,,,,,0,0,0,,,4,,,52,64
74424,note_off,,,,,22,0,0,,,2,,,73,64
74430,note_on,,,,,6,0,0,,,2,,,73,125
74430,note_on,,,,,0,0,0,,,4,,,52,127
74471,note_off,,,,,41,0,0,,,4,,,61,64
74479,note_on,,,,,8,0,0,,,2,,,76,125
74479,note_on,,,,,0,0,0,,,4,,,61,127
74493,note_off,,,,,14,0,0,,,2,,,73,64
74494,note_off,,,,,1,0,0,,,4,,,57,64
74525,note_on,,,,,31,0,0,,,4,,,57,127
74525,note_on,,,,,0,0,0,,,2,,,73,125
74540,note_off,,,,,15,0,0,,,2,,,76,64
74560,note_off,,,,,20,0,0,,,4,,,61,64
74568,note_on,,,,,8,0,0,,,4,,,61,127
74568,note_on,,,,,0,0,0,,,2,,,69,121
74584,note_off,,,,,16,0,0,,,2,,,73,64
74585,note_off,,,,,1,0,0,,,4,,,52,64
74614,note_on,,,,,29,0,0,,,2,,,73,125
74615,note_on,,,,,1,0,0,,,4,,,52,127
74638,note_off,,,,,23,0,0,,,2,,,69,64
74661,note_on,,,,,23,0,0,,,2,,,71,122
74663,note_off,,,,,2,0,0,,,4,,,61,64
74671,note_on,,,,,8,0,0,,,4,,,62,127
74686,note_off,,,,,15,0,0,,,2,,,73,64
74687,note_off,,,,,1,0,0,,,4,,,57,64
74708,note_on,,,,,21,0,0,,,2,,,73,125
74718,note_on,,,,,10,0,0,,,4,,,56,127
74736,note_off,,,,,18,0,0,,,2,,,71,64
74750,note_on,,,,,14,0,0,,,2,,,71,122
74759,note_off,,,,,9,0,0,,,4,,,62,64
74767,note_off,,,,,8,0,0,,,2,,,73,64
74767,note_on,,,,,0,0,0,,,4,,,62,127
74783,note_off,,,,,16,0,0,,,4,,,52,64
74788,note_on,,,,,5,0,0,,,2,,,73,125
74815,note_on,,,,,27,0,0,,,4,,,52,127
74824,note_off,,,,,9,0,0,,,2,,,71,64
74845,note_on,,,,,21,0,0,,,2,,,71,124
74854,note_off,,,,,9,0,0,,,4,,,62,64
74861,note_on,,,,,7,0,0,,,4,,,62,127
74872,note_off,,,,,11,0,0,,,2,,,73,64
74877,note_off,,,,,5,0,0,,,4,,,56,64
74890,note_on,,,,,13,0,0,,,2,,,73,124
74911,note_on,,,,,21,0,0,,,4,,,56,127
74934,note_off,,,,,23,0,0,,,2,,,71,64
74947,note_on,,,,,13,0,0,,,2,,,71,119
74949,note_off,,,,,2,0,0,,,4,,,62,64
74957,note_on,,,,,8,0,0,,,4,,,62,127
74971,note_off,,,,,14,0,0,,,4,,,52,64
74978,note_off,,,,,7,0,0,,,2,,,73,64
75000,note_on,,,,,22,0,0,,,4,,,52,127
75003,note_on,,,,,3,0,0,,,2,,,73,122
75032,note_off,,,,,29,0,0,,,2,,,71,64
75038,note_off,,,,,6,0,0,,,4,,,62,64
75046,note_on,,,,,8,0,0,,,4,,,62,127
75049,note_on,,,,,3,0,0,,,2,,,71,119
75059,note_off,,,,,10,0,0,,,4,,,56,64
75082,note_off,,,,,23,0,0,,,2,,,73,64
75086,note_on,,,,,4,0,0,,,4,,,56,127
75097,note_on,,,,,11,0,0,,,2,,,73,122
75117,note_off,,,,,20,0,0,,,4,,,62,64
75122,note_on,,,,,5,0,0,,,4,,,62,127
75132,note_off,,,,,10,0,0,,,2,,,71,64
75134,note_off,,,,,2,0,0,,,4,,,52,64
75147,note_on,,,,,13,0,0,,,2,,,71,119
75157,note_on,,,,,10,0,0,,,4,,,52,127
75166,note_off,,,,,9,0,0,,,2,,,73,64
75188,note_off,,,,,22,0,0,,,4,,,62,64
75195,note_on,,,,,7,0,0,,,4,,,62,127
75201,note_on,,,,,6,0,0,,,2,,,73,124
75203,note_off,,,,,2,0,0,,,2,,,71,64
75207,note_off,,,,,4,0,0,,,4,,,56,64
75234,note_on,,,,,27,0,0,,,2,,,71,126
75239,note_on,,,,,5,0,0,,,4,,,56,127
75240,note_off,,,,,1,0,0,,,2,,,73,64
75265,note_off,,,,,25,0,0,,,4,,,52,64
75287,note_off,,,,,22,0,0,,,4,,,62,64
75292,note_on,,,,,5,0,0,,,2,,,69,122
75293,note_on,,,,,1,0,0,,,4,,,62,127
75297,note_off,,,,,4,0,0,,,2,,,71,64
75318,note_off,,,,,21,0,0,,,2,,,69,64
75319,note_on,,,,,1,0,0,,,2,,,71,124
75339,note_off,,,,,20,0,0,,,4,,,56,64
75343,note_off,,,,,4,0,0,,,4,,,62,64
75347,note_off,,,,,4,0,0,,,2,,,71,64
75348,note_on,,,,,1,0,0,,,4,,,57,127
75348,note_on,,,,,0,0,0,,,2,,,69,125
75628,note_on,,,,,280,0,0,,,2,,,73,126
75629,note_on,,,,,1,0,0,,,4,,,61,127
75645,note_off,,,,,16,0,0,,,2,,,69,64
75645,note_off,,,,,0,0,0,,,4,,,57,64
75680,note_on,,,,,35,0,0,,,2,,,69,123
75681,note_on,,,,,1,0,0,,,4,,,57,127
75687,note_off,,,,,6,0,0,,,4,,,61,64
75687,note_off,,,,,0,0,0,,,2,,,73,64
75722,note_on,,,,,35,0,0,,,2,,,74,126
75723,note_on,,,,,1,0,0,,,4,,,62,127
75731,note_off,,,,,8,0,0,,,4,,,57,64
75732,note_off,,,,,1,0,0,,,2,,,69,64
75816,note_off,,,,,84,0,0,,,4,,,62,64
75817,note_off,,,,,1,0,0,,,2,,,74,64
75817,note_on,,,,,0,0,0,,,2,,,71,125
75818,note_on,,,,,1,0,0,,,4,,,59,127
75868,note_on,,,,,50,0,0,,,2,,,68,123
75869,note_on,,,,,1,0,0,,,4,,,56,127
75875,note_off,,,,,6,0,0,,,4,,,59,64
75876,note_off,,,,,1,0,0,,,2,,,71,64
75911,note_on,,,,,35,0,0,,,2,,,69,123
75911,note_on,,,,,0,0,0,,,4,,,57,127
75917,note_off,,,,,6,0,0,,,4,,,56,64
75918,note_off,,,,,1,0,0,,,2,,,68,64
76003,note_off,,,,,85,0,0,,,4,,,57,64
76003,note_off,,,,,0,0,0,,,2,,,69,64
76004,note_on,,,,,1,0,0,,,4,,,66,123
76004,note_on,,,,,0,0,0,,,4,,,54,127
76051,note_on,,,,,47,0,0,,,4,,,51,127
76051,note_on,,,,,0,0,0,,,4,,,63,125
76057,note_off,,,,,6,0,0,,,4,,,54,64
76058,note_off,,,,,1,0,0,,,4,,,66,64
76097,note_on,,,,,39,0,0,,,4,,,64,121
76097,note_on,,,,,0,0,0,,,4,,,52,127
76105,note_off,,,,,8,0,0,,,4,,,51,64
76106,note_off,,,,,1,0,0,,,4,,,63,64
76275,note_off,,,,,169,0,0,,,4,,,52,64
76276,note_off,,,,,1,0,0,,,4,,,64,64
76282,note_on,,,,,6,0,0,,,1,,,80,126
76283,note_on,,,,,1,0,0,,,2,,,71,127
76283,note_on,,,,,0,0,0,,,2,,,74,127
76284,note_on,,,,,1,0,0,,,4,,,40,127
76284,note_on,,,,,0,0,0,,,4,,,52,127
76468,note_off,,,,,184,0,0,,,4,,,40,64
76469,note_off,,,,,1,0,0,,,2,,,71,64
76469,note_off,,,,,0,0,0,,,4,,,52,64
76470,note_off,,,,,1,0,0,,,1,,,80,64
76470,note_off,,,,,0,0,0,,,2,,,74,64
76478,note_on,,,,,8,0,0,,,4,,,45,127
76478,note_on,,,,,0,0,0,,,2,,,69,126
76479,note_on,,,,,1,0,0,,,4,,,33,127
76488,note_on,,,,,9,0,0,,,2,,,73,127
76500,note_on,,,,,12,0,0,,,2,,,76,127
76512,note_on,,,,,12,0,0,,,1,,,81,126
76741,note_off,,,,,229,0,0,,,2,,,69,64
76749,note_off,,,,,8,0,0,,,2,,,73,64
76758,note_off,,,,,9,0,0,,,2,,,76,64
76768,note_off,,,,,10,0,0,,,1,,,81,64
76876,note_on,,,,,108,0,0,,,2,,,69,126
76877,note_on,,,,,1,0,0,,,4,,,57,127
76923,note_on,,,,,46,0,0,,,1,,,81,126
76971,note_on,,,,,48,0,0,,,1,,,80,126
76979,note_off,,,,,8,0,0,,,1,,,81,64
77019,note_on,,,,,40,0,0,,,1,,,81,126
77027,note_off,,,,,8,0,0,,,1,,,80,64
77058,note_off,,,,,31,0,0,,,2,,,69,64
77060,note_off,,,,,2,0,0,,,4,,,57,64
77067,note_on,,,,,7,0,0,,,2,,,69,126
77068,note_on,,,,,1,0,0,,,4,,,60,127
77112,note_off,,,,,44,0,0,,,1,,,81,64
77114,note_on,,,,,2,0,0,,,1,,,81,126
77164,note_on,,,,,50,0,0,,,2,,,71,127
77165,note_on,,,,,1,0,0,,,4,,,62,127
77172,note_off,,,,,7,0,0,,,4,,,60,64
77172,note_off,,,,,0,0,0,,,2,,,69,64
77207,note_off,,,,,35,0,0,,,1,,,81,64
77211,note_on,,,,,4,0,0,,,1,,,81,126
77258,note_on,,,,,47,0,0,,,4,,,64,124
77258,note_on,,,,,0,0,0,,,2,,,72,127
77265,note_off,,,,,7,0,0,,,4,,,62,64
77265,note_off,,,,,0,0,0,,,2,,,71,64
77302,note_off,,,,,37,0,0,,,1,,,81,64
77304,note_on,,,,,2,0,0,,,1,,,81,126
77352,note_on,,,,,48,0,0,,,2,,,74,127
77352,note_on,,,,,0,0,0,,,4,,,65,126
77361,note_off,,,,,9,0,0,,,2,,,72,64
77361,note_off,,,,,0,0,0,,,4,,,64,64
77396,note_off,,,,,35,0,0,,,1,,,81,64
77398,note_on,,,,,2,0,0,,,1,,,81,126
77444,note_on,,,,,46,0,0,,,2,,,72,127
77445,note_on,,,,,1,0,0,,,4,,,64,124
77453,note_off,,,,,8,0,0,,,4,,,65,64
77453,note_off,,,,,0,0,0,,,2,,,74,64
77490,note_off,,,,,37,0,0,,,1,,,81,64
77492,note_on,,,,,2,0,0,,,1,,,81,126
77540,note_on,,,,,48,0,0,,,2,,,71,127
77541,note_on,,,,,1,0,0,,,4,,,62,127
77549,note_off,,,,,8,0,0,,,2,,,72,64
77549,note_off,,,,,0,0,0,,,4,,,64,64
77586,note_off,,,,,37,0,0,,,1,,,81,64
77588,note_on,,,,,2,0,0,,,1,,,81,126
77638,note_on,,,,,50,0,0,,,2,,,69,126
77639,note_on,,,,,1,0,0,,,4,,,60,127
77647,note_off,,,,,8,0,0,,,4,,,62,64
77647,note_off,,,,,0,0,0,,,2,,,71,64
77682,note_off,,,,,35,0,0,,,1,,,81,64
77686,note_on,,,,,4,0,0,,,1,,,81,126
77732,note_on,,,,,46,0,0,,,1,,,80,122
77741,note_off,,,,,9,0,0,,,1,,,81,64
77779,note_on,,,,,38,0,0,,,1,,,81,118
77787,note_off,,,,,8,0,0,,,1,,,80,64
77793,note_off,,,,,6,0,0,,,2,,,69,64
77825,note_on,,,,,32,0,0,,,1,,,84,118
77826,note_on,,,,,1,0,0,,,2,,,69,126
77832,note_off,,,,,6,0,0,,,1,,,81,64
77870,note_on,,,,,38,0,0,,,1,,,81,118
77909,note_off,,,,,39,0,0,,,2,,,69,64
77916,note_off,,,,,7,0,0,,,1,,,81,64
77917,note_off,,,,,1,0,0,,,1,,,84,64
77917,note_on,,,,,0,0,0,,,1,,,83,118
77918,note_on,,,,,1,0,0,,,2,,,69,126
77964,note_on,,,,,46,0,0,,,1,,,79,114
78003,note_off,,,,,39,0,0,,,2,,,69,64
78011,note_off,,,,,8,0,0,,,1,,,83,64
78011,note_off,,,,,0,0,0,,,1,,,79,64
78012,note_on,,,,,1,0,0,,,1,,,81,118
78012,note_on,,,,,0,0,0,,,2,,,69,126
78059,note_on,,,,,47,0,0,,,1,,,78,114
78097,note_off,,,,,38,0,0,,,2,,,69,64
78105,note_off,,,,,8,0,0,,,1,,,81,64
78105,note_on,,,,,0,0,0,,,1,,,83,118
78106,note_on,,,,,1,0,0,,,2,,,69,126
78111,note_off,,,,,5,0,0,,,1,,,78,64
78152,note_on,,,,,41,0,0,,,1,,,79,114
78190,note_off,,,,,38,0,0,,,2,,,69,64
78198,note_off,,,,,8,0,0,,,1,,,83,64
78198,note_on,,,,,0,0,0,,,1,,,81,118
78199,note_on,,,,,1,0,0,,,2,,,69,126
78205,note_off,,,,,6,0,0,,,1,,,79,64
78244,note_on,,,,,39,0,0,,,1,,,78,114
78284,note_off,,,,,40,0,0,,,2,,,69,64
78292,note_off,,,,,8,0,0,,,1,,,81,64
78292,note_on,,,,,0,0,0,,,1,,,79,114
78293,note_on,,,,,1,0,0,,,2,,,69,126
78301,note_off,,,,,8,0,0,,,1,,,78,64
78340,note_on,,,,,39,0,0,,,2,,,76,121
78348,note_off,,,,,8,0,0,,,1,,,79,64
78386,note_on,,,,,38,0,0,,,1,,,78,118
78386,note_on,,,,,0,0,0,,,2,,,75,121
78394,note_off,,,,,8,0,0,,,2,,,76,64
78434,note_on,,,,,40,0,0,,,1,,,83,126
78449,note_off,,,,,15,0,0,,,1,,,78,64
78450,note_off,,,,,1,0,0,,,2,,,75,64
78482,note_off,,,,,32,0,0,,,1,,,83,64
78482,note_on,,,,,0,0,0,,,1,,,82,126
78529,note_off,,,,,47,0,0,,,1,,,82,64
78530,note_on,,,,,1,0,0,,,1,,,83,126
78578,note_off,,,,,48,0,0,,,2,,,69,64
78578,note_on,,,,,0,0,0,,,2,,,75,121
78579,note_on,,,,,1,0,0,,,4,,,66,126
78623,note_off,,,,,44,0,0,,,1,,,83,64
78627,note_on,,,,,4,0,0,,,1,,,83,126
78673,note_on,,,,,46,0,0,,,2,,,67,126
78673,note_on,,,,,0,0,0,,,2,,,76,121
78682,note_off,,,,,9,0,0,,,4,,,66,64
78682,note_off,,,,,0,0,0,,,2,,,75,64
78719,note_off,,,,,37,0,0,,,1,,,83,64
78721,note_on,,,,,2,0,0,,,1,,,83,126
78769,note_on,,,,,48,0,0,,,1,,,78,118
78769,note_on,,,,,0,0,0,,,2,,,69,126
78778,note_off,,,,,9,0,0,,,2,,,76,64
78778,note_off,,,,,0,0,0,,,2,,,67,64
78815,note_off,,,,,37,0,0,,,1,,,83,64
78817,note_on,,,,,2,0,0,,,1,,,83,126
78863,note_off,,,,,46,0,0,,,4,,,45,64
78864,note_on,,,,,1,0,0,,,2,,,71,127
78864,note_on,,,,,0,0,0,,,1,,,79,118
78872,note_off,,,,,8,0,0,,,2,,,69,64
78873,note_off,,,,,1,0,0,,,1,,,78,64
78909,note_off,,,,,36,0,0,,,1,,,83,64
78911,note_on,,,,,2,0,0,,,1,,,83,126
78959,note_on,,,,,48,0,0,,,1,,,78,118
78960,note_on,,,,,1,0,0,,,2,,,69,126
78968,note_off,,,,,8,0,0,,,1,,,79,64
78968,note_off,,,,,0,0,0,,,2,,,71,64
79003,note_off,,,,,35,0,0,,,1,,,83,64
79007,note_on,,,,,4,0,0,,,1,,,83,126
79053,note_on,,,,,46,0,0,,,2,,,76,121
79054,note_on,,,,,1,0,0,,,2,,,67,126
79060,note_off,,,,,6,0,0,,,2,,,69,64
79060,note_off,,,,,0,0,0,,,1,,,78,64
79099,note_off,,,,,39,0,0,,,1,,,83,64
79101,note_on,,,,,2,0,0,,,1,,,83,122
79150,note_on,,,,,49,0,0,,,4,,,66,126
79150,note_on,,,,,0,0,0,,,2,,,75,121
79158,note_off,,,,,8,0,0,,,2,,,67,64
79159,note_off,,,,,1,0,0,,,2,,,76,64
79193,note_off,,,,,34,0,0,,,1,,,83,64
79197,note_on,,,,,4,0,0,,,1,,,83,118
79212,note_off,,,,,15,0,0,,,2,,,75,64
79243,note_off,,,,,31,0,0,,,1,,,83,64
79244,note_on,,,,,1,0,0,,,1,,,82,118
79290,note_off,,,,,46,0,0,,,1,,,82,64
79291,note_on,,,,,1,0,0,,,1,,,83,118
79337,note_off,,,,,46,0,0,,,1,,,83,64
79338,note_on,,,,,1,0,0,,,1,,,84,110
79338,note_on,,,,,0,0,0,,,2,,,71,127
79382,note_on,,,,,44,0,0,,,1,,,81,110
79421,note_off,,,,,39,0,0,,,2,,,71,64
79428,note_off,,,,,7,0,0,,,1,,,81,64
79429,note_off,,,,,1,0,0,,,1,,,84,64
79429,note_on,,,,,0,0,0,,,1,,,83,110
79430,note_on,,,,,1,0,0,,,2,,,71,127
79475,note_on,,,,,45,0,0,,,1,,,79,106
79514,note_off,,,,,39,0,0,,,2,,,71,64
79522,note_off,,,,,8,0,0,,,1,,,79,64
79522,note_off,,,,,0,0,0,,,1,,,83,64
79523,note_on,,,,,1,0,0,,,1,,,81,110
79523,note_on,,,,,0,0,0,,,2,,,71,127
79570,note_on,,,,,47,0,0,,,1,,,78,106
79608,note_off,,,,,38,0,0,,,2,,,71,64
79616,note_off,,,,,8,0,0,,,1,,,78,64
79617,note_off,,,,,1,0,0,,,1,,,81,64
79617,note_on,,,,,0,0,0,,,2,,,71,127
79617,note_on,,,,,0,0,0,,,1,,,79,106
79662,note_on,,,,,45,0,0,,,2,,,76,113
79701,note_off,,,,,39,0,0,,,2,,,71,64
79708,note_off,,,,,7,0,0,,,2,,,76,64
79709,note_off,,,,,1,0,0,,,1,,,79,64
79709,note_on,,,,,0,0,0,,,1,,,78,106
79710,note_on,,,,,1,0,0,,,2,,,71,127
79756,note_on,,,,,46,0,0,,,2,,,74,117
79797,note_off,,,,,41,0,0,,,2,,,71,64
79804,note_off,,,,,7,0,0,,,2,,,74,64
79805,note_off,,,,,1,0,0,,,1,,,78,64
79805,note_on,,,,,0,0,0,,,1,,,81,114
79806,note_on,,,,,1,0,0,,,2,,,71,127
79852,note_off,,,,,46,0,0,,,1,,,81,64
79853,note_on,,,,,1,0,0,,,1,,,78,110
79892,note_off,,,,,39,0,0,,,2,,,71,64
79897,note_off,,,,,5,0,0,,,1,,,78,64
79899,note_on,,,,,2,0,0,,,1,,,79,114
79900,note_on,,,,,1,0,0,,,2,,,71,127
79931,note_off,,,,,31,0,0,,,4,,,66,64
79946,note_on,,,,,15,0,0,,,2,,,76,121
79987,note_off,,,,,41,0,0,,,2,,,71,64
79994,note_off,,,,,7,0,0,,,4,,,60,64
79995,note_on,,,,,1,0,0,,,2,,,75,125
80003,note_off,,,,,8,0,0,,,2,,,76,64
80041,note_on,,,,,38,0,0,,,2,,,76,125
80051,note_off,,,,,10,0,0,,,2,,,75,64
80089,note_on,,,,,38,0,0,,,4,,,64,124
80090,note_on,,,,,1,0,0,,,4,,,55,127
80092,note_off,,,,,2,0,0,,,1,,,79,64
80134,note_off,,,,,42,0,0,,,2,,,76,64
80136,note_on,,,,,2,0,0,,,2,,,76,125
80184,note_on,,,,,48,0,0,,,4,,,66,126
80185,note_on,,,,,1,0,0,,,4,,,57,127
80193,note_off,,,,,8,0,0,,,4,,,64,64
80193,note_off,,,,,0,0,0,,,4,,,55,64
80228,note_off,,,,,35,0,0,,,2,,,76,64
80231,note_on,,,,,3,0,0,,,2,,,76,127
80277,note_on,,,,,46,0,0,,,2,,,67,126
80277,note_on,,,,,0,0,0,,,4,,,59,127
80287,note_off,,,,,10,0,0,,,4,,,57,64
80288,note_off,,,,,1,0,0,,,4,,,66,64
80323,note_off,,,,,35,0,0,,,2,,,76,64
80327,note_on,,,,,4,0,0,,,2,,,76,127
80373,note_on,,,,,46,0,0,,,4,,,60,127
80373,note_on,,,,,0,0,0,,,2,,,69,126
80383,note_off,,,,,10,0,0,,,4,,,59,64
80384,note_off,,,,,1,0,0,,,2,,,67,64
80417,note_off,,,,,33,0,0,,,2,,,76,64
80419,note_on,,,,,2,0,0,,,2,,,76,125
80434,note_off,,,,,15,0,0,,,4,,,33,64
80465,note_on,,,,,31,0,0,,,2,,,67,126
80465,note_on,,,,,0,0,0,,,4,,,59,127
80475,note_off,,,,,10,0,0,,,4,,,60,64
80476,note_off,,,,,1,0,0,,,2,,,69,64
80511,note_off,,,,,35,0,0,,,2,,,76,64
80513,note_on,,,,,2,0,0,,,2,,,76,125
80559,note_on,,,,,46,0,0,,,4,,,57,127
80559,note_on,,,,,0,0,0,,,4,,,66,126
80569,note_off,,,,,10,0,0,,,4,,,59,64
80570,note_off,,,,,1,0,0,,,2,,,67,64
80603,note_off,,,,,33,0,0,,,2,,,76,64
80605,note_on,,,,,2,0,0,,,2,,,76,121
80651,note_on,,,,,46,0,0,,,4,,,64,120
80652,note_on,,,,,1,0,0,,,4,,,55,127
80662,note_off,,,,,10,0,0,,,4,,,66,64
80662,note_off,,,,,0,0,0,,,4,,,57,64
80697,note_off,,,,,35,0,0,,,2,,,76,64
80701,note_on,,,,,4,0,0,,,2,,,76,121
80749,note_off,,,,,48,0,0,,,2,,,76,64
80749,note_on,,,,,0,0,0,,,2,,,75,121
80794,note_off,,,,,45,0,0,,,2,,,75,64
80795,note_on,,,,,1,0,0,,,2,,,76,121
80837,note_off,,,,,42,0,0,,,4,,,64,64
80841,note_on,,,,,4,0,0,,,1,,,79,114
80842,note_on,,,,,1,0,0,,,4,,,64,120
80884,note_off,,,,,42,0,0,,,2,,,76,64
80886,note_on,,,,,2,0,0,,,2,,,76,117
80925,note_off,,,,,39,0,0,,,4,,,64,64
80932,note_off,,,,,7,0,0,,,2,,,76,64
80933,note_off,,,,,1,0,0,,,1,,,79,64
80933,note_on,,,,,0,0,0,,,1,,,78,114
80934,note_on,,,,,1,0,0,,,4,,,64,120
80978,note_on,,,,,44,0,0,,,2,,,74,121
81019,note_off,,,,,41,0,0,,,4,,,64,64
81026,note_off,,,,,7,0,0,,,1,,,78,64
81027,note_on,,,,,1,0,0,,,2,,,76,117
81027,note_on,,,,,0,0,0,,,4,,,64,120
81033,note_off,,,,,6,0,0,,,2,,,74,64
81072,note_on,,,,,39,0,0,,,2,,,73,121
81112,note_off,,,,,40,0,0,,,4,,,64,64
81120,note_off,,,,,8,0,0,,,2,,,76,64
81120,note_on,,,,,0,0,0,,,1,,,78,114
81120,note_on,,,,,0,0,0,,,4,,,64,120
81128,note_off,,,,,8,0,0,,,2,,,73,64
81167,note_on,,,,,39,0,0,,,2,,,74,121
81204,note_off,,,,,37,0,0,,,4,,,64,64
81212,note_off,,,,,8,0,0,,,1,,,78,64
81212,note_on,,,,,0,0,0,,,2,,,76,117
81213,note_on,,,,,1,0,0,,,4,,,64,120
81220,note_off,,,,,7,0,0,,,2,,,74,64
81261,note_on,,,,,41,0,0,,,2,,,73,121
81299,note_off,,,,,38,0,0,,,4,,,64,64
81307,note_off,,,,,8,0,0,,,2,,,76,64
81307,note_on,,,,,0,0,0,,,2,,,74,121
81308,note_on,,,,,1,0,0,,,4,,,64,120
81313,note_off,,,,,5,0,0,,,2,,,73,64
81352,note_on,,,,,39,0,0,,,2,,,71,120
81360,note_off,,,,,8,0,0,,,2,,,74,64
81400,note_on,,,,,40,0,0,,,2,,,73,121
81400,note_on,,,,,0,0,0,,,2,,,70,118
81407,note_off,,,,,7,0,0,,,2,,,71,64
81445,note_on,,,,,38,0,0,,,1,,,78,118
81493,note_off,,,,,48,0,0,,,1,,,78,64
81493,note_on,,,,,0,0,0,,,2,,,77,121
81540,note_off,,,,,47,0,0,,,2,,,77,64
81540,note_on,,,,,0,0,0,,,1,,,78,118
81581,note_off,,,,,41,0,0,,,2,,,70,64
81582,note_off,,,,,1,0,0,,,2,,,73,64
81586,note_off,,,,,4,0,0,,,4,,,64,64
81587,note_on,,,,,1,0,0,,,4,,,66,118
81587,note_on,,,,,0,0,0,,,2,,,70,118
81630,note_off,,,,,43,0,0,,,1,,,78,64
81632,note_on,,,,,2,0,0,,,1,,,78,114
81679,note_off,,,,,47,0,0,,,2,,,70,64
81679,note_off,,,,,0,0,0,,,4,,,66,64
81680,note_on,,,,,1,0,0,,,2,,,71,120
81680,note_on,,,,,0,0,0,,,2,,,68,118
81722,note_off,,,,,42,0,0,,,1,,,78,64
81724,note_on,,,,,2,0,0,,,1,,,78,114
81770,note_off,,,,,46,0,0,,,2,,,68,64
81771,note_off,,,,,1,0,0,,,2,,,71,64
81771,note_on,,,,,0,0,0,,,2,,,73,117
81772,note_on,,,,,1,0,0,,,2,,,70,118
81815,note_off,,,,,43,0,0,,,1,,,78,64
81816,note_on,,,,,1,0,0,,,1,,,78,114
81865,note_off,,,,,49,0,0,,,2,,,73,64
81865,note_off,,,,,0,0,0,,,2,,,70,64
81865,note_on,,,,,0,0,0,,,2,,,74,117
81866,note_on,,,,,1,0,0,,,2,,,71,120
81911,note_off,,,,,45,0,0,,,1,,,78,64
81913,note_on,,,,,2,0,0,,,1,,,78,114
81960,note_off,,,,,47,0,0,,,2,,,71,64
81961,note_off,,,,,1,0,0,,,2,,,74,64
81961,note_on,,,,,0,0,0,,,2,,,73,117
81962,note_on,,,,,1,0,0,,,2,,,70,118
82003,note_off,,,,,41,0,0,,,1,,,78,64
82007,note_on,,,,,4,0,0,,,1,,,78,114
82053,note_off,,,,,46,0,0,,,2,,,70,64
82054,note_off,,,,,1,0,0,,,2,,,73,64
82054,note_on,,,,,0,0,0,,,2,,,68,118
82054,note_on,,,,,0,0,0,,,2,,,71,120
82097,note_off,,,,,43,0,0,,,1,,,78,64
82101,note_on,,,,,4,0,0,,,1,,,78,114
82145,note_off,,,,,44,0,0,,,2,,,68,64
82146,note_off,,,,,1,0,0,,,2,,,71,64
82146,note_on,,,,,0,0,0,,,2,,,70,118
82147,note_on,,,,,1,0,0,,,4,,,66,118
82187,note_off,,,,,40,0,0,,,1,,,78,64
82189,note_on,,,,,2,0,0,,,1,,,78,114
82236,note_on,,,,,47,0,0,,,2,,,77,117
82243,note_off,,,,,7,0,0,,,1,,,78,64
82284,note_on,,,,,41,0,0,,,1,,,78,114
82291,note_off,,,,,7,0,0,,,2,,,77,64
82325,note_off,,,,,34,0,0,,,4,,,66,64
82326,note_off,,,,,1,0,0,,,2,,,70,64
82329,note_on,,,,,3,0,0,,,1,,,79,114
82329,note_on,,,,,0,0,0,,,4,,,66,122
82337,note_off,,,,,8,0,0,,,1,,,78,64
82376,note_on,,,,,39,0,0,,,2,,,76,117
82414,note_off,,,,,38,0,0,,,4,,,66,64
82420,note_off,,,,,6,0,0,,,2,,,76,64
82420,note_off,,,,,0,0,0,,,1,,,79,64
82421,note_on,,,,,1,0,0,,,1,,,78,114
82421,note_on,,,,,0,0,0,,,4,,,66,122
82466,note_on,,,,,45,0,0,,,2,,,74,121
82504,note_off,,,,,38,0,0,,,4,,,66,64
82512,note_off,,,,,8,0,0,,,2,,,74,64
82512,note_off,,,,,0,0,0,,,1,,,78,64
82513,note_on,,,,,1,0,0,,,4,,,66,122
82513,note_on,,,,,0,0,0,,,2,,,76,117
82558,note_on,,,,,45,0,0,,,2,,,73,125
82598,note_off,,,,,40,0,0,,,4,,,66,64
82606,note_off,,,,,8,0,0,,,2,,,73,64
82607,note_off,,,,,1,0,0,,,2,,,76,64
82607,note_on,,,,,0,0,0,,,2,,,74,127
82608,note_on,,,,,1,0,0,,,4,,,66,126
82652,note_on,,,,,44,0,0,,,2,,,71,127
82692,note_off,,,,,40,0,0,,,4,,,66,64
82698,note_off,,,,,6,0,0,,,2,,,71,64
82699,note_off,,,,,1,0,0,,,2,,,74,64
82699,note_on,,,,,0,0,0,,,2,,,73,127
82700,note_on,,,,,1,0,0,,,4,,,66,126
82746,note_on,,,,,46,0,0,,,2,,,69,126
82787,note_off,,,,,41,0,0,,,4,,,66,64
82794,note_off,,,,,7,0,0,,,2,,,69,64
82795,note_off,,,,,1,0,0,,,2,,,73,64
82795,note_on,,,,,0,0,0,,,2,,,76,125
82796,note_on,,,,,1,0,0,,,4,,,66,126
82825,note_off,,,,,29,0,0,,,4,,,55,64
82840,note_off,,,,,15,0,0,,,2,,,76,64
82841,note_on,,,,,1,0,0,,,2,,,73,127
82889,note_off,,,,,48,0,0,,,2,,,73,64
82890,note_on,,,,,1,0,0,,,4,,,59,125
82890,note_on,,,,,0,0,0,,,2,,,74,127
82899,note_off,,,,,9,0,0,,,4,,,66,64
82936,note_on,,,,,37,0,0,,,4,,,66,121
82982,note_on,,,,,46,0,0,,,4,,,62,124
83023,note_off,,,,,41,0,0,,,4,,,66,64
83030,note_on,,,,,7,0,0,,,4,,,66,121
83046,note_off,,,,,16,0,0,,,4,,,59,64
83076,note_on,,,,,30,0,0,,,1,,,86,126
83077,note_on,,,,,1,0,0,,,4,,,59,125
83093,note_off,,,,,16,0,0,,,2,,,74,64
83116,note_off,,,,,23,0,0,,,4,,,66,64
83124,note_on,,,,,8,0,0,,,2,,,67,121
83139,note_off,,,,,15,0,0,,,4,,,62,64
83170,note_on,,,,,31,0,0,,,4,,,62,124
83208,note_off,,,,,38,0,0,,,2,,,67,64
83216,note_on,,,,,8,0,0,,,2,,,67,121
83229,note_off,,,,,13,0,0,,,4,,,59,64
83260,note_on,,,,,31,0,0,,,4,,,59,125
83298,note_off,,,,,38,0,0,,,2,,,67,64
83306,note_on,,,,,8,0,0,,,2,,,67,121
83321,note_off,,,,,15,0,0,,,4,,,62,64
83322,note_off,,,,,1,0,0,,,1,,,86,64
83353,note_on,,,,,31,0,0,,,1,,,83,126
83353,note_on,,,,,0,0,0,,,4,,,62,124
83392,note_off,,,,,39,0,0,,,2,,,67,64
83400,note_on,,,,,8,0,0,,,2,,,67,121
83415,note_off,,,,,15,0,0,,,4,,,59,64
83444,note_on,,,,,29,0,0,,,1,,,79,122
83445,note_on,,,,,1,0,0,,,4,,,59,125
83451,note_off,,,,,6,0,0,,,1,,,83,64
83482,note_off,,,,,31,0,0,,,2,,,67,64
83489,note_on,,,,,7,0,0,,,2,,,67,121
83505,note_off,,,,,16,0,0,,,4,,,62,64
83533,note_on,,,,,28,0,0,,,1,,,78,122
83534,note_on,,,,,1,0,0,,,4,,,62,124
83542,note_off,,,,,8,0,0,,,1,,,79,64
83573,note_off,,,,,31,0,0,,,2,,,67,64
83580,note_on,,,,,7,0,0,,,2,,,67,121
83596,note_off,,,,,16,0,0,,,4,,,59,64
83627,note_on,,,,,31,0,0,,,4,,,59,125
83634,note_off,,,,,7,0,0,,,4,,,62,64
83665,note_off,,,,,31,0,0,,,1,,,78,64
83673,note_on,,,,,8,0,0,,,2,,,77,125
83711,note_off,,,,,38,0,0,,,2,,,77,64
83719,note_on,,,,,8,0,0,,,1,,,80,122
83763,note_on,,,,,44,0,0,,,2,,,77,125
83771,note_off,,,,,8,0,0,,,1,,,80,64
83771,note_off,,,,,0,0,0,,,2,,,67,64
83800,note_off,,,,,29,0,0,,,2,,,77,64
83808,note_on,,,,,8,0,0,,,1,,,83,126
83856,note_on,,,,,48,0,0,,,2,,,77,125
83902,note_on,,,,,46,0,0,,,1,,,80,122
83946,note_off,,,,,44,0,0,,,2,,,77,64
83948,note_on,,,,,2,0,0,,,2,,,77,125
83956,note_off,,,,,8,0,0,,,1,,,80,64
83987,note_off,,,,,31,0,0,,,1,,,83,64
83992,note_on,,,,,5,0,0,,,1,,,85,126
84036,note_off,,,,,44,0,0,,,2,,,77,64
84038,note_on,,,,,2,0,0,,,2,,,77,125
84084,note_on,,,,,46,0,0,,,1,,,80,122
84127,note_off,,,,,43,0,0,,,2,,,77,64
84131,note_on,,,,,4,0,0,,,2,,,77,125
84139,note_off,,,,,8,0,0,,,1,,,80,64
84169,note_off,,,,,30,0,0,,,1,,,85,64
84177,note_on,,,,,8,0,0,,,1,,,86,126
84219,note_off,,,,,42,0,0,,,2,,,77,64
84221,note_on,,,,,2,0,0,,,2,,,77,125
84265,note_on,,,,,44,0,0,,,1,,,80,122
84311,note_off,,,,,46,0,0,,,2,,,77,64
84313,note_on,,,,,2,0,0,,,2,,,77,125
84321,note_off,,,,,8,0,0,,,1,,,80,64
84352,note_off,,,,,31,0,0,,,1,,,86,64
84360,note_on,,,,,8,0,0,,,4,,,57,127
84360,note_on,,,,,0,0,0,,,1,,,78,122
84366,note_off,,,,,6,0,0,,,2,,,77,64
84374,note_off,,,,,8,0,0,,,4,,,59,64
84407,note_on,,,,,33,0,0,,,4,,,66,121
84453,note_on,,,,,46,0,0,,,4,,,61,125
84491,note_off,,,,,38,0,0,,,4,,,66,64
84499,note_on,,,,,8,0,0,,,4,,,66,121
84514,note_off,,,,,15,0,0,,,4,,,57,64
84535,note_off,,,,,21,0,0,,,1,,,78,64
84543,note_on,,,,,8,0,0,,,1,,,84,126
84543,note_on,,,,,0,0,0,,,4,,,57,127
84582,note_off,,,,,39,0,0,,,4,,,66,64
84590,note_on,,,,,8,0,0,,,4,,,66,121
84607,note_off,,,,,17,0,0,,,4,,,61,64
84638,note_on,,,,,31,0,0,,,4,,,60,125
84674,note_off,,,,,36,0,0,,,4,,,66,64
84683,note_on,,,,,9,0,0,,,4,,,66,121
84698,note_off,,,,,15,0,0,,,4,,,57,64
84727,note_on,,,,,29,0,0,,,4,,,57,127
84767,note_off,,,,,40,0,0,,,4,,,66,64
84774,note_on,,,,,7,0,0,,,4,,,66,121
84790,note_off,,,,,16,0,0,,,1,,,84,64
84790,note_off,,,,,0,0,0,,,4,,,60,64
84819,note_on,,,,,29,0,0,,,1,,,81,126
84820,note_on,,,,,1,0,0,,,4,,,60,125
84859,note_off,,,,,39,0,0,,,4,,,66,64
84867,note_on,,,,,8,0,0,,,4,,,66,121
84883,note_off,,,,,16,0,0,,,4,,,57,64
84913,note_on,,,,,30,0,0,,,1,,,78,122
84914,note_on,,,,,1,0,0,,,4,,,57,127
84922,note_off,,,,,8,0,0,,,1,,,81,64
84951,note_off,,,,,29,0,0,,,4,,,66,64
84959,note_on,,,,,8,0,0,,,4,,,66,121
84974,note_off,,,,,15,0,0,,,4,,,60,64
85005,note_on,,,,,31,0,0,,,4,,,60,125
85010,note_on,,,,,5,0,0,,,2,,,76,125
85014,note_off,,,,,4,0,0,,,1,,,78,64
85043,note_off,,,,,29,0,0,,,4,,,66,64
85051,note_on,,,,,8,0,0,,,4,,,66,121
85068,note_off,,,,,17,0,0,,,4,,,57,64
85099,note_on,,,,,31,0,0,,,4,,,57,127
85106,note_off,,,,,7,0,0,,,4,,,60,64
85135,note_off,,,,,29,0,0,,,2,,,76,64
85145,note_on,,,,,10,0,0,,,2,,,75,121
85185,note_off,,,,,40,0,0,,,2,,,75,64
85189,note_on,,,,,4,0,0,,,1,,,78,118
85233,note_on,,,,,44,0,0,,,2,,,75,121
85241,note_off,,,,,8,0,0,,,4,,,66,64
85273,note_off,,,,,32,0,0,,,2,,,75,64
85275,note_off,,,,,2,0,0,,,1,,,78,64
85277,note_on,,,,,2,0,0,,,1,,,81,126
85323,note_on,,,,,46,0,0,,,2,,,75,121
85369,note_on,,,,,46,0,0,,,1,,,78,118
85410,note_off,,,,,41,0,0,,,2,,,75,64
85412,note_on,,,,,2,0,0,,,2,,,75,121
85450,note_off,,,,,38,0,0,,,1,,,81,64
85456,note_off,,,,,6,0,0,,,1,,,78,64
85458,note_on,,,,,2,0,0,,,1,,,83,126
85502,note_off,,,,,44,0,0,,,2,,,75,64
85504,note_on,,,,,2,0,0,,,2,,,75,121
85552,note_on,,,,,48,0,0,,,1,,,78,118
85592,note_off,,,,,40,0,0,,,2,,,75,64
85596,note_on,,,,,4,0,0,,,2,,,75,121
85634,note_off,,,,,38,0,0,,,1,,,83,64
85640,note_off,,,,,6,0,0,,,1,,,78,64
85644,note_on,,,,,4,0,0,,,1,,,84,126
85684,note_off,,,,,40,0,0,,,2,,,75,64
85686,note_on,,,,,2,0,0,,,2,,,75,121
85734,note_on,,,,,48,0,0,,,1,,,78,118
85780,note_off,,,,,46,0,0,,,2,,,75,64
85783,note_on,,,,,3,0,0,,,2,,,75,121
85797,note_off,,,,,14,0,0,,,1,,,78,64
85822,note_off,,,,,25,0,0,,,1,,,84,64
85829,note_off,,,,,7,0,0,,,4,,,57,64
85829,note_on,,,,,0,0,0,,,4,,,55,127
85829,note_on,,,,,0,0,0,,,2,,,76,121
85846,note_off,,,,,17,0,0,,,2,,,75,64
85876,note_on,,,,,30,0,0,,,4,,,64,119
85924,note_on,,,,,48,0,0,,,4,,,59,125
85961,note_off,,,,,37,0,0,,,4,,,64,64
85971,note_on,,,,,10,0,0,,,4,,,64,119
85986,note_off,,,,,15,0,0,,,4,,,55,64
86007,note_off,,,,,21,0,0,,,2,,,76,64
86015,note_on,,,,,8,0,0,,,4,,,55,127
86015,note_on,,,,,0,0,0,,,1,,,82,126
86050,note_off,,,,,35,0,0,,,4,,,64,64
86058,note_on,,,,,8,0,0,,,4,,,64,119
86075,note_off,,,,,17,0,0,,,4,,,59,64
86108,note_on,,,,,33,0,0,,,4,,,58,121
86146,note_off,,,,,38,0,0,,,4,,,64,64
86156,note_on,,,,,10,0,0,,,4,,,64,119
86174,note_off,,,,,18,0,0,,,4,,,55,64
86204,note_on,,,,,30,0,0,,,4,,,55,127
86242,note_off,,,,,38,0,0,,,4,,,64,64
86250,note_on,,,,,8,0,0,,,4,,,64,119
86264,note_off,,,,,14,0,0,,,1,,,82,64
86265,note_off,,,,,1,0,0,,,4,,,58,64
86294,note_on,,,,,29,0,0,,,4,,,58,121
86294,note_on,,,,,0,0,0,,,1,,,79,126
86331,note_off,,,,,37,0,0,,,4,,,64,64
86339,note_on,,,,,8,0,0,,,4,,,64,119
86356,note_off,,,,,17,0,0,,,4,,,55,64
86377,note_off,,,,,21,0,0,,,1,,,79,64
86384,note_on,,,,,7,0,0,,,2,,,76,125
86385,note_on,,,,,1,0,0,,,4,,,55,127
86422,note_off,,,,,37,0,0,,,4,,,64,64
86430,note_on,,,,,8,0,0,,,4,,,64,119
86447,note_off,,,,,17,0,0,,,4,,,58,64
86468,note_off,,,,,21,0,0,,,2,,,76,64
86477,note_on,,,,,9,0,0,,,2,,,74,125
86478,note_on,,,,,1,0,0,,,4,,,58,121
86517,note_off,,,,,39,0,0,,,4,,,64,64
86524,note_on,,,,,7,0,0,,,4,,,64,119
86540,note_off,,,,,16,0,0,,,4,,,55,64
86570,note_on,,,,,30,0,0,,,4,,,55,127
86577,note_off,,,,,7,0,0,,,4,,,58,64
86607,note_off,,,,,30,0,0,,,2,,,74,64
86615,note_on,,,,,8,0,0,,,2,,,73,121
86655,note_off,,,,,40,0,0,,,2,,,73,64
86659,note_on,,,,,4,0,0,,,2,,,76,121
86703,note_on,,,,,44,0,0,,,2,,,73,121
86711,note_off,,,,,8,0,0,,,4,,,64,64
86719,note_off,,,,,8,0,0,,,2,,,76,64
86745,note_off,,,,,26,0,0,,,2,,,73,64
86749,note_on,,,,,4,0,0,,,1,,,79,126
86796,note_on,,,,,47,0,0,,,2,,,73,121
86840,note_on,,,,,44,0,0,,,2,,,76,121
86883,note_off,,,,,43,0,0,,,2,,,73,64
86886,note_on,,,,,3,0,0,,,2,,,73,121
86899,note_off,,,,,13,0,0,,,2,,,76,64
86920,note_off,,,,,21,0,0,,,1,,,79,64
86928,note_on,,,,,8,0,0,,,1,,,81,126
86972,note_off,,,,,44,0,0,,,2,,,73,64
86974,note_on,,,,,2,0,0,,,2,,,73,121
87018,note_on,,,,,44,0,0,,,2,,,76,121
87060,note_off,,,,,42,0,0,,,2,,,73,64
87062,note_on,,,,,2,0,0,,,2,,,73,121
87077,note_off,,,,,15,0,0,,,2,,,76,64
87101,note_off,,,,,24,0,0,,,1,,,81,64
87108,note_on,,,,,7,0,0,,,1,,,82,126
87149,note_off,,,,,41,0,0,,,2,,,73,64
87152,note_on,,,,,3,0,0,,,2,,,73,121
87200,note_on,,,,,48,0,0,,,2,,,76,121
87243,note_off,,,,,43,0,0,,,2,,,73,64
87246,note_on,,,,,3,0,0,,,2,,,73,125
87261,note_off,,,,,15,0,0,,,2,,,76,64
87284,note_off,,,,,23,0,0,,,1,,,82,64
87292,note_on,,,,,8,0,0,,,4,,,65,116
87292,note_on,,,,,0,0,0,,,2,,,69,116
87293,note_off,,,,,1,0,0,,,4,,,55,64
87335,note_off,,,,,42,0,0,,,2,,,73,64
87337,note_on,,,,,2,0,0,,,2,,,74,127
87387,note_on,,,,,50,0,0,,,1,,,86,126
87429,note_off,,,,,42,0,0,,,2,,,74,64
87433,note_on,,,,,4,0,0,,,2,,,74,127
87481,note_on,,,,,48,0,0,,,4,,,64,114
87481,note_on,,,,,0,0,0,,,2,,,67,116
87484,note_off,,,,,3,0,0,,,2,,,69,64
87484,note_off,,,,,0,0,0,,,4,,,65,64
87525,note_off,,,,,41,0,0,,,2,,,74,64
87529,note_on,,,,,4,0,0,,,2,,,73,127
87575,note_on,,,,,46,0,0,,,1,,,85,123
87579,note_off,,,,,4,0,0,,,1,,,86,64
87621,note_off,,,,,42,0,0,,,2,,,73,64
87623,note_on,,,,,2,0,0,,,2,,,73,127
87671,note_on,,,,,48,0,0,,,2,,,69,116
87672,note_on,,,,,1,0,0,,,4,,,65,116
87674,note_off,,,,,2,0,0,,,2,,,67,64
87674,note_off,,,,,0,0,0,,,4,,,64,64
87713,note_off,,,,,39,0,0,,,2,,,73,64
87715,note_on,,,,,2,0,0,,,2,,,74,127
87763,note_on,,,,,48,0,0,,,1,,,86,123
87767,note_off,,,,,4,0,0,,,1,,,85,64
87807,note_off,,,,,40,0,0,,,2,,,74,64
87809,note_on,,,,,2,0,0,,,2,,,74,127
87855,note_on,,,,,46,0,0,,,4,,,64,114
87856,note_on,,,,,1,0,0,,,4,,,61,120
87860,note_off,,,,,4,0,0,,,4,,,65,64
87861,note_off,,,,,1,0,0,,,2,,,69,64
87900,note_off,,,,,39,0,0,,,2,,,74,64
87901,note_on,,,,,1,0,0,,,2,,,69,121
87946,note_on,,,,,45,0,0,,,1,,,81,123
87949,note_off,,,,,3,0,0,,,1,,,86,64
87988,note_off,,,,,39,0,0,,,2,,,69,64
87992,note_on,,,,,4,0,0,,,2,,,69,121
88036,note_on,,,,,44,0,0,,,4,,,62,119
88036,note_on,,,,,0,0,0,,,4,,,65,116
88041,note_off,,,,,5,0,0,,,4,,,61,64
88041,note_off,,,,,0,0,0,,,4,,,64,64
88080,note_off,,,,,39,0,0,,,2,,,69,64
88084,note_on,,,,,4,0,0,,,2,,,70,121
88130,note_on,,,,,46,0,0,,,1,,,82,117
88134,note_off,,,,,4,0,0,,,1,,,81,64
88172,note_off,,,,,38,0,0,,,2,,,70,64
88174,note_on,,,,,2,0,0,,,2,,,70,121
88218,note_on,,,,,44,0,0,,,4,,,64,114
88219,note_on,,,,,1,0,0,,,4,,,61,120
88223,note_off,,,,,4,0,0,,,4,,,62,64
88224,note_off,,,,,1,0,0,,,4,,,65,64
88264,note_off,,,,,40,0,0,,,2,,,70,64
88266,note_on,,,,,2,0,0,,,2,,,69,121
88310,note_on,,,,,44,0,0,,,1,,,81,117
88315,note_off,,,,,5,0,0,,,1,,,82,64
88353,note_off,,,,,38,0,0,,,2,,,69,64
88356,note_on,,,,,3,0,0,,,2,,,69,121
88403,note_on,,,,,47,0,0,,,4,,,62,119
88403,note_on,,,,,0,0,0,,,4,,,65,116
88405,note_off,,,,,2,0,0,,,4,,,61,64
88406,note_off,,,,,1,0,0,,,4,,,64,64
88445,note_off,,,,,39,0,0,,,2,,,69,64
88445,note_on,,,,,0,0,0,,,2,,,70,121
88493,note_on,,,,,48,0,0,,,1,,,82,117
88497,note_off,,,,,4,0,0,,,1,,,81,64
88534,note_off,,,,,37,0,0,,,2,,,70,64
88536,note_on,,,,,2,0,0,,,2,,,70,121
88582,note_on,,,,,46,0,0,,,4,,,60,120
88583,note_on,,,,,1,0,0,,,4,,,57,127
88585,note_off,,,,,2,0,0,,,4,,,65,64
88585,note_off,,,,,0,0,0,,,4,,,62,64
88624,note_off,,,,,39,0,0,,,2,,,70,64
88626,note_on,,,,,2,0,0,,,4,,,66,121
88672,note_on,,,,,46,0,0,,,1,,,78,117
88674,note_off,,,,,2,0,0,,,1,,,82,64
88715,note_off,,,,,41,0,0,,,4,,,66,64
88717,note_on,,,,,2,0,0,,,4,,,66,121
88762,note_on,,,,,45,0,0,,,4,,,62,119
88763,note_on,,,,,1,0,0,,,4,,,58,116
88766,note_off,,,,,3,0,0,,,4,,,57,64
88767,note_off,,,,,1,0,0,,,4,,,60,64
88806,note_off,,,,,39,0,0,,,4,,,66,64
88808,note_on,,,,,2,0,0,,,2,,,67,121
88854,note_on,,,,,46,0,0,,,1,,,79,117
88858,note_off,,,,,4,0,0,,,1,,,78,64
88898,note_off,,,,,40,0,0,,,2,,,67,64
88902,note_on,,,,,4,0,0,,,2,,,67,121
88948,note_on,,,,,46,0,0,,,4,,,57,127
88948,note_on,,,,,0,0,0,,,4,,,60,120
88951,note_off,,,,,3,0,0,,,4,,,62,64
88951,note_off,,,,,0,0,0,,,4,,,58,64
88992,note_off,,,,,41,0,0,,,2,,,67,64
88994,note_on,,,,,2,0,0,,,4,,,66,121
89040,note_on,,,,,46,0,0,,,1,,,78,117
89044,note_off,,,,,4,0,0,,,1,,,79,64
89082,note_off,,,,,38,0,0,,,4,,,66,64
89084,note_on,,,,,2,0,0,,,4,,,66,121
89131,note_on,,,,,47,0,0,,,4,,,58,116
89131,note_on,,,,,0,0,0,,,4,,,62,119
89135,note_off,,,,,4,0,0,,,4,,,57,64
89136,note_off,,,,,1,0,0,,,4,,,60,64
89174,note_off,,,,,38,0,0,,,4,,,66,64
89177,note_on,,,,,3,0,0,,,2,,,67,121
89223,note_on,,,,,46,0,0,,,1,,,79,117
89226,note_off,,,,,3,0,0,,,1,,,78,64
89267,note_off,,,,,41,0,0,,,2,,,67,64
89269,note_on,,,,,2,0,0,,,2,,,67,121
89315,note_on,,,,,46,0,0,,,4,,,60,120
89316,note_on,,,,,1,0,0,,,4,,,57,127
89317,note_off,,,,,1,0,0,,,4,,,58,64
89318,note_off,,,,,1,0,0,,,4,,,62,64
89355,note_off,,,,,37,0,0,,,2,,,67,64
89357,note_on,,,,,2,0,0,,,4,,,65,121
89403,note_on,,,,,46,0,0,,,2,,,77,120
89407,note_off,,,,,4,0,0,,,1,,,79,64
89447,note_off,,,,,40,0,0,,,4,,,65,64
89448,note_on,,,,,1,0,0,,,4,,,65,121
89494,note_on,,,,,46,0,0,,,4,,,55,127
89494,note_on,,,,,0,0,0,,,4,,,58,116
89496,note_off,,,,,2,0,0,,,4,,,57,64
89496,note_off,,,,,0,0,0,,,4,,,60,64
89537,note_off,,,,,41,0,0,,,4,,,65,64
89540,note_on,,,,,3,0,0,,,4,,,63,120
89586,note_on,,,,,46,0,0,,,2,,,75,123
89587,note_off,,,,,1,0,0,,,2,,,77,64
89628,note_off,,,,,41,0,0,,,4,,,63,64
89632,note_on,,,,,4,0,0,,,4,,,63,120
89678,note_on,,,,,46,0,0,,,4,,,54,127
89678,note_on,,,,,0,0,0,,,4,,,57,127
89683,note_off,,,,,5,0,0,,,4,,,58,64
89683,note_off,,,,,0,0,0,,,4,,,55,64
89724,note_off,,,,,41,0,0,,,4,,,63,64
89726,note_on,,,,,2,0,0,,,4,,,62,124
89774,note_on,,,,,48,0,0,,,2,,,74,123
89777,note_off,,,,,3,0,0,,,2,,,75,64
89816,note_off,,,,,39,0,0,,,4,,,62,64
89820,note_on,,,,,4,0,0,,,4,,,62,124
89868,note_on,,,,,48,0,0,,,4,,,55,127
89868,note_on,,,,,0,0,0,,,4,,,58,116
89873,note_off,,,,,5,0,0,,,4,,,57,64
89873,note_off,,,,,0,0,0,,,4,,,54,64
89912,note_off,,,,,39,0,0,,,4,,,62,64
89914,note_on,,,,,2,0,0,,,4,,,63,120
89960,note_on,,,,,46,0,0,,,2,,,75,123
89964,note_off,,,,,4,0,0,,,2,,,74,64
90004,note_off,,,,,40,0,0,,,4,,,63,64
90006,note_on,,,,,2,0,0,,,4,,,63,120
90052,note_on,,,,,46,0,0,,,4,,,59,120
90053,note_on,,,,,1,0,0,,,4,,,56,127
90055,note_off,,,,,2,0,0,,,4,,,55,64
90056,note_off,,,,,1,0,0,,,4,,,58,64
90096,note_off,,,,,40,0,0,,,4,,,63,64
90098,note_on,,,,,2,0,0,,,4,,,62,124
90144,note_on,,,,,46,0,0,,,2,,,74,123
90148,note_off,,,,,4,0,0,,,2,,,75,64
90187,note_off,,,,,39,0,0,,,4,,,62,64
90189,note_on,,,,,2,0,0,,,4,,,62,127
90233,note_off,,,,,44,0,0,,,2,,,74,64
90233,note_on,,,,,0,0,0,,,2,,,73,127
90234,note_on,,,,,1,0,0,,,4,,,45,127
90234,note_on,,,,,0,0,0,,,4,,,57,127
90237,note_off,,,,,3,0,0,,,4,,,56,64
90237,note_off,,,,,0,0,0,,,4,,,59,64
90276,note_off,,,,,39,0,0,,,4,,,62,64
90278,note_on,,,,,2,0,0,,,2,,,71,127
90286,note_off,,,,,8,0,0,,,2,,,73,64
90324,note_on,,,,,38,0,0,,,2,,,69,126
90332,note_off,,,,,8,0,0,,,2,,,71,64
90370,note_on,,,,,38,0,0,,,2,,,68,126
90378,note_off,,,,,8,0,0,,,2,,,69,64
90414,note_on,,,,,36,0,0,,,2,,,69,126
90420,note_off,,,,,6,0,0,,,2,,,68,64
90458,note_on,,,,,38,0,0,,,2,,,71,127
90464,note_off,,,,,6,0,0,,,2,,,69,64
90501,note_on,,,,,37,0,0,,,2,,,73,127
90508,note_off,,,,,7,0,0,,,2,,,71,64
90541,note_on,,,,,33,0,0,,,2,,,74,127
90549,note_off,,,,,8,0,0,,,2,,,73,64
90581,note_on,,,,,32,0,0,,,2,,,76,127
90589,note_off,,,,,8,0,0,,,2,,,74,64
90624,note_on,,,,,35,0,0,,,2,,,74,127
90629,note_off,,,,,5,0,0,,,2,,,76,64
90664,note_on,,,,,35,0,0,,,2,,,73,127
90672,note_off,,,,,8,0,0,,,2,,,74,64
90706,note_on,,,,,34,0,0,,,2,,,71,127
90714,note_off,,,,,8,0,0,,,2,,,73,64
90749,note_on,,,,,35,0,0,,,2,,,73,127
90757,note_off,,,,,8,0,0,,,2,,,71,64
90794,note_on,,,,,37,0,0,,,2,,,74,127
90801,note_off,,,,,7,0,0,,,2,,,73,64
90837,note_on,,,,,36,0,0,,,2,,,76,127
90844,note_off,,,,,7,0,0,,,2,,,74,64
90879,note_on,,,,,35,0,0,,,1,,,78,126
90887,note_off,,,,,8,0,0,,,2,,,76,64
90919,note_off,,,,,32,0,0,,,1,,,78,64
90920,note_on,,,,,1,0,0,,,1,,,79,126
90960,note_off,,,,,40,0,0,,,1,,,79,64
90961,note_on,,,,,1,0,0,,,1,,,78,126
91000,note_off,,,,,39,0,0,,,1,,,78,64
91002,note_on,,,,,2,0,0,,,2,,,76,127
91042,note_off,,,,,40,0,0,,,2,,,76,64
91043,note_on,,,,,1,0,0,,,1,,,78,126
91084,note_off,,,,,41,0,0,,,1,,,78,64
91084,note_on,,,,,0,0,0,,,2,,,76,127
91126,note_on,,,,,42,0,0,,,2,,,74,127
91134,note_off,,,,,8,0,0,,,2,,,76,64
91170,note_on,,,,,36,0,0,,,2,,,73,127
91176,note_off,,,,,6,0,0,,,2,,,74,64
91212,note_on,,,,,36,0,0,,,2,,,74,127
91220,note_off,,,,,8,0,0,,,2,,,73,64
91257,note_on,,,,,37,0,0,,,2,,,73,127
91264,note_off,,,,,7,0,0,,,2,,,74,64
91299,note_on,,,,,35,0,0,,,2,,,71,127
91307,note_off,,,,,8,0,0,,,2,,,73,64
91343,note_on,,,,,36,0,0,,,2,,,69,126
91349,note_off,,,,,6,0,0,,,2,,,71,64
91385,note_on,,,,,36,0,0,,,2,,,71,127
91392,note_off,,,,,7,0,0,,,2,,,69,64
91429,note_on,,,,,37,0,0,,,2,,,69,126
91437,note_off,,,,,8,0,0,,,2,,,71,64
91470,note_on,,,,,33,0,0,,,2,,,67,126
91477,note_off,,,,,7,0,0,,,2,,,69,64
91514,note_on,,,,,37,0,0,,,4,,,66,126
91520,note_off,,,,,6,0,0,,,2,,,67,64
91560,note_on,,,,,40,0,0,,,4,,,64,124
91568,note_off,,,,,8,0,0,,,4,,,66,64
91596,note_off,,,,,28,0,0,,,4,,,45,64
91597,note_off,,,,,1,0,0,,,4,,,57,64
91611,note_off,,,,,14,0,0,,,4,,,64,64
91615,note_on,,,,,4,0,0,,,4,,,50,127
91615,note_on,,,,,0,0,0,,,4,,,62,127
91616,note_on,,,,,1,0,0,,,4,,,38,127
91627,note_on,,,,,11,0,0,,,4,,,66,126
91640,note_on,,,,,13,0,0,,,2,,,69,126
91650,note_on,,,,,10,0,0,,,2,,,74,127
91938,note_off,,,,,288,0,0,,,4,,,62,64
91947,note_off,,,,,9,0,0,,,4,,,66,64
91957,note_off,,,,,10,0,0,,,2,,,69,64
91968,note_off,,,,,11,0,0,,,2,,,74,64
91982,note_off,,,,,14,0,0,,,4,,,50,64
91983,note_on,,,,,1,0,0,,,2,,,67,126
91983,note_on,,,,,0,0,0,,,4,,,55,127
92028,note_on,,,,,45,0,0,,,4,,,66,126
92028,note_on,,,,,0,0,0,,,4,,,54,127
92032,note_off,,,,,4,0,0,,,4,,,55,64
92033,note_off,,,,,1,0,0,,,2,,,67,64
92072,note_on,,,,,39,0,0,,,4,,,64,127
92072,note_on,,,,,0,0,0,,,4,,,52,127
92076,note_off,,,,,4,0,0,,,4,,,54,64
92077,note_off,,,,,1,0,0,,,4,,,66,64
92118,note_on,,,,,41,0,0,,,4,,,50,127
92118,note_on,,,,,0,0,0,,,4,,,62,127
92123,note_off,,,,,5,0,0,,,4,,,52,64
92123,note_off,,,,,0,0,0,,,4,,,64,64
92164,note_on,,,,,41,0,0,,,2,,,67,127
92164,note_on,,,,,0,0,0,,,4,,,55,127
92169,note_off,,,,,5,0,0,,,4,,,62,64
92169,note_off,,,,,0,0,0,,,4,,,50,64
92210,note_on,,,,,41,0,0,,,4,,,66,127
92210,note_on,,,,,0,0,0,,,4,,,54,127
92215,note_off,,,,,5,0,0,,,4,,,55,64
92215,note_off,,,,,0,0,0,,,2,,,67,64
92250,note_on,,,,,35,0,0,,,4,,,64,127
92251,note_on,,,,,1,0,0,,,4,,,52,127
92257,note_off,,,,,6,0,0,,,4,,,54,64
92257,note_off,,,,,0,0,0,,,4,,,66,64
92298,note_on,,,,,41,0,0,,,4,,,62,127
92299,note_on,,,,,1,0,0,,,4,,,50,127
92303,note_off,,,,,4,0,0,,,4,,,52,64
92304,note_off,,,,,1,0,0,,,4,,,64,64
92346,note_on,,,,,42,0,0,,,2,,,69,126
92347,note_on,,,,,1,0,0,,,4,,,57,127
92351,note_off,,,,,4,0,0,,,4,,,50,64
92352,note_off,,,,,1,0,0,,,4,,,62,64
92523,note_off,,,,,171,0,0,,,2,,,69,64
92523,note_off,,,,,0,0,0,,,4,,,57,64
92530,note_on,,,,,7,0,0,,,4,,,54,127
92530,note_on,,,,,0,0,0,,,4,,,66,126
92705,note_off,,,,,175,0,0,,,4,,,54,64
92706,note_off,,,,,1,0,0,,,4,,,66,64
92714,note_on,,,,,8,0,0,,,4,,,59,127
92714,note_on,,,,,0,0,0,,,2,,,71,127
92959,note_off,,,,,245,0,0,,,2,,,71,64
92959,note_off,,,,,0,0,0,,,4,,,59,64
92988,note_on,,,,,29,0,0,,,4,,,66,126
92989,note_on,,,,,1,0,0,,,4,,,54,127
93084,note_off,,,,,95,0,0,,,4,,,54,64
93084,note_off,,,,,0,0,0,,,4,,,66,64
93084,note_on,,,,,0,0,0,,,2,,,67,126
93085,note_on,,,,,1,0,0,,,4,,,55,127
93178,note_off,,,,,93,0,0,,,2,,,67,64
93178,note_off,,,,,0,0,0,,,4,,,55,64
93179,note_on,,,,,1,0,0,,,4,,,64,124
93179,note_on,,,,,0,0,0,,,4,,,52,127
93270,note_off,,,,,91,0,0,,,4,,,52,64
93270,note_off,,,,,0,0,0,,,4,,,64,64
93271,note_on,,,,,1,0,0,,,2,,,69,126
93271,note_on,,,,,0,0,0,,,4,,,57,127
93360,note_off,,,,,89,0,0,,,4,,,57,64
93360,note_off,,,,,0,0,0,,,2,,,69,64
93361,note_on,,,,,1,0,0,,,4,,,66,126
93361,note_on,,,,,0,0,0,,,4,,,54,127
93446,note_off,,,,,85,0,0,,,4,,,54,64
93447,note_off,,,,,1,0,0,,,4,,,66,64
93447,note_on,,,,,0,0,0,,,4,,,62,127
93448,note_on,,,,,1,0,0,,,4,,,50,127
93543,note_off,,,,,95,0,0,,,4,,,50,64
93543,note_off,,,,,0,0,0,,,4,,,62,64
93543,note_on,,,,,0,0,0,,,4,,,59,127
93544,note_on,,,,,1,0,0,,,4,,,47,127
93635,note_off,,,,,91,0,0,,,4,,,59,64
93635,note_off,,,,,0,0,0,,,4,,,47,64
93636,note_on,,,,,1,0,0,,,4,,,64,124
93636,note_on,,,,,0,0,0,,,4,,,52,127
93725,note_off,,,,,89,0,0,,,4,,,52,64
93725,note_off,,,,,0,0,0,,,4,,,64,64
93726,note_on,,,,,1,0,0,,,4,,,61,127
93726,note_on,,,,,0,0,0,,,4,,,49,127
93819,note_off,,,,,93,0,0,,,4,,,49,64
93820,note_off,,,,,1,0,0,,,4,,,61,64
93820,note_on,,,,,0,0,0,,,4,,,57,127
93821,note_on,,,,,1,0,0,,,4,,,45,127
93890,note_off,,,,,69,0,0,,,4,,,57,64
93913,note_off,,,,,23,0,0,,,4,,,38,64
93914,note_on,,,,,1,0,0,,,4,,,57,127
93974,note_off,,,,,60,0,0,,,4,,,45,64
94005,note_on,,,,,31,0,0,,,4,,,45,127
94068,note_off,,,,,63,0,0,,,4,,,57,64
94099,note_on,,,,,31,0,0,,,4,,,57,127
94160,note_off,,,,,61,0,0,,,4,,,45,64
94193,note_on,,,,,33,0,0,,,4,,,45,127
94254,note_off,,,,,61,0,0,,,4,,,57,64
94285,note_on,,,,,31,0,0,,,4,,,66,126
94285,note_on,,,,,0,0,0,,,2,,,74,125
94286,note_on,,,,,1,0,0,,,4,,,57,127
94344,note_off,,,,,58,0,0,,,4,,,45,64
94359,note_off,,,,,15,0,0,,,2,,,74,64
94359,note_off,,,,,0,0,0,,,4,,,66,64
94373,note_on,,,,,14,0,0,,,2,,,74,125
94373,note_on,,,,,0,0,0,,,4,,,66,126
94374,note_on,,,,,1,0,0,,,4,,,45,127
94432,note_off,,,,,58,0,0,,,4,,,57,64
94455,note_off,,,,,23,0,0,,,4,,,66,64
94455,note_off,,,,,0,0,0,,,2,,,74,64
94462,note_on,,,,,7,0,0,,,2,,,74,125
94462,note_on,,,,,0,0,0,,,4,,,66,126
94463,note_on,,,,,1,0,0,,,4,,,57,127
94520,note_off,,,,,57,0,0,,,4,,,45,64
94543,note_off,,,,,23,0,0,,,4,,,66,64
94544,note_off,,,,,1,0,0,,,2,,,74,64
94550,note_on,,,,,6,0,0,,,4,,,66,126
94550,note_on,,,,,0,0,0,,,2,,,74,125
94551,note_on,,,,,1,0,0,,,4,,,45,127
94608,note_off,,,,,57,0,0,,,4,,,57,64
94624,note_off,,,,,16,0,0,,,2,,,74,64
94624,note_off,,,,,0,0,0,,,4,,,66,64
94638,note_on,,,,,14,0,0,,,2,,,73,125
94639,note_on,,,,,1,0,0,,,4,,,64,124
94639,note_on,,,,,0,0,0,,,4,,,57,127
94700,note_off,,,,,61,0,0,,,4,,,45,64
94717,note_off,,,,,17,0,0,,,4,,,64,64
94717,note_off,,,,,0,0,0,,,2,,,73,64
94731,note_on,,,,,14,0,0,,,2,,,73,125
94732,note_on,,,,,1,0,0,,,4,,,45,127
94732,note_on,,,,,0,0,0,,,4,,,64,124
94794,note_off,,,,,62,0,0,,,4,,,57,64
94824,note_on,,,,,30,0,0,,,4,,,57,127
94884,note_off,,,,,60,0,0,,,4,,,45,64
94915,note_on,,,,,31,0,0,,,4,,,45,127
94976,note_off,,,,,61,0,0,,,4,,,57,64
94977,note_off,,,,,1,0,0,,,2,,,73,64
94977,note_off,,,,,0,0,0,,,4,,,64,64
95006,note_on,,,,,29,0,0,,,2,,,74,125
95006,note_on,,,,,0,0,0,,,1,,,78,122
95007,note_on,,,,,1,0,0,,,4,,,57,127
95064,note_off,,,,,57,0,0,,,4,,,45,64
95080,note_off,,,,,16,0,0,,,1,,,78,64
95080,note_off,,,,,0,0,0,,,2,,,74,64
95094,note_on,,,,,14,0,0,,,1,,,78,122
95095,note_on,,,,,1,0,0,,,2,,,74,125
95095,note_on,,,,,0,0,0,,,4,,,45,127
95153,note_off,,,,,58,0,0,,,4,,,57,64
95176,note_off,,,,,23,0,0,,,2,,,74,64
95176,note_off,,,,,0,0,0,,,1,,,78,64
95183,note_on,,,,,7,0,0,,,1,,,78,122
95183,note_on,,,,,0,0,0,,,2,,,74,125
95184,note_on,,,,,1,0,0,,,4,,,57,127
95243,note_off,,,,,59,0,0,,,4,,,45,64
95266,note_off,,,,,23,0,0,,,2,,,74,64
95267,note_off,,,,,1,0,0,,,1,,,78,64
95273,note_on,,,,,6,0,0,,,2,,,74,125
95273,note_on,,,,,0,0,0,,,1,,,78,122
95274,note_on,,,,,1,0,0,,,4,,,45,127
95330,note_off,,,,,56,0,0,,,4,,,57,64
95345,note_off,,,,,15,0,0,,,1,,,78,64
95345,note_off,,,,,0,0,0,,,2,,,74,64
95359,note_on,,,,,14,0,0,,,2,,,76,125
95360,note_on,,,,,1,0,0,,,2,,,73,125
95360,note_on,,,,,0,0,0,,,4,,,57,127
95417,note_off,,,,,57,0,0,,,4,,,45,64
95430,note_off,,,,,13,0,0,,,2,,,73,64
95431,note_off,,,,,1,0,0,,,2,,,76,64
95445,note_on,,,,,14,0,0,,,2,,,73,125
95445,note_on,,,,,0,0,0,,,2,,,76,125
95446,note_on,,,,,1,0,0,,,4,,,45,127
95505,note_off,,,,,59,0,0,,,4,,,57,64
95536,note_on,,,,,31,0,0,,,4,,,57,127
95597,note_off,,,,,61,0,0,,,4,,,45,64
95628,note_on,,,,,31,0,0,,,4,,,45,127
95689,note_off,,,,,61,0,0,,,4,,,57,64
95690,note_off,,,,,1,0,0,,,2,,,76,64
95690,note_off,,,,,0,0,0,,,2,,,73,64
95719,note_on,,,,,29,0,0,,,1,,,81,122
95720,note_on,,,,,1,0,0,,,4,,,57,127
95720,note_on,,,,,0,0,0,,,1,,,78,122
95780,note_off,,,,,60,0,0,,,4,,,45,64
95795,note_off,,,,,15,0,0,,,1,,,78,64
95796,note_off,,,,,1,0,0,,,1,,,81,64
95811,note_on,,,,,15,0,0,,,1,,,81,122
95812,note_on,,,,,1,0,0,,,1,,,78,122
95812,note_on,,,,,0,0,0,,,4,,,45,127
95870,note_off,,,,,58,0,0,,,4,,,57,64
95893,note_off,,,,,23,0,0,,,1,,,78,64
95893,note_off,,,,,0,0,0,,,1,,,81,64
95902,note_on,,,,,9,0,0,,,1,,,81,122
95902,note_on,,,,,0,0,0,,,1,,,78,122
95903,note_on,,,,,1,0,0,,,4,,,57,127
95963,note_off,,,,,60,0,0,,,4,,,45,64
95987,note_off,,,,,24,0,0,,,1,,,78,64
95988,note_off,,,,,1,0,0,,,1,,,81,64
95992,note_on,,,,,4,0,0,,,1,,,79,122
95995,note_on,,,,,3,0,0,,,4,,,45,127
96037,note_on,,,,,42,0,0,,,1,,,78,122
96045,note_off,,,,,8,0,0,,,1,,,79,64
96082,note_on,,,,,37,0,0,,,1,,,79,122
96087,note_off,,,,,5,0,0,,,1,,,78,64
96123,note_on,,,,,36,0,0,,,1,,,81,122
96130,note_off,,,,,7,0,0,,,1,,,79,64
96164,note_on,,,,,34,0,0,,,1,,,83,122
96172,note_off,,,,,8,0,0,,,1,,,81,64
96208,note_on,,,,,36,0,0,,,1,,,81,122
96214,note_off,,,,,6,0,0,,,1,,,83,64
96247,note_on,,,,,33,0,0,,,1,,,79,122
96254,note_off,,,,,7,0,0,,,1,,,81,64
96289,note_on,,,,,35,0,0,,,1,,,78,122
96296,note_off,,,,,7,0,0,,,1,,,79,64
96332,note_on,,,,,36,0,0,,,2,,,76,125
96339,note_off,,,,,7,0,0,,,1,,,78,64
96375,note_on,,,,,36,0,0,,,2,,,75,125
96385,note_off,,,,,10,0,0,,,2,,,76,64
96420,note_on,,,,,35,0,0,,,2,,,76,125
96425,note_off,,,,,5,0,0,,,2,,,75,64
96460,note_on,,,,,35,0,0,,,1,,,78,122
96469,note_off,,,,,9,0,0,,,2,,,76,64
96500,note_on,,,,,31,0,0,,,1,,,79,122
96506,note_off,,,,,6,0,0,,,1,,,78,64
96542,note_on,,,,,36,0,0,,,1,,,78,122
96547,note_off,,,,,5,0,0,,,1,,,79,64
96582,note_on,,,,,35,0,0,,,2,,,76,125
96589,note_off,,,,,7,0,0,,,1,,,78,64
96624,note_on,,,,,35,0,0,,,2,,,74,125
96632,note_off,,,,,8,0,0,,,2,,,76,64
96668,note_on,,,,,36,0,0,,,2,,,73,125
96669,note_on,,,,,1,0,0,,,4,,,61,127
96675,note_off,,,,,6,0,0,,,2,,,74,64
96682,note_off,,,,,7,0,0,,,4,,,57,64
96712,note_on,,,,,30,0,0,,,2,,,71,124
96713,note_on,,,,,1,0,0,,,4,,,59,127
96719,note_off,,,,,6,0,0,,,4,,,61,64
96720,note_off,,,,,1,0,0,,,2,,,73,64
96756,note_on,,,,,36,0,0,,,2,,,73,125
96757,note_on,,,,,1,0,0,,,4,,,61,127
96763,note_off,,,,,6,0,0,,,4,,,59,64
96764,note_off,,,,,1,0,0,,,2,,,71,64
96799,note_on,,,,,35,0,0,,,2,,,74,125
96799,note_on,,,,,0,0,0,,,4,,,62,127
96805,note_off,,,,,6,0,0,,,4,,,61,64
96806,note_off,,,,,1,0,0,,,2,,,73,64
96842,note_on,,,,,36,0,0,,,2,,,76,125
96842,note_on,,,,,0,0,0,,,4,,,64,124
96847,note_off,,,,,5,0,0,,,4,,,62,64
96847,note_off,,,,,0,0,0,,,2,,,74,64
96882,note_on,,,,,35,0,0,,,2,,,74,125
96883,note_on,,,,,1,0,0,,,4,,,62,127
96891,note_off,,,,,8,0,0,,,4,,,64,64
96891,note_off,,,,,0,0,0,,,2,,,76,64
96923,note_on,,,,,32,0,0,,,4,,,61,127
96923,note_on,,,,,0,0,0,,,2,,,73,125
96929,note_off,,,,,6,0,0,,,4,,,62,64
96930,note_off,,,,,1,0,0,,,2,,,74,64
96965,note_on,,,,,35,0,0,,,2,,,71,124
96965,note_on,,,,,0,0,0,,,4,,,59,127
96972,note_off,,,,,7,0,0,,,2,,,73,64
96972,note_off,,,,,0,0,0,,,4,,,61,64
97007,note_on,,,,,35,0,0,,,2,,,69,122
97008,note_on,,,,,1,0,0,,,4,,,57,127
97016,note_off,,,,,8,0,0,,,4,,,59,64
97016,note_off,,,,,0,0,0,,,2,,,71,64
97051,note_on,,,,,35,0,0,,,2,,,68,126
97052,note_on,,,,,1,0,0,,,4,,,56,127
97060,note_off,,,,,8,0,0,,,4,,,57,64
97060,note_off,,,,,0,0,0,,,2,,,69,64
97097,note_on,,,,,37,0,0,,,2,,,69,122
97098,note_on,,,,,1,0,0,,,4,,,57,127
97104,note_off,,,,,6,0,0,,,4,,,56,64
97104,note_off,,,,,0,0,0,,,2,,,68,64
97140,note_on,,,,,36,0,0,,,2,,,71,124
97140,note_on,,,,,0,0,0,,,4,,,59,127
97146,note_off,,,,,6,0,0,,,4,,,57,64
97147,note_off,,,,,1,0,0,,,2,,,69,64
97182,note_on,,,,,35,0,0,,,4,,,57,127
97182,note_on,,,,,0,0,0,,,2,,,69,122
97188,note_off,,,,,6,0,0,,,4,,,59,64
97189,note_off,,,,,1,0,0,,,2,,,71,64
97224,note_on,,,,,35,0,0,,,2,,,67,126
97224,note_on,,,,,0,0,0,,,4,,,55,127
97231,note_off,,,,,7,0,0,,,2,,,69,64
97231,note_off,,,,,0,0,0,,,4,,,57,64
97266,note_on,,,,,35,0,0,,,4,,,66,126
97267,note_on,,,,,1,0,0,,,4,,,54,127
97275,note_off,,,,,8,0,0,,,4,,,55,64
97275,note_off,,,,,0,0,0,,,2,,,67,64
97310,note_on,,,,,35,0,0,,,4,,,64,124
97311,note_on,,,,,1,0,0,,,4,,,52,127
97317,note_off,,,,,6,0,0,,,4,,,54,64
97318,note_off,,,,,1,0,0,,,4,,,66,64
97343,note_off,,,,,25,0,0,,,4,,,45,64
97356,note_on,,,,,13,0,0,,,4,,,62,127
97357,note_on,,,,,1,0,0,,,4,,,38,110
97357,note_on,,,,,0,0,0,,,4,,,50,127
97364,note_off,,,,,7,0,0,,,4,,,52,64
97365,note_off,,,,,1,0,0,,,4,,,64,64
97440,note_off,,,,,75,0,0,,,4,,,50,64
97452,note_on,,,,,12,0,0,,,4,,,50,127
97538,note_off,,,,,86,0,0,,,4,,,50,64
97546,note_on,,,,,8,0,0,,,4,,,50,127
97630,note_off,,,,,84,0,0,,,4,,,50,64
97638,note_on,,,,,8,0,0,,,4,,,50,127
97721,note_off,,,,,83,0,0,,,4,,,62,64
97722,note_off,,,,,1,0,0,,,4,,,50,64
97731,note_on,,,,,9,0,0,,,4,,,64,124
97731,note_on,,,,,0,0,0,,,4,,,61,127
97732,note_on,,,,,1,0,0,,,4,,,50,127
97816,note_off,,,,,84,0,0,,,4,,,50,64
97824,note_on,,,,,8,0,0,,,4,,,50,127
97908,note_off,,,,,84,0,0,,,4,,,50,64
97909,note_off,,,,,1,0,0,,,4,,,61,64
97909,note_off,,,,,0,0,0,,,4,,,64,64
97917,note_on,,,,,8,0,0,,,4,,,66,126
97918,note_on,,,,,1,0,0,,,4,,,50,127
97918,note_on,,,,,0,0,0,,,4,,,60,127
98002,note_off,,,,,84,0,0,,,4,,,50,64
98009,note_on,,,,,7,0,0,,,4,,,50,127
98094,note_off,,,,,85,0,0,,,4,,,50,64
98094,note_off,,,,,0,0,0,,,4,,,60,64
98095,note_off,,,,,1,0,0,,,4,,,66,64
98102,note_on,,,,,7,0,0,,,2,,,67,126
98103,note_on,,,,,1,0,0,,,4,,,50,127
98103,note_on,,,,,0,0,0,,,4,,,59,127
98188,note_off,,,,,85,0,0,,,4,,,50,64
98196,note_on,,,,,8,0,0,,,4,,,50,127
98240,note_off,,,,,44,0,0,,,2,,,67,64
98240,note_on,,,,,0,0,0,,,2,,,69,126
98264,note_off,,,,,24,0,0,,,2,,,69,64
98264,note_on,,,,,0,0,0,,,2,,,71,127
98286,note_off,,,,,22,0,0,,,4,,,50,64
98286,note_off,,,,,0,0,0,,,4,,,59,64
98297,note_off,,,,,11,0,0,,,2,,,71,64
98297,note_on,,,,,0,0,0,,,4,,,61,127
98297,note_on,,,,,0,0,0,,,2,,,69,126
98298,note_on,,,,,1,0,0,,,4,,,50,127
98383,note_off,,,,,85,0,0,,,4,,,50,64
98391,note_off,,,,,8,0,0,,,2,,,69,64
98391,note_on,,,,,0,0,0,,,4,,,50,127
98391,note_on,,,,,0,0,0,,,2,,,67,126
98478,note_off,,,,,87,0,0,,,4,,,50,64
98479,note_off,,,,,1,0,0,,,4,,,61,64
98485,note_off,,,,,6,0,0,,,2,,,67,64
98485,note_on,,,,,0,0,0,,,4,,,66,126
98486,note_on,,,,,1,0,0,,,4,,,62,127
98486,note_on,,,,,0,0,0,,,4,,,50,127
98573,note_off,,,,,87,0,0,,,4,,,50,64
98582,note_on,,,,,9,0,0,,,4,,,50,127
98666,note_off,,,,,84,0,0,,,4,,,50,64
98676,note_on,,,,,10,0,0,,,4,,,50,127
98760,note_off,,,,,84,0,0,,,4,,,50,64
98766,note_off,,,,,6,0,0,,,4,,,38,64
98769,note_on,,,,,3,0,0,,,4,,,50,127
98852,note_off,,,,,83,0,0,,,4,,,50,64
98852,note_off,,,,,0,0,0,,,4,,,62,64
98853,note_off,,,,,1,0,0,,,4,,,66,64
98860,note_on,,,,,7,0,0,,,4,,,66,126
98861,note_on,,,,,1,0,0,,,4,,,62,127
98861,note_on,,,,,0,0,0,,,4,,,50,127
98862,note_on,,,,,1,0,0,,,4,,,38,127
98947,note_off,,,,,85,0,0,,,4,,,50,64
98956,note_on,,,,,9,0,0,,,4,,,50,127
99043,note_off,,,,,87,0,0,,,4,,,50,64
99050,note_on,,,,,7,0,0,,,4,,,50,127
99138,note_off,,,,,88,0,0,,,4,,,50,64
99146,note_on,,,,,8,0,0,,,4,,,50,127
99233,note_off,,,,,87,0,0,,,4,,,50,64
99233,note_off,,,,,0,0,0,,,4,,,62,64
99234,note_off,,,,,1,0,0,,,4,,,66,64
99242,note_on,,,,,8,0,0,,,2,,,67,126
99243,note_on,,,,,1,0,0,,,4,,,50,127
99247,note_on,,,,,4,0,0,,,4,,,64,124
99330,note_off,,,,,83,0,0,,,4,,,50,64
99337,note_on,,,,,7,0,0,,,4,,,50,127
99424,note_off,,,,,87,0,0,,,2,,,67,64
99424,note_off,,,,,0,0,0,,,4,,,50,64
99431,note_off,,,,,7,0,0,,,4,,,64,64
99431,note_on,,,,,0,0,0,,,2,,,69,126
99432,note_on,,,,,1,0,0,,,4,,,66,126
99432,note_on,,,,,0,0,0,,,4,,,50,127
99519,note_off,,,,,87,0,0,,,4,,,50,64
99527,note_on,,,,,8,0,0,,,4,,,50,127
99613,note_off,,,,,86,0,0,,,4,,,66,64
99613,note_off,,,,,0,0,0,,,4,,,50,64
99614,note_off,,,,,1,0,0,,,2,,,69,64
99620,note_on,,,,,6,0,0,,,2,,,67,126
99620,note_on,,,,,0,0,0,,,2,,,71,127
99621,note_on,,,,,1,0,0,,,4,,,50,127
99704,note_off,,,,,83,0,0,,,4,,,50,64
99712,note_on,,,,,8,0,0,,,4,,,50,127
99758,note_off,,,,,46,0,0,,,2,,,71,64
99758,note_on,,,,,0,0,0,,,2,,,73,127
99786,note_off,,,,,28,0,0,,,2,,,73,64
99786,note_on,,,,,0,0,0,,,2,,,74,127
99808,note_off,,,,,22,0,0,,,4,,,50,64
99817,note_off,,,,,9,0,0,,,2,,,74,64
99818,note_on,,,,,1,0,0,,,4,,,50,127
99818,note_on,,,,,0,0,0,,,2,,,73,127
99904,note_off,,,,,86,0,0,,,4,,,50,64
99912,note_off,,,,,8,0,0,,,2,,,73,64
99912,note_on,,,,,0,0,0,,,2,,,71,127
99912,note_on,,,,,0,0,0,,,4,,,50,127
99998,note_off,,,,,86,0,0,,,4,,,50,64
99998,note_off,,,,,0,0,0,,,2,,,67,64
100007,note_off,,,,,9,0,0,,,2,,,71,64
100007,note_on,,,,,0,0,0,,,2,,,69,126
100008,note_on,,,,,1,0,0,,,4,,,66,126
100008,note_on,,,,,0,0,0,,,4,,,50,127
100093,note_off,,,,,85,0,0,,,4,,,50,64
100101,note_on,,,,,8,0,0,,,4,,,50,127
100189,note_off,,,,,88,0,0,,,4,,,50,64
100197,note_on,,,,,8,0,0,,,4,,,50,127
100283,note_off,,,,,86,0,0,,,4,,,50,64
100293,note_off,,,,,10,0,0,,,4,,,38,64
100293,note_on,,,,,0,0,0,,,1,,,78,126
100294,note_on,,,,,1,0,0,,,4,,,50,127
100388,note_off,,,,,94,0,0,,,4,,,50,64
100389,note_off,,,,,1,0,0,,,2,,,69,64
100389,note_off,,,,,0,0,0,,,4,,,66,64
100389,note_on,,,,,0,0,0,,,2,,,76,127
100390,note_on,,,,,1,0,0,,,4,,,43,127
100390,note_on,,,,,0,0,0,,,4,,,55,127
100394,note_off,,,,,4,0,0,,,1,,,78,64
100435,note_on,,,,,41,0,0,,,1,,,86,126
100481,note_off,,,,,46,0,0,,,2,,,76,64
100483,note_on,,,,,2,0,0,,,2,,,76,127
100527,note_off,,,,,44,0,0,,,1,,,86,64
100531,note_on,,,,,4,0,0,,,1,,,86,126
100575,note_off,,,,,44,0,0,,,2,,,76,64
100579,note_on,,,,,4,0,0,,,2,,,76,127
100579,note_on,,,,,0,0,0,,,4,,,62,127
100580,note_on,,,,,1,0,0,,,4,,,50,127
100585,note_off,,,,,5,0,0,,,4,,,43,64
100586,note_off,,,,,1,0,0,,,4,,,55,64
100623,note_off,,,,,37,0,0,,,1,,,86,64
100625,note_on,,,,,2,0,0,,,1,,,86,126
100671,note_off,,,,,46,0,0,,,2,,,76,64
100673,note_on,,,,,2,0,0,,,2,,,76,127
100719,note_off,,,,,46,0,0,,,1,,,86,64
100721,note_on,,,,,2,0,0,,,1,,,86,126
100767,note_off,,,,,46,0,0,,,2,,,76,64
100769,note_on,,,,,2,0,0,,,4,,,59,127
100769,note_on,,,,,0,0,0,,,2,,,76,127
100770,note_on,,,,,1,0,0,,,4,,,47,127
100776,note_off,,,,,6,0,0,,,4,,,50,64
100776,note_off,,,,,0,0,0,,,4,,,62,64
100813,note_off,,,,,37,0,0,,,1,,,86,64
100815,note_on,,,,,2,0,0,,,1,,,86,126
100860,note_off,,,,,45,0,0,,,2,,,76,64
100862,note_on,,,,,2,0,0,,,2,,,76,127
100906,note_off,,,,,44,0,0,,,1,,,86,64
100908,note_on,,,,,2,0,0,,,1,,,86,126
100954,note_off,,,,,46,0,0,,,2,,,76,64
100956,note_on,,,,,2,0,0,,,4,,,55,127
100956,note_on,,,,,0,0,0,,,2,,,76,127
100957,note_on,,,,,1,0,0,,,4,,,43,127
100965,note_off,,,,,8,0,0,,,4,,,59,64
100965,note_off,,,,,0,0,0,,,4,,,47,64
101002,note_off,,,,,37,0,0,,,1,,,86,64
101004,note_on,,,,,2,0,0,,,1,,,86,126
101050,note_off,,,,,46,0,0,,,2,,,76,64
101052,note_on,,,,,2,0,0,,,2,,,76,127
101097,note_off,,,,,45,0,0,,,1,,,86,64
101100,note_on,,,,,3,0,0,,,1,,,86,126
101145,note_off,,,,,45,0,0,,,2,,,76,64
101148,note_on,,,,,3,0,0,,,4,,,45,127
101148,note_on,,,,,0,0,0,,,4,,,57,127
101148,note_on,,,,,0,0,0,,,1,,,78,126
101156,note_off,,,,,8,0,0,,,4,,,43,64
101157,note_off,,,,,1,0,0,,,4,,,55,64
101193,note_off,,,,,36,0,0,,,1,,,86,64
101196,note_on,,,,,3,0,0,,,1,,,86,126
101240,note_off,,,,,44,0,0,,,1,,,78,64
101244,note_on,,,,,4,0,0,,,1,,,78,126
101287,note_off,,,,,43,0,0,,,1,,,86,64
101290,note_on,,,,,3,0,0,,,1,,,86,126
101336,note_off,,,,,46,0,0,,,1,,,78,64
101339,note_on,,,,,3,0,0,,,4,,,62,127
101339,note_on,,,,,0,0,0,,,1,,,78,126
101340,note_on,,,,,1,0,0,,,4,,,50,127
101346,note_off,,,,,6,0,0,,,4,,,45,64
101347,note_off,,,,,1,0,0,,,4,,,57,64
101383,note_off,,,,,36,0,0,,,1,,,86,64
101386,note_on,,,,,3,0,0,,,1,,,86,126
101431,note_off,,,,,45,0,0,,,1,,,78,64
101434,note_on,,,,,3,0,0,,,1,,,78,126
101480,note_off,,,,,46,0,0,,,1,,,86,64
101482,note_on,,,,,2,0,0,,,1,,,86,126
101526,note_off,,,,,44,0,0,,,1,,,78,64
101528,note_on,,,,,2,0,0,,,1,,,78,126
101529,note_on,,,,,1,0,0,,,4,,,60,127
101529,note_on,,,,,0,0,0,,,4,,,48,127
101537,note_off,,,,,8,0,0,,,4,,,50,64
101538,note_off,,,,,1,0,0,,,4,,,62,64
101573,note_off,,,,,35,0,0,,,1,,,86,64
101575,note_on,,,,,2,0,0,,,1,,,86,126
101619,note_off,,,,,44,0,0,,,1,,,78,64
101621,note_on,,,,,2,0,0,,,1,,,78,126
101665,note_off,,,,,44,0,0,,,1,,,86,64
101667,note_on,,,,,2,0,0,,,1,,,86,126
101711,note_off,,,,,44,0,0,,,1,,,78,64
101713,note_on,,,,,2,0,0,,,4,,,57,127
101713,note_on,,,,,0,0,0,,,1,,,78,126
101714,note_on,,,,,1,0,0,,,4,,,45,127
101722,note_off,,,,,8,0,0,,,4,,,48,64
101722,note_off,,,,,0,0,0,,,4,,,60,64
101759,note_off,,,,,37,0,0,,,1,,,86,64
101761,note_on,,,,,2,0,0,,,1,,,86,126
101806,note_off,,,,,45,0,0,,,1,,,78,64
101810,note_on,,,,,4,0,0,,,1,,,78,126
101854,note_off,,,,,44,0,0,,,1,,,86,64
101856,note_on,,,,,2,0,0,,,1,,,86,126
101902,note_off,,,,,46,0,0,,,1,,,78,64
101904,note_on,,,,,2,0,0,,,4,,,59,127
101904,note_on,,,,,0,0,0,,,1,,,79,126
101905,note_on,,,,,1,0,0,,,4,,,47,127
101913,note_off,,,,,8,0,0,,,4,,,57,64
101913,note_off,,,,,0,0,0,,,4,,,45,64
101948,note_off,,,,,35,0,0,,,1,,,86,64
101952,note_on,,,,,4,0,0,,,1,,,86,126
101996,note_off,,,,,44,0,0,,,1,,,79,64
101998,note_on,,,,,2,0,0,,,1,,,79,126
102042,note_off,,,,,44,0,0,,,1,,,86,64
102044,note_on,,,,,2,0,0,,,1,,,86,126
102088,note_off,,,,,44,0,0,,,1,,,79,64
102092,note_on,,,,,4,0,0,,,1,,,79,126
102093,note_on,,,,,1,0,0,,,4,,,55,127
102093,note_on,,,,,0,0,0,,,2,,,67,126
102099,note_off,,,,,6,0,0,,,4,,,59,64
102099,note_off,,,,,0,0,0,,,4,,,47,64
102136,note_off,,,,,37,0,0,,,1,,,86,64
102138,note_on,,,,,2,0,0,,,1,,,86,126
102182,note_off,,,,,44,0,0,,,1,,,79,64
102184,note_on,,,,,2,0,0,,,1,,,79,126
102230,note_off,,,,,46,0,0,,,1,,,86,64
102231,note_on,,,,,1,0,0,,,1,,,86,126
102276,note_off,,,,,45,0,0,,,1,,,79,64
102278,note_on,,,,,2,0,0,,,1,,,79,126
102279,note_on,,,,,1,0,0,,,4,,,62,127
102279,note_on,,,,,0,0,0,,,4,,,50,127
102287,note_off,,,,,8,0,0,,,4,,,55,64
102288,note_off,,,,,1,0,0,,,2,,,67,64
102323,note_off,,,,,35,0,0,,,1,,,86,64
102324,note_on,,,,,1,0,0,,,1,,,86,126
102369,note_off,,,,,45,0,0,,,1,,,79,64
102371,note_on,,,,,2,0,0,,,1,,,79,126
102414,note_off,,,,,43,0,0,,,1,,,86,64
102416,note_on,,,,,2,0,0,,,1,,,86,126
102460,note_off,,,,,44,0,0,,,1,,,79,64
102462,note_on,,,,,2,0,0,,,4,,,59,127
102462,note_on,,,,,0,0,0,,,1,,,79,126
102463,note_on,,,,,1,0,0,,,4,,,47,127
102470,note_off,,,,,7,0,0,,,4,,,50,64
102471,note_off,,,,,1,0,0,,,4,,,62,64
102506,note_off,,,,,35,0,0,,,1,,,86,64
102510,note_on,,,,,4,0,0,,,1,,,86,126
102554,note_off,,,,,44,0,0,,,1,,,79,64
102556,note_on,,,,,2,0,0,,,1,,,79,126
102601,note_off,,,,,45,0,0,,,1,,,86,64
102603,note_on,,,,,2,0,0,,,1,,,86,126
102647,note_off,,,,,44,0,0,,,1,,,79,64
102649,note_on,,,,,2,0,0,,,2,,,74,127
102649,note_on,,,,,0,0,0,,,1,,,80,126
102650,note_on,,,,,1,0,0,,,4,,,46,127
102650,note_on,,,,,0,0,0,,,4,,,58,126
102657,note_off,,,,,7,0,0,,,4,,,59,64
102657,note_off,,,,,0,0,0,,,4,,,47,64
102692,note_off,,,,,35,0,0,,,1,,,86,64
102696,note_on,,,,,4,0,0,,,1,,,86,126
102738,note_off,,,,,42,0,0,,,2,,,74,64
102739,note_off,,,,,1,0,0,,,1,,,80,64
102741,note_on,,,,,2,0,0,,,1,,,80,126
102742,note_on,,,,,1,0,0,,,2,,,74,127
102786,note_off,,,,,44,0,0,,,1,,,86,64
102788,note_on,,,,,2,0,0,,,1,,,86,126
102834,note_off,,,,,46,0,0,,,2,,,74,64
102835,note_off,,,,,1,0,0,,,1,,,80,64
102835,note_on,,,,,0,0,0,,,1,,,80,126
102836,note_on,,,,,1,0,0,,,4,,,65,126
102836,note_on,,,,,0,0,0,,,2,,,74,127
102837,note_on,,,,,1,0,0,,,4,,,53,127
102843,note_off,,,,,6,0,0,,,4,,,46,64
102844,note_off,,,,,1,0,0,,,4,,,58,64
102880,note_off,,,,,36,0,0,,,1,,,86,64
102884,note_on,,,,,4,0,0,,,1,,,86,126
102928,note_off,,,,,44,0,0,,,2,,,74,64
102929,note_off,,,,,1,0,0,,,1,,,80,64
102931,note_on,,,,,2,0,0,,,1,,,80,126
102932,note_on,,,,,1,0,0,,,2,,,74,127
102974,note_off,,,,,42,0,0,,,1,,,86,64
102977,note_on,,,,,3,0,0,,,1,,,86,126
103020,note_off,,,,,43,0,0,,,2,,,74,64
103021,note_off,,,,,1,0,0,,,1,,,80,64
103023,note_on,,,,,2,0,0,,,1,,,80,126
103024,note_on,,,,,1,0,0,,,4,,,62,127
103024,note_on,,,,,0,0,0,,,2,,,74,127
103025,note_on,,,,,1,0,0,,,4,,,50,127
103031,note_off,,,,,6,0,0,,,4,,,53,64
103032,note_off,,,,,1,0,0,,,4,,,65,64
103068,note_off,,,,,36,0,0,,,1,,,86,64
103070,note_on,,,,,2,0,0,,,1,,,86,126
103116,note_off,,,,,46,0,0,,,2,,,74,64
103117,note_off,,,,,1,0,0,,,1,,,80,64
103119,note_on,,,,,2,0,0,,,1,,,80,126
103120,note_on,,,,,1,0,0,,,2,,,74,127
103163,note_off,,,,,43,0,0,,,1,,,86,64
103166,note_on,,,,,3,0,0,,,1,,,86,126
103211,note_off,,,,,45,0,0,,,1,,,80,64
103211,note_off,,,,,0,0,0,,,2,,,74,64
103214,note_on,,,,,3,0,0,,,1,,,80,126
103214,note_on,,,,,0,0,0,,,2,,,74,127
103215,note_on,,,,,1,0,0,,,4,,,58,126
103215,note_on,,,,,0,0,0,,,4,,,46,127
103222,note_off,,,,,7,0,0,,,4,,,62,64
103222,note_off,,,,,0,0,0,,,4,,,50,64
103260,note_off,,,,,38,0,0,,,1,,,86,64
103263,note_on,,,,,3,0,0,,,1,,,86,126
103308,note_off,,,,,45,0,0,,,2,,,74,64
103309,note_off,,,,,1,0,0,,,1,,,80,64
103310,note_on,,,,,1,0,0,,,1,,,80,126
103310,note_on,,,,,0,0,0,,,2,,,74,127
103355,note_off,,,,,45,0,0,,,1,,,86,64
103357,note_on,,,,,2,0,0,,,1,,,86,122
103397,note_off,,,,,40,0,0,,,4,,,58,64
103399,note_off,,,,,2,0,0,,,1,,,86,64
103399,note_off,,,,,0,0,0,,,2,,,74,64
103400,note_off,,,,,1,0,0,,,1,,,80,64
103406,note_on,,,,,6,0,0,,,4,,,57,127
103420,note_on,,,,,14,0,0,,,2,,,76,127
103424,note_off,,,,,4,0,0,,,4,,,46,64
103431,note_on,,,,,7,0,0,,,1,,,81,127
103443,note_on,,,,,12,0,0,,,1,,,85,127
103461,note_on,,,,,18,0,0,,,2,,,69,126
103505,note_on,,,,,44,0,0,,,2,,,68,126
103512,note_off,,,,,7,0,0,,,2,,,69,64
103551,note_on,,,,,39,0,0,,,2,,,69,126
103559,note_off,,,,,8,0,0,,,2,,,68,64
103595,note_on,,,,,36,0,0,,,2,,,71,127
103603,note_off,,,,,8,0,0,,,2,,,69,64
103641,note_on,,,,,38,0,0,,,2,,,69,126
103647,note_off,,,,,6,0,0,,,2,,,71,64
103666,note_off,,,,,19,0,0,,,2,,,76,64
103675,note_off,,,,,9,0,0,,,1,,,81,64
103683,note_off,,,,,8,0,0,,,1,,,85,64
103684,note_on,,,,,1,0,0,,,1,,,81,118
103684,note_on,,,,,0,0,0,,,4,,,66,126
103727,note_off,,,,,43,0,0,,,2,,,69,64
103728,note_on,,,,,1,0,0,,,2,,,69,126
103773,note_on,,,,,45,0,0,,,1,,,79,114
103773,note_on,,,,,0,0,0,,,4,,,64,124
103779,note_off,,,,,6,0,0,,,4,,,66,64
103780,note_off,,,,,1,0,0,,,1,,,81,64
103812,note_off,,,,,32,0,0,,,2,,,69,64
103815,note_on,,,,,3,0,0,,,2,,,69,126
103857,note_on,,,,,42,0,0,,,1,,,78,114
103858,note_on,,,,,1,0,0,,,4,,,62,127
103864,note_off,,,,,6,0,0,,,4,,,64,64
103864,note_off,,,,,0,0,0,,,1,,,79,64
103897,note_off,,,,,33,0,0,,,2,,,69,64
103899,note_on,,,,,2,0,0,,,2,,,69,126
103944,note_on,,,,,45,0,0,,,2,,,76,117
103944,note_on,,,,,0,0,0,,,4,,,61,127
103950,note_off,,,,,6,0,0,,,4,,,62,64
103951,note_off,,,,,1,0,0,,,1,,,78,64
103984,note_off,,,,,33,0,0,,,2,,,69,64
103986,note_on,,,,,2,0,0,,,2,,,69,126
104028,note_on,,,,,42,0,0,,,2,,,74,117
104028,note_on,,,,,0,0,0,,,4,,,59,127
104035,note_off,,,,,7,0,0,,,4,,,61,64
104035,note_off,,,,,0,0,0,,,2,,,76,64
104070,note_off,,,,,35,0,0,,,2,,,69,64
104072,note_on,,,,,2,0,0,,,2,,,69,126
104076,note_off,,,,,4,0,0,,,4,,,57,64
104118,note_on,,,,,42,0,0,,,2,,,73,117
104119,note_on,,,,,1,0,0,,,4,,,57,127
104125,note_off,,,,,6,0,0,,,4,,,59,64
104125,note_off,,,,,0,0,0,,,2,,,74,64
104160,note_off,,,,,35,0,0,,,2,,,69,64
104162,note_on,,,,,2,0,0,,,2,,,69,126
104205,note_on,,,,,43,0,0,,,2,,,74,117
104205,note_on,,,,,0,0,0,,,4,,,59,127
104211,note_off,,,,,6,0,0,,,4,,,57,64
104212,note_off,,,,,1,0,0,,,2,,,73,64
104245,note_off,,,,,33,0,0,,,2,,,69,64
104249,note_on,,,,,4,0,0,,,2,,,69,126
104293,note_on,,,,,44,0,0,,,2,,,76,117
104293,note_on,,,,,0,0,0,,,4,,,61,127
104300,note_off,,,,,7,0,0,,,4,,,59,64
104300,note_off,,,,,0,0,0,,,2,,,74,64
104333,note_off,,,,,33,0,0,,,2,,,69,64
104335,note_on,,,,,2,0,0,,,2,,,69,126
104377,note_on,,,,,42,0,0,,,1,,,78,114
104378,note_on,,,,,1,0,0,,,4,,,62,127
104386,note_off,,,,,8,0,0,,,4,,,61,64
104387,note_off,,,,,1,0,0,,,2,,,76,64
104420,note_off,,,,,33,0,0,,,2,,,69,64
104422,note_on,,,,,2,0,0,,,2,,,69,126
104464,note_on,,,,,42,0,0,,,1,,,81,114
104464,note_on,,,,,0,0,0,,,4,,,64,124
104472,note_off,,,,,8,0,0,,,4,,,62,64
104473,note_off,,,,,1,0,0,,,1,,,78,64
104506,note_off,,,,,33,0,0,,,2,,,69,64
104508,note_on,,,,,2,0,0,,,1,,,79,114
104508,note_on,,,,,0,0,0,,,2,,,69,126
104515,note_off,,,,,7,0,0,,,1,,,81,64
104549,note_on,,,,,34,0,0,,,1,,,78,114
104550,note_on,,,,,1,0,0,,,4,,,61,127
104556,note_off,,,,,6,0,0,,,1,,,79,64
104556,note_off,,,,,0,0,0,,,4,,,64,64
104588,note_off,,,,,32,0,0,,,2,,,69,64
104588,note_on,,,,,0,0,0,,,2,,,76,117
104589,note_on,,,,,1,0,0,,,2,,,69,126
104595,note_off,,,,,6,0,0,,,1,,,78,64
104630,note_on,,,,,35,0,0,,,4,,,62,127
104630,note_on,,,,,0,0,0,,,1,,,79,114
104637,note_off,,,,,7,0,0,,,2,,,76,64
104637,note_off,,,,,0,0,0,,,4,,,61,64
104672,note_off,,,,,35,0,0,,,2,,,69,64
104674,note_on,,,,,2,0,0,,,1,,,78,114
104675,note_on,,,,,1,0,0,,,2,,,69,126
104681,note_off,,,,,6,0,0,,,1,,,79,64
104715,note_on,,,,,34,0,0,,,2,,,76,121
104716,note_on,,,,,1,0,0,,,4,,,59,127
104720,note_off,,,,,4,0,0,,,1,,,78,64
104721,note_off,,,,,1,0,0,,,4,,,62,64
104754,note_off,,,,,33,0,0,,,2,,,69,64
104756,note_on,,,,,2,0,0,,,2,,,74,121
104756,note_on,,,,,0,0,0,,,2,,,69,126
104764,note_off,,,,,8,0,0,,,2,,,76,64
104797,note_off,,,,,33,0,0,,,2,,,69,64
104798,note_off,,,,,1,0,0,,,2,,,74,64
104798,note_on,,,,,0,0,0,,,2,,,73,127
104799,note_on,,,,,1,0,0,,,4,,,57,127
104814,note_off,,,,,15,0,0,,,4,,,59,64
104824,note_on,,,,,10,0,0,,,2,,,76,127
104834,note_on,,,,,10,0,0,,,1,,,81,124
104856,note_on,,,,,22,0,0,,,2,,,69,126
104900,note_on,,,,,44,0,0,,,2,,,68,126
104907,note_off,,,,,7,0,0,,,2,,,69,64
104944,note_on,,,,,37,0,0,,,2,,,69,126
104950,note_off,,,,,6,0,0,,,2,,,68,64
104986,note_on,,,,,36,0,0,,,2,,,71,127
104994,note_off,,,,,8,0,0,,,2,,,69,64
105030,note_on,,,,,36,0,0,,,2,,,69,126
105038,note_off,,,,,8,0,0,,,2,,,71,64
105044,note_off,,,,,6,0,0,,,2,,,73,64
105057,note_off,,,,,13,0,0,,,2,,,76,64
105065,note_off,,,,,8,0,0,,,1,,,81,64
105072,note_on,,,,,7,0,0,,,1,,,81,114
105073,note_on,,,,,1,0,0,,,4,,,66,126
105081,note_off,,,,,8,0,0,,,2,,,69,64
105118,note_on,,,,,37,0,0,,,2,,,69,126
105158,note_off,,,,,40,0,0,,,1,,,81,64
105160,note_on,,,,,2,0,0,,,1,,,79,114
105160,note_on,,,,,0,0,0,,,4,,,64,124
105167,note_off,,,,,7,0,0,,,4,,,66,64
105198,note_off,,,,,31,0,0,,,2,,,69,64
105202,note_on,,,,,4,0,0,,,2,,,69,126
105244,note_on,,,,,42,0,0,,,1,,,78,114
105245,note_on,,,,,1,0,0,,,4,,,62,127
105252,note_off,,,,,7,0,0,,,4,,,64,64
105252,note_off,,,,,0,0,0,,,1,,,79,64
105287,note_off,,,,,35,0,0,,,2,,,69,64
105288,note_on,,,,,1,0,0,,,2,,,69,126
105331,note_on,,,,,43,0,0,,,4,,,61,127
105331,note_on,,,,,0,0,0,,,2,,,76,117
105339,note_off,,,,,8,0,0,,,4,,,62,64
105340,note_off,,,,,1,0,0,,,1,,,78,64
105373,note_off,,,,,33,0,0,,,2,,,69,64
105373,note_on,,,,,0,0,0,,,2,,,69,126
105418,note_on,,,,,45,0,0,,,2,,,74,117
105418,note_on,,,,,0,0,0,,,4,,,59,127
105424,note_off,,,,,6,0,0,,,4,,,61,64
105425,note_off,,,,,1,0,0,,,2,,,76,64
105459,note_off,,,,,34,0,0,,,2,,,69,64
105461,note_off,,,,,2,0,0,,,4,,,57,64
105462,note_on,,,,,1,0,0,,,2,,,69,126
105505,note_on,,,,,43,0,0,,,2,,,73,117
105505,note_on,,,,,0,0,0,,,4,,,57,127
105512,note_off,,,,,7,0,0,,,4,,,59,64
105512,note_off,,,,,0,0,0,,,2,,,74,64
105547,note_off,,,,,35,0,0,,,2,,,69,64
105549,note_on,,,,,2,0,0,,,2,,,69,126
105593,note_on,,,,,44,0,0,,,2,,,74,117
105594,note_on,,,,,1,0,0,,,4,,,59,127
105600,note_off,,,,,6,0,0,,,4,,,57,64
105600,note_off,,,,,0,0,0,,,2,,,73,64
105634,note_off,,,,,34,0,0,,,2,,,69,64
105636,note_on,,,,,2,0,0,,,2,,,69,126
105681,note_on,,,,,45,0,0,,,2,,,76,117
105681,note_on,,,,,0,0,0,,,4,,,61,127
105687,note_off,,,,,6,0,0,,,4,,,59,64
105688,note_off,,,,,1,0,0,,,2,,,74,64
105721,note_off,,,,,33,0,0,,,2,,,69,64
105723,note_on,,,,,2,0,0,,,2,,,69,126
105767,note_on,,,,,44,0,0,,,1,,,78,114
105768,note_on,,,,,1,0,0,,,4,,,62,127
105774,note_off,,,,,6,0,0,,,4,,,61,64
105774,note_off,,,,,0,0,0,,,2,,,76,64
105807,note_off,,,,,33,0,0,,,2,,,69,64
105809,note_on,,,,,2,0,0,,,2,,,69,126
105852,note_on,,,,,43,0,0,,,1,,,81,114
105852,note_on,,,,,0,0,0,,,4,,,64,124
105858,note_off,,,,,6,0,0,,,4,,,62,64
105859,note_off,,,,,1,0,0,,,1,,,78,64
105891,note_off,,,,,32,0,0,,,2,,,69,64
105894,note_on,,,,,3,0,0,,,1,,,79,114
105894,note_on,,,,,0,0,0,,,2,,,69,126
105902,note_off,,,,,8,0,0,,,1,,,81,64
105937,note_on,,,,,35,0,0,,,1,,,78,114
105937,note_on,,,,,0,0,0,,,4,,,61,127
105944,note_off,,,,,7,0,0,,,1,,,79,64
105944,note_off,,,,,0,0,0,,,4,,,64,64
105975,note_off,,,,,31,0,0,,,2,,,69,64
105977,note_on,,,,,2,0,0,,,2,,,76,117
105977,note_on,,,,,0,0,0,,,2,,,69,126
105984,note_off,,,,,7,0,0,,,1,,,78,64
106020,note_on,,,,,36,0,0,,,4,,,62,127
106020,note_on,,,,,0,0,0,,,1,,,79,114
106026,note_off,,,,,6,0,0,,,2,,,76,64
106027,note_off,,,,,1,0,0,,,4,,,61,64
106061,note_off,,,,,34,0,0,,,2,,,69,64
106064,note_on,,,,,3,0,0,,,2,,,69,126
106064,note_on,,,,,0,0,0,,,1,,,78,114
106070,note_off,,,,,6,0,0,,,1,,,79,64
106105,note_on,,,,,35,0,0,,,2,,,76,117
106105,note_on,,,,,0,0,0,,,4,,,59,127
106112,note_off,,,,,7,0,0,,,4,,,62,64
106112,note_off,,,,,0,0,0,,,1,,,78,64
106147,note_off,,,,,35,0,0,,,2,,,69,64
106149,note_on,,,,,2,0,0,,,2,,,74,117
106150,note_on,,,,,1,0,0,,,2,,,69,126
106156,note_off,,,,,6,0,0,,,2,,,76,64
106190,note_off,,,,,34,0,0,,,2,,,69,64
106191,note_off,,,,,1,0,0,,,2,,,74,64
106191,note_off,,,,,0,0,0,,,4,,,59,64
106192,note_on,,,,,1,0,0,,,4,,,57,127
106192,note_on,,,,,0,0,0,,,2,,,73,127
106219,note_on,,,,,27,0,0,,,2,,,76,127
106231,note_on,,,,,12,0,0,,,1,,,81,127
106363,note_off,,,,,132,0,0,,,4,,,57,64
106364,note_off,,,,,1,0,0,,,2,,,73,64
106374,note_off,,,,,10,0,0,,,2,,,76,64
106378,note_on,,,,,4,0,0,,,2,,,76,124
106378,note_on,,,,,0,0,0,,,4,,,64,124
106379,note_on,,,,,1,0,0,,,4,,,61,127
106379,note_on,,,,,0,0,0,,,4,,,57,127
106383,note_off,,,,,4,0,0,,,1,,,81,64
106426,note_on,,,,,43,0,0,,,2,,,73,124
106431,note_off,,,,,5,0,0,,,2,,,76,64
106468,note_on,,,,,37,0,0,,,2,,,76,124
106476,note_off,,,,,8,0,0,,,2,,,73,64
106516,note_on,,,,,40,0,0,,,2,,,73,124
106524,note_off,,,,,8,0,0,,,2,,,76,64
106554,note_off,,,,,30,0,0,,,4,,,64,64
106555,note_off,,,,,1,0,0,,,4,,,57,64
106555,note_off,,,,,0,0,0,,,4,,,61,64
106561,note_on,,,,,6,0,0,,,4,,,64,124
106561,note_on,,,,,0,0,0,,,2,,,69,126
106562,note_on,,,,,1,0,0,,,4,,,57,127
106562,note_on,,,,,0,0,0,,,4,,,61,127
106569,note_off,,,,,7,0,0,,,2,,,73,64
106916,note_off,,,,,347,0,0,,,2,,,69,64
106917,note_on,,,,,1,0,0,,,2,,,69,127
107025,note_off,,,,,108,0,0,,,2,,,69,64
107028,note_on,,,,,3,0,0,,,2,,,74,127
107124,note_off,,,,,96,0,0,,,2,,,74,64
107125,note_on,,,,,1,0,0,,,2,,,73,127
107172,note_off,,,,,47,0,0,,,4,,,64,64
107216,note_off,,,,,44,0,0,,,2,,,73,64
107216,note_on,,,,,0,0,0,,,2,,,76,127
107307,note_off,,,,,91,0,0,,,2,,,76,64
107308,note_on,,,,,1,0,0,,,2,,,74,127
107398,note_off,,,,,90,0,0,,,2,,,74,64
107399,note_off,,,,,1,0,0,,,4,,,61,64
107399,note_on,,,,,0,0,0,,,2,,,73,127
107489,note_off,,,,,90,0,0,,,2,,,73,64
107490,note_on,,,,,1,0,0,,,2,,,71,127
107584,note_off,,,,,94,0,0,,,2,,,71,64
107585,note_on,,,,,1,0,0,,,2,,,73,121
107585,note_on,,,,,0,0,0,,,4,,,64,124
107586,note_off,,,,,1,0,0,,,4,,,57,64
107586,note_on,,,,,0,0,0,,,4,,,61,127
107613,note_on,,,,,27,0,0,,,2,,,71,120
107623,note_off,,,,,10,0,0,,,2,,,73,64
107640,note_on,,,,,17,0,0,,,2,,,73,121
107650,note_off,,,,,10,0,0,,,2,,,71,64
107667,note_on,,,,,17,0,0,,,2,,,71,120
107676,note_off,,,,,9,0,0,,,2,,,73,64
107684,note_off,,,,,8,0,0,,,4,,,61,64
107685,note_off,,,,,1,0,0,,,4,,,64,64
107691,note_on,,,,,6,0,0,,,4,,,64,124
107691,note_on,,,,,0,0,0,,,2,,,69,122
107692,note_on,,,,,1,0,0,,,4,,,61,127
107715,note_off,,,,,23,0,0,,,2,,,71,64
107776,note_off,,,,,61,0,0,,,2,,,69,64
107780,note_off,,,,,4,0,0,,,4,,,61,64
107781,note_off,,,,,1,0,0,,,4,,,64,64
107789,note_on,,,,,8,0,0,,,2,,,69,122
107790,note_on,,,,,1,0,0,,,4,,,64,124
107790,note_on,,,,,0,0,0,,,4,,,61,127
107879,note_off,,,,,89,0,0,,,4,,,61,64
107879,note_off,,,,,0,0,0,,,4,,,64,64
107887,note_on,,,,,8,0,0,,,4,,,64,124
107888,note_on,,,,,1,0,0,,,4,,,61,127
107976,note_off,,,,,88,0,0,,,4,,,61,64
107977,note_off,,,,,1,0,0,,,4,,,64,64
107985,note_on,,,,,8,0,0,,,4,,,61,127
107985,note_on,,,,,0,0,0,,,4,,,64,124
108020,note_off,,,,,35,0,0,,,2,,,69,64
108057,note_on,,,,,37,0,0,,,2,,,71,127
108074,note_off,,,,,17,0,0,,,4,,,64,64
108074,note_off,,,,,0,0,0,,,4,,,61,64
108079,note_off,,,,,5,0,0,,,2,,,71,64
108083,note_on,,,,,4,0,0,,,2,,,71,127
108084,note_on,,,,,1,0,0,,,4,,,64,124
108084,note_on,,,,,0,0,0,,,4,,,61,127
108103,note_off,,,,,19,0,0,,,2,,,71,64
108107,note_on,,,,,4,0,0,,,2,,,69,125
108126,note_off,,,,,19,0,0,,,2,,,69,64
108130,note_on,,,,,4,0,0,,,2,,,68,125
108168,note_off,,,,,38,0,0,,,2,,,68,64
108170,note_off,,,,,2,0,0,,,4,,,61,64
108171,note_off,,,,,1,0,0,,,4,,,64,64
108179,note_on,,,,,8,0,0,,,2,,,69,127
108180,note_on,,,,,1,0,0,,,4,,,64,124
108180,note_on,,,,,0,0,0,,,4,,,61,127
108266,note_off,,,,,86,0,0,,,4,,,61,64
108267,note_off,,,,,1,0,0,,,4,,,64,64
108273,note_on,,,,,6,0,0,,,2,,,71,127
108273,note_on,,,,,0,0,0,,,4,,,64,124
108274,note_on,,,,,1,0,0,,,4,,,61,127
108289,note_off,,,,,15,0,0,,,2,,,69,64
108368,note_on,,,,,79,0,0,,,2,,,69,127
108369,note_on,,,,,1,0,0,,,4,,,62,127
108369,note_on,,,,,0,0,0,,,4,,,59,127
108377,note_off,,,,,8,0,0,,,4,,,61,64
108377,note_off,,,,,0,0,0,,,4,,,64,64
108378,note_off,,,,,1,0,0,,,2,,,71,64
108458,note_off,,,,,80,0,0,,,4,,,59,64
108458,note_off,,,,,0,0,0,,,4,,,62,64
108463,note_off,,,,,5,0,0,,,2,,,69,64
108465,note_on,,,,,2,0,0,,,2,,,67,127
108466,note_on,,,,,1,0,0,,,4,,,62,127
108466,note_on,,,,,0,0,0,,,4,,,59,127
108554,note_off,,,,,88,0,0,,,4,,,59,64
108555,note_off,,,,,1,0,0,,,4,,,62,64
108563,note_on,,,,,8,0,0,,,4,,,62,127
108563,note_on,,,,,0,0,0,,,4,,,59,127
108650,note_off,,,,,87,0,0,,,4,,,59,64
108651,note_off,,,,,1,0,0,,,4,,,62,64
108657,note_on,,,,,6,0,0,,,2,,,71,127
108658,note_on,,,,,1,0,0,,,4,,,62,127
108658,note_on,,,,,0,0,0,,,4,,,59,127
108659,note_off,,,,,1,0,0,,,2,,,67,64
108747,note_off,,,,,88,0,0,,,4,,,59,64
108747,note_off,,,,,0,0,0,,,4,,,62,64
108754,note_on,,,,,7,0,0,,,2,,,67,127
108755,note_on,,,,,1,0,0,,,4,,,61,127
108755,note_on,,,,,0,0,0,,,4,,,57,127
108763,note_off,,,,,8,0,0,,,2,,,71,64
108838,note_off,,,,,75,0,0,,,4,,,57,64
108838,note_off,,,,,0,0,0,,,4,,,61,64
108845,note_on,,,,,7,0,0,,,4,,,66,127
108846,note_on,,,,,1,0,0,,,4,,,61,127
108846,note_on,,,,,0,0,0,,,4,,,57,127
108847,note_off,,,,,1,0,0,,,2,,,67,64
108936,note_off,,,,,89,0,0,,,4,,,57,64
108936,note_off,,,,,0,0,0,,,4,,,61,64
108942,note_on,,,,,6,0,0,,,4,,,61,127
108943,note_on,,,,,1,0,0,,,4,,,57,127
109028,note_off,,,,,85,0,0,,,4,,,66,64
109033,note_off,,,,,5,0,0,,,4,,,57,64
109034,note_off,,,,,1,0,0,,,4,,,61,64
109040,note_on,,,,,6,0,0,,,2,,,69,127
109041,note_on,,,,,1,0,0,,,4,,,61,127
109041,note_on,,,,,0,0,0,,,4,,,57,127
109129,note_off,,,,,88,0,0,,,4,,,57,64
109130,note_off,,,,,1,0,0,,,4,,,61,64
109136,note_on,,,,,6,0,0,,,4,,,66,127
109138,note_on,,,,,2,0,0,,,4,,,59,127
109139,note_on,,,,,1,0,0,,,4,,,55,127
109145,note_off,,,,,6,0,0,,,2,,,69,64
109187,note_off,,,,,42,0,0,,,4,,,66,64
109188,note_on,,,,,1,0,0,,,4,,,64,124
109226,note_off,,,,,38,0,0,,,4,,,55,64
109227,note_off,,,,,1,0,0,,,4,,,59,64
109233,note_off,,,,,6,0,0,,,4,,,64,64
109234,note_on,,,,,1,0,0,,,2,,,67,126
109234,note_on,,,,,0,0,0,,,4,,,59,127
109235,note_on,,,,,1,0,0,,,4,,,55,127
109283,note_off,,,,,48,0,0,,,2,,,67,64
109284,note_on,,,,,1,0,0,,,4,,,66,126
109320,note_off,,,,,36,0,0,,,4,,,55,64
109321,note_off,,,,,1,0,0,,,4,,,59,64
109327,note_off,,,,,6,0,0,,,4,,,66,64
109328,note_on,,,,,1,0,0,,,2,,,69,126
109328,note_on,,,,,0,0,0,,,4,,,59,127
109329,note_on,,,,,1,0,0,,,4,,,55,127
109373,note_off,,,,,44,0,0,,,2,,,69,64
109374,note_on,,,,,1,0,0,,,2,,,67,126
109413,note_off,,,,,39,0,0,,,4,,,55,64
109414,note_off,,,,,1,0,0,,,4,,,59,64
109419,note_off,,,,,5,0,0,,,2,,,67,64
109420,note_on,,,,,1,0,0,,,4,,,66,126
109420,note_on,,,,,0,0,0,,,4,,,59,127
109421,note_on,,,,,1,0,0,,,4,,,55,127
109467,note_off,,,,,46,0,0,,,4,,,66,64
109468,note_on,,,,,1,0,0,,,4,,,64,124
109507,note_off,,,,,39,0,0,,,4,,,59,64
109507,note_off,,,,,0,0,0,,,4,,,55,64
109515,note_off,,,,,8,0,0,,,4,,,64,64
109516,note_on,,,,,1,0,0,,,4,,,57,127
109516,note_on,,,,,0,0,0,,,4,,,62,127
109517,note_on,,,,,1,0,0,,,4,,,54,127
109561,note_off,,,,,44,0,0,,,4,,,62,64
109562,note_on,,,,,1,0,0,,,4,,,64,124
109608,note_off,,,,,46,0,0,,,4,,,64,64
109609,note_on,,,,,1,0,0,,,4,,,62,127
109654,note_off,,,,,45,0,0,,,4,,,62,64
109654,note_on,,,,,0,0,0,,,4,,,61,127
109701,note_off,,,,,47,0,0,,,4,,,61,64
109701,note_on,,,,,0,0,0,,,4,,,62,127
109750,note_off,,,,,49,0,0,,,4,,,62,64
109750,note_on,,,,,0,0,0,,,4,,,64,124
109799,note_off,,,,,49,0,0,,,4,,,64,64
109799,note_on,,,,,0,0,0,,,3,,,66,126
109848,note_off,,,,,49,0,0,,,3,,,66,64
109848,note_on,,,,,0,0,0,,,3,,,67,126
109895,note_off,,,,,47,0,0,,,3,,,67,64
109896,note_on,,,,,1,0,0,,,3,,,68,126
109940,note_off,,,,,44,0,0,,,3,,,68,64
109941,note_on,,,,,1,0,0,,,3,,,69,126
109986,note_off,,,,,45,0,0,,,3,,,69,64
109986,note_on,,,,,0,0,0,,,3,,,71,123
110031,note_off,,,,,45,0,0,,,3,,,71,64
110031,note_on,,,,,0,0,0,,,3,,,69,122
110075,note_off,,,,,44,0,0,,,3,,,69,64
110075,note_on,,,,,0,0,0,,,3,,,73,123
110119,note_off,,,,,44,0,0,,,3,,,73,64
110120,note_on,,,,,1,0,0,,,3,,,71,123
110162,note_off,,,,,42,0,0,,,3,,,71,64
110163,note_on,,,,,1,0,0,,,3,,,74,123
110208,note_off,,,,,45,0,0,,,3,,,74,64
110208,note_on,,,,,0,0,0,,,3,,,73,123
110249,note_off,,,,,41,0,0,,,3,,,73,64
110250,note_on,,,,,1,0,0,,,3,,,76,123
110294,note_off,,,,,44,0,0,,,3,,,76,64
110294,note_on,,,,,0,0,0,,,3,,,74,123
110336,note_off,,,,,42,0,0,,,3,,,74,64
110336,note_on,,,,,0,0,0,,,3,,,78,122
110379,note_off,,,,,43,0,0,,,3,,,78,64
110379,note_on,,,,,0,0,0,,,3,,,76,123
110422,note_off,,,,,43,0,0,,,3,,,76,64
110423,note_on,,,,,1,0,0,,,3,,,79,122
110467,note_off,,,,,44,0,0,,,3,,,79,64
110468,note_on,,,,,1,0,0,,,3,,,78,118
110510,note_off,,,,,42,0,0,,,3,,,78,64
110511,note_on,,,,,1,0,0,,,1,,,81,118
110556,note_off,,,,,45,0,0,,,1,,,81,64
110556,note_on,,,,,0,0,0,,,3,,,79,118
110604,note_off,,,,,48,0,0,,,3,,,79,64
110605,note_on,,,,,1,0,0,,,1,,,80,118
110650,note_off,,,,,45,0,0,,,1,,,80,64
110650,note_on,,,,,0,0,0,,,1,,,81,118
110697,note_off,,,,,47,0,0,,,1,,,81,64
110697,note_on,,,,,0,0,0,,,1,,,83,118
110744,note_off,,,,,47,0,0,,,1,,,83,64
110744,note_on,,,,,0,0,0,,,1,,,81,118
110787,note_off,,,,,43,0,0,,,1,,,81,64
110787,note_on,,,,,0,0,0,,,1,,,85,122
110832,note_off,,,,,45,0,0,,,1,,,85,64
110832,note_on,,,,,0,0,0,,,1,,,83,122
110877,note_off,,,,,45,0,0,,,1,,,83,64
110878,note_on,,,,,1,0,0,,,1,,,86,126
110922,note_off,,,,,44,0,0,,,1,,,86,64
110923,note_on,,,,,1,0,0,,,1,,,85,126
110965,note_off,,,,,42,0,0,,,1,,,85,64
110966,note_on,,,,,1,0,0,,,1,,,88,123
111057,note_off,,,,,91,0,0,,,1,,,88,64
111057,note_on,,,,,0,0,0,,,1,,,86,122
111148,note_off,,,,,91,0,0,,,1,,,86,64
111148,note_on,,,,,0,0,0,,,1,,,85,122
111241,note_off,,,,,93,0,0,,,1,,,85,64
111241,note_on,,,,,0,0,0,,,1,,,83,114
111255,note_off,,,,,14,0,0,,,4,,,54,64
111256,note_off,,,,,1,0,0,,,4,,,57,64
111331,note_off,,,,,75,0,0,,,1,,,83,64
111332,note_on,,,,,1,0,0,,,1,,,80,114
111332,note_on,,,,,0,0,0,,,3,,,76,112
111333,note_on,,,,,1,0,0,,,3,,,73,112
111419,note_off,,,,,86,0,0,,,3,,,76,64
111419,note_off,,,,,0,0,0,,,3,,,73,64
111426,note_on,,,,,7,0,0,,,1,,,83,110
111426,note_on,,,,,0,0,0,,,3,,,76,112
111427,note_on,,,,,1,0,0,,,3,,,73,112
111431,note_off,,,,,4,0,0,,,1,,,80,64
111473,note_on,,,,,42,0,0,,,1,,,81,110
111479,note_off,,,,,6,0,0,,,1,,,83,64
111514,note_off,,,,,35,0,0,,,1,,,81,64
111514,note_off,,,,,0,0,0,,,3,,,73,64
111515,note_off,,,,,1,0,0,,,3,,,76,64
111523,note_on,,,,,8,0,0,,,1,,,81,110
111523,note_on,,,,,0,0,0,,,3,,,76,112
111523,note_on,,,,,0,0,0,,,3,,,73,112
111609,note_off,,,,,86,0,0,,,3,,,73,64
111609,note_off,,,,,0,0,0,,,3,,,76,64
111617,note_on,,,,,8,0,0,,,3,,,76,112
111618,note_on,,,,,1,0,0,,,3,,,73,112
111703,note_off,,,,,85,0,0,,,3,,,73,64
111703,note_off,,,,,0,0,0,,,3,,,76,64
111711,note_on,,,,,8,0,0,,,3,,,76,112
111712,note_on,,,,,1,0,0,,,3,,,73,112
111756,note_off,,,,,44,0,0,,,1,,,81,64
111758,note_on,,,,,2,0,0,,,1,,,83,110
111797,note_off,,,,,39,0,0,,,3,,,73,64
111797,note_off,,,,,0,0,0,,,3,,,76,64
111805,note_on,,,,,8,0,0,,,1,,,81,110
111806,note_on,,,,,1,0,0,,,3,,,76,112
111806,note_on,,,,,0,0,0,,,3,,,73,112
111812,note_off,,,,,6,0,0,,,1,,,83,64
111852,note_on,,,,,40,0,0,,,1,,,80,110
111856,note_off,,,,,4,0,0,,,1,,,81,64
111893,note_off,,,,,37,0,0,,,3,,,73,64
111893,note_off,,,,,0,0,0,,,3,,,76,64
111900,note_on,,,,,7,0,0,,,1,,,81,110
111900,note_on,,,,,0,0,0,,,3,,,76,112
111900,note_on,,,,,0,0,0,,,3,,,73,112
111907,note_off,,,,,7,0,0,,,1,,,80,64
111988,note_off,,,,,81,0,0,,,3,,,73,64
111988,note_off,,,,,0,0,0,,,3,,,76,64
111989,note_off,,,,,1,0,0,,,1,,,81,64
111995,note_on,,,,,6,0,0,,,1,,,81,110
111995,note_on,,,,,0,0,0,,,3,,,76,112
111996,note_on,,,,,1,0,0,,,3,,,73,112
112082,note_off,,,,,86,0,0,,,3,,,76,64
112082,note_off,,,,,0,0,0,,,3,,,73,64
112089,note_on,,,,,7,0,0,,,3,,,74,112
112089,note_on,,,,,0,0,0,,,3,,,71,111
112174,note_off,,,,,85,0,0,,,3,,,71,64
112175,note_off,,,,,1,0,0,,,3,,,74,64
112183,note_on,,,,,8,0,0,,,1,,,78,118
112183,note_on,,,,,0,0,0,,,3,,,74,112
112184,note_on,,,,,1,0,0,,,3,,,71,111
112188,note_off,,,,,4,0,0,,,1,,,81,64
112268,note_off,,,,,80,0,0,,,3,,,71,64
112269,note_off,,,,,1,0,0,,,3,,,74,64
112275,note_on,,,,,6,0,0,,,3,,,74,112
112275,note_on,,,,,0,0,0,,,3,,,71,111
112362,note_off,,,,,87,0,0,,,3,,,71,64
112363,note_off,,,,,1,0,0,,,3,,,74,64
112371,note_on,,,,,8,0,0,,,1,,,79,114
112371,note_on,,,,,0,0,0,,,3,,,74,112
112372,note_on,,,,,1,0,0,,,3,,,71,111
112374,note_off,,,,,2,0,0,,,1,,,78,64
112456,note_off,,,,,82,0,0,,,3,,,71,64
112457,note_off,,,,,1,0,0,,,3,,,74,64
112465,note_on,,,,,8,0,0,,,3,,,73,112
112465,note_on,,,,,0,0,0,,,3,,,69,109
112550,note_off,,,,,85,0,0,,,3,,,69,64
112551,note_off,,,,,1,0,0,,,3,,,73,64
112559,note_on,,,,,8,0,0,,,2,,,77,119
112560,note_on,,,,,1,0,0,,,3,,,73,112
112560,note_on,,,,,0,0,0,,,3,,,69,109
112563,note_off,,,,,3,0,0,,,1,,,79,64
112645,note_off,,,,,82,0,0,,,3,,,69,64
112646,note_off,,,,,1,0,0,,,3,,,73,64
112654,note_on,,,,,8,0,0,,,3,,,73,112
112655,note_on,,,,,1,0,0,,,3,,,69,109
112740,note_off,,,,,85,0,0,,,3,,,69,64
112740,note_off,,,,,0,0,0,,,3,,,73,64
112749,note_on,,,,,9,0,0,,,3,,,69,109
112749,note_on,,,,,0,0,0,,,3,,,73,112
112749,note_on,,,,,0,0,0,,,1,,,78,118
112751,note_off,,,,,2,0,0,,,2,,,77,64
112834,note_off,,,,,83,0,0,,,3,,,69,64
112835,note_off,,,,,1,0,0,,,3,,,73,64
112843,note_on,,,,,8,0,0,,,3,,,71,111
112843,note_on,,,,,0,0,0,,,3,,,67,113
112924,note_off,,,,,81,0,0,,,3,,,67,64
112925,note_off,,,,,1,0,0,,,3,,,71,64
112933,note_on,,,,,8,0,0,,,2,,,75,119
112933,note_on,,,,,0,0,0,,,3,,,71,111
112934,note_on,,,,,1,0,0,,,3,,,67,113
112935,note_off,,,,,1,0,0,,,1,,,78,64
113015,note_off,,,,,80,0,0,,,3,,,67,64
113015,note_off,,,,,0,0,0,,,3,,,71,64
113021,note_on,,,,,6,0,0,,,3,,,71,111
113022,note_on,,,,,1,0,0,,,3,,,67,113
113107,note_off,,,,,85,0,0,,,3,,,71,64
113107,note_off,,,,,0,0,0,,,3,,,67,64
113113,note_on,,,,,6,0,0,,,2,,,76,119
113114,note_on,,,,,1,0,0,,,3,,,71,111
113114,note_on,,,,,0,0,0,,,3,,,67,113
113118,note_off,,,,,4,0,0,,,2,,,75,64
113197,note_off,,,,,79,0,0,,,3,,,67,64
113197,note_off,,,,,0,0,0,,,3,,,71,64
113206,note_on,,,,,9,0,0,,,3,,,66,117
113206,note_on,,,,,0,0,0,,,3,,,69,109
113251,note_off,,,,,45,0,0,,,2,,,76,64
113251,note_on,,,,,0,0,0,,,2,,,73,119
113296,note_on,,,,,45,0,0,,,2,,,76,123
113304,note_off,,,,,8,0,0,,,2,,,73,64
113341,note_on,,,,,37,0,0,,,2,,,74,123
113347,note_off,,,,,6,0,0,,,2,,,76,64
113381,note_on,,,,,34,0,0,,,1,,,83,122
113389,note_off,,,,,8,0,0,,,2,,,74,64
113425,note_on,,,,,36,0,0,,,1,,,81,122
113433,note_off,,,,,8,0,0,,,1,,,83,64
113470,note_on,,,,,37,0,0,,,1,,,79,126
113477,note_off,,,,,7,0,0,,,1,,,81,64
113516,note_on,,,,,39,0,0,,,1,,,78,126
113523,note_off,,,,,7,0,0,,,1,,,79,64
113564,note_off,,,,,41,0,0,,,3,,,69,64
113564,note_off,,,,,0,0,0,,,3,,,66,64
113565,note_on,,,,,1,0,0,,,2,,,76,127
113565,note_on,,,,,0,0,0,,,4,,,55,127
113566,note_on,,,,,1,0,0,,,4,,,43,127
113571,note_off,,,,,5,0,0,,,1,,,78,64
113610,note_on,,,,,39,0,0,,,1,,,86,126
113656,note_on,,,,,46,0,0,,,4,,,54,127
113656,note_on,,,,,0,0,0,,,2,,,75,127
113657,note_on,,,,,1,0,0,,,4,,,42,127
113664,note_off,,,,,7,0,0,,,2,,,76,64
113666,note_off,,,,,2,0,0,,,4,,,43,64
113667,note_off,,,,,1,0,0,,,4,,,55,64
113702,note_off,,,,,35,0,0,,,1,,,86,64
113704,note_on,,,,,2,0,0,,,1,,,86,126
113750,note_on,,,,,46,0,0,,,4,,,55,127
113750,note_on,,,,,0,0,0,,,2,,,76,127
113751,note_on,,,,,1,0,0,,,4,,,43,127
113759,note_off,,,,,8,0,0,,,2,,,75,64
113760,note_off,,,,,1,0,0,,,4,,,42,64
113761,note_off,,,,,1,0,0,,,4,,,54,64
113794,note_off,,,,,33,0,0,,,1,,,86,64
113798,note_on,,,,,4,0,0,,,1,,,86,126
113844,note_on,,,,,46,0,0,,,2,,,75,127
113844,note_on,,,,,0,0,0,,,4,,,54,127
113845,note_on,,,,,1,0,0,,,4,,,42,127
113852,note_off,,,,,7,0,0,,,2,,,76,64
113854,note_off,,,,,2,0,0,,,4,,,55,64
113854,note_off,,,,,0,0,0,,,4,,,43,64
113887,note_off,,,,,33,0,0,,,1,,,86,64
113889,note_on,,,,,2,0,0,,,1,,,86,126
113935,note_on,,,,,46,0,0,,,2,,,76,127
113936,note_on,,,,,1,0,0,,,4,,,43,127
113936,note_on,,,,,0,0,0,,,4,,,55,127
113944,note_off,,,,,8,0,0,,,2,,,75,64
113946,note_off,,,,,2,0,0,,,4,,,42,64
113946,note_off,,,,,0,0,0,,,4,,,54,64
113979,note_off,,,,,33,0,0,,,1,,,86,64
113981,note_on,,,,,2,0,0,,,1,,,79,126
113989,note_off,,,,,8,0,0,,,2,,,76,64
114025,note_on,,,,,36,0,0,,,1,,,83,122
114033,note_off,,,,,8,0,0,,,1,,,79,64
114070,note_on,,,,,37,0,0,,,1,,,81,122
114077,note_off,,,,,7,0,0,,,1,,,83,64
114114,note_on,,,,,37,0,0,,,1,,,84,122
114121,note_off,,,,,7,0,0,,,1,,,81,64
114158,note_on,,,,,37,0,0,,,1,,,83,122
114164,note_off,,,,,6,0,0,,,1,,,84,64
114200,note_on,,,,,36,0,0,,,1,,,81,122
114208,note_off,,,,,8,0,0,,,1,,,83,64
114242,note_on,,,,,34,0,0,,,1,,,79,126
114250,note_off,,,,,8,0,0,,,1,,,81,64
114281,note_off,,,,,31,0,0,,,4,,,55,64
114281,note_off,,,,,0,0,0,,,4,,,43,64
114288,note_on,,,,,7,0,0,,,1,,,78,126
114288,note_on,,,,,0,0,0,,,4,,,57,127
114288,note_on,,,,,0,0,0,,,4,,,45,127
114296,note_off,,,,,8,0,0,,,1,,,79,64
114335,note_on,,,,,39,0,0,,,1,,,86,126
114381,note_on,,,,,46,0,0,,,4,,,56,127
114381,note_on,,,,,0,0,0,,,2,,,77,127
114382,note_on,,,,,1,0,0,,,4,,,44,127
114389,note_off,,,,,7,0,0,,,1,,,78,64
114391,note_off,,,,,2,0,0,,,4,,,45,64
114392,note_off,,,,,1,0,0,,,4,,,57,64
114425,note_off,,,,,33,0,0,,,1,,,86,64
114429,note_on,,,,,4,0,0,,,1,,,86,126
114475,note_on,,,,,46,0,0,,,4,,,57,127
114475,note_on,,,,,0,0,0,,,1,,,78,126
114476,note_on,,,,,1,0,0,,,4,,,45,127
114482,note_off,,,,,6,0,0,,,2,,,77,64
114484,note_off,,,,,2,0,0,,,4,,,44,64
114485,note_off,,,,,1,0,0,,,4,,,56,64
114520,note_off,,,,,35,0,0,,,1,,,86,64
114522,note_on,,,,,2,0,0,,,1,,,86,126
114568,note_on,,,,,46,0,0,,,2,,,77,127
114568,note_on,,,,,0,0,0,,,4,,,56,127
114569,note_on,,,,,1,0,0,,,4,,,44,127
114576,note_off,,,,,7,0,0,,,1,,,78,64
114578,note_off,,,,,2,0,0,,,4,,,45,64
114579,note_off,,,,,1,0,0,,,4,,,57,64
114612,note_off,,,,,33,0,0,,,1,,,86,64
114614,note_on,,,,,2,0,0,,,1,,,86,126
114660,note_on,,,,,46,0,0,,,4,,,57,127
114660,note_on,,,,,0,0,0,,,1,,,78,126
114661,note_on,,,,,1,0,0,,,4,,,45,127
114669,note_off,,,,,8,0,0,,,2,,,77,64
114671,note_off,,,,,2,0,0,,,4,,,44,64
114671,note_off,,,,,0,0,0,,,4,,,56,64
114704,note_off,,,,,33,0,0,,,1,,,86,64
114706,note_on,,,,,2,0,0,,,1,,,81,122
114714,note_off,,,,,8,0,0,,,1,,,78,64
114751,note_on,,,,,37,0,0,,,1,,,84,122
114758,note_off,,,,,7,0,0,,,1,,,81,64
114795,note_on,,,,,37,0,0,,,1,,,83,122
114803,note_off,,,,,8,0,0,,,1,,,84,64
114840,note_on,,,,,37,0,0,,,1,,,86,126
114846,note_off,,,,,6,0,0,,,1,,,83,64
114883,note_on,,,,,37,0,0,,,1,,,84,122
114890,note_off,,,,,7,0,0,,,1,,,86,64
114927,note_on,,,,,37,0,0,,,1,,,83,122
114935,note_off,,,,,8,0,0,,,1,,,84,64
114973,note_on,,,,,38,0,0,,,1,,,81,122
114981,note_off,,,,,8,0,0,,,1,,,83,64
115012,note_off,,,,,31,0,0,,,4,,,57,64
115012,note_off,,,,,0,0,0,,,4,,,45,64
115019,note_on,,,,,7,0,0,,,1,,,79,126
115019,note_on,,,,,0,0,0,,,4,,,59,126
115020,note_on,,,,,1,0,0,,,4,,,47,127
115026,note_off,,,,,6,0,0,,,1,,,81,64
115067,note_on,,,,,41,0,0,,,1,,,86,126
115113,note_on,,,,,46,0,0,,,4,,,58,122
115113,note_on,,,,,0,0,0,,,1,,,78,126
115114,note_on,,,,,1,0,0,,,4,,,46,127
115121,note_off,,,,,7,0,0,,,1,,,79,64
115122,note_off,,,,,1,0,0,,,4,,,47,64
115122,note_off,,,,,0,0,0,,,4,,,59,64
115157,note_off,,,,,35,0,0,,,1,,,86,64
115160,note_on,,,,,3,0,0,,,1,,,86,126
115205,note_on,,,,,45,0,0,,,1,,,79,126
115206,note_on,,,,,1,0,0,,,4,,,59,126
115207,note_on,,,,,1,0,0,,,4,,,47,127
115214,note_off,,,,,7,0,0,,,1,,,78,64
115216,note_off,,,,,2,0,0,,,4,,,58,64
115216,note_off,,,,,0,0,0,,,4,,,46,64
115249,note_off,,,,,33,0,0,,,1,,,86,64
115254,note_on,,,,,5,0,0,,,1,,,86,126
115300,note_on,,,,,46,0,0,,,1,,,78,126
115300,note_on,,,,,0,0,0,,,4,,,58,122
115301,note_on,,,,,1,0,0,,,4,,,46,127
115307,note_off,,,,,6,0,0,,,1,,,79,64
115310,note_off,,,,,3,0,0,,,4,,,47,64
115310,note_off,,,,,0,0,0,,,4,,,59,64
115342,note_off,,,,,32,0,0,,,1,,,86,64
115346,note_on,,,,,4,0,0,,,1,,,86,126
115390,note_on,,,,,44,0,0,,,1,,,79,126
115391,note_on,,,,,1,0,0,,,4,,,47,127
115391,note_on,,,,,0,0,0,,,4,,,59,126
115399,note_off,,,,,8,0,0,,,1,,,78,64
115400,note_off,,,,,1,0,0,,,4,,,46,64
115401,note_off,,,,,1,0,0,,,4,,,58,64
115432,note_off,,,,,31,0,0,,,1,,,86,64
115436,note_on,,,,,4,0,0,,,1,,,83,122
115441,note_off,,,,,5,0,0,,,1,,,79,64
115478,note_on,,,,,37,0,0,,,1,,,86,126
115486,note_off,,,,,8,0,0,,,1,,,83,64
115523,note_on,,,,,37,0,0,,,1,,,85,126
115528,note_off,,,,,5,0,0,,,1,,,86,64
115567,note_on,,,,,39,0,0,,,1,,,86,126
115574,note_off,,,,,7,0,0,,,1,,,85,64
115609,note_on,,,,,35,0,0,,,1,,,85,126
115617,note_off,,,,,8,0,0,,,1,,,86,64
115655,note_on,,,,,38,0,0,,,1,,,83,122
115663,note_off,,,,,8,0,0,,,1,,,85,64
115701,note_on,,,,,38,0,0,,,1,,,81,122
115709,note_off,,,,,8,0,0,,,1,,,83,64
115730,note_off,,,,,21,0,0,,,4,,,59,64
115738,note_off,,,,,8,0,0,,,4,,,47,64
115745,note_on,,,,,7,0,0,,,1,,,80,122
115746,note_on,,,,,1,0,0,,,4,,,47,127
115746,note_on,,,,,0,0,0,,,4,,,58,105
115753,note_off,,,,,7,0,0,,,1,,,81,64
115789,note_on,,,,,36,0,0,,,4,,,62,116
115834,note_off,,,,,45,0,0,,,4,,,58,64
115834,note_on,,,,,0,0,0,,,2,,,74,127
115835,note_on,,,,,1,0,0,,,4,,,65,113
115841,note_off,,,,,6,0,0,,,1,,,80,64
115878,note_off,,,,,37,0,0,,,4,,,62,64
115878,note_on,,,,,0,0,0,,,2,,,68,117
115923,note_off,,,,,45,0,0,,,4,,,65,64
115923,note_on,,,,,0,0,0,,,4,,,58,117
115966,note_on,,,,,43,0,0,,,4,,,62,120
115987,note_off,,,,,21,0,0,,,2,,,68,64
116010,note_off,,,,,23,0,0,,,4,,,58,64
116011,note_off,,,,,1,0,0,,,2,,,74,64
116011,note_on,,,,,0,0,0,,,2,,,77,127
116012,note_on,,,,,1,0,0,,,4,,,65,117
116052,note_off,,,,,40,0,0,,,4,,,62,64
116053,note_on,,,,,1,0,0,,,2,,,68,117
116098,note_on,,,,,45,0,0,,,4,,,58,117
116121,note_off,,,,,23,0,0,,,4,,,65,64
116142,note_on,,,,,21,0,0,,,4,,,62,120
116163,note_off,,,,,21,0,0,,,2,,,68,64
116186,note_on,,,,,23,0,0,,,2,,,76,127
116186,note_on,,,,,0,0,0,,,4,,,65,117
116189,note_off,,,,,3,0,0,,,2,,,77,64
116208,note_off,,,,,19,0,0,,,4,,,58,64
116231,note_on,,,,,23,0,0,,,2,,,68,117
116252,note_off,,,,,21,0,0,,,4,,,62,64
116277,note_on,,,,,25,0,0,,,4,,,58,117
116298,note_off,,,,,21,0,0,,,4,,,65,64
116321,note_on,,,,,23,0,0,,,4,,,62,120
116344,note_off,,,,,23,0,0,,,2,,,68,64
116365,note_off,,,,,21,0,0,,,2,,,76,64
116366,note_on,,,,,1,0,0,,,4,,,65,121
116366,note_on,,,,,0,0,0,,,2,,,74,127
116388,note_off,,,,,22,0,0,,,4,,,58,64
116411,note_on,,,,,23,0,0,,,2,,,68,121
116418,note_off,,,,,7,0,0,,,4,,,65,64
116434,note_off,,,,,16,0,0,,,4,,,62,64
116455,note_off,,,,,21,0,0,,,2,,,68,64
116457,note_off,,,,,2,0,0,,,2,,,74,64
116457,note_on,,,,,0,0,0,,,2,,,73,127
116459,note_on,,,,,2,0,0,,,2,,,69,121
116459,note_on,,,,,0,0,0,,,4,,,57,123
116545,note_off,,,,,86,0,0,,,4,,,57,64
116551,note_on,,,,,6,0,0,,,4,,,57,123
116635,note_off,,,,,84,0,0,,,4,,,57,64
116645,note_on,,,,,10,0,0,,,4,,,61,115
116645,note_on,,,,,0,0,0,,,4,,,57,123
116667,note_off,,,,,22,0,0,,,2,,,73,64
116669,note_off,,,,,2,0,0,,,2,,,69,64
116728,note_off,,,,,59,0,0,,,4,,,57,64
116729,note_off,,,,,1,0,0,,,4,,,61,64
116737,note_on,,,,,8,0,0,,,2,,,69,127
116737,note_on,,,,,0,0,0,,,4,,,61,115
116738,note_on,,,,,1,0,0,,,4,,,57,123
116822,note_off,,,,,84,0,0,,,4,,,57,64
116823,note_off,,,,,1,0,0,,,4,,,61,64
116823,note_off,,,,,0,0,0,,,2,,,69,64
116829,note_on,,,,,6,0,0,,,2,,,70,127
116830,note_on,,,,,1,0,0,,,4,,,63,116
116830,note_on,,,,,0,0,0,,,4,,,66,127
116831,note_on,,,,,1,0,0,,,4,,,57,123
116892,note_off,,,,,61,0,0,,,4,,,47,64
116916,note_off,,,,,24,0,0,,,4,,,63,64
116916,note_off,,,,,0,0,0,,,4,,,57,64
116918,note_off,,,,,2,0,0,,,2,,,70,64
116922,note_on,,,,,4,0,0,,,2,,,71,127
116923,note_on,,,,,1,0,0,,,4,,,63,116
116923,note_on,,,,,0,0,0,,,4,,,57,123
117004,note_off,,,,,81,0,0,,,4,,,66,64
117008,note_off,,,,,4,0,0,,,4,,,57,64
117008,note_off,,,,,0,0,0,,,4,,,63,64
117016,note_on,,,,,8,0,0,,,2,,,67,127
117017,note_on,,,,,1,0,0,,,4,,,64,115
117017,note_on,,,,,0,0,0,,,4,,,57,123
117092,note_off,,,,,75,0,0,,,2,,,71,64
117100,note_off,,,,,8,0,0,,,4,,,57,64
117100,note_off,,,,,0,0,0,,,4,,,64,64
117108,note_on,,,,,8,0,0,,,2,,,71,127
117109,note_on,,,,,1,0,0,,,4,,,57,126
117109,note_on,,,,,0,0,0,,,4,,,64,115
117189,note_off,,,,,80,0,0,,,2,,,71,64
117193,note_off,,,,,4,0,0,,,4,,,57,64
117194,note_off,,,,,1,0,0,,,2,,,67,64
117194,note_off,,,,,0,0,0,,,4,,,64,64
117203,note_on,,,,,9,0,0,,,2,,,68,127
117203,note_on,,,,,0,0,0,,,4,,,61,118
117204,note_on,,,,,1,0,0,,,4,,,57,126
117288,note_off,,,,,84,0,0,,,4,,,57,64
117288,note_off,,,,,0,0,0,,,4,,,61,64
117293,note_off,,,,,5,0,0,,,2,,,68,64
117295,note_on,,,,,2,0,0,,,2,,,69,127
117296,note_on,,,,,1,0,0,,,4,,,57,126
117296,note_on,,,,,0,0,0,,,4,,,61,118
117379,note_off,,,,,83,0,0,,,4,,,61,64
117379,note_off,,,,,0,0,0,,,4,,,57,64
117387,note_on,,,,,8,0,0,,,4,,,66,127
117387,note_on,,,,,0,0,0,,,4,,,62,120
117388,note_on,,,,,1,0,0,,,4,,,57,126
117471,note_off,,,,,83,0,0,,,4,,,57,64
117471,note_off,,,,,0,0,0,,,4,,,62,64
117472,note_off,,,,,1,0,0,,,2,,,69,64
117479,note_on,,,,,7,0,0,,,2,,,69,127
117479,note_on,,,,,0,0,0,,,4,,,62,120
117480,note_on,,,,,1,0,0,,,4,,,57,126
117566,note_off,,,,,86,0,0,,,4,,,57,64
117566,note_off,,,,,0,0,0,,,4,,,62,64
117568,note_off,,,,,2,0,0,,,2,,,69,64
117575,note_on,,,,,7,0,0,,,4,,,59,118
117575,note_on,,,,,0,0,0,,,2,,,74,127
117576,note_on,,,,,1,0,0,,,4,,,57,126
117658,note_off,,,,,82,0,0,,,4,,,57,64
117659,note_off,,,,,1,0,0,,,4,,,59,64
117662,note_off,,,,,3,0,0,,,4,,,66,64
117667,note_on,,,,,5,0,0,,,2,,,67,127
117667,note_on,,,,,0,0,0,,,4,,,59,118
117668,note_on,,,,,1,0,0,,,4,,,57,126
117690,note_off,,,,,22,0,0,,,2,,,74,64
117753,note_off,,,,,63,0,0,,,4,,,57,64
117753,note_off,,,,,0,0,0,,,4,,,59,64
117760,note_on,,,,,7,0,0,,,4,,,61,118
117760,note_on,,,,,0,0,0,,,4,,,64,115
117761,note_on,,,,,1,0,0,,,4,,,57,126
117845,note_off,,,,,84,0,0,,,2,,,67,64
117846,note_off,,,,,1,0,0,,,4,,,61,64
117846,note_off,,,,,0,0,0,,,4,,,57,64
117847,note_off,,,,,1,0,0,,,4,,,64,64
117853,note_on,,,,,6,0,0,,,2,,,67,127
117853,note_on,,,,,0,0,0,,,4,,,61,118
117854,note_on,,,,,1,0,0,,,4,,,57,126
117937,note_off,,,,,83,0,0,,,4,,,57,64
117938,note_off,,,,,1,0,0,,,4,,,61,64
117944,note_on,,,,,6,0,0,,,4,,,65,127
117945,note_on,,,,,1,0,0,,,4,,,62,120
117945,note_on,,,,,0,0,0,,,4,,,57,126
117946,note_off,,,,,1,0,0,,,2,,,67,64
118032,note_off,,,,,86,0,0,,,4,,,57,64
118032,note_off,,,,,0,0,0,,,4,,,62,64
118037,note_off,,,,,5,0,0,,,4,,,65,64
118039,note_on,,,,,2,0,0,,,4,,,66,127
118040,note_on,,,,,1,0,0,,,4,,,57,126
118040,note_on,,,,,0,0,0,,,4,,,62,120
118125,note_off,,,,,85,0,0,,,4,,,62,64
118125,note_off,,,,,0,0,0,,,4,,,57,64
118129,note_off,,,,,4,0,0,,,4,,,66,64
118133,note_on,,,,,4,0,0,,,4,,,66,127
118134,note_on,,,,,1,0,0,,,4,,,57,126
118219,note_off,,,,,85,0,0,,,4,,,57,64
118224,note_off,,,,,5,0,0,,,4,,,66,64
118226,note_on,,,,,2,0,0,,,1,,,81,126
118227,note_on,,,,,1,0,0,,,4,,,66,127
118227,note_on,,,,,0,0,0,,,4,,,57,126
118312,note_off,,,,,85,0,0,,,4,,,57,64
118318,note_off,,,,,6,0,0,,,4,,,66,64
118320,note_off,,,,,2,0,0,,,1,,,81,64
118320,note_on,,,,,0,0,0,,,2,,,67,127
118320,note_on,,,,,0,0,0,,,1,,,83,126
118321,note_on,,,,,1,0,0,,,4,,,57,127
118368,note_on,,,,,47,0,0,,,1,,,85,126
118375,note_off,,,,,7,0,0,,,1,,,83,64
118414,note_on,,,,,39,0,0,,,1,,,86,126
118421,note_off,,,,,7,0,0,,,1,,,85,64
118460,note_on,,,,,39,0,0,,,1,,,85,126
118467,note_off,,,,,7,0,0,,,1,,,86,64
118504,note_on,,,,,37,0,0,,,1,,,88,127
118512,note_off,,,,,8,0,0,,,1,,,85,64
118549,note_on,,,,,37,0,0,,,1,,,86,126
118557,note_off,,,,,8,0,0,,,1,,,88,64
118593,note_on,,,,,36,0,0,,,1,,,85,126
118601,note_off,,,,,8,0,0,,,1,,,86,64
118637,note_on,,,,,36,0,0,,,1,,,83,126
118645,note_off,,,,,8,0,0,,,1,,,85,64
118674,note_off,,,,,29,0,0,,,2,,,67,64
118681,note_on,,,,,7,0,0,,,1,,,81,126
118682,note_on,,,,,1,0,0,,,4,,,66,126
118690,note_off,,,,,8,0,0,,,1,,,83,64
118727,note_on,,,,,37,0,0,,,1,,,85,126
118734,note_off,,,,,7,0,0,,,1,,,81,64
118773,note_on,,,,,39,0,0,,,1,,,86,126
118780,note_off,,,,,7,0,0,,,1,,,85,64
118819,note_on,,,,,39,0,0,,,1,,,85,126
118826,note_off,,,,,7,0,0,,,1,,,86,64
118863,note_on,,,,,37,0,0,,,4,,,62,127
118863,note_on,,,,,0,0,0,,,1,,,86,126
118866,note_off,,,,,3,0,0,,,4,,,66,64
118872,note_off,,,,,6,0,0,,,1,,,85,64
118908,note_on,,,,,36,0,0,,,1,,,81,126
118916,note_off,,,,,8,0,0,,,1,,,86,64
118954,note_on,,,,,38,0,0,,,1,,,83,126
118962,note_off,,,,,8,0,0,,,1,,,81,64
118998,note_on,,,,,36,0,0,,,1,,,78,126
119006,note_off,,,,,8,0,0,,,1,,,83,64
119042,note_on,,,,,36,0,0,,,1,,,79,126
119043,note_on,,,,,1,0,0,,,4,,,64,124
119049,note_off,,,,,6,0,0,,,4,,,62,64
119050,note_off,,,,,1,0,0,,,1,,,78,64
119088,note_on,,,,,38,0,0,,,1,,,81,126
119095,note_off,,,,,7,0,0,,,1,,,79,64
119132,note_on,,,,,37,0,0,,,1,,,83,126
119137,note_off,,,,,5,0,0,,,1,,,81,64
119176,note_on,,,,,39,0,0,,,1,,,81,126
119184,note_off,,,,,8,0,0,,,1,,,83,64
119220,note_on,,,,,36,0,0,,,4,,,61,127
119220,note_on,,,,,0,0,0,,,1,,,85,126
119221,note_off,,,,,1,0,0,,,4,,,64,64
119227,note_off,,,,,6,0,0,,,1,,,81,64
119263,note_on,,,,,36,0,0,,,1,,,83,126
119271,note_off,,,,,8,0,0,,,1,,,85,64
119309,note_on,,,,,38,0,0,,,1,,,81,126
119317,note_off,,,,,8,0,0,,,1,,,83,64
119353,note_on,,,,,36,0,0,,,1,,,79,126
119361,note_off,,,,,8,0,0,,,1,,,81,64
119400,note_on,,,,,39,0,0,,,1,,,78,126
119407,note_off,,,,,7,0,0,,,1,,,79,64
119444,note_on,,,,,37,0,0,,,1,,,81,126
119452,note_off,,,,,8,0,0,,,1,,,78,64
119488,note_on,,,,,36,0,0,,,1,,,86,126
119496,note_off,,,,,8,0,0,,,1,,,81,64
119534,note_on,,,,,38,0,0,,,1,,,85,126
119542,note_off,,,,,8,0,0,,,1,,,86,64
119579,note_off,,,,,37,0,0,,,4,,,61,64
119579,note_on,,,,,0,0,0,,,1,,,86,126
119587,note_off,,,,,8,0,0,,,1,,,85,64
119624,note_on,,,,,37,0,0,,,1,,,81,126
119669,note_on,,,,,45,0,0,,,1,,,78,126
119670,note_on,,,,,1,0,0,,,4,,,38,127
119670,note_on,,,,,0,0,0,,,4,,,50,127
119715,note_on,,,,,45,0,0,,,2,,,74,125
119755,note_off,,,,,40,0,0,,,1,,,86,64
119761,note_off,,,,,6,0,0,,,4,,,50,64
119761,note_off,,,,,0,0,0,,,4,,,38,64
119762,note_on,,,,,1,0,0,,,1,,,86,126
119762,note_on,,,,,0,0,0,,,4,,,54,127
119762,note_on,,,,,0,0,0,,,4,,,42,127
119801,note_off,,,,,39,0,0,,,1,,,81,64
119805,note_on,,,,,4,0,0,,,1,,,81,126
119820,note_off,,,,,15,0,0,,,4,,,57,64
119845,note_off,,,,,25,0,0,,,1,,,78,64
119849,note_off,,,,,4,0,0,,,4,,,42,64
119850,note_off,,,,,1,0,0,,,4,,,54,64
119850,note_on,,,,,0,0,0,,,1,,,78,126
119851,note_on,,,,,1,0,0,,,4,,,57,127
119851,note_on,,,,,0,0,0,,,4,,,45,127
119888,note_off,,,,,37,0,0,,,2,,,74,64
119895,note_on,,,,,7,0,0,,,2,,,74,125
119936,note_off,,,,,41,0,0,,,1,,,86,64
119940,note_off,,,,,4,0,0,,,4,,,45,64
119940,note_off,,,,,0,0,0,,,4,,,57,64
119940,note_on,,,,,0,0,0,,,1,,,86,126
119941,note_on,,,,,1,0,0,,,4,,,50,127
119941,note_on,,,,,0,0,0,,,4,,,62,125
119979,note_off,,,,,38,0,0,,,1,,,81,64
119984,note_on,,,,,5,0,0,,,1,,,81,126
120024,note_off,,,,,40,0,0,,,1,,,78,64
120030,note_on,,,,,6,0,0,,,1,,,78,126
120066,note_off,,,,,36,0,0,,,2,,,74,64
120074,note_on,,,,,8,0,0,,,2,,,74,125
120082,note_off,,,,,8,0,0,,,1,,,78,64
120110,note_off,,,,,28,0,0,,,1,,,81,64
120114,note_off,,,,,4,0,0,,,1,,,86,64
120118,note_on,,,,,4,0,0,,,1,,,83,126
120164,note_on,,,,,46,0,0,,,1,,,85,126
120170,note_off,,,,,6,0,0,,,1,,,83,64
120206,note_on,,,,,36,0,0,,,1,,,86,126
120214,note_off,,,,,8,0,0,,,1,,,85,64
120252,note_on,,,,,38,0,0,,,1,,,85,126
120259,note_off,,,,,7,0,0,,,1,,,86,64
120298,note_off,,,,,39,0,0,,,4,,,62,64
120298,note_on,,,,,0,0,0,,,1,,,86,126
120299,note_off,,,,,1,0,0,,,4,,,50,64
120305,note_off,,,,,6,0,0,,,1,,,85,64
120343,note_on,,,,,38,0,0,,,1,,,83,126
120387,note_on,,,,,44,0,0,,,1,,,79,126
120387,note_on,,,,,0,0,0,,,4,,,55,127
120388,note_on,,,,,1,0,0,,,4,,,43,127
120426,note_off,,,,,38,0,0,,,2,,,74,64
120434,note_on,,,,,8,0,0,,,2,,,74,125
120474,note_off,,,,,40,0,0,,,1,,,86,64
120478,note_off,,,,,4,0,0,,,4,,,43,64
120479,note_off,,,,,1,0,0,,,4,,,55,64
120479,note_on,,,,,0,0,0,,,1,,,86,126
120480,note_on,,,,,1,0,0,,,4,,,59,126
120480,note_on,,,,,0,0,0,,,4,,,47,127
120519,note_off,,,,,39,0,0,,,1,,,83,64
120523,note_on,,,,,4,0,0,,,1,,,83,126
120564,note_off,,,,,41,0,0,,,1,,,79,64
120567,note_off,,,,,3,0,0,,,4,,,47,64
120568,note_off,,,,,1,0,0,,,4,,,59,64
120568,note_on,,,,,0,0,0,,,1,,,79,126
120569,note_on,,,,,1,0,0,,,4,,,62,125
120569,note_on,,,,,0,0,0,,,4,,,50,127
120604,note_off,,,,,35,0,0,,,2,,,74,64
120612,note_on,,,,,8,0,0,,,2,,,74,125
120652,note_off,,,,,40,0,0,,,1,,,86,64
120656,note_off,,,,,4,0,0,,,4,,,50,64
120656,note_off,,,,,0,0,0,,,4,,,62,64
120657,note_on,,,,,1,0,0,,,2,,,67,122
120657,note_on,,,,,0,0,0,,,1,,,86,126
120658,note_on,,,,,1,0,0,,,4,,,55,127
120696,note_off,,,,,38,0,0,,,1,,,83,64
120702,note_on,,,,,6,0,0,,,1,,,83,126
120740,note_off,,,,,38,0,0,,,1,,,79,64
120746,note_on,,,,,6,0,0,,,1,,,79,126
120782,note_off,,,,,36,0,0,,,2,,,74,64
120790,note_on,,,,,8,0,0,,,2,,,74,124
120828,note_off,,,,,38,0,0,,,4,,,55,64
120829,note_off,,,,,1,0,0,,,1,,,86,64
120834,note_off,,,,,5,0,0,,,1,,,83,64
120835,note_on,,,,,1,0,0,,,1,,,78,121
120835,note_on,,,,,0,0,0,,,1,,,81,121
120836,note_on,,,,,1,0,0,,,4,,,57,127
120836,note_on,,,,,0,0,0,,,4,,,45,127
120842,note_off,,,,,6,0,0,,,1,,,79,64
120919,note_off,,,,,77,0,0,,,4,,,45,64
120919,note_off,,,,,0,0,0,,,4,,,57,64
120925,note_on,,,,,6,0,0,,,4,,,57,127
120926,note_on,,,,,1,0,0,,,4,,,45,127
120976,note_off,,,,,50,0,0,,,1,,,78,64
120977,note_off,,,,,1,0,0,,,1,,,81,64
120977,note_on,,,,,0,0,0,,,1,,,83,108
120978,note_on,,,,,1,0,0,,,1,,,79,108
121003,note_off,,,,,25,0,0,,,1,,,79,64
121015,note_on,,,,,12,0,0,,,1,,,79,108
121015,note_on,,,,,0,0,0,,,2,,,76,111
121021,note_off,,,,,6,0,0,,,1,,,83,64
121022,note_off,,,,,1,0,0,,,2,,,74,64
121028,note_off,,,,,6,0,0,,,2,,,67,64
121030,note_off,,,,,2,0,0,,,4,,,45,64
121031,note_off,,,,,1,0,0,,,4,,,57,64
121037,note_off,,,,,6,0,0,,,1,,,79,64
121037,note_on,,,,,0,0,0,,,1,,,78,108
121038,note_on,,,,,1,0,0,,,2,,,74,121
121038,note_on,,,,,0,0,0,,,4,,,57,127
121039,note_on,,,,,1,0,0,,,4,,,45,127
121044,note_off,,,,,5,0,0,,,2,,,76,64
121117,note_off,,,,,73,0,0,,,4,,,45,64
121118,note_off,,,,,1,0,0,,,4,,,57,64
121126,note_on,,,,,8,0,0,,,4,,,57,127
121127,note_on,,,,,1,0,0,,,4,,,45,127
121210,note_off,,,,,83,0,0,,,4,,,57,64
121210,note_off,,,,,0,0,0,,,4,,,45,64
121218,note_on,,,,,8,0,0,,,4,,,57,127
121219,note_on,,,,,1,0,0,,,4,,,45,127
121279,note_off,,,,,60,0,0,,,1,,,78,64
121279,note_off,,,,,0,0,0,,,2,,,74,64
121301,note_off,,,,,22,0,0,,,4,,,45,64
121301,note_off,,,,,0,0,0,,,4,,,57,64
121308,note_on,,,,,7,0,0,,,1,,,81,126
121309,note_on,,,,,1,0,0,,,1,,,78,126
121309,note_on,,,,,0,0,0,,,4,,,57,127
121310,note_on,,,,,1,0,0,,,4,,,45,127
121397,note_off,,,,,87,0,0,,,4,,,45,64
121397,note_off,,,,,0,0,0,,,4,,,57,64
121405,note_off,,,,,8,0,0,,,1,,,78,64
121406,note_off,,,,,1,0,0,,,1,,,81,64
121406,note_on,,,,,0,0,0,,,1,,,79,126
121407,note_on,,,,,1,0,0,,,4,,,57,127
121407,note_on,,,,,0,0,0,,,2,,,76,127
121408,note_on,,,,,1,0,0,,,4,,,45,127
121495,note_off,,,,,87,0,0,,,4,,,57,64
121495,note_off,,,,,0,0,0,,,4,,,45,64
121503,note_off,,,,,8,0,0,,,2,,,76,64
121504,note_off,,,,,1,0,0,,,1,,,79,64
121504,note_on,,,,,0,0,0,,,2,,,76,127
121505,note_on,,,,,1,0,0,,,4,,,57,127
121505,note_on,,,,,0,0,0,,,2,,,73,127
121506,note_on,,,,,1,0,0,,,4,,,45,127
121596,note_off,,,,,90,0,0,,,2,,,76,64
121597,note_on,,,,,1,0,0,,,1,,,78,126
121642,note_on,,,,,45,0,0,,,1,,,81,126
121649,note_off,,,,,7,0,0,,,1,,,78,64
121686,note_on,,,,,37,0,0,,,1,,,86,126
121693,note_off,,,,,7,0,0,,,1,,,81,64
121732,note_on,,,,,39,0,0,,,1,,,85,126
121740,note_off,,,,,8,0,0,,,1,,,86,64
121777,note_on,,,,,37,0,0,,,1,,,86,126
121785,note_off,,,,,8,0,0,,,1,,,85,64
121796,note_off,,,,,11,0,0,,,4,,,57,64
121796,note_off,,,,,0,0,0,,,4,,,45,64
121823,note_on,,,,,27,0,0,,,1,,,81,126
121867,note_on,,,,,44,0,0,,,1,,,78,126
121868,note_on,,,,,1,0,0,,,4,,,38,127
121868,note_on,,,,,0,0,0,,,4,,,50,127
121899,note_off,,,,,31,0,0,,,2,,,73,64
121913,note_on,,,,,14,0,0,,,2,,,74,125
121955,note_off,,,,,42,0,0,,,1,,,86,64
121959,note_off,,,,,4,0,0,,,4,,,50,64
121959,note_off,,,,,0,0,0,,,4,,,38,64
121959,note_on,,,,,0,0,0,,,1,,,86,126
121960,note_on,,,,,1,0,0,,,4,,,54,127
121960,note_on,,,,,0,0,0,,,4,,,42,127
121998,note_off,,,,,38,0,0,,,1,,,81,64
122004,note_on,,,,,6,0,0,,,1,,,81,126
122042,note_off,,,,,38,0,0,,,1,,,78,64
122048,note_off,,,,,6,0,0,,,4,,,42,64
122048,note_off,,,,,0,0,0,,,4,,,54,64
122049,note_on,,,,,1,0,0,,,1,,,78,126
122049,note_on,,,,,0,0,0,,,4,,,57,127
122050,note_on,,,,,1,0,0,,,4,,,45,127
122085,note_off,,,,,35,0,0,,,2,,,74,64
122092,note_on,,,,,7,0,0,,,2,,,74,125
122131,note_off,,,,,39,0,0,,,1,,,86,64
122137,note_off,,,,,6,0,0,,,4,,,45,64
122137,note_off,,,,,0,0,0,,,4,,,57,64
122138,note_on,,,,,1,0,0,,,4,,,62,125
122138,note_on,,,,,0,0,0,,,1,,,86,126
122139,note_on,,,,,1,0,0,,,4,,,50,127
122175,note_off,,,,,36,0,0,,,1,,,81,64
122182,note_on,,,,,7,0,0,,,1,,,81,126
122221,note_off,,,,,39,0,0,,,1,,,78,64
122226,note_on,,,,,5,0,0,,,1,,,78,126
122262,note_off,,,,,36,0,0,,,2,,,74,64
122270,note_on,,,,,8,0,0,,,2,,,74,125
122310,note_off,,,,,40,0,0,,,1,,,86,64
122314,note_off,,,,,4,0,0,,,1,,,81,64
122315,note_on,,,,,1,0,0,,,1,,,83,126
122323,note_off,,,,,8,0,0,,,1,,,78,64
122359,note_on,,,,,36,0,0,,,1,,,85,126
122367,note_off,,,,,8,0,0,,,1,,,83,64
122403,note_on,,,,,36,0,0,,,1,,,86,126
122411,note_off,,,,,8,0,0,,,1,,,85,64
122449,note_on,,,,,38,0,0,,,1,,,85,126
122457,note_off,,,,,8,0,0,,,1,,,86,64
122485,note_off,,,,,28,0,0,,,4,,,62,64
122486,note_off,,,,,1,0,0,,,4,,,50,64
122493,note_on,,,,,7,0,0,,,1,,,86,126
122500,note_off,,,,,7,0,0,,,1,,,85,64
122539,note_on,,,,,39,0,0,,,1,,,83,126
122585,note_on,,,,,46,0,0,,,4,,,55,127
122585,note_on,,,,,0,0,0,,,1,,,79,126
122586,note_on,,,,,1,0,0,,,4,,,43,127
122622,note_off,,,,,36,0,0,,,2,,,74,64
122630,note_on,,,,,8,0,0,,,2,,,74,125
122668,note_off,,,,,38,0,0,,,1,,,86,64
122674,note_off,,,,,6,0,0,,,4,,,43,64
122675,note_off,,,,,1,0,0,,,4,,,55,64
122675,note_on,,,,,0,0,0,,,1,,,86,126
122676,note_on,,,,,1,0,0,,,4,,,59,126
122676,note_on,,,,,0,0,0,,,4,,,47,127
122713,note_off,,,,,37,0,0,,,1,,,83,64
122717,note_on,,,,,4,0,0,,,1,,,83,126
122758,note_off,,,,,41,0,0,,,1,,,79,64
122763,note_off,,,,,5,0,0,,,4,,,47,64
122764,note_off,,,,,1,0,0,,,4,,,59,64
122764,note_on,,,,,0,0,0,,,1,,,79,126
122765,note_on,,,,,1,0,0,,,4,,,62,125
122765,note_on,,,,,0,0,0,,,4,,,50,127
122800,note_off,,,,,35,0,0,,,2,,,74,64
122808,note_on,,,,,8,0,0,,,2,,,74,125
122846,note_off,,,,,38,0,0,,,1,,,86,64
122852,note_off,,,,,6,0,0,,,4,,,50,64
122852,note_off,,,,,0,0,0,,,4,,,62,64
122853,note_on,,,,,1,0,0,,,2,,,67,122
122853,note_on,,,,,0,0,0,,,1,,,86,126
122854,note_on,,,,,1,0,0,,,4,,,55,127
122890,note_off,,,,,36,0,0,,,1,,,83,64
122896,note_on,,,,,6,0,0,,,1,,,83,126
122935,note_off,,,,,39,0,0,,,1,,,79,64
122941,note_on,,,,,6,0,0,,,1,,,79,126
122977,note_off,,,,,36,0,0,,,2,,,74,64
122985,note_on,,,,,8,0,0,,,2,,,74,124
123022,note_off,,,,,37,0,0,,,4,,,55,64
123024,note_off,,,,,2,0,0,,,1,,,86,64
123028,note_off,,,,,4,0,0,,,1,,,83,64
123029,note_on,,,,,1,0,0,,,1,,,78,121
123029,note_on,,,,,0,0,0,,,1,,,81,121
123030,note_on,,,,,1,0,0,,,4,,,57,127
123030,note_on,,,,,0,0,0,,,4,,,45,127
123040,note_off,,,,,10,0,0,,,1,,,79,64
123115,note_off,,,,,75,0,0,,,4,,,45,64
123115,note_off,,,,,0,0,0,,,4,,,57,64
123121,note_on,,,,,6,0,0,,,4,,,57,127
123122,note_on,,,,,1,0,0,,,4,,,45,127
123172,note_off,,,,,50,0,0,,,1,,,81,64
123173,note_on,,,,,1,0,0,,,1,,,83,108
123173,note_on,,,,,0,0,0,,,1,,,79,108
123174,note_off,,,,,1,0,0,,,1,,,78,64
123195,note_off,,,,,21,0,0,,,1,,,79,64
123207,note_off,,,,,12,0,0,,,2,,,74,64
123207,note_on,,,,,0,0,0,,,1,,,79,108
123210,note_on,,,,,3,0,0,,,2,,,76,111
123219,note_off,,,,,9,0,0,,,1,,,83,64
123227,note_off,,,,,8,0,0,,,4,,,45,64
123228,note_off,,,,,1,0,0,,,4,,,57,64
123234,note_off,,,,,6,0,0,,,1,,,79,64
123234,note_off,,,,,0,0,0,,,2,,,67,64
123235,note_on,,,,,1,0,0,,,2,,,74,121
123235,note_on,,,,,0,0,0,,,1,,,78,108
123236,note_on,,,,,1,0,0,,,4,,,57,127
123236,note_on,,,,,0,0,0,,,4,,,45,127
123242,note_off,,,,,6,0,0,,,2,,,76,64
123319,note_off,,,,,77,0,0,,,4,,,45,64
123320,note_off,,,,,1,0,0,,,4,,,57,64
123326,note_on,,,,,6,0,0,,,4,,,45,127
123326,note_on,,,,,0,0,0,,,4,,,57,127
123413,note_off,,,,,87,0,0,,,4,,,45,64
123414,note_off,,,,,1,0,0,,,4,,,57,64
123420,note_on,,,,,6,0,0,,,4,,,57,127
123420,note_on,,,,,0,0,0,,,4,,,45,127
123484,note_off,,,,,64,0,0,,,2,,,74,64
123485,note_off,,,,,1,0,0,,,1,,,78,64
123508,note_off,,,,,23,0,0,,,4,,,45,64
123509,note_off,,,,,1,0,0,,,4,,,57,64
123515,note_on,,,,,6,0,0,,,1,,,81,126
123516,note_on,,,,,1,0,0,,,4,,,45,127
123516,note_on,,,,,0,0,0,,,4,,,57,127
123516,note_on,,,,,0,0,0,,,1,,,78,126
123601,note_off,,,,,85,0,0,,,4,,,45,64
123602,note_off,,,,,1,0,0,,,4,,,57,64
123608,note_off,,,,,6,0,0,,,1,,,78,64
123609,note_off,,,,,1,0,0,,,1,,,81,64
123609,note_on,,,,,0,0,0,,,1,,,79,126
123610,note_on,,,,,1,0,0,,,2,,,76,127
123610,note_on,,,,,0,0,0,,,4,,,57,127
123611,note_on,,,,,1,0,0,,,4,,,45,127
123694,note_off,,,,,83,0,0,,,4,,,45,64
123694,note_off,,,,,0,0,0,,,2,,,76,64
123695,note_off,,,,,1,0,0,,,4,,,57,64
123700,note_off,,,,,5,0,0,,,1,,,79,64
123701,note_on,,,,,1,0,0,,,2,,,76,127
123701,note_on,,,,,0,0,0,,,2,,,73,127
123702,note_on,,,,,1,0,0,,,4,,,57,127
123702,note_on,,,,,0,0,0,,,4,,,45,127
123792,note_off,,,,,90,0,0,,,2,,,73,64
123793,note_off,,,,,1,0,0,,,4,,,45,64
123793,note_off,,,,,0,0,0,,,2,,,76,64
123794,note_off,,,,,1,0,0,,,4,,,57,64
123794,note_on,,,,,0,0,0,,,2,,,74,127
123795,note_on,,,,,1,0,0,,,4,,,62,127
123926,note_off,,,,,131,0,0,,,4,,,62,64
123930,note_on,,,,,4,0,0,,,2,,,76,124
123930,note_on,,,,,0,0,0,,,4,,,64,119
123935,note_off,,,,,5,0,0,,,2,,,74,64
123954,note_on,,,,,19,0,0,,,2,,,73,124
123954,note_on,,,,,0,0,0,,,4,,,61,125
123976,note_off,,,,,22,0,0,,,4,,,64,64
123976,note_off,,,,,0,0,0,,,2,,,76,64
123988,note_on,,,,,12,0,0,,,2,,,71,123
123989,note_on,,,,,1,0,0,,,4,,,59,125
124007,note_off,,,,,18,0,0,,,4,,,61,64
124007,note_off,,,,,0,0,0,,,2,,,73,64
124107,note_off,,,,,100,0,0,,,4,,,59,64
124125,note_off,,,,,18,0,0,,,2,,,71,64
124127,note_on,,,,,2,0,0,,,2,,,73,124
124127,note_on,,,,,0,0,0,,,4,,,61,125
124151,note_on,,,,,24,0,0,,,2,,,69,121
124151,note_on,,,,,0,0,0,,,4,,,57,127
124173,note_off,,,,,22,0,0,,,4,,,61,64
124173,note_off,,,,,0,0,0,,,2,,,73,64
124185,note_on,,,,,12,0,0,,,2,,,67,121
124186,note_on,,,,,1,0,0,,,4,,,55,127
124204,note_off,,,,,18,0,0,,,4,,,57,64
124204,note_off,,,,,0,0,0,,,2,,,69,64
124318,note_off,,,,,114,0,0,,,4,,,55,64
124318,note_off,,,,,0,0,0,,,2,,,67,64
124322,note_on,,,,,4,0,0,,,2,,,69,121
124323,note_on,,,,,1,0,0,,,4,,,57,127
124348,note_on,,,,,25,0,0,,,4,,,66,121
124349,note_on,,,,,1,0,0,,,4,,,54,127
124372,note_off,,,,,23,0,0,,,4,,,57,64
124373,note_off,,,,,1,0,0,,,2,,,69,64
124383,note_on,,,,,10,0,0,,,4,,,64,119
124383,note_on,,,,,0,0,0,,,4,,,52,127
124398,note_off,,,,,15,0,0,,,4,,,54,64
124398,note_off,,,,,0,0,0,,,4,,,66,64
124510,note_off,,,,,112,0,0,,,4,,,52,64
124513,note_off,,,,,3,0,0,,,4,,,64,64
124516,note_on,,,,,3,0,0,,,4,,,54,127
124516,note_on,,,,,0,0,0,,,4,,,66,126
124542,note_on,,,,,26,0,0,,,4,,,50,127
124542,note_on,,,,,0,0,0,,,4,,,62,127
124566,note_off,,,,,24,0,0,,,4,,,66,64
124566,note_off,,,,,0,0,0,,,4,,,54,64
124576,note_on,,,,,10,0,0,,,4,,,61,127
124577,note_on,,,,,1,0,0,,,4,,,49,127
124593,note_off,,,,,16,0,0,,,4,,,62,64
124593,note_off,,,,,0,0,0,,,4,,,50,64
124761,note_on,,,,,168,0,0,,,2,,,69,126
124772,note_on,,,,,11,0,0,,,2,,,73,127
124781,note_on,,,,,9,0,0,,,2,,,76,127
124793,note_on,,,,,12,0,0,,,1,,,79,126
124956,note_off,,,,,163,0,0,,,4,,,49,64
124957,note_off,,,,,1,0,0,,,4,,,61,64
124957,note_on,,,,,0,0,0,,,4,,,62,127
124958,note_on,,,,,1,0,0,,,4,,,50,127
125054,note_off,,,,,96,0,0,,,2,,,69,64
125064,note_off,,,,,10,0,0,,,2,,,73,64
125075,note_off,,,,,11,0,0,,,2,,,76,64
125085,note_off,,,,,10,0,0,,,1,,,79,64
125147,note_on,,,,,62,0,0,,,4,,,66,126
125158,note_on,,,,,11,0,0,,,2,,,69,126
125170,note_on,,,,,12,0,0,,,2,,,74,127
125179,note_on,,,,,9,0,0,,,1,,,78,126
125327,note_off,,,,,148,0,0,,,4,,,62,64
125335,note_off,,,,,8,0,0,,,4,,,50,64
125335,note_on,,,,,0,0,0,,,4,,,62,127
125336,note_on,,,,,1,0,0,,,4,,,55,127
125379,note_off,,,,,43,0,0,,,4,,,66,64
125390,note_off,,,,,11,0,0,,,2,,,69,64
125400,note_off,,,,,10,0,0,,,2,,,74,64
125412,note_off,,,,,12,0,0,,,1,,,78,64
125427,note_on,,,,,15,0,0,,,2,,,71,127
125521,note_on,,,,,94,0,0,,,2,,,70,127
125531,note_off,,,,,10,0,0,,,2,,,71,64
125611,note_on,,,,,80,0,0,,,2,,,71,127
125621,note_off,,,,,10,0,0,,,2,,,70,64
125707,note_off,,,,,86,0,0,,,4,,,55,64
125708,note_off,,,,,1,0,0,,,4,,,62,64
125708,note_on,,,,,0,0,0,,,4,,,65,126
125709,note_on,,,,,1,0,0,,,4,,,56,127
125797,note_off,,,,,88,0,0,,,2,,,71,64
125798,note_on,,,,,1,0,0,,,2,,,74,127
125894,note_on,,,,,96,0,0,,,2,,,73,127
125906,note_off,,,,,12,0,0,,,2,,,74,64
125988,note_on,,,,,82,0,0,,,2,,,74,127
125998,note_off,,,,,10,0,0,,,2,,,73,64
126083,note_off,,,,,85,0,0,,,4,,,65,64
126083,note_off,,,,,0,0,0,,,4,,,56,64
126084,note_on,,,,,1,0,0,,,2,,,69,127
126084,note_on,,,,,0,0,0,,,4,,,57,127
126092,note_off,,,,,8,0,0,,,2,,,74,64
126131,note_on,,,,,39,0,0,,,4,,,66,126
126177,note_on,,,,,46,0,0,,,4,,,62,127
126214,note_off,,,,,37,0,0,,,4,,,66,64
126223,note_on,,,,,9,0,0,,,4,,,66,126
126236,note_off,,,,,13,0,0,,,4,,,57,64
126267,note_on,,,,,31,0,0,,,4,,,57,127
126305,note_off,,,,,38,0,0,,,4,,,66,64
126313,note_on,,,,,8,0,0,,,4,,,66,126
126328,note_off,,,,,15,0,0,,,4,,,62,64
126359,note_on,,,,,31,0,0,,,4,,,62,127
126392,note_off,,,,,33,0,0,,,2,,,69,64
126396,note_off,,,,,4,0,0,,,4,,,66,64
126404,note_on,,,,,8,0,0,,,4,,,66,126
126419,note_off,,,,,15,0,0,,,4,,,57,64
126450,note_on,,,,,31,0,0,,,4,,,57,127
126450,note_on,,,,,0,0,0,,,1,,,78,108
126492,note_on,,,,,42,0,0,,,2,,,76,111
126498,note_off,,,,,6,0,0,,,1,,,78,64
126499,note_off,,,,,1,0,0,,,4,,,66,64
126505,note_on,,,,,6,0,0,,,2,,,67,126
126524,note_off,,,,,19,0,0,,,4,,,62,64
126526,note_on,,,,,2,0,0,,,1,,,78,100
126536,note_off,,,,,10,0,0,,,2,,,76,64
126557,note_on,,,,,21,0,0,,,4,,,61,127
126563,note_on,,,,,6,0,0,,,2,,,76,107
126568,note_off,,,,,5,0,0,,,1,,,78,64
126593,note_on,,,,,25,0,0,,,1,,,78,100
126599,note_off,,,,,6,0,0,,,2,,,67,64
126607,note_off,,,,,8,0,0,,,2,,,76,64
126609,note_on,,,,,2,0,0,,,2,,,67,126
126625,note_off,,,,,16,0,0,,,4,,,57,64
126629,note_on,,,,,4,0,0,,,2,,,76,107
126635,note_off,,,,,6,0,0,,,1,,,78,64
126659,note_on,,,,,24,0,0,,,4,,,57,127
126662,note_on,,,,,3,0,0,,,1,,,78,100
126672,note_off,,,,,10,0,0,,,2,,,76,64
126695,note_on,,,,,23,0,0,,,2,,,76,111
126703,note_off,,,,,8,0,0,,,2,,,67,64
126705,note_off,,,,,2,0,0,,,1,,,78,64
126710,note_on,,,,,5,0,0,,,2,,,67,126
126728,note_off,,,,,18,0,0,,,4,,,61,64
126732,note_on,,,,,4,0,0,,,1,,,78,107
126739,note_off,,,,,7,0,0,,,2,,,76,64
126763,note_on,,,,,24,0,0,,,4,,,61,127
126770,note_on,,,,,7,0,0,,,2,,,76,111
126774,note_off,,,,,4,0,0,,,1,,,78,64
126807,note_off,,,,,33,0,0,,,2,,,67,64
126807,note_on,,,,,0,0,0,,,2,,,74,115
126813,note_off,,,,,6,0,0,,,2,,,76,64
126816,note_on,,,,,3,0,0,,,2,,,67,126
126833,note_off,,,,,17,0,0,,,4,,,57,64
126834,note_on,,,,,1,0,0,,,2,,,76,115
126842,note_off,,,,,8,0,0,,,2,,,74,64
126867,note_off,,,,,25,0,0,,,4,,,61,64
126868,note_on,,,,,1,0,0,,,4,,,62,127
126868,note_on,,,,,0,0,0,,,2,,,74,115
126869,note_off,,,,,1,0,0,,,2,,,76,64
126869,note_on,,,,,0,0,0,,,4,,,50,127
126906,note_off,,,,,37,0,0,,,2,,,67,64
126913,note_on,,,,,7,0,0,,,1,,,78,127
126921,note_off,,,,,8,0,0,,,2,,,74,64
126961,note_on,,,,,40,0,0,,,2,,,74,127
126969,note_off,,,,,8,0,0,,,1,,,78,64
127008,note_on,,,,,39,0,0,,,2,,,73,127
127015,note_off,,,,,7,0,0,,,2,,,74,64
127054,note_on,,,,,39,0,0,,,4,,,59,127
127054,note_on,,,,,0,0,0,,,2,,,71,127
127055,note_on,,,,,1,0,0,,,4,,,47,127
127056,note_off,,,,,1,0,0,,,4,,,50,64
127057,note_off,,,,,1,0,0,,,4,,,62,64
127062,note_off,,,,,5,0,0,,,2,,,73,64
127101,note_on,,,,,39,0,0,,,2,,,74,127
127108,note_off,,,,,7,0,0,,,2,,,71,64
127147,note_on,,,,,39,0,0,,,2,,,71,127
127154,note_off,,,,,7,0,0,,,2,,,74,64
127193,note_on,,,,,39,0,0,,,2,,,69,126
127200,note_off,,,,,7,0,0,,,2,,,71,64
127239,note_on,,,,,39,0,0,,,2,,,67,126
127239,note_on,,,,,0,0,0,,,4,,,55,127
127240,note_on,,,,,1,0,0,,,4,,,43,127
127242,note_off,,,,,2,0,0,,,4,,,59,64
127242,note_off,,,,,0,0,0,,,4,,,47,64
127248,note_off,,,,,6,0,0,,,2,,,69,64
127286,note_on,,,,,38,0,0,,,2,,,71,127
127294,note_off,,,,,8,0,0,,,2,,,67,64
127334,note_on,,,,,40,0,0,,,2,,,67,126
127342,note_off,,,,,8,0,0,,,2,,,71,64
127379,note_on,,,,,37,0,0,,,4,,,66,126
127387,note_off,,,,,8,0,0,,,2,,,67,64
127425,note_on,,,,,38,0,0,,,4,,,64,124
127426,note_on,,,,,1,0,0,,,4,,,40,127
127426,note_on,,,,,0,0,0,,,4,,,52,127
127428,note_off,,,,,2,0,0,,,4,,,43,64
127428,note_off,,,,,0,0,0,,,4,,,55,64
127433,note_off,,,,,5,0,0,,,4,,,66,64
127471,note_on,,,,,38,0,0,,,2,,,67,126
127479,note_off,,,,,8,0,0,,,4,,,64,64
127518,note_on,,,,,39,0,0,,,4,,,64,124
127526,note_off,,,,,8,0,0,,,2,,,67,64
127562,note_on,,,,,36,0,0,,,4,,,62,127
127570,note_off,,,,,8,0,0,,,4,,,64,64
127603,note_off,,,,,33,0,0,,,4,,,52,64
127603,note_off,,,,,0,0,0,,,4,,,40,64
127606,note_off,,,,,3,0,0,,,4,,,62,64
127608,note_on,,,,,2,0,0,,,4,,,37,127
127608,note_on,,,,,0,0,0,,,4,,,49,127
127608,note_on,,,,,0,0,0,,,4,,,61,127
127745,note_on,,,,,137,0,0,,,2,,,69,126
127768,note_on,,,,,23,0,0,,,2,,,76,127
127791,note_on,,,,,23,0,0,,,1,,,79,126
127835,note_off,,,,,44,0,0,,,2,,,69,64
127850,note_off,,,,,15,0,0,,,4,,,37,64
127851,note_off,,,,,1,0,0,,,4,,,61,64
127851,note_off,,,,,0,0,0,,,4,,,49,64
127859,note_off,,,,,8,0,0,,,2,,,76,64
127874,note_off,,,,,15,0,0,,,1,,,79,64
127881,note_on,,,,,7,0,0,,,1,,,79,126
127928,note_on,,,,,47,0,0,,,4,,,61,127
127928,note_on,,,,,0,0,0,,,4,,,49,127
127973,note_on,,,,,45,0,0,,,4,,,62,127
127974,note_on,,,,,1,0,0,,,4,,,50,127
127978,note_off,,,,,4,0,0,,,4,,,49,64
127979,note_off,,,,,1,0,0,,,4,,,61,64
128012,note_off,,,,,33,0,0,,,1,,,79,64
128112,note_on,,,,,100,0,0,,,2,,,69,126
128134,note_on,,,,,22,0,0,,,2,,,74,127
128157,note_on,,,,,23,0,0,,,1,,,78,126
128203,note_off,,,,,46,0,0,,,2,,,69,64
128218,note_off,,,,,15,0,0,,,4,,,50,64
128219,note_off,,,,,1,0,0,,,4,,,62,64
128225,note_off,,,,,6,0,0,,,2,,,74,64
128240,note_off,,,,,15,0,0,,,1,,,78,64
128248,note_on,,,,,8,0,0,,,1,,,78,126
128294,note_on,,,,,46,0,0,,,4,,,62,127
128294,note_on,,,,,0,0,0,,,4,,,50,127
128341,note_on,,,,,47,0,0,,,4,,,43,127
128341,note_on,,,,,0,0,0,,,4,,,55,127
128342,note_off,,,,,1,0,0,,,4,,,50,64
128342,note_off,,,,,0,0,0,,,4,,,62,64
128370,note_off,,,,,28,0,0,,,1,,,78,64
128434,note_on,,,,,64,0,0,,,1,,,83,126
128434,note_on,,,,,0,0,0,,,2,,,71,127
128528,note_on,,,,,94,0,0,,,1,,,82,126
128529,note_on,,,,,1,0,0,,,2,,,70,126
128537,note_off,,,,,8,0,0,,,2,,,71,64
128537,note_off,,,,,0,0,0,,,1,,,83,64
128620,note_on,,,,,83,0,0,,,1,,,83,126
128621,note_on,,,,,1,0,0,,,2,,,71,127
128629,note_off,,,,,8,0,0,,,2,,,70,64
128629,note_off,,,,,0,0,0,,,1,,,82,64
128714,note_on,,,,,85,0,0,,,1,,,82,126
128715,note_on,,,,,1,0,0,,,2,,,70,126
128721,note_off,,,,,6,0,0,,,2,,,71,64
128722,note_off,,,,,1,0,0,,,1,,,83,64
128808,note_on,,,,,86,0,0,,,1,,,83,126
128809,note_on,,,,,1,0,0,,,2,,,71,127
128815,note_off,,,,,6,0,0,,,2,,,70,64
128816,note_off,,,,,1,0,0,,,1,,,82,64
128901,note_on,,,,,85,0,0,,,1,,,85,126
128901,note_on,,,,,0,0,0,,,2,,,73,127
128909,note_off,,,,,8,0,0,,,2,,,71,64
128910,note_off,,,,,1,0,0,,,1,,,83,64
128991,note_on,,,,,81,0,0,,,2,,,74,127
128991,note_on,,,,,0,0,0,,,1,,,86,126
129000,note_off,,,,,9,0,0,,,2,,,73,64
129000,note_off,,,,,0,0,0,,,1,,,85,64
129074,note_off,,,,,74,0,0,,,4,,,55,64
129074,note_off,,,,,0,0,0,,,4,,,43,64
129082,note_on,,,,,8,0,0,,,4,,,65,126
129083,note_on,,,,,1,0,0,,,4,,,56,127
129083,note_on,,,,,0,0,0,,,4,,,59,127
129169,note_off,,,,,86,0,0,,,2,,,74,64
129170,note_off,,,,,1,0,0,,,1,,,86,64
129175,note_on,,,,,5,0,0,,,1,,,86,126
129175,note_on,,,,,0,0,0,,,2,,,74,127
129272,note_on,,,,,97,0,0,,,2,,,73,127
129272,note_on,,,,,0,0,0,,,1,,,85,126
129278,note_off,,,,,6,0,0,,,2,,,74,64
129278,note_off,,,,,0,0,0,,,1,,,86,64
129360,note_on,,,,,82,0,0,,,1,,,86,126
129360,note_on,,,,,0,0,0,,,2,,,74,127
129369,note_off,,,,,9,0,0,,,1,,,85,64
129369,note_off,,,,,0,0,0,,,2,,,73,64
129456,note_on,,,,,87,0,0,,,1,,,85,126
129456,note_on,,,,,0,0,0,,,2,,,73,127
129463,note_off,,,,,7,0,0,,,2,,,74,64
129463,note_off,,,,,0,0,0,,,1,,,86,64
129552,note_on,,,,,89,0,0,,,2,,,74,127
129552,note_on,,,,,0,0,0,,,1,,,86,126
129559,note_off,,,,,7,0,0,,,2,,,73,64
129559,note_off,,,,,0,0,0,,,1,,,85,64
129642,note_on,,,,,83,0,0,,,1,,,88,127
129643,note_on,,,,,1,0,0,,,2,,,76,127
129651,note_off,,,,,8,0,0,,,1,,,86,64
129651,note_off,,,,,0,0,0,,,2,,,74,64
129734,note_on,,,,,83,0,0,,,1,,,89,127
129735,note_on,,,,,1,0,0,,,2,,,77,127
129741,note_off,,,,,6,0,0,,,2,,,76,64
129742,note_off,,,,,1,0,0,,,1,,,88,64
129817,note_off,,,,,75,0,0,,,4,,,59,64
129817,note_off,,,,,0,0,0,,,4,,,56,64
129818,note_off,,,,,1,0,0,,,4,,,65,64
129824,note_on,,,,,6,0,0,,,4,,,57,127
129824,note_on,,,,,0,0,0,,,1,,,81,122
129832,note_off,,,,,8,0,0,,,2,,,77,64
129833,note_off,,,,,1,0,0,,,1,,,89,64
129870,note_on,,,,,37,0,0,,,1,,,86,122
129870,note_on,,,,,0,0,0,,,4,,,66,126
129878,note_off,,,,,8,0,0,,,1,,,81,64
129914,note_on,,,,,36,0,0,,,1,,,81,122
129914,note_on,,,,,0,0,0,,,4,,,62,127
129923,note_off,,,,,9,0,0,,,1,,,86,64
129949,note_off,,,,,26,0,0,,,4,,,66,64
129957,note_on,,,,,8,0,0,,,1,,,78,122
129958,note_on,,,,,1,0,0,,,4,,,66,126
129964,note_off,,,,,6,0,0,,,1,,,81,64
129972,note_off,,,,,8,0,0,,,4,,,57,64
129995,note_off,,,,,23,0,0,,,1,,,78,64
130002,note_on,,,,,7,0,0,,,1,,,78,122
130003,note_on,,,,,1,0,0,,,4,,,57,127
130038,note_off,,,,,35,0,0,,,4,,,66,64
130045,note_on,,,,,7,0,0,,,1,,,81,122
130046,note_on,,,,,1,0,0,,,4,,,66,126
130054,note_off,,,,,8,0,0,,,1,,,78,64
130062,note_off,,,,,8,0,0,,,4,,,62,64
130092,note_on,,,,,30,0,0,,,1,,,78,122
130093,note_on,,,,,1,0,0,,,4,,,62,127
130099,note_off,,,,,6,0,0,,,1,,,81,64
130128,note_off,,,,,29,0,0,,,4,,,66,64
130136,note_on,,,,,8,0,0,,,2,,,74,125
130136,note_on,,,,,0,0,0,,,4,,,66,126
130142,note_off,,,,,6,0,0,,,1,,,78,64
130149,note_off,,,,,7,0,0,,,4,,,57,64
130178,note_on,,,,,29,0,0,,,4,,,57,127
130178,note_on,,,,,0,0,0,,,1,,,81,122
130187,note_off,,,,,9,0,0,,,2,,,74,64
130215,note_off,,,,,28,0,0,,,4,,,66,64
130223,note_on,,,,,8,0,0,,,1,,,86,122
130224,note_on,,,,,1,0,0,,,4,,,66,126
130230,note_off,,,,,6,0,0,,,1,,,81,64
130237,note_off,,,,,7,0,0,,,4,,,62,64
130268,note_on,,,,,31,0,0,,,1,,,81,122
130269,note_on,,,,,1,0,0,,,4,,,62,127
130275,note_off,,,,,6,0,0,,,1,,,86,64
130304,note_off,,,,,29,0,0,,,4,,,66,64
130311,note_on,,,,,7,0,0,,,1,,,78,122
130312,note_on,,,,,1,0,0,,,4,,,66,126
130318,note_off,,,,,6,0,0,,,1,,,81,64
130324,note_off,,,,,6,0,0,,,4,,,57,64
130346,note_off,,,,,22,0,0,,,1,,,78,64
130354,note_on,,,,,8,0,0,,,1,,,78,122
130355,note_on,,,,,1,0,0,,,4,,,57,127
130391,note_off,,,,,36,0,0,,,4,,,66,64
130395,note_off,,,,,4,0,0,,,1,,,78,64
130399,note_on,,,,,4,0,0,,,1,,,81,122
130399,note_on,,,,,0,0,0,,,4,,,66,126
130415,note_off,,,,,16,0,0,,,4,,,62,64
130438,note_off,,,,,23,0,0,,,1,,,81,64
130444,note_on,,,,,6,0,0,,,4,,,62,127
130444,note_on,,,,,0,0,0,,,1,,,78,122
130481,note_off,,,,,37,0,0,,,4,,,66,64
130483,note_off,,,,,2,0,0,,,1,,,78,64
130489,note_on,,,,,6,0,0,,,4,,,66,126
130489,note_on,,,,,0,0,0,,,2,,,74,125
130503,note_off,,,,,14,0,0,,,4,,,57,64
130530,note_off,,,,,27,0,0,,,2,,,74,64
130536,note_on,,,,,6,0,0,,,4,,,57,127
130536,note_on,,,,,0,0,0,,,1,,,78,118
130587,note_on,,,,,51,0,0,,,2,,,76,121
130589,note_off,,,,,2,0,0,,,4,,,66,64
130598,note_on,,,,,9,0,0,,,2,,,67,126
130614,note_off,,,,,16,0,0,,,1,,,78,64
130616,note_off,,,,,2,0,0,,,4,,,62,64
130627,note_on,,,,,11,0,0,,,1,,,78,118
130652,note_on,,,,,25,0,0,,,4,,,61,127
130658,note_off,,,,,6,0,0,,,2,,,76,64
130668,note_on,,,,,10,0,0,,,2,,,76,117
130677,note_off,,,,,9,0,0,,,1,,,78,64
130698,note_off,,,,,21,0,0,,,2,,,67,64
130708,note_on,,,,,10,0,0,,,2,,,67,126
130708,note_on,,,,,0,0,0,,,1,,,78,114
130718,note_off,,,,,10,0,0,,,2,,,76,64
130724,note_off,,,,,6,0,0,,,4,,,57,64
130747,note_on,,,,,23,0,0,,,2,,,76,117
130759,note_off,,,,,12,0,0,,,1,,,78,64
130763,note_on,,,,,4,0,0,,,4,,,57,127
130784,note_on,,,,,21,0,0,,,1,,,78,114
130795,note_off,,,,,11,0,0,,,2,,,76,64
130805,note_off,,,,,10,0,0,,,2,,,67,64
130812,note_on,,,,,7,0,0,,,2,,,67,126
130820,note_on,,,,,8,0,0,,,2,,,76,117
130832,note_off,,,,,12,0,0,,,4,,,61,64
130832,note_off,,,,,0,0,0,,,1,,,78,64
130860,note_on,,,,,28,0,0,,,1,,,78,114
130865,note_on,,,,,5,0,0,,,4,,,61,127
130869,note_off,,,,,4,0,0,,,2,,,76,64
130896,note_on,,,,,27,0,0,,,2,,,76,117
130906,note_off,,,,,10,0,0,,,1,,,78,64
130908,note_off,,,,,2,0,0,,,2,,,67,64
130916,note_on,,,,,8,0,0,,,2,,,67,126
130934,note_off,,,,,18,0,0,,,4,,,57,64
130934,note_on,,,,,0,0,0,,,1,,,78,114
130944,note_off,,,,,10,0,0,,,2,,,76,64
130968,note_on,,,,,24,0,0,,,4,,,57,127
130979,note_on,,,,,11,0,0,,,2,,,76,117
130982,note_off,,,,,3,0,0,,,1,,,78,64
131011,note_off,,,,,29,0,0,,,2,,,67,64
131017,note_on,,,,,6,0,0,,,1,,,78,114
131019,note_on,,,,,2,0,0,,,2,,,67,126
131027,note_off,,,,,8,0,0,,,2,,,76,64
131037,note_off,,,,,10,0,0,,,4,,,61,64
131055,note_on,,,,,18,0,0,,,2,,,76,117
131063,note_off,,,,,8,0,0,,,1,,,78,64
131071,note_on,,,,,8,0,0,,,4,,,61,127
131096,note_on,,,,,25,0,0,,,1,,,78,114
131101,note_off,,,,,5,0,0,,,2,,,76,64
131113,note_off,,,,,12,0,0,,,2,,,67,64
131123,note_on,,,,,10,0,0,,,2,,,67,126
131128,note_on,,,,,5,0,0,,,2,,,76,117
131138,note_off,,,,,10,0,0,,,4,,,57,64
131142,note_off,,,,,4,0,0,,,1,,,78,64
131171,note_on,,,,,29,0,0,,,1,,,78,114
131172,note_on,,,,,1,0,0,,,4,,,57,127
131176,note_off,,,,,4,0,0,,,2,,,76,64
131207,note_on,,,,,31,0,0,,,2,,,76,117
131215,note_off,,,,,8,0,0,,,2,,,67,64
131217,note_off,,,,,2,0,0,,,1,,,78,64
131224,note_on,,,,,7,0,0,,,2,,,67,126
131240,note_off,,,,,16,0,0,,,4,,,61,64
131245,note_on,,,,,5,0,0,,,1,,,78,114
131253,note_off,,,,,8,0,0,,,2,,,76,64
131272,note_on,,,,,19,0,0,,,4,,,61,127
131277,note_on,,,,,5,0,0,,,2,,,76,117
131292,note_off,,,,,15,0,0,,,1,,,78,64
131313,note_off,,,,,21,0,0,,,2,,,67,64
131321,note_off,,,,,8,0,0,,,2,,,76,64
131321,note_on,,,,,0,0,0,,,2,,,74,121
131321,note_on,,,,,0,0,0,,,2,,,67,126
131337,note_off,,,,,16,0,0,,,4,,,57,64
131346,note_on,,,,,9,0,0,,,2,,,76,121
131354,note_off,,,,,8,0,0,,,2,,,74,64
131371,note_off,,,,,17,0,0,,,4,,,61,64
131372,note_on,,,,,1,0,0,,,4,,,62,127
131372,note_on,,,,,0,0,0,,,2,,,74,121
131373,note_on,,,,,1,0,0,,,4,,,50,127
131379,note_off,,,,,6,0,0,,,2,,,76,64
131410,note_off,,,,,31,0,0,,,2,,,67,64
131619,note_off,,,,,209,0,0,,,4,,,50,64
131620,note_off,,,,,1,0,0,,,4,,,62,64
131647,note_off,,,,,27,0,0,,,2,,,74,64
131649,note_on,,,,,2,0,0,,,4,,,66,126
131651,note_on,,,,,2,0,0,,,4,,,54,127
131695,note_on,,,,,44,0,0,,,4,,,62,127
131696,note_on,,,,,1,0,0,,,4,,,50,127
131703,note_off,,,,,7,0,0,,,4,,,66,64
131705,note_off,,,,,2,0,0,,,4,,,54,64
131743,note_on,,,,,38,0,0,,,2,,,67,126
131744,note_on,,,,,1,0,0,,,4,,,55,127
131750,note_off,,,,,6,0,0,,,4,,,62,64
131752,note_off,,,,,2,0,0,,,4,,,50,64
131824,note_off,,,,,72,0,0,,,4,,,55,64
131834,note_off,,,,,10,0,0,,,2,,,67,64
131838,note_on,,,,,4,0,0,,,4,,,64,124
131839,note_on,,,,,1,0,0,,,4,,,52,127
131883,note_off,,,,,44,0,0,,,4,,,64,64
131884,note_off,,,,,1,0,0,,,4,,,52,64
131884,note_on,,,,,0,0,0,,,4,,,61,127
131885,note_on,,,,,1,0,0,,,4,,,49,127
131933,note_off,,,,,48,0,0,,,4,,,61,64
131934,note_off,,,,,1,0,0,,,4,,,49,64
131934,note_on,,,,,0,0,0,,,4,,,62,127
131935,note_on,,,,,1,0,0,,,4,,,50,127
132022,note_off,,,,,87,0,0,,,4,,,50,64
132027,note_off,,,,,5,0,0,,,4,,,62,64
132031,note_on,,,,,4,0,0,,,4,,,59,127
132032,note_on,,,,,1,0,0,,,4,,,47,127
132082,note_off,,,,,50,0,0,,,4,,,59,64
132083,note_off,,,,,1,0,0,,,4,,,47,64
132083,note_on,,,,,0,0,0,,,4,,,56,127
132084,note_on,,,,,1,0,0,,,4,,,44,127
132128,note_off,,,,,44,0,0,,,4,,,56,64
132129,note_off,,,,,1,0,0,,,4,,,44,64
132129,note_on,,,,,0,0,0,,,4,,,45,127
132130,note_on,,,,,1,0,0,,,4,,,57,127
132309,note_off,,,,,179,0,0,,,4,,,45,64
132309,note_off,,,,,0,0,0,,,4,,,57,64
132318,note_on,,,,,9,0,0,,,2,,,76,127
132319,note_on,,,,,1,0,0,,,4,,,45,127
132319,note_on,,,,,0,0,0,,,4,,,57,127
132338,note_on,,,,,19,0,0,,,1,,,81,127
132356,note_on,,,,,18,0,0,,,1,,,85,127
132519,note_off,,,,,163,0,0,,,4,,,57,64
132519,note_off,,,,,0,0,0,,,4,,,45,64
132520,note_off,,,,,1,0,0,,,2,,,76,64
132528,note_on,,,,,8,0,0,,,4,,,38,127
132528,note_on,,,,,0,0,0,,,4,,,50,127
132528,note_on,,,,,0,0,0,,,2,,,74,127
132532,note_off,,,,,4,0,0,,,1,,,81,64
132544,note_on,,,,,12,0,0,,,1,,,78,127
132550,note_off,,,,,6,0,0,,,1,,,85,64
132563,note_on,,,,,13,0,0,,,1,,,81,127
132580,note_on,,,,,17,0,0,,,1,,,86,127
132869,note_off,,,,,289,0,0,,,2,,,74,64
132881,note_off,,,,,12,0,0,,,1,,,78,64
132892,note_off,,,,,11,0,0,,,1,,,81,64
132904,note_off,,,,,12,0,0,,,1,,,86,64
132936,note_on,,,,,32,0,0,,,2,,,69,126
132937,note_on,,,,,1,0,0,,,4,,,57,127
132984,note_on,,,,,47,0,0,,,1,,,81,126
133032,note_on,,,,,48,0,0,,,1,,,80,126
133040,note_off,,,,,8,0,0,,,1,,,81,64
133079,note_on,,,,,39,0,0,,,1,,,81,126
133088,note_off,,,,,9,0,0,,,1,,,80,64
133119,note_off,,,,,31,0,0,,,2,,,69,64
133121,note_off,,,,,2,0,0,,,4,,,57,64
133127,note_on,,,,,6,0,0,,,4,,,60,127
133127,note_on,,,,,0,0,0,,,2,,,69,126
133172,note_off,,,,,45,0,0,,,1,,,81,64
133176,note_on,,,,,4,0,0,,,1,,,81,126
133224,note_on,,,,,48,0,0,,,2,,,71,127
133225,note_on,,,,,1,0,0,,,4,,,62,127
133231,note_off,,,,,6,0,0,,,4,,,60,64
133232,note_off,,,,,1,0,0,,,2,,,69,64
133269,note_off,,,,,37,0,0,,,1,,,81,64
133269,note_on,,,,,0,0,0,,,1,,,81,126
133317,note_on,,,,,48,0,0,,,2,,,72,127
133317,note_on,,,,,0,0,0,,,4,,,64,124
133325,note_off,,,,,8,0,0,,,4,,,62,64
133326,note_off,,,,,1,0,0,,,2,,,71,64
133363,note_off,,,,,37,0,0,,,1,,,81,64
133365,note_on,,,,,2,0,0,,,1,,,81,126
133413,note_on,,,,,48,0,0,,,2,,,74,127
133414,note_on,,,,,1,0,0,,,4,,,65,126
133419,note_off,,,,,5,0,0,,,4,,,64,64
133420,note_off,,,,,1,0,0,,,2,,,72,64
133455,note_off,,,,,35,0,0,,,1,,,81,64
133457,note_on,,,,,2,0,0,,,1,,,81,126
133505,note_on,,,,,48,0,0,,,2,,,72,127
133505,note_on,,,,,0,0,0,,,4,,,64,124
133512,note_off,,,,,7,0,0,,,2,,,74,64
133512,note_off,,,,,0,0,0,,,4,,,65,64
133549,note_off,,,,,37,0,0,,,1,,,81,64
133553,note_on,,,,,4,0,0,,,1,,,81,126
133601,note_on,,,,,48,0,0,,,4,,,62,127
133601,note_on,,,,,0,0,0,,,2,,,71,127
133608,note_off,,,,,7,0,0,,,4,,,64,64
133608,note_off,,,,,0,0,0,,,2,,,72,64
133645,note_off,,,,,37,0,0,,,1,,,81,64
133649,note_on,,,,,4,0,0,,,1,,,81,126
133699,note_on,,,,,50,0,0,,,2,,,69,126
133700,note_on,,,,,1,0,0,,,4,,,60,127
133708,note_off,,,,,8,0,0,,,2,,,71,64
133708,note_off,,,,,0,0,0,,,4,,,62,64
133743,note_off,,,,,35,0,0,,,1,,,81,64
133745,note_on,,,,,2,0,0,,,1,,,81,126
133793,note_on,,,,,48,0,0,,,1,,,80,118
133801,note_off,,,,,8,0,0,,,1,,,81,64
133839,note_on,,,,,38,0,0,,,1,,,81,118
133847,note_off,,,,,8,0,0,,,1,,,80,64
133855,note_off,,,,,8,0,0,,,2,,,69,64
133885,note_on,,,,,30,0,0,,,1,,,84,118
133886,note_on,,,,,1,0,0,,,2,,,69,126
133894,note_off,,,,,8,0,0,,,1,,,81,64
133932,note_on,,,,,38,0,0,,,1,,,81,114
133971,note_off,,,,,39,0,0,,,2,,,69,64
133977,note_off,,,,,6,0,0,,,1,,,81,64
133977,note_off,,,,,0,0,0,,,1,,,84,64
133978,note_on,,,,,1,0,0,,,1,,,83,118
133978,note_on,,,,,0,0,0,,,2,,,69,126
134025,note_on,,,,,47,0,0,,,1,,,79,114
134063,note_off,,,,,38,0,0,,,2,,,69,64
134071,note_off,,,,,8,0,0,,,1,,,79,64
134071,note_off,,,,,0,0,0,,,1,,,83,64
134072,note_on,,,,,1,0,0,,,1,,,81,114
134072,note_on,,,,,0,0,0,,,2,,,69,126
134119,note_on,,,,,47,0,0,,,1,,,78,114
134157,note_off,,,,,38,0,0,,,2,,,69,64
134165,note_off,,,,,8,0,0,,,1,,,81,64
134165,note_on,,,,,0,0,0,,,1,,,83,118
134166,note_on,,,,,1,0,0,,,2,,,69,126
134172,note_off,,,,,6,0,0,,,1,,,78,64
134212,note_on,,,,,40,0,0,,,1,,,79,114
134250,note_off,,,,,38,0,0,,,2,,,69,64
134258,note_off,,,,,8,0,0,,,1,,,83,64
134258,note_on,,,,,0,0,0,,,1,,,81,114
134259,note_on,,,,,1,0,0,,,2,,,69,126
134267,note_off,,,,,8,0,0,,,1,,,79,64
134305,note_on,,,,,38,0,0,,,1,,,78,114
134345,note_off,,,,,40,0,0,,,2,,,69,64
134353,note_off,,,,,8,0,0,,,1,,,81,64
134353,note_on,,,,,0,0,0,,,1,,,79,114
134354,note_on,,,,,1,0,0,,,2,,,69,126
134362,note_off,,,,,8,0,0,,,1,,,78,64
134400,note_on,,,,,38,0,0,,,2,,,76,121
134408,note_off,,,,,8,0,0,,,1,,,79,64
134446,note_on,,,,,38,0,0,,,1,,,78,122
134447,note_on,,,,,1,0,0,,,2,,,75,125
134454,note_off,,,,,7,0,0,,,2,,,76,64
134494,note_on,,,,,40,0,0,,,1,,,83,126
134510,note_off,,,,,16,0,0,,,1,,,78,64
134511,note_off,,,,,1,0,0,,,2,,,75,64
134542,note_off,,,,,31,0,0,,,1,,,83,64
134543,note_on,,,,,1,0,0,,,1,,,82,126
134589,note_off,,,,,46,0,0,,,1,,,82,64
134590,note_on,,,,,1,0,0,,,1,,,83,126
134637,note_off,,,,,47,0,0,,,2,,,69,64
134638,note_on,,,,,1,0,0,,,4,,,66,126
134638,note_on,,,,,0,0,0,,,2,,,75,125
134684,note_off,,,,,46,0,0,,,1,,,83,64
134686,note_on,,,,,2,0,0,,,1,,,83,126
134734,note_on,,,,,48,0,0,,,2,,,76,125
134735,note_on,,,,,1,0,0,,,2,,,67,126
134743,note_off,,,,,8,0,0,,,2,,,75,64
134743,note_off,,,,,0,0,0,,,4,,,66,64
134780,note_off,,,,,37,0,0,,,1,,,83,64
134782,note_on,,,,,2,0,0,,,1,,,83,126
134830,note_on,,,,,48,0,0,,,1,,,78,122
134831,note_on,,,,,1,0,0,,,2,,,69,126
134837,note_off,,,,,6,0,0,,,2,,,67,64
134837,note_off,,,,,0,0,0,,,2,,,76,64
134874,note_off,,,,,37,0,0,,,1,,,83,64
134878,note_on,,,,,4,0,0,,,1,,,83,126
134924,note_off,,,,,46,0,0,,,4,,,50,64
134925,note_on,,,,,1,0,0,,,1,,,79,122
134925,note_on,,,,,0,0,0,,,2,,,71,127
134933,note_off,,,,,8,0,0,,,1,,,78,64
134933,note_off,,,,,0,0,0,,,2,,,69,64
134968,note_off,,,,,35,0,0,,,1,,,83,64
134972,note_on,,,,,4,0,0,,,1,,,83,126
135020,note_on,,,,,48,0,0,,,1,,,78,122
135021,note_on,,,,,1,0,0,,,2,,,69,126
135027,note_off,,,,,6,0,0,,,2,,,71,64
135027,note_off,,,,,0,0,0,,,1,,,79,64
135064,note_off,,,,,37,0,0,,,1,,,83,64
135066,note_on,,,,,2,0,0,,,1,,,83,126
135112,note_on,,,,,46,0,0,,,2,,,76,125
135113,note_on,,,,,1,0,0,,,2,,,67,126
135121,note_off,,,,,8,0,0,,,1,,,78,64
135121,note_off,,,,,0,0,0,,,2,,,69,64
135158,note_off,,,,,37,0,0,,,1,,,83,64
135162,note_on,,,,,4,0,0,,,1,,,83,126
135210,note_on,,,,,48,0,0,,,2,,,75,125
135211,note_on,,,,,1,0,0,,,4,,,66,126
135217,note_off,,,,,6,0,0,,,2,,,76,64
135217,note_off,,,,,0,0,0,,,2,,,67,64
135254,note_off,,,,,37,0,0,,,1,,,83,64
135256,note_on,,,,,2,0,0,,,1,,,83,118
135272,note_off,,,,,16,0,0,,,2,,,75,64
135304,note_off,,,,,32,0,0,,,1,,,83,64
135305,note_on,,,,,1,0,0,,,1,,,82,114
135349,note_off,,,,,44,0,0,,,1,,,82,64
135350,note_on,,,,,1,0,0,,,1,,,83,114
135396,note_off,,,,,46,0,0,,,1,,,83,64
135397,note_on,,,,,1,0,0,,,1,,,84,110
135397,note_on,,,,,0,0,0,,,2,,,71,127
135444,note_on,,,,,47,0,0,,,1,,,81,106
135483,note_off,,,,,39,0,0,,,2,,,71,64
135491,note_off,,,,,8,0,0,,,1,,,81,64
135491,note_off,,,,,0,0,0,,,1,,,84,64
135492,note_on,,,,,1,0,0,,,1,,,83,110
135492,note_on,,,,,0,0,0,,,2,,,71,127
135535,note_on,,,,,43,0,0,,,1,,,79,106
135573,note_off,,,,,38,0,0,,,2,,,71,64
135581,note_off,,,,,8,0,0,,,1,,,79,64
135581,note_off,,,,,0,0,0,,,1,,,83,64
135582,note_on,,,,,1,0,0,,,2,,,71,127
135582,note_on,,,,,0,0,0,,,1,,,81,106
135629,note_on,,,,,47,0,0,,,1,,,78,106
135669,note_off,,,,,40,0,0,,,2,,,71,64
135677,note_off,,,,,8,0,0,,,1,,,78,64
135677,note_off,,,,,0,0,0,,,1,,,81,64
135678,note_on,,,,,1,0,0,,,1,,,79,106
135678,note_on,,,,,0,0,0,,,2,,,71,127
135723,note_on,,,,,45,0,0,,,2,,,76,113
135761,note_off,,,,,38,0,0,,,2,,,71,64
135769,note_off,,,,,8,0,0,,,2,,,76,64
135769,note_off,,,,,0,0,0,,,1,,,79,64
135770,note_on,,,,,1,0,0,,,2,,,71,127
135770,note_on,,,,,0,0,0,,,1,,,78,106
135815,note_on,,,,,45,0,0,,,2,,,74,121
135855,note_off,,,,,40,0,0,,,2,,,71,64
135863,note_off,,,,,8,0,0,,,2,,,74,64
135864,note_off,,,,,1,0,0,,,1,,,78,64
135864,note_on,,,,,0,0,0,,,1,,,81,110
135864,note_on,,,,,0,0,0,,,2,,,71,127
135913,note_off,,,,,49,0,0,,,1,,,81,64
135913,note_on,,,,,0,0,0,,,1,,,78,110
135952,note_off,,,,,39,0,0,,,2,,,71,64
135958,note_off,,,,,6,0,0,,,1,,,78,64
135960,note_on,,,,,2,0,0,,,1,,,79,114
135960,note_on,,,,,0,0,0,,,2,,,71,127
135992,note_off,,,,,32,0,0,,,4,,,66,64
136008,note_on,,,,,16,0,0,,,2,,,76,121
136047,note_off,,,,,39,0,0,,,2,,,71,64
136055,note_off,,,,,8,0,0,,,4,,,60,64
136056,note_on,,,,,1,0,0,,,2,,,75,125
136064,note_off,,,,,8,0,0,,,2,,,76,64
136104,note_on,,,,,40,0,0,,,2,,,76,121
136112,note_off,,,,,8,0,0,,,2,,,75,64
136151,note_on,,,,,39,0,0,,,4,,,64,124
136151,note_on,,,,,0,0,0,,,4,,,55,127
136153,note_off,,,,,2,0,0,,,1,,,79,64
136182,note_off,,,,,29,0,0,,,4,,,38,64
136196,note_off,,,,,14,0,0,,,2,,,76,64
136198,note_on,,,,,2,0,0,,,2,,,76,125
136245,note_on,,,,,47,0,0,,,4,,,57,127
136245,note_on,,,,,0,0,0,,,4,,,66,126
136255,note_off,,,,,10,0,0,,,4,,,55,64
136255,note_off,,,,,0,0,0,,,4,,,64,64
136288,note_off,,,,,33,0,0,,,2,,,76,64
136291,note_on,,,,,3,0,0,,,2,,,76,127
136339,note_on,,,,,48,0,0,,,2,,,67,126
136339,note_on,,,,,0,0,0,,,4,,,59,127
136349,note_off,,,,,10,0,0,,,4,,,66,64
136349,note_off,,,,,0,0,0,,,4,,,57,64
136384,note_off,,,,,35,0,0,,,2,,,76,64
136387,note_on,,,,,3,0,0,,,2,,,76,125
136435,note_on,,,,,48,0,0,,,2,,,69,126
136435,note_on,,,,,0,0,0,,,4,,,60,127
136445,note_off,,,,,10,0,0,,,4,,,59,64
136445,note_off,,,,,0,0,0,,,2,,,67,64
136477,note_off,,,,,32,0,0,,,2,,,76,64
136480,note_on,,,,,3,0,0,,,2,,,76,125
136526,note_on,,,,,46,0,0,,,4,,,59,127
136526,note_on,,,,,0,0,0,,,2,,,67,126
136536,note_off,,,,,10,0,0,,,4,,,60,64
136536,note_off,,,,,0,0,0,,,2,,,69,64
136572,note_off,,,,,36,0,0,,,2,,,76,64
136574,note_on,,,,,2,0,0,,,2,,,76,125
136620,note_on,,,,,46,0,0,,,4,,,66,126
136620,note_on,,,,,0,0,0,,,4,,,57,127
136631,note_off,,,,,11,0,0,,,2,,,67,64
136631,note_off,,,,,0,0,0,,,4,,,59,64
136664,note_off,,,,,33,0,0,,,2,,,76,64
136666,note_on,,,,,2,0,0,,,2,,,76,121
136712,note_on,,,,,46,0,0,,,4,,,64,120
136713,note_on,,,,,1,0,0,,,4,,,55,127
136722,note_off,,,,,9,0,0,,,4,,,57,64
136723,note_off,,,,,1,0,0,,,4,,,66,64
136760,note_off,,,,,37,0,0,,,2,,,76,64
136761,note_on,,,,,1,0,0,,,2,,,76,121
136810,note_off,,,,,49,0,0,,,2,,,76,64
136811,note_on,,,,,1,0,0,,,2,,,75,121
136855,note_off,,,,,44,0,0,,,2,,,75,64
136856,note_on,,,,,1,0,0,,,2,,,76,121
136898,note_off,,,,,42,0,0,,,4,,,64,64
136902,note_on,,,,,4,0,0,,,1,,,79,114
136903,note_on,,,,,1,0,0,,,4,,,64,120
136945,note_off,,,,,42,0,0,,,2,,,76,64
136948,note_on,,,,,3,0,0,,,2,,,76,117
136986,note_off,,,,,38,0,0,,,4,,,64,64
136993,note_off,,,,,7,0,0,,,2,,,76,64
136994,note_off,,,,,1,0,0,,,1,,,79,64
136994,note_on,,,,,0,0,0,,,1,,,78,114
136995,note_on,,,,,1,0,0,,,4,,,64,120
137041,note_on,,,,,46,0,0,,,2,,,74,121
137080,note_off,,,,,39,0,0,,,4,,,64,64
137088,note_off,,,,,8,0,0,,,1,,,78,64
137088,note_on,,,,,0,0,0,,,2,,,76,117
137088,note_on,,,,,0,0,0,,,4,,,64,120
137094,note_off,,,,,6,0,0,,,2,,,74,64
137133,note_on,,,,,39,0,0,,,2,,,73,121
137173,note_off,,,,,40,0,0,,,4,,,64,64
137181,note_off,,,,,8,0,0,,,2,,,76,64
137181,note_on,,,,,0,0,0,,,1,,,78,114
137182,note_on,,,,,1,0,0,,,4,,,64,120
137189,note_off,,,,,7,0,0,,,2,,,73,64
137228,note_on,,,,,39,0,0,,,2,,,74,121
137264,note_off,,,,,36,0,0,,,4,,,64,64
137272,note_off,,,,,8,0,0,,,1,,,78,64
137272,note_on,,,,,0,0,0,,,2,,,76,117
137273,note_on,,,,,1,0,0,,,4,,,64,120
137280,note_off,,,,,7,0,0,,,2,,,74,64
137321,note_on,,,,,41,0,0,,,2,,,73,121
137359,note_off,,,,,38,0,0,,,4,,,64,64
137367,note_off,,,,,8,0,0,,,2,,,76,64
137367,note_on,,,,,0,0,0,,,2,,,74,121
137368,note_on,,,,,1,0,0,,,4,,,64,120
137376,note_off,,,,,8,0,0,,,2,,,73,64
137413,note_on,,,,,37,0,0,,,2,,,71,120
137421,note_off,,,,,8,0,0,,,2,,,74,64
137461,note_on,,,,,40,0,0,,,2,,,70,118
137461,note_on,,,,,0,0,0,,,2,,,73,121
137468,note_off,,,,,7,0,0,,,2,,,71,64
137508,note_on,,,,,40,0,0,,,1,,,78,118
137554,note_off,,,,,46,0,0,,,1,,,78,64
137555,note_on,,,,,1,0,0,,,2,,,77,121
137601,note_off,,,,,46,0,0,,,2,,,77,64
137602,note_on,,,,,1,0,0,,,1,,,78,118
137642,note_off,,,,,40,0,0,,,2,,,70,64
137643,note_off,,,,,1,0,0,,,2,,,73,64
137647,note_off,,,,,4,0,0,,,4,,,64,64
137648,note_on,,,,,1,0,0,,,2,,,70,118
137648,note_on,,,,,0,0,0,,,4,,,66,118
137692,note_off,,,,,44,0,0,,,1,,,78,64
137694,note_on,,,,,2,0,0,,,1,,,78,118
137740,note_off,,,,,46,0,0,,,4,,,66,64
137741,note_off,,,,,1,0,0,,,2,,,70,64
137741,note_on,,,,,0,0,0,,,2,,,71,120
137742,note_on,,,,,1,0,0,,,2,,,68,118
137784,note_off,,,,,42,0,0,,,1,,,78,64
137786,note_on,,,,,2,0,0,,,1,,,78,118
137832,note_off,,,,,46,0,0,,,2,,,68,64
137833,note_off,,,,,1,0,0,,,2,,,71,64
137833,note_on,,,,,0,0,0,,,2,,,73,121
137834,note_on,,,,,1,0,0,,,2,,,70,118
137877,note_off,,,,,43,0,0,,,1,,,78,64
137879,note_on,,,,,2,0,0,,,1,,,78,118
137927,note_off,,,,,48,0,0,,,2,,,70,64
137927,note_off,,,,,0,0,0,,,2,,,73,64
137928,note_on,,,,,1,0,0,,,2,,,71,120
137928,note_on,,,,,0,0,0,,,2,,,74,121
137973,note_off,,,,,45,0,0,,,1,,,78,64
137975,note_on,,,,,2,0,0,,,1,,,78,118
138021,note_off,,,,,46,0,0,,,2,,,74,64
138021,note_off,,,,,0,0,0,,,2,,,71,64
138022,note_on,,,,,1,0,0,,,2,,,73,121
138022,note_on,,,,,0,0,0,,,2,,,70,118
138065,note_off,,,,,43,0,0,,,1,,,78,64
138067,note_on,,,,,2,0,0,,,1,,,78,118
138115,note_off,,,,,48,0,0,,,2,,,70,64
138115,note_off,,,,,0,0,0,,,2,,,73,64
138116,note_on,,,,,1,0,0,,,2,,,71,120
138116,note_on,,,,,0,0,0,,,2,,,68,118
138159,note_off,,,,,43,0,0,,,1,,,78,64
138161,note_on,,,,,2,0,0,,,1,,,78,118
138207,note_off,,,,,46,0,0,,,2,,,68,64
138208,note_off,,,,,1,0,0,,,2,,,71,64
138208,note_on,,,,,0,0,0,,,4,,,66,118
138208,note_on,,,,,0,0,0,,,2,,,70,118
138249,note_off,,,,,41,0,0,,,1,,,78,64
138251,note_on,,,,,2,0,0,,,1,,,78,114
138297,note_on,,,,,46,0,0,,,2,,,77,117
138305,note_off,,,,,8,0,0,,,1,,,78,64
138344,note_on,,,,,39,0,0,,,1,,,78,114
138351,note_off,,,,,7,0,0,,,2,,,77,64
138385,note_off,,,,,34,0,0,,,4,,,66,64
138386,note_off,,,,,1,0,0,,,2,,,70,64
138390,note_on,,,,,4,0,0,,,1,,,79,114
138391,note_on,,,,,1,0,0,,,4,,,66,122
138397,note_off,,,,,6,0,0,,,1,,,78,64
138436,note_on,,,,,39,0,0,,,2,,,76,117
138475,note_off,,,,,39,0,0,,,4,,,66,64
138482,note_off,,,,,7,0,0,,,2,,,76,64
138483,note_off,,,,,1,0,0,,,1,,,79,64
138483,note_on,,,,,0,0,0,,,1,,,78,114
138484,note_on,,,,,1,0,0,,,4,,,66,122
138527,note_on,,,,,43,0,0,,,2,,,74,121
138565,note_off,,,,,38,0,0,,,4,,,66,64
138573,note_off,,,,,8,0,0,,,2,,,74,64
138574,note_off,,,,,1,0,0,,,1,,,78,64
138574,note_on,,,,,0,0,0,,,2,,,76,117
138575,note_on,,,,,1,0,0,,,4,,,66,122
138619,note_on,,,,,44,0,0,,,2,,,73,125
138659,note_off,,,,,40,0,0,,,4,,,66,64
138667,note_off,,,,,8,0,0,,,2,,,73,64
138667,note_off,,,,,0,0,0,,,2,,,76,64
138668,note_on,,,,,1,0,0,,,4,,,66,126
138668,note_on,,,,,0,0,0,,,2,,,74,125
138715,note_on,,,,,47,0,0,,,2,,,71,127
138754,note_off,,,,,39,0,0,,,4,,,66,64
138761,note_off,,,,,7,0,0,,,2,,,71,64
138762,note_off,,,,,1,0,0,,,2,,,74,64
138762,note_on,,,,,0,0,0,,,2,,,73,127
138763,note_on,,,,,1,0,0,,,4,,,66,126
138807,note_on,,,,,44,0,0,,,2,,,69,126
138848,note_off,,,,,41,0,0,,,4,,,66,64
138855,note_off,,,,,7,0,0,,,2,,,69,64
138856,note_off,,,,,1,0,0,,,2,,,73,64
138856,note_on,,,,,0,0,0,,,2,,,76,125
138857,note_on,,,,,1,0,0,,,4,,,66,126
138886,note_off,,,,,29,0,0,,,4,,,55,64
138901,note_off,,,,,15,0,0,,,2,,,76,64
138902,note_on,,,,,1,0,0,,,2,,,73,127
138950,note_off,,,,,48,0,0,,,2,,,73,64
138951,note_on,,,,,1,0,0,,,4,,,59,125
138951,note_on,,,,,0,0,0,,,2,,,74,125
138961,note_off,,,,,10,0,0,,,4,,,66,64
138998,note_on,,,,,37,0,0,,,4,,,66,121
139044,note_on,,,,,46,0,0,,,4,,,62,124
139083,note_off,,,,,39,0,0,,,4,,,66,64
139092,note_on,,,,,9,0,0,,,4,,,66,121
139107,note_off,,,,,15,0,0,,,4,,,59,64
139138,note_on,,,,,31,0,0,,,4,,,59,125
139138,note_on,,,,,0,0,0,,,1,,,86,126
139154,note_off,,,,,16,0,0,,,2,,,74,64
139177,note_off,,,,,23,0,0,,,4,,,66,64
139185,note_on,,,,,8,0,0,,,2,,,67,121
139200,note_off,,,,,15,0,0,,,4,,,62,64
139231,note_on,,,,,31,0,0,,,4,,,62,124
139269,note_off,,,,,38,0,0,,,2,,,67,64
139277,note_on,,,,,8,0,0,,,2,,,67,121
139292,note_off,,,,,15,0,0,,,4,,,59,64
139321,note_on,,,,,29,0,0,,,4,,,59,125
139358,note_off,,,,,37,0,0,,,2,,,67,64
139366,note_on,,,,,8,0,0,,,2,,,67,121
139381,note_off,,,,,15,0,0,,,4,,,62,64
139382,note_off,,,,,1,0,0,,,1,,,86,64
139415,note_on,,,,,33,0,0,,,1,,,83,126
139416,note_on,,,,,1,0,0,,,4,,,62,124
139454,note_off,,,,,38,0,0,,,2,,,67,64
139462,note_on,,,,,8,0,0,,,2,,,67,121
139477,note_off,,,,,15,0,0,,,4,,,59,64
139506,note_on,,,,,29,0,0,,,1,,,79,122
139507,note_on,,,,,1,0,0,,,4,,,59,125
139513,note_off,,,,,6,0,0,,,1,,,83,64
139544,note_off,,,,,31,0,0,,,2,,,67,64
139551,note_on,,,,,7,0,0,,,2,,,67,121
139565,note_off,,,,,14,0,0,,,4,,,62,64
139596,note_on,,,,,31,0,0,,,4,,,62,124
139596,note_on,,,,,0,0,0,,,1,,,78,122
139602,note_off,,,,,6,0,0,,,1,,,79,64
139633,note_off,,,,,31,0,0,,,2,,,67,64
139641,note_on,,,,,8,0,0,,,2,,,67,121
139658,note_off,,,,,17,0,0,,,4,,,59,64
139689,note_on,,,,,31,0,0,,,4,,,59,125
139696,note_off,,,,,7,0,0,,,4,,,62,64
139725,note_off,,,,,29,0,0,,,1,,,78,64
139733,note_on,,,,,8,0,0,,,2,,,77,119
139771,note_off,,,,,38,0,0,,,2,,,77,64
139779,note_on,,,,,8,0,0,,,1,,,80,116
139825,note_on,,,,,46,0,0,,,2,,,77,119
139833,note_off,,,,,8,0,0,,,1,,,80,64
139833,note_off,,,,,0,0,0,,,2,,,67,64
139862,note_off,,,,,29,0,0,,,2,,,77,64
139870,note_on,,,,,8,0,0,,,1,,,83,124
139918,note_on,,,,,48,0,0,,,2,,,77,119
139964,note_on,,,,,46,0,0,,,1,,,80,116
140007,note_off,,,,,43,0,0,,,2,,,77,64
140010,note_on,,,,,3,0,0,,,2,,,77,119
140018,note_off,,,,,8,0,0,,,1,,,80,64
140047,note_off,,,,,29,0,0,,,1,,,83,64
140054,note_on,,,,,7,0,0,,,1,,,85,124
140097,note_off,,,,,43,0,0,,,2,,,77,64
140100,note_on,,,,,3,0,0,,,2,,,77,119
140147,note_on,,,,,47,0,0,,,1,,,80,116
140189,note_off,,,,,42,0,0,,,2,,,77,64
140191,note_on,,,,,2,0,0,,,2,,,77,119
140199,note_off,,,,,8,0,0,,,1,,,80,64
140230,note_off,,,,,31,0,0,,,1,,,85,64
140238,note_on,,,,,8,0,0,,,1,,,86,124
140280,note_off,,,,,42,0,0,,,2,,,77,64
140282,note_on,,,,,2,0,0,,,2,,,77,119
140327,note_on,,,,,45,0,0,,,1,,,80,116
140371,note_off,,,,,44,0,0,,,2,,,77,64
140373,note_on,,,,,2,0,0,,,2,,,77,119
140383,note_off,,,,,10,0,0,,,1,,,80,64
140412,note_off,,,,,29,0,0,,,1,,,86,64
140419,note_on,,,,,7,0,0,,,1,,,78,116
140420,note_on,,,,,1,0,0,,,4,,,57,127
140428,note_off,,,,,8,0,0,,,2,,,77,64
140435,note_off,,,,,7,0,0,,,4,,,59,64
140467,note_on,,,,,32,0,0,,,4,,,66,121
140513,note_on,,,,,46,0,0,,,4,,,61,125
140552,note_off,,,,,39,0,0,,,4,,,66,64
140559,note_on,,,,,7,0,0,,,4,,,66,121
140575,note_off,,,,,16,0,0,,,4,,,57,64
140596,note_off,,,,,21,0,0,,,1,,,78,64
140604,note_on,,,,,8,0,0,,,4,,,57,127
140604,note_on,,,,,0,0,0,,,1,,,84,124
140643,note_off,,,,,39,0,0,,,4,,,66,64
140651,note_on,,,,,8,0,0,,,4,,,66,121
140666,note_off,,,,,15,0,0,,,4,,,61,64
140699,note_on,,,,,33,0,0,,,4,,,60,125
140736,note_off,,,,,37,0,0,,,4,,,66,64
140744,note_on,,,,,8,0,0,,,4,,,66,121
140759,note_off,,,,,15,0,0,,,4,,,57,64
140790,note_on,,,,,31,0,0,,,4,,,57,127
140827,note_off,,,,,37,0,0,,,4,,,66,64
140834,note_on,,,,,7,0,0,,,4,,,66,121
140850,note_off,,,,,16,0,0,,,4,,,60,64
140850,note_off,,,,,0,0,0,,,1,,,84,64
140881,note_on,,,,,31,0,0,,,1,,,81,122
140882,note_on,,,,,1,0,0,,,4,,,60,125
140921,note_off,,,,,39,0,0,,,4,,,66,64
140928,note_on,,,,,7,0,0,,,4,,,66,121
140944,note_off,,,,,16,0,0,,,4,,,57,64
140975,note_on,,,,,31,0,0,,,4,,,57,127
140975,note_on,,,,,0,0,0,,,1,,,78,118
140985,note_off,,,,,10,0,0,,,1,,,81,64
141012,note_off,,,,,27,0,0,,,4,,,66,64
141020,note_on,,,,,8,0,0,,,4,,,66,121
141035,note_off,,,,,15,0,0,,,4,,,60,64
141065,note_on,,,,,30,0,0,,,4,,,60,125
141072,note_on,,,,,7,0,0,,,2,,,76,121
141076,note_off,,,,,4,0,0,,,1,,,78,64
141105,note_off,,,,,29,0,0,,,4,,,66,64
141113,note_on,,,,,8,0,0,,,4,,,66,121
141128,note_off,,,,,15,0,0,,,4,,,57,64
141161,note_on,,,,,33,0,0,,,4,,,57,127
141167,note_off,,,,,6,0,0,,,4,,,60,64
141197,note_off,,,,,30,0,0,,,2,,,76,64
141205,note_on,,,,,8,0,0,,,2,,,75,119
141247,note_off,,,,,42,0,0,,,2,,,75,64
141251,note_on,,,,,4,0,0,,,1,,,78,114
141295,note_on,,,,,44,0,0,,,2,,,75,119
141303,note_off,,,,,8,0,0,,,4,,,66,64
141335,note_off,,,,,32,0,0,,,2,,,75,64
141336,note_off,,,,,1,0,0,,,1,,,78,64
141339,note_on,,,,,3,0,0,,,1,,,81,122
141384,note_on,,,,,45,0,0,,,2,,,75,119
141430,note_on,,,,,46,0,0,,,1,,,78,114
141471,note_off,,,,,41,0,0,,,2,,,75,64
141474,note_on,,,,,3,0,0,,,2,,,75,119
141512,note_off,,,,,38,0,0,,,1,,,81,64
141517,note_off,,,,,5,0,0,,,1,,,78,64
141520,note_on,,,,,3,0,0,,,1,,,83,124
141564,note_off,,,,,44,0,0,,,2,,,75,64
141566,note_on,,,,,2,0,0,,,2,,,75,119
141612,note_on,,,,,46,0,0,,,1,,,78,114
141654,note_off,,,,,42,0,0,,,2,,,75,64
141656,note_on,,,,,2,0,0,,,2,,,75,119
141696,note_off,,,,,40,0,0,,,1,,,83,64
141702,note_off,,,,,6,0,0,,,1,,,78,64
141704,note_on,,,,,2,0,0,,,1,,,84,124
141746,note_off,,,,,42,0,0,,,2,,,75,64
141748,note_on,,,,,2,0,0,,,2,,,75,119
141796,note_on,,,,,48,0,0,,,1,,,78,114
141840,note_off,,,,,44,0,0,,,2,,,75,64
141844,note_on,,,,,4,0,0,,,2,,,75,119
141858,note_off,,,,,14,0,0,,,1,,,78,64
141883,note_off,,,,,25,0,0,,,1,,,84,64
141890,note_off,,,,,7,0,0,,,4,,,57,64
141891,note_on,,,,,1,0,0,,,2,,,76,117
141891,note_on,,,,,0,0,0,,,4,,,55,127
141905,note_off,,,,,14,0,0,,,2,,,75,64
141937,note_on,,,,,32,0,0,,,4,,,64,119
141985,note_on,,,,,48,0,0,,,4,,,59,125
142024,note_off,,,,,39,0,0,,,4,,,64,64
142032,note_on,,,,,8,0,0,,,4,,,64,119
142047,note_off,,,,,15,0,0,,,4,,,55,64
142068,note_off,,,,,21,0,0,,,2,,,76,64
142076,note_on,,,,,8,0,0,,,1,,,82,122
142076,note_on,,,,,0,0,0,,,4,,,55,127
142111,note_off,,,,,35,0,0,,,4,,,64,64
142119,note_on,,,,,8,0,0,,,4,,,64,119
142136,note_off,,,,,17,0,0,,,4,,,59,64
142169,note_on,,,,,33,0,0,,,4,,,58,121
142207,note_off,,,,,38,0,0,,,4,,,64,64
142217,note_on,,,,,10,0,0,,,4,,,64,119
142233,note_off,,,,,16,0,0,,,4,,,55,64
142266,note_on,,,,,33,0,0,,,4,,,55,127
142304,note_off,,,,,38,0,0,,,4,,,64,64
142312,note_on,,,,,8,0,0,,,4,,,64,119
142325,note_off,,,,,13,0,0,,,1,,,82,64
142327,note_off,,,,,2,0,0,,,4,,,58,64
142355,note_on,,,,,28,0,0,,,1,,,79,122
142356,note_on,,,,,1,0,0,,,4,,,58,121
142394,note_off,,,,,38,0,0,,,4,,,64,64
142400,note_on,,,,,6,0,0,,,4,,,64,119
142417,note_off,,,,,17,0,0,,,4,,,55,64
142439,note_off,,,,,22,0,0,,,1,,,79,64
142446,note_on,,,,,7,0,0,,,2,,,76,123
142448,note_on,,,,,2,0,0,,,4,,,55,127
142485,note_off,,,,,37,0,0,,,4,,,64,64
142492,note_on,,,,,7,0,0,,,4,,,64,119
142510,note_off,,,,,18,0,0,,,4,,,58,64
142531,note_off,,,,,21,0,0,,,2,,,76,64
142538,note_on,,,,,7,0,0,,,2,,,74,125
142539,note_on,,,,,1,0,0,,,4,,,58,121
142578,note_off,,,,,39,0,0,,,4,,,64,64
142585,note_on,,,,,7,0,0,,,4,,,64,119
142603,note_off,,,,,18,0,0,,,4,,,55,64
142632,note_on,,,,,29,0,0,,,4,,,55,127
142639,note_off,,,,,7,0,0,,,4,,,58,64
142670,note_off,,,,,31,0,0,,,2,,,74,64
142676,note_on,,,,,6,0,0,,,2,,,73,123
142716,note_off,,,,,40,0,0,,,2,,,73,64
142720,note_on,,,,,4,0,0,,,2,,,76,121
142764,note_on,,,,,44,0,0,,,2,,,73,123
142774,note_off,,,,,10,0,0,,,4,,,64,64
142781,note_off,,,,,7,0,0,,,2,,,76,64
142806,note_off,,,,,25,0,0,,,2,,,73,64
142812,note_on,,,,,6,0,0,,,1,,,79,122
142856,note_on,,,,,44,0,0,,,2,,,73,123
142900,note_on,,,,,44,0,0,,,2,,,76,121
142944,note_off,,,,,44,0,0,,,2,,,73,64
142947,note_on,,,,,3,0,0,,,2,,,73,123
142962,note_off,,,,,15,0,0,,,2,,,76,64
142983,note_off,,,,,21,0,0,,,1,,,79,64
142991,note_on,,,,,8,0,0,,,1,,,81,122
143033,note_off,,,,,42,0,0,,,2,,,73,64
143035,note_on,,,,,2,0,0,,,2,,,73,123
143079,note_on,,,,,44,0,0,,,2,,,76,121
143121,note_off,,,,,42,0,0,,,2,,,73,64
143123,note_on,,,,,2,0,0,,,2,,,73,123
143139,note_off,,,,,16,0,0,,,2,,,76,64
143161,note_off,,,,,22,0,0,,,1,,,81,64
143169,note_on,,,,,8,0,0,,,1,,,82,122
143211,note_off,,,,,42,0,0,,,2,,,73,64
143214,note_on,,,,,3,0,0,,,2,,,73,123
143262,note_on,,,,,48,0,0,,,2,,,76,121
143304,note_off,,,,,42,0,0,,,2,,,73,64
143307,note_on,,,,,3,0,0,,,2,,,73,123
143323,note_off,,,,,16,0,0,,,2,,,76,64
143346,note_off,,,,,23,0,0,,,1,,,82,64
143354,note_off,,,,,8,0,0,,,4,,,55,64
143354,note_on,,,,,0,0,0,,,4,,,65,116
143354,note_on,,,,,0,0,0,,,2,,,69,116
143397,note_off,,,,,43,0,0,,,2,,,73,64
143401,note_on,,,,,4,0,0,,,2,,,74,125
143449,note_on,,,,,48,0,0,,,1,,,86,124
143493,note_off,,,,,44,0,0,,,2,,,74,64
143495,note_on,,,,,2,0,0,,,2,,,74,125
143543,note_on,,,,,48,0,0,,,2,,,67,116
143543,note_on,,,,,0,0,0,,,4,,,64,114
143550,note_off,,,,,7,0,0,,,2,,,69,64
143550,note_off,,,,,0,0,0,,,4,,,65,64
143587,note_off,,,,,37,0,0,,,2,,,74,64
143591,note_on,,,,,4,0,0,,,2,,,73,125
143637,note_on,,,,,46,0,0,,,1,,,85,121
143641,note_off,,,,,4,0,0,,,1,,,86,64
143683,note_off,,,,,42,0,0,,,2,,,73,64
143685,note_on,,,,,2,0,0,,,2,,,73,125
143733,note_on,,,,,48,0,0,,,2,,,69,116
143734,note_on,,,,,1,0,0,,,4,,,65,116
143736,note_off,,,,,2,0,0,,,4,,,64,64
143736,note_off,,,,,0,0,0,,,2,,,67,64
143774,note_off,,,,,38,0,0,,,2,,,73,64
143777,note_on,,,,,3,0,0,,,2,,,74,125
143825,note_on,,,,,48,0,0,,,1,,,86,121
143829,note_off,,,,,4,0,0,,,1,,,85,64
143869,note_off,,,,,40,0,0,,,2,,,74,64
143873,note_on,,,,,4,0,0,,,2,,,74,125
143917,note_on,,,,,44,0,0,,,4,,,64,114
143918,note_on,,,,,1,0,0,,,4,,,61,120
143922,note_off,,,,,4,0,0,,,2,,,69,64
143922,note_off,,,,,0,0,0,,,4,,,65,64
143962,note_off,,,,,40,0,0,,,2,,,74,64
143964,note_on,,,,,2,0,0,,,2,,,69,121
144009,note_on,,,,,45,0,0,,,1,,,81,119
144012,note_off,,,,,3,0,0,,,1,,,86,64
144051,note_off,,,,,39,0,0,,,2,,,69,64
144053,note_on,,,,,2,0,0,,,2,,,69,121
144099,note_on,,,,,46,0,0,,,4,,,62,119
144099,note_on,,,,,0,0,0,,,4,,,65,116
144103,note_off,,,,,4,0,0,,,4,,,61,64
144104,note_off,,,,,1,0,0,,,4,,,64,64
144143,note_off,,,,,39,0,0,,,2,,,69,64
144145,note_on,,,,,2,0,0,,,2,,,70,121
144192,note_on,,,,,47,0,0,,,1,,,82,113
144196,note_off,,,,,4,0,0,,,1,,,81,64
144234,note_off,,,,,38,0,0,,,2,,,70,64
144236,note_on,,,,,2,0,0,,,2,,,70,121
144282,note_on,,,,,46,0,0,,,4,,,64,114
144283,note_on,,,,,1,0,0,,,4,,,61,120
144285,note_off,,,,,2,0,0,,,4,,,62,64
144286,note_off,,,,,1,0,0,,,4,,,65,64
144326,note_off,,,,,40,0,0,,,2,,,70,64
144328,note_on,,,,,2,0,0,,,2,,,69,121
144372,note_on,,,,,44,0,0,,,1,,,81,113
144376,note_off,,,,,4,0,0,,,1,,,82,64
144415,note_off,,,,,39,0,0,,,2,,,69,64
144419,note_on,,,,,4,0,0,,,2,,,69,121
144465,note_on,,,,,46,0,0,,,4,,,65,116
144466,note_on,,,,,1,0,0,,,4,,,62,119
144468,note_off,,,,,2,0,0,,,4,,,61,64
144468,note_off,,,,,0,0,0,,,4,,,64,64
144507,note_off,,,,,39,0,0,,,2,,,69,64
144509,note_on,,,,,2,0,0,,,2,,,70,121
144555,note_on,,,,,46,0,0,,,1,,,82,113
144559,note_off,,,,,4,0,0,,,1,,,81,64
144597,note_off,,,,,38,0,0,,,2,,,70,64
144598,note_on,,,,,1,0,0,,,2,,,70,121
144643,note_on,,,,,45,0,0,,,4,,,60,120
144644,note_on,,,,,1,0,0,,,4,,,57,127
144648,note_off,,,,,4,0,0,,,4,,,65,64
144648,note_off,,,,,0,0,0,,,4,,,62,64
144685,note_off,,,,,37,0,0,,,2,,,70,64
144689,note_on,,,,,4,0,0,,,4,,,66,121
144733,note_on,,,,,44,0,0,,,1,,,78,113
144737,note_off,,,,,4,0,0,,,1,,,82,64
144778,note_off,,,,,41,0,0,,,4,,,66,64
144780,note_on,,,,,2,0,0,,,4,,,66,121
144824,note_on,,,,,44,0,0,,,4,,,58,116
144824,note_on,,,,,0,0,0,,,4,,,62,119
144828,note_off,,,,,4,0,0,,,4,,,57,64
144829,note_off,,,,,1,0,0,,,4,,,60,64
144868,note_off,,,,,39,0,0,,,4,,,66,64
144870,note_on,,,,,2,0,0,,,2,,,67,121
144916,note_on,,,,,46,0,0,,,1,,,79,113
144920,note_off,,,,,4,0,0,,,1,,,78,64
144960,note_off,,,,,40,0,0,,,2,,,67,64
144964,note_on,,,,,4,0,0,,,2,,,67,121
145010,note_on,,,,,46,0,0,,,4,,,60,120
145010,note_on,,,,,0,0,0,,,4,,,57,127
145013,note_off,,,,,3,0,0,,,4,,,62,64
145013,note_off,,,,,0,0,0,,,4,,,58,64
145054,note_off,,,,,41,0,0,,,2,,,67,64
145056,note_on,,,,,2,0,0,,,4,,,66,121
145102,note_on,,,,,46,0,0,,,1,,,78,113
145106,note_off,,,,,4,0,0,,,1,,,79,64
145144,note_off,,,,,38,0,0,,,4,,,66,64
145147,note_on,,,,,3,0,0,,,4,,,66,121
145192,note_on,,,,,45,0,0,,,4,,,62,119
145193,note_on,,,,,1,0,0,,,4,,,58,116
145197,note_off,,,,,4,0,0,,,4,,,57,64
145198,note_off,,,,,1,0,0,,,4,,,60,64
145236,note_off,,,,,38,0,0,,,4,,,66,64
145240,note_on,,,,,4,0,0,,,2,,,67,121
145284,note_on,,,,,44,0,0,,,1,,,79,113
145288,note_off,,,,,4,0,0,,,1,,,78,64
145329,note_off,,,,,41,0,0,,,2,,,67,64
145332,note_on,,,,,3,0,0,,,2,,,67,121
145377,note_on,,,,,45,0,0,,,4,,,57,127
145377,note_on,,,,,0,0,0,,,4,,,60,120
145380,note_off,,,,,3,0,0,,,4,,,62,64
145380,note_off,,,,,0,0,0,,,4,,,58,64
145417,note_off,,,,,37,0,0,,,2,,,67,64
145419,note_on,,,,,2,0,0,,,4,,,65,121
145465,note_on,,,,,46,0,0,,,2,,,77,116
145469,note_off,,,,,4,0,0,,,1,,,79,64
145509,note_off,,,,,40,0,0,,,4,,,65,64
145511,note_on,,,,,2,0,0,,,4,,,65,121
145556,note_on,,,,,45,0,0,,,4,,,55,127
145556,note_on,,,,,0,0,0,,,4,,,58,116
145560,note_off,,,,,4,0,0,,,4,,,60,64
145560,note_off,,,,,0,0,0,,,4,,,57,64
145599,note_off,,,,,39,0,0,,,4,,,65,64
145601,note_on,,,,,2,0,0,,,4,,,63,120
145648,note_on,,,,,47,0,0,,,2,,,75,121
145652,note_off,,,,,4,0,0,,,2,,,77,64
145690,note_off,,,,,38,0,0,,,4,,,63,64
145693,note_on,,,,,3,0,0,,,4,,,63,120
145740,note_on,,,,,47,0,0,,,4,,,54,127
145740,note_on,,,,,0,0,0,,,4,,,57,127
145744,note_off,,,,,4,0,0,,,4,,,55,64
145745,note_off,,,,,1,0,0,,,4,,,58,64
145786,note_off,,,,,41,0,0,,,4,,,63,64
145788,note_on,,,,,2,0,0,,,4,,,62,124
145836,note_on,,,,,48,0,0,,,2,,,74,121
145838,note_off,,,,,2,0,0,,,2,,,75,64
145879,note_off,,,,,41,0,0,,,4,,,62,64
145881,note_on,,,,,2,0,0,,,4,,,62,124
145930,note_on,,,,,49,0,0,,,4,,,58,116
145931,note_on,,,,,1,0,0,,,4,,,55,127
145934,note_off,,,,,3,0,0,,,4,,,54,64
145935,note_off,,,,,1,0,0,,,4,,,57,64
145974,note_off,,,,,39,0,0,,,4,,,62,64
145976,note_on,,,,,2,0,0,,,4,,,63,120
146022,note_on,,,,,46,0,0,,,2,,,75,121
146026,note_off,,,,,4,0,0,,,2,,,74,64
146066,note_off,,,,,40,0,0,,,4,,,63,64
146070,note_on,,,,,4,0,0,,,4,,,63,120
146114,note_on,,,,,44,0,0,,,4,,,59,120
146115,note_on,,,,,1,0,0,,,4,,,56,127
146117,note_off,,,,,2,0,0,,,4,,,55,64
146117,note_off,,,,,0,0,0,,,4,,,58,64
146158,note_off,,,,,41,0,0,,,4,,,63,64
146160,note_on,,,,,2,0,0,,,4,,,62,124
146207,note_on,,,,,47,0,0,,,2,,,74,123
146210,note_off,,,,,3,0,0,,,2,,,75,64
146249,note_off,,,,,39,0,0,,,4,,,62,64
146253,note_on,,,,,4,0,0,,,4,,,62,127
146295,note_off,,,,,42,0,0,,,2,,,74,64
146295,note_on,,,,,0,0,0,,,2,,,73,127
146296,note_on,,,,,1,0,0,,,4,,,45,127
146296,note_on,,,,,0,0,0,,,4,,,57,127
146298,note_off,,,,,2,0,0,,,4,,,56,64
146299,note_off,,,,,1,0,0,,,4,,,59,64
146338,note_off,,,,,39,0,0,,,4,,,62,64
146342,note_on,,,,,4,0,0,,,2,,,71,127
146348,note_off,,,,,6,0,0,,,2,,,73,64
146386,note_on,,,,,38,0,0,,,2,,,69,126
146394,note_off,,,,,8,0,0,,,2,,,71,64
146432,note_on,,,,,38,0,0,,,2,,,68,126
146440,note_off,,,,,8,0,0,,,2,,,69,64
146476,note_on,,,,,36,0,0,,,2,,,69,126
146482,note_off,,,,,6,0,0,,,2,,,68,64
146520,note_on,,,,,38,0,0,,,2,,,71,127
146528,note_off,,,,,8,0,0,,,2,,,69,64
146563,note_on,,,,,35,0,0,,,2,,,73,127
146570,note_off,,,,,7,0,0,,,2,,,71,64
146603,note_on,,,,,33,0,0,,,2,,,74,127
146611,note_off,,,,,8,0,0,,,2,,,73,64
146643,note_on,,,,,32,0,0,,,2,,,76,127
146651,note_off,,,,,8,0,0,,,2,,,74,64
146686,note_on,,,,,35,0,0,,,2,,,74,127
146691,note_off,,,,,5,0,0,,,2,,,76,64
146726,note_on,,,,,35,0,0,,,2,,,73,127
146734,note_off,,,,,8,0,0,,,2,,,74,64
146768,note_on,,,,,34,0,0,,,2,,,71,127
146776,note_off,,,,,8,0,0,,,2,,,73,64
146812,note_on,,,,,36,0,0,,,2,,,73,127
146820,note_off,,,,,8,0,0,,,2,,,71,64
146856,note_on,,,,,36,0,0,,,2,,,74,127
146862,note_off,,,,,6,0,0,,,2,,,73,64
146899,note_on,,,,,37,0,0,,,2,,,76,127
146906,note_off,,,,,7,0,0,,,2,,,74,64
146941,note_off,,,,,35,0,0,,,2,,,76,64
146941,note_on,,,,,0,0,0,,,1,,,78,126
146982,note_off,,,,,41,0,0,,,1,,,78,64
146983,note_on,,,,,1,0,0,,,1,,,79,126
147024,note_off,,,,,41,0,0,,,1,,,79,64
147024,note_on,,,,,0,0,0,,,1,,,78,126
147065,note_off,,,,,41,0,0,,,1,,,78,64
147065,note_on,,,,,0,0,0,,,2,,,76,127
147106,note_off,,,,,41,0,0,,,2,,,76,64
147107,note_on,,,,,1,0,0,,,1,,,78,126
147149,note_on,,,,,42,0,0,,,2,,,76,127
147155,note_off,,,,,6,0,0,,,1,,,78,64
147190,note_on,,,,,35,0,0,,,2,,,74,127
147197,note_off,,,,,7,0,0,,,2,,,76,64
147232,note_on,,,,,35,0,0,,,2,,,73,127
147240,note_off,,,,,8,0,0,,,2,,,74,64
147274,note_on,,,,,34,0,0,,,2,,,74,127
147282,note_off,,,,,8,0,0,,,2,,,73,64
147320,note_on,,,,,38,0,0,,,2,,,73,127
147328,note_off,,,,,8,0,0,,,2,,,74,64
147362,note_on,,,,,34,0,0,,,2,,,71,127
147370,note_off,,,,,8,0,0,,,2,,,73,64
147407,note_on,,,,,37,0,0,,,2,,,69,126
147412,note_off,,,,,5,0,0,,,2,,,71,64
147449,note_on,,,,,37,0,0,,,2,,,71,127
147456,note_off,,,,,7,0,0,,,2,,,69,64
147493,note_on,,,,,37,0,0,,,2,,,69,126
147501,note_off,,,,,8,0,0,,,2,,,71,64
147533,note_on,,,,,32,0,0,,,2,,,67,126
147541,note_off,,,,,8,0,0,,,2,,,69,64
147578,note_on,,,,,37,0,0,,,4,,,66,126
147586,note_off,,,,,8,0,0,,,2,,,67,64
147623,note_on,,,,,37,0,0,,,4,,,64,124
147632,note_off,,,,,9,0,0,,,4,,,66,64
147659,note_off,,,,,27,0,0,,,4,,,45,64
147660,note_off,,,,,1,0,0,,,4,,,57,64
147675,note_off,,,,,15,0,0,,,4,,,64,64
147678,note_on,,,,,3,0,0,,,4,,,38,127
147678,note_on,,,,,0,0,0,,,4,,,50,127
147678,note_on,,,,,0,0,0,,,4,,,62,127
147690,note_on,,,,,12,0,0,,,4,,,66,126
147701,note_on,,,,,11,0,0,,,2,,,69,126
147711,note_on,,,,,10,0,0,,,2,,,74,127
147997,note_off,,,,,286,0,0,,,4,,,62,64
148008,note_off,,,,,11,0,0,,,4,,,66,64
148018,note_off,,,,,10,0,0,,,2,,,69,64
148030,note_off,,,,,12,0,0,,,2,,,74,64
148043,note_off,,,,,13,0,0,,,4,,,50,64
148043,note_on,,,,,0,0,0,,,2,,,67,126
148044,note_on,,,,,1,0,0,,,4,,,55,127
148089,note_on,,,,,45,0,0,,,4,,,66,126
148089,note_on,,,,,0,0,0,,,4,,,54,127
148093,note_off,,,,,4,0,0,,,2,,,67,64
148093,note_off,,,,,0,0,0,,,4,,,55,64
148131,note_on,,,,,38,0,0,,,4,,,64,127
148131,note_on,,,,,0,0,0,,,4,,,52,127
148139,note_off,,,,,8,0,0,,,4,,,54,64
148139,note_off,,,,,0,0,0,,,4,,,66,64
148178,note_on,,,,,39,0,0,,,4,,,62,127
148178,note_on,,,,,0,0,0,,,4,,,50,127
148183,note_off,,,,,5,0,0,,,4,,,52,64
148183,note_off,,,,,0,0,0,,,4,,,64,64
148224,note_on,,,,,41,0,0,,,2,,,67,127
148224,note_on,,,,,0,0,0,,,4,,,55,127
148230,note_off,,,,,6,0,0,,,4,,,50,64
148231,note_off,,,,,1,0,0,,,4,,,62,64
148270,note_on,,,,,39,0,0,,,4,,,66,127
148271,note_on,,,,,1,0,0,,,4,,,54,127
148274,note_off,,,,,3,0,0,,,4,,,55,64
148275,note_off,,,,,1,0,0,,,2,,,67,64
148312,note_on,,,,,37,0,0,,,4,,,64,127
148313,note_on,,,,,1,0,0,,,4,,,52,127
148317,note_off,,,,,4,0,0,,,4,,,54,64
148317,note_off,,,,,0,0,0,,,4,,,66,64
148358,note_on,,,,,41,0,0,,,4,,,62,127
148359,note_on,,,,,1,0,0,,,4,,,50,127
148365,note_off,,,,,6,0,0,,,4,,,64,64
148365,note_off,,,,,0,0,0,,,4,,,52,64
148406,note_on,,,,,41,0,0,,,2,,,69,126
148407,note_on,,,,,1,0,0,,,4,,,57,127
148411,note_off,,,,,4,0,0,,,4,,,50,64
148411,note_off,,,,,0,0,0,,,4,,,62,64
148583,note_off,,,,,172,0,0,,,4,,,57,64
148584,note_off,,,,,1,0,0,,,2,,,69,64
148590,note_on,,,,,6,0,0,,,4,,,66,126
148590,note_on,,,,,0,0,0,,,4,,,54,127
148765,note_off,,,,,175,0,0,,,4,,,54,64
148766,note_off,,,,,1,0,0,,,4,,,66,64
148774,note_on,,,,,8,0,0,,,2,,,71,127
148775,note_on,,,,,1,0,0,,,4,,,59,127
149020,note_off,,,,,245,0,0,,,2,,,71,64
149020,note_off,,,,,0,0,0,,,4,,,59,64
149050,note_on,,,,,30,0,0,,,4,,,66,126
149050,note_on,,,,,0,0,0,,,4,,,54,127
149145,note_off,,,,,95,0,0,,,4,,,54,64
149145,note_off,,,,,0,0,0,,,4,,,66,64
149146,note_on,,,,,1,0,0,,,2,,,67,126
149146,note_on,,,,,0,0,0,,,4,,,55,127
149237,note_off,,,,,91,0,0,,,4,,,55,64
149237,note_off,,,,,0,0,0,,,2,,,67,64
149238,note_on,,,,,1,0,0,,,4,,,52,127
149238,note_on,,,,,0,0,0,,,4,,,64,124
149329,note_off,,,,,91,0,0,,,4,,,64,64
149329,note_off,,,,,0,0,0,,,4,,,52,64
149330,note_on,,,,,1,0,0,,,2,,,69,126
149330,note_on,,,,,0,0,0,,,4,,,57,127
149419,note_off,,,,,89,0,0,,,4,,,57,64
149420,note_off,,,,,1,0,0,,,2,,,69,64
149420,note_on,,,,,0,0,0,,,4,,,66,126
149421,note_on,,,,,1,0,0,,,4,,,54,127
149508,note_off,,,,,87,0,0,,,4,,,54,64
149508,note_off,,,,,0,0,0,,,4,,,66,64
149508,note_on,,,,,0,0,0,,,4,,,62,127
149509,note_on,,,,,1,0,0,,,4,,,50,127
149604,note_off,,,,,95,0,0,,,4,,,62,64
149604,note_off,,,,,0,0,0,,,4,,,50,64
149604,note_on,,,,,0,0,0,,,4,,,59,127
149605,note_on,,,,,1,0,0,,,4,,,47,127
149694,note_off,,,,,89,0,0,,,4,,,47,64
149694,note_off,,,,,0,0,0,,,4,,,59,64
149695,note_on,,,,,1,0,0,,,4,,,52,127
149695,note_on,,,,,0,0,0,,,4,,,64,124
149786,note_off,,,,,91,0,0,,,4,,,64,64
149786,note_off,,,,,0,0,0,,,4,,,52,64
149787,note_on,,,,,1,0,0,,,4,,,61,127
149787,note_on,,,,,0,0,0,,,4,,,49,127
149880,note_off,,,,,93,0,0,,,4,,,49,64
149880,note_off,,,,,0,0,0,,,4,,,61,64
149881,note_on,,,,,1,0,0,,,4,,,45,127
149881,note_on,,,,,0,0,0,,,4,,,57,127
149949,note_off,,,,,68,0,0,,,4,,,57,64
149974,note_off,,,,,25,0,0,,,4,,,38,64
149975,note_on,,,,,1,0,0,,,4,,,57,127
150034,note_off,,,,,59,0,0,,,4,,,45,64
150065,note_on,,,,,31,0,0,,,4,,,45,127
150128,note_off,,,,,63,0,0,,,4,,,57,64
150159,note_on,,,,,31,0,0,,,4,,,57,127
150222,note_off,,,,,63,0,0,,,4,,,45,64
150253,note_on,,,,,31,0,0,,,4,,,45,127
150314,note_off,,,,,61,0,0,,,4,,,57,64
150345,note_on,,,,,31,0,0,,,2,,,74,125
150346,note_on,,,,,1,0,0,,,4,,,57,127
150346,note_on,,,,,0,0,0,,,4,,,66,126
150403,note_off,,,,,57,0,0,,,4,,,45,64
150418,note_off,,,,,15,0,0,,,4,,,66,64
150418,note_off,,,,,0,0,0,,,2,,,74,64
150434,note_on,,,,,16,0,0,,,4,,,66,126
150434,note_on,,,,,0,0,0,,,2,,,74,125
150435,note_on,,,,,1,0,0,,,4,,,45,127
150493,note_off,,,,,58,0,0,,,4,,,57,64
150514,note_off,,,,,21,0,0,,,4,,,66,64
150515,note_off,,,,,1,0,0,,,2,,,74,64
150523,note_on,,,,,8,0,0,,,2,,,74,125
150523,note_on,,,,,0,0,0,,,4,,,66,126
150523,note_on,,,,,0,0,0,,,4,,,57,127
150581,note_off,,,,,58,0,0,,,4,,,45,64
150604,note_off,,,,,23,0,0,,,4,,,66,64
150605,note_off,,,,,1,0,0,,,2,,,74,64
150611,note_on,,,,,6,0,0,,,2,,,74,125
150612,note_on,,,,,1,0,0,,,4,,,45,127
150612,note_on,,,,,0,0,0,,,4,,,66,126
150671,note_off,,,,,59,0,0,,,4,,,57,64
150684,note_off,,,,,13,0,0,,,4,,,66,64
150684,note_off,,,,,0,0,0,,,2,,,74,64
150700,note_on,,,,,16,0,0,,,2,,,73,125
150701,note_on,,,,,1,0,0,,,4,,,57,127
150701,note_on,,,,,0,0,0,,,4,,,64,124
150761,note_off,,,,,60,0,0,,,4,,,45,64
150776,note_off,,,,,15,0,0,,,4,,,64,64
150777,note_off,,,,,1,0,0,,,2,,,73,64
150792,note_on,,,,,15,0,0,,,2,,,73,125
150793,note_on,,,,,1,0,0,,,4,,,64,124
150793,note_on,,,,,0,0,0,,,4,,,45,127
150853,note_off,,,,,60,0,0,,,4,,,57,64
150884,note_on,,,,,31,0,0,,,4,,,57,127
150945,note_off,,,,,61,0,0,,,4,,,45,64
150976,note_on,,,,,31,0,0,,,4,,,45,127
151037,note_off,,,,,61,0,0,,,4,,,57,64
151038,note_off,,,,,1,0,0,,,2,,,73,64
151038,note_off,,,,,0,0,0,,,4,,,64,64
151065,note_on,,,,,27,0,0,,,1,,,78,122
151066,note_on,,,,,1,0,0,,,4,,,57,127
151066,note_on,,,,,0,0,0,,,2,,,74,125
151127,note_off,,,,,61,0,0,,,4,,,45,64
151140,note_off,,,,,13,0,0,,,2,,,74,64
151140,note_off,,,,,0,0,0,,,1,,,78,64
151154,note_on,,,,,14,0,0,,,1,,,78,122
151155,note_on,,,,,1,0,0,,,4,,,45,127
151155,note_on,,,,,0,0,0,,,2,,,74,125
151215,note_off,,,,,60,0,0,,,4,,,57,64
151238,note_off,,,,,23,0,0,,,1,,,78,64
151238,note_off,,,,,0,0,0,,,2,,,74,64
151245,note_on,,,,,7,0,0,,,1,,,78,122
151245,note_on,,,,,0,0,0,,,2,,,74,125
151246,note_on,,,,,1,0,0,,,4,,,57,127
151304,note_off,,,,,58,0,0,,,4,,,45,64
151327,note_off,,,,,23,0,0,,,2,,,74,64
151328,note_off,,,,,1,0,0,,,1,,,78,64
151334,note_on,,,,,6,0,0,,,1,,,78,122
151334,note_on,,,,,0,0,0,,,2,,,74,125
151335,note_on,,,,,1,0,0,,,4,,,45,127
151392,note_off,,,,,57,0,0,,,4,,,57,64
151406,note_off,,,,,14,0,0,,,2,,,74,64
151406,note_off,,,,,0,0,0,,,1,,,78,64
151420,note_on,,,,,14,0,0,,,2,,,76,125
151421,note_on,,,,,1,0,0,,,4,,,57,127
151421,note_on,,,,,0,0,0,,,2,,,73,125
151477,note_off,,,,,56,0,0,,,4,,,45,64
151492,note_off,,,,,15,0,0,,,2,,,73,64
151493,note_off,,,,,1,0,0,,,2,,,76,64
151507,note_on,,,,,14,0,0,,,2,,,73,125
151507,note_on,,,,,0,0,0,,,2,,,76,125
151508,note_on,,,,,1,0,0,,,4,,,45,127
151567,note_off,,,,,59,0,0,,,4,,,57,64
151598,note_on,,,,,31,0,0,,,4,,,57,127
151659,note_off,,,,,61,0,0,,,4,,,45,64
151690,note_on,,,,,31,0,0,,,4,,,45,127
151750,note_off,,,,,60,0,0,,,2,,,73,64
151750,note_off,,,,,0,0,0,,,4,,,57,64
151751,note_off,,,,,1,0,0,,,2,,,76,64
151781,note_on,,,,,30,0,0,,,1,,,81,122
151782,note_on,,,,,1,0,0,,,4,,,57,127
151782,note_on,,,,,0,0,0,,,1,,,78,122
151842,note_off,,,,,60,0,0,,,4,,,45,64
151857,note_off,,,,,15,0,0,,,1,,,78,64
151858,note_off,,,,,1,0,0,,,1,,,81,64
151872,note_on,,,,,14,0,0,,,4,,,45,127
151872,note_on,,,,,0,0,0,,,1,,,78,122
151872,note_on,,,,,0,0,0,,,1,,,81,122
151933,note_off,,,,,61,0,0,,,4,,,57,64
151955,note_off,,,,,22,0,0,,,1,,,81,64
151955,note_off,,,,,0,0,0,,,1,,,78,64
151963,note_on,,,,,8,0,0,,,1,,,81,122
151963,note_on,,,,,0,0,0,,,1,,,78,122
151964,note_on,,,,,1,0,0,,,4,,,57,127
152025,note_off,,,,,61,0,0,,,4,,,45,64
152048,note_off,,,,,23,0,0,,,1,,,78,64
152049,note_off,,,,,1,0,0,,,1,,,81,64
152057,note_on,,,,,8,0,0,,,4,,,45,127
152057,note_on,,,,,0,0,0,,,1,,,79,122
152102,note_on,,,,,45,0,0,,,1,,,78,122
152108,note_off,,,,,6,0,0,,,1,,,79,64
152144,note_on,,,,,36,0,0,,,1,,,79,122
152152,note_off,,,,,8,0,0,,,1,,,78,64
152186,note_on,,,,,34,0,0,,,1,,,81,122
152192,note_off,,,,,6,0,0,,,1,,,79,64
152227,note_on,,,,,35,0,0,,,1,,,83,122
152234,note_off,,,,,7,0,0,,,1,,,81,64
152271,note_on,,,,,37,0,0,,,1,,,81,122
152276,note_off,,,,,5,0,0,,,1,,,83,64
152310,note_on,,,,,34,0,0,,,1,,,79,122
152316,note_off,,,,,6,0,0,,,1,,,81,64
152352,note_on,,,,,36,0,0,,,1,,,78,122
152358,note_off,,,,,6,0,0,,,1,,,79,64
152395,note_on,,,,,37,0,0,,,2,,,76,125
152403,note_off,,,,,8,0,0,,,1,,,78,64
152438,note_on,,,,,35,0,0,,,2,,,75,125
152446,note_off,,,,,8,0,0,,,2,,,76,64
152485,note_on,,,,,39,0,0,,,2,,,76,125
152489,note_off,,,,,4,0,0,,,2,,,75,64
152523,note_on,,,,,34,0,0,,,1,,,78,122
152533,note_off,,,,,10,0,0,,,2,,,76,64
152564,note_on,,,,,31,0,0,,,1,,,79,122
152569,note_off,,,,,5,0,0,,,1,,,78,64
152604,note_on,,,,,35,0,0,,,1,,,78,122
152610,note_off,,,,,6,0,0,,,1,,,79,64
152644,note_on,,,,,34,0,0,,,2,,,76,125
152651,note_off,,,,,7,0,0,,,1,,,78,64
152687,note_on,,,,,36,0,0,,,2,,,74,125
152693,note_off,,,,,6,0,0,,,2,,,76,64
152730,note_on,,,,,37,0,0,,,2,,,73,125
152731,note_on,,,,,1,0,0,,,4,,,61,127
152737,note_off,,,,,6,0,0,,,2,,,74,64
152745,note_off,,,,,8,0,0,,,4,,,57,64
152775,note_on,,,,,30,0,0,,,2,,,71,124
152776,note_on,,,,,1,0,0,,,4,,,59,127
152782,note_off,,,,,6,0,0,,,4,,,61,64
152783,note_off,,,,,1,0,0,,,2,,,73,64
152818,note_on,,,,,35,0,0,,,2,,,73,125
152818,note_on,,,,,0,0,0,,,4,,,61,127
152826,note_off,,,,,8,0,0,,,4,,,59,64
152826,note_off,,,,,0,0,0,,,2,,,71,64
152862,note_on,,,,,36,0,0,,,4,,,62,127
152862,note_on,,,,,0,0,0,,,2,,,74,125
152868,note_off,,,,,6,0,0,,,4,,,61,64
152869,note_off,,,,,1,0,0,,,2,,,73,64
152902,note_on,,,,,33,0,0,,,2,,,76,125
152903,note_on,,,,,1,0,0,,,4,,,64,124
152909,note_off,,,,,6,0,0,,,2,,,74,64
152909,note_off,,,,,0,0,0,,,4,,,62,64
152946,note_on,,,,,37,0,0,,,2,,,74,125
152947,note_on,,,,,1,0,0,,,4,,,62,127
152953,note_off,,,,,6,0,0,,,4,,,64,64
152953,note_off,,,,,0,0,0,,,2,,,76,64
152985,note_on,,,,,32,0,0,,,2,,,73,125
152985,note_on,,,,,0,0,0,,,4,,,61,127
152991,note_off,,,,,6,0,0,,,4,,,62,64
152992,note_off,,,,,1,0,0,,,2,,,74,64
153027,note_on,,,,,35,0,0,,,2,,,71,124
153027,note_on,,,,,0,0,0,,,4,,,59,127
153034,note_off,,,,,7,0,0,,,4,,,61,64
153034,note_off,,,,,0,0,0,,,2,,,73,64
153071,note_on,,,,,37,0,0,,,2,,,69,122
153072,note_on,,,,,1,0,0,,,4,,,57,127
153078,note_off,,,,,6,0,0,,,4,,,59,64
153078,note_off,,,,,0,0,0,,,2,,,71,64
153113,note_on,,,,,35,0,0,,,2,,,68,126
153114,note_on,,,,,1,0,0,,,4,,,56,127
153121,note_off,,,,,7,0,0,,,4,,,57,64
153122,note_off,,,,,1,0,0,,,2,,,69,64
153159,note_on,,,,,37,0,0,,,2,,,69,122
153160,note_on,,,,,1,0,0,,,4,,,57,127
153166,note_off,,,,,6,0,0,,,4,,,56,64
153167,note_off,,,,,1,0,0,,,2,,,68,64
153204,note_on,,,,,37,0,0,,,2,,,71,124
153204,note_on,,,,,0,0,0,,,4,,,59,127
153208,note_off,,,,,4,0,0,,,4,,,57,64
153209,note_off,,,,,1,0,0,,,2,,,69,64
153244,note_on,,,,,35,0,0,,,2,,,69,122
153244,note_on,,,,,0,0,0,,,4,,,57,127
153254,note_off,,,,,10,0,0,,,4,,,59,64
153255,note_off,,,,,1,0,0,,,2,,,71,64
153286,note_on,,,,,31,0,0,,,2,,,67,126
153287,note_on,,,,,1,0,0,,,4,,,55,127
153293,note_off,,,,,6,0,0,,,4,,,57,64
153293,note_off,,,,,0,0,0,,,2,,,69,64
153330,note_on,,,,,37,0,0,,,4,,,66,126
153331,note_on,,,,,1,0,0,,,4,,,54,127
153337,note_off,,,,,6,0,0,,,4,,,55,64
153337,note_off,,,,,0,0,0,,,2,,,67,64
153374,note_on,,,,,37,0,0,,,4,,,64,124
153375,note_on,,,,,1,0,0,,,4,,,52,127
153383,note_off,,,,,8,0,0,,,4,,,54,64
153384,note_off,,,,,1,0,0,,,4,,,66,64
153406,note_off,,,,,22,0,0,,,4,,,45,64
153421,note_on,,,,,15,0,0,,,4,,,62,127
153422,note_on,,,,,1,0,0,,,4,,,38,110
153422,note_on,,,,,0,0,0,,,4,,,50,127
153429,note_off,,,,,7,0,0,,,4,,,52,64
153430,note_off,,,,,1,0,0,,,4,,,64,64
153503,note_off,,,,,73,0,0,,,4,,,50,64
153515,note_on,,,,,12,0,0,,,4,,,50,127
153599,note_off,,,,,84,0,0,,,4,,,50,64
153607,note_on,,,,,8,0,0,,,4,,,50,127
153693,note_off,,,,,86,0,0,,,4,,,50,64
153701,note_on,,,,,8,0,0,,,4,,,50,127
153785,note_off,,,,,84,0,0,,,4,,,50,64
153786,note_off,,,,,1,0,0,,,4,,,62,64
153794,note_on,,,,,8,0,0,,,4,,,61,127
153794,note_on,,,,,0,0,0,,,4,,,64,124
153795,note_on,,,,,1,0,0,,,4,,,50,127
153878,note_off,,,,,83,0,0,,,4,,,50,64
153886,note_on,,,,,8,0,0,,,4,,,50,127
153971,note_off,,,,,85,0,0,,,4,,,50,64
153971,note_off,,,,,0,0,0,,,4,,,61,64
153972,note_off,,,,,1,0,0,,,4,,,64,64
153979,note_on,,,,,7,0,0,,,4,,,66,126
153980,note_on,,,,,1,0,0,,,4,,,60,127
153980,note_on,,,,,0,0,0,,,4,,,50,127
154065,note_off,,,,,85,0,0,,,4,,,50,64
154071,note_on,,,,,6,0,0,,,4,,,50,127
154158,note_off,,,,,87,0,0,,,4,,,60,64
154158,note_off,,,,,0,0,0,,,4,,,50,64
154159,note_off,,,,,1,0,0,,,4,,,66,64
154164,note_on,,,,,5,0,0,,,2,,,67,126
154165,note_on,,,,,1,0,0,,,4,,,59,127
154165,note_on,,,,,0,0,0,,,4,,,50,127
154250,note_off,,,,,85,0,0,,,4,,,50,64
154258,note_on,,,,,8,0,0,,,4,,,50,127
154302,note_off,,,,,44,0,0,,,2,,,67,64
154303,note_on,,,,,1,0,0,,,2,,,69,126
154328,note_off,,,,,25,0,0,,,2,,,69,64
154329,note_on,,,,,1,0,0,,,2,,,71,127
154350,note_off,,,,,21,0,0,,,4,,,59,64
154350,note_off,,,,,0,0,0,,,4,,,50,64
154360,note_off,,,,,10,0,0,,,2,,,71,64
154361,note_on,,,,,1,0,0,,,2,,,69,126
154361,note_on,,,,,0,0,0,,,4,,,61,127
154362,note_on,,,,,1,0,0,,,4,,,50,127
154447,note_off,,,,,85,0,0,,,4,,,50,64
154454,note_off,,,,,7,0,0,,,2,,,69,64
154455,note_on,,,,,1,0,0,,,2,,,67,126
154455,note_on,,,,,0,0,0,,,4,,,50,127
154540,note_off,,,,,85,0,0,,,4,,,50,64
154540,note_off,,,,,0,0,0,,,4,,,61,64
154548,note_off,,,,,8,0,0,,,2,,,67,64
154549,note_on,,,,,1,0,0,,,4,,,62,127
154549,note_on,,,,,0,0,0,,,4,,,66,126
154550,note_on,,,,,1,0,0,,,4,,,50,127
154635,note_off,,,,,85,0,0,,,4,,,50,64
154643,note_on,,,,,8,0,0,,,4,,,50,127
154729,note_off,,,,,86,0,0,,,4,,,50,64
154737,note_on,,,,,8,0,0,,,4,,,50,127
154822,note_off,,,,,85,0,0,,,4,,,50,64
154830,note_off,,,,,8,0,0,,,4,,,38,64
154830,note_on,,,,,0,0,0,,,4,,,50,127
154915,note_off,,,,,85,0,0,,,4,,,50,64
154916,note_off,,,,,1,0,0,,,4,,,66,64
154916,note_off,,,,,0,0,0,,,4,,,62,64
154922,note_on,,,,,6,0,0,,,4,,,66,126
154923,note_on,,,,,1,0,0,,,4,,,38,127
154923,note_on,,,,,0,0,0,,,4,,,62,127
154923,note_on,,,,,0,0,0,,,4,,,50,127
155009,note_off,,,,,86,0,0,,,4,,,50,64
155017,note_on,,,,,8,0,0,,,4,,,50,127
155105,note_off,,,,,88,0,0,,,4,,,50,64
155113,note_on,,,,,8,0,0,,,4,,,50,127
155201,note_off,,,,,88,0,0,,,4,,,50,64
155209,note_on,,,,,8,0,0,,,4,,,50,127
155296,note_off,,,,,87,0,0,,,4,,,50,64
155296,note_off,,,,,0,0,0,,,4,,,62,64
155297,note_off,,,,,1,0,0,,,4,,,66,64
155304,note_on,,,,,7,0,0,,,2,,,67,126
155305,note_on,,,,,1,0,0,,,4,,,50,127
155311,note_on,,,,,6,0,0,,,4,,,64,124
155392,note_off,,,,,81,0,0,,,4,,,50,64
155400,note_on,,,,,8,0,0,,,4,,,50,127
155486,note_off,,,,,86,0,0,,,4,,,50,64
155486,note_off,,,,,0,0,0,,,2,,,67,64
155492,note_off,,,,,6,0,0,,,4,,,64,64
155495,note_on,,,,,3,0,0,,,4,,,66,126
155495,note_on,,,,,0,0,0,,,2,,,69,126
155496,note_on,,,,,1,0,0,,,4,,,50,127
155580,note_off,,,,,84,0,0,,,4,,,50,64
155588,note_on,,,,,8,0,0,,,4,,,50,127
155674,note_off,,,,,86,0,0,,,4,,,50,64
155675,note_off,,,,,1,0,0,,,2,,,69,64
155675,note_off,,,,,0,0,0,,,4,,,66,64
155683,note_on,,,,,8,0,0,,,2,,,67,126
155683,note_on,,,,,0,0,0,,,2,,,71,127
155684,note_on,,,,,1,0,0,,,4,,,50,127
155766,note_off,,,,,82,0,0,,,4,,,50,64
155774,note_on,,,,,8,0,0,,,4,,,50,127
155820,note_off,,,,,46,0,0,,,2,,,71,64
155820,note_on,,,,,0,0,0,,,2,,,73,127
155850,note_off,,,,,30,0,0,,,2,,,73,64
155850,note_on,,,,,0,0,0,,,2,,,74,127
155870,note_off,,,,,20,0,0,,,4,,,50,64
155880,note_off,,,,,10,0,0,,,2,,,74,64
155880,note_on,,,,,0,0,0,,,2,,,73,127
155880,note_on,,,,,0,0,0,,,4,,,50,127
155965,note_off,,,,,85,0,0,,,4,,,50,64
155973,note_off,,,,,8,0,0,,,2,,,73,64
155973,note_on,,,,,0,0,0,,,2,,,71,127
155974,note_on,,,,,1,0,0,,,4,,,50,127
156060,note_off,,,,,86,0,0,,,2,,,67,64
156060,note_off,,,,,0,0,0,,,4,,,50,64
156069,note_off,,,,,9,0,0,,,2,,,71,64
156069,note_on,,,,,0,0,0,,,2,,,69,126
156070,note_on,,,,,1,0,0,,,4,,,66,126
156070,note_on,,,,,0,0,0,,,4,,,50,127
156155,note_off,,,,,85,0,0,,,4,,,50,64
156163,note_on,,,,,8,0,0,,,4,,,50,127
156251,note_off,,,,,88,0,0,,,4,,,50,64
156259,note_on,,,,,8,0,0,,,4,,,50,127
156347,note_off,,,,,88,0,0,,,4,,,50,64
156355,note_off,,,,,8,0,0,,,4,,,38,64
156355,note_on,,,,,0,0,0,,,1,,,78,126
156356,note_on,,,,,1,0,0,,,4,,,50,127
156450,note_off,,,,,94,0,0,,,4,,,50,64
156450,note_off,,,,,0,0,0,,,4,,,66,64
156451,note_off,,,,,1,0,0,,,2,,,69,64
156451,note_on,,,,,0,0,0,,,2,,,76,127
156452,note_on,,,,,1,0,0,,,4,,,43,127
156452,note_on,,,,,0,0,0,,,4,,,55,127
156458,note_off,,,,,6,0,0,,,1,,,78,64
156497,note_on,,,,,39,0,0,,,1,,,86,126
156543,note_off,,,,,46,0,0,,,2,,,76,64
156545,note_on,,,,,2,0,0,,,2,,,76,127
156591,note_off,,,,,46,0,0,,,1,,,86,64
156593,note_on,,,,,2,0,0,,,1,,,86,126
156639,note_off,,,,,46,0,0,,,2,,,76,64
156641,note_on,,,,,2,0,0,,,4,,,62,127
156641,note_on,,,,,0,0,0,,,2,,,76,127
156642,note_on,,,,,1,0,0,,,4,,,50,127
156648,note_off,,,,,6,0,0,,,4,,,55,64
156648,note_off,,,,,0,0,0,,,4,,,43,64
156685,note_off,,,,,37,0,0,,,1,,,86,64
156689,note_on,,,,,4,0,0,,,1,,,86,126
156733,note_off,,,,,44,0,0,,,2,,,76,64
156735,note_on,,,,,2,0,0,,,2,,,76,127
156781,note_off,,,,,46,0,0,,,1,,,86,64
156783,note_on,,,,,2,0,0,,,1,,,86,126
156829,note_off,,,,,46,0,0,,,2,,,76,64
156831,note_on,,,,,2,0,0,,,4,,,59,127
156831,note_on,,,,,0,0,0,,,2,,,76,127
156832,note_on,,,,,1,0,0,,,4,,,47,127
156840,note_off,,,,,8,0,0,,,4,,,62,64
156840,note_off,,,,,0,0,0,,,4,,,50,64
156875,note_off,,,,,35,0,0,,,1,,,86,64
156877,note_on,,,,,2,0,0,,,1,,,86,126
156923,note_off,,,,,46,0,0,,,2,,,76,64
156924,note_on,,,,,1,0,0,,,2,,,76,127
156969,note_off,,,,,45,0,0,,,1,,,86,64
156971,note_on,,,,,2,0,0,,,1,,,86,126
157017,note_off,,,,,46,0,0,,,2,,,76,64
157019,note_on,,,,,2,0,0,,,2,,,76,127
157020,note_on,,,,,1,0,0,,,4,,,43,127
157020,note_on,,,,,0,0,0,,,4,,,55,127
157026,note_off,,,,,6,0,0,,,4,,,59,64
157026,note_off,,,,,0,0,0,,,4,,,47,64
157063,note_off,,,,,37,0,0,,,1,,,86,64
157067,note_on,,,,,4,0,0,,,1,,,86,126
157111,note_off,,,,,44,0,0,,,2,,,76,64
157113,note_on,,,,,2,0,0,,,2,,,76,127
157159,note_off,,,,,46,0,0,,,1,,,86,64
157161,note_on,,,,,2,0,0,,,1,,,86,126
157207,note_off,,,,,46,0,0,,,2,,,76,64
157209,note_on,,,,,2,0,0,,,1,,,78,126
157210,note_on,,,,,1,0,0,,,4,,,57,127
157210,note_on,,,,,0,0,0,,,4,,,45,127
157218,note_off,,,,,8,0,0,,,4,,,55,64
157218,note_off,,,,,0,0,0,,,4,,,43,64
157256,note_off,,,,,38,0,0,,,1,,,86,64
157257,note_on,,,,,1,0,0,,,1,,,86,126
157303,note_off,,,,,46,0,0,,,1,,,78,64
157305,note_on,,,,,2,0,0,,,1,,,78,126
157349,note_off,,,,,44,0,0,,,1,,,86,64
157353,note_on,,,,,4,0,0,,,1,,,86,126
157397,note_off,,,,,44,0,0,,,1,,,78,64
157400,note_on,,,,,3,0,0,,,4,,,50,127
157400,note_on,,,,,0,0,0,,,4,,,62,127
157400,note_on,,,,,0,0,0,,,1,,,78,126
157408,note_off,,,,,8,0,0,,,4,,,45,64
157408,note_off,,,,,0,0,0,,,4,,,57,64
157445,note_off,,,,,37,0,0,,,1,,,86,64
157448,note_on,,,,,3,0,0,,,1,,,86,126
157493,note_off,,,,,45,0,0,,,1,,,78,64
157496,note_on,,,,,3,0,0,,,1,,,78,126
157541,note_off,,,,,45,0,0,,,1,,,86,64
157544,note_on,,,,,3,0,0,,,1,,,86,126
157589,note_off,,,,,45,0,0,,,1,,,78,64
157592,note_on,,,,,3,0,0,,,1,,,78,126
157592,note_on,,,,,0,0,0,,,4,,,60,127
157593,note_on,,,,,1,0,0,,,4,,,48,127
157598,note_off,,,,,5,0,0,,,4,,,50,64
157599,note_off,,,,,1,0,0,,,4,,,62,64
157636,note_off,,,,,37,0,0,,,1,,,86,64
157638,note_on,,,,,2,0,0,,,1,,,86,126
157680,note_off,,,,,42,0,0,,,1,,,78,64
157683,note_on,,,,,3,0,0,,,1,,,78,126
157727,note_off,,,,,44,0,0,,,1,,,86,64
157729,note_on,,,,,2,0,0,,,1,,,86,126
157773,note_off,,,,,44,0,0,,,1,,,78,64
157777,note_on,,,,,4,0,0,,,4,,,57,127
157777,note_on,,,,,0,0,0,,,1,,,78,126
157778,note_on,,,,,1,0,0,,,4,,,45,127
157784,note_off,,,,,6,0,0,,,4,,,60,64
157784,note_off,,,,,0,0,0,,,4,,,48,64
157821,note_off,,,,,37,0,0,,,1,,,86,64
157823,note_on,,,,,2,0,0,,,1,,,86,126
157869,note_off,,,,,46,0,0,,,1,,,78,64
157871,note_on,,,,,2,0,0,,,1,,,78,126
157917,note_off,,,,,46,0,0,,,1,,,86,64
157919,note_on,,,,,2,0,0,,,1,,,86,126
157965,note_off,,,,,46,0,0,,,1,,,78,64
157967,note_on,,,,,2,0,0,,,1,,,79,126
157968,note_on,,,,,1,0,0,,,4,,,47,127
157968,note_on,,,,,0,0,0,,,4,,,59,127
157976,note_off,,,,,8,0,0,,,4,,,57,64
157976,note_off,,,,,0,0,0,,,4,,,45,64
158011,note_off,,,,,35,0,0,,,1,,,86,64
158013,note_on,,,,,2,0,0,,,1,,,86,126
158057,note_off,,,,,44,0,0,,,1,,,79,64
158061,note_on,,,,,4,0,0,,,1,,,79,126
158105,note_off,,,,,44,0,0,,,1,,,86,64
158107,note_on,,,,,2,0,0,,,1,,,86,126
158151,note_off,,,,,44,0,0,,,1,,,79,64
158153,note_on,,,,,2,0,0,,,1,,,79,126
158154,note_on,,,,,1,0,0,,,4,,,55,127
158154,note_on,,,,,0,0,0,,,2,,,67,126
158162,note_off,,,,,8,0,0,,,4,,,59,64
158162,note_off,,,,,0,0,0,,,4,,,47,64
158199,note_off,,,,,37,0,0,,,1,,,86,64
158200,note_on,,,,,1,0,0,,,1,,,86,126
158245,note_off,,,,,45,0,0,,,1,,,79,64
158247,note_on,,,,,2,0,0,,,1,,,79,126
158292,note_off,,,,,45,0,0,,,1,,,86,64
158293,note_on,,,,,1,0,0,,,1,,,86,126
158340,note_off,,,,,47,0,0,,,1,,,79,64
158341,note_on,,,,,1,0,0,,,1,,,79,126
158342,note_on,,,,,1,0,0,,,4,,,50,127
158342,note_on,,,,,0,0,0,,,4,,,62,127
158348,note_off,,,,,6,0,0,,,4,,,55,64
158349,note_off,,,,,1,0,0,,,2,,,67,64
158386,note_off,,,,,37,0,0,,,1,,,86,64
158388,note_on,,,,,2,0,0,,,1,,,86,126
158430,note_off,,,,,42,0,0,,,1,,,79,64
158434,note_on,,,,,4,0,0,,,1,,,79,126
158476,note_off,,,,,42,0,0,,,1,,,86,64
158480,note_on,,,,,4,0,0,,,1,,,86,126
158522,note_off,,,,,42,0,0,,,1,,,79,64
158524,note_on,,,,,2,0,0,,,4,,,59,127
158524,note_on,,,,,0,0,0,,,1,,,79,126
158525,note_on,,,,,1,0,0,,,4,,,47,127
158532,note_off,,,,,7,0,0,,,4,,,50,64
158533,note_off,,,,,1,0,0,,,4,,,62,64
158570,note_off,,,,,37,0,0,,,1,,,86,64
158572,note_on,,,,,2,0,0,,,1,,,86,126
158616,note_off,,,,,44,0,0,,,1,,,79,64
158618,note_on,,,,,2,0,0,,,1,,,79,126
158662,note_off,,,,,44,0,0,,,1,,,86,64
158664,note_on,,,,,2,0,0,,,1,,,86,126
158710,note_off,,,,,46,0,0,,,1,,,79,64
158711,note_on,,,,,1,0,0,,,1,,,80,126
158711,note_on,,,,,0,0,0,,,2,,,74,127
158712,note_on,,,,,1,0,0,,,4,,,46,127
158712,note_on,,,,,0,0,0,,,4,,,58,126
158720,note_off,,,,,8,0,0,,,4,,,59,64
158720,note_off,,,,,0,0,0,,,4,,,47,64
158755,note_off,,,,,35,0,0,,,1,,,86,64
158757,note_on,,,,,2,0,0,,,1,,,86,126
158801,note_off,,,,,44,0,0,,,2,,,74,64
158802,note_off,,,,,1,0,0,,,1,,,80,64
158804,note_on,,,,,2,0,0,,,1,,,80,126
158805,note_on,,,,,1,0,0,,,2,,,74,127
158847,note_off,,,,,42,0,0,,,1,,,86,64
158851,note_on,,,,,4,0,0,,,1,,,86,126
158895,note_off,,,,,44,0,0,,,2,,,74,64
158896,note_off,,,,,1,0,0,,,1,,,80,64
158898,note_on,,,,,2,0,0,,,1,,,80,126
158899,note_on,,,,,1,0,0,,,2,,,74,127
158899,note_on,,,,,0,0,0,,,4,,,65,126
158900,note_on,,,,,1,0,0,,,4,,,53,127
158906,note_off,,,,,6,0,0,,,4,,,58,64
158906,note_off,,,,,0,0,0,,,4,,,46,64
158943,note_off,,,,,37,0,0,,,1,,,86,64
158945,note_on,,,,,2,0,0,,,1,,,86,126
158991,note_off,,,,,46,0,0,,,2,,,74,64
158992,note_off,,,,,1,0,0,,,1,,,80,64
158992,note_on,,,,,0,0,0,,,1,,,80,126
158993,note_on,,,,,1,0,0,,,2,,,74,127
159037,note_off,,,,,44,0,0,,,1,,,86,64
159039,note_on,,,,,2,0,0,,,1,,,86,126
159084,note_off,,,,,45,0,0,,,2,,,74,64
159084,note_off,,,,,0,0,0,,,1,,,80,64
159086,note_on,,,,,2,0,0,,,1,,,80,126
159087,note_on,,,,,1,0,0,,,4,,,62,127
159087,note_on,,,,,0,0,0,,,2,,,74,127
159088,note_on,,,,,1,0,0,,,4,,,50,127
159094,note_off,,,,,6,0,0,,,4,,,53,64
159095,note_off,,,,,1,0,0,,,4,,,65,64
159132,note_off,,,,,37,0,0,,,1,,,86,64
159133,note_on,,,,,1,0,0,,,1,,,86,126
159179,note_off,,,,,46,0,0,,,1,,,80,64
159179,note_off,,,,,0,0,0,,,2,,,74,64
159181,note_on,,,,,2,0,0,,,1,,,80,126
159182,note_on,,,,,1,0,0,,,2,,,74,127
159226,note_off,,,,,44,0,0,,,1,,,86,64
159228,note_on,,,,,2,0,0,,,1,,,86,126
159274,note_off,,,,,46,0,0,,,2,,,74,64
159274,note_off,,,,,0,0,0,,,1,,,80,64
159276,note_on,,,,,2,0,0,,,1,,,80,126
159277,note_on,,,,,1,0,0,,,4,,,58,126
159277,note_on,,,,,0,0,0,,,2,,,74,127
159278,note_on,,,,,1,0,0,,,4,,,46,127
159285,note_off,,,,,7,0,0,,,4,,,62,64
159285,note_off,,,,,0,0,0,,,4,,,50,64
159322,note_off,,,,,37,0,0,,,1,,,86,64
159326,note_on,,,,,4,0,0,,,1,,,86,126
159370,note_off,,,,,44,0,0,,,1,,,80,64
159370,note_off,,,,,0,0,0,,,2,,,74,64
159372,note_on,,,,,2,0,0,,,1,,,80,126
159373,note_on,,,,,1,0,0,,,2,,,74,127
159418,note_off,,,,,45,0,0,,,1,,,86,64
159420,note_on,,,,,2,0,0,,,1,,,86,122
159460,note_off,,,,,40,0,0,,,1,,,86,64
159460,note_off,,,,,0,0,0,,,4,,,58,64
159461,note_off,,,,,1,0,0,,,2,,,74,64
159461,note_off,,,,,0,0,0,,,1,,,80,64
159468,note_on,,,,,7,0,0,,,4,,,57,127
159481,note_on,,,,,13,0,0,,,2,,,76,127
159485,note_off,,,,,4,0,0,,,4,,,46,64
159492,note_on,,,,,7,0,0,,,1,,,81,127
159504,note_on,,,,,12,0,0,,,1,,,85,127
159522,note_on,,,,,18,0,0,,,2,,,69,126
159567,note_on,,,,,45,0,0,,,2,,,68,126
159575,note_off,,,,,8,0,0,,,2,,,69,64
159612,note_on,,,,,37,0,0,,,2,,,69,126
159620,note_off,,,,,8,0,0,,,2,,,68,64
159657,note_on,,,,,37,0,0,,,2,,,71,127
159665,note_off,,,,,8,0,0,,,2,,,69,64
159703,note_on,,,,,38,0,0,,,2,,,69,126
159708,note_off,,,,,5,0,0,,,2,,,71,64
159728,note_off,,,,,20,0,0,,,2,,,76,64
159737,note_off,,,,,9,0,0,,,1,,,81,64
159745,note_off,,,,,8,0,0,,,1,,,85,64
159745,note_on,,,,,0,0,0,,,1,,,81,118
159746,note_on,,,,,1,0,0,,,4,,,66,126
159788,note_off,,,,,42,0,0,,,2,,,69,64
159790,note_on,,,,,2,0,0,,,2,,,69,126
159835,note_on,,,,,45,0,0,,,4,,,64,124
159835,note_on,,,,,0,0,0,,,1,,,79,114
159841,note_off,,,,,6,0,0,,,4,,,66,64
159842,note_off,,,,,1,0,0,,,1,,,81,64
159875,note_off,,,,,33,0,0,,,2,,,69,64
159875,note_on,,,,,0,0,0,,,2,,,69,126
159919,note_on,,,,,44,0,0,,,1,,,78,114
159920,note_on,,,,,1,0,0,,,4,,,62,127
159926,note_off,,,,,6,0,0,,,1,,,79,64
159926,note_off,,,,,0,0,0,,,4,,,64,64
159960,note_off,,,,,34,0,0,,,2,,,69,64
159961,note_on,,,,,1,0,0,,,2,,,69,126
160006,note_on,,,,,45,0,0,,,4,,,61,127
160006,note_on,,,,,0,0,0,,,2,,,76,117
160012,note_off,,,,,6,0,0,,,4,,,62,64
160013,note_off,,,,,1,0,0,,,1,,,78,64
160045,note_off,,,,,32,0,0,,,2,,,69,64
160048,note_on,,,,,3,0,0,,,2,,,69,126
160090,note_on,,,,,42,0,0,,,2,,,74,117
160091,note_on,,,,,1,0,0,,,4,,,59,127
160097,note_off,,,,,6,0,0,,,2,,,76,64
160097,note_off,,,,,0,0,0,,,4,,,61,64
160132,note_off,,,,,35,0,0,,,2,,,69,64
160134,note_on,,,,,2,0,0,,,2,,,69,126
160136,note_off,,,,,2,0,0,,,4,,,57,64
160180,note_on,,,,,44,0,0,,,2,,,73,117
160181,note_on,,,,,1,0,0,,,4,,,57,127
160187,note_off,,,,,6,0,0,,,4,,,59,64
160188,note_off,,,,,1,0,0,,,2,,,74,64
160223,note_off,,,,,35,0,0,,,2,,,69,64
160224,note_on,,,,,1,0,0,,,2,,,69,126
160267,note_on,,,,,43,0,0,,,4,,,59,127
160267,note_on,,,,,0,0,0,,,2,,,74,117
160273,note_off,,,,,6,0,0,,,4,,,57,64
160274,note_off,,,,,1,0,0,,,2,,,73,64
160307,note_off,,,,,33,0,0,,,2,,,69,64
160311,note_on,,,,,4,0,0,,,2,,,69,126
160355,note_on,,,,,44,0,0,,,2,,,76,117
160356,note_on,,,,,1,0,0,,,4,,,61,127
160362,note_off,,,,,6,0,0,,,2,,,74,64
160362,note_off,,,,,0,0,0,,,4,,,59,64
160395,note_off,,,,,33,0,0,,,2,,,69,64
160397,note_on,,,,,2,0,0,,,2,,,69,126
160440,note_on,,,,,43,0,0,,,1,,,78,114
160440,note_on,,,,,0,0,0,,,4,,,62,127
160446,note_off,,,,,6,0,0,,,4,,,61,64
160447,note_off,,,,,1,0,0,,,2,,,76,64
160482,note_off,,,,,35,0,0,,,2,,,69,64
160484,note_on,,,,,2,0,0,,,2,,,69,126
160526,note_on,,,,,42,0,0,,,4,,,64,124
160526,note_on,,,,,0,0,0,,,1,,,81,114
160535,note_off,,,,,9,0,0,,,4,,,62,64
160535,note_off,,,,,0,0,0,,,1,,,78,64
160568,note_off,,,,,33,0,0,,,2,,,69,64
160570,note_on,,,,,2,0,0,,,1,,,79,114
160571,note_on,,,,,1,0,0,,,2,,,69,126
160577,note_off,,,,,6,0,0,,,1,,,81,64
160611,note_on,,,,,34,0,0,,,1,,,78,114
160612,note_on,,,,,1,0,0,,,4,,,61,127
160616,note_off,,,,,4,0,0,,,1,,,79,64
160617,note_off,,,,,1,0,0,,,4,,,64,64
160648,note_off,,,,,31,0,0,,,2,,,69,64
160652,note_on,,,,,4,0,0,,,2,,,76,117
160652,note_on,,,,,0,0,0,,,2,,,69,126
160658,note_off,,,,,6,0,0,,,1,,,78,64
160693,note_on,,,,,35,0,0,,,1,,,79,114
160693,note_on,,,,,0,0,0,,,4,,,62,127
160700,note_off,,,,,7,0,0,,,2,,,76,64
160700,note_off,,,,,0,0,0,,,4,,,61,64
160733,note_off,,,,,33,0,0,,,2,,,69,64
160737,note_on,,,,,4,0,0,,,1,,,78,114
160738,note_on,,,,,1,0,0,,,2,,,69,126
160742,note_off,,,,,4,0,0,,,1,,,79,64
160776,note_on,,,,,34,0,0,,,2,,,76,121
160777,note_on,,,,,1,0,0,,,4,,,59,127
160783,note_off,,,,,6,0,0,,,1,,,78,64
160784,note_off,,,,,1,0,0,,,4,,,62,64
160817,note_off,,,,,33,0,0,,,2,,,69,64
160817,note_on,,,,,0,0,0,,,2,,,74,121
160818,note_on,,,,,1,0,0,,,2,,,69,126
160824,note_off,,,,,6,0,0,,,2,,,76,64
160859,note_off,,,,,35,0,0,,,2,,,69,64
160860,note_off,,,,,1,0,0,,,2,,,74,64
160860,note_on,,,,,0,0,0,,,4,,,57,127
160860,note_on,,,,,0,0,0,,,2,,,73,127
160876,note_off,,,,,16,0,0,,,4,,,59,64
160886,note_on,,,,,10,0,0,,,2,,,76,127
160896,note_on,,,,,10,0,0,,,1,,,81,124
160919,note_on,,,,,23,0,0,,,2,,,69,126
160961,note_on,,,,,42,0,0,,,2,,,68,126
160968,note_off,,,,,7,0,0,,,2,,,69,64
161005,note_on,,,,,37,0,0,,,2,,,69,126
161013,note_off,,,,,8,0,0,,,2,,,68,64
161049,note_on,,,,,36,0,0,,,2,,,71,127
161055,note_off,,,,,6,0,0,,,2,,,69,64
161091,note_on,,,,,36,0,0,,,2,,,69,126
161099,note_off,,,,,8,0,0,,,2,,,71,64
161107,note_off,,,,,8,0,0,,,2,,,73,64
161118,note_off,,,,,11,0,0,,,2,,,76,64
161126,note_off,,,,,8,0,0,,,1,,,81,64
161136,note_on,,,,,10,0,0,,,1,,,81,114
161136,note_on,,,,,0,0,0,,,4,,,66,126
161142,note_off,,,,,6,0,0,,,2,,,69,64
161179,note_on,,,,,37,0,0,,,2,,,69,126
161219,note_off,,,,,40,0,0,,,1,,,81,64
161221,note_on,,,,,2,0,0,,,4,,,64,124
161221,note_on,,,,,0,0,0,,,1,,,79,114
161228,note_off,,,,,7,0,0,,,4,,,66,64
161260,note_off,,,,,32,0,0,,,2,,,69,64
161262,note_on,,,,,2,0,0,,,2,,,69,126
161306,note_on,,,,,44,0,0,,,1,,,78,114
161307,note_on,,,,,1,0,0,,,4,,,62,127
161313,note_off,,,,,6,0,0,,,4,,,64,64
161314,note_off,,,,,1,0,0,,,1,,,79,64
161349,note_off,,,,,35,0,0,,,2,,,69,64
161351,note_on,,,,,2,0,0,,,2,,,69,126
161393,note_on,,,,,42,0,0,,,2,,,76,117
161393,note_on,,,,,0,0,0,,,4,,,61,127
161401,note_off,,,,,8,0,0,,,4,,,62,64
161402,note_off,,,,,1,0,0,,,1,,,78,64
161433,note_off,,,,,31,0,0,,,2,,,69,64
161437,note_on,,,,,4,0,0,,,2,,,69,126
161479,note_on,,,,,42,0,0,,,2,,,74,117
161480,note_on,,,,,1,0,0,,,4,,,59,127
161486,note_off,,,,,6,0,0,,,4,,,61,64
161486,note_off,,,,,0,0,0,,,2,,,76,64
161520,note_off,,,,,34,0,0,,,2,,,69,64
161523,note_off,,,,,3,0,0,,,4,,,57,64
161523,note_on,,,,,0,0,0,,,2,,,69,126
161567,note_on,,,,,44,0,0,,,2,,,73,117
161567,note_on,,,,,0,0,0,,,4,,,57,127
161573,note_off,,,,,6,0,0,,,4,,,59,64
161574,note_off,,,,,1,0,0,,,2,,,74,64
161609,note_off,,,,,35,0,0,,,2,,,69,64
161611,note_on,,,,,2,0,0,,,2,,,69,126
161655,note_on,,,,,44,0,0,,,2,,,74,117
161655,note_on,,,,,0,0,0,,,4,,,59,127
161662,note_off,,,,,7,0,0,,,4,,,57,64
161662,note_off,,,,,0,0,0,,,2,,,73,64
161697,note_off,,,,,35,0,0,,,2,,,69,64
161699,note_on,,,,,2,0,0,,,2,,,69,126
161741,note_on,,,,,42,0,0,,,2,,,76,117
161742,note_on,,,,,1,0,0,,,4,,,61,127
161748,note_off,,,,,6,0,0,,,4,,,59,64
161748,note_off,,,,,0,0,0,,,2,,,74,64
161784,note_off,,,,,36,0,0,,,2,,,69,64
161784,note_on,,,,,0,0,0,,,2,,,69,126
161828,note_on,,,,,44,0,0,,,1,,,78,114
161828,note_on,,,,,0,0,0,,,4,,,62,127
161835,note_off,,,,,7,0,0,,,2,,,76,64
161835,note_off,,,,,0,0,0,,,4,,,61,64
161868,note_off,,,,,33,0,0,,,2,,,69,64
161870,note_on,,,,,2,0,0,,,2,,,69,126
161913,note_on,,,,,43,0,0,,,4,,,64,124
161913,note_on,,,,,0,0,0,,,1,,,81,114
161919,note_off,,,,,6,0,0,,,4,,,62,64
161919,note_off,,,,,0,0,0,,,1,,,78,64
161952,note_off,,,,,33,0,0,,,2,,,69,64
161956,note_on,,,,,4,0,0,,,1,,,79,114
161957,note_on,,,,,1,0,0,,,2,,,69,126
161963,note_off,,,,,6,0,0,,,1,,,81,64
161998,note_on,,,,,35,0,0,,,1,,,78,114
161999,note_on,,,,,1,0,0,,,4,,,61,127
162004,note_off,,,,,5,0,0,,,1,,,79,64
162005,note_off,,,,,1,0,0,,,4,,,64,64
162036,note_off,,,,,31,0,0,,,2,,,69,64
162040,note_on,,,,,4,0,0,,,2,,,76,117
162040,note_on,,,,,0,0,0,,,2,,,69,126
162047,note_off,,,,,7,0,0,,,1,,,78,64
162081,note_on,,,,,34,0,0,,,1,,,79,114
162082,note_on,,,,,1,0,0,,,4,,,62,127
162088,note_off,,,,,6,0,0,,,2,,,76,64
162088,note_off,,,,,0,0,0,,,4,,,61,64
162123,note_off,,,,,35,0,0,,,2,,,69,64
162126,note_on,,,,,3,0,0,,,1,,,78,114
162126,note_on,,,,,0,0,0,,,2,,,69,126
162132,note_off,,,,,6,0,0,,,1,,,79,64
162167,note_on,,,,,35,0,0,,,2,,,76,117
162168,note_on,,,,,1,0,0,,,4,,,59,127
162174,note_off,,,,,6,0,0,,,1,,,78,64
162174,note_off,,,,,0,0,0,,,4,,,62,64
162209,note_off,,,,,35,0,0,,,2,,,69,64
162211,note_on,,,,,2,0,0,,,2,,,69,126
162211,note_on,,,,,0,0,0,,,2,,,74,117
162218,note_off,,,,,7,0,0,,,2,,,76,64
162252,note_off,,,,,34,0,0,,,2,,,74,64
162252,note_off,,,,,0,0,0,,,2,,,69,64
162253,note_off,,,,,1,0,0,,,4,,,59,64
162253,note_on,,,,,0,0,0,,,2,,,73,127
162254,note_on,,,,,1,0,0,,,4,,,57,127
162281,note_on,,,,,27,0,0,,,2,,,76,127
162293,note_on,,,,,12,0,0,,,1,,,81,127
162425,note_off,,,,,132,0,0,,,4,,,57,64
162426,note_off,,,,,1,0,0,,,2,,,73,64
162433,note_off,,,,,7,0,0,,,2,,,76,64
162440,note_on,,,,,7,0,0,,,4,,,64,124
162440,note_on,,,,,0,0,0,,,2,,,76,124
162441,note_on,,,,,1,0,0,,,4,,,57,127
162441,note_on,,,,,0,0,0,,,4,,,61,127
162445,note_off,,,,,4,0,0,,,1,,,81,64
162488,note_on,,,,,43,0,0,,,2,,,73,124
162493,note_off,,,,,5,0,0,,,2,,,76,64
162530,note_on,,,,,37,0,0,,,2,,,76,124
162537,note_off,,,,,7,0,0,,,2,,,73,64
162577,note_on,,,,,40,0,0,,,2,,,73,124
162585,note_off,,,,,8,0,0,,,2,,,76,64
162615,note_off,,,,,30,0,0,,,4,,,64,64
162616,note_off,,,,,1,0,0,,,4,,,61,64
162616,note_off,,,,,0,0,0,,,4,,,57,64
162624,note_on,,,,,8,0,0,,,4,,,64,124
162624,note_on,,,,,0,0,0,,,2,,,69,126
162625,note_on,,,,,1,0,0,,,4,,,57,127
162625,note_on,,,,,0,0,0,,,4,,,61,127
162630,note_off,,,,,5,0,0,,,2,,,73,64
162979,note_off,,,,,349,0,0,,,2,,,69,64
162980,note_on,,,,,1,0,0,,,2,,,69,127
163086,note_off,,,,,106,0,0,,,2,,,69,64
163090,note_on,,,,,4,0,0,,,2,,,74,127
163188,note_off,,,,,98,0,0,,,2,,,74,64
163188,note_on,,,,,0,0,0,,,2,,,73,127
163233,note_off,,,,,45,0,0,,,4,,,64,64
163277,note_off,,,,,44,0,0,,,2,,,73,64
163277,note_on,,,,,0,0,0,,,2,,,76,127
163370,note_off,,,,,93,0,0,,,2,,,76,64
163370,note_on,,,,,0,0,0,,,2,,,74,127
163459,note_off,,,,,89,0,0,,,2,,,74,64
163460,note_on,,,,,1,0,0,,,2,,,73,127
163462,note_off,,,,,2,0,0,,,4,,,61,64
163552,note_off,,,,,90,0,0,,,2,,,73,64
163553,note_on,,,,,1,0,0,,,2,,,71,127
163645,note_off,,,,,92,0,0,,,2,,,71,64
163646,note_on,,,,,1,0,0,,,4,,,64,124
163646,note_on,,,,,0,0,0,,,2,,,73,121
163647,note_off,,,,,1,0,0,,,4,,,57,64
163647,note_on,,,,,0,0,0,,,4,,,61,127
163674,note_on,,,,,27,0,0,,,2,,,71,120
163684,note_off,,,,,10,0,0,,,2,,,73,64
163703,note_on,,,,,19,0,0,,,2,,,73,121
163711,note_off,,,,,8,0,0,,,2,,,71,64
163728,note_on,,,,,17,0,0,,,2,,,71,120
163738,note_off,,,,,10,0,0,,,2,,,73,64
163745,note_off,,,,,7,0,0,,,4,,,61,64
163746,note_off,,,,,1,0,0,,,4,,,64,64
163754,note_on,,,,,8,0,0,,,2,,,69,122
163754,note_on,,,,,0,0,0,,,4,,,64,124
163755,note_on,,,,,1,0,0,,,4,,,61,127
163776,note_off,,,,,21,0,0,,,2,,,71,64
163837,note_off,,,,,61,0,0,,,2,,,69,64
163841,note_off,,,,,4,0,0,,,4,,,61,64
163842,note_off,,,,,1,0,0,,,4,,,64,64
163850,note_on,,,,,8,0,0,,,4,,,64,124
163850,note_on,,,,,0,0,0,,,2,,,69,122
163851,note_on,,,,,1,0,0,,,4,,,61,127
163941,note_off,,,,,90,0,0,,,4,,,61,64
163942,note_off,,,,,1,0,0,,,4,,,64,64
163948,note_on,,,,,6,0,0,,,4,,,64,124
163948,note_on,,,,,0,0,0,,,4,,,61,127
164037,note_off,,,,,89,0,0,,,4,,,61,64
164038,note_off,,,,,1,0,0,,,4,,,64,64
164046,note_on,,,,,8,0,0,,,4,,,64,124
164046,note_on,,,,,0,0,0,,,4,,,61,127
164081,note_off,,,,,35,0,0,,,2,,,69,64
164120,note_on,,,,,39,0,0,,,2,,,71,127
164135,note_off,,,,,15,0,0,,,4,,,61,64
164136,note_off,,,,,1,0,0,,,4,,,64,64
164140,note_off,,,,,4,0,0,,,2,,,71,64
164144,note_on,,,,,4,0,0,,,4,,,64,124
164144,note_on,,,,,0,0,0,,,2,,,71,127
164145,note_on,,,,,1,0,0,,,4,,,61,127
164164,note_off,,,,,19,0,0,,,2,,,71,64
164168,note_on,,,,,4,0,0,,,2,,,69,125
164189,note_off,,,,,21,0,0,,,2,,,69,64
164191,note_on,,,,,2,0,0,,,2,,,68,125
164229,note_off,,,,,38,0,0,,,2,,,68,64
164231,note_off,,,,,2,0,0,,,4,,,61,64
164232,note_off,,,,,1,0,0,,,4,,,64,64
164240,note_on,,,,,8,0,0,,,2,,,69,127
164240,note_on,,,,,0,0,0,,,4,,,64,124
164241,note_on,,,,,1,0,0,,,4,,,61,127
164327,note_off,,,,,86,0,0,,,4,,,61,64
164328,note_off,,,,,1,0,0,,,4,,,64,64
164336,note_on,,,,,8,0,0,,,4,,,64,124
164336,note_on,,,,,0,0,0,,,2,,,71,127
164337,note_on,,,,,1,0,0,,,4,,,61,127
164351,note_off,,,,,14,0,0,,,2,,,69,64
164430,note_on,,,,,79,0,0,,,2,,,69,127
164430,note_on,,,,,0,0,0,,,4,,,62,127
164431,note_on,,,,,1,0,0,,,4,,,59,127
164436,note_off,,,,,5,0,0,,,4,,,61,64
164437,note_off,,,,,1,0,0,,,2,,,71,64
164437,note_off,,,,,0,0,0,,,4,,,64,64
164519,note_off,,,,,82,0,0,,,4,,,59,64
164520,note_off,,,,,1,0,0,,,4,,,62,64
164524,note_off,,,,,4,0,0,,,2,,,69,64
164526,note_on,,,,,2,0,0,,,2,,,67,127
164527,note_on,,,,,1,0,0,,,4,,,62,127
164527,note_on,,,,,0,0,0,,,4,,,59,127
164616,note_off,,,,,89,0,0,,,4,,,59,64
164616,note_off,,,,,0,0,0,,,4,,,62,64
164625,note_on,,,,,9,0,0,,,4,,,59,127
164625,note_on,,,,,0,0,0,,,4,,,62,127
164712,note_off,,,,,87,0,0,,,4,,,59,64
164713,note_off,,,,,1,0,0,,,4,,,62,64
164719,note_on,,,,,6,0,0,,,2,,,71,127
164720,note_on,,,,,1,0,0,,,4,,,62,127
164720,note_on,,,,,0,0,0,,,4,,,59,127
164721,note_off,,,,,1,0,0,,,2,,,67,64
164808,note_off,,,,,87,0,0,,,4,,,59,64
164808,note_off,,,,,0,0,0,,,4,,,62,64
164816,note_on,,,,,8,0,0,,,2,,,67,127
164817,note_on,,,,,1,0,0,,,4,,,57,127
164817,note_on,,,,,0,0,0,,,4,,,61,127
164825,note_off,,,,,8,0,0,,,2,,,71,64
164900,note_off,,,,,75,0,0,,,4,,,61,64
164900,note_off,,,,,0,0,0,,,4,,,57,64
164908,note_on,,,,,8,0,0,,,4,,,66,127
164909,note_off,,,,,1,0,0,,,2,,,67,64
164909,note_on,,,,,0,0,0,,,4,,,61,127
164909,note_on,,,,,0,0,0,,,4,,,57,127
164996,note_off,,,,,87,0,0,,,4,,,57,64
164997,note_off,,,,,1,0,0,,,4,,,61,64
165003,note_on,,,,,6,0,0,,,4,,,61,127
165004,note_on,,,,,1,0,0,,,4,,,57,127
165089,note_off,,,,,85,0,0,,,4,,,66,64
165094,note_off,,,,,5,0,0,,,4,,,57,64
165094,note_off,,,,,0,0,0,,,4,,,61,64
165102,note_on,,,,,8,0,0,,,2,,,69,127
165103,note_on,,,,,1,0,0,,,4,,,57,127
165103,note_on,,,,,0,0,0,,,4,,,61,127
165192,note_off,,,,,89,0,0,,,4,,,61,64
165192,note_off,,,,,0,0,0,,,4,,,57,64
165198,note_on,,,,,6,0,0,,,4,,,66,127
165199,note_on,,,,,1,0,0,,,4,,,59,127
165199,note_on,,,,,0,0,0,,,4,,,55,127
165206,note_off,,,,,7,0,0,,,2,,,69,64
165248,note_off,,,,,42,0,0,,,4,,,66,64
165249,note_on,,,,,1,0,0,,,4,,,64,124
165288,note_off,,,,,39,0,0,,,4,,,55,64
165288,note_off,,,,,0,0,0,,,4,,,59,64
165296,note_off,,,,,8,0,0,,,4,,,64,64
165297,note_on,,,,,1,0,0,,,4,,,59,127
165297,note_on,,,,,0,0,0,,,2,,,67,126
165298,note_on,,,,,1,0,0,,,4,,,55,127
165346,note_off,,,,,48,0,0,,,2,,,67,64
165347,note_on,,,,,1,0,0,,,4,,,66,126
165382,note_off,,,,,35,0,0,,,4,,,59,64
165382,note_off,,,,,0,0,0,,,4,,,55,64
165388,note_off,,,,,6,0,0,,,4,,,66,64
165389,note_on,,,,,1,0,0,,,2,,,69,126
165389,note_on,,,,,0,0,0,,,4,,,59,127
165390,note_on,,,,,1,0,0,,,4,,,55,127
165434,note_off,,,,,44,0,0,,,2,,,69,64
165435,note_on,,,,,1,0,0,,,2,,,67,126
165474,note_off,,,,,39,0,0,,,4,,,55,64
165474,note_off,,,,,0,0,0,,,4,,,59,64
165482,note_off,,,,,8,0,0,,,2,,,67,64
165483,note_on,,,,,1,0,0,,,4,,,66,126
165483,note_on,,,,,0,0,0,,,4,,,59,127
165484,note_on,,,,,1,0,0,,,4,,,55,127
165528,note_off,,,,,44,0,0,,,4,,,66,64
165529,note_on,,,,,1,0,0,,,4,,,64,124
165568,note_off,,,,,39,0,0,,,4,,,55,64
165568,note_off,,,,,0,0,0,,,4,,,59,64
165576,note_off,,,,,8,0,0,,,4,,,64,64
165577,note_on,,,,,1,0,0,,,4,,,57,127
165577,note_on,,,,,0,0,0,,,4,,,62,127
165578,note_on,,,,,1,0,0,,,4,,,54,127
165623,note_off,,,,,45,0,0,,,4,,,62,64
165623,note_on,,,,,0,0,0,,,4,,,64,124
165670,note_off,,,,,47,0,0,,,4,,,64,64
165670,note_on,,,,,0,0,0,,,4,,,62,127
165715,note_off,,,,,45,0,0,,,4,,,62,64
165715,note_on,,,,,0,0,0,,,4,,,61,127
165764,note_off,,,,,49,0,0,,,4,,,61,64
165764,note_on,,,,,0,0,0,,,4,,,62,127
165811,note_off,,,,,47,0,0,,,4,,,62,64
165811,note_on,,,,,0,0,0,,,4,,,64,124
165860,note_off,,,,,49,0,0,,,4,,,64,64
165860,note_on,,,,,0,0,0,,,3,,,66,126
165909,note_off,,,,,49,0,0,,,3,,,66,64
165909,note_on,,,,,0,0,0,,,3,,,67,126
165956,note_off,,,,,47,0,0,,,3,,,67,64
165956,note_on,,,,,0,0,0,,,3,,,68,126
166003,note_off,,,,,47,0,0,,,3,,,68,64
166003,note_on,,,,,0,0,0,,,3,,,69,126
166048,note_off,,,,,45,0,0,,,3,,,69,64
166048,note_on,,,,,0,0,0,,,3,,,71,127
166093,note_off,,,,,45,0,0,,,3,,,71,64
166093,note_on,,,,,0,0,0,,,3,,,69,126
166136,note_off,,,,,43,0,0,,,3,,,69,64
166137,note_on,,,,,1,0,0,,,3,,,73,127
166181,note_off,,,,,44,0,0,,,3,,,73,64
166182,note_on,,,,,1,0,0,,,3,,,71,127
166224,note_off,,,,,42,0,0,,,3,,,71,64
166225,note_on,,,,,1,0,0,,,3,,,74,127
166268,note_off,,,,,43,0,0,,,3,,,74,64
166268,note_on,,,,,0,0,0,,,3,,,73,127
166311,note_off,,,,,43,0,0,,,3,,,73,64
166311,note_on,,,,,0,0,0,,,2,,,76,127
166355,note_off,,,,,44,0,0,,,2,,,76,64
166355,note_on,,,,,0,0,0,,,3,,,74,127
166397,note_off,,,,,42,0,0,,,3,,,74,64
166398,note_on,,,,,1,0,0,,,1,,,78,126
166440,note_off,,,,,42,0,0,,,1,,,78,64
166441,note_on,,,,,1,0,0,,,2,,,76,127
166482,note_off,,,,,41,0,0,,,2,,,76,64
166483,note_on,,,,,1,0,0,,,1,,,79,126
166527,note_off,,,,,44,0,0,,,1,,,79,64
166527,note_on,,,,,0,0,0,,,1,,,78,126
166572,note_off,,,,,45,0,0,,,1,,,78,64
166572,note_on,,,,,0,0,0,,,1,,,81,126
166617,note_off,,,,,45,0,0,,,1,,,81,64
166618,note_on,,,,,1,0,0,,,1,,,79,126
166665,note_off,,,,,47,0,0,,,1,,,79,64
166665,note_on,,,,,0,0,0,,,1,,,80,122
166712,note_off,,,,,47,0,0,,,1,,,80,64
166712,note_on,,,,,0,0,0,,,1,,,81,122
166758,note_off,,,,,46,0,0,,,1,,,81,64
166759,note_on,,,,,1,0,0,,,1,,,83,122
166804,note_off,,,,,45,0,0,,,1,,,83,64
166804,note_on,,,,,0,0,0,,,1,,,81,122
166848,note_off,,,,,44,0,0,,,1,,,81,64
166849,note_on,,,,,1,0,0,,,1,,,85,122
166894,note_off,,,,,45,0,0,,,1,,,85,64
166894,note_on,,,,,0,0,0,,,1,,,83,122
166939,note_off,,,,,45,0,0,,,1,,,83,64
166940,note_on,,,,,1,0,0,,,1,,,86,126
166982,note_off,,,,,42,0,0,,,1,,,86,64
166982,note_on,,,,,0,0,0,,,1,,,85,122
167028,note_off,,,,,46,0,0,,,1,,,85,64
167028,note_on,,,,,0,0,0,,,1,,,88,127
167119,note_off,,,,,91,0,0,,,1,,,88,64
167119,note_on,,,,,0,0,0,,,1,,,86,126
167210,note_off,,,,,91,0,0,,,1,,,86,64
167210,note_on,,,,,0,0,0,,,1,,,85,122
167301,note_off,,,,,91,0,0,,,1,,,85,64
167302,note_on,,,,,1,0,0,,,1,,,83,122
167317,note_off,,,,,15,0,0,,,4,,,54,64
167318,note_off,,,,,1,0,0,,,4,,,57,64
167393,note_off,,,,,75,0,0,,,1,,,83,64
167394,note_on,,,,,1,0,0,,,1,,,80,122
167394,note_on,,,,,0,0,0,,,3,,,76,116
167395,note_on,,,,,1,0,0,,,3,,,73,116
167480,note_off,,,,,85,0,0,,,3,,,73,64
167480,note_off,,,,,0,0,0,,,3,,,76,64
167486,note_on,,,,,6,0,0,,,1,,,83,114
167487,note_on,,,,,1,0,0,,,3,,,73,116
167487,note_on,,,,,0,0,0,,,3,,,76,116
167491,note_off,,,,,4,0,0,,,1,,,80,64
167535,note_on,,,,,44,0,0,,,1,,,81,114
167541,note_off,,,,,6,0,0,,,1,,,83,64
167576,note_off,,,,,35,0,0,,,1,,,81,64
167576,note_off,,,,,0,0,0,,,3,,,73,64
167577,note_off,,,,,1,0,0,,,3,,,76,64
167582,note_on,,,,,5,0,0,,,1,,,81,114
167583,note_on,,,,,1,0,0,,,3,,,76,116
167583,note_on,,,,,0,0,0,,,3,,,73,116
167670,note_off,,,,,87,0,0,,,3,,,73,64
167670,note_off,,,,,0,0,0,,,3,,,76,64
167678,note_on,,,,,8,0,0,,,3,,,76,116
167679,note_on,,,,,1,0,0,,,3,,,73,116
167766,note_off,,,,,87,0,0,,,3,,,76,64
167766,note_off,,,,,0,0,0,,,3,,,73,64
167772,note_on,,,,,6,0,0,,,3,,,76,116
167773,note_on,,,,,1,0,0,,,3,,,73,116
167818,note_off,,,,,45,0,0,,,1,,,81,64
167820,note_on,,,,,2,0,0,,,1,,,83,114
167858,note_off,,,,,38,0,0,,,3,,,73,64
167859,note_off,,,,,1,0,0,,,3,,,76,64
167867,note_on,,,,,8,0,0,,,1,,,81,114
167867,note_on,,,,,0,0,0,,,3,,,76,116
167868,note_on,,,,,1,0,0,,,3,,,73,116
167875,note_off,,,,,7,0,0,,,1,,,83,64
167914,note_on,,,,,39,0,0,,,1,,,80,118
167919,note_off,,,,,5,0,0,,,1,,,81,64
167954,note_off,,,,,35,0,0,,,3,,,73,64
167954,note_off,,,,,0,0,0,,,3,,,76,64
167961,note_on,,,,,7,0,0,,,3,,,76,116
167961,note_on,,,,,0,0,0,,,1,,,81,114
167962,note_on,,,,,1,0,0,,,3,,,73,116
167967,note_off,,,,,5,0,0,,,1,,,80,64
168048,note_off,,,,,81,0,0,,,3,,,76,64
168048,note_off,,,,,0,0,0,,,3,,,73,64
168049,note_off,,,,,1,0,0,,,1,,,81,64
168057,note_on,,,,,8,0,0,,,1,,,81,114
168057,note_on,,,,,0,0,0,,,3,,,76,116
168058,note_on,,,,,1,0,0,,,3,,,73,116
168144,note_off,,,,,86,0,0,,,3,,,73,64
168144,note_off,,,,,0,0,0,,,3,,,76,64
168151,note_on,,,,,7,0,0,,,3,,,74,116
168151,note_on,,,,,0,0,0,,,3,,,71,115
168236,note_off,,,,,85,0,0,,,3,,,71,64
168237,note_off,,,,,1,0,0,,,3,,,74,64
168243,note_on,,,,,6,0,0,,,1,,,78,122
168243,note_on,,,,,0,0,0,,,3,,,74,116
168244,note_on,,,,,1,0,0,,,3,,,71,115
168250,note_off,,,,,6,0,0,,,1,,,81,64
168328,note_off,,,,,78,0,0,,,3,,,71,64
168329,note_off,,,,,1,0,0,,,3,,,74,64
168337,note_on,,,,,8,0,0,,,3,,,74,116
168337,note_on,,,,,0,0,0,,,3,,,71,115
168424,note_off,,,,,87,0,0,,,3,,,71,64
168425,note_off,,,,,1,0,0,,,3,,,74,64
168431,note_on,,,,,6,0,0,,,1,,,79,118
168432,note_on,,,,,1,0,0,,,3,,,71,115
168432,note_on,,,,,0,0,0,,,3,,,74,116
168436,note_off,,,,,4,0,0,,,1,,,78,64
168518,note_off,,,,,82,0,0,,,3,,,71,64
168519,note_off,,,,,1,0,0,,,3,,,74,64
168527,note_on,,,,,8,0,0,,,3,,,73,116
168528,note_on,,,,,1,0,0,,,3,,,69,113
168612,note_off,,,,,84,0,0,,,3,,,69,64
168613,note_off,,,,,1,0,0,,,3,,,73,64
168619,note_on,,,,,6,0,0,,,2,,,77,123
168620,note_on,,,,,1,0,0,,,3,,,73,116
168620,note_on,,,,,0,0,0,,,3,,,69,113
168623,note_off,,,,,3,0,0,,,1,,,79,64
168708,note_off,,,,,85,0,0,,,3,,,69,64
168708,note_off,,,,,0,0,0,,,3,,,73,64
168714,note_on,,,,,6,0,0,,,3,,,73,116
168715,note_on,,,,,1,0,0,,,3,,,69,113
168802,note_off,,,,,87,0,0,,,3,,,73,64
168802,note_off,,,,,0,0,0,,,3,,,69,64
168808,note_on,,,,,6,0,0,,,1,,,78,122
168809,note_on,,,,,1,0,0,,,3,,,73,116
168809,note_on,,,,,0,0,0,,,3,,,69,113
168813,note_off,,,,,4,0,0,,,2,,,77,64
168896,note_off,,,,,83,0,0,,,3,,,69,64
168896,note_off,,,,,0,0,0,,,3,,,73,64
168903,note_on,,,,,7,0,0,,,3,,,67,113
168903,note_on,,,,,0,0,0,,,3,,,71,115
168986,note_off,,,,,83,0,0,,,3,,,71,64
168986,note_off,,,,,0,0,0,,,3,,,67,64
168993,note_on,,,,,7,0,0,,,2,,,75,123
168993,note_on,,,,,0,0,0,,,3,,,71,115
168994,note_on,,,,,1,0,0,,,3,,,67,113
168997,note_off,,,,,3,0,0,,,1,,,78,64
169075,note_off,,,,,78,0,0,,,3,,,67,64
169076,note_off,,,,,1,0,0,,,3,,,71,64
169084,note_on,,,,,8,0,0,,,3,,,71,115
169084,note_on,,,,,0,0,0,,,3,,,67,113
169167,note_off,,,,,83,0,0,,,3,,,67,64
169168,note_off,,,,,1,0,0,,,3,,,71,64
169175,note_on,,,,,7,0,0,,,3,,,67,113
169175,note_on,,,,,0,0,0,,,3,,,71,115
169175,note_on,,,,,0,0,0,,,2,,,76,123
169178,note_off,,,,,3,0,0,,,2,,,75,64
169259,note_off,,,,,81,0,0,,,3,,,67,64
169260,note_off,,,,,1,0,0,,,3,,,71,64
169268,note_on,,,,,8,0,0,,,3,,,66,113
169268,note_on,,,,,0,0,0,,,3,,,69,113
169313,note_off,,,,,45,0,0,,,2,,,76,64
169313,note_on,,,,,0,0,0,,,2,,,73,123
169358,note_on,,,,,45,0,0,,,2,,,76,123
169366,note_off,,,,,8,0,0,,,2,,,73,64
169402,note_on,,,,,36,0,0,,,2,,,74,123
169410,note_off,,,,,8,0,0,,,2,,,76,64
169444,note_on,,,,,34,0,0,,,1,,,83,122
169450,note_off,,,,,6,0,0,,,2,,,74,64
169488,note_on,,,,,38,0,0,,,1,,,81,122
169496,note_off,,,,,8,0,0,,,1,,,83,64
169533,note_on,,,,,37,0,0,,,1,,,79,126
169540,note_off,,,,,7,0,0,,,1,,,81,64
169579,note_on,,,,,39,0,0,,,1,,,78,126
169586,note_off,,,,,7,0,0,,,1,,,79,64
169625,note_off,,,,,39,0,0,,,3,,,69,64
169625,note_off,,,,,0,0,0,,,3,,,66,64
169626,note_on,,,,,1,0,0,,,4,,,55,127
169626,note_on,,,,,0,0,0,,,2,,,76,127
169627,note_on,,,,,1,0,0,,,4,,,43,127
169633,note_off,,,,,6,0,0,,,1,,,78,64
169672,note_on,,,,,39,0,0,,,1,,,86,126
169718,note_on,,,,,46,0,0,,,2,,,75,127
169718,note_on,,,,,0,0,0,,,4,,,54,127
169719,note_on,,,,,1,0,0,,,4,,,42,127
169727,note_off,,,,,8,0,0,,,2,,,76,64
169728,note_off,,,,,1,0,0,,,4,,,55,64
169728,note_off,,,,,0,0,0,,,4,,,43,64
169762,note_off,,,,,34,0,0,,,1,,,86,64
169766,note_on,,,,,4,0,0,,,1,,,86,126
169812,note_on,,,,,46,0,0,,,2,,,76,127
169812,note_on,,,,,0,0,0,,,4,,,55,127
169813,note_on,,,,,1,0,0,,,4,,,43,127
169821,note_off,,,,,8,0,0,,,4,,,42,64
169821,note_off,,,,,0,0,0,,,2,,,75,64
169822,note_off,,,,,1,0,0,,,4,,,54,64
169857,note_off,,,,,35,0,0,,,1,,,86,64
169859,note_on,,,,,2,0,0,,,1,,,86,126
169905,note_on,,,,,46,0,0,,,2,,,75,127
169906,note_on,,,,,1,0,0,,,4,,,42,127
169906,note_on,,,,,0,0,0,,,4,,,54,127
169914,note_off,,,,,8,0,0,,,2,,,76,64
169915,note_off,,,,,1,0,0,,,4,,,43,64
169916,note_off,,,,,1,0,0,,,4,,,55,64
169949,note_off,,,,,33,0,0,,,1,,,86,64
169951,note_on,,,,,2,0,0,,,1,,,86,126
169997,note_on,,,,,46,0,0,,,2,,,76,127
169998,note_on,,,,,1,0,0,,,4,,,43,127
169998,note_on,,,,,0,0,0,,,4,,,55,127
170006,note_off,,,,,8,0,0,,,2,,,75,64
170007,note_off,,,,,1,0,0,,,4,,,42,64
170008,note_off,,,,,1,0,0,,,4,,,54,64
170041,note_off,,,,,33,0,0,,,1,,,86,64
170043,note_on,,,,,2,0,0,,,1,,,79,126
170049,note_off,,,,,6,0,0,,,2,,,76,64
170088,note_on,,,,,39,0,0,,,1,,,83,122
170095,note_off,,,,,7,0,0,,,1,,,79,64
170130,note_on,,,,,35,0,0,,,1,,,81,122
170137,note_off,,,,,7,0,0,,,1,,,83,64
170176,note_on,,,,,39,0,0,,,1,,,84,122
170184,note_off,,,,,8,0,0,,,1,,,81,64
170218,note_on,,,,,34,0,0,,,1,,,83,122
170226,note_off,,,,,8,0,0,,,1,,,84,64
170262,note_on,,,,,36,0,0,,,1,,,81,122
170268,note_off,,,,,6,0,0,,,1,,,83,64
170304,note_on,,,,,36,0,0,,,1,,,79,126
170312,note_off,,,,,8,0,0,,,1,,,81,64
170343,note_off,,,,,31,0,0,,,4,,,55,64
170343,note_off,,,,,0,0,0,,,4,,,43,64
170350,note_on,,,,,7,0,0,,,4,,,57,127
170350,note_on,,,,,0,0,0,,,1,,,78,126
170351,note_on,,,,,1,0,0,,,4,,,45,127
170356,note_off,,,,,5,0,0,,,1,,,79,64
170397,note_on,,,,,41,0,0,,,1,,,86,126
170443,note_on,,,,,46,0,0,,,2,,,77,127
170444,note_on,,,,,1,0,0,,,4,,,56,127
170444,note_on,,,,,0,0,0,,,4,,,44,127
170450,note_off,,,,,6,0,0,,,1,,,78,64
170452,note_off,,,,,2,0,0,,,4,,,45,64
170453,note_off,,,,,1,0,0,,,4,,,57,64
170488,note_off,,,,,35,0,0,,,1,,,86,64
170490,note_on,,,,,2,0,0,,,1,,,86,126
170536,note_on,,,,,46,0,0,,,4,,,57,127
170536,note_on,,,,,0,0,0,,,1,,,78,126
170537,note_on,,,,,1,0,0,,,4,,,45,127
170544,note_off,,,,,7,0,0,,,2,,,77,64
170546,note_off,,,,,2,0,0,,,4,,,44,64
170547,note_off,,,,,1,0,0,,,4,,,56,64
170580,note_off,,,,,33,0,0,,,1,,,86,64
170584,note_on,,,,,4,0,0,,,1,,,86,126
170630,note_on,,,,,46,0,0,,,4,,,56,127
170630,note_on,,,,,0,0,0,,,2,,,77,127
170631,note_on,,,,,1,0,0,,,4,,,44,127
170637,note_off,,,,,6,0,0,,,1,,,78,64
170640,note_off,,,,,3,0,0,,,4,,,45,64
170641,note_off,,,,,1,0,0,,,4,,,57,64
170674,note_off,,,,,33,0,0,,,1,,,86,64
170676,note_on,,,,,2,0,0,,,1,,,86,126
170722,note_on,,,,,46,0,0,,,1,,,78,126
170723,note_on,,,,,1,0,0,,,4,,,45,127
170723,note_on,,,,,0,0,0,,,4,,,57,127
170729,note_off,,,,,6,0,0,,,2,,,77,64
170733,note_off,,,,,4,0,0,,,4,,,56,64
170733,note_off,,,,,0,0,0,,,4,,,44,64
170766,note_off,,,,,33,0,0,,,1,,,86,64
170768,note_on,,,,,2,0,0,,,1,,,81,122
170776,note_off,,,,,8,0,0,,,1,,,78,64
170812,note_on,,,,,36,0,0,,,1,,,84,122
170820,note_off,,,,,8,0,0,,,1,,,81,64
170856,note_on,,,,,36,0,0,,,1,,,83,122
170865,note_off,,,,,9,0,0,,,1,,,84,64
170900,note_on,,,,,35,0,0,,,1,,,86,126
170907,note_off,,,,,7,0,0,,,1,,,83,64
170944,note_on,,,,,37,0,0,,,1,,,84,122
170952,note_off,,,,,8,0,0,,,1,,,86,64
170990,note_on,,,,,38,0,0,,,1,,,83,122
170996,note_off,,,,,6,0,0,,,1,,,84,64
171034,note_on,,,,,38,0,0,,,1,,,81,122
171042,note_off,,,,,8,0,0,,,1,,,83,64
171072,note_off,,,,,30,0,0,,,4,,,45,64
171073,note_off,,,,,1,0,0,,,4,,,57,64
171081,note_on,,,,,8,0,0,,,1,,,79,126
171082,note_on,,,,,1,0,0,,,4,,,47,127
171082,note_on,,,,,0,0,0,,,4,,,59,126
171088,note_off,,,,,6,0,0,,,1,,,81,64
171126,note_on,,,,,38,0,0,,,1,,,86,126
171173,note_on,,,,,47,0,0,,,1,,,78,126
171174,note_on,,,,,1,0,0,,,4,,,58,122
171174,note_on,,,,,0,0,0,,,4,,,46,127
171182,note_off,,,,,8,0,0,,,1,,,79,64
171184,note_off,,,,,2,0,0,,,4,,,59,64
171184,note_off,,,,,0,0,0,,,4,,,47,64
171217,note_off,,,,,33,0,0,,,1,,,86,64
171221,note_on,,,,,4,0,0,,,1,,,86,126
171268,note_on,,,,,47,0,0,,,4,,,47,127
171268,note_on,,,,,0,0,0,,,4,,,59,126
171268,note_on,,,,,0,0,0,,,1,,,79,126
171274,note_off,,,,,6,0,0,,,1,,,78,64
171278,note_off,,,,,4,0,0,,,4,,,46,64
171278,note_off,,,,,0,0,0,,,4,,,58,64
171312,note_off,,,,,34,0,0,,,1,,,86,64
171314,note_on,,,,,2,0,0,,,1,,,86,126
171361,note_on,,,,,47,0,0,,,1,,,78,126
171362,note_on,,,,,1,0,0,,,4,,,58,122
171362,note_on,,,,,0,0,0,,,4,,,46,127
171368,note_off,,,,,6,0,0,,,1,,,79,64
171370,note_off,,,,,2,0,0,,,4,,,47,64
171371,note_off,,,,,1,0,0,,,4,,,59,64
171404,note_off,,,,,33,0,0,,,1,,,86,64
171406,note_on,,,,,2,0,0,,,1,,,86,126
171452,note_on,,,,,46,0,0,,,1,,,79,126
171453,note_on,,,,,1,0,0,,,4,,,47,127
171453,note_on,,,,,0,0,0,,,4,,,59,126
171460,note_off,,,,,7,0,0,,,1,,,78,64
171461,note_off,,,,,1,0,0,,,4,,,46,64
171461,note_off,,,,,0,0,0,,,4,,,58,64
171495,note_off,,,,,34,0,0,,,1,,,86,64
171497,note_on,,,,,2,0,0,,,1,,,83,122
171504,note_off,,,,,7,0,0,,,1,,,79,64
171539,note_on,,,,,35,0,0,,,1,,,86,126
171546,note_off,,,,,7,0,0,,,1,,,83,64
171583,note_on,,,,,37,0,0,,,1,,,85,126
171590,note_off,,,,,7,0,0,,,1,,,86,64
171628,note_on,,,,,38,0,0,,,1,,,86,126
171636,note_off,,,,,8,0,0,,,1,,,85,64
171671,note_on,,,,,35,0,0,,,1,,,85,126
171679,note_off,,,,,8,0,0,,,1,,,86,64
171717,note_on,,,,,38,0,0,,,1,,,83,122
171725,note_off,,,,,8,0,0,,,1,,,85,64
171761,note_on,,,,,36,0,0,,,1,,,81,122
171769,note_off,,,,,8,0,0,,,1,,,83,64
171792,note_off,,,,,23,0,0,,,4,,,59,64
171800,note_off,,,,,8,0,0,,,4,,,47,64
171807,note_on,,,,,7,0,0,,,1,,,80,126
171808,note_on,,,,,1,0,0,,,4,,,47,127
171808,note_on,,,,,0,0,0,,,4,,,58,105
171814,note_off,,,,,6,0,0,,,1,,,81,64
171852,note_on,,,,,38,0,0,,,4,,,62,116
171896,note_off,,,,,44,0,0,,,4,,,58,64
171896,note_on,,,,,0,0,0,,,2,,,74,127
171897,note_on,,,,,1,0,0,,,4,,,65,113
171902,note_off,,,,,5,0,0,,,1,,,80,64
171941,note_off,,,,,39,0,0,,,4,,,62,64
171941,note_on,,,,,0,0,0,,,2,,,68,117
171984,note_off,,,,,43,0,0,,,4,,,65,64
171984,note_on,,,,,0,0,0,,,4,,,58,117
172027,note_on,,,,,43,0,0,,,4,,,62,120
172050,note_off,,,,,23,0,0,,,2,,,68,64
172071,note_off,,,,,21,0,0,,,4,,,58,64
172072,note_off,,,,,1,0,0,,,2,,,74,64
172072,note_on,,,,,0,0,0,,,2,,,77,127
172073,note_on,,,,,1,0,0,,,4,,,65,117
172114,note_off,,,,,41,0,0,,,4,,,62,64
172114,note_on,,,,,0,0,0,,,2,,,68,117
172159,note_on,,,,,45,0,0,,,4,,,58,117
172182,note_off,,,,,23,0,0,,,4,,,65,64
172203,note_on,,,,,21,0,0,,,4,,,62,120
172224,note_off,,,,,21,0,0,,,2,,,68,64
172247,note_on,,,,,23,0,0,,,2,,,76,127
172248,note_on,,,,,1,0,0,,,4,,,65,117
172251,note_off,,,,,3,0,0,,,2,,,77,64
172271,note_off,,,,,20,0,0,,,4,,,58,64
172291,note_on,,,,,20,0,0,,,2,,,68,117
172315,note_off,,,,,24,0,0,,,4,,,62,64
172337,note_on,,,,,22,0,0,,,4,,,58,117
172360,note_off,,,,,23,0,0,,,4,,,65,64
172383,note_on,,,,,23,0,0,,,4,,,62,120
172406,note_off,,,,,23,0,0,,,2,,,68,64
172428,note_off,,,,,22,0,0,,,2,,,76,64
172428,note_on,,,,,0,0,0,,,2,,,74,127
172428,note_on,,,,,0,0,0,,,4,,,65,121
172451,note_off,,,,,23,0,0,,,4,,,58,64
172472,note_on,,,,,21,0,0,,,2,,,68,121
172479,note_off,,,,,7,0,0,,,4,,,65,64
172495,note_off,,,,,16,0,0,,,4,,,62,64
172516,note_off,,,,,21,0,0,,,2,,,68,64
172520,note_off,,,,,4,0,0,,,2,,,74,64
172520,note_on,,,,,0,0,0,,,2,,,73,127
172521,note_on,,,,,1,0,0,,,4,,,57,123
172521,note_on,,,,,0,0,0,,,2,,,69,121
172606,note_off,,,,,85,0,0,,,4,,,57,64
172612,note_on,,,,,6,0,0,,,4,,,57,123
172698,note_off,,,,,86,0,0,,,4,,,57,64
172706,note_on,,,,,8,0,0,,,4,,,61,115
172706,note_on,,,,,0,0,0,,,4,,,57,123
172728,note_off,,,,,22,0,0,,,2,,,73,64
172730,note_off,,,,,2,0,0,,,2,,,69,64
172790,note_off,,,,,60,0,0,,,4,,,57,64
172790,note_off,,,,,0,0,0,,,4,,,61,64
172799,note_on,,,,,9,0,0,,,2,,,69,127
172800,note_on,,,,,1,0,0,,,4,,,61,115
172800,note_on,,,,,0,0,0,,,4,,,57,123
172884,note_off,,,,,84,0,0,,,4,,,57,64
172885,note_off,,,,,1,0,0,,,4,,,61,64
172885,note_off,,,,,0,0,0,,,2,,,69,64
172891,note_on,,,,,6,0,0,,,2,,,70,127
172892,note_on,,,,,1,0,0,,,4,,,66,127
172892,note_on,,,,,0,0,0,,,4,,,63,116
172893,note_on,,,,,1,0,0,,,4,,,57,123
172953,note_off,,,,,60,0,0,,,4,,,47,64
172976,note_off,,,,,23,0,0,,,4,,,57,64
172976,note_off,,,,,0,0,0,,,4,,,63,64
172980,note_off,,,,,4,0,0,,,2,,,70,64
172984,note_on,,,,,4,0,0,,,2,,,71,127
172985,note_on,,,,,1,0,0,,,4,,,57,123
172985,note_on,,,,,0,0,0,,,4,,,63,116
173066,note_off,,,,,81,0,0,,,4,,,66,64
173070,note_off,,,,,4,0,0,,,4,,,63,64
173070,note_off,,,,,0,0,0,,,4,,,57,64
173076,note_on,,,,,6,0,0,,,2,,,67,127
173077,note_on,,,,,1,0,0,,,4,,,64,115
173077,note_on,,,,,0,0,0,,,4,,,57,123
173155,note_off,,,,,78,0,0,,,2,,,71,64
173163,note_off,,,,,8,0,0,,,4,,,57,64
173163,note_off,,,,,0,0,0,,,4,,,64,64
173170,note_on,,,,,7,0,0,,,2,,,71,127
173170,note_on,,,,,0,0,0,,,4,,,64,115
173171,note_on,,,,,1,0,0,,,4,,,57,126
173250,note_off,,,,,79,0,0,,,2,,,71,64
173256,note_off,,,,,6,0,0,,,4,,,57,64
173256,note_off,,,,,0,0,0,,,4,,,64,64
173257,note_off,,,,,1,0,0,,,2,,,67,64
173263,note_on,,,,,6,0,0,,,4,,,61,118
173263,note_on,,,,,0,0,0,,,2,,,68,127
173264,note_on,,,,,1,0,0,,,4,,,57,126
173349,note_off,,,,,85,0,0,,,4,,,57,64
173350,note_off,,,,,1,0,0,,,4,,,61,64
173356,note_off,,,,,6,0,0,,,2,,,68,64
173356,note_on,,,,,0,0,0,,,2,,,69,127
173357,note_on,,,,,1,0,0,,,4,,,61,118
173357,note_on,,,,,0,0,0,,,4,,,57,126
173440,note_off,,,,,83,0,0,,,4,,,57,64
173441,note_off,,,,,1,0,0,,,4,,,61,64
173449,note_on,,,,,8,0,0,,,4,,,66,127
173450,note_on,,,,,1,0,0,,,4,,,57,126
173450,note_on,,,,,0,0,0,,,4,,,62,120
173533,note_off,,,,,83,0,0,,,4,,,57,64
173534,note_off,,,,,1,0,0,,,2,,,69,64
173534,note_off,,,,,0,0,0,,,4,,,62,64
173540,note_on,,,,,6,0,0,,,2,,,69,127
173541,note_on,,,,,1,0,0,,,4,,,62,120
173541,note_on,,,,,0,0,0,,,4,,,57,126
173628,note_off,,,,,87,0,0,,,4,,,57,64
173628,note_off,,,,,0,0,0,,,4,,,62,64
173630,note_off,,,,,2,0,0,,,2,,,69,64
173634,note_on,,,,,4,0,0,,,2,,,74,127
173635,note_on,,,,,1,0,0,,,4,,,59,118
173635,note_on,,,,,0,0,0,,,4,,,57,126
173721,note_off,,,,,86,0,0,,,4,,,57,64
173721,note_off,,,,,0,0,0,,,4,,,59,64
173725,note_off,,,,,4,0,0,,,4,,,66,64
173727,note_on,,,,,2,0,0,,,2,,,67,127
173728,note_on,,,,,1,0,0,,,4,,,57,126
173728,note_on,,,,,0,0,0,,,4,,,59,118
173752,note_off,,,,,24,0,0,,,2,,,74,64
173814,note_off,,,,,62,0,0,,,4,,,59,64
173814,note_off,,,,,0,0,0,,,4,,,57,64
173820,note_on,,,,,6,0,0,,,4,,,64,115
173821,note_on,,,,,1,0,0,,,4,,,61,118
173821,note_on,,,,,0,0,0,,,4,,,57,126
173907,note_off,,,,,86,0,0,,,4,,,57,64
173907,note_off,,,,,0,0,0,,,2,,,67,64
173908,note_off,,,,,1,0,0,,,4,,,61,64
173908,note_off,,,,,0,0,0,,,4,,,64,64
173915,note_on,,,,,7,0,0,,,4,,,61,118
173915,note_on,,,,,0,0,0,,,2,,,67,127
173916,note_on,,,,,1,0,0,,,4,,,57,126
174000,note_off,,,,,84,0,0,,,4,,,57,64
174000,note_off,,,,,0,0,0,,,4,,,61,64
174007,note_on,,,,,7,0,0,,,4,,,65,127
174008,note_on,,,,,1,0,0,,,4,,,62,120
174008,note_on,,,,,0,0,0,,,4,,,57,126
174009,note_off,,,,,1,0,0,,,2,,,67,64
174094,note_off,,,,,85,0,0,,,4,,,57,64
174094,note_off,,,,,0,0,0,,,4,,,62,64
174098,note_off,,,,,4,0,0,,,4,,,65,64
174100,note_on,,,,,2,0,0,,,4,,,66,127
174101,note_on,,,,,1,0,0,,,4,,,62,120
174101,note_on,,,,,0,0,0,,,4,,,57,126
174186,note_off,,,,,85,0,0,,,4,,,57,64
174186,note_off,,,,,0,0,0,,,4,,,62,64
174192,note_off,,,,,6,0,0,,,4,,,66,64
174194,note_on,,,,,2,0,0,,,4,,,66,127
174195,note_on,,,,,1,0,0,,,4,,,57,126
174280,note_off,,,,,85,0,0,,,4,,,57,64
174285,note_off,,,,,5,0,0,,,4,,,66,64
174288,note_on,,,,,3,0,0,,,1,,,81,126
174288,note_on,,,,,0,0,0,,,4,,,66,127
174288,note_on,,,,,0,0,0,,,4,,,57,126
174373,note_off,,,,,85,0,0,,,4,,,57,64
174378,note_off,,,,,5,0,0,,,4,,,66,64
174381,note_off,,,,,3,0,0,,,1,,,81,64
174381,note_on,,,,,0,0,0,,,1,,,83,126
174382,note_on,,,,,1,0,0,,,4,,,57,127
174382,note_on,,,,,0,0,0,,,2,,,67,127
174429,note_on,,,,,47,0,0,,,1,,,85,126
174436,note_off,,,,,7,0,0,,,1,,,83,64
174477,note_on,,,,,41,0,0,,,1,,,86,126
174484,note_off,,,,,7,0,0,,,1,,,85,64
174523,note_on,,,,,39,0,0,,,1,,,85,126
174530,note_off,,,,,7,0,0,,,1,,,86,64
174566,note_on,,,,,36,0,0,,,1,,,88,127
174574,note_off,,,,,8,0,0,,,1,,,85,64
174610,note_on,,,,,36,0,0,,,1,,,86,126
174618,note_off,,,,,8,0,0,,,1,,,88,64
174654,note_on,,,,,36,0,0,,,1,,,85,126
174662,note_off,,,,,8,0,0,,,1,,,86,64
174699,note_on,,,,,37,0,0,,,1,,,83,126
174707,note_off,,,,,8,0,0,,,1,,,85,64
174735,note_off,,,,,28,0,0,,,2,,,67,64
174744,note_on,,,,,9,0,0,,,1,,,81,126
174744,note_on,,,,,0,0,0,,,4,,,66,126
174752,note_off,,,,,8,0,0,,,1,,,83,64
174789,note_on,,,,,37,0,0,,,1,,,85,126
174796,note_off,,,,,7,0,0,,,1,,,81,64
174835,note_on,,,,,39,0,0,,,1,,,86,126
174842,note_off,,,,,7,0,0,,,1,,,85,64
174879,note_on,,,,,37,0,0,,,1,,,85,126
174887,note_off,,,,,8,0,0,,,1,,,86,64
174925,note_on,,,,,38,0,0,,,4,,,62,127
174925,note_on,,,,,0,0,0,,,1,,,86,126
174928,note_off,,,,,3,0,0,,,4,,,66,64
174932,note_off,,,,,4,0,0,,,1,,,85,64
174970,note_on,,,,,38,0,0,,,1,,,81,126
174978,note_off,,,,,8,0,0,,,1,,,86,64
175015,note_on,,,,,37,0,0,,,1,,,83,126
175023,note_off,,,,,8,0,0,,,1,,,81,64
175061,note_on,,,,,38,0,0,,,1,,,78,126
175067,note_off,,,,,6,0,0,,,1,,,83,64
175105,note_on,,,,,38,0,0,,,1,,,79,126
175106,note_on,,,,,1,0,0,,,4,,,64,124
175110,note_off,,,,,4,0,0,,,4,,,62,64
175112,note_off,,,,,2,0,0,,,1,,,78,64
175149,note_on,,,,,37,0,0,,,1,,,81,126
175156,note_off,,,,,7,0,0,,,1,,,79,64
175193,note_on,,,,,37,0,0,,,1,,,83,126
175200,note_off,,,,,7,0,0,,,1,,,81,64
175237,note_on,,,,,37,0,0,,,1,,,81,126
175245,note_off,,,,,8,0,0,,,1,,,83,64
175281,note_on,,,,,36,0,0,,,1,,,85,126
175282,note_off,,,,,1,0,0,,,4,,,64,64
175282,note_on,,,,,0,0,0,,,4,,,61,127
175288,note_off,,,,,6,0,0,,,1,,,81,64
175326,note_on,,,,,38,0,0,,,1,,,83,126
175334,note_off,,,,,8,0,0,,,1,,,85,64
175370,note_on,,,,,36,0,0,,,1,,,81,126
175378,note_off,,,,,8,0,0,,,1,,,83,64
175416,note_on,,,,,38,0,0,,,1,,,79,126
175422,note_off,,,,,6,0,0,,,1,,,81,64
175461,note_on,,,,,39,0,0,,,1,,,78,126
175468,note_off,,,,,7,0,0,,,1,,,79,64
175505,note_on,,,,,37,0,0,,,1,,,81,126
175512,note_off,,,,,7,0,0,,,1,,,78,64
175549,note_on,,,,,37,0,0,,,1,,,86,126
175557,note_off,,,,,8,0,0,,,1,,,81,64
175595,note_on,,,,,38,0,0,,,1,,,85,126
175603,note_off,,,,,8,0,0,,,1,,,86,64
175641,note_off,,,,,38,0,0,,,4,,,61,64
175642,note_on,,,,,1,0,0,,,1,,,86,126
175648,note_off,,,,,6,0,0,,,1,,,85,64
175686,note_on,,,,,38,0,0,,,1,,,81,126
175730,note_on,,,,,44,0,0,,,1,,,78,126
175731,note_on,,,,,1,0,0,,,4,,,50,127
175731,note_on,,,,,0,0,0,,,4,,,38,127
175776,note_on,,,,,45,0,0,,,2,,,74,125
175818,note_off,,,,,42,0,0,,,1,,,86,64
175822,note_off,,,,,4,0,0,,,4,,,38,64
175822,note_off,,,,,0,0,0,,,4,,,50,64
175823,note_on,,,,,1,0,0,,,1,,,86,126
175823,note_on,,,,,0,0,0,,,4,,,54,127
175824,note_on,,,,,1,0,0,,,4,,,42,127
175863,note_off,,,,,39,0,0,,,1,,,81,64
175867,note_on,,,,,4,0,0,,,1,,,81,126
175882,note_off,,,,,15,0,0,,,4,,,57,64
175907,note_off,,,,,25,0,0,,,1,,,78,64
175911,note_off,,,,,4,0,0,,,4,,,42,64
175911,note_off,,,,,0,0,0,,,4,,,54,64
175912,note_on,,,,,1,0,0,,,4,,,57,127
175912,note_on,,,,,0,0,0,,,1,,,78,126
175913,note_on,,,,,1,0,0,,,4,,,45,127
175949,note_off,,,,,36,0,0,,,2,,,74,64
175955,note_on,,,,,6,0,0,,,2,,,74,125
175995,note_off,,,,,40,0,0,,,1,,,86,64
176001,note_off,,,,,6,0,0,,,4,,,45,64
176002,note_off,,,,,1,0,0,,,4,,,57,64
176002,note_on,,,,,0,0,0,,,1,,,86,126
176003,note_on,,,,,1,0,0,,,4,,,50,127
176003,note_on,,,,,0,0,0,,,4,,,62,125
176040,note_off,,,,,37,0,0,,,1,,,81,64
176046,note_on,,,,,6,0,0,,,1,,,81,126
176087,note_off,,,,,41,0,0,,,1,,,78,64
176090,note_on,,,,,3,0,0,,,1,,,78,126
176127,note_off,,,,,37,0,0,,,2,,,74,64
176135,note_on,,,,,8,0,0,,,2,,,74,125
176143,note_off,,,,,8,0,0,,,1,,,78,64
176173,note_off,,,,,30,0,0,,,1,,,81,64
176175,note_off,,,,,2,0,0,,,1,,,86,64
176179,note_on,,,,,4,0,0,,,1,,,83,126
176225,note_on,,,,,46,0,0,,,1,,,85,126
176233,note_off,,,,,8,0,0,,,1,,,83,64
176269,note_on,,,,,36,0,0,,,1,,,86,126
176277,note_off,,,,,8,0,0,,,1,,,85,64
176314,note_on,,,,,37,0,0,,,1,,,85,126
176321,note_off,,,,,7,0,0,,,1,,,86,64
176359,note_off,,,,,38,0,0,,,4,,,62,64
176360,note_off,,,,,1,0,0,,,4,,,50,64
176360,note_on,,,,,0,0,0,,,1,,,86,126
176366,note_off,,,,,6,0,0,,,1,,,85,64
176403,note_on,,,,,37,0,0,,,1,,,83,126
176449,note_on,,,,,46,0,0,,,1,,,79,126
176449,note_on,,,,,0,0,0,,,4,,,55,127
176450,note_on,,,,,1,0,0,,,4,,,43,127
176486,note_off,,,,,36,0,0,,,2,,,74,64
176494,note_on,,,,,8,0,0,,,2,,,74,125
176534,note_off,,,,,40,0,0,,,1,,,86,64
176540,note_off,,,,,6,0,0,,,4,,,43,64
176541,note_off,,,,,1,0,0,,,4,,,55,64
176541,note_on,,,,,0,0,0,,,1,,,86,126
176541,note_on,,,,,0,0,0,,,4,,,59,126
176542,note_on,,,,,1,0,0,,,4,,,47,127
176579,note_off,,,,,37,0,0,,,1,,,83,64
176585,note_on,,,,,6,0,0,,,1,,,83,126
176625,note_off,,,,,40,0,0,,,1,,,79,64
176629,note_off,,,,,4,0,0,,,4,,,47,64
176630,note_off,,,,,1,0,0,,,4,,,59,64
176630,note_on,,,,,0,0,0,,,1,,,79,126
176631,note_on,,,,,1,0,0,,,4,,,50,127
176631,note_on,,,,,0,0,0,,,4,,,62,125
176666,note_off,,,,,35,0,0,,,2,,,74,64
176674,note_on,,,,,8,0,0,,,2,,,74,125
176714,note_off,,,,,40,0,0,,,1,,,86,64
176718,note_off,,,,,4,0,0,,,4,,,62,64
176718,note_off,,,,,0,0,0,,,4,,,50,64
176719,note_on,,,,,1,0,0,,,2,,,67,122
176719,note_on,,,,,0,0,0,,,1,,,86,126
176720,note_on,,,,,1,0,0,,,4,,,55,127
176759,note_off,,,,,39,0,0,,,1,,,83,64
176763,note_on,,,,,4,0,0,,,1,,,83,126
176803,note_off,,,,,40,0,0,,,1,,,79,64
176807,note_on,,,,,4,0,0,,,1,,,79,126
176844,note_off,,,,,37,0,0,,,2,,,74,64
176851,note_on,,,,,7,0,0,,,2,,,74,124
176889,note_off,,,,,38,0,0,,,4,,,55,64
176891,note_off,,,,,2,0,0,,,1,,,86,64
176896,note_off,,,,,5,0,0,,,1,,,83,64
176897,note_on,,,,,1,0,0,,,1,,,81,121
176897,note_on,,,,,0,0,0,,,1,,,78,121
176898,note_on,,,,,1,0,0,,,4,,,57,127
176898,note_on,,,,,0,0,0,,,4,,,45,127
176904,note_off,,,,,6,0,0,,,1,,,79,64
176981,note_off,,,,,77,0,0,,,4,,,45,64
176981,note_off,,,,,0,0,0,,,4,,,57,64
176988,note_on,,,,,7,0,0,,,4,,,57,127
176988,note_on,,,,,0,0,0,,,4,,,45,127
177038,note_off,,,,,50,0,0,,,1,,,78,64
177039,note_off,,,,,1,0,0,,,1,,,81,64
177039,note_on,,,,,0,0,0,,,1,,,83,108
177040,note_on,,,,,1,0,0,,,1,,,79,108
177065,note_off,,,,,25,0,0,,,1,,,79,64
177077,note_on,,,,,12,0,0,,,1,,,79,108
177077,note_on,,,,,0,0,0,,,2,,,76,111
177084,note_off,,,,,7,0,0,,,1,,,83,64
177084,note_off,,,,,0,0,0,,,2,,,74,64
177090,note_off,,,,,6,0,0,,,2,,,67,64
177091,note_off,,,,,1,0,0,,,4,,,45,64
177091,note_off,,,,,0,0,0,,,4,,,57,64
177098,note_off,,,,,7,0,0,,,1,,,79,64
177098,note_on,,,,,0,0,0,,,1,,,78,108
177099,note_on,,,,,1,0,0,,,4,,,57,127
177099,note_on,,,,,0,0,0,,,2,,,74,121
177100,note_on,,,,,1,0,0,,,4,,,45,127
177106,note_off,,,,,6,0,0,,,2,,,76,64
177180,note_off,,,,,74,0,0,,,4,,,45,64
177181,note_off,,,,,1,0,0,,,4,,,57,64
177187,note_on,,,,,6,0,0,,,4,,,57,127
177188,note_on,,,,,1,0,0,,,4,,,45,127
177271,note_off,,,,,83,0,0,,,4,,,45,64
177271,note_off,,,,,0,0,0,,,4,,,57,64
177279,note_on,,,,,8,0,0,,,4,,,57,127
177280,note_on,,,,,1,0,0,,,4,,,45,127
177340,note_off,,,,,60,0,0,,,1,,,78,64
177340,note_off,,,,,0,0,0,,,2,,,74,64
177363,note_off,,,,,23,0,0,,,4,,,57,64
177363,note_off,,,,,0,0,0,,,4,,,45,64
177370,note_on,,,,,7,0,0,,,1,,,81,126
177370,note_on,,,,,0,0,0,,,1,,,78,126
177371,note_on,,,,,1,0,0,,,4,,,57,127
177371,note_on,,,,,0,0,0,,,4,,,45,127
177458,note_off,,,,,87,0,0,,,4,,,45,64
177459,note_off,,,,,1,0,0,,,4,,,57,64
177466,note_off,,,,,7,0,0,,,1,,,78,64
177466,note_off,,,,,0,0,0,,,1,,,81,64
177467,note_on,,,,,1,0,0,,,1,,,79,126
177467,note_on,,,,,0,0,0,,,2,,,76,127
177468,note_on,,,,,1,0,0,,,4,,,57,127
177468,note_on,,,,,0,0,0,,,4,,,45,127
177557,note_off,,,,,89,0,0,,,4,,,45,64
177557,note_off,,,,,0,0,0,,,4,,,57,64
177564,note_off,,,,,7,0,0,,,2,,,76,64
177564,note_off,,,,,0,0,0,,,1,,,79,64
177565,note_on,,,,,1,0,0,,,4,,,57,127
177565,note_on,,,,,0,0,0,,,2,,,73,127
177565,note_on,,,,,0,0,0,,,2,,,76,127
177566,note_on,,,,,1,0,0,,,4,,,45,127
177659,note_off,,,,,93,0,0,,,2,,,76,64
177659,note_on,,,,,0,0,0,,,1,,,78,126
177704,note_on,,,,,45,0,0,,,1,,,81,126
177710,note_off,,,,,6,0,0,,,1,,,78,64
177749,note_on,,,,,39,0,0,,,1,,,86,126
177755,note_off,,,,,6,0,0,,,1,,,81,64
177795,note_on,,,,,40,0,0,,,1,,,85,126
177801,note_off,,,,,6,0,0,,,1,,,86,64
177840,note_on,,,,,39,0,0,,,1,,,86,126
177848,note_off,,,,,8,0,0,,,1,,,85,64
177858,note_off,,,,,10,0,0,,,4,,,45,64
177860,note_off,,,,,2,0,0,,,4,,,57,64
177884,note_on,,,,,24,0,0,,,1,,,81,126
177930,note_on,,,,,46,0,0,,,1,,,78,126
177931,note_on,,,,,1,0,0,,,4,,,50,127
177931,note_on,,,,,0,0,0,,,4,,,38,127
177960,note_off,,,,,29,0,0,,,2,,,73,64
177975,note_on,,,,,15,0,0,,,2,,,74,125
178016,note_off,,,,,41,0,0,,,1,,,86,64
178020,note_off,,,,,4,0,0,,,4,,,38,64
178020,note_off,,,,,0,0,0,,,4,,,50,64
178020,note_on,,,,,0,0,0,,,1,,,86,126
178021,note_on,,,,,1,0,0,,,4,,,42,127
178021,note_on,,,,,0,0,0,,,4,,,54,127
178060,note_off,,,,,39,0,0,,,1,,,81,64
178064,note_on,,,,,4,0,0,,,1,,,81,126
178105,note_off,,,,,41,0,0,,,1,,,78,64
178109,note_off,,,,,4,0,0,,,4,,,54,64
178109,note_off,,,,,0,0,0,,,4,,,42,64
178110,note_on,,,,,1,0,0,,,1,,,78,126
178110,note_on,,,,,0,0,0,,,4,,,57,127
178111,note_on,,,,,1,0,0,,,4,,,45,127
178145,note_off,,,,,34,0,0,,,2,,,74,64
178153,note_on,,,,,8,0,0,,,2,,,74,125
178193,note_off,,,,,40,0,0,,,1,,,86,64
178198,note_off,,,,,5,0,0,,,4,,,45,64
178198,note_off,,,,,0,0,0,,,4,,,57,64
178198,note_on,,,,,0,0,0,,,1,,,86,126
178199,note_on,,,,,1,0,0,,,4,,,50,127
178199,note_on,,,,,0,0,0,,,4,,,62,125
178237,note_off,,,,,38,0,0,,,1,,,81,64
178241,note_on,,,,,4,0,0,,,1,,,81,126
178282,note_off,,,,,41,0,0,,,1,,,78,64
178287,note_on,,,,,5,0,0,,,1,,,78,126
178324,note_off,,,,,37,0,0,,,2,,,74,64
178332,note_on,,,,,8,0,0,,,2,,,74,125
178372,note_off,,,,,40,0,0,,,1,,,86,64
178376,note_off,,,,,4,0,0,,,1,,,81,64
178377,note_on,,,,,1,0,0,,,1,,,83,126
178382,note_off,,,,,5,0,0,,,1,,,78,64
178421,note_on,,,,,39,0,0,,,1,,,85,126
178428,note_off,,,,,7,0,0,,,1,,,83,64
178465,note_on,,,,,37,0,0,,,1,,,86,126
178471,note_off,,,,,6,0,0,,,1,,,85,64
178511,note_on,,,,,40,0,0,,,1,,,85,126
178517,note_off,,,,,6,0,0,,,1,,,86,64
178548,note_off,,,,,31,0,0,,,4,,,62,64
178548,note_off,,,,,0,0,0,,,4,,,50,64
178555,note_on,,,,,7,0,0,,,1,,,86,126
178562,note_off,,,,,7,0,0,,,1,,,85,64
178601,note_on,,,,,39,0,0,,,1,,,83,126
178645,note_on,,,,,44,0,0,,,1,,,79,126
178645,note_on,,,,,0,0,0,,,4,,,55,127
178646,note_on,,,,,1,0,0,,,4,,,43,127
178683,note_off,,,,,37,0,0,,,2,,,74,64
178691,note_on,,,,,8,0,0,,,2,,,74,125
178731,note_off,,,,,40,0,0,,,1,,,86,64
178735,note_off,,,,,4,0,0,,,4,,,43,64
178735,note_off,,,,,0,0,0,,,4,,,55,64
178736,note_on,,,,,1,0,0,,,4,,,59,126
178736,note_on,,,,,0,0,0,,,1,,,86,126
178737,note_on,,,,,1,0,0,,,4,,,47,127
178775,note_off,,,,,38,0,0,,,1,,,83,64
178779,note_on,,,,,4,0,0,,,1,,,83,126
178819,note_off,,,,,40,0,0,,,1,,,79,64
178824,note_off,,,,,5,0,0,,,4,,,59,64
178824,note_off,,,,,0,0,0,,,4,,,47,64
178824,note_on,,,,,0,0,0,,,1,,,79,126
178825,note_on,,,,,1,0,0,,,4,,,62,125
178825,note_on,,,,,0,0,0,,,4,,,50,127
178862,note_off,,,,,37,0,0,,,2,,,74,64
178868,note_on,,,,,6,0,0,,,2,,,74,125
178908,note_off,,,,,40,0,0,,,1,,,86,64
178913,note_off,,,,,5,0,0,,,4,,,50,64
178913,note_off,,,,,0,0,0,,,4,,,62,64
178914,note_on,,,,,1,0,0,,,2,,,67,122
178914,note_on,,,,,0,0,0,,,4,,,55,127
178914,note_on,,,,,0,0,0,,,1,,,86,126
178953,note_off,,,,,39,0,0,,,1,,,83,64
178957,note_on,,,,,4,0,0,,,1,,,83,126
178997,note_off,,,,,40,0,0,,,1,,,79,64
179001,note_on,,,,,4,0,0,,,1,,,79,126
179040,note_off,,,,,39,0,0,,,2,,,74,64
179047,note_on,,,,,7,0,0,,,2,,,74,124
179084,note_off,,,,,37,0,0,,,4,,,55,64
179085,note_off,,,,,1,0,0,,,1,,,86,64
179091,note_off,,,,,6,0,0,,,1,,,83,64
179092,note_on,,,,,1,0,0,,,1,,,81,121
179092,note_on,,,,,0,0,0,,,1,,,78,121
179093,note_on,,,,,1,0,0,,,4,,,57,127
179093,note_on,,,,,0,0,0,,,4,,,45,127
179100,note_off,,,,,7,0,0,,,1,,,79,64
179176,note_off,,,,,76,0,0,,,4,,,45,64
179176,note_off,,,,,0,0,0,,,4,,,57,64
179183,note_on,,,,,7,0,0,,,4,,,45,127
179183,note_on,,,,,0,0,0,,,4,,,57,127
179233,note_off,,,,,50,0,0,,,1,,,81,64
179234,note_on,,,,,1,0,0,,,1,,,83,108
179234,note_on,,,,,0,0,0,,,1,,,79,108
179235,note_off,,,,,1,0,0,,,1,,,78,64
179256,note_off,,,,,21,0,0,,,1,,,79,64
179270,note_off,,,,,14,0,0,,,2,,,74,64
179270,note_on,,,,,0,0,0,,,1,,,79,108
179271,note_on,,,,,1,0,0,,,2,,,76,111
179280,note_off,,,,,9,0,0,,,1,,,83,64
179288,note_off,,,,,8,0,0,,,4,,,45,64
179289,note_off,,,,,1,0,0,,,4,,,57,64
179295,note_off,,,,,6,0,0,,,1,,,79,64
179295,note_off,,,,,0,0,0,,,2,,,67,64
179296,note_on,,,,,1,0,0,,,2,,,74,121
179296,note_on,,,,,0,0,0,,,1,,,78,108
179297,note_on,,,,,1,0,0,,,4,,,57,127
179297,note_on,,,,,0,0,0,,,4,,,45,127
179304,note_off,,,,,7,0,0,,,2,,,76,64
179381,note_off,,,,,77,0,0,,,4,,,45,64
179381,note_off,,,,,0,0,0,,,4,,,57,64
179388,note_on,,,,,7,0,0,,,4,,,57,127
179388,note_on,,,,,0,0,0,,,4,,,45,127
179473,note_off,,,,,85,0,0,,,4,,,45,64
179474,note_off,,,,,1,0,0,,,4,,,57,64
179482,note_on,,,,,8,0,0,,,4,,,57,127
179483,note_on,,,,,1,0,0,,,4,,,45,127
179544,note_off,,,,,61,0,0,,,2,,,74,64
179545,note_off,,,,,1,0,0,,,1,,,78,64
179568,note_off,,,,,23,0,0,,,4,,,45,64
179569,note_off,,,,,1,0,0,,,4,,,57,64
179577,note_on,,,,,8,0,0,,,1,,,81,126
179578,note_on,,,,,1,0,0,,,1,,,78,126
179578,note_on,,,,,0,0,0,,,4,,,57,127
179579,note_on,,,,,1,0,0,,,4,,,45,127
179664,note_off,,,,,85,0,0,,,4,,,45,64
179664,note_off,,,,,0,0,0,,,4,,,57,64
179670,note_off,,,,,6,0,0,,,1,,,78,64
179671,note_off,,,,,1,0,0,,,1,,,81,64
179671,note_on,,,,,0,0,0,,,1,,,79,126
179672,note_on,,,,,1,0,0,,,2,,,76,127
179672,note_on,,,,,0,0,0,,,4,,,57,127
179673,note_on,,,,,1,0,0,,,4,,,45,127
179756,note_off,,,,,83,0,0,,,4,,,45,64
179756,note_off,,,,,0,0,0,,,2,,,76,64
179757,note_off,,,,,1,0,0,,,4,,,57,64
179762,note_off,,,,,5,0,0,,,1,,,79,64
179763,note_on,,,,,1,0,0,,,2,,,76,127
179763,note_on,,,,,0,0,0,,,2,,,73,127
179764,note_on,,,,,1,0,0,,,4,,,57,127
179764,note_on,,,,,0,0,0,,,4,,,45,127
179854,note_off,,,,,90,0,0,,,2,,,73,64
179854,note_off,,,,,0,0,0,,,2,,,76,64
179855,note_off,,,,,1,0,0,,,4,,,45,64
179855,note_off,,,,,0,0,0,,,4,,,57,64
179856,note_on,,,,,1,0,0,,,2,,,74,127
179856,note_on,,,,,0,0,0,,,4,,,62,127
179987,note_off,,,,,131,0,0,,,4,,,62,64
179991,note_on,,,,,4,0,0,,,4,,,64,119
179991,note_on,,,,,0,0,0,,,2,,,76,124
179998,note_off,,,,,7,0,0,,,2,,,74,64
180017,note_on,,,,,19,0,0,,,2,,,73,124
180017,note_on,,,,,0,0,0,,,4,,,61,125
180039,note_off,,,,,22,0,0,,,2,,,76,64
180039,note_off,,,,,0,0,0,,,4,,,64,64
180049,note_on,,,,,10,0,0,,,2,,,71,123
180050,note_on,,,,,1,0,0,,,4,,,59,125
180070,note_off,,,,,20,0,0,,,4,,,61,64
180070,note_off,,,,,0,0,0,,,2,,,73,64
180168,note_off,,,,,98,0,0,,,4,,,59,64
180186,note_off,,,,,18,0,0,,,2,,,71,64
180188,note_on,,,,,2,0,0,,,2,,,73,124
180188,note_on,,,,,0,0,0,,,4,,,61,125
180214,note_on,,,,,26,0,0,,,4,,,57,127
180214,note_on,,,,,0,0,0,,,2,,,69,121
180236,note_off,,,,,22,0,0,,,4,,,61,64
180236,note_off,,,,,0,0,0,,,2,,,73,64
180246,note_on,,,,,10,0,0,,,2,,,67,121
180247,note_on,,,,,1,0,0,,,4,,,55,127
180264,note_off,,,,,17,0,0,,,4,,,57,64
180265,note_off,,,,,1,0,0,,,2,,,69,64
180379,note_off,,,,,114,0,0,,,4,,,55,64
180379,note_off,,,,,0,0,0,,,2,,,67,64
180384,note_on,,,,,5,0,0,,,2,,,69,121
180384,note_on,,,,,0,0,0,,,4,,,57,127
180409,note_on,,,,,25,0,0,,,4,,,66,121
180410,note_on,,,,,1,0,0,,,4,,,54,127
180433,note_off,,,,,23,0,0,,,4,,,57,64
180434,note_off,,,,,1,0,0,,,2,,,69,64
180444,note_on,,,,,10,0,0,,,4,,,52,127
180444,note_on,,,,,0,0,0,,,4,,,64,119
180460,note_off,,,,,16,0,0,,,4,,,54,64
180461,note_off,,,,,1,0,0,,,4,,,66,64
180571,note_off,,,,,110,0,0,,,4,,,52,64
180575,note_off,,,,,4,0,0,,,4,,,64,64
180576,note_on,,,,,1,0,0,,,4,,,66,126
180577,note_on,,,,,1,0,0,,,4,,,54,127
180602,note_on,,,,,25,0,0,,,4,,,62,127
180603,note_on,,,,,1,0,0,,,4,,,50,127
180626,note_off,,,,,23,0,0,,,4,,,54,64
180627,note_off,,,,,1,0,0,,,4,,,66,64
180639,note_on,,,,,12,0,0,,,4,,,49,127
180639,note_on,,,,,0,0,0,,,4,,,61,127
180653,note_off,,,,,14,0,0,,,4,,,50,64
180654,note_off,,,,,1,0,0,,,4,,,62,64
180821,note_on,,,,,167,0,0,,,2,,,69,126
180833,note_on,,,,,12,0,0,,,2,,,73,127
180842,note_on,,,,,9,0,0,,,2,,,76,127
180854,note_on,,,,,12,0,0,,,1,,,79,126
181018,note_off,,,,,164,0,0,,,4,,,61,64
181018,note_off,,,,,0,0,0,,,4,,,49,64
181019,note_on,,,,,1,0,0,,,4,,,50,127
181019,note_on,,,,,0,0,0,,,4,,,62,127
181116,note_off,,,,,97,0,0,,,2,,,69,64
181127,note_off,,,,,11,0,0,,,2,,,73,64
181137,note_off,,,,,10,0,0,,,2,,,76,64
181148,note_off,,,,,11,0,0,,,1,,,79,64
181208,note_on,,,,,60,0,0,,,4,,,66,126
181219,note_on,,,,,11,0,0,,,2,,,69,126
181230,note_on,,,,,11,0,0,,,2,,,74,127
181242,note_on,,,,,12,0,0,,,1,,,78,126
181390,note_off,,,,,148,0,0,,,4,,,62,64
181396,note_off,,,,,6,0,0,,,4,,,50,64
181396,note_on,,,,,0,0,0,,,4,,,62,127
181397,note_on,,,,,1,0,0,,,4,,,55,127
181441,note_off,,,,,44,0,0,,,4,,,66,64
181452,note_off,,,,,11,0,0,,,2,,,69,64
181462,note_off,,,,,10,0,0,,,2,,,74,64
181473,note_off,,,,,11,0,0,,,1,,,78,64
181489,note_on,,,,,16,0,0,,,2,,,71,127
181583,note_on,,,,,94,0,0,,,2,,,70,127
181592,note_off,,,,,9,0,0,,,2,,,71,64
181673,note_on,,,,,81,0,0,,,2,,,71,127
181682,note_off,,,,,9,0,0,,,2,,,70,64
181769,note_off,,,,,87,0,0,,,4,,,55,64
181770,note_off,,,,,1,0,0,,,4,,,62,64
181770,note_on,,,,,0,0,0,,,4,,,65,126
181771,note_on,,,,,1,0,0,,,4,,,56,127
181860,note_off,,,,,89,0,0,,,2,,,71,64
181860,note_on,,,,,0,0,0,,,2,,,74,127
181956,note_on,,,,,96,0,0,,,2,,,73,127
181966,note_off,,,,,10,0,0,,,2,,,74,64
182051,note_on,,,,,85,0,0,,,2,,,74,127
182060,note_off,,,,,9,0,0,,,2,,,73,64
182145,note_off,,,,,85,0,0,,,4,,,65,64
182145,note_off,,,,,0,0,0,,,4,,,56,64
182146,note_on,,,,,1,0,0,,,2,,,69,127
182146,note_on,,,,,0,0,0,,,4,,,57,127
182154,note_off,,,,,8,0,0,,,2,,,74,64
182192,note_on,,,,,38,0,0,,,4,,,66,126
182238,note_on,,,,,46,0,0,,,4,,,62,127
182276,note_off,,,,,38,0,0,,,4,,,66,64
182284,note_on,,,,,8,0,0,,,4,,,66,126
182298,note_off,,,,,14,0,0,,,4,,,57,64
182329,note_on,,,,,31,0,0,,,4,,,57,127
182367,note_off,,,,,38,0,0,,,4,,,66,64
182375,note_on,,,,,8,0,0,,,4,,,66,126
182390,note_off,,,,,15,0,0,,,4,,,62,64
182421,note_on,,,,,31,0,0,,,4,,,62,127
182454,note_off,,,,,33,0,0,,,2,,,69,64
182458,note_off,,,,,4,0,0,,,4,,,66,64
182465,note_on,,,,,7,0,0,,,4,,,66,126
182481,note_off,,,,,16,0,0,,,4,,,57,64
182511,note_on,,,,,30,0,0,,,1,,,78,108
182512,note_on,,,,,1,0,0,,,4,,,57,127
182553,note_on,,,,,41,0,0,,,2,,,76,111
182558,note_off,,,,,5,0,0,,,1,,,78,64
182559,note_off,,,,,1,0,0,,,4,,,66,64
182567,note_on,,,,,8,0,0,,,2,,,67,126
182584,note_off,,,,,17,0,0,,,4,,,62,64
182588,note_on,,,,,4,0,0,,,1,,,78,100
182598,note_off,,,,,10,0,0,,,2,,,76,64
182619,note_on,,,,,21,0,0,,,4,,,61,127
182625,note_on,,,,,6,0,0,,,2,,,76,107
182630,note_off,,,,,5,0,0,,,1,,,78,64
182654,note_on,,,,,24,0,0,,,1,,,78,100
182660,note_off,,,,,6,0,0,,,2,,,67,64
182668,note_off,,,,,8,0,0,,,2,,,76,64
182670,note_on,,,,,2,0,0,,,2,,,67,126
182687,note_off,,,,,17,0,0,,,4,,,57,64
182691,note_on,,,,,4,0,0,,,2,,,76,107
182697,note_off,,,,,6,0,0,,,1,,,78,64
182722,note_on,,,,,25,0,0,,,4,,,57,127
182725,note_on,,,,,3,0,0,,,1,,,78,100
182733,note_off,,,,,8,0,0,,,2,,,76,64
182756,note_on,,,,,23,0,0,,,2,,,76,111
182764,note_off,,,,,8,0,0,,,2,,,67,64
182768,note_off,,,,,4,0,0,,,1,,,78,64
182772,note_on,,,,,4,0,0,,,2,,,67,126
182789,note_off,,,,,17,0,0,,,4,,,61,64
182793,note_on,,,,,4,0,0,,,1,,,78,107
182800,note_off,,,,,7,0,0,,,2,,,76,64
182825,note_on,,,,,25,0,0,,,4,,,61,127
182831,note_on,,,,,6,0,0,,,2,,,76,111
182837,note_off,,,,,6,0,0,,,1,,,78,64
182868,note_off,,,,,31,0,0,,,2,,,67,64
182868,note_on,,,,,0,0,0,,,2,,,74,115
182874,note_off,,,,,6,0,0,,,2,,,76,64
182876,note_on,,,,,2,0,0,,,2,,,67,126
182895,note_off,,,,,19,0,0,,,4,,,57,64
182896,note_on,,,,,1,0,0,,,2,,,76,115
182903,note_off,,,,,7,0,0,,,2,,,74,64
182928,note_off,,,,,25,0,0,,,4,,,61,64
182928,note_on,,,,,0,0,0,,,2,,,74,115
182929,note_on,,,,,1,0,0,,,4,,,62,127
182929,note_on,,,,,0,0,0,,,4,,,50,127
182930,note_off,,,,,1,0,0,,,2,,,76,64
182968,note_off,,,,,38,0,0,,,2,,,67,64
182976,note_on,,,,,8,0,0,,,1,,,78,127
182984,note_off,,,,,8,0,0,,,2,,,74,64
183023,note_on,,,,,39,0,0,,,2,,,74,127
183031,note_off,,,,,8,0,0,,,1,,,78,64
183069,note_on,,,,,38,0,0,,,2,,,73,127
183077,note_off,,,,,8,0,0,,,2,,,74,64
183115,note_on,,,,,38,0,0,,,2,,,71,127
183116,note_on,,,,,1,0,0,,,4,,,47,127
183116,note_on,,,,,0,0,0,,,4,,,59,127
183119,note_off,,,,,3,0,0,,,4,,,50,64
183120,note_off,,,,,1,0,0,,,4,,,62,64
183122,note_off,,,,,2,0,0,,,2,,,73,64
183160,note_on,,,,,38,0,0,,,2,,,74,127
183168,note_off,,,,,8,0,0,,,2,,,71,64
183208,note_on,,,,,40,0,0,,,2,,,71,127
183216,note_off,,,,,8,0,0,,,2,,,74,64
183254,note_on,,,,,38,0,0,,,2,,,69,126
183262,note_off,,,,,8,0,0,,,2,,,71,64
183300,note_on,,,,,38,0,0,,,2,,,67,126
183301,note_on,,,,,1,0,0,,,4,,,43,127
183301,note_on,,,,,0,0,0,,,4,,,55,127
183304,note_off,,,,,3,0,0,,,4,,,47,64
183305,note_off,,,,,1,0,0,,,4,,,59,64
183308,note_off,,,,,3,0,0,,,2,,,69,64
183348,note_on,,,,,40,0,0,,,2,,,71,127
183356,note_off,,,,,8,0,0,,,2,,,67,64
183394,note_on,,,,,38,0,0,,,2,,,67,126
183402,note_off,,,,,8,0,0,,,2,,,71,64
183440,note_on,,,,,38,0,0,,,4,,,66,126
183448,note_off,,,,,8,0,0,,,2,,,67,64
183486,note_on,,,,,38,0,0,,,4,,,64,124
183487,note_on,,,,,1,0,0,,,4,,,40,127
183487,note_on,,,,,0,0,0,,,4,,,52,127
183491,note_off,,,,,4,0,0,,,4,,,55,64
183491,note_off,,,,,0,0,0,,,4,,,43,64
183494,note_off,,,,,3,0,0,,,4,,,66,64
183532,note_on,,,,,38,0,0,,,2,,,67,126
183540,note_off,,,,,8,0,0,,,4,,,64,64
183578,note_on,,,,,38,0,0,,,4,,,64,124
183586,note_off,,,,,8,0,0,,,2,,,67,64
183624,note_on,,,,,38,0,0,,,4,,,62,127
183632,note_off,,,,,8,0,0,,,4,,,64,64
183664,note_off,,,,,32,0,0,,,4,,,40,64
183665,note_off,,,,,1,0,0,,,4,,,52,64
183667,note_off,,,,,2,0,0,,,4,,,62,64
183670,note_on,,,,,3,0,0,,,4,,,49,127
183670,note_on,,,,,0,0,0,,,4,,,61,127
183671,note_on,,,,,1,0,0,,,4,,,37,127
183807,note_on,,,,,136,0,0,,,2,,,69,126
183828,note_on,,,,,21,0,0,,,2,,,76,127
183851,note_on,,,,,23,0,0,,,1,,,79,126
183897,note_off,,,,,46,0,0,,,2,,,69,64
183912,note_off,,,,,15,0,0,,,4,,,37,64
183913,note_off,,,,,1,0,0,,,4,,,61,64
183913,note_off,,,,,0,0,0,,,4,,,49,64
183919,note_off,,,,,6,0,0,,,2,,,76,64
183936,note_off,,,,,17,0,0,,,1,,,79,64
183943,note_on,,,,,7,0,0,,,1,,,79,126
183989,note_on,,,,,46,0,0,,,4,,,61,127
183990,note_on,,,,,1,0,0,,,4,,,49,127
184036,note_on,,,,,46,0,0,,,4,,,62,127
184037,note_on,,,,,1,0,0,,,4,,,50,127
184041,note_off,,,,,4,0,0,,,4,,,49,64
184042,note_off,,,,,1,0,0,,,4,,,61,64
184073,note_off,,,,,31,0,0,,,1,,,79,64
184173,note_on,,,,,100,0,0,,,2,,,69,126
184196,note_on,,,,,23,0,0,,,2,,,74,127
184219,note_on,,,,,23,0,0,,,1,,,78,126
184263,note_off,,,,,44,0,0,,,2,,,69,64
184278,note_off,,,,,15,0,0,,,4,,,50,64
184279,note_off,,,,,1,0,0,,,4,,,62,64
184287,note_off,,,,,8,0,0,,,2,,,74,64
184302,note_off,,,,,15,0,0,,,1,,,78,64
184310,note_on,,,,,8,0,0,,,1,,,78,126
184356,note_on,,,,,46,0,0,,,4,,,62,127
184356,note_on,,,,,0,0,0,,,4,,,50,127
184401,note_on,,,,,45,0,0,,,4,,,55,127
184402,note_on,,,,,1,0,0,,,4,,,43,127
184404,note_off,,,,,2,0,0,,,4,,,50,64
184404,note_off,,,,,0,0,0,,,4,,,62,64
184432,note_off,,,,,28,0,0,,,1,,,78,64
184496,note_on,,,,,64,0,0,,,1,,,83,126
184497,note_on,,,,,1,0,0,,,2,,,71,127
184591,note_on,,,,,94,0,0,,,1,,,82,126
184592,note_on,,,,,1,0,0,,,2,,,70,126
184598,note_off,,,,,6,0,0,,,1,,,83,64
184598,note_off,,,,,0,0,0,,,2,,,71,64
184682,note_on,,,,,84,0,0,,,1,,,83,126
184683,note_on,,,,,1,0,0,,,2,,,71,127
184691,note_off,,,,,8,0,0,,,2,,,70,64
184692,note_off,,,,,1,0,0,,,1,,,82,64
184775,note_on,,,,,83,0,0,,,2,,,70,126
184775,note_on,,,,,0,0,0,,,1,,,82,126
184783,note_off,,,,,8,0,0,,,2,,,71,64
184784,note_off,,,,,1,0,0,,,1,,,83,64
184869,note_on,,,,,85,0,0,,,1,,,83,126
184870,note_on,,,,,1,0,0,,,2,,,71,127
184878,note_off,,,,,8,0,0,,,2,,,70,64
184879,note_off,,,,,1,0,0,,,1,,,82,64
184962,note_on,,,,,83,0,0,,,2,,,73,127
184962,note_on,,,,,0,0,0,,,1,,,85,126
184970,note_off,,,,,8,0,0,,,2,,,71,64
184971,note_off,,,,,1,0,0,,,1,,,83,64
185053,note_on,,,,,82,0,0,,,1,,,86,126
185054,note_on,,,,,1,0,0,,,2,,,74,127
185061,note_off,,,,,7,0,0,,,1,,,85,64
185061,note_off,,,,,0,0,0,,,2,,,73,64
185136,note_off,,,,,75,0,0,,,4,,,43,64
185137,note_off,,,,,1,0,0,,,4,,,55,64
185143,note_on,,,,,6,0,0,,,4,,,65,126
185144,note_on,,,,,1,0,0,,,4,,,56,127
185144,note_on,,,,,0,0,0,,,4,,,59,127
185232,note_off,,,,,88,0,0,,,2,,,74,64
185232,note_off,,,,,0,0,0,,,1,,,86,64
185236,note_on,,,,,4,0,0,,,1,,,86,126
185237,note_on,,,,,1,0,0,,,2,,,74,127
185331,note_on,,,,,94,0,0,,,1,,,85,126
185332,note_on,,,,,1,0,0,,,2,,,73,127
185340,note_off,,,,,8,0,0,,,1,,,86,64
185340,note_off,,,,,0,0,0,,,2,,,74,64
185421,note_on,,,,,81,0,0,,,2,,,74,127
185421,note_on,,,,,0,0,0,,,1,,,86,126
185429,note_off,,,,,8,0,0,,,2,,,73,64
185430,note_off,,,,,1,0,0,,,1,,,85,64
185517,note_on,,,,,87,0,0,,,2,,,73,127
185517,note_on,,,,,0,0,0,,,1,,,85,126
185525,note_off,,,,,8,0,0,,,2,,,74,64
185526,note_off,,,,,1,0,0,,,1,,,86,64
185613,note_on,,,,,87,0,0,,,1,,,86,126
185613,note_on,,,,,0,0,0,,,2,,,74,127
185619,note_off,,,,,6,0,0,,,2,,,73,64
185620,note_off,,,,,1,0,0,,,1,,,85,64
185703,note_on,,,,,83,0,0,,,2,,,76,127
185703,note_on,,,,,0,0,0,,,1,,,88,127
185712,note_off,,,,,9,0,0,,,2,,,74,64
185712,note_off,,,,,0,0,0,,,1,,,86,64
185796,note_on,,,,,84,0,0,,,1,,,89,127
185796,note_on,,,,,0,0,0,,,2,,,77,127
185804,note_off,,,,,8,0,0,,,2,,,76,64
185805,note_off,,,,,1,0,0,,,1,,,88,64
185878,note_off,,,,,73,0,0,,,4,,,56,64
185879,note_off,,,,,1,0,0,,,4,,,65,64
185879,note_off,,,,,0,0,0,,,4,,,59,64
185887,note_on,,,,,8,0,0,,,4,,,57,127
185887,note_on,,,,,0,0,0,,,1,,,81,122
185893,note_off,,,,,6,0,0,,,2,,,77,64
185894,note_off,,,,,1,0,0,,,1,,,89,64
185933,note_on,,,,,39,0,0,,,4,,,66,126
185933,note_on,,,,,0,0,0,,,1,,,86,122
185940,note_off,,,,,7,0,0,,,1,,,81,64
185976,note_on,,,,,36,0,0,,,4,,,62,127
185976,note_on,,,,,0,0,0,,,1,,,81,122
185985,note_off,,,,,9,0,0,,,1,,,86,64
186012,note_off,,,,,27,0,0,,,4,,,66,64
186019,note_on,,,,,7,0,0,,,1,,,78,122
186019,note_on,,,,,0,0,0,,,4,,,66,126
186026,note_off,,,,,7,0,0,,,1,,,81,64
186034,note_off,,,,,8,0,0,,,4,,,57,64
186057,note_off,,,,,23,0,0,,,1,,,78,64
186062,note_on,,,,,5,0,0,,,1,,,78,122
186063,note_on,,,,,1,0,0,,,4,,,57,127
186100,note_off,,,,,37,0,0,,,4,,,66,64
186108,note_on,,,,,8,0,0,,,1,,,81,122
186108,note_on,,,,,0,0,0,,,4,,,66,126
186114,note_off,,,,,6,0,0,,,1,,,78,64
186124,note_off,,,,,10,0,0,,,4,,,62,64
186153,note_on,,,,,29,0,0,,,4,,,62,127
186153,note_on,,,,,0,0,0,,,1,,,78,122
186161,note_off,,,,,8,0,0,,,1,,,81,64
186189,note_off,,,,,28,0,0,,,4,,,66,64
186198,note_on,,,,,9,0,0,,,4,,,66,126
186198,note_on,,,,,0,0,0,,,2,,,74,125
186204,note_off,,,,,6,0,0,,,1,,,78,64
186210,note_off,,,,,6,0,0,,,4,,,57,64
186241,note_on,,,,,31,0,0,,,1,,,81,122
186241,note_on,,,,,0,0,0,,,4,,,57,127
186248,note_off,,,,,7,0,0,,,2,,,74,64
186276,note_off,,,,,28,0,0,,,4,,,66,64
186284,note_on,,,,,8,0,0,,,1,,,86,122
186285,note_on,,,,,1,0,0,,,4,,,66,126
186293,note_off,,,,,8,0,0,,,1,,,81,64
186300,note_off,,,,,7,0,0,,,4,,,62,64
186330,note_on,,,,,30,0,0,,,1,,,81,122
186331,note_on,,,,,1,0,0,,,4,,,62,127
186337,note_off,,,,,6,0,0,,,1,,,86,64
186366,note_off,,,,,29,0,0,,,4,,,66,64
186372,note_on,,,,,6,0,0,,,1,,,78,122
186372,note_on,,,,,0,0,0,,,4,,,66,126
186380,note_off,,,,,8,0,0,,,1,,,81,64
186386,note_off,,,,,6,0,0,,,4,,,57,64
186409,note_off,,,,,23,0,0,,,1,,,78,64
186417,note_on,,,,,8,0,0,,,4,,,57,127
186417,note_on,,,,,0,0,0,,,1,,,78,122
186454,note_off,,,,,37,0,0,,,4,,,66,64
186456,note_off,,,,,2,0,0,,,1,,,78,64
186462,note_on,,,,,6,0,0,,,4,,,66,126
186462,note_on,,,,,0,0,0,,,1,,,81,122
186476,note_off,,,,,14,0,0,,,4,,,62,64
186501,note_off,,,,,25,0,0,,,1,,,81,64
186505,note_on,,,,,4,0,0,,,1,,,78,122
186505,note_on,,,,,0,0,0,,,4,,,62,127
186542,note_off,,,,,37,0,0,,,4,,,66,64
186546,note_off,,,,,4,0,0,,,1,,,78,64
186550,note_on,,,,,4,0,0,,,2,,,74,125
186551,note_on,,,,,1,0,0,,,4,,,66,126
186564,note_off,,,,,13,0,0,,,4,,,57,64
186593,note_off,,,,,29,0,0,,,2,,,74,64
186597,note_on,,,,,4,0,0,,,1,,,78,118
186598,note_on,,,,,1,0,0,,,4,,,57,127
186650,note_off,,,,,52,0,0,,,4,,,66,64
186650,note_on,,,,,0,0,0,,,2,,,76,121
186659,note_on,,,,,9,0,0,,,2,,,67,126
186676,note_off,,,,,17,0,0,,,1,,,78,64
186678,note_off,,,,,2,0,0,,,4,,,62,64
186689,note_on,,,,,11,0,0,,,1,,,78,118
186714,note_on,,,,,25,0,0,,,4,,,61,127
186720,note_off,,,,,6,0,0,,,2,,,76,64
186730,note_on,,,,,10,0,0,,,2,,,76,117
186739,note_off,,,,,9,0,0,,,1,,,78,64
186760,note_off,,,,,21,0,0,,,2,,,67,64
186770,note_on,,,,,10,0,0,,,1,,,78,114
186770,note_on,,,,,0,0,0,,,2,,,67,126
186779,note_off,,,,,9,0,0,,,2,,,76,64
186786,note_off,,,,,7,0,0,,,4,,,57,64
186809,note_on,,,,,23,0,0,,,2,,,76,117
186821,note_off,,,,,12,0,0,,,1,,,78,64
186825,note_on,,,,,4,0,0,,,4,,,57,127
186844,note_on,,,,,19,0,0,,,1,,,78,114
186859,note_off,,,,,15,0,0,,,2,,,76,64
186867,note_off,,,,,8,0,0,,,2,,,67,64
186876,note_on,,,,,9,0,0,,,2,,,67,126
186884,note_on,,,,,8,0,0,,,2,,,76,117
186894,note_off,,,,,10,0,0,,,1,,,78,64
186894,note_off,,,,,0,0,0,,,4,,,61,64
186924,note_on,,,,,30,0,0,,,1,,,78,114
186931,note_on,,,,,7,0,0,,,4,,,61,127
186933,note_off,,,,,2,0,0,,,2,,,76,64
186962,note_on,,,,,29,0,0,,,2,,,76,117
186972,note_off,,,,,10,0,0,,,1,,,78,64
186973,note_off,,,,,1,0,0,,,2,,,67,64
186981,note_on,,,,,8,0,0,,,2,,,67,126
186998,note_off,,,,,17,0,0,,,4,,,57,64
186999,note_on,,,,,1,0,0,,,1,,,78,114
187009,note_off,,,,,10,0,0,,,2,,,76,64
187032,note_on,,,,,23,0,0,,,4,,,57,127
187044,note_on,,,,,12,0,0,,,2,,,76,117
187047,note_off,,,,,3,0,0,,,1,,,78,64
187076,note_off,,,,,29,0,0,,,2,,,67,64
187082,note_on,,,,,6,0,0,,,1,,,78,114
187084,note_on,,,,,2,0,0,,,2,,,67,126
187092,note_off,,,,,8,0,0,,,2,,,76,64
187103,note_off,,,,,11,0,0,,,4,,,61,64
187120,note_on,,,,,17,0,0,,,2,,,76,117
187130,note_off,,,,,10,0,0,,,1,,,78,64
187136,note_on,,,,,6,0,0,,,4,,,61,127
187161,note_on,,,,,25,0,0,,,1,,,78,114
187166,note_off,,,,,5,0,0,,,2,,,76,64
187178,note_off,,,,,12,0,0,,,2,,,67,64
187188,note_on,,,,,10,0,0,,,2,,,67,126
187193,note_on,,,,,5,0,0,,,2,,,76,117
187203,note_off,,,,,10,0,0,,,4,,,57,64
187207,note_off,,,,,4,0,0,,,1,,,78,64
187236,note_on,,,,,29,0,0,,,1,,,78,114
187237,note_on,,,,,1,0,0,,,4,,,57,127
187241,note_off,,,,,4,0,0,,,2,,,76,64
187272,note_on,,,,,31,0,0,,,2,,,76,117
187280,note_off,,,,,8,0,0,,,2,,,67,64
187282,note_off,,,,,2,0,0,,,1,,,78,64
187289,note_on,,,,,7,0,0,,,2,,,67,126
187305,note_off,,,,,16,0,0,,,4,,,61,64
187312,note_on,,,,,7,0,0,,,1,,,78,114
187318,note_off,,,,,6,0,0,,,2,,,76,64
187337,note_on,,,,,19,0,0,,,4,,,61,127
187341,note_on,,,,,4,0,0,,,2,,,76,117
187356,note_off,,,,,15,0,0,,,1,,,78,64
187378,note_off,,,,,22,0,0,,,2,,,67,64
187385,note_off,,,,,7,0,0,,,2,,,76,64
187386,note_on,,,,,1,0,0,,,2,,,67,126
187386,note_on,,,,,0,0,0,,,2,,,74,121
187404,note_off,,,,,18,0,0,,,4,,,57,64
187411,note_on,,,,,7,0,0,,,2,,,76,121
187421,note_off,,,,,10,0,0,,,2,,,74,64
187436,note_off,,,,,15,0,0,,,4,,,61,64
187437,note_on,,,,,1,0,0,,,4,,,62,127
187437,note_on,,,,,0,0,0,,,2,,,74,121
187438,note_on,,,,,1,0,0,,,4,,,50,127
187444,note_off,,,,,6,0,0,,,2,,,76,64
187475,note_off,,,,,31,0,0,,,2,,,67,64
187684,note_off,,,,,209,0,0,,,4,,,62,64
187684,note_off,,,,,0,0,0,,,4,,,50,64
187712,note_off,,,,,28,0,0,,,2,,,74,64
187716,note_on,,,,,4,0,0,,,4,,,66,126
187716,note_on,,,,,0,0,0,,,4,,,54,127
187761,note_on,,,,,45,0,0,,,4,,,62,127
187761,note_on,,,,,0,0,0,,,4,,,50,127
187770,note_off,,,,,9,0,0,,,4,,,54,64
187770,note_off,,,,,0,0,0,,,4,,,66,64
187809,note_on,,,,,39,0,0,,,2,,,67,126
187809,note_on,,,,,0,0,0,,,4,,,55,127
187815,note_off,,,,,6,0,0,,,4,,,62,64
187816,note_off,,,,,1,0,0,,,4,,,50,64
187890,note_off,,,,,74,0,0,,,4,,,55,64
187900,note_off,,,,,10,0,0,,,2,,,67,64
187902,note_on,,,,,2,0,0,,,4,,,64,124
187904,note_on,,,,,2,0,0,,,4,,,52,127
187950,note_off,,,,,46,0,0,,,4,,,64,64
187951,note_off,,,,,1,0,0,,,4,,,52,64
187951,note_on,,,,,0,0,0,,,4,,,61,127
187951,note_on,,,,,0,0,0,,,4,,,49,127
187998,note_off,,,,,47,0,0,,,4,,,61,64
187998,note_on,,,,,0,0,0,,,4,,,62,127
187999,note_off,,,,,1,0,0,,,4,,,49,64
187999,note_on,,,,,0,0,0,,,4,,,50,127
188087,note_off,,,,,88,0,0,,,4,,,50,64
188091,note_off,,,,,4,0,0,,,4,,,62,64
188097,note_on,,,,,6,0,0,,,4,,,59,127
188098,note_on,,,,,1,0,0,,,4,,,47,127
188148,note_off,,,,,50,0,0,,,4,,,47,64
188148,note_off,,,,,0,0,0,,,4,,,59,64
188148,note_on,,,,,0,0,0,,,4,,,56,127
188149,note_on,,,,,1,0,0,,,4,,,44,127
188194,note_off,,,,,45,0,0,,,4,,,44,64
188195,note_off,,,,,1,0,0,,,4,,,56,64
188195,note_on,,,,,0,0,0,,,4,,,57,127
188195,note_on,,,,,0,0,0,,,4,,,45,127
188378,note_off,,,,,183,0,0,,,4,,,45,64
188380,note_off,,,,,2,0,0,,,4,,,57,64
188390,note_on,,,,,10,0,0,,,4,,,45,127
188390,note_on,,,,,0,0,0,,,4,,,57,127
188390,note_on,,,,,0,0,0,,,2,,,76,127
188410,note_on,,,,,20,0,0,,,1,,,81,126
188427,note_on,,,,,17,0,0,,,1,,,85,126
188607,note_off,,,,,180,0,0,,,4,,,57,64
188607,note_off,,,,,0,0,0,,,4,,,45,64
188608,note_off,,,,,1,0,0,,,2,,,76,64
188619,note_off,,,,,11,0,0,,,1,,,81,64
188624,note_on,,,,,5,0,0,,,4,,,50,127
188624,note_on,,,,,0,0,0,,,2,,,74,127
188625,note_on,,,,,1,0,0,,,4,,,38,127
188636,note_off,,,,,11,0,0,,,1,,,85,64
188640,note_on,,,,,4,0,0,,,1,,,78,126
188660,note_on,,,,,20,0,0,,,1,,,81,126
188679,note_on,,,,,19,0,0,,,1,,,86,126
191783,note_off,,,,,3104,0,0,,,4,,,38,64
191784,note_off,,,,,1,0,0,,,2,,,74,64
191784,note_off,,,,,0,0,0,,,4,,,50,64
191825,note_off,,,,,41,0,0,,,1,,,78,64
191869,note_off,,,,,44,0,0,,,1,,,81,64
191911,note_off,,,,,42,0,0,,,1,,,86,64
192401,note_on,,,,,490,0,0,,,2,,,69,99
192402,note_on,,,,,1,0,0,,,4,,,57,108
192402,note_on,,,,,0,0,0,,,4,,,61,106
192916,note_off,,,,,514,0,0,,,4,,,57,64
192920,note_off,,,,,4,0,0,,,2,,,69,64
192920,note_off,,,,,0,0,0,,,4,,,61,64
192927,note_on,,,,,7,0,0,,,2,,,71,127
192928,note_on,,,,,1,0,0,,,4,,,52,127
192928,note_on,,,,,0,0,0,,,4,,,62,127
193104,note_off,,,,,176,0,0,,,2,,,71,64
193115,note_on,,,,,11,0,0,,,2,,,68,126
193155,note_off,,,,,40,0,0,,,4,,,52,64
193156,note_off,,,,,1,0,0,,,4,,,62,64
193176,note_off,,,,,20,0,0,,,2,,,68,64
193176,note_on,,,,,0,0,0,,,4,,,61,127
193176,note_on,,,,,0,0,0,,,2,,,69,126
193177,note_on,,,,,1,0,0,,,4,,,57,127
193285,note_off,,,,,108,0,0,,,4,,,61,64
193296,note_on,,,,,11,0,0,,,4,,,64,124
193297,note_on,,,,,1,0,0,,,4,,,61,127
193407,note_off,,,,,110,0,0,,,2,,,69,64
193407,note_off,,,,,0,0,0,,,4,,,57,64
193417,note_on,,,,,10,0,0,,,4,,,63,127
193418,note_on,,,,,1,0,0,,,4,,,60,127
193430,note_off,,,,,12,0,0,,,4,,,61,64
193430,note_off,,,,,0,0,0,,,4,,,64,64
193542,note_on,,,,,112,0,0,,,4,,,64,124
193543,note_on,,,,,1,0,0,,,4,,,61,127
193555,note_off,,,,,12,0,0,,,4,,,63,64
193555,note_off,,,,,0,0,0,,,4,,,60,64
193661,note_on,,,,,106,0,0,,,4,,,62,127
193662,note_on,,,,,1,0,0,,,4,,,59,127
193674,note_off,,,,,12,0,0,,,4,,,61,64
193674,note_off,,,,,0,0,0,,,4,,,64,64
193782,note_on,,,,,108,0,0,,,4,,,61,127
193783,note_on,,,,,1,0,0,,,4,,,57,127
193797,note_off,,,,,14,0,0,,,4,,,62,64
193797,note_off,,,,,0,0,0,,,4,,,59,64
193909,note_on,,,,,112,0,0,,,4,,,56,127
193909,note_on,,,,,0,0,0,,,2,,,71,127
193910,note_on,,,,,1,0,0,,,4,,,52,127
193921,note_off,,,,,11,0,0,,,4,,,57,64
193922,note_off,,,,,1,0,0,,,4,,,61,64
194400,note_on,,,,,478,0,0,,,2,,,73,127
194400,note_on,,,,,0,0,0,,,4,,,64,124
194400,note_on,,,,,0,0,0,,,4,,,57,127
194406,note_off,,,,,6,0,0,,,4,,,52,64
194407,note_off,,,,,1,0,0,,,2,,,71,64
194407,note_off,,,,,0,0,0,,,4,,,56,64
194568,note_off,,,,,161,0,0,,,2,,,73,64
194581,note_on,,,,,13,0,0,,,2,,,69,126
194635,note_off,,,,,54,0,0,,,4,,,57,64
194637,note_off,,,,,2,0,0,,,2,,,69,64
194637,note_off,,,,,0,0,0,,,4,,,64,64
194640,note_on,,,,,3,0,0,,,2,,,74,127
194641,note_on,,,,,1,0,0,,,4,,,64,124
194641,note_on,,,,,0,0,0,,,4,,,56,127
194764,note_on,,,,,123,0,0,,,4,,,59,127
194765,note_on,,,,,1,0,0,,,4,,,62,127
194778,note_off,,,,,13,0,0,,,4,,,64,64
194872,note_off,,,,,94,0,0,,,4,,,56,64
194872,note_off,,,,,0,0,0,,,2,,,74,64
194882,note_on,,,,,10,0,0,,,4,,,58,127
194883,note_on,,,,,1,0,0,,,4,,,61,127
194897,note_off,,,,,14,0,0,,,4,,,59,64
194897,note_off,,,,,0,0,0,,,4,,,62,64
195005,note_on,,,,,108,0,0,,,4,,,59,127
195006,note_on,,,,,1,0,0,,,4,,,62,127
195019,note_off,,,,,13,0,0,,,4,,,61,64
195019,note_off,,,,,0,0,0,,,4,,,58,64
195126,note_on,,,,,107,0,0,,,4,,,61,127
195126,note_on,,,,,0,0,0,,,4,,,57,127
195139,note_off,,,,,13,0,0,,,4,,,59,64
195139,note_off,,,,,0,0,0,,,4,,,62,64
195247,note_on,,,,,108,0,0,,,4,,,59,127
195248,note_on,,,,,1,0,0,,,4,,,56,127
195260,note_off,,,,,12,0,0,,,4,,,57,64
195261,note_off,,,,,1,0,0,,,4,,,61,64
195369,note_on,,,,,108,0,0,,,2,,,76,127
195607,note_off,,,,,238,0,0,,,4,,,59,64
195607,note_off,,,,,0,0,0,,,4,,,56,64
195608,note_on,,,,,1,0,0,,,4,,,64,124
195608,note_on,,,,,0,0,0,,,2,,,69,126
195609,note_on,,,,,1,0,0,,,4,,,61,127
195719,note_off,,,,,110,0,0,,,2,,,76,64
195731,note_on,,,,,12,0,0,,,1,,,78,126
195765,note_on,,,,,34,0,0,,,2,,,76,127
195777,note_off,,,,,12,0,0,,,1,,,78,64
195800,note_on,,,,,23,0,0,,,2,,,74,127
195811,note_off,,,,,11,0,0,,,2,,,76,64
195834,note_on,,,,,23,0,0,,,2,,,73,127
195846,note_off,,,,,12,0,0,,,2,,,74,64
195855,note_off,,,,,9,0,0,,,4,,,61,64
195856,note_off,,,,,1,0,0,,,2,,,69,64
195856,note_off,,,,,0,0,0,,,4,,,64,64
195864,note_on,,,,,8,0,0,,,2,,,68,126
195864,note_on,,,,,0,0,0,,,2,,,74,127
195865,note_on,,,,,1,0,0,,,4,,,59,127
195867,note_on,,,,,2,0,0,,,4,,,64,124
195875,note_off,,,,,8,0,0,,,2,,,73,64
195974,note_off,,,,,99,0,0,,,2,,,74,64
195984,note_on,,,,,10,0,0,,,2,,,74,127
196095,note_off,,,,,111,0,0,,,2,,,74,64
196105,note_on,,,,,10,0,0,,,2,,,73,127
196335,note_off,,,,,230,0,0,,,4,,,59,64
196336,note_off,,,,,1,0,0,,,2,,,68,64
196336,note_off,,,,,0,0,0,,,4,,,64,64
196344,note_on,,,,,8,0,0,,,4,,,61,127
196344,note_on,,,,,0,0,0,,,4,,,64,124
196345,note_on,,,,,1,0,0,,,4,,,57,127
196442,note_off,,,,,97,0,0,,,2,,,73,64
196467,note_on,,,,,25,0,0,,,2,,,74,127
196500,note_on,,,,,33,0,0,,,2,,,73,127
196512,note_off,,,,,12,0,0,,,2,,,74,64
196535,note_on,,,,,23,0,0,,,2,,,71,127
196547,note_off,,,,,12,0,0,,,2,,,73,64
196570,note_on,,,,,23,0,0,,,2,,,69,126
196581,note_off,,,,,11,0,0,,,2,,,71,64
196582,note_off,,,,,1,0,0,,,4,,,61,64
196582,note_off,,,,,0,0,0,,,4,,,57,64
196583,note_off,,,,,1,0,0,,,4,,,64,64
196604,note_on,,,,,21,0,0,,,2,,,68,126
196605,note_on,,,,,1,0,0,,,4,,,59,127
196605,note_on,,,,,0,0,0,,,4,,,52,127
196606,note_on,,,,,1,0,0,,,4,,,50,127
196614,note_off,,,,,8,0,0,,,2,,,69,64
196712,note_off,,,,,98,0,0,,,2,,,68,64
196721,note_on,,,,,9,0,0,,,2,,,68,126
196829,note_off,,,,,108,0,0,,,2,,,68,64
196838,note_on,,,,,9,0,0,,,2,,,69,126
196959,note_off,,,,,121,0,0,,,4,,,50,64
196960,note_off,,,,,1,0,0,,,4,,,52,64
196960,note_on,,,,,0,0,0,,,4,,,49,127
197080,note_off,,,,,120,0,0,,,4,,,59,64
197080,note_on,,,,,0,0,0,,,4,,,61,127
197208,note_off,,,,,128,0,0,,,2,,,69,64
197208,note_on,,,,,0,0,0,,,2,,,71,127
197209,note_on,,,,,1,0,0,,,4,,,64,124
197209,note_on,,,,,0,0,0,,,2,,,68,126
197210,note_on,,,,,1,0,0,,,4,,,62,127
197222,note_off,,,,,12,0,0,,,4,,,61,64
197324,note_off,,,,,102,0,0,,,4,,,64,64
197334,note_on,,,,,10,0,0,,,2,,,73,127
197334,note_on,,,,,0,0,0,,,2,,,69,126
197335,note_on,,,,,1,0,0,,,4,,,64,124
197335,note_on,,,,,0,0,0,,,4,,,61,127
197345,note_off,,,,,10,0,0,,,4,,,62,64
197346,note_off,,,,,1,0,0,,,2,,,71,64
197346,note_off,,,,,0,0,0,,,2,,,68,64
197450,note_off,,,,,104,0,0,,,4,,,64,64
197460,note_on,,,,,10,0,0,,,2,,,71,127
197460,note_on,,,,,0,0,0,,,4,,,64,124
197460,note_on,,,,,0,0,0,,,2,,,74,127
197461,note_on,,,,,1,0,0,,,4,,,59,127
197473,note_off,,,,,12,0,0,,,4,,,61,64
197473,note_off,,,,,0,0,0,,,2,,,69,64
197474,note_off,,,,,1,0,0,,,2,,,73,64
197574,note_off,,,,,100,0,0,,,4,,,64,64
197585,note_on,,,,,11,0,0,,,2,,,75,127
197586,note_on,,,,,1,0,0,,,2,,,73,127
197586,note_on,,,,,0,0,0,,,4,,,64,124
197587,note_on,,,,,1,0,0,,,4,,,57,127
197601,note_off,,,,,14,0,0,,,2,,,74,64
197601,note_off,,,,,0,0,0,,,4,,,59,64
197648,note_off,,,,,47,0,0,,,2,,,75,64
197652,note_on,,,,,4,0,0,,,2,,,76,127
197657,note_off,,,,,5,0,0,,,2,,,73,64
197702,note_off,,,,,45,0,0,,,4,,,64,64
197713,note_on,,,,,11,0,0,,,1,,,78,126
197714,note_on,,,,,1,0,0,,,4,,,62,127
197714,note_on,,,,,0,0,0,,,2,,,74,127
197724,note_off,,,,,10,0,0,,,2,,,76,64
197727,note_off,,,,,3,0,0,,,4,,,57,64
197766,note_off,,,,,39,0,0,,,2,,,74,64
197767,note_off,,,,,1,0,0,,,2,,,71,64
197777,note_on,,,,,10,0,0,,,2,,,74,127
197777,note_on,,,,,0,0,0,,,2,,,71,127
197785,note_off,,,,,8,0,0,,,1,,,78,64
197839,note_on,,,,,54,0,0,,,2,,,73,127
197840,note_on,,,,,1,0,0,,,4,,,64,124
197840,note_on,,,,,0,0,0,,,2,,,69,126
197850,note_off,,,,,10,0,0,,,2,,,71,64
197850,note_off,,,,,0,0,0,,,2,,,74,64
197852,note_off,,,,,2,0,0,,,4,,,62,64
198068,note_off,,,,,216,0,0,,,4,,,49,64
198077,note_on,,,,,9,0,0,,,2,,,71,127
198078,note_on,,,,,1,0,0,,,4,,,52,127
198078,note_on,,,,,0,0,0,,,2,,,68,126
198081,note_off,,,,,3,0,0,,,2,,,73,64
198081,note_off,,,,,0,0,0,,,2,,,69,64
198328,note_on,,,,,247,0,0,,,2,,,69,126
198330,note_off,,,,,2,0,0,,,2,,,71,64
198331,note_off,,,,,1,0,0,,,2,,,68,64
198554,note_off,,,,,223,0,0,,,4,,,64,64
198564,note_on,,,,,10,0,0,,,4,,,57,127
198564,note_on,,,,,0,0,0,,,4,,,61,127
198576,note_off,,,,,12,0,0,,,4,,,52,64
198636,note_off,,,,,60,0,0,,,2,,,69,64
198647,note_on,,,,,11,0,0,,,4,,,64,124
198729,note_on,,,,,82,0,0,,,2,,,73,127
198812,note_on,,,,,83,0,0,,,4,,,59,127
198812,note_on,,,,,0,0,0,,,2,,,74,127
198813,note_on,,,,,1,0,0,,,4,,,52,127
198815,note_off,,,,,2,0,0,,,4,,,61,64
198815,note_off,,,,,0,0,0,,,4,,,57,64
198842,note_off,,,,,27,0,0,,,2,,,73,64
198892,note_on,,,,,50,0,0,,,2,,,71,127
198923,note_off,,,,,31,0,0,,,2,,,74,64
198935,note_on,,,,,12,0,0,,,4,,,62,127
198958,note_off,,,,,23,0,0,,,4,,,64,64
198979,note_on,,,,,21,0,0,,,2,,,68,126
199012,note_off,,,,,33,0,0,,,2,,,71,64
199055,note_off,,,,,43,0,0,,,4,,,62,64
199066,note_on,,,,,11,0,0,,,2,,,69,126
199067,note_on,,,,,1,0,0,,,4,,,57,127
199067,note_on,,,,,0,0,0,,,4,,,61,127
199069,note_off,,,,,2,0,0,,,4,,,59,64
199069,note_off,,,,,0,0,0,,,4,,,52,64
199097,note_off,,,,,28,0,0,,,2,,,68,64
199179,note_off,,,,,82,0,0,,,4,,,61,64
199187,note_on,,,,,8,0,0,,,4,,,64,124
199188,note_on,,,,,1,0,0,,,4,,,61,127
199201,note_off,,,,,13,0,0,,,2,,,69,64
199309,note_off,,,,,108,0,0,,,4,,,57,64
199315,note_on,,,,,6,0,0,,,4,,,60,127
199315,note_on,,,,,0,0,0,,,4,,,63,127
199329,note_off,,,,,14,0,0,,,4,,,61,64
199330,note_off,,,,,1,0,0,,,4,,,64,64
199441,note_on,,,,,111,0,0,,,4,,,64,124
199442,note_on,,,,,1,0,0,,,4,,,61,127
199454,note_off,,,,,12,0,0,,,4,,,63,64
199454,note_off,,,,,0,0,0,,,4,,,60,64
199559,note_on,,,,,105,0,0,,,4,,,62,127
199560,note_on,,,,,1,0,0,,,4,,,59,127
199572,note_off,,,,,12,0,0,,,4,,,61,64
199572,note_off,,,,,0,0,0,,,4,,,64,64
199680,note_on,,,,,108,0,0,,,4,,,61,127
199681,note_on,,,,,1,0,0,,,4,,,57,127
199693,note_off,,,,,12,0,0,,,4,,,62,64
199693,note_off,,,,,0,0,0,,,4,,,59,64
199808,note_on,,,,,115,0,0,,,2,,,71,127
200044,note_on,,,,,236,0,0,,,4,,,52,127
200044,note_on,,,,,0,0,0,,,4,,,56,127
200064,note_off,,,,,20,0,0,,,4,,,61,64
200064,note_off,,,,,0,0,0,,,4,,,57,64
200114,note_on,,,,,50,0,0,,,4,,,64,124
200203,note_on,,,,,89,0,0,,,2,,,74,127
200204,note_off,,,,,1,0,0,,,2,,,71,64
200275,note_off,,,,,71,0,0,,,4,,,56,64
200277,note_off,,,,,2,0,0,,,4,,,64,64
200285,note_on,,,,,8,0,0,,,4,,,64,124
200285,note_on,,,,,0,0,0,,,2,,,73,127
200286,note_on,,,,,1,0,0,,,4,,,57,127
200295,note_off,,,,,9,0,0,,,2,,,74,64
200363,note_on,,,,,68,0,0,,,2,,,69,126
200393,note_off,,,,,30,0,0,,,2,,,73,64
200445,note_on,,,,,52,0,0,,,1,,,78,126
200495,note_off,,,,,50,0,0,,,2,,,69,64
200528,note_on,,,,,33,0,0,,,2,,,76,127
200543,note_off,,,,,15,0,0,,,1,,,78,64
200574,note_on,,,,,31,0,0,,,2,,,74,127
200593,note_off,,,,,19,0,0,,,2,,,76,64
200662,note_off,,,,,69,0,0,,,4,,,57,64
200663,note_off,,,,,1,0,0,,,4,,,64,64
200663,note_on,,,,,0,0,0,,,4,,,62,127
200664,note_on,,,,,1,0,0,,,4,,,59,127
200681,note_off,,,,,17,0,0,,,2,,,74,64
200777,note_on,,,,,96,0,0,,,4,,,61,127
200778,note_on,,,,,1,0,0,,,4,,,58,127
200792,note_off,,,,,14,0,0,,,4,,,59,64
200792,note_off,,,,,0,0,0,,,4,,,62,64
200900,note_on,,,,,108,0,0,,,4,,,62,127
200901,note_on,,,,,1,0,0,,,4,,,59,127
200915,note_off,,,,,14,0,0,,,4,,,61,64
200915,note_off,,,,,0,0,0,,,4,,,58,64
201023,note_on,,,,,108,0,0,,,4,,,61,127
201024,note_on,,,,,1,0,0,,,4,,,57,127
201036,note_off,,,,,12,0,0,,,4,,,59,64
201036,note_off,,,,,0,0,0,,,4,,,62,64
201145,note_on,,,,,109,0,0,,,4,,,56,127
201145,note_on,,,,,0,0,0,,,4,,,59,127
201157,note_off,,,,,12,0,0,,,4,,,57,64
201158,note_off,,,,,1,0,0,,,4,,,61,64
201164,note_off,,,,,6,0,0,,,4,,,52,64
201264,note_on,,,,,100,0,0,,,2,,,76,127
201514,note_off,,,,,250,0,0,,,4,,,59,64
201514,note_off,,,,,0,0,0,,,4,,,56,64
201515,note_on,,,,,1,0,0,,,4,,,61,127
201515,note_on,,,,,0,0,0,,,2,,,69,126
201573,note_off,,,,,58,0,0,,,2,,,76,64
201574,note_on,,,,,1,0,0,,,2,,,77,127
201630,note_on,,,,,56,0,0,,,1,,,78,126
201639,note_off,,,,,9,0,0,,,2,,,77,64
201687,note_on,,,,,48,0,0,,,2,,,73,127
201699,note_off,,,,,12,0,0,,,1,,,78,64
201747,note_off,,,,,48,0,0,,,2,,,69,64
201747,note_off,,,,,0,0,0,,,4,,,61,64
201748,note_on,,,,,1,0,0,,,2,,,68,126
201748,note_on,,,,,0,0,0,,,2,,,76,127
201749,note_on,,,,,1,0,0,,,4,,,59,127
201757,note_off,,,,,8,0,0,,,2,,,73,64
201805,note_on,,,,,48,0,0,,,2,,,74,127
201815,note_off,,,,,10,0,0,,,2,,,76,64
201855,note_off,,,,,40,0,0,,,2,,,74,64
201865,note_on,,,,,10,0,0,,,2,,,74,127
201990,note_off,,,,,125,0,0,,,2,,,74,64
202001,note_on,,,,,11,0,0,,,2,,,73,127
202237,note_on,,,,,236,0,0,,,4,,,57,127
202237,note_on,,,,,0,0,0,,,4,,,64,124
202246,note_off,,,,,9,0,0,,,2,,,68,64
202246,note_off,,,,,0,0,0,,,4,,,59,64
202296,note_on,,,,,50,0,0,,,2,,,75,127
202302,note_off,,,,,6,0,0,,,2,,,73,64
202357,note_on,,,,,55,0,0,,,2,,,76,127
202368,note_off,,,,,11,0,0,,,2,,,75,64
202417,note_on,,,,,49,0,0,,,2,,,69,126
202427,note_off,,,,,10,0,0,,,2,,,76,64
202467,note_off,,,,,40,0,0,,,2,,,69,64
202468,note_off,,,,,1,0,0,,,4,,,64,64
202478,note_on,,,,,10,0,0,,,4,,,64,124
202478,note_on,,,,,0,0,0,,,2,,,69,126
202479,note_on,,,,,1,0,0,,,4,,,62,127
202480,note_off,,,,,1,0,0,,,4,,,57,64
202540,note_off,,,,,60,0,0,,,2,,,69,64
202541,note_on,,,,,1,0,0,,,2,,,68,126
202591,note_off,,,,,50,0,0,,,2,,,68,64
202603,note_on,,,,,12,0,0,,,2,,,68,126
202710,note_off,,,,,107,0,0,,,4,,,64,64
202720,note_off,,,,,10,0,0,,,2,,,68,64
202720,note_on,,,,,0,0,0,,,2,,,69,126
202721,note_on,,,,,1,0,0,,,4,,,61,127
202721,note_on,,,,,0,0,0,,,4,,,64,124
202725,note_off,,,,,4,0,0,,,4,,,62,64
202785,note_on,,,,,60,0,0,,,2,,,71,127
202795,note_off,,,,,10,0,0,,,2,,,69,64
202841,note_on,,,,,46,0,0,,,2,,,73,127
202848,note_off,,,,,7,0,0,,,2,,,71,64
202896,note_on,,,,,48,0,0,,,2,,,74,127
202906,note_off,,,,,10,0,0,,,2,,,73,64
202943,note_off,,,,,37,0,0,,,4,,,64,64
202952,note_on,,,,,9,0,0,,,2,,,76,127
202953,note_on,,,,,1,0,0,,,4,,,57,127
202953,note_on,,,,,0,0,0,,,4,,,49,127
202956,note_off,,,,,3,0,0,,,4,,,61,64
202961,note_off,,,,,5,0,0,,,2,,,74,64
203008,note_on,,,,,47,0,0,,,1,,,78,126
203016,note_off,,,,,8,0,0,,,2,,,76,64
203062,note_on,,,,,46,0,0,,,1,,,80,126
203069,note_off,,,,,7,0,0,,,1,,,78,64
203113,note_on,,,,,44,0,0,,,1,,,81,126
203123,note_off,,,,,10,0,0,,,1,,,80,64
203169,note_on,,,,,46,0,0,,,1,,,80,126
203170,note_on,,,,,1,0,0,,,4,,,50,127
203172,note_off,,,,,2,0,0,,,4,,,49,64
203178,note_off,,,,,6,0,0,,,1,,,81,64
203224,note_on,,,,,46,0,0,,,1,,,78,126
203232,note_off,,,,,8,0,0,,,1,,,80,64
203278,note_on,,,,,46,0,0,,,2,,,76,127
203286,note_off,,,,,8,0,0,,,1,,,78,64
203332,note_on,,,,,46,0,0,,,2,,,74,127
203342,note_off,,,,,10,0,0,,,2,,,76,64
203390,note_on,,,,,48,0,0,,,4,,,52,127
203390,note_on,,,,,0,0,0,,,2,,,73,127
203395,note_off,,,,,5,0,0,,,4,,,50,64
203400,note_off,,,,,5,0,0,,,2,,,74,64
203448,note_on,,,,,48,0,0,,,2,,,76,127
203458,note_off,,,,,10,0,0,,,2,,,73,64
203487,note_off,,,,,29,0,0,,,4,,,57,64
203512,note_on,,,,,25,0,0,,,4,,,56,127
203512,note_on,,,,,0,0,0,,,2,,,74,127
203520,note_off,,,,,8,0,0,,,2,,,76,64
203572,note_on,,,,,52,0,0,,,2,,,71,127
203584,note_off,,,,,12,0,0,,,2,,,74,64
203628,note_off,,,,,44,0,0,,,2,,,71,64
203640,note_on,,,,,12,0,0,,,4,,,62,127
203640,note_on,,,,,0,0,0,,,4,,,64,124
203640,note_on,,,,,0,0,0,,,2,,,71,127
203641,note_off,,,,,1,0,0,,,4,,,56,64
203641,note_on,,,,,0,0,0,,,4,,,57,127
203764,note_off,,,,,123,0,0,,,4,,,52,64
203770,note_on,,,,,6,0,0,,,4,,,52,127
203893,note_on,,,,,123,0,0,,,4,,,61,127
203893,note_on,,,,,0,0,0,,,2,,,69,126
203894,note_on,,,,,1,0,0,,,4,,,45,127
203898,note_off,,,,,4,0,0,,,4,,,62,64
203898,note_off,,,,,0,0,0,,,4,,,57,64
203899,note_off,,,,,1,0,0,,,2,,,71,64
203899,note_off,,,,,0,0,0,,,4,,,64,64
204028,note_off,,,,,129,0,0,,,4,,,52,64
204136,note_off,,,,,108,0,0,,,2,,,69,64
204148,note_on,,,,,12,0,0,,,2,,,69,126
204148,note_on,,,,,0,0,0,,,4,,,57,125
204158,note_off,,,,,10,0,0,,,4,,,61,64
204210,note_on,,,,,52,0,0,,,4,,,64,121
204275,note_on,,,,,65,0,0,,,4,,,59,127
204288,note_off,,,,,13,0,0,,,4,,,57,64
204336,note_off,,,,,48,0,0,,,4,,,64,64
204338,note_on,,,,,2,0,0,,,4,,,64,121
204404,note_on,,,,,66,0,0,,,4,,,61,127
204417,note_off,,,,,13,0,0,,,4,,,59,64
204465,note_off,,,,,48,0,0,,,4,,,64,64
204468,note_on,,,,,3,0,0,,,4,,,64,121
204530,note_off,,,,,62,0,0,,,2,,,69,64
204533,note_on,,,,,3,0,0,,,4,,,65,126
204533,note_on,,,,,0,0,0,,,4,,,62,126
204547,note_off,,,,,14,0,0,,,4,,,61,64
204570,note_on,,,,,23,0,0,,,2,,,68,126
204582,note_off,,,,,12,0,0,,,4,,,65,64
204601,note_off,,,,,19,0,0,,,4,,,64,64
204604,note_on,,,,,3,0,0,,,4,,,64,121
204604,note_on,,,,,0,0,0,,,2,,,69,126
204616,note_off,,,,,12,0,0,,,2,,,68,64
204641,note_on,,,,,25,0,0,,,2,,,68,126
204653,note_off,,,,,12,0,0,,,2,,,69,64
204676,note_on,,,,,23,0,0,,,4,,,61,127
204676,note_on,,,,,0,0,0,,,2,,,69,126
204686,note_off,,,,,10,0,0,,,2,,,68,64
204690,note_off,,,,,4,0,0,,,4,,,62,64
204736,note_off,,,,,46,0,0,,,4,,,64,64
204740,note_on,,,,,4,0,0,,,4,,,64,121
204770,note_off,,,,,30,0,0,,,2,,,69,64
204804,note_on,,,,,34,0,0,,,2,,,69,126
204804,note_on,,,,,0,0,0,,,4,,,62,126
204819,note_off,,,,,15,0,0,,,4,,,61,64
204841,note_on,,,,,22,0,0,,,2,,,68,126
204852,note_off,,,,,11,0,0,,,2,,,69,64
204869,note_off,,,,,17,0,0,,,4,,,64,64
204874,note_on,,,,,5,0,0,,,4,,,64,121
204874,note_on,,,,,0,0,0,,,2,,,69,126
204884,note_off,,,,,10,0,0,,,2,,,68,64
204907,note_on,,,,,23,0,0,,,2,,,68,126
204919,note_off,,,,,12,0,0,,,2,,,69,64
204942,note_on,,,,,23,0,0,,,4,,,61,127
204942,note_on,,,,,0,0,0,,,2,,,69,126
204952,note_off,,,,,10,0,0,,,2,,,68,64
204954,note_off,,,,,2,0,0,,,4,,,62,64
205002,note_off,,,,,48,0,0,,,4,,,64,64
205006,note_on,,,,,4,0,0,,,4,,,64,121
205073,note_on,,,,,67,0,0,,,4,,,56,125
205088,note_off,,,,,15,0,0,,,4,,,61,64
205102,note_on,,,,,14,0,0,,,2,,,73,127
205121,note_off,,,,,19,0,0,,,2,,,69,64
205142,note_off,,,,,21,0,0,,,4,,,64,64
205146,note_on,,,,,4,0,0,,,2,,,71,127
205147,note_on,,,,,1,0,0,,,4,,,64,121
205151,note_off,,,,,4,0,0,,,2,,,73,64
205191,note_off,,,,,40,0,0,,,2,,,71,64
205192,note_on,,,,,1,0,0,,,2,,,73,127
205215,note_on,,,,,23,0,0,,,4,,,57,125
205229,note_off,,,,,14,0,0,,,4,,,56,64
205278,note_off,,,,,49,0,0,,,4,,,64,64
205281,note_on,,,,,3,0,0,,,4,,,64,121
205344,note_on,,,,,63,0,0,,,4,,,59,127
205344,note_on,,,,,0,0,0,,,2,,,76,127
205356,note_off,,,,,12,0,0,,,2,,,73,64
205358,note_off,,,,,2,0,0,,,4,,,57,64
205409,note_off,,,,,51,0,0,,,4,,,64,64
205411,note_on,,,,,2,0,0,,,2,,,74,127
205412,note_on,,,,,1,0,0,,,4,,,64,121
205422,note_off,,,,,10,0,0,,,2,,,76,64
205477,note_on,,,,,55,0,0,,,2,,,73,127
205478,note_on,,,,,1,0,0,,,4,,,57,125
205490,note_off,,,,,12,0,0,,,2,,,74,64
205494,note_off,,,,,4,0,0,,,4,,,59,64
205541,note_off,,,,,47,0,0,,,4,,,64,64
205546,note_on,,,,,5,0,0,,,4,,,64,121
205612,note_off,,,,,66,0,0,,,2,,,73,64
205612,note_on,,,,,0,0,0,,,2,,,71,127
205613,note_on,,,,,1,0,0,,,4,,,56,125
205626,note_off,,,,,13,0,0,,,4,,,57,64
205655,note_off,,,,,29,0,0,,,4,,,45,64
205672,note_off,,,,,17,0,0,,,4,,,64,64
205676,note_on,,,,,4,0,0,,,4,,,64,121
205734,note_off,,,,,58,0,0,,,2,,,71,64
205745,note_on,,,,,11,0,0,,,2,,,71,127
205746,note_on,,,,,1,0,0,,,4,,,52,125
205758,note_off,,,,,12,0,0,,,4,,,56,64
205808,note_off,,,,,50,0,0,,,4,,,64,64
205812,note_on,,,,,4,0,0,,,4,,,64,121
205882,note_on,,,,,70,0,0,,,4,,,54,125
205897,note_off,,,,,15,0,0,,,4,,,52,64
205945,note_off,,,,,48,0,0,,,4,,,64,64
205949,note_on,,,,,4,0,0,,,4,,,64,121
206014,note_on,,,,,65,0,0,,,4,,,56,125
206028,note_off,,,,,14,0,0,,,4,,,54,64
206077,note_off,,,,,49,0,0,,,4,,,64,64
206079,note_on,,,,,2,0,0,,,4,,,64,121
206143,note_off,,,,,64,0,0,,,2,,,71,64
206147,note_on,,,,,4,0,0,,,4,,,54,125
206147,note_on,,,,,0,0,0,,,2,,,71,127
206163,note_off,,,,,16,0,0,,,4,,,56,64
206184,note_on,,,,,21,0,0,,,2,,,70,126
206190,note_off,,,,,6,0,0,,,2,,,71,64
206217,note_off,,,,,27,0,0,,,4,,,64,64
206220,note_on,,,,,3,0,0,,,2,,,71,127
206221,note_on,,,,,1,0,0,,,4,,,64,121
206225,note_off,,,,,4,0,0,,,2,,,70,64
206258,note_on,,,,,33,0,0,,,2,,,70,126
206265,note_off,,,,,7,0,0,,,2,,,71,64
206297,note_on,,,,,32,0,0,,,2,,,71,127
206298,note_on,,,,,1,0,0,,,4,,,56,125
206300,note_off,,,,,2,0,0,,,2,,,70,64
206310,note_off,,,,,10,0,0,,,4,,,54,64
206358,note_off,,,,,48,0,0,,,4,,,64,64
206360,note_on,,,,,2,0,0,,,4,,,64,121
206396,note_off,,,,,36,0,0,,,2,,,71,64
206408,note_on,,,,,12,0,0,,,2,,,69,126
206429,note_on,,,,,21,0,0,,,4,,,54,125
206440,note_on,,,,,11,0,0,,,2,,,71,127
206448,note_off,,,,,8,0,0,,,4,,,56,64
206458,note_off,,,,,10,0,0,,,2,,,69,64
206486,note_on,,,,,28,0,0,,,2,,,69,126
206490,note_off,,,,,4,0,0,,,2,,,71,64
206500,note_off,,,,,10,0,0,,,4,,,64,64
206504,note_on,,,,,4,0,0,,,4,,,64,121
206579,note_on,,,,,75,0,0,,,4,,,56,125
206579,note_on,,,,,0,0,0,,,2,,,71,127
206595,note_off,,,,,16,0,0,,,2,,,69,64
206595,note_off,,,,,0,0,0,,,4,,,54,64
206644,note_off,,,,,49,0,0,,,4,,,64,64
206648,note_on,,,,,4,0,0,,,4,,,64,121
206690,note_off,,,,,42,0,0,,,2,,,71,64
206690,note_on,,,,,0,0,0,,,2,,,73,127
206718,note_on,,,,,28,0,0,,,4,,,57,125
206724,note_on,,,,,6,0,0,,,2,,,74,127
206737,note_off,,,,,13,0,0,,,4,,,56,64
206739,note_off,,,,,2,0,0,,,2,,,73,64
206759,note_on,,,,,20,0,0,,,2,,,73,127
206768,note_off,,,,,9,0,0,,,2,,,74,64
206789,note_off,,,,,21,0,0,,,4,,,64,64
206791,note_on,,,,,2,0,0,,,4,,,64,121
206854,note_on,,,,,63,0,0,,,2,,,74,127
206855,note_on,,,,,1,0,0,,,4,,,59,127
206868,note_off,,,,,13,0,0,,,4,,,57,64
206876,note_off,,,,,8,0,0,,,2,,,73,64
206917,note_off,,,,,41,0,0,,,4,,,64,64
206920,note_on,,,,,3,0,0,,,4,,,64,121
206986,note_off,,,,,66,0,0,,,2,,,74,64
206986,note_on,,,,,0,0,0,,,1,,,78,126
206987,note_on,,,,,1,0,0,,,4,,,61,127
206999,note_off,,,,,12,0,0,,,4,,,59,64
207049,note_off,,,,,50,0,0,,,4,,,64,64
207053,note_on,,,,,4,0,0,,,2,,,76,127
207054,note_on,,,,,1,0,0,,,4,,,64,121
207075,note_off,,,,,21,0,0,,,1,,,78,64
207120,note_on,,,,,45,0,0,,,2,,,74,127
207121,note_on,,,,,1,0,0,,,4,,,59,127
207136,note_off,,,,,15,0,0,,,4,,,61,64
207144,note_off,,,,,8,0,0,,,2,,,76,64
207184,note_off,,,,,40,0,0,,,4,,,64,64
207189,note_on,,,,,5,0,0,,,4,,,64,121
207246,note_off,,,,,57,0,0,,,2,,,74,64
207258,note_on,,,,,12,0,0,,,4,,,57,125
207258,note_on,,,,,0,0,0,,,2,,,73,127
207274,note_off,,,,,16,0,0,,,4,,,59,64
207329,note_off,,,,,55,0,0,,,4,,,64,64
207334,note_on,,,,,5,0,0,,,4,,,64,121
207397,note_off,,,,,63,0,0,,,2,,,73,64
207410,note_on,,,,,13,0,0,,,2,,,73,127
207464,note_on,,,,,54,0,0,,,1,,,85,126
207551,note_off,,,,,87,0,0,,,4,,,64,64
207564,note_off,,,,,13,0,0,,,1,,,85,64
207564,note_off,,,,,0,0,0,,,2,,,73,64
207568,note_off,,,,,4,0,0,,,4,,,57,64
207576,note_on,,,,,8,0,0,,,1,,,85,126
207577,note_on,,,,,1,0,0,,,4,,,57,125
207577,note_on,,,,,0,0,0,,,4,,,64,121
207720,note_off,,,,,143,0,0,,,4,,,64,64
207720,note_off,,,,,0,0,0,,,4,,,57,64
207725,note_on,,,,,5,0,0,,,4,,,64,121
207726,note_on,,,,,1,0,0,,,4,,,57,125
207857,note_off,,,,,131,0,0,,,1,,,85,64
207859,note_on,,,,,2,0,0,,,1,,,83,126
207893,note_on,,,,,34,0,0,,,1,,,81,126
207915,note_off,,,,,22,0,0,,,1,,,83,64
207984,note_off,,,,,69,0,0,,,1,,,81,64
207990,note_on,,,,,6,0,0,,,1,,,80,126
208025,note_on,,,,,35,0,0,,,1,,,78,126
208047,note_off,,,,,22,0,0,,,1,,,80,64
208112,note_off,,,,,65,0,0,,,1,,,78,64
208126,note_on,,,,,14,0,0,,,2,,,77,127
208162,note_on,,,,,36,0,0,,,1,,,78,126
208185,note_off,,,,,23,0,0,,,2,,,77,64
208270,note_on,,,,,85,0,0,,,2,,,69,126
208298,note_off,,,,,28,0,0,,,1,,,78,64
208314,note_on,,,,,16,0,0,,,1,,,81,126
208417,note_off,,,,,103,0,0,,,1,,,81,64
208418,note_off,,,,,1,0,0,,,4,,,64,64
208418,note_off,,,,,0,0,0,,,4,,,57,64
208419,note_off,,,,,1,0,0,,,2,,,69,64
208419,note_on,,,,,0,0,0,,,1,,,81,126
208420,note_on,,,,,1,0,0,,,4,,,63,126
208420,note_on,,,,,0,0,0,,,4,,,59,127
208421,note_on,,,,,1,0,0,,,4,,,54,125
208544,note_off,,,,,123,0,0,,,4,,,54,64
208545,note_off,,,,,1,0,0,,,4,,,59,64
208545,note_off,,,,,0,0,0,,,4,,,63,64
208556,note_on,,,,,11,0,0,,,4,,,59,127
208556,note_on,,,,,0,0,0,,,4,,,63,126
208557,note_on,,,,,1,0,0,,,4,,,54,125
208641,note_off,,,,,84,0,0,,,1,,,81,64
208653,note_on,,,,,12,0,0,,,1,,,80,126
208685,note_on,,,,,32,0,0,,,1,,,78,126
208697,note_off,,,,,12,0,0,,,1,,,80,64
208776,note_off,,,,,79,0,0,,,1,,,78,64
208785,note_on,,,,,9,0,0,,,2,,,76,127
208818,note_on,,,,,33,0,0,,,2,,,75,127
208829,note_off,,,,,11,0,0,,,2,,,76,64
208906,note_off,,,,,77,0,0,,,2,,,75,64
208918,note_on,,,,,12,0,0,,,2,,,73,127
208950,note_on,,,,,32,0,0,,,2,,,71,127
208964,note_off,,,,,14,0,0,,,2,,,73,64
209074,note_off,,,,,110,0,0,,,2,,,71,64
209085,note_on,,,,,11,0,0,,,2,,,71,127
209212,note_on,,,,,127,0,0,,,2,,,76,127
209245,note_off,,,,,33,0,0,,,2,,,71,64
209331,note_off,,,,,86,0,0,,,4,,,54,64
209332,note_off,,,,,1,0,0,,,4,,,63,64
209332,note_off,,,,,0,0,0,,,4,,,59,64
209342,note_on,,,,,10,0,0,,,4,,,56,125
209342,note_on,,,,,0,0,0,,,4,,,64,121
209462,note_off,,,,,120,0,0,,,2,,,76,64
209470,note_on,,,,,8,0,0,,,2,,,71,127
209596,note_off,,,,,126,0,0,,,4,,,56,64
209597,note_off,,,,,1,0,0,,,4,,,64,64
209604,note_on,,,,,7,0,0,,,4,,,57,125
209604,note_on,,,,,0,0,0,,,4,,,64,121
209604,note_on,,,,,0,0,0,,,2,,,73,127
209617,note_off,,,,,13,0,0,,,2,,,71,64
209736,note_on,,,,,119,0,0,,,2,,,69,126
209751,note_off,,,,,15,0,0,,,2,,,73,64
209863,note_on,,,,,112,0,0,,,2,,,68,126
209876,note_off,,,,,13,0,0,,,2,,,69,64
209978,note_on,,,,,102,0,0,,,2,,,71,127
209991,note_off,,,,,13,0,0,,,2,,,68,64
210095,note_off,,,,,104,0,0,,,4,,,57,64
210096,note_off,,,,,1,0,0,,,4,,,64,64
210096,note_on,,,,,0,0,0,,,4,,,59,127
210096,note_on,,,,,0,0,0,,,4,,,63,126
210206,note_off,,,,,110,0,0,,,2,,,71,64
210218,note_on,,,,,12,0,0,,,2,,,70,126
210345,note_on,,,,,127,0,0,,,4,,,47,125
210345,note_on,,,,,0,0,0,,,2,,,69,126
210357,note_off,,,,,12,0,0,,,2,,,70,64
210476,note_on,,,,,119,0,0,,,4,,,66,126
210492,note_off,,,,,16,0,0,,,2,,,69,64
210611,note_off,,,,,119,0,0,,,4,,,63,64
210611,note_off,,,,,0,0,0,,,4,,,59,64
210612,note_on,,,,,1,0,0,,,4,,,52,125
210612,note_on,,,,,0,0,0,,,2,,,68,126
210622,note_off,,,,,10,0,0,,,4,,,47,64
210626,note_off,,,,,4,0,0,,,4,,,66,64
210678,note_on,,,,,52,0,0,,,4,,,59,127
210678,note_on,,,,,0,0,0,,,2,,,71,127
210689,note_off,,,,,11,0,0,,,2,,,68,64
210737,note_on,,,,,48,0,0,,,2,,,73,127
210738,note_on,,,,,1,0,0,,,4,,,56,125
210748,note_off,,,,,10,0,0,,,2,,,71,64
210752,note_off,,,,,4,0,0,,,4,,,52,64
210794,note_off,,,,,42,0,0,,,4,,,59,64
210798,note_on,,,,,4,0,0,,,2,,,75,127
210798,note_on,,,,,0,0,0,,,4,,,59,127
210808,note_off,,,,,10,0,0,,,2,,,73,64
210858,note_on,,,,,50,0,0,,,2,,,76,127
210859,note_on,,,,,1,0,0,,,4,,,52,125
210867,note_off,,,,,8,0,0,,,2,,,75,64
210871,note_off,,,,,4,0,0,,,4,,,56,64
210913,note_off,,,,,42,0,0,,,4,,,59,64
210917,note_on,,,,,4,0,0,,,4,,,59,127
210917,note_on,,,,,0,0,0,,,1,,,78,126
210926,note_off,,,,,9,0,0,,,2,,,76,64
210974,note_on,,,,,48,0,0,,,1,,,80,126
210975,note_on,,,,,1,0,0,,,4,,,56,125
210985,note_off,,,,,10,0,0,,,1,,,78,64
210987,note_off,,,,,2,0,0,,,4,,,52,64
211029,note_off,,,,,42,0,0,,,4,,,59,64
211032,note_on,,,,,3,0,0,,,1,,,81,126
211032,note_on,,,,,0,0,0,,,4,,,59,127
211042,note_off,,,,,10,0,0,,,1,,,80,64
211092,note_on,,,,,50,0,0,,,4,,,52,125
211092,note_on,,,,,0,0,0,,,1,,,83,126
211100,note_off,,,,,8,0,0,,,1,,,81,64
211104,note_off,,,,,4,0,0,,,4,,,56,64
211148,note_off,,,,,44,0,0,,,4,,,59,64
211152,note_on,,,,,4,0,0,,,4,,,59,127
211152,note_on,,,,,0,0,0,,,1,,,85,126
211161,note_off,,,,,9,0,0,,,1,,,83,64
211212,note_on,,,,,51,0,0,,,1,,,83,126
211213,note_on,,,,,1,0,0,,,4,,,56,125
211221,note_off,,,,,8,0,0,,,1,,,85,64
211223,note_off,,,,,2,0,0,,,4,,,52,64
211269,note_off,,,,,46,0,0,,,4,,,59,64
211271,note_on,,,,,2,0,0,,,1,,,80,126
211272,note_on,,,,,1,0,0,,,4,,,59,127
211282,note_off,,,,,10,0,0,,,1,,,83,64
211332,note_on,,,,,50,0,0,,,4,,,54,125
211332,note_on,,,,,0,0,0,,,1,,,81,126
211340,note_off,,,,,8,0,0,,,1,,,80,64
211344,note_off,,,,,4,0,0,,,4,,,56,64
211386,note_off,,,,,42,0,0,,,4,,,59,64
211388,note_on,,,,,2,0,0,,,1,,,83,126
211389,note_on,,,,,1,0,0,,,4,,,59,127
211399,note_off,,,,,10,0,0,,,1,,,81,64
211445,note_off,,,,,46,0,0,,,4,,,54,64
211447,note_on,,,,,2,0,0,,,1,,,81,126
211448,note_on,,,,,1,0,0,,,4,,,54,125
211457,note_off,,,,,9,0,0,,,1,,,83,64
211503,note_off,,,,,46,0,0,,,4,,,59,64
211506,note_on,,,,,3,0,0,,,1,,,78,126
211506,note_on,,,,,0,0,0,,,4,,,57,125
211517,note_off,,,,,11,0,0,,,1,,,81,64
211561,note_off,,,,,44,0,0,,,4,,,54,64
211565,note_on,,,,,4,0,0,,,4,,,54,125
211565,note_on,,,,,0,0,0,,,2,,,75,127
211573,note_off,,,,,8,0,0,,,1,,,78,64
211621,note_on,,,,,48,0,0,,,2,,,76,127
211622,note_on,,,,,1,0,0,,,4,,,59,127
211630,note_off,,,,,8,0,0,,,2,,,75,64
211634,note_off,,,,,4,0,0,,,4,,,57,64
211681,note_on,,,,,47,0,0,,,2,,,75,127
211681,note_on,,,,,0,0,0,,,4,,,57,125
211690,note_off,,,,,9,0,0,,,2,,,76,64
211692,note_off,,,,,2,0,0,,,4,,,54,64
211734,note_off,,,,,42,0,0,,,4,,,59,64
211738,note_on,,,,,4,0,0,,,2,,,71,127
211738,note_on,,,,,0,0,0,,,4,,,59,127
211747,note_off,,,,,9,0,0,,,2,,,75,64
211794,note_on,,,,,47,0,0,,,2,,,69,126
211795,note_on,,,,,1,0,0,,,4,,,51,125
211803,note_off,,,,,8,0,0,,,2,,,71,64
211807,note_off,,,,,4,0,0,,,4,,,57,64
211849,note_off,,,,,42,0,0,,,4,,,59,64
211851,note_on,,,,,2,0,0,,,2,,,71,127
211852,note_on,,,,,1,0,0,,,4,,,59,127
211862,note_off,,,,,10,0,0,,,2,,,69,64
211908,note_on,,,,,46,0,0,,,4,,,54,125
211908,note_on,,,,,0,0,0,,,2,,,69,126
211919,note_off,,,,,11,0,0,,,2,,,71,64
211922,note_off,,,,,3,0,0,,,4,,,51,64
211964,note_off,,,,,42,0,0,,,4,,,59,64
211967,note_on,,,,,3,0,0,,,4,,,66,126
211967,note_on,,,,,0,0,0,,,4,,,59,127
211977,note_off,,,,,10,0,0,,,2,,,69,64
212025,note_on,,,,,48,0,0,,,2,,,68,126
212026,note_on,,,,,1,0,0,,,4,,,52,125
212034,note_off,,,,,8,0,0,,,4,,,66,64
212037,note_off,,,,,3,0,0,,,4,,,54,64
212085,note_off,,,,,48,0,0,,,4,,,59,64
212089,note_on,,,,,4,0,0,,,2,,,71,127
212090,note_on,,,,,1,0,0,,,4,,,59,127
212098,note_off,,,,,8,0,0,,,2,,,68,64
212150,note_on,,,,,52,0,0,,,4,,,56,125
212150,note_on,,,,,0,0,0,,,2,,,73,127
212159,note_off,,,,,9,0,0,,,2,,,71,64
212162,note_off,,,,,3,0,0,,,4,,,52,64
212204,note_off,,,,,42,0,0,,,4,,,59,64
212207,note_on,,,,,3,0,0,,,2,,,75,127
212207,note_on,,,,,0,0,0,,,4,,,59,127
212217,note_off,,,,,10,0,0,,,2,,,73,64
212265,note_on,,,,,48,0,0,,,2,,,76,127
212266,note_on,,,,,1,0,0,,,4,,,52,125
212276,note_off,,,,,10,0,0,,,2,,,75,64
212278,note_off,,,,,2,0,0,,,4,,,56,64
212322,note_off,,,,,44,0,0,,,4,,,59,64
212324,note_on,,,,,2,0,0,,,4,,,59,127
212324,note_on,,,,,0,0,0,,,1,,,78,126
212334,note_off,,,,,10,0,0,,,2,,,76,64
212382,note_on,,,,,48,0,0,,,1,,,80,126
212383,note_on,,,,,1,0,0,,,4,,,56,125
212393,note_off,,,,,10,0,0,,,1,,,78,64
212395,note_off,,,,,2,0,0,,,4,,,52,64
212439,note_off,,,,,44,0,0,,,4,,,59,64
212443,note_on,,,,,4,0,0,,,1,,,81,126
212443,note_on,,,,,0,0,0,,,4,,,59,127
212451,note_off,,,,,8,0,0,,,1,,,80,64
212501,note_on,,,,,50,0,0,,,1,,,83,126
212502,note_on,,,,,1,0,0,,,4,,,52,125
212512,note_off,,,,,10,0,0,,,1,,,81,64
212514,note_off,,,,,2,0,0,,,4,,,56,64
212556,note_off,,,,,42,0,0,,,4,,,59,64
212558,note_on,,,,,2,0,0,,,4,,,59,127
212558,note_on,,,,,0,0,0,,,1,,,85,126
212568,note_off,,,,,10,0,0,,,1,,,83,64
212622,note_on,,,,,54,0,0,,,1,,,83,126
212623,note_on,,,,,1,0,0,,,4,,,56,125
212631,note_off,,,,,8,0,0,,,1,,,85,64
212635,note_off,,,,,4,0,0,,,4,,,52,64
212675,note_off,,,,,40,0,0,,,4,,,59,64
212677,note_on,,,,,2,0,0,,,1,,,80,126
212677,note_on,,,,,0,0,0,,,4,,,59,127
212688,note_off,,,,,11,0,0,,,1,,,83,64
212737,note_on,,,,,49,0,0,,,1,,,81,126
212738,note_on,,,,,1,0,0,,,4,,,54,125
212748,note_off,,,,,10,0,0,,,1,,,80,64
212750,note_off,,,,,2,0,0,,,4,,,56,64
212794,note_off,,,,,44,0,0,,,4,,,59,64
212796,note_on,,,,,2,0,0,,,4,,,59,127
212796,note_on,,,,,0,0,0,,,1,,,83,126
212805,note_off,,,,,9,0,0,,,1,,,81,64
212853,note_on,,,,,48,0,0,,,4,,,57,125
212853,note_on,,,,,0,0,0,,,1,,,81,126
212861,note_off,,,,,8,0,0,,,1,,,83,64
212863,note_off,,,,,2,0,0,,,4,,,54,64
212905,note_off,,,,,42,0,0,,,4,,,59,64
212909,note_on,,,,,4,0,0,,,1,,,78,126
212910,note_on,,,,,1,0,0,,,4,,,59,127
212918,note_off,,,,,8,0,0,,,1,,,81,64
212966,note_on,,,,,48,0,0,,,2,,,75,127
212966,note_on,,,,,0,0,0,,,4,,,54,125
212976,note_off,,,,,10,0,0,,,1,,,78,64
212978,note_off,,,,,2,0,0,,,4,,,57,64
213021,note_off,,,,,43,0,0,,,4,,,59,64
213024,note_on,,,,,3,0,0,,,2,,,76,127
213025,note_on,,,,,1,0,0,,,4,,,59,127
213033,note_off,,,,,8,0,0,,,2,,,75,64
213083,note_on,,,,,50,0,0,,,2,,,75,127
213084,note_on,,,,,1,0,0,,,4,,,57,125
213094,note_off,,,,,10,0,0,,,2,,,76,64
213096,note_off,,,,,2,0,0,,,4,,,54,64
213138,note_off,,,,,42,0,0,,,4,,,59,64
213140,note_on,,,,,2,0,0,,,2,,,71,127
213140,note_on,,,,,0,0,0,,,4,,,59,127
213150,note_off,,,,,10,0,0,,,2,,,75,64
213198,note_on,,,,,48,0,0,,,2,,,69,126
213199,note_on,,,,,1,0,0,,,4,,,51,125
213209,note_off,,,,,10,0,0,,,2,,,71,64
213211,note_off,,,,,2,0,0,,,4,,,57,64
213251,note_off,,,,,40,0,0,,,4,,,59,64
213255,note_on,,,,,4,0,0,,,4,,,59,127
213255,note_on,,,,,0,0,0,,,2,,,71,127
213264,note_off,,,,,9,0,0,,,2,,,69,64
213313,note_on,,,,,49,0,0,,,2,,,69,126
213314,note_on,,,,,1,0,0,,,4,,,54,125
213324,note_off,,,,,10,0,0,,,2,,,71,64
213326,note_off,,,,,2,0,0,,,4,,,51,64
213366,note_off,,,,,40,0,0,,,4,,,59,64
213368,note_on,,,,,2,0,0,,,4,,,66,126
213369,note_on,,,,,1,0,0,,,4,,,59,127
213379,note_off,,,,,10,0,0,,,2,,,69,64
213426,note_on,,,,,47,0,0,,,4,,,52,125
213426,note_on,,,,,0,0,0,,,2,,,68,126
213436,note_off,,,,,10,0,0,,,4,,,66,64
213438,note_off,,,,,2,0,0,,,4,,,54,64
213484,note_off,,,,,46,0,0,,,4,,,59,64
213488,note_on,,,,,4,0,0,,,2,,,71,127
213498,note_off,,,,,10,0,0,,,2,,,68,64
213550,note_on,,,,,52,0,0,,,2,,,76,127
213561,note_off,,,,,11,0,0,,,2,,,71,64
213612,note_on,,,,,51,0,0,,,2,,,75,127
213622,note_off,,,,,10,0,0,,,2,,,76,64
213664,note_off,,,,,42,0,0,,,4,,,52,64
213668,note_off,,,,,4,0,0,,,2,,,75,64
213673,note_on,,,,,5,0,0,,,2,,,75,127
213674,note_on,,,,,1,0,0,,,4,,,57,125
213736,note_on,,,,,62,0,0,,,2,,,73,127
213748,note_off,,,,,12,0,0,,,2,,,75,64
213796,note_on,,,,,48,0,0,,,1,,,81,126
213808,note_off,,,,,12,0,0,,,2,,,73,64
213858,note_on,,,,,50,0,0,,,1,,,80,126
213867,note_off,,,,,9,0,0,,,1,,,81,64
213915,note_off,,,,,48,0,0,,,1,,,80,64
213919,note_on,,,,,4,0,0,,,1,,,80,126
213979,note_on,,,,,60,0,0,,,1,,,78,126
213988,note_off,,,,,9,0,0,,,1,,,80,64
214039,note_on,,,,,51,0,0,,,1,,,85,126
214048,note_off,,,,,9,0,0,,,1,,,78,64
214098,note_on,,,,,50,0,0,,,1,,,83,126
214110,note_off,,,,,12,0,0,,,1,,,85,64
214161,note_off,,,,,51,0,0,,,1,,,83,64
214167,note_on,,,,,6,0,0,,,1,,,83,126
214212,note_on,,,,,45,0,0,,,1,,,81,126
214255,note_off,,,,,43,0,0,,,1,,,83,64
214301,note_off,,,,,46,0,0,,,1,,,81,64
214301,note_off,,,,,0,0,0,,,4,,,57,64
214302,note_on,,,,,1,0,0,,,2,,,71,127
214302,note_on,,,,,0,0,0,,,1,,,80,126
214303,note_on,,,,,1,0,0,,,4,,,59,127
214303,note_on,,,,,0,0,0,,,4,,,63,127
214303,note_on,,,,,0,0,0,,,2,,,69,126
214367,note_on,,,,,64,0,0,,,1,,,78,126
214377,note_off,,,,,10,0,0,,,1,,,80,64
214420,note_off,,,,,43,0,0,,,2,,,69,64
214424,note_off,,,,,4,0,0,,,1,,,78,64
214430,note_on,,,,,6,0,0,,,1,,,78,126
214431,note_on,,,,,1,0,0,,,4,,,64,124
214431,note_on,,,,,0,0,0,,,2,,,69,126
214442,note_off,,,,,11,0,0,,,4,,,63,64
214443,note_off,,,,,1,0,0,,,2,,,71,64
214553,note_off,,,,,110,0,0,,,4,,,59,64
214559,note_on,,,,,6,0,0,,,4,,,59,127
214682,note_off,,,,,123,0,0,,,1,,,78,64
214690,note_off,,,,,8,0,0,,,4,,,59,64
214690,note_on,,,,,0,0,0,,,2,,,76,127
214691,note_on,,,,,1,0,0,,,4,,,52,127
214691,note_on,,,,,0,0,0,,,2,,,68,126
214693,note_off,,,,,2,0,0,,,2,,,69,64
214693,note_off,,,,,0,0,0,,,4,,,64,64
214931,note_off,,,,,238,0,0,,,2,,,76,64
214941,note_off,,,,,10,0,0,,,2,,,68,64
214942,note_on,,,,,1,0,0,,,2,,,76,127
214992,note_on,,,,,50,0,0,,,2,,,69,126
215186,note_off,,,,,194,0,0,,,2,,,76,64
215207,note_off,,,,,21,0,0,,,4,,,52,64
215208,note_on,,,,,1,0,0,,,4,,,57,127
215208,note_on,,,,,0,0,0,,,4,,,61,127
215421,note_off,,,,,213,0,0,,,2,,,69,64
215452,note_on,,,,,31,0,0,,,4,,,62,127
215452,note_on,,,,,0,0,0,,,2,,,71,127
215453,note_on,,,,,1,0,0,,,4,,,52,127
215455,note_off,,,,,2,0,0,,,4,,,61,64
215455,note_off,,,,,0,0,0,,,4,,,57,64
215516,note_on,,,,,61,0,0,,,2,,,69,126
215526,note_off,,,,,10,0,0,,,2,,,71,64
215574,note_on,,,,,48,0,0,,,2,,,71,127
215585,note_off,,,,,11,0,0,,,2,,,69,64
215633,note_on,,,,,48,0,0,,,2,,,68,126
215643,note_off,,,,,10,0,0,,,2,,,71,64
215691,note_on,,,,,48,0,0,,,4,,,61,127
215691,note_on,,,,,0,0,0,,,2,,,69,126
215692,note_on,,,,,1,0,0,,,4,,,57,127
215696,note_off,,,,,4,0,0,,,4,,,62,64
215696,note_off,,,,,0,0,0,,,4,,,52,64
215700,note_off,,,,,4,0,0,,,2,,,68,64
215808,note_off,,,,,108,0,0,,,4,,,61,64
215816,note_on,,,,,8,0,0,,,2,,,76,125
215816,note_on,,,,,0,0,0,,,4,,,64,127
215817,note_on,,,,,1,0,0,,,4,,,61,127
215817,note_on,,,,,0,0,0,,,4,,,49,127
215829,note_off,,,,,12,0,0,,,4,,,57,64
215830,note_off,,,,,1,0,0,,,2,,,69,64
215936,note_on,,,,,106,0,0,,,4,,,63,127
215936,note_on,,,,,0,0,0,,,2,,,75,125
215937,note_on,,,,,1,0,0,,,4,,,48,127
215937,note_on,,,,,0,0,0,,,4,,,60,127
215947,note_off,,,,,10,0,0,,,4,,,49,64
215948,note_off,,,,,1,0,0,,,4,,,61,64
215948,note_off,,,,,0,0,0,,,4,,,64,64
215949,note_off,,,,,1,0,0,,,2,,,76,64
216055,note_on,,,,,106,0,0,,,2,,,76,125
216055,note_on,,,,,0,0,0,,,4,,,64,127
216056,note_on,,,,,1,0,0,,,4,,,61,127
216056,note_on,,,,,0,0,0,,,4,,,49,127
216069,note_off,,,,,13,0,0,,,4,,,60,64
216069,note_off,,,,,0,0,0,,,4,,,48,64
216070,note_off,,,,,1,0,0,,,2,,,75,64
216070,note_off,,,,,0,0,0,,,4,,,63,64
216180,note_on,,,,,110,0,0,,,4,,,59,127
216180,note_on,,,,,0,0,0,,,4,,,62,127
216180,note_on,,,,,0,0,0,,,2,,,74,125
216181,note_on,,,,,1,0,0,,,4,,,47,127
216193,note_off,,,,,12,0,0,,,4,,,49,64
216193,note_off,,,,,0,0,0,,,4,,,61,64
216194,note_off,,,,,1,0,0,,,4,,,64,64
216194,note_off,,,,,0,0,0,,,2,,,76,64
216304,note_on,,,,,110,0,0,,,2,,,73,125
216305,note_on,,,,,1,0,0,,,4,,,57,127
216305,note_on,,,,,0,0,0,,,4,,,61,127
216306,note_on,,,,,1,0,0,,,4,,,45,127
216320,note_off,,,,,14,0,0,,,4,,,59,64
216320,note_off,,,,,0,0,0,,,4,,,47,64
216321,note_off,,,,,1,0,0,,,2,,,74,64
216321,note_off,,,,,0,0,0,,,4,,,62,64
216437,note_on,,,,,116,0,0,,,2,,,76,125
216487,note_off,,,,,50,0,0,,,2,,,73,64
216499,note_on,,,,,12,0,0,,,2,,,71,124
216693,note_off,,,,,194,0,0,,,2,,,76,64
216714,note_off,,,,,21,0,0,,,4,,,57,64
216714,note_off,,,,,0,0,0,,,4,,,45,64
216715,note_off,,,,,1,0,0,,,4,,,61,64
216715,note_on,,,,,0,0,0,,,4,,,64,124
216716,note_on,,,,,1,0,0,,,4,,,56,127
216922,note_off,,,,,206,0,0,,,2,,,71,64
216943,note_off,,,,,21,0,0,,,4,,,64,64
216953,note_on,,,,,10,0,0,,,4,,,64,124
216953,note_on,,,,,0,0,0,,,2,,,73,125
216954,note_on,,,,,1,0,0,,,4,,,57,127
216957,note_off,,,,,3,0,0,,,4,,,56,64
217019,note_on,,,,,62,0,0,,,2,,,71,124
217065,note_off,,,,,46,0,0,,,2,,,73,64
217075,note_on,,,,,10,0,0,,,2,,,73,125
217132,note_on,,,,,57,0,0,,,2,,,69,126
217144,note_off,,,,,12,0,0,,,2,,,71,64
217178,note_off,,,,,34,0,0,,,2,,,73,64
217179,note_off,,,,,1,0,0,,,4,,,64,64
217187,note_on,,,,,8,0,0,,,2,,,74,125
217188,note_on,,,,,1,0,0,,,4,,,59,127
217188,note_on,,,,,0,0,0,,,4,,,64,124
217192,note_off,,,,,4,0,0,,,4,,,57,64
217264,note_off,,,,,72,0,0,,,2,,,69,64
217302,note_off,,,,,38,0,0,,,4,,,59,64
217303,note_off,,,,,1,0,0,,,2,,,74,64
217313,note_on,,,,,10,0,0,,,4,,,62,127
217313,note_on,,,,,0,0,0,,,2,,,74,125
217314,note_on,,,,,1,0,0,,,4,,,47,127
217314,note_on,,,,,0,0,0,,,4,,,59,127
217326,note_off,,,,,12,0,0,,,4,,,64,64
217435,note_on,,,,,109,0,0,,,4,,,61,127
217435,note_on,,,,,0,0,0,,,2,,,73,125
217436,note_on,,,,,1,0,0,,,4,,,46,127
217436,note_on,,,,,0,0,0,,,4,,,58,127
217448,note_off,,,,,12,0,0,,,4,,,47,64
217449,note_off,,,,,1,0,0,,,2,,,74,64
217449,note_off,,,,,0,0,0,,,4,,,62,64
217449,note_off,,,,,0,0,0,,,4,,,59,64
217556,note_on,,,,,107,0,0,,,4,,,62,127
217556,note_on,,,,,0,0,0,,,2,,,74,125
217557,note_on,,,,,1,0,0,,,4,,,47,127
217557,note_on,,,,,0,0,0,,,4,,,59,127
217569,note_off,,,,,12,0,0,,,4,,,46,64
217570,note_off,,,,,1,0,0,,,4,,,61,64
217570,note_off,,,,,0,0,0,,,4,,,58,64
217571,note_off,,,,,1,0,0,,,2,,,73,64
217677,note_on,,,,,106,0,0,,,4,,,61,127
217677,note_on,,,,,0,0,0,,,2,,,73,125
217678,note_on,,,,,1,0,0,,,4,,,45,127
217678,note_on,,,,,0,0,0,,,4,,,57,127
217688,note_off,,,,,10,0,0,,,4,,,47,64
217689,note_off,,,,,1,0,0,,,4,,,62,64
217689,note_off,,,,,0,0,0,,,4,,,59,64
217690,note_off,,,,,1,0,0,,,2,,,74,64
217796,note_on,,,,,106,0,0,,,4,,,59,127
217796,note_on,,,,,0,0,0,,,2,,,71,127
217797,note_on,,,,,1,0,0,,,4,,,44,127
217797,note_on,,,,,0,0,0,,,4,,,56,127
217807,note_off,,,,,10,0,0,,,4,,,45,64
217808,note_off,,,,,1,0,0,,,4,,,61,64
217808,note_off,,,,,0,0,0,,,4,,,57,64
217809,note_off,,,,,1,0,0,,,2,,,73,64
217915,note_on,,,,,106,0,0,,,2,,,75,127
217927,note_off,,,,,12,0,0,,,2,,,71,64
217946,note_on,,,,,19,0,0,,,2,,,76,127
217956,note_off,,,,,10,0,0,,,2,,,75,64
217977,note_on,,,,,21,0,0,,,1,,,78,121
217987,note_off,,,,,10,0,0,,,2,,,76,64
218010,note_on,,,,,23,0,0,,,2,,,76,124
218019,note_off,,,,,9,0,0,,,1,,,78,64
218042,note_on,,,,,23,0,0,,,1,,,78,121
218052,note_off,,,,,10,0,0,,,2,,,76,64
218074,note_on,,,,,22,0,0,,,2,,,76,124
218086,note_off,,,,,12,0,0,,,1,,,78,64
218107,note_on,,,,,21,0,0,,,1,,,78,117
218116,note_off,,,,,9,0,0,,,2,,,76,64
218139,note_on,,,,,23,0,0,,,2,,,76,120
218149,note_off,,,,,10,0,0,,,1,,,78,64
218172,note_off,,,,,23,0,0,,,4,,,56,64
218172,note_off,,,,,0,0,0,,,4,,,44,64
218173,note_off,,,,,1,0,0,,,4,,,59,64
218173,note_on,,,,,0,0,0,,,1,,,78,117
218174,note_on,,,,,1,0,0,,,4,,,49,127
218174,note_on,,,,,0,0,0,,,4,,,61,127
218196,note_off,,,,,22,0,0,,,2,,,76,64
218208,note_on,,,,,12,0,0,,,2,,,76,115
218229,note_off,,,,,21,0,0,,,1,,,78,64
218240,note_on,,,,,11,0,0,,,1,,,78,112
218261,note_off,,,,,21,0,0,,,2,,,76,64
218273,note_on,,,,,12,0,0,,,2,,,76,115
218294,note_off,,,,,21,0,0,,,1,,,78,64
218305,note_on,,,,,11,0,0,,,1,,,78,112
218328,note_off,,,,,23,0,0,,,2,,,76,64
218340,note_on,,,,,12,0,0,,,2,,,76,115
218361,note_off,,,,,21,0,0,,,1,,,78,64
218373,note_on,,,,,12,0,0,,,1,,,78,112
218394,note_off,,,,,21,0,0,,,2,,,76,64
218405,note_on,,,,,11,0,0,,,2,,,76,115
218428,note_off,,,,,23,0,0,,,1,,,78,64
218440,note_on,,,,,12,0,0,,,4,,,59,127
218440,note_on,,,,,0,0,0,,,1,,,78,112
218441,note_on,,,,,1,0,0,,,4,,,47,127
218443,note_off,,,,,2,0,0,,,4,,,61,64
218443,note_off,,,,,0,0,0,,,4,,,49,64
218461,note_off,,,,,18,0,0,,,2,,,76,64
218501,note_on,,,,,40,0,0,,,2,,,74,127
218555,note_off,,,,,54,0,0,,,1,,,78,64
218655,note_off,,,,,100,0,0,,,2,,,74,64
218684,note_on,,,,,29,0,0,,,2,,,71,127
218716,note_on,,,,,32,0,0,,,2,,,73,124
218726,note_off,,,,,10,0,0,,,2,,,71,64
218748,note_on,,,,,22,0,0,,,2,,,74,124
218753,note_off,,,,,5,0,0,,,2,,,73,64
218778,note_on,,,,,25,0,0,,,2,,,73,124
218785,note_off,,,,,7,0,0,,,2,,,74,64
218810,note_on,,,,,25,0,0,,,2,,,74,124
218816,note_off,,,,,6,0,0,,,2,,,73,64
218842,note_on,,,,,26,0,0,,,2,,,73,124
218849,note_off,,,,,7,0,0,,,2,,,74,64
218874,note_on,,,,,25,0,0,,,2,,,74,120
218880,note_off,,,,,6,0,0,,,2,,,73,64
218907,note_on,,,,,27,0,0,,,2,,,73,120
218912,note_off,,,,,5,0,0,,,2,,,74,64
218940,note_off,,,,,28,0,0,,,4,,,59,64
218940,note_off,,,,,0,0,0,,,4,,,47,64
218940,note_on,,,,,0,0,0,,,4,,,64,124
218940,note_on,,,,,0,0,0,,,2,,,74,120
218941,note_on,,,,,1,0,0,,,4,,,52,127
218945,note_off,,,,,4,0,0,,,2,,,73,64
218972,note_on,,,,,27,0,0,,,2,,,73,115
218979,note_off,,,,,7,0,0,,,2,,,74,64
219005,note_on,,,,,26,0,0,,,2,,,74,115
219010,note_off,,,,,5,0,0,,,2,,,73,64
219037,note_on,,,,,27,0,0,,,2,,,73,115
219043,note_off,,,,,6,0,0,,,2,,,74,64
219070,note_on,,,,,27,0,0,,,2,,,74,115
219077,note_off,,,,,7,0,0,,,2,,,73,64
219103,note_on,,,,,26,0,0,,,2,,,73,115
219110,note_off,,,,,7,0,0,,,2,,,74,64
219135,note_on,,,,,25,0,0,,,2,,,74,119
219141,note_off,,,,,6,0,0,,,2,,,73,64
219168,note_on,,,,,27,0,0,,,2,,,73,119
219173,note_off,,,,,5,0,0,,,2,,,74,64
219199,note_off,,,,,26,0,0,,,2,,,73,64
219199,note_on,,,,,0,0,0,,,2,,,74,127
219200,note_on,,,,,1,0,0,,,4,,,50,127
219200,note_on,,,,,0,0,0,,,4,,,62,127
219202,note_off,,,,,2,0,0,,,4,,,52,64
219203,note_off,,,,,1,0,0,,,4,,,64,64
219261,note_on,,,,,58,0,0,,,2,,,71,127
219282,note_off,,,,,21,0,0,,,2,,,74,64
219445,note_off,,,,,163,0,0,,,2,,,71,64
219446,note_on,,,,,1,0,0,,,2,,,69,126
219527,note_off,,,,,81,0,0,,,2,,,69,64
219539,note_on,,,,,12,0,0,,,2,,,71,127
219575,note_on,,,,,36,0,0,,,2,,,69,126
219587,note_off,,,,,12,0,0,,,2,,,71,64
219663,note_off,,,,,76,0,0,,,2,,,69,64
219669,note_on,,,,,6,0,0,,,2,,,68,126
219708,note_on,,,,,39,0,0,,,2,,,69,126
219717,note_off,,,,,9,0,0,,,2,,,68,64
219823,note_off,,,,,106,0,0,,,4,,,62,64
219832,note_on,,,,,9,0,0,,,2,,,71,127
219833,note_on,,,,,1,0,0,,,4,,,62,127
219833,note_on,,,,,0,0,0,,,2,,,68,126
219847,note_off,,,,,14,0,0,,,2,,,69,64
219962,note_on,,,,,115,0,0,,,2,,,69,126
219962,note_on,,,,,0,0,0,,,2,,,73,127
219963,note_on,,,,,1,0,0,,,4,,,61,127
219974,note_off,,,,,11,0,0,,,4,,,62,64
219975,note_off,,,,,1,0,0,,,2,,,71,64
219975,note_off,,,,,0,0,0,,,2,,,68,64
220087,note_on,,,,,112,0,0,,,2,,,74,127
220087,note_on,,,,,0,0,0,,,2,,,71,127
220088,note_on,,,,,1,0,0,,,4,,,59,127
220101,note_off,,,,,13,0,0,,,4,,,61,64
220102,note_off,,,,,1,0,0,,,2,,,73,64
220102,note_off,,,,,0,0,0,,,2,,,69,64
220213,note_on,,,,,111,0,0,,,2,,,76,127
220214,note_on,,,,,1,0,0,,,4,,,57,127
220214,note_on,,,,,0,0,0,,,2,,,73,127
220226,note_off,,,,,12,0,0,,,4,,,59,64
220226,note_off,,,,,0,0,0,,,2,,,71,64
220227,note_off,,,,,1,0,0,,,2,,,74,64
220233,note_off,,,,,6,0,0,,,4,,,50,64
220332,note_on,,,,,99,0,0,,,4,,,49,127
220436,note_off,,,,,104,0,0,,,4,,,57,64
220437,note_off,,,,,1,0,0,,,2,,,76,64
220437,note_off,,,,,0,0,0,,,2,,,73,64
220456,note_on,,,,,19,0,0,,,1,,,78,126
220457,note_on,,,,,1,0,0,,,4,,,52,127
220457,note_on,,,,,0,0,0,,,2,,,74,127
220470,note_off,,,,,13,0,0,,,4,,,49,64
220520,note_on,,,,,50,0,0,,,2,,,73,127
220520,note_on,,,,,0,0,0,,,2,,,76,127
220530,note_off,,,,,10,0,0,,,2,,,74,64
220531,note_off,,,,,1,0,0,,,1,,,78,64
220583,note_on,,,,,52,0,0,,,2,,,74,127
220584,note_on,,,,,1,0,0,,,2,,,71,127
220592,note_off,,,,,8,0,0,,,2,,,76,64
220592,note_off,,,,,0,0,0,,,2,,,73,64
220643,note_on,,,,,51,0,0,,,2,,,73,127
220643,note_on,,,,,0,0,0,,,2,,,69,126
220653,note_off,,,,,10,0,0,,,2,,,71,64
220654,note_off,,,,,1,0,0,,,2,,,74,64
220704,note_on,,,,,50,0,0,,,2,,,68,126
220704,note_on,,,,,0,0,0,,,2,,,71,127
220715,note_off,,,,,11,0,0,,,2,,,69,64
220715,note_off,,,,,0,0,0,,,2,,,73,64
220960,note_off,,,,,245,0,0,,,2,,,71,64
220960,note_off,,,,,0,0,0,,,2,,,68,64
220960,note_on,,,,,0,0,0,,,2,,,69,126
221208,note_off,,,,,248,0,0,,,4,,,52,64
221209,note_on,,,,,1,0,0,,,4,,,57,127
221209,note_on,,,,,0,0,0,,,4,,,61,127
221271,note_on,,,,,62,0,0,,,4,,,64,124
221277,note_off,,,,,6,0,0,,,2,,,69,64
221333,note_on,,,,,56,0,0,,,2,,,73,127
221385,note_off,,,,,52,0,0,,,2,,,73,64
221395,note_on,,,,,10,0,0,,,2,,,73,127
221447,note_off,,,,,52,0,0,,,2,,,73,64
221458,note_on,,,,,11,0,0,,,2,,,73,127
221459,note_on,,,,,1,0,0,,,4,,,52,127
221459,note_on,,,,,0,0,0,,,4,,,59,127
221460,note_off,,,,,1,0,0,,,4,,,57,64
221461,note_off,,,,,1,0,0,,,4,,,61,64
221510,note_off,,,,,49,0,0,,,2,,,73,64
221510,note_off,,,,,0,0,0,,,4,,,64,64
221520,note_on,,,,,10,0,0,,,2,,,74,127
221583,note_off,,,,,63,0,0,,,2,,,74,64
221583,note_on,,,,,0,0,0,,,2,,,71,127
221584,note_on,,,,,1,0,0,,,4,,,62,127
221645,note_off,,,,,61,0,0,,,2,,,71,64
221646,note_on,,,,,1,0,0,,,2,,,68,126
221704,note_off,,,,,58,0,0,,,2,,,68,64
221704,note_off,,,,,0,0,0,,,4,,,62,64
221705,note_on,,,,,1,0,0,,,4,,,61,127
221705,note_on,,,,,0,0,0,,,2,,,69,126
221706,note_on,,,,,1,0,0,,,4,,,57,127
221707,note_off,,,,,1,0,0,,,4,,,52,64
221708,note_off,,,,,1,0,0,,,4,,,59,64
221830,note_on,,,,,122,0,0,,,1,,,85,122
221830,note_on,,,,,0,0,0,,,4,,,64,124
221844,note_off,,,,,14,0,0,,,4,,,61,64
221844,note_off,,,,,0,0,0,,,4,,,57,64
221845,note_off,,,,,1,0,0,,,2,,,69,64
221959,note_on,,,,,114,0,0,,,1,,,84,122
221960,note_on,,,,,1,0,0,,,4,,,63,127
221974,note_off,,,,,14,0,0,,,4,,,64,64
221974,note_off,,,,,0,0,0,,,1,,,85,64
222083,note_on,,,,,109,0,0,,,1,,,85,122
222083,note_on,,,,,0,0,0,,,4,,,64,124
222096,note_off,,,,,13,0,0,,,1,,,84,64
222096,note_off,,,,,0,0,0,,,4,,,63,64
222206,note_on,,,,,110,0,0,,,4,,,62,127
222206,note_on,,,,,0,0,0,,,1,,,83,122
222218,note_off,,,,,12,0,0,,,4,,,64,64
222219,note_off,,,,,1,0,0,,,1,,,85,64
222331,note_on,,,,,112,0,0,,,1,,,81,122
222331,note_on,,,,,0,0,0,,,4,,,61,127
222343,note_off,,,,,12,0,0,,,4,,,62,64
222344,note_off,,,,,1,0,0,,,1,,,83,64
222456,note_on,,,,,112,0,0,,,2,,,71,127
222469,note_off,,,,,13,0,0,,,1,,,81,64
222471,note_off,,,,,2,0,0,,,4,,,61,64
222704,note_on,,,,,233,0,0,,,4,,,56,127
222705,note_on,,,,,1,0,0,,,4,,,52,127
222767,note_on,,,,,62,0,0,,,4,,,64,124
222788,note_off,,,,,21,0,0,,,2,,,71,64
222828,note_on,,,,,40,0,0,,,2,,,74,127
222880,note_off,,,,,52,0,0,,,2,,,74,64
222891,note_on,,,,,11,0,0,,,2,,,74,127
222932,note_off,,,,,41,0,0,,,4,,,52,64
222941,note_off,,,,,9,0,0,,,2,,,74,64
222953,note_on,,,,,12,0,0,,,4,,,57,127
222953,note_on,,,,,0,0,0,,,2,,,74,127
222954,note_on,,,,,1,0,0,,,4,,,52,127
222958,note_off,,,,,4,0,0,,,4,,,56,64
222994,note_off,,,,,36,0,0,,,4,,,64,64
223016,note_off,,,,,22,0,0,,,2,,,74,64
223016,note_on,,,,,0,0,0,,,2,,,73,127
223078,note_off,,,,,62,0,0,,,2,,,73,64
223078,note_on,,,,,0,0,0,,,2,,,76,127
223142,note_off,,,,,64,0,0,,,2,,,76,64
223142,note_on,,,,,0,0,0,,,2,,,74,127
223181,note_off,,,,,39,0,0,,,4,,,52,64
223201,note_off,,,,,20,0,0,,,2,,,74,64
223201,note_on,,,,,0,0,0,,,2,,,71,127
223202,note_on,,,,,1,0,0,,,4,,,56,127
223202,note_on,,,,,0,0,0,,,4,,,52,127
223205,note_off,,,,,3,0,0,,,4,,,57,64
223326,note_on,,,,,121,0,0,,,1,,,83,122
223327,note_on,,,,,1,0,0,,,4,,,62,127
223337,note_off,,,,,10,0,0,,,2,,,71,64
223341,note_off,,,,,4,0,0,,,4,,,52,64
223341,note_off,,,,,0,0,0,,,4,,,56,64
223455,note_on,,,,,114,0,0,,,1,,,82,122
223455,note_on,,,,,0,0,0,,,4,,,61,127
223469,note_off,,,,,14,0,0,,,4,,,62,64
223470,note_off,,,,,1,0,0,,,1,,,83,64
223578,note_on,,,,,108,0,0,,,1,,,83,122
223579,note_on,,,,,1,0,0,,,4,,,62,127
223592,note_off,,,,,13,0,0,,,4,,,61,64
223593,note_off,,,,,1,0,0,,,1,,,82,64
223701,note_on,,,,,108,0,0,,,1,,,81,122
223702,note_on,,,,,1,0,0,,,4,,,61,127
223715,note_off,,,,,13,0,0,,,4,,,62,64
223716,note_off,,,,,1,0,0,,,1,,,83,64
223826,note_on,,,,,110,0,0,,,4,,,59,127
223826,note_on,,,,,0,0,0,,,1,,,80,122
223840,note_off,,,,,14,0,0,,,4,,,61,64
223840,note_off,,,,,0,0,0,,,1,,,81,64
223953,note_on,,,,,113,0,0,,,2,,,76,127
223966,note_off,,,,,13,0,0,,,4,,,59,64
223967,note_off,,,,,1,0,0,,,1,,,80,64
224201,note_on,,,,,234,0,0,,,2,,,69,126
224202,note_on,,,,,1,0,0,,,4,,,61,127
224202,note_on,,,,,0,0,0,,,4,,,64,124
224244,note_on,,,,,42,0,0,,,1,,,78,122
224276,note_off,,,,,32,0,0,,,2,,,76,64
224292,note_on,,,,,16,0,0,,,1,,,80,122
224303,note_off,,,,,11,0,0,,,1,,,78,64
224336,note_on,,,,,33,0,0,,,1,,,81,122
224347,note_off,,,,,11,0,0,,,1,,,80,64
224380,note_on,,,,,33,0,0,,,1,,,83,122
224391,note_off,,,,,11,0,0,,,1,,,81,64
224424,note_on,,,,,33,0,0,,,1,,,85,126
224436,note_off,,,,,12,0,0,,,1,,,83,64
224468,note_on,,,,,32,0,0,,,1,,,86,126
224469,note_on,,,,,1,0,0,,,4,,,62,127
224469,note_on,,,,,0,0,0,,,2,,,68,126
224470,note_on,,,,,1,0,0,,,4,,,59,127
224472,note_off,,,,,2,0,0,,,4,,,64,64
224472,note_off,,,,,0,0,0,,,4,,,61,64
224473,note_off,,,,,1,0,0,,,2,,,69,64
224479,note_off,,,,,6,0,0,,,1,,,85,64
224678,note_off,,,,,199,0,0,,,1,,,86,64
224688,note_on,,,,,10,0,0,,,2,,,74,127
224719,note_on,,,,,31,0,0,,,2,,,73,127
224723,note_off,,,,,4,0,0,,,2,,,74,64
224970,note_off,,,,,247,0,0,,,4,,,59,64
224971,note_off,,,,,1,0,0,,,2,,,68,64
224971,note_off,,,,,0,0,0,,,4,,,62,64
224972,note_on,,,,,1,0,0,,,4,,,61,127
224972,note_on,,,,,0,0,0,,,4,,,64,124
224973,note_on,,,,,1,0,0,,,4,,,57,127
225010,note_off,,,,,37,0,0,,,2,,,73,64
225012,note_on,,,,,2,0,0,,,2,,,74,127
225060,note_off,,,,,48,0,0,,,2,,,74,64
225060,note_on,,,,,0,0,0,,,2,,,76,125
225108,note_off,,,,,48,0,0,,,2,,,76,64
225109,note_on,,,,,1,0,0,,,1,,,78,122
225154,note_off,,,,,45,0,0,,,1,,,78,64
225154,note_on,,,,,0,0,0,,,1,,,80,122
225199,note_off,,,,,45,0,0,,,1,,,80,64
225199,note_on,,,,,0,0,0,,,1,,,81,122
225242,note_off,,,,,43,0,0,,,1,,,81,64
225242,note_on,,,,,0,0,0,,,1,,,83,126
225243,note_on,,,,,1,0,0,,,4,,,52,127
225243,note_on,,,,,0,0,0,,,4,,,56,127
225244,note_on,,,,,1,0,0,,,4,,,50,127
225246,note_off,,,,,2,0,0,,,4,,,61,64
225246,note_off,,,,,0,0,0,,,4,,,57,64
225247,note_off,,,,,1,0,0,,,4,,,64,64
225464,note_off,,,,,217,0,0,,,1,,,83,64
225464,note_on,,,,,0,0,0,,,1,,,80,122
225493,note_on,,,,,29,0,0,,,1,,,83,126
225505,note_off,,,,,12,0,0,,,1,,,80,64
225559,note_on,,,,,54,0,0,,,1,,,81,122
225561,note_off,,,,,2,0,0,,,1,,,83,64
225618,note_off,,,,,57,0,0,,,4,,,52,64
225622,note_off,,,,,4,0,0,,,4,,,50,64
225623,note_off,,,,,1,0,0,,,4,,,56,64
225623,note_on,,,,,0,0,0,,,4,,,57,127
225624,note_on,,,,,1,0,0,,,4,,,49,127
225624,note_on,,,,,0,0,0,,,4,,,52,127
225720,note_off,,,,,96,0,0,,,1,,,81,64
225720,note_on,,,,,0,0,0,,,2,,,76,125
225752,note_on,,,,,32,0,0,,,1,,,79,122
225762,note_off,,,,,10,0,0,,,2,,,76,64
225816,note_on,,,,,54,0,0,,,1,,,78,122
225821,note_off,,,,,5,0,0,,,1,,,79,64
225869,note_off,,,,,48,0,0,,,4,,,57,64
225880,note_on,,,,,11,0,0,,,4,,,57,127
225881,note_on,,,,,1,0,0,,,4,,,50,127
225881,note_on,,,,,0,0,0,,,4,,,54,127
225885,note_off,,,,,4,0,0,,,4,,,49,64
225886,note_off,,,,,1,0,0,,,4,,,52,64
225977,note_off,,,,,91,0,0,,,1,,,78,64
225977,note_on,,,,,0,0,0,,,2,,,73,127
226008,note_on,,,,,31,0,0,,,2,,,76,125
226020,note_off,,,,,12,0,0,,,2,,,73,64
226074,note_on,,,,,54,0,0,,,2,,,74,127
226075,note_off,,,,,1,0,0,,,2,,,76,64
226128,note_off,,,,,53,0,0,,,4,,,57,64
226128,note_off,,,,,0,0,0,,,4,,,54,64
226138,note_on,,,,,10,0,0,,,4,,,62,127
226139,note_on,,,,,1,0,0,,,4,,,54,127
226139,note_on,,,,,0,0,0,,,4,,,57,127
226235,note_off,,,,,96,0,0,,,2,,,74,64
226236,note_on,,,,,1,0,0,,,2,,,69,126
226267,note_on,,,,,31,0,0,,,2,,,73,127
226272,note_off,,,,,5,0,0,,,2,,,69,64
226326,note_off,,,,,54,0,0,,,2,,,73,64
226328,note_on,,,,,2,0,0,,,2,,,71,127
226384,note_off,,,,,56,0,0,,,4,,,62,64
226395,note_off,,,,,11,0,0,,,4,,,50,64
226396,note_on,,,,,1,0,0,,,4,,,52,127
226396,note_on,,,,,0,0,0,,,4,,,62,127
226461,note_on,,,,,65,0,0,,,2,,,68,126
226472,note_off,,,,,11,0,0,,,2,,,71,64
226518,note_off,,,,,46,0,0,,,2,,,68,64
226519,note_off,,,,,1,0,0,,,4,,,62,64
226523,note_off,,,,,4,0,0,,,4,,,57,64
226523,note_off,,,,,0,0,0,,,4,,,54,64
226530,note_on,,,,,7,0,0,,,4,,,62,127
226530,note_on,,,,,0,0,0,,,2,,,68,126
226531,note_on,,,,,1,0,0,,,4,,,57,127
226652,note_off,,,,,121,0,0,,,4,,,52,64
226663,note_on,,,,,11,0,0,,,4,,,52,127
226807,note_on,,,,,144,0,0,,,2,,,69,126
226808,note_on,,,,,1,0,0,,,4,,,45,127
226808,note_on,,,,,0,0,0,,,4,,,61,127
226814,note_off,,,,,6,0,0,,,2,,,68,64
226814,note_off,,,,,0,0,0,,,4,,,62,64
226814,note_off,,,,,0,0,0,,,4,,,57,64
226946,note_off,,,,,132,0,0,,,4,,,52,64
226960,note_on,,,,,14,0,0,,,4,,,65,126
226975,note_off,,,,,15,0,0,,,4,,,61,64
226976,note_off,,,,,1,0,0,,,2,,,69,64
227118,note_on,,,,,142,0,0,,,4,,,66,126
227119,note_on,,,,,1,0,0,,,4,,,54,125
227121,note_off,,,,,2,0,0,,,4,,,45,64
227133,note_off,,,,,12,0,0,,,4,,,65,64
227183,note_on,,,,,50,0,0,,,4,,,61,127
227248,note_on,,,,,65,0,0,,,4,,,57,125
227263,note_off,,,,,15,0,0,,,4,,,54,64
227311,note_off,,,,,48,0,0,,,4,,,61,64
227315,note_on,,,,,4,0,0,,,4,,,61,127
227384,note_on,,,,,69,0,0,,,4,,,54,125
227398,note_off,,,,,14,0,0,,,4,,,57,64
227403,note_off,,,,,5,0,0,,,4,,,66,64
227451,note_off,,,,,48,0,0,,,4,,,61,64
227453,note_on,,,,,2,0,0,,,2,,,73,117
227455,note_on,,,,,2,0,0,,,4,,,61,127
227501,note_off,,,,,46,0,0,,,2,,,73,64
227524,note_on,,,,,23,0,0,,,2,,,73,117
227525,note_on,,,,,1,0,0,,,4,,,57,125
227539,note_off,,,,,14,0,0,,,4,,,54,64
227568,note_off,,,,,29,0,0,,,2,,,73,64
227588,note_off,,,,,20,0,0,,,4,,,61,64
227588,note_on,,,,,0,0,0,,,2,,,73,117
227590,note_on,,,,,2,0,0,,,4,,,61,127
227634,note_off,,,,,44,0,0,,,2,,,73,64
227657,note_on,,,,,23,0,0,,,4,,,54,125
227657,note_on,,,,,0,0,0,,,2,,,73,117
227673,note_off,,,,,16,0,0,,,4,,,57,64
227702,note_off,,,,,29,0,0,,,2,,,73,64
227721,note_off,,,,,19,0,0,,,4,,,61,64
227725,note_on,,,,,4,0,0,,,4,,,61,127
227725,note_on,,,,,0,0,0,,,2,,,73,127
227770,note_off,,,,,45,0,0,,,2,,,73,64
227791,note_on,,,,,21,0,0,,,2,,,73,127
227793,note_on,,,,,2,0,0,,,4,,,57,125
227807,note_off,,,,,14,0,0,,,4,,,54,64
227837,note_off,,,,,30,0,0,,,2,,,73,64
227858,note_off,,,,,21,0,0,,,4,,,61,64
227859,note_on,,,,,1,0,0,,,2,,,73,127
227860,note_on,,,,,1,0,0,,,4,,,61,127
227914,note_off,,,,,54,0,0,,,2,,,73,64
227926,note_on,,,,,12,0,0,,,2,,,74,122
227928,note_on,,,,,2,0,0,,,4,,,53,125
227947,note_off,,,,,19,0,0,,,4,,,57,64
227966,note_on,,,,,19,0,0,,,2,,,73,122
227972,note_off,,,,,6,0,0,,,2,,,74,64
228000,note_off,,,,,28,0,0,,,4,,,61,64
228002,note_on,,,,,2,0,0,,,2,,,74,122
228004,note_on,,,,,2,0,0,,,4,,,59,127
228008,note_off,,,,,4,0,0,,,2,,,73,64
228039,note_on,,,,,31,0,0,,,2,,,73,122
228045,note_off,,,,,6,0,0,,,2,,,74,64
228075,note_on,,,,,30,0,0,,,2,,,74,119
228076,note_on,,,,,1,0,0,,,4,,,56,125
228080,note_off,,,,,4,0,0,,,2,,,73,64
228094,note_off,,,,,14,0,0,,,4,,,53,64
228113,note_on,,,,,19,0,0,,,2,,,73,124
228117,note_off,,,,,4,0,0,,,2,,,74,64
228148,note_off,,,,,31,0,0,,,4,,,59,64
228151,note_on,,,,,3,0,0,,,2,,,71,123
228152,note_on,,,,,1,0,0,,,4,,,59,127
228156,note_off,,,,,4,0,0,,,2,,,73,64
228187,note_on,,,,,31,0,0,,,2,,,73,124
228191,note_off,,,,,4,0,0,,,2,,,71,64
228223,note_on,,,,,32,0,0,,,4,,,53,125
228239,note_off,,,,,16,0,0,,,4,,,56,64
228267,note_off,,,,,28,0,0,,,2,,,73,64
228287,note_off,,,,,20,0,0,,,4,,,59,64
228290,note_on,,,,,3,0,0,,,2,,,73,127
228291,note_on,,,,,1,0,0,,,4,,,59,127
228336,note_off,,,,,45,0,0,,,2,,,73,64
228359,note_on,,,,,23,0,0,,,2,,,73,127
228360,note_on,,,,,1,0,0,,,4,,,56,125
228375,note_off,,,,,15,0,0,,,4,,,53,64
228406,note_off,,,,,31,0,0,,,2,,,73,64
228427,note_off,,,,,21,0,0,,,4,,,59,64
228429,note_on,,,,,2,0,0,,,2,,,73,127
228430,note_on,,,,,1,0,0,,,4,,,59,127
228475,note_off,,,,,45,0,0,,,2,,,73,64
228498,note_on,,,,,23,0,0,,,2,,,73,127
228499,note_on,,,,,1,0,0,,,4,,,53,125
228513,note_off,,,,,14,0,0,,,4,,,56,64
228544,note_off,,,,,31,0,0,,,2,,,73,64
228565,note_off,,,,,21,0,0,,,4,,,59,64
228567,note_on,,,,,2,0,0,,,2,,,73,127
228569,note_on,,,,,2,0,0,,,4,,,59,127
228613,note_off,,,,,44,0,0,,,2,,,73,64
228636,note_on,,,,,23,0,0,,,2,,,73,127
228638,note_on,,,,,2,0,0,,,4,,,56,125
228651,note_off,,,,,13,0,0,,,4,,,53,64
228681,note_off,,,,,30,0,0,,,2,,,73,64
228702,note_off,,,,,21,0,0,,,4,,,59,64
228704,note_on,,,,,2,0,0,,,2,,,73,127
228705,note_on,,,,,1,0,0,,,4,,,59,127
228767,note_off,,,,,62,0,0,,,2,,,73,64
228773,note_on,,,,,6,0,0,,,2,,,74,122
228775,note_on,,,,,2,0,0,,,4,,,52,125
228793,note_off,,,,,18,0,0,,,4,,,56,64
228813,note_on,,,,,20,0,0,,,2,,,73,122
228816,note_off,,,,,3,0,0,,,2,,,74,64
228847,note_off,,,,,31,0,0,,,4,,,59,64
228852,note_on,,,,,5,0,0,,,4,,,58,124
228852,note_on,,,,,0,0,0,,,2,,,74,122
228856,note_off,,,,,4,0,0,,,2,,,73,64
228888,note_on,,,,,32,0,0,,,2,,,73,119
228891,note_off,,,,,3,0,0,,,2,,,74,64
228926,note_on,,,,,35,0,0,,,2,,,74,119
228927,note_on,,,,,1,0,0,,,4,,,55,125
228932,note_off,,,,,5,0,0,,,2,,,73,64
228944,note_off,,,,,12,0,0,,,4,,,52,64
228965,note_on,,,,,21,0,0,,,2,,,73,119
228970,note_off,,,,,5,0,0,,,2,,,74,64
229000,note_off,,,,,30,0,0,,,4,,,58,64
229002,note_on,,,,,2,0,0,,,2,,,71,123
229004,note_on,,,,,2,0,0,,,4,,,58,124
229008,note_off,,,,,4,0,0,,,2,,,73,64
229039,note_on,,,,,31,0,0,,,2,,,73,124
229043,note_off,,,,,4,0,0,,,2,,,71,64
229073,note_on,,,,,30,0,0,,,4,,,52,125
229089,note_off,,,,,16,0,0,,,4,,,55,64
229117,note_off,,,,,28,0,0,,,2,,,73,64
229139,note_off,,,,,22,0,0,,,4,,,58,64
229140,note_on,,,,,1,0,0,,,2,,,73,127
229142,note_on,,,,,2,0,0,,,4,,,58,124
229187,note_off,,,,,45,0,0,,,2,,,73,64
229210,note_on,,,,,23,0,0,,,2,,,73,127
229210,note_on,,,,,0,0,0,,,4,,,55,125
229226,note_off,,,,,16,0,0,,,4,,,52,64
229255,note_off,,,,,29,0,0,,,2,,,73,64
229274,note_off,,,,,19,0,0,,,4,,,58,64
229276,note_on,,,,,2,0,0,,,2,,,73,127
229278,note_on,,,,,2,0,0,,,4,,,58,124
229324,note_off,,,,,46,0,0,,,2,,,73,64
229347,note_on,,,,,23,0,0,,,2,,,73,127
229349,note_on,,,,,2,0,0,,,4,,,52,125
229364,note_off,,,,,15,0,0,,,4,,,55,64
229395,note_off,,,,,31,0,0,,,2,,,73,64
229414,note_off,,,,,19,0,0,,,4,,,58,64
229418,note_on,,,,,4,0,0,,,4,,,58,124
229418,note_on,,,,,0,0,0,,,2,,,73,127
229463,note_off,,,,,45,0,0,,,2,,,73,64
229488,note_on,,,,,25,0,0,,,2,,,73,127
229488,note_on,,,,,0,0,0,,,4,,,55,125
229503,note_off,,,,,15,0,0,,,4,,,52,64
229534,note_off,,,,,31,0,0,,,2,,,73,64
229555,note_off,,,,,21,0,0,,,4,,,58,64
229557,note_on,,,,,2,0,0,,,2,,,73,127
229559,note_on,,,,,2,0,0,,,4,,,58,124
229628,note_on,,,,,69,0,0,,,1,,,78,124
229629,note_on,,,,,1,0,0,,,4,,,51,125
229639,note_off,,,,,10,0,0,,,2,,,73,64
229644,note_off,,,,,5,0,0,,,4,,,55,64
229696,note_off,,,,,52,0,0,,,4,,,58,64
229698,note_on,,,,,2,0,0,,,4,,,59,127
229769,note_on,,,,,71,0,0,,,4,,,54,125
229785,note_off,,,,,16,0,0,,,4,,,51,64
229812,note_off,,,,,27,0,0,,,1,,,78,64
229836,note_off,,,,,24,0,0,,,4,,,59,64
229840,note_on,,,,,4,0,0,,,2,,,75,127
229841,note_on,,,,,1,0,0,,,4,,,59,127
229908,note_off,,,,,67,0,0,,,2,,,75,64
229910,note_on,,,,,2,0,0,,,2,,,71,127
229911,note_on,,,,,1,0,0,,,4,,,51,125
229927,note_off,,,,,16,0,0,,,4,,,54,64
229977,note_off,,,,,50,0,0,,,4,,,59,64
229980,note_on,,,,,3,0,0,,,4,,,59,127
230052,note_off,,,,,72,0,0,,,4,,,51,64
230055,note_on,,,,,3,0,0,,,4,,,51,125
230121,note_off,,,,,66,0,0,,,4,,,59,64
230124,note_on,,,,,3,0,0,,,4,,,59,127
230192,note_off,,,,,68,0,0,,,4,,,51,64
230196,note_on,,,,,4,0,0,,,4,,,51,125
230261,note_off,,,,,65,0,0,,,4,,,59,64
230263,note_on,,,,,2,0,0,,,4,,,59,127
230334,note_on,,,,,71,0,0,,,4,,,54,125
230349,note_off,,,,,15,0,0,,,4,,,51,64
230399,note_off,,,,,50,0,0,,,4,,,59,64
230403,note_on,,,,,4,0,0,,,4,,,59,127
230470,note_off,,,,,67,0,0,,,2,,,71,64
230471,note_on,,,,,1,0,0,,,1,,,81,127
230471,note_on,,,,,0,0,0,,,4,,,50,125
230483,note_off,,,,,12,0,0,,,4,,,54,64
230532,note_off,,,,,49,0,0,,,4,,,59,64
230537,note_on,,,,,5,0,0,,,4,,,60,127
230602,note_on,,,,,65,0,0,,,4,,,54,125
230617,note_off,,,,,15,0,0,,,4,,,50,64
230661,note_off,,,,,44,0,0,,,1,,,81,64
230667,note_off,,,,,6,0,0,,,4,,,60,64
230671,note_on,,,,,4,0,0,,,1,,,78,126
230671,note_on,,,,,0,0,0,,,4,,,60,127
230743,note_on,,,,,72,0,0,,,2,,,72,127
230744,note_on,,,,,1,0,0,,,4,,,50,125
230748,note_off,,,,,4,0,0,,,1,,,78,64
230757,note_off,,,,,9,0,0,,,4,,,54,64
230807,note_off,,,,,50,0,0,,,4,,,60,64
230811,note_on,,,,,4,0,0,,,4,,,60,127
230880,note_on,,,,,69,0,0,,,4,,,54,125
230894,note_off,,,,,14,0,0,,,4,,,50,64
230947,note_off,,,,,53,0,0,,,4,,,60,64
230952,note_on,,,,,5,0,0,,,4,,,60,127
231023,note_on,,,,,71,0,0,,,4,,,50,125
231038,note_off,,,,,15,0,0,,,4,,,54,64
231086,note_off,,,,,48,0,0,,,4,,,60,64
231089,note_on,,,,,3,0,0,,,4,,,57,125
231146,note_off,,,,,57,0,0,,,2,,,72,64
231160,note_on,,,,,14,0,0,,,2,,,72,127
231160,note_on,,,,,0,0,0,,,4,,,54,125
231172,note_off,,,,,12,0,0,,,4,,,57,64
231176,note_off,,,,,4,0,0,,,4,,,50,64
231232,note_on,,,,,56,0,0,,,4,,,57,125
231243,note_off,,,,,11,0,0,,,4,,,54,64
231300,note_off,,,,,57,0,0,,,4,,,57,64
231309,note_off,,,,,9,0,0,,,2,,,72,64
231309,note_on,,,,,0,0,0,,,2,,,73,127
231310,note_on,,,,,1,0,0,,,4,,,49,125
231310,note_on,,,,,0,0,0,,,4,,,53,125
231379,note_on,,,,,69,0,0,,,4,,,61,127
231456,note_off,,,,,77,0,0,,,4,,,61,64
231457,note_on,,,,,1,0,0,,,4,,,60,127
231498,note_off,,,,,41,0,0,,,2,,,73,64
231532,note_off,,,,,34,0,0,,,4,,,60,64
231533,note_on,,,,,1,0,0,,,4,,,61,127
231600,note_off,,,,,67,0,0,,,4,,,61,64
231601,note_on,,,,,1,0,0,,,4,,,60,127
231672,note_off,,,,,71,0,0,,,4,,,60,64
231673,note_on,,,,,1,0,0,,,4,,,61,127
231741,note_off,,,,,68,0,0,,,4,,,61,64
231741,note_on,,,,,0,0,0,,,4,,,60,127
231813,note_off,,,,,72,0,0,,,4,,,60,64
231813,note_on,,,,,0,0,0,,,4,,,61,127
231877,note_off,,,,,64,0,0,,,4,,,61,64
231877,note_on,,,,,0,0,0,,,4,,,60,127
231951,note_off,,,,,74,0,0,,,4,,,60,64
231951,note_on,,,,,0,0,0,,,4,,,61,127
232015,note_off,,,,,64,0,0,,,4,,,61,64
232016,note_on,,,,,1,0,0,,,4,,,60,127
232087,note_off,,,,,71,0,0,,,4,,,60,64
232088,note_on,,,,,1,0,0,,,4,,,61,127
232157,note_off,,,,,69,0,0,,,4,,,61,64
232158,note_off,,,,,1,0,0,,,4,,,53,64
232158,note_off,,,,,0,0,0,,,4,,,49,64
232159,note_on,,,,,1,0,0,,,4,,,62,127
232159,note_on,,,,,0,0,0,,,4,,,50,127
232228,note_on,,,,,69,0,0,,,4,,,57,127
232299,note_on,,,,,71,0,0,,,4,,,52,127
232315,note_off,,,,,16,0,0,,,4,,,50,64
232367,note_off,,,,,52,0,0,,,4,,,57,64
232370,note_on,,,,,3,0,0,,,4,,,57,127
232441,note_on,,,,,71,0,0,,,4,,,54,127
232457,note_off,,,,,16,0,0,,,4,,,52,64
232509,note_off,,,,,52,0,0,,,4,,,57,64
232512,note_on,,,,,3,0,0,,,4,,,57,127
232580,note_off,,,,,68,0,0,,,4,,,62,64
232582,note_on,,,,,2,0,0,,,4,,,61,127
232582,note_on,,,,,0,0,0,,,4,,,55,127
232600,note_off,,,,,18,0,0,,,4,,,54,64
232602,note_on,,,,,2,0,0,,,4,,,62,127
232613,note_off,,,,,11,0,0,,,4,,,61,64
232631,note_on,,,,,18,0,0,,,4,,,61,127
232637,note_off,,,,,6,0,0,,,4,,,62,64
232662,note_off,,,,,25,0,0,,,4,,,57,64
232666,note_on,,,,,4,0,0,,,4,,,57,127
232733,note_off,,,,,67,0,0,,,4,,,61,64
232734,note_on,,,,,1,0,0,,,4,,,54,127
232734,note_on,,,,,0,0,0,,,4,,,62,127
232748,note_off,,,,,14,0,0,,,4,,,55,64
232800,note_off,,,,,52,0,0,,,4,,,57,64
232803,note_on,,,,,3,0,0,,,4,,,57,127
232874,note_off,,,,,71,0,0,,,4,,,62,64
232874,note_on,,,,,0,0,0,,,4,,,55,127
232874,note_on,,,,,0,0,0,,,4,,,61,127
232894,note_off,,,,,20,0,0,,,4,,,54,64
232896,note_on,,,,,2,0,0,,,4,,,62,127
232908,note_off,,,,,12,0,0,,,4,,,61,64
232924,note_on,,,,,16,0,0,,,4,,,61,127
232930,note_off,,,,,6,0,0,,,4,,,62,64
232955,note_off,,,,,25,0,0,,,4,,,57,64
232959,note_on,,,,,4,0,0,,,4,,,57,127
233028,note_off,,,,,69,0,0,,,4,,,61,64
233029,note_on,,,,,1,0,0,,,4,,,54,127
233029,note_on,,,,,0,0,0,,,4,,,62,127
233044,note_off,,,,,15,0,0,,,4,,,55,64
233096,note_off,,,,,52,0,0,,,4,,,57,64
233100,note_on,,,,,4,0,0,,,4,,,57,127
233160,note_off,,,,,60,0,0,,,4,,,62,64
233169,note_on,,,,,9,0,0,,,4,,,64,124
233170,note_on,,,,,1,0,0,,,4,,,49,127
233189,note_off,,,,,19,0,0,,,4,,,54,64
233191,note_on,,,,,2,0,0,,,4,,,66,126
233205,note_off,,,,,14,0,0,,,4,,,64,64
233220,note_on,,,,,15,0,0,,,4,,,64,124
233232,note_off,,,,,12,0,0,,,4,,,66,64
233251,note_off,,,,,19,0,0,,,4,,,57,64
233253,note_on,,,,,2,0,0,,,4,,,57,127
233322,note_off,,,,,69,0,0,,,4,,,64,64
233323,note_on,,,,,1,0,0,,,4,,,66,126
233323,note_on,,,,,0,0,0,,,4,,,50,127
233337,note_off,,,,,14,0,0,,,4,,,49,64
233386,note_off,,,,,49,0,0,,,4,,,57,64
233388,note_on,,,,,2,0,0,,,4,,,57,127
233453,note_off,,,,,65,0,0,,,4,,,66,64
233458,note_on,,,,,5,0,0,,,4,,,52,127
233458,note_on,,,,,0,0,0,,,2,,,69,126
233473,note_off,,,,,15,0,0,,,4,,,50,64
233523,note_off,,,,,50,0,0,,,4,,,57,64
233526,note_on,,,,,3,0,0,,,2,,,67,126
233526,note_on,,,,,0,0,0,,,4,,,57,127
233538,note_off,,,,,12,0,0,,,2,,,69,64
233592,note_on,,,,,54,0,0,,,4,,,66,126
233592,note_on,,,,,0,0,0,,,4,,,50,127
233596,note_off,,,,,4,0,0,,,2,,,67,64
233608,note_off,,,,,12,0,0,,,4,,,52,64
233658,note_off,,,,,50,0,0,,,4,,,57,64
233662,note_on,,,,,4,0,0,,,4,,,57,127
233733,note_on,,,,,71,0,0,,,4,,,64,124
233734,note_on,,,,,1,0,0,,,4,,,49,127
233748,note_off,,,,,14,0,0,,,4,,,50,64
233748,note_off,,,,,0,0,0,,,4,,,66,64
233801,note_off,,,,,53,0,0,,,4,,,57,64
233805,note_on,,,,,4,0,0,,,4,,,57,127
233868,note_off,,,,,63,0,0,,,4,,,64,64
233880,note_on,,,,,12,0,0,,,4,,,64,124
233880,note_on,,,,,0,0,0,,,4,,,45,127
233894,note_off,,,,,14,0,0,,,4,,,49,64
233942,note_off,,,,,48,0,0,,,4,,,57,64
233946,note_on,,,,,4,0,0,,,4,,,57,127
234017,note_on,,,,,71,0,0,,,4,,,47,127
234033,note_off,,,,,16,0,0,,,4,,,45,64
234082,note_off,,,,,49,0,0,,,4,,,57,64
234085,note_on,,,,,3,0,0,,,4,,,57,127
234156,note_on,,,,,71,0,0,,,4,,,49,127
234172,note_off,,,,,16,0,0,,,4,,,47,64
234222,note_off,,,,,50,0,0,,,4,,,57,64
234226,note_on,,,,,4,0,0,,,4,,,57,127
234289,note_off,,,,,63,0,0,,,4,,,64,64
234295,note_on,,,,,6,0,0,,,4,,,64,124
234295,note_on,,,,,0,0,0,,,4,,,47,127
234311,note_off,,,,,16,0,0,,,4,,,49,64
234326,note_off,,,,,15,0,0,,,4,,,64,64
234332,note_on,,,,,6,0,0,,,4,,,63,127
234359,note_off,,,,,27,0,0,,,4,,,63,64
234367,note_off,,,,,8,0,0,,,4,,,57,64
234371,note_on,,,,,4,0,0,,,4,,,57,127
234371,note_on,,,,,0,0,0,,,4,,,64,124
234398,note_off,,,,,27,0,0,,,4,,,64,64
234404,note_on,,,,,6,0,0,,,4,,,63,127
234429,note_off,,,,,25,0,0,,,4,,,63,64
234435,note_on,,,,,6,0,0,,,4,,,49,127
234435,note_on,,,,,0,0,0,,,4,,,64,124
234451,note_off,,,,,16,0,0,,,4,,,47,64
234497,note_off,,,,,46,0,0,,,4,,,57,64
234501,note_on,,,,,4,0,0,,,4,,,57,127
234568,note_on,,,,,67,0,0,,,4,,,63,127
234569,note_on,,,,,1,0,0,,,4,,,47,127
234575,note_off,,,,,6,0,0,,,4,,,64,64
234588,note_off,,,,,13,0,0,,,4,,,49,64
234589,note_on,,,,,1,0,0,,,4,,,64,124
234598,note_off,,,,,9,0,0,,,4,,,63,64
234613,note_on,,,,,15,0,0,,,4,,,63,127
234619,note_off,,,,,6,0,0,,,4,,,64,64
234646,note_off,,,,,27,0,0,,,4,,,57,64
234650,note_on,,,,,4,0,0,,,4,,,57,127
234721,note_off,,,,,71,0,0,,,4,,,63,64
234721,note_on,,,,,0,0,0,,,4,,,64,124
234722,note_on,,,,,1,0,0,,,4,,,49,127
234737,note_off,,,,,15,0,0,,,4,,,47,64
234789,note_off,,,,,52,0,0,,,4,,,57,64
234793,note_on,,,,,4,0,0,,,4,,,57,127
234862,note_on,,,,,69,0,0,,,4,,,66,126
234863,note_on,,,,,1,0,0,,,4,,,50,127
234865,note_off,,,,,2,0,0,,,4,,,64,64
234880,note_off,,,,,15,0,0,,,4,,,66,64
234881,note_off,,,,,1,0,0,,,4,,,49,64
234883,note_on,,,,,2,0,0,,,2,,,67,126
234900,note_off,,,,,17,0,0,,,2,,,67,64
234906,note_on,,,,,6,0,0,,,4,,,66,126
234937,note_off,,,,,31,0,0,,,4,,,57,64
234939,note_on,,,,,2,0,0,,,4,,,57,127
235012,note_off,,,,,73,0,0,,,4,,,66,64
235012,note_on,,,,,0,0,0,,,2,,,67,126
235013,note_on,,,,,1,0,0,,,4,,,52,127
235026,note_off,,,,,13,0,0,,,4,,,50,64
235078,note_off,,,,,52,0,0,,,4,,,57,64
235082,note_on,,,,,4,0,0,,,4,,,57,127
235151,note_on,,,,,69,0,0,,,2,,,71,127
235152,note_on,,,,,1,0,0,,,4,,,54,127
235158,note_off,,,,,6,0,0,,,2,,,67,64
235165,note_off,,,,,7,0,0,,,4,,,52,64
235216,note_off,,,,,51,0,0,,,4,,,57,64
235220,note_on,,,,,4,0,0,,,2,,,69,126
235220,note_on,,,,,0,0,0,,,4,,,57,127
235224,note_off,,,,,4,0,0,,,2,,,71,64
235282,note_on,,,,,58,0,0,,,2,,,67,126
235283,note_on,,,,,1,0,0,,,4,,,52,127
235293,note_off,,,,,10,0,0,,,2,,,69,64
235296,note_off,,,,,3,0,0,,,4,,,54,64
235346,note_off,,,,,50,0,0,,,4,,,57,64
235348,note_on,,,,,2,0,0,,,4,,,57,127
235417,note_off,,,,,69,0,0,,,2,,,67,64
235419,note_on,,,,,2,0,0,,,4,,,50,127
235419,note_on,,,,,0,0,0,,,4,,,66,126
235431,note_off,,,,,12,0,0,,,4,,,52,64
235481,note_off,,,,,50,0,0,,,4,,,57,64
235486,note_on,,,,,5,0,0,,,4,,,57,127
235507,note_off,,,,,21,0,0,,,4,,,66,64
235522,note_on,,,,,15,0,0,,,4,,,66,126
235574,note_off,,,,,52,0,0,,,4,,,66,64
235578,note_on,,,,,4,0,0,,,4,,,66,126
235578,note_on,,,,,0,0,0,,,1,,,78,127
235697,note_off,,,,,119,0,0,,,1,,,78,64
235717,note_off,,,,,20,0,0,,,4,,,57,64
235720,note_off,,,,,3,0,0,,,4,,,50,64
235730,note_on,,,,,10,0,0,,,1,,,78,126
235731,note_on,,,,,1,0,0,,,4,,,57,127
235731,note_on,,,,,0,0,0,,,4,,,54,127
235732,note_on,,,,,1,0,0,,,4,,,50,127
235752,note_off,,,,,20,0,0,,,4,,,66,64
235863,note_off,,,,,111,0,0,,,4,,,50,64
235863,note_off,,,,,0,0,0,,,4,,,54,64
235864,note_off,,,,,1,0,0,,,4,,,57,64
235873,note_on,,,,,9,0,0,,,4,,,57,127
235874,note_on,,,,,1,0,0,,,4,,,50,127
235874,note_on,,,,,0,0,0,,,4,,,54,127
236002,note_on,,,,,128,0,0,,,2,,,76,127
236021,note_off,,,,,19,0,0,,,1,,,78,64
236035,note_on,,,,,14,0,0,,,2,,,74,127
236050,note_off,,,,,15,0,0,,,2,,,76,64
236131,note_on,,,,,81,0,0,,,2,,,73,127
236142,note_off,,,,,11,0,0,,,2,,,74,64
236163,note_on,,,,,21,0,0,,,2,,,71,127
236175,note_off,,,,,12,0,0,,,2,,,73,64
236267,note_on,,,,,92,0,0,,,2,,,70,126
236279,note_off,,,,,12,0,0,,,2,,,71,64
236302,note_off,,,,,23,0,0,,,2,,,70,64
236302,note_on,,,,,0,0,0,,,2,,,71,127
236408,note_on,,,,,106,0,0,,,4,,,62,127
236429,note_off,,,,,21,0,0,,,2,,,71,64
236447,note_on,,,,,18,0,0,,,2,,,74,127
236564,note_off,,,,,117,0,0,,,2,,,74,64
236568,note_off,,,,,4,0,0,,,4,,,57,64
236568,note_off,,,,,0,0,0,,,4,,,54,64
236568,note_off,,,,,0,0,0,,,4,,,50,64
236569,note_on,,,,,1,0,0,,,4,,,56,127
236569,note_on,,,,,0,0,0,,,2,,,74,127
236570,note_on,,,,,1,0,0,,,4,,,47,127
236570,note_on,,,,,0,0,0,,,4,,,52,127
236603,note_off,,,,,33,0,0,,,4,,,62,64
236697,note_off,,,,,94,0,0,,,4,,,47,64
236698,note_off,,,,,1,0,0,,,4,,,56,64
236698,note_off,,,,,0,0,0,,,4,,,52,64
236708,note_on,,,,,10,0,0,,,4,,,52,127
236708,note_on,,,,,0,0,0,,,4,,,56,127
236709,note_on,,,,,1,0,0,,,4,,,47,127
236803,note_off,,,,,94,0,0,,,2,,,74,64
236818,note_on,,,,,15,0,0,,,2,,,73,127
236851,note_on,,,,,33,0,0,,,2,,,71,127
236864,note_off,,,,,13,0,0,,,2,,,73,64
236950,note_on,,,,,86,0,0,,,2,,,69,126
236957,note_off,,,,,7,0,0,,,2,,,71,64
236983,note_on,,,,,26,0,0,,,2,,,68,126
236986,note_off,,,,,3,0,0,,,2,,,69,64
237082,note_off,,,,,96,0,0,,,2,,,68,64
237084,note_on,,,,,2,0,0,,,4,,,66,126
237119,note_on,,,,,35,0,0,,,4,,,64,124
237130,note_off,,,,,11,0,0,,,4,,,66,64
237257,note_off,,,,,127,0,0,,,4,,,64,64
237261,note_on,,,,,4,0,0,,,4,,,64,124
237389,note_on,,,,,128,0,0,,,2,,,76,127
237512,note_off,,,,,123,0,0,,,4,,,47,64
237513,note_off,,,,,1,0,0,,,4,,,56,64
237513,note_off,,,,,0,0,0,,,4,,,52,64
237514,note_off,,,,,1,0,0,,,4,,,64,64
237524,note_on,,,,,10,0,0,,,4,,,52,127
237524,note_on,,,,,0,0,0,,,4,,,57,127
237525,note_on,,,,,1,0,0,,,4,,,49,127
237648,note_off,,,,,123,0,0,,,2,,,76,64
237649,note_on,,,,,1,0,0,,,2,,,69,126
237771,note_off,,,,,122,0,0,,,4,,,57,64
237782,note_on,,,,,11,0,0,,,4,,,57,127
237782,note_on,,,,,0,0,0,,,1,,,81,126
237783,note_on,,,,,1,0,0,,,4,,,54,127
237785,note_off,,,,,2,0,0,,,4,,,52,64
237785,note_off,,,,,0,0,0,,,4,,,49,64
237900,note_off,,,,,115,0,0,,,2,,,69,64
237911,note_on,,,,,11,0,0,,,2,,,74,127
238034,note_off,,,,,123,0,0,,,1,,,81,64
238045,note_on,,,,,11,0,0,,,2,,,73,127
238058,note_off,,,,,13,0,0,,,2,,,74,64
238170,note_on,,,,,112,0,0,,,2,,,76,127
238183,note_off,,,,,13,0,0,,,2,,,73,64
238293,note_off,,,,,110,0,0,,,4,,,54,64
238294,note_off,,,,,1,0,0,,,4,,,57,64
238294,note_on,,,,,0,0,0,,,4,,,56,127
238295,note_on,,,,,1,0,0,,,4,,,52,127
238408,note_off,,,,,113,0,0,,,2,,,76,64
238412,note_on,,,,,4,0,0,,,2,,,75,127
238533,note_on,,,,,121,0,0,,,2,,,74,127
238534,note_on,,,,,1,0,0,,,4,,,40,127
238546,note_off,,,,,12,0,0,,,2,,,75,64
238655,note_on,,,,,109,0,0,,,2,,,71,127
238668,note_off,,,,,13,0,0,,,2,,,74,64
238780,note_off,,,,,112,0,0,,,4,,,56,64
238780,note_off,,,,,0,0,0,,,4,,,52,64
238781,note_on,,,,,1,0,0,,,4,,,57,127
238781,note_on,,,,,0,0,0,,,2,,,73,127
238791,note_off,,,,,10,0,0,,,4,,,40,64
238795,note_off,,,,,4,0,0,,,2,,,71,64
238844,note_on,,,,,49,0,0,,,2,,,76,121
238845,note_on,,,,,1,0,0,,,4,,,64,124
238855,note_off,,,,,10,0,0,,,2,,,73,64
238908,note_on,,,,,53,0,0,,,1,,,78,118
238909,note_on,,,,,1,0,0,,,4,,,61,127
238919,note_off,,,,,10,0,0,,,2,,,76,64
238921,note_off,,,,,2,0,0,,,4,,,57,64
238969,note_off,,,,,48,0,0,,,4,,,64,64
238971,note_on,,,,,2,0,0,,,4,,,64,124
238971,note_on,,,,,0,0,0,,,1,,,80,118
238981,note_off,,,,,10,0,0,,,1,,,78,64
239033,note_on,,,,,52,0,0,,,1,,,81,118
239034,note_on,,,,,1,0,0,,,4,,,57,127
239044,note_off,,,,,10,0,0,,,1,,,80,64
239046,note_off,,,,,2,0,0,,,4,,,61,64
239090,note_off,,,,,44,0,0,,,4,,,64,64
239094,note_on,,,,,4,0,0,,,1,,,83,118
239094,note_on,,,,,0,0,0,,,4,,,64,124
239102,note_off,,,,,8,0,0,,,1,,,81,64
239152,note_on,,,,,50,0,0,,,1,,,85,118
239153,note_on,,,,,1,0,0,,,4,,,61,127
239163,note_off,,,,,10,0,0,,,1,,,83,64
239167,note_off,,,,,4,0,0,,,4,,,57,64
239209,note_off,,,,,42,0,0,,,4,,,64,64
239213,note_on,,,,,4,0,0,,,4,,,64,124
239213,note_on,,,,,0,0,0,,,1,,,86,118
239221,note_off,,,,,8,0,0,,,1,,,85,64
239271,note_on,,,,,50,0,0,,,1,,,88,120
239272,note_on,,,,,1,0,0,,,4,,,57,127
239282,note_off,,,,,10,0,0,,,1,,,86,64
239284,note_off,,,,,2,0,0,,,4,,,61,64
239340,note_off,,,,,56,0,0,,,4,,,64,64
239341,note_on,,,,,1,0,0,,,1,,,85,118
239342,note_on,,,,,1,0,0,,,4,,,64,124
239350,note_off,,,,,8,0,0,,,1,,,88,64
239398,note_on,,,,,48,0,0,,,1,,,80,118
239399,note_on,,,,,1,0,0,,,4,,,61,127
239409,note_off,,,,,10,0,0,,,1,,,85,64
239410,note_off,,,,,1,0,0,,,4,,,57,64
239454,note_off,,,,,44,0,0,,,4,,,64,64
239458,note_on,,,,,4,0,0,,,4,,,64,124
239458,note_on,,,,,0,0,0,,,1,,,81,118
239468,note_off,,,,,10,0,0,,,1,,,80,64
239520,note_on,,,,,52,0,0,,,1,,,86,118
239520,note_on,,,,,0,0,0,,,4,,,59,127
239532,note_off,,,,,12,0,0,,,1,,,81,64
239536,note_off,,,,,4,0,0,,,4,,,61,64
239582,note_off,,,,,46,0,0,,,4,,,64,64
239586,note_on,,,,,4,0,0,,,1,,,83,118
239587,note_on,,,,,1,0,0,,,4,,,64,124
239595,note_off,,,,,8,0,0,,,1,,,86,64
239643,note_on,,,,,48,0,0,,,4,,,62,127
239643,note_on,,,,,0,0,0,,,1,,,78,118
239653,note_off,,,,,10,0,0,,,1,,,83,64
239657,note_off,,,,,4,0,0,,,4,,,59,64
239700,note_off,,,,,43,0,0,,,4,,,64,64
239701,note_on,,,,,1,0,0,,,1,,,80,118
239702,note_on,,,,,1,0,0,,,4,,,64,124
239712,note_off,,,,,10,0,0,,,1,,,78,64
239758,note_on,,,,,46,0,0,,,1,,,83,118
239759,note_on,,,,,1,0,0,,,4,,,56,127
239767,note_off,,,,,8,0,0,,,1,,,80,64
239771,note_off,,,,,4,0,0,,,4,,,62,64
239817,note_off,,,,,46,0,0,,,4,,,64,64
239820,note_on,,,,,3,0,0,,,1,,,80,118
239821,note_on,,,,,1,0,0,,,4,,,64,124
239829,note_off,,,,,8,0,0,,,1,,,83,64
239876,note_on,,,,,47,0,0,,,4,,,59,127
239876,note_on,,,,,0,0,0,,,2,,,75,121
239884,note_off,,,,,8,0,0,,,1,,,80,64
239888,note_off,,,,,4,0,0,,,4,,,56,64
239932,note_off,,,,,44,0,0,,,4,,,64,64
239936,note_on,,,,,4,0,0,,,4,,,64,124
239936,note_on,,,,,0,0,0,,,2,,,76,121
239946,note_off,,,,,10,0,0,,,2,,,75,64
239997,note_on,,,,,51,0,0,,,4,,,52,127
239997,note_on,,,,,0,0,0,,,1,,,78,118
240007,note_off,,,,,10,0,0,,,2,,,76,64
240011,note_off,,,,,4,0,0,,,4,,,59,64
240057,note_off,,,,,46,0,0,,,4,,,64,64
240060,note_on,,,,,3,0,0,,,2,,,74,121
240061,note_on,,,,,1,0,0,,,4,,,64,124
240071,note_off,,,,,10,0,0,,,1,,,78,64
240118,note_on,,,,,47,0,0,,,4,,,56,127
240118,note_on,,,,,0,0,0,,,2,,,70,126
240128,note_off,,,,,10,0,0,,,2,,,74,64
240130,note_off,,,,,2,0,0,,,4,,,52,64
240174,note_off,,,,,44,0,0,,,4,,,64,64
240176,note_on,,,,,2,0,0,,,2,,,71,127
240177,note_on,,,,,1,0,0,,,4,,,64,124
240187,note_off,,,,,10,0,0,,,2,,,70,64
240235,note_on,,,,,48,0,0,,,4,,,57,127
240235,note_on,,,,,0,0,0,,,2,,,73,127
240249,note_off,,,,,14,0,0,,,2,,,71,64
240251,note_off,,,,,2,0,0,,,4,,,56,64
240297,note_off,,,,,46,0,0,,,4,,,64,64
240301,note_on,,,,,4,0,0,,,2,,,76,121
240301,note_on,,,,,0,0,0,,,4,,,64,124
240309,note_off,,,,,8,0,0,,,2,,,73,64
240360,note_on,,,,,51,0,0,,,4,,,61,127
240360,note_on,,,,,0,0,0,,,1,,,78,118
240368,note_off,,,,,8,0,0,,,2,,,76,64
240372,note_off,,,,,4,0,0,,,4,,,57,64
240416,note_off,,,,,44,0,0,,,4,,,64,64
240418,note_on,,,,,2,0,0,,,1,,,80,118
240419,note_on,,,,,1,0,0,,,4,,,64,124
240429,note_off,,,,,10,0,0,,,1,,,78,64
240480,note_on,,,,,51,0,0,,,1,,,81,118
240481,note_on,,,,,1,0,0,,,4,,,57,127
240491,note_off,,,,,10,0,0,,,1,,,80,64
240496,note_off,,,,,5,0,0,,,4,,,61,64
240540,note_off,,,,,44,0,0,,,4,,,64,64
240542,note_on,,,,,2,0,0,,,1,,,83,118
240542,note_on,,,,,0,0,0,,,4,,,64,124
240552,note_off,,,,,10,0,0,,,1,,,81,64
240600,note_on,,,,,48,0,0,,,4,,,61,127
240600,note_on,,,,,0,0,0,,,1,,,85,118
240610,note_off,,,,,10,0,0,,,1,,,83,64
240612,note_off,,,,,2,0,0,,,4,,,57,64
240656,note_off,,,,,44,0,0,,,4,,,64,64
240660,note_on,,,,,4,0,0,,,4,,,64,124
240660,note_on,,,,,0,0,0,,,1,,,86,118
240669,note_off,,,,,9,0,0,,,1,,,85,64
240719,note_on,,,,,50,0,0,,,4,,,57,127
240719,note_on,,,,,0,0,0,,,1,,,88,120
240729,note_off,,,,,10,0,0,,,1,,,86,64
240731,note_off,,,,,2,0,0,,,4,,,61,64
240781,note_off,,,,,50,0,0,,,4,,,64,64
240785,note_on,,,,,4,0,0,,,1,,,85,118
240785,note_on,,,,,0,0,0,,,4,,,64,124
240795,note_off,,,,,10,0,0,,,1,,,88,64
240841,note_on,,,,,46,0,0,,,1,,,80,118
240842,note_on,,,,,1,0,0,,,4,,,61,127
240850,note_off,,,,,8,0,0,,,1,,,85,64
240854,note_off,,,,,4,0,0,,,4,,,57,64
240896,note_off,,,,,42,0,0,,,4,,,64,64
240900,note_on,,,,,4,0,0,,,4,,,64,124
240900,note_on,,,,,0,0,0,,,1,,,81,118
240911,note_off,,,,,11,0,0,,,1,,,80,64
240962,note_on,,,,,51,0,0,,,1,,,86,118
240963,note_on,,,,,1,0,0,,,4,,,59,127
240975,note_off,,,,,12,0,0,,,1,,,81,64
240979,note_off,,,,,4,0,0,,,4,,,61,64
241025,note_off,,,,,46,0,0,,,4,,,64,64
241027,note_on,,,,,2,0,0,,,1,,,83,118
241027,note_on,,,,,0,0,0,,,4,,,64,124
241037,note_off,,,,,10,0,0,,,1,,,86,64
241087,note_on,,,,,50,0,0,,,1,,,78,118
241088,note_on,,,,,1,0,0,,,4,,,62,127
241096,note_off,,,,,8,0,0,,,1,,,83,64
241100,note_off,,,,,4,0,0,,,4,,,59,64
241144,note_off,,,,,44,0,0,,,4,,,64,64
241148,note_on,,,,,4,0,0,,,4,,,64,124
241148,note_on,,,,,0,0,0,,,1,,,80,118
241158,note_off,,,,,10,0,0,,,1,,,78,64
241204,note_on,,,,,46,0,0,,,1,,,83,118
241205,note_on,,,,,1,0,0,,,4,,,56,127
241213,note_off,,,,,8,0,0,,,1,,,80,64
241215,note_off,,,,,2,0,0,,,4,,,62,64
241261,note_off,,,,,46,0,0,,,4,,,64,64
241263,note_on,,,,,2,0,0,,,1,,,80,118
241263,note_on,,,,,0,0,0,,,4,,,64,124
241272,note_off,,,,,9,0,0,,,1,,,83,64
241320,note_on,,,,,48,0,0,,,4,,,59,127
241320,note_on,,,,,0,0,0,,,2,,,75,121
241328,note_off,,,,,8,0,0,,,1,,,80,64
241332,note_off,,,,,4,0,0,,,4,,,56,64
241374,note_off,,,,,42,0,0,,,4,,,64,64
241376,note_on,,,,,2,0,0,,,2,,,76,121
241377,note_on,,,,,1,0,0,,,4,,,64,124
241385,note_off,,,,,8,0,0,,,2,,,75,64
241433,note_on,,,,,48,0,0,,,4,,,52,127
241433,note_on,,,,,0,0,0,,,1,,,78,118
241443,note_off,,,,,10,0,0,,,2,,,76,64
241445,note_off,,,,,2,0,0,,,4,,,59,64
241489,note_off,,,,,44,0,0,,,4,,,64,64
241493,note_on,,,,,4,0,0,,,2,,,74,121
241494,note_on,,,,,1,0,0,,,4,,,64,124
241504,note_off,,,,,10,0,0,,,1,,,78,64
241548,note_on,,,,,44,0,0,,,4,,,56,127
241548,note_on,,,,,0,0,0,,,2,,,70,126
241559,note_off,,,,,11,0,0,,,2,,,74,64
241560,note_off,,,,,1,0,0,,,4,,,52,64
241607,note_off,,,,,47,0,0,,,4,,,64,64
241608,note_on,,,,,1,0,0,,,2,,,71,127
241609,note_on,,,,,1,0,0,,,4,,,64,124
241619,note_off,,,,,10,0,0,,,2,,,70,64
241669,note_on,,,,,50,0,0,,,4,,,61,127
241669,note_on,,,,,0,0,0,,,2,,,73,127
241670,note_on,,,,,1,0,0,,,4,,,57,127
241680,note_off,,,,,10,0,0,,,4,,,64,64
241680,note_off,,,,,0,0,0,,,2,,,71,64
241682,note_off,,,,,2,0,0,,,4,,,56,64
241731,note_on,,,,,49,0,0,,,2,,,76,121
241742,note_off,,,,,11,0,0,,,2,,,73,64
241792,note_on,,,,,50,0,0,,,1,,,81,118
241803,note_off,,,,,11,0,0,,,2,,,76,64
241851,note_on,,,,,48,0,0,,,1,,,80,118
241863,note_off,,,,,12,0,0,,,1,,,81,64
241905,note_off,,,,,42,0,0,,,4,,,57,64
241909,note_off,,,,,4,0,0,,,1,,,80,64
241914,note_on,,,,,5,0,0,,,4,,,57,127
241914,note_on,,,,,0,0,0,,,1,,,80,118
241915,note_on,,,,,1,0,0,,,4,,,50,127
241920,note_off,,,,,5,0,0,,,4,,,61,64
241975,note_on,,,,,55,0,0,,,1,,,78,118
241985,note_off,,,,,10,0,0,,,1,,,80,64
242037,note_on,,,,,52,0,0,,,1,,,86,118
242047,note_off,,,,,10,0,0,,,1,,,78,64
242100,note_on,,,,,53,0,0,,,1,,,85,118
242110,note_off,,,,,10,0,0,,,1,,,86,64
242154,note_off,,,,,44,0,0,,,1,,,85,64
242158,note_on,,,,,4,0,0,,,4,,,54,127
242158,note_on,,,,,0,0,0,,,1,,,85,118
242159,note_on,,,,,1,0,0,,,4,,,51,127
242161,note_off,,,,,2,0,0,,,4,,,50,64
242162,note_off,,,,,1,0,0,,,4,,,57,64
242220,note_on,,,,,58,0,0,,,1,,,83,118
242232,note_off,,,,,12,0,0,,,1,,,85,64
242278,note_off,,,,,46,0,0,,,1,,,83,64
242284,note_on,,,,,6,0,0,,,1,,,83,118
242346,note_on,,,,,62,0,0,,,1,,,81,118
242355,note_off,,,,,9,0,0,,,1,,,83,64
242401,note_off,,,,,46,0,0,,,1,,,81,64
242406,note_on,,,,,5,0,0,,,4,,,56,127
242406,note_on,,,,,0,0,0,,,1,,,81,118
242407,note_on,,,,,1,0,0,,,4,,,52,127
242410,note_off,,,,,3,0,0,,,4,,,51,64
242411,note_off,,,,,1,0,0,,,4,,,54,64
242469,note_on,,,,,58,0,0,,,1,,,80,118
242479,note_off,,,,,10,0,0,,,1,,,81,64
242525,note_off,,,,,46,0,0,,,1,,,80,64
242532,note_on,,,,,7,0,0,,,1,,,80,118
242595,note_on,,,,,63,0,0,,,1,,,78,118
242604,note_off,,,,,9,0,0,,,1,,,80,64
242652,note_off,,,,,48,0,0,,,1,,,78,64
242656,note_on,,,,,4,0,0,,,1,,,78,118
242657,note_on,,,,,1,0,0,,,4,,,54,127
242657,note_on,,,,,0,0,0,,,4,,,57,127
242661,note_off,,,,,4,0,0,,,4,,,52,64
242662,note_off,,,,,1,0,0,,,4,,,56,64
242720,note_on,,,,,58,0,0,,,2,,,76,121
242729,note_off,,,,,9,0,0,,,1,,,78,64
242777,note_off,,,,,48,0,0,,,2,,,76,64
242783,note_on,,,,,6,0,0,,,2,,,76,121
242840,note_on,,,,,57,0,0,,,2,,,75,127
242847,note_off,,,,,7,0,0,,,2,,,76,64
243030,note_on,,,,,183,0,0,,,2,,,69,126
243030,note_on,,,,,0,0,0,,,1,,,78,122
243031,note_on,,,,,1,0,0,,,4,,,66,126
243053,note_off,,,,,22,0,0,,,2,,,75,64
243095,note_off,,,,,42,0,0,,,1,,,78,64
243096,note_on,,,,,1,0,0,,,2,,,76,125
243153,note_off,,,,,57,0,0,,,2,,,76,64
243159,note_on,,,,,6,0,0,,,2,,,76,125
243221,note_off,,,,,62,0,0,,,2,,,76,64
243221,note_on,,,,,0,0,0,,,2,,,75,125
243283,note_off,,,,,62,0,0,,,2,,,75,64
243284,note_on,,,,,1,0,0,,,2,,,71,127
243284,note_on,,,,,0,0,0,,,1,,,78,122
243285,note_on,,,,,1,0,0,,,2,,,68,126
243287,note_off,,,,,2,0,0,,,4,,,66,64
243288,note_off,,,,,1,0,0,,,2,,,69,64
243348,note_off,,,,,60,0,0,,,1,,,78,64
243348,note_on,,,,,0,0,0,,,2,,,76,125
243404,note_off,,,,,56,0,0,,,2,,,76,64
243410,note_on,,,,,6,0,0,,,2,,,76,125
243468,note_off,,,,,58,0,0,,,2,,,76,64
243468,note_on,,,,,0,0,0,,,2,,,74,125
243632,note_off,,,,,164,0,0,,,4,,,57,64
243632,note_off,,,,,0,0,0,,,4,,,54,64
243661,note_off,,,,,29,0,0,,,2,,,74,64
243662,note_off,,,,,1,0,0,,,2,,,71,64
243662,note_off,,,,,0,0,0,,,2,,,68,64
243663,note_on,,,,,1,0,0,,,2,,,72,125
243663,note_on,,,,,0,0,0,,,1,,,81,122
243664,note_on,,,,,1,0,0,,,2,,,69,126
243664,note_on,,,,,0,0,0,,,4,,,57,127
243741,note_off,,,,,77,0,0,,,2,,,69,64
243742,note_off,,,,,1,0,0,,,4,,,57,64
243742,note_on,,,,,0,0,0,,,2,,,67,126
243743,note_on,,,,,1,0,0,,,4,,,55,127
243799,note_off,,,,,56,0,0,,,2,,,67,64
243801,note_off,,,,,2,0,0,,,4,,,55,64
243804,note_on,,,,,3,0,0,,,2,,,67,126
243805,note_on,,,,,1,0,0,,,4,,,55,127
243866,note_off,,,,,61,0,0,,,2,,,67,64
243868,note_off,,,,,2,0,0,,,4,,,55,64
243874,note_on,,,,,6,0,0,,,4,,,65,126
243874,note_on,,,,,0,0,0,,,4,,,53,127
243924,note_off,,,,,50,0,0,,,2,,,72,64
243925,note_off,,,,,1,0,0,,,1,,,81,64
243929,note_off,,,,,4,0,0,,,4,,,65,64
243930,note_off,,,,,1,0,0,,,4,,,53,64
243935,note_on,,,,,5,0,0,,,1,,,84,122
243936,note_on,,,,,1,0,0,,,1,,,81,122
243936,note_on,,,,,0,0,0,,,4,,,65,126
243936,note_on,,,,,0,0,0,,,4,,,53,127
243996,note_off,,,,,60,0,0,,,4,,,65,64
243997,note_off,,,,,1,0,0,,,4,,,53,64
244002,note_on,,,,,5,0,0,,,4,,,64,124
244003,note_on,,,,,1,0,0,,,4,,,52,127
244055,note_off,,,,,52,0,0,,,4,,,64,64
244056,note_off,,,,,1,0,0,,,4,,,52,64
244061,note_on,,,,,5,0,0,,,4,,,52,127
244061,note_on,,,,,0,0,0,,,4,,,64,124
244119,note_off,,,,,58,0,0,,,4,,,64,64
244120,note_off,,,,,1,0,0,,,4,,,52,64
244122,note_on,,,,,2,0,0,,,4,,,63,127
244123,note_on,,,,,1,0,0,,,4,,,51,127
244202,note_off,,,,,79,0,0,,,4,,,63,64
244202,note_off,,,,,0,0,0,,,1,,,81,64
244203,note_off,,,,,1,0,0,,,4,,,51,64
244203,note_off,,,,,0,0,0,,,1,,,84,64
244204,note_on,,,,,1,0,0,,,4,,,60,127
244204,note_on,,,,,0,0,0,,,2,,,69,126
244205,note_on,,,,,1,0,0,,,4,,,52,127
244205,note_on,,,,,0,0,0,,,2,,,75,127
244517,note_off,,,,,312,0,0,,,4,,,60,64
244517,note_on,,,,,0,0,0,,,2,,,76,127
244518,note_on,,,,,1,0,0,,,4,,,59,127
244518,note_on,,,,,0,0,0,,,2,,,68,126
244519,note_off,,,,,1,0,0,,,2,,,69,64
244524,note_off,,,,,5,0,0,,,2,,,75,64
244904,note_off,,,,,380,0,0,,,4,,,52,64
244916,note_off,,,,,12,0,0,,,2,,,76,64
244916,note_on,,,,,0,0,0,,,2,,,71,122
244917,note_on,,,,,1,0,0,,,4,,,57,127
244918,note_off,,,,,1,0,0,,,4,,,59,64
244919,note_off,,,,,1,0,0,,,2,,,68,64
244969,note_on,,,,,50,0,0,,,2,,,69,120
244981,note_off,,,,,12,0,0,,,2,,,71,64
245002,note_on,,,,,21,0,0,,,4,,,64,124
245002,note_on,,,,,0,0,0,,,2,,,71,122
245013,note_off,,,,,11,0,0,,,2,,,69,64
245036,note_on,,,,,23,0,0,,,2,,,69,120
245049,note_off,,,,,13,0,0,,,2,,,71,64
245072,note_on,,,,,23,0,0,,,2,,,71,119
245073,note_on,,,,,1,0,0,,,4,,,61,127
245083,note_off,,,,,10,0,0,,,2,,,69,64
245086,note_off,,,,,3,0,0,,,4,,,57,64
245104,note_on,,,,,18,0,0,,,2,,,69,117
245115,note_off,,,,,11,0,0,,,2,,,71,64
245133,note_off,,,,,18,0,0,,,4,,,64,64
245136,note_on,,,,,3,0,0,,,2,,,71,119
245137,note_on,,,,,1,0,0,,,4,,,64,124
245147,note_off,,,,,10,0,0,,,2,,,69,64
245172,note_on,,,,,25,0,0,,,2,,,69,117
245184,note_off,,,,,12,0,0,,,2,,,71,64
245207,note_on,,,,,23,0,0,,,4,,,57,127
245207,note_on,,,,,0,0,0,,,2,,,71,119
245217,note_off,,,,,10,0,0,,,2,,,69,64
245220,note_off,,,,,3,0,0,,,4,,,61,64
245242,note_on,,,,,22,0,0,,,2,,,69,117
245254,note_off,,,,,12,0,0,,,2,,,71,64
245272,note_off,,,,,18,0,0,,,4,,,64,64
245277,note_on,,,,,5,0,0,,,4,,,64,124
245277,note_on,,,,,0,0,0,,,2,,,71,119
245287,note_off,,,,,10,0,0,,,2,,,69,64
245312,note_on,,,,,25,0,0,,,2,,,69,117
245326,note_off,,,,,14,0,0,,,2,,,71,64
245349,note_on,,,,,23,0,0,,,2,,,71,119
245349,note_on,,,,,0,0,0,,,4,,,61,127
245361,note_off,,,,,12,0,0,,,2,,,69,64
245363,note_off,,,,,2,0,0,,,4,,,57,64
245384,note_on,,,,,21,0,0,,,2,,,69,117
245396,note_off,,,,,12,0,0,,,2,,,71,64
245417,note_off,,,,,21,0,0,,,4,,,64,64
245424,note_on,,,,,7,0,0,,,4,,,64,124
245424,note_on,,,,,0,0,0,,,2,,,71,122
245436,note_off,,,,,12,0,0,,,2,,,69,64
245457,note_on,,,,,21,0,0,,,2,,,69,126
245469,note_off,,,,,12,0,0,,,2,,,71,64
245496,note_on,,,,,27,0,0,,,4,,,52,127
245496,note_on,,,,,0,0,0,,,2,,,68,126
245508,note_off,,,,,12,0,0,,,2,,,69,64
245512,note_off,,,,,4,0,0,,,4,,,61,64
245520,note_off,,,,,8,0,0,,,4,,,64,64
245531,note_on,,,,,11,0,0,,,4,,,64,124
245566,note_off,,,,,35,0,0,,,2,,,68,64
245566,note_on,,,,,0,0,0,,,2,,,71,127
245567,note_on,,,,,1,0,0,,,4,,,62,127
245595,note_off,,,,,28,0,0,,,4,,,64,64
245601,note_on,,,,,6,0,0,,,2,,,68,126
245613,note_off,,,,,12,0,0,,,2,,,71,64
245634,note_on,,,,,21,0,0,,,4,,,59,127
245634,note_on,,,,,0,0,0,,,2,,,74,127
245648,note_off,,,,,14,0,0,,,2,,,68,64
245649,note_off,,,,,1,0,0,,,4,,,62,64
245653,note_off,,,,,4,0,0,,,4,,,52,64
245676,note_on,,,,,23,0,0,,,2,,,71,127
245688,note_off,,,,,12,0,0,,,2,,,74,64
245715,note_on,,,,,27,0,0,,,2,,,69,126
245716,note_on,,,,,1,0,0,,,4,,,62,127
245730,note_off,,,,,14,0,0,,,2,,,71,64
245757,note_on,,,,,27,0,0,,,2,,,68,126
245770,note_off,,,,,13,0,0,,,2,,,69,64
245797,note_on,,,,,27,0,0,,,2,,,69,126
245797,note_on,,,,,0,0,0,,,4,,,61,127
245798,note_on,,,,,1,0,0,,,4,,,57,127
245811,note_off,,,,,13,0,0,,,4,,,62,64
245812,note_off,,,,,1,0,0,,,2,,,68,64
245816,note_off,,,,,4,0,0,,,4,,,59,64
245870,note_off,,,,,54,0,0,,,4,,,61,64
245881,note_on,,,,,11,0,0,,,4,,,64,121
245882,note_on,,,,,1,0,0,,,4,,,61,127
245961,note_on,,,,,79,0,0,,,4,,,63,126
245962,note_on,,,,,1,0,0,,,4,,,60,127
245974,note_off,,,,,12,0,0,,,4,,,61,64
245974,note_off,,,,,0,0,0,,,4,,,64,64
245976,note_off,,,,,2,0,0,,,4,,,57,64
246038,note_on,,,,,62,0,0,,,4,,,64,121
246038,note_on,,,,,0,0,0,,,4,,,61,127
246052,note_off,,,,,14,0,0,,,4,,,60,64
246053,note_off,,,,,1,0,0,,,4,,,63,64
246115,note_on,,,,,62,0,0,,,4,,,66,123
246115,note_on,,,,,0,0,0,,,4,,,62,127
246127,note_off,,,,,12,0,0,,,4,,,61,64
246128,note_off,,,,,1,0,0,,,4,,,64,64
246192,note_on,,,,,64,0,0,,,4,,,61,127
246192,note_on,,,,,0,0,0,,,4,,,64,121
246202,note_off,,,,,10,0,0,,,4,,,62,64
246203,note_off,,,,,1,0,0,,,4,,,66,64
246261,note_on,,,,,58,0,0,,,4,,,63,126
246261,note_on,,,,,0,0,0,,,4,,,60,127
246273,note_off,,,,,12,0,0,,,4,,,61,64
246274,note_off,,,,,1,0,0,,,4,,,64,64
246335,note_on,,,,,61,0,0,,,4,,,64,121
246335,note_on,,,,,0,0,0,,,4,,,61,127
246347,note_off,,,,,12,0,0,,,4,,,60,64
246348,note_off,,,,,1,0,0,,,4,,,63,64
246413,note_on,,,,,65,0,0,,,4,,,62,127
246414,note_on,,,,,1,0,0,,,4,,,59,127
246426,note_off,,,,,12,0,0,,,4,,,61,64
246426,note_off,,,,,0,0,0,,,4,,,64,64
246492,note_on,,,,,66,0,0,,,4,,,61,127
246492,note_on,,,,,0,0,0,,,4,,,57,127
246504,note_off,,,,,12,0,0,,,4,,,59,64
246505,note_off,,,,,1,0,0,,,4,,,62,64
246573,note_on,,,,,68,0,0,,,4,,,60,127
246573,note_on,,,,,0,0,0,,,4,,,56,127
246585,note_off,,,,,12,0,0,,,4,,,57,64
246586,note_off,,,,,1,0,0,,,4,,,61,64
246651,note_on,,,,,65,0,0,,,4,,,61,127
246652,note_on,,,,,1,0,0,,,4,,,57,127
246666,note_off,,,,,14,0,0,,,4,,,56,64
246666,note_off,,,,,0,0,0,,,4,,,60,64
246730,note_off,,,,,64,0,0,,,2,,,69,64
246731,note_on,,,,,1,0,0,,,2,,,73,126
246731,note_on,,,,,0,0,0,,,4,,,52,127
246741,note_off,,,,,10,0,0,,,4,,,57,64
246742,note_off,,,,,1,0,0,,,4,,,61,64
246770,note_on,,,,,28,0,0,,,2,,,71,125
246799,note_off,,,,,29,0,0,,,2,,,73,64
246811,note_on,,,,,12,0,0,,,2,,,73,126
246811,note_on,,,,,0,0,0,,,4,,,59,127
246835,note_off,,,,,24,0,0,,,2,,,71,64
246847,note_on,,,,,12,0,0,,,2,,,71,125
246870,note_off,,,,,23,0,0,,,2,,,73,64
246882,note_on,,,,,12,0,0,,,4,,,56,127
246882,note_on,,,,,0,0,0,,,2,,,73,126
246896,note_off,,,,,14,0,0,,,4,,,52,64
246904,note_off,,,,,8,0,0,,,2,,,71,64
246915,note_on,,,,,11,0,0,,,2,,,71,122
246936,note_off,,,,,21,0,0,,,2,,,73,64
246946,note_off,,,,,10,0,0,,,4,,,59,64
246948,note_on,,,,,2,0,0,,,4,,,59,127
246948,note_on,,,,,0,0,0,,,2,,,73,123
246970,note_off,,,,,22,0,0,,,2,,,71,64
246982,note_on,,,,,12,0,0,,,2,,,71,122
247005,note_off,,,,,23,0,0,,,2,,,73,64
247018,note_on,,,,,13,0,0,,,2,,,73,123
247018,note_on,,,,,0,0,0,,,4,,,52,127
247032,note_off,,,,,14,0,0,,,4,,,56,64
247041,note_off,,,,,9,0,0,,,2,,,71,64
247051,note_on,,,,,10,0,0,,,2,,,71,122
247074,note_off,,,,,23,0,0,,,2,,,73,64
247081,note_off,,,,,7,0,0,,,4,,,59,64
247085,note_on,,,,,4,0,0,,,2,,,73,123
247086,note_on,,,,,1,0,0,,,4,,,59,127
247109,note_off,,,,,23,0,0,,,2,,,71,64
247121,note_on,,,,,12,0,0,,,2,,,71,122
247144,note_off,,,,,23,0,0,,,2,,,73,64
247156,note_on,,,,,12,0,0,,,4,,,56,127
247156,note_on,,,,,0,0,0,,,2,,,73,123
247172,note_off,,,,,16,0,0,,,4,,,52,64
247181,note_off,,,,,9,0,0,,,2,,,71,64
247193,note_on,,,,,12,0,0,,,2,,,71,122
247218,note_off,,,,,25,0,0,,,2,,,73,64
247225,note_off,,,,,7,0,0,,,4,,,59,64
247232,note_on,,,,,7,0,0,,,2,,,73,126
247232,note_on,,,,,0,0,0,,,4,,,59,127
247260,note_off,,,,,28,0,0,,,2,,,71,64
247273,note_on,,,,,13,0,0,,,2,,,71,125
247298,note_off,,,,,25,0,0,,,2,,,73,64
247309,note_on,,,,,11,0,0,,,2,,,73,127
247310,note_on,,,,,1,0,0,,,4,,,52,127
247327,note_off,,,,,17,0,0,,,4,,,56,64
247335,note_off,,,,,8,0,0,,,2,,,71,64
247349,note_on,,,,,14,0,0,,,2,,,69,126
247374,note_off,,,,,25,0,0,,,2,,,73,64
247385,note_off,,,,,11,0,0,,,4,,,59,64
247389,note_on,,,,,4,0,0,,,2,,,76,127
247390,note_on,,,,,1,0,0,,,4,,,61,127
247417,note_off,,,,,27,0,0,,,2,,,69,64
247427,note_on,,,,,10,0,0,,,2,,,73,127
247450,note_off,,,,,23,0,0,,,2,,,76,64
247461,note_on,,,,,11,0,0,,,1,,,81,126
247462,note_on,,,,,1,0,0,,,4,,,57,127
247477,note_off,,,,,15,0,0,,,4,,,52,64
247489,note_off,,,,,12,0,0,,,2,,,73,64
247502,note_on,,,,,13,0,0,,,2,,,76,127
247527,note_off,,,,,25,0,0,,,1,,,81,64
247535,note_off,,,,,8,0,0,,,4,,,61,64
247539,note_on,,,,,4,0,0,,,4,,,61,127
247539,note_on,,,,,0,0,0,,,2,,,73,127
247567,note_off,,,,,28,0,0,,,2,,,76,64
247580,note_on,,,,,13,0,0,,,2,,,69,126
247611,note_off,,,,,31,0,0,,,2,,,73,64
247628,note_on,,,,,17,0,0,,,2,,,74,127
247629,note_on,,,,,1,0,0,,,4,,,56,127
247629,note_on,,,,,0,0,0,,,4,,,59,127
247644,note_off,,,,,15,0,0,,,4,,,57,64
247654,note_off,,,,,10,0,0,,,2,,,69,64
247696,note_off,,,,,42,0,0,,,4,,,59,64
247705,note_off,,,,,9,0,0,,,4,,,61,64
247710,note_on,,,,,5,0,0,,,4,,,62,127
247710,note_on,,,,,0,0,0,,,4,,,59,127
247795,note_on,,,,,85,0,0,,,4,,,61,127
247796,note_on,,,,,1,0,0,,,4,,,58,127
247810,note_off,,,,,14,0,0,,,4,,,59,64
247810,note_off,,,,,0,0,0,,,4,,,62,64
247814,note_off,,,,,4,0,0,,,4,,,56,64
247874,note_on,,,,,60,0,0,,,4,,,59,127
247874,note_on,,,,,0,0,0,,,4,,,62,127
247888,note_off,,,,,14,0,0,,,4,,,58,64
247889,note_off,,,,,1,0,0,,,4,,,61,64
247949,note_on,,,,,60,0,0,,,4,,,64,124
247949,note_on,,,,,0,0,0,,,4,,,61,127
247961,note_off,,,,,12,0,0,,,4,,,59,64
247962,note_off,,,,,1,0,0,,,4,,,62,64
248028,note_on,,,,,66,0,0,,,4,,,62,127
248028,note_on,,,,,0,0,0,,,4,,,59,127
248040,note_off,,,,,12,0,0,,,4,,,61,64
248040,note_off,,,,,0,0,0,,,4,,,64,64
248100,note_on,,,,,60,0,0,,,4,,,61,127
248101,note_on,,,,,1,0,0,,,4,,,58,127
248113,note_off,,,,,12,0,0,,,4,,,59,64
248113,note_off,,,,,0,0,0,,,4,,,62,64
248175,note_on,,,,,62,0,0,,,4,,,62,127
248176,note_on,,,,,1,0,0,,,4,,,59,127
248188,note_off,,,,,12,0,0,,,4,,,61,64
248188,note_off,,,,,0,0,0,,,4,,,58,64
248252,note_on,,,,,64,0,0,,,4,,,61,127
248253,note_on,,,,,1,0,0,,,4,,,57,127
248267,note_off,,,,,14,0,0,,,4,,,59,64
248267,note_off,,,,,0,0,0,,,4,,,62,64
248327,note_on,,,,,60,0,0,,,4,,,59,127
248328,note_on,,,,,1,0,0,,,4,,,56,127
248340,note_off,,,,,12,0,0,,,4,,,57,64
248340,note_off,,,,,0,0,0,,,4,,,61,64
248404,note_on,,,,,64,0,0,,,4,,,58,127
248404,note_on,,,,,0,0,0,,,4,,,55,127
248416,note_off,,,,,12,0,0,,,4,,,56,64
248417,note_off,,,,,1,0,0,,,4,,,59,64
248484,note_on,,,,,67,0,0,,,4,,,59,127
248485,note_on,,,,,1,0,0,,,4,,,56,127
248497,note_off,,,,,12,0,0,,,4,,,55,64
248497,note_off,,,,,0,0,0,,,4,,,58,64
248565,note_off,,,,,68,0,0,,,2,,,74,64
248566,note_on,,,,,1,0,0,,,2,,,76,127
248568,note_on,,,,,2,0,0,,,4,,,61,127
248580,note_off,,,,,12,0,0,,,4,,,56,64
248580,note_off,,,,,0,0,0,,,4,,,59,64
248644,note_on,,,,,64,0,0,,,2,,,69,126
248719,note_on,,,,,75,0,0,,,4,,,64,124
248736,note_off,,,,,17,0,0,,,4,,,61,64
248790,note_off,,,,,54,0,0,,,2,,,69,64
248794,note_on,,,,,4,0,0,,,2,,,69,126
248867,note_on,,,,,73,0,0,,,4,,,61,127
248882,note_off,,,,,15,0,0,,,4,,,64,64
248911,note_on,,,,,29,0,0,,,2,,,75,127
248913,note_off,,,,,2,0,0,,,2,,,76,64
248930,note_off,,,,,17,0,0,,,2,,,69,64
248934,note_on,,,,,4,0,0,,,2,,,69,126
248957,note_off,,,,,23,0,0,,,2,,,75,64
248957,note_on,,,,,0,0,0,,,2,,,76,127
249002,note_off,,,,,45,0,0,,,2,,,76,64
249002,note_on,,,,,0,0,0,,,1,,,78,126
249003,note_on,,,,,1,0,0,,,4,,,64,124
249020,note_off,,,,,17,0,0,,,4,,,61,64
249051,note_off,,,,,31,0,0,,,1,,,78,64
249052,note_on,,,,,1,0,0,,,2,,,76,127
249069,note_off,,,,,17,0,0,,,2,,,69,64
249073,note_on,,,,,4,0,0,,,2,,,69,126
249098,note_off,,,,,25,0,0,,,2,,,76,64
249098,note_on,,,,,0,0,0,,,1,,,78,126
249147,note_off,,,,,49,0,0,,,1,,,78,64
249147,note_on,,,,,0,0,0,,,2,,,76,127
249148,note_on,,,,,1,0,0,,,4,,,59,127
249161,note_off,,,,,13,0,0,,,4,,,64,64
249213,note_off,,,,,52,0,0,,,2,,,69,64
249217,note_on,,,,,4,0,0,,,2,,,68,126
249292,note_on,,,,,75,0,0,,,4,,,64,124
249292,note_on,,,,,0,0,0,,,2,,,74,127
249295,note_off,,,,,3,0,0,,,2,,,76,64
249308,note_off,,,,,13,0,0,,,4,,,59,64
249356,note_off,,,,,48,0,0,,,2,,,68,64
249360,note_on,,,,,4,0,0,,,2,,,68,126
249435,note_on,,,,,75,0,0,,,2,,,73,127
249436,note_on,,,,,1,0,0,,,4,,,57,127
249437,note_off,,,,,1,0,0,,,2,,,74,64
249452,note_off,,,,,15,0,0,,,4,,,64,64
249506,note_off,,,,,54,0,0,,,2,,,68,64
249510,note_on,,,,,4,0,0,,,2,,,69,126
249591,note_on,,,,,81,0,0,,,4,,,64,124
249607,note_off,,,,,16,0,0,,,4,,,57,64
249662,note_off,,,,,55,0,0,,,2,,,69,64
249667,note_on,,,,,5,0,0,,,2,,,69,126
249742,note_on,,,,,75,0,0,,,4,,,57,127
249756,note_off,,,,,14,0,0,,,4,,,64,64
249783,note_off,,,,,27,0,0,,,2,,,73,64
249788,note_on,,,,,5,0,0,,,2,,,72,127
249808,note_off,,,,,20,0,0,,,2,,,69,64
249814,note_on,,,,,6,0,0,,,4,,,64,124
249838,note_off,,,,,24,0,0,,,2,,,72,64
249838,note_on,,,,,0,0,0,,,2,,,73,127
249887,note_off,,,,,49,0,0,,,2,,,73,64
249887,note_on,,,,,0,0,0,,,2,,,74,127
249888,note_on,,,,,1,0,0,,,4,,,61,127
249904,note_off,,,,,16,0,0,,,4,,,57,64
249937,note_off,,,,,33,0,0,,,2,,,74,64
249938,note_on,,,,,1,0,0,,,2,,,73,127
249959,note_off,,,,,21,0,0,,,4,,,64,64
249961,note_on,,,,,2,0,0,,,4,,,64,124
249986,note_off,,,,,25,0,0,,,2,,,73,64
249987,note_on,,,,,1,0,0,,,2,,,76,127
250035,note_on,,,,,48,0,0,,,2,,,69,126
250036,note_on,,,,,1,0,0,,,4,,,50,127
250051,note_off,,,,,15,0,0,,,4,,,61,64
250105,note_off,,,,,54,0,0,,,4,,,64,64
250109,note_on,,,,,4,0,0,,,4,,,59,127
250121,note_off,,,,,12,0,0,,,2,,,76,64
250172,note_off,,,,,51,0,0,,,2,,,69,64
250176,note_on,,,,,4,0,0,,,2,,,68,126
250178,note_on,,,,,2,0,0,,,4,,,52,127
250192,note_off,,,,,14,0,0,,,4,,,50,64
250245,note_off,,,,,53,0,0,,,4,,,59,64
250248,note_on,,,,,3,0,0,,,4,,,59,127
250324,note_on,,,,,76,0,0,,,2,,,69,126
250325,note_on,,,,,1,0,0,,,4,,,49,127
250325,note_on,,,,,0,0,0,,,4,,,61,127
250332,note_off,,,,,7,0,0,,,2,,,68,64
250338,note_off,,,,,6,0,0,,,4,,,59,64
250340,note_off,,,,,2,0,0,,,4,,,52,64
250416,note_off,,,,,76,0,0,,,2,,,69,64
250430,note_on,,,,,14,0,0,,,2,,,71,127
250464,note_on,,,,,34,0,0,,,2,,,69,126
250476,note_off,,,,,12,0,0,,,2,,,71,64
250568,note_off,,,,,92,0,0,,,2,,,69,64
250569,note_on,,,,,1,0,0,,,2,,,68,126
250604,note_on,,,,,35,0,0,,,2,,,69,126
250615,note_off,,,,,11,0,0,,,2,,,68,64
250700,note_off,,,,,85,0,0,,,4,,,61,64
250700,note_off,,,,,0,0,0,,,4,,,49,64
250712,note_on,,,,,12,0,0,,,4,,,64,124
250751,note_off,,,,,39,0,0,,,2,,,69,64
250751,note_on,,,,,0,0,0,,,2,,,71,127
250752,note_on,,,,,1,0,0,,,4,,,50,127
250752,note_on,,,,,0,0,0,,,4,,,62,127
250752,note_on,,,,,0,0,0,,,2,,,68,126
250852,note_off,,,,,100,0,0,,,4,,,64,64
250864,note_on,,,,,12,0,0,,,4,,,64,124
250900,note_on,,,,,36,0,0,,,2,,,73,127
250901,note_on,,,,,1,0,0,,,4,,,61,127
250901,note_on,,,,,0,0,0,,,2,,,69,126
250902,note_on,,,,,1,0,0,,,4,,,49,127
250916,note_off,,,,,14,0,0,,,4,,,62,64
250916,note_off,,,,,0,0,0,,,4,,,50,64
250917,note_off,,,,,1,0,0,,,2,,,71,64
250917,note_off,,,,,0,0,0,,,2,,,68,64
251000,note_off,,,,,83,0,0,,,4,,,64,64
251014,note_on,,,,,14,0,0,,,4,,,64,124
251053,note_on,,,,,39,0,0,,,2,,,74,127
251053,note_on,,,,,0,0,0,,,2,,,71,127
251054,note_on,,,,,1,0,0,,,4,,,59,127
251054,note_on,,,,,0,0,0,,,4,,,47,127
251070,note_off,,,,,16,0,0,,,4,,,49,64
251071,note_off,,,,,1,0,0,,,2,,,69,64
251071,note_off,,,,,0,0,0,,,4,,,61,64
251072,note_off,,,,,1,0,0,,,2,,,73,64
251147,note_off,,,,,75,0,0,,,4,,,64,64
251159,note_on,,,,,12,0,0,,,4,,,64,124
251189,note_on,,,,,30,0,0,,,2,,,76,127
251190,note_on,,,,,1,0,0,,,4,,,57,127
251190,note_on,,,,,0,0,0,,,2,,,73,127
251191,note_on,,,,,1,0,0,,,4,,,45,127
251205,note_off,,,,,14,0,0,,,4,,,47,64
251205,note_off,,,,,0,0,0,,,4,,,59,64
251206,note_off,,,,,1,0,0,,,2,,,71,64
251206,note_off,,,,,0,0,0,,,2,,,74,64
251330,note_on,,,,,124,0,0,,,4,,,49,127
251330,note_on,,,,,0,0,0,,,4,,,37,127
251347,note_off,,,,,17,0,0,,,4,,,45,64
251450,note_off,,,,,103,0,0,,,4,,,64,64
251472,note_on,,,,,22,0,0,,,4,,,40,127
251472,note_on,,,,,0,0,0,,,4,,,52,127
251482,note_off,,,,,10,0,0,,,4,,,57,64
251483,note_off,,,,,1,0,0,,,2,,,76,64
251483,note_off,,,,,0,0,0,,,2,,,73,64
251485,note_off,,,,,2,0,0,,,4,,,37,64
251485,note_off,,,,,0,0,0,,,4,,,49,64
251540,note_on,,,,,55,0,0,,,2,,,75,127
251576,note_on,,,,,36,0,0,,,2,,,76,127
251590,note_off,,,,,14,0,0,,,2,,,75,64
251617,note_on,,,,,27,0,0,,,1,,,78,126
251632,note_off,,,,,15,0,0,,,2,,,76,64
251664,note_on,,,,,32,0,0,,,2,,,76,127
251676,note_off,,,,,12,0,0,,,1,,,78,64
251703,note_on,,,,,27,0,0,,,2,,,74,127
251717,note_off,,,,,14,0,0,,,2,,,76,64
251742,note_on,,,,,25,0,0,,,2,,,73,127
251755,note_off,,,,,13,0,0,,,2,,,74,64
251782,note_on,,,,,27,0,0,,,2,,,71,127
251794,note_off,,,,,12,0,0,,,2,,,73,64
252053,note_off,,,,,259,0,0,,,2,,,71,64
252066,note_on,,,,,13,0,0,,,4,,,61,127
252067,note_on,,,,,1,0,0,,,4,,,45,127
252067,note_on,,,,,0,0,0,,,4,,,57,127
252086,note_off,,,,,19,0,0,,,4,,,40,64
252087,note_off,,,,,1,0,0,,,4,,,52,64
252108,note_on,,,,,21,0,0,,,2,,,69,126
252154,note_on,,,,,46,0,0,,,4,,,64,124
252195,note_off,,,,,41,0,0,,,4,,,61,64
252200,note_on,,,,,5,0,0,,,4,,,61,127
252241,note_off,,,,,41,0,0,,,2,,,69,64
252246,note_on,,,,,5,0,0,,,2,,,69,126
252289,note_off,,,,,43,0,0,,,4,,,64,64
252292,note_on,,,,,3,0,0,,,4,,,64,124
252328,note_off,,,,,36,0,0,,,4,,,57,64
252328,note_off,,,,,0,0,0,,,4,,,45,64
252335,note_off,,,,,7,0,0,,,4,,,61,64
252337,note_on,,,,,2,0,0,,,4,,,37,127
252337,note_on,,,,,0,0,0,,,4,,,61,127
252338,note_on,,,,,1,0,0,,,4,,,49,127
252376,note_off,,,,,38,0,0,,,2,,,69,64
252380,note_on,,,,,4,0,0,,,2,,,69,126
252422,note_off,,,,,42,0,0,,,4,,,64,64
252426,note_on,,,,,4,0,0,,,4,,,64,124
252468,note_off,,,,,42,0,0,,,4,,,61,64
252472,note_on,,,,,4,0,0,,,4,,,61,127
252514,note_off,,,,,42,0,0,,,2,,,69,64
252516,note_on,,,,,2,0,0,,,2,,,69,126
252559,note_off,,,,,43,0,0,,,4,,,64,64
252561,note_on,,,,,2,0,0,,,4,,,64,124
252593,note_off,,,,,32,0,0,,,4,,,37,64
252595,note_off,,,,,2,0,0,,,4,,,49,64
252601,note_off,,,,,6,0,0,,,4,,,61,64
252605,note_on,,,,,4,0,0,,,4,,,40,127
252605,note_on,,,,,0,0,0,,,4,,,62,127
252606,note_on,,,,,1,0,0,,,4,,,52,127
252650,note_off,,,,,44,0,0,,,2,,,69,64
252652,note_on,,,,,2,0,0,,,2,,,71,127
252694,note_off,,,,,42,0,0,,,4,,,64,64
252698,note_on,,,,,4,0,0,,,4,,,64,124
252740,note_off,,,,,42,0,0,,,4,,,62,64
252742,note_on,,,,,2,0,0,,,4,,,62,127
252790,note_off,,,,,48,0,0,,,2,,,71,64
252794,note_on,,,,,4,0,0,,,2,,,68,126
252836,note_off,,,,,42,0,0,,,4,,,64,64
252840,note_on,,,,,4,0,0,,,4,,,64,124
252878,note_off,,,,,38,0,0,,,4,,,52,64
252886,note_off,,,,,8,0,0,,,4,,,62,64
252890,note_on,,,,,4,0,0,,,4,,,57,127
252890,note_on,,,,,0,0,0,,,2,,,69,126
252900,note_off,,,,,10,0,0,,,2,,,68,64
252906,note_off,,,,,6,0,0,,,4,,,64,64
252933,note_on,,,,,27,0,0,,,4,,,64,124
252981,note_on,,,,,48,0,0,,,4,,,61,127
253025,note_off,,,,,44,0,0,,,4,,,57,64
253027,note_on,,,,,2,0,0,,,4,,,59,127
253069,note_off,,,,,42,0,0,,,4,,,64,64
253071,note_on,,,,,2,0,0,,,4,,,64,124
253112,note_off,,,,,41,0,0,,,4,,,61,64
253116,note_on,,,,,4,0,0,,,4,,,62,127
253127,note_on,,,,,11,0,0,,,2,,,68,126
253142,note_off,,,,,15,0,0,,,2,,,69,64
253162,note_off,,,,,20,0,0,,,4,,,59,64
253165,note_on,,,,,3,0,0,,,2,,,69,126
253166,note_on,,,,,1,0,0,,,4,,,57,127
253178,note_off,,,,,12,0,0,,,2,,,68,64
253211,note_off,,,,,33,0,0,,,4,,,64,64
253214,note_on,,,,,3,0,0,,,4,,,64,124
253257,note_off,,,,,43,0,0,,,4,,,62,64
253260,note_on,,,,,3,0,0,,,4,,,61,127
253307,note_off,,,,,47,0,0,,,4,,,57,64
253310,note_on,,,,,3,0,0,,,4,,,56,127
253355,note_off,,,,,45,0,0,,,4,,,64,64
253358,note_on,,,,,3,0,0,,,4,,,64,124
253399,note_off,,,,,41,0,0,,,4,,,61,64
253403,note_on,,,,,4,0,0,,,4,,,59,127
253416,note_on,,,,,13,0,0,,,2,,,71,127
253429,note_off,,,,,13,0,0,,,2,,,69,64
253449,note_off,,,,,20,0,0,,,4,,,56,64
253452,note_on,,,,,3,0,0,,,2,,,73,127
253453,note_on,,,,,1,0,0,,,4,,,57,127
253465,note_off,,,,,12,0,0,,,2,,,71,64
253496,note_off,,,,,31,0,0,,,4,,,64,64
253500,note_on,,,,,4,0,0,,,4,,,64,124
253538,note_off,,,,,38,0,0,,,4,,,59,64
253542,note_on,,,,,4,0,0,,,4,,,61,127
253590,note_off,,,,,48,0,0,,,4,,,57,64
253594,note_on,,,,,4,0,0,,,4,,,57,127
253636,note_off,,,,,42,0,0,,,4,,,64,64
253640,note_on,,,,,4,0,0,,,4,,,64,124
253682,note_off,,,,,42,0,0,,,4,,,61,64
253686,note_on,,,,,4,0,0,,,4,,,61,127
253734,note_off,,,,,48,0,0,,,4,,,57,64
253736,note_on,,,,,2,0,0,,,4,,,44,127
253736,note_on,,,,,0,0,0,,,4,,,62,127
253737,note_on,,,,,1,0,0,,,4,,,56,127
253752,note_off,,,,,15,0,0,,,2,,,73,64
253758,note_off,,,,,6,0,0,,,4,,,61,64
253758,note_off,,,,,0,0,0,,,4,,,40,64
253776,note_off,,,,,18,0,0,,,4,,,64,64
253780,note_on,,,,,4,0,0,,,2,,,71,127
253828,note_on,,,,,48,0,0,,,4,,,64,124
253870,note_off,,,,,42,0,0,,,4,,,62,64
253874,note_on,,,,,4,0,0,,,4,,,62,127
253915,note_off,,,,,41,0,0,,,2,,,71,64
253918,note_on,,,,,3,0,0,,,2,,,71,127
253958,note_off,,,,,40,0,0,,,4,,,64,64
253963,note_on,,,,,5,0,0,,,4,,,64,124
254004,note_off,,,,,41,0,0,,,4,,,62,64
254005,note_off,,,,,1,0,0,,,4,,,44,64
254005,note_off,,,,,0,0,0,,,4,,,56,64
254006,note_on,,,,,1,0,0,,,4,,,40,127
254006,note_on,,,,,0,0,0,,,4,,,62,127
254007,note_on,,,,,1,0,0,,,4,,,52,127
254048,note_off,,,,,41,0,0,,,2,,,71,64
254052,note_on,,,,,4,0,0,,,2,,,71,127
254098,note_off,,,,,46,0,0,,,4,,,64,64
254100,note_on,,,,,2,0,0,,,4,,,64,124
254142,note_off,,,,,42,0,0,,,4,,,62,64
254144,note_on,,,,,2,0,0,,,4,,,62,127
254192,note_on,,,,,48,0,0,,,2,,,68,126
254196,note_off,,,,,4,0,0,,,2,,,71,64
254232,note_off,,,,,36,0,0,,,4,,,64,64
254235,note_on,,,,,3,0,0,,,4,,,64,124
254271,note_off,,,,,36,0,0,,,4,,,62,64
254272,note_off,,,,,1,0,0,,,4,,,40,64
254273,note_off,,,,,1,0,0,,,4,,,52,64
254274,note_on,,,,,1,0,0,,,4,,,45,127
254274,note_on,,,,,0,0,0,,,4,,,61,127
254275,note_on,,,,,1,0,0,,,4,,,57,127
254323,note_on,,,,,48,0,0,,,2,,,69,126
254326,note_off,,,,,3,0,0,,,2,,,68,64
254361,note_off,,,,,35,0,0,,,4,,,64,64
254363,note_on,,,,,2,0,0,,,4,,,64,124
254401,note_off,,,,,38,0,0,,,4,,,61,64
254405,note_on,,,,,4,0,0,,,4,,,61,127
254448,note_on,,,,,43,0,0,,,2,,,73,127
254449,note_off,,,,,1,0,0,,,2,,,69,64
254489,note_off,,,,,40,0,0,,,4,,,64,64
254494,note_on,,,,,5,0,0,,,2,,,69,126
254517,note_off,,,,,23,0,0,,,2,,,73,64
254535,note_off,,,,,18,0,0,,,4,,,61,64
254537,note_off,,,,,2,0,0,,,4,,,57,64
254538,note_on,,,,,1,0,0,,,2,,,71,127
254539,note_on,,,,,1,0,0,,,4,,,56,127
254544,note_off,,,,,5,0,0,,,2,,,69,64
254582,note_on,,,,,38,0,0,,,4,,,64,124
254604,note_on,,,,,22,0,0,,,4,,,59,127
254662,note_off,,,,,58,0,0,,,4,,,56,64
254666,note_on,,,,,4,0,0,,,4,,,57,127
254704,note_off,,,,,38,0,0,,,4,,,64,64
254707,note_on,,,,,3,0,0,,,4,,,64,124
254726,note_off,,,,,19,0,0,,,4,,,59,64
254728,note_off,,,,,2,0,0,,,2,,,71,64
254751,note_on,,,,,23,0,0,,,4,,,61,127
254762,note_on,,,,,11,0,0,,,2,,,69,126
254793,note_off,,,,,31,0,0,,,4,,,57,64
254797,note_on,,,,,4,0,0,,,4,,,59,127
254798,note_on,,,,,1,0,0,,,2,,,68,126
254808,note_off,,,,,10,0,0,,,2,,,69,64
254837,note_off,,,,,29,0,0,,,4,,,64,64
254841,note_on,,,,,4,0,0,,,4,,,64,124
254880,note_off,,,,,39,0,0,,,4,,,61,64
254883,note_on,,,,,3,0,0,,,4,,,62,127
254921,note_off,,,,,38,0,0,,,4,,,59,64
254926,note_on,,,,,5,0,0,,,4,,,57,127
254967,note_off,,,,,41,0,0,,,4,,,64,64
254970,note_on,,,,,3,0,0,,,4,,,64,124
255011,note_off,,,,,41,0,0,,,4,,,62,64
255015,note_on,,,,,4,0,0,,,4,,,61,127
255026,note_on,,,,,11,0,0,,,2,,,69,126
255048,note_off,,,,,22,0,0,,,2,,,68,64
255053,note_off,,,,,5,0,0,,,4,,,57,64
255057,note_on,,,,,4,0,0,,,4,,,56,127
255059,note_on,,,,,2,0,0,,,2,,,74,127
255071,note_off,,,,,12,0,0,,,2,,,69,64
255097,note_off,,,,,26,0,0,,,4,,,64,64
255101,note_on,,,,,4,0,0,,,4,,,64,124
255144,note_off,,,,,43,0,0,,,4,,,61,64
255146,note_on,,,,,2,0,0,,,4,,,59,127
255185,note_off,,,,,39,0,0,,,4,,,56,64
255189,note_on,,,,,4,0,0,,,4,,,52,127
255225,note_off,,,,,36,0,0,,,4,,,64,64
255229,note_on,,,,,4,0,0,,,4,,,64,124
255271,note_off,,,,,42,0,0,,,4,,,59,64
255275,note_on,,,,,4,0,0,,,4,,,56,127
255294,note_off,,,,,19,0,0,,,4,,,45,64
255306,note_off,,,,,12,0,0,,,2,,,74,64
255310,note_off,,,,,4,0,0,,,4,,,52,64
255313,note_on,,,,,3,0,0,,,4,,,61,127
255314,note_on,,,,,1,0,0,,,4,,,49,127
255353,note_off,,,,,39,0,0,,,4,,,64,64
255357,note_off,,,,,4,0,0,,,4,,,56,64
255380,note_on,,,,,23,0,0,,,2,,,76,127
255382,note_on,,,,,2,0,0,,,1,,,88,127
255455,note_on,,,,,73,0,0,,,2,,,75,127
255456,note_on,,,,,1,0,0,,,1,,,87,127
255468,note_off,,,,,12,0,0,,,2,,,76,64
255470,note_off,,,,,2,0,0,,,1,,,88,64
255533,note_on,,,,,63,0,0,,,1,,,88,127
255534,note_on,,,,,1,0,0,,,2,,,76,127
255536,note_off,,,,,2,0,0,,,2,,,75,64
255538,note_off,,,,,2,0,0,,,1,,,87,64
255590,note_off,,,,,52,0,0,,,4,,,61,64
255590,note_off,,,,,0,0,0,,,4,,,49,64
255597,note_on,,,,,7,0,0,,,4,,,49,127
255597,note_on,,,,,0,0,0,,,4,,,61,127
255655,note_off,,,,,58,0,0,,,2,,,76,64
255656,note_off,,,,,1,0,0,,,1,,,88,64
255668,note_on,,,,,12,0,0,,,2,,,69,126
255672,note_on,,,,,4,0,0,,,1,,,81,126
255741,note_on,,,,,69,0,0,,,1,,,80,126
255741,note_on,,,,,0,0,0,,,2,,,68,126
255748,note_off,,,,,7,0,0,,,2,,,69,64
255750,note_off,,,,,2,0,0,,,1,,,81,64
255814,note_on,,,,,64,0,0,,,1,,,81,126
255818,note_on,,,,,4,0,0,,,2,,,69,126
255824,note_off,,,,,6,0,0,,,2,,,68,64
255826,note_off,,,,,2,0,0,,,1,,,80,64
255872,note_on,,,,,46,0,0,,,4,,,59,127
255873,note_on,,,,,1,0,0,,,4,,,47,127
255877,note_off,,,,,4,0,0,,,4,,,61,64
255877,note_off,,,,,0,0,0,,,4,,,49,64
255957,note_on,,,,,80,0,0,,,2,,,68,126
255960,note_on,,,,,3,0,0,,,1,,,80,126
255972,note_off,,,,,12,0,0,,,1,,,81,64
255976,note_off,,,,,4,0,0,,,2,,,69,64
256028,note_on,,,,,52,0,0,,,2,,,71,127
256030,note_on,,,,,2,0,0,,,1,,,83,126
256035,note_off,,,,,5,0,0,,,2,,,68,64
256037,note_off,,,,,2,0,0,,,1,,,80,64
256097,note_on,,,,,60,0,0,,,1,,,86,126
256097,note_on,,,,,0,0,0,,,2,,,74,127
256111,note_off,,,,,14,0,0,,,2,,,71,64
256113,note_off,,,,,2,0,0,,,1,,,83,64
256155,note_on,,,,,42,0,0,,,4,,,57,127
256156,note_on,,,,,1,0,0,,,4,,,45,127
256160,note_off,,,,,4,0,0,,,4,,,47,64
256161,note_off,,,,,1,0,0,,,4,,,59,64
256234,note_on,,,,,73,0,0,,,2,,,73,127
256240,note_on,,,,,6,0,0,,,1,,,85,126
256259,note_off,,,,,19,0,0,,,2,,,74,64
256260,note_off,,,,,1,0,0,,,1,,,86,64
256310,note_on,,,,,50,0,0,,,2,,,72,127
256316,note_on,,,,,6,0,0,,,1,,,84,126
256321,note_off,,,,,5,0,0,,,2,,,73,64
256327,note_off,,,,,6,0,0,,,1,,,85,64
256389,note_on,,,,,62,0,0,,,1,,,85,126
256391,note_on,,,,,2,0,0,,,2,,,73,127
256400,note_off,,,,,9,0,0,,,2,,,72,64
256406,note_off,,,,,6,0,0,,,1,,,84,64
256444,note_off,,,,,38,0,0,,,4,,,45,64
256445,note_off,,,,,1,0,0,,,4,,,57,64
256452,note_on,,,,,7,0,0,,,4,,,45,127
256452,note_on,,,,,0,0,0,,,4,,,57,127
256531,note_on,,,,,79,0,0,,,2,,,76,127
256533,note_on,,,,,2,0,0,,,1,,,88,127
256552,note_off,,,,,19,0,0,,,1,,,85,64
256553,note_off,,,,,1,0,0,,,2,,,73,64
256603,note_on,,,,,50,0,0,,,2,,,75,127
256605,note_on,,,,,2,0,0,,,1,,,87,127
256618,note_off,,,,,13,0,0,,,2,,,76,64
256620,note_off,,,,,2,0,0,,,1,,,88,64
256670,note_on,,,,,50,0,0,,,1,,,88,127
256676,note_on,,,,,6,0,0,,,2,,,76,127
256685,note_off,,,,,9,0,0,,,2,,,75,64
256687,note_off,,,,,2,0,0,,,1,,,87,64
256743,note_on,,,,,56,0,0,,,4,,,62,127
256744,note_on,,,,,1,0,0,,,4,,,50,127
256748,note_off,,,,,4,0,0,,,4,,,57,64
256748,note_off,,,,,0,0,0,,,4,,,45,64
256783,note_off,,,,,35,0,0,,,2,,,76,64
256808,note_on,,,,,25,0,0,,,2,,,76,127
256809,note_on,,,,,1,0,0,,,4,,,64,124
256821,note_off,,,,,12,0,0,,,4,,,62,64
256823,note_off,,,,,2,0,0,,,1,,,88,64
256882,note_on,,,,,59,0,0,,,2,,,68,126
256884,note_on,,,,,2,0,0,,,1,,,80,126
256897,note_off,,,,,13,0,0,,,4,,,64,64
256898,note_off,,,,,1,0,0,,,2,,,76,64
256958,note_on,,,,,60,0,0,,,1,,,83,126
256960,note_on,,,,,2,0,0,,,2,,,71,127
256969,note_off,,,,,9,0,0,,,2,,,68,64
256974,note_off,,,,,5,0,0,,,1,,,80,64
257028,note_on,,,,,54,0,0,,,1,,,83,126
257060,note_on,,,,,32,0,0,,,1,,,81,126
257095,note_on,,,,,35,0,0,,,1,,,83,122
257104,note_off,,,,,9,0,0,,,1,,,81,64
257108,note_off,,,,,4,0,0,,,1,,,83,64
257108,note_off,,,,,0,0,0,,,1,,,83,64
257125,note_on,,,,,17,0,0,,,1,,,81,122
257137,note_off,,,,,12,0,0,,,1,,,83,64
257154,note_on,,,,,17,0,0,,,1,,,83,122
257160,note_off,,,,,6,0,0,,,1,,,81,64
257175,note_on,,,,,15,0,0,,,1,,,81,122
257183,note_off,,,,,8,0,0,,,1,,,83,64
257195,note_on,,,,,12,0,0,,,1,,,80,122
257198,note_off,,,,,3,0,0,,,1,,,81,64
257209,note_on,,,,,11,0,0,,,1,,,81,122
257216,note_off,,,,,7,0,0,,,1,,,80,64
257223,note_off,,,,,7,0,0,,,4,,,50,64
257224,note_on,,,,,1,0,0,,,4,,,57,127
257224,note_on,,,,,0,0,0,,,1,,,85,122
257225,note_on,,,,,1,0,0,,,4,,,49,127
257225,note_on,,,,,0,0,0,,,4,,,52,127
257228,note_off,,,,,3,0,0,,,1,,,81,64
257276,note_off,,,,,48,0,0,,,2,,,71,64
257322,note_on,,,,,46,0,0,,,2,,,76,127
257359,note_off,,,,,37,0,0,,,1,,,85,64
257359,note_on,,,,,0,0,0,,,1,,,79,122
257381,note_on,,,,,22,0,0,,,1,,,78,122
257392,note_off,,,,,11,0,0,,,1,,,79,64
257393,note_off,,,,,1,0,0,,,2,,,76,64
257409,note_on,,,,,16,0,0,,,1,,,79,122
257416,note_off,,,,,7,0,0,,,1,,,78,64
257434,note_on,,,,,18,0,0,,,1,,,78,122
257443,note_off,,,,,9,0,0,,,1,,,79,64
257461,note_on,,,,,18,0,0,,,1,,,79,122
257469,note_off,,,,,8,0,0,,,1,,,78,64
257486,note_on,,,,,17,0,0,,,1,,,78,122
257496,note_off,,,,,10,0,0,,,1,,,79,64
257515,note_on,,,,,19,0,0,,,2,,,77,125
257523,note_off,,,,,8,0,0,,,1,,,78,64
257536,note_on,,,,,13,0,0,,,1,,,78,122
257542,note_off,,,,,6,0,0,,,2,,,77,64
257543,note_off,,,,,1,0,0,,,4,,,57,64
257551,note_on,,,,,8,0,0,,,4,,,57,127
257551,note_on,,,,,0,0,0,,,1,,,81,122
257552,note_on,,,,,1,0,0,,,4,,,50,127
257552,note_on,,,,,0,0,0,,,4,,,54,127
257555,note_off,,,,,3,0,0,,,1,,,78,64
257555,note_off,,,,,0,0,0,,,4,,,49,64
257556,note_off,,,,,1,0,0,,,4,,,52,64
257651,note_on,,,,,95,0,0,,,2,,,73,127
257687,note_off,,,,,36,0,0,,,2,,,73,64
257688,note_off,,,,,1,0,0,,,1,,,81,64
257688,note_on,,,,,0,0,0,,,2,,,76,127
257715,note_on,,,,,27,0,0,,,2,,,74,127
257724,note_off,,,,,9,0,0,,,2,,,76,64
257742,note_on,,,,,18,0,0,,,2,,,76,127
257749,note_off,,,,,7,0,0,,,2,,,74,64
257765,note_on,,,,,16,0,0,,,2,,,74,127
257776,note_off,,,,,11,0,0,,,2,,,76,64
257792,note_on,,,,,16,0,0,,,2,,,76,127
257800,note_off,,,,,8,0,0,,,2,,,74,64
257816,note_on,,,,,16,0,0,,,2,,,74,127
257825,note_off,,,,,9,0,0,,,2,,,76,64
257843,note_on,,,,,18,0,0,,,2,,,73,127
257846,note_off,,,,,3,0,0,,,2,,,74,64
257864,note_on,,,,,18,0,0,,,2,,,74,127
257871,note_off,,,,,7,0,0,,,2,,,73,64
257872,note_off,,,,,1,0,0,,,4,,,57,64
257872,note_off,,,,,0,0,0,,,4,,,54,64
257886,note_on,,,,,14,0,0,,,4,,,62,127
257886,note_on,,,,,0,0,0,,,1,,,78,126
257887,note_on,,,,,1,0,0,,,4,,,54,127
257887,note_on,,,,,0,0,0,,,4,,,57,127
257892,note_off,,,,,5,0,0,,,2,,,74,64
258015,note_off,,,,,123,0,0,,,4,,,57,64
258029,note_off,,,,,14,0,0,,,1,,,78,64
258030,note_off,,,,,1,0,0,,,4,,,50,64
258030,note_on,,,,,0,0,0,,,4,,,61,127
258031,note_on,,,,,1,0,0,,,4,,,52,127
258031,note_on,,,,,0,0,0,,,4,,,57,127
258032,note_on,,,,,1,0,0,,,2,,,73,127
258051,note_off,,,,,19,0,0,,,4,,,62,64
258051,note_off,,,,,0,0,0,,,4,,,54,64
258100,note_on,,,,,49,0,0,,,2,,,69,126
258119,note_off,,,,,19,0,0,,,2,,,73,64
258146,note_on,,,,,27,0,0,,,2,,,76,127
258175,note_off,,,,,29,0,0,,,2,,,69,64
258194,note_on,,,,,19,0,0,,,4,,,62,127
258194,note_on,,,,,0,0,0,,,2,,,74,127
258195,note_on,,,,,1,0,0,,,4,,,59,127
258199,note_off,,,,,4,0,0,,,4,,,57,64
258199,note_off,,,,,0,0,0,,,4,,,61,64
258211,note_off,,,,,12,0,0,,,2,,,76,64
258250,note_on,,,,,39,0,0,,,2,,,71,127
258257,note_off,,,,,7,0,0,,,2,,,74,64
258298,note_on,,,,,41,0,0,,,2,,,68,126
258313,note_off,,,,,15,0,0,,,2,,,71,64
258334,note_off,,,,,21,0,0,,,4,,,59,64
258335,note_off,,,,,1,0,0,,,4,,,62,64
258337,note_off,,,,,2,0,0,,,2,,,68,64
258345,note_on,,,,,8,0,0,,,2,,,68,126
258347,note_on,,,,,2,0,0,,,4,,,59,127
258347,note_on,,,,,0,0,0,,,4,,,62,127
258348,note_on,,,,,1,0,0,,,4,,,53,127
258351,note_off,,,,,3,0,0,,,4,,,52,64
258641,note_on,,,,,290,0,0,,,2,,,69,126
258642,note_on,,,,,1,0,0,,,4,,,57,127
258642,note_on,,,,,0,0,0,,,4,,,61,127
258643,note_off,,,,,1,0,0,,,2,,,68,64
258643,note_on,,,,,0,0,0,,,4,,,54,127
258645,note_off,,,,,2,0,0,,,4,,,53,64
258646,note_off,,,,,1,0,0,,,4,,,62,64
258646,note_off,,,,,0,0,0,,,4,,,59,64
258782,note_off,,,,,136,0,0,,,4,,,61,64
258787,note_on,,,,,5,0,0,,,2,,,67,126
258788,note_on,,,,,1,0,0,,,4,,,61,127
258789,note_on,,,,,1,0,0,,,4,,,58,127
258789,note_on,,,,,0,0,0,,,4,,,52,127
258806,note_off,,,,,17,0,0,,,4,,,54,64
258807,note_off,,,,,1,0,0,,,2,,,69,64
258807,note_off,,,,,0,0,0,,,4,,,57,64
258937,note_on,,,,,130,0,0,,,4,,,66,126
258938,note_on,,,,,1,0,0,,,4,,,54,127
258938,note_on,,,,,0,0,0,,,4,,,59,127
258939,note_on,,,,,1,0,0,,,4,,,50,127
258948,note_off,,,,,9,0,0,,,2,,,67,64
258950,note_off,,,,,2,0,0,,,4,,,52,64
258951,note_off,,,,,1,0,0,,,4,,,58,64
258951,note_off,,,,,0,0,0,,,4,,,61,64
259059,note_on,,,,,108,0,0,,,1,,,78,126
259188,note_off,,,,,129,0,0,,,4,,,66,64
259188,note_off,,,,,0,0,0,,,4,,,59,64
259200,note_on,,,,,12,0,0,,,4,,,59,127
259201,note_on,,,,,1,0,0,,,4,,,52,127
259201,note_on,,,,,0,0,0,,,4,,,56,127
259205,note_off,,,,,4,0,0,,,4,,,54,64
259205,note_off,,,,,0,0,0,,,4,,,50,64
259331,note_off,,,,,126,0,0,,,1,,,78,64
259331,note_on,,,,,0,0,0,,,2,,,76,127
259401,note_off,,,,,70,0,0,,,2,,,76,64
259405,note_on,,,,,4,0,0,,,2,,,74,127
259461,note_off,,,,,56,0,0,,,4,,,56,64
259461,note_off,,,,,0,0,0,,,4,,,52,64
259471,note_on,,,,,10,0,0,,,4,,,62,127
259472,note_on,,,,,1,0,0,,,4,,,52,127
259472,note_on,,,,,0,0,0,,,4,,,56,127
259476,note_off,,,,,4,0,0,,,4,,,59,64
259598,note_on,,,,,122,0,0,,,2,,,73,127
259624,note_off,,,,,26,0,0,,,2,,,74,64
259664,note_off,,,,,40,0,0,,,2,,,73,64
259666,note_on,,,,,2,0,0,,,2,,,71,127
259728,note_off,,,,,62,0,0,,,4,,,56,64
259728,note_off,,,,,0,0,0,,,4,,,52,64
259732,note_on,,,,,4,0,0,,,2,,,73,127
259740,note_off,,,,,8,0,0,,,2,,,71,64
259740,note_on,,,,,0,0,0,,,4,,,61,127
259741,note_on,,,,,1,0,0,,,4,,,52,127
259741,note_on,,,,,0,0,0,,,4,,,57,127
259746,note_off,,,,,5,0,0,,,4,,,62,64
259794,note_on,,,,,48,0,0,,,2,,,69,126
259805,note_off,,,,,11,0,0,,,2,,,73,64
259843,note_on,,,,,38,0,0,,,2,,,76,127
259864,note_off,,,,,21,0,0,,,2,,,69,64
259885,note_on,,,,,21,0,0,,,4,,,59,127
259885,note_on,,,,,0,0,0,,,4,,,62,127
259888,note_off,,,,,3,0,0,,,4,,,57,64
259888,note_off,,,,,0,0,0,,,4,,,61,64
259893,note_on,,,,,5,0,0,,,2,,,74,127
259902,note_off,,,,,9,0,0,,,2,,,76,64
259939,note_on,,,,,37,0,0,,,2,,,71,127
259948,note_off,,,,,9,0,0,,,2,,,74,64
259983,note_on,,,,,35,0,0,,,2,,,68,126
259998,note_off,,,,,15,0,0,,,2,,,71,64
260014,note_off,,,,,16,0,0,,,4,,,62,64
260014,note_off,,,,,0,0,0,,,4,,,59,64
260024,note_off,,,,,10,0,0,,,2,,,68,64
260025,note_on,,,,,1,0,0,,,4,,,59,127
260025,note_on,,,,,0,0,0,,,4,,,62,127
260026,note_on,,,,,1,0,0,,,4,,,53,127
260028,note_off,,,,,2,0,0,,,4,,,52,64
260028,note_on,,,,,0,0,0,,,2,,,68,126
260297,note_on,,,,,269,0,0,,,2,,,69,126
260298,note_on,,,,,1,0,0,,,4,,,54,127
260298,note_on,,,,,0,0,0,,,4,,,57,127
260298,note_on,,,,,0,0,0,,,4,,,61,127
260301,note_off,,,,,3,0,0,,,4,,,59,64
260301,note_off,,,,,0,0,0,,,4,,,53,64
260302,note_off,,,,,1,0,0,,,4,,,62,64
260302,note_off,,,,,0,0,0,,,2,,,68,64
260424,note_off,,,,,122,0,0,,,4,,,61,64
260430,note_on,,,,,6,0,0,,,2,,,67,126
260430,note_on,,,,,0,0,0,,,4,,,61,127
260431,note_on,,,,,1,0,0,,,4,,,58,127
260431,note_on,,,,,0,0,0,,,4,,,52,127
260433,note_off,,,,,2,0,0,,,4,,,54,64
260434,note_off,,,,,1,0,0,,,2,,,69,64
260434,note_off,,,,,0,0,0,,,4,,,57,64
260572,note_on,,,,,138,0,0,,,4,,,66,126
260573,note_on,,,,,1,0,0,,,4,,,54,127
260573,note_on,,,,,0,0,0,,,4,,,59,127
260574,note_on,,,,,1,0,0,,,4,,,50,127
260576,note_off,,,,,2,0,0,,,4,,,52,64
260577,note_off,,,,,1,0,0,,,4,,,58,64
260577,note_off,,,,,0,0,0,,,4,,,61,64
260578,note_off,,,,,1,0,0,,,2,,,67,64
260703,note_on,,,,,125,0,0,,,1,,,78,126
260833,note_off,,,,,130,0,0,,,4,,,50,64
260839,note_on,,,,,6,0,0,,,4,,,58,127
260840,note_on,,,,,1,0,0,,,4,,,50,127
260844,note_off,,,,,4,0,0,,,4,,,59,64
260844,note_off,,,,,0,0,0,,,4,,,54,64
260845,note_off,,,,,1,0,0,,,4,,,66,64
260910,note_on,,,,,65,0,0,,,4,,,59,127
260914,note_off,,,,,4,0,0,,,4,,,58,64
260957,note_off,,,,,43,0,0,,,1,,,78,64
260978,note_on,,,,,21,0,0,,,2,,,76,127
261044,note_on,,,,,66,0,0,,,2,,,74,127
261055,note_off,,,,,11,0,0,,,2,,,76,64
261101,note_off,,,,,46,0,0,,,4,,,59,64
261105,note_off,,,,,4,0,0,,,4,,,50,64
261113,note_on,,,,,8,0,0,,,4,,,50,127
261113,note_on,,,,,0,0,0,,,4,,,61,127
261177,note_on,,,,,64,0,0,,,4,,,62,127
261187,note_off,,,,,10,0,0,,,4,,,61,64
261247,note_off,,,,,60,0,0,,,2,,,74,64
261247,note_on,,,,,0,0,0,,,2,,,73,127
261312,note_on,,,,,65,0,0,,,2,,,71,127
261316,note_off,,,,,4,0,0,,,2,,,73,64
261371,note_off,,,,,55,0,0,,,4,,,62,64
261374,note_off,,,,,3,0,0,,,4,,,50,64
261382,note_on,,,,,8,0,0,,,4,,,61,127
261382,note_on,,,,,0,0,0,,,4,,,58,127
261383,note_on,,,,,1,0,0,,,4,,,52,127
261444,note_on,,,,,61,0,0,,,4,,,62,127
261445,note_on,,,,,1,0,0,,,4,,,59,127
261455,note_off,,,,,10,0,0,,,4,,,58,64
261456,note_off,,,,,1,0,0,,,4,,,61,64
261498,note_off,,,,,42,0,0,,,2,,,71,64
261510,note_on,,,,,12,0,0,,,2,,,69,126
261575,note_off,,,,,65,0,0,,,2,,,69,64
261577,note_on,,,,,2,0,0,,,2,,,68,126
261871,note_off,,,,,294,0,0,,,2,,,68,64
261880,note_on,,,,,9,0,0,,,2,,,69,126
261951,note_on,,,,,71,0,0,,,2,,,71,127
261962,note_off,,,,,11,0,0,,,2,,,69,64
262010,note_on,,,,,48,0,0,,,2,,,73,127
262020,note_off,,,,,10,0,0,,,2,,,71,64
262068,note_on,,,,,48,0,0,,,2,,,74,127
262077,note_off,,,,,9,0,0,,,2,,,73,64
262106,note_off,,,,,29,0,0,,,4,,,62,64
262106,note_off,,,,,0,0,0,,,4,,,59,64
262124,note_on,,,,,18,0,0,,,2,,,76,127
262125,note_on,,,,,1,0,0,,,4,,,49,127
262125,note_on,,,,,0,0,0,,,4,,,57,127
262135,note_off,,,,,10,0,0,,,2,,,74,64
262144,note_off,,,,,9,0,0,,,4,,,52,64
262179,note_on,,,,,35,0,0,,,1,,,78,126
262188,note_off,,,,,9,0,0,,,2,,,76,64
262234,note_on,,,,,46,0,0,,,1,,,80,126
262241,note_off,,,,,7,0,0,,,1,,,78,64
262285,note_on,,,,,44,0,0,,,1,,,81,126
262295,note_off,,,,,10,0,0,,,1,,,80,64
262341,note_on,,,,,46,0,0,,,1,,,80,126
262342,note_on,,,,,1,0,0,,,4,,,50,127
262344,note_off,,,,,2,0,0,,,4,,,49,64
262350,note_off,,,,,6,0,0,,,1,,,81,64
262396,note_on,,,,,46,0,0,,,1,,,78,126
262405,note_off,,,,,9,0,0,,,1,,,80,64
262453,note_on,,,,,48,0,0,,,2,,,76,127
262463,note_off,,,,,10,0,0,,,1,,,78,64
262511,note_on,,,,,48,0,0,,,2,,,74,127
262521,note_off,,,,,10,0,0,,,2,,,76,64
262557,note_off,,,,,36,0,0,,,4,,,57,64
262574,note_on,,,,,17,0,0,,,2,,,73,127
262575,note_on,,,,,1,0,0,,,4,,,52,127
262575,note_on,,,,,0,0,0,,,4,,,57,127
262579,note_off,,,,,4,0,0,,,4,,,50,64
262585,note_off,,,,,6,0,0,,,2,,,74,64
262641,note_on,,,,,56,0,0,,,2,,,76,127
262652,note_off,,,,,11,0,0,,,2,,,73,64
262710,note_on,,,,,58,0,0,,,2,,,74,127
262712,note_on,,,,,2,0,0,,,4,,,56,127
262721,note_off,,,,,9,0,0,,,2,,,76,64
262725,note_off,,,,,4,0,0,,,4,,,57,64
262775,note_on,,,,,50,0,0,,,2,,,71,127
262787,note_off,,,,,12,0,0,,,2,,,74,64
262840,note_off,,,,,53,0,0,,,2,,,71,64
262841,note_on,,,,,1,0,0,,,4,,,64,124
262841,note_on,,,,,0,0,0,,,2,,,71,127
262843,note_on,,,,,2,0,0,,,4,,,62,127
262844,note_on,,,,,1,0,0,,,4,,,57,127
262856,note_off,,,,,12,0,0,,,4,,,56,64
262961,note_off,,,,,105,0,0,,,4,,,52,64
262971,note_on,,,,,10,0,0,,,4,,,52,127
262984,note_off,,,,,13,0,0,,,4,,,57,64
263080,note_off,,,,,96,0,0,,,2,,,71,64
263082,note_off,,,,,2,0,0,,,4,,,62,64
263092,note_on,,,,,10,0,0,,,4,,,61,127
263092,note_on,,,,,0,0,0,,,2,,,69,126
263093,note_on,,,,,1,0,0,,,4,,,45,127
263106,note_off,,,,,13,0,0,,,4,,,52,64
263252,note_off,,,,,146,0,0,,,4,,,64,64
263354,note_off,,,,,102,0,0,,,4,,,61,64
263368,note_on,,,,,14,0,0,,,4,,,61,127
263368,note_on,,,,,0,0,0,,,4,,,57,127
263382,note_off,,,,,14,0,0,,,2,,,69,64
263436,note_off,,,,,54,0,0,,,4,,,57,64
263436,note_off,,,,,0,0,0,,,4,,,61,64
263442,note_on,,,,,6,0,0,,,4,,,64,124
263443,note_on,,,,,1,0,0,,,4,,,61,127
263505,note_off,,,,,62,0,0,,,4,,,61,64
263505,note_off,,,,,0,0,0,,,4,,,64,64
263511,note_on,,,,,6,0,0,,,4,,,62,127
263512,note_on,,,,,1,0,0,,,4,,,59,127
263578,note_off,,,,,66,0,0,,,4,,,62,64
263578,note_off,,,,,0,0,0,,,4,,,59,64
263581,note_on,,,,,3,0,0,,,4,,,59,127
263582,note_on,,,,,1,0,0,,,4,,,56,127
263642,note_off,,,,,60,0,0,,,4,,,45,64
263653,note_off,,,,,11,0,0,,,4,,,59,64
263654,note_off,,,,,1,0,0,,,4,,,56,64
263658,note_on,,,,,4,0,0,,,4,,,59,126
263659,note_on,,,,,1,0,0,,,4,,,56,127
263660,note_on,,,,,1,0,0,,,4,,,45,127
263660,note_on,,,,,0,0,0,,,4,,,52,127
263662,note_on,,,,,2,0,0,,,4,,,50,127
264195,note_off,,,,,533,0,0,,,4,,,59,64
264218,note_off,,,,,23,0,0,,,4,,,52,64
264219,note_off,,,,,1,0,0,,,4,,,56,64
264219,note_on,,,,,0,0,0,,,4,,,57,127
264220,note_off,,,,,1,0,0,,,4,,,45,64
264220,note_on,,,,,0,0,0,,,4,,,49,127
264222,note_off,,,,,2,0,0,,,4,,,50,64
266872,note_off,,,,,2650,0,0,,,4,,,57,64
266874,note_off,,,,,2,0,0,,,4,,,49,64
267214,note_on,,,,,340,0,0,,,2,,,69,118
267418,note_off,,,,,204,0,0,,,2,,,69,64
267423,note_on,,,,,5,0,0,,,2,,,69,118
267628,note_off,,,,,205,0,0,,,2,,,69,64
267634,note_on,,,,,6,0,0,,,4,,,62,127
267634,note_on,,,,,0,0,0,,,2,,,74,113
267742,note_on,,,,,108,0,0,,,2,,,69,118
267842,note_off,,,,,100,0,0,,,4,,,62,64
267848,note_on,,,,,6,0,0,,,4,,,66,127
267948,note_off,,,,,100,0,0,,,2,,,69,64
267951,note_on,,,,,3,0,0,,,2,,,69,118
268049,note_off,,,,,98,0,0,,,4,,,66,64
268055,note_on,,,,,6,0,0,,,2,,,73,117
268056,note_on,,,,,1,0,0,,,4,,,59,127
268058,note_off,,,,,2,0,0,,,2,,,74,64
268066,note_off,,,,,8,0,0,,,2,,,69,64
268160,note_on,,,,,94,0,0,,,4,,,66,127
268160,note_on,,,,,0,0,0,,,2,,,74,113
268170,note_off,,,,,10,0,0,,,2,,,73,64
268258,note_off,,,,,88,0,0,,,4,,,59,64
268264,note_on,,,,,6,0,0,,,4,,,62,127
268264,note_on,,,,,0,0,0,,,2,,,76,113
268274,note_off,,,,,10,0,0,,,2,,,74,64
268358,note_off,,,,,84,0,0,,,4,,,66,64
268365,note_on,,,,,7,0,0,,,4,,,66,127
268365,note_on,,,,,0,0,0,,,1,,,78,110
268375,note_off,,,,,10,0,0,,,2,,,76,64
268457,note_off,,,,,82,0,0,,,4,,,62,64
268464,note_on,,,,,7,0,0,,,4,,,55,127
268464,note_on,,,,,0,0,0,,,1,,,79,110
268474,note_off,,,,,10,0,0,,,1,,,78,64
268566,note_off,,,,,92,0,0,,,4,,,66,64
268570,note_on,,,,,4,0,0,,,2,,,76,113
268571,note_on,,,,,1,0,0,,,4,,,64,126
268665,note_off,,,,,94,0,0,,,1,,,79,64
268665,note_off,,,,,0,0,0,,,4,,,55,64
268670,note_on,,,,,5,0,0,,,4,,,59,127
268670,note_on,,,,,0,0,0,,,1,,,79,110
268764,note_off,,,,,94,0,0,,,4,,,64,64
268765,note_off,,,,,1,0,0,,,2,,,76,64
268770,note_on,,,,,5,0,0,,,4,,,64,126
268770,note_on,,,,,0,0,0,,,2,,,76,113
268782,note_off,,,,,12,0,0,,,1,,,79,64
268866,note_off,,,,,84,0,0,,,4,,,59,64
268871,note_on,,,,,5,0,0,,,4,,,57,127
268871,note_on,,,,,0,0,0,,,2,,,74,113
268883,note_off,,,,,12,0,0,,,2,,,76,64
268966,note_off,,,,,83,0,0,,,4,,,64,64
268971,note_on,,,,,5,0,0,,,2,,,73,117
268972,note_on,,,,,1,0,0,,,2,,,67,127
268981,note_off,,,,,9,0,0,,,2,,,74,64
269068,note_off,,,,,87,0,0,,,4,,,57,64
269074,note_on,,,,,6,0,0,,,2,,,71,116
269075,note_on,,,,,1,0,0,,,4,,,64,126
269086,note_off,,,,,11,0,0,,,2,,,73,64
269177,note_off,,,,,91,0,0,,,2,,,67,64
269183,note_on,,,,,6,0,0,,,2,,,67,127
269183,note_on,,,,,0,0,0,,,2,,,69,118
269193,note_off,,,,,10,0,0,,,2,,,71,64
269283,note_off,,,,,90,0,0,,,4,,,64,64
269289,note_on,,,,,6,0,0,,,1,,,81,110
269290,note_on,,,,,1,0,0,,,4,,,62,127
269388,note_off,,,,,98,0,0,,,2,,,69,64
269388,note_off,,,,,0,0,0,,,2,,,67,64
269393,note_on,,,,,5,0,0,,,2,,,69,118
269393,note_on,,,,,0,0,0,,,1,,,78,110
269490,note_off,,,,,97,0,0,,,4,,,62,64
269490,note_off,,,,,0,0,0,,,1,,,81,64
269495,note_on,,,,,5,0,0,,,4,,,66,127
269495,note_on,,,,,0,0,0,,,1,,,81,110
269590,note_off,,,,,95,0,0,,,1,,,78,64
269590,note_off,,,,,0,0,0,,,2,,,69,64
269596,note_on,,,,,6,0,0,,,1,,,78,110
269597,note_on,,,,,1,0,0,,,2,,,69,118
269693,note_off,,,,,96,0,0,,,4,,,66,64
269694,note_off,,,,,1,0,0,,,1,,,81,64
269700,note_on,,,,,6,0,0,,,4,,,55,127
269700,note_on,,,,,0,0,0,,,1,,,83,110
269797,note_off,,,,,97,0,0,,,1,,,78,64
269797,note_off,,,,,0,0,0,,,2,,,69,64
269802,note_on,,,,,5,0,0,,,4,,,64,126
269802,note_on,,,,,0,0,0,,,1,,,79,110
269899,note_off,,,,,97,0,0,,,1,,,83,64
269899,note_off,,,,,0,0,0,,,4,,,55,64
269904,note_on,,,,,5,0,0,,,4,,,59,127
269904,note_on,,,,,0,0,0,,,1,,,83,110
270000,note_off,,,,,96,0,0,,,4,,,64,64
270001,note_off,,,,,1,0,0,,,1,,,79,64
270005,note_on,,,,,4,0,0,,,1,,,79,110
270006,note_on,,,,,1,0,0,,,4,,,64,126
270100,note_off,,,,,94,0,0,,,1,,,79,64
270104,note_off,,,,,4,0,0,,,4,,,59,64
270105,note_off,,,,,1,0,0,,,1,,,83,64
270109,note_on,,,,,4,0,0,,,4,,,62,127
270109,note_on,,,,,0,0,0,,,1,,,78,110
270110,note_on,,,,,1,0,0,,,4,,,57,127
270119,note_off,,,,,9,0,0,,,4,,,64,64
270311,note_off,,,,,192,0,0,,,4,,,62,64
270320,note_on,,,,,9,0,0,,,2,,,76,113
270321,note_on,,,,,1,0,0,,,4,,,61,127
270327,note_off,,,,,6,0,0,,,1,,,78,64
270514,note_off,,,,,187,0,0,,,2,,,76,64
270521,note_on,,,,,7,0,0,,,2,,,69,118
270698,note_off,,,,,177,0,0,,,2,,,69,64
270732,note_on,,,,,34,0,0,,,2,,,69,118
270937,note_off,,,,,205,0,0,,,2,,,69,64
270944,note_on,,,,,7,0,0,,,2,,,74,117
270944,note_on,,,,,0,0,0,,,4,,,54,127
270952,note_off,,,,,8,0,0,,,4,,,61,64
270962,note_off,,,,,10,0,0,,,4,,,57,64
271051,note_on,,,,,89,0,0,,,4,,,62,127
271151,note_off,,,,,100,0,0,,,4,,,54,64
271157,note_on,,,,,6,0,0,,,4,,,57,127
271259,note_off,,,,,102,0,0,,,4,,,62,64
271264,note_on,,,,,5,0,0,,,4,,,62,127
271358,note_off,,,,,94,0,0,,,2,,,74,64
271358,note_off,,,,,0,0,0,,,4,,,57,64
271361,note_on,,,,,3,0,0,,,1,,,78,114
271362,note_on,,,,,1,0,0,,,4,,,50,127
271458,note_off,,,,,96,0,0,,,4,,,62,64
271464,note_on,,,,,6,0,0,,,2,,,76,117
271464,note_on,,,,,0,0,0,,,4,,,59,127
271475,note_off,,,,,11,0,0,,,1,,,78,64
271559,note_off,,,,,84,0,0,,,4,,,50,64
271565,note_on,,,,,6,0,0,,,4,,,54,127
271565,note_on,,,,,0,0,0,,,2,,,74,117
271577,note_off,,,,,12,0,0,,,2,,,76,64
271662,note_off,,,,,85,0,0,,,4,,,59,64
271668,note_on,,,,,6,0,0,,,4,,,59,127
271668,note_on,,,,,0,0,0,,,2,,,73,117
271678,note_off,,,,,10,0,0,,,2,,,74,64
271764,note_off,,,,,86,0,0,,,4,,,54,64
271768,note_on,,,,,4,0,0,,,2,,,71,116
271769,note_on,,,,,1,0,0,,,4,,,52,127
271781,note_off,,,,,12,0,0,,,2,,,73,64
271863,note_off,,,,,82,0,0,,,4,,,59,64
271869,note_on,,,,,6,0,0,,,2,,,74,117
271870,note_on,,,,,1,0,0,,,4,,,59,127
271966,note_off,,,,,96,0,0,,,4,,,52,64
271967,note_off,,,,,1,0,0,,,2,,,71,64
271971,note_on,,,,,4,0,0,,,4,,,56,127
271971,note_on,,,,,0,0,0,,,2,,,71,116
272064,note_off,,,,,93,0,0,,,2,,,74,64
272064,note_off,,,,,0,0,0,,,4,,,59,64
272071,note_on,,,,,7,0,0,,,4,,,59,127
272071,note_on,,,,,0,0,0,,,2,,,74,117
272168,note_off,,,,,97,0,0,,,2,,,71,64
272168,note_off,,,,,0,0,0,,,4,,,56,64
272172,note_on,,,,,4,0,0,,,1,,,83,114
272173,note_on,,,,,1,0,0,,,4,,,56,127
272269,note_off,,,,,96,0,0,,,4,,,59,64
272270,note_off,,,,,1,0,0,,,2,,,74,64
272274,note_on,,,,,4,0,0,,,1,,,81,114
272275,note_on,,,,,1,0,0,,,4,,,62,127
272287,note_off,,,,,12,0,0,,,1,,,83,64
272369,note_off,,,,,82,0,0,,,4,,,56,64
272375,note_on,,,,,6,0,0,,,1,,,80,114
272376,note_on,,,,,1,0,0,,,4,,,59,127
272386,note_off,,,,,10,0,0,,,1,,,81,64
272472,note_off,,,,,86,0,0,,,4,,,62,64
272476,note_on,,,,,4,0,0,,,1,,,78,114
272476,note_on,,,,,0,0,0,,,4,,,62,127
272488,note_off,,,,,12,0,0,,,1,,,80,64
272569,note_off,,,,,81,0,0,,,4,,,62,64
272573,note_off,,,,,4,0,0,,,4,,,59,64
272577,note_on,,,,,4,0,0,,,4,,,61,127
272577,note_on,,,,,0,0,0,,,2,,,76,117
272578,note_on,,,,,1,0,0,,,4,,,57,127
272588,note_off,,,,,10,0,0,,,1,,,78,64
272680,note_on,,,,,92,0,0,,,1,,,81,114
272692,note_off,,,,,12,0,0,,,2,,,76,64
272774,note_off,,,,,82,0,0,,,4,,,57,64
272775,note_off,,,,,1,0,0,,,4,,,61,64
272783,note_on,,,,,8,0,0,,,1,,,78,114
272784,note_on,,,,,1,0,0,,,4,,,50,127
272784,note_on,,,,,0,0,0,,,4,,,59,127
272794,note_off,,,,,10,0,0,,,1,,,81,64
272882,note_on,,,,,88,0,0,,,2,,,74,117
272893,note_off,,,,,11,0,0,,,1,,,78,64
272975,note_off,,,,,82,0,0,,,4,,,59,64
272975,note_off,,,,,0,0,0,,,4,,,50,64
272983,note_on,,,,,8,0,0,,,2,,,73,117
272984,note_on,,,,,1,0,0,,,4,,,52,127
272984,note_on,,,,,0,0,0,,,4,,,57,127
272992,note_off,,,,,8,0,0,,,2,,,74,64
273084,note_on,,,,,92,0,0,,,2,,,76,117
273094,note_off,,,,,10,0,0,,,2,,,73,64
273179,note_off,,,,,85,0,0,,,4,,,52,64
273180,note_off,,,,,1,0,0,,,4,,,57,64
273188,note_on,,,,,8,0,0,,,4,,,56,127
273188,note_on,,,,,0,0,0,,,2,,,74,117
273189,note_on,,,,,1,0,0,,,4,,,52,127
273198,note_off,,,,,9,0,0,,,2,,,76,64
273288,note_on,,,,,90,0,0,,,2,,,71,116
273289,note_on,,,,,1,0,0,,,4,,,62,127
273299,note_off,,,,,10,0,0,,,2,,,74,64
273384,note_off,,,,,85,0,0,,,4,,,62,64
273385,note_off,,,,,1,0,0,,,4,,,56,64
273385,note_off,,,,,0,0,0,,,4,,,52,64
273385,note_off,,,,,0,0,0,,,2,,,71,64
273392,note_on,,,,,7,0,0,,,2,,,71,116
273393,note_on,,,,,1,0,0,,,4,,,57,127
273393,note_on,,,,,0,0,0,,,4,,,62,127
273394,note_on,,,,,1,0,0,,,4,,,45,127
273394,note_on,,,,,0,0,0,,,4,,,52,127
273601,note_off,,,,,207,0,0,,,4,,,62,64
273602,note_off,,,,,1,0,0,,,2,,,71,64
273610,note_on,,,,,8,0,0,,,2,,,69,118
273611,note_on,,,,,1,0,0,,,4,,,61,127
273790,note_off,,,,,179,0,0,,,2,,,69,64
273816,note_off,,,,,26,0,0,,,4,,,61,64
273828,note_on,,,,,12,0,0,,,2,,,69,118
274009,note_off,,,,,181,0,0,,,2,,,69,64
274041,note_off,,,,,32,0,0,,,4,,,57,64
274044,note_on,,,,,3,0,0,,,2,,,69,118
274253,note_off,,,,,209,0,0,,,2,,,69,64
274257,note_on,,,,,4,0,0,,,2,,,74,117
274258,note_on,,,,,1,0,0,,,4,,,62,127
274273,note_off,,,,,15,0,0,,,4,,,52,64
274362,note_on,,,,,89,0,0,,,2,,,69,118
274465,note_on,,,,,103,0,0,,,4,,,66,127
274562,note_off,,,,,97,0,0,,,2,,,69,64
274563,note_off,,,,,1,0,0,,,4,,,62,64
274568,note_on,,,,,5,0,0,,,2,,,69,118
274635,note_off,,,,,67,0,0,,,4,,,45,64
274664,note_off,,,,,29,0,0,,,2,,,74,64
274670,note_on,,,,,6,0,0,,,4,,,59,127
274670,note_on,,,,,0,0,0,,,2,,,73,117
274771,note_off,,,,,101,0,0,,,2,,,69,64
274771,note_off,,,,,0,0,0,,,4,,,66,64
274776,note_on,,,,,5,0,0,,,4,,,66,127
274776,note_on,,,,,0,0,0,,,2,,,74,117
274786,note_off,,,,,10,0,0,,,2,,,73,64
274871,note_off,,,,,85,0,0,,,4,,,59,64
274876,note_on,,,,,5,0,0,,,2,,,76,117
274877,note_on,,,,,1,0,0,,,4,,,62,127
274887,note_off,,,,,10,0,0,,,2,,,74,64
274971,note_off,,,,,84,0,0,,,4,,,66,64
274975,note_on,,,,,4,0,0,,,1,,,78,114
274976,note_on,,,,,1,0,0,,,4,,,66,127
274988,note_off,,,,,12,0,0,,,2,,,76,64
275072,note_off,,,,,84,0,0,,,4,,,62,64
275078,note_on,,,,,6,0,0,,,1,,,79,114
275078,note_on,,,,,0,0,0,,,4,,,55,127
275088,note_off,,,,,10,0,0,,,1,,,78,64
275173,note_off,,,,,85,0,0,,,4,,,66,64
275179,note_on,,,,,6,0,0,,,4,,,64,126
275179,note_on,,,,,0,0,0,,,2,,,76,117
275275,note_off,,,,,96,0,0,,,4,,,55,64
275275,note_off,,,,,0,0,0,,,1,,,79,64
275281,note_on,,,,,6,0,0,,,1,,,79,114
275282,note_on,,,,,1,0,0,,,4,,,59,127
275375,note_off,,,,,93,0,0,,,2,,,76,64
275375,note_off,,,,,0,0,0,,,4,,,64,64
275380,note_on,,,,,5,0,0,,,4,,,64,126
275380,note_on,,,,,0,0,0,,,2,,,76,117
275390,note_off,,,,,10,0,0,,,1,,,79,64
275476,note_off,,,,,86,0,0,,,4,,,59,64
275483,note_on,,,,,7,0,0,,,4,,,57,127
275483,note_on,,,,,0,0,0,,,2,,,74,117
275493,note_off,,,,,10,0,0,,,2,,,76,64
275579,note_off,,,,,86,0,0,,,4,,,64,64
275585,note_on,,,,,6,0,0,,,2,,,73,117
275586,note_on,,,,,1,0,0,,,2,,,67,127
275595,note_off,,,,,9,0,0,,,2,,,74,64
275686,note_off,,,,,91,0,0,,,4,,,57,64
275687,note_on,,,,,1,0,0,,,4,,,64,126
275687,note_on,,,,,0,0,0,,,2,,,71,116
275696,note_off,,,,,9,0,0,,,2,,,73,64
275781,note_off,,,,,85,0,0,,,2,,,67,64
275785,note_on,,,,,4,0,0,,,2,,,69,118
275785,note_on,,,,,0,0,0,,,2,,,67,127
275795,note_off,,,,,10,0,0,,,2,,,71,64
275884,note_off,,,,,89,0,0,,,4,,,64,64
275885,note_on,,,,,1,0,0,,,4,,,62,127
275885,note_on,,,,,0,0,0,,,1,,,81,110
275986,note_off,,,,,101,0,0,,,2,,,67,64
275986,note_off,,,,,0,0,0,,,2,,,69,64
275990,note_on,,,,,4,0,0,,,1,,,78,114
275991,note_on,,,,,1,0,0,,,2,,,69,118
276087,note_off,,,,,96,0,0,,,1,,,81,64
276091,note_on,,,,,4,0,0,,,1,,,81,110
276092,note_on,,,,,1,0,0,,,4,,,66,127
276096,note_off,,,,,4,0,0,,,4,,,62,64
276186,note_off,,,,,90,0,0,,,1,,,78,64
276186,note_off,,,,,0,0,0,,,2,,,69,64
276191,note_on,,,,,5,0,0,,,1,,,78,114
276192,note_on,,,,,1,0,0,,,2,,,69,118
276292,note_off,,,,,100,0,0,,,1,,,81,64
276298,note_on,,,,,6,0,0,,,4,,,55,127
276298,note_on,,,,,0,0,0,,,1,,,83,110
276302,note_off,,,,,4,0,0,,,4,,,66,64
276396,note_off,,,,,94,0,0,,,2,,,69,64
276397,note_off,,,,,1,0,0,,,1,,,78,64
276403,note_on,,,,,6,0,0,,,1,,,79,114
276404,note_on,,,,,1,0,0,,,4,,,64,126
276502,note_off,,,,,98,0,0,,,1,,,83,64
276508,note_on,,,,,6,0,0,,,1,,,83,110
276508,note_on,,,,,0,0,0,,,4,,,59,127
276511,note_off,,,,,3,0,0,,,4,,,55,64
276603,note_off,,,,,92,0,0,,,1,,,79,64
276603,note_off,,,,,0,0,0,,,4,,,64,64
276608,note_on,,,,,5,0,0,,,1,,,79,114
276608,note_on,,,,,0,0,0,,,4,,,64,126
276703,note_off,,,,,95,0,0,,,4,,,59,64
276703,note_off,,,,,0,0,0,,,1,,,83,64
276708,note_off,,,,,5,0,0,,,4,,,64,64
276708,note_off,,,,,0,0,0,,,1,,,79,64
276708,note_on,,,,,0,0,0,,,1,,,78,114
276709,note_on,,,,,1,0,0,,,4,,,57,127
276709,note_on,,,,,0,0,0,,,4,,,62,127
276901,note_off,,,,,192,0,0,,,4,,,62,64
276911,note_off,,,,,10,0,0,,,1,,,78,64
276913,note_on,,,,,2,0,0,,,4,,,61,127
276913,note_on,,,,,0,0,0,,,2,,,76,117
277117,note_off,,,,,204,0,0,,,2,,,76,64
277125,note_on,,,,,8,0,0,,,2,,,69,118
277306,note_off,,,,,181,0,0,,,2,,,69,64
277342,note_on,,,,,36,0,0,,,2,,,69,118
277544,note_off,,,,,202,0,0,,,2,,,69,64
277549,note_off,,,,,5,0,0,,,4,,,61,64
277550,note_off,,,,,1,0,0,,,4,,,57,64
277550,note_on,,,,,0,0,0,,,2,,,74,117
277551,note_on,,,,,1,0,0,,,4,,,54,127
277655,note_on,,,,,104,0,0,,,4,,,62,127
277755,note_off,,,,,100,0,0,,,4,,,54,64
277759,note_on,,,,,4,0,0,,,4,,,57,127
277853,note_off,,,,,94,0,0,,,4,,,62,64
277859,note_on,,,,,6,0,0,,,4,,,62,127
277953,note_off,,,,,94,0,0,,,4,,,57,64
277959,note_on,,,,,6,0,0,,,4,,,50,127
277959,note_on,,,,,0,0,0,,,1,,,78,114
277963,note_off,,,,,4,0,0,,,2,,,74,64
278057,note_off,,,,,94,0,0,,,4,,,62,64
278064,note_on,,,,,7,0,0,,,4,,,59,127
278064,note_on,,,,,0,0,0,,,2,,,76,117
278074,note_off,,,,,10,0,0,,,1,,,78,64
278160,note_off,,,,,86,0,0,,,4,,,50,64
278166,note_on,,,,,6,0,0,,,2,,,74,117
278167,note_on,,,,,1,0,0,,,4,,,54,127
278176,note_off,,,,,9,0,0,,,2,,,76,64
278261,note_off,,,,,85,0,0,,,4,,,59,64
278267,note_on,,,,,6,0,0,,,2,,,73,117
278268,note_on,,,,,1,0,0,,,4,,,59,127
278277,note_off,,,,,9,0,0,,,2,,,74,64
278360,note_off,,,,,83,0,0,,,4,,,54,64
278366,note_on,,,,,6,0,0,,,4,,,52,127
278366,note_on,,,,,0,0,0,,,2,,,71,116
278376,note_off,,,,,10,0,0,,,2,,,73,64
278461,note_off,,,,,85,0,0,,,4,,,59,64
278467,note_on,,,,,6,0,0,,,4,,,59,127
278467,note_on,,,,,0,0,0,,,2,,,74,117
278477,note_off,,,,,10,0,0,,,2,,,71,64
278564,note_off,,,,,87,0,0,,,4,,,52,64
278569,note_on,,,,,5,0,0,,,2,,,71,116
278570,note_on,,,,,1,0,0,,,4,,,56,127
278580,note_off,,,,,10,0,0,,,2,,,74,64
278664,note_off,,,,,84,0,0,,,4,,,59,64
278670,note_on,,,,,6,0,0,,,2,,,74,117
278671,note_on,,,,,1,0,0,,,4,,,59,127
278681,note_off,,,,,10,0,0,,,2,,,71,64
278763,note_off,,,,,82,0,0,,,4,,,56,64
278769,note_on,,,,,6,0,0,,,1,,,83,114
278770,note_on,,,,,1,0,0,,,4,,,56,127
278780,note_off,,,,,10,0,0,,,2,,,74,64
278866,note_off,,,,,86,0,0,,,4,,,59,64
278872,note_on,,,,,6,0,0,,,4,,,62,127
278872,note_on,,,,,0,0,0,,,1,,,81,114
278882,note_off,,,,,10,0,0,,,1,,,83,64
278963,note_off,,,,,81,0,0,,,4,,,56,64
278969,note_on,,,,,6,0,0,,,4,,,59,127
278969,note_on,,,,,0,0,0,,,1,,,80,114
278977,note_off,,,,,8,0,0,,,1,,,81,64
279066,note_off,,,,,89,0,0,,,4,,,62,64
279070,note_on,,,,,4,0,0,,,4,,,62,127
279070,note_on,,,,,0,0,0,,,1,,,78,114
279082,note_off,,,,,12,0,0,,,1,,,80,64
279167,note_off,,,,,85,0,0,,,4,,,59,64
279172,note_off,,,,,5,0,0,,,4,,,62,64
279173,note_on,,,,,1,0,0,,,4,,,61,127
279173,note_on,,,,,0,0,0,,,2,,,76,117
279174,note_on,,,,,1,0,0,,,4,,,57,127
279184,note_off,,,,,10,0,0,,,1,,,78,64
279274,note_on,,,,,90,0,0,,,1,,,81,114
279286,note_off,,,,,12,0,0,,,2,,,76,64
279366,note_off,,,,,80,0,0,,,4,,,61,64
279366,note_off,,,,,0,0,0,,,4,,,57,64
279374,note_on,,,,,8,0,0,,,1,,,78,114
279374,note_on,,,,,0,0,0,,,4,,,59,127
279375,note_on,,,,,1,0,0,,,4,,,50,127
279384,note_off,,,,,9,0,0,,,1,,,81,64
279471,note_on,,,,,87,0,0,,,2,,,74,117
279481,note_off,,,,,10,0,0,,,1,,,78,64
279562,note_off,,,,,81,0,0,,,4,,,50,64
279563,note_off,,,,,1,0,0,,,4,,,59,64
279571,note_on,,,,,8,0,0,,,4,,,57,127
279571,note_on,,,,,0,0,0,,,2,,,73,117
279572,note_on,,,,,1,0,0,,,4,,,52,127
279581,note_off,,,,,9,0,0,,,2,,,74,64
279672,note_on,,,,,91,0,0,,,2,,,76,117
279682,note_off,,,,,10,0,0,,,2,,,73,64
279765,note_off,,,,,83,0,0,,,4,,,57,64
279765,note_off,,,,,0,0,0,,,4,,,52,64
279773,note_on,,,,,8,0,0,,,2,,,74,117
279774,note_on,,,,,1,0,0,,,4,,,52,127
279774,note_on,,,,,0,0,0,,,4,,,56,127
279784,note_off,,,,,10,0,0,,,2,,,76,64
279876,note_on,,,,,92,0,0,,,2,,,71,116
279877,note_on,,,,,1,0,0,,,4,,,62,127
279887,note_off,,,,,10,0,0,,,2,,,74,64
279973,note_off,,,,,86,0,0,,,4,,,62,64
279973,note_off,,,,,0,0,0,,,2,,,71,64
279974,note_off,,,,,1,0,0,,,4,,,56,64
279974,note_off,,,,,0,0,0,,,4,,,52,64
279983,note_on,,,,,9,0,0,,,2,,,71,116
279984,note_on,,,,,1,0,0,,,4,,,52,127
279984,note_on,,,,,0,0,0,,,4,,,57,127
279984,note_on,,,,,0,0,0,,,4,,,62,127
279985,note_on,,,,,1,0,0,,,4,,,45,127
280191,note_off,,,,,206,0,0,,,2,,,71,64
280193,note_off,,,,,2,0,0,,,4,,,62,64
280201,note_on,,,,,8,0,0,,,4,,,61,127
280201,note_on,,,,,0,0,0,,,2,,,69,118
280404,note_on,,,,,203,0,0,,,1,,,81,114
280507,note_on,,,,,103,0,0,,,1,,,80,114
280516,note_off,,,,,9,0,0,,,1,,,81,64
280605,note_on,,,,,89,0,0,,,1,,,81,114
280613,note_off,,,,,8,0,0,,,1,,,80,64
280706,note_on,,,,,93,0,0,,,1,,,80,114
280717,note_off,,,,,11,0,0,,,1,,,81,64
280806,note_off,,,,,89,0,0,,,2,,,69,64
280806,note_off,,,,,0,0,0,,,4,,,61,64
280807,note_on,,,,,1,0,0,,,1,,,81,114
280807,note_on,,,,,0,0,0,,,4,,,63,127
280808,note_on,,,,,1,0,0,,,4,,,59,127
280816,note_off,,,,,8,0,0,,,4,,,52,64
280816,note_off,,,,,0,0,0,,,4,,,45,64
280817,note_off,,,,,1,0,0,,,4,,,57,64
280817,note_off,,,,,0,0,0,,,1,,,80,64
280905,note_on,,,,,88,0,0,,,1,,,83,114
280916,note_off,,,,,11,0,0,,,1,,,81,64
281006,note_off,,,,,90,0,0,,,4,,,59,64
281006,note_off,,,,,0,0,0,,,4,,,63,64
281011,note_on,,,,,5,0,0,,,1,,,80,114
281012,note_on,,,,,1,0,0,,,4,,,52,127
281012,note_on,,,,,0,0,0,,,4,,,64,126
281022,note_off,,,,,10,0,0,,,1,,,83,64
281111,note_on,,,,,89,0,0,,,2,,,76,117
281121,note_off,,,,,10,0,0,,,1,,,80,64
281201,note_off,,,,,80,0,0,,,4,,,52,64
281202,note_off,,,,,1,0,0,,,4,,,64,64
281206,note_on,,,,,4,0,0,,,1,,,79,114
281207,note_on,,,,,1,0,0,,,4,,,57,127
281207,note_on,,,,,0,0,0,,,4,,,61,127
281217,note_off,,,,,10,0,0,,,2,,,76,64
281297,note_on,,,,,80,0,0,,,1,,,81,114
281307,note_off,,,,,10,0,0,,,1,,,79,64
281391,note_off,,,,,84,0,0,,,4,,,57,64
281392,note_off,,,,,1,0,0,,,4,,,61,64
281397,note_on,,,,,5,0,0,,,4,,,50,127
281397,note_on,,,,,0,0,0,,,4,,,62,127
281397,note_on,,,,,0,0,0,,,1,,,78,114
281410,note_off,,,,,13,0,0,,,1,,,81,64
281496,note_on,,,,,86,0,0,,,2,,,74,117
281506,note_off,,,,,10,0,0,,,1,,,78,64
281590,note_on,,,,,84,0,0,,,1,,,86,114
281591,note_on,,,,,1,0,0,,,2,,,71,116
281603,note_off,,,,,12,0,0,,,2,,,74,64
281691,note_on,,,,,88,0,0,,,2,,,69,118
281691,note_on,,,,,0,0,0,,,1,,,85,114
281701,note_off,,,,,10,0,0,,,2,,,71,64
281702,note_off,,,,,1,0,0,,,1,,,86,64
281787,note_off,,,,,85,0,0,,,4,,,62,64
281787,note_on,,,,,0,0,0,,,1,,,83,114
281788,note_on,,,,,1,0,0,,,2,,,67,127
281797,note_off,,,,,9,0,0,,,2,,,69,64
281798,note_off,,,,,1,0,0,,,1,,,85,64
281881,note_on,,,,,83,0,0,,,1,,,82,114
281881,note_on,,,,,0,0,0,,,4,,,66,127
281892,note_off,,,,,11,0,0,,,2,,,67,64
281892,note_off,,,,,0,0,0,,,1,,,83,64
281977,note_on,,,,,85,0,0,,,2,,,67,127
281977,note_on,,,,,0,0,0,,,1,,,83,114
281989,note_off,,,,,12,0,0,,,4,,,66,64
281990,note_off,,,,,1,0,0,,,1,,,82,64
282079,note_on,,,,,89,0,0,,,1,,,81,114
282079,note_on,,,,,0,0,0,,,4,,,66,127
282087,note_off,,,,,8,0,0,,,2,,,67,64
282088,note_off,,,,,1,0,0,,,1,,,83,64
282177,note_on,,,,,89,0,0,,,4,,,64,126
282177,note_on,,,,,0,0,0,,,1,,,79,114
282188,note_off,,,,,11,0,0,,,4,,,66,64
282188,note_off,,,,,0,0,0,,,1,,,81,64
282276,note_on,,,,,88,0,0,,,1,,,78,114
282277,note_on,,,,,1,0,0,,,4,,,62,127
282287,note_off,,,,,10,0,0,,,4,,,64,64
282288,note_off,,,,,1,0,0,,,1,,,79,64
282375,note_on,,,,,87,0,0,,,2,,,76,105
282375,note_on,,,,,0,0,0,,,1,,,79,102
282376,note_on,,,,,1,0,0,,,2,,,69,118
282376,note_on,,,,,0,0,0,,,4,,,61,127
282386,note_off,,,,,10,0,0,,,4,,,62,64
282386,note_off,,,,,0,0,0,,,1,,,78,64
282581,note_on,,,,,195,0,0,,,2,,,74,113
282581,note_on,,,,,0,0,0,,,1,,,78,110
282582,note_on,,,,,1,0,0,,,4,,,62,127
282584,note_off,,,,,2,0,0,,,2,,,76,64
282584,note_off,,,,,0,0,0,,,4,,,61,64
282585,note_off,,,,,1,0,0,,,1,,,79,64
282783,note_on,,,,,198,0,0,,,4,,,61,127
282783,note_on,,,,,0,0,0,,,2,,,76,113
282785,note_off,,,,,2,0,0,,,4,,,62,64
282786,note_off,,,,,1,0,0,,,1,,,78,64
282786,note_off,,,,,0,0,0,,,2,,,74,64
282974,note_off,,,,,188,0,0,,,2,,,69,64
282985,note_on,,,,,11,0,0,,,2,,,74,117
282986,note_on,,,,,1,0,0,,,2,,,68,120
282986,note_on,,,,,0,0,0,,,4,,,59,127
282990,note_off,,,,,4,0,0,,,2,,,76,64
282990,note_off,,,,,0,0,0,,,4,,,61,64
283187,note_on,,,,,197,0,0,,,1,,,78,114
283189,note_on,,,,,2,0,0,,,4,,,62,127
283189,note_on,,,,,0,0,0,,,2,,,69,118
283190,note_off,,,,,1,0,0,,,4,,,59,64
283190,note_on,,,,,0,0,0,,,4,,,57,127
283191,note_off,,,,,1,0,0,,,2,,,68,64
283191,note_off,,,,,0,0,0,,,2,,,74,64
283562,note_off,,,,,371,0,0,,,1,,,78,64
283564,note_off,,,,,2,0,0,,,4,,,62,64
283565,note_off,,,,,1,0,0,,,2,,,69,64
283577,note_on,,,,,12,0,0,,,4,,,61,127
283577,note_on,,,,,0,0,0,,,2,,,76,117
283973,note_on,,,,,396,0,0,,,2,,,69,118
284169,note_off,,,,,196,0,0,,,2,,,69,64
284170,note_off,,,,,1,0,0,,,4,,,50,64
284205,note_off,,,,,35,0,0,,,2,,,76,64
284205,note_off,,,,,0,0,0,,,4,,,61,64
284206,note_on,,,,,1,0,0,,,2,,,69,118
284390,note_off,,,,,184,0,0,,,4,,,57,64
284401,note_off,,,,,11,0,0,,,2,,,69,64
284407,note_on,,,,,6,0,0,,,2,,,74,117
284408,note_on,,,,,1,0,0,,,4,,,62,127
284516,note_on,,,,,108,0,0,,,2,,,69,118
284619,note_off,,,,,103,0,0,,,4,,,62,64
284625,note_on,,,,,6,0,0,,,4,,,66,127
284723,note_off,,,,,98,0,0,,,2,,,69,64
284729,note_on,,,,,6,0,0,,,2,,,69,118
284827,note_off,,,,,98,0,0,,,4,,,66,64
284833,note_on,,,,,6,0,0,,,4,,,59,127
284833,note_on,,,,,0,0,0,,,2,,,73,117
284835,note_off,,,,,2,0,0,,,2,,,74,64
284930,note_off,,,,,95,0,0,,,2,,,69,64
284938,note_on,,,,,8,0,0,,,4,,,66,127
284938,note_on,,,,,0,0,0,,,2,,,74,113
284948,note_off,,,,,10,0,0,,,2,,,73,64
285030,note_off,,,,,82,0,0,,,4,,,59,64
285035,note_on,,,,,5,0,0,,,4,,,62,127
285035,note_on,,,,,0,0,0,,,2,,,76,113
285047,note_off,,,,,12,0,0,,,2,,,74,64
285127,note_off,,,,,80,0,0,,,4,,,66,64
285133,note_on,,,,,6,0,0,,,1,,,78,110
285134,note_on,,,,,1,0,0,,,4,,,66,127
285144,note_off,,,,,10,0,0,,,2,,,76,64
285228,note_off,,,,,84,0,0,,,4,,,62,64
285234,note_on,,,,,6,0,0,,,1,,,79,110
285235,note_on,,,,,1,0,0,,,4,,,55,127
285247,note_off,,,,,12,0,0,,,1,,,78,64
285335,note_off,,,,,88,0,0,,,4,,,66,64
285341,note_on,,,,,6,0,0,,,4,,,64,126
285341,note_on,,,,,0,0,0,,,2,,,76,113
285353,note_off,,,,,12,0,0,,,1,,,79,64
285438,note_off,,,,,85,0,0,,,4,,,55,64
285444,note_on,,,,,6,0,0,,,4,,,59,127
285444,note_on,,,,,0,0,0,,,1,,,79,110
285456,note_off,,,,,12,0,0,,,2,,,76,64
285542,note_off,,,,,86,0,0,,,4,,,64,64
285546,note_on,,,,,4,0,0,,,2,,,76,113
285547,note_on,,,,,1,0,0,,,4,,,64,126
285557,note_off,,,,,10,0,0,,,1,,,79,64
285639,note_off,,,,,82,0,0,,,4,,,59,64
285643,note_on,,,,,4,0,0,,,2,,,74,113
285644,note_on,,,,,1,0,0,,,4,,,57,127
285655,note_off,,,,,11,0,0,,,2,,,76,64
285740,note_off,,,,,85,0,0,,,4,,,64,64
285746,note_on,,,,,6,0,0,,,2,,,67,127
285746,note_on,,,,,0,0,0,,,2,,,73,113
285756,note_off,,,,,10,0,0,,,2,,,74,64
285845,note_off,,,,,89,0,0,,,4,,,57,64
285851,note_on,,,,,6,0,0,,,2,,,71,116
285851,note_on,,,,,0,0,0,,,4,,,64,126
285861,note_off,,,,,10,0,0,,,2,,,73,64
285949,note_off,,,,,88,0,0,,,2,,,67,64
285955,note_on,,,,,6,0,0,,,2,,,69,118
285956,note_on,,,,,1,0,0,,,2,,,67,127
285966,note_off,,,,,10,0,0,,,2,,,71,64
285981,note_off,,,,,15,0,0,,,4,,,64,64
286058,note_off,,,,,77,0,0,,,2,,,67,64
286058,note_on,,,,,0,0,0,,,1,,,81,114
286059,note_on,,,,,1,0,0,,,4,,,62,127
286059,note_on,,,,,0,0,0,,,4,,,66,127
286069,note_off,,,,,10,0,0,,,2,,,69,64
286164,note_on,,,,,95,0,0,,,1,,,86,114
286175,note_off,,,,,11,0,0,,,1,,,81,64
286260,note_on,,,,,85,0,0,,,4,,,55,127
286260,note_on,,,,,0,0,0,,,4,,,64,126
286260,note_on,,,,,0,0,0,,,1,,,83,110
286262,note_off,,,,,2,0,0,,,4,,,62,64
286263,note_off,,,,,1,0,0,,,4,,,66,64
286269,note_off,,,,,6,0,0,,,1,,,86,64
286356,note_on,,,,,87,0,0,,,1,,,79,110
286365,note_off,,,,,9,0,0,,,1,,,83,64
286457,note_on,,,,,92,0,0,,,1,,,78,110
286458,note_on,,,,,1,0,0,,,4,,,57,127
286458,note_on,,,,,0,0,0,,,4,,,62,127
286460,note_off,,,,,2,0,0,,,4,,,55,64
286461,note_off,,,,,1,0,0,,,4,,,64,64
286469,note_off,,,,,8,0,0,,,1,,,79,64
286561,note_on,,,,,92,0,0,,,1,,,81,110
286571,note_off,,,,,10,0,0,,,1,,,78,64
286651,note_off,,,,,80,0,0,,,4,,,57,64
286661,note_on,,,,,10,0,0,,,4,,,61,127
286661,note_on,,,,,0,0,0,,,1,,,79,110
286662,note_on,,,,,1,0,0,,,4,,,57,127
286664,note_off,,,,,2,0,0,,,4,,,62,64
286671,note_off,,,,,7,0,0,,,1,,,81,64
286762,note_on,,,,,91,0,0,,,2,,,76,113
286764,note_on,,,,,2,0,0,,,2,,,67,127
286773,note_off,,,,,9,0,0,,,1,,,79,64
286857,note_off,,,,,84,0,0,,,2,,,76,64
286859,note_off,,,,,2,0,0,,,4,,,57,64
286859,note_off,,,,,0,0,0,,,2,,,67,64
286867,note_on,,,,,8,0,0,,,2,,,76,105
286868,note_on,,,,,1,0,0,,,4,,,62,127
286868,note_on,,,,,0,0,0,,,2,,,67,120
286869,note_on,,,,,1,0,0,,,4,,,50,127
286869,note_on,,,,,0,0,0,,,4,,,57,127
286871,note_off,,,,,2,0,0,,,4,,,61,64
287075,note_off,,,,,204,0,0,,,2,,,76,64
287076,note_off,,,,,1,0,0,,,2,,,67,64
287081,note_on,,,,,5,0,0,,,2,,,74,113
287083,note_on,,,,,2,0,0,,,4,,,66,127
287285,note_on,,,,,202,0,0,,,1,,,81,106
287385,note_on,,,,,100,0,0,,,1,,,80,106
287396,note_off,,,,,11,0,0,,,1,,,81,64
287479,note_on,,,,,83,0,0,,,1,,,81,106
287487,note_off,,,,,8,0,0,,,1,,,80,64
287574,note_on,,,,,87,0,0,,,1,,,80,106
287585,note_off,,,,,11,0,0,,,1,,,81,64
287674,note_off,,,,,89,0,0,,,2,,,74,64
287675,note_off,,,,,1,0,0,,,4,,,66,64
287675,note_on,,,,,0,0,0,,,1,,,81,106
287676,note_off,,,,,1,0,0,,,4,,,50,64
287676,note_on,,,,,0,0,0,,,4,,,59,127
287676,note_on,,,,,0,0,0,,,4,,,63,127
287677,note_off,,,,,1,0,0,,,4,,,62,64
287677,note_off,,,,,0,0,0,,,4,,,57,64
287685,note_off,,,,,8,0,0,,,1,,,80,64
287778,note_on,,,,,93,0,0,,,1,,,83,106
287787,note_off,,,,,9,0,0,,,1,,,81,64
287872,note_on,,,,,85,0,0,,,4,,,64,126
287872,note_on,,,,,0,0,0,,,1,,,80,106
287873,note_on,,,,,1,0,0,,,4,,,52,127
287877,note_off,,,,,4,0,0,,,4,,,63,64
287877,note_off,,,,,0,0,0,,,4,,,59,64
287880,note_off,,,,,3,0,0,,,1,,,83,64
287969,note_on,,,,,89,0,0,,,2,,,76,113
287980,note_off,,,,,11,0,0,,,1,,,80,64
288069,note_on,,,,,89,0,0,,,4,,,61,127
288069,note_on,,,,,0,0,0,,,1,,,79,106
288070,note_on,,,,,1,0,0,,,4,,,57,127
288072,note_off,,,,,2,0,0,,,4,,,52,64
288073,note_off,,,,,1,0,0,,,4,,,64,64
288079,note_off,,,,,6,0,0,,,2,,,76,64
288160,note_on,,,,,81,0,0,,,1,,,81,106
288170,note_off,,,,,10,0,0,,,1,,,79,64
288264,note_on,,,,,94,0,0,,,4,,,50,127
288264,note_on,,,,,0,0,0,,,4,,,62,127
288264,note_on,,,,,0,0,0,,,1,,,78,106
288266,note_off,,,,,2,0,0,,,4,,,57,64
288267,note_off,,,,,1,0,0,,,4,,,61,64
288273,note_off,,,,,6,0,0,,,1,,,81,64
288360,note_on,,,,,87,0,0,,,2,,,74,113
288369,note_off,,,,,9,0,0,,,1,,,78,64
288458,note_on,,,,,89,0,0,,,1,,,86,110
288459,note_on,,,,,1,0,0,,,2,,,71,116
288469,note_off,,,,,10,0,0,,,2,,,74,64
288555,note_on,,,,,86,0,0,,,1,,,85,110
288556,note_on,,,,,1,0,0,,,2,,,69,118
288568,note_off,,,,,12,0,0,,,1,,,86,64
288568,note_off,,,,,0,0,0,,,2,,,71,64
288653,note_on,,,,,85,0,0,,,1,,,83,106
288654,note_off,,,,,1,0,0,,,4,,,62,64
288654,note_on,,,,,0,0,0,,,2,,,67,127
288662,note_off,,,,,8,0,0,,,2,,,69,64
288662,note_off,,,,,0,0,0,,,1,,,85,64
288749,note_on,,,,,87,0,0,,,1,,,82,110
288750,note_on,,,,,1,0,0,,,4,,,66,127
288760,note_off,,,,,10,0,0,,,1,,,83,64
288760,note_off,,,,,0,0,0,,,2,,,67,64
288849,note_on,,,,,89,0,0,,,1,,,83,110
288850,note_on,,,,,1,0,0,,,2,,,67,127
288860,note_off,,,,,10,0,0,,,4,,,66,64
288860,note_off,,,,,0,0,0,,,1,,,82,64
288943,note_on,,,,,83,0,0,,,1,,,81,110
288944,note_on,,,,,1,0,0,,,4,,,66,127
288952,note_off,,,,,8,0,0,,,2,,,67,64
288952,note_off,,,,,0,0,0,,,1,,,83,64
289039,note_on,,,,,87,0,0,,,1,,,79,110
289040,note_on,,,,,1,0,0,,,4,,,64,126
289050,note_off,,,,,10,0,0,,,1,,,81,64
289050,note_off,,,,,0,0,0,,,4,,,66,64
289137,note_on,,,,,87,0,0,,,1,,,78,110
289138,note_on,,,,,1,0,0,,,4,,,62,127
289148,note_off,,,,,10,0,0,,,4,,,64,64
289148,note_off,,,,,0,0,0,,,1,,,79,64
289234,note_on,,,,,86,0,0,,,2,,,69,118
289234,note_on,,,,,0,0,0,,,2,,,76,117
289234,note_on,,,,,0,0,0,,,1,,,79,110
289235,note_on,,,,,1,0,0,,,4,,,61,127
289245,note_off,,,,,10,0,0,,,1,,,78,64
289245,note_off,,,,,0,0,0,,,4,,,62,64
289440,note_on,,,,,195,0,0,,,1,,,78,110
289440,note_on,,,,,0,0,0,,,2,,,74,117
289441,note_on,,,,,1,0,0,,,4,,,62,127
289443,note_off,,,,,2,0,0,,,4,,,61,64
289444,note_off,,,,,1,0,0,,,1,,,79,64
289444,note_off,,,,,0,0,0,,,2,,,76,64
289648,note_on,,,,,204,0,0,,,2,,,76,117
289649,note_on,,,,,1,0,0,,,4,,,61,127
289651,note_off,,,,,2,0,0,,,4,,,62,64
289652,note_off,,,,,1,0,0,,,2,,,74,64
289652,note_off,,,,,0,0,0,,,1,,,78,64
289834,note_off,,,,,182,0,0,,,4,,,50,64
289851,note_on,,,,,17,0,0,,,4,,,59,127
289851,note_on,,,,,0,0,0,,,2,,,68,120
289851,note_on,,,,,0,0,0,,,2,,,74,117
289853,note_off,,,,,2,0,0,,,4,,,61,64
289854,note_off,,,,,1,0,0,,,2,,,76,64
289860,note_off,,,,,6,0,0,,,2,,,69,64
290043,note_off,,,,,183,0,0,,,2,,,68,64
290051,note_on,,,,,8,0,0,,,2,,,69,118
290051,note_on,,,,,0,0,0,,,1,,,78,114
290052,note_on,,,,,1,0,0,,,4,,,57,127
290052,note_on,,,,,0,0,0,,,4,,,62,127
290054,note_off,,,,,2,0,0,,,2,,,74,64
290054,note_off,,,,,0,0,0,,,4,,,59,64
290443,note_off,,,,,389,0,0,,,4,,,62,64
290444,note_off,,,,,1,0,0,,,1,,,78,64
290444,note_on,,,,,0,0,0,,,2,,,76,117
290445,note_on,,,,,1,0,0,,,4,,,61,127
290810,note_off,,,,,365,0,0,,,2,,,69,64
290841,note_on,,,,,31,0,0,,,2,,,69,118
291025,note_off,,,,,184,0,0,,,2,,,69,64
291058,note_off,,,,,33,0,0,,,2,,,76,64
291058,note_off,,,,,0,0,0,,,4,,,61,64
291061,note_on,,,,,3,0,0,,,2,,,69,118
291158,note_off,,,,,97,0,0,,,4,,,57,64
291264,note_off,,,,,106,0,0,,,2,,,69,64
291266,note_on,,,,,2,0,0,,,2,,,74,117
291266,note_on,,,,,0,0,0,,,4,,,62,127
291365,note_on,,,,,99,0,0,,,2,,,69,118
291464,note_off,,,,,99,0,0,,,4,,,62,64
291469,note_on,,,,,5,0,0,,,4,,,66,127
291567,note_off,,,,,98,0,0,,,2,,,69,64
291571,note_on,,,,,4,0,0,,,2,,,69,118
291663,note_off,,,,,92,0,0,,,4,,,66,64
291670,note_on,,,,,7,0,0,,,4,,,59,127
291670,note_on,,,,,0,0,0,,,2,,,73,117
291672,note_off,,,,,2,0,0,,,2,,,74,64
291766,note_off,,,,,94,0,0,,,2,,,69,64
291772,note_on,,,,,6,0,0,,,2,,,74,117
291773,note_on,,,,,1,0,0,,,4,,,66,127
291782,note_off,,,,,9,0,0,,,2,,,73,64
291871,note_off,,,,,89,0,0,,,4,,,59,64
291876,note_on,,,,,5,0,0,,,2,,,76,117
291877,note_on,,,,,1,0,0,,,4,,,62,127
291887,note_off,,,,,10,0,0,,,2,,,74,64
291970,note_off,,,,,83,0,0,,,4,,,66,64
291974,note_on,,,,,4,0,0,,,4,,,66,127
291974,note_on,,,,,0,0,0,,,1,,,78,114
291984,note_off,,,,,10,0,0,,,2,,,76,64
292070,note_off,,,,,86,0,0,,,4,,,62,64
292075,note_on,,,,,5,0,0,,,4,,,55,127
292075,note_on,,,,,0,0,0,,,1,,,79,114
292085,note_off,,,,,10,0,0,,,1,,,78,64
292175,note_off,,,,,90,0,0,,,4,,,66,64
292181,note_on,,,,,6,0,0,,,4,,,64,126
292181,note_on,,,,,0,0,0,,,2,,,76,117
292191,note_off,,,,,10,0,0,,,1,,,79,64
292272,note_off,,,,,81,0,0,,,4,,,55,64
292278,note_on,,,,,6,0,0,,,1,,,79,114
292279,note_on,,,,,1,0,0,,,4,,,59,127
292289,note_off,,,,,10,0,0,,,2,,,76,64
292371,note_off,,,,,82,0,0,,,4,,,64,64
292375,note_on,,,,,4,0,0,,,2,,,76,117
292376,note_on,,,,,1,0,0,,,4,,,64,126
292385,note_off,,,,,9,0,0,,,1,,,79,64
292468,note_off,,,,,83,0,0,,,4,,,59,64
292474,note_on,,,,,6,0,0,,,2,,,74,117
292475,note_on,,,,,1,0,0,,,4,,,57,127
292485,note_off,,,,,10,0,0,,,2,,,76,64
292567,note_off,,,,,82,0,0,,,4,,,64,64
292572,note_on,,,,,5,0,0,,,2,,,73,117
292573,note_on,,,,,1,0,0,,,2,,,67,127
292582,note_off,,,,,9,0,0,,,2,,,74,64
292667,note_off,,,,,85,0,0,,,4,,,57,64
292673,note_on,,,,,6,0,0,,,4,,,64,126
292673,note_on,,,,,0,0,0,,,2,,,71,116
292683,note_off,,,,,10,0,0,,,2,,,73,64
292770,note_off,,,,,87,0,0,,,2,,,67,64
292776,note_on,,,,,6,0,0,,,2,,,67,127
292776,note_on,,,,,0,0,0,,,2,,,69,118
292786,note_off,,,,,10,0,0,,,2,,,71,64
292801,note_off,,,,,15,0,0,,,4,,,64,64
292878,note_off,,,,,77,0,0,,,2,,,67,64
292879,note_on,,,,,1,0,0,,,4,,,66,127
292879,note_on,,,,,0,0,0,,,1,,,81,114
292880,note_on,,,,,1,0,0,,,4,,,62,127
292890,note_off,,,,,10,0,0,,,2,,,69,64
292988,note_on,,,,,98,0,0,,,1,,,86,114
292997,note_off,,,,,9,0,0,,,1,,,81,64
293082,note_on,,,,,85,0,0,,,4,,,64,126
293082,note_on,,,,,0,0,0,,,1,,,83,114
293083,note_on,,,,,1,0,0,,,4,,,55,127
293085,note_off,,,,,2,0,0,,,4,,,66,64
293085,note_off,,,,,0,0,0,,,4,,,62,64
293093,note_off,,,,,8,0,0,,,1,,,86,64
293178,note_on,,,,,85,0,0,,,1,,,79,114
293189,note_off,,,,,11,0,0,,,1,,,83,64
293280,note_on,,,,,91,0,0,,,1,,,78,114
293280,note_on,,,,,0,0,0,,,4,,,62,127
293280,note_on,,,,,0,0,0,,,4,,,57,127
293282,note_off,,,,,2,0,0,,,4,,,55,64
293283,note_off,,,,,1,0,0,,,4,,,64,64
293291,note_off,,,,,8,0,0,,,1,,,79,64
293379,note_on,,,,,88,0,0,,,1,,,81,114
293389,note_off,,,,,10,0,0,,,1,,,78,64
293479,note_off,,,,,90,0,0,,,4,,,57,64
293487,note_on,,,,,8,0,0,,,4,,,61,127
293487,note_on,,,,,0,0,0,,,1,,,79,114
293488,note_on,,,,,1,0,0,,,4,,,57,127
293490,note_off,,,,,2,0,0,,,4,,,62,64
293497,note_off,,,,,7,0,0,,,1,,,81,64
293588,note_on,,,,,91,0,0,,,2,,,76,117
293588,note_on,,,,,0,0,0,,,2,,,67,127
293600,note_off,,,,,12,0,0,,,1,,,79,64
293692,note_off,,,,,92,0,0,,,2,,,76,64
293693,note_off,,,,,1,0,0,,,2,,,67,64
293693,note_off,,,,,0,0,0,,,4,,,57,64
293701,note_on,,,,,8,0,0,,,2,,,76,105
293705,note_on,,,,,4,0,0,,,4,,,62,127
293705,note_on,,,,,0,0,0,,,2,,,67,116
293706,note_on,,,,,1,0,0,,,4,,,50,127
293706,note_on,,,,,0,0,0,,,4,,,57,127
293709,note_off,,,,,3,0,0,,,4,,,61,64
294031,note_off,,,,,322,0,0,,,2,,,76,64
294035,note_off,,,,,4,0,0,,,2,,,67,64
294043,note_on,,,,,8,0,0,,,2,,,74,116
294045,note_on,,,,,2,0,0,,,4,,,66,127
294681,note_off,,,,,636,0,0,,,2,,,74,64
294681,note_off,,,,,0,0,0,,,4,,,66,64
294686,note_off,,,,,5,0,0,,,4,,,57,64
294687,note_off,,,,,1,0,0,,,4,,,62,64
294687,note_off,,,,,0,0,0,,,4,,,50,64
294870,note_on,,,,,183,0,0,,,2,,,69,118
294942,note_on,,,,,72,0,0,,,2,,,71,116
294949,note_off,,,,,7,0,0,,,2,,,69,64
294999,note_on,,,,,50,0,0,,,2,,,68,120
295005,note_off,,,,,6,0,0,,,2,,,71,64
295055,note_on,,,,,50,0,0,,,2,,,69,118
295062,note_off,,,,,7,0,0,,,2,,,68,64
295111,note_on,,,,,49,0,0,,,2,,,71,116
295116,note_off,,,,,5,0,0,,,2,,,69,64
295164,note_on,,,,,48,0,0,,,2,,,73,117
295172,note_off,,,,,8,0,0,,,2,,,71,64
295222,note_on,,,,,50,0,0,,,2,,,74,117
295223,note_on,,,,,1,0,0,,,4,,,50,127
295223,note_on,,,,,0,0,0,,,4,,,54,127
295229,note_off,,,,,6,0,0,,,2,,,73,64
295277,note_on,,,,,48,0,0,,,2,,,76,117
295284,note_off,,,,,7,0,0,,,2,,,74,64
295336,note_on,,,,,52,0,0,,,2,,,73,117
295342,note_off,,,,,6,0,0,,,2,,,76,64
295392,note_on,,,,,50,0,0,,,2,,,74,117
295398,note_off,,,,,6,0,0,,,2,,,73,64
295448,note_on,,,,,50,0,0,,,2,,,76,117
295453,note_off,,,,,5,0,0,,,2,,,74,64
295503,note_on,,,,,50,0,0,,,2,,,73,117
295511,note_off,,,,,8,0,0,,,2,,,76,64
295546,note_off,,,,,35,0,0,,,4,,,54,64
295559,note_off,,,,,13,0,0,,,4,,,50,64
295560,note_on,,,,,1,0,0,,,4,,,54,127
295560,note_on,,,,,0,0,0,,,4,,,57,127
295560,note_on,,,,,0,0,0,,,2,,,74,117
295565,note_off,,,,,5,0,0,,,2,,,73,64
295611,note_on,,,,,46,0,0,,,1,,,78,114
295619,note_off,,,,,8,0,0,,,2,,,74,64
295667,note_on,,,,,48,0,0,,,2,,,76,117
295672,note_off,,,,,5,0,0,,,1,,,78,64
295718,note_on,,,,,46,0,0,,,2,,,74,117
295726,note_off,,,,,8,0,0,,,2,,,76,64
295774,note_on,,,,,48,0,0,,,2,,,76,117
295780,note_off,,,,,6,0,0,,,2,,,74,64
295830,note_on,,,,,50,0,0,,,1,,,78,114
295837,note_off,,,,,7,0,0,,,2,,,76,64
295885,note_off,,,,,48,0,0,,,4,,,54,64
295886,note_off,,,,,1,0,0,,,4,,,57,64
295886,note_on,,,,,0,0,0,,,1,,,79,114
295887,note_on,,,,,1,0,0,,,4,,,52,127
295887,note_on,,,,,0,0,0,,,4,,,59,127
295893,note_off,,,,,6,0,0,,,1,,,78,64
295942,note_on,,,,,49,0,0,,,1,,,81,114
295950,note_off,,,,,8,0,0,,,1,,,79,64
295998,note_on,,,,,48,0,0,,,1,,,78,114
296005,note_off,,,,,7,0,0,,,1,,,81,64
296052,note_on,,,,,47,0,0,,,1,,,79,114
296057,note_off,,,,,5,0,0,,,1,,,78,64
296107,note_on,,,,,50,0,0,,,2,,,76,117
296113,note_off,,,,,6,0,0,,,1,,,79,64
296159,note_on,,,,,46,0,0,,,2,,,74,117
296165,note_off,,,,,6,0,0,,,2,,,76,64
296211,note_off,,,,,46,0,0,,,4,,,59,64
296211,note_off,,,,,0,0,0,,,4,,,52,64
296212,note_on,,,,,1,0,0,,,4,,,57,127
296212,note_on,,,,,0,0,0,,,2,,,73,117
296217,note_off,,,,,5,0,0,,,2,,,74,64
296263,note_on,,,,,46,0,0,,,2,,,76,117
296271,note_off,,,,,8,0,0,,,2,,,73,64
296316,note_on,,,,,45,0,0,,,2,,,75,117
296324,note_off,,,,,8,0,0,,,2,,,76,64
296370,note_on,,,,,46,0,0,,,2,,,76,117
296376,note_off,,,,,6,0,0,,,2,,,75,64
296424,note_on,,,,,48,0,0,,,1,,,78,114
296430,note_off,,,,,6,0,0,,,2,,,76,64
296476,note_on,,,,,46,0,0,,,1,,,79,114
296484,note_off,,,,,8,0,0,,,1,,,78,64
296528,note_off,,,,,44,0,0,,,4,,,57,64
296528,note_on,,,,,0,0,0,,,1,,,80,114
296529,note_on,,,,,1,0,0,,,4,,,54,127
296529,note_on,,,,,0,0,0,,,4,,,62,127
296535,note_off,,,,,6,0,0,,,1,,,79,64
296583,note_on,,,,,48,0,0,,,1,,,81,114
296589,note_off,,,,,6,0,0,,,1,,,80,64
296637,note_on,,,,,48,0,0,,,1,,,78,114
296643,note_off,,,,,6,0,0,,,1,,,81,64
296691,note_on,,,,,48,0,0,,,1,,,80,114
296697,note_off,,,,,6,0,0,,,1,,,78,64
296745,note_on,,,,,48,0,0,,,1,,,81,114
296750,note_off,,,,,5,0,0,,,1,,,80,64
296800,note_on,,,,,50,0,0,,,1,,,78,114
296808,note_off,,,,,8,0,0,,,1,,,81,64
296843,note_off,,,,,35,0,0,,,4,,,62,64
296856,note_off,,,,,13,0,0,,,4,,,54,64
296856,note_on,,,,,0,0,0,,,1,,,82,114
296857,note_on,,,,,1,0,0,,,4,,,55,127
296857,note_on,,,,,0,0,0,,,4,,,62,127
296864,note_off,,,,,7,0,0,,,1,,,78,64
296912,note_on,,,,,48,0,0,,,1,,,83,114
296917,note_off,,,,,5,0,0,,,1,,,82,64
296966,note_on,,,,,49,0,0,,,1,,,79,114
296973,note_off,,,,,7,0,0,,,1,,,83,64
297019,note_on,,,,,46,0,0,,,1,,,82,114
297025,note_off,,,,,6,0,0,,,1,,,79,64
297071,note_on,,,,,46,0,0,,,1,,,83,114
297077,note_off,,,,,6,0,0,,,1,,,82,64
297125,note_on,,,,,48,0,0,,,1,,,79,114
297131,note_off,,,,,6,0,0,,,1,,,83,64
297165,note_off,,,,,34,0,0,,,4,,,62,64
297179,note_off,,,,,14,0,0,,,4,,,55,64
297179,note_on,,,,,0,0,0,,,1,,,78,114
297180,note_on,,,,,1,0,0,,,4,,,57,127
297180,note_on,,,,,0,0,0,,,4,,,62,127
297186,note_off,,,,,6,0,0,,,1,,,79,64
297338,note_off,,,,,152,0,0,,,1,,,78,64
297348,note_on,,,,,10,0,0,,,4,,,61,127
297348,note_on,,,,,0,0,0,,,2,,,76,117
297351,note_off,,,,,3,0,0,,,4,,,62,64
297508,note_off,,,,,157,0,0,,,2,,,76,64
297516,note_on,,,,,8,0,0,,,2,,,69,118
297577,note_on,,,,,61,0,0,,,2,,,71,116
297585,note_off,,,,,8,0,0,,,2,,,69,64
297633,note_on,,,,,48,0,0,,,2,,,68,120
297639,note_off,,,,,6,0,0,,,2,,,71,64
297687,note_on,,,,,48,0,0,,,2,,,69,118
297693,note_off,,,,,6,0,0,,,2,,,68,64
297743,note_on,,,,,50,0,0,,,2,,,71,116
297750,note_off,,,,,7,0,0,,,2,,,69,64
297796,note_on,,,,,46,0,0,,,2,,,73,117
297804,note_off,,,,,8,0,0,,,2,,,71,64
297852,note_on,,,,,48,0,0,,,2,,,74,117
297858,note_off,,,,,6,0,0,,,2,,,73,64
297906,note_on,,,,,48,0,0,,,2,,,76,117
297913,note_off,,,,,7,0,0,,,2,,,74,64
297965,note_on,,,,,52,0,0,,,2,,,73,117
297971,note_off,,,,,6,0,0,,,2,,,76,64
298019,note_on,,,,,48,0,0,,,2,,,74,117
298020,note_on,,,,,1,0,0,,,2,,,69,118
298020,note_on,,,,,0,0,0,,,4,,,66,127
298026,note_off,,,,,6,0,0,,,2,,,73,64
298045,note_off,,,,,19,0,0,,,4,,,61,64
298072,note_on,,,,,27,0,0,,,1,,,86,110
298080,note_off,,,,,8,0,0,,,2,,,74,64
298129,note_on,,,,,49,0,0,,,1,,,85,110
298137,note_off,,,,,8,0,0,,,1,,,86,64
298183,note_on,,,,,46,0,0,,,1,,,83,110
298189,note_off,,,,,6,0,0,,,1,,,85,64
298237,note_on,,,,,48,0,0,,,1,,,85,110
298243,note_off,,,,,6,0,0,,,1,,,83,64
298291,note_on,,,,,48,0,0,,,1,,,82,110
298296,note_off,,,,,5,0,0,,,1,,,85,64
298339,note_off,,,,,43,0,0,,,4,,,66,64
298344,note_on,,,,,5,0,0,,,1,,,83,110
298345,note_on,,,,,1,0,0,,,4,,,62,127
298345,note_on,,,,,0,0,0,,,4,,,66,127
298351,note_off,,,,,6,0,0,,,1,,,82,64
298359,note_off,,,,,8,0,0,,,4,,,57,64
298397,note_on,,,,,38,0,0,,,1,,,85,110
298405,note_off,,,,,8,0,0,,,1,,,83,64
298453,note_on,,,,,48,0,0,,,1,,,81,110
298459,note_off,,,,,6,0,0,,,1,,,85,64
298503,note_on,,,,,44,0,0,,,1,,,80,110
298511,note_off,,,,,8,0,0,,,1,,,81,64
298557,note_on,,,,,46,0,0,,,1,,,81,110
298562,note_off,,,,,5,0,0,,,1,,,80,64
298610,note_on,,,,,48,0,0,,,1,,,78,110
298619,note_off,,,,,9,0,0,,,1,,,81,64
298624,note_off,,,,,5,0,0,,,2,,,69,64
298643,note_off,,,,,19,0,0,,,4,,,62,64
298664,note_off,,,,,21,0,0,,,4,,,66,64
298665,note_on,,,,,1,0,0,,,4,,,62,127
298665,note_on,,,,,0,0,0,,,1,,,80,110
298666,note_on,,,,,1,0,0,,,4,,,59,127
298670,note_off,,,,,4,0,0,,,1,,,78,64
298718,note_on,,,,,48,0,0,,,1,,,81,110
298724,note_off,,,,,6,0,0,,,1,,,80,64
298772,note_on,,,,,48,0,0,,,1,,,78,110
298779,note_off,,,,,7,0,0,,,1,,,81,64
298824,note_on,,,,,45,0,0,,,2,,,76,117
298831,note_off,,,,,7,0,0,,,1,,,78,64
298877,note_on,,,,,46,0,0,,,1,,,78,110
298883,note_off,,,,,6,0,0,,,2,,,76,64
298931,note_on,,,,,48,0,0,,,2,,,75,117
298937,note_off,,,,,6,0,0,,,1,,,78,64
298977,note_off,,,,,40,0,0,,,4,,,59,64
298983,note_off,,,,,6,0,0,,,4,,,62,64
298983,note_on,,,,,0,0,0,,,2,,,76,117
298984,note_on,,,,,1,0,0,,,4,,,56,127
298984,note_on,,,,,0,0,0,,,4,,,59,127
298991,note_off,,,,,7,0,0,,,2,,,75,64
299037,note_on,,,,,46,0,0,,,1,,,78,114
299042,note_off,,,,,5,0,0,,,2,,,76,64
299093,note_on,,,,,51,0,0,,,2,,,74,117
299098,note_off,,,,,5,0,0,,,1,,,78,64
299140,note_off,,,,,42,0,0,,,4,,,56,64
299141,note_off,,,,,1,0,0,,,4,,,59,64
299146,note_on,,,,,5,0,0,,,4,,,57,127
299146,note_on,,,,,0,0,0,,,2,,,73,117
299153,note_off,,,,,7,0,0,,,2,,,74,64
299201,note_on,,,,,48,0,0,,,2,,,76,117
299208,note_off,,,,,7,0,0,,,2,,,73,64
299255,note_on,,,,,47,0,0,,,1,,,81,114
299262,note_off,,,,,7,0,0,,,2,,,76,64
299304,note_off,,,,,42,0,0,,,4,,,57,64
299312,note_on,,,,,8,0,0,,,2,,,77,117
299315,note_on,,,,,3,0,0,,,4,,,59,127
299315,note_on,,,,,0,0,0,,,4,,,50,127
299317,note_off,,,,,2,0,0,,,1,,,81,64
299365,note_on,,,,,48,0,0,,,1,,,78,114
299371,note_off,,,,,6,0,0,,,2,,,77,64
299419,note_on,,,,,48,0,0,,,2,,,74,117
299426,note_off,,,,,7,0,0,,,1,,,78,64
299469,note_off,,,,,43,0,0,,,4,,,50,64
299470,note_off,,,,,1,0,0,,,4,,,59,64
299472,note_on,,,,,2,0,0,,,2,,,75,117
299476,note_on,,,,,4,0,0,,,4,,,52,127
299476,note_on,,,,,0,0,0,,,4,,,61,127
299478,note_off,,,,,2,0,0,,,2,,,74,64
299526,note_on,,,,,48,0,0,,,2,,,76,117
299532,note_off,,,,,6,0,0,,,2,,,75,64
299580,note_on,,,,,48,0,0,,,2,,,73,117
299586,note_off,,,,,6,0,0,,,2,,,76,64
299616,note_off,,,,,30,0,0,,,2,,,73,64
299630,note_off,,,,,14,0,0,,,4,,,52,64
299631,note_off,,,,,1,0,0,,,4,,,61,64
299633,note_on,,,,,2,0,0,,,2,,,73,117
299637,note_on,,,,,4,0,0,,,4,,,62,127
299638,note_on,,,,,1,0,0,,,4,,,52,127
299638,note_on,,,,,0,0,0,,,4,,,56,127
299689,note_on,,,,,51,0,0,,,2,,,74,117
299697,note_off,,,,,8,0,0,,,2,,,73,64
299748,note_on,,,,,51,0,0,,,2,,,71,116
299756,note_off,,,,,8,0,0,,,2,,,74,64
299794,note_off,,,,,38,0,0,,,2,,,71,64
299805,note_off,,,,,11,0,0,,,4,,,52,64
299806,note_off,,,,,1,0,0,,,4,,,62,64
299806,note_off,,,,,0,0,0,,,4,,,56,64
299811,note_on,,,,,5,0,0,,,2,,,71,116
299815,note_on,,,,,4,0,0,,,4,,,57,127
299815,note_on,,,,,0,0,0,,,4,,,62,127
299979,note_off,,,,,164,0,0,,,4,,,62,64
299979,note_off,,,,,0,0,0,,,2,,,71,64
299981,note_on,,,,,2,0,0,,,4,,,61,127
299981,note_on,,,,,0,0,0,,,2,,,69,118
300135,note_off,,,,,154,0,0,,,2,,,69,64
300149,note_on,,,,,14,0,0,,,2,,,69,118
300210,note_on,,,,,61,0,0,,,2,,,71,116
300218,note_off,,,,,8,0,0,,,2,,,69,64
300265,note_on,,,,,47,0,0,,,2,,,68,120
300271,note_off,,,,,6,0,0,,,2,,,71,64
300321,note_on,,,,,50,0,0,,,2,,,69,118
300326,note_off,,,,,5,0,0,,,2,,,68,64
300375,note_on,,,,,49,0,0,,,2,,,71,116
300381,note_off,,,,,6,0,0,,,2,,,69,64
300431,note_on,,,,,50,0,0,,,2,,,73,117
300437,note_off,,,,,6,0,0,,,2,,,71,64
300485,note_on,,,,,48,0,0,,,4,,,54,127
300485,note_on,,,,,0,0,0,,,2,,,74,117
300486,note_on,,,,,1,0,0,,,4,,,50,127
300492,note_off,,,,,6,0,0,,,2,,,73,64
300495,note_off,,,,,3,0,0,,,4,,,57,64
300499,note_off,,,,,4,0,0,,,4,,,61,64
300541,note_on,,,,,42,0,0,,,2,,,76,117
300547,note_off,,,,,6,0,0,,,2,,,74,64
300597,note_on,,,,,50,0,0,,,2,,,73,117
300603,note_off,,,,,6,0,0,,,2,,,76,64
300649,note_on,,,,,46,0,0,,,2,,,74,117
300657,note_off,,,,,8,0,0,,,2,,,73,64
300703,note_on,,,,,46,0,0,,,2,,,76,117
300708,note_off,,,,,5,0,0,,,2,,,74,64
300758,note_on,,,,,50,0,0,,,2,,,73,117
300764,note_off,,,,,6,0,0,,,2,,,76,64
300797,note_off,,,,,33,0,0,,,4,,,54,64
300808,note_off,,,,,11,0,0,,,4,,,50,64
300809,note_on,,,,,1,0,0,,,4,,,57,127
300809,note_on,,,,,0,0,0,,,2,,,74,117
300810,note_on,,,,,1,0,0,,,4,,,54,127
300816,note_off,,,,,6,0,0,,,2,,,73,64
300862,note_on,,,,,46,0,0,,,1,,,78,114
300868,note_off,,,,,6,0,0,,,2,,,74,64
300918,note_on,,,,,50,0,0,,,2,,,76,117
300925,note_off,,,,,7,0,0,,,1,,,78,64
300970,note_on,,,,,45,0,0,,,2,,,74,117
300977,note_off,,,,,7,0,0,,,2,,,76,64
301021,note_on,,,,,44,0,0,,,2,,,76,117
301027,note_off,,,,,6,0,0,,,2,,,74,64
301075,note_on,,,,,48,0,0,,,1,,,78,114
301081,note_off,,,,,6,0,0,,,2,,,76,64
301127,note_off,,,,,46,0,0,,,4,,,54,64
301128,note_off,,,,,1,0,0,,,4,,,57,64
301128,note_on,,,,,0,0,0,,,4,,,59,127
301128,note_on,,,,,0,0,0,,,1,,,79,110
301129,note_on,,,,,1,0,0,,,4,,,52,127
301133,note_off,,,,,4,0,0,,,1,,,78,64
301179,note_on,,,,,46,0,0,,,1,,,81,110
301185,note_off,,,,,6,0,0,,,1,,,79,64
301233,note_on,,,,,48,0,0,,,1,,,78,114
301238,note_off,,,,,5,0,0,,,1,,,81,64
301283,note_on,,,,,45,0,0,,,1,,,79,110
301288,note_off,,,,,5,0,0,,,1,,,78,64
301335,note_on,,,,,47,0,0,,,2,,,76,117
301342,note_off,,,,,7,0,0,,,1,,,79,64
301388,note_on,,,,,46,0,0,,,2,,,74,117
301394,note_off,,,,,6,0,0,,,2,,,76,64
301440,note_off,,,,,46,0,0,,,4,,,52,64
301441,note_off,,,,,1,0,0,,,4,,,59,64
301441,note_on,,,,,0,0,0,,,2,,,73,117
301442,note_on,,,,,1,0,0,,,4,,,57,127
301448,note_off,,,,,6,0,0,,,2,,,74,64
301492,note_on,,,,,44,0,0,,,2,,,76,117
301497,note_off,,,,,5,0,0,,,2,,,73,64
301545,note_on,,,,,48,0,0,,,2,,,75,117
301552,note_off,,,,,7,0,0,,,2,,,76,64
301600,note_on,,,,,48,0,0,,,2,,,76,117
301606,note_off,,,,,6,0,0,,,2,,,75,64
301651,note_on,,,,,45,0,0,,,1,,,78,114
301657,note_off,,,,,6,0,0,,,2,,,76,64
301701,note_on,,,,,44,0,0,,,1,,,79,110
301709,note_off,,,,,8,0,0,,,1,,,78,64
301751,note_off,,,,,42,0,0,,,4,,,57,64
301752,note_on,,,,,1,0,0,,,4,,,54,127
301752,note_on,,,,,0,0,0,,,4,,,62,127
301752,note_on,,,,,0,0,0,,,1,,,80,106
301759,note_off,,,,,7,0,0,,,1,,,79,64
301803,note_on,,,,,44,0,0,,,1,,,81,106
301809,note_off,,,,,6,0,0,,,1,,,80,64
301857,note_on,,,,,48,0,0,,,1,,,78,114
301862,note_off,,,,,5,0,0,,,1,,,81,64
301908,note_on,,,,,46,0,0,,,1,,,80,106
301915,note_off,,,,,7,0,0,,,1,,,78,64
301959,note_on,,,,,44,0,0,,,1,,,81,106
301968,note_off,,,,,9,0,0,,,1,,,80,64
302015,note_on,,,,,47,0,0,,,1,,,78,114
302021,note_off,,,,,6,0,0,,,1,,,81,64
302054,note_off,,,,,33,0,0,,,4,,,62,64
302068,note_off,,,,,14,0,0,,,4,,,54,64
302068,note_on,,,,,0,0,0,,,1,,,82,106
302069,note_on,,,,,1,0,0,,,4,,,55,127
302069,note_on,,,,,0,0,0,,,4,,,62,127
302074,note_off,,,,,5,0,0,,,1,,,78,64
302120,note_on,,,,,46,0,0,,,1,,,83,110
302126,note_off,,,,,6,0,0,,,1,,,82,64
302176,note_on,,,,,50,0,0,,,1,,,79,114
302182,note_off,,,,,6,0,0,,,1,,,83,64
302228,note_on,,,,,46,0,0,,,1,,,82,110
302233,note_off,,,,,5,0,0,,,1,,,79,64
302280,note_on,,,,,47,0,0,,,1,,,83,110
302287,note_off,,,,,7,0,0,,,1,,,82,64
302337,note_on,,,,,50,0,0,,,1,,,79,114
302345,note_off,,,,,8,0,0,,,1,,,83,64
302379,note_off,,,,,34,0,0,,,4,,,62,64
302393,note_off,,,,,14,0,0,,,4,,,55,64
302393,note_on,,,,,0,0,0,,,4,,,62,127
302393,note_on,,,,,0,0,0,,,1,,,78,114
302394,note_on,,,,,1,0,0,,,4,,,57,127
302399,note_off,,,,,5,0,0,,,1,,,79,64
302556,note_off,,,,,157,0,0,,,4,,,62,64
302562,note_off,,,,,6,0,0,,,1,,,78,64
302562,note_on,,,,,0,0,0,,,2,,,76,117
302563,note_on,,,,,1,0,0,,,4,,,61,127
302726,note_off,,,,,163,0,0,,,2,,,76,64
302732,note_on,,,,,6,0,0,,,2,,,69,118
302791,note_on,,,,,59,0,0,,,2,,,71,116
302799,note_off,,,,,8,0,0,,,2,,,69,64
302845,note_on,,,,,46,0,0,,,2,,,68,120
302853,note_off,,,,,8,0,0,,,2,,,71,64
302901,note_on,,,,,48,0,0,,,2,,,69,118
302908,note_off,,,,,7,0,0,,,2,,,68,64
302956,note_on,,,,,48,0,0,,,2,,,71,116
302964,note_off,,,,,8,0,0,,,2,,,69,64
303012,note_on,,,,,48,0,0,,,2,,,73,117
303018,note_off,,,,,6,0,0,,,2,,,71,64
303066,note_on,,,,,48,0,0,,,2,,,74,117
303072,note_off,,,,,6,0,0,,,2,,,73,64
303118,note_on,,,,,46,0,0,,,2,,,76,117
303123,note_off,,,,,5,0,0,,,2,,,74,64
303173,note_on,,,,,50,0,0,,,2,,,73,117
303179,note_off,,,,,6,0,0,,,2,,,76,64
303227,note_on,,,,,48,0,0,,,2,,,74,117
303228,note_on,,,,,1,0,0,,,4,,,66,127
303228,note_on,,,,,0,0,0,,,2,,,69,118
303234,note_off,,,,,6,0,0,,,2,,,73,64
303253,note_off,,,,,19,0,0,,,4,,,61,64
303280,note_on,,,,,27,0,0,,,1,,,86,114
303286,note_off,,,,,6,0,0,,,2,,,74,64
303336,note_on,,,,,50,0,0,,,1,,,85,114
303343,note_off,,,,,7,0,0,,,1,,,86,64
303390,note_on,,,,,47,0,0,,,1,,,83,110
303396,note_off,,,,,6,0,0,,,1,,,85,64
303431,note_off,,,,,35,0,0,,,4,,,57,64
303442,note_on,,,,,11,0,0,,,1,,,85,114
303450,note_off,,,,,8,0,0,,,1,,,83,64
303498,note_on,,,,,48,0,0,,,1,,,82,110
303504,note_off,,,,,6,0,0,,,1,,,85,64
303536,note_off,,,,,32,0,0,,,4,,,66,64
303550,note_off,,,,,14,0,0,,,2,,,69,64
303551,note_on,,,,,1,0,0,,,4,,,66,127
303551,note_on,,,,,0,0,0,,,1,,,83,110
303552,note_on,,,,,1,0,0,,,4,,,62,127
303555,note_off,,,,,3,0,0,,,1,,,82,64
303601,note_on,,,,,46,0,0,,,1,,,85,114
303607,note_off,,,,,6,0,0,,,1,,,83,64
303656,note_on,,,,,49,0,0,,,1,,,81,110
303663,note_off,,,,,7,0,0,,,1,,,85,64
303711,note_on,,,,,48,0,0,,,1,,,80,110
303717,note_off,,,,,6,0,0,,,1,,,81,64
303763,note_on,,,,,46,0,0,,,1,,,81,110
303770,note_off,,,,,7,0,0,,,1,,,80,64
303818,note_on,,,,,48,0,0,,,1,,,78,110
303824,note_off,,,,,6,0,0,,,1,,,81,64
303853,note_off,,,,,29,0,0,,,4,,,62,64
303874,note_off,,,,,21,0,0,,,4,,,66,64
303875,note_on,,,,,1,0,0,,,4,,,62,127
303875,note_on,,,,,0,0,0,,,1,,,80,110
303876,note_on,,,,,1,0,0,,,4,,,59,127
303880,note_off,,,,,4,0,0,,,1,,,78,64
303926,note_on,,,,,46,0,0,,,1,,,81,110
303932,note_off,,,,,6,0,0,,,1,,,80,64
303980,note_on,,,,,48,0,0,,,1,,,78,110
303987,note_off,,,,,7,0,0,,,1,,,81,64
304032,note_on,,,,,45,0,0,,,2,,,76,113
304037,note_off,,,,,5,0,0,,,1,,,78,64
304083,note_on,,,,,46,0,0,,,1,,,78,110
304089,note_off,,,,,6,0,0,,,2,,,76,64
304137,note_on,,,,,48,0,0,,,2,,,75,113
304143,note_off,,,,,6,0,0,,,1,,,78,64
304176,note_off,,,,,33,0,0,,,4,,,59,64
304187,note_off,,,,,11,0,0,,,4,,,62,64
304188,note_on,,,,,1,0,0,,,4,,,56,127
304188,note_on,,,,,0,0,0,,,4,,,59,127
304188,note_on,,,,,0,0,0,,,2,,,76,113
304193,note_off,,,,,5,0,0,,,2,,,75,64
304239,note_on,,,,,46,0,0,,,1,,,78,110
304247,note_off,,,,,8,0,0,,,2,,,76,64
304293,note_on,,,,,46,0,0,,,2,,,74,117
304298,note_off,,,,,5,0,0,,,1,,,78,64
304343,note_on,,,,,45,0,0,,,2,,,73,117
304343,note_on,,,,,0,0,0,,,4,,,57,127
304346,note_off,,,,,3,0,0,,,4,,,59,64
304346,note_off,,,,,0,0,0,,,4,,,56,64
304350,note_off,,,,,4,0,0,,,2,,,74,64
304397,note_on,,,,,47,0,0,,,2,,,76,113
304404,note_off,,,,,7,0,0,,,2,,,73,64
304451,note_on,,,,,47,0,0,,,1,,,81,114
304456,note_off,,,,,5,0,0,,,2,,,76,64
304504,note_on,,,,,48,0,0,,,2,,,77,113
304505,note_on,,,,,1,0,0,,,4,,,50,127
304505,note_on,,,,,0,0,0,,,4,,,59,127
304507,note_off,,,,,2,0,0,,,4,,,57,64
304511,note_off,,,,,4,0,0,,,1,,,81,64
304555,note_on,,,,,44,0,0,,,1,,,78,110
304561,note_off,,,,,6,0,0,,,2,,,77,64
304607,note_on,,,,,46,0,0,,,2,,,74,117
304615,note_off,,,,,8,0,0,,,1,,,78,64
304661,note_on,,,,,46,0,0,,,4,,,61,127
304661,note_on,,,,,0,0,0,,,2,,,75,113
304662,note_on,,,,,1,0,0,,,4,,,52,127
304664,note_off,,,,,2,0,0,,,4,,,59,64
304664,note_off,,,,,0,0,0,,,4,,,50,64
304667,note_off,,,,,3,0,0,,,2,,,74,64
304713,note_on,,,,,46,0,0,,,2,,,76,113
304720,note_off,,,,,7,0,0,,,2,,,75,64
304770,note_on,,,,,50,0,0,,,2,,,73,117
304776,note_off,,,,,6,0,0,,,2,,,76,64
304818,note_off,,,,,42,0,0,,,2,,,73,64
304819,note_off,,,,,1,0,0,,,4,,,52,64
304827,note_on,,,,,8,0,0,,,2,,,73,117
304827,note_on,,,,,0,0,0,,,4,,,62,127
304828,note_on,,,,,1,0,0,,,4,,,56,127
304828,note_on,,,,,0,0,0,,,4,,,52,127
304829,note_off,,,,,1,0,0,,,4,,,61,64
304883,note_on,,,,,54,0,0,,,2,,,74,117
304890,note_off,,,,,7,0,0,,,2,,,73,64
304938,note_on,,,,,48,0,0,,,2,,,71,116
304946,note_off,,,,,8,0,0,,,2,,,74,64
304979,note_off,,,,,33,0,0,,,2,,,71,64
304990,note_off,,,,,11,0,0,,,4,,,62,64
304998,note_on,,,,,8,0,0,,,4,,,62,127
304998,note_on,,,,,0,0,0,,,2,,,71,116
304999,note_on,,,,,1,0,0,,,4,,,57,127
305001,note_off,,,,,2,0,0,,,4,,,52,64
305001,note_off,,,,,0,0,0,,,4,,,56,64
305163,note_on,,,,,162,0,0,,,4,,,61,127
305163,note_on,,,,,0,0,0,,,2,,,69,118
305170,note_off,,,,,7,0,0,,,2,,,71,64
305170,note_off,,,,,0,0,0,,,4,,,62,64
305330,note_on,,,,,160,0,0,,,1,,,81,110
305388,note_on,,,,,58,0,0,,,1,,,83,110
305393,note_off,,,,,5,0,0,,,1,,,81,64
305441,note_on,,,,,48,0,0,,,1,,,80,110
305449,note_off,,,,,8,0,0,,,1,,,83,64
305497,note_on,,,,,48,0,0,,,1,,,81,110
305503,note_off,,,,,6,0,0,,,1,,,80,64
305549,note_on,,,,,46,0,0,,,1,,,83,110
305556,note_off,,,,,7,0,0,,,1,,,81,64
305604,note_on,,,,,48,0,0,,,1,,,80,110
305612,note_off,,,,,8,0,0,,,1,,,83,64
305645,note_off,,,,,33,0,0,,,2,,,69,64
305660,note_off,,,,,15,0,0,,,4,,,61,64
305661,note_on,,,,,1,0,0,,,1,,,81,110
305663,note_on,,,,,2,0,0,,,2,,,71,116
305664,note_on,,,,,1,0,0,,,4,,,63,127
305666,note_off,,,,,2,0,0,,,1,,,80,64
305716,note_on,,,,,50,0,0,,,1,,,78,106
305724,note_off,,,,,8,0,0,,,1,,,81,64
305772,note_on,,,,,48,0,0,,,1,,,83,106
305777,note_off,,,,,5,0,0,,,1,,,78,64
305827,note_on,,,,,50,0,0,,,1,,,80,106
305829,note_on,,,,,2,0,0,,,4,,,64,126
305833,note_off,,,,,4,0,0,,,1,,,83,64
305833,note_off,,,,,0,0,0,,,4,,,63,64
305878,note_on,,,,,45,0,0,,,2,,,75,117
305886,note_off,,,,,8,0,0,,,1,,,80,64
305934,note_on,,,,,48,0,0,,,2,,,76,117
305940,note_off,,,,,6,0,0,,,2,,,75,64
305961,note_off,,,,,21,0,0,,,4,,,57,64
305988,note_on,,,,,27,0,0,,,1,,,79,110
305990,note_off,,,,,2,0,0,,,2,,,71,64
305990,note_on,,,,,0,0,0,,,4,,,61,127
305990,note_on,,,,,0,0,0,,,2,,,69,118
305992,note_off,,,,,2,0,0,,,4,,,64,64
305993,note_off,,,,,1,0,0,,,2,,,76,64
306042,note_on,,,,,49,0,0,,,2,,,76,117
306048,note_off,,,,,6,0,0,,,1,,,79,64
306094,note_on,,,,,46,0,0,,,1,,,81,110
306102,note_off,,,,,8,0,0,,,2,,,76,64
306151,note_on,,,,,49,0,0,,,1,,,78,110
306155,note_on,,,,,4,0,0,,,4,,,62,127
306158,note_off,,,,,3,0,0,,,4,,,61,64
306159,note_off,,,,,1,0,0,,,1,,,81,64
306209,note_on,,,,,50,0,0,,,2,,,73,117
306214,note_off,,,,,5,0,0,,,2,,,69,64
306216,note_off,,,,,2,0,0,,,1,,,78,64
306266,note_on,,,,,50,0,0,,,2,,,74,117
306272,note_off,,,,,6,0,0,,,2,,,73,64
306316,note_off,,,,,44,0,0,,,2,,,74,64
306324,note_on,,,,,8,0,0,,,2,,,74,117
306324,note_on,,,,,0,0,0,,,2,,,71,116
306380,note_on,,,,,56,0,0,,,1,,,86,110
306407,note_off,,,,,27,0,0,,,2,,,71,64
306408,note_on,,,,,1,0,0,,,2,,,69,118
306437,note_on,,,,,29,0,0,,,1,,,85,110
306443,note_off,,,,,6,0,0,,,1,,,86,64
306483,note_off,,,,,40,0,0,,,2,,,74,64
306491,note_off,,,,,8,0,0,,,2,,,69,64
306491,note_on,,,,,0,0,0,,,2,,,71,116
306492,note_on,,,,,1,0,0,,,2,,,67,127
306549,note_off,,,,,57,0,0,,,1,,,85,64
306550,note_on,,,,,1,0,0,,,1,,,83,106
306577,note_off,,,,,27,0,0,,,2,,,67,64
306577,note_on,,,,,0,0,0,,,4,,,66,127
306603,note_on,,,,,26,0,0,,,1,,,82,106
306611,note_off,,,,,8,0,0,,,1,,,83,64
306655,note_off,,,,,44,0,0,,,2,,,71,64
306662,note_off,,,,,7,0,0,,,4,,,66,64
306663,note_on,,,,,1,0,0,,,2,,,67,127
306663,note_on,,,,,0,0,0,,,2,,,71,116
306717,note_off,,,,,54,0,0,,,1,,,82,64
306718,note_on,,,,,1,0,0,,,1,,,83,106
306747,note_off,,,,,29,0,0,,,2,,,67,64
306748,note_on,,,,,1,0,0,,,4,,,66,127
306775,note_on,,,,,27,0,0,,,1,,,81,106
306782,note_off,,,,,7,0,0,,,1,,,83,64
306792,note_off,,,,,10,0,0,,,4,,,62,64
306825,note_off,,,,,33,0,0,,,2,,,71,64
306833,note_off,,,,,8,0,0,,,4,,,66,64
306833,note_on,,,,,0,0,0,,,2,,,67,127
306833,note_on,,,,,0,0,0,,,4,,,64,126
306889,note_off,,,,,56,0,0,,,1,,,81,64
306889,note_on,,,,,0,0,0,,,1,,,79,106
306917,note_off,,,,,28,0,0,,,4,,,64,64
306918,note_on,,,,,1,0,0,,,4,,,62,127
306945,note_on,,,,,27,0,0,,,1,,,78,106
306953,note_off,,,,,8,0,0,,,1,,,79,64
306995,note_off,,,,,42,0,0,,,2,,,67,64
307001,note_off,,,,,6,0,0,,,4,,,62,64
307001,note_on,,,,,0,0,0,,,1,,,79,106
307002,note_on,,,,,1,0,0,,,2,,,69,118
307002,note_on,,,,,0,0,0,,,4,,,61,127
307008,note_off,,,,,6,0,0,,,1,,,78,64
307055,note_on,,,,,47,0,0,,,1,,,81,106
307060,note_off,,,,,5,0,0,,,1,,,79,64
307106,note_on,,,,,46,0,0,,,1,,,79,106
307112,note_off,,,,,6,0,0,,,1,,,81,64
307158,note_on,,,,,46,0,0,,,1,,,78,106
307159,note_on,,,,,1,0,0,,,4,,,62,127
307161,note_off,,,,,2,0,0,,,4,,,61,64
307165,note_off,,,,,4,0,0,,,1,,,79,64
307215,note_on,,,,,50,0,0,,,1,,,79,106
307221,note_off,,,,,6,0,0,,,1,,,78,64
307267,note_on,,,,,46,0,0,,,1,,,78,106
307272,note_off,,,,,5,0,0,,,1,,,79,64
307319,note_on,,,,,47,0,0,,,2,,,76,113
307322,note_off,,,,,3,0,0,,,4,,,62,64
307323,note_on,,,,,1,0,0,,,4,,,61,127
307325,note_off,,,,,2,0,0,,,1,,,78,64
307371,note_on,,,,,46,0,0,,,1,,,78,106
307377,note_off,,,,,6,0,0,,,2,,,76,64
307423,note_on,,,,,46,0,0,,,2,,,76,113
307429,note_off,,,,,6,0,0,,,1,,,78,64
307475,note_off,,,,,46,0,0,,,2,,,69,64
307476,note_on,,,,,1,0,0,,,2,,,74,113
307478,note_on,,,,,2,0,0,,,2,,,68,120
307478,note_on,,,,,0,0,0,,,4,,,59,127
307481,note_off,,,,,3,0,0,,,2,,,76,64
307481,note_off,,,,,0,0,0,,,4,,,61,64
307527,note_on,,,,,46,0,0,,,2,,,76,113
307533,note_off,,,,,6,0,0,,,2,,,74,64
307579,note_on,,,,,46,0,0,,,2,,,74,113
307586,note_off,,,,,7,0,0,,,2,,,76,64
307634,note_off,,,,,48,0,0,,,2,,,68,64
307638,note_on,,,,,4,0,0,,,1,,,78,110
307642,note_on,,,,,4,0,0,,,2,,,69,118
307643,note_on,,,,,1,0,0,,,4,,,57,127
307643,note_on,,,,,0,0,0,,,4,,,62,127
307644,note_off,,,,,1,0,0,,,4,,,59,64
307646,note_off,,,,,2,0,0,,,2,,,74,64
307815,note_on,,,,,169,0,0,,,2,,,76,113
307819,note_off,,,,,4,0,0,,,1,,,78,64
307819,note_on,,,,,0,0,0,,,4,,,61,127
307820,note_off,,,,,1,0,0,,,4,,,62,64
307973,note_off,,,,,153,0,0,,,2,,,76,64
307981,note_on,,,,,8,0,0,,,1,,,81,114
308039,note_on,,,,,58,0,0,,,1,,,83,110
308046,note_off,,,,,7,0,0,,,1,,,81,64
308095,note_on,,,,,49,0,0,,,1,,,80,110
308103,note_off,,,,,8,0,0,,,1,,,83,64
308153,note_on,,,,,50,0,0,,,1,,,81,110
308160,note_off,,,,,7,0,0,,,1,,,80,64
308210,note_on,,,,,50,0,0,,,1,,,83,110
308216,note_off,,,,,6,0,0,,,1,,,81,64
308266,note_on,,,,,50,0,0,,,1,,,80,110
308274,note_off,,,,,8,0,0,,,1,,,83,64
308324,note_on,,,,,50,0,0,,,1,,,81,110
308331,note_off,,,,,7,0,0,,,1,,,80,64
308546,note_off,,,,,215,0,0,,,1,,,81,64
308556,note_off,,,,,10,0,0,,,2,,,69,64
308583,note_on,,,,,27,0,0,,,2,,,69,118
308646,note_on,,,,,63,0,0,,,2,,,71,116
308654,note_off,,,,,8,0,0,,,2,,,69,64
308702,note_on,,,,,48,0,0,,,2,,,68,120
308710,note_off,,,,,8,0,0,,,2,,,71,64
308760,note_on,,,,,50,0,0,,,2,,,69,118
308767,note_off,,,,,7,0,0,,,2,,,68,64
308815,note_on,,,,,48,0,0,,,2,,,71,116
308821,note_off,,,,,6,0,0,,,2,,,69,64
308871,note_on,,,,,50,0,0,,,2,,,73,117
308877,note_off,,,,,6,0,0,,,2,,,71,64
308927,note_on,,,,,50,0,0,,,4,,,62,127
308927,note_on,,,,,0,0,0,,,2,,,74,113
308933,note_off,,,,,6,0,0,,,2,,,73,64
308943,note_off,,,,,10,0,0,,,4,,,61,64
308982,note_on,,,,,39,0,0,,,2,,,76,113
308986,note_off,,,,,4,0,0,,,4,,,57,64
308989,note_off,,,,,3,0,0,,,2,,,74,64
309037,note_on,,,,,48,0,0,,,2,,,73,117
309045,note_off,,,,,8,0,0,,,2,,,76,64
309091,note_on,,,,,46,0,0,,,2,,,69,118
309091,note_on,,,,,0,0,0,,,2,,,74,113
309092,note_on,,,,,1,0,0,,,4,,,66,127
309098,note_off,,,,,6,0,0,,,2,,,73,64
309148,note_on,,,,,50,0,0,,,2,,,77,113
309156,note_off,,,,,8,0,0,,,2,,,74,64
309204,note_on,,,,,48,0,0,,,1,,,78,110
309211,note_off,,,,,7,0,0,,,2,,,77,64
309252,note_off,,,,,41,0,0,,,4,,,62,64
309257,note_on,,,,,5,0,0,,,2,,,74,113
309258,note_on,,,,,1,0,0,,,4,,,59,127
309295,note_off,,,,,37,0,0,,,1,,,78,64
309314,note_on,,,,,19,0,0,,,1,,,82,110
309366,note_on,,,,,52,0,0,,,1,,,83,110
309373,note_off,,,,,7,0,0,,,1,,,82,64
309414,note_off,,,,,41,0,0,,,2,,,69,64
309414,note_off,,,,,0,0,0,,,4,,,66,64
309417,note_off,,,,,3,0,0,,,2,,,74,64
309420,note_on,,,,,3,0,0,,,2,,,74,113
309421,note_on,,,,,1,0,0,,,4,,,62,127
309421,note_on,,,,,0,0,0,,,4,,,66,127
309458,note_off,,,,,37,0,0,,,1,,,83,64
309476,note_on,,,,,18,0,0,,,1,,,85,114
309532,note_on,,,,,56,0,0,,,1,,,86,114
309540,note_off,,,,,8,0,0,,,1,,,85,64
309582,note_off,,,,,42,0,0,,,4,,,59,64
309586,note_off,,,,,4,0,0,,,2,,,74,64
309589,note_on,,,,,3,0,0,,,4,,,55,127
309593,note_on,,,,,4,0,0,,,1,,,79,110
309626,note_off,,,,,33,0,0,,,1,,,86,64
309645,note_on,,,,,19,0,0,,,1,,,81,110
309655,note_off,,,,,10,0,0,,,1,,,79,64
309701,note_on,,,,,46,0,0,,,1,,,78,110
309707,note_off,,,,,6,0,0,,,1,,,81,64
309747,note_off,,,,,40,0,0,,,4,,,66,64
309747,note_off,,,,,0,0,0,,,4,,,62,64
309754,note_on,,,,,7,0,0,,,4,,,64,126
309754,note_on,,,,,0,0,0,,,1,,,79,110
309755,note_on,,,,,1,0,0,,,4,,,59,127
309762,note_off,,,,,7,0,0,,,1,,,78,64
309810,note_on,,,,,48,0,0,,,2,,,75,113
309845,note_off,,,,,35,0,0,,,1,,,79,64
309864,note_on,,,,,19,0,0,,,2,,,76,113
309870,note_off,,,,,6,0,0,,,2,,,75,64
309910,note_off,,,,,40,0,0,,,4,,,55,64
309918,note_on,,,,,8,0,0,,,4,,,57,127
309918,note_on,,,,,0,0,0,,,1,,,79,110
309955,note_off,,,,,37,0,0,,,2,,,76,64
309972,note_on,,,,,17,0,0,,,2,,,72,113
310030,note_on,,,,,58,0,0,,,2,,,73,113
310036,note_off,,,,,6,0,0,,,2,,,72,64
310078,note_off,,,,,42,0,0,,,4,,,59,64
310079,note_off,,,,,1,0,0,,,4,,,64,64
310081,note_off,,,,,2,0,0,,,1,,,79,64
310085,note_on,,,,,4,0,0,,,1,,,79,110
310085,note_on,,,,,0,0,0,,,4,,,64,126
310086,note_on,,,,,1,0,0,,,4,,,61,127
310120,note_off,,,,,34,0,0,,,2,,,73,64
310140,note_on,,,,,20,0,0,,,2,,,68,116
310195,note_on,,,,,55,0,0,,,2,,,69,114
310201,note_off,,,,,6,0,0,,,2,,,68,64
310241,note_off,,,,,40,0,0,,,4,,,61,64
310242,note_off,,,,,1,0,0,,,4,,,64,64
310244,note_off,,,,,2,0,0,,,1,,,79,64
310248,note_on,,,,,4,0,0,,,4,,,62,127
310248,note_on,,,,,0,0,0,,,1,,,78,110
310255,note_off,,,,,7,0,0,,,2,,,69,64
310303,note_on,,,,,48,0,0,,,1,,,81,110
310310,note_off,,,,,7,0,0,,,1,,,78,64
310358,note_on,,,,,48,0,0,,,1,,,86,114
310364,note_off,,,,,6,0,0,,,1,,,81,64
310414,note_off,,,,,50,0,0,,,4,,,57,64
310415,note_on,,,,,1,0,0,,,4,,,64,126
310415,note_on,,,,,0,0,0,,,1,,,82,110
310416,note_off,,,,,1,0,0,,,4,,,62,64
310416,note_on,,,,,0,0,0,,,4,,,55,127
310420,note_off,,,,,4,0,0,,,1,,,86,64
310468,note_on,,,,,48,0,0,,,1,,,83,110
310474,note_off,,,,,6,0,0,,,1,,,82,64
310522,note_on,,,,,48,0,0,,,1,,,79,106
310527,note_off,,,,,5,0,0,,,1,,,83,64
310577,note_on,,,,,50,0,0,,,1,,,80,106
310578,note_on,,,,,1,0,0,,,4,,,66,127
310578,note_on,,,,,0,0,0,,,4,,,57,127
310580,note_off,,,,,2,0,0,,,4,,,55,64
310581,note_off,,,,,1,0,0,,,4,,,64,64
310585,note_off,,,,,4,0,0,,,1,,,79,64
310635,note_on,,,,,50,0,0,,,1,,,81,106
310641,note_off,,,,,6,0,0,,,1,,,80,64
310692,note_on,,,,,51,0,0,,,1,,,78,106
310698,note_off,,,,,6,0,0,,,1,,,81,64
310740,note_off,,,,,42,0,0,,,1,,,78,64
310741,note_off,,,,,1,0,0,,,4,,,57,64
310745,note_on,,,,,4,0,0,,,1,,,78,106
310750,note_off,,,,,5,0,0,,,4,,,66,64
310750,note_on,,,,,0,0,0,,,4,,,61,127
310751,note_on,,,,,1,0,0,,,4,,,57,127
310803,note_on,,,,,52,0,0,,,1,,,79,110
310811,note_off,,,,,8,0,0,,,1,,,78,64
310862,note_on,,,,,51,0,0,,,2,,,76,113
310870,note_off,,,,,8,0,0,,,1,,,79,64
310912,note_off,,,,,42,0,0,,,2,,,76,64
310920,note_off,,,,,8,0,0,,,4,,,61,64
310920,note_off,,,,,0,0,0,,,4,,,57,64
310925,note_on,,,,,5,0,0,,,2,,,76,113
310929,note_on,,,,,4,0,0,,,4,,,61,127
310929,note_on,,,,,0,0,0,,,2,,,67,127
310930,note_on,,,,,1,0,0,,,4,,,50,127
311101,note_off,,,,,171,0,0,,,2,,,76,64
311101,note_off,,,,,0,0,0,,,4,,,61,64
311102,note_off,,,,,1,0,0,,,2,,,67,64
311105,note_on,,,,,3,0,0,,,2,,,74,117
311108,note_on,,,,,3,0,0,,,4,,,62,127
311108,note_on,,,,,0,0,0,,,4,,,66,127
311273,note_on,,,,,165,0,0,,,1,,,81,110
311335,note_on,,,,,62,0,0,,,1,,,83,110
311340,note_off,,,,,5,0,0,,,1,,,81,64
311393,note_on,,,,,53,0,0,,,1,,,80,110
311400,note_off,,,,,7,0,0,,,1,,,83,64
311448,note_on,,,,,48,0,0,,,1,,,81,110
311456,note_off,,,,,8,0,0,,,1,,,80,64
311504,note_on,,,,,48,0,0,,,1,,,83,110
311511,note_off,,,,,7,0,0,,,1,,,81,64
311564,note_on,,,,,53,0,0,,,1,,,80,110
311571,note_off,,,,,7,0,0,,,1,,,83,64
311619,note_off,,,,,48,0,0,,,2,,,74,64
311620,note_on,,,,,1,0,0,,,1,,,81,110
311624,note_off,,,,,4,0,0,,,4,,,66,64
311624,note_off,,,,,0,0,0,,,4,,,62,64
311625,note_on,,,,,1,0,0,,,4,,,63,127
311625,note_on,,,,,0,0,0,,,2,,,71,116
311628,note_off,,,,,3,0,0,,,1,,,80,64
311678,note_on,,,,,50,0,0,,,1,,,78,110
311684,note_off,,,,,6,0,0,,,1,,,81,64
311734,note_on,,,,,50,0,0,,,1,,,83,110
311741,note_off,,,,,7,0,0,,,1,,,78,64
311787,note_off,,,,,46,0,0,,,4,,,63,64
311789,note_on,,,,,2,0,0,,,1,,,80,110
311793,note_on,,,,,4,0,0,,,4,,,64,126
311797,note_off,,,,,4,0,0,,,1,,,83,64
311845,note_on,,,,,48,0,0,,,2,,,75,117
311853,note_off,,,,,8,0,0,,,1,,,80,64
311899,note_on,,,,,46,0,0,,,2,,,76,113
311904,note_off,,,,,5,0,0,,,2,,,75,64
311922,note_off,,,,,18,0,0,,,2,,,71,64
311945,note_off,,,,,23,0,0,,,2,,,76,64
311949,note_off,,,,,4,0,0,,,4,,,64,64
311952,note_on,,,,,3,0,0,,,1,,,79,110
311954,note_on,,,,,2,0,0,,,2,,,69,118
311955,note_on,,,,,1,0,0,,,4,,,61,127
312007,note_on,,,,,52,0,0,,,2,,,76,113
312013,note_off,,,,,6,0,0,,,1,,,79,64
312055,note_off,,,,,42,0,0,,,2,,,76,64
312061,note_on,,,,,6,0,0,,,1,,,81,110
312117,note_off,,,,,56,0,0,,,4,,,61,64
312120,note_on,,,,,3,0,0,,,1,,,78,110
312124,note_on,,,,,4,0,0,,,4,,,62,127
312126,note_off,,,,,2,0,0,,,1,,,81,64
312174,note_on,,,,,48,0,0,,,2,,,73,117
312182,note_off,,,,,8,0,0,,,1,,,78,64
312199,note_off,,,,,17,0,0,,,2,,,69,64
312230,note_on,,,,,31,0,0,,,2,,,74,117
312236,note_off,,,,,6,0,0,,,2,,,73,64
312280,note_off,,,,,44,0,0,,,2,,,74,64
312286,note_on,,,,,6,0,0,,,2,,,74,117
312286,note_on,,,,,0,0,0,,,2,,,71,116
312342,note_on,,,,,56,0,0,,,1,,,86,114
312373,note_on,,,,,31,0,0,,,2,,,69,118
312384,note_off,,,,,11,0,0,,,2,,,71,64
312403,note_on,,,,,19,0,0,,,1,,,85,110
312408,note_off,,,,,5,0,0,,,1,,,86,64
312460,note_on,,,,,52,0,0,,,2,,,71,116
312461,note_on,,,,,1,0,0,,,2,,,67,127
312469,note_off,,,,,8,0,0,,,2,,,69,64
312515,note_off,,,,,46,0,0,,,1,,,85,64
312516,note_on,,,,,1,0,0,,,1,,,83,106
312543,note_on,,,,,27,0,0,,,4,,,66,127
312552,note_off,,,,,9,0,0,,,2,,,67,64
312572,note_on,,,,,20,0,0,,,1,,,82,106
312579,note_off,,,,,7,0,0,,,1,,,83,64
312624,note_off,,,,,45,0,0,,,2,,,71,64
312627,note_on,,,,,3,0,0,,,2,,,71,116
312628,note_on,,,,,1,0,0,,,2,,,67,127
312636,note_off,,,,,8,0,0,,,4,,,66,64
312684,note_off,,,,,48,0,0,,,1,,,82,64
312684,note_on,,,,,0,0,0,,,1,,,83,106
312689,note_off,,,,,5,0,0,,,4,,,62,64
312714,note_on,,,,,25,0,0,,,4,,,66,127
312721,note_off,,,,,7,0,0,,,2,,,67,64
312739,note_on,,,,,18,0,0,,,1,,,81,106
312746,note_off,,,,,7,0,0,,,1,,,83,64
312792,note_off,,,,,46,0,0,,,2,,,71,64
312796,note_on,,,,,4,0,0,,,2,,,67,127
312797,note_on,,,,,1,0,0,,,4,,,64,126
312805,note_off,,,,,8,0,0,,,4,,,66,64
312851,note_off,,,,,46,0,0,,,1,,,81,64
312852,note_on,,,,,1,0,0,,,1,,,79,102
312879,note_on,,,,,27,0,0,,,4,,,62,127
312888,note_off,,,,,9,0,0,,,4,,,64,64
312906,note_on,,,,,18,0,0,,,1,,,78,102
312913,note_off,,,,,7,0,0,,,1,,,79,64
312961,note_on,,,,,48,0,0,,,1,,,79,102
312962,note_on,,,,,1,0,0,,,2,,,69,118
312962,note_on,,,,,0,0,0,,,4,,,61,127
312964,note_off,,,,,2,0,0,,,2,,,67,64
312968,note_off,,,,,4,0,0,,,1,,,78,64
312970,note_off,,,,,2,0,0,,,4,,,62,64
312976,note_off,,,,,6,0,0,,,2,,,74,64
313014,note_on,,,,,38,0,0,,,1,,,81,102
313022,note_off,,,,,8,0,0,,,1,,,79,64
313070,note_on,,,,,48,0,0,,,1,,,79,102
313078,note_off,,,,,8,0,0,,,1,,,81,64
313124,note_on,,,,,46,0,0,,,4,,,62,127
313124,note_on,,,,,0,0,0,,,1,,,78,102
313127,note_off,,,,,3,0,0,,,4,,,61,64
313130,note_off,,,,,3,0,0,,,1,,,79,64
313175,note_on,,,,,45,0,0,,,1,,,79,102
313178,note_off,,,,,3,0,0,,,4,,,50,64
313180,note_off,,,,,2,0,0,,,1,,,78,64
313229,note_on,,,,,49,0,0,,,1,,,78,102
313236,note_off,,,,,7,0,0,,,1,,,79,64
313280,note_on,,,,,44,0,0,,,2,,,76,109
313281,note_on,,,,,1,0,0,,,4,,,61,127
313284,note_off,,,,,3,0,0,,,4,,,62,64
313287,note_off,,,,,3,0,0,,,1,,,78,64
313335,note_on,,,,,48,0,0,,,1,,,78,102
313343,note_off,,,,,8,0,0,,,2,,,76,64
313391,note_on,,,,,48,0,0,,,2,,,76,109
313398,note_off,,,,,7,0,0,,,1,,,78,64
313442,note_off,,,,,44,0,0,,,2,,,69,64
313443,note_on,,,,,1,0,0,,,2,,,74,113
313443,note_on,,,,,0,0,0,,,2,,,68,120
313444,note_on,,,,,1,0,0,,,4,,,59,127
313447,note_off,,,,,3,0,0,,,4,,,61,64
313450,note_off,,,,,3,0,0,,,2,,,76,64
313496,note_on,,,,,46,0,0,,,2,,,76,109
313504,note_off,,,,,8,0,0,,,2,,,74,64
313554,note_on,,,,,50,0,0,,,2,,,74,113
313560,note_off,,,,,6,0,0,,,2,,,76,64
313604,note_off,,,,,44,0,0,,,2,,,68,64
313611,note_on,,,,,7,0,0,,,1,,,78,110
313612,note_on,,,,,1,0,0,,,2,,,69,118
313612,note_on,,,,,0,0,0,,,4,,,62,127
313613,note_on,,,,,1,0,0,,,4,,,57,127
313616,note_off,,,,,3,0,0,,,4,,,59,64
313619,note_off,,,,,3,0,0,,,2,,,74,64
313784,note_on,,,,,165,0,0,,,2,,,76,113
313785,note_on,,,,,1,0,0,,,4,,,61,127
313788,note_off,,,,,3,0,0,,,1,,,78,64
313789,note_off,,,,,1,0,0,,,4,,,62,64
313955,note_on,,,,,166,0,0,,,1,,,81,114
313956,note_off,,,,,1,0,0,,,2,,,76,64
314014,note_on,,,,,58,0,0,,,1,,,83,114
314022,note_off,,,,,8,0,0,,,1,,,81,64
314070,note_on,,,,,48,0,0,,,1,,,80,114
314076,note_off,,,,,6,0,0,,,1,,,83,64
314125,note_on,,,,,49,0,0,,,1,,,81,114
314133,note_off,,,,,8,0,0,,,1,,,80,64
314183,note_on,,,,,50,0,0,,,1,,,83,114
314189,note_off,,,,,6,0,0,,,1,,,81,64
314241,note_on,,,,,52,0,0,,,1,,,80,114
314248,note_off,,,,,7,0,0,,,1,,,83,64
314298,note_on,,,,,50,0,0,,,1,,,81,114
314304,note_off,,,,,6,0,0,,,1,,,80,64
314573,note_off,,,,,269,0,0,,,2,,,69,64
314602,note_on,,,,,29,0,0,,,2,,,69,118
314665,note_on,,,,,63,0,0,,,2,,,71,116
314673,note_off,,,,,8,0,0,,,2,,,69,64
314721,note_on,,,,,48,0,0,,,2,,,68,120
314728,note_off,,,,,7,0,0,,,2,,,71,64
314780,note_on,,,,,52,0,0,,,2,,,69,118
314786,note_off,,,,,6,0,0,,,2,,,68,64
314836,note_on,,,,,50,0,0,,,2,,,71,116
314844,note_off,,,,,8,0,0,,,2,,,69,64
314892,note_on,,,,,48,0,0,,,2,,,73,117
314899,note_off,,,,,7,0,0,,,2,,,71,64
314934,note_off,,,,,35,0,0,,,4,,,61,64
314947,note_on,,,,,13,0,0,,,2,,,74,117
314948,note_on,,,,,1,0,0,,,4,,,62,127
314954,note_off,,,,,6,0,0,,,2,,,73,64
315002,note_on,,,,,48,0,0,,,2,,,76,117
315010,note_off,,,,,8,0,0,,,2,,,74,64
315060,note_on,,,,,50,0,0,,,2,,,73,117
315070,note_off,,,,,10,0,0,,,2,,,76,64
315114,note_off,,,,,44,0,0,,,1,,,81,64
315115,note_on,,,,,1,0,0,,,2,,,69,118
315115,note_on,,,,,0,0,0,,,2,,,74,117
315116,note_on,,,,,1,0,0,,,4,,,66,127
315120,note_off,,,,,4,0,0,,,2,,,73,64
315168,note_on,,,,,48,0,0,,,2,,,77,117
315174,note_off,,,,,6,0,0,,,2,,,74,64
315207,note_off,,,,,33,0,0,,,4,,,57,64
315222,note_on,,,,,15,0,0,,,1,,,78,114
315229,note_off,,,,,7,0,0,,,2,,,77,64
315272,note_off,,,,,43,0,0,,,4,,,62,64
315277,note_on,,,,,5,0,0,,,2,,,74,117
315278,note_on,,,,,1,0,0,,,4,,,59,127
315332,note_on,,,,,54,0,0,,,1,,,82,114
315338,note_off,,,,,6,0,0,,,1,,,78,64
315390,note_on,,,,,52,0,0,,,1,,,83,114
315396,note_off,,,,,6,0,0,,,1,,,82,64
315438,note_off,,,,,42,0,0,,,2,,,69,64
315438,note_off,,,,,0,0,0,,,4,,,66,64
315439,note_off,,,,,1,0,0,,,2,,,74,64
315444,note_on,,,,,5,0,0,,,2,,,74,117
315445,note_on,,,,,1,0,0,,,4,,,62,127
315445,note_on,,,,,0,0,0,,,4,,,66,127
315499,note_off,,,,,54,0,0,,,1,,,83,64
315500,note_on,,,,,1,0,0,,,1,,,85,114
315558,note_on,,,,,58,0,0,,,1,,,86,114
315565,note_off,,,,,7,0,0,,,1,,,85,64
315608,note_off,,,,,43,0,0,,,4,,,59,64
315610,note_off,,,,,2,0,0,,,2,,,74,64
315613,note_on,,,,,3,0,0,,,1,,,79,114
315614,note_on,,,,,1,0,0,,,4,,,55,127
315653,note_off,,,,,39,0,0,,,1,,,86,64
315670,note_on,,,,,17,0,0,,,1,,,81,114
315678,note_off,,,,,8,0,0,,,1,,,79,64
315728,note_on,,,,,50,0,0,,,1,,,78,114
315735,note_off,,,,,7,0,0,,,1,,,81,64
315777,note_off,,,,,42,0,0,,,4,,,66,64
315777,note_off,,,,,0,0,0,,,4,,,62,64
315783,note_on,,,,,6,0,0,,,1,,,79,114
315784,note_on,,,,,1,0,0,,,4,,,59,127
315784,note_on,,,,,0,0,0,,,4,,,64,126
315792,note_off,,,,,8,0,0,,,1,,,78,64
315838,note_on,,,,,46,0,0,,,2,,,75,117
315890,note_off,,,,,52,0,0,,,1,,,79,64
315890,note_on,,,,,0,0,0,,,2,,,76,117
315899,note_off,,,,,9,0,0,,,2,,,75,64
315937,note_off,,,,,38,0,0,,,4,,,55,64
315943,note_on,,,,,6,0,0,,,4,,,57,127
315943,note_on,,,,,0,0,0,,,1,,,79,114
315998,note_off,,,,,55,0,0,,,2,,,76,64
315998,note_on,,,,,0,0,0,,,2,,,72,113
316051,note_on,,,,,53,0,0,,,2,,,73,113
316059,note_off,,,,,8,0,0,,,2,,,72,64
316101,note_off,,,,,42,0,0,,,4,,,59,64
316102,note_off,,,,,1,0,0,,,1,,,79,64
316102,note_off,,,,,0,0,0,,,4,,,64,64
316108,note_on,,,,,6,0,0,,,1,,,79,114
316108,note_on,,,,,0,0,0,,,4,,,64,126
316109,note_on,,,,,1,0,0,,,4,,,61,127
316163,note_off,,,,,54,0,0,,,2,,,73,64
316163,note_on,,,,,0,0,0,,,2,,,68,116
316221,note_on,,,,,58,0,0,,,2,,,69,114
316229,note_off,,,,,8,0,0,,,2,,,68,64
316270,note_off,,,,,41,0,0,,,4,,,61,64
316270,note_off,,,,,0,0,0,,,4,,,64,64
316271,note_off,,,,,1,0,0,,,4,,,57,64
316272,note_off,,,,,1,0,0,,,1,,,79,64
316278,note_on,,,,,6,0,0,,,1,,,78,114
316279,note_on,,,,,1,0,0,,,4,,,62,127
316313,note_off,,,,,34,0,0,,,2,,,69,64
316335,note_on,,,,,22,0,0,,,1,,,81,114
316341,note_off,,,,,6,0,0,,,1,,,78,64
316387,note_on,,,,,46,0,0,,,1,,,86,114
316394,note_off,,,,,7,0,0,,,1,,,81,64
316437,note_off,,,,,43,0,0,,,4,,,62,64
316444,note_on,,,,,7,0,0,,,1,,,82,114
316445,note_on,,,,,1,0,0,,,4,,,55,127
316445,note_on,,,,,0,0,0,,,4,,,64,126
316451,note_off,,,,,6,0,0,,,1,,,86,64
316497,note_on,,,,,46,0,0,,,1,,,83,114
316505,note_off,,,,,8,0,0,,,1,,,82,64
316555,note_on,,,,,50,0,0,,,1,,,79,114
316560,note_off,,,,,5,0,0,,,1,,,83,64
316603,note_off,,,,,43,0,0,,,4,,,64,64
316603,note_off,,,,,0,0,0,,,4,,,55,64
316609,note_on,,,,,6,0,0,,,1,,,80,114
316610,note_on,,,,,1,0,0,,,4,,,66,127
316610,note_on,,,,,0,0,0,,,4,,,57,127
316616,note_off,,,,,6,0,0,,,1,,,79,64
316666,note_on,,,,,50,0,0,,,1,,,81,114
316674,note_off,,,,,8,0,0,,,1,,,80,64
316724,note_on,,,,,50,0,0,,,1,,,78,114
316731,note_off,,,,,7,0,0,,,1,,,81,64
316776,note_off,,,,,45,0,0,,,1,,,78,64
316776,note_off,,,,,0,0,0,,,4,,,57,64
316776,note_off,,,,,0,0,0,,,4,,,66,64
316782,note_on,,,,,6,0,0,,,1,,,78,114
316783,note_on,,,,,1,0,0,,,4,,,57,127
316783,note_on,,,,,0,0,0,,,4,,,61,127
316838,note_on,,,,,55,0,0,,,1,,,79,114
316846,note_off,,,,,8,0,0,,,1,,,78,64
316899,note_on,,,,,53,0,0,,,2,,,76,117
316907,note_off,,,,,8,0,0,,,1,,,79,64
316951,note_off,,,,,44,0,0,,,2,,,76,64
316952,note_off,,,,,1,0,0,,,4,,,61,64
316952,note_off,,,,,0,0,0,,,4,,,57,64
316960,note_on,,,,,8,0,0,,,2,,,76,117
316964,note_on,,,,,4,0,0,,,4,,,61,127
316964,note_on,,,,,0,0,0,,,2,,,67,127
316965,note_on,,,,,1,0,0,,,4,,,50,127
317216,note_off,,,,,251,0,0,,,2,,,67,64
317220,note_on,,,,,4,0,0,,,2,,,74,117
317224,note_off,,,,,4,0,0,,,2,,,76,64
317224,note_on,,,,,0,0,0,,,4,,,66,127
317225,note_on,,,,,1,0,0,,,4,,,62,127
317240,note_off,,,,,15,0,0,,,4,,,61,64
317841,note_off,,,,,601,0,0,,,2,,,74,64
317845,note_off,,,,,4,0,0,,,4,,,66,64
317845,note_off,,,,,0,0,0,,,4,,,62,64
317911,note_off,,,,,66,0,0,,,4,,,50,64
318026,note_on,,,,,115,0,0,,,4,,,57,127
318094,note_on,,,,,68,0,0,,,4,,,59,127
318106,note_off,,,,,12,0,0,,,4,,,57,64
318161,note_on,,,,,55,0,0,,,4,,,57,127
318170,note_off,,,,,9,0,0,,,4,,,59,64
318229,note_on,,,,,59,0,0,,,4,,,55,127
318237,note_off,,,,,8,0,0,,,4,,,57,64
318297,note_on,,,,,60,0,0,,,4,,,54,127
318304,note_off,,,,,7,0,0,,,4,,,55,64
318366,note_on,,,,,62,0,0,,,4,,,52,127
318375,note_off,,,,,9,0,0,,,4,,,54,64
318439,note_on,,,,,64,0,0,,,4,,,50,127
318439,note_on,,,,,0,0,0,,,1,,,78,114
318451,note_off,,,,,12,0,0,,,4,,,52,64
318482,note_on,,,,,31,0,0,,,1,,,79,114
318495,note_off,,,,,13,0,0,,,1,,,78,64
318524,note_on,,,,,29,0,0,,,1,,,81,114
318538,note_off,,,,,14,0,0,,,1,,,79,64
318674,note_on,,,,,136,0,0,,,1,,,79,110
318676,note_off,,,,,2,0,0,,,1,,,81,64
318722,note_on,,,,,46,0,0,,,1,,,78,110
318730,note_off,,,,,8,0,0,,,1,,,79,64
318770,note_on,,,,,40,0,0,,,2,,,76,113
318778,note_off,,,,,8,0,0,,,1,,,78,64
318818,note_on,,,,,40,0,0,,,2,,,74,117
318826,note_off,,,,,8,0,0,,,2,,,76,64
318866,note_on,,,,,40,0,0,,,4,,,62,127
318937,note_on,,,,,71,0,0,,,4,,,64,126
318945,note_off,,,,,8,0,0,,,4,,,62,64
319004,note_on,,,,,59,0,0,,,4,,,62,127
319012,note_off,,,,,8,0,0,,,4,,,64,64
319069,note_on,,,,,57,0,0,,,4,,,60,127
319077,note_off,,,,,8,0,0,,,4,,,62,64
319135,note_on,,,,,58,0,0,,,4,,,59,127
319142,note_off,,,,,7,0,0,,,4,,,60,64
319200,note_on,,,,,58,0,0,,,4,,,57,127
319208,note_off,,,,,8,0,0,,,4,,,59,64
319263,note_off,,,,,55,0,0,,,4,,,50,64
319264,note_on,,,,,1,0,0,,,4,,,55,127
319264,note_on,,,,,0,0,0,,,1,,,79,114
319276,note_off,,,,,12,0,0,,,4,,,57,64
319276,note_off,,,,,0,0,0,,,2,,,74,64
319298,note_off,,,,,22,0,0,,,1,,,79,64
319298,note_on,,,,,0,0,0,,,1,,,81,114
319330,note_off,,,,,32,0,0,,,1,,,81,64
319330,note_on,,,,,0,0,0,,,1,,,83,114
319461,note_off,,,,,131,0,0,,,1,,,83,64
319473,note_on,,,,,12,0,0,,,1,,,81,114
319519,note_on,,,,,46,0,0,,,1,,,79,114
319526,note_off,,,,,7,0,0,,,1,,,81,64
319565,note_on,,,,,39,0,0,,,1,,,78,114
319572,note_off,,,,,7,0,0,,,1,,,79,64
319613,note_on,,,,,41,0,0,,,2,,,76,117
319622,note_off,,,,,9,0,0,,,1,,,78,64
319662,note_on,,,,,40,0,0,,,2,,,69,118
319671,note_off,,,,,9,0,0,,,2,,,76,64
319735,note_on,,,,,64,0,0,,,2,,,71,116
319742,note_off,,,,,7,0,0,,,2,,,69,64
319800,note_on,,,,,58,0,0,,,2,,,69,118
319808,note_off,,,,,8,0,0,,,2,,,71,64
319863,note_on,,,,,55,0,0,,,2,,,76,112
319864,note_on,,,,,1,0,0,,,2,,,67,127
319864,note_on,,,,,0,0,0,,,2,,,73,112
319872,note_off,,,,,8,0,0,,,2,,,69,64
319920,note_off,,,,,48,0,0,,,2,,,76,64
319928,note_on,,,,,8,0,0,,,1,,,78,109
319929,note_on,,,,,1,0,0,,,2,,,74,112
319929,note_on,,,,,0,0,0,,,4,,,66,127
319935,note_off,,,,,6,0,0,,,2,,,67,64
319936,note_off,,,,,1,0,0,,,2,,,73,64
319992,note_on,,,,,56,0,0,,,1,,,79,109
319992,note_on,,,,,0,0,0,,,2,,,76,112
319993,note_on,,,,,1,0,0,,,4,,,64,126
319999,note_off,,,,,6,0,0,,,4,,,66,64
319999,note_off,,,,,0,0,0,,,2,,,74,64
320000,note_off,,,,,1,0,0,,,1,,,78,64
320048,note_off,,,,,48,0,0,,,4,,,55,64
320058,note_on,,,,,10,0,0,,,4,,,62,127
320058,note_on,,,,,0,0,0,,,1,,,78,109
320070,note_off,,,,,12,0,0,,,4,,,64,64
320070,note_off,,,,,0,0,0,,,2,,,76,64
320071,note_off,,,,,1,0,0,,,1,,,79,64
320096,note_on,,,,,25,0,0,,,1,,,79,109
320109,note_off,,,,,13,0,0,,,1,,,78,64
320128,note_on,,,,,19,0,0,,,1,,,81,109
320136,note_off,,,,,8,0,0,,,1,,,79,64
320265,note_off,,,,,129,0,0,,,1,,,81,64
320272,note_on,,,,,7,0,0,,,1,,,79,109
320323,note_on,,,,,51,0,0,,,1,,,78,109
320330,note_off,,,,,7,0,0,,,1,,,79,64
320371,note_on,,,,,41,0,0,,,2,,,76,112
320378,note_off,,,,,7,0,0,,,1,,,78,64
320419,note_on,,,,,41,0,0,,,2,,,74,117
320426,note_off,,,,,7,0,0,,,2,,,76,64
320472,note_off,,,,,46,0,0,,,4,,,62,64
320473,note_on,,,,,1,0,0,,,4,,,55,127
320473,note_on,,,,,0,0,0,,,2,,,67,127
320473,note_on,,,,,0,0,0,,,1,,,79,114
320482,note_off,,,,,9,0,0,,,2,,,74,64
320504,note_on,,,,,22,0,0,,,1,,,81,114
320514,note_off,,,,,10,0,0,,,1,,,79,64
320535,note_on,,,,,21,0,0,,,1,,,83,114
320542,note_off,,,,,7,0,0,,,1,,,81,64
320668,note_off,,,,,126,0,0,,,1,,,83,64
320676,note_on,,,,,8,0,0,,,1,,,81,114
320724,note_on,,,,,48,0,0,,,1,,,79,114
320734,note_off,,,,,10,0,0,,,1,,,81,64
320772,note_on,,,,,38,0,0,,,1,,,78,114
320781,note_off,,,,,9,0,0,,,1,,,79,64
320823,note_on,,,,,42,0,0,,,2,,,76,117
320831,note_off,,,,,8,0,0,,,1,,,78,64
320873,note_off,,,,,42,0,0,,,2,,,67,64
320873,note_off,,,,,0,0,0,,,4,,,55,64
320874,note_on,,,,,1,0,0,,,4,,,57,127
320874,note_on,,,,,0,0,0,,,2,,,74,117
320875,note_on,,,,,1,0,0,,,4,,,66,127
320881,note_off,,,,,6,0,0,,,2,,,76,64
321060,note_off,,,,,179,0,0,,,2,,,74,64
321064,note_on,,,,,4,0,0,,,4,,,64,126
321064,note_on,,,,,0,0,0,,,2,,,73,117
321066,note_off,,,,,2,0,0,,,4,,,66,64
321252,note_off,,,,,186,0,0,,,4,,,57,64
321254,note_on,,,,,2,0,0,,,4,,,57,127
321325,note_on,,,,,71,0,0,,,4,,,59,127
321333,note_off,,,,,8,0,0,,,4,,,57,64
321390,note_on,,,,,57,0,0,,,4,,,57,127
321398,note_off,,,,,8,0,0,,,4,,,59,64
321456,note_on,,,,,58,0,0,,,4,,,55,127
321463,note_off,,,,,7,0,0,,,4,,,57,64
321519,note_on,,,,,56,0,0,,,4,,,54,127
321528,note_off,,,,,9,0,0,,,4,,,55,64
321584,note_on,,,,,56,0,0,,,4,,,52,127
321592,note_off,,,,,8,0,0,,,4,,,54,64
321640,note_off,,,,,48,0,0,,,2,,,73,64
321640,note_off,,,,,0,0,0,,,4,,,64,64
321647,note_on,,,,,7,0,0,,,4,,,50,127
321647,note_on,,,,,0,0,0,,,2,,,74,117
321659,note_off,,,,,12,0,0,,,4,,,52,64
321684,note_on,,,,,25,0,0,,,2,,,76,117
321696,note_off,,,,,12,0,0,,,2,,,74,64
321715,note_on,,,,,19,0,0,,,1,,,78,114
321722,note_off,,,,,7,0,0,,,2,,,76,64
321857,note_on,,,,,135,0,0,,,2,,,76,117
321866,note_off,,,,,9,0,0,,,1,,,78,64
321905,note_on,,,,,39,0,0,,,2,,,74,117
321912,note_off,,,,,7,0,0,,,2,,,76,64
321953,note_on,,,,,41,0,0,,,2,,,73,117
321960,note_off,,,,,7,0,0,,,2,,,74,64
322001,note_on,,,,,41,0,0,,,2,,,71,116
322008,note_off,,,,,7,0,0,,,2,,,73,64
322049,note_on,,,,,41,0,0,,,4,,,62,127
322120,note_on,,,,,71,0,0,,,4,,,64,126
322128,note_off,,,,,8,0,0,,,4,,,62,64
322185,note_on,,,,,57,0,0,,,4,,,62,127
322193,note_off,,,,,8,0,0,,,4,,,64,64
322249,note_on,,,,,56,0,0,,,4,,,61,127
322258,note_off,,,,,9,0,0,,,4,,,62,64
322314,note_on,,,,,56,0,0,,,4,,,59,127
322321,note_off,,,,,7,0,0,,,4,,,61,64
322377,note_on,,,,,56,0,0,,,4,,,57,127
322385,note_off,,,,,8,0,0,,,4,,,59,64
322441,note_off,,,,,56,0,0,,,4,,,50,64
322441,note_on,,,,,0,0,0,,,4,,,56,127
322441,note_on,,,,,0,0,0,,,1,,,83,114
322453,note_off,,,,,12,0,0,,,4,,,57,64
322453,note_off,,,,,0,0,0,,,2,,,71,64
322477,note_on,,,,,24,0,0,,,1,,,85,114
322488,note_off,,,,,11,0,0,,,1,,,83,64
322508,note_on,,,,,20,0,0,,,1,,,86,114
322518,note_off,,,,,10,0,0,,,1,,,85,64
322652,note_off,,,,,134,0,0,,,1,,,86,64
322652,note_on,,,,,0,0,0,,,1,,,85,114
322699,note_on,,,,,47,0,0,,,1,,,83,114
322707,note_off,,,,,8,0,0,,,1,,,85,64
322747,note_on,,,,,40,0,0,,,1,,,81,114
322755,note_off,,,,,8,0,0,,,1,,,83,64
322795,note_on,,,,,40,0,0,,,1,,,80,114
322803,note_off,,,,,8,0,0,,,1,,,81,64
322842,note_on,,,,,39,0,0,,,2,,,71,112
322867,note_on,,,,,25,0,0,,,2,,,73,113
322875,note_off,,,,,8,0,0,,,2,,,71,64
322890,note_on,,,,,15,0,0,,,2,,,74,113
322898,note_off,,,,,8,0,0,,,2,,,73,64
323034,note_on,,,,,136,0,0,,,2,,,73,117
323050,note_off,,,,,16,0,0,,,2,,,74,64
323080,note_on,,,,,30,0,0,,,2,,,71,116
323090,note_off,,,,,10,0,0,,,2,,,73,64
323128,note_on,,,,,38,0,0,,,2,,,69,118
323136,note_off,,,,,8,0,0,,,2,,,71,64
323176,note_on,,,,,40,0,0,,,2,,,68,120
323184,note_off,,,,,8,0,0,,,2,,,69,64
323224,note_on,,,,,40,0,0,,,2,,,76,117
323231,note_off,,,,,7,0,0,,,1,,,80,64
323408,note_on,,,,,177,0,0,,,2,,,77,112
323410,note_off,,,,,2,0,0,,,2,,,76,64
323589,note_on,,,,,179,0,0,,,1,,,78,109
323593,note_off,,,,,4,0,0,,,2,,,77,64
323726,note_off,,,,,133,0,0,,,2,,,68,64
323782,note_on,,,,,56,0,0,,,2,,,68,120
323783,note_on,,,,,1,0,0,,,4,,,62,127
323783,note_on,,,,,0,0,0,,,4,,,59,127
323784,note_on,,,,,1,0,0,,,4,,,52,127
323797,note_off,,,,,13,0,0,,,4,,,56,64
323970,note_off,,,,,173,0,0,,,4,,,52,64
323971,note_off,,,,,1,0,0,,,4,,,59,64
323971,note_off,,,,,0,0,0,,,4,,,62,64
323972,note_off,,,,,1,0,0,,,2,,,68,64
323978,note_on,,,,,6,0,0,,,4,,,64,127
323978,note_on,,,,,0,0,0,,,2,,,69,118
323979,note_on,,,,,1,0,0,,,4,,,57,127
323979,note_on,,,,,0,0,0,,,4,,,61,127
323993,note_off,,,,,14,0,0,,,1,,,78,64
324164,note_on,,,,,171,0,0,,,4,,,45,127
324226,note_off,,,,,62,0,0,,,4,,,61,64
324226,note_off,,,,,0,0,0,,,4,,,57,64
324227,note_off,,,,,1,0,0,,,2,,,69,64
324227,note_off,,,,,0,0,0,,,4,,,64,64
324350,note_on,,,,,123,0,0,,,4,,,57,127
324421,note_on,,,,,71,0,0,,,4,,,59,127
324429,note_off,,,,,8,0,0,,,4,,,57,64
324485,note_on,,,,,56,0,0,,,4,,,57,127
324492,note_off,,,,,7,0,0,,,4,,,59,64
324550,note_on,,,,,58,0,0,,,4,,,55,127
324558,note_off,,,,,8,0,0,,,4,,,57,64
324614,note_on,,,,,56,0,0,,,4,,,54,127
324623,note_off,,,,,9,0,0,,,4,,,55,64
324677,note_on,,,,,54,0,0,,,4,,,52,127
324684,note_off,,,,,7,0,0,,,4,,,54,64
324741,note_off,,,,,57,0,0,,,4,,,45,64
324741,note_on,,,,,0,0,0,,,4,,,50,127
324741,note_on,,,,,0,0,0,,,1,,,78,114
324755,note_off,,,,,14,0,0,,,4,,,52,64
324783,note_on,,,,,28,0,0,,,1,,,79,114
324799,note_off,,,,,16,0,0,,,1,,,78,64
324820,note_on,,,,,21,0,0,,,1,,,81,114
324828,note_off,,,,,8,0,0,,,1,,,79,64
324959,note_on,,,,,131,0,0,,,1,,,79,114
324970,note_off,,,,,11,0,0,,,1,,,81,64
325005,note_on,,,,,35,0,0,,,1,,,78,114
325012,note_off,,,,,7,0,0,,,1,,,79,64
325053,note_on,,,,,41,0,0,,,2,,,76,117
325060,note_off,,,,,7,0,0,,,1,,,78,64
325097,note_on,,,,,37,0,0,,,2,,,74,117
325106,note_off,,,,,9,0,0,,,2,,,76,64
325145,note_on,,,,,39,0,0,,,4,,,62,127
325216,note_on,,,,,71,0,0,,,4,,,64,126
325224,note_off,,,,,8,0,0,,,4,,,62,64
325279,note_on,,,,,55,0,0,,,4,,,62,127
325287,note_off,,,,,8,0,0,,,4,,,64,64
325343,note_on,,,,,56,0,0,,,4,,,60,127
325352,note_off,,,,,9,0,0,,,4,,,62,64
325408,note_on,,,,,56,0,0,,,4,,,59,127
325416,note_off,,,,,8,0,0,,,4,,,60,64
325471,note_on,,,,,55,0,0,,,4,,,57,127
325479,note_off,,,,,8,0,0,,,4,,,59,64
325535,note_off,,,,,56,0,0,,,4,,,50,64
325535,note_on,,,,,0,0,0,,,1,,,79,114
325536,note_on,,,,,1,0,0,,,4,,,55,127
325545,note_off,,,,,9,0,0,,,4,,,57,64
325546,note_off,,,,,1,0,0,,,2,,,74,64
325567,note_on,,,,,21,0,0,,,1,,,81,114
325579,note_off,,,,,12,0,0,,,1,,,79,64
325598,note_on,,,,,19,0,0,,,1,,,83,114
325605,note_off,,,,,7,0,0,,,1,,,81,64
325729,note_off,,,,,124,0,0,,,1,,,83,64
325737,note_on,,,,,8,0,0,,,1,,,81,114
325783,note_on,,,,,46,0,0,,,1,,,79,114
325792,note_off,,,,,9,0,0,,,1,,,81,64
325830,note_on,,,,,38,0,0,,,1,,,78,114
325838,note_off,,,,,8,0,0,,,1,,,79,64
325876,note_on,,,,,38,0,0,,,2,,,76,117
325884,note_off,,,,,8,0,0,,,1,,,78,64
325922,note_on,,,,,38,0,0,,,2,,,69,118
325992,note_on,,,,,70,0,0,,,2,,,71,116
325999,note_off,,,,,7,0,0,,,2,,,69,64
326055,note_on,,,,,56,0,0,,,2,,,69,118
326063,note_off,,,,,8,0,0,,,2,,,71,64
326111,note_off,,,,,48,0,0,,,2,,,76,64
326118,note_on,,,,,7,0,0,,,2,,,76,108
326119,note_on,,,,,1,0,0,,,2,,,67,127
326119,note_on,,,,,0,0,0,,,2,,,73,108
326127,note_off,,,,,8,0,0,,,2,,,69,64
326184,note_on,,,,,57,0,0,,,1,,,78,105
326184,note_on,,,,,0,0,0,,,2,,,74,108
326184,note_on,,,,,0,0,0,,,4,,,66,127
326190,note_off,,,,,6,0,0,,,2,,,67,64
326191,note_off,,,,,1,0,0,,,2,,,76,64
326191,note_off,,,,,0,0,0,,,2,,,73,64
326251,note_on,,,,,60,0,0,,,1,,,79,105
326251,note_on,,,,,0,0,0,,,2,,,76,108
326252,note_on,,,,,1,0,0,,,4,,,64,126
326259,note_off,,,,,7,0,0,,,4,,,66,64
326260,note_off,,,,,1,0,0,,,2,,,74,64
326260,note_off,,,,,0,0,0,,,1,,,78,64
326321,note_off,,,,,61,0,0,,,4,,,55,64
326321,note_on,,,,,0,0,0,,,1,,,78,105
326322,note_on,,,,,1,0,0,,,4,,,62,127
326333,note_off,,,,,11,0,0,,,4,,,64,64
326334,note_off,,,,,1,0,0,,,2,,,76,64
326334,note_off,,,,,0,0,0,,,1,,,79,64
326355,note_on,,,,,21,0,0,,,1,,,79,105
326367,note_off,,,,,12,0,0,,,1,,,78,64
326384,note_on,,,,,17,0,0,,,1,,,81,109
326392,note_off,,,,,8,0,0,,,1,,,79,64
326517,note_off,,,,,125,0,0,,,1,,,81,64
326524,note_on,,,,,7,0,0,,,1,,,79,109
326570,note_on,,,,,46,0,0,,,1,,,78,109
326578,note_off,,,,,8,0,0,,,1,,,79,64
326616,note_on,,,,,38,0,0,,,2,,,76,117
326624,note_off,,,,,8,0,0,,,1,,,78,64
326663,note_on,,,,,39,0,0,,,2,,,74,117
326670,note_off,,,,,7,0,0,,,2,,,76,64
326711,note_off,,,,,41,0,0,,,4,,,62,64
326711,note_on,,,,,0,0,0,,,1,,,79,114
326712,note_on,,,,,1,0,0,,,4,,,55,127
326712,note_on,,,,,0,0,0,,,2,,,67,127
326718,note_off,,,,,6,0,0,,,2,,,74,64
326736,note_on,,,,,18,0,0,,,1,,,81,114
326745,note_off,,,,,9,0,0,,,1,,,79,64
326764,note_on,,,,,19,0,0,,,1,,,83,114
326772,note_off,,,,,8,0,0,,,1,,,81,64
326897,note_off,,,,,125,0,0,,,1,,,83,64
326904,note_on,,,,,7,0,0,,,1,,,81,114
326952,note_on,,,,,48,0,0,,,1,,,79,114
326960,note_off,,,,,8,0,0,,,1,,,81,64
327001,note_on,,,,,41,0,0,,,1,,,78,114
327008,note_off,,,,,7,0,0,,,1,,,79,64
327046,note_on,,,,,38,0,0,,,2,,,76,117
327053,note_off,,,,,7,0,0,,,1,,,78,64
327094,note_off,,,,,41,0,0,,,2,,,67,64
327094,note_off,,,,,0,0,0,,,4,,,55,64
327095,note_on,,,,,1,0,0,,,4,,,57,127
327095,note_on,,,,,0,0,0,,,2,,,74,113
327096,note_on,,,,,1,0,0,,,4,,,66,120
327102,note_off,,,,,6,0,0,,,2,,,76,64
327269,note_off,,,,,167,0,0,,,2,,,74,64
327277,note_off,,,,,8,0,0,,,4,,,66,64
327279,note_on,,,,,2,0,0,,,4,,,64,122
327279,note_on,,,,,0,0,0,,,2,,,73,113
327461,note_off,,,,,182,0,0,,,4,,,57,64
327466,note_on,,,,,5,0,0,,,4,,,57,127
327535,note_on,,,,,69,0,0,,,4,,,59,127
327544,note_off,,,,,9,0,0,,,4,,,57,64
327598,note_on,,,,,54,0,0,,,4,,,57,127
327606,note_off,,,,,8,0,0,,,4,,,59,64
327663,note_on,,,,,57,0,0,,,4,,,55,127
327671,note_off,,,,,8,0,0,,,4,,,57,64
327727,note_on,,,,,56,0,0,,,4,,,54,127
327734,note_off,,,,,7,0,0,,,4,,,55,64
327789,note_on,,,,,55,0,0,,,4,,,52,127
327797,note_off,,,,,8,0,0,,,4,,,54,64
327852,note_off,,,,,55,0,0,,,4,,,64,64
327853,note_off,,,,,1,0,0,,,2,,,73,64
327853,note_on,,,,,0,0,0,,,2,,,74,117
327854,note_on,,,,,1,0,0,,,4,,,50,127
327864,note_off,,,,,10,0,0,,,4,,,52,64
327889,note_on,,,,,25,0,0,,,2,,,76,117
327900,note_off,,,,,11,0,0,,,2,,,74,64
327924,note_on,,,,,24,0,0,,,1,,,78,114
327935,note_off,,,,,11,0,0,,,2,,,76,64
328058,note_off,,,,,123,0,0,,,1,,,78,64
328066,note_on,,,,,8,0,0,,,2,,,76,117
328114,note_on,,,,,48,0,0,,,2,,,74,117
328121,note_off,,,,,7,0,0,,,2,,,76,64
328160,note_on,,,,,39,0,0,,,2,,,73,117
328167,note_off,,,,,7,0,0,,,2,,,74,64
328206,note_on,,,,,39,0,0,,,2,,,71,116
328213,note_off,,,,,7,0,0,,,2,,,73,64
328252,note_on,,,,,39,0,0,,,4,,,62,127
328323,note_on,,,,,71,0,0,,,4,,,64,126
328331,note_off,,,,,8,0,0,,,4,,,62,64
328384,note_on,,,,,53,0,0,,,4,,,62,127
328392,note_off,,,,,8,0,0,,,4,,,64,64
328450,note_on,,,,,58,0,0,,,4,,,61,127
328457,note_off,,,,,7,0,0,,,4,,,62,64
328513,note_on,,,,,56,0,0,,,4,,,59,127
328521,note_off,,,,,8,0,0,,,4,,,61,64
328576,note_on,,,,,55,0,0,,,4,,,57,127
328584,note_off,,,,,8,0,0,,,4,,,59,64
328640,note_off,,,,,56,0,0,,,4,,,50,64
328640,note_on,,,,,0,0,0,,,1,,,83,114
328641,note_on,,,,,1,0,0,,,4,,,56,127
328652,note_off,,,,,11,0,0,,,4,,,57,64
328653,note_off,,,,,1,0,0,,,2,,,71,64
328674,note_on,,,,,21,0,0,,,1,,,85,114
328686,note_off,,,,,12,0,0,,,1,,,83,64
328705,note_on,,,,,19,0,0,,,1,,,86,114
328713,note_off,,,,,8,0,0,,,1,,,85,64
328845,note_on,,,,,132,0,0,,,1,,,85,114
328860,note_off,,,,,15,0,0,,,1,,,86,64
328891,note_on,,,,,31,0,0,,,1,,,83,114
328899,note_off,,,,,8,0,0,,,1,,,85,64
328937,note_on,,,,,38,0,0,,,1,,,81,114
328945,note_off,,,,,8,0,0,,,1,,,83,64
328983,note_on,,,,,38,0,0,,,1,,,80,114
328991,note_off,,,,,8,0,0,,,1,,,81,64
329031,note_on,,,,,40,0,0,,,2,,,71,112
329053,note_on,,,,,22,0,0,,,2,,,73,113
329062,note_off,,,,,9,0,0,,,2,,,71,64
329077,note_on,,,,,15,0,0,,,2,,,74,113
329085,note_off,,,,,8,0,0,,,2,,,73,64
329216,note_on,,,,,131,0,0,,,2,,,73,117
329223,note_off,,,,,7,0,0,,,2,,,74,64
329264,note_on,,,,,41,0,0,,,2,,,71,116
329271,note_off,,,,,7,0,0,,,2,,,73,64
329309,note_on,,,,,38,0,0,,,2,,,69,118
329317,note_off,,,,,8,0,0,,,2,,,71,64
329357,note_on,,,,,40,0,0,,,2,,,68,120
329364,note_off,,,,,7,0,0,,,2,,,69,64
329405,note_off,,,,,41,0,0,,,4,,,56,64
329405,note_on,,,,,0,0,0,,,2,,,76,117
329412,note_off,,,,,7,0,0,,,1,,,80,64
329590,note_on,,,,,178,0,0,,,2,,,77,112
329594,note_off,,,,,4,0,0,,,2,,,76,64
329777,note_on,,,,,183,0,0,,,1,,,78,109
329780,note_off,,,,,3,0,0,,,2,,,77,64
329946,note_off,,,,,166,0,0,,,2,,,68,64
329971,note_on,,,,,25,0,0,,,4,,,59,127
329971,note_on,,,,,0,0,0,,,4,,,62,127
329971,note_on,,,,,0,0,0,,,2,,,68,120
329972,note_on,,,,,1,0,0,,,4,,,52,127
330160,note_off,,,,,188,0,0,,,4,,,59,64
330160,note_off,,,,,0,0,0,,,4,,,52,64
330161,note_off,,,,,1,0,0,,,2,,,68,64
330161,note_off,,,,,0,0,0,,,4,,,62,64
330169,note_on,,,,,8,0,0,,,2,,,69,118
330170,note_on,,,,,1,0,0,,,4,,,61,127
330170,note_on,,,,,0,0,0,,,4,,,64,126
330171,note_on,,,,,1,0,0,,,4,,,57,127
330185,note_off,,,,,14,0,0,,,1,,,78,64
330348,note_on,,,,,163,0,0,,,4,,,45,127
330408,note_off,,,,,60,0,0,,,4,,,64,64
330408,note_off,,,,,0,0,0,,,4,,,61,64
330408,note_off,,,,,0,0,0,,,4,,,57,64
330409,note_off,,,,,1,0,0,,,2,,,69,64
330527,note_on,,,,,118,0,0,,,2,,,69,118
330592,note_on,,,,,65,0,0,,,2,,,72,117
330600,note_off,,,,,8,0,0,,,2,,,69,64
330651,note_on,,,,,51,0,0,,,2,,,75,112
330659,note_off,,,,,8,0,0,,,2,,,72,64
330711,note_on,,,,,52,0,0,,,1,,,78,109
330719,note_off,,,,,8,0,0,,,2,,,75,64
330772,note_on,,,,,53,0,0,,,1,,,81,109
330780,note_off,,,,,8,0,0,,,1,,,78,64
330836,note_on,,,,,56,0,0,,,1,,,84,109
330843,note_off,,,,,7,0,0,,,1,,,81,64
330900,note_off,,,,,57,0,0,,,4,,,45,64
330900,note_on,,,,,0,0,0,,,1,,,78,109
330900,note_on,,,,,0,0,0,,,1,,,81,109
330901,note_on,,,,,1,0,0,,,4,,,59,127
330912,note_off,,,,,11,0,0,,,1,,,84,64
330936,note_on,,,,,24,0,0,,,4,,,61,127
330943,note_off,,,,,7,0,0,,,4,,,59,64
330959,note_on,,,,,16,0,0,,,4,,,63,127
330966,note_off,,,,,7,0,0,,,4,,,61,64
331111,note_on,,,,,145,0,0,,,2,,,76,112
331111,note_on,,,,,0,0,0,,,1,,,80,109
331112,note_on,,,,,1,0,0,,,4,,,64,126
331116,note_off,,,,,4,0,0,,,1,,,78,64
331116,note_off,,,,,0,0,0,,,4,,,63,64
331117,note_off,,,,,1,0,0,,,1,,,81,64
331167,note_on,,,,,50,0,0,,,4,,,62,127
331175,note_off,,,,,8,0,0,,,4,,,64,64
331212,note_on,,,,,37,0,0,,,4,,,61,127
331218,note_off,,,,,6,0,0,,,4,,,62,64
331256,note_on,,,,,38,0,0,,,4,,,59,127
331264,note_off,,,,,8,0,0,,,4,,,61,64
331293,note_off,,,,,29,0,0,,,2,,,76,64
331296,note_off,,,,,3,0,0,,,4,,,59,64
331302,note_on,,,,,6,0,0,,,1,,,79,109
331303,note_on,,,,,1,0,0,,,2,,,76,112
331303,note_on,,,,,0,0,0,,,4,,,57,127
331308,note_off,,,,,5,0,0,,,1,,,80,64
331337,note_off,,,,,29,0,0,,,4,,,57,64
331339,note_on,,,,,2,0,0,,,4,,,59,127
331362,note_off,,,,,23,0,0,,,4,,,59,64
331362,note_on,,,,,0,0,0,,,4,,,61,127
331517,note_on,,,,,155,0,0,,,1,,,78,109
331518,note_on,,,,,1,0,0,,,2,,,74,112
331518,note_on,,,,,0,0,0,,,4,,,62,127
331520,note_off,,,,,2,0,0,,,2,,,76,64
331521,note_off,,,,,1,0,0,,,1,,,79,64
331525,note_off,,,,,4,0,0,,,4,,,61,64
331561,note_on,,,,,36,0,0,,,4,,,61,127
331569,note_off,,,,,8,0,0,,,4,,,62,64
331606,note_on,,,,,37,0,0,,,4,,,59,127
331613,note_off,,,,,7,0,0,,,4,,,61,64
331650,note_on,,,,,37,0,0,,,4,,,58,127
331657,note_off,,,,,7,0,0,,,4,,,59,64
331694,note_on,,,,,37,0,0,,,1,,,86,114
331694,note_on,,,,,0,0,0,,,4,,,59,127
331697,note_off,,,,,3,0,0,,,1,,,78,64
331703,note_off,,,,,6,0,0,,,4,,,58,64
331743,note_off,,,,,40,0,0,,,1,,,86,64
331744,note_on,,,,,1,0,0,,,1,,,85,114
331744,note_on,,,,,0,0,0,,,4,,,57,127
331749,note_off,,,,,5,0,0,,,4,,,59,64
331786,note_off,,,,,37,0,0,,,1,,,85,64
331786,note_on,,,,,0,0,0,,,1,,,83,114
331787,note_on,,,,,1,0,0,,,4,,,55,127
331793,note_off,,,,,6,0,0,,,4,,,57,64
331832,note_off,,,,,39,0,0,,,1,,,83,64
331832,note_on,,,,,0,0,0,,,1,,,82,114
331832,note_on,,,,,0,0,0,,,4,,,54,127
331840,note_off,,,,,8,0,0,,,4,,,55,64
331877,note_off,,,,,37,0,0,,,1,,,82,64
331877,note_on,,,,,0,0,0,,,4,,,55,127
331877,note_on,,,,,0,0,0,,,1,,,83,114
331885,note_off,,,,,8,0,0,,,4,,,54,64
332052,note_off,,,,,167,0,0,,,1,,,83,64
332052,note_off,,,,,0,0,0,,,4,,,55,64
332061,note_on,,,,,9,0,0,,,1,,,83,114
332061,note_on,,,,,0,0,0,,,4,,,55,127
332108,note_off,,,,,47,0,0,,,1,,,83,64
332108,note_on,,,,,0,0,0,,,1,,,81,114
332109,note_on,,,,,1,0,0,,,4,,,54,127
332115,note_off,,,,,6,0,0,,,4,,,55,64
332151,note_off,,,,,36,0,0,,,1,,,81,64
332152,note_on,,,,,1,0,0,,,4,,,52,127
332152,note_on,,,,,0,0,0,,,1,,,79,114
332160,note_off,,,,,8,0,0,,,4,,,54,64
332198,note_off,,,,,38,0,0,,,1,,,79,64
332199,note_on,,,,,1,0,0,,,1,,,78,114
332199,note_on,,,,,0,0,0,,,4,,,51,127
332205,note_off,,,,,6,0,0,,,4,,,52,64
332244,note_off,,,,,39,0,0,,,1,,,78,64
332245,note_on,,,,,1,0,0,,,4,,,52,127
332245,note_on,,,,,0,0,0,,,1,,,79,114
332254,note_off,,,,,9,0,0,,,4,,,51,64
332432,note_off,,,,,178,0,0,,,2,,,74,64
332432,note_on,,,,,0,0,0,,,2,,,69,118
332613,note_on,,,,,181,0,0,,,2,,,67,127
332614,note_on,,,,,1,0,0,,,4,,,64,126
332631,note_off,,,,,17,0,0,,,2,,,69,64
332704,note_on,,,,,73,0,0,,,2,,,71,111
332756,note_on,,,,,52,0,0,,,2,,,73,112
332779,note_off,,,,,23,0,0,,,2,,,71,64
332804,note_off,,,,,25,0,0,,,1,,,79,64
332805,note_on,,,,,1,0,0,,,4,,,66,127
332805,note_on,,,,,0,0,0,,,2,,,74,112
332806,note_off,,,,,1,0,0,,,4,,,64,64
332806,note_on,,,,,0,0,0,,,4,,,62,127
332807,note_off,,,,,1,0,0,,,2,,,67,64
332826,note_off,,,,,19,0,0,,,2,,,73,64
332895,note_on,,,,,69,0,0,,,2,,,76,112
332906,note_off,,,,,11,0,0,,,2,,,74,64
332984,note_off,,,,,78,0,0,,,4,,,62,64
332993,note_on,,,,,9,0,0,,,1,,,78,109
332994,note_on,,,,,1,0,0,,,4,,,59,127
332994,note_on,,,,,0,0,0,,,4,,,62,127
332995,note_off,,,,,1,0,0,,,4,,,66,64
333003,note_off,,,,,8,0,0,,,2,,,76,64
333087,note_on,,,,,84,0,0,,,1,,,80,114
333099,note_off,,,,,12,0,0,,,1,,,78,64
333175,note_off,,,,,76,0,0,,,1,,,80,64
333175,note_off,,,,,0,0,0,,,4,,,62,64
333183,note_off,,,,,8,0,0,,,4,,,52,64
333184,note_on,,,,,1,0,0,,,4,,,62,127
333184,note_on,,,,,0,0,0,,,1,,,80,114
333185,note_on,,,,,1,0,0,,,4,,,57,127
333187,note_off,,,,,2,0,0,,,4,,,59,64
333379,note_on,,,,,192,0,0,,,1,,,81,114
333380,note_on,,,,,1,0,0,,,4,,,61,127
333382,note_off,,,,,2,0,0,,,4,,,62,64
333383,note_off,,,,,1,0,0,,,1,,,80,64
333546,note_off,,,,,163,0,0,,,4,,,61,64
333554,note_off,,,,,8,0,0,,,4,,,57,64
333554,note_on,,,,,0,0,0,,,4,,,61,127
333555,note_on,,,,,1,0,0,,,4,,,49,127
333582,note_on,,,,,27,0,0,,,4,,,50,127
333582,note_on,,,,,0,0,0,,,4,,,62,127
333594,note_off,,,,,12,0,0,,,4,,,49,64
333595,note_off,,,,,1,0,0,,,4,,,61,64
333612,note_on,,,,,17,0,0,,,4,,,64,122
333613,note_on,,,,,1,0,0,,,4,,,52,127
333621,note_off,,,,,8,0,0,,,4,,,50,64
333622,note_off,,,,,1,0,0,,,4,,,62,64
333745,note_off,,,,,123,0,0,,,4,,,52,64
333745,note_off,,,,,0,0,0,,,4,,,64,64
333752,note_on,,,,,7,0,0,,,4,,,62,127
333752,note_on,,,,,0,0,0,,,4,,,50,127
333797,note_on,,,,,45,0,0,,,4,,,49,127
333797,note_on,,,,,0,0,0,,,4,,,61,127
333805,note_off,,,,,8,0,0,,,4,,,50,64
333806,note_off,,,,,1,0,0,,,4,,,62,64
333843,note_on,,,,,37,0,0,,,4,,,59,127
333843,note_on,,,,,0,0,0,,,4,,,47,127
333852,note_off,,,,,9,0,0,,,4,,,61,64
333852,note_off,,,,,0,0,0,,,4,,,49,64
333889,note_on,,,,,37,0,0,,,4,,,57,127
333893,note_on,,,,,4,0,0,,,4,,,45,127
333897,note_off,,,,,4,0,0,,,4,,,47,64
333897,note_off,,,,,0,0,0,,,4,,,59,64
333932,note_off,,,,,35,0,0,,,4,,,57,64
333936,note_off,,,,,4,0,0,,,1,,,81,64
333936,note_on,,,,,0,0,0,,,2,,,69,118
333937,note_on,,,,,1,0,0,,,4,,,57,127
334265,note_off,,,,,328,0,0,,,2,,,69,64
334267,note_on,,,,,2,0,0,,,2,,,69,118
334331,note_off,,,,,64,0,0,,,2,,,69,64
334331,note_on,,,,,0,0,0,,,2,,,71,116
334391,note_off,,,,,60,0,0,,,2,,,71,64
334392,note_on,,,,,1,0,0,,,2,,,69,118
334453,note_off,,,,,61,0,0,,,2,,,69,64
334454,note_on,,,,,1,0,0,,,2,,,67,127
334514,note_off,,,,,60,0,0,,,2,,,67,64
334515,note_on,,,,,1,0,0,,,4,,,66,127
334577,note_off,,,,,62,0,0,,,4,,,66,64
334577,note_on,,,,,0,0,0,,,4,,,64,126
334641,note_off,,,,,64,0,0,,,4,,,64,64
334641,note_on,,,,,0,0,0,,,1,,,78,109
334642,note_off,,,,,1,0,0,,,4,,,57,64
334642,note_on,,,,,0,0,0,,,4,,,62,127
334678,note_on,,,,,36,0,0,,,1,,,79,109
334685,note_off,,,,,7,0,0,,,1,,,78,64
334701,note_on,,,,,16,0,0,,,1,,,81,109
334708,note_off,,,,,7,0,0,,,1,,,79,64
334837,note_on,,,,,129,0,0,,,1,,,79,109
334840,note_off,,,,,3,0,0,,,1,,,81,64
334881,note_on,,,,,41,0,0,,,1,,,78,109
334889,note_off,,,,,8,0,0,,,1,,,79,64
334927,note_on,,,,,38,0,0,,,2,,,76,117
334935,note_off,,,,,8,0,0,,,1,,,78,64
334974,note_on,,,,,39,0,0,,,2,,,74,117
334982,note_off,,,,,8,0,0,,,2,,,76,64
335018,note_off,,,,,36,0,0,,,4,,,62,64
335022,note_on,,,,,4,0,0,,,4,,,62,127
335091,note_on,,,,,69,0,0,,,4,,,64,126
335099,note_off,,,,,8,0,0,,,4,,,62,64
335153,note_on,,,,,54,0,0,,,4,,,62,127
335160,note_off,,,,,7,0,0,,,4,,,64,64
335214,note_on,,,,,54,0,0,,,4,,,60,127
335224,note_off,,,,,10,0,0,,,4,,,62,64
335278,note_on,,,,,54,0,0,,,4,,,59,127
335286,note_off,,,,,8,0,0,,,4,,,60,64
335340,note_on,,,,,54,0,0,,,4,,,57,127
335348,note_off,,,,,8,0,0,,,4,,,59,64
335401,note_on,,,,,53,0,0,,,1,,,79,109
335402,note_on,,,,,1,0,0,,,4,,,55,127
335412,note_off,,,,,10,0,0,,,4,,,57,64
335412,note_off,,,,,0,0,0,,,2,,,74,64
335426,note_off,,,,,14,0,0,,,4,,,45,64
335432,note_on,,,,,6,0,0,,,1,,,81,109
335442,note_off,,,,,10,0,0,,,1,,,79,64
335459,note_on,,,,,17,0,0,,,1,,,83,109
335467,note_off,,,,,8,0,0,,,1,,,81,64
335594,note_on,,,,,127,0,0,,,1,,,81,109
335601,note_off,,,,,7,0,0,,,1,,,83,64
335640,note_on,,,,,39,0,0,,,1,,,79,109
335647,note_off,,,,,7,0,0,,,1,,,81,64
335686,note_on,,,,,39,0,0,,,1,,,78,109
335693,note_off,,,,,7,0,0,,,1,,,79,64
335730,note_on,,,,,37,0,0,,,2,,,76,117
335737,note_off,,,,,7,0,0,,,1,,,78,64
335776,note_on,,,,,39,0,0,,,4,,,64,126
335799,note_on,,,,,23,0,0,,,4,,,66,127
335805,note_off,,,,,6,0,0,,,4,,,64,64
335820,note_on,,,,,15,0,0,,,2,,,67,127
335828,note_off,,,,,8,0,0,,,4,,,66,64
335951,note_off,,,,,123,0,0,,,2,,,67,64
335956,note_on,,,,,5,0,0,,,4,,,66,127
336002,note_on,,,,,46,0,0,,,4,,,64,126
336010,note_off,,,,,8,0,0,,,4,,,66,64
336047,note_on,,,,,37,0,0,,,4,,,62,127
336054,note_off,,,,,7,0,0,,,4,,,64,64
336095,note_on,,,,,41,0,0,,,4,,,61,127
336101,note_off,,,,,6,0,0,,,4,,,62,64
336140,note_off,,,,,39,0,0,,,4,,,55,64
336140,note_on,,,,,0,0,0,,,1,,,81,114
336148,note_off,,,,,8,0,0,,,2,,,76,64
336327,note_on,,,,,179,0,0,,,1,,,82,109
336329,note_off,,,,,2,0,0,,,1,,,81,64
336511,note_on,,,,,182,0,0,,,1,,,83,109
336515,note_off,,,,,4,0,0,,,1,,,82,64
336700,note_on,,,,,185,0,0,,,4,,,64,127
336700,note_on,,,,,0,0,0,,,2,,,67,127
336700,note_on,,,,,0,0,0,,,2,,,73,117
336701,note_on,,,,,1,0,0,,,4,,,57,127
336707,note_off,,,,,6,0,0,,,4,,,61,64
336850,note_off,,,,,143,0,0,,,1,,,83,64
336894,note_off,,,,,44,0,0,,,2,,,67,64
336894,note_off,,,,,0,0,0,,,4,,,64,64
336894,note_off,,,,,0,0,0,,,4,,,57,64
336895,note_off,,,,,1,0,0,,,2,,,73,64
336903,note_on,,,,,8,0,0,,,2,,,74,117
336904,note_on,,,,,1,0,0,,,4,,,62,127
336904,note_on,,,,,0,0,0,,,4,,,66,127
336904,note_on,,,,,0,0,0,,,2,,,69,118
337082,note_on,,,,,178,0,0,,,4,,,50,127
337141,note_off,,,,,59,0,0,,,4,,,62,64
337142,note_off,,,,,1,0,0,,,2,,,69,64
337142,note_off,,,,,0,0,0,,,4,,,66,64
337143,note_off,,,,,1,0,0,,,2,,,74,64
337260,note_on,,,,,117,0,0,,,2,,,69,118
337326,note_on,,,,,66,0,0,,,2,,,72,117
337333,note_off,,,,,7,0,0,,,2,,,69,64
337385,note_on,,,,,52,0,0,,,2,,,75,117
337393,note_off,,,,,8,0,0,,,2,,,72,64
337445,note_on,,,,,52,0,0,,,1,,,78,114
337452,note_off,,,,,7,0,0,,,2,,,75,64
337506,note_on,,,,,54,0,0,,,1,,,81,114
337514,note_off,,,,,8,0,0,,,1,,,78,64
337568,note_on,,,,,54,0,0,,,1,,,84,114
337575,note_off,,,,,7,0,0,,,1,,,81,64
337623,note_off,,,,,48,0,0,,,1,,,84,64
337627,note_on,,,,,4,0,0,,,1,,,84,109
337628,note_on,,,,,1,0,0,,,1,,,81,109
337628,note_on,,,,,0,0,0,,,4,,,59,127
337638,note_off,,,,,10,0,0,,,4,,,50,64
337653,note_on,,,,,15,0,0,,,4,,,61,127
337661,note_off,,,,,8,0,0,,,4,,,59,64
337676,note_on,,,,,15,0,0,,,4,,,63,127
337684,note_off,,,,,8,0,0,,,4,,,61,64
337814,note_on,,,,,130,0,0,,,4,,,64,126
337824,note_off,,,,,10,0,0,,,1,,,84,64
337824,note_off,,,,,0,0,0,,,1,,,81,64
337835,note_on,,,,,11,0,0,,,2,,,76,112
337840,note_off,,,,,5,0,0,,,4,,,63,64
337846,note_on,,,,,6,0,0,,,1,,,80,109
337883,note_off,,,,,37,0,0,,,4,,,64,64
337883,note_on,,,,,0,0,0,,,4,,,62,127
337930,note_off,,,,,47,0,0,,,4,,,62,64
337930,note_on,,,,,0,0,0,,,4,,,61,127
337977,note_off,,,,,47,0,0,,,4,,,61,64
337977,note_on,,,,,0,0,0,,,4,,,59,127
338024,note_off,,,,,47,0,0,,,4,,,59,64
338024,note_off,,,,,0,0,0,,,2,,,76,64
338025,note_on,,,,,1,0,0,,,4,,,57,127
338031,note_on,,,,,6,0,0,,,2,,,76,112
338035,note_on,,,,,4,0,0,,,1,,,79,109
338037,note_off,,,,,2,0,0,,,1,,,80,64
338049,note_on,,,,,12,0,0,,,4,,,59,127
338056,note_off,,,,,7,0,0,,,4,,,57,64
338072,note_on,,,,,16,0,0,,,4,,,61,127
338081,note_off,,,,,9,0,0,,,4,,,59,64
338200,note_off,,,,,119,0,0,,,4,,,61,64
338208,note_on,,,,,8,0,0,,,4,,,62,127
338227,note_on,,,,,19,0,0,,,2,,,74,112
338239,note_off,,,,,12,0,0,,,2,,,76,64
338239,note_on,,,,,0,0,0,,,1,,,78,109
338245,note_off,,,,,6,0,0,,,1,,,79,64
338278,note_on,,,,,33,0,0,,,4,,,61,127
338286,note_off,,,,,8,0,0,,,4,,,62,64
338322,note_on,,,,,36,0,0,,,4,,,59,127
338330,note_off,,,,,8,0,0,,,4,,,61,64
338368,note_on,,,,,38,0,0,,,4,,,58,127
338376,note_off,,,,,8,0,0,,,4,,,59,64
338414,note_on,,,,,38,0,0,,,1,,,86,109
338415,note_on,,,,,1,0,0,,,4,,,59,127
338423,note_off,,,,,8,0,0,,,4,,,58,64
338463,note_on,,,,,40,0,0,,,1,,,85,109
338464,note_on,,,,,1,0,0,,,4,,,57,127
338470,note_off,,,,,6,0,0,,,4,,,59,64
338471,note_off,,,,,1,0,0,,,1,,,86,64
338508,note_on,,,,,37,0,0,,,1,,,83,109
338508,note_on,,,,,0,0,0,,,4,,,55,127
338514,note_off,,,,,6,0,0,,,4,,,57,64
338515,note_off,,,,,1,0,0,,,1,,,85,64
338552,note_on,,,,,37,0,0,,,1,,,82,109
338552,note_on,,,,,0,0,0,,,4,,,54,127
338558,note_off,,,,,6,0,0,,,4,,,55,64
338559,note_off,,,,,1,0,0,,,1,,,83,64
338596,note_on,,,,,37,0,0,,,4,,,55,127
338596,note_on,,,,,0,0,0,,,1,,,83,109
338604,note_off,,,,,8,0,0,,,4,,,54,64
338605,note_off,,,,,1,0,0,,,1,,,82,64
338605,note_off,,,,,0,0,0,,,1,,,78,64
338765,note_off,,,,,160,0,0,,,1,,,83,64
338772,note_off,,,,,7,0,0,,,4,,,55,64
338780,note_on,,,,,8,0,0,,,1,,,83,109
338781,note_on,,,,,1,0,0,,,4,,,55,127
338827,note_on,,,,,46,0,0,,,1,,,81,109
338828,note_on,,,,,1,0,0,,,4,,,54,127
338834,note_off,,,,,6,0,0,,,4,,,55,64
338835,note_off,,,,,1,0,0,,,1,,,83,64
338871,note_on,,,,,36,0,0,,,1,,,79,109
338872,note_on,,,,,1,0,0,,,4,,,52,127
338879,note_off,,,,,7,0,0,,,4,,,54,64
338879,note_off,,,,,0,0,0,,,1,,,81,64
338917,note_on,,,,,38,0,0,,,1,,,78,109
338917,note_on,,,,,0,0,0,,,4,,,51,127
338923,note_off,,,,,6,0,0,,,4,,,52,64
338924,note_off,,,,,1,0,0,,,1,,,79,64
338961,note_on,,,,,37,0,0,,,4,,,52,127
338961,note_on,,,,,0,0,0,,,1,,,79,109
338967,note_off,,,,,6,0,0,,,1,,,78,64
338970,note_off,,,,,3,0,0,,,4,,,51,64
339143,note_on,,,,,173,0,0,,,2,,,69,118
339148,note_off,,,,,5,0,0,,,2,,,74,64
339329,note_on,,,,,181,0,0,,,4,,,64,126
339329,note_on,,,,,0,0,0,,,2,,,67,127
339420,note_off,,,,,91,0,0,,,2,,,69,64
339424,note_on,,,,,4,0,0,,,2,,,71,116
339474,note_on,,,,,50,0,0,,,2,,,73,117
339497,note_off,,,,,23,0,0,,,2,,,71,64
339519,note_off,,,,,22,0,0,,,1,,,79,64
339519,note_on,,,,,0,0,0,,,2,,,74,117
339520,note_on,,,,,1,0,0,,,4,,,62,127
339520,note_on,,,,,0,0,0,,,4,,,66,127
339522,note_off,,,,,2,0,0,,,4,,,64,64
339523,note_off,,,,,1,0,0,,,2,,,67,64
339543,note_off,,,,,20,0,0,,,2,,,73,64
339612,note_on,,,,,69,0,0,,,2,,,76,117
339622,note_off,,,,,10,0,0,,,2,,,74,64
339695,note_off,,,,,73,0,0,,,4,,,62,64
339702,note_on,,,,,7,0,0,,,1,,,78,114
339703,note_on,,,,,1,0,0,,,4,,,59,127
339703,note_on,,,,,0,0,0,,,4,,,62,127
339705,note_off,,,,,2,0,0,,,4,,,66,64
339711,note_off,,,,,6,0,0,,,2,,,76,64
339792,note_on,,,,,81,0,0,,,1,,,80,114
339803,note_off,,,,,11,0,0,,,1,,,78,64
339878,note_off,,,,,75,0,0,,,1,,,80,64
339878,note_off,,,,,0,0,0,,,4,,,62,64
339880,note_off,,,,,2,0,0,,,4,,,59,64
339885,note_off,,,,,5,0,0,,,4,,,52,64
339885,note_on,,,,,0,0,0,,,1,,,80,114
339886,note_on,,,,,1,0,0,,,4,,,57,127
339886,note_on,,,,,0,0,0,,,4,,,62,127
340073,note_on,,,,,187,0,0,,,1,,,81,114
340073,note_on,,,,,0,0,0,,,4,,,61,127
340076,note_off,,,,,3,0,0,,,4,,,62,64
340076,note_off,,,,,0,0,0,,,1,,,80,64
340236,note_off,,,,,160,0,0,,,4,,,61,64
340251,note_off,,,,,15,0,0,,,4,,,57,64
340252,note_on,,,,,1,0,0,,,4,,,61,127
340252,note_on,,,,,0,0,0,,,4,,,49,127
340287,note_on,,,,,35,0,0,,,4,,,50,127
340287,note_on,,,,,0,0,0,,,4,,,62,127
340299,note_off,,,,,12,0,0,,,4,,,49,64
340300,note_off,,,,,1,0,0,,,4,,,61,64
340318,note_on,,,,,18,0,0,,,4,,,52,127
340318,note_on,,,,,0,0,0,,,4,,,64,127
340326,note_off,,,,,8,0,0,,,4,,,50,64
340327,note_off,,,,,1,0,0,,,4,,,62,64
340458,note_on,,,,,131,0,0,,,4,,,62,127
340458,note_on,,,,,0,0,0,,,4,,,50,127
340464,note_off,,,,,6,0,0,,,4,,,52,64
340465,note_off,,,,,1,0,0,,,4,,,64,64
340506,note_on,,,,,41,0,0,,,4,,,49,127
340506,note_on,,,,,0,0,0,,,4,,,61,127
340512,note_off,,,,,6,0,0,,,4,,,50,64
340513,note_off,,,,,1,0,0,,,4,,,62,64
340552,note_on,,,,,39,0,0,,,4,,,59,127
340553,note_on,,,,,1,0,0,,,4,,,47,127
340561,note_off,,,,,8,0,0,,,4,,,49,64
340562,note_off,,,,,1,0,0,,,4,,,61,64
340603,note_on,,,,,41,0,0,,,4,,,57,127
340608,note_on,,,,,5,0,0,,,4,,,45,127
340612,note_off,,,,,4,0,0,,,4,,,47,64
340613,note_off,,,,,1,0,0,,,4,,,59,64
340640,note_off,,,,,27,0,0,,,1,,,81,64
340650,note_off,,,,,10,0,0,,,4,,,57,64
340659,note_on,,,,,9,0,0,,,2,,,69,118
340660,note_on,,,,,1,0,0,,,4,,,57,127
341004,note_off,,,,,344,0,0,,,2,,,69,64
341008,note_on,,,,,4,0,0,,,2,,,69,118
341075,note_on,,,,,67,0,0,,,2,,,71,116
341082,note_off,,,,,7,0,0,,,2,,,69,64
341134,note_on,,,,,52,0,0,,,2,,,69,118
341141,note_off,,,,,7,0,0,,,2,,,71,64
341195,note_on,,,,,54,0,0,,,2,,,67,127
341203,note_off,,,,,8,0,0,,,2,,,69,64
341256,note_on,,,,,53,0,0,,,4,,,66,127
341265,note_off,,,,,9,0,0,,,2,,,67,64
341317,note_on,,,,,52,0,0,,,4,,,64,126
341326,note_off,,,,,9,0,0,,,4,,,66,64
341382,note_off,,,,,56,0,0,,,4,,,57,64
341382,note_on,,,,,0,0,0,,,1,,,78,109
341383,note_on,,,,,1,0,0,,,4,,,62,127
341401,note_off,,,,,18,0,0,,,4,,,64,64
341432,note_on,,,,,31,0,0,,,1,,,79,109
341444,note_off,,,,,12,0,0,,,1,,,78,64
341460,note_on,,,,,16,0,0,,,1,,,81,109
341467,note_off,,,,,7,0,0,,,1,,,79,64
341600,note_off,,,,,133,0,0,,,1,,,81,64
341600,note_on,,,,,0,0,0,,,1,,,79,114
341647,note_on,,,,,47,0,0,,,1,,,78,114
341654,note_off,,,,,7,0,0,,,1,,,79,64
341693,note_on,,,,,39,0,0,,,2,,,76,117
341700,note_off,,,,,7,0,0,,,1,,,78,64
341739,note_on,,,,,39,0,0,,,2,,,74,117
341746,note_off,,,,,7,0,0,,,2,,,76,64
341782,note_off,,,,,36,0,0,,,4,,,62,64
341786,note_on,,,,,4,0,0,,,4,,,62,127
341853,note_on,,,,,67,0,0,,,4,,,64,126
341861,note_off,,,,,8,0,0,,,4,,,62,64
341916,note_on,,,,,55,0,0,,,4,,,62,127
341924,note_off,,,,,8,0,0,,,4,,,64,64
341982,note_on,,,,,58,0,0,,,4,,,60,127
341989,note_off,,,,,7,0,0,,,4,,,62,64
342045,note_on,,,,,56,0,0,,,4,,,59,127
342053,note_off,,,,,8,0,0,,,4,,,60,64
342107,note_on,,,,,54,0,0,,,4,,,57,127
342114,note_off,,,,,7,0,0,,,4,,,59,64
342168,note_on,,,,,54,0,0,,,4,,,55,127
342168,note_on,,,,,0,0,0,,,1,,,79,109
342182,note_off,,,,,14,0,0,,,4,,,57,64
342183,note_off,,,,,1,0,0,,,2,,,74,64
342206,note_on,,,,,23,0,0,,,1,,,81,109
342214,note_off,,,,,8,0,0,,,1,,,79,64
342229,note_on,,,,,15,0,0,,,1,,,83,109
342237,note_off,,,,,8,0,0,,,1,,,81,64
342370,note_off,,,,,133,0,0,,,1,,,83,64
342370,note_on,,,,,0,0,0,,,1,,,81,114
342417,note_on,,,,,47,0,0,,,1,,,79,114
342424,note_off,,,,,7,0,0,,,1,,,81,64
342435,note_off,,,,,11,0,0,,,4,,,45,64
342462,note_on,,,,,27,0,0,,,1,,,78,114
342469,note_off,,,,,7,0,0,,,1,,,79,64
342510,note_on,,,,,41,0,0,,,2,,,76,117
342517,note_off,,,,,7,0,0,,,1,,,78,64
342556,note_on,,,,,39,0,0,,,4,,,64,126
342578,note_on,,,,,22,0,0,,,4,,,66,127
342586,note_off,,,,,8,0,0,,,4,,,64,64
342601,note_on,,,,,15,0,0,,,2,,,67,127
342609,note_off,,,,,8,0,0,,,4,,,66,64
342742,note_off,,,,,133,0,0,,,2,,,67,64
342743,note_on,,,,,1,0,0,,,4,,,66,127
342787,note_on,,,,,44,0,0,,,4,,,64,126
342795,note_off,,,,,8,0,0,,,4,,,66,64
342833,note_on,,,,,38,0,0,,,4,,,62,127
342841,note_off,,,,,8,0,0,,,4,,,64,64
342881,note_on,,,,,40,0,0,,,4,,,61,127
342889,note_off,,,,,8,0,0,,,4,,,62,64
342927,note_off,,,,,38,0,0,,,4,,,55,64
342928,note_on,,,,,1,0,0,,,1,,,81,114
342934,note_off,,,,,6,0,0,,,2,,,76,64
343113,note_on,,,,,179,0,0,,,1,,,82,109
343116,note_off,,,,,3,0,0,,,1,,,81,64
343293,note_on,,,,,177,0,0,,,1,,,83,109
343295,note_off,,,,,2,0,0,,,1,,,82,64
343472,note_on,,,,,177,0,0,,,2,,,73,117
343472,note_on,,,,,0,0,0,,,2,,,67,127
343473,note_on,,,,,1,0,0,,,4,,,64,127
343473,note_on,,,,,0,0,0,,,4,,,57,127
343480,note_off,,,,,7,0,0,,,4,,,61,64
343650,note_off,,,,,170,0,0,,,4,,,57,64
343651,note_off,,,,,1,0,0,,,4,,,64,64
343651,note_off,,,,,0,0,0,,,2,,,67,64
343652,note_off,,,,,1,0,0,,,2,,,73,64
343658,note_on,,,,,6,0,0,,,2,,,69,118
343658,note_on,,,,,0,0,0,,,2,,,74,117
343659,note_on,,,,,1,0,0,,,4,,,62,127
343659,note_on,,,,,0,0,0,,,4,,,66,127
343706,note_off,,,,,47,0,0,,,1,,,83,64
343852,note_on,,,,,146,0,0,,,4,,,50,127
343893,note_off,,,,,41,0,0,,,4,,,66,64
343893,note_off,,,,,0,0,0,,,4,,,62,64
343894,note_off,,,,,1,0,0,,,2,,,74,64
343894,note_off,,,,,0,0,0,,,2,,,69,64
344221,note_off,,,,,327,0,0,,,4,,,50,64
344375,note_on,,,,,154,0,0,,,2,,,74,113
344424,note_on,,,,,49,0,0,,,2,,,73,113
344444,note_off,,,,,20,0,0,,,2,,,74,64
344467,note_on,,,,,23,0,0,,,2,,,76,113
344488,note_off,,,,,21,0,0,,,2,,,73,64
344509,note_on,,,,,21,0,0,,,2,,,74,113
344528,note_off,,,,,19,0,0,,,2,,,76,64
344549,note_on,,,,,21,0,0,,,1,,,78,118
344570,note_off,,,,,21,0,0,,,2,,,74,64
344593,note_on,,,,,23,0,0,,,2,,,76,113
344613,note_off,,,,,20,0,0,,,1,,,78,64
344632,note_on,,,,,19,0,0,,,1,,,79,118
344653,note_off,,,,,21,0,0,,,2,,,76,64
344674,note_on,,,,,21,0,0,,,1,,,78,118
344696,note_off,,,,,22,0,0,,,1,,,79,64
344717,note_on,,,,,21,0,0,,,1,,,81,118
344718,note_on,,,,,1,0,0,,,4,,,66,127
344718,note_on,,,,,0,0,0,,,4,,,54,127
344738,note_off,,,,,20,0,0,,,1,,,78,64
344760,note_on,,,,,22,0,0,,,1,,,83,118
344781,note_off,,,,,21,0,0,,,1,,,81,64
344802,note_on,,,,,21,0,0,,,4,,,61,127
344802,note_on,,,,,0,0,0,,,1,,,79,118
344803,note_on,,,,,1,0,0,,,4,,,49,127
344810,note_off,,,,,7,0,0,,,4,,,54,64
344811,note_off,,,,,1,0,0,,,4,,,66,64
344821,note_off,,,,,10,0,0,,,1,,,83,64
344842,note_on,,,,,21,0,0,,,1,,,81,118
344861,note_off,,,,,19,0,0,,,1,,,79,64
344882,note_on,,,,,21,0,0,,,1,,,78,118
344883,note_on,,,,,1,0,0,,,4,,,62,127
344883,note_on,,,,,0,0,0,,,4,,,50,127
344893,note_off,,,,,10,0,0,,,4,,,61,64
344893,note_off,,,,,0,0,0,,,4,,,49,64
344904,note_off,,,,,11,0,0,,,1,,,81,64
344924,note_on,,,,,20,0,0,,,1,,,79,118
344945,note_off,,,,,21,0,0,,,1,,,78,64
344966,note_on,,,,,21,0,0,,,2,,,76,118
344966,note_on,,,,,0,0,0,,,4,,,58,127
344967,note_on,,,,,1,0,0,,,4,,,46,127
344975,note_off,,,,,8,0,0,,,4,,,50,64
344975,note_off,,,,,0,0,0,,,4,,,62,64
344985,note_off,,,,,10,0,0,,,1,,,79,64
345006,note_on,,,,,21,0,0,,,1,,,78,118
345027,note_off,,,,,21,0,0,,,2,,,76,64
345050,note_on,,,,,23,0,0,,,2,,,74,118
345051,note_on,,,,,1,0,0,,,4,,,47,127
345051,note_on,,,,,0,0,0,,,4,,,59,127
345059,note_off,,,,,8,0,0,,,4,,,46,64
345060,note_off,,,,,1,0,0,,,4,,,58,64
345070,note_off,,,,,10,0,0,,,1,,,78,64
345089,note_on,,,,,19,0,0,,,2,,,76,118
345110,note_off,,,,,21,0,0,,,2,,,74,64
345131,note_on,,,,,21,0,0,,,2,,,74,118
345137,note_off,,,,,6,0,0,,,2,,,76,64
345169,note_on,,,,,32,0,0,,,2,,,73,118
345177,note_off,,,,,8,0,0,,,2,,,74,64
345210,note_on,,,,,33,0,0,,,2,,,74,118
345217,note_off,,,,,7,0,0,,,2,,,73,64
345250,note_on,,,,,33,0,0,,,2,,,76,118
345271,note_off,,,,,21,0,0,,,2,,,74,64
345290,note_on,,,,,19,0,0,,,1,,,78,118
345312,note_off,,,,,22,0,0,,,2,,,76,64
345331,note_on,,,,,19,0,0,,,2,,,74,118
345352,note_off,,,,,21,0,0,,,1,,,78,64
345374,note_off,,,,,22,0,0,,,4,,,59,64
345374,note_off,,,,,0,0,0,,,4,,,47,64
345375,note_on,,,,,1,0,0,,,1,,,79,118
345375,note_on,,,,,0,0,0,,,4,,,64,126
345376,note_on,,,,,1,0,0,,,4,,,52,127
345394,note_off,,,,,18,0,0,,,2,,,74,64
345415,note_on,,,,,21,0,0,,,1,,,81,118
345434,note_off,,,,,19,0,0,,,1,,,79,64
345456,note_on,,,,,22,0,0,,,1,,,78,118
345456,note_on,,,,,0,0,0,,,4,,,66,127
345456,note_on,,,,,0,0,0,,,4,,,54,127
345465,note_off,,,,,9,0,0,,,4,,,52,64
345466,note_off,,,,,1,0,0,,,4,,,64,64
345476,note_off,,,,,10,0,0,,,1,,,81,64
345497,note_on,,,,,21,0,0,,,1,,,79,118
345516,note_off,,,,,19,0,0,,,1,,,78,64
345539,note_on,,,,,23,0,0,,,2,,,76,118
345540,note_on,,,,,1,0,0,,,4,,,55,127
345540,note_on,,,,,0,0,0,,,2,,,67,127
345548,note_off,,,,,8,0,0,,,4,,,54,64
345548,note_off,,,,,0,0,0,,,4,,,66,64
345557,note_off,,,,,9,0,0,,,1,,,79,64
345580,note_on,,,,,23,0,0,,,1,,,78,118
345600,note_off,,,,,20,0,0,,,2,,,76,64
345622,note_on,,,,,22,0,0,,,2,,,74,118
345622,note_on,,,,,0,0,0,,,2,,,68,120
345623,note_on,,,,,1,0,0,,,4,,,56,127
345632,note_off,,,,,9,0,0,,,4,,,55,64
345633,note_off,,,,,1,0,0,,,2,,,67,64
345643,note_off,,,,,10,0,0,,,1,,,78,64
345665,note_on,,,,,22,0,0,,,2,,,76,118
345685,note_off,,,,,20,0,0,,,2,,,74,64
345706,note_on,,,,,21,0,0,,,2,,,73,118
345707,note_on,,,,,1,0,0,,,4,,,57,127
345707,note_on,,,,,0,0,0,,,2,,,69,118
345716,note_off,,,,,9,0,0,,,4,,,56,64
345716,note_off,,,,,0,0,0,,,2,,,68,64
345726,note_off,,,,,10,0,0,,,2,,,76,64
345745,note_on,,,,,19,0,0,,,2,,,74,113
345754,note_off,,,,,9,0,0,,,2,,,73,64
345786,note_on,,,,,32,0,0,,,2,,,76,113
345793,note_off,,,,,7,0,0,,,2,,,74,64
345827,note_on,,,,,34,0,0,,,1,,,78,118
345834,note_off,,,,,7,0,0,,,2,,,76,64
345868,note_on,,,,,34,0,0,,,1,,,79,118
345875,note_off,,,,,7,0,0,,,1,,,78,64
345909,note_on,,,,,34,0,0,,,1,,,78,118
345914,note_off,,,,,5,0,0,,,1,,,79,64
345949,note_on,,,,,35,0,0,,,1,,,79,118
345957,note_off,,,,,8,0,0,,,1,,,78,64
345991,note_on,,,,,34,0,0,,,2,,,76,113
346013,note_off,,,,,22,0,0,,,1,,,79,64
346013,note_off,,,,,0,0,0,,,2,,,69,64
346033,note_on,,,,,20,0,0,,,4,,,66,127
346033,note_on,,,,,0,0,0,,,2,,,69,118
346033,note_on,,,,,0,0,0,,,1,,,78,118
346034,note_off,,,,,1,0,0,,,4,,,57,64
346034,note_on,,,,,0,0,0,,,4,,,62,127
346054,note_off,,,,,20,0,0,,,2,,,76,64
346075,note_on,,,,,21,0,0,,,2,,,74,113
346096,note_off,,,,,21,0,0,,,1,,,78,64
346117,note_on,,,,,21,0,0,,,1,,,79,118
346138,note_off,,,,,21,0,0,,,2,,,74,64
346160,note_on,,,,,22,0,0,,,2,,,76,113
346180,note_off,,,,,20,0,0,,,1,,,79,64
346202,note_on,,,,,22,0,0,,,1,,,81,118
346223,note_off,,,,,21,0,0,,,2,,,76,64
346244,note_on,,,,,21,0,0,,,1,,,80,118
346251,note_off,,,,,7,0,0,,,1,,,81,64
346286,note_on,,,,,35,0,0,,,1,,,81,118
346292,note_off,,,,,6,0,0,,,1,,,80,64
346329,note_on,,,,,37,0,0,,,1,,,78,118
346335,note_off,,,,,6,0,0,,,1,,,81,64
346368,note_off,,,,,33,0,0,,,4,,,66,64
346368,note_off,,,,,0,0,0,,,4,,,62,64
346369,note_off,,,,,1,0,0,,,2,,,69,64
346369,note_on,,,,,0,0,0,,,4,,,64,126
346369,note_on,,,,,0,0,0,,,1,,,79,118
346370,note_on,,,,,1,0,0,,,4,,,55,127
346370,note_on,,,,,0,0,0,,,4,,,59,127
346375,note_off,,,,,5,0,0,,,1,,,78,64
346409,note_on,,,,,34,0,0,,,2,,,76,113
346428,note_off,,,,,19,0,0,,,1,,,79,64
346450,note_on,,,,,22,0,0,,,1,,,81,118
346469,note_off,,,,,19,0,0,,,2,,,76,64
346490,note_on,,,,,21,0,0,,,1,,,78,118
346509,note_off,,,,,19,0,0,,,1,,,81,64
346530,note_on,,,,,21,0,0,,,1,,,83,118
346549,note_off,,,,,19,0,0,,,1,,,78,64
346571,note_on,,,,,22,0,0,,,1,,,82,118
346576,note_off,,,,,5,0,0,,,1,,,83,64
346610,note_on,,,,,34,0,0,,,1,,,83,118
346618,note_off,,,,,8,0,0,,,1,,,82,64
346651,note_on,,,,,33,0,0,,,1,,,79,118
346657,note_off,,,,,6,0,0,,,1,,,83,64
346692,note_off,,,,,35,0,0,,,4,,,64,64
346692,note_off,,,,,0,0,0,,,4,,,59,64
346692,note_off,,,,,0,0,0,,,4,,,55,64
346693,note_on,,,,,1,0,0,,,4,,,57,127
346693,note_on,,,,,0,0,0,,,4,,,62,127
346693,note_on,,,,,0,0,0,,,1,,,78,118
346698,note_off,,,,,5,0,0,,,1,,,79,64
346854,note_off,,,,,156,0,0,,,1,,,78,64
346854,note_on,,,,,0,0,0,,,2,,,76,118
346855,note_on,,,,,1,0,0,,,4,,,61,127
346859,note_off,,,,,4,0,0,,,4,,,62,64
347016,note_off,,,,,157,0,0,,,2,,,76,64
347016,note_on,,,,,0,0,0,,,2,,,74,113
347066,note_on,,,,,50,0,0,,,2,,,73,113
347090,note_off,,,,,24,0,0,,,2,,,74,64
347111,note_on,,,,,21,0,0,,,2,,,76,113
347132,note_off,,,,,21,0,0,,,2,,,73,64
347153,note_on,,,,,21,0,0,,,2,,,74,113
347172,note_off,,,,,19,0,0,,,2,,,76,64
347194,note_on,,,,,22,0,0,,,1,,,78,110
347215,note_off,,,,,21,0,0,,,2,,,74,64
347238,note_on,,,,,23,0,0,,,2,,,76,113
347259,note_off,,,,,21,0,0,,,1,,,78,64
347278,note_on,,,,,19,0,0,,,1,,,79,110
347299,note_off,,,,,21,0,0,,,2,,,76,64
347322,note_on,,,,,23,0,0,,,1,,,78,110
347341,note_off,,,,,19,0,0,,,1,,,79,64
347363,note_off,,,,,22,0,0,,,4,,,61,64
347363,note_off,,,,,0,0,0,,,4,,,57,64
347364,note_on,,,,,1,0,0,,,1,,,81,110
347364,note_on,,,,,0,0,0,,,4,,,66,127
347364,note_on,,,,,0,0,0,,,4,,,54,127
347386,note_off,,,,,22,0,0,,,1,,,78,64
347407,note_on,,,,,21,0,0,,,1,,,83,110
347428,note_off,,,,,21,0,0,,,1,,,81,64
347449,note_on,,,,,21,0,0,,,4,,,61,127
347449,note_on,,,,,0,0,0,,,1,,,79,115
347450,note_on,,,,,1,0,0,,,4,,,49,127
347459,note_off,,,,,9,0,0,,,4,,,54,64
347460,note_off,,,,,1,0,0,,,4,,,66,64
347470,note_off,,,,,10,0,0,,,1,,,83,64
347491,note_on,,,,,21,0,0,,,1,,,81,115
347512,note_off,,,,,21,0,0,,,1,,,79,64
347533,note_on,,,,,21,0,0,,,1,,,78,115
347534,note_on,,,,,1,0,0,,,4,,,62,127
347534,note_on,,,,,0,0,0,,,4,,,50,127
347542,note_off,,,,,8,0,0,,,4,,,49,64
347543,note_off,,,,,1,0,0,,,4,,,61,64
347555,note_off,,,,,12,0,0,,,1,,,81,64
347574,note_on,,,,,19,0,0,,,1,,,79,115
347595,note_off,,,,,21,0,0,,,1,,,78,64
347616,note_on,,,,,21,0,0,,,2,,,76,118
347616,note_on,,,,,0,0,0,,,4,,,58,127
347617,note_on,,,,,1,0,0,,,4,,,46,127
347627,note_off,,,,,10,0,0,,,4,,,50,64
347627,note_off,,,,,0,0,0,,,4,,,62,64
347637,note_off,,,,,10,0,0,,,1,,,79,64
347656,note_on,,,,,19,0,0,,,1,,,78,115
347677,note_off,,,,,21,0,0,,,2,,,76,64
347699,note_on,,,,,22,0,0,,,2,,,74,118
347700,note_on,,,,,1,0,0,,,4,,,47,127
347700,note_on,,,,,0,0,0,,,4,,,59,127
347708,note_off,,,,,8,0,0,,,4,,,46,64
347709,note_off,,,,,1,0,0,,,4,,,58,64
347719,note_off,,,,,10,0,0,,,1,,,78,64
347740,note_on,,,,,21,0,0,,,2,,,76,118
347759,note_off,,,,,19,0,0,,,2,,,74,64
347780,note_on,,,,,21,0,0,,,2,,,73,118
347781,note_on,,,,,1,0,0,,,4,,,61,127
347781,note_on,,,,,0,0,0,,,4,,,49,127
347789,note_off,,,,,8,0,0,,,4,,,59,64
347789,note_off,,,,,0,0,0,,,4,,,47,64
347801,note_off,,,,,12,0,0,,,2,,,76,64
347822,note_on,,,,,21,0,0,,,2,,,74,118
347842,note_off,,,,,20,0,0,,,2,,,73,64
347865,note_on,,,,,23,0,0,,,2,,,71,117
347865,note_on,,,,,0,0,0,,,4,,,62,127
347866,note_on,,,,,1,0,0,,,4,,,50,127
347873,note_off,,,,,7,0,0,,,4,,,49,64
347874,note_off,,,,,1,0,0,,,4,,,61,64
347884,note_off,,,,,10,0,0,,,2,,,74,64
347904,note_on,,,,,20,0,0,,,2,,,73,118
347923,note_off,,,,,19,0,0,,,2,,,71,64
347944,note_on,,,,,21,0,0,,,2,,,69,118
347945,note_on,,,,,1,0,0,,,4,,,51,127
347945,note_on,,,,,0,0,0,,,4,,,63,127
347955,note_off,,,,,10,0,0,,,4,,,50,64
347955,note_off,,,,,0,0,0,,,4,,,62,64
347967,note_off,,,,,12,0,0,,,2,,,73,64
347987,note_on,,,,,20,0,0,,,2,,,71,117
348008,note_off,,,,,21,0,0,,,2,,,69,64
348029,note_on,,,,,21,0,0,,,4,,,64,126
348029,note_on,,,,,0,0,0,,,2,,,68,120
348030,note_on,,,,,1,0,0,,,4,,,52,127
348039,note_off,,,,,9,0,0,,,4,,,51,64
348040,note_off,,,,,1,0,0,,,4,,,63,64
348052,note_off,,,,,12,0,0,,,2,,,71,64
348073,note_on,,,,,21,0,0,,,1,,,80,115
348117,note_on,,,,,44,0,0,,,1,,,83,115
348123,note_off,,,,,6,0,0,,,1,,,80,64
348123,note_off,,,,,0,0,0,,,2,,,68,64
348160,note_on,,,,,37,0,0,,,1,,,81,115
348166,note_off,,,,,6,0,0,,,1,,,83,64
348199,note_on,,,,,33,0,0,,,1,,,80,115
348206,note_off,,,,,7,0,0,,,1,,,81,64
348239,note_on,,,,,33,0,0,,,1,,,78,115
348247,note_off,,,,,8,0,0,,,1,,,80,64
348280,note_on,,,,,33,0,0,,,2,,,76,118
348287,note_off,,,,,7,0,0,,,1,,,78,64
348322,note_on,,,,,35,0,0,,,2,,,75,118
348327,note_off,,,,,5,0,0,,,2,,,76,64
348336,note_off,,,,,9,0,0,,,4,,,64,64
348363,note_off,,,,,27,0,0,,,4,,,52,64
348363,note_on,,,,,0,0,0,,,2,,,74,118
348364,note_on,,,,,1,0,0,,,4,,,59,127
348364,note_on,,,,,0,0,0,,,4,,,64,126
348365,note_on,,,,,1,0,0,,,4,,,56,127
348371,note_off,,,,,6,0,0,,,2,,,75,64
348405,note_on,,,,,34,0,0,,,1,,,83,115
348411,note_off,,,,,6,0,0,,,2,,,74,64
348447,note_on,,,,,36,0,0,,,1,,,86,115
348454,note_off,,,,,7,0,0,,,1,,,83,64
348489,note_on,,,,,35,0,0,,,1,,,85,115
348495,note_off,,,,,6,0,0,,,1,,,86,64
348528,note_on,,,,,33,0,0,,,1,,,83,115
348534,note_off,,,,,6,0,0,,,1,,,85,64
348568,note_on,,,,,34,0,0,,,1,,,81,115
348575,note_off,,,,,7,0,0,,,1,,,83,64
348609,note_on,,,,,34,0,0,,,1,,,80,115
348615,note_off,,,,,6,0,0,,,1,,,81,64
348651,note_on,,,,,36,0,0,,,1,,,78,115
348657,note_off,,,,,6,0,0,,,1,,,80,64
348694,note_off,,,,,37,0,0,,,4,,,59,64
348694,note_off,,,,,0,0,0,,,4,,,56,64
348695,note_off,,,,,1,0,0,,,4,,,64,64
348695,note_on,,,,,0,0,0,,,2,,,76,118
348696,note_on,,,,,1,0,0,,,4,,,57,127
348696,note_on,,,,,0,0,0,,,4,,,61,127
348700,note_off,,,,,4,0,0,,,1,,,78,64
348737,note_on,,,,,37,0,0,,,1,,,78,115
348744,note_off,,,,,7,0,0,,,2,,,76,64
348779,note_on,,,,,35,0,0,,,1,,,80,115
348785,note_off,,,,,6,0,0,,,1,,,78,64
348819,note_on,,,,,34,0,0,,,1,,,81,115
348825,note_off,,,,,6,0,0,,,1,,,80,64
348860,note_on,,,,,35,0,0,,,4,,,59,127
348860,note_on,,,,,0,0,0,,,1,,,80,115
348861,note_on,,,,,1,0,0,,,4,,,50,127
348864,note_off,,,,,3,0,0,,,4,,,61,64
348864,note_off,,,,,0,0,0,,,4,,,57,64
348866,note_off,,,,,2,0,0,,,1,,,81,64
348899,note_on,,,,,33,0,0,,,1,,,78,115
348907,note_off,,,,,8,0,0,,,1,,,80,64
348939,note_on,,,,,32,0,0,,,2,,,76,118
348947,note_off,,,,,8,0,0,,,1,,,78,64
348982,note_on,,,,,35,0,0,,,2,,,74,118
348987,note_off,,,,,5,0,0,,,2,,,76,64
349022,note_on,,,,,35,0,0,,,2,,,73,118
349022,note_on,,,,,0,0,0,,,4,,,57,127
349023,note_on,,,,,1,0,0,,,4,,,52,127
349025,note_off,,,,,2,0,0,,,4,,,50,64
349026,note_off,,,,,1,0,0,,,4,,,59,64
349029,note_off,,,,,3,0,0,,,2,,,74,64
349063,note_on,,,,,34,0,0,,,2,,,74,118
349071,note_off,,,,,8,0,0,,,2,,,73,64
349104,note_on,,,,,33,0,0,,,2,,,76,118
349112,note_off,,,,,8,0,0,,,2,,,74,64
349147,note_on,,,,,35,0,0,,,1,,,78,115
349152,note_off,,,,,5,0,0,,,2,,,76,64
349181,note_off,,,,,29,0,0,,,4,,,52,64
349187,note_on,,,,,6,0,0,,,2,,,76,118
349188,note_on,,,,,1,0,0,,,4,,,52,127
349188,note_on,,,,,0,0,0,,,4,,,56,127
349189,note_off,,,,,1,0,0,,,4,,,57,64
349194,note_off,,,,,5,0,0,,,1,,,78,64
349226,note_on,,,,,32,0,0,,,2,,,74,118
349234,note_off,,,,,8,0,0,,,2,,,76,64
349267,note_on,,,,,33,0,0,,,2,,,73,118
349274,note_off,,,,,7,0,0,,,2,,,74,64
349309,note_on,,,,,35,0,0,,,2,,,71,117
349317,note_off,,,,,8,0,0,,,2,,,73,64
349351,note_off,,,,,34,0,0,,,4,,,52,64
349352,note_on,,,,,1,0,0,,,2,,,69,118
349352,note_on,,,,,0,0,0,,,4,,,45,127
349354,note_off,,,,,2,0,0,,,4,,,56,64
349358,note_off,,,,,4,0,0,,,2,,,71,64
349402,note_on,,,,,44,0,0,,,4,,,57,127
349408,note_off,,,,,6,0,0,,,4,,,45,64
349452,note_on,,,,,44,0,0,,,4,,,52,127
349462,note_off,,,,,10,0,0,,,4,,,57,64
349508,note_on,,,,,46,0,0,,,4,,,49,127
349517,note_off,,,,,9,0,0,,,4,,,52,64
349563,note_on,,,,,46,0,0,,,4,,,45,127
349569,note_off,,,,,6,0,0,,,4,,,49,64
349688,note_off,,,,,119,0,0,,,2,,,69,64
349732,note_on,,,,,44,0,0,,,2,,,74,113
349786,note_on,,,,,54,0,0,,,2,,,73,113
349805,note_off,,,,,19,0,0,,,2,,,74,64
349826,note_on,,,,,21,0,0,,,2,,,76,113
349846,note_off,,,,,20,0,0,,,2,,,73,64
349869,note_on,,,,,23,0,0,,,2,,,74,113
349888,note_off,,,,,19,0,0,,,2,,,76,64
349908,note_on,,,,,20,0,0,,,1,,,78,110
349929,note_off,,,,,21,0,0,,,2,,,74,64
349950,note_on,,,,,21,0,0,,,2,,,76,113
349971,note_off,,,,,21,0,0,,,1,,,78,64
349994,note_on,,,,,23,0,0,,,1,,,79,110
350016,note_off,,,,,22,0,0,,,2,,,76,64
350039,note_on,,,,,23,0,0,,,1,,,78,110
350058,note_off,,,,,19,0,0,,,1,,,79,64
350065,note_off,,,,,7,0,0,,,4,,,45,64
350079,note_on,,,,,14,0,0,,,4,,,66,124
350079,note_on,,,,,0,0,0,,,1,,,81,110
350080,note_on,,,,,1,0,0,,,4,,,54,127
350101,note_off,,,,,21,0,0,,,1,,,78,64
350124,note_on,,,,,23,0,0,,,1,,,83,110
350132,note_off,,,,,8,0,0,,,1,,,81,64
350168,note_on,,,,,36,0,0,,,1,,,79,110
350169,note_on,,,,,1,0,0,,,4,,,61,127
350169,note_on,,,,,0,0,0,,,4,,,49,127
350177,note_off,,,,,8,0,0,,,4,,,66,64
350177,note_off,,,,,0,0,0,,,4,,,54,64
350189,note_off,,,,,12,0,0,,,1,,,83,64
350210,note_on,,,,,21,0,0,,,1,,,81,110
350232,note_off,,,,,22,0,0,,,1,,,79,64
350255,note_on,,,,,23,0,0,,,1,,,78,110
350255,note_on,,,,,0,0,0,,,4,,,62,127
350256,note_on,,,,,1,0,0,,,4,,,50,127
350263,note_off,,,,,7,0,0,,,4,,,49,64
350264,note_off,,,,,1,0,0,,,4,,,61,64
350274,note_off,,,,,10,0,0,,,1,,,81,64
350298,note_on,,,,,24,0,0,,,1,,,79,110
350319,note_off,,,,,21,0,0,,,1,,,78,64
350340,note_on,,,,,21,0,0,,,4,,,58,127
350340,note_on,,,,,0,0,0,,,2,,,76,113
350341,note_on,,,,,1,0,0,,,4,,,46,127
350349,note_off,,,,,8,0,0,,,4,,,50,64
350349,note_off,,,,,0,0,0,,,4,,,62,64
350361,note_off,,,,,12,0,0,,,1,,,79,64
350384,note_on,,,,,23,0,0,,,1,,,78,115
350403,note_off,,,,,19,0,0,,,2,,,76,64
350424,note_on,,,,,21,0,0,,,2,,,74,118
350425,note_on,,,,,1,0,0,,,4,,,47,127
350425,note_on,,,,,0,0,0,,,4,,,59,127
350435,note_off,,,,,10,0,0,,,4,,,46,64
350436,note_off,,,,,1,0,0,,,4,,,58,64
350446,note_off,,,,,10,0,0,,,1,,,78,64
350466,note_on,,,,,20,0,0,,,2,,,76,118
350472,note_off,,,,,6,0,0,,,2,,,74,64
350508,note_on,,,,,36,0,0,,,2,,,74,118
350516,note_off,,,,,8,0,0,,,2,,,76,64
350548,note_on,,,,,32,0,0,,,2,,,73,118
350554,note_off,,,,,6,0,0,,,2,,,74,64
350589,note_on,,,,,35,0,0,,,2,,,74,118
350594,note_off,,,,,5,0,0,,,2,,,73,64
350631,note_on,,,,,37,0,0,,,2,,,76,118
350639,note_off,,,,,8,0,0,,,2,,,74,64
350674,note_on,,,,,35,0,0,,,1,,,78,115
350681,note_off,,,,,7,0,0,,,2,,,76,64
350715,note_off,,,,,34,0,0,,,4,,,47,64
350716,note_off,,,,,1,0,0,,,4,,,59,64
350716,note_on,,,,,0,0,0,,,2,,,74,118
350736,note_off,,,,,20,0,0,,,1,,,78,64
350755,note_on,,,,,19,0,0,,,1,,,79,115
350755,note_on,,,,,0,0,0,,,4,,,64,126
350756,note_on,,,,,1,0,0,,,4,,,52,127
350779,note_off,,,,,23,0,0,,,2,,,74,64
350800,note_on,,,,,21,0,0,,,1,,,81,115
350808,note_off,,,,,8,0,0,,,1,,,79,64
350844,note_on,,,,,36,0,0,,,1,,,78,115
350845,note_on,,,,,1,0,0,,,4,,,54,127
350845,note_on,,,,,0,0,0,,,4,,,66,127
350853,note_off,,,,,8,0,0,,,4,,,52,64
350853,note_off,,,,,0,0,0,,,4,,,64,64
350865,note_off,,,,,12,0,0,,,1,,,81,64
350887,note_on,,,,,22,0,0,,,1,,,79,115
350908,note_off,,,,,21,0,0,,,1,,,78,64
350930,note_on,,,,,22,0,0,,,2,,,76,118
350931,note_on,,,,,1,0,0,,,2,,,67,127
350931,note_on,,,,,0,0,0,,,4,,,55,127
350939,note_off,,,,,8,0,0,,,4,,,54,64
350940,note_off,,,,,1,0,0,,,4,,,66,64
350952,note_off,,,,,12,0,0,,,1,,,79,64
350973,note_on,,,,,21,0,0,,,1,,,78,115
350994,note_off,,,,,21,0,0,,,2,,,76,64
351015,note_on,,,,,21,0,0,,,2,,,74,118
351016,note_on,,,,,1,0,0,,,2,,,68,120
351016,note_on,,,,,0,0,0,,,4,,,56,127
351025,note_off,,,,,9,0,0,,,4,,,55,64
351026,note_off,,,,,1,0,0,,,2,,,67,64
351036,note_off,,,,,10,0,0,,,1,,,78,64
351057,note_on,,,,,21,0,0,,,2,,,76,118
351077,note_off,,,,,20,0,0,,,2,,,74,64
351098,note_on,,,,,21,0,0,,,2,,,69,118
351098,note_on,,,,,0,0,0,,,2,,,73,118
351099,note_on,,,,,1,0,0,,,4,,,57,127
351105,note_off,,,,,6,0,0,,,2,,,76,64
351106,note_off,,,,,1,0,0,,,4,,,56,64
351107,note_off,,,,,1,0,0,,,2,,,68,64
351138,note_on,,,,,31,0,0,,,2,,,74,118
351146,note_off,,,,,8,0,0,,,2,,,73,64
351180,note_on,,,,,34,0,0,,,2,,,76,113
351187,note_off,,,,,7,0,0,,,2,,,74,64
351222,note_on,,,,,35,0,0,,,1,,,78,110
351229,note_off,,,,,7,0,0,,,2,,,76,64
351266,note_on,,,,,37,0,0,,,1,,,79,110
351274,note_off,,,,,8,0,0,,,1,,,78,64
351308,note_on,,,,,34,0,0,,,1,,,78,110
351316,note_off,,,,,8,0,0,,,1,,,79,64
351348,note_on,,,,,32,0,0,,,1,,,79,110
351356,note_off,,,,,8,0,0,,,1,,,78,64
351389,note_on,,,,,33,0,0,,,2,,,76,113
351396,note_off,,,,,7,0,0,,,4,,,57,64
351397,note_off,,,,,1,0,0,,,2,,,69,64
351411,note_off,,,,,14,0,0,,,1,,,79,64
351432,note_on,,,,,21,0,0,,,2,,,69,118
351432,note_on,,,,,0,0,0,,,1,,,78,110
351433,note_on,,,,,1,0,0,,,4,,,62,127
351433,note_on,,,,,0,0,0,,,4,,,66,127
351453,note_off,,,,,20,0,0,,,2,,,76,64
351474,note_on,,,,,21,0,0,,,2,,,74,118
351495,note_off,,,,,21,0,0,,,1,,,78,64
351516,note_on,,,,,21,0,0,,,1,,,79,110
351538,note_off,,,,,22,0,0,,,2,,,74,64
351561,note_on,,,,,23,0,0,,,2,,,76,113
351580,note_off,,,,,19,0,0,,,1,,,79,64
351601,note_on,,,,,21,0,0,,,1,,,81,110
351624,note_off,,,,,23,0,0,,,2,,,76,64
351645,note_on,,,,,21,0,0,,,1,,,80,110
351651,note_off,,,,,6,0,0,,,1,,,81,64
351685,note_on,,,,,34,0,0,,,1,,,81,110
351693,note_off,,,,,8,0,0,,,1,,,80,64
351730,note_on,,,,,37,0,0,,,1,,,78,110
351735,note_off,,,,,5,0,0,,,1,,,81,64
351770,note_off,,,,,35,0,0,,,4,,,66,64
351770,note_off,,,,,0,0,0,,,4,,,62,64
351771,note_off,,,,,1,0,0,,,2,,,69,64
351771,note_on,,,,,0,0,0,,,1,,,79,110
351772,note_on,,,,,1,0,0,,,4,,,59,127
351772,note_on,,,,,0,0,0,,,4,,,64,126
351773,note_on,,,,,1,0,0,,,4,,,55,127
351777,note_off,,,,,4,0,0,,,1,,,78,64
351811,note_on,,,,,34,0,0,,,2,,,76,113
351832,note_off,,,,,21,0,0,,,1,,,79,64
351853,note_on,,,,,21,0,0,,,1,,,81,110
351875,note_off,,,,,22,0,0,,,2,,,76,64
351896,note_on,,,,,21,0,0,,,1,,,78,110
351917,note_off,,,,,21,0,0,,,1,,,81,64
351938,note_on,,,,,21,0,0,,,1,,,83,110
351957,note_off,,,,,19,0,0,,,1,,,78,64
351980,note_on,,,,,23,0,0,,,1,,,82,110
351986,note_off,,,,,6,0,0,,,1,,,83,64
352019,note_on,,,,,33,0,0,,,1,,,83,110
352025,note_off,,,,,6,0,0,,,1,,,82,64
352061,note_on,,,,,36,0,0,,,1,,,79,110
352067,note_off,,,,,6,0,0,,,1,,,83,64
352099,note_off,,,,,32,0,0,,,4,,,55,64
352100,note_off,,,,,1,0,0,,,4,,,64,64
352100,note_off,,,,,0,0,0,,,4,,,59,64
352101,note_on,,,,,1,0,0,,,1,,,78,110
352101,note_on,,,,,0,0,0,,,4,,,62,127
352102,note_on,,,,,1,0,0,,,4,,,57,127
352106,note_off,,,,,4,0,0,,,1,,,79,64
352260,note_off,,,,,154,0,0,,,1,,,78,64
352262,note_on,,,,,2,0,0,,,4,,,61,127
352262,note_on,,,,,0,0,0,,,2,,,76,118
352264,note_off,,,,,2,0,0,,,4,,,62,64
352399,note_off,,,,,135,0,0,,,2,,,76,64
352426,note_on,,,,,27,0,0,,,2,,,74,113
352472,note_on,,,,,46,0,0,,,2,,,73,113
352493,note_off,,,,,21,0,0,,,2,,,74,64
352514,note_on,,,,,21,0,0,,,2,,,76,113
352533,note_off,,,,,19,0,0,,,2,,,73,64
352556,note_on,,,,,23,0,0,,,2,,,74,113
352575,note_off,,,,,19,0,0,,,2,,,76,64
352596,note_on,,,,,21,0,0,,,1,,,78,110
352618,note_off,,,,,22,0,0,,,2,,,74,64
352641,note_on,,,,,23,0,0,,,2,,,76,113
352661,note_off,,,,,20,0,0,,,1,,,78,64
352682,note_on,,,,,21,0,0,,,1,,,79,110
352703,note_off,,,,,21,0,0,,,2,,,76,64
352724,note_on,,,,,21,0,0,,,1,,,78,110
352745,note_off,,,,,21,0,0,,,1,,,79,64
352753,note_off,,,,,8,0,0,,,4,,,61,64
352766,note_on,,,,,13,0,0,,,1,,,81,110
352767,note_on,,,,,1,0,0,,,4,,,54,127
352767,note_on,,,,,0,0,0,,,4,,,66,127
352775,note_off,,,,,8,0,0,,,4,,,57,64
352788,note_off,,,,,13,0,0,,,1,,,78,64
352812,note_on,,,,,24,0,0,,,1,,,83,110
352833,note_off,,,,,21,0,0,,,1,,,81,64
352856,note_on,,,,,23,0,0,,,1,,,79,110
352856,note_on,,,,,0,0,0,,,4,,,61,127
352857,note_on,,,,,1,0,0,,,4,,,49,127
352864,note_off,,,,,7,0,0,,,4,,,54,64
352865,note_off,,,,,1,0,0,,,4,,,66,64
352877,note_off,,,,,12,0,0,,,1,,,83,64
352896,note_on,,,,,19,0,0,,,1,,,81,110
352917,note_off,,,,,21,0,0,,,1,,,79,64
352940,note_on,,,,,23,0,0,,,1,,,78,110
352941,note_on,,,,,1,0,0,,,4,,,62,127
352941,note_on,,,,,0,0,0,,,4,,,50,127
352949,note_off,,,,,8,0,0,,,4,,,49,64
352949,note_off,,,,,0,0,0,,,4,,,61,64
352959,note_off,,,,,10,0,0,,,1,,,81,64
352980,note_on,,,,,21,0,0,,,1,,,79,110
353000,note_off,,,,,20,0,0,,,1,,,78,64
353022,note_on,,,,,22,0,0,,,4,,,58,127
353022,note_on,,,,,0,0,0,,,2,,,76,113
353023,note_on,,,,,1,0,0,,,4,,,46,127
353030,note_off,,,,,7,0,0,,,4,,,50,64
353031,note_off,,,,,1,0,0,,,4,,,62,64
353043,note_off,,,,,12,0,0,,,1,,,79,64
353064,note_on,,,,,21,0,0,,,1,,,78,110
353083,note_off,,,,,19,0,0,,,2,,,76,64
353105,note_on,,,,,22,0,0,,,2,,,74,113
353105,note_on,,,,,0,0,0,,,4,,,59,127
353106,note_on,,,,,1,0,0,,,4,,,47,127
353114,note_off,,,,,8,0,0,,,4,,,58,64
353114,note_off,,,,,0,0,0,,,4,,,46,64
353124,note_off,,,,,10,0,0,,,1,,,78,64
353144,note_on,,,,,20,0,0,,,2,,,76,113
353165,note_off,,,,,21,0,0,,,2,,,74,64
353186,note_on,,,,,21,0,0,,,2,,,73,113
353187,note_on,,,,,1,0,0,,,4,,,61,127
353187,note_on,,,,,0,0,0,,,4,,,49,127
353195,note_off,,,,,8,0,0,,,4,,,47,64
353195,note_off,,,,,0,0,0,,,4,,,59,64
353207,note_off,,,,,12,0,0,,,2,,,76,64
353226,note_on,,,,,19,0,0,,,2,,,74,113
353247,note_off,,,,,21,0,0,,,2,,,73,64
353269,note_on,,,,,22,0,0,,,4,,,62,127
353269,note_on,,,,,0,0,0,,,2,,,71,117
353270,note_on,,,,,1,0,0,,,4,,,50,127
353277,note_off,,,,,7,0,0,,,4,,,49,64
353278,note_off,,,,,1,0,0,,,4,,,61,64
353290,note_off,,,,,12,0,0,,,2,,,74,64
353310,note_on,,,,,20,0,0,,,2,,,73,118
353329,note_off,,,,,19,0,0,,,2,,,71,64
353351,note_on,,,,,22,0,0,,,2,,,69,118
353351,note_on,,,,,0,0,0,,,4,,,63,127
353351,note_on,,,,,0,0,0,,,4,,,51,127
353359,note_off,,,,,8,0,0,,,4,,,62,64
353359,note_off,,,,,0,0,0,,,4,,,50,64
353370,note_off,,,,,11,0,0,,,2,,,73,64
353392,note_on,,,,,22,0,0,,,2,,,71,117
353413,note_off,,,,,21,0,0,,,2,,,69,64
353434,note_on,,,,,21,0,0,,,2,,,68,120
353435,note_on,,,,,1,0,0,,,4,,,52,127
353435,note_on,,,,,0,0,0,,,4,,,64,126
353441,note_off,,,,,6,0,0,,,4,,,51,64
353442,note_off,,,,,1,0,0,,,4,,,63,64
353454,note_off,,,,,12,0,0,,,2,,,71,64
353475,note_on,,,,,21,0,0,,,1,,,80,115
353517,note_off,,,,,42,0,0,,,2,,,68,64
353517,note_on,,,,,0,0,0,,,1,,,83,115
353523,note_off,,,,,6,0,0,,,1,,,80,64
353560,note_on,,,,,37,0,0,,,1,,,81,115
353566,note_off,,,,,6,0,0,,,1,,,83,64
353598,note_on,,,,,32,0,0,,,1,,,80,115
353606,note_off,,,,,8,0,0,,,1,,,81,64
353639,note_on,,,,,33,0,0,,,1,,,78,115
353644,note_off,,,,,5,0,0,,,1,,,80,64
353679,note_on,,,,,35,0,0,,,2,,,76,118
353685,note_off,,,,,6,0,0,,,1,,,78,64
353719,note_on,,,,,34,0,0,,,2,,,75,118
353727,note_off,,,,,8,0,0,,,2,,,76,64
353733,note_off,,,,,6,0,0,,,4,,,64,64
353760,note_off,,,,,27,0,0,,,4,,,52,64
353760,note_on,,,,,0,0,0,,,4,,,64,126
353760,note_on,,,,,0,0,0,,,2,,,74,118
353761,note_on,,,,,1,0,0,,,4,,,56,127
353761,note_on,,,,,0,0,0,,,4,,,59,127
353767,note_off,,,,,6,0,0,,,2,,,75,64
353800,note_on,,,,,33,0,0,,,1,,,83,115
353808,note_off,,,,,8,0,0,,,2,,,74,64
353840,note_on,,,,,32,0,0,,,1,,,86,115
353848,note_off,,,,,8,0,0,,,1,,,83,64
353882,note_on,,,,,34,0,0,,,1,,,85,115
353888,note_off,,,,,6,0,0,,,1,,,86,64
353921,note_on,,,,,33,0,0,,,1,,,83,115
353928,note_off,,,,,7,0,0,,,1,,,85,64
353960,note_on,,,,,32,0,0,,,1,,,81,115
353968,note_off,,,,,8,0,0,,,1,,,83,64
354002,note_on,,,,,34,0,0,,,1,,,80,115
354009,note_off,,,,,7,0,0,,,1,,,81,64
354042,note_on,,,,,33,0,0,,,1,,,78,115
354049,note_off,,,,,7,0,0,,,1,,,80,64
354082,note_off,,,,,33,0,0,,,4,,,56,64
354083,note_off,,,,,1,0,0,,,4,,,64,64
354083,note_off,,,,,0,0,0,,,4,,,59,64
354084,note_on,,,,,1,0,0,,,4,,,57,127
354084,note_on,,,,,0,0,0,,,4,,,61,127
354084,note_on,,,,,0,0,0,,,2,,,76,118
354091,note_off,,,,,7,0,0,,,1,,,78,64
354123,note_on,,,,,32,0,0,,,1,,,78,115
354131,note_off,,,,,8,0,0,,,2,,,76,64
354164,note_on,,,,,33,0,0,,,1,,,80,115
354171,note_off,,,,,7,0,0,,,1,,,78,64
354206,note_on,,,,,35,0,0,,,1,,,81,115
354212,note_off,,,,,6,0,0,,,1,,,80,64
354246,note_on,,,,,34,0,0,,,1,,,80,115
354247,note_on,,,,,1,0,0,,,4,,,59,127
354247,note_on,,,,,0,0,0,,,4,,,50,127
354248,note_off,,,,,1,0,0,,,4,,,61,64
354248,note_off,,,,,0,0,0,,,4,,,57,64
354252,note_off,,,,,4,0,0,,,1,,,81,64
354285,note_on,,,,,33,0,0,,,1,,,78,115
354293,note_off,,,,,8,0,0,,,1,,,80,64
354324,note_on,,,,,31,0,0,,,2,,,76,118
354332,note_off,,,,,8,0,0,,,1,,,78,64
354365,note_on,,,,,33,0,0,,,2,,,74,118
354371,note_off,,,,,6,0,0,,,2,,,76,64
354406,note_on,,,,,35,0,0,,,4,,,57,127
354406,note_on,,,,,0,0,0,,,2,,,73,118
354407,note_off,,,,,1,0,0,,,4,,,50,64
354407,note_on,,,,,0,0,0,,,4,,,52,127
354408,note_off,,,,,1,0,0,,,4,,,59,64
354411,note_off,,,,,3,0,0,,,2,,,74,64
354446,note_on,,,,,35,0,0,,,2,,,74,118
354452,note_off,,,,,6,0,0,,,2,,,73,64
354486,note_on,,,,,34,0,0,,,2,,,76,118
354494,note_off,,,,,8,0,0,,,2,,,74,64
354527,note_on,,,,,33,0,0,,,1,,,78,115
354532,note_off,,,,,5,0,0,,,2,,,76,64
354561,note_off,,,,,29,0,0,,,4,,,52,64
354569,note_on,,,,,8,0,0,,,4,,,56,127
354569,note_on,,,,,0,0,0,,,2,,,76,118
354570,note_off,,,,,1,0,0,,,4,,,57,64
354570,note_on,,,,,0,0,0,,,4,,,52,127
354575,note_off,,,,,5,0,0,,,1,,,78,64
354607,note_on,,,,,32,0,0,,,2,,,74,118
354615,note_off,,,,,8,0,0,,,2,,,76,64
354648,note_on,,,,,33,0,0,,,2,,,73,118
354655,note_off,,,,,7,0,0,,,2,,,74,64
354688,note_on,,,,,33,0,0,,,2,,,71,117
354695,note_off,,,,,7,0,0,,,2,,,73,64
354729,note_off,,,,,34,0,0,,,4,,,52,64
354730,note_on,,,,,1,0,0,,,2,,,69,118
354730,note_on,,,,,0,0,0,,,4,,,45,127
354732,note_off,,,,,2,0,0,,,4,,,56,64
354736,note_off,,,,,4,0,0,,,2,,,71,64
354776,note_on,,,,,40,0,0,,,4,,,57,127
354786,note_off,,,,,10,0,0,,,4,,,45,64
354826,note_on,,,,,40,0,0,,,4,,,52,127
354834,note_off,,,,,8,0,0,,,4,,,57,64
354878,note_on,,,,,44,0,0,,,4,,,49,127
354886,note_off,,,,,8,0,0,,,4,,,52,64
354926,note_off,,,,,40,0,0,,,2,,,69,64
354926,note_on,,,,,0,0,0,,,4,,,45,127
354933,note_off,,,,,7,0,0,,,4,,,49,64
355088,note_on,,,,,155,0,0,,,1,,,81,115
355132,note_on,,,,,44,0,0,,,1,,,83,115
355155,note_off,,,,,23,0,0,,,1,,,81,64
355180,note_on,,,,,25,0,0,,,1,,,84,115
355203,note_off,,,,,23,0,0,,,1,,,83,64
355226,note_on,,,,,23,0,0,,,1,,,83,115
355246,note_off,,,,,20,0,0,,,1,,,84,64
355265,note_on,,,,,19,0,0,,,1,,,81,115
355286,note_off,,,,,21,0,0,,,1,,,83,64
355307,note_on,,,,,21,0,0,,,1,,,79,115
355330,note_off,,,,,23,0,0,,,1,,,81,64
355351,note_on,,,,,21,0,0,,,1,,,78,115
355373,note_off,,,,,22,0,0,,,1,,,79,64
355388,note_off,,,,,15,0,0,,,4,,,45,64
355395,note_on,,,,,7,0,0,,,2,,,76,113
355418,note_off,,,,,23,0,0,,,1,,,78,64
355440,note_on,,,,,22,0,0,,,2,,,75,113
355440,note_on,,,,,0,0,0,,,2,,,72,118
355440,note_on,,,,,0,0,0,,,2,,,69,118
355460,note_off,,,,,20,0,0,,,2,,,76,64
355481,note_on,,,,,21,0,0,,,2,,,76,113
355502,note_off,,,,,21,0,0,,,2,,,75,64
355523,note_on,,,,,21,0,0,,,1,,,78,110
355547,note_off,,,,,24,0,0,,,2,,,76,64
355572,note_on,,,,,25,0,0,,,2,,,75,113
355591,note_off,,,,,19,0,0,,,1,,,78,64
355612,note_on,,,,,21,0,0,,,2,,,71,117
355612,note_on,,,,,0,0,0,,,2,,,76,113
355613,note_off,,,,,1,0,0,,,2,,,69,64
355613,note_on,,,,,0,0,0,,,2,,,68,120
355614,note_off,,,,,1,0,0,,,2,,,72,64
355632,note_off,,,,,18,0,0,,,2,,,75,64
355655,note_on,,,,,23,0,0,,,1,,,80,110
355676,note_off,,,,,21,0,0,,,2,,,76,64
355697,note_on,,,,,21,0,0,,,1,,,83,110
355720,note_off,,,,,23,0,0,,,1,,,80,64
355745,note_on,,,,,25,0,0,,,2,,,74,113
355766,note_off,,,,,21,0,0,,,1,,,83,64
355788,note_on,,,,,22,0,0,,,2,,,67,127
355788,note_on,,,,,0,0,0,,,2,,,70,118
355788,note_on,,,,,0,0,0,,,2,,,73,113
355790,note_off,,,,,2,0,0,,,2,,,71,64
355790,note_off,,,,,0,0,0,,,2,,,68,64
355809,note_off,,,,,19,0,0,,,2,,,74,64
355830,note_on,,,,,21,0,0,,,2,,,74,113
355851,note_off,,,,,21,0,0,,,2,,,73,64
355872,note_on,,,,,21,0,0,,,2,,,76,113
355895,note_off,,,,,23,0,0,,,2,,,74,64
355916,note_on,,,,,21,0,0,,,2,,,73,113
355935,note_off,,,,,19,0,0,,,2,,,76,64
355958,note_on,,,,,23,0,0,,,2,,,74,113
355959,note_off,,,,,1,0,0,,,2,,,67,64
355959,note_on,,,,,0,0,0,,,2,,,69,118
355959,note_on,,,,,0,0,0,,,4,,,66,127
355960,note_off,,,,,1,0,0,,,2,,,70,64
355980,note_off,,,,,20,0,0,,,2,,,73,64
356001,note_on,,,,,21,0,0,,,1,,,78,110
356023,note_off,,,,,22,0,0,,,2,,,74,64
356044,note_on,,,,,21,0,0,,,1,,,81,110
356067,note_off,,,,,23,0,0,,,1,,,78,64
356088,note_on,,,,,21,0,0,,,2,,,74,113
356109,note_off,,,,,21,0,0,,,1,,,81,64
356132,note_on,,,,,23,0,0,,,1,,,86,111
356133,note_on,,,,,1,0,0,,,4,,,59,127
356133,note_on,,,,,0,0,0,,,2,,,71,117
356135,note_off,,,,,2,0,0,,,4,,,66,64
356135,note_off,,,,,0,0,0,,,2,,,69,64
356155,note_off,,,,,20,0,0,,,2,,,74,64
356176,note_on,,,,,21,0,0,,,1,,,88,113
356199,note_off,,,,,23,0,0,,,1,,,86,64
356222,note_on,,,,,23,0,0,,,1,,,85,111
356223,note_on,,,,,1,0,0,,,2,,,69,118
356223,note_on,,,,,0,0,0,,,4,,,57,127
356231,note_off,,,,,8,0,0,,,4,,,59,64
356232,note_off,,,,,1,0,0,,,2,,,71,64
356244,note_off,,,,,12,0,0,,,1,,,88,64
356265,note_on,,,,,21,0,0,,,1,,,86,111
356288,note_off,,,,,23,0,0,,,1,,,85,64
356309,note_on,,,,,21,0,0,,,2,,,67,127
356309,note_on,,,,,0,0,0,,,1,,,83,111
356310,note_on,,,,,1,0,0,,,4,,,55,127
356318,note_off,,,,,8,0,0,,,4,,,57,64
356318,note_off,,,,,0,0,0,,,2,,,69,64
356331,note_off,,,,,13,0,0,,,1,,,86,64
356350,note_on,,,,,19,0,0,,,1,,,85,111
356374,note_off,,,,,24,0,0,,,1,,,83,64
356397,note_on,,,,,23,0,0,,,1,,,82,115
356398,note_on,,,,,1,0,0,,,4,,,54,127
356398,note_on,,,,,0,0,0,,,4,,,66,127
356406,note_off,,,,,8,0,0,,,2,,,67,64
356406,note_off,,,,,0,0,0,,,4,,,55,64
356418,note_off,,,,,12,0,0,,,1,,,85,64
356439,note_on,,,,,21,0,0,,,1,,,85,111
356462,note_off,,,,,23,0,0,,,1,,,82,64
356485,note_on,,,,,23,0,0,,,1,,,83,111
356486,note_on,,,,,1,0,0,,,2,,,67,127
356486,note_on,,,,,0,0,0,,,4,,,55,127
356494,note_off,,,,,8,0,0,,,4,,,54,64
356495,note_off,,,,,1,0,0,,,4,,,66,64
356505,note_off,,,,,10,0,0,,,1,,,85,64
356528,note_on,,,,,23,0,0,,,1,,,85,111
356549,note_off,,,,,21,0,0,,,1,,,83,64
356572,note_on,,,,,23,0,0,,,4,,,66,127
356572,note_on,,,,,0,0,0,,,1,,,81,115
356573,note_on,,,,,1,0,0,,,4,,,54,127
356580,note_off,,,,,7,0,0,,,4,,,55,64
356581,note_off,,,,,1,0,0,,,2,,,67,64
356593,note_off,,,,,12,0,0,,,1,,,85,64
356614,note_on,,,,,21,0,0,,,1,,,83,111
356637,note_off,,,,,23,0,0,,,1,,,81,64
356660,note_on,,,,,23,0,0,,,1,,,80,115
356661,note_on,,,,,1,0,0,,,4,,,64,126
356661,note_on,,,,,0,0,0,,,4,,,52,127
356669,note_off,,,,,8,0,0,,,4,,,66,64
356669,note_off,,,,,0,0,0,,,4,,,54,64
356681,note_off,,,,,12,0,0,,,1,,,83,64
356702,note_on,,,,,21,0,0,,,1,,,81,115
356724,note_off,,,,,22,0,0,,,1,,,80,64
356747,note_on,,,,,23,0,0,,,1,,,78,115
356747,note_on,,,,,0,0,0,,,4,,,62,127
356748,note_on,,,,,1,0,0,,,4,,,50,127
356755,note_off,,,,,7,0,0,,,4,,,52,64
356756,note_off,,,,,1,0,0,,,4,,,64,64
356768,note_off,,,,,12,0,0,,,1,,,81,64
356789,note_on,,,,,21,0,0,,,1,,,81,115
356812,note_off,,,,,23,0,0,,,1,,,78,64
356833,note_on,,,,,21,0,0,,,1,,,81,115
356833,note_on,,,,,0,0,0,,,2,,,71,117
356834,note_on,,,,,1,0,0,,,4,,,64,126
356841,note_off,,,,,7,0,0,,,4,,,50,64
356842,note_off,,,,,1,0,0,,,4,,,62,64
356852,note_off,,,,,10,0,0,,,1,,,81,64
356873,note_on,,,,,21,0,0,,,1,,,79,115
356894,note_off,,,,,21,0,0,,,1,,,81,64
356916,note_on,,,,,22,0,0,,,1,,,78,110
356937,note_off,,,,,21,0,0,,,1,,,79,64
356958,note_on,,,,,21,0,0,,,1,,,79,115
356979,note_off,,,,,21,0,0,,,1,,,78,64
357002,note_on,,,,,23,0,0,,,2,,,69,118
357002,note_on,,,,,0,0,0,,,2,,,76,113
357003,note_off,,,,,1,0,0,,,4,,,64,64
357003,note_on,,,,,0,0,0,,,4,,,61,127
357004,note_off,,,,,1,0,0,,,2,,,71,64
357021,note_off,,,,,17,0,0,,,1,,,79,64
357044,note_on,,,,,23,0,0,,,1,,,78,110
357067,note_off,,,,,23,0,0,,,2,,,76,64
357089,note_on,,,,,22,0,0,,,1,,,79,115
357108,note_off,,,,,19,0,0,,,1,,,78,64
357130,note_on,,,,,22,0,0,,,1,,,81,115
357151,note_off,,,,,21,0,0,,,1,,,79,64
357174,note_on,,,,,23,0,0,,,1,,,79,115
357174,note_on,,,,,0,0,0,,,4,,,62,127
357177,note_off,,,,,3,0,0,,,4,,,61,64
357194,note_off,,,,,17,0,0,,,1,,,81,64
357216,note_on,,,,,22,0,0,,,1,,,78,110
357237,note_off,,,,,21,0,0,,,1,,,79,64
357258,note_on,,,,,21,0,0,,,2,,,76,113
357279,note_off,,,,,21,0,0,,,1,,,78,64
357302,note_on,,,,,23,0,0,,,1,,,78,110
357324,note_off,,,,,22,0,0,,,2,,,76,64
357345,note_off,,,,,21,0,0,,,2,,,69,64
357345,note_on,,,,,0,0,0,,,2,,,74,113
357346,note_on,,,,,1,0,0,,,4,,,59,127
357346,note_on,,,,,0,0,0,,,2,,,67,127
357347,note_off,,,,,1,0,0,,,4,,,62,64
357366,note_off,,,,,19,0,0,,,1,,,78,64
357387,note_on,,,,,21,0,0,,,2,,,76,113
357408,note_off,,,,,21,0,0,,,2,,,74,64
357427,note_on,,,,,19,0,0,,,1,,,78,110
357448,note_off,,,,,21,0,0,,,2,,,76,64
357469,note_on,,,,,21,0,0,,,1,,,79,115
357489,note_off,,,,,20,0,0,,,1,,,78,64
357510,note_on,,,,,21,0,0,,,1,,,78,115
357511,note_on,,,,,1,0,0,,,4,,,57,127
357511,note_on,,,,,0,0,0,,,4,,,62,127
357512,note_off,,,,,1,0,0,,,2,,,67,64
357512,note_off,,,,,0,0,0,,,4,,,59,64
357528,note_off,,,,,16,0,0,,,1,,,79,64
357770,note_on,,,,,242,0,0,,,1,,,81,115
357780,note_off,,,,,10,0,0,,,1,,,78,64
357811,note_on,,,,,31,0,0,,,4,,,61,127
357811,note_on,,,,,0,0,0,,,2,,,76,118
357817,note_off,,,,,6,0,0,,,1,,,81,64
357823,note_off,,,,,6,0,0,,,4,,,62,64
358097,note_off,,,,,274,0,0,,,4,,,61,64
358103,note_off,,,,,6,0,0,,,2,,,76,64
358137,note_on,,,,,34,0,0,,,2,,,69,113
358143,note_off,,,,,6,0,0,,,4,,,57,64
358187,note_on,,,,,44,0,0,,,2,,,68,115
358208,note_off,,,,,21,0,0,,,2,,,69,64
358227,note_on,,,,,19,0,0,,,2,,,71,112
358248,note_off,,,,,21,0,0,,,2,,,68,64
358270,note_on,,,,,22,0,0,,,2,,,69,113
358291,note_off,,,,,21,0,0,,,2,,,71,64
358312,note_on,,,,,21,0,0,,,2,,,73,113
358332,note_off,,,,,20,0,0,,,2,,,69,64
358354,note_on,,,,,22,0,0,,,2,,,71,112
358374,note_off,,,,,20,0,0,,,2,,,73,64
358395,note_on,,,,,21,0,0,,,2,,,74,113
358416,note_off,,,,,21,0,0,,,2,,,71,64
358440,note_on,,,,,24,0,0,,,2,,,73,113
358459,note_off,,,,,19,0,0,,,2,,,74,64
358480,note_on,,,,,21,0,0,,,2,,,76,113
358501,note_off,,,,,21,0,0,,,2,,,73,64
358524,note_on,,,,,23,0,0,,,2,,,74,113
358541,note_off,,,,,17,0,0,,,2,,,76,64
358562,note_on,,,,,21,0,0,,,1,,,78,105
358583,note_off,,,,,21,0,0,,,2,,,74,64
358605,note_on,,,,,22,0,0,,,2,,,76,108
358624,note_off,,,,,19,0,0,,,1,,,78,64
358645,note_on,,,,,21,0,0,,,1,,,79,105
358666,note_off,,,,,21,0,0,,,2,,,76,64
358687,note_on,,,,,21,0,0,,,1,,,78,105
358710,note_off,,,,,23,0,0,,,1,,,79,64
358733,note_on,,,,,23,0,0,,,1,,,81,105
358734,note_on,,,,,1,0,0,,,4,,,54,127
358734,note_on,,,,,0,0,0,,,4,,,66,123
358755,note_off,,,,,21,0,0,,,1,,,78,64
358776,note_on,,,,,21,0,0,,,1,,,83,114
358783,note_off,,,,,7,0,0,,,1,,,81,64
358818,note_on,,,,,35,0,0,,,1,,,79,110
358818,note_on,,,,,0,0,0,,,4,,,61,127
358819,note_on,,,,,1,0,0,,,4,,,49,127
358828,note_off,,,,,9,0,0,,,4,,,66,64
358828,note_off,,,,,0,0,0,,,4,,,54,64
358841,note_off,,,,,13,0,0,,,1,,,83,64
358862,note_on,,,,,21,0,0,,,1,,,81,114
358882,note_off,,,,,20,0,0,,,1,,,79,64
358904,note_on,,,,,22,0,0,,,1,,,78,110
358905,note_on,,,,,1,0,0,,,4,,,62,127
358905,note_on,,,,,0,0,0,,,4,,,50,127
358913,note_off,,,,,8,0,0,,,4,,,49,64
358913,note_off,,,,,0,0,0,,,4,,,61,64
358923,note_off,,,,,10,0,0,,,1,,,81,64
358946,note_on,,,,,23,0,0,,,1,,,79,110
358966,note_off,,,,,20,0,0,,,1,,,78,64
358987,note_on,,,,,21,0,0,,,2,,,76,113
358988,note_on,,,,,1,0,0,,,4,,,46,127
358988,note_on,,,,,0,0,0,,,4,,,58,127
358996,note_off,,,,,8,0,0,,,4,,,50,64
358997,note_off,,,,,1,0,0,,,4,,,62,64
359009,note_off,,,,,12,0,0,,,1,,,79,64
359030,note_on,,,,,21,0,0,,,1,,,78,110
359051,note_off,,,,,21,0,0,,,2,,,76,64
359074,note_on,,,,,23,0,0,,,2,,,74,118
359075,note_on,,,,,1,0,0,,,4,,,47,127
359075,note_on,,,,,0,0,0,,,4,,,59,127
359083,note_off,,,,,8,0,0,,,4,,,58,64
359083,note_off,,,,,0,0,0,,,4,,,46,64
359095,note_off,,,,,12,0,0,,,1,,,78,64
359114,note_on,,,,,19,0,0,,,2,,,76,113
359122,note_off,,,,,8,0,0,,,2,,,74,64
359159,note_on,,,,,37,0,0,,,2,,,74,118
359166,note_off,,,,,7,0,0,,,2,,,76,64
359203,note_on,,,,,37,0,0,,,2,,,73,118
359208,note_off,,,,,5,0,0,,,2,,,74,64
359245,note_on,,,,,37,0,0,,,2,,,74,118
359251,note_off,,,,,6,0,0,,,2,,,73,64
359287,note_on,,,,,36,0,0,,,2,,,76,118
359295,note_off,,,,,8,0,0,,,2,,,74,64
359328,note_on,,,,,33,0,0,,,1,,,78,115
359349,note_off,,,,,21,0,0,,,2,,,76,64
359370,note_on,,,,,21,0,0,,,2,,,74,118
359391,note_off,,,,,21,0,0,,,1,,,78,64
359414,note_off,,,,,23,0,0,,,4,,,59,64
359414,note_off,,,,,0,0,0,,,4,,,47,64
359415,note_on,,,,,1,0,0,,,2,,,67,127
359415,note_on,,,,,0,0,0,,,1,,,79,110
359416,note_on,,,,,1,0,0,,,4,,,61,127
359416,note_on,,,,,0,0,0,,,4,,,64,126
359417,note_on,,,,,1,0,0,,,4,,,58,127
359436,note_off,,,,,19,0,0,,,2,,,74,64
359457,note_on,,,,,21,0,0,,,1,,,78,110
359463,note_off,,,,,6,0,0,,,1,,,79,64
359497,note_on,,,,,34,0,0,,,2,,,76,113
359503,note_off,,,,,6,0,0,,,1,,,78,64
359538,note_on,,,,,35,0,0,,,2,,,74,113
359544,note_off,,,,,6,0,0,,,2,,,76,64
359578,note_on,,,,,34,0,0,,,2,,,73,113
359584,note_off,,,,,6,0,0,,,2,,,74,64
359618,note_on,,,,,34,0,0,,,2,,,74,113
359626,note_off,,,,,8,0,0,,,2,,,73,64
359659,note_on,,,,,33,0,0,,,2,,,76,113
359666,note_off,,,,,7,0,0,,,2,,,74,64
359700,note_on,,,,,34,0,0,,,1,,,78,110
359706,note_off,,,,,6,0,0,,,2,,,76,64
359735,note_off,,,,,29,0,0,,,4,,,64,64
359735,note_off,,,,,0,0,0,,,4,,,61,64
359736,note_off,,,,,1,0,0,,,2,,,67,64
359737,note_off,,,,,1,0,0,,,4,,,58,64
359738,note_on,,,,,1,0,0,,,2,,,67,127
359738,note_on,,,,,0,0,0,,,1,,,79,110
359739,note_on,,,,,1,0,0,,,4,,,61,127
359739,note_on,,,,,0,0,0,,,4,,,64,126
359740,note_on,,,,,1,0,0,,,4,,,57,127
359744,note_off,,,,,4,0,0,,,1,,,78,64
359781,note_on,,,,,37,0,0,,,1,,,78,110
359786,note_off,,,,,5,0,0,,,1,,,79,64
359819,note_on,,,,,33,0,0,,,2,,,76,113
359827,note_off,,,,,8,0,0,,,1,,,78,64
359859,note_on,,,,,32,0,0,,,1,,,78,110
359865,note_off,,,,,6,0,0,,,2,,,76,64
359900,note_on,,,,,35,0,0,,,1,,,79,110
359907,note_off,,,,,7,0,0,,,1,,,78,64
359940,note_on,,,,,33,0,0,,,1,,,81,110
359948,note_off,,,,,8,0,0,,,1,,,79,64
359981,note_on,,,,,33,0,0,,,1,,,83,110
359988,note_off,,,,,7,0,0,,,1,,,81,64
360021,note_on,,,,,33,0,0,,,1,,,85,110
360026,note_off,,,,,5,0,0,,,1,,,83,64
360061,note_off,,,,,35,0,0,,,4,,,61,64
360061,note_off,,,,,0,0,0,,,4,,,57,64
360062,note_off,,,,,1,0,0,,,2,,,67,64
360062,note_off,,,,,0,0,0,,,4,,,64,64
360063,note_on,,,,,1,0,0,,,1,,,86,110
360063,note_on,,,,,0,0,0,,,4,,,66,127
360064,note_on,,,,,1,0,0,,,4,,,62,127
360068,note_off,,,,,4,0,0,,,1,,,85,64
360104,note_on,,,,,36,0,0,,,1,,,85,110
360111,note_off,,,,,7,0,0,,,1,,,86,64
360145,note_on,,,,,34,0,0,,,1,,,83,110
360151,note_off,,,,,6,0,0,,,1,,,85,64
360186,note_on,,,,,35,0,0,,,1,,,81,110
360192,note_off,,,,,6,0,0,,,1,,,83,64
360227,note_on,,,,,35,0,0,,,4,,,64,126
360227,note_on,,,,,0,0,0,,,1,,,79,110
360228,note_on,,,,,1,0,0,,,4,,,55,127
360230,note_off,,,,,2,0,0,,,4,,,62,64
360230,note_off,,,,,0,0,0,,,4,,,66,64
360233,note_off,,,,,3,0,0,,,1,,,81,64
360267,note_on,,,,,34,0,0,,,1,,,81,110
360274,note_off,,,,,7,0,0,,,1,,,79,64
360306,note_on,,,,,32,0,0,,,1,,,83,110
360313,note_off,,,,,7,0,0,,,1,,,81,64
360350,note_on,,,,,37,0,0,,,1,,,79,110
360356,note_off,,,,,6,0,0,,,1,,,83,64
360390,note_on,,,,,34,0,0,,,1,,,78,110
360391,note_on,,,,,1,0,0,,,4,,,57,127
360391,note_on,,,,,0,0,0,,,4,,,62,127
360392,note_off,,,,,1,0,0,,,4,,,64,64
360392,note_off,,,,,0,0,0,,,4,,,55,64
360396,note_off,,,,,4,0,0,,,1,,,79,64
360429,note_on,,,,,33,0,0,,,1,,,79,110
360437,note_off,,,,,8,0,0,,,1,,,78,64
360469,note_on,,,,,32,0,0,,,1,,,81,110
360477,note_off,,,,,8,0,0,,,1,,,79,64
360512,note_on,,,,,35,0,0,,,1,,,78,110
360517,note_off,,,,,5,0,0,,,1,,,81,64
360544,note_off,,,,,27,0,0,,,4,,,57,64
360552,note_off,,,,,8,0,0,,,4,,,62,64
360552,note_on,,,,,0,0,0,,,2,,,76,113
360553,note_on,,,,,1,0,0,,,4,,,61,127
360553,note_on,,,,,0,0,0,,,4,,,57,127
360558,note_off,,,,,5,0,0,,,1,,,78,64
360592,note_on,,,,,34,0,0,,,1,,,78,110
360598,note_off,,,,,6,0,0,,,2,,,76,64
360635,note_on,,,,,37,0,0,,,1,,,79,110
360640,note_off,,,,,5,0,0,,,1,,,78,64
360677,note_on,,,,,37,0,0,,,2,,,76,118
360684,note_off,,,,,7,0,0,,,1,,,79,64
360717,note_off,,,,,33,0,0,,,4,,,57,64
360718,note_off,,,,,1,0,0,,,4,,,61,64
360718,note_on,,,,,0,0,0,,,2,,,74,118
360719,note_on,,,,,1,0,0,,,4,,,50,127
360725,note_off,,,,,6,0,0,,,2,,,76,64
360765,note_on,,,,,40,0,0,,,4,,,62,127
360778,note_off,,,,,13,0,0,,,4,,,50,64
360819,note_on,,,,,41,0,0,,,4,,,57,127
360827,note_off,,,,,8,0,0,,,4,,,62,64
360869,note_on,,,,,42,0,0,,,4,,,54,127
360876,note_off,,,,,7,0,0,,,4,,,57,64
360919,note_on,,,,,43,0,0,,,4,,,50,127
360926,note_off,,,,,7,0,0,,,4,,,54,64
361054,note_off,,,,,128,0,0,,,2,,,74,64
361083,note_on,,,,,29,0,0,,,1,,,81,115
361135,note_on,,,,,52,0,0,,,1,,,83,115
361140,note_off,,,,,5,0,0,,,1,,,81,64
361173,note_on,,,,,33,0,0,,,1,,,84,115
361181,note_off,,,,,8,0,0,,,1,,,83,64
361217,note_on,,,,,36,0,0,,,1,,,83,115
361225,note_off,,,,,8,0,0,,,1,,,84,64
361258,note_on,,,,,33,0,0,,,1,,,81,115
361265,note_off,,,,,7,0,0,,,1,,,83,64
361298,note_on,,,,,33,0,0,,,1,,,79,115
361306,note_off,,,,,8,0,0,,,1,,,81,64
361340,note_on,,,,,34,0,0,,,1,,,78,115
361346,note_off,,,,,6,0,0,,,1,,,79,64
361380,note_on,,,,,34,0,0,,,2,,,76,113
361386,note_off,,,,,6,0,0,,,1,,,78,64
361421,note_on,,,,,35,0,0,,,2,,,72,118
361421,note_on,,,,,0,0,0,,,2,,,75,113
361422,note_on,,,,,1,0,0,,,2,,,69,118
361428,note_off,,,,,6,0,0,,,2,,,76,64
361462,note_on,,,,,34,0,0,,,2,,,76,113
361468,note_off,,,,,6,0,0,,,2,,,75,64
361504,note_on,,,,,36,0,0,,,1,,,78,115
361510,note_off,,,,,6,0,0,,,2,,,76,64
361548,note_on,,,,,38,0,0,,,2,,,75,113
361554,note_off,,,,,6,0,0,,,1,,,78,64
361589,note_off,,,,,35,0,0,,,2,,,72,64
361589,note_off,,,,,0,0,0,,,2,,,69,64
361590,note_on,,,,,1,0,0,,,2,,,71,117
361590,note_on,,,,,0,0,0,,,2,,,76,113
361591,note_on,,,,,1,0,0,,,2,,,68,120
361596,note_off,,,,,5,0,0,,,2,,,75,64
361630,note_on,,,,,34,0,0,,,1,,,80,115
361636,note_off,,,,,6,0,0,,,2,,,76,64
361670,note_on,,,,,34,0,0,,,1,,,83,115
361676,note_off,,,,,6,0,0,,,1,,,80,64
361715,note_on,,,,,39,0,0,,,2,,,74,113
361736,note_off,,,,,21,0,0,,,1,,,83,64
361757,note_off,,,,,21,0,0,,,2,,,71,64
361757,note_off,,,,,0,0,0,,,2,,,68,64
361758,note_on,,,,,1,0,0,,,2,,,70,118
361758,note_on,,,,,0,0,0,,,2,,,73,113
361759,note_on,,,,,1,0,0,,,2,,,67,127
361764,note_off,,,,,5,0,0,,,2,,,74,64
361803,note_on,,,,,39,0,0,,,2,,,74,113
361809,note_off,,,,,6,0,0,,,2,,,73,64
361850,note_on,,,,,41,0,0,,,2,,,76,113
361858,note_off,,,,,8,0,0,,,2,,,74,64
361896,note_on,,,,,38,0,0,,,2,,,73,113
361902,note_off,,,,,6,0,0,,,2,,,76,64
361938,note_off,,,,,36,0,0,,,2,,,67,64
361939,note_off,,,,,1,0,0,,,2,,,70,64
361939,note_on,,,,,0,0,0,,,2,,,74,113
361940,note_on,,,,,1,0,0,,,2,,,69,118
361940,note_on,,,,,0,0,0,,,4,,,66,127
361945,note_off,,,,,5,0,0,,,2,,,73,64
361980,note_on,,,,,35,0,0,,,1,,,78,115
361985,note_off,,,,,5,0,0,,,2,,,74,64
362021,note_on,,,,,36,0,0,,,1,,,81,115
362027,note_off,,,,,6,0,0,,,1,,,78,64
362063,note_on,,,,,36,0,0,,,2,,,74,113
362084,note_off,,,,,21,0,0,,,1,,,81,64
362105,note_off,,,,,21,0,0,,,4,,,66,64
362106,note_off,,,,,1,0,0,,,2,,,69,64
362106,note_on,,,,,0,0,0,,,1,,,86,115
362107,note_on,,,,,1,0,0,,,4,,,59,127
362107,note_on,,,,,0,0,0,,,2,,,71,117
362120,note_off,,,,,13,0,0,,,4,,,50,64
362127,note_off,,,,,7,0,0,,,2,,,74,64
362148,note_on,,,,,21,0,0,,,1,,,88,112
362154,note_off,,,,,6,0,0,,,1,,,86,64
362191,note_on,,,,,37,0,0,,,1,,,85,110
362191,note_on,,,,,0,0,0,,,2,,,69,118
362192,note_on,,,,,1,0,0,,,4,,,57,127
362197,note_off,,,,,5,0,0,,,1,,,88,64
362199,note_off,,,,,2,0,0,,,4,,,59,64
362200,note_off,,,,,1,0,0,,,2,,,71,64
362233,note_on,,,,,33,0,0,,,1,,,86,110
362241,note_off,,,,,8,0,0,,,1,,,85,64
362279,note_on,,,,,38,0,0,,,1,,,83,110
362280,note_on,,,,,1,0,0,,,2,,,67,127
362280,note_on,,,,,0,0,0,,,4,,,55,127
362288,note_off,,,,,8,0,0,,,4,,,57,64
362288,note_off,,,,,0,0,0,,,2,,,69,64
362300,note_off,,,,,12,0,0,,,1,,,86,64
362319,note_on,,,,,19,0,0,,,1,,,85,110
362340,note_off,,,,,21,0,0,,,1,,,83,64
362364,note_on,,,,,24,0,0,,,4,,,54,127
362364,note_on,,,,,0,0,0,,,4,,,66,127
362364,note_on,,,,,0,0,0,,,1,,,82,110
362372,note_off,,,,,8,0,0,,,4,,,55,64
362373,note_off,,,,,1,0,0,,,2,,,67,64
362385,note_off,,,,,12,0,0,,,1,,,85,64
362406,note_on,,,,,21,0,0,,,1,,,85,110
362427,note_off,,,,,21,0,0,,,1,,,82,64
362448,note_on,,,,,21,0,0,,,1,,,83,110
362448,note_on,,,,,0,0,0,,,2,,,67,127
362449,note_on,,,,,1,0,0,,,4,,,55,127
362457,note_off,,,,,8,0,0,,,4,,,66,64
362457,note_off,,,,,0,0,0,,,4,,,54,64
362469,note_off,,,,,12,0,0,,,1,,,85,64
362492,note_on,,,,,23,0,0,,,1,,,85,110
362513,note_off,,,,,21,0,0,,,1,,,83,64
362535,note_on,,,,,22,0,0,,,1,,,81,110
362535,note_on,,,,,0,0,0,,,4,,,66,127
362535,note_on,,,,,0,0,0,,,4,,,54,127
362544,note_off,,,,,9,0,0,,,4,,,55,64
362544,note_off,,,,,0,0,0,,,2,,,67,64
362557,note_off,,,,,13,0,0,,,1,,,85,64
362578,note_on,,,,,21,0,0,,,1,,,83,110
362585,note_off,,,,,7,0,0,,,1,,,81,64
362622,note_on,,,,,37,0,0,,,1,,,80,110
362623,note_on,,,,,1,0,0,,,4,,,52,127
362623,note_on,,,,,0,0,0,,,4,,,64,126
362628,note_off,,,,,5,0,0,,,1,,,83,64
362630,note_off,,,,,2,0,0,,,4,,,54,64
362631,note_off,,,,,1,0,0,,,4,,,66,64
362664,note_on,,,,,33,0,0,,,1,,,81,110
362670,note_off,,,,,6,0,0,,,1,,,80,64
362707,note_on,,,,,37,0,0,,,1,,,78,110
362707,note_on,,,,,0,0,0,,,4,,,62,127
362708,note_on,,,,,1,0,0,,,4,,,50,127
362714,note_off,,,,,6,0,0,,,1,,,81,64
362716,note_off,,,,,2,0,0,,,4,,,64,64
362716,note_off,,,,,0,0,0,,,4,,,52,64
362748,note_on,,,,,32,0,0,,,1,,,81,110
362756,note_off,,,,,8,0,0,,,1,,,78,64
362786,note_off,,,,,30,0,0,,,1,,,81,64
362790,note_on,,,,,4,0,0,,,1,,,81,110
362791,note_on,,,,,1,0,0,,,4,,,64,126
362791,note_on,,,,,0,0,0,,,2,,,71,117
362800,note_off,,,,,9,0,0,,,4,,,50,64
362801,note_off,,,,,1,0,0,,,4,,,62,64
362832,note_on,,,,,31,0,0,,,1,,,79,110
362840,note_off,,,,,8,0,0,,,1,,,81,64
362877,note_on,,,,,37,0,0,,,1,,,78,110
362882,note_off,,,,,5,0,0,,,1,,,79,64
362919,note_on,,,,,37,0,0,,,1,,,79,110
362927,note_off,,,,,8,0,0,,,1,,,78,64
362963,note_on,,,,,36,0,0,,,2,,,76,113
362964,note_off,,,,,1,0,0,,,4,,,64,64
362964,note_on,,,,,0,0,0,,,4,,,61,127
362964,note_on,,,,,0,0,0,,,2,,,69,118
362965,note_off,,,,,1,0,0,,,2,,,71,64
362970,note_off,,,,,5,0,0,,,1,,,79,64
363005,note_on,,,,,35,0,0,,,1,,,78,110
363011,note_off,,,,,6,0,0,,,2,,,76,64
363046,note_on,,,,,35,0,0,,,1,,,79,110
363053,note_off,,,,,7,0,0,,,1,,,78,64
363088,note_on,,,,,35,0,0,,,1,,,81,110
363096,note_off,,,,,8,0,0,,,1,,,79,64
363132,note_on,,,,,36,0,0,,,1,,,79,110
363132,note_on,,,,,0,0,0,,,4,,,62,127
363134,note_off,,,,,2,0,0,,,4,,,61,64
363139,note_off,,,,,5,0,0,,,1,,,81,64
363171,note_on,,,,,32,0,0,,,1,,,78,110
363179,note_off,,,,,8,0,0,,,1,,,79,64
363214,note_on,,,,,35,0,0,,,2,,,76,113
363221,note_off,,,,,7,0,0,,,1,,,78,64
363256,note_on,,,,,35,0,0,,,1,,,78,110
363264,note_off,,,,,8,0,0,,,2,,,76,64
363300,note_off,,,,,36,0,0,,,2,,,69,64
363300,note_on,,,,,0,0,0,,,2,,,74,113
363301,note_on,,,,,1,0,0,,,4,,,59,127
363301,note_on,,,,,0,0,0,,,2,,,67,127
363302,note_off,,,,,1,0,0,,,4,,,62,64
363321,note_off,,,,,19,0,0,,,1,,,78,64
363340,note_on,,,,,19,0,0,,,2,,,76,113
363348,note_off,,,,,8,0,0,,,2,,,74,64
363383,note_on,,,,,35,0,0,,,1,,,78,110
363390,note_off,,,,,7,0,0,,,2,,,76,64
363423,note_on,,,,,33,0,0,,,1,,,79,110
363431,note_off,,,,,8,0,0,,,1,,,78,64
363465,note_on,,,,,34,0,0,,,1,,,78,110
363466,note_on,,,,,1,0,0,,,4,,,57,127
363466,note_on,,,,,0,0,0,,,4,,,62,127
363467,note_off,,,,,1,0,0,,,2,,,67,64
363467,note_off,,,,,0,0,0,,,4,,,59,64
363471,note_off,,,,,4,0,0,,,1,,,79,64
363742,note_off,,,,,271,0,0,,,1,,,78,64
363742,note_on,,,,,0,0,0,,,1,,,81,115
363779,note_off,,,,,37,0,0,,,4,,,62,64
363780,note_on,,,,,1,0,0,,,4,,,61,127
363780,note_on,,,,,0,0,0,,,2,,,76,118
363800,note_off,,,,,20,0,0,,,1,,,81,64
364080,note_off,,,,,280,0,0,,,2,,,76,64
364115,note_off,,,,,35,0,0,,,4,,,61,64
364116,note_on,,,,,1,0,0,,,2,,,69,118
364164,note_on,,,,,48,0,0,,,2,,,68,120
364172,note_off,,,,,8,0,0,,,2,,,69,64
364206,note_on,,,,,34,0,0,,,2,,,71,112
364229,note_off,,,,,23,0,0,,,2,,,68,64
364250,note_on,,,,,21,0,0,,,2,,,69,118
364272,note_off,,,,,22,0,0,,,2,,,71,64
364293,note_on,,,,,21,0,0,,,2,,,73,113
364316,note_off,,,,,23,0,0,,,2,,,69,64
364335,note_on,,,,,19,0,0,,,2,,,71,112
364356,note_off,,,,,21,0,0,,,2,,,73,64
364377,note_on,,,,,21,0,0,,,2,,,74,113
364398,note_off,,,,,21,0,0,,,2,,,71,64
364420,note_on,,,,,22,0,0,,,2,,,73,108
364440,note_off,,,,,20,0,0,,,2,,,74,64
364463,note_on,,,,,23,0,0,,,2,,,76,108
364484,note_off,,,,,21,0,0,,,2,,,73,64
364503,note_on,,,,,19,0,0,,,2,,,74,108
364524,note_off,,,,,21,0,0,,,2,,,76,64
364543,note_on,,,,,19,0,0,,,1,,,78,105
364564,note_off,,,,,21,0,0,,,2,,,74,64
364585,note_on,,,,,21,0,0,,,2,,,76,108
364607,note_off,,,,,22,0,0,,,1,,,78,64
364630,note_on,,,,,23,0,0,,,1,,,79,105
364653,note_off,,,,,23,0,0,,,2,,,76,64
364674,note_on,,,,,21,0,0,,,1,,,78,105
364680,note_off,,,,,6,0,0,,,1,,,79,64
364701,note_off,,,,,21,0,0,,,4,,,57,64
364716,note_on,,,,,15,0,0,,,4,,,66,127
364716,note_on,,,,,0,0,0,,,1,,,81,105
364717,note_on,,,,,1,0,0,,,4,,,54,127
364723,note_off,,,,,6,0,0,,,1,,,78,64
364757,note_on,,,,,34,0,0,,,1,,,83,110
364765,note_off,,,,,8,0,0,,,1,,,81,64
364799,note_on,,,,,34,0,0,,,1,,,79,105
364802,note_on,,,,,3,0,0,,,4,,,61,127
364802,note_on,,,,,0,0,0,,,4,,,49,127
364812,note_off,,,,,10,0,0,,,4,,,66,64
364812,note_off,,,,,0,0,0,,,4,,,54,64
364823,note_off,,,,,11,0,0,,,1,,,83,64
364842,note_on,,,,,19,0,0,,,1,,,81,110
364861,note_off,,,,,19,0,0,,,1,,,79,64
364884,note_on,,,,,23,0,0,,,1,,,78,110
364884,note_on,,,,,0,0,0,,,4,,,62,127
364885,note_on,,,,,1,0,0,,,4,,,50,127
364893,note_off,,,,,8,0,0,,,4,,,49,64
364893,note_off,,,,,0,0,0,,,4,,,61,64
364905,note_off,,,,,12,0,0,,,1,,,81,64
364924,note_on,,,,,19,0,0,,,1,,,79,110
364945,note_off,,,,,21,0,0,,,1,,,78,64
364967,note_on,,,,,22,0,0,,,4,,,58,127
364967,note_on,,,,,0,0,0,,,2,,,76,113
364968,note_on,,,,,1,0,0,,,4,,,46,127
364975,note_off,,,,,7,0,0,,,4,,,50,64
364976,note_off,,,,,1,0,0,,,4,,,62,64
364988,note_off,,,,,12,0,0,,,1,,,79,64
365007,note_on,,,,,19,0,0,,,1,,,78,110
365027,note_off,,,,,20,0,0,,,2,,,76,64
365048,note_on,,,,,21,0,0,,,2,,,74,113
365050,note_on,,,,,2,0,0,,,4,,,59,127
365051,note_on,,,,,1,0,0,,,4,,,47,127
365058,note_off,,,,,7,0,0,,,4,,,58,64
365058,note_off,,,,,0,0,0,,,4,,,46,64
365070,note_off,,,,,12,0,0,,,1,,,78,64
365090,note_on,,,,,20,0,0,,,2,,,76,113
365096,note_off,,,,,6,0,0,,,2,,,74,64
365132,note_on,,,,,36,0,0,,,2,,,74,113
365139,note_off,,,,,7,0,0,,,2,,,76,64
365173,note_on,,,,,34,0,0,,,2,,,73,113
365181,note_off,,,,,8,0,0,,,2,,,74,64
365214,note_on,,,,,33,0,0,,,2,,,74,113
365221,note_off,,,,,7,0,0,,,2,,,73,64
365254,note_on,,,,,33,0,0,,,2,,,76,113
365260,note_off,,,,,6,0,0,,,2,,,74,64
365294,note_on,,,,,34,0,0,,,1,,,78,110
365300,note_off,,,,,6,0,0,,,2,,,76,64
365335,note_on,,,,,35,0,0,,,2,,,74,113
365354,note_off,,,,,19,0,0,,,1,,,78,64
365375,note_off,,,,,21,0,0,,,4,,,47,64
365376,note_off,,,,,1,0,0,,,4,,,59,64
365376,note_on,,,,,0,0,0,,,2,,,67,127
365376,note_on,,,,,0,0,0,,,1,,,79,105
365377,note_on,,,,,1,0,0,,,4,,,61,127
365377,note_on,,,,,0,0,0,,,4,,,64,126
365378,note_on,,,,,1,0,0,,,4,,,58,127
365384,note_off,,,,,6,0,0,,,2,,,74,64
365418,note_on,,,,,34,0,0,,,1,,,78,105
365426,note_off,,,,,8,0,0,,,1,,,79,64
365459,note_on,,,,,33,0,0,,,2,,,76,108
365466,note_off,,,,,7,0,0,,,1,,,78,64
365501,note_on,,,,,35,0,0,,,2,,,74,108
365508,note_off,,,,,7,0,0,,,2,,,76,64
365543,note_on,,,,,35,0,0,,,2,,,73,108
365551,note_off,,,,,8,0,0,,,2,,,74,64
365585,note_on,,,,,34,0,0,,,2,,,74,108
365593,note_off,,,,,8,0,0,,,2,,,73,64
365628,note_on,,,,,35,0,0,,,2,,,76,108
365633,note_off,,,,,5,0,0,,,2,,,74,64
365669,note_on,,,,,36,0,0,,,1,,,78,105
365675,note_off,,,,,6,0,0,,,2,,,76,64
365707,note_off,,,,,32,0,0,,,4,,,64,64
365707,note_off,,,,,0,0,0,,,4,,,61,64
365708,note_off,,,,,1,0,0,,,2,,,67,64
365709,note_off,,,,,1,0,0,,,4,,,58,64
365709,note_on,,,,,0,0,0,,,1,,,79,105
365710,note_on,,,,,1,0,0,,,4,,,64,126
365710,note_on,,,,,0,0,0,,,2,,,67,127
365711,note_on,,,,,1,0,0,,,4,,,57,127
365711,note_on,,,,,0,0,0,,,4,,,61,127
365715,note_off,,,,,4,0,0,,,1,,,78,64
365749,note_on,,,,,34,0,0,,,1,,,78,105
365757,note_off,,,,,8,0,0,,,1,,,79,64
365792,note_on,,,,,35,0,0,,,2,,,76,108
365798,note_off,,,,,6,0,0,,,1,,,78,64
365833,note_on,,,,,35,0,0,,,1,,,78,105
365841,note_off,,,,,8,0,0,,,2,,,76,64
365875,note_on,,,,,34,0,0,,,1,,,79,105
365883,note_off,,,,,8,0,0,,,1,,,78,64
365916,note_on,,,,,33,0,0,,,1,,,81,105
365924,note_off,,,,,8,0,0,,,1,,,79,64
365957,note_on,,,,,33,0,0,,,1,,,83,110
365964,note_off,,,,,7,0,0,,,1,,,81,64
365997,note_on,,,,,33,0,0,,,1,,,85,110
366003,note_off,,,,,6,0,0,,,1,,,83,64
366033,note_off,,,,,30,0,0,,,2,,,67,64
366033,note_off,,,,,0,0,0,,,4,,,64,64
366033,note_off,,,,,0,0,0,,,4,,,61,64
366034,note_off,,,,,1,0,0,,,4,,,57,64
366035,note_on,,,,,1,0,0,,,1,,,86,110
366035,note_on,,,,,0,0,0,,,4,,,66,127
366036,note_on,,,,,1,0,0,,,4,,,62,127
366043,note_off,,,,,7,0,0,,,1,,,85,64
366078,note_on,,,,,35,0,0,,,1,,,85,110
366084,note_off,,,,,6,0,0,,,1,,,86,64
366116,note_on,,,,,32,0,0,,,1,,,83,110
366124,note_off,,,,,8,0,0,,,1,,,85,64
366158,note_on,,,,,34,0,0,,,1,,,81,110
366164,note_off,,,,,6,0,0,,,1,,,83,64
366199,note_on,,,,,35,0,0,,,4,,,64,126
366199,note_on,,,,,0,0,0,,,1,,,79,110
366200,note_on,,,,,1,0,0,,,4,,,55,127
366202,note_off,,,,,2,0,0,,,4,,,62,64
366202,note_off,,,,,0,0,0,,,4,,,66,64
366206,note_off,,,,,4,0,0,,,1,,,81,64
366241,note_on,,,,,35,0,0,,,1,,,81,110
366247,note_off,,,,,6,0,0,,,1,,,79,64
366281,note_on,,,,,34,0,0,,,1,,,83,110
366287,note_off,,,,,6,0,0,,,1,,,81,64
366324,note_on,,,,,37,0,0,,,1,,,79,110
366329,note_off,,,,,5,0,0,,,1,,,83,64
366364,note_on,,,,,35,0,0,,,4,,,62,127
366364,note_on,,,,,0,0,0,,,1,,,78,110
366365,note_on,,,,,1,0,0,,,4,,,57,127
366367,note_off,,,,,2,0,0,,,4,,,64,64
366367,note_off,,,,,0,0,0,,,4,,,55,64
366370,note_off,,,,,3,0,0,,,1,,,79,64
366406,note_on,,,,,36,0,0,,,1,,,79,110
366412,note_off,,,,,6,0,0,,,1,,,78,64
366446,note_on,,,,,34,0,0,,,1,,,81,110
366454,note_off,,,,,8,0,0,,,1,,,79,64
366489,note_on,,,,,35,0,0,,,1,,,78,110
366494,note_off,,,,,5,0,0,,,1,,,81,64
366523,note_off,,,,,29,0,0,,,4,,,57,64
366531,note_off,,,,,8,0,0,,,4,,,62,64
366531,note_on,,,,,0,0,0,,,2,,,76,113
366532,note_on,,,,,1,0,0,,,4,,,61,127
366532,note_on,,,,,0,0,0,,,4,,,57,127
366537,note_off,,,,,5,0,0,,,1,,,78,64
366571,note_on,,,,,34,0,0,,,1,,,78,110
366579,note_off,,,,,8,0,0,,,2,,,76,64
366613,note_on,,,,,34,0,0,,,1,,,79,110
366621,note_off,,,,,8,0,0,,,1,,,78,64
366656,note_on,,,,,35,0,0,,,2,,,76,113
366663,note_off,,,,,7,0,0,,,1,,,79,64
366698,note_off,,,,,35,0,0,,,4,,,57,64
366698,note_off,,,,,0,0,0,,,4,,,61,64
366699,note_on,,,,,1,0,0,,,2,,,74,113
366699,note_on,,,,,0,0,0,,,4,,,50,127
366711,note_off,,,,,12,0,0,,,2,,,76,64
366757,note_on,,,,,46,0,0,,,4,,,62,127
366765,note_off,,,,,8,0,0,,,4,,,50,64
366805,note_on,,,,,40,0,0,,,4,,,57,127
366813,note_off,,,,,8,0,0,,,4,,,62,64
366867,note_on,,,,,54,0,0,,,4,,,54,127
366876,note_off,,,,,9,0,0,,,4,,,57,64
366925,note_on,,,,,49,0,0,,,4,,,50,127
366932,note_off,,,,,7,0,0,,,4,,,54,64
367296,note_off,,,,,364,0,0,,,2,,,74,64
367522,note_off,,,,,226,0,0,,,4,,,50,64
367522,note_on,,,,,0,0,0,,,4,,,33,127
367704,note_on,,,,,182,0,0,,,2,,,69,118
367812,note_off,,,,,108,0,0,,,4,,,33,64
367873,note_off,,,,,61,0,0,,,2,,,69,64
367874,note_on,,,,,1,0,0,,,4,,,50,127
367874,note_on,,,,,0,0,0,,,4,,,66,127
367895,note_on,,,,,21,0,0,,,2,,,69,118
367920,note_on,,,,,25,0,0,,,2,,,74,117
367959,note_on,,,,,39,0,0,,,4,,,54,127
367965,note_off,,,,,6,0,0,,,4,,,50,64
368001,note_on,,,,,36,0,0,,,4,,,57,127
368009,note_off,,,,,8,0,0,,,4,,,54,64
368045,note_on,,,,,36,0,0,,,4,,,62,127
368051,note_off,,,,,6,0,0,,,4,,,57,64
368088,note_off,,,,,37,0,0,,,4,,,66,64
368088,note_on,,,,,0,0,0,,,4,,,61,127
368096,note_off,,,,,8,0,0,,,4,,,62,64
368098,note_off,,,,,2,0,0,,,2,,,69,64
368131,note_on,,,,,33,0,0,,,4,,,62,127
368138,note_off,,,,,7,0,0,,,4,,,61,64
368176,note_on,,,,,38,0,0,,,4,,,61,127
368182,note_off,,,,,6,0,0,,,4,,,62,64
368218,note_on,,,,,36,0,0,,,4,,,62,127
368225,note_off,,,,,7,0,0,,,4,,,61,64
368248,note_off,,,,,23,0,0,,,2,,,74,64
368259,note_on,,,,,11,0,0,,,1,,,78,114
368260,note_on,,,,,1,0,0,,,2,,,74,117
368260,note_on,,,,,0,0,0,,,4,,,47,127
368303,note_on,,,,,43,0,0,,,4,,,50,127
368308,note_off,,,,,5,0,0,,,4,,,47,64
368312,note_off,,,,,4,0,0,,,4,,,62,64
368345,note_on,,,,,33,0,0,,,4,,,54,127
368351,note_off,,,,,6,0,0,,,4,,,50,64
368387,note_on,,,,,36,0,0,,,4,,,59,127
368395,note_off,,,,,8,0,0,,,4,,,54,64
368424,note_off,,,,,29,0,0,,,1,,,78,64
368424,note_off,,,,,0,0,0,,,2,,,74,64
368432,note_on,,,,,8,0,0,,,2,,,74,117
368433,note_on,,,,,1,0,0,,,4,,,66,127
368433,note_on,,,,,0,0,0,,,4,,,58,127
368439,note_off,,,,,6,0,0,,,4,,,59,64
368475,note_on,,,,,36,0,0,,,4,,,59,127
368483,note_off,,,,,8,0,0,,,4,,,58,64
368520,note_on,,,,,37,0,0,,,4,,,58,127
368527,note_off,,,,,7,0,0,,,4,,,59,64
368562,note_on,,,,,35,0,0,,,4,,,59,127
368569,note_off,,,,,7,0,0,,,4,,,58,64
368598,note_off,,,,,29,0,0,,,4,,,66,64
368599,note_off,,,,,1,0,0,,,2,,,74,64
368605,note_on,,,,,6,0,0,,,2,,,71,116
368605,note_on,,,,,0,0,0,,,1,,,79,114
368606,note_on,,,,,1,0,0,,,4,,,43,127
368646,note_on,,,,,40,0,0,,,4,,,47,127
368654,note_off,,,,,8,0,0,,,4,,,43,64
368656,note_off,,,,,2,0,0,,,4,,,59,64
368688,note_on,,,,,32,0,0,,,4,,,52,127
368696,note_off,,,,,8,0,0,,,4,,,47,64
368731,note_on,,,,,35,0,0,,,4,,,55,127
368738,note_off,,,,,7,0,0,,,4,,,52,64
368767,note_off,,,,,29,0,0,,,2,,,71,64
368768,note_off,,,,,1,0,0,,,1,,,79,64
368776,note_on,,,,,8,0,0,,,4,,,54,127
368782,note_off,,,,,6,0,0,,,4,,,55,64
368816,note_on,,,,,34,0,0,,,4,,,55,127
368824,note_off,,,,,8,0,0,,,4,,,54,64
368861,note_on,,,,,37,0,0,,,2,,,76,117
368862,note_on,,,,,1,0,0,,,4,,,54,127
368868,note_off,,,,,6,0,0,,,4,,,55,64
368903,note_on,,,,,35,0,0,,,4,,,55,127
368910,note_off,,,,,7,0,0,,,4,,,54,64
368945,note_on,,,,,35,0,0,,,2,,,73,117
368945,note_on,,,,,0,0,0,,,4,,,45,127
368948,note_off,,,,,3,0,0,,,2,,,76,64
368986,note_on,,,,,38,0,0,,,4,,,49,127
368994,note_off,,,,,8,0,0,,,4,,,45,64
368996,note_off,,,,,2,0,0,,,4,,,55,64
369028,note_on,,,,,32,0,0,,,4,,,52,127
369036,note_off,,,,,8,0,0,,,4,,,49,64
369072,note_on,,,,,36,0,0,,,4,,,57,127
369078,note_off,,,,,6,0,0,,,4,,,52,64
369109,note_off,,,,,31,0,0,,,2,,,73,64
369115,note_on,,,,,6,0,0,,,2,,,69,118
369116,note_on,,,,,1,0,0,,,4,,,56,127
369123,note_off,,,,,7,0,0,,,4,,,57,64
369158,note_on,,,,,35,0,0,,,4,,,57,127
369166,note_off,,,,,8,0,0,,,4,,,56,64
369202,note_on,,,,,36,0,0,,,4,,,56,127
369208,note_off,,,,,6,0,0,,,4,,,57,64
369244,note_on,,,,,36,0,0,,,4,,,57,127
369250,note_off,,,,,6,0,0,,,4,,,56,64
369287,note_on,,,,,37,0,0,,,1,,,81,114
369287,note_on,,,,,0,0,0,,,4,,,54,127
369293,note_off,,,,,6,0,0,,,4,,,57,64
369314,note_off,,,,,21,0,0,,,2,,,69,64
369328,note_on,,,,,14,0,0,,,4,,,57,127
369328,note_on,,,,,0,0,0,,,1,,,78,114
369336,note_off,,,,,8,0,0,,,4,,,54,64
369337,note_off,,,,,1,0,0,,,1,,,81,64
369372,note_on,,,,,35,0,0,,,2,,,74,117
369372,note_on,,,,,0,0,0,,,4,,,62,127
369379,note_off,,,,,7,0,0,,,1,,,78,64
369379,note_off,,,,,0,0,0,,,4,,,57,64
369414,note_on,,,,,35,0,0,,,2,,,69,118
369415,note_on,,,,,1,0,0,,,4,,,66,127
369421,note_off,,,,,6,0,0,,,4,,,62,64
369421,note_off,,,,,0,0,0,,,2,,,74,64
369456,note_on,,,,,35,0,0,,,2,,,68,120
369457,note_on,,,,,1,0,0,,,4,,,65,127
369463,note_off,,,,,6,0,0,,,4,,,66,64
369464,note_off,,,,,1,0,0,,,2,,,69,64
369499,note_on,,,,,35,0,0,,,2,,,69,118
369499,note_on,,,,,0,0,0,,,4,,,66,127
369505,note_off,,,,,6,0,0,,,4,,,65,64
369506,note_off,,,,,1,0,0,,,2,,,68,64
369543,note_on,,,,,37,0,0,,,2,,,68,120
369543,note_on,,,,,0,0,0,,,4,,,65,127
369550,note_off,,,,,7,0,0,,,4,,,66,64
369550,note_off,,,,,0,0,0,,,2,,,69,64
369586,note_on,,,,,36,0,0,,,4,,,66,127
369586,note_on,,,,,0,0,0,,,2,,,69,118
369592,note_off,,,,,6,0,0,,,4,,,65,64
369592,note_off,,,,,0,0,0,,,2,,,68,64
369627,note_on,,,,,35,0,0,,,1,,,83,114
369628,note_on,,,,,1,0,0,,,4,,,55,127
369671,note_on,,,,,43,0,0,,,1,,,79,114
369672,note_on,,,,,1,0,0,,,4,,,59,127
369677,note_off,,,,,5,0,0,,,4,,,55,64
369678,note_off,,,,,1,0,0,,,1,,,83,64
369678,note_off,,,,,0,0,0,,,4,,,66,64
369679,note_off,,,,,1,0,0,,,2,,,69,64
369712,note_on,,,,,33,0,0,,,2,,,74,117
369712,note_on,,,,,0,0,0,,,4,,,62,127
369719,note_off,,,,,7,0,0,,,4,,,59,64
369719,note_off,,,,,0,0,0,,,1,,,79,64
369756,note_on,,,,,37,0,0,,,2,,,71,116
369756,note_on,,,,,0,0,0,,,2,,,67,127
369762,note_off,,,,,6,0,0,,,4,,,62,64
369762,note_off,,,,,0,0,0,,,2,,,74,64
369799,note_on,,,,,37,0,0,,,2,,,70,118
369800,note_on,,,,,1,0,0,,,4,,,66,127
369806,note_off,,,,,6,0,0,,,2,,,67,64
369806,note_off,,,,,0,0,0,,,2,,,71,64
369841,note_on,,,,,35,0,0,,,2,,,71,116
369842,note_on,,,,,1,0,0,,,2,,,67,127
369849,note_off,,,,,7,0,0,,,2,,,70,64
369849,note_off,,,,,0,0,0,,,4,,,66,64
369886,note_on,,,,,37,0,0,,,2,,,70,118
369887,note_on,,,,,1,0,0,,,4,,,66,127
369892,note_off,,,,,5,0,0,,,2,,,67,64
369893,note_off,,,,,1,0,0,,,2,,,71,64
369928,note_on,,,,,35,0,0,,,2,,,71,116
369928,note_on,,,,,0,0,0,,,2,,,67,127
369935,note_off,,,,,7,0,0,,,4,,,66,64
369936,note_off,,,,,1,0,0,,,2,,,70,64
369972,note_on,,,,,36,0,0,,,2,,,74,117
369973,note_on,,,,,1,0,0,,,4,,,57,127
369973,note_on,,,,,0,0,0,,,4,,,66,127
369979,note_off,,,,,6,0,0,,,2,,,67,64
369979,note_off,,,,,0,0,0,,,2,,,71,64
370141,note_off,,,,,162,0,0,,,4,,,66,64
370142,note_on,,,,,1,0,0,,,4,,,64,126
370142,note_on,,,,,0,0,0,,,2,,,73,117
370146,note_off,,,,,4,0,0,,,2,,,74,64
370186,note_off,,,,,40,0,0,,,4,,,57,64
370304,note_on,,,,,118,0,0,,,4,,,33,127
370415,note_off,,,,,111,0,0,,,4,,,64,64
370416,note_off,,,,,1,0,0,,,2,,,73,64
370454,note_on,,,,,38,0,0,,,2,,,69,118
370564,note_off,,,,,110,0,0,,,4,,,33,64
370618,note_off,,,,,54,0,0,,,2,,,69,64
370624,note_on,,,,,6,0,0,,,4,,,66,127
370625,note_on,,,,,1,0,0,,,4,,,50,127
370643,note_on,,,,,18,0,0,,,2,,,69,118
370662,note_on,,,,,19,0,0,,,2,,,74,117
370692,note_on,,,,,30,0,0,,,4,,,54,127
370700,note_off,,,,,8,0,0,,,4,,,50,64
370737,note_on,,,,,37,0,0,,,4,,,57,127
370744,note_off,,,,,7,0,0,,,4,,,54,64
370779,note_on,,,,,35,0,0,,,4,,,62,127
370787,note_off,,,,,8,0,0,,,4,,,57,64
370825,note_on,,,,,38,0,0,,,4,,,61,127
370831,note_off,,,,,6,0,0,,,4,,,62,64
370865,note_on,,,,,34,0,0,,,4,,,62,127
370873,note_off,,,,,8,0,0,,,4,,,61,64
370909,note_on,,,,,36,0,0,,,4,,,61,127
370917,note_off,,,,,8,0,0,,,4,,,62,64
370952,note_on,,,,,35,0,0,,,4,,,62,127
370954,note_off,,,,,2,0,0,,,4,,,66,64
370959,note_off,,,,,5,0,0,,,4,,,61,64
370965,note_off,,,,,6,0,0,,,2,,,69,64
370977,note_off,,,,,12,0,0,,,2,,,74,64
370996,note_on,,,,,19,0,0,,,2,,,74,117
370996,note_on,,,,,0,0,0,,,1,,,78,114
370997,note_on,,,,,1,0,0,,,4,,,47,127
371037,note_on,,,,,40,0,0,,,4,,,50,127
371045,note_off,,,,,8,0,0,,,4,,,47,64
371047,note_off,,,,,2,0,0,,,4,,,62,64
371079,note_on,,,,,32,0,0,,,4,,,54,127
371087,note_off,,,,,8,0,0,,,4,,,50,64
371122,note_on,,,,,35,0,0,,,4,,,59,127
371129,note_off,,,,,7,0,0,,,4,,,54,64
371158,note_off,,,,,29,0,0,,,2,,,74,64
371159,note_off,,,,,1,0,0,,,1,,,78,64
371167,note_on,,,,,8,0,0,,,4,,,66,127
371167,note_on,,,,,0,0,0,,,2,,,74,117
371168,note_on,,,,,1,0,0,,,4,,,58,127
371173,note_off,,,,,5,0,0,,,4,,,59,64
371208,note_on,,,,,35,0,0,,,4,,,59,127
371216,note_off,,,,,8,0,0,,,4,,,58,64
371252,note_on,,,,,36,0,0,,,4,,,58,127
371260,note_off,,,,,8,0,0,,,4,,,59,64
371294,note_on,,,,,34,0,0,,,4,,,59,127
371302,note_off,,,,,8,0,0,,,4,,,58,64
371331,note_off,,,,,29,0,0,,,2,,,74,64
371331,note_off,,,,,0,0,0,,,4,,,66,64
371338,note_on,,,,,7,0,0,,,1,,,83,114
371338,note_on,,,,,0,0,0,,,1,,,86,114
371339,note_on,,,,,1,0,0,,,4,,,44,127
371380,note_on,,,,,41,0,0,,,4,,,47,127
371388,note_off,,,,,8,0,0,,,4,,,44,64
371388,note_off,,,,,0,0,0,,,4,,,59,64
371422,note_on,,,,,34,0,0,,,4,,,50,127
371428,note_off,,,,,6,0,0,,,4,,,47,64
371462,note_on,,,,,34,0,0,,,4,,,56,127
371470,note_off,,,,,8,0,0,,,4,,,50,64
371507,note_on,,,,,37,0,0,,,4,,,55,127
371515,note_off,,,,,8,0,0,,,4,,,56,64
371548,note_on,,,,,33,0,0,,,4,,,56,127
371556,note_off,,,,,8,0,0,,,4,,,55,64
371561,note_off,,,,,5,0,0,,,1,,,83,64
371562,note_off,,,,,1,0,0,,,1,,,86,64
371593,note_on,,,,,31,0,0,,,1,,,83,114
371594,note_on,,,,,1,0,0,,,1,,,80,114
371594,note_on,,,,,0,0,0,,,4,,,55,127
371599,note_off,,,,,5,0,0,,,4,,,56,64
371635,note_on,,,,,36,0,0,,,4,,,56,127
371641,note_off,,,,,6,0,0,,,4,,,55,64
371656,note_off,,,,,15,0,0,,,1,,,80,64
371656,note_off,,,,,0,0,0,,,1,,,83,64
371678,note_on,,,,,22,0,0,,,1,,,80,114
371679,note_on,,,,,1,0,0,,,2,,,71,116
371679,note_on,,,,,0,0,0,,,2,,,74,117
371680,note_on,,,,,1,0,0,,,4,,,40,127
371721,note_on,,,,,41,0,0,,,4,,,44,127
371728,note_off,,,,,7,0,0,,,4,,,40,64
371730,note_off,,,,,2,0,0,,,4,,,56,64
371763,note_on,,,,,33,0,0,,,4,,,47,127
371771,note_off,,,,,8,0,0,,,4,,,44,64
371807,note_on,,,,,36,0,0,,,4,,,52,127
371813,note_off,,,,,6,0,0,,,4,,,47,64
371842,note_off,,,,,29,0,0,,,2,,,74,64
371842,note_off,,,,,0,0,0,,,2,,,71,64
371843,note_off,,,,,1,0,0,,,1,,,80,64
371850,note_on,,,,,7,0,0,,,2,,,74,117
371851,note_on,,,,,1,0,0,,,2,,,68,120
371851,note_on,,,,,0,0,0,,,2,,,71,116
371852,note_on,,,,,1,0,0,,,4,,,51,127
371858,note_off,,,,,6,0,0,,,4,,,52,64
371893,note_on,,,,,35,0,0,,,4,,,52,127
371900,note_off,,,,,7,0,0,,,4,,,51,64
371937,note_on,,,,,37,0,0,,,4,,,51,127
371943,note_off,,,,,6,0,0,,,4,,,52,64
371980,note_on,,,,,37,0,0,,,4,,,52,127
371988,note_off,,,,,8,0,0,,,4,,,51,64
372017,note_off,,,,,29,0,0,,,2,,,74,64
372017,note_off,,,,,0,0,0,,,2,,,71,64
372017,note_off,,,,,0,0,0,,,2,,,68,64
372024,note_on,,,,,7,0,0,,,2,,,76,117
372024,note_on,,,,,0,0,0,,,4,,,49,127
372030,note_off,,,,,6,0,0,,,4,,,52,64
372064,note_on,,,,,34,0,0,,,2,,,73,117
372065,note_on,,,,,1,0,0,,,4,,,52,127
372071,note_off,,,,,6,0,0,,,4,,,49,64
372072,note_off,,,,,1,0,0,,,2,,,76,64
372105,note_on,,,,,33,0,0,,,2,,,69,114
372105,note_on,,,,,0,0,0,,,4,,,57,127
372112,note_off,,,,,7,0,0,,,4,,,52,64
372112,note_off,,,,,0,0,0,,,2,,,73,64
372147,note_on,,,,,35,0,0,,,4,,,64,122
372148,note_on,,,,,1,0,0,,,4,,,61,127
372154,note_off,,,,,6,0,0,,,4,,,57,64
372155,note_off,,,,,1,0,0,,,2,,,69,64
372190,note_on,,,,,35,0,0,,,4,,,63,127
372190,note_on,,,,,0,0,0,,,4,,,60,127
372198,note_off,,,,,8,0,0,,,4,,,61,64
372198,note_off,,,,,0,0,0,,,4,,,64,64
372232,note_on,,,,,34,0,0,,,4,,,61,127
372232,note_on,,,,,0,0,0,,,4,,,64,122
372239,note_off,,,,,7,0,0,,,4,,,60,64
372239,note_off,,,,,0,0,0,,,4,,,63,64
372276,note_on,,,,,37,0,0,,,4,,,63,127
372276,note_on,,,,,0,0,0,,,4,,,60,127
372282,note_off,,,,,6,0,0,,,4,,,61,64
372283,note_off,,,,,1,0,0,,,4,,,64,64
372316,note_on,,,,,33,0,0,,,4,,,64,122
372317,note_on,,,,,1,0,0,,,4,,,61,127
372323,note_off,,,,,6,0,0,,,4,,,60,64
372324,note_off,,,,,1,0,0,,,4,,,63,64
372360,note_on,,,,,36,0,0,,,1,,,78,114
372360,note_on,,,,,0,0,0,,,4,,,50,127
372402,note_on,,,,,42,0,0,,,2,,,74,117
372402,note_on,,,,,0,0,0,,,4,,,54,127
372408,note_off,,,,,6,0,0,,,4,,,50,64
372409,note_off,,,,,1,0,0,,,1,,,78,64
372411,note_off,,,,,2,0,0,,,4,,,61,64
372412,note_off,,,,,1,0,0,,,4,,,64,64
372445,note_on,,,,,33,0,0,,,4,,,57,127
372445,note_on,,,,,0,0,0,,,2,,,69,114
372452,note_off,,,,,7,0,0,,,4,,,54,64
372452,note_off,,,,,0,0,0,,,2,,,74,64
372485,note_on,,,,,33,0,0,,,4,,,66,124
372486,note_on,,,,,1,0,0,,,4,,,62,127
372492,note_off,,,,,6,0,0,,,2,,,69,64
372492,note_off,,,,,0,0,0,,,4,,,57,64
372526,note_on,,,,,34,0,0,,,2,,,74,117
372526,note_on,,,,,0,0,0,,,4,,,40,127
372532,note_off,,,,,6,0,0,,,4,,,62,64
372533,note_off,,,,,1,0,0,,,4,,,66,64
372570,note_on,,,,,37,0,0,,,2,,,71,112
372570,note_on,,,,,0,0,0,,,4,,,44,127
372576,note_off,,,,,6,0,0,,,4,,,40,64
372577,note_off,,,,,1,0,0,,,2,,,74,64
372610,note_on,,,,,33,0,0,,,2,,,68,116
372611,note_on,,,,,1,0,0,,,4,,,47,127
372617,note_off,,,,,6,0,0,,,4,,,44,64
372617,note_off,,,,,0,0,0,,,2,,,71,64
372650,note_on,,,,,33,0,0,,,4,,,64,126
372651,note_on,,,,,1,0,0,,,4,,,52,127
372659,note_off,,,,,8,0,0,,,4,,,47,64
372660,note_off,,,,,1,0,0,,,2,,,68,64
372686,note_off,,,,,26,0,0,,,4,,,64,64
372695,note_on,,,,,9,0,0,,,4,,,45,127
372695,note_on,,,,,0,0,0,,,4,,,61,127
372709,note_off,,,,,14,0,0,,,4,,,52,64
372712,note_on,,,,,3,0,0,,,4,,,64,126
372726,note_on,,,,,14,0,0,,,2,,,69,118
372886,note_off,,,,,160,0,0,,,4,,,61,64
372886,note_off,,,,,0,0,0,,,4,,,45,64
372887,note_on,,,,,1,0,0,,,4,,,57,127
372897,note_off,,,,,10,0,0,,,4,,,64,64
372909,note_off,,,,,12,0,0,,,2,,,69,64
373062,note_on,,,,,153,0,0,,,4,,,33,127
373179,note_off,,,,,117,0,0,,,4,,,57,64
373210,note_on,,,,,31,0,0,,,2,,,69,118
373320,note_off,,,,,110,0,0,,,4,,,33,64
373373,note_off,,,,,53,0,0,,,2,,,69,64
373381,note_on,,,,,8,0,0,,,4,,,66,127
373381,note_on,,,,,0,0,0,,,4,,,50,127
373403,note_on,,,,,22,0,0,,,2,,,69,118
373430,note_on,,,,,27,0,0,,,2,,,74,117
373463,note_on,,,,,33,0,0,,,4,,,54,127
373470,note_off,,,,,7,0,0,,,4,,,50,64
373505,note_on,,,,,35,0,0,,,4,,,57,127
373511,note_off,,,,,6,0,0,,,4,,,54,64
373546,note_on,,,,,35,0,0,,,4,,,62,127
373552,note_off,,,,,6,0,0,,,4,,,57,64
373590,note_on,,,,,38,0,0,,,4,,,61,127
373596,note_off,,,,,6,0,0,,,4,,,62,64
373631,note_on,,,,,35,0,0,,,4,,,62,127
373638,note_off,,,,,7,0,0,,,4,,,61,64
373675,note_on,,,,,37,0,0,,,4,,,61,127
373682,note_off,,,,,7,0,0,,,4,,,62,64
373717,note_off,,,,,35,0,0,,,4,,,66,64
373717,note_on,,,,,0,0,0,,,4,,,62,127
373724,note_off,,,,,7,0,0,,,4,,,61,64
373726,note_off,,,,,2,0,0,,,2,,,69,64
373739,note_off,,,,,13,0,0,,,2,,,74,64
373760,note_on,,,,,21,0,0,,,1,,,78,114
373761,note_on,,,,,1,0,0,,,2,,,74,117
373761,note_on,,,,,0,0,0,,,4,,,47,127
373803,note_on,,,,,42,0,0,,,4,,,50,127
373810,note_off,,,,,7,0,0,,,4,,,47,64
373812,note_off,,,,,2,0,0,,,4,,,62,64
373845,note_on,,,,,33,0,0,,,4,,,54,127
373852,note_off,,,,,7,0,0,,,4,,,50,64
373889,note_on,,,,,37,0,0,,,4,,,59,127
373896,note_off,,,,,7,0,0,,,4,,,54,64
373927,note_off,,,,,31,0,0,,,2,,,74,64
373928,note_off,,,,,1,0,0,,,1,,,78,64
373934,note_on,,,,,6,0,0,,,2,,,74,117
373934,note_on,,,,,0,0,0,,,4,,,66,127
373935,note_on,,,,,1,0,0,,,4,,,58,127
373941,note_off,,,,,6,0,0,,,4,,,59,64
373976,note_on,,,,,35,0,0,,,4,,,59,127
373984,note_off,,,,,8,0,0,,,4,,,58,64
374018,note_on,,,,,34,0,0,,,4,,,58,127
374026,note_off,,,,,8,0,0,,,4,,,59,64
374061,note_on,,,,,35,0,0,,,4,,,59,127
374068,note_off,,,,,7,0,0,,,4,,,58,64
374097,note_off,,,,,29,0,0,,,4,,,66,64
374098,note_off,,,,,1,0,0,,,2,,,74,64
374106,note_on,,,,,8,0,0,,,2,,,71,116
374106,note_on,,,,,0,0,0,,,1,,,79,114
374107,note_on,,,,,1,0,0,,,4,,,43,127
374148,note_on,,,,,41,0,0,,,4,,,47,127
374154,note_off,,,,,6,0,0,,,4,,,43,64
374158,note_off,,,,,4,0,0,,,4,,,59,64
374190,note_on,,,,,32,0,0,,,4,,,52,127
374196,note_off,,,,,6,0,0,,,4,,,47,64
374231,note_on,,,,,35,0,0,,,4,,,55,127
374238,note_off,,,,,7,0,0,,,4,,,52,64
374277,note_on,,,,,39,0,0,,,4,,,54,127
374282,note_off,,,,,5,0,0,,,4,,,55,64
374317,note_on,,,,,35,0,0,,,4,,,55,127
374325,note_off,,,,,8,0,0,,,4,,,54,64
374355,note_off,,,,,30,0,0,,,2,,,71,64
374356,note_off,,,,,1,0,0,,,1,,,79,64
374362,note_on,,,,,6,0,0,,,2,,,76,117
374363,note_on,,,,,1,0,0,,,4,,,54,127
374369,note_off,,,,,6,0,0,,,4,,,55,64
374403,note_on,,,,,34,0,0,,,4,,,55,127
374411,note_off,,,,,8,0,0,,,4,,,54,64
374448,note_on,,,,,37,0,0,,,2,,,73,117
374448,note_on,,,,,0,0,0,,,4,,,45,127
374450,note_off,,,,,2,0,0,,,2,,,76,64
374489,note_on,,,,,39,0,0,,,4,,,49,127
374495,note_off,,,,,6,0,0,,,4,,,45,64
374497,note_off,,,,,2,0,0,,,4,,,55,64
374531,note_on,,,,,34,0,0,,,4,,,52,127
374538,note_off,,,,,7,0,0,,,4,,,49,64
374573,note_on,,,,,35,0,0,,,4,,,57,127
374580,note_off,,,,,7,0,0,,,4,,,52,64
374611,note_off,,,,,31,0,0,,,2,,,73,64
374619,note_on,,,,,8,0,0,,,4,,,56,127
374619,note_on,,,,,0,0,0,,,2,,,69,118
374625,note_off,,,,,6,0,0,,,4,,,57,64
374660,note_on,,,,,35,0,0,,,4,,,57,127
374668,note_off,,,,,8,0,0,,,4,,,56,64
374704,note_on,,,,,36,0,0,,,4,,,56,127
374712,note_off,,,,,8,0,0,,,4,,,57,64
374747,note_on,,,,,35,0,0,,,4,,,57,127
374754,note_off,,,,,7,0,0,,,4,,,56,64
374793,note_on,,,,,39,0,0,,,1,,,81,114
374793,note_on,,,,,0,0,0,,,4,,,54,127
374799,note_off,,,,,6,0,0,,,4,,,57,64
374820,note_off,,,,,21,0,0,,,2,,,69,64
374836,note_on,,,,,16,0,0,,,4,,,57,127
374836,note_on,,,,,0,0,0,,,1,,,78,114
374843,note_off,,,,,7,0,0,,,4,,,54,64
374843,note_off,,,,,0,0,0,,,1,,,81,64
374876,note_on,,,,,33,0,0,,,2,,,74,117
374877,note_on,,,,,1,0,0,,,4,,,62,127
374883,note_off,,,,,6,0,0,,,1,,,78,64
374883,note_off,,,,,0,0,0,,,4,,,57,64
374916,note_on,,,,,33,0,0,,,2,,,69,118
374917,note_on,,,,,1,0,0,,,4,,,66,127
374923,note_off,,,,,6,0,0,,,4,,,62,64
374924,note_off,,,,,1,0,0,,,2,,,74,64
374961,note_on,,,,,37,0,0,,,2,,,68,120
374961,note_on,,,,,0,0,0,,,4,,,65,127
374967,note_off,,,,,6,0,0,,,4,,,66,64
374968,note_off,,,,,1,0,0,,,2,,,69,64
375003,note_on,,,,,35,0,0,,,2,,,69,118
375003,note_on,,,,,0,0,0,,,4,,,66,127
375010,note_off,,,,,7,0,0,,,4,,,65,64
375010,note_off,,,,,0,0,0,,,2,,,68,64
375047,note_on,,,,,37,0,0,,,2,,,68,120
375048,note_on,,,,,1,0,0,,,4,,,65,127
375056,note_off,,,,,8,0,0,,,4,,,66,64
375056,note_off,,,,,0,0,0,,,2,,,69,64
375091,note_on,,,,,35,0,0,,,2,,,69,118
375092,note_on,,,,,1,0,0,,,4,,,66,127
375098,note_off,,,,,6,0,0,,,4,,,65,64
375098,note_off,,,,,0,0,0,,,2,,,68,64
375135,note_on,,,,,37,0,0,,,1,,,83,114
375136,note_on,,,,,1,0,0,,,4,,,55,127
375179,note_on,,,,,43,0,0,,,1,,,79,114
375179,note_on,,,,,0,0,0,,,4,,,59,127
375187,note_off,,,,,8,0,0,,,4,,,55,64
375188,note_off,,,,,1,0,0,,,1,,,83,64
375188,note_off,,,,,0,0,0,,,4,,,66,64
375189,note_off,,,,,1,0,0,,,2,,,69,64
375222,note_on,,,,,33,0,0,,,2,,,74,117
375222,note_on,,,,,0,0,0,,,4,,,62,127
375228,note_off,,,,,6,0,0,,,4,,,59,64
375229,note_off,,,,,1,0,0,,,1,,,79,64
375262,note_on,,,,,33,0,0,,,2,,,71,116
375263,note_on,,,,,1,0,0,,,2,,,67,127
375269,note_off,,,,,6,0,0,,,4,,,62,64
375269,note_off,,,,,0,0,0,,,2,,,74,64
375306,note_on,,,,,37,0,0,,,2,,,70,118
375307,note_on,,,,,1,0,0,,,4,,,66,127
375315,note_off,,,,,8,0,0,,,2,,,67,64
375315,note_off,,,,,0,0,0,,,2,,,71,64
375348,note_on,,,,,33,0,0,,,2,,,71,116
375349,note_on,,,,,1,0,0,,,2,,,67,127
375357,note_off,,,,,8,0,0,,,4,,,66,64
375358,note_off,,,,,1,0,0,,,2,,,70,64
375393,note_on,,,,,35,0,0,,,2,,,70,118
375393,note_on,,,,,0,0,0,,,4,,,66,127
375399,note_off,,,,,6,0,0,,,2,,,67,64
375400,note_off,,,,,1,0,0,,,2,,,71,64
375435,note_on,,,,,35,0,0,,,2,,,71,116
375435,note_on,,,,,0,0,0,,,2,,,67,127
375442,note_off,,,,,7,0,0,,,4,,,66,64
375442,note_off,,,,,0,0,0,,,2,,,70,64
375479,note_on,,,,,37,0,0,,,2,,,74,117
375480,note_on,,,,,1,0,0,,,4,,,57,127
375480,note_on,,,,,0,0,0,,,4,,,66,127
375485,note_off,,,,,5,0,0,,,2,,,67,64
375485,note_off,,,,,0,0,0,,,2,,,71,64
375638,note_off,,,,,153,0,0,,,4,,,66,64
375639,note_off,,,,,1,0,0,,,2,,,74,64
375647,note_on,,,,,8,0,0,,,2,,,73,117
375648,note_on,,,,,1,0,0,,,4,,,64,126
375817,note_on,,,,,169,0,0,,,4,,,33,127
375926,note_off,,,,,109,0,0,,,4,,,64,64
375927,note_off,,,,,1,0,0,,,2,,,73,64
375952,note_off,,,,,25,0,0,,,4,,,57,64
375964,note_on,,,,,12,0,0,,,2,,,69,118
376071,note_off,,,,,107,0,0,,,4,,,33,64
376121,note_off,,,,,50,0,0,,,2,,,69,64
376127,note_on,,,,,6,0,0,,,4,,,66,127
376128,note_on,,,,,1,0,0,,,4,,,50,127
376149,note_on,,,,,21,0,0,,,2,,,69,118
376168,note_on,,,,,19,0,0,,,2,,,74,117
376191,note_on,,,,,23,0,0,,,4,,,54,127
376197,note_off,,,,,6,0,0,,,4,,,50,64
376232,note_on,,,,,35,0,0,,,4,,,57,127
376239,note_off,,,,,7,0,0,,,4,,,54,64
376272,note_on,,,,,33,0,0,,,4,,,62,127
376280,note_off,,,,,8,0,0,,,4,,,57,64
376316,note_on,,,,,36,0,0,,,4,,,61,127
376324,note_off,,,,,8,0,0,,,4,,,62,64
376345,note_off,,,,,21,0,0,,,2,,,69,64
376349,note_off,,,,,4,0,0,,,4,,,66,64
376358,note_on,,,,,9,0,0,,,4,,,62,127
376364,note_off,,,,,6,0,0,,,4,,,61,64
376401,note_on,,,,,37,0,0,,,4,,,61,127
376408,note_off,,,,,7,0,0,,,4,,,62,64
376429,note_off,,,,,21,0,0,,,2,,,74,64
376443,note_on,,,,,14,0,0,,,4,,,62,127
376451,note_off,,,,,8,0,0,,,4,,,61,64
376485,note_on,,,,,34,0,0,,,1,,,78,114
376486,note_on,,,,,1,0,0,,,2,,,74,117
376486,note_on,,,,,0,0,0,,,4,,,47,127
376528,note_on,,,,,42,0,0,,,4,,,50,127
376536,note_off,,,,,8,0,0,,,4,,,47,64
376537,note_off,,,,,1,0,0,,,4,,,62,64
376571,note_on,,,,,34,0,0,,,4,,,54,127
376579,note_off,,,,,8,0,0,,,4,,,50,64
376612,note_on,,,,,33,0,0,,,4,,,59,127
376620,note_off,,,,,8,0,0,,,4,,,54,64
376650,note_off,,,,,30,0,0,,,2,,,74,64
376651,note_off,,,,,1,0,0,,,1,,,78,64
376657,note_on,,,,,6,0,0,,,2,,,74,117
376658,note_on,,,,,1,0,0,,,4,,,66,127
376658,note_on,,,,,0,0,0,,,4,,,58,127
376665,note_off,,,,,7,0,0,,,4,,,59,64
376700,note_on,,,,,35,0,0,,,4,,,59,127
376707,note_off,,,,,7,0,0,,,4,,,58,64
376743,note_on,,,,,36,0,0,,,4,,,58,127
376751,note_off,,,,,8,0,0,,,4,,,59,64
376786,note_on,,,,,35,0,0,,,4,,,59,127
376792,note_off,,,,,6,0,0,,,4,,,58,64
376821,note_off,,,,,29,0,0,,,2,,,74,64
376821,note_off,,,,,0,0,0,,,4,,,66,64
376827,note_on,,,,,6,0,0,,,1,,,86,114
376828,note_on,,,,,1,0,0,,,1,,,83,114
376828,note_on,,,,,0,0,0,,,4,,,44,127
376871,note_on,,,,,43,0,0,,,4,,,47,127
376877,note_off,,,,,6,0,0,,,4,,,44,64
376881,note_off,,,,,4,0,0,,,4,,,59,64
376916,note_on,,,,,35,0,0,,,4,,,50,127
376921,note_off,,,,,5,0,0,,,4,,,47,64
376957,note_on,,,,,36,0,0,,,4,,,56,127
376964,note_off,,,,,7,0,0,,,4,,,50,64
377001,note_on,,,,,37,0,0,,,4,,,55,127
377007,note_off,,,,,6,0,0,,,4,,,56,64
377041,note_on,,,,,34,0,0,,,4,,,56,127
377049,note_off,,,,,8,0,0,,,4,,,55,64
377055,note_off,,,,,6,0,0,,,1,,,86,64
377055,note_off,,,,,0,0,0,,,1,,,83,64
377087,note_on,,,,,32,0,0,,,1,,,83,114
377087,note_on,,,,,0,0,0,,,1,,,80,114
377088,note_on,,,,,1,0,0,,,4,,,55,127
377093,note_off,,,,,5,0,0,,,4,,,56,64
377130,note_on,,,,,37,0,0,,,4,,,56,127
377136,note_off,,,,,6,0,0,,,4,,,55,64
377151,note_off,,,,,15,0,0,,,1,,,80,64
377151,note_off,,,,,0,0,0,,,1,,,83,64
377171,note_on,,,,,20,0,0,,,1,,,80,114
377172,note_on,,,,,1,0,0,,,2,,,71,116
377172,note_on,,,,,0,0,0,,,2,,,74,117
377172,note_on,,,,,0,0,0,,,4,,,40,127
377213,note_on,,,,,41,0,0,,,4,,,44,127
377221,note_off,,,,,8,0,0,,,4,,,40,64
377223,note_off,,,,,2,0,0,,,4,,,56,64
377256,note_on,,,,,33,0,0,,,4,,,47,127
377263,note_off,,,,,7,0,0,,,4,,,44,64
377300,note_on,,,,,37,0,0,,,4,,,52,127
377305,note_off,,,,,5,0,0,,,4,,,47,64
377338,note_off,,,,,33,0,0,,,2,,,71,64
377339,note_off,,,,,1,0,0,,,1,,,80,64
377339,note_off,,,,,0,0,0,,,2,,,74,64
377345,note_on,,,,,6,0,0,,,2,,,74,117
377345,note_on,,,,,0,0,0,,,2,,,71,116
377346,note_on,,,,,1,0,0,,,2,,,68,120
377346,note_on,,,,,0,0,0,,,4,,,51,127
377352,note_off,,,,,6,0,0,,,4,,,52,64
377389,note_on,,,,,37,0,0,,,4,,,52,127
377397,note_off,,,,,8,0,0,,,4,,,51,64
377435,note_on,,,,,38,0,0,,,4,,,51,127
377443,note_off,,,,,8,0,0,,,4,,,52,64
377477,note_on,,,,,34,0,0,,,4,,,52,127
377485,note_off,,,,,8,0,0,,,4,,,51,64
377514,note_off,,,,,29,0,0,,,2,,,68,64
377514,note_off,,,,,0,0,0,,,2,,,71,64
377515,note_off,,,,,1,0,0,,,2,,,74,64
377520,note_on,,,,,5,0,0,,,2,,,76,117
377521,note_on,,,,,1,0,0,,,4,,,49,127
377529,note_off,,,,,8,0,0,,,4,,,52,64
377562,note_on,,,,,33,0,0,,,2,,,73,117
377562,note_on,,,,,0,0,0,,,4,,,52,127
377570,note_off,,,,,8,0,0,,,4,,,49,64
377571,note_off,,,,,1,0,0,,,2,,,76,64
377604,note_on,,,,,33,0,0,,,2,,,69,114
377604,note_on,,,,,0,0,0,,,4,,,57,127
377613,note_off,,,,,9,0,0,,,4,,,52,64
377613,note_off,,,,,0,0,0,,,2,,,73,64
377648,note_on,,,,,35,0,0,,,4,,,64,122
377649,note_on,,,,,1,0,0,,,4,,,61,127
377655,note_off,,,,,6,0,0,,,4,,,57,64
377655,note_off,,,,,0,0,0,,,2,,,69,64
377692,note_on,,,,,37,0,0,,,4,,,63,127
377693,note_on,,,,,1,0,0,,,4,,,60,127
377699,note_off,,,,,6,0,0,,,4,,,61,64
377700,note_off,,,,,1,0,0,,,4,,,64,64
377735,note_on,,,,,35,0,0,,,4,,,61,127
377735,note_on,,,,,0,0,0,,,4,,,64,122
377741,note_off,,,,,6,0,0,,,4,,,60,64
377742,note_off,,,,,1,0,0,,,4,,,63,64
377779,note_on,,,,,37,0,0,,,4,,,63,127
377779,note_on,,,,,0,0,0,,,4,,,60,127
377785,note_off,,,,,6,0,0,,,4,,,61,64
377786,note_off,,,,,1,0,0,,,4,,,64,64
377821,note_on,,,,,35,0,0,,,4,,,64,122
377821,note_on,,,,,0,0,0,,,4,,,61,127
377828,note_off,,,,,7,0,0,,,4,,,60,64
377828,note_off,,,,,0,0,0,,,4,,,63,64
377865,note_on,,,,,37,0,0,,,1,,,78,114
377866,note_on,,,,,1,0,0,,,4,,,50,127
377906,note_on,,,,,40,0,0,,,2,,,74,117
377907,note_on,,,,,1,0,0,,,4,,,54,127
377913,note_off,,,,,6,0,0,,,4,,,50,64
377914,note_off,,,,,1,0,0,,,1,,,78,64
377916,note_off,,,,,2,0,0,,,4,,,61,64
377916,note_off,,,,,0,0,0,,,4,,,64,64
377950,note_on,,,,,34,0,0,,,2,,,69,114
377950,note_on,,,,,0,0,0,,,4,,,57,127
377956,note_off,,,,,6,0,0,,,4,,,54,64
377957,note_off,,,,,1,0,0,,,2,,,74,64
377992,note_on,,,,,35,0,0,,,4,,,62,127
377992,note_on,,,,,0,0,0,,,4,,,66,124
377999,note_off,,,,,7,0,0,,,4,,,57,64
377999,note_off,,,,,0,0,0,,,2,,,69,64
378032,note_on,,,,,33,0,0,,,2,,,74,117
378033,note_on,,,,,1,0,0,,,4,,,40,127
378039,note_off,,,,,6,0,0,,,4,,,66,64
378039,note_off,,,,,0,0,0,,,4,,,62,64
378076,note_on,,,,,37,0,0,,,2,,,71,112
378077,note_on,,,,,1,0,0,,,4,,,44,127
378083,note_off,,,,,6,0,0,,,4,,,40,64
378084,note_off,,,,,1,0,0,,,2,,,74,64
378117,note_on,,,,,33,0,0,,,2,,,68,120
378117,note_on,,,,,0,0,0,,,4,,,47,127
378123,note_off,,,,,6,0,0,,,4,,,44,64
378124,note_off,,,,,1,0,0,,,2,,,71,64
378159,note_on,,,,,35,0,0,,,4,,,64,126
378159,note_on,,,,,0,0,0,,,4,,,52,127
378166,note_off,,,,,7,0,0,,,4,,,47,64
378166,note_off,,,,,0,0,0,,,2,,,68,64
378193,note_off,,,,,27,0,0,,,4,,,64,64
378201,note_on,,,,,8,0,0,,,4,,,61,127
378202,note_on,,,,,1,0,0,,,4,,,45,127
378216,note_off,,,,,14,0,0,,,4,,,52,64
378223,note_on,,,,,7,0,0,,,4,,,64,126
378239,note_on,,,,,16,0,0,,,2,,,69,118
378392,note_off,,,,,153,0,0,,,4,,,45,64
378393,note_off,,,,,1,0,0,,,4,,,61,64
378401,note_on,,,,,8,0,0,,,4,,,57,127
378403,note_off,,,,,2,0,0,,,4,,,64,64
378414,note_off,,,,,11,0,0,,,2,,,69,64
378577,note_off,,,,,163,0,0,,,4,,,57,64
378578,note_on,,,,,1,0,0,,,4,,,33,127
378732,note_on,,,,,154,0,0,,,1,,,81,110
378732,note_on,,,,,0,0,0,,,2,,,72,113
378733,note_on,,,,,1,0,0,,,2,,,69,118
378777,note_on,,,,,44,0,0,,,2,,,67,127
378785,note_off,,,,,8,0,0,,,2,,,69,64
378821,note_on,,,,,36,0,0,,,4,,,66,127
378829,note_off,,,,,8,0,0,,,2,,,67,64
378851,note_off,,,,,22,0,0,,,4,,,33,64
378865,note_on,,,,,14,0,0,,,4,,,64,126
378873,note_off,,,,,8,0,0,,,4,,,66,64
378912,note_on,,,,,39,0,0,,,2,,,71,112
378912,note_on,,,,,0,0,0,,,4,,,63,127
378914,note_off,,,,,2,0,0,,,2,,,72,64
378918,note_off,,,,,4,0,0,,,4,,,64,64
378955,note_on,,,,,37,0,0,,,4,,,61,127
378962,note_off,,,,,7,0,0,,,4,,,63,64
378999,note_on,,,,,37,0,0,,,4,,,63,127
379007,note_off,,,,,8,0,0,,,4,,,61,64
379045,note_on,,,,,38,0,0,,,4,,,59,127
379053,note_off,,,,,8,0,0,,,4,,,63,64
379082,note_off,,,,,29,0,0,,,1,,,81,64
379089,note_on,,,,,7,0,0,,,1,,,79,110
379089,note_on,,,,,0,0,0,,,4,,,64,126
379095,note_off,,,,,6,0,0,,,4,,,59,64
379129,note_on,,,,,34,0,0,,,4,,,66,127
379137,note_off,,,,,8,0,0,,,4,,,64,64
379172,note_on,,,,,35,0,0,,,2,,,67,127
379180,note_off,,,,,8,0,0,,,4,,,66,64
379218,note_on,,,,,38,0,0,,,4,,,64,126
379226,note_off,,,,,8,0,0,,,2,,,67,64
379235,note_off,,,,,9,0,0,,,2,,,71,64
379260,note_on,,,,,25,0,0,,,2,,,69,118
379260,note_on,,,,,0,0,0,,,4,,,61,127
379267,note_off,,,,,7,0,0,,,4,,,64,64
379304,note_on,,,,,37,0,0,,,4,,,59,127
379309,note_off,,,,,5,0,0,,,4,,,61,64
379345,note_on,,,,,36,0,0,,,4,,,61,127
379352,note_off,,,,,7,0,0,,,4,,,59,64
379391,note_on,,,,,39,0,0,,,4,,,57,127
379399,note_off,,,,,8,0,0,,,4,,,61,64
379433,note_on,,,,,34,0,0,,,1,,,78,110
379434,note_on,,,,,1,0,0,,,4,,,62,127
379436,note_off,,,,,2,0,0,,,1,,,79,64
379440,note_off,,,,,4,0,0,,,4,,,57,64
379476,note_on,,,,,36,0,0,,,4,,,64,126
379482,note_off,,,,,6,0,0,,,4,,,62,64
379519,note_on,,,,,37,0,0,,,4,,,66,127
379524,note_off,,,,,5,0,0,,,4,,,64,64
379563,note_on,,,,,39,0,0,,,4,,,62,127
379571,note_off,,,,,8,0,0,,,4,,,66,64
379571,note_off,,,,,0,0,0,,,2,,,69,64
379604,note_off,,,,,33,0,0,,,1,,,78,64
379605,note_on,,,,,1,0,0,,,1,,,86,109
379605,note_on,,,,,0,0,0,,,2,,,71,107
379613,note_off,,,,,8,0,0,,,4,,,62,64
379651,note_on,,,,,38,0,0,,,2,,,70,113
379659,note_off,,,,,8,0,0,,,2,,,71,64
379693,note_on,,,,,34,0,0,,,2,,,71,107
379701,note_off,,,,,8,0,0,,,2,,,70,64
379740,note_off,,,,,39,0,0,,,1,,,86,64
379740,note_on,,,,,0,0,0,,,1,,,82,105
379740,note_on,,,,,0,0,0,,,4,,,66,127
379746,note_off,,,,,6,0,0,,,2,,,71,64
379783,note_on,,,,,37,0,0,,,1,,,83,105
379783,note_on,,,,,0,0,0,,,2,,,67,123
379789,note_off,,,,,6,0,0,,,4,,,66,64
379790,note_off,,,,,1,0,0,,,1,,,82,64
379827,note_on,,,,,37,0,0,,,4,,,66,127
379835,note_off,,,,,8,0,0,,,2,,,67,64
379871,note_on,,,,,36,0,0,,,2,,,67,123
379879,note_off,,,,,8,0,0,,,4,,,66,64
379915,note_off,,,,,36,0,0,,,1,,,83,64
379916,note_on,,,,,1,0,0,,,4,,,62,127
379916,note_on,,,,,0,0,0,,,1,,,78,105
379923,note_off,,,,,7,0,0,,,2,,,67,64
379959,note_on,,,,,36,0,0,,,1,,,79,105
379960,note_on,,,,,1,0,0,,,4,,,64,126
379968,note_off,,,,,8,0,0,,,1,,,78,64
379968,note_off,,,,,0,0,0,,,4,,,62,64
380005,note_on,,,,,37,0,0,,,4,,,62,127
380013,note_off,,,,,8,0,0,,,4,,,64,64
380050,note_on,,,,,37,0,0,,,4,,,64,126
380057,note_off,,,,,7,0,0,,,4,,,62,64
380094,note_off,,,,,37,0,0,,,1,,,79,64
380094,note_on,,,,,0,0,0,,,2,,,74,108
380095,note_on,,,,,1,0,0,,,4,,,59,127
380102,note_off,,,,,7,0,0,,,4,,,64,64
380139,note_on,,,,,37,0,0,,,4,,,61,127
380139,note_on,,,,,0,0,0,,,2,,,76,108
380146,note_off,,,,,7,0,0,,,4,,,59,64
380146,note_off,,,,,0,0,0,,,2,,,74,64
380183,note_on,,,,,37,0,0,,,4,,,59,127
380191,note_off,,,,,8,0,0,,,4,,,61,64
380227,note_on,,,,,36,0,0,,,4,,,61,127
380235,note_off,,,,,8,0,0,,,4,,,59,64
380273,note_off,,,,,38,0,0,,,2,,,76,64
380274,note_on,,,,,1,0,0,,,2,,,71,112
380274,note_on,,,,,0,0,0,,,4,,,56,127
380280,note_off,,,,,6,0,0,,,4,,,61,64
380316,note_on,,,,,36,0,0,,,2,,,73,108
380317,note_on,,,,,1,0,0,,,4,,,57,127
380319,note_off,,,,,2,0,0,,,2,,,71,64
380325,note_off,,,,,6,0,0,,,4,,,56,64
380362,note_on,,,,,37,0,0,,,4,,,55,127
380369,note_off,,,,,7,0,0,,,4,,,57,64
380404,note_on,,,,,35,0,0,,,4,,,54,127
380412,note_off,,,,,8,0,0,,,4,,,55,64
380446,note_on,,,,,34,0,0,,,4,,,52,127
380454,note_off,,,,,8,0,0,,,4,,,54,64
380488,note_off,,,,,34,0,0,,,2,,,73,64
380489,note_on,,,,,1,0,0,,,2,,,76,113
380489,note_on,,,,,0,0,0,,,1,,,79,110
380490,note_on,,,,,1,0,0,,,2,,,69,118
380490,note_on,,,,,0,0,0,,,4,,,50,127
380496,note_off,,,,,6,0,0,,,4,,,52,64
380531,note_on,,,,,35,0,0,,,4,,,49,127
380538,note_off,,,,,7,0,0,,,4,,,50,64
380575,note_on,,,,,37,0,0,,,4,,,47,127
380580,note_off,,,,,5,0,0,,,4,,,49,64
380617,note_on,,,,,37,0,0,,,4,,,45,127
380625,note_off,,,,,8,0,0,,,4,,,47,64
380659,note_on,,,,,34,0,0,,,4,,,50,127
380667,note_off,,,,,8,0,0,,,4,,,45,64
380705,note_on,,,,,38,0,0,,,4,,,49,127
380711,note_off,,,,,6,0,0,,,4,,,50,64
380748,note_on,,,,,37,0,0,,,4,,,50,127
380755,note_off,,,,,7,0,0,,,4,,,49,64
380790,note_on,,,,,35,0,0,,,4,,,52,127
380798,note_off,,,,,8,0,0,,,4,,,50,64
380831,note_off,,,,,33,0,0,,,2,,,69,64
380832,note_off,,,,,1,0,0,,,1,,,79,64
380832,note_off,,,,,0,0,0,,,2,,,76,64
380834,note_on,,,,,2,0,0,,,2,,,74,117
380834,note_on,,,,,0,0,0,,,1,,,79,101
380835,note_on,,,,,1,0,0,,,4,,,54,127
380844,note_off,,,,,9,0,0,,,4,,,52,64
380864,note_on,,,,,20,0,0,,,1,,,78,101
380868,note_off,,,,,4,0,0,,,1,,,79,64
380891,note_on,,,,,23,0,0,,,1,,,79,101
380891,note_on,,,,,0,0,0,,,4,,,52,127
380893,note_off,,,,,2,0,0,,,1,,,78,64
380899,note_off,,,,,6,0,0,,,4,,,54,64
380916,note_on,,,,,17,0,0,,,1,,,78,101
380920,note_off,,,,,4,0,0,,,1,,,79,64
380945,note_on,,,,,25,0,0,,,1,,,79,101
380946,note_on,,,,,1,0,0,,,4,,,54,127
380948,note_off,,,,,2,0,0,,,1,,,78,64
380954,note_off,,,,,6,0,0,,,4,,,52,64
380971,note_on,,,,,17,0,0,,,1,,,78,101
380975,note_off,,,,,4,0,0,,,1,,,79,64
380998,note_on,,,,,23,0,0,,,2,,,76,108
380999,note_on,,,,,1,0,0,,,4,,,55,127
381000,note_off,,,,,1,0,0,,,1,,,78,64
381005,note_off,,,,,5,0,0,,,4,,,54,64
381020,note_on,,,,,15,0,0,,,1,,,78,101
381022,note_off,,,,,2,0,0,,,2,,,76,64
381041,note_off,,,,,19,0,0,,,2,,,74,64
381042,note_on,,,,,1,0,0,,,2,,,73,117
381042,note_on,,,,,0,0,0,,,2,,,76,108
381043,note_off,,,,,1,0,0,,,1,,,78,64
381043,note_on,,,,,0,0,0,,,4,,,57,127
381049,note_off,,,,,6,0,0,,,4,,,55,64
381085,note_on,,,,,36,0,0,,,4,,,61,127
381093,note_off,,,,,8,0,0,,,4,,,57,64
381132,note_on,,,,,39,0,0,,,4,,,64,126
381139,note_off,,,,,7,0,0,,,4,,,61,64
381174,note_on,,,,,35,0,0,,,2,,,69,118
381181,note_off,,,,,7,0,0,,,4,,,64,64
381220,note_on,,,,,39,0,0,,,2,,,68,120
381227,note_off,,,,,7,0,0,,,2,,,69,64
381261,note_on,,,,,34,0,0,,,2,,,69,118
381269,note_off,,,,,8,0,0,,,2,,,68,64
381276,note_off,,,,,7,0,0,,,2,,,73,64
381277,note_off,,,,,1,0,0,,,2,,,76,64
381307,note_on,,,,,30,0,0,,,2,,,68,120
381315,note_off,,,,,8,0,0,,,2,,,69,64
381349,note_on,,,,,34,0,0,,,2,,,69,118
381358,note_off,,,,,9,0,0,,,2,,,68,64
381390,note_off,,,,,32,0,0,,,2,,,69,64
381392,note_on,,,,,2,0,0,,,2,,,69,118
381393,note_on,,,,,1,0,0,,,4,,,57,127
381432,note_off,,,,,39,0,0,,,2,,,69,64
381433,note_on,,,,,1,0,0,,,2,,,73,117
381475,note_on,,,,,42,0,0,,,2,,,76,113
381481,note_off,,,,,6,0,0,,,2,,,73,64
381516,note_on,,,,,35,0,0,,,1,,,81,110
381524,note_off,,,,,8,0,0,,,2,,,76,64
381564,note_on,,,,,40,0,0,,,1,,,80,110
381570,note_off,,,,,6,0,0,,,1,,,81,64
381606,note_on,,,,,36,0,0,,,1,,,81,110
381614,note_off,,,,,8,0,0,,,1,,,80,64
381652,note_on,,,,,38,0,0,,,1,,,80,110
381660,note_off,,,,,8,0,0,,,1,,,81,64
381696,note_on,,,,,36,0,0,,,1,,,81,110
381704,note_off,,,,,8,0,0,,,1,,,80,64
381743,note_off,,,,,39,0,0,,,4,,,57,64
381743,note_on,,,,,0,0,0,,,2,,,69,118
381868,note_off,,,,,125,0,0,,,1,,,81,64
381911,note_on,,,,,43,0,0,,,4,,,57,127
382037,note_off,,,,,126,0,0,,,2,,,69,64
382076,note_off,,,,,39,0,0,,,4,,,57,64
382076,note_on,,,,,0,0,0,,,4,,,33,127
382224,note_on,,,,,148,0,0,,,2,,,69,118
382336,note_off,,,,,112,0,0,,,4,,,33,64
382392,note_off,,,,,56,0,0,,,2,,,69,64
382399,note_on,,,,,7,0,0,,,4,,,66,127
382400,note_on,,,,,1,0,0,,,4,,,50,127
382423,note_on,,,,,23,0,0,,,2,,,69,118
382444,note_on,,,,,21,0,0,,,2,,,74,117
382465,note_on,,,,,21,0,0,,,4,,,54,127
382473,note_off,,,,,8,0,0,,,4,,,50,64
382510,note_on,,,,,37,0,0,,,4,,,57,127
382517,note_off,,,,,7,0,0,,,4,,,54,64
382556,note_on,,,,,39,0,0,,,4,,,62,127
382563,note_off,,,,,7,0,0,,,4,,,57,64
382604,note_on,,,,,41,0,0,,,4,,,61,127
382611,note_off,,,,,7,0,0,,,4,,,62,64
382647,note_on,,,,,36,0,0,,,4,,,62,127
382655,note_off,,,,,8,0,0,,,4,,,61,64
382695,note_on,,,,,40,0,0,,,4,,,61,127
382701,note_off,,,,,6,0,0,,,4,,,62,64
382708,note_off,,,,,7,0,0,,,4,,,66,64
382718,note_off,,,,,10,0,0,,,2,,,69,64
382729,note_off,,,,,11,0,0,,,2,,,74,64
382737,note_on,,,,,8,0,0,,,4,,,62,127
382745,note_off,,,,,8,0,0,,,4,,,61,64
382783,note_on,,,,,38,0,0,,,1,,,78,114
382784,note_on,,,,,1,0,0,,,4,,,47,127
382784,note_on,,,,,0,0,0,,,2,,,74,117
382826,note_on,,,,,42,0,0,,,4,,,50,127
382834,note_off,,,,,8,0,0,,,4,,,47,64
382836,note_off,,,,,2,0,0,,,4,,,62,64
382871,note_on,,,,,35,0,0,,,4,,,54,127
382878,note_off,,,,,7,0,0,,,4,,,50,64
382911,note_on,,,,,33,0,0,,,4,,,59,127
382919,note_off,,,,,8,0,0,,,4,,,54,64
382949,note_off,,,,,30,0,0,,,2,,,74,64
382950,note_off,,,,,1,0,0,,,1,,,78,64
382958,note_on,,,,,8,0,0,,,4,,,66,127
382958,note_on,,,,,0,0,0,,,2,,,74,117
382959,note_on,,,,,1,0,0,,,4,,,58,127
382965,note_off,,,,,6,0,0,,,4,,,59,64
382999,note_on,,,,,34,0,0,,,4,,,59,127
383007,note_off,,,,,8,0,0,,,4,,,58,64
383043,note_on,,,,,36,0,0,,,4,,,58,127
383051,note_off,,,,,8,0,0,,,4,,,59,64
383086,note_on,,,,,35,0,0,,,4,,,59,127
383093,note_off,,,,,7,0,0,,,4,,,58,64
383122,note_off,,,,,29,0,0,,,4,,,66,64
383123,note_off,,,,,1,0,0,,,2,,,74,64
383131,note_on,,,,,8,0,0,,,2,,,71,116
383131,note_on,,,,,0,0,0,,,1,,,79,114
383132,note_on,,,,,1,0,0,,,4,,,43,127
383172,note_on,,,,,40,0,0,,,4,,,47,127
383180,note_off,,,,,8,0,0,,,4,,,43,64
383182,note_off,,,,,2,0,0,,,4,,,59,64
383214,note_on,,,,,32,0,0,,,4,,,52,127
383220,note_off,,,,,6,0,0,,,4,,,47,64
383257,note_on,,,,,37,0,0,,,4,,,55,127
383265,note_off,,,,,8,0,0,,,4,,,52,64
383304,note_on,,,,,39,0,0,,,4,,,54,127
383310,note_off,,,,,6,0,0,,,4,,,55,64
383347,note_on,,,,,37,0,0,,,4,,,55,127
383352,note_off,,,,,5,0,0,,,4,,,54,64
383381,note_off,,,,,29,0,0,,,2,,,71,64
383382,note_off,,,,,1,0,0,,,1,,,79,64
383390,note_on,,,,,8,0,0,,,2,,,76,117
383390,note_on,,,,,0,0,0,,,4,,,54,127
383397,note_off,,,,,7,0,0,,,4,,,55,64
383429,note_on,,,,,32,0,0,,,4,,,55,127
383436,note_off,,,,,7,0,0,,,4,,,54,64
383465,note_off,,,,,29,0,0,,,2,,,76,64
383471,note_on,,,,,6,0,0,,,4,,,45,127
383471,note_on,,,,,0,0,0,,,2,,,73,117
383512,note_on,,,,,41,0,0,,,4,,,49,127
383520,note_off,,,,,8,0,0,,,4,,,45,64
383521,note_off,,,,,1,0,0,,,4,,,55,64
383554,note_on,,,,,33,0,0,,,4,,,52,127
383560,note_off,,,,,6,0,0,,,4,,,49,64
383596,note_on,,,,,36,0,0,,,4,,,57,127
383602,note_off,,,,,6,0,0,,,4,,,52,64
383633,note_off,,,,,31,0,0,,,2,,,73,64
383640,note_on,,,,,7,0,0,,,2,,,69,118
383641,note_on,,,,,1,0,0,,,4,,,56,127
383647,note_off,,,,,6,0,0,,,4,,,57,64
383682,note_on,,,,,35,0,0,,,4,,,57,127
383689,note_off,,,,,7,0,0,,,4,,,56,64
383724,note_on,,,,,35,0,0,,,4,,,56,127
383732,note_off,,,,,8,0,0,,,4,,,57,64
383768,note_on,,,,,36,0,0,,,4,,,57,127
383776,note_off,,,,,8,0,0,,,4,,,56,64
383803,note_off,,,,,27,0,0,,,2,,,69,64
383811,note_on,,,,,8,0,0,,,1,,,81,110
383811,note_on,,,,,0,0,0,,,4,,,54,127
383817,note_off,,,,,6,0,0,,,4,,,57,64
383854,note_on,,,,,37,0,0,,,1,,,78,110
383854,note_on,,,,,0,0,0,,,4,,,57,127
383860,note_off,,,,,6,0,0,,,4,,,54,64
383861,note_off,,,,,1,0,0,,,1,,,81,64
383896,note_on,,,,,35,0,0,,,2,,,74,113
383897,note_on,,,,,1,0,0,,,4,,,62,127
383903,note_off,,,,,6,0,0,,,4,,,57,64
383903,note_off,,,,,0,0,0,,,1,,,78,64
383938,note_on,,,,,35,0,0,,,2,,,69,118
383939,note_on,,,,,1,0,0,,,4,,,66,127
383945,note_off,,,,,6,0,0,,,4,,,62,64
383945,note_off,,,,,0,0,0,,,2,,,74,64
383984,note_on,,,,,39,0,0,,,2,,,68,120
383985,note_on,,,,,1,0,0,,,4,,,65,127
383991,note_off,,,,,6,0,0,,,4,,,66,64
383991,note_off,,,,,0,0,0,,,2,,,69,64
384026,note_on,,,,,35,0,0,,,2,,,69,118
384027,note_on,,,,,1,0,0,,,4,,,66,127
384033,note_off,,,,,6,0,0,,,4,,,65,64
384034,note_off,,,,,1,0,0,,,2,,,68,64
384069,note_on,,,,,35,0,0,,,2,,,68,120
384070,note_on,,,,,1,0,0,,,4,,,65,127
384078,note_off,,,,,8,0,0,,,4,,,66,64
384078,note_off,,,,,0,0,0,,,2,,,69,64
384113,note_on,,,,,35,0,0,,,2,,,69,118
384113,note_on,,,,,0,0,0,,,4,,,66,127
384120,note_off,,,,,7,0,0,,,4,,,65,64
384120,note_off,,,,,0,0,0,,,2,,,68,64
384156,note_on,,,,,36,0,0,,,1,,,83,114
384156,note_on,,,,,0,0,0,,,4,,,55,127
384201,note_on,,,,,45,0,0,,,4,,,59,127
384201,note_on,,,,,0,0,0,,,1,,,79,110
384207,note_off,,,,,6,0,0,,,4,,,55,64
384207,note_off,,,,,0,0,0,,,1,,,83,64
384208,note_off,,,,,1,0,0,,,4,,,66,64
384208,note_off,,,,,0,0,0,,,2,,,69,64
384242,note_on,,,,,34,0,0,,,2,,,74,113
384242,note_on,,,,,0,0,0,,,4,,,62,127
384249,note_off,,,,,7,0,0,,,1,,,79,64
384249,note_off,,,,,0,0,0,,,4,,,59,64
384284,note_on,,,,,35,0,0,,,2,,,71,116
384285,note_on,,,,,1,0,0,,,2,,,67,127
384291,note_off,,,,,6,0,0,,,4,,,62,64
384291,note_off,,,,,0,0,0,,,2,,,74,64
384330,note_on,,,,,39,0,0,,,1,,,79,110
384331,note_on,,,,,1,0,0,,,4,,,45,127
384337,note_off,,,,,6,0,0,,,2,,,67,64
384337,note_off,,,,,0,0,0,,,2,,,71,64
384374,note_on,,,,,37,0,0,,,2,,,76,113
384375,note_on,,,,,1,0,0,,,4,,,49,127
384381,note_off,,,,,6,0,0,,,4,,,45,64
384382,note_off,,,,,1,0,0,,,1,,,79,64
384417,note_on,,,,,35,0,0,,,2,,,73,117
384417,note_on,,,,,0,0,0,,,4,,,52,127
384423,note_off,,,,,6,0,0,,,4,,,49,64
384424,note_off,,,,,1,0,0,,,2,,,76,64
384457,note_on,,,,,33,0,0,,,4,,,57,127
384457,note_on,,,,,0,0,0,,,2,,,69,118
384462,note_off,,,,,5,0,0,,,4,,,52,64
384462,note_off,,,,,0,0,0,,,2,,,73,64
384493,note_off,,,,,31,0,0,,,2,,,69,64
384499,note_on,,,,,6,0,0,,,2,,,74,117
384500,note_on,,,,,1,0,0,,,2,,,69,118
384500,note_on,,,,,0,0,0,,,4,,,66,127
384501,note_on,,,,,1,0,0,,,4,,,62,127
384520,note_off,,,,,19,0,0,,,4,,,57,64
384660,note_off,,,,,140,0,0,,,4,,,62,64
384668,note_off,,,,,8,0,0,,,2,,,69,64
384670,note_off,,,,,2,0,0,,,4,,,66,64
384672,note_off,,,,,2,0,0,,,2,,,74,64
384680,note_on,,,,,8,0,0,,,4,,,50,127
384849,note_off,,,,,169,0,0,,,4,,,50,64
384849,note_on,,,,,0,0,0,,,4,,,33,127
385013,note_on,,,,,164,0,0,,,1,,,81,110
385013,note_on,,,,,0,0,0,,,2,,,72,113
385014,note_on,,,,,1,0,0,,,2,,,69,118
385058,note_on,,,,,44,0,0,,,2,,,67,127
385066,note_off,,,,,8,0,0,,,2,,,69,64
385102,note_on,,,,,36,0,0,,,4,,,66,127
385110,note_off,,,,,8,0,0,,,2,,,67,64
385133,note_off,,,,,23,0,0,,,4,,,33,64
385148,note_on,,,,,15,0,0,,,4,,,64,126
385155,note_off,,,,,7,0,0,,,4,,,66,64
385193,note_off,,,,,38,0,0,,,2,,,72,64
385194,note_on,,,,,1,0,0,,,2,,,71,112
385194,note_on,,,,,0,0,0,,,4,,,63,127
385200,note_off,,,,,6,0,0,,,4,,,64,64
385235,note_on,,,,,35,0,0,,,4,,,61,127
385242,note_off,,,,,7,0,0,,,4,,,63,64
385277,note_on,,,,,35,0,0,,,4,,,63,127
385284,note_off,,,,,7,0,0,,,4,,,61,64
385323,note_on,,,,,39,0,0,,,4,,,59,127
385329,note_off,,,,,6,0,0,,,4,,,63,64
385363,note_off,,,,,34,0,0,,,1,,,81,64
385364,note_on,,,,,1,0,0,,,1,,,79,110
385364,note_on,,,,,0,0,0,,,4,,,64,126
385371,note_off,,,,,7,0,0,,,4,,,59,64
385409,note_on,,,,,38,0,0,,,4,,,66,127
385415,note_off,,,,,6,0,0,,,4,,,64,64
385452,note_on,,,,,37,0,0,,,2,,,67,127
385459,note_off,,,,,7,0,0,,,4,,,66,64
385496,note_on,,,,,37,0,0,,,4,,,64,126
385503,note_off,,,,,7,0,0,,,2,,,67,64
385538,note_off,,,,,35,0,0,,,2,,,71,64
385538,note_on,,,,,0,0,0,,,2,,,69,118
385539,note_on,,,,,1,0,0,,,4,,,61,127
385545,note_off,,,,,6,0,0,,,4,,,64,64
385581,note_on,,,,,36,0,0,,,4,,,59,127
385589,note_off,,,,,8,0,0,,,4,,,61,64
385625,note_on,,,,,36,0,0,,,4,,,61,127
385633,note_off,,,,,8,0,0,,,4,,,59,64
385669,note_on,,,,,36,0,0,,,4,,,57,127
385678,note_off,,,,,9,0,0,,,4,,,61,64
385709,note_off,,,,,31,0,0,,,1,,,79,64
385715,note_on,,,,,6,0,0,,,1,,,78,110
385715,note_on,,,,,0,0,0,,,4,,,62,127
385721,note_off,,,,,6,0,0,,,4,,,57,64
385756,note_on,,,,,35,0,0,,,4,,,64,126
385765,note_off,,,,,9,0,0,,,4,,,62,64
385802,note_on,,,,,37,0,0,,,4,,,66,127
385810,note_off,,,,,8,0,0,,,4,,,64,64
385846,note_on,,,,,36,0,0,,,4,,,62,127
385854,note_off,,,,,8,0,0,,,4,,,66,64
385893,note_off,,,,,39,0,0,,,1,,,78,64
385893,note_off,,,,,0,0,0,,,2,,,69,64
385893,note_on,,,,,0,0,0,,,1,,,86,109
385894,note_on,,,,,1,0,0,,,2,,,71,107
385900,note_off,,,,,6,0,0,,,4,,,62,64
385937,note_on,,,,,37,0,0,,,2,,,70,109
385946,note_off,,,,,9,0,0,,,2,,,71,64
385984,note_on,,,,,38,0,0,,,2,,,71,107
385990,note_off,,,,,6,0,0,,,2,,,70,64
386028,note_off,,,,,38,0,0,,,1,,,86,64
386029,note_on,,,,,1,0,0,,,1,,,82,105
386029,note_on,,,,,0,0,0,,,4,,,66,127
386035,note_off,,,,,6,0,0,,,2,,,71,64
386072,note_on,,,,,37,0,0,,,1,,,83,105
386072,note_on,,,,,0,0,0,,,2,,,67,127
386080,note_off,,,,,8,0,0,,,4,,,66,64
386081,note_off,,,,,1,0,0,,,1,,,82,64
386118,note_on,,,,,37,0,0,,,4,,,66,127
386126,note_off,,,,,8,0,0,,,2,,,67,64
386161,note_on,,,,,35,0,0,,,2,,,67,127
386169,note_off,,,,,8,0,0,,,4,,,66,64
386205,note_off,,,,,36,0,0,,,1,,,83,64
386206,note_on,,,,,1,0,0,,,1,,,78,105
386206,note_on,,,,,0,0,0,,,4,,,62,127
386212,note_off,,,,,6,0,0,,,2,,,67,64
386249,note_on,,,,,37,0,0,,,1,,,79,105
386249,note_on,,,,,0,0,0,,,4,,,64,126
386256,note_off,,,,,7,0,0,,,4,,,62,64
386256,note_off,,,,,0,0,0,,,1,,,78,64
386292,note_on,,,,,36,0,0,,,4,,,62,127
386301,note_off,,,,,9,0,0,,,4,,,64,64
386337,note_on,,,,,36,0,0,,,4,,,64,126
386344,note_off,,,,,7,0,0,,,4,,,62,64
386381,note_off,,,,,37,0,0,,,1,,,79,64
386382,note_on,,,,,1,0,0,,,4,,,59,127
386382,note_on,,,,,0,0,0,,,2,,,74,108
386388,note_off,,,,,6,0,0,,,4,,,64,64
386423,note_on,,,,,35,0,0,,,2,,,76,108
386423,note_on,,,,,0,0,0,,,4,,,61,127
386431,note_off,,,,,8,0,0,,,2,,,74,64
386431,note_off,,,,,0,0,0,,,4,,,59,64
386469,note_on,,,,,38,0,0,,,4,,,59,127
386475,note_off,,,,,6,0,0,,,4,,,61,64
386512,note_on,,,,,37,0,0,,,4,,,61,127
386520,note_off,,,,,8,0,0,,,4,,,59,64
386556,note_off,,,,,36,0,0,,,2,,,76,64
386556,note_on,,,,,0,0,0,,,2,,,71,107
386557,note_on,,,,,1,0,0,,,4,,,56,127
386565,note_off,,,,,8,0,0,,,4,,,61,64
386599,note_on,,,,,34,0,0,,,2,,,73,108
386600,note_on,,,,,1,0,0,,,4,,,57,127
386605,note_off,,,,,5,0,0,,,2,,,71,64
386606,note_off,,,,,1,0,0,,,4,,,56,64
386644,note_on,,,,,38,0,0,,,4,,,55,127
386652,note_off,,,,,8,0,0,,,4,,,57,64
386687,note_on,,,,,35,0,0,,,4,,,54,127
386693,note_off,,,,,6,0,0,,,4,,,55,64
386730,note_on,,,,,37,0,0,,,4,,,52,127
386736,note_off,,,,,6,0,0,,,4,,,54,64
386772,note_on,,,,,36,0,0,,,2,,,76,113
386772,note_on,,,,,0,0,0,,,1,,,79,110
386773,note_off,,,,,1,0,0,,,2,,,73,64
386773,note_on,,,,,0,0,0,,,2,,,69,118
386773,note_on,,,,,0,0,0,,,4,,,50,127
386778,note_off,,,,,5,0,0,,,4,,,52,64
386814,note_on,,,,,36,0,0,,,4,,,49,127
386822,note_off,,,,,8,0,0,,,4,,,50,64
386856,note_on,,,,,34,0,0,,,4,,,47,127
386864,note_off,,,,,8,0,0,,,4,,,49,64
386900,note_on,,,,,36,0,0,,,4,,,45,127
386907,note_off,,,,,7,0,0,,,4,,,47,64
386942,note_on,,,,,35,0,0,,,4,,,50,127
386950,note_off,,,,,8,0,0,,,4,,,45,64
386990,note_on,,,,,40,0,0,,,4,,,49,127
386996,note_off,,,,,6,0,0,,,4,,,50,64
387031,note_on,,,,,35,0,0,,,4,,,50,127
387039,note_off,,,,,8,0,0,,,4,,,49,64
387073,note_on,,,,,34,0,0,,,4,,,52,127
387082,note_off,,,,,9,0,0,,,4,,,50,64
387115,note_off,,,,,33,0,0,,,2,,,76,64
387115,note_off,,,,,0,0,0,,,2,,,69,64
387116,note_off,,,,,1,0,0,,,1,,,79,64
387118,note_on,,,,,2,0,0,,,2,,,74,117
387118,note_on,,,,,0,0,0,,,1,,,79,101
387119,note_on,,,,,1,0,0,,,4,,,54,127
387126,note_off,,,,,7,0,0,,,4,,,52,64
387145,note_on,,,,,19,0,0,,,1,,,78,101
387151,note_off,,,,,6,0,0,,,1,,,79,64
387174,note_on,,,,,23,0,0,,,1,,,79,101
387175,note_on,,,,,1,0,0,,,4,,,52,127
387179,note_off,,,,,4,0,0,,,1,,,78,64
387185,note_off,,,,,6,0,0,,,4,,,54,64
387204,note_on,,,,,19,0,0,,,1,,,78,101
387206,note_off,,,,,2,0,0,,,1,,,79,64
387231,note_on,,,,,25,0,0,,,1,,,79,101
387231,note_on,,,,,0,0,0,,,4,,,54,127
387234,note_off,,,,,3,0,0,,,1,,,78,64
387240,note_off,,,,,6,0,0,,,4,,,52,64
387257,note_on,,,,,17,0,0,,,1,,,78,101
387259,note_off,,,,,2,0,0,,,1,,,79,64
387282,note_on,,,,,23,0,0,,,2,,,76,108
387282,note_on,,,,,0,0,0,,,4,,,55,127
387285,note_off,,,,,3,0,0,,,1,,,78,64
387288,note_off,,,,,3,0,0,,,4,,,54,64
387304,note_on,,,,,16,0,0,,,1,,,78,101
387308,note_off,,,,,4,0,0,,,2,,,76,64
387321,note_off,,,,,13,0,0,,,2,,,74,64
387327,note_on,,,,,6,0,0,,,2,,,73,117
387327,note_on,,,,,0,0,0,,,2,,,76,108
387328,note_on,,,,,1,0,0,,,4,,,57,127
387330,note_off,,,,,2,0,0,,,1,,,78,64
387336,note_off,,,,,6,0,0,,,4,,,55,64
387372,note_on,,,,,36,0,0,,,4,,,61,127
387380,note_off,,,,,8,0,0,,,4,,,57,64
387416,note_on,,,,,36,0,0,,,4,,,64,126
387424,note_off,,,,,8,0,0,,,4,,,61,64
387458,note_on,,,,,34,0,0,,,2,,,69,118
387466,note_off,,,,,8,0,0,,,4,,,64,64
387503,note_on,,,,,37,0,0,,,2,,,68,120
387510,note_off,,,,,7,0,0,,,2,,,69,64
387547,note_on,,,,,37,0,0,,,2,,,69,118
387554,note_off,,,,,7,0,0,,,2,,,68,64
387593,note_on,,,,,39,0,0,,,2,,,68,120
387600,note_off,,,,,7,0,0,,,2,,,69,64
387637,note_off,,,,,37,0,0,,,2,,,76,64
387637,note_off,,,,,0,0,0,,,2,,,73,64
387638,note_on,,,,,1,0,0,,,2,,,69,118
387644,note_off,,,,,6,0,0,,,2,,,68,64
387678,note_on,,,,,34,0,0,,,2,,,69,118
387679,note_on,,,,,1,0,0,,,4,,,57,127
387721,note_on,,,,,42,0,0,,,2,,,73,117
387764,note_on,,,,,43,0,0,,,2,,,76,113
387771,note_off,,,,,7,0,0,,,2,,,73,64
387798,note_off,,,,,27,0,0,,,2,,,69,64
387806,note_on,,,,,8,0,0,,,1,,,81,106
387814,note_off,,,,,8,0,0,,,2,,,76,64
387843,note_off,,,,,29,0,0,,,2,,,69,64
387851,note_on,,,,,8,0,0,,,1,,,80,110
387859,note_off,,,,,8,0,0,,,1,,,81,64
387893,note_on,,,,,34,0,0,,,1,,,81,106
387901,note_off,,,,,8,0,0,,,1,,,80,64
387937,note_on,,,,,36,0,0,,,1,,,80,110
387946,note_off,,,,,9,0,0,,,1,,,81,64
387981,note_off,,,,,35,0,0,,,4,,,57,64
387981,note_on,,,,,0,0,0,,,1,,,81,106
387989,note_off,,,,,8,0,0,,,1,,,80,64
388026,note_on,,,,,37,0,0,,,2,,,69,118
388076,note_off,,,,,50,0,0,,,1,,,81,64
388197,note_on,,,,,121,0,0,,,4,,,57,127
388200,note_off,,,,,3,0,0,,,2,,,69,64
388362,note_on,,,,,162,0,0,,,4,,,33,127
388476,note_off,,,,,114,0,0,,,4,,,57,64
388515,note_on,,,,,39,0,0,,,2,,,69,118
388632,note_off,,,,,117,0,0,,,4,,,33,64
388686,note_off,,,,,54,0,0,,,2,,,69,64
388692,note_on,,,,,6,0,0,,,4,,,66,127
388693,note_on,,,,,1,0,0,,,4,,,50,127
388711,note_on,,,,,18,0,0,,,2,,,69,118
388730,note_on,,,,,19,0,0,,,2,,,74,117
388761,note_on,,,,,31,0,0,,,4,,,54,127
388766,note_off,,,,,5,0,0,,,4,,,50,64
388805,note_on,,,,,39,0,0,,,4,,,57,127
388812,note_off,,,,,7,0,0,,,4,,,54,64
388849,note_on,,,,,37,0,0,,,4,,,62,127
388857,note_off,,,,,8,0,0,,,4,,,57,64
388897,note_on,,,,,40,0,0,,,4,,,61,127
388905,note_off,,,,,8,0,0,,,4,,,62,64
388941,note_on,,,,,36,0,0,,,4,,,62,127
388949,note_off,,,,,8,0,0,,,4,,,61,64
388987,note_on,,,,,38,0,0,,,4,,,61,127
388995,note_off,,,,,8,0,0,,,4,,,62,64
389031,note_on,,,,,36,0,0,,,4,,,62,127
389039,note_off,,,,,8,0,0,,,4,,,61,64
389040,note_off,,,,,1,0,0,,,4,,,66,64
389049,note_off,,,,,9,0,0,,,2,,,69,64
389063,note_off,,,,,14,0,0,,,2,,,74,64
389078,note_on,,,,,15,0,0,,,1,,,78,114
389079,note_on,,,,,1,0,0,,,2,,,74,113
389079,note_on,,,,,0,0,0,,,4,,,47,127
389121,note_on,,,,,42,0,0,,,4,,,50,127
389128,note_off,,,,,7,0,0,,,4,,,47,64
389130,note_off,,,,,2,0,0,,,4,,,62,64
389163,note_on,,,,,33,0,0,,,4,,,54,127
389171,note_off,,,,,8,0,0,,,4,,,50,64
389205,note_on,,,,,34,0,0,,,4,,,59,127
389213,note_off,,,,,8,0,0,,,4,,,54,64
389244,note_off,,,,,31,0,0,,,2,,,74,64
389244,note_off,,,,,0,0,0,,,1,,,78,64
389250,note_on,,,,,6,0,0,,,2,,,74,113
389251,note_on,,,,,1,0,0,,,4,,,58,127
389251,note_on,,,,,0,0,0,,,4,,,66,127
389257,note_off,,,,,6,0,0,,,4,,,59,64
389292,note_on,,,,,35,0,0,,,4,,,59,127
389300,note_off,,,,,8,0,0,,,4,,,58,64
389339,note_on,,,,,39,0,0,,,4,,,58,127
389346,note_off,,,,,7,0,0,,,4,,,59,64
389381,note_on,,,,,35,0,0,,,4,,,59,127
389388,note_off,,,,,7,0,0,,,4,,,58,64
389417,note_off,,,,,29,0,0,,,4,,,66,64
389418,note_off,,,,,1,0,0,,,2,,,74,64
389426,note_on,,,,,8,0,0,,,2,,,71,112
389426,note_on,,,,,0,0,0,,,1,,,79,114
389427,note_on,,,,,1,0,0,,,4,,,43,127
389467,note_on,,,,,40,0,0,,,4,,,47,127
389475,note_off,,,,,8,0,0,,,4,,,43,64
389478,note_off,,,,,3,0,0,,,4,,,59,64
389510,note_on,,,,,32,0,0,,,4,,,52,127
389518,note_off,,,,,8,0,0,,,4,,,47,64
389553,note_on,,,,,35,0,0,,,4,,,55,127
389560,note_off,,,,,7,0,0,,,4,,,52,64
389599,note_on,,,,,39,0,0,,,4,,,54,127
389606,note_off,,,,,7,0,0,,,4,,,55,64
389642,note_on,,,,,36,0,0,,,4,,,55,127
389648,note_off,,,,,6,0,0,,,4,,,54,64
389678,note_off,,,,,30,0,0,,,2,,,71,64
389679,note_off,,,,,1,0,0,,,1,,,79,64
389687,note_on,,,,,8,0,0,,,2,,,76,116
389688,note_on,,,,,1,0,0,,,4,,,54,127
389694,note_off,,,,,6,0,0,,,4,,,55,64
389726,note_on,,,,,32,0,0,,,4,,,55,127
389732,note_off,,,,,6,0,0,,,4,,,54,64
389763,note_off,,,,,31,0,0,,,2,,,76,64
389771,note_on,,,,,8,0,0,,,2,,,73,113
389771,note_on,,,,,0,0,0,,,4,,,45,127
389812,note_on,,,,,41,0,0,,,4,,,49,127
389820,note_off,,,,,8,0,0,,,4,,,45,64
389821,note_off,,,,,1,0,0,,,4,,,55,64
389854,note_on,,,,,33,0,0,,,4,,,52,127
389862,note_off,,,,,8,0,0,,,4,,,49,64
389896,note_on,,,,,34,0,0,,,4,,,57,127
389904,note_off,,,,,8,0,0,,,4,,,52,64
389935,note_off,,,,,31,0,0,,,2,,,73,64
389940,note_on,,,,,5,0,0,,,2,,,69,114
389941,note_on,,,,,1,0,0,,,4,,,56,127
389950,note_off,,,,,9,0,0,,,4,,,57,64
389985,note_on,,,,,35,0,0,,,4,,,57,127
389990,note_off,,,,,5,0,0,,,4,,,56,64
390029,note_on,,,,,39,0,0,,,4,,,56,127
390037,note_off,,,,,8,0,0,,,4,,,57,64
390072,note_on,,,,,35,0,0,,,4,,,57,127
390080,note_off,,,,,8,0,0,,,4,,,56,64
390110,note_off,,,,,30,0,0,,,2,,,69,64
390118,note_on,,,,,8,0,0,,,1,,,81,110
390119,note_on,,,,,1,0,0,,,4,,,54,127
390127,note_off,,,,,8,0,0,,,4,,,57,64
390163,note_on,,,,,36,0,0,,,1,,,78,110
390164,note_on,,,,,1,0,0,,,4,,,57,127
390170,note_off,,,,,6,0,0,,,4,,,54,64
390170,note_off,,,,,0,0,0,,,1,,,81,64
390207,note_on,,,,,37,0,0,,,2,,,74,113
390208,note_on,,,,,1,0,0,,,4,,,62,127
390214,note_off,,,,,6,0,0,,,4,,,57,64
390215,note_off,,,,,1,0,0,,,1,,,78,64
390250,note_on,,,,,35,0,0,,,2,,,69,114
390250,note_on,,,,,0,0,0,,,4,,,66,127
390256,note_off,,,,,6,0,0,,,4,,,62,64
390257,note_off,,,,,1,0,0,,,2,,,74,64
390294,note_on,,,,,37,0,0,,,2,,,68,116
390294,note_on,,,,,0,0,0,,,4,,,65,127
390300,note_off,,,,,6,0,0,,,4,,,66,64
390301,note_off,,,,,1,0,0,,,2,,,69,64
390338,note_on,,,,,37,0,0,,,2,,,69,114
390338,note_on,,,,,0,0,0,,,4,,,66,127
390345,note_off,,,,,7,0,0,,,4,,,65,64
390346,note_off,,,,,1,0,0,,,2,,,68,64
390382,note_on,,,,,36,0,0,,,2,,,68,116
390383,note_on,,,,,1,0,0,,,4,,,65,127
390389,note_off,,,,,6,0,0,,,4,,,66,64
390389,note_off,,,,,0,0,0,,,2,,,69,64
390426,note_on,,,,,37,0,0,,,2,,,69,114
390427,note_on,,,,,1,0,0,,,4,,,66,127
390433,note_off,,,,,6,0,0,,,4,,,65,64
390433,note_off,,,,,0,0,0,,,2,,,68,64
390470,note_on,,,,,37,0,0,,,1,,,83,110
390471,note_on,,,,,1,0,0,,,4,,,55,127
390516,note_on,,,,,45,0,0,,,1,,,79,110
390516,note_on,,,,,0,0,0,,,4,,,59,127
390522,note_off,,,,,6,0,0,,,4,,,55,64
390523,note_off,,,,,1,0,0,,,4,,,66,64
390523,note_off,,,,,0,0,0,,,1,,,83,64
390524,note_off,,,,,1,0,0,,,2,,,69,64
390557,note_on,,,,,33,0,0,,,2,,,74,113
390557,note_on,,,,,0,0,0,,,4,,,62,127
390564,note_off,,,,,7,0,0,,,4,,,59,64
390564,note_off,,,,,0,0,0,,,1,,,79,64
390600,note_on,,,,,36,0,0,,,2,,,71,112
390600,note_on,,,,,0,0,0,,,2,,,67,127
390606,note_off,,,,,6,0,0,,,4,,,62,64
390606,note_off,,,,,0,0,0,,,2,,,74,64
390641,note_on,,,,,35,0,0,,,1,,,79,114
390642,note_on,,,,,1,0,0,,,4,,,45,127
390650,note_off,,,,,8,0,0,,,2,,,67,64
390650,note_off,,,,,0,0,0,,,2,,,71,64
390687,note_on,,,,,37,0,0,,,2,,,76,113
390688,note_on,,,,,1,0,0,,,4,,,49,127
390696,note_off,,,,,8,0,0,,,4,,,45,64
390696,note_off,,,,,0,0,0,,,1,,,79,64
390732,note_on,,,,,36,0,0,,,2,,,73,113
390732,note_on,,,,,0,0,0,,,4,,,52,127
390741,note_off,,,,,9,0,0,,,2,,,76,64
390741,note_off,,,,,0,0,0,,,4,,,49,64
390778,note_on,,,,,37,0,0,,,2,,,69,118
390778,note_on,,,,,0,0,0,,,4,,,57,127
390786,note_off,,,,,8,0,0,,,4,,,52,64
390787,note_off,,,,,1,0,0,,,2,,,73,64
390816,note_off,,,,,29,0,0,,,2,,,69,64
390822,note_on,,,,,6,0,0,,,4,,,66,127
390823,note_on,,,,,1,0,0,,,4,,,62,127
390840,note_off,,,,,17,0,0,,,4,,,57,64
390844,note_on,,,,,4,0,0,,,2,,,69,118
390857,note_on,,,,,13,0,0,,,2,,,74,117
391065,note_on,,,,,208,0,0,,,4,,,50,127
391190,note_off,,,,,125,0,0,,,4,,,66,64
391190,note_off,,,,,0,0,0,,,4,,,62,64
391194,note_off,,,,,4,0,0,,,2,,,69,64
391200,note_off,,,,,6,0,0,,,2,,,74,64
391593,note_off,,,,,393,0,0,,,4,,,50,64
391795,note_on,,,,,202,0,0,,,1,,,81,104
391872,note_off,,,,,77,0,0,,,1,,,81,64
391910,note_on,,,,,38,0,0,,,1,,,81,104
391987,note_off,,,,,77,0,0,,,1,,,81,64
392023,note_on,,,,,36,0,0,,,1,,,81,104
392125,note_off,,,,,102,0,0,,,1,,,81,64
392135,note_on,,,,,10,0,0,,,1,,,81,104
392231,note_off,,,,,96,0,0,,,1,,,81,64
392238,note_on,,,,,7,0,0,,,1,,,81,104
392239,note_on,,,,,1,0,0,,,4,,,66,123
392239,note_on,,,,,0,0,0,,,4,,,62,127
392344,note_on,,,,,105,0,0,,,4,,,64,121
392344,note_on,,,,,0,0,0,,,2,,,67,123
392356,note_off,,,,,12,0,0,,,4,,,62,64
392357,note_off,,,,,1,0,0,,,4,,,66,64
392446,note_off,,,,,89,0,0,,,1,,,81,64
392449,note_on,,,,,3,0,0,,,2,,,74,107
392450,note_on,,,,,1,0,0,,,2,,,69,113
392450,note_on,,,,,0,0,0,,,4,,,66,123
392460,note_off,,,,,10,0,0,,,2,,,67,64
392460,note_off,,,,,0,0,0,,,4,,,64,64
392545,note_off,,,,,85,0,0,,,4,,,66,64
392553,note_off,,,,,8,0,0,,,2,,,69,64
392554,note_on,,,,,1,0,0,,,4,,,62,127
392554,note_on,,,,,0,0,0,,,4,,,66,123
392650,note_off,,,,,96,0,0,,,4,,,62,64
392651,note_off,,,,,1,0,0,,,2,,,74,64
392659,note_off,,,,,8,0,0,,,4,,,66,64
392659,note_on,,,,,0,0,0,,,1,,,86,104
392660,note_on,,,,,1,0,0,,,4,,,62,127
392660,note_on,,,,,0,0,0,,,4,,,59,127
392732,note_off,,,,,72,0,0,,,1,,,86,64
392768,note_off,,,,,36,0,0,,,4,,,59,64
392769,note_off,,,,,1,0,0,,,4,,,62,64
392769,note_on,,,,,0,0,0,,,1,,,86,104
392770,note_on,,,,,1,0,0,,,4,,,64,121
392770,note_on,,,,,0,0,0,,,4,,,61,127
392841,note_off,,,,,71,0,0,,,1,,,86,64
392878,note_off,,,,,37,0,0,,,4,,,61,64
392878,note_off,,,,,0,0,0,,,4,,,64,64
392879,note_on,,,,,1,0,0,,,4,,,66,123
392879,note_on,,,,,0,0,0,,,1,,,86,104
392880,note_on,,,,,1,0,0,,,4,,,62,127
392977,note_off,,,,,97,0,0,,,4,,,62,64
392978,note_off,,,,,1,0,0,,,1,,,86,64
392986,note_off,,,,,8,0,0,,,4,,,66,64
392987,note_on,,,,,1,0,0,,,1,,,86,104
392987,note_on,,,,,0,0,0,,,4,,,62,127
392988,note_on,,,,,1,0,0,,,4,,,59,127
393082,note_off,,,,,94,0,0,,,1,,,86,64
393084,note_off,,,,,2,0,0,,,4,,,59,64
393092,note_off,,,,,8,0,0,,,4,,,62,64
393092,note_on,,,,,0,0,0,,,1,,,86,104
393093,note_on,,,,,1,0,0,,,4,,,59,127
393094,note_on,,,,,1,0,0,,,4,,,55,127
393197,note_on,,,,,103,0,0,,,4,,,61,127
393199,note_off,,,,,2,0,0,,,4,,,55,64
393200,note_off,,,,,1,0,0,,,4,,,59,64
393200,note_on,,,,,0,0,0,,,4,,,57,127
393300,note_off,,,,,100,0,0,,,1,,,86,64
393306,note_off,,,,,6,0,0,,,4,,,61,64
393306,note_on,,,,,0,0,0,,,2,,,76,107
393307,note_off,,,,,1,0,0,,,4,,,57,64
393307,note_on,,,,,0,0,0,,,4,,,62,127
393308,note_on,,,,,1,0,0,,,4,,,59,127
393404,note_off,,,,,96,0,0,,,4,,,59,64
393411,note_off,,,,,7,0,0,,,4,,,62,64
393412,note_on,,,,,1,0,0,,,4,,,59,127
393412,note_on,,,,,0,0,0,,,4,,,55,127
393503,note_off,,,,,91,0,0,,,2,,,76,64
393511,note_off,,,,,8,0,0,,,4,,,55,64
393511,note_off,,,,,0,0,0,,,4,,,59,64
393512,note_on,,,,,1,0,0,,,4,,,61,127
393512,note_on,,,,,0,0,0,,,1,,,79,104
393513,note_on,,,,,1,0,0,,,4,,,57,127
393611,note_off,,,,,98,0,0,,,1,,,79,64
393618,note_on,,,,,7,0,0,,,1,,,79,104
393620,note_off,,,,,2,0,0,,,4,,,61,64
393620,note_off,,,,,0,0,0,,,4,,,57,64
393621,note_on,,,,,1,0,0,,,4,,,62,127
393621,note_on,,,,,0,0,0,,,4,,,59,127
393720,note_off,,,,,99,0,0,,,1,,,79,64
393730,note_off,,,,,10,0,0,,,4,,,59,64
393730,note_on,,,,,0,0,0,,,1,,,79,104
393731,note_off,,,,,1,0,0,,,4,,,62,64
393731,note_on,,,,,0,0,0,,,4,,,64,121
393731,note_on,,,,,0,0,0,,,4,,,61,127
393828,note_off,,,,,97,0,0,,,4,,,61,64
393828,note_off,,,,,0,0,0,,,1,,,79,64
393837,note_on,,,,,9,0,0,,,1,,,79,104
393838,note_on,,,,,1,0,0,,,4,,,57,127
393838,note_on,,,,,0,0,0,,,4,,,61,127
393839,note_off,,,,,1,0,0,,,4,,,64,64
393933,note_off,,,,,94,0,0,,,1,,,79,64
393941,note_off,,,,,8,0,0,,,4,,,61,64
393941,note_off,,,,,0,0,0,,,4,,,57,64
393942,note_on,,,,,1,0,0,,,4,,,62,127
393942,note_on,,,,,0,0,0,,,1,,,78,104
394091,note_off,,,,,149,0,0,,,1,,,78,64
394094,note_on,,,,,3,0,0,,,2,,,74,107
394144,note_on,,,,,50,0,0,,,1,,,81,104
394145,note_on,,,,,1,0,0,,,4,,,60,127
394153,note_off,,,,,8,0,0,,,2,,,74,64
394299,note_on,,,,,146,0,0,,,1,,,78,104
394301,note_off,,,,,2,0,0,,,1,,,81,64
394349,note_off,,,,,48,0,0,,,1,,,78,64
394349,note_on,,,,,0,0,0,,,1,,,79,104
394350,note_on,,,,,1,0,0,,,4,,,59,127
394359,note_off,,,,,9,0,0,,,4,,,60,64
394494,note_off,,,,,135,0,0,,,1,,,79,64
394503,note_on,,,,,9,0,0,,,2,,,74,107
394551,note_off,,,,,48,0,0,,,2,,,74,64
394552,note_off,,,,,1,0,0,,,4,,,59,64
394552,note_on,,,,,0,0,0,,,1,,,83,104
394553,note_on,,,,,1,0,0,,,4,,,55,127
394553,note_on,,,,,0,0,0,,,1,,,79,104
394697,note_off,,,,,144,0,0,,,1,,,79,64
394698,note_off,,,,,1,0,0,,,1,,,83,64
394708,note_on,,,,,10,0,0,,,1,,,79,104
394708,note_on,,,,,0,0,0,,,2,,,76,107
394751,note_off,,,,,43,0,0,,,2,,,76,64
394752,note_off,,,,,1,0,0,,,1,,,79,64
394756,note_off,,,,,4,0,0,,,4,,,55,64
394760,note_on,,,,,4,0,0,,,2,,,74,107
394760,note_on,,,,,0,0,0,,,1,,,78,104
394761,note_on,,,,,1,0,0,,,4,,,57,127
394774,note_off,,,,,13,0,0,,,4,,,62,64
394971,note_on,,,,,197,0,0,,,2,,,73,107
394971,note_on,,,,,0,0,0,,,2,,,76,107
394974,note_off,,,,,3,0,0,,,1,,,78,64
394974,note_off,,,,,0,0,0,,,2,,,74,64
395176,note_on,,,,,202,0,0,,,1,,,81,104
395180,note_off,,,,,4,0,0,,,2,,,73,64
395181,note_off,,,,,1,0,0,,,2,,,76,64
395251,note_off,,,,,70,0,0,,,1,,,81,64
395286,note_on,,,,,35,0,0,,,1,,,81,104
395361,note_off,,,,,75,0,0,,,1,,,81,64
395397,note_on,,,,,36,0,0,,,1,,,81,104
395499,note_off,,,,,102,0,0,,,1,,,81,64
395508,note_on,,,,,9,0,0,,,1,,,81,104
395605,note_off,,,,,97,0,0,,,1,,,81,64
395614,note_off,,,,,9,0,0,,,4,,,57,64
395615,note_on,,,,,1,0,0,,,1,,,81,104
395615,note_on,,,,,0,0,0,,,4,,,66,123
395616,note_on,,,,,1,0,0,,,4,,,62,127
395720,note_on,,,,,104,0,0,,,2,,,67,123
395721,note_on,,,,,1,0,0,,,4,,,64,121
395732,note_off,,,,,11,0,0,,,4,,,62,64
395733,note_off,,,,,1,0,0,,,4,,,66,64
395820,note_off,,,,,87,0,0,,,1,,,81,64
395828,note_on,,,,,8,0,0,,,2,,,74,107
395828,note_on,,,,,0,0,0,,,2,,,69,113
395828,note_on,,,,,0,0,0,,,4,,,66,123
395840,note_off,,,,,12,0,0,,,2,,,67,64
395840,note_off,,,,,0,0,0,,,4,,,64,64
395931,note_on,,,,,91,0,0,,,2,,,67,123
395932,note_on,,,,,1,0,0,,,4,,,64,121
395943,note_off,,,,,11,0,0,,,4,,,66,64
395944,note_off,,,,,1,0,0,,,2,,,69,64
396035,note_off,,,,,91,0,0,,,2,,,74,64
396036,note_on,,,,,1,0,0,,,1,,,86,104
396036,note_on,,,,,0,0,0,,,4,,,66,123
396036,note_on,,,,,0,0,0,,,4,,,62,127
396046,note_off,,,,,10,0,0,,,4,,,64,64
396047,note_off,,,,,1,0,0,,,2,,,67,64
396111,note_off,,,,,64,0,0,,,1,,,86,64
396147,note_on,,,,,36,0,0,,,1,,,86,104
396148,note_on,,,,,1,0,0,,,4,,,61,127
396148,note_on,,,,,0,0,0,,,4,,,64,121
396160,note_off,,,,,12,0,0,,,4,,,62,64
396161,note_off,,,,,1,0,0,,,4,,,66,64
396221,note_off,,,,,60,0,0,,,1,,,86,64
396258,note_on,,,,,37,0,0,,,1,,,86,104
396258,note_on,,,,,0,0,0,,,4,,,62,127
396259,note_on,,,,,1,0,0,,,4,,,59,127
396270,note_off,,,,,11,0,0,,,4,,,64,64
396270,note_off,,,,,0,0,0,,,4,,,61,64
396356,note_off,,,,,86,0,0,,,1,,,86,64
396365,note_on,,,,,9,0,0,,,1,,,86,104
396366,note_on,,,,,1,0,0,,,4,,,57,127
396366,note_on,,,,,0,0,0,,,4,,,61,127
396377,note_off,,,,,11,0,0,,,4,,,59,64
396377,note_off,,,,,0,0,0,,,4,,,62,64
396462,note_off,,,,,85,0,0,,,1,,,86,64
396470,note_on,,,,,8,0,0,,,1,,,86,104
396471,note_on,,,,,1,0,0,,,4,,,59,127
396472,note_on,,,,,1,0,0,,,4,,,56,127
396482,note_off,,,,,10,0,0,,,4,,,57,64
396483,note_off,,,,,1,0,0,,,4,,,61,64
396574,note_on,,,,,91,0,0,,,4,,,57,127
396574,note_on,,,,,0,0,0,,,4,,,54,127
396586,note_off,,,,,12,0,0,,,4,,,59,64
396586,note_off,,,,,0,0,0,,,4,,,56,64
396676,note_on,,,,,90,0,0,,,1,,,80,104
396677,note_on,,,,,1,0,0,,,4,,,56,127
396678,note_on,,,,,1,0,0,,,4,,,52,127
396688,note_off,,,,,10,0,0,,,4,,,54,64
396688,note_off,,,,,0,0,0,,,4,,,57,64
396693,note_off,,,,,5,0,0,,,1,,,86,64
396781,note_on,,,,,88,0,0,,,4,,,57,127
396781,note_on,,,,,0,0,0,,,4,,,54,127
396792,note_off,,,,,11,0,0,,,4,,,56,64
396792,note_off,,,,,0,0,0,,,4,,,52,64
396865,note_off,,,,,73,0,0,,,1,,,80,64
396883,note_on,,,,,18,0,0,,,4,,,59,127
396883,note_on,,,,,0,0,0,,,1,,,83,104
396884,note_on,,,,,1,0,0,,,4,,,56,127
396893,note_off,,,,,9,0,0,,,4,,,54,64
396894,note_off,,,,,1,0,0,,,4,,,57,64
396986,note_on,,,,,92,0,0,,,4,,,61,127
396987,note_on,,,,,1,0,0,,,4,,,57,127
396997,note_off,,,,,10,0,0,,,4,,,59,64
396997,note_off,,,,,0,0,0,,,4,,,56,64
397088,note_on,,,,,91,0,0,,,2,,,76,107
397089,note_on,,,,,1,0,0,,,4,,,62,127
397089,note_on,,,,,0,0,0,,,4,,,59,127
397091,note_off,,,,,2,0,0,,,1,,,83,64
397101,note_off,,,,,10,0,0,,,4,,,57,64
397101,note_off,,,,,0,0,0,,,4,,,61,64
397182,note_off,,,,,81,0,0,,,4,,,59,64
397192,note_off,,,,,10,0,0,,,4,,,62,64
397192,note_on,,,,,0,0,0,,,4,,,59,127
397193,note_on,,,,,1,0,0,,,4,,,56,127
397277,note_off,,,,,84,0,0,,,2,,,76,64
397293,note_on,,,,,16,0,0,,,2,,,76,107
397295,note_off,,,,,2,0,0,,,4,,,59,64
397295,note_off,,,,,0,0,0,,,4,,,56,64
397296,note_on,,,,,1,0,0,,,4,,,57,127
397296,note_on,,,,,0,0,0,,,4,,,61,127
397433,note_off,,,,,137,0,0,,,2,,,76,64
397448,note_on,,,,,15,0,0,,,1,,,81,104
397496,note_on,,,,,48,0,0,,,1,,,78,104
397497,note_on,,,,,1,0,0,,,4,,,50,127
397497,note_on,,,,,0,0,0,,,4,,,59,127
397500,note_off,,,,,3,0,0,,,4,,,61,64
397500,note_off,,,,,0,0,0,,,4,,,57,64
397505,note_off,,,,,5,0,0,,,1,,,81,64
397649,note_off,,,,,144,0,0,,,1,,,78,64
397651,note_on,,,,,2,0,0,,,2,,,74,107
397700,note_off,,,,,49,0,0,,,2,,,74,64
397700,note_on,,,,,0,0,0,,,2,,,73,107
397701,note_on,,,,,1,0,0,,,4,,,57,127
397701,note_on,,,,,0,0,0,,,4,,,52,127
397704,note_off,,,,,3,0,0,,,4,,,59,64
397704,note_off,,,,,0,0,0,,,4,,,50,64
397847,note_off,,,,,143,0,0,,,2,,,73,64
397854,note_on,,,,,7,0,0,,,2,,,76,107
397896,note_off,,,,,42,0,0,,,4,,,52,64
397897,note_off,,,,,1,0,0,,,4,,,57,64
397903,note_off,,,,,6,0,0,,,2,,,76,64
397904,note_on,,,,,1,0,0,,,4,,,56,127
397904,note_on,,,,,0,0,0,,,2,,,74,107
397905,note_on,,,,,1,0,0,,,4,,,52,127
398043,note_off,,,,,138,0,0,,,2,,,74,64
398057,note_on,,,,,14,0,0,,,2,,,71,111
398100,note_off,,,,,43,0,0,,,2,,,71,64
398101,note_off,,,,,1,0,0,,,4,,,56,64
398101,note_off,,,,,0,0,0,,,4,,,52,64
398110,note_on,,,,,9,0,0,,,4,,,56,127
398110,note_on,,,,,0,0,0,,,2,,,71,111
398302,note_off,,,,,192,0,0,,,4,,,56,64
398310,note_off,,,,,8,0,0,,,2,,,71,64
398312,note_on,,,,,2,0,0,,,2,,,69,113
398313,note_on,,,,,1,0,0,,,4,,,57,127
398508,note_off,,,,,195,0,0,,,2,,,69,64
398508,note_on,,,,,0,0,0,,,4,,,45,127
398510,note_off,,,,,2,0,0,,,4,,,57,64
398933,note_on,,,,,423,0,0,,,1,,,81,104
399021,note_off,,,,,88,0,0,,,1,,,81,64
399050,note_on,,,,,29,0,0,,,1,,,81,104
399132,note_off,,,,,82,0,0,,,1,,,81,64
399159,note_on,,,,,27,0,0,,,1,,,81,104
399259,note_off,,,,,100,0,0,,,1,,,81,64
399268,note_on,,,,,9,0,0,,,1,,,81,104
399364,note_off,,,,,96,0,0,,,1,,,81,64
399372,note_off,,,,,8,0,0,,,4,,,45,64
399372,note_on,,,,,0,0,0,,,1,,,81,104
399372,note_on,,,,,0,0,0,,,4,,,66,123
399373,note_on,,,,,1,0,0,,,4,,,62,127
399477,note_on,,,,,104,0,0,,,2,,,67,123
399478,note_on,,,,,1,0,0,,,4,,,64,121
399490,note_off,,,,,12,0,0,,,4,,,62,64
399490,note_off,,,,,0,0,0,,,4,,,66,64
399581,note_on,,,,,91,0,0,,,2,,,69,113
399581,note_on,,,,,0,0,0,,,2,,,74,107
399582,note_on,,,,,1,0,0,,,4,,,66,123
399591,note_off,,,,,9,0,0,,,4,,,64,64
399592,note_off,,,,,1,0,0,,,2,,,67,64
399592,note_off,,,,,0,0,0,,,1,,,81,64
399677,note_off,,,,,85,0,0,,,4,,,66,64
399684,note_on,,,,,7,0,0,,,4,,,66,123
399685,note_on,,,,,1,0,0,,,4,,,62,127
399697,note_off,,,,,12,0,0,,,2,,,69,64
399755,note_off,,,,,58,0,0,,,2,,,74,64
399781,note_off,,,,,26,0,0,,,4,,,62,64
399789,note_off,,,,,8,0,0,,,4,,,66,64
399790,note_on,,,,,1,0,0,,,4,,,62,127
399790,note_on,,,,,0,0,0,,,1,,,86,104
399791,note_on,,,,,1,0,0,,,4,,,59,127
399862,note_off,,,,,71,0,0,,,1,,,86,64
399893,note_off,,,,,31,0,0,,,4,,,62,64
399900,note_on,,,,,7,0,0,,,1,,,86,104
399902,note_off,,,,,2,0,0,,,4,,,59,64
399903,note_on,,,,,1,0,0,,,4,,,64,121
399903,note_on,,,,,0,0,0,,,4,,,61,127
399976,note_off,,,,,73,0,0,,,1,,,86,64
400011,note_on,,,,,35,0,0,,,4,,,66,123
400011,note_on,,,,,0,0,0,,,1,,,86,104
400012,note_off,,,,,1,0,0,,,4,,,61,64
400012,note_off,,,,,0,0,0,,,4,,,64,64
400013,note_on,,,,,1,0,0,,,4,,,62,127
400110,note_off,,,,,97,0,0,,,1,,,86,64
400112,note_off,,,,,2,0,0,,,4,,,62,64
400119,note_off,,,,,7,0,0,,,4,,,66,64
400120,note_on,,,,,1,0,0,,,1,,,86,104
400120,note_on,,,,,0,0,0,,,4,,,62,127
400121,note_on,,,,,1,0,0,,,4,,,59,127
400217,note_off,,,,,96,0,0,,,1,,,86,64
400218,note_off,,,,,1,0,0,,,4,,,59,64
400226,note_off,,,,,8,0,0,,,4,,,62,64
400226,note_on,,,,,0,0,0,,,1,,,86,104
400227,note_on,,,,,1,0,0,,,4,,,55,127
400227,note_on,,,,,0,0,0,,,4,,,59,127
400332,note_off,,,,,105,0,0,,,4,,,59,64
400332,note_off,,,,,0,0,0,,,4,,,55,64
400332,note_on,,,,,0,0,0,,,4,,,61,127
400333,note_on,,,,,1,0,0,,,4,,,57,127
400429,note_off,,,,,96,0,0,,,1,,,86,64
400436,note_on,,,,,7,0,0,,,2,,,76,107
400437,note_off,,,,,1,0,0,,,4,,,57,64
400438,note_off,,,,,1,0,0,,,4,,,61,64
400438,note_on,,,,,0,0,0,,,4,,,62,127
400439,note_on,,,,,1,0,0,,,4,,,59,127
400537,note_off,,,,,98,0,0,,,4,,,59,64
400545,note_off,,,,,8,0,0,,,4,,,62,64
400546,note_on,,,,,1,0,0,,,4,,,55,127
400546,note_on,,,,,0,0,0,,,4,,,59,127
400617,note_off,,,,,71,0,0,,,2,,,76,64
400652,note_off,,,,,35,0,0,,,4,,,55,64
400652,note_on,,,,,0,0,0,,,1,,,79,104
400653,note_off,,,,,1,0,0,,,4,,,59,64
400653,note_on,,,,,0,0,0,,,4,,,61,127
400653,note_on,,,,,0,0,0,,,4,,,57,127
400750,note_off,,,,,97,0,0,,,1,,,79,64
400759,note_on,,,,,9,0,0,,,1,,,79,104
400760,note_off,,,,,1,0,0,,,4,,,57,64
400760,note_off,,,,,0,0,0,,,4,,,61,64
400761,note_on,,,,,1,0,0,,,4,,,59,127
400761,note_on,,,,,0,0,0,,,4,,,62,127
400859,note_off,,,,,98,0,0,,,1,,,79,64
400869,note_off,,,,,10,0,0,,,4,,,59,64
400869,note_on,,,,,0,0,0,,,1,,,79,104
400870,note_off,,,,,1,0,0,,,4,,,62,64
400870,note_on,,,,,0,0,0,,,4,,,64,121
400871,note_on,,,,,1,0,0,,,4,,,61,127
400966,note_off,,,,,95,0,0,,,1,,,79,64
400967,note_off,,,,,1,0,0,,,4,,,61,64
400975,note_on,,,,,8,0,0,,,1,,,79,104
400976,note_off,,,,,1,0,0,,,4,,,64,64
400976,note_on,,,,,0,0,0,,,4,,,61,127
400977,note_on,,,,,1,0,0,,,4,,,57,127
401071,note_off,,,,,94,0,0,,,1,,,79,64
401079,note_on,,,,,8,0,0,,,1,,,78,104
401080,note_off,,,,,1,0,0,,,4,,,57,64
401081,note_off,,,,,1,0,0,,,4,,,61,64
401081,note_on,,,,,0,0,0,,,4,,,62,127
401235,note_on,,,,,154,0,0,,,2,,,74,107
401276,note_off,,,,,41,0,0,,,1,,,78,64
401283,note_on,,,,,7,0,0,,,1,,,81,104
401284,note_on,,,,,1,0,0,,,4,,,60,127
401288,note_off,,,,,4,0,0,,,4,,,62,64
401309,note_off,,,,,21,0,0,,,2,,,74,64
401430,note_off,,,,,121,0,0,,,1,,,81,64
401438,note_on,,,,,8,0,0,,,1,,,78,104
401488,note_on,,,,,50,0,0,,,4,,,59,127
401488,note_on,,,,,0,0,0,,,1,,,79,104
401491,note_off,,,,,3,0,0,,,4,,,60,64
401496,note_off,,,,,5,0,0,,,1,,,78,64
401640,note_on,,,,,144,0,0,,,2,,,74,107
401681,note_off,,,,,41,0,0,,,1,,,79,64
401690,note_on,,,,,9,0,0,,,1,,,83,104
401691,note_on,,,,,1,0,0,,,4,,,55,127
401691,note_on,,,,,0,0,0,,,1,,,79,104
401693,note_off,,,,,2,0,0,,,4,,,59,64
401716,note_off,,,,,23,0,0,,,2,,,74,64
401837,note_off,,,,,121,0,0,,,1,,,79,64
401838,note_off,,,,,1,0,0,,,1,,,83,64
401846,note_on,,,,,8,0,0,,,1,,,79,104
401846,note_on,,,,,0,0,0,,,2,,,76,107
401893,note_off,,,,,47,0,0,,,2,,,76,64
401893,note_off,,,,,0,0,0,,,1,,,79,64
401902,note_on,,,,,9,0,0,,,2,,,74,107
401902,note_on,,,,,0,0,0,,,1,,,78,104
401903,note_on,,,,,1,0,0,,,4,,,57,127
401906,note_off,,,,,3,0,0,,,4,,,55,64
402114,note_on,,,,,208,0,0,,,2,,,73,107
402114,note_on,,,,,0,0,0,,,2,,,76,107
402119,note_off,,,,,5,0,0,,,1,,,78,64
402119,note_off,,,,,0,0,0,,,2,,,74,64
402329,note_on,,,,,210,0,0,,,1,,,81,104
402333,note_off,,,,,4,0,0,,,2,,,76,64
402333,note_off,,,,,0,0,0,,,2,,,73,64
402420,note_off,,,,,87,0,0,,,1,,,81,64
402439,note_on,,,,,19,0,0,,,1,,,81,104
402528,note_off,,,,,89,0,0,,,1,,,81,64
402545,note_on,,,,,17,0,0,,,1,,,81,104
402639,note_off,,,,,94,0,0,,,1,,,81,64
402647,note_on,,,,,8,0,0,,,1,,,81,104
402743,note_off,,,,,96,0,0,,,1,,,81,64
402752,note_on,,,,,9,0,0,,,1,,,81,104
402753,note_on,,,,,1,0,0,,,4,,,66,123
402753,note_on,,,,,0,0,0,,,4,,,62,127
402754,note_off,,,,,1,0,0,,,4,,,57,64
402856,note_on,,,,,102,0,0,,,4,,,64,121
402856,note_on,,,,,0,0,0,,,2,,,67,123
402868,note_off,,,,,12,0,0,,,4,,,62,64
402869,note_off,,,,,1,0,0,,,4,,,66,64
402964,note_on,,,,,95,0,0,,,2,,,74,107
402964,note_on,,,,,0,0,0,,,2,,,69,113
402965,note_on,,,,,1,0,0,,,4,,,66,123
402966,note_off,,,,,1,0,0,,,1,,,81,64
402974,note_off,,,,,8,0,0,,,2,,,67,64
402974,note_off,,,,,0,0,0,,,4,,,64,64
403069,note_on,,,,,95,0,0,,,2,,,67,123
403070,note_on,,,,,1,0,0,,,4,,,64,121
403081,note_off,,,,,11,0,0,,,4,,,66,64
403082,note_off,,,,,1,0,0,,,2,,,69,64
403174,note_off,,,,,92,0,0,,,2,,,74,64
403175,note_on,,,,,1,0,0,,,4,,,62,127
403175,note_on,,,,,0,0,0,,,4,,,66,123
403175,note_on,,,,,0,0,0,,,1,,,86,104
403185,note_off,,,,,10,0,0,,,4,,,64,64
403186,note_off,,,,,1,0,0,,,2,,,67,64
403246,note_off,,,,,60,0,0,,,1,,,86,64
403283,note_on,,,,,37,0,0,,,1,,,86,104
403283,note_on,,,,,0,0,0,,,4,,,64,121
403284,note_on,,,,,1,0,0,,,4,,,61,127
403295,note_off,,,,,11,0,0,,,4,,,62,64
403296,note_off,,,,,1,0,0,,,4,,,66,64
403354,note_off,,,,,58,0,0,,,1,,,86,64
403388,note_on,,,,,34,0,0,,,1,,,86,104
403389,note_on,,,,,1,0,0,,,4,,,59,127
403389,note_on,,,,,0,0,0,,,4,,,62,127
403401,note_off,,,,,12,0,0,,,4,,,61,64
403401,note_off,,,,,0,0,0,,,4,,,64,64
403484,note_off,,,,,83,0,0,,,1,,,86,64
403494,note_on,,,,,10,0,0,,,1,,,86,104
403494,note_on,,,,,0,0,0,,,4,,,61,127
403495,note_on,,,,,1,0,0,,,4,,,57,127
403504,note_off,,,,,9,0,0,,,4,,,62,64
403504,note_off,,,,,0,0,0,,,4,,,59,64
403586,note_off,,,,,82,0,0,,,1,,,86,64
403594,note_on,,,,,8,0,0,,,4,,,59,127
403594,note_on,,,,,0,0,0,,,1,,,86,104
403595,note_on,,,,,1,0,0,,,4,,,56,127
403604,note_off,,,,,9,0,0,,,4,,,57,64
403604,note_off,,,,,0,0,0,,,4,,,61,64
403695,note_on,,,,,91,0,0,,,4,,,57,127
403696,note_on,,,,,1,0,0,,,4,,,54,127
403708,note_off,,,,,12,0,0,,,4,,,59,64
403708,note_off,,,,,0,0,0,,,4,,,56,64
403799,note_on,,,,,91,0,0,,,1,,,80,104
403800,note_on,,,,,1,0,0,,,4,,,56,127
403800,note_on,,,,,0,0,0,,,4,,,52,127
403808,note_off,,,,,8,0,0,,,1,,,86,64
403810,note_off,,,,,2,0,0,,,4,,,54,64
403810,note_off,,,,,0,0,0,,,4,,,57,64
403901,note_on,,,,,91,0,0,,,4,,,54,127
403901,note_on,,,,,0,0,0,,,4,,,57,127
403912,note_off,,,,,11,0,0,,,4,,,52,64
403913,note_off,,,,,1,0,0,,,4,,,56,64
404005,note_on,,,,,92,0,0,,,1,,,83,104
404006,note_on,,,,,1,0,0,,,4,,,59,127
404006,note_on,,,,,0,0,0,,,4,,,56,127
404008,note_off,,,,,2,0,0,,,1,,,80,64
404016,note_off,,,,,8,0,0,,,4,,,57,64
404016,note_off,,,,,0,0,0,,,4,,,54,64
404107,note_on,,,,,91,0,0,,,4,,,61,127
404108,note_on,,,,,1,0,0,,,4,,,57,127
404120,note_off,,,,,12,0,0,,,4,,,56,64
404120,note_off,,,,,0,0,0,,,4,,,59,64
404211,note_on,,,,,91,0,0,,,2,,,76,107
404211,note_on,,,,,0,0,0,,,4,,,62,127
404212,note_on,,,,,1,0,0,,,4,,,59,127
404214,note_off,,,,,2,0,0,,,1,,,83,64
404221,note_off,,,,,7,0,0,,,4,,,57,64
404222,note_off,,,,,1,0,0,,,4,,,61,64
404305,note_off,,,,,83,0,0,,,4,,,59,64
404313,note_off,,,,,8,0,0,,,4,,,62,64
404313,note_on,,,,,0,0,0,,,4,,,59,127
404314,note_on,,,,,1,0,0,,,4,,,56,127
404410,note_off,,,,,96,0,0,,,2,,,76,64
404415,note_off,,,,,5,0,0,,,4,,,56,64
404416,note_off,,,,,1,0,0,,,4,,,59,64
404416,note_on,,,,,0,0,0,,,2,,,76,107
404417,note_on,,,,,1,0,0,,,4,,,61,127
404417,note_on,,,,,0,0,0,,,4,,,57,127
404571,note_on,,,,,154,0,0,,,1,,,81,104
404582,note_off,,,,,11,0,0,,,2,,,76,64
404621,note_off,,,,,39,0,0,,,1,,,81,64
404621,note_on,,,,,0,0,0,,,1,,,78,104
404622,note_on,,,,,1,0,0,,,4,,,50,127
404622,note_on,,,,,0,0,0,,,4,,,59,127
404625,note_off,,,,,3,0,0,,,4,,,57,64
404625,note_off,,,,,0,0,0,,,4,,,61,64
404775,note_on,,,,,150,0,0,,,2,,,74,107
404781,note_off,,,,,6,0,0,,,1,,,78,64
404825,note_off,,,,,44,0,0,,,2,,,74,64
404826,note_on,,,,,1,0,0,,,4,,,57,127
404826,note_on,,,,,0,0,0,,,2,,,73,107
404827,note_off,,,,,1,0,0,,,4,,,50,64
404827,note_on,,,,,0,0,0,,,4,,,52,127
404828,note_off,,,,,1,0,0,,,4,,,59,64
404978,note_on,,,,,150,0,0,,,2,,,76,107
404984,note_off,,,,,6,0,0,,,2,,,73,64
405018,note_off,,,,,34,0,0,,,4,,,52,64
405026,note_off,,,,,8,0,0,,,2,,,76,64
405026,note_on,,,,,0,0,0,,,2,,,74,107
405027,note_on,,,,,1,0,0,,,4,,,52,127
405027,note_on,,,,,0,0,0,,,4,,,56,127
405030,note_off,,,,,3,0,0,,,4,,,57,64
405178,note_off,,,,,148,0,0,,,2,,,74,64
405183,note_on,,,,,5,0,0,,,2,,,71,111
405233,note_off,,,,,50,0,0,,,2,,,71,64
405234,note_off,,,,,1,0,0,,,4,,,56,64
405242,note_on,,,,,8,0,0,,,4,,,56,127
405242,note_on,,,,,0,0,0,,,2,,,71,111
405248,note_off,,,,,6,0,0,,,4,,,52,64
405450,note_off,,,,,202,0,0,,,2,,,71,64
405450,note_on,,,,,0,0,0,,,2,,,69,113
405452,note_off,,,,,2,0,0,,,4,,,56,64
405453,note_on,,,,,1,0,0,,,4,,,57,127
405678,note_off,,,,,225,0,0,,,2,,,69,64
405679,note_off,,,,,1,0,0,,,4,,,57,64
405679,note_on,,,,,0,0,0,,,4,,,45,127
405958,note_on,,,,,279,0,0,,,1,,,84,104
406031,note_off,,,,,73,0,0,,,1,,,84,64
406065,note_on,,,,,34,0,0,,,1,,,84,104
406136,note_off,,,,,71,0,0,,,1,,,84,64
406171,note_on,,,,,35,0,0,,,1,,,84,104
406267,note_off,,,,,96,0,0,,,1,,,84,64
406276,note_on,,,,,9,0,0,,,1,,,84,104
406375,note_off,,,,,99,0,0,,,1,,,84,64
406383,note_on,,,,,8,0,0,,,2,,,75,112
406383,note_on,,,,,0,0,0,,,2,,,72,112
406384,note_on,,,,,1,0,0,,,2,,,69,113
406481,note_on,,,,,97,0,0,,,2,,,71,111
406481,note_on,,,,,0,0,0,,,2,,,76,112
406482,note_on,,,,,1,0,0,,,2,,,68,115
406491,note_off,,,,,9,0,0,,,2,,,69,64
406492,note_off,,,,,1,0,0,,,2,,,72,64
406492,note_off,,,,,0,0,0,,,2,,,75,64
406581,note_on,,,,,89,0,0,,,1,,,82,109
406678,note_off,,,,,97,0,0,,,1,,,82,64
406687,note_on,,,,,9,0,0,,,1,,,83,109
406789,note_off,,,,,102,0,0,,,2,,,71,64
406789,note_off,,,,,0,0,0,,,2,,,68,64
406790,note_off,,,,,1,0,0,,,2,,,76,64
406790,note_on,,,,,0,0,0,,,2,,,73,112
406791,note_on,,,,,1,0,0,,,2,,,67,123
406791,note_on,,,,,0,0,0,,,2,,,70,113
406886,note_off,,,,,95,0,0,,,1,,,83,64
406886,note_on,,,,,0,0,0,,,2,,,74,112
406887,note_on,,,,,1,0,0,,,4,,,66,123
406887,note_on,,,,,0,0,0,,,2,,,69,113
406897,note_off,,,,,10,0,0,,,2,,,67,64
406898,note_off,,,,,1,0,0,,,2,,,73,64
406898,note_off,,,,,0,0,0,,,2,,,70,64
406985,note_on,,,,,87,0,0,,,1,,,80,105
407073,note_off,,,,,88,0,0,,,1,,,80,64
407088,note_on,,,,,15,0,0,,,1,,,81,105
407186,note_off,,,,,98,0,0,,,4,,,66,64
407187,note_off,,,,,1,0,0,,,2,,,74,64
407187,note_off,,,,,0,0,0,,,2,,,69,64
407191,note_off,,,,,4,0,0,,,1,,,81,64
407192,note_on,,,,,1,0,0,,,2,,,74,112
407192,note_on,,,,,0,0,0,,,1,,,86,97
407193,note_on,,,,,1,0,0,,,2,,,71,111
407258,note_off,,,,,65,0,0,,,1,,,86,64
407292,note_on,,,,,34,0,0,,,1,,,86,97
407292,note_on,,,,,0,0,0,,,2,,,73,112
407292,note_on,,,,,0,0,0,,,2,,,69,113
407304,note_off,,,,,12,0,0,,,2,,,74,64
407304,note_off,,,,,0,0,0,,,2,,,71,64
407363,note_off,,,,,59,0,0,,,1,,,86,64
407399,note_on,,,,,36,0,0,,,1,,,86,97
407399,note_on,,,,,0,0,0,,,2,,,71,111
407400,note_on,,,,,1,0,0,,,2,,,67,123
407410,note_off,,,,,10,0,0,,,2,,,69,64
407410,note_off,,,,,0,0,0,,,2,,,73,64
407468,note_off,,,,,58,0,0,,,1,,,86,64
407503,note_on,,,,,35,0,0,,,2,,,69,113
407503,note_on,,,,,0,0,0,,,1,,,86,97
407504,note_on,,,,,1,0,0,,,4,,,66,123
407515,note_off,,,,,11,0,0,,,2,,,67,64
407515,note_off,,,,,0,0,0,,,2,,,71,64
407571,note_off,,,,,56,0,0,,,1,,,86,64
407604,note_on,,,,,33,0,0,,,1,,,86,97
407605,note_on,,,,,1,0,0,,,2,,,71,111
407605,note_on,,,,,0,0,0,,,2,,,67,123
407615,note_off,,,,,10,0,0,,,2,,,69,64
407615,note_off,,,,,0,0,0,,,4,,,66,64
407700,note_off,,,,,85,0,0,,,1,,,86,64
407710,note_on,,,,,10,0,0,,,2,,,69,113
407710,note_on,,,,,0,0,0,,,1,,,86,97
407711,note_on,,,,,1,0,0,,,4,,,66,123
407720,note_off,,,,,9,0,0,,,2,,,67,64
407721,note_off,,,,,1,0,0,,,2,,,71,64
407727,note_off,,,,,6,0,0,,,4,,,45,64
407806,note_off,,,,,79,0,0,,,1,,,86,64
407816,note_on,,,,,10,0,0,,,1,,,86,100
407816,note_on,,,,,0,0,0,,,2,,,67,123
407817,note_on,,,,,1,0,0,,,4,,,64,121
407826,note_off,,,,,9,0,0,,,2,,,69,64
407826,note_off,,,,,0,0,0,,,4,,,66,64
407910,note_off,,,,,84,0,0,,,1,,,86,64
407918,note_on,,,,,8,0,0,,,1,,,86,100
407919,note_on,,,,,1,0,0,,,4,,,62,127
407919,note_on,,,,,0,0,0,,,4,,,66,123
407929,note_off,,,,,10,0,0,,,4,,,64,64
407930,note_off,,,,,1,0,0,,,2,,,67,64
408010,note_off,,,,,80,0,0,,,1,,,86,64
408017,note_on,,,,,7,0,0,,,1,,,79,105
408018,note_on,,,,,1,0,0,,,2,,,69,113
408018,note_on,,,,,0,0,0,,,4,,,61,127
408028,note_off,,,,,10,0,0,,,4,,,62,64
408029,note_off,,,,,1,0,0,,,4,,,66,64
408172,note_on,,,,,143,0,0,,,1,,,81,105
408175,note_off,,,,,3,0,0,,,1,,,79,64
408222,note_off,,,,,47,0,0,,,1,,,81,64
408222,note_on,,,,,0,0,0,,,1,,,78,105
408223,note_on,,,,,1,0,0,,,4,,,62,127
408225,note_off,,,,,2,0,0,,,4,,,61,64
408373,note_off,,,,,148,0,0,,,1,,,78,64
408377,note_on,,,,,4,0,0,,,2,,,74,112
408427,note_off,,,,,50,0,0,,,2,,,74,64
408428,note_on,,,,,1,0,0,,,4,,,61,127
408428,note_on,,,,,0,0,0,,,2,,,76,108
408430,note_off,,,,,2,0,0,,,4,,,62,64
408578,note_off,,,,,148,0,0,,,2,,,76,64
408578,note_on,,,,,0,0,0,,,1,,,81,105
408627,note_off,,,,,49,0,0,,,1,,,81,64
408627,note_on,,,,,0,0,0,,,1,,,80,105
408628,note_on,,,,,1,0,0,,,4,,,59,127
408628,note_on,,,,,0,0,0,,,4,,,62,127
408631,note_off,,,,,3,0,0,,,4,,,61,64
408779,note_off,,,,,148,0,0,,,1,,,80,64
408782,note_off,,,,,3,0,0,,,2,,,69,64
408783,note_on,,,,,1,0,0,,,2,,,74,112
408783,note_on,,,,,0,0,0,,,2,,,68,115
408829,note_off,,,,,46,0,0,,,2,,,68,64
408830,note_off,,,,,1,0,0,,,2,,,74,64
408838,note_on,,,,,8,0,0,,,1,,,78,105
408839,note_on,,,,,1,0,0,,,2,,,69,113
408839,note_on,,,,,0,0,0,,,2,,,74,112
408840,note_on,,,,,1,0,0,,,4,,,57,127
408842,note_off,,,,,2,0,0,,,4,,,62,64
408842,note_off,,,,,0,0,0,,,4,,,59,64
409035,note_off,,,,,193,0,0,,,1,,,78,64
409035,note_off,,,,,0,0,0,,,2,,,74,64
409044,note_on,,,,,9,0,0,,,2,,,73,112
409044,note_on,,,,,0,0,0,,,2,,,76,108
409240,note_off,,,,,196,0,0,,,2,,,73,64
409241,note_off,,,,,1,0,0,,,2,,,76,64
409249,note_on,,,,,8,0,0,,,1,,,88,106
409320,note_off,,,,,71,0,0,,,1,,,88,64
409356,note_on,,,,,36,0,0,,,1,,,88,106
409428,note_off,,,,,72,0,0,,,1,,,88,64
409464,note_on,,,,,36,0,0,,,1,,,88,106
409560,note_off,,,,,96,0,0,,,1,,,88,64
409568,note_on,,,,,8,0,0,,,1,,,88,106
409662,note_off,,,,,94,0,0,,,1,,,88,64
409671,note_on,,,,,9,0,0,,,1,,,88,106
409877,note_off,,,,,206,0,0,,,2,,,69,64
409877,note_on,,,,,0,0,0,,,1,,,81,109
409884,note_off,,,,,7,0,0,,,1,,,88,64
410084,note_off,,,,,200,0,0,,,1,,,81,64
410084,note_on,,,,,0,0,0,,,2,,,69,113
410158,note_off,,,,,74,0,0,,,2,,,69,64
410194,note_on,,,,,36,0,0,,,2,,,69,113
410269,note_off,,,,,75,0,0,,,2,,,69,64
410305,note_on,,,,,36,0,0,,,2,,,69,113
410405,note_off,,,,,100,0,0,,,2,,,69,64
410413,note_on,,,,,8,0,0,,,2,,,69,119
410513,note_off,,,,,100,0,0,,,2,,,69,64
410522,note_on,,,,,9,0,0,,,1,,,78,100
410523,note_on,,,,,1,0,0,,,2,,,69,119
410523,note_on,,,,,0,0,0,,,2,,,74,103
410625,note_on,,,,,102,0,0,,,1,,,79,100
410626,note_on,,,,,1,0,0,,,2,,,76,103
410635,note_off,,,,,9,0,0,,,2,,,74,64
410636,note_off,,,,,1,0,0,,,1,,,78,64
410727,note_on,,,,,91,0,0,,,1,,,81,100
410727,note_on,,,,,0,0,0,,,1,,,78,100
410728,note_on,,,,,1,0,0,,,4,,,62,127
410737,note_off,,,,,9,0,0,,,2,,,69,64
410738,note_off,,,,,1,0,0,,,1,,,79,64
410738,note_off,,,,,0,0,0,,,2,,,76,64
410830,note_on,,,,,92,0,0,,,1,,,79,100
410830,note_on,,,,,0,0,0,,,1,,,83,100
410840,note_off,,,,,10,0,0,,,1,,,78,64
410841,note_off,,,,,1,0,0,,,1,,,81,64
410847,note_off,,,,,6,0,0,,,4,,,57,64
410899,note_off,,,,,52,0,0,,,4,,,62,64
410933,note_on,,,,,34,0,0,,,1,,,81,100
410934,note_on,,,,,1,0,0,,,1,,,78,100
410934,note_on,,,,,0,0,0,,,4,,,62,127
410944,note_off,,,,,10,0,0,,,1,,,83,64
410944,note_off,,,,,0,0,0,,,1,,,79,64
411002,note_off,,,,,58,0,0,,,4,,,62,64
411037,note_on,,,,,35,0,0,,,1,,,79,100
411037,note_on,,,,,0,0,0,,,1,,,83,100
411038,note_on,,,,,1,0,0,,,4,,,62,127
411049,note_off,,,,,11,0,0,,,1,,,78,64
411050,note_off,,,,,1,0,0,,,1,,,81,64
411110,note_off,,,,,60,0,0,,,4,,,62,64
411144,note_on,,,,,34,0,0,,,1,,,85,100
411145,note_on,,,,,1,0,0,,,2,,,76,103
411145,note_on,,,,,0,0,0,,,4,,,62,127
411157,note_off,,,,,12,0,0,,,1,,,83,64
411157,note_off,,,,,0,0,0,,,1,,,79,64
411240,note_off,,,,,83,0,0,,,4,,,62,64
411250,note_on,,,,,10,0,0,,,1,,,86,100
411251,note_on,,,,,1,0,0,,,1,,,78,100
411251,note_on,,,,,0,0,0,,,4,,,62,127
411261,note_off,,,,,10,0,0,,,2,,,76,64
411261,note_off,,,,,0,0,0,,,1,,,85,64
411340,note_off,,,,,79,0,0,,,4,,,62,64
411348,note_on,,,,,8,0,0,,,1,,,79,100
411348,note_on,,,,,0,0,0,,,1,,,83,100
411349,note_on,,,,,1,0,0,,,4,,,62,127
411360,note_off,,,,,11,0,0,,,1,,,78,64
411361,note_off,,,,,1,0,0,,,1,,,86,64
411452,note_on,,,,,91,0,0,,,1,,,85,100
411452,note_on,,,,,0,0,0,,,1,,,81,100
411462,note_off,,,,,10,0,0,,,1,,,79,64
411463,note_off,,,,,1,0,0,,,1,,,83,64
411553,note_off,,,,,90,0,0,,,4,,,62,64
411554,note_on,,,,,1,0,0,,,1,,,83,100
411554,note_on,,,,,0,0,0,,,1,,,86,100
411555,note_on,,,,,1,0,0,,,4,,,55,127
411565,note_off,,,,,10,0,0,,,1,,,81,64
411565,note_off,,,,,0,0,0,,,1,,,85,64
411650,note_off,,,,,85,0,0,,,1,,,83,64
411660,note_off,,,,,10,0,0,,,1,,,86,64
411660,note_on,,,,,0,0,0,,,1,,,83,100
411661,note_on,,,,,1,0,0,,,1,,,79,100
411755,note_off,,,,,94,0,0,,,1,,,79,64
411756,note_off,,,,,1,0,0,,,4,,,55,64
411764,note_off,,,,,8,0,0,,,1,,,83,64
411764,note_on,,,,,0,0,0,,,1,,,79,100
411765,note_on,,,,,1,0,0,,,4,,,55,127
411765,note_on,,,,,0,0,0,,,2,,,76,103
411867,note_off,,,,,102,0,0,,,2,,,76,64
411868,note_off,,,,,1,0,0,,,1,,,79,64
411868,note_on,,,,,0,0,0,,,1,,,81,100
411869,note_on,,,,,1,0,0,,,1,,,78,100
411960,note_off,,,,,91,0,0,,,4,,,55,64
411969,note_off,,,,,9,0,0,,,1,,,78,64
411970,note_off,,,,,1,0,0,,,1,,,81,64
411970,note_on,,,,,0,0,0,,,1,,,83,100
411971,note_on,,,,,1,0,0,,,4,,,49,127
411971,note_on,,,,,0,0,0,,,1,,,79,100
412065,note_off,,,,,94,0,0,,,1,,,79,64
412073,note_off,,,,,8,0,0,,,1,,,83,64
412073,note_on,,,,,0,0,0,,,1,,,79,100
412074,note_on,,,,,1,0,0,,,2,,,76,103
412166,note_off,,,,,92,0,0,,,4,,,49,64
412175,note_off,,,,,9,0,0,,,1,,,79,64
412175,note_off,,,,,0,0,0,,,2,,,76,64
412176,note_on,,,,,1,0,0,,,4,,,50,127
412176,note_on,,,,,0,0,0,,,2,,,74,103
412176,note_on,,,,,0,0,0,,,1,,,78,100
412329,note_on,,,,,153,0,0,,,1,,,86,100
412369,note_off,,,,,40,0,0,,,2,,,74,64
412369,note_off,,,,,0,0,0,,,4,,,50,64
412370,note_off,,,,,1,0,0,,,1,,,78,64
412378,note_off,,,,,8,0,0,,,1,,,86,64
412378,note_on,,,,,0,0,0,,,4,,,64,127
412378,note_on,,,,,0,0,0,,,1,,,83,100
412379,note_on,,,,,1,0,0,,,4,,,55,127
412529,note_off,,,,,150,0,0,,,1,,,83,64
412531,note_on,,,,,2,0,0,,,1,,,79,100
412573,note_off,,,,,42,0,0,,,4,,,55,64
412574,note_off,,,,,1,0,0,,,4,,,64,64
412580,note_on,,,,,6,0,0,,,1,,,78,100
412581,note_on,,,,,1,0,0,,,4,,,62,127
412581,note_on,,,,,0,0,0,,,4,,,57,127
412589,note_off,,,,,8,0,0,,,1,,,79,64
412734,note_on,,,,,145,0,0,,,1,,,81,100
412739,note_off,,,,,5,0,0,,,1,,,78,64
412776,note_off,,,,,37,0,0,,,4,,,57,64
412776,note_off,,,,,0,0,0,,,4,,,62,64
412785,note_off,,,,,9,0,0,,,1,,,81,64
412785,note_on,,,,,0,0,0,,,1,,,79,100
412786,note_on,,,,,1,0,0,,,4,,,57,127
412786,note_on,,,,,0,0,0,,,4,,,61,127
412894,note_on,,,,,108,0,0,,,2,,,76,103
412931,note_off,,,,,37,0,0,,,1,,,79,64
413013,note_off,,,,,82,0,0,,,4,,,57,64
413014,note_off,,,,,1,0,0,,,4,,,61,64
413017,note_off,,,,,3,0,0,,,2,,,76,64
413028,note_on,,,,,11,0,0,,,4,,,61,127
413028,note_on,,,,,0,0,0,,,2,,,76,103
413255,note_off,,,,,227,0,0,,,4,,,61,64
413256,note_off,,,,,1,0,0,,,2,,,76,64
413256,note_on,,,,,0,0,0,,,4,,,62,127
413256,note_on,,,,,0,0,0,,,2,,,74,103
413487,note_off,,,,,231,0,0,,,4,,,62,64
413488,note_off,,,,,1,0,0,,,2,,,74,64
413488,note_on,,,,,0,0,0,,,4,,,50,127
413857,note_on,,,,,369,0,0,,,1,,,84,104
413930,note_off,,,,,73,0,0,,,1,,,84,64
413966,note_on,,,,,36,0,0,,,1,,,84,104
414039,note_off,,,,,73,0,0,,,1,,,84,64
414076,note_on,,,,,37,0,0,,,1,,,84,104
414175,note_off,,,,,99,0,0,,,1,,,84,64
414182,note_on,,,,,7,0,0,,,1,,,84,104
414276,note_off,,,,,94,0,0,,,1,,,84,64
414286,note_on,,,,,10,0,0,,,2,,,75,112
414287,note_on,,,,,1,0,0,,,2,,,72,112
414287,note_on,,,,,0,0,0,,,2,,,69,113
414383,note_on,,,,,96,0,0,,,2,,,76,112
414384,note_on,,,,,1,0,0,,,2,,,68,115
414384,note_on,,,,,0,0,0,,,2,,,71,111
414394,note_off,,,,,10,0,0,,,2,,,69,64
414394,note_off,,,,,0,0,0,,,2,,,72,64
414395,note_off,,,,,1,0,0,,,2,,,75,64
414483,note_on,,,,,88,0,0,,,1,,,82,109
414583,note_off,,,,,100,0,0,,,1,,,82,64
414589,note_on,,,,,6,0,0,,,1,,,83,109
414691,note_off,,,,,102,0,0,,,2,,,71,64
414691,note_off,,,,,0,0,0,,,2,,,68,64
414692,note_off,,,,,1,0,0,,,2,,,76,64
414692,note_on,,,,,0,0,0,,,2,,,70,113
414692,note_on,,,,,0,0,0,,,2,,,73,112
414693,note_on,,,,,1,0,0,,,2,,,67,123
414782,note_off,,,,,89,0,0,,,1,,,83,64
414792,note_on,,,,,10,0,0,,,4,,,66,123
414792,note_on,,,,,0,0,0,,,2,,,69,113
414792,note_on,,,,,0,0,0,,,2,,,74,112
414801,note_off,,,,,9,0,0,,,2,,,70,64
414801,note_off,,,,,0,0,0,,,2,,,67,64
414802,note_off,,,,,1,0,0,,,2,,,73,64
414892,note_on,,,,,90,0,0,,,1,,,80,105
414976,note_off,,,,,84,0,0,,,1,,,80,64
414998,note_on,,,,,22,0,0,,,1,,,81,105
415095,note_off,,,,,97,0,0,,,2,,,74,64
415102,note_off,,,,,7,0,0,,,1,,,81,64
415102,note_off,,,,,0,0,0,,,4,,,66,64
415103,note_off,,,,,1,0,0,,,2,,,69,64
415103,note_on,,,,,0,0,0,,,1,,,86,97
415104,note_on,,,,,1,0,0,,,2,,,71,111
415104,note_on,,,,,0,0,0,,,2,,,74,112
415172,note_off,,,,,68,0,0,,,1,,,86,64
415206,note_on,,,,,34,0,0,,,1,,,86,97
415207,note_on,,,,,1,0,0,,,2,,,73,112
415207,note_on,,,,,0,0,0,,,2,,,69,113
415216,note_off,,,,,9,0,0,,,2,,,71,64
415217,note_off,,,,,1,0,0,,,2,,,74,64
415279,note_off,,,,,62,0,0,,,1,,,86,64
415314,note_on,,,,,35,0,0,,,1,,,86,97
415314,note_on,,,,,0,0,0,,,2,,,71,111
415315,note_on,,,,,1,0,0,,,2,,,67,123
415326,note_off,,,,,11,0,0,,,2,,,69,64
415327,note_off,,,,,1,0,0,,,2,,,73,64
415385,note_off,,,,,58,0,0,,,1,,,86,64
415421,note_on,,,,,36,0,0,,,1,,,86,97
415422,note_on,,,,,1,0,0,,,4,,,66,123
415422,note_on,,,,,0,0,0,,,2,,,69,113
415432,note_off,,,,,10,0,0,,,2,,,67,64
415432,note_off,,,,,0,0,0,,,2,,,71,64
415489,note_off,,,,,57,0,0,,,1,,,86,64
415524,note_on,,,,,35,0,0,,,1,,,86,97
415524,note_on,,,,,0,0,0,,,2,,,71,111
415525,note_on,,,,,1,0,0,,,2,,,67,123
415535,note_off,,,,,10,0,0,,,2,,,69,64
415535,note_off,,,,,0,0,0,,,4,,,66,64
415621,note_off,,,,,86,0,0,,,1,,,86,64
415629,note_on,,,,,8,0,0,,,2,,,69,113
415629,note_on,,,,,0,0,0,,,1,,,86,97
415630,note_on,,,,,1,0,0,,,4,,,66,123
415641,note_off,,,,,11,0,0,,,2,,,67,64
415642,note_off,,,,,1,0,0,,,2,,,71,64
415648,note_off,,,,,6,0,0,,,4,,,50,64
415727,note_off,,,,,79,0,0,,,1,,,86,64
415734,note_on,,,,,7,0,0,,,1,,,86,97
415735,note_on,,,,,1,0,0,,,2,,,67,123
415735,note_on,,,,,0,0,0,,,4,,,64,121
415747,note_off,,,,,12,0,0,,,2,,,69,64
415747,note_off,,,,,0,0,0,,,4,,,66,64
415830,note_off,,,,,83,0,0,,,1,,,86,64
415838,note_on,,,,,8,0,0,,,4,,,66,123
415838,note_on,,,,,0,0,0,,,1,,,86,100
415839,note_on,,,,,1,0,0,,,4,,,62,127
415848,note_off,,,,,9,0,0,,,4,,,64,64
415849,note_off,,,,,1,0,0,,,2,,,67,64
415935,note_off,,,,,86,0,0,,,1,,,86,64
415944,note_on,,,,,9,0,0,,,1,,,79,105
415945,note_on,,,,,1,0,0,,,2,,,69,113
415945,note_on,,,,,0,0,0,,,4,,,61,127
415955,note_off,,,,,10,0,0,,,4,,,62,64
415956,note_off,,,,,1,0,0,,,4,,,66,64
416094,note_off,,,,,138,0,0,,,1,,,79,64
416096,note_on,,,,,2,0,0,,,1,,,81,105
416139,note_off,,,,,43,0,0,,,4,,,61,64
416147,note_on,,,,,8,0,0,,,1,,,78,105
416148,note_on,,,,,1,0,0,,,4,,,62,127
416156,note_off,,,,,8,0,0,,,1,,,81,64
416300,note_on,,,,,144,0,0,,,2,,,74,112
416305,note_off,,,,,5,0,0,,,1,,,78,64
416340,note_off,,,,,35,0,0,,,4,,,62,64
416348,note_on,,,,,8,0,0,,,4,,,61,127
416348,note_on,,,,,0,0,0,,,2,,,76,108
416356,note_off,,,,,8,0,0,,,2,,,74,64
416416,note_off,,,,,60,0,0,,,2,,,69,64
416502,note_on,,,,,86,0,0,,,1,,,81,105
416510,note_off,,,,,8,0,0,,,2,,,76,64
416544,note_off,,,,,34,0,0,,,4,,,61,64
416552,note_on,,,,,8,0,0,,,1,,,80,105
416553,note_on,,,,,1,0,0,,,4,,,59,127
416553,note_on,,,,,0,0,0,,,4,,,62,127
416561,note_off,,,,,8,0,0,,,1,,,81,64
416708,note_on,,,,,147,0,0,,,2,,,74,112
416708,note_on,,,,,0,0,0,,,2,,,68,115
416751,note_off,,,,,43,0,0,,,2,,,74,64
416751,note_off,,,,,0,0,0,,,4,,,59,64
416752,note_off,,,,,1,0,0,,,1,,,80,64
416752,note_off,,,,,0,0,0,,,4,,,62,64
416760,note_on,,,,,8,0,0,,,1,,,78,105
416761,note_on,,,,,1,0,0,,,2,,,69,113
416761,note_on,,,,,0,0,0,,,2,,,74,112
416762,note_on,,,,,1,0,0,,,4,,,57,127
416768,note_off,,,,,6,0,0,,,2,,,68,64
416966,note_off,,,,,198,0,0,,,2,,,74,64
416967,note_off,,,,,1,0,0,,,1,,,78,64
416967,note_on,,,,,0,0,0,,,2,,,73,112
416967,note_on,,,,,0,0,0,,,2,,,76,108
417173,note_off,,,,,206,0,0,,,2,,,76,64
417173,note_off,,,,,0,0,0,,,2,,,73,64
417173,note_on,,,,,0,0,0,,,1,,,88,106
417244,note_off,,,,,71,0,0,,,1,,,88,64
417280,note_on,,,,,36,0,0,,,1,,,88,106
417353,note_off,,,,,73,0,0,,,1,,,88,64
417390,note_on,,,,,37,0,0,,,1,,,88,106
417488,note_off,,,,,98,0,0,,,1,,,88,64
417497,note_on,,,,,9,0,0,,,1,,,88,106
417595,note_off,,,,,98,0,0,,,1,,,88,64
417603,note_on,,,,,8,0,0,,,1,,,88,106
417808,note_off,,,,,205,0,0,,,2,,,69,64
417809,note_on,,,,,1,0,0,,,1,,,81,109
417830,note_off,,,,,21,0,0,,,1,,,88,64
418014,note_on,,,,,184,0,0,,,2,,,69,113
418100,note_off,,,,,86,0,0,,,2,,,69,64
418117,note_on,,,,,17,0,0,,,2,,,69,113
418173,note_off,,,,,56,0,0,,,1,,,81,64
418210,note_off,,,,,37,0,0,,,2,,,69,64
418229,note_on,,,,,19,0,0,,,2,,,69,113
418333,note_off,,,,,104,0,0,,,2,,,69,64
418343,note_on,,,,,10,0,0,,,2,,,69,113
418441,note_off,,,,,98,0,0,,,2,,,69,64
418451,note_on,,,,,10,0,0,,,2,,,74,103
418451,note_on,,,,,0,0,0,,,1,,,78,100
418452,note_on,,,,,1,0,0,,,2,,,69,119
418553,note_on,,,,,101,0,0,,,1,,,79,100
418554,note_on,,,,,1,0,0,,,2,,,76,103
418564,note_off,,,,,10,0,0,,,1,,,78,64
418564,note_off,,,,,0,0,0,,,2,,,74,64
418655,note_on,,,,,91,0,0,,,1,,,81,100
418656,note_on,,,,,1,0,0,,,4,,,62,127
418656,note_on,,,,,0,0,0,,,1,,,78,100
418666,note_off,,,,,10,0,0,,,2,,,69,64
418666,note_off,,,,,0,0,0,,,2,,,76,64
418667,note_off,,,,,1,0,0,,,1,,,79,64
418758,note_on,,,,,91,0,0,,,1,,,79,100
418758,note_on,,,,,0,0,0,,,1,,,83,100
418770,note_off,,,,,12,0,0,,,1,,,78,64
418771,note_off,,,,,1,0,0,,,1,,,81,64
418775,note_off,,,,,4,0,0,,,4,,,57,64
418848,note_off,,,,,73,0,0,,,4,,,62,64
418867,note_on,,,,,19,0,0,,,1,,,81,100
418868,note_on,,,,,1,0,0,,,1,,,78,100
418868,note_on,,,,,0,0,0,,,4,,,62,127
418878,note_off,,,,,10,0,0,,,1,,,83,64
418878,note_off,,,,,0,0,0,,,1,,,79,64
418940,note_off,,,,,62,0,0,,,4,,,62,64
418973,note_on,,,,,33,0,0,,,1,,,79,100
418973,note_on,,,,,0,0,0,,,1,,,83,100
418974,note_on,,,,,1,0,0,,,4,,,62,127
418985,note_off,,,,,11,0,0,,,1,,,78,64
418986,note_off,,,,,1,0,0,,,1,,,81,64
419042,note_off,,,,,56,0,0,,,4,,,62,64
419078,note_on,,,,,36,0,0,,,1,,,85,100
419079,note_on,,,,,1,0,0,,,2,,,76,103
419079,note_on,,,,,0,0,0,,,4,,,62,127
419089,note_off,,,,,10,0,0,,,1,,,83,64
419089,note_off,,,,,0,0,0,,,1,,,79,64
419176,note_off,,,,,87,0,0,,,4,,,62,64
419184,note_on,,,,,8,0,0,,,1,,,78,100
419184,note_on,,,,,0,0,0,,,1,,,86,100
419185,note_on,,,,,1,0,0,,,4,,,62,127
419196,note_off,,,,,11,0,0,,,2,,,76,64
419197,note_off,,,,,1,0,0,,,1,,,85,64
419284,note_off,,,,,87,0,0,,,4,,,62,64
419294,note_on,,,,,10,0,0,,,1,,,83,100
419294,note_on,,,,,0,0,0,,,1,,,79,100
419295,note_on,,,,,1,0,0,,,4,,,62,127
419304,note_off,,,,,9,0,0,,,1,,,86,64
419304,note_off,,,,,0,0,0,,,1,,,78,64
419398,note_on,,,,,94,0,0,,,1,,,85,100
419398,note_on,,,,,0,0,0,,,1,,,81,100
419408,note_off,,,,,10,0,0,,,1,,,79,64
419408,note_off,,,,,0,0,0,,,1,,,83,64
419501,note_on,,,,,93,0,0,,,1,,,83,100
419501,note_on,,,,,0,0,0,,,1,,,86,100
419502,note_on,,,,,1,0,0,,,4,,,55,127
419511,note_off,,,,,9,0,0,,,4,,,62,64
419512,note_off,,,,,1,0,0,,,1,,,81,64
419512,note_off,,,,,0,0,0,,,1,,,85,64
419599,note_off,,,,,87,0,0,,,1,,,83,64
419607,note_off,,,,,8,0,0,,,1,,,86,64
419607,note_on,,,,,0,0,0,,,1,,,83,100
419608,note_on,,,,,1,0,0,,,1,,,79,100
419702,note_off,,,,,94,0,0,,,1,,,79,64
419702,note_off,,,,,0,0,0,,,4,,,55,64
419711,note_off,,,,,9,0,0,,,1,,,83,64
419711,note_on,,,,,0,0,0,,,1,,,79,100
419712,note_on,,,,,1,0,0,,,4,,,55,127
419712,note_on,,,,,0,0,0,,,2,,,76,103
419812,note_on,,,,,100,0,0,,,1,,,81,100
419813,note_on,,,,,1,0,0,,,1,,,78,100
419824,note_off,,,,,11,0,0,,,2,,,76,64
419825,note_off,,,,,1,0,0,,,1,,,79,64
419908,note_off,,,,,83,0,0,,,4,,,55,64
419916,note_on,,,,,8,0,0,,,1,,,79,100
419916,note_on,,,,,0,0,0,,,1,,,83,100
419917,note_on,,,,,1,0,0,,,4,,,49,127
419927,note_off,,,,,10,0,0,,,1,,,78,64
419927,note_off,,,,,0,0,0,,,1,,,81,64
420012,note_off,,,,,85,0,0,,,1,,,79,64
420022,note_off,,,,,10,0,0,,,1,,,83,64
420022,note_on,,,,,0,0,0,,,1,,,79,100
420023,note_on,,,,,1,0,0,,,2,,,76,103
420115,note_off,,,,,92,0,0,,,4,,,49,64
420124,note_off,,,,,9,0,0,,,2,,,76,64
420125,note_off,,,,,1,0,0,,,1,,,79,64
420125,note_on,,,,,0,0,0,,,1,,,78,100
420126,note_on,,,,,1,0,0,,,4,,,50,127
420126,note_on,,,,,0,0,0,,,2,,,74,103
420278,note_on,,,,,152,0,0,,,1,,,86,100
420318,note_off,,,,,40,0,0,,,2,,,74,64
420319,note_off,,,,,1,0,0,,,1,,,78,64
420319,note_off,,,,,0,0,0,,,4,,,50,64
420327,note_off,,,,,8,0,0,,,1,,,86,64
420327,note_on,,,,,0,0,0,,,1,,,83,100
420328,note_on,,,,,1,0,0,,,4,,,55,127
420328,note_on,,,,,0,0,0,,,4,,,64,127
420477,note_off,,,,,149,0,0,,,1,,,83,64
420480,note_on,,,,,3,0,0,,,1,,,79,100
420521,note_off,,,,,41,0,0,,,4,,,64,64
420521,note_off,,,,,0,0,0,,,4,,,55,64
420529,note_on,,,,,8,0,0,,,1,,,78,100
420530,note_on,,,,,1,0,0,,,4,,,57,127
420530,note_on,,,,,0,0,0,,,4,,,62,127
420538,note_off,,,,,8,0,0,,,1,,,79,64
420682,note_off,,,,,144,0,0,,,1,,,78,64
420684,note_on,,,,,2,0,0,,,1,,,81,100
420724,note_off,,,,,40,0,0,,,4,,,57,64
420725,note_off,,,,,1,0,0,,,4,,,62,64
420733,note_on,,,,,8,0,0,,,1,,,79,100
420733,note_on,,,,,0,0,0,,,4,,,61,127
420734,note_on,,,,,1,0,0,,,4,,,57,127
420742,note_off,,,,,8,0,0,,,1,,,81,64
420873,note_off,,,,,131,0,0,,,1,,,79,64
420890,note_on,,,,,17,0,0,,,2,,,76,103
420942,note_off,,,,,52,0,0,,,2,,,76,64
420944,note_off,,,,,2,0,0,,,4,,,57,64
420945,note_off,,,,,1,0,0,,,4,,,61,64
420955,note_on,,,,,10,0,0,,,4,,,61,127
420955,note_on,,,,,0,0,0,,,2,,,76,108
421199,note_off,,,,,244,0,0,,,2,,,76,64
421199,note_on,,,,,0,0,0,,,2,,,74,103
421201,note_off,,,,,2,0,0,,,4,,,61,64
421202,note_on,,,,,1,0,0,,,4,,,62,127
421416,note_off,,,,,214,0,0,,,4,,,62,64
421416,note_off,,,,,0,0,0,,,2,,,74,64
421416,note_on,,,,,0,0,0,,,4,,,50,127
421825,note_off,,,,,409,0,0,,,4,,,50,64
422007,note_on,,,,,182,0,0,,,4,,,57,127
422008,note_on,,,,,1,0,0,,,4,,,45,127
422093,note_off,,,,,85,0,0,,,4,,,45,64
422093,note_off,,,,,0,0,0,,,4,,,57,64
422174,note_on,,,,,81,0,0,,,4,,,54,127
422175,note_on,,,,,1,0,0,,,4,,,42,127
422308,note_off,,,,,133,0,0,,,4,,,42,64
422308,note_off,,,,,0,0,0,,,4,,,54,64
422334,note_on,,,,,26,0,0,,,4,,,38,127
422334,note_on,,,,,0,0,0,,,4,,,50,127
422375,note_on,,,,,41,0,0,,,4,,,62,127
422417,note_on,,,,,42,0,0,,,4,,,66,127
422433,note_off,,,,,16,0,0,,,4,,,62,64
422460,note_on,,,,,27,0,0,,,4,,,62,127
422502,note_on,,,,,42,0,0,,,1,,,81,115
422517,note_off,,,,,15,0,0,,,4,,,62,64
422544,note_off,,,,,27,0,0,,,4,,,66,64
422544,note_on,,,,,0,0,0,,,4,,,62,127
422585,note_on,,,,,41,0,0,,,4,,,66,127
422599,note_off,,,,,14,0,0,,,4,,,62,64
422628,note_on,,,,,29,0,0,,,4,,,62,127
422669,note_off,,,,,41,0,0,,,1,,,81,64
422669,note_on,,,,,0,0,0,,,1,,,83,115
422681,note_off,,,,,12,0,0,,,4,,,62,64
422710,note_off,,,,,29,0,0,,,4,,,66,64
422711,note_on,,,,,1,0,0,,,4,,,62,127
422751,note_off,,,,,40,0,0,,,4,,,38,64
422752,note_off,,,,,1,0,0,,,4,,,50,64
422752,note_on,,,,,0,0,0,,,4,,,66,127
422766,note_off,,,,,14,0,0,,,4,,,62,64
422795,note_on,,,,,29,0,0,,,4,,,62,127
422837,note_off,,,,,42,0,0,,,1,,,83,64
422837,note_on,,,,,0,0,0,,,1,,,78,115
422849,note_off,,,,,12,0,0,,,4,,,62,64
422878,note_off,,,,,29,0,0,,,4,,,66,64
422879,note_on,,,,,1,0,0,,,4,,,63,127
422919,note_on,,,,,40,0,0,,,2,,,71,117
422935,note_off,,,,,16,0,0,,,4,,,63,64
422964,note_on,,,,,29,0,0,,,4,,,63,127
423006,note_off,,,,,42,0,0,,,1,,,78,64
423006,note_on,,,,,0,0,0,,,1,,,79,115
423020,note_off,,,,,14,0,0,,,4,,,63,64
423047,note_off,,,,,27,0,0,,,2,,,71,64
423048,note_on,,,,,1,0,0,,,4,,,64,126
423090,note_on,,,,,42,0,0,,,2,,,71,117
423104,note_off,,,,,14,0,0,,,4,,,64,64
423132,note_on,,,,,28,0,0,,,4,,,64,126
423173,note_on,,,,,41,0,0,,,4,,,52,127
423173,note_on,,,,,0,0,0,,,4,,,40,127
423187,note_off,,,,,14,0,0,,,4,,,64,64
423216,note_off,,,,,29,0,0,,,2,,,71,64
423216,note_on,,,,,0,0,0,,,2,,,68,121
423257,note_off,,,,,41,0,0,,,4,,,40,64
423258,note_off,,,,,1,0,0,,,4,,,52,64
423258,note_on,,,,,0,0,0,,,2,,,71,117
423271,note_off,,,,,13,0,0,,,2,,,68,64
423300,note_on,,,,,29,0,0,,,2,,,68,121
423340,note_on,,,,,40,0,0,,,4,,,37,127
423340,note_on,,,,,0,0,0,,,4,,,49,127
423354,note_off,,,,,14,0,0,,,2,,,68,64
423381,note_off,,,,,27,0,0,,,2,,,71,64
423382,note_on,,,,,1,0,0,,,2,,,67,127
423424,note_off,,,,,42,0,0,,,4,,,37,64
423425,note_off,,,,,1,0,0,,,4,,,49,64
423425,note_on,,,,,0,0,0,,,2,,,76,118
423439,note_off,,,,,14,0,0,,,2,,,67,64
423466,note_on,,,,,27,0,0,,,2,,,67,127
423508,note_on,,,,,42,0,0,,,4,,,45,127
423508,note_on,,,,,0,0,0,,,4,,,33,127
423522,note_off,,,,,14,0,0,,,2,,,67,64
423550,note_off,,,,,28,0,0,,,2,,,76,64
423550,note_on,,,,,0,0,0,,,2,,,67,127
423591,note_off,,,,,41,0,0,,,4,,,33,64
423591,note_off,,,,,0,0,0,,,4,,,45,64
423591,note_on,,,,,0,0,0,,,2,,,73,118
423604,note_off,,,,,13,0,0,,,2,,,67,64
423633,note_on,,,,,29,0,0,,,2,,,67,127
423675,note_on,,,,,42,0,0,,,4,,,38,127
423675,note_on,,,,,0,0,0,,,4,,,50,127
423689,note_off,,,,,14,0,0,,,2,,,67,64
423716,note_off,,,,,27,0,0,,,2,,,73,64
423717,note_on,,,,,1,0,0,,,4,,,66,127
423759,note_on,,,,,42,0,0,,,2,,,74,118
423773,note_off,,,,,14,0,0,,,4,,,66,64
423802,note_on,,,,,29,0,0,,,4,,,66,127
423844,note_off,,,,,42,0,0,,,1,,,79,64
423844,note_on,,,,,0,0,0,,,1,,,81,118
423858,note_off,,,,,14,0,0,,,4,,,66,64
423885,note_off,,,,,27,0,0,,,2,,,74,64
423886,note_on,,,,,1,0,0,,,4,,,66,127
423921,note_off,,,,,35,0,0,,,4,,,50,64
423921,note_off,,,,,0,0,0,,,4,,,38,64
423927,note_on,,,,,6,0,0,,,2,,,74,118
423941,note_off,,,,,14,0,0,,,4,,,66,64
423970,note_on,,,,,29,0,0,,,4,,,66,127
424012,note_on,,,,,42,0,0,,,4,,,43,127
424012,note_on,,,,,0,0,0,,,4,,,55,127
424026,note_off,,,,,14,0,0,,,4,,,66,64
424054,note_off,,,,,28,0,0,,,2,,,74,64
424054,note_on,,,,,0,0,0,,,4,,,64,126
424096,note_on,,,,,42,0,0,,,2,,,74,118
424110,note_off,,,,,14,0,0,,,4,,,64,64
424139,note_off,,,,,29,0,0,,,1,,,81,64
424140,note_on,,,,,1,0,0,,,4,,,64,126
424180,note_on,,,,,40,0,0,,,1,,,83,118
424194,note_off,,,,,14,0,0,,,4,,,64,64
424223,note_off,,,,,29,0,0,,,2,,,74,64
424223,note_on,,,,,0,0,0,,,4,,,64,126
424264,note_on,,,,,41,0,0,,,2,,,74,118
424277,note_off,,,,,13,0,0,,,4,,,64,64
424304,note_on,,,,,27,0,0,,,4,,,64,126
424325,note_off,,,,,21,0,0,,,2,,,74,64
424346,note_on,,,,,21,0,0,,,2,,,74,118
424354,note_off,,,,,8,0,0,,,1,,,83,64
424362,note_off,,,,,8,0,0,,,4,,,64,64
424389,note_on,,,,,27,0,0,,,4,,,66,127
424431,note_off,,,,,42,0,0,,,4,,,55,64
424431,note_off,,,,,0,0,0,,,4,,,43,64
424432,note_on,,,,,1,0,0,,,2,,,69,119
424445,note_off,,,,,13,0,0,,,4,,,66,64
424474,note_on,,,,,29,0,0,,,4,,,66,127
424488,note_off,,,,,14,0,0,,,2,,,69,64
424516,note_on,,,,,28,0,0,,,2,,,73,118
424524,note_off,,,,,8,0,0,,,2,,,74,64
424530,note_off,,,,,6,0,0,,,4,,,66,64
424557,note_on,,,,,27,0,0,,,4,,,64,126
424599,note_on,,,,,42,0,0,,,2,,,69,119
424614,note_off,,,,,15,0,0,,,4,,,64,64
424641,note_on,,,,,27,0,0,,,4,,,64,126
424656,note_off,,,,,15,0,0,,,2,,,69,64
424683,note_on,,,,,27,0,0,,,4,,,57,127
424684,note_on,,,,,1,0,0,,,4,,,45,127
424723,note_off,,,,,39,0,0,,,4,,,64,64
424773,note_off,,,,,50,0,0,,,4,,,45,64
424773,note_off,,,,,0,0,0,,,4,,,57,64
424860,note_on,,,,,87,0,0,,,4,,,54,127
424860,note_on,,,,,0,0,0,,,4,,,42,127
424967,note_off,,,,,107,0,0,,,4,,,42,64
424967,note_off,,,,,0,0,0,,,4,,,54,64
425035,note_on,,,,,68,0,0,,,4,,,38,127
425035,note_on,,,,,0,0,0,,,4,,,50,127
425076,note_on,,,,,41,0,0,,,4,,,66,127
425118,note_on,,,,,42,0,0,,,2,,,69,119
425132,note_off,,,,,14,0,0,,,4,,,66,64
425160,note_on,,,,,28,0,0,,,4,,,66,127
425202,note_on,,,,,42,0,0,,,1,,,86,115
425217,note_off,,,,,15,0,0,,,4,,,66,64
425231,note_off,,,,,14,0,0,,,2,,,73,64
425244,note_off,,,,,13,0,0,,,2,,,69,64
425244,note_on,,,,,0,0,0,,,4,,,66,127
425287,note_on,,,,,43,0,0,,,2,,,69,119
425301,note_off,,,,,14,0,0,,,4,,,66,64
425329,note_on,,,,,28,0,0,,,4,,,66,127
425370,note_off,,,,,41,0,0,,,1,,,86,64
425370,note_on,,,,,0,0,0,,,1,,,83,115
425384,note_off,,,,,14,0,0,,,4,,,66,64
425413,note_off,,,,,29,0,0,,,2,,,69,64
425413,note_on,,,,,0,0,0,,,4,,,66,127
425454,note_on,,,,,41,0,0,,,2,,,74,118
425470,note_off,,,,,16,0,0,,,4,,,66,64
425496,note_on,,,,,26,0,0,,,4,,,66,127
425533,note_off,,,,,37,0,0,,,1,,,83,64
425539,note_on,,,,,6,0,0,,,1,,,81,115
425552,note_off,,,,,13,0,0,,,4,,,66,64
425581,note_off,,,,,29,0,0,,,2,,,74,64
425581,note_on,,,,,0,0,0,,,4,,,66,127
425624,note_on,,,,,43,0,0,,,2,,,74,118
425638,note_off,,,,,14,0,0,,,4,,,66,64
425664,note_off,,,,,26,0,0,,,4,,,38,64
425665,note_off,,,,,1,0,0,,,4,,,50,64
425665,note_on,,,,,0,0,0,,,4,,,66,127
425705,note_off,,,,,40,0,0,,,1,,,81,64
425706,note_on,,,,,1,0,0,,,1,,,80,115
425719,note_off,,,,,13,0,0,,,4,,,66,64
425748,note_off,,,,,29,0,0,,,2,,,74,64
425748,note_on,,,,,0,0,0,,,4,,,64,126
425789,note_on,,,,,41,0,0,,,2,,,74,118
425805,note_off,,,,,16,0,0,,,4,,,64,64
425832,note_on,,,,,27,0,0,,,4,,,64,126
425874,note_on,,,,,42,0,0,,,4,,,47,127
425874,note_on,,,,,0,0,0,,,4,,,35,127
425888,note_off,,,,,14,0,0,,,4,,,64,64
425917,note_off,,,,,29,0,0,,,2,,,74,64
425917,note_on,,,,,0,0,0,,,2,,,68,121
425958,note_off,,,,,41,0,0,,,4,,,35,64
425959,note_off,,,,,1,0,0,,,4,,,47,64
425959,note_on,,,,,0,0,0,,,2,,,74,118
425973,note_off,,,,,14,0,0,,,2,,,68,64
426000,note_on,,,,,27,0,0,,,2,,,68,121
426042,note_on,,,,,42,0,0,,,4,,,52,127
426042,note_on,,,,,0,0,0,,,4,,,40,127
426056,note_off,,,,,14,0,0,,,2,,,68,64
426085,note_off,,,,,29,0,0,,,2,,,74,64
426085,note_on,,,,,0,0,0,,,2,,,68,121
426127,note_on,,,,,42,0,0,,,2,,,71,117
426142,note_off,,,,,15,0,0,,,2,,,68,64
426161,note_off,,,,,19,0,0,,,4,,,40,64
426161,note_off,,,,,0,0,0,,,4,,,52,64
426169,note_on,,,,,8,0,0,,,2,,,68,121
426212,note_on,,,,,43,0,0,,,4,,,38,127
426212,note_on,,,,,0,0,0,,,4,,,50,127
426224,note_off,,,,,12,0,0,,,2,,,68,64
426253,note_off,,,,,29,0,0,,,2,,,71,64
426253,note_on,,,,,0,0,0,,,2,,,68,121
426294,note_on,,,,,41,0,0,,,2,,,71,117
426310,note_off,,,,,16,0,0,,,2,,,68,64
426331,note_off,,,,,21,0,0,,,4,,,38,64
426332,note_off,,,,,1,0,0,,,4,,,50,64
426338,note_on,,,,,6,0,0,,,2,,,68,121
426380,note_on,,,,,42,0,0,,,4,,,37,127
426380,note_on,,,,,0,0,0,,,4,,,49,127
426394,note_off,,,,,14,0,0,,,2,,,68,64
426422,note_off,,,,,28,0,0,,,2,,,71,64
426422,note_on,,,,,0,0,0,,,2,,,69,119
426464,note_on,,,,,42,0,0,,,2,,,73,118
426477,note_off,,,,,13,0,0,,,2,,,69,64
426506,note_on,,,,,29,0,0,,,2,,,69,119
426520,note_off,,,,,14,0,0,,,2,,,73,64
426547,note_off,,,,,27,0,0,,,1,,,80,64
426548,note_on,,,,,1,0,0,,,2,,,76,118
426590,note_on,,,,,42,0,0,,,4,,,61,127
426625,note_off,,,,,35,0,0,,,4,,,49,64
426625,note_off,,,,,0,0,0,,,4,,,37,64
426632,note_off,,,,,7,0,0,,,2,,,69,64
426632,note_on,,,,,0,0,0,,,2,,,69,119
426646,note_off,,,,,14,0,0,,,4,,,61,64
426675,note_on,,,,,29,0,0,,,4,,,61,127
426717,note_on,,,,,42,0,0,,,4,,,52,127
426718,note_on,,,,,1,0,0,,,4,,,40,127
426732,note_off,,,,,14,0,0,,,4,,,61,64
426758,note_off,,,,,26,0,0,,,2,,,69,64
426759,note_on,,,,,1,0,0,,,4,,,59,127
426802,note_on,,,,,43,0,0,,,2,,,68,121
426815,note_off,,,,,13,0,0,,,4,,,59,64
426844,note_on,,,,,29,0,0,,,4,,,59,127
426857,note_off,,,,,13,0,0,,,2,,,68,64
426878,note_off,,,,,21,0,0,,,2,,,76,64
426884,note_on,,,,,6,0,0,,,2,,,68,122
426900,note_off,,,,,16,0,0,,,4,,,59,64
426927,note_on,,,,,27,0,0,,,4,,,62,127
426970,note_on,,,,,43,0,0,,,4,,,64,126
426985,note_off,,,,,15,0,0,,,4,,,62,64
427012,note_on,,,,,27,0,0,,,4,,,62,127
427027,note_off,,,,,15,0,0,,,4,,,64,64
427046,note_off,,,,,19,0,0,,,2,,,68,64
427054,note_on,,,,,8,0,0,,,2,,,71,118
427068,note_off,,,,,14,0,0,,,4,,,62,64
427096,note_on,,,,,28,0,0,,,4,,,62,127
427137,note_off,,,,,41,0,0,,,4,,,52,64
427137,note_off,,,,,0,0,0,,,4,,,40,64
427138,note_on,,,,,1,0,0,,,4,,,64,126
427152,note_off,,,,,14,0,0,,,4,,,62,64
427181,note_on,,,,,29,0,0,,,4,,,62,127
427194,note_off,,,,,13,0,0,,,4,,,64,64
427223,note_on,,,,,29,0,0,,,2,,,69,120
427228,note_off,,,,,5,0,0,,,2,,,71,64
427236,note_off,,,,,8,0,0,,,4,,,62,64
427265,note_on,,,,,29,0,0,,,4,,,61,127
427306,note_on,,,,,41,0,0,,,4,,,64,126
427321,note_off,,,,,15,0,0,,,4,,,61,64
427349,note_on,,,,,28,0,0,,,4,,,61,127
427362,note_off,,,,,13,0,0,,,4,,,64,64
427391,note_on,,,,,29,0,0,,,4,,,57,127
427392,note_on,,,,,1,0,0,,,4,,,45,127
427405,note_off,,,,,13,0,0,,,4,,,61,64
427475,note_off,,,,,70,0,0,,,4,,,57,64
427475,note_off,,,,,0,0,0,,,4,,,45,64
427560,note_on,,,,,85,0,0,,,4,,,42,127
427560,note_on,,,,,0,0,0,,,4,,,54,127
427691,note_off,,,,,131,0,0,,,4,,,54,64
427691,note_off,,,,,0,0,0,,,4,,,42,64
427734,note_on,,,,,43,0,0,,,4,,,38,127
427734,note_on,,,,,0,0,0,,,4,,,50,127
427775,note_on,,,,,41,0,0,,,4,,,62,127
427817,note_on,,,,,42,0,0,,,4,,,66,127
427831,note_off,,,,,14,0,0,,,4,,,62,64
427860,note_on,,,,,29,0,0,,,4,,,62,127
427902,note_on,,,,,42,0,0,,,1,,,81,115
427915,note_off,,,,,13,0,0,,,4,,,62,64
427929,note_off,,,,,14,0,0,,,2,,,69,64
427944,note_off,,,,,15,0,0,,,4,,,66,64
427944,note_on,,,,,0,0,0,,,4,,,62,127
427985,note_on,,,,,41,0,0,,,4,,,66,127
427999,note_off,,,,,14,0,0,,,4,,,62,64
428028,note_on,,,,,29,0,0,,,4,,,62,127
428062,note_off,,,,,34,0,0,,,1,,,81,64
428070,note_on,,,,,8,0,0,,,1,,,83,115
428083,note_off,,,,,13,0,0,,,4,,,62,64
428112,note_off,,,,,29,0,0,,,4,,,66,64
428113,note_on,,,,,1,0,0,,,4,,,62,127
428153,note_on,,,,,40,0,0,,,4,,,66,127
428169,note_off,,,,,16,0,0,,,4,,,62,64
428196,note_on,,,,,27,0,0,,,4,,,62,127
428238,note_off,,,,,42,0,0,,,1,,,83,64
428239,note_on,,,,,1,0,0,,,1,,,78,115
428252,note_off,,,,,13,0,0,,,4,,,62,64
428281,note_off,,,,,29,0,0,,,4,,,66,64
428281,note_on,,,,,0,0,0,,,4,,,63,127
428324,note_on,,,,,43,0,0,,,2,,,71,117
428338,note_off,,,,,14,0,0,,,4,,,63,64
428366,note_off,,,,,28,0,0,,,4,,,38,64
428367,note_off,,,,,1,0,0,,,4,,,50,64
428367,note_on,,,,,0,0,0,,,4,,,63,127
428406,note_off,,,,,39,0,0,,,1,,,78,64
428408,note_on,,,,,2,0,0,,,1,,,79,115
428421,note_off,,,,,13,0,0,,,4,,,63,64
428450,note_off,,,,,29,0,0,,,2,,,71,64
428450,note_on,,,,,0,0,0,,,4,,,64,126
428492,note_on,,,,,42,0,0,,,2,,,71,117
428507,note_off,,,,,15,0,0,,,4,,,64,64
428534,note_on,,,,,27,0,0,,,4,,,64,126
428576,note_on,,,,,42,0,0,,,4,,,40,127
428576,note_on,,,,,0,0,0,,,4,,,52,127
428590,note_off,,,,,14,0,0,,,4,,,64,64
428619,note_off,,,,,29,0,0,,,2,,,71,64
428619,note_on,,,,,0,0,0,,,2,,,68,121
428662,note_off,,,,,43,0,0,,,4,,,40,64
428663,note_off,,,,,1,0,0,,,4,,,52,64
428663,note_on,,,,,0,0,0,,,2,,,71,117
428676,note_off,,,,,13,0,0,,,2,,,68,64
428703,note_on,,,,,27,0,0,,,2,,,68,121
428746,note_on,,,,,43,0,0,,,4,,,49,127
428747,note_on,,,,,1,0,0,,,4,,,37,127
428760,note_off,,,,,13,0,0,,,2,,,68,64
428789,note_off,,,,,29,0,0,,,2,,,71,64
428789,note_on,,,,,0,0,0,,,2,,,67,127
428831,note_on,,,,,42,0,0,,,2,,,76,118
428846,note_off,,,,,15,0,0,,,2,,,67,64
428859,note_off,,,,,13,0,0,,,4,,,37,64
428859,note_off,,,,,0,0,0,,,4,,,49,64
428873,note_on,,,,,14,0,0,,,2,,,67,127
428916,note_on,,,,,43,0,0,,,4,,,45,127
428916,note_on,,,,,0,0,0,,,4,,,33,127
428928,note_off,,,,,12,0,0,,,2,,,67,64
428957,note_off,,,,,29,0,0,,,2,,,76,64
428958,note_on,,,,,1,0,0,,,2,,,67,127
428999,note_on,,,,,41,0,0,,,2,,,73,118
429014,note_off,,,,,15,0,0,,,2,,,67,64
429027,note_off,,,,,13,0,0,,,4,,,33,64
429028,note_off,,,,,1,0,0,,,4,,,45,64
429042,note_on,,,,,14,0,0,,,2,,,67,127
429084,note_on,,,,,42,0,0,,,4,,,38,127
429084,note_on,,,,,0,0,0,,,4,,,50,127
429098,note_off,,,,,14,0,0,,,2,,,67,64
429125,note_off,,,,,27,0,0,,,2,,,73,64
429126,note_on,,,,,1,0,0,,,4,,,66,127
429168,note_on,,,,,42,0,0,,,2,,,74,118
429182,note_off,,,,,14,0,0,,,4,,,66,64
429211,note_on,,,,,29,0,0,,,4,,,66,127
429251,note_off,,,,,40,0,0,,,1,,,79,64
429252,note_on,,,,,1,0,0,,,1,,,81,115
429265,note_off,,,,,13,0,0,,,4,,,66,64
429294,note_off,,,,,29,0,0,,,2,,,74,64
429295,note_on,,,,,1,0,0,,,4,,,66,127
429330,note_off,,,,,35,0,0,,,4,,,50,64
429330,note_off,,,,,0,0,0,,,4,,,38,64
429336,note_on,,,,,6,0,0,,,2,,,74,118
429350,note_off,,,,,14,0,0,,,4,,,66,64
429379,note_on,,,,,29,0,0,,,4,,,66,127
429421,note_on,,,,,42,0,0,,,4,,,43,127
429421,note_on,,,,,0,0,0,,,4,,,55,127
429435,note_off,,,,,14,0,0,,,4,,,66,64
429462,note_off,,,,,27,0,0,,,2,,,74,64
429463,note_on,,,,,1,0,0,,,4,,,64,126
429505,note_on,,,,,42,0,0,,,2,,,74,118
429519,note_off,,,,,14,0,0,,,4,,,64,64
429546,note_off,,,,,27,0,0,,,1,,,81,64
429546,note_on,,,,,0,0,0,,,4,,,64,126
429589,note_on,,,,,43,0,0,,,1,,,83,118
429603,note_off,,,,,14,0,0,,,4,,,64,64
429630,note_off,,,,,27,0,0,,,2,,,74,64
429631,note_on,,,,,1,0,0,,,4,,,64,126
429673,note_on,,,,,42,0,0,,,2,,,74,118
429689,note_off,,,,,16,0,0,,,4,,,64,64
429716,note_on,,,,,27,0,0,,,4,,,64,126
429729,note_off,,,,,13,0,0,,,2,,,74,64
429758,note_on,,,,,29,0,0,,,2,,,74,118
429764,note_off,,,,,6,0,0,,,1,,,83,64
429771,note_off,,,,,7,0,0,,,4,,,64,64
429800,note_on,,,,,29,0,0,,,4,,,66,127
429841,note_on,,,,,41,0,0,,,2,,,69,119
429855,note_off,,,,,14,0,0,,,4,,,66,64
429884,note_on,,,,,29,0,0,,,4,,,66,127
429897,note_off,,,,,13,0,0,,,2,,,69,64
429912,note_off,,,,,15,0,0,,,4,,,43,64
429913,note_off,,,,,1,0,0,,,4,,,55,64
429925,note_on,,,,,12,0,0,,,2,,,73,118
429931,note_off,,,,,6,0,0,,,2,,,74,64
429940,note_off,,,,,9,0,0,,,4,,,66,64
429967,note_on,,,,,27,0,0,,,4,,,64,126
430009,note_on,,,,,42,0,0,,,2,,,69,119
430025,note_off,,,,,16,0,0,,,4,,,64,64
430052,note_on,,,,,27,0,0,,,4,,,64,126
430067,note_off,,,,,15,0,0,,,2,,,69,64
430096,note_on,,,,,29,0,0,,,4,,,57,127
430096,note_on,,,,,0,0,0,,,4,,,45,127
430110,note_off,,,,,14,0,0,,,4,,,64,64
430193,note_off,,,,,83,0,0,,,4,,,45,64
430193,note_off,,,,,0,0,0,,,4,,,57,64
430275,note_on,,,,,82,0,0,,,4,,,42,127
430275,note_on,,,,,0,0,0,,,4,,,54,127
430392,note_off,,,,,117,0,0,,,4,,,42,64
430393,note_off,,,,,1,0,0,,,4,,,54,64
430451,note_on,,,,,58,0,0,,,4,,,50,127
430452,note_on,,,,,1,0,0,,,4,,,38,127
430492,note_on,,,,,40,0,0,,,4,,,66,127
430535,note_on,,,,,43,0,0,,,2,,,69,119
430548,note_off,,,,,13,0,0,,,4,,,66,64
430577,note_on,,,,,29,0,0,,,4,,,66,127
430619,note_on,,,,,42,0,0,,,1,,,86,115
430632,note_off,,,,,13,0,0,,,4,,,66,64
430648,note_off,,,,,16,0,0,,,2,,,73,64
430661,note_off,,,,,13,0,0,,,2,,,69,64
430662,note_on,,,,,1,0,0,,,4,,,66,127
430703,note_on,,,,,41,0,0,,,2,,,69,119
430718,note_off,,,,,15,0,0,,,4,,,66,64
430745,note_on,,,,,27,0,0,,,4,,,66,127
430787,note_off,,,,,42,0,0,,,1,,,86,64
430788,note_on,,,,,1,0,0,,,1,,,83,115
430801,note_off,,,,,13,0,0,,,4,,,66,64
430830,note_off,,,,,29,0,0,,,2,,,69,64
430831,note_on,,,,,1,0,0,,,4,,,66,127
430872,note_on,,,,,41,0,0,,,2,,,74,118
430887,note_off,,,,,15,0,0,,,4,,,66,64
430914,note_on,,,,,27,0,0,,,4,,,66,127
430946,note_off,,,,,32,0,0,,,1,,,83,64
430956,note_on,,,,,10,0,0,,,1,,,81,115
430971,note_off,,,,,15,0,0,,,4,,,66,64
431000,note_off,,,,,29,0,0,,,2,,,74,64
431000,note_on,,,,,0,0,0,,,4,,,66,127
431040,note_on,,,,,40,0,0,,,2,,,74,118
431056,note_off,,,,,16,0,0,,,4,,,66,64
431083,note_off,,,,,27,0,0,,,4,,,50,64
431083,note_off,,,,,0,0,0,,,4,,,38,64
431084,note_on,,,,,1,0,0,,,4,,,66,127
431128,note_on,,,,,44,0,0,,,1,,,80,115
431129,note_off,,,,,1,0,0,,,1,,,81,64
431142,note_off,,,,,13,0,0,,,4,,,66,64
431171,note_off,,,,,29,0,0,,,2,,,74,64
431171,note_on,,,,,0,0,0,,,4,,,64,126
431212,note_on,,,,,41,0,0,,,2,,,74,118
431227,note_off,,,,,15,0,0,,,4,,,64,64
431254,note_on,,,,,27,0,0,,,4,,,64,126
431296,note_on,,,,,42,0,0,,,4,,,47,127
431297,note_on,,,,,1,0,0,,,4,,,35,127
431311,note_off,,,,,14,0,0,,,4,,,64,64
431340,note_off,,,,,29,0,0,,,2,,,74,64
431340,note_on,,,,,0,0,0,,,2,,,68,121
431381,note_off,,,,,41,0,0,,,4,,,35,64
431381,note_off,,,,,0,0,0,,,4,,,47,64
431382,note_on,,,,,1,0,0,,,2,,,74,118
431394,note_off,,,,,12,0,0,,,2,,,68,64
431423,note_on,,,,,29,0,0,,,2,,,68,121
431464,note_on,,,,,41,0,0,,,4,,,52,127
431465,note_on,,,,,1,0,0,,,4,,,40,127
431479,note_off,,,,,14,0,0,,,2,,,68,64
431508,note_off,,,,,29,0,0,,,2,,,74,64
431508,note_on,,,,,0,0,0,,,2,,,68,121
431549,note_on,,,,,41,0,0,,,2,,,71,117
431564,note_off,,,,,15,0,0,,,2,,,68,64
431578,note_off,,,,,14,0,0,,,4,,,52,64
431578,note_off,,,,,0,0,0,,,4,,,40,64
431592,note_on,,,,,14,0,0,,,2,,,68,121
431634,note_on,,,,,42,0,0,,,4,,,50,127
431635,note_on,,,,,1,0,0,,,4,,,38,127
431647,note_off,,,,,12,0,0,,,2,,,68,64
431676,note_off,,,,,29,0,0,,,2,,,71,64
431677,note_on,,,,,1,0,0,,,2,,,68,121
431718,note_on,,,,,41,0,0,,,2,,,71,117
431731,note_off,,,,,13,0,0,,,2,,,68,64
431747,note_off,,,,,16,0,0,,,4,,,38,64
431747,note_off,,,,,0,0,0,,,4,,,50,64
431759,note_on,,,,,12,0,0,,,2,,,68,121
431801,note_on,,,,,42,0,0,,,4,,,49,127
431802,note_on,,,,,1,0,0,,,4,,,37,127
431816,note_off,,,,,14,0,0,,,2,,,68,64
431844,note_off,,,,,28,0,0,,,2,,,71,64
431844,note_on,,,,,0,0,0,,,2,,,69,119
431886,note_on,,,,,42,0,0,,,2,,,73,118
431901,note_off,,,,,15,0,0,,,2,,,69,64
431928,note_on,,,,,27,0,0,,,2,,,69,119
431941,note_off,,,,,13,0,0,,,2,,,73,64
431970,note_off,,,,,29,0,0,,,1,,,80,64
431971,note_on,,,,,1,0,0,,,2,,,76,118
431985,note_off,,,,,14,0,0,,,2,,,69,64
432013,note_on,,,,,28,0,0,,,4,,,61,127
432048,note_off,,,,,35,0,0,,,4,,,49,64
432048,note_off,,,,,0,0,0,,,4,,,37,64
432055,note_on,,,,,7,0,0,,,2,,,69,119
432068,note_off,,,,,13,0,0,,,4,,,61,64
432096,note_on,,,,,28,0,0,,,4,,,61,127
432111,note_off,,,,,15,0,0,,,2,,,69,64
432138,note_on,,,,,27,0,0,,,4,,,52,127
432139,note_on,,,,,1,0,0,,,4,,,40,127
432152,note_off,,,,,13,0,0,,,4,,,61,64
432181,note_on,,,,,29,0,0,,,4,,,59,127
432224,note_on,,,,,43,0,0,,,2,,,68,121
432237,note_off,,,,,13,0,0,,,4,,,59,64
432267,note_on,,,,,30,0,0,,,4,,,59,127
432280,note_off,,,,,13,0,0,,,2,,,68,64
432307,note_off,,,,,27,0,0,,,2,,,76,64
432308,note_on,,,,,1,0,0,,,2,,,68,122
432322,note_off,,,,,14,0,0,,,4,,,59,64
432348,note_on,,,,,26,0,0,,,4,,,62,127
432393,note_on,,,,,45,0,0,,,4,,,64,126
432406,note_off,,,,,13,0,0,,,4,,,62,64
432435,note_on,,,,,29,0,0,,,4,,,62,127
432448,note_off,,,,,13,0,0,,,4,,,64,64
432477,note_on,,,,,29,0,0,,,2,,,71,118
432481,note_off,,,,,4,0,0,,,2,,,68,64
432491,note_off,,,,,10,0,0,,,4,,,62,64
432518,note_on,,,,,27,0,0,,,4,,,62,127
432561,note_on,,,,,43,0,0,,,4,,,64,126
432574,note_off,,,,,13,0,0,,,4,,,62,64
432603,note_on,,,,,29,0,0,,,4,,,62,127
432616,note_off,,,,,13,0,0,,,4,,,64,64
432642,note_off,,,,,26,0,0,,,2,,,71,64
432645,note_on,,,,,3,0,0,,,2,,,69,120
432659,note_off,,,,,14,0,0,,,4,,,62,64
432687,note_on,,,,,28,0,0,,,4,,,61,127
432730,note_on,,,,,43,0,0,,,4,,,64,126
432743,note_off,,,,,13,0,0,,,4,,,61,64
432772,note_on,,,,,29,0,0,,,4,,,61,127
432785,note_off,,,,,13,0,0,,,4,,,64,64
432807,note_off,,,,,22,0,0,,,2,,,69,64
432813,note_on,,,,,6,0,0,,,1,,,81,115
432827,note_off,,,,,14,0,0,,,4,,,61,64
432857,note_on,,,,,30,0,0,,,2,,,69,119
432901,note_on,,,,,44,0,0,,,1,,,78,115
432917,note_off,,,,,16,0,0,,,2,,,69,64
432917,note_off,,,,,0,0,0,,,4,,,52,64
432947,note_on,,,,,30,0,0,,,2,,,69,119
432989,note_off,,,,,42,0,0,,,1,,,81,64
432991,note_on,,,,,2,0,0,,,1,,,84,115
433005,note_off,,,,,14,0,0,,,2,,,69,64
433036,note_off,,,,,31,0,0,,,1,,,78,64
433036,note_on,,,,,0,0,0,,,2,,,76,118
433081,note_on,,,,,45,0,0,,,1,,,81,115
433094,note_off,,,,,13,0,0,,,2,,,76,64
433125,note_on,,,,,31,0,0,,,2,,,76,118
433140,note_off,,,,,15,0,0,,,1,,,81,64
433168,note_off,,,,,28,0,0,,,1,,,84,64
433168,note_on,,,,,0,0,0,,,1,,,83,115
433182,note_off,,,,,14,0,0,,,2,,,76,64
433212,note_on,,,,,30,0,0,,,2,,,75,118
433255,note_on,,,,,43,0,0,,,1,,,81,115
433272,note_off,,,,,17,0,0,,,2,,,75,64
433299,note_on,,,,,27,0,0,,,2,,,75,118
433330,note_off,,,,,31,0,0,,,1,,,83,64
433342,note_on,,,,,12,0,0,,,1,,,88,117
433358,note_off,,,,,16,0,0,,,2,,,75,64
433389,note_off,,,,,31,0,0,,,1,,,81,64
433390,note_on,,,,,1,0,0,,,2,,,74,118
433431,note_on,,,,,41,0,0,,,1,,,80,115
433446,note_off,,,,,15,0,0,,,2,,,74,64
433475,note_on,,,,,29,0,0,,,2,,,74,118
433488,note_off,,,,,13,0,0,,,1,,,80,64
433517,note_off,,,,,29,0,0,,,1,,,88,64
433517,note_on,,,,,0,0,0,,,1,,,81,115
433530,note_off,,,,,13,0,0,,,2,,,74,64
433562,note_on,,,,,32,0,0,,,2,,,73,118
433603,note_on,,,,,41,0,0,,,1,,,79,115
433618,note_off,,,,,15,0,0,,,2,,,73,64
433648,note_on,,,,,30,0,0,,,2,,,73,118
433689,note_off,,,,,41,0,0,,,1,,,81,64
433691,note_on,,,,,2,0,0,,,1,,,86,115
433706,note_off,,,,,15,0,0,,,2,,,73,64
433737,note_off,,,,,31,0,0,,,1,,,79,64
433738,note_on,,,,,1,0,0,,,2,,,72,118
433778,note_on,,,,,40,0,0,,,1,,,78,115
433792,note_off,,,,,14,0,0,,,2,,,72,64
433819,note_on,,,,,27,0,0,,,2,,,72,118
433863,note_off,,,,,44,0,0,,,4,,,40,64
433863,note_on,,,,,0,0,0,,,4,,,55,127
433864,note_on,,,,,1,0,0,,,4,,,43,127
433877,note_off,,,,,13,0,0,,,2,,,72,64
433906,note_off,,,,,29,0,0,,,1,,,78,64
433907,note_on,,,,,1,0,0,,,2,,,71,117
433951,note_on,,,,,44,0,0,,,1,,,83,115
433959,note_off,,,,,8,0,0,,,4,,,55,64
433959,note_off,,,,,0,0,0,,,4,,,43,64
433966,note_off,,,,,7,0,0,,,2,,,71,64
433994,note_on,,,,,28,0,0,,,2,,,71,117
434037,note_on,,,,,43,0,0,,,4,,,61,127
434037,note_on,,,,,0,0,0,,,4,,,49,127
434051,note_off,,,,,14,0,0,,,2,,,71,64
434080,note_off,,,,,29,0,0,,,1,,,83,64
434080,note_on,,,,,0,0,0,,,2,,,76,118
434121,note_on,,,,,41,0,0,,,1,,,79,115
434129,note_off,,,,,8,0,0,,,4,,,49,64
434129,note_off,,,,,0,0,0,,,4,,,61,64
434136,note_off,,,,,7,0,0,,,2,,,76,64
434164,note_on,,,,,28,0,0,,,2,,,76,118
434207,note_on,,,,,43,0,0,,,4,,,54,127
434207,note_on,,,,,0,0,0,,,4,,,42,127
434221,note_off,,,,,14,0,0,,,2,,,76,64
434248,note_off,,,,,27,0,0,,,1,,,79,64
434248,note_on,,,,,0,0,0,,,2,,,69,119
434291,note_on,,,,,43,0,0,,,1,,,81,115
434299,note_off,,,,,8,0,0,,,4,,,42,64
434299,note_off,,,,,0,0,0,,,4,,,54,64
434305,note_off,,,,,6,0,0,,,2,,,69,64
434334,note_on,,,,,29,0,0,,,2,,,69,119
434376,note_on,,,,,42,0,0,,,4,,,59,127
434377,note_on,,,,,1,0,0,,,4,,,47,127
434389,note_off,,,,,12,0,0,,,2,,,69,64
434418,note_off,,,,,29,0,0,,,1,,,81,64
434418,note_on,,,,,0,0,0,,,2,,,74,118
434461,note_on,,,,,43,0,0,,,1,,,78,115
434467,note_off,,,,,6,0,0,,,4,,,59,64
434467,note_off,,,,,0,0,0,,,4,,,47,64
434475,note_off,,,,,8,0,0,,,2,,,74,64
434502,note_on,,,,,27,0,0,,,2,,,74,118
434544,note_on,,,,,42,0,0,,,4,,,52,127
434545,note_on,,,,,1,0,0,,,4,,,40,127
434559,note_off,,,,,14,0,0,,,2,,,74,64
434588,note_off,,,,,29,0,0,,,1,,,78,64
434588,note_on,,,,,0,0,0,,,2,,,71,117
434629,note_on,,,,,41,0,0,,,1,,,79,115
434642,note_off,,,,,13,0,0,,,2,,,71,64
434671,note_on,,,,,29,0,0,,,2,,,71,117
434685,note_off,,,,,14,0,0,,,1,,,86,64
434713,note_on,,,,,28,0,0,,,1,,,85,115
434727,note_off,,,,,14,0,0,,,2,,,71,64
434756,note_off,,,,,29,0,0,,,1,,,79,64
434756,note_on,,,,,0,0,0,,,2,,,69,119
434797,note_on,,,,,41,0,0,,,1,,,79,115
434812,note_off,,,,,15,0,0,,,2,,,69,64
434839,note_on,,,,,27,0,0,,,2,,,69,119
434875,note_off,,,,,36,0,0,,,1,,,85,64
434882,note_on,,,,,7,0,0,,,1,,,86,115
434896,note_off,,,,,14,0,0,,,2,,,69,64
434923,note_off,,,,,27,0,0,,,1,,,79,64
434923,note_on,,,,,0,0,0,,,2,,,69,119
434964,note_on,,,,,41,0,0,,,1,,,78,115
434977,note_off,,,,,13,0,0,,,2,,,69,64
435006,note_on,,,,,29,0,0,,,2,,,69,119
435049,note_on,,,,,43,0,0,,,2,,,74,118
435063,note_off,,,,,14,0,0,,,2,,,69,64
435090,note_off,,,,,27,0,0,,,1,,,78,64
435090,note_off,,,,,0,0,0,,,1,,,86,64
435091,note_on,,,,,1,0,0,,,2,,,68,121
435129,note_on,,,,,38,0,0,,,2,,,71,117
435144,note_off,,,,,15,0,0,,,2,,,68,64
435173,note_on,,,,,29,0,0,,,2,,,68,121
435204,note_off,,,,,31,0,0,,,2,,,74,64
435214,note_on,,,,,10,0,0,,,1,,,78,115
435227,note_off,,,,,13,0,0,,,2,,,68,64
435256,note_off,,,,,29,0,0,,,2,,,71,64
435256,note_on,,,,,0,0,0,,,2,,,69,119
435297,note_on,,,,,41,0,0,,,2,,,74,118
435313,note_off,,,,,16,0,0,,,2,,,69,64
435340,note_on,,,,,27,0,0,,,2,,,69,119
435354,note_off,,,,,14,0,0,,,2,,,74,64
435375,note_off,,,,,21,0,0,,,1,,,78,64
435383,note_off,,,,,8,0,0,,,4,,,52,64
435383,note_on,,,,,0,0,0,,,2,,,76,118
435384,note_on,,,,,1,0,0,,,2,,,76,118
435397,note_off,,,,,13,0,0,,,2,,,69,64
435426,note_on,,,,,29,0,0,,,2,,,69,119
435468,note_on,,,,,42,0,0,,,2,,,73,118
435483,note_off,,,,,15,0,0,,,2,,,69,64
435512,note_on,,,,,29,0,0,,,2,,,69,119
435549,note_off,,,,,37,0,0,,,2,,,76,64
435549,note_off,,,,,0,0,0,,,2,,,76,64
435557,note_on,,,,,8,0,0,,,1,,,88,117
435558,note_on,,,,,1,0,0,,,2,,,76,118
435572,note_off,,,,,14,0,0,,,2,,,69,64
435600,note_off,,,,,28,0,0,,,2,,,73,64
435676,note_off,,,,,76,0,0,,,4,,,40,64
435729,note_off,,,,,53,0,0,,,2,,,76,64
435730,note_off,,,,,1,0,0,,,1,,,88,64
435736,note_on,,,,,6,0,0,,,2,,,73,118
435736,note_on,,,,,0,0,0,,,1,,,85,115
435908,note_off,,,,,172,0,0,,,1,,,85,64
435908,note_off,,,,,0,0,0,,,2,,,73,64
435916,note_on,,,,,8,0,0,,,1,,,81,115
435917,note_on,,,,,1,0,0,,,2,,,69,119
436208,note_off,,,,,291,0,0,,,1,,,81,64
436208,note_off,,,,,0,0,0,,,2,,,69,64
436266,note_on,,,,,58,0,0,,,4,,,57,127
436267,note_on,,,,,1,0,0,,,4,,,45,127
436359,note_off,,,,,92,0,0,,,4,,,45,64
436360,note_off,,,,,1,0,0,,,4,,,57,64
436452,note_on,,,,,92,0,0,,,4,,,54,127
436453,note_on,,,,,1,0,0,,,4,,,42,127
436588,note_off,,,,,135,0,0,,,4,,,54,64
436588,note_off,,,,,0,0,0,,,4,,,42,64
436635,note_on,,,,,47,0,0,,,4,,,38,127
436635,note_on,,,,,0,0,0,,,4,,,50,127
436676,note_on,,,,,41,0,0,,,4,,,62,127
436718,note_on,,,,,42,0,0,,,4,,,66,127
436732,note_off,,,,,14,0,0,,,4,,,62,64
436761,note_on,,,,,29,0,0,,,4,,,62,127
436803,note_on,,,,,42,0,0,,,1,,,81,115
436818,note_off,,,,,15,0,0,,,4,,,62,64
436847,note_off,,,,,29,0,0,,,4,,,66,64
436848,note_on,,,,,1,0,0,,,4,,,62,127
436890,note_on,,,,,42,0,0,,,4,,,66,127
436904,note_off,,,,,14,0,0,,,4,,,62,64
436934,note_on,,,,,30,0,0,,,4,,,62,127
436973,note_off,,,,,39,0,0,,,1,,,81,64
436977,note_on,,,,,4,0,0,,,1,,,83,115
436990,note_off,,,,,13,0,0,,,4,,,62,64
437019,note_off,,,,,29,0,0,,,4,,,66,64
437019,note_on,,,,,0,0,0,,,4,,,62,127
437062,note_off,,,,,43,0,0,,,4,,,38,64
437063,note_off,,,,,1,0,0,,,4,,,50,64
437063,note_on,,,,,0,0,0,,,4,,,66,127
437076,note_off,,,,,13,0,0,,,4,,,62,64
437103,note_on,,,,,27,0,0,,,4,,,62,127
437146,note_off,,,,,43,0,0,,,1,,,83,64
437146,note_on,,,,,0,0,0,,,1,,,78,115
437161,note_off,,,,,15,0,0,,,4,,,62,64
437190,note_off,,,,,29,0,0,,,4,,,66,64
437190,note_on,,,,,0,0,0,,,4,,,63,127
437233,note_on,,,,,43,0,0,,,2,,,71,117
437246,note_off,,,,,13,0,0,,,4,,,63,64
437273,note_on,,,,,27,0,0,,,4,,,63,127
437314,note_on,,,,,41,0,0,,,1,,,79,115
437319,note_off,,,,,5,0,0,,,1,,,78,64
437329,note_off,,,,,10,0,0,,,4,,,63,64
437356,note_off,,,,,27,0,0,,,2,,,71,64
437356,note_on,,,,,0,0,0,,,4,,,64,126
437399,note_on,,,,,43,0,0,,,2,,,71,117
437412,note_off,,,,,13,0,0,,,4,,,64,64
437441,note_on,,,,,29,0,0,,,4,,,64,126
437484,note_on,,,,,43,0,0,,,4,,,40,127
437484,note_on,,,,,0,0,0,,,4,,,52,127
437496,note_off,,,,,12,0,0,,,4,,,64,64
437525,note_off,,,,,29,0,0,,,2,,,71,64
437525,note_on,,,,,0,0,0,,,2,,,68,121
437568,note_on,,,,,43,0,0,,,2,,,71,117
437581,note_off,,,,,13,0,0,,,2,,,68,64
437608,note_off,,,,,27,0,0,,,4,,,40,64
437609,note_off,,,,,1,0,0,,,4,,,52,64
437609,note_on,,,,,0,0,0,,,2,,,68,121
437652,note_on,,,,,43,0,0,,,4,,,37,127
437652,note_on,,,,,0,0,0,,,4,,,49,127
437666,note_off,,,,,14,0,0,,,2,,,68,64
437693,note_off,,,,,27,0,0,,,2,,,71,64
437693,note_on,,,,,0,0,0,,,2,,,67,127
437736,note_on,,,,,43,0,0,,,2,,,76,118
437749,note_off,,,,,13,0,0,,,2,,,67,64
437778,note_off,,,,,29,0,0,,,4,,,37,64
437779,note_off,,,,,1,0,0,,,4,,,49,64
437779,note_on,,,,,0,0,0,,,2,,,67,127
437820,note_on,,,,,41,0,0,,,4,,,45,127
437820,note_on,,,,,0,0,0,,,4,,,33,127
437834,note_off,,,,,14,0,0,,,2,,,67,64
437863,note_off,,,,,29,0,0,,,2,,,76,64
437863,note_on,,,,,0,0,0,,,2,,,67,127
437904,note_on,,,,,41,0,0,,,2,,,73,118
437917,note_off,,,,,13,0,0,,,2,,,67,64
437946,note_off,,,,,29,0,0,,,4,,,33,64
437947,note_off,,,,,1,0,0,,,4,,,45,64
437947,note_on,,,,,0,0,0,,,2,,,67,127
437988,note_on,,,,,41,0,0,,,4,,,38,127
437988,note_on,,,,,0,0,0,,,4,,,50,127
438002,note_off,,,,,14,0,0,,,2,,,67,64
438030,note_off,,,,,28,0,0,,,2,,,73,64
438030,note_on,,,,,0,0,0,,,4,,,66,127
438073,note_on,,,,,43,0,0,,,2,,,74,118
438086,note_off,,,,,13,0,0,,,4,,,66,64
438115,note_on,,,,,29,0,0,,,4,,,66,127
438156,note_off,,,,,41,0,0,,,1,,,79,64
438157,note_on,,,,,1,0,0,,,1,,,83,115
438171,note_off,,,,,14,0,0,,,4,,,66,64
438198,note_off,,,,,27,0,0,,,2,,,74,64
438198,note_on,,,,,0,0,0,,,2,,,67,127
438234,note_off,,,,,36,0,0,,,4,,,50,64
438234,note_off,,,,,0,0,0,,,4,,,38,64
438240,note_on,,,,,6,0,0,,,2,,,74,118
438255,note_off,,,,,15,0,0,,,2,,,67,64
438283,note_on,,,,,28,0,0,,,2,,,67,127
438325,note_on,,,,,42,0,0,,,4,,,45,127
438325,note_on,,,,,0,0,0,,,4,,,57,127
438339,note_off,,,,,14,0,0,,,2,,,67,64
438368,note_off,,,,,29,0,0,,,2,,,74,64
438368,note_on,,,,,0,0,0,,,4,,,66,127
438409,note_on,,,,,41,0,0,,,2,,,74,118
438423,note_off,,,,,14,0,0,,,4,,,66,64
438452,note_on,,,,,29,0,0,,,4,,,66,127
438465,note_off,,,,,13,0,0,,,2,,,74,64
438486,note_off,,,,,21,0,0,,,1,,,83,64
438494,note_on,,,,,8,0,0,,,2,,,73,118
438507,note_off,,,,,13,0,0,,,4,,,66,64
438536,note_on,,,,,29,0,0,,,4,,,64,126
438579,note_on,,,,,43,0,0,,,2,,,69,119
438593,note_off,,,,,14,0,0,,,4,,,64,64
438622,note_on,,,,,29,0,0,,,4,,,64,126
438650,note_off,,,,,28,0,0,,,2,,,73,64
438664,note_on,,,,,14,0,0,,,2,,,76,118
438677,note_off,,,,,13,0,0,,,4,,,64,64
438706,note_off,,,,,29,0,0,,,2,,,69,64
438707,note_on,,,,,1,0,0,,,2,,,67,127
438747,note_off,,,,,40,0,0,,,4,,,57,64
438748,note_on,,,,,1,0,0,,,2,,,69,119
438762,note_off,,,,,14,0,0,,,2,,,67,64
438791,note_on,,,,,29,0,0,,,2,,,67,127
438831,note_on,,,,,40,0,0,,,2,,,74,118
438832,note_off,,,,,1,0,0,,,2,,,76,64
438846,note_off,,,,,14,0,0,,,2,,,67,64
438874,note_off,,,,,28,0,0,,,2,,,69,64
438875,note_on,,,,,1,0,0,,,4,,,66,127
438915,note_on,,,,,40,0,0,,,2,,,69,119
438929,note_off,,,,,14,0,0,,,4,,,66,64
438956,note_on,,,,,27,0,0,,,4,,,66,127
438971,note_off,,,,,15,0,0,,,2,,,69,64
438990,note_off,,,,,19,0,0,,,2,,,74,64
438998,note_on,,,,,8,0,0,,,1,,,81,115
439011,note_off,,,,,13,0,0,,,4,,,66,64
439040,note_on,,,,,29,0,0,,,2,,,69,119
439084,note_on,,,,,44,0,0,,,1,,,78,115
439100,note_off,,,,,16,0,0,,,2,,,69,64
439129,note_on,,,,,29,0,0,,,2,,,69,119
439168,note_off,,,,,39,0,0,,,1,,,81,64
439172,note_on,,,,,4,0,0,,,1,,,84,115
439188,note_off,,,,,16,0,0,,,2,,,69,64
439216,note_off,,,,,28,0,0,,,1,,,78,64
439216,note_on,,,,,0,0,0,,,2,,,76,118
439257,note_on,,,,,41,0,0,,,1,,,81,115
439272,note_off,,,,,15,0,0,,,2,,,76,64
439301,note_on,,,,,29,0,0,,,2,,,76,118
439317,note_off,,,,,16,0,0,,,1,,,81,64
439344,note_off,,,,,27,0,0,,,1,,,84,64
439344,note_on,,,,,0,0,0,,,1,,,83,115
439358,note_off,,,,,14,0,0,,,2,,,76,64
439387,note_on,,,,,29,0,0,,,2,,,75,118
439431,note_on,,,,,44,0,0,,,1,,,81,115
439444,note_off,,,,,13,0,0,,,2,,,75,64
439475,note_on,,,,,31,0,0,,,2,,,75,118
439517,note_on,,,,,42,0,0,,,1,,,88,117
439519,note_off,,,,,2,0,0,,,1,,,83,64
439533,note_off,,,,,14,0,0,,,2,,,75,64
439561,note_off,,,,,28,0,0,,,1,,,81,64
439562,note_on,,,,,1,0,0,,,2,,,74,118
439607,note_on,,,,,45,0,0,,,1,,,80,115
439622,note_off,,,,,15,0,0,,,2,,,74,64
439651,note_on,,,,,29,0,0,,,2,,,74,118
439665,note_off,,,,,14,0,0,,,1,,,80,64
439695,note_off,,,,,30,0,0,,,1,,,88,64
439695,note_on,,,,,0,0,0,,,1,,,81,115
439707,note_off,,,,,12,0,0,,,2,,,74,64
439738,note_on,,,,,31,0,0,,,2,,,73,118
439782,note_on,,,,,44,0,0,,,1,,,79,115
439796,note_off,,,,,14,0,0,,,2,,,73,64
439825,note_on,,,,,29,0,0,,,2,,,73,118
439870,note_on,,,,,45,0,0,,,1,,,86,115
439875,note_off,,,,,5,0,0,,,1,,,81,64
439885,note_off,,,,,10,0,0,,,2,,,73,64
439912,note_off,,,,,27,0,0,,,1,,,79,64
439912,note_on,,,,,0,0,0,,,2,,,72,118
439955,note_on,,,,,43,0,0,,,1,,,78,115
439970,note_off,,,,,15,0,0,,,2,,,72,64
439999,note_on,,,,,29,0,0,,,2,,,72,118
440044,note_off,,,,,45,0,0,,,4,,,45,64
440044,note_on,,,,,0,0,0,,,4,,,55,127
440044,note_on,,,,,0,0,0,,,4,,,43,127
440059,note_off,,,,,15,0,0,,,2,,,72,64
440088,note_off,,,,,29,0,0,,,1,,,78,64
440088,note_on,,,,,0,0,0,,,2,,,71,117
440131,note_on,,,,,43,0,0,,,1,,,83,115
440139,note_off,,,,,8,0,0,,,4,,,43,64
440139,note_off,,,,,0,0,0,,,4,,,55,64
440145,note_off,,,,,6,0,0,,,2,,,71,64
440174,note_on,,,,,29,0,0,,,2,,,71,117
440216,note_on,,,,,42,0,0,,,4,,,61,127
440217,note_on,,,,,1,0,0,,,4,,,49,127
440231,note_off,,,,,14,0,0,,,2,,,71,64
440261,note_off,,,,,30,0,0,,,1,,,83,64
440262,note_on,,,,,1,0,0,,,2,,,76,118
440304,note_on,,,,,42,0,0,,,1,,,79,115
440313,note_off,,,,,9,0,0,,,4,,,49,64
440313,note_off,,,,,0,0,0,,,4,,,61,64
440319,note_off,,,,,6,0,0,,,2,,,76,64
440348,note_on,,,,,29,0,0,,,2,,,76,118
440390,note_on,,,,,42,0,0,,,4,,,42,127
440390,note_on,,,,,0,0,0,,,4,,,54,127
440404,note_off,,,,,14,0,0,,,2,,,76,64
440433,note_off,,,,,29,0,0,,,1,,,79,64
440434,note_on,,,,,1,0,0,,,2,,,69,119
440477,note_on,,,,,43,0,0,,,1,,,81,115
440484,note_off,,,,,7,0,0,,,4,,,54,64
440484,note_off,,,,,0,0,0,,,4,,,42,64
440491,note_off,,,,,7,0,0,,,2,,,69,64
440520,note_on,,,,,29,0,0,,,2,,,69,119
440560,note_on,,,,,40,0,0,,,4,,,59,127
440561,note_on,,,,,1,0,0,,,4,,,47,127
440576,note_off,,,,,15,0,0,,,2,,,69,64
440604,note_off,,,,,28,0,0,,,1,,,81,64
440604,note_on,,,,,0,0,0,,,2,,,74,118
440648,note_on,,,,,44,0,0,,,1,,,78,115
440655,note_off,,,,,7,0,0,,,4,,,47,64
440656,note_off,,,,,1,0,0,,,4,,,59,64
440662,note_off,,,,,6,0,0,,,2,,,74,64
440689,note_on,,,,,27,0,0,,,2,,,74,118
440731,note_on,,,,,42,0,0,,,4,,,52,127
440732,note_on,,,,,1,0,0,,,4,,,40,127
440746,note_off,,,,,14,0,0,,,2,,,74,64
440773,note_off,,,,,27,0,0,,,1,,,78,64
440774,note_on,,,,,1,0,0,,,2,,,71,117
440815,note_on,,,,,41,0,0,,,1,,,79,115
440830,note_off,,,,,15,0,0,,,2,,,71,64
440857,note_on,,,,,27,0,0,,,2,,,71,117
440872,note_off,,,,,15,0,0,,,1,,,86,64
440899,note_on,,,,,27,0,0,,,1,,,85,115
440915,note_off,,,,,16,0,0,,,2,,,71,64
440941,note_off,,,,,26,0,0,,,1,,,79,64
440942,note_on,,,,,1,0,0,,,2,,,69,119
440983,note_on,,,,,41,0,0,,,1,,,79,115
440998,note_off,,,,,15,0,0,,,2,,,69,64
441027,note_on,,,,,29,0,0,,,2,,,69,119
441051,note_off,,,,,24,0,0,,,1,,,85,64
441067,note_on,,,,,16,0,0,,,1,,,86,115
441082,note_off,,,,,15,0,0,,,2,,,69,64
441110,note_off,,,,,28,0,0,,,1,,,79,64
441111,note_on,,,,,1,0,0,,,2,,,69,119
441152,note_off,,,,,41,0,0,,,4,,,52,64
441152,note_on,,,,,0,0,0,,,1,,,78,115
441166,note_off,,,,,14,0,0,,,2,,,69,64
441195,note_on,,,,,29,0,0,,,2,,,69,119
441237,note_on,,,,,42,0,0,,,2,,,74,118
441251,note_off,,,,,14,0,0,,,2,,,69,64
441279,note_off,,,,,28,0,0,,,1,,,78,64
441280,note_on,,,,,1,0,0,,,2,,,68,121
441321,note_on,,,,,41,0,0,,,2,,,71,117
441336,note_off,,,,,15,0,0,,,2,,,68,64
441365,note_off,,,,,29,0,0,,,1,,,86,64
441365,note_on,,,,,0,0,0,,,2,,,68,121
441379,note_off,,,,,14,0,0,,,2,,,71,64
441395,note_off,,,,,16,0,0,,,2,,,74,64
441406,note_on,,,,,11,0,0,,,1,,,78,115
441420,note_off,,,,,14,0,0,,,2,,,68,64
441448,note_on,,,,,28,0,0,,,2,,,69,119
441489,note_on,,,,,41,0,0,,,2,,,74,118
441502,note_off,,,,,13,0,0,,,2,,,69,64
441529,note_on,,,,,27,0,0,,,2,,,69,119
441542,note_off,,,,,13,0,0,,,2,,,74,64
441564,note_off,,,,,22,0,0,,,1,,,78,64
441571,note_on,,,,,7,0,0,,,2,,,76,118
441585,note_off,,,,,14,0,0,,,2,,,69,64
441613,note_on,,,,,28,0,0,,,2,,,69,119
441660,note_on,,,,,47,0,0,,,2,,,73,118
441675,note_off,,,,,15,0,0,,,2,,,69,64
441704,note_on,,,,,29,0,0,,,2,,,69,119
441740,note_off,,,,,36,0,0,,,2,,,76,64
441748,note_on,,,,,8,0,0,,,2,,,76,118
441748,note_on,,,,,0,0,0,,,1,,,88,117
441762,note_off,,,,,14,0,0,,,2,,,69,64
441795,note_off,,,,,33,0,0,,,2,,,73,64
441874,note_off,,,,,79,0,0,,,4,,,40,64
441925,note_off,,,,,51,0,0,,,2,,,76,64
441926,note_off,,,,,1,0,0,,,1,,,88,64
441933,note_on,,,,,7,0,0,,,2,,,73,118
441933,note_on,,,,,0,0,0,,,1,,,85,115
442102,note_off,,,,,169,0,0,,,2,,,73,64
442103,note_off,,,,,1,0,0,,,1,,,85,64
442111,note_on,,,,,8,0,0,,,2,,,69,119
442111,note_on,,,,,0,0,0,,,1,,,81,115
442321,note_off,,,,,210,0,0,,,1,,,81,64
442321,note_off,,,,,0,0,0,,,2,,,69,64
442449,note_on,,,,,128,0,0,,,4,,,57,127
442449,note_on,,,,,0,0,0,,,4,,,45,127
442540,note_off,,,,,91,0,0,,,4,,,45,64
442540,note_off,,,,,0,0,0,,,4,,,57,64
442633,note_on,,,,,93,0,0,,,4,,,54,127
442633,note_on,,,,,0,0,0,,,4,,,42,127
442759,note_off,,,,,126,0,0,,,4,,,42,64
442759,note_off,,,,,0,0,0,,,4,,,54,64
442822,note_on,,,,,63,0,0,,,4,,,38,127
442822,note_on,,,,,0,0,0,,,4,,,50,127
442864,note_on,,,,,42,0,0,,,4,,,62,127
442907,note_on,,,,,43,0,0,,,4,,,66,127
442920,note_off,,,,,13,0,0,,,4,,,62,64
442949,note_on,,,,,29,0,0,,,4,,,62,127
442963,note_off,,,,,14,0,0,,,4,,,66,64
442990,note_on,,,,,27,0,0,,,1,,,81,115
443004,note_off,,,,,14,0,0,,,4,,,62,64
443033,note_on,,,,,29,0,0,,,4,,,62,127
443075,note_on,,,,,42,0,0,,,4,,,66,127
443088,note_off,,,,,13,0,0,,,4,,,62,64
443117,note_on,,,,,29,0,0,,,4,,,62,127
443132,note_off,,,,,15,0,0,,,4,,,66,64
443146,note_off,,,,,14,0,0,,,1,,,81,64
443160,note_on,,,,,14,0,0,,,1,,,83,115
443175,note_off,,,,,15,0,0,,,4,,,62,64
443204,note_on,,,,,29,0,0,,,4,,,62,127
443248,note_on,,,,,44,0,0,,,4,,,66,127
443261,note_off,,,,,13,0,0,,,4,,,62,64
443290,note_on,,,,,29,0,0,,,4,,,62,127
443304,note_off,,,,,14,0,0,,,4,,,66,64
443329,note_off,,,,,25,0,0,,,1,,,83,64
443333,note_on,,,,,4,0,0,,,1,,,78,115
443347,note_off,,,,,14,0,0,,,4,,,62,64
443376,note_on,,,,,29,0,0,,,4,,,63,127
443418,note_on,,,,,42,0,0,,,2,,,71,117
443433,note_off,,,,,15,0,0,,,4,,,63,64
443462,note_off,,,,,29,0,0,,,4,,,50,64
443462,note_off,,,,,0,0,0,,,4,,,38,64
443463,note_on,,,,,1,0,0,,,4,,,63,127
443475,note_off,,,,,12,0,0,,,2,,,71,64
443500,note_off,,,,,25,0,0,,,1,,,78,64
443504,note_on,,,,,4,0,0,,,1,,,79,115
443518,note_off,,,,,14,0,0,,,4,,,63,64
443546,note_on,,,,,28,0,0,,,4,,,64,126
443589,note_on,,,,,43,0,0,,,2,,,71,117
443604,note_off,,,,,15,0,0,,,4,,,64,64
443633,note_on,,,,,29,0,0,,,4,,,64,126
443646,note_off,,,,,13,0,0,,,2,,,71,64
443677,note_on,,,,,31,0,0,,,4,,,40,127
443677,note_on,,,,,0,0,0,,,4,,,52,127
443691,note_off,,,,,14,0,0,,,4,,,64,64
443718,note_on,,,,,27,0,0,,,2,,,68,121
443760,note_off,,,,,42,0,0,,,4,,,40,64
443761,note_off,,,,,1,0,0,,,4,,,52,64
443761,note_on,,,,,0,0,0,,,2,,,71,117
443775,note_off,,,,,14,0,0,,,2,,,68,64
443804,note_on,,,,,29,0,0,,,2,,,68,121
443817,note_off,,,,,13,0,0,,,2,,,71,64
443844,note_on,,,,,27,0,0,,,4,,,49,127
443844,note_on,,,,,0,0,0,,,4,,,37,127
443858,note_off,,,,,14,0,0,,,2,,,68,64
443887,note_on,,,,,29,0,0,,,2,,,67,127
443929,note_on,,,,,42,0,0,,,2,,,76,118
443943,note_off,,,,,14,0,0,,,2,,,67,64
443951,note_off,,,,,8,0,0,,,4,,,37,64
443951,note_off,,,,,0,0,0,,,4,,,49,64
443971,note_on,,,,,20,0,0,,,2,,,67,127
443986,note_off,,,,,15,0,0,,,2,,,76,64
444013,note_on,,,,,27,0,0,,,4,,,45,127
444013,note_on,,,,,0,0,0,,,4,,,33,127
444027,note_off,,,,,14,0,0,,,2,,,67,64
444056,note_on,,,,,29,0,0,,,2,,,67,127
444098,note_on,,,,,42,0,0,,,2,,,73,118
444112,note_off,,,,,14,0,0,,,2,,,67,64
444120,note_off,,,,,8,0,0,,,4,,,33,64
444120,note_off,,,,,0,0,0,,,4,,,45,64
444142,note_on,,,,,22,0,0,,,2,,,67,127
444155,note_off,,,,,13,0,0,,,2,,,73,64
444184,note_on,,,,,29,0,0,,,4,,,38,127
444184,note_on,,,,,0,0,0,,,4,,,50,127
444196,note_off,,,,,12,0,0,,,2,,,67,64
444225,note_on,,,,,29,0,0,,,4,,,66,127
444267,note_on,,,,,42,0,0,,,2,,,74,118
444281,note_off,,,,,14,0,0,,,4,,,66,64
444310,note_on,,,,,29,0,0,,,4,,,66,127
444323,note_off,,,,,13,0,0,,,2,,,74,64
444352,note_off,,,,,29,0,0,,,1,,,79,64
444352,note_on,,,,,0,0,0,,,1,,,83,115
444366,note_off,,,,,14,0,0,,,4,,,66,64
444393,note_on,,,,,27,0,0,,,2,,,67,127
444430,note_off,,,,,37,0,0,,,4,,,50,64
444430,note_off,,,,,0,0,0,,,4,,,38,64
444436,note_on,,,,,6,0,0,,,2,,,74,118
444450,note_off,,,,,14,0,0,,,2,,,67,64
444479,note_on,,,,,29,0,0,,,2,,,67,127
444492,note_off,,,,,13,0,0,,,2,,,74,64
444521,note_on,,,,,29,0,0,,,4,,,45,127
444521,note_on,,,,,0,0,0,,,4,,,57,127
444533,note_off,,,,,12,0,0,,,2,,,67,64
444562,note_on,,,,,29,0,0,,,4,,,66,127
444604,note_on,,,,,42,0,0,,,2,,,74,118
444618,note_off,,,,,14,0,0,,,4,,,66,64
444647,note_on,,,,,29,0,0,,,4,,,66,127
444660,note_off,,,,,13,0,0,,,2,,,74,64
444689,note_off,,,,,29,0,0,,,1,,,83,64
444689,note_on,,,,,0,0,0,,,2,,,73,118
444702,note_off,,,,,13,0,0,,,4,,,66,64
444730,note_on,,,,,28,0,0,,,4,,,64,126
444774,note_on,,,,,44,0,0,,,2,,,69,119
444788,note_off,,,,,14,0,0,,,4,,,64,64
444816,note_on,,,,,28,0,0,,,4,,,64,126
444830,note_off,,,,,14,0,0,,,2,,,69,64
444849,note_off,,,,,19,0,0,,,2,,,73,64
444859,note_on,,,,,10,0,0,,,2,,,76,118
444872,note_off,,,,,13,0,0,,,4,,,64,64
444901,note_on,,,,,29,0,0,,,2,,,67,127
444947,note_off,,,,,46,0,0,,,4,,,57,64
444948,note_on,,,,,1,0,0,,,2,,,69,119
444961,note_off,,,,,13,0,0,,,2,,,67,64
444992,note_on,,,,,31,0,0,,,2,,,67,127
445009,note_off,,,,,17,0,0,,,2,,,69,64
445038,note_off,,,,,29,0,0,,,2,,,76,64
445042,note_on,,,,,4,0,0,,,2,,,74,118
445059,note_off,,,,,17,0,0,,,2,,,67,64
445094,note_on,,,,,35,0,0,,,4,,,66,127
445148,note_on,,,,,54,0,0,,,2,,,69,119
445169,note_off,,,,,21,0,0,,,4,,,66,64
445211,note_on,,,,,42,0,0,,,4,,,66,127
445234,note_off,,,,,23,0,0,,,2,,,69,64
445274,note_on,,,,,40,0,0,,,2,,,69,119
445298,note_off,,,,,24,0,0,,,4,,,66,64
445395,note_on,,,,,97,0,0,,,2,,,70,119
445397,note_off,,,,,2,0,0,,,2,,,69,64
445501,note_off,,,,,104,0,0,,,2,,,70,64
445503,note_on,,,,,2,0,0,,,2,,,69,119
445509,note_off,,,,,6,0,0,,,2,,,74,64
445613,note_off,,,,,104,0,0,,,2,,,69,64
445613,note_on,,,,,0,0,0,,,2,,,73,117
445714,note_off,,,,,101,0,0,,,2,,,73,64
445721,note_on,,,,,7,0,0,,,2,,,74,113
445771,note_off,,,,,50,0,0,,,4,,,45,64
445817,note_on,,,,,46,0,0,,,2,,,69,113
445817,note_on,,,,,0,0,0,,,4,,,65,123
445818,note_on,,,,,1,0,0,,,4,,,62,127
445918,note_off,,,,,100,0,0,,,4,,,62,64
445918,note_off,,,,,0,0,0,,,4,,,65,64
445919,note_off,,,,,1,0,0,,,2,,,69,64
445927,note_on,,,,,8,0,0,,,2,,,69,113
445927,note_on,,,,,0,0,0,,,4,,,65,123
445927,note_on,,,,,0,0,0,,,4,,,62,127
446024,note_off,,,,,97,0,0,,,4,,,62,64
446024,note_off,,,,,0,0,0,,,4,,,65,64
446024,note_off,,,,,0,0,0,,,2,,,69,64
446032,note_on,,,,,8,0,0,,,2,,,69,113
446033,note_on,,,,,1,0,0,,,4,,,62,127
446033,note_on,,,,,0,0,0,,,4,,,65,123
446093,note_off,,,,,60,0,0,,,2,,,74,64
446135,note_on,,,,,42,0,0,,,1,,,82,105
446191,note_off,,,,,56,0,0,,,1,,,82,64
446191,note_on,,,,,0,0,0,,,1,,,81,105
446236,note_off,,,,,45,0,0,,,4,,,65,64
446236,note_off,,,,,0,0,0,,,4,,,62,64
446237,note_off,,,,,1,0,0,,,2,,,69,64
446241,note_off,,,,,4,0,0,,,1,,,81,64
446241,note_on,,,,,0,0,0,,,1,,,82,105
446241,note_on,,,,,0,0,0,,,2,,,69,113
446242,note_on,,,,,1,0,0,,,4,,,65,123
446242,note_on,,,,,0,0,0,,,4,,,62,127
446291,note_off,,,,,49,0,0,,,1,,,82,64
446291,note_on,,,,,0,0,0,,,1,,,81,105
446334,note_off,,,,,43,0,0,,,4,,,62,64
446334,note_off,,,,,0,0,0,,,4,,,65,64
446335,note_off,,,,,1,0,0,,,2,,,69,64
446342,note_off,,,,,7,0,0,,,1,,,81,64
446343,note_on,,,,,1,0,0,,,4,,,65,123
446343,note_on,,,,,0,0,0,,,2,,,69,113
446343,note_on,,,,,0,0,0,,,1,,,82,100
446344,note_on,,,,,1,0,0,,,4,,,62,127
446390,note_off,,,,,46,0,0,,,1,,,82,64
446391,note_on,,,,,1,0,0,,,1,,,81,100
446430,note_off,,,,,39,0,0,,,4,,,65,64
446430,note_off,,,,,0,0,0,,,4,,,62,64
446431,note_off,,,,,1,0,0,,,2,,,69,64
446438,note_off,,,,,7,0,0,,,1,,,81,64
446439,note_on,,,,,1,0,0,,,1,,,79,100
446439,note_on,,,,,0,0,0,,,2,,,69,113
446440,note_on,,,,,1,0,0,,,4,,,65,123
446440,note_on,,,,,0,0,0,,,4,,,62,127
446486,note_off,,,,,46,0,0,,,1,,,79,64
446487,note_on,,,,,1,0,0,,,2,,,77,103
446537,note_off,,,,,50,0,0,,,2,,,77,64
446538,note_on,,,,,1,0,0,,,2,,,76,108
446632,note_off,,,,,94,0,0,,,4,,,62,64
446633,note_off,,,,,1,0,0,,,4,,,65,64
446633,note_off,,,,,0,0,0,,,2,,,69,64
446637,note_on,,,,,4,0,0,,,4,,,64,121
446638,note_on,,,,,1,0,0,,,4,,,55,127
446638,note_on,,,,,0,0,0,,,4,,,58,127
446732,note_off,,,,,94,0,0,,,4,,,55,64
446733,note_off,,,,,1,0,0,,,4,,,64,64
446733,note_off,,,,,0,0,0,,,4,,,58,64
446740,note_on,,,,,7,0,0,,,4,,,64,121
446740,note_on,,,,,0,0,0,,,4,,,58,127
446741,note_on,,,,,1,0,0,,,4,,,55,127
446833,note_off,,,,,92,0,0,,,4,,,55,64
446833,note_off,,,,,0,0,0,,,4,,,58,64
446834,note_off,,,,,1,0,0,,,4,,,64,64
446840,note_on,,,,,6,0,0,,,4,,,58,127
446840,note_on,,,,,0,0,0,,,4,,,64,121
446841,note_on,,,,,1,0,0,,,4,,,55,127
446891,note_off,,,,,50,0,0,,,2,,,76,64
446944,note_on,,,,,53,0,0,,,1,,,81,100
446998,note_off,,,,,54,0,0,,,1,,,81,64
446999,note_on,,,,,1,0,0,,,1,,,79,96
447043,note_off,,,,,44,0,0,,,4,,,55,64
447044,note_off,,,,,1,0,0,,,4,,,64,64
447044,note_off,,,,,0,0,0,,,4,,,58,64
447048,note_off,,,,,4,0,0,,,1,,,79,64
447048,note_on,,,,,0,0,0,,,1,,,81,100
447049,note_on,,,,,1,0,0,,,4,,,61,127
447049,note_on,,,,,0,0,0,,,4,,,64,121
447050,note_on,,,,,1,0,0,,,4,,,57,127
447097,note_off,,,,,47,0,0,,,1,,,81,64
447097,note_on,,,,,0,0,0,,,1,,,79,96
447138,note_off,,,,,41,0,0,,,4,,,57,64
447139,note_off,,,,,1,0,0,,,4,,,64,64
447139,note_off,,,,,0,0,0,,,4,,,61,64
447147,note_off,,,,,8,0,0,,,1,,,79,64
447147,note_on,,,,,0,0,0,,,1,,,81,100
447148,note_on,,,,,1,0,0,,,4,,,64,127
447148,note_on,,,,,0,0,0,,,4,,,61,127
447149,note_on,,,,,1,0,0,,,4,,,57,127
447195,note_off,,,,,46,0,0,,,1,,,81,64
447195,note_on,,,,,0,0,0,,,1,,,79,96
447238,note_off,,,,,43,0,0,,,4,,,57,64
447239,note_off,,,,,1,0,0,,,4,,,61,64
447239,note_off,,,,,0,0,0,,,4,,,64,64
447247,note_off,,,,,8,0,0,,,1,,,79,64
447247,note_on,,,,,0,0,0,,,2,,,77,99
447248,note_on,,,,,1,0,0,,,4,,,64,127
447248,note_on,,,,,0,0,0,,,4,,,61,127
447249,note_on,,,,,1,0,0,,,4,,,57,127
447299,note_off,,,,,50,0,0,,,2,,,77,64
447299,note_on,,,,,0,0,0,,,2,,,76,104
447342,note_off,,,,,43,0,0,,,4,,,57,64
447342,note_off,,,,,0,0,0,,,4,,,61,64
447343,note_off,,,,,1,0,0,,,4,,,64,64
447350,note_on,,,,,7,0,0,,,2,,,77,104
447351,note_on,,,,,1,0,0,,,4,,,50,127
447351,note_on,,,,,0,0,0,,,4,,,62,127
447359,note_off,,,,,8,0,0,,,2,,,76,64
447453,note_on,,,,,94,0,0,,,2,,,74,104
447553,note_off,,,,,100,0,0,,,2,,,77,64
447557,note_off,,,,,4,0,0,,,4,,,62,64
447557,note_off,,,,,0,0,0,,,4,,,50,64
447558,note_on,,,,,1,0,0,,,4,,,60,127
447558,note_on,,,,,0,0,0,,,1,,,78,105
447559,note_on,,,,,1,0,0,,,4,,,48,127
447655,note_off,,,,,96,0,0,,,2,,,74,64
447660,note_on,,,,,5,0,0,,,2,,,74,108
447761,note_off,,,,,101,0,0,,,1,,,78,64
447766,note_off,,,,,5,0,0,,,4,,,48,64
447767,note_off,,,,,1,0,0,,,4,,,60,64
447767,note_on,,,,,0,0,0,,,1,,,79,105
447768,note_on,,,,,1,0,0,,,4,,,47,127
447768,note_on,,,,,0,0,0,,,4,,,59,127
447864,note_off,,,,,96,0,0,,,2,,,74,64
447870,note_on,,,,,6,0,0,,,2,,,74,108
447968,note_off,,,,,98,0,0,,,1,,,79,64
447972,note_off,,,,,4,0,0,,,4,,,59,64
447972,note_off,,,,,0,0,0,,,4,,,47,64
447973,note_on,,,,,1,0,0,,,1,,,80,105
447973,note_on,,,,,0,0,0,,,1,,,86,105
447974,note_on,,,,,1,0,0,,,4,,,46,127
447974,note_on,,,,,0,0,0,,,4,,,58,127
448068,note_off,,,,,94,0,0,,,2,,,74,64
448075,note_on,,,,,7,0,0,,,2,,,74,108
448170,note_off,,,,,95,0,0,,,1,,,80,64
448171,note_off,,,,,1,0,0,,,1,,,86,64
448175,note_off,,,,,4,0,0,,,2,,,74,64
448176,note_off,,,,,1,0,0,,,4,,,58,64
448176,note_off,,,,,0,0,0,,,4,,,46,64
448176,note_on,,,,,0,0,0,,,1,,,86,105
448177,note_on,,,,,1,0,0,,,1,,,81,105
448177,note_on,,,,,0,0,0,,,2,,,77,108
448178,note_on,,,,,1,0,0,,,4,,,45,127
448178,note_on,,,,,0,0,0,,,4,,,57,127
448377,note_off,,,,,199,0,0,,,1,,,86,64
448377,note_off,,,,,0,0,0,,,2,,,77,64
448386,note_on,,,,,9,0,0,,,2,,,76,108
448386,note_on,,,,,0,0,0,,,1,,,85,105
448569,note_off,,,,,183,0,0,,,1,,,81,64
448579,note_off,,,,,10,0,0,,,1,,,85,64
448579,note_off,,,,,0,0,0,,,2,,,76,64
448587,note_on,,,,,8,0,0,,,2,,,69,113
448695,note_off,,,,,108,0,0,,,2,,,69,64
448695,note_on,,,,,0,0,0,,,2,,,70,108
448801,note_off,,,,,106,0,0,,,2,,,70,64
448802,note_on,,,,,1,0,0,,,2,,,69,113
448910,note_off,,,,,108,0,0,,,2,,,69,64
448910,note_on,,,,,0,0,0,,,2,,,73,107
449016,note_off,,,,,106,0,0,,,2,,,73,64
449017,note_on,,,,,1,0,0,,,2,,,74,108
449108,note_off,,,,,91,0,0,,,4,,,57,64
449108,note_off,,,,,0,0,0,,,4,,,45,64
449116,note_on,,,,,8,0,0,,,4,,,62,127
449117,note_on,,,,,1,0,0,,,4,,,57,127
449117,note_on,,,,,0,0,0,,,4,,,53,127
449208,note_off,,,,,91,0,0,,,4,,,53,64
449208,note_off,,,,,0,0,0,,,4,,,57,64
449208,note_off,,,,,0,0,0,,,4,,,62,64
449214,note_on,,,,,6,0,0,,,4,,,62,127
449215,note_on,,,,,1,0,0,,,4,,,53,127
449215,note_on,,,,,0,0,0,,,4,,,57,127
449305,note_off,,,,,90,0,0,,,4,,,53,64
449306,note_off,,,,,1,0,0,,,4,,,62,64
449306,note_off,,,,,0,0,0,,,4,,,57,64
449314,note_on,,,,,8,0,0,,,4,,,62,127
449315,note_on,,,,,1,0,0,,,4,,,57,127
449315,note_on,,,,,0,0,0,,,4,,,53,127
449363,note_off,,,,,48,0,0,,,2,,,74,64
449411,note_on,,,,,48,0,0,,,2,,,76,112
449463,note_off,,,,,52,0,0,,,2,,,76,64
449463,note_on,,,,,0,0,0,,,2,,,74,112
449506,note_off,,,,,43,0,0,,,4,,,53,64
449507,note_off,,,,,1,0,0,,,4,,,57,64
449507,note_off,,,,,0,0,0,,,4,,,62,64
449511,note_off,,,,,4,0,0,,,2,,,74,64
449511,note_on,,,,,0,0,0,,,2,,,76,112
449512,note_on,,,,,1,0,0,,,4,,,57,127
449512,note_on,,,,,0,0,0,,,4,,,62,127
449513,note_on,,,,,1,0,0,,,4,,,53,127
449561,note_off,,,,,48,0,0,,,2,,,76,64
449561,note_on,,,,,0,0,0,,,2,,,74,112
449600,note_off,,,,,39,0,0,,,4,,,53,64
449601,note_off,,,,,1,0,0,,,4,,,62,64
449601,note_off,,,,,0,0,0,,,4,,,57,64
449607,note_off,,,,,6,0,0,,,2,,,74,64
449608,note_on,,,,,1,0,0,,,2,,,76,107
449608,note_on,,,,,0,0,0,,,4,,,62,127
449608,note_on,,,,,0,0,0,,,4,,,57,127
449609,note_on,,,,,1,0,0,,,4,,,53,127
449654,note_off,,,,,45,0,0,,,2,,,76,64
449654,note_on,,,,,0,0,0,,,2,,,74,107
449693,note_off,,,,,39,0,0,,,4,,,53,64
449694,note_off,,,,,1,0,0,,,4,,,57,64
449694,note_off,,,,,0,0,0,,,4,,,62,64
449702,note_off,,,,,8,0,0,,,2,,,74,64
449702,note_on,,,,,0,0,0,,,2,,,73,106
449703,note_on,,,,,1,0,0,,,4,,,57,127
449703,note_on,,,,,0,0,0,,,4,,,62,127
449704,note_on,,,,,1,0,0,,,4,,,53,127
449750,note_off,,,,,46,0,0,,,2,,,73,64
449750,note_on,,,,,0,0,0,,,2,,,74,115
449797,note_off,,,,,47,0,0,,,2,,,74,64
449797,note_on,,,,,0,0,0,,,2,,,75,107
449892,note_off,,,,,95,0,0,,,4,,,57,64
449892,note_off,,,,,0,0,0,,,4,,,53,64
449893,note_off,,,,,1,0,0,,,4,,,62,64
449897,note_on,,,,,4,0,0,,,4,,,60,127
449898,note_on,,,,,1,0,0,,,4,,,57,127
449898,note_on,,,,,0,0,0,,,4,,,53,127
449988,note_off,,,,,90,0,0,,,4,,,53,64
449988,note_off,,,,,0,0,0,,,4,,,57,64
449989,note_off,,,,,1,0,0,,,4,,,60,64
449997,note_on,,,,,8,0,0,,,4,,,57,127
449997,note_on,,,,,0,0,0,,,4,,,60,127
449998,note_on,,,,,1,0,0,,,4,,,53,127
450088,note_off,,,,,90,0,0,,,4,,,57,64
450088,note_off,,,,,0,0,0,,,4,,,53,64
450089,note_off,,,,,1,0,0,,,4,,,60,64
450095,note_on,,,,,6,0,0,,,4,,,57,127
450095,note_on,,,,,0,0,0,,,4,,,60,127
450096,note_on,,,,,1,0,0,,,4,,,53,127
450145,note_off,,,,,49,0,0,,,2,,,75,64
450193,note_on,,,,,48,0,0,,,2,,,76,112
450244,note_off,,,,,51,0,0,,,2,,,76,64
450244,note_on,,,,,0,0,0,,,2,,,75,112
450287,note_off,,,,,43,0,0,,,4,,,57,64
450287,note_off,,,,,0,0,0,,,4,,,53,64
450288,note_off,,,,,1,0,0,,,4,,,60,64
450292,note_off,,,,,4,0,0,,,2,,,75,64
450292,note_on,,,,,0,0,0,,,2,,,76,112
450293,note_on,,,,,1,0,0,,,4,,,60,127
450293,note_on,,,,,0,0,0,,,4,,,57,127
450294,note_on,,,,,1,0,0,,,4,,,53,127
450340,note_off,,,,,46,0,0,,,2,,,76,64
450340,note_on,,,,,0,0,0,,,2,,,75,112
450381,note_off,,,,,41,0,0,,,4,,,53,64
450381,note_off,,,,,0,0,0,,,4,,,57,64
450382,note_off,,,,,1,0,0,,,4,,,60,64
450388,note_off,,,,,6,0,0,,,2,,,75,64
450388,note_on,,,,,0,0,0,,,2,,,76,112
450389,note_on,,,,,1,0,0,,,4,,,60,127
450389,note_on,,,,,0,0,0,,,4,,,57,127
450389,note_on,,,,,0,0,0,,,4,,,53,127
450435,note_off,,,,,46,0,0,,,2,,,76,64
450436,note_on,,,,,1,0,0,,,2,,,75,112
450475,note_off,,,,,39,0,0,,,4,,,53,64
450475,note_off,,,,,0,0,0,,,4,,,57,64
450476,note_off,,,,,1,0,0,,,4,,,60,64
450481,note_off,,,,,5,0,0,,,2,,,75,64
450482,note_on,,,,,1,0,0,,,2,,,73,111
450482,note_on,,,,,0,0,0,,,4,,,60,127
450483,note_on,,,,,1,0,0,,,4,,,57,127
450483,note_on,,,,,0,0,0,,,4,,,53,127
450528,note_off,,,,,45,0,0,,,2,,,73,64
450528,note_on,,,,,0,0,0,,,2,,,75,112
450567,note_off,,,,,39,0,0,,,4,,,53,64
450567,note_off,,,,,0,0,0,,,4,,,57,64
450568,note_off,,,,,1,0,0,,,4,,,60,64
450576,note_off,,,,,8,0,0,,,2,,,75,64
450576,note_on,,,,,0,0,0,,,4,,,60,127
450576,note_on,,,,,0,0,0,,,2,,,76,112
450577,note_on,,,,,1,0,0,,,4,,,52,127
450577,note_on,,,,,0,0,0,,,4,,,57,127
450773,note_on,,,,,196,0,0,,,2,,,69,113
450922,note_off,,,,,149,0,0,,,2,,,76,64
450964,note_off,,,,,42,0,0,,,4,,,52,64
450972,note_off,,,,,8,0,0,,,4,,,60,64
450972,note_off,,,,,0,0,0,,,4,,,57,64
450972,note_on,,,,,0,0,0,,,4,,,59,127
450972,note_on,,,,,0,0,0,,,4,,,62,127
450973,note_on,,,,,1,0,0,,,4,,,52,127
451171,note_on,,,,,198,0,0,,,2,,,71,111
451187,note_off,,,,,16,0,0,,,2,,,69,64
451319,note_off,,,,,132,0,0,,,2,,,71,64
451320,note_on,,,,,1,0,0,,,2,,,68,115
451372,note_off,,,,,52,0,0,,,2,,,68,64
451372,note_off,,,,,0,0,0,,,4,,,52,64
451373,note_off,,,,,1,0,0,,,4,,,62,64
451373,note_off,,,,,0,0,0,,,4,,,59,64
451374,note_on,,,,,1,0,0,,,4,,,57,127
451374,note_on,,,,,0,0,0,,,2,,,69,113
451375,note_on,,,,,1,0,0,,,4,,,60,127
451743,note_off,,,,,368,0,0,,,2,,,69,64
451768,note_on,,,,,25,0,0,,,2,,,69,113
451876,note_off,,,,,108,0,0,,,2,,,69,64
451876,note_on,,,,,0,0,0,,,2,,,70,113
451981,note_off,,,,,105,0,0,,,2,,,70,64
451981,note_on,,,,,0,0,0,,,2,,,69,113
452086,note_off,,,,,105,0,0,,,2,,,69,64
452086,note_on,,,,,0,0,0,,,2,,,73,112
452191,note_off,,,,,105,0,0,,,2,,,73,64
452192,note_on,,,,,1,0,0,,,2,,,74,113
452282,note_off,,,,,90,0,0,,,4,,,57,64
452282,note_off,,,,,0,0,0,,,4,,,60,64
452290,note_on,,,,,8,0,0,,,2,,,69,113
452290,note_on,,,,,0,0,0,,,4,,,65,123
452291,note_on,,,,,1,0,0,,,4,,,62,127
452381,note_off,,,,,90,0,0,,,4,,,62,64
452381,note_off,,,,,0,0,0,,,4,,,65,64
452382,note_off,,,,,1,0,0,,,2,,,69,64
452389,note_on,,,,,7,0,0,,,2,,,69,113
452390,note_on,,,,,1,0,0,,,4,,,62,127
452390,note_on,,,,,0,0,0,,,4,,,65,123
452481,note_off,,,,,91,0,0,,,4,,,62,64
452482,note_off,,,,,1,0,0,,,2,,,69,64
452482,note_off,,,,,0,0,0,,,4,,,65,64
452487,note_on,,,,,5,0,0,,,2,,,69,113
452488,note_on,,,,,1,0,0,,,4,,,62,127
452488,note_on,,,,,0,0,0,,,4,,,65,123
452538,note_off,,,,,50,0,0,,,2,,,74,64
452587,note_on,,,,,49,0,0,,,1,,,82,100
452639,note_off,,,,,52,0,0,,,1,,,82,64
452639,note_on,,,,,0,0,0,,,1,,,81,100
452684,note_off,,,,,45,0,0,,,4,,,62,64
452685,note_off,,,,,1,0,0,,,2,,,69,64
452685,note_off,,,,,0,0,0,,,4,,,65,64
452689,note_off,,,,,4,0,0,,,1,,,81,64
452689,note_on,,,,,0,0,0,,,1,,,82,100
452690,note_on,,,,,1,0,0,,,2,,,69,113
452690,note_on,,,,,0,0,0,,,4,,,65,123
452691,note_on,,,,,1,0,0,,,4,,,62,127
452739,note_off,,,,,48,0,0,,,1,,,82,64
452739,note_on,,,,,0,0,0,,,1,,,81,100
452780,note_off,,,,,41,0,0,,,4,,,62,64
452781,note_off,,,,,1,0,0,,,4,,,65,64
452781,note_off,,,,,0,0,0,,,2,,,69,64
452787,note_off,,,,,6,0,0,,,1,,,81,64
452788,note_on,,,,,1,0,0,,,1,,,82,100
452788,note_on,,,,,0,0,0,,,2,,,69,113
452789,note_on,,,,,1,0,0,,,4,,,65,123
452789,note_on,,,,,0,0,0,,,4,,,62,127
452837,note_off,,,,,48,0,0,,,1,,,82,64
452837,note_on,,,,,0,0,0,,,1,,,81,100
452877,note_off,,,,,40,0,0,,,4,,,62,64
452877,note_off,,,,,0,0,0,,,4,,,65,64
452878,note_off,,,,,1,0,0,,,2,,,69,64
452885,note_off,,,,,7,0,0,,,1,,,81,64
452885,note_on,,,,,0,0,0,,,1,,,79,100
452886,note_on,,,,,1,0,0,,,2,,,69,113
452886,note_on,,,,,0,0,0,,,4,,,65,123
452887,note_on,,,,,1,0,0,,,4,,,62,127
452937,note_off,,,,,50,0,0,,,1,,,79,64
452937,note_on,,,,,0,0,0,,,2,,,77,108
452988,note_on,,,,,51,0,0,,,2,,,76,108
452995,note_off,,,,,7,0,0,,,2,,,77,64
453082,note_off,,,,,87,0,0,,,4,,,62,64
453082,note_off,,,,,0,0,0,,,4,,,65,64
453083,note_off,,,,,1,0,0,,,2,,,69,64
453087,note_on,,,,,4,0,0,,,4,,,58,127
453087,note_on,,,,,0,0,0,,,4,,,64,121
453088,note_on,,,,,1,0,0,,,4,,,55,127
453178,note_off,,,,,90,0,0,,,4,,,55,64
453179,note_off,,,,,1,0,0,,,4,,,64,64
453179,note_off,,,,,0,0,0,,,4,,,58,64
453187,note_on,,,,,8,0,0,,,4,,,64,121
453187,note_on,,,,,0,0,0,,,4,,,58,127
453187,note_on,,,,,0,0,0,,,4,,,55,127
453278,note_off,,,,,91,0,0,,,4,,,55,64
453278,note_off,,,,,0,0,0,,,4,,,58,64
453279,note_off,,,,,1,0,0,,,4,,,64,64
453285,note_on,,,,,6,0,0,,,4,,,58,127
453285,note_on,,,,,0,0,0,,,4,,,64,121
453286,note_on,,,,,1,0,0,,,4,,,55,127
453336,note_off,,,,,50,0,0,,,2,,,76,64
453384,note_on,,,,,48,0,0,,,1,,,81,100
453441,note_off,,,,,57,0,0,,,1,,,81,64
453442,note_on,,,,,1,0,0,,,1,,,79,96
453486,note_off,,,,,44,0,0,,,4,,,55,64
453487,note_off,,,,,1,0,0,,,4,,,64,64
453487,note_off,,,,,0,0,0,,,4,,,58,64
453491,note_off,,,,,4,0,0,,,1,,,79,64
453492,note_on,,,,,1,0,0,,,1,,,81,96
453492,note_on,,,,,0,0,0,,,4,,,64,121
453492,note_on,,,,,0,0,0,,,4,,,61,127
453492,note_on,,,,,0,0,0,,,4,,,57,127
453539,note_off,,,,,47,0,0,,,1,,,81,64
453540,note_on,,,,,1,0,0,,,1,,,79,96
453582,note_off,,,,,42,0,0,,,4,,,57,64
453583,note_off,,,,,1,0,0,,,4,,,61,64
453583,note_off,,,,,0,0,0,,,4,,,64,64
453591,note_off,,,,,8,0,0,,,1,,,79,64
453591,note_on,,,,,0,0,0,,,1,,,81,96
453592,note_on,,,,,1,0,0,,,4,,,57,127
453592,note_on,,,,,0,0,0,,,4,,,61,127
453592,note_on,,,,,0,0,0,,,4,,,64,121
453641,note_off,,,,,49,0,0,,,1,,,81,64
453641,note_on,,,,,0,0,0,,,1,,,79,96
453680,note_off,,,,,39,0,0,,,4,,,57,64
453681,note_off,,,,,1,0,0,,,4,,,64,64
453681,note_off,,,,,0,0,0,,,4,,,61,64
453689,note_off,,,,,8,0,0,,,1,,,79,64
453689,note_on,,,,,0,0,0,,,2,,,77,104
453690,note_on,,,,,1,0,0,,,4,,,64,127
453690,note_on,,,,,0,0,0,,,4,,,61,127
453691,note_on,,,,,1,0,0,,,4,,,57,127
453739,note_off,,,,,48,0,0,,,2,,,77,64
453739,note_on,,,,,0,0,0,,,2,,,76,104
453780,note_off,,,,,41,0,0,,,4,,,57,64
453780,note_off,,,,,0,0,0,,,4,,,61,64
453781,note_off,,,,,1,0,0,,,4,,,64,64
453789,note_on,,,,,8,0,0,,,4,,,62,127
453789,note_on,,,,,0,0,0,,,2,,,77,104
453790,note_on,,,,,1,0,0,,,4,,,50,127
453797,note_off,,,,,7,0,0,,,2,,,76,64
453889,note_on,,,,,92,0,0,,,2,,,74,108
453984,note_off,,,,,95,0,0,,,2,,,77,64
453987,note_on,,,,,3,0,0,,,1,,,78,105
453988,note_on,,,,,1,0,0,,,4,,,48,127
453988,note_on,,,,,0,0,0,,,4,,,60,127
453992,note_off,,,,,4,0,0,,,4,,,50,64
453993,note_off,,,,,1,0,0,,,4,,,62,64
454085,note_off,,,,,92,0,0,,,2,,,74,64
454089,note_on,,,,,4,0,0,,,2,,,74,108
454191,note_off,,,,,102,0,0,,,1,,,78,64
454195,note_on,,,,,4,0,0,,,4,,,59,127
454195,note_on,,,,,0,0,0,,,1,,,79,105
454196,note_on,,,,,1,0,0,,,4,,,47,127
454198,note_off,,,,,2,0,0,,,4,,,60,64
454198,note_off,,,,,0,0,0,,,4,,,48,64
454291,note_off,,,,,93,0,0,,,2,,,74,64
454296,note_on,,,,,5,0,0,,,2,,,74,108
454396,note_off,,,,,100,0,0,,,1,,,79,64
454402,note_on,,,,,6,0,0,,,1,,,86,105
454403,note_on,,,,,1,0,0,,,4,,,58,127
454403,note_on,,,,,0,0,0,,,1,,,80,105
454404,note_off,,,,,1,0,0,,,4,,,59,64
454404,note_off,,,,,0,0,0,,,4,,,47,64
454404,note_on,,,,,0,0,0,,,4,,,46,127
454499,note_off,,,,,95,0,0,,,2,,,74,64
454505,note_on,,,,,6,0,0,,,2,,,74,108
454605,note_off,,,,,100,0,0,,,1,,,86,64
454605,note_off,,,,,0,0,0,,,1,,,80,64
454613,note_off,,,,,8,0,0,,,2,,,74,64
454614,note_on,,,,,1,0,0,,,1,,,81,105
454614,note_on,,,,,0,0,0,,,1,,,86,105
454615,note_on,,,,,1,0,0,,,4,,,57,127
454615,note_on,,,,,0,0,0,,,2,,,77,108
454616,note_on,,,,,1,0,0,,,4,,,45,127
454618,note_off,,,,,2,0,0,,,4,,,46,64
454619,note_off,,,,,1,0,0,,,4,,,58,64
454809,note_off,,,,,190,0,0,,,2,,,77,64
454810,note_off,,,,,1,0,0,,,1,,,86,64
454818,note_on,,,,,8,0,0,,,1,,,85,105
454818,note_on,,,,,0,0,0,,,2,,,76,108
454924,note_off,,,,,106,0,0,,,1,,,81,64
455026,note_off,,,,,102,0,0,,,2,,,76,64
455027,note_off,,,,,1,0,0,,,1,,,85,64
455033,note_off,,,,,6,0,0,,,4,,,57,64
455035,note_on,,,,,2,0,0,,,2,,,69,113
455037,note_off,,,,,2,0,0,,,4,,,45,64
455148,note_off,,,,,111,0,0,,,2,,,69,64
455148,note_on,,,,,0,0,0,,,2,,,70,113
455251,note_off,,,,,103,0,0,,,2,,,70,64
455252,note_on,,,,,1,0,0,,,2,,,69,113
455359,note_off,,,,,107,0,0,,,2,,,69,64
455360,note_on,,,,,1,0,0,,,2,,,73,112
455462,note_off,,,,,102,0,0,,,2,,,73,64
455463,note_on,,,,,1,0,0,,,2,,,74,113
455561,note_on,,,,,98,0,0,,,4,,,62,127
455562,note_on,,,,,1,0,0,,,4,,,57,127
455562,note_on,,,,,0,0,0,,,4,,,53,127
455652,note_off,,,,,90,0,0,,,4,,,53,64
455653,note_off,,,,,1,0,0,,,4,,,57,64
455653,note_off,,,,,0,0,0,,,4,,,62,64
455661,note_on,,,,,8,0,0,,,4,,,62,127
455662,note_on,,,,,1,0,0,,,4,,,57,127
455662,note_on,,,,,0,0,0,,,4,,,53,127
455752,note_off,,,,,90,0,0,,,4,,,53,64
455753,note_off,,,,,1,0,0,,,4,,,57,64
455753,note_off,,,,,0,0,0,,,4,,,62,64
455761,note_on,,,,,8,0,0,,,4,,,62,127
455761,note_on,,,,,0,0,0,,,4,,,57,127
455762,note_on,,,,,1,0,0,,,4,,,53,127
455810,note_off,,,,,48,0,0,,,2,,,74,64
455860,note_on,,,,,50,0,0,,,2,,,76,112
455917,note_off,,,,,57,0,0,,,2,,,76,64
455918,note_on,,,,,1,0,0,,,2,,,74,112
455963,note_off,,,,,45,0,0,,,4,,,53,64
455963,note_off,,,,,0,0,0,,,4,,,57,64
455964,note_off,,,,,1,0,0,,,4,,,62,64
455968,note_off,,,,,4,0,0,,,2,,,74,64
455969,note_on,,,,,1,0,0,,,4,,,62,127
455969,note_on,,,,,0,0,0,,,2,,,76,112
455970,note_on,,,,,1,0,0,,,4,,,53,127
455970,note_on,,,,,0,0,0,,,4,,,57,127
456022,note_off,,,,,52,0,0,,,2,,,76,64
456023,note_on,,,,,1,0,0,,,2,,,74,112
456065,note_off,,,,,42,0,0,,,4,,,53,64
456066,note_off,,,,,1,0,0,,,4,,,62,64
456066,note_off,,,,,0,0,0,,,4,,,57,64
456074,note_off,,,,,8,0,0,,,2,,,74,64
456074,note_on,,,,,0,0,0,,,2,,,76,112
456075,note_on,,,,,1,0,0,,,4,,,62,127
456075,note_on,,,,,0,0,0,,,4,,,57,127
456076,note_on,,,,,1,0,0,,,4,,,53,127
456124,note_off,,,,,48,0,0,,,2,,,76,64
456124,note_on,,,,,0,0,0,,,2,,,74,112
456163,note_off,,,,,39,0,0,,,4,,,53,64
456164,note_off,,,,,1,0,0,,,4,,,57,64
456164,note_off,,,,,0,0,0,,,4,,,62,64
456172,note_off,,,,,8,0,0,,,2,,,74,64
456172,note_on,,,,,0,0,0,,,2,,,73,111
456173,note_on,,,,,1,0,0,,,4,,,57,127
456173,note_on,,,,,0,0,0,,,4,,,62,127
456174,note_on,,,,,1,0,0,,,4,,,53,127
456220,note_off,,,,,46,0,0,,,2,,,73,64
456220,note_on,,,,,0,0,0,,,2,,,74,112
456269,note_off,,,,,49,0,0,,,2,,,74,64
456269,note_on,,,,,0,0,0,,,2,,,75,112
456364,note_off,,,,,95,0,0,,,4,,,57,64
456364,note_off,,,,,0,0,0,,,4,,,53,64
456365,note_off,,,,,1,0,0,,,4,,,62,64
456367,note_on,,,,,2,0,0,,,4,,,60,127
456367,note_on,,,,,0,0,0,,,4,,,57,127
456368,note_on,,,,,1,0,0,,,4,,,53,127
456459,note_off,,,,,91,0,0,,,4,,,53,64
456459,note_off,,,,,0,0,0,,,4,,,57,64
456460,note_off,,,,,1,0,0,,,4,,,60,64
456468,note_on,,,,,8,0,0,,,4,,,53,127
456468,note_on,,,,,0,0,0,,,4,,,57,127
456468,note_on,,,,,0,0,0,,,4,,,60,127
456558,note_off,,,,,90,0,0,,,4,,,57,64
456558,note_off,,,,,0,0,0,,,4,,,53,64
456559,note_off,,,,,1,0,0,,,4,,,60,64
456566,note_on,,,,,7,0,0,,,4,,,60,127
456567,note_on,,,,,1,0,0,,,4,,,53,127
456567,note_on,,,,,0,0,0,,,4,,,57,127
456617,note_off,,,,,50,0,0,,,2,,,75,64
456665,note_on,,,,,48,0,0,,,2,,,76,112
456722,note_off,,,,,57,0,0,,,2,,,76,64
456722,note_on,,,,,0,0,0,,,2,,,75,112
456767,note_off,,,,,45,0,0,,,4,,,53,64
456768,note_off,,,,,1,0,0,,,4,,,60,64
456768,note_off,,,,,0,0,0,,,4,,,57,64
456772,note_off,,,,,4,0,0,,,2,,,75,64
456772,note_on,,,,,0,0,0,,,2,,,76,112
456773,note_on,,,,,1,0,0,,,4,,,60,127
456773,note_on,,,,,0,0,0,,,4,,,57,127
456774,note_on,,,,,1,0,0,,,4,,,53,127
456826,note_off,,,,,52,0,0,,,2,,,76,64
456826,note_on,,,,,0,0,0,,,2,,,75,112
456867,note_off,,,,,41,0,0,,,4,,,53,64
456867,note_off,,,,,0,0,0,,,4,,,57,64
456868,note_off,,,,,1,0,0,,,4,,,60,64
456876,note_off,,,,,8,0,0,,,2,,,75,64
456876,note_on,,,,,0,0,0,,,4,,,60,127
456876,note_on,,,,,0,0,0,,,2,,,76,112
456877,note_on,,,,,1,0,0,,,4,,,53,127
456877,note_on,,,,,0,0,0,,,4,,,57,127
456927,note_off,,,,,50,0,0,,,2,,,76,64
456928,note_on,,,,,1,0,0,,,2,,,75,112
456965,note_off,,,,,37,0,0,,,4,,,53,64
456966,note_off,,,,,1,0,0,,,4,,,60,64
456966,note_off,,,,,0,0,0,,,4,,,57,64
456972,note_off,,,,,6,0,0,,,2,,,75,64
456972,note_on,,,,,0,0,0,,,2,,,73,111
456972,note_on,,,,,0,0,0,,,4,,,60,127
456973,note_on,,,,,1,0,0,,,4,,,57,127
456973,note_on,,,,,0,0,0,,,4,,,53,127
457018,note_off,,,,,45,0,0,,,2,,,73,64
457019,note_on,,,,,1,0,0,,,2,,,75,112
457057,note_off,,,,,38,0,0,,,4,,,53,64
457057,note_off,,,,,0,0,0,,,4,,,57,64
457058,note_off,,,,,1,0,0,,,4,,,60,64
457064,note_off,,,,,6,0,0,,,2,,,75,64
457064,note_on,,,,,0,0,0,,,2,,,76,112
457065,note_on,,,,,1,0,0,,,4,,,57,127
457065,note_on,,,,,0,0,0,,,4,,,60,127
457066,note_on,,,,,1,0,0,,,4,,,52,127
457262,note_off,,,,,196,0,0,,,2,,,76,64
457262,note_on,,,,,0,0,0,,,2,,,69,113
457452,note_off,,,,,190,0,0,,,4,,,52,64
457461,note_off,,,,,9,0,0,,,4,,,60,64
457461,note_off,,,,,0,0,0,,,4,,,57,64
457462,note_on,,,,,1,0,0,,,4,,,59,127
457462,note_on,,,,,0,0,0,,,4,,,62,127
457463,note_on,,,,,1,0,0,,,4,,,52,127
457610,note_off,,,,,147,0,0,,,2,,,69,64
457660,note_on,,,,,50,0,0,,,2,,,71,111
457808,note_off,,,,,148,0,0,,,2,,,71,64
457809,note_on,,,,,1,0,0,,,2,,,68,115
457862,note_off,,,,,53,0,0,,,2,,,68,64
457863,note_off,,,,,1,0,0,,,4,,,59,64
457863,note_off,,,,,0,0,0,,,4,,,52,64
457864,note_off,,,,,1,0,0,,,4,,,62,64
457864,note_on,,,,,0,0,0,,,2,,,69,113
457865,note_on,,,,,1,0,0,,,4,,,57,127
457866,note_on,,,,,1,0,0,,,4,,,60,127
458257,note_on,,,,,391,0,0,,,1,,,81,110
458363,note_on,,,,,106,0,0,,,1,,,80,110
458375,note_off,,,,,12,0,0,,,1,,,81,64
458466,note_on,,,,,91,0,0,,,1,,,81,110
458477,note_off,,,,,11,0,0,,,1,,,80,64
458566,note_on,,,,,89,0,0,,,1,,,83,110
458575,note_off,,,,,9,0,0,,,1,,,81,64
458654,note_off,,,,,79,0,0,,,2,,,69,64
458654,note_off,,,,,0,0,0,,,4,,,57,64
458655,note_off,,,,,1,0,0,,,4,,,60,64
458661,note_on,,,,,6,0,0,,,1,,,84,110
458661,note_on,,,,,0,0,0,,,2,,,69,113
458662,note_on,,,,,1,0,0,,,4,,,66,123
458671,note_off,,,,,9,0,0,,,1,,,83,64
458757,note_on,,,,,86,0,0,,,2,,,75,113
458768,note_off,,,,,11,0,0,,,1,,,84,64
458849,note_off,,,,,81,0,0,,,4,,,66,64
458849,note_off,,,,,0,0,0,,,2,,,69,64
458857,note_on,,,,,8,0,0,,,2,,,74,113
458858,note_on,,,,,1,0,0,,,2,,,67,123
458858,note_on,,,,,0,0,0,,,2,,,71,111
458868,note_off,,,,,10,0,0,,,2,,,75,64
458958,note_on,,,,,90,0,0,,,1,,,83,110
458970,note_off,,,,,12,0,0,,,2,,,74,64
459043,note_off,,,,,73,0,0,,,2,,,71,64
459043,note_off,,,,,0,0,0,,,2,,,67,64
459051,note_on,,,,,8,0,0,,,1,,,82,110
459052,note_on,,,,,1,0,0,,,4,,,64,121
459052,note_on,,,,,0,0,0,,,2,,,67,123
459060,note_off,,,,,8,0,0,,,1,,,83,64
459148,note_on,,,,,88,0,0,,,2,,,73,112
459160,note_off,,,,,12,0,0,,,1,,,82,64
459239,note_off,,,,,79,0,0,,,4,,,64,64
459240,note_off,,,,,1,0,0,,,2,,,67,64
459248,note_on,,,,,8,0,0,,,2,,,74,113
459249,note_on,,,,,1,0,0,,,4,,,65,123
459249,note_on,,,,,0,0,0,,,2,,,69,113
459259,note_off,,,,,10,0,0,,,2,,,73,64
459344,note_on,,,,,85,0,0,,,1,,,81,110
459353,note_off,,,,,9,0,0,,,2,,,74,64
459435,note_off,,,,,82,0,0,,,4,,,65,64
459436,note_off,,,,,1,0,0,,,2,,,69,64
459444,note_on,,,,,8,0,0,,,1,,,79,110
459445,note_on,,,,,1,0,0,,,4,,,58,127
459445,note_on,,,,,0,0,0,,,2,,,74,113
459456,note_off,,,,,11,0,0,,,1,,,81,64
459543,note_on,,,,,87,0,0,,,4,,,46,127
459629,note_off,,,,,86,0,0,,,4,,,46,64
459641,note_on,,,,,12,0,0,,,2,,,72,112
459641,note_on,,,,,0,0,0,,,2,,,77,113
459642,note_on,,,,,1,0,0,,,4,,,45,127
459644,note_off,,,,,2,0,0,,,1,,,79,64
459644,note_off,,,,,0,0,0,,,2,,,74,64
459712,note_off,,,,,68,0,0,,,4,,,58,64
459737,note_on,,,,,25,0,0,,,4,,,57,127
459839,note_off,,,,,102,0,0,,,4,,,57,64
459839,note_on,,,,,0,0,0,,,2,,,75,113
459840,note_on,,,,,1,0,0,,,4,,,55,127
459840,note_on,,,,,0,0,0,,,2,,,70,113
459842,note_off,,,,,2,0,0,,,2,,,72,64
459843,note_off,,,,,1,0,0,,,2,,,77,64
459911,note_off,,,,,68,0,0,,,4,,,45,64
459934,note_on,,,,,23,0,0,,,4,,,43,127
460030,note_off,,,,,96,0,0,,,4,,,43,64
460031,note_on,,,,,1,0,0,,,2,,,69,113
460031,note_on,,,,,0,0,0,,,2,,,74,113
460032,note_on,,,,,1,0,0,,,4,,,41,127
460033,note_off,,,,,1,0,0,,,2,,,70,64
460034,note_off,,,,,1,0,0,,,2,,,75,64
460104,note_off,,,,,70,0,0,,,4,,,55,64
460127,note_on,,,,,23,0,0,,,4,,,53,127
460221,note_on,,,,,94,0,0,,,2,,,67,123
460221,note_on,,,,,0,0,0,,,2,,,73,112
460222,note_on,,,,,1,0,0,,,4,,,52,127
460225,note_off,,,,,3,0,0,,,4,,,53,64
460225,note_off,,,,,0,0,0,,,2,,,74,64
460225,note_off,,,,,0,0,0,,,2,,,69,64
460229,note_off,,,,,4,0,0,,,4,,,41,64
460320,note_off,,,,,91,0,0,,,2,,,73,64
460320,note_on,,,,,0,0,0,,,2,,,74,113
460415,note_off,,,,,95,0,0,,,2,,,74,64
460416,note_on,,,,,1,0,0,,,2,,,76,113
460512,note_off,,,,,96,0,0,,,2,,,76,64
460512,note_on,,,,,0,0,0,,,2,,,74,113
460597,note_off,,,,,85,0,0,,,2,,,74,64
460605,note_on,,,,,8,0,0,,,2,,,74,113
460606,note_on,,,,,1,0,0,,,4,,,53,127
460606,note_on,,,,,0,0,0,,,2,,,69,113
460607,note_off,,,,,1,0,0,,,2,,,67,64
460607,note_off,,,,,0,0,0,,,4,,,52,64
460700,note_off,,,,,93,0,0,,,2,,,74,64
460701,note_on,,,,,1,0,0,,,2,,,76,113
460793,note_off,,,,,92,0,0,,,2,,,76,64
460793,note_on,,,,,0,0,0,,,2,,,77,113
460894,note_off,,,,,101,0,0,,,2,,,77,64
460895,note_on,,,,,1,0,0,,,2,,,76,113
460983,note_off,,,,,88,0,0,,,2,,,76,64
460991,note_off,,,,,8,0,0,,,4,,,53,64
460992,note_off,,,,,1,0,0,,,2,,,69,64
460996,note_on,,,,,4,0,0,,,2,,,73,112
460996,note_on,,,,,0,0,0,,,2,,,76,113
460998,note_on,,,,,2,0,0,,,4,,,57,127
461349,note_off,,,,,351,0,0,,,2,,,76,64
461351,note_off,,,,,2,0,0,,,2,,,73,64
461352,note_off,,,,,1,0,0,,,4,,,57,64
461396,note_on,,,,,44,0,0,,,4,,,40,127
461499,note_off,,,,,103,0,0,,,4,,,40,64
461499,note_on,,,,,0,0,0,,,4,,,41,127
461594,note_off,,,,,95,0,0,,,4,,,41,64
461594,note_on,,,,,0,0,0,,,4,,,40,127
461693,note_off,,,,,99,0,0,,,4,,,40,64
461693,note_on,,,,,0,0,0,,,4,,,44,127
461792,note_off,,,,,99,0,0,,,4,,,44,64
461792,note_on,,,,,0,0,0,,,4,,,45,127
462138,note_off,,,,,346,0,0,,,4,,,45,64
462188,note_on,,,,,50,0,0,,,2,,,69,113
462297,note_off,,,,,109,0,0,,,2,,,69,64
462297,note_on,,,,,0,0,0,,,2,,,70,113
462401,note_off,,,,,104,0,0,,,2,,,70,64
462402,note_on,,,,,1,0,0,,,2,,,69,113
462506,note_off,,,,,104,0,0,,,2,,,69,64
462506,note_on,,,,,0,0,0,,,2,,,73,112
462605,note_off,,,,,99,0,0,,,2,,,73,64
462605,note_on,,,,,0,0,0,,,2,,,74,113
462712,note_on,,,,,107,0,0,,,4,,,57,127
462712,note_on,,,,,0,0,0,,,4,,,62,127
462713,note_on,,,,,1,0,0,,,4,,,53,127
462801,note_off,,,,,88,0,0,,,4,,,62,64
462803,note_off,,,,,2,0,0,,,4,,,53,64
462804,note_off,,,,,1,0,0,,,4,,,57,64
462810,note_on,,,,,6,0,0,,,4,,,62,127
462810,note_on,,,,,0,0,0,,,4,,,57,127
462811,note_on,,,,,1,0,0,,,4,,,53,127
462902,note_off,,,,,91,0,0,,,4,,,53,64
462902,note_off,,,,,0,0,0,,,4,,,62,64
462903,note_off,,,,,1,0,0,,,4,,,57,64
462911,note_on,,,,,8,0,0,,,4,,,57,127
462911,note_on,,,,,0,0,0,,,4,,,62,127
462912,note_on,,,,,1,0,0,,,4,,,53,127
462952,note_off,,,,,40,0,0,,,2,,,74,64
463003,note_on,,,,,51,0,0,,,2,,,77,108
463064,note_on,,,,,61,0,0,,,2,,,76,108
463066,note_off,,,,,2,0,0,,,2,,,77,64
463114,note_on,,,,,48,0,0,,,2,,,77,108
463116,note_off,,,,,2,0,0,,,4,,,62,64
463116,note_off,,,,,0,0,0,,,4,,,53,64
463117,note_off,,,,,1,0,0,,,4,,,57,64
463119,note_off,,,,,2,0,0,,,2,,,76,64
463121,note_on,,,,,2,0,0,,,4,,,58,127
463121,note_on,,,,,0,0,0,,,4,,,62,127
463122,note_on,,,,,1,0,0,,,4,,,55,127
463164,note_on,,,,,42,0,0,,,2,,,76,108
463169,note_off,,,,,5,0,0,,,2,,,77,64
463215,note_off,,,,,46,0,0,,,4,,,62,64
463215,note_off,,,,,0,0,0,,,4,,,55,64
463216,note_off,,,,,1,0,0,,,4,,,58,64
463216,note_off,,,,,0,0,0,,,2,,,76,64
463217,note_on,,,,,1,0,0,,,2,,,77,108
463224,note_on,,,,,7,0,0,,,4,,,62,127
463224,note_on,,,,,0,0,0,,,4,,,58,127
463224,note_on,,,,,0,0,0,,,4,,,55,127
463268,note_on,,,,,44,0,0,,,2,,,76,108
463273,note_off,,,,,5,0,0,,,2,,,77,64
463316,note_off,,,,,43,0,0,,,4,,,55,64
463316,note_off,,,,,0,0,0,,,4,,,62,64
463317,note_off,,,,,1,0,0,,,4,,,58,64
463317,note_on,,,,,0,0,0,,,2,,,74,108
463321,note_off,,,,,4,0,0,,,2,,,76,64
463323,note_on,,,,,2,0,0,,,4,,,62,127
463324,note_on,,,,,1,0,0,,,4,,,55,127
463324,note_on,,,,,0,0,0,,,4,,,58,127
463365,note_on,,,,,41,0,0,,,2,,,76,108
463372,note_off,,,,,7,0,0,,,2,,,74,64
463411,note_on,,,,,39,0,0,,,1,,,78,105
463418,note_off,,,,,7,0,0,,,2,,,76,64
463509,note_off,,,,,91,0,0,,,4,,,62,64
463509,note_off,,,,,0,0,0,,,4,,,55,64
463510,note_off,,,,,1,0,0,,,4,,,58,64
463516,note_on,,,,,6,0,0,,,4,,,62,127
463517,note_on,,,,,1,0,0,,,4,,,60,127
463517,note_on,,,,,0,0,0,,,4,,,57,127
463608,note_off,,,,,91,0,0,,,4,,,57,64
463608,note_off,,,,,0,0,0,,,4,,,60,64
463608,note_off,,,,,0,0,0,,,4,,,62,64
463614,note_on,,,,,6,0,0,,,4,,,62,127
463616,note_on,,,,,2,0,0,,,4,,,60,127
463617,note_on,,,,,1,0,0,,,4,,,57,127
463705,note_off,,,,,88,0,0,,,4,,,62,64
463707,note_off,,,,,2,0,0,,,4,,,57,64
463708,note_off,,,,,1,0,0,,,4,,,60,64
463714,note_on,,,,,6,0,0,,,4,,,62,127
463715,note_on,,,,,1,0,0,,,4,,,57,127
463715,note_on,,,,,0,0,0,,,4,,,60,127
463758,note_off,,,,,43,0,0,,,1,,,78,64
463808,note_on,,,,,50,0,0,,,1,,,81,105
463868,note_on,,,,,60,0,0,,,1,,,79,105
463870,note_off,,,,,2,0,0,,,1,,,81,64
463916,note_off,,,,,46,0,0,,,1,,,79,64
463920,note_on,,,,,4,0,0,,,1,,,81,105
463921,note_off,,,,,1,0,0,,,4,,,62,64
463922,note_off,,,,,1,0,0,,,4,,,60,64
463922,note_off,,,,,0,0,0,,,4,,,57,64
463928,note_on,,,,,6,0,0,,,4,,,62,127
463928,note_on,,,,,0,0,0,,,4,,,59,127
463968,note_off,,,,,40,0,0,,,1,,,81,64
463970,note_on,,,,,2,0,0,,,1,,,79,105
464018,note_off,,,,,48,0,0,,,1,,,79,64
464019,note_off,,,,,1,0,0,,,4,,,59,64
464019,note_off,,,,,0,0,0,,,4,,,62,64
464020,note_on,,,,,1,0,0,,,1,,,81,105
464026,note_on,,,,,6,0,0,,,4,,,62,127
464027,note_on,,,,,1,0,0,,,4,,,59,127
464071,note_on,,,,,44,0,0,,,1,,,79,105
464077,note_off,,,,,6,0,0,,,1,,,81,64
464117,note_off,,,,,40,0,0,,,4,,,59,64
464118,note_off,,,,,1,0,0,,,4,,,62,64
464120,note_on,,,,,2,0,0,,,1,,,78,105
464121,note_on,,,,,1,0,0,,,4,,,59,127
464121,note_on,,,,,0,0,0,,,4,,,62,127
464133,note_off,,,,,12,0,0,,,1,,,79,64
464163,note_off,,,,,30,0,0,,,1,,,78,64
464167,note_on,,,,,4,0,0,,,1,,,79,105
464208,note_off,,,,,41,0,0,,,4,,,62,64
464208,note_off,,,,,0,0,0,,,4,,,59,64
464212,note_off,,,,,4,0,0,,,1,,,79,64
464214,note_on,,,,,2,0,0,,,1,,,80,105
464215,note_on,,,,,1,0,0,,,4,,,58,127
464215,note_on,,,,,0,0,0,,,4,,,62,127
464403,note_off,,,,,188,0,0,,,4,,,58,64
464404,note_off,,,,,1,0,0,,,1,,,80,64
464404,note_off,,,,,0,0,0,,,4,,,62,64
464411,note_on,,,,,7,0,0,,,4,,,62,127
464411,note_on,,,,,0,0,0,,,4,,,65,123
464411,note_on,,,,,0,0,0,,,1,,,81,105
464412,note_on,,,,,1,0,0,,,4,,,57,127
464736,note_off,,,,,324,0,0,,,1,,,81,64
464779,note_off,,,,,43,0,0,,,4,,,57,64
464788,note_off,,,,,9,0,0,,,4,,,62,64
464789,note_off,,,,,1,0,0,,,4,,,65,64
464789,note_on,,,,,0,0,0,,,2,,,76,113
464790,note_on,,,,,1,0,0,,,4,,,57,127
464790,note_on,,,,,0,0,0,,,2,,,67,123
464940,note_off,,,,,150,0,0,,,4,,,57,64
464941,note_off,,,,,1,0,0,,,2,,,76,64
464941,note_off,,,,,0,0,0,,,2,,,67,64
464951,note_on,,,,,10,0,0,,,2,,,73,112
464952,note_on,,,,,1,0,0,,,4,,,64,121
465001,note_off,,,,,49,0,0,,,4,,,64,64
465002,note_off,,,,,1,0,0,,,2,,,73,64
465002,note_on,,,,,0,0,0,,,2,,,74,113
465003,note_on,,,,,1,0,0,,,4,,,62,127
465003,note_on,,,,,0,0,0,,,4,,,65,123
465398,note_on,,,,,395,0,0,,,1,,,81,110
465504,note_on,,,,,106,0,0,,,1,,,80,110
465516,note_off,,,,,12,0,0,,,1,,,81,64
465613,note_on,,,,,97,0,0,,,1,,,81,110
465623,note_off,,,,,10,0,0,,,1,,,80,64
465711,note_on,,,,,88,0,0,,,1,,,83,110
465721,note_off,,,,,10,0,0,,,1,,,81,64
465802,note_off,,,,,81,0,0,,,4,,,65,64
465802,note_off,,,,,0,0,0,,,4,,,62,64
465803,note_off,,,,,1,0,0,,,2,,,74,64
465810,note_on,,,,,7,0,0,,,1,,,84,110
465811,note_on,,,,,1,0,0,,,4,,,66,123
465811,note_on,,,,,0,0,0,,,2,,,69,113
465821,note_off,,,,,10,0,0,,,1,,,83,64
465907,note_on,,,,,86,0,0,,,2,,,75,113
465919,note_off,,,,,12,0,0,,,1,,,84,64
465997,note_off,,,,,78,0,0,,,4,,,66,64
465998,note_off,,,,,1,0,0,,,2,,,69,64
466006,note_on,,,,,8,0,0,,,2,,,74,113
466007,note_on,,,,,1,0,0,,,2,,,67,123
466007,note_on,,,,,0,0,0,,,2,,,71,111
466017,note_off,,,,,10,0,0,,,2,,,75,64
466105,note_on,,,,,88,0,0,,,1,,,83,110
466117,note_off,,,,,12,0,0,,,2,,,74,64
466194,note_off,,,,,77,0,0,,,2,,,67,64
466195,note_off,,,,,1,0,0,,,2,,,71,64
466201,note_on,,,,,6,0,0,,,2,,,67,123
466201,note_on,,,,,0,0,0,,,1,,,82,110
466210,note_on,,,,,9,0,0,,,4,,,64,121
466212,note_off,,,,,2,0,0,,,1,,,83,64
466298,note_on,,,,,86,0,0,,,2,,,73,112
466308,note_off,,,,,10,0,0,,,1,,,82,64
466394,note_on,,,,,86,0,0,,,2,,,74,113
466395,note_on,,,,,1,0,0,,,4,,,65,123
466395,note_on,,,,,0,0,0,,,2,,,69,113
466399,note_off,,,,,4,0,0,,,2,,,67,64
466404,note_off,,,,,5,0,0,,,2,,,73,64
466405,note_off,,,,,1,0,0,,,4,,,64,64
466490,note_on,,,,,85,0,0,,,1,,,81,110
466500,note_off,,,,,10,0,0,,,2,,,74,64
466590,note_off,,,,,90,0,0,,,2,,,69,64
466590,note_off,,,,,0,0,0,,,4,,,65,64
466593,note_on,,,,,3,0,0,,,1,,,79,110
466594,note_on,,,,,1,0,0,,,4,,,58,127
466594,note_on,,,,,0,0,0,,,2,,,74,113
466597,note_off,,,,,3,0,0,,,1,,,81,64
466688,note_on,,,,,91,0,0,,,4,,,46,127
466765,note_off,,,,,77,0,0,,,4,,,46,64
466783,note_off,,,,,18,0,0,,,2,,,74,64
466784,note_off,,,,,1,0,0,,,1,,,79,64
466784,note_on,,,,,0,0,0,,,2,,,72,112
466784,note_on,,,,,0,0,0,,,2,,,77,113
466785,note_on,,,,,1,0,0,,,4,,,45,127
466856,note_off,,,,,71,0,0,,,4,,,58,64
466881,note_on,,,,,25,0,0,,,4,,,57,127
466980,note_off,,,,,99,0,0,,,4,,,57,64
466980,note_off,,,,,0,0,0,,,2,,,72,64
466981,note_off,,,,,1,0,0,,,2,,,77,64
466981,note_on,,,,,0,0,0,,,2,,,75,113
466982,note_on,,,,,1,0,0,,,4,,,55,127
466982,note_on,,,,,0,0,0,,,2,,,70,113
467052,note_off,,,,,70,0,0,,,4,,,45,64
467075,note_on,,,,,23,0,0,,,4,,,43,127
467171,note_off,,,,,96,0,0,,,4,,,43,64
467172,note_off,,,,,1,0,0,,,2,,,75,64
467172,note_off,,,,,0,0,0,,,2,,,70,64
467172,note_on,,,,,0,0,0,,,2,,,74,113
467173,note_on,,,,,1,0,0,,,4,,,41,127
467173,note_on,,,,,0,0,0,,,2,,,69,113
467245,note_off,,,,,72,0,0,,,4,,,55,64
467268,note_on,,,,,23,0,0,,,4,,,53,127
467356,note_on,,,,,88,0,0,,,2,,,73,112
467357,note_on,,,,,1,0,0,,,2,,,67,123
467361,note_on,,,,,4,0,0,,,4,,,52,127
467362,note_off,,,,,1,0,0,,,2,,,69,64
467362,note_off,,,,,0,0,0,,,4,,,53,64
467363,note_off,,,,,1,0,0,,,2,,,74,64
467438,note_off,,,,,75,0,0,,,4,,,41,64
467455,note_off,,,,,17,0,0,,,2,,,73,64
467455,note_on,,,,,0,0,0,,,2,,,74,113
467552,note_off,,,,,97,0,0,,,2,,,74,64
467553,note_on,,,,,1,0,0,,,2,,,76,113
467645,note_off,,,,,92,0,0,,,2,,,76,64
467646,note_on,,,,,1,0,0,,,2,,,74,113
467731,note_off,,,,,85,0,0,,,2,,,74,64
467738,note_off,,,,,7,0,0,,,2,,,67,64
467739,note_on,,,,,1,0,0,,,2,,,69,113
467739,note_on,,,,,0,0,0,,,2,,,74,113
467745,note_off,,,,,6,0,0,,,4,,,52,64
467746,note_on,,,,,1,0,0,,,4,,,53,127
467831,note_off,,,,,85,0,0,,,2,,,74,64
467832,note_on,,,,,1,0,0,,,2,,,76,113
467925,note_on,,,,,93,0,0,,,2,,,77,113
467934,note_off,,,,,9,0,0,,,2,,,76,64
468019,note_off,,,,,85,0,0,,,2,,,77,64
468021,note_on,,,,,2,0,0,,,2,,,76,113
468096,note_off,,,,,75,0,0,,,2,,,76,64
468111,note_off,,,,,15,0,0,,,2,,,69,64
468113,note_on,,,,,2,0,0,,,2,,,76,113
468114,note_on,,,,,1,0,0,,,4,,,57,127
468114,note_on,,,,,0,0,0,,,2,,,73,112
468117,note_off,,,,,3,0,0,,,4,,,53,64
468449,note_off,,,,,332,0,0,,,2,,,76,64
468466,note_off,,,,,17,0,0,,,4,,,57,64
468468,note_off,,,,,2,0,0,,,2,,,73,64
468516,note_on,,,,,48,0,0,,,4,,,40,127
468622,note_off,,,,,106,0,0,,,4,,,40,64
468623,note_on,,,,,1,0,0,,,4,,,41,127
468724,note_off,,,,,101,0,0,,,4,,,41,64
468725,note_on,,,,,1,0,0,,,4,,,40,127
468824,note_off,,,,,99,0,0,,,4,,,40,64
468826,note_on,,,,,2,0,0,,,4,,,44,127
468922,note_off,,,,,96,0,0,,,4,,,44,64
468923,note_on,,,,,1,0,0,,,4,,,45,127
469269,note_off,,,,,346,0,0,,,4,,,45,64
469315,note_on,,,,,46,0,0,,,2,,,69,113
469418,note_off,,,,,103,0,0,,,2,,,69,64
469419,note_on,,,,,1,0,0,,,2,,,70,113
469520,note_off,,,,,101,0,0,,,2,,,70,64
469520,note_on,,,,,0,0,0,,,2,,,69,113
469624,note_off,,,,,104,0,0,,,2,,,69,64
469625,note_on,,,,,1,0,0,,,2,,,73,112
469727,note_off,,,,,102,0,0,,,2,,,73,64
469728,note_on,,,,,1,0,0,,,2,,,74,113
469826,note_on,,,,,98,0,0,,,4,,,62,127
469826,note_on,,,,,0,0,0,,,4,,,57,127
469827,note_on,,,,,1,0,0,,,4,,,53,127
469918,note_off,,,,,91,0,0,,,4,,,62,64
469919,note_off,,,,,1,0,0,,,4,,,53,64
469919,note_off,,,,,0,0,0,,,4,,,57,64
469925,note_on,,,,,6,0,0,,,4,,,62,127
469927,note_on,,,,,2,0,0,,,4,,,57,127
469927,note_on,,,,,0,0,0,,,4,,,53,127
470016,note_off,,,,,89,0,0,,,4,,,62,64
470018,note_off,,,,,2,0,0,,,4,,,53,64
470018,note_off,,,,,0,0,0,,,4,,,57,64
470025,note_on,,,,,7,0,0,,,4,,,57,127
470025,note_on,,,,,0,0,0,,,4,,,62,127
470026,note_on,,,,,1,0,0,,,4,,,53,127
470075,note_off,,,,,49,0,0,,,2,,,74,64
470124,note_on,,,,,49,0,0,,,2,,,77,108
470190,note_off,,,,,66,0,0,,,2,,,77,64
470190,note_on,,,,,0,0,0,,,2,,,76,108
470241,note_off,,,,,51,0,0,,,2,,,76,64
470241,note_off,,,,,0,0,0,,,4,,,62,64
470242,note_on,,,,,1,0,0,,,2,,,77,108
470242,note_on,,,,,0,0,0,,,4,,,62,127
470243,note_off,,,,,1,0,0,,,4,,,57,64
470243,note_off,,,,,0,0,0,,,4,,,53,64
470244,note_on,,,,,1,0,0,,,4,,,58,127
470244,note_on,,,,,0,0,0,,,4,,,55,127
470289,note_off,,,,,45,0,0,,,2,,,77,64
470289,note_on,,,,,0,0,0,,,2,,,76,108
470326,note_off,,,,,37,0,0,,,4,,,62,64
470327,note_off,,,,,1,0,0,,,4,,,55,64
470327,note_off,,,,,0,0,0,,,4,,,58,64
470334,note_off,,,,,7,0,0,,,2,,,76,64
470334,note_on,,,,,0,0,0,,,2,,,77,108
470335,note_on,,,,,1,0,0,,,4,,,58,127
470335,note_on,,,,,0,0,0,,,4,,,62,127
470336,note_on,,,,,1,0,0,,,4,,,55,127
470382,note_off,,,,,46,0,0,,,2,,,77,64
470382,note_on,,,,,0,0,0,,,2,,,76,108
470419,note_off,,,,,37,0,0,,,4,,,62,64
470420,note_off,,,,,1,0,0,,,4,,,58,64
470420,note_off,,,,,0,0,0,,,4,,,55,64
470427,note_off,,,,,7,0,0,,,2,,,76,64
470427,note_on,,,,,0,0,0,,,2,,,74,108
470428,note_on,,,,,1,0,0,,,4,,,62,127
470428,note_on,,,,,0,0,0,,,4,,,58,127
470429,note_on,,,,,1,0,0,,,4,,,55,127
470473,note_on,,,,,44,0,0,,,2,,,76,108
470481,note_off,,,,,8,0,0,,,2,,,74,64
470519,note_on,,,,,38,0,0,,,1,,,78,105
470527,note_off,,,,,8,0,0,,,2,,,76,64
470613,note_off,,,,,86,0,0,,,4,,,62,64
470614,note_off,,,,,1,0,0,,,4,,,55,64
470614,note_off,,,,,0,0,0,,,4,,,58,64
470618,note_on,,,,,4,0,0,,,4,,,60,127
470618,note_on,,,,,0,0,0,,,4,,,62,127
470619,note_on,,,,,1,0,0,,,4,,,57,127
470709,note_off,,,,,90,0,0,,,4,,,62,64
470710,note_off,,,,,1,0,0,,,4,,,60,64
470710,note_off,,,,,0,0,0,,,4,,,57,64
470718,note_on,,,,,8,0,0,,,4,,,62,127
470718,note_on,,,,,0,0,0,,,4,,,60,127
470719,note_on,,,,,1,0,0,,,4,,,57,127
470809,note_off,,,,,90,0,0,,,4,,,57,64
470809,note_off,,,,,0,0,0,,,4,,,62,64
470810,note_off,,,,,1,0,0,,,4,,,60,64
470816,note_on,,,,,6,0,0,,,4,,,62,127
470818,note_on,,,,,2,0,0,,,4,,,57,127
470818,note_on,,,,,0,0,0,,,4,,,60,127
470867,note_off,,,,,49,0,0,,,1,,,78,64
470924,note_on,,,,,57,0,0,,,1,,,81,105
470993,note_off,,,,,69,0,0,,,1,,,81,64
470994,note_on,,,,,1,0,0,,,1,,,79,105
471038,note_off,,,,,44,0,0,,,4,,,62,64
471039,note_off,,,,,1,0,0,,,4,,,60,64
471039,note_off,,,,,0,0,0,,,4,,,57,64
471043,note_off,,,,,4,0,0,,,1,,,79,64
471044,note_on,,,,,1,0,0,,,4,,,62,127
471044,note_on,,,,,0,0,0,,,1,,,81,105
471045,note_on,,,,,1,0,0,,,4,,,59,127
471095,note_off,,,,,50,0,0,,,1,,,81,64
471096,note_on,,,,,1,0,0,,,1,,,79,105
471138,note_off,,,,,42,0,0,,,4,,,62,64
471140,note_off,,,,,2,0,0,,,4,,,59,64
471146,note_off,,,,,6,0,0,,,1,,,79,64
471146,note_on,,,,,0,0,0,,,1,,,81,105
471147,note_on,,,,,1,0,0,,,4,,,62,127
471147,note_on,,,,,0,0,0,,,4,,,59,127
471196,note_off,,,,,49,0,0,,,1,,,81,64
471196,note_on,,,,,0,0,0,,,1,,,79,105
471235,note_off,,,,,39,0,0,,,4,,,62,64
471236,note_off,,,,,1,0,0,,,4,,,59,64
471242,note_off,,,,,6,0,0,,,1,,,79,64
471242,note_on,,,,,0,0,0,,,1,,,78,105
471243,note_on,,,,,1,0,0,,,4,,,62,127
471243,note_on,,,,,0,0,0,,,4,,,59,127
471290,note_off,,,,,47,0,0,,,1,,,78,64
471290,note_on,,,,,0,0,0,,,1,,,79,105
471333,note_off,,,,,43,0,0,,,4,,,62,64
471334,note_off,,,,,1,0,0,,,4,,,59,64
471342,note_off,,,,,8,0,0,,,1,,,79,64
471342,note_on,,,,,0,0,0,,,1,,,80,105
471343,note_on,,,,,1,0,0,,,4,,,58,127
471343,note_on,,,,,0,0,0,,,4,,,62,127
471523,note_off,,,,,180,0,0,,,1,,,80,64
471532,note_off,,,,,9,0,0,,,4,,,62,64
471532,note_off,,,,,0,0,0,,,4,,,58,64
471541,note_on,,,,,9,0,0,,,1,,,81,110
471542,note_on,,,,,1,0,0,,,4,,,62,127
471542,note_on,,,,,0,0,0,,,4,,,65,123
471543,note_on,,,,,1,0,0,,,4,,,57,127
471925,note_off,,,,,382,0,0,,,4,,,57,64
471933,note_on,,,,,8,0,0,,,2,,,67,123
471933,note_on,,,,,0,0,0,,,2,,,76,113
471934,note_on,,,,,1,0,0,,,4,,,57,127
471941,note_off,,,,,7,0,0,,,4,,,62,64
471942,note_off,,,,,1,0,0,,,1,,,81,64
471942,note_off,,,,,0,0,0,,,4,,,65,64
472086,note_off,,,,,144,0,0,,,2,,,76,64
472086,note_off,,,,,0,0,0,,,2,,,67,64
472087,note_off,,,,,1,0,0,,,4,,,57,64
472097,note_on,,,,,10,0,0,,,2,,,73,112
472097,note_on,,,,,0,0,0,,,4,,,64,121
472152,note_off,,,,,55,0,0,,,4,,,64,64
472152,note_off,,,,,0,0,0,,,2,,,73,64
472152,note_on,,,,,0,0,0,,,2,,,74,113
472153,note_on,,,,,1,0,0,,,4,,,62,127
472153,note_on,,,,,0,0,0,,,4,,,65,123
472680,note_off,,,,,527,0,0,,,2,,,74,64
472680,note_off,,,,,0,0,0,,,4,,,65,64
472680,note_off,,,,,0,0,0,,,4,,,62,64
472803,note_on,,,,,123,0,0,,,1,,,81,105
472804,note_on,,,,,1,0,0,,,2,,,69,119
472977,note_off,,,,,173,0,0,,,2,,,69,64
472978,note_off,,,,,1,0,0,,,1,,,81,64
472990,note_on,,,,,12,0,0,,,2,,,69,119
472990,note_on,,,,,0,0,0,,,1,,,81,105
473070,note_off,,,,,80,0,0,,,2,,,69,64
473071,note_off,,,,,1,0,0,,,1,,,81,64
473079,note_on,,,,,8,0,0,,,1,,,81,105
473079,note_on,,,,,0,0,0,,,2,,,69,119
473164,note_off,,,,,85,0,0,,,2,,,69,64
473165,note_off,,,,,1,0,0,,,1,,,81,64
473173,note_on,,,,,8,0,0,,,2,,,74,118
473173,note_on,,,,,0,0,0,,,1,,,86,105
473262,note_on,,,,,89,0,0,,,4,,,66,127
473263,note_on,,,,,1,0,0,,,4,,,62,127
473352,note_on,,,,,89,0,0,,,2,,,67,127
473352,note_on,,,,,0,0,0,,,4,,,64,127
473362,note_off,,,,,10,0,0,,,4,,,62,64
473363,note_off,,,,,1,0,0,,,4,,,66,64
473442,note_on,,,,,79,0,0,,,4,,,66,127
473442,note_on,,,,,0,0,0,,,2,,,69,119
473450,note_off,,,,,8,0,0,,,4,,,64,64
473451,note_off,,,,,1,0,0,,,2,,,67,64
473517,note_off,,,,,66,0,0,,,1,,,86,64
473517,note_off,,,,,0,0,0,,,2,,,74,64
473531,note_on,,,,,14,0,0,,,1,,,86,105
473532,note_on,,,,,1,0,0,,,2,,,74,118
473670,note_off,,,,,138,0,0,,,4,,,66,64
473671,note_off,,,,,1,0,0,,,2,,,69,64
473710,note_off,,,,,39,0,0,,,2,,,74,64
473710,note_off,,,,,0,0,0,,,1,,,86,64
473718,note_on,,,,,8,0,0,,,1,,,86,105
473719,note_on,,,,,1,0,0,,,2,,,74,118
473798,note_off,,,,,79,0,0,,,1,,,86,64
473798,note_off,,,,,0,0,0,,,2,,,74,64
473805,note_on,,,,,7,0,0,,,1,,,86,105
473805,note_on,,,,,0,0,0,,,2,,,74,118
473883,note_off,,,,,78,0,0,,,2,,,74,64
473884,note_off,,,,,1,0,0,,,1,,,86,64
473891,note_on,,,,,7,0,0,,,2,,,67,127
473891,note_on,,,,,0,0,0,,,1,,,79,105
473980,note_on,,,,,89,0,0,,,4,,,57,127
473980,note_on,,,,,0,0,0,,,4,,,61,127
474071,note_on,,,,,91,0,0,,,4,,,62,127
474071,note_on,,,,,0,0,0,,,4,,,59,127
474079,note_off,,,,,8,0,0,,,4,,,57,64
474080,note_off,,,,,1,0,0,,,4,,,61,64
474159,note_on,,,,,79,0,0,,,4,,,64,127
474160,note_on,,,,,1,0,0,,,4,,,61,127
474169,note_off,,,,,9,0,0,,,4,,,59,64
474170,note_off,,,,,1,0,0,,,4,,,62,64
474227,note_off,,,,,57,0,0,,,1,,,79,64
474227,note_off,,,,,0,0,0,,,2,,,67,64
474248,note_on,,,,,21,0,0,,,1,,,79,105
474249,note_on,,,,,1,0,0,,,2,,,67,127
474288,note_off,,,,,39,0,0,,,4,,,64,64
474288,note_off,,,,,0,0,0,,,4,,,61,64
474429,note_off,,,,,141,0,0,,,2,,,67,64
474429,note_off,,,,,0,0,0,,,1,,,79,64
474436,note_on,,,,,7,0,0,,,2,,,67,127
474436,note_on,,,,,0,0,0,,,1,,,79,105
474515,note_off,,,,,79,0,0,,,2,,,67,64
474516,note_off,,,,,1,0,0,,,1,,,79,64
474522,note_on,,,,,6,0,0,,,1,,,79,105
474523,note_on,,,,,1,0,0,,,2,,,67,127
474600,note_off,,,,,77,0,0,,,2,,,67,64
474600,note_off,,,,,0,0,0,,,1,,,79,64
474609,note_on,,,,,9,0,0,,,1,,,78,105
474609,note_on,,,,,0,0,0,,,4,,,66,127
474610,note_on,,,,,1,0,0,,,4,,,50,127
474610,note_on,,,,,0,0,0,,,4,,,62,127
474693,note_on,,,,,83,0,0,,,1,,,79,105
474694,note_on,,,,,1,0,0,,,2,,,67,127
474704,note_off,,,,,10,0,0,,,4,,,66,64
474704,note_off,,,,,0,0,0,,,1,,,78,64
474780,note_on,,,,,76,0,0,,,1,,,80,105
474780,note_on,,,,,0,0,0,,,2,,,68,120
474788,note_off,,,,,8,0,0,,,2,,,67,64
474789,note_off,,,,,1,0,0,,,1,,,79,64
474866,note_on,,,,,77,0,0,,,2,,,69,118
474866,note_on,,,,,0,0,0,,,1,,,81,105
474875,note_off,,,,,9,0,0,,,2,,,68,64
474875,note_off,,,,,0,0,0,,,1,,,80,64
474952,note_off,,,,,77,0,0,,,4,,,50,64
474953,note_off,,,,,1,0,0,,,4,,,62,64
474953,note_on,,,,,0,0,0,,,1,,,82,105
474954,note_on,,,,,1,0,0,,,4,,,55,127
474954,note_on,,,,,0,0,0,,,2,,,70,118
474955,note_on,,,,,1,0,0,,,4,,,43,127
474963,note_off,,,,,8,0,0,,,1,,,81,64
474963,note_off,,,,,0,0,0,,,2,,,69,64
475039,note_on,,,,,76,0,0,,,1,,,83,110
475039,note_on,,,,,0,0,0,,,2,,,71,116
475049,note_off,,,,,10,0,0,,,2,,,70,64
475050,note_off,,,,,1,0,0,,,1,,,82,64
475127,note_on,,,,,77,0,0,,,1,,,85,110
475128,note_on,,,,,1,0,0,,,2,,,73,117
475138,note_off,,,,,10,0,0,,,2,,,71,64
475138,note_off,,,,,0,0,0,,,1,,,83,64
475215,note_on,,,,,77,0,0,,,1,,,86,110
475216,note_on,,,,,1,0,0,,,2,,,74,118
475224,note_off,,,,,8,0,0,,,1,,,85,64
475224,note_off,,,,,0,0,0,,,2,,,73,64
475296,note_off,,,,,72,0,0,,,2,,,74,64
475302,note_off,,,,,6,0,0,,,4,,,55,64
475302,note_off,,,,,0,0,0,,,4,,,43,64
475303,note_on,,,,,1,0,0,,,2,,,74,118
475303,note_on,,,,,0,0,0,,,1,,,78,115
475304,note_on,,,,,1,0,0,,,4,,,45,127
475304,note_on,,,,,0,0,0,,,4,,,57,127
475310,note_off,,,,,6,0,0,,,1,,,86,64
475474,note_off,,,,,164,0,0,,,1,,,78,64
475480,note_on,,,,,6,0,0,,,2,,,73,117
475480,note_on,,,,,0,0,0,,,2,,,76,118
475483,note_off,,,,,3,0,0,,,2,,,74,64
475644,note_off,,,,,161,0,0,,,4,,,45,64
475645,note_off,,,,,1,0,0,,,4,,,57,64
475659,note_on,,,,,14,0,0,,,4,,,45,127
475659,note_on,,,,,0,0,0,,,4,,,57,127
475704,note_off,,,,,45,0,0,,,2,,,76,64
475704,note_off,,,,,0,0,0,,,2,,,73,64
475836,note_off,,,,,132,0,0,,,4,,,45,64
475837,note_off,,,,,1,0,0,,,4,,,57,64
475845,note_on,,,,,8,0,0,,,4,,,57,127
475846,note_on,,,,,1,0,0,,,4,,,45,127
475930,note_off,,,,,84,0,0,,,4,,,57,64
475930,note_off,,,,,0,0,0,,,4,,,45,64
475936,note_on,,,,,6,0,0,,,4,,,57,127
475937,note_on,,,,,1,0,0,,,4,,,45,127
476020,note_off,,,,,83,0,0,,,4,,,45,64
476020,note_off,,,,,0,0,0,,,4,,,57,64
476027,note_on,,,,,7,0,0,,,4,,,50,127
476027,note_on,,,,,0,0,0,,,4,,,62,127
476116,note_on,,,,,89,0,0,,,2,,,74,118
476116,note_on,,,,,0,0,0,,,1,,,78,115
476206,note_on,,,,,90,0,0,,,1,,,79,115
476206,note_on,,,,,0,0,0,,,2,,,76,118
476216,note_off,,,,,10,0,0,,,1,,,78,64
476216,note_off,,,,,0,0,0,,,2,,,74,64
476296,note_on,,,,,80,0,0,,,1,,,78,115
476296,note_on,,,,,0,0,0,,,1,,,81,115
476304,note_off,,,,,8,0,0,,,2,,,76,64
476304,note_off,,,,,0,0,0,,,1,,,79,64
476370,note_off,,,,,66,0,0,,,4,,,50,64
476371,note_off,,,,,1,0,0,,,4,,,62,64
476385,note_on,,,,,14,0,0,,,4,,,50,127
476385,note_on,,,,,0,0,0,,,4,,,62,127
476422,note_off,,,,,37,0,0,,,1,,,78,64
476423,note_off,,,,,1,0,0,,,1,,,81,64
476562,note_off,,,,,139,0,0,,,4,,,62,64
476562,note_off,,,,,0,0,0,,,4,,,50,64
476570,note_on,,,,,8,0,0,,,4,,,50,127
476570,note_on,,,,,0,0,0,,,4,,,62,127
476653,note_off,,,,,83,0,0,,,4,,,50,64
476654,note_off,,,,,1,0,0,,,4,,,62,64
476662,note_on,,,,,8,0,0,,,4,,,62,127
476663,note_on,,,,,1,0,0,,,4,,,50,127
476744,note_off,,,,,81,0,0,,,4,,,50,64
476744,note_off,,,,,0,0,0,,,4,,,62,64
476751,note_on,,,,,7,0,0,,,4,,,40,127
476751,note_on,,,,,0,0,0,,,4,,,52,127
476840,note_on,,,,,89,0,0,,,1,,,80,115
476840,note_on,,,,,0,0,0,,,1,,,83,115
476927,note_on,,,,,87,0,0,,,1,,,85,115
476928,note_on,,,,,1,0,0,,,1,,,81,115
476936,note_off,,,,,8,0,0,,,1,,,80,64
476937,note_off,,,,,1,0,0,,,1,,,83,64
477016,note_on,,,,,79,0,0,,,1,,,83,115
477016,note_on,,,,,0,0,0,,,1,,,86,115
477024,note_off,,,,,8,0,0,,,1,,,81,64
477025,note_off,,,,,1,0,0,,,1,,,85,64
477102,note_on,,,,,77,0,0,,,2,,,76,118
477103,note_on,,,,,1,0,0,,,4,,,64,127
477140,note_off,,,,,37,0,0,,,1,,,86,64
477140,note_off,,,,,0,0,0,,,1,,,83,64
477191,note_off,,,,,51,0,0,,,4,,,52,64
477191,note_off,,,,,0,0,0,,,4,,,40,64
477192,note_on,,,,,1,0,0,,,4,,,59,127
477192,note_on,,,,,0,0,0,,,4,,,56,127
477275,note_off,,,,,83,0,0,,,4,,,64,64
477276,note_off,,,,,1,0,0,,,2,,,76,64
477284,note_on,,,,,8,0,0,,,4,,,64,127
477284,note_on,,,,,0,0,0,,,2,,,76,118
477285,note_on,,,,,1,0,0,,,4,,,57,127
477285,note_on,,,,,0,0,0,,,4,,,61,127
477291,note_off,,,,,6,0,0,,,4,,,56,64
477292,note_off,,,,,1,0,0,,,4,,,59,64
477365,note_off,,,,,73,0,0,,,4,,,64,64
477366,note_off,,,,,1,0,0,,,2,,,76,64
477374,note_on,,,,,8,0,0,,,2,,,76,118
477374,note_on,,,,,0,0,0,,,4,,,64,127
477375,note_on,,,,,1,0,0,,,4,,,62,127
477375,note_on,,,,,0,0,0,,,4,,,59,127
477380,note_off,,,,,5,0,0,,,4,,,61,64
477380,note_off,,,,,0,0,0,,,4,,,57,64
477454,note_off,,,,,74,0,0,,,2,,,76,64
477461,note_on,,,,,7,0,0,,,1,,,88,117
477462,note_on,,,,,1,0,0,,,2,,,76,118
477497,note_off,,,,,35,0,0,,,4,,,59,64
477497,note_off,,,,,0,0,0,,,4,,,62,64
477498,note_off,,,,,1,0,0,,,4,,,64,64
477546,note_on,,,,,48,0,0,,,4,,,57,127
477546,note_on,,,,,0,0,0,,,4,,,61,127
477629,note_on,,,,,83,0,0,,,1,,,86,115
477630,note_on,,,,,1,0,0,,,2,,,74,118
477632,note_off,,,,,2,0,0,,,2,,,76,64
477633,note_off,,,,,1,0,0,,,1,,,88,64
477713,note_on,,,,,80,0,0,,,4,,,50,127
477713,note_on,,,,,0,0,0,,,4,,,59,127
477716,note_off,,,,,3,0,0,,,4,,,61,64
477716,note_off,,,,,0,0,0,,,4,,,57,64
477795,note_on,,,,,79,0,0,,,1,,,85,115
477796,note_off,,,,,1,0,0,,,2,,,74,64
477796,note_on,,,,,0,0,0,,,2,,,73,117
477797,note_off,,,,,1,0,0,,,1,,,86,64
477880,note_on,,,,,83,0,0,,,4,,,57,127
477881,note_on,,,,,1,0,0,,,4,,,52,127
477884,note_off,,,,,3,0,0,,,4,,,59,64
477884,note_off,,,,,0,0,0,,,4,,,50,64
477965,note_on,,,,,81,0,0,,,1,,,83,115
477966,note_on,,,,,1,0,0,,,2,,,71,116
477968,note_off,,,,,2,0,0,,,2,,,73,64
477969,note_off,,,,,1,0,0,,,1,,,85,64
478046,note_off,,,,,77,0,0,,,4,,,52,64
478052,note_on,,,,,6,0,0,,,4,,,52,127
478052,note_on,,,,,0,0,0,,,4,,,56,127
478055,note_off,,,,,3,0,0,,,4,,,57,64
478139,note_on,,,,,84,0,0,,,1,,,81,115
478140,note_on,,,,,1,0,0,,,2,,,69,118
478142,note_off,,,,,2,0,0,,,1,,,83,64
478142,note_off,,,,,0,0,0,,,2,,,71,64
478222,note_off,,,,,80,0,0,,,4,,,52,64
478231,note_on,,,,,9,0,0,,,4,,,57,127
478233,note_off,,,,,2,0,0,,,4,,,56,64
478320,note_on,,,,,87,0,0,,,4,,,45,127
478414,note_off,,,,,94,0,0,,,4,,,57,64
478469,note_off,,,,,55,0,0,,,2,,,69,64
478470,note_off,,,,,1,0,0,,,1,,,81,64
478499,note_on,,,,,29,0,0,,,1,,,81,110
478500,note_on,,,,,1,0,0,,,2,,,69,118
478682,note_off,,,,,182,0,0,,,2,,,69,64
478683,note_off,,,,,1,0,0,,,1,,,81,64
478686,note_on,,,,,3,0,0,,,1,,,81,110
478686,note_on,,,,,0,0,0,,,2,,,69,118
478769,note_off,,,,,83,0,0,,,2,,,69,64
478769,note_off,,,,,0,0,0,,,1,,,81,64
478776,note_on,,,,,7,0,0,,,2,,,69,118
478776,note_on,,,,,0,0,0,,,1,,,81,110
478856,note_off,,,,,80,0,0,,,1,,,81,64
478856,note_off,,,,,0,0,0,,,2,,,69,64
478864,note_on,,,,,8,0,0,,,2,,,74,118
478864,note_on,,,,,0,0,0,,,1,,,86,110
478953,note_on,,,,,89,0,0,,,4,,,66,127
478954,note_on,,,,,1,0,0,,,4,,,62,127
479043,note_on,,,,,89,0,0,,,2,,,67,127
479043,note_on,,,,,0,0,0,,,4,,,64,127
479052,note_off,,,,,9,0,0,,,4,,,66,64
479052,note_off,,,,,0,0,0,,,4,,,62,64
479131,note_on,,,,,79,0,0,,,2,,,69,119
479132,note_on,,,,,1,0,0,,,4,,,66,127
479141,note_off,,,,,9,0,0,,,4,,,64,64
479142,note_off,,,,,1,0,0,,,2,,,67,64
479198,note_off,,,,,56,0,0,,,2,,,74,64
479199,note_off,,,,,1,0,0,,,1,,,86,64
479220,note_on,,,,,21,0,0,,,1,,,86,110
479221,note_on,,,,,1,0,0,,,2,,,74,118
479360,note_off,,,,,139,0,0,,,2,,,69,64
479360,note_off,,,,,0,0,0,,,4,,,66,64
479403,note_off,,,,,43,0,0,,,1,,,86,64
479403,note_off,,,,,0,0,0,,,2,,,74,64
479408,note_on,,,,,5,0,0,,,1,,,86,110
479408,note_on,,,,,0,0,0,,,2,,,74,118
479493,note_off,,,,,85,0,0,,,2,,,74,64
479494,note_off,,,,,1,0,0,,,1,,,86,64
479500,note_on,,,,,6,0,0,,,2,,,74,118
479500,note_on,,,,,0,0,0,,,1,,,86,110
479581,note_off,,,,,81,0,0,,,2,,,74,64
479582,note_off,,,,,1,0,0,,,1,,,86,64
479588,note_on,,,,,6,0,0,,,1,,,79,110
479589,note_on,,,,,1,0,0,,,2,,,67,127
479678,note_on,,,,,89,0,0,,,4,,,61,127
479679,note_on,,,,,1,0,0,,,4,,,57,127
479768,note_on,,,,,89,0,0,,,4,,,62,127
479768,note_on,,,,,0,0,0,,,4,,,59,127
479776,note_off,,,,,8,0,0,,,4,,,57,64
479777,note_off,,,,,1,0,0,,,4,,,61,64
479856,note_on,,,,,79,0,0,,,4,,,64,127
479856,note_on,,,,,0,0,0,,,4,,,61,127
479867,note_off,,,,,11,0,0,,,4,,,59,64
479867,note_off,,,,,0,0,0,,,4,,,62,64
479933,note_off,,,,,66,0,0,,,1,,,79,64
479933,note_off,,,,,0,0,0,,,2,,,67,64
479949,note_on,,,,,16,0,0,,,1,,,79,110
479950,note_on,,,,,1,0,0,,,2,,,67,127
479988,note_off,,,,,38,0,0,,,4,,,61,64
479989,note_off,,,,,1,0,0,,,4,,,64,64
480130,note_off,,,,,141,0,0,,,1,,,79,64
480130,note_off,,,,,0,0,0,,,2,,,67,64
480136,note_on,,,,,6,0,0,,,1,,,79,110
480137,note_on,,,,,1,0,0,,,2,,,67,127
480220,note_off,,,,,83,0,0,,,2,,,67,64
480220,note_off,,,,,0,0,0,,,1,,,79,64
480227,note_on,,,,,7,0,0,,,2,,,67,127
480227,note_on,,,,,0,0,0,,,1,,,79,110
480308,note_off,,,,,81,0,0,,,2,,,67,64
480309,note_off,,,,,1,0,0,,,1,,,79,64
480317,note_on,,,,,8,0,0,,,1,,,78,110
480317,note_on,,,,,0,0,0,,,4,,,66,127
480318,note_on,,,,,1,0,0,,,4,,,50,127
480318,note_on,,,,,0,0,0,,,4,,,62,127
480359,note_off,,,,,41,0,0,,,4,,,45,64
480403,note_on,,,,,44,0,0,,,1,,,79,110
480404,note_on,,,,,1,0,0,,,2,,,67,127
480412,note_off,,,,,8,0,0,,,4,,,66,64
480412,note_off,,,,,0,0,0,,,1,,,78,64
480488,note_on,,,,,76,0,0,,,1,,,80,110
480488,note_on,,,,,0,0,0,,,2,,,68,120
480496,note_off,,,,,8,0,0,,,2,,,67,64
480497,note_off,,,,,1,0,0,,,1,,,79,64
480574,note_on,,,,,77,0,0,,,1,,,81,110
480575,note_on,,,,,1,0,0,,,2,,,69,118
480583,note_off,,,,,8,0,0,,,2,,,68,64
480583,note_off,,,,,0,0,0,,,1,,,80,64
480660,note_off,,,,,77,0,0,,,4,,,50,64
480661,note_off,,,,,1,0,0,,,4,,,62,64
480661,note_on,,,,,0,0,0,,,1,,,82,110
480662,note_on,,,,,1,0,0,,,4,,,55,127
480662,note_on,,,,,0,0,0,,,2,,,70,118
480663,note_on,,,,,1,0,0,,,4,,,43,127
480669,note_off,,,,,6,0,0,,,2,,,69,64
480670,note_off,,,,,1,0,0,,,1,,,81,64
480747,note_on,,,,,77,0,0,,,1,,,83,110
480747,note_on,,,,,0,0,0,,,2,,,71,116
480756,note_off,,,,,9,0,0,,,1,,,82,64
480756,note_off,,,,,0,0,0,,,2,,,70,64
480833,note_on,,,,,77,0,0,,,1,,,85,110
480834,note_on,,,,,1,0,0,,,2,,,73,117
480842,note_off,,,,,8,0,0,,,2,,,71,64
480842,note_off,,,,,0,0,0,,,1,,,83,64
480920,note_on,,,,,78,0,0,,,2,,,74,118
480920,note_on,,,,,0,0,0,,,1,,,86,110
480930,note_off,,,,,10,0,0,,,2,,,73,64
480931,note_off,,,,,1,0,0,,,1,,,85,64
481000,note_off,,,,,69,0,0,,,2,,,74,64
481008,note_off,,,,,8,0,0,,,4,,,55,64
481008,note_off,,,,,0,0,0,,,4,,,43,64
481009,note_on,,,,,1,0,0,,,1,,,78,115
481009,note_on,,,,,0,0,0,,,2,,,74,118
481010,note_on,,,,,1,0,0,,,4,,,45,127
481010,note_on,,,,,0,0,0,,,4,,,57,127
481022,note_off,,,,,12,0,0,,,1,,,86,64
481186,note_on,,,,,164,0,0,,,2,,,73,117
481186,note_on,,,,,0,0,0,,,2,,,76,118
481188,note_off,,,,,2,0,0,,,2,,,74,64
481189,note_off,,,,,1,0,0,,,1,,,78,64
481359,note_off,,,,,170,0,0,,,4,,,57,64
481359,note_off,,,,,0,0,0,,,4,,,45,64
481366,note_on,,,,,7,0,0,,,4,,,45,127
481366,note_on,,,,,0,0,0,,,4,,,57,127
481368,note_off,,,,,2,0,0,,,2,,,76,64
481368,note_off,,,,,0,0,0,,,2,,,73,64
481544,note_off,,,,,176,0,0,,,4,,,45,64
481545,note_off,,,,,1,0,0,,,4,,,57,64
481551,note_on,,,,,6,0,0,,,4,,,57,127
481551,note_on,,,,,0,0,0,,,4,,,45,127
481633,note_off,,,,,82,0,0,,,4,,,45,64
481633,note_off,,,,,0,0,0,,,4,,,57,64
481640,note_on,,,,,7,0,0,,,4,,,57,127
481641,note_on,,,,,1,0,0,,,4,,,45,127
481722,note_off,,,,,81,0,0,,,4,,,57,64
481722,note_off,,,,,0,0,0,,,4,,,45,64
481730,note_on,,,,,8,0,0,,,4,,,62,127
481731,note_on,,,,,1,0,0,,,4,,,50,127
481820,note_on,,,,,89,0,0,,,1,,,78,115
481820,note_on,,,,,0,0,0,,,2,,,74,118
481909,note_on,,,,,89,0,0,,,2,,,76,118
481909,note_on,,,,,0,0,0,,,1,,,79,115
481920,note_off,,,,,11,0,0,,,2,,,74,64
481920,note_off,,,,,0,0,0,,,1,,,78,64
481999,note_on,,,,,79,0,0,,,1,,,81,115
482000,note_on,,,,,1,0,0,,,1,,,78,115
482008,note_off,,,,,8,0,0,,,1,,,79,64
482008,note_off,,,,,0,0,0,,,2,,,76,64
482043,note_off,,,,,35,0,0,,,4,,,50,64
482044,note_off,,,,,1,0,0,,,4,,,62,64
482088,note_on,,,,,44,0,0,,,4,,,62,127
482089,note_on,,,,,1,0,0,,,4,,,50,127
482126,note_off,,,,,37,0,0,,,1,,,78,64
482126,note_off,,,,,0,0,0,,,1,,,81,64
482259,note_off,,,,,133,0,0,,,4,,,50,64
482260,note_off,,,,,1,0,0,,,4,,,62,64
482276,note_on,,,,,16,0,0,,,4,,,62,127
482276,note_on,,,,,0,0,0,,,4,,,50,127
482357,note_off,,,,,81,0,0,,,4,,,50,64
482358,note_off,,,,,1,0,0,,,4,,,62,64
482364,note_on,,,,,6,0,0,,,4,,,50,127
482364,note_on,,,,,0,0,0,,,4,,,62,127
482448,note_off,,,,,84,0,0,,,4,,,62,64
482448,note_off,,,,,0,0,0,,,4,,,50,64
482454,note_on,,,,,6,0,0,,,4,,,52,127
482455,note_on,,,,,1,0,0,,,4,,,40,127
482544,note_on,,,,,89,0,0,,,1,,,80,115
482544,note_on,,,,,0,0,0,,,1,,,83,115
482633,note_on,,,,,89,0,0,,,1,,,81,115
482633,note_on,,,,,0,0,0,,,1,,,85,115
482643,note_off,,,,,10,0,0,,,1,,,80,64
482644,note_off,,,,,1,0,0,,,1,,,83,64
482723,note_on,,,,,79,0,0,,,1,,,86,115
482724,note_on,,,,,1,0,0,,,1,,,83,115
482732,note_off,,,,,8,0,0,,,1,,,81,64
482733,note_off,,,,,1,0,0,,,1,,,85,64
482811,note_on,,,,,78,0,0,,,2,,,76,118
482812,note_on,,,,,1,0,0,,,4,,,64,127
482849,note_off,,,,,37,0,0,,,1,,,83,64
482849,note_off,,,,,0,0,0,,,1,,,86,64
482902,note_off,,,,,53,0,0,,,4,,,52,64
482902,note_off,,,,,0,0,0,,,4,,,40,64
482903,note_on,,,,,1,0,0,,,4,,,59,127
482903,note_on,,,,,0,0,0,,,4,,,56,127
482990,note_off,,,,,87,0,0,,,2,,,76,64
482990,note_off,,,,,0,0,0,,,4,,,64,64
482997,note_on,,,,,7,0,0,,,2,,,76,118
482997,note_on,,,,,0,0,0,,,4,,,64,127
482998,note_on,,,,,1,0,0,,,4,,,61,127
482998,note_on,,,,,0,0,0,,,4,,,57,127
483006,note_off,,,,,8,0,0,,,4,,,56,64
483007,note_off,,,,,1,0,0,,,4,,,59,64
483078,note_off,,,,,71,0,0,,,4,,,64,64
483079,note_off,,,,,1,0,0,,,2,,,76,64
483085,note_on,,,,,6,0,0,,,4,,,64,127
483085,note_on,,,,,0,0,0,,,2,,,76,118
483086,note_on,,,,,1,0,0,,,4,,,59,127
483086,note_on,,,,,0,0,0,,,4,,,62,127
483095,note_off,,,,,9,0,0,,,4,,,57,64
483095,note_off,,,,,0,0,0,,,4,,,61,64
483163,note_off,,,,,68,0,0,,,2,,,76,64
483170,note_on,,,,,7,0,0,,,1,,,88,112
483171,note_on,,,,,1,0,0,,,2,,,76,118
483206,note_off,,,,,35,0,0,,,4,,,64,64
483260,note_on,,,,,54,0,0,,,4,,,57,127
483260,note_on,,,,,0,0,0,,,4,,,61,127
483263,note_off,,,,,3,0,0,,,4,,,62,64
483263,note_off,,,,,0,0,0,,,4,,,59,64
483348,note_on,,,,,85,0,0,,,2,,,74,118
483348,note_on,,,,,0,0,0,,,1,,,86,110
483351,note_off,,,,,3,0,0,,,2,,,76,64
483351,note_off,,,,,0,0,0,,,1,,,88,64
483434,note_on,,,,,83,0,0,,,4,,,59,127
483435,note_on,,,,,1,0,0,,,4,,,50,127
483437,note_off,,,,,2,0,0,,,4,,,57,64
483438,note_off,,,,,1,0,0,,,4,,,61,64
483517,note_on,,,,,79,0,0,,,1,,,85,110
483518,note_on,,,,,1,0,0,,,2,,,73,117
483520,note_off,,,,,2,0,0,,,1,,,86,64
483520,note_off,,,,,0,0,0,,,2,,,74,64
483603,note_on,,,,,83,0,0,,,4,,,57,127
483604,note_on,,,,,1,0,0,,,4,,,52,127
483606,note_off,,,,,2,0,0,,,4,,,50,64
483607,note_off,,,,,1,0,0,,,4,,,59,64
483692,note_on,,,,,85,0,0,,,1,,,83,110
483693,note_on,,,,,1,0,0,,,2,,,71,116
483695,note_off,,,,,2,0,0,,,1,,,85,64
483695,note_off,,,,,0,0,0,,,2,,,73,64
483770,note_off,,,,,75,0,0,,,4,,,52,64
483779,note_on,,,,,9,0,0,,,4,,,52,127
483779,note_on,,,,,0,0,0,,,4,,,56,127
483781,note_off,,,,,2,0,0,,,4,,,57,64
483870,note_on,,,,,89,0,0,,,2,,,69,118
483870,note_on,,,,,0,0,0,,,1,,,81,110
483873,note_off,,,,,3,0,0,,,1,,,83,64
483873,note_off,,,,,0,0,0,,,2,,,71,64
483958,note_off,,,,,85,0,0,,,4,,,52,64
483966,note_on,,,,,8,0,0,,,4,,,57,127
483968,note_off,,,,,2,0,0,,,4,,,56,64
484058,note_on,,,,,90,0,0,,,4,,,45,127
484150,note_off,,,,,92,0,0,,,4,,,57,64
484198,note_off,,,,,48,0,0,,,2,,,69,64
484199,note_off,,,,,1,0,0,,,1,,,81,64
484236,note_on,,,,,37,0,0,,,2,,,69,118
484236,note_on,,,,,0,0,0,,,1,,,81,110
484415,note_off,,,,,179,0,0,,,2,,,69,64
484416,note_off,,,,,1,0,0,,,1,,,81,64
484422,note_on,,,,,6,0,0,,,1,,,81,115
484422,note_on,,,,,0,0,0,,,2,,,69,118
484504,note_off,,,,,82,0,0,,,2,,,69,64
484505,note_off,,,,,1,0,0,,,1,,,81,64
484511,note_on,,,,,6,0,0,,,1,,,81,115
484512,note_on,,,,,1,0,0,,,2,,,69,118
484591,note_off,,,,,79,0,0,,,1,,,81,64
484591,note_off,,,,,0,0,0,,,2,,,69,64
484597,note_on,,,,,6,0,0,,,1,,,84,115
484598,note_on,,,,,1,0,0,,,2,,,72,117
484683,note_on,,,,,85,0,0,,,4,,,63,127
484683,note_on,,,,,0,0,0,,,2,,,69,118
484772,note_on,,,,,89,0,0,,,1,,,83,115
484773,note_on,,,,,1,0,0,,,2,,,71,116
484775,note_off,,,,,2,0,0,,,2,,,72,64
484776,note_off,,,,,1,0,0,,,1,,,84,64
484860,note_on,,,,,84,0,0,,,2,,,68,120
484861,note_on,,,,,1,0,0,,,4,,,64,126
484863,note_off,,,,,2,0,0,,,4,,,63,64
484864,note_off,,,,,1,0,0,,,2,,,69,64
484953,note_on,,,,,89,0,0,,,2,,,70,118
484953,note_on,,,,,0,0,0,,,1,,,82,110
484956,note_off,,,,,3,0,0,,,1,,,83,64
484956,note_off,,,,,0,0,0,,,2,,,71,64
485041,note_on,,,,,85,0,0,,,2,,,67,127
485041,note_on,,,,,0,0,0,,,4,,,61,127
485044,note_off,,,,,3,0,0,,,2,,,68,64
485044,note_off,,,,,0,0,0,,,4,,,64,64
485132,note_on,,,,,88,0,0,,,2,,,69,118
485132,note_on,,,,,0,0,0,,,1,,,81,110
485134,note_off,,,,,2,0,0,,,2,,,70,64
485135,note_off,,,,,1,0,0,,,1,,,82,64
485220,note_on,,,,,85,0,0,,,4,,,62,127
485220,note_on,,,,,0,0,0,,,4,,,66,127
485222,note_off,,,,,2,0,0,,,4,,,61,64
485223,note_off,,,,,1,0,0,,,2,,,67,64
485312,note_on,,,,,89,0,0,,,1,,,85,110
485312,note_on,,,,,0,0,0,,,2,,,73,112
485315,note_off,,,,,3,0,0,,,1,,,81,64
485315,note_off,,,,,0,0,0,,,2,,,69,64
485402,note_off,,,,,87,0,0,,,2,,,73,64
485402,note_off,,,,,0,0,0,,,1,,,85,64
485409,note_off,,,,,7,0,0,,,4,,,45,64
485409,note_on,,,,,0,0,0,,,1,,,86,110
485410,note_on,,,,,1,0,0,,,2,,,74,113
485413,note_off,,,,,3,0,0,,,4,,,62,64
485414,note_off,,,,,1,0,0,,,4,,,66,64
485499,note_on,,,,,85,0,0,,,4,,,46,127
485499,note_on,,,,,0,0,0,,,4,,,58,127
485587,note_on,,,,,88,0,0,,,4,,,59,127
485587,note_on,,,,,0,0,0,,,4,,,47,127
485597,note_off,,,,,10,0,0,,,4,,,58,64
485597,note_off,,,,,0,0,0,,,4,,,46,64
485655,note_off,,,,,58,0,0,,,2,,,74,64
485656,note_off,,,,,1,0,0,,,1,,,86,64
485677,note_on,,,,,21,0,0,,,1,,,82,110
485678,note_on,,,,,1,0,0,,,2,,,70,118
485715,note_off,,,,,37,0,0,,,4,,,47,64
485715,note_off,,,,,0,0,0,,,4,,,59,64
485762,note_off,,,,,47,0,0,,,2,,,70,64
485763,note_off,,,,,1,0,0,,,1,,,82,64
485771,note_on,,,,,8,0,0,,,2,,,71,116
485771,note_on,,,,,0,0,0,,,1,,,83,110
485860,note_on,,,,,89,0,0,,,4,,,54,127
485861,note_on,,,,,1,0,0,,,4,,,42,127
485947,note_on,,,,,86,0,0,,,4,,,43,127
485953,note_on,,,,,6,0,0,,,4,,,55,127
485957,note_off,,,,,4,0,0,,,4,,,42,64
485957,note_off,,,,,0,0,0,,,4,,,54,64
486014,note_off,,,,,57,0,0,,,1,,,83,64
486014,note_off,,,,,0,0,0,,,2,,,71,64
486044,note_on,,,,,30,0,0,,,1,,,79,110
486044,note_on,,,,,0,0,0,,,2,,,67,127
486045,note_on,,,,,1,0,0,,,4,,,61,127
486045,note_on,,,,,0,0,0,,,4,,,49,127
486046,note_off,,,,,1,0,0,,,4,,,43,64
486053,note_off,,,,,7,0,0,,,4,,,55,64
486224,note_on,,,,,171,0,0,,,1,,,78,110
486225,note_on,,,,,1,0,0,,,4,,,62,127
486225,note_on,,,,,0,0,0,,,4,,,66,127
486226,note_on,,,,,1,0,0,,,4,,,50,127
486228,note_off,,,,,2,0,0,,,4,,,49,64
486228,note_off,,,,,0,0,0,,,4,,,61,64
486228,note_off,,,,,0,0,0,,,2,,,67,64
486229,note_off,,,,,1,0,0,,,1,,,79,64
486407,note_on,,,,,178,0,0,,,4,,,64,126
486407,note_on,,,,,0,0,0,,,2,,,76,113
486408,note_off,,,,,1,0,0,,,4,,,62,64
486408,note_off,,,,,0,0,0,,,4,,,50,64
486408,note_on,,,,,0,0,0,,,4,,,49,127
486408,note_on,,,,,0,0,0,,,4,,,61,127
486409,note_off,,,,,1,0,0,,,1,,,78,64
486409,note_off,,,,,0,0,0,,,4,,,66,64
486585,note_on,,,,,176,0,0,,,2,,,74,113
486586,note_on,,,,,1,0,0,,,4,,,59,127
486586,note_on,,,,,0,0,0,,,4,,,62,127
486587,note_on,,,,,1,0,0,,,4,,,47,127
486589,note_off,,,,,2,0,0,,,4,,,61,64
486589,note_off,,,,,0,0,0,,,4,,,49,64
486590,note_off,,,,,1,0,0,,,2,,,76,64
486590,note_off,,,,,0,0,0,,,4,,,64,64
486766,note_on,,,,,176,0,0,,,1,,,78,105
486768,note_off,,,,,2,0,0,,,4,,,62,64
486773,note_on,,,,,5,0,0,,,4,,,66,127
486774,note_on,,,,,1,0,0,,,4,,,57,127
486774,note_on,,,,,0,0,0,,,4,,,62,127
486776,note_off,,,,,2,0,0,,,4,,,47,64
486777,note_off,,,,,1,0,0,,,2,,,74,64
486777,note_off,,,,,0,0,0,,,4,,,59,64
487027,note_off,,,,,250,0,0,,,1,,,78,64
487027,note_on,,,,,0,0,0,,,1,,,79,105
487033,note_off,,,,,6,0,0,,,4,,,66,64
487034,note_on,,,,,1,0,0,,,2,,,67,127
487115,note_on,,,,,81,0,0,,,1,,,80,105
487121,note_on,,,,,6,0,0,,,2,,,68,120
487125,note_off,,,,,4,0,0,,,1,,,79,64
487130,note_off,,,,,5,0,0,,,2,,,67,64
487203,note_on,,,,,73,0,0,,,1,,,81,105
487209,note_on,,,,,6,0,0,,,2,,,69,118
487211,note_off,,,,,2,0,0,,,1,,,80,64
487217,note_off,,,,,6,0,0,,,2,,,68,64
487288,note_on,,,,,71,0,0,,,1,,,80,105
487294,note_on,,,,,6,0,0,,,2,,,68,120
487297,note_off,,,,,3,0,0,,,1,,,81,64
487303,note_off,,,,,6,0,0,,,2,,,69,64
487371,note_on,,,,,68,0,0,,,1,,,81,105
487377,note_on,,,,,6,0,0,,,2,,,69,118
487381,note_off,,,,,4,0,0,,,1,,,80,64
487387,note_off,,,,,6,0,0,,,2,,,68,64
487460,note_on,,,,,73,0,0,,,2,,,76,108
487466,note_off,,,,,6,0,0,,,4,,,62,64
487466,note_off,,,,,0,0,0,,,4,,,57,64
487467,note_on,,,,,1,0,0,,,4,,,61,127
487467,note_on,,,,,0,0,0,,,4,,,64,126
487469,note_off,,,,,2,0,0,,,1,,,81,64
487475,note_off,,,,,6,0,0,,,2,,,69,64
487772,note_off,,,,,297,0,0,,,2,,,76,64
487779,note_off,,,,,7,0,0,,,4,,,61,64
487780,note_off,,,,,1,0,0,,,4,,,64,64
487819,note_on,,,,,39,0,0,,,4,,,33,127
487819,note_on,,,,,0,0,0,,,4,,,45,127
487998,note_off,,,,,179,0,0,,,4,,,33,64
487999,note_off,,,,,1,0,0,,,4,,,45,64
488005,note_on,,,,,6,0,0,,,4,,,45,127
488005,note_on,,,,,0,0,0,,,4,,,33,127
488087,note_off,,,,,82,0,0,,,4,,,33,64
488087,note_off,,,,,0,0,0,,,4,,,45,64
488095,note_on,,,,,8,0,0,,,4,,,45,127
488096,note_on,,,,,1,0,0,,,4,,,33,127
488177,note_off,,,,,81,0,0,,,4,,,45,64
488177,note_off,,,,,0,0,0,,,4,,,33,64
488184,note_on,,,,,7,0,0,,,4,,,38,127
488184,note_on,,,,,0,0,0,,,4,,,50,127
488273,note_on,,,,,89,0,0,,,1,,,78,115
488273,note_on,,,,,0,0,0,,,2,,,74,118
488363,note_on,,,,,90,0,0,,,2,,,76,118
488363,note_on,,,,,0,0,0,,,1,,,79,115
488373,note_off,,,,,10,0,0,,,2,,,74,64
488373,note_off,,,,,0,0,0,,,1,,,78,64
488452,note_on,,,,,79,0,0,,,1,,,81,115
488453,note_on,,,,,1,0,0,,,1,,,78,115
488461,note_off,,,,,8,0,0,,,1,,,79,64
488461,note_off,,,,,0,0,0,,,2,,,76,64
488505,note_off,,,,,44,0,0,,,4,,,50,64
488505,note_off,,,,,0,0,0,,,4,,,38,64
488542,note_on,,,,,37,0,0,,,4,,,50,127
488542,note_on,,,,,0,0,0,,,4,,,62,127
488580,note_off,,,,,38,0,0,,,1,,,78,64
488580,note_off,,,,,0,0,0,,,1,,,81,64
488719,note_off,,,,,139,0,0,,,4,,,62,64
488719,note_off,,,,,0,0,0,,,4,,,50,64
488727,note_on,,,,,8,0,0,,,4,,,62,127
488728,note_on,,,,,1,0,0,,,4,,,50,127
488809,note_off,,,,,81,0,0,,,4,,,50,64
488809,note_off,,,,,0,0,0,,,4,,,62,64
488816,note_on,,,,,7,0,0,,,4,,,50,127
488816,note_on,,,,,0,0,0,,,4,,,62,127
488897,note_off,,,,,81,0,0,,,4,,,50,64
488898,note_off,,,,,1,0,0,,,4,,,62,64
488906,note_on,,,,,8,0,0,,,4,,,43,127
488906,note_on,,,,,0,0,0,,,4,,,55,127
488995,note_on,,,,,89,0,0,,,2,,,76,118
488996,note_on,,,,,1,0,0,,,2,,,71,116
489084,note_on,,,,,88,0,0,,,1,,,78,115
489085,note_on,,,,,1,0,0,,,2,,,75,118
489095,note_off,,,,,10,0,0,,,2,,,71,64
489096,note_off,,,,,1,0,0,,,2,,,76,64
489175,note_on,,,,,79,0,0,,,1,,,79,115
489175,note_on,,,,,0,0,0,,,2,,,76,118
489183,note_off,,,,,8,0,0,,,2,,,75,64
489184,note_off,,,,,1,0,0,,,1,,,78,64
489227,note_off,,,,,43,0,0,,,4,,,55,64
489227,note_off,,,,,0,0,0,,,4,,,43,64
489264,note_on,,,,,37,0,0,,,2,,,73,117
489264,note_on,,,,,0,0,0,,,1,,,85,105
489273,note_off,,,,,9,0,0,,,2,,,76,64
489274,note_off,,,,,1,0,0,,,1,,,79,64
489359,note_on,,,,,85,0,0,,,2,,,71,116
489360,note_on,,,,,1,0,0,,,2,,,67,127
489443,note_off,,,,,83,0,0,,,1,,,85,64
489443,note_off,,,,,0,0,0,,,2,,,73,64
489451,note_on,,,,,8,0,0,,,1,,,85,105
489452,note_on,,,,,1,0,0,,,2,,,73,117
489452,note_on,,,,,0,0,0,,,2,,,69,118
489453,note_on,,,,,1,0,0,,,4,,,66,127
489461,note_off,,,,,8,0,0,,,2,,,67,64
489461,note_off,,,,,0,0,0,,,2,,,71,64
489533,note_off,,,,,72,0,0,,,2,,,73,64
489533,note_off,,,,,0,0,0,,,1,,,85,64
489541,note_on,,,,,8,0,0,,,1,,,85,105
489542,note_on,,,,,1,0,0,,,2,,,67,127
489542,note_on,,,,,0,0,0,,,2,,,73,117
489543,note_on,,,,,1,0,0,,,4,,,64,126
489549,note_off,,,,,6,0,0,,,4,,,66,64
489550,note_off,,,,,1,0,0,,,2,,,69,64
489619,note_off,,,,,69,0,0,,,2,,,73,64
489620,note_off,,,,,1,0,0,,,1,,,85,64
489626,note_on,,,,,6,0,0,,,1,,,86,105
489626,note_on,,,,,0,0,0,,,2,,,74,118
489712,note_on,,,,,86,0,0,,,4,,,66,127
489714,note_on,,,,,2,0,0,,,4,,,62,127
489716,note_off,,,,,2,0,0,,,4,,,64,64
489717,note_off,,,,,1,0,0,,,2,,,67,64
489800,note_on,,,,,83,0,0,,,2,,,71,116
489800,note_on,,,,,0,0,0,,,1,,,83,105
489803,note_off,,,,,3,0,0,,,2,,,74,64
489803,note_off,,,,,0,0,0,,,1,,,86,64
489884,note_on,,,,,81,0,0,,,4,,,64,126
489885,note_on,,,,,1,0,0,,,4,,,55,127
489887,note_off,,,,,2,0,0,,,4,,,62,64
489888,note_off,,,,,1,0,0,,,4,,,66,64
489971,note_on,,,,,83,0,0,,,2,,,69,118
489971,note_on,,,,,0,0,0,,,1,,,81,105
489973,note_off,,,,,2,0,0,,,2,,,71,64
489974,note_off,,,,,1,0,0,,,1,,,83,64
490057,note_on,,,,,83,0,0,,,4,,,57,127
490057,note_on,,,,,0,0,0,,,4,,,66,127
490060,note_off,,,,,3,0,0,,,4,,,55,64
490060,note_off,,,,,0,0,0,,,4,,,64,64
490141,note_on,,,,,81,0,0,,,1,,,85,105
490142,note_on,,,,,1,0,0,,,2,,,73,117
490144,note_off,,,,,2,0,0,,,1,,,81,64
490144,note_off,,,,,0,0,0,,,2,,,69,64
490220,note_off,,,,,76,0,0,,,4,,,57,64
490228,note_on,,,,,8,0,0,,,4,,,57,127
490228,note_on,,,,,0,0,0,,,4,,,64,126
490231,note_off,,,,,3,0,0,,,4,,,66,64
490314,note_on,,,,,83,0,0,,,2,,,74,118
490314,note_on,,,,,0,0,0,,,1,,,86,105
490316,note_off,,,,,2,0,0,,,2,,,73,64
490317,note_off,,,,,1,0,0,,,1,,,85,64
490396,note_off,,,,,79,0,0,,,4,,,57,64
490402,note_on,,,,,6,0,0,,,4,,,62,127
490405,note_off,,,,,3,0,0,,,4,,,64,64
490492,note_on,,,,,87,0,0,,,4,,,50,127
490574,note_off,,,,,82,0,0,,,4,,,62,64
490626,note_off,,,,,52,0,0,,,2,,,74,64
490627,note_off,,,,,1,0,0,,,1,,,86,64
490671,note_on,,,,,44,0,0,,,1,,,81,105
490672,note_on,,,,,1,0,0,,,2,,,69,118
490849,note_off,,,,,177,0,0,,,1,,,81,64
490849,note_off,,,,,0,0,0,,,2,,,69,64
490856,note_on,,,,,7,0,0,,,1,,,81,105
490856,note_on,,,,,0,0,0,,,2,,,69,118
490941,note_off,,,,,85,0,0,,,2,,,69,64
490942,note_off,,,,,1,0,0,,,1,,,81,64
490948,note_on,,,,,6,0,0,,,1,,,81,105
490949,note_on,,,,,1,0,0,,,2,,,69,118
491031,note_off,,,,,82,0,0,,,2,,,69,64
491031,note_off,,,,,0,0,0,,,1,,,81,64
491038,note_on,,,,,7,0,0,,,2,,,72,117
491038,note_on,,,,,0,0,0,,,1,,,84,105
491125,note_on,,,,,87,0,0,,,4,,,63,127
491125,note_on,,,,,0,0,0,,,2,,,69,118
491213,note_on,,,,,88,0,0,,,1,,,83,105
491214,note_on,,,,,1,0,0,,,2,,,71,116
491216,note_off,,,,,2,0,0,,,2,,,72,64
491217,note_off,,,,,1,0,0,,,1,,,84,64
491300,note_on,,,,,83,0,0,,,2,,,68,120
491300,note_on,,,,,0,0,0,,,4,,,64,126
491303,note_off,,,,,3,0,0,,,2,,,69,64
491303,note_off,,,,,0,0,0,,,4,,,63,64
491384,note_on,,,,,81,0,0,,,1,,,82,105
491385,note_on,,,,,1,0,0,,,2,,,70,118
491387,note_off,,,,,2,0,0,,,2,,,71,64
491388,note_off,,,,,1,0,0,,,1,,,83,64
491471,note_on,,,,,83,0,0,,,4,,,61,127
491471,note_on,,,,,0,0,0,,,2,,,67,127
491473,note_off,,,,,2,0,0,,,4,,,64,64
491474,note_off,,,,,1,0,0,,,2,,,68,64
491557,note_on,,,,,83,0,0,,,1,,,81,105
491557,note_on,,,,,0,0,0,,,2,,,69,118
491560,note_off,,,,,3,0,0,,,1,,,82,64
491560,note_off,,,,,0,0,0,,,2,,,70,64
491643,note_on,,,,,83,0,0,,,4,,,66,127
491644,note_on,,,,,1,0,0,,,4,,,62,127
491646,note_off,,,,,2,0,0,,,4,,,61,64
491647,note_off,,,,,1,0,0,,,2,,,67,64
491732,note_on,,,,,85,0,0,,,2,,,73,117
491732,note_on,,,,,0,0,0,,,1,,,85,105
491735,note_off,,,,,3,0,0,,,2,,,69,64
491735,note_off,,,,,0,0,0,,,1,,,81,64
491824,note_on,,,,,89,0,0,,,2,,,74,118
491824,note_on,,,,,0,0,0,,,1,,,86,105
491827,note_off,,,,,3,0,0,,,4,,,66,64
491827,note_off,,,,,0,0,0,,,4,,,62,64
491835,note_off,,,,,8,0,0,,,2,,,73,64
491836,note_off,,,,,1,0,0,,,1,,,85,64
491904,note_off,,,,,68,0,0,,,4,,,50,64
491917,note_on,,,,,13,0,0,,,4,,,46,127
491917,note_on,,,,,0,0,0,,,4,,,58,127
491999,note_on,,,,,82,0,0,,,4,,,47,127
491999,note_on,,,,,0,0,0,,,4,,,59,127
492007,note_off,,,,,8,0,0,,,4,,,46,64
492008,note_off,,,,,1,0,0,,,4,,,58,64
492043,note_off,,,,,35,0,0,,,1,,,86,64
492043,note_off,,,,,0,0,0,,,2,,,74,64
492088,note_on,,,,,45,0,0,,,1,,,82,105
492088,note_on,,,,,0,0,0,,,2,,,70,118
492185,note_on,,,,,97,0,0,,,2,,,71,116
492185,note_on,,,,,0,0,0,,,1,,,83,105
492193,note_off,,,,,8,0,0,,,2,,,70,64
492194,note_off,,,,,1,0,0,,,1,,,82,64
492231,note_off,,,,,37,0,0,,,4,,,59,64
492231,note_off,,,,,0,0,0,,,4,,,47,64
492276,note_on,,,,,45,0,0,,,4,,,54,127
492276,note_on,,,,,0,0,0,,,4,,,42,127
492363,note_on,,,,,87,0,0,,,4,,,55,127
492364,note_on,,,,,1,0,0,,,4,,,43,127
492374,note_off,,,,,10,0,0,,,4,,,42,64
492374,note_off,,,,,0,0,0,,,4,,,54,64
492406,note_off,,,,,32,0,0,,,1,,,83,64
492406,note_off,,,,,0,0,0,,,2,,,71,64
492453,note_on,,,,,47,0,0,,,4,,,61,127
492453,note_on,,,,,0,0,0,,,1,,,79,110
492454,note_on,,,,,1,0,0,,,4,,,49,127
492455,note_on,,,,,1,0,0,,,2,,,67,127
492456,note_off,,,,,1,0,0,,,4,,,43,64
492457,note_off,,,,,1,0,0,,,4,,,55,64
492634,note_on,,,,,177,0,0,,,1,,,78,110
492635,note_on,,,,,1,0,0,,,4,,,50,127
492635,note_on,,,,,0,0,0,,,4,,,62,127
492636,note_off,,,,,1,0,0,,,4,,,61,64
492636,note_off,,,,,0,0,0,,,4,,,49,64
492636,note_on,,,,,0,0,0,,,4,,,66,127
492637,note_off,,,,,1,0,0,,,1,,,79,64
492637,note_off,,,,,0,0,0,,,2,,,67,64
492813,note_on,,,,,176,0,0,,,4,,,61,127
492813,note_on,,,,,0,0,0,,,2,,,76,113
492814,note_on,,,,,1,0,0,,,4,,,49,127
492815,note_on,,,,,1,0,0,,,4,,,64,126
492816,note_off,,,,,1,0,0,,,4,,,50,64
492817,note_off,,,,,1,0,0,,,1,,,78,64
492817,note_off,,,,,0,0,0,,,4,,,62,64
492818,note_off,,,,,1,0,0,,,4,,,66,64
492995,note_on,,,,,177,0,0,,,2,,,74,118
492996,note_on,,,,,1,0,0,,,4,,,59,127
492996,note_on,,,,,0,0,0,,,4,,,47,127
492997,note_off,,,,,1,0,0,,,4,,,49,64
492997,note_on,,,,,0,0,0,,,4,,,62,127
492998,note_off,,,,,1,0,0,,,2,,,76,64
492998,note_off,,,,,0,0,0,,,4,,,61,64
492998,note_off,,,,,0,0,0,,,4,,,64,64
493176,note_off,,,,,178,0,0,,,4,,,62,64
493180,note_on,,,,,4,0,0,,,1,,,78,105
493181,note_on,,,,,1,0,0,,,4,,,66,127
493182,note_on,,,,,1,0,0,,,4,,,57,127
493182,note_on,,,,,0,0,0,,,4,,,62,127
493183,note_off,,,,,1,0,0,,,4,,,47,64
493183,note_off,,,,,0,0,0,,,4,,,59,64
493184,note_off,,,,,1,0,0,,,2,,,74,64
493443,note_on,,,,,259,0,0,,,1,,,79,105
493449,note_off,,,,,6,0,0,,,1,,,78,64
493449,note_off,,,,,0,0,0,,,4,,,66,64
493450,note_on,,,,,1,0,0,,,2,,,67,127
493529,note_on,,,,,79,0,0,,,1,,,80,105
493537,note_on,,,,,8,0,0,,,2,,,68,120
493541,note_off,,,,,4,0,0,,,1,,,79,64
493547,note_off,,,,,6,0,0,,,2,,,67,64
493616,note_on,,,,,69,0,0,,,1,,,81,100
493623,note_on,,,,,7,0,0,,,2,,,69,118
493625,note_off,,,,,2,0,0,,,1,,,80,64
493633,note_off,,,,,8,0,0,,,2,,,68,64
493704,note_on,,,,,71,0,0,,,1,,,80,105
493712,note_on,,,,,8,0,0,,,2,,,68,120
493714,note_off,,,,,2,0,0,,,1,,,81,64
493719,note_off,,,,,5,0,0,,,2,,,69,64
493787,note_on,,,,,68,0,0,,,1,,,81,100
493792,note_on,,,,,5,0,0,,,2,,,69,118
493796,note_off,,,,,4,0,0,,,1,,,80,64
493802,note_off,,,,,6,0,0,,,2,,,68,64
493879,note_on,,,,,77,0,0,,,4,,,64,126
493879,note_on,,,,,0,0,0,,,2,,,76,108
493880,note_off,,,,,1,0,0,,,4,,,57,64
493880,note_on,,,,,0,0,0,,,4,,,61,127
493881,note_off,,,,,1,0,0,,,4,,,62,64
493883,note_off,,,,,2,0,0,,,1,,,81,64
493890,note_off,,,,,7,0,0,,,2,,,69,64
494193,note_off,,,,,303,0,0,,,2,,,76,64
494195,note_off,,,,,2,0,0,,,4,,,64,64
494195,note_off,,,,,0,0,0,,,4,,,61,64
494232,note_on,,,,,37,0,0,,,4,,,33,127
494232,note_on,,,,,0,0,0,,,4,,,45,127
494408,note_off,,,,,176,0,0,,,4,,,45,64
494408,note_off,,,,,0,0,0,,,4,,,33,64
494416,note_on,,,,,8,0,0,,,4,,,45,127
494417,note_on,,,,,1,0,0,,,4,,,33,127
494500,note_off,,,,,83,0,0,,,4,,,33,64
494500,note_off,,,,,0,0,0,,,4,,,45,64
494507,note_on,,,,,7,0,0,,,4,,,45,127
494507,note_on,,,,,0,0,0,,,4,,,33,127
494588,note_off,,,,,81,0,0,,,4,,,33,64
494589,note_off,,,,,1,0,0,,,4,,,45,64
494597,note_on,,,,,8,0,0,,,4,,,38,127
494597,note_on,,,,,0,0,0,,,4,,,50,127
494684,note_on,,,,,87,0,0,,,1,,,78,115
494685,note_on,,,,,1,0,0,,,2,,,74,118
494772,note_on,,,,,87,0,0,,,1,,,79,115
494772,note_on,,,,,0,0,0,,,2,,,76,118
494782,note_off,,,,,10,0,0,,,2,,,74,64
494783,note_off,,,,,1,0,0,,,1,,,78,64
494860,note_on,,,,,77,0,0,,,1,,,78,115
494860,note_on,,,,,0,0,0,,,1,,,81,115
494868,note_off,,,,,8,0,0,,,2,,,76,64
494869,note_off,,,,,1,0,0,,,1,,,79,64
494910,note_off,,,,,41,0,0,,,4,,,38,64
494911,note_off,,,,,1,0,0,,,4,,,50,64
494948,note_on,,,,,37,0,0,,,4,,,62,127
494949,note_on,,,,,1,0,0,,,4,,,50,127
494959,note_off,,,,,10,0,0,,,1,,,81,64
494959,note_off,,,,,0,0,0,,,1,,,78,64
495127,note_off,,,,,168,0,0,,,4,,,50,64
495128,note_off,,,,,1,0,0,,,4,,,62,64
495133,note_on,,,,,5,0,0,,,4,,,62,127
495134,note_on,,,,,1,0,0,,,4,,,50,127
495216,note_off,,,,,82,0,0,,,4,,,50,64
495216,note_off,,,,,0,0,0,,,4,,,62,64
495224,note_on,,,,,8,0,0,,,4,,,62,127
495224,note_on,,,,,0,0,0,,,4,,,50,127
495303,note_off,,,,,79,0,0,,,4,,,50,64
495304,note_off,,,,,1,0,0,,,4,,,62,64
495311,note_on,,,,,7,0,0,,,4,,,43,127
495311,note_on,,,,,0,0,0,,,4,,,55,127
495399,note_on,,,,,88,0,0,,,2,,,76,113
495400,note_on,,,,,1,0,0,,,2,,,71,116
495487,note_on,,,,,87,0,0,,,1,,,78,110
495487,note_on,,,,,0,0,0,,,2,,,75,113
495496,note_off,,,,,9,0,0,,,2,,,71,64
495496,note_off,,,,,0,0,0,,,2,,,76,64
495576,note_on,,,,,80,0,0,,,2,,,76,113
495576,note_on,,,,,0,0,0,,,1,,,79,110
495585,note_off,,,,,9,0,0,,,2,,,75,64
495586,note_off,,,,,1,0,0,,,1,,,78,64
495619,note_off,,,,,33,0,0,,,4,,,55,64
495619,note_off,,,,,0,0,0,,,4,,,43,64
495662,note_on,,,,,43,0,0,,,1,,,85,105
495662,note_on,,,,,0,0,0,,,2,,,73,112
495672,note_off,,,,,10,0,0,,,1,,,79,64
495672,note_off,,,,,0,0,0,,,2,,,76,64
495756,note_on,,,,,84,0,0,,,2,,,67,127
495756,note_on,,,,,0,0,0,,,2,,,71,116
495836,note_off,,,,,80,0,0,,,2,,,73,64
495836,note_off,,,,,0,0,0,,,1,,,85,64
495845,note_on,,,,,9,0,0,,,1,,,85,105
495846,note_on,,,,,1,0,0,,,2,,,73,112
495846,note_on,,,,,0,0,0,,,2,,,69,118
495847,note_on,,,,,1,0,0,,,4,,,66,127
495855,note_off,,,,,8,0,0,,,2,,,71,64
495855,note_off,,,,,0,0,0,,,2,,,67,64
495925,note_off,,,,,70,0,0,,,2,,,73,64
495925,note_off,,,,,0,0,0,,,1,,,85,64
495932,note_on,,,,,7,0,0,,,1,,,85,105
495932,note_on,,,,,0,0,0,,,2,,,73,112
495933,note_on,,,,,1,0,0,,,4,,,64,126
495933,note_on,,,,,0,0,0,,,2,,,67,127
495941,note_off,,,,,8,0,0,,,4,,,66,64
495942,note_off,,,,,1,0,0,,,2,,,69,64
496009,note_off,,,,,67,0,0,,,2,,,73,64
496010,note_off,,,,,1,0,0,,,1,,,85,64
496016,note_on,,,,,6,0,0,,,1,,,86,105
496017,note_on,,,,,1,0,0,,,2,,,74,113
496100,note_on,,,,,83,0,0,,,4,,,66,127
496100,note_on,,,,,0,0,0,,,4,,,62,127
496103,note_off,,,,,3,0,0,,,2,,,67,64
496103,note_off,,,,,0,0,0,,,4,,,64,64
496186,note_on,,,,,83,0,0,,,1,,,83,105
496187,note_on,,,,,1,0,0,,,2,,,71,116
496189,note_off,,,,,2,0,0,,,1,,,86,64
496189,note_off,,,,,0,0,0,,,2,,,74,64
496272,note_on,,,,,83,0,0,,,4,,,64,126
496273,note_on,,,,,1,0,0,,,4,,,55,127
496275,note_off,,,,,2,0,0,,,4,,,62,64
496276,note_off,,,,,1,0,0,,,4,,,66,64
496359,note_on,,,,,83,0,0,,,1,,,81,105
496359,note_on,,,,,0,0,0,,,2,,,69,118
496362,note_off,,,,,3,0,0,,,1,,,83,64
496362,note_off,,,,,0,0,0,,,2,,,71,64
496449,note_on,,,,,87,0,0,,,4,,,66,127
496450,note_on,,,,,1,0,0,,,4,,,57,127
496452,note_off,,,,,2,0,0,,,4,,,64,64
496452,note_off,,,,,0,0,0,,,4,,,55,64
496536,note_on,,,,,84,0,0,,,2,,,73,112
496536,note_on,,,,,0,0,0,,,1,,,85,105
496539,note_off,,,,,3,0,0,,,2,,,69,64
496540,note_off,,,,,1,0,0,,,1,,,81,64
496621,note_off,,,,,81,0,0,,,4,,,57,64
496629,note_on,,,,,8,0,0,,,4,,,64,126
496629,note_on,,,,,0,0,0,,,4,,,57,127
496632,note_off,,,,,3,0,0,,,4,,,66,64
496718,note_on,,,,,86,0,0,,,2,,,74,113
496718,note_on,,,,,0,0,0,,,1,,,86,105
496721,note_off,,,,,3,0,0,,,1,,,85,64
496721,note_off,,,,,0,0,0,,,2,,,73,64
496797,note_off,,,,,76,0,0,,,4,,,57,64
496804,note_on,,,,,7,0,0,,,4,,,62,127
496808,note_off,,,,,4,0,0,,,4,,,64,64
496895,note_on,,,,,87,0,0,,,4,,,50,127
496986,note_off,,,,,91,0,0,,,4,,,62,64
496998,note_off,,,,,12,0,0,,,1,,,86,64
496998,note_off,,,,,0,0,0,,,2,,,74,64
497274,note_off,,,,,276,0,0,,,4,,,50,64
497445,note_on,,,,,171,0,0,,,2,,,69,119
497591,note_off,,,,,146,0,0,,,2,,,69,64
497597,note_on,,,,,6,0,0,,,2,,,69,119
497674,note_on,,,,,77,0,0,,,2,,,67,127
497683,note_off,,,,,9,0,0,,,2,,,69,64
497750,note_on,,,,,67,0,0,,,4,,,50,127
497750,note_on,,,,,0,0,0,,,4,,,66,127
497759,note_off,,,,,9,0,0,,,2,,,67,64
497826,note_on,,,,,67,0,0,,,4,,,64,127
497833,note_off,,,,,7,0,0,,,4,,,66,64
497901,note_on,,,,,68,0,0,,,4,,,62,127
497908,note_off,,,,,7,0,0,,,4,,,64,64
497972,note_on,,,,,64,0,0,,,4,,,49,127
497974,note_off,,,,,2,0,0,,,4,,,50,64
498045,note_on,,,,,71,0,0,,,4,,,47,127
498047,note_off,,,,,2,0,0,,,4,,,49,64
498116,note_on,,,,,69,0,0,,,4,,,64,127
498118,note_off,,,,,2,0,0,,,4,,,62,64
498187,note_on,,,,,69,0,0,,,4,,,66,127
498191,note_off,,,,,4,0,0,,,4,,,64,64
498258,note_off,,,,,67,0,0,,,4,,,47,64
498259,note_on,,,,,1,0,0,,,4,,,45,127
498330,note_on,,,,,71,0,0,,,4,,,43,127
498334,note_off,,,,,4,0,0,,,4,,,45,64
498403,note_on,,,,,69,0,0,,,4,,,59,127
498438,note_off,,,,,35,0,0,,,4,,,66,64
498474,note_on,,,,,36,0,0,,,2,,,67,127
498478,note_off,,,,,4,0,0,,,4,,,59,64
498545,note_on,,,,,67,0,0,,,4,,,40,127
498582,note_off,,,,,37,0,0,,,4,,,43,64
498618,note_on,,,,,36,0,0,,,4,,,45,127
498624,note_off,,,,,6,0,0,,,4,,,40,64
498689,note_on,,,,,65,0,0,,,4,,,61,127
498726,note_off,,,,,37,0,0,,,2,,,67,64
498760,note_on,,,,,34,0,0,,,4,,,64,127
498762,note_off,,,,,2,0,0,,,4,,,61,64
498814,note_off,,,,,52,0,0,,,4,,,45,64
498833,note_on,,,,,19,0,0,,,4,,,43,127
498904,note_on,,,,,71,0,0,,,4,,,42,127
498908,note_off,,,,,4,0,0,,,4,,,43,64
498979,note_on,,,,,71,0,0,,,4,,,57,127
499014,note_off,,,,,35,0,0,,,4,,,64,64
499050,note_on,,,,,36,0,0,,,2,,,69,119
499052,note_off,,,,,2,0,0,,,4,,,57,64
499123,note_on,,,,,71,0,0,,,4,,,38,127
499158,note_off,,,,,35,0,0,,,4,,,42,64
499194,note_off,,,,,36,0,0,,,4,,,38,64
499195,note_on,,,,,1,0,0,,,4,,,47,127
499266,note_on,,,,,71,0,0,,,4,,,62,127
499303,note_off,,,,,37,0,0,,,2,,,69,64
499337,note_off,,,,,34,0,0,,,4,,,62,64
499338,note_on,,,,,1,0,0,,,2,,,67,127
499413,note_on,,,,,75,0,0,,,4,,,43,127
499450,note_off,,,,,37,0,0,,,4,,,47,64
499488,note_off,,,,,38,0,0,,,4,,,43,64
499488,note_on,,,,,0,0,0,,,4,,,57,127
499489,note_on,,,,,1,0,0,,,4,,,45,127
499547,note_off,,,,,58,0,0,,,2,,,67,64
499566,note_on,,,,,19,0,0,,,4,,,66,127
499633,note_off,,,,,67,0,0,,,4,,,45,64
499633,note_off,,,,,0,0,0,,,4,,,57,64
499640,note_on,,,,,7,0,0,,,4,,,57,127
499640,note_on,,,,,0,0,0,,,4,,,64,127
499641,note_on,,,,,1,0,0,,,4,,,45,127
499646,note_off,,,,,5,0,0,,,4,,,66,64
499716,note_on,,,,,70,0,0,,,4,,,55,127
499716,note_on,,,,,0,0,0,,,4,,,43,127
499724,note_off,,,,,8,0,0,,,4,,,45,64
499725,note_off,,,,,1,0,0,,,4,,,57,64
499783,note_off,,,,,58,0,0,,,4,,,64,64
499788,note_on,,,,,5,0,0,,,1,,,81,117
499789,note_on,,,,,1,0,0,,,4,,,54,127
499789,note_on,,,,,0,0,0,,,4,,,42,127
499794,note_on,,,,,5,0,0,,,2,,,69,119
499796,note_off,,,,,2,0,0,,,4,,,43,64
499796,note_off,,,,,0,0,0,,,4,,,55,64
499860,note_on,,,,,64,0,0,,,4,,,52,127
499861,note_on,,,,,1,0,0,,,4,,,40,127
499869,note_off,,,,,8,0,0,,,4,,,42,64
499870,note_off,,,,,1,0,0,,,4,,,54,64
499922,note_off,,,,,52,0,0,,,1,,,81,64
499928,note_off,,,,,6,0,0,,,2,,,69,64
499933,note_on,,,,,5,0,0,,,1,,,81,117
499934,note_on,,,,,1,0,0,,,4,,,50,127
499934,note_on,,,,,0,0,0,,,4,,,38,127
499939,note_on,,,,,5,0,0,,,2,,,69,119
499942,note_off,,,,,3,0,0,,,4,,,40,64
499943,note_off,,,,,1,0,0,,,4,,,52,64
500007,note_off,,,,,64,0,0,,,1,,,81,64
500007,note_on,,,,,0,0,0,,,1,,,79,117
500014,note_off,,,,,7,0,0,,,2,,,69,64
500015,note_on,,,,,1,0,0,,,2,,,67,127
500083,note_off,,,,,68,0,0,,,1,,,79,64
500083,note_on,,,,,0,0,0,,,1,,,78,117
500088,note_off,,,,,5,0,0,,,2,,,67,64
500088,note_on,,,,,0,0,0,,,4,,,66,127
500138,note_off,,,,,50,0,0,,,4,,,38,64
500139,note_off,,,,,1,0,0,,,4,,,50,64
500158,note_off,,,,,19,0,0,,,1,,,78,64
500159,note_on,,,,,1,0,0,,,4,,,49,127
500159,note_on,,,,,0,0,0,,,2,,,76,117
500160,note_on,,,,,1,0,0,,,4,,,37,127
500164,note_off,,,,,4,0,0,,,4,,,66,64
500165,note_on,,,,,1,0,0,,,4,,,64,127
500236,note_off,,,,,71,0,0,,,2,,,76,64
500237,note_on,,,,,1,0,0,,,2,,,74,117
500237,note_on,,,,,0,0,0,,,4,,,47,127
500238,note_on,,,,,1,0,0,,,4,,,35,127
500242,note_off,,,,,4,0,0,,,4,,,64,64
500243,note_on,,,,,1,0,0,,,4,,,62,127
500244,note_off,,,,,1,0,0,,,4,,,37,64
500245,note_off,,,,,1,0,0,,,4,,,49,64
500313,note_on,,,,,68,0,0,,,4,,,33,127
500317,note_on,,,,,4,0,0,,,4,,,45,127
500320,note_off,,,,,3,0,0,,,4,,,35,64
500321,note_off,,,,,1,0,0,,,4,,,47,64
500385,note_on,,,,,64,0,0,,,4,,,32,127
500389,note_on,,,,,4,0,0,,,4,,,44,127
500393,note_off,,,,,4,0,0,,,4,,,33,64
500398,note_off,,,,,5,0,0,,,4,,,45,64
500439,note_off,,,,,41,0,0,,,2,,,74,64
500445,note_off,,,,,6,0,0,,,4,,,62,64
500456,note_on,,,,,11,0,0,,,2,,,73,117
500457,note_on,,,,,1,0,0,,,4,,,33,127
500461,note_on,,,,,4,0,0,,,4,,,61,127
500461,note_on,,,,,0,0,0,,,4,,,45,127
500464,note_off,,,,,3,0,0,,,4,,,32,64
500470,note_off,,,,,6,0,0,,,4,,,44,64
500527,note_on,,,,,57,0,0,,,2,,,71,117
500533,note_on,,,,,6,0,0,,,4,,,47,127
500533,note_on,,,,,0,0,0,,,4,,,59,127
500534,note_on,,,,,1,0,0,,,4,,,35,127
500536,note_off,,,,,2,0,0,,,4,,,33,64
500536,note_off,,,,,0,0,0,,,2,,,73,64
500541,note_off,,,,,5,0,0,,,4,,,45,64
500541,note_off,,,,,0,0,0,,,4,,,61,64
500599,note_on,,,,,58,0,0,,,2,,,69,119
500605,note_on,,,,,6,0,0,,,4,,,57,127
500607,note_off,,,,,2,0,0,,,2,,,71,64
500613,note_off,,,,,6,0,0,,,4,,,59,64
500674,note_on,,,,,61,0,0,,,2,,,68,121
500680,note_on,,,,,6,0,0,,,4,,,56,127
500682,note_off,,,,,2,0,0,,,2,,,69,64
500688,note_off,,,,,6,0,0,,,4,,,57,64
500747,note_on,,,,,59,0,0,,,2,,,69,119
500753,note_off,,,,,6,0,0,,,4,,,47,64
500753,note_off,,,,,0,0,0,,,4,,,35,64
500754,note_on,,,,,1,0,0,,,4,,,57,127
500754,note_on,,,,,0,0,0,,,4,,,49,127
500755,note_off,,,,,1,0,0,,,2,,,68,64
500755,note_on,,,,,0,0,0,,,4,,,37,127
500761,note_off,,,,,6,0,0,,,4,,,56,64
500821,note_on,,,,,60,0,0,,,2,,,71,117
500825,note_on,,,,,4,0,0,,,4,,,50,127
500825,note_on,,,,,0,0,0,,,4,,,59,127
500826,note_on,,,,,1,0,0,,,4,,,38,127
500828,note_off,,,,,2,0,0,,,2,,,69,64
500834,note_off,,,,,6,0,0,,,4,,,37,64
500835,note_off,,,,,1,0,0,,,4,,,49,64
500835,note_off,,,,,0,0,0,,,4,,,57,64
500899,note_on,,,,,64,0,0,,,4,,,51,127
500899,note_on,,,,,0,0,0,,,4,,,39,127
500905,note_off,,,,,6,0,0,,,4,,,38,64
500906,note_off,,,,,1,0,0,,,4,,,50,64
500972,note_on,,,,,66,0,0,,,4,,,40,127
500972,note_on,,,,,0,0,0,,,4,,,52,127
500978,note_off,,,,,6,0,0,,,4,,,39,64
500979,note_off,,,,,1,0,0,,,4,,,51,64
501020,note_off,,,,,41,0,0,,,2,,,71,64
501025,note_off,,,,,5,0,0,,,4,,,59,64
501039,note_on,,,,,14,0,0,,,2,,,73,117
501045,note_on,,,,,6,0,0,,,4,,,61,127
501112,note_on,,,,,67,0,0,,,2,,,74,117
501118,note_on,,,,,6,0,0,,,4,,,62,127
501120,note_off,,,,,2,0,0,,,2,,,73,64
501125,note_off,,,,,5,0,0,,,4,,,61,64
501183,note_on,,,,,58,0,0,,,2,,,75,117
501189,note_on,,,,,6,0,0,,,4,,,63,127
501191,note_off,,,,,2,0,0,,,2,,,74,64
501196,note_off,,,,,5,0,0,,,4,,,62,64
501258,note_on,,,,,62,0,0,,,4,,,49,127
501262,note_off,,,,,4,0,0,,,4,,,52,64
501262,note_off,,,,,0,0,0,,,4,,,40,64
501329,note_off,,,,,67,0,0,,,2,,,75,64
501335,note_off,,,,,6,0,0,,,4,,,63,64
501335,note_on,,,,,0,0,0,,,2,,,76,117
501336,note_on,,,,,1,0,0,,,2,,,73,117
501410,note_on,,,,,74,0,0,,,4,,,54,127
501480,note_off,,,,,70,0,0,,,2,,,76,64
501480,note_off,,,,,0,0,0,,,2,,,73,64
501486,note_on,,,,,6,0,0,,,2,,,73,117
501487,note_on,,,,,1,0,0,,,2,,,70,119
501563,note_off,,,,,76,0,0,,,4,,,49,64
501563,note_on,,,,,0,0,0,,,4,,,47,127
501632,note_off,,,,,69,0,0,,,2,,,70,64
501633,note_off,,,,,1,0,0,,,2,,,73,64
501637,note_on,,,,,4,0,0,,,2,,,74,117
501637,note_on,,,,,0,0,0,,,2,,,71,117
501715,note_off,,,,,78,0,0,,,4,,,54,64
501715,note_on,,,,,0,0,0,,,4,,,52,127
501785,note_off,,,,,70,0,0,,,2,,,71,64
501785,note_off,,,,,0,0,0,,,2,,,74,64
501792,note_on,,,,,7,0,0,,,2,,,68,121
501792,note_on,,,,,0,0,0,,,2,,,71,117
501869,note_off,,,,,77,0,0,,,4,,,47,64
501870,note_on,,,,,1,0,0,,,4,,,45,127
501944,note_on,,,,,74,0,0,,,2,,,69,119
501951,note_off,,,,,7,0,0,,,2,,,71,64
501955,note_off,,,,,4,0,0,,,2,,,68,64
502018,note_off,,,,,63,0,0,,,4,,,52,64
502019,note_on,,,,,1,0,0,,,4,,,57,127
502150,note_off,,,,,131,0,0,,,2,,,69,64
502169,note_on,,,,,19,0,0,,,2,,,69,119
502307,note_off,,,,,138,0,0,,,2,,,69,64
502319,note_on,,,,,12,0,0,,,2,,,69,119
502394,note_on,,,,,75,0,0,,,2,,,67,127
502401,note_off,,,,,7,0,0,,,2,,,69,64
502468,note_off,,,,,67,0,0,,,4,,,57,64
502469,note_on,,,,,1,0,0,,,4,,,66,127
502470,note_on,,,,,1,0,0,,,4,,,50,127
502477,note_off,,,,,7,0,0,,,2,,,67,64
502481,note_off,,,,,4,0,0,,,4,,,45,64
502547,note_on,,,,,66,0,0,,,4,,,64,127
502554,note_off,,,,,7,0,0,,,4,,,66,64
502621,note_on,,,,,67,0,0,,,4,,,62,127
502629,note_off,,,,,8,0,0,,,4,,,64,64
502692,note_on,,,,,63,0,0,,,4,,,49,127
502700,note_off,,,,,8,0,0,,,4,,,50,64
502764,note_on,,,,,64,0,0,,,4,,,47,127
502772,note_off,,,,,8,0,0,,,4,,,49,64
502836,note_on,,,,,64,0,0,,,4,,,64,127
502841,note_off,,,,,5,0,0,,,4,,,62,64
502907,note_off,,,,,66,0,0,,,4,,,64,64
502907,note_on,,,,,0,0,0,,,4,,,66,127
502972,note_off,,,,,65,0,0,,,4,,,47,64
502978,note_on,,,,,6,0,0,,,4,,,45,127
503051,note_on,,,,,73,0,0,,,4,,,43,127
503052,note_off,,,,,1,0,0,,,4,,,45,64
503102,note_off,,,,,50,0,0,,,4,,,66,64
503120,note_on,,,,,18,0,0,,,4,,,59,127
503189,note_on,,,,,69,0,0,,,2,,,67,127
503243,note_off,,,,,54,0,0,,,4,,,43,64
503256,note_off,,,,,13,0,0,,,4,,,59,64
503262,note_on,,,,,6,0,0,,,4,,,40,127
503333,note_on,,,,,71,0,0,,,4,,,45,127
503337,note_off,,,,,4,0,0,,,4,,,40,64
503387,note_off,,,,,50,0,0,,,2,,,67,64
503404,note_on,,,,,17,0,0,,,4,,,61,127
503475,note_on,,,,,71,0,0,,,4,,,64,127
503479,note_off,,,,,4,0,0,,,4,,,61,64
503529,note_off,,,,,50,0,0,,,4,,,45,64
503546,note_on,,,,,17,0,0,,,4,,,43,127
503619,note_off,,,,,73,0,0,,,4,,,43,64
503619,note_on,,,,,0,0,0,,,4,,,42,127
503672,note_off,,,,,53,0,0,,,4,,,64,64
503689,note_on,,,,,17,0,0,,,4,,,57,127
503762,note_on,,,,,73,0,0,,,2,,,69,119
503816,note_off,,,,,54,0,0,,,4,,,42,64
503827,note_off,,,,,11,0,0,,,4,,,57,64
503833,note_on,,,,,6,0,0,,,4,,,40,127
503906,note_off,,,,,73,0,0,,,4,,,40,64
503906,note_on,,,,,0,0,0,,,4,,,47,127
503959,note_off,,,,,53,0,0,,,2,,,69,64
503978,note_on,,,,,19,0,0,,,4,,,62,127
504047,note_off,,,,,69,0,0,,,4,,,62,64
504049,note_on,,,,,2,0,0,,,2,,,67,127
504103,note_off,,,,,54,0,0,,,4,,,47,64
504122,note_on,,,,,19,0,0,,,4,,,43,127
504193,note_off,,,,,71,0,0,,,4,,,43,64
504193,note_on,,,,,0,0,0,,,4,,,57,127
504194,note_on,,,,,1,0,0,,,4,,,45,127
504248,note_off,,,,,54,0,0,,,2,,,67,64
504267,note_on,,,,,19,0,0,,,4,,,66,127
504334,note_off,,,,,67,0,0,,,4,,,45,64
504335,note_off,,,,,1,0,0,,,4,,,57,64
504339,note_off,,,,,4,0,0,,,4,,,66,64
504340,note_on,,,,,1,0,0,,,4,,,64,127
504340,note_on,,,,,0,0,0,,,4,,,57,127
504340,note_on,,,,,0,0,0,,,4,,,45,127
504412,note_on,,,,,72,0,0,,,4,,,43,127
504412,note_on,,,,,0,0,0,,,4,,,55,127
504420,note_off,,,,,8,0,0,,,4,,,45,64
504421,note_off,,,,,1,0,0,,,4,,,57,64
504479,note_off,,,,,58,0,0,,,4,,,64,64
504485,note_on,,,,,6,0,0,,,1,,,81,117
504485,note_on,,,,,0,0,0,,,2,,,69,119
504486,note_on,,,,,1,0,0,,,4,,,54,127
504486,note_on,,,,,0,0,0,,,4,,,42,127
504492,note_off,,,,,6,0,0,,,4,,,43,64
504493,note_off,,,,,1,0,0,,,4,,,55,64
504565,note_on,,,,,72,0,0,,,4,,,52,127
504565,note_on,,,,,0,0,0,,,4,,,40,127
504567,note_off,,,,,2,0,0,,,4,,,42,64
504568,note_off,,,,,1,0,0,,,4,,,54,64
504622,note_off,,,,,54,0,0,,,2,,,69,64
504623,note_off,,,,,1,0,0,,,1,,,81,64
504635,note_on,,,,,12,0,0,,,1,,,81,117
504638,note_on,,,,,3,0,0,,,2,,,69,119
504640,note_on,,,,,2,0,0,,,4,,,50,127
504641,note_on,,,,,1,0,0,,,4,,,38,127
504647,note_off,,,,,6,0,0,,,4,,,40,64
504648,note_off,,,,,1,0,0,,,4,,,52,64
504709,note_on,,,,,61,0,0,,,1,,,79,117
504715,note_on,,,,,6,0,0,,,2,,,67,127
504716,note_off,,,,,1,0,0,,,1,,,81,64
504722,note_off,,,,,6,0,0,,,2,,,69,64
504782,note_on,,,,,60,0,0,,,1,,,78,117
504789,note_on,,,,,7,0,0,,,4,,,66,127
504790,note_off,,,,,1,0,0,,,1,,,79,64
504796,note_off,,,,,6,0,0,,,2,,,67,64
504860,note_on,,,,,64,0,0,,,2,,,76,117
504865,note_off,,,,,5,0,0,,,4,,,38,64
504866,note_off,,,,,1,0,0,,,4,,,50,64
504866,note_on,,,,,0,0,0,,,4,,,64,127
504867,note_off,,,,,1,0,0,,,1,,,78,64
504867,note_on,,,,,0,0,0,,,4,,,49,127
504867,note_on,,,,,0,0,0,,,4,,,37,127
504874,note_off,,,,,7,0,0,,,4,,,66,64
504934,note_on,,,,,60,0,0,,,2,,,74,117
504939,note_on,,,,,5,0,0,,,4,,,62,127
504940,note_on,,,,,1,0,0,,,4,,,35,127
504940,note_on,,,,,0,0,0,,,4,,,47,127
504942,note_off,,,,,2,0,0,,,2,,,76,64
504948,note_off,,,,,6,0,0,,,4,,,37,64
504948,note_off,,,,,0,0,0,,,4,,,49,64
504948,note_off,,,,,0,0,0,,,4,,,64,64
505012,note_on,,,,,64,0,0,,,4,,,45,127
505013,note_on,,,,,1,0,0,,,4,,,33,127
505021,note_off,,,,,8,0,0,,,4,,,47,64
505021,note_off,,,,,0,0,0,,,4,,,35,64
505087,note_on,,,,,66,0,0,,,4,,,44,127
505088,note_on,,,,,1,0,0,,,4,,,32,127
505095,note_off,,,,,7,0,0,,,4,,,33,64
505096,note_off,,,,,1,0,0,,,4,,,45,64
505137,note_off,,,,,41,0,0,,,2,,,74,64
505142,note_off,,,,,5,0,0,,,4,,,62,64
505154,note_on,,,,,12,0,0,,,2,,,73,117
505160,note_on,,,,,6,0,0,,,4,,,61,127
505161,note_on,,,,,1,0,0,,,4,,,33,127
505161,note_on,,,,,0,0,0,,,4,,,45,127
505169,note_off,,,,,8,0,0,,,4,,,32,64
505169,note_off,,,,,0,0,0,,,4,,,44,64
505227,note_on,,,,,58,0,0,,,2,,,71,117
505233,note_on,,,,,6,0,0,,,4,,,59,127
505234,note_on,,,,,1,0,0,,,4,,,35,127
505234,note_on,,,,,0,0,0,,,4,,,47,127
505237,note_off,,,,,3,0,0,,,2,,,73,64
505243,note_off,,,,,6,0,0,,,4,,,61,64
505243,note_off,,,,,0,0,0,,,4,,,45,64
505243,note_off,,,,,0,0,0,,,4,,,33,64
505303,note_on,,,,,60,0,0,,,2,,,69,119
505311,note_on,,,,,8,0,0,,,4,,,57,127
505313,note_off,,,,,2,0,0,,,2,,,71,64
505319,note_off,,,,,6,0,0,,,4,,,59,64
505382,note_on,,,,,63,0,0,,,2,,,68,121
505388,note_on,,,,,6,0,0,,,4,,,56,127
505392,note_off,,,,,4,0,0,,,2,,,69,64
505397,note_off,,,,,5,0,0,,,4,,,57,64
505457,note_on,,,,,60,0,0,,,2,,,69,119
505463,note_off,,,,,6,0,0,,,4,,,47,64
505463,note_off,,,,,0,0,0,,,4,,,35,64
505464,note_on,,,,,1,0,0,,,4,,,57,127
505464,note_on,,,,,0,0,0,,,4,,,49,127
505464,note_on,,,,,0,0,0,,,4,,,37,127
505465,note_off,,,,,1,0,0,,,2,,,68,64
505471,note_off,,,,,6,0,0,,,4,,,56,64
505531,note_on,,,,,60,0,0,,,2,,,71,117
505536,note_on,,,,,5,0,0,,,4,,,59,127
505537,note_on,,,,,1,0,0,,,4,,,50,127
505537,note_on,,,,,0,0,0,,,4,,,38,127
505538,note_off,,,,,1,0,0,,,2,,,69,64
505544,note_off,,,,,6,0,0,,,4,,,37,64
505545,note_off,,,,,1,0,0,,,4,,,49,64
505545,note_off,,,,,0,0,0,,,4,,,57,64
505608,note_on,,,,,63,0,0,,,4,,,51,127
505609,note_on,,,,,1,0,0,,,4,,,39,127
505617,note_off,,,,,8,0,0,,,4,,,38,64
505618,note_off,,,,,1,0,0,,,4,,,50,64
505683,note_on,,,,,65,0,0,,,4,,,52,127
505684,note_on,,,,,1,0,0,,,4,,,40,127
505690,note_off,,,,,6,0,0,,,4,,,39,64
505691,note_off,,,,,1,0,0,,,4,,,51,64
505731,note_off,,,,,40,0,0,,,2,,,71,64
505737,note_off,,,,,6,0,0,,,4,,,59,64
505751,note_on,,,,,14,0,0,,,2,,,73,117
505756,note_on,,,,,5,0,0,,,4,,,61,127
505824,note_on,,,,,68,0,0,,,2,,,74,117
505829,note_on,,,,,5,0,0,,,4,,,62,127
505831,note_off,,,,,2,0,0,,,2,,,73,64
505837,note_off,,,,,6,0,0,,,4,,,61,64
505896,note_on,,,,,59,0,0,,,2,,,75,117
505902,note_on,,,,,6,0,0,,,4,,,63,127
505904,note_off,,,,,2,0,0,,,2,,,74,64
505910,note_off,,,,,6,0,0,,,4,,,62,64
505975,note_off,,,,,65,0,0,,,4,,,40,64
505976,note_off,,,,,1,0,0,,,4,,,52,64
505976,note_on,,,,,0,0,0,,,4,,,49,127
506039,note_off,,,,,63,0,0,,,2,,,75,64
506042,note_off,,,,,3,0,0,,,4,,,63,64
506043,note_on,,,,,1,0,0,,,2,,,73,117
506043,note_on,,,,,0,0,0,,,2,,,76,117
506119,note_on,,,,,76,0,0,,,4,,,54,127
506188,note_off,,,,,69,0,0,,,2,,,73,64
506189,note_off,,,,,1,0,0,,,2,,,76,64
506195,note_on,,,,,6,0,0,,,2,,,73,117
506196,note_on,,,,,1,0,0,,,2,,,70,119
506269,note_on,,,,,73,0,0,,,4,,,47,127
506275,note_off,,,,,6,0,0,,,4,,,49,64
506337,note_off,,,,,62,0,0,,,2,,,70,64
506337,note_off,,,,,0,0,0,,,2,,,73,64
506343,note_on,,,,,6,0,0,,,2,,,71,117
506343,note_on,,,,,0,0,0,,,2,,,74,117
506419,note_off,,,,,76,0,0,,,4,,,54,64
506419,note_on,,,,,0,0,0,,,4,,,52,127
506489,note_off,,,,,70,0,0,,,2,,,74,64
506489,note_off,,,,,0,0,0,,,2,,,71,64
506496,note_on,,,,,7,0,0,,,2,,,71,117
506496,note_on,,,,,0,0,0,,,2,,,68,121
506569,note_off,,,,,73,0,0,,,4,,,47,64
506570,note_on,,,,,1,0,0,,,4,,,45,127
506640,note_off,,,,,70,0,0,,,2,,,71,64
506646,note_on,,,,,6,0,0,,,2,,,69,119
506647,note_off,,,,,1,0,0,,,2,,,68,64
506721,note_off,,,,,74,0,0,,,4,,,52,64
506722,note_on,,,,,1,0,0,,,4,,,57,127
506793,note_off,,,,,71,0,0,,,2,,,69,64
506880,note_on,,,,,87,0,0,,,1,,,81,117
507026,note_off,,,,,146,0,0,,,1,,,81,64
507032,note_on,,,,,6,0,0,,,1,,,81,117
507108,note_on,,,,,76,0,0,,,1,,,83,117
507116,note_off,,,,,8,0,0,,,1,,,81,64
507183,note_off,,,,,67,0,0,,,4,,,57,64
507184,note_on,,,,,1,0,0,,,1,,,84,117
507184,note_on,,,,,0,0,0,,,2,,,69,119
507188,note_on,,,,,4,0,0,,,4,,,63,127
507192,note_off,,,,,4,0,0,,,1,,,83,64
507195,note_off,,,,,3,0,0,,,4,,,45,64
507259,note_on,,,,,64,0,0,,,1,,,83,117
507267,note_off,,,,,8,0,0,,,1,,,84,64
507332,note_on,,,,,65,0,0,,,2,,,68,121
507332,note_on,,,,,0,0,0,,,1,,,88,119
507335,note_off,,,,,3,0,0,,,2,,,69,64
507337,note_on,,,,,2,0,0,,,4,,,62,127
507340,note_off,,,,,3,0,0,,,1,,,83,64
507341,note_off,,,,,1,0,0,,,4,,,63,64
507480,note_on,,,,,139,0,0,,,2,,,67,127
507484,note_off,,,,,4,0,0,,,2,,,68,64
507486,note_on,,,,,2,0,0,,,4,,,61,127
507489,note_off,,,,,3,0,0,,,4,,,62,64
507538,note_off,,,,,49,0,0,,,1,,,88,64
507557,note_on,,,,,19,0,0,,,1,,,81,117
507632,note_off,,,,,75,0,0,,,1,,,81,64
507632,note_on,,,,,0,0,0,,,1,,,86,117
507632,note_on,,,,,0,0,0,,,4,,,66,127
507633,note_off,,,,,1,0,0,,,2,,,67,64
507637,note_on,,,,,4,0,0,,,4,,,60,127
507639,note_off,,,,,2,0,0,,,4,,,61,64
507778,note_on,,,,,139,0,0,,,4,,,47,127
507780,note_off,,,,,2,0,0,,,4,,,66,64
507783,note_on,,,,,3,0,0,,,4,,,59,127
507785,note_off,,,,,2,0,0,,,4,,,60,64
507833,note_off,,,,,48,0,0,,,1,,,86,64
507851,note_on,,,,,18,0,0,,,1,,,82,117
507851,note_on,,,,,0,0,0,,,2,,,70,119
507923,note_on,,,,,72,0,0,,,2,,,71,117
507923,note_on,,,,,0,0,0,,,1,,,83,117
507931,note_off,,,,,8,0,0,,,2,,,70,64
507932,note_off,,,,,1,0,0,,,1,,,82,64
507996,note_off,,,,,64,0,0,,,4,,,47,64
507996,note_on,,,,,0,0,0,,,4,,,54,127
507996,note_on,,,,,0,0,0,,,4,,,42,127
508000,note_off,,,,,4,0,0,,,4,,,59,64
508068,note_on,,,,,68,0,0,,,4,,,43,127
508068,note_on,,,,,0,0,0,,,4,,,55,127
508076,note_off,,,,,8,0,0,,,4,,,42,64
508077,note_off,,,,,1,0,0,,,4,,,54,64
508123,note_off,,,,,46,0,0,,,2,,,71,64
508124,note_off,,,,,1,0,0,,,1,,,83,64
508141,note_on,,,,,17,0,0,,,1,,,78,117
508142,note_on,,,,,1,0,0,,,4,,,66,127
508213,note_on,,,,,71,0,0,,,1,,,79,117
508214,note_on,,,,,1,0,0,,,2,,,67,127
508220,note_off,,,,,6,0,0,,,4,,,66,64
508221,note_off,,,,,1,0,0,,,1,,,78,64
508286,note_on,,,,,65,0,0,,,4,,,51,127
508287,note_on,,,,,1,0,0,,,4,,,39,127
508288,note_off,,,,,1,0,0,,,4,,,55,64
508288,note_off,,,,,0,0,0,,,4,,,43,64
508358,note_on,,,,,70,0,0,,,4,,,52,127
508359,note_on,,,,,1,0,0,,,4,,,40,127
508367,note_off,,,,,8,0,0,,,4,,,39,64
508368,note_off,,,,,1,0,0,,,4,,,51,64
508416,note_off,,,,,48,0,0,,,1,,,79,64
508416,note_off,,,,,0,0,0,,,2,,,67,64
508436,note_on,,,,,20,0,0,,,4,,,57,127
508501,note_off,,,,,65,0,0,,,4,,,57,64
508502,note_off,,,,,1,0,0,,,4,,,52,64
508508,note_on,,,,,6,0,0,,,2,,,67,127
508509,note_on,,,,,1,0,0,,,4,,,49,127
508546,note_off,,,,,37,0,0,,,4,,,40,64
508654,note_on,,,,,108,0,0,,,4,,,50,127
508658,note_off,,,,,4,0,0,,,4,,,49,64
508727,note_off,,,,,69,0,0,,,2,,,67,64
508728,note_on,,,,,1,0,0,,,4,,,66,127
508801,note_on,,,,,73,0,0,,,2,,,71,117
508801,note_on,,,,,0,0,0,,,4,,,44,127
508810,note_off,,,,,9,0,0,,,4,,,66,64
508856,note_off,,,,,46,0,0,,,4,,,50,64
508946,note_on,,,,,90,0,0,,,4,,,45,127
508950,note_off,,,,,4,0,0,,,4,,,44,64
509021,note_on,,,,,71,0,0,,,4,,,64,127
509055,note_off,,,,,34,0,0,,,2,,,71,64
509086,note_off,,,,,31,0,0,,,4,,,64,64
509094,note_on,,,,,8,0,0,,,4,,,64,127
509234,note_off,,,,,140,0,0,,,4,,,64,64
509242,note_on,,,,,8,0,0,,,4,,,57,127
509242,note_on,,,,,0,0,0,,,2,,,69,119
509383,note_off,,,,,141,0,0,,,2,,,69,64
509383,note_off,,,,,0,0,0,,,4,,,57,64
509396,note_on,,,,,13,0,0,,,2,,,69,119
509401,note_on,,,,,5,0,0,,,4,,,57,127
509472,note_on,,,,,71,0,0,,,2,,,71,117
509478,note_on,,,,,6,0,0,,,4,,,59,127
509480,note_off,,,,,2,0,0,,,2,,,69,64
509485,note_off,,,,,5,0,0,,,4,,,57,64
509540,note_off,,,,,55,0,0,,,4,,,45,64
509545,note_on,,,,,5,0,0,,,2,,,73,117
509551,note_on,,,,,6,0,0,,,4,,,61,127
509552,note_on,,,,,1,0,0,,,4,,,57,127
509552,note_on,,,,,0,0,0,,,4,,,45,127
509554,note_off,,,,,2,0,0,,,2,,,71,64
509559,note_off,,,,,5,0,0,,,4,,,59,64
509619,note_on,,,,,60,0,0,,,2,,,74,117
509627,note_on,,,,,8,0,0,,,4,,,62,127
509628,note_off,,,,,1,0,0,,,2,,,73,64
509633,note_off,,,,,5,0,0,,,4,,,61,64
509694,note_off,,,,,61,0,0,,,4,,,45,64
509695,note_off,,,,,1,0,0,,,4,,,57,64
509695,note_on,,,,,0,0,0,,,2,,,76,117
509701,note_on,,,,,6,0,0,,,4,,,57,127
509701,note_on,,,,,0,0,0,,,4,,,64,127
509702,note_off,,,,,1,0,0,,,2,,,74,64
509702,note_on,,,,,0,0,0,,,4,,,45,127
509709,note_off,,,,,7,0,0,,,4,,,62,64
509776,note_on,,,,,67,0,0,,,4,,,55,127
509776,note_on,,,,,0,0,0,,,4,,,43,127
509783,note_off,,,,,7,0,0,,,4,,,57,64
509783,note_off,,,,,0,0,0,,,4,,,45,64
509837,note_off,,,,,54,0,0,,,2,,,76,64
509843,note_off,,,,,6,0,0,,,4,,,64,64
509843,note_on,,,,,0,0,0,,,2,,,74,117
509848,note_on,,,,,5,0,0,,,4,,,62,127
509848,note_on,,,,,0,0,0,,,4,,,54,127
509849,note_on,,,,,1,0,0,,,4,,,42,127
509856,note_off,,,,,7,0,0,,,4,,,43,64
509857,note_off,,,,,1,0,0,,,4,,,55,64
509923,note_on,,,,,66,0,0,,,4,,,40,127
509923,note_on,,,,,0,0,0,,,4,,,52,127
509929,note_off,,,,,6,0,0,,,4,,,42,64
509930,note_off,,,,,1,0,0,,,4,,,54,64
509978,note_off,,,,,48,0,0,,,2,,,74,64
509982,note_off,,,,,4,0,0,,,4,,,62,64
509990,note_on,,,,,8,0,0,,,2,,,74,117
509996,note_on,,,,,6,0,0,,,4,,,50,127
509996,note_on,,,,,0,0,0,,,4,,,62,127
509997,note_on,,,,,1,0,0,,,4,,,38,127
510002,note_off,,,,,5,0,0,,,4,,,40,64
510003,note_off,,,,,1,0,0,,,4,,,52,64
510064,note_on,,,,,61,0,0,,,2,,,76,117
510070,note_on,,,,,6,0,0,,,4,,,64,127
510073,note_off,,,,,3,0,0,,,2,,,74,64
510079,note_off,,,,,6,0,0,,,4,,,62,64
510139,note_off,,,,,60,0,0,,,4,,,50,64
510139,note_on,,,,,0,0,0,,,1,,,78,117
510144,note_on,,,,,5,0,0,,,4,,,50,127
510144,note_on,,,,,0,0,0,,,4,,,62,127
510144,note_on,,,,,0,0,0,,,4,,,66,127
510147,note_off,,,,,3,0,0,,,2,,,76,64
510153,note_off,,,,,6,0,0,,,4,,,64,64
510211,note_on,,,,,58,0,0,,,1,,,79,117
510216,note_on,,,,,5,0,0,,,2,,,67,127
510218,note_off,,,,,2,0,0,,,1,,,78,64
510224,note_off,,,,,6,0,0,,,4,,,66,64
510253,note_off,,,,,29,0,0,,,4,,,38,64
510284,note_off,,,,,31,0,0,,,4,,,62,64
510284,note_off,,,,,0,0,0,,,4,,,50,64
510285,note_on,,,,,1,0,0,,,1,,,81,117
510290,note_on,,,,,5,0,0,,,2,,,69,119
510291,note_on,,,,,1,0,0,,,4,,,62,127
510291,note_on,,,,,0,0,0,,,4,,,50,127
510292,note_off,,,,,1,0,0,,,1,,,79,64
510298,note_off,,,,,6,0,0,,,2,,,67,64
510363,note_on,,,,,65,0,0,,,4,,,60,127
510364,note_on,,,,,1,0,0,,,4,,,48,127
510372,note_off,,,,,8,0,0,,,4,,,50,64
510372,note_off,,,,,0,0,0,,,4,,,62,64
510427,note_off,,,,,55,0,0,,,1,,,81,64
510431,note_off,,,,,4,0,0,,,2,,,69,64
510432,note_on,,,,,1,0,0,,,1,,,86,117
510438,note_on,,,,,6,0,0,,,2,,,74,117
510439,note_on,,,,,1,0,0,,,4,,,47,127
510439,note_on,,,,,0,0,0,,,4,,,59,127
510447,note_off,,,,,8,0,0,,,4,,,48,64
510447,note_off,,,,,0,0,0,,,4,,,60,64
510513,note_on,,,,,66,0,0,,,4,,,57,127
510514,note_on,,,,,1,0,0,,,4,,,45,127
510522,note_off,,,,,8,0,0,,,4,,,59,64
510522,note_off,,,,,0,0,0,,,4,,,47,64
510571,note_off,,,,,49,0,0,,,1,,,86,64
510576,note_off,,,,,5,0,0,,,2,,,74,64
510583,note_on,,,,,7,0,0,,,1,,,86,117
510590,note_on,,,,,7,0,0,,,4,,,55,127
510590,note_on,,,,,0,0,0,,,2,,,74,117
510591,note_on,,,,,1,0,0,,,4,,,43,127
510597,note_off,,,,,6,0,0,,,4,,,45,64
510597,note_off,,,,,0,0,0,,,4,,,57,64
510659,note_on,,,,,62,0,0,,,1,,,84,117
510665,note_on,,,,,6,0,0,,,2,,,72,117
510667,note_off,,,,,2,0,0,,,1,,,86,64
510672,note_off,,,,,5,0,0,,,2,,,74,64
510732,note_on,,,,,60,0,0,,,1,,,83,117
510738,note_on,,,,,6,0,0,,,2,,,71,117
510740,note_off,,,,,2,0,0,,,1,,,84,64
510745,note_off,,,,,5,0,0,,,2,,,72,64
510793,note_off,,,,,48,0,0,,,4,,,43,64
510794,note_off,,,,,1,0,0,,,4,,,55,64
510806,note_on,,,,,12,0,0,,,1,,,81,117
510812,note_on,,,,,6,0,0,,,2,,,69,119
510812,note_on,,,,,0,0,0,,,4,,,54,127
510813,note_off,,,,,1,0,0,,,1,,,83,64
510813,note_on,,,,,0,0,0,,,4,,,42,127
510819,note_off,,,,,6,0,0,,,2,,,71,64
510879,note_on,,,,,60,0,0,,,1,,,79,117
510885,note_on,,,,,6,0,0,,,4,,,55,127
510885,note_on,,,,,0,0,0,,,2,,,67,127
510886,note_on,,,,,1,0,0,,,4,,,43,127
510888,note_off,,,,,2,0,0,,,1,,,81,64
510892,note_off,,,,,4,0,0,,,4,,,42,64
510893,note_off,,,,,1,0,0,,,4,,,54,64
510893,note_off,,,,,0,0,0,,,2,,,69,64
510959,note_on,,,,,66,0,0,,,4,,,40,127
510959,note_on,,,,,0,0,0,,,4,,,52,127
510967,note_off,,,,,8,0,0,,,4,,,43,64
510968,note_off,,,,,1,0,0,,,4,,,55,64
511033,note_on,,,,,65,0,0,,,4,,,57,127
511034,note_on,,,,,1,0,0,,,4,,,45,127
511040,note_off,,,,,6,0,0,,,4,,,40,64
511041,note_off,,,,,1,0,0,,,4,,,52,64
511084,note_off,,,,,43,0,0,,,1,,,79,64
511089,note_off,,,,,5,0,0,,,2,,,67,64
511101,note_on,,,,,12,0,0,,,1,,,78,117
511106,note_on,,,,,5,0,0,,,4,,,66,127
511176,note_on,,,,,70,0,0,,,1,,,79,117
511181,note_on,,,,,5,0,0,,,2,,,67,127
511183,note_off,,,,,2,0,0,,,1,,,78,64
511189,note_off,,,,,6,0,0,,,4,,,66,64
511237,note_off,,,,,48,0,0,,,4,,,57,64
511237,note_off,,,,,0,0,0,,,4,,,45,64
511251,note_on,,,,,14,0,0,,,2,,,76,117
511255,note_on,,,,,4,0,0,,,4,,,64,127
511256,note_on,,,,,1,0,0,,,4,,,55,127
511258,note_off,,,,,2,0,0,,,1,,,79,64
511264,note_off,,,,,6,0,0,,,2,,,67,64
511332,note_on,,,,,68,0,0,,,4,,,54,127
511337,note_off,,,,,5,0,0,,,4,,,55,64
511394,note_off,,,,,57,0,0,,,2,,,76,64
511399,note_off,,,,,5,0,0,,,4,,,64,64
511400,note_on,,,,,1,0,0,,,1,,,81,117
511401,note_on,,,,,1,0,0,,,1,,,78,117
511482,note_on,,,,,81,0,0,,,4,,,59,127
511545,note_off,,,,,63,0,0,,,1,,,78,64
511546,note_off,,,,,1,0,0,,,1,,,81,64
511552,note_on,,,,,6,0,0,,,2,,,75,117
511552,note_on,,,,,0,0,0,,,1,,,78,117
511632,note_off,,,,,80,0,0,,,4,,,54,64
511632,note_on,,,,,0,0,0,,,4,,,52,127
511696,note_off,,,,,64,0,0,,,2,,,75,64
511697,note_off,,,,,1,0,0,,,1,,,78,64
511703,note_on,,,,,6,0,0,,,1,,,79,117
511703,note_on,,,,,0,0,0,,,2,,,76,117
511786,note_off,,,,,83,0,0,,,4,,,59,64
511787,note_on,,,,,1,0,0,,,4,,,57,127
511848,note_off,,,,,61,0,0,,,2,,,76,64
511849,note_off,,,,,1,0,0,,,1,,,79,64
511855,note_on,,,,,6,0,0,,,2,,,76,117
511856,note_on,,,,,1,0,0,,,2,,,73,117
511935,note_off,,,,,79,0,0,,,4,,,52,64
511936,note_on,,,,,1,0,0,,,4,,,50,127
512005,note_on,,,,,69,0,0,,,2,,,74,117
512011,note_off,,,,,6,0,0,,,2,,,76,64
512013,note_off,,,,,2,0,0,,,2,,,73,64
512082,note_on,,,,,69,0,0,,,4,,,62,127
512089,note_off,,,,,7,0,0,,,4,,,57,64
512153,note_off,,,,,64,0,0,,,2,,,74,64
512236,note_on,,,,,83,0,0,,,1,,,81,117
512382,note_off,,,,,146,0,0,,,1,,,81,64
512388,note_on,,,,,6,0,0,,,1,,,81,117
512464,note_off,,,,,76,0,0,,,1,,,81,64
512465,note_on,,,,,1,0,0,,,1,,,83,117
512534,note_off,,,,,69,0,0,,,1,,,83,64
512535,note_off,,,,,1,0,0,,,4,,,62,64
512535,note_on,,,,,0,0,0,,,1,,,84,117
512536,note_on,,,,,1,0,0,,,2,,,69,119
512540,note_on,,,,,4,0,0,,,4,,,63,127
512609,note_off,,,,,69,0,0,,,1,,,84,64
512610,note_on,,,,,1,0,0,,,1,,,83,117
512681,note_off,,,,,71,0,0,,,1,,,83,64
512682,note_off,,,,,1,0,0,,,2,,,69,64
512682,note_on,,,,,0,0,0,,,1,,,88,119
512683,note_on,,,,,1,0,0,,,2,,,68,121
512687,note_off,,,,,4,0,0,,,4,,,63,64
512688,note_on,,,,,1,0,0,,,4,,,62,127
512828,note_off,,,,,140,0,0,,,2,,,68,64
512829,note_on,,,,,1,0,0,,,2,,,67,127
512835,note_off,,,,,6,0,0,,,4,,,62,64
512835,note_on,,,,,0,0,0,,,4,,,61,127
512886,note_off,,,,,51,0,0,,,1,,,88,64
512904,note_on,,,,,18,0,0,,,1,,,81,117
512973,note_off,,,,,69,0,0,,,1,,,81,64
512977,note_off,,,,,4,0,0,,,2,,,67,64
512977,note_on,,,,,0,0,0,,,1,,,86,117
512978,note_on,,,,,1,0,0,,,4,,,66,127
512984,note_off,,,,,6,0,0,,,4,,,61,64
512984,note_on,,,,,0,0,0,,,4,,,60,127
513060,note_off,,,,,76,0,0,,,4,,,50,64
513129,note_off,,,,,69,0,0,,,4,,,66,64
513129,note_on,,,,,0,0,0,,,4,,,47,127
513133,note_off,,,,,4,0,0,,,4,,,60,64
513134,note_on,,,,,1,0,0,,,4,,,59,127
513185,note_off,,,,,51,0,0,,,1,,,86,64
513203,note_on,,,,,18,0,0,,,1,,,82,117
513203,note_on,,,,,0,0,0,,,2,,,70,119
513275,note_on,,,,,72,0,0,,,2,,,71,117
513275,note_on,,,,,0,0,0,,,1,,,83,117
513283,note_off,,,,,8,0,0,,,2,,,70,64
513284,note_off,,,,,1,0,0,,,1,,,82,64
513346,note_off,,,,,62,0,0,,,4,,,47,64
513351,note_on,,,,,5,0,0,,,4,,,54,127
513352,note_off,,,,,1,0,0,,,4,,,59,64
513352,note_on,,,,,0,0,0,,,4,,,42,127
513425,note_on,,,,,73,0,0,,,4,,,55,127
513426,note_on,,,,,1,0,0,,,4,,,43,127
513432,note_off,,,,,6,0,0,,,4,,,54,64
513432,note_off,,,,,0,0,0,,,4,,,42,64
513480,note_off,,,,,48,0,0,,,1,,,83,64
513480,note_off,,,,,0,0,0,,,2,,,71,64
513499,note_on,,,,,19,0,0,,,1,,,78,117
513500,note_on,,,,,1,0,0,,,4,,,66,127
513571,note_on,,,,,71,0,0,,,1,,,79,117
513572,note_on,,,,,1,0,0,,,2,,,67,127
513580,note_off,,,,,8,0,0,,,4,,,66,64
513580,note_off,,,,,0,0,0,,,1,,,78,64
513640,note_off,,,,,60,0,0,,,4,,,43,64
513645,note_off,,,,,5,0,0,,,4,,,55,64
513645,note_on,,,,,0,0,0,,,4,,,51,127
513646,note_on,,,,,1,0,0,,,4,,,39,127
513720,note_on,,,,,74,0,0,,,4,,,40,127
513720,note_on,,,,,0,0,0,,,4,,,52,127
513727,note_off,,,,,7,0,0,,,4,,,39,64
513727,note_off,,,,,0,0,0,,,4,,,51,64
513793,note_on,,,,,66,0,0,,,4,,,57,127
513860,note_off,,,,,67,0,0,,,4,,,40,64
513861,note_off,,,,,1,0,0,,,4,,,52,64
513861,note_off,,,,,0,0,0,,,2,,,67,64
513862,note_off,,,,,1,0,0,,,1,,,79,64
513866,note_off,,,,,4,0,0,,,4,,,57,64
513866,note_on,,,,,0,0,0,,,2,,,67,127
513867,note_on,,,,,1,0,0,,,4,,,49,127
513867,note_on,,,,,0,0,0,,,4,,,37,127
514016,note_on,,,,,149,0,0,,,4,,,50,127
514020,note_off,,,,,4,0,0,,,4,,,37,64
514020,note_off,,,,,0,0,0,,,4,,,49,64
514092,note_on,,,,,72,0,0,,,4,,,66,127
514093,note_off,,,,,1,0,0,,,2,,,67,64
514161,note_off,,,,,68,0,0,,,4,,,66,64
514166,note_on,,,,,5,0,0,,,2,,,71,117
514167,note_off,,,,,1,0,0,,,4,,,50,64
514167,note_on,,,,,0,0,0,,,4,,,44,127
514314,note_on,,,,,147,0,0,,,4,,,45,127
514317,note_off,,,,,3,0,0,,,4,,,44,64
514370,note_off,,,,,53,0,0,,,2,,,71,64
514388,note_on,,,,,18,0,0,,,4,,,64,127
514456,note_off,,,,,68,0,0,,,4,,,64,64
514462,note_on,,,,,6,0,0,,,4,,,64,127
514605,note_off,,,,,143,0,0,,,4,,,64,64
514610,note_on,,,,,5,0,0,,,2,,,69,119
514611,note_on,,,,,1,0,0,,,4,,,57,127
514746,note_off,,,,,135,0,0,,,4,,,57,64
514746,note_off,,,,,0,0,0,,,2,,,69,64
514760,note_on,,,,,14,0,0,,,2,,,69,119
514761,note_on,,,,,1,0,0,,,4,,,57,127
514833,note_off,,,,,72,0,0,,,2,,,69,64
514834,note_on,,,,,1,0,0,,,2,,,71,117
514840,note_on,,,,,6,0,0,,,4,,,59,127
514842,note_off,,,,,2,0,0,,,4,,,57,64
514900,note_off,,,,,58,0,0,,,4,,,45,64
514906,note_on,,,,,6,0,0,,,2,,,73,117
514907,note_on,,,,,1,0,0,,,4,,,57,127
514908,note_off,,,,,1,0,0,,,2,,,71,64
514909,note_on,,,,,1,0,0,,,4,,,45,127
514913,note_off,,,,,4,0,0,,,4,,,59,64
514913,note_on,,,,,0,0,0,,,4,,,61,127
514979,note_off,,,,,66,0,0,,,2,,,73,64
514984,note_on,,,,,5,0,0,,,2,,,74,117
514985,note_off,,,,,1,0,0,,,4,,,61,64
514990,note_on,,,,,5,0,0,,,4,,,62,127
515048,note_off,,,,,58,0,0,,,4,,,57,64
515049,note_off,,,,,1,0,0,,,4,,,45,64
515056,note_off,,,,,7,0,0,,,2,,,74,64
515056,note_on,,,,,0,0,0,,,2,,,76,117
515056,note_on,,,,,0,0,0,,,4,,,57,127
515057,note_on,,,,,1,0,0,,,4,,,45,127
515061,note_on,,,,,4,0,0,,,4,,,64,127
515062,note_off,,,,,1,0,0,,,4,,,62,64
515135,note_on,,,,,73,0,0,,,4,,,55,127
515135,note_on,,,,,0,0,0,,,4,,,43,127
515139,note_off,,,,,4,0,0,,,4,,,45,64
515140,note_off,,,,,1,0,0,,,4,,,57,64
515200,note_off,,,,,60,0,0,,,2,,,76,64
515204,note_off,,,,,4,0,0,,,4,,,64,64
515204,note_on,,,,,0,0,0,,,2,,,74,117
515208,note_on,,,,,4,0,0,,,4,,,42,127
515208,note_on,,,,,0,0,0,,,4,,,54,127
515208,note_on,,,,,0,0,0,,,4,,,62,127
515217,note_off,,,,,9,0,0,,,4,,,43,64
515218,note_off,,,,,1,0,0,,,4,,,55,64
515283,note_on,,,,,65,0,0,,,4,,,52,127
515284,note_on,,,,,1,0,0,,,4,,,40,127
515292,note_off,,,,,8,0,0,,,4,,,54,64
515292,note_off,,,,,0,0,0,,,4,,,42,64
515341,note_off,,,,,49,0,0,,,2,,,74,64
515347,note_off,,,,,6,0,0,,,4,,,62,64
515352,note_on,,,,,5,0,0,,,2,,,74,117
515358,note_on,,,,,6,0,0,,,4,,,62,127
515359,note_on,,,,,1,0,0,,,4,,,50,127
515359,note_on,,,,,0,0,0,,,4,,,38,127
515367,note_off,,,,,8,0,0,,,4,,,40,64
515367,note_off,,,,,0,0,0,,,4,,,52,64
515429,note_on,,,,,62,0,0,,,2,,,76,117
515436,note_on,,,,,7,0,0,,,4,,,64,127
515438,note_off,,,,,2,0,0,,,2,,,74,64
515444,note_off,,,,,6,0,0,,,4,,,62,64
515503,note_off,,,,,59,0,0,,,4,,,38,64
515504,note_off,,,,,1,0,0,,,4,,,50,64
515504,note_on,,,,,0,0,0,,,1,,,78,117
515508,note_on,,,,,4,0,0,,,4,,,66,127
515509,note_on,,,,,1,0,0,,,4,,,50,127
515509,note_on,,,,,0,0,0,,,4,,,62,127
515512,note_off,,,,,3,0,0,,,2,,,76,64
515518,note_off,,,,,6,0,0,,,4,,,64,64
515579,note_on,,,,,61,0,0,,,1,,,79,117
515585,note_on,,,,,6,0,0,,,2,,,67,127
515587,note_off,,,,,2,0,0,,,1,,,78,64
515592,note_off,,,,,5,0,0,,,4,,,66,64
515650,note_off,,,,,58,0,0,,,4,,,50,64
515651,note_off,,,,,1,0,0,,,4,,,62,64
515651,note_on,,,,,0,0,0,,,1,,,81,117
515655,note_on,,,,,4,0,0,,,2,,,69,119
515655,note_on,,,,,0,0,0,,,4,,,62,127
515656,note_on,,,,,1,0,0,,,4,,,50,127
515658,note_off,,,,,2,0,0,,,1,,,79,64
515664,note_off,,,,,6,0,0,,,2,,,67,64
515729,note_on,,,,,65,0,0,,,4,,,48,127
515729,note_on,,,,,0,0,0,,,4,,,60,127
515732,note_off,,,,,3,0,0,,,1,,,81,64
515736,note_off,,,,,4,0,0,,,4,,,50,64
515736,note_off,,,,,0,0,0,,,4,,,62,64
515796,note_off,,,,,60,0,0,,,2,,,69,64
515796,note_on,,,,,0,0,0,,,1,,,86,117
515797,note_on,,,,,1,0,0,,,2,,,74,117
515801,note_on,,,,,4,0,0,,,4,,,59,127
515801,note_on,,,,,0,0,0,,,4,,,47,127
515809,note_off,,,,,8,0,0,,,4,,,48,64
515810,note_off,,,,,1,0,0,,,4,,,60,64
515876,note_on,,,,,66,0,0,,,4,,,57,127
515876,note_on,,,,,0,0,0,,,4,,,45,127
515884,note_off,,,,,8,0,0,,,4,,,47,64
515885,note_off,,,,,1,0,0,,,4,,,59,64
515931,note_off,,,,,46,0,0,,,2,,,74,64
515932,note_off,,,,,1,0,0,,,1,,,86,64
515944,note_on,,,,,12,0,0,,,1,,,86,117
515950,note_on,,,,,6,0,0,,,4,,,55,127
515950,note_on,,,,,0,0,0,,,2,,,74,117
515951,note_on,,,,,1,0,0,,,4,,,43,127
515958,note_off,,,,,7,0,0,,,4,,,45,64
515959,note_off,,,,,1,0,0,,,4,,,57,64
516019,note_on,,,,,60,0,0,,,1,,,84,117
516024,note_on,,,,,5,0,0,,,2,,,72,117
516026,note_off,,,,,2,0,0,,,1,,,86,64
516032,note_off,,,,,6,0,0,,,2,,,74,64
516094,note_on,,,,,62,0,0,,,1,,,83,117
516100,note_on,,,,,6,0,0,,,2,,,71,117
516103,note_off,,,,,3,0,0,,,1,,,84,64
516107,note_off,,,,,4,0,0,,,2,,,72,64
516156,note_off,,,,,49,0,0,,,4,,,55,64
516156,note_off,,,,,0,0,0,,,4,,,43,64
516168,note_on,,,,,12,0,0,,,1,,,81,117
516174,note_on,,,,,6,0,0,,,4,,,54,127
516174,note_on,,,,,0,0,0,,,2,,,69,119
516175,note_off,,,,,1,0,0,,,1,,,83,64
516175,note_on,,,,,0,0,0,,,4,,,42,127
516181,note_off,,,,,6,0,0,,,2,,,71,64
516240,note_on,,,,,59,0,0,,,1,,,79,117
516246,note_on,,,,,6,0,0,,,2,,,67,127
516247,note_on,,,,,1,0,0,,,4,,,55,127
516247,note_on,,,,,0,0,0,,,4,,,43,127
516248,note_off,,,,,1,0,0,,,1,,,81,64
516254,note_off,,,,,6,0,0,,,4,,,42,64
516254,note_off,,,,,0,0,0,,,4,,,54,64
516255,note_off,,,,,1,0,0,,,2,,,69,64
516320,note_on,,,,,65,0,0,,,4,,,52,127
516321,note_on,,,,,1,0,0,,,4,,,40,127
516327,note_off,,,,,6,0,0,,,4,,,43,64
516327,note_off,,,,,0,0,0,,,4,,,55,64
516394,note_on,,,,,67,0,0,,,4,,,45,127
516394,note_on,,,,,0,0,0,,,4,,,57,127
516402,note_off,,,,,8,0,0,,,4,,,40,64
516402,note_off,,,,,0,0,0,,,4,,,52,64
516444,note_off,,,,,42,0,0,,,1,,,79,64
516449,note_off,,,,,5,0,0,,,2,,,67,64
516462,note_on,,,,,13,0,0,,,1,,,78,117
516468,note_on,,,,,6,0,0,,,4,,,66,127
516536,note_on,,,,,68,0,0,,,1,,,79,117
516541,note_on,,,,,5,0,0,,,2,,,67,127
516543,note_off,,,,,2,0,0,,,1,,,78,64
516549,note_off,,,,,6,0,0,,,4,,,66,64
516597,note_off,,,,,48,0,0,,,4,,,57,64
516597,note_off,,,,,0,0,0,,,4,,,45,64
516610,note_on,,,,,13,0,0,,,2,,,76,117
516615,note_on,,,,,5,0,0,,,4,,,64,127
516616,note_on,,,,,1,0,0,,,4,,,55,127
516618,note_off,,,,,2,0,0,,,1,,,79,64
516624,note_off,,,,,6,0,0,,,2,,,67,64
516689,note_on,,,,,65,0,0,,,4,,,54,127
516691,note_off,,,,,2,0,0,,,4,,,55,64
516756,note_off,,,,,65,0,0,,,4,,,64,64
516757,note_on,,,,,1,0,0,,,1,,,81,117
516757,note_on,,,,,0,0,0,,,1,,,78,117
516760,note_off,,,,,3,0,0,,,2,,,76,64
516837,note_on,,,,,77,0,0,,,4,,,59,127
516899,note_off,,,,,62,0,0,,,1,,,78,64
516899,note_off,,,,,0,0,0,,,1,,,81,64
516905,note_on,,,,,6,0,0,,,1,,,78,117
516906,note_on,,,,,1,0,0,,,2,,,75,117
516985,note_off,,,,,79,0,0,,,4,,,54,64
516985,note_on,,,,,0,0,0,,,4,,,52,127
517047,note_off,,,,,62,0,0,,,1,,,78,64
517047,note_off,,,,,0,0,0,,,2,,,75,64
517054,note_on,,,,,7,0,0,,,1,,,79,117
517055,note_on,,,,,1,0,0,,,2,,,76,117
517132,note_off,,,,,77,0,0,,,4,,,59,64
517132,note_on,,,,,0,0,0,,,4,,,57,127
517194,note_off,,,,,62,0,0,,,2,,,76,64
517195,note_off,,,,,1,0,0,,,1,,,79,64
517201,note_on,,,,,6,0,0,,,2,,,76,117
517207,note_on,,,,,6,0,0,,,2,,,73,117
517280,note_off,,,,,73,0,0,,,4,,,52,64
517280,note_on,,,,,0,0,0,,,4,,,50,127
517350,note_on,,,,,70,0,0,,,2,,,74,117
517359,note_off,,,,,9,0,0,,,2,,,76,64
517371,note_off,,,,,12,0,0,,,2,,,73,64
517414,note_off,,,,,43,0,0,,,4,,,57,64
517446,note_on,,,,,32,0,0,,,4,,,62,127
517513,note_off,,,,,67,0,0,,,4,,,50,64
517557,note_off,,,,,44,0,0,,,2,,,74,64
517888,note_off,,,,,331,0,0,,,4,,,62,64
517993,note_on,,,,,105,0,0,,,2,,,69,113
518031,note_on,,,,,38,0,0,,,1,,,81,104
518068,note_off,,,,,37,0,0,,,2,,,69,64
518070,note_on,,,,,2,0,0,,,2,,,69,113
518106,note_off,,,,,36,0,0,,,1,,,81,64
518108,note_on,,,,,2,0,0,,,1,,,81,104
518145,note_off,,,,,37,0,0,,,2,,,69,64
518147,note_on,,,,,2,0,0,,,2,,,69,113
518184,note_off,,,,,37,0,0,,,1,,,81,64
518184,note_on,,,,,0,0,0,,,1,,,81,104
518222,note_off,,,,,38,0,0,,,2,,,69,64
518223,note_on,,,,,1,0,0,,,2,,,69,113
518261,note_off,,,,,38,0,0,,,1,,,81,64
518263,note_on,,,,,2,0,0,,,1,,,81,104
518299,note_off,,,,,36,0,0,,,2,,,69,64
518301,note_on,,,,,2,0,0,,,2,,,69,113
518302,note_on,,,,,1,0,0,,,4,,,54,127
518302,note_on,,,,,0,0,0,,,4,,,57,127
518337,note_off,,,,,35,0,0,,,1,,,81,64
518339,note_on,,,,,2,0,0,,,1,,,81,104
518375,note_off,,,,,36,0,0,,,2,,,69,64
518377,note_on,,,,,2,0,0,,,2,,,69,113
518413,note_off,,,,,36,0,0,,,1,,,81,64
518416,note_on,,,,,3,0,0,,,1,,,81,104
518452,note_off,,,,,36,0,0,,,2,,,69,64
518454,note_on,,,,,2,0,0,,,2,,,69,113
518490,note_off,,,,,36,0,0,,,1,,,81,64
518492,note_on,,,,,2,0,0,,,1,,,81,104
518527,note_off,,,,,35,0,0,,,2,,,69,64
518529,note_on,,,,,2,0,0,,,2,,,69,113
518565,note_off,,,,,36,0,0,,,1,,,81,64
518567,note_on,,,,,2,0,0,,,1,,,81,104
518598,note_off,,,,,31,0,0,,,4,,,57,64
518602,note_off,,,,,4,0,0,,,2,,,69,64
518604,note_off,,,,,2,0,0,,,4,,,54,64
518604,note_on,,,,,0,0,0,,,4,,,62,127
518604,note_on,,,,,0,0,0,,,2,,,69,113
518605,note_on,,,,,1,0,0,,,4,,,57,127
518640,note_off,,,,,35,0,0,,,1,,,81,64
518640,note_on,,,,,0,0,0,,,1,,,81,104
518676,note_off,,,,,36,0,0,,,2,,,69,64
518679,note_on,,,,,3,0,0,,,2,,,69,113
518715,note_off,,,,,36,0,0,,,1,,,81,64
518716,note_on,,,,,1,0,0,,,1,,,81,104
518748,note_off,,,,,32,0,0,,,4,,,62,64
518748,note_off,,,,,0,0,0,,,4,,,57,64
518752,note_off,,,,,4,0,0,,,2,,,69,64
518753,note_on,,,,,1,0,0,,,4,,,66,127
518753,note_on,,,,,0,0,0,,,2,,,69,113
518754,note_on,,,,,1,0,0,,,4,,,62,127
518789,note_off,,,,,35,0,0,,,1,,,81,64
518791,note_on,,,,,2,0,0,,,1,,,81,104
518825,note_off,,,,,34,0,0,,,2,,,69,64
518828,note_on,,,,,3,0,0,,,2,,,69,113
518864,note_off,,,,,36,0,0,,,1,,,81,64
518866,note_on,,,,,2,0,0,,,1,,,81,104
518898,note_off,,,,,32,0,0,,,4,,,62,64
518899,note_off,,,,,1,0,0,,,4,,,66,64
518903,note_off,,,,,4,0,0,,,2,,,69,64
518904,note_on,,,,,1,0,0,,,4,,,64,127
518904,note_on,,,,,0,0,0,,,2,,,69,113
518905,note_on,,,,,1,0,0,,,4,,,61,127
518940,note_off,,,,,35,0,0,,,1,,,81,64
518941,note_on,,,,,1,0,0,,,1,,,81,104
518978,note_off,,,,,37,0,0,,,2,,,69,64
518979,note_on,,,,,1,0,0,,,2,,,69,113
519014,note_off,,,,,35,0,0,,,1,,,81,64
519016,note_on,,,,,2,0,0,,,1,,,81,104
519053,note_off,,,,,37,0,0,,,2,,,69,64
519055,note_on,,,,,2,0,0,,,2,,,69,113
519091,note_off,,,,,36,0,0,,,1,,,81,64
519092,note_on,,,,,1,0,0,,,1,,,81,104
519128,note_off,,,,,36,0,0,,,2,,,69,64
519130,note_off,,,,,2,0,0,,,4,,,61,64
519131,note_off,,,,,1,0,0,,,4,,,64,64
519131,note_on,,,,,0,0,0,,,2,,,69,113
519132,note_on,,,,,1,0,0,,,4,,,66,127
519132,note_on,,,,,0,0,0,,,4,,,62,127
519167,note_off,,,,,35,0,0,,,1,,,81,64
519168,note_on,,,,,1,0,0,,,1,,,81,104
519199,note_off,,,,,31,0,0,,,4,,,62,64
519200,note_off,,,,,1,0,0,,,4,,,66,64
519204,note_off,,,,,4,0,0,,,2,,,69,64
519206,note_on,,,,,2,0,0,,,2,,,69,113
519206,note_on,,,,,0,0,0,,,2,,,67,123
519207,note_on,,,,,1,0,0,,,4,,,64,127
519241,note_off,,,,,34,0,0,,,1,,,81,64
519243,note_on,,,,,2,0,0,,,1,,,81,104
519279,note_off,,,,,36,0,0,,,2,,,69,64
519280,note_on,,,,,1,0,0,,,2,,,69,113
519316,note_off,,,,,36,0,0,,,1,,,81,64
519318,note_on,,,,,2,0,0,,,1,,,81,104
519351,note_off,,,,,33,0,0,,,4,,,64,64
519351,note_off,,,,,0,0,0,,,2,,,67,64
519355,note_off,,,,,4,0,0,,,2,,,69,64
519356,note_on,,,,,1,0,0,,,2,,,69,113
519357,note_on,,,,,1,0,0,,,4,,,64,127
519357,note_on,,,,,0,0,0,,,2,,,67,123
519392,note_off,,,,,35,0,0,,,1,,,81,64
519394,note_on,,,,,2,0,0,,,1,,,81,104
519431,note_off,,,,,37,0,0,,,2,,,69,64
519432,note_on,,,,,1,0,0,,,2,,,69,113
519469,note_off,,,,,37,0,0,,,1,,,81,64
519471,note_on,,,,,2,0,0,,,1,,,81,104
519502,note_off,,,,,31,0,0,,,2,,,67,64
519502,note_off,,,,,0,0,0,,,4,,,64,64
519506,note_off,,,,,4,0,0,,,2,,,69,64
519508,note_on,,,,,2,0,0,,,2,,,69,113
519509,note_on,,,,,1,0,0,,,4,,,62,127
519509,note_on,,,,,0,0,0,,,4,,,66,127
519544,note_off,,,,,35,0,0,,,1,,,81,64
519546,note_on,,,,,2,0,0,,,1,,,81,104
519580,note_off,,,,,34,0,0,,,2,,,69,64
519582,note_on,,,,,2,0,0,,,2,,,69,113
519619,note_off,,,,,37,0,0,,,1,,,81,64
519621,note_on,,,,,2,0,0,,,1,,,81,104
519655,note_off,,,,,34,0,0,,,2,,,69,64
519659,note_on,,,,,4,0,0,,,2,,,70,113
519694,note_off,,,,,35,0,0,,,1,,,81,64
519696,note_on,,,,,2,0,0,,,1,,,82,104
519732,note_off,,,,,36,0,0,,,2,,,70,64
519734,note_on,,,,,2,0,0,,,2,,,70,113
519770,note_off,,,,,36,0,0,,,1,,,82,64
519771,note_on,,,,,1,0,0,,,1,,,82,104
519806,note_off,,,,,35,0,0,,,2,,,70,64
519808,note_off,,,,,2,0,0,,,4,,,66,64
519808,note_off,,,,,0,0,0,,,4,,,62,64
519809,note_on,,,,,1,0,0,,,2,,,67,123
519809,note_on,,,,,0,0,0,,,2,,,71,111
519810,note_on,,,,,1,0,0,,,4,,,55,127
519844,note_off,,,,,34,0,0,,,1,,,82,64
519846,note_on,,,,,2,0,0,,,1,,,83,104
519883,note_off,,,,,37,0,0,,,2,,,71,64
519883,note_on,,,,,0,0,0,,,2,,,71,111
519919,note_off,,,,,36,0,0,,,1,,,83,64
519921,note_on,,,,,2,0,0,,,1,,,83,104
519960,note_off,,,,,39,0,0,,,2,,,71,64
519965,note_on,,,,,5,0,0,,,2,,,76,107
519996,note_off,,,,,31,0,0,,,1,,,83,64
519996,note_on,,,,,0,0,0,,,1,,,88,106
520038,note_off,,,,,42,0,0,,,2,,,76,64
520040,note_on,,,,,2,0,0,,,2,,,76,107
520071,note_off,,,,,31,0,0,,,1,,,88,64
520073,note_on,,,,,2,0,0,,,1,,,88,106
520112,note_off,,,,,39,0,0,,,4,,,55,64
520113,note_off,,,,,1,0,0,,,2,,,67,64
520113,note_on,,,,,0,0,0,,,1,,,86,104
520114,note_on,,,,,1,0,0,,,2,,,74,107
520114,note_on,,,,,0,0,0,,,4,,,66,127
520115,note_off,,,,,1,0,0,,,2,,,76,64
520115,note_on,,,,,0,0,0,,,4,,,57,127
520117,note_off,,,,,2,0,0,,,1,,,88,64
520270,note_on,,,,,153,0,0,,,4,,,64,127
520270,note_on,,,,,0,0,0,,,1,,,85,104
520274,note_off,,,,,4,0,0,,,1,,,86,64
520275,note_off,,,,,1,0,0,,,4,,,57,64
520275,note_off,,,,,0,0,0,,,4,,,66,64
520276,note_off,,,,,1,0,0,,,2,,,74,64
520276,note_on,,,,,0,0,0,,,2,,,73,107
520422,note_on,,,,,146,0,0,,,4,,,57,127
520426,note_off,,,,,4,0,0,,,4,,,64,64
520427,note_off,,,,,1,0,0,,,1,,,85,64
520431,note_off,,,,,4,0,0,,,2,,,73,64
520460,note_on,,,,,29,0,0,,,2,,,69,113
520492,note_off,,,,,32,0,0,,,4,,,57,64
520498,note_on,,,,,6,0,0,,,4,,,57,127
520529,note_off,,,,,31,0,0,,,2,,,69,64
520535,note_on,,,,,6,0,0,,,2,,,69,113
520567,note_off,,,,,32,0,0,,,4,,,57,64
520573,note_on,,,,,6,0,0,,,2,,,76,107
520573,note_on,,,,,0,0,0,,,2,,,73,107
520574,note_on,,,,,1,0,0,,,4,,,55,127
520605,note_off,,,,,31,0,0,,,2,,,69,64
520610,note_on,,,,,5,0,0,,,2,,,67,123
520643,note_off,,,,,33,0,0,,,4,,,55,64
520655,note_on,,,,,12,0,0,,,4,,,55,127
520684,note_off,,,,,29,0,0,,,2,,,67,64
520693,note_on,,,,,9,0,0,,,2,,,67,123
520728,note_off,,,,,35,0,0,,,4,,,55,64
520729,note_off,,,,,1,0,0,,,2,,,73,64
520730,note_off,,,,,1,0,0,,,2,,,76,64
520733,note_on,,,,,3,0,0,,,4,,,54,127
520733,note_on,,,,,0,0,0,,,2,,,69,113
520766,note_off,,,,,33,0,0,,,2,,,67,64
520772,note_on,,,,,6,0,0,,,4,,,66,127
520805,note_off,,,,,33,0,0,,,4,,,54,64
520810,note_on,,,,,5,0,0,,,1,,,81,104
520811,note_on,,,,,1,0,0,,,4,,,54,127
520844,note_off,,,,,33,0,0,,,4,,,66,64
520850,note_on,,,,,6,0,0,,,4,,,66,127
520883,note_off,,,,,33,0,0,,,4,,,54,64
520890,note_on,,,,,7,0,0,,,2,,,73,107
520891,note_off,,,,,1,0,0,,,2,,,69,64
520891,note_on,,,,,0,0,0,,,4,,,52,127
520921,note_off,,,,,30,0,0,,,4,,,66,64
520927,note_on,,,,,6,0,0,,,4,,,64,127
520958,note_off,,,,,31,0,0,,,4,,,52,64
520964,note_on,,,,,6,0,0,,,1,,,79,104
520965,note_on,,,,,1,0,0,,,4,,,52,127
520967,note_off,,,,,2,0,0,,,1,,,81,64
520996,note_off,,,,,29,0,0,,,4,,,64,64
521003,note_on,,,,,7,0,0,,,4,,,64,127
521036,note_off,,,,,33,0,0,,,4,,,52,64
521042,note_on,,,,,6,0,0,,,2,,,74,107
521042,note_on,,,,,0,0,0,,,4,,,50,127
521044,note_off,,,,,2,0,0,,,2,,,73,64
521076,note_off,,,,,32,0,0,,,4,,,64,64
521081,note_on,,,,,5,0,0,,,4,,,62,127
521115,note_off,,,,,34,0,0,,,4,,,50,64
521122,note_on,,,,,7,0,0,,,1,,,78,104
521122,note_on,,,,,0,0,0,,,4,,,50,127
521124,note_off,,,,,2,0,0,,,1,,,79,64
521155,note_off,,,,,31,0,0,,,4,,,62,64
521161,note_on,,,,,6,0,0,,,4,,,62,127
521192,note_off,,,,,31,0,0,,,4,,,50,64
521197,note_on,,,,,5,0,0,,,2,,,70,113
521198,note_on,,,,,1,0,0,,,4,,,49,127
521200,note_off,,,,,2,0,0,,,2,,,74,64
521229,note_off,,,,,29,0,0,,,4,,,62,64
521235,note_on,,,,,6,0,0,,,4,,,61,127
521268,note_off,,,,,33,0,0,,,4,,,49,64
521273,note_on,,,,,5,0,0,,,2,,,76,107
521274,note_on,,,,,1,0,0,,,4,,,49,127
521276,note_off,,,,,2,0,0,,,1,,,78,64
521307,note_off,,,,,31,0,0,,,4,,,61,64
521313,note_on,,,,,6,0,0,,,4,,,61,127
521347,note_off,,,,,34,0,0,,,4,,,49,64
521353,note_on,,,,,6,0,0,,,2,,,71,111
521353,note_on,,,,,0,0,0,,,4,,,47,127
521355,note_off,,,,,2,0,0,,,2,,,70,64
521385,note_off,,,,,30,0,0,,,4,,,61,64
521390,note_on,,,,,5,0,0,,,4,,,59,127
521423,note_off,,,,,33,0,0,,,4,,,47,64
521429,note_on,,,,,6,0,0,,,2,,,74,107
521429,note_on,,,,,0,0,0,,,4,,,47,127
521430,note_off,,,,,1,0,0,,,2,,,76,64
521460,note_off,,,,,30,0,0,,,4,,,59,64
521466,note_on,,,,,6,0,0,,,4,,,59,127
521501,note_off,,,,,35,0,0,,,4,,,47,64
521507,note_on,,,,,6,0,0,,,4,,,45,127
521507,note_on,,,,,0,0,0,,,2,,,72,107
521508,note_off,,,,,1,0,0,,,2,,,71,64
521515,note_off,,,,,7,0,0,,,2,,,74,64
521538,note_off,,,,,23,0,0,,,4,,,59,64
521544,note_on,,,,,6,0,0,,,4,,,57,127
521578,note_off,,,,,34,0,0,,,4,,,45,64
521584,note_on,,,,,6,0,0,,,2,,,75,107
521585,note_on,,,,,1,0,0,,,4,,,45,127
521592,note_off,,,,,7,0,0,,,2,,,72,64
521616,note_off,,,,,24,0,0,,,4,,,57,64
521622,note_on,,,,,6,0,0,,,4,,,57,127
521652,note_off,,,,,30,0,0,,,4,,,45,64
521658,note_on,,,,,6,0,0,,,2,,,71,111
521659,note_on,,,,,1,0,0,,,4,,,44,127
521692,note_off,,,,,33,0,0,,,4,,,57,64
521698,note_on,,,,,6,0,0,,,4,,,56,127
521730,note_off,,,,,32,0,0,,,4,,,44,64
521736,note_on,,,,,6,0,0,,,4,,,44,127
521736,note_on,,,,,0,0,0,,,2,,,76,107
521737,note_off,,,,,1,0,0,,,2,,,75,64
521770,note_off,,,,,33,0,0,,,4,,,56,64
521775,note_on,,,,,5,0,0,,,4,,,56,127
521808,note_off,,,,,33,0,0,,,4,,,44,64
521814,note_on,,,,,6,0,0,,,2,,,68,115
521814,note_on,,,,,0,0,0,,,4,,,40,127
521817,note_off,,,,,3,0,0,,,2,,,71,64
521847,note_off,,,,,30,0,0,,,4,,,56,64
521853,note_on,,,,,6,0,0,,,4,,,52,127
521886,note_off,,,,,33,0,0,,,4,,,40,64
521892,note_on,,,,,6,0,0,,,2,,,74,107
521892,note_on,,,,,0,0,0,,,4,,,40,127
521894,note_off,,,,,2,0,0,,,2,,,76,64
521924,note_off,,,,,30,0,0,,,4,,,52,64
521930,note_on,,,,,6,0,0,,,4,,,52,127
521963,note_off,,,,,33,0,0,,,4,,,40,64
521968,note_on,,,,,5,0,0,,,4,,,61,127
521969,note_off,,,,,1,0,0,,,2,,,68,64
521969,note_on,,,,,0,0,0,,,4,,,57,127
522000,note_off,,,,,31,0,0,,,4,,,52,64
522000,note_off,,,,,0,0,0,,,2,,,74,64
522007,note_on,,,,,7,0,0,,,2,,,73,107
522039,note_off,,,,,32,0,0,,,4,,,61,64
522045,note_on,,,,,6,0,0,,,4,,,61,127
522078,note_off,,,,,33,0,0,,,2,,,73,64
522084,note_on,,,,,6,0,0,,,2,,,73,107
522116,note_off,,,,,32,0,0,,,4,,,61,64
522122,note_on,,,,,6,0,0,,,4,,,49,127
522122,note_on,,,,,0,0,0,,,4,,,64,127
522156,note_off,,,,,34,0,0,,,2,,,73,64
522156,note_on,,,,,0,0,0,,,2,,,76,107
522195,note_off,,,,,39,0,0,,,4,,,64,64
522195,note_on,,,,,0,0,0,,,4,,,64,127
522228,note_off,,,,,33,0,0,,,2,,,76,64
522234,note_on,,,,,6,0,0,,,2,,,76,107
522269,note_off,,,,,35,0,0,,,4,,,64,64
522275,note_on,,,,,6,0,0,,,4,,,56,127
522275,note_on,,,,,0,0,0,,,4,,,52,127
522279,note_off,,,,,4,0,0,,,4,,,57,64
522281,note_off,,,,,2,0,0,,,4,,,49,64
522306,note_off,,,,,25,0,0,,,2,,,76,64
522312,note_on,,,,,6,0,0,,,2,,,68,115
522345,note_off,,,,,33,0,0,,,4,,,56,64
522350,note_on,,,,,5,0,0,,,4,,,56,127
522383,note_off,,,,,33,0,0,,,2,,,68,64
522389,note_on,,,,,6,0,0,,,2,,,68,115
522421,note_off,,,,,32,0,0,,,4,,,56,64
522427,note_on,,,,,6,0,0,,,4,,,59,127
522428,note_on,,,,,1,0,0,,,4,,,40,127
522430,note_off,,,,,2,0,0,,,4,,,52,64
522461,note_off,,,,,31,0,0,,,2,,,68,64
522467,note_on,,,,,6,0,0,,,2,,,71,111
522499,note_off,,,,,32,0,0,,,4,,,59,64
522505,note_on,,,,,6,0,0,,,4,,,59,127
522538,note_off,,,,,33,0,0,,,2,,,71,64
522543,note_on,,,,,5,0,0,,,2,,,71,111
522576,note_off,,,,,33,0,0,,,4,,,59,64
522582,note_on,,,,,6,0,0,,,4,,,57,127
522582,note_on,,,,,0,0,0,,,2,,,69,113
522583,note_on,,,,,1,0,0,,,4,,,45,127
522584,note_off,,,,,1,0,0,,,4,,,40,64
522614,note_off,,,,,30,0,0,,,2,,,71,64
522732,note_on,,,,,118,0,0,,,4,,,33,127
522787,note_off,,,,,55,0,0,,,4,,,45,64
522788,note_off,,,,,1,0,0,,,2,,,69,64
522788,note_off,,,,,0,0,0,,,4,,,57,64
522880,note_on,,,,,92,0,0,,,2,,,69,113
522917,note_on,,,,,37,0,0,,,1,,,81,104
522955,note_off,,,,,38,0,0,,,2,,,69,64
522957,note_on,,,,,2,0,0,,,2,,,69,113
522963,note_off,,,,,6,0,0,,,4,,,33,64
522994,note_off,,,,,31,0,0,,,1,,,81,64
522996,note_on,,,,,2,0,0,,,1,,,81,104
523034,note_off,,,,,38,0,0,,,2,,,69,64
523034,note_on,,,,,0,0,0,,,2,,,69,113
523072,note_off,,,,,38,0,0,,,1,,,81,64
523073,note_on,,,,,1,0,0,,,1,,,81,104
523111,note_off,,,,,38,0,0,,,2,,,69,64
523111,note_on,,,,,0,0,0,,,2,,,69,113
523147,note_off,,,,,36,0,0,,,1,,,81,64
523149,note_on,,,,,2,0,0,,,1,,,81,104
523186,note_off,,,,,37,0,0,,,2,,,69,64
523188,note_on,,,,,2,0,0,,,4,,,54,127
523188,note_on,,,,,0,0,0,,,4,,,57,127
523188,note_on,,,,,0,0,0,,,2,,,69,113
523223,note_off,,,,,35,0,0,,,1,,,81,64
523224,note_on,,,,,1,0,0,,,1,,,81,104
523260,note_off,,,,,36,0,0,,,2,,,69,64
523261,note_on,,,,,1,0,0,,,2,,,69,113
523298,note_off,,,,,37,0,0,,,1,,,81,64
523299,note_on,,,,,1,0,0,,,1,,,81,104
523334,note_off,,,,,35,0,0,,,2,,,69,64
523336,note_on,,,,,2,0,0,,,2,,,69,113
523371,note_off,,,,,35,0,0,,,1,,,81,64
523373,note_on,,,,,2,0,0,,,1,,,81,104
523408,note_off,,,,,35,0,0,,,2,,,69,64
523410,note_on,,,,,2,0,0,,,2,,,69,113
523447,note_off,,,,,37,0,0,,,1,,,81,64
523449,note_on,,,,,2,0,0,,,1,,,81,104
523479,note_off,,,,,30,0,0,,,4,,,57,64
523483,note_off,,,,,4,0,0,,,2,,,69,64
523485,note_off,,,,,2,0,0,,,4,,,54,64
523486,note_on,,,,,1,0,0,,,2,,,69,113
523486,note_on,,,,,0,0,0,,,4,,,62,127
523487,note_on,,,,,1,0,0,,,4,,,57,127
523522,note_off,,,,,35,0,0,,,1,,,81,64
523523,note_on,,,,,1,0,0,,,1,,,81,104
523559,note_off,,,,,36,0,0,,,2,,,69,64
523560,note_on,,,,,1,0,0,,,2,,,69,113
523597,note_off,,,,,37,0,0,,,1,,,81,64
523598,note_on,,,,,1,0,0,,,1,,,81,104
523624,note_off,,,,,26,0,0,,,4,,,57,64
523625,note_off,,,,,1,0,0,,,4,,,62,64
523635,note_off,,,,,10,0,0,,,2,,,69,64
523637,note_on,,,,,2,0,0,,,2,,,69,113
523638,note_on,,,,,1,0,0,,,4,,,62,127
523638,note_on,,,,,0,0,0,,,4,,,66,127
523672,note_off,,,,,34,0,0,,,1,,,81,64
523675,note_on,,,,,3,0,0,,,1,,,81,104
523711,note_off,,,,,36,0,0,,,2,,,69,64
523713,note_on,,,,,2,0,0,,,2,,,69,113
523749,note_off,,,,,36,0,0,,,1,,,81,64
523751,note_on,,,,,2,0,0,,,1,,,81,104
523776,note_off,,,,,25,0,0,,,4,,,62,64
523788,note_off,,,,,12,0,0,,,2,,,69,64
523788,note_on,,,,,0,0,0,,,2,,,69,113
523789,note_on,,,,,1,0,0,,,4,,,61,127
523789,note_on,,,,,0,0,0,,,4,,,64,127
523791,note_off,,,,,2,0,0,,,4,,,66,64
523824,note_off,,,,,33,0,0,,,1,,,81,64
523826,note_on,,,,,2,0,0,,,1,,,81,104
523862,note_off,,,,,36,0,0,,,2,,,69,64
523863,note_on,,,,,1,0,0,,,2,,,69,113
523899,note_off,,,,,36,0,0,,,1,,,81,64
523901,note_on,,,,,2,0,0,,,1,,,81,104
523938,note_off,,,,,37,0,0,,,2,,,69,64
523940,note_on,,,,,2,0,0,,,2,,,69,113
523975,note_off,,,,,35,0,0,,,1,,,81,64
523977,note_on,,,,,2,0,0,,,1,,,81,104
524014,note_off,,,,,37,0,0,,,2,,,69,64
524015,note_off,,,,,1,0,0,,,4,,,61,64
524016,note_off,,,,,1,0,0,,,4,,,64,64
524016,note_on,,,,,0,0,0,,,2,,,69,113
524016,note_on,,,,,0,0,0,,,4,,,66,127
524017,note_on,,,,,1,0,0,,,4,,,62,127
524052,note_off,,,,,35,0,0,,,1,,,81,64
524052,note_on,,,,,0,0,0,,,1,,,81,104
524088,note_off,,,,,36,0,0,,,2,,,69,64
524090,note_on,,,,,2,0,0,,,2,,,69,113
524091,note_on,,,,,1,0,0,,,4,,,64,127
524091,note_on,,,,,0,0,0,,,2,,,67,123
524099,note_off,,,,,8,0,0,,,4,,,62,64
524099,note_off,,,,,0,0,0,,,4,,,66,64
524125,note_off,,,,,26,0,0,,,1,,,81,64
524127,note_on,,,,,2,0,0,,,1,,,81,104
524163,note_off,,,,,36,0,0,,,2,,,69,64
524165,note_on,,,,,2,0,0,,,2,,,69,113
524202,note_off,,,,,37,0,0,,,1,,,81,64
524204,note_on,,,,,2,0,0,,,1,,,81,104
524229,note_off,,,,,25,0,0,,,2,,,67,64
524229,note_off,,,,,0,0,0,,,4,,,64,64
524239,note_off,,,,,10,0,0,,,2,,,69,64
524241,note_on,,,,,2,0,0,,,2,,,69,113
524242,note_on,,,,,1,0,0,,,2,,,67,123
524242,note_on,,,,,0,0,0,,,4,,,64,127
524279,note_off,,,,,37,0,0,,,1,,,81,64
524280,note_on,,,,,1,0,0,,,1,,,81,104
524317,note_off,,,,,37,0,0,,,2,,,69,64
524317,note_on,,,,,0,0,0,,,2,,,69,113
524353,note_off,,,,,36,0,0,,,1,,,81,64
524355,note_on,,,,,2,0,0,,,1,,,81,104
524392,note_off,,,,,37,0,0,,,2,,,69,64
524394,note_on,,,,,2,0,0,,,4,,,66,127
524394,note_on,,,,,0,0,0,,,2,,,69,113
524395,note_on,,,,,1,0,0,,,4,,,62,127
524397,note_off,,,,,2,0,0,,,4,,,64,64
524397,note_off,,,,,0,0,0,,,2,,,67,64
524430,note_off,,,,,33,0,0,,,1,,,81,64
524432,note_on,,,,,2,0,0,,,1,,,81,104
524467,note_off,,,,,35,0,0,,,2,,,69,64
524469,note_on,,,,,2,0,0,,,2,,,69,113
524505,note_off,,,,,36,0,0,,,1,,,81,64
524506,note_on,,,,,1,0,0,,,1,,,81,104
524542,note_off,,,,,36,0,0,,,2,,,69,64
524544,note_on,,,,,2,0,0,,,2,,,70,113
524580,note_off,,,,,36,0,0,,,1,,,81,64
524582,note_on,,,,,2,0,0,,,1,,,82,104
524618,note_off,,,,,36,0,0,,,2,,,70,64
524619,note_on,,,,,1,0,0,,,2,,,70,113
524655,note_off,,,,,36,0,0,,,1,,,82,64
524657,note_on,,,,,2,0,0,,,1,,,82,104
524689,note_off,,,,,32,0,0,,,4,,,62,64
524690,note_off,,,,,1,0,0,,,4,,,66,64
524692,note_off,,,,,2,0,0,,,2,,,70,64
524694,note_on,,,,,2,0,0,,,2,,,71,111
524695,note_on,,,,,1,0,0,,,4,,,55,127
524695,note_on,,,,,0,0,0,,,2,,,67,123
524732,note_off,,,,,37,0,0,,,1,,,82,64
524732,note_on,,,,,0,0,0,,,1,,,83,104
524768,note_off,,,,,36,0,0,,,2,,,71,64
524770,note_on,,,,,2,0,0,,,2,,,71,111
524807,note_off,,,,,37,0,0,,,1,,,83,64
524807,note_on,,,,,0,0,0,,,1,,,83,104
524845,note_off,,,,,38,0,0,,,2,,,71,64
524845,note_on,,,,,0,0,0,,,2,,,76,107
524883,note_off,,,,,38,0,0,,,1,,,83,64
524885,note_on,,,,,2,0,0,,,1,,,88,106
524922,note_off,,,,,37,0,0,,,2,,,76,64
524924,note_on,,,,,2,0,0,,,2,,,76,107
524949,note_off,,,,,25,0,0,,,1,,,88,64
524962,note_on,,,,,13,0,0,,,1,,,88,106
524995,note_off,,,,,33,0,0,,,2,,,67,64
524995,note_off,,,,,0,0,0,,,4,,,55,64
525000,note_off,,,,,5,0,0,,,2,,,76,64
525005,note_on,,,,,5,0,0,,,1,,,86,104
525006,note_on,,,,,1,0,0,,,4,,,66,127
525006,note_on,,,,,0,0,0,,,2,,,74,107
525007,note_on,,,,,1,0,0,,,4,,,57,127
525028,note_off,,,,,21,0,0,,,1,,,88,64
525157,note_on,,,,,129,0,0,,,1,,,85,104
525163,note_on,,,,,6,0,0,,,2,,,73,107
525163,note_on,,,,,0,0,0,,,4,,,64,127
525164,note_off,,,,,1,0,0,,,1,,,86,64
525164,note_off,,,,,0,0,0,,,4,,,57,64
525165,note_off,,,,,1,0,0,,,2,,,74,64
525165,note_off,,,,,0,0,0,,,4,,,66,64
525315,note_off,,,,,150,0,0,,,1,,,85,64
525317,note_on,,,,,2,0,0,,,4,,,57,127
525321,note_off,,,,,4,0,0,,,4,,,64,64
525322,note_off,,,,,1,0,0,,,2,,,73,64
525357,note_on,,,,,35,0,0,,,2,,,69,113
525389,note_off,,,,,32,0,0,,,4,,,57,64
525395,note_on,,,,,6,0,0,,,4,,,57,127
525430,note_off,,,,,35,0,0,,,2,,,69,64
525435,note_on,,,,,5,0,0,,,2,,,69,113
525468,note_off,,,,,33,0,0,,,4,,,57,64
525468,note_on,,,,,0,0,0,,,2,,,76,107
525473,note_on,,,,,5,0,0,,,2,,,73,107
525473,note_on,,,,,0,0,0,,,4,,,55,127
525506,note_off,,,,,33,0,0,,,2,,,69,64
525513,note_on,,,,,7,0,0,,,2,,,67,123
525546,note_off,,,,,33,0,0,,,4,,,55,64
525553,note_on,,,,,7,0,0,,,4,,,55,127
525586,note_off,,,,,33,0,0,,,2,,,67,64
525592,note_on,,,,,6,0,0,,,2,,,67,123
525626,note_off,,,,,34,0,0,,,4,,,55,64
525630,note_off,,,,,4,0,0,,,2,,,76,64
525632,note_on,,,,,2,0,0,,,2,,,69,113
525633,note_on,,,,,1,0,0,,,4,,,54,127
525635,note_off,,,,,2,0,0,,,2,,,73,64
525666,note_off,,,,,31,0,0,,,2,,,67,64
525672,note_on,,,,,6,0,0,,,4,,,66,127
525704,note_off,,,,,32,0,0,,,4,,,54,64
525710,note_on,,,,,6,0,0,,,1,,,81,104
525711,note_on,,,,,1,0,0,,,4,,,54,127
525744,note_off,,,,,33,0,0,,,4,,,66,64
525750,note_on,,,,,6,0,0,,,4,,,66,127
525782,note_off,,,,,32,0,0,,,4,,,54,64
525790,note_on,,,,,8,0,0,,,4,,,52,127
525790,note_on,,,,,0,0,0,,,2,,,73,107
525791,note_off,,,,,1,0,0,,,2,,,69,64
525821,note_off,,,,,30,0,0,,,4,,,66,64
525828,note_on,,,,,7,0,0,,,4,,,64,127
525860,note_off,,,,,32,0,0,,,4,,,52,64
525866,note_on,,,,,6,0,0,,,1,,,79,104
525866,note_on,,,,,0,0,0,,,4,,,52,127
525868,note_off,,,,,2,0,0,,,1,,,81,64
525899,note_off,,,,,31,0,0,,,4,,,64,64
525904,note_on,,,,,5,0,0,,,4,,,64,127
525937,note_off,,,,,33,0,0,,,4,,,52,64
525943,note_on,,,,,6,0,0,,,2,,,74,107
525943,note_on,,,,,0,0,0,,,4,,,50,127
525945,note_off,,,,,2,0,0,,,2,,,73,64
525976,note_off,,,,,31,0,0,,,4,,,64,64
525982,note_on,,,,,6,0,0,,,4,,,62,127
526015,note_off,,,,,33,0,0,,,4,,,50,64
526020,note_on,,,,,5,0,0,,,1,,,78,104
526021,note_on,,,,,1,0,0,,,4,,,50,127
526023,note_off,,,,,2,0,0,,,1,,,79,64
526054,note_off,,,,,31,0,0,,,4,,,62,64
526060,note_on,,,,,6,0,0,,,4,,,62,127
526091,note_off,,,,,31,0,0,,,4,,,50,64
526097,note_on,,,,,6,0,0,,,2,,,70,113
526098,note_on,,,,,1,0,0,,,4,,,49,127
526100,note_off,,,,,2,0,0,,,2,,,74,64
526131,note_off,,,,,31,0,0,,,4,,,62,64
526137,note_on,,,,,6,0,0,,,4,,,61,127
526169,note_off,,,,,32,0,0,,,4,,,49,64
526177,note_on,,,,,8,0,0,,,2,,,76,107
526177,note_on,,,,,0,0,0,,,4,,,49,127
526178,note_off,,,,,1,0,0,,,1,,,78,64
526209,note_off,,,,,31,0,0,,,4,,,61,64
526214,note_on,,,,,5,0,0,,,4,,,61,127
526247,note_off,,,,,33,0,0,,,4,,,49,64
526253,note_on,,,,,6,0,0,,,4,,,47,127
526253,note_on,,,,,0,0,0,,,2,,,71,111
526256,note_off,,,,,3,0,0,,,2,,,70,64
526284,note_off,,,,,28,0,0,,,4,,,61,64
526290,note_on,,,,,6,0,0,,,4,,,59,127
526321,note_off,,,,,31,0,0,,,4,,,47,64
526327,note_on,,,,,6,0,0,,,2,,,74,107
526327,note_on,,,,,0,0,0,,,4,,,47,127
526330,note_off,,,,,3,0,0,,,2,,,76,64
526335,note_off,,,,,5,0,0,,,2,,,71,64
526358,note_off,,,,,23,0,0,,,4,,,59,64
526364,note_on,,,,,6,0,0,,,4,,,59,127
526397,note_off,,,,,33,0,0,,,4,,,47,64
526403,note_on,,,,,6,0,0,,,2,,,72,107
526403,note_on,,,,,0,0,0,,,4,,,45,127
526411,note_off,,,,,8,0,0,,,2,,,74,64
526436,note_off,,,,,25,0,0,,,4,,,59,64
526442,note_on,,,,,6,0,0,,,4,,,57,127
526475,note_off,,,,,33,0,0,,,4,,,45,64
526480,note_on,,,,,5,0,0,,,2,,,75,107
526481,note_on,,,,,1,0,0,,,4,,,45,127
526489,note_off,,,,,8,0,0,,,2,,,72,64
526512,note_off,,,,,23,0,0,,,4,,,57,64
526517,note_on,,,,,5,0,0,,,4,,,57,127
526549,note_off,,,,,32,0,0,,,4,,,45,64
526555,note_on,,,,,6,0,0,,,2,,,71,111
526556,note_on,,,,,1,0,0,,,4,,,44,127
526587,note_off,,,,,31,0,0,,,4,,,57,64
526593,note_on,,,,,6,0,0,,,4,,,56,127
526625,note_off,,,,,32,0,0,,,4,,,44,64
526631,note_on,,,,,6,0,0,,,2,,,76,107
526632,note_off,,,,,1,0,0,,,2,,,75,64
526632,note_on,,,,,0,0,0,,,4,,,44,127
526663,note_off,,,,,31,0,0,,,4,,,56,64
526668,note_on,,,,,5,0,0,,,4,,,56,127
526701,note_off,,,,,33,0,0,,,4,,,44,64
526707,note_on,,,,,6,0,0,,,2,,,68,115
526707,note_on,,,,,0,0,0,,,4,,,40,127
526710,note_off,,,,,3,0,0,,,2,,,71,64
526739,note_off,,,,,29,0,0,,,4,,,56,64
526744,note_on,,,,,5,0,0,,,4,,,52,127
526777,note_off,,,,,33,0,0,,,4,,,40,64
526783,note_on,,,,,6,0,0,,,4,,,40,127
526783,note_on,,,,,0,0,0,,,2,,,74,107
526786,note_off,,,,,3,0,0,,,2,,,76,64
526814,note_off,,,,,28,0,0,,,4,,,52,64
526820,note_on,,,,,6,0,0,,,4,,,52,127
526853,note_off,,,,,33,0,0,,,4,,,40,64
526859,note_on,,,,,6,0,0,,,4,,,57,127
526859,note_on,,,,,0,0,0,,,4,,,61,127
526861,note_off,,,,,2,0,0,,,2,,,68,64
526892,note_off,,,,,31,0,0,,,4,,,52,64
526898,note_off,,,,,6,0,0,,,2,,,74,64
526898,note_on,,,,,0,0,0,,,2,,,73,107
526930,note_off,,,,,32,0,0,,,4,,,61,64
526935,note_on,,,,,5,0,0,,,4,,,61,127
526968,note_off,,,,,33,0,0,,,2,,,73,64
526974,note_on,,,,,6,0,0,,,2,,,73,107
527006,note_off,,,,,32,0,0,,,4,,,61,64
527012,note_on,,,,,6,0,0,,,4,,,64,127
527013,note_on,,,,,1,0,0,,,4,,,49,127
527046,note_off,,,,,33,0,0,,,2,,,73,64
527046,note_on,,,,,0,0,0,,,2,,,76,107
527085,note_off,,,,,39,0,0,,,4,,,64,64
527091,note_on,,,,,6,0,0,,,4,,,64,127
527118,note_off,,,,,27,0,0,,,2,,,76,64
527124,note_on,,,,,6,0,0,,,2,,,76,107
527162,note_off,,,,,38,0,0,,,4,,,64,64
527162,note_on,,,,,0,0,0,,,4,,,56,127
527163,note_on,,,,,1,0,0,,,4,,,52,127
527167,note_off,,,,,4,0,0,,,4,,,57,64
527171,note_off,,,,,4,0,0,,,4,,,49,64
527196,note_off,,,,,25,0,0,,,2,,,76,64
527201,note_on,,,,,5,0,0,,,2,,,68,115
527234,note_off,,,,,33,0,0,,,4,,,56,64
527240,note_on,,,,,6,0,0,,,4,,,56,127
527274,note_off,,,,,34,0,0,,,2,,,68,64
527280,note_on,,,,,6,0,0,,,2,,,68,115
527313,note_off,,,,,33,0,0,,,4,,,56,64
527318,note_on,,,,,5,0,0,,,4,,,59,127
527319,note_on,,,,,1,0,0,,,4,,,40,127
527321,note_off,,,,,2,0,0,,,4,,,52,64
527354,note_off,,,,,33,0,0,,,2,,,68,64
527360,note_on,,,,,6,0,0,,,2,,,71,111
527390,note_off,,,,,30,0,0,,,4,,,59,64
527396,note_on,,,,,6,0,0,,,4,,,59,127
527431,note_off,,,,,35,0,0,,,2,,,71,64
527435,note_on,,,,,4,0,0,,,2,,,71,111
527469,note_off,,,,,34,0,0,,,4,,,59,64
527477,note_on,,,,,8,0,0,,,4,,,57,127
527477,note_on,,,,,0,0,0,,,2,,,69,113
527478,note_off,,,,,1,0,0,,,4,,,40,64
527478,note_on,,,,,0,0,0,,,4,,,45,127
527509,note_off,,,,,31,0,0,,,2,,,71,64
527638,note_on,,,,,129,0,0,,,4,,,33,127
527678,note_off,,,,,40,0,0,,,4,,,45,64
527679,note_off,,,,,1,0,0,,,2,,,69,64
527679,note_off,,,,,0,0,0,,,4,,,57,64
527800,note_on,,,,,121,0,0,,,4,,,66,127
527843,note_on,,,,,43,0,0,,,1,,,78,104
527877,note_off,,,,,34,0,0,,,4,,,66,64
527883,note_on,,,,,6,0,0,,,4,,,66,127
527891,note_off,,,,,8,0,0,,,4,,,33,64
527917,note_off,,,,,26,0,0,,,1,,,78,64
527924,note_on,,,,,7,0,0,,,1,,,78,104
527958,note_off,,,,,34,0,0,,,4,,,66,64
527964,note_off,,,,,6,0,0,,,1,,,78,64
527964,note_on,,,,,0,0,0,,,1,,,78,104
527964,note_on,,,,,0,0,0,,,1,,,81,104
527965,note_on,,,,,1,0,0,,,4,,,64,127
528006,note_on,,,,,41,0,0,,,2,,,76,107
528040,note_off,,,,,34,0,0,,,4,,,64,64
528048,note_on,,,,,8,0,0,,,4,,,64,127
528083,note_off,,,,,35,0,0,,,2,,,76,64
528088,note_on,,,,,5,0,0,,,2,,,76,107
528123,note_off,,,,,35,0,0,,,4,,,64,64
528123,note_off,,,,,0,0,0,,,1,,,81,64
528128,note_on,,,,,5,0,0,,,1,,,81,104
528128,note_on,,,,,0,0,0,,,1,,,84,104
528129,note_on,,,,,1,0,0,,,4,,,63,127
528132,note_off,,,,,3,0,0,,,1,,,78,64
528162,note_off,,,,,30,0,0,,,2,,,76,64
528167,note_on,,,,,5,0,0,,,2,,,75,107
528201,note_off,,,,,34,0,0,,,4,,,63,64
528206,note_on,,,,,5,0,0,,,4,,,63,127
528241,note_off,,,,,35,0,0,,,2,,,75,64
528247,note_on,,,,,6,0,0,,,2,,,75,107
528281,note_off,,,,,34,0,0,,,4,,,63,64
528287,note_on,,,,,6,0,0,,,1,,,83,104
528288,note_off,,,,,1,0,0,,,1,,,81,64
528288,note_on,,,,,0,0,0,,,1,,,80,104
528288,note_on,,,,,0,0,0,,,4,,,64,127
528289,note_off,,,,,1,0,0,,,1,,,84,64
528322,note_off,,,,,33,0,0,,,2,,,75,64
528327,note_on,,,,,5,0,0,,,2,,,76,107
528362,note_off,,,,,35,0,0,,,4,,,64,64
528368,note_on,,,,,6,0,0,,,4,,,64,127
528402,note_off,,,,,34,0,0,,,2,,,76,64
528408,note_on,,,,,6,0,0,,,2,,,76,107
528443,note_off,,,,,35,0,0,,,4,,,64,64
528447,note_on,,,,,4,0,0,,,1,,,79,104
528447,note_on,,,,,0,0,0,,,1,,,82,104
528448,note_on,,,,,1,0,0,,,4,,,61,127
528450,note_off,,,,,2,0,0,,,1,,,80,64
528451,note_off,,,,,1,0,0,,,1,,,83,64
528482,note_off,,,,,31,0,0,,,2,,,76,64
528488,note_on,,,,,6,0,0,,,2,,,73,107
528522,note_off,,,,,34,0,0,,,4,,,61,64
528528,note_on,,,,,6,0,0,,,4,,,61,127
528563,note_off,,,,,35,0,0,,,2,,,73,64
528569,note_on,,,,,6,0,0,,,2,,,73,107
528604,note_off,,,,,35,0,0,,,4,,,61,64
528610,note_on,,,,,6,0,0,,,1,,,81,104
528611,note_on,,,,,1,0,0,,,1,,,78,104
528611,note_on,,,,,0,0,0,,,4,,,62,127
528612,note_off,,,,,1,0,0,,,1,,,79,64
528613,note_off,,,,,1,0,0,,,1,,,82,64
528645,note_off,,,,,32,0,0,,,2,,,73,64
528650,note_on,,,,,5,0,0,,,2,,,74,107
528685,note_off,,,,,35,0,0,,,4,,,62,64
528696,note_on,,,,,11,0,0,,,4,,,62,127
528725,note_off,,,,,29,0,0,,,2,,,74,64
528737,note_on,,,,,12,0,0,,,2,,,74,107
528770,note_off,,,,,33,0,0,,,2,,,74,64
528771,note_off,,,,,1,0,0,,,4,,,62,64
528775,note_off,,,,,4,0,0,,,1,,,81,64
528775,note_off,,,,,0,0,0,,,1,,,78,64
528778,note_on,,,,,3,0,0,,,2,,,74,107
528779,note_on,,,,,1,0,0,,,4,,,56,127
528814,note_on,,,,,35,0,0,,,1,,,86,104
528819,note_on,,,,,5,0,0,,,2,,,68,115
528854,note_off,,,,,35,0,0,,,2,,,74,64
528860,note_on,,,,,6,0,0,,,2,,,73,107
528860,note_on,,,,,0,0,0,,,4,,,57,127
528868,note_off,,,,,8,0,0,,,4,,,56,64
528895,note_on,,,,,27,0,0,,,1,,,85,104
528903,note_on,,,,,8,0,0,,,2,,,69,113
528905,note_off,,,,,2,0,0,,,1,,,86,64
528911,note_off,,,,,6,0,0,,,2,,,68,64
528937,note_off,,,,,26,0,0,,,2,,,73,64
528943,note_on,,,,,6,0,0,,,2,,,72,107
528944,note_on,,,,,1,0,0,,,4,,,54,127
528952,note_off,,,,,8,0,0,,,4,,,57,64
528977,note_on,,,,,25,0,0,,,1,,,84,104
528983,note_on,,,,,6,0,0,,,4,,,66,127
528986,note_off,,,,,3,0,0,,,1,,,85,64
528992,note_off,,,,,6,0,0,,,2,,,69,64
529017,note_off,,,,,25,0,0,,,2,,,72,64
529024,note_on,,,,,7,0,0,,,2,,,71,106
529024,note_on,,,,,0,0,0,,,4,,,55,127
529032,note_off,,,,,8,0,0,,,4,,,54,64
529059,note_on,,,,,27,0,0,,,1,,,83,104
529065,note_on,,,,,6,0,0,,,2,,,67,127
529067,note_off,,,,,2,0,0,,,1,,,84,64
529073,note_off,,,,,6,0,0,,,4,,,66,64
529100,note_off,,,,,27,0,0,,,2,,,71,64
529105,note_on,,,,,5,0,0,,,2,,,71,106
529106,note_on,,,,,1,0,0,,,4,,,53,127
529114,note_off,,,,,8,0,0,,,4,,,55,64
529131,note_off,,,,,17,0,0,,,1,,,83,64
529139,note_on,,,,,8,0,0,,,1,,,83,104
529145,note_on,,,,,6,0,0,,,4,,,65,127
529154,note_off,,,,,9,0,0,,,2,,,67,64
529181,note_off,,,,,27,0,0,,,2,,,71,64
529187,note_on,,,,,6,0,0,,,2,,,70,113
529188,note_on,,,,,1,0,0,,,4,,,54,127
529198,note_off,,,,,10,0,0,,,4,,,53,64
529223,note_on,,,,,25,0,0,,,1,,,82,104
529229,note_on,,,,,6,0,0,,,4,,,66,127
529232,note_off,,,,,3,0,0,,,1,,,83,64
529238,note_off,,,,,6,0,0,,,4,,,65,64
529265,note_off,,,,,27,0,0,,,2,,,70,64
529271,note_on,,,,,6,0,0,,,2,,,69,113
529271,note_on,,,,,0,0,0,,,4,,,51,127
529281,note_off,,,,,10,0,0,,,4,,,54,64
529306,note_on,,,,,25,0,0,,,1,,,81,104
529314,note_on,,,,,8,0,0,,,4,,,63,127
529316,note_off,,,,,2,0,0,,,1,,,82,64
529323,note_off,,,,,7,0,0,,,4,,,66,64
529350,note_off,,,,,27,0,0,,,2,,,69,64
529356,note_on,,,,,6,0,0,,,4,,,52,127
529356,note_on,,,,,0,0,0,,,2,,,68,115
529365,note_off,,,,,9,0,0,,,4,,,51,64
529392,note_on,,,,,27,0,0,,,1,,,80,104
529397,note_on,,,,,5,0,0,,,4,,,64,127
529401,note_off,,,,,4,0,0,,,1,,,81,64
529407,note_off,,,,,6,0,0,,,4,,,63,64
529432,note_off,,,,,25,0,0,,,2,,,68,64
529438,note_on,,,,,6,0,0,,,4,,,61,127
529438,note_on,,,,,0,0,0,,,2,,,67,127
529439,note_on,,,,,1,0,0,,,4,,,58,127
529447,note_off,,,,,8,0,0,,,4,,,52,64
529472,note_on,,,,,25,0,0,,,1,,,79,104
529480,note_off,,,,,8,0,0,,,1,,,80,64
529488,note_off,,,,,8,0,0,,,4,,,64,64
529512,note_off,,,,,24,0,0,,,2,,,67,64
529520,note_on,,,,,8,0,0,,,2,,,67,127
529546,note_off,,,,,26,0,0,,,1,,,79,64
529553,note_on,,,,,7,0,0,,,1,,,79,104
529593,note_off,,,,,40,0,0,,,2,,,67,64
529594,note_off,,,,,1,0,0,,,4,,,61,64
529594,note_off,,,,,0,0,0,,,4,,,58,64
529600,note_on,,,,,6,0,0,,,4,,,62,127
529600,note_on,,,,,0,0,0,,,4,,,66,127
529601,note_on,,,,,1,0,0,,,4,,,59,127
529628,note_off,,,,,27,0,0,,,1,,,79,64
529635,note_on,,,,,7,0,0,,,1,,,78,104
529674,note_off,,,,,39,0,0,,,4,,,66,64
529681,note_on,,,,,7,0,0,,,4,,,66,127
529710,note_off,,,,,29,0,0,,,1,,,78,64
529718,note_on,,,,,8,0,0,,,1,,,78,104
529756,note_off,,,,,38,0,0,,,4,,,66,64
529756,note_on,,,,,0,0,0,,,4,,,59,127
529757,note_off,,,,,1,0,0,,,4,,,59,64
529757,note_off,,,,,0,0,0,,,4,,,62,64
529758,note_on,,,,,1,0,0,,,4,,,55,127
529758,note_on,,,,,0,0,0,,,4,,,64,127
529790,note_off,,,,,32,0,0,,,1,,,78,64
529798,note_on,,,,,8,0,0,,,2,,,76,107
529832,note_off,,,,,34,0,0,,,4,,,64,64
529838,note_on,,,,,6,0,0,,,4,,,64,127
529872,note_off,,,,,34,0,0,,,2,,,76,64
529878,note_on,,,,,6,0,0,,,2,,,76,107
529913,note_off,,,,,35,0,0,,,4,,,64,64
529919,note_on,,,,,6,0,0,,,4,,,56,127
529919,note_on,,,,,0,0,0,,,4,,,62,127
529921,note_off,,,,,2,0,0,,,4,,,55,64
529952,note_off,,,,,31,0,0,,,2,,,76,64
529960,note_on,,,,,8,0,0,,,2,,,74,107
529994,note_off,,,,,34,0,0,,,4,,,62,64
530000,note_on,,,,,6,0,0,,,4,,,62,127
530035,note_off,,,,,35,0,0,,,2,,,74,64
530042,note_on,,,,,7,0,0,,,2,,,74,107
530077,note_off,,,,,35,0,0,,,4,,,62,64
530081,note_off,,,,,4,0,0,,,4,,,59,64
530085,note_on,,,,,4,0,0,,,4,,,57,127
530085,note_on,,,,,0,0,0,,,4,,,61,127
530088,note_off,,,,,3,0,0,,,4,,,56,64
530120,note_off,,,,,32,0,0,,,2,,,74,64
530128,note_on,,,,,8,0,0,,,2,,,73,107
530170,note_on,,,,,42,0,0,,,4,,,62,127
530178,note_off,,,,,8,0,0,,,4,,,61,64
530210,note_on,,,,,32,0,0,,,2,,,74,107
530220,note_off,,,,,10,0,0,,,2,,,73,64
530253,note_on,,,,,33,0,0,,,4,,,63,127
530262,note_off,,,,,9,0,0,,,4,,,62,64
530293,note_on,,,,,31,0,0,,,2,,,75,107
530301,note_off,,,,,8,0,0,,,2,,,74,64
530333,note_on,,,,,32,0,0,,,4,,,64,127
530341,note_off,,,,,8,0,0,,,4,,,63,64
530374,note_on,,,,,33,0,0,,,2,,,76,107
530383,note_off,,,,,9,0,0,,,2,,,75,64
530414,note_on,,,,,31,0,0,,,4,,,65,127
530424,note_off,,,,,10,0,0,,,4,,,64,64
530456,note_on,,,,,32,0,0,,,2,,,77,107
530464,note_off,,,,,8,0,0,,,2,,,76,64
530495,note_on,,,,,31,0,0,,,4,,,66,127
530502,note_off,,,,,7,0,0,,,4,,,65,64
530535,note_on,,,,,33,0,0,,,1,,,78,104
530543,note_off,,,,,8,0,0,,,2,,,77,64
530574,note_on,,,,,31,0,0,,,2,,,67,127
530581,note_off,,,,,7,0,0,,,4,,,66,64
530612,note_on,,,,,31,0,0,,,1,,,79,109
530622,note_off,,,,,10,0,0,,,1,,,78,64
530652,note_on,,,,,30,0,0,,,2,,,68,115
530661,note_off,,,,,9,0,0,,,2,,,67,64
530692,note_on,,,,,31,0,0,,,1,,,80,109
530701,note_off,,,,,9,0,0,,,1,,,79,64
530732,note_off,,,,,31,0,0,,,1,,,80,64
530733,note_on,,,,,1,0,0,,,2,,,69,113
530733,note_on,,,,,0,0,0,,,1,,,81,109
530738,note_off,,,,,5,0,0,,,2,,,68,64
531019,note_off,,,,,281,0,0,,,4,,,57,64
531050,note_on,,,,,31,0,0,,,4,,,57,127
531071,note_off,,,,,21,0,0,,,2,,,69,64
531090,note_on,,,,,19,0,0,,,2,,,69,113
531091,note_off,,,,,1,0,0,,,1,,,81,64
531124,note_off,,,,,33,0,0,,,4,,,57,64
531131,note_on,,,,,7,0,0,,,4,,,57,127
531163,note_off,,,,,32,0,0,,,2,,,69,64
531169,note_on,,,,,6,0,0,,,2,,,69,113
531204,note_off,,,,,35,0,0,,,4,,,57,64
531204,note_on,,,,,0,0,0,,,2,,,76,107
531208,note_on,,,,,4,0,0,,,2,,,73,107
531209,note_on,,,,,1,0,0,,,4,,,55,127
531242,note_off,,,,,33,0,0,,,2,,,69,64
531248,note_on,,,,,6,0,0,,,2,,,67,127
531282,note_off,,,,,34,0,0,,,4,,,55,64
531290,note_on,,,,,8,0,0,,,4,,,55,127
531324,note_off,,,,,34,0,0,,,2,,,67,64
531330,note_on,,,,,6,0,0,,,2,,,67,127
531365,note_off,,,,,35,0,0,,,4,,,55,64
531368,note_off,,,,,3,0,0,,,2,,,76,64
531372,note_on,,,,,4,0,0,,,2,,,69,113
531372,note_on,,,,,0,0,0,,,4,,,54,127
531374,note_off,,,,,2,0,0,,,2,,,73,64
531405,note_off,,,,,31,0,0,,,2,,,67,64
531413,note_on,,,,,8,0,0,,,4,,,66,127
531447,note_off,,,,,34,0,0,,,4,,,54,64
531448,note_on,,,,,1,0,0,,,1,,,81,104
531454,note_on,,,,,6,0,0,,,4,,,54,127
531487,note_off,,,,,33,0,0,,,4,,,66,64
531492,note_on,,,,,5,0,0,,,4,,,66,127
531527,note_off,,,,,35,0,0,,,4,,,54,64
531535,note_on,,,,,8,0,0,,,4,,,52,127
531535,note_on,,,,,0,0,0,,,2,,,73,107
531538,note_off,,,,,3,0,0,,,2,,,69,64
531568,note_off,,,,,30,0,0,,,4,,,66,64
531574,note_on,,,,,6,0,0,,,4,,,64,127
531609,note_off,,,,,35,0,0,,,4,,,52,64
531609,note_on,,,,,0,0,0,,,1,,,79,104
531612,note_off,,,,,3,0,0,,,1,,,81,64
531615,note_on,,,,,3,0,0,,,4,,,52,127
531648,note_off,,,,,33,0,0,,,4,,,64,64
531654,note_on,,,,,6,0,0,,,4,,,64,127
531690,note_off,,,,,36,0,0,,,4,,,52,64
531696,note_on,,,,,6,0,0,,,2,,,74,107
531696,note_on,,,,,0,0,0,,,4,,,50,127
531699,note_off,,,,,3,0,0,,,2,,,73,64
531732,note_off,,,,,33,0,0,,,4,,,64,64
531737,note_on,,,,,5,0,0,,,4,,,62,127
531772,note_off,,,,,35,0,0,,,4,,,50,64
531772,note_on,,,,,0,0,0,,,1,,,78,104
531775,note_off,,,,,3,0,0,,,1,,,79,64
531779,note_on,,,,,4,0,0,,,4,,,50,127
531815,note_off,,,,,36,0,0,,,4,,,62,64
531821,note_on,,,,,6,0,0,,,4,,,62,127
531857,note_off,,,,,36,0,0,,,4,,,50,64
531863,note_on,,,,,6,0,0,,,2,,,70,108
531864,note_on,,,,,1,0,0,,,4,,,49,127
531866,note_off,,,,,2,0,0,,,2,,,74,64
531899,note_off,,,,,33,0,0,,,4,,,62,64
531904,note_on,,,,,5,0,0,,,4,,,61,127
531939,note_off,,,,,35,0,0,,,4,,,49,64
531939,note_on,,,,,0,0,0,,,2,,,76,107
531942,note_off,,,,,3,0,0,,,1,,,78,64
531946,note_on,,,,,4,0,0,,,4,,,49,127
531980,note_off,,,,,34,0,0,,,4,,,61,64
531988,note_on,,,,,8,0,0,,,4,,,61,127
532024,note_off,,,,,36,0,0,,,4,,,49,64
532030,note_on,,,,,6,0,0,,,2,,,74,107
532031,note_on,,,,,1,0,0,,,4,,,47,127
532031,note_on,,,,,0,0,0,,,2,,,71,106
532033,note_off,,,,,2,0,0,,,2,,,76,64
532033,note_off,,,,,0,0,0,,,2,,,70,64
532065,note_off,,,,,32,0,0,,,4,,,61,64
532070,note_on,,,,,5,0,0,,,4,,,59,127
532107,note_off,,,,,37,0,0,,,4,,,47,64
532107,note_on,,,,,0,0,0,,,1,,,86,104
532114,note_on,,,,,7,0,0,,,4,,,47,127
532146,note_off,,,,,32,0,0,,,4,,,59,64
532152,note_on,,,,,6,0,0,,,4,,,59,127
532188,note_off,,,,,36,0,0,,,4,,,47,64
532189,note_on,,,,,1,0,0,,,1,,,78,104
532193,note_on,,,,,4,0,0,,,4,,,45,127
532197,note_off,,,,,4,0,0,,,2,,,71,64
532198,note_off,,,,,1,0,0,,,2,,,74,64
532229,note_off,,,,,31,0,0,,,4,,,59,64
532235,note_on,,,,,6,0,0,,,4,,,57,127
532270,note_off,,,,,35,0,0,,,4,,,45,64
532271,note_on,,,,,1,0,0,,,1,,,84,104
532275,note_off,,,,,4,0,0,,,1,,,86,64
532277,note_on,,,,,2,0,0,,,4,,,45,127
532313,note_off,,,,,36,0,0,,,4,,,57,64
532321,note_on,,,,,8,0,0,,,4,,,57,127
532356,note_off,,,,,35,0,0,,,4,,,45,64
532356,note_on,,,,,0,0,0,,,1,,,79,104
532358,note_off,,,,,2,0,0,,,1,,,78,64
532362,note_on,,,,,4,0,0,,,4,,,43,127
532399,note_off,,,,,37,0,0,,,4,,,57,64
532404,note_on,,,,,5,0,0,,,4,,,55,127
532441,note_off,,,,,37,0,0,,,4,,,43,64
532441,note_on,,,,,0,0,0,,,1,,,83,104
532442,note_off,,,,,1,0,0,,,1,,,84,64
532446,note_on,,,,,4,0,0,,,4,,,43,127
532483,note_off,,,,,37,0,0,,,4,,,55,64
532489,note_on,,,,,6,0,0,,,4,,,55,127
532524,note_off,,,,,35,0,0,,,4,,,43,64
532525,note_off,,,,,1,0,0,,,1,,,79,64
532530,note_on,,,,,5,0,0,,,4,,,42,127
532530,note_on,,,,,0,0,0,,,2,,,74,107
532565,note_off,,,,,35,0,0,,,4,,,55,64
532571,note_on,,,,,6,0,0,,,4,,,54,127
532606,note_off,,,,,35,0,0,,,4,,,42,64
532606,note_on,,,,,0,0,0,,,1,,,82,104
532608,note_off,,,,,2,0,0,,,1,,,83,64
532612,note_on,,,,,4,0,0,,,4,,,42,127
532646,note_off,,,,,34,0,0,,,4,,,54,64
532653,note_on,,,,,7,0,0,,,4,,,54,127
532687,note_off,,,,,34,0,0,,,4,,,42,64
532692,note_on,,,,,5,0,0,,,2,,,71,106
532693,note_on,,,,,1,0,0,,,4,,,43,127
532693,note_on,,,,,0,0,0,,,4,,,55,127
532695,note_off,,,,,2,0,0,,,2,,,74,64
532719,note_off,,,,,24,0,0,,,1,,,82,64
532725,note_off,,,,,6,0,0,,,4,,,54,64
532725,note_on,,,,,0,0,0,,,1,,,83,104
532766,note_off,,,,,41,0,0,,,2,,,71,64
532771,note_on,,,,,5,0,0,,,2,,,71,106
532800,note_off,,,,,29,0,0,,,1,,,83,64
532806,note_on,,,,,6,0,0,,,1,,,83,104
532846,note_off,,,,,40,0,0,,,2,,,71,64
532850,note_on,,,,,4,0,0,,,4,,,64,127
532879,note_off,,,,,29,0,0,,,1,,,83,64
532884,note_on,,,,,5,0,0,,,2,,,76,107
532923,note_off,,,,,39,0,0,,,4,,,64,64
532931,note_on,,,,,8,0,0,,,4,,,64,127
532957,note_off,,,,,26,0,0,,,2,,,76,64
532963,note_on,,,,,6,0,0,,,2,,,76,107
533002,note_off,,,,,39,0,0,,,4,,,64,64
533008,note_off,,,,,6,0,0,,,4,,,55,64
533008,note_off,,,,,0,0,0,,,4,,,43,64
533009,note_on,,,,,1,0,0,,,4,,,45,127
533009,note_on,,,,,0,0,0,,,4,,,57,127
533009,note_on,,,,,0,0,0,,,2,,,67,127
533036,note_off,,,,,27,0,0,,,2,,,76,64
533042,note_on,,,,,6,0,0,,,1,,,79,104
533082,note_off,,,,,40,0,0,,,2,,,67,64
533088,note_on,,,,,6,0,0,,,2,,,67,127
533117,note_off,,,,,29,0,0,,,1,,,79,64
533123,note_on,,,,,6,0,0,,,1,,,79,104
533163,note_off,,,,,40,0,0,,,2,,,67,64
533164,note_on,,,,,1,0,0,,,4,,,61,127
533198,note_off,,,,,34,0,0,,,1,,,79,64
533205,note_on,,,,,7,0,0,,,2,,,73,107
533239,note_off,,,,,34,0,0,,,4,,,61,64
533246,note_on,,,,,7,0,0,,,4,,,61,127
533280,note_off,,,,,34,0,0,,,2,,,73,64
533287,note_on,,,,,7,0,0,,,2,,,73,107
533320,note_off,,,,,33,0,0,,,4,,,61,64
533326,note_on,,,,,6,0,0,,,4,,,62,127
533326,note_on,,,,,0,0,0,,,2,,,74,107
533327,note_on,,,,,1,0,0,,,4,,,50,127
533332,note_off,,,,,5,0,0,,,4,,,45,64
533333,note_off,,,,,1,0,0,,,4,,,57,64
533360,note_off,,,,,27,0,0,,,2,,,73,64
533487,note_on,,,,,127,0,0,,,4,,,38,127
533607,note_off,,,,,120,0,0,,,4,,,62,64
533607,note_off,,,,,0,0,0,,,4,,,50,64
533608,note_off,,,,,1,0,0,,,2,,,74,64
533646,note_on,,,,,38,0,0,,,4,,,66,127
533688,note_on,,,,,42,0,0,,,1,,,78,104
533723,note_off,,,,,35,0,0,,,4,,,66,64
533731,note_on,,,,,8,0,0,,,4,,,66,127
533736,note_off,,,,,5,0,0,,,4,,,38,64
533765,note_off,,,,,29,0,0,,,1,,,78,64
533773,note_on,,,,,8,0,0,,,1,,,78,104
533808,note_off,,,,,35,0,0,,,1,,,78,64
533808,note_off,,,,,0,0,0,,,4,,,66,64
533814,note_on,,,,,6,0,0,,,1,,,81,104
533815,note_on,,,,,1,0,0,,,1,,,78,104
533815,note_on,,,,,0,0,0,,,4,,,64,127
533856,note_on,,,,,41,0,0,,,2,,,76,107
533890,note_off,,,,,34,0,0,,,4,,,64,64
533896,note_on,,,,,6,0,0,,,4,,,64,127
533975,note_off,,,,,79,0,0,,,4,,,64,64
533975,note_off,,,,,0,0,0,,,1,,,81,64
533979,note_on,,,,,4,0,0,,,1,,,84,104
533980,note_on,,,,,1,0,0,,,4,,,63,127
533980,note_on,,,,,0,0,0,,,1,,,81,104
533982,note_off,,,,,2,0,0,,,1,,,78,64
534017,note_off,,,,,35,0,0,,,2,,,76,64
534023,note_on,,,,,6,0,0,,,2,,,75,107
534059,note_off,,,,,36,0,0,,,4,,,63,64
534065,note_on,,,,,6,0,0,,,4,,,63,127
534101,note_off,,,,,36,0,0,,,2,,,75,64
534108,note_on,,,,,7,0,0,,,2,,,75,107
534143,note_off,,,,,35,0,0,,,4,,,63,64
534148,note_on,,,,,5,0,0,,,1,,,83,104
534149,note_on,,,,,1,0,0,,,1,,,80,104
534149,note_on,,,,,0,0,0,,,4,,,64,127
534152,note_off,,,,,3,0,0,,,1,,,81,64
534153,note_off,,,,,1,0,0,,,1,,,84,64
534186,note_off,,,,,33,0,0,,,2,,,75,64
534193,note_on,,,,,7,0,0,,,2,,,76,107
534230,note_off,,,,,37,0,0,,,4,,,64,64
534236,note_on,,,,,6,0,0,,,4,,,64,127
534270,note_off,,,,,34,0,0,,,2,,,76,64
534278,note_on,,,,,8,0,0,,,2,,,76,107
534314,note_off,,,,,36,0,0,,,4,,,64,64
534319,note_on,,,,,5,0,0,,,1,,,79,104
534319,note_on,,,,,0,0,0,,,1,,,82,104
534320,note_on,,,,,1,0,0,,,4,,,61,127
534322,note_off,,,,,2,0,0,,,1,,,80,64
534323,note_off,,,,,1,0,0,,,1,,,83,64
534356,note_off,,,,,33,0,0,,,2,,,76,64
534361,note_on,,,,,5,0,0,,,2,,,73,107
534398,note_off,,,,,37,0,0,,,4,,,61,64
534404,note_on,,,,,6,0,0,,,4,,,61,127
534442,note_off,,,,,38,0,0,,,2,,,73,64
534448,note_on,,,,,6,0,0,,,2,,,73,107
534482,note_off,,,,,34,0,0,,,4,,,61,64
534488,note_on,,,,,6,0,0,,,1,,,81,104
534489,note_on,,,,,1,0,0,,,1,,,78,104
534489,note_on,,,,,0,0,0,,,4,,,62,127
534491,note_off,,,,,2,0,0,,,1,,,79,64
534492,note_off,,,,,1,0,0,,,1,,,82,64
534523,note_off,,,,,31,0,0,,,2,,,73,64
534528,note_on,,,,,5,0,0,,,2,,,74,107
534567,note_off,,,,,39,0,0,,,4,,,62,64
534573,note_on,,,,,6,0,0,,,4,,,62,127
534609,note_off,,,,,36,0,0,,,2,,,74,64
534623,note_on,,,,,14,0,0,,,2,,,74,112
534667,note_on,,,,,44,0,0,,,2,,,74,112
534667,note_on,,,,,0,0,0,,,2,,,74,112
534668,note_on,,,,,1,0,0,,,4,,,56,127
534700,note_off,,,,,32,0,0,,,4,,,62,64
534706,note_off,,,,,6,0,0,,,2,,,74,64
534707,note_off,,,,,1,0,0,,,1,,,78,64
534707,note_off,,,,,0,0,0,,,1,,,81,64
534711,note_on,,,,,4,0,0,,,2,,,68,115
534711,note_on,,,,,0,0,0,,,1,,,86,104
534755,note_on,,,,,44,0,0,,,2,,,73,112
534756,note_on,,,,,1,0,0,,,4,,,57,127
534766,note_off,,,,,10,0,0,,,4,,,56,64
534798,note_on,,,,,32,0,0,,,1,,,85,104
534799,note_on,,,,,1,0,0,,,2,,,69,113
534807,note_off,,,,,8,0,0,,,1,,,86,64
534807,note_off,,,,,0,0,0,,,2,,,68,64
534833,note_off,,,,,26,0,0,,,2,,,73,64
534839,note_on,,,,,6,0,0,,,2,,,72,112
534839,note_on,,,,,0,0,0,,,4,,,54,127
534842,note_off,,,,,3,0,0,,,2,,,74,64
534842,note_off,,,,,0,0,0,,,2,,,74,64
534849,note_off,,,,,7,0,0,,,4,,,57,64
534880,note_on,,,,,31,0,0,,,4,,,66,127
534880,note_on,,,,,0,0,0,,,1,,,84,104
534888,note_off,,,,,8,0,0,,,2,,,69,64
534889,note_off,,,,,1,0,0,,,1,,,85,64
534914,note_off,,,,,25,0,0,,,2,,,72,64
534920,note_on,,,,,6,0,0,,,2,,,71,111
534921,note_on,,,,,1,0,0,,,4,,,55,127
534929,note_off,,,,,8,0,0,,,4,,,54,64
534962,note_on,,,,,33,0,0,,,1,,,83,104
534962,note_on,,,,,0,0,0,,,2,,,67,127
534969,note_off,,,,,7,0,0,,,1,,,84,64
534969,note_off,,,,,0,0,0,,,4,,,66,64
534995,note_off,,,,,26,0,0,,,2,,,71,64
535001,note_on,,,,,6,0,0,,,2,,,71,111
535002,note_on,,,,,1,0,0,,,4,,,53,127
535009,note_off,,,,,7,0,0,,,4,,,55,64
535036,note_off,,,,,27,0,0,,,1,,,83,64
535042,note_on,,,,,6,0,0,,,1,,,83,104
535043,note_on,,,,,1,0,0,,,4,,,65,127
535051,note_off,,,,,8,0,0,,,2,,,67,64
535076,note_off,,,,,25,0,0,,,2,,,71,64
535084,note_on,,,,,8,0,0,,,2,,,70,113
535084,note_on,,,,,0,0,0,,,4,,,54,127
535092,note_off,,,,,8,0,0,,,4,,,53,64
535125,note_on,,,,,33,0,0,,,1,,,82,104
535126,note_on,,,,,1,0,0,,,4,,,66,127
535133,note_off,,,,,7,0,0,,,4,,,65,64
535134,note_off,,,,,1,0,0,,,1,,,83,64
535159,note_off,,,,,25,0,0,,,2,,,70,64
535165,note_on,,,,,6,0,0,,,2,,,69,113
535166,note_on,,,,,1,0,0,,,4,,,51,127
535176,note_off,,,,,10,0,0,,,4,,,54,64
535209,note_on,,,,,33,0,0,,,1,,,81,104
535209,note_on,,,,,0,0,0,,,4,,,63,127
535217,note_off,,,,,8,0,0,,,1,,,82,64
535217,note_off,,,,,0,0,0,,,4,,,66,64
535243,note_off,,,,,26,0,0,,,2,,,69,64
535249,note_on,,,,,6,0,0,,,2,,,68,115
535249,note_on,,,,,0,0,0,,,4,,,52,127
535257,note_off,,,,,8,0,0,,,4,,,51,64
535292,note_on,,,,,35,0,0,,,1,,,80,104
535293,note_on,,,,,1,0,0,,,4,,,64,127
535300,note_off,,,,,7,0,0,,,4,,,63,64
535301,note_off,,,,,1,0,0,,,1,,,81,64
535327,note_off,,,,,26,0,0,,,2,,,68,64
535332,note_on,,,,,5,0,0,,,2,,,67,127
535333,note_on,,,,,1,0,0,,,4,,,58,127
535333,note_on,,,,,0,0,0,,,4,,,61,127
535339,note_off,,,,,6,0,0,,,4,,,64,64
535341,note_off,,,,,2,0,0,,,4,,,52,64
535374,note_on,,,,,33,0,0,,,1,,,79,104
535384,note_off,,,,,10,0,0,,,1,,,80,64
535407,note_off,,,,,23,0,0,,,2,,,67,64
535415,note_on,,,,,8,0,0,,,2,,,67,127
535448,note_off,,,,,33,0,0,,,1,,,79,64
535448,note_on,,,,,0,0,0,,,1,,,79,104
535489,note_off,,,,,41,0,0,,,2,,,67,64
535497,note_on,,,,,8,0,0,,,4,,,66,127
535497,note_on,,,,,0,0,0,,,4,,,62,127
535498,note_off,,,,,1,0,0,,,4,,,58,64
535498,note_on,,,,,0,0,0,,,4,,,59,127
535499,note_off,,,,,1,0,0,,,4,,,61,64
535524,note_off,,,,,25,0,0,,,1,,,79,64
535530,note_on,,,,,6,0,0,,,1,,,78,104
535572,note_off,,,,,42,0,0,,,4,,,66,64
535578,note_on,,,,,6,0,0,,,4,,,66,127
535607,note_off,,,,,29,0,0,,,1,,,78,64
535613,note_on,,,,,6,0,0,,,1,,,78,104
535653,note_off,,,,,40,0,0,,,4,,,66,64
535653,note_off,,,,,0,0,0,,,4,,,59,64
535658,note_on,,,,,5,0,0,,,4,,,59,127
535658,note_on,,,,,0,0,0,,,4,,,64,127
535659,note_on,,,,,1,0,0,,,4,,,55,127
535661,note_off,,,,,2,0,0,,,4,,,62,64
535687,note_off,,,,,26,0,0,,,1,,,78,64
535693,note_on,,,,,6,0,0,,,2,,,76,107
535734,note_off,,,,,41,0,0,,,4,,,64,64
535740,note_on,,,,,6,0,0,,,4,,,64,127
535768,note_off,,,,,28,0,0,,,2,,,76,64
535774,note_on,,,,,6,0,0,,,2,,,76,107
535814,note_off,,,,,40,0,0,,,4,,,64,64
535822,note_on,,,,,8,0,0,,,4,,,62,127
535823,note_off,,,,,1,0,0,,,4,,,55,64
535823,note_on,,,,,0,0,0,,,4,,,56,127
535824,note_off,,,,,1,0,0,,,4,,,59,64
535850,note_off,,,,,26,0,0,,,2,,,76,64
535856,note_on,,,,,6,0,0,,,2,,,74,112
535896,note_off,,,,,40,0,0,,,4,,,62,64
535896,note_on,,,,,0,0,0,,,4,,,62,127
535932,note_off,,,,,36,0,0,,,2,,,74,64
535937,note_on,,,,,5,0,0,,,2,,,74,112
535970,note_off,,,,,33,0,0,,,4,,,62,64
535978,note_on,,,,,8,0,0,,,4,,,57,127
535978,note_on,,,,,0,0,0,,,4,,,61,127
535986,note_off,,,,,8,0,0,,,4,,,56,64
536013,note_off,,,,,27,0,0,,,2,,,74,64
536019,note_on,,,,,6,0,0,,,2,,,73,112
536059,note_on,,,,,40,0,0,,,4,,,62,127
536069,note_off,,,,,10,0,0,,,4,,,61,64
536100,note_on,,,,,31,0,0,,,2,,,74,112
536109,note_off,,,,,9,0,0,,,2,,,73,64
536142,note_on,,,,,33,0,0,,,4,,,63,127
536151,note_off,,,,,9,0,0,,,4,,,62,64
536182,note_on,,,,,31,0,0,,,2,,,75,107
536192,note_off,,,,,10,0,0,,,2,,,74,64
536222,note_on,,,,,30,0,0,,,4,,,64,127
536230,note_off,,,,,8,0,0,,,4,,,63,64
536263,note_on,,,,,33,0,0,,,2,,,76,107
536270,note_off,,,,,7,0,0,,,2,,,75,64
536303,note_on,,,,,33,0,0,,,4,,,65,127
536313,note_off,,,,,10,0,0,,,4,,,64,64
536343,note_on,,,,,30,0,0,,,2,,,77,107
536351,note_off,,,,,8,0,0,,,2,,,76,64
536382,note_on,,,,,31,0,0,,,4,,,66,127
536389,note_off,,,,,7,0,0,,,4,,,65,64
536420,note_on,,,,,31,0,0,,,1,,,78,104
536430,note_off,,,,,10,0,0,,,2,,,77,64
536460,note_on,,,,,30,0,0,,,2,,,67,127
536468,note_off,,,,,8,0,0,,,4,,,66,64
536499,note_on,,,,,31,0,0,,,1,,,79,104
536507,note_off,,,,,8,0,0,,,1,,,78,64
536535,note_on,,,,,28,0,0,,,2,,,68,115
536543,note_off,,,,,8,0,0,,,2,,,67,64
536572,note_on,,,,,29,0,0,,,1,,,80,104
536581,note_off,,,,,9,0,0,,,1,,,79,64
536604,note_off,,,,,23,0,0,,,1,,,80,64
536610,note_on,,,,,6,0,0,,,1,,,81,104
536611,note_on,,,,,1,0,0,,,2,,,69,113
536619,note_off,,,,,8,0,0,,,2,,,68,64
536884,note_off,,,,,265,0,0,,,1,,,81,64
536884,note_off,,,,,0,0,0,,,2,,,69,64
536925,note_on,,,,,41,0,0,,,4,,,57,127
536965,note_on,,,,,40,0,0,,,2,,,69,113
536998,note_off,,,,,33,0,0,,,4,,,57,64
537006,note_on,,,,,8,0,0,,,4,,,57,127
537038,note_off,,,,,32,0,0,,,2,,,69,64
537044,note_on,,,,,6,0,0,,,2,,,69,113
537077,note_off,,,,,33,0,0,,,4,,,57,64
537083,note_on,,,,,6,0,0,,,2,,,73,107
537083,note_on,,,,,0,0,0,,,2,,,76,107
537084,note_on,,,,,1,0,0,,,4,,,55,127
537115,note_off,,,,,31,0,0,,,2,,,69,64
537122,note_on,,,,,7,0,0,,,2,,,67,127
537156,note_off,,,,,34,0,0,,,4,,,55,64
537162,note_off,,,,,6,0,0,,,4,,,57,64
537163,note_on,,,,,1,0,0,,,4,,,55,127
537198,note_off,,,,,35,0,0,,,2,,,67,64
537204,note_on,,,,,6,0,0,,,2,,,67,127
537240,note_off,,,,,36,0,0,,,4,,,55,64
537246,note_on,,,,,6,0,0,,,2,,,69,113
537247,note_on,,,,,1,0,0,,,4,,,54,127
537249,note_off,,,,,2,0,0,,,2,,,76,64
537249,note_off,,,,,0,0,0,,,2,,,73,64
537278,note_off,,,,,29,0,0,,,2,,,67,64
537286,note_on,,,,,8,0,0,,,4,,,66,127
537323,note_off,,,,,37,0,0,,,4,,,54,64
537328,note_on,,,,,5,0,0,,,1,,,81,104
537329,note_on,,,,,1,0,0,,,4,,,54,127
537364,note_off,,,,,35,0,0,,,4,,,66,64
537370,note_on,,,,,6,0,0,,,4,,,66,127
537406,note_off,,,,,36,0,0,,,4,,,54,64
537416,note_off,,,,,10,0,0,,,2,,,69,64
537420,note_on,,,,,4,0,0,,,2,,,73,107
537420,note_on,,,,,0,0,0,,,4,,,52,127
537449,note_off,,,,,29,0,0,,,4,,,66,64
537461,note_on,,,,,12,0,0,,,4,,,64,127
537496,note_off,,,,,35,0,0,,,4,,,52,64
537497,note_on,,,,,1,0,0,,,1,,,79,104
537499,note_off,,,,,2,0,0,,,1,,,81,64
537504,note_on,,,,,5,0,0,,,4,,,52,127
537538,note_off,,,,,34,0,0,,,4,,,64,64
537544,note_on,,,,,6,0,0,,,4,,,64,127
537580,note_off,,,,,36,0,0,,,4,,,52,64
537586,note_on,,,,,6,0,0,,,2,,,74,107
537587,note_on,,,,,1,0,0,,,4,,,50,127
537589,note_off,,,,,2,0,0,,,2,,,73,64
537621,note_off,,,,,32,0,0,,,4,,,64,64
537627,note_on,,,,,6,0,0,,,4,,,62,127
537663,note_off,,,,,36,0,0,,,4,,,50,64
537664,note_on,,,,,1,0,0,,,1,,,78,104
537666,note_off,,,,,2,0,0,,,1,,,79,64
537669,note_on,,,,,3,0,0,,,4,,,50,127
537703,note_off,,,,,34,0,0,,,4,,,62,64
537709,note_on,,,,,6,0,0,,,4,,,62,127
537745,note_off,,,,,36,0,0,,,4,,,50,64
537751,note_on,,,,,6,0,0,,,2,,,70,108
537752,note_on,,,,,1,0,0,,,4,,,49,127
537754,note_off,,,,,2,0,0,,,2,,,74,64
537788,note_off,,,,,34,0,0,,,4,,,62,64
537794,note_on,,,,,6,0,0,,,4,,,61,127
537829,note_off,,,,,35,0,0,,,4,,,49,64
537832,note_off,,,,,3,0,0,,,1,,,78,64
537836,note_on,,,,,4,0,0,,,2,,,76,107
537837,note_on,,,,,1,0,0,,,4,,,49,127
537870,note_off,,,,,33,0,0,,,4,,,61,64
537877,note_on,,,,,7,0,0,,,4,,,61,127
537912,note_off,,,,,35,0,0,,,4,,,49,64
537913,note_off,,,,,1,0,0,,,2,,,76,64
537919,note_on,,,,,6,0,0,,,2,,,74,107
537920,note_on,,,,,1,0,0,,,2,,,71,106
537920,note_on,,,,,0,0,0,,,4,,,47,127
537922,note_off,,,,,2,0,0,,,2,,,70,64
537954,note_off,,,,,32,0,0,,,4,,,61,64
537960,note_on,,,,,6,0,0,,,4,,,59,127
537996,note_off,,,,,36,0,0,,,4,,,47,64
537997,note_on,,,,,1,0,0,,,1,,,86,104
538002,note_on,,,,,5,0,0,,,4,,,47,127
538038,note_off,,,,,36,0,0,,,4,,,59,64
538044,note_on,,,,,6,0,0,,,4,,,59,127
538079,note_off,,,,,35,0,0,,,4,,,47,64
538079,note_on,,,,,0,0,0,,,1,,,78,104
538085,note_on,,,,,6,0,0,,,4,,,45,127
538089,note_off,,,,,4,0,0,,,2,,,74,64
538089,note_off,,,,,0,0,0,,,2,,,71,64
538123,note_off,,,,,34,0,0,,,4,,,59,64
538128,note_on,,,,,5,0,0,,,4,,,57,127
538163,note_off,,,,,35,0,0,,,4,,,45,64
538163,note_on,,,,,0,0,0,,,1,,,84,104
538164,note_off,,,,,1,0,0,,,1,,,86,64
538168,note_on,,,,,4,0,0,,,4,,,45,127
538204,note_off,,,,,36,0,0,,,4,,,57,64
538210,note_on,,,,,6,0,0,,,4,,,57,127
538245,note_off,,,,,35,0,0,,,4,,,45,64
538245,note_on,,,,,0,0,0,,,1,,,79,104
538248,note_off,,,,,3,0,0,,,1,,,78,64
538251,note_on,,,,,3,0,0,,,4,,,43,127
538288,note_off,,,,,37,0,0,,,4,,,57,64
538294,note_on,,,,,6,0,0,,,4,,,55,127
538328,note_off,,,,,34,0,0,,,4,,,43,64
538329,note_off,,,,,1,0,0,,,1,,,84,64
538329,note_on,,,,,0,0,0,,,1,,,83,104
538333,note_on,,,,,4,0,0,,,4,,,43,127
538369,note_off,,,,,36,0,0,,,4,,,55,64
538375,note_on,,,,,6,0,0,,,4,,,55,127
538412,note_off,,,,,37,0,0,,,4,,,43,64
538416,note_off,,,,,4,0,0,,,1,,,79,64
538419,note_on,,,,,3,0,0,,,2,,,74,107
538420,note_on,,,,,1,0,0,,,4,,,42,127
538455,note_off,,,,,35,0,0,,,4,,,55,64
538461,note_on,,,,,6,0,0,,,4,,,54,127
538495,note_off,,,,,34,0,0,,,4,,,42,64
538496,note_on,,,,,1,0,0,,,1,,,82,104
538498,note_off,,,,,2,0,0,,,1,,,83,64
538502,note_on,,,,,4,0,0,,,4,,,42,127
538538,note_off,,,,,36,0,0,,,4,,,54,64
538545,note_on,,,,,7,0,0,,,4,,,54,127
538580,note_off,,,,,35,0,0,,,4,,,42,64
538586,note_on,,,,,6,0,0,,,4,,,55,127
538586,note_on,,,,,0,0,0,,,2,,,71,106
538587,note_on,,,,,1,0,0,,,4,,,43,127
538589,note_off,,,,,2,0,0,,,2,,,74,64
538612,note_off,,,,,23,0,0,,,1,,,82,64
538618,note_off,,,,,6,0,0,,,4,,,54,64
538619,note_on,,,,,1,0,0,,,1,,,83,104
538659,note_off,,,,,40,0,0,,,2,,,71,64
538665,note_on,,,,,6,0,0,,,2,,,71,106
538694,note_off,,,,,29,0,0,,,1,,,83,64
538700,note_on,,,,,6,0,0,,,1,,,83,104
538738,note_off,,,,,38,0,0,,,2,,,71,64
538746,note_on,,,,,8,0,0,,,4,,,64,127
538775,note_off,,,,,29,0,0,,,1,,,83,64
538784,note_on,,,,,9,0,0,,,2,,,76,107
538817,note_off,,,,,33,0,0,,,4,,,64,64
538823,note_on,,,,,6,0,0,,,4,,,64,127
538859,note_off,,,,,36,0,0,,,2,,,76,64
538865,note_on,,,,,6,0,0,,,2,,,76,107
538897,note_off,,,,,32,0,0,,,4,,,64,64
538903,note_off,,,,,6,0,0,,,4,,,43,64
538904,note_off,,,,,1,0,0,,,4,,,55,64
538904,note_on,,,,,0,0,0,,,2,,,67,127
538905,note_on,,,,,1,0,0,,,4,,,45,127
538905,note_on,,,,,0,0,0,,,4,,,57,127
538938,note_off,,,,,33,0,0,,,2,,,76,64
538938,note_on,,,,,0,0,0,,,1,,,79,104
538979,note_off,,,,,41,0,0,,,2,,,67,64
538980,note_on,,,,,1,0,0,,,2,,,67,127
539013,note_off,,,,,33,0,0,,,1,,,79,64
539018,note_on,,,,,5,0,0,,,1,,,79,104
539053,note_off,,,,,35,0,0,,,2,,,67,64
539059,note_on,,,,,6,0,0,,,4,,,61,127
539093,note_off,,,,,34,0,0,,,1,,,79,64
539101,note_on,,,,,8,0,0,,,2,,,73,107
539136,note_off,,,,,35,0,0,,,4,,,61,64
539141,note_on,,,,,5,0,0,,,4,,,61,127
539176,note_off,,,,,35,0,0,,,2,,,73,64
539182,note_on,,,,,6,0,0,,,2,,,73,107
539212,note_off,,,,,30,0,0,,,2,,,73,64
539213,note_off,,,,,1,0,0,,,4,,,61,64
539218,note_on,,,,,5,0,0,,,2,,,74,107
539219,note_on,,,,,1,0,0,,,4,,,50,127
539219,note_on,,,,,0,0,0,,,4,,,62,127
539224,note_off,,,,,5,0,0,,,4,,,45,64
539225,note_off,,,,,1,0,0,,,4,,,57,64
539375,note_on,,,,,150,0,0,,,4,,,38,127
539472,note_off,,,,,97,0,0,,,2,,,74,64
539472,note_off,,,,,0,0,0,,,4,,,62,64
539472,note_off,,,,,0,0,0,,,4,,,50,64
539793,note_off,,,,,321,0,0,,,4,,,38,64
539895,note_on,,,,,102,0,0,,,1,,,81,110
539991,note_on,,,,,96,0,0,,,1,,,79,110
539999,note_off,,,,,8,0,0,,,1,,,81,64
540079,note_on,,,,,80,0,0,,,1,,,78,110
540095,note_off,,,,,16,0,0,,,1,,,79,64
540172,note_on,,,,,77,0,0,,,2,,,76,113
540183,note_off,,,,,11,0,0,,,1,,,78,64
540251,note_off,,,,,68,0,0,,,2,,,76,64
540260,note_on,,,,,9,0,0,,,2,,,76,117
540265,note_on,,,,,5,0,0,,,4,,,62,127
540285,note_on,,,,,20,0,0,,,2,,,74,117
540288,note_off,,,,,3,0,0,,,2,,,76,64
540310,note_on,,,,,22,0,0,,,4,,,66,127
540348,note_off,,,,,38,0,0,,,4,,,62,64
540354,note_on,,,,,6,0,0,,,2,,,69,119
540392,note_off,,,,,38,0,0,,,4,,,66,64
540398,note_on,,,,,6,0,0,,,4,,,66,127
540432,note_off,,,,,34,0,0,,,2,,,74,64
540437,note_off,,,,,5,0,0,,,2,,,69,64
540443,note_on,,,,,6,0,0,,,4,,,62,127
540446,note_on,,,,,3,0,0,,,2,,,74,117
540481,note_off,,,,,35,0,0,,,4,,,66,64
540487,note_on,,,,,6,0,0,,,4,,,66,127
540523,note_off,,,,,36,0,0,,,4,,,62,64
540531,note_on,,,,,8,0,0,,,2,,,69,119
540567,note_off,,,,,36,0,0,,,4,,,66,64
540575,note_on,,,,,8,0,0,,,4,,,66,127
540613,note_off,,,,,38,0,0,,,2,,,69,64
540619,note_on,,,,,6,0,0,,,4,,,59,127
540658,note_off,,,,,39,0,0,,,4,,,66,64
540665,note_on,,,,,7,0,0,,,4,,,62,127
540704,note_off,,,,,39,0,0,,,4,,,59,64
540709,note_on,,,,,5,0,0,,,4,,,66,127
540713,note_off,,,,,4,0,0,,,2,,,74,64
540715,note_on,,,,,2,0,0,,,2,,,76,117
540734,note_on,,,,,19,0,0,,,2,,,74,117
540738,note_off,,,,,4,0,0,,,2,,,76,64
540754,note_off,,,,,16,0,0,,,4,,,62,64
540757,note_off,,,,,3,0,0,,,2,,,74,64
540758,note_on,,,,,1,0,0,,,2,,,73,117
540762,note_on,,,,,4,0,0,,,4,,,62,127
540780,note_on,,,,,18,0,0,,,2,,,74,117
540781,note_off,,,,,1,0,0,,,2,,,73,64
540803,note_off,,,,,22,0,0,,,4,,,66,64
540806,note_off,,,,,3,0,0,,,2,,,74,64
540807,note_on,,,,,1,0,0,,,2,,,76,117
540809,note_on,,,,,2,0,0,,,4,,,59,127
540845,note_off,,,,,36,0,0,,,4,,,62,64
540852,note_on,,,,,7,0,0,,,4,,,62,127
540891,note_off,,,,,39,0,0,,,4,,,59,64
540899,note_on,,,,,8,0,0,,,4,,,66,127
540900,note_off,,,,,1,0,0,,,2,,,76,64
540901,note_on,,,,,1,0,0,,,1,,,78,114
540936,note_off,,,,,35,0,0,,,4,,,62,64
540942,note_on,,,,,6,0,0,,,4,,,62,127
540978,note_off,,,,,36,0,0,,,4,,,66,64
540984,note_on,,,,,6,0,0,,,2,,,76,117
540984,note_on,,,,,0,0,0,,,4,,,55,127
540986,note_off,,,,,2,0,0,,,1,,,78,64
541022,note_off,,,,,36,0,0,,,4,,,62,64
541028,note_on,,,,,6,0,0,,,4,,,59,127
541065,note_off,,,,,37,0,0,,,4,,,55,64
541070,note_on,,,,,5,0,0,,,1,,,79,114
541071,note_on,,,,,1,0,0,,,4,,,64,127
541073,note_off,,,,,2,0,0,,,2,,,76,64
541108,note_off,,,,,35,0,0,,,4,,,59,64
541114,note_on,,,,,6,0,0,,,4,,,59,127
541152,note_off,,,,,38,0,0,,,4,,,64,64
541158,note_on,,,,,6,0,0,,,4,,,55,127
541196,note_off,,,,,38,0,0,,,4,,,59,64
541202,note_on,,,,,6,0,0,,,4,,,59,127
541238,note_off,,,,,36,0,0,,,4,,,55,64
541244,note_on,,,,,6,0,0,,,4,,,64,127
541252,note_on,,,,,8,0,0,,,2,,,76,117
541260,note_off,,,,,8,0,0,,,1,,,79,64
541283,note_off,,,,,23,0,0,,,4,,,59,64
541290,note_on,,,,,7,0,0,,,4,,,59,127
541329,note_off,,,,,39,0,0,,,4,,,64,64
541336,note_on,,,,,7,0,0,,,2,,,74,117
541337,note_on,,,,,1,0,0,,,4,,,57,127
541343,note_off,,,,,6,0,0,,,2,,,76,64
541372,note_off,,,,,29,0,0,,,4,,,59,64
541378,note_on,,,,,6,0,0,,,4,,,64,127
541414,note_off,,,,,36,0,0,,,4,,,57,64
541420,note_off,,,,,6,0,0,,,2,,,74,64
541420,note_on,,,,,0,0,0,,,2,,,73,117
541421,note_on,,,,,1,0,0,,,2,,,67,127
541457,note_off,,,,,36,0,0,,,4,,,64,64
541465,note_on,,,,,8,0,0,,,4,,,64,127
541501,note_off,,,,,36,0,0,,,2,,,67,64
541503,note_on,,,,,2,0,0,,,2,,,71,116
541507,note_off,,,,,4,0,0,,,2,,,73,64
541508,note_on,,,,,1,0,0,,,4,,,57,127
541546,note_off,,,,,38,0,0,,,4,,,64,64
541553,note_on,,,,,7,0,0,,,4,,,64,127
541592,note_off,,,,,39,0,0,,,4,,,57,64
541594,note_off,,,,,2,0,0,,,2,,,71,64
541598,note_on,,,,,4,0,0,,,2,,,67,127
541599,note_on,,,,,1,0,0,,,2,,,69,119
541638,note_off,,,,,39,0,0,,,4,,,64,64
541644,note_on,,,,,6,0,0,,,4,,,64,127
541682,note_off,,,,,38,0,0,,,2,,,67,64
541682,note_off,,,,,0,0,0,,,2,,,69,64
541689,note_on,,,,,7,0,0,,,2,,,69,119
541689,note_on,,,,,0,0,0,,,4,,,62,127
541725,note_off,,,,,36,0,0,,,4,,,64,64
541731,note_on,,,,,6,0,0,,,4,,,66,127
541767,note_off,,,,,36,0,0,,,4,,,62,64
541773,note_on,,,,,6,0,0,,,2,,,69,119
541775,note_on,,,,,2,0,0,,,1,,,81,114
541808,note_off,,,,,33,0,0,,,2,,,69,64
541812,note_off,,,,,4,0,0,,,4,,,66,64
541817,note_on,,,,,5,0,0,,,4,,,66,127
541835,note_off,,,,,18,0,0,,,2,,,69,64
541860,note_on,,,,,25,0,0,,,1,,,78,110
541862,note_on,,,,,2,0,0,,,4,,,54,127
541863,note_off,,,,,1,0,0,,,1,,,81,64
541904,note_on,,,,,41,0,0,,,4,,,57,127
541938,note_off,,,,,34,0,0,,,4,,,66,64
541939,note_off,,,,,1,0,0,,,4,,,54,64
541944,note_off,,,,,5,0,0,,,1,,,78,64
541946,note_on,,,,,2,0,0,,,4,,,62,127
541950,note_on,,,,,4,0,0,,,2,,,74,113
541982,note_off,,,,,32,0,0,,,4,,,57,64
541988,note_on,,,,,6,0,0,,,4,,,57,127
542025,note_off,,,,,37,0,0,,,4,,,62,64
542030,note_on,,,,,5,0,0,,,4,,,55,127
542031,note_on,,,,,1,0,0,,,2,,,71,116
542034,note_off,,,,,3,0,0,,,2,,,74,64
542065,note_off,,,,,31,0,0,,,4,,,57,64
542073,note_on,,,,,8,0,0,,,4,,,59,127
542109,note_off,,,,,36,0,0,,,4,,,55,64
542115,note_on,,,,,6,0,0,,,4,,,62,127
542117,note_off,,,,,2,0,0,,,2,,,71,64
542123,note_on,,,,,6,0,0,,,1,,,86,114
542153,note_off,,,,,30,0,0,,,4,,,59,64
542161,note_on,,,,,8,0,0,,,4,,,59,127
542196,note_off,,,,,35,0,0,,,4,,,62,64
542204,note_on,,,,,8,0,0,,,4,,,55,127
542209,note_off,,,,,5,0,0,,,1,,,86,64
542209,note_on,,,,,0,0,0,,,1,,,85,114
542240,note_off,,,,,31,0,0,,,4,,,59,64
542246,note_on,,,,,6,0,0,,,4,,,59,127
542247,note_on,,,,,1,0,0,,,1,,,83,110
542249,note_off,,,,,2,0,0,,,1,,,85,64
542284,note_off,,,,,35,0,0,,,4,,,55,64
542288,note_off,,,,,4,0,0,,,1,,,83,64
542290,note_on,,,,,2,0,0,,,1,,,81,110
542290,note_on,,,,,0,0,0,,,4,,,64,127
542327,note_off,,,,,37,0,0,,,4,,,59,64
542331,note_off,,,,,4,0,0,,,1,,,81,64
542331,note_on,,,,,0,0,0,,,1,,,79,110
542334,note_on,,,,,3,0,0,,,4,,,59,127
542372,note_off,,,,,38,0,0,,,4,,,64,64
542380,note_on,,,,,8,0,0,,,4,,,57,127
542380,note_on,,,,,0,0,0,,,1,,,78,110
542383,note_off,,,,,3,0,0,,,1,,,79,64
542416,note_off,,,,,33,0,0,,,4,,,59,64
542423,note_on,,,,,7,0,0,,,4,,,62,127
542460,note_off,,,,,37,0,0,,,4,,,57,64
542468,note_on,,,,,8,0,0,,,4,,,66,127
542505,note_off,,,,,37,0,0,,,4,,,62,64
542508,note_on,,,,,3,0,0,,,1,,,81,114
542510,note_on,,,,,2,0,0,,,4,,,62,127
542512,note_off,,,,,2,0,0,,,1,,,78,64
542547,note_off,,,,,35,0,0,,,4,,,66,64
542553,note_on,,,,,6,0,0,,,4,,,57,127
542556,note_on,,,,,3,0,0,,,2,,,76,117
542557,note_off,,,,,1,0,0,,,1,,,81,64
542589,note_off,,,,,32,0,0,,,4,,,62,64
542597,note_on,,,,,8,0,0,,,4,,,61,127
542631,note_off,,,,,34,0,0,,,4,,,57,64
542640,note_on,,,,,9,0,0,,,4,,,64,127
542676,note_off,,,,,36,0,0,,,4,,,61,64
542682,note_on,,,,,6,0,0,,,4,,,61,127
542718,note_off,,,,,36,0,0,,,4,,,64,64
542724,note_on,,,,,6,0,0,,,4,,,57,127
542760,note_off,,,,,36,0,0,,,4,,,61,64
542814,note_on,,,,,54,0,0,,,1,,,78,110
542815,note_off,,,,,1,0,0,,,2,,,76,64
542899,note_off,,,,,84,0,0,,,1,,,78,64
542899,note_on,,,,,0,0,0,,,1,,,79,110
542990,note_off,,,,,91,0,0,,,1,,,79,64
542990,note_on,,,,,0,0,0,,,1,,,80,110
543072,note_on,,,,,82,0,0,,,4,,,54,127
543079,note_off,,,,,7,0,0,,,4,,,57,64
543081,note_on,,,,,2,0,0,,,1,,,81,110
543083,note_off,,,,,2,0,0,,,1,,,80,64
543118,note_on,,,,,35,0,0,,,4,,,57,127
543156,note_off,,,,,38,0,0,,,4,,,54,64
543164,note_on,,,,,8,0,0,,,4,,,62,127
543202,note_off,,,,,38,0,0,,,4,,,57,64
543208,note_on,,,,,6,0,0,,,4,,,57,127
543245,note_off,,,,,37,0,0,,,4,,,62,64
543253,note_on,,,,,8,0,0,,,4,,,54,127
543255,note_on,,,,,2,0,0,,,1,,,79,110
543259,note_off,,,,,4,0,0,,,1,,,81,64
543290,note_off,,,,,31,0,0,,,4,,,57,64
543296,note_on,,,,,6,0,0,,,1,,,78,110
543298,note_on,,,,,2,0,0,,,4,,,57,127
543300,note_off,,,,,2,0,0,,,1,,,79,64
543336,note_off,,,,,36,0,0,,,4,,,54,64
543342,note_off,,,,,6,0,0,,,1,,,78,64
543343,note_on,,,,,1,0,0,,,2,,,76,117
543345,note_on,,,,,2,0,0,,,4,,,62,127
543384,note_off,,,,,39,0,0,,,4,,,57,64
543385,note_on,,,,,1,0,0,,,2,,,74,117
543389,note_off,,,,,4,0,0,,,2,,,76,64
543391,note_on,,,,,2,0,0,,,4,,,57,127
543430,note_off,,,,,39,0,0,,,4,,,62,64
543433,note_off,,,,,3,0,0,,,2,,,74,64
543437,note_on,,,,,4,0,0,,,4,,,53,127
543438,note_on,,,,,1,0,0,,,2,,,74,117
543474,note_off,,,,,36,0,0,,,4,,,57,64
543481,note_on,,,,,7,0,0,,,4,,,57,127
543520,note_off,,,,,39,0,0,,,4,,,53,64
543526,note_on,,,,,6,0,0,,,4,,,62,127
543564,note_off,,,,,38,0,0,,,4,,,57,64
543572,note_on,,,,,8,0,0,,,4,,,57,127
543610,note_off,,,,,38,0,0,,,4,,,62,64
543611,note_off,,,,,1,0,0,,,2,,,74,64
543617,note_on,,,,,6,0,0,,,2,,,74,117
543617,note_on,,,,,0,0,0,,,4,,,53,127
543654,note_off,,,,,37,0,0,,,4,,,57,64
543662,note_on,,,,,8,0,0,,,4,,,57,127
543700,note_off,,,,,38,0,0,,,4,,,53,64
543706,note_on,,,,,6,0,0,,,4,,,62,127
543744,note_off,,,,,38,0,0,,,4,,,57,64
543752,note_on,,,,,8,0,0,,,4,,,57,127
543791,note_off,,,,,39,0,0,,,4,,,62,64
543796,note_on,,,,,5,0,0,,,4,,,52,127
543798,note_on,,,,,2,0,0,,,1,,,86,114
543804,note_off,,,,,6,0,0,,,2,,,74,64
543833,note_off,,,,,29,0,0,,,4,,,57,64
543839,note_on,,,,,6,0,0,,,4,,,56,127
543875,note_off,,,,,36,0,0,,,4,,,52,64
543883,note_on,,,,,8,0,0,,,4,,,59,127
543917,note_off,,,,,34,0,0,,,4,,,56,64
543925,note_on,,,,,8,0,0,,,4,,,56,127
543961,note_off,,,,,36,0,0,,,4,,,59,64
543968,note_on,,,,,7,0,0,,,4,,,52,127
544006,note_off,,,,,38,0,0,,,4,,,56,64
544013,note_on,,,,,7,0,0,,,4,,,56,127
544049,note_off,,,,,36,0,0,,,4,,,52,64
544056,note_on,,,,,7,0,0,,,4,,,59,127
544093,note_off,,,,,37,0,0,,,4,,,56,64
544101,note_on,,,,,8,0,0,,,4,,,56,127
544103,note_on,,,,,2,0,0,,,1,,,83,114
544106,note_off,,,,,3,0,0,,,1,,,86,64
544137,note_off,,,,,31,0,0,,,4,,,59,64
544145,note_on,,,,,8,0,0,,,4,,,52,127
544151,note_on,,,,,6,0,0,,,1,,,80,114
544154,note_off,,,,,3,0,0,,,1,,,83,64
544181,note_off,,,,,27,0,0,,,4,,,56,64
544189,note_on,,,,,8,0,0,,,4,,,56,127
544225,note_off,,,,,36,0,0,,,4,,,52,64
544231,note_on,,,,,6,0,0,,,4,,,59,127
544270,note_off,,,,,39,0,0,,,4,,,56,64
544275,note_on,,,,,5,0,0,,,4,,,56,127
544314,note_off,,,,,39,0,0,,,4,,,59,64
544318,note_off,,,,,4,0,0,,,1,,,80,64
544318,note_on,,,,,0,0,0,,,2,,,74,117
544320,note_off,,,,,2,0,0,,,4,,,56,64
544321,note_on,,,,,1,0,0,,,4,,,56,127
544364,note_on,,,,,43,0,0,,,4,,,59,127
544400,note_off,,,,,36,0,0,,,4,,,56,64
544408,note_on,,,,,8,0,0,,,4,,,64,127
544444,note_off,,,,,36,0,0,,,4,,,59,64
544451,note_on,,,,,7,0,0,,,4,,,59,127
544485,note_off,,,,,34,0,0,,,2,,,74,64
544488,note_off,,,,,3,0,0,,,4,,,64,64
544496,note_on,,,,,8,0,0,,,2,,,73,117
544497,note_on,,,,,1,0,0,,,4,,,57,127
544534,note_off,,,,,37,0,0,,,4,,,59,64
544541,note_on,,,,,7,0,0,,,2,,,74,117
544547,note_off,,,,,6,0,0,,,2,,,73,64
544585,note_on,,,,,38,0,0,,,2,,,75,117
544593,note_off,,,,,8,0,0,,,2,,,74,64
544628,note_on,,,,,35,0,0,,,2,,,76,117
544637,note_off,,,,,9,0,0,,,2,,,75,64
544670,note_on,,,,,33,0,0,,,4,,,50,127
544670,note_on,,,,,0,0,0,,,2,,,77,117
544679,note_off,,,,,9,0,0,,,2,,,76,64
544679,note_off,,,,,0,0,0,,,4,,,57,64
544718,note_on,,,,,39,0,0,,,1,,,78,114
544720,note_off,,,,,2,0,0,,,2,,,77,64
544760,note_on,,,,,40,0,0,,,1,,,80,114
544768,note_off,,,,,8,0,0,,,1,,,78,64
544802,note_on,,,,,34,0,0,,,1,,,81,114
544810,note_off,,,,,8,0,0,,,1,,,80,64
544835,note_off,,,,,25,0,0,,,4,,,50,64
544843,note_on,,,,,8,0,0,,,4,,,57,127
544843,note_on,,,,,0,0,0,,,4,,,52,127
544850,note_on,,,,,7,0,0,,,2,,,73,117
544853,note_off,,,,,3,0,0,,,1,,,81,64
544890,note_on,,,,,37,0,0,,,2,,,74,117
544900,note_off,,,,,10,0,0,,,2,,,73,64
544934,note_on,,,,,34,0,0,,,2,,,75,117
544940,note_off,,,,,6,0,0,,,2,,,74,64
544974,note_on,,,,,34,0,0,,,2,,,76,117
544984,note_off,,,,,10,0,0,,,2,,,75,64
545007,note_off,,,,,23,0,0,,,4,,,52,64
545007,note_off,,,,,0,0,0,,,4,,,57,64
545014,note_on,,,,,7,0,0,,,4,,,56,127
545014,note_on,,,,,0,0,0,,,2,,,76,117
545015,note_off,,,,,1,0,0,,,2,,,76,64
545015,note_on,,,,,0,0,0,,,4,,,52,127
545058,note_on,,,,,43,0,0,,,2,,,74,117
545064,note_off,,,,,6,0,0,,,2,,,76,64
545102,note_on,,,,,38,0,0,,,2,,,73,117
545110,note_off,,,,,8,0,0,,,2,,,74,64
545145,note_on,,,,,35,0,0,,,2,,,71,116
545154,note_off,,,,,9,0,0,,,2,,,73,64
545196,note_off,,,,,42,0,0,,,2,,,71,64
545199,note_on,,,,,3,0,0,,,2,,,71,108
545200,note_on,,,,,1,0,0,,,4,,,62,127
545200,note_on,,,,,0,0,0,,,4,,,64,118
545201,note_on,,,,,1,0,0,,,4,,,45,127
545201,note_on,,,,,0,0,0,,,4,,,57,127
545202,note_off,,,,,1,0,0,,,4,,,52,64
545202,note_off,,,,,0,0,0,,,4,,,56,64
545365,note_off,,,,,163,0,0,,,2,,,71,64
545366,note_off,,,,,1,0,0,,,4,,,62,64
545366,note_off,,,,,0,0,0,,,4,,,57,64
545380,note_on,,,,,14,0,0,,,4,,,61,127
545380,note_on,,,,,0,0,0,,,2,,,69,118
545438,note_off,,,,,58,0,0,,,4,,,64,64
545551,note_on,,,,,113,0,0,,,1,,,80,110
545595,note_on,,,,,44,0,0,,,1,,,81,110
545597,note_off,,,,,2,0,0,,,2,,,69,64
545601,note_off,,,,,4,0,0,,,1,,,80,64
545634,note_on,,,,,33,0,0,,,1,,,83,110
545644,note_off,,,,,10,0,0,,,1,,,81,64
545675,note_on,,,,,31,0,0,,,1,,,81,110
545684,note_off,,,,,9,0,0,,,1,,,83,64
545711,note_off,,,,,27,0,0,,,1,,,81,64
545717,note_on,,,,,6,0,0,,,1,,,81,110
545726,note_off,,,,,9,0,0,,,4,,,61,64
545763,note_on,,,,,37,0,0,,,1,,,79,110
545769,note_off,,,,,6,0,0,,,1,,,81,64
545807,note_on,,,,,38,0,0,,,1,,,78,110
545815,note_off,,,,,8,0,0,,,1,,,79,64
545849,note_on,,,,,34,0,0,,,2,,,76,113
545859,note_off,,,,,10,0,0,,,1,,,78,64
545895,note_off,,,,,36,0,0,,,2,,,76,64
545897,note_on,,,,,2,0,0,,,4,,,62,127
545899,note_on,,,,,2,0,0,,,2,,,76,113
545920,note_off,,,,,21,0,0,,,4,,,45,64
545921,note_on,,,,,1,0,0,,,2,,,74,117
545923,note_off,,,,,2,0,0,,,2,,,76,64
545944,note_on,,,,,21,0,0,,,4,,,66,127
545983,note_off,,,,,39,0,0,,,4,,,62,64
545988,note_on,,,,,5,0,0,,,2,,,69,118
546025,note_off,,,,,37,0,0,,,4,,,66,64
546031,note_on,,,,,6,0,0,,,4,,,66,127
546065,note_off,,,,,34,0,0,,,2,,,74,64
546067,note_off,,,,,2,0,0,,,2,,,69,64
546073,note_on,,,,,6,0,0,,,4,,,62,127
546077,note_on,,,,,4,0,0,,,2,,,74,117
546109,note_off,,,,,32,0,0,,,4,,,66,64
546117,note_on,,,,,8,0,0,,,4,,,66,127
546152,note_off,,,,,35,0,0,,,4,,,62,64
546159,note_on,,,,,7,0,0,,,2,,,69,118
546196,note_off,,,,,37,0,0,,,4,,,66,64
546202,note_on,,,,,6,0,0,,,4,,,66,127
546238,note_off,,,,,36,0,0,,,2,,,69,64
546244,note_on,,,,,6,0,0,,,4,,,59,127
546280,note_off,,,,,36,0,0,,,4,,,66,64
546286,note_on,,,,,6,0,0,,,4,,,62,127
546290,note_off,,,,,4,0,0,,,2,,,74,64
546290,note_on,,,,,0,0,0,,,1,,,85,110
546322,note_off,,,,,32,0,0,,,4,,,59,64
546327,note_on,,,,,5,0,0,,,4,,,66,127
546331,note_on,,,,,4,0,0,,,1,,,86,110
546339,note_off,,,,,8,0,0,,,1,,,85,64
546366,note_off,,,,,27,0,0,,,4,,,62,64
546373,note_on,,,,,7,0,0,,,4,,,62,127
546375,note_on,,,,,2,0,0,,,1,,,85,110
546383,note_off,,,,,8,0,0,,,1,,,86,64
546408,note_off,,,,,25,0,0,,,4,,,66,64
546414,note_on,,,,,6,0,0,,,4,,,59,127
546416,note_on,,,,,2,0,0,,,1,,,86,110
546425,note_off,,,,,9,0,0,,,1,,,85,64
546451,note_off,,,,,26,0,0,,,4,,,62,64
546456,note_on,,,,,5,0,0,,,4,,,62,127
546460,note_on,,,,,4,0,0,,,1,,,83,114
546479,note_off,,,,,19,0,0,,,1,,,86,64
546492,note_off,,,,,13,0,0,,,4,,,59,64
546498,note_on,,,,,6,0,0,,,4,,,66,127
546502,note_on,,,,,4,0,0,,,1,,,86,110
546523,note_off,,,,,21,0,0,,,1,,,83,64
546535,note_off,,,,,12,0,0,,,4,,,62,64
546540,note_on,,,,,5,0,0,,,4,,,62,127
546548,note_on,,,,,8,0,0,,,1,,,78,114
546565,note_off,,,,,17,0,0,,,1,,,86,64
546577,note_off,,,,,12,0,0,,,4,,,66,64
546590,note_on,,,,,13,0,0,,,4,,,55,127
546592,note_on,,,,,2,0,0,,,2,,,76,117
546612,note_off,,,,,20,0,0,,,1,,,78,64
546617,note_off,,,,,5,0,0,,,4,,,62,64
546623,note_on,,,,,6,0,0,,,4,,,59,127
546665,note_off,,,,,42,0,0,,,4,,,55,64
546666,note_on,,,,,1,0,0,,,4,,,64,127
546701,note_off,,,,,35,0,0,,,4,,,59,64
546708,note_on,,,,,7,0,0,,,2,,,75,113
546709,note_off,,,,,1,0,0,,,2,,,76,64
546709,note_on,,,,,0,0,0,,,4,,,59,127
546742,note_off,,,,,33,0,0,,,4,,,64,64
546748,note_on,,,,,6,0,0,,,4,,,55,127
546754,note_on,,,,,6,0,0,,,2,,,76,113
546756,note_off,,,,,2,0,0,,,2,,,75,64
546784,note_off,,,,,28,0,0,,,4,,,59,64
546791,note_on,,,,,7,0,0,,,4,,,59,127
546794,note_on,,,,,3,0,0,,,1,,,78,106
546802,note_off,,,,,8,0,0,,,2,,,76,64
546827,note_off,,,,,25,0,0,,,4,,,55,64
546832,note_on,,,,,5,0,0,,,4,,,64,127
546836,note_on,,,,,4,0,0,,,1,,,79,106
546842,note_off,,,,,6,0,0,,,1,,,78,64
546871,note_off,,,,,29,0,0,,,4,,,59,64
546876,note_on,,,,,5,0,0,,,4,,,59,127
546878,note_on,,,,,2,0,0,,,2,,,76,109
546886,note_off,,,,,8,0,0,,,1,,,79,64
546911,note_off,,,,,25,0,0,,,4,,,64,64
546917,note_on,,,,,6,0,0,,,4,,,57,127
546921,note_on,,,,,4,0,0,,,2,,,74,109
546925,note_off,,,,,4,0,0,,,2,,,76,64
546952,note_off,,,,,27,0,0,,,4,,,59,64
546957,note_on,,,,,5,0,0,,,4,,,64,127
546988,note_off,,,,,31,0,0,,,2,,,74,64
546992,note_off,,,,,4,0,0,,,4,,,57,64
546996,note_on,,,,,4,0,0,,,2,,,73,113
546997,note_on,,,,,1,0,0,,,2,,,67,127
547031,note_off,,,,,34,0,0,,,4,,,64,64
547036,note_on,,,,,5,0,0,,,4,,,64,127
547071,note_off,,,,,35,0,0,,,2,,,73,64
547072,note_off,,,,,1,0,0,,,2,,,67,64
547079,note_on,,,,,7,0,0,,,4,,,57,127
547086,note_on,,,,,7,0,0,,,2,,,73,105
547105,note_on,,,,,19,0,0,,,2,,,71,104
547109,note_off,,,,,4,0,0,,,2,,,73,64
547121,note_on,,,,,12,0,0,,,2,,,73,105
547128,note_off,,,,,7,0,0,,,2,,,71,64
547136,note_off,,,,,8,0,0,,,4,,,64,64
547138,note_on,,,,,2,0,0,,,2,,,71,104
547144,note_off,,,,,6,0,0,,,2,,,73,64
547144,note_on,,,,,0,0,0,,,4,,,64,127
547153,note_on,,,,,9,0,0,,,2,,,73,105
547159,note_off,,,,,6,0,0,,,2,,,71,64
547168,note_on,,,,,9,0,0,,,2,,,71,104
547173,note_off,,,,,5,0,0,,,2,,,73,64
547180,note_on,,,,,7,0,0,,,2,,,73,105
547186,note_off,,,,,6,0,0,,,2,,,71,64
547191,note_off,,,,,5,0,0,,,4,,,57,64
547193,note_on,,,,,2,0,0,,,2,,,71,104
547198,note_off,,,,,5,0,0,,,2,,,73,64
547198,note_on,,,,,0,0,0,,,2,,,67,127
547202,note_off,,,,,4,0,0,,,2,,,71,64
547203,note_on,,,,,1,0,0,,,2,,,69,118
547213,note_off,,,,,10,0,0,,,2,,,67,64
547233,note_off,,,,,20,0,0,,,4,,,64,64
547239,note_on,,,,,6,0,0,,,4,,,64,127
547273,note_off,,,,,34,0,0,,,2,,,69,64
547283,note_on,,,,,10,0,0,,,2,,,69,118
547283,note_on,,,,,0,0,0,,,4,,,62,127
547288,note_off,,,,,5,0,0,,,4,,,64,64
547319,note_on,,,,,31,0,0,,,1,,,81,110
547319,note_on,,,,,0,0,0,,,4,,,66,127
547350,note_off,,,,,31,0,0,,,4,,,62,64
547354,note_off,,,,,4,0,0,,,2,,,69,64
547355,note_on,,,,,1,0,0,,,2,,,69,118
547387,note_off,,,,,32,0,0,,,4,,,66,64
547388,note_on,,,,,1,0,0,,,4,,,66,127
547427,note_off,,,,,39,0,0,,,2,,,69,64
547428,note_off,,,,,1,0,0,,,1,,,81,64
547429,note_on,,,,,1,0,0,,,1,,,81,110
547430,note_on,,,,,1,0,0,,,4,,,54,127
547444,note_on,,,,,14,0,0,,,1,,,79,110
547446,note_off,,,,,2,0,0,,,1,,,81,64
547454,note_on,,,,,8,0,0,,,1,,,78,110
547456,note_off,,,,,2,0,0,,,1,,,79,64
547482,note_off,,,,,26,0,0,,,4,,,66,64
547485,note_on,,,,,3,0,0,,,4,,,57,127
547519,note_off,,,,,34,0,0,,,4,,,54,64
547523,note_off,,,,,4,0,0,,,1,,,78,64
547525,note_on,,,,,2,0,0,,,1,,,78,110
547527,note_on,,,,,2,0,0,,,4,,,62,127
547533,note_off,,,,,6,0,0,,,1,,,78,64
547535,note_on,,,,,2,0,0,,,2,,,76,113
547557,note_on,,,,,22,0,0,,,2,,,74,113
547566,note_off,,,,,9,0,0,,,2,,,76,64
547579,note_off,,,,,13,0,0,,,4,,,57,64
547584,note_on,,,,,5,0,0,,,4,,,57,127
547608,note_off,,,,,24,0,0,,,2,,,74,64
547617,note_off,,,,,9,0,0,,,4,,,62,64
547625,note_on,,,,,8,0,0,,,4,,,55,127
547625,note_on,,,,,0,0,0,,,2,,,71,116
547664,note_on,,,,,39,0,0,,,2,,,74,113
547674,note_off,,,,,10,0,0,,,2,,,71,64
547710,note_on,,,,,36,0,0,,,2,,,73,117
547729,note_off,,,,,19,0,0,,,2,,,74,64
547768,note_on,,,,,39,0,0,,,2,,,71,116
547788,note_off,,,,,20,0,0,,,2,,,73,64
547793,note_off,,,,,5,0,0,,,4,,,57,64
547808,note_on,,,,,15,0,0,,,2,,,73,117
547813,note_off,,,,,5,0,0,,,2,,,71,64
547818,note_on,,,,,5,0,0,,,4,,,59,127
547844,note_off,,,,,26,0,0,,,2,,,73,64
547844,note_on,,,,,0,0,0,,,2,,,74,113
547882,note_on,,,,,38,0,0,,,2,,,76,113
547883,note_off,,,,,1,0,0,,,2,,,74,64
547916,note_off,,,,,33,0,0,,,2,,,76,64
547917,note_on,,,,,1,0,0,,,1,,,78,110
547947,note_off,,,,,30,0,0,,,4,,,55,64
547951,note_off,,,,,4,0,0,,,1,,,78,64
547951,note_on,,,,,0,0,0,,,1,,,79,110
547970,note_on,,,,,19,0,0,,,4,,,62,127
547986,note_on,,,,,16,0,0,,,1,,,81,110
547987,note_off,,,,,1,0,0,,,1,,,79,64
548022,note_on,,,,,35,0,0,,,1,,,83,110
548023,note_off,,,,,1,0,0,,,1,,,81,64
548063,note_off,,,,,40,0,0,,,1,,,83,64
548063,note_on,,,,,0,0,0,,,1,,,85,110
548103,note_on,,,,,40,0,0,,,1,,,86,110
548107,note_off,,,,,4,0,0,,,1,,,85,64
548116,note_off,,,,,9,0,0,,,4,,,59,64
548155,note_on,,,,,39,0,0,,,4,,,59,127
548160,note_on,,,,,5,0,0,,,1,,,85,110
548161,note_off,,,,,1,0,0,,,1,,,86,64
548205,note_off,,,,,44,0,0,,,1,,,85,64
548205,note_on,,,,,0,0,0,,,1,,,86,110
548244,note_off,,,,,39,0,0,,,1,,,86,64
548247,note_on,,,,,3,0,0,,,1,,,85,110
548285,note_off,,,,,38,0,0,,,4,,,62,64
548301,note_on,,,,,16,0,0,,,4,,,55,127
548301,note_on,,,,,0,0,0,,,1,,,88,112
548308,note_off,,,,,7,0,0,,,1,,,85,64
548332,note_off,,,,,24,0,0,,,1,,,88,64
548346,note_on,,,,,14,0,0,,,1,,,86,114
548380,note_off,,,,,34,0,0,,,4,,,59,64
548393,note_off,,,,,13,0,0,,,1,,,86,64
548396,note_on,,,,,3,0,0,,,4,,,59,127
548396,note_on,,,,,0,0,0,,,1,,,85,114
548443,note_on,,,,,47,0,0,,,1,,,83,114
548450,note_off,,,,,7,0,0,,,1,,,85,64
548473,note_off,,,,,23,0,0,,,4,,,55,64
548485,note_on,,,,,12,0,0,,,4,,,64,127
548485,note_on,,,,,0,0,0,,,1,,,85,114
548493,note_off,,,,,8,0,0,,,1,,,83,64
548532,note_on,,,,,39,0,0,,,1,,,83,114
548538,note_off,,,,,6,0,0,,,1,,,85,64
548559,note_off,,,,,21,0,0,,,4,,,59,64
548570,note_on,,,,,11,0,0,,,1,,,81,114
548571,note_on,,,,,1,0,0,,,4,,,59,127
548576,note_off,,,,,5,0,0,,,1,,,83,64
548611,note_off,,,,,35,0,0,,,1,,,81,64
548616,note_on,,,,,5,0,0,,,1,,,79,114
548652,note_off,,,,,36,0,0,,,4,,,64,64
548656,note_off,,,,,4,0,0,,,1,,,79,64
548662,note_on,,,,,6,0,0,,,1,,,79,114
548662,note_on,,,,,0,0,0,,,4,,,57,127
548703,note_off,,,,,41,0,0,,,4,,,59,64
548709,note_on,,,,,6,0,0,,,1,,,78,114
548709,note_on,,,,,0,0,0,,,4,,,62,127
548717,note_off,,,,,8,0,0,,,1,,,79,64
548750,note_off,,,,,33,0,0,,,4,,,57,64
548758,note_on,,,,,8,0,0,,,2,,,76,117
548758,note_on,,,,,0,0,0,,,4,,,66,127
548764,note_off,,,,,6,0,0,,,1,,,78,64
548797,note_off,,,,,33,0,0,,,4,,,62,64
548803,note_on,,,,,6,0,0,,,4,,,62,127
548803,note_on,,,,,0,0,0,,,1,,,79,110
548811,note_off,,,,,8,0,0,,,2,,,76,64
548848,note_off,,,,,37,0,0,,,4,,,66,64
548856,note_on,,,,,8,0,0,,,4,,,57,127
548856,note_on,,,,,0,0,0,,,1,,,80,110
548862,note_off,,,,,6,0,0,,,1,,,79,64
548891,note_off,,,,,29,0,0,,,4,,,62,64
548897,note_on,,,,,6,0,0,,,1,,,81,110
548897,note_on,,,,,0,0,0,,,4,,,61,127
548905,note_off,,,,,8,0,0,,,1,,,80,64
548934,note_off,,,,,29,0,0,,,4,,,57,64
548942,note_on,,,,,8,0,0,,,2,,,76,113
548942,note_on,,,,,0,0,0,,,4,,,64,127
548949,note_off,,,,,7,0,0,,,1,,,81,64
548976,note_off,,,,,27,0,0,,,4,,,61,64
548983,note_on,,,,,7,0,0,,,4,,,61,127
549016,note_off,,,,,33,0,0,,,4,,,64,64
549022,note_on,,,,,6,0,0,,,4,,,57,127
549056,note_off,,,,,34,0,0,,,4,,,61,64
549060,note_off,,,,,4,0,0,,,2,,,76,64
549062,note_on,,,,,2,0,0,,,2,,,76,113
549102,note_on,,,,,40,0,0,,,2,,,75,113
549108,note_off,,,,,6,0,0,,,2,,,76,64
549143,note_on,,,,,35,0,0,,,2,,,76,113
549149,note_off,,,,,6,0,0,,,2,,,75,64
549183,note_on,,,,,34,0,0,,,2,,,77,113
549191,note_off,,,,,8,0,0,,,2,,,76,64
549225,note_on,,,,,34,0,0,,,1,,,78,110
549231,note_off,,,,,6,0,0,,,2,,,77,64
549265,note_on,,,,,34,0,0,,,1,,,79,110
549273,note_off,,,,,8,0,0,,,1,,,78,64
549308,note_on,,,,,35,0,0,,,1,,,80,110
549315,note_off,,,,,7,0,0,,,1,,,79,64
549352,note_on,,,,,37,0,0,,,4,,,54,127
549352,note_on,,,,,0,0,0,,,1,,,81,110
549360,note_off,,,,,8,0,0,,,1,,,80,64
549368,note_off,,,,,8,0,0,,,4,,,57,64
549397,note_on,,,,,29,0,0,,,4,,,57,127
549426,note_off,,,,,29,0,0,,,4,,,54,64
549432,note_on,,,,,6,0,0,,,4,,,62,127
549464,note_off,,,,,32,0,0,,,4,,,57,64
549470,note_on,,,,,6,0,0,,,4,,,57,127
549499,note_off,,,,,29,0,0,,,4,,,62,64
549505,note_off,,,,,6,0,0,,,1,,,81,64
549505,note_on,,,,,0,0,0,,,1,,,79,110
549506,note_on,,,,,1,0,0,,,4,,,54,127
549537,note_off,,,,,31,0,0,,,4,,,57,64
549541,note_off,,,,,4,0,0,,,1,,,79,64
549542,note_on,,,,,1,0,0,,,4,,,57,127
549542,note_on,,,,,0,0,0,,,1,,,78,110
549571,note_off,,,,,29,0,0,,,4,,,54,64
549575,note_off,,,,,4,0,0,,,1,,,78,64
549576,note_on,,,,,1,0,0,,,1,,,78,109
549577,note_on,,,,,1,0,0,,,4,,,62,127
549599,note_on,,,,,22,0,0,,,2,,,76,112
549610,note_off,,,,,11,0,0,,,1,,,78,64
549630,note_on,,,,,20,0,0,,,1,,,78,109
549643,note_off,,,,,13,0,0,,,2,,,76,64
549656,note_on,,,,,13,0,0,,,2,,,76,112
549668,note_off,,,,,12,0,0,,,1,,,78,64
549675,note_off,,,,,7,0,0,,,4,,,57,64
549685,note_on,,,,,10,0,0,,,2,,,74,112
549689,note_off,,,,,4,0,0,,,2,,,76,64
549689,note_on,,,,,0,0,0,,,4,,,57,127
549751,note_off,,,,,62,0,0,,,4,,,62,64
549765,note_off,,,,,14,0,0,,,2,,,74,64
549771,note_on,,,,,6,0,0,,,4,,,53,127
549771,note_on,,,,,0,0,0,,,2,,,76,112
549808,note_on,,,,,37,0,0,,,2,,,74,112
549827,note_off,,,,,19,0,0,,,2,,,76,64
549851,note_on,,,,,24,0,0,,,2,,,76,112
549864,note_off,,,,,13,0,0,,,2,,,74,64
549885,note_on,,,,,21,0,0,,,2,,,74,112
549900,note_off,,,,,15,0,0,,,2,,,76,64
549908,note_off,,,,,8,0,0,,,4,,,57,64
549919,note_on,,,,,11,0,0,,,2,,,76,112
549931,note_on,,,,,12,0,0,,,4,,,57,127
549935,note_off,,,,,4,0,0,,,2,,,74,64
549956,note_on,,,,,21,0,0,,,2,,,74,112
549971,note_off,,,,,15,0,0,,,2,,,76,64
549991,note_on,,,,,20,0,0,,,2,,,76,108
550004,note_off,,,,,13,0,0,,,2,,,74,64
550021,note_on,,,,,17,0,0,,,2,,,74,108
550035,note_off,,,,,14,0,0,,,2,,,76,64
550050,note_off,,,,,15,0,0,,,4,,,53,64
550054,note_on,,,,,4,0,0,,,2,,,76,108
550068,note_off,,,,,14,0,0,,,2,,,74,64
550071,note_on,,,,,3,0,0,,,4,,,62,127
550085,note_on,,,,,14,0,0,,,2,,,74,108
550100,note_off,,,,,15,0,0,,,2,,,76,64
550117,note_on,,,,,17,0,0,,,2,,,76,108
550129,note_off,,,,,12,0,0,,,2,,,74,64
550148,note_on,,,,,19,0,0,,,2,,,74,108
550162,note_off,,,,,14,0,0,,,2,,,76,64
550179,note_on,,,,,17,0,0,,,2,,,76,108
550185,note_off,,,,,6,0,0,,,4,,,57,64
550190,note_off,,,,,5,0,0,,,2,,,74,64
550204,note_on,,,,,14,0,0,,,4,,,57,127
550208,note_on,,,,,4,0,0,,,2,,,74,108
550219,note_off,,,,,11,0,0,,,2,,,76,64
550236,note_on,,,,,17,0,0,,,2,,,73,112
550248,note_off,,,,,12,0,0,,,2,,,74,64
550265,note_on,,,,,17,0,0,,,2,,,74,108
550277,note_off,,,,,12,0,0,,,2,,,73,64
550304,note_off,,,,,27,0,0,,,4,,,62,64
550317,note_on,,,,,13,0,0,,,4,,,53,127
550352,note_off,,,,,35,0,0,,,2,,,74,64
550371,note_on,,,,,19,0,0,,,2,,,76,108
550417,note_on,,,,,46,0,0,,,2,,,74,108
550425,note_off,,,,,8,0,0,,,2,,,76,64
550453,note_off,,,,,28,0,0,,,4,,,57,64
550463,note_on,,,,,10,0,0,,,2,,,73,112
550469,note_off,,,,,6,0,0,,,2,,,74,64
550482,note_on,,,,,13,0,0,,,4,,,57,127
550505,note_on,,,,,23,0,0,,,2,,,74,108
550513,note_off,,,,,8,0,0,,,2,,,73,64
550548,note_on,,,,,35,0,0,,,2,,,75,108
550553,note_off,,,,,5,0,0,,,2,,,74,64
550586,note_on,,,,,33,0,0,,,2,,,76,108
550592,note_off,,,,,6,0,0,,,2,,,75,64
550626,note_on,,,,,34,0,0,,,2,,,77,108
550628,note_off,,,,,2,0,0,,,4,,,53,64
550632,note_off,,,,,4,0,0,,,2,,,76,64
550657,note_on,,,,,25,0,0,,,4,,,62,127
550668,note_on,,,,,11,0,0,,,1,,,78,105
550674,note_off,,,,,6,0,0,,,2,,,77,64
550707,note_on,,,,,33,0,0,,,1,,,79,105
550713,note_off,,,,,6,0,0,,,1,,,78,64
550747,note_on,,,,,34,0,0,,,1,,,80,105
550753,note_off,,,,,6,0,0,,,1,,,79,64
550788,note_on,,,,,35,0,0,,,1,,,81,105
550793,note_off,,,,,5,0,0,,,1,,,80,64
550801,note_off,,,,,8,0,0,,,4,,,57,64
550822,note_on,,,,,21,0,0,,,1,,,82,105
550823,note_on,,,,,1,0,0,,,4,,,57,127
550827,note_off,,,,,4,0,0,,,1,,,81,64
550854,note_on,,,,,27,0,0,,,1,,,83,105
550858,note_off,,,,,4,0,0,,,1,,,82,64
550881,note_on,,,,,23,0,0,,,1,,,84,109
550884,note_off,,,,,3,0,0,,,1,,,83,64
550908,note_on,,,,,24,0,0,,,1,,,85,109
550912,note_off,,,,,4,0,0,,,1,,,84,64
550926,note_off,,,,,14,0,0,,,4,,,62,64
550941,note_on,,,,,15,0,0,,,4,,,52,127
550945,note_off,,,,,4,0,0,,,1,,,85,64
550968,note_on,,,,,23,0,0,,,1,,,86,109
551004,note_on,,,,,36,0,0,,,1,,,88,111
551012,note_off,,,,,8,0,0,,,1,,,86,64
551033,note_on,,,,,21,0,0,,,1,,,86,109
551045,note_off,,,,,12,0,0,,,1,,,88,64
551047,note_off,,,,,2,0,0,,,4,,,57,64
551064,note_on,,,,,17,0,0,,,4,,,56,127
551064,note_on,,,,,0,0,0,,,1,,,88,107
551073,note_off,,,,,9,0,0,,,1,,,86,64
551092,note_on,,,,,19,0,0,,,1,,,86,105
551105,note_off,,,,,13,0,0,,,1,,,88,64
551126,note_on,,,,,21,0,0,,,1,,,88,107
551134,note_off,,,,,8,0,0,,,1,,,86,64
551157,note_on,,,,,23,0,0,,,1,,,86,105
551171,note_off,,,,,14,0,0,,,1,,,88,64
551171,note_off,,,,,0,0,0,,,4,,,52,64
551192,note_on,,,,,21,0,0,,,4,,,59,127
551192,note_on,,,,,0,0,0,,,1,,,88,107
551200,note_off,,,,,8,0,0,,,1,,,86,64
551221,note_on,,,,,21,0,0,,,1,,,86,105
551235,note_off,,,,,14,0,0,,,1,,,88,64
551256,note_on,,,,,21,0,0,,,1,,,88,107
551264,note_off,,,,,8,0,0,,,1,,,86,64
551285,note_on,,,,,21,0,0,,,1,,,86,109
551296,note_off,,,,,11,0,0,,,1,,,88,64
551298,note_off,,,,,2,0,0,,,4,,,56,64
551317,note_on,,,,,19,0,0,,,1,,,85,109
551318,note_on,,,,,1,0,0,,,4,,,56,127
551326,note_off,,,,,8,0,0,,,1,,,86,64
551349,note_off,,,,,23,0,0,,,1,,,85,64
551363,note_on,,,,,14,0,0,,,1,,,86,109
551391,note_off,,,,,28,0,0,,,1,,,86,64
551393,note_off,,,,,2,0,0,,,4,,,59,64
551409,note_on,,,,,16,0,0,,,1,,,85,109
551410,note_on,,,,,1,0,0,,,4,,,52,127
551440,note_on,,,,,30,0,0,,,1,,,83,109
551452,note_off,,,,,12,0,0,,,1,,,85,64
551473,note_on,,,,,21,0,0,,,1,,,85,109
551479,note_off,,,,,6,0,0,,,1,,,83,64
551498,note_on,,,,,19,0,0,,,1,,,83,109
551509,note_off,,,,,11,0,0,,,1,,,85,64
551510,note_off,,,,,1,0,0,,,4,,,56,64
551527,note_on,,,,,17,0,0,,,1,,,85,105
551527,note_on,,,,,0,0,0,,,4,,,56,127
551535,note_off,,,,,8,0,0,,,1,,,83,64
551555,note_on,,,,,20,0,0,,,1,,,83,105
551566,note_off,,,,,11,0,0,,,1,,,85,64
551585,note_on,,,,,19,0,0,,,1,,,85,105
551593,note_off,,,,,8,0,0,,,1,,,83,64
551610,note_on,,,,,17,0,0,,,1,,,83,105
551622,note_off,,,,,12,0,0,,,1,,,85,64
551624,note_off,,,,,2,0,0,,,4,,,52,64
551641,note_on,,,,,17,0,0,,,4,,,59,127
551641,note_on,,,,,0,0,0,,,1,,,85,105
551648,note_off,,,,,7,0,0,,,1,,,83,64
551665,note_on,,,,,17,0,0,,,1,,,83,105
551676,note_off,,,,,11,0,0,,,1,,,85,64
551694,note_on,,,,,18,0,0,,,1,,,85,109
551701,note_off,,,,,7,0,0,,,1,,,83,64
551719,note_on,,,,,18,0,0,,,1,,,83,109
551730,note_off,,,,,11,0,0,,,1,,,85,64
551732,note_off,,,,,2,0,0,,,4,,,56,64
551748,note_on,,,,,16,0,0,,,4,,,56,127
551748,note_on,,,,,0,0,0,,,1,,,82,109
551754,note_off,,,,,6,0,0,,,1,,,83,64
551781,note_off,,,,,27,0,0,,,1,,,82,64
551798,note_on,,,,,17,0,0,,,1,,,83,105
551831,note_off,,,,,33,0,0,,,4,,,59,64
551846,note_on,,,,,15,0,0,,,1,,,81,105
551847,note_on,,,,,1,0,0,,,4,,,52,127
551867,note_off,,,,,20,0,0,,,1,,,83,64
551876,note_on,,,,,9,0,0,,,1,,,80,105
551890,note_off,,,,,14,0,0,,,1,,,81,64
551911,note_on,,,,,21,0,0,,,1,,,81,105
551921,note_off,,,,,10,0,0,,,1,,,80,64
551941,note_on,,,,,20,0,0,,,1,,,80,105
551953,note_off,,,,,12,0,0,,,1,,,81,64
551955,note_off,,,,,2,0,0,,,4,,,56,64
551975,note_on,,,,,20,0,0,,,4,,,56,127
551975,note_on,,,,,0,0,0,,,1,,,81,101
551983,note_off,,,,,8,0,0,,,1,,,80,64
552002,note_on,,,,,19,0,0,,,1,,,80,101
552013,note_off,,,,,11,0,0,,,1,,,81,64
552035,note_on,,,,,22,0,0,,,1,,,81,101
552044,note_off,,,,,9,0,0,,,1,,,80,64
552064,note_on,,,,,20,0,0,,,1,,,80,101
552075,note_off,,,,,11,0,0,,,1,,,81,64
552077,note_off,,,,,2,0,0,,,4,,,52,64
552095,note_on,,,,,18,0,0,,,4,,,59,127
552095,note_on,,,,,0,0,0,,,1,,,81,101
552103,note_off,,,,,8,0,0,,,1,,,80,64
552122,note_on,,,,,19,0,0,,,1,,,80,101
552133,note_off,,,,,11,0,0,,,1,,,81,64
552151,note_on,,,,,18,0,0,,,1,,,81,101
552158,note_off,,,,,7,0,0,,,1,,,80,64
552176,note_on,,,,,18,0,0,,,1,,,80,105
552186,note_off,,,,,10,0,0,,,1,,,81,64
552188,note_off,,,,,2,0,0,,,4,,,56,64
552205,note_on,,,,,17,0,0,,,4,,,56,127
552205,note_on,,,,,0,0,0,,,1,,,78,109
552212,note_off,,,,,7,0,0,,,1,,,80,64
552239,note_off,,,,,27,0,0,,,1,,,78,64
552252,note_on,,,,,13,0,0,,,1,,,80,105
552275,note_off,,,,,23,0,0,,,4,,,56,64
552277,note_off,,,,,2,0,0,,,4,,,59,64
552294,note_on,,,,,17,0,0,,,4,,,56,127
552294,note_on,,,,,0,0,0,,,2,,,76,112
552314,note_off,,,,,20,0,0,,,1,,,80,64
552324,note_on,,,,,10,0,0,,,2,,,74,112
552337,note_off,,,,,13,0,0,,,2,,,76,64
552359,note_on,,,,,22,0,0,,,2,,,76,112
552366,note_off,,,,,7,0,0,,,2,,,74,64
552389,note_on,,,,,23,0,0,,,2,,,74,112
552401,note_off,,,,,12,0,0,,,2,,,76,64
552422,note_on,,,,,21,0,0,,,4,,,59,127
552422,note_on,,,,,0,0,0,,,2,,,76,108
552431,note_off,,,,,9,0,0,,,2,,,74,64
552450,note_on,,,,,19,0,0,,,2,,,74,108
552463,note_off,,,,,13,0,0,,,2,,,76,64
552484,note_on,,,,,21,0,0,,,2,,,76,108
552490,note_off,,,,,6,0,0,,,2,,,74,64
552511,note_on,,,,,21,0,0,,,2,,,74,108
552521,note_off,,,,,10,0,0,,,2,,,76,64
552523,note_off,,,,,2,0,0,,,4,,,56,64
552538,note_on,,,,,15,0,0,,,2,,,76,108
552539,note_on,,,,,1,0,0,,,4,,,64,127
552547,note_off,,,,,8,0,0,,,2,,,74,64
552562,note_on,,,,,15,0,0,,,2,,,74,108
552574,note_off,,,,,12,0,0,,,2,,,76,64
552591,note_on,,,,,17,0,0,,,2,,,76,108
552599,note_off,,,,,8,0,0,,,2,,,74,64
552616,note_on,,,,,17,0,0,,,2,,,74,112
552627,note_off,,,,,11,0,0,,,2,,,76,64
552628,note_off,,,,,1,0,0,,,4,,,59,64
552644,note_on,,,,,16,0,0,,,4,,,59,127
552644,note_on,,,,,0,0,0,,,2,,,73,117
552648,note_off,,,,,4,0,0,,,2,,,74,64
552695,note_on,,,,,47,0,0,,,2,,,74,117
552710,note_off,,,,,15,0,0,,,2,,,73,64
552729,note_off,,,,,19,0,0,,,4,,,64,64
552748,note_on,,,,,19,0,0,,,2,,,73,117
552749,note_on,,,,,1,0,0,,,4,,,57,127
552767,note_off,,,,,18,0,0,,,2,,,74,64
552803,note_on,,,,,36,0,0,,,2,,,74,117
552820,note_off,,,,,17,0,0,,,2,,,73,64
552845,note_off,,,,,25,0,0,,,4,,,59,64
552863,note_on,,,,,18,0,0,,,2,,,73,117
552882,note_off,,,,,19,0,0,,,2,,,74,64
552916,note_on,,,,,34,0,0,,,2,,,74,117
552934,note_off,,,,,18,0,0,,,2,,,73,64
552970,note_on,,,,,36,0,0,,,2,,,75,117
552987,note_off,,,,,17,0,0,,,2,,,74,64
553022,note_on,,,,,35,0,0,,,2,,,76,117
553039,note_off,,,,,17,0,0,,,2,,,75,64
553081,note_on,,,,,42,0,0,,,2,,,75,117
553103,note_off,,,,,22,0,0,,,2,,,76,64
553137,note_on,,,,,34,0,0,,,2,,,76,117
553154,note_off,,,,,17,0,0,,,2,,,75,64
553172,note_off,,,,,18,0,0,,,4,,,57,64
553189,note_on,,,,,17,0,0,,,4,,,50,127
553189,note_on,,,,,0,0,0,,,2,,,77,117
553205,note_off,,,,,16,0,0,,,2,,,76,64
553236,note_on,,,,,31,0,0,,,1,,,78,114
553251,note_off,,,,,15,0,0,,,2,,,77,64
553290,note_on,,,,,39,0,0,,,2,,,77,117
553307,note_off,,,,,17,0,0,,,1,,,78,64
553340,note_on,,,,,33,0,0,,,1,,,78,114
553357,note_off,,,,,17,0,0,,,2,,,77,64
553395,note_on,,,,,38,0,0,,,1,,,80,114
553413,note_off,,,,,18,0,0,,,1,,,78,64
553447,note_on,,,,,34,0,0,,,1,,,81,114
553463,note_off,,,,,16,0,0,,,1,,,80,64
553501,note_on,,,,,38,0,0,,,1,,,80,114
553516,note_off,,,,,15,0,0,,,1,,,81,64
553547,note_on,,,,,31,0,0,,,1,,,81,114
553562,note_off,,,,,15,0,0,,,1,,,80,64
553576,note_off,,,,,14,0,0,,,4,,,50,64
553589,note_on,,,,,13,0,0,,,2,,,73,117
553590,note_on,,,,,1,0,0,,,4,,,52,127
553590,note_on,,,,,0,0,0,,,4,,,57,127
553634,note_off,,,,,44,0,0,,,1,,,81,64
553656,note_on,,,,,22,0,0,,,2,,,74,117
553665,note_off,,,,,9,0,0,,,2,,,73,64
553713,note_on,,,,,48,0,0,,,2,,,75,117
553723,note_off,,,,,10,0,0,,,2,,,74,64
553771,note_on,,,,,48,0,0,,,2,,,76,117
553780,note_off,,,,,9,0,0,,,2,,,75,64
553817,note_off,,,,,37,0,0,,,4,,,57,64
553817,note_off,,,,,0,0,0,,,4,,,52,64
553824,note_off,,,,,7,0,0,,,2,,,76,64
553825,note_on,,,,,1,0,0,,,2,,,76,117
553826,note_on,,,,,1,0,0,,,4,,,52,127
553826,note_on,,,,,0,0,0,,,4,,,56,127
553882,note_on,,,,,56,0,0,,,2,,,74,117
553892,note_off,,,,,10,0,0,,,2,,,76,64
553942,note_on,,,,,50,0,0,,,2,,,73,117
553951,note_off,,,,,9,0,0,,,2,,,74,64
554003,note_on,,,,,52,0,0,,,2,,,71,116
554015,note_off,,,,,12,0,0,,,2,,,73,64
554053,note_off,,,,,38,0,0,,,4,,,56,64
554053,note_off,,,,,0,0,0,,,4,,,52,64
554060,note_off,,,,,7,0,0,,,2,,,71,64
554062,note_on,,,,,2,0,0,,,2,,,71,116
554069,note_on,,,,,7,0,0,,,4,,,64,118
554070,note_on,,,,,1,0,0,,,4,,,57,127
554070,note_on,,,,,0,0,0,,,4,,,62,127
554071,note_on,,,,,1,0,0,,,4,,,45,127
554071,note_on,,,,,0,0,0,,,4,,,52,127
554282,note_off,,,,,211,0,0,,,2,,,71,64
554292,note_off,,,,,10,0,0,,,4,,,62,64
554296,note_on,,,,,4,0,0,,,4,,,61,127
554296,note_on,,,,,0,0,0,,,2,,,69,118
554368,note_off,,,,,72,0,0,,,4,,,64,64
554485,note_on,,,,,117,0,0,,,1,,,81,114
554527,note_off,,,,,42,0,0,,,2,,,69,64
554568,note_on,,,,,41,0,0,,,1,,,83,114
554572,note_off,,,,,4,0,0,,,1,,,81,64
554595,note_off,,,,,23,0,0,,,4,,,61,64
554645,note_off,,,,,50,0,0,,,1,,,83,64
554652,note_on,,,,,7,0,0,,,1,,,84,114
554729,note_off,,,,,77,0,0,,,1,,,84,64
554731,note_on,,,,,2,0,0,,,2,,,76,117
554806,note_on,,,,,75,0,0,,,2,,,75,117
554807,note_on,,,,,1,0,0,,,2,,,69,118
554807,note_on,,,,,0,0,0,,,2,,,72,117
554809,note_off,,,,,2,0,0,,,2,,,76,64
554834,note_off,,,,,25,0,0,,,4,,,57,64
554960,note_off,,,,,126,0,0,,,2,,,75,64
554983,note_on,,,,,23,0,0,,,2,,,76,117
554988,note_on,,,,,5,0,0,,,2,,,71,116
554989,note_on,,,,,1,0,0,,,2,,,68,120
554999,note_off,,,,,10,0,0,,,2,,,69,64
555001,note_off,,,,,2,0,0,,,2,,,72,64
555145,note_on,,,,,144,0,0,,,1,,,86,114
555162,note_off,,,,,17,0,0,,,2,,,76,64
555176,note_off,,,,,14,0,0,,,2,,,71,64
555176,note_off,,,,,0,0,0,,,2,,,68,64
555188,note_on,,,,,12,0,0,,,2,,,73,117
555189,note_on,,,,,1,0,0,,,2,,,70,118
555189,note_on,,,,,0,0,0,,,2,,,67,127
555222,note_off,,,,,33,0,0,,,1,,,86,64
555350,note_off,,,,,128,0,0,,,2,,,67,64
555351,note_off,,,,,1,0,0,,,2,,,70,64
555351,note_off,,,,,0,0,0,,,2,,,73,64
555357,note_on,,,,,6,0,0,,,2,,,74,117
555371,note_on,,,,,14,0,0,,,2,,,69,118
555371,note_on,,,,,0,0,0,,,4,,,66,127
555517,note_on,,,,,146,0,0,,,1,,,81,114
555552,note_off,,,,,35,0,0,,,2,,,74,64
555558,note_off,,,,,6,0,0,,,4,,,66,64
555558,note_off,,,,,0,0,0,,,2,,,69,64
555565,note_on,,,,,7,0,0,,,2,,,71,116
555565,note_on,,,,,0,0,0,,,2,,,74,117
555565,note_on,,,,,0,0,0,,,1,,,86,114
555612,note_off,,,,,47,0,0,,,1,,,81,64
555616,note_off,,,,,4,0,0,,,1,,,86,64
555618,note_on,,,,,2,0,0,,,1,,,86,114
555645,note_off,,,,,27,0,0,,,4,,,52,64
555670,note_on,,,,,25,0,0,,,2,,,69,118
555682,note_off,,,,,12,0,0,,,2,,,71,64
555716,note_off,,,,,34,0,0,,,1,,,86,64
555718,note_on,,,,,2,0,0,,,1,,,85,114
555756,note_off,,,,,38,0,0,,,2,,,74,64
555764,note_on,,,,,8,0,0,,,2,,,74,117
555765,note_on,,,,,1,0,0,,,2,,,67,127
555775,note_off,,,,,10,0,0,,,2,,,69,64
555811,note_on,,,,,36,0,0,,,1,,,83,114
555821,note_off,,,,,10,0,0,,,1,,,85,64
555855,note_on,,,,,34,0,0,,,4,,,66,127
555865,note_off,,,,,10,0,0,,,2,,,67,64
555900,note_on,,,,,35,0,0,,,1,,,82,114
555909,note_off,,,,,9,0,0,,,1,,,83,64
555936,note_off,,,,,27,0,0,,,2,,,74,64
555944,note_on,,,,,8,0,0,,,2,,,74,117
555944,note_on,,,,,0,0,0,,,2,,,76,117
555945,note_on,,,,,1,0,0,,,2,,,67,127
555952,note_off,,,,,7,0,0,,,4,,,66,64
555987,note_on,,,,,35,0,0,,,1,,,83,114
555995,note_off,,,,,8,0,0,,,1,,,82,64
556035,note_on,,,,,40,0,0,,,4,,,66,127
556044,note_off,,,,,9,0,0,,,2,,,67,64
556077,note_on,,,,,33,0,0,,,1,,,81,114
556087,note_off,,,,,10,0,0,,,1,,,83,64
556116,note_off,,,,,29,0,0,,,2,,,76,64
556116,note_off,,,,,0,0,0,,,2,,,74,64
556124,note_on,,,,,8,0,0,,,2,,,74,117
556125,note_on,,,,,1,0,0,,,4,,,64,126
556133,note_off,,,,,8,0,0,,,4,,,66,64
556169,note_on,,,,,36,0,0,,,1,,,79,114
556179,note_off,,,,,10,0,0,,,1,,,81,64
556213,note_on,,,,,34,0,0,,,4,,,62,127
556225,note_off,,,,,12,0,0,,,4,,,64,64
556262,note_on,,,,,37,0,0,,,1,,,78,114
556273,note_off,,,,,11,0,0,,,1,,,79,64
556302,note_off,,,,,29,0,0,,,2,,,74,64
556310,note_on,,,,,8,0,0,,,4,,,61,127
556310,note_on,,,,,0,0,0,,,1,,,81,114
556320,note_off,,,,,10,0,0,,,4,,,62,64
556358,note_on,,,,,38,0,0,,,4,,,64,126
556368,note_off,,,,,10,0,0,,,1,,,78,64
556403,note_off,,,,,35,0,0,,,4,,,61,64
556406,note_on,,,,,3,0,0,,,1,,,79,114
556407,note_on,,,,,1,0,0,,,2,,,69,118
556413,note_off,,,,,6,0,0,,,4,,,45,64
556415,note_off,,,,,2,0,0,,,1,,,81,64
556448,note_off,,,,,33,0,0,,,4,,,64,64
556450,note_on,,,,,2,0,0,,,4,,,64,126
556492,note_off,,,,,42,0,0,,,2,,,69,64
556494,note_on,,,,,2,0,0,,,4,,,62,127
556538,note_off,,,,,44,0,0,,,4,,,64,64
556540,note_on,,,,,2,0,0,,,4,,,66,127
556569,note_off,,,,,29,0,0,,,1,,,79,64
556580,note_off,,,,,11,0,0,,,4,,,62,64
556582,note_on,,,,,2,0,0,,,2,,,69,118
556584,note_on,,,,,2,0,0,,,1,,,78,114
556622,note_off,,,,,38,0,0,,,4,,,66,64
556626,note_on,,,,,4,0,0,,,4,,,66,127
556670,note_off,,,,,44,0,0,,,2,,,69,64
556671,note_on,,,,,1,0,0,,,4,,,61,127
556674,note_off,,,,,3,0,0,,,1,,,78,64
556675,note_on,,,,,1,0,0,,,2,,,75,117
556712,note_off,,,,,37,0,0,,,4,,,66,64
556717,note_on,,,,,5,0,0,,,4,,,64,126
556757,note_off,,,,,40,0,0,,,4,,,61,64
556761,note_off,,,,,4,0,0,,,2,,,75,64
556761,note_on,,,,,0,0,0,,,2,,,76,117
556762,note_on,,,,,1,0,0,,,2,,,69,118
556804,note_off,,,,,42,0,0,,,4,,,64,64
556806,note_on,,,,,2,0,0,,,4,,,64,126
556848,note_off,,,,,42,0,0,,,2,,,69,64
556850,note_on,,,,,2,0,0,,,4,,,59,127
556893,note_off,,,,,43,0,0,,,4,,,64,64
556895,note_on,,,,,2,0,0,,,4,,,62,127
556931,note_off,,,,,36,0,0,,,2,,,76,64
556936,note_off,,,,,5,0,0,,,4,,,59,64
556939,note_on,,,,,3,0,0,,,2,,,74,117
556939,note_on,,,,,0,0,0,,,2,,,68,120
556983,note_off,,,,,44,0,0,,,4,,,62,64
556984,note_on,,,,,1,0,0,,,4,,,62,127
557024,note_off,,,,,40,0,0,,,2,,,74,64
557030,note_off,,,,,6,0,0,,,2,,,68,64
557032,note_on,,,,,2,0,0,,,4,,,64,126
557032,note_on,,,,,0,0,0,,,2,,,69,118
557032,note_on,,,,,0,0,0,,,2,,,74,117
557033,note_on,,,,,1,0,0,,,4,,,57,127
557041,note_off,,,,,8,0,0,,,4,,,62,64
557082,note_off,,,,,41,0,0,,,2,,,74,64
557082,note_on,,,,,0,0,0,,,2,,,73,117
557131,note_on,,,,,49,0,0,,,1,,,78,114
557173,note_off,,,,,42,0,0,,,2,,,73,64
557183,note_on,,,,,10,0,0,,,2,,,76,117
557190,note_off,,,,,7,0,0,,,1,,,78,64
557215,note_off,,,,,25,0,0,,,2,,,76,64
557231,note_off,,,,,16,0,0,,,2,,,69,64
557231,note_on,,,,,0,0,0,,,2,,,76,117
557329,note_off,,,,,98,0,0,,,4,,,64,64
557454,note_on,,,,,125,0,0,,,2,,,77,117
557456,note_off,,,,,2,0,0,,,2,,,76,64
557500,note_on,,,,,44,0,0,,,1,,,78,114
557508,note_off,,,,,8,0,0,,,2,,,77,64
557544,note_on,,,,,36,0,0,,,2,,,73,117
557552,note_off,,,,,8,0,0,,,1,,,78,64
557591,note_off,,,,,39,0,0,,,4,,,57,64
557591,note_on,,,,,0,0,0,,,2,,,74,117
557599,note_off,,,,,8,0,0,,,2,,,73,64
557636,note_on,,,,,37,0,0,,,2,,,70,118
557643,note_off,,,,,7,0,0,,,2,,,74,64
557680,note_on,,,,,37,0,0,,,2,,,71,116
557688,note_off,,,,,8,0,0,,,2,,,70,64
557728,note_on,,,,,40,0,0,,,2,,,68,120
557734,note_off,,,,,6,0,0,,,2,,,71,64
557774,note_on,,,,,40,0,0,,,2,,,71,116
557784,note_off,,,,,10,0,0,,,2,,,68,64
557837,note_on,,,,,53,0,0,,,2,,,69,118
557851,note_off,,,,,14,0,0,,,2,,,71,64
557906,note_off,,,,,55,0,0,,,2,,,69,64
557908,note_on,,,,,2,0,0,,,2,,,69,118
557977,note_off,,,,,69,0,0,,,2,,,69,64
557979,note_on,,,,,2,0,0,,,2,,,69,118
558064,note_off,,,,,85,0,0,,,2,,,69,64
558066,note_on,,,,,2,0,0,,,2,,,69,118
558279,note_on,,,,,213,0,0,,,1,,,81,110
558377,note_off,,,,,98,0,0,,,2,,,69,64
558471,note_off,,,,,94,0,0,,,1,,,81,64
558492,note_on,,,,,21,0,0,,,1,,,81,110
558534,note_off,,,,,42,0,0,,,1,,,81,64
558535,note_on,,,,,1,0,0,,,1,,,79,110
558609,note_off,,,,,74,0,0,,,1,,,79,64
558614,note_on,,,,,5,0,0,,,1,,,79,110
558660,note_off,,,,,46,0,0,,,1,,,79,64
558661,note_on,,,,,1,0,0,,,1,,,78,110
558724,note_off,,,,,63,0,0,,,1,,,78,64
558747,note_on,,,,,23,0,0,,,1,,,78,110
558793,note_on,,,,,46,0,0,,,2,,,76,117
558813,note_off,,,,,20,0,0,,,1,,,78,64
558868,note_off,,,,,55,0,0,,,2,,,76,64
558873,note_on,,,,,5,0,0,,,4,,,62,127
558873,note_on,,,,,0,0,0,,,2,,,76,113
558901,note_on,,,,,28,0,0,,,2,,,74,113
558930,note_off,,,,,29,0,0,,,2,,,76,64
558930,note_on,,,,,0,0,0,,,4,,,66,127
558973,note_off,,,,,43,0,0,,,4,,,62,64
558981,note_on,,,,,8,0,0,,,2,,,69,118
559023,note_off,,,,,42,0,0,,,4,,,66,64
559031,note_on,,,,,8,0,0,,,4,,,66,127
559069,note_off,,,,,38,0,0,,,2,,,74,64
559071,note_off,,,,,2,0,0,,,2,,,69,64
559079,note_on,,,,,8,0,0,,,4,,,62,127
559085,note_on,,,,,6,0,0,,,2,,,74,113
559121,note_off,,,,,36,0,0,,,4,,,66,64
559129,note_on,,,,,8,0,0,,,4,,,66,127
559167,note_off,,,,,38,0,0,,,4,,,62,64
559175,note_on,,,,,8,0,0,,,2,,,69,118
559215,note_off,,,,,40,0,0,,,4,,,66,64
559223,note_on,,,,,8,0,0,,,4,,,66,127
559263,note_off,,,,,40,0,0,,,2,,,69,64
559269,note_on,,,,,6,0,0,,,4,,,59,127
559309,note_off,,,,,40,0,0,,,4,,,66,64
559317,note_on,,,,,8,0,0,,,4,,,62,127
559359,note_off,,,,,42,0,0,,,4,,,59,64
559367,note_on,,,,,8,0,0,,,4,,,66,127
559377,note_on,,,,,10,0,0,,,2,,,76,113
559390,note_off,,,,,13,0,0,,,2,,,74,64
559407,note_on,,,,,17,0,0,,,2,,,74,113
559411,note_off,,,,,4,0,0,,,2,,,76,64
559427,note_off,,,,,16,0,0,,,4,,,62,64
559438,note_on,,,,,11,0,0,,,4,,,62,127
559440,note_on,,,,,2,0,0,,,2,,,73,113
559441,note_off,,,,,1,0,0,,,2,,,74,64
559471,note_off,,,,,30,0,0,,,2,,,73,64
559471,note_on,,,,,0,0,0,,,2,,,74,113
559492,note_off,,,,,21,0,0,,,4,,,66,64
559498,note_on,,,,,6,0,0,,,2,,,76,113
559498,note_on,,,,,0,0,0,,,4,,,59,127
559500,note_off,,,,,2,0,0,,,2,,,74,64
559533,note_off,,,,,33,0,0,,,4,,,62,64
559541,note_on,,,,,8,0,0,,,4,,,62,127
559581,note_off,,,,,40,0,0,,,4,,,59,64
559587,note_off,,,,,6,0,0,,,2,,,76,64
559587,note_on,,,,,0,0,0,,,4,,,66,127
559590,note_on,,,,,3,0,0,,,1,,,78,110
559626,note_off,,,,,36,0,0,,,4,,,62,64
559632,note_on,,,,,6,0,0,,,4,,,62,127
559674,note_off,,,,,42,0,0,,,4,,,66,64
559680,note_on,,,,,6,0,0,,,2,,,76,113
559680,note_on,,,,,0,0,0,,,4,,,55,127
559683,note_off,,,,,3,0,0,,,1,,,78,64
559719,note_off,,,,,36,0,0,,,4,,,62,64
559727,note_on,,,,,8,0,0,,,4,,,59,127
559769,note_off,,,,,42,0,0,,,4,,,55,64
559777,note_off,,,,,8,0,0,,,2,,,76,64
559777,note_on,,,,,0,0,0,,,1,,,83,110
559778,note_on,,,,,1,0,0,,,4,,,64,126
559816,note_off,,,,,38,0,0,,,4,,,59,64
559824,note_on,,,,,8,0,0,,,4,,,59,127
559862,note_off,,,,,38,0,0,,,4,,,64,64
559870,note_on,,,,,8,0,0,,,4,,,55,127
559908,note_off,,,,,38,0,0,,,4,,,59,64
559916,note_on,,,,,8,0,0,,,4,,,59,127
559958,note_off,,,,,42,0,0,,,4,,,55,64
559964,note_on,,,,,6,0,0,,,4,,,64,126
559970,note_on,,,,,6,0,0,,,1,,,79,110
559972,note_off,,,,,2,0,0,,,1,,,83,64
560003,note_off,,,,,31,0,0,,,4,,,59,64
560008,note_on,,,,,5,0,0,,,4,,,59,127
560041,note_on,,,,,33,0,0,,,2,,,76,109
560045,note_off,,,,,4,0,0,,,1,,,79,64
560060,note_off,,,,,15,0,0,,,4,,,64,64
560072,note_on,,,,,12,0,0,,,4,,,57,127
560077,note_on,,,,,5,0,0,,,2,,,73,109
560106,note_off,,,,,29,0,0,,,2,,,76,64
560107,note_off,,,,,1,0,0,,,4,,,59,64
560114,note_on,,,,,7,0,0,,,4,,,64,126
560150,note_off,,,,,36,0,0,,,4,,,57,64
560156,note_off,,,,,6,0,0,,,2,,,73,64
560157,note_on,,,,,1,0,0,,,2,,,67,127
560159,note_on,,,,,2,0,0,,,1,,,79,106
560196,note_off,,,,,37,0,0,,,4,,,64,64
560203,note_on,,,,,7,0,0,,,4,,,64,126
560249,note_on,,,,,46,0,0,,,4,,,57,127
560288,note_off,,,,,39,0,0,,,4,,,64,64
560293,note_on,,,,,5,0,0,,,4,,,64,126
560332,note_off,,,,,39,0,0,,,4,,,57,64
560334,note_off,,,,,2,0,0,,,1,,,79,64
560340,note_off,,,,,6,0,0,,,2,,,67,64
560345,note_on,,,,,5,0,0,,,2,,,76,109
560346,note_on,,,,,1,0,0,,,2,,,67,127
560376,note_off,,,,,30,0,0,,,4,,,64,64
560383,note_on,,,,,7,0,0,,,4,,,64,126
560408,note_off,,,,,25,0,0,,,2,,,67,64
560415,note_on,,,,,7,0,0,,,2,,,67,127
560452,note_on,,,,,37,0,0,,,1,,,78,106
560454,note_on,,,,,2,0,0,,,4,,,62,127
560456,note_on,,,,,2,0,0,,,4,,,66,127
560460,note_off,,,,,4,0,0,,,2,,,76,64
560463,note_off,,,,,3,0,0,,,2,,,67,64
560475,note_off,,,,,12,0,0,,,4,,,64,64
560542,note_on,,,,,67,0,0,,,1,,,79,110
560543,note_on,,,,,1,0,0,,,2,,,67,127
560555,note_off,,,,,12,0,0,,,1,,,78,64
560558,note_off,,,,,3,0,0,,,4,,,66,64
560627,note_on,,,,,69,0,0,,,2,,,68,120
560627,note_on,,,,,0,0,0,,,1,,,80,110
560641,note_off,,,,,14,0,0,,,1,,,79,64
560641,note_off,,,,,0,0,0,,,2,,,67,64
560700,note_on,,,,,59,0,0,,,1,,,81,114
560700,note_on,,,,,0,0,0,,,2,,,69,118
560714,note_off,,,,,14,0,0,,,1,,,80,64
560714,note_off,,,,,0,0,0,,,2,,,68,64
560774,note_on,,,,,60,0,0,,,1,,,82,114
560775,note_on,,,,,1,0,0,,,2,,,70,118
560783,note_off,,,,,8,0,0,,,2,,,69,64
560784,note_off,,,,,1,0,0,,,1,,,81,64
560836,note_on,,,,,52,0,0,,,2,,,71,116
560836,note_on,,,,,0,0,0,,,1,,,83,114
560848,note_off,,,,,12,0,0,,,2,,,70,64
560849,note_off,,,,,1,0,0,,,1,,,82,64
560901,note_on,,,,,52,0,0,,,1,,,85,114
560902,note_on,,,,,1,0,0,,,2,,,73,117
560910,note_off,,,,,8,0,0,,,1,,,83,64
560910,note_off,,,,,0,0,0,,,2,,,71,64
560968,note_on,,,,,58,0,0,,,1,,,86,114
560971,note_on,,,,,3,0,0,,,2,,,74,117
560984,note_off,,,,,13,0,0,,,2,,,73,64
560984,note_off,,,,,0,0,0,,,1,,,85,64
561029,note_off,,,,,45,0,0,,,4,,,62,64
561060,note_on,,,,,31,0,0,,,4,,,57,127
561060,note_on,,,,,0,0,0,,,1,,,78,106
561099,note_off,,,,,39,0,0,,,1,,,86,64
561107,note_off,,,,,8,0,0,,,2,,,74,64
561115,note_off,,,,,8,0,0,,,1,,,78,64
561151,note_on,,,,,36,0,0,,,1,,,78,106
561191,note_on,,,,,40,0,0,,,2,,,76,113
561208,note_off,,,,,17,0,0,,,1,,,78,64
561234,note_on,,,,,26,0,0,,,4,,,62,127
561234,note_on,,,,,0,0,0,,,1,,,78,106
561242,note_off,,,,,8,0,0,,,2,,,76,64
561267,note_on,,,,,25,0,0,,,2,,,76,113
561288,note_off,,,,,21,0,0,,,1,,,78,64
561325,note_on,,,,,37,0,0,,,1,,,78,106
561336,note_off,,,,,11,0,0,,,2,,,76,64
561355,note_on,,,,,19,0,0,,,2,,,76,113
561371,note_off,,,,,16,0,0,,,1,,,78,64
561374,note_off,,,,,3,0,0,,,4,,,57,64
561401,note_on,,,,,27,0,0,,,1,,,78,106
561402,note_on,,,,,1,0,0,,,4,,,64,126
561410,note_off,,,,,8,0,0,,,2,,,76,64
561433,note_on,,,,,23,0,0,,,2,,,76,113
561446,note_off,,,,,13,0,0,,,1,,,78,64
561469,note_on,,,,,23,0,0,,,1,,,78,106
561481,note_off,,,,,12,0,0,,,2,,,76,64
561510,note_on,,,,,29,0,0,,,2,,,76,113
561523,note_off,,,,,13,0,0,,,1,,,78,64
561525,note_off,,,,,2,0,0,,,4,,,62,64
561545,note_on,,,,,20,0,0,,,4,,,62,127
561545,note_on,,,,,0,0,0,,,1,,,78,106
561553,note_off,,,,,8,0,0,,,2,,,76,64
561572,note_on,,,,,19,0,0,,,2,,,76,113
561589,note_off,,,,,17,0,0,,,1,,,78,64
561619,note_on,,,,,30,0,0,,,1,,,78,106
561628,note_off,,,,,9,0,0,,,2,,,76,64
561651,note_on,,,,,23,0,0,,,2,,,76,113
561667,note_off,,,,,16,0,0,,,1,,,78,64
561668,note_off,,,,,1,0,0,,,4,,,64,64
561692,note_on,,,,,24,0,0,,,4,,,57,127
561692,note_on,,,,,0,0,0,,,1,,,78,106
561700,note_off,,,,,8,0,0,,,2,,,76,64
561725,note_on,,,,,25,0,0,,,2,,,76,113
561742,note_off,,,,,17,0,0,,,1,,,78,64
561764,note_on,,,,,22,0,0,,,1,,,78,106
561771,note_off,,,,,7,0,0,,,2,,,76,64
561796,note_on,,,,,25,0,0,,,2,,,76,113
561809,note_off,,,,,13,0,0,,,1,,,78,64
561811,note_off,,,,,2,0,0,,,4,,,62,64
561827,note_on,,,,,16,0,0,,,4,,,61,127
561827,note_on,,,,,0,0,0,,,1,,,78,106
561836,note_off,,,,,9,0,0,,,2,,,76,64
561864,note_on,,,,,28,0,0,,,2,,,76,113
561878,note_off,,,,,14,0,0,,,1,,,78,64
561899,note_on,,,,,21,0,0,,,1,,,78,110
561911,note_off,,,,,12,0,0,,,2,,,76,64
561936,note_on,,,,,25,0,0,,,2,,,76,113
561943,note_off,,,,,7,0,0,,,1,,,78,64
561945,note_off,,,,,2,0,0,,,4,,,57,64
561962,note_on,,,,,17,0,0,,,1,,,78,110
561963,note_on,,,,,1,0,0,,,4,,,64,126
561971,note_off,,,,,8,0,0,,,2,,,76,64
561990,note_on,,,,,19,0,0,,,2,,,76,113
562009,note_off,,,,,19,0,0,,,1,,,78,64
562027,note_on,,,,,18,0,0,,,1,,,78,110
562034,note_off,,,,,7,0,0,,,2,,,76,64
562057,note_on,,,,,23,0,0,,,2,,,76,113
562069,note_off,,,,,12,0,0,,,1,,,78,64
562071,note_off,,,,,2,0,0,,,4,,,61,64
562088,note_on,,,,,17,0,0,,,1,,,78,110
562089,note_on,,,,,1,0,0,,,4,,,61,127
562097,note_off,,,,,8,0,0,,,2,,,76,64
562114,note_on,,,,,17,0,0,,,2,,,76,113
562124,note_off,,,,,10,0,0,,,1,,,78,64
562141,note_on,,,,,17,0,0,,,2,,,74,117
562147,note_off,,,,,6,0,0,,,2,,,76,64
562168,note_on,,,,,21,0,0,,,2,,,76,113
562179,note_off,,,,,11,0,0,,,2,,,74,64
562181,note_off,,,,,2,0,0,,,4,,,64,64
562216,note_off,,,,,35,0,0,,,2,,,76,64
562227,note_on,,,,,11,0,0,,,2,,,76,113
562228,note_off,,,,,1,0,0,,,4,,,61,64
562228,note_on,,,,,0,0,0,,,2,,,67,127
562229,note_on,,,,,1,0,0,,,4,,,50,127
562229,note_on,,,,,0,0,0,,,2,,,69,118
562230,note_on,,,,,1,0,0,,,4,,,62,127
562490,note_off,,,,,260,0,0,,,2,,,76,64
562492,note_off,,,,,2,0,0,,,2,,,67,64
562493,note_off,,,,,1,0,0,,,4,,,62,64
562500,note_on,,,,,7,0,0,,,4,,,66,127
562500,note_on,,,,,0,0,0,,,2,,,74,117
562586,note_off,,,,,86,0,0,,,2,,,69,64
562755,note_on,,,,,169,0,0,,,1,,,81,114
562836,note_on,,,,,81,0,0,,,1,,,80,114
562846,note_off,,,,,10,0,0,,,2,,,74,64
562849,note_off,,,,,3,0,0,,,1,,,81,64
562913,note_on,,,,,64,0,0,,,1,,,81,114
562926,note_off,,,,,13,0,0,,,1,,,80,64
562986,note_on,,,,,60,0,0,,,1,,,83,114
562997,note_off,,,,,11,0,0,,,1,,,81,64
563055,note_on,,,,,58,0,0,,,1,,,84,110
563068,note_off,,,,,13,0,0,,,1,,,83,64
563069,note_off,,,,,1,0,0,,,4,,,66,64
563129,note_on,,,,,60,0,0,,,1,,,78,110
563136,note_off,,,,,7,0,0,,,1,,,84,64
563188,note_on,,,,,52,0,0,,,1,,,81,110
563198,note_off,,,,,10,0,0,,,1,,,78,64
563244,note_on,,,,,46,0,0,,,2,,,76,113
563252,note_off,,,,,8,0,0,,,1,,,81,64
563296,note_on,,,,,44,0,0,,,2,,,72,109
563296,note_on,,,,,0,0,0,,,2,,,74,109
563297,note_on,,,,,1,0,0,,,2,,,69,110
563304,note_off,,,,,7,0,0,,,2,,,76,64
563320,note_off,,,,,16,0,0,,,4,,,50,64
563473,note_off,,,,,153,0,0,,,2,,,74,64
563477,note_on,,,,,4,0,0,,,2,,,76,117
563535,note_off,,,,,58,0,0,,,2,,,76,64
563537,note_on,,,,,2,0,0,,,1,,,78,114
563595,note_off,,,,,58,0,0,,,1,,,78,64
563598,note_on,,,,,3,0,0,,,2,,,76,117
563599,note_on,,,,,1,0,0,,,2,,,68,120
563599,note_on,,,,,0,0,0,,,2,,,71,116
563605,note_off,,,,,6,0,0,,,2,,,72,64
563605,note_off,,,,,0,0,0,,,2,,,69,64
563651,note_off,,,,,46,0,0,,,2,,,76,64
563656,note_on,,,,,5,0,0,,,2,,,77,117
563710,note_on,,,,,54,0,0,,,1,,,78,114
563729,note_off,,,,,19,0,0,,,2,,,77,64
563766,note_on,,,,,37,0,0,,,1,,,79,110
563781,note_off,,,,,15,0,0,,,1,,,78,64
563814,note_on,,,,,33,0,0,,,1,,,80,110
563831,note_off,,,,,17,0,0,,,1,,,79,64
563860,note_on,,,,,29,0,0,,,1,,,81,110
563875,note_off,,,,,15,0,0,,,1,,,80,64
563907,note_on,,,,,32,0,0,,,1,,,82,110
563963,note_off,,,,,56,0,0,,,1,,,81,64
563984,note_on,,,,,21,0,0,,,1,,,83,110
564029,note_off,,,,,45,0,0,,,1,,,82,64
564061,note_on,,,,,32,0,0,,,1,,,80,110
564138,note_on,,,,,77,0,0,,,2,,,76,117
564147,note_off,,,,,9,0,0,,,1,,,83,64
564213,note_on,,,,,66,0,0,,,2,,,73,117
564225,note_off,,,,,12,0,0,,,1,,,80,64
564236,note_on,,,,,11,0,0,,,2,,,70,118
564237,note_on,,,,,1,0,0,,,2,,,67,127
564258,note_off,,,,,21,0,0,,,2,,,68,64
564259,note_off,,,,,1,0,0,,,2,,,71,64
564284,note_off,,,,,25,0,0,,,2,,,76,64
564519,note_off,,,,,235,0,0,,,2,,,73,64
564523,note_on,,,,,4,0,0,,,2,,,74,117
564575,note_on,,,,,52,0,0,,,2,,,76,117
564592,note_off,,,,,17,0,0,,,2,,,74,64
564631,note_on,,,,,39,0,0,,,2,,,74,117
564644,note_off,,,,,13,0,0,,,2,,,67,64
564645,note_off,,,,,1,0,0,,,2,,,70,64
564649,note_off,,,,,4,0,0,,,2,,,76,64
564653,note_on,,,,,4,0,0,,,4,,,66,127
564653,note_on,,,,,0,0,0,,,2,,,69,119
564681,note_on,,,,,28,0,0,,,1,,,78,114
564696,note_off,,,,,15,0,0,,,2,,,74,64
564732,note_on,,,,,36,0,0,,,2,,,76,117
564752,note_off,,,,,20,0,0,,,1,,,78,64
564784,note_on,,,,,32,0,0,,,2,,,74,117
564802,note_off,,,,,18,0,0,,,2,,,76,64
564834,note_on,,,,,32,0,0,,,2,,,76,117
564853,note_off,,,,,19,0,0,,,2,,,74,64
564886,note_on,,,,,33,0,0,,,1,,,78,114
564901,note_off,,,,,15,0,0,,,2,,,76,64
564930,note_on,,,,,29,0,0,,,1,,,79,106
564980,note_off,,,,,50,0,0,,,1,,,78,64
565001,note_on,,,,,21,0,0,,,1,,,81,106
565074,note_on,,,,,73,0,0,,,1,,,83,102
565080,note_off,,,,,6,0,0,,,1,,,79,64
565118,note_on,,,,,38,0,0,,,1,,,85,102
565124,note_off,,,,,6,0,0,,,1,,,81,64
565161,note_off,,,,,37,0,0,,,1,,,83,64
565184,note_on,,,,,23,0,0,,,2,,,71,117
565184,note_on,,,,,0,0,0,,,1,,,86,102
565196,note_off,,,,,12,0,0,,,1,,,85,64
565200,note_off,,,,,4,0,0,,,2,,,69,64
565200,note_off,,,,,0,0,0,,,4,,,66,64
565243,note_off,,,,,43,0,0,,,1,,,86,64
565245,note_on,,,,,2,0,0,,,1,,,88,104
565246,note_on,,,,,1,0,0,,,2,,,74,117
565284,note_on,,,,,38,0,0,,,1,,,86,102
565294,note_off,,,,,10,0,0,,,1,,,88,64
565311,note_on,,,,,17,0,0,,,2,,,69,119
565323,note_off,,,,,12,0,0,,,2,,,71,64
565359,note_off,,,,,36,0,0,,,2,,,74,64
565366,note_off,,,,,7,0,0,,,1,,,86,64
565367,note_on,,,,,1,0,0,,,1,,,85,102
565368,note_on,,,,,1,0,0,,,2,,,74,117
565420,note_on,,,,,52,0,0,,,2,,,67,127
565433,note_off,,,,,13,0,0,,,2,,,69,64
565468,note_off,,,,,35,0,0,,,2,,,74,64
565474,note_off,,,,,6,0,0,,,1,,,85,64
565476,note_on,,,,,2,0,0,,,1,,,85,106
565476,note_on,,,,,0,0,0,,,2,,,74,117
565500,note_off,,,,,24,0,0,,,1,,,85,64
565501,note_on,,,,,1,0,0,,,1,,,83,106
565530,note_on,,,,,29,0,0,,,4,,,66,127
565542,note_off,,,,,12,0,0,,,2,,,67,64
565576,note_off,,,,,34,0,0,,,2,,,74,64
565582,note_off,,,,,6,0,0,,,1,,,83,64
565584,note_on,,,,,2,0,0,,,2,,,74,117
565584,note_on,,,,,0,0,0,,,1,,,82,106
565639,note_on,,,,,55,0,0,,,2,,,67,127
565651,note_off,,,,,12,0,0,,,4,,,66,64
565689,note_off,,,,,38,0,0,,,2,,,74,64
565694,note_off,,,,,5,0,0,,,1,,,82,64
565696,note_on,,,,,2,0,0,,,1,,,85,106
565697,note_on,,,,,1,0,0,,,2,,,74,117
565730,note_on,,,,,33,0,0,,,1,,,83,106
565740,note_off,,,,,10,0,0,,,1,,,85,64
565757,note_on,,,,,17,0,0,,,4,,,66,127
565770,note_off,,,,,13,0,0,,,2,,,67,64
565807,note_off,,,,,37,0,0,,,2,,,74,64
565813,note_off,,,,,6,0,0,,,1,,,83,64
565814,note_on,,,,,1,0,0,,,1,,,81,106
565815,note_on,,,,,1,0,0,,,2,,,74,117
565871,note_on,,,,,56,0,0,,,4,,,64,127
565883,note_off,,,,,12,0,0,,,4,,,66,64
565917,note_off,,,,,34,0,0,,,2,,,74,64
565925,note_off,,,,,8,0,0,,,1,,,81,64
565926,note_on,,,,,1,0,0,,,1,,,81,106
565926,note_on,,,,,0,0,0,,,2,,,74,117
565954,note_off,,,,,28,0,0,,,1,,,81,64
565956,note_on,,,,,2,0,0,,,1,,,79,110
565982,note_on,,,,,26,0,0,,,4,,,62,127
565996,note_off,,,,,14,0,0,,,4,,,64,64
566034,note_off,,,,,38,0,0,,,2,,,74,64
566042,note_off,,,,,8,0,0,,,1,,,79,64
566043,note_on,,,,,1,0,0,,,1,,,78,114
566043,note_on,,,,,0,0,0,,,2,,,74,117
566105,note_on,,,,,62,0,0,,,1,,,81,106
566106,note_on,,,,,1,0,0,,,4,,,61,127
566118,note_off,,,,,12,0,0,,,4,,,62,64
566151,note_off,,,,,33,0,0,,,2,,,74,64
566160,note_off,,,,,9,0,0,,,1,,,78,64
566161,note_on,,,,,1,0,0,,,4,,,64,127
566188,note_off,,,,,27,0,0,,,1,,,81,64
566190,note_on,,,,,2,0,0,,,1,,,83,106
566220,note_on,,,,,30,0,0,,,1,,,81,106
566249,note_off,,,,,29,0,0,,,1,,,83,64
566259,note_on,,,,,10,0,0,,,1,,,79,110
566261,note_on,,,,,2,0,0,,,2,,,69,119
566267,note_off,,,,,6,0,0,,,1,,,81,64
566272,note_off,,,,,5,0,0,,,4,,,61,64
566305,note_off,,,,,33,0,0,,,4,,,64,64
566313,note_on,,,,,8,0,0,,,4,,,64,127
566363,note_on,,,,,50,0,0,,,4,,,62,127
566376,note_off,,,,,13,0,0,,,2,,,69,64
566412,note_off,,,,,36,0,0,,,4,,,64,64
566421,note_on,,,,,9,0,0,,,4,,,66,127
566463,note_off,,,,,42,0,0,,,1,,,79,64
566466,note_off,,,,,3,0,0,,,4,,,62,64
566472,note_on,,,,,6,0,0,,,1,,,78,114
566474,note_on,,,,,2,0,0,,,2,,,69,119
566522,note_off,,,,,48,0,0,,,4,,,66,64
566532,note_on,,,,,10,0,0,,,4,,,66,127
566578,note_off,,,,,46,0,0,,,2,,,69,64
566584,note_off,,,,,6,0,0,,,1,,,78,64
566584,note_on,,,,,0,0,0,,,2,,,75,117
566587,note_on,,,,,3,0,0,,,4,,,61,127
566633,note_off,,,,,46,0,0,,,4,,,66,64
566642,note_on,,,,,9,0,0,,,4,,,64,127
566690,note_off,,,,,48,0,0,,,4,,,61,64
566696,note_off,,,,,6,0,0,,,2,,,75,64
566698,note_on,,,,,2,0,0,,,2,,,76,117
566700,note_on,,,,,2,0,0,,,2,,,69,119
566746,note_off,,,,,46,0,0,,,4,,,64,64
566754,note_on,,,,,8,0,0,,,4,,,64,127
566806,note_off,,,,,52,0,0,,,2,,,69,64
566813,note_on,,,,,7,0,0,,,4,,,59,127
566823,note_off,,,,,10,0,0,,,2,,,76,64
566846,note_on,,,,,23,0,0,,,1,,,78,114
566909,note_on,,,,,63,0,0,,,1,,,80,110
566915,note_off,,,,,6,0,0,,,1,,,78,64
566944,note_off,,,,,29,0,0,,,4,,,64,64
566973,note_on,,,,,29,0,0,,,4,,,62,127
566973,note_on,,,,,0,0,0,,,1,,,81,110
566979,note_off,,,,,6,0,0,,,1,,,80,64
567027,note_on,,,,,48,0,0,,,1,,,83,110
567031,note_off,,,,,4,0,0,,,1,,,81,64
567073,note_on,,,,,42,0,0,,,1,,,85,110
567077,note_off,,,,,4,0,0,,,1,,,83,64
567098,note_off,,,,,21,0,0,,,4,,,59,64
567118,note_on,,,,,20,0,0,,,2,,,68,121
567118,note_on,,,,,0,0,0,,,1,,,86,114
567120,note_off,,,,,2,0,0,,,1,,,85,64
567159,note_on,,,,,39,0,0,,,1,,,83,114
567163,note_off,,,,,4,0,0,,,1,,,86,64
567197,note_on,,,,,34,0,0,,,1,,,80,114
567201,note_off,,,,,4,0,0,,,1,,,83,64
567218,note_off,,,,,17,0,0,,,4,,,62,64
567236,note_on,,,,,18,0,0,,,4,,,62,127
567236,note_on,,,,,0,0,0,,,2,,,76,117
567239,note_off,,,,,3,0,0,,,1,,,80,64
567275,note_on,,,,,36,0,0,,,1,,,78,114
567279,note_off,,,,,4,0,0,,,2,,,76,64
567331,note_on,,,,,52,0,0,,,2,,,74,117
567338,note_off,,,,,7,0,0,,,1,,,78,64
567361,note_off,,,,,23,0,0,,,2,,,68,64
567379,note_off,,,,,18,0,0,,,2,,,74,64
567383,note_on,,,,,4,0,0,,,2,,,74,117
567388,note_on,,,,,5,0,0,,,2,,,69,118
567404,note_on,,,,,16,0,0,,,4,,,57,127
567404,note_on,,,,,0,0,0,,,4,,,64,126
567405,note_off,,,,,1,0,0,,,4,,,62,64
567458,note_off,,,,,53,0,0,,,2,,,74,64
567460,note_on,,,,,2,0,0,,,2,,,73,117
567520,note_off,,,,,60,0,0,,,2,,,73,64
567522,note_on,,,,,2,0,0,,,1,,,78,114
567587,note_off,,,,,65,0,0,,,1,,,78,64
567591,note_on,,,,,4,0,0,,,2,,,76,117
567656,note_off,,,,,65,0,0,,,2,,,76,64
567658,note_on,,,,,2,0,0,,,2,,,76,117
567862,note_off,,,,,204,0,0,,,2,,,69,64
567873,note_off,,,,,11,0,0,,,4,,,64,64
567887,note_off,,,,,14,0,0,,,2,,,76,64
567888,note_on,,,,,1,0,0,,,4,,,64,126
568171,note_off,,,,,283,0,0,,,4,,,64,64
568173,note_on,,,,,2,0,0,,,4,,,65,127
568246,note_on,,,,,73,0,0,,,4,,,66,127
568274,note_off,,,,,28,0,0,,,4,,,65,64
568309,note_on,,,,,35,0,0,,,4,,,61,127
568338,note_off,,,,,29,0,0,,,4,,,66,64
568372,note_on,,,,,34,0,0,,,4,,,62,127
568380,note_off,,,,,8,0,0,,,4,,,57,64
568403,note_off,,,,,23,0,0,,,4,,,61,64
568438,note_on,,,,,35,0,0,,,4,,,58,127
568471,note_off,,,,,33,0,0,,,4,,,62,64
568507,note_on,,,,,36,0,0,,,4,,,59,127
568537,note_off,,,,,30,0,0,,,4,,,58,64
568576,note_on,,,,,39,0,0,,,4,,,56,127
568607,note_off,,,,,31,0,0,,,4,,,59,64
568637,note_on,,,,,30,0,0,,,4,,,59,127
568638,note_on,,,,,1,0,0,,,4,,,45,127
568638,note_on,,,,,0,0,0,,,4,,,49,127
568667,note_off,,,,,29,0,0,,,4,,,56,64
568704,note_on,,,,,37,0,0,,,4,,,57,127
568736,note_off,,,,,32,0,0,,,4,,,59,64
568773,note_off,,,,,37,0,0,,,4,,,57,64
568776,note_on,,,,,3,0,0,,,4,,,57,127
568838,note_off,,,,,62,0,0,,,4,,,57,64
568850,note_on,,,,,12,0,0,,,4,,,57,127
568905,note_off,,,,,55,0,0,,,4,,,57,64
568906,note_off,,,,,1,0,0,,,4,,,49,64
568906,note_off,,,,,0,0,0,,,4,,,45,64
568916,note_on,,,,,10,0,0,,,4,,,49,127
568916,note_on,,,,,0,0,0,,,4,,,57,127
568917,note_on,,,,,1,0,0,,,4,,,45,127
569121,note_off,,,,,204,0,0,,,4,,,57,64
569149,note_on,,,,,28,0,0,,,4,,,59,127
569238,note_on,,,,,89,0,0,,,4,,,61,127
569272,note_off,,,,,34,0,0,,,4,,,59,64
569309,note_on,,,,,37,0,0,,,4,,,62,127
569345,note_off,,,,,36,0,0,,,4,,,61,64
569376,note_on,,,,,31,0,0,,,4,,,64,126
569407,note_off,,,,,31,0,0,,,4,,,62,64
569434,note_on,,,,,27,0,0,,,4,,,66,127
569459,note_off,,,,,25,0,0,,,4,,,64,64
569485,note_on,,,,,26,0,0,,,2,,,68,120
569508,note_off,,,,,23,0,0,,,4,,,66,64
569532,note_on,,,,,24,0,0,,,2,,,69,118
569555,note_off,,,,,23,0,0,,,2,,,68,64
569578,note_on,,,,,23,0,0,,,2,,,71,116
569601,note_off,,,,,23,0,0,,,2,,,69,64
569620,note_on,,,,,19,0,0,,,2,,,73,117
569641,note_off,,,,,21,0,0,,,2,,,71,64
569661,note_on,,,,,20,0,0,,,2,,,74,117
569682,note_off,,,,,21,0,0,,,2,,,73,64
569701,note_on,,,,,19,0,0,,,2,,,76,117
569721,note_off,,,,,20,0,0,,,2,,,74,64
569738,note_on,,,,,17,0,0,,,1,,,78,114
569757,note_off,,,,,19,0,0,,,2,,,76,64
569776,note_on,,,,,19,0,0,,,1,,,80,114
569794,note_off,,,,,18,0,0,,,1,,,78,64
569811,note_on,,,,,17,0,0,,,1,,,81,114
569828,note_off,,,,,17,0,0,,,1,,,80,64
569845,note_on,,,,,17,0,0,,,1,,,83,114
569863,note_off,,,,,18,0,0,,,1,,,81,64
569882,note_on,,,,,19,0,0,,,1,,,85,114
569899,note_off,,,,,17,0,0,,,1,,,83,64
569918,note_on,,,,,19,0,0,,,1,,,86,114
569936,note_off,,,,,18,0,0,,,1,,,85,64
569982,note_on,,,,,46,0,0,,,4,,,61,127
569983,note_on,,,,,1,0,0,,,4,,,57,127
569985,note_off,,,,,2,0,0,,,1,,,86,64
569985,note_on,,,,,0,0,0,,,1,,,88,116
570053,note_off,,,,,68,0,0,,,1,,,88,64
570055,note_on,,,,,2,0,0,,,1,,,86,114
570128,note_off,,,,,73,0,0,,,1,,,86,64
570132,note_off,,,,,4,0,0,,,4,,,49,64
570132,note_off,,,,,0,0,0,,,4,,,45,64
570132,note_on,,,,,0,0,0,,,1,,,86,110
570154,note_on,,,,,22,0,0,,,1,,,85,110
570159,note_off,,,,,5,0,0,,,1,,,86,64
570177,note_on,,,,,18,0,0,,,1,,,86,110
570182,note_off,,,,,5,0,0,,,1,,,85,64
570198,note_on,,,,,16,0,0,,,1,,,85,110
570204,note_off,,,,,6,0,0,,,1,,,86,64
570219,note_on,,,,,15,0,0,,,1,,,83,110
570232,note_off,,,,,13,0,0,,,1,,,85,64
570287,note_off,,,,,55,0,0,,,4,,,61,64
570287,note_off,,,,,0,0,0,,,4,,,57,64
570295,note_off,,,,,8,0,0,,,1,,,83,64
570297,note_on,,,,,2,0,0,,,1,,,83,110
570300,note_on,,,,,3,0,0,,,4,,,61,127
570301,note_on,,,,,1,0,0,,,4,,,57,127
570319,note_on,,,,,18,0,0,,,1,,,81,114
570324,note_off,,,,,5,0,0,,,1,,,83,64
570342,note_on,,,,,18,0,0,,,1,,,83,110
570346,note_off,,,,,4,0,0,,,1,,,81,64
570365,note_on,,,,,19,0,0,,,1,,,81,114
570371,note_off,,,,,6,0,0,,,1,,,83,64
570386,note_on,,,,,15,0,0,,,1,,,79,114
570390,note_off,,,,,4,0,0,,,1,,,81,64
570463,note_off,,,,,73,0,0,,,1,,,79,64
570467,note_on,,,,,4,0,0,,,1,,,79,114
570488,note_on,,,,,21,0,0,,,1,,,78,114
570493,note_off,,,,,5,0,0,,,1,,,79,64
570511,note_on,,,,,18,0,0,,,1,,,79,114
570515,note_off,,,,,4,0,0,,,1,,,78,64
570532,note_on,,,,,17,0,0,,,1,,,78,114
570536,note_off,,,,,4,0,0,,,1,,,79,64
570552,note_on,,,,,16,0,0,,,2,,,76,117
570555,note_off,,,,,3,0,0,,,1,,,78,64
570622,note_off,,,,,67,0,0,,,2,,,76,64
570624,note_off,,,,,2,0,0,,,4,,,61,64
570624,note_off,,,,,0,0,0,,,4,,,57,64
570637,note_on,,,,,13,0,0,,,4,,,62,127
570640,note_on,,,,,3,0,0,,,2,,,76,117
570721,note_off,,,,,81,0,0,,,2,,,76,64
570722,note_on,,,,,1,0,0,,,4,,,66,127
570724,note_on,,,,,2,0,0,,,2,,,74,117
570786,note_off,,,,,62,0,0,,,4,,,62,64
570795,note_off,,,,,9,0,0,,,2,,,74,64
570796,note_on,,,,,1,0,0,,,2,,,69,119
570798,note_on,,,,,2,0,0,,,2,,,74,117
570854,note_off,,,,,56,0,0,,,4,,,66,64
570864,note_on,,,,,10,0,0,,,4,,,66,127
570921,note_off,,,,,57,0,0,,,2,,,69,64
570933,note_on,,,,,12,0,0,,,4,,,62,127
570986,note_off,,,,,53,0,0,,,4,,,66,64
570998,note_on,,,,,12,0,0,,,4,,,66,127
571053,note_off,,,,,55,0,0,,,4,,,62,64
571061,note_off,,,,,8,0,0,,,2,,,74,64
571062,note_on,,,,,1,0,0,,,2,,,69,119
571064,note_on,,,,,2,0,0,,,2,,,74,117
571116,note_off,,,,,52,0,0,,,4,,,66,64
571128,note_on,,,,,12,0,0,,,4,,,66,127
571183,note_off,,,,,55,0,0,,,2,,,69,64
571193,note_on,,,,,10,0,0,,,4,,,59,127
571256,note_off,,,,,63,0,0,,,4,,,66,64
571272,note_off,,,,,16,0,0,,,2,,,74,64
571272,note_on,,,,,0,0,0,,,4,,,62,127
571276,note_on,,,,,4,0,0,,,1,,,86,110
571303,note_on,,,,,27,0,0,,,1,,,85,110
571309,note_off,,,,,6,0,0,,,1,,,86,64
571328,note_on,,,,,19,0,0,,,1,,,86,110
571334,note_off,,,,,6,0,0,,,1,,,85,64
571349,note_on,,,,,15,0,0,,,1,,,85,110
571357,note_off,,,,,8,0,0,,,1,,,86,64
571361,note_off,,,,,4,0,0,,,4,,,59,64
571372,note_on,,,,,11,0,0,,,1,,,86,110
571374,note_on,,,,,2,0,0,,,4,,,66,127
571378,note_off,,,,,4,0,0,,,1,,,85,64
571445,note_off,,,,,67,0,0,,,4,,,62,64
571455,note_off,,,,,10,0,0,,,1,,,86,64
571459,note_on,,,,,4,0,0,,,1,,,86,110
571463,note_on,,,,,4,0,0,,,4,,,62,127
571488,note_on,,,,,25,0,0,,,1,,,85,110
571495,note_off,,,,,7,0,0,,,1,,,86,64
571512,note_on,,,,,17,0,0,,,1,,,86,110
571520,note_off,,,,,8,0,0,,,1,,,85,64
571536,note_on,,,,,16,0,0,,,1,,,85,110
571541,note_off,,,,,5,0,0,,,1,,,86,64
571553,note_off,,,,,12,0,0,,,4,,,66,64
571557,note_on,,,,,4,0,0,,,1,,,86,110
571562,note_off,,,,,5,0,0,,,1,,,85,64
571566,note_on,,,,,4,0,0,,,4,,,59,127
571635,note_off,,,,,69,0,0,,,4,,,62,64
571637,note_off,,,,,2,0,0,,,1,,,86,64
571639,note_on,,,,,2,0,0,,,1,,,85,110
571651,note_on,,,,,12,0,0,,,4,,,62,127
571666,note_on,,,,,15,0,0,,,1,,,83,110
571674,note_off,,,,,8,0,0,,,1,,,85,64
571689,note_on,,,,,15,0,0,,,1,,,85,110
571695,note_off,,,,,6,0,0,,,1,,,83,64
571712,note_on,,,,,17,0,0,,,1,,,83,110
571720,note_off,,,,,8,0,0,,,1,,,85,64
571737,note_on,,,,,17,0,0,,,1,,,86,110
571739,note_off,,,,,2,0,0,,,4,,,59,64
571743,note_off,,,,,4,0,0,,,1,,,83,64
571752,note_on,,,,,9,0,0,,,4,,,66,127
571820,note_off,,,,,68,0,0,,,1,,,86,64
571822,note_on,,,,,2,0,0,,,1,,,78,114
571824,note_off,,,,,2,0,0,,,4,,,62,64
571837,note_on,,,,,13,0,0,,,4,,,62,127
571920,note_off,,,,,83,0,0,,,4,,,66,64
571941,note_on,,,,,21,0,0,,,4,,,55,127
571944,note_on,,,,,3,0,0,,,2,,,76,117
572008,note_off,,,,,64,0,0,,,1,,,78,64
572008,note_on,,,,,0,0,0,,,1,,,79,114
572047,note_on,,,,,39,0,0,,,1,,,83,114
572049,note_off,,,,,2,0,0,,,2,,,76,64
572059,note_off,,,,,10,0,0,,,1,,,79,64
572071,note_off,,,,,12,0,0,,,4,,,62,64
572081,note_on,,,,,10,0,0,,,4,,,59,127
572135,note_off,,,,,54,0,0,,,4,,,55,64
572144,note_on,,,,,9,0,0,,,4,,,64,127
572197,note_off,,,,,53,0,0,,,4,,,59,64
572212,note_on,,,,,15,0,0,,,4,,,59,127
572256,note_off,,,,,44,0,0,,,4,,,64,64
572266,note_on,,,,,10,0,0,,,4,,,55,127
572320,note_off,,,,,54,0,0,,,4,,,59,64
572324,note_on,,,,,4,0,0,,,4,,,59,127
572374,note_off,,,,,50,0,0,,,4,,,55,64
572381,note_on,,,,,7,0,0,,,4,,,64,127
572420,note_off,,,,,39,0,0,,,1,,,83,64
572424,note_on,,,,,4,0,0,,,1,,,81,114
572455,note_off,,,,,31,0,0,,,4,,,59,64
572475,note_on,,,,,20,0,0,,,1,,,79,114
572502,note_off,,,,,27,0,0,,,1,,,81,64
572510,note_on,,,,,8,0,0,,,4,,,59,127
572543,note_on,,,,,33,0,0,,,1,,,78,114
572560,note_off,,,,,17,0,0,,,1,,,79,64
572602,note_on,,,,,42,0,0,,,2,,,76,117
572621,note_off,,,,,19,0,0,,,1,,,78,64
572669,note_on,,,,,48,0,0,,,2,,,74,117
572688,note_off,,,,,19,0,0,,,2,,,76,64
572729,note_on,,,,,41,0,0,,,2,,,73,117
572731,note_off,,,,,2,0,0,,,4,,,64,64
572740,note_off,,,,,9,0,0,,,2,,,74,64
572767,note_on,,,,,27,0,0,,,4,,,57,127
572796,note_on,,,,,29,0,0,,,2,,,76,117
572827,note_off,,,,,31,0,0,,,2,,,73,64
572852,note_on,,,,,25,0,0,,,1,,,79,114
572857,note_off,,,,,5,0,0,,,2,,,76,64
572892,note_off,,,,,35,0,0,,,4,,,59,64
572904,note_on,,,,,12,0,0,,,4,,,61,127
572964,note_off,,,,,60,0,0,,,4,,,57,64
572975,note_on,,,,,11,0,0,,,4,,,64,127
573034,note_off,,,,,59,0,0,,,4,,,61,64
573044,note_on,,,,,10,0,0,,,4,,,61,127
573102,note_off,,,,,58,0,0,,,4,,,64,64
573113,note_on,,,,,11,0,0,,,4,,,57,127
573171,note_off,,,,,58,0,0,,,4,,,61,64
573182,note_on,,,,,11,0,0,,,4,,,61,127
573238,note_off,,,,,56,0,0,,,4,,,57,64
573248,note_on,,,,,10,0,0,,,4,,,64,127
573303,note_off,,,,,55,0,0,,,1,,,79,64
573305,note_on,,,,,2,0,0,,,1,,,78,114
573309,note_off,,,,,4,0,0,,,4,,,61,64
573344,note_on,,,,,35,0,0,,,4,,,61,127
573368,note_off,,,,,24,0,0,,,1,,,78,64
573369,note_on,,,,,1,0,0,,,2,,,76,117
573431,note_on,,,,,62,0,0,,,2,,,74,117
573439,note_off,,,,,8,0,0,,,2,,,76,64
573484,note_on,,,,,45,0,0,,,2,,,73,117
573519,note_off,,,,,35,0,0,,,2,,,74,64
573540,note_on,,,,,21,0,0,,,2,,,71,116
573550,note_off,,,,,10,0,0,,,2,,,73,64
573587,note_on,,,,,37,0,0,,,2,,,69,118
573604,note_off,,,,,17,0,0,,,4,,,64,64
573610,note_off,,,,,6,0,0,,,2,,,71,64
573654,note_on,,,,,44,0,0,,,2,,,67,127
573679,note_off,,,,,25,0,0,,,2,,,69,64
573758,note_on,,,,,79,0,0,,,4,,,66,127
573762,note_off,,,,,4,0,0,,,2,,,67,64
573763,note_off,,,,,1,0,0,,,4,,,61,64
573763,note_on,,,,,0,0,0,,,4,,,62,127
573873,note_on,,,,,110,0,0,,,1,,,78,114
573949,note_on,,,,,76,0,0,,,2,,,67,127
573961,note_off,,,,,12,0,0,,,4,,,66,64
574007,note_on,,,,,46,0,0,,,1,,,79,114
574022,note_off,,,,,15,0,0,,,1,,,78,64
574061,note_on,,,,,39,0,0,,,2,,,68,120
574078,note_off,,,,,17,0,0,,,2,,,67,64
574112,note_on,,,,,34,0,0,,,1,,,80,114
574125,note_off,,,,,13,0,0,,,1,,,79,64
574156,note_on,,,,,31,0,0,,,2,,,69,118
574171,note_off,,,,,15,0,0,,,2,,,68,64
574198,note_on,,,,,27,0,0,,,1,,,81,114
574213,note_off,,,,,15,0,0,,,1,,,80,64
574238,note_on,,,,,25,0,0,,,2,,,70,118
574254,note_off,,,,,16,0,0,,,2,,,69,64
574281,note_on,,,,,27,0,0,,,1,,,82,114
574294,note_off,,,,,13,0,0,,,1,,,81,64
574319,note_on,,,,,25,0,0,,,2,,,71,116
574332,note_off,,,,,13,0,0,,,2,,,70,64
574359,note_on,,,,,27,0,0,,,1,,,83,114
574373,note_off,,,,,14,0,0,,,1,,,82,64
574398,note_on,,,,,25,0,0,,,2,,,73,117
574409,note_off,,,,,11,0,0,,,2,,,71,64
574434,note_on,,,,,25,0,0,,,1,,,85,114
574448,note_off,,,,,14,0,0,,,1,,,83,64
574471,note_on,,,,,23,0,0,,,2,,,74,113
574485,note_off,,,,,14,0,0,,,2,,,73,64
574514,note_on,,,,,29,0,0,,,1,,,86,114
574527,note_off,,,,,13,0,0,,,1,,,85,64
574550,note_on,,,,,23,0,0,,,4,,,57,127
574552,note_on,,,,,2,0,0,,,2,,,74,113
574606,note_on,,,,,54,0,0,,,2,,,76,109
574630,note_off,,,,,24,0,0,,,4,,,62,64
574665,note_on,,,,,35,0,0,,,1,,,78,104
574678,note_off,,,,,13,0,0,,,2,,,76,64
574705,note_off,,,,,27,0,0,,,1,,,86,64
574713,note_on,,,,,8,0,0,,,2,,,76,107
574724,note_off,,,,,11,0,0,,,1,,,78,64
574752,note_off,,,,,28,0,0,,,2,,,74,64
574752,note_off,,,,,0,0,0,,,2,,,74,64
574755,note_on,,,,,3,0,0,,,1,,,78,104
574763,note_on,,,,,8,0,0,,,4,,,62,127
574770,note_off,,,,,7,0,0,,,2,,,76,64
574805,note_on,,,,,35,0,0,,,2,,,76,105
574816,note_off,,,,,11,0,0,,,1,,,78,64
574847,note_on,,,,,31,0,0,,,1,,,78,102
574862,note_off,,,,,15,0,0,,,2,,,76,64
574885,note_on,,,,,23,0,0,,,2,,,76,105
574899,note_off,,,,,14,0,0,,,1,,,78,64
574918,note_off,,,,,19,0,0,,,4,,,57,64
574924,note_on,,,,,6,0,0,,,1,,,78,99
574934,note_off,,,,,10,0,0,,,2,,,76,64
574937,note_on,,,,,3,0,0,,,4,,,64,127
574959,note_on,,,,,22,0,0,,,2,,,76,101
574969,note_off,,,,,10,0,0,,,1,,,78,64
574996,note_on,,,,,27,0,0,,,1,,,78,99
575005,note_off,,,,,9,0,0,,,2,,,76,64
575030,note_on,,,,,25,0,0,,,2,,,76,101
575038,note_off,,,,,8,0,0,,,1,,,78,64
575059,note_on,,,,,21,0,0,,,1,,,78,99
575063,note_off,,,,,4,0,0,,,4,,,62,64
575069,note_off,,,,,6,0,0,,,2,,,76,64
575082,note_on,,,,,13,0,0,,,4,,,62,127
575092,note_on,,,,,10,0,0,,,2,,,76,101
575101,note_off,,,,,9,0,0,,,1,,,78,64
575126,note_on,,,,,25,0,0,,,1,,,78,99
575134,note_off,,,,,8,0,0,,,2,,,76,64
575155,note_on,,,,,21,0,0,,,2,,,76,101
575165,note_off,,,,,10,0,0,,,1,,,78,64
575171,note_on,,,,,6,0,0,,,1,,,78,99
575198,note_off,,,,,27,0,0,,,2,,,76,64
575200,note_off,,,,,2,0,0,,,4,,,64,64
575206,note_on,,,,,6,0,0,,,2,,,76,101
575210,note_off,,,,,4,0,0,,,1,,,78,64
575220,note_on,,,,,10,0,0,,,4,,,57,127
575233,note_on,,,,,13,0,0,,,1,,,78,99
575246,note_off,,,,,13,0,0,,,2,,,76,64
575266,note_on,,,,,20,0,0,,,2,,,76,101
575271,note_off,,,,,5,0,0,,,1,,,78,64
575287,note_on,,,,,16,0,0,,,1,,,78,100
575312,note_off,,,,,25,0,0,,,2,,,76,64
575323,note_on,,,,,11,0,0,,,2,,,76,103
575333,note_off,,,,,10,0,0,,,1,,,78,64
575340,note_off,,,,,7,0,0,,,4,,,62,64
575358,note_on,,,,,18,0,0,,,1,,,78,100
575364,note_on,,,,,6,0,0,,,4,,,61,127
575367,note_off,,,,,3,0,0,,,2,,,76,64
575388,note_on,,,,,21,0,0,,,2,,,76,103
575396,note_off,,,,,8,0,0,,,1,,,78,64
575423,note_on,,,,,27,0,0,,,1,,,78,100
575435,note_off,,,,,12,0,0,,,2,,,76,64
575463,note_on,,,,,28,0,0,,,2,,,76,103
575470,note_off,,,,,7,0,0,,,1,,,78,64
575485,note_off,,,,,15,0,0,,,4,,,57,64
575493,note_on,,,,,8,0,0,,,1,,,78,104
575503,note_off,,,,,10,0,0,,,2,,,76,64
575507,note_on,,,,,4,0,0,,,4,,,64,127
575522,note_on,,,,,15,0,0,,,2,,,76,107
575530,note_off,,,,,8,0,0,,,1,,,78,64
575555,note_on,,,,,25,0,0,,,1,,,78,104
575564,note_off,,,,,9,0,0,,,2,,,76,64
575589,note_on,,,,,25,0,0,,,2,,,76,107
575597,note_off,,,,,8,0,0,,,1,,,78,64
575620,note_on,,,,,23,0,0,,,1,,,78,106
575622,note_off,,,,,2,0,0,,,4,,,61,64
575629,note_off,,,,,7,0,0,,,2,,,76,64
575643,note_on,,,,,14,0,0,,,4,,,61,127
575652,note_on,,,,,9,0,0,,,2,,,76,109
575662,note_off,,,,,10,0,0,,,1,,,78,64
575683,note_on,,,,,21,0,0,,,2,,,74,113
575693,note_off,,,,,10,0,0,,,2,,,76,64
575718,note_on,,,,,25,0,0,,,2,,,76,109
575727,note_off,,,,,9,0,0,,,2,,,74,64
575762,note_off,,,,,35,0,0,,,2,,,76,64
575764,note_off,,,,,2,0,0,,,4,,,64,64
575789,note_on,,,,,25,0,0,,,2,,,76,109
575795,note_on,,,,,6,0,0,,,2,,,67,120
575797,note_on,,,,,2,0,0,,,4,,,50,127
575797,note_on,,,,,0,0,0,,,4,,,57,127
575797,note_on,,,,,0,0,0,,,2,,,69,110
575798,note_on,,,,,1,0,0,,,4,,,62,127
575812,note_off,,,,,14,0,0,,,4,,,61,64
576093,note_off,,,,,281,0,0,,,2,,,76,64
576095,note_off,,,,,2,0,0,,,2,,,67,64
576095,note_on,,,,,0,0,0,,,2,,,74,118
576096,note_on,,,,,1,0,0,,,4,,,66,127
576198,note_off,,,,,102,0,0,,,2,,,69,64
577506,note_off,,,,,1308,0,0,,,2,,,74,64
577507,note_off,,,,,1,0,0,,,4,,,66,64
577521,note_off,,,,,14,0,0,,,4,,,50,64
577522,note_off,,,,,1,0,0,,,4,,,57,64
577522,note_off,,,,,0,0,0,,,4,,,62,64
577524,note_on,,,,,2,0,0,,,1,,,81,107
577608,note_off,,,,,84,0,0,,,1,,,81,64
577609,note_on,,,,,1,0,0,,,2,,,73,105
577687,note_off,,,,,78,0,0,,,2,,,73,64
577694,note_on,,,,,7,0,0,,,2,,,76,106
577694,note_on,,,,,0,0,0,,,4,,,62,127
577716,note_on,,,,,22,0,0,,,2,,,74,106
577726,note_off,,,,,10,0,0,,,2,,,76,64
577776,note_on,,,,,50,0,0,,,4,,,66,127
577851,note_off,,,,,75,0,0,,,2,,,74,64
577854,note_off,,,,,3,0,0,,,4,,,62,64
577858,note_on,,,,,4,0,0,,,2,,,74,106
577859,note_on,,,,,1,0,0,,,2,,,69,119
577936,note_off,,,,,77,0,0,,,4,,,66,64
577940,note_on,,,,,4,0,0,,,4,,,66,127
578013,note_off,,,,,73,0,0,,,2,,,74,64
578015,note_off,,,,,2,0,0,,,2,,,69,64
578019,note_on,,,,,4,0,0,,,4,,,62,127
578019,note_on,,,,,0,0,0,,,2,,,74,106
578096,note_off,,,,,77,0,0,,,4,,,66,64
578100,note_on,,,,,4,0,0,,,4,,,66,127
578175,note_off,,,,,75,0,0,,,2,,,74,64
578179,note_off,,,,,4,0,0,,,4,,,62,64
578183,note_on,,,,,4,0,0,,,2,,,76,110
578183,note_on,,,,,0,0,0,,,4,,,61,127
578261,note_off,,,,,78,0,0,,,4,,,66,64
578264,note_on,,,,,3,0,0,,,2,,,67,127
578340,note_off,,,,,76,0,0,,,4,,,61,64
578340,note_off,,,,,0,0,0,,,2,,,76,64
578344,note_on,,,,,4,0,0,,,2,,,69,119
578344,note_on,,,,,0,0,0,,,1,,,79,107
578418,note_off,,,,,74,0,0,,,2,,,67,64
578424,note_on,,,,,6,0,0,,,2,,,67,127
578495,note_off,,,,,71,0,0,,,1,,,79,64
578499,note_off,,,,,4,0,0,,,2,,,69,64
578503,note_on,,,,,4,0,0,,,4,,,64,127
578503,note_on,,,,,0,0,0,,,2,,,73,109
578579,note_off,,,,,76,0,0,,,2,,,67,64
578582,note_on,,,,,3,0,0,,,2,,,69,119
578583,note_on,,,,,1,0,0,,,2,,,67,127
578653,note_off,,,,,70,0,0,,,2,,,73,64
578656,note_off,,,,,3,0,0,,,4,,,64,64
578660,note_on,,,,,4,0,0,,,1,,,78,107
578661,note_on,,,,,1,0,0,,,4,,,62,127
578726,note_off,,,,,65,0,0,,,2,,,69,64
578734,note_off,,,,,8,0,0,,,2,,,67,64
578740,note_on,,,,,6,0,0,,,2,,,69,119
578813,note_off,,,,,73,0,0,,,4,,,62,64
578817,note_off,,,,,4,0,0,,,1,,,78,64
578817,note_on,,,,,0,0,0,,,1,,,81,107
578818,note_on,,,,,1,0,0,,,4,,,66,127
578892,note_off,,,,,74,0,0,,,2,,,69,64
578896,note_on,,,,,4,0,0,,,4,,,62,127
578948,note_off,,,,,52,0,0,,,1,,,81,64
578969,note_off,,,,,21,0,0,,,4,,,66,64
578973,note_on,,,,,4,0,0,,,1,,,83,107
578974,note_on,,,,,1,0,0,,,4,,,55,127
578974,note_on,,,,,0,0,0,,,2,,,67,127
579047,note_off,,,,,73,0,0,,,4,,,62,64
579051,note_on,,,,,4,0,0,,,4,,,64,127
579051,note_on,,,,,0,0,0,,,1,,,79,107
579060,note_off,,,,,9,0,0,,,1,,,83,64
579127,note_off,,,,,67,0,0,,,2,,,67,64
579127,note_off,,,,,0,0,0,,,4,,,55,64
579132,note_on,,,,,5,0,0,,,4,,,57,127
579132,note_on,,,,,0,0,0,,,1,,,78,107
579132,note_on,,,,,0,0,0,,,4,,,62,127
579138,note_off,,,,,6,0,0,,,1,,,79,64
579207,note_off,,,,,69,0,0,,,4,,,64,64
579294,note_off,,,,,87,0,0,,,4,,,62,64
579294,note_off,,,,,0,0,0,,,1,,,78,64
579295,note_on,,,,,1,0,0,,,4,,,61,127
579295,note_on,,,,,0,0,0,,,2,,,76,110
579440,note_off,,,,,145,0,0,,,2,,,76,64
579445,note_on,,,,,5,0,0,,,1,,,81,107
579523,note_on,,,,,78,0,0,,,2,,,73,109
579532,note_off,,,,,9,0,0,,,1,,,81,64
579561,note_off,,,,,29,0,0,,,4,,,61,64
579588,note_off,,,,,27,0,0,,,4,,,57,64
579601,note_on,,,,,13,0,0,,,2,,,76,110
579601,note_on,,,,,0,0,0,,,4,,,54,127
579610,note_off,,,,,9,0,0,,,2,,,73,64
579635,note_off,,,,,25,0,0,,,2,,,76,64
579638,note_on,,,,,3,0,0,,,2,,,74,110
579677,note_on,,,,,39,0,0,,,4,,,57,127
579740,note_off,,,,,63,0,0,,,2,,,74,64
579752,note_off,,,,,12,0,0,,,4,,,54,64
579757,note_on,,,,,5,0,0,,,2,,,74,110
579758,note_on,,,,,1,0,0,,,4,,,62,127
579829,note_off,,,,,71,0,0,,,4,,,57,64
579833,note_on,,,,,4,0,0,,,4,,,57,127
579902,note_off,,,,,69,0,0,,,2,,,74,64
579904,note_off,,,,,2,0,0,,,4,,,62,64
579909,note_on,,,,,5,0,0,,,2,,,74,114
579909,note_on,,,,,0,0,0,,,4,,,53,127
579982,note_off,,,,,73,0,0,,,4,,,57,64
579986,note_on,,,,,4,0,0,,,4,,,57,127
580063,note_off,,,,,77,0,0,,,2,,,74,64
580069,note_off,,,,,6,0,0,,,4,,,53,64
580084,note_off,,,,,15,0,0,,,4,,,57,64
580084,note_on,,,,,0,0,0,,,2,,,74,118
580085,note_on,,,,,1,0,0,,,4,,,56,127
580085,note_on,,,,,0,0,0,,,4,,,59,127
580086,note_on,,,,,1,0,0,,,4,,,52,127
580120,note_on,,,,,34,0,0,,,1,,,80,115
580144,note_on,,,,,24,0,0,,,1,,,86,115
580377,note_off,,,,,233,0,0,,,2,,,74,64
580387,note_off,,,,,10,0,0,,,1,,,80,64
580388,note_on,,,,,1,0,0,,,2,,,74,118
580394,note_off,,,,,6,0,0,,,1,,,86,64
580419,note_off,,,,,25,0,0,,,2,,,74,64
580425,note_on,,,,,6,0,0,,,2,,,76,118
580536,note_off,,,,,111,0,0,,,2,,,76,64
580538,note_on,,,,,2,0,0,,,1,,,78,115
580575,note_on,,,,,37,0,0,,,2,,,76,118
580583,note_off,,,,,8,0,0,,,1,,,78,64
580688,note_off,,,,,105,0,0,,,4,,,52,64
580689,note_off,,,,,1,0,0,,,4,,,59,64
580689,note_off,,,,,0,0,0,,,4,,,56,64
580728,note_on,,,,,39,0,0,,,4,,,56,127
580728,note_on,,,,,0,0,0,,,4,,,59,127
580728,note_on,,,,,0,0,0,,,4,,,62,127
580729,note_on,,,,,1,0,0,,,4,,,52,127
580839,note_off,,,,,110,0,0,,,2,,,76,64
580839,note_on,,,,,0,0,0,,,2,,,74,117
580869,note_off,,,,,30,0,0,,,2,,,74,64
580876,note_on,,,,,7,0,0,,,2,,,71,116
580978,note_off,,,,,102,0,0,,,2,,,71,64
580990,note_on,,,,,12,0,0,,,2,,,68,120
581026,note_off,,,,,36,0,0,,,2,,,68,64
581032,note_on,,,,,6,0,0,,,2,,,69,118
581164,note_off,,,,,132,0,0,,,4,,,52,64
581165,note_off,,,,,1,0,0,,,4,,,59,64
581165,note_off,,,,,0,0,0,,,4,,,56,64
581166,note_off,,,,,1,0,0,,,4,,,62,64
581178,note_off,,,,,12,0,0,,,2,,,69,64
581178,note_on,,,,,0,0,0,,,4,,,61,127
581179,note_on,,,,,1,0,0,,,4,,,57,127
581290,note_on,,,,,111,0,0,,,1,,,80,114
581317,note_off,,,,,27,0,0,,,1,,,80,64
581327,note_on,,,,,10,0,0,,,1,,,81,114
581442,note_off,,,,,115,0,0,,,1,,,81,64
581443,note_on,,,,,1,0,0,,,2,,,73,116
581482,note_off,,,,,39,0,0,,,2,,,73,64
581483,note_on,,,,,1,0,0,,,2,,,74,117
581483,note_on,,,,,0,0,0,,,2,,,74,117
581484,note_on,,,,,1,0,0,,,4,,,50,127
581496,note_off,,,,,12,0,0,,,4,,,61,64
581496,note_off,,,,,0,0,0,,,4,,,57,64
581521,note_on,,,,,25,0,0,,,4,,,62,127
581564,note_off,,,,,43,0,0,,,4,,,50,64
581564,note_on,,,,,0,0,0,,,1,,,78,114
581565,note_on,,,,,1,0,0,,,4,,,61,127
581578,note_off,,,,,13,0,0,,,4,,,62,64
581605,note_off,,,,,27,0,0,,,1,,,78,64
581605,note_on,,,,,0,0,0,,,1,,,81,114
581606,note_on,,,,,1,0,0,,,4,,,62,127
581619,note_off,,,,,13,0,0,,,4,,,61,64
581644,note_off,,,,,25,0,0,,,1,,,81,64
581646,note_on,,,,,2,0,0,,,1,,,86,115
581647,note_on,,,,,1,0,0,,,4,,,47,127
581680,note_off,,,,,33,0,0,,,4,,,62,64
581686,note_on,,,,,6,0,0,,,4,,,59,127
581726,note_off,,,,,40,0,0,,,4,,,47,64
581726,note_on,,,,,0,0,0,,,4,,,57,127
581739,note_off,,,,,13,0,0,,,4,,,59,64
581767,note_on,,,,,28,0,0,,,4,,,59,127
581781,note_off,,,,,14,0,0,,,4,,,57,64
581808,note_on,,,,,27,0,0,,,4,,,42,127
581845,note_off,,,,,37,0,0,,,4,,,59,64
581851,note_on,,,,,6,0,0,,,4,,,54,127
581870,note_off,,,,,19,0,0,,,1,,,86,64
581888,note_off,,,,,18,0,0,,,4,,,42,64
581888,note_on,,,,,0,0,0,,,2,,,74,117
581889,note_on,,,,,1,0,0,,,4,,,52,127
581903,note_off,,,,,14,0,0,,,4,,,54,64
581930,note_on,,,,,27,0,0,,,4,,,54,127
581944,note_off,,,,,14,0,0,,,4,,,52,64
581970,note_on,,,,,26,0,0,,,2,,,76,117
581971,note_on,,,,,1,0,0,,,4,,,43,127
582006,note_off,,,,,35,0,0,,,4,,,54,64
582014,note_on,,,,,8,0,0,,,4,,,55,127
582027,note_off,,,,,13,0,0,,,2,,,76,64
582055,note_off,,,,,28,0,0,,,4,,,43,64
582055,note_on,,,,,0,0,0,,,1,,,79,114
582056,note_on,,,,,1,0,0,,,4,,,54,127
582070,note_off,,,,,14,0,0,,,4,,,55,64
582095,note_on,,,,,25,0,0,,,2,,,76,117
582095,note_on,,,,,0,0,0,,,4,,,55,127
582108,note_off,,,,,13,0,0,,,4,,,54,64
582108,note_off,,,,,0,0,0,,,1,,,79,64
582114,note_off,,,,,6,0,0,,,2,,,74,64
582114,note_off,,,,,0,0,0,,,2,,,74,64
582114,note_off,,,,,0,0,0,,,2,,,74,64
582134,note_on,,,,,20,0,0,,,1,,,83,118
582135,note_on,,,,,1,0,0,,,4,,,40,127
582147,note_off,,,,,12,0,0,,,2,,,76,64
582168,note_off,,,,,21,0,0,,,4,,,55,64
582174,note_on,,,,,6,0,0,,,4,,,52,127
582188,note_off,,,,,14,0,0,,,1,,,83,64
582215,note_off,,,,,27,0,0,,,4,,,40,64
582215,note_on,,,,,0,0,0,,,1,,,79,114
582216,note_on,,,,,1,0,0,,,4,,,51,127
582229,note_off,,,,,13,0,0,,,4,,,52,64
582258,note_on,,,,,29,0,0,,,2,,,76,117
582258,note_on,,,,,0,0,0,,,4,,,52,127
582272,note_off,,,,,14,0,0,,,4,,,51,64
582273,note_off,,,,,1,0,0,,,1,,,79,64
582300,note_on,,,,,27,0,0,,,2,,,73,116
582300,note_on,,,,,0,0,0,,,4,,,45,127
582314,note_off,,,,,14,0,0,,,2,,,76,64
582336,note_off,,,,,22,0,0,,,4,,,52,64
582341,note_on,,,,,5,0,0,,,4,,,57,127
582355,note_off,,,,,14,0,0,,,2,,,73,64
582382,note_off,,,,,27,0,0,,,4,,,45,64
582382,note_on,,,,,0,0,0,,,2,,,76,117
582383,note_on,,,,,1,0,0,,,4,,,56,127
582396,note_off,,,,,13,0,0,,,4,,,57,64
582423,note_on,,,,,27,0,0,,,2,,,69,118
582424,note_on,,,,,1,0,0,,,4,,,57,127
582438,note_off,,,,,14,0,0,,,4,,,56,64
582438,note_off,,,,,0,0,0,,,2,,,76,64
582465,note_on,,,,,27,0,0,,,1,,,81,114
582466,note_on,,,,,1,0,0,,,4,,,42,127
582480,note_off,,,,,14,0,0,,,2,,,69,64
582503,note_off,,,,,23,0,0,,,4,,,57,64
582508,note_on,,,,,5,0,0,,,4,,,54,127
582524,note_off,,,,,16,0,0,,,1,,,81,64
582551,note_off,,,,,27,0,0,,,4,,,42,64
582552,note_on,,,,,1,0,0,,,1,,,78,114
582552,note_on,,,,,0,0,0,,,4,,,52,127
582564,note_off,,,,,12,0,0,,,4,,,54,64
582590,note_on,,,,,26,0,0,,,2,,,74,117
582591,note_on,,,,,1,0,0,,,4,,,54,127
582604,note_off,,,,,13,0,0,,,4,,,52,64
582605,note_off,,,,,1,0,0,,,1,,,78,64
582630,note_on,,,,,25,0,0,,,1,,,86,115
582631,note_on,,,,,1,0,0,,,4,,,47,127
582643,note_off,,,,,12,0,0,,,2,,,74,64
582664,note_off,,,,,21,0,0,,,4,,,54,64
582670,note_on,,,,,6,0,0,,,4,,,59,127
582710,note_off,,,,,40,0,0,,,4,,,47,64
582710,note_on,,,,,0,0,0,,,4,,,58,127
582722,note_off,,,,,12,0,0,,,4,,,59,64
582748,note_on,,,,,26,0,0,,,4,,,59,127
582761,note_off,,,,,13,0,0,,,4,,,58,64
582788,note_on,,,,,27,0,0,,,4,,,43,127
582820,note_off,,,,,32,0,0,,,4,,,59,64
582826,note_on,,,,,6,0,0,,,4,,,55,127
582840,note_off,,,,,14,0,0,,,1,,,86,64
582866,note_off,,,,,26,0,0,,,4,,,43,64
582867,note_on,,,,,1,0,0,,,1,,,79,114
582867,note_on,,,,,0,0,0,,,2,,,76,117
582868,note_on,,,,,1,0,0,,,4,,,54,127
582880,note_off,,,,,12,0,0,,,4,,,55,64
582907,note_on,,,,,27,0,0,,,4,,,55,127
582921,note_off,,,,,14,0,0,,,4,,,54,64
582944,note_off,,,,,23,0,0,,,2,,,76,64
582944,note_off,,,,,0,0,0,,,1,,,79,64
582950,note_on,,,,,6,0,0,,,2,,,74,117
582950,note_on,,,,,0,0,0,,,1,,,78,114
582951,note_on,,,,,1,0,0,,,4,,,45,127
582986,note_off,,,,,35,0,0,,,4,,,55,64
582994,note_on,,,,,8,0,0,,,4,,,57,127
583037,note_on,,,,,43,0,0,,,4,,,56,127
583052,note_off,,,,,15,0,0,,,4,,,57,64
583081,note_on,,,,,29,0,0,,,4,,,57,127
583096,note_off,,,,,15,0,0,,,4,,,56,64
583110,note_off,,,,,14,0,0,,,4,,,45,64
583118,note_off,,,,,8,0,0,,,2,,,74,64
583119,note_off,,,,,1,0,0,,,1,,,78,64
583125,note_on,,,,,6,0,0,,,2,,,76,117
583126,note_on,,,,,1,0,0,,,4,,,45,127
583126,note_on,,,,,0,0,0,,,2,,,73,116
583161,note_off,,,,,35,0,0,,,4,,,57,64
583168,note_on,,,,,7,0,0,,,4,,,57,127
583202,note_off,,,,,34,0,0,,,4,,,45,64
583208,note_on,,,,,6,0,0,,,4,,,43,127
583242,note_off,,,,,34,0,0,,,4,,,57,64
583250,note_on,,,,,8,0,0,,,4,,,55,127
583286,note_off,,,,,36,0,0,,,4,,,43,64
583292,note_on,,,,,6,0,0,,,4,,,42,127
583329,note_off,,,,,37,0,0,,,4,,,55,64
583334,note_on,,,,,5,0,0,,,4,,,54,127
583373,note_off,,,,,39,0,0,,,4,,,42,64
583379,note_on,,,,,6,0,0,,,4,,,40,127
583414,note_off,,,,,35,0,0,,,4,,,54,64
583422,note_off,,,,,8,0,0,,,2,,,76,64
583422,note_off,,,,,0,0,0,,,2,,,73,64
583423,note_on,,,,,1,0,0,,,4,,,52,127
583461,note_off,,,,,38,0,0,,,4,,,40,64
583467,note_on,,,,,6,0,0,,,4,,,42,127
583467,note_on,,,,,0,0,0,,,2,,,74,117
583504,note_off,,,,,37,0,0,,,4,,,52,64
583512,note_on,,,,,8,0,0,,,4,,,54,127
583552,note_off,,,,,40,0,0,,,2,,,74,64
583553,note_on,,,,,1,0,0,,,1,,,78,114
583553,note_on,,,,,0,0,0,,,4,,,52,127
583588,note_off,,,,,35,0,0,,,4,,,54,64
583594,note_on,,,,,6,0,0,,,1,,,81,114
583594,note_on,,,,,0,0,0,,,4,,,54,127
583608,note_off,,,,,14,0,0,,,1,,,78,64
583629,note_off,,,,,21,0,0,,,4,,,52,64
583637,note_on,,,,,8,0,0,,,4,,,50,127
583637,note_on,,,,,0,0,0,,,1,,,86,115
583649,note_off,,,,,12,0,0,,,1,,,81,64
583670,note_off,,,,,21,0,0,,,4,,,54,64
583678,note_on,,,,,8,0,0,,,4,,,62,127
583692,note_off,,,,,14,0,0,,,4,,,42,64
583713,note_off,,,,,21,0,0,,,4,,,50,64
583718,note_on,,,,,5,0,0,,,4,,,49,127
583753,note_off,,,,,35,0,0,,,4,,,62,64
583759,note_on,,,,,6,0,0,,,4,,,61,127
583793,note_off,,,,,34,0,0,,,4,,,49,64
583799,note_on,,,,,6,0,0,,,4,,,47,127
583834,note_off,,,,,35,0,0,,,4,,,61,64
583839,note_on,,,,,5,0,0,,,4,,,59,127
583866,note_off,,,,,27,0,0,,,1,,,86,64
583874,note_off,,,,,8,0,0,,,4,,,47,64
583880,note_on,,,,,6,0,0,,,4,,,45,127
583880,note_on,,,,,0,0,0,,,2,,,74,117
583915,note_off,,,,,35,0,0,,,4,,,59,64
583921,note_on,,,,,6,0,0,,,4,,,57,127
583954,note_off,,,,,33,0,0,,,2,,,74,64
583955,note_off,,,,,1,0,0,,,4,,,45,64
583960,note_on,,,,,5,0,0,,,2,,,74,117
583961,note_on,,,,,1,0,0,,,4,,,44,127
583998,note_off,,,,,37,0,0,,,4,,,57,64
584004,note_on,,,,,6,0,0,,,4,,,56,127
584040,note_off,,,,,36,0,0,,,2,,,74,64
584046,note_on,,,,,6,0,0,,,1,,,80,114
584046,note_on,,,,,0,0,0,,,4,,,54,127
584060,note_off,,,,,14,0,0,,,4,,,56,64
584087,note_on,,,,,27,0,0,,,1,,,83,118
584088,note_on,,,,,1,0,0,,,4,,,56,127
584101,note_off,,,,,13,0,0,,,4,,,54,64
584102,note_off,,,,,1,0,0,,,1,,,80,64
584120,note_off,,,,,18,0,0,,,4,,,44,64
584127,note_on,,,,,7,0,0,,,1,,,86,115
584128,note_on,,,,,1,0,0,,,4,,,47,127
584142,note_off,,,,,14,0,0,,,1,,,83,64
584163,note_off,,,,,21,0,0,,,4,,,56,64
584169,note_on,,,,,6,0,0,,,4,,,59,127
584203,note_off,,,,,34,0,0,,,4,,,47,64
584209,note_on,,,,,6,0,0,,,4,,,45,127
584244,note_off,,,,,35,0,0,,,4,,,59,64
584249,note_on,,,,,5,0,0,,,4,,,57,127
584282,note_off,,,,,33,0,0,,,4,,,45,64
584288,note_on,,,,,6,0,0,,,4,,,43,127
584323,note_off,,,,,35,0,0,,,4,,,57,64
584328,note_on,,,,,5,0,0,,,4,,,55,127
584355,note_off,,,,,27,0,0,,,1,,,86,64
584361,note_off,,,,,6,0,0,,,4,,,43,64
584368,note_on,,,,,7,0,0,,,2,,,74,121
584369,note_on,,,,,1,0,0,,,4,,,40,127
584402,note_off,,,,,33,0,0,,,4,,,55,64
584408,note_on,,,,,6,0,0,,,4,,,52,127
584444,note_off,,,,,36,0,0,,,4,,,40,64
584450,note_on,,,,,6,0,0,,,2,,,73,120
584450,note_on,,,,,0,0,0,,,4,,,45,127
584451,note_off,,,,,1,0,0,,,2,,,74,64
584485,note_off,,,,,34,0,0,,,4,,,52,64
584491,note_on,,,,,6,0,0,,,4,,,57,127
584534,note_on,,,,,43,0,0,,,4,,,56,127
584547,note_off,,,,,13,0,0,,,4,,,57,64
584572,note_on,,,,,25,0,0,,,4,,,57,127
584585,note_off,,,,,13,0,0,,,4,,,56,64
584604,note_off,,,,,19,0,0,,,4,,,45,64
584605,note_off,,,,,1,0,0,,,2,,,73,64
584611,note_on,,,,,6,0,0,,,2,,,76,121
584612,note_on,,,,,1,0,0,,,4,,,37,127
584649,note_off,,,,,37,0,0,,,4,,,57,64
584654,note_on,,,,,5,0,0,,,4,,,49,127
584695,note_off,,,,,41,0,0,,,4,,,37,64
584696,note_on,,,,,1,0,0,,,4,,,47,127
584709,note_off,,,,,13,0,0,,,4,,,49,64
584736,note_on,,,,,27,0,0,,,4,,,49,127
584749,note_off,,,,,13,0,0,,,4,,,47,64
584769,note_off,,,,,20,0,0,,,2,,,76,64
584776,note_on,,,,,7,0,0,,,2,,,68,121
584777,note_on,,,,,1,0,0,,,4,,,59,127
584777,note_on,,,,,0,0,0,,,4,,,62,127
584778,note_on,,,,,1,0,0,,,4,,,40,127
584811,note_off,,,,,33,0,0,,,4,,,49,64
584817,note_on,,,,,6,0,0,,,4,,,52,127
584857,note_off,,,,,40,0,0,,,4,,,40,64
584858,note_on,,,,,1,0,0,,,4,,,50,127
584872,note_off,,,,,14,0,0,,,4,,,52,64
584900,note_on,,,,,28,0,0,,,4,,,52,127
584916,note_off,,,,,16,0,0,,,4,,,50,64
584937,note_off,,,,,21,0,0,,,4,,,62,64
584937,note_off,,,,,0,0,0,,,4,,,59,64
584938,note_off,,,,,1,0,0,,,2,,,68,64
584943,note_on,,,,,5,0,0,,,2,,,69,119
584944,note_on,,,,,1,0,0,,,4,,,61,127
584944,note_on,,,,,0,0,0,,,4,,,64,126
584945,note_on,,,,,1,0,0,,,4,,,45,127
584957,note_off,,,,,12,0,0,,,4,,,52,64
584984,note_on,,,,,27,0,0,,,4,,,57,127
585026,note_off,,,,,42,0,0,,,4,,,45,64
585027,note_on,,,,,1,0,0,,,4,,,52,127
585042,note_off,,,,,15,0,0,,,4,,,57,64
585072,note_on,,,,,30,0,0,,,4,,,49,127
585086,note_off,,,,,14,0,0,,,4,,,52,64
585114,note_on,,,,,28,0,0,,,4,,,45,127
585128,note_off,,,,,14,0,0,,,4,,,49,64
585197,note_off,,,,,69,0,0,,,2,,,69,64
585276,note_on,,,,,79,0,0,,,1,,,81,115
585288,note_off,,,,,12,0,0,,,4,,,64,64
585360,note_on,,,,,72,0,0,,,1,,,78,115
585367,note_off,,,,,7,0,0,,,1,,,81,64
585431,note_off,,,,,64,0,0,,,4,,,61,64
585445,note_on,,,,,14,0,0,,,2,,,75,118
585445,note_on,,,,,0,0,0,,,2,,,72,117
585445,note_on,,,,,0,0,0,,,2,,,69,118
585454,note_off,,,,,9,0,0,,,1,,,78,64
585528,note_on,,,,,74,0,0,,,2,,,76,118
585529,note_on,,,,,1,0,0,,,2,,,68,120
585529,note_on,,,,,0,0,0,,,2,,,71,116
585537,note_off,,,,,8,0,0,,,2,,,69,64
585538,note_off,,,,,1,0,0,,,2,,,72,64
585538,note_off,,,,,0,0,0,,,2,,,75,64
585609,note_on,,,,,71,0,0,,,1,,,82,115
585619,note_off,,,,,10,0,0,,,2,,,71,64
585619,note_off,,,,,0,0,0,,,2,,,68,64
585620,note_off,,,,,1,0,0,,,2,,,76,64
585693,note_on,,,,,73,0,0,,,1,,,83,115
585702,note_off,,,,,9,0,0,,,1,,,82,64
585777,note_on,,,,,75,0,0,,,2,,,73,117
585778,note_on,,,,,1,0,0,,,2,,,67,127
585778,note_on,,,,,0,0,0,,,2,,,70,118
585786,note_off,,,,,8,0,0,,,1,,,83,64
585861,note_on,,,,,75,0,0,,,2,,,74,118
585861,note_on,,,,,0,0,0,,,2,,,69,118
585862,note_on,,,,,1,0,0,,,4,,,66,127
585869,note_off,,,,,7,0,0,,,2,,,67,64
585870,note_off,,,,,1,0,0,,,2,,,73,64
585870,note_off,,,,,0,0,0,,,2,,,70,64
585945,note_off,,,,,75,0,0,,,4,,,45,64
585946,note_on,,,,,1,0,0,,,4,,,47,127
585946,note_on,,,,,0,0,0,,,4,,,59,127
585955,note_off,,,,,9,0,0,,,4,,,66,64
585956,note_off,,,,,1,0,0,,,2,,,69,64
585957,note_off,,,,,1,0,0,,,2,,,74,64
586032,note_on,,,,,75,0,0,,,2,,,74,118
586032,note_on,,,,,0,0,0,,,1,,,86,115
586113,note_on,,,,,81,0,0,,,4,,,57,127
586114,note_on,,,,,1,0,0,,,4,,,45,127
586116,note_off,,,,,2,0,0,,,4,,,59,64
586116,note_off,,,,,0,0,0,,,4,,,47,64
586123,note_off,,,,,7,0,0,,,1,,,86,64
586123,note_off,,,,,0,0,0,,,2,,,74,64
586199,note_on,,,,,76,0,0,,,1,,,85,115
586199,note_on,,,,,0,0,0,,,2,,,73,117
586280,note_on,,,,,81,0,0,,,4,,,55,127
586281,note_on,,,,,1,0,0,,,4,,,43,127
586283,note_off,,,,,2,0,0,,,4,,,45,64
586284,note_off,,,,,1,0,0,,,4,,,57,64
586288,note_off,,,,,4,0,0,,,2,,,73,64
586288,note_off,,,,,0,0,0,,,1,,,85,64
586362,note_on,,,,,74,0,0,,,1,,,83,115
586362,note_on,,,,,0,0,0,,,2,,,71,116
586445,note_on,,,,,83,0,0,,,4,,,66,127
586446,note_on,,,,,1,0,0,,,4,,,54,127
586448,note_off,,,,,2,0,0,,,4,,,55,64
586485,note_off,,,,,37,0,0,,,4,,,43,64
586523,note_on,,,,,38,0,0,,,1,,,81,115
586524,note_on,,,,,1,0,0,,,2,,,69,118
586526,note_off,,,,,2,0,0,,,2,,,71,64
586526,note_off,,,,,0,0,0,,,1,,,83,64
586600,note_on,,,,,74,0,0,,,4,,,64,126
586600,note_on,,,,,0,0,0,,,4,,,52,127
586603,note_off,,,,,3,0,0,,,4,,,66,64
586603,note_off,,,,,0,0,0,,,4,,,54,64
586682,note_on,,,,,79,0,0,,,1,,,79,115
586683,note_on,,,,,1,0,0,,,2,,,67,127
586685,note_off,,,,,2,0,0,,,2,,,69,64
586686,note_off,,,,,1,0,0,,,1,,,81,64
586761,note_on,,,,,75,0,0,,,4,,,62,127
586762,note_on,,,,,1,0,0,,,4,,,50,127
586764,note_off,,,,,2,0,0,,,4,,,52,64
586764,note_off,,,,,0,0,0,,,4,,,64,64
586842,note_on,,,,,78,0,0,,,1,,,78,115
586842,note_on,,,,,0,0,0,,,4,,,66,127
586845,note_off,,,,,3,0,0,,,1,,,79,64
586845,note_off,,,,,0,0,0,,,2,,,67,64
586919,note_off,,,,,74,0,0,,,4,,,66,64
586926,note_off,,,,,7,0,0,,,1,,,78,64
586927,note_on,,,,,1,0,0,,,1,,,81,115
586929,note_off,,,,,2,0,0,,,4,,,50,64
586930,note_off,,,,,1,0,0,,,4,,,62,64
586932,note_on,,,,,2,0,0,,,2,,,69,118
586932,note_on,,,,,0,0,0,,,4,,,66,127
586933,note_on,,,,,1,0,0,,,4,,,57,127
587131,note_off,,,,,198,0,0,,,4,,,66,64
587167,note_off,,,,,36,0,0,,,1,,,81,64
587177,note_on,,,,,10,0,0,,,1,,,79,115
587177,note_on,,,,,0,0,0,,,4,,,64,126
587222,note_on,,,,,45,0,0,,,4,,,62,127
587222,note_on,,,,,0,0,0,,,1,,,78,115
587234,note_off,,,,,12,0,0,,,4,,,64,64
587235,note_off,,,,,1,0,0,,,1,,,79,64
587264,note_on,,,,,29,0,0,,,2,,,76,118
587265,note_on,,,,,1,0,0,,,4,,,61,127
587284,note_off,,,,,19,0,0,,,4,,,62,64
587285,note_off,,,,,1,0,0,,,1,,,78,64
587312,note_on,,,,,27,0,0,,,1,,,78,115
587313,note_on,,,,,1,0,0,,,4,,,62,127
587323,note_off,,,,,10,0,0,,,2,,,76,64
587323,note_off,,,,,0,0,0,,,4,,,61,64
587337,note_off,,,,,14,0,0,,,2,,,69,64
587349,note_on,,,,,12,0,0,,,4,,,61,127
587349,note_on,,,,,0,0,0,,,2,,,76,118
587361,note_off,,,,,12,0,0,,,4,,,62,64
587362,note_off,,,,,1,0,0,,,1,,,78,64
587400,note_off,,,,,38,0,0,,,4,,,57,64
587627,note_off,,,,,227,0,0,,,2,,,76,64
587666,note_on,,,,,39,0,0,,,1,,,81,111
587748,note_off,,,,,82,0,0,,,1,,,81,64
587749,note_on,,,,,1,0,0,,,2,,,73,113
587815,note_off,,,,,66,0,0,,,4,,,61,64
587826,note_off,,,,,11,0,0,,,2,,,73,64
587827,note_on,,,,,1,0,0,,,2,,,76,114
587827,note_on,,,,,0,0,0,,,4,,,54,127
587846,note_on,,,,,19,0,0,,,2,,,74,114
587858,note_off,,,,,12,0,0,,,2,,,76,64
587904,note_on,,,,,46,0,0,,,4,,,57,127
587980,note_off,,,,,76,0,0,,,2,,,74,64
587982,note_off,,,,,2,0,0,,,4,,,54,64
587986,note_on,,,,,4,0,0,,,4,,,62,127
587986,note_on,,,,,0,0,0,,,2,,,74,114
588065,note_off,,,,,79,0,0,,,4,,,57,64
588069,note_on,,,,,4,0,0,,,4,,,57,127
588144,note_off,,,,,75,0,0,,,2,,,74,64
588148,note_off,,,,,4,0,0,,,4,,,62,64
588152,note_on,,,,,4,0,0,,,4,,,54,127
588152,note_on,,,,,0,0,0,,,2,,,74,114
588233,note_off,,,,,81,0,0,,,4,,,57,64
588237,note_on,,,,,4,0,0,,,4,,,57,127
588318,note_off,,,,,81,0,0,,,2,,,74,64
588322,note_off,,,,,4,0,0,,,4,,,54,64
588327,note_off,,,,,5,0,0,,,4,,,57,64
588328,note_on,,,,,1,0,0,,,4,,,55,127
588336,note_on,,,,,8,0,0,,,4,,,59,127
588342,note_on,,,,,6,0,0,,,4,,,62,127
588355,note_on,,,,,13,0,0,,,2,,,74,114
588372,note_on,,,,,17,0,0,,,2,,,76,114
588382,note_on,,,,,10,0,0,,,1,,,83,111
588618,note_off,,,,,236,0,0,,,2,,,74,64
588624,note_off,,,,,6,0,0,,,2,,,76,64
588629,note_off,,,,,5,0,0,,,1,,,83,64
588631,note_on,,,,,2,0,0,,,2,,,76,114
588661,note_off,,,,,30,0,0,,,2,,,76,64
588669,note_on,,,,,8,0,0,,,1,,,78,111
588792,note_on,,,,,123,0,0,,,1,,,79,111
588796,note_off,,,,,4,0,0,,,1,,,78,64
588830,note_on,,,,,34,0,0,,,1,,,81,111
588834,note_off,,,,,4,0,0,,,1,,,79,64
588951,note_off,,,,,117,0,0,,,4,,,55,64
588957,note_off,,,,,6,0,0,,,4,,,59,64
588958,note_off,,,,,1,0,0,,,4,,,62,64
588992,note_on,,,,,34,0,0,,,4,,,57,127
588992,note_on,,,,,0,0,0,,,4,,,61,127
589085,note_off,,,,,93,0,0,,,1,,,81,64
589112,note_on,,,,,27,0,0,,,1,,,79,111
589148,note_on,,,,,36,0,0,,,2,,,76,114
589156,note_off,,,,,8,0,0,,,1,,,79,64
589266,note_off,,,,,110,0,0,,,2,,,76,64
589267,note_on,,,,,1,0,0,,,2,,,73,113
589304,note_off,,,,,37,0,0,,,2,,,73,64
589308,note_on,,,,,4,0,0,,,2,,,74,114
589450,note_off,,,,,142,0,0,,,4,,,61,64
589450,note_off,,,,,0,0,0,,,4,,,57,64
589463,note_on,,,,,13,0,0,,,4,,,50,127
589463,note_on,,,,,0,0,0,,,4,,,57,127
589463,note_on,,,,,0,0,0,,,4,,,62,127
589528,note_off,,,,,65,0,0,,,2,,,74,64
589580,note_on,,,,,52,0,0,,,2,,,69,118
589618,note_on,,,,,38,0,0,,,2,,,74,118
589624,note_off,,,,,6,0,0,,,2,,,69,64
589738,note_off,,,,,114,0,0,,,2,,,74,64
589740,note_on,,,,,2,0,0,,,1,,,78,115
589774,note_off,,,,,34,0,0,,,1,,,78,64
589786,note_on,,,,,12,0,0,,,1,,,81,115
589787,note_on,,,,,1,0,0,,,1,,,78,115
589787,note_on,,,,,0,0,0,,,4,,,51,127
589795,note_off,,,,,8,0,0,,,4,,,50,64
589796,note_off,,,,,1,0,0,,,4,,,62,64
589796,note_off,,,,,0,0,0,,,4,,,57,64
589831,note_on,,,,,35,0,0,,,4,,,63,127
589873,note_on,,,,,42,0,0,,,1,,,79,115
589874,note_on,,,,,1,0,0,,,4,,,52,127
589874,note_on,,,,,0,0,0,,,2,,,76,118
589875,note_off,,,,,1,0,0,,,4,,,51,64
589883,note_off,,,,,8,0,0,,,1,,,78,64
589883,note_off,,,,,0,0,0,,,1,,,81,64
589917,note_on,,,,,34,0,0,,,4,,,64,126
589919,note_off,,,,,2,0,0,,,4,,,63,64
589957,note_on,,,,,38,0,0,,,1,,,84,115
589957,note_on,,,,,0,0,0,,,2,,,75,118
589958,note_off,,,,,1,0,0,,,4,,,52,64
589958,note_on,,,,,0,0,0,,,4,,,57,127
589967,note_off,,,,,9,0,0,,,1,,,79,64
589967,note_off,,,,,0,0,0,,,2,,,76,64
589998,note_on,,,,,31,0,0,,,2,,,69,118
590000,note_off,,,,,2,0,0,,,4,,,64,64
590042,note_on,,,,,42,0,0,,,1,,,83,115
590043,note_on,,,,,1,0,0,,,2,,,76,118
590043,note_on,,,,,0,0,0,,,4,,,55,127
590044,note_off,,,,,1,0,0,,,4,,,57,64
590050,note_off,,,,,6,0,0,,,2,,,75,64
590051,note_off,,,,,1,0,0,,,1,,,84,64
590082,note_on,,,,,31,0,0,,,2,,,67,127
590083,note_off,,,,,1,0,0,,,2,,,69,64
590120,note_off,,,,,37,0,0,,,2,,,76,64
590120,note_off,,,,,0,0,0,,,1,,,83,64
590125,note_on,,,,,5,0,0,,,2,,,76,118
590125,note_on,,,,,0,0,0,,,1,,,79,115
590126,note_off,,,,,1,0,0,,,4,,,55,64
590126,note_on,,,,,0,0,0,,,4,,,49,127
590169,note_on,,,,,43,0,0,,,4,,,61,127
590170,note_off,,,,,1,0,0,,,2,,,67,64
590205,note_off,,,,,35,0,0,,,2,,,76,64
590211,note_on,,,,,6,0,0,,,1,,,78,115
590212,note_on,,,,,1,0,0,,,2,,,74,118
590212,note_on,,,,,0,0,0,,,4,,,50,127
590213,note_off,,,,,1,0,0,,,4,,,49,64
590221,note_off,,,,,8,0,0,,,1,,,79,64
590257,note_on,,,,,36,0,0,,,4,,,62,127
590258,note_off,,,,,1,0,0,,,4,,,61,64
590294,note_off,,,,,36,0,0,,,2,,,74,64
590300,note_on,,,,,6,0,0,,,1,,,82,115
590300,note_on,,,,,0,0,0,,,2,,,73,117
590301,note_off,,,,,1,0,0,,,4,,,50,64
590301,note_on,,,,,0,0,0,,,4,,,55,127
590309,note_off,,,,,8,0,0,,,1,,,78,64
590346,note_off,,,,,37,0,0,,,4,,,62,64
590346,note_on,,,,,0,0,0,,,2,,,67,127
590385,note_off,,,,,39,0,0,,,4,,,55,64
590386,note_off,,,,,1,0,0,,,2,,,73,64
590386,note_on,,,,,0,0,0,,,1,,,81,111
590387,note_on,,,,,1,0,0,,,4,,,54,127
590387,note_on,,,,,0,0,0,,,2,,,74,118
590402,note_off,,,,,15,0,0,,,1,,,82,64
590429,note_off,,,,,27,0,0,,,2,,,67,64
590430,note_on,,,,,1,0,0,,,4,,,66,127
590474,note_off,,,,,44,0,0,,,2,,,74,64
590475,note_on,,,,,1,0,0,,,2,,,74,118
590483,note_off,,,,,8,0,0,,,1,,,81,64
590518,note_on,,,,,35,0,0,,,1,,,86,111
590566,note_on,,,,,48,0,0,,,1,,,85,111
590573,note_off,,,,,7,0,0,,,1,,,86,64
590610,note_on,,,,,37,0,0,,,1,,,86,111
590617,note_off,,,,,7,0,0,,,1,,,85,64
590625,note_off,,,,,8,0,0,,,4,,,54,64
590640,note_off,,,,,15,0,0,,,4,,,66,64
590648,note_off,,,,,8,0,0,,,2,,,74,64
590656,note_on,,,,,8,0,0,,,2,,,72,117
590656,note_on,,,,,0,0,0,,,4,,,62,127
590657,note_on,,,,,1,0,0,,,4,,,54,127
590691,note_off,,,,,34,0,0,,,1,,,86,64
590699,note_on,,,,,8,0,0,,,1,,,84,111
590743,note_on,,,,,44,0,0,,,1,,,83,111
590751,note_off,,,,,8,0,0,,,1,,,84,64
590787,note_on,,,,,36,0,0,,,1,,,84,111
590795,note_off,,,,,8,0,0,,,1,,,83,64
590826,note_off,,,,,31,0,0,,,4,,,62,64
590830,note_off,,,,,4,0,0,,,4,,,54,64
590830,note_off,,,,,0,0,0,,,2,,,72,64
590831,note_on,,,,,1,0,0,,,4,,,62,127
590831,note_on,,,,,0,0,0,,,2,,,70,118
590832,note_on,,,,,1,0,0,,,4,,,55,127
590865,note_off,,,,,33,0,0,,,1,,,84,64
590871,note_on,,,,,6,0,0,,,1,,,82,111
590913,note_on,,,,,42,0,0,,,1,,,81,111
590919,note_off,,,,,6,0,0,,,1,,,82,64
590953,note_on,,,,,34,0,0,,,1,,,82,111
590961,note_off,,,,,8,0,0,,,1,,,81,64
590996,note_off,,,,,35,0,0,,,4,,,55,64
590997,note_off,,,,,1,0,0,,,2,,,70,64
590997,note_on,,,,,0,0,0,,,2,,,69,118
590998,note_on,,,,,1,0,0,,,4,,,57,127
591030,note_off,,,,,32,0,0,,,1,,,82,64
591036,note_on,,,,,6,0,0,,,1,,,81,111
591080,note_on,,,,,44,0,0,,,1,,,80,111
591086,note_off,,,,,6,0,0,,,1,,,81,64
591119,note_on,,,,,33,0,0,,,1,,,81,111
591126,note_off,,,,,7,0,0,,,1,,,80,64
591161,note_off,,,,,35,0,0,,,2,,,69,64
591161,note_off,,,,,0,0,0,,,4,,,57,64
591162,note_on,,,,,1,0,0,,,2,,,68,120
591162,note_on,,,,,0,0,0,,,4,,,58,127
591195,note_off,,,,,33,0,0,,,1,,,81,64
591201,note_on,,,,,6,0,0,,,1,,,80,111
591243,note_on,,,,,42,0,0,,,1,,,79,111
591251,note_off,,,,,8,0,0,,,1,,,80,64
591286,note_on,,,,,35,0,0,,,1,,,80,111
591293,note_off,,,,,7,0,0,,,1,,,79,64
591314,note_off,,,,,21,0,0,,,4,,,62,64
591328,note_off,,,,,14,0,0,,,4,,,58,64
591328,note_off,,,,,0,0,0,,,2,,,68,64
591329,note_on,,,,,1,0,0,,,4,,,61,127
591329,note_on,,,,,0,0,0,,,1,,,81,111
591330,note_on,,,,,1,0,0,,,4,,,57,127
591334,note_off,,,,,4,0,0,,,1,,,80,64
591478,note_off,,,,,144,0,0,,,1,,,81,64
591478,note_off,,,,,0,0,0,,,4,,,61,64
591484,note_off,,,,,6,0,0,,,4,,,57,64
591485,note_on,,,,,1,0,0,,,4,,,33,127
591485,note_on,,,,,0,0,0,,,4,,,45,127
591645,note_on,,,,,160,0,0,,,4,,,46,127
591646,note_on,,,,,1,0,0,,,4,,,34,127
591648,note_off,,,,,2,0,0,,,4,,,45,64
591648,note_off,,,,,0,0,0,,,4,,,33,64
591810,note_on,,,,,162,0,0,,,4,,,32,127
591810,note_on,,,,,0,0,0,,,4,,,44,127
591811,note_off,,,,,1,0,0,,,4,,,34,64
591811,note_off,,,,,0,0,0,,,4,,,46,64
591983,note_on,,,,,172,0,0,,,4,,,33,127
591983,note_on,,,,,0,0,0,,,4,,,45,127
591985,note_off,,,,,2,0,0,,,4,,,32,64
591986,note_off,,,,,1,0,0,,,4,,,44,64
592146,note_on,,,,,160,0,0,,,2,,,69,118
592275,note_off,,,,,129,0,0,,,2,,,69,64
592275,note_on,,,,,0,0,0,,,2,,,73,117
592319,note_off,,,,,44,0,0,,,2,,,73,64
592319,note_on,,,,,0,0,0,,,2,,,74,118
592326,note_on,,,,,7,0,0,,,4,,,50,127
592364,note_on,,,,,38,0,0,,,4,,,62,127
592385,note_off,,,,,21,0,0,,,4,,,50,64
592408,note_off,,,,,23,0,0,,,4,,,45,64
592409,note_off,,,,,1,0,0,,,2,,,74,64
592409,note_on,,,,,0,0,0,,,1,,,78,115
592410,note_on,,,,,1,0,0,,,4,,,61,127
592424,note_off,,,,,14,0,0,,,4,,,62,64
592452,note_on,,,,,28,0,0,,,1,,,81,115
592453,note_on,,,,,1,0,0,,,4,,,62,127
592465,note_off,,,,,12,0,0,,,4,,,61,64
592465,note_off,,,,,0,0,0,,,1,,,78,64
592495,note_on,,,,,30,0,0,,,1,,,86,115
592500,note_on,,,,,5,0,0,,,4,,,47,127
592508,note_off,,,,,8,0,0,,,1,,,81,64
592529,note_off,,,,,21,0,0,,,4,,,62,64
592535,note_on,,,,,6,0,0,,,4,,,59,127
592575,note_on,,,,,40,0,0,,,4,,,57,127
592583,note_off,,,,,8,0,0,,,4,,,47,64
592589,note_off,,,,,6,0,0,,,4,,,59,64
592616,note_on,,,,,27,0,0,,,4,,,59,127
592629,note_off,,,,,13,0,0,,,4,,,57,64
592666,note_on,,,,,37,0,0,,,4,,,42,127
592692,note_off,,,,,26,0,0,,,4,,,59,64
592698,note_on,,,,,6,0,0,,,4,,,54,127
592735,note_off,,,,,37,0,0,,,1,,,86,64
592740,note_on,,,,,5,0,0,,,2,,,74,118
592741,note_on,,,,,1,0,0,,,4,,,52,127
592747,note_off,,,,,6,0,0,,,4,,,42,64
592755,note_off,,,,,8,0,0,,,4,,,54,64
592780,note_on,,,,,25,0,0,,,4,,,54,127
592793,note_off,,,,,13,0,0,,,4,,,52,64
592814,note_off,,,,,21,0,0,,,2,,,74,64
592822,note_on,,,,,8,0,0,,,2,,,76,118
592828,note_on,,,,,6,0,0,,,4,,,43,127
592857,note_off,,,,,29,0,0,,,4,,,54,64
592862,note_on,,,,,5,0,0,,,4,,,55,127
592905,note_on,,,,,43,0,0,,,1,,,79,115
592905,note_on,,,,,0,0,0,,,4,,,54,127
592911,note_off,,,,,6,0,0,,,4,,,43,64
592913,note_off,,,,,2,0,0,,,2,,,76,64
592919,note_off,,,,,6,0,0,,,4,,,55,64
592948,note_on,,,,,29,0,0,,,2,,,76,118
592948,note_on,,,,,0,0,0,,,4,,,55,127
592962,note_off,,,,,14,0,0,,,4,,,54,64
592963,note_off,,,,,1,0,0,,,4,,,33,64
592990,note_on,,,,,27,0,0,,,1,,,83,116
592996,note_on,,,,,6,0,0,,,4,,,40,127
592998,note_off,,,,,2,0,0,,,1,,,79,64
593025,note_off,,,,,27,0,0,,,4,,,55,64
593030,note_on,,,,,5,0,0,,,4,,,52,127
593040,note_off,,,,,10,0,0,,,2,,,76,64
593073,note_on,,,,,33,0,0,,,1,,,79,116
593073,note_on,,,,,0,0,0,,,4,,,51,127
593077,note_off,,,,,4,0,0,,,4,,,40,64
593081,note_off,,,,,4,0,0,,,1,,,83,64
593087,note_off,,,,,6,0,0,,,4,,,52,64
593112,note_on,,,,,25,0,0,,,2,,,76,119
593112,note_on,,,,,0,0,0,,,4,,,52,127
593126,note_off,,,,,14,0,0,,,4,,,51,64
593155,note_on,,,,,29,0,0,,,2,,,73,118
593161,note_on,,,,,6,0,0,,,4,,,45,127
593165,note_off,,,,,4,0,0,,,1,,,79,64
593190,note_off,,,,,25,0,0,,,4,,,52,64
593196,note_on,,,,,6,0,0,,,4,,,57,127
593203,note_off,,,,,7,0,0,,,2,,,76,64
593238,note_on,,,,,35,0,0,,,4,,,56,127
593238,note_on,,,,,0,0,0,,,2,,,76,119
593244,note_off,,,,,6,0,0,,,4,,,45,64
593246,note_off,,,,,2,0,0,,,2,,,73,64
593252,note_off,,,,,6,0,0,,,4,,,57,64
593279,note_on,,,,,27,0,0,,,2,,,69,119
593280,note_on,,,,,1,0,0,,,4,,,57,127
593293,note_off,,,,,13,0,0,,,4,,,56,64
593320,note_on,,,,,27,0,0,,,1,,,81,116
593326,note_on,,,,,6,0,0,,,4,,,42,127
593330,note_off,,,,,4,0,0,,,2,,,76,64
593357,note_off,,,,,27,0,0,,,4,,,57,64
593364,note_on,,,,,7,0,0,,,4,,,54,127
593374,note_off,,,,,10,0,0,,,2,,,69,64
593407,note_on,,,,,33,0,0,,,1,,,78,116
593407,note_on,,,,,0,0,0,,,4,,,52,127
593413,note_off,,,,,6,0,0,,,4,,,42,64
593417,note_off,,,,,4,0,0,,,1,,,81,64
593423,note_off,,,,,6,0,0,,,4,,,54,64
593448,note_on,,,,,25,0,0,,,2,,,74,119
593449,note_on,,,,,1,0,0,,,4,,,54,127
593461,note_off,,,,,12,0,0,,,4,,,52,64
593491,note_on,,,,,30,0,0,,,1,,,83,116
593497,note_on,,,,,6,0,0,,,4,,,43,127
593499,note_off,,,,,2,0,0,,,1,,,78,64
593524,note_off,,,,,25,0,0,,,4,,,54,64
593530,note_on,,,,,6,0,0,,,4,,,55,127
593572,note_on,,,,,42,0,0,,,4,,,54,127
593580,note_off,,,,,8,0,0,,,4,,,43,64
593587,note_off,,,,,7,0,0,,,4,,,55,64
593607,note_off,,,,,20,0,0,,,2,,,74,64
593614,note_on,,,,,7,0,0,,,4,,,55,127
593628,note_off,,,,,14,0,0,,,4,,,54,64
593649,note_off,,,,,21,0,0,,,1,,,83,64
593656,note_on,,,,,7,0,0,,,2,,,73,118
593657,note_on,,,,,1,0,0,,,2,,,69,119
593657,note_on,,,,,0,0,0,,,4,,,64,126
593663,note_on,,,,,6,0,0,,,4,,,45,127
593690,note_off,,,,,27,0,0,,,4,,,55,64
593696,note_on,,,,,6,0,0,,,4,,,57,127
593709,note_off,,,,,13,0,0,,,4,,,64,64
593738,note_on,,,,,29,0,0,,,4,,,56,127
593744,note_off,,,,,6,0,0,,,4,,,45,64
593751,note_off,,,,,7,0,0,,,4,,,57,64
593778,note_on,,,,,27,0,0,,,4,,,57,127
593792,note_off,,,,,14,0,0,,,4,,,56,64
593813,note_off,,,,,21,0,0,,,2,,,73,64
593813,note_off,,,,,0,0,0,,,2,,,69,64
593820,note_on,,,,,7,0,0,,,2,,,74,119
593826,note_on,,,,,6,0,0,,,4,,,47,127
593856,note_off,,,,,30,0,0,,,4,,,57,64
593862,note_on,,,,,6,0,0,,,4,,,59,127
593906,note_on,,,,,44,0,0,,,1,,,80,116
593907,note_on,,,,,1,0,0,,,4,,,57,127
593913,note_off,,,,,6,0,0,,,4,,,47,64
593920,note_off,,,,,7,0,0,,,4,,,59,64
593950,note_on,,,,,30,0,0,,,4,,,59,127
593950,note_on,,,,,0,0,0,,,1,,,86,116
593964,note_off,,,,,14,0,0,,,4,,,57,64
593987,note_off,,,,,23,0,0,,,2,,,74,64
593990,note_on,,,,,3,0,0,,,2,,,76,119
593996,note_on,,,,,6,0,0,,,4,,,45,127
594025,note_off,,,,,29,0,0,,,4,,,59,64
594033,note_on,,,,,8,0,0,,,4,,,57,127
594073,note_off,,,,,40,0,0,,,1,,,80,64
594077,note_on,,,,,4,0,0,,,1,,,81,116
594077,note_on,,,,,0,0,0,,,4,,,56,127
594084,note_off,,,,,7,0,0,,,4,,,45,64
594091,note_off,,,,,7,0,0,,,4,,,57,64
594117,note_off,,,,,26,0,0,,,1,,,86,64
594120,note_on,,,,,3,0,0,,,1,,,85,116
594120,note_on,,,,,0,0,0,,,4,,,57,127
594136,note_off,,,,,16,0,0,,,4,,,56,64
594161,note_off,,,,,25,0,0,,,2,,,76,64
594165,note_on,,,,,4,0,0,,,2,,,73,118
594171,note_on,,,,,6,0,0,,,4,,,43,127
594200,note_off,,,,,29,0,0,,,4,,,57,64
594205,note_on,,,,,5,0,0,,,4,,,55,127
594244,note_off,,,,,39,0,0,,,1,,,81,64
594248,note_on,,,,,4,0,0,,,2,,,76,119
594249,note_on,,,,,1,0,0,,,4,,,54,127
594255,note_off,,,,,6,0,0,,,4,,,43,64
594262,note_off,,,,,7,0,0,,,4,,,55,64
594287,note_off,,,,,25,0,0,,,1,,,85,64
594291,note_on,,,,,4,0,0,,,1,,,83,116
594292,note_on,,,,,1,0,0,,,4,,,55,127
594306,note_off,,,,,14,0,0,,,4,,,54,64
594330,note_off,,,,,24,0,0,,,2,,,73,64
594334,note_on,,,,,4,0,0,,,2,,,74,119
594340,note_on,,,,,6,0,0,,,4,,,42,127
594371,note_off,,,,,31,0,0,,,4,,,55,64
594377,note_on,,,,,6,0,0,,,4,,,54,127
594417,note_off,,,,,40,0,0,,,2,,,76,64
594420,note_on,,,,,3,0,0,,,1,,,78,116
594421,note_on,,,,,1,0,0,,,4,,,52,127
594427,note_off,,,,,6,0,0,,,4,,,42,64
594433,note_off,,,,,6,0,0,,,4,,,54,64
594460,note_off,,,,,27,0,0,,,1,,,83,64
594464,note_on,,,,,4,0,0,,,4,,,54,127
594464,note_on,,,,,0,0,0,,,1,,,81,116
594478,note_off,,,,,14,0,0,,,4,,,52,64
594486,note_off,,,,,8,0,0,,,1,,,78,64
594504,note_off,,,,,18,0,0,,,2,,,74,64
594507,note_on,,,,,3,0,0,,,2,,,71,117
594513,note_on,,,,,6,0,0,,,4,,,43,127
594519,note_on,,,,,6,0,0,,,2,,,76,119
594528,note_off,,,,,9,0,0,,,1,,,81,64
594529,note_on,,,,,1,0,0,,,1,,,79,116
594544,note_off,,,,,15,0,0,,,4,,,54,64
594550,note_on,,,,,6,0,0,,,4,,,55,127
594593,note_on,,,,,43,0,0,,,4,,,54,127
594599,note_off,,,,,6,0,0,,,4,,,43,64
594606,note_off,,,,,7,0,0,,,4,,,55,64
594635,note_on,,,,,29,0,0,,,4,,,55,127
594650,note_off,,,,,15,0,0,,,4,,,54,64
594672,note_off,,,,,22,0,0,,,2,,,71,64
594677,note_on,,,,,5,0,0,,,2,,,69,119
594683,note_off,,,,,6,0,0,,,2,,,76,64
594684,note_on,,,,,1,0,0,,,4,,,45,127
594688,note_on,,,,,4,0,0,,,2,,,73,118
594693,note_off,,,,,5,0,0,,,1,,,79,64
594698,note_on,,,,,5,0,0,,,2,,,76,119
594714,note_off,,,,,16,0,0,,,4,,,55,64
594720,note_on,,,,,6,0,0,,,4,,,57,127
594764,note_on,,,,,44,0,0,,,4,,,55,127
594769,note_off,,,,,5,0,0,,,4,,,45,64
594777,note_off,,,,,8,0,0,,,4,,,57,64
594806,note_on,,,,,29,0,0,,,4,,,57,127
594821,note_off,,,,,15,0,0,,,4,,,55,64
594842,note_off,,,,,21,0,0,,,2,,,69,64
594850,note_on,,,,,8,0,0,,,2,,,74,119
594854,note_off,,,,,4,0,0,,,2,,,73,64
594856,note_on,,,,,2,0,0,,,4,,,47,127
594864,note_off,,,,,8,0,0,,,2,,,76,64
594885,note_off,,,,,21,0,0,,,4,,,57,64
594890,note_on,,,,,5,0,0,,,4,,,59,127
594933,note_on,,,,,43,0,0,,,4,,,57,127
594933,note_on,,,,,0,0,0,,,1,,,80,116
594939,note_off,,,,,6,0,0,,,4,,,47,64
594947,note_off,,,,,8,0,0,,,4,,,59,64
594972,note_on,,,,,25,0,0,,,1,,,86,116
594972,note_on,,,,,0,0,0,,,4,,,59,127
594986,note_off,,,,,14,0,0,,,4,,,57,64
595011,note_off,,,,,25,0,0,,,2,,,74,64
595015,note_on,,,,,4,0,0,,,2,,,76,119
595021,note_on,,,,,6,0,0,,,4,,,45,127
595052,note_off,,,,,31,0,0,,,4,,,59,64
595059,note_on,,,,,7,0,0,,,4,,,57,127
595098,note_off,,,,,39,0,0,,,1,,,80,64
595102,note_on,,,,,4,0,0,,,1,,,81,116
595102,note_on,,,,,0,0,0,,,4,,,56,127
595106,note_off,,,,,4,0,0,,,4,,,45,64
595114,note_off,,,,,8,0,0,,,4,,,57,64
595139,note_off,,,,,25,0,0,,,1,,,86,64
595143,note_on,,,,,4,0,0,,,4,,,57,127
595143,note_on,,,,,0,0,0,,,1,,,85,116
595157,note_off,,,,,14,0,0,,,4,,,56,64
595182,note_off,,,,,25,0,0,,,2,,,76,64
595186,note_on,,,,,4,0,0,,,2,,,73,118
595192,note_on,,,,,6,0,0,,,4,,,43,127
595222,note_off,,,,,30,0,0,,,4,,,57,64
595228,note_on,,,,,6,0,0,,,4,,,55,127
595267,note_off,,,,,39,0,0,,,1,,,81,64
595271,note_on,,,,,4,0,0,,,2,,,76,119
595271,note_on,,,,,0,0,0,,,4,,,54,127
595277,note_off,,,,,6,0,0,,,4,,,43,64
595285,note_off,,,,,8,0,0,,,4,,,55,64
595308,note_off,,,,,23,0,0,,,1,,,85,64
595312,note_on,,,,,4,0,0,,,1,,,83,116
595312,note_on,,,,,0,0,0,,,4,,,55,127
595328,note_off,,,,,16,0,0,,,4,,,54,64
595353,note_off,,,,,25,0,0,,,2,,,73,64
595357,note_on,,,,,4,0,0,,,2,,,74,119
595363,note_on,,,,,6,0,0,,,4,,,42,127
595392,note_off,,,,,29,0,0,,,4,,,55,64
595399,note_on,,,,,7,0,0,,,4,,,54,127
595438,note_off,,,,,39,0,0,,,2,,,76,64
595441,note_on,,,,,3,0,0,,,1,,,78,116
595442,note_on,,,,,1,0,0,,,4,,,52,127
595448,note_off,,,,,6,0,0,,,4,,,42,64
595454,note_off,,,,,6,0,0,,,4,,,54,64
595477,note_off,,,,,23,0,0,,,1,,,83,64
595481,note_on,,,,,4,0,0,,,1,,,81,116
595481,note_on,,,,,0,0,0,,,4,,,54,127
595495,note_off,,,,,14,0,0,,,4,,,52,64
595503,note_off,,,,,8,0,0,,,1,,,78,64
595520,note_off,,,,,17,0,0,,,2,,,74,64
595524,note_on,,,,,4,0,0,,,2,,,71,117
595530,note_on,,,,,6,0,0,,,4,,,43,127
595536,note_on,,,,,6,0,0,,,2,,,76,119
595543,note_off,,,,,7,0,0,,,1,,,81,64
595544,note_on,,,,,1,0,0,,,1,,,79,116
595558,note_off,,,,,14,0,0,,,4,,,54,64
595565,note_on,,,,,7,0,0,,,4,,,55,127
595609,note_on,,,,,44,0,0,,,4,,,54,127
595617,note_off,,,,,8,0,0,,,4,,,43,64
595623,note_off,,,,,6,0,0,,,4,,,55,64
595652,note_on,,,,,29,0,0,,,4,,,55,127
595667,note_off,,,,,15,0,0,,,4,,,54,64
595690,note_off,,,,,23,0,0,,,2,,,71,64
595698,note_on,,,,,8,0,0,,,2,,,69,126
595702,note_off,,,,,4,0,0,,,2,,,76,64
595704,note_on,,,,,2,0,0,,,4,,,45,127
595707,note_on,,,,,3,0,0,,,2,,,73,125
595711,note_off,,,,,4,0,0,,,1,,,79,64
595717,note_on,,,,,6,0,0,,,2,,,76,126
595734,note_off,,,,,17,0,0,,,4,,,55,64
595740,note_on,,,,,6,0,0,,,4,,,57,127
595784,note_on,,,,,44,0,0,,,4,,,55,127
595798,note_off,,,,,14,0,0,,,4,,,57,64
595826,note_on,,,,,28,0,0,,,4,,,57,127
595842,note_off,,,,,16,0,0,,,4,,,55,64
595863,note_off,,,,,21,0,0,,,2,,,69,64
595871,note_off,,,,,8,0,0,,,4,,,45,64
595871,note_on,,,,,0,0,0,,,4,,,62,127
595875,note_off,,,,,4,0,0,,,2,,,73,64
595877,note_on,,,,,2,0,0,,,4,,,38,127
595885,note_off,,,,,8,0,0,,,2,,,76,64
595910,note_off,,,,,25,0,0,,,4,,,57,64
595918,note_on,,,,,8,0,0,,,4,,,50,127
595918,note_on,,,,,0,0,0,,,2,,,74,126
595965,note_on,,,,,47,0,0,,,2,,,73,125
595965,note_on,,,,,0,0,0,,,4,,,49,127
595977,note_off,,,,,12,0,0,,,4,,,50,64
595978,note_off,,,,,1,0,0,,,2,,,74,64
596003,note_on,,,,,25,0,0,,,2,,,74,126
596004,note_on,,,,,1,0,0,,,4,,,50,127
596017,note_off,,,,,13,0,0,,,4,,,49,64
596018,note_off,,,,,1,0,0,,,2,,,73,64
596040,note_off,,,,,22,0,0,,,4,,,62,64
596047,note_off,,,,,7,0,0,,,4,,,38,64
596048,note_on,,,,,1,0,0,,,4,,,66,127
596054,note_on,,,,,6,0,0,,,4,,,42,127
596085,note_off,,,,,31,0,0,,,4,,,50,64
596085,note_off,,,,,0,0,0,,,2,,,74,64
596091,note_on,,,,,6,0,0,,,1,,,78,123
596092,note_on,,,,,1,0,0,,,4,,,54,127
596133,note_on,,,,,41,0,0,,,4,,,53,127
596133,note_on,,,,,0,0,0,,,2,,,77,126
596145,note_off,,,,,12,0,0,,,4,,,54,64
596146,note_off,,,,,1,0,0,,,1,,,78,64
596173,note_on,,,,,27,0,0,,,1,,,78,123
596173,note_on,,,,,0,0,0,,,4,,,54,127
596185,note_off,,,,,12,0,0,,,4,,,53,64
596186,note_off,,,,,1,0,0,,,2,,,77,64
596208,note_off,,,,,22,0,0,,,4,,,66,64
596215,note_off,,,,,7,0,0,,,4,,,42,64
596216,note_on,,,,,1,0,0,,,2,,,69,126
596222,note_on,,,,,6,0,0,,,4,,,45,127
596253,note_off,,,,,31,0,0,,,4,,,54,64
596253,note_off,,,,,0,0,0,,,1,,,78,64
596259,note_on,,,,,6,0,0,,,1,,,81,123
596260,note_on,,,,,1,0,0,,,4,,,57,127
596301,note_on,,,,,41,0,0,,,1,,,80,123
596301,note_on,,,,,0,0,0,,,4,,,56,127
596313,note_off,,,,,12,0,0,,,4,,,57,64
596314,note_off,,,,,1,0,0,,,1,,,81,64
596339,note_on,,,,,25,0,0,,,1,,,81,123
596340,note_on,,,,,1,0,0,,,4,,,57,127
596353,note_off,,,,,13,0,0,,,4,,,56,64
596354,note_off,,,,,1,0,0,,,1,,,80,64
596374,note_off,,,,,20,0,0,,,2,,,69,64
596383,note_off,,,,,9,0,0,,,4,,,45,64
596385,note_off,,,,,2,0,0,,,4,,,57,64
596386,note_off,,,,,1,0,0,,,1,,,81,64
596386,note_on,,,,,0,0,0,,,4,,,50,127
596387,note_on,,,,,1,0,0,,,2,,,74,126
596400,note_on,,,,,13,0,0,,,4,,,54,127
596406,note_on,,,,,6,0,0,,,1,,,78,123
596416,note_on,,,,,10,0,0,,,4,,,57,127
596420,note_on,,,,,4,0,0,,,1,,,81,123
596425,note_on,,,,,5,0,0,,,1,,,86,123
596426,note_on,,,,,1,0,0,,,4,,,62,127
601630,note_off,,,,,5204,0,0,,,2,,,74,64
601693,note_off,,,,,63,0,0,,,4,,,50,64
601694,note_off,,,,,1,0,0,,,1,,,78,64
601729,note_off,,,,,35,0,0,,,4,,,54,64
601729,note_off,,,,,0,0,0,,,1,,,81,64
601745,note_off,,,,,16,0,0,,,1,,,86,64
601761,note_off,,,,,16,0,0,,,4,,,57,64
601795,note_off,,,,,34,0,0,,,4,,,62,64
601795,end_of_track,,,,,0,1,0,,,,,,,
