tick,type,time,meta,track,tempo,key,numerator,denominator,clocks_per_click,notated_32nd_notes_per_beat,port,program,channel,control,value,note,velocity
0,track_name,0,1,0,,,,,,,,,,,,,
0,note_on,0,0,10,,,,,,,,,12,,,43,92
0,control_change,0,0,5,,,,,,,,,6,10,64,,
0,control_change,0,0,5,,,,,,,,,6,7,127,,
0,program_change,0,0,5,,,,,,,,73,6,,,,
0,track_name,0,1,5,,,,,,,,,,,,,
0,midi_port,0,1,5,,,,,,,0,,,,,,
0,control_change,0,0,4,,,,,,,,,5,10,64,,
0,control_change,0,0,4,,,,,,,,,5,7,80,,
0,program_change,0,0,4,,,,,,,,60,5,,,,
0,track_name,0,1,4,,,,,,,,,,,,,
0,midi_port,0,1,4,,,,,,,0,,,,,,
0,control_change,0,0,10,,,,,,,,,12,10,64,,
0,control_change,0,0,3,,,,,,,,,5,10,64,,
0,program_change,0,0,3,,,,,,,,60,5,,,,
0,track_name,0,1,3,,,,,,,,,,,,,
0,midi_port,0,1,3,,,,,,,0,,,,,,
0,control_change,0,0,2,,,,,,,,,1,10,64,,
0,control_change,0,0,2,,,,,,,,,1,7,80,,
0,program_change,0,0,2,,,,,,,,68,1,,,,
0,track_name,0,1,2,,,,,,,,,,,,,
0,midi_port,0,1,2,,,,,,,0,,,,,,
0,control_change,0,0,1,,,,,,,,,1,10,64,,
0,control_change,0,0,1,,,,,,,,,1,7,80,,
0,program_change,0,0,1,,,,,,,,68,1,,,,
0,control_change,0,0,3,,,,,,,,,5,7,80,,
0,track_name,0,1,1,,,,,,,,,,,,,
0,control_change,0,0,10,,,,,,,,,12,7,127,,
0,track_name,0,1,10,,,,,,,,,,,,,
0,program_change,0,0,8,,,,,,,,48,10,,,,
0,control_change,0,0,8,,,,,,,,,10,7,127,,
0,control_change,0,0,8,,,,,,,,,10,10,64,,
0,note_on,0,0,8,,,,,,,,,10,,,67,92
0,note_on,0,0,7,,,,,,,,,8,,,67,92
0,control_change,0,0,7,,,,,,,,,8,10,64,,
0,control_change,0,0,7,,,,,,,,,8,7,127,,
0,program_change,0,0,7,,,,,,,,48,8,,,,
0,track_name,0,1,7,,,,,,,,,,,,,
0,midi_port,0,1,7,,,,,,,0,,,,,,
0,midi_port,0,1,9,,,,,,,0,,,,,,
0,program_change,0,0,10,,,,,,,,43,12,,,,
0,track_name,0,1,9,,,,,,,,,,,,,
0,control_change,0,0,9,,,,,,,,,11,7,127,,
0,control_change,0,0,9,,,,,,,,,11,10,64,,
0,note_on,0,0,9,,,,,,,,,11,,,55,92
0,track_name,0,1,8,,,,,,,,,,,,,
0,note_on,0,0,6,,,,,,,,,7,,,67,92
0,control_change,0,0,6,,,,,,,,,7,10,64,,
0,control_change,0,0,6,,,,,,,,,7,7,127,,
0,program_change,0,0,6,,,,,,,,48,7,,,,
0,track_name,0,1,6,,,,,,,,,,,,,
0,midi_port,0,1,6,,,,,,,0,,,,,,
0,midi_port,0,1,10,,,,,,,0,,,,,,
0,program_change,0,0,9,,,,,,,,48,11,,,,
0,midi_port,0,1,1,,,,,,,0,,,,,,
0,midi_port,0,1,8,,,,,,,0,,,,,,
0,text,0,1,0,,,,,,,,,,,,,
0,text,0,1,0,,,,,,,,,,,,,
0,copyright,0,1,0,,,,,,,,,,,,,
0,set_tempo,0,1,0,1500000,,,,,,,,,,,,
0,time_signature,0,1,0,,,3,4,24,8,,,,,,,
0,key_signature,0,1,0,,G,,,,,,,,,,,
94,note_on,94,0,9,,,,,,,,,11,,,55,0
94,note_on,94,0,10,,,,,,,,,12,,,43,0
96,note_on,2,0,9,,,,,,,,,11,,,55,92
96,note_on,2,0,10,,,,,,,,,12,,,43,92
160,note_on,160,0,8,,,,,,,,,10,,,67,0
160,note_on,160,0,7,,,,,,,,,8,,,67,0
160,note_on,160,0,6,,,,,,,,,7,,,67,0
190,note_on,94,0,9,,,,,,,,,11,,,55,0
190,note_on,94,0,10,,,,,,,,,12,,,43,0
192,note_on,2,0,10,,,,,,,,,12,,,38,92
192,note_on,32,0,6,,,,,,,,,7,,,62,92
192,note_on,32,0,7,,,,,,,,,8,,,62,92
192,note_on,32,0,8,,,,,,,,,10,,,62,92
192,note_on,2,0,9,,,,,,,,,11,,,50,92
286,note_on,94,0,10,,,,,,,,,12,,,38,0
286,note_on,94,0,9,,,,,,,,,11,,,50,0
288,note_on,2,0,10,,,,,,,,,12,,,38,92
288,note_on,2,0,9,,,,,,,,,11,,,50,92
352,note_on,160,0,6,,,,,,,,,7,,,62,0
352,note_on,160,0,7,,,,,,,,,8,,,62,0
352,note_on,160,0,8,,,,,,,,,10,,,62,0
382,note_on,94,0,10,,,,,,,,,12,,,38,0
382,note_on,94,0,9,,,,,,,,,11,,,50,0
384,note_on,2,0,9,,,,,,,,,11,,,47,92
384,note_on,2,0,10,,,,,,,,,12,,,35,92
384,note_on,32,0,7,,,,,,,,,8,,,59,92
384,note_on,32,0,8,,,,,,,,,10,,,59,92
384,note_on,32,0,6,,,,,,,,,7,,,59,92
478,note_on,94,0,9,,,,,,,,,11,,,47,0
478,note_on,94,0,10,,,,,,,,,12,,,35,0
480,note_on,2,0,9,,,,,,,,,11,,,47,92
480,note_on,2,0,10,,,,,,,,,12,,,35,92
544,note_on,160,0,6,,,,,,,,,7,,,59,0
544,note_on,160,0,8,,,,,,,,,10,,,59,0
544,note_on,160,0,7,,,,,,,,,8,,,59,0
574,note_on,94,0,10,,,,,,,,,12,,,35,0
574,note_on,94,0,9,,,,,,,,,11,,,47,0
576,note_on,2,0,10,,,,,,,,,12,,,36,92
576,note_on,32,0,8,,,,,,,,,10,,,60,92
576,note_on,576,0,2,,,,,,,,,1,,,64,92
576,note_on,576,0,3,,,,,,,,,5,,,67,92
576,note_on,576,0,4,,,,,,,,,5,,,55,92
576,note_on,2,0,9,,,,,,,,,11,,,48,92
576,note_on,576,0,1,,,,,,,,,1,,,67,92
576,note_on,32,0,6,,,,,,,,,7,,,60,92
576,note_on,32,0,7,,,,,,,,,8,,,60,92
670,note_on,94,0,9,,,,,,,,,11,,,48,0
670,note_on,94,0,10,,,,,,,,,12,,,36,0
672,note_on,0,0,8,,,,,,,,,10,,,67,92
672,note_on,2,0,9,,,,,,,,,11,,,48,92
672,note_on,2,0,10,,,,,,,,,12,,,36,92
672,note_on,96,0,8,,,,,,,,,10,,,60,0
718,note_on,142,0,6,,,,,,,,,7,,,60,0
718,note_on,142,0,7,,,,,,,,,8,,,60,0
720,note_on,2,0,7,,,,,,,,,8,,,76,92
720,note_on,2,0,6,,,,,,,,,7,,,79,92
766,note_on,94,0,9,,,,,,,,,11,,,48,0
766,note_on,94,0,10,,,,,,,,,12,,,36,0
766,note_on,46,0,6,,,,,,,,,7,,,79,0
766,note_on,46,0,7,,,,,,,,,8,,,76,0
766,note_on,94,0,8,,,,,,,,,10,,,67,0
768,note_on,2,0,6,,,,,,,,,7,,,78,92
768,note_on,2,0,8,,,,,,,,,10,,,67,92
768,note_on,2,0,7,,,,,,,,,8,,,76,92
768,note_on,2,0,10,,,,,,,,,12,,,36,92
768,note_on,192,0,1,,,,,,,,,1,,,67,0
768,note_on,0,0,1,,,,,,,,,1,,,72,92
768,note_on,2,0,9,,,,,,,,,11,,,48,92
768,note_on,0,0,2,,,,,,,,,1,,,67,92
768,note_on,192,0,2,,,,,,,,,1,,,64,0
792,note_on,0,0,6,,,,,,,,,7,,,79,92
792,note_on,24,0,6,,,,,,,,,7,,,78,0
816,note_on,0,0,6,,,,,,,,,7,,,81,92
816,note_on,24,0,6,,,,,,,,,7,,,79,0
840,note_on,24,0,6,,,,,,,,,7,,,81,0
840,note_on,0,0,6,,,,,,,,,7,,,79,92
862,note_on,94,0,10,,,,,,,,,12,,,36,0
862,note_on,94,0,9,,,,,,,,,11,,,48,0
862,note_on,94,0,8,,,,,,,,,10,,,67,0
864,note_on,2,0,8,,,,,,,,,10,,,67,92
864,note_on,2,0,10,,,,,,,,,12,,,36,92
864,note_on,2,0,9,,,,,,,,,11,,,48,92
958,note_on,94,0,10,,,,,,,,,12,,,36,0
958,note_on,94,0,9,,,,,,,,,11,,,48,0
958,note_on,94,0,8,,,,,,,,,10,,,67,0
960,note_on,192,0,2,,,,,,,,,1,,,67,0
960,note_on,2,0,8,,,,,,,,,10,,,67,92
960,note_on,0,0,1,,,,,,,,,1,,,76,92
960,note_on,192,0,1,,,,,,,,,1,,,72,0
960,note_on,0,0,2,,,,,,,,,1,,,72,92
960,note_on,2,0,10,,,,,,,,,12,,,36,92
960,note_on,2,0,9,,,,,,,,,11,,,48,92
1024,note_on,184,0,6,,,,,,,,,7,,,79,0
1024,note_on,256,0,7,,,,,,,,,8,,,76,0
1054,note_on,94,0,9,,,,,,,,,11,,,48,0
1054,note_on,94,0,10,,,,,,,,,12,,,36,0
1054,note_on,94,0,8,,,,,,,,,10,,,67,0
1056,note_on,2,0,10,,,,,,,,,12,,,36,92
1056,note_on,2,0,8,,,,,,,,,10,,,67,92
1056,note_on,32,0,6,,,,,,,,,7,,,78,92
1056,note_on,2,0,9,,,,,,,,,11,,,48,92
1056,note_on,32,0,7,,,,,,,,,8,,,74,92
1104,note_on,48,0,7,,,,,,,,,8,,,74,0
1104,note_on,0,0,6,,,,,,,,,7,,,76,92
1104,note_on,48,0,6,,,,,,,,,7,,,78,0
1104,note_on,528,0,4,,,,,,,,,5,,,55,0
1104,note_on,528,0,3,,,,,,,,,5,,,67,0
1104,note_on,0,0,7,,,,,,,,,8,,,72,92
1120,note_on,160,0,1,,,,,,,,,1,,,76,0
1120,note_on,160,0,2,,,,,,,,,1,,,72,0
1150,note_on,94,0,8,,,,,,,,,10,,,67,0
1150,note_on,94,0,9,,,,,,,,,11,,,48,0
1150,note_on,46,0,7,,,,,,,,,8,,,72,0
1150,note_on,46,0,6,,,,,,,,,7,,,76,0
1150,note_on,94,0,10,,,,,,,,,12,,,36,0
1152,note_on,2,0,8,,,,,,,,,10,,,67,92
1152,note_on,2,0,6,,,,,,,,,7,,,76,92
1152,note_on,2,0,7,,,,,,,,,8,,,72,92
1152,note_on,48,0,3,,,,,,,,,5,,,62,92
1152,note_on,2,0,10,,,,,,,,,12,,,38,92
1152,note_on,2,0,9,,,,,,,,,11,,,50,92
1152,note_on,32,0,2,,,,,,,,,1,,,72,92
1152,note_on,32,0,1,,,,,,,,,1,,,76,92
1152,note_on,48,0,4,,,,,,,,,5,,,50,92
1200,note_on,48,0,2,,,,,,,,,1,,,72,0
1200,note_on,0,0,2,,,,,,,,,1,,,71,92
1200,note_on,48,0,6,,,,,,,,,7,,,76,0
1200,note_on,48,0,1,,,,,,,,,1,,,76,0
1200,note_on,48,0,7,,,,,,,,,8,,,72,0
1200,note_on,0,0,1,,,,,,,,,1,,,74,92
1200,note_on,0,0,7,,,,,,,,,8,,,71,92
1200,note_on,0,0,6,,,,,,,,,7,,,74,92
1246,note_on,46,0,1,,,,,,,,,1,,,74,0
1246,note_on,94,0,8,,,,,,,,,10,,,67,0
1246,note_on,46,0,2,,,,,,,,,1,,,71,0
1246,note_on,94,0,10,,,,,,,,,12,,,38,0
1246,note_on,46,0,7,,,,,,,,,8,,,71,0
1246,note_on,46,0,6,,,,,,,,,7,,,74,0
1246,note_on,94,0,9,,,,,,,,,11,,,50,0
1248,note_on,2,0,1,,,,,,,,,1,,,74,92
1248,note_on,2,0,8,,,,,,,,,10,,,67,92
1248,note_on,2,0,6,,,,,,,,,7,,,74,92
1248,note_on,2,0,7,,,,,,,,,8,,,71,92
1248,note_on,2,0,9,,,,,,,,,11,,,50,92
1248,note_on,2,0,10,,,,,,,,,12,,,38,92
1248,note_on,2,0,2,,,,,,,,,1,,,71,92
1342,note_on,94,0,10,,,,,,,,,12,,,38,0
1342,note_on,94,0,8,,,,,,,,,10,,,67,0
1342,note_on,94,0,9,,,,,,,,,11,,,50,0
1344,note_on,2,0,10,,,,,,,,,12,,,38,92
1344,note_on,2,0,8,,,,,,,,,10,,,67,92
1344,note_on,2,0,9,,,,,,,,,11,,,50,92
1408,note_on,160,0,2,,,,,,,,,1,,,71,0
1408,note_on,160,0,6,,,,,,,,,7,,,74,0
1408,note_on,160,0,1,,,,,,,,,1,,,74,0
1408,note_on,160,0,7,,,,,,,,,8,,,71,0
1438,note_on,94,0,10,,,,,,,,,12,,,38,0
1438,note_on,94,0,8,,,,,,,,,10,,,67,0
1438,note_on,94,0,9,,,,,,,,,11,,,50,0
1440,note_on,2,0,9,,,,,,,,,11,,,50,92
1440,note_on,32,0,7,,,,,,,,,8,,,72,92
1440,note_on,32,0,2,,,,,,,,,1,,,72,92
1440,note_on,2,0,10,,,,,,,,,12,,,38,92
1440,note_on,32,0,6,,,,,,,,,7,,,76,92
1440,note_on,2,0,8,,,,,,,,,10,,,67,92
1440,note_on,32,0,1,,,,,,,,,1,,,76,92
1488,note_on,48,0,1,,,,,,,,,1,,,76,0
1488,note_on,0,0,6,,,,,,,,,7,,,74,92
1488,note_on,0,0,1,,,,,,,,,1,,,74,92
1488,note_on,0,0,7,,,,,,,,,8,,,71,92
1488,note_on,48,0,7,,,,,,,,,8,,,72,0
1488,note_on,48,0,6,,,,,,,,,7,,,76,0
1488,note_on,48,0,2,,,,,,,,,1,,,72,0
1488,note_on,0,0,2,,,,,,,,,1,,,71,92
1534,note_on,94,0,10,,,,,,,,,12,,,38,0
1534,note_on,46,0,7,,,,,,,,,8,,,71,0
1534,note_on,94,0,9,,,,,,,,,11,,,50,0
1534,note_on,46,0,2,,,,,,,,,1,,,71,0
1534,note_on,94,0,8,,,,,,,,,10,,,67,0
1534,note_on,46,0,1,,,,,,,,,1,,,74,0
1534,note_on,46,0,6,,,,,,,,,7,,,74,0
1536,note_on,2,0,7,,,,,,,,,8,,,71,92
1536,note_on,2,0,2,,,,,,,,,1,,,71,92
1536,note_on,2,0,8,,,,,,,,,10,,,62,92
1536,note_on,2,0,9,,,,,,,,,11,,,50,92
1536,note_on,2,0,10,,,,,,,,,12,,,38,92
1536,note_on,2,0,1,,,,,,,,,1,,,74,92
1536,note_on,2,0,6,,,,,,,,,7,,,74,92
1584,note_on,0,0,7,,,,,,,,,8,,,69,92
1584,note_on,48,0,7,,,,,,,,,8,,,71,0
1584,note_on,0,0,2,,,,,,,,,1,,,69,92
1584,note_on,48,0,2,,,,,,,,,1,,,71,0
1584,note_on,0,0,6,,,,,,,,,7,,,72,92
1584,note_on,48,0,1,,,,,,,,,1,,,74,0
1584,note_on,0,0,1,,,,,,,,,1,,,72,92
1584,note_on,48,0,6,,,,,,,,,7,,,74,0
1630,note_on,94,0,10,,,,,,,,,12,,,38,0
1630,note_on,94,0,8,,,,,,,,,10,,,62,0
1630,note_on,94,0,9,,,,,,,,,11,,,50,0
1632,note_on,0,0,2,,,,,,,,,1,,,67,92
1632,note_on,48,0,2,,,,,,,,,1,,,69,0
1632,note_on,48,0,6,,,,,,,,,7,,,72,0
1632,note_on,0,0,7,,,,,,,,,8,,,67,92
1632,note_on,2,0,9,,,,,,,,,11,,,50,92
1632,note_on,2,0,10,,,,,,,,,12,,,38,92
1632,note_on,0,0,1,,,,,,,,,1,,,71,92
1632,note_on,48,0,1,,,,,,,,,1,,,72,0
1632,note_on,2,0,8,,,,,,,,,10,,,62,92
1632,note_on,48,0,7,,,,,,,,,8,,,69,0
1632,note_on,0,0,6,,,,,,,,,7,,,71,92
1680,note_on,48,0,7,,,,,,,,,8,,,67,0
1680,note_on,0,0,6,,,,,,,,,7,,,72,92
1680,note_on,0,0,1,,,,,,,,,1,,,72,92
1680,note_on,48,0,1,,,,,,,,,1,,,71,0
1680,note_on,0,0,7,,,,,,,,,8,,,69,92
1680,note_on,528,0,4,,,,,,,,,5,,,50,0
1680,note_on,48,0,6,,,,,,,,,7,,,71,0
1680,note_on,0,0,2,,,,,,,,,1,,,69,92
1680,note_on,528,0,3,,,,,,,,,5,,,62,0
1680,note_on,48,0,2,,,,,,,,,1,,,67,0
1726,note_on,94,0,9,,,,,,,,,11,,,50,0
1726,note_on,46,0,7,,,,,,,,,8,,,69,0
1726,note_on,46,0,2,,,,,,,,,1,,,69,0
1726,note_on,46,0,1,,,,,,,,,1,,,72,0
1726,note_on,94,0,10,,,,,,,,,12,,,38,0
1726,note_on,94,0,8,,,,,,,,,10,,,62,0
1726,note_on,46,0,6,,,,,,,,,7,,,72,0
1728,note_on,2,0,8,,,,,,,,,10,,,60,92
1728,note_on,2,0,2,,,,,,,,,1,,,66,92
1728,note_on,2,0,6,,,,,,,,,7,,,69,92
1728,note_on,2,0,1,,,,,,,,,1,,,69,92
1728,note_on,2,0,7,,,,,,,,,8,,,66,92
1824,note_on,98,0,10,,,,,,,,,12,,,38,92
1824,note_on,98,0,9,,,,,,,,,11,,,50,92
1824,note_on,144,0,4,,,,,,,,,5,,,50,92
1824,note_on,144,0,3,,,,,,,,,5,,,62,92
1892,note_on,68,0,9,,,,,,,,,11,,,50,0
1892,note_on,68,0,10,,,,,,,,,12,,,38,0
1918,note_on,94,0,4,,,,,,,,,5,,,50,0
1918,note_on,94,0,3,,,,,,,,,5,,,62,0
1920,note_on,28,0,10,,,,,,,,,12,,,43,92
1920,note_on,0,0,1,,,,,,,,,1,,,71,92
1920,note_on,192,0,1,,,,,,,,,1,,,69,0
1920,note_on,2,0,3,,,,,,,,,5,,,67,92
1920,note_on,192,0,7,,,,,,,,,8,,,66,0
1920,note_on,0,0,6,,,,,,,,,7,,,71,92
1920,note_on,2,0,4,,,,,,,,,5,,,55,92
1920,note_on,0,0,7,,,,,,,,,8,,,67,92
1920,note_on,192,0,6,,,,,,,,,7,,,69,0
1920,note_on,0,0,2,,,,,,,,,1,,,67,92
1920,note_on,192,0,2,,,,,,,,,1,,,66,0
1920,note_on,28,0,9,,,,,,,,,11,,,55,92
1920,note_on,0,0,8,,,,,,,,,10,,,59,92
1920,note_on,192,0,8,,,,,,,,,10,,,60,0
1988,note_on,68,0,9,,,,,,,,,11,,,55,0
1988,note_on,68,0,10,,,,,,,,,12,,,43,0
2014,note_on,94,0,4,,,,,,,,,5,,,55,0
2014,note_on,94,0,3,,,,,,,,,5,,,67,0
2016,note_on,2,0,4,,,,,,,,,5,,,62,92
2016,note_on,28,0,10,,,,,,,,,12,,,38,92
2016,note_on,28,0,9,,,,,,,,,11,,,50,92
2016,note_on,2,0,3,,,,,,,,,5,,,62,92
2080,note_on,160,0,2,,,,,,,,,1,,,67,0
2080,note_on,160,0,1,,,,,,,,,1,,,71,0
2080,note_on,160,0,6,,,,,,,,,7,,,71,0
2080,note_on,160,0,7,,,,,,,,,8,,,67,0
2080,note_on,160,0,8,,,,,,,,,10,,,59,0
2084,note_on,68,0,10,,,,,,,,,12,,,38,0
2084,note_on,68,0,9,,,,,,,,,11,,,50,0
2110,note_on,94,0,4,,,,,,,,,5,,,62,0
2110,note_on,94,0,3,,,,,,,,,5,,,62,0
2112,note_on,28,0,10,,,,,,,,,12,,,35,92
2112,note_on,2,0,4,,,,,,,,,5,,,59,92
2112,note_on,2,0,3,,,,,,,,,5,,,59,92
2112,note_on,28,0,9,,,,,,,,,11,,,47,92
2180,note_on,68,0,9,,,,,,,,,11,,,47,0
2180,note_on,68,0,10,,,,,,,,,12,,,35,0
2206,note_on,94,0,3,,,,,,,,,5,,,59,0
2206,note_on,94,0,4,,,,,,,,,5,,,59,0
2208,note_on,2,0,4,,,,,,,,,5,,,55,92
2208,note_on,2,0,3,,,,,,,,,5,,,55,92
2208,note_on,28,0,10,,,,,,,,,12,,,31,92
2208,note_on,28,0,9,,,,,,,,,11,,,43,92
2276,note_on,68,0,10,,,,,,,,,12,,,31,0
2276,note_on,68,0,9,,,,,,,,,11,,,43,0
2302,note_on,94,0,4,,,,,,,,,5,,,55,0
2302,note_on,94,0,3,,,,,,,,,5,,,55,0
2304,note_on,224,0,7,,,,,,,,,8,,,72,45
2304,note_on,224,0,6,,,,,,,,,7,,,84,45
2400,note_on,124,0,10,,,,,,,,,12,,,33,45
2400,note_on,124,0,9,,,,,,,,,11,,,45,45
2496,note_on,96,0,10,,,,,,,,,12,,,33,0
2496,note_on,0,0,10,,,,,,,,,12,,,36,45
2496,note_on,96,0,9,,,,,,,,,11,,,45,0
2496,note_on,0,0,9,,,,,,,,,11,,,48,45
2592,note_on,96,0,10,,,,,,,,,12,,,36,0
2592,note_on,96,0,9,,,,,,,,,11,,,48,0
2592,note_on,0,0,9,,,,,,,,,11,,,54,45
2592,note_on,0,0,10,,,,,,,,,12,,,42,45
2640,note_on,336,0,6,,,,,,,,,7,,,84,0
2640,note_on,0,0,6,,,,,,,,,7,,,81,45
2640,note_on,336,0,7,,,,,,,,,8,,,72,0
2640,note_on,0,0,7,,,,,,,,,8,,,69,45
2686,note_on,46,0,6,,,,,,,,,7,,,81,0
2686,note_on,46,0,7,,,,,,,,,8,,,69,0
2688,note_on,2,0,7,,,,,,,,,8,,,66,45
2688,note_on,96,0,9,,,,,,,,,11,,,54,0
2688,note_on,2,0,6,,,,,,,,,7,,,78,45
2688,note_on,0,0,10,,,,,,,,,12,,,45,45
2688,note_on,96,0,10,,,,,,,,,12,,,42,0
2688,note_on,0,0,9,,,,,,,,,11,,,57,45
2782,note_on,94,0,6,,,,,,,,,7,,,78,0
2782,note_on,94,0,7,,,,,,,,,8,,,66,0
2784,note_on,96,0,9,,,,,,,,,11,,,57,0
2784,note_on,0,0,9,,,,,,,,,11,,,60,45
2784,note_on,96,0,10,,,,,,,,,12,,,45,0
2784,note_on,0,0,10,,,,,,,,,12,,,48,45
2878,note_on,94,0,10,,,,,,,,,12,,,48,0
2878,note_on,94,0,9,,,,,,,,,11,,,60,0
2880,note_on,98,0,7,,,,,,,,,8,,,74,45
2880,note_on,98,0,6,,,,,,,,,7,,,86,45
2976,note_on,98,0,10,,,,,,,,,12,,,35,45
2976,note_on,98,0,9,,,,,,,,,11,,,47,45
3072,note_on,96,0,10,,,,,,,,,12,,,35,0
3072,note_on,0,0,10,,,,,,,,,12,,,38,45
3072,note_on,0,0,9,,,,,,,,,11,,,50,45
3072,note_on,96,0,9,,,,,,,,,11,,,47,0
3168,note_on,96,0,9,,,,,,,,,11,,,50,0
3168,note_on,0,0,9,,,,,,,,,11,,,55,45
3168,note_on,0,0,10,,,,,,,,,12,,,43,45
3168,note_on,96,0,10,,,,,,,,,12,,,38,0
3216,note_on,0,0,7,,,,,,,,,8,,,71,45
3216,note_on,336,0,7,,,,,,,,,8,,,74,0
3216,note_on,0,0,6,,,,,,,,,7,,,83,45
3216,note_on,336,0,6,,,,,,,,,7,,,86,0
3262,note_on,46,0,6,,,,,,,,,7,,,83,0
3262,note_on,46,0,7,,,,,,,,,8,,,71,0
3264,note_on,96,0,10,,,,,,,,,12,,,43,0
3264,note_on,0,0,10,,,,,,,,,12,,,47,45
3264,note_on,2,0,6,,,,,,,,,7,,,79,45
3264,note_on,2,0,7,,,,,,,,,8,,,67,45
3264,note_on,96,0,9,,,,,,,,,11,,,55,0
3264,note_on,0,0,9,,,,,,,,,11,,,59,45
3358,note_on,94,0,7,,,,,,,,,8,,,67,0
3358,note_on,94,0,6,,,,,,,,,7,,,79,0
3360,note_on,0,0,10,,,,,,,,,12,,,50,45
3360,note_on,96,0,10,,,,,,,,,12,,,47,0
3360,note_on,0,0,9,,,,,,,,,11,,,62,45
3360,note_on,96,0,9,,,,,,,,,11,,,59,0
3454,note_on,94,0,10,,,,,,,,,12,,,50,0
3454,note_on,94,0,9,,,,,,,,,11,,,62,0
3456,note_on,98,0,7,,,,,,,,,8,,,76,92
3456,note_on,98,0,6,,,,,,,,,7,,,88,92
3456,note_on,1376,0,1,,,,,,,,,1,,,76,92
3456,note_on,1376,0,2,,,,,,,,,1,,,64,92
3552,note_on,98,0,10,,,,,,,,,12,,,36,92
3552,note_on,98,0,9,,,,,,,,,11,,,48,92
3552,note_on,1472,0,8,,,,,,,,,10,,,57,92
3616,note_on,160,0,7,,,,,,,,,8,,,76,0
3648,note_on,96,0,10,,,,,,,,,12,,,36,0
3648,note_on,96,0,9,,,,,,,,,11,,,48,0
3648,note_on,0,0,9,,,,,,,,,11,,,52,92
3648,note_on,0,0,10,,,,,,,,,12,,,40,92
3648,note_on,32,0,7,,,,,,,,,8,,,60,92
3712,note_on,160,0,8,,,,,,,,,10,,,57,0
3712,note_on,256,0,6,,,,,,,,,7,,,88,0
3742,note_on,94,0,7,,,,,,,,,8,,,60,0
3744,note_on,96,0,9,,,,,,,,,11,,,52,0
3744,note_on,32,0,6,,,,,,,,,7,,,86,92
3744,note_on,96,0,10,,,,,,,,,12,,,40,0
3744,note_on,2,0,7,,,,,,,,,8,,,64,92
3744,note_on,0,0,10,,,,,,,,,12,,,45,92
3744,note_on,0,0,9,,,,,,,,,11,,,57,92
3744,note_on,32,0,8,,,,,,,,,10,,,57,92
3792,note_on,48,0,6,,,,,,,,,7,,,86,0
3792,note_on,0,0,6,,,,,,,,,7,,,84,92
3838,note_on,94,0,10,,,,,,,,,12,,,45,0
3838,note_on,94,0,9,,,,,,,,,11,,,57,0
3838,note_on,46,0,6,,,,,,,,,7,,,84,0
3840,note_on,2,0,9,,,,,,,,,11,,,60,92
3840,note_on,2,0,6,,,,,,,,,7,,,83,92
3840,note_on,2,0,10,,,,,,,,,12,,,48,92
3888,note_on,0,0,6,,,,,,,,,7,,,81,92
3888,note_on,48,0,6,,,,,,,,,7,,,83,0
3904,note_on,160,0,8,,,,,,,,,10,,,57,0
3904,note_on,160,0,7,,,,,,,,,8,,,64,0
3934,note_on,46,0,6,,,,,,,,,7,,,81,0
3936,note_on,0,0,10,,,,,,,,,12,,,49,92
3936,note_on,96,0,10,,,,,,,,,12,,,48,0
3936,note_on,96,0,9,,,,,,,,,11,,,60,0
3936,note_on,32,0,8,,,,,,,,,10,,,61,92
3936,note_on,0,0,9,,,,,,,,,11,,,61,92
3936,note_on,32,0,7,,,,,,,,,8,,,69,92
3936,note_on,2,0,6,,,,,,,,,7,,,76,92
3984,note_on,0,0,6,,,,,,,,,7,,,81,92
3984,note_on,528,0,1,,,,,,,,,1,,,76,0
3984,note_on,48,0,6,,,,,,,,,7,,,76,0
3984,note_on,528,0,2,,,,,,,,,1,,,64,0
4030,note_on,94,0,7,,,,,,,,,8,,,69,0
4030,note_on,46,0,6,,,,,,,,,7,,,81,0
4030,note_on,94,0,8,,,,,,,,,10,,,61,0
4030,note_on,94,0,10,,,,,,,,,12,,,49,0
4030,note_on,94,0,9,,,,,,,,,11,,,61,0
4032,note_on,2,0,8,,,,,,,,,10,,,62,45
4032,note_on,2,0,9,,,,,,,,,11,,,62,45
4032,note_on,48,0,2,,,,,,,,,1,,,71,45
4032,note_on,2,0,10,,,,,,,,,12,,,50,45
4032,note_on,2,0,7,,,,,,,,,8,,,71,45
4032,note_on,2,0,6,,,,,,,,,7,,,79,45
4032,note_on,48,0,1,,,,,,,,,1,,,79,45
4128,note_on,96,0,1,,,,,,,,,1,,,79,0
4128,note_on,96,0,9,,,,,,,,,11,,,62,0
4128,note_on,0,0,9,,,,,,,,,11,,,63,45
4128,note_on,0,0,10,,,,,,,,,12,,,51,45
4128,note_on,0,0,2,,,,,,,,,1,,,72,45
4128,note_on,96,0,10,,,,,,,,,12,,,50,0
4128,note_on,96,0,2,,,,,,,,,1,,,71,0
4128,note_on,0,0,8,,,,,,,,,10,,,69,45
4128,note_on,96,0,7,,,,,,,,,8,,,71,0
4128,note_on,0,0,7,,,,,,,,,8,,,72,45
4128,note_on,0,0,6,,,,,,,,,7,,,78,45
4128,note_on,96,0,6,,,,,,,,,7,,,79,0
4128,note_on,0,0,1,,,,,,,,,1,,,78,45
4128,note_on,96,0,8,,,,,,,,,10,,,62,0
4222,note_on,94,0,10,,,,,,,,,12,,,51,0
4222,note_on,94,0,6,,,,,,,,,7,,,78,0
4222,note_on,94,0,1,,,,,,,,,1,,,78,0
4222,note_on,94,0,8,,,,,,,,,10,,,69,0
4222,note_on,94,0,2,,,,,,,,,1,,,72,0
4222,note_on,94,0,9,,,,,,,,,11,,,63,0
4222,note_on,94,0,7,,,,,,,,,8,,,72,0
4224,note_on,2,0,6,,,,,,,,,7,,,79,45
4224,note_on,2,0,7,,,,,,,,,8,,,71,45
4224,note_on,2,0,1,,,,,,,,,1,,,79,45
4224,note_on,2,0,9,,,,,,,,,11,,,64,45
4224,note_on,1922,0,4,,,,,,,,,5,,,55,45
4224,note_on,2,0,8,,,,,,,,,10,,,67,45
4224,note_on,2,0,10,,,,,,,,,12,,,52,45
4224,note_on,2,0,2,,,,,,,,,1,,,71,45
4224,note_on,1922,0,3,,,,,,,,,5,,,55,45
4318,note_on,94,0,8,,,,,,,,,10,,,67,0
4318,note_on,94,0,7,,,,,,,,,8,,,71,0
4320,note_on,0,0,6,,,,,,,,,7,,,77,45
4320,note_on,2,0,7,,,,,,,,,8,,,59,45
4320,note_on,0,0,1,,,,,,,,,1,,,77,45
4320,note_on,96,0,6,,,,,,,,,7,,,79,0
4320,note_on,2,0,8,,,,,,,,,10,,,67,45
4320,note_on,0,0,9,,,,,,,,,11,,,62,45
4320,note_on,96,0,9,,,,,,,,,11,,,64,0
4320,note_on,96,0,1,,,,,,,,,1,,,79,0
4320,note_on,0,0,10,,,,,,,,,12,,,50,45
4320,note_on,96,0,10,,,,,,,,,12,,,52,0
4414,note_on,94,0,1,,,,,,,,,1,,,77,0
4414,note_on,94,0,7,,,,,,,,,8,,,59,0
4414,note_on,94,0,6,,,,,,,,,7,,,77,0
4416,note_on,96,0,10,,,,,,,,,12,,,50,0
4416,note_on,0,0,10,,,,,,,,,12,,,48,45
4416,note_on,2,0,7,,,,,,,,,8,,,60,45
4416,note_on,2,0,6,,,,,,,,,7,,,76,45
4416,note_on,2,0,1,,,,,,,,,1,,,76,45
4416,note_on,0,0,2,,,,,,,,,1,,,72,45
4416,note_on,0,0,9,,,,,,,,,11,,,60,45
4416,note_on,192,0,2,,,,,,,,,1,,,71,0
4416,note_on,96,0,9,,,,,,,,,11,,,62,0
4480,note_on,160,0,8,,,,,,,,,10,,,67,0
4510,note_on,94,0,7,,,,,,,,,8,,,60,0
4510,note_on,94,0,1,,,,,,,,,1,,,76,0
4510,note_on,94,0,2,,,,,,,,,1,,,72,0
4510,note_on,286,0,3,,,,,,,,,5,,,55,0
4510,note_on,286,0,4,,,,,,,,,5,,,55,0
4512,note_on,0,0,6,,,,,,,,,7,,,74,45
4512,note_on,0,0,9,,,,,,,,,11,,,59,45
4512,note_on,96,0,9,,,,,,,,,11,,,60,0
4512,note_on,32,0,8,,,,,,,,,10,,,64,45
4512,note_on,0,0,10,,,,,,,,,12,,,47,45
4512,note_on,2,0,7,,,,,,,,,8,,,68,45
4512,note_on,96,0,6,,,,,,,,,7,,,76,0
4512,note_on,96,0,10,,,,,,,,,12,,,48,0
4606,note_on,94,0,7,,,,,,,,,8,,,68,0
4606,note_on,94,0,10,,,,,,,,,12,,,47,0
4606,note_on,94,0,6,,,,,,,,,7,,,74,0
4606,note_on,94,0,9,,,,,,,,,11,,,59,0
4608,note_on,2,0,9,,,,,,,,,11,,,57,45
4608,note_on,2,0,7,,,,,,,,,8,,,69,45
4608,note_on,2,0,10,,,,,,,,,12,,,45,45
4608,note_on,2,0,6,,,,,,,,,7,,,73,45
4702,note_on,94,0,7,,,,,,,,,8,,,69,0
4702,note_on,190,0,8,,,,,,,,,10,,,64,0
4704,note_on,0,0,6,,,,,,,,,7,,,72,45
4704,note_on,2,0,7,,,,,,,,,8,,,63,45
4704,note_on,96,0,10,,,,,,,,,12,,,45,0
4704,note_on,96,0,6,,,,,,,,,7,,,73,0
4704,note_on,0,0,10,,,,,,,,,12,,,42,45
4704,note_on,96,0,9,,,,,,,,,11,,,57,0
4704,note_on,2,0,8,,,,,,,,,10,,,69,45
4704,note_on,0,0,9,,,,,,,,,11,,,54,45
4798,note_on,94,0,6,,,,,,,,,7,,,72,0
4798,note_on,94,0,9,,,,,,,,,11,,,54,0
4798,note_on,94,0,10,,,,,,,,,12,,,42,0
4800,note_on,2,0,6,,,,,,,,,7,,,70,45
4800,note_on,2,0,9,,,,,,,,,11,,,55,45
4800,note_on,0,0,8,,,,,,,,,10,,,67,45
4800,note_on,96,0,8,,,,,,,,,10,,,69,0
4800,note_on,2,0,10,,,,,,,,,12,,,43,45
4800,note_on,96,0,7,,,,,,,,,8,,,63,0
4800,note_on,0,0,7,,,,,,,,,8,,,62,45
4848,note_on,48,0,6,,,,,,,,,7,,,70,0
4848,note_on,0,0,6,,,,,,,,,7,,,71,56
4894,note_on,94,0,7,,,,,,,,,8,,,62,0
4894,note_on,94,0,9,,,,,,,,,11,,,55,0
4894,note_on,94,0,10,,,,,,,,,12,,,43,0
4894,note_on,94,0,8,,,,,,,,,10,,,67,0
4896,note_on,0,0,6,,,,,,,,,7,,,72,68
4896,note_on,48,0,6,,,,,,,,,7,,,71,0
4944,note_on,0,0,6,,,,,,,,,7,,,73,80
4944,note_on,48,0,6,,,,,,,,,7,,,72,0
4992,note_on,0,0,6,,,,,,,,,7,,,74,92
4992,note_on,48,0,6,,,,,,,,,7,,,73,0
4992,note_on,98,0,10,,,,,,,,,12,,,35,45
4992,note_on,98,0,9,,,,,,,,,11,,,47,45
5040,note_on,0,0,6,,,,,,,,,7,,,75,92
5040,note_on,48,0,6,,,,,,,,,7,,,74,0
5086,note_on,94,0,9,,,,,,,,,11,,,47,0
5086,note_on,94,0,10,,,,,,,,,12,,,35,0
5088,note_on,48,0,6,,,,,,,,,7,,,75,0
5088,note_on,2,0,9,,,,,,,,,11,,,48,45
5088,note_on,2,0,10,,,,,,,,,12,,,36,45
5088,note_on,0,0,6,,,,,,,,,7,,,76,92
5088,note_on,194,0,7,,,,,,,,,8,,,60,45
5088,note_on,194,0,8,,,,,,,,,10,,,64,45
5136,note_on,0,0,7,,,,,,,,,8,,,69,45
5136,note_on,48,0,6,,,,,,,,,7,,,76,0
5136,note_on,48,0,7,,,,,,,,,8,,,60,0
5136,note_on,0,0,6,,,,,,,,,7,,,72,92
5182,note_on,46,0,6,,,,,,,,,7,,,72,0
5182,note_on,94,0,9,,,,,,,,,11,,,48,0
5182,note_on,46,0,7,,,,,,,,,8,,,69,0
5182,note_on,94,0,8,,,,,,,,,10,,,64,0
5182,note_on,94,0,10,,,,,,,,,12,,,36,0
5184,note_on,2,0,8,,,,,,,,,10,,,62,45
5184,note_on,2,0,9,,,,,,,,,11,,,50,45
5184,note_on,2,0,10,,,,,,,,,12,,,38,45
5184,note_on,2,0,6,,,,,,,,,7,,,71,92
5184,note_on,2,0,7,,,,,,,,,8,,,67,45
5232,note_on,48,0,8,,,,,,,,,10,,,62,0
5232,note_on,0,0,8,,,,,,,,,10,,,61,45
5232,note_on,0,0,10,,,,,,,,,12,,,37,45
5232,note_on,48,0,9,,,,,,,,,11,,,50,0
5232,note_on,0,0,9,,,,,,,,,11,,,49,45
5232,note_on,48,0,10,,,,,,,,,12,,,38,0
5280,note_on,48,0,9,,,,,,,,,11,,,49,0
5280,note_on,0,0,9,,,,,,,,,11,,,50,45
5280,note_on,48,0,10,,,,,,,,,12,,,37,0
5280,note_on,48,0,8,,,,,,,,,10,,,61,0
5280,note_on,0,0,8,,,,,,,,,10,,,62,45
5280,note_on,0,0,10,,,,,,,,,12,,,38,45
5328,note_on,0,0,9,,,,,,,,,11,,,49,45
5328,note_on,0,0,8,,,,,,,,,10,,,61,45
5328,note_on,48,0,8,,,,,,,,,10,,,62,0
5328,note_on,0,0,10,,,,,,,,,12,,,37,45
5328,note_on,48,0,10,,,,,,,,,12,,,38,0
5328,note_on,48,0,9,,,,,,,,,11,,,50,0
5374,note_on,46,0,9,,,,,,,,,11,,,49,0
5374,note_on,46,0,8,,,,,,,,,10,,,61,0
5374,note_on,46,0,10,,,,,,,,,12,,,37,0
5376,note_on,0,0,7,,,,,,,,,8,,,66,45
5376,note_on,2,0,8,,,,,,,,,10,,,62,92
5376,note_on,192,0,6,,,,,,,,,7,,,71,0
5376,note_on,0,0,6,,,,,,,,,7,,,69,92
5376,note_on,2,0,10,,,,,,,,,12,,,38,92
5376,note_on,2,0,9,,,,,,,,,11,,,50,92
5376,note_on,192,0,7,,,,,,,,,8,,,67,0
5470,note_on,94,0,10,,,,,,,,,12,,,38,0
5470,note_on,94,0,9,,,,,,,,,11,,,50,0
5472,note_on,96,0,8,,,,,,,,,10,,,62,0
5472,note_on,0,0,8,,,,,,,,,10,,,60,92
5472,note_on,2,0,10,,,,,,,,,12,,,36,92
5472,note_on,2,0,9,,,,,,,,,11,,,48,92
5536,note_on,160,0,7,,,,,,,,,8,,,66,0
5536,note_on,160,0,6,,,,,,,,,7,,,69,0
5566,note_on,94,0,9,,,,,,,,,11,,,48,0
5566,note_on,94,0,10,,,,,,,,,12,,,36,0
5568,note_on,2,0,9,,,,,,,,,11,,,47,92
5568,note_on,96,0,8,,,,,,,,,10,,,60,0
5568,note_on,0,0,8,,,,,,,,,10,,,59,92
5568,note_on,2,0,10,,,,,,,,,12,,,35,92
5662,note_on,94,0,9,,,,,,,,,11,,,47,0
5662,note_on,94,0,10,,,,,,,,,12,,,35,0
5664,note_on,96,0,8,,,,,,,,,10,,,59,0
5664,note_on,2,0,10,,,,,,,,,12,,,33,92
5664,note_on,0,0,8,,,,,,,,,10,,,57,92
5664,note_on,2,0,9,,,,,,,,,11,,,45,92
5758,note_on,94,0,10,,,,,,,,,12,,,33,0
5758,note_on,94,0,8,,,,,,,,,10,,,57,0
5758,note_on,94,0,9,,,,,,,,,11,,,45,0
5760,note_on,2,0,8,,,,,,,,,10,,,55,92
5760,note_on,2,0,9,,,,,,,,,11,,,43,92
5760,note_on,224,0,6,,,,,,,,,7,,,71,45
5760,note_on,224,0,7,,,,,,,,,8,,,67,45
5760,note_on,5760,0,5,,,,,,,,,6,,,79,110
5760,note_on,2,0,10,,,,,,,,,12,,,31,92
5854,note_on,94,0,6,,,,,,,,,7,,,71,0
5854,note_on,94,0,7,,,,,,,,,8,,,67,0
5856,note_on,2,0,7,,,,,,,,,8,,,67,45
5856,note_on,2,0,6,,,,,,,,,7,,,71,45
5920,note_on,160,0,9,,,,,,,,,11,,,43,0
5920,note_on,160,0,10,,,,,,,,,12,,,31,0
5920,note_on,160,0,8,,,,,,,,,10,,,55,0
5920,note_on,160,0,5,,,,,,,,,6,,,79,0
5950,note_on,94,0,7,,,,,,,,,8,,,67,0
5950,note_on,94,0,6,,,,,,,,,7,,,71,0
5952,note_on,2,0,6,,,,,,,,,7,,,71,45
5952,note_on,2,0,7,,,,,,,,,8,,,67,45
5952,note_on,32,0,5,,,,,,,,,6,,,74,110
6046,note_on,94,0,6,,,,,,,,,7,,,71,0
6046,note_on,94,0,7,,,,,,,,,8,,,67,0
6048,note_on,2,0,7,,,,,,,,,8,,,67,45
6048,note_on,2,0,6,,,,,,,,,7,,,71,45
6112,note_on,160,0,5,,,,,,,,,6,,,74,0
6142,note_on,94,0,7,,,,,,,,,8,,,67,0
6142,note_on,94,0,6,,,,,,,,,7,,,71,0
6144,note_on,2,0,7,,,,,,,,,8,,,67,45
6144,note_on,2,0,6,,,,,,,,,7,,,74,45
6144,note_on,32,0,5,,,,,,,,,6,,,83,110
6238,note_on,94,0,7,,,,,,,,,8,,,67,0
6238,note_on,94,0,6,,,,,,,,,7,,,74,0
6240,note_on,2,0,7,,,,,,,,,8,,,67,45
6240,note_on,2,0,6,,,,,,,,,7,,,74,45
6304,note_on,160,0,5,,,,,,,,,6,,,83,0
6334,note_on,94,0,7,,,,,,,,,8,,,67,0
6334,note_on,94,0,6,,,,,,,,,7,,,74,0
6336,note_on,32,0,5,,,,,,,,,6,,,80,110
6384,note_on,0,0,5,,,,,,,,,6,,,81,110
6384,note_on,48,0,5,,,,,,,,,6,,,80,0
6432,note_on,98,0,7,,,,,,,,,8,,,66,45
6432,note_on,48,0,5,,,,,,,,,6,,,81,0
6432,note_on,0,0,5,,,,,,,,,6,,,83,110
6432,note_on,98,0,6,,,,,,,,,7,,,74,45
6480,note_on,48,0,5,,,,,,,,,6,,,83,0
6480,note_on,0,0,5,,,,,,,,,6,,,81,110
6526,note_on,94,0,6,,,,,,,,,7,,,74,0
6526,note_on,46,0,5,,,,,,,,,6,,,81,0
6526,note_on,94,0,7,,,,,,,,,8,,,66,0
6528,note_on,2,0,7,,,,,,,,,8,,,66,45
6528,note_on,2,0,5,,,,,,,,,6,,,81,110
6528,note_on,2,0,6,,,,,,,,,7,,,74,45
6622,note_on,94,0,7,,,,,,,,,8,,,66,0
6622,note_on,94,0,6,,,,,,,,,7,,,74,0
6624,note_on,2,0,7,,,,,,,,,8,,,66,45
6624,note_on,2,0,6,,,,,,,,,7,,,74,45
6688,note_on,160,0,5,,,,,,,,,6,,,81,0
6718,note_on,94,0,7,,,,,,,,,8,,,66,0
6718,note_on,94,0,6,,,,,,,,,7,,,74,0
6720,note_on,2,0,6,,,,,,,,,7,,,74,45
6720,note_on,2,0,7,,,,,,,,,8,,,66,45
6814,note_on,94,0,7,,,,,,,,,8,,,66,0
6814,note_on,94,0,6,,,,,,,,,7,,,74,0
6816,note_on,2,0,7,,,,,,,,,8,,,66,45
6816,note_on,2,0,6,,,,,,,,,7,,,74,45
6910,note_on,94,0,6,,,,,,,,,7,,,74,0
6910,note_on,94,0,7,,,,,,,,,8,,,66,0
6912,note_on,224,0,5,,,,,,,,,6,,,80,110
6960,note_on,0,0,5,,,,,,,,,6,,,81,110
6960,note_on,48,0,5,,,,,,,,,6,,,80,0
7008,note_on,98,0,7,,,,,,,,,8,,,62,45
7008,note_on,98,0,6,,,,,,,,,7,,,66,45
7008,note_on,0,0,5,,,,,,,,,6,,,83,110
7008,note_on,48,0,5,,,,,,,,,6,,,81,0
7056,note_on,0,0,5,,,,,,,,,6,,,81,110
7056,note_on,48,0,5,,,,,,,,,6,,,83,0
7102,note_on,94,0,7,,,,,,,,,8,,,62,0
7102,note_on,94,0,6,,,,,,,,,7,,,66,0
7102,note_on,46,0,5,,,,,,,,,6,,,81,0
7104,note_on,2,0,5,,,,,,,,,6,,,81,110
7104,note_on,2,0,6,,,,,,,,,7,,,66,45
7104,note_on,2,0,7,,,,,,,,,8,,,62,45
7198,note_on,94,0,7,,,,,,,,,8,,,62,0
7198,note_on,94,0,6,,,,,,,,,7,,,66,0
7200,note_on,2,0,6,,,,,,,,,7,,,66,45
7200,note_on,2,0,7,,,,,,,,,8,,,62,45
7294,note_on,94,0,6,,,,,,,,,7,,,66,0
7294,note_on,94,0,7,,,,,,,,,8,,,62,0
7296,note_on,2,0,6,,,,,,,,,7,,,66,45
7296,note_on,2,0,7,,,,,,,,,8,,,62,45
7360,note_on,256,0,5,,,,,,,,,6,,,81,0
7390,note_on,94,0,6,,,,,,,,,7,,,66,0
7390,note_on,94,0,7,,,,,,,,,8,,,62,0
7392,note_on,2,0,6,,,,,,,,,7,,,66,45
7392,note_on,32,0,5,,,,,,,,,6,,,84,110
7392,note_on,2,0,7,,,,,,,,,8,,,62,45
7486,note_on,94,0,7,,,,,,,,,8,,,62,0
7486,note_on,94,0,6,,,,,,,,,7,,,66,0
7486,note_on,94,0,5,,,,,,,,,6,,,84,0
7488,note_on,2,0,5,,,,,,,,,6,,,82,110
7584,note_on,98,0,7,,,,,,,,,8,,,74,45
7584,note_on,98,0,6,,,,,,,,,7,,,67,45
7678,note_on,94,0,7,,,,,,,,,8,,,74,0
7678,note_on,94,0,6,,,,,,,,,7,,,67,0
7680,note_on,2,0,6,,,,,,,,,7,,,67,45
7680,note_on,192,0,5,,,,,,,,,6,,,82,0
7680,note_on,0,0,5,,,,,,,,,6,,,83,110
7680,note_on,2,0,7,,,,,,,,,8,,,74,45
7774,note_on,94,0,7,,,,,,,,,8,,,74,0
7774,note_on,94,0,6,,,,,,,,,7,,,67,0
7774,note_on,94,0,5,,,,,,,,,6,,,83,0
7776,note_on,2,0,7,,,,,,,,,8,,,74,45
7776,note_on,2,0,6,,,,,,,,,7,,,67,45
7870,note_on,94,0,7,,,,,,,,,8,,,74,0
7870,note_on,94,0,6,,,,,,,,,7,,,67,0
7872,note_on,2,0,7,,,,,,,,,8,,,74,45
7872,note_on,2,0,6,,,,,,,,,7,,,67,45
7966,note_on,94,0,7,,,,,,,,,8,,,74,0
7966,note_on,94,0,6,,,,,,,,,7,,,67,0
7968,note_on,2,0,6,,,,,,,,,7,,,67,45
7968,note_on,2,0,7,,,,,,,,,8,,,74,45
8062,note_on,94,0,6,,,,,,,,,7,,,67,0
8062,note_on,94,0,7,,,,,,,,,8,,,74,0
8064,note_on,290,0,5,,,,,,,,,6,,,76,110
8064,note_on,2,0,7,,,,,,,,,8,,,72,45
8064,note_on,2,0,6,,,,,,,,,7,,,76,45
8158,note_on,94,0,6,,,,,,,,,7,,,76,0
8158,note_on,94,0,7,,,,,,,,,8,,,72,0
8160,note_on,2,0,6,,,,,,,,,7,,,76,45
8160,note_on,2,0,7,,,,,,,,,8,,,72,45
8254,note_on,94,0,7,,,,,,,,,8,,,72,0
8254,note_on,94,0,6,,,,,,,,,7,,,76,0
8256,note_on,2,0,7,,,,,,,,,8,,,69,45
8256,note_on,2,0,6,,,,,,,,,7,,,72,45
8350,note_on,94,0,6,,,,,,,,,7,,,72,0
8350,note_on,94,0,7,,,,,,,,,8,,,69,0
8352,note_on,2,0,6,,,,,,,,,7,,,72,45
8352,note_on,2,0,7,,,,,,,,,8,,,69,45
8446,note_on,94,0,7,,,,,,,,,8,,,69,0
8446,note_on,94,0,6,,,,,,,,,7,,,72,0
8448,note_on,2,0,6,,,,,,,,,7,,,67,45
8448,note_on,2,0,7,,,,,,,,,8,,,64,45
8494,note_on,430,0,5,,,,,,,,,6,,,76,0
8496,note_on,2,0,5,,,,,,,,,6,,,79,110
8542,note_on,94,0,6,,,,,,,,,7,,,67,0
8542,note_on,94,0,7,,,,,,,,,8,,,64,0
8544,note_on,48,0,5,,,,,,,,,6,,,79,0
8544,note_on,2,0,6,,,,,,,,,7,,,67,45
8544,note_on,2,0,7,,,,,,,,,8,,,64,45
8544,note_on,0,0,5,,,,,,,,,6,,,84,110
8592,note_on,0,0,5,,,,,,,,,6,,,88,110
8592,note_on,48,0,5,,,,,,,,,6,,,84,0
8638,note_on,46,0,5,,,,,,,,,6,,,88,0
8638,note_on,94,0,6,,,,,,,,,7,,,67,0
8638,note_on,94,0,7,,,,,,,,,8,,,64,0
8640,note_on,2,0,5,,,,,,,,,6,,,86,110
8640,note_on,2,0,7,,,,,,,,,8,,,66,45
8640,note_on,2,0,6,,,,,,,,,7,,,69,45
8734,note_on,94,0,7,,,,,,,,,8,,,66,0
8734,note_on,94,0,6,,,,,,,,,7,,,69,0
8736,note_on,2,0,7,,,,,,,,,8,,,66,45
8736,note_on,2,0,6,,,,,,,,,7,,,69,45
8830,note_on,94,0,7,,,,,,,,,8,,,66,0
8830,note_on,94,0,6,,,,,,,,,7,,,69,0
8832,note_on,192,0,5,,,,,,,,,6,,,86,0
8832,note_on,0,0,5,,,,,,,,,6,,,84,110
8832,note_on,2,0,6,,,,,,,,,7,,,69,45
8832,note_on,2,0,7,,,,,,,,,8,,,66,45
8926,note_on,94,0,6,,,,,,,,,7,,,69,0
8926,note_on,94,0,7,,,,,,,,,8,,,66,0
8928,note_on,2,0,7,,,,,,,,,8,,,66,45
8928,note_on,2,0,6,,,,,,,,,7,,,69,45
8992,note_on,160,0,5,,,,,,,,,6,,,84,0
9022,note_on,94,0,7,,,,,,,,,8,,,66,0
9022,note_on,94,0,6,,,,,,,,,7,,,69,0
9024,note_on,2,0,7,,,,,,,,,8,,,67,45
9024,note_on,2,0,6,,,,,,,,,7,,,74,45
9118,note_on,94,0,6,,,,,,,,,7,,,74,0
9118,note_on,94,0,7,,,,,,,,,8,,,67,0
9120,note_on,128,0,5,,,,,,,,,6,,,83,110
9120,note_on,2,0,7,,,,,,,,,8,,,67,45
9120,note_on,2,0,6,,,,,,,,,7,,,74,45
9214,note_on,94,0,6,,,,,,,,,7,,,74,0
9214,note_on,94,0,7,,,,,,,,,8,,,67,0
9214,note_on,94,0,5,,,,,,,,,6,,,83,0
9216,note_on,2,0,6,,,,,,,,,7,,,76,45
9216,note_on,2,0,5,,,,,,,,,6,,,83,110
9216,note_on,2,0,7,,,,,,,,,8,,,60,45
9264,note_on,48,0,5,,,,,,,,,6,,,83,0
9264,note_on,0,0,5,,,,,,,,,6,,,81,110
9310,note_on,94,0,7,,,,,,,,,8,,,60,0
9310,note_on,46,0,5,,,,,,,,,6,,,81,0
9312,note_on,2,0,5,,,,,,,,,6,,,84,110
9312,note_on,2,0,7,,,,,,,,,8,,,60,45
9360,note_on,48,0,5,,,,,,,,,6,,,84,0
9360,note_on,0,0,5,,,,,,,,,6,,,81,110
9360,note_on,0,0,6,,,,,,,,,7,,,72,45
9360,note_on,144,0,6,,,,,,,,,7,,,76,0
9406,note_on,46,0,6,,,,,,,,,7,,,72,0
9406,note_on,94,0,7,,,,,,,,,8,,,60,0
9406,note_on,46,0,5,,,,,,,,,6,,,81,0
9408,note_on,2,0,7,,,,,,,,,8,,,62,45
9408,note_on,2,0,6,,,,,,,,,7,,,71,45
9408,note_on,2,0,5,,,,,,,,,6,,,79,110
9502,note_on,94,0,6,,,,,,,,,7,,,71,0
9502,note_on,94,0,7,,,,,,,,,8,,,62,0
9504,note_on,2,0,6,,,,,,,,,7,,,71,45
9504,note_on,2,0,7,,,,,,,,,8,,,62,45
9568,note_on,160,0,5,,,,,,,,,6,,,79,0
9598,note_on,94,0,6,,,,,,,,,7,,,71,0
9598,note_on,94,0,7,,,,,,,,,8,,,62,0
9600,note_on,2,0,7,,,,,,,,,8,,,62,45
9600,note_on,2,0,6,,,,,,,,,7,,,69,45
9600,note_on,32,0,5,,,,,,,,,6,,,79,110
9608,note_on,8,0,5,,,,,,,,,6,,,79,0
9608,note_on,0,0,5,,,,,,,,,6,,,78,110
9616,note_on,0,0,5,,,,,,,,,6,,,79,110
9616,note_on,8,0,5,,,,,,,,,6,,,78,0
9624,note_on,0,0,5,,,,,,,,,6,,,78,110
9624,note_on,8,0,5,,,,,,,,,6,,,79,0
9632,note_on,8,0,5,,,,,,,,,6,,,78,0
9632,note_on,0,0,5,,,,,,,,,6,,,79,110
9640,note_on,8,0,5,,,,,,,,,6,,,79,0
9640,note_on,0,0,5,,,,,,,,,6,,,78,110
9648,note_on,8,0,5,,,,,,,,,6,,,78,0
9648,note_on,0,0,5,,,,,,,,,6,,,79,110
9656,note_on,8,0,5,,,,,,,,,6,,,79,0
9656,note_on,0,0,5,,,,,,,,,6,,,78,110
9664,note_on,8,0,5,,,,,,,,,6,,,78,0
9664,note_on,0,0,5,,,,,,,,,6,,,79,110
9672,note_on,8,0,5,,,,,,,,,6,,,79,0
9672,note_on,0,0,5,,,,,,,,,6,,,78,110
9680,note_on,8,0,5,,,,,,,,,6,,,78,0
9680,note_on,0,0,5,,,,,,,,,6,,,79,110
9688,note_on,8,0,5,,,,,,,,,6,,,79,0
9688,note_on,0,0,5,,,,,,,,,6,,,78,110
9694,note_on,94,0,7,,,,,,,,,8,,,62,0
9694,note_on,94,0,6,,,,,,,,,7,,,69,0
9696,note_on,2,0,6,,,,,,,,,7,,,69,45
9696,note_on,8,0,5,,,,,,,,,6,,,78,0
9696,note_on,0,0,5,,,,,,,,,6,,,79,110
9696,note_on,2,0,7,,,,,,,,,8,,,62,45
9704,note_on,8,0,5,,,,,,,,,6,,,79,0
9704,note_on,0,0,5,,,,,,,,,6,,,78,110
9712,note_on,8,0,5,,,,,,,,,6,,,78,0
9712,note_on,0,0,5,,,,,,,,,6,,,79,110
9720,note_on,0,0,5,,,,,,,,,6,,,78,110
9720,note_on,8,0,5,,,,,,,,,6,,,79,0
9728,note_on,8,0,5,,,,,,,,,6,,,78,0
9728,note_on,0,0,5,,,,,,,,,6,,,79,110
9736,note_on,8,0,5,,,,,,,,,6,,,79,0
9736,note_on,0,0,5,,,,,,,,,6,,,78,110
9744,note_on,8,0,5,,,,,,,,,6,,,78,0
9744,note_on,0,0,5,,,,,,,,,6,,,76,110
9768,note_on,0,0,5,,,,,,,,,6,,,78,110
9768,note_on,24,0,5,,,,,,,,,6,,,76,0
9790,note_on,94,0,6,,,,,,,,,7,,,69,0
9790,note_on,94,0,7,,,,,,,,,8,,,62,0
9792,note_on,2,0,7,,,,,,,,,8,,,67,45
9792,note_on,2,0,6,,,,,,,,,7,,,67,45
9792,note_on,0,0,5,,,,,,,,,6,,,79,110
9792,note_on,24,0,5,,,,,,,,,6,,,78,0
9886,note_on,94,0,6,,,,,,,,,7,,,67,0
9886,note_on,94,0,7,,,,,,,,,8,,,67,0
9888,note_on,3968,0,8,,,,,,,,,10,,,67,92
9888,note_on,2,0,7,,,,,,,,,8,,,67,92
9888,note_on,3968,0,10,,,,,,,,,12,,,43,92
9888,note_on,3968,0,9,,,,,,,,,11,,,55,92
9888,note_on,2,0,6,,,,,,,,,7,,,67,92
9952,note_on,160,0,5,,,,,,,,,6,,,79,0
9982,note_on,94,0,10,,,,,,,,,12,,,43,0
9982,note_on,94,0,8,,,,,,,,,10,,,67,0
9982,note_on,94,0,6,,,,,,,,,7,,,67,0
9982,note_on,94,0,7,,,,,,,,,8,,,67,0
9982,note_on,94,0,9,,,,,,,,,11,,,55,0
9984,note_on,2,0,8,,,,,,,,,10,,,69,92
9984,note_on,2,0,10,,,,,,,,,12,,,45,92
9984,note_on,2,0,9,,,,,,,,,11,,,57,92
9984,note_on,2,0,6,,,,,,,,,7,,,69,92
9984,note_on,2,0,7,,,,,,,,,8,,,69,92
9992,note_on,8,0,10,,,,,,,,,12,,,45,0
9992,note_on,0,0,9,,,,,,,,,11,,,55,92
9992,note_on,8,0,6,,,,,,,,,7,,,69,0
9992,note_on,0,0,7,,,,,,,,,8,,,67,92
9992,note_on,8,0,7,,,,,,,,,8,,,69,0
9992,note_on,0,0,8,,,,,,,,,10,,,67,92
9992,note_on,8,0,8,,,,,,,,,10,,,69,0
9992,note_on,8,0,9,,,,,,,,,11,,,57,0
9992,note_on,0,0,10,,,,,,,,,12,,,43,92
9992,note_on,0,0,6,,,,,,,,,7,,,67,92
10000,note_on,8,0,8,,,,,,,,,10,,,67,0
10000,note_on,0,0,6,,,,,,,,,7,,,69,92
10000,note_on,0,0,8,,,,,,,,,10,,,69,92
10000,note_on,0,0,9,,,,,,,,,11,,,57,92
10000,note_on,8,0,10,,,,,,,,,12,,,43,0
10000,note_on,0,0,10,,,,,,,,,12,,,45,92
10000,note_on,8,0,7,,,,,,,,,8,,,67,0
10000,note_on,0,0,7,,,,,,,,,8,,,69,92
10000,note_on,8,0,9,,,,,,,,,11,,,55,0
10000,note_on,8,0,6,,,,,,,,,7,,,67,0
10008,note_on,0,0,6,,,,,,,,,7,,,67,92
10008,note_on,0,0,8,,,,,,,,,10,,,67,92
10008,note_on,8,0,6,,,,,,,,,7,,,69,0
10008,note_on,8,0,8,,,,,,,,,10,,,69,0
10008,note_on,8,0,9,,,,,,,,,11,,,57,0
10008,note_on,8,0,10,,,,,,,,,12,,,45,0
10008,note_on,0,0,10,,,,,,,,,12,,,43,92
10008,note_on,0,0,7,,,,,,,,,8,,,67,92
10008,note_on,8,0,7,,,,,,,,,8,,,69,0
10008,note_on,0,0,9,,,,,,,,,11,,,55,92
10016,note_on,0,0,8,,,,,,,,,10,,,69,92
10016,note_on,8,0,8,,,,,,,,,10,,,67,0
10016,note_on,8,0,7,,,,,,,,,8,,,67,0
10016,note_on,8,0,6,,,,,,,,,7,,,67,0
10016,note_on,8,0,10,,,,,,,,,12,,,43,0
10016,note_on,0,0,10,,,,,,,,,12,,,45,92
10016,note_on,0,0,7,,,,,,,,,8,,,69,92
10016,note_on,8,0,9,,,,,,,,,11,,,55,0
10016,note_on,0,0,9,,,,,,,,,11,,,57,92
10016,note_on,0,0,6,,,,,,,,,7,,,69,92
10024,note_on,8,0,10,,,,,,,,,12,,,45,0
10024,note_on,0,0,6,,,,,,,,,7,,,67,92
10024,note_on,8,0,6,,,,,,,,,7,,,69,0
10024,note_on,0,0,10,,,,,,,,,12,,,43,92
10024,note_on,8,0,8,,,,,,,,,10,,,69,0
10024,note_on,0,0,8,,,,,,,,,10,,,67,92
10024,note_on,8,0,7,,,,,,,,,8,,,69,0
10024,note_on,8,0,9,,,,,,,,,11,,,57,0
10024,note_on,0,0,9,,,,,,,,,11,,,55,92
10024,note_on,0,0,7,,,,,,,,,8,,,67,92
10032,note_on,0,0,9,,,,,,,,,11,,,57,92
10032,note_on,0,0,8,,,,,,,,,10,,,69,92
10032,note_on,8,0,7,,,,,,,,,8,,,67,0
10032,note_on,0,0,10,,,,,,,,,12,,,45,92
10032,note_on,8,0,8,,,,,,,,,10,,,67,0
10032,note_on,8,0,6,,,,,,,,,7,,,67,0
10032,note_on,0,0,6,,,,,,,,,7,,,69,92
10032,note_on,8,0,9,,,,,,,,,11,,,55,0
10032,note_on,8,0,10,,,,,,,,,12,,,43,0
10032,note_on,0,0,7,,,,,,,,,8,,,69,92
10040,note_on,0,0,7,,,,,,,,,8,,,67,92
10040,note_on,8,0,8,,,,,,,,,10,,,69,0
10040,note_on,0,0,8,,,,,,,,,10,,,67,92
10040,note_on,8,0,7,,,,,,,,,8,,,69,0
10040,note_on,0,0,10,,,,,,,,,12,,,43,92
10040,note_on,0,0,9,,,,,,,,,11,,,55,92
10040,note_on,0,0,6,,,,,,,,,7,,,67,92
10040,note_on,8,0,9,,,,,,,,,11,,,57,0
10040,note_on,8,0,10,,,,,,,,,12,,,45,0
10040,note_on,8,0,6,,,,,,,,,7,,,69,0
10048,note_on,8,0,9,,,,,,,,,11,,,55,0
10048,note_on,0,0,9,,,,,,,,,11,,,57,92
10048,note_on,0,0,8,,,,,,,,,10,,,69,92
10048,note_on,0,0,7,,,,,,,,,8,,,69,92
10048,note_on,8,0,7,,,,,,,,,8,,,67,0
10048,note_on,8,0,8,,,,,,,,,10,,,67,0
10048,note_on,8,0,6,,,,,,,,,7,,,67,0
10048,note_on,0,0,6,,,,,,,,,7,,,69,92
10048,note_on,0,0,10,,,,,,,,,12,,,45,92
10048,note_on,8,0,10,,,,,,,,,12,,,43,0
10056,note_on,8,0,8,,,,,,,,,10,,,69,0
10056,note_on,8,0,6,,,,,,,,,7,,,69,0
10056,note_on,8,0,9,,,,,,,,,11,,,57,0
10056,note_on,0,0,9,,,,,,,,,11,,,55,92
10056,note_on,0,0,6,,,,,,,,,7,,,67,92
10056,note_on,8,0,7,,,,,,,,,8,,,69,0
10056,note_on,0,0,10,,,,,,,,,12,,,43,92
10056,note_on,8,0,10,,,,,,,,,12,,,45,0
10056,note_on,0,0,7,,,,,,,,,8,,,67,92
10056,note_on,0,0,8,,,,,,,,,10,,,67,92
10064,note_on,0,0,9,,,,,,,,,11,,,57,92
10064,note_on,8,0,8,,,,,,,,,10,,,67,0
10064,note_on,8,0,7,,,,,,,,,8,,,67,0
10064,note_on,0,0,7,,,,,,,,,8,,,69,92
10064,note_on,0,0,8,,,,,,,,,10,,,69,92
10064,note_on,8,0,9,,,,,,,,,11,,,55,0
10064,note_on,0,0,6,,,,,,,,,7,,,69,92
10064,note_on,8,0,6,,,,,,,,,7,,,67,0
10064,note_on,8,0,10,,,,,,,,,12,,,43,0
10064,note_on,0,0,10,,,,,,,,,12,,,45,92
10072,note_on,8,0,8,,,,,,,,,10,,,69,0
10072,note_on,0,0,6,,,,,,,,,7,,,67,92
10072,note_on,8,0,7,,,,,,,,,8,,,69,0
10072,note_on,0,0,7,,,,,,,,,8,,,67,92
10072,note_on,8,0,10,,,,,,,,,12,,,45,0
10072,note_on,0,0,8,,,,,,,,,10,,,67,92
10072,note_on,0,0,10,,,,,,,,,12,,,43,92
10072,note_on,8,0,6,,,,,,,,,7,,,69,0
10072,note_on,8,0,9,,,,,,,,,11,,,57,0
10072,note_on,0,0,9,,,,,,,,,11,,,55,92
10080,note_on,0,0,8,,,,,,,,,10,,,69,92
10080,note_on,8,0,6,,,,,,,,,7,,,67,0
10080,note_on,0,0,9,,,,,,,,,11,,,57,92
10080,note_on,8,0,9,,,,,,,,,11,,,55,0
10080,note_on,8,0,10,,,,,,,,,12,,,43,0
10080,note_on,8,0,7,,,,,,,,,8,,,67,0
10080,note_on,0,0,10,,,,,,,,,12,,,45,92
10080,note_on,8,0,8,,,,,,,,,10,,,67,0
10080,note_on,0,0,7,,,,,,,,,8,,,69,92
10080,note_on,0,0,6,,,,,,,,,7,,,69,92
10088,note_on,8,0,7,,,,,,,,,8,,,69,0
10088,note_on,0,0,6,,,,,,,,,7,,,67,92
10088,note_on,8,0,9,,,,,,,,,11,,,57,0
10088,note_on,0,0,9,,,,,,,,,11,,,55,92
10088,note_on,8,0,6,,,,,,,,,7,,,69,0
10088,note_on,0,0,7,,,,,,,,,8,,,67,92
10088,note_on,8,0,8,,,,,,,,,10,,,69,0
10088,note_on,0,0,8,,,,,,,,,10,,,67,92
10088,note_on,8,0,10,,,,,,,,,12,,,45,0
10088,note_on,0,0,10,,,,,,,,,12,,,43,92
10096,note_on,0,0,9,,,,,,,,,11,,,57,92
10096,note_on,0,0,6,,,,,,,,,7,,,69,92
10096,note_on,8,0,6,,,,,,,,,7,,,67,0
10096,note_on,8,0,8,,,,,,,,,10,,,67,0
10096,note_on,0,0,8,,,,,,,,,10,,,69,92
10096,note_on,8,0,7,,,,,,,,,8,,,67,0
10096,note_on,0,0,7,,,,,,,,,8,,,69,92
10096,note_on,0,0,10,,,,,,,,,12,,,45,92
10096,note_on,8,0,10,,,,,,,,,12,,,43,0
10096,note_on,8,0,9,,,,,,,,,11,,,55,0
10104,note_on,8,0,8,,,,,,,,,10,,,69,0
10104,note_on,0,0,9,,,,,,,,,11,,,55,92
10104,note_on,0,0,8,,,,,,,,,10,,,67,92
10104,note_on,8,0,10,,,,,,,,,12,,,45,0
10104,note_on,8,0,9,,,,,,,,,11,,,57,0
10104,note_on,8,0,6,,,,,,,,,7,,,69,0
10104,note_on,0,0,10,,,,,,,,,12,,,43,92
10104,note_on,0,0,6,,,,,,,,,7,,,67,92
10104,note_on,8,0,7,,,,,,,,,8,,,69,0
10104,note_on,0,0,7,,,,,,,,,8,,,67,92
10112,note_on,8,0,6,,,,,,,,,7,,,67,0
10112,note_on,0,0,10,,,,,,,,,12,,,45,92
10112,note_on,8,0,10,,,,,,,,,12,,,43,0
10112,note_on,8,0,8,,,,,,,,,10,,,67,0
10112,note_on,0,0,8,,,,,,,,,10,,,69,92
10112,note_on,8,0,7,,,,,,,,,8,,,67,0
10112,note_on,0,0,7,,,,,,,,,8,,,69,92
10112,note_on,0,0,6,,,,,,,,,7,,,69,92
10112,note_on,8,0,9,,,,,,,,,11,,,55,0
10112,note_on,0,0,9,,,,,,,,,11,,,57,92
10120,note_on,0,0,8,,,,,,,,,10,,,67,92
10120,note_on,8,0,8,,,,,,,,,10,,,69,0
10120,note_on,8,0,6,,,,,,,,,7,,,69,0
10120,note_on,0,0,9,,,,,,,,,11,,,55,92
10120,note_on,0,0,10,,,,,,,,,12,,,43,92
10120,note_on,8,0,7,,,,,,,,,8,,,69,0
10120,note_on,0,0,7,,,,,,,,,8,,,67,92
10120,note_on,0,0,6,,,,,,,,,7,,,67,92
10120,note_on,8,0,10,,,,,,,,,12,,,45,0
10120,note_on,8,0,9,,,,,,,,,11,,,57,0
10128,note_on,0,0,10,,,,,,,,,12,,,42,92
10128,note_on,0,0,8,,,,,,,,,10,,,66,92
10128,note_on,8,0,8,,,,,,,,,10,,,67,0
10128,note_on,8,0,6,,,,,,,,,7,,,67,0
10128,note_on,8,0,10,,,,,,,,,12,,,43,0
10128,note_on,0,0,7,,,,,,,,,8,,,66,92
10128,note_on,8,0,7,,,,,,,,,8,,,67,0
10128,note_on,0,0,9,,,,,,,,,11,,,54,92
10128,note_on,8,0,9,,,,,,,,,11,,,55,0
10128,note_on,0,0,6,,,,,,,,,7,,,66,92
10152,note_on,0,0,6,,,,,,,,,7,,,67,92
10152,note_on,24,0,6,,,,,,,,,7,,,66,0
10152,note_on,0,0,8,,,,,,,,,10,,,67,92
10152,note_on,0,0,9,,,,,,,,,11,,,55,92
10152,note_on,24,0,9,,,,,,,,,11,,,54,0
10152,note_on,24,0,10,,,,,,,,,12,,,42,0
10152,note_on,0,0,10,,,,,,,,,12,,,43,92
10152,note_on,24,0,7,,,,,,,,,8,,,66,0
10152,note_on,24,0,8,,,,,,,,,10,,,66,0
10152,note_on,0,0,7,,,,,,,,,8,,,67,92
10174,note_on,22,0,8,,,,,,,,,10,,,67,0
10174,note_on,22,0,6,,,,,,,,,7,,,67,0
10174,note_on,22,0,7,,,,,,,,,8,,,67,0
10174,note_on,22,0,10,,,,,,,,,12,,,43,0
10174,note_on,22,0,9,,,,,,,,,11,,,55,0
10176,note_on,2,0,9,,,,,,,,,11,,,59,92
10176,note_on,2,0,10,,,,,,,,,12,,,47,92
10176,note_on,2,0,8,,,,,,,,,10,,,71,92
10176,note_on,2,0,6,,,,,,,,,7,,,71,92
10176,note_on,2,0,7,,,,,,,,,8,,,71,92
10270,note_on,94,0,7,,,,,,,,,8,,,71,0
10270,note_on,94,0,9,,,,,,,,,11,,,59,0
10270,note_on,94,0,8,,,,,,,,,10,,,71,0
10270,note_on,94,0,6,,,,,,,,,7,,,71,0
10270,note_on,94,0,10,,,,,,,,,12,,,47,0
10272,note_on,2,0,8,,,,,,,,,10,,,63,92
10272,note_on,2,0,7,,,,,,,,,8,,,63,92
10272,note_on,2,0,6,,,,,,,,,7,,,63,92
10272,note_on,2,0,9,,,,,,,,,11,,,51,92
10272,note_on,2,0,10,,,,,,,,,12,,,39,92
10366,note_on,94,0,7,,,,,,,,,8,,,63,0
10366,note_on,94,0,10,,,,,,,,,12,,,39,0
10366,note_on,94,0,6,,,,,,,,,7,,,63,0
10366,note_on,94,0,9,,,,,,,,,11,,,51,0
10366,note_on,94,0,8,,,,,,,,,10,,,63,0
10368,note_on,416,0,5,,,,,,,,,6,,,82,110
10368,note_on,2,0,10,,,,,,,,,12,,,40,92
10368,note_on,2,0,9,,,,,,,,,11,,,52,92
10368,note_on,2,0,6,,,,,,,,,7,,,64,92
10368,note_on,2,0,8,,,,,,,,,10,,,64,92
10368,note_on,2,0,7,,,,,,,,,8,,,64,92
10392,note_on,0,0,5,,,,,,,,,6,,,83,110
10392,note_on,24,0,5,,,,,,,,,6,,,82,0
10416,note_on,24,0,5,,,,,,,,,6,,,83,0
10416,note_on,0,0,5,,,,,,,,,6,,,84,110
10438,note_on,22,0,5,,,,,,,,,6,,,84,0
10440,note_on,2,0,5,,,,,,,,,6,,,83,110
10462,note_on,94,0,7,,,,,,,,,8,,,64,0
10462,note_on,94,0,6,,,,,,,,,7,,,64,0
10464,note_on,2,0,7,,,,,,,,,8,,,64,45
10464,note_on,2,0,6,,,,,,,,,7,,,67,45
10528,note_on,160,0,8,,,,,,,,,10,,,64,0
10528,note_on,160,0,9,,,,,,,,,11,,,52,0
10528,note_on,160,0,10,,,,,,,,,12,,,40,0
10558,note_on,118,0,5,,,,,,,,,6,,,83,0
10560,note_on,2,0,5,,,,,,,,,6,,,81,110
10560,note_on,0,0,6,,,,,,,,,7,,,69,45
10560,note_on,96,0,6,,,,,,,,,7,,,67,0
10560,note_on,96,0,7,,,,,,,,,8,,,64,0
10560,note_on,0,0,7,,,,,,,,,8,,,66,45
10656,note_on,96,0,5,,,,,,,,,6,,,81,0
10656,note_on,0,0,5,,,,,,,,,6,,,79,110
10656,note_on,0,0,6,,,,,,,,,7,,,71,45
10656,note_on,96,0,6,,,,,,,,,7,,,69,0
10656,note_on,96,0,7,,,,,,,,,8,,,66,0
10656,note_on,0,0,7,,,,,,,,,8,,,67,45
10752,note_on,0,0,6,,,,,,,,,7,,,72,45
10752,note_on,96,0,6,,,,,,,,,7,,,71,0
10752,note_on,0,0,7,,,,,,,,,8,,,69,45
10752,note_on,96,0,5,,,,,,,,,6,,,79,0
10752,note_on,96,0,7,,,,,,,,,8,,,67,0
10752,note_on,0,0,5,,,,,,,,,6,,,78,110
10848,note_on,96,0,7,,,,,,,,,8,,,69,0
10848,note_on,0,0,7,,,,,,,,,8,,,67,45
10848,note_on,0,0,5,,,,,,,,,6,,,76,110
10848,note_on,96,0,5,,,,,,,,,6,,,78,0
10848,note_on,0,0,6,,,,,,,,,7,,,71,45
10848,note_on,96,0,6,,,,,,,,,7,,,72,0
10942,note_on,94,0,5,,,,,,,,,6,,,76,0
10942,note_on,94,0,6,,,,,,,,,7,,,71,0
10942,note_on,94,0,7,,,,,,,,,8,,,67,0
10944,note_on,2,0,6,,,,,,,,,7,,,69,45
10944,note_on,2,0,5,,,,,,,,,6,,,75,110
10944,note_on,2,0,7,,,,,,,,,8,,,66,45
11038,note_on,94,0,6,,,,,,,,,7,,,69,0
11038,note_on,94,0,7,,,,,,,,,8,,,66,0
11040,note_on,2,0,7,,,,,,,,,8,,,66,45
11040,note_on,2,0,6,,,,,,,,,7,,,69,45
11134,note_on,94,0,7,,,,,,,,,8,,,66,0
11134,note_on,94,0,6,,,,,,,,,7,,,69,0
11136,note_on,2,0,7,,,,,,,,,8,,,66,45
11136,note_on,2,0,6,,,,,,,,,7,,,69,45
11230,note_on,94,0,7,,,,,,,,,8,,,66,0
11230,note_on,94,0,6,,,,,,,,,7,,,69,0
11232,note_on,2,0,7,,,,,,,,,8,,,66,45
11232,note_on,2,0,6,,,,,,,,,7,,,69,45
11280,note_on,336,0,5,,,,,,,,,6,,,75,0
11280,note_on,0,0,5,,,,,,,,,6,,,76,110
11304,note_on,24,0,5,,,,,,,,,6,,,76,0
11304,note_on,0,0,5,,,,,,,,,6,,,78,110
11326,note_on,22,0,5,,,,,,,,,6,,,78,0
11326,note_on,94,0,7,,,,,,,,,8,,,66,0
11326,note_on,94,0,6,,,,,,,,,7,,,69,0
11328,note_on,2,0,5,,,,,,,,,6,,,76,110
11328,note_on,2,0,7,,,,,,,,,8,,,67,45
11328,note_on,2,0,6,,,,,,,,,7,,,71,45
11422,note_on,94,0,5,,,,,,,,,6,,,76,0
11422,note_on,94,0,6,,,,,,,,,7,,,71,0
11422,note_on,94,0,7,,,,,,,,,8,,,67,0
11424,note_on,2,0,6,,,,,,,,,7,,,71,45
11424,note_on,2,0,7,,,,,,,,,8,,,67,45
11518,note_on,94,0,6,,,,,,,,,7,,,71,0
11518,note_on,94,0,7,,,,,,,,,8,,,67,0
11520,note_on,98,0,5,,,,,,,,,6,,,80,110
11544,note_on,24,0,5,,,,,,,,,6,,,80,0
11544,note_on,0,0,5,,,,,,,,,6,,,81,110
11568,note_on,0,0,5,,,,,,,,,6,,,83,110
11568,note_on,24,0,5,,,,,,,,,6,,,81,0
11590,note_on,22,0,5,,,,,,,,,6,,,83,0
11592,note_on,2,0,5,,,,,,,,,6,,,81,110
11616,note_on,98,0,6,,,,,,,,,7,,,66,45
11616,note_on,98,0,7,,,,,,,,,8,,,62,45
11710,note_on,118,0,5,,,,,,,,,6,,,81,0
11710,note_on,94,0,6,,,,,,,,,7,,,66,0
11710,note_on,94,0,7,,,,,,,,,8,,,62,0
11712,note_on,2,0,5,,,,,,,,,6,,,81,110
11712,note_on,2,0,7,,,,,,,,,8,,,61,45
11712,note_on,2,0,6,,,,,,,,,7,,,64,45
11760,note_on,48,0,5,,,,,,,,,6,,,81,0
11760,note_on,0,0,5,,,,,,,,,6,,,79,110
11806,note_on,46,0,5,,,,,,,,,6,,,79,0
11808,note_on,2,0,5,,,,,,,,,6,,,79,110
11808,note_on,0,0,7,,,,,,,,,8,,,62,45
11808,note_on,96,0,7,,,,,,,,,8,,,61,0
11808,note_on,96,0,6,,,,,,,,,7,,,64,0
11808,note_on,0,0,6,,,,,,,,,7,,,66,45
11856,note_on,0,0,5,,,,,,,,,6,,,78,110
11856,note_on,48,0,5,,,,,,,,,6,,,79,0
11902,note_on,46,0,5,,,,,,,,,6,,,78,0
11904,note_on,2,0,5,,,,,,,,,6,,,78,110
11904,note_on,0,0,7,,,,,,,,,8,,,64,45
11904,note_on,96,0,6,,,,,,,,,7,,,66,0
11904,note_on,0,0,6,,,,,,,,,7,,,67,45
11904,note_on,96,0,7,,,,,,,,,8,,,62,0
11952,note_on,0,0,5,,,,,,,,,6,,,76,110
11952,note_on,48,0,5,,,,,,,,,6,,,78,0
11998,note_on,46,0,5,,,,,,,,,6,,,76,0
12000,note_on,0,0,7,,,,,,,,,8,,,66,45
12000,note_on,0,0,6,,,,,,,,,7,,,69,45
12000,note_on,2,0,5,,,,,,,,,6,,,76,110
12000,note_on,96,0,6,,,,,,,,,7,,,67,0
12000,note_on,96,0,7,,,,,,,,,8,,,64,0
12048,note_on,48,0,5,,,,,,,,,6,,,76,0
12048,note_on,0,0,5,,,,,,,,,6,,,74,110
12094,note_on,94,0,7,,,,,,,,,8,,,66,0
12094,note_on,94,0,6,,,,,,,,,7,,,69,0
12094,note_on,46,0,5,,,,,,,,,6,,,74,0
12096,note_on,2,0,5,,,,,,,,,6,,,73,110
12096,note_on,2,0,7,,,,,,,,,8,,,67,45
12096,note_on,2,0,6,,,,,,,,,7,,,70,45
12190,note_on,94,0,7,,,,,,,,,8,,,67,0
12190,note_on,94,0,6,,,,,,,,,7,,,70,0
12192,note_on,2,0,6,,,,,,,,,7,,,70,45
12192,note_on,2,0,7,,,,,,,,,8,,,67,45
12286,note_on,94,0,6,,,,,,,,,7,,,70,0
12286,note_on,94,0,7,,,,,,,,,8,,,67,0
12288,note_on,2,0,7,,,,,,,,,8,,,67,45
12288,note_on,2,0,6,,,,,,,,,7,,,70,45
12320,note_on,224,0,5,,,,,,,,,6,,,73,0
12320,note_on,0,0,5,,,,,,,,,6,,,76,110
12352,note_on,32,0,5,,,,,,,,,6,,,76,0
12352,note_on,0,0,5,,,,,,,,,6,,,74,110
12382,note_on,94,0,7,,,,,,,,,8,,,67,0
12382,note_on,94,0,6,,,,,,,,,7,,,70,0
12382,note_on,30,0,5,,,,,,,,,6,,,74,0
12384,note_on,2,0,6,,,,,,,,,7,,,70,45
12384,note_on,2,0,5,,,,,,,,,6,,,73,110
12384,note_on,2,0,7,,,,,,,,,8,,,67,45
12416,note_on,0,0,5,,,,,,,,,6,,,74,110
12416,note_on,32,0,5,,,,,,,,,6,,,73,0
12448,note_on,0,0,5,,,,,,,,,6,,,76,110
12448,note_on,32,0,5,,,,,,,,,6,,,74,0
12478,note_on,30,0,5,,,,,,,,,6,,,76,0
12478,note_on,94,0,6,,,,,,,,,7,,,70,0
12478,note_on,94,0,7,,,,,,,,,8,,,67,0
12480,note_on,2,0,6,,,,,,,,,7,,,69,45
12480,note_on,2,0,5,,,,,,,,,6,,,74,110
12480,note_on,2,0,7,,,,,,,,,8,,,66,45
12574,note_on,94,0,6,,,,,,,,,7,,,69,0
12574,note_on,94,0,7,,,,,,,,,8,,,66,0
12576,note_on,96,0,5,,,,,,,,,6,,,74,0
12576,note_on,0,0,5,,,,,,,,,6,,,86,110
12576,note_on,2,0,6,,,,,,,,,7,,,69,45
12576,note_on,2,0,7,,,,,,,,,8,,,66,45
12670,note_on,94,0,7,,,,,,,,,8,,,66,0
12670,note_on,94,0,5,,,,,,,,,6,,,86,0
12670,note_on,94,0,6,,,,,,,,,7,,,69,0
12672,note_on,2,0,5,,,,,,,,,6,,,85,110
12768,note_on,0,0,5,,,,,,,,,6,,,83,110
12768,note_on,96,0,5,,,,,,,,,6,,,85,0
12768,note_on,98,0,6,,,,,,,,,7,,,74,45
12768,note_on,98,0,7,,,,,,,,,8,,,67,45
12862,note_on,94,0,5,,,,,,,,,6,,,83,0
12862,note_on,94,0,6,,,,,,,,,7,,,74,0
12862,note_on,94,0,7,,,,,,,,,8,,,67,0
12864,note_on,2,0,6,,,,,,,,,7,,,74,45
12864,note_on,2,0,7,,,,,,,,,8,,,67,45
12960,note_on,96,0,6,,,,,,,,,7,,,74,0
12960,note_on,98,0,5,,,,,,,,,6,,,81,110
12960,note_on,0,0,7,,,,,,,,,8,,,69,45
12960,note_on,0,0,6,,,,,,,,,7,,,73,45
12960,note_on,96,0,7,,,,,,,,,8,,,67,0
13054,note_on,94,0,6,,,,,,,,,7,,,73,0
13054,note_on,94,0,5,,,,,,,,,6,,,81,0
13054,note_on,94,0,7,,,,,,,,,8,,,69,0
13056,note_on,2,0,5,,,,,,,,,6,,,81,110
13152,note_on,96,0,5,,,,,,,,,6,,,81,0
13152,note_on,0,0,5,,,,,,,,,6,,,80,110
13152,note_on,98,0,6,,,,,,,,,7,,,74,45
13152,note_on,98,0,7,,,,,,,,,8,,,59,45
13246,note_on,94,0,6,,,,,,,,,7,,,74,0
13246,note_on,94,0,7,,,,,,,,,8,,,59,0
13246,note_on,94,0,5,,,,,,,,,6,,,80,0
13248,note_on,2,0,7,,,,,,,,,8,,,59,45
13248,note_on,2,0,6,,,,,,,,,7,,,74,45
13344,note_on,96,0,7,,,,,,,,,8,,,59,0
13344,note_on,98,0,5,,,,,,,,,6,,,80,110
13344,note_on,0,0,6,,,,,,,,,7,,,77,45
13344,note_on,96,0,6,,,,,,,,,7,,,74,0
13344,note_on,0,0,7,,,,,,,,,8,,,62,45
13438,note_on,94,0,5,,,,,,,,,6,,,80,0
13438,note_on,94,0,7,,,,,,,,,8,,,62,0
13438,note_on,94,0,6,,,,,,,,,7,,,77,0
13440,note_on,2,0,5,,,,,,,,,6,,,81,110
13536,note_on,96,0,5,,,,,,,,,6,,,81,0
13536,note_on,98,0,7,,,,,,,,,8,,,61,45
13536,note_on,98,0,6,,,,,,,,,7,,,76,45
13536,note_on,0,0,5,,,,,,,,,6,,,79,110
13630,note_on,94,0,5,,,,,,,,,6,,,79,0
13630,note_on,94,0,6,,,,,,,,,7,,,76,0
13630,note_on,94,0,7,,,,,,,,,8,,,61,0
13632,note_on,2,0,6,,,,,,,,,7,,,76,45
13632,note_on,2,0,7,,,,,,,,,8,,,61,45
13728,note_on,0,0,7,,,,,,,,,8,,,62,45
13728,note_on,96,0,7,,,,,,,,,8,,,61,0
13728,note_on,98,0,5,,,,,,,,,6,,,78,110
13728,note_on,0,0,6,,,,,,,,,7,,,69,45
13728,note_on,96,0,6,,,,,,,,,7,,,76,0
13822,note_on,94,0,6,,,,,,,,,7,,,69,0
13822,note_on,94,0,5,,,,,,,,,6,,,78,0
13822,note_on,94,0,7,,,,,,,,,8,,,62,0
13824,note_on,2,0,5,,,,,,,,,6,,,75,110
13824,note_on,2,0,6,,,,,,,,,7,,,71,45
13824,note_on,2,0,7,,,,,,,,,8,,,67,45
13918,note_on,94,0,6,,,,,,,,,7,,,71,0
13918,note_on,94,0,7,,,,,,,,,8,,,67,0
13920,note_on,2,0,7,,,,,,,,,8,,,67,45
13920,note_on,2,0,6,,,,,,,,,7,,,71,45
13920,note_on,96,0,5,,,,,,,,,6,,,75,0
13920,note_on,0,0,5,,,,,,,,,6,,,76,110
14014,note_on,94,0,6,,,,,,,,,7,,,71,0
14014,note_on,94,0,7,,,,,,,,,8,,,67,0
14016,note_on,2,0,7,,,,,,,,,8,,,67,45
14016,note_on,2,0,6,,,,,,,,,7,,,71,45
14064,note_on,144,0,5,,,,,,,,,6,,,76,0
14064,note_on,0,0,5,,,,,,,,,6,,,78,110
14110,note_on,94,0,6,,,,,,,,,7,,,71,0
14110,note_on,94,0,7,,,,,,,,,8,,,67,0
14112,note_on,2,0,6,,,,,,,,,7,,,71,45
14112,note_on,2,0,7,,,,,,,,,8,,,67,45
14112,note_on,48,0,5,,,,,,,,,6,,,78,0
14112,note_on,0,0,5,,,,,,,,,6,,,79,110
14160,note_on,48,0,5,,,,,,,,,6,,,79,0
14160,note_on,0,0,5,,,,,,,,,6,,,81,110
14206,note_on,94,0,6,,,,,,,,,7,,,71,0
14206,note_on,94,0,7,,,,,,,,,8,,,67,0
14206,note_on,46,0,5,,,,,,,,,6,,,81,0
14208,note_on,2,0,6,,,,,,,,,7,,,71,45
14208,note_on,2,0,7,,,,,,,,,8,,,67,45
14208,note_on,2,0,5,,,,,,,,,6,,,82,110
14256,note_on,0,0,5,,,,,,,,,6,,,83,110
14256,note_on,48,0,5,,,,,,,,,6,,,82,0
14302,note_on,94,0,7,,,,,,,,,8,,,67,0
14302,note_on,94,0,6,,,,,,,,,7,,,71,0
14304,note_on,2,0,7,,,,,,,,,8,,,67,45
14304,note_on,2,0,6,,,,,,,,,7,,,71,45
14304,note_on,0,0,5,,,,,,,,,6,,,79,110
14304,note_on,48,0,5,,,,,,,,,6,,,83,0
14352,note_on,0,0,5,,,,,,,,,6,,,76,110
14352,note_on,48,0,5,,,,,,,,,6,,,79,0
14398,note_on,94,0,6,,,,,,,,,7,,,71,0
14398,note_on,46,0,5,,,,,,,,,6,,,76,0
14398,note_on,94,0,7,,,,,,,,,8,,,67,0
14400,note_on,2,0,7,,,,,,,,,8,,,69,45
14400,note_on,0,0,6,,,,,,,,,7,,,66,45
14400,note_on,2,0,6,,,,,,,,,7,,,57,45
14400,note_on,9890,0,4,,,,,,,,,5,,,69,45
14400,note_on,9890,0,3,,,,,,,,,5,,,69,45
14400,note_on,2,0,5,,,,,,,,,6,,,76,110
14408,note_on,0,0,5,,,,,,,,,6,,,74,110
14408,note_on,8,0,5,,,,,,,,,6,,,76,0
14416,note_on,8,0,5,,,,,,,,,6,,,74,0
14416,note_on,0,0,5,,,,,,,,,6,,,76,110
14424,note_on,8,0,5,,,,,,,,,6,,,76,0
14424,note_on,0,0,5,,,,,,,,,6,,,74,110
14432,note_on,8,0,5,,,,,,,,,6,,,74,0
14432,note_on,0,0,5,,,,,,,,,6,,,76,110
14440,note_on,8,0,5,,,,,,,,,6,,,76,0
14440,note_on,0,0,5,,,,,,,,,6,,,74,110
14448,note_on,8,0,5,,,,,,,,,6,,,74,0
14448,note_on,0,0,5,,,,,,,,,6,,,76,110
14456,note_on,8,0,5,,,,,,,,,6,,,76,0
14456,note_on,0,0,5,,,,,,,,,6,,,74,110
14464,note_on,0,0,5,,,,,,,,,6,,,76,110
14464,note_on,8,0,5,,,,,,,,,6,,,74,0
14472,note_on,8,0,5,,,,,,,,,6,,,76,0
14472,note_on,0,0,5,,,,,,,,,6,,,74,110
14480,note_on,8,0,5,,,,,,,,,6,,,74,0
14480,note_on,0,0,5,,,,,,,,,6,,,76,110
14488,note_on,8,0,5,,,,,,,,,6,,,76,0
14488,note_on,0,0,5,,,,,,,,,6,,,74,110
14494,note_on,94,0,7,,,,,,,,,8,,,69,0
14496,note_on,2,0,7,,,,,,,,,8,,,57,45
14496,note_on,8,0,5,,,,,,,,,6,,,74,0
14496,note_on,0,0,5,,,,,,,,,6,,,76,110
14504,note_on,8,0,5,,,,,,,,,6,,,76,0
14504,note_on,0,0,5,,,,,,,,,6,,,74,110
14512,note_on,0,0,5,,,,,,,,,6,,,76,110
14512,note_on,8,0,5,,,,,,,,,6,,,74,0
14520,note_on,8,0,5,,,,,,,,,6,,,76,0
14520,note_on,0,0,5,,,,,,,,,6,,,74,110
14528,note_on,0,0,5,,,,,,,,,6,,,76,110
14528,note_on,8,0,5,,,,,,,,,6,,,74,0
14536,note_on,0,0,5,,,,,,,,,6,,,74,110
14536,note_on,8,0,5,,,,,,,,,6,,,76,0
14544,note_on,0,0,5,,,,,,,,,6,,,73,110
14544,note_on,8,0,5,,,,,,,,,6,,,74,0
14568,note_on,0,0,5,,,,,,,,,6,,,74,110
14568,note_on,24,0,5,,,,,,,,,6,,,73,0
14590,note_on,94,0,7,,,,,,,,,8,,,57,0
14592,note_on,0,0,6,,,,,,,,,7,,,64,45
14592,note_on,2,0,7,,,,,,,,,8,,,57,45
14592,note_on,4064,0,10,,,,,,,,,12,,,45,45
14592,note_on,0,0,6,,,,,,,,,7,,,57,45
14592,note_on,4064,0,9,,,,,,,,,11,,,57,45
14592,note_on,192,0,6,,,,,,,,,7,,,57,0
14592,note_on,0,0,5,,,,,,,,,6,,,73,110
14592,note_on,24,0,5,,,,,,,,,6,,,74,0
14592,note_on,0,0,6,,,,,,,,,7,,,66,0
14640,note_on,48,0,7,,,,,,,,,8,,,57,0
14640,note_on,0,0,7,,,,,,,,,8,,,64,45
14686,note_on,46,0,7,,,,,,,,,8,,,64,0
14686,note_on,94,0,10,,,,,,,,,12,,,45,0
14686,note_on,94,0,9,,,,,,,,,11,,,57,0
14688,note_on,2,0,7,,,,,,,,,8,,,61,45
14736,note_on,0,0,7,,,,,,,,,8,,,64,45
14736,note_on,48,0,7,,,,,,,,,8,,,61,0
14752,note_on,0,0,6,,,,,,,,,7,,,64,0
14752,note_on,160,0,6,,,,,,,,,7,,,57,0
14752,note_on,160,0,5,,,,,,,,,6,,,73,0
14782,note_on,46,0,7,,,,,,,,,8,,,64,0
14784,note_on,98,0,10,,,,,,,,,12,,,40,45
14784,note_on,2,0,7,,,,,,,,,8,,,57,45
14784,note_on,98,0,9,,,,,,,,,11,,,52,45
14832,note_on,0,0,7,,,,,,,,,8,,,64,45
14832,note_on,48,0,7,,,,,,,,,8,,,57,0
14878,note_on,46,0,7,,,,,,,,,8,,,64,0
14878,note_on,94,0,9,,,,,,,,,11,,,52,0
14878,note_on,94,0,10,,,,,,,,,12,,,40,0
14880,note_on,128,0,6,,,,,,,,,7,,,69,92
14880,note_on,2,0,7,,,,,,,,,8,,,61,45
14928,note_on,48,0,7,,,,,,,,,8,,,61,0
14928,note_on,0,0,7,,,,,,,,,8,,,64,45
14974,note_on,94,0,6,,,,,,,,,7,,,69,0
14974,note_on,46,0,7,,,,,,,,,8,,,64,0
14976,note_on,2,0,6,,,,,,,,,7,,,81,92
14976,note_on,98,0,10,,,,,,,,,12,,,37,45
14976,note_on,98,0,9,,,,,,,,,11,,,49,45
14976,note_on,2,0,7,,,,,,,,,8,,,57,45
15024,note_on,0,0,6,,,,,,,,,7,,,79,92
15024,note_on,48,0,6,,,,,,,,,7,,,81,0
15024,note_on,0,0,7,,,,,,,,,8,,,64,45
15024,note_on,48,0,7,,,,,,,,,8,,,57,0
15070,note_on,94,0,9,,,,,,,,,11,,,49,0
15070,note_on,46,0,7,,,,,,,,,8,,,64,0
15070,note_on,46,0,6,,,,,,,,,7,,,79,0
15070,note_on,94,0,10,,,,,,,,,12,,,37,0
15072,note_on,2,0,7,,,,,,,,,8,,,61,45
15072,note_on,2,0,6,,,,,,,,,7,,,78,92
15096,note_on,24,0,6,,,,,,,,,7,,,78,0
15096,note_on,0,0,6,,,,,,,,,7,,,79,92
15120,note_on,48,0,7,,,,,,,,,8,,,61,0
15120,note_on,24,0,6,,,,,,,,,7,,,79,0
15120,note_on,0,0,6,,,,,,,,,7,,,81,92
15120,note_on,0,0,7,,,,,,,,,8,,,64,45
15144,note_on,24,0,6,,,,,,,,,7,,,81,0
15144,note_on,0,0,6,,,,,,,,,7,,,79,92
15166,note_on,46,0,7,,,,,,,,,8,,,64,0
15168,note_on,2,0,7,,,,,,,,,8,,,57,45
15168,note_on,98,0,10,,,,,,,,,12,,,33,45
15168,note_on,98,0,9,,,,,,,,,11,,,45,45
15168,note_on,4640,0,8,,,,,,,,,10,,,64,45
15216,note_on,48,0,7,,,,,,,,,8,,,57,0
15216,note_on,0,0,7,,,,,,,,,8,,,64,45
15262,note_on,94,0,10,,,,,,,,,12,,,33,0
15262,note_on,94,0,9,,,,,,,,,11,,,45,0
15262,note_on,118,0,6,,,,,,,,,7,,,79,0
15262,note_on,94,0,8,,,,,,,,,10,,,64,0
15262,note_on,46,0,7,,,,,,,,,8,,,64,0
15264,note_on,2,0,7,,,,,,,,,8,,,61,45
15264,note_on,2,0,6,,,,,,,,,7,,,78,92
15312,note_on,48,0,6,,,,,,,,,7,,,78,0
15312,note_on,0,0,6,,,,,,,,,7,,,76,92
15312,note_on,48,0,7,,,,,,,,,8,,,61,0
15312,note_on,0,0,7,,,,,,,,,8,,,64,45
15358,note_on,46,0,7,,,,,,,,,8,,,64,0
15358,note_on,46,0,6,,,,,,,,,7,,,76,0
15360,note_on,2,0,6,,,,,,,,,7,,,78,92
15360,note_on,2,0,7,,,,,,,,,8,,,57,45
15360,note_on,98,0,8,,,,,,,,,10,,,61,45
15360,note_on,98,0,10,,,,,,,,,12,,,45,45
15360,note_on,98,0,9,,,,,,,,,11,,,57,45
15408,note_on,0,0,6,,,,,,,,,7,,,76,92
15408,note_on,0,0,7,,,,,,,,,8,,,67,45
15408,note_on,48,0,7,,,,,,,,,8,,,57,0
15408,note_on,48,0,6,,,,,,,,,7,,,78,0
15454,note_on,94,0,10,,,,,,,,,12,,,45,0
15454,note_on,94,0,9,,,,,,,,,11,,,57,0
15454,note_on,94,0,8,,,,,,,,,10,,,61,0
15454,note_on,46,0,7,,,,,,,,,8,,,67,0
15456,note_on,0,0,6,,,,,,,,,7,,,74,92
15456,note_on,48,0,6,,,,,,,,,7,,,76,0
15456,note_on,2,0,7,,,,,,,,,8,,,64,45
15504,note_on,0,0,6,,,,,,,,,7,,,73,92
15504,note_on,48,0,6,,,,,,,,,7,,,74,0
15504,note_on,48,0,7,,,,,,,,,8,,,64,0
15504,note_on,0,0,7,,,,,,,,,8,,,67,45
15550,note_on,46,0,7,,,,,,,,,8,,,67,0
15550,note_on,46,0,6,,,,,,,,,7,,,73,0
15552,note_on,2,0,6,,,,,,,,,7,,,74,45
15552,note_on,2,0,7,,,,,,,,,8,,,57,45
15552,note_on,98,0,9,,,,,,,,,11,,,50,45
15552,note_on,98,0,8,,,,,,,,,10,,,66,45
15552,note_on,98,0,10,,,,,,,,,12,,,38,45
15552,note_on,800,0,5,,,,,,,,,6,,,86,110
15600,note_on,48,0,7,,,,,,,,,8,,,57,0
15600,note_on,0,0,7,,,,,,,,,8,,,66,45
15600,note_on,48,0,6,,,,,,,,,7,,,74,0
15600,note_on,0,0,6,,,,,,,,,7,,,78,45
15646,note_on,94,0,8,,,,,,,,,10,,,66,0
15646,note_on,94,0,10,,,,,,,,,12,,,38,0
15646,note_on,46,0,7,,,,,,,,,8,,,66,0
15646,note_on,94,0,9,,,,,,,,,11,,,50,0
15648,note_on,0,0,6,,,,,,,,,7,,,83,45
15648,note_on,2,0,7,,,,,,,,,8,,,62,45
15648,note_on,48,0,6,,,,,,,,,7,,,78,0
15696,note_on,48,0,7,,,,,,,,,8,,,62,0
15696,note_on,48,0,6,,,,,,,,,7,,,83,0
15696,note_on,0,0,7,,,,,,,,,8,,,66,45
15696,note_on,0,0,6,,,,,,,,,7,,,81,45
15742,note_on,46,0,7,,,,,,,,,8,,,66,0
15742,note_on,46,0,6,,,,,,,,,7,,,81,0
15744,note_on,2,0,6,,,,,,,,,7,,,81,45
15744,note_on,98,0,9,,,,,,,,,11,,,62,45
15744,note_on,2,0,7,,,,,,,,,8,,,57,45
15744,note_on,98,0,8,,,,,,,,,10,,,54,45
15744,note_on,98,0,10,,,,,,,,,12,,,50,45
15792,note_on,0,0,5,,,,,,,,,6,,,85,110
15792,note_on,240,0,5,,,,,,,,,6,,,86,0
15792,note_on,0,0,7,,,,,,,,,8,,,66,45
15792,note_on,48,0,7,,,,,,,,,8,,,57,0
15838,note_on,46,0,5,,,,,,,,,6,,,85,0
15838,note_on,94,0,9,,,,,,,,,11,,,62,0
15838,note_on,94,0,10,,,,,,,,,12,,,50,0
15838,note_on,46,0,7,,,,,,,,,8,,,66,0
15838,note_on,94,0,8,,,,,,,,,10,,,54,0
15840,note_on,2,0,5,,,,,,,,,6,,,85,110
15840,note_on,2,0,7,,,,,,,,,8,,,62,45
15848,note_on,8,0,5,,,,,,,,,6,,,85,0
15848,note_on,0,0,5,,,,,,,,,6,,,83,110
15856,note_on,8,0,5,,,,,,,,,6,,,83,0
15856,note_on,0,0,5,,,,,,,,,6,,,85,110
15864,note_on,0,0,5,,,,,,,,,6,,,83,110
15864,note_on,8,0,5,,,,,,,,,6,,,85,0
15872,note_on,0,0,5,,,,,,,,,6,,,85,110
15872,note_on,8,0,5,,,,,,,,,6,,,83,0
15880,note_on,8,0,5,,,,,,,,,6,,,85,0
15880,note_on,0,0,5,,,,,,,,,6,,,83,110
15886,note_on,6,0,5,,,,,,,,,6,,,83,0
15888,note_on,2,0,5,,,,,,,,,6,,,81,110
15888,note_on,0,0,7,,,,,,,,,8,,,66,45
15888,note_on,48,0,7,,,,,,,,,8,,,62,0
15904,note_on,160,0,6,,,,,,,,,7,,,81,0
15934,note_on,46,0,5,,,,,,,,,6,,,81,0
15934,note_on,46,0,7,,,,,,,,,8,,,66,0
15936,note_on,98,0,8,,,,,,,,,10,,,50,45
15936,note_on,2,0,7,,,,,,,,,8,,,57,45
15936,note_on,2,0,5,,,,,,,,,6,,,81,110
15944,note_on,0,0,5,,,,,,,,,6,,,79,110
15944,note_on,8,0,5,,,,,,,,,6,,,81,0
15952,note_on,0,0,5,,,,,,,,,6,,,81,110
15952,note_on,8,0,5,,,,,,,,,6,,,79,0
15960,note_on,0,0,5,,,,,,,,,6,,,79,110
15960,note_on,8,0,5,,,,,,,,,6,,,81,0
15968,note_on,0,0,5,,,,,,,,,6,,,81,110
15968,note_on,8,0,5,,,,,,,,,6,,,79,0
15976,note_on,0,0,5,,,,,,,,,6,,,79,110
15976,note_on,8,0,5,,,,,,,,,6,,,81,0
15982,note_on,6,0,5,,,,,,,,,6,,,79,0
15984,note_on,0,0,7,,,,,,,,,8,,,66,45
15984,note_on,48,0,7,,,,,,,,,8,,,57,0
15984,note_on,2,0,5,,,,,,,,,6,,,78,110
16030,note_on,46,0,7,,,,,,,,,8,,,66,0
16030,note_on,46,0,5,,,,,,,,,6,,,78,0
16030,note_on,94,0,8,,,,,,,,,10,,,50,0
16032,note_on,128,0,6,,,,,,,,,7,,,69,92
16032,note_on,2,0,7,,,,,,,,,8,,,62,45
16032,note_on,2,0,5,,,,,,,,,6,,,78,110
16040,note_on,0,0,5,,,,,,,,,6,,,76,110
16040,note_on,8,0,5,,,,,,,,,6,,,78,0
16048,note_on,0,0,5,,,,,,,,,6,,,78,110
16048,note_on,8,0,5,,,,,,,,,6,,,76,0
16056,note_on,8,0,5,,,,,,,,,6,,,78,0
16056,note_on,0,0,5,,,,,,,,,6,,,76,110
16064,note_on,8,0,5,,,,,,,,,6,,,76,0
16064,note_on,0,0,5,,,,,,,,,6,,,78,110
16072,note_on,0,0,5,,,,,,,,,6,,,76,110
16072,note_on,8,0,5,,,,,,,,,6,,,78,0
16078,note_on,6,0,5,,,,,,,,,6,,,76,0
16080,note_on,0,0,7,,,,,,,,,8,,,66,45
16080,note_on,48,0,7,,,,,,,,,8,,,62,0
16080,note_on,2,0,5,,,,,,,,,6,,,74,110
16126,note_on,94,0,6,,,,,,,,,7,,,69,0
16126,note_on,46,0,7,,,,,,,,,8,,,66,0
16126,note_on,46,0,5,,,,,,,,,6,,,74,0
16128,note_on,2,0,7,,,,,,,,,8,,,57,45
16128,note_on,290,0,9,,,,,,,,,11,,,45,45
16128,note_on,2,0,6,,,,,,,,,7,,,81,92
16128,note_on,290,0,10,,,,,,,,,12,,,33,45
16128,note_on,98,0,8,,,,,,,,,10,,,57,45
16128,note_on,2,0,5,,,,,,,,,6,,,73,110
16176,note_on,48,0,6,,,,,,,,,7,,,81,0
16176,note_on,0,0,6,,,,,,,,,7,,,79,92
16176,note_on,0,0,7,,,,,,,,,8,,,64,45
16176,note_on,48,0,7,,,,,,,,,8,,,57,0
16176,note_on,48,0,5,,,,,,,,,6,,,73,0
16176,note_on,0,0,5,,,,,,,,,6,,,76,110
16222,note_on,46,0,7,,,,,,,,,8,,,64,0
16222,note_on,46,0,5,,,,,,,,,6,,,76,0
16222,note_on,46,0,6,,,,,,,,,7,,,79,0
16222,note_on,94,0,10,,,,,,,,,12,,,33,0
16222,note_on,94,0,9,,,,,,,,,11,,,45,0
16224,note_on,2,0,5,,,,,,,,,6,,,81,110
16224,note_on,2,0,7,,,,,,,,,8,,,61,45
16224,note_on,2,0,6,,,,,,,,,7,,,78,92
16248,note_on,24,0,6,,,,,,,,,7,,,78,0
16248,note_on,0,0,6,,,,,,,,,7,,,79,92
16272,note_on,24,0,6,,,,,,,,,7,,,79,0
16272,note_on,0,0,6,,,,,,,,,7,,,81,92
16272,note_on,0,0,7,,,,,,,,,8,,,64,45
16272,note_on,48,0,7,,,,,,,,,8,,,61,0
16272,note_on,48,0,5,,,,,,,,,6,,,81,0
16272,note_on,0,0,5,,,,,,,,,6,,,79,110
16288,note_on,160,0,8,,,,,,,,,10,,,57,0
16296,note_on,0,0,6,,,,,,,,,7,,,79,92
16296,note_on,24,0,6,,,,,,,,,7,,,81,0
16318,note_on,46,0,5,,,,,,,,,6,,,79,0
16318,note_on,46,0,7,,,,,,,,,8,,,64,0
16320,note_on,2,0,5,,,,,,,,,6,,,79,110
16320,note_on,98,0,9,,,,,,,,,11,,,57,45
16320,note_on,98,0,10,,,,,,,,,12,,,45,45
16320,note_on,2,0,7,,,,,,,,,8,,,57,45
16368,note_on,0,0,7,,,,,,,,,8,,,64,45
16368,note_on,48,0,7,,,,,,,,,8,,,57,0
16414,note_on,46,0,7,,,,,,,,,8,,,64,0
16414,note_on,118,0,6,,,,,,,,,7,,,79,0
16414,note_on,94,0,10,,,,,,,,,12,,,45,0
16414,note_on,94,0,9,,,,,,,,,11,,,57,0
16416,note_on,2,0,6,,,,,,,,,7,,,78,92
16416,note_on,2,0,7,,,,,,,,,8,,,61,45
16464,note_on,48,0,7,,,,,,,,,8,,,61,0
16464,note_on,0,0,7,,,,,,,,,8,,,64,45
16464,note_on,48,0,6,,,,,,,,,7,,,78,0
16464,note_on,0,0,6,,,,,,,,,7,,,76,92
16480,note_on,160,0,5,,,,,,,,,6,,,79,0
16510,note_on,46,0,7,,,,,,,,,8,,,64,0
16510,note_on,46,0,6,,,,,,,,,7,,,76,0
16512,note_on,2,0,6,,,,,,,,,7,,,74,92
16512,note_on,2,0,7,,,,,,,,,8,,,57,45
16512,note_on,98,0,9,,,,,,,,,11,,,55,45
16512,note_on,98,0,10,,,,,,,,,12,,,43,45
16560,note_on,0,0,6,,,,,,,,,7,,,73,92
16560,note_on,48,0,6,,,,,,,,,7,,,74,0
16560,note_on,48,0,7,,,,,,,,,8,,,57,0
16560,note_on,0,0,7,,,,,,,,,8,,,64,45
16606,note_on,46,0,7,,,,,,,,,8,,,64,0
16606,note_on,94,0,9,,,,,,,,,11,,,55,0
16606,note_on,94,0,10,,,,,,,,,12,,,43,0
16608,note_on,0,0,6,,,,,,,,,7,,,71,92
16608,note_on,2,0,7,,,,,,,,,8,,,61,45
16608,note_on,128,0,5,,,,,,,,,6,,,81,110
16608,note_on,48,0,6,,,,,,,,,7,,,73,0
16656,note_on,0,0,7,,,,,,,,,8,,,64,45
16656,note_on,48,0,7,,,,,,,,,8,,,61,0
16656,note_on,48,0,6,,,,,,,,,7,,,71,0
16656,note_on,0,0,6,,,,,,,,,7,,,69,92
16702,note_on,94,0,5,,,,,,,,,6,,,81,0
16702,note_on,46,0,7,,,,,,,,,8,,,64,0
16702,note_on,46,0,6,,,,,,,,,7,,,69,0
16704,note_on,98,0,9,,,,,,,,,11,,,54,45
16704,note_on,0,0,4,,,,,,,,,5,,,62,45
16704,note_on,2304,0,4,,,,,,,,,5,,,69,0
16704,note_on,2,0,6,,,,,,,,,7,,,74,45
16704,note_on,98,0,10,,,,,,,,,12,,,42,45
16704,note_on,2,0,5,,,,,,,,,6,,,86,110
16704,note_on,2,0,7,,,,,,,,,8,,,69,45
16752,note_on,0,0,6,,,,,,,,,7,,,78,45
16752,note_on,48,0,6,,,,,,,,,7,,,74,0
16800,note_on,96,0,7,,,,,,,,,8,,,69,0
16800,note_on,0,0,7,,,,,,,,,8,,,66,45
16800,note_on,48,0,6,,,,,,,,,7,,,78,0
16800,note_on,0,0,6,,,,,,,,,7,,,83,45
16848,note_on,0,0,6,,,,,,,,,7,,,81,45
16848,note_on,48,0,6,,,,,,,,,7,,,83,0
16864,note_on,160,0,4,,,,,,,,,5,,,62,0
16864,note_on,2464,0,3,,,,,,,,,5,,,69,0
16894,note_on,46,0,6,,,,,,,,,7,,,81,0
16894,note_on,94,0,7,,,,,,,,,8,,,66,0
16896,note_on,2,0,6,,,,,,,,,7,,,81,45
16896,note_on,2,0,7,,,,,,,,,8,,,62,45
16942,note_on,238,0,5,,,,,,,,,6,,,86,0
16944,note_on,2,0,5,,,,,,,,,6,,,85,110
16990,note_on,46,0,5,,,,,,,,,6,,,85,0
16990,note_on,94,0,6,,,,,,,,,7,,,81,0
16990,note_on,286,0,10,,,,,,,,,12,,,42,0
16990,note_on,94,0,7,,,,,,,,,8,,,62,0
16990,note_on,286,0,9,,,,,,,,,11,,,54,0
16992,note_on,2,0,7,,,,,,,,,8,,,66,45
16992,note_on,2,0,5,,,,,,,,,6,,,86,110
16992,note_on,2,0,6,,,,,,,,,7,,,69,45
17040,note_on,0,0,5,,,,,,,,,6,,,85,110
17040,note_on,48,0,5,,,,,,,,,6,,,86,0
17086,note_on,46,0,5,,,,,,,,,6,,,85,0
17086,note_on,94,0,7,,,,,,,,,8,,,66,0
17086,note_on,94,0,6,,,,,,,,,7,,,69,0
17088,note_on,2,0,7,,,,,,,,,8,,,66,45
17088,note_on,2,0,5,,,,,,,,,6,,,86,110
17088,note_on,2,0,6,,,,,,,,,7,,,69,45
17136,note_on,0,0,5,,,,,,,,,6,,,84,110
17136,note_on,48,0,5,,,,,,,,,6,,,86,0
17182,note_on,94,0,6,,,,,,,,,7,,,69,0
17182,note_on,94,0,7,,,,,,,,,8,,,66,0
17182,note_on,46,0,5,,,,,,,,,6,,,84,0
17184,note_on,2,0,5,,,,,,,,,6,,,83,110
17184,note_on,2,0,7,,,,,,,,,8,,,66,45
17184,note_on,2,0,6,,,,,,,,,7,,,74,45
17232,note_on,0,0,5,,,,,,,,,6,,,82,110
17232,note_on,48,0,5,,,,,,,,,6,,,83,0
17278,note_on,94,0,7,,,,,,,,,8,,,66,0
17278,note_on,46,0,5,,,,,,,,,6,,,82,0
17278,note_on,94,0,6,,,,,,,,,7,,,74,0
17280,note_on,2,0,5,,,,,,,,,6,,,82,110
17280,note_on,2,0,7,,,,,,,,,8,,,67,45
17280,note_on,2,0,6,,,,,,,,,7,,,74,45
17304,note_on,24,0,5,,,,,,,,,6,,,82,0
17304,note_on,0,0,5,,,,,,,,,6,,,83,110
17328,note_on,24,0,5,,,,,,,,,6,,,83,0
17328,note_on,0,0,5,,,,,,,,,6,,,84,110
17350,note_on,22,0,5,,,,,,,,,6,,,84,0
17352,note_on,2,0,5,,,,,,,,,6,,,83,110
17374,note_on,94,0,7,,,,,,,,,8,,,67,0
17374,note_on,94,0,6,,,,,,,,,7,,,74,0
17376,note_on,2,0,6,,,,,,,,,7,,,74,45
17376,note_on,2,0,7,,,,,,,,,8,,,67,45
17470,note_on,94,0,6,,,,,,,,,7,,,74,0
17470,note_on,118,0,5,,,,,,,,,6,,,83,0
17470,note_on,94,0,7,,,,,,,,,8,,,67,0
17472,note_on,2,0,6,,,,,,,,,7,,,76,45
17472,note_on,2,0,5,,,,,,,,,6,,,85,110
17472,note_on,2,0,7,,,,,,,,,8,,,67,45
17566,note_on,94,0,6,,,,,,,,,7,,,76,0
17566,note_on,94,0,7,,,,,,,,,8,,,67,0
17568,note_on,2,0,6,,,,,,,,,7,,,76,45
17568,note_on,2,0,7,,,,,,,,,8,,,67,45
17632,note_on,160,0,5,,,,,,,,,6,,,85,0
17662,note_on,94,0,7,,,,,,,,,8,,,67,0
17662,note_on,94,0,6,,,,,,,,,7,,,76,0
17664,note_on,2,0,7,,,,,,,,,8,,,66,45
17664,note_on,32,0,5,,,,,,,,,6,,,86,110
17664,note_on,2,0,6,,,,,,,,,7,,,69,45
17758,note_on,94,0,7,,,,,,,,,8,,,66,0
17758,note_on,94,0,6,,,,,,,,,7,,,69,0
17760,note_on,2,0,7,,,,,,,,,8,,,66,45
17760,note_on,2,0,6,,,,,,,,,7,,,69,45
17806,note_on,142,0,5,,,,,,,,,6,,,86,0
17808,note_on,2,0,5,,,,,,,,,6,,,81,110
17854,note_on,94,0,6,,,,,,,,,7,,,69,0
17854,note_on,94,0,7,,,,,,,,,8,,,66,0
17854,note_on,46,0,5,,,,,,,,,6,,,81,0
17856,note_on,2,0,5,,,,,,,,,6,,,81,110
17856,note_on,2,0,6,,,,,,,,,7,,,71,45
17856,note_on,2,0,7,,,,,,,,,8,,,64,45
17950,note_on,94,0,6,,,,,,,,,7,,,71,0
17950,note_on,94,0,7,,,,,,,,,8,,,64,0
17950,note_on,94,0,5,,,,,,,,,6,,,81,0
17952,note_on,2,0,6,,,,,,,,,7,,,71,45
17952,note_on,2,0,7,,,,,,,,,8,,,64,45
17952,note_on,2,0,5,,,,,,,,,6,,,80,110
18046,note_on,94,0,7,,,,,,,,,8,,,64,0
18046,note_on,94,0,6,,,,,,,,,7,,,71,0
18048,note_on,2,0,6,,,,,,,,,7,,,73,45
18048,note_on,2,0,7,,,,,,,,,8,,,57,45
18112,note_on,160,0,5,,,,,,,,,6,,,80,0
18142,note_on,94,0,6,,,,,,,,,7,,,73,0
18142,note_on,94,0,7,,,,,,,,,8,,,57,0
18144,note_on,2,0,6,,,,,,,,,7,,,73,45
18144,note_on,2,0,7,,,,,,,,,8,,,57,45
18144,note_on,32,0,5,,,,,,,,,6,,,79,110
18238,note_on,94,0,6,,,,,,,,,7,,,73,0
18238,note_on,94,0,7,,,,,,,,,8,,,57,0
18240,note_on,2,0,6,,,,,,,,,7,,,74,45
18240,note_on,2,0,7,,,,,,,,,8,,,59,45
18304,note_on,160,0,5,,,,,,,,,6,,,79,0
18334,note_on,94,0,7,,,,,,,,,8,,,59,0
18334,note_on,94,0,6,,,,,,,,,7,,,74,0
18336,note_on,2,0,7,,,,,,,,,8,,,59,45
18336,note_on,2,0,6,,,,,,,,,7,,,74,45
18336,note_on,32,0,5,,,,,,,,,6,,,78,110
18430,note_on,94,0,7,,,,,,,,,8,,,59,0
18430,note_on,94,0,6,,,,,,,,,7,,,74,0
18432,note_on,2,0,6,,,,,,,,,7,,,71,45
18432,note_on,2,0,7,,,,,,,,,8,,,67,45
18480,note_on,144,0,5,,,,,,,,,6,,,78,0
18480,note_on,0,0,5,,,,,,,,,6,,,76,110
18526,note_on,94,0,7,,,,,,,,,8,,,67,0
18528,note_on,0,0,5,,,,,,,,,6,,,79,110
18528,note_on,2,0,7,,,,,,,,,8,,,67,45
18528,note_on,48,0,5,,,,,,,,,6,,,76,0
18574,note_on,142,0,6,,,,,,,,,7,,,71,0
18576,note_on,48,0,5,,,,,,,,,6,,,79,0
18576,note_on,2,0,6,,,,,,,,,7,,,67,45
18576,note_on,0,0,5,,,,,,,,,6,,,76,110
18622,note_on,94,0,7,,,,,,,,,8,,,67,0
18622,note_on,46,0,6,,,,,,,,,7,,,67,0
18622,note_on,46,0,5,,,,,,,,,6,,,76,0
18624,note_on,2,0,5,,,,,,,,,6,,,74,110
18624,note_on,2,0,6,,,,,,,,,7,,,66,45
18624,note_on,2,0,7,,,,,,,,,8,,,69,45
18672,note_on,0,0,6,,,,,,,,,7,,,69,45
18672,note_on,48,0,6,,,,,,,,,7,,,66,0
18718,note_on,94,0,7,,,,,,,,,8,,,69,0
18720,note_on,2,0,7,,,,,,,,,8,,,69,45
18720,note_on,0,0,6,,,,,,,,,7,,,67,45
18720,note_on,48,0,6,,,,,,,,,7,,,69,0
18768,note_on,0,0,6,,,,,,,,,7,,,66,45
18768,note_on,48,0,6,,,,,,,,,7,,,67,0
18784,note_on,160,0,5,,,,,,,,,6,,,74,0
18814,note_on,94,0,7,,,,,,,,,8,,,69,0
18814,note_on,46,0,6,,,,,,,,,7,,,66,0
18816,note_on,2,0,7,,,,,,,,,8,,,57,45
18816,note_on,2,0,6,,,,,,,,,7,,,67,45
18816,note_on,32,0,5,,,,,,,,,6,,,78,110
18824,note_on,8,0,5,,,,,,,,,6,,,78,0
18824,note_on,0,0,5,,,,,,,,,6,,,76,110
18832,note_on,0,0,5,,,,,,,,,6,,,78,110
18832,note_on,8,0,5,,,,,,,,,6,,,76,0
18840,note_on,0,0,5,,,,,,,,,6,,,76,110
18840,note_on,8,0,5,,,,,,,,,6,,,78,0
18848,note_on,8,0,5,,,,,,,,,6,,,76,0
18848,note_on,0,0,5,,,,,,,,,6,,,78,110
18856,note_on,0,0,5,,,,,,,,,6,,,76,110
18856,note_on,8,0,5,,,,,,,,,6,,,78,0
18862,note_on,6,0,5,,,,,,,,,6,,,76,0
18864,note_on,0,0,6,,,,,,,,,7,,,69,45
18864,note_on,48,0,6,,,,,,,,,7,,,67,0
18864,note_on,2,0,5,,,,,,,,,6,,,78,110
18872,note_on,8,0,5,,,,,,,,,6,,,78,0
18872,note_on,0,0,5,,,,,,,,,6,,,76,110
18880,note_on,0,0,5,,,,,,,,,6,,,78,110
18880,note_on,8,0,5,,,,,,,,,6,,,76,0
18888,note_on,8,0,5,,,,,,,,,6,,,78,0
18888,note_on,0,0,5,,,,,,,,,6,,,76,110
18896,note_on,8,0,5,,,,,,,,,6,,,76,0
18896,note_on,0,0,5,,,,,,,,,6,,,78,110
18904,note_on,8,0,5,,,,,,,,,6,,,78,0
18904,note_on,0,0,5,,,,,,,,,6,,,76,110
18910,note_on,6,0,5,,,,,,,,,6,,,76,0
18910,note_on,94,0,7,,,,,,,,,8,,,57,0
18912,note_on,2,0,5,,,,,,,,,6,,,78,110
18912,note_on,48,0,6,,,,,,,,,7,,,69,0
18912,note_on,0,0,6,,,,,,,,,7,,,71,45
18912,note_on,2,0,7,,,,,,,,,8,,,57,45
18920,note_on,8,0,5,,,,,,,,,6,,,78,0
18920,note_on,0,0,5,,,,,,,,,6,,,76,110
18928,note_on,0,0,5,,,,,,,,,6,,,78,110
18928,note_on,8,0,5,,,,,,,,,6,,,76,0
18936,note_on,0,0,5,,,,,,,,,6,,,76,110
18936,note_on,8,0,5,,,,,,,,,6,,,78,0
18944,note_on,0,0,5,,,,,,,,,6,,,78,110
18944,note_on,8,0,5,,,,,,,,,6,,,76,0
18952,note_on,8,0,5,,,,,,,,,6,,,78,0
18952,note_on,0,0,5,,,,,,,,,6,,,76,110
18958,note_on,6,0,5,,,,,,,,,6,,,76,0
18960,note_on,2,0,5,,,,,,,,,6,,,74,110
18960,note_on,48,0,6,,,,,,,,,7,,,71,0
18960,note_on,0,0,6,,,,,,,,,7,,,73,45
18982,note_on,22,0,5,,,,,,,,,6,,,74,0
18984,note_on,2,0,5,,,,,,,,,6,,,76,110
19006,note_on,22,0,5,,,,,,,,,6,,,76,0
19006,note_on,46,0,6,,,,,,,,,7,,,73,0
19006,note_on,94,0,7,,,,,,,,,8,,,57,0
19008,note_on,2,0,7,,,,,,,,,8,,,62,45
19008,note_on,2,0,5,,,,,,,,,6,,,77,110
19008,note_on,2,0,6,,,,,,,,,7,,,73,45
19102,note_on,94,0,7,,,,,,,,,8,,,62,0
19104,note_on,96,0,6,,,,,,,,,7,,,73,0
19104,note_on,0,0,6,,,,,,,,,7,,,74,45
19104,note_on,96,0,5,,,,,,,,,6,,,77,0
19104,note_on,0,0,5,,,,,,,,,6,,,78,110
19198,note_on,94,0,6,,,,,,,,,7,,,74,0
19198,note_on,94,0,5,,,,,,,,,6,,,78,0
19200,note_on,2,0,5,,,,,,,,,6,,,78,110
19200,note_on,2,0,6,,,,,,,,,7,,,74,45
19232,note_on,32,0,6,,,,,,,,,7,,,74,0
19296,note_on,2432,0,3,,,,,,,,,5,,,62,92
19296,note_on,2306,0,10,,,,,,,,,12,,,38,92
19296,note_on,2432,0,4,,,,,,,,,5,,,62,92
19296,note_on,3008,0,8,,,,,,,,,10,,,62,92
19296,note_on,14786,0,1,,,,,,,,,1,,,86,92
19296,note_on,194,0,7,,,,,,,,,8,,,66,92
19296,note_on,64,0,6,,,,,,,,,7,,,78,92
19296,note_on,2306,0,9,,,,,,,,,11,,,50,92
19296,note_on,14786,0,2,,,,,,,,,1,,,74,92
19360,note_on,160,0,5,,,,,,,,,6,,,78,0
19390,note_on,94,0,4,,,,,,,,,5,,,62,0
19390,note_on,94,0,3,,,,,,,,,5,,,62,0
19392,note_on,0,0,8,,,,,,,,,10,,,64,92
19392,note_on,0,0,1,,,,,,,,,1,,,85,92
19392,note_on,96,0,1,,,,,,,,,1,,,86,0
19392,note_on,96,0,2,,,,,,,,,1,,,74,0
19392,note_on,0,0,2,,,,,,,,,1,,,73,92
19392,note_on,2,0,3,,,,,,,,,5,,,62,92
19392,note_on,96,0,6,,,,,,,,,7,,,78,0
19392,note_on,96,0,8,,,,,,,,,10,,,62,0
19392,note_on,96,0,10,,,,,,,,,12,,,38,0
19392,note_on,2,0,4,,,,,,,,,5,,,62,92
19392,note_on,0,0,7,,,,,,,,,8,,,67,92
19392,note_on,96,0,9,,,,,,,,,11,,,50,0
19392,note_on,0,0,9,,,,,,,,,11,,,52,92
19392,note_on,96,0,7,,,,,,,,,8,,,66,0
19392,note_on,0,0,10,,,,,,,,,12,,,40,92
19392,note_on,0,0,6,,,,,,,,,7,,,79,92
19486,note_on,94,0,4,,,,,,,,,5,,,62,0
19486,note_on,94,0,3,,,,,,,,,5,,,62,0
19488,note_on,0,0,10,,,,,,,,,12,,,42,92
19488,note_on,2,0,3,,,,,,,,,5,,,62,92
19488,note_on,0,0,8,,,,,,,,,10,,,66,92
19488,note_on,2,0,4,,,,,,,,,5,,,62,92
19488,note_on,0,0,6,,,,,,,,,7,,,81,92
19488,note_on,96,0,8,,,,,,,,,10,,,64,0
19488,note_on,96,0,10,,,,,,,,,12,,,40,0
19488,note_on,96,0,6,,,,,,,,,7,,,79,0
19488,note_on,96,0,7,,,,,,,,,8,,,67,0
19488,note_on,96,0,9,,,,,,,,,11,,,52,0
19488,note_on,0,0,1,,,,,,,,,1,,,84,92
19488,note_on,96,0,1,,,,,,,,,1,,,85,0
19488,note_on,96,0,2,,,,,,,,,1,,,73,0
19488,note_on,0,0,2,,,,,,,,,1,,,72,92
19488,note_on,0,0,9,,,,,,,,,11,,,54,92
19488,note_on,0,0,7,,,,,,,,,8,,,69,92
19582,note_on,94,0,8,,,,,,,,,10,,,66,0
19582,note_on,94,0,9,,,,,,,,,11,,,54,0
19582,note_on,94,0,7,,,,,,,,,8,,,69,0
19582,note_on,94,0,1,,,,,,,,,1,,,84,0
19582,note_on,94,0,10,,,,,,,,,12,,,42,0
19582,note_on,94,0,3,,,,,,,,,5,,,62,0
19582,note_on,94,0,2,,,,,,,,,1,,,72,0
19582,note_on,94,0,4,,,,,,,,,5,,,62,0
19582,note_on,94,0,6,,,,,,,,,7,,,81,0
19584,note_on,2,0,7,,,,,,,,,8,,,71,92
19584,note_on,224,0,5,,,,,,,,,6,,,82,110
19584,note_on,2,0,4,,,,,,,,,5,,,55,92
19584,note_on,2,0,1,,,,,,,,,1,,,83,92
19584,note_on,2,0,8,,,,,,,,,10,,,67,92
19584,note_on,2,0,9,,,,,,,,,11,,,55,92
19584,note_on,2,0,2,,,,,,,,,1,,,71,92
19584,note_on,2,0,3,,,,,,,,,5,,,62,92
19584,note_on,2,0,10,,,,,,,,,12,,,43,92
19584,note_on,2,0,6,,,,,,,,,7,,,83,92
19608,note_on,24,0,5,,,,,,,,,6,,,82,0
19608,note_on,0,0,5,,,,,,,,,6,,,83,110
19632,note_on,24,0,5,,,,,,,,,6,,,83,0
19632,note_on,0,0,5,,,,,,,,,6,,,84,110
19654,note_on,22,0,5,,,,,,,,,6,,,84,0
19656,note_on,2,0,5,,,,,,,,,6,,,83,110
19678,note_on,94,0,7,,,,,,,,,8,,,71,0
19678,note_on,94,0,6,,,,,,,,,7,,,83,0
19680,note_on,2,0,6,,,,,,,,,7,,,74,45
19680,note_on,2,0,7,,,,,,,,,8,,,67,45
19744,note_on,160,0,10,,,,,,,,,12,,,43,0
19744,note_on,160,0,4,,,,,,,,,5,,,55,0
19744,note_on,160,0,3,,,,,,,,,5,,,62,0
19744,note_on,160,0,2,,,,,,,,,1,,,71,0
19744,note_on,160,0,9,,,,,,,,,11,,,55,0
19744,note_on,160,0,1,,,,,,,,,1,,,83,0
19744,note_on,160,0,8,,,,,,,,,10,,,67,0
19774,note_on,118,0,5,,,,,,,,,6,,,83,0
19774,note_on,94,0,7,,,,,,,,,8,,,67,0
19774,note_on,94,0,6,,,,,,,,,7,,,74,0
19776,note_on,2,0,6,,,,,,,,,7,,,76,45
19776,note_on,2,0,5,,,,,,,,,6,,,85,110
19776,note_on,2,0,7,,,,,,,,,8,,,67,45
19870,note_on,94,0,6,,,,,,,,,7,,,76,0
19870,note_on,94,0,7,,,,,,,,,8,,,67,0
19872,note_on,2,0,6,,,,,,,,,7,,,76,45
19872,note_on,2,0,7,,,,,,,,,8,,,67,45
19936,note_on,160,0,5,,,,,,,,,6,,,85,0
19966,note_on,94,0,7,,,,,,,,,8,,,67,0
19966,note_on,94,0,6,,,,,,,,,7,,,76,0
19968,note_on,32,0,5,,,,,,,,,6,,,86,110
19968,note_on,2,0,7,,,,,,,,,8,,,66,45
19968,note_on,2,0,6,,,,,,,,,7,,,69,45
20016,note_on,0,0,5,,,,,,,,,6,,,85,110
20016,note_on,48,0,5,,,,,,,,,6,,,86,0
20062,note_on,94,0,7,,,,,,,,,8,,,66,0
20062,note_on,94,0,6,,,,,,,,,7,,,69,0
20064,note_on,48,0,5,,,,,,,,,6,,,85,0
20064,note_on,2,0,6,,,,,,,,,7,,,69,45
20064,note_on,2,0,7,,,,,,,,,8,,,66,45
20064,note_on,0,0,5,,,,,,,,,6,,,83,110
20112,note_on,0,0,5,,,,,,,,,6,,,81,110
20112,note_on,48,0,5,,,,,,,,,6,,,83,0
20158,note_on,94,0,6,,,,,,,,,7,,,69,0
20158,note_on,94,0,7,,,,,,,,,8,,,66,0
20158,note_on,46,0,5,,,,,,,,,6,,,81,0
20160,note_on,2,0,6,,,,,,,,,7,,,69,45
20160,note_on,2,0,7,,,,,,,,,8,,,64,45
20160,note_on,2,0,5,,,,,,,,,6,,,81,110
20254,note_on,94,0,6,,,,,,,,,7,,,69,0
20254,note_on,94,0,5,,,,,,,,,6,,,81,0
20254,note_on,94,0,7,,,,,,,,,8,,,64,0
20256,note_on,2,0,6,,,,,,,,,7,,,69,45
20256,note_on,2,0,5,,,,,,,,,6,,,80,110
20256,note_on,2,0,7,,,,,,,,,8,,,64,45
20350,note_on,94,0,6,,,,,,,,,7,,,69,0
20350,note_on,94,0,7,,,,,,,,,8,,,64,0
20352,note_on,2,0,6,,,,,,,,,7,,,69,45
20352,note_on,2,0,7,,,,,,,,,8,,,61,45
20416,note_on,160,0,5,,,,,,,,,6,,,80,0
20446,note_on,94,0,7,,,,,,,,,8,,,61,0
20446,note_on,94,0,6,,,,,,,,,7,,,69,0
20448,note_on,2,0,7,,,,,,,,,8,,,61,45
20448,note_on,2,0,6,,,,,,,,,7,,,69,45
20448,note_on,32,0,5,,,,,,,,,6,,,79,110
20542,note_on,94,0,6,,,,,,,,,7,,,69,0
20542,note_on,94,0,7,,,,,,,,,8,,,61,0
20544,note_on,2,0,7,,,,,,,,,8,,,62,45
20544,note_on,2,0,6,,,,,,,,,7,,,69,45
20608,note_on,160,0,5,,,,,,,,,6,,,79,0
20638,note_on,94,0,7,,,,,,,,,8,,,62,0
20638,note_on,94,0,6,,,,,,,,,7,,,69,0
20640,note_on,32,0,5,,,,,,,,,6,,,78,110
20640,note_on,2,0,6,,,,,,,,,7,,,69,45
20640,note_on,2,0,7,,,,,,,,,8,,,62,45
20734,note_on,94,0,6,,,,,,,,,7,,,69,0
20734,note_on,94,0,5,,,,,,,,,6,,,78,0
20734,note_on,94,0,7,,,,,,,,,8,,,62,0
20736,note_on,2,0,5,,,,,,,,,6,,,82,110
20736,note_on,992,0,10,,,,,,,,,12,,,43,45
20736,note_on,992,0,9,,,,,,,,,11,,,55,45
20832,note_on,1088,0,8,,,,,,,,,10,,,67,45
20832,note_on,96,0,5,,,,,,,,,6,,,82,0
20832,note_on,0,0,5,,,,,,,,,6,,,83,110
20832,note_on,98,0,6,,,,,,,,,7,,,71,45
20832,note_on,98,0,7,,,,,,,,,8,,,62,45
20896,note_on,160,0,9,,,,,,,,,11,,,55,0
20896,note_on,160,0,10,,,,,,,,,12,,,43,0
20926,note_on,94,0,8,,,,,,,,,10,,,67,0
20926,note_on,94,0,6,,,,,,,,,7,,,71,0
20926,note_on,94,0,7,,,,,,,,,8,,,62,0
20928,note_on,2,0,7,,,,,,,,,8,,,63,45
20928,note_on,2,0,8,,,,,,,,,10,,,67,45
20928,note_on,2,0,6,,,,,,,,,7,,,71,45
20992,note_on,160,0,5,,,,,,,,,6,,,83,0
21022,note_on,94,0,8,,,,,,,,,10,,,67,0
21022,note_on,94,0,6,,,,,,,,,7,,,71,0
21024,note_on,0,0,7,,,,,,,,,8,,,64,45
21024,note_on,2,0,8,,,,,,,,,10,,,67,45
21024,note_on,2,0,6,,,,,,,,,7,,,71,45
21024,note_on,96,0,7,,,,,,,,,8,,,63,0
21024,note_on,32,0,5,,,,,,,,,6,,,81,110
21072,note_on,48,0,5,,,,,,,,,6,,,81,0
21072,note_on,0,0,5,,,,,,,,,6,,,79,110
21118,note_on,94,0,8,,,,,,,,,10,,,67,0
21118,note_on,46,0,5,,,,,,,,,6,,,79,0
21118,note_on,94,0,6,,,,,,,,,7,,,71,0
21118,note_on,94,0,7,,,,,,,,,8,,,64,0
21120,note_on,2,0,8,,,,,,,,,10,,,67,45
21120,note_on,2,0,6,,,,,,,,,7,,,71,45
21120,note_on,2,0,5,,,,,,,,,6,,,78,110
21120,note_on,2,0,7,,,,,,,,,8,,,64,45
21152,note_on,32,0,7,,,,,,,,,8,,,64,0
21168,note_on,0,0,5,,,,,,,,,6,,,76,110
21168,note_on,48,0,5,,,,,,,,,6,,,78,0
21214,note_on,94,0,8,,,,,,,,,10,,,67,0
21214,note_on,94,0,6,,,,,,,,,7,,,71,0
21216,note_on,2,0,8,,,,,,,,,10,,,67,45
21216,note_on,0,0,5,,,,,,,,,6,,,75,110
21216,note_on,48,0,5,,,,,,,,,6,,,76,0
21216,note_on,64,0,7,,,,,,,,,8,,,64,45
21216,note_on,2,0,6,,,,,,,,,7,,,71,45
21248,note_on,32,0,7,,,,,,,,,8,,,64,0
21264,note_on,0,0,5,,,,,,,,,6,,,76,110
21264,note_on,48,0,5,,,,,,,,,6,,,75,0
21310,note_on,94,0,8,,,,,,,,,10,,,67,0
21310,note_on,46,0,5,,,,,,,,,6,,,76,0
21310,note_on,94,0,6,,,,,,,,,7,,,71,0
21312,note_on,2,0,5,,,,,,,,,6,,,78,110
21312,note_on,416,0,10,,,,,,,,,12,,,45,45
21312,note_on,416,0,9,,,,,,,,,11,,,57,45
21312,note_on,1568,0,3,,,,,,,,,5,,,69,45
21312,note_on,1568,0,4,,,,,,,,,5,,,69,45
21360,note_on,48,0,5,,,,,,,,,6,,,78,0
21360,note_on,0,0,5,,,,,,,,,6,,,74,110
21406,note_on,46,0,5,,,,,,,,,6,,,74,0
21408,note_on,98,0,6,,,,,,,,,7,,,74,45
21408,note_on,160,0,7,,,,,,,,,8,,,66,45
21408,note_on,98,0,8,,,,,,,,,10,,,69,45
21408,note_on,2,0,5,,,,,,,,,6,,,81,110
21440,note_on,32,0,5,,,,,,,,,6,,,81,0
21456,note_on,16,0,5,,,,,,,,,6,,,81,110
21472,note_on,160,0,9,,,,,,,,,11,,,57,0
21472,note_on,160,0,10,,,,,,,,,12,,,45,0
21488,note_on,32,0,5,,,,,,,,,6,,,81,0
21502,note_on,94,0,8,,,,,,,,,10,,,69,0
21502,note_on,94,0,7,,,,,,,,,8,,,66,0
21502,note_on,94,0,6,,,,,,,,,7,,,74,0
21504,note_on,2,0,8,,,,,,,,,10,,,69,45
21504,note_on,2,0,7,,,,,,,,,8,,,66,45
21504,note_on,16,0,5,,,,,,,,,6,,,81,110
21504,note_on,2,0,6,,,,,,,,,7,,,74,45
21598,note_on,94,0,6,,,,,,,,,7,,,74,0
21598,note_on,94,0,8,,,,,,,,,10,,,69,0
21598,note_on,94,0,7,,,,,,,,,8,,,66,0
21600,note_on,2,0,8,,,,,,,,,10,,,69,45
21600,note_on,2,0,7,,,,,,,,,8,,,66,45
21600,note_on,2,0,6,,,,,,,,,7,,,74,45
21694,note_on,94,0,8,,,,,,,,,10,,,69,0
21694,note_on,94,0,6,,,,,,,,,7,,,74,0
21694,note_on,94,0,7,,,,,,,,,8,,,66,0
21696,note_on,2,0,8,,,,,,,,,10,,,69,45
21696,note_on,2,0,7,,,,,,,,,8,,,66,45
21696,note_on,2,0,6,,,,,,,,,7,,,74,45
21760,note_on,256,0,5,,,,,,,,,6,,,81,0
21790,note_on,94,0,7,,,,,,,,,8,,,66,0
21790,note_on,94,0,8,,,,,,,,,10,,,69,0
21790,note_on,94,0,6,,,,,,,,,7,,,74,0
21792,note_on,2,0,6,,,,,,,,,7,,,74,45
21792,note_on,32,0,5,,,,,,,,,6,,,78,110
21792,note_on,2,0,8,,,,,,,,,10,,,69,45
21792,note_on,2,0,7,,,,,,,,,8,,,66,45
21840,note_on,0,0,5,,,,,,,,,6,,,74,110
21840,note_on,48,0,5,,,,,,,,,6,,,78,0
21886,note_on,46,0,5,,,,,,,,,6,,,74,0
21886,note_on,94,0,8,,,,,,,,,10,,,69,0
21886,note_on,94,0,6,,,,,,,,,7,,,74,0
21886,note_on,94,0,7,,,,,,,,,8,,,66,0
21888,note_on,416,0,9,,,,,,,,,11,,,45,45
21888,note_on,416,0,10,,,,,,,,,12,,,33,45
21888,note_on,2,0,5,,,,,,,,,6,,,78,110
21896,note_on,8,0,5,,,,,,,,,6,,,78,0
21896,note_on,0,0,5,,,,,,,,,6,,,76,110
21904,note_on,8,0,5,,,,,,,,,6,,,76,0
21904,note_on,0,0,5,,,,,,,,,6,,,78,110
21912,note_on,8,0,5,,,,,,,,,6,,,78,0
21912,note_on,0,0,5,,,,,,,,,6,,,76,110
21920,note_on,0,0,5,,,,,,,,,6,,,78,110
21920,note_on,8,0,5,,,,,,,,,6,,,76,0
21928,note_on,8,0,5,,,,,,,,,6,,,78,0
21928,note_on,0,0,5,,,,,,,,,6,,,76,110
21934,note_on,6,0,5,,,,,,,,,6,,,76,0
21936,note_on,2,0,5,,,,,,,,,6,,,78,110
21944,note_on,0,0,5,,,,,,,,,6,,,76,110
21944,note_on,8,0,5,,,,,,,,,6,,,78,0
21952,note_on,0,0,5,,,,,,,,,6,,,78,110
21952,note_on,8,0,5,,,,,,,,,6,,,76,0
21960,note_on,8,0,5,,,,,,,,,6,,,78,0
21960,note_on,0,0,5,,,,,,,,,6,,,76,110
21968,note_on,8,0,5,,,,,,,,,6,,,76,0
21968,note_on,0,0,5,,,,,,,,,6,,,78,110
21976,note_on,8,0,5,,,,,,,,,6,,,78,0
21976,note_on,0,0,5,,,,,,,,,6,,,76,110
21982,note_on,6,0,5,,,,,,,,,6,,,76,0
21984,note_on,98,0,7,,,,,,,,,8,,,57,45
21984,note_on,98,0,6,,,,,,,,,7,,,73,45
21984,note_on,2,0,5,,,,,,,,,6,,,78,110
21984,note_on,98,0,8,,,,,,,,,10,,,69,45
21984,note_on,0,0,7,,,,,,,,,8,,,67,45
21992,note_on,8,0,5,,,,,,,,,6,,,78,0
21992,note_on,0,0,5,,,,,,,,,6,,,76,110
22000,note_on,8,0,5,,,,,,,,,6,,,76,0
22000,note_on,0,0,5,,,,,,,,,6,,,78,110
22008,note_on,8,0,5,,,,,,,,,6,,,78,0
22008,note_on,0,0,5,,,,,,,,,6,,,76,110
22016,note_on,8,0,5,,,,,,,,,6,,,76,0
22016,note_on,0,0,5,,,,,,,,,6,,,78,110
22024,note_on,8,0,5,,,,,,,,,6,,,78,0
22024,note_on,0,0,5,,,,,,,,,6,,,76,110
22030,note_on,6,0,5,,,,,,,,,6,,,76,0
22032,note_on,2,0,5,,,,,,,,,6,,,78,110
22040,note_on,0,0,5,,,,,,,,,6,,,76,110
22040,note_on,8,0,5,,,,,,,,,6,,,78,0
22048,note_on,0,0,5,,,,,,,,,6,,,78,110
22048,note_on,8,0,5,,,,,,,,,6,,,76,0
22048,note_on,160,0,10,,,,,,,,,12,,,33,0
22048,note_on,160,0,9,,,,,,,,,11,,,45,0
22056,note_on,0,0,5,,,,,,,,,6,,,76,110
22056,note_on,8,0,5,,,,,,,,,6,,,78,0
22064,note_on,0,0,5,,,,,,,,,6,,,78,110
22064,note_on,8,0,5,,,,,,,,,6,,,76,0
22072,note_on,0,0,5,,,,,,,,,6,,,76,110
22072,note_on,8,0,5,,,,,,,,,6,,,78,0
22078,note_on,94,0,8,,,,,,,,,10,,,69,0
22078,note_on,94,0,6,,,,,,,,,7,,,73,0
22078,note_on,6,0,5,,,,,,,,,6,,,76,0
22078,note_on,0,0,7,,,,,,,,,8,,,67,0
22078,note_on,94,0,7,,,,,,,,,8,,,57,0
22080,note_on,2,0,8,,,,,,,,,10,,,69,54
22080,note_on,2,0,5,,,,,,,,,6,,,78,110
22080,note_on,0,0,7,,,,,,,,,8,,,67,54
22080,note_on,2,0,6,,,,,,,,,7,,,73,54
22080,note_on,2,0,7,,,,,,,,,8,,,57,54
22088,note_on,8,0,5,,,,,,,,,6,,,78,0
22088,note_on,0,0,5,,,,,,,,,6,,,76,110
22096,note_on,8,0,5,,,,,,,,,6,,,76,0
22096,note_on,0,0,5,,,,,,,,,6,,,78,110
22104,note_on,0,0,5,,,,,,,,,6,,,76,110
22104,note_on,8,0,5,,,,,,,,,6,,,78,0
22112,note_on,8,0,5,,,,,,,,,6,,,76,0
22112,note_on,0,0,5,,,,,,,,,6,,,78,110
22120,note_on,8,0,5,,,,,,,,,6,,,78,0
22120,note_on,0,0,5,,,,,,,,,6,,,76,110
22126,note_on,6,0,5,,,,,,,,,6,,,76,0
22128,note_on,2,0,5,,,,,,,,,6,,,78,110
22136,note_on,8,0,5,,,,,,,,,6,,,78,0
22136,note_on,0,0,5,,,,,,,,,6,,,76,110
22144,note_on,0,0,5,,,,,,,,,6,,,78,110
22144,note_on,8,0,5,,,,,,,,,6,,,76,0
22152,note_on,0,0,5,,,,,,,,,6,,,76,110
22152,note_on,8,0,5,,,,,,,,,6,,,78,0
22160,note_on,0,0,5,,,,,,,,,6,,,78,110
22160,note_on,8,0,5,,,,,,,,,6,,,76,0
22168,note_on,0,0,5,,,,,,,,,6,,,76,110
22168,note_on,8,0,5,,,,,,,,,6,,,78,0
22174,note_on,94,0,8,,,,,,,,,10,,,69,0
22174,note_on,6,0,5,,,,,,,,,6,,,76,0
22174,note_on,94,0,7,,,,,,,,,8,,,57,0
22174,note_on,0,0,7,,,,,,,,,8,,,67,0
22174,note_on,94,0,6,,,,,,,,,7,,,73,0
22176,note_on,2,0,8,,,,,,,,,10,,,69,63
22176,note_on,2,0,6,,,,,,,,,7,,,73,63
22176,note_on,2,0,7,,,,,,,,,8,,,57,63
22176,note_on,2,0,5,,,,,,,,,6,,,78,110
22176,note_on,0,0,7,,,,,,,,,8,,,67,63
22184,note_on,8,0,5,,,,,,,,,6,,,78,0
22184,note_on,0,0,5,,,,,,,,,6,,,76,110
22192,note_on,0,0,5,,,,,,,,,6,,,78,110
22192,note_on,8,0,5,,,,,,,,,6,,,76,0
22200,note_on,0,0,5,,,,,,,,,6,,,76,110
22200,note_on,8,0,5,,,,,,,,,6,,,78,0
22208,note_on,8,0,5,,,,,,,,,6,,,76,0
22208,note_on,0,0,5,,,,,,,,,6,,,78,110
22216,note_on,0,0,5,,,,,,,,,6,,,76,110
22216,note_on,8,0,5,,,,,,,,,6,,,78,0
22222,note_on,6,0,5,,,,,,,,,6,,,76,0
22224,note_on,2,0,5,,,,,,,,,6,,,78,110
22232,note_on,8,0,5,,,,,,,,,6,,,78,0
22232,note_on,0,0,5,,,,,,,,,6,,,76,110
22240,note_on,8,0,5,,,,,,,,,6,,,76,0
22240,note_on,0,0,5,,,,,,,,,6,,,78,110
22248,note_on,0,0,5,,,,,,,,,6,,,76,110
22248,note_on,8,0,5,,,,,,,,,6,,,78,0
22256,note_on,8,0,5,,,,,,,,,6,,,76,0
22256,note_on,0,0,5,,,,,,,,,6,,,78,110
22264,note_on,8,0,5,,,,,,,,,6,,,78,0
22264,note_on,0,0,5,,,,,,,,,6,,,76,110
22270,note_on,94,0,7,,,,,,,,,8,,,57,0
22270,note_on,0,0,7,,,,,,,,,8,,,67,0
22270,note_on,94,0,6,,,,,,,,,7,,,73,0
22270,note_on,94,0,8,,,,,,,,,10,,,69,0
22270,note_on,6,0,5,,,,,,,,,6,,,76,0
22272,note_on,2,0,5,,,,,,,,,6,,,78,110
22272,note_on,2,0,7,,,,,,,,,8,,,57,72
22272,note_on,0,0,7,,,,,,,,,8,,,67,72
22272,note_on,2,0,6,,,,,,,,,7,,,73,72
22272,note_on,2,0,8,,,,,,,,,10,,,69,72
22280,note_on,0,0,5,,,,,,,,,6,,,76,110
22280,note_on,8,0,5,,,,,,,,,6,,,78,0
22288,note_on,0,0,5,,,,,,,,,6,,,78,110
22288,note_on,8,0,5,,,,,,,,,6,,,76,0
22296,note_on,0,0,5,,,,,,,,,6,,,76,110
22296,note_on,8,0,5,,,,,,,,,6,,,78,0
22304,note_on,0,0,5,,,,,,,,,6,,,78,110
22304,note_on,8,0,5,,,,,,,,,6,,,76,0
22312,note_on,0,0,5,,,,,,,,,6,,,76,110
22312,note_on,8,0,5,,,,,,,,,6,,,78,0
22318,note_on,6,0,5,,,,,,,,,6,,,76,0
22320,note_on,2,0,5,,,,,,,,,6,,,78,110
22328,note_on,0,0,5,,,,,,,,,6,,,76,110
22328,note_on,8,0,5,,,,,,,,,6,,,78,0
22336,note_on,8,0,5,,,,,,,,,6,,,76,0
22336,note_on,0,0,5,,,,,,,,,6,,,78,110
22344,note_on,8,0,5,,,,,,,,,6,,,78,0
22344,note_on,0,0,5,,,,,,,,,6,,,76,110
22352,note_on,8,0,5,,,,,,,,,6,,,76,0
22352,note_on,0,0,5,,,,,,,,,6,,,78,110
22360,note_on,8,0,5,,,,,,,,,6,,,78,0
22360,note_on,0,0,5,,,,,,,,,6,,,76,110
22366,note_on,94,0,7,,,,,,,,,8,,,57,0
22366,note_on,6,0,5,,,,,,,,,6,,,76,0
22366,note_on,94,0,6,,,,,,,,,7,,,73,0
22366,note_on,94,0,8,,,,,,,,,10,,,69,0
22366,note_on,0,0,7,,,,,,,,,8,,,67,0
22368,note_on,2,0,6,,,,,,,,,7,,,73,82
22368,note_on,2,0,7,,,,,,,,,8,,,57,82
22368,note_on,0,0,7,,,,,,,,,8,,,67,82
22368,note_on,2,0,8,,,,,,,,,10,,,69,82
22368,note_on,2,0,5,,,,,,,,,6,,,78,110
22376,note_on,0,0,5,,,,,,,,,6,,,76,110
22376,note_on,8,0,5,,,,,,,,,6,,,78,0
22384,note_on,8,0,5,,,,,,,,,6,,,76,0
22384,note_on,0,0,5,,,,,,,,,6,,,78,110
22392,note_on,8,0,5,,,,,,,,,6,,,78,0
22392,note_on,0,0,5,,,,,,,,,6,,,76,110
22400,note_on,8,0,5,,,,,,,,,6,,,76,0
22400,note_on,0,0,5,,,,,,,,,6,,,78,110
22408,note_on,8,0,5,,,,,,,,,6,,,78,0
22408,note_on,0,0,5,,,,,,,,,6,,,76,110
22414,note_on,6,0,5,,,,,,,,,6,,,76,0
22416,note_on,1104,0,3,,,,,,,,,5,,,69,0
22416,note_on,2,0,5,,,,,,,,,6,,,74,110
22416,note_on,1104,0,4,,,,,,,,,5,,,69,0
22438,note_on,22,0,5,,,,,,,,,6,,,74,0
22440,note_on,2,0,5,,,,,,,,,6,,,76,110
22462,note_on,94,0,8,,,,,,,,,10,,,69,0
22462,note_on,94,0,6,,,,,,,,,7,,,73,0
22462,note_on,0,0,7,,,,,,,,,8,,,67,0
22462,note_on,94,0,7,,,,,,,,,8,,,57,0
22462,note_on,22,0,5,,,,,,,,,6,,,76,0
22464,note_on,416,0,10,,,,,,,,,12,,,38,92
22464,note_on,2,0,8,,,,,,,,,10,,,69,92
22464,note_on,48,0,4,,,,,,,,,5,,,50,92
22464,note_on,2720,0,1,,,,,,,,,1,,,74,92
22464,note_on,2,0,5,,,,,,,,,6,,,74,110
22464,note_on,2,0,7,,,,,,,,,8,,,66,92
22464,note_on,2720,0,2,,,,,,,,,1,,,74,92
22464,note_on,48,0,3,,,,,,,,,5,,,62,92
22464,note_on,2,0,6,,,,,,,,,7,,,74,92
22464,note_on,416,0,9,,,,,,,,,11,,,50,92
22512,note_on,0,0,7,,,,,,,,,8,,,69,92
22512,note_on,48,0,7,,,,,,,,,8,,,66,0
22558,note_on,46,0,7,,,,,,,,,8,,,69,0
22558,note_on,94,0,10,,,,,,,,,12,,,38,0
22558,note_on,94,0,8,,,,,,,,,10,,,69,0
22558,note_on,94,0,6,,,,,,,,,7,,,74,0
22558,note_on,94,0,9,,,,,,,,,11,,,50,0
22560,note_on,2,0,7,,,,,,,,,8,,,66,92
22560,note_on,2,0,8,,,,,,,,,10,,,69,92
22560,note_on,2,0,9,,,,,,,,,11,,,50,92
22560,note_on,2,0,10,,,,,,,,,12,,,38,92
22560,note_on,2,0,6,,,,,,,,,7,,,74,92
22592,note_on,32,0,7,,,,,,,,,8,,,66,0
22608,note_on,16,0,7,,,,,,,,,8,,,66,92
22624,note_on,160,0,5,,,,,,,,,6,,,74,0
22640,note_on,32,0,7,,,,,,,,,8,,,66,0
22654,note_on,94,0,9,,,,,,,,,11,,,50,0
22654,note_on,94,0,10,,,,,,,,,12,,,38,0
22656,note_on,2,0,9,,,,,,,,,11,,,50,92
22656,note_on,2,0,10,,,,,,,,,12,,,38,92
22656,note_on,16,0,7,,,,,,,,,8,,,66,92
22704,note_on,0,0,7,,,,,,,,,8,,,69,92
22704,note_on,48,0,7,,,,,,,,,8,,,66,0
22720,note_on,160,0,6,,,,,,,,,7,,,74,0
22720,note_on,160,0,8,,,,,,,,,10,,,69,0
22750,note_on,46,0,7,,,,,,,,,8,,,69,0
22750,note_on,94,0,10,,,,,,,,,12,,,38,0
22750,note_on,94,0,9,,,,,,,,,11,,,50,0
22752,note_on,2,0,7,,,,,,,,,8,,,66,92
22752,note_on,32,0,6,,,,,,,,,7,,,74,92
22752,note_on,2,0,10,,,,,,,,,12,,,38,92
22752,note_on,32,0,8,,,,,,,,,10,,,69,92
22752,note_on,2,0,9,,,,,,,,,11,,,50,92
22784,note_on,32,0,7,,,,,,,,,8,,,66,0
22800,note_on,16,0,7,,,,,,,,,8,,,66,92
22832,note_on,32,0,7,,,,,,,,,8,,,66,0
22846,note_on,94,0,9,,,,,,,,,11,,,50,0
22846,note_on,94,0,10,,,,,,,,,12,,,38,0
22848,note_on,2,0,10,,,,,,,,,12,,,38,92
22848,note_on,16,0,7,,,,,,,,,8,,,66,92
22848,note_on,2,0,9,,,,,,,,,11,,,50,92
22896,note_on,48,0,7,,,,,,,,,8,,,66,0
22896,note_on,0,0,7,,,,,,,,,8,,,69,92
22912,note_on,160,0,8,,,,,,,,,10,,,69,0
22912,note_on,160,0,6,,,,,,,,,7,,,74,0
22942,note_on,94,0,10,,,,,,,,,12,,,38,0
22942,note_on,46,0,7,,,,,,,,,8,,,69,0
22942,note_on,94,0,9,,,,,,,,,11,,,50,0
22944,note_on,32,0,8,,,,,,,,,10,,,74,92
22944,note_on,2,0,9,,,,,,,,,11,,,50,92
22944,note_on,32,0,6,,,,,,,,,7,,,74,92
22944,note_on,2,0,10,,,,,,,,,12,,,38,92
22944,note_on,2,0,7,,,,,,,,,8,,,66,92
22976,note_on,32,0,7,,,,,,,,,8,,,66,0
22992,note_on,16,0,7,,,,,,,,,8,,,66,92
23024,note_on,32,0,7,,,,,,,,,8,,,66,0
23038,note_on,94,0,9,,,,,,,,,11,,,50,0
23038,note_on,94,0,10,,,,,,,,,12,,,38,0
23038,note_on,94,0,6,,,,,,,,,7,,,74,0
23038,note_on,94,0,8,,,,,,,,,10,,,74,0
23040,note_on,0,0,2,,,,,,,,,1,,,73,92
23040,note_on,16,0,7,,,,,,,,,8,,,67,92
23040,note_on,2,0,6,,,,,,,,,7,,,76,92
23040,note_on,2,0,9,,,,,,,,,11,,,50,92
23040,note_on,2,0,8,,,,,,,,,10,,,73,92
23040,note_on,2,0,10,,,,,,,,,12,,,38,92
23040,note_on,576,0,2,,,,,,,,,1,,,74,0
23040,note_on,0,0,1,,,,,,,,,1,,,76,92
23040,note_on,576,0,1,,,,,,,,,1,,,74,0
23088,note_on,0,0,7,,,,,,,,,8,,,69,92
23088,note_on,48,0,7,,,,,,,,,8,,,67,0
23134,note_on,94,0,10,,,,,,,,,12,,,38,0
23134,note_on,94,0,6,,,,,,,,,7,,,76,0
23134,note_on,94,0,9,,,,,,,,,11,,,50,0
23134,note_on,46,0,7,,,,,,,,,8,,,69,0
23134,note_on,94,0,8,,,,,,,,,10,,,73,0
23136,note_on,2,0,6,,,,,,,,,7,,,76,92
23136,note_on,2,0,8,,,,,,,,,10,,,73,92
23136,note_on,2,0,9,,,,,,,,,11,,,50,92
23136,note_on,2,0,10,,,,,,,,,12,,,38,92
23136,note_on,2,0,7,,,,,,,,,8,,,67,92
23168,note_on,32,0,7,,,,,,,,,8,,,67,0
23184,note_on,16,0,7,,,,,,,,,8,,,67,92
23216,note_on,32,0,7,,,,,,,,,8,,,67,0
23230,note_on,94,0,9,,,,,,,,,11,,,50,0
23230,note_on,94,0,10,,,,,,,,,12,,,38,0
23232,note_on,2,0,9,,,,,,,,,11,,,50,92
23232,note_on,16,0,7,,,,,,,,,8,,,67,92
23232,note_on,2,0,10,,,,,,,,,12,,,38,92
23280,note_on,0,0,7,,,,,,,,,8,,,69,92
23280,note_on,48,0,7,,,,,,,,,8,,,67,0
23296,note_on,160,0,8,,,,,,,,,10,,,73,0
23296,note_on,160,0,6,,,,,,,,,7,,,76,0
23326,note_on,94,0,9,,,,,,,,,11,,,50,0
23326,note_on,46,0,7,,,,,,,,,8,,,69,0
23326,note_on,94,0,10,,,,,,,,,12,,,38,0
23328,note_on,2,0,10,,,,,,,,,12,,,38,92
23328,note_on,32,0,8,,,,,,,,,10,,,73,92
23328,note_on,2,0,9,,,,,,,,,11,,,50,92
23328,note_on,32,0,6,,,,,,,,,7,,,76,92
23328,note_on,2,0,7,,,,,,,,,8,,,67,92
23360,note_on,32,0,7,,,,,,,,,8,,,67,0
23376,note_on,16,0,7,,,,,,,,,8,,,67,92
23408,note_on,32,0,7,,,,,,,,,8,,,67,0
23422,note_on,94,0,9,,,,,,,,,11,,,50,0
23422,note_on,94,0,10,,,,,,,,,12,,,38,0
23424,note_on,2,0,9,,,,,,,,,11,,,50,92
23424,note_on,2,0,10,,,,,,,,,12,,,38,92
23424,note_on,16,0,7,,,,,,,,,8,,,67,92
23472,note_on,48,0,7,,,,,,,,,8,,,67,0
23472,note_on,0,0,7,,,,,,,,,8,,,69,92
23488,note_on,160,0,8,,,,,,,,,10,,,73,0
23488,note_on,160,0,6,,,,,,,,,7,,,76,0
23518,note_on,94,0,9,,,,,,,,,11,,,50,0
23518,note_on,94,0,10,,,,,,,,,12,,,38,0
23518,note_on,46,0,7,,,,,,,,,8,,,69,0
23520,note_on,2,0,10,,,,,,,,,12,,,38,92
23520,note_on,32,0,6,,,,,,,,,7,,,76,92
23520,note_on,2,0,9,,,,,,,,,11,,,50,92
23520,note_on,32,0,8,,,,,,,,,10,,,73,92
23520,note_on,2,0,7,,,,,,,,,8,,,67,92
23552,note_on,32,0,7,,,,,,,,,8,,,67,0
23568,note_on,16,0,7,,,,,,,,,8,,,67,92
23600,note_on,32,0,7,,,,,,,,,8,,,67,0
23614,note_on,94,0,8,,,,,,,,,10,,,73,0
23614,note_on,94,0,10,,,,,,,,,12,,,38,0
23614,note_on,94,0,6,,,,,,,,,7,,,76,0
23614,note_on,94,0,9,,,,,,,,,11,,,50,0
23616,note_on,2,0,6,,,,,,,,,7,,,78,45
23616,note_on,576,0,1,,,,,,,,,1,,,76,0
23616,note_on,0,0,1,,,,,,,,,1,,,78,92
23616,note_on,2,0,8,,,,,,,,,10,,,72,45
23616,note_on,16,0,7,,,,,,,,,8,,,69,45
23616,note_on,2,0,10,,,,,,,,,12,,,38,45
23616,note_on,0,0,2,,,,,,,,,1,,,72,92
23616,note_on,576,0,2,,,,,,,,,1,,,73,0
23616,note_on,2,0,9,,,,,,,,,11,,,50,45
23616,note_on,992,0,5,,,,,,,,,6,,,85,110
23640,note_on,24,0,5,,,,,,,,,6,,,85,0
23640,note_on,0,0,5,,,,,,,,,6,,,86,110
23664,note_on,48,0,7,,,,,,,,,8,,,69,0
23664,note_on,0,0,5,,,,,,,,,6,,,88,110
23664,note_on,24,0,5,,,,,,,,,6,,,86,0
23664,note_on,0,0,7,,,,,,,,,8,,,66,45
23686,note_on,22,0,5,,,,,,,,,6,,,88,0
23688,note_on,2,0,5,,,,,,,,,6,,,86,110
23710,note_on,94,0,2,,,,,,,,,1,,,72,0
23710,note_on,94,0,6,,,,,,,,,7,,,78,0
23710,note_on,94,0,8,,,,,,,,,10,,,72,0
23710,note_on,94,0,9,,,,,,,,,11,,,50,0
23710,note_on,94,0,10,,,,,,,,,12,,,38,0
23710,note_on,94,0,1,,,,,,,,,1,,,78,0
23710,note_on,46,0,7,,,,,,,,,8,,,66,0
23712,note_on,2,0,8,,,,,,,,,10,,,72,45
23712,note_on,2,0,6,,,,,,,,,7,,,78,45
23712,note_on,2,0,7,,,,,,,,,8,,,69,45
23712,note_on,2,0,9,,,,,,,,,11,,,50,45
23712,note_on,2,0,10,,,,,,,,,12,,,38,45
23744,note_on,32,0,7,,,,,,,,,8,,,69,0
23760,note_on,16,0,7,,,,,,,,,8,,,69,45
23792,note_on,32,0,7,,,,,,,,,8,,,69,0
23806,note_on,94,0,9,,,,,,,,,11,,,50,0
23806,note_on,94,0,10,,,,,,,,,12,,,38,0
23808,note_on,2,0,10,,,,,,,,,12,,,38,45
23808,note_on,16,0,7,,,,,,,,,8,,,69,45
23808,note_on,2,0,9,,,,,,,,,11,,,50,45
23856,note_on,48,0,7,,,,,,,,,8,,,69,0
23856,note_on,0,0,7,,,,,,,,,8,,,66,45
23872,note_on,160,0,8,,,,,,,,,10,,,72,0
23872,note_on,160,0,6,,,,,,,,,7,,,78,0
23902,note_on,94,0,10,,,,,,,,,12,,,38,0
23902,note_on,46,0,7,,,,,,,,,8,,,66,0
23902,note_on,94,0,9,,,,,,,,,11,,,50,0
23904,note_on,2,0,9,,,,,,,,,11,,,50,45
23904,note_on,2,0,7,,,,,,,,,8,,,69,45
23904,note_on,32,0,6,,,,,,,,,7,,,78,45
23904,note_on,2,0,10,,,,,,,,,12,,,38,45
23904,note_on,32,0,8,,,,,,,,,10,,,72,45
23936,note_on,32,0,7,,,,,,,,,8,,,69,0
23952,note_on,16,0,7,,,,,,,,,8,,,69,45
23984,note_on,32,0,7,,,,,,,,,8,,,69,0
23998,note_on,94,0,9,,,,,,,,,11,,,50,0
23998,note_on,94,0,10,,,,,,,,,12,,,38,0
24000,note_on,2,0,9,,,,,,,,,11,,,50,45
24000,note_on,2,0,10,,,,,,,,,12,,,38,45
24000,note_on,16,0,7,,,,,,,,,8,,,69,45
24048,note_on,48,0,7,,,,,,,,,8,,,69,0
24048,note_on,0,0,7,,,,,,,,,8,,,66,45
24064,note_on,160,0,8,,,,,,,,,10,,,72,0
24064,note_on,160,0,6,,,,,,,,,7,,,78,0
24094,note_on,94,0,10,,,,,,,,,12,,,38,0
24094,note_on,46,0,7,,,,,,,,,8,,,66,0
24094,note_on,94,0,9,,,,,,,,,11,,,50,0
24096,note_on,32,0,8,,,,,,,,,10,,,72,45
24096,note_on,2,0,10,,,,,,,,,12,,,38,45
24096,note_on,32,0,6,,,,,,,,,7,,,78,45
24096,note_on,2,0,7,,,,,,,,,8,,,69,45
24096,note_on,2,0,9,,,,,,,,,11,,,50,45
24128,note_on,32,0,7,,,,,,,,,8,,,69,0
24144,note_on,16,0,7,,,,,,,,,8,,,69,45
24176,note_on,32,0,7,,,,,,,,,8,,,69,0
24190,note_on,94,0,10,,,,,,,,,12,,,38,0
24190,note_on,94,0,6,,,,,,,,,7,,,78,0
24190,note_on,94,0,9,,,,,,,,,11,,,50,0
24190,note_on,94,0,8,,,,,,,,,10,,,72,0
24192,note_on,2,0,6,,,,,,,,,7,,,79,45
24192,note_on,2,0,10,,,,,,,,,12,,,38,45
24192,note_on,2,0,8,,,,,,,,,10,,,71,45
24192,note_on,16,0,7,,,,,,,,,8,,,67,45
24192,note_on,2,0,9,,,,,,,,,11,,,50,45
24240,note_on,48,0,7,,,,,,,,,8,,,67,0
24240,note_on,0,0,7,,,,,,,,,8,,,62,45
24286,note_on,94,0,10,,,,,,,,,12,,,38,0
24286,note_on,94,0,8,,,,,,,,,10,,,71,0
24286,note_on,46,0,7,,,,,,,,,8,,,62,0
24286,note_on,94,0,9,,,,,,,,,11,,,50,0
24286,note_on,94,0,6,,,,,,,,,7,,,79,0
24288,note_on,2,0,7,,,,,,,,,8,,,67,45
24288,note_on,2,0,9,,,,,,,,,11,,,50,45
24288,note_on,2,0,10,,,,,,,,,12,,,38,45
24288,note_on,2,0,8,,,,,,,,,10,,,71,45
24288,note_on,2,0,6,,,,,,,,,7,,,79,45
24320,note_on,32,0,7,,,,,,,,,8,,,67,0
24336,note_on,16,0,7,,,,,,,,,8,,,67,45
24368,note_on,32,0,7,,,,,,,,,8,,,67,0
24382,note_on,94,0,10,,,,,,,,,12,,,38,0
24382,note_on,94,0,9,,,,,,,,,11,,,50,0
24384,note_on,2,0,9,,,,,,,,,11,,,50,45
24384,note_on,16,0,7,,,,,,,,,8,,,67,45
24384,note_on,2,0,10,,,,,,,,,12,,,38,45
24432,note_on,0,0,7,,,,,,,,,8,,,62,45
24432,note_on,48,0,7,,,,,,,,,8,,,67,0
24448,note_on,160,0,8,,,,,,,,,10,,,71,0
24448,note_on,160,0,6,,,,,,,,,7,,,79,0
24478,note_on,94,0,10,,,,,,,,,12,,,38,0
24478,note_on,94,0,9,,,,,,,,,11,,,50,0
24478,note_on,46,0,7,,,,,,,,,8,,,62,0
24480,note_on,2,0,10,,,,,,,,,12,,,38,45
24480,note_on,32,0,8,,,,,,,,,10,,,71,45
24480,note_on,2,0,9,,,,,,,,,11,,,50,45
24480,note_on,32,0,6,,,,,,,,,7,,,79,45
24480,note_on,2,0,7,,,,,,,,,8,,,67,45
24512,note_on,32,0,7,,,,,,,,,8,,,67,0
24528,note_on,16,0,7,,,,,,,,,8,,,67,45
24560,note_on,32,0,7,,,,,,,,,8,,,67,0
24574,note_on,94,0,10,,,,,,,,,12,,,38,0
24574,note_on,94,0,9,,,,,,,,,11,,,50,0
24576,note_on,2,0,10,,,,,,,,,12,,,38,45
24576,note_on,16,0,7,,,,,,,,,8,,,67,45
24576,note_on,2,0,9,,,,,,,,,11,,,50,45
24624,note_on,0,0,7,,,,,,,,,8,,,62,45
24624,note_on,48,0,7,,,,,,,,,8,,,67,0
24640,note_on,160,0,8,,,,,,,,,10,,,71,0
24640,note_on,160,0,6,,,,,,,,,7,,,79,0
24670,note_on,46,0,7,,,,,,,,,8,,,62,0
24670,note_on,94,0,9,,,,,,,,,11,,,50,0
24670,note_on,94,0,10,,,,,,,,,12,,,38,0
24672,note_on,2,0,9,,,,,,,,,11,,,50,45
24672,note_on,2,0,10,,,,,,,,,12,,,38,45
24672,note_on,32,0,8,,,,,,,,,10,,,71,45
24672,note_on,2,0,7,,,,,,,,,8,,,67,45
24672,note_on,32,0,6,,,,,,,,,7,,,79,45
24704,note_on,32,0,7,,,,,,,,,8,,,67,0
24720,note_on,2256,0,4,,,,,,,,,5,,,50,0
24720,note_on,16,0,7,,,,,,,,,8,,,67,45
24720,note_on,2256,0,3,,,,,,,,,5,,,62,0
24752,note_on,32,0,7,,,,,,,,,8,,,67,0
24766,note_on,94,0,10,,,,,,,,,12,,,38,0
24766,note_on,94,0,9,,,,,,,,,11,,,50,0
24766,note_on,94,0,8,,,,,,,,,10,,,71,0
24768,note_on,48,0,4,,,,,,,,,5,,,55,45
24768,note_on,2,0,9,,,,,,,,,11,,,51,45
24768,note_on,2,0,10,,,,,,,,,12,,,39,45
24768,note_on,16,0,7,,,,,,,,,8,,,67,45
24768,note_on,48,0,3,,,,,,,,,5,,,67,45
24768,note_on,2,0,8,,,,,,,,,10,,,70,45
24862,note_on,94,0,8,,,,,,,,,10,,,70,0
24862,note_on,190,0,6,,,,,,,,,7,,,79,0
24862,note_on,94,0,7,,,,,,,,,8,,,67,0
24862,note_on,1174,0,5,,,,,,,,,6,,,86,0
24864,note_on,2,0,6,,,,,,,,,7,,,79,45
24864,note_on,2,0,5,,,,,,,,,6,,,85,110
24864,note_on,2,0,7,,,,,,,,,8,,,67,45
24864,note_on,2,0,8,,,,,,,,,10,,,63,45
24928,note_on,160,0,10,,,,,,,,,12,,,39,0
24928,note_on,160,0,4,,,,,,,,,5,,,55,0
24928,note_on,160,0,9,,,,,,,,,11,,,51,0
24928,note_on,160,0,3,,,,,,,,,5,,,67,0
24958,note_on,94,0,8,,,,,,,,,10,,,63,0
24960,note_on,2,0,8,,,,,,,,,10,,,63,45
25024,note_on,160,0,5,,,,,,,,,6,,,85,0
25024,note_on,160,0,6,,,,,,,,,7,,,79,0
25024,note_on,160,0,7,,,,,,,,,8,,,67,0
25054,note_on,94,0,8,,,,,,,,,10,,,63,0
25056,note_on,2,0,8,,,,,,,,,10,,,63,45
25056,note_on,32,0,7,,,,,,,,,8,,,67,45
25056,note_on,32,0,6,,,,,,,,,7,,,73,45
25056,note_on,32,0,5,,,,,,,,,6,,,82,110
25150,note_on,94,0,8,,,,,,,,,10,,,63,0
25150,note_on,94,0,5,,,,,,,,,6,,,82,0
25152,note_on,96,0,7,,,,,,,,,8,,,67,0
25152,note_on,2,0,8,,,,,,,,,10,,,63,45
25152,note_on,2,0,5,,,,,,,,,6,,,81,110
25152,note_on,0,0,7,,,,,,,,,8,,,69,45
25216,note_on,160,0,6,,,,,,,,,7,,,73,0
25246,note_on,94,0,8,,,,,,,,,10,,,63,0
25246,note_on,94,0,5,,,,,,,,,6,,,81,0
25248,note_on,0,0,7,,,,,,,,,8,,,70,45
25248,note_on,2,0,5,,,,,,,,,6,,,79,110
25248,note_on,96,0,7,,,,,,,,,8,,,69,0
25248,note_on,2,0,8,,,,,,,,,10,,,63,45
25248,note_on,32,0,6,,,,,,,,,7,,,73,45
25342,note_on,94,0,5,,,,,,,,,6,,,79,0
25342,note_on,94,0,7,,,,,,,,,8,,,70,0
25342,note_on,94,0,8,,,,,,,,,10,,,63,0
25344,note_on,416,0,3,,,,,,,,,5,,,62,45
25344,note_on,2,0,8,,,,,,,,,10,,,62,45
25344,note_on,2,0,5,,,,,,,,,6,,,79,110
25344,note_on,416,0,9,,,,,,,,,11,,,50,45
25344,note_on,416,0,4,,,,,,,,,5,,,50,45
25344,note_on,2,0,7,,,,,,,,,8,,,70,45
25344,note_on,416,0,10,,,,,,,,,12,,,38,45
25392,note_on,0,0,5,,,,,,,,,6,,,78,110
25392,note_on,0,0,7,,,,,,,,,8,,,69,45
25392,note_on,48,0,7,,,,,,,,,8,,,70,0
25392,note_on,0,0,6,,,,,,,,,7,,,74,45
25392,note_on,144,0,6,,,,,,,,,7,,,73,0
25392,note_on,48,0,5,,,,,,,,,6,,,79,0
25438,note_on,94,0,8,,,,,,,,,10,,,62,0
25440,note_on,2,0,8,,,,,,,,,10,,,62,45
25440,note_on,48,0,7,,,,,,,,,8,,,69,0
25440,note_on,0,0,6,,,,,,,,,7,,,73,45
25440,note_on,0,0,5,,,,,,,,,6,,,82,110
25440,note_on,0,0,7,,,,,,,,,8,,,67,45
25440,note_on,48,0,6,,,,,,,,,7,,,74,0
25440,note_on,48,0,5,,,,,,,,,6,,,78,0
25488,note_on,48,0,5,,,,,,,,,6,,,82,0
25488,note_on,0,0,5,,,,,,,,,6,,,81,110
25488,note_on,48,0,7,,,,,,,,,8,,,67,0
25488,note_on,48,0,6,,,,,,,,,7,,,73,0
25488,note_on,0,0,6,,,,,,,,,7,,,74,45
25488,note_on,0,0,7,,,,,,,,,8,,,66,45
25504,note_on,160,0,9,,,,,,,,,11,,,50,0
25504,note_on,160,0,4,,,,,,,,,5,,,50,0
25504,note_on,160,0,10,,,,,,,,,12,,,38,0
25504,note_on,160,0,3,,,,,,,,,5,,,62,0
25534,note_on,46,0,6,,,,,,,,,7,,,74,0
25534,note_on,46,0,5,,,,,,,,,6,,,81,0
25534,note_on,94,0,8,,,,,,,,,10,,,62,0
25534,note_on,46,0,7,,,,,,,,,8,,,66,0
25536,note_on,2,0,7,,,,,,,,,8,,,66,45
25536,note_on,2,0,6,,,,,,,,,7,,,74,45
25536,note_on,2,0,5,,,,,,,,,6,,,81,110
25536,note_on,2,0,8,,,,,,,,,10,,,62,45
25630,note_on,94,0,8,,,,,,,,,10,,,62,0
25630,note_on,94,0,7,,,,,,,,,8,,,66,0
25630,note_on,94,0,6,,,,,,,,,7,,,74,0
25632,note_on,2,0,7,,,,,,,,,8,,,66,45
25632,note_on,2,0,8,,,,,,,,,10,,,62,45
25632,note_on,2,0,6,,,,,,,,,7,,,69,45
25726,note_on,94,0,7,,,,,,,,,8,,,66,0
25726,note_on,94,0,6,,,,,,,,,7,,,69,0
25726,note_on,94,0,8,,,,,,,,,10,,,62,0
25728,note_on,2,0,7,,,,,,,,,8,,,66,45
25728,note_on,2,0,6,,,,,,,,,7,,,69,45
25728,note_on,2,0,8,,,,,,,,,10,,,62,45
25792,note_on,256,0,5,,,,,,,,,6,,,81,0
25822,note_on,94,0,8,,,,,,,,,10,,,62,0
25822,note_on,94,0,7,,,,,,,,,8,,,66,0
25822,note_on,94,0,6,,,,,,,,,7,,,69,0
25824,note_on,2,0,7,,,,,,,,,8,,,66,45
25824,note_on,32,0,5,,,,,,,,,6,,,79,110
25824,note_on,2,0,6,,,,,,,,,7,,,69,45
25824,note_on,2,0,8,,,,,,,,,10,,,62,45
25848,note_on,0,0,5,,,,,,,,,6,,,78,110
25848,note_on,24,0,5,,,,,,,,,6,,,79,0
25872,note_on,24,0,5,,,,,,,,,6,,,78,0
25872,note_on,0,0,5,,,,,,,,,6,,,76,110
25896,note_on,24,0,5,,,,,,,,,6,,,76,0
25896,note_on,0,0,5,,,,,,,,,6,,,74,110
25918,note_on,94,0,8,,,,,,,,,10,,,62,0
25918,note_on,22,0,5,,,,,,,,,6,,,74,0
25918,note_on,94,0,7,,,,,,,,,8,,,66,0
25918,note_on,94,0,6,,,,,,,,,7,,,69,0
25920,note_on,2,0,7,,,,,,,,,8,,,67,45
25920,note_on,416,0,9,,,,,,,,,11,,,51,45
25920,note_on,2,0,6,,,,,,,,,7,,,67,45
25920,note_on,416,0,10,,,,,,,,,12,,,39,45
25920,note_on,2,0,8,,,,,,,,,10,,,55,45
25920,note_on,2,0,5,,,,,,,,,6,,,73,110
26014,note_on,94,0,5,,,,,,,,,6,,,73,0
26016,note_on,2,0,5,,,,,,,,,6,,,70,110
26080,note_on,160,0,6,,,,,,,,,7,,,67,0
26112,note_on,32,0,6,,,,,,,,,7,,,61,45
26176,note_on,160,0,5,,,,,,,,,6,,,70,0
26208,note_on,32,0,5,,,,,,,,,6,,,69,110
26272,note_on,160,0,6,,,,,,,,,7,,,61,0
26304,note_on,32,0,6,,,,,,,,,7,,,73,45
26368,note_on,160,0,5,,,,,,,,,6,,,69,0
26400,note_on,32,0,5,,,,,,,,,6,,,67,110
26448,note_on,528,0,9,,,,,,,,,11,,,51,0
26448,note_on,528,0,10,,,,,,,,,12,,,39,0
26448,note_on,528,0,7,,,,,,,,,8,,,67,0
26448,note_on,528,0,8,,,,,,,,,10,,,55,0
26464,note_on,160,0,6,,,,,,,,,7,,,73,0
26494,note_on,94,0,5,,,,,,,,,6,,,67,0
26496,note_on,48,0,8,,,,,,,,,10,,,57,45
26496,note_on,992,0,3,,,,,,,,,5,,,62,45
26496,note_on,992,0,4,,,,,,,,,5,,,50,45
26496,note_on,2786,0,1,,,,,,,,,1,,,78,45
26496,note_on,48,0,7,,,,,,,,,8,,,66,45
26496,note_on,2,0,5,,,,,,,,,6,,,66,110
26496,note_on,2786,0,2,,,,,,,,,1,,,74,45
26496,note_on,48,0,9,,,,,,,,,11,,,50,45
26496,note_on,32,0,6,,,,,,,,,7,,,74,45
26496,note_on,48,0,10,,,,,,,,,12,,,38,45
26528,note_on,32,0,7,,,,,,,,,8,,,66,0
26528,note_on,32,0,6,,,,,,,,,7,,,74,0
26544,note_on,16,0,6,,,,,,,,,7,,,66,45
26544,note_on,16,0,7,,,,,,,,,8,,,62,45
26590,note_on,94,0,9,,,,,,,,,11,,,50,0
26590,note_on,94,0,10,,,,,,,,,12,,,38,0
26592,note_on,48,0,7,,,,,,,,,8,,,62,0
26592,note_on,48,0,6,,,,,,,,,7,,,66,0
26592,note_on,0,0,6,,,,,,,,,7,,,65,45
26592,note_on,0,0,7,,,,,,,,,8,,,61,45
26640,note_on,48,0,7,,,,,,,,,8,,,61,0
26640,note_on,0,0,7,,,,,,,,,8,,,62,45
26640,note_on,0,0,6,,,,,,,,,7,,,66,45
26640,note_on,48,0,6,,,,,,,,,7,,,65,0
26640,note_on,144,0,5,,,,,,,,,6,,,66,0
26640,note_on,0,0,5,,,,,,,,,6,,,74,110
26656,note_on,160,0,8,,,,,,,,,10,,,57,0
26686,note_on,46,0,5,,,,,,,,,6,,,74,0
26686,note_on,46,0,6,,,,,,,,,7,,,66,0
26686,note_on,46,0,7,,,,,,,,,8,,,62,0
26688,note_on,32,0,8,,,,,,,,,10,,,50,45
26688,note_on,98,0,10,,,,,,,,,12,,,38,45
26688,note_on,98,0,9,,,,,,,,,11,,,50,45
26688,note_on,2,0,5,,,,,,,,,6,,,74,110
26736,note_on,50,0,6,,,,,,,,,7,,,66,45
26736,note_on,50,0,7,,,,,,,,,8,,,62,45
26768,note_on,32,0,6,,,,,,,,,7,,,66,0
26768,note_on,32,0,7,,,,,,,,,8,,,62,0
26782,note_on,94,0,10,,,,,,,,,12,,,38,0
26782,note_on,94,0,9,,,,,,,,,11,,,50,0
26784,note_on,16,0,6,,,,,,,,,7,,,66,45
26784,note_on,16,0,7,,,,,,,,,8,,,62,45
26832,note_on,0,0,7,,,,,,,,,8,,,66,45
26832,note_on,48,0,6,,,,,,,,,7,,,66,0
26832,note_on,48,0,7,,,,,,,,,8,,,62,0
26832,note_on,0,0,6,,,,,,,,,7,,,69,45
26878,note_on,46,0,7,,,,,,,,,8,,,66,0
26878,note_on,46,0,6,,,,,,,,,7,,,69,0
26880,note_on,0,0,1,,,,,,,,,1,,,79,45
26880,note_on,0,0,2,,,,,,,,,1,,,76,45
26880,note_on,384,0,1,,,,,,,,,1,,,78,0
26880,note_on,98,0,9,,,,,,,,,11,,,50,45
26880,note_on,384,0,2,,,,,,,,,1,,,74,0
26880,note_on,98,0,10,,,,,,,,,12,,,38,45
26928,note_on,50,0,6,,,,,,,,,7,,,67,45
26928,note_on,50,0,7,,,,,,,,,8,,,64,45
26960,note_on,32,0,6,,,,,,,,,7,,,67,0
26960,note_on,32,0,7,,,,,,,,,8,,,64,0
26974,note_on,94,0,10,,,,,,,,,12,,,38,0
26974,note_on,94,0,9,,,,,,,,,11,,,50,0
26976,note_on,16,0,7,,,,,,,,,8,,,64,45
26976,note_on,16,0,6,,,,,,,,,7,,,67,45
27024,note_on,48,0,7,,,,,,,,,8,,,64,0
27024,note_on,0,0,6,,,,,,,,,7,,,71,45
27024,note_on,48,0,6,,,,,,,,,7,,,67,0
27024,note_on,0,0,7,,,,,,,,,8,,,67,45
27040,note_on,160,0,2,,,,,,,,,1,,,76,0
27040,note_on,160,0,1,,,,,,,,,1,,,79,0
27070,note_on,46,0,7,,,,,,,,,8,,,67,0
27070,note_on,46,0,6,,,,,,,,,7,,,71,0
27072,note_on,98,0,9,,,,,,,,,11,,,50,45
27072,note_on,32,0,2,,,,,,,,,1,,,78,45
27072,note_on,98,0,10,,,,,,,,,12,,,38,45
27072,note_on,32,0,1,,,,,,,,,1,,,81,45
27120,note_on,50,0,7,,,,,,,,,8,,,66,45
27120,note_on,50,0,6,,,,,,,,,7,,,69,45
27166,note_on,94,0,9,,,,,,,,,11,,,50,0
27166,note_on,94,0,10,,,,,,,,,12,,,38,0
27168,note_on,0,0,7,,,,,,,,,8,,,65,45
27168,note_on,48,0,7,,,,,,,,,8,,,66,0
27168,note_on,0,0,6,,,,,,,,,7,,,68,45
27168,note_on,48,0,6,,,,,,,,,7,,,69,0
27214,note_on,526,0,5,,,,,,,,,6,,,74,0
27216,note_on,0,0,6,,,,,,,,,7,,,69,45
27216,note_on,2,0,5,,,,,,,,,6,,,86,110
27216,note_on,0,0,7,,,,,,,,,8,,,66,45
27216,note_on,48,0,7,,,,,,,,,8,,,65,0
27216,note_on,48,0,6,,,,,,,,,7,,,68,0
27232,note_on,544,0,8,,,,,,,,,10,,,50,0
27262,note_on,46,0,5,,,,,,,,,6,,,86,0
27262,note_on,46,0,7,,,,,,,,,8,,,66,0
27262,note_on,46,0,6,,,,,,,,,7,,,69,0
27264,note_on,2,0,5,,,,,,,,,6,,,86,110
27264,note_on,98,0,9,,,,,,,,,11,,,50,45
27264,note_on,32,0,8,,,,,,,,,10,,,50,45
27264,note_on,98,0,10,,,,,,,,,12,,,38,45
27312,note_on,50,0,6,,,,,,,,,7,,,69,45
27312,note_on,50,0,7,,,,,,,,,8,,,66,45
27344,note_on,32,0,7,,,,,,,,,8,,,66,0
27344,note_on,32,0,6,,,,,,,,,7,,,69,0
27358,note_on,94,0,9,,,,,,,,,11,,,50,0
27358,note_on,94,0,10,,,,,,,,,12,,,38,0
27360,note_on,16,0,7,,,,,,,,,8,,,66,45
27360,note_on,16,0,6,,,,,,,,,7,,,69,45
27408,note_on,48,0,7,,,,,,,,,8,,,66,0
27408,note_on,0,0,7,,,,,,,,,8,,,69,45
27408,note_on,0,0,6,,,,,,,,,7,,,72,45
27408,note_on,48,0,6,,,,,,,,,7,,,69,0
27454,note_on,46,0,6,,,,,,,,,7,,,72,0
27454,note_on,46,0,7,,,,,,,,,8,,,69,0
27456,note_on,98,0,10,,,,,,,,,12,,,38,45
27456,note_on,0,0,1,,,,,,,,,1,,,83,45
27456,note_on,384,0,1,,,,,,,,,1,,,81,0
27456,note_on,98,0,9,,,,,,,,,11,,,50,45
27456,note_on,0,0,2,,,,,,,,,1,,,79,45
27456,note_on,384,0,2,,,,,,,,,1,,,78,0
27504,note_on,50,0,7,,,,,,,,,8,,,67,45
27504,note_on,50,0,6,,,,,,,,,7,,,71,45
27536,note_on,32,0,7,,,,,,,,,8,,,67,0
27536,note_on,32,0,6,,,,,,,,,7,,,71,0
27550,note_on,94,0,9,,,,,,,,,11,,,50,0
27550,note_on,94,0,10,,,,,,,,,12,,,38,0
27552,note_on,16,0,6,,,,,,,,,7,,,71,45
27552,note_on,16,0,7,,,,,,,,,8,,,67,45
27600,note_on,0,0,7,,,,,,,,,8,,,71,45
27600,note_on,48,0,7,,,,,,,,,8,,,67,0
27600,note_on,48,0,6,,,,,,,,,7,,,71,0
27600,note_on,0,0,6,,,,,,,,,7,,,74,45
27616,note_on,160,0,2,,,,,,,,,1,,,79,0
27616,note_on,160,0,1,,,,,,,,,1,,,83,0
27646,note_on,46,0,7,,,,,,,,,8,,,71,0
27646,note_on,46,0,6,,,,,,,,,7,,,74,0
27648,note_on,2,0,6,,,,,,,,,7,,,72,45
27648,note_on,2,0,7,,,,,,,,,8,,,69,45
27648,note_on,98,0,9,,,,,,,,,11,,,50,45
27648,note_on,98,0,10,,,,,,,,,12,,,38,45
27648,note_on,32,0,2,,,,,,,,,1,,,81,45
27648,note_on,32,0,1,,,,,,,,,1,,,84,45
27742,note_on,94,0,10,,,,,,,,,12,,,38,0
27742,note_on,1246,0,3,,,,,,,,,5,,,62,0
27742,note_on,478,0,8,,,,,,,,,10,,,50,0
27742,note_on,94,0,9,,,,,,,,,11,,,50,0
27742,note_on,94,0,7,,,,,,,,,8,,,69,0
27742,note_on,1246,0,4,,,,,,,,,5,,,50,0
27742,note_on,94,0,1,,,,,,,,,1,,,84,0
27742,note_on,94,0,2,,,,,,,,,1,,,81,0
27742,note_on,94,0,6,,,,,,,,,7,,,72,0
27840,note_on,98,0,6,,,,,,,,,7,,,69,45
27840,note_on,98,0,7,,,,,,,,,8,,,66,45
27840,note_on,98,0,9,,,,,,,,,11,,,50,45
27840,note_on,98,0,10,,,,,,,,,12,,,38,45
27840,note_on,98,0,8,,,,,,,,,10,,,50,45
27888,note_on,624,0,5,,,,,,,,,6,,,86,0
27888,note_on,0,0,5,,,,,,,,,6,,,84,110
27934,note_on,94,0,6,,,,,,,,,7,,,69,0
27934,note_on,94,0,9,,,,,,,,,11,,,50,0
27934,note_on,94,0,8,,,,,,,,,10,,,50,0
27934,note_on,94,0,7,,,,,,,,,8,,,66,0
27934,note_on,94,0,10,,,,,,,,,12,,,38,0
27936,note_on,0,0,5,,,,,,,,,6,,,81,110
27936,note_on,48,0,5,,,,,,,,,6,,,84,0
27984,note_on,48,0,5,,,,,,,,,6,,,81,0
27984,note_on,0,0,5,,,,,,,,,6,,,78,110
28030,note_on,46,0,5,,,,,,,,,6,,,78,0
28032,note_on,98,0,10,,,,,,,,,12,,,38,45
28032,note_on,98,0,6,,,,,,,,,7,,,66,45
28032,note_on,2,0,5,,,,,,,,,6,,,86,110
28032,note_on,98,0,8,,,,,,,,,10,,,50,45
28032,note_on,98,0,7,,,,,,,,,8,,,60,45
28032,note_on,98,0,9,,,,,,,,,11,,,50,45
28080,note_on,0,0,5,,,,,,,,,6,,,84,110
28080,note_on,48,0,5,,,,,,,,,6,,,86,0
28126,note_on,94,0,9,,,,,,,,,11,,,50,0
28126,note_on,94,0,7,,,,,,,,,8,,,60,0
28126,note_on,94,0,8,,,,,,,,,10,,,50,0
28126,note_on,94,0,10,,,,,,,,,12,,,38,0
28126,note_on,94,0,6,,,,,,,,,7,,,66,0
28128,note_on,0,0,5,,,,,,,,,6,,,81,110
28128,note_on,48,0,5,,,,,,,,,6,,,84,0
28176,note_on,48,0,5,,,,,,,,,6,,,81,0
28176,note_on,0,0,5,,,,,,,,,6,,,78,110
28222,note_on,46,0,5,,,,,,,,,6,,,78,0
28224,note_on,98,0,9,,,,,,,,,11,,,55,92
28224,note_on,98,0,6,,,,,,,,,7,,,67,92
28224,note_on,98,0,8,,,,,,,,,10,,,67,92
28224,note_on,2,0,5,,,,,,,,,6,,,79,110
28224,note_on,0,0,7,,,,,,,,,8,,,67,92
28224,note_on,98,0,10,,,,,,,,,12,,,43,92
28224,note_on,98,0,7,,,,,,,,,8,,,59,92
28318,note_on,94,0,9,,,,,,,,,11,,,55,0
28318,note_on,94,0,10,,,,,,,,,12,,,43,0
28320,note_on,2,0,9,,,,,,,,,11,,,55,92
28320,note_on,2,0,10,,,,,,,,,12,,,43,92
28384,note_on,0,0,7,,,,,,,,,8,,,67,0
28384,note_on,160,0,7,,,,,,,,,8,,,59,0
28384,note_on,160,0,8,,,,,,,,,10,,,67,0
28384,note_on,160,0,5,,,,,,,,,6,,,79,0
28384,note_on,160,0,6,,,,,,,,,7,,,67,0
28414,note_on,94,0,9,,,,,,,,,11,,,55,0
28414,note_on,94,0,10,,,,,,,,,12,,,43,0
28416,note_on,2,0,10,,,,,,,,,12,,,38,92
28416,note_on,32,0,7,,,,,,,,,8,,,62,92
28416,note_on,32,0,8,,,,,,,,,10,,,62,92
28416,note_on,2,0,9,,,,,,,,,11,,,50,92
28416,note_on,32,0,6,,,,,,,,,7,,,62,92
28510,note_on,94,0,9,,,,,,,,,11,,,50,0
28510,note_on,94,0,10,,,,,,,,,12,,,38,0
28512,note_on,2,0,9,,,,,,,,,11,,,50,92
28512,note_on,2,0,10,,,,,,,,,12,,,38,92
28576,note_on,160,0,7,,,,,,,,,8,,,62,0
28576,note_on,160,0,6,,,,,,,,,7,,,62,0
28576,note_on,160,0,8,,,,,,,,,10,,,62,0
28606,note_on,94,0,9,,,,,,,,,11,,,50,0
28606,note_on,94,0,10,,,,,,,,,12,,,38,0
28608,note_on,32,0,8,,,,,,,,,10,,,59,92
28608,note_on,32,0,6,,,,,,,,,7,,,59,92
28608,note_on,2,0,10,,,,,,,,,12,,,35,92
28608,note_on,32,0,7,,,,,,,,,8,,,59,92
28608,note_on,2,0,9,,,,,,,,,11,,,47,92
28702,note_on,94,0,9,,,,,,,,,11,,,47,0
28702,note_on,94,0,10,,,,,,,,,12,,,35,0
28704,note_on,2,0,9,,,,,,,,,11,,,47,92
28704,note_on,2,0,10,,,,,,,,,12,,,35,92
28768,note_on,160,0,6,,,,,,,,,7,,,59,0
28768,note_on,160,0,7,,,,,,,,,8,,,59,0
28768,note_on,160,0,8,,,,,,,,,10,,,59,0
28798,note_on,94,0,10,,,,,,,,,12,,,35,0
28798,note_on,94,0,9,,,,,,,,,11,,,47,0
28800,note_on,2,0,10,,,,,,,,,12,,,36,92
28800,note_on,1058,0,2,,,,,,,,,1,,,64,92
28800,note_on,1058,0,1,,,,,,,,,1,,,67,92
28800,note_on,32,0,6,,,,,,,,,7,,,60,92
28800,note_on,1058,0,3,,,,,,,,,5,,,67,92
28800,note_on,32,0,7,,,,,,,,,8,,,60,92
28800,note_on,1058,0,4,,,,,,,,,5,,,55,92
28800,note_on,2,0,9,,,,,,,,,11,,,48,92
28800,note_on,32,0,8,,,,,,,,,10,,,60,92
28894,note_on,94,0,10,,,,,,,,,12,,,36,0
28894,note_on,94,0,9,,,,,,,,,11,,,48,0
28896,note_on,96,0,8,,,,,,,,,10,,,60,0
28896,note_on,2,0,10,,,,,,,,,12,,,36,92
28896,note_on,2,0,9,,,,,,,,,11,,,48,92
28896,note_on,0,0,8,,,,,,,,,10,,,67,92
28942,note_on,142,0,6,,,,,,,,,7,,,60,0
28942,note_on,142,0,7,,,,,,,,,8,,,60,0
28944,note_on,2,0,6,,,,,,,,,7,,,79,92
28944,note_on,2,0,7,,,,,,,,,8,,,76,92
28990,note_on,46,0,6,,,,,,,,,7,,,79,0
28990,note_on,94,0,9,,,,,,,,,11,,,48,0
28990,note_on,46,0,7,,,,,,,,,8,,,76,0
28990,note_on,94,0,10,,,,,,,,,12,,,36,0
28990,note_on,94,0,8,,,,,,,,,10,,,67,0
28992,note_on,2,0,6,,,,,,,,,7,,,78,92
28992,note_on,2,0,7,,,,,,,,,8,,,75,92
28992,note_on,192,0,1,,,,,,,,,1,,,67,0
28992,note_on,0,0,1,,,,,,,,,1,,,72,92
28992,note_on,192,0,2,,,,,,,,,1,,,64,0
28992,note_on,2,0,8,,,,,,,,,10,,,67,92
28992,note_on,2,0,9,,,,,,,,,11,,,48,92
28992,note_on,0,0,2,,,,,,,,,1,,,67,92
28992,note_on,2,0,10,,,,,,,,,12,,,36,92
29016,note_on,0,0,7,,,,,,,,,8,,,76,92
29016,note_on,24,0,6,,,,,,,,,7,,,78,0
29016,note_on,0,0,6,,,,,,,,,7,,,79,92
29016,note_on,24,0,7,,,,,,,,,8,,,75,0
29040,note_on,24,0,6,,,,,,,,,7,,,79,0
29040,note_on,24,0,7,,,,,,,,,8,,,76,0
29040,note_on,0,0,7,,,,,,,,,8,,,78,92
29040,note_on,0,0,6,,,,,,,,,7,,,81,92
29064,note_on,0,0,6,,,,,,,,,7,,,79,92
29064,note_on,24,0,7,,,,,,,,,8,,,78,0
29064,note_on,0,0,7,,,,,,,,,8,,,76,92
29064,note_on,24,0,6,,,,,,,,,7,,,81,0
29086,note_on,94,0,9,,,,,,,,,11,,,48,0
29086,note_on,94,0,10,,,,,,,,,12,,,36,0
29086,note_on,94,0,8,,,,,,,,,10,,,67,0
29088,note_on,2,0,9,,,,,,,,,11,,,48,92
29088,note_on,2,0,8,,,,,,,,,10,,,67,92
29088,note_on,2,0,10,,,,,,,,,12,,,36,92
29182,note_on,94,0,10,,,,,,,,,12,,,36,0
29182,note_on,94,0,9,,,,,,,,,11,,,48,0
29182,note_on,94,0,8,,,,,,,,,10,,,67,0
29184,note_on,2,0,10,,,,,,,,,12,,,36,92
29184,note_on,2,0,9,,,,,,,,,11,,,48,92
29184,note_on,192,0,1,,,,,,,,,1,,,72,0
29184,note_on,2,0,8,,,,,,,,,10,,,67,92
29184,note_on,0,0,2,,,,,,,,,1,,,72,92
29184,note_on,192,0,2,,,,,,,,,1,,,67,0
29184,note_on,0,0,1,,,,,,,,,1,,,76,92
29248,note_on,184,0,7,,,,,,,,,8,,,76,0
29248,note_on,184,0,6,,,,,,,,,7,,,79,0
29278,note_on,94,0,9,,,,,,,,,11,,,48,0
29278,note_on,94,0,10,,,,,,,,,12,,,36,0
29278,note_on,94,0,8,,,,,,,,,10,,,67,0
29280,note_on,2,0,9,,,,,,,,,11,,,48,92
29280,note_on,32,0,6,,,,,,,,,7,,,78,92
29280,note_on,32,0,7,,,,,,,,,8,,,74,92
29280,note_on,2,0,8,,,,,,,,,10,,,67,92
29280,note_on,2,0,10,,,,,,,,,12,,,36,92
29328,note_on,528,0,4,,,,,,,,,5,,,55,0
29328,note_on,48,0,7,,,,,,,,,8,,,74,0
29328,note_on,0,0,7,,,,,,,,,8,,,72,92
29328,note_on,528,0,3,,,,,,,,,5,,,67,0
29328,note_on,48,0,6,,,,,,,,,7,,,78,0
29328,note_on,0,0,6,,,,,,,,,7,,,76,92
29344,note_on,160,0,1,,,,,,,,,1,,,76,0
29344,note_on,160,0,2,,,,,,,,,1,,,72,0
29374,note_on,94,0,10,,,,,,,,,12,,,36,0
29374,note_on,94,0,8,,,,,,,,,10,,,67,0
29374,note_on,46,0,7,,,,,,,,,8,,,72,0
29374,note_on,46,0,6,,,,,,,,,7,,,76,0
29374,note_on,94,0,9,,,,,,,,,11,,,48,0
29376,note_on,32,0,2,,,,,,,,,1,,,72,92
29376,note_on,2,0,9,,,,,,,,,11,,,50,92
29376,note_on,48,0,3,,,,,,,,,5,,,62,92
29376,note_on,2,0,10,,,,,,,,,12,,,38,92
29376,note_on,32,0,1,,,,,,,,,1,,,76,92
29376,note_on,2,0,7,,,,,,,,,8,,,72,92
29376,note_on,2,0,8,,,,,,,,,10,,,67,92
29376,note_on,48,0,4,,,,,,,,,5,,,50,92
29376,note_on,2,0,6,,,,,,,,,7,,,76,92
29424,note_on,48,0,1,,,,,,,,,1,,,76,0
29424,note_on,0,0,1,,,,,,,,,1,,,74,92
29424,note_on,0,0,7,,,,,,,,,8,,,71,92
29424,note_on,48,0,6,,,,,,,,,7,,,76,0
29424,note_on,0,0,6,,,,,,,,,7,,,74,92
29424,note_on,0,0,2,,,,,,,,,1,,,71,92
29424,note_on,48,0,2,,,,,,,,,1,,,72,0
29424,note_on,48,0,7,,,,,,,,,8,,,72,0
29470,note_on,94,0,10,,,,,,,,,12,,,38,0
29470,note_on,46,0,7,,,,,,,,,8,,,71,0
29470,note_on,46,0,6,,,,,,,,,7,,,74,0
29470,note_on,94,0,8,,,,,,,,,10,,,67,0
29470,note_on,46,0,2,,,,,,,,,1,,,71,0
29470,note_on,94,0,9,,,,,,,,,11,,,50,0
29470,note_on,46,0,1,,,,,,,,,1,,,74,0
29472,note_on,2,0,7,,,,,,,,,8,,,71,92
29472,note_on,2,0,6,,,,,,,,,7,,,74,92
29472,note_on,2,0,1,,,,,,,,,1,,,74,92
29472,note_on,2,0,9,,,,,,,,,11,,,50,92
29472,note_on,2,0,10,,,,,,,,,12,,,38,92
29472,note_on,2,0,8,,,,,,,,,10,,,67,92
29472,note_on,2,0,2,,,,,,,,,1,,,71,92
29566,note_on,94,0,8,,,,,,,,,10,,,67,0
29566,note_on,94,0,10,,,,,,,,,12,,,38,0
29566,note_on,94,0,9,,,,,,,,,11,,,50,0
29568,note_on,2,0,8,,,,,,,,,10,,,67,92
29568,note_on,2,0,10,,,,,,,,,12,,,38,92
29568,note_on,2,0,9,,,,,,,,,11,,,50,92
29632,note_on,160,0,1,,,,,,,,,1,,,74,0
29632,note_on,160,0,7,,,,,,,,,8,,,71,0
29632,note_on,160,0,6,,,,,,,,,7,,,74,0
29632,note_on,160,0,2,,,,,,,,,1,,,71,0
29662,note_on,94,0,10,,,,,,,,,12,,,38,0
29662,note_on,94,0,8,,,,,,,,,10,,,67,0
29662,note_on,94,0,9,,,,,,,,,11,,,50,0
29664,note_on,32,0,1,,,,,,,,,1,,,76,92
29664,note_on,2,0,8,,,,,,,,,10,,,67,92
29664,note_on,32,0,6,,,,,,,,,7,,,76,92
29664,note_on,32,0,7,,,,,,,,,8,,,72,92
29664,note_on,2,0,9,,,,,,,,,11,,,50,92
29664,note_on,32,0,2,,,,,,,,,1,,,72,92
29664,note_on,2,0,10,,,,,,,,,12,,,38,92
29712,note_on,48,0,6,,,,,,,,,7,,,76,0
29712,note_on,0,0,7,,,,,,,,,8,,,71,92
29712,note_on,0,0,2,,,,,,,,,1,,,71,92
29712,note_on,48,0,2,,,,,,,,,1,,,72,0
29712,note_on,48,0,7,,,,,,,,,8,,,72,0
29712,note_on,0,0,1,,,,,,,,,1,,,74,92
29712,note_on,48,0,1,,,,,,,,,1,,,76,0
29712,note_on,0,0,6,,,,,,,,,7,,,74,92
29758,note_on,94,0,10,,,,,,,,,12,,,38,0
29758,note_on,46,0,6,,,,,,,,,7,,,74,0
29758,note_on,46,0,7,,,,,,,,,8,,,71,0
29758,note_on,46,0,2,,,,,,,,,1,,,71,0
29758,note_on,94,0,8,,,,,,,,,10,,,67,0
29758,note_on,94,0,9,,,,,,,,,11,,,50,0
29758,note_on,46,0,1,,,,,,,,,1,,,74,0
29760,note_on,2,0,2,,,,,,,,,1,,,71,92
29760,note_on,2,0,1,,,,,,,,,1,,,74,92
29760,note_on,2,0,8,,,,,,,,,10,,,62,92
29760,note_on,2,0,9,,,,,,,,,11,,,50,92
29760,note_on,2,0,10,,,,,,,,,12,,,38,92
29760,note_on,2,0,6,,,,,,,,,7,,,74,92
29760,note_on,2,0,7,,,,,,,,,8,,,71,92
29808,note_on,48,0,6,,,,,,,,,7,,,74,0
29808,note_on,0,0,6,,,,,,,,,7,,,72,92
29808,note_on,48,0,1,,,,,,,,,1,,,74,0
29808,note_on,0,0,1,,,,,,,,,1,,,72,92
29808,note_on,0,0,7,,,,,,,,,8,,,69,92
29808,note_on,48,0,7,,,,,,,,,8,,,71,0
29808,note_on,48,0,2,,,,,,,,,1,,,71,0
29808,note_on,0,0,2,,,,,,,,,1,,,69,92
29854,note_on,94,0,9,,,,,,,,,11,,,50,0
29854,note_on,94,0,8,,,,,,,,,10,,,62,0
29854,note_on,94,0,10,,,,,,,,,12,,,38,0
29856,note_on,0,0,2,,,,,,,,,1,,,67,92
29856,note_on,48,0,7,,,,,,,,,8,,,69,0
29856,note_on,2,0,9,,,,,,,,,11,,,50,92
29856,note_on,0,0,6,,,,,,,,,7,,,71,92
29856,note_on,2,0,10,,,,,,,,,12,,,38,92
29856,note_on,48,0,6,,,,,,,,,7,,,72,0
29856,note_on,2,0,8,,,,,,,,,10,,,62,92
29856,note_on,0,0,1,,,,,,,,,1,,,71,92
29856,note_on,48,0,1,,,,,,,,,1,,,72,0
29856,note_on,48,0,2,,,,,,,,,1,,,69,0
29856,note_on,0,0,7,,,,,,,,,8,,,67,92
29904,note_on,48,0,2,,,,,,,,,1,,,67,0
29904,note_on,0,0,2,,,,,,,,,1,,,69,92
29904,note_on,48,0,1,,,,,,,,,1,,,71,0
29904,note_on,0,0,7,,,,,,,,,8,,,69,92
29904,note_on,528,0,4,,,,,,,,,5,,,50,0
29904,note_on,48,0,7,,,,,,,,,8,,,67,0
29904,note_on,48,0,6,,,,,,,,,7,,,71,0
29904,note_on,528,0,3,,,,,,,,,5,,,62,0
29904,note_on,0,0,6,,,,,,,,,7,,,72,92
29904,note_on,0,0,1,,,,,,,,,1,,,72,92
29950,note_on,94,0,8,,,,,,,,,10,,,62,0
29950,note_on,46,0,7,,,,,,,,,8,,,69,0
29950,note_on,46,0,1,,,,,,,,,1,,,72,0
29950,note_on,46,0,6,,,,,,,,,7,,,72,0
29950,note_on,94,0,10,,,,,,,,,12,,,38,0
29950,note_on,94,0,9,,,,,,,,,11,,,50,0
29950,note_on,46,0,2,,,,,,,,,1,,,69,0
29952,note_on,2,0,7,,,,,,,,,8,,,66,92
29952,note_on,2,0,6,,,,,,,,,7,,,69,92
29952,note_on,2,0,1,,,,,,,,,1,,,69,92
29952,note_on,2,0,2,,,,,,,,,1,,,66,92
29952,note_on,2,0,8,,,,,,,,,10,,,60,92
30048,note_on,98,0,10,,,,,,,,,12,,,38,92
30048,note_on,98,0,9,,,,,,,,,11,,,50,92
30048,note_on,144,0,3,,,,,,,,,5,,,62,92
30048,note_on,144,0,4,,,,,,,,,5,,,50,92
30116,note_on,68,0,10,,,,,,,,,12,,,38,0
30116,note_on,68,0,9,,,,,,,,,11,,,50,0
30142,note_on,94,0,3,,,,,,,,,5,,,62,0
30142,note_on,94,0,4,,,,,,,,,5,,,50,0
30144,note_on,2,0,3,,,,,,,,,5,,,67,92
30144,note_on,2,0,4,,,,,,,,,5,,,55,92
30144,note_on,0,0,2,,,,,,,,,1,,,67,92
30144,note_on,0,0,8,,,,,,,,,10,,,59,92
30144,note_on,28,0,9,,,,,,,,,11,,,55,92
30144,note_on,28,0,10,,,,,,,,,12,,,43,92
30144,note_on,0,0,6,,,,,,,,,7,,,71,92
30144,note_on,192,0,6,,,,,,,,,7,,,69,0
30144,note_on,1760,0,5,,,,,,,,,6,,,74,110
30144,note_on,192,0,2,,,,,,,,,1,,,66,0
30144,note_on,192,0,7,,,,,,,,,8,,,66,0
30144,note_on,192,0,8,,,,,,,,,10,,,60,0
30144,note_on,0,0,1,,,,,,,,,1,,,71,92
30144,note_on,0,0,7,,,,,,,,,8,,,67,92
30144,note_on,192,0,1,,,,,,,,,1,,,69,0
30212,note_on,68,0,9,,,,,,,,,11,,,55,0
30212,note_on,68,0,10,,,,,,,,,12,,,43,0
30238,note_on,94,0,4,,,,,,,,,5,,,55,0
30238,note_on,94,0,3,,,,,,,,,5,,,67,0
30240,note_on,28,0,10,,,,,,,,,12,,,38,92
30240,note_on,0,0,5,,,,,,,,,6,,,79,110
30240,note_on,96,0,5,,,,,,,,,6,,,74,0
30240,note_on,2,0,4,,,,,,,,,5,,,62,92
30240,note_on,28,0,9,,,,,,,,,11,,,50,92
30240,note_on,2,0,3,,,,,,,,,5,,,62,92
30304,note_on,160,0,7,,,,,,,,,8,,,67,0
30304,note_on,160,0,6,,,,,,,,,7,,,71,0
30304,note_on,160,0,1,,,,,,,,,1,,,71,0
30304,note_on,160,0,8,,,,,,,,,10,,,59,0
30304,note_on,160,0,2,,,,,,,,,1,,,67,0
30308,note_on,68,0,9,,,,,,,,,11,,,50,0
30308,note_on,68,0,10,,,,,,,,,12,,,38,0
30334,note_on,94,0,4,,,,,,,,,5,,,62,0
30334,note_on,94,0,3,,,,,,,,,5,,,62,0
30336,note_on,2,0,3,,,,,,,,,5,,,59,92
30336,note_on,28,0,10,,,,,,,,,12,,,35,92
30336,note_on,96,0,5,,,,,,,,,6,,,79,0
30336,note_on,0,0,5,,,,,,,,,6,,,83,110
30336,note_on,2,0,4,,,,,,,,,5,,,59,92
30336,note_on,28,0,9,,,,,,,,,11,,,47,92
30404,note_on,68,0,10,,,,,,,,,12,,,35,0
30404,note_on,68,0,9,,,,,,,,,11,,,47,0
30430,note_on,94,0,4,,,,,,,,,5,,,59,0
30430,note_on,94,0,3,,,,,,,,,5,,,59,0
30432,note_on,28,0,9,,,,,,,,,11,,,43,92
30432,note_on,2,0,3,,,,,,,,,5,,,55,92
30432,note_on,28,0,10,,,,,,,,,12,,,31,92
30432,note_on,0,0,5,,,,,,,,,6,,,86,110
30432,note_on,2,0,4,,,,,,,,,5,,,55,92
30432,note_on,96,0,5,,,,,,,,,6,,,83,0
30500,note_on,68,0,10,,,,,,,,,12,,,31,0
30500,note_on,68,0,9,,,,,,,,,11,,,43,0
30526,note_on,94,0,4,,,,,,,,,5,,,55,0
30526,note_on,94,0,3,,,,,,,,,5,,,55,0
30526,note_on,94,0,5,,,,,,,,,6,,,86,0
30528,note_on,2,0,5,,,,,,,,,6,,,84,110
30624,note_on,320,0,7,,,,,,,,,8,,,57,45
30624,note_on,320,0,6,,,,,,,,,7,,,57,45
30720,note_on,96,0,7,,,,,,,,,8,,,57,0
30720,note_on,0,0,7,,,,,,,,,8,,,60,45
30720,note_on,96,0,6,,,,,,,,,7,,,57,0
30720,note_on,0,0,6,,,,,,,,,7,,,60,45
30816,note_on,0,0,7,,,,,,,,,8,,,66,45
30816,note_on,96,0,6,,,,,,,,,7,,,60,0
30816,note_on,96,0,7,,,,,,,,,8,,,60,0
30816,note_on,0,0,6,,,,,,,,,7,,,66,45
30864,note_on,0,0,5,,,,,,,,,6,,,81,110
30864,note_on,336,0,5,,,,,,,,,6,,,84,0
30910,note_on,46,0,5,,,,,,,,,6,,,81,0
30912,note_on,0,0,7,,,,,,,,,8,,,69,45
30912,note_on,96,0,7,,,,,,,,,8,,,66,0
30912,note_on,2,0,5,,,,,,,,,6,,,78,110
30912,note_on,0,0,6,,,,,,,,,7,,,69,45
30912,note_on,96,0,6,,,,,,,,,7,,,66,0
31006,note_on,94,0,5,,,,,,,,,6,,,78,0
31008,note_on,96,0,6,,,,,,,,,7,,,69,0
31008,note_on,96,0,7,,,,,,,,,8,,,69,0
31008,note_on,0,0,6,,,,,,,,,7,,,72,45
31008,note_on,0,0,7,,,,,,,,,8,,,72,45
31102,note_on,94,0,7,,,,,,,,,8,,,72,0
31102,note_on,94,0,6,,,,,,,,,7,,,72,0
31104,note_on,98,0,5,,,,,,,,,6,,,86,110
31200,note_on,98,0,7,,,,,,,,,8,,,59,45
31200,note_on,98,0,6,,,,,,,,,7,,,59,45
31296,note_on,96,0,7,,,,,,,,,8,,,59,0
31296,note_on,0,0,7,,,,,,,,,8,,,62,45
31296,note_on,96,0,6,,,,,,,,,7,,,59,0
31296,note_on,0,0,6,,,,,,,,,7,,,62,45
31392,note_on,96,0,6,,,,,,,,,7,,,62,0
31392,note_on,96,0,7,,,,,,,,,8,,,62,0
31392,note_on,0,0,7,,,,,,,,,8,,,67,45
31392,note_on,0,0,6,,,,,,,,,7,,,67,45
31440,note_on,0,0,5,,,,,,,,,6,,,83,110
31440,note_on,336,0,5,,,,,,,,,6,,,86,0
31486,note_on,46,0,5,,,,,,,,,6,,,83,0
31488,note_on,0,0,7,,,,,,,,,8,,,71,45
31488,note_on,0,0,6,,,,,,,,,7,,,71,45
31488,note_on,2,0,5,,,,,,,,,6,,,79,110
31488,note_on,96,0,7,,,,,,,,,8,,,67,0
31488,note_on,96,0,6,,,,,,,,,7,,,67,0
31582,note_on,94,0,5,,,,,,,,,6,,,79,0
31584,note_on,96,0,6,,,,,,,,,7,,,71,0
31584,note_on,0,0,6,,,,,,,,,7,,,74,45
31584,note_on,0,0,7,,,,,,,,,8,,,74,45
31584,note_on,96,0,7,,,,,,,,,8,,,71,0
31678,note_on,94,0,6,,,,,,,,,7,,,74,0
31678,note_on,94,0,7,,,,,,,,,8,,,74,0
31680,note_on,1154,0,4,,,,,,,,,5,,,55,92
31680,note_on,1376,0,2,,,,,,,,,1,,,74,92
31680,note_on,1376,0,8,,,,,,,,,10,,,74,92
31680,note_on,1376,0,1,,,,,,,,,1,,,83,92
31680,note_on,2,0,7,,,,,,,,,8,,,77,92
31680,note_on,1154,0,3,,,,,,,,,5,,,67,92
31680,note_on,2,0,6,,,,,,,,,7,,,89,92
31776,note_on,1276,0,9,,,,,,,,,11,,,55,92
31776,note_on,1276,0,10,,,,,,,,,12,,,43,92
31872,note_on,96,0,10,,,,,,,,,12,,,43,0
31872,note_on,0,0,10,,,,,,,,,12,,,47,92
31872,note_on,96,0,9,,,,,,,,,11,,,55,0
31872,note_on,0,0,9,,,,,,,,,11,,,59,92
31968,note_on,0,0,9,,,,,,,,,11,,,62,92
31968,note_on,96,0,10,,,,,,,,,12,,,47,0
31968,note_on,0,0,10,,,,,,,,,12,,,50,92
31968,note_on,96,0,9,,,,,,,,,11,,,59,0
32016,note_on,0,0,6,,,,,,,,,7,,,86,92
32016,note_on,0,0,7,,,,,,,,,8,,,74,92
32016,note_on,336,0,7,,,,,,,,,8,,,77,0
32016,note_on,336,0,6,,,,,,,,,7,,,89,0
32062,note_on,46,0,6,,,,,,,,,7,,,86,0
32062,note_on,46,0,7,,,,,,,,,8,,,74,0
32064,note_on,2,0,6,,,,,,,,,7,,,83,92
32064,note_on,0,0,9,,,,,,,,,11,,,65,92
32064,note_on,96,0,10,,,,,,,,,12,,,50,0
32064,note_on,0,0,10,,,,,,,,,12,,,53,92
32064,note_on,2,0,7,,,,,,,,,8,,,71,92
32064,note_on,96,0,9,,,,,,,,,11,,,62,0
32158,note_on,94,0,7,,,,,,,,,8,,,71,0
32158,note_on,94,0,6,,,,,,,,,7,,,83,0
32160,note_on,96,0,10,,,,,,,,,12,,,53,0
32160,note_on,0,0,10,,,,,,,,,12,,,50,92
32160,note_on,0,0,9,,,,,,,,,11,,,62,92
32160,note_on,96,0,9,,,,,,,,,11,,,65,0
32208,note_on,528,0,3,,,,,,,,,5,,,67,0
32208,note_on,528,0,8,,,,,,,,,10,,,74,0
32208,note_on,528,0,1,,,,,,,,,1,,,83,0
32208,note_on,528,0,2,,,,,,,,,1,,,74,0
32208,note_on,528,0,4,,,,,,,,,5,,,55,0
32254,note_on,94,0,10,,,,,,,,,12,,,50,0
32254,note_on,94,0,9,,,,,,,,,11,,,62,0
32256,note_on,98,0,6,,,,,,,,,7,,,64,45
32256,note_on,98,0,7,,,,,,,,,8,,,60,45
32256,note_on,674,0,5,,,,,,,,,6,,,75,110
32280,note_on,0,0,5,,,,,,,,,6,,,76,110
32280,note_on,24,0,5,,,,,,,,,6,,,75,0
32304,note_on,24,0,5,,,,,,,,,6,,,76,0
32304,note_on,0,0,5,,,,,,,,,6,,,78,110
32326,note_on,22,0,5,,,,,,,,,6,,,78,0
32328,note_on,2,0,5,,,,,,,,,6,,,76,110
32350,note_on,94,0,6,,,,,,,,,7,,,64,0
32350,note_on,94,0,7,,,,,,,,,8,,,60,0
32352,note_on,2,0,7,,,,,,,,,8,,,60,45
32352,note_on,2,0,6,,,,,,,,,7,,,64,45
32446,note_on,118,0,5,,,,,,,,,6,,,76,0
32446,note_on,94,0,7,,,,,,,,,8,,,60,0
32446,note_on,94,0,6,,,,,,,,,7,,,64,0
32448,note_on,2,0,7,,,,,,,,,8,,,60,45
32448,note_on,2,0,6,,,,,,,,,7,,,64,45
32448,note_on,2,0,5,,,,,,,,,6,,,74,110
32542,note_on,94,0,7,,,,,,,,,8,,,60,0
32542,note_on,94,0,6,,,,,,,,,7,,,64,0
32544,note_on,96,0,5,,,,,,,,,6,,,74,0
32544,note_on,2,0,6,,,,,,,,,7,,,64,45
32544,note_on,0,0,5,,,,,,,,,6,,,72,110
32544,note_on,2,0,7,,,,,,,,,8,,,60,45
32638,note_on,94,0,5,,,,,,,,,6,,,72,0
32638,note_on,94,0,7,,,,,,,,,8,,,60,0
32638,note_on,94,0,6,,,,,,,,,7,,,64,0
32640,note_on,2,0,5,,,,,,,,,6,,,71,110
32640,note_on,2,0,6,,,,,,,,,7,,,64,45
32640,note_on,2,0,7,,,,,,,,,8,,,60,45
32734,note_on,94,0,6,,,,,,,,,7,,,64,0
32734,note_on,94,0,7,,,,,,,,,8,,,60,0
32736,note_on,96,0,5,,,,,,,,,6,,,71,0
32736,note_on,2,0,6,,,,,,,,,7,,,64,45
32736,note_on,2,0,7,,,,,,,,,8,,,60,45
32736,note_on,0,0,5,,,,,,,,,6,,,69,110
32830,note_on,94,0,6,,,,,,,,,7,,,64,0
32830,note_on,94,0,7,,,,,,,,,8,,,60,0
32830,note_on,94,0,5,,,,,,,,,6,,,69,0
32832,note_on,2,0,5,,,,,,,,,6,,,68,110
32832,note_on,2,0,6,,,,,,,,,7,,,65,45
32832,note_on,2,0,7,,,,,,,,,8,,,62,45
32926,note_on,94,0,6,,,,,,,,,7,,,65,0
32926,note_on,94,0,7,,,,,,,,,8,,,62,0
32928,note_on,2,0,6,,,,,,,,,7,,,65,45
32928,note_on,2,0,7,,,,,,,,,8,,,62,45
33022,note_on,94,0,7,,,,,,,,,8,,,62,0
33022,note_on,94,0,6,,,,,,,,,7,,,65,0
33024,note_on,2,0,7,,,,,,,,,8,,,62,45
33024,note_on,2,0,6,,,,,,,,,7,,,65,45
33118,note_on,94,0,7,,,,,,,,,8,,,62,0
33118,note_on,94,0,6,,,,,,,,,7,,,65,0
33120,note_on,2,0,7,,,,,,,,,8,,,62,45
33120,note_on,2,0,6,,,,,,,,,7,,,65,45
33168,note_on,336,0,5,,,,,,,,,6,,,68,0
33168,note_on,0,0,5,,,,,,,,,6,,,69,110
33192,note_on,24,0,5,,,,,,,,,6,,,69,0
33192,note_on,0,0,5,,,,,,,,,6,,,71,110
33214,note_on,94,0,7,,,,,,,,,8,,,62,0
33214,note_on,22,0,5,,,,,,,,,6,,,71,0
33214,note_on,94,0,6,,,,,,,,,7,,,65,0
33216,note_on,2,0,7,,,,,,,,,8,,,60,45
33216,note_on,2,0,5,,,,,,,,,6,,,69,110
33216,note_on,2,0,6,,,,,,,,,7,,,64,45
33310,note_on,94,0,5,,,,,,,,,6,,,69,0
33310,note_on,94,0,6,,,,,,,,,7,,,64,0
33310,note_on,94,0,7,,,,,,,,,8,,,60,0
33312,note_on,2,0,6,,,,,,,,,7,,,64,45
33312,note_on,2,0,7,,,,,,,,,8,,,60,45
33406,note_on,94,0,6,,,,,,,,,7,,,64,0
33406,note_on,94,0,7,,,,,,,,,8,,,60,0
33408,note_on,98,0,5,,,,,,,,,6,,,74,110
33456,note_on,0,0,5,,,,,,,,,6,,,86,110
33456,note_on,48,0,5,,,,,,,,,6,,,74,0
33504,note_on,98,0,6,,,,,,,,,7,,,62,45
33504,note_on,98,0,7,,,,,,,,,8,,,59,45
33598,note_on,94,0,6,,,,,,,,,7,,,62,0
33598,note_on,94,0,7,,,,,,,,,8,,,59,0
33600,note_on,2,0,6,,,,,,,,,7,,,62,45
33600,note_on,2,0,7,,,,,,,,,8,,,59,45
33648,note_on,192,0,5,,,,,,,,,6,,,86,0
33648,note_on,0,0,5,,,,,,,,,6,,,84,110
33694,note_on,94,0,6,,,,,,,,,7,,,62,0
33694,note_on,46,0,5,,,,,,,,,6,,,84,0
33694,note_on,94,0,7,,,,,,,,,8,,,59,0
33696,note_on,2,0,7,,,,,,,,,8,,,59,45
33696,note_on,2,0,5,,,,,,,,,6,,,84,110
33696,note_on,2,0,6,,,,,,,,,7,,,62,45
33744,note_on,0,0,5,,,,,,,,,6,,,83,110
33744,note_on,48,0,5,,,,,,,,,6,,,84,0
33790,note_on,46,0,5,,,,,,,,,6,,,83,0
33790,note_on,94,0,6,,,,,,,,,7,,,62,0
33790,note_on,94,0,7,,,,,,,,,8,,,59,0
33792,note_on,2,0,5,,,,,,,,,6,,,83,110
33792,note_on,2,0,7,,,,,,,,,8,,,59,45
33792,note_on,2,0,6,,,,,,,,,7,,,62,45
33840,note_on,0,0,5,,,,,,,,,6,,,81,110
33840,note_on,48,0,5,,,,,,,,,6,,,83,0
33886,note_on,94,0,6,,,,,,,,,7,,,62,0
33886,note_on,94,0,7,,,,,,,,,8,,,59,0
33886,note_on,46,0,5,,,,,,,,,6,,,81,0
33888,note_on,2,0,6,,,,,,,,,7,,,62,45
33888,note_on,2,0,7,,,,,,,,,8,,,59,45
33888,note_on,2,0,5,,,,,,,,,6,,,81,110
33936,note_on,48,0,5,,,,,,,,,6,,,81,0
33936,note_on,0,0,5,,,,,,,,,6,,,79,110
33982,note_on,46,0,5,,,,,,,,,6,,,79,0
33982,note_on,94,0,6,,,,,,,,,7,,,62,0
33982,note_on,94,0,7,,,,,,,,,8,,,59,0
33984,note_on,2,0,7,,,,,,,,,8,,,60,45
33984,note_on,2,0,5,,,,,,,,,6,,,78,110
33984,note_on,2,0,6,,,,,,,,,7,,,63,45
34078,note_on,94,0,7,,,,,,,,,8,,,60,0
34078,note_on,94,0,6,,,,,,,,,7,,,63,0
34080,note_on,2,0,7,,,,,,,,,8,,,60,45
34080,note_on,2,0,6,,,,,,,,,7,,,63,45
34174,note_on,94,0,6,,,,,,,,,7,,,63,0
34174,note_on,94,0,7,,,,,,,,,8,,,60,0
34176,note_on,2,0,7,,,,,,,,,8,,,60,45
34176,note_on,2,0,6,,,,,,,,,7,,,63,45
34208,note_on,0,0,5,,,,,,,,,6,,,81,110
34208,note_on,224,0,5,,,,,,,,,6,,,78,0
34240,note_on,32,0,5,,,,,,,,,6,,,81,0
34240,note_on,0,0,5,,,,,,,,,6,,,79,110
34270,note_on,94,0,6,,,,,,,,,7,,,63,0
34270,note_on,94,0,7,,,,,,,,,8,,,60,0
34270,note_on,30,0,5,,,,,,,,,6,,,79,0
34272,note_on,2,0,7,,,,,,,,,8,,,60,45
34272,note_on,2,0,5,,,,,,,,,6,,,78,110
34272,note_on,2,0,6,,,,,,,,,7,,,63,45
34304,note_on,0,0,5,,,,,,,,,6,,,79,110
34304,note_on,32,0,5,,,,,,,,,6,,,78,0
34336,note_on,32,0,5,,,,,,,,,6,,,79,0
34336,note_on,0,0,5,,,,,,,,,6,,,81,110
34366,note_on,94,0,6,,,,,,,,,7,,,63,0
34366,note_on,94,0,7,,,,,,,,,8,,,60,0
34366,note_on,30,0,5,,,,,,,,,6,,,81,0
34368,note_on,2,0,5,,,,,,,,,6,,,79,110
34368,note_on,2,0,6,,,,,,,,,7,,,62,45
34368,note_on,2,0,7,,,,,,,,,8,,,59,45
34462,note_on,94,0,6,,,,,,,,,7,,,62,0
34462,note_on,94,0,5,,,,,,,,,6,,,79,0
34462,note_on,94,0,7,,,,,,,,,8,,,59,0
34464,note_on,2,0,7,,,,,,,,,8,,,59,45
34464,note_on,2,0,6,,,,,,,,,7,,,74,45
34464,note_on,2,0,5,,,,,,,,,6,,,79,110
34558,note_on,94,0,6,,,,,,,,,7,,,74,0
34558,note_on,94,0,5,,,,,,,,,6,,,79,0
34558,note_on,94,0,7,,,,,,,,,8,,,59,0
34560,note_on,2,0,5,,,,,,,,,6,,,78,110
34656,note_on,98,0,7,,,,,,,,,8,,,60,45
34656,note_on,0,0,5,,,,,,,,,6,,,76,110
34656,note_on,96,0,5,,,,,,,,,6,,,78,0
34656,note_on,98,0,6,,,,,,,,,7,,,67,45
34750,note_on,94,0,5,,,,,,,,,6,,,76,0
34750,note_on,94,0,6,,,,,,,,,7,,,67,0
34750,note_on,94,0,7,,,,,,,,,8,,,60,0
34752,note_on,2,0,7,,,,,,,,,8,,,60,45
34752,note_on,2,0,6,,,,,,,,,7,,,67,45
34848,note_on,98,0,5,,,,,,,,,6,,,74,110
34848,note_on,96,0,7,,,,,,,,,8,,,60,0
34848,note_on,0,0,7,,,,,,,,,8,,,62,45
34848,note_on,0,0,6,,,,,,,,,7,,,66,45
34848,note_on,96,0,6,,,,,,,,,7,,,67,0
34942,note_on,94,0,6,,,,,,,,,7,,,66,0
34942,note_on,94,0,7,,,,,,,,,8,,,62,0
34942,note_on,94,0,5,,,,,,,,,6,,,74,0
34944,note_on,2,0,5,,,,,,,,,6,,,74,110
35040,note_on,98,0,7,,,,,,,,,8,,,64,45
35040,note_on,96,0,5,,,,,,,,,6,,,74,0
35040,note_on,0,0,5,,,,,,,,,6,,,73,110
35040,note_on,98,0,6,,,,,,,,,7,,,67,45
35134,note_on,94,0,5,,,,,,,,,6,,,73,0
35134,note_on,94,0,6,,,,,,,,,7,,,67,0
35134,note_on,94,0,7,,,,,,,,,8,,,64,0
35136,note_on,2,0,6,,,,,,,,,7,,,67,45
35136,note_on,2,0,7,,,,,,,,,8,,,64,45
35232,note_on,96,0,6,,,,,,,,,7,,,67,0
35232,note_on,96,0,7,,,,,,,,,8,,,64,0
35232,note_on,0,0,7,,,,,,,,,8,,,67,45
35232,note_on,98,0,5,,,,,,,,,6,,,85,110
35232,note_on,0,0,6,,,,,,,,,7,,,70,45
35326,note_on,94,0,7,,,,,,,,,8,,,67,0
35326,note_on,94,0,5,,,,,,,,,6,,,85,0
35326,note_on,94,0,6,,,,,,,,,7,,,70,0
35328,note_on,2,0,5,,,,,,,,,6,,,86,110
35424,note_on,0,0,5,,,,,,,,,6,,,84,110
35424,note_on,96,0,5,,,,,,,,,6,,,86,0
35424,note_on,98,0,7,,,,,,,,,8,,,66,45
35424,note_on,98,0,6,,,,,,,,,7,,,69,45
35518,note_on,94,0,5,,,,,,,,,6,,,84,0
35518,note_on,94,0,7,,,,,,,,,8,,,66,0
35518,note_on,94,0,6,,,,,,,,,7,,,69,0
35520,note_on,2,0,7,,,,,,,,,8,,,66,45
35520,note_on,2,0,6,,,,,,,,,7,,,69,45
35616,note_on,96,0,7,,,,,,,,,8,,,66,0
35616,note_on,0,0,7,,,,,,,,,8,,,67,45
35616,note_on,98,0,5,,,,,,,,,6,,,83,110
35616,note_on,96,0,6,,,,,,,,,7,,,69,0
35616,note_on,0,0,6,,,,,,,,,7,,,74,45
35710,note_on,94,0,7,,,,,,,,,8,,,67,0
35710,note_on,94,0,5,,,,,,,,,6,,,83,0
35710,note_on,94,0,6,,,,,,,,,7,,,74,0
35712,note_on,2,0,6,,,,,,,,,7,,,76,45
35712,note_on,2,0,5,,,,,,,,,6,,,80,110
35712,note_on,2,0,7,,,,,,,,,8,,,60,45
35806,note_on,94,0,6,,,,,,,,,7,,,76,0
35806,note_on,94,0,7,,,,,,,,,8,,,60,0
35808,note_on,0,0,5,,,,,,,,,6,,,81,110
35808,note_on,2,0,7,,,,,,,,,8,,,60,45
35808,note_on,2,0,6,,,,,,,,,7,,,76,45
35808,note_on,96,0,5,,,,,,,,,6,,,80,0
35902,note_on,94,0,7,,,,,,,,,8,,,60,0
35902,note_on,94,0,6,,,,,,,,,7,,,76,0
35904,note_on,2,0,7,,,,,,,,,8,,,60,45
35904,note_on,2,0,6,,,,,,,,,7,,,76,45
35952,note_on,144,0,5,,,,,,,,,6,,,81,0
35952,note_on,0,0,5,,,,,,,,,6,,,83,110
35998,note_on,94,0,6,,,,,,,,,7,,,76,0
35998,note_on,94,0,7,,,,,,,,,8,,,60,0
36000,note_on,2,0,6,,,,,,,,,7,,,76,45
36000,note_on,48,0,5,,,,,,,,,6,,,83,0
36000,note_on,0,0,5,,,,,,,,,6,,,84,110
36000,note_on,2,0,7,,,,,,,,,8,,,60,45
36048,note_on,0,0,5,,,,,,,,,6,,,86,110
36048,note_on,48,0,5,,,,,,,,,6,,,84,0
36094,note_on,46,0,5,,,,,,,,,6,,,86,0
36094,note_on,94,0,7,,,,,,,,,8,,,60,0
36094,note_on,94,0,6,,,,,,,,,7,,,76,0
36096,note_on,2,0,7,,,,,,,,,8,,,60,45
36096,note_on,2,0,5,,,,,,,,,6,,,87,110
36096,note_on,2,0,6,,,,,,,,,7,,,76,45
36144,note_on,0,0,5,,,,,,,,,6,,,88,110
36144,note_on,48,0,5,,,,,,,,,6,,,87,0
36190,note_on,46,0,5,,,,,,,,,6,,,88,0
36190,note_on,94,0,6,,,,,,,,,7,,,76,0
36190,note_on,94,0,7,,,,,,,,,8,,,60,0
36192,note_on,2,0,5,,,,,,,,,6,,,84,110
36192,note_on,2,0,7,,,,,,,,,8,,,60,45
36192,note_on,2,0,6,,,,,,,,,7,,,76,45
36240,note_on,0,0,5,,,,,,,,,6,,,81,110
36240,note_on,48,0,5,,,,,,,,,6,,,84,0
36286,note_on,94,0,6,,,,,,,,,7,,,76,0
36286,note_on,94,0,7,,,,,,,,,8,,,60,0
36286,note_on,46,0,5,,,,,,,,,6,,,81,0
36288,note_on,2,0,7,,,,,,,,,8,,,62,45
36288,note_on,4080,0,4,,,,,,,,,5,,,50,45
36288,note_on,2,0,5,,,,,,,,,6,,,81,110
36288,note_on,4080,0,3,,,,,,,,,5,,,62,45
36288,note_on,2,0,6,,,,,,,,,7,,,71,45
36296,note_on,8,0,5,,,,,,,,,6,,,81,0
36296,note_on,0,0,5,,,,,,,,,6,,,79,110
36304,note_on,0,0,5,,,,,,,,,6,,,81,110
36304,note_on,8,0,5,,,,,,,,,6,,,79,0
36312,note_on,0,0,5,,,,,,,,,6,,,79,110
36312,note_on,8,0,5,,,,,,,,,6,,,81,0
36320,note_on,8,0,5,,,,,,,,,6,,,79,0
36320,note_on,0,0,5,,,,,,,,,6,,,81,110
36328,note_on,8,0,5,,,,,,,,,6,,,81,0
36328,note_on,0,0,5,,,,,,,,,6,,,79,110
36334,note_on,6,0,5,,,,,,,,,6,,,79,0
36336,note_on,2,0,5,,,,,,,,,6,,,81,110
36344,note_on,0,0,5,,,,,,,,,6,,,79,110
36344,note_on,8,0,5,,,,,,,,,6,,,81,0
36352,note_on,0,0,5,,,,,,,,,6,,,81,110
36352,note_on,8,0,5,,,,,,,,,6,,,79,0
36360,note_on,0,0,5,,,,,,,,,6,,,79,110
36360,note_on,8,0,5,,,,,,,,,6,,,81,0
36368,note_on,0,0,5,,,,,,,,,6,,,81,110
36368,note_on,8,0,5,,,,,,,,,6,,,79,0
36376,note_on,8,0,5,,,,,,,,,6,,,81,0
36376,note_on,0,0,5,,,,,,,,,6,,,79,110
36382,note_on,94,0,7,,,,,,,,,8,,,62,0
36382,note_on,6,0,5,,,,,,,,,6,,,79,0
36384,note_on,2,0,7,,,,,,,,,8,,,62,45
36384,note_on,2,0,5,,,,,,,,,6,,,81,110
36392,note_on,8,0,5,,,,,,,,,6,,,81,0
36392,note_on,0,0,5,,,,,,,,,6,,,79,110
36400,note_on,8,0,5,,,,,,,,,6,,,79,0
36400,note_on,0,0,5,,,,,,,,,6,,,81,110
36408,note_on,8,0,5,,,,,,,,,6,,,81,0
36408,note_on,0,0,5,,,,,,,,,6,,,79,110
36416,note_on,0,0,5,,,,,,,,,6,,,81,110
36416,note_on,8,0,5,,,,,,,,,6,,,79,0
36424,note_on,0,0,5,,,,,,,,,6,,,79,110
36424,note_on,8,0,5,,,,,,,,,6,,,81,0
36430,note_on,6,0,5,,,,,,,,,6,,,79,0
36432,note_on,2,0,5,,,,,,,,,6,,,78,110
36454,note_on,22,0,5,,,,,,,,,6,,,78,0
36456,note_on,2,0,5,,,,,,,,,6,,,79,110
36478,note_on,94,0,7,,,,,,,,,8,,,62,0
36478,note_on,22,0,5,,,,,,,,,6,,,79,0
36480,note_on,2,0,5,,,,,,,,,6,,,78,110
36480,note_on,4226,0,10,,,,,,,,,12,,,50,45
36480,note_on,4226,0,9,,,,,,,,,11,,,62,45
36480,note_on,192,0,6,,,,,,,,,7,,,71,0
36480,note_on,0,0,6,,,,,,,,,7,,,69,45
36480,note_on,2,0,7,,,,,,,,,8,,,62,45
36528,note_on,48,0,7,,,,,,,,,8,,,62,0
36528,note_on,0,0,7,,,,,,,,,8,,,69,45
36574,note_on,94,0,10,,,,,,,,,12,,,50,0
36574,note_on,46,0,7,,,,,,,,,8,,,69,0
36574,note_on,94,0,9,,,,,,,,,11,,,62,0
36576,note_on,2,0,7,,,,,,,,,8,,,66,45
36624,note_on,0,0,7,,,,,,,,,8,,,69,45
36624,note_on,48,0,7,,,,,,,,,8,,,66,0
36640,note_on,160,0,5,,,,,,,,,6,,,78,0
36640,note_on,160,0,6,,,,,,,,,7,,,69,0
36670,note_on,46,0,7,,,,,,,,,8,,,69,0
36672,note_on,98,0,10,,,,,,,,,12,,,45,45
36672,note_on,98,0,9,,,,,,,,,11,,,57,45
36672,note_on,2,0,7,,,,,,,,,8,,,62,45
36720,note_on,48,0,7,,,,,,,,,8,,,62,0
36720,note_on,0,0,7,,,,,,,,,8,,,69,45
36766,note_on,46,0,7,,,,,,,,,8,,,69,0
36766,note_on,94,0,10,,,,,,,,,12,,,45,0
36766,note_on,94,0,9,,,,,,,,,11,,,57,0
36768,note_on,2,0,7,,,,,,,,,8,,,66,45
36768,note_on,128,0,6,,,,,,,,,7,,,62,92
36816,note_on,48,0,7,,,,,,,,,8,,,66,0
36816,note_on,0,0,7,,,,,,,,,8,,,69,45
36862,note_on,46,0,7,,,,,,,,,8,,,69,0
36862,note_on,94,0,6,,,,,,,,,7,,,62,0
36864,note_on,2,0,7,,,,,,,,,8,,,57,45
36864,note_on,98,0,9,,,,,,,,,11,,,54,45
36864,note_on,98,0,10,,,,,,,,,12,,,42,45
36864,note_on,2,0,6,,,,,,,,,7,,,74,92
36912,note_on,0,0,6,,,,,,,,,7,,,72,92
36912,note_on,48,0,6,,,,,,,,,7,,,74,0
36912,note_on,0,0,7,,,,,,,,,8,,,66,45
36912,note_on,48,0,7,,,,,,,,,8,,,57,0
36958,note_on,46,0,6,,,,,,,,,7,,,72,0
36958,note_on,94,0,10,,,,,,,,,12,,,42,0
36958,note_on,94,0,9,,,,,,,,,11,,,54,0
36958,note_on,46,0,7,,,,,,,,,8,,,66,0
36960,note_on,2,0,7,,,,,,,,,8,,,62,45
36960,note_on,2,0,6,,,,,,,,,7,,,71,92
36984,note_on,24,0,6,,,,,,,,,7,,,71,0
36984,note_on,0,0,6,,,,,,,,,7,,,72,92
37008,note_on,24,0,6,,,,,,,,,7,,,72,0
37008,note_on,0,0,6,,,,,,,,,7,,,74,92
37008,note_on,0,0,7,,,,,,,,,8,,,66,45
37008,note_on,48,0,7,,,,,,,,,8,,,62,0
37032,note_on,24,0,6,,,,,,,,,7,,,74,0
37032,note_on,0,0,6,,,,,,,,,7,,,72,92
37054,note_on,46,0,7,,,,,,,,,8,,,66,0
37056,note_on,98,0,10,,,,,,,,,12,,,38,45
37056,note_on,4848,0,8,,,,,,,,,10,,,66,45
37056,note_on,2,0,7,,,,,,,,,8,,,57,45
37056,note_on,98,0,9,,,,,,,,,11,,,50,45
37104,note_on,48,0,7,,,,,,,,,8,,,57,0
37104,note_on,0,0,7,,,,,,,,,8,,,66,45
37150,note_on,118,0,6,,,,,,,,,7,,,72,0
37150,note_on,94,0,8,,,,,,,,,10,,,66,0
37150,note_on,94,0,10,,,,,,,,,12,,,38,0
37150,note_on,94,0,9,,,,,,,,,11,,,50,0
37150,note_on,46,0,7,,,,,,,,,8,,,66,0
37152,note_on,2,0,7,,,,,,,,,8,,,62,45
37152,note_on,2,0,6,,,,,,,,,7,,,71,92
37200,note_on,48,0,7,,,,,,,,,8,,,62,0
37200,note_on,0,0,7,,,,,,,,,8,,,66,45
37200,note_on,0,0,6,,,,,,,,,7,,,69,92
37200,note_on,48,0,6,,,,,,,,,7,,,71,0
37246,note_on,46,0,7,,,,,,,,,8,,,66,0
37246,note_on,46,0,6,,,,,,,,,7,,,69,0
37248,note_on,98,0,8,,,,,,,,,10,,,62,45
37248,note_on,98,0,9,,,,,,,,,11,,,62,45
37248,note_on,2,0,7,,,,,,,,,8,,,57,45
37248,note_on,2,0,6,,,,,,,,,7,,,67,92
37248,note_on,98,0,10,,,,,,,,,12,,,50,45
37296,note_on,0,0,6,,,,,,,,,7,,,66,92
37296,note_on,48,0,6,,,,,,,,,7,,,67,0
37296,note_on,48,0,7,,,,,,,,,8,,,57,0
37296,note_on,0,0,7,,,,,,,,,8,,,62,45
37342,note_on,94,0,10,,,,,,,,,12,,,50,0
37342,note_on,94,0,9,,,,,,,,,11,,,62,0
37342,note_on,46,0,7,,,,,,,,,8,,,62,0
37342,note_on,94,0,8,,,,,,,,,10,,,62,0
37344,note_on,48,0,6,,,,,,,,,7,,,66,0
37344,note_on,0,0,6,,,,,,,,,7,,,64,92
37344,note_on,2,0,7,,,,,,,,,8,,,60,45
37392,note_on,0,0,6,,,,,,,,,7,,,66,92
37392,note_on,48,0,6,,,,,,,,,7,,,64,0
37392,note_on,48,0,7,,,,,,,,,8,,,60,0
37392,note_on,0,0,7,,,,,,,,,8,,,62,45
37438,note_on,46,0,6,,,,,,,,,7,,,66,0
37438,note_on,46,0,7,,,,,,,,,8,,,62,0
37440,note_on,2,0,6,,,,,,,,,7,,,67,45
37440,note_on,800,0,5,,,,,,,,,6,,,78,110
37440,note_on,98,0,8,,,,,,,,,10,,,62,45
37440,note_on,98,0,9,,,,,,,,,11,,,55,45
37440,note_on,98,0,10,,,,,,,,,12,,,43,45
37440,note_on,2,0,7,,,,,,,,,8,,,59,45
37464,note_on,24,0,5,,,,,,,,,6,,,78,0
37464,note_on,0,0,5,,,,,,,,,6,,,79,110
37488,note_on,24,0,5,,,,,,,,,6,,,79,0
37488,note_on,0,0,5,,,,,,,,,6,,,81,110
37488,note_on,0,0,6,,,,,,,,,7,,,71,45
37488,note_on,48,0,6,,,,,,,,,7,,,67,0
37488,note_on,0,0,7,,,,,,,,,8,,,67,45
37488,note_on,48,0,7,,,,,,,,,8,,,59,0
37510,note_on,22,0,5,,,,,,,,,6,,,81,0
37512,note_on,2,0,5,,,,,,,,,6,,,79,110
37534,note_on,46,0,7,,,,,,,,,8,,,67,0
37534,note_on,94,0,9,,,,,,,,,11,,,55,0
37534,note_on,94,0,10,,,,,,,,,12,,,43,0
37534,note_on,94,0,8,,,,,,,,,10,,,62,0
37536,note_on,48,0,6,,,,,,,,,7,,,71,0
37536,note_on,2,0,7,,,,,,,,,8,,,62,45
37536,note_on,0,0,6,,,,,,,,,7,,,76,45
37584,note_on,0,0,7,,,,,,,,,8,,,67,45
37584,note_on,0,0,6,,,,,,,,,7,,,74,45
37584,note_on,48,0,6,,,,,,,,,7,,,76,0
37584,note_on,48,0,7,,,,,,,,,8,,,62,0
37630,note_on,46,0,7,,,,,,,,,8,,,67,0
37630,note_on,46,0,6,,,,,,,,,7,,,74,0
37632,note_on,2,0,6,,,,,,,,,7,,,74,45
37632,note_on,98,0,8,,,,,,,,,10,,,59,45
37632,note_on,98,0,9,,,,,,,,,11,,,43,45
37632,note_on,2,0,7,,,,,,,,,8,,,59,45
37632,note_on,98,0,10,,,,,,,,,12,,,31,45
37678,note_on,166,0,5,,,,,,,,,6,,,79,0
37680,note_on,48,0,7,,,,,,,,,8,,,59,0
37680,note_on,0,0,7,,,,,,,,,8,,,67,45
37680,note_on,2,0,5,,,,,,,,,6,,,78,110
37726,note_on,94,0,8,,,,,,,,,10,,,59,0
37726,note_on,46,0,5,,,,,,,,,6,,,78,0
37726,note_on,94,0,9,,,,,,,,,11,,,43,0
37726,note_on,94,0,10,,,,,,,,,12,,,31,0
37726,note_on,46,0,7,,,,,,,,,8,,,67,0
37728,note_on,2,0,5,,,,,,,,,6,,,78,110
37728,note_on,2,0,7,,,,,,,,,8,,,62,45
37736,note_on,8,0,5,,,,,,,,,6,,,78,0
37736,note_on,0,0,5,,,,,,,,,6,,,76,110
37744,note_on,0,0,5,,,,,,,,,6,,,78,110
37744,note_on,8,0,5,,,,,,,,,6,,,76,0
37752,note_on,0,0,5,,,,,,,,,6,,,76,110
37752,note_on,8,0,5,,,,,,,,,6,,,78,0
37760,note_on,8,0,5,,,,,,,,,6,,,76,0
37760,note_on,0,0,5,,,,,,,,,6,,,78,110
37768,note_on,0,0,5,,,,,,,,,6,,,76,110
37768,note_on,8,0,5,,,,,,,,,6,,,78,0
37774,note_on,6,0,5,,,,,,,,,6,,,76,0
37776,note_on,2,0,5,,,,,,,,,6,,,74,110
37776,note_on,0,0,7,,,,,,,,,8,,,67,45
37776,note_on,48,0,7,,,,,,,,,8,,,62,0
37792,note_on,160,0,6,,,,,,,,,7,,,74,0
37822,note_on,46,0,7,,,,,,,,,8,,,67,0
37822,note_on,46,0,5,,,,,,,,,6,,,74,0
37824,note_on,2,0,7,,,,,,,,,8,,,59,45
37824,note_on,98,0,8,,,,,,,,,10,,,55,45
37824,note_on,2,0,5,,,,,,,,,6,,,74,110
37832,note_on,0,0,5,,,,,,,,,6,,,72,110
37832,note_on,8,0,5,,,,,,,,,6,,,74,0
37840,note_on,8,0,5,,,,,,,,,6,,,72,0
37840,note_on,0,0,5,,,,,,,,,6,,,74,110
37848,note_on,8,0,5,,,,,,,,,6,,,74,0
37848,note_on,0,0,5,,,,,,,,,6,,,72,110
37856,note_on,8,0,5,,,,,,,,,6,,,72,0
37856,note_on,0,0,5,,,,,,,,,6,,,74,110
37864,note_on,8,0,5,,,,,,,,,6,,,74,0
37864,note_on,0,0,5,,,,,,,,,6,,,72,110
37870,note_on,6,0,5,,,,,,,,,6,,,72,0
37872,note_on,0,0,7,,,,,,,,,8,,,67,45
37872,note_on,48,0,7,,,,,,,,,8,,,59,0
37872,note_on,2,0,5,,,,,,,,,6,,,71,110
37918,note_on,46,0,5,,,,,,,,,6,,,71,0
37918,note_on,94,0,8,,,,,,,,,10,,,55,0
37918,note_on,46,0,7,,,,,,,,,8,,,67,0
37920,note_on,2,0,5,,,,,,,,,6,,,71,110
37920,note_on,2,0,7,,,,,,,,,8,,,62,45
37920,note_on,128,0,6,,,,,,,,,7,,,74,92
37928,note_on,0,0,5,,,,,,,,,6,,,69,110
37928,note_on,8,0,5,,,,,,,,,6,,,71,0
37936,note_on,0,0,5,,,,,,,,,6,,,71,110
37936,note_on,8,0,5,,,,,,,,,6,,,69,0
37944,note_on,8,0,5,,,,,,,,,6,,,71,0
37944,note_on,0,0,5,,,,,,,,,6,,,69,110
37952,note_on,8,0,5,,,,,,,,,6,,,69,0
37952,note_on,0,0,5,,,,,,,,,6,,,71,110
37960,note_on,8,0,5,,,,,,,,,6,,,71,0
37960,note_on,0,0,5,,,,,,,,,6,,,69,110
37966,note_on,6,0,5,,,,,,,,,6,,,69,0
37968,note_on,0,0,7,,,,,,,,,8,,,67,45
37968,note_on,48,0,7,,,,,,,,,8,,,62,0
37968,note_on,2,0,5,,,,,,,,,6,,,67,110
38014,note_on,46,0,7,,,,,,,,,8,,,67,0
38014,note_on,46,0,5,,,,,,,,,6,,,67,0
38014,note_on,94,0,6,,,,,,,,,7,,,74,0
38016,note_on,98,0,8,,,,,,,,,10,,,50,45
38016,note_on,2,0,5,,,,,,,,,6,,,66,110
38016,note_on,290,0,9,,,,,,,,,11,,,50,45
38016,note_on,290,0,10,,,,,,,,,12,,,38,45
38016,note_on,2,0,6,,,,,,,,,7,,,86,92
38016,note_on,2,0,7,,,,,,,,,8,,,57,45
38064,note_on,48,0,7,,,,,,,,,8,,,57,0
38064,note_on,0,0,6,,,,,,,,,7,,,84,92
38064,note_on,48,0,6,,,,,,,,,7,,,86,0
38064,note_on,48,0,5,,,,,,,,,6,,,66,0
38064,note_on,0,0,5,,,,,,,,,6,,,69,110
38064,note_on,0,0,7,,,,,,,,,8,,,66,45
38110,note_on,94,0,10,,,,,,,,,12,,,38,0
38110,note_on,46,0,6,,,,,,,,,7,,,84,0
38110,note_on,46,0,5,,,,,,,,,6,,,69,0
38110,note_on,94,0,9,,,,,,,,,11,,,50,0
38110,note_on,46,0,7,,,,,,,,,8,,,66,0
38112,note_on,2,0,7,,,,,,,,,8,,,62,45
38112,note_on,2,0,5,,,,,,,,,6,,,74,110
38112,note_on,2,0,6,,,,,,,,,7,,,83,92
38136,note_on,0,0,6,,,,,,,,,7,,,84,92
38136,note_on,24,0,6,,,,,,,,,7,,,83,0
38160,note_on,48,0,5,,,,,,,,,6,,,74,0
38160,note_on,0,0,7,,,,,,,,,8,,,66,45
38160,note_on,0,0,5,,,,,,,,,6,,,72,110
38160,note_on,48,0,7,,,,,,,,,8,,,62,0
38160,note_on,24,0,6,,,,,,,,,7,,,84,0
38160,note_on,0,0,6,,,,,,,,,7,,,86,92
38176,note_on,160,0,8,,,,,,,,,10,,,50,0
38184,note_on,0,0,6,,,,,,,,,7,,,84,92
38184,note_on,24,0,6,,,,,,,,,7,,,86,0
38206,note_on,46,0,5,,,,,,,,,6,,,72,0
38206,note_on,46,0,7,,,,,,,,,8,,,66,0
38208,note_on,2,0,7,,,,,,,,,8,,,57,45
38208,note_on,2,0,5,,,,,,,,,6,,,72,110
38208,note_on,98,0,9,,,,,,,,,11,,,62,45
38208,note_on,98,0,10,,,,,,,,,12,,,50,45
38256,note_on,48,0,7,,,,,,,,,8,,,57,0
38256,note_on,0,0,7,,,,,,,,,8,,,66,45
38302,note_on,94,0,9,,,,,,,,,11,,,62,0
38302,note_on,46,0,7,,,,,,,,,8,,,66,0
38302,note_on,94,0,10,,,,,,,,,12,,,50,0
38302,note_on,118,0,6,,,,,,,,,7,,,84,0
38304,note_on,2,0,6,,,,,,,,,7,,,83,92
38304,note_on,2,0,7,,,,,,,,,8,,,62,45
38352,note_on,0,0,6,,,,,,,,,7,,,81,92
38352,note_on,0,0,7,,,,,,,,,8,,,66,45
38352,note_on,48,0,7,,,,,,,,,8,,,62,0
38352,note_on,48,0,6,,,,,,,,,7,,,83,0
38368,note_on,160,0,5,,,,,,,,,6,,,72,0
38398,note_on,46,0,6,,,,,,,,,7,,,81,0
38398,note_on,46,0,7,,,,,,,,,8,,,66,0
38400,note_on,98,0,10,,,,,,,,,12,,,48,45
38400,note_on,2,0,7,,,,,,,,,8,,,62,45
38400,note_on,98,0,9,,,,,,,,,11,,,60,45
38400,note_on,2,0,6,,,,,,,,,7,,,79,92
38446,note_on,46,0,6,,,,,,,,,7,,,79,0
38448,note_on,0,0,7,,,,,,,,,8,,,69,45
38448,note_on,48,0,7,,,,,,,,,8,,,62,0
38448,note_on,2,0,6,,,,,,,,,7,,,78,92
38494,note_on,94,0,10,,,,,,,,,12,,,48,0
38494,note_on,46,0,7,,,,,,,,,8,,,69,0
38494,note_on,94,0,9,,,,,,,,,11,,,60,0
38494,note_on,46,0,6,,,,,,,,,7,,,78,0
38496,note_on,2,0,6,,,,,,,,,7,,,76,92
38496,note_on,128,0,5,,,,,,,,,6,,,74,110
38496,note_on,2,0,7,,,,,,,,,8,,,66,45
38542,note_on,46,0,6,,,,,,,,,7,,,76,0
38544,note_on,0,0,7,,,,,,,,,8,,,69,45
38544,note_on,48,0,7,,,,,,,,,8,,,66,0
38544,note_on,2,0,6,,,,,,,,,7,,,74,92
38590,note_on,94,0,5,,,,,,,,,6,,,74,0
38590,note_on,46,0,7,,,,,,,,,8,,,69,0
38590,note_on,46,0,6,,,,,,,,,7,,,74,0
38592,note_on,98,0,10,,,,,,,,,12,,,47,45
38592,note_on,2,0,5,,,,,,,,,6,,,78,110
38592,note_on,98,0,9,,,,,,,,,11,,,59,45
38592,note_on,2,0,7,,,,,,,,,8,,,74,45
38592,note_on,2,0,6,,,,,,,,,7,,,79,45
38616,note_on,24,0,5,,,,,,,,,6,,,78,0
38616,note_on,0,0,5,,,,,,,,,6,,,79,110
38640,note_on,0,0,6,,,,,,,,,7,,,83,45
38640,note_on,0,0,5,,,,,,,,,6,,,81,110
38640,note_on,24,0,5,,,,,,,,,6,,,79,0
38640,note_on,48,0,6,,,,,,,,,7,,,79,0
38662,note_on,22,0,5,,,,,,,,,6,,,81,0
38664,note_on,2,0,5,,,,,,,,,6,,,79,110
38686,note_on,94,0,7,,,,,,,,,8,,,74,0
38688,note_on,48,0,6,,,,,,,,,7,,,83,0
38688,note_on,0,0,6,,,,,,,,,7,,,88,45
38688,note_on,2,0,7,,,,,,,,,8,,,71,45
38736,note_on,0,0,6,,,,,,,,,7,,,86,45
38736,note_on,48,0,6,,,,,,,,,7,,,88,0
38752,note_on,2464,0,3,,,,,,,,,5,,,62,0
38752,note_on,2464,0,4,,,,,,,,,5,,,50,0
38782,note_on,46,0,6,,,,,,,,,7,,,86,0
38782,note_on,94,0,7,,,,,,,,,8,,,71,0
38784,note_on,2,0,7,,,,,,,,,8,,,67,45
38784,note_on,2,0,6,,,,,,,,,7,,,86,45
38830,note_on,166,0,5,,,,,,,,,6,,,79,0
38832,note_on,2,0,5,,,,,,,,,6,,,78,110
38878,note_on,286,0,10,,,,,,,,,12,,,47,0
38878,note_on,94,0,6,,,,,,,,,7,,,86,0
38878,note_on,94,0,7,,,,,,,,,8,,,67,0
38878,note_on,286,0,9,,,,,,,,,11,,,59,0
38880,note_on,2,0,6,,,,,,,,,7,,,74,45
38880,note_on,48,0,5,,,,,,,,,6,,,78,0
38880,note_on,0,0,5,,,,,,,,,6,,,79,110
38880,note_on,2,0,7,,,,,,,,,8,,,59,45
38928,note_on,48,0,5,,,,,,,,,6,,,79,0
38928,note_on,0,0,5,,,,,,,,,6,,,78,110
38974,note_on,94,0,7,,,,,,,,,8,,,59,0
38974,note_on,46,0,5,,,,,,,,,6,,,78,0
38974,note_on,94,0,6,,,,,,,,,7,,,74,0
38976,note_on,2,0,6,,,,,,,,,7,,,74,45
38976,note_on,2,0,7,,,,,,,,,8,,,59,45
38976,note_on,2,0,5,,,,,,,,,6,,,79,110
39024,note_on,48,0,5,,,,,,,,,6,,,79,0
39024,note_on,0,0,5,,,,,,,,,6,,,77,110
39070,note_on,94,0,7,,,,,,,,,8,,,59,0
39070,note_on,46,0,5,,,,,,,,,6,,,77,0
39070,note_on,94,0,6,,,,,,,,,7,,,74,0
39072,note_on,2,0,7,,,,,,,,,8,,,59,45
39072,note_on,2,0,5,,,,,,,,,6,,,76,110
39072,note_on,2,0,6,,,,,,,,,7,,,67,45
39120,note_on,48,0,5,,,,,,,,,6,,,76,0
39120,note_on,0,0,5,,,,,,,,,6,,,75,110
39166,note_on,94,0,6,,,,,,,,,7,,,67,0
39166,note_on,46,0,5,,,,,,,,,6,,,75,0
39166,note_on,94,0,7,,,,,,,,,8,,,59,0
39168,note_on,2,0,5,,,,,,,,,6,,,76,110
39168,note_on,2,0,6,,,,,,,,,7,,,67,45
39168,note_on,2,0,7,,,,,,,,,8,,,60,45
39262,note_on,94,0,6,,,,,,,,,7,,,67,0
39262,note_on,94,0,7,,,,,,,,,8,,,60,0
39264,note_on,2,0,7,,,,,,,,,8,,,60,45
39264,note_on,2,0,6,,,,,,,,,7,,,67,45
39358,note_on,94,0,6,,,,,,,,,7,,,67,0
39358,note_on,94,0,7,,,,,,,,,8,,,60,0
39360,note_on,2,0,6,,,,,,,,,7,,,67,45
39360,note_on,0,0,5,,,,,,,,,6,,,88,110
39360,note_on,192,0,5,,,,,,,,,6,,,76,0
39360,note_on,2,0,7,,,,,,,,,8,,,60,45
39454,note_on,94,0,6,,,,,,,,,7,,,67,0
39454,note_on,94,0,7,,,,,,,,,8,,,60,0
39456,note_on,2,0,6,,,,,,,,,7,,,67,45
39456,note_on,2,0,7,,,,,,,,,8,,,60,45
39550,note_on,94,0,7,,,,,,,,,8,,,60,0
39550,note_on,94,0,6,,,,,,,,,7,,,67,0
39552,note_on,2,0,7,,,,,,,,,8,,,62,45
39552,note_on,192,0,5,,,,,,,,,6,,,88,0
39552,note_on,0,0,5,,,,,,,,,6,,,86,110
39552,note_on,2,0,6,,,,,,,,,7,,,66,45
39646,note_on,94,0,7,,,,,,,,,8,,,62,0
39646,note_on,94,0,6,,,,,,,,,7,,,66,0
39648,note_on,2,0,6,,,,,,,,,7,,,66,45
39648,note_on,2,0,7,,,,,,,,,8,,,62,45
39742,note_on,94,0,6,,,,,,,,,7,,,66,0
39742,note_on,94,0,7,,,,,,,,,8,,,62,0
39744,note_on,2,0,7,,,,,,,,,8,,,64,45
39744,note_on,2,0,6,,,,,,,,,7,,,67,45
39838,note_on,286,0,5,,,,,,,,,6,,,86,0
39840,note_on,2,0,5,,,,,,,,,6,,,85,110
39936,note_on,0,0,6,,,,,,,,,7,,,69,45
39936,note_on,192,0,6,,,,,,,,,7,,,67,0
39936,note_on,192,0,7,,,,,,,,,8,,,64,0
39936,note_on,0,0,7,,,,,,,,,8,,,66,45
40000,note_on,160,0,5,,,,,,,,,6,,,85,0
40032,note_on,32,0,5,,,,,,,,,6,,,84,110
40128,note_on,192,0,7,,,,,,,,,8,,,66,0
40128,note_on,0,0,7,,,,,,,,,8,,,67,45
40128,note_on,192,0,6,,,,,,,,,7,,,69,0
40128,note_on,0,0,6,,,,,,,,,7,,,74,45
40192,note_on,160,0,5,,,,,,,,,6,,,84,0
40224,note_on,32,0,5,,,,,,,,,6,,,83,110
40288,note_on,160,0,7,,,,,,,,,8,,,67,0
40288,note_on,160,0,6,,,,,,,,,7,,,74,0
40320,note_on,32,0,6,,,,,,,,,7,,,76,45
40320,note_on,32,0,7,,,,,,,,,8,,,60,45
40368,note_on,0,0,5,,,,,,,,,6,,,81,110
40368,note_on,144,0,5,,,,,,,,,6,,,83,0
40414,note_on,94,0,7,,,,,,,,,8,,,60,0
40416,note_on,2,0,7,,,,,,,,,8,,,60,45
40416,note_on,48,0,5,,,,,,,,,6,,,81,0
40416,note_on,0,0,5,,,,,,,,,6,,,84,110
40462,note_on,142,0,6,,,,,,,,,7,,,76,0
40464,note_on,0,0,5,,,,,,,,,6,,,81,110
40464,note_on,48,0,5,,,,,,,,,6,,,84,0
40464,note_on,2,0,6,,,,,,,,,7,,,72,45
40510,note_on,94,0,7,,,,,,,,,8,,,60,0
40510,note_on,46,0,5,,,,,,,,,6,,,81,0
40510,note_on,46,0,6,,,,,,,,,7,,,72,0
40512,note_on,2,0,7,,,,,,,,,8,,,62,45
40512,note_on,2,0,6,,,,,,,,,7,,,71,45
40512,note_on,2,0,5,,,,,,,,,6,,,79,110
40560,note_on,0,0,6,,,,,,,,,7,,,72,45
40560,note_on,48,0,6,,,,,,,,,7,,,71,0
40606,note_on,94,0,7,,,,,,,,,8,,,62,0
40608,note_on,0,0,6,,,,,,,,,7,,,74,45
40608,note_on,48,0,6,,,,,,,,,7,,,72,0
40608,note_on,2,0,7,,,,,,,,,8,,,62,45
40656,note_on,0,0,6,,,,,,,,,7,,,71,45
40656,note_on,48,0,6,,,,,,,,,7,,,74,0
40672,note_on,160,0,5,,,,,,,,,6,,,79,0
40702,note_on,46,0,6,,,,,,,,,7,,,71,0
40702,note_on,94,0,7,,,,,,,,,8,,,62,0
40704,note_on,32,0,5,,,,,,,,,6,,,79,110
40704,note_on,2,0,7,,,,,,,,,8,,,63,45
40704,note_on,2,0,6,,,,,,,,,7,,,69,45
40712,note_on,0,0,5,,,,,,,,,6,,,78,110
40712,note_on,8,0,5,,,,,,,,,6,,,79,0
40720,note_on,8,0,5,,,,,,,,,6,,,78,0
40720,note_on,0,0,5,,,,,,,,,6,,,79,110
40728,note_on,8,0,5,,,,,,,,,6,,,79,0
40728,note_on,0,0,5,,,,,,,,,6,,,78,110
40736,note_on,8,0,5,,,,,,,,,6,,,78,0
40736,note_on,0,0,5,,,,,,,,,6,,,79,110
40744,note_on,8,0,5,,,,,,,,,6,,,79,0
40744,note_on,0,0,5,,,,,,,,,6,,,78,110
40750,note_on,6,0,5,,,,,,,,,6,,,78,0
40752,note_on,48,0,6,,,,,,,,,7,,,69,0
40752,note_on,0,0,6,,,,,,,,,7,,,71,45
40752,note_on,2,0,5,,,,,,,,,6,,,79,110
40760,note_on,0,0,5,,,,,,,,,6,,,78,110
40760,note_on,8,0,5,,,,,,,,,6,,,79,0
40768,note_on,8,0,5,,,,,,,,,6,,,78,0
40768,note_on,0,0,5,,,,,,,,,6,,,79,110
40776,note_on,8,0,5,,,,,,,,,6,,,79,0
40776,note_on,0,0,5,,,,,,,,,6,,,78,110
40784,note_on,8,0,5,,,,,,,,,6,,,78,0
40784,note_on,0,0,5,,,,,,,,,6,,,79,110
40792,note_on,0,0,5,,,,,,,,,6,,,78,110
40792,note_on,8,0,5,,,,,,,,,6,,,79,0
40798,note_on,94,0,7,,,,,,,,,8,,,63,0
40798,note_on,6,0,5,,,,,,,,,6,,,78,0
40800,note_on,2,0,5,,,,,,,,,6,,,79,110
40800,note_on,2,0,7,,,,,,,,,8,,,63,45
40800,note_on,0,0,6,,,,,,,,,7,,,72,45
40800,note_on,48,0,6,,,,,,,,,7,,,71,0
40808,note_on,0,0,5,,,,,,,,,6,,,78,110
40808,note_on,8,0,5,,,,,,,,,6,,,79,0
40816,note_on,0,0,5,,,,,,,,,6,,,79,110
40816,note_on,8,0,5,,,,,,,,,6,,,78,0
40824,note_on,8,0,5,,,,,,,,,6,,,79,0
40824,note_on,0,0,5,,,,,,,,,6,,,78,110
40832,note_on,8,0,5,,,,,,,,,6,,,78,0
40832,note_on,0,0,5,,,,,,,,,6,,,79,110
40840,note_on,8,0,5,,,,,,,,,6,,,79,0
40840,note_on,0,0,5,,,,,,,,,6,,,78,110
40846,note_on,6,0,5,,,,,,,,,6,,,78,0
40848,note_on,0,0,6,,,,,,,,,7,,,69,45
40848,note_on,2,0,5,,,,,,,,,6,,,76,110
40848,note_on,48,0,6,,,,,,,,,7,,,72,0
40870,note_on,22,0,5,,,,,,,,,6,,,76,0
40872,note_on,2,0,5,,,,,,,,,6,,,78,110
40894,note_on,94,0,7,,,,,,,,,8,,,63,0
40894,note_on,46,0,6,,,,,,,,,7,,,69,0
40894,note_on,22,0,5,,,,,,,,,6,,,78,0
40896,note_on,2,0,5,,,,,,,,,6,,,78,110
40896,note_on,2,0,7,,,,,,,,,8,,,63,45
40896,note_on,2,0,6,,,,,,,,,7,,,72,45
40960,note_on,64,0,5,,,,,,,,,6,,,78,0
40960,note_on,0,0,5,,,,,,,,,6,,,81,110
41024,note_on,64,0,5,,,,,,,,,6,,,81,0
41024,note_on,0,0,5,,,,,,,,,6,,,79,110
41040,note_on,0,0,7,,,,,,,,,8,,,64,45
41040,note_on,0,0,6,,,,,,,,,7,,,71,45
41040,note_on,144,0,7,,,,,,,,,8,,,63,0
41040,note_on,144,0,6,,,,,,,,,7,,,72,0
41086,note_on,62,0,5,,,,,,,,,6,,,79,0
41086,note_on,46,0,6,,,,,,,,,7,,,71,0
41086,note_on,46,0,7,,,,,,,,,8,,,64,0
41088,note_on,2,0,6,,,,,,,,,7,,,71,45
41088,note_on,2,0,5,,,,,,,,,6,,,79,110
41088,note_on,2,0,7,,,,,,,,,8,,,64,45
41248,note_on,160,0,7,,,,,,,,,8,,,64,0
41248,note_on,160,0,6,,,,,,,,,7,,,71,0
41248,note_on,160,0,5,,,,,,,,,6,,,79,0
41472,note_on,2594,0,9,,,,,,,,,11,,,60,45
41472,note_on,224,0,6,,,,,,,,,7,,,67,45
41472,note_on,224,0,5,,,,,,,,,6,,,75,110
41472,note_on,2594,0,10,,,,,,,,,12,,,48,45
41472,note_on,224,0,7,,,,,,,,,8,,,64,45
41472,note_on,3296,0,8,,,,,,,,,10,,,60,45
41496,note_on,0,0,5,,,,,,,,,6,,,76,110
41496,note_on,24,0,5,,,,,,,,,6,,,75,0
41520,note_on,24,0,5,,,,,,,,,6,,,76,0
41520,note_on,0,0,5,,,,,,,,,6,,,78,110
41542,note_on,22,0,5,,,,,,,,,6,,,78,0
41544,note_on,2,0,5,,,,,,,,,6,,,76,110
41566,note_on,94,0,9,,,,,,,,,11,,,60,0
41566,note_on,94,0,7,,,,,,,,,8,,,64,0
41566,note_on,94,0,10,,,,,,,,,12,,,48,0
41566,note_on,94,0,6,,,,,,,,,7,,,67,0
41568,note_on,2,0,9,,,,,,,,,11,,,60,45
41568,note_on,2,0,6,,,,,,,,,7,,,67,45
41568,note_on,2,0,7,,,,,,,,,8,,,64,45
41568,note_on,2,0,10,,,,,,,,,12,,,48,45
41662,note_on,94,0,9,,,,,,,,,11,,,60,0
41662,note_on,94,0,7,,,,,,,,,8,,,64,0
41662,note_on,94,0,10,,,,,,,,,12,,,48,0
41662,note_on,94,0,6,,,,,,,,,7,,,67,0
41662,note_on,118,0,5,,,,,,,,,6,,,76,0
41664,note_on,2,0,5,,,,,,,,,6,,,88,110
41664,note_on,2,0,9,,,,,,,,,11,,,57,45
41664,note_on,192,0,8,,,,,,,,,10,,,60,0
41664,note_on,0,0,8,,,,,,,,,10,,,57,45
41664,note_on,2,0,10,,,,,,,,,12,,,45,45
41664,note_on,2,0,7,,,,,,,,,8,,,72,45
41664,note_on,2,0,6,,,,,,,,,7,,,66,45
41758,note_on,94,0,7,,,,,,,,,8,,,72,0
41758,note_on,94,0,9,,,,,,,,,11,,,57,0
41758,note_on,94,0,6,,,,,,,,,7,,,66,0
41758,note_on,94,0,10,,,,,,,,,12,,,45,0
41760,note_on,2,0,9,,,,,,,,,11,,,57,45
41760,note_on,2,0,6,,,,,,,,,7,,,66,45
41760,note_on,2,0,10,,,,,,,,,12,,,45,45
41760,note_on,2,0,7,,,,,,,,,8,,,72,45
41824,note_on,160,0,5,,,,,,,,,6,,,88,0
41854,note_on,94,0,6,,,,,,,,,7,,,66,0
41854,note_on,94,0,7,,,,,,,,,8,,,72,0
41854,note_on,94,0,9,,,,,,,,,11,,,57,0
41854,note_on,94,0,10,,,,,,,,,12,,,45,0
41856,note_on,2,0,7,,,,,,,,,8,,,71,45
41856,note_on,0,0,8,,,,,,,,,10,,,59,45
41856,note_on,2,0,9,,,,,,,,,11,,,59,45
41856,note_on,2,0,10,,,,,,,,,12,,,47,45
41856,note_on,32,0,5,,,,,,,,,6,,,86,110
41856,note_on,192,0,8,,,,,,,,,10,,,57,0
41856,note_on,2,0,6,,,,,,,,,7,,,67,45
41950,note_on,94,0,7,,,,,,,,,8,,,71,0
41950,note_on,94,0,6,,,,,,,,,7,,,67,0
41950,note_on,94,0,9,,,,,,,,,11,,,59,0
41950,note_on,94,0,10,,,,,,,,,12,,,47,0
41952,note_on,2,0,10,,,,,,,,,12,,,47,45
41952,note_on,2,0,7,,,,,,,,,8,,,71,45
41952,note_on,2,0,6,,,,,,,,,7,,,67,45
41952,note_on,2,0,9,,,,,,,,,11,,,59,45
42016,note_on,160,0,8,,,,,,,,,10,,,59,0
42046,note_on,94,0,7,,,,,,,,,8,,,71,0
42046,note_on,94,0,9,,,,,,,,,11,,,59,0
42046,note_on,94,0,10,,,,,,,,,12,,,47,0
42046,note_on,94,0,6,,,,,,,,,7,,,67,0
42048,note_on,2,0,9,,,,,,,,,11,,,52,45
42048,note_on,2,0,10,,,,,,,,,12,,,40,45
42048,note_on,32,0,8,,,,,,,,,10,,,52,45
42048,note_on,2,0,6,,,,,,,,,7,,,69,45
42048,note_on,2,0,7,,,,,,,,,8,,,67,45
42142,note_on,286,0,5,,,,,,,,,6,,,86,0
42144,note_on,2,0,5,,,,,,,,,6,,,85,110
42208,note_on,160,0,6,,,,,,,,,7,,,69,0
42240,note_on,192,0,8,,,,,,,,,10,,,52,0
42240,note_on,192,0,7,,,,,,,,,8,,,67,0
42240,note_on,0,0,7,,,,,,,,,8,,,69,45
42240,note_on,192,0,9,,,,,,,,,11,,,52,0
42240,note_on,0,0,8,,,,,,,,,10,,,54,45
42240,note_on,192,0,10,,,,,,,,,12,,,40,0
42240,note_on,32,0,6,,,,,,,,,7,,,74,45
42240,note_on,0,0,9,,,,,,,,,11,,,54,45
42240,note_on,0,0,10,,,,,,,,,12,,,42,45
42304,note_on,160,0,5,,,,,,,,,6,,,85,0
42336,note_on,32,0,5,,,,,,,,,6,,,84,110
42432,note_on,0,0,8,,,,,,,,,10,,,55,45
42432,note_on,192,0,8,,,,,,,,,10,,,54,0
42432,note_on,192,0,9,,,,,,,,,11,,,54,0
42432,note_on,192,0,10,,,,,,,,,12,,,42,0
42432,note_on,0,0,7,,,,,,,,,8,,,67,45
42432,note_on,192,0,7,,,,,,,,,8,,,69,0
42432,note_on,0,0,10,,,,,,,,,12,,,43,45
42432,note_on,0,0,9,,,,,,,,,11,,,55,45
42496,note_on,160,0,5,,,,,,,,,6,,,84,0
42528,note_on,288,0,6,,,,,,,,,7,,,74,0
42528,note_on,0,0,6,,,,,,,,,7,,,75,45
42528,note_on,32,0,5,,,,,,,,,6,,,83,110
42592,note_on,160,0,8,,,,,,,,,10,,,55,0
42592,note_on,160,0,7,,,,,,,,,8,,,67,0
42592,note_on,160,0,10,,,,,,,,,12,,,43,0
42592,note_on,160,0,9,,,,,,,,,11,,,55,0
42622,note_on,94,0,6,,,,,,,,,7,,,75,0
42622,note_on,94,0,5,,,,,,,,,6,,,83,0
42624,note_on,32,0,9,,,,,,,,,11,,,48,45
42624,note_on,2,0,5,,,,,,,,,6,,,80,110
42624,note_on,2,0,6,,,,,,,,,7,,,76,45
42624,note_on,32,0,7,,,,,,,,,8,,,64,45
42624,note_on,32,0,10,,,,,,,,,12,,,36,45
42718,note_on,94,0,6,,,,,,,,,7,,,76,0
42720,note_on,96,0,5,,,,,,,,,6,,,80,0
42720,note_on,96,0,7,,,,,,,,,8,,,64,0
42720,note_on,0,0,7,,,,,,,,,8,,,72,45
42720,note_on,2,0,6,,,,,,,,,7,,,76,45
42720,note_on,128,0,8,,,,,,,,,10,,,60,45
42720,note_on,0,0,5,,,,,,,,,6,,,81,110
42784,note_on,160,0,10,,,,,,,,,12,,,36,0
42784,note_on,160,0,9,,,,,,,,,11,,,48,0
42814,note_on,94,0,6,,,,,,,,,7,,,76,0
42814,note_on,94,0,7,,,,,,,,,8,,,72,0
42814,note_on,94,0,8,,,,,,,,,10,,,60,0
42816,note_on,2,0,6,,,,,,,,,7,,,76,45
42816,note_on,2,0,7,,,,,,,,,8,,,72,45
42816,note_on,2,0,8,,,,,,,,,10,,,60,45
42864,note_on,0,0,5,,,,,,,,,6,,,83,110
42864,note_on,144,0,5,,,,,,,,,6,,,81,0
42910,note_on,94,0,8,,,,,,,,,10,,,60,0
42912,note_on,0,0,7,,,,,,,,,8,,,69,45
42912,note_on,96,0,7,,,,,,,,,8,,,72,0
42912,note_on,0,0,6,,,,,,,,,7,,,72,45
42912,note_on,96,0,6,,,,,,,,,7,,,76,0
42912,note_on,0,0,5,,,,,,,,,6,,,84,110
42912,note_on,48,0,5,,,,,,,,,6,,,83,0
42912,note_on,2,0,8,,,,,,,,,10,,,60,45
42960,note_on,0,0,5,,,,,,,,,6,,,83,110
42960,note_on,48,0,5,,,,,,,,,6,,,84,0
43006,note_on,94,0,8,,,,,,,,,10,,,60,0
43006,note_on,94,0,7,,,,,,,,,8,,,69,0
43006,note_on,94,0,6,,,,,,,,,7,,,72,0
43006,note_on,46,0,5,,,,,,,,,6,,,83,0
43008,note_on,2,0,5,,,,,,,,,6,,,81,110
43008,note_on,2,0,8,,,,,,,,,10,,,60,45
43008,note_on,2,0,7,,,,,,,,,8,,,72,45
43008,note_on,2,0,6,,,,,,,,,7,,,76,45
43056,note_on,0,0,5,,,,,,,,,6,,,79,110
43056,note_on,48,0,5,,,,,,,,,6,,,81,0
43102,note_on,94,0,8,,,,,,,,,10,,,60,0
43104,note_on,96,0,6,,,,,,,,,7,,,76,0
43104,note_on,2,0,8,,,,,,,,,10,,,60,45
43104,note_on,96,0,7,,,,,,,,,8,,,72,0
43104,note_on,0,0,7,,,,,,,,,8,,,69,45
43104,note_on,0,0,6,,,,,,,,,7,,,72,45
43104,note_on,0,0,5,,,,,,,,,6,,,78,110
43104,note_on,48,0,5,,,,,,,,,6,,,79,0
43152,note_on,0,0,5,,,,,,,,,6,,,76,110
43152,note_on,48,0,5,,,,,,,,,6,,,78,0
43198,note_on,94,0,7,,,,,,,,,8,,,69,0
43198,note_on,46,0,5,,,,,,,,,6,,,76,0
43198,note_on,94,0,8,,,,,,,,,10,,,60,0
43198,note_on,94,0,6,,,,,,,,,7,,,72,0
43200,note_on,416,0,9,,,,,,,,,11,,,50,45
43200,note_on,4448,0,4,,,,,,,,,5,,,62,45
43200,note_on,2,0,5,,,,,,,,,6,,,74,110
43200,note_on,4448,0,3,,,,,,,,,5,,,74,45
43200,note_on,416,0,10,,,,,,,,,12,,,38,45
43296,note_on,98,0,7,,,,,,,,,8,,,67,45
43296,note_on,98,0,8,,,,,,,,,10,,,62,45
43296,note_on,98,0,6,,,,,,,,,7,,,71,45
43360,note_on,160,0,10,,,,,,,,,12,,,38,0
43360,note_on,160,0,9,,,,,,,,,11,,,50,0
43360,note_on,160,0,3,,,,,,,,,5,,,74,0
43360,note_on,160,0,5,,,,,,,,,6,,,74,0
43360,note_on,160,0,4,,,,,,,,,5,,,62,0
43390,note_on,94,0,7,,,,,,,,,8,,,67,0
43390,note_on,94,0,6,,,,,,,,,7,,,71,0
43390,note_on,94,0,8,,,,,,,,,10,,,62,0
43392,note_on,2,0,6,,,,,,,,,7,,,71,45
43392,note_on,32,0,5,,,,,,,,,6,,,86,110
43392,note_on,32,0,3,,,,,,,,,5,,,71,45
43392,note_on,2,0,8,,,,,,,,,10,,,62,45
43392,note_on,32,0,4,,,,,,,,,5,,,59,45
43392,note_on,2,0,7,,,,,,,,,8,,,67,45
43486,note_on,94,0,7,,,,,,,,,8,,,67,0
43486,note_on,94,0,6,,,,,,,,,7,,,71,0
43486,note_on,94,0,8,,,,,,,,,10,,,62,0
43488,note_on,2,0,6,,,,,,,,,7,,,71,45
43488,note_on,2,0,8,,,,,,,,,10,,,62,45
43488,note_on,2,0,7,,,,,,,,,8,,,67,45
43552,note_on,160,0,3,,,,,,,,,5,,,71,0
43552,note_on,160,0,4,,,,,,,,,5,,,59,0
43582,note_on,94,0,7,,,,,,,,,8,,,67,0
43582,note_on,94,0,6,,,,,,,,,7,,,71,0
43582,note_on,94,0,8,,,,,,,,,10,,,62,0
43584,note_on,32,0,3,,,,,,,,,5,,,67,45
43584,note_on,2,0,6,,,,,,,,,7,,,71,45
43584,note_on,2,0,7,,,,,,,,,8,,,67,45
43584,note_on,32,0,4,,,,,,,,,5,,,55,45
43584,note_on,2,0,8,,,,,,,,,10,,,62,45
43648,note_on,256,0,5,,,,,,,,,6,,,86,0
43678,note_on,94,0,6,,,,,,,,,7,,,71,0
43678,note_on,94,0,7,,,,,,,,,8,,,67,0
43678,note_on,94,0,8,,,,,,,,,10,,,62,0
43680,note_on,2,0,8,,,,,,,,,10,,,62,45
43680,note_on,2,0,6,,,,,,,,,7,,,71,45
43680,note_on,32,0,5,,,,,,,,,6,,,83,110
43680,note_on,2,0,7,,,,,,,,,8,,,67,45
43728,note_on,0,0,5,,,,,,,,,6,,,79,110
43728,note_on,48,0,5,,,,,,,,,6,,,83,0
43744,note_on,160,0,3,,,,,,,,,5,,,67,0
43744,note_on,160,0,4,,,,,,,,,5,,,55,0
43774,note_on,94,0,7,,,,,,,,,8,,,67,0
43774,note_on,94,0,6,,,,,,,,,7,,,71,0
43774,note_on,94,0,8,,,,,,,,,10,,,62,0
43774,note_on,46,0,5,,,,,,,,,6,,,79,0
43776,note_on,32,0,3,,,,,,,,,5,,,62,45
43776,note_on,32,0,4,,,,,,,,,5,,,50,45
43776,note_on,416,0,10,,,,,,,,,12,,,38,45
43776,note_on,416,0,9,,,,,,,,,11,,,50,45
43776,note_on,2,0,5,,,,,,,,,6,,,83,110
43784,note_on,8,0,5,,,,,,,,,6,,,83,0
43784,note_on,0,0,5,,,,,,,,,6,,,81,110
43792,note_on,8,0,5,,,,,,,,,6,,,81,0
43792,note_on,0,0,5,,,,,,,,,6,,,83,110
43800,note_on,8,0,5,,,,,,,,,6,,,83,0
43800,note_on,0,0,5,,,,,,,,,6,,,81,110
43808,note_on,0,0,5,,,,,,,,,6,,,83,110
43808,note_on,8,0,5,,,,,,,,,6,,,81,0
43816,note_on,0,0,5,,,,,,,,,6,,,81,110
43816,note_on,8,0,5,,,,,,,,,6,,,83,0
43822,note_on,6,0,5,,,,,,,,,6,,,81,0
43824,note_on,2,0,5,,,,,,,,,6,,,83,110
43832,note_on,0,0,5,,,,,,,,,6,,,81,110
43832,note_on,8,0,5,,,,,,,,,6,,,83,0
43840,note_on,0,0,5,,,,,,,,,6,,,83,110
43840,note_on,8,0,5,,,,,,,,,6,,,81,0
43848,note_on,8,0,5,,,,,,,,,6,,,83,0
43848,note_on,0,0,5,,,,,,,,,6,,,81,110
43856,note_on,0,0,5,,,,,,,,,6,,,83,110
43856,note_on,8,0,5,,,,,,,,,6,,,81,0
43864,note_on,0,0,5,,,,,,,,,6,,,81,110
43864,note_on,8,0,5,,,,,,,,,6,,,83,0
43870,note_on,6,0,5,,,,,,,,,6,,,81,0
43872,note_on,98,0,7,,,,,,,,,8,,,66,45
43872,note_on,2,0,5,,,,,,,,,6,,,83,110
43872,note_on,98,0,6,,,,,,,,,7,,,72,45
43872,note_on,98,0,8,,,,,,,,,10,,,50,45
43872,note_on,0,0,8,,,,,,,,,10,,,62,45
43880,note_on,0,0,5,,,,,,,,,6,,,81,110
43880,note_on,8,0,5,,,,,,,,,6,,,83,0
43888,note_on,8,0,5,,,,,,,,,6,,,81,0
43888,note_on,0,0,5,,,,,,,,,6,,,83,110
43896,note_on,0,0,5,,,,,,,,,6,,,81,110
43896,note_on,8,0,5,,,,,,,,,6,,,83,0
43904,note_on,0,0,5,,,,,,,,,6,,,83,110
43904,note_on,8,0,5,,,,,,,,,6,,,81,0
43912,note_on,0,0,5,,,,,,,,,6,,,81,110
43912,note_on,8,0,5,,,,,,,,,6,,,83,0
43918,note_on,6,0,5,,,,,,,,,6,,,81,0
43920,note_on,2,0,5,,,,,,,,,6,,,83,110
43928,note_on,8,0,5,,,,,,,,,6,,,83,0
43928,note_on,0,0,5,,,,,,,,,6,,,81,110
43936,note_on,8,0,5,,,,,,,,,6,,,81,0
43936,note_on,0,0,5,,,,,,,,,6,,,83,110
43936,note_on,160,0,9,,,,,,,,,11,,,50,0
43936,note_on,160,0,10,,,,,,,,,12,,,38,0
43944,note_on,8,0,5,,,,,,,,,6,,,83,0
43944,note_on,0,0,5,,,,,,,,,6,,,81,110
43952,note_on,0,0,5,,,,,,,,,6,,,83,110
43952,note_on,8,0,5,,,,,,,,,6,,,81,0
43960,note_on,8,0,5,,,,,,,,,6,,,83,0
43960,note_on,0,0,5,,,,,,,,,6,,,81,110
43966,note_on,94,0,7,,,,,,,,,8,,,66,0
43966,note_on,6,0,5,,,,,,,,,6,,,81,0
43966,note_on,94,0,6,,,,,,,,,7,,,72,0
43966,note_on,0,0,8,,,,,,,,,10,,,62,0
43966,note_on,94,0,8,,,,,,,,,10,,,50,0
43968,note_on,0,0,8,,,,,,,,,10,,,62,54
43968,note_on,2,0,7,,,,,,,,,8,,,66,54
43968,note_on,2,0,6,,,,,,,,,7,,,72,54
43968,note_on,2,0,5,,,,,,,,,6,,,83,110
43968,note_on,2,0,8,,,,,,,,,10,,,50,54
43976,note_on,8,0,5,,,,,,,,,6,,,83,0
43976,note_on,0,0,5,,,,,,,,,6,,,81,110
43984,note_on,8,0,5,,,,,,,,,6,,,81,0
43984,note_on,0,0,5,,,,,,,,,6,,,83,110
43992,note_on,8,0,5,,,,,,,,,6,,,83,0
43992,note_on,0,0,5,,,,,,,,,6,,,81,110
44000,note_on,0,0,5,,,,,,,,,6,,,83,110
44000,note_on,8,0,5,,,,,,,,,6,,,81,0
44008,note_on,0,0,5,,,,,,,,,6,,,81,110
44008,note_on,8,0,5,,,,,,,,,6,,,83,0
44014,note_on,6,0,5,,,,,,,,,6,,,81,0
44016,note_on,2,0,5,,,,,,,,,6,,,83,110
44024,note_on,0,0,5,,,,,,,,,6,,,81,110
44024,note_on,8,0,5,,,,,,,,,6,,,83,0
44032,note_on,0,0,5,,,,,,,,,6,,,83,110
44032,note_on,8,0,5,,,,,,,,,6,,,81,0
44040,note_on,0,0,5,,,,,,,,,6,,,81,110
44040,note_on,8,0,5,,,,,,,,,6,,,83,0
44048,note_on,0,0,5,,,,,,,,,6,,,83,110
44048,note_on,8,0,5,,,,,,,,,6,,,81,0
44056,note_on,8,0,5,,,,,,,,,6,,,83,0
44056,note_on,0,0,5,,,,,,,,,6,,,81,110
44062,note_on,6,0,5,,,,,,,,,6,,,81,0
44062,note_on,94,0,6,,,,,,,,,7,,,72,0
44062,note_on,94,0,7,,,,,,,,,8,,,66,0
44062,note_on,0,0,8,,,,,,,,,10,,,62,0
44062,note_on,94,0,8,,,,,,,,,10,,,50,0
44064,note_on,0,0,8,,,,,,,,,10,,,62,63
44064,note_on,2,0,6,,,,,,,,,7,,,72,63
44064,note_on,2,0,8,,,,,,,,,10,,,50,63
44064,note_on,2,0,5,,,,,,,,,6,,,83,110
44064,note_on,2,0,7,,,,,,,,,8,,,66,63
44072,note_on,8,0,5,,,,,,,,,6,,,83,0
44072,note_on,0,0,5,,,,,,,,,6,,,81,110
44080,note_on,0,0,5,,,,,,,,,6,,,83,110
44080,note_on,8,0,5,,,,,,,,,6,,,81,0
44088,note_on,8,0,5,,,,,,,,,6,,,83,0
44088,note_on,0,0,5,,,,,,,,,6,,,81,110
44096,note_on,8,0,5,,,,,,,,,6,,,81,0
44096,note_on,0,0,5,,,,,,,,,6,,,83,110
44104,note_on,8,0,5,,,,,,,,,6,,,83,0
44104,note_on,0,0,5,,,,,,,,,6,,,81,110
44110,note_on,6,0,5,,,,,,,,,6,,,81,0
44112,note_on,2,0,5,,,,,,,,,6,,,83,110
44120,note_on,8,0,5,,,,,,,,,6,,,83,0
44120,note_on,0,0,5,,,,,,,,,6,,,81,110
44128,note_on,8,0,5,,,,,,,,,6,,,81,0
44128,note_on,0,0,5,,,,,,,,,6,,,83,110
44136,note_on,0,0,5,,,,,,,,,6,,,81,110
44136,note_on,8,0,5,,,,,,,,,6,,,83,0
44144,note_on,8,0,5,,,,,,,,,6,,,81,0
44144,note_on,0,0,5,,,,,,,,,6,,,83,110
44152,note_on,0,0,5,,,,,,,,,6,,,81,110
44152,note_on,8,0,5,,,,,,,,,6,,,83,0
44158,note_on,0,0,8,,,,,,,,,10,,,62,0
44158,note_on,94,0,8,,,,,,,,,10,,,50,0
44158,note_on,94,0,6,,,,,,,,,7,,,72,0
44158,note_on,6,0,5,,,,,,,,,6,,,81,0
44158,note_on,94,0,7,,,,,,,,,8,,,66,0
44160,note_on,2,0,8,,,,,,,,,10,,,50,72
44160,note_on,2,0,6,,,,,,,,,7,,,78,72
44160,note_on,0,0,8,,,,,,,,,10,,,62,72
44160,note_on,2,0,7,,,,,,,,,8,,,72,72
44160,note_on,2,0,5,,,,,,,,,6,,,83,110
44168,note_on,0,0,5,,,,,,,,,6,,,81,110
44168,note_on,8,0,5,,,,,,,,,6,,,83,0
44176,note_on,0,0,5,,,,,,,,,6,,,83,110
44176,note_on,8,0,5,,,,,,,,,6,,,81,0
44184,note_on,0,0,5,,,,,,,,,6,,,81,110
44184,note_on,8,0,5,,,,,,,,,6,,,83,0
44192,note_on,0,0,5,,,,,,,,,6,,,83,110
44192,note_on,8,0,5,,,,,,,,,6,,,81,0
44200,note_on,8,0,5,,,,,,,,,6,,,83,0
44200,note_on,0,0,5,,,,,,,,,6,,,81,110
44206,note_on,6,0,5,,,,,,,,,6,,,81,0
44208,note_on,2,0,5,,,,,,,,,6,,,83,110
44216,note_on,8,0,5,,,,,,,,,6,,,83,0
44216,note_on,0,0,5,,,,,,,,,6,,,81,110
44224,note_on,0,0,5,,,,,,,,,6,,,83,110
44224,note_on,8,0,5,,,,,,,,,6,,,81,0
44232,note_on,0,0,5,,,,,,,,,6,,,81,110
44232,note_on,8,0,5,,,,,,,,,6,,,83,0
44240,note_on,0,0,5,,,,,,,,,6,,,83,110
44240,note_on,8,0,5,,,,,,,,,6,,,81,0
44248,note_on,0,0,5,,,,,,,,,6,,,81,110
44248,note_on,8,0,5,,,,,,,,,6,,,83,0
44254,note_on,94,0,8,,,,,,,,,10,,,50,0
44254,note_on,0,0,8,,,,,,,,,10,,,62,0
44254,note_on,94,0,7,,,,,,,,,8,,,72,0
44254,note_on,94,0,6,,,,,,,,,7,,,78,0
44254,note_on,6,0,5,,,,,,,,,6,,,81,0
44256,note_on,0,0,8,,,,,,,,,10,,,62,82
44256,note_on,2,0,5,,,,,,,,,6,,,83,110
44256,note_on,2,0,8,,,,,,,,,10,,,50,82
44256,note_on,2,0,6,,,,,,,,,7,,,78,82
44256,note_on,2,0,7,,,,,,,,,8,,,72,82
44264,note_on,0,0,5,,,,,,,,,6,,,81,110
44264,note_on,8,0,5,,,,,,,,,6,,,83,0
44272,note_on,8,0,5,,,,,,,,,6,,,81,0
44272,note_on,0,0,5,,,,,,,,,6,,,83,110
44280,note_on,8,0,5,,,,,,,,,6,,,83,0
44280,note_on,0,0,5,,,,,,,,,6,,,81,110
44288,note_on,0,0,5,,,,,,,,,6,,,83,110
44288,note_on,8,0,5,,,,,,,,,6,,,81,0
44296,note_on,0,0,5,,,,,,,,,6,,,81,110
44296,note_on,8,0,5,,,,,,,,,6,,,83,0
44302,note_on,6,0,5,,,,,,,,,6,,,81,0
44304,note_on,528,0,3,,,,,,,,,5,,,62,0
44304,note_on,2,0,5,,,,,,,,,6,,,79,110
44304,note_on,528,0,4,,,,,,,,,5,,,50,0
44326,note_on,22,0,5,,,,,,,,,6,,,79,0
44328,note_on,2,0,5,,,,,,,,,6,,,81,110
44350,note_on,94,0,7,,,,,,,,,8,,,72,0
44350,note_on,0,0,8,,,,,,,,,10,,,62,0
44350,note_on,94,0,8,,,,,,,,,10,,,50,0
44350,note_on,94,0,6,,,,,,,,,7,,,78,0
44350,note_on,22,0,5,,,,,,,,,6,,,81,0
44352,note_on,2,0,5,,,,,,,,,6,,,79,110
44352,note_on,416,0,10,,,,,,,,,12,,,43,92
44352,note_on,48,0,4,,,,,,,,,5,,,55,92
44352,note_on,416,0,9,,,,,,,,,11,,,55,92
44352,note_on,2,0,8,,,,,,,,,10,,,62,92
44352,note_on,12144,0,2,,,,,,,,,1,,,67,92
44352,note_on,2,0,6,,,,,,,,,7,,,79,92
44352,note_on,12144,0,1,,,,,,,,,1,,,79,92
44352,note_on,2,0,7,,,,,,,,,8,,,71,92
44352,note_on,48,0,3,,,,,,,,,5,,,67,92
44400,note_on,0,0,7,,,,,,,,,8,,,74,92
44400,note_on,48,0,7,,,,,,,,,8,,,71,0
44446,note_on,46,0,7,,,,,,,,,8,,,74,0
44446,note_on,94,0,8,,,,,,,,,10,,,62,0
44446,note_on,94,0,10,,,,,,,,,12,,,43,0
44446,note_on,94,0,6,,,,,,,,,7,,,79,0
44446,note_on,94,0,9,,,,,,,,,11,,,55,0
44448,note_on,2,0,7,,,,,,,,,8,,,71,92
44448,note_on,2,0,8,,,,,,,,,10,,,62,92
44448,note_on,2,0,6,,,,,,,,,7,,,79,92
44448,note_on,2,0,9,,,,,,,,,11,,,55,92
44448,note_on,2,0,10,,,,,,,,,12,,,43,92
44480,note_on,32,0,7,,,,,,,,,8,,,71,0
44496,note_on,16,0,7,,,,,,,,,8,,,71,92
44512,note_on,160,0,5,,,,,,,,,6,,,79,0
44528,note_on,32,0,7,,,,,,,,,8,,,71,0
44542,note_on,94,0,9,,,,,,,,,11,,,55,0
44542,note_on,94,0,10,,,,,,,,,12,,,43,0
44544,note_on,2,0,10,,,,,,,,,12,,,43,92
44544,note_on,16,0,7,,,,,,,,,8,,,71,92
44544,note_on,2,0,9,,,,,,,,,11,,,55,92
44592,note_on,48,0,7,,,,,,,,,8,,,71,0
44592,note_on,0,0,7,,,,,,,,,8,,,74,92
44608,note_on,160,0,8,,,,,,,,,10,,,62,0
44608,note_on,160,0,6,,,,,,,,,7,,,79,0
44638,note_on,94,0,10,,,,,,,,,12,,,43,0
44638,note_on,94,0,9,,,,,,,,,11,,,55,0
44638,note_on,46,0,7,,,,,,,,,8,,,74,0
44640,note_on,2,0,10,,,,,,,,,12,,,43,92
44640,note_on,32,0,8,,,,,,,,,10,,,62,92
44640,note_on,32,0,6,,,,,,,,,7,,,79,92
44640,note_on,2,0,9,,,,,,,,,11,,,55,92
44640,note_on,2,0,7,,,,,,,,,8,,,71,92
44672,note_on,32,0,7,,,,,,,,,8,,,71,0
44688,note_on,16,0,7,,,,,,,,,8,,,71,92
44720,note_on,32,0,7,,,,,,,,,8,,,71,0
44734,note_on,94,0,9,,,,,,,,,11,,,55,0
44734,note_on,94,0,10,,,,,,,,,12,,,43,0
44736,note_on,2,0,10,,,,,,,,,12,,,43,92
44736,note_on,16,0,7,,,,,,,,,8,,,71,92
44736,note_on,2,0,9,,,,,,,,,11,,,55,92
44784,note_on,48,0,7,,,,,,,,,8,,,71,0
44784,note_on,0,0,7,,,,,,,,,8,,,74,92
44800,note_on,160,0,8,,,,,,,,,10,,,62,0
44800,note_on,160,0,6,,,,,,,,,7,,,79,0
44830,note_on,94,0,9,,,,,,,,,11,,,55,0
44830,note_on,94,0,10,,,,,,,,,12,,,43,0
44830,note_on,46,0,7,,,,,,,,,8,,,74,0
44832,note_on,32,0,8,,,,,,,,,10,,,67,92
44832,note_on,2,0,9,,,,,,,,,11,,,55,92
44832,note_on,2,0,10,,,,,,,,,12,,,43,92
44832,note_on,32,0,6,,,,,,,,,7,,,79,92
44832,note_on,2,0,7,,,,,,,,,8,,,71,92
44864,note_on,32,0,7,,,,,,,,,8,,,71,0
44880,note_on,16,0,7,,,,,,,,,8,,,71,92
44912,note_on,32,0,7,,,,,,,,,8,,,71,0
44926,note_on,94,0,6,,,,,,,,,7,,,79,0
44926,note_on,94,0,9,,,,,,,,,11,,,55,0
44926,note_on,94,0,10,,,,,,,,,12,,,43,0
44926,note_on,94,0,8,,,,,,,,,10,,,67,0
44928,note_on,2,0,6,,,,,,,,,7,,,81,92
44928,note_on,2,0,9,,,,,,,,,11,,,55,92
44928,note_on,576,0,1,,,,,,,,,1,,,79,0
44928,note_on,0,0,1,,,,,,,,,1,,,81,92
44928,note_on,576,0,2,,,,,,,,,1,,,67,0
44928,note_on,0,0,2,,,,,,,,,1,,,66,92
44928,note_on,2,0,10,,,,,,,,,12,,,43,92
44928,note_on,16,0,7,,,,,,,,,8,,,72,92
44928,note_on,2,0,8,,,,,,,,,10,,,66,92
44976,note_on,0,0,7,,,,,,,,,8,,,74,92
44976,note_on,48,0,7,,,,,,,,,8,,,72,0
45022,note_on,94,0,10,,,,,,,,,12,,,43,0
45022,note_on,94,0,9,,,,,,,,,11,,,55,0
45022,note_on,46,0,7,,,,,,,,,8,,,74,0
45022,note_on,94,0,6,,,,,,,,,7,,,81,0
45022,note_on,94,0,8,,,,,,,,,10,,,66,0
45024,note_on,2,0,9,,,,,,,,,11,,,55,92
45024,note_on,2,0,6,,,,,,,,,7,,,81,92
45024,note_on,2,0,10,,,,,,,,,12,,,43,92
45024,note_on,2,0,8,,,,,,,,,10,,,66,92
45024,note_on,2,0,7,,,,,,,,,8,,,72,92
45056,note_on,32,0,7,,,,,,,,,8,,,72,0
45072,note_on,16,0,7,,,,,,,,,8,,,72,92
45104,note_on,32,0,7,,,,,,,,,8,,,72,0
45118,note_on,94,0,9,,,,,,,,,11,,,55,0
45118,note_on,94,0,10,,,,,,,,,12,,,43,0
45120,note_on,16,0,7,,,,,,,,,8,,,72,92
45120,note_on,2,0,10,,,,,,,,,12,,,43,92
45120,note_on,2,0,9,,,,,,,,,11,,,55,92
45168,note_on,48,0,7,,,,,,,,,8,,,72,0
45168,note_on,0,0,7,,,,,,,,,8,,,74,92
45184,note_on,160,0,6,,,,,,,,,7,,,81,0
45184,note_on,160,0,8,,,,,,,,,10,,,66,0
45214,note_on,94,0,9,,,,,,,,,11,,,55,0
45214,note_on,46,0,7,,,,,,,,,8,,,74,0
45214,note_on,94,0,10,,,,,,,,,12,,,43,0
45216,note_on,2,0,9,,,,,,,,,11,,,55,92
45216,note_on,2,0,10,,,,,,,,,12,,,43,92
45216,note_on,32,0,8,,,,,,,,,10,,,66,92
45216,note_on,2,0,7,,,,,,,,,8,,,72,92
45216,note_on,32,0,6,,,,,,,,,7,,,81,92
45248,note_on,32,0,7,,,,,,,,,8,,,72,0
45264,note_on,16,0,7,,,,,,,,,8,,,72,92
45296,note_on,32,0,7,,,,,,,,,8,,,72,0
45310,note_on,94,0,10,,,,,,,,,12,,,43,0
45310,note_on,94,0,9,,,,,,,,,11,,,55,0
45312,note_on,2,0,10,,,,,,,,,12,,,43,92
45312,note_on,2,0,9,,,,,,,,,11,,,55,92
45312,note_on,16,0,7,,,,,,,,,8,,,72,92
45360,note_on,0,0,7,,,,,,,,,8,,,74,92
45360,note_on,48,0,7,,,,,,,,,8,,,72,0
45376,note_on,160,0,6,,,,,,,,,7,,,81,0
45376,note_on,160,0,8,,,,,,,,,10,,,66,0
45406,note_on,94,0,9,,,,,,,,,11,,,55,0
45406,note_on,94,0,10,,,,,,,,,12,,,43,0
45406,note_on,46,0,7,,,,,,,,,8,,,74,0
45408,note_on,2,0,10,,,,,,,,,12,,,43,92
45408,note_on,32,0,8,,,,,,,,,10,,,66,92
45408,note_on,32,0,6,,,,,,,,,7,,,81,92
45408,note_on,2,0,7,,,,,,,,,8,,,72,92
45408,note_on,2,0,9,,,,,,,,,11,,,55,92
45440,note_on,32,0,7,,,,,,,,,8,,,72,0
45456,note_on,16,0,7,,,,,,,,,8,,,72,92
45488,note_on,32,0,7,,,,,,,,,8,,,72,0
45502,note_on,94,0,8,,,,,,,,,10,,,66,0
45502,note_on,94,0,10,,,,,,,,,12,,,43,0
45502,note_on,94,0,6,,,,,,,,,7,,,81,0
45502,note_on,94,0,9,,,,,,,,,11,,,55,0
45504,note_on,2,0,9,,,,,,,,,11,,,55,45
45504,note_on,16,0,7,,,,,,,,,8,,,74,45
45504,note_on,2,0,6,,,,,,,,,7,,,83,45
45504,note_on,576,0,2,,,,,,,,,1,,,66,0
45504,note_on,0,0,2,,,,,,,,,1,,,65,92
45504,note_on,576,0,1,,,,,,,,,1,,,81,0
45504,note_on,2,0,8,,,,,,,,,10,,,65,45
45504,note_on,2,0,10,,,,,,,,,12,,,43,45
45504,note_on,0,0,1,,,,,,,,,1,,,83,92
45552,note_on,0,0,7,,,,,,,,,8,,,71,45
45552,note_on,48,0,7,,,,,,,,,8,,,74,0
45598,note_on,94,0,6,,,,,,,,,7,,,83,0
45598,note_on,94,0,1,,,,,,,,,1,,,83,0
45598,note_on,94,0,2,,,,,,,,,1,,,65,0
45598,note_on,46,0,7,,,,,,,,,8,,,71,0
45598,note_on,94,0,8,,,,,,,,,10,,,65,0
45598,note_on,94,0,9,,,,,,,,,11,,,55,0
45598,note_on,94,0,10,,,,,,,,,12,,,43,0
45600,note_on,2,0,8,,,,,,,,,10,,,65,45
45600,note_on,2,0,6,,,,,,,,,7,,,83,45
45600,note_on,2,0,9,,,,,,,,,11,,,55,45
45600,note_on,2,0,7,,,,,,,,,8,,,74,45
45600,note_on,2,0,10,,,,,,,,,12,,,43,45
45632,note_on,32,0,7,,,,,,,,,8,,,74,0
45648,note_on,16,0,7,,,,,,,,,8,,,74,45
45680,note_on,32,0,7,,,,,,,,,8,,,74,0
45694,note_on,94,0,9,,,,,,,,,11,,,55,0
45694,note_on,94,0,10,,,,,,,,,12,,,43,0
45696,note_on,16,0,7,,,,,,,,,8,,,74,45
45696,note_on,2,0,10,,,,,,,,,12,,,43,45
45696,note_on,2,0,9,,,,,,,,,11,,,55,45
45744,note_on,48,0,7,,,,,,,,,8,,,74,0
45744,note_on,0,0,7,,,,,,,,,8,,,67,45
45760,note_on,160,0,6,,,,,,,,,7,,,83,0
45760,note_on,160,0,8,,,,,,,,,10,,,65,0
45790,note_on,94,0,10,,,,,,,,,12,,,43,0
45790,note_on,94,0,9,,,,,,,,,11,,,55,0
45790,note_on,46,0,7,,,,,,,,,8,,,67,0
45792,note_on,32,0,8,,,,,,,,,10,,,55,45
45792,note_on,2,0,7,,,,,,,,,8,,,74,45
45792,note_on,2,0,10,,,,,,,,,12,,,43,45
45792,note_on,32,0,6,,,,,,,,,7,,,83,45
45792,note_on,2,0,9,,,,,,,,,11,,,55,45
45824,note_on,32,0,7,,,,,,,,,8,,,74,0
45840,note_on,16,0,7,,,,,,,,,8,,,74,45
45872,note_on,32,0,7,,,,,,,,,8,,,74,0
45886,note_on,94,0,10,,,,,,,,,12,,,43,0
45886,note_on,94,0,9,,,,,,,,,11,,,55,0
45888,note_on,2,0,9,,,,,,,,,11,,,53,45
45888,note_on,16,0,7,,,,,,,,,8,,,74,45
45888,note_on,2,0,10,,,,,,,,,12,,,41,45
45936,note_on,0,0,7,,,,,,,,,8,,,67,45
45936,note_on,48,0,7,,,,,,,,,8,,,74,0
45952,note_on,160,0,8,,,,,,,,,10,,,55,0
45952,note_on,160,0,6,,,,,,,,,7,,,83,0
45982,note_on,46,0,7,,,,,,,,,8,,,67,0
45982,note_on,94,0,9,,,,,,,,,11,,,53,0
45982,note_on,94,0,10,,,,,,,,,12,,,41,0
45984,note_on,32,0,6,,,,,,,,,7,,,83,45
45984,note_on,2,0,7,,,,,,,,,8,,,74,45
45984,note_on,32,0,8,,,,,,,,,10,,,67,45
45984,note_on,2,0,10,,,,,,,,,12,,,41,45
45984,note_on,2,0,9,,,,,,,,,11,,,53,45
46016,note_on,32,0,7,,,,,,,,,8,,,74,0
46032,note_on,16,0,7,,,,,,,,,8,,,74,45
46064,note_on,32,0,7,,,,,,,,,8,,,74,0
46078,note_on,94,0,10,,,,,,,,,12,,,41,0
46078,note_on,94,0,9,,,,,,,,,11,,,53,0
46078,note_on,94,0,6,,,,,,,,,7,,,83,0
46080,note_on,2,0,10,,,,,,,,,12,,,40,45
46080,note_on,16,0,7,,,,,,,,,8,,,72,45
46080,note_on,2,0,9,,,,,,,,,11,,,52,45
46080,note_on,2,0,6,,,,,,,,,7,,,84,45
46128,note_on,48,0,7,,,,,,,,,8,,,72,0
46128,note_on,0,0,7,,,,,,,,,8,,,67,45
46174,note_on,94,0,10,,,,,,,,,12,,,40,0
46174,note_on,94,0,6,,,,,,,,,7,,,84,0
46174,note_on,94,0,9,,,,,,,,,11,,,52,0
46174,note_on,190,0,8,,,,,,,,,10,,,67,0
46174,note_on,46,0,7,,,,,,,,,8,,,67,0
46176,note_on,2,0,9,,,,,,,,,11,,,52,52
46176,note_on,2,0,6,,,,,,,,,7,,,84,52
46176,note_on,2,0,8,,,,,,,,,10,,,67,52
46176,note_on,2,0,7,,,,,,,,,8,,,76,49
46176,note_on,2,0,10,,,,,,,,,12,,,40,52
46208,note_on,32,0,7,,,,,,,,,8,,,76,0
46224,note_on,16,0,7,,,,,,,,,8,,,76,53
46256,note_on,32,0,7,,,,,,,,,8,,,76,0
46270,note_on,94,0,9,,,,,,,,,11,,,52,0
46270,note_on,94,0,10,,,,,,,,,12,,,40,0
46272,note_on,16,0,7,,,,,,,,,8,,,76,57
46272,note_on,2,0,9,,,,,,,,,11,,,52,60
46272,note_on,2,0,10,,,,,,,,,12,,,40,60
46320,note_on,0,0,7,,,,,,,,,8,,,72,61
46320,note_on,48,0,7,,,,,,,,,8,,,76,0
46336,note_on,160,0,6,,,,,,,,,7,,,84,0
46336,note_on,160,0,8,,,,,,,,,10,,,67,0
46366,note_on,94,0,9,,,,,,,,,11,,,52,0
46366,note_on,46,0,7,,,,,,,,,8,,,72,0
46366,note_on,94,0,10,,,,,,,,,12,,,40,0
46368,note_on,2,0,10,,,,,,,,,12,,,40,68
46368,note_on,2,0,9,,,,,,,,,11,,,52,68
46368,note_on,32,0,8,,,,,,,,,10,,,64,68
46368,note_on,2,0,7,,,,,,,,,8,,,79,65
46368,note_on,32,0,6,,,,,,,,,7,,,85,68
46400,note_on,32,0,7,,,,,,,,,8,,,79,0
46416,note_on,16,0,7,,,,,,,,,8,,,79,69
46448,note_on,32,0,7,,,,,,,,,8,,,79,0
46462,note_on,94,0,9,,,,,,,,,11,,,52,0
46462,note_on,94,0,6,,,,,,,,,7,,,85,0
46462,note_on,94,0,8,,,,,,,,,10,,,64,0
46462,note_on,94,0,10,,,,,,,,,12,,,40,0
46464,note_on,16,0,7,,,,,,,,,8,,,79,73
46464,note_on,2,0,8,,,,,,,,,10,,,59,76
46464,note_on,2,0,10,,,,,,,,,12,,,35,76
46464,note_on,2,0,6,,,,,,,,,7,,,86,76
46464,note_on,2,0,9,,,,,,,,,11,,,47,76
46512,note_on,48,0,7,,,,,,,,,8,,,79,0
46512,note_on,0,0,7,,,,,,,,,8,,,74,77
46558,note_on,46,0,7,,,,,,,,,8,,,74,0
46558,note_on,94,0,10,,,,,,,,,12,,,35,0
46558,note_on,94,0,6,,,,,,,,,7,,,86,0
46558,note_on,94,0,8,,,,,,,,,10,,,59,0
46558,note_on,94,0,9,,,,,,,,,11,,,47,0
46560,note_on,2,0,10,,,,,,,,,12,,,35,84
46560,note_on,2,0,7,,,,,,,,,8,,,79,82
46560,note_on,2,0,8,,,,,,,,,10,,,59,84
46560,note_on,2,0,6,,,,,,,,,7,,,87,84
46560,note_on,2,0,9,,,,,,,,,11,,,47,84
46592,note_on,32,0,7,,,,,,,,,8,,,79,0
46608,note_on,16,0,7,,,,,,,,,8,,,79,87
46640,note_on,32,0,7,,,,,,,,,8,,,79,0
46654,note_on,94,0,10,,,,,,,,,12,,,35,0
46654,note_on,94,0,6,,,,,,,,,7,,,87,0
46654,note_on,94,0,9,,,,,,,,,11,,,47,0
46654,note_on,94,0,8,,,,,,,,,10,,,59,0
46656,note_on,16,0,7,,,,,,,,,8,,,76,92
46656,note_on,2,0,10,,,,,,,,,12,,,36,92
46656,note_on,1058,0,1,,,,,,,,,1,,,76,92
46656,note_on,2,0,6,,,,,,,,,7,,,88,92
46656,note_on,2,0,8,,,,,,,,,10,,,60,92
46656,note_on,2,0,9,,,,,,,,,11,,,48,92
46656,note_on,1058,0,2,,,,,,,,,1,,,76,92
46688,note_on,32,0,10,,,,,,,,,12,,,36,0
46688,note_on,32,0,9,,,,,,,,,11,,,48,0
46752,note_on,64,0,10,,,,,,,,,12,,,36,92
46752,note_on,64,0,9,,,,,,,,,11,,,48,92
46816,note_on,160,0,8,,,,,,,,,10,,,60,0
46816,note_on,2464,0,3,,,,,,,,,5,,,67,0
46816,note_on,2464,0,4,,,,,,,,,5,,,55,0
46816,note_on,160,0,7,,,,,,,,,8,,,76,0
46848,note_on,0,0,9,,,,,,,,,11,,,52,92
46848,note_on,32,0,7,,,,,,,,,8,,,60,92
46848,note_on,96,0,9,,,,,,,,,11,,,48,0
46848,note_on,32,0,8,,,,,,,,,10,,,57,92
46848,note_on,96,0,10,,,,,,,,,12,,,36,0
46848,note_on,0,0,10,,,,,,,,,12,,,40,92
46912,note_on,256,0,6,,,,,,,,,7,,,88,0
46942,note_on,94,0,8,,,,,,,,,10,,,57,0
46942,note_on,94,0,7,,,,,,,,,8,,,60,0
46944,note_on,96,0,9,,,,,,,,,11,,,52,0
46944,note_on,0,0,9,,,,,,,,,11,,,57,92
46944,note_on,2,0,8,,,,,,,,,10,,,57,92
46944,note_on,2,0,7,,,,,,,,,8,,,64,92
46944,note_on,96,0,10,,,,,,,,,12,,,40,0
46944,note_on,0,0,10,,,,,,,,,12,,,45,92
46944,note_on,32,0,6,,,,,,,,,7,,,86,92
46992,note_on,48,0,6,,,,,,,,,7,,,86,0
46992,note_on,0,0,6,,,,,,,,,7,,,84,92
47038,note_on,94,0,9,,,,,,,,,11,,,57,0
47038,note_on,94,0,10,,,,,,,,,12,,,45,0
47038,note_on,46,0,6,,,,,,,,,7,,,84,0
47040,note_on,2,0,10,,,,,,,,,12,,,48,92
47040,note_on,2,0,9,,,,,,,,,11,,,60,92
47040,note_on,2,0,6,,,,,,,,,7,,,83,92
47088,note_on,48,0,6,,,,,,,,,7,,,83,0
47088,note_on,0,0,6,,,,,,,,,7,,,81,92
47104,note_on,160,0,7,,,,,,,,,8,,,64,0
47134,note_on,46,0,6,,,,,,,,,7,,,81,0
47136,note_on,2,0,6,,,,,,,,,7,,,76,92
47136,note_on,0,0,10,,,,,,,,,12,,,49,92
47136,note_on,192,0,8,,,,,,,,,10,,,57,0
47136,note_on,96,0,10,,,,,,,,,12,,,48,0
47136,note_on,32,0,7,,,,,,,,,8,,,69,92
47136,note_on,96,0,9,,,,,,,,,11,,,60,0
47136,note_on,0,0,9,,,,,,,,,11,,,61,92
47136,note_on,0,0,8,,,,,,,,,10,,,61,92
47184,note_on,48,0,6,,,,,,,,,7,,,76,0
47184,note_on,0,0,6,,,,,,,,,7,,,81,92
47184,note_on,528,0,2,,,,,,,,,1,,,76,0
47184,note_on,528,0,1,,,,,,,,,1,,,76,0
47230,note_on,94,0,8,,,,,,,,,10,,,61,0
47230,note_on,46,0,6,,,,,,,,,7,,,81,0
47230,note_on,94,0,7,,,,,,,,,8,,,69,0
47230,note_on,94,0,10,,,,,,,,,12,,,49,0
47230,note_on,94,0,9,,,,,,,,,11,,,61,0
47232,note_on,2,0,9,,,,,,,,,11,,,62,92
47232,note_on,2,0,6,,,,,,,,,7,,,79,92
47232,note_on,48,0,1,,,,,,,,,1,,,79,92
47232,note_on,2,0,8,,,,,,,,,10,,,62,92
47232,note_on,48,0,2,,,,,,,,,1,,,71,92
47232,note_on,2,0,10,,,,,,,,,12,,,50,92
47232,note_on,2,0,7,,,,,,,,,8,,,71,92
47326,note_on,94,0,10,,,,,,,,,12,,,50,0
47326,note_on,94,0,9,,,,,,,,,11,,,62,0
47328,note_on,0,0,8,,,,,,,,,10,,,69,92
47328,note_on,2,0,10,,,,,,,,,12,,,51,92
47328,note_on,0,0,2,,,,,,,,,1,,,72,92
47328,note_on,96,0,7,,,,,,,,,8,,,71,0
47328,note_on,96,0,6,,,,,,,,,7,,,79,0
47328,note_on,0,0,6,,,,,,,,,7,,,78,92
47328,note_on,96,0,8,,,,,,,,,10,,,62,0
47328,note_on,0,0,7,,,,,,,,,8,,,72,92
47328,note_on,2,0,9,,,,,,,,,11,,,63,92
47328,note_on,96,0,2,,,,,,,,,1,,,71,0
47328,note_on,96,0,1,,,,,,,,,1,,,79,0
47328,note_on,0,0,1,,,,,,,,,1,,,78,92
47422,note_on,94,0,7,,,,,,,,,8,,,72,0
47422,note_on,94,0,6,,,,,,,,,7,,,78,0
47422,note_on,94,0,2,,,,,,,,,1,,,72,0
47422,note_on,94,0,10,,,,,,,,,12,,,51,0
47422,note_on,94,0,8,,,,,,,,,10,,,69,0
47422,note_on,94,0,9,,,,,,,,,11,,,63,0
47422,note_on,94,0,1,,,,,,,,,1,,,78,0
47424,note_on,2,0,10,,,,,,,,,12,,,52,45
47424,note_on,2,0,8,,,,,,,,,10,,,67,45
47424,note_on,2,0,6,,,,,,,,,7,,,79,45
47424,note_on,2,0,9,,,,,,,,,11,,,64,45
47424,note_on,2,0,1,,,,,,,,,1,,,79,92
47424,note_on,2,0,7,,,,,,,,,8,,,71,45
47424,note_on,2,0,2,,,,,,,,,1,,,71,92
47518,note_on,94,0,8,,,,,,,,,10,,,67,0
47518,note_on,94,0,7,,,,,,,,,8,,,71,0
47518,note_on,94,0,2,,,,,,,,,1,,,71,0
47518,note_on,94,0,1,,,,,,,,,1,,,79,0
47520,note_on,2,0,8,,,,,,,,,10,,,67,45
47520,note_on,2,0,7,,,,,,,,,8,,,59,45
47520,note_on,0,0,9,,,,,,,,,11,,,62,45
47520,note_on,96,0,6,,,,,,,,,7,,,79,0
47520,note_on,0,0,6,,,,,,,,,7,,,77,45
47520,note_on,0,0,10,,,,,,,,,12,,,50,45
47520,note_on,96,0,9,,,,,,,,,11,,,64,0
47520,note_on,96,0,10,,,,,,,,,12,,,52,0
47614,note_on,94,0,10,,,,,,,,,12,,,50,0
47614,note_on,94,0,9,,,,,,,,,11,,,62,0
47614,note_on,94,0,6,,,,,,,,,7,,,77,0
47614,note_on,94,0,7,,,,,,,,,8,,,59,0
47616,note_on,2,0,6,,,,,,,,,7,,,76,45
47616,note_on,2,0,7,,,,,,,,,8,,,60,45
47616,note_on,2,0,9,,,,,,,,,11,,,60,45
47616,note_on,2,0,10,,,,,,,,,12,,,48,45
47680,note_on,160,0,8,,,,,,,,,10,,,67,0
47710,note_on,94,0,7,,,,,,,,,8,,,60,0
47712,note_on,96,0,9,,,,,,,,,11,,,60,0
47712,note_on,2,0,7,,,,,,,,,8,,,68,45
47712,note_on,96,0,6,,,,,,,,,7,,,76,0
47712,note_on,0,0,6,,,,,,,,,7,,,74,45
47712,note_on,0,0,9,,,,,,,,,11,,,59,45
47712,note_on,32,0,8,,,,,,,,,10,,,64,45
47712,note_on,0,0,10,,,,,,,,,12,,,47,45
47712,note_on,96,0,10,,,,,,,,,12,,,48,0
47806,note_on,94,0,6,,,,,,,,,7,,,74,0
47806,note_on,94,0,10,,,,,,,,,12,,,47,0
47806,note_on,94,0,9,,,,,,,,,11,,,59,0
47808,note_on,2,0,6,,,,,,,,,7,,,73,45
47808,note_on,96,0,7,,,,,,,,,8,,,68,0
47808,note_on,0,0,7,,,,,,,,,8,,,69,45
47808,note_on,2,0,9,,,,,,,,,11,,,57,45
47808,note_on,2,0,10,,,,,,,,,12,,,45,45
47902,note_on,94,0,7,,,,,,,,,8,,,69,0
47902,note_on,94,0,6,,,,,,,,,7,,,73,0
47902,note_on,190,0,8,,,,,,,,,10,,,64,0
47904,note_on,96,0,9,,,,,,,,,11,,,57,0
47904,note_on,96,0,10,,,,,,,,,12,,,45,0
47904,note_on,2,0,8,,,,,,,,,10,,,69,45
47904,note_on,0,0,10,,,,,,,,,12,,,42,45
47904,note_on,2,0,6,,,,,,,,,7,,,72,45
47904,note_on,2,0,7,,,,,,,,,8,,,63,45
47904,note_on,0,0,9,,,,,,,,,11,,,54,45
47998,note_on,94,0,6,,,,,,,,,7,,,72,0
48000,note_on,96,0,10,,,,,,,,,12,,,42,0
48000,note_on,0,0,10,,,,,,,,,12,,,43,45
48000,note_on,96,0,8,,,,,,,,,10,,,69,0
48000,note_on,0,0,8,,,,,,,,,10,,,67,45
48000,note_on,2,0,6,,,,,,,,,7,,,70,45
48000,note_on,0,0,7,,,,,,,,,8,,,62,45
48000,note_on,96,0,7,,,,,,,,,8,,,63,0
48000,note_on,96,0,9,,,,,,,,,11,,,54,0
48000,note_on,0,0,9,,,,,,,,,11,,,55,45
48048,note_on,0,0,6,,,,,,,,,7,,,71,45
48048,note_on,48,0,6,,,,,,,,,7,,,70,0
48094,note_on,94,0,9,,,,,,,,,11,,,55,0
48094,note_on,94,0,8,,,,,,,,,10,,,67,0
48094,note_on,94,0,7,,,,,,,,,8,,,62,0
48094,note_on,94,0,10,,,,,,,,,12,,,43,0
48096,note_on,48,0,6,,,,,,,,,7,,,71,0
48096,note_on,0,0,6,,,,,,,,,7,,,72,45
48144,note_on,48,0,6,,,,,,,,,7,,,72,0
48144,note_on,0,0,6,,,,,,,,,7,,,73,45
48190,note_on,46,0,6,,,,,,,,,7,,,73,0
48192,note_on,98,0,10,,,,,,,,,12,,,35,92
48192,note_on,2,0,6,,,,,,,,,7,,,74,45
48192,note_on,98,0,9,,,,,,,,,11,,,47,92
48192,note_on,674,0,1,,,,,,,,,1,,,74,92
48211,set_tempo,48211,1,0,1538461,,,,,,,,,,,,
48230,set_tempo,19,1,0,1578947,,,,,,,,,,,,
48240,note_on,0,0,6,,,,,,,,,7,,,75,45
48240,note_on,48,0,6,,,,,,,,,7,,,74,0
48240,note_on,0,0,1,,,,,,,,,1,,,75,92
48240,note_on,48,0,1,,,,,,,,,1,,,74,0
48249,set_tempo,19,1,0,1621621,,,,,,,,,,,,
48268,set_tempo,19,1,0,1666666,,,,,,,,,,,,
48286,note_on,94,0,9,,,,,,,,,11,,,47,0
48286,note_on,94,0,10,,,,,,,,,12,,,35,0
48288,note_on,48,0,6,,,,,,,,,7,,,75,0
48288,note_on,0,0,6,,,,,,,,,7,,,76,45
48288,note_on,194,0,7,,,,,,,,,8,,,60,92
48288,note_on,48,0,1,,,,,,,,,1,,,75,0
48288,note_on,2,0,10,,,,,,,,,12,,,36,92
48288,set_tempo,20,1,0,1714285,,,,,,,,,,,,
48288,note_on,0,0,1,,,,,,,,,1,,,76,92
48288,note_on,194,0,8,,,,,,,,,10,,,64,92
48288,note_on,2,0,9,,,,,,,,,11,,,48,92
48288,note_on,770,0,2,,,,,,,,,1,,,72,92
48307,set_tempo,19,1,0,1764705,,,,,,,,,,,,
48326,set_tempo,19,1,0,1818181,,,,,,,,,,,,
48336,note_on,0,0,7,,,,,,,,,8,,,69,92
48336,note_on,48,0,7,,,,,,,,,8,,,60,0
48336,note_on,0,0,2,,,,,,,,,1,,,69,92
48336,note_on,48,0,1,,,,,,,,,1,,,76,0
48336,note_on,48,0,6,,,,,,,,,7,,,76,0
48336,note_on,0,0,6,,,,,,,,,7,,,72,45
48336,note_on,0,0,1,,,,,,,,,1,,,72,92
48336,note_on,48,0,2,,,,,,,,,1,,,72,0
48345,set_tempo,19,1,0,1875000,,,,,,,,,,,,
48364,set_tempo,19,1,0,1935483,,,,,,,,,,,,
48382,note_on,46,0,6,,,,,,,,,7,,,72,0
48382,note_on,46,0,1,,,,,,,,,1,,,72,0
48382,note_on,94,0,10,,,,,,,,,12,,,36,0
48382,note_on,46,0,2,,,,,,,,,1,,,69,0
48382,note_on,46,0,7,,,,,,,,,8,,,69,0
48382,note_on,94,0,9,,,,,,,,,11,,,48,0
48382,note_on,94,0,8,,,,,,,,,10,,,64,0
48384,note_on,2,0,1,,,,,,,,,1,,,71,92
48384,note_on,3872,0,5,,,,,,,,,6,,,62,110
48384,note_on,2,0,2,,,,,,,,,1,,,67,92
48384,note_on,2,0,10,,,,,,,,,12,,,38,92
48384,note_on,2,0,6,,,,,,,,,7,,,71,45
48384,note_on,1568,0,4,,,,,,,,,5,,,50,92
48384,set_tempo,20,1,0,2000000,,,,,,,,,,,,
48384,note_on,2,0,7,,,,,,,,,8,,,67,92
48384,note_on,1568,0,3,,,,,,,,,5,,,62,92
48384,note_on,2,0,8,,,,,,,,,10,,,50,92
48384,note_on,0,0,8,,,,,,,,,10,,,62,92
48384,note_on,2,0,9,,,,,,,,,11,,,50,92
48720,note_on,336,0,9,,,,,,,,,11,,,50,0
48720,note_on,336,0,3,,,,,,,,,5,,,62,0
48720,note_on,336,0,7,,,,,,,,,8,,,67,0
48720,note_on,336,0,8,,,,,,,,,10,,,50,0
48720,note_on,336,0,2,,,,,,,,,1,,,67,0
48720,note_on,336,0,6,,,,,,,,,7,,,71,0
48720,note_on,336,0,1,,,,,,,,,1,,,71,0
48720,note_on,336,0,10,,,,,,,,,12,,,38,0
48720,note_on,0,0,8,,,,,,,,,10,,,62,0
48720,note_on,336,0,4,,,,,,,,,5,,,50,0
48768,set_tempo,384,1,0,3000000,,,,,,,,,,,,
48862,note_on,478,0,5,,,,,,,,,6,,,62,0
48864,note_on,2,0,5,,,,,,,,,6,,,67,110
48888,note_on,0,0,5,,,,,,,,,6,,,66,110
48888,note_on,24,0,5,,,,,,,,,6,,,67,0
48900,note_on,12,0,5,,,,,,,,,6,,,66,0
48900,note_on,0,0,5,,,,,,,,,6,,,67,110
48912,note_on,12,0,5,,,,,,,,,6,,,67,0
48912,note_on,0,0,5,,,,,,,,,6,,,69,110
48924,note_on,12,0,5,,,,,,,,,6,,,69,0
48924,note_on,0,0,5,,,,,,,,,6,,,67,110
48936,note_on,12,0,5,,,,,,,,,6,,,67,0
48936,note_on,0,0,5,,,,,,,,,6,,,66,110
48948,note_on,12,0,5,,,,,,,,,6,,,66,0
48948,note_on,0,0,5,,,,,,,,,6,,,67,110
48958,note_on,10,0,5,,,,,,,,,6,,,67,0
48960,note_on,2,0,5,,,,,,,,,6,,,62,110
48960,set_tempo,192,1,0,1500000,,,,,,,,,,,,
48995,set_tempo,35,1,0,1463414,,,,,,,,,,,,
49030,set_tempo,35,1,0,1428571,,,,,,,,,,,,
49054,note_on,94,0,5,,,,,,,,,6,,,62,0
49056,note_on,2,0,5,,,,,,,,,6,,,71,110
49065,set_tempo,35,1,0,1395348,,,,,,,,,,,,
49100,set_tempo,35,1,0,1363636,,,,,,,,,,,,
49104,note_on,48,0,5,,,,,,,,,6,,,71,0
49104,note_on,0,0,5,,,,,,,,,6,,,70,110
49128,note_on,0,0,5,,,,,,,,,6,,,71,110
49128,note_on,24,0,5,,,,,,,,,6,,,70,0
49135,set_tempo,35,1,0,1333333,,,,,,,,,,,,
49152,note_on,24,0,5,,,,,,,,,6,,,71,0
49152,note_on,0,0,5,,,,,,,,,6,,,72,110
49170,set_tempo,35,1,0,1304347,,,,,,,,,,,,
49176,note_on,24,0,5,,,,,,,,,6,,,72,0
49176,note_on,0,0,5,,,,,,,,,6,,,71,110
49200,note_on,24,0,5,,,,,,,,,6,,,71,0
49200,note_on,0,0,5,,,,,,,,,6,,,70,110
49205,set_tempo,35,1,0,1276595,,,,,,,,,,,,
49224,note_on,0,0,5,,,,,,,,,6,,,71,110
49224,note_on,24,0,5,,,,,,,,,6,,,70,0
49240,set_tempo,35,1,0,1250000,,,,,,,,,,,,
49246,note_on,22,0,5,,,,,,,,,6,,,71,0
49248,note_on,2,0,5,,,,,,,,,6,,,67,110
49275,set_tempo,35,1,0,1224489,,,,,,,,,,,,
49310,set_tempo,35,1,0,1200000,,,,,,,,,,,,
49342,note_on,94,0,5,,,,,,,,,6,,,67,0
49344,note_on,2,0,5,,,,,,,,,6,,,74,110
49345,set_tempo,35,1,0,1176470,,,,,,,,,,,,
49380,set_tempo,35,1,0,1153846,,,,,,,,,,,,
49392,note_on,48,0,5,,,,,,,,,6,,,74,0
49392,note_on,0,0,5,,,,,,,,,6,,,73,110
49416,set_tempo,36,1,0,1132075,,,,,,,,,,,,
49416,note_on,24,0,5,,,,,,,,,6,,,73,0
49416,note_on,0,0,5,,,,,,,,,6,,,74,110
49440,note_on,24,0,5,,,,,,,,,6,,,74,0
49440,note_on,0,0,5,,,,,,,,,6,,,76,110
49451,set_tempo,35,1,0,1111111,,,,,,,,,,,,
49464,note_on,24,0,5,,,,,,,,,6,,,76,0
49464,note_on,0,0,5,,,,,,,,,6,,,74,110
49486,set_tempo,35,1,0,1090909,,,,,,,,,,,,
49488,note_on,24,0,5,,,,,,,,,6,,,74,0
49488,note_on,0,0,5,,,,,,,,,6,,,73,110
49512,note_on,24,0,5,,,,,,,,,6,,,73,0
49512,note_on,0,0,5,,,,,,,,,6,,,74,110
49521,set_tempo,35,1,0,1071428,,,,,,,,,,,,
49534,note_on,22,0,5,,,,,,,,,6,,,74,0
49536,note_on,2,0,5,,,,,,,,,6,,,71,110
49556,set_tempo,35,1,0,1052631,,,,,,,,,,,,
49591,set_tempo,35,1,0,1034482,,,,,,,,,,,,
49608,note_on,72,0,5,,,,,,,,,6,,,71,0
49608,note_on,0,0,5,,,,,,,,,6,,,74,110
49626,set_tempo,35,1,0,1016949,,,,,,,,,,,,
49630,note_on,22,0,5,,,,,,,,,6,,,74,0
49632,note_on,2,0,5,,,,,,,,,6,,,79,110
49656,note_on,24,0,5,,,,,,,,,6,,,79,0
49656,note_on,0,0,5,,,,,,,,,6,,,78,110
49661,set_tempo,35,1,0,1000000,,,,,,,,,,,,
49678,note_on,22,0,5,,,,,,,,,6,,,78,0
49680,note_on,2,0,5,,,,,,,,,6,,,81,110
49696,set_tempo,35,1,0,983606,,,,,,,,,,,,
49704,note_on,0,0,5,,,,,,,,,6,,,79,110
49704,note_on,24,0,5,,,,,,,,,6,,,81,0
49726,note_on,22,0,5,,,,,,,,,6,,,79,0
49728,note_on,2,0,5,,,,,,,,,6,,,83,110
49731,set_tempo,35,1,0,967741,,,,,,,,,,,,
49752,note_on,24,0,5,,,,,,,,,6,,,83,0
49752,note_on,0,0,5,,,,,,,,,6,,,81,110
49766,set_tempo,35,1,0,952380,,,,,,,,,,,,
49774,note_on,22,0,5,,,,,,,,,6,,,81,0
49776,note_on,2,0,5,,,,,,,,,6,,,84,110
49800,note_on,0,0,5,,,,,,,,,6,,,83,110
49800,note_on,24,0,5,,,,,,,,,6,,,84,0
49801,set_tempo,35,1,0,937500,,,,,,,,,,,,
49822,note_on,22,0,5,,,,,,,,,6,,,83,0
49824,note_on,2,0,5,,,,,,,,,6,,,86,110
49836,set_tempo,35,1,0,923076,,,,,,,,,,,,
49848,note_on,24,0,5,,,,,,,,,6,,,86,0
49848,note_on,0,0,5,,,,,,,,,6,,,85,110
49870,note_on,22,0,5,,,,,,,,,6,,,85,0
49872,set_tempo,36,1,0,909090,,,,,,,,,,,,
49872,note_on,2,0,5,,,,,,,,,6,,,88,110
49896,note_on,0,0,5,,,,,,,,,6,,,86,110
49896,note_on,24,0,5,,,,,,,,,6,,,88,0
49918,note_on,22,0,5,,,,,,,,,6,,,86,0
49920,note_on,2,0,5,,,,,,,,,6,,,91,110
49992,note_on,0,0,5,,,,,,,,,6,,,90,110
49992,note_on,72,0,5,,,,,,,,,6,,,91,0
50016,set_tempo,144,1,0,454545,,,,,,,,,,,,
50016,note_on,0,0,5,,,,,,,,,6,,,88,110
50016,note_on,24,0,5,,,,,,,,,6,,,90,0
50040,note_on,24,0,5,,,,,,,,,6,,,88,0
50040,note_on,0,0,5,,,,,,,,,6,,,86,110
50062,note_on,22,0,5,,,,,,,,,6,,,86,0
50064,set_tempo,48,1,0,909090,,,,,,,,,,,,
50064,note_on,2,0,5,,,,,,,,,6,,,85,110
50076,note_on,12,0,5,,,,,,,,,6,,,85,0
50076,note_on,0,0,5,,,,,,,,,6,,,83,110
50088,note_on,12,0,5,,,,,,,,,6,,,83,0
50088,note_on,0,0,5,,,,,,,,,6,,,81,110
50100,note_on,12,0,5,,,,,,,,,6,,,81,0
50100,note_on,0,0,5,,,,,,,,,6,,,79,110
50112,note_on,0,0,5,,,,,,,,,6,,,78,110
50112,note_on,12,0,5,,,,,,,,,6,,,79,0
50124,note_on,12,0,5,,,,,,,,,6,,,78,0
50124,note_on,0,0,5,,,,,,,,,6,,,76,110
50136,note_on,12,0,5,,,,,,,,,6,,,76,0
50136,note_on,0,0,5,,,,,,,,,6,,,74,110
50148,note_on,12,0,5,,,,,,,,,6,,,74,0
50148,note_on,0,0,5,,,,,,,,,6,,,72,110
50160,note_on,0,0,5,,,,,,,,,6,,,71,110
50160,note_on,12,0,5,,,,,,,,,6,,,72,0
50172,note_on,0,0,5,,,,,,,,,6,,,69,110
50172,note_on,12,0,5,,,,,,,,,6,,,71,0
50184,note_on,0,0,5,,,,,,,,,6,,,67,110
50184,note_on,12,0,5,,,,,,,,,6,,,69,0
50196,note_on,12,0,5,,,,,,,,,6,,,67,0
50196,note_on,0,0,5,,,,,,,,,6,,,66,110
50208,note_on,12,0,5,,,,,,,,,6,,,66,0
50208,note_on,0,0,5,,,,,,,,,6,,,67,110
50214,set_tempo,150,1,0,923076,,,,,,,,,,,,
50220,note_on,12,0,5,,,,,,,,,6,,,67,0
50220,note_on,0,0,5,,,,,,,,,6,,,69,110
50221,set_tempo,7,1,0,937500,,,,,,,,,,,,
50227,set_tempo,6,1,0,952380,,,,,,,,,,,,
50232,note_on,12,0,5,,,,,,,,,6,,,69,0
50232,note_on,0,0,5,,,,,,,,,6,,,71,110
50234,set_tempo,7,1,0,967741,,,,,,,,,,,,
50241,set_tempo,7,1,0,983606,,,,,,,,,,,,
50244,note_on,0,0,5,,,,,,,,,6,,,72,110
50244,note_on,12,0,5,,,,,,,,,6,,,71,0
50247,set_tempo,6,1,0,1000000,,,,,,,,,,,,
50254,set_tempo,7,1,0,1016949,,,,,,,,,,,,
50256,note_on,0,0,5,,,,,,,,,6,,,74,110
50256,note_on,12,0,5,,,,,,,,,6,,,72,0
50261,set_tempo,7,1,0,1034482,,,,,,,,,,,,
50267,set_tempo,6,1,0,1052631,,,,,,,,,,,,
50268,note_on,0,0,5,,,,,,,,,6,,,76,110
50268,note_on,12,0,5,,,,,,,,,6,,,74,0
50274,set_tempo,7,1,0,1071428,,,,,,,,,,,,
50280,note_on,12,0,5,,,,,,,,,6,,,76,0
50280,note_on,0,0,5,,,,,,,,,6,,,78,110
50281,set_tempo,7,1,0,1090909,,,,,,,,,,,,
50287,set_tempo,6,1,0,1111111,,,,,,,,,,,,
50292,note_on,0,0,5,,,,,,,,,6,,,79,110
50292,note_on,12,0,5,,,,,,,,,6,,,78,0
50294,set_tempo,7,1,0,1132075,,,,,,,,,,,,
50301,set_tempo,7,1,0,1153846,,,,,,,,,,,,
50302,note_on,10,0,5,,,,,,,,,6,,,79,0
50304,note_on,2,0,5,,,,,,,,,6,,,81,110
50307,set_tempo,6,1,0,1176470,,,,,,,,,,,,
50314,set_tempo,7,1,0,1200000,,,,,,,,,,,,
50321,set_tempo,7,1,0,1224489,,,,,,,,,,,,
50327,set_tempo,6,1,0,1250000,,,,,,,,,,,,
50328,note_on,24,0,5,,,,,,,,,6,,,81,0
50328,note_on,0,0,5,,,,,,,,,6,,,79,110
50334,set_tempo,7,1,0,1276595,,,,,,,,,,,,
50341,set_tempo,7,1,0,1304347,,,,,,,,,,,,
50347,set_tempo,6,1,0,1333333,,,,,,,,,,,,
50352,note_on,0,0,5,,,,,,,,,6,,,78,110
50352,note_on,24,0,5,,,,,,,,,6,,,79,0
50354,set_tempo,7,1,0,1363636,,,,,,,,,,,,
50361,set_tempo,7,1,0,1395348,,,,,,,,,,,,
50367,set_tempo,6,1,0,1428571,,,,,,,,,,,,
50374,set_tempo,7,1,0,1463414,,,,,,,,,,,,
50376,note_on,0,0,5,,,,,,,,,6,,,79,110
50376,note_on,24,0,5,,,,,,,,,6,,,78,0
50381,set_tempo,7,1,0,1500000,,,,,,,,,,,,
50387,set_tempo,6,1,0,1538461,,,,,,,,,,,,
50394,set_tempo,7,1,0,1578947,,,,,,,,,,,,
50398,note_on,22,0,5,,,,,,,,,6,,,79,0
50400,note_on,2,0,5,,,,,,,,,6,,,81,110
50401,set_tempo,7,1,0,1621621,,,,,,,,,,,,
50407,set_tempo,6,1,0,1666666,,,,,,,,,,,,
50414,set_tempo,7,1,0,1714285,,,,,,,,,,,,
50421,set_tempo,7,1,0,1764705,,,,,,,,,,,,
50424,note_on,0,0,5,,,,,,,,,6,,,79,110
50424,note_on,24,0,5,,,,,,,,,6,,,81,0
50427,set_tempo,6,1,0,1818181,,,,,,,,,,,,
50434,set_tempo,7,1,0,1875000,,,,,,,,,,,,
50441,set_tempo,7,1,0,1935483,,,,,,,,,,,,
50446,note_on,22,0,5,,,,,,,,,6,,,79,0
50448,note_on,2,0,5,,,,,,,,,6,,,83,110
50448,set_tempo,7,1,0,2000000,,,,,,,,,,,,
50472,note_on,0,0,5,,,,,,,,,6,,,81,110
50472,note_on,24,0,5,,,,,,,,,6,,,83,0
50494,note_on,22,0,5,,,,,,,,,6,,,81,0
50496,note_on,2,0,5,,,,,,,,,6,,,84,110
50496,set_tempo,48,1,0,1000000,,,,,,,,,,,,
50592,note_on,96,0,5,,,,,,,,,6,,,84,0
50592,note_on,0,0,5,,,,,,,,,6,,,83,110
50686,note_on,94,0,5,,,,,,,,,6,,,83,0
50688,end_of_track,0,1,0,,,,,,,,,,,,,
50688,set_tempo,192,1,0,1500000,,,,,,,,,,,,
50688,note_on,2,0,5,,,,,,,,,6,,,83,110
50712,note_on,24,0,5,,,,,,,,,6,,,83,0
50712,note_on,0,0,5,,,,,,,,,6,,,81,110
50736,note_on,24,0,5,,,,,,,,,6,,,81,0
50736,note_on,0,0,5,,,,,,,,,6,,,83,110
50752,note_on,16,0,5,,,,,,,,,6,,,83,0
50752,note_on,0,0,5,,,,,,,,,6,,,81,110
50768,note_on,16,0,5,,,,,,,,,6,,,81,0
50768,note_on,0,0,5,,,,,,,,,6,,,83,110
50784,note_on,0,0,5,,,,,,,,,6,,,81,110
50784,note_on,16,0,5,,,,,,,,,6,,,83,0
50794,note_on,10,0,5,,,,,,,,,6,,,81,0
50796,note_on,2,0,5,,,,,,,,,6,,,83,110
50808,note_on,0,0,5,,,,,,,,,6,,,81,110
50808,note_on,12,0,5,,,,,,,,,6,,,83,0
50820,note_on,0,0,5,,,,,,,,,6,,,83,110
50820,note_on,12,0,5,,,,,,,,,6,,,81,0
50832,note_on,0,0,5,,,,,,,,,6,,,81,110
50832,note_on,12,0,5,,,,,,,,,6,,,83,0
50840,note_on,8,0,5,,,,,,,,,6,,,81,0
50840,note_on,0,0,5,,,,,,,,,6,,,83,110
50848,note_on,0,0,5,,,,,,,,,6,,,81,110
50848,note_on,8,0,5,,,,,,,,,6,,,83,0
50854,note_on,6,0,5,,,,,,,,,6,,,81,0
50856,note_on,2,0,5,,,,,,,,,6,,,83,110
50864,note_on,0,0,5,,,,,,,,,6,,,81,110
50864,note_on,8,0,5,,,,,,,,,6,,,83,0
50870,note_on,6,0,5,,,,,,,,,6,,,81,0
50872,note_on,2,0,5,,,,,,,,,6,,,83,110
50880,note_on,8,0,5,,,,,,,,,6,,,83,0
50880,note_on,0,0,5,,,,,,,,,6,,,81,110
50888,note_on,8,0,5,,,,,,,,,6,,,81,0
50888,note_on,0,0,5,,,,,,,,,6,,,83,110
50896,note_on,8,0,5,,,,,,,,,6,,,83,0
50896,note_on,0,0,5,,,,,,,,,6,,,81,110
50904,note_on,8,0,5,,,,,,,,,6,,,81,0
50904,note_on,0,0,5,,,,,,,,,6,,,83,110
50912,note_on,8,0,5,,,,,,,,,6,,,83,0
50912,note_on,0,0,5,,,,,,,,,6,,,81,110
50918,note_on,6,0,5,,,,,,,,,6,,,81,0
50920,note_on,2,0,5,,,,,,,,,6,,,83,110
50928,note_on,0,0,5,,,,,,,,,6,,,81,110
50928,note_on,8,0,5,,,,,,,,,6,,,83,0
50936,note_on,8,0,5,,,,,,,,,6,,,81,0
50936,note_on,0,0,5,,,,,,,,,6,,,83,110
50944,note_on,8,0,5,,,,,,,,,6,,,83,0
50944,note_on,0,0,5,,,,,,,,,6,,,81,110
50952,note_on,8,0,5,,,,,,,,,6,,,81,0
50952,note_on,0,0,5,,,,,,,,,6,,,83,110
50960,note_on,8,0,5,,,,,,,,,6,,,83,0
50960,note_on,0,0,5,,,,,,,,,6,,,81,110
50966,note_on,6,0,5,,,,,,,,,6,,,81,0
50968,note_on,2,0,5,,,,,,,,,6,,,83,110
50976,note_on,0,0,5,,,,,,,,,6,,,81,110
50976,note_on,8,0,5,,,,,,,,,6,,,83,0
50984,note_on,8,0,5,,,,,,,,,6,,,81,0
50984,note_on,0,0,5,,,,,,,,,6,,,83,110
50992,note_on,0,0,5,,,,,,,,,6,,,81,110
50992,note_on,8,0,5,,,,,,,,,6,,,83,0
51000,note_on,0,0,5,,,,,,,,,6,,,83,110
51000,note_on,8,0,5,,,,,,,,,6,,,81,0
51008,note_on,0,0,5,,,,,,,,,6,,,81,110
51008,note_on,8,0,5,,,,,,,,,6,,,83,0
51014,note_on,6,0,5,,,,,,,,,6,,,81,0
51016,note_on,2,0,5,,,,,,,,,6,,,83,110
51024,note_on,0,0,5,,,,,,,,,6,,,81,110
51024,note_on,8,0,5,,,,,,,,,6,,,83,0
51032,note_on,8,0,5,,,,,,,,,6,,,81,0
51032,note_on,0,0,5,,,,,,,,,6,,,83,110
51040,note_on,0,0,5,,,,,,,,,6,,,81,110
51040,note_on,8,0,5,,,,,,,,,6,,,83,0
51048,note_on,0,0,5,,,,,,,,,6,,,83,110
51048,note_on,8,0,5,,,,,,,,,6,,,81,0
51056,note_on,8,0,5,,,,,,,,,6,,,83,0
51056,note_on,0,0,5,,,,,,,,,6,,,81,110
51062,note_on,6,0,5,,,,,,,,,6,,,81,0
51064,note_on,2,0,5,,,,,,,,,6,,,83,110
51072,note_on,0,0,5,,,,,,,,,6,,,81,110
51072,note_on,8,0,5,,,,,,,,,6,,,83,0
51080,note_on,8,0,5,,,,,,,,,6,,,81,0
51080,note_on,0,0,5,,,,,,,,,6,,,83,110
51088,note_on,0,0,5,,,,,,,,,6,,,81,110
51088,note_on,8,0,5,,,,,,,,,6,,,83,0
51096,note_on,8,0,5,,,,,,,,,6,,,81,0
51096,note_on,0,0,5,,,,,,,,,6,,,83,110
51104,note_on,8,0,5,,,,,,,,,6,,,83,0
51104,note_on,0,0,5,,,,,,,,,6,,,81,110
51110,note_on,6,0,5,,,,,,,,,6,,,81,0
51112,note_on,2,0,5,,,,,,,,,6,,,83,110
51120,note_on,0,0,5,,,,,,,,,6,,,81,110
51120,note_on,8,0,5,,,,,,,,,6,,,83,0
51128,note_on,8,0,5,,,,,,,,,6,,,81,0
51128,note_on,0,0,5,,,,,,,,,6,,,83,110
51136,note_on,8,0,5,,,,,,,,,6,,,83,0
51136,note_on,0,0,5,,,,,,,,,6,,,81,110
51144,note_on,8,0,5,,,,,,,,,6,,,81,0
51144,note_on,0,0,5,,,,,,,,,6,,,83,110
51152,note_on,8,0,5,,,,,,,,,6,,,83,0
51152,note_on,0,0,5,,,,,,,,,6,,,81,110
51158,note_on,6,0,5,,,,,,,,,6,,,81,0
51160,note_on,2,0,5,,,,,,,,,6,,,83,110
51168,note_on,8,0,5,,,,,,,,,6,,,83,0
51168,note_on,0,0,5,,,,,,,,,6,,,81,110
51176,note_on,8,0,5,,,,,,,,,6,,,81,0
51176,note_on,0,0,5,,,,,,,,,6,,,83,110
51184,note_on,8,0,5,,,,,,,,,6,,,83,0
51184,note_on,0,0,5,,,,,,,,,6,,,81,110
51192,note_on,8,0,5,,,,,,,,,6,,,81,0
51192,note_on,0,0,5,,,,,,,,,6,,,83,110
51200,note_on,8,0,5,,,,,,,,,6,,,83,0
51200,note_on,0,0,5,,,,,,,,,6,,,81,110
51206,note_on,6,0,5,,,,,,,,,6,,,81,0
51208,note_on,2,0,5,,,,,,,,,6,,,83,110
51216,note_on,0,0,5,,,,,,,,,6,,,79,110
51216,note_on,8,0,5,,,,,,,,,6,,,83,0
51238,note_on,22,0,5,,,,,,,,,6,,,79,0
51240,note_on,2,0,5,,,,,,,,,6,,,81,110
51262,note_on,22,0,5,,,,,,,,,6,,,81,0
51264,note_on,2544,0,8,,,,,,,,,10,,,67,92
51264,note_on,2544,0,7,,,,,,,,,8,,,67,92
51264,note_on,2544,0,10,,,,,,,,,12,,,43,92
51264,note_on,2,0,5,,,,,,,,,6,,,79,110
51264,note_on,2544,0,6,,,,,,,,,7,,,67,92
51264,note_on,2544,0,9,,,,,,,,,11,,,55,92
51358,note_on,94,0,10,,,,,,,,,12,,,43,0
51358,note_on,94,0,9,,,,,,,,,11,,,55,0
51360,note_on,2,0,10,,,,,,,,,12,,,43,92
51360,note_on,2,0,9,,,,,,,,,11,,,55,92
51424,end_of_track,0,1,5,,,,,,,,,,,,,
51424,note_on,160,0,6,,,,,,,,,7,,,67,0
51424,note_on,160,0,8,,,,,,,,,10,,,67,0
51424,note_on,160,0,7,,,,,,,,,8,,,67,0
51424,note_on,160,0,5,,,,,,,,,6,,,79,0
51454,note_on,94,0,10,,,,,,,,,12,,,43,0
51454,note_on,94,0,9,,,,,,,,,11,,,55,0
51456,note_on,2,0,10,,,,,,,,,12,,,38,92
51456,note_on,32,0,7,,,,,,,,,8,,,62,92
51456,note_on,32,0,8,,,,,,,,,10,,,62,92
51456,note_on,32,0,6,,,,,,,,,7,,,62,92
51456,note_on,2,0,9,,,,,,,,,11,,,50,92
51550,note_on,94,0,10,,,,,,,,,12,,,38,0
51550,note_on,94,0,9,,,,,,,,,11,,,50,0
51552,note_on,2,0,9,,,,,,,,,11,,,50,92
51552,note_on,2,0,10,,,,,,,,,12,,,38,92
51616,note_on,160,0,6,,,,,,,,,7,,,62,0
51616,note_on,160,0,7,,,,,,,,,8,,,62,0
51616,note_on,160,0,8,,,,,,,,,10,,,62,0
51646,note_on,94,0,10,,,,,,,,,12,,,38,0
51646,note_on,94,0,9,,,,,,,,,11,,,50,0
51648,note_on,2,0,9,,,,,,,,,11,,,47,92
51648,note_on,32,0,7,,,,,,,,,8,,,59,92
51648,note_on,2,0,10,,,,,,,,,12,,,35,92
51648,note_on,32,0,6,,,,,,,,,7,,,59,92
51648,note_on,32,0,8,,,,,,,,,10,,,59,92
51742,note_on,94,0,10,,,,,,,,,12,,,35,0
51742,note_on,94,0,9,,,,,,,,,11,,,47,0
51744,note_on,2,0,10,,,,,,,,,12,,,35,92
51744,note_on,2,0,9,,,,,,,,,11,,,47,92
51808,note_on,160,0,8,,,,,,,,,10,,,59,0
51808,note_on,160,0,7,,,,,,,,,8,,,59,0
51808,note_on,160,0,6,,,,,,,,,7,,,59,0
51838,note_on,94,0,10,,,,,,,,,12,,,35,0
51838,note_on,94,0,9,,,,,,,,,11,,,47,0
51840,note_on,3120,0,2,,,,,,,,,1,,,64,92
51840,note_on,32,0,6,,,,,,,,,7,,,60,92
51840,note_on,32,0,7,,,,,,,,,8,,,60,92
51840,note_on,3120,0,4,,,,,,,,,5,,,55,92
51840,note_on,2,0,10,,,,,,,,,12,,,36,92
51840,note_on,2,0,9,,,,,,,,,11,,,48,92
51840,note_on,3120,0,3,,,,,,,,,5,,,67,92
51840,note_on,3120,0,1,,,,,,,,,1,,,67,92
51840,note_on,32,0,8,,,,,,,,,10,,,60,92
51934,note_on,94,0,9,,,,,,,,,11,,,48,0
51934,note_on,94,0,10,,,,,,,,,12,,,36,0
51936,note_on,2,0,9,,,,,,,,,11,,,48,92
51936,note_on,96,0,8,,,,,,,,,10,,,60,0
51936,note_on,0,0,8,,,,,,,,,10,,,67,92
51936,note_on,2,0,10,,,,,,,,,12,,,36,92
51982,note_on,142,0,7,,,,,,,,,8,,,60,0
51982,note_on,142,0,6,,,,,,,,,7,,,60,0
51984,note_on,2,0,7,,,,,,,,,8,,,76,92
51984,note_on,2,0,6,,,,,,,,,7,,,79,92
52030,note_on,94,0,8,,,,,,,,,10,,,67,0
52030,note_on,46,0,6,,,,,,,,,7,,,79,0
52030,note_on,94,0,10,,,,,,,,,12,,,36,0
52030,note_on,94,0,9,,,,,,,,,11,,,48,0
52030,note_on,46,0,7,,,,,,,,,8,,,76,0
52032,note_on,2,0,10,,,,,,,,,12,,,36,92
52032,note_on,0,0,1,,,,,,,,,1,,,72,92
52032,note_on,2,0,8,,,,,,,,,10,,,67,92
52032,note_on,2,0,7,,,,,,,,,8,,,78,92
52032,note_on,192,0,2,,,,,,,,,1,,,64,0
52032,note_on,0,0,2,,,,,,,,,1,,,67,92
52032,note_on,2,0,6,,,,,,,,,7,,,81,92
52032,note_on,192,0,1,,,,,,,,,1,,,67,0
52032,note_on,2,0,9,,,,,,,,,11,,,48,92
52078,note_on,46,0,7,,,,,,,,,8,,,78,0
52078,note_on,46,0,6,,,,,,,,,7,,,81,0
52080,note_on,2,0,7,,,,,,,,,8,,,76,92
52080,note_on,2,0,6,,,,,,,,,7,,,79,92
52126,note_on,94,0,10,,,,,,,,,12,,,36,0
52126,note_on,94,0,8,,,,,,,,,10,,,67,0
52126,note_on,94,0,9,,,,,,,,,11,,,48,0
52128,note_on,2,0,9,,,,,,,,,11,,,48,92
52128,note_on,2,0,8,,,,,,,,,10,,,67,92
52128,note_on,2,0,10,,,,,,,,,12,,,36,92
52222,note_on,94,0,10,,,,,,,,,12,,,36,0
52222,note_on,94,0,9,,,,,,,,,11,,,48,0
52222,note_on,142,0,6,,,,,,,,,7,,,79,0
52222,note_on,94,0,8,,,,,,,,,10,,,67,0
52222,note_on,142,0,7,,,,,,,,,8,,,76,0
52224,note_on,192,0,2,,,,,,,,,1,,,67,0
52224,note_on,0,0,2,,,,,,,,,1,,,72,92
52224,note_on,2,0,6,,,,,,,,,7,,,81,92
52224,note_on,2,0,8,,,,,,,,,10,,,67,92
52224,note_on,2,0,10,,,,,,,,,12,,,36,92
52224,note_on,2,0,9,,,,,,,,,11,,,48,92
52224,note_on,192,0,1,,,,,,,,,1,,,72,0
52224,note_on,2,0,7,,,,,,,,,8,,,78,92
52224,note_on,0,0,1,,,,,,,,,1,,,76,92
52272,note_on,48,0,7,,,,,,,,,8,,,78,0
52272,note_on,0,0,7,,,,,,,,,8,,,76,92
52272,note_on,0,0,6,,,,,,,,,7,,,79,92
52272,note_on,48,0,6,,,,,,,,,7,,,81,0
52318,note_on,94,0,10,,,,,,,,,12,,,36,0
52318,note_on,94,0,9,,,,,,,,,11,,,48,0
52318,note_on,94,0,8,,,,,,,,,10,,,67,0
52320,note_on,0,0,7,,,,,,,,,8,,,74,92
52320,note_on,48,0,7,,,,,,,,,8,,,76,0
52320,note_on,2,0,10,,,,,,,,,12,,,36,92
52320,note_on,0,0,6,,,,,,,,,7,,,78,92
52320,note_on,48,0,6,,,,,,,,,7,,,79,0
52320,note_on,2,0,8,,,,,,,,,10,,,67,92
52320,note_on,2,0,9,,,,,,,,,11,,,48,92
52368,note_on,0,0,7,,,,,,,,,8,,,72,92
52368,note_on,528,0,4,,,,,,,,,5,,,55,0
52368,note_on,0,0,6,,,,,,,,,7,,,76,92
52368,note_on,528,0,3,,,,,,,,,5,,,67,0
52368,note_on,48,0,7,,,,,,,,,8,,,74,0
52368,note_on,48,0,6,,,,,,,,,7,,,78,0
52384,note_on,160,0,1,,,,,,,,,1,,,76,0
52384,note_on,160,0,2,,,,,,,,,1,,,72,0
52414,note_on,94,0,10,,,,,,,,,12,,,36,0
52414,note_on,46,0,6,,,,,,,,,7,,,76,0
52414,note_on,94,0,8,,,,,,,,,10,,,67,0
52414,note_on,46,0,7,,,,,,,,,8,,,72,0
52414,note_on,94,0,9,,,,,,,,,11,,,48,0
52416,note_on,2,0,7,,,,,,,,,8,,,72,92
52416,note_on,2,0,6,,,,,,,,,7,,,76,92
52416,note_on,48,0,4,,,,,,,,,5,,,50,92
52416,note_on,48,0,3,,,,,,,,,5,,,62,92
52416,note_on,32,0,1,,,,,,,,,1,,,76,92
52416,note_on,2,0,10,,,,,,,,,12,,,38,92
52416,note_on,2,0,9,,,,,,,,,11,,,50,92
52416,note_on,2,0,8,,,,,,,,,10,,,67,92
52416,note_on,32,0,2,,,,,,,,,1,,,72,92
52464,note_on,48,0,1,,,,,,,,,1,,,76,0
52464,note_on,0,0,1,,,,,,,,,1,,,74,92
52464,note_on,0,0,7,,,,,,,,,8,,,71,92
52464,note_on,48,0,7,,,,,,,,,8,,,72,0
52464,note_on,48,0,2,,,,,,,,,1,,,72,0
52464,note_on,0,0,6,,,,,,,,,7,,,74,92
52464,note_on,48,0,6,,,,,,,,,7,,,76,0
52464,note_on,0,0,2,,,,,,,,,1,,,71,92
52510,note_on,94,0,10,,,,,,,,,12,,,38,0
52510,note_on,94,0,8,,,,,,,,,10,,,67,0
52510,note_on,46,0,7,,,,,,,,,8,,,71,0
52510,note_on,46,0,1,,,,,,,,,1,,,74,0
52510,note_on,94,0,9,,,,,,,,,11,,,50,0
52510,note_on,46,0,2,,,,,,,,,1,,,71,0
52510,note_on,46,0,6,,,,,,,,,7,,,74,0
52512,note_on,2,0,6,,,,,,,,,7,,,74,92
52512,note_on,2,0,9,,,,,,,,,11,,,50,92
52512,note_on,2,0,8,,,,,,,,,10,,,67,92
52512,note_on,2,0,1,,,,,,,,,1,,,74,92
52512,note_on,2,0,10,,,,,,,,,12,,,38,92
52512,note_on,2,0,2,,,,,,,,,1,,,71,92
52512,note_on,2,0,7,,,,,,,,,8,,,71,92
52606,note_on,94,0,10,,,,,,,,,12,,,38,0
52606,note_on,94,0,9,,,,,,,,,11,,,50,0
52606,note_on,94,0,8,,,,,,,,,10,,,67,0
52608,note_on,2,0,10,,,,,,,,,12,,,38,92
52608,note_on,2,0,8,,,,,,,,,10,,,67,92
52608,note_on,2,0,9,,,,,,,,,11,,,50,92
52654,note_on,142,0,6,,,,,,,,,7,,,74,0
52656,note_on,2,0,6,,,,,,,,,7,,,75,92
52672,note_on,160,0,2,,,,,,,,,1,,,71,0
52672,note_on,160,0,1,,,,,,,,,1,,,74,0
52672,note_on,160,0,7,,,,,,,,,8,,,71,0
52702,note_on,94,0,9,,,,,,,,,11,,,50,0
52702,note_on,94,0,8,,,,,,,,,10,,,67,0
52702,note_on,46,0,6,,,,,,,,,7,,,75,0
52702,note_on,94,0,10,,,,,,,,,12,,,38,0
52704,note_on,2,0,10,,,,,,,,,12,,,38,92
52704,note_on,32,0,1,,,,,,,,,1,,,76,92
52704,note_on,2,0,8,,,,,,,,,10,,,67,92
52704,note_on,32,0,2,,,,,,,,,1,,,72,92
52704,note_on,2,0,9,,,,,,,,,11,,,50,92
52704,note_on,2,0,6,,,,,,,,,7,,,76,92
52704,note_on,32,0,7,,,,,,,,,8,,,72,92
52750,note_on,46,0,6,,,,,,,,,7,,,76,0
52752,note_on,2,0,6,,,,,,,,,7,,,74,92
52752,note_on,0,0,1,,,,,,,,,1,,,74,92
52752,note_on,48,0,2,,,,,,,,,1,,,72,0
52752,note_on,0,0,2,,,,,,,,,1,,,71,92
52752,note_on,48,0,7,,,,,,,,,8,,,72,0
52752,note_on,0,0,7,,,,,,,,,8,,,71,92
52752,note_on,48,0,1,,,,,,,,,1,,,76,0
52798,note_on,94,0,8,,,,,,,,,10,,,67,0
52798,note_on,46,0,1,,,,,,,,,1,,,74,0
52798,note_on,94,0,9,,,,,,,,,11,,,50,0
52798,note_on,46,0,7,,,,,,,,,8,,,71,0
52798,note_on,94,0,10,,,,,,,,,12,,,38,0
52798,note_on,46,0,2,,,,,,,,,1,,,71,0
52798,note_on,46,0,6,,,,,,,,,7,,,74,0
52800,note_on,2,0,10,,,,,,,,,12,,,38,92
52800,note_on,2,0,8,,,,,,,,,10,,,62,92
52800,note_on,2,0,9,,,,,,,,,11,,,50,92
52800,note_on,2,0,2,,,,,,,,,1,,,71,92
52800,note_on,2,0,6,,,,,,,,,7,,,74,92
52800,note_on,2,0,1,,,,,,,,,1,,,74,92
52800,note_on,2,0,7,,,,,,,,,8,,,71,92
52848,note_on,48,0,6,,,,,,,,,7,,,74,0
52848,note_on,0,0,6,,,,,,,,,7,,,72,92
52848,note_on,0,0,7,,,,,,,,,8,,,69,92
52848,note_on,48,0,7,,,,,,,,,8,,,71,0
52848,note_on,0,0,1,,,,,,,,,1,,,72,92
52848,note_on,48,0,1,,,,,,,,,1,,,74,0
52848,note_on,0,0,2,,,,,,,,,1,,,69,92
52848,note_on,48,0,2,,,,,,,,,1,,,71,0
52894,note_on,94,0,9,,,,,,,,,11,,,50,0
52894,note_on,94,0,10,,,,,,,,,12,,,38,0
52894,note_on,94,0,8,,,,,,,,,10,,,62,0
52896,note_on,0,0,6,,,,,,,,,7,,,71,92
52896,note_on,48,0,6,,,,,,,,,7,,,72,0
52896,note_on,0,0,7,,,,,,,,,8,,,67,92
52896,note_on,48,0,7,,,,,,,,,8,,,69,0
52896,note_on,0,0,2,,,,,,,,,1,,,67,92
52896,note_on,2,0,9,,,,,,,,,11,,,50,92
52896,note_on,2,0,8,,,,,,,,,10,,,62,92
52896,note_on,48,0,2,,,,,,,,,1,,,69,0
52896,note_on,2,0,10,,,,,,,,,12,,,38,92
52896,note_on,48,0,1,,,,,,,,,1,,,72,0
52896,note_on,0,0,1,,,,,,,,,1,,,71,92
52944,note_on,48,0,7,,,,,,,,,8,,,67,0
52944,note_on,0,0,6,,,,,,,,,7,,,69,92
52944,note_on,48,0,6,,,,,,,,,7,,,71,0
52944,note_on,528,0,3,,,,,,,,,5,,,62,0
52944,note_on,528,0,4,,,,,,,,,5,,,50,0
52944,note_on,0,0,7,,,,,,,,,8,,,66,92
52944,note_on,48,0,1,,,,,,,,,1,,,71,0
52944,note_on,0,0,1,,,,,,,,,1,,,72,92
52944,note_on,48,0,2,,,,,,,,,1,,,67,0
52944,note_on,0,0,2,,,,,,,,,1,,,69,92
52990,note_on,46,0,6,,,,,,,,,7,,,69,0
52990,note_on,46,0,7,,,,,,,,,8,,,66,0
52990,note_on,46,0,1,,,,,,,,,1,,,72,0
52990,note_on,94,0,10,,,,,,,,,12,,,38,0
52990,note_on,94,0,9,,,,,,,,,11,,,50,0
52990,note_on,94,0,8,,,,,,,,,10,,,62,0
52990,note_on,46,0,2,,,,,,,,,1,,,69,0
52992,note_on,2,0,2,,,,,,,,,1,,,67,45
52992,note_on,2,0,1,,,,,,,,,1,,,67,45
52992,note_on,2,0,9,,,,,,,,,11,,,52,45
52992,note_on,2,0,8,,,,,,,,,10,,,59,45
52992,note_on,2,0,10,,,,,,,,,12,,,40,45
53040,note_on,50,0,6,,,,,,,,,7,,,67,45
53040,note_on,50,0,7,,,,,,,,,8,,,59,45
53072,note_on,32,0,6,,,,,,,,,7,,,67,0
53072,note_on,32,0,7,,,,,,,,,8,,,59,0
53088,note_on,16,0,6,,,,,,,,,7,,,67,45
53088,note_on,16,0,7,,,,,,,,,8,,,59,45
53136,note_on,0,0,6,,,,,,,,,7,,,71,45
53136,note_on,48,0,6,,,,,,,,,7,,,67,0
53136,note_on,0,0,7,,,,,,,,,8,,,67,45
53136,note_on,48,0,7,,,,,,,,,8,,,59,0
53152,note_on,160,0,2,,,,,,,,,1,,,67,0
53152,note_on,160,0,1,,,,,,,,,1,,,67,0
53182,note_on,46,0,6,,,,,,,,,7,,,71,0
53182,note_on,46,0,7,,,,,,,,,8,,,67,0
53184,note_on,0,0,8,,,,,,,,,10,,,60,45
53184,note_on,32,0,2,,,,,,,,,1,,,76,45
53184,note_on,0,0,9,,,,,,,,,11,,,48,45
53184,note_on,192,0,9,,,,,,,,,11,,,52,0
53184,note_on,192,0,8,,,,,,,,,10,,,59,0
53184,note_on,32,0,1,,,,,,,,,1,,,64,45
53184,note_on,0,0,10,,,,,,,,,12,,,36,45
53184,note_on,192,0,10,,,,,,,,,12,,,40,0
53232,note_on,50,0,7,,,,,,,,,8,,,64,45
53232,note_on,50,0,6,,,,,,,,,7,,,69,45
53264,note_on,32,0,6,,,,,,,,,7,,,69,0
53264,note_on,32,0,7,,,,,,,,,8,,,64,0
53280,note_on,16,0,7,,,,,,,,,8,,,64,45
53280,note_on,16,0,6,,,,,,,,,7,,,69,45
53328,note_on,0,0,7,,,,,,,,,8,,,67,45
53328,note_on,48,0,7,,,,,,,,,8,,,64,0
53328,note_on,48,0,6,,,,,,,,,7,,,69,0
53328,note_on,0,0,6,,,,,,,,,7,,,72,45
53344,note_on,160,0,2,,,,,,,,,1,,,76,0
53344,note_on,160,0,1,,,,,,,,,1,,,64,0
53374,note_on,46,0,7,,,,,,,,,8,,,67,0
53374,note_on,46,0,6,,,,,,,,,7,,,72,0
53376,note_on,32,0,1,,,,,,,,,1,,,66,45
53376,note_on,0,0,8,,,,,,,,,10,,,62,45
53376,note_on,192,0,8,,,,,,,,,10,,,60,0
53376,note_on,192,0,9,,,,,,,,,11,,,48,0
53376,note_on,0,0,9,,,,,,,,,11,,,50,45
53376,note_on,32,0,2,,,,,,,,,1,,,69,45
53376,note_on,0,0,10,,,,,,,,,12,,,38,45
53376,note_on,192,0,10,,,,,,,,,12,,,36,0
53376,note_on,432,0,4,,,,,,,,,5,,,50,45
53376,note_on,432,0,3,,,,,,,,,5,,,62,45
53424,note_on,50,0,6,,,,,,,,,7,,,66,45
53424,note_on,50,0,7,,,,,,,,,8,,,57,45
53456,note_on,32,0,6,,,,,,,,,7,,,66,0
53456,note_on,32,0,7,,,,,,,,,8,,,57,0
53472,note_on,16,0,7,,,,,,,,,8,,,57,45
53472,note_on,16,0,6,,,,,,,,,7,,,66,45
53520,note_on,48,0,7,,,,,,,,,8,,,57,0
53520,note_on,0,0,6,,,,,,,,,7,,,69,45
53520,note_on,48,0,6,,,,,,,,,7,,,66,0
53520,note_on,0,0,7,,,,,,,,,8,,,60,45
53536,note_on,160,0,10,,,,,,,,,12,,,38,0
53536,note_on,160,0,3,,,,,,,,,5,,,62,0
53536,note_on,160,0,9,,,,,,,,,11,,,50,0
53536,note_on,160,0,8,,,,,,,,,10,,,62,0
53536,note_on,160,0,4,,,,,,,,,5,,,50,0
53536,note_on,160,0,1,,,,,,,,,1,,,66,0
53536,note_on,160,0,2,,,,,,,,,1,,,69,0
53566,note_on,46,0,7,,,,,,,,,8,,,60,0
53566,note_on,46,0,6,,,,,,,,,7,,,69,0
53568,note_on,2,0,7,,,,,,,,,8,,,60,45
53568,note_on,32,0,8,,,,,,,,,10,,,55,45
53568,note_on,32,0,10,,,,,,,,,12,,,43,45
53568,note_on,32,0,1,,,,,,,,,1,,,69,45
53568,note_on,2,0,6,,,,,,,,,7,,,69,45
53568,note_on,32,0,3,,,,,,,,,5,,,62,45
53568,note_on,32,0,9,,,,,,,,,11,,,55,45
53568,note_on,32,0,2,,,,,,,,,1,,,72,45
53568,note_on,32,0,4,,,,,,,,,5,,,55,45
53616,note_on,48,0,9,,,,,,,,,11,,,55,0
53616,note_on,0,0,9,,,,,,,,,11,,,54,45
53616,note_on,0,0,10,,,,,,,,,12,,,42,45
53616,note_on,48,0,10,,,,,,,,,12,,,43,0
53616,note_on,0,0,8,,,,,,,,,10,,,54,45
53616,note_on,48,0,8,,,,,,,,,10,,,55,0
53664,note_on,48,0,8,,,,,,,,,10,,,54,0
53664,note_on,48,0,10,,,,,,,,,12,,,42,0
53664,note_on,0,0,9,,,,,,,,,11,,,55,45
53664,note_on,0,0,8,,,,,,,,,10,,,55,45
53664,note_on,0,0,10,,,,,,,,,12,,,43,45
53664,note_on,48,0,9,,,,,,,,,11,,,54,0
53712,note_on,48,0,9,,,,,,,,,11,,,55,0
53712,note_on,0,0,9,,,,,,,,,11,,,54,45
53712,note_on,0,0,10,,,,,,,,,12,,,42,45
53712,note_on,48,0,10,,,,,,,,,12,,,43,0
53712,note_on,0,0,8,,,,,,,,,10,,,54,45
53712,note_on,48,0,8,,,,,,,,,10,,,55,0
53728,note_on,160,0,2,,,,,,,,,1,,,72,0
53758,note_on,46,0,10,,,,,,,,,12,,,42,0
53758,note_on,46,0,8,,,,,,,,,10,,,54,0
53758,note_on,46,0,9,,,,,,,,,11,,,54,0
53760,note_on,0,0,1,,,,,,,,,1,,,67,45
53760,note_on,2,0,9,,,,,,,,,11,,,55,45
53760,note_on,192,0,7,,,,,,,,,8,,,60,0
53760,note_on,0,0,7,,,,,,,,,8,,,59,45
53760,note_on,32,0,2,,,,,,,,,1,,,71,45
53760,note_on,2,0,8,,,,,,,,,10,,,55,45
53760,note_on,192,0,6,,,,,,,,,7,,,69,0
53760,note_on,2,0,10,,,,,,,,,12,,,43,45
53760,note_on,192,0,1,,,,,,,,,1,,,69,0
53760,note_on,0,0,6,,,,,,,,,7,,,67,45
54016,note_on,256,0,10,,,,,,,,,12,,,43,0
54016,end_of_track,0,1,1,,,,,,,,,,,,,
54016,end_of_track,0,1,8,,,,,,,,,,,,,
54016,note_on,256,0,8,,,,,,,,,10,,,55,0
54016,note_on,256,0,9,,,,,,,,,11,,,55,0
54016,end_of_track,0,1,9,,,,,,,,,,,,,
54016,note_on,256,0,1,,,,,,,,,1,,,67,0
54016,end_of_track,0,1,10,,,,,,,,,,,,,
54016,note_on,256,0,2,,,,,,,,,1,,,71,0
54016,note_on,256,0,6,,,,,,,,,7,,,67,0
54016,end_of_track,0,1,6,,,,,,,,,,,,,
54016,end_of_track,0,1,7,,,,,,,,,,,,,
54016,note_on,256,0,7,,,,,,,,,8,,,59,0
54016,end_of_track,0,1,2,,,,,,,,,,,,,
54046,note_on,478,0,3,,,,,,,,,5,,,62,0
54046,note_on,478,0,4,,,,,,,,,5,,,55,0
54046,end_of_track,0,1,4,,,,,,,,,,,,,
54046,end_of_track,0,1,3,,,,,,,,,,,,,
