tick,type,numerator,denominator,clocks_per_click,notated_32nd_notes_per_beat,time,meta,track,key,tempo,port,program,channel,control,value,note,velocity
0,time_signature,8,8,12,8,0,1,0,,,,,,,,,
0,note_on,,,,,0,0,2,,,,,0,,,48,98
0,note_on,,,,,0,0,2,,,,,0,,,36,98
0,track_name,,,,,0,1,11,,,,,,,,,
0,midi_port,,,,,0,1,3,,,0,,,,,,
0,track_name,,,,,0,1,3,,,,,,,,,
0,program_change,,,,,0,0,3,,,,52,1,,,,
0,midi_port,,,,,0,1,4,,,0,,,,,,
0,track_name,,,,,0,1,4,,,,,,,,,
0,midi_port,,,,,0,1,5,,,0,,,,,,
0,track_name,,,,,0,1,5,,,,,,,,,
0,track_name,,,,,0,1,2,,,,,,,,,
0,midi_port,,,,,0,1,6,,,0,,,,,,
0,midi_port,,,,,0,1,7,,,0,,,,,,
0,track_name,,,,,0,1,7,,,,,,,,,
0,program_change,,,,,0,0,7,,,,53,2,,,,
0,midi_port,,,,,0,1,8,,,0,,,,,,
0,track_name,,,,,0,1,8,,,,,,,,,
0,midi_port,,,,,0,1,9,,,0,,,,,,
0,track_name,,,,,0,1,9,,,,,,,,,
0,midi_port,,,,,0,1,10,,,0,,,,,,
0,track_name,,,,,0,1,10,,,,,,,,,
0,midi_port,,,,,0,1,11,,,0,,,,,,
0,track_name,,,,,0,1,6,,,,,,,,,
0,midi_port,,,,,0,1,2,,,0,,,,,,
0,end_of_track,,,,,0,1,11,,,,,,,,,
0,control_change,,,,,0,0,1,,,,,0,1,7,,
0,marker,,,,,0,1,0,,,,,,,,,
0,midi_port,,,,,0,1,1,,,0,,,,,,
0,track_name,,,,,0,1,1,,,,,,,,,
0,program_change,,,,,0,0,1,,,,0,0,,,,
0,control_change,,,,,0,0,1,,,,,0,1,16,,
0,control_change,,,,,0,0,1,,,,,0,1,14,,
0,control_change,,,,,0,0,1,,,,,0,1,12,,
0,note_on,,,,,0,0,1,,,,,0,,,64,70
0,control_change,,,,,0,0,1,,,,,0,1,10,,
0,key_signature,,,,,0,1,0,C,,,,,,,,
0,control_change,,,,,0,0,1,,,,,0,1,4,,
0,control_change,,,,,0,0,1,,,,,0,1,2,,
0,note_on,,,,,0,0,1,,,,,0,,,67,78
0,control_change,,,,,0,0,1,,,,,0,1,0,,
0,note_on,,,,,0,0,1,,,,,0,,,60,70
0,set_tempo,,,,,0,1,0,,674157,,,,,,,
29,note_on,,,,,0,0,1,,,,,0,,,60,0
29,note_on,,,,,0,0,1,,,,,0,,,64,0
29,note_on,,,,,29,0,1,,,,,0,,,67,0
30,note_on,,,,,1,0,1,,,,,0,,,72,70
59,note_on,,,,,29,0,1,,,,,0,,,72,0
60,note_on,,,,,1,0,1,,,,,0,,,71,88
74,note_on,,,,,74,0,2,,,,,0,,,36,0
89,note_on,,,,,29,0,1,,,,,0,,,71,0
89,note_on,,,,,15,0,2,,,,,0,,,48,0
90,note_on,,,,,1,0,1,,,,,0,,,72,70
119,note_on,,,,,29,0,1,,,,,0,,,72,0
120,note_on,,,,,0,0,2,,,,,0,,,48,110
120,note_on,,,,,31,0,2,,,,,0,,,60,98
120,note_on,,,,,1,0,1,,,,,0,,,74,70
149,note_on,,,,,29,0,1,,,,,0,,,74,0
150,note_on,,,,,1,0,1,,,,,0,,,72,62
179,note_on,,,,,29,0,1,,,,,0,,,72,0
180,note_on,,,,,1,0,1,,,,,0,,,71,62
194,note_on,,,,,74,0,2,,,,,0,,,48,0
194,note_on,,,,,0,0,2,,,,,0,,,60,0
209,note_on,,,,,29,0,1,,,,,0,,,71,0
210,note_on,,,,,0,0,2,,,,,0,,,60,78
210,note_on,,,,,16,0,2,,,,,0,,,48,78
210,note_on,,,,,1,0,1,,,,,0,,,72,62
224,note_on,,,,,14,0,2,,,,,0,,,60,0
224,note_on,,,,,0,0,2,,,,,0,,,48,0
239,note_on,,,,,29,0,1,,,,,0,,,72,0
240,note_on,,,,,1,0,1,,,,,0,,,60,78
240,note_on,,,,,0,0,2,,,,,0,,,36,98
240,note_on,,,,,16,0,2,,,,,0,,,48,88
269,note_on,,,,,29,0,2,,,,,0,,,36,0
269,note_on,,,,,29,0,1,,,,,0,,,60,0
269,note_on,,,,,0,0,2,,,,,0,,,48,0
270,note_on,,,,,1,0,1,,,,,0,,,72,78
299,note_on,,,,,29,0,1,,,,,0,,,72,0
300,note_on,,,,,31,0,2,,,,,0,,,50,98
300,note_on,,,,,0,0,2,,,,,0,,,38,98
300,note_on,,,,,1,0,1,,,,,0,,,62,78
329,note_on,,,,,29,0,2,,,,,0,,,38,0
329,note_on,,,,,29,0,1,,,,,0,,,62,0
330,note_on,,,,,1,0,1,,,,,0,,,72,62
344,note_on,,,,,15,0,2,,,,,0,,,50,0
359,note_on,,,,,29,0,1,,,,,0,,,72,0
360,note_on,,,,,1,0,1,,,,,0,,,64,62
360,note_on,,,,,0,0,2,,,,,0,,,40,98
360,note_on,,,,,16,0,2,,,,,0,,,52,88
389,note_on,,,,,29,0,1,,,,,0,,,64,0
389,note_on,,,,,29,0,2,,,,,0,,,40,0
390,note_on,,,,,1,0,1,,,,,0,,,72,62
404,note_on,,,,,15,0,2,,,,,0,,,52,0
419,note_on,,,,,29,0,1,,,,,0,,,72,0
420,note_on,,,,,0,0,2,,,,,0,,,41,98
420,note_on,,,,,1,0,1,,,,,0,,,65,70
420,note_on,,,,,16,0,2,,,,,0,,,53,98
449,note_on,,,,,29,0,1,,,,,0,,,65,0
449,note_on,,,,,29,0,2,,,,,0,,,53,0
450,note_on,,,,,1,0,1,,,,,0,,,72,55
464,note_on,,,,,15,0,2,,,,,0,,,41,0
479,note_on,,,,,29,0,1,,,,,0,,,72,0
480,note_on,,,,,1,0,1,,,,,0,,,67,88
480,note_on,,,,,16,0,2,,,,,0,,,43,88
480,note_on,,,,,0,0,2,,,,,0,,,55,88
494,note_on,,,,,14,0,1,,,,,0,,,67,0
510,note_on,,,,,16,0,1,,,,,0,,,72,62
539,note_on,,,,,29,0,1,,,,,0,,,72,0
540,note_on,,,,,1,0,1,,,,,0,,,71,70
569,note_on,,,,,29,0,1,,,,,0,,,71,0
570,note_on,,,,,1,0,1,,,,,0,,,72,62
584,note_on,,,,,104,0,2,,,,,0,,,55,0
584,note_on,,,,,0,0,2,,,,,0,,,43,0
599,note_on,,,,,29,0,1,,,,,0,,,72,0
600,note_on,,,,,1,0,1,,,,,0,,,74,70
600,note_on,,,,,0,0,2,,,,,0,,,60,88
600,note_on,,,,,16,0,2,,,,,0,,,48,98
629,note_on,,,,,29,0,1,,,,,0,,,74,0
630,note_on,,,,,1,0,1,,,,,0,,,72,70
659,note_on,,,,,29,0,1,,,,,0,,,72,0
659,note_on,,,,,59,0,2,,,,,0,,,60,0
660,note_on,,,,,1,0,1,,,,,0,,,71,70
674,note_on,,,,,15,0,2,,,,,0,,,48,0
689,note_on,,,,,29,0,1,,,,,0,,,71,0
690,note_on,,,,,1,0,1,,,,,0,,,72,70
690,note_on,,,,,0,0,2,,,,,0,,,60,88
690,note_on,,,,,16,0,2,,,,,0,,,48,78
704,note_on,,,,,14,0,2,,,,,0,,,60,0
704,note_on,,,,,0,0,2,,,,,0,,,48,0
719,note_on,,,,,29,0,1,,,,,0,,,72,0
720,note_on,,,,,1,0,1,,,,,0,,,64,78
720,note_on,,,,,16,0,2,,,,,0,,,52,98
720,note_on,,,,,0,0,2,,,,,0,,,40,88
749,note_on,,,,,29,0,2,,,,,0,,,40,0
749,note_on,,,,,29,0,1,,,,,0,,,64,0
750,note_on,,,,,1,0,1,,,,,0,,,72,55
764,note_on,,,,,15,0,2,,,,,0,,,52,0
779,note_on,,,,,29,0,1,,,,,0,,,72,0
780,note_on,,,,,16,0,2,,,,,0,,,41,88
780,note_on,,,,,0,0,2,,,,,0,,,53,98
780,note_on,,,,,1,0,1,,,,,0,,,65,88
809,note_on,,,,,29,0,2,,,,,0,,,53,0
809,note_on,,,,,29,0,1,,,,,0,,,65,0
809,note_on,,,,,0,0,2,,,,,0,,,41,0
810,note_on,,,,,1,0,1,,,,,0,,,72,62
839,note_on,,,,,29,0,1,,,,,0,,,72,0
840,note_on,,,,,1,0,1,,,,,0,,,67,62
840,note_on,,,,,31,0,2,,,,,0,,,43,88
840,note_on,,,,,0,0,2,,,,,0,,,55,88
869,note_on,,,,,29,0,1,,,,,0,,,67,0
869,note_on,,,,,29,0,2,,,,,0,,,55,0
870,note_on,,,,,1,0,1,,,,,0,,,72,62
884,note_on,,,,,15,0,2,,,,,0,,,43,0
899,note_on,,,,,29,0,1,,,,,0,,,72,0
900,note_on,,,,,1,0,1,,,,,0,,,69,70
900,note_on,,,,,0,0,2,,,,,0,,,45,88
900,note_on,,,,,16,0,2,,,,,0,,,57,98
929,note_on,,,,,0,0,2,,,,,0,,,57,0
929,note_on,,,,,29,0,1,,,,,0,,,69,0
929,note_on,,,,,29,0,2,,,,,0,,,45,0
930,note_on,,,,,1,0,1,,,,,0,,,72,62
959,note_on,,,,,29,0,1,,,,,0,,,72,0
960,note_on,,,,,31,0,2,,,,,0,,,46,98
960,note_on,,,,,0,0,2,,,,,0,,,58,110
960,note_on,,,,,1,0,1,,,,,0,,,70,88
974,note_on,,,,,14,0,1,,,,,0,,,70,0
990,note_on,,,,,16,0,1,,,,,0,,,72,70
1019,note_on,,,,,29,0,1,,,,,0,,,72,0
1020,note_on,,,,,1,0,1,,,,,0,,,71,70
1049,note_on,,,,,29,0,1,,,,,0,,,71,0
1050,note_on,,,,,1,0,1,,,,,0,,,72,62
1064,note_on,,,,,0,0,2,,,,,0,,,46,0
1064,note_on,,,,,104,0,2,,,,,0,,,58,0
1079,note_on,,,,,29,0,1,,,,,0,,,72,0
1080,note_on,,,,,1,0,1,,,,,0,,,74,70
1080,note_on,,,,,0,0,2,,,,,0,,,60,98
1080,note_on,,,,,16,0,2,,,,,0,,,48,110
1109,note_on,,,,,29,0,1,,,,,0,,,74,0
1110,note_on,,,,,1,0,1,,,,,0,,,72,62
1139,note_on,,,,,29,0,1,,,,,0,,,72,0
1139,note_on,,,,,59,0,2,,,,,0,,,60,0
1140,note_on,,,,,1,0,1,,,,,0,,,71,62
1154,note_on,,,,,15,0,2,,,,,0,,,48,0
1169,note_on,,,,,29,0,1,,,,,0,,,71,0
1170,note_on,,,,,1,0,1,,,,,0,,,72,62
1170,note_on,,,,,0,0,2,,,,,0,,,60,70
1170,note_on,,,,,16,0,2,,,,,0,,,48,78
1184,note_on,,,,,14,0,2,,,,,0,,,48,0
1184,note_on,,,,,14,0,1,,,,,0,,,72,0
1199,note_on,,,,,15,0,2,,,,,0,,,60,0
1200,note_on,,,,,0,0,2,,,,,0,,,46,98
1200,note_on,,,,,16,0,1,,,,,0,,,72,70
1200,note_on,,,,,0,0,1,,,,,0,,,76,70
1200,note_on,,,,,1,0,2,,,,,0,,,58,98
1229,note_on,,,,,0,0,1,,,,,0,,,72,0
1229,note_on,,,,,29,0,1,,,,,0,,,76,0
1230,note_on,,,,,1,0,1,,,,,0,,,67,62
1244,note_on,,,,,44,0,2,,,,,0,,,46,0
1244,note_on,,,,,0,0,2,,,,,0,,,58,0
1259,note_on,,,,,29,0,1,,,,,0,,,67,0
1260,note_on,,,,,16,0,2,,,,,0,,,45,78
1260,note_on,,,,,0,0,2,,,,,0,,,57,98
1260,note_on,,,,,1,0,1,,,,,0,,,77,78
1260,note_on,,,,,0,0,1,,,,,0,,,72,70
1289,note_on,,,,,29,0,2,,,,,0,,,45,0
1289,note_on,,,,,29,0,1,,,,,0,,,72,0
1289,note_on,,,,,0,0,1,,,,,0,,,77,0
1290,note_on,,,,,1,0,1,,,,,0,,,69,62
1304,note_on,,,,,15,0,2,,,,,0,,,57,0
1319,note_on,,,,,29,0,1,,,,,0,,,69,0
1320,note_on,,,,,0,0,1,,,,,0,,,79,78
1320,note_on,,,,,1,0,1,,,,,0,,,72,78
1320,note_on,,,,,0,0,2,,,,,0,,,55,88
1320,note_on,,,,,16,0,2,,,,,0,,,43,70
1349,note_on,,,,,0,0,1,,,,,0,,,72,0
1349,note_on,,,,,29,0,1,,,,,0,,,79,0
1350,note_on,,,,,1,0,1,,,,,0,,,70,62
1364,note_on,,,,,0,0,2,,,,,0,,,43,0
1364,note_on,,,,,44,0,2,,,,,0,,,55,0
1364,note_on,,,,,14,0,1,,,,,0,,,70,0
1380,note_on,,,,,0,0,2,,,,,0,,,53,88
1380,note_on,,,,,0,0,1,,,,,0,,,81,78
1380,note_on,,,,,16,0,1,,,,,0,,,72,78
1380,note_on,,,,,16,0,2,,,,,0,,,41,78
1409,note_on,,,,,29,0,1,,,,,0,,,81,0
1409,note_on,,,,,29,0,2,,,,,0,,,41,0
1409,note_on,,,,,0,0,1,,,,,0,,,72,0
1410,note_on,,,,,1,0,1,,,,,0,,,69,62
1424,note_on,,,,,15,0,2,,,,,0,,,53,0
1424,note_on,,,,,14,0,1,,,,,0,,,69,0
1440,note_on,,,,,16,0,1,,,,,0,,,82,88
1440,note_on,,,,,16,0,2,,,,,0,,,52,78
1440,note_on,,,,,0,0,2,,,,,0,,,40,78
1469,note_on,,,,,29,0,1,,,,,0,,,82,0
1470,note_on,,,,,1,0,1,,,,,0,,,79,62
1499,note_on,,,,,29,0,1,,,,,0,,,79,0
1500,note_on,,,,,1,0,1,,,,,0,,,72,62
1529,note_on,,,,,29,0,1,,,,,0,,,72,0
1530,note_on,,,,,1,0,1,,,,,0,,,82,88
1544,note_on,,,,,104,0,2,,,,,0,,,40,0
1559,note_on,,,,,29,0,1,,,,,0,,,82,0
1559,note_on,,,,,15,0,2,,,,,0,,,52,0
1560,note_on,,,,,1,0,2,,,,,0,,,53,88
1560,note_on,,,,,1,0,1,,,,,0,,,81,70
1560,note_on,,,,,0,0,2,,,,,0,,,41,78
1589,note_on,,,,,29,0,1,,,,,0,,,81,0
1590,note_on,,,,,1,0,1,,,,,0,,,77,62
1619,note_on,,,,,29,0,1,,,,,0,,,77,0
1620,note_on,,,,,1,0,1,,,,,0,,,72,70
1649,note_on,,,,,89,0,2,,,,,0,,,41,0
1649,note_on,,,,,0,0,2,,,,,0,,,53,0
1650,note_on,,,,,30,0,1,,,,,0,,,81,55
1664,note_on,,,,,14,0,1,,,,,0,,,72,0
1679,note_on,,,,,15,0,1,,,,,0,,,81,0
1680,note_on,,,,,1,0,1,,,,,0,,,79,70
1680,note_on,,,,,31,0,2,,,,,0,,,52,88
1680,note_on,,,,,0,0,2,,,,,0,,,40,78
1709,note_on,,,,,29,0,1,,,,,0,,,79,0
1710,note_on,,,,,1,0,1,,,,,0,,,76,55
1724,note_on,,,,,44,0,2,,,,,0,,,40,0
1724,note_on,,,,,0,0,2,,,,,0,,,52,0
1739,note_on,,,,,29,0,1,,,,,0,,,76,0
1740,note_on,,,,,1,0,1,,,,,0,,,79,62
1740,note_on,,,,,16,0,2,,,,,0,,,48,70
1740,note_on,,,,,0,0,2,,,,,0,,,60,88
1769,note_on,,,,,29,0,1,,,,,0,,,79,0
1770,note_on,,,,,1,0,1,,,,,0,,,76,62
1784,note_on,,,,,44,0,2,,,,,0,,,60,0
1799,note_on,,,,,15,0,2,,,,,0,,,48,0
1799,note_on,,,,,29,0,1,,,,,0,,,76,0
1800,note_on,,,,,0,0,2,,,,,0,,,62,98
1800,note_on,,,,,1,0,2,,,,,0,,,50,70
1800,note_on,,,,,1,0,1,,,,,0,,,77,78
1844,note_on,,,,,44,0,2,,,,,0,,,62,0
1844,note_on,,,,,0,0,2,,,,,0,,,50,0
1859,note_on,,,,,59,0,1,,,,,0,,,77,0
1860,note_on,,,,,1,0,1,,,,,0,,,76,55
1860,note_on,,,,,16,0,2,,,,,0,,,55,88
1860,note_on,,,,,0,0,2,,,,,0,,,43,78
1860,note_on,,,,,0,0,1,,,,,0,,,71,70
1889,note_on,,,,,29,0,1,,,,,0,,,71,0
1889,note_on,,,,,29,0,2,,,,,0,,,43,0
1889,note_on,,,,,0,0,2,,,,,0,,,55,0
1889,note_on,,,,,0,0,1,,,,,0,,,76,0
1890,note_on,,,,,1,0,1,,,,,0,,,74,78
1919,note_on,,,,,29,0,1,,,,,0,,,74,0
1920,note_on,,,,,1920,0,5,,,,,1,,,60,78
1920,note_on,,,,,31,0,2,,,,,0,,,48,98
1920,note_on,,,,,1920,0,6,,,,,1,,,48,90
1920,note_on,,,,,0,0,2,,,,,0,,,36,98
1920,note_on,,,,,1,0,1,,,,,0,,,72,78
1920,note_on,,,,,1920,0,3,,,,,1,,,72,78
1921,note_on,,,,,1921,0,4,,,,,1,,,60,78
1934,note_on,,,,,14,0,1,,,,,0,,,72,0
1950,note_on,,,,,16,0,1,,,,,0,,,72,70
1979,note_on,,,,,29,0,1,,,,,0,,,72,0
1980,note_on,,,,,1,0,1,,,,,0,,,71,70
2009,note_on,,,,,88,0,4,,,,,1,,,60,0
2009,note_on,,,,,29,0,1,,,,,0,,,71,0
2009,note_on,,,,,89,0,5,,,,,1,,,60,0
2009,note_on,,,,,89,0,6,,,,,1,,,48,0
2009,note_on,,,,,89,0,3,,,,,1,,,72,0
2010,note_on,,,,,1,0,1,,,,,0,,,72,70
2035,note_on,,,,,26,0,4,,,,,1,,,60,90
2039,note_on,,,,,0,0,2,,,,,0,,,48,0
2039,note_on,,,,,29,0,1,,,,,0,,,72,0
2039,note_on,,,,,119,0,2,,,,,0,,,36,0
2040,note_on,,,,,31,0,3,,,,,1,,,72,90
2040,note_on,,,,,31,0,6,,,,,1,,,48,90
2040,note_on,,,,,1,0,1,,,,,0,,,74,78
2040,note_on,,,,,31,0,5,,,,,1,,,60,90
2069,note_on,,,,,29,0,1,,,,,0,,,74,0
2070,note_on,,,,,1,0,1,,,,,0,,,72,62
2099,note_on,,,,,59,0,3,,,,,1,,,72,0
2099,note_on,,,,,59,0,5,,,,,1,,,60,0
2099,note_on,,,,,59,0,6,,,,,1,,,48,0
2099,note_on,,,,,29,0,1,,,,,0,,,72,0
2100,note_on,,,,,1,0,1,,,,,0,,,71,70
2113,note_on,,,,,78,0,4,,,,,1,,,60,0
2129,note_on,,,,,29,0,1,,,,,0,,,71,0
2130,note_on,,,,,31,0,6,,,,,1,,,48,90
2130,note_on,,,,,31,0,3,,,,,1,,,72,90
2130,note_on,,,,,1,0,1,,,,,0,,,72,70
2130,note_on,,,,,17,0,4,,,,,1,,,60,68
2130,note_on,,,,,31,0,5,,,,,1,,,60,78
2147,note_on,,,,,17,0,4,,,,,1,,,60,0
2155,note_on,,,,,8,0,4,,,,,1,,,60,78
2159,note_on,,,,,29,0,3,,,,,1,,,72,0
2159,note_on,,,,,29,0,6,,,,,1,,,48,0
2159,note_on,,,,,29,0,5,,,,,1,,,60,0
2159,note_on,,,,,29,0,1,,,,,0,,,72,0
2160,note_on,,,,,0,0,2,,,,,0,,,48,88
2160,note_on,,,,,1,0,3,,,,,1,,,72,78
2160,note_on,,,,,121,0,2,,,,,0,,,36,98
2160,note_on,,,,,1,0,6,,,,,1,,,48,90
2160,note_on,,,,,1,0,5,,,,,1,,,60,78
2160,note_on,,,,,1,0,1,,,,,0,,,60,78
2189,note_on,,,,,0,0,2,,,,,0,,,36,0
2189,note_on,,,,,29,0,2,,,,,0,,,48,0
2189,note_on,,,,,29,0,1,,,,,0,,,60,0
2190,note_on,,,,,1,0,1,,,,,0,,,72,78
2219,note_on,,,,,29,0,1,,,,,0,,,72,0
2220,note_on,,,,,0,0,2,,,,,0,,,50,98
2220,note_on,,,,,31,0,2,,,,,0,,,38,88
2220,note_on,,,,,1,0,1,,,,,0,,,62,70
2249,note_on,,,,,89,0,3,,,,,1,,,72,0
2249,note_on,,,,,89,0,5,,,,,1,,,60,0
2249,note_on,,,,,29,0,1,,,,,0,,,62,0
2249,note_on,,,,,89,0,6,,,,,1,,,48,0
2250,note_on,,,,,1,0,1,,,,,0,,,72,70
2251,note_on,,,,,96,0,4,,,,,1,,,60,0
2264,note_on,,,,,44,0,2,,,,,0,,,50,0
2264,note_on,,,,,0,0,2,,,,,0,,,38,0
2273,note_on,,,,,22,0,4,,,,,1,,,60,78
2279,note_on,,,,,29,0,1,,,,,0,,,72,0
2280,note_on,,,,,31,0,6,,,,,1,,,48,90
2280,note_on,,,,,31,0,3,,,,,1,,,72,90
2280,note_on,,,,,1,0,1,,,,,0,,,64,78
2280,note_on,,,,,0,0,2,,,,,0,,,52,98
2280,note_on,,,,,31,0,5,,,,,1,,,60,90
2280,note_on,,,,,16,0,2,,,,,0,,,40,88
2309,note_on,,,,,0,0,2,,,,,0,,,40,0
2309,note_on,,,,,29,0,2,,,,,0,,,52,0
2309,note_on,,,,,29,0,1,,,,,0,,,64,0
2310,note_on,,,,,1,0,1,,,,,0,,,72,70
2339,note_on,,,,,29,0,1,,,,,0,,,72,0
2340,note_on,,,,,1,0,1,,,,,0,,,65,88
2340,note_on,,,,,31,0,2,,,,,0,,,41,78
2340,note_on,,,,,0,0,2,,,,,0,,,53,98
2367,note_on,,,,,94,0,4,,,,,1,,,60,0
2369,note_on,,,,,89,0,3,,,,,1,,,72,0
2369,note_on,,,,,29,0,2,,,,,0,,,53,0
2369,note_on,,,,,0,0,2,,,,,0,,,41,0
2369,note_on,,,,,89,0,6,,,,,1,,,48,0
2369,note_on,,,,,89,0,5,,,,,1,,,60,0
2369,note_on,,,,,29,0,1,,,,,0,,,65,0
2370,note_on,,,,,1,0,1,,,,,0,,,72,70
2396,note_on,,,,,29,0,4,,,,,1,,,60,90
2399,note_on,,,,,29,0,1,,,,,0,,,72,0
2400,note_on,,,,,0,0,2,,,,,0,,,55,98
2400,note_on,,,,,1,0,1,,,,,0,,,67,88
2400,note_on,,,,,31,0,2,,,,,0,,,43,88
2400,note_on,,,,,31,0,6,,,,,1,,,48,90
2400,note_on,,,,,31,0,5,,,,,1,,,60,90
2400,note_on,,,,,31,0,3,,,,,1,,,72,90
2414,note_on,,,,,14,0,1,,,,,0,,,67,0
2430,note_on,,,,,16,0,1,,,,,0,,,72,70
2459,note_on,,,,,29,0,1,,,,,0,,,72,0
2460,note_on,,,,,1,0,1,,,,,0,,,71,78
2486,note_on,,,,,90,0,4,,,,,1,,,60,0
2489,note_on,,,,,29,0,1,,,,,0,,,71,0
2489,note_on,,,,,89,0,3,,,,,1,,,72,0
2489,note_on,,,,,89,0,6,,,,,1,,,48,0
2489,note_on,,,,,89,0,5,,,,,1,,,60,0
2490,note_on,,,,,1,0,1,,,,,0,,,72,70
2514,note_on,,,,,28,0,4,,,,,1,,,60,78
2519,note_on,,,,,0,0,2,,,,,0,,,43,0
2519,note_on,,,,,29,0,1,,,,,0,,,72,0
2519,note_on,,,,,119,0,2,,,,,0,,,55,0
2520,note_on,,,,,31,0,6,,,,,1,,,48,90
2520,note_on,,,,,31,0,3,,,,,1,,,72,90
2520,note_on,,,,,1,0,1,,,,,0,,,74,70
2520,note_on,,,,,31,0,5,,,,,1,,,60,90
2549,note_on,,,,,29,0,1,,,,,0,,,74,0
2550,note_on,,,,,1,0,1,,,,,0,,,72,70
2579,note_on,,,,,29,0,1,,,,,0,,,72,0
2579,note_on,,,,,59,0,3,,,,,1,,,72,0
2580,note_on,,,,,1,0,1,,,,,0,,,71,78
2590,note_on,,,,,76,0,4,,,,,1,,,60,0
2607,note_on,,,,,17,0,4,,,,,1,,,60,68
2609,note_on,,,,,89,0,5,,,,,1,,,60,0
2609,note_on,,,,,29,0,1,,,,,0,,,71,0
2609,note_on,,,,,89,0,6,,,,,1,,,48,0
2610,note_on,,,,,1,0,1,,,,,0,,,72,70
2610,note_on,,,,,31,0,3,,,,,1,,,72,90
2610,note_on,,,,,1,0,6,,,,,1,,,48,78
2610,note_on,,,,,1,0,5,,,,,1,,,60,68
2627,note_on,,,,,20,0,4,,,,,1,,,60,0
2634,note_on,,,,,7,0,4,,,,,1,,,60,78
2639,note_on,,,,,29,0,5,,,,,1,,,60,0
2639,note_on,,,,,29,0,6,,,,,1,,,48,0
2639,note_on,,,,,29,0,1,,,,,0,,,72,0
2639,note_on,,,,,29,0,3,,,,,1,,,72,0
2640,note_on,,,,,1,0,6,,,,,1,,,48,90
2640,note_on,,,,,1,0,3,,,,,1,,,72,78
2640,note_on,,,,,1,0,5,,,,,1,,,60,90
2640,note_on,,,,,121,0,2,,,,,0,,,40,88
2640,note_on,,,,,0,0,2,,,,,0,,,52,98
2640,note_on,,,,,1,0,1,,,,,0,,,64,70
2669,note_on,,,,,29,0,1,,,,,0,,,64,0
2669,note_on,,,,,29,0,2,,,,,0,,,52,0
2669,note_on,,,,,0,0,2,,,,,0,,,40,0
2670,note_on,,,,,1,0,1,,,,,0,,,72,62
2699,note_on,,,,,29,0,1,,,,,0,,,72,0
2700,note_on,,,,,0,0,2,,,,,0,,,53,98
2700,note_on,,,,,31,0,2,,,,,0,,,41,78
2700,note_on,,,,,1,0,1,,,,,0,,,65,88
2720,note_on,,,,,86,0,4,,,,,1,,,60,0
2729,note_on,,,,,89,0,6,,,,,1,,,48,0
2729,note_on,,,,,89,0,3,,,,,1,,,72,0
2729,note_on,,,,,0,0,2,,,,,0,,,41,0
2729,note_on,,,,,29,0,2,,,,,0,,,53,0
2729,note_on,,,,,29,0,1,,,,,0,,,65,0
2729,note_on,,,,,89,0,5,,,,,1,,,60,0
2730,note_on,,,,,1,0,1,,,,,0,,,72,62
2749,note_on,,,,,29,0,4,,,,,1,,,60,78
2759,note_on,,,,,29,0,1,,,,,0,,,72,0
2760,note_on,,,,,31,0,2,,,,,0,,,43,78
2760,note_on,,,,,31,0,6,,,,,1,,,48,90
2760,note_on,,,,,0,0,2,,,,,0,,,55,98
2760,note_on,,,,,1,0,1,,,,,0,,,67,70
2760,note_on,,,,,31,0,5,,,,,1,,,60,90
2760,note_on,,,,,31,0,3,,,,,1,,,72,78
2789,note_on,,,,,29,0,2,,,,,0,,,55,0
2789,note_on,,,,,0,0,2,,,,,0,,,43,0
2789,note_on,,,,,29,0,1,,,,,0,,,67,0
2790,note_on,,,,,1,0,1,,,,,0,,,72,70
2819,note_on,,,,,29,0,1,,,,,0,,,72,0
2820,note_on,,,,,0,0,2,,,,,0,,,57,98
2820,note_on,,,,,31,0,2,,,,,0,,,45,78
2820,note_on,,,,,1,0,1,,,,,0,,,69,70
2846,note_on,,,,,97,0,4,,,,,1,,,60,0
2849,note_on,,,,,29,0,2,,,,,0,,,57,0
2849,note_on,,,,,89,0,3,,,,,1,,,72,0
2849,note_on,,,,,29,0,1,,,,,0,,,69,0
2849,note_on,,,,,89,0,5,,,,,1,,,60,0
2849,note_on,,,,,89,0,6,,,,,1,,,48,0
2849,note_on,,,,,0,0,2,,,,,0,,,45,0
2850,note_on,,,,,1,0,1,,,,,0,,,72,70
2873,note_on,,,,,27,0,4,,,,,1,,,60,90
2879,note_on,,,,,29,0,1,,,,,0,,,72,0
2880,note_on,,,,,31,0,6,,,,,1,,,48,90
2880,note_on,,,,,31,0,3,,,,,1,,,72,90
2880,note_on,,,,,1,0,1,,,,,0,,,70,78
2880,note_on,,,,,31,0,5,,,,,1,,,60,90
2880,note_on,,,,,0,0,2,,,,,0,,,46,98
2880,note_on,,,,,31,0,2,,,,,0,,,58,110
2894,note_on,,,,,14,0,1,,,,,0,,,70,0
2910,note_on,,,,,16,0,1,,,,,0,,,72,62
2939,note_on,,,,,29,0,1,,,,,0,,,72,0
2940,note_on,,,,,1,0,1,,,,,0,,,71,78
2954,note_on,,,,,74,0,2,,,,,0,,,58,0
2969,note_on,,,,,15,0,2,,,,,0,,,46,0
2969,note_on,,,,,89,0,3,,,,,1,,,72,0
2969,note_on,,,,,89,0,5,,,,,1,,,60,0
2969,note_on,,,,,29,0,1,,,,,0,,,71,0
2969,note_on,,,,,89,0,6,,,,,1,,,48,0
2970,note_on,,,,,1,0,1,,,,,0,,,72,70
2973,note_on,,,,,100,0,4,,,,,1,,,60,0
2997,note_on,,,,,24,0,4,,,,,1,,,60,78
2999,note_on,,,,,29,0,1,,,,,0,,,72,0
3000,note_on,,,,,31,0,5,,,,,1,,,60,90
3000,note_on,,,,,31,0,3,,,,,1,,,72,90
3000,note_on,,,,,1,0,1,,,,,0,,,74,70
3000,note_on,,,,,31,0,2,,,,,0,,,48,88
3000,note_on,,,,,0,0,2,,,,,0,,,36,98
3000,note_on,,,,,31,0,6,,,,,1,,,48,78
3029,note_on,,,,,29,0,1,,,,,0,,,74,0
3030,note_on,,,,,1,0,1,,,,,0,,,72,62
3059,note_on,,,,,29,0,1,,,,,0,,,72,0
3059,note_on,,,,,59,0,2,,,,,0,,,36,0
3060,note_on,,,,,1,0,1,,,,,0,,,71,62
3074,note_on,,,,,15,0,2,,,,,0,,,48,0
3089,note_on,,,,,29,0,1,,,,,0,,,71,0
3089,note_on,,,,,89,0,6,,,,,1,,,48,0
3089,note_on,,,,,89,0,5,,,,,1,,,60,0
3089,note_on,,,,,89,0,3,,,,,1,,,72,0
3090,note_on,,,,,1,0,1,,,,,0,,,72,62
3090,note_on,,,,,0,0,2,,,,,0,,,36,49
3090,note_on,,,,,16,0,2,,,,,0,,,48,70
3091,note_on,,,,,94,0,4,,,,,1,,,60,0
3104,note_on,,,,,0,0,2,,,,,0,,,48,0
3104,note_on,,,,,14,0,2,,,,,0,,,36,0
3118,note_on,,,,,27,0,4,,,,,1,,,64,78
3119,note_on,,,,,29,0,1,,,,,0,,,72,0
3120,note_on,,,,,31,0,5,,,,,1,,,60,78
3120,note_on,,,,,16,0,2,,,,,0,,,46,98
3120,note_on,,,,,31,0,6,,,,,1,,,58,90
3120,note_on,,,,,0,0,2,,,,,0,,,55,98
3120,note_on,,,,,1,0,1,,,,,0,,,76,70
3120,note_on,,,,,31,0,3,,,,,1,,,72,90
3149,note_on,,,,,29,0,1,,,,,0,,,76,0
3150,note_on,,,,,1,0,1,,,,,0,,,72,55
3164,note_on,,,,,0,0,2,,,,,0,,,46,0
3164,note_on,,,,,44,0,2,,,,,0,,,55,0
3172,note_on,,,,,54,0,4,,,,,1,,,65,78
3179,note_on,,,,,59,0,6,,,,,1,,,58,0
3179,note_on,,,,,29,0,1,,,,,0,,,72,0
3180,note_on,,,,,8,0,4,,,,,1,,,64,0
3180,note_on,,,,,1,0,6,,,,,1,,,57,90
3180,note_on,,,,,0,0,2,,,,,0,,,57,98
3180,note_on,,,,,16,0,2,,,,,0,,,45,88
3180,note_on,,,,,1,0,1,,,,,0,,,77,70
3209,note_on,,,,,29,0,1,,,,,0,,,77,0
3209,note_on,,,,,29,0,2,,,,,0,,,57,0
3209,note_on,,,,,89,0,3,,,,,1,,,72,0
3210,note_on,,,,,1,0,1,,,,,0,,,72,55
3224,note_on,,,,,15,0,2,,,,,0,,,45,0
3237,note_on,,,,,57,0,4,,,,,1,,,67,78
3238,note_on,,,,,1,0,4,,,,,1,,,65,0
3239,note_on,,,,,29,0,1,,,,,0,,,72,0
3239,note_on,,,,,59,0,6,,,,,1,,,57,0
3239,note_on,,,,,119,0,5,,,,,1,,,60,0
3240,note_on,,,,,31,0,3,,,,,1,,,72,78
3240,note_on,,,,,16,0,2,,,,,0,,,58,98
3240,note_on,,,,,1,0,1,,,,,0,,,79,55
3240,note_on,,,,,0,0,2,,,,,0,,,55,78
3240,note_on,,,,,1,0,5,,,,,1,,,58,90
3240,note_on,,,,,1,0,6,,,,,1,,,55,78
3269,note_on,,,,,29,0,3,,,,,1,,,72,0
3269,note_on,,,,,29,0,1,,,,,0,,,79,0
3270,note_on,,,,,1,0,1,,,,,0,,,72,62
3284,note_on,,,,,0,0,2,,,,,0,,,58,0
3284,note_on,,,,,44,0,2,,,,,0,,,55,0
3292,note_on,,,,,54,0,4,,,,,1,,,69,78
3298,note_on,,,,,6,0,4,,,,,1,,,67,0
3299,note_on,,,,,59,0,5,,,,,1,,,58,0
3299,note_on,,,,,29,0,1,,,,,0,,,72,0
3299,note_on,,,,,59,0,6,,,,,1,,,55,0
3300,note_on,,,,,1,0,6,,,,,1,,,53,78
3300,note_on,,,,,1,0,1,,,,,0,,,81,62
3300,note_on,,,,,31,0,3,,,,,1,,,72,90
3300,note_on,,,,,1,0,5,,,,,1,,,57,78
3300,note_on,,,,,16,0,2,,,,,0,,,57,88
3300,note_on,,,,,0,0,2,,,,,0,,,53,88
3329,note_on,,,,,29,0,3,,,,,1,,,72,0
3329,note_on,,,,,29,0,6,,,,,1,,,53,0
3329,note_on,,,,,29,0,2,,,,,0,,,53,0
3329,note_on,,,,,29,0,1,,,,,0,,,81,0
3330,note_on,,,,,1,0,1,,,,,0,,,72,55
3344,note_on,,,,,15,0,2,,,,,0,,,57,0
3357,note_on,,,,,0,0,4,,,,,1,,,70,90
3357,note_on,,,,,59,0,4,,,,,1,,,69,0
3359,note_on,,,,,59,0,5,,,,,1,,,57,0
3359,note_on,,,,,29,0,1,,,,,0,,,72,0
3360,note_on,,,,,1,0,5,,,,,1,,,55,90
3360,note_on,,,,,31,0,6,,,,,1,,,52,68
3360,note_on,,,,,16,0,2,,,,,0,,,52,88
3360,note_on,,,,,31,0,3,,,,,1,,,72,90
3360,note_on,,,,,1,0,1,,,,,0,,,82,88
3360,note_on,,,,,0,0,2,,,,,0,,,55,88
3360,note_on,,,,,0,0,2,,,,,0,,,60,88
3389,note_on,,,,,29,0,1,,,,,0,,,82,0
3390,note_on,,,,,1,0,1,,,,,0,,,79,62
3419,note_on,,,,,29,0,1,,,,,0,,,79,0
3420,note_on,,,,,1,0,1,,,,,0,,,72,62
3449,note_on,,,,,89,0,2,,,,,0,,,52,0
3449,note_on,,,,,89,0,3,,,,,1,,,72,0
3450,note_on,,,,,30,0,1,,,,,0,,,82,78
3464,note_on,,,,,15,0,2,,,,,0,,,60,0
3464,note_on,,,,,107,0,4,,,,,1,,,70,0
3464,note_on,,,,,0,0,2,,,,,0,,,55,0
3464,note_on,,,,,14,0,1,,,,,0,,,72,0
3472,note_on,,,,,8,0,4,,,,,1,,,69,78
3479,note_on,,,,,119,0,5,,,,,1,,,55,0
3479,note_on,,,,,15,0,1,,,,,0,,,82,0
3479,note_on,,,,,119,0,6,,,,,1,,,52,0
3480,note_on,,,,,16,0,2,,,,,0,,,60,98
3480,note_on,,,,,0,0,2,,,,,0,,,57,98
3480,note_on,,,,,0,0,2,,,,,0,,,53,88
3480,note_on,,,,,1,0,5,,,,,1,,,53,90
3480,note_on,,,,,1,0,6,,,,,1,,,53,78
3480,note_on,,,,,31,0,3,,,,,1,,,72,90
3480,note_on,,,,,1,0,1,,,,,0,,,81,62
3510,note_on,,,,,30,0,1,,,,,0,,,77,62
3524,note_on,,,,,14,0,1,,,,,0,,,81,0
3539,note_on,,,,,15,0,1,,,,,0,,,77,0
3540,note_on,,,,,1,0,1,,,,,0,,,72,62
3569,note_on,,,,,89,0,3,,,,,1,,,72,0
3569,note_on,,,,,29,0,1,,,,,0,,,72,0
3570,note_on,,,,,1,0,1,,,,,0,,,81,55
3584,note_on,,,,,0,0,2,,,,,0,,,57,0
3584,note_on,,,,,104,0,2,,,,,0,,,53,0
3594,note_on,,,,,122,0,4,,,,,1,,,69,0
3596,note_on,,,,,2,0,4,,,,,1,,,67,78
3599,note_on,,,,,29,0,1,,,,,0,,,81,0
3599,note_on,,,,,119,0,6,,,,,1,,,53,0
3599,note_on,,,,,119,0,5,,,,,1,,,53,0
3600,note_on,,,,,0,0,2,,,,,0,,,52,78
3600,note_on,,,,,31,0,3,,,,,1,,,72,78
3600,note_on,,,,,16,0,2,,,,,0,,,55,88
3600,note_on,,,,,1,0,1,,,,,0,,,79,70
3600,note_on,,,,,1,0,6,,,,,1,,,52,78
3600,note_on,,,,,1,0,5,,,,,1,,,55,78
3629,note_on,,,,,29,0,2,,,,,0,,,60,0
3629,note_on,,,,,29,0,1,,,,,0,,,79,0
3629,note_on,,,,,29,0,5,,,,,1,,,55,0
3630,note_on,,,,,1,0,1,,,,,0,,,76,62
3644,note_on,,,,,15,0,2,,,,,0,,,52,0
3644,note_on,,,,,0,0,2,,,,,0,,,55,0
3651,note_on,,,,,55,0,4,,,,,1,,,64,68
3655,note_on,,,,,4,0,4,,,,,1,,,67,0
3659,note_on,,,,,29,0,1,,,,,0,,,76,0
3659,note_on,,,,,59,0,6,,,,,1,,,52,0
3660,note_on,,,,,1,0,6,,,,,1,,,48,58
3660,note_on,,,,,0,0,2,,,,,0,,,60,98
3660,note_on,,,,,16,0,2,,,,,0,,,48,70
3660,note_on,,,,,31,0,5,,,,,1,,,60,68
3660,note_on,,,,,1,0,1,,,,,0,,,79,70
3689,note_on,,,,,29,0,1,,,,,0,,,79,0
3689,note_on,,,,,89,0,3,,,,,1,,,72,0
3690,note_on,,,,,1,0,1,,,,,0,,,76,70
3704,note_on,,,,,44,0,2,,,,,0,,,60,0
3712,note_on,,,,,57,0,4,,,,,1,,,64,0
3715,note_on,,,,,3,0,4,,,,,1,,,69,78
3719,note_on,,,,,59,0,6,,,,,1,,,48,0
3719,note_on,,,,,15,0,2,,,,,0,,,48,0
3719,note_on,,,,,29,0,1,,,,,0,,,76,0
3720,note_on,,,,,1,0,2,,,,,0,,,50,70
3720,note_on,,,,,0,0,2,,,,,0,,,60,88
3720,note_on,,,,,1,0,1,,,,,0,,,77,70
3720,note_on,,,,,31,0,3,,,,,1,,,77,78
3720,note_on,,,,,1,0,6,,,,,1,,,50,78
3764,note_on,,,,,44,0,2,,,,,0,,,60,0
3764,note_on,,,,,0,0,2,,,,,0,,,50,0
3774,note_on,,,,,59,0,4,,,,,1,,,67,78
3779,note_on,,,,,119,0,5,,,,,1,,,60,0
3779,note_on,,,,,5,0,4,,,,,1,,,69,0
3779,note_on,,,,,59,0,1,,,,,0,,,77,0
3779,note_on,,,,,59,0,6,,,,,1,,,50,0
3780,note_on,,,,,0,0,2,,,,,0,,,55,88
3780,note_on,,,,,1,0,5,,,,,1,,,59,78
3780,note_on,,,,,16,0,2,,,,,0,,,43,88
3780,note_on,,,,,1,0,6,,,,,1,,,55,78
3780,note_on,,,,,1,0,1,,,,,0,,,76,62
3780,note_on,,,,,0,0,1,,,,,0,,,71,62
3809,note_on,,,,,29,0,1,,,,,0,,,71,0
3809,note_on,,,,,0,0,1,,,,,0,,,76,0
3809,note_on,,,,,0,0,2,,,,,0,,,43,0
3809,note_on,,,,,29,0,2,,,,,0,,,55,0
3810,note_on,,,,,1,0,1,,,,,0,,,74,55
3813,note_on,,,,,34,0,4,,,,,1,,,67,0
3833,note_on,,,,,20,0,4,,,,,1,,,67,90
3839,note_on,,,,,29,0,1,,,,,0,,,74,0
3839,note_on,,,,,119,0,3,,,,,1,,,77,0
3839,note_on,,,,,59,0,5,,,,,1,,,59,0
3839,note_on,,,,,59,0,6,,,,,1,,,55,0
3840,note_on,,,,,1,0,6,,,,,1,,,48,90
3840,note_on,,,,,1,0,3,,,,,1,,,76,78
3840,note_on,,,,,1,0,5,,,,,1,,,60,78
3840,note_on,,,,,31,0,2,,,,,0,,,36,98
3840,note_on,,,,,0,0,2,,,,,0,,,48,78
3840,note_on,,,,,1,0,1,,,,,0,,,72,70
3869,note_on,,,,,29,0,1,,,,,0,,,72,0
3870,note_on,,,,,1,0,1,,,,,0,,,67,70
3899,note_on,,,,,29,0,1,,,,,0,,,67,0
3899,note_on,,,,,59,0,2,,,,,0,,,48,0
3899,note_on,,,,,59,0,3,,,,,1,,,76,0
3899,note_on,,,,,0,0,2,,,,,0,,,36,0
3900,note_on,,,,,1,0,1,,,,,0,,,69,70
3900,note_on,,,,,1,0,3,,,,,1,,,72,68
3900,note_on,,,,,1,0,2,,,,,0,,,60,78
3900,note_on,,,,,0,0,2,,,,,0,,,64,78
3929,note_on,,,,,0,0,2,,,,,0,,,60,0
3929,note_on,,,,,29,0,2,,,,,0,,,64,0
3929,note_on,,,,,29,0,3,,,,,1,,,72,0
3929,note_on,,,,,29,0,1,,,,,0,,,69,0
3930,note_on,,,,,1,0,1,,,,,0,,,71,78
3959,note_on,,,,,29,0,1,,,,,0,,,71,0
3959,note_on,,,,,119,0,5,,,,,1,,,60,0
3959,note_on,,,,,119,0,6,,,,,1,,,48,0
3960,note_on,,,,,0,0,2,,,,,0,,,64,78
3960,note_on,,,,,31,0,2,,,,,0,,,60,78
3960,note_on,,,,,1,0,1,,,,,0,,,72,70
3960,note_on,,,,,31,0,3,,,,,1,,,76,78
3970,note_on,,,,,137,0,4,,,,,1,,,67,0
3989,note_on,,,,,29,0,1,,,,,0,,,72,0
3990,note_on,,,,,1,0,1,,,,,0,,,71,78
4013,note_on,,,,,43,0,4,,,,,1,,,67,78
4019,note_on,,,,,29,0,1,,,,,0,,,71,0
4020,note_on,,,,,1,0,1,,,,,0,,,72,55
4049,note_on,,,,,29,0,1,,,,,0,,,72,0
4050,note_on,,,,,1,0,1,,,,,0,,,74,62
4064,note_on,,,,,104,0,2,,,,,0,,,64,0
4064,note_on,,,,,0,0,2,,,,,0,,,60,0
4071,note_on,,,,,58,0,4,,,,,1,,,67,0
4072,note_on,,,,,1,0,4,,,,,1,,,72,78
4079,note_on,,,,,29,0,1,,,,,0,,,74,0
4080,note_on,,,,,16,0,2,,,,,0,,,48,70
4080,note_on,,,,,0,0,2,,,,,0,,,36,88
4080,note_on,,,,,121,0,6,,,,,1,,,48,90
4080,note_on,,,,,1,0,1,,,,,0,,,76,70
4109,note_on,,,,,29,0,1,,,,,0,,,76,0
4110,note_on,,,,,1,0,1,,,,,0,,,72,55
4134,note_on,,,,,0,0,4,,,,,1,,,71,78
4134,note_on,,,,,62,0,4,,,,,1,,,72,0
4139,note_on,,,,,29,0,1,,,,,0,,,72,0
4139,note_on,,,,,59,0,6,,,,,1,,,48,0
4139,note_on,,,,,59,0,2,,,,,0,,,36,0
4139,note_on,,,,,179,0,3,,,,,1,,,76,0
4139,note_on,,,,,0,0,2,,,,,0,,,48,0
4140,note_on,,,,,1,0,2,,,,,0,,,38,70
4140,note_on,,,,,0,0,2,,,,,0,,,50,78
4140,note_on,,,,,181,0,5,,,,,1,,,65,78
4140,note_on,,,,,1,0,1,,,,,0,,,71,70
4140,note_on,,,,,1,0,6,,,,,1,,,50,78
4140,note_on,,,,,1,0,3,,,,,1,,,74,78
4169,note_on,,,,,29,0,1,,,,,0,,,71,0
4170,note_on,,,,,1,0,1,,,,,0,,,74,70
4191,note_on,,,,,57,0,4,,,,,1,,,71,0
4191,note_on,,,,,0,0,4,,,,,1,,,69,78
4199,note_on,,,,,59,0,2,,,,,0,,,50,0
4199,note_on,,,,,59,0,3,,,,,1,,,74,0
4199,note_on,,,,,59,0,6,,,,,1,,,50,0
4199,note_on,,,,,59,0,5,,,,,1,,,65,0
4199,note_on,,,,,29,0,1,,,,,0,,,74,0
4199,note_on,,,,,0,0,2,,,,,0,,,38,0
4200,note_on,,,,,1,0,3,,,,,1,,,72,68
4200,note_on,,,,,1,0,5,,,,,1,,,64,78
4200,note_on,,,,,0,0,2,,,,,0,,,52,78
4200,note_on,,,,,1,0,2,,,,,0,,,40,70
4200,note_on,,,,,1,0,6,,,,,1,,,52,68
4200,note_on,,,,,1,0,1,,,,,0,,,72,62
4229,note_on,,,,,29,0,1,,,,,0,,,72,0
4230,note_on,,,,,1,0,1,,,,,0,,,69,62
4244,note_on,,,,,44,0,2,,,,,0,,,52,0
4244,note_on,,,,,0,0,2,,,,,0,,,40,0
4247,note_on,,,,,56,0,4,,,,,1,,,69,0
4250,note_on,,,,,3,0,4,,,,,1,,,68,90
4259,note_on,,,,,29,0,1,,,,,0,,,69,0
4259,note_on,,,,,59,0,6,,,,,1,,,52,0
4259,note_on,,,,,59,0,3,,,,,1,,,72,0
4260,note_on,,,,,1,0,6,,,,,1,,,50,68
4260,note_on,,,,,1,0,3,,,,,1,,,71,68
4260,note_on,,,,,0,0,2,,,,,0,,,50,78
4260,note_on,,,,,16,0,2,,,,,0,,,52,70
4260,note_on,,,,,1,0,1,,,,,0,,,68,70
4289,note_on,,,,,29,0,2,,,,,0,,,50,0
4289,note_on,,,,,29,0,1,,,,,0,,,68,0
4290,note_on,,,,,1,0,1,,,,,0,,,71,55
4299,note_on,,,,,49,0,4,,,,,1,,,68,0
4304,note_on,,,,,15,0,2,,,,,0,,,52,0
4311,note_on,,,,,12,0,4,,,,,1,,,69,90
4319,note_on,,,,,29,0,1,,,,,0,,,71,0
4319,note_on,,,,,59,0,3,,,,,1,,,71,0
4319,note_on,,,,,59,0,6,,,,,1,,,50,0
4320,note_on,,,,,0,0,2,,,,,0,,,52,78
4320,note_on,,,,,16,0,2,,,,,0,,,48,78
4320,note_on,,,,,1,0,3,,,,,1,,,69,78
4320,note_on,,,,,1,0,6,,,,,1,,,48,78
4320,note_on,,,,,1,0,1,,,,,0,,,69,55
4349,note_on,,,,,29,0,1,,,,,0,,,69,0
4350,note_on,,,,,1,0,1,,,,,0,,,80,98
4379,note_on,,,,,29,0,1,,,,,0,,,80,0
4380,note_on,,,,,1,0,1,,,,,0,,,81,62
4409,note_on,,,,,29,0,1,,,,,0,,,81,0
4410,note_on,,,,,1,0,1,,,,,0,,,80,78
4424,note_on,,,,,0,0,2,,,,,0,,,48,0
4424,note_on,,,,,104,0,2,,,,,0,,,52,0
4439,note_on,,,,,119,0,3,,,,,1,,,69,0
4439,note_on,,,,,29,0,1,,,,,0,,,80,0
4439,note_on,,,,,239,0,5,,,,,1,,,64,0
4440,note_on,,,,,16,0,2,,,,,0,,,60,88
4440,note_on,,,,,1,0,5,,,,,1,,,57,68
4440,note_on,,,,,0,0,2,,,,,0,,,52,88
4440,note_on,,,,,1,0,1,,,,,0,,,81,62
4440,note_on,,,,,1,0,3,,,,,1,,,76,78
4469,note_on,,,,,29,0,1,,,,,0,,,81,0
4469,note_on,,,,,149,0,6,,,,,1,,,48,0
4470,note_on,,,,,1,0,1,,,,,0,,,79,70
4499,note_on,,,,,29,0,1,,,,,0,,,79,0
4500,note_on,,,,,1,0,1,,,,,0,,,78,70
4500,note_on,,,,,31,0,6,,,,,1,,,48,78
4529,note_on,,,,,29,0,1,,,,,0,,,78,0
4530,note_on,,,,,1,0,1,,,,,0,,,76,62
4559,note_on,,,,,59,0,6,,,,,1,,,48,0
4559,note_on,,,,,119,0,2,,,,,0,,,52,0
4559,note_on,,,,,0,0,2,,,,,0,,,60,0
4559,note_on,,,,,29,0,1,,,,,0,,,76,0
4559,note_on,,,,,248,0,4,,,,,1,,,71,78
4559,note_on,,,,,119,0,5,,,,,1,,,57,0
4559,note_on,,,,,119,0,3,,,,,1,,,76,0
4560,note_on,,,,,1,0,2,,,,,0,,,50,78
4560,note_on,,,,,1,0,4,,,,,1,,,69,0
4560,note_on,,,,,0,0,2,,,,,0,,,47,70
4560,note_on,,,,,1,0,1,,,,,0,,,74,70
4560,note_on,,,,,1,0,6,,,,,1,,,47,78
4560,note_on,,,,,1,0,3,,,,,1,,,74,78
4589,note_on,,,,,29,0,1,,,,,0,,,74,0
4589,note_on,,,,,29,0,3,,,,,1,,,74,0
4590,note_on,,,,,1,0,1,,,,,0,,,71,62
4614,note_on,,,,,54,0,4,,,,,1,,,69,68
4617,note_on,,,,,3,0,4,,,,,1,,,71,0
4619,note_on,,,,,59,0,2,,,,,0,,,47,0
4619,note_on,,,,,29,0,1,,,,,0,,,71,0
4619,note_on,,,,,0,0,2,,,,,0,,,50,0
4619,note_on,,,,,59,0,6,,,,,1,,,47,0
4620,note_on,,,,,0,0,2,,,,,0,,,48,55
4620,note_on,,,,,61,0,5,,,,,1,,,64,78
4620,note_on,,,,,1,0,2,,,,,0,,,52,78
4620,note_on,,,,,1,0,1,,,,,0,,,69,55
4620,note_on,,,,,1,0,6,,,,,1,,,48,68
4620,note_on,,,,,31,0,3,,,,,1,,,72,50
4649,note_on,,,,,29,0,1,,,,,0,,,69,0
4650,note_on,,,,,1,0,1,,,,,0,,,72,55
4674,note_on,,,,,57,0,4,,,,,1,,,67,78
4675,note_on,,,,,1,0,4,,,,,1,,,69,0
4679,note_on,,,,,29,0,1,,,,,0,,,72,0
4679,note_on,,,,,59,0,3,,,,,1,,,72,0
4679,note_on,,,,,59,0,6,,,,,1,,,48,0
4679,note_on,,,,,59,0,2,,,,,0,,,48,0
4679,note_on,,,,,0,0,2,,,,,0,,,52,0
4679,note_on,,,,,59,0,5,,,,,1,,,64,0
4680,note_on,,,,,1,0,1,,,,,0,,,71,62
4680,note_on,,,,,1,0,6,,,,,1,,,50,78
4680,note_on,,,,,1,0,5,,,,,1,,,62,78
4680,note_on,,,,,1,0,2,,,,,0,,,50,62
4680,note_on,,,,,1,0,3,,,,,1,,,71,90
4680,note_on,,,,,0,0,2,,,,,0,,,55,78
4709,note_on,,,,,29,0,5,,,,,1,,,62,0
4709,note_on,,,,,29,0,1,,,,,0,,,71,0
4710,note_on,,,,,1,0,1,,,,,0,,,67,62
4733,note_on,,,,,58,0,4,,,,,1,,,67,0
4733,note_on,,,,,0,0,4,,,,,1,,,66,90
4739,note_on,,,,,59,0,2,,,,,0,,,55,0
4739,note_on,,,,,0,0,2,,,,,0,,,50,0
4739,note_on,,,,,59,0,6,,,,,1,,,50,0
4739,note_on,,,,,29,0,1,,,,,0,,,67,0
4739,note_on,,,,,59,0,3,,,,,1,,,71,0
4740,note_on,,,,,1,0,2,,,,,0,,,48,70
4740,note_on,,,,,0,0,2,,,,,0,,,57,78
4740,note_on,,,,,1,0,1,,,,,0,,,66,70
4740,note_on,,,,,31,0,5,,,,,1,,,62,78
4740,note_on,,,,,1,0,3,,,,,1,,,69,58
4740,note_on,,,,,1,0,6,,,,,1,,,48,58
4769,note_on,,,,,29,0,5,,,,,1,,,62,0
4769,note_on,,,,,29,0,1,,,,,0,,,66,0
4770,note_on,,,,,1,0,1,,,,,0,,,69,62
4784,note_on,,,,,51,0,4,,,,,1,,,66,0
4795,note_on,,,,,11,0,4,,,,,1,,,67,90
4799,note_on,,,,,59,0,6,,,,,1,,,48,0
4799,note_on,,,,,59,0,2,,,,,0,,,57,0
4799,note_on,,,,,0,0,2,,,,,0,,,48,0
4799,note_on,,,,,59,0,3,,,,,1,,,69,0
4799,note_on,,,,,29,0,1,,,,,0,,,69,0
4800,note_on,,,,,1,0,3,,,,,1,,,67,78
4800,note_on,,,,,31,0,5,,,,,1,,,62,78
4800,note_on,,,,,1,0,2,,,,,0,,,47,78
4800,note_on,,,,,0,0,2,,,,,0,,,55,78
4800,note_on,,,,,1,0,6,,,,,1,,,47,90
4800,note_on,,,,,1,0,1,,,,,0,,,67,78
4829,note_on,,,,,29,0,1,,,,,0,,,67,0
4830,note_on,,,,,1,0,1,,,,,0,,,78,70
4859,note_on,,,,,29,0,1,,,,,0,,,78,0
4860,note_on,,,,,1,0,1,,,,,0,,,79,62
4889,note_on,,,,,29,0,1,,,,,0,,,79,0
4889,note_on,,,,,89,0,6,,,,,1,,,47,0
4890,note_on,,,,,1,0,1,,,,,0,,,78,62
4905,note_on,,,,,110,0,4,,,,,1,,,67,0
4909,note_on,,,,,4,0,4,,,,,1,,,62,78
4919,note_on,,,,,119,0,5,,,,,1,,,62,0
4919,note_on,,,,,29,0,1,,,,,0,,,78,0
4919,note_on,,,,,119,0,3,,,,,1,,,67,0
4919,note_on,,,,,119,0,2,,,,,0,,,55,0
4919,note_on,,,,,0,0,2,,,,,0,,,47,0
4920,note_on,,,,,31,0,6,,,,,1,,,47,90
4920,note_on,,,,,1,0,1,,,,,0,,,79,62
4920,note_on,,,,,1,0,3,,,,,1,,,74,90
4920,note_on,,,,,1,0,5,,,,,1,,,55,78
4949,note_on,,,,,29,0,1,,,,,0,,,79,0
4950,note_on,,,,,1,0,1,,,,,0,,,78,55
4979,note_on,,,,,29,0,1,,,,,0,,,78,0
4980,note_on,,,,,1,0,1,,,,,0,,,76,62
5009,note_on,,,,,29,0,1,,,,,0,,,76,0
5010,note_on,,,,,1,0,1,,,,,0,,,74,70
5032,note_on,,,,,123,0,4,,,,,1,,,62,0
5039,note_on,,,,,119,0,3,,,,,1,,,74,0
5039,note_on,,,,,119,0,6,,,,,1,,,47,0
5039,note_on,,,,,119,0,5,,,,,1,,,55,0
5039,note_on,,,,,29,0,1,,,,,0,,,74,0
5040,note_on,,,,,121,0,2,,,,,0,,,36,88
5040,note_on,,,,,0,0,2,,,,,0,,,48,70
5040,note_on,,,,,1,0,1,,,,,0,,,72,62
5099,note_on,,,,,59,0,1,,,,,0,,,72,0
5100,note_on,,,,,1,0,1,,,,,0,,,71,62
5129,note_on,,,,,29,0,1,,,,,0,,,71,0
5130,note_on,,,,,1,0,1,,,,,0,,,72,70
5144,note_on,,,,,14,0,1,,,,,0,,,72,0
5159,note_on,,,,,0,0,2,,,,,0,,,36,0
5159,note_on,,,,,119,0,2,,,,,0,,,48,0
5160,note_on,,,,,0,0,2,,,,,0,,,60,78
5160,note_on,,,,,121,0,3,,,,,1,,,72,78
5160,note_on,,,,,16,0,1,,,,,0,,,72,70
5160,note_on,,,,,121,0,5,,,,,1,,,64,58
5160,note_on,,,,,121,0,6,,,,,1,,,60,78
5160,note_on,,,,,1,0,2,,,,,0,,,64,88
5189,note_on,,,,,29,0,3,,,,,1,,,72,0
5219,note_on,,,,,59,0,6,,,,,1,,,60,0
5219,note_on,,,,,59,0,2,,,,,0,,,60,0
5219,note_on,,,,,59,0,1,,,,,0,,,72,0
5219,note_on,,,,,59,0,5,,,,,1,,,64,0
5220,note_on,,,,,31,0,3,,,,,1,,,72,78
5220,note_on,,,,,1,0,6,,,,,1,,,59,78
5220,note_on,,,,,1,0,1,,,,,0,,,71,62
5220,note_on,,,,,1,0,2,,,,,0,,,59,70
5220,note_on,,,,,1,0,5,,,,,1,,,62,78
5249,note_on,,,,,29,0,3,,,,,1,,,72,0
5249,note_on,,,,,29,0,1,,,,,0,,,71,0
5250,note_on,,,,,1,0,1,,,,,0,,,72,70
5264,note_on,,,,,14,0,1,,,,,0,,,72,0
5279,note_on,,,,,59,0,5,,,,,1,,,62,0
5279,note_on,,,,,59,0,6,,,,,1,,,59,0
5279,note_on,,,,,59,0,2,,,,,0,,,59,0
5280,note_on,,,,,1,0,5,,,,,1,,,60,78
5280,note_on,,,,,1,0,2,,,,,0,,,57,70
5280,note_on,,,,,16,0,1,,,,,0,,,72,78
5280,note_on,,,,,31,0,3,,,,,1,,,72,78
5280,note_on,,,,,1,0,6,,,,,1,,,57,78
5339,note_on,,,,,59,0,2,,,,,0,,,57,0
5339,note_on,,,,,59,0,1,,,,,0,,,72,0
5339,note_on,,,,,59,0,6,,,,,1,,,57,0
5339,note_on,,,,,59,0,5,,,,,1,,,60,0
5340,note_on,,,,,1,0,5,,,,,1,,,64,78
5340,note_on,,,,,1,0,6,,,,,1,,,60,78
5340,note_on,,,,,1,0,2,,,,,0,,,60,62
5340,note_on,,,,,1,0,1,,,,,0,,,71,70
5369,note_on,,,,,89,0,3,,,,,1,,,72,0
5369,note_on,,,,,29,0,2,,,,,0,,,60,0
5369,note_on,,,,,29,0,1,,,,,0,,,71,0
5370,note_on,,,,,1,0,1,,,,,0,,,72,78
5384,note_on,,,,,14,0,1,,,,,0,,,72,0
5396,note_on,,,,,364,0,4,,,,,1,,,72,78
5399,note_on,,,,,59,0,6,,,,,1,,,60,0
5399,note_on,,,,,30,0,2,,,,,0,,,64,0
5399,note_on,,,,,59,0,5,,,,,1,,,64,0
5400,note_on,,,,,0,0,2,,,,,0,,,60,70
5400,note_on,,,,,1,0,6,,,,,1,,,57,78
5400,note_on,,,,,31,0,3,,,,,1,,,72,78
5400,note_on,,,,,16,0,1,,,,,0,,,72,70
5400,note_on,,,,,1,0,2,,,,,0,,,57,78
5400,note_on,,,,,1,0,5,,,,,1,,,57,68
5414,note_on,,,,,14,0,2,,,,,0,,,60,0
5414,note_on,,,,,0,0,2,,,,,0,,,57,0
5429,note_on,,,,,29,0,3,,,,,1,,,72,0
5459,note_on,,,,,59,0,1,,,,,0,,,72,0
5459,note_on,,,,,59,0,6,,,,,1,,,57,0
5459,note_on,,,,,63,0,4,,,,,1,,,71,78
5459,note_on,,,,,59,0,5,,,,,1,,,57,0
5460,note_on,,,,,46,0,2,,,,,0,,,59,70
5460,note_on,,,,,1,0,6,,,,,1,,,55,58
5460,note_on,,,,,1,0,1,,,,,0,,,71,62
5460,note_on,,,,,1,0,5,,,,,1,,,59,68
5460,note_on,,,,,31,0,3,,,,,1,,,72,78
5460,note_on,,,,,0,0,2,,,,,0,,,55,62
5467,note_on,,,,,8,0,4,,,,,1,,,72,0
5474,note_on,,,,,14,0,2,,,,,0,,,55,0
5474,note_on,,,,,0,0,2,,,,,0,,,59,0
5489,note_on,,,,,29,0,1,,,,,0,,,71,0
5489,note_on,,,,,29,0,3,,,,,1,,,72,0
5490,note_on,,,,,1,0,1,,,,,0,,,72,70
5504,note_on,,,,,14,0,1,,,,,0,,,72,0
5518,note_on,,,,,51,0,4,,,,,1,,,71,0
5519,note_on,,,,,59,0,5,,,,,1,,,59,0
5519,note_on,,,,,59,0,6,,,,,1,,,55,0
5520,note_on,,,,,31,0,3,,,,,1,,,72,78
5520,note_on,,,,,2,0,4,,,,,1,,,69,78
5520,note_on,,,,,1,0,5,,,,,1,,,60,68
5520,note_on,,,,,1,0,6,,,,,1,,,54,90
5520,note_on,,,,,0,0,2,,,,,0,,,57,78
5520,note_on,,,,,46,0,2,,,,,0,,,54,88
5520,note_on,,,,,16,0,1,,,,,0,,,72,70
5564,note_on,,,,,44,0,2,,,,,0,,,57,0
5564,note_on,,,,,0,0,2,,,,,0,,,54,0
5579,note_on,,,,,59,0,1,,,,,0,,,72,0
5579,note_on,,,,,59,0,6,,,,,1,,,54,0
5580,note_on,,,,,16,0,2,,,,,0,,,57,70
5580,note_on,,,,,1,0,1,,,,,0,,,74,70
5580,note_on,,,,,1,0,6,,,,,1,,,57,78
5580,note_on,,,,,60,0,4,,,,,1,,,72,68
5580,note_on,,,,,0,0,2,,,,,0,,,60,70
5582,note_on,,,,,2,0,4,,,,,1,,,69,0
5609,note_on,,,,,29,0,1,,,,,0,,,74,0
5609,note_on,,,,,89,0,3,,,,,1,,,72,0
5609,note_on,,,,,29,0,2,,,,,0,,,57,0
5610,note_on,,,,,1,0,1,,,,,0,,,76,55
5624,note_on,,,,,15,0,2,,,,,0,,,60,0
5635,note_on,,,,,53,0,4,,,,,1,,,72,0
5638,note_on,,,,,3,0,4,,,,,1,,,69,78
5639,note_on,,,,,119,0,5,,,,,1,,,60,0
5639,note_on,,,,,29,0,1,,,,,0,,,76,0
5639,note_on,,,,,59,0,6,,,,,1,,,57,0
5640,note_on,,,,,31,0,3,,,,,1,,,72,78
5640,note_on,,,,,1,0,6,,,,,1,,,54,90
5640,note_on,,,,,16,0,2,,,,,0,,,57,78
5640,note_on,,,,,1,0,5,,,,,1,,,54,90
5640,note_on,,,,,0,0,2,,,,,0,,,54,88
5640,note_on,,,,,1,0,1,,,,,0,,,78,78
5654,note_on,,,,,0,0,2,,,,,0,,,57,0
5654,note_on,,,,,14,0,2,,,,,0,,,54,0
5669,note_on,,,,,29,0,1,,,,,0,,,78,0
5669,note_on,,,,,29,0,3,,,,,1,,,72,0
5670,note_on,,,,,1,0,1,,,,,0,,,79,70
5698,note_on,,,,,0,0,4,,,,,1,,,67,68
5698,note_on,,,,,60,0,4,,,,,1,,,69,0
5699,note_on,,,,,59,0,5,,,,,1,,,54,0
5699,note_on,,,,,59,0,6,,,,,1,,,54,0
5699,note_on,,,,,29,0,1,,,,,0,,,79,0
5700,note_on,,,,,0,0,2,,,,,0,,,52,62
5700,note_on,,,,,1,0,1,,,,,0,,,81,62
5700,note_on,,,,,31,0,3,,,,,1,,,72,78
5700,note_on,,,,,1,0,5,,,,,1,,,55,68
5700,note_on,,,,,46,0,2,,,,,0,,,55,62
5700,note_on,,,,,1,0,6,,,,,1,,,52,68
5714,note_on,,,,,14,0,2,,,,,0,,,55,0
5729,note_on,,,,,15,0,2,,,,,0,,,52,0
5729,note_on,,,,,29,0,3,,,,,1,,,72,0
5729,note_on,,,,,29,0,1,,,,,0,,,81,0
5730,note_on,,,,,1,0,1,,,,,0,,,83,62
5757,note_on,,,,,59,0,4,,,,,1,,,67,0
5759,note_on,,,,,59,0,6,,,,,1,,,52,0
5759,note_on,,,,,29,0,1,,,,,0,,,83,0
5759,note_on,,,,,59,0,5,,,,,1,,,55,0
5760,note_on,,,,,1,0,6,,,,,1,,,50,68
5760,note_on,,,,,31,0,2,,,,,0,,,54,88
5760,note_on,,,,,31,0,3,,,,,1,,,72,78
5760,note_on,,,,,0,0,2,,,,,0,,,50,62
5760,note_on,,,,,1,0,1,,,,,0,,,84,70
5760,note_on,,,,,1,0,5,,,,,1,,,57,78
5762,note_on,,,,,5,0,4,,,,,1,,,66,90
5789,note_on,,,,,29,0,1,,,,,0,,,84,0
5790,note_on,,,,,1,0,1,,,,,0,,,86,70
5819,note_on,,,,,29,0,1,,,,,0,,,86,0
5820,note_on,,,,,1,0,1,,,,,0,,,83,70
5834,note_on,,,,,74,0,2,,,,,0,,,50,0
5834,note_on,,,,,0,0,2,,,,,0,,,54,0
5849,note_on,,,,,29,0,1,,,,,0,,,83,0
5850,note_on,,,,,1,0,1,,,,,0,,,84,55
5879,note_on,,,,,29,0,1,,,,,0,,,84,0
5880,note_on,,,,,1,0,1,,,,,0,,,81,62
5880,note_on,,,,,46,0,2,,,,,0,,,62,78
5880,note_on,,,,,0,0,2,,,,,0,,,60,78
5909,note_on,,,,,149,0,5,,,,,1,,,57,0
5909,note_on,,,,,149,0,6,,,,,1,,,50,0
5909,note_on,,,,,29,0,1,,,,,0,,,81,0
5910,note_on,,,,,1,0,1,,,,,0,,,83,62
5915,note_on,,,,,153,0,4,,,,,1,,,66,0
5932,note_on,,,,,17,0,4,,,,,1,,,66,90
5939,note_on,,,,,29,0,1,,,,,0,,,83,0
5939,note_on,,,,,179,0,3,,,,,1,,,72,0
5940,note_on,,,,,31,0,6,,,,,1,,,50,78
5940,note_on,,,,,1,0,3,,,,,1,,,72,90
5940,note_on,,,,,31,0,5,,,,,1,,,57,78
5940,note_on,,,,,1,0,1,,,,,0,,,79,62
5954,note_on,,,,,74,0,2,,,,,0,,,60,0
5954,note_on,,,,,0,0,2,,,,,0,,,62,0
5969,note_on,,,,,29,0,3,,,,,1,,,72,0
5969,note_on,,,,,29,0,1,,,,,0,,,79,0
5969,note_on,,,,,29,0,6,,,,,1,,,50,0
5969,note_on,,,,,29,0,5,,,,,1,,,57,0
5970,note_on,,,,,0,0,2,,,,,0,,,62,55
5970,note_on,,,,,16,0,2,,,,,0,,,60,39
5970,note_on,,,,,1,0,1,,,,,0,,,81,55
5972,note_on,,,,,40,0,4,,,,,1,,,66,0
5984,note_on,,,,,0,0,2,,,,,0,,,60,0
5984,note_on,,,,,14,0,2,,,,,0,,,62,0
5997,note_on,,,,,25,0,4,,,,,1,,,66,90
5999,note_on,,,,,29,0,1,,,,,0,,,81,0
6000,note_on,,,,,31,0,6,,,,,1,,,50,78
6000,note_on,,,,,31,0,3,,,,,1,,,72,90
6000,note_on,,,,,0,0,2,,,,,0,,,62,78
6000,note_on,,,,,31,0,5,,,,,1,,,57,78
6000,note_on,,,,,1,0,1,,,,,0,,,78,78
6000,note_on,,,,,16,0,2,,,,,0,,,60,78
6029,note_on,,,,,29,0,1,,,,,0,,,78,0
6030,note_on,,,,,1,0,1,,,,,0,,,79,55
6059,note_on,,,,,29,0,1,,,,,0,,,79,0
6060,note_on,,,,,1,0,1,,,,,0,,,76,55
6089,note_on,,,,,0,0,2,,,,,0,,,60,0
6089,note_on,,,,,89,0,2,,,,,0,,,62,0
6089,note_on,,,,,29,0,1,,,,,0,,,76,0
6089,note_on,,,,,89,0,3,,,,,1,,,72,0
6090,note_on,,,,,1,0,1,,,,,0,,,78,70
6119,note_on,,,,,119,0,5,,,,,1,,,57,0
6119,note_on,,,,,119,0,6,,,,,1,,,50,0
6119,note_on,,,,,29,0,1,,,,,0,,,78,0
6120,note_on,,,,,1,0,5,,,,,1,,,62,90
6120,note_on,,,,,1,0,6,,,,,1,,,50,78
6120,note_on,,,,,0,0,2,,,,,0,,,54,98
6120,note_on,,,,,123,0,4,,,,,1,,,66,0
6120,note_on,,,,,31,0,3,,,,,1,,,72,78
6120,note_on,,,,,1,0,1,,,,,0,,,74,78
6120,note_on,,,,,31,0,2,,,,,0,,,50,78
6120,note_on,,,,,0,0,2,,,,,0,,,60,88
6126,note_on,,,,,6,0,4,,,,,1,,,66,90
6149,note_on,,,,,29,0,6,,,,,1,,,50,0
6149,note_on,,,,,29,0,3,,,,,1,,,72,0
6149,note_on,,,,,29,0,1,,,,,0,,,74,0
6150,note_on,,,,,1,0,1,,,,,0,,,76,62
6163,note_on,,,,,37,0,4,,,,,1,,,66,0
6164,note_on,,,,,44,0,2,,,,,0,,,50,0
6179,note_on,,,,,59,0,5,,,,,1,,,62,0
6179,note_on,,,,,29,0,1,,,,,0,,,76,0
6179,note_on,,,,,15,0,2,,,,,0,,,54,0
6180,note_on,,,,,31,0,6,,,,,1,,,50,78
6180,note_on,,,,,1,0,1,,,,,0,,,72,70
6180,note_on,,,,,31,0,3,,,,,1,,,72,90
6180,note_on,,,,,1,0,2,,,,,0,,,50,78
6180,note_on,,,,,1,0,5,,,,,1,,,62,68
6181,note_on,,,,,18,0,4,,,,,1,,,66,90
6194,note_on,,,,,14,0,2,,,,,0,,,60,0
6209,note_on,,,,,29,0,5,,,,,1,,,62,0
6209,note_on,,,,,29,0,1,,,,,0,,,72,0
6210,note_on,,,,,1,0,1,,,,,0,,,74,62
6217,note_on,,,,,36,0,4,,,,,1,,,66,0
6224,note_on,,,,,30,0,2,,,,,0,,,50,0
6238,note_on,,,,,21,0,4,,,,,1,,,67,90
6239,note_on,,,,,59,0,6,,,,,1,,,50,0
6239,note_on,,,,,29,0,1,,,,,0,,,74,0
6239,note_on,,,,,59,0,3,,,,,1,,,72,0
6240,note_on,,,,,1,0,6,,,,,1,,,55,58
6240,note_on,,,,,0,0,2,,,,,0,,,55,88
6240,note_on,,,,,16,0,2,,,,,0,,,59,78
6240,note_on,,,,,1,0,3,,,,,1,,,71,78
6240,note_on,,,,,31,0,5,,,,,1,,,62,78
6240,note_on,,,,,1,0,1,,,,,0,,,71,70
6269,note_on,,,,,29,0,1,,,,,0,,,71,0
6270,note_on,,,,,1,0,1,,,,,0,,,74,70
6299,note_on,,,,,29,0,1,,,,,0,,,74,0
6300,note_on,,,,,1,0,1,,,,,0,,,72,70
6329,note_on,,,,,0,0,2,,,,,0,,,59,0
6329,note_on,,,,,89,0,2,,,,,0,,,55,0
6329,note_on,,,,,29,0,1,,,,,0,,,72,0
6330,note_on,,,,,1,0,1,,,,,0,,,71,78
6349,note_on,,,,,111,0,4,,,,,1,,,67,0
6356,note_on,,,,,7,0,4,,,,,1,,,69,90
6359,note_on,,,,,119,0,6,,,,,1,,,55,0
6359,note_on,,,,,29,0,1,,,,,0,,,71,0
6359,note_on,,,,,119,0,5,,,,,1,,,62,0
6359,note_on,,,,,119,0,3,,,,,1,,,71,0
6360,note_on,,,,,0,0,2,,,,,0,,,52,88
6360,note_on,,,,,31,0,2,,,,,0,,,57,88
6360,note_on,,,,,0,0,2,,,,,0,,,48,70
6360,note_on,,,,,1,0,6,,,,,1,,,48,78
6360,note_on,,,,,1,0,5,,,,,1,,,64,78
6360,note_on,,,,,1,0,3,,,,,1,,,72,78
6360,note_on,,,,,1,0,1,,,,,0,,,76,70
6389,note_on,,,,,29,0,1,,,,,0,,,76,0
6390,note_on,,,,,1,0,1,,,,,0,,,72,70
6419,note_on,,,,,29,0,1,,,,,0,,,72,0
6420,note_on,,,,,1,0,1,,,,,0,,,71,70
6449,note_on,,,,,29,0,1,,,,,0,,,71,0
6449,note_on,,,,,89,0,2,,,,,0,,,48,0
6450,note_on,,,,,1,0,1,,,,,0,,,69,62
6464,note_on,,,,,0,0,2,,,,,0,,,57,0
6464,note_on,,,,,15,0,2,,,,,0,,,52,0
6474,note_on,,,,,118,0,4,,,,,1,,,69,0
6476,note_on,,,,,2,0,4,,,,,1,,,67,78
6479,note_on,,,,,119,0,3,,,,,1,,,72,0
6479,note_on,,,,,29,0,1,,,,,0,,,69,0
6479,note_on,,,,,119,0,6,,,,,1,,,48,0
6479,note_on,,,,,119,0,5,,,,,1,,,64,0
6480,note_on,,,,,1,0,3,,,,,1,,,71,78
6480,note_on,,,,,1,0,1,,,,,0,,,74,88
6480,note_on,,,,,1,0,5,,,,,1,,,62,78
6480,note_on,,,,,16,0,2,,,,,0,,,59,88
6480,note_on,,,,,0,0,2,,,,,0,,,55,78
6480,note_on,,,,,1,0,6,,,,,1,,,50,78
6480,note_on,,,,,0,0,2,,,,,0,,,50,78
6509,note_on,,,,,29,0,1,,,,,0,,,74,0
6510,note_on,,,,,1,0,1,,,,,0,,,71,70
6539,note_on,,,,,29,0,1,,,,,0,,,71,0
6540,note_on,,,,,1,0,1,,,,,0,,,69,62
6569,note_on,,,,,0,0,2,,,,,0,,,50,0
6569,note_on,,,,,0,0,2,,,,,0,,,59,0
6569,note_on,,,,,89,0,2,,,,,0,,,55,0
6569,note_on,,,,,29,0,1,,,,,0,,,69,0
6570,note_on,,,,,1,0,1,,,,,0,,,67,62
6589,note_on,,,,,113,0,4,,,,,1,,,67,0
6591,note_on,,,,,2,0,4,,,,,1,,,66,90
6599,note_on,,,,,29,0,1,,,,,0,,,67,0
6599,note_on,,,,,119,0,3,,,,,1,,,71,0
6600,note_on,,,,,0,0,2,,,,,0,,,50,78
6600,note_on,,,,,0,0,2,,,,,0,,,57,88
6600,note_on,,,,,31,0,2,,,,,0,,,54,110
6600,note_on,,,,,1,0,3,,,,,1,,,69,90
6600,note_on,,,,,1,0,1,,,,,0,,,72,70
6629,note_on,,,,,149,0,6,,,,,1,,,50,0
6629,note_on,,,,,149,0,5,,,,,1,,,62,0
6629,note_on,,,,,29,0,1,,,,,0,,,72,0
6630,note_on,,,,,1,0,1,,,,,0,,,69,62
6659,note_on,,,,,59,0,3,,,,,1,,,69,0
6659,note_on,,,,,29,0,1,,,,,0,,,69,0
6660,note_on,,,,,31,0,5,,,,,1,,,62,78
6660,note_on,,,,,31,0,6,,,,,1,,,50,78
6660,note_on,,,,,1,0,1,,,,,0,,,67,62
6670,note_on,,,,,79,0,4,,,,,1,,,66,0
6689,note_on,,,,,29,0,1,,,,,0,,,67,0
6690,note_on,,,,,31,0,3,,,,,1,,,69,78
6690,note_on,,,,,1,0,1,,,,,0,,,66,78
6694,note_on,,,,,24,0,4,,,,,1,,,66,90
6704,note_on,,,,,104,0,2,,,,,0,,,50,0
6704,note_on,,,,,0,0,2,,,,,0,,,54,0
6704,note_on,,,,,0,0,2,,,,,0,,,57,0
6715,note_on,,,,,21,0,4,,,,,1,,,66,0
6719,note_on,,,,,59,0,5,,,,,1,,,62,0
6719,note_on,,,,,29,0,3,,,,,1,,,69,0
6719,note_on,,,,,59,0,6,,,,,1,,,50,0
6719,note_on,,,,,4,0,4,,,,,1,,,67,78
6719,note_on,,,,,29,0,1,,,,,0,,,66,0
6720,note_on,,,,,0,0,2,,,,,0,,,55,78
6720,note_on,,,,,0,0,2,,,,,0,,,50,88
6720,note_on,,,,,16,0,2,,,,,0,,,43,70
6720,note_on,,,,,1,0,6,,,,,1,,,43,78
6720,note_on,,,,,1,0,3,,,,,1,,,67,90
6720,note_on,,,,,1,0,1,,,,,0,,,67,98
6720,note_on,,,,,1,0,5,,,,,1,,,62,90
6734,note_on,,,,,14,0,1,,,,,0,,,67,0
6750,note_on,,,,,16,0,1,,,,,0,,,67,70
6779,note_on,,,,,29,0,1,,,,,0,,,67,0
6780,note_on,,,,,1,0,1,,,,,0,,,66,88
6809,note_on,,,,,29,0,1,,,,,0,,,66,0
6810,note_on,,,,,1,0,1,,,,,0,,,67,70
6824,note_on,,,,,0,0,2,,,,,0,,,43,0
6824,note_on,,,,,0,0,2,,,,,0,,,55,0
6824,note_on,,,,,104,0,2,,,,,0,,,50,0
6839,note_on,,,,,29,0,1,,,,,0,,,67,0
6839,note_on,,,,,119,0,5,,,,,1,,,62,0
6839,note_on,,,,,119,0,6,,,,,1,,,43,0
6839,note_on,,,,,119,0,3,,,,,1,,,67,0
6840,note_on,,,,,16,0,2,,,,,0,,,55,98
6840,note_on,,,,,1,0,1,,,,,0,,,69,78
6844,note_on,,,,,125,0,4,,,,,1,,,67,0
6869,note_on,,,,,29,0,1,,,,,0,,,69,0
6870,note_on,,,,,1,0,1,,,,,0,,,67,62
6899,note_on,,,,,29,0,1,,,,,0,,,67,0
6900,note_on,,,,,1,0,1,,,,,0,,,66,88
6914,note_on,,,,,74,0,2,,,,,0,,,55,0
6929,note_on,,,,,29,0,1,,,,,0,,,66,0
6930,note_on,,,,,1,0,1,,,,,0,,,67,78
6930,note_on,,,,,16,0,2,,,,,0,,,55,88
6944,note_on,,,,,14,0,2,,,,,0,,,55,0
6959,note_on,,,,,29,0,1,,,,,0,,,67,0
6960,note_on,,,,,16,0,2,,,,,0,,,43,98
6960,note_on,,,,,1,0,1,,,,,0,,,55,78
6989,note_on,,,,,29,0,1,,,,,0,,,55,0
6989,note_on,,,,,29,0,2,,,,,0,,,43,0
6990,note_on,,,,,1,0,1,,,,,0,,,67,78
7019,note_on,,,,,29,0,1,,,,,0,,,67,0
7020,note_on,,,,,31,0,2,,,,,0,,,45,88
7020,note_on,,,,,1,0,1,,,,,0,,,57,78
7049,note_on,,,,,29,0,2,,,,,0,,,45,0
7049,note_on,,,,,29,0,1,,,,,0,,,57,0
7050,note_on,,,,,1,0,1,,,,,0,,,67,62
7079,note_on,,,,,29,0,1,,,,,0,,,67,0
7080,note_on,,,,,1,0,1,,,,,0,,,59,78
7080,note_on,,,,,31,0,2,,,,,0,,,47,88
7109,note_on,,,,,29,0,1,,,,,0,,,59,0
7110,note_on,,,,,1,0,1,,,,,0,,,67,70
7124,note_on,,,,,44,0,2,,,,,0,,,47,0
7139,note_on,,,,,29,0,1,,,,,0,,,67,0
7140,note_on,,,,,16,0,2,,,,,0,,,48,78
7140,note_on,,,,,1,0,1,,,,,0,,,60,78
7169,note_on,,,,,29,0,2,,,,,0,,,48,0
7169,note_on,,,,,29,0,1,,,,,0,,,60,0
7170,note_on,,,,,1,0,1,,,,,0,,,67,62
7199,note_on,,,,,29,0,1,,,,,0,,,67,0
7200,note_on,,,,,31,0,2,,,,,0,,,50,88
7200,note_on,,,,,0,0,2,,,,,0,,,43,88
7200,note_on,,,,,1,0,1,,,,,0,,,62,88
7214,note_on,,,,,14,0,1,,,,,0,,,62,0
7230,note_on,,,,,16,0,1,,,,,0,,,79,70
7259,note_on,,,,,29,0,1,,,,,0,,,79,0
7260,note_on,,,,,1,0,1,,,,,0,,,78,88
7289,note_on,,,,,29,0,1,,,,,0,,,78,0
7290,note_on,,,,,1,0,1,,,,,0,,,79,70
7319,note_on,,,,,29,0,1,,,,,0,,,79,0
7319,note_on,,,,,119,0,2,,,,,0,,,43,0
7319,note_on,,,,,0,0,2,,,,,0,,,50,0
7320,note_on,,,,,1,0,1,,,,,0,,,81,70
7349,note_on,,,,,29,0,1,,,,,0,,,81,0
7350,note_on,,,,,1,0,1,,,,,0,,,79,62
7379,note_on,,,,,29,0,1,,,,,0,,,79,0
7380,note_on,,,,,1,0,1,,,,,0,,,78,62
7409,note_on,,,,,29,0,1,,,,,0,,,78,0
7410,note_on,,,,,1,0,1,,,,,0,,,79,55
7439,note_on,,,,,29,0,1,,,,,0,,,79,0
7440,note_on,,,,,121,0,2,,,,,0,,,47,78
7440,note_on,,,,,0,0,2,,,,,0,,,59,98
7440,note_on,,,,,1,0,1,,,,,0,,,71,88
7469,note_on,,,,,29,0,1,,,,,0,,,71,0
7469,note_on,,,,,29,0,2,,,,,0,,,59,0
7469,note_on,,,,,0,0,2,,,,,0,,,47,0
7470,note_on,,,,,1,0,1,,,,,0,,,79,70
7499,note_on,,,,,29,0,1,,,,,0,,,79,0
7500,note_on,,,,,1,0,1,,,,,0,,,72,62
7500,note_on,,,,,0,0,2,,,,,0,,,60,88
7500,note_on,,,,,31,0,2,,,,,0,,,48,78
7529,note_on,,,,,29,0,1,,,,,0,,,72,0
7529,note_on,,,,,0,0,2,,,,,0,,,48,0
7529,note_on,,,,,29,0,2,,,,,0,,,60,0
7530,note_on,,,,,1,0,1,,,,,0,,,79,62
7559,note_on,,,,,29,0,1,,,,,0,,,79,0
7560,note_on,,,,,31,0,2,,,,,0,,,62,88
7560,note_on,,,,,0,0,2,,,,,0,,,50,70
7560,note_on,,,,,1,0,1,,,,,0,,,74,70
7589,note_on,,,,,29,0,1,,,,,0,,,74,0
7589,note_on,,,,,29,0,2,,,,,0,,,50,0
7589,note_on,,,,,0,0,2,,,,,0,,,62,0
7590,note_on,,,,,1,0,1,,,,,0,,,79,49
7619,note_on,,,,,29,0,1,,,,,0,,,79,0
7620,note_on,,,,,31,0,2,,,,,0,,,52,62
7620,note_on,,,,,0,0,2,,,,,0,,,64,88
7620,note_on,,,,,1,0,1,,,,,0,,,76,62
7649,note_on,,,,,29,0,2,,,,,0,,,64,0
7649,note_on,,,,,0,0,2,,,,,0,,,52,0
7649,note_on,,,,,29,0,1,,,,,0,,,76,0
7650,note_on,,,,,1,0,1,,,,,0,,,79,62
7679,note_on,,,,,29,0,1,,,,,0,,,79,0
7680,note_on,,,,,31,0,2,,,,,0,,,53,78
7680,note_on,,,,,0,0,2,,,,,0,,,65,98
7680,note_on,,,,,1,0,1,,,,,0,,,77,70
7709,note_on,,,,,0,0,2,,,,,0,,,53,0
7709,note_on,,,,,29,0,2,,,,,0,,,65,0
7709,note_on,,,,,29,0,1,,,,,0,,,77,0
7710,note_on,,,,,1,0,1,,,,,0,,,79,62
7739,note_on,,,,,29,0,1,,,,,0,,,79,0
7740,note_on,,,,,31,0,2,,,,,0,,,52,78
7740,note_on,,,,,1,0,1,,,,,0,,,76,62
7740,note_on,,,,,0,0,2,,,,,0,,,64,78
7754,note_on,,,,,14,0,2,,,,,0,,,64,0
7769,note_on,,,,,29,0,1,,,,,0,,,76,0
7769,note_on,,,,,15,0,2,,,,,0,,,52,0
7770,note_on,,,,,1,0,1,,,,,0,,,77,70
7799,note_on,,,,,29,0,1,,,,,0,,,77,0
7800,note_on,,,,,1,0,1,,,,,0,,,74,70
7800,note_on,,,,,31,0,2,,,,,0,,,50,78
7800,note_on,,,,,0,0,2,,,,,0,,,62,88
7814,note_on,,,,,14,0,2,,,,,0,,,50,0
7829,note_on,,,,,29,0,1,,,,,0,,,74,0
7829,note_on,,,,,15,0,2,,,,,0,,,62,0
7830,note_on,,,,,1,0,1,,,,,0,,,76,55
7859,note_on,,,,,29,0,1,,,,,0,,,76,0
7860,note_on,,,,,0,0,2,,,,,0,,,60,88
7860,note_on,,,,,31,0,2,,,,,0,,,48,70
7860,note_on,,,,,1,0,1,,,,,0,,,72,70
7889,note_on,,,,,29,0,1,,,,,0,,,72,0
7889,note_on,,,,,29,0,2,,,,,0,,,60,0
7889,note_on,,,,,0,0,2,,,,,0,,,48,0
7890,note_on,,,,,1,0,1,,,,,0,,,74,62
7919,note_on,,,,,29,0,1,,,,,0,,,74,0
7920,note_on,,,,,1,0,1,,,,,0,,,71,70
7920,note_on,,,,,31,0,2,,,,,0,,,47,70
7920,note_on,,,,,0,0,2,,,,,0,,,59,78
7949,note_on,,,,,29,0,1,,,,,0,,,71,0
7949,note_on,,,,,0,0,2,,,,,0,,,47,0
7949,note_on,,,,,29,0,2,,,,,0,,,59,0
7950,note_on,,,,,1,0,1,,,,,0,,,72,70
7979,note_on,,,,,29,0,1,,,,,0,,,72,0
7980,note_on,,,,,31,0,2,,,,,0,,,45,70
7980,note_on,,,,,0,0,2,,,,,0,,,57,88
7980,note_on,,,,,1,0,1,,,,,0,,,69,62
8009,note_on,,,,,0,0,2,,,,,0,,,45,0
8009,note_on,,,,,29,0,1,,,,,0,,,69,0
8009,note_on,,,,,29,0,2,,,,,0,,,57,0
8010,note_on,,,,,1,0,1,,,,,0,,,71,70
8039,note_on,,,,,29,0,1,,,,,0,,,71,0
8040,note_on,,,,,31,0,2,,,,,0,,,43,62
8040,note_on,,,,,1,0,1,,,,,0,,,67,78
8040,note_on,,,,,0,0,2,,,,,0,,,55,78
8069,note_on,,,,,29,0,1,,,,,0,,,67,0
8069,note_on,,,,,29,0,2,,,,,0,,,55,0
8069,note_on,,,,,0,0,2,,,,,0,,,43,0
8070,note_on,,,,,1,0,1,,,,,0,,,69,62
8099,note_on,,,,,29,0,1,,,,,0,,,69,0
8100,note_on,,,,,31,0,2,,,,,0,,,41,70
8100,note_on,,,,,1,0,1,,,,,0,,,65,70
8100,note_on,,,,,0,0,2,,,,,0,,,53,88
8114,note_on,,,,,14,0,2,,,,,0,,,53,0
8129,note_on,,,,,15,0,2,,,,,0,,,41,0
8129,note_on,,,,,29,0,1,,,,,0,,,65,0
8130,note_on,,,,,1,0,1,,,,,0,,,67,62
8159,note_on,,,,,29,0,1,,,,,0,,,67,0
8160,note_on,,,,,1321,0,5,,,,,1,,,64,68
8160,note_on,,,,,1321,0,6,,,,,1,,,52,90
8160,note_on,,,,,1,0,1,,,,,0,,,64,78
8160,note_on,,,,,0,0,2,,,,,0,,,52,70
8160,note_on,,,,,31,0,2,,,,,0,,,40,78
8160,note_on,,,,,1321,0,3,,,,,1,,,76,90
8163,note_on,,,,,1319,0,4,,,,,1,,,68,90
8189,note_on,,,,,29,0,1,,,,,0,,,64,0
8189,note_on,,,,,0,0,2,,,,,0,,,40,0
8189,note_on,,,,,29,0,2,,,,,0,,,52,0
8190,note_on,,,,,1,0,1,,,,,0,,,68,88
8219,note_on,,,,,29,0,1,,,,,0,,,68,0
8220,note_on,,,,,1,0,1,,,,,0,,,71,62
8220,note_on,,,,,31,0,2,,,,,0,,,40,70
8220,note_on,,,,,0,0,2,,,,,0,,,52,62
8249,note_on,,,,,29,0,2,,,,,0,,,52,0
8249,note_on,,,,,29,0,1,,,,,0,,,71,0
8249,note_on,,,,,89,0,6,,,,,1,,,52,0
8249,note_on,,,,,89,0,3,,,,,1,,,76,0
8249,note_on,,,,,0,0,2,,,,,0,,,40,0
8249,note_on,,,,,89,0,5,,,,,1,,,64,0
8250,note_on,,,,,1,0,1,,,,,0,,,76,70
8259,note_on,,,,,96,0,4,,,,,1,,,68,0
8279,note_on,,,,,29,0,1,,,,,0,,,76,0
8280,note_on,,,,,1,0,1,,,,,0,,,64,78
8280,note_on,,,,,31,0,3,,,,,1,,,76,90
8280,note_on,,,,,0,0,2,,,,,0,,,52,78
8280,note_on,,,,,0,0,2,,,,,0,,,56,110
8280,note_on,,,,,31,0,2,,,,,0,,,59,88
8280,note_on,,,,,21,0,4,,,,,1,,,68,78
8280,note_on,,,,,31,0,5,,,,,1,,,64,58
8280,note_on,,,,,31,0,6,,,,,1,,,52,78
8294,note_on,,,,,14,0,2,,,,,0,,,52,0
8309,note_on,,,,,29,0,1,,,,,0,,,64,0
8310,note_on,,,,,1,0,1,,,,,0,,,76,78
8339,note_on,,,,,29,0,1,,,,,0,,,76,0
8340,note_on,,,,,1,0,1,,,,,0,,,64,70
8340,note_on,,,,,46,0,2,,,,,0,,,52,62
8369,note_on,,,,,29,0,1,,,,,0,,,64,0
8369,note_on,,,,,89,0,6,,,,,1,,,52,0
8369,note_on,,,,,29,0,2,,,,,0,,,52,0
8369,note_on,,,,,89,0,5,,,,,1,,,64,0
8369,note_on,,,,,89,0,3,,,,,1,,,76,0
8370,note_on,,,,,1,0,1,,,,,0,,,76,70
8378,note_on,,,,,98,0,4,,,,,1,,,68,0
8399,note_on,,,,,29,0,1,,,,,0,,,76,0
8400,note_on,,,,,31,0,2,,,,,0,,,52,62
8400,note_on,,,,,1,0,1,,,,,0,,,64,62
8400,note_on,,,,,31,0,5,,,,,1,,,64,50
8400,note_on,,,,,31,0,6,,,,,1,,,52,90
8400,note_on,,,,,31,0,3,,,,,1,,,76,90
8402,note_on,,,,,24,0,4,,,,,1,,,68,90
8414,note_on,,,,,14,0,2,,,,,0,,,52,0
8429,note_on,,,,,29,0,1,,,,,0,,,64,0
8430,note_on,,,,,1,0,1,,,,,0,,,68,62
8459,note_on,,,,,29,0,1,,,,,0,,,68,0
8460,note_on,,,,,1,0,1,,,,,0,,,71,70
8460,note_on,,,,,46,0,2,,,,,0,,,52,62
8474,note_on,,,,,14,0,2,,,,,0,,,56,0
8489,note_on,,,,,15,0,2,,,,,0,,,52,0
8489,note_on,,,,,89,0,3,,,,,1,,,76,0
8489,note_on,,,,,29,0,1,,,,,0,,,71,0
8489,note_on,,,,,89,0,5,,,,,1,,,64,0
8489,note_on,,,,,89,0,6,,,,,1,,,52,0
8489,note_on,,,,,0,0,2,,,,,0,,,59,0
8490,note_on,,,,,1,0,1,,,,,0,,,76,88
8501,note_on,,,,,99,0,4,,,,,1,,,68,0
8519,note_on,,,,,29,0,1,,,,,0,,,76,0
8520,note_on,,,,,31,0,6,,,,,1,,,52,90
8520,note_on,,,,,0,0,2,,,,,0,,,56,88
8520,note_on,,,,,31,0,2,,,,,0,,,59,78
8520,note_on,,,,,31,0,3,,,,,1,,,76,90
8520,note_on,,,,,0,0,2,,,,,0,,,52,70
8520,note_on,,,,,1,0,1,,,,,0,,,64,70
8520,note_on,,,,,31,0,5,,,,,1,,,64,58
8523,note_on,,,,,22,0,4,,,,,1,,,68,78
8549,note_on,,,,,29,0,1,,,,,0,,,64,0
8549,note_on,,,,,29,0,2,,,,,0,,,52,0
8550,note_on,,,,,1,0,1,,,,,0,,,76,78
8579,note_on,,,,,29,0,1,,,,,0,,,76,0
8580,note_on,,,,,31,0,2,,,,,0,,,52,70
8580,note_on,,,,,1,0,1,,,,,0,,,64,62
8594,note_on,,,,,14,0,2,,,,,0,,,52,0
8594,note_on,,,,,0,0,2,,,,,0,,,56,0
8594,note_on,,,,,0,0,2,,,,,0,,,59,0
8609,note_on,,,,,29,0,1,,,,,0,,,64,0
8609,note_on,,,,,89,0,3,,,,,1,,,76,0
8609,note_on,,,,,89,0,6,,,,,1,,,52,0
8609,note_on,,,,,89,0,5,,,,,1,,,64,0
8610,note_on,,,,,1,0,1,,,,,0,,,76,62
8616,note_on,,,,,93,0,4,,,,,1,,,68,0
8624,note_on,,,,,14,0,1,,,,,0,,,76,0
8640,note_on,,,,,31,0,6,,,,,1,,,52,90
8640,note_on,,,,,24,0,4,,,,,1,,,69,90
8640,note_on,,,,,31,0,3,,,,,1,,,76,104
8640,note_on,,,,,46,0,2,,,,,0,,,52,78
8640,note_on,,,,,31,0,5,,,,,1,,,65,90
8640,note_on,,,,,0,0,2,,,,,0,,,65,98
8640,note_on,,,,,0,0,2,,,,,0,,,57,88
8640,note_on,,,,,16,0,1,,,,,0,,,76,70
8669,note_on,,,,,29,0,2,,,,,0,,,52,0
8699,note_on,,,,,59,0,1,,,,,0,,,76,0
8700,note_on,,,,,31,0,2,,,,,0,,,52,70
8700,note_on,,,,,1,0,1,,,,,0,,,81,62
8717,note_on,,,,,77,0,4,,,,,1,,,69,0
8729,note_on,,,,,89,0,6,,,,,1,,,52,0
8729,note_on,,,,,29,0,2,,,,,0,,,52,0
8729,note_on,,,,,29,0,1,,,,,0,,,81,0
8729,note_on,,,,,89,0,3,,,,,1,,,76,0
8729,note_on,,,,,89,0,5,,,,,1,,,65,0
8730,note_on,,,,,1,0,6,,,,,1,,,52,35
8730,note_on,,,,,1,0,1,,,,,0,,,77,70
8730,note_on,,,,,1,0,3,,,,,1,,,76,58
8738,note_on,,,,,21,0,4,,,,,1,,,69,50
8754,note_on,,,,,16,0,4,,,,,1,,,69,0
8759,note_on,,,,,29,0,3,,,,,1,,,76,0
8759,note_on,,,,,29,0,6,,,,,1,,,52,0
8759,note_on,,,,,29,0,1,,,,,0,,,77,0
8760,note_on,,,,,1,0,6,,,,,1,,,52,58
8760,note_on,,,,,1,0,1,,,,,0,,,74,78
8760,note_on,,,,,31,0,2,,,,,0,,,52,62
8760,note_on,,,,,1,0,3,,,,,1,,,74,50
8760,note_on,,,,,31,0,5,,,,,1,,,65,42
8763,note_on,,,,,9,0,4,,,,,1,,,69,68
8774,note_on,,,,,14,0,1,,,,,0,,,74,0
8789,note_on,,,,,29,0,2,,,,,0,,,52,0
8819,note_on,,,,,59,0,5,,,,,1,,,65,0
8820,note_on,,,,,46,0,1,,,,,0,,,74,70
8820,note_on,,,,,31,0,2,,,,,0,,,52,62
8834,note_on,,,,,14,0,1,,,,,0,,,74,0
8849,note_on,,,,,89,0,3,,,,,1,,,74,0
8849,note_on,,,,,29,0,2,,,,,0,,,52,0
8849,note_on,,,,,89,0,6,,,,,1,,,52,0
8850,note_on,,,,,31,0,5,,,,,1,,,65,42
8851,note_on,,,,,88,0,4,,,,,1,,,69,0
8875,note_on,,,,,24,0,4,,,,,1,,,69,58
8879,note_on,,,,,29,0,5,,,,,1,,,65,0
8880,note_on,,,,,31,0,6,,,,,1,,,52,42
8880,note_on,,,,,1,0,5,,,,,1,,,65,50
8880,note_on,,,,,31,0,2,,,,,0,,,52,70
8880,note_on,,,,,31,0,3,,,,,1,,,74,42
8880,note_on,,,,,46,0,1,,,,,0,,,74,70
8894,note_on,,,,,14,0,2,,,,,0,,,52,0
8924,note_on,,,,,44,0,1,,,,,0,,,74,0
8940,note_on,,,,,16,0,1,,,,,0,,,74,70
8940,note_on,,,,,46,0,2,,,,,0,,,52,62
8954,note_on,,,,,14,0,2,,,,,0,,,52,0
8969,note_on,,,,,89,0,6,,,,,1,,,52,0
8969,note_on,,,,,89,0,5,,,,,1,,,65,0
8969,note_on,,,,,89,0,3,,,,,1,,,74,0
8970,note_on,,,,,95,0,4,,,,,1,,,69,0
8984,note_on,,,,,44,0,1,,,,,0,,,74,0
8993,note_on,,,,,23,0,4,,,,,1,,,69,58
9000,note_on,,,,,46,0,2,,,,,0,,,52,62
9000,note_on,,,,,31,0,5,,,,,1,,,65,50
9000,note_on,,,,,31,0,6,,,,,1,,,52,29
9000,note_on,,,,,16,0,1,,,,,0,,,74,62
9000,note_on,,,,,31,0,3,,,,,1,,,74,42
9029,note_on,,,,,29,0,2,,,,,0,,,52,0
9044,note_on,,,,,44,0,1,,,,,0,,,74,0
9059,note_on,,,,,30,0,2,,,,,0,,,57,0
9059,note_on,,,,,59,0,3,,,,,1,,,74,0
9060,note_on,,,,,1,0,2,,,,,0,,,52,62
9060,note_on,,,,,16,0,1,,,,,0,,,74,62
9074,note_on,,,,,14,0,2,,,,,0,,,52,0
9074,note_on,,,,,0,0,2,,,,,0,,,65,0
9089,note_on,,,,,89,0,6,,,,,1,,,52,0
9089,note_on,,,,,89,0,5,,,,,1,,,65,0
9104,note_on,,,,,44,0,1,,,,,0,,,74,0
9105,note_on,,,,,112,0,4,,,,,1,,,69,0
9118,note_on,,,,,13,0,4,,,,,1,,,67,78
9120,note_on,,,,,16,0,1,,,,,0,,,74,62
9120,note_on,,,,,31,0,6,,,,,1,,,52,90
9120,note_on,,,,,61,0,3,,,,,1,,,74,90
9120,note_on,,,,,46,0,2,,,,,0,,,52,98
9120,note_on,,,,,0,0,2,,,,,0,,,64,110
9120,note_on,,,,,0,0,2,,,,,0,,,55,110
9120,note_on,,,,,31,0,5,,,,,1,,,64,90
9149,note_on,,,,,29,0,2,,,,,0,,,52,0
9179,note_on,,,,,59,0,1,,,,,0,,,74,0
9180,note_on,,,,,31,0,2,,,,,0,,,52,44
9180,note_on,,,,,1,0,1,,,,,0,,,79,70
9194,note_on,,,,,14,0,2,,,,,0,,,52,0
9209,note_on,,,,,29,0,1,,,,,0,,,79,0
9209,note_on,,,,,89,0,5,,,,,1,,,64,0
9209,note_on,,,,,89,0,6,,,,,1,,,52,0
9210,note_on,,,,,1,0,1,,,,,0,,,76,62
9215,note_on,,,,,97,0,4,,,,,1,,,67,0
9239,note_on,,,,,119,0,3,,,,,1,,,74,0
9239,note_on,,,,,29,0,1,,,,,0,,,76,0
9240,note_on,,,,,1,0,3,,,,,1,,,72,35
9240,note_on,,,,,46,0,2,,,,,0,,,52,44
9240,note_on,,,,,25,0,4,,,,,1,,,67,35
9240,note_on,,,,,31,0,5,,,,,1,,,64,42
9240,note_on,,,,,31,0,6,,,,,1,,,52,35
9240,note_on,,,,,1,0,1,,,,,0,,,72,70
9254,note_on,,,,,14,0,2,,,,,0,,,52,0
9254,note_on,,,,,14,0,1,,,,,0,,,72,0
9300,note_on,,,,,46,0,1,,,,,0,,,72,70
9300,note_on,,,,,46,0,2,,,,,0,,,52,49
9314,note_on,,,,,14,0,1,,,,,0,,,72,0
9314,note_on,,,,,14,0,2,,,,,0,,,52,0
9329,note_on,,,,,89,0,5,,,,,1,,,64,0
9329,note_on,,,,,89,0,6,,,,,1,,,52,0
9329,note_on,,,,,89,0,3,,,,,1,,,72,0
9332,note_on,,,,,92,0,4,,,,,1,,,67,0
9357,note_on,,,,,25,0,4,,,,,1,,,67,50
9360,note_on,,,,,46,0,1,,,,,0,,,72,70
9360,note_on,,,,,31,0,5,,,,,1,,,64,50
9360,note_on,,,,,31,0,3,,,,,1,,,72,42
9360,note_on,,,,,46,0,2,,,,,0,,,52,39
9360,note_on,,,,,31,0,6,,,,,1,,,52,42
9374,note_on,,,,,14,0,2,,,,,0,,,52,0
9404,note_on,,,,,44,0,1,,,,,0,,,72,0
9420,note_on,,,,,16,0,1,,,,,0,,,72,70
9420,note_on,,,,,46,0,2,,,,,0,,,52,39
9434,note_on,,,,,14,0,2,,,,,0,,,52,0
9438,note_on,,,,,81,0,4,,,,,1,,,67,0
9449,note_on,,,,,89,0,6,,,,,1,,,52,0
9449,note_on,,,,,89,0,3,,,,,1,,,72,0
9449,note_on,,,,,89,0,5,,,,,1,,,64,0
9450,note_on,,,,,12,0,4,,,,,1,,,67,35
9450,note_on,,,,,1,0,6,,,,,1,,,52,42
9450,note_on,,,,,1,0,5,,,,,1,,,64,10
9464,note_on,,,,,44,0,1,,,,,0,,,72,0
9469,note_on,,,,,19,0,4,,,,,1,,,67,0
9477,note_on,,,,,8,0,4,,,,,1,,,67,42
9479,note_on,,,,,29,0,6,,,,,1,,,52,0
9479,note_on,,,,,29,0,5,,,,,1,,,64,0
9480,note_on,,,,,16,0,1,,,,,0,,,72,62
9480,note_on,,,,,1,0,6,,,,,1,,,52,50
9480,note_on,,,,,46,0,2,,,,,0,,,52,44
9480,note_on,,,,,1,0,5,,,,,1,,,64,42
9480,note_on,,,,,31,0,3,,,,,1,,,72,29
9494,note_on,,,,,14,0,2,,,,,0,,,52,0
9524,note_on,,,,,44,0,1,,,,,0,,,72,0
9540,note_on,,,,,46,0,2,,,,,0,,,52,44
9540,note_on,,,,,16,0,1,,,,,0,,,72,78
9554,note_on,,,,,0,0,2,,,,,0,,,64,0
9554,note_on,,,,,0,0,2,,,,,0,,,55,0
9554,note_on,,,,,14,0,2,,,,,0,,,52,0
9569,note_on,,,,,89,0,5,,,,,1,,,64,0
9569,note_on,,,,,89,0,6,,,,,1,,,52,0
9569,note_on,,,,,89,0,3,,,,,1,,,72,0
9584,note_on,,,,,44,0,1,,,,,0,,,72,0
9584,note_on,,,,,107,0,4,,,,,1,,,67,0
9595,note_on,,,,,11,0,4,,,,,1,,,65,90
9600,note_on,,,,,31,0,6,,,,,1,,,52,90
9600,note_on,,,,,0,0,2,,,,,0,,,52,110
9600,note_on,,,,,31,0,3,,,,,1,,,72,90
9600,note_on,,,,,0,0,2,,,,,0,,,53,98
9600,note_on,,,,,46,0,2,,,,,0,,,62,98
9600,note_on,,,,,16,0,1,,,,,0,,,72,110
9600,note_on,,,,,31,0,5,,,,,1,,,62,90
9614,note_on,,,,,14,0,2,,,,,0,,,52,0
9659,note_on,,,,,59,0,1,,,,,0,,,72,0
9660,note_on,,,,,46,0,2,,,,,0,,,52,55
9660,note_on,,,,,1,0,1,,,,,0,,,77,62
9674,note_on,,,,,14,0,2,,,,,0,,,52,0
9689,note_on,,,,,29,0,1,,,,,0,,,77,0
9690,note_on,,,,,1,0,1,,,,,0,,,74,44
9692,note_on,,,,,97,0,4,,,,,1,,,65,0
9718,note_on,,,,,26,0,4,,,,,1,,,65,50
9719,note_on,,,,,29,0,1,,,,,0,,,74,0
9719,note_on,,,,,119,0,5,,,,,1,,,62,0
9719,note_on,,,,,119,0,3,,,,,1,,,72,0
9720,note_on,,,,,1,0,1,,,,,0,,,71,55
9720,note_on,,,,,1,0,3,,,,,1,,,71,50
9720,note_on,,,,,1,0,5,,,,,1,,,62,42
9720,note_on,,,,,46,0,2,,,,,0,,,52,35
9734,note_on,,,,,14,0,2,,,,,0,,,52,0
9764,note_on,,,,,44,0,1,,,,,0,,,71,0
9780,note_on,,,,,16,0,1,,,,,0,,,71,44
9780,note_on,,,,,46,0,2,,,,,0,,,52,49
9794,note_on,,,,,14,0,2,,,,,0,,,52,0
9809,note_on,,,,,15,0,2,,,,,0,,,53,0
9809,note_on,,,,,89,0,5,,,,,1,,,62,0
9809,note_on,,,,,209,0,6,,,,,1,,,52,0
9809,note_on,,,,,0,0,2,,,,,0,,,62,0
9811,note_on,,,,,93,0,4,,,,,1,,,65,0
9824,note_on,,,,,44,0,1,,,,,0,,,71,0
9831,note_on,,,,,20,0,4,,,,,1,,,64,90
9840,note_on,,,,,31,0,6,,,,,1,,,52,90
9840,note_on,,,,,16,0,1,,,,,0,,,71,98
9840,note_on,,,,,31,0,2,,,,,0,,,52,98
9840,note_on,,,,,0,0,2,,,,,0,,,60,98
9840,note_on,,,,,31,0,5,,,,,1,,,60,90
9869,note_on,,,,,29,0,2,,,,,0,,,52,0
9899,note_on,,,,,59,0,1,,,,,0,,,71,0
9900,note_on,,,,,31,0,2,,,,,0,,,52,62
9900,note_on,,,,,1,0,1,,,,,0,,,76,30
9929,note_on,,,,,29,0,1,,,,,0,,,76,0
9929,note_on,,,,,29,0,2,,,,,0,,,52,0
9929,note_on,,,,,89,0,5,,,,,1,,,60,0
9930,note_on,,,,,1,0,1,,,,,0,,,72,30
9934,note_on,,,,,103,0,4,,,,,1,,,64,0
9958,note_on,,,,,24,0,4,,,,,1,,,64,50
9959,note_on,,,,,29,0,1,,,,,0,,,72,0
9959,note_on,,,,,239,0,3,,,,,1,,,71,0
9960,note_on,,,,,31,0,5,,,,,1,,,60,35
9960,note_on,,,,,31,0,2,,,,,0,,,52,55
9960,note_on,,,,,1,0,3,,,,,1,,,69,42
9960,note_on,,,,,1,0,1,,,,,0,,,69,44
9989,note_on,,,,,29,0,2,,,,,0,,,52,0
10004,note_on,,,,,44,0,1,,,,,0,,,69,0
10020,note_on,,,,,31,0,2,,,,,0,,,52,49
10020,note_on,,,,,16,0,1,,,,,0,,,69,39
10034,note_on,,,,,14,0,2,,,,,0,,,60,0
10049,note_on,,,,,89,0,5,,,,,1,,,60,0
10049,note_on,,,,,15,0,2,,,,,0,,,52,0
10049,note_on,,,,,209,0,6,,,,,1,,,52,0
10065,note_on,,,,,107,0,4,,,,,1,,,64,0
10079,note_on,,,,,119,0,3,,,,,1,,,69,0
10079,note_on,,,,,59,0,1,,,,,0,,,69,0
10080,note_on,,,,,15,0,4,,,,,1,,,62,90
10080,note_on,,,,,31,0,6,,,,,1,,,52,78
10080,note_on,,,,,0,0,1,,,,,0,,,65,49
10080,note_on,,,,,1,0,1,,,,,0,,,68,55
10080,note_on,,,,,0,0,1,,,,,0,,,62,30
10080,note_on,,,,,1,0,3,,,,,1,,,68,104
10080,note_on,,,,,31,0,5,,,,,1,,,59,90
10080,note_on,,,,,31,0,2,,,,,0,,,40,98
10080,note_on,,,,,0,0,2,,,,,0,,,52,98
10109,note_on,,,,,0,0,2,,,,,0,,,40,0
10109,note_on,,,,,29,0,1,,,,,0,,,65,0
10109,note_on,,,,,0,0,1,,,,,0,,,62,0
10109,note_on,,,,,0,0,1,,,,,0,,,68,0
10109,note_on,,,,,29,0,2,,,,,0,,,52,0
10140,note_on,,,,,0,0,1,,,,,0,,,77,49
10140,note_on,,,,,31,0,1,,,,,0,,,80,49
10140,note_on,,,,,31,0,2,,,,,0,,,52,44
10140,note_on,,,,,0,0,2,,,,,0,,,40,24
10169,note_on,,,,,0,0,1,,,,,0,,,80,0
10169,note_on,,,,,29,0,2,,,,,0,,,40,0
10169,note_on,,,,,29,0,1,,,,,0,,,77,0
10169,note_on,,,,,0,0,2,,,,,0,,,52,0
10170,note_on,,,,,1,0,1,,,,,0,,,74,55
10193,note_on,,,,,113,0,4,,,,,1,,,62,0
10199,note_on,,,,,119,0,3,,,,,1,,,68,0
10199,note_on,,,,,119,0,5,,,,,1,,,59,0
10199,note_on,,,,,29,0,1,,,,,0,,,74,0
10200,note_on,,,,,0,0,1,,,,,0,,,76,55
10200,note_on,,,,,1,0,1,,,,,0,,,81,62
10200,note_on,,,,,7,0,4,,,,,1,,,64,90
10200,note_on,,,,,0,0,2,,,,,0,,,52,39
10200,note_on,,,,,1,0,3,,,,,1,,,69,78
10200,note_on,,,,,1,0,5,,,,,1,,,60,78
10200,note_on,,,,,31,0,2,,,,,0,,,40,22
10229,note_on,,,,,29,0,2,,,,,0,,,52,0
10229,note_on,,,,,0,0,2,,,,,0,,,40,0
10229,note_on,,,,,149,0,6,,,,,1,,,52,0
10229,note_on,,,,,29,0,1,,,,,0,,,76,0
10229,note_on,,,,,0,0,1,,,,,0,,,81,0
10230,note_on,,,,,1,0,1,,,,,0,,,72,39
10259,note_on,,,,,59,0,5,,,,,1,,,60,0
10259,note_on,,,,,59,0,3,,,,,1,,,69,0
10259,note_on,,,,,29,0,1,,,,,0,,,72,0
10260,note_on,,,,,1,0,5,,,,,1,,,56,90
10260,note_on,,,,,1,0,1,,,,,0,,,83,44
10260,note_on,,,,,0,0,2,,,,,0,,,52,35
10260,note_on,,,,,31,0,6,,,,,1,,,52,78
10260,note_on,,,,,31,0,2,,,,,0,,,40,30
10260,note_on,,,,,0,0,1,,,,,0,,,74,70
10260,note_on,,,,,1,0,3,,,,,1,,,71,78
10274,note_on,,,,,14,0,1,,,,,0,,,74,0
10289,note_on,,,,,29,0,2,,,,,0,,,52,0
10289,note_on,,,,,0,0,2,,,,,0,,,40,0
10289,note_on,,,,,29,0,6,,,,,1,,,52,0
10289,note_on,,,,,15,0,1,,,,,0,,,83,0
10319,note_on,,,,,59,0,5,,,,,1,,,56,0
10319,note_on,,,,,59,0,3,,,,,1,,,71,0
10320,note_on,,,,,0,0,1,,,,,0,,,81,44
10320,note_on,,,,,0,0,2,,,,,0,,,52,39
10320,note_on,,,,,31,0,6,,,,,1,,,52,90
10320,note_on,,,,,1,0,3,,,,,1,,,72,78
10320,note_on,,,,,1,0,5,,,,,1,,,57,78
10320,note_on,,,,,31,0,1,,,,,0,,,84,62
10320,note_on,,,,,31,0,2,,,,,0,,,40,12
10349,note_on,,,,,29,0,1,,,,,0,,,81,0
10349,note_on,,,,,0,0,2,,,,,0,,,40,0
10349,note_on,,,,,0,0,1,,,,,0,,,84,0
10349,note_on,,,,,29,0,2,,,,,0,,,52,0
10350,note_on,,,,,1,0,1,,,,,0,,,72,44
10379,note_on,,,,,29,0,1,,,,,0,,,72,0
10380,note_on,,,,,1,0,1,,,,,0,,,84,55
10380,note_on,,,,,31,0,2,,,,,0,,,40,35
10380,note_on,,,,,0,0,2,,,,,0,,,52,49
10380,note_on,,,,,0,0,1,,,,,0,,,81,49
10409,note_on,,,,,29,0,1,,,,,0,,,81,0
10409,note_on,,,,,0,0,1,,,,,0,,,84,0
10410,note_on,,,,,1,0,1,,,,,0,,,72,39
10424,note_on,,,,,44,0,2,,,,,0,,,52,0
10424,note_on,,,,,0,0,2,,,,,0,,,40,0
10437,note_on,,,,,237,0,4,,,,,1,,,64,0
10439,note_on,,,,,29,0,1,,,,,0,,,72,0
10439,note_on,,,,,119,0,6,,,,,1,,,52,0
10440,note_on,,,,,1,0,6,,,,,1,,,51,90
10440,note_on,,,,,1,0,1,,,,,0,,,84,55
10440,note_on,,,,,3,0,4,,,,,1,,,66,90
10440,note_on,,,,,0,0,2,,,,,0,,,39,62
10440,note_on,,,,,0,0,1,,,,,0,,,81,49
10440,note_on,,,,,16,0,2,,,,,0,,,51,62
10469,note_on,,,,,0,0,2,,,,,0,,,51,0
10469,note_on,,,,,29,0,2,,,,,0,,,39,0
10469,note_on,,,,,29,0,1,,,,,0,,,81,0
10469,note_on,,,,,149,0,3,,,,,1,,,72,0
10469,note_on,,,,,0,0,1,,,,,0,,,84,0
10470,note_on,,,,,1,0,1,,,,,0,,,72,44
10499,note_on,,,,,59,0,6,,,,,1,,,51,0
10499,note_on,,,,,29,0,1,,,,,0,,,72,0
10499,note_on,,,,,179,0,5,,,,,1,,,57,0
10500,note_on,,,,,1,0,1,,,,,0,,,84,62
10500,note_on,,,,,0,0,1,,,,,0,,,81,49
10500,note_on,,,,,31,0,3,,,,,1,,,72,90
10500,note_on,,,,,1,0,5,,,,,1,,,57,78
10500,note_on,,,,,31,0,2,,,,,0,,,39,49
10500,note_on,,,,,0,0,2,,,,,0,,,51,55
10529,note_on,,,,,29,0,1,,,,,0,,,81,0
10529,note_on,,,,,0,0,1,,,,,0,,,84,0
10529,note_on,,,,,29,0,2,,,,,0,,,51,0
10529,note_on,,,,,0,0,2,,,,,0,,,39,0
10530,note_on,,,,,1,0,1,,,,,0,,,72,44
10530,note_on,,,,,31,0,6,,,,,1,,,51,78
10554,note_on,,,,,114,0,4,,,,,1,,,66,0
10559,note_on,,,,,59,0,5,,,,,1,,,57,0
10559,note_on,,,,,59,0,3,,,,,1,,,72,0
10559,note_on,,,,,29,0,6,,,,,1,,,51,0
10559,note_on,,,,,29,0,1,,,,,0,,,72,0
10560,note_on,,,,,6,0,4,,,,,1,,,59,78
10560,note_on,,,,,1,0,1,,,,,0,,,80,78
10560,note_on,,,,,1,0,5,,,,,1,,,56,90
10560,note_on,,,,,0,0,2,,,,,0,,,52,78
10560,note_on,,,,,31,0,2,,,,,0,,,40,62
10560,note_on,,,,,1,0,6,,,,,1,,,52,42
10560,note_on,,,,,1,0,3,,,,,1,,,71,90
10560,note_on,,,,,0,0,1,,,,,0,,,83,62
10589,note_on,,,,,0,0,1,,,,,0,,,80,0
10589,note_on,,,,,29,0,1,,,,,0,,,83,0
10604,note_on,,,,,0,0,2,,,,,0,,,40,0
10604,note_on,,,,,44,0,2,,,,,0,,,52,0
10620,note_on,,,,,31,0,1,,,,,0,,,64,62
10620,note_on,,,,,16,0,2,,,,,0,,,52,49
10649,note_on,,,,,29,0,1,,,,,0,,,64,0
10649,note_on,,,,,29,0,2,,,,,0,,,52,0
10650,note_on,,,,,1,0,1,,,,,0,,,66,70
10650,note_on,,,,,1,0,2,,,,,0,,,54,78
10679,note_on,,,,,29,0,1,,,,,0,,,66,0
10679,note_on,,,,,29,0,2,,,,,0,,,54,0
10679,note_on,,,,,119,0,5,,,,,1,,,56,0
10679,note_on,,,,,119,0,6,,,,,1,,,52,0
10679,note_on,,,,,119,0,3,,,,,1,,,71,0
10680,note_on,,,,,1,0,2,,,,,0,,,56,70
10680,note_on,,,,,1,0,1,,,,,0,,,68,70
10681,note_on,,,,,121,0,4,,,,,1,,,59,0
10709,note_on,,,,,29,0,1,,,,,0,,,68,0
10709,note_on,,,,,29,0,2,,,,,0,,,56,0
10710,note_on,,,,,1,0,1,,,,,0,,,69,55
10710,note_on,,,,,1,0,2,,,,,0,,,57,55
10739,note_on,,,,,29,0,1,,,,,0,,,69,0
10739,note_on,,,,,29,0,2,,,,,0,,,57,0
10740,note_on,,,,,1,0,1,,,,,0,,,71,55
10740,note_on,,,,,1,0,2,,,,,0,,,59,62
10769,note_on,,,,,29,0,2,,,,,0,,,59,0
10769,note_on,,,,,29,0,1,,,,,0,,,71,0
10770,note_on,,,,,1,0,1,,,,,0,,,68,62
10770,note_on,,,,,1,0,2,,,,,0,,,56,70
10784,note_on,,,,,14,0,2,,,,,0,,,56,0
10799,note_on,,,,,29,0,1,,,,,0,,,68,0
10800,note_on,,,,,0,0,2,,,,,0,,,52,55
10800,note_on,,,,,0,0,2,,,,,0,,,59,78
10800,note_on,,,,,1,0,1,,,,,0,,,64,55
10800,note_on,,,,,16,0,2,,,,,0,,,62,70
10829,note_on,,,,,29,0,2,,,,,0,,,52,0
10829,note_on,,,,,29,0,1,,,,,0,,,64,0
10830,note_on,,,,,1,0,1,,,,,0,,,76,70
10859,note_on,,,,,29,0,1,,,,,0,,,76,0
10860,note_on,,,,,31,0,2,,,,,0,,,52,62
10860,note_on,,,,,181,0,5,,,,,1,,,56,90
10860,note_on,,,,,181,0,3,,,,,1,,,76,90
10860,note_on,,,,,181,0,6,,,,,1,,,52,68
10860,note_on,,,,,1,0,1,,,,,0,,,64,62
10889,note_on,,,,,29,0,2,,,,,0,,,52,0
10889,note_on,,,,,29,0,1,,,,,0,,,64,0
10890,note_on,,,,,1,0,1,,,,,0,,,76,70
10919,note_on,,,,,59,0,6,,,,,1,,,52,0
10919,note_on,,,,,59,0,5,,,,,1,,,56,0
10919,note_on,,,,,29,0,1,,,,,0,,,76,0
10920,note_on,,,,,1,0,1,,,,,0,,,66,88
10920,note_on,,,,,1,0,6,,,,,1,,,54,90
10920,note_on,,,,,1,0,5,,,,,1,,,57,78
10920,note_on,,,,,31,0,2,,,,,0,,,54,13
10949,note_on,,,,,29,0,1,,,,,0,,,66,0
10949,note_on,,,,,29,0,2,,,,,0,,,54,0
10950,note_on,,,,,1,0,1,,,,,0,,,76,62
10979,note_on,,,,,59,0,6,,,,,1,,,54,0
10979,note_on,,,,,59,0,5,,,,,1,,,57,0
10979,note_on,,,,,119,0,3,,,,,1,,,76,0
10979,note_on,,,,,29,0,1,,,,,0,,,76,0
10980,note_on,,,,,1,0,6,,,,,1,,,56,78
10980,note_on,,,,,31,0,2,,,,,0,,,56,70
10980,note_on,,,,,1,0,5,,,,,1,,,59,68
10980,note_on,,,,,1,0,1,,,,,0,,,68,70
10980,note_on,,,,,1,0,3,,,,,1,,,76,90
11009,note_on,,,,,29,0,2,,,,,0,,,56,0
11009,note_on,,,,,29,0,1,,,,,0,,,68,0
11009,note_on,,,,,29,0,6,,,,,1,,,56,0
11009,note_on,,,,,0,0,2,,,,,0,,,59,0
11009,note_on,,,,,29,0,5,,,,,1,,,59,0
11010,note_on,,,,,1,0,1,,,,,0,,,76,62
11024,note_on,,,,,15,0,2,,,,,0,,,62,0
11039,note_on,,,,,29,0,1,,,,,0,,,76,0
11039,note_on,,,,,59,0,3,,,,,1,,,76,0
11040,note_on,,,,,1,0,3,,,,,1,,,72,68
11040,note_on,,,,,31,0,5,,,,,1,,,60,68
11040,note_on,,,,,31,0,6,,,,,1,,,57,78
11040,note_on,,,,,0,0,2,,,,,0,,,60,62
11040,note_on,,,,,16,0,2,,,,,0,,,57,62
11040,note_on,,,,,1,0,1,,,,,0,,,69,62
11069,note_on,,,,,29,0,1,,,,,0,,,69,0
11070,note_on,,,,,1,0,1,,,,,0,,,76,55
11084,note_on,,,,,0,0,2,,,,,0,,,57,0
11084,note_on,,,,,44,0,2,,,,,0,,,60,0
11099,note_on,,,,,59,0,5,,,,,1,,,60,0
11099,note_on,,,,,59,0,3,,,,,1,,,72,0
11099,note_on,,,,,59,0,6,,,,,1,,,57,0
11099,note_on,,,,,29,0,1,,,,,0,,,76,0
11100,note_on,,,,,1,0,3,,,,,1,,,69,68
11100,note_on,,,,,16,0,2,,,,,0,,,60,78
11100,note_on,,,,,0,0,2,,,,,0,,,64,70
11100,note_on,,,,,419,0,4,,,,,1,,,69,78
11100,note_on,,,,,1,0,6,,,,,1,,,60,78
11100,note_on,,,,,1,0,5,,,,,1,,,64,78
11100,note_on,,,,,1,0,1,,,,,0,,,72,70
11129,note_on,,,,,29,0,1,,,,,0,,,72,0
11129,note_on,,,,,29,0,2,,,,,0,,,64,0
11129,note_on,,,,,0,0,2,,,,,0,,,60,0
11130,note_on,,,,,1,0,1,,,,,0,,,76,62
11159,note_on,,,,,59,0,6,,,,,1,,,60,0
11159,note_on,,,,,29,0,1,,,,,0,,,76,0
11159,note_on,,,,,59,0,5,,,,,1,,,64,0
11159,note_on,,,,,59,0,3,,,,,1,,,69,0
11160,note_on,,,,,1,0,1,,,,,0,,,71,78
11160,note_on,,,,,1,0,5,,,,,1,,,62,78
11160,note_on,,,,,1,0,3,,,,,1,,,76,78
11160,note_on,,,,,31,0,2,,,,,0,,,68,88
11160,note_on,,,,,0,0,2,,,,,0,,,59,62
11160,note_on,,,,,0,0,2,,,,,0,,,62,70
11160,note_on,,,,,1,0,6,,,,,1,,,59,68
11164,note_on,,,,,64,0,4,,,,,1,,,68,90
11170,note_on,,,,,6,0,4,,,,,1,,,69,0
11174,note_on,,,,,14,0,2,,,,,0,,,62,0
11189,note_on,,,,,15,0,2,,,,,0,,,59,0
11189,note_on,,,,,0,0,2,,,,,0,,,68,0
11189,note_on,,,,,29,0,1,,,,,0,,,71,0
11190,note_on,,,,,1,0,1,,,,,0,,,76,44
11214,note_on,,,,,44,0,4,,,,,1,,,68,0
11219,note_on,,,,,59,0,6,,,,,1,,,59,0
11219,note_on,,,,,59,0,5,,,,,1,,,62,0
11219,note_on,,,,,29,0,1,,,,,0,,,76,0
11220,note_on,,,,,1,0,6,,,,,1,,,57,78
11220,note_on,,,,,0,0,2,,,,,0,,,57,62
11220,note_on,,,,,31,0,2,,,,,0,,,60,70
11220,note_on,,,,,0,0,2,,,,,0,,,64,62
11220,note_on,,,,,1,0,5,,,,,1,,,60,68
11220,note_on,,,,,1,0,1,,,,,0,,,69,70
11221,note_on,,,,,7,0,4,,,,,1,,,69,78
11249,note_on,,,,,0,0,2,,,,,0,,,60,0
11249,note_on,,,,,0,0,2,,,,,0,,,57,0
11249,note_on,,,,,29,0,2,,,,,0,,,64,0
11249,note_on,,,,,29,0,1,,,,,0,,,69,0
11250,note_on,,,,,1,0,1,,,,,0,,,76,49
11279,note_on,,,,,59,0,5,,,,,1,,,60,0
11279,note_on,,,,,29,0,1,,,,,0,,,76,0
11279,note_on,,,,,58,0,4,,,,,1,,,69,0
11279,note_on,,,,,59,0,6,,,,,1,,,57,0
11280,note_on,,,,,1,0,6,,,,,1,,,56,90
11280,note_on,,,,,31,0,2,,,,,0,,,56,78
11280,note_on,,,,,1,0,5,,,,,1,,,59,68
11280,note_on,,,,,1,0,1,,,,,0,,,68,70
11280,note_on,,,,,0,0,2,,,,,0,,,59,62
11280,note_on,,,,,0,0,2,,,,,0,,,62,70
11282,note_on,,,,,3,0,4,,,,,1,,,64,90
11309,note_on,,,,,29,0,2,,,,,0,,,56,0
11309,note_on,,,,,29,0,1,,,,,0,,,68,0
11309,note_on,,,,,149,0,3,,,,,1,,,76,0
11310,note_on,,,,,1,0,1,,,,,0,,,76,62
11339,note_on,,,,,30,0,2,,,,,0,,,59,0
11339,note_on,,,,,59,0,6,,,,,1,,,56,0
11339,note_on,,,,,59,0,5,,,,,1,,,59,0
11339,note_on,,,,,29,0,1,,,,,0,,,76,0
11340,note_on,,,,,31,0,3,,,,,1,,,76,90
11340,note_on,,,,,1,0,6,,,,,1,,,52,68
11340,note_on,,,,,1,0,5,,,,,1,,,56,90
11340,note_on,,,,,1,0,2,,,,,0,,,52,70
11340,note_on,,,,,1,0,1,,,,,0,,,64,70
11369,note_on,,,,,29,0,1,,,,,0,,,64,0
11369,note_on,,,,,29,0,5,,,,,1,,,56,0
11369,note_on,,,,,29,0,3,,,,,1,,,76,0
11370,note_on,,,,,1,0,1,,,,,0,,,76,62
11384,note_on,,,,,44,0,2,,,,,0,,,52,0
11399,note_on,,,,,29,0,1,,,,,0,,,76,0
11399,note_on,,,,,59,0,6,,,,,1,,,52,0
11400,note_on,,,,,1,0,1,,,,,0,,,66,88
11400,note_on,,,,,31,0,5,,,,,1,,,57,78
11400,note_on,,,,,16,0,2,,,,,0,,,54,88
11400,note_on,,,,,31,0,3,,,,,1,,,76,90
11400,note_on,,,,,1,0,6,,,,,1,,,54,90
11414,note_on,,,,,14,0,2,,,,,0,,,54,0
11429,note_on,,,,,29,0,3,,,,,1,,,76,0
11429,note_on,,,,,29,0,1,,,,,0,,,66,0
11430,note_on,,,,,1,0,1,,,,,0,,,76,62
11459,note_on,,,,,29,0,1,,,,,0,,,76,0
11459,note_on,,,,,59,0,5,,,,,1,,,57,0
11459,note_on,,,,,59,0,6,,,,,1,,,54,0
11460,note_on,,,,,46,0,2,,,,,0,,,56,70
11460,note_on,,,,,31,0,3,,,,,1,,,76,78
11460,note_on,,,,,1,0,1,,,,,0,,,68,88
11460,note_on,,,,,1,0,6,,,,,1,,,56,90
11460,note_on,,,,,1,0,5,,,,,1,,,59,78
11474,note_on,,,,,14,0,2,,,,,0,,,62,0
11489,note_on,,,,,15,0,2,,,,,0,,,56,0
11489,note_on,,,,,29,0,1,,,,,0,,,68,0
11490,note_on,,,,,1,0,1,,,,,0,,,76,55
11519,note_on,,,,,59,0,3,,,,,1,,,76,0
11519,note_on,,,,,59,0,5,,,,,1,,,59,0
11519,note_on,,,,,29,0,1,,,,,0,,,76,0
11519,note_on,,,,,59,0,6,,,,,1,,,56,0
11520,note_on,,,,,31,0,2,,,,,0,,,57,70
11520,note_on,,,,,0,0,2,,,,,0,,,60,70
11520,note_on,,,,,1,0,1,,,,,0,,,69,70
11520,note_on,,,,,1,0,6,,,,,1,,,57,78
11520,note_on,,,,,1,0,5,,,,,1,,,60,78
11520,note_on,,,,,1,0,3,,,,,1,,,72,68
11549,note_on,,,,,29,0,2,,,,,0,,,57,0
11549,note_on,,,,,29,0,1,,,,,0,,,69,0
11550,note_on,,,,,1,0,1,,,,,0,,,76,55
11579,note_on,,,,,59,0,3,,,,,1,,,72,0
11579,note_on,,,,,30,0,2,,,,,0,,,60,0
11579,note_on,,,,,29,0,1,,,,,0,,,76,0
11580,note_on,,,,,0,0,2,,,,,0,,,57,70
11580,note_on,,,,,1,0,2,,,,,0,,,48,70
11580,note_on,,,,,1,0,1,,,,,0,,,64,78
11580,note_on,,,,,1,0,3,,,,,1,,,69,78
11609,note_on,,,,,29,0,2,,,,,0,,,48,0
11609,note_on,,,,,29,0,1,,,,,0,,,64,0
11610,note_on,,,,,1,0,1,,,,,0,,,76,62
11624,note_on,,,,,15,0,2,,,,,0,,,57,0
11639,note_on,,,,,29,0,1,,,,,0,,,76,0
11639,note_on,,,,,119,0,5,,,,,1,,,60,0
11639,note_on,,,,,119,0,6,,,,,1,,,57,0
11639,note_on,,,,,59,0,3,,,,,1,,,69,0
11640,note_on,,,,,1,0,5,,,,,1,,,59,78
11640,note_on,,,,,1,0,1,,,,,0,,,71,70
11640,note_on,,,,,1,0,3,,,,,1,,,76,78
11640,note_on,,,,,1,0,6,,,,,1,,,56,90
11640,note_on,,,,,16,0,2,,,,,0,,,56,88
11640,note_on,,,,,0,0,2,,,,,0,,,59,70
11664,note_on,,,,,382,0,4,,,,,1,,,64,0
11669,note_on,,,,,29,0,1,,,,,0,,,71,0
11670,note_on,,,,,1,0,1,,,,,0,,,76,62
11684,note_on,,,,,0,0,2,,,,,0,,,56,0
11684,note_on,,,,,44,0,2,,,,,0,,,59,0
11698,note_on,,,,,34,0,4,,,,,1,,,64,90
11699,note_on,,,,,29,0,1,,,,,0,,,76,0
11700,note_on,,,,,1,0,1,,,,,0,,,68,78
11700,note_on,,,,,0,0,2,,,,,0,,,64,88
11700,note_on,,,,,16,0,2,,,,,0,,,52,70
11729,note_on,,,,,29,0,1,,,,,0,,,68,0
11729,note_on,,,,,29,0,2,,,,,0,,,52,0
11730,note_on,,,,,1,0,1,,,,,0,,,76,70
11735,note_on,,,,,37,0,4,,,,,1,,,64,0
11744,note_on,,,,,15,0,2,,,,,0,,,64,0
11758,note_on,,,,,23,0,4,,,,,1,,,65,90
11759,note_on,,,,,119,0,5,,,,,1,,,59,0
11759,note_on,,,,,29,0,1,,,,,0,,,76,0
11759,note_on,,,,,119,0,6,,,,,1,,,56,0
11760,note_on,,,,,1,0,6,,,,,1,,,57,78
11760,note_on,,,,,1,0,5,,,,,1,,,60,78
11760,note_on,,,,,16,0,2,,,,,0,,,57,55
11760,note_on,,,,,0,0,2,,,,,0,,,64,88
11760,note_on,,,,,0,0,2,,,,,0,,,65,88
11760,note_on,,,,,1,0,1,,,,,0,,,79,62
11789,note_on,,,,,29,0,1,,,,,0,,,79,0
11790,note_on,,,,,1,0,1,,,,,0,,,77,70
11819,note_on,,,,,29,0,1,,,,,0,,,77,0
11820,note_on,,,,,1,0,1,,,,,0,,,86,78
11849,note_on,,,,,0,0,2,,,,,0,,,57,0
11849,note_on,,,,,29,0,1,,,,,0,,,86,0
11849,note_on,,,,,89,0,2,,,,,0,,,64,0
11850,note_on,,,,,1,0,1,,,,,0,,,84,62
11879,note_on,,,,,119,0,5,,,,,1,,,60,0
11879,note_on,,,,,119,0,6,,,,,1,,,57,0
11879,note_on,,,,,29,0,1,,,,,0,,,84,0
11879,note_on,,,,,239,0,3,,,,,1,,,76,0
11880,note_on,,,,,31,0,2,,,,,0,,,62,62
11880,note_on,,,,,1,0,5,,,,,1,,,55,90
11880,note_on,,,,,1,0,6,,,,,1,,,59,78
11880,note_on,,,,,0,0,2,,,,,0,,,59,78
11880,note_on,,,,,1,0,1,,,,,0,,,83,78
11880,note_on,,,,,1,0,3,,,,,1,,,74,90
11909,note_on,,,,,29,0,1,,,,,0,,,83,0
11910,note_on,,,,,1,0,1,,,,,0,,,81,55
11939,note_on,,,,,29,0,1,,,,,0,,,81,0
11940,note_on,,,,,1,0,1,,,,,0,,,79,49
11954,note_on,,,,,0,0,2,,,,,0,,,62,0
11954,note_on,,,,,0,0,2,,,,,0,,,65,0
11954,note_on,,,,,74,0,2,,,,,0,,,59,0
11969,note_on,,,,,29,0,1,,,,,0,,,79,0
11969,note_on,,,,,89,0,5,,,,,1,,,55,0
11970,note_on,,,,,1,0,1,,,,,0,,,77,70
11984,note_on,,,,,14,0,1,,,,,0,,,77,0
11989,note_on,,,,,231,0,4,,,,,1,,,65,0
11994,note_on,,,,,5,0,4,,,,,1,,,64,78
11999,note_on,,,,,119,0,6,,,,,1,,,59,0
12000,note_on,,,,,46,0,2,,,,,0,,,48,78
12000,note_on,,,,,1,0,6,,,,,1,,,60,78
12000,note_on,,,,,16,0,1,,,,,0,,,77,70
12000,note_on,,,,,0,0,2,,,,,0,,,55,88
12000,note_on,,,,,0,0,2,,,,,0,,,62,55
12000,note_on,,,,,31,0,5,,,,,1,,,55,78
12000,note_on,,,,,0,0,2,,,,,0,,,60,70
12014,note_on,,,,,14,0,2,,,,,0,,,60,0
12029,note_on,,,,,29,0,1,,,,,0,,,77,0
12030,note_on,,,,,1,0,1,,,,,0,,,76,55
12059,note_on,,,,,59,0,6,,,,,1,,,60,0
12059,note_on,,,,,179,0,3,,,,,1,,,74,0
12059,note_on,,,,,29,0,1,,,,,0,,,76,0
12060,note_on,,,,,1,0,3,,,,,1,,,67,78
12060,note_on,,,,,1,0,1,,,,,0,,,84,70
12089,note_on,,,,,29,0,1,,,,,0,,,84,0
12089,note_on,,,,,89,0,5,,,,,1,,,55,0
12090,note_on,,,,,1,0,1,,,,,0,,,83,62
12090,note_on,,,,,1,0,5,,,,,1,,,55,90
12090,note_on,,,,,31,0,6,,,,,1,,,60,78
12104,note_on,,,,,90,0,2,,,,,0,,,48,0
12104,note_on,,,,,0,0,2,,,,,0,,,62,0
12119,note_on,,,,,29,0,1,,,,,0,,,83,0
12119,note_on,,,,,29,0,5,,,,,1,,,55,0
12119,note_on,,,,,15,0,2,,,,,0,,,55,0
12119,note_on,,,,,59,0,3,,,,,1,,,67,0
12119,note_on,,,,,29,0,6,,,,,1,,,60,0
12120,note_on,,,,,1,0,2,,,,,0,,,60,78
12120,note_on,,,,,1,0,5,,,,,1,,,55,90
12120,note_on,,,,,1,0,6,,,,,1,,,52,78
12120,note_on,,,,,1,0,3,,,,,1,,,72,78
12120,note_on,,,,,1,0,1,,,,,0,,,81,62
12149,note_on,,,,,29,0,1,,,,,0,,,81,0
12150,note_on,,,,,1,0,1,,,,,0,,,79,62
12179,note_on,,,,,29,0,1,,,,,0,,,79,0
12180,note_on,,,,,60,0,2,,,,,0,,,52,70
12180,note_on,,,,,1,0,1,,,,,0,,,77,55
12209,note_on,,,,,29,0,1,,,,,0,,,77,0
12209,note_on,,,,,29,0,2,,,,,0,,,52,0
12209,note_on,,,,,89,0,5,,,,,1,,,55,0
12210,note_on,,,,,1,0,1,,,,,0,,,76,62
12224,note_on,,,,,15,0,2,,,,,0,,,60,0
12224,note_on,,,,,14,0,1,,,,,0,,,76,0
12235,note_on,,,,,241,0,4,,,,,1,,,64,0
12239,note_on,,,,,119,0,6,,,,,1,,,52,0
12240,note_on,,,,,0,0,2,,,,,0,,,62,88
12240,note_on,,,,,16,0,2,,,,,0,,,54,98
12240,note_on,,,,,5,0,4,,,,,1,,,62,78
12240,note_on,,,,,31,0,5,,,,,1,,,57,78
12240,note_on,,,,,1,0,6,,,,,1,,,54,90
12240,note_on,,,,,0,0,2,,,,,0,,,60,88
12240,note_on,,,,,16,0,1,,,,,0,,,76,62
12269,note_on,,,,,149,0,3,,,,,1,,,72,0
12269,note_on,,,,,29,0,1,,,,,0,,,76,0
12270,note_on,,,,,1,0,1,,,,,0,,,74,55
12299,note_on,,,,,29,0,1,,,,,0,,,74,0
12300,note_on,,,,,31,0,3,,,,,1,,,72,78
12300,note_on,,,,,1,0,1,,,,,0,,,83,70
12329,note_on,,,,,29,0,1,,,,,0,,,83,0
12329,note_on,,,,,89,0,2,,,,,0,,,60,0
12329,note_on,,,,,0,0,2,,,,,0,,,62,0
12329,note_on,,,,,0,0,2,,,,,0,,,54,0
12330,note_on,,,,,1,0,1,,,,,0,,,81,62
12359,note_on,,,,,119,0,6,,,,,1,,,54,0
12359,note_on,,,,,119,0,5,,,,,1,,,57,0
12359,note_on,,,,,59,0,3,,,,,1,,,72,0
12359,note_on,,,,,29,0,1,,,,,0,,,81,0
12360,note_on,,,,,1,0,3,,,,,1,,,71,78
12360,note_on,,,,,1,0,1,,,,,0,,,80,70
12360,note_on,,,,,0,0,2,,,,,0,,,64,70
12360,note_on,,,,,1,0,6,,,,,1,,,56,90
12360,note_on,,,,,0,0,2,,,,,0,,,59,78
12360,note_on,,,,,1,0,5,,,,,1,,,64,78
12360,note_on,,,,,31,0,2,,,,,0,,,56,88
12389,note_on,,,,,29,0,1,,,,,0,,,80,0
12390,note_on,,,,,1,0,1,,,,,0,,,77,70
12395,note_on,,,,,155,0,4,,,,,1,,,62,0
12418,note_on,,,,,23,0,4,,,,,1,,,62,68
12419,note_on,,,,,29,0,1,,,,,0,,,77,0
12420,note_on,,,,,1,0,1,,,,,0,,,76,62
12449,note_on,,,,,0,0,2,,,,,0,,,64,0
12449,note_on,,,,,29,0,1,,,,,0,,,76,0
12449,note_on,,,,,89,0,2,,,,,0,,,59,0
12449,note_on,,,,,89,0,5,,,,,1,,,64,0
12449,note_on,,,,,0,0,2,,,,,0,,,56,0
12450,note_on,,,,,1,0,1,,,,,0,,,74,62
12464,note_on,,,,,14,0,1,,,,,0,,,74,0
12479,note_on,,,,,119,0,3,,,,,1,,,71,0
12479,note_on,,,,,119,0,6,,,,,1,,,56,0
12479,note_on,,,,,61,0,4,,,,,1,,,62,0
12480,note_on,,,,,0,0,2,,,,,0,,,60,78
12480,note_on,,,,,1,0,3,,,,,1,,,69,90
12480,note_on,,,,,31,0,5,,,,,1,,,64,78
12480,note_on,,,,,31,0,2,,,,,0,,,57,78
12480,note_on,,,,,0,0,2,,,,,0,,,64,88
12480,note_on,,,,,1,0,4,,,,,1,,,60,90
12480,note_on,,,,,16,0,1,,,,,0,,,74,70
12480,note_on,,,,,1,0,6,,,,,1,,,57,90
12494,note_on,,,,,14,0,1,,,,,0,,,74,0
12510,note_on,,,,,16,0,1,,,,,0,,,76,62
12539,note_on,,,,,59,0,5,,,,,1,,,64,0
12539,note_on,,,,,59,0,6,,,,,1,,,57,0
12539,note_on,,,,,29,0,1,,,,,0,,,76,0
12540,note_on,,,,,1,0,1,,,,,0,,,81,55
12555,note_on,,,,,75,0,4,,,,,1,,,60,0
12569,note_on,,,,,0,0,2,,,,,0,,,64,0
12569,note_on,,,,,29,0,1,,,,,0,,,81,0
12569,note_on,,,,,0,0,2,,,,,0,,,57,0
12569,note_on,,,,,89,0,3,,,,,1,,,69,0
12569,note_on,,,,,89,0,2,,,,,0,,,60,0
12570,note_on,,,,,1,0,3,,,,,1,,,69,78
12570,note_on,,,,,31,0,5,,,,,1,,,64,78
12570,note_on,,,,,31,0,6,,,,,1,,,57,68
12570,note_on,,,,,1,0,1,,,,,0,,,76,62
12574,note_on,,,,,19,0,4,,,,,1,,,60,78
12599,note_on,,,,,29,0,5,,,,,1,,,64,0
12599,note_on,,,,,29,0,6,,,,,1,,,57,0
12599,note_on,,,,,29,0,3,,,,,1,,,69,0
12599,note_on,,,,,29,0,1,,,,,0,,,76,0
12600,note_on,,,,,1,0,5,,,,,1,,,62,78
12600,note_on,,,,,0,0,2,,,,,0,,,53,88
12600,note_on,,,,,0,0,2,,,,,0,,,50,88
12600,note_on,,,,,31,0,2,,,,,0,,,59,88
12600,note_on,,,,,1,0,6,,,,,1,,,50,78
12600,note_on,,,,,1,0,3,,,,,1,,,71,78
12600,note_on,,,,,1,0,1,,,,,0,,,77,70
12601,note_on,,,,,27,0,4,,,,,1,,,65,90
12604,note_on,,,,,3,0,4,,,,,1,,,60,0
12629,note_on,,,,,29,0,1,,,,,0,,,77,0
12630,note_on,,,,,1,0,1,,,,,0,,,74,70
12659,note_on,,,,,29,0,1,,,,,0,,,74,0
12660,note_on,,,,,1,0,1,,,,,0,,,72,55
12689,note_on,,,,,29,0,1,,,,,0,,,72,0
12689,note_on,,,,,89,0,2,,,,,0,,,53,0
12689,note_on,,,,,0,0,2,,,,,0,,,59,0
12689,note_on,,,,,0,0,2,,,,,0,,,50,0
12690,note_on,,,,,1,0,1,,,,,0,,,71,70
12709,note_on,,,,,105,0,4,,,,,1,,,65,0
12713,note_on,,,,,4,0,4,,,,,1,,,64,90
12719,note_on,,,,,119,0,5,,,,,1,,,62,0
12719,note_on,,,,,29,0,1,,,,,0,,,71,0
12719,note_on,,,,,119,0,6,,,,,1,,,50,0
12719,note_on,,,,,119,0,3,,,,,1,,,71,0
12720,note_on,,,,,1,0,6,,,,,1,,,52,78
12720,note_on,,,,,1,0,3,,,,,1,,,69,90
12720,note_on,,,,,1,0,5,,,,,1,,,60,68
12720,note_on,,,,,31,0,2,,,,,0,,,52,78
12720,note_on,,,,,0,0,2,,,,,0,,,60,78
12720,note_on,,,,,0,0,2,,,,,0,,,57,88
12720,note_on,,,,,1,0,1,,,,,0,,,76,70
12750,note_on,,,,,30,0,1,,,,,0,,,72,55
12764,note_on,,,,,14,0,1,,,,,0,,,76,0
12779,note_on,,,,,15,0,1,,,,,0,,,72,0
12780,note_on,,,,,1,0,1,,,,,0,,,71,70
12809,note_on,,,,,29,0,1,,,,,0,,,71,0
12809,note_on,,,,,89,0,2,,,,,0,,,57,0
12809,note_on,,,,,0,0,2,,,,,0,,,60,0
12809,note_on,,,,,0,0,2,,,,,0,,,52,0
12810,note_on,,,,,1,0,1,,,,,0,,,69,62
12839,note_on,,,,,29,0,1,,,,,0,,,69,0
12839,note_on,,,,,119,0,3,,,,,1,,,69,0
12839,note_on,,,,,119,0,5,,,,,1,,,60,0
12840,note_on,,,,,1,0,1,,,,,0,,,74,70
12840,note_on,,,,,31,0,2,,,,,0,,,56,98
12840,note_on,,,,,0,0,2,,,,,0,,,52,70
12840,note_on,,,,,0,0,2,,,,,0,,,59,70
12840,note_on,,,,,1,0,3,,,,,1,,,68,90
12840,note_on,,,,,1,0,5,,,,,1,,,59,78
12869,note_on,,,,,29,0,1,,,,,0,,,74,0
12870,note_on,,,,,1,0,1,,,,,0,,,71,78
12884,note_on,,,,,44,0,2,,,,,0,,,52,0
12899,note_on,,,,,29,0,1,,,,,0,,,71,0
12899,note_on,,,,,59,0,5,,,,,1,,,59,0
12899,note_on,,,,,179,0,6,,,,,1,,,52,0
12899,note_on,,,,,15,0,2,,,,,0,,,59,0
12899,note_on,,,,,0,0,2,,,,,0,,,56,0
12900,note_on,,,,,1,0,1,,,,,0,,,69,62
12900,note_on,,,,,1,0,2,,,,,0,,,52,70
12921,note_on,,,,,208,0,4,,,,,1,,,64,0
12929,note_on,,,,,89,0,3,,,,,1,,,68,0
12929,note_on,,,,,29,0,1,,,,,0,,,69,0
12929,note_on,,,,,29,0,2,,,,,0,,,52,0
12930,note_on,,,,,31,0,5,,,,,1,,,59,78
12930,note_on,,,,,31,0,6,,,,,1,,,52,78
12930,note_on,,,,,1,0,1,,,,,0,,,68,70
12930,note_on,,,,,1,0,3,,,,,1,,,68,90
12938,note_on,,,,,17,0,4,,,,,1,,,64,78
12944,note_on,,,,,14,0,1,,,,,0,,,68,0
12954,note_on,,,,,16,0,4,,,,,1,,,64,0
12959,note_on,,,,,29,0,6,,,,,1,,,52,0
12959,note_on,,,,,29,0,5,,,,,1,,,59,0
12959,note_on,,,,,29,0,3,,,,,1,,,68,0
12960,note_on,,,,,16,0,1,,,,,0,,,69,70
12960,note_on,,,,,1,0,6,,,,,1,,,45,78
12960,note_on,,,,,31,0,2,,,,,0,,,45,78
12960,note_on,,,,,0,0,2,,,,,0,,,52,88
12960,note_on,,,,,0,0,2,,,,,0,,,60,98
12960,note_on,,,,,1,0,5,,,,,1,,,57,78
12960,note_on,,,,,1,0,3,,,,,1,,,69,78
12961,note_on,,,,,7,0,4,,,,,1,,,64,90
12974,note_on,,,,,14,0,1,,,,,0,,,69,0
12990,note_on,,,,,16,0,1,,,,,0,,,81,70
13019,note_on,,,,,29,0,1,,,,,0,,,81,0
13020,note_on,,,,,1,0,1,,,,,0,,,80,62
13049,note_on,,,,,29,0,1,,,,,0,,,80,0
13049,note_on,,,,,89,0,5,,,,,1,,,57,0
13050,note_on,,,,,1,0,1,,,,,0,,,81,70
13068,note_on,,,,,107,0,4,,,,,1,,,64,0
13079,note_on,,,,,0,0,2,,,,,0,,,52,0
13079,note_on,,,,,0,0,2,,,,,0,,,45,0
13079,note_on,,,,,119,0,3,,,,,1,,,69,0
13079,note_on,,,,,119,0,6,,,,,1,,,45,0
13079,note_on,,,,,119,0,2,,,,,0,,,60,0
13079,note_on,,,,,29,0,1,,,,,0,,,81,0
13080,note_on,,,,,1,0,1,,,,,0,,,83,70
13109,note_on,,,,,29,0,1,,,,,0,,,83,0
13110,note_on,,,,,1,0,1,,,,,0,,,81,62
13139,note_on,,,,,29,0,1,,,,,0,,,81,0
13140,note_on,,,,,1,0,1,,,,,0,,,80,55
13169,note_on,,,,,29,0,1,,,,,0,,,80,0
13170,note_on,,,,,1,0,1,,,,,0,,,81,62
13197,note_on,,,,,129,0,4,,,,,1,,,69,68
13199,note_on,,,,,29,0,1,,,,,0,,,81,0
13200,note_on,,,,,121,0,2,,,,,0,,,72,62
13200,note_on,,,,,0,0,2,,,,,0,,,69,70
13200,note_on,,,,,1,0,1,,,,,0,,,84,70
13200,note_on,,,,,121,0,3,,,,,1,,,72,78
13229,note_on,,,,,29,0,1,,,,,0,,,84,0
13229,note_on,,,,,0,0,2,,,,,0,,,72,0
13229,note_on,,,,,29,0,2,,,,,0,,,69,0
13230,note_on,,,,,1,0,1,,,,,0,,,81,55
13256,note_on,,,,,59,0,4,,,,,1,,,69,0
13256,note_on,,,,,0,0,4,,,,,1,,,67,78
13259,note_on,,,,,29,0,1,,,,,0,,,81,0
13259,note_on,,,,,59,0,3,,,,,1,,,72,0
13260,note_on,,,,,1,0,1,,,,,0,,,79,70
13260,note_on,,,,,0,0,2,,,,,0,,,71,55
13260,note_on,,,,,1,0,3,,,,,1,,,71,68
13260,note_on,,,,,31,0,2,,,,,0,,,67,62
13289,note_on,,,,,29,0,2,,,,,0,,,71,0
13289,note_on,,,,,0,0,2,,,,,0,,,67,0
13289,note_on,,,,,29,0,1,,,,,0,,,79,0
13290,note_on,,,,,1,0,1,,,,,0,,,83,62
13318,note_on,,,,,0,0,4,,,,,1,,,66,78
13318,note_on,,,,,62,0,4,,,,,1,,,67,0
13319,note_on,,,,,29,0,1,,,,,0,,,83,0
13319,note_on,,,,,59,0,3,,,,,1,,,71,0
13320,note_on,,,,,31,0,2,,,,,0,,,66,70
13320,note_on,,,,,0,0,2,,,,,0,,,69,49
13320,note_on,,,,,1,0,1,,,,,0,,,81,55
13320,note_on,,,,,1,0,3,,,,,1,,,69,78
13349,note_on,,,,,29,0,2,,,,,0,,,66,0
13349,note_on,,,,,29,0,1,,,,,0,,,81,0
13350,note_on,,,,,1,0,1,,,,,0,,,78,70
13364,note_on,,,,,15,0,2,,,,,0,,,69,0
13375,note_on,,,,,0,0,4,,,,,1,,,64,68
13375,note_on,,,,,57,0,4,,,,,1,,,66,0
13379,note_on,,,,,59,0,3,,,,,1,,,69,0
13379,note_on,,,,,29,0,1,,,,,0,,,78,0
13380,note_on,,,,,1,0,1,,,,,0,,,76,70
13380,note_on,,,,,0,0,2,,,,,0,,,67,55
13380,note_on,,,,,1,0,3,,,,,1,,,67,68
13380,note_on,,,,,16,0,2,,,,,0,,,64,55
13394,note_on,,,,,0,0,2,,,,,0,,,64,0
13394,note_on,,,,,14,0,2,,,,,0,,,67,0
13409,note_on,,,,,29,0,1,,,,,0,,,76,0
13410,note_on,,,,,1,0,1,,,,,0,,,79,62
13434,note_on,,,,,59,0,4,,,,,1,,,64,0
13439,note_on,,,,,29,0,1,,,,,0,,,79,0
13439,note_on,,,,,5,0,4,,,,,1,,,63,90
13439,note_on,,,,,59,0,3,,,,,1,,,67,0
13440,note_on,,,,,46,0,2,,,,,0,,,66,70
13440,note_on,,,,,361,0,6,,,,,1,,,59,68
13440,note_on,,,,,1,0,3,,,,,1,,,66,90
13440,note_on,,,,,0,0,2,,,,,0,,,69,55
13440,note_on,,,,,1,0,1,,,,,0,,,78,78
13440,note_on,,,,,391,0,5,,,,,1,,,59,78
13440,note_on,,,,,0,0,2,,,,,0,,,59,55
13469,note_on,,,,,29,0,1,,,,,0,,,78,0
13470,note_on,,,,,1,0,1,,,,,0,,,71,62
13499,note_on,,,,,59,0,6,,,,,1,,,59,0
13499,note_on,,,,,0,0,2,,,,,0,,,69,0
13499,note_on,,,,,0,0,2,,,,,0,,,66,0
13499,note_on,,,,,29,0,1,,,,,0,,,71,0
13499,note_on,,,,,59,0,5,,,,,1,,,59,0
13499,note_on,,,,,59,0,2,,,,,0,,,59,0
13500,note_on,,,,,1,0,1,,,,,0,,,81,78
13500,note_on,,,,,1,0,5,,,,,1,,,57,68
13500,note_on,,,,,1,0,2,,,,,0,,,60,62
13500,note_on,,,,,1,0,6,,,,,1,,,60,68
13529,note_on,,,,,29,0,1,,,,,0,,,81,0
13529,note_on,,,,,29,0,2,,,,,0,,,60,0
13530,note_on,,,,,1,0,1,,,,,0,,,69,62
13559,note_on,,,,,59,0,5,,,,,1,,,57,0
13559,note_on,,,,,29,0,1,,,,,0,,,69,0
13559,note_on,,,,,59,0,6,,,,,1,,,60,0
13560,note_on,,,,,1,0,1,,,,,0,,,81,70
13560,note_on,,,,,31,0,2,,,,,0,,,66,78
13560,note_on,,,,,0,0,2,,,,,0,,,63,78
13560,note_on,,,,,1,0,5,,,,,1,,,59,78
13560,note_on,,,,,0,0,2,,,,,0,,,59,49
13560,note_on,,,,,1,0,6,,,,,1,,,59,68
13589,note_on,,,,,29,0,5,,,,,1,,,59,0
13589,note_on,,,,,29,0,1,,,,,0,,,81,0
13590,note_on,,,,,1,0,1,,,,,0,,,78,70
13598,note_on,,,,,159,0,4,,,,,1,,,63,0
13604,note_on,,,,,44,0,2,,,,,0,,,59,0
13616,note_on,,,,,18,0,4,,,,,1,,,64,68
13619,note_on,,,,,15,0,2,,,,,0,,,63,0
13619,note_on,,,,,179,0,3,,,,,1,,,66,0
13619,note_on,,,,,29,0,1,,,,,0,,,78,0
13619,note_on,,,,,59,0,6,,,,,1,,,59,0
13620,note_on,,,,,31,0,5,,,,,1,,,59,68
13620,note_on,,,,,1,0,2,,,,,0,,,59,55
13620,note_on,,,,,1,0,1,,,,,0,,,83,70
13620,note_on,,,,,1,0,3,,,,,1,,,67,78
13620,note_on,,,,,1,0,6,,,,,1,,,57,68
13634,note_on,,,,,14,0,2,,,,,0,,,59,0
13634,note_on,,,,,0,0,2,,,,,0,,,66,0
13649,note_on,,,,,29,0,3,,,,,1,,,67,0
13649,note_on,,,,,33,0,4,,,,,1,,,66,90
13649,note_on,,,,,29,0,5,,,,,1,,,59,0
13650,note_on,,,,,30,0,1,,,,,0,,,71,55
13650,note_on,,,,,1,0,3,,,,,1,,,69,78
13659,note_on,,,,,10,0,4,,,,,1,,,64,0
13664,note_on,,,,,14,0,1,,,,,0,,,83,0
13677,note_on,,,,,18,0,4,,,,,1,,,66,0
13679,note_on,,,,,59,0,6,,,,,1,,,57,0
13679,note_on,,,,,29,0,3,,,,,1,,,69,0
13679,note_on,,,,,15,0,1,,,,,0,,,71,0
13680,note_on,,,,,3,0,4,,,,,1,,,67,90
13680,note_on,,,,,31,0,5,,,,,1,,,59,78
13680,note_on,,,,,1,0,3,,,,,1,,,71,78
13680,note_on,,,,,0,0,1,,,,,0,,,83,78
13680,note_on,,,,,1,0,6,,,,,1,,,55,78
13680,note_on,,,,,1,0,1,,,,,0,,,83,44
13680,note_on,,,,,46,0,2,,,,,0,,,55,62
13680,note_on,,,,,0,0,2,,,,,0,,,59,70
13694,note_on,,,,,14,0,1,,,,,0,,,83,0
13709,note_on,,,,,15,0,1,,,,,0,,,83,0
13710,note_on,,,,,1,0,1,,,,,0,,,81,62
13736,note_on,,,,,56,0,4,,,,,1,,,67,0
13737,note_on,,,,,1,0,4,,,,,1,,,69,78
13739,note_on,,,,,59,0,5,,,,,1,,,59,0
13739,note_on,,,,,29,0,1,,,,,0,,,81,0
13740,note_on,,,,,1,0,1,,,,,0,,,79,62
13740,note_on,,,,,1,0,5,,,,,1,,,66,78
13769,note_on,,,,,89,0,3,,,,,1,,,71,0
13769,note_on,,,,,29,0,1,,,,,0,,,79,0
13770,note_on,,,,,1,0,1,,,,,0,,,81,62
13797,note_on,,,,,60,0,4,,,,,1,,,67,78
13799,note_on,,,,,29,0,1,,,,,0,,,81,0
13799,note_on,,,,,59,0,5,,,,,1,,,66,0
13800,note_on,,,,,1,0,5,,,,,1,,,64,58
13800,note_on,,,,,1,0,1,,,,,0,,,79,55
13802,note_on,,,,,5,0,4,,,,,1,,,69,0
13829,note_on,,,,,29,0,1,,,,,0,,,79,0
13830,note_on,,,,,1,0,1,,,,,0,,,76,70
13859,note_on,,,,,29,0,1,,,,,0,,,76,0
13859,note_on,,,,,0,0,2,,,,,0,,,55,0
13859,note_on,,,,,179,0,2,,,,,0,,,59,0
13859,note_on,,,,,59,0,5,,,,,1,,,64,0
13859,note_on,,,,,179,0,6,,,,,1,,,55,0
13859,note_on,,,,,57,0,4,,,,,1,,,65,90
13860,note_on,,,,,1,0,5,,,,,1,,,62,68
13860,note_on,,,,,1,0,6,,,,,1,,,56,78
13860,note_on,,,,,1,0,2,,,,,0,,,56,78
13860,note_on,,,,,1,0,1,,,,,0,,,74,62
13864,note_on,,,,,5,0,4,,,,,1,,,67,0
13874,note_on,,,,,14,0,2,,,,,0,,,56,0
13889,note_on,,,,,29,0,1,,,,,0,,,74,0
13889,note_on,,,,,29,0,5,,,,,1,,,62,0
13890,note_on,,,,,1,0,1,,,,,0,,,77,62
13915,note_on,,,,,51,0,4,,,,,1,,,65,0
13919,note_on,,,,,29,0,1,,,,,0,,,77,0
13919,note_on,,,,,59,0,6,,,,,1,,,56,0
13919,note_on,,,,,4,0,4,,,,,1,,,64,78
13920,note_on,,,,,0,0,2,,,,,0,,,55,62
13920,note_on,,,,,0,0,2,,,,,0,,,67,70
13920,note_on,,,,,46,0,2,,,,,0,,,64,70
13920,note_on,,,,,1,0,6,,,,,1,,,57,78
13920,note_on,,,,,31,0,5,,,,,1,,,61,78
13920,note_on,,,,,1,0,1,,,,,0,,,76,70
13949,note_on,,,,,29,0,1,,,,,0,,,76,0
13950,note_on,,,,,1,0,1,,,,,0,,,69,62
13979,note_on,,,,,29,0,1,,,,,0,,,69,0
13979,note_on,,,,,59,0,2,,,,,0,,,64,0
13979,note_on,,,,,59,0,6,,,,,1,,,57,0
13980,note_on,,,,,1,0,1,,,,,0,,,79,70
13980,note_on,,,,,1,0,2,,,,,0,,,58,78
13980,note_on,,,,,211,0,3,,,,,1,,,73,90
13980,note_on,,,,,1,0,6,,,,,1,,,58,78
13994,note_on,,,,,0,0,2,,,,,0,,,67,0
13994,note_on,,,,,14,0,2,,,,,0,,,55,0
14009,note_on,,,,,29,0,1,,,,,0,,,79,0
14010,note_on,,,,,1,0,1,,,,,0,,,67,62
14024,note_on,,,,,30,0,2,,,,,0,,,58,0
14039,note_on,,,,,59,0,3,,,,,1,,,73,0
14039,note_on,,,,,59,0,6,,,,,1,,,58,0
14039,note_on,,,,,29,0,1,,,,,0,,,67,0
14040,note_on,,,,,0,0,2,,,,,0,,,64,55
14040,note_on,,,,,1,0,3,,,,,1,,,76,78
14040,note_on,,,,,1,0,1,,,,,0,,,79,70
14040,note_on,,,,,16,0,2,,,,,0,,,61,88
14040,note_on,,,,,0,0,2,,,,,0,,,57,70
14040,note_on,,,,,1,0,6,,,,,1,,,57,68
14069,note_on,,,,,149,0,5,,,,,1,,,61,0
14069,note_on,,,,,29,0,1,,,,,0,,,79,0
14069,note_on,,,,,29,0,2,,,,,0,,,57,0
14070,note_on,,,,,1,0,1,,,,,0,,,76,49
14099,note_on,,,,,59,0,6,,,,,1,,,57,0
14099,note_on,,,,,29,0,1,,,,,0,,,76,0
14099,note_on,,,,,59,0,3,,,,,1,,,76,0
14099,note_on,,,,,0,0,2,,,,,0,,,61,0
14099,note_on,,,,,30,0,2,,,,,0,,,64,0
14100,note_on,,,,,1,0,2,,,,,0,,,55,70
14100,note_on,,,,,1,0,1,,,,,0,,,81,70
14100,note_on,,,,,1,0,6,,,,,1,,,55,68
14100,note_on,,,,,31,0,5,,,,,1,,,62,68
14100,note_on,,,,,1,0,3,,,,,1,,,73,78
14104,note_on,,,,,185,0,4,,,,,1,,,65,78
14109,note_on,,,,,5,0,4,,,,,1,,,64,0
14129,note_on,,,,,29,0,2,,,,,0,,,55,0
14129,note_on,,,,,29,0,5,,,,,1,,,62,0
14130,note_on,,,,,30,0,1,,,,,0,,,69,70
14130,note_on,,,,,1,0,5,,,,,1,,,64,68
14133,note_on,,,,,24,0,4,,,,,1,,,67,68
14142,note_on,,,,,9,0,4,,,,,1,,,65,0
14144,note_on,,,,,14,0,1,,,,,0,,,81,0
14159,note_on,,,,,15,0,1,,,,,0,,,69,0
14159,note_on,,,,,29,0,5,,,,,1,,,64,0
14159,note_on,,,,,59,0,3,,,,,1,,,73,0
14159,note_on,,,,,59,0,6,,,,,1,,,55,0
14160,note_on,,,,,1,0,5,,,,,1,,,65,78
14160,note_on,,,,,31,0,2,,,,,0,,,57,78
14160,note_on,,,,,18,0,4,,,,,1,,,67,0
14160,note_on,,,,,0,0,4,,,,,1,,,69,78
14160,note_on,,,,,1,0,1,,,,,0,,,81,39
14160,note_on,,,,,1,0,3,,,,,1,,,69,90
14160,note_on,,,,,1,0,6,,,,,1,,,53,78
14160,note_on,,,,,0,0,2,,,,,0,,,53,70
14189,note_on,,,,,29,0,1,,,,,0,,,81,0
14190,note_on,,,,,1,0,1,,,,,0,,,77,39
14219,note_on,,,,,59,0,5,,,,,1,,,65,0
14219,note_on,,,,,29,0,1,,,,,0,,,77,0
14220,note_on,,,,,1,0,5,,,,,1,,,64,68
14220,note_on,,,,,1,0,1,,,,,0,,,76,35
14223,note_on,,,,,63,0,4,,,,,1,,,67,78
14229,note_on,,,,,6,0,4,,,,,1,,,69,0
14249,note_on,,,,,89,0,3,,,,,1,,,69,0
14249,note_on,,,,,29,0,1,,,,,0,,,76,0
14250,note_on,,,,,1,0,1,,,,,0,,,79,62
14250,note_on,,,,,1,0,3,,,,,1,,,69,78
14279,note_on,,,,,59,0,5,,,,,1,,,64,0
14279,note_on,,,,,29,0,3,,,,,1,,,69,0
14279,note_on,,,,,29,0,1,,,,,0,,,79,0
14280,note_on,,,,,1,0,1,,,,,0,,,77,62
14280,note_on,,,,,1,0,3,,,,,1,,,69,90
14280,note_on,,,,,51,0,4,,,,,1,,,67,0
14280,note_on,,,,,0,0,4,,,,,1,,,65,78
14280,note_on,,,,,1,0,5,,,,,1,,,62,78
14309,note_on,,,,,29,0,1,,,,,0,,,77,0
14309,note_on,,,,,149,0,2,,,,,0,,,53,0
14310,note_on,,,,,1,0,1,,,,,0,,,74,70
14324,note_on,,,,,15,0,2,,,,,0,,,57,0
14336,note_on,,,,,56,0,4,,,,,1,,,63,78
14339,note_on,,,,,59,0,5,,,,,1,,,62,0
14339,note_on,,,,,29,0,1,,,,,0,,,74,0
14339,note_on,,,,,179,0,6,,,,,1,,,53,0
14340,note_on,,,,,16,0,2,,,,,0,,,54,70
14340,note_on,,,,,1,0,5,,,,,1,,,60,58
14340,note_on,,,,,1,0,6,,,,,1,,,54,90
14340,note_on,,,,,1,0,1,,,,,0,,,72,62
14340,note_on,,,,,4,0,4,,,,,1,,,65,0
14354,note_on,,,,,14,0,2,,,,,0,,,54,0
14369,note_on,,,,,29,0,1,,,,,0,,,72,0
14370,note_on,,,,,1,0,1,,,,,0,,,75,78
14377,note_on,,,,,37,0,4,,,,,1,,,63,0
14395,note_on,,,,,18,0,4,,,,,1,,,62,90
14399,note_on,,,,,119,0,3,,,,,1,,,69,0
14399,note_on,,,,,29,0,1,,,,,0,,,75,0
14399,note_on,,,,,59,0,6,,,,,1,,,54,0
14399,note_on,,,,,59,0,5,,,,,1,,,60,0
14400,note_on,,,,,1,0,6,,,,,1,,,55,68
14400,note_on,,,,,1,0,5,,,,,1,,,59,78
14400,note_on,,,,,46,0,2,,,,,0,,,55,70
14400,note_on,,,,,0,0,2,,,,,0,,,62,78
14400,note_on,,,,,0,0,2,,,,,0,,,65,88
14400,note_on,,,,,1,0,3,,,,,1,,,67,90
14400,note_on,,,,,1,0,1,,,,,0,,,74,78
14429,note_on,,,,,29,0,1,,,,,0,,,74,0
14430,note_on,,,,,1,0,1,,,,,0,,,65,88
14444,note_on,,,,,14,0,1,,,,,0,,,65,0
14444,note_on,,,,,44,0,2,,,,,0,,,55,0
14459,note_on,,,,,59,0,6,,,,,1,,,55,0
14460,note_on,,,,,16,0,2,,,,,0,,,56,70
14460,note_on,,,,,16,0,1,,,,,0,,,77,55
14460,note_on,,,,,1,0,6,,,,,1,,,56,78
14489,note_on,,,,,29,0,2,,,,,0,,,65,0
14489,note_on,,,,,0,0,2,,,,,0,,,62,0
14489,note_on,,,,,89,0,3,,,,,1,,,67,0
14489,note_on,,,,,29,0,1,,,,,0,,,77,0
14490,note_on,,,,,1,0,1,,,,,0,,,65,62
14496,note_on,,,,,101,0,4,,,,,1,,,62,0
14504,note_on,,,,,15,0,2,,,,,0,,,56,0
14504,note_on,,,,,14,0,1,,,,,0,,,65,0
14520,note_on,,,,,16,0,1,,,,,0,,,77,55
14520,note_on,,,,,31,0,3,,,,,1,,,67,90
14520,note_on,,,,,16,0,2,,,,,0,,,55,78
14520,note_on,,,,,0,0,2,,,,,0,,,59,62
14520,note_on,,,,,60,0,6,,,,,1,,,55,58
14520,note_on,,,,,24,0,4,,,,,1,,,62,90
14520,note_on,,,,,0,0,2,,,,,0,,,65,88
14549,note_on,,,,,29,0,1,,,,,0,,,77,0
14549,note_on,,,,,29,0,6,,,,,1,,,56,0
14549,note_on,,,,,149,0,5,,,,,1,,,59,0
14550,note_on,,,,,1,0,1,,,,,0,,,74,70
14556,note_on,,,,,36,0,4,,,,,1,,,62,0
14564,note_on,,,,,44,0,2,,,,,0,,,55,0
14577,note_on,,,,,21,0,4,,,,,1,,,62,78
14579,note_on,,,,,15,0,2,,,,,0,,,59,0
14579,note_on,,,,,0,0,2,,,,,0,,,65,0
14579,note_on,,,,,30,0,6,,,,,1,,,55,0
14579,note_on,,,,,29,0,1,,,,,0,,,74,0
14580,note_on,,,,,1,0,1,,,,,0,,,79,78
14580,note_on,,,,,1,0,6,,,,,1,,,53,68
14580,note_on,,,,,1,0,2,,,,,0,,,53,70
14580,note_on,,,,,31,0,5,,,,,1,,,59,78
14609,note_on,,,,,29,0,1,,,,,0,,,79,0
14609,note_on,,,,,29,0,2,,,,,0,,,53,0
14610,note_on,,,,,1,0,1,,,,,0,,,67,55
14636,note_on,,,,,59,0,4,,,,,1,,,62,0
14639,note_on,,,,,119,0,3,,,,,1,,,67,0
14639,note_on,,,,,59,0,5,,,,,1,,,59,0
14639,note_on,,,,,59,0,6,,,,,1,,,53,0
14639,note_on,,,,,29,0,1,,,,,0,,,67,0
14640,note_on,,,,,1,0,6,,,,,1,,,51,90
14640,note_on,,,,,31,0,2,,,,,0,,,51,78
14640,note_on,,,,,1,0,5,,,,,1,,,60,78
14640,note_on,,,,,0,0,2,,,,,0,,,55,78
14640,note_on,,,,,1,0,3,,,,,1,,,72,90
14640,note_on,,,,,1,0,1,,,,,0,,,79,62
14640,note_on,,,,,0,0,2,,,,,0,,,60,70
14640,note_on,,,,,4,0,4,,,,,1,,,67,78
14669,note_on,,,,,29,0,1,,,,,0,,,79,0
14670,note_on,,,,,1,0,1,,,,,0,,,72,62
14684,note_on,,,,,44,0,2,,,,,0,,,51,0
14697,note_on,,,,,57,0,4,,,,,1,,,68,90
14699,note_on,,,,,59,0,6,,,,,1,,,51,0
14699,note_on,,,,,15,0,2,,,,,0,,,55,0
14699,note_on,,,,,29,0,1,,,,,0,,,72,0
14700,note_on,,,,,1,0,2,,,,,0,,,56,70
14700,note_on,,,,,1,0,6,,,,,1,,,53,68
14700,note_on,,,,,1,0,1,,,,,0,,,80,98
14700,note_on,,,,,0,0,2,,,,,0,,,53,70
14705,note_on,,,,,8,0,4,,,,,1,,,67,0
14729,note_on,,,,,89,0,3,,,,,1,,,72,0
14729,note_on,,,,,29,0,1,,,,,0,,,80,0
14730,note_on,,,,,1,0,1,,,,,0,,,72,62
14744,note_on,,,,,44,0,2,,,,,0,,,53,0
14744,note_on,,,,,0,0,2,,,,,0,,,56,0
14750,note_on,,,,,45,0,4,,,,,1,,,68,0
14757,note_on,,,,,7,0,4,,,,,1,,,67,78
14759,note_on,,,,,119,0,5,,,,,1,,,60,0
14759,note_on,,,,,59,0,6,,,,,1,,,53,0
14759,note_on,,,,,29,0,1,,,,,0,,,72,0
14760,note_on,,,,,31,0,3,,,,,1,,,72,78
14760,note_on,,,,,1,0,6,,,,,1,,,51,78
14760,note_on,,,,,16,0,2,,,,,0,,,51,62
14760,note_on,,,,,0,0,2,,,,,0,,,55,62
14760,note_on,,,,,1,0,1,,,,,0,,,79,78
14760,note_on,,,,,1,0,5,,,,,1,,,55,78
14789,note_on,,,,,29,0,1,,,,,0,,,79,0
14789,note_on,,,,,29,0,5,,,,,1,,,55,0
14789,note_on,,,,,0,0,2,,,,,0,,,51,0
14789,note_on,,,,,29,0,2,,,,,0,,,55,0
14790,note_on,,,,,1,0,1,,,,,0,,,72,44
14816,note_on,,,,,59,0,4,,,,,1,,,65,78
14818,note_on,,,,,2,0,4,,,,,1,,,67,0
14819,note_on,,,,,59,0,6,,,,,1,,,51,0
14819,note_on,,,,,59,0,3,,,,,1,,,72,0
14819,note_on,,,,,29,0,1,,,,,0,,,72,0
14820,note_on,,,,,1,0,3,,,,,1,,,74,68
14820,note_on,,,,,1,0,6,,,,,1,,,50,68
14820,note_on,,,,,31,0,2,,,,,0,,,53,78
14820,note_on,,,,,1,0,1,,,,,0,,,77,70
14820,note_on,,,,,31,0,5,,,,,1,,,55,78
14820,note_on,,,,,0,0,2,,,,,0,,,50,62
14834,note_on,,,,,14,0,2,,,,,0,,,60,0
14849,note_on,,,,,15,0,2,,,,,0,,,50,0
14849,note_on,,,,,29,0,1,,,,,0,,,77,0
14849,note_on,,,,,0,0,2,,,,,0,,,53,0
14849,note_on,,,,,29,0,5,,,,,1,,,55,0
14850,note_on,,,,,1,0,1,,,,,0,,,72,49
14874,note_on,,,,,56,0,4,,,,,1,,,65,0
14877,note_on,,,,,3,0,4,,,,,1,,,63,90
14879,note_on,,,,,29,0,1,,,,,0,,,72,0
14879,note_on,,,,,59,0,6,,,,,1,,,50,0
14879,note_on,,,,,59,0,3,,,,,1,,,74,0
14880,note_on,,,,,31,0,5,,,,,1,,,55,90
14880,note_on,,,,,1,0,6,,,,,1,,,48,78
14880,note_on,,,,,0,0,2,,,,,0,,,48,62
14880,note_on,,,,,1,0,3,,,,,1,,,75,90
14880,note_on,,,,,31,0,2,,,,,0,,,55,70
14880,note_on,,,,,1,0,1,,,,,0,,,75,88
14909,note_on,,,,,29,0,1,,,,,0,,,75,0
14910,note_on,,,,,1,0,1,,,,,0,,,67,62
14939,note_on,,,,,59,0,2,,,,,0,,,48,0
14939,note_on,,,,,29,0,1,,,,,0,,,67,0
14939,note_on,,,,,59,0,3,,,,,1,,,75,0
14939,note_on,,,,,59,0,6,,,,,1,,,48,0
14940,note_on,,,,,1,0,1,,,,,0,,,77,78
14940,note_on,,,,,1,0,2,,,,,0,,,50,55
14940,note_on,,,,,1,0,3,,,,,1,,,77,68
14940,note_on,,,,,63,0,4,,,,,1,,,62,78
14940,note_on,,,,,1,0,6,,,,,1,,,50,78
14942,note_on,,,,,2,0,4,,,,,1,,,63,0
14969,note_on,,,,,29,0,1,,,,,0,,,77,0
14969,note_on,,,,,89,0,5,,,,,1,,,55,0
14970,note_on,,,,,1,0,1,,,,,0,,,67,55
14997,note_on,,,,,55,0,4,,,,,1,,,63,78
14999,note_on,,,,,59,0,3,,,,,1,,,77,0
14999,note_on,,,,,59,0,2,,,,,0,,,50,0
14999,note_on,,,,,59,0,6,,,,,1,,,50,0
14999,note_on,,,,,29,0,1,,,,,0,,,67,0
15000,note_on,,,,,1,0,2,,,,,0,,,48,55
15000,note_on,,,,,1,0,6,,,,,1,,,48,58
15000,note_on,,,,,31,0,5,,,,,1,,,55,78
15000,note_on,,,,,1,0,1,,,,,0,,,75,78
15000,note_on,,,,,1,0,3,,,,,1,,,75,90
15001,note_on,,,,,4,0,4,,,,,1,,,62,0
15029,note_on,,,,,29,0,1,,,,,0,,,75,0
15030,note_on,,,,,1,0,1,,,,,0,,,67,70
15051,note_on,,,,,50,0,4,,,,,1,,,63,0
15053,note_on,,,,,2,0,4,,,,,1,,,67,68
15059,note_on,,,,,59,0,6,,,,,1,,,48,0
15059,note_on,,,,,59,0,2,,,,,0,,,48,0
15059,note_on,,,,,59,0,3,,,,,1,,,75,0
15059,note_on,,,,,29,0,1,,,,,0,,,67,0
15060,note_on,,,,,1,0,6,,,,,1,,,46,78
15060,note_on,,,,,1,0,3,,,,,1,,,74,78
15060,note_on,,,,,1,0,2,,,,,0,,,46,62
15060,note_on,,,,,1,0,1,,,,,0,,,74,78
15089,note_on,,,,,29,0,1,,,,,0,,,74,0
15089,note_on,,,,,36,0,4,,,,,1,,,67,0
15089,note_on,,,,,89,0,5,,,,,1,,,55,0
15090,note_on,,,,,1,0,1,,,,,0,,,67,70
15113,note_on,,,,,24,0,4,,,,,1,,,67,78
15119,note_on,,,,,59,0,3,,,,,1,,,74,0
15119,note_on,,,,,29,0,1,,,,,0,,,67,0
15119,note_on,,,,,59,0,6,,,,,1,,,46,0
15119,note_on,,,,,59,0,2,,,,,0,,,46,0
15120,note_on,,,,,1,0,2,,,,,0,,,44,78
15120,note_on,,,,,31,0,5,,,,,1,,,60,78
15120,note_on,,,,,1,0,6,,,,,1,,,44,90
15120,note_on,,,,,1,0,1,,,,,0,,,72,70
15120,note_on,,,,,1,0,3,,,,,1,,,72,78
15149,note_on,,,,,29,0,1,,,,,0,,,72,0
15150,note_on,,,,,1,0,1,,,,,0,,,60,78
15164,note_on,,,,,44,0,2,,,,,0,,,44,0
15179,note_on,,,,,29,0,1,,,,,0,,,60,0
15180,note_on,,,,,1,0,1,,,,,0,,,72,70
15180,note_on,,,,,16,0,2,,,,,0,,,44,70
15209,note_on,,,,,29,0,1,,,,,0,,,72,0
15210,note_on,,,,,1,0,1,,,,,0,,,60,62
15224,note_on,,,,,44,0,2,,,,,0,,,44,0
15239,note_on,,,,,15,0,2,,,,,0,,,55,0
15239,note_on,,,,,126,0,4,,,,,1,,,66,90
15239,note_on,,,,,29,0,1,,,,,0,,,60,0
15240,note_on,,,,,1,0,1,,,,,0,,,72,78
15240,note_on,,,,,1,0,2,,,,,0,,,44,78
15240,note_on,,,,,0,0,2,,,,,0,,,54,98
15243,note_on,,,,,4,0,4,,,,,1,,,67,0
15269,note_on,,,,,29,0,1,,,,,0,,,72,0
15269,note_on,,,,,29,0,2,,,,,0,,,44,0
15270,note_on,,,,,1,0,1,,,,,0,,,66,62
15299,note_on,,,,,29,0,1,,,,,0,,,66,0
15300,note_on,,,,,31,0,2,,,,,0,,,44,78
15300,note_on,,,,,1,0,1,,,,,0,,,78,88
15300,note_on,,,,,0,0,1,,,,,0,,,72,55
15329,note_on,,,,,29,0,1,,,,,0,,,72,0
15329,note_on,,,,,29,0,2,,,,,0,,,44,0
15330,note_on,,,,,1,0,1,,,,,0,,,66,78
15344,note_on,,,,,0,0,1,,,,,0,,,78,0
15344,note_on,,,,,14,0,1,,,,,0,,,66,0
15344,note_on,,,,,15,0,2,,,,,0,,,54,0
15349,note_on,,,,,106,0,4,,,,,1,,,66,0
15356,note_on,,,,,7,0,4,,,,,1,,,67,78
15359,note_on,,,,,239,0,6,,,,,1,,,44,0
15359,note_on,,,,,239,0,3,,,,,1,,,72,0
15359,note_on,,,,,239,0,5,,,,,1,,,60,0
15360,note_on,,,,,0,0,2,,,,,0,,,55,78
15360,note_on,,,,,16,0,2,,,,,0,,,43,62
15360,note_on,,,,,1,0,6,,,,,1,,,43,90
15360,note_on,,,,,1,0,3,,,,,1,,,71,78
15360,note_on,,,,,1,0,5,,,,,1,,,62,90
15360,note_on,,,,,16,0,1,,,,,0,,,79,70
15360,note_on,,,,,0,0,1,,,,,0,,,71,55
15389,note_on,,,,,29,0,1,,,,,0,,,71,0
15389,note_on,,,,,0,0,1,,,,,0,,,79,0
15390,note_on,,,,,1,0,1,,,,,0,,,67,70
15419,note_on,,,,,29,0,1,,,,,0,,,67,0
15420,note_on,,,,,1,0,1,,,,,0,,,66,88
15449,note_on,,,,,29,0,1,,,,,0,,,66,0
15449,note_on,,,,,89,0,5,,,,,1,,,62,0
15450,note_on,,,,,1,0,1,,,,,0,,,67,62
15464,note_on,,,,,0,0,2,,,,,0,,,43,0
15464,note_on,,,,,104,0,2,,,,,0,,,55,0
15465,note_on,,,,,109,0,4,,,,,1,,,67,0
15479,note_on,,,,,119,0,6,,,,,1,,,43,0
15479,note_on,,,,,29,0,1,,,,,0,,,67,0
15479,note_on,,,,,119,0,3,,,,,1,,,71,0
15480,note_on,,,,,1,0,1,,,,,0,,,69,70
15480,note_on,,,,,16,0,2,,,,,0,,,55,88
15509,note_on,,,,,29,0,1,,,,,0,,,69,0
15510,note_on,,,,,1,0,1,,,,,0,,,67,70
15539,note_on,,,,,29,0,1,,,,,0,,,67,0
15540,note_on,,,,,1,0,1,,,,,0,,,66,88
15554,note_on,,,,,74,0,2,,,,,0,,,55,0
15569,note_on,,,,,29,0,1,,,,,0,,,66,0
15570,note_on,,,,,16,0,2,,,,,0,,,55,98
15570,note_on,,,,,1,0,1,,,,,0,,,67,88
15599,note_on,,,,,29,0,2,,,,,0,,,55,0
15599,note_on,,,,,29,0,1,,,,,0,,,67,0
15600,note_on,,,,,1,0,1,,,,,0,,,55,88
15600,note_on,,,,,1,0,2,,,,,0,,,43,88
15629,note_on,,,,,29,0,1,,,,,0,,,55,0
15630,note_on,,,,,1,0,1,,,,,0,,,67,70
15644,note_on,,,,,44,0,2,,,,,0,,,43,0
15659,note_on,,,,,29,0,1,,,,,0,,,67,0
15660,note_on,,,,,16,0,2,,,,,0,,,45,88
15660,note_on,,,,,1,0,1,,,,,0,,,57,78
15689,note_on,,,,,29,0,1,,,,,0,,,57,0
15689,note_on,,,,,29,0,2,,,,,0,,,45,0
15690,note_on,,,,,1,0,1,,,,,0,,,67,62
15719,note_on,,,,,29,0,1,,,,,0,,,67,0
15720,note_on,,,,,1,0,1,,,,,0,,,59,70
15720,note_on,,,,,31,0,2,,,,,0,,,47,88
15749,note_on,,,,,29,0,1,,,,,0,,,59,0
15750,note_on,,,,,1,0,1,,,,,0,,,67,62
15764,note_on,,,,,44,0,2,,,,,0,,,47,0
15779,note_on,,,,,29,0,1,,,,,0,,,67,0
15780,note_on,,,,,1,0,1,,,,,0,,,60,62
15780,note_on,,,,,16,0,2,,,,,0,,,48,88
15809,note_on,,,,,29,0,1,,,,,0,,,60,0
15810,note_on,,,,,1,0,1,,,,,0,,,67,55
15824,note_on,,,,,44,0,2,,,,,0,,,48,0
15839,note_on,,,,,29,0,1,,,,,0,,,67,0
15840,note_on,,,,,0,0,2,,,,,0,,,55,88
15840,note_on,,,,,1,0,1,,,,,0,,,62,78
15840,note_on,,,,,16,0,2,,,,,0,,,50,78
15854,note_on,,,,,14,0,1,,,,,0,,,62,0
15870,note_on,,,,,16,0,1,,,,,0,,,67,78
15899,note_on,,,,,29,0,1,,,,,0,,,67,0
15900,note_on,,,,,1,0,1,,,,,0,,,66,88
15929,note_on,,,,,29,0,1,,,,,0,,,66,0
15930,note_on,,,,,1,0,1,,,,,0,,,67,70
15959,note_on,,,,,0,0,2,,,,,0,,,50,0
15959,note_on,,,,,29,0,1,,,,,0,,,67,0
15959,note_on,,,,,119,0,2,,,,,0,,,55,0
15960,note_on,,,,,1,0,1,,,,,0,,,69,70
15989,note_on,,,,,29,0,1,,,,,0,,,69,0
15990,note_on,,,,,1,0,1,,,,,0,,,67,62
16019,note_on,,,,,29,0,1,,,,,0,,,67,0
16020,note_on,,,,,1,0,1,,,,,0,,,66,98
16049,note_on,,,,,29,0,1,,,,,0,,,66,0
16050,note_on,,,,,1,0,1,,,,,0,,,67,70
16079,note_on,,,,,29,0,1,,,,,0,,,67,0
16080,note_on,,,,,1,0,1,,,,,0,,,59,78
16080,note_on,,,,,121,0,2,,,,,0,,,47,88
16094,note_on,,,,,14,0,2,,,,,0,,,47,0
16109,note_on,,,,,29,0,1,,,,,0,,,59,0
16110,note_on,,,,,1,0,1,,,,,0,,,67,78
16139,note_on,,,,,29,0,1,,,,,0,,,67,0
16140,note_on,,,,,46,0,2,,,,,0,,,48,78
16140,note_on,,,,,1,0,1,,,,,0,,,60,70
16169,note_on,,,,,29,0,1,,,,,0,,,60,0
16169,note_on,,,,,29,0,2,,,,,0,,,48,0
16170,note_on,,,,,1,0,1,,,,,0,,,67,70
16199,note_on,,,,,29,0,1,,,,,0,,,67,0
16200,note_on,,,,,31,0,2,,,,,0,,,50,78
16200,note_on,,,,,1,0,1,,,,,0,,,62,78
16229,note_on,,,,,29,0,1,,,,,0,,,62,0
16229,note_on,,,,,29,0,2,,,,,0,,,50,0
16230,note_on,,,,,1,0,1,,,,,0,,,67,62
16259,note_on,,,,,29,0,1,,,,,0,,,67,0
16260,note_on,,,,,1,0,1,,,,,0,,,64,62
16260,note_on,,,,,31,0,2,,,,,0,,,52,78
16289,note_on,,,,,29,0,2,,,,,0,,,52,0
16289,note_on,,,,,29,0,1,,,,,0,,,64,0
16290,note_on,,,,,1,0,1,,,,,0,,,67,62
16319,note_on,,,,,29,0,1,,,,,0,,,67,0
16320,note_on,,,,,31,0,2,,,,,0,,,53,88
16320,note_on,,,,,1,0,1,,,,,0,,,65,70
16349,note_on,,,,,29,0,1,,,,,0,,,65,0
16350,note_on,,,,,1,0,1,,,,,0,,,67,62
16364,note_on,,,,,44,0,2,,,,,0,,,53,0
16379,note_on,,,,,29,0,1,,,,,0,,,67,0
16380,note_on,,,,,16,0,2,,,,,0,,,52,88
16380,note_on,,,,,1,0,1,,,,,0,,,64,78
16409,note_on,,,,,29,0,1,,,,,0,,,64,0
16409,note_on,,,,,29,0,2,,,,,0,,,52,0
16410,note_on,,,,,1,0,1,,,,,0,,,65,88
16439,note_on,,,,,29,0,1,,,,,0,,,65,0
16440,note_on,,,,,31,0,2,,,,,0,,,50,70
16440,note_on,,,,,1,0,1,,,,,0,,,62,78
16469,note_on,,,,,29,0,1,,,,,0,,,62,0
16469,note_on,,,,,29,0,2,,,,,0,,,50,0
16470,note_on,,,,,1,0,1,,,,,0,,,65,70
16499,note_on,,,,,29,0,1,,,,,0,,,65,0
16500,note_on,,,,,1,0,1,,,,,0,,,64,62
16500,note_on,,,,,31,0,2,,,,,0,,,52,78
16529,note_on,,,,,29,0,2,,,,,0,,,52,0
16529,note_on,,,,,29,0,1,,,,,0,,,64,0
16530,note_on,,,,,1,0,1,,,,,0,,,67,70
16559,note_on,,,,,29,0,1,,,,,0,,,67,0
16560,note_on,,,,,31,0,2,,,,,0,,,53,78
16560,note_on,,,,,1,0,1,,,,,0,,,65,88
16589,note_on,,,,,29,0,1,,,,,0,,,65,0
16589,note_on,,,,,29,0,2,,,,,0,,,53,0
16590,note_on,,,,,1,0,1,,,,,0,,,69,62
16619,note_on,,,,,29,0,1,,,,,0,,,69,0
16620,note_on,,,,,1,0,1,,,,,0,,,67,62
16620,note_on,,,,,31,0,2,,,,,0,,,55,88
16649,note_on,,,,,29,0,1,,,,,0,,,67,0
16649,note_on,,,,,29,0,2,,,,,0,,,55,0
16650,note_on,,,,,1,0,1,,,,,0,,,71,70
16679,note_on,,,,,29,0,1,,,,,0,,,71,0
16680,note_on,,,,,1,0,1,,,,,0,,,69,70
16680,note_on,,,,,31,0,2,,,,,0,,,57,88
16709,note_on,,,,,29,0,1,,,,,0,,,69,0
16710,note_on,,,,,1,0,1,,,,,0,,,72,62
16724,note_on,,,,,44,0,2,,,,,0,,,57,0
16739,note_on,,,,,29,0,1,,,,,0,,,72,0
16740,note_on,,,,,1,0,1,,,,,0,,,71,62
16740,note_on,,,,,16,0,2,,,,,0,,,59,88
16769,note_on,,,,,29,0,1,,,,,0,,,71,0
16769,note_on,,,,,29,0,2,,,,,0,,,59,0
16770,note_on,,,,,1,0,1,,,,,0,,,74,70
16798,note_on,,,,,1333,0,4,,,,,1,,,60,90
16799,note_on,,,,,29,0,1,,,,,0,,,74,0
16800,note_on,,,,,31,0,2,,,,,0,,,60,98
16800,note_on,,,,,1351,0,5,,,,,1,,,60,90
16800,note_on,,,,,1321,0,6,,,,,1,,,48,90
16800,note_on,,,,,1321,0,3,,,,,1,,,72,90
16800,note_on,,,,,1,0,1,,,,,0,,,72,70
16800,note_on,,,,,0,0,2,,,,,0,,,52,98
16800,note_on,,,,,0,0,2,,,,,0,,,48,88
16814,note_on,,,,,14,0,1,,,,,0,,,72,0
16830,note_on,,,,,16,0,1,,,,,0,,,72,78
16859,note_on,,,,,29,0,1,,,,,0,,,72,0
16860,note_on,,,,,1,0,1,,,,,0,,,71,78
16889,note_on,,,,,29,0,1,,,,,0,,,71,0
16890,note_on,,,,,1,0,1,,,,,0,,,72,78
16919,note_on,,,,,29,0,1,,,,,0,,,72,0
16920,note_on,,,,,1,0,1,,,,,0,,,74,70
16934,note_on,,,,,0,0,2,,,,,0,,,60,0
16934,note_on,,,,,134,0,2,,,,,0,,,52,0
16934,note_on,,,,,0,0,2,,,,,0,,,48,0
16949,note_on,,,,,29,0,1,,,,,0,,,74,0
16949,note_on,,,,,149,0,5,,,,,1,,,60,0
16950,note_on,,,,,1,0,1,,,,,0,,,72,62
16979,note_on,,,,,29,0,1,,,,,0,,,72,0
16980,note_on,,,,,31,0,5,,,,,1,,,60,78
16980,note_on,,,,,1,0,1,,,,,0,,,71,70
16993,note_on,,,,,195,0,4,,,,,1,,,60,0
17009,note_on,,,,,209,0,3,,,,,1,,,72,0
17009,note_on,,,,,209,0,6,,,,,1,,,48,0
17009,note_on,,,,,29,0,5,,,,,1,,,60,0
17009,note_on,,,,,29,0,1,,,,,0,,,71,0
17010,note_on,,,,,1,0,3,,,,,1,,,72,90
17010,note_on,,,,,1,0,6,,,,,1,,,48,78
17010,note_on,,,,,1,0,1,,,,,0,,,72,70
17011,note_on,,,,,18,0,4,,,,,1,,,60,78
17039,note_on,,,,,29,0,3,,,,,1,,,72,0
17039,note_on,,,,,29,0,6,,,,,1,,,48,0
17039,note_on,,,,,29,0,1,,,,,0,,,72,0
17040,note_on,,,,,1,0,3,,,,,1,,,72,78
17040,note_on,,,,,106,0,2,,,,,0,,,36,110
17040,note_on,,,,,1,0,1,,,,,0,,,60,70
17040,note_on,,,,,31,0,5,,,,,1,,,60,90
17040,note_on,,,,,1,0,6,,,,,1,,,48,78
17040,note_on,,,,,0,0,2,,,,,0,,,48,110
17069,note_on,,,,,0,0,2,,,,,0,,,36,0
17069,note_on,,,,,29,0,2,,,,,0,,,48,0
17069,note_on,,,,,29,0,1,,,,,0,,,60,0
17070,note_on,,,,,1,0,1,,,,,0,,,72,70
17099,note_on,,,,,29,0,1,,,,,0,,,72,0
17100,note_on,,,,,1,0,1,,,,,0,,,62,70
17100,note_on,,,,,0,0,2,,,,,0,,,50,98
17100,note_on,,,,,31,0,2,,,,,0,,,38,88
17129,note_on,,,,,89,0,3,,,,,1,,,72,0
17129,note_on,,,,,89,0,6,,,,,1,,,48,0
17129,note_on,,,,,0,0,2,,,,,0,,,38,0
17129,note_on,,,,,89,0,5,,,,,1,,,60,0
17129,note_on,,,,,29,0,1,,,,,0,,,62,0
17129,note_on,,,,,29,0,2,,,,,0,,,50,0
17130,note_on,,,,,1,0,1,,,,,0,,,72,62
17133,note_on,,,,,122,0,4,,,,,1,,,60,0
17156,note_on,,,,,23,0,4,,,,,1,,,60,90
17159,note_on,,,,,29,0,1,,,,,0,,,72,0
17160,note_on,,,,,31,0,6,,,,,1,,,48,90
17160,note_on,,,,,0,0,2,,,,,0,,,52,98
17160,note_on,,,,,1,0,1,,,,,0,,,64,78
17160,note_on,,,,,31,0,3,,,,,1,,,72,90
17160,note_on,,,,,31,0,2,,,,,0,,,40,98
17160,note_on,,,,,31,0,5,,,,,1,,,60,90
17189,note_on,,,,,29,0,1,,,,,0,,,64,0
17189,note_on,,,,,29,0,2,,,,,0,,,52,0
17189,note_on,,,,,0,0,2,,,,,0,,,40,0
17190,note_on,,,,,1,0,1,,,,,0,,,72,70
17219,note_on,,,,,29,0,1,,,,,0,,,72,0
17220,note_on,,,,,1,0,1,,,,,0,,,65,78
17220,note_on,,,,,31,0,2,,,,,0,,,53,88
17220,note_on,,,,,0,0,2,,,,,0,,,41,78
17249,note_on,,,,,89,0,3,,,,,1,,,72,0
17249,note_on,,,,,29,0,1,,,,,0,,,65,0
17249,note_on,,,,,29,0,2,,,,,0,,,41,0
17249,note_on,,,,,0,0,2,,,,,0,,,53,0
17249,note_on,,,,,89,0,6,,,,,1,,,48,0
17249,note_on,,,,,89,0,5,,,,,1,,,60,0
17250,note_on,,,,,1,0,1,,,,,0,,,72,70
17254,note_on,,,,,98,0,4,,,,,1,,,60,0
17279,note_on,,,,,29,0,1,,,,,0,,,72,0
17280,note_on,,,,,31,0,5,,,,,1,,,60,90
17280,note_on,,,,,31,0,2,,,,,0,,,48,98
17280,note_on,,,,,0,0,2,,,,,0,,,55,98
17280,note_on,,,,,0,0,2,,,,,0,,,43,88
17280,note_on,,,,,31,0,6,,,,,1,,,48,90
17280,note_on,,,,,1,0,1,,,,,0,,,67,70
17280,note_on,,,,,31,0,3,,,,,1,,,72,90
17280,note_on,,,,,26,0,4,,,,,1,,,60,90
17309,note_on,,,,,29,0,1,,,,,0,,,67,0
17310,note_on,,,,,1,0,1,,,,,0,,,72,62
17339,note_on,,,,,29,0,1,,,,,0,,,72,0
17340,note_on,,,,,1,0,1,,,,,0,,,71,70
17369,note_on,,,,,29,0,1,,,,,0,,,71,0
17370,note_on,,,,,1,0,1,,,,,0,,,72,70
17399,note_on,,,,,29,0,1,,,,,0,,,72,0
17400,note_on,,,,,1,0,1,,,,,0,,,74,70
17414,note_on,,,,,134,0,2,,,,,0,,,43,0
17414,note_on,,,,,0,0,2,,,,,0,,,48,0
17414,note_on,,,,,0,0,2,,,,,0,,,55,0
17429,note_on,,,,,29,0,1,,,,,0,,,74,0
17430,note_on,,,,,1,0,1,,,,,0,,,72,55
17459,note_on,,,,,29,0,1,,,,,0,,,72,0
17460,note_on,,,,,1,0,1,,,,,0,,,71,70
17489,note_on,,,,,209,0,3,,,,,1,,,72,0
17489,note_on,,,,,209,0,5,,,,,1,,,60,0
17489,note_on,,,,,209,0,6,,,,,1,,,48,0
17489,note_on,,,,,29,0,1,,,,,0,,,71,0
17490,note_on,,,,,1,0,1,,,,,0,,,72,70
17492,note_on,,,,,212,0,4,,,,,1,,,60,0
17516,note_on,,,,,24,0,4,,,,,1,,,60,90
17519,note_on,,,,,29,0,1,,,,,0,,,72,0
17520,note_on,,,,,31,0,3,,,,,1,,,72,90
17520,note_on,,,,,31,0,6,,,,,1,,,48,90
17520,note_on,,,,,31,0,5,,,,,1,,,60,90
17520,note_on,,,,,106,0,2,,,,,0,,,40,78
17520,note_on,,,,,0,0,2,,,,,0,,,52,98
17520,note_on,,,,,1,0,1,,,,,0,,,64,62
17549,note_on,,,,,29,0,1,,,,,0,,,64,0
17549,note_on,,,,,0,0,2,,,,,0,,,40,0
17549,note_on,,,,,29,0,2,,,,,0,,,52,0
17550,note_on,,,,,1,0,1,,,,,0,,,72,62
17579,note_on,,,,,29,0,1,,,,,0,,,72,0
17580,note_on,,,,,0,0,2,,,,,0,,,53,88
17580,note_on,,,,,31,0,2,,,,,0,,,41,39
17580,note_on,,,,,1,0,1,,,,,0,,,65,78
17608,note_on,,,,,92,0,4,,,,,1,,,60,0
17609,note_on,,,,,89,0,6,,,,,1,,,48,0
17609,note_on,,,,,89,0,3,,,,,1,,,72,0
17609,note_on,,,,,89,0,5,,,,,1,,,60,0
17609,note_on,,,,,29,0,1,,,,,0,,,65,0
17609,note_on,,,,,0,0,2,,,,,0,,,41,0
17609,note_on,,,,,29,0,2,,,,,0,,,53,0
17610,note_on,,,,,1,0,1,,,,,0,,,72,62
17638,note_on,,,,,30,0,4,,,,,1,,,60,90
17640,note_on,,,,,31,0,2,,,,,0,,,43,78
17640,note_on,,,,,0,0,2,,,,,0,,,55,88
17640,note_on,,,,,31,0,3,,,,,1,,,72,90
17640,note_on,,,,,31,0,5,,,,,1,,,60,90
17640,note_on,,,,,30,0,1,,,,,0,,,67,70
17640,note_on,,,,,31,0,6,,,,,1,,,48,90
17654,note_on,,,,,14,0,1,,,,,0,,,72,0
17669,note_on,,,,,15,0,1,,,,,0,,,67,0
17669,note_on,,,,,29,0,2,,,,,0,,,55,0
17669,note_on,,,,,0,0,2,,,,,0,,,43,0
17670,note_on,,,,,1,0,1,,,,,0,,,72,62
17699,note_on,,,,,29,0,1,,,,,0,,,72,0
17700,note_on,,,,,0,0,1,,,,,0,,,69,70
17700,note_on,,,,,1,0,1,,,,,0,,,65,70
17700,note_on,,,,,31,0,2,,,,,0,,,45,70
17700,note_on,,,,,0,0,2,,,,,0,,,57,88
17729,note_on,,,,,0,0,2,,,,,0,,,45,0
17729,note_on,,,,,89,0,3,,,,,1,,,72,0
17729,note_on,,,,,89,0,6,,,,,1,,,48,0
17729,note_on,,,,,29,0,2,,,,,0,,,57,0
17729,note_on,,,,,29,0,1,,,,,0,,,69,0
17729,note_on,,,,,0,0,1,,,,,0,,,65,0
17729,note_on,,,,,89,0,5,,,,,1,,,60,0
17730,note_on,,,,,1,0,1,,,,,0,,,72,70
17736,note_on,,,,,98,0,4,,,,,1,,,60,0
17759,note_on,,,,,29,0,1,,,,,0,,,72,0
17760,note_on,,,,,1,0,1,,,,,0,,,70,98
17760,note_on,,,,,0,0,1,,,,,0,,,64,78
17760,note_on,,,,,0,0,2,,,,,0,,,58,110
17760,note_on,,,,,31,0,2,,,,,0,,,46,110
17760,note_on,,,,,31,0,6,,,,,1,,,48,90
17760,note_on,,,,,31,0,5,,,,,1,,,60,78
17760,note_on,,,,,31,0,3,,,,,1,,,72,90
17763,note_on,,,,,27,0,4,,,,,1,,,60,90
17774,note_on,,,,,0,0,1,,,,,0,,,70,0
17774,note_on,,,,,14,0,1,,,,,0,,,64,0
17790,note_on,,,,,16,0,1,,,,,0,,,72,62
17819,note_on,,,,,29,0,1,,,,,0,,,72,0
17820,note_on,,,,,1,0,1,,,,,0,,,71,70
17849,note_on,,,,,89,0,6,,,,,1,,,48,0
17849,note_on,,,,,89,0,5,,,,,1,,,60,0
17849,note_on,,,,,89,0,3,,,,,1,,,72,0
17849,note_on,,,,,29,0,1,,,,,0,,,71,0
17850,note_on,,,,,1,0,1,,,,,0,,,72,70
17857,note_on,,,,,94,0,4,,,,,1,,,60,0
17864,note_on,,,,,104,0,2,,,,,0,,,58,0
17864,note_on,,,,,0,0,2,,,,,0,,,46,0
17879,note_on,,,,,29,0,1,,,,,0,,,72,0
17880,note_on,,,,,16,0,2,,,,,0,,,60,88
17880,note_on,,,,,1,0,1,,,,,0,,,74,70
17880,note_on,,,,,31,0,6,,,,,1,,,48,78
17880,note_on,,,,,31,0,3,,,,,1,,,72,90
17880,note_on,,,,,31,0,5,,,,,1,,,60,78
17884,note_on,,,,,27,0,4,,,,,1,,,60,90
17909,note_on,,,,,29,0,1,,,,,0,,,74,0
17910,note_on,,,,,1,0,1,,,,,0,,,72,55
17939,note_on,,,,,29,0,1,,,,,0,,,72,0
17940,note_on,,,,,1,0,1,,,,,0,,,71,55
17954,note_on,,,,,74,0,2,,,,,0,,,60,0
17969,note_on,,,,,29,0,1,,,,,0,,,71,0
17969,note_on,,,,,89,0,3,,,,,1,,,72,0
17969,note_on,,,,,89,0,6,,,,,1,,,48,0
17970,note_on,,,,,16,0,2,,,,,0,,,60,62
17970,note_on,,,,,1,0,1,,,,,0,,,72,62
17981,note_on,,,,,97,0,4,,,,,1,,,60,0
17984,note_on,,,,,14,0,1,,,,,0,,,72,0
17984,note_on,,,,,14,0,2,,,,,0,,,60,0
17999,note_on,,,,,119,0,5,,,,,1,,,60,0
18000,note_on,,,,,19,0,4,,,,,1,,,64,78
18000,note_on,,,,,31,0,6,,,,,1,,,58,90
18000,note_on,,,,,31,0,3,,,,,1,,,72,90
18000,note_on,,,,,0,0,2,,,,,0,,,58,110
18000,note_on,,,,,1,0,5,,,,,1,,,55,78
18000,note_on,,,,,16,0,2,,,,,0,,,46,98
18000,note_on,,,,,16,0,1,,,,,0,,,72,70
18000,note_on,,,,,0,0,1,,,,,0,,,76,62
18029,note_on,,,,,29,0,1,,,,,0,,,76,0
18029,note_on,,,,,0,0,1,,,,,0,,,72,0
18030,note_on,,,,,1,0,1,,,,,0,,,67,62
18044,note_on,,,,,0,0,2,,,,,0,,,46,0
18044,note_on,,,,,44,0,2,,,,,0,,,58,0
18059,note_on,,,,,0,0,4,,,,,1,,,65,78
18059,note_on,,,,,59,0,4,,,,,1,,,64,0
18059,note_on,,,,,59,0,5,,,,,1,,,55,0
18059,note_on,,,,,59,0,6,,,,,1,,,58,0
18059,note_on,,,,,29,0,1,,,,,0,,,67,0
18060,note_on,,,,,0,0,2,,,,,0,,,57,98
18060,note_on,,,,,1,0,1,,,,,0,,,77,78
18060,note_on,,,,,0,0,1,,,,,0,,,72,70
18060,note_on,,,,,1,0,5,,,,,1,,,57,78
18060,note_on,,,,,16,0,2,,,,,0,,,45,88
18060,note_on,,,,,1,0,6,,,,,1,,,57,90
18089,note_on,,,,,0,0,1,,,,,0,,,77,0
18089,note_on,,,,,29,0,1,,,,,0,,,72,0
18089,note_on,,,,,29,0,2,,,,,0,,,45,0
18090,note_on,,,,,1,0,1,,,,,0,,,69,78
18104,note_on,,,,,15,0,2,,,,,0,,,57,0
18119,note_on,,,,,60,0,4,,,,,1,,,65,0
18119,note_on,,,,,59,0,5,,,,,1,,,57,0
18119,note_on,,,,,29,0,1,,,,,0,,,69,0
18119,note_on,,,,,59,0,6,,,,,1,,,57,0
18120,note_on,,,,,1,0,6,,,,,1,,,55,78
18120,note_on,,,,,1,0,5,,,,,1,,,58,90
18120,note_on,,,,,0,0,1,,,,,0,,,72,70
18120,note_on,,,,,1,0,1,,,,,0,,,79,70
18120,note_on,,,,,0,0,2,,,,,0,,,43,78
18120,note_on,,,,,16,0,2,,,,,0,,,55,78
18123,note_on,,,,,4,0,4,,,,,1,,,67,78
18149,note_on,,,,,149,0,3,,,,,1,,,72,0
18149,note_on,,,,,0,0,1,,,,,0,,,79,0
18149,note_on,,,,,29,0,1,,,,,0,,,72,0
18150,note_on,,,,,1,0,1,,,,,0,,,70,62
18164,note_on,,,,,0,0,2,,,,,0,,,55,0
18164,note_on,,,,,44,0,2,,,,,0,,,43,0
18179,note_on,,,,,59,0,5,,,,,1,,,58,0
18179,note_on,,,,,56,0,4,,,,,1,,,69,78
18179,note_on,,,,,29,0,1,,,,,0,,,70,0
18179,note_on,,,,,59,0,6,,,,,1,,,55,0
18180,note_on,,,,,0,0,1,,,,,0,,,72,78
18180,note_on,,,,,1,0,5,,,,,1,,,57,68
18180,note_on,,,,,1,0,6,,,,,1,,,53,78
18180,note_on,,,,,1,0,1,,,,,0,,,81,70
18180,note_on,,,,,31,0,3,,,,,1,,,72,90
18180,note_on,,,,,16,0,2,,,,,0,,,41,78
18180,note_on,,,,,0,0,2,,,,,0,,,53,88
18188,note_on,,,,,9,0,4,,,,,1,,,67,0
18209,note_on,,,,,29,0,3,,,,,1,,,72,0
18209,note_on,,,,,29,0,2,,,,,0,,,41,0
18209,note_on,,,,,29,0,1,,,,,0,,,72,0
18209,note_on,,,,,0,0,1,,,,,0,,,81,0
18210,note_on,,,,,1,0,1,,,,,0,,,69,55
18224,note_on,,,,,14,0,1,,,,,0,,,69,0
18224,note_on,,,,,15,0,2,,,,,0,,,53,0
18231,note_on,,,,,43,0,4,,,,,1,,,69,0
18238,note_on,,,,,7,0,4,,,,,1,,,70,90
18239,note_on,,,,,59,0,5,,,,,1,,,57,0
18239,note_on,,,,,59,0,6,,,,,1,,,53,0
18240,note_on,,,,,0,0,2,,,,,0,,,40,88
18240,note_on,,,,,16,0,2,,,,,0,,,52,88
18240,note_on,,,,,31,0,3,,,,,1,,,72,90
18240,note_on,,,,,1,0,6,,,,,1,,,52,78
18240,note_on,,,,,1,0,5,,,,,1,,,55,90
18240,note_on,,,,,16,0,1,,,,,0,,,82,98
18269,note_on,,,,,29,0,1,,,,,0,,,82,0
18270,note_on,,,,,1,0,1,,,,,0,,,79,55
18299,note_on,,,,,29,0,1,,,,,0,,,79,0
18300,note_on,,,,,1,0,1,,,,,0,,,72,35
18330,note_on,,,,,30,0,1,,,,,0,,,82,78
18344,note_on,,,,,0,0,1,,,,,0,,,72,0
18344,note_on,,,,,14,0,1,,,,,0,,,82,0
18354,note_on,,,,,116,0,4,,,,,1,,,69,90
18356,note_on,,,,,2,0,4,,,,,1,,,70,0
18359,note_on,,,,,119,0,6,,,,,1,,,52,0
18359,note_on,,,,,119,0,5,,,,,1,,,55,0
18359,note_on,,,,,119,0,2,,,,,0,,,40,0
18359,note_on,,,,,0,0,2,,,,,0,,,52,0
18360,note_on,,,,,1,0,6,,,,,1,,,53,78
18360,note_on,,,,,1,0,2,,,,,0,,,41,78
18360,note_on,,,,,1,0,5,,,,,1,,,53,90
18360,note_on,,,,,0,0,2,,,,,0,,,53,88
18360,note_on,,,,,16,0,1,,,,,0,,,81,70
18389,note_on,,,,,149,0,3,,,,,1,,,72,0
18389,note_on,,,,,29,0,1,,,,,0,,,81,0
18390,note_on,,,,,1,0,1,,,,,0,,,77,55
18419,note_on,,,,,29,0,1,,,,,0,,,77,0
18420,note_on,,,,,31,0,3,,,,,1,,,72,90
18420,note_on,,,,,1,0,1,,,,,0,,,72,62
18449,note_on,,,,,29,0,3,,,,,1,,,72,0
18449,note_on,,,,,29,0,1,,,,,0,,,72,0
18450,note_on,,,,,1,0,1,,,,,0,,,81,62
18471,note_on,,,,,115,0,4,,,,,1,,,69,0
18472,note_on,,,,,1,0,4,,,,,1,,,67,78
18479,note_on,,,,,0,0,2,,,,,0,,,41,0
18479,note_on,,,,,119,0,2,,,,,0,,,53,0
18479,note_on,,,,,119,0,5,,,,,1,,,53,0
18479,note_on,,,,,119,0,6,,,,,1,,,53,0
18479,note_on,,,,,29,0,1,,,,,0,,,81,0
18480,note_on,,,,,1,0,5,,,,,1,,,55,78
18480,note_on,,,,,1,0,6,,,,,1,,,52,78
18480,note_on,,,,,0,0,2,,,,,0,,,55,88
18480,note_on,,,,,1,0,2,,,,,0,,,52,88
18480,note_on,,,,,1,0,1,,,,,0,,,79,62
18480,note_on,,,,,31,0,3,,,,,1,,,72,90
18509,note_on,,,,,29,0,3,,,,,1,,,72,0
18509,note_on,,,,,29,0,1,,,,,0,,,79,0
18509,note_on,,,,,29,0,2,,,,,0,,,55,0
18509,note_on,,,,,0,0,2,,,,,0,,,52,0
18510,note_on,,,,,1,0,1,,,,,0,,,76,55
18533,note_on,,,,,0,0,4,,,,,1,,,64,78
18533,note_on,,,,,61,0,4,,,,,1,,,67,0
18539,note_on,,,,,59,0,5,,,,,1,,,55,0
18539,note_on,,,,,29,0,1,,,,,0,,,76,0
18539,note_on,,,,,59,0,6,,,,,1,,,52,0
18540,note_on,,,,,31,0,2,,,,,0,,,48,88
18540,note_on,,,,,31,0,3,,,,,1,,,72,90
18540,note_on,,,,,0,0,2,,,,,0,,,60,78
18540,note_on,,,,,1,0,5,,,,,1,,,60,78
18540,note_on,,,,,1,0,1,,,,,0,,,79,55
18540,note_on,,,,,1,0,6,,,,,1,,,48,68
18569,note_on,,,,,29,0,1,,,,,0,,,79,0
18569,note_on,,,,,29,0,2,,,,,0,,,60,0
18569,note_on,,,,,0,0,2,,,,,0,,,48,0
18570,note_on,,,,,1,0,1,,,,,0,,,76,62
18591,note_on,,,,,58,0,4,,,,,1,,,64,0
18594,note_on,,,,,3,0,4,,,,,1,,,69,78
18599,note_on,,,,,29,0,1,,,,,0,,,76,0
18599,note_on,,,,,59,0,3,,,,,1,,,72,0
18599,note_on,,,,,59,0,6,,,,,1,,,48,0
18600,note_on,,,,,1,0,1,,,,,0,,,77,70
18600,note_on,,,,,1,0,3,,,,,1,,,77,90
18600,note_on,,,,,1,0,6,,,,,1,,,50,68
18600,note_on,,,,,0,0,2,,,,,0,,,60,88
18600,note_on,,,,,31,0,2,,,,,0,,,50,98
18629,note_on,,,,,29,0,2,,,,,0,,,50,0
18644,note_on,,,,,15,0,2,,,,,0,,,60,0
18651,note_on,,,,,57,0,4,,,,,1,,,67,90
18655,note_on,,,,,4,0,4,,,,,1,,,69,0
18659,note_on,,,,,59,0,1,,,,,0,,,77,0
18659,note_on,,,,,119,0,5,,,,,1,,,60,0
18659,note_on,,,,,59,0,6,,,,,1,,,50,0
18660,note_on,,,,,1,0,6,,,,,1,,,55,68
18660,note_on,,,,,1,0,5,,,,,1,,,59,78
18660,note_on,,,,,16,0,2,,,,,0,,,55,98
18660,note_on,,,,,0,0,2,,,,,0,,,43,78
18660,note_on,,,,,1,0,1,,,,,0,,,76,55
18660,note_on,,,,,0,0,1,,,,,0,,,71,55
18689,note_on,,,,,0,0,1,,,,,0,,,76,0
18689,note_on,,,,,29,0,1,,,,,0,,,71,0
18690,note_on,,,,,1,0,1,,,,,0,,,74,70
18697,note_on,,,,,42,0,4,,,,,1,,,67,0
18704,note_on,,,,,44,0,2,,,,,0,,,43,0
18704,note_on,,,,,0,0,2,,,,,0,,,55,0
18716,note_on,,,,,19,0,4,,,,,1,,,67,90
18719,note_on,,,,,119,0,3,,,,,1,,,77,0
18719,note_on,,,,,29,0,1,,,,,0,,,74,0
18719,note_on,,,,,59,0,5,,,,,1,,,59,0
18719,note_on,,,,,59,0,6,,,,,1,,,55,0
18720,note_on,,,,,1,0,1,,,,,0,,,76,55
18720,note_on,,,,,0,0,2,,,,,0,,,36,98
18720,note_on,,,,,1,0,5,,,,,1,,,60,78
18720,note_on,,,,,1,0,6,,,,,1,,,48,90
18720,note_on,,,,,16,0,2,,,,,0,,,48,88
18720,note_on,,,,,1,0,3,,,,,1,,,76,90
18749,note_on,,,,,29,0,1,,,,,0,,,76,0
18750,note_on,,,,,1,0,1,,,,,0,,,72,62
18779,note_on,,,,,29,0,1,,,,,0,,,72,0
18780,note_on,,,,,1,0,1,,,,,0,,,84,88
18809,note_on,,,,,29,0,1,,,,,0,,,84,0
18809,note_on,,,,,89,0,5,,,,,1,,,60,0
18810,note_on,,,,,1,0,1,,,,,0,,,83,70
18820,note_on,,,,,104,0,4,,,,,1,,,67,0
18824,note_on,,,,,104,0,2,,,,,0,,,36,0
18836,note_on,,,,,16,0,4,,,,,1,,,67,78
18839,note_on,,,,,119,0,6,,,,,1,,,48,0
18839,note_on,,,,,15,0,2,,,,,0,,,48,0
18839,note_on,,,,,119,0,3,,,,,1,,,76,0
18839,note_on,,,,,29,0,1,,,,,0,,,83,0
18840,note_on,,,,,1,0,6,,,,,1,,,60,78
18840,note_on,,,,,1,0,1,,,,,0,,,81,62
18840,note_on,,,,,1,0,3,,,,,1,,,76,90
18840,note_on,,,,,0,0,2,,,,,0,,,64,98
18840,note_on,,,,,1,0,2,,,,,0,,,60,88
18869,note_on,,,,,29,0,6,,,,,1,,,60,0
18869,note_on,,,,,29,0,1,,,,,0,,,81,0
18869,note_on,,,,,29,0,3,,,,,1,,,76,0
18870,note_on,,,,,1,0,1,,,,,0,,,79,62
18875,note_on,,,,,39,0,4,,,,,1,,,67,0
18893,note_on,,,,,18,0,4,,,,,1,,,67,78
18899,note_on,,,,,29,0,1,,,,,0,,,79,0
18899,note_on,,,,,59,0,2,,,,,0,,,64,0
18900,note_on,,,,,1,0,1,,,,,0,,,77,49
18900,note_on,,,,,31,0,6,,,,,1,,,60,78
18900,note_on,,,,,1,0,2,,,,,0,,,48,98
18900,note_on,,,,,31,0,3,,,,,1,,,76,90
18914,note_on,,,,,14,0,2,,,,,0,,,60,0
18929,note_on,,,,,29,0,1,,,,,0,,,77,0
18930,note_on,,,,,1,0,1,,,,,0,,,76,55
18944,note_on,,,,,14,0,1,,,,,0,,,76,0
18948,note_on,,,,,55,0,4,,,,,1,,,67,0
18957,note_on,,,,,9,0,4,,,,,1,,,69,90
18959,note_on,,,,,45,0,2,,,,,0,,,48,0
18959,note_on,,,,,59,0,3,,,,,1,,,76,0
18959,note_on,,,,,59,0,6,,,,,1,,,60,0
18960,note_on,,,,,0,0,2,,,,,0,,,57,88
18960,note_on,,,,,0,0,2,,,,,0,,,60,78
18960,note_on,,,,,1,0,3,,,,,1,,,74,90
18960,note_on,,,,,1,0,6,,,,,1,,,54,90
18960,note_on,,,,,1,0,2,,,,,0,,,54,98
18960,note_on,,,,,151,0,5,,,,,1,,,60,78
18960,note_on,,,,,0,0,2,,,,,0,,,62,78
18960,note_on,,,,,16,0,1,,,,,0,,,76,62
18989,note_on,,,,,29,0,1,,,,,0,,,76,0
18990,note_on,,,,,1,0,1,,,,,0,,,74,62
19004,note_on,,,,,14,0,1,,,,,0,,,74,0
19019,note_on,,,,,59,0,6,,,,,1,,,54,0
19020,note_on,,,,,16,0,1,,,,,0,,,83,78
19029,note_on,,,,,72,0,4,,,,,1,,,69,0
19049,note_on,,,,,29,0,1,,,,,0,,,83,0
19049,note_on,,,,,0,0,2,,,,,0,,,60,0
19049,note_on,,,,,0,0,2,,,,,0,,,57,0
19049,note_on,,,,,89,0,2,,,,,0,,,62,0
19049,note_on,,,,,0,0,2,,,,,0,,,54,0
19049,note_on,,,,,89,0,3,,,,,1,,,74,0
19050,note_on,,,,,1,0,3,,,,,1,,,74,90
19050,note_on,,,,,1,0,1,,,,,0,,,81,62
19050,note_on,,,,,31,0,6,,,,,1,,,54,90
19055,note_on,,,,,26,0,4,,,,,1,,,69,68
19079,note_on,,,,,29,0,1,,,,,0,,,81,0
19079,note_on,,,,,119,0,5,,,,,1,,,60,0
19079,note_on,,,,,29,0,6,,,,,1,,,54,0
19079,note_on,,,,,29,0,3,,,,,1,,,74,0
19080,note_on,,,,,1,0,1,,,,,0,,,80,78
19080,note_on,,,,,1,0,5,,,,,1,,,59,78
19080,note_on,,,,,0,0,2,,,,,0,,,59,88
19080,note_on,,,,,31,0,2,,,,,0,,,56,98
19080,note_on,,,,,1,0,6,,,,,1,,,56,90
19080,note_on,,,,,1,0,3,,,,,1,,,74,90
19080,note_on,,,,,0,0,2,,,,,0,,,62,88
19083,note_on,,,,,28,0,4,,,,,1,,,64,90
19086,note_on,,,,,3,0,4,,,,,1,,,69,0
19094,note_on,,,,,14,0,1,,,,,0,,,80,0
19110,note_on,,,,,16,0,1,,,,,0,,,77,62
19139,note_on,,,,,29,0,1,,,,,0,,,77,0
19140,note_on,,,,,1,0,1,,,,,0,,,76,55
19169,note_on,,,,,29,0,1,,,,,0,,,76,0
19170,note_on,,,,,1,0,1,,,,,0,,,74,70
19180,note_on,,,,,94,0,4,,,,,1,,,64,0
19184,note_on,,,,,0,0,2,,,,,0,,,59,0
19184,note_on,,,,,0,0,2,,,,,0,,,56,0
19184,note_on,,,,,14,0,1,,,,,0,,,74,0
19184,note_on,,,,,104,0,2,,,,,0,,,62,0
19199,note_on,,,,,119,0,3,,,,,1,,,74,0
19199,note_on,,,,,119,0,6,,,,,1,,,56,0
19200,note_on,,,,,16,0,2,,,,,0,,,52,88
19200,note_on,,,,,16,0,1,,,,,0,,,74,62
19200,note_on,,,,,1,0,3,,,,,1,,,72,90
19200,note_on,,,,,0,0,2,,,,,0,,,45,88
19200,note_on,,,,,0,0,2,,,,,0,,,59,98
19203,note_on,,,,,23,0,4,,,,,1,,,64,90
19229,note_on,,,,,29,0,1,,,,,0,,,74,0
19230,note_on,,,,,1,0,1,,,,,0,,,72,62
19244,note_on,,,,,14,0,1,,,,,0,,,72,0
19260,note_on,,,,,16,0,1,,,,,0,,,81,88
19274,note_on,,,,,14,0,1,,,,,0,,,81,0
19289,note_on,,,,,89,0,2,,,,,0,,,59,0
19290,note_on,,,,,16,0,1,,,,,0,,,79,70
19304,note_on,,,,,15,0,2,,,,,0,,,45,0
19304,note_on,,,,,14,0,1,,,,,0,,,79,0
19319,note_on,,,,,15,0,2,,,,,0,,,52,0
19319,note_on,,,,,239,0,5,,,,,1,,,59,0
19320,note_on,,,,,0,0,2,,,,,0,,,60,98
19320,note_on,,,,,1,0,5,,,,,1,,,57,78
19320,note_on,,,,,0,0,2,,,,,0,,,64,88
19320,note_on,,,,,121,0,6,,,,,1,,,48,90
19320,note_on,,,,,16,0,1,,,,,0,,,77,70
19320,note_on,,,,,1,0,2,,,,,0,,,57,98
19349,note_on,,,,,149,0,3,,,,,1,,,72,0
19349,note_on,,,,,29,0,6,,,,,1,,,48,0
19349,note_on,,,,,29,0,1,,,,,0,,,77,0
19350,note_on,,,,,1,0,1,,,,,0,,,76,55
19353,note_on,,,,,150,0,4,,,,,1,,,64,0
19379,note_on,,,,,29,0,1,,,,,0,,,76,0
19380,note_on,,,,,60,0,2,,,,,0,,,48,88
19380,note_on,,,,,31,0,3,,,,,1,,,72,78
19380,note_on,,,,,27,0,4,,,,,1,,,64,78
19380,note_on,,,,,1,0,1,,,,,0,,,74,62
19380,note_on,,,,,31,0,6,,,,,1,,,48,90
19394,note_on,,,,,0,0,2,,,,,0,,,57,0
19394,note_on,,,,,0,0,2,,,,,0,,,60,0
19394,note_on,,,,,14,0,2,,,,,0,,,64,0
19409,note_on,,,,,29,0,1,,,,,0,,,74,0
19410,note_on,,,,,1,0,1,,,,,0,,,72,70
19424,note_on,,,,,14,0,1,,,,,0,,,72,0
19424,note_on,,,,,30,0,2,,,,,0,,,48,0
19430,note_on,,,,,50,0,4,,,,,1,,,64,0
19436,note_on,,,,,6,0,4,,,,,1,,,65,90
19439,note_on,,,,,59,0,3,,,,,1,,,72,0
19439,note_on,,,,,59,0,6,,,,,1,,,48,0
19440,note_on,,,,,1,0,3,,,,,1,,,70,90
19440,note_on,,,,,0,0,2,,,,,0,,,50,88
19440,note_on,,,,,0,0,2,,,,,0,,,57,98
19440,note_on,,,,,1,0,6,,,,,1,,,50,90
19440,note_on,,,,,16,0,2,,,,,0,,,58,98
19440,note_on,,,,,16,0,1,,,,,0,,,72,55
19440,note_on,,,,,0,0,2,,,,,0,,,53,88
19469,note_on,,,,,29,0,1,,,,,0,,,72,0
19469,note_on,,,,,149,0,5,,,,,1,,,57,0
19470,note_on,,,,,1,0,1,,,,,0,,,70,70
19499,note_on,,,,,29,0,1,,,,,0,,,70,0
19500,note_on,,,,,31,0,5,,,,,1,,,57,78
19500,note_on,,,,,1,0,1,,,,,0,,,79,88
19529,note_on,,,,,89,0,3,,,,,1,,,70,0
19529,note_on,,,,,29,0,1,,,,,0,,,79,0
19529,note_on,,,,,89,0,6,,,,,1,,,50,0
19530,note_on,,,,,1,0,1,,,,,0,,,77,62
19530,note_on,,,,,1,0,6,,,,,1,,,50,78
19544,note_on,,,,,104,0,2,,,,,0,,,53,0
19544,note_on,,,,,0,0,2,,,,,0,,,58,0
19544,note_on,,,,,0,0,2,,,,,0,,,50,0
19544,note_on,,,,,0,0,2,,,,,0,,,57,0
19559,note_on,,,,,29,0,1,,,,,0,,,77,0
19559,note_on,,,,,29,0,6,,,,,1,,,50,0
19559,note_on,,,,,59,0,5,,,,,1,,,57,0
19560,note_on,,,,,16,0,2,,,,,0,,,60,98
19560,note_on,,,,,0,0,2,,,,,0,,,55,98
19560,note_on,,,,,0,0,2,,,,,0,,,52,88
19560,note_on,,,,,0,0,2,,,,,0,,,58,88
19560,note_on,,,,,1,0,6,,,,,1,,,52,78
19560,note_on,,,,,1,0,1,,,,,0,,,76,70
19560,note_on,,,,,1,0,5,,,,,1,,,55,78
19560,note_on,,,,,31,0,3,,,,,1,,,70,78
19562,note_on,,,,,126,0,4,,,,,1,,,60,78
19570,note_on,,,,,8,0,4,,,,,1,,,65,0
19589,note_on,,,,,29,0,1,,,,,0,,,76,0
19589,note_on,,,,,29,0,3,,,,,1,,,70,0
19590,note_on,,,,,1,0,1,,,,,0,,,74,70
19599,note_on,,,,,29,0,4,,,,,1,,,60,0
19619,note_on,,,,,20,0,4,,,,,1,,,60,78
19619,note_on,,,,,29,0,1,,,,,0,,,74,0
19620,note_on,,,,,31,0,3,,,,,1,,,70,90
19620,note_on,,,,,1,0,1,,,,,0,,,72,62
19649,note_on,,,,,89,0,2,,,,,0,,,58,0
19649,note_on,,,,,29,0,1,,,,,0,,,72,0
19649,note_on,,,,,0,0,2,,,,,0,,,55,0
19649,note_on,,,,,0,0,2,,,,,0,,,52,0
19650,note_on,,,,,1,0,1,,,,,0,,,70,88
19652,note_on,,,,,33,0,4,,,,,1,,,60,0
19664,note_on,,,,,15,0,2,,,,,0,,,60,0
19664,note_on,,,,,14,0,1,,,,,0,,,70,0
19679,note_on,,,,,59,0,3,,,,,1,,,70,0
19679,note_on,,,,,27,0,4,,,,,1,,,60,90
19679,note_on,,,,,119,0,6,,,,,1,,,52,0
19680,note_on,,,,,0,0,2,,,,,0,,,55,110
19680,note_on,,,,,1,0,3,,,,,1,,,69,78
19680,note_on,,,,,16,0,1,,,,,0,,,70,88
19680,note_on,,,,,0,0,2,,,,,0,,,48,88
19680,note_on,,,,,16,0,2,,,,,0,,,41,70
19709,note_on,,,,,29,0,1,,,,,0,,,70,0
19710,note_on,,,,,1,0,1,,,,,0,,,69,62
19724,note_on,,,,,14,0,1,,,,,0,,,69,0
19740,note_on,,,,,16,0,1,,,,,0,,,77,88
19753,note_on,,,,,74,0,4,,,,,1,,,60,0
19754,note_on,,,,,14,0,1,,,,,0,,,77,0
19769,note_on,,,,,89,0,3,,,,,1,,,69,0
19770,note_on,,,,,16,0,1,,,,,0,,,76,62
19770,note_on,,,,,1,0,3,,,,,1,,,69,90
19774,note_on,,,,,21,0,4,,,,,1,,,60,78
19784,note_on,,,,,104,0,2,,,,,0,,,55,0
19790,note_on,,,,,16,0,4,,,,,1,,,60,0
19799,note_on,,,,,239,0,5,,,,,1,,,55,0
19799,note_on,,,,,29,0,1,,,,,0,,,76,0
19799,note_on,,,,,15,0,2,,,,,0,,,48,0
19799,note_on,,,,,0,0,2,,,,,0,,,41,0
19799,note_on,,,,,29,0,3,,,,,1,,,69,0
19800,note_on,,,,,1,0,5,,,,,1,,,53,90
19800,note_on,,,,,1,0,3,,,,,1,,,69,78
19800,note_on,,,,,0,0,2,,,,,0,,,53,98
19800,note_on,,,,,121,0,6,,,,,1,,,45,78
19800,note_on,,,,,1,0,1,,,,,0,,,74,78
19800,note_on,,,,,10,0,4,,,,,1,,,60,90
19800,note_on,,,,,0,0,2,,,,,0,,,60,88
19800,note_on,,,,,1,0,2,,,,,0,,,57,98
19829,note_on,,,,,29,0,1,,,,,0,,,74,0
19829,note_on,,,,,29,0,6,,,,,1,,,45,0
19830,note_on,,,,,1,0,1,,,,,0,,,72,78
19859,note_on,,,,,59,0,2,,,,,0,,,60,0
19859,note_on,,,,,0,0,2,,,,,0,,,57,0
19859,note_on,,,,,0,0,2,,,,,0,,,53,0
19859,note_on,,,,,29,0,1,,,,,0,,,72,0
19860,note_on,,,,,1,0,2,,,,,0,,,45,98
19860,note_on,,,,,31,0,6,,,,,1,,,45,78
19860,note_on,,,,,1,0,1,,,,,0,,,70,88
19889,note_on,,,,,29,0,1,,,,,0,,,70,0
19890,note_on,,,,,1,0,1,,,,,0,,,69,78
19904,note_on,,,,,44,0,2,,,,,0,,,45,0
19904,note_on,,,,,14,0,1,,,,,0,,,69,0
19911,note_on,,,,,111,0,4,,,,,1,,,60,0
19919,note_on,,,,,119,0,3,,,,,1,,,69,0
19919,note_on,,,,,8,0,4,,,,,1,,,62,90
19919,note_on,,,,,59,0,6,,,,,1,,,45,0
19920,note_on,,,,,16,0,2,,,,,0,,,47,88
19920,note_on,,,,,0,0,2,,,,,0,,,50,88
19920,note_on,,,,,1,0,3,,,,,1,,,67,90
19920,note_on,,,,,0,0,2,,,,,0,,,55,88
19920,note_on,,,,,0,0,2,,,,,0,,,53,78
19920,note_on,,,,,16,0,1,,,,,0,,,69,78
19920,note_on,,,,,1,0,6,,,,,1,,,47,78
19949,note_on,,,,,29,0,1,,,,,0,,,69,0
19950,note_on,,,,,1,0,1,,,,,0,,,67,70
19964,note_on,,,,,14,0,1,,,,,0,,,67,0
19980,note_on,,,,,16,0,1,,,,,0,,,76,70
19994,note_on,,,,,75,0,4,,,,,1,,,62,0
19994,note_on,,,,,14,0,1,,,,,0,,,76,0
20009,note_on,,,,,0,0,2,,,,,0,,,55,0
20009,note_on,,,,,89,0,2,,,,,0,,,53,0
20009,note_on,,,,,89,0,3,,,,,1,,,67,0
20009,note_on,,,,,89,0,6,,,,,1,,,47,0
20010,note_on,,,,,1,0,3,,,,,1,,,67,90
20010,note_on,,,,,1,0,6,,,,,1,,,47,68
20010,note_on,,,,,16,0,1,,,,,0,,,74,70
20015,note_on,,,,,21,0,4,,,,,1,,,62,78
20024,note_on,,,,,0,0,2,,,,,0,,,47,0
20024,note_on,,,,,15,0,2,,,,,0,,,50,0
20024,note_on,,,,,14,0,1,,,,,0,,,74,0
20039,note_on,,,,,29,0,6,,,,,1,,,47,0
20039,note_on,,,,,239,0,5,,,,,1,,,53,0
20039,note_on,,,,,29,0,3,,,,,1,,,67,0
20040,note_on,,,,,16,0,2,,,,,0,,,49,110
20040,note_on,,,,,1,0,3,,,,,1,,,67,78
20040,note_on,,,,,1,0,6,,,,,1,,,49,90
20040,note_on,,,,,1,0,5,,,,,1,,,52,90
20040,note_on,,,,,16,0,1,,,,,0,,,73,88
20040,note_on,,,,,0,0,2,,,,,0,,,52,98
20040,note_on,,,,,0,0,2,,,,,0,,,55,88
20045,note_on,,,,,0,0,4,,,,,1,,,57,90
20045,note_on,,,,,30,0,4,,,,,1,,,62,0
20069,note_on,,,,,29,0,1,,,,,0,,,73,0
20070,note_on,,,,,1,0,1,,,,,0,,,70,88
20099,note_on,,,,,29,0,1,,,,,0,,,70,0
20100,note_on,,,,,1,0,1,,,,,0,,,69,70
20129,note_on,,,,,29,0,1,,,,,0,,,69,0
20129,note_on,,,,,89,0,6,,,,,1,,,49,0
20129,note_on,,,,,89,0,5,,,,,1,,,52,0
20129,note_on,,,,,89,0,3,,,,,1,,,67,0
20129,note_on,,,,,0,0,2,,,,,0,,,49,0
20129,note_on,,,,,89,0,2,,,,,0,,,52,0
20130,note_on,,,,,1,0,1,,,,,0,,,67,49
20141,note_on,,,,,96,0,4,,,,,1,,,57,0
20144,note_on,,,,,15,0,2,,,,,0,,,55,0
20159,note_on,,,,,29,0,1,,,,,0,,,67,0
20160,note_on,,,,,31,0,6,,,,,1,,,50,78
20160,note_on,,,,,1,0,1,,,,,0,,,65,62
20160,note_on,,,,,0,0,2,,,,,0,,,50,78
20160,note_on,,,,,31,0,5,,,,,1,,,53,78
20160,note_on,,,,,16,0,2,,,,,0,,,53,88
20160,note_on,,,,,31,0,3,,,,,1,,,65,90
20162,note_on,,,,,21,0,4,,,,,1,,,57,90
20189,note_on,,,,,29,0,1,,,,,0,,,65,0
20190,note_on,,,,,1,0,1,,,,,0,,,69,62
20204,note_on,,,,,0,0,2,,,,,0,,,53,0
20204,note_on,,,,,44,0,2,,,,,0,,,50,0
20212,note_on,,,,,50,0,4,,,,,1,,,60,29
20219,note_on,,,,,59,0,5,,,,,1,,,53,0
20219,note_on,,,,,29,0,1,,,,,0,,,69,0
20219,note_on,,,,,59,0,6,,,,,1,,,50,0
20219,note_on,,,,,59,0,3,,,,,1,,,65,0
20220,note_on,,,,,8,0,4,,,,,1,,,60,0
20220,note_on,,,,,1,0,6,,,,,1,,,52,78
20220,note_on,,,,,1,0,3,,,,,1,,,67,68
20220,note_on,,,,,16,0,2,,,,,0,,,52,78
20220,note_on,,,,,0,0,2,,,,,0,,,55,62
20220,note_on,,,,,1,0,5,,,,,1,,,55,68
20220,note_on,,,,,1,0,1,,,,,0,,,67,70
20227,note_on,,,,,7,0,4,,,,,1,,,60,78
20236,note_on,,,,,9,0,4,,,,,1,,,57,0
20249,note_on,,,,,29,0,1,,,,,0,,,67,0
20250,note_on,,,,,1,0,1,,,,,0,,,70,88
20264,note_on,,,,,44,0,2,,,,,0,,,52,0
20279,note_on,,,,,15,0,2,,,,,0,,,55,0
20279,note_on,,,,,29,0,1,,,,,0,,,70,0
20279,note_on,,,,,59,0,6,,,,,1,,,52,0
20279,note_on,,,,,59,0,5,,,,,1,,,55,0
20279,note_on,,,,,59,0,3,,,,,1,,,67,0
20280,note_on,,,,,1,0,6,,,,,1,,,53,78
20280,note_on,,,,,1,0,5,,,,,1,,,57,78
20280,note_on,,,,,0,0,2,,,,,0,,,57,78
20280,note_on,,,,,1,0,2,,,,,0,,,53,88
20280,note_on,,,,,1,0,3,,,,,1,,,69,68
20280,note_on,,,,,1,0,1,,,,,0,,,69,78
20309,note_on,,,,,29,0,1,,,,,0,,,69,0
20309,note_on,,,,,29,0,2,,,,,0,,,53,0
20310,note_on,,,,,1,0,1,,,,,0,,,72,78
20324,note_on,,,,,15,0,2,,,,,0,,,57,0
20327,note_on,,,,,91,0,4,,,,,1,,,60,0
20339,note_on,,,,,59,0,3,,,,,1,,,69,0
20339,note_on,,,,,29,0,1,,,,,0,,,72,0
20339,note_on,,,,,59,0,5,,,,,1,,,57,0
20339,note_on,,,,,59,0,6,,,,,1,,,53,0
20340,note_on,,,,,1,0,6,,,,,1,,,55,68
20340,note_on,,,,,1,0,5,,,,,1,,,59,68
20340,note_on,,,,,1,0,3,,,,,1,,,71,68
20340,note_on,,,,,16,0,2,,,,,0,,,55,78
20340,note_on,,,,,0,0,2,,,,,0,,,59,78
20340,note_on,,,,,1,0,1,,,,,0,,,71,70
20340,note_on,,,,,13,0,4,,,,,1,,,65,90
20369,note_on,,,,,29,0,1,,,,,0,,,71,0
20370,note_on,,,,,1,0,1,,,,,0,,,74,78
20384,note_on,,,,,44,0,2,,,,,0,,,55,0
20394,note_on,,,,,54,0,4,,,,,1,,,65,0
20398,note_on,,,,,4,0,4,,,,,1,,,64,78
20399,note_on,,,,,59,0,3,,,,,1,,,71,0
20399,note_on,,,,,59,0,5,,,,,1,,,59,0
20399,note_on,,,,,15,0,2,,,,,0,,,59,0
20399,note_on,,,,,59,0,6,,,,,1,,,55,0
20399,note_on,,,,,29,0,1,,,,,0,,,74,0
20400,note_on,,,,,1,0,2,,,,,0,,,57,88
20400,note_on,,,,,0,0,2,,,,,0,,,60,78
20400,note_on,,,,,1,0,6,,,,,1,,,57,78
20400,note_on,,,,,1,0,1,,,,,0,,,72,70
20400,note_on,,,,,1,0,3,,,,,1,,,72,68
20400,note_on,,,,,1,0,5,,,,,1,,,60,68
20429,note_on,,,,,29,0,2,,,,,0,,,60,0
20429,note_on,,,,,29,0,1,,,,,0,,,72,0
20430,note_on,,,,,1,0,1,,,,,0,,,76,62
20444,note_on,,,,,15,0,2,,,,,0,,,57,0
20454,note_on,,,,,0,0,4,,,,,1,,,67,78
20454,note_on,,,,,56,0,4,,,,,1,,,64,0
20459,note_on,,,,,59,0,5,,,,,1,,,60,0
20459,note_on,,,,,59,0,3,,,,,1,,,72,0
20459,note_on,,,,,29,0,1,,,,,0,,,76,0
20459,note_on,,,,,59,0,6,,,,,1,,,57,0
20460,note_on,,,,,1,0,3,,,,,1,,,74,68
20460,note_on,,,,,16,0,2,,,,,0,,,59,78
20460,note_on,,,,,0,0,2,,,,,0,,,62,88
20460,note_on,,,,,1,0,6,,,,,1,,,59,78
20460,note_on,,,,,1,0,1,,,,,0,,,74,70
20460,note_on,,,,,1,0,5,,,,,1,,,62,68
20489,note_on,,,,,29,0,2,,,,,0,,,62,0
20489,note_on,,,,,29,0,1,,,,,0,,,74,0
20490,note_on,,,,,1,0,1,,,,,0,,,77,70
20504,note_on,,,,,15,0,2,,,,,0,,,59,0
20519,note_on,,,,,59,0,5,,,,,1,,,62,0
20519,note_on,,,,,29,0,1,,,,,0,,,77,0
20519,note_on,,,,,59,0,3,,,,,1,,,74,0
20519,note_on,,,,,59,0,6,,,,,1,,,59,0
20520,note_on,,,,,1,0,6,,,,,1,,,60,68
20520,note_on,,,,,1,0,1,,,,,0,,,76,62
20520,note_on,,,,,16,0,2,,,,,0,,,64,78
20520,note_on,,,,,0,0,2,,,,,0,,,60,88
20520,note_on,,,,,1,0,3,,,,,1,,,76,58
20520,note_on,,,,,1,0,5,,,,,1,,,64,58
20549,note_on,,,,,29,0,1,,,,,0,,,76,0
20549,note_on,,,,,29,0,2,,,,,0,,,60,0
20550,note_on,,,,,1,0,1,,,,,0,,,79,70
20570,note_on,,,,,116,0,4,,,,,1,,,67,0
20579,note_on,,,,,59,0,3,,,,,1,,,76,0
20579,note_on,,,,,9,0,4,,,,,1,,,72,78
20579,note_on,,,,,59,0,5,,,,,1,,,64,0
20579,note_on,,,,,29,0,1,,,,,0,,,79,0
20579,note_on,,,,,30,0,2,,,,,0,,,64,0
20579,note_on,,,,,59,0,6,,,,,1,,,60,0
20580,note_on,,,,,1,0,1,,,,,0,,,78,78
20580,note_on,,,,,0,0,1,,,,,0,,,72,70
20580,note_on,,,,,1,0,3,,,,,1,,,78,78
20580,note_on,,,,,1,0,2,,,,,0,,,60,78
20580,note_on,,,,,0,0,2,,,,,0,,,57,78
20580,note_on,,,,,1,0,6,,,,,1,,,57,78
20580,note_on,,,,,1,0,5,,,,,1,,,60,68
20609,note_on,,,,,0,0,2,,,,,0,,,60,0
20609,note_on,,,,,29,0,1,,,,,0,,,72,0
20609,note_on,,,,,29,0,2,,,,,0,,,57,0
20610,note_on,,,,,1,0,1,,,,,0,,,84,78
20624,note_on,,,,,14,0,1,,,,,0,,,84,0
20624,note_on,,,,,0,0,1,,,,,0,,,78,0
20632,note_on,,,,,53,0,4,,,,,1,,,72,0
20639,note_on,,,,,59,0,3,,,,,1,,,78,0
20639,note_on,,,,,7,0,4,,,,,1,,,71,78
20639,note_on,,,,,59,0,6,,,,,1,,,57,0
20639,note_on,,,,,59,0,5,,,,,1,,,60,0
20640,note_on,,,,,0,0,1,,,,,0,,,74,70
20640,note_on,,,,,16,0,1,,,,,0,,,83,78
20640,note_on,,,,,1,0,3,,,,,1,,,79,78
20640,note_on,,,,,1,0,5,,,,,1,,,62,58
20640,note_on,,,,,0,0,2,,,,,0,,,55,78
20640,note_on,,,,,31,0,2,,,,,0,,,62,88
20640,note_on,,,,,1,0,6,,,,,1,,,55,90
20669,note_on,,,,,29,0,1,,,,,0,,,83,0
20670,note_on,,,,,1,0,1,,,,,0,,,79,49
20699,note_on,,,,,29,0,1,,,,,0,,,79,0
20699,note_on,,,,,59,0,2,,,,,0,,,55,0
20699,note_on,,,,,59,0,5,,,,,1,,,62,0
20699,note_on,,,,,0,0,1,,,,,0,,,74,0
20700,note_on,,,,,1,0,5,,,,,1,,,55,78
20700,note_on,,,,,1,0,1,,,,,0,,,78,78
20729,note_on,,,,,30,0,2,,,,,0,,,62,0
20730,note_on,,,,,30,0,1,,,,,0,,,79,62
20744,note_on,,,,,14,0,1,,,,,0,,,78,0
20757,note_on,,,,,118,0,4,,,,,1,,,71,0
20759,note_on,,,,,119,0,3,,,,,1,,,79,0
20759,note_on,,,,,59,0,5,,,,,1,,,55,0
20759,note_on,,,,,15,0,1,,,,,0,,,79,0
20760,note_on,,,,,0,0,2,,,,,0,,,60,88
20760,note_on,,,,,1,0,5,,,,,1,,,60,68
20760,note_on,,,,,31,0,2,,,,,0,,,52,88
20760,note_on,,,,,1,0,1,,,,,0,,,81,62
20789,note_on,,,,,149,0,6,,,,,1,,,55,0
20789,note_on,,,,,0,0,2,,,,,0,,,52,0
20789,note_on,,,,,29,0,2,,,,,0,,,60,0
20789,note_on,,,,,29,0,1,,,,,0,,,81,0
20790,note_on,,,,,1,0,1,,,,,0,,,79,49
20819,note_on,,,,,29,0,1,,,,,0,,,79,0
20820,note_on,,,,,61,0,3,,,,,1,,,72,78
20820,note_on,,,,,1,0,1,,,,,0,,,78,78
20820,note_on,,,,,0,0,2,,,,,0,,,64,78
20820,note_on,,,,,31,0,2,,,,,0,,,60,88
20849,note_on,,,,,0,0,2,,,,,0,,,60,0
20849,note_on,,,,,29,0,2,,,,,0,,,64,0
20849,note_on,,,,,29,0,1,,,,,0,,,78,0
20850,note_on,,,,,1,0,1,,,,,0,,,79,55
20879,note_on,,,,,59,0,3,,,,,1,,,72,0
20879,note_on,,,,,29,0,1,,,,,0,,,79,0
20880,note_on,,,,,91,0,6,,,,,1,,,53,78
20880,note_on,,,,,1,0,3,,,,,1,,,69,68
20880,note_on,,,,,0,0,2,,,,,0,,,53,78
20880,note_on,,,,,31,0,2,,,,,0,,,65,98
20880,note_on,,,,,1,0,1,,,,,0,,,81,62
20909,note_on,,,,,29,0,2,,,,,0,,,53,0
20910,note_on,,,,,30,0,1,,,,,0,,,77,55
20924,note_on,,,,,14,0,1,,,,,0,,,81,0
20924,note_on,,,,,15,0,2,,,,,0,,,65,0
20939,note_on,,,,,59,0,6,,,,,1,,,53,0
20939,note_on,,,,,179,0,5,,,,,1,,,60,0
20939,note_on,,,,,15,0,1,,,,,0,,,77,0
20939,note_on,,,,,59,0,3,,,,,1,,,69,0
20939,note_on,,,,,182,0,4,,,,,1,,,64,78
20940,note_on,,,,,1,0,6,,,,,1,,,55,78
20940,note_on,,,,,16,0,2,,,,,0,,,64,88
20940,note_on,,,,,1,0,1,,,,,0,,,76,55
20940,note_on,,,,,0,0,2,,,,,0,,,55,78
20940,note_on,,,,,1,0,3,,,,,1,,,67,78
20940,note_on,,,,,1,0,5,,,,,1,,,58,78
20969,note_on,,,,,29,0,3,,,,,1,,,67,0
20969,note_on,,,,,29,0,1,,,,,0,,,76,0
20970,note_on,,,,,1,0,1,,,,,0,,,79,62
20984,note_on,,,,,44,0,2,,,,,0,,,55,0
20984,note_on,,,,,0,0,2,,,,,0,,,64,0
20998,note_on,,,,,59,0,4,,,,,1,,,64,0
20999,note_on,,,,,29,0,1,,,,,0,,,79,0
20999,note_on,,,,,59,0,6,,,,,1,,,55,0
20999,note_on,,,,,59,0,5,,,,,1,,,58,0
21000,note_on,,,,,1,0,6,,,,,1,,,57,68
21000,note_on,,,,,16,0,2,,,,,0,,,57,78
21000,note_on,,,,,0,0,2,,,,,0,,,62,78
21000,note_on,,,,,1,0,1,,,,,0,,,77,62
21000,note_on,,,,,31,0,3,,,,,1,,,65,78
21000,note_on,,,,,1,0,5,,,,,1,,,57,78
21000,note_on,,,,,2,0,4,,,,,1,,,62,78
21029,note_on,,,,,29,0,1,,,,,0,,,77,0
21029,note_on,,,,,29,0,2,,,,,0,,,57,0
21029,note_on,,,,,29,0,5,,,,,1,,,57,0
21030,note_on,,,,,1,0,1,,,,,0,,,74,62
21044,note_on,,,,,15,0,2,,,,,0,,,62,0
21058,note_on,,,,,58,0,4,,,,,1,,,61,78
21059,note_on,,,,,29,0,1,,,,,0,,,74,0
21059,note_on,,,,,59,0,6,,,,,1,,,57,0
21059,note_on,,,,,59,0,3,,,,,1,,,65,0
21060,note_on,,,,,1,0,3,,,,,1,,,64,68
21060,note_on,,,,,1,0,6,,,,,1,,,55,68
21060,note_on,,,,,16,0,2,,,,,0,,,55,88
21060,note_on,,,,,0,0,2,,,,,0,,,61,98
21060,note_on,,,,,31,0,5,,,,,1,,,57,58
21060,note_on,,,,,0,0,2,,,,,0,,,64,88
21060,note_on,,,,,1,0,1,,,,,0,,,73,62
21061,note_on,,,,,3,0,4,,,,,1,,,62,0
21089,note_on,,,,,29,0,2,,,,,0,,,64,0
21089,note_on,,,,,0,0,2,,,,,0,,,61,0
21089,note_on,,,,,29,0,1,,,,,0,,,73,0
21090,note_on,,,,,1,0,1,,,,,0,,,76,44
21104,note_on,,,,,15,0,2,,,,,0,,,55,0
21117,note_on,,,,,56,0,4,,,,,1,,,61,0
21119,note_on,,,,,29,0,1,,,,,0,,,76,0
21119,note_on,,,,,59,0,3,,,,,1,,,64,0
21119,note_on,,,,,59,0,6,,,,,1,,,55,0
21119,note_on,,,,,59,0,5,,,,,1,,,57,0
21120,note_on,,,,,1,0,5,,,,,1,,,57,50
21120,note_on,,,,,1,0,1,,,,,0,,,74,62
21120,note_on,,,,,1,0,3,,,,,1,,,65,90
21120,note_on,,,,,0,0,2,,,,,0,,,53,70
21120,note_on,,,,,16,0,2,,,,,0,,,62,78
21120,note_on,,,,,1,0,6,,,,,1,,,53,90
21134,note_on,,,,,17,0,4,,,,,1,,,60,78
21149,note_on,,,,,29,0,1,,,,,0,,,74,0
21150,note_on,,,,,1,0,1,,,,,0,,,73,70
21157,note_on,,,,,23,0,4,,,,,1,,,62,50
21166,note_on,,,,,9,0,4,,,,,1,,,60,0
21179,note_on,,,,,29,0,1,,,,,0,,,73,0
21180,note_on,,,,,1,0,1,,,,,0,,,74,78
21194,note_on,,,,,74,0,2,,,,,0,,,53,0
21194,note_on,,,,,0,0,2,,,,,0,,,62,0
21209,note_on,,,,,89,0,3,,,,,1,,,65,0
21209,note_on,,,,,89,0,5,,,,,1,,,57,0
21209,note_on,,,,,29,0,1,,,,,0,,,74,0
21210,note_on,,,,,1,0,1,,,,,0,,,76,70
21210,note_on,,,,,1,0,3,,,,,1,,,67,68
21210,note_on,,,,,1,0,5,,,,,1,,,55,58
21239,note_on,,,,,29,0,3,,,,,1,,,67,0
21239,note_on,,,,,119,0,6,,,,,1,,,53,0
21239,note_on,,,,,29,0,1,,,,,0,,,76,0
21239,note_on,,,,,29,0,5,,,,,1,,,55,0
21240,note_on,,,,,0,0,2,,,,,0,,,62,88
21240,note_on,,,,,1,0,1,,,,,0,,,77,78
21240,note_on,,,,,1,0,3,,,,,1,,,69,90
21240,note_on,,,,,1,0,5,,,,,1,,,53,78
21240,note_on,,,,,46,0,2,,,,,0,,,69,88
21240,note_on,,,,,0,0,2,,,,,0,,,65,98
21269,note_on,,,,,29,0,1,,,,,0,,,77,0
21270,note_on,,,,,1,0,1,,,,,0,,,79,70
21284,note_on,,,,,44,0,2,,,,,0,,,65,0
21284,note_on,,,,,0,0,2,,,,,0,,,62,0
21284,note_on,,,,,0,0,2,,,,,0,,,69,0
21285,note_on,,,,,119,0,4,,,,,1,,,62,0
21299,note_on,,,,,29,0,1,,,,,0,,,79,0
21299,note_on,,,,,59,0,5,,,,,1,,,53,0
21300,note_on,,,,,61,0,6,,,,,1,,,50,90
21300,note_on,,,,,16,0,2,,,,,0,,,50,70
21300,note_on,,,,,1,0,1,,,,,0,,,81,55
21300,note_on,,,,,1,0,5,,,,,1,,,65,68
21304,note_on,,,,,19,0,4,,,,,1,,,69,78
21329,note_on,,,,,29,0,1,,,,,0,,,81,0
21329,note_on,,,,,89,0,3,,,,,1,,,69,0
21330,note_on,,,,,1,0,1,,,,,0,,,77,62
21356,note_on,,,,,52,0,4,,,,,1,,,69,0
21358,note_on,,,,,2,0,4,,,,,1,,,67,78
21359,note_on,,,,,59,0,5,,,,,1,,,65,0
21359,note_on,,,,,29,0,1,,,,,0,,,77,0
21359,note_on,,,,,59,0,6,,,,,1,,,50,0
21359,note_on,,,,,59,0,2,,,,,0,,,50,0
21360,note_on,,,,,1,0,6,,,,,1,,,52,78
21360,note_on,,,,,1,0,1,,,,,0,,,79,70
21360,note_on,,,,,1,0,2,,,,,0,,,60,70
21360,note_on,,,,,0,0,2,,,,,0,,,52,70
21360,note_on,,,,,1,0,5,,,,,1,,,64,68
21389,note_on,,,,,29,0,1,,,,,0,,,79,0
21390,note_on,,,,,1,0,1,,,,,0,,,76,55
21404,note_on,,,,,0,0,2,,,,,0,,,60,0
21404,note_on,,,,,44,0,2,,,,,0,,,52,0
21413,note_on,,,,,55,0,4,,,,,1,,,67,0
21415,note_on,,,,,2,0,4,,,,,1,,,65,68
21419,note_on,,,,,29,0,1,,,,,0,,,76,0
21419,note_on,,,,,59,0,6,,,,,1,,,52,0
21419,note_on,,,,,59,0,5,,,,,1,,,64,0
21420,note_on,,,,,0,0,2,,,,,0,,,53,70
21420,note_on,,,,,91,0,3,,,,,1,,,69,78
21420,note_on,,,,,1,0,6,,,,,1,,,53,78
21420,note_on,,,,,1,0,5,,,,,1,,,62,78
21420,note_on,,,,,1,0,1,,,,,0,,,74,70
21420,note_on,,,,,16,0,2,,,,,0,,,62,78
21449,note_on,,,,,29,0,2,,,,,0,,,53,0
21449,note_on,,,,,29,0,1,,,,,0,,,74,0
21450,note_on,,,,,1,0,1,,,,,0,,,77,62
21464,note_on,,,,,15,0,2,,,,,0,,,62,0
21465,note_on,,,,,50,0,4,,,,,1,,,65,0
21473,note_on,,,,,8,0,4,,,,,1,,,64,78
21479,note_on,,,,,59,0,6,,,,,1,,,53,0
21479,note_on,,,,,59,0,3,,,,,1,,,69,0
21479,note_on,,,,,29,0,1,,,,,0,,,77,0
21479,note_on,,,,,59,0,5,,,,,1,,,62,0
21480,note_on,,,,,1,0,1,,,,,0,,,76,62
21480,note_on,,,,,1,0,5,,,,,1,,,60,68
21480,note_on,,,,,1,0,6,,,,,1,,,55,78
21480,note_on,,,,,0,0,2,,,,,0,,,55,62
21480,note_on,,,,,16,0,2,,,,,0,,,64,78
21480,note_on,,,,,0,0,2,,,,,0,,,60,70
21480,note_on,,,,,1,0,3,,,,,1,,,72,90
21509,note_on,,,,,29,0,2,,,,,0,,,60,0
21509,note_on,,,,,0,0,2,,,,,0,,,64,0
21509,note_on,,,,,0,0,2,,,,,0,,,55,0
21509,note_on,,,,,29,0,1,,,,,0,,,76,0
21510,note_on,,,,,1,0,1,,,,,0,,,72,55
21533,note_on,,,,,60,0,4,,,,,1,,,64,0
21536,note_on,,,,,3,0,4,,,,,1,,,62,78
21539,note_on,,,,,59,0,5,,,,,1,,,60,0
21539,note_on,,,,,59,0,3,,,,,1,,,72,0
21539,note_on,,,,,29,0,1,,,,,0,,,72,0
21539,note_on,,,,,59,0,6,,,,,1,,,55,0
21540,note_on,,,,,1,0,6,,,,,1,,,53,68
21540,note_on,,,,,0,0,2,,,,,0,,,53,70
21540,note_on,,,,,0,0,2,,,,,0,,,62,88
21540,note_on,,,,,1,0,1,,,,,0,,,71,70
21540,note_on,,,,,1,0,5,,,,,1,,,55,68
21540,note_on,,,,,31,0,2,,,,,0,,,55,78
21540,note_on,,,,,1,0,3,,,,,1,,,71,78
21569,note_on,,,,,29,0,1,,,,,0,,,71,0
21569,note_on,,,,,29,0,2,,,,,0,,,53,0
21569,note_on,,,,,0,0,2,,,,,0,,,55,0
21569,note_on,,,,,29,0,5,,,,,1,,,55,0
21569,note_on,,,,,0,0,2,,,,,0,,,62,0
21570,note_on,,,,,1,0,1,,,,,0,,,74,70
21586,note_on,,,,,50,0,4,,,,,1,,,62,0
21596,note_on,,,,,10,0,4,,,,,1,,,67,78
21599,note_on,,,,,59,0,6,,,,,1,,,53,0
21599,note_on,,,,,29,0,1,,,,,0,,,74,0
21599,note_on,,,,,59,0,3,,,,,1,,,71,0
21600,note_on,,,,,1,0,1,,,,,0,,,72,62
21600,note_on,,,,,1,0,3,,,,,1,,,72,78
21600,note_on,,,,,31,0,5,,,,,1,,,55,90
21600,note_on,,,,,31,0,2,,,,,0,,,55,78
21600,note_on,,,,,0,0,2,,,,,0,,,52,78
21600,note_on,,,,,1,0,6,,,,,1,,,52,78
21629,note_on,,,,,29,0,1,,,,,0,,,72,0
21630,note_on,,,,,1,0,1,,,,,0,,,71,49
21659,note_on,,,,,0,0,2,,,,,0,,,55,0
21659,note_on,,,,,59,0,2,,,,,0,,,52,0
21659,note_on,,,,,29,0,1,,,,,0,,,71,0
21660,note_on,,,,,1,0,1,,,,,0,,,72,62
21689,note_on,,,,,29,0,1,,,,,0,,,72,0
21689,note_on,,,,,89,0,3,,,,,1,,,72,0
21689,note_on,,,,,89,0,5,,,,,1,,,55,0
21690,note_on,,,,,1,0,1,,,,,0,,,74,70
21690,note_on,,,,,31,0,2,,,,,0,,,59,78
21690,note_on,,,,,0,0,2,,,,,0,,,65,88
21690,note_on,,,,,1,0,5,,,,,1,,,59,68
21690,note_on,,,,,1,0,3,,,,,1,,,74,78
21691,note_on,,,,,95,0,4,,,,,1,,,67,0
21692,note_on,,,,,1,0,4,,,,,1,,,65,78
21704,note_on,,,,,14,0,2,,,,,0,,,65,0
21704,note_on,,,,,0,0,2,,,,,0,,,59,0
21713,note_on,,,,,21,0,4,,,,,1,,,65,0
21716,note_on,,,,,3,0,4,,,,,1,,,64,78
21719,note_on,,,,,29,0,5,,,,,1,,,59,0
21719,note_on,,,,,29,0,3,,,,,1,,,74,0
21719,note_on,,,,,119,0,6,,,,,1,,,52,0
21719,note_on,,,,,29,0,1,,,,,0,,,74,0
21720,note_on,,,,,1,0,1,,,,,0,,,76,44
21720,note_on,,,,,1,0,5,,,,,1,,,60,78
21720,note_on,,,,,16,0,2,,,,,0,,,60,88
21720,note_on,,,,,0,0,2,,,,,0,,,64,88
21720,note_on,,,,,1,0,3,,,,,1,,,76,78
21749,note_on,,,,,29,0,3,,,,,1,,,76,0
21749,note_on,,,,,29,0,1,,,,,0,,,76,0
21750,note_on,,,,,1,0,1,,,,,0,,,77,49
21764,note_on,,,,,14,0,1,,,,,0,,,77,0
21780,note_on,,,,,31,0,3,,,,,1,,,72,78
21780,note_on,,,,,16,0,1,,,,,0,,,79,55
21786,note_on,,,,,70,0,4,,,,,1,,,64,0
21809,note_on,,,,,29,0,3,,,,,1,,,72,0
21809,note_on,,,,,29,0,1,,,,,0,,,79,0
21809,note_on,,,,,89,0,2,,,,,0,,,64,0
21810,note_on,,,,,1,0,1,,,,,0,,,76,49
21824,note_on,,,,,15,0,2,,,,,0,,,60,0
21839,note_on,,,,,29,0,1,,,,,0,,,76,0
21839,note_on,,,,,119,0,5,,,,,1,,,60,0
21840,note_on,,,,,31,0,3,,,,,1,,,77,90
21840,note_on,,,,,16,0,2,,,,,0,,,69,78
21840,note_on,,,,,1,0,1,,,,,0,,,77,70
21869,note_on,,,,,29,0,2,,,,,0,,,69,0
21899,note_on,,,,,59,0,1,,,,,0,,,77,0
21900,note_on,,,,,181,0,6,,,,,1,,,57,78
21900,note_on,,,,,1,0,1,,,,,0,,,76,70
21900,note_on,,,,,31,0,2,,,,,0,,,57,49
21900,note_on,,,,,61,0,5,,,,,1,,,60,78
21914,note_on,,,,,14,0,2,,,,,0,,,57,0
21929,note_on,,,,,29,0,1,,,,,0,,,76,0
21929,note_on,,,,,89,0,3,,,,,1,,,77,0
21930,note_on,,,,,1,0,1,,,,,0,,,77,78
21944,note_on,,,,,14,0,1,,,,,0,,,77,0
21959,note_on,,,,,59,0,6,,,,,1,,,57,0
21959,note_on,,,,,59,0,5,,,,,1,,,60,0
21960,note_on,,,,,1,0,6,,,,,1,,,53,78
21960,note_on,,,,,1,0,5,,,,,1,,,57,78
21960,note_on,,,,,46,0,2,,,,,0,,,57,78
21960,note_on,,,,,0,0,2,,,,,0,,,53,70
21960,note_on,,,,,16,0,1,,,,,0,,,77,78
21960,note_on,,,,,31,0,3,,,,,1,,,77,90
21989,note_on,,,,,29,0,2,,,,,0,,,53,0
22019,note_on,,,,,59,0,5,,,,,1,,,57,0
22019,note_on,,,,,59,0,6,,,,,1,,,53,0
22019,note_on,,,,,30,0,2,,,,,0,,,57,0
22019,note_on,,,,,59,0,1,,,,,0,,,77,0
22020,note_on,,,,,1,0,2,,,,,0,,,52,70
22020,note_on,,,,,1,0,1,,,,,0,,,76,62
22020,note_on,,,,,1,0,5,,,,,1,,,55,58
22020,note_on,,,,,1,0,6,,,,,1,,,52,78
22049,note_on,,,,,89,0,3,,,,,1,,,77,0
22049,note_on,,,,,29,0,1,,,,,0,,,76,0
22049,note_on,,,,,29,0,6,,,,,1,,,52,0
22049,note_on,,,,,29,0,5,,,,,1,,,55,0
22050,note_on,,,,,1,0,1,,,,,0,,,77,70
22064,note_on,,,,,14,0,1,,,,,0,,,77,0
22064,note_on,,,,,44,0,2,,,,,0,,,52,0
22080,note_on,,,,,16,0,1,,,,,0,,,77,88
22080,note_on,,,,,31,0,6,,,,,1,,,50,68
22080,note_on,,,,,31,0,3,,,,,1,,,77,90
22080,note_on,,,,,16,0,2,,,,,0,,,50,78
22080,note_on,,,,,31,0,5,,,,,1,,,53,78
22124,note_on,,,,,44,0,2,,,,,0,,,50,0
22135,note_on,,,,,349,0,4,,,,,1,,,69,78
22139,note_on,,,,,59,0,5,,,,,1,,,53,0
22139,note_on,,,,,59,0,1,,,,,0,,,77,0
22140,note_on,,,,,1,0,5,,,,,1,,,57,58
22140,note_on,,,,,16,0,2,,,,,0,,,65,98
22140,note_on,,,,,1,0,1,,,,,0,,,76,55
22169,note_on,,,,,89,0,3,,,,,1,,,77,0
22169,note_on,,,,,29,0,1,,,,,0,,,76,0
22170,note_on,,,,,1,0,1,,,,,0,,,77,70
22184,note_on,,,,,14,0,1,,,,,0,,,77,0
22184,note_on,,,,,44,0,2,,,,,0,,,65,0
22199,note_on,,,,,64,0,4,,,,,1,,,69,0
22199,note_on,,,,,59,0,5,,,,,1,,,57,0
22199,note_on,,,,,0,0,4,,,,,1,,,65,90
22199,note_on,,,,,119,0,6,,,,,1,,,50,0
22200,note_on,,,,,16,0,1,,,,,0,,,77,78
22200,note_on,,,,,1,0,6,,,,,1,,,62,90
22200,note_on,,,,,16,0,2,,,,,0,,,65,88
22200,note_on,,,,,31,0,3,,,,,1,,,77,90
22200,note_on,,,,,0,0,2,,,,,0,,,62,78
22200,note_on,,,,,1,0,5,,,,,1,,,62,78
22244,note_on,,,,,44,0,2,,,,,0,,,65,0
22251,note_on,,,,,52,0,4,,,,,1,,,65,0
22252,note_on,,,,,1,0,4,,,,,1,,,64,68
22259,note_on,,,,,59,0,6,,,,,1,,,62,0
22259,note_on,,,,,59,0,1,,,,,0,,,77,0
22259,note_on,,,,,15,0,2,,,,,0,,,62,0
22260,note_on,,,,,0,0,2,,,,,0,,,64,62
22260,note_on,,,,,1,0,6,,,,,1,,,60,68
22260,note_on,,,,,1,0,2,,,,,0,,,60,70
22260,note_on,,,,,60,0,5,,,,,1,,,64,58
22260,note_on,,,,,1,0,1,,,,,0,,,76,62
22289,note_on,,,,,29,0,5,,,,,1,,,62,0
22289,note_on,,,,,89,0,3,,,,,1,,,77,0
22289,note_on,,,,,29,0,1,,,,,0,,,76,0
22290,note_on,,,,,1,0,1,,,,,0,,,77,70
22304,note_on,,,,,14,0,1,,,,,0,,,77,0
22304,note_on,,,,,52,0,4,,,,,1,,,64,0
22315,note_on,,,,,11,0,4,,,,,1,,,62,78
22319,note_on,,,,,0,0,2,,,,,0,,,60,0
22319,note_on,,,,,30,0,5,,,,,1,,,64,0
22319,note_on,,,,,59,0,2,,,,,0,,,64,0
22319,note_on,,,,,59,0,6,,,,,1,,,60,0
22320,note_on,,,,,1,0,2,,,,,0,,,59,70
22320,note_on,,,,,1,0,6,,,,,1,,,59,78
22320,note_on,,,,,1,0,5,,,,,1,,,65,78
22320,note_on,,,,,16,0,1,,,,,0,,,77,78
22320,note_on,,,,,31,0,3,,,,,1,,,77,90
22320,note_on,,,,,0,0,2,,,,,0,,,62,70
22349,note_on,,,,,29,0,1,,,,,0,,,77,0
22349,note_on,,,,,29,0,2,,,,,0,,,62,0
22350,note_on,,,,,1,0,1,,,,,0,,,74,62
22364,note_on,,,,,15,0,2,,,,,0,,,59,0
22379,note_on,,,,,29,0,1,,,,,0,,,74,0
22379,note_on,,,,,59,0,6,,,,,1,,,59,0
22380,note_on,,,,,16,0,2,,,,,0,,,65,88
22380,note_on,,,,,0,0,2,,,,,0,,,62,78
22380,note_on,,,,,1,0,1,,,,,0,,,83,78
22380,note_on,,,,,1,0,6,,,,,1,,,62,78
22409,note_on,,,,,29,0,1,,,,,0,,,83,0
22409,note_on,,,,,89,0,3,,,,,1,,,77,0
22409,note_on,,,,,29,0,2,,,,,0,,,62,0
22410,note_on,,,,,1,0,1,,,,,0,,,71,62
22420,note_on,,,,,105,0,4,,,,,1,,,62,0
22424,note_on,,,,,15,0,2,,,,,0,,,65,0
22439,note_on,,,,,119,0,5,,,,,1,,,65,0
22439,note_on,,,,,29,0,1,,,,,0,,,71,0
22439,note_on,,,,,59,0,6,,,,,1,,,62,0
22440,note_on,,,,,1,0,5,,,,,1,,,59,78
22440,note_on,,,,,1,0,1,,,,,0,,,83,70
22440,note_on,,,,,1,0,6,,,,,1,,,59,78
22440,note_on,,,,,31,0,3,,,,,1,,,77,78
22440,note_on,,,,,16,0,2,,,,,0,,,62,88
22440,note_on,,,,,0,0,2,,,,,0,,,59,78
22440,note_on,,,,,20,0,4,,,,,1,,,74,90
22454,note_on,,,,,14,0,2,,,,,0,,,62,0
22469,note_on,,,,,29,0,3,,,,,1,,,77,0
22469,note_on,,,,,29,0,1,,,,,0,,,83,0
22469,note_on,,,,,15,0,2,,,,,0,,,59,0
22470,note_on,,,,,1,0,1,,,,,0,,,79,55
22499,note_on,,,,,59,0,5,,,,,1,,,59,0
22499,note_on,,,,,59,0,6,,,,,1,,,59,0
22499,note_on,,,,,29,0,1,,,,,0,,,79,0
22500,note_on,,,,,0,0,2,,,,,0,,,57,70
22500,note_on,,,,,31,0,2,,,,,0,,,60,70
22500,note_on,,,,,31,0,3,,,,,1,,,77,90
22500,note_on,,,,,1,0,5,,,,,1,,,60,68
22500,note_on,,,,,1,0,1,,,,,0,,,86,70
22500,note_on,,,,,1,0,6,,,,,1,,,57,78
22505,note_on,,,,,65,0,4,,,,,1,,,72,68
22509,note_on,,,,,4,0,4,,,,,1,,,74,0
22514,note_on,,,,,0,0,2,,,,,0,,,60,0
22514,note_on,,,,,14,0,2,,,,,0,,,57,0
22529,note_on,,,,,29,0,3,,,,,1,,,77,0
22529,note_on,,,,,29,0,1,,,,,0,,,86,0
22530,note_on,,,,,1,0,1,,,,,0,,,74,55
22559,note_on,,,,,59,0,6,,,,,1,,,57,0
22559,note_on,,,,,29,0,1,,,,,0,,,74,0
22559,note_on,,,,,59,0,5,,,,,1,,,60,0
22560,note_on,,,,,1,0,6,,,,,1,,,55,78
22560,note_on,,,,,0,0,2,,,,,0,,,55,88
22560,note_on,,,,,0,0,2,,,,,0,,,59,88
22560,note_on,,,,,31,0,3,,,,,1,,,77,90
22560,note_on,,,,,1,0,1,,,,,0,,,83,62
22560,note_on,,,,,1,0,5,,,,,1,,,62,90
22560,note_on,,,,,46,0,2,,,,,0,,,65,110
22564,note_on,,,,,55,0,4,,,,,1,,,72,0
22565,note_on,,,,,1,0,4,,,,,1,,,71,90
22574,note_on,,,,,14,0,1,,,,,0,,,83,0
22590,note_on,,,,,16,0,1,,,,,0,,,86,88
22619,note_on,,,,,29,0,1,,,,,0,,,86,0
22620,note_on,,,,,1,0,1,,,,,0,,,84,70
22649,note_on,,,,,29,0,1,,,,,0,,,84,0
22649,note_on,,,,,89,0,2,,,,,0,,,55,0
22650,note_on,,,,,1,0,1,,,,,0,,,86,62
22664,note_on,,,,,0,0,2,,,,,0,,,65,0
22664,note_on,,,,,15,0,2,,,,,0,,,59,0
22679,note_on,,,,,29,0,1,,,,,0,,,86,0
22680,note_on,,,,,16,0,2,,,,,0,,,55,78
22680,note_on,,,,,1,0,1,,,,,0,,,83,62
22709,note_on,,,,,29,0,1,,,,,0,,,83,0
22710,note_on,,,,,1,0,1,,,,,0,,,84,55
22739,note_on,,,,,29,0,1,,,,,0,,,84,0
22740,note_on,,,,,1,0,1,,,,,0,,,81,62
22754,note_on,,,,,74,0,2,,,,,0,,,55,0
22769,note_on,,,,,209,0,6,,,,,1,,,55,0
22769,note_on,,,,,29,0,1,,,,,0,,,81,0
22769,note_on,,,,,209,0,3,,,,,1,,,77,0
22769,note_on,,,,,209,0,5,,,,,1,,,62,0
22770,note_on,,,,,1,0,1,,,,,0,,,83,55
22770,note_on,,,,,16,0,2,,,,,0,,,55,62
22776,note_on,,,,,211,0,4,,,,,1,,,71,0
22784,note_on,,,,,14,0,2,,,,,0,,,55,0
22796,note_on,,,,,20,0,4,,,,,1,,,71,90
22799,note_on,,,,,29,0,1,,,,,0,,,83,0
22800,note_on,,,,,16,0,2,,,,,0,,,55,98
22800,note_on,,,,,31,0,5,,,,,1,,,62,90
22800,note_on,,,,,1,0,1,,,,,0,,,79,62
22800,note_on,,,,,0,0,2,,,,,0,,,59,98
22800,note_on,,,,,0,0,2,,,,,0,,,65,98
22800,note_on,,,,,31,0,3,,,,,1,,,77,90
22800,note_on,,,,,31,0,6,,,,,1,,,55,90
22829,note_on,,,,,29,0,1,,,,,0,,,79,0
22830,note_on,,,,,1,0,1,,,,,0,,,81,44
22859,note_on,,,,,29,0,1,,,,,0,,,81,0
22860,note_on,,,,,1,0,1,,,,,0,,,77,62
22889,note_on,,,,,29,0,1,,,,,0,,,77,0
22890,note_on,,,,,1,0,1,,,,,0,,,79,44
22904,note_on,,,,,0,0,2,,,,,0,,,55,0
22904,note_on,,,,,104,0,2,,,,,0,,,59,0
22919,note_on,,,,,29,0,1,,,,,0,,,79,0
22919,note_on,,,,,15,0,2,,,,,0,,,65,0
22920,note_on,,,,,1,0,1,,,,,0,,,76,70
22920,note_on,,,,,1,0,2,,,,,0,,,55,78
22949,note_on,,,,,149,0,3,,,,,1,,,77,0
22949,note_on,,,,,149,0,5,,,,,1,,,62,0
22949,note_on,,,,,29,0,1,,,,,0,,,76,0
22949,note_on,,,,,149,0,6,,,,,1,,,55,0
22950,note_on,,,,,1,0,1,,,,,0,,,77,55
22964,note_on,,,,,44,0,2,,,,,0,,,55,0
22973,note_on,,,,,177,0,4,,,,,1,,,71,0
22975,note_on,,,,,2,0,4,,,,,1,,,67,90
22979,note_on,,,,,29,0,1,,,,,0,,,77,0
22980,note_on,,,,,31,0,6,,,,,1,,,55,78
22980,note_on,,,,,16,0,2,,,,,0,,,55,70
22980,note_on,,,,,31,0,5,,,,,1,,,62,78
22980,note_on,,,,,1,0,1,,,,,0,,,74,55
22980,note_on,,,,,31,0,3,,,,,1,,,77,78
23009,note_on,,,,,29,0,1,,,,,0,,,74,0
23010,note_on,,,,,1,0,1,,,,,0,,,77,70
23011,note_on,,,,,36,0,4,,,,,1,,,67,0
23024,note_on,,,,,44,0,2,,,,,0,,,55,0
23035,note_on,,,,,24,0,4,,,,,1,,,67,90
23039,note_on,,,,,59,0,6,,,,,1,,,55,0
23039,note_on,,,,,29,0,1,,,,,0,,,77,0
23039,note_on,,,,,59,0,5,,,,,1,,,62,0
23039,note_on,,,,,59,0,3,,,,,1,,,77,0
23040,note_on,,,,,1,0,5,,,,,1,,,64,78
23040,note_on,,,,,1,0,6,,,,,1,,,60,90
23040,note_on,,,,,1,0,1,,,,,0,,,76,62
23040,note_on,,,,,16,0,2,,,,,0,,,64,88
23040,note_on,,,,,1,0,3,,,,,1,,,76,78
23040,note_on,,,,,0,0,2,,,,,0,,,60,88
23069,note_on,,,,,29,0,1,,,,,0,,,76,0
23070,note_on,,,,,1,0,1,,,,,0,,,79,62
23099,note_on,,,,,29,0,1,,,,,0,,,79,0
23100,note_on,,,,,1,0,1,,,,,0,,,77,62
23129,note_on,,,,,29,0,1,,,,,0,,,77,0
23130,note_on,,,,,1,0,1,,,,,0,,,76,55
23144,note_on,,,,,104,0,2,,,,,0,,,60,0
23144,note_on,,,,,0,0,2,,,,,0,,,64,0
23147,note_on,,,,,112,0,4,,,,,1,,,67,0
23155,note_on,,,,,8,0,4,,,,,1,,,69,78
23159,note_on,,,,,29,0,1,,,,,0,,,76,0
23159,note_on,,,,,119,0,5,,,,,1,,,64,0
23159,note_on,,,,,119,0,3,,,,,1,,,76,0
23159,note_on,,,,,119,0,6,,,,,1,,,60,0
23160,note_on,,,,,0,0,2,,,,,0,,,62,78
23160,note_on,,,,,0,0,2,,,,,0,,,53,70
23160,note_on,,,,,1,0,5,,,,,1,,,65,78
23160,note_on,,,,,1,0,1,,,,,0,,,81,78
23160,note_on,,,,,1,0,3,,,,,1,,,74,90
23160,note_on,,,,,16,0,2,,,,,0,,,57,88
23160,note_on,,,,,1,0,6,,,,,1,,,53,78
23189,note_on,,,,,29,0,6,,,,,1,,,53,0
23189,note_on,,,,,29,0,5,,,,,1,,,65,0
23189,note_on,,,,,29,0,1,,,,,0,,,81,0
23189,note_on,,,,,29,0,3,,,,,1,,,74,0
23190,note_on,,,,,1,0,1,,,,,0,,,77,62
23195,note_on,,,,,40,0,4,,,,,1,,,69,0
23213,note_on,,,,,18,0,4,,,,,1,,,69,90
23220,note_on,,,,,31,0,5,,,,,1,,,65,78
23220,note_on,,,,,31,0,6,,,,,1,,,53,78
23220,note_on,,,,,30,0,1,,,,,0,,,76,70
23220,note_on,,,,,31,0,3,,,,,1,,,74,78
23234,note_on,,,,,14,0,1,,,,,0,,,77,0
23249,note_on,,,,,89,0,2,,,,,0,,,53,0
23249,note_on,,,,,15,0,1,,,,,0,,,76,0
23250,note_on,,,,,1,0,1,,,,,0,,,74,70
23264,note_on,,,,,0,0,2,,,,,0,,,57,0
23264,note_on,,,,,15,0,2,,,,,0,,,62,0
23267,note_on,,,,,54,0,4,,,,,1,,,69,0
23275,note_on,,,,,8,0,4,,,,,1,,,67,90
23279,note_on,,,,,59,0,6,,,,,1,,,53,0
23279,note_on,,,,,59,0,3,,,,,1,,,74,0
23279,note_on,,,,,29,0,1,,,,,0,,,74,0
23279,note_on,,,,,59,0,5,,,,,1,,,65,0
23280,note_on,,,,,1,0,1,,,,,0,,,79,70
23280,note_on,,,,,0,0,2,,,,,0,,,60,88
23280,note_on,,,,,1,0,5,,,,,1,,,64,78
23280,note_on,,,,,1,0,6,,,,,1,,,55,90
23280,note_on,,,,,0,0,2,,,,,0,,,55,78
23280,note_on,,,,,16,0,2,,,,,0,,,64,88
23280,note_on,,,,,1,0,3,,,,,1,,,72,78
23309,note_on,,,,,29,0,1,,,,,0,,,79,0
23310,note_on,,,,,1,0,1,,,,,0,,,76,49
23339,note_on,,,,,29,0,1,,,,,0,,,76,0
23340,note_on,,,,,1,0,1,,,,,0,,,74,62
23369,note_on,,,,,89,0,2,,,,,0,,,60,0
23369,note_on,,,,,0,0,2,,,,,0,,,55,0
23369,note_on,,,,,29,0,1,,,,,0,,,74,0
23369,note_on,,,,,0,0,2,,,,,0,,,64,0
23370,note_on,,,,,1,0,1,,,,,0,,,72,55
23399,note_on,,,,,29,0,1,,,,,0,,,72,0
23399,note_on,,,,,119,0,3,,,,,1,,,72,0
23399,note_on,,,,,119,0,5,,,,,1,,,64,0
23400,note_on,,,,,1,0,3,,,,,1,,,71,90
23400,note_on,,,,,31,0,2,,,,,0,,,62,78
23400,note_on,,,,,0,0,2,,,,,0,,,55,78
23400,note_on,,,,,0,0,2,,,,,0,,,59,78
23400,note_on,,,,,1,0,5,,,,,1,,,62,78
23400,note_on,,,,,1,0,1,,,,,0,,,77,78
23429,note_on,,,,,29,0,1,,,,,0,,,77,0
23430,note_on,,,,,1,0,1,,,,,0,,,74,62
23459,note_on,,,,,29,0,1,,,,,0,,,74,0
23460,note_on,,,,,1,0,1,,,,,0,,,72,70
23489,note_on,,,,,29,0,1,,,,,0,,,72,0
23490,note_on,,,,,1,0,1,,,,,0,,,71,49
23503,note_on,,,,,228,0,4,,,,,1,,,67,0
23519,note_on,,,,,29,0,1,,,,,0,,,71,0
23519,note_on,,,,,119,0,3,,,,,1,,,71,0
23519,note_on,,,,,119,0,2,,,,,0,,,59,0
23519,note_on,,,,,119,0,5,,,,,1,,,62,0
23519,note_on,,,,,0,0,2,,,,,0,,,62,0
23519,note_on,,,,,239,0,6,,,,,1,,,55,0
23519,note_on,,,,,0,0,2,,,,,0,,,55,0
23520,note_on,,,,,1,0,2,,,,,0,,,52,70
23520,note_on,,,,,0,0,2,,,,,0,,,48,78
23520,note_on,,,,,1,0,3,,,,,1,,,72,90
23520,note_on,,,,,0,0,2,,,,,0,,,60,88
23520,note_on,,,,,1,0,6,,,,,1,,,48,78
23520,note_on,,,,,1,0,5,,,,,1,,,60,90
23520,note_on,,,,,1,0,1,,,,,0,,,72,62
23521,note_on,,,,,18,0,4,,,,,1,,,67,90
23549,note_on,,,,,29,0,1,,,,,0,,,72,0
23550,note_on,,,,,1,0,1,,,,,0,,,67,70
23579,note_on,,,,,29,0,1,,,,,0,,,67,0
23580,note_on,,,,,1,0,1,,,,,0,,,69,70
23609,note_on,,,,,29,0,1,,,,,0,,,69,0
23609,note_on,,,,,89,0,5,,,,,1,,,60,0
23610,note_on,,,,,1,0,1,,,,,0,,,71,62
23625,note_on,,,,,104,0,4,,,,,1,,,67,0
23639,note_on,,,,,29,0,1,,,,,0,,,71,0
23639,note_on,,,,,119,0,6,,,,,1,,,48,0
23639,note_on,,,,,119,0,2,,,,,0,,,60,0
23639,note_on,,,,,0,0,2,,,,,0,,,48,0
23639,note_on,,,,,0,0,2,,,,,0,,,52,0
23639,note_on,,,,,119,0,3,,,,,1,,,72,0
23640,note_on,,,,,1,0,1,,,,,0,,,72,62
23669,note_on,,,,,29,0,1,,,,,0,,,72,0
23670,note_on,,,,,1,0,1,,,,,0,,,74,70
23699,note_on,,,,,29,0,1,,,,,0,,,74,0
23700,note_on,,,,,1,0,1,,,,,0,,,76,62
23700,note_on,,,,,61,0,3,,,,,1,,,76,78
23729,note_on,,,,,29,0,1,,,,,0,,,76,0
23730,note_on,,,,,1,0,1,,,,,0,,,77,70
23759,note_on,,,,,59,0,3,,,,,1,,,76,0
23759,note_on,,,,,29,0,1,,,,,0,,,77,0
23760,note_on,,,,,1,0,3,,,,,1,,,79,78
23760,note_on,,,,,1,0,1,,,,,0,,,79,70
23789,note_on,,,,,29,0,1,,,,,0,,,79,0
23790,note_on,,,,,1,0,1,,,,,0,,,76,49
23819,note_on,,,,,59,0,3,,,,,1,,,79,0
23819,note_on,,,,,29,0,1,,,,,0,,,76,0
23820,note_on,,,,,1,0,3,,,,,1,,,77,68
23820,note_on,,,,,1,0,1,,,,,0,,,77,62
23849,note_on,,,,,29,0,1,,,,,0,,,77,0
23850,note_on,,,,,1,0,1,,,,,0,,,74,62
23879,note_on,,,,,29,0,1,,,,,0,,,74,0
23879,note_on,,,,,59,0,3,,,,,1,,,77,0
23880,note_on,,,,,1,0,1,,,,,0,,,76,55
23880,note_on,,,,,1,0,3,,,,,1,,,76,68
23909,note_on,,,,,29,0,1,,,,,0,,,76,0
23910,note_on,,,,,1,0,1,,,,,0,,,72,55
23939,note_on,,,,,29,0,1,,,,,0,,,72,0
23939,note_on,,,,,59,0,3,,,,,1,,,76,0
23940,note_on,,,,,315,0,4,,,,,1,,,67,78
23940,note_on,,,,,301,0,2,,,,,0,,,67,70
23940,note_on,,,,,1,0,1,,,,,0,,,74,70
23940,note_on,,,,,1,0,3,,,,,1,,,74,68
23969,note_on,,,,,29,0,1,,,,,0,,,74,0
23969,note_on,,,,,29,0,2,,,,,0,,,67,0
23969,note_on,,,,,29,0,3,,,,,1,,,74,0
23970,note_on,,,,,1,0,1,,,,,0,,,71,62
23991,note_on,,,,,51,0,4,,,,,1,,,67,0
23999,note_on,,,,,29,0,1,,,,,0,,,71,0
24000,note_on,,,,,1,0,1,,,,,0,,,72,78
24000,note_on,,,,,31,0,3,,,,,1,,,72,78
24000,note_on,,,,,31,0,2,,,,,0,,,69,70
24000,note_on,,,,,9,0,4,,,,,1,,,69,90
24029,note_on,,,,,29,0,2,,,,,0,,,69,0
24030,note_on,,,,,1,0,2,,,,,0,,,71,55
24054,note_on,,,,,54,0,4,,,,,1,,,67,58
24058,note_on,,,,,4,0,4,,,,,1,,,69,0
24059,note_on,,,,,59,0,1,,,,,0,,,72,0
24059,note_on,,,,,29,0,2,,,,,0,,,71,0
24060,note_on,,,,,1,0,2,,,,,0,,,67,62
24089,note_on,,,,,29,0,2,,,,,0,,,67,0
24090,note_on,,,,,1,0,2,,,,,0,,,69,49
24113,note_on,,,,,55,0,4,,,,,1,,,67,0
24115,note_on,,,,,2,0,4,,,,,1,,,65,68
24119,note_on,,,,,29,0,2,,,,,0,,,69,0
24120,note_on,,,,,1,0,2,,,,,0,,,65,70
24149,note_on,,,,,29,0,2,,,,,0,,,65,0
24150,note_on,,,,,1,0,2,,,,,0,,,67,13
24167,note_on,,,,,52,0,4,,,,,1,,,65,0
24169,note_on,,,,,2,0,4,,,,,1,,,64,58
24179,note_on,,,,,179,0,3,,,,,1,,,72,0
24179,note_on,,,,,29,0,2,,,,,0,,,67,0
24180,note_on,,,,,121,0,1,,,,,0,,,76,70
24180,note_on,,,,,1,0,3,,,,,1,,,76,68
24180,note_on,,,,,1,0,2,,,,,0,,,64,55
24209,note_on,,,,,29,0,1,,,,,0,,,76,0
24209,note_on,,,,,29,0,2,,,,,0,,,64,0
24209,note_on,,,,,29,0,3,,,,,1,,,76,0
24210,note_on,,,,,1,0,1,,,,,0,,,72,62
24210,note_on,,,,,1,0,3,,,,,1,,,72,78
24210,note_on,,,,,1,0,2,,,,,0,,,65,62
24230,note_on,,,,,61,0,4,,,,,1,,,64,0
24236,note_on,,,,,6,0,4,,,,,1,,,62,68
24239,note_on,,,,,29,0,2,,,,,0,,,65,0
24239,note_on,,,,,29,0,1,,,,,0,,,72,0
24239,note_on,,,,,29,0,3,,,,,1,,,72,0
24240,note_on,,,,,1,0,2,,,,,0,,,62,70
24240,note_on,,,,,1,0,1,,,,,0,,,77,70
24240,note_on,,,,,1,0,3,,,,,1,,,77,90
24269,note_on,,,,,29,0,1,,,,,0,,,77,0
24270,note_on,,,,,1,0,1,,,,,0,,,79,44
24299,note_on,,,,,29,0,1,,,,,0,,,79,0
24299,note_on,,,,,59,0,3,,,,,1,,,77,0
24300,note_on,,,,,1,0,1,,,,,0,,,76,62
24300,note_on,,,,,1,0,3,,,,,1,,,76,78
24329,note_on,,,,,29,0,1,,,,,0,,,76,0
24330,note_on,,,,,1,0,1,,,,,0,,,77,44
24359,note_on,,,,,29,0,1,,,,,0,,,77,0
24359,note_on,,,,,59,0,3,,,,,1,,,76,0
24360,note_on,,,,,1,0,1,,,,,0,,,74,70
24360,note_on,,,,,1,0,3,,,,,1,,,74,78
24389,note_on,,,,,29,0,1,,,,,0,,,74,0
24390,note_on,,,,,1,0,1,,,,,0,,,76,44
24407,note_on,,,,,171,0,4,,,,,1,,,62,0
24411,note_on,,,,,4,0,4,,,,,1,,,65,68
24419,note_on,,,,,179,0,2,,,,,0,,,62,0
24419,note_on,,,,,59,0,3,,,,,1,,,74,0
24419,note_on,,,,,29,0,1,,,,,0,,,76,0
24420,note_on,,,,,1,0,3,,,,,1,,,72,68
24420,note_on,,,,,1,0,2,,,,,0,,,65,78
24420,note_on,,,,,1,0,1,,,,,0,,,72,62
24442,note_on,,,,,31,0,4,,,,,1,,,65,0
24442,note_on,,,,,0,0,4,,,,,1,,,62,68
24449,note_on,,,,,29,0,2,,,,,0,,,65,0
24449,note_on,,,,,29,0,1,,,,,0,,,72,0
24450,note_on,,,,,1,0,2,,,,,0,,,62,70
24450,note_on,,,,,1,0,1,,,,,0,,,74,62
24472,note_on,,,,,30,0,4,,,,,1,,,62,0
24472,note_on,,,,,0,0,4,,,,,1,,,67,58
24479,note_on,,,,,59,0,3,,,,,1,,,72,0
24479,note_on,,,,,29,0,1,,,,,0,,,74,0
24479,note_on,,,,,29,0,2,,,,,0,,,62,0
24480,note_on,,,,,1,0,3,,,,,1,,,71,78
24480,note_on,,,,,1,0,1,,,,,0,,,71,78
24480,note_on,,,,,1,0,2,,,,,0,,,67,62
24509,note_on,,,,,29,0,2,,,,,0,,,67,0
24510,note_on,,,,,1,0,2,,,,,0,,,69,70
24535,note_on,,,,,63,0,4,,,,,1,,,65,90
24539,note_on,,,,,29,0,2,,,,,0,,,69,0
24540,note_on,,,,,1,0,2,,,,,0,,,65,78
24542,note_on,,,,,7,0,4,,,,,1,,,67,0
24569,note_on,,,,,29,0,2,,,,,0,,,65,0
24570,note_on,,,,,1,0,2,,,,,0,,,67,55
24596,note_on,,,,,54,0,4,,,,,1,,,65,0
24597,note_on,,,,,1,0,4,,,,,1,,,64,68
24599,note_on,,,,,29,0,2,,,,,0,,,67,0
24600,note_on,,,,,1,0,2,,,,,0,,,64,62
24629,note_on,,,,,29,0,2,,,,,0,,,64,0
24630,note_on,,,,,1,0,2,,,,,0,,,65,88
24653,note_on,,,,,56,0,4,,,,,1,,,64,0
24654,note_on,,,,,1,0,4,,,,,1,,,62,78
24659,note_on,,,,,179,0,1,,,,,0,,,71,0
24659,note_on,,,,,179,0,3,,,,,1,,,71,0
24659,note_on,,,,,29,0,2,,,,,0,,,65,0
24660,note_on,,,,,1,0,1,,,,,0,,,74,70
24660,note_on,,,,,1,0,3,,,,,1,,,74,58
24660,note_on,,,,,0,0,2,,,,,0,,,55,62
24660,note_on,,,,,1,0,2,,,,,0,,,62,70
24660,note_on,,,,,1021,0,6,,,,,1,,,55,90
24689,note_on,,,,,29,0,3,,,,,1,,,74,0
24689,note_on,,,,,29,0,2,,,,,0,,,62,0
24689,note_on,,,,,29,0,1,,,,,0,,,74,0
24690,note_on,,,,,1,0,1,,,,,0,,,71,70
24690,note_on,,,,,1,0,3,,,,,1,,,71,78
24690,note_on,,,,,1,0,2,,,,,0,,,64,70
24704,note_on,,,,,50,0,4,,,,,1,,,62,0
24704,note_on,,,,,14,0,2,,,,,0,,,55,0
24714,note_on,,,,,10,0,4,,,,,1,,,60,78
24719,note_on,,,,,15,0,2,,,,,0,,,64,0
24719,note_on,,,,,29,0,1,,,,,0,,,71,0
24719,note_on,,,,,59,0,6,,,,,1,,,55,0
24719,note_on,,,,,29,0,3,,,,,1,,,71,0
24720,note_on,,,,,1,0,2,,,,,0,,,60,70
24720,note_on,,,,,1,0,6,,,,,1,,,60,78
24720,note_on,,,,,1,0,3,,,,,1,,,76,78
24720,note_on,,,,,1,0,1,,,,,0,,,76,70
24749,note_on,,,,,29,0,1,,,,,0,,,76,0
24750,note_on,,,,,1,0,1,,,,,0,,,77,70
24779,note_on,,,,,59,0,2,,,,,0,,,60,0
24779,note_on,,,,,29,0,1,,,,,0,,,77,0
24779,note_on,,,,,59,0,6,,,,,1,,,60,0
24780,note_on,,,,,1,0,1,,,,,0,,,74,70
24780,note_on,,,,,1,0,2,,,,,0,,,67,78
24780,note_on,,,,,0,0,2,,,,,0,,,59,78
24780,note_on,,,,,1,0,6,,,,,1,,,59,78
24809,note_on,,,,,29,0,2,,,,,0,,,59,0
24809,note_on,,,,,29,0,1,,,,,0,,,74,0
24810,note_on,,,,,1,0,1,,,,,0,,,76,49
24824,note_on,,,,,15,0,2,,,,,0,,,67,0
24836,note_on,,,,,122,0,4,,,,,1,,,60,0
24839,note_on,,,,,29,0,1,,,,,0,,,76,0
24839,note_on,,,,,59,0,6,,,,,1,,,59,0
24840,note_on,,,,,1,0,6,,,,,1,,,57,78
24840,note_on,,,,,16,0,2,,,,,0,,,60,70
24840,note_on,,,,,0,0,2,,,,,0,,,57,78
24840,note_on,,,,,1,0,1,,,,,0,,,72,70
24869,note_on,,,,,29,0,1,,,,,0,,,72,0
24870,note_on,,,,,1,0,1,,,,,0,,,84,78
24884,note_on,,,,,44,0,2,,,,,0,,,57,0
24899,note_on,,,,,29,0,1,,,,,0,,,84,0
24899,note_on,,,,,59,0,6,,,,,1,,,57,0
24900,note_on,,,,,1,0,6,,,,,1,,,55,68
24900,note_on,,,,,16,0,2,,,,,0,,,55,62
24900,note_on,,,,,1291,0,5,,,,,1,,,60,68
24900,note_on,,,,,1,0,1,,,,,0,,,83,70
24929,note_on,,,,,29,0,1,,,,,0,,,83,0
24930,note_on,,,,,1,0,1,,,,,0,,,84,55
24959,note_on,,,,,59,0,5,,,,,1,,,60,0
24959,note_on,,,,,29,0,1,,,,,0,,,84,0
24959,note_on,,,,,59,0,6,,,,,1,,,55,0
24959,note_on,,,,,59,0,2,,,,,0,,,55,0
24960,note_on,,,,,1,0,2,,,,,0,,,53,70
24960,note_on,,,,,1,0,6,,,,,1,,,53,90
24960,note_on,,,,,1,0,5,,,,,1,,,65,68
24960,note_on,,,,,1,0,1,,,,,0,,,81,55
24989,note_on,,,,,29,0,1,,,,,0,,,81,0
24990,note_on,,,,,1,0,1,,,,,0,,,83,55
25019,note_on,,,,,29,0,1,,,,,0,,,83,0
25019,note_on,,,,,59,0,5,,,,,1,,,65,0
25020,note_on,,,,,1,0,5,,,,,1,,,64,68
25020,note_on,,,,,1,0,1,,,,,0,,,79,49
25020,note_on,,,,,184,0,4,,,,,1,,,60,68
25049,note_on,,,,,29,0,1,,,,,0,,,79,0
25050,note_on,,,,,1,0,1,,,,,0,,,81,49
25075,note_on,,,,,55,0,4,,,,,1,,,60,0
25079,note_on,,,,,59,0,5,,,,,1,,,64,0
25079,note_on,,,,,359,0,3,,,,,1,,,76,0
25079,note_on,,,,,29,0,1,,,,,0,,,81,0
25080,note_on,,,,,1,0,1,,,,,0,,,77,62
25080,note_on,,,,,120,0,2,,,,,0,,,62,78
25080,note_on,,,,,1,0,5,,,,,1,,,62,78
25080,note_on,,,,,1,0,3,,,,,1,,,77,78
25080,note_on,,,,,5,0,4,,,,,1,,,69,90
25094,note_on,,,,,14,0,2,,,,,0,,,60,0
25109,note_on,,,,,29,0,1,,,,,0,,,77,0
25110,note_on,,,,,1,0,1,,,,,0,,,79,55
25124,note_on,,,,,30,0,2,,,,,0,,,62,0
25139,note_on,,,,,59,0,3,,,,,1,,,77,0
25139,note_on,,,,,59,0,5,,,,,1,,,62,0
25139,note_on,,,,,179,0,6,,,,,1,,,53,0
25139,note_on,,,,,29,0,1,,,,,0,,,79,0
25139,note_on,,,,,15,0,2,,,,,0,,,53,0
25140,note_on,,,,,1,0,6,,,,,1,,,57,78
25140,note_on,,,,,1,0,3,,,,,1,,,76,68
25140,note_on,,,,,1,0,2,,,,,0,,,60,62
25140,note_on,,,,,1,0,5,,,,,1,,,60,68
25140,note_on,,,,,1,0,1,,,,,0,,,76,55
25140,note_on,,,,,0,0,2,,,,,0,,,57,70
25169,note_on,,,,,29,0,6,,,,,1,,,57,0
25169,note_on,,,,,29,0,2,,,,,0,,,57,0
25169,note_on,,,,,0,0,2,,,,,0,,,60,0
25169,note_on,,,,,29,0,1,,,,,0,,,76,0
25170,note_on,,,,,1,0,1,,,,,0,,,77,39
25170,note_on,,,,,1,0,2,,,,,0,,,53,62
25170,note_on,,,,,1,0,6,,,,,1,,,53,78
25199,note_on,,,,,29,0,2,,,,,0,,,53,0
25199,note_on,,,,,29,0,6,,,,,1,,,53,0
25199,note_on,,,,,29,0,1,,,,,0,,,77,0
25199,note_on,,,,,59,0,3,,,,,1,,,76,0
25199,note_on,,,,,59,0,5,,,,,1,,,60,0
25200,note_on,,,,,1,0,6,,,,,1,,,59,78
25200,note_on,,,,,1,0,3,,,,,1,,,74,78
25200,note_on,,,,,1,0,2,,,,,0,,,59,78
25200,note_on,,,,,1,0,5,,,,,1,,,59,78
25200,note_on,,,,,1,0,1,,,,,0,,,74,62
25229,note_on,,,,,29,0,1,,,,,0,,,74,0
25230,note_on,,,,,1,0,1,,,,,0,,,86,78
25244,note_on,,,,,44,0,2,,,,,0,,,59,0
25259,note_on,,,,,59,0,6,,,,,1,,,59,0
25259,note_on,,,,,29,0,1,,,,,0,,,86,0
25260,note_on,,,,,16,0,2,,,,,0,,,57,88
25260,note_on,,,,,0,0,2,,,,,0,,,67,88
25260,note_on,,,,,1,0,6,,,,,1,,,57,90
25260,note_on,,,,,1,0,1,,,,,0,,,84,55
25289,note_on,,,,,0,0,2,,,,,0,,,57,0
25289,note_on,,,,,29,0,1,,,,,0,,,84,0
25289,note_on,,,,,29,0,2,,,,,0,,,67,0
25290,note_on,,,,,1,0,1,,,,,0,,,86,62
25316,note_on,,,,,236,0,4,,,,,1,,,69,0
25319,note_on,,,,,59,0,6,,,,,1,,,57,0
25319,note_on,,,,,29,0,1,,,,,0,,,86,0
25319,note_on,,,,,3,0,4,,,,,1,,,71,78
25320,note_on,,,,,0,0,2,,,,,0,,,55,78
25320,note_on,,,,,31,0,2,,,,,0,,,62,78
25320,note_on,,,,,1,0,1,,,,,0,,,83,62
25320,note_on,,,,,1,0,6,,,,,1,,,55,78
25349,note_on,,,,,29,0,1,,,,,0,,,83,0
25350,note_on,,,,,1,0,1,,,,,0,,,84,49
25364,note_on,,,,,44,0,2,,,,,0,,,55,0
25374,note_on,,,,,0,0,4,,,,,1,,,69,68
25374,note_on,,,,,55,0,4,,,,,1,,,71,0
25379,note_on,,,,,59,0,6,,,,,1,,,55,0
25379,note_on,,,,,179,0,5,,,,,1,,,59,0
25379,note_on,,,,,29,0,1,,,,,0,,,84,0
25380,note_on,,,,,16,0,2,,,,,0,,,53,70
25380,note_on,,,,,1,0,5,,,,,1,,,62,68
25380,note_on,,,,,1,0,6,,,,,1,,,53,78
25380,note_on,,,,,1,0,1,,,,,0,,,81,62
25409,note_on,,,,,29,0,2,,,,,0,,,53,0
25409,note_on,,,,,29,0,5,,,,,1,,,62,0
25409,note_on,,,,,29,0,1,,,,,0,,,81,0
25410,note_on,,,,,1,0,1,,,,,0,,,83,55
25410,note_on,,,,,1,0,5,,,,,1,,,59,78
25435,note_on,,,,,61,0,4,,,,,1,,,69,0
25437,note_on,,,,,2,0,4,,,,,1,,,67,90
25439,note_on,,,,,29,0,1,,,,,0,,,83,0
25439,note_on,,,,,29,0,5,,,,,1,,,59,0
25439,note_on,,,,,59,0,6,,,,,1,,,53,0
25439,note_on,,,,,30,0,2,,,,,0,,,62,0
25440,note_on,,,,,1,0,6,,,,,1,,,52,78
25440,note_on,,,,,1,0,5,,,,,1,,,64,68
25440,note_on,,,,,1,0,2,,,,,0,,,52,70
25440,note_on,,,,,0,0,2,,,,,0,,,52,78
25440,note_on,,,,,0,0,2,,,,,0,,,64,88
25440,note_on,,,,,1,0,1,,,,,0,,,79,70
25469,note_on,,,,,29,0,1,,,,,0,,,79,0
25470,note_on,,,,,1,0,1,,,,,0,,,81,55
25484,note_on,,,,,44,0,2,,,,,0,,,64,0
25499,note_on,,,,,59,0,5,,,,,1,,,64,0
25499,note_on,,,,,29,0,1,,,,,0,,,81,0
25500,note_on,,,,,1,0,5,,,,,1,,,62,78
25500,note_on,,,,,16,0,2,,,,,0,,,62,70
25500,note_on,,,,,1,0,1,,,,,0,,,77,62
25529,note_on,,,,,29,0,1,,,,,0,,,77,0
25530,note_on,,,,,1,0,1,,,,,0,,,79,70
25544,note_on,,,,,44,0,2,,,,,0,,,62,0
25559,note_on,,,,,359,0,3,,,,,1,,,74,0
25559,note_on,,,,,59,0,5,,,,,1,,,62,0
25559,note_on,,,,,29,0,1,,,,,0,,,79,0
25560,note_on,,,,,1,0,5,,,,,1,,,60,68
25560,note_on,,,,,16,0,2,,,,,0,,,60,62
25560,note_on,,,,,1,0,3,,,,,1,,,76,78
25560,note_on,,,,,1,0,1,,,,,0,,,76,62
25589,note_on,,,,,29,0,1,,,,,0,,,76,0
25590,note_on,,,,,1,0,1,,,,,0,,,77,55
25604,note_on,,,,,44,0,2,,,,,0,,,60,0
25604,note_on,,,,,0,0,2,,,,,0,,,52,0
25619,note_on,,,,,179,0,6,,,,,1,,,52,0
25619,note_on,,,,,59,0,3,,,,,1,,,76,0
25619,note_on,,,,,59,0,5,,,,,1,,,60,0
25619,note_on,,,,,29,0,1,,,,,0,,,77,0
25620,note_on,,,,,1,0,5,,,,,1,,,59,78
25620,note_on,,,,,16,0,2,,,,,0,,,55,62
25620,note_on,,,,,0,0,2,,,,,0,,,59,62
25620,note_on,,,,,1,0,6,,,,,1,,,55,68
25620,note_on,,,,,1,0,1,,,,,0,,,74,70
25620,note_on,,,,,1,0,3,,,,,1,,,74,78
25649,note_on,,,,,0,0,2,,,,,0,,,55,0
25649,note_on,,,,,29,0,2,,,,,0,,,59,0
25649,note_on,,,,,29,0,6,,,,,1,,,55,0
25649,note_on,,,,,29,0,1,,,,,0,,,74,0
25650,note_on,,,,,1,0,2,,,,,0,,,52,55
25650,note_on,,,,,1,0,6,,,,,1,,,52,78
25650,note_on,,,,,1,0,1,,,,,0,,,76,49
25664,note_on,,,,,14,0,2,,,,,0,,,52,0
25679,note_on,,,,,59,0,5,,,,,1,,,59,0
25679,note_on,,,,,15,0,2,,,,,0,,,52,0
25679,note_on,,,,,59,0,3,,,,,1,,,74,0
25679,note_on,,,,,29,0,1,,,,,0,,,76,0
25679,note_on,,,,,29,0,6,,,,,1,,,52,0
25680,note_on,,,,,1,0,6,,,,,1,,,57,78
25680,note_on,,,,,1,0,1,,,,,0,,,72,49
25680,note_on,,,,,1,0,2,,,,,0,,,57,70
25680,note_on,,,,,1,0,5,,,,,1,,,57,78
25680,note_on,,,,,1,0,3,,,,,1,,,72,90
25709,note_on,,,,,29,0,1,,,,,0,,,72,0
25710,note_on,,,,,1,0,1,,,,,0,,,84,62
25724,note_on,,,,,44,0,2,,,,,0,,,57,0
25739,note_on,,,,,59,0,6,,,,,1,,,57,0
25739,note_on,,,,,29,0,1,,,,,0,,,84,0
25740,note_on,,,,,0,0,2,,,,,0,,,55,62
25740,note_on,,,,,16,0,2,,,,,0,,,64,78
25740,note_on,,,,,1,0,6,,,,,1,,,55,78
25740,note_on,,,,,1,0,1,,,,,0,,,83,70
25769,note_on,,,,,29,0,1,,,,,0,,,83,0
25770,note_on,,,,,1,0,1,,,,,0,,,84,62
25784,note_on,,,,,44,0,2,,,,,0,,,55,0
25799,note_on,,,,,59,0,6,,,,,1,,,55,0
25799,note_on,,,,,29,0,1,,,,,0,,,84,0
25799,note_on,,,,,362,0,4,,,,,1,,,69,78
25799,note_on,,,,,15,0,2,,,,,0,,,64,0
25800,note_on,,,,,1,0,2,,,,,0,,,60,78
25800,note_on,,,,,1,0,6,,,,,1,,,53,68
25800,note_on,,,,,1,0,1,,,,,0,,,81,70
25800,note_on,,,,,0,0,2,,,,,0,,,53,78
25803,note_on,,,,,4,0,4,,,,,1,,,67,0
25829,note_on,,,,,29,0,1,,,,,0,,,81,0
25830,note_on,,,,,1,0,1,,,,,0,,,83,62
25844,note_on,,,,,44,0,2,,,,,0,,,53,0
25854,note_on,,,,,51,0,4,,,,,1,,,67,78
25859,note_on,,,,,5,0,4,,,,,1,,,69,0
25859,note_on,,,,,29,0,1,,,,,0,,,83,0
25859,note_on,,,,,59,0,6,,,,,1,,,53,0
25860,note_on,,,,,1,0,6,,,,,1,,,52,78
25860,note_on,,,,,16,0,2,,,,,0,,,52,62
25860,note_on,,,,,1,0,1,,,,,0,,,79,62
25889,note_on,,,,,29,0,1,,,,,0,,,79,0
25890,note_on,,,,,1,0,1,,,,,0,,,81,62
25904,note_on,,,,,44,0,2,,,,,0,,,52,0
25911,note_on,,,,,52,0,4,,,,,1,,,67,0
25914,note_on,,,,,3,0,4,,,,,1,,,65,78
25919,note_on,,,,,29,0,1,,,,,0,,,81,0
25919,note_on,,,,,59,0,6,,,,,1,,,52,0
25920,note_on,,,,,1,0,1,,,,,0,,,77,70
25920,note_on,,,,,16,0,2,,,,,0,,,50,78
25920,note_on,,,,,1,0,6,,,,,1,,,50,78
25949,note_on,,,,,29,0,1,,,,,0,,,77,0
25950,note_on,,,,,1,0,1,,,,,0,,,79,55
25964,note_on,,,,,44,0,2,,,,,0,,,50,0
25979,note_on,,,,,29,0,1,,,,,0,,,79,0
25979,note_on,,,,,59,0,6,,,,,1,,,50,0
25980,note_on,,,,,1,0,1,,,,,0,,,76,55
25980,note_on,,,,,16,0,2,,,,,0,,,48,70
25980,note_on,,,,,1,0,6,,,,,1,,,48,68
26009,note_on,,,,,29,0,1,,,,,0,,,76,0
26009,note_on,,,,,29,0,2,,,,,0,,,48,0
26009,note_on,,,,,0,0,2,,,,,0,,,60,0
26010,note_on,,,,,1,0,1,,,,,0,,,77,55
26039,note_on,,,,,359,0,5,,,,,1,,,57,0
26039,note_on,,,,,59,0,6,,,,,1,,,48,0
26039,note_on,,,,,359,0,3,,,,,1,,,72,0
26039,note_on,,,,,29,0,1,,,,,0,,,77,0
26040,note_on,,,,,1,0,6,,,,,1,,,47,78
26040,note_on,,,,,1,0,3,,,,,1,,,74,78
26040,note_on,,,,,1,0,1,,,,,0,,,74,55
26040,note_on,,,,,1,0,5,,,,,1,,,59,78
26040,note_on,,,,,31,0,2,,,,,0,,,55,70
26040,note_on,,,,,0,0,2,,,,,0,,,47,78
26069,note_on,,,,,29,0,1,,,,,0,,,74,0
26069,note_on,,,,,29,0,2,,,,,0,,,47,0
26070,note_on,,,,,1,0,1,,,,,0,,,76,55
26093,note_on,,,,,179,0,4,,,,,1,,,65,0
26094,note_on,,,,,1,0,4,,,,,1,,,72,78
26099,note_on,,,,,59,0,3,,,,,1,,,74,0
26099,note_on,,,,,59,0,5,,,,,1,,,59,0
26099,note_on,,,,,29,0,1,,,,,0,,,76,0
26099,note_on,,,,,59,0,6,,,,,1,,,47,0
26099,note_on,,,,,30,0,2,,,,,0,,,55,0
26100,note_on,,,,,1,0,1,,,,,0,,,72,49
26100,note_on,,,,,1,0,2,,,,,0,,,48,70
26100,note_on,,,,,0,0,2,,,,,0,,,45,62
26100,note_on,,,,,1,0,6,,,,,1,,,45,68
26100,note_on,,,,,1,0,5,,,,,1,,,60,68
26100,note_on,,,,,1,0,3,,,,,1,,,76,68
26129,note_on,,,,,29,0,2,,,,,0,,,45,0
26129,note_on,,,,,29,0,1,,,,,0,,,72,0
26130,note_on,,,,,1,0,1,,,,,0,,,74,70
26134,note_on,,,,,40,0,4,,,,,1,,,72,0
26159,note_on,,,,,59,0,3,,,,,1,,,76,0
26159,note_on,,,,,59,0,6,,,,,1,,,45,0
26159,note_on,,,,,30,0,2,,,,,0,,,48,0
26159,note_on,,,,,29,0,1,,,,,0,,,74,0
26159,note_on,,,,,59,0,5,,,,,1,,,60,0
26160,note_on,,,,,1,0,1,,,,,0,,,71,70
26160,note_on,,,,,1,0,3,,,,,1,,,77,78
26160,note_on,,,,,1,0,5,,,,,1,,,62,78
26160,note_on,,,,,26,0,4,,,,,1,,,71,90
26160,note_on,,,,,1,0,6,,,,,1,,,43,50
26160,note_on,,,,,0,0,2,,,,,0,,,50,70
26160,note_on,,,,,0,0,2,,,,,0,,,53,78
26160,note_on,,,,,1,0,2,,,,,0,,,43,78
26189,note_on,,,,,29,0,1,,,,,0,,,71,0
26190,note_on,,,,,1,0,1,,,,,0,,,72,55
26219,note_on,,,,,29,0,1,,,,,0,,,72,0
26220,note_on,,,,,1,0,1,,,,,0,,,74,35
26249,note_on,,,,,89,0,3,,,,,1,,,77,0
26249,note_on,,,,,29,0,1,,,,,0,,,74,0
26250,note_on,,,,,1,0,1,,,,,0,,,76,62
26264,note_on,,,,,0,0,2,,,,,0,,,43,0
26264,note_on,,,,,104,0,2,,,,,0,,,50,0
26264,note_on,,,,,0,0,2,,,,,0,,,53,0
26279,note_on,,,,,119,0,5,,,,,1,,,62,0
26279,note_on,,,,,119,0,6,,,,,1,,,43,0
26279,note_on,,,,,29,0,1,,,,,0,,,76,0
26280,note_on,,,,,31,0,3,,,,,1,,,77,90
26280,note_on,,,,,0,0,2,,,,,0,,,50,88
26280,note_on,,,,,1,0,1,,,,,0,,,77,70
26280,note_on,,,,,16,0,2,,,,,0,,,43,70
26280,note_on,,,,,1,0,6,,,,,1,,,55,90
26280,note_on,,,,,0,0,2,,,,,0,,,55,70
26280,note_on,,,,,1,0,5,,,,,1,,,62,78
26309,note_on,,,,,29,0,1,,,,,0,,,77,0
26309,note_on,,,,,29,0,5,,,,,1,,,62,0
26309,note_on,,,,,29,0,3,,,,,1,,,77,0
26310,note_on,,,,,1,0,1,,,,,0,,,79,55
26323,note_on,,,,,163,0,4,,,,,1,,,71,0
26335,note_on,,,,,12,0,4,,,,,1,,,67,78
26339,note_on,,,,,29,0,1,,,,,0,,,79,0
26340,note_on,,,,,31,0,3,,,,,1,,,77,90
26340,note_on,,,,,31,0,5,,,,,1,,,62,78
26340,note_on,,,,,1,0,1,,,,,0,,,81,55
26354,note_on,,,,,0,0,2,,,,,0,,,43,0
26354,note_on,,,,,0,0,2,,,,,0,,,50,0
26354,note_on,,,,,74,0,2,,,,,0,,,55,0
26369,note_on,,,,,29,0,1,,,,,0,,,81,0
26370,note_on,,,,,16,0,2,,,,,0,,,43,62
26370,note_on,,,,,0,0,2,,,,,0,,,50,78
26370,note_on,,,,,0,0,2,,,,,0,,,55,78
26370,note_on,,,,,1,0,1,,,,,0,,,83,55
26377,note_on,,,,,42,0,4,,,,,1,,,67,0
26384,note_on,,,,,14,0,2,,,,,0,,,55,0
26384,note_on,,,,,0,0,2,,,,,0,,,50,0
26384,note_on,,,,,0,0,2,,,,,0,,,43,0
26384,note_on,,,,,14,0,1,,,,,0,,,83,0
26399,note_on,,,,,119,0,6,,,,,1,,,55,0
26399,note_on,,,,,59,0,5,,,,,1,,,62,0
26399,note_on,,,,,59,0,3,,,,,1,,,77,0
26400,note_on,,,,,1,0,5,,,,,1,,,60,78
26400,note_on,,,,,23,0,4,,,,,1,,,67,90
26400,note_on,,,,,1,0,3,,,,,1,,,76,68
26400,note_on,,,,,16,0,1,,,,,0,,,84,88
26400,note_on,,,,,0,0,2,,,,,0,,,55,88
26400,note_on,,,,,0,0,2,,,,,0,,,48,88
26400,note_on,,,,,16,0,2,,,,,0,,,52,78
26400,note_on,,,,,1,0,6,,,,,1,,,60,90
26444,note_on,,,,,44,0,1,,,,,0,,,84,0
26460,note_on,,,,,16,0,1,,,,,0,,,72,78
26460,note_on,,,,,0,0,1,,,,,0,,,84,88
26460,note_on,,,,,0,0,1,,,,,0,,,76,88
26489,note_on,,,,,89,0,6,,,,,1,,,60,0
26489,note_on,,,,,89,0,2,,,,,0,,,55,0
26489,note_on,,,,,89,0,3,,,,,1,,,76,0
26489,note_on,,,,,0,0,2,,,,,0,,,48,0
26489,note_on,,,,,0,0,2,,,,,0,,,52,0
26489,note_on,,,,,89,0,5,,,,,1,,,60,0
26504,note_on,,,,,0,0,1,,,,,0,,,72,0
26504,note_on,,,,,0,0,1,,,,,0,,,84,0
26504,note_on,,,,,44,0,1,,,,,0,,,76,0
26506,note_on,,,,,106,0,4,,,,,1,,,67,0
26520,note_on,,,,,14,0,4,,,,,1,,,69,90
26520,note_on,,,,,31,0,6,,,,,1,,,57,90
26520,note_on,,,,,31,0,5,,,,,1,,,60,90
26520,note_on,,,,,0,0,2,,,,,0,,,57,98
26520,note_on,,,,,31,0,3,,,,,1,,,76,90
26520,note_on,,,,,31,0,2,,,,,0,,,45,98
26549,note_on,,,,,29,0,5,,,,,1,,,60,0
26549,note_on,,,,,29,0,6,,,,,1,,,57,0
26549,note_on,,,,,29,0,3,,,,,1,,,76,0
26557,note_on,,,,,37,0,4,,,,,1,,,69,0
26574,note_on,,,,,17,0,4,,,,,1,,,69,90
26580,note_on,,,,,31,0,3,,,,,1,,,76,90
26580,note_on,,,,,31,0,5,,,,,1,,,60,78
26580,note_on,,,,,0,0,1,,,,,0,,,84,70
26580,note_on,,,,,0,0,1,,,,,0,,,76,78
26580,note_on,,,,,76,0,1,,,,,0,,,72,78
26580,note_on,,,,,31,0,6,,,,,1,,,57,78
26609,note_on,,,,,29,0,5,,,,,1,,,60,0
26609,note_on,,,,,89,0,2,,,,,0,,,45,0
26624,note_on,,,,,15,0,2,,,,,0,,,57,0
26624,note_on,,,,,50,0,4,,,,,1,,,69,0
26624,note_on,,,,,0,0,1,,,,,0,,,76,0
26624,note_on,,,,,0,0,1,,,,,0,,,72,0
26624,note_on,,,,,44,0,1,,,,,0,,,84,0
26635,note_on,,,,,11,0,4,,,,,1,,,69,90
26639,note_on,,,,,59,0,6,,,,,1,,,57,0
26639,note_on,,,,,59,0,3,,,,,1,,,76,0
26640,note_on,,,,,1,0,6,,,,,1,,,53,90
26640,note_on,,,,,0,0,2,,,,,0,,,53,98
26640,note_on,,,,,16,0,2,,,,,0,,,41,78
26640,note_on,,,,,31,0,5,,,,,1,,,60,90
26640,note_on,,,,,1,0,3,,,,,1,,,74,78
26700,note_on,,,,,0,0,1,,,,,0,,,81,78
26700,note_on,,,,,76,0,1,,,,,0,,,74,88
26700,note_on,,,,,0,0,1,,,,,0,,,84,78
26744,note_on,,,,,0,0,2,,,,,0,,,41,0
26744,note_on,,,,,104,0,2,,,,,0,,,53,0
26744,note_on,,,,,44,0,1,,,,,0,,,81,0
26753,note_on,,,,,118,0,4,,,,,1,,,69,0
26755,note_on,,,,,2,0,4,,,,,1,,,67,90
26759,note_on,,,,,119,0,5,,,,,1,,,60,0
26759,note_on,,,,,15,0,1,,,,,0,,,84,0
26759,note_on,,,,,0,0,1,,,,,0,,,74,0
26759,note_on,,,,,119,0,6,,,,,1,,,53,0
26760,note_on,,,,,1,0,5,,,,,1,,,59,90
26760,note_on,,,,,1,0,6,,,,,1,,,55,90
26760,note_on,,,,,16,0,2,,,,,0,,,43,78
26760,note_on,,,,,0,0,2,,,,,0,,,55,88
26820,note_on,,,,,61,0,1,,,,,0,,,74,78
26820,note_on,,,,,0,0,1,,,,,0,,,79,78
26820,note_on,,,,,0,0,1,,,,,0,,,83,88
26849,note_on,,,,,29,0,1,,,,,0,,,83,0
26849,note_on,,,,,0,0,1,,,,,0,,,74,0
26854,note_on,,,,,99,0,4,,,,,1,,,67,0
26864,note_on,,,,,0,0,2,,,,,0,,,43,0
26864,note_on,,,,,15,0,1,,,,,0,,,79,0
26864,note_on,,,,,104,0,2,,,,,0,,,55,0
26875,note_on,,,,,21,0,4,,,,,1,,,67,90
26879,note_on,,,,,119,0,5,,,,,1,,,59,0
26879,note_on,,,,,239,0,3,,,,,1,,,74,0
26879,note_on,,,,,119,0,6,,,,,1,,,55,0
26880,note_on,,,,,0,0,1,,,,,0,,,76,70
26880,note_on,,,,,1,0,3,,,,,1,,,72,90
26880,note_on,,,,,16,0,1,,,,,0,,,84,70
26880,note_on,,,,,1,0,6,,,,,1,,,48,90
26880,note_on,,,,,1,0,5,,,,,1,,,60,90
26880,note_on,,,,,16,0,2,,,,,0,,,36,98
26880,note_on,,,,,0,0,2,,,,,0,,,48,88
26909,note_on,,,,,0,0,1,,,,,0,,,84,0
26909,note_on,,,,,29,0,1,,,,,0,,,76,0
26910,note_on,,,,,1,0,1,,,,,0,,,72,70
26939,note_on,,,,,29,0,1,,,,,0,,,72,0
26940,note_on,,,,,1,0,1,,,,,0,,,71,62
26969,note_on,,,,,29,0,1,,,,,0,,,71,0
26969,note_on,,,,,89,0,6,,,,,1,,,48,0
26970,note_on,,,,,1,0,1,,,,,0,,,72,78
26984,note_on,,,,,104,0,2,,,,,0,,,48,0
26984,note_on,,,,,0,0,2,,,,,0,,,36,0
26992,note_on,,,,,117,0,4,,,,,1,,,67,0
26999,note_on,,,,,29,0,1,,,,,0,,,72,0
26999,note_on,,,,,119,0,3,,,,,1,,,72,0
26999,note_on,,,,,119,0,5,,,,,1,,,60,0
27000,note_on,,,,,16,0,2,,,,,0,,,60,98
27000,note_on,,,,,1,0,1,,,,,0,,,74,70
27000,note_on,,,,,0,0,2,,,,,0,,,48,70
27029,note_on,,,,,29,0,1,,,,,0,,,74,0
27030,note_on,,,,,1,0,1,,,,,0,,,72,62
27059,note_on,,,,,29,0,1,,,,,0,,,72,0
27060,note_on,,,,,1,0,1,,,,,0,,,71,55
27074,note_on,,,,,0,0,2,,,,,0,,,60,0
27074,note_on,,,,,74,0,2,,,,,0,,,48,0
27089,note_on,,,,,29,0,1,,,,,0,,,71,0
27090,note_on,,,,,1,0,1,,,,,0,,,72,70
27090,note_on,,,,,0,0,2,,,,,0,,,60,78
27090,note_on,,,,,16,0,2,,,,,0,,,48,70
27104,note_on,,,,,14,0,2,,,,,0,,,60,0
27104,note_on,,,,,0,0,2,,,,,0,,,48,0
27119,note_on,,,,,29,0,1,,,,,0,,,72,0
27120,note_on,,,,,1,0,1,,,,,0,,,60,70
27120,note_on,,,,,16,0,2,,,,,0,,,48,98
27120,note_on,,,,,0,0,2,,,,,0,,,36,98
27149,note_on,,,,,29,0,1,,,,,0,,,60,0
27150,note_on,,,,,1,0,1,,,,,0,,,72,70
27164,note_on,,,,,44,0,2,,,,,0,,,36,0
27164,note_on,,,,,0,0,2,,,,,0,,,48,0
27179,note_on,,,,,29,0,1,,,,,0,,,72,0
27180,note_on,,,,,1,0,1,,,,,0,,,62,78
27180,note_on,,,,,16,0,2,,,,,0,,,38,98
27180,note_on,,,,,0,0,2,,,,,0,,,50,98
27209,note_on,,,,,29,0,1,,,,,0,,,62,0
27209,note_on,,,,,29,0,2,,,,,0,,,50,0
27209,note_on,,,,,0,0,2,,,,,0,,,38,0
27210,note_on,,,,,1,0,1,,,,,0,,,72,55
27239,note_on,,,,,29,0,1,,,,,0,,,72,0
27240,note_on,,,,,0,0,2,,,,,0,,,52,98
27240,note_on,,,,,1,0,1,,,,,0,,,64,78
27240,note_on,,,,,31,0,2,,,,,0,,,40,88
27269,note_on,,,,,29,0,2,,,,,0,,,52,0
27269,note_on,,,,,29,0,1,,,,,0,,,64,0
27269,note_on,,,,,0,0,2,,,,,0,,,40,0
27270,note_on,,,,,1,0,1,,,,,0,,,72,62
27299,note_on,,,,,29,0,1,,,,,0,,,72,0
27300,note_on,,,,,1,0,1,,,,,0,,,65,88
27300,note_on,,,,,31,0,2,,,,,0,,,41,78
27300,note_on,,,,,0,0,2,,,,,0,,,53,98
27329,note_on,,,,,29,0,2,,,,,0,,,53,0
27329,note_on,,,,,0,0,2,,,,,0,,,41,0
27329,note_on,,,,,29,0,1,,,,,0,,,65,0
27330,note_on,,,,,1,0,1,,,,,0,,,72,70
27359,note_on,,,,,29,0,1,,,,,0,,,72,0
27360,note_on,,,,,1,0,1,,,,,0,,,67,78
27360,note_on,,,,,31,0,2,,,,,0,,,43,78
27360,note_on,,,,,0,0,2,,,,,0,,,55,88
27374,note_on,,,,,14,0,1,,,,,0,,,67,0
27390,note_on,,,,,16,0,1,,,,,0,,,72,62
27419,note_on,,,,,29,0,1,,,,,0,,,72,0
27420,note_on,,,,,1,0,1,,,,,0,,,71,62
27449,note_on,,,,,29,0,1,,,,,0,,,71,0
27450,note_on,,,,,1,0,1,,,,,0,,,72,62
27479,note_on,,,,,119,0,2,,,,,0,,,55,0
27479,note_on,,,,,29,0,1,,,,,0,,,72,0
27479,note_on,,,,,0,0,2,,,,,0,,,43,0
27480,note_on,,,,,1,0,2,,,,,0,,,48,98
27480,note_on,,,,,0,0,2,,,,,0,,,60,98
27480,note_on,,,,,1,0,1,,,,,0,,,74,62
27509,note_on,,,,,29,0,1,,,,,0,,,74,0
27510,note_on,,,,,1,0,1,,,,,0,,,72,55
27539,note_on,,,,,59,0,2,,,,,0,,,60,0
27539,note_on,,,,,29,0,1,,,,,0,,,72,0
27540,note_on,,,,,1,0,1,,,,,0,,,71,62
27554,note_on,,,,,15,0,2,,,,,0,,,48,0
27569,note_on,,,,,29,0,1,,,,,0,,,71,0
27570,note_on,,,,,1,0,1,,,,,0,,,72,62
27570,note_on,,,,,0,0,2,,,,,0,,,48,78
27570,note_on,,,,,16,0,2,,,,,0,,,60,78
27584,note_on,,,,,14,0,2,,,,,0,,,48,0
27599,note_on,,,,,29,0,1,,,,,0,,,72,0
27599,note_on,,,,,15,0,2,,,,,0,,,60,0
27600,note_on,,,,,1,0,1,,,,,0,,,64,70
27600,note_on,,,,,1,0,2,,,,,0,,,40,88
27600,note_on,,,,,0,0,2,,,,,0,,,52,98
27629,note_on,,,,,29,0,1,,,,,0,,,64,0
27630,note_on,,,,,1,0,1,,,,,0,,,72,62
27644,note_on,,,,,44,0,2,,,,,0,,,52,0
27644,note_on,,,,,0,0,2,,,,,0,,,40,0
27659,note_on,,,,,29,0,1,,,,,0,,,72,0
27660,note_on,,,,,0,0,2,,,,,0,,,53,98
27660,note_on,,,,,16,0,2,,,,,0,,,41,88
27660,note_on,,,,,1,0,1,,,,,0,,,65,88
27689,note_on,,,,,29,0,1,,,,,0,,,65,0
27689,note_on,,,,,0,0,2,,,,,0,,,41,0
27689,note_on,,,,,29,0,2,,,,,0,,,53,0
27690,note_on,,,,,1,0,1,,,,,0,,,72,70
27719,note_on,,,,,29,0,1,,,,,0,,,72,0
27720,note_on,,,,,31,0,2,,,,,0,,,43,78
27720,note_on,,,,,0,0,2,,,,,0,,,55,88
27720,note_on,,,,,1,0,1,,,,,0,,,67,70
27749,note_on,,,,,29,0,1,,,,,0,,,67,0
27749,note_on,,,,,29,0,2,,,,,0,,,43,0
27750,note_on,,,,,1,0,1,,,,,0,,,72,70
27764,note_on,,,,,15,0,2,,,,,0,,,55,0
27779,note_on,,,,,29,0,1,,,,,0,,,72,0
27780,note_on,,,,,1,0,1,,,,,0,,,69,62
27780,note_on,,,,,0,0,2,,,,,0,,,57,98
27780,note_on,,,,,16,0,2,,,,,0,,,45,88
27809,note_on,,,,,29,0,1,,,,,0,,,69,0
27810,note_on,,,,,1,0,1,,,,,0,,,72,55
27824,note_on,,,,,0,0,2,,,,,0,,,45,0
27824,note_on,,,,,44,0,2,,,,,0,,,57,0
27839,note_on,,,,,29,0,1,,,,,0,,,72,0
27840,note_on,,,,,16,0,2,,,,,0,,,58,110
27840,note_on,,,,,1,0,1,,,,,0,,,70,88
27840,note_on,,,,,0,0,2,,,,,0,,,46,110
27854,note_on,,,,,14,0,1,,,,,0,,,70,0
27870,note_on,,,,,16,0,1,,,,,0,,,72,55
27899,note_on,,,,,29,0,1,,,,,0,,,72,0
27900,note_on,,,,,1,0,1,,,,,0,,,71,70
27929,note_on,,,,,29,0,1,,,,,0,,,71,0
27930,note_on,,,,,1,0,1,,,,,0,,,72,55
27944,note_on,,,,,104,0,2,,,,,0,,,46,0
27944,note_on,,,,,0,0,2,,,,,0,,,58,0
27959,note_on,,,,,29,0,1,,,,,0,,,72,0
27960,note_on,,,,,16,0,2,,,,,0,,,48,98
27960,note_on,,,,,0,0,2,,,,,0,,,60,78
27960,note_on,,,,,1,0,1,,,,,0,,,74,70
27989,note_on,,,,,29,0,1,,,,,0,,,74,0
27990,note_on,,,,,1,0,1,,,,,0,,,72,62
28019,note_on,,,,,29,0,1,,,,,0,,,72,0
28020,note_on,,,,,1,0,1,,,,,0,,,71,70
28034,note_on,,,,,74,0,2,,,,,0,,,60,0
28034,note_on,,,,,0,0,2,,,,,0,,,48,0
28049,note_on,,,,,29,0,1,,,,,0,,,71,0
28050,note_on,,,,,1,0,1,,,,,0,,,72,62
28050,note_on,,,,,0,0,2,,,,,0,,,60,88
28050,note_on,,,,,16,0,2,,,,,0,,,48,70
28064,note_on,,,,,14,0,2,,,,,0,,,60,0
28064,note_on,,,,,0,0,2,,,,,0,,,48,0
28079,note_on,,,,,29,0,1,,,,,0,,,72,0
28080,note_on,,,,,0,0,2,,,,,0,,,46,98
28080,note_on,,,,,16,0,2,,,,,0,,,58,98
28080,note_on,,,,,1,0,1,,,,,0,,,76,70
28109,note_on,,,,,29,0,1,,,,,0,,,76,0
28110,note_on,,,,,1,0,1,,,,,0,,,72,62
28124,note_on,,,,,0,0,2,,,,,0,,,58,0
28124,note_on,,,,,44,0,2,,,,,0,,,46,0
28139,note_on,,,,,29,0,1,,,,,0,,,72,0
28140,note_on,,,,,0,0,2,,,,,0,,,45,98
28140,note_on,,,,,16,0,2,,,,,0,,,57,98
28140,note_on,,,,,1,0,1,,,,,0,,,77,70
28169,note_on,,,,,29,0,2,,,,,0,,,45,0
28169,note_on,,,,,29,0,1,,,,,0,,,77,0
28170,note_on,,,,,1,0,1,,,,,0,,,72,55
28184,note_on,,,,,15,0,2,,,,,0,,,57,0
28199,note_on,,,,,29,0,1,,,,,0,,,72,0
28200,note_on,,,,,16,0,2,,,,,0,,,55,88
28200,note_on,,,,,0,0,2,,,,,0,,,43,78
28200,note_on,,,,,0,0,1,,,,,0,,,76,70
28200,note_on,,,,,1,0,1,,,,,0,,,79,78
28229,note_on,,,,,29,0,2,,,,,0,,,43,0
28229,note_on,,,,,0,0,1,,,,,0,,,79,0
28229,note_on,,,,,29,0,1,,,,,0,,,76,0
28229,note_on,,,,,0,0,2,,,,,0,,,55,0
28230,note_on,,,,,1,0,1,,,,,0,,,72,62
28259,note_on,,,,,29,0,1,,,,,0,,,72,0
28260,note_on,,,,,31,0,2,,,,,0,,,41,78
28260,note_on,,,,,0,0,2,,,,,0,,,53,98
28260,note_on,,,,,1,0,1,,,,,0,,,81,70
28260,note_on,,,,,0,0,1,,,,,0,,,77,70
28289,note_on,,,,,29,0,2,,,,,0,,,41,0
28289,note_on,,,,,0,0,1,,,,,0,,,81,0
28289,note_on,,,,,29,0,1,,,,,0,,,77,0
28290,note_on,,,,,1,0,1,,,,,0,,,72,55
28304,note_on,,,,,15,0,2,,,,,0,,,53,0
28304,note_on,,,,,14,0,1,,,,,0,,,72,0
28320,note_on,,,,,0,0,1,,,,,0,,,79,88
28320,note_on,,,,,0,0,1,,,,,0,,,82,110
28320,note_on,,,,,16,0,1,,,,,0,,,72,98
28320,note_on,,,,,0,0,2,,,,,0,,,52,98
28320,note_on,,,,,16,0,2,,,,,0,,,40,88
28320,set_tempo,,,,,28320,1,0,,1049685,,,,,,,
28378,note_on,,,,,28378,0,9,,,,,2,,,60,78
28380,note_on,,,,,28380,0,8,,,,,2,,,67,98
28381,note_on,,,,,28381,0,10,,,,,2,,,52,88
28383,note_on,,,,,28383,0,7,,,,,2,,,70,110
28417,note_on,,,,,39,0,9,,,,,2,,,60,0
28422,note_on,,,,,39,0,7,,,,,2,,,70,0
28423,note_on,,,,,42,0,10,,,,,2,,,52,0
28423,note_on,,,,,43,0,8,,,,,2,,,67,0
28439,note_on,,,,,119,0,2,,,,,0,,,52,0
28439,note_on,,,,,0,0,2,,,,,0,,,40,0
28439,note_on,,,,,0,0,1,,,,,0,,,82,0
28439,note_on,,,,,119,0,1,,,,,0,,,79,0
28439,note_on,,,,,0,0,1,,,,,0,,,72,0
28439,note_on,,,,,16,0,8,,,,,2,,,67,88
28440,note_on,,,,,23,0,9,,,,,2,,,60,78
28440,note_on,,,,,18,0,7,,,,,2,,,70,98
28441,note_on,,,,,18,0,10,,,,,2,,,52,88
28477,note_on,,,,,36,0,10,,,,,2,,,52,0
28478,note_on,,,,,38,0,7,,,,,2,,,70,0
28478,note_on,,,,,38,0,9,,,,,2,,,60,0
28482,note_on,,,,,43,0,8,,,,,2,,,67,0
28497,note_on,,,,,15,0,8,,,,,2,,,67,88
28497,note_on,,,,,19,0,7,,,,,2,,,70,98
28499,note_on,,,,,21,0,9,,,,,2,,,60,70
28500,note_on,,,,,23,0,10,,,,,2,,,52,88
28535,note_on,,,,,36,0,9,,,,,2,,,60,0
28535,note_on,,,,,38,0,7,,,,,2,,,70,0
28535,note_on,,,,,38,0,8,,,,,2,,,67,0
28548,note_on,,,,,48,0,10,,,,,2,,,52,0
28556,note_on,,,,,21,0,7,,,,,2,,,70,98
28556,note_on,,,,,21,0,8,,,,,2,,,67,98
28558,note_on,,,,,10,0,10,,,,,2,,,53,98
28560,note_on,,,,,25,0,9,,,,,2,,,60,88
28560,note_on,,,,,121,0,2,,,,,0,,,60,98
28575,note_on,,,,,136,0,1,,,,,0,,,79,62
28589,note_on,,,,,14,0,1,,,,,0,,,79,0
28590,note_on,,,,,1,0,1,,,,,0,,,80,62
28604,note_on,,,,,14,0,1,,,,,0,,,80,0
28605,note_on,,,,,1,0,1,,,,,0,,,82,70
28619,note_on,,,,,14,0,1,,,,,0,,,82,0
28620,note_on,,,,,1,0,1,,,,,0,,,84,62
28620,note_on,,,,,60,0,2,,,,,0,,,53,49
28629,note_on,,,,,73,0,7,,,,,2,,,70,0
28631,note_on,,,,,75,0,8,,,,,2,,,67,0
28633,note_on,,,,,75,0,10,,,,,2,,,53,0
28634,note_on,,,,,14,0,1,,,,,0,,,84,0
28635,note_on,,,,,1,0,1,,,,,0,,,79,62
28639,note_on,,,,,79,0,9,,,,,2,,,60,0
28646,note_on,,,,,13,0,10,,,,,2,,,53,98
28646,note_on,,,,,17,0,7,,,,,2,,,70,98
28647,note_on,,,,,16,0,8,,,,,2,,,67,98
28649,note_on,,,,,29,0,2,,,,,0,,,53,0
28649,note_on,,,,,14,0,1,,,,,0,,,79,0
28650,note_on,,,,,1,0,1,,,,,0,,,80,70
28651,note_on,,,,,12,0,9,,,,,2,,,60,70
28662,note_on,,,,,16,0,10,,,,,2,,,53,0
28664,note_on,,,,,14,0,1,,,,,0,,,80,0
28665,note_on,,,,,1,0,1,,,,,0,,,76,55
28668,note_on,,,,,17,0,9,,,,,2,,,60,0
28671,note_on,,,,,24,0,8,,,,,2,,,67,0
28675,note_on,,,,,4,0,8,,,,,2,,,65,110
28677,note_on,,,,,31,0,7,,,,,2,,,70,0
28677,note_on,,,,,15,0,10,,,,,2,,,53,110
28679,note_on,,,,,2,0,7,,,,,2,,,68,110
28679,note_on,,,,,14,0,1,,,,,0,,,76,0
28680,note_on,,,,,31,0,2,,,,,0,,,53,62
28680,note_on,,,,,1,0,1,,,,,0,,,77,62
28682,note_on,,,,,14,0,9,,,,,2,,,60,98
28694,note_on,,,,,14,0,1,,,,,0,,,77,0
28695,note_on,,,,,1,0,1,,,,,0,,,71,62
28709,note_on,,,,,14,0,1,,,,,0,,,71,0
28709,note_on,,,,,29,0,2,,,,,0,,,53,0
28710,note_on,,,,,1,0,1,,,,,0,,,72,62
28724,note_on,,,,,14,0,1,,,,,0,,,72,0
28725,note_on,,,,,1,0,1,,,,,0,,,67,55
28739,note_on,,,,,14,0,1,,,,,0,,,67,0
28740,note_on,,,,,1,0,1,,,,,0,,,68,70
28740,note_on,,,,,31,0,2,,,,,0,,,53,55
28754,note_on,,,,,14,0,1,,,,,0,,,68,0
28755,note_on,,,,,1,0,1,,,,,0,,,64,55
28769,note_on,,,,,14,0,1,,,,,0,,,64,0
28769,note_on,,,,,29,0,2,,,,,0,,,53,0
28769,note_on,,,,,0,0,2,,,,,0,,,60,0
28770,note_on,,,,,1,0,1,,,,,0,,,65,55
28784,note_on,,,,,14,0,1,,,,,0,,,65,0
28785,note_on,,,,,1,0,1,,,,,0,,,60,70
28799,note_on,,,,,14,0,1,,,,,0,,,60,0
28800,note_on,,,,,1,0,1,,,,,0,,,59,98
28800,note_on,,,,,31,0,2,,,,,0,,,56,98
28800,note_on,,,,,0,0,2,,,,,0,,,53,78
28801,note_on,,,,,126,0,8,,,,,2,,,65,0
28804,note_on,,,,,127,0,10,,,,,2,,,53,0
28805,note_on,,,,,123,0,9,,,,,2,,,60,0
28806,note_on,,,,,127,0,7,,,,,2,,,68,0
28856,note_on,,,,,52,0,10,,,,,2,,,53,98
28857,note_on,,,,,56,0,8,,,,,2,,,68,110
28858,note_on,,,,,53,0,9,,,,,2,,,59,88
28861,note_on,,,,,55,0,7,,,,,2,,,74,98
28879,note_on,,,,,22,0,8,,,,,2,,,68,0
28898,note_on,,,,,40,0,9,,,,,2,,,59,0
28900,note_on,,,,,44,0,10,,,,,2,,,53,0
28902,note_on,,,,,41,0,7,,,,,2,,,74,0
28917,note_on,,,,,38,0,8,,,,,2,,,68,110
28919,note_on,,,,,0,0,2,,,,,0,,,56,0
28919,note_on,,,,,119,0,2,,,,,0,,,53,0
28919,note_on,,,,,21,0,9,,,,,2,,,59,78
28919,note_on,,,,,119,0,1,,,,,0,,,59,0
28920,note_on,,,,,20,0,10,,,,,2,,,53,98
28923,note_on,,,,,21,0,7,,,,,2,,,74,98
28963,note_on,,,,,44,0,9,,,,,2,,,59,0
28967,note_on,,,,,47,0,10,,,,,2,,,53,0
28968,note_on,,,,,51,0,8,,,,,2,,,68,0
28968,note_on,,,,,45,0,7,,,,,2,,,74,0
28979,note_on,,,,,16,0,9,,,,,2,,,59,78
28980,note_on,,,,,12,0,7,,,,,2,,,74,98
28981,note_on,,,,,13,0,8,,,,,2,,,68,98
28983,note_on,,,,,16,0,10,,,,,2,,,53,98
28995,note_on,,,,,12,0,10,,,,,2,,,53,0
28996,note_on,,,,,16,0,7,,,,,2,,,74,0
28996,note_on,,,,,17,0,9,,,,,2,,,59,0
28998,note_on,,,,,17,0,8,,,,,2,,,68,0
29008,note_on,,,,,12,0,9,,,,,2,,,59,78
29008,note_on,,,,,10,0,8,,,,,2,,,68,98
29009,note_on,,,,,13,0,7,,,,,2,,,74,98
29009,note_on,,,,,14,0,10,,,,,2,,,53,98
29023,note_on,,,,,15,0,9,,,,,2,,,59,0
29027,note_on,,,,,18,0,7,,,,,2,,,74,0
29030,note_on,,,,,22,0,8,,,,,2,,,68,0
29036,note_on,,,,,13,0,9,,,,,2,,,59,88
29037,note_on,,,,,28,0,10,,,,,2,,,53,0
29040,note_on,,,,,121,0,2,,,,,0,,,55,62
29040,note_on,,,,,10,0,8,,,,,2,,,67,98
29041,note_on,,,,,14,0,7,,,,,2,,,74,110
29042,note_on,,,,,5,0,10,,,,,2,,,51,110
29055,note_on,,,,,136,0,1,,,,,0,,,74,78
29069,note_on,,,,,14,0,1,,,,,0,,,74,0
29070,note_on,,,,,1,0,1,,,,,0,,,75,88
29084,note_on,,,,,14,0,1,,,,,0,,,75,0
29085,note_on,,,,,1,0,1,,,,,0,,,77,62
29099,note_on,,,,,14,0,1,,,,,0,,,77,0
29100,note_on,,,,,60,0,2,,,,,0,,,51,70
29100,note_on,,,,,1,0,1,,,,,0,,,79,62
29114,note_on,,,,,14,0,1,,,,,0,,,79,0
29115,note_on,,,,,1,0,1,,,,,0,,,74,55
29129,note_on,,,,,29,0,2,,,,,0,,,51,0
29129,note_on,,,,,14,0,1,,,,,0,,,74,0
29130,note_on,,,,,1,0,1,,,,,0,,,75,78
29140,note_on,,,,,98,0,10,,,,,2,,,51,0
29143,note_on,,,,,103,0,8,,,,,2,,,67,0
29144,note_on,,,,,14,0,1,,,,,0,,,75,0
29145,note_on,,,,,1,0,1,,,,,0,,,71,70
29155,note_on,,,,,119,0,9,,,,,2,,,59,0
29157,note_on,,,,,116,0,7,,,,,2,,,74,0
29158,note_on,,,,,3,0,9,,,,,2,,,60,88
29159,note_on,,,,,14,0,1,,,,,0,,,71,0
29160,note_on,,,,,1,0,1,,,,,0,,,72,62
29160,note_on,,,,,31,0,2,,,,,0,,,51,70
29160,note_on,,,,,3,0,7,,,,,2,,,72,98
29161,note_on,,,,,18,0,8,,,,,2,,,67,98
29161,note_on,,,,,21,0,10,,,,,2,,,51,110
29174,note_on,,,,,14,0,1,,,,,0,,,72,0
29175,note_on,,,,,1,0,1,,,,,0,,,66,88
29189,note_on,,,,,14,0,1,,,,,0,,,66,0
29190,note_on,,,,,1,0,1,,,,,0,,,67,70
29204,note_on,,,,,44,0,2,,,,,0,,,51,0
29204,note_on,,,,,14,0,1,,,,,0,,,67,0
29205,note_on,,,,,1,0,1,,,,,0,,,62,70
29219,note_on,,,,,14,0,1,,,,,0,,,62,0
29220,note_on,,,,,16,0,2,,,,,0,,,51,78
29220,note_on,,,,,1,0,1,,,,,0,,,63,98
29234,note_on,,,,,14,0,1,,,,,0,,,63,0
29235,note_on,,,,,1,0,1,,,,,0,,,59,78
29249,note_on,,,,,14,0,1,,,,,0,,,59,0
29250,note_on,,,,,1,0,1,,,,,0,,,60,78
29255,note_on,,,,,95,0,7,,,,,2,,,72,0
29264,note_on,,,,,14,0,1,,,,,0,,,60,0
29264,note_on,,,,,44,0,2,,,,,0,,,51,0
29264,note_on,,,,,0,0,2,,,,,0,,,55,0
29265,note_on,,,,,1,0,1,,,,,0,,,55,78
29265,note_on,,,,,104,0,8,,,,,2,,,67,0
29265,note_on,,,,,104,0,10,,,,,2,,,51,0
29275,note_on,,,,,117,0,9,,,,,2,,,60,0
29278,note_on,,,,,13,0,10,,,,,2,,,51,110
29279,note_on,,,,,14,0,1,,,,,0,,,55,0
29280,note_on,,,,,15,0,8,,,,,2,,,67,98
29280,note_on,,,,,0,0,2,,,,,0,,,55,78
29280,note_on,,,,,16,0,2,,,,,0,,,51,88
29280,note_on,,,,,1,0,1,,,,,0,,,61,110
29281,note_on,,,,,26,0,7,,,,,2,,,72,88
29284,note_on,,,,,9,0,9,,,,,2,,,61,98
29323,note_on,,,,,45,0,10,,,,,2,,,51,0
29324,note_on,,,,,44,0,8,,,,,2,,,67,0
29324,note_on,,,,,40,0,9,,,,,2,,,61,0
29336,note_on,,,,,55,0,7,,,,,2,,,72,0
29338,note_on,,,,,2,0,7,,,,,2,,,70,110
29339,note_on,,,,,16,0,10,,,,,2,,,51,98
29339,note_on,,,,,15,0,8,,,,,2,,,67,98
29340,note_on,,,,,16,0,9,,,,,2,,,61,88
29378,note_on,,,,,39,0,8,,,,,2,,,67,0
29378,note_on,,,,,38,0,9,,,,,2,,,61,0
29381,note_on,,,,,43,0,7,,,,,2,,,70,0
29383,note_on,,,,,44,0,10,,,,,2,,,51,0
29396,note_on,,,,,13,0,10,,,,,2,,,51,98
29397,note_on,,,,,19,0,8,,,,,2,,,67,88
29398,note_on,,,,,20,0,9,,,,,2,,,61,88
29399,note_on,,,,,18,0,7,,,,,2,,,70,110
29399,note_on,,,,,119,0,2,,,,,0,,,55,0
29399,note_on,,,,,0,0,2,,,,,0,,,51,0
29399,note_on,,,,,119,0,1,,,,,0,,,61,0
29428,note_on,,,,,30,0,9,,,,,2,,,61,0
29433,note_on,,,,,36,0,8,,,,,2,,,67,0
29437,note_on,,,,,38,0,7,,,,,2,,,70,0
29444,note_on,,,,,48,0,10,,,,,2,,,51,0
29455,note_on,,,,,18,0,7,,,,,2,,,70,98
29456,note_on,,,,,23,0,8,,,,,2,,,67,98
29456,note_on,,,,,12,0,10,,,,,2,,,51,110
29457,note_on,,,,,29,0,9,,,,,2,,,61,98
29499,note_on,,,,,43,0,10,,,,,2,,,51,0
29505,note_on,,,,,50,0,7,,,,,2,,,70,0
29513,note_on,,,,,57,0,8,,,,,2,,,67,0
29516,note_on,,,,,59,0,9,,,,,2,,,61,0
29516,note_on,,,,,3,0,8,,,,,2,,,68,110
29518,note_on,,,,,13,0,7,,,,,2,,,75,110
29519,note_on,,,,,3,0,9,,,,,2,,,60,78
29519,note_on,,,,,20,0,10,,,,,2,,,51,110
29520,note_on,,,,,121,0,2,,,,,0,,,56,78
29535,note_on,,,,,136,0,1,,,,,0,,,70,98
29549,note_on,,,,,14,0,1,,,,,0,,,70,0
29550,note_on,,,,,1,0,1,,,,,0,,,72,62
29564,note_on,,,,,14,0,1,,,,,0,,,72,0
29565,note_on,,,,,1,0,1,,,,,0,,,73,78
29579,note_on,,,,,14,0,1,,,,,0,,,73,0
29580,note_on,,,,,1,0,1,,,,,0,,,75,70
29580,note_on,,,,,60,0,2,,,,,0,,,51,62
29588,note_on,,,,,69,0,9,,,,,2,,,60,0
29594,note_on,,,,,14,0,1,,,,,0,,,75,0
29595,note_on,,,,,1,0,1,,,,,0,,,70,70
29598,note_on,,,,,79,0,10,,,,,2,,,51,0
29608,note_on,,,,,0,0,7,,,,,2,,,72,88
29608,note_on,,,,,20,0,9,,,,,2,,,60,78
29608,note_on,,,,,90,0,7,,,,,2,,,75,0
29609,note_on,,,,,14,0,1,,,,,0,,,70,0
29609,note_on,,,,,29,0,2,,,,,0,,,51,0
29610,note_on,,,,,12,0,10,,,,,2,,,51,88
29610,note_on,,,,,1,0,1,,,,,0,,,72,62
29611,note_on,,,,,95,0,8,,,,,2,,,63,110
29615,note_on,,,,,4,0,8,,,,,2,,,68,0
29623,note_on,,,,,8,0,8,,,,,2,,,63,0
29624,note_on,,,,,14,0,1,,,,,0,,,72,0
29624,note_on,,,,,14,0,10,,,,,2,,,51,0
29625,note_on,,,,,1,0,1,,,,,0,,,67,78
29628,note_on,,,,,20,0,9,,,,,2,,,60,0
29636,note_on,,,,,13,0,8,,,,,2,,,63,110
29637,note_on,,,,,29,0,7,,,,,2,,,72,0
29638,note_on,,,,,14,0,10,,,,,2,,,51,98
29639,note_on,,,,,2,0,7,,,,,2,,,68,110
29639,note_on,,,,,14,0,1,,,,,0,,,67,0
29640,note_on,,,,,31,0,2,,,,,0,,,51,55
29640,note_on,,,,,12,0,9,,,,,2,,,60,62
29640,note_on,,,,,1,0,1,,,,,0,,,68,88
29654,note_on,,,,,14,0,1,,,,,0,,,68,0
29655,note_on,,,,,1,0,1,,,,,0,,,62,62
29669,note_on,,,,,29,0,2,,,,,0,,,51,0
29669,note_on,,,,,14,0,1,,,,,0,,,62,0
29670,note_on,,,,,1,0,1,,,,,0,,,63,88
29674,note_on,,,,,34,0,9,,,,,2,,,60,0
29680,note_on,,,,,41,0,7,,,,,2,,,68,0
29680,note_on,,,,,44,0,8,,,,,2,,,63,0
29683,note_on,,,,,45,0,10,,,,,2,,,51,0
29684,note_on,,,,,14,0,1,,,,,0,,,63,0
29685,note_on,,,,,1,0,1,,,,,0,,,59,62
29696,note_on,,,,,16,0,8,,,,,2,,,63,110
29698,note_on,,,,,15,0,10,,,,,2,,,51,110
29699,note_on,,,,,19,0,7,,,,,2,,,68,110
29699,note_on,,,,,25,0,9,,,,,2,,,60,88
29699,note_on,,,,,14,0,1,,,,,0,,,59,0
29700,note_on,,,,,31,0,2,,,,,0,,,51,62
29700,note_on,,,,,1,0,1,,,,,0,,,60,70
29714,note_on,,,,,14,0,1,,,,,0,,,60,0
29715,note_on,,,,,0,0,1,,,,,0,,,55,55
29715,note_on,,,,,1,0,1,,,,,0,,,53,70
29729,note_on,,,,,0,0,2,,,,,0,,,56,0
29729,note_on,,,,,0,0,1,,,,,0,,,53,0
29729,note_on,,,,,14,0,1,,,,,0,,,55,0
29729,note_on,,,,,29,0,2,,,,,0,,,51,0
29730,note_on,,,,,1,0,1,,,,,0,,,56,98
29742,note_on,,,,,43,0,7,,,,,2,,,68,0
29744,note_on,,,,,14,0,1,,,,,0,,,56,0
29745,note_on,,,,,1,0,1,,,,,0,,,60,70
29749,note_on,,,,,51,0,10,,,,,2,,,51,0
29752,note_on,,,,,56,0,8,,,,,2,,,63,0
29754,note_on,,,,,55,0,9,,,,,2,,,60,0
29757,note_on,,,,,15,0,7,,,,,2,,,68,110
29757,note_on,,,,,8,0,10,,,,,2,,,50,98
29758,note_on,,,,,6,0,8,,,,,2,,,65,110
29759,note_on,,,,,14,0,1,,,,,0,,,60,0
29760,note_on,,,,,1,0,1,,,,,0,,,68,78
29760,note_on,,,,,6,0,9,,,,,2,,,58,98
29760,note_on,,,,,31,0,2,,,,,0,,,58,78
29760,note_on,,,,,0,0,2,,,,,0,,,58,88
29760,note_on,,,,,0,0,2,,,,,0,,,50,62
29760,note_on,,,,,0,0,1,,,,,0,,,65,78
29834,note_on,,,,,74,0,2,,,,,0,,,50,0
29849,note_on,,,,,15,0,2,,,,,0,,,58,0
29875,note_on,,,,,118,0,10,,,,,2,,,50,0
29875,note_on,,,,,0,0,10,,,,,2,,,51,110
29878,note_on,,,,,121,0,7,,,,,2,,,68,0
29878,note_on,,,,,0,0,7,,,,,2,,,67,110
29878,note_on,,,,,120,0,8,,,,,2,,,63,98
29879,note_on,,,,,0,0,1,,,,,0,,,68,0
29879,note_on,,,,,119,0,1,,,,,0,,,65,0
29880,note_on,,,,,1,0,1,,,,,0,,,63,62
29880,note_on,,,,,0,0,1,,,,,0,,,67,62
29880,note_on,,,,,31,0,2,,,,,0,,,51,70
29881,note_on,,,,,3,0,8,,,,,2,,,65,0
29920,note_on,,,,,160,0,9,,,,,2,,,58,0
29941,note_on,,,,,21,0,9,,,,,2,,,58,88
29969,note_on,,,,,89,0,2,,,,,0,,,58,0
29977,note_on,,,,,96,0,8,,,,,2,,,63,0
29984,note_on,,,,,104,0,1,,,,,0,,,67,0
29984,note_on,,,,,0,0,1,,,,,0,,,63,0
29984,note_on,,,,,15,0,2,,,,,0,,,51,0
29994,note_on,,,,,119,0,10,,,,,2,,,51,0
29995,note_on,,,,,1,0,10,,,,,2,,,44,110
29997,note_on,,,,,119,0,7,,,,,2,,,72,98
29998,note_on,,,,,1,0,7,,,,,2,,,67,0
29999,note_on,,,,,22,0,8,,,,,2,,,63,110
29999,note_on,,,,,58,0,9,,,,,2,,,58,0
30000,note_on,,,,,0,0,2,,,,,0,,,51,78
30000,note_on,,,,,0,0,2,,,,,0,,,60,78
30000,note_on,,,,,1,0,9,,,,,2,,,56,88
30000,note_on,,,,,16,0,2,,,,,0,,,44,78
30015,note_on,,,,,31,0,1,,,,,0,,,71,62
30029,note_on,,,,,14,0,1,,,,,0,,,71,0
30030,note_on,,,,,1,0,1,,,,,0,,,72,49
30044,note_on,,,,,14,0,1,,,,,0,,,72,0
30045,note_on,,,,,1,0,1,,,,,0,,,74,70
30059,note_on,,,,,14,0,1,,,,,0,,,74,0
30060,note_on,,,,,1,0,1,,,,,0,,,75,78
30074,note_on,,,,,14,0,1,,,,,0,,,75,0
30075,note_on,,,,,1,0,1,,,,,0,,,71,62
30089,note_on,,,,,14,0,1,,,,,0,,,71,0
30090,note_on,,,,,1,0,1,,,,,0,,,72,62
30101,note_on,,,,,101,0,9,,,,,2,,,56,0
30104,note_on,,,,,14,0,1,,,,,0,,,72,0
30104,note_on,,,,,104,0,2,,,,,0,,,44,0
30105,note_on,,,,,1,0,1,,,,,0,,,68,62
30116,note_on,,,,,121,0,10,,,,,2,,,44,0
30118,note_on,,,,,2,0,10,,,,,2,,,45,98
30119,note_on,,,,,15,0,2,,,,,0,,,51,0
30119,note_on,,,,,14,0,1,,,,,0,,,68,0
30120,note_on,,,,,1,0,2,,,,,0,,,45,78
30120,note_on,,,,,19,0,9,,,,,2,,,54,98
30120,note_on,,,,,0,0,2,,,,,0,,,54,98
30135,note_on,,,,,16,0,1,,,,,0,,,74,70
30149,note_on,,,,,14,0,1,,,,,0,,,74,0
30150,note_on,,,,,1,0,1,,,,,0,,,75,88
30164,note_on,,,,,14,0,1,,,,,0,,,75,0
30165,note_on,,,,,1,0,1,,,,,0,,,77,62
30173,note_on,,,,,174,0,8,,,,,2,,,63,0
30173,note_on,,,,,0,0,8,,,,,2,,,60,88
30174,note_on,,,,,176,0,7,,,,,2,,,72,0
30177,note_on,,,,,3,0,7,,,,,2,,,75,110
30179,note_on,,,,,14,0,1,,,,,0,,,77,0
30180,note_on,,,,,1,0,1,,,,,0,,,78,70
30194,note_on,,,,,14,0,1,,,,,0,,,78,0
30195,note_on,,,,,1,0,1,,,,,0,,,74,44
30209,note_on,,,,,89,0,2,,,,,0,,,54,0
30209,note_on,,,,,14,0,1,,,,,0,,,74,0
30210,note_on,,,,,1,0,1,,,,,0,,,75,62
30224,note_on,,,,,15,0,2,,,,,0,,,45,0
30224,note_on,,,,,14,0,1,,,,,0,,,75,0
30224,note_on,,,,,0,0,2,,,,,0,,,60,0
30225,note_on,,,,,1,0,1,,,,,0,,,72,62
30226,note_on,,,,,106,0,9,,,,,2,,,54,0
30230,note_on,,,,,112,0,10,,,,,2,,,45,0
30230,note_on,,,,,0,0,10,,,,,2,,,46,98
30234,note_on,,,,,57,0,7,,,,,2,,,75,0
30235,note_on,,,,,62,0,8,,,,,2,,,60,0
30237,note_on,,,,,2,0,8,,,,,2,,,58,110
30238,note_on,,,,,4,0,7,,,,,2,,,63,98
30239,note_on,,,,,13,0,9,,,,,2,,,55,88
30239,note_on,,,,,14,0,1,,,,,0,,,72,0
30240,note_on,,,,,0,0,2,,,,,0,,,55,78
30240,note_on,,,,,0,0,2,,,,,0,,,58,78
30240,note_on,,,,,16,0,2,,,,,0,,,46,78
30255,note_on,,,,,16,0,1,,,,,0,,,81,70
30269,note_on,,,,,29,0,2,,,,,0,,,55,0
30269,note_on,,,,,14,0,1,,,,,0,,,81,0
30270,note_on,,,,,1,0,1,,,,,0,,,82,70
30284,note_on,,,,,14,0,1,,,,,0,,,82,0
30284,note_on,,,,,0,0,2,,,,,0,,,46,0
30284,note_on,,,,,15,0,2,,,,,0,,,58,0
30285,note_on,,,,,1,0,1,,,,,0,,,78,70
30299,note_on,,,,,14,0,1,,,,,0,,,78,0
30300,note_on,,,,,1,0,1,,,,,0,,,79,49
30300,note_on,,,,,16,0,2,,,,,0,,,46,70
30300,note_on,,,,,0,0,2,,,,,0,,,55,78
30300,note_on,,,,,0,0,2,,,,,0,,,51,78
30314,note_on,,,,,14,0,1,,,,,0,,,79,0
30315,note_on,,,,,1,0,1,,,,,0,,,74,55
30329,note_on,,,,,0,0,2,,,,,0,,,51,0
30329,note_on,,,,,29,0,2,,,,,0,,,55,0
30329,note_on,,,,,14,0,1,,,,,0,,,74,0
30330,note_on,,,,,1,0,1,,,,,0,,,75,70
30344,note_on,,,,,14,0,1,,,,,0,,,75,0
30344,note_on,,,,,15,0,2,,,,,0,,,46,0
30345,note_on,,,,,1,0,1,,,,,0,,,71,62
30359,note_on,,,,,14,0,1,,,,,0,,,71,0
30360,note_on,,,,,1,0,1,,,,,0,,,72,62
30360,note_on,,,,,0,0,2,,,,,0,,,56,98
30360,note_on,,,,,16,0,2,,,,,0,,,46,70
30360,note_on,,,,,0,0,2,,,,,0,,,53,78
30365,note_on,,,,,126,0,9,,,,,2,,,55,0
30366,note_on,,,,,1,0,9,,,,,2,,,53,88
30374,note_on,,,,,14,0,1,,,,,0,,,72,0
30375,note_on,,,,,1,0,1,,,,,0,,,67,44
30389,note_on,,,,,29,0,2,,,,,0,,,53,0
30389,note_on,,,,,14,0,1,,,,,0,,,67,0
30390,note_on,,,,,1,0,1,,,,,0,,,68,55
30397,note_on,,,,,167,0,10,,,,,2,,,46,0
30401,note_on,,,,,164,0,8,,,,,2,,,58,0
30404,note_on,,,,,15,0,2,,,,,0,,,56,0
30404,note_on,,,,,0,0,2,,,,,0,,,46,0
30404,note_on,,,,,14,0,1,,,,,0,,,68,0
30405,note_on,,,,,1,0,1,,,,,0,,,64,70
30410,note_on,,,,,172,0,7,,,,,2,,,67,70
30413,note_on,,,,,3,0,7,,,,,2,,,63,0
30417,note_on,,,,,4,0,7,,,,,2,,,65,98
30418,note_on,,,,,17,0,8,,,,,2,,,58,110
30418,note_on,,,,,21,0,10,,,,,2,,,46,110
30419,note_on,,,,,14,0,1,,,,,0,,,64,0
30419,note_on,,,,,2,0,7,,,,,2,,,67,0
30420,note_on,,,,,1,0,1,,,,,0,,,65,70
30420,note_on,,,,,0,0,2,,,,,0,,,53,78
30420,note_on,,,,,16,0,2,,,,,0,,,46,78
30420,note_on,,,,,0,0,2,,,,,0,,,50,70
30422,note_on,,,,,56,0,9,,,,,2,,,56,98
30427,note_on,,,,,5,0,9,,,,,2,,,53,0
30434,note_on,,,,,14,0,1,,,,,0,,,65,0
30435,note_on,,,,,1,0,1,,,,,0,,,60,55
30449,note_on,,,,,0,0,2,,,,,0,,,46,0
30449,note_on,,,,,14,0,1,,,,,0,,,60,0
30449,note_on,,,,,0,0,2,,,,,0,,,50,0
30449,note_on,,,,,29,0,2,,,,,0,,,53,0
30450,note_on,,,,,1,0,1,,,,,0,,,62,70
30462,note_on,,,,,44,0,8,,,,,2,,,58,0
30464,note_on,,,,,14,0,1,,,,,0,,,62,0
30465,note_on,,,,,1,0,1,,,,,0,,,58,62
30474,note_on,,,,,56,0,10,,,,,2,,,46,0
30475,note_on,,,,,48,0,9,,,,,2,,,56,0
30478,note_on,,,,,4,0,10,,,,,2,,,51,110
30479,note_on,,,,,17,0,8,,,,,2,,,58,110
30479,note_on,,,,,14,0,1,,,,,0,,,58,0
30480,note_on,,,,,0,0,1,,,,,0,,,55,55
30480,note_on,,,,,1,0,1,,,,,0,,,63,88
30480,note_on,,,,,0,0,2,,,,,0,,,51,78
30480,note_on,,,,,31,0,2,,,,,0,,,39,98
30481,note_on,,,,,6,0,9,,,,,2,,,55,98
30485,note_on,,,,,66,0,7,,,,,2,,,63,98
30486,note_on,,,,,1,0,7,,,,,2,,,65,0
30542,note_on,,,,,56,0,7,,,,,2,,,63,0
30553,note_on,,,,,72,0,9,,,,,2,,,55,0
30583,note_on,,,,,104,0,8,,,,,2,,,58,0
30584,note_on,,,,,104,0,2,,,,,0,,,51,0
30584,note_on,,,,,0,0,2,,,,,0,,,39,0
30584,note_on,,,,,0,0,1,,,,,0,,,63,0
30584,note_on,,,,,104,0,1,,,,,0,,,55,0
30585,note_on,,,,,1,0,2,,,,,0,,,46,70
30585,note_on,,,,,1,0,1,,,,,0,,,58,88
30594,note_on,,,,,116,0,10,,,,,2,,,51,0
30599,note_on,,,,,14,0,2,,,,,0,,,46,0
30599,note_on,,,,,14,0,1,,,,,0,,,58,0
30600,note_on,,,,,1,0,2,,,,,0,,,39,88
30600,note_on,,,,,0,0,2,,,,,0,,,51,88
30600,note_on,,,,,1,0,1,,,,,0,,,63,98
30600,note_on,,,,,0,0,1,,,,,0,,,55,62
30644,note_on,,,,,44,0,1,,,,,0,,,55,0
30644,note_on,,,,,0,0,1,,,,,0,,,63,0
30644,note_on,,,,,44,0,2,,,,,0,,,51,0
30644,note_on,,,,,0,0,2,,,,,0,,,39,0
30645,note_on,,,,,1,0,1,,,,,0,,,58,70
30645,note_on,,,,,1,0,2,,,,,0,,,46,62
30659,note_on,,,,,14,0,2,,,,,0,,,46,0
30659,note_on,,,,,14,0,1,,,,,0,,,58,0
30660,note_on,,,,,1,0,1,,,,,0,,,63,98
30660,note_on,,,,,0,0,2,,,,,0,,,39,98
30660,note_on,,,,,1,0,2,,,,,0,,,51,88
30660,note_on,,,,,0,0,1,,,,,0,,,55,62
30704,note_on,,,,,0,0,2,,,,,0,,,51,0
30704,note_on,,,,,44,0,2,,,,,0,,,39,0
30704,note_on,,,,,0,0,1,,,,,0,,,63,0
30704,note_on,,,,,44,0,1,,,,,0,,,55,0
30705,note_on,,,,,1,0,2,,,,,0,,,46,70
30705,note_on,,,,,1,0,1,,,,,0,,,58,70
30719,note_on,,,,,14,0,1,,,,,0,,,58,0
30719,note_on,,,,,14,0,2,,,,,0,,,46,0
30720,note_on,,,,,0,0,2,,,,,0,,,51,88
30720,note_on,,,,,0,0,2,,,,,0,,,39,98
30720,note_on,,,,,0,0,2,,,,,0,,,51,78
30720,note_on,,,,,1,0,2,,,,,0,,,39,88
30720,note_on,,,,,0,0,1,,,,,0,,,55,78
30720,note_on,,,,,1,0,1,,,,,0,,,63,110
30749,note_on,,,,,0,0,2,,,,,0,,,39,0
30749,note_on,,,,,29,0,2,,,,,0,,,51,0
30780,note_on,,,,,3781,0,3,,,,,1,,,70,90
30780,note_on,,,,,31,0,2,,,,,0,,,39,88
30780,note_on,,,,,0,0,2,,,,,0,,,51,78
30780,note_on,,,,,3811,0,6,,,,,1,,,51,90
30780,note_on,,,,,3781,0,5,,,,,1,,,63,90
30782,note_on,,,,,3790,0,4,,,,,1,,,67,78
30809,note_on,,,,,29,0,2,,,,,0,,,51,0
30809,note_on,,,,,0,0,2,,,,,0,,,39,0
30824,note_on,,,,,15,0,2,,,,,0,,,51,0
30824,note_on,,,,,0,0,2,,,,,0,,,39,0
30839,note_on,,,,,119,0,1,,,,,0,,,55,0
30839,note_on,,,,,0,0,1,,,,,0,,,63,0
30840,note_on,,,,,16,0,2,,,,,0,,,39,88
30840,note_on,,,,,0,0,2,,,,,0,,,51,78
30869,note_on,,,,,89,0,6,,,,,1,,,51,0
30869,note_on,,,,,89,0,3,,,,,1,,,70,0
30869,note_on,,,,,0,0,2,,,,,0,,,39,0
30869,note_on,,,,,29,0,2,,,,,0,,,51,0
30882,note_on,,,,,100,0,4,,,,,1,,,67,0
30898,note_on,,,,,16,0,4,,,,,1,,,67,78
30899,note_on,,,,,119,0,5,,,,,1,,,63,0
30900,note_on,,,,,1,0,5,,,,,1,,,63,90
30900,note_on,,,,,31,0,3,,,,,1,,,70,90
30900,note_on,,,,,31,0,6,,,,,1,,,51,90
30900,note_on,,,,,31,0,2,,,,,0,,,39,78
30900,note_on,,,,,0,0,2,,,,,0,,,51,70
30929,note_on,,,,,29,0,2,,,,,0,,,51,0
30929,note_on,,,,,0,0,2,,,,,0,,,39,0
30944,note_on,,,,,44,0,6,,,,,1,,,51,0
30956,note_on,,,,,58,0,4,,,,,1,,,67,0
30957,note_on,,,,,1,0,4,,,,,1,,,68,90
30959,note_on,,,,,59,0,3,,,,,1,,,70,0
30959,note_on,,,,,59,0,5,,,,,1,,,63,0
30960,note_on,,,,,0,0,2,,,,,0,,,51,70
30960,note_on,,,,,31,0,2,,,,,0,,,39,88
30960,note_on,,,,,1,0,3,,,,,1,,,71,78
30960,note_on,,,,,1,0,5,,,,,1,,,63,90
30960,note_on,,,,,16,0,6,,,,,1,,,51,90
30975,note_on,,,,,136,0,1,,,,,0,,,79,49
30989,note_on,,,,,14,0,1,,,,,0,,,79,0
30989,note_on,,,,,0,0,2,,,,,0,,,39,0
30989,note_on,,,,,29,0,2,,,,,0,,,51,0
30990,note_on,,,,,1,0,1,,,,,0,,,80,70
31004,note_on,,,,,14,0,1,,,,,0,,,80,0
31005,note_on,,,,,1,0,1,,,,,0,,,82,62
31019,note_on,,,,,14,0,1,,,,,0,,,82,0
31020,note_on,,,,,0,0,2,,,,,0,,,63,98
31020,note_on,,,,,31,0,2,,,,,0,,,51,78
31020,note_on,,,,,1,0,1,,,,,0,,,83,62
31020,note_on,,,,,0,0,2,,,,,0,,,59,78
31034,note_on,,,,,14,0,1,,,,,0,,,83,0
31035,note_on,,,,,1,0,1,,,,,0,,,79,55
31049,note_on,,,,,14,0,1,,,,,0,,,79,0
31049,note_on,,,,,0,0,2,,,,,0,,,63,0
31049,note_on,,,,,29,0,2,,,,,0,,,59,0
31049,note_on,,,,,0,0,2,,,,,0,,,51,0
31050,note_on,,,,,1,0,1,,,,,0,,,80,62
31064,note_on,,,,,14,0,1,,,,,0,,,80,0
31065,note_on,,,,,1,0,1,,,,,0,,,74,55
31079,note_on,,,,,14,0,1,,,,,0,,,74,0
31080,note_on,,,,,1,0,1,,,,,0,,,75,70
31080,note_on,,,,,0,0,2,,,,,0,,,56,98
31080,note_on,,,,,0,0,2,,,,,0,,,51,70
31080,note_on,,,,,31,0,2,,,,,0,,,59,88
31094,note_on,,,,,14,0,1,,,,,0,,,75,0
31095,note_on,,,,,1,0,1,,,,,0,,,70,78
31109,note_on,,,,,0,0,2,,,,,0,,,59,0
31109,note_on,,,,,29,0,2,,,,,0,,,56,0
31109,note_on,,,,,14,0,1,,,,,0,,,70,0
31109,note_on,,,,,0,0,2,,,,,0,,,51,0
31110,note_on,,,,,1,0,1,,,,,0,,,71,62
31124,note_on,,,,,14,0,1,,,,,0,,,71,0
31125,note_on,,,,,1,0,1,,,,,0,,,67,55
31139,note_on,,,,,14,0,1,,,,,0,,,67,0
31140,note_on,,,,,0,0,2,,,,,0,,,56,88
31140,note_on,,,,,0,0,2,,,,,0,,,51,78
31140,note_on,,,,,31,0,2,,,,,0,,,59,78
31140,note_on,,,,,1,0,1,,,,,0,,,68,88
31154,note_on,,,,,14,0,1,,,,,0,,,68,0
31155,note_on,,,,,1,0,1,,,,,0,,,62,62
31169,note_on,,,,,0,0,2,,,,,0,,,59,0
31169,note_on,,,,,0,0,2,,,,,0,,,51,0
31169,note_on,,,,,14,0,1,,,,,0,,,62,0
31169,note_on,,,,,29,0,2,,,,,0,,,56,0
31170,note_on,,,,,1,0,1,,,,,0,,,63,70
31184,note_on,,,,,14,0,1,,,,,0,,,63,0
31185,note_on,,,,,1,0,1,,,,,0,,,59,100
31196,note_on,,,,,239,0,4,,,,,1,,,68,0
31197,note_on,,,,,1,0,4,,,,,1,,,67,78
31199,note_on,,,,,239,0,5,,,,,1,,,63,0
31199,note_on,,,,,239,0,6,,,,,1,,,51,0
31199,note_on,,,,,14,0,1,,,,,0,,,59,0
31199,note_on,,,,,239,0,3,,,,,1,,,71,0
31200,note_on,,,,,0,0,1,,,,,0,,,61,88
31200,note_on,,,,,1,0,5,,,,,1,,,61,78
31200,note_on,,,,,1,0,1,,,,,0,,,58,98
31200,note_on,,,,,31,0,2,,,,,0,,,52,78
31200,note_on,,,,,0,0,2,,,,,0,,,40,78
31200,note_on,,,,,1,0,6,,,,,1,,,52,90
31200,note_on,,,,,1,0,3,,,,,1,,,70,78
31229,note_on,,,,,29,0,3,,,,,1,,,70,0
31229,note_on,,,,,29,0,2,,,,,0,,,40,0
31244,note_on,,,,,15,0,2,,,,,0,,,52,0
31244,note_on,,,,,44,0,6,,,,,1,,,52,0
31248,note_on,,,,,51,0,4,,,,,1,,,67,0
31258,note_on,,,,,10,0,4,,,,,1,,,67,78
31259,note_on,,,,,59,0,5,,,,,1,,,61,0
31260,note_on,,,,,1,0,5,,,,,1,,,61,90
31260,note_on,,,,,0,0,2,,,,,0,,,52,78
31260,note_on,,,,,16,0,6,,,,,1,,,52,78
31260,note_on,,,,,31,0,3,,,,,1,,,70,90
31260,note_on,,,,,16,0,2,,,,,0,,,40,70
31272,note_on,,,,,14,0,4,,,,,1,,,67,0
31274,note_on,,,,,14,0,6,,,,,1,,,52,0
31285,note_on,,,,,13,0,4,,,,,1,,,67,78
31289,note_on,,,,,29,0,2,,,,,0,,,52,0
31289,note_on,,,,,29,0,5,,,,,1,,,61,0
31289,note_on,,,,,29,0,3,,,,,1,,,70,0
31289,note_on,,,,,0,0,2,,,,,0,,,40,0
31290,note_on,,,,,16,0,6,,,,,1,,,52,78
31290,note_on,,,,,1,0,5,,,,,1,,,61,78
31290,note_on,,,,,1,0,3,,,,,1,,,70,90
31304,note_on,,,,,14,0,6,,,,,1,,,52,0
31306,note_on,,,,,21,0,4,,,,,1,,,67,0
31317,note_on,,,,,11,0,4,,,,,1,,,67,78
31319,note_on,,,,,29,0,3,,,,,1,,,70,0
31319,note_on,,,,,29,0,5,,,,,1,,,61,0
31319,note_on,,,,,0,0,1,,,,,0,,,58,0
31319,note_on,,,,,119,0,1,,,,,0,,,61,0
31320,note_on,,,,,16,0,6,,,,,1,,,52,90
31320,note_on,,,,,1,0,3,,,,,1,,,70,90
31320,note_on,,,,,1,0,5,,,,,1,,,61,90
31320,note_on,,,,,31,0,2,,,,,0,,,40,70
31320,note_on,,,,,0,0,2,,,,,0,,,52,78
31349,note_on,,,,,29,0,2,,,,,0,,,52,0
31349,note_on,,,,,0,0,2,,,,,0,,,40,0
31364,note_on,,,,,44,0,6,,,,,1,,,52,0
31365,note_on,,,,,48,0,4,,,,,1,,,67,0
31378,note_on,,,,,13,0,4,,,,,1,,,67,90
31379,note_on,,,,,59,0,3,,,,,1,,,70,0
31379,note_on,,,,,59,0,5,,,,,1,,,61,0
31380,note_on,,,,,1,0,5,,,,,1,,,61,90
31380,note_on,,,,,31,0,2,,,,,0,,,40,78
31380,note_on,,,,,1,0,3,,,,,1,,,70,90
31380,note_on,,,,,16,0,6,,,,,1,,,52,90
31380,note_on,,,,,0,0,2,,,,,0,,,52,78
31409,note_on,,,,,29,0,3,,,,,1,,,70,0
31409,note_on,,,,,29,0,2,,,,,0,,,52,0
31424,note_on,,,,,15,0,2,,,,,0,,,40,0
31435,note_on,,,,,57,0,4,,,,,1,,,67,0
31439,note_on,,,,,4,0,4,,,,,1,,,65,90
31439,note_on,,,,,59,0,5,,,,,1,,,61,0
31439,note_on,,,,,59,0,6,,,,,1,,,52,0
31440,note_on,,,,,1,0,5,,,,,1,,,61,90
31440,note_on,,,,,0,0,2,,,,,0,,,53,88
31440,note_on,,,,,31,0,3,,,,,1,,,70,90
31440,note_on,,,,,1,0,6,,,,,1,,,53,90
31440,note_on,,,,,16,0,2,,,,,0,,,41,70
31455,note_on,,,,,136,0,1,,,,,0,,,81,55
31469,note_on,,,,,29,0,2,,,,,0,,,53,0
31469,note_on,,,,,14,0,1,,,,,0,,,81,0
31470,note_on,,,,,1,0,1,,,,,0,,,82,70
31484,note_on,,,,,15,0,2,,,,,0,,,41,0
31484,note_on,,,,,14,0,1,,,,,0,,,82,0
31485,note_on,,,,,1,0,1,,,,,0,,,84,55
31499,note_on,,,,,14,0,1,,,,,0,,,84,0
31500,note_on,,,,,0,0,2,,,,,0,,,53,78
31500,note_on,,,,,16,0,2,,,,,0,,,61,88
31500,note_on,,,,,0,0,2,,,,,0,,,58,98
31500,note_on,,,,,1,0,1,,,,,0,,,85,70
31514,note_on,,,,,14,0,1,,,,,0,,,85,0
31515,note_on,,,,,1,0,1,,,,,0,,,81,55
31529,note_on,,,,,14,0,1,,,,,0,,,81,0
31529,note_on,,,,,29,0,2,,,,,0,,,53,0
31529,note_on,,,,,0,0,2,,,,,0,,,61,0
31529,note_on,,,,,0,0,2,,,,,0,,,58,0
31530,note_on,,,,,1,0,1,,,,,0,,,82,70
31544,note_on,,,,,14,0,1,,,,,0,,,82,0
31545,note_on,,,,,1,0,1,,,,,0,,,76,62
31559,note_on,,,,,14,0,1,,,,,0,,,76,0
31560,note_on,,,,,1,0,1,,,,,0,,,77,70
31560,note_on,,,,,0,0,2,,,,,0,,,65,88
31560,note_on,,,,,0,0,2,,,,,0,,,53,78
31560,note_on,,,,,31,0,2,,,,,0,,,61,88
31574,note_on,,,,,14,0,1,,,,,0,,,77,0
31575,note_on,,,,,1,0,1,,,,,0,,,72,70
31589,note_on,,,,,29,0,2,,,,,0,,,65,0
31589,note_on,,,,,0,0,2,,,,,0,,,61,0
31589,note_on,,,,,0,0,2,,,,,0,,,53,0
31589,note_on,,,,,14,0,1,,,,,0,,,72,0
31590,note_on,,,,,1,0,1,,,,,0,,,73,78
31604,note_on,,,,,14,0,1,,,,,0,,,73,0
31605,note_on,,,,,1,0,1,,,,,0,,,69,62
31619,note_on,,,,,14,0,1,,,,,0,,,69,0
31620,note_on,,,,,0,0,2,,,,,0,,,53,78
31620,note_on,,,,,0,0,2,,,,,0,,,58,98
31620,note_on,,,,,31,0,2,,,,,0,,,61,98
31620,note_on,,,,,1,0,1,,,,,0,,,70,78
31634,note_on,,,,,14,0,1,,,,,0,,,70,0
31635,note_on,,,,,1,0,1,,,,,0,,,64,70
31649,note_on,,,,,29,0,2,,,,,0,,,58,0
31649,note_on,,,,,14,0,1,,,,,0,,,64,0
31649,note_on,,,,,0,0,2,,,,,0,,,61,0
31650,note_on,,,,,1,0,1,,,,,0,,,65,78
31664,note_on,,,,,14,0,1,,,,,0,,,65,0
31664,note_on,,,,,15,0,2,,,,,0,,,53,0
31665,note_on,,,,,1,0,1,,,,,0,,,61,62
31679,note_on,,,,,239,0,5,,,,,1,,,61,0
31679,note_on,,,,,239,0,6,,,,,1,,,53,0
31679,note_on,,,,,14,0,1,,,,,0,,,61,0
31679,note_on,,,,,239,0,3,,,,,1,,,70,0
31680,note_on,,,,,16,0,2,,,,,0,,,42,88
31680,note_on,,,,,0,0,4,,,,,1,,,63,90
31680,note_on,,,,,1,0,6,,,,,1,,,54,104
31680,note_on,,,,,1,0,3,,,,,1,,,69,78
31680,note_on,,,,,0,0,1,,,,,0,,,69,88
31680,note_on,,,,,1,0,5,,,,,1,,,60,68
31680,note_on,,,,,0,0,2,,,,,0,,,54,110
31680,note_on,,,,,241,0,4,,,,,1,,,65,0
31680,note_on,,,,,1,0,1,,,,,0,,,60,98
31709,note_on,,,,,29,0,2,,,,,0,,,42,0
31724,note_on,,,,,15,0,2,,,,,0,,,54,0
31724,note_on,,,,,44,0,6,,,,,1,,,54,0
31734,note_on,,,,,54,0,4,,,,,1,,,63,0
31737,note_on,,,,,3,0,4,,,,,1,,,69,68
31739,note_on,,,,,59,0,5,,,,,1,,,60,0
31739,note_on,,,,,59,0,3,,,,,1,,,69,0
31740,note_on,,,,,16,0,6,,,,,1,,,54,90
31740,note_on,,,,,16,0,2,,,,,0,,,42,88
31740,note_on,,,,,1,0,5,,,,,1,,,63,90
31740,note_on,,,,,1,0,3,,,,,1,,,72,78
31740,note_on,,,,,0,0,2,,,,,0,,,54,98
31782,note_on,,,,,45,0,4,,,,,1,,,69,0
31784,note_on,,,,,44,0,2,,,,,0,,,54,0
31784,note_on,,,,,44,0,6,,,,,1,,,54,0
31784,note_on,,,,,0,0,2,,,,,0,,,42,0
31799,note_on,,,,,59,0,3,,,,,1,,,72,0
31799,note_on,,,,,59,0,5,,,,,1,,,63,0
31799,note_on,,,,,0,0,1,,,,,0,,,60,0
31799,note_on,,,,,119,0,1,,,,,0,,,69,0
31800,note_on,,,,,1,0,3,,,,,1,,,72,90
31800,note_on,,,,,16,0,2,,,,,0,,,42,88
31800,note_on,,,,,16,0,6,,,,,1,,,54,104
31800,note_on,,,,,1,0,5,,,,,1,,,63,90
31800,note_on,,,,,0,0,2,,,,,0,,,54,98
31800,note_on,,,,,18,0,4,,,,,1,,,69,90
31829,note_on,,,,,29,0,5,,,,,1,,,63,0
31829,note_on,,,,,0,0,2,,,,,0,,,42,0
31829,note_on,,,,,29,0,6,,,,,1,,,54,0
31829,note_on,,,,,29,0,2,,,,,0,,,54,0
31829,note_on,,,,,29,0,3,,,,,1,,,72,0
31836,note_on,,,,,36,0,4,,,,,1,,,69,0
31845,note_on,,,,,16,0,5,,,,,1,,,63,90
31845,note_on,,,,,9,0,4,,,,,1,,,69,68
31845,note_on,,,,,16,0,6,,,,,1,,,54,90
31845,note_on,,,,,16,0,3,,,,,1,,,72,90
31855,note_on,,,,,10,0,4,,,,,1,,,69,0
31859,note_on,,,,,14,0,3,,,,,1,,,72,0
31859,note_on,,,,,14,0,6,,,,,1,,,54,0
31859,note_on,,,,,14,0,5,,,,,1,,,63,0
31860,note_on,,,,,31,0,2,,,,,0,,,42,78
31860,note_on,,,,,1,0,3,,,,,1,,,72,78
31860,note_on,,,,,1,0,6,,,,,1,,,54,90
31860,note_on,,,,,5,0,4,,,,,1,,,69,78
31860,note_on,,,,,1,0,5,,,,,1,,,63,90
31860,note_on,,,,,0,0,2,,,,,0,,,54,88
31874,note_on,,,,,14,0,6,,,,,1,,,54,0
31875,note_on,,,,,15,0,4,,,,,1,,,69,0
31889,note_on,,,,,29,0,5,,,,,1,,,63,0
31889,note_on,,,,,29,0,3,,,,,1,,,72,0
31890,note_on,,,,,1,0,5,,,,,1,,,60,78
31890,note_on,,,,,16,0,6,,,,,1,,,54,90
31890,note_on,,,,,15,0,4,,,,,1,,,69,90
31890,note_on,,,,,1,0,3,,,,,1,,,75,78
31904,note_on,,,,,0,0,2,,,,,0,,,42,0
31904,note_on,,,,,14,0,5,,,,,1,,,60,0
31904,note_on,,,,,14,0,6,,,,,1,,,54,0
31904,note_on,,,,,44,0,2,,,,,0,,,54,0
31904,note_on,,,,,14,0,3,,,,,1,,,75,0
31920,note_on,,,,,16,0,5,,,,,1,,,60,90
31920,note_on,,,,,30,0,4,,,,,1,,,69,0
31920,note_on,,,,,0,0,4,,,,,1,,,67,90
31920,note_on,,,,,16,0,2,,,,,0,,,43,70
31920,note_on,,,,,0,0,2,,,,,0,,,55,78
31920,note_on,,,,,16,0,3,,,,,1,,,75,90
31920,note_on,,,,,16,0,6,,,,,1,,,55,90
31935,note_on,,,,,136,0,1,,,,,0,,,83,55
31949,note_on,,,,,14,0,1,,,,,0,,,83,0
31950,note_on,,,,,1,0,1,,,,,0,,,84,70
31964,note_on,,,,,14,0,1,,,,,0,,,84,0
31964,note_on,,,,,0,0,2,,,,,0,,,43,0
31964,note_on,,,,,44,0,2,,,,,0,,,55,0
31965,note_on,,,,,1,0,1,,,,,0,,,86,55
31979,note_on,,,,,14,0,1,,,,,0,,,86,0
31980,note_on,,,,,1,0,1,,,,,0,,,87,70
31980,note_on,,,,,0,0,2,,,,,0,,,55,78
31980,note_on,,,,,16,0,2,,,,,0,,,60,88
31994,note_on,,,,,14,0,1,,,,,0,,,87,0
31995,note_on,,,,,1,0,1,,,,,0,,,83,55
32009,note_on,,,,,14,0,1,,,,,0,,,83,0
32009,note_on,,,,,29,0,2,,,,,0,,,60,0
32010,note_on,,,,,1,0,1,,,,,0,,,84,70
32024,note_on,,,,,14,0,1,,,,,0,,,84,0
32024,note_on,,,,,15,0,2,,,,,0,,,55,0
32025,note_on,,,,,1,0,1,,,,,0,,,78,62
32039,note_on,,,,,14,0,1,,,,,0,,,78,0
32040,note_on,,,,,0,0,2,,,,,0,,,60,78
32040,note_on,,,,,16,0,2,,,,,0,,,63,98
32040,note_on,,,,,1,0,1,,,,,0,,,79,70
32040,note_on,,,,,0,0,2,,,,,0,,,55,62
32054,note_on,,,,,14,0,1,,,,,0,,,79,0
32055,note_on,,,,,1,0,1,,,,,0,,,74,70
32069,note_on,,,,,14,0,1,,,,,0,,,74,0
32070,note_on,,,,,1,0,1,,,,,0,,,75,78
32084,note_on,,,,,44,0,2,,,,,0,,,55,0
32084,note_on,,,,,0,0,2,,,,,0,,,63,0
32084,note_on,,,,,14,0,1,,,,,0,,,75,0
32084,note_on,,,,,0,0,2,,,,,0,,,60,0
32085,note_on,,,,,1,0,1,,,,,0,,,71,62
32099,note_on,,,,,14,0,1,,,,,0,,,71,0
32100,note_on,,,,,1,0,1,,,,,0,,,72,78
32100,note_on,,,,,0,0,2,,,,,0,,,55,70
32100,note_on,,,,,16,0,2,,,,,0,,,63,98
32114,note_on,,,,,14,0,1,,,,,0,,,72,0
32115,note_on,,,,,1,0,1,,,,,0,,,66,70
32129,note_on,,,,,14,0,1,,,,,0,,,66,0
32130,note_on,,,,,1,0,1,,,,,0,,,67,78
32144,note_on,,,,,44,0,2,,,,,0,,,55,0
32144,note_on,,,,,14,0,1,,,,,0,,,67,0
32144,note_on,,,,,0,0,2,,,,,0,,,63,0
32145,note_on,,,,,1,0,1,,,,,0,,,63,62
32158,note_on,,,,,238,0,4,,,,,1,,,67,0
32159,note_on,,,,,239,0,3,,,,,1,,,75,0
32159,note_on,,,,,239,0,6,,,,,1,,,55,0
32159,note_on,,,,,239,0,5,,,,,1,,,60,0
32159,note_on,,,,,14,0,1,,,,,0,,,63,0
32160,note_on,,,,,2,0,4,,,,,1,,,65,90
32160,note_on,,,,,16,0,2,,,,,0,,,44,88
32160,note_on,,,,,1,0,3,,,,,1,,,71,78
32160,note_on,,,,,1,0,6,,,,,1,,,56,90
32160,note_on,,,,,1,0,1,,,,,0,,,60,78
32160,note_on,,,,,0,0,1,,,,,0,,,59,78
32160,note_on,,,,,0,0,1,,,,,0,,,62,88
32160,note_on,,,,,1,0,5,,,,,1,,,62,78
32160,note_on,,,,,0,0,2,,,,,0,,,56,98
32174,note_on,,,,,14,0,1,,,,,0,,,62,0
32174,note_on,,,,,0,0,1,,,,,0,,,59,0
32190,note_on,,,,,16,0,1,,,,,0,,,74,78
32190,note_on,,,,,0,0,1,,,,,0,,,71,70
32219,note_on,,,,,29,0,1,,,,,0,,,71,0
32219,note_on,,,,,0,0,1,,,,,0,,,74,0
32220,note_on,,,,,1,0,1,,,,,0,,,77,78
32220,note_on,,,,,0,0,1,,,,,0,,,74,78
32249,note_on,,,,,0,0,1,,,,,0,,,77,0
32249,note_on,,,,,29,0,1,,,,,0,,,74,0
32250,note_on,,,,,1,0,1,,,,,0,,,75,70
32250,note_on,,,,,0,0,1,,,,,0,,,72,62
32266,note_on,,,,,106,0,4,,,,,1,,,65,0
32274,note_on,,,,,114,0,3,,,,,1,,,71,0
32279,note_on,,,,,0,0,1,,,,,0,,,75,0
32279,note_on,,,,,119,0,5,,,,,1,,,62,0
32279,note_on,,,,,29,0,1,,,,,0,,,72,0
32279,note_on,,,,,119,0,6,,,,,1,,,56,0
32279,note_on,,,,,0,0,1,,,,,0,,,60,0
32280,note_on,,,,,0,0,1,,,,,0,,,71,70
32280,note_on,,,,,1,0,1,,,,,0,,,74,78
32294,note_on,,,,,14,0,1,,,,,0,,,71,0
32294,note_on,,,,,0,0,2,,,,,0,,,44,0
32294,note_on,,,,,134,0,2,,,,,0,,,56,0
32294,note_on,,,,,0,0,1,,,,,0,,,74,0
32310,note_on,,,,,16,0,2,,,,,0,,,56,88
32310,note_on,,,,,0,0,1,,,,,0,,,62,78
32310,note_on,,,,,16,0,1,,,,,0,,,59,70
32324,note_on,,,,,14,0,1,,,,,0,,,59,0
32339,note_on,,,,,29,0,2,,,,,0,,,56,0
32339,note_on,,,,,15,0,1,,,,,0,,,62,0
32340,note_on,,,,,0,0,1,,,,,0,,,60,55
32340,note_on,,,,,1,0,2,,,,,0,,,55,78
32340,note_on,,,,,1,0,1,,,,,0,,,63,88
32369,note_on,,,,,0,0,1,,,,,0,,,63,0
32369,note_on,,,,,29,0,1,,,,,0,,,60,0
32369,note_on,,,,,29,0,2,,,,,0,,,55,0
32370,note_on,,,,,1,0,1,,,,,0,,,62,49
32370,note_on,,,,,0,0,1,,,,,0,,,65,28
32370,note_on,,,,,1,0,2,,,,,0,,,53,78
32399,note_on,,,,,0,0,1,,,,,0,,,62,0
32399,note_on,,,,,29,0,2,,,,,0,,,53,0
32399,note_on,,,,,29,0,1,,,,,0,,,65,0
32400,note_on,,,,,134,0,4,,,,,1,,,67,42
32400,note_on,,,,,126,0,3,,,,,1,,,72,35
32400,note_on,,,,,121,0,5,,,,,1,,,55,42
32400,note_on,,,,,0,0,2,,,,,0,,,51,98
32400,note_on,,,,,1,0,2,,,,,0,,,55,98
32400,note_on,,,,,121,0,6,,,,,1,,,51,42
32400,note_on,,,,,1,0,1,,,,,0,,,63,88
32400,note_on,,,,,0,0,1,,,,,0,,,67,70
32414,note_on,,,,,14,0,1,,,,,0,,,67,0
32414,note_on,,,,,0,0,1,,,,,0,,,63,0
32429,note_on,,,,,29,0,6,,,,,1,,,51,0
32430,note_on,,,,,16,0,1,,,,,0,,,75,62
32430,note_on,,,,,0,0,1,,,,,0,,,72,49
32459,note_on,,,,,29,0,1,,,,,0,,,72,0
32459,note_on,,,,,59,0,5,,,,,1,,,55,0
32459,note_on,,,,,0,0,1,,,,,0,,,75,0
32460,note_on,,,,,1,0,5,,,,,1,,,60,42
32460,note_on,,,,,0,0,1,,,,,0,,,79,70
32460,note_on,,,,,1,0,1,,,,,0,,,75,49
32460,note_on,,,,,60,0,4,,,,,1,,,63,50
32460,note_on,,,,,31,0,6,,,,,1,,,51,58
32460,note_on,,,,,60,0,3,,,,,1,,,67,35
32463,note_on,,,,,3,0,4,,,,,1,,,67,0
32463,note_on,,,,,3,0,3,,,,,1,,,72,0
32489,note_on,,,,,0,0,1,,,,,0,,,75,0
32489,note_on,,,,,29,0,1,,,,,0,,,79,0
32490,note_on,,,,,0,0,1,,,,,0,,,77,55
32490,note_on,,,,,1,0,1,,,,,0,,,74,70
32511,note_on,,,,,48,0,3,,,,,1,,,67,0
32518,note_on,,,,,55,0,4,,,,,1,,,63,0
32519,note_on,,,,,29,0,1,,,,,0,,,77,0
32519,note_on,,,,,0,0,1,,,,,0,,,74,0
32519,note_on,,,,,59,0,5,,,,,1,,,60,0
32519,note_on,,,,,59,0,6,,,,,1,,,51,0
32519,note_on,,,,,119,0,2,,,,,0,,,51,0
32520,note_on,,,,,1,0,1,,,,,0,,,75,55
32520,note_on,,,,,0,0,1,,,,,0,,,72,62
32534,note_on,,,,,14,0,1,,,,,0,,,72,0
32534,note_on,,,,,0,0,1,,,,,0,,,75,0
32550,note_on,,,,,16,0,1,,,,,0,,,60,70
32550,note_on,,,,,31,0,2,,,,,0,,,51,88
32579,note_on,,,,,29,0,2,,,,,0,,,51,0
32579,note_on,,,,,29,0,1,,,,,0,,,60,0
32580,note_on,,,,,1,0,2,,,,,0,,,50,62
32580,note_on,,,,,0,0,1,,,,,0,,,59,55
32580,note_on,,,,,1,0,1,,,,,0,,,62,62
32609,note_on,,,,,0,0,1,,,,,0,,,62,0
32609,note_on,,,,,29,0,2,,,,,0,,,50,0
32609,note_on,,,,,29,0,1,,,,,0,,,59,0
32610,note_on,,,,,0,0,1,,,,,0,,,60,70
32610,note_on,,,,,1,0,1,,,,,0,,,63,78
32610,note_on,,,,,1,0,2,,,,,0,,,48,55
32624,note_on,,,,,14,0,2,,,,,0,,,55,0
32639,note_on,,,,,0,0,1,,,,,0,,,63,0
32639,note_on,,,,,15,0,2,,,,,0,,,48,0
32639,note_on,,,,,29,0,1,,,,,0,,,60,0
32640,note_on,,,,,0,0,2,,,,,0,,,47,70
32640,note_on,,,,,1,0,2,,,,,0,,,55,78
32640,note_on,,,,,121,0,5,,,,,1,,,55,35
32640,note_on,,,,,129,0,3,,,,,1,,,74,29
32640,note_on,,,,,1,0,1,,,,,0,,,62,62
32640,note_on,,,,,0,0,1,,,,,0,,,65,78
32640,note_on,,,,,121,0,6,,,,,1,,,47,50
32640,note_on,,,,,122,0,4,,,,,1,,,67,50
32654,note_on,,,,,0,0,1,,,,,0,,,62,0
32654,note_on,,,,,14,0,1,,,,,0,,,65,0
32669,note_on,,,,,29,0,6,,,,,1,,,47,0
32670,note_on,,,,,16,0,1,,,,,0,,,77,70
32670,note_on,,,,,0,0,1,,,,,0,,,74,62
32684,note_on,,,,,14,0,1,,,,,0,,,77,0
32699,note_on,,,,,59,0,5,,,,,1,,,55,0
32699,note_on,,,,,15,0,1,,,,,0,,,74,0
32700,note_on,,,,,1,0,1,,,,,0,,,77,55
32700,note_on,,,,,0,0,1,,,,,0,,,80,70
32700,note_on,,,,,1,0,5,,,,,1,,,62,42
32700,note_on,,,,,60,0,3,,,,,1,,,67,35
32700,note_on,,,,,60,0,4,,,,,1,,,65,50
32700,note_on,,,,,31,0,6,,,,,1,,,47,50
32703,note_on,,,,,3,0,4,,,,,1,,,67,0
32705,note_on,,,,,5,0,3,,,,,1,,,74,0
32729,note_on,,,,,0,0,1,,,,,0,,,77,0
32729,note_on,,,,,29,0,1,,,,,0,,,80,0
32730,note_on,,,,,0,0,1,,,,,0,,,79,55
32730,note_on,,,,,1,0,1,,,,,0,,,75,70
32756,note_on,,,,,51,0,3,,,,,1,,,67,0
32757,note_on,,,,,54,0,4,,,,,1,,,65,0
32759,note_on,,,,,119,0,2,,,,,0,,,47,0
32759,note_on,,,,,59,0,6,,,,,1,,,47,0
32759,note_on,,,,,29,0,1,,,,,0,,,79,0
32759,note_on,,,,,0,0,1,,,,,0,,,75,0
32759,note_on,,,,,59,0,5,,,,,1,,,62,0
32760,note_on,,,,,0,0,1,,,,,0,,,74,62
32760,note_on,,,,,1,0,1,,,,,0,,,77,62
32774,note_on,,,,,14,0,1,,,,,0,,,74,0
32774,note_on,,,,,0,0,1,,,,,0,,,77,0
32774,note_on,,,,,15,0,2,,,,,0,,,55,0
32790,note_on,,,,,16,0,2,,,,,0,,,47,70
32790,note_on,,,,,16,0,1,,,,,0,,,59,70
32819,note_on,,,,,29,0,2,,,,,0,,,47,0
32819,note_on,,,,,29,0,1,,,,,0,,,59,0
32820,note_on,,,,,1,0,2,,,,,0,,,45,55
32820,note_on,,,,,1,0,1,,,,,0,,,57,55
32820,note_on,,,,,0,0,1,,,,,0,,,60,55
32834,note_on,,,,,14,0,1,,,,,0,,,57,0
32849,note_on,,,,,29,0,2,,,,,0,,,45,0
32849,note_on,,,,,15,0,1,,,,,0,,,60,0
32850,note_on,,,,,1,0,2,,,,,0,,,43,55
32850,note_on,,,,,1,0,1,,,,,0,,,62,62
32850,note_on,,,,,0,0,1,,,,,0,,,59,49
32864,note_on,,,,,14,0,1,,,,,0,,,59,0
32879,note_on,,,,,29,0,2,,,,,0,,,43,0
32879,note_on,,,,,15,0,1,,,,,0,,,62,0
32880,note_on,,,,,121,0,5,,,,,1,,,55,42
32880,note_on,,,,,1,0,2,,,,,0,,,48,62
32880,note_on,,,,,121,0,6,,,,,1,,,48,42
32880,note_on,,,,,123,0,4,,,,,1,,,63,42
32880,note_on,,,,,1,0,1,,,,,0,,,60,70
32880,note_on,,,,,124,0,3,,,,,1,,,75,50
32894,note_on,,,,,14,0,2,,,,,0,,,48,0
32894,note_on,,,,,14,0,1,,,,,0,,,60,0
32895,note_on,,,,,1,0,2,,,,,0,,,63,88
32895,note_on,,,,,1,0,1,,,,,0,,,75,44
32909,note_on,,,,,14,0,1,,,,,0,,,75,0
32909,note_on,,,,,14,0,2,,,,,0,,,63,0
32910,note_on,,,,,1,0,2,,,,,0,,,62,62
32910,note_on,,,,,1,0,1,,,,,0,,,74,62
32924,note_on,,,,,14,0,1,,,,,0,,,74,0
32924,note_on,,,,,14,0,2,,,,,0,,,62,0
32925,note_on,,,,,1,0,1,,,,,0,,,75,78
32925,note_on,,,,,1,0,2,,,,,0,,,63,78
32939,note_on,,,,,14,0,2,,,,,0,,,63,0
32939,note_on,,,,,14,0,1,,,,,0,,,75,0
32940,note_on,,,,,1,0,2,,,,,0,,,65,70
32940,note_on,,,,,1,0,1,,,,,0,,,77,62
32954,note_on,,,,,14,0,2,,,,,0,,,65,0
32954,note_on,,,,,14,0,1,,,,,0,,,77,0
32955,note_on,,,,,1,0,2,,,,,0,,,63,88
32955,note_on,,,,,1,0,1,,,,,0,,,75,70
32969,note_on,,,,,14,0,2,,,,,0,,,63,0
32969,note_on,,,,,14,0,1,,,,,0,,,75,0
32970,note_on,,,,,1,0,2,,,,,0,,,67,55
32970,note_on,,,,,1,0,1,,,,,0,,,79,62
32984,note_on,,,,,14,0,1,,,,,0,,,79,0
32984,note_on,,,,,14,0,2,,,,,0,,,67,0
32985,note_on,,,,,1,0,2,,,,,0,,,63,70
32985,note_on,,,,,1,0,1,,,,,0,,,75,78
32989,note_on,,,,,109,0,3,,,,,1,,,75,0
32999,note_on,,,,,14,0,1,,,,,0,,,75,0
32999,note_on,,,,,14,0,2,,,,,0,,,63,0
32999,note_on,,,,,119,0,5,,,,,1,,,55,0
32999,note_on,,,,,119,0,6,,,,,1,,,48,0
33000,note_on,,,,,1,0,2,,,,,0,,,46,78
33000,note_on,,,,,11,0,3,,,,,1,,,75,50
33000,note_on,,,,,1,0,5,,,,,1,,,61,50
33000,note_on,,,,,120,0,4,,,,,1,,,67,50
33000,note_on,,,,,1,0,6,,,,,1,,,46,58
33005,note_on,,,,,5,0,4,,,,,1,,,63,0
33014,note_on,,,,,14,0,2,,,,,0,,,46,0
33015,note_on,,,,,16,0,1,,,,,0,,,73,78
33015,note_on,,,,,1,0,2,,,,,0,,,61,78
33029,note_on,,,,,14,0,2,,,,,0,,,61,0
33029,note_on,,,,,14,0,1,,,,,0,,,73,0
33030,note_on,,,,,1,0,2,,,,,0,,,60,55
33030,note_on,,,,,1,0,1,,,,,0,,,72,44
33044,note_on,,,,,14,0,1,,,,,0,,,72,0
33044,note_on,,,,,14,0,2,,,,,0,,,60,0
33045,note_on,,,,,1,0,1,,,,,0,,,73,78
33045,note_on,,,,,1,0,2,,,,,0,,,61,78
33059,note_on,,,,,14,0,1,,,,,0,,,73,0
33059,note_on,,,,,14,0,2,,,,,0,,,61,0
33060,note_on,,,,,1,0,1,,,,,0,,,75,78
33060,note_on,,,,,1,0,2,,,,,0,,,63,98
33074,note_on,,,,,14,0,2,,,,,0,,,63,0
33074,note_on,,,,,14,0,1,,,,,0,,,75,0
33075,note_on,,,,,1,0,1,,,,,0,,,73,78
33075,note_on,,,,,1,0,2,,,,,0,,,61,62
33089,note_on,,,,,14,0,1,,,,,0,,,73,0
33089,note_on,,,,,14,0,2,,,,,0,,,61,0
33090,note_on,,,,,1,0,2,,,,,0,,,65,70
33090,note_on,,,,,1,0,1,,,,,0,,,77,49
33103,note_on,,,,,103,0,3,,,,,1,,,75,0
33104,note_on,,,,,14,0,2,,,,,0,,,65,0
33104,note_on,,,,,14,0,1,,,,,0,,,77,0
33105,note_on,,,,,1,0,1,,,,,0,,,73,88
33105,note_on,,,,,1,0,2,,,,,0,,,61,70
33119,note_on,,,,,14,0,1,,,,,0,,,73,0
33119,note_on,,,,,119,0,5,,,,,1,,,61,0
33119,note_on,,,,,119,0,6,,,,,1,,,46,0
33119,note_on,,,,,14,0,2,,,,,0,,,61,0
33120,note_on,,,,,1,0,2,,,,,0,,,44,88
33120,note_on,,,,,115,0,4,,,,,1,,,68,78
33120,note_on,,,,,17,0,3,,,,,1,,,75,68
33120,note_on,,,,,1,0,5,,,,,1,,,60,68
33120,note_on,,,,,1,0,6,,,,,1,,,44,78
33122,note_on,,,,,2,0,4,,,,,1,,,67,0
33134,note_on,,,,,14,0,2,,,,,0,,,44,0
33135,note_on,,,,,1,0,2,,,,,0,,,60,70
33135,note_on,,,,,16,0,1,,,,,0,,,72,70
33149,note_on,,,,,14,0,2,,,,,0,,,60,0
33149,note_on,,,,,14,0,1,,,,,0,,,72,0
33150,note_on,,,,,1,0,2,,,,,0,,,59,49
33150,note_on,,,,,1,0,1,,,,,0,,,71,62
33164,note_on,,,,,14,0,2,,,,,0,,,59,0
33164,note_on,,,,,14,0,1,,,,,0,,,71,0
33165,note_on,,,,,1,0,1,,,,,0,,,72,55
33165,note_on,,,,,1,0,2,,,,,0,,,60,55
33179,note_on,,,,,14,0,2,,,,,0,,,60,0
33179,note_on,,,,,14,0,1,,,,,0,,,72,0
33180,note_on,,,,,1,0,1,,,,,0,,,74,70
33180,note_on,,,,,1,0,2,,,,,0,,,62,62
33180,note_on,,,,,58,0,4,,,,,1,,,67,68
33185,note_on,,,,,5,0,4,,,,,1,,,68,0
33194,note_on,,,,,14,0,2,,,,,0,,,62,0
33194,note_on,,,,,14,0,1,,,,,0,,,74,0
33195,note_on,,,,,1,0,2,,,,,0,,,60,55
33195,note_on,,,,,1,0,1,,,,,0,,,72,62
33209,note_on,,,,,14,0,1,,,,,0,,,72,0
33209,note_on,,,,,14,0,2,,,,,0,,,60,0
33210,note_on,,,,,1,0,2,,,,,0,,,63,78
33210,note_on,,,,,1,0,1,,,,,0,,,75,88
33224,note_on,,,,,104,0,3,,,,,1,,,75,0
33224,note_on,,,,,14,0,1,,,,,0,,,75,0
33224,note_on,,,,,14,0,2,,,,,0,,,63,0
33225,note_on,,,,,1,0,1,,,,,0,,,72,70
33225,note_on,,,,,1,0,2,,,,,0,,,60,55
33239,note_on,,,,,14,0,2,,,,,0,,,60,0
33239,note_on,,,,,119,0,6,,,,,1,,,44,0
33239,note_on,,,,,14,0,1,,,,,0,,,72,0
33239,note_on,,,,,119,0,5,,,,,1,,,60,0
33240,note_on,,,,,1,0,6,,,,,1,,,56,90
33240,note_on,,,,,1,0,2,,,,,0,,,56,88
33240,note_on,,,,,16,0,3,,,,,1,,,75,90
33240,note_on,,,,,1,0,5,,,,,1,,,60,78
33254,note_on,,,,,14,0,2,,,,,0,,,56,0
33255,note_on,,,,,1,0,2,,,,,0,,,72,88
33255,note_on,,,,,16,0,1,,,,,0,,,84,78
33269,note_on,,,,,14,0,2,,,,,0,,,72,0
33269,note_on,,,,,14,0,1,,,,,0,,,84,0
33270,note_on,,,,,1,0,2,,,,,0,,,71,62
33270,note_on,,,,,1,0,1,,,,,0,,,83,70
33284,note_on,,,,,14,0,2,,,,,0,,,71,0
33284,note_on,,,,,14,0,1,,,,,0,,,83,0
33285,note_on,,,,,1,0,2,,,,,0,,,72,62
33285,note_on,,,,,1,0,1,,,,,0,,,84,70
33299,note_on,,,,,14,0,2,,,,,0,,,72,0
33299,note_on,,,,,14,0,1,,,,,0,,,84,0
33300,note_on,,,,,1,0,2,,,,,0,,,74,70
33300,note_on,,,,,1,0,1,,,,,0,,,86,70
33300,note_on,,,,,115,0,4,,,,,1,,,66,90
33304,note_on,,,,,4,0,4,,,,,1,,,67,0
33314,note_on,,,,,14,0,2,,,,,0,,,74,0
33314,note_on,,,,,14,0,1,,,,,0,,,86,0
33315,note_on,,,,,1,0,1,,,,,0,,,84,62
33315,note_on,,,,,1,0,2,,,,,0,,,72,62
33329,note_on,,,,,14,0,1,,,,,0,,,84,0
33329,note_on,,,,,14,0,2,,,,,0,,,72,0
33330,note_on,,,,,1,0,1,,,,,0,,,87,78
33330,note_on,,,,,1,0,2,,,,,0,,,75,78
33344,note_on,,,,,14,0,2,,,,,0,,,75,0
33344,note_on,,,,,14,0,1,,,,,0,,,87,0
33345,note_on,,,,,1,0,1,,,,,0,,,84,49
33345,note_on,,,,,1,0,2,,,,,0,,,72,44
33346,note_on,,,,,106,0,3,,,,,1,,,75,0
33347,note_on,,,,,43,0,4,,,,,1,,,66,0
33359,note_on,,,,,14,0,1,,,,,0,,,84,0
33359,note_on,,,,,14,0,2,,,,,0,,,72,0
33359,note_on,,,,,119,0,6,,,,,1,,,56,0
33359,note_on,,,,,119,0,5,,,,,1,,,60,0
33360,note_on,,,,,14,0,3,,,,,1,,,75,104
33360,note_on,,,,,1,0,5,,,,,1,,,60,90
33360,note_on,,,,,13,0,4,,,,,1,,,67,78
33360,note_on,,,,,1,0,6,,,,,1,,,55,78
33360,note_on,,,,,1,0,1,,,,,0,,,79,70
33360,note_on,,,,,1,0,2,,,,,0,,,67,62
33374,note_on,,,,,14,0,2,,,,,0,,,67,0
33375,note_on,,,,,1,0,2,,,,,0,,,66,88
33375,note_on,,,,,15,0,1,,,,,0,,,78,70
33389,note_on,,,,,14,0,1,,,,,0,,,78,0
33389,note_on,,,,,14,0,2,,,,,0,,,66,0
33390,note_on,,,,,1,0,1,,,,,0,,,79,70
33390,note_on,,,,,1,0,2,,,,,0,,,67,62
33404,note_on,,,,,14,0,1,,,,,0,,,79,0
33404,note_on,,,,,14,0,2,,,,,0,,,67,0
33405,note_on,,,,,1,0,1,,,,,0,,,74,70
33405,note_on,,,,,1,0,2,,,,,0,,,62,62
33419,note_on,,,,,14,0,2,,,,,0,,,62,0
33419,note_on,,,,,14,0,1,,,,,0,,,74,0
33420,note_on,,,,,1,0,2,,,,,0,,,63,88
33420,note_on,,,,,1,0,1,,,,,0,,,75,88
33434,note_on,,,,,14,0,2,,,,,0,,,63,0
33434,note_on,,,,,14,0,1,,,,,0,,,75,0
33435,note_on,,,,,1,0,2,,,,,0,,,59,62
33435,note_on,,,,,1,0,1,,,,,0,,,71,70
33449,note_on,,,,,14,0,2,,,,,0,,,59,0
33449,note_on,,,,,14,0,1,,,,,0,,,71,0
33450,note_on,,,,,1,0,2,,,,,0,,,60,49
33450,note_on,,,,,1,0,1,,,,,0,,,72,70
33464,note_on,,,,,14,0,2,,,,,0,,,60,0
33464,note_on,,,,,14,0,1,,,,,0,,,72,0
33465,note_on,,,,,1,0,2,,,,,0,,,55,30
33465,note_on,,,,,1,0,1,,,,,0,,,67,78
33472,note_on,,,,,112,0,3,,,,,1,,,75,0
33479,note_on,,,,,14,0,1,,,,,0,,,67,0
33479,note_on,,,,,14,0,2,,,,,0,,,55,0
33480,note_on,,,,,120,0,4,,,,,1,,,65,90
33480,note_on,,,,,1,0,1,,,,,0,,,68,98
33480,note_on,,,,,8,0,3,,,,,1,,,74,78
33487,note_on,,,,,7,0,4,,,,,1,,,67,0
33494,note_on,,,,,14,0,1,,,,,0,,,68,0
33495,note_on,,,,,16,0,2,,,,,0,,,64,88
33509,note_on,,,,,14,0,2,,,,,0,,,64,0
33510,note_on,,,,,1,0,2,,,,,0,,,65,78
33524,note_on,,,,,14,0,2,,,,,0,,,65,0
33525,note_on,,,,,1,0,2,,,,,0,,,61,70
33539,note_on,,,,,14,0,2,,,,,0,,,61,0
33539,note_on,,,,,179,0,5,,,,,1,,,60,0
33540,note_on,,,,,1,0,2,,,,,0,,,62,62
33540,note_on,,,,,1,0,5,,,,,1,,,59,78
33552,note_on,,,,,65,0,4,,,,,1,,,65,0
33554,note_on,,,,,14,0,2,,,,,0,,,62,0
33555,note_on,,,,,1,0,2,,,,,0,,,57,70
33560,note_on,,,,,80,0,3,,,,,1,,,74,0
33569,note_on,,,,,14,0,2,,,,,0,,,57,0
33569,note_on,,,,,209,0,6,,,,,1,,,55,0
33570,note_on,,,,,18,0,4,,,,,1,,,65,78
33570,note_on,,,,,10,0,3,,,,,1,,,74,78
33570,note_on,,,,,1,0,2,,,,,0,,,59,70
33584,note_on,,,,,14,0,2,,,,,0,,,59,0
33585,note_on,,,,,1,0,2,,,,,0,,,55,62
33595,note_on,,,,,25,0,3,,,,,1,,,74,0
33598,note_on,,,,,28,0,4,,,,,1,,,65,0
33599,note_on,,,,,59,0,5,,,,,1,,,59,0
33599,note_on,,,,,14,0,2,,,,,0,,,55,0
33600,note_on,,,,,1,0,5,,,,,1,,,60,78
33600,note_on,,,,,1,0,2,,,,,0,,,48,62
33600,note_on,,,,,31,0,6,,,,,1,,,48,68
33600,note_on,,,,,5,0,3,,,,,1,,,72,90
33600,note_on,,,,,2,0,4,,,,,1,,,63,90
33600,note_on,,,,,0,0,2,,,,,0,,,60,78
33600,note_on,,,,,106,0,1,,,,,0,,,75,70
33629,note_on,,,,,29,0,5,,,,,1,,,60,0
33637,note_on,,,,,37,0,3,,,,,1,,,72,0
33656,note_on,,,,,56,0,4,,,,,1,,,63,0
33659,note_on,,,,,59,0,2,,,,,0,,,60,0
33659,note_on,,,,,59,0,6,,,,,1,,,48,0
33659,note_on,,,,,0,0,2,,,,,0,,,48,0
33719,note_on,,,,,0,0,1,,,,,0,,,79,0
33719,note_on,,,,,119,0,1,,,,,0,,,75,0
33720,note_on,,,,,1,0,1,,,,,0,,,74,70
33720,note_on,,,,,64,0,4,,,,,1,,,62,29
33720,note_on,,,,,91,0,5,,,,,1,,,60,24
33720,note_on,,,,,61,0,6,,,,,1,,,53,42
33720,note_on,,,,,83,0,3,,,,,1,,,68,29
33720,note_on,,,,,61,0,2,,,,,0,,,41,70
33720,note_on,,,,,0,0,1,,,,,0,,,77,70
33749,note_on,,,,,29,0,5,,,,,1,,,60,0
33749,note_on,,,,,29,0,6,,,,,1,,,53,0
33769,note_on,,,,,49,0,3,,,,,1,,,68,0
33779,note_on,,,,,59,0,2,,,,,0,,,41,0
33783,note_on,,,,,63,0,4,,,,,1,,,62,0
33839,note_on,,,,,119,0,1,,,,,0,,,77,0
33839,note_on,,,,,0,0,1,,,,,0,,,74,0
33840,note_on,,,,,91,0,5,,,,,1,,,60,29
33840,note_on,,,,,1,0,1,,,,,0,,,75,70
33840,note_on,,,,,61,0,2,,,,,0,,,43,49
33840,note_on,,,,,57,0,4,,,,,1,,,63,58
33840,note_on,,,,,71,0,3,,,,,1,,,67,24
33840,note_on,,,,,0,0,1,,,,,0,,,72,49
33840,note_on,,,,,91,0,6,,,,,1,,,55,24
33883,note_on,,,,,43,0,3,,,,,1,,,67,0
33899,note_on,,,,,59,0,2,,,,,0,,,43,0
33899,note_on,,,,,59,0,6,,,,,1,,,55,0
33899,note_on,,,,,59,0,5,,,,,1,,,60,0
33903,note_on,,,,,63,0,4,,,,,1,,,63,0
33944,note_on,,,,,104,0,1,,,,,0,,,72,0
33959,note_on,,,,,15,0,1,,,,,0,,,75,0
33960,note_on,,,,,77,0,3,,,,,1,,,67,29
33960,note_on,,,,,1,0,1,,,,,0,,,74,49
33960,note_on,,,,,61,0,5,,,,,1,,,59,24
33960,note_on,,,,,61,0,6,,,,,1,,,43,29
33960,note_on,,,,,0,0,1,,,,,0,,,71,35
33960,note_on,,,,,61,0,2,,,,,0,,,43,35
33960,note_on,,,,,57,0,4,,,,,1,,,62,29
33989,note_on,,,,,29,0,5,,,,,1,,,59,0
34007,note_on,,,,,47,0,3,,,,,1,,,67,0
34019,note_on,,,,,59,0,6,,,,,1,,,43,0
34021,note_on,,,,,61,0,4,,,,,1,,,62,0
34064,note_on,,,,,0,0,1,,,,,0,,,74,0
34064,note_on,,,,,104,0,2,,,,,0,,,43,0
34064,note_on,,,,,104,0,1,,,,,0,,,71,0
34080,note_on,,,,,91,0,5,,,,,1,,,60,42
34080,note_on,,,,,16,0,1,,,,,0,,,60,98
34080,note_on,,,,,0,0,2,,,,,0,,,48,98
34080,end_of_track,,,,,0,1,0,,,,,,,,,
34080,note_on,,,,,59,0,4,,,,,1,,,60,35
34080,note_on,,,,,61,0,6,,,,,1,,,48,35
34080,note_on,,,,,16,0,2,,,,,0,,,36,98
34080,set_tempo,,,,,5760,1,0,,669195,,,,,,,
34080,note_on,,,,,73,0,3,,,,,1,,,60,35
34094,note_on,,,,,14,0,1,,,,,0,,,60,0
34110,note_on,,,,,16,0,1,,,,,0,,,72,88
34139,note_on,,,,,29,0,1,,,,,0,,,72,0
34140,note_on,,,,,1,0,1,,,,,0,,,71,78
34163,note_on,,,,,83,0,4,,,,,1,,,60,0
34169,note_on,,,,,0,0,2,,,,,0,,,36,0
34169,note_on,,,,,89,0,2,,,,,0,,,48,0
34169,note_on,,,,,29,0,1,,,,,0,,,71,0
34170,note_on,,,,,1,0,1,,,,,0,,,72,78
34199,note_on,,,,,119,0,5,,,,,1,,,60,0
34199,note_on,,,,,119,0,6,,,,,1,,,48,0
34199,note_on,,,,,29,0,1,,,,,0,,,72,0
34200,note_on,,,,,1,0,1,,,,,0,,,74,88
34200,note_on,,,,,31,0,2,,,,,0,,,60,98
34200,note_on,,,,,0,0,2,,,,,0,,,48,70
34221,note_on,,,,,141,0,3,,,,,1,,,60,0
34229,note_on,,,,,29,0,1,,,,,0,,,74,0
34230,note_on,,,,,1,0,1,,,,,0,,,72,70
34259,note_on,,,,,29,0,1,,,,,0,,,72,0
34260,note_on,,,,,1,0,1,,,,,0,,,71,70
34274,note_on,,,,,74,0,2,,,,,0,,,48,0
34274,note_on,,,,,0,0,2,,,,,0,,,60,0
34289,note_on,,,,,29,0,1,,,,,0,,,71,0
34290,note_on,,,,,1,0,1,,,,,0,,,72,70
34290,note_on,,,,,16,0,2,,,,,0,,,48,78
34290,note_on,,,,,0,0,2,,,,,0,,,60,78
34304,note_on,,,,,14,0,2,,,,,0,,,60,0
34304,note_on,,,,,0,0,2,,,,,0,,,48,0
34319,note_on,,,,,29,0,1,,,,,0,,,72,0
34320,note_on,,,,,16,0,2,,,,,0,,,48,88
34320,note_on,,,,,0,0,2,,,,,0,,,36,98
34320,note_on,,,,,1,0,1,,,,,0,,,60,78
34349,note_on,,,,,29,0,2,,,,,0,,,36,0
34349,note_on,,,,,29,0,1,,,,,0,,,60,0
34350,note_on,,,,,1,0,1,,,,,0,,,72,78
34364,note_on,,,,,15,0,2,,,,,0,,,48,0
34379,note_on,,,,,29,0,1,,,,,0,,,72,0
34380,note_on,,,,,159,0,3,,,,,1,,,72,90
34380,note_on,,,,,1,0,1,,,,,0,,,62,88
34380,note_on,,,,,181,0,5,,,,,1,,,60,78
34380,note_on,,,,,217,0,4,,,,,1,,,60,90
34380,note_on,,,,,0,0,2,,,,,0,,,50,88
34380,note_on,,,,,16,0,2,,,,,0,,,38,88
34380,note_on,,,,,181,0,6,,,,,1,,,48,90
34409,note_on,,,,,29,0,5,,,,,1,,,60,0
34409,note_on,,,,,0,0,2,,,,,0,,,38,0
34409,note_on,,,,,29,0,2,,,,,0,,,50,0
34409,note_on,,,,,29,0,1,,,,,0,,,62,0
34409,note_on,,,,,29,0,6,,,,,1,,,48,0
34410,note_on,,,,,1,0,1,,,,,0,,,72,78
34410,note_on,,,,,30,0,4,,,,,1,,,60,0
34422,note_on,,,,,42,0,3,,,,,1,,,72,0
34439,note_on,,,,,29,0,1,,,,,0,,,72,0
34440,note_on,,,,,31,0,6,,,,,1,,,48,90
34440,note_on,,,,,31,0,5,,,,,1,,,60,68
34440,note_on,,,,,18,0,3,,,,,1,,,72,78
34440,note_on,,,,,0,0,2,,,,,0,,,52,88
34440,note_on,,,,,31,0,2,,,,,0,,,40,88
34440,note_on,,,,,30,0,4,,,,,1,,,60,90
34440,note_on,,,,,1,0,1,,,,,0,,,64,88
34469,note_on,,,,,29,0,6,,,,,1,,,48,0
34469,note_on,,,,,29,0,2,,,,,0,,,52,0
34469,note_on,,,,,29,0,5,,,,,1,,,60,0
34469,note_on,,,,,0,0,2,,,,,0,,,40,0
34469,note_on,,,,,29,0,1,,,,,0,,,64,0
34470,note_on,,,,,1,0,1,,,,,0,,,72,78
34475,note_on,,,,,35,0,4,,,,,1,,,60,0
34481,note_on,,,,,41,0,3,,,,,1,,,72,0
34499,note_on,,,,,29,0,1,,,,,0,,,72,0
34500,note_on,,,,,31,0,6,,,,,1,,,48,90
34500,note_on,,,,,25,0,4,,,,,1,,,60,90
34500,note_on,,,,,0,0,2,,,,,0,,,53,88
34500,note_on,,,,,31,0,2,,,,,0,,,41,88
34500,note_on,,,,,31,0,5,,,,,1,,,60,78
34500,note_on,,,,,19,0,3,,,,,1,,,72,90
34500,note_on,,,,,1,0,1,,,,,0,,,65,98
34529,note_on,,,,,29,0,2,,,,,0,,,53,0
34529,note_on,,,,,0,0,2,,,,,0,,,41,0
34529,note_on,,,,,29,0,1,,,,,0,,,65,0
34529,note_on,,,,,29,0,6,,,,,1,,,48,0
34529,note_on,,,,,29,0,5,,,,,1,,,60,0
34530,note_on,,,,,30,0,4,,,,,1,,,60,0
34530,note_on,,,,,1,0,1,,,,,0,,,72,62
34542,note_on,,,,,42,0,3,,,,,1,,,72,0
34559,note_on,,,,,29,0,1,,,,,0,,,72,0
34560,note_on,,,,,18,0,3,,,,,1,,,72,90
34560,note_on,,,,,30,0,4,,,,,1,,,60,90
34560,note_on,,,,,0,0,2,,,,,0,,,55,98
34560,note_on,,,,,31,0,2,,,,,0,,,43,78
34560,note_on,,,,,1,0,1,,,,,0,,,67,78
34560,note_on,,,,,31,0,6,,,,,1,,,48,90
34560,note_on,,,,,31,0,5,,,,,1,,,60,78
34574,note_on,,,,,14,0,1,,,,,0,,,67,0
34590,note_on,,,,,16,0,1,,,,,0,,,72,78
34619,note_on,,,,,29,0,1,,,,,0,,,72,0
34620,note_on,,,,,1,0,1,,,,,0,,,71,70
34645,note_on,,,,,85,0,4,,,,,1,,,60,0
34649,note_on,,,,,89,0,6,,,,,1,,,48,0
34649,note_on,,,,,29,0,1,,,,,0,,,71,0
34650,note_on,,,,,1,0,1,,,,,0,,,72,70
34661,note_on,,,,,101,0,3,,,,,1,,,72,0
34664,note_on,,,,,0,0,2,,,,,0,,,43,0
34664,note_on,,,,,104,0,2,,,,,0,,,55,0
34679,note_on,,,,,119,0,5,,,,,1,,,60,0
34679,note_on,,,,,29,0,1,,,,,0,,,72,0
34680,note_on,,,,,31,0,6,,,,,1,,,48,90
34680,note_on,,,,,1,0,5,,,,,1,,,60,90
34680,note_on,,,,,19,0,3,,,,,1,,,72,90
34680,note_on,,,,,35,0,4,,,,,1,,,60,90
34680,note_on,,,,,0,0,2,,,,,0,,,60,98
34680,note_on,,,,,1,0,1,,,,,0,,,74,78
34680,note_on,,,,,16,0,2,,,,,0,,,48,98
34709,note_on,,,,,29,0,1,,,,,0,,,74,0
34710,note_on,,,,,1,0,1,,,,,0,,,72,70
34739,note_on,,,,,59,0,2,,,,,0,,,60,0
34739,note_on,,,,,29,0,1,,,,,0,,,72,0
34740,note_on,,,,,1,0,1,,,,,0,,,71,62
34754,note_on,,,,,15,0,2,,,,,0,,,48,0
34769,note_on,,,,,89,0,5,,,,,1,,,60,0
34769,note_on,,,,,89,0,6,,,,,1,,,48,0
34769,note_on,,,,,29,0,1,,,,,0,,,71,0
34770,note_on,,,,,16,0,2,,,,,0,,,48,78
34770,note_on,,,,,0,0,2,,,,,0,,,60,70
34770,note_on,,,,,90,0,3,,,,,1,,,72,0
34770,note_on,,,,,1,0,1,,,,,0,,,72,70
34775,note_on,,,,,95,0,4,,,,,1,,,60,0
34784,note_on,,,,,0,0,2,,,,,0,,,48,0
34784,note_on,,,,,14,0,2,,,,,0,,,60,0
34799,note_on,,,,,29,0,1,,,,,0,,,72,0
34800,note_on,,,,,31,0,5,,,,,1,,,60,90
34800,note_on,,,,,25,0,4,,,,,1,,,60,90
34800,note_on,,,,,16,0,2,,,,,0,,,40,88
34800,note_on,,,,,1,0,1,,,,,0,,,64,88
34800,note_on,,,,,30,0,3,,,,,1,,,72,90
34800,note_on,,,,,31,0,6,,,,,1,,,48,90
34800,note_on,,,,,0,0,2,,,,,0,,,52,78
34829,note_on,,,,,29,0,1,,,,,0,,,64,0
34830,note_on,,,,,1,0,1,,,,,0,,,72,70
34844,note_on,,,,,0,0,2,,,,,0,,,40,0
34844,note_on,,,,,44,0,2,,,,,0,,,52,0
34859,note_on,,,,,29,0,1,,,,,0,,,72,0
34859,note_on,,,,,59,0,6,,,,,1,,,48,0
34860,note_on,,,,,0,0,2,,,,,0,,,53,88
34860,note_on,,,,,1,0,1,,,,,0,,,65,98
34860,note_on,,,,,16,0,2,,,,,0,,,41,88
34876,note_on,,,,,76,0,4,,,,,1,,,60,0
34877,note_on,,,,,77,0,3,,,,,1,,,72,0
34889,note_on,,,,,29,0,1,,,,,0,,,65,0
34889,note_on,,,,,89,0,5,,,,,1,,,60,0
34890,note_on,,,,,14,0,4,,,,,1,,,60,90
34890,note_on,,,,,13,0,3,,,,,1,,,72,90
34890,note_on,,,,,31,0,6,,,,,1,,,48,90
34890,note_on,,,,,1,0,5,,,,,1,,,60,78
34890,note_on,,,,,1,0,1,,,,,0,,,72,70
34903,note_on,,,,,13,0,3,,,,,1,,,72,0
34904,note_on,,,,,0,0,2,,,,,0,,,41,0
34904,note_on,,,,,44,0,2,,,,,0,,,53,0
34905,note_on,,,,,15,0,4,,,,,1,,,60,0
34919,note_on,,,,,29,0,6,,,,,1,,,48,0
34919,note_on,,,,,29,0,1,,,,,0,,,72,0
34919,note_on,,,,,29,0,5,,,,,1,,,60,0
34920,note_on,,,,,15,0,4,,,,,1,,,60,90
34920,note_on,,,,,1,0,1,,,,,0,,,67,88
34920,note_on,,,,,1,0,5,,,,,1,,,60,90
34920,note_on,,,,,1,0,6,,,,,1,,,48,90
34920,note_on,,,,,0,0,2,,,,,0,,,55,88
34920,note_on,,,,,16,0,2,,,,,0,,,43,78
34920,note_on,,,,,17,0,3,,,,,1,,,72,90
34949,note_on,,,,,29,0,1,,,,,0,,,67,0
34949,note_on,,,,,29,0,2,,,,,0,,,43,0
34950,note_on,,,,,1,0,1,,,,,0,,,72,62
34964,note_on,,,,,15,0,2,,,,,0,,,55,0
34979,note_on,,,,,29,0,1,,,,,0,,,72,0
34980,note_on,,,,,0,0,2,,,,,0,,,57,88
34980,note_on,,,,,16,0,2,,,,,0,,,45,78
34980,note_on,,,,,1,0,1,,,,,0,,,69,78
35008,note_on,,,,,88,0,4,,,,,1,,,60,0
35009,note_on,,,,,89,0,5,,,,,1,,,60,0
35009,note_on,,,,,89,0,6,,,,,1,,,48,0
35009,note_on,,,,,29,0,1,,,,,0,,,69,0
35009,note_on,,,,,29,0,2,,,,,0,,,45,0
35010,note_on,,,,,1,0,1,,,,,0,,,72,70
35011,note_on,,,,,91,0,3,,,,,1,,,72,0
35024,note_on,,,,,15,0,2,,,,,0,,,57,0
35039,note_on,,,,,29,0,1,,,,,0,,,72,0
35040,note_on,,,,,32,0,4,,,,,1,,,60,90
35040,note_on,,,,,31,0,5,,,,,1,,,60,90
35040,note_on,,,,,31,0,6,,,,,1,,,48,90
35040,note_on,,,,,1,0,1,,,,,0,,,70,98
35040,note_on,,,,,29,0,3,,,,,1,,,72,90
35040,note_on,,,,,16,0,2,,,,,0,,,58,98
35040,note_on,,,,,0,0,2,,,,,0,,,46,98
35054,note_on,,,,,14,0,1,,,,,0,,,70,0
35070,note_on,,,,,16,0,1,,,,,0,,,72,70
35099,note_on,,,,,29,0,1,,,,,0,,,72,0
35100,note_on,,,,,1,0,1,,,,,0,,,71,88
35129,note_on,,,,,89,0,5,,,,,1,,,60,0
35129,note_on,,,,,89,0,6,,,,,1,,,48,0
35129,note_on,,,,,89,0,2,,,,,0,,,46,0
35129,note_on,,,,,29,0,1,,,,,0,,,71,0
35130,note_on,,,,,1,0,1,,,,,0,,,72,78
35137,note_on,,,,,97,0,4,,,,,1,,,60,0
35139,note_on,,,,,99,0,3,,,,,1,,,72,0
35144,note_on,,,,,15,0,2,,,,,0,,,58,0
35159,note_on,,,,,29,0,1,,,,,0,,,72,0
35160,note_on,,,,,31,0,5,,,,,1,,,60,90
35160,note_on,,,,,1,0,1,,,,,0,,,74,78
35160,note_on,,,,,0,0,2,,,,,0,,,60,78
35160,note_on,,,,,21,0,3,,,,,1,,,72,90
35160,note_on,,,,,31,0,6,,,,,1,,,48,90
35160,note_on,,,,,16,0,2,,,,,0,,,48,78
35160,note_on,,,,,23,0,4,,,,,1,,,60,90
35188,note_on,,,,,28,0,4,,,,,1,,,60,0
35189,note_on,,,,,29,0,1,,,,,0,,,74,0
35189,note_on,,,,,29,0,5,,,,,1,,,60,0
35189,note_on,,,,,29,0,6,,,,,1,,,48,0
35190,note_on,,,,,1,0,1,,,,,0,,,72,62
35195,note_on,,,,,35,0,3,,,,,1,,,72,0
35219,note_on,,,,,29,0,1,,,,,0,,,72,0
35220,note_on,,,,,31,0,5,,,,,1,,,60,90
35220,note_on,,,,,25,0,3,,,,,1,,,72,78
35220,note_on,,,,,1,0,1,,,,,0,,,71,70
35220,note_on,,,,,31,0,6,,,,,1,,,48,78
35220,note_on,,,,,32,0,4,,,,,1,,,60,78
35234,note_on,,,,,74,0,2,,,,,0,,,60,0
35234,note_on,,,,,0,0,2,,,,,0,,,48,0
35249,note_on,,,,,29,0,1,,,,,0,,,71,0
35249,note_on,,,,,29,0,5,,,,,1,,,60,0
35250,note_on,,,,,1,0,1,,,,,0,,,72,70
35250,note_on,,,,,16,0,2,,,,,0,,,48,70
35250,note_on,,,,,0,0,2,,,,,0,,,60,88
35253,note_on,,,,,33,0,3,,,,,1,,,72,0
35264,note_on,,,,,0,0,2,,,,,0,,,48,0
35264,note_on,,,,,14,0,2,,,,,0,,,60,0
35266,note_on,,,,,46,0,4,,,,,1,,,60,0
35279,note_on,,,,,29,0,1,,,,,0,,,72,0
35279,note_on,,,,,59,0,6,,,,,1,,,48,0
35280,note_on,,,,,27,0,3,,,,,1,,,72,78
35280,note_on,,,,,31,0,5,,,,,1,,,60,90
35280,note_on,,,,,14,0,4,,,,,1,,,64,78
35280,note_on,,,,,1,0,6,,,,,1,,,58,90
35280,note_on,,,,,16,0,2,,,,,0,,,46,88
35280,note_on,,,,,0,0,2,,,,,0,,,58,98
35280,note_on,,,,,1,0,1,,,,,0,,,76,88
35309,note_on,,,,,29,0,1,,,,,0,,,76,0
35310,note_on,,,,,1,0,1,,,,,0,,,72,62
35322,note_on,,,,,42,0,4,,,,,1,,,64,0
35324,note_on,,,,,44,0,2,,,,,0,,,58,0
35324,note_on,,,,,0,0,2,,,,,0,,,46,0
35339,note_on,,,,,29,0,1,,,,,0,,,72,0
35339,note_on,,,,,59,0,6,,,,,1,,,58,0
35340,note_on,,,,,18,0,4,,,,,1,,,65,78
35340,note_on,,,,,16,0,2,,,,,0,,,45,88
35340,note_on,,,,,1,0,6,,,,,1,,,57,78
35340,note_on,,,,,1,0,1,,,,,0,,,77,78
35340,note_on,,,,,0,0,2,,,,,0,,,57,88
35369,note_on,,,,,29,0,1,,,,,0,,,77,0
35369,note_on,,,,,29,0,2,,,,,0,,,45,0
35370,note_on,,,,,1,0,1,,,,,0,,,72,62
35374,note_on,,,,,94,0,3,,,,,1,,,72,0
35380,note_on,,,,,40,0,4,,,,,1,,,65,0
35384,note_on,,,,,15,0,2,,,,,0,,,57,0
35399,note_on,,,,,29,0,1,,,,,0,,,72,0
35399,note_on,,,,,59,0,6,,,,,1,,,57,0
35399,note_on,,,,,119,0,5,,,,,1,,,60,0
35400,note_on,,,,,1,0,1,,,,,0,,,79,78
35400,note_on,,,,,0,0,2,,,,,0,,,43,78
35400,note_on,,,,,1,0,5,,,,,1,,,58,90
35400,note_on,,,,,20,0,4,,,,,1,,,67,78
35400,note_on,,,,,16,0,2,,,,,0,,,55,88
35400,note_on,,,,,0,0,1,,,,,0,,,76,78
35400,note_on,,,,,26,0,3,,,,,1,,,72,90
35400,note_on,,,,,1,0,6,,,,,1,,,55,78
35429,note_on,,,,,29,0,1,,,,,0,,,76,0
35429,note_on,,,,,0,0,1,,,,,0,,,79,0
35430,note_on,,,,,30,0,3,,,,,1,,,72,0
35430,note_on,,,,,1,0,1,,,,,0,,,72,70
35444,note_on,,,,,44,0,2,,,,,0,,,43,0
35444,note_on,,,,,0,0,2,,,,,0,,,55,0
35452,note_on,,,,,52,0,4,,,,,1,,,67,0
35459,note_on,,,,,59,0,6,,,,,1,,,55,0
35459,note_on,,,,,29,0,1,,,,,0,,,72,0
35459,note_on,,,,,59,0,5,,,,,1,,,58,0
35460,note_on,,,,,30,0,3,,,,,1,,,72,78
35460,note_on,,,,,1,0,5,,,,,1,,,57,78
35460,note_on,,,,,0,0,1,,,,,0,,,81,78
35460,note_on,,,,,0,0,2,,,,,0,,,53,88
35460,note_on,,,,,16,0,2,,,,,0,,,41,78
35460,note_on,,,,,1,0,1,,,,,0,,,77,88
35460,note_on,,,,,1,0,6,,,,,1,,,53,68
35460,note_on,,,,,8,0,4,,,,,1,,,69,68
35488,note_on,,,,,28,0,3,,,,,1,,,72,0
35489,note_on,,,,,0,0,1,,,,,0,,,77,0
35489,note_on,,,,,29,0,1,,,,,0,,,81,0
35490,note_on,,,,,1,0,1,,,,,0,,,72,70
35504,note_on,,,,,44,0,2,,,,,0,,,53,0
35504,note_on,,,,,0,0,2,,,,,0,,,41,0
35505,note_on,,,,,45,0,4,,,,,1,,,69,0
35519,note_on,,,,,59,0,6,,,,,1,,,53,0
35519,note_on,,,,,59,0,5,,,,,1,,,57,0
35519,note_on,,,,,29,0,1,,,,,0,,,72,0
35520,note_on,,,,,16,0,2,,,,,0,,,52,88
35520,note_on,,,,,0,0,2,,,,,0,,,40,78
35520,note_on,,,,,32,0,3,,,,,1,,,72,90
35520,note_on,,,,,1,0,1,,,,,0,,,82,110
35520,note_on,,,,,1,0,6,,,,,1,,,52,78
35520,note_on,,,,,15,0,4,,,,,1,,,70,90
35520,note_on,,,,,1,0,5,,,,,1,,,55,90
35549,note_on,,,,,29,0,1,,,,,0,,,82,0
35550,note_on,,,,,1,0,1,,,,,0,,,79,78
35564,note_on,,,,,14,0,1,,,,,0,,,79,0
35580,note_on,,,,,16,0,1,,,,,0,,,72,78
35594,note_on,,,,,0,0,2,,,,,0,,,52,0
35594,note_on,,,,,74,0,2,,,,,0,,,40,0
35594,note_on,,,,,14,0,1,,,,,0,,,72,0
35610,note_on,,,,,16,0,1,,,,,0,,,82,98
35619,note_on,,,,,99,0,4,,,,,1,,,70,0
35622,note_on,,,,,102,0,3,,,,,1,,,72,0
35624,note_on,,,,,14,0,1,,,,,0,,,82,0
35639,note_on,,,,,119,0,6,,,,,1,,,52,0
35639,note_on,,,,,119,0,5,,,,,1,,,55,0
35640,note_on,,,,,21,0,4,,,,,1,,,69,78
35640,note_on,,,,,18,0,3,,,,,1,,,72,90
35640,note_on,,,,,0,0,2,,,,,0,,,53,88
35640,note_on,,,,,1,0,5,,,,,1,,,53,90
35640,note_on,,,,,16,0,1,,,,,0,,,81,62
35640,note_on,,,,,1,0,6,,,,,1,,,53,78
35640,note_on,,,,,46,0,2,,,,,0,,,41,78
35669,note_on,,,,,29,0,5,,,,,1,,,53,0
35669,note_on,,,,,29,0,1,,,,,0,,,81,0
35669,note_on,,,,,29,0,6,,,,,1,,,53,0
35670,note_on,,,,,1,0,1,,,,,0,,,77,70
35674,note_on,,,,,34,0,3,,,,,1,,,72,0
35689,note_on,,,,,49,0,4,,,,,1,,,69,0
35699,note_on,,,,,29,0,1,,,,,0,,,77,0
35700,note_on,,,,,31,0,6,,,,,1,,,53,78
35700,note_on,,,,,26,0,3,,,,,1,,,72,68
35700,note_on,,,,,31,0,5,,,,,1,,,53,90
35700,note_on,,,,,1,0,1,,,,,0,,,72,70
35700,note_on,,,,,11,0,4,,,,,1,,,69,68
35729,note_on,,,,,29,0,1,,,,,0,,,72,0
35730,note_on,,,,,1,0,1,,,,,0,,,81,62
35735,note_on,,,,,35,0,3,,,,,1,,,72,0
35744,note_on,,,,,104,0,2,,,,,0,,,41,0
35747,note_on,,,,,47,0,4,,,,,1,,,69,0
35759,note_on,,,,,29,0,1,,,,,0,,,81,0
35759,note_on,,,,,15,0,2,,,,,0,,,53,0
35759,note_on,,,,,59,0,5,,,,,1,,,53,0
35759,note_on,,,,,59,0,6,,,,,1,,,53,0
35760,note_on,,,,,1,0,2,,,,,0,,,40,78
35760,note_on,,,,,0,0,2,,,,,0,,,52,78
35760,note_on,,,,,13,0,4,,,,,1,,,67,78
35760,note_on,,,,,25,0,3,,,,,1,,,72,90
35760,note_on,,,,,1,0,5,,,,,1,,,55,78
35760,note_on,,,,,1,0,1,,,,,0,,,79,70
35760,note_on,,,,,1,0,6,,,,,1,,,52,78
35789,note_on,,,,,29,0,1,,,,,0,,,79,0
35790,note_on,,,,,1,0,1,,,,,0,,,76,70
35814,note_on,,,,,54,0,4,,,,,1,,,67,0
35819,note_on,,,,,59,0,6,,,,,1,,,52,0
35819,note_on,,,,,29,0,1,,,,,0,,,76,0
35819,note_on,,,,,0,0,2,,,,,0,,,40,0
35819,note_on,,,,,59,0,2,,,,,0,,,52,0
35819,note_on,,,,,59,0,5,,,,,1,,,55,0
35820,note_on,,,,,1,0,2,,,,,0,,,48,78
35820,note_on,,,,,0,0,2,,,,,0,,,60,88
35820,note_on,,,,,6,0,4,,,,,1,,,64,68
35820,note_on,,,,,1,0,1,,,,,0,,,79,70
35820,note_on,,,,,1,0,5,,,,,1,,,60,78
35820,note_on,,,,,1,0,6,,,,,1,,,48,68
35849,note_on,,,,,29,0,2,,,,,0,,,48,0
35849,note_on,,,,,29,0,1,,,,,0,,,79,0
35850,note_on,,,,,1,0,1,,,,,0,,,76,62
35864,note_on,,,,,44,0,4,,,,,1,,,64,0
35876,note_on,,,,,116,0,3,,,,,1,,,72,0
35879,note_on,,,,,59,0,6,,,,,1,,,48,0
35879,note_on,,,,,30,0,2,,,,,0,,,60,0
35879,note_on,,,,,29,0,1,,,,,0,,,76,0
35880,note_on,,,,,16,0,4,,,,,1,,,69,78
35880,note_on,,,,,1,0,6,,,,,1,,,50,68
35880,note_on,,,,,4,0,3,,,,,1,,,77,90
35880,note_on,,,,,1,0,2,,,,,0,,,50,70
35880,note_on,,,,,0,0,2,,,,,0,,,62,88
35880,note_on,,,,,1,0,1,,,,,0,,,77,78
35939,note_on,,,,,119,0,5,,,,,1,,,60,0
35939,note_on,,,,,59,0,2,,,,,0,,,62,0
35939,note_on,,,,,0,0,2,,,,,0,,,50,0
35939,note_on,,,,,59,0,1,,,,,0,,,77,0
35939,note_on,,,,,59,0,6,,,,,1,,,50,0
35940,note_on,,,,,1,0,6,,,,,1,,,55,78
35940,note_on,,,,,1,0,1,,,,,0,,,71,70
35940,note_on,,,,,0,0,1,,,,,0,,,76,70
35940,note_on,,,,,1,0,5,,,,,1,,,59,78
35940,note_on,,,,,60,0,4,,,,,1,,,67,78
35940,note_on,,,,,0,0,2,,,,,0,,,55,78
35940,note_on,,,,,1,0,2,,,,,0,,,43,70
35944,note_on,,,,,4,0,4,,,,,1,,,69,0
35969,note_on,,,,,0,0,1,,,,,0,,,71,0
35969,note_on,,,,,29,0,1,,,,,0,,,76,0
35970,note_on,,,,,1,0,1,,,,,0,,,74,78
35977,note_on,,,,,33,0,4,,,,,1,,,67,0
35984,note_on,,,,,0,0,2,,,,,0,,,43,0
35984,note_on,,,,,44,0,2,,,,,0,,,55,0
35990,note_on,,,,,110,0,3,,,,,1,,,77,0
35999,note_on,,,,,59,0,5,,,,,1,,,59,0
35999,note_on,,,,,29,0,1,,,,,0,,,74,0
35999,note_on,,,,,59,0,6,,,,,1,,,55,0
36000,note_on,,,,,1,0,5,,,,,1,,,60,78
36000,note_on,,,,,1,0,6,,,,,1,,,48,68
36000,note_on,,,,,1,0,1,,,,,0,,,72,78
36000,note_on,,,,,10,0,3,,,,,1,,,76,78
36000,note_on,,,,,16,0,2,,,,,0,,,48,88
36000,note_on,,,,,23,0,4,,,,,1,,,67,78
36029,note_on,,,,,29,0,1,,,,,0,,,72,0
36030,note_on,,,,,1,0,1,,,,,0,,,67,70
36059,note_on,,,,,59,0,2,,,,,0,,,48,0
36059,note_on,,,,,29,0,1,,,,,0,,,67,0
36060,note_on,,,,,1,0,2,,,,,0,,,64,88
36060,note_on,,,,,0,0,2,,,,,0,,,60,98
36060,note_on,,,,,1,0,1,,,,,0,,,69,70
36089,note_on,,,,,89,0,6,,,,,1,,,48,0
36089,note_on,,,,,29,0,1,,,,,0,,,69,0
36089,note_on,,,,,0,0,2,,,,,0,,,64,0
36089,note_on,,,,,29,0,2,,,,,0,,,60,0
36090,note_on,,,,,1,0,1,,,,,0,,,71,70
36115,note_on,,,,,115,0,4,,,,,1,,,67,0
36119,note_on,,,,,29,0,1,,,,,0,,,71,0
36119,note_on,,,,,119,0,5,,,,,1,,,60,0
36120,note_on,,,,,1,0,1,,,,,0,,,72,62
36120,note_on,,,,,120,0,3,,,,,1,,,72,78
36120,note_on,,,,,0,0,2,,,,,0,,,64,88
36120,note_on,,,,,31,0,2,,,,,0,,,60,88
36120,note_on,,,,,5,0,4,,,,,1,,,64,78
36127,note_on,,,,,7,0,3,,,,,1,,,76,0
36149,note_on,,,,,29,0,1,,,,,0,,,72,0
36150,note_on,,,,,1,0,1,,,,,0,,,71,78
36154,note_on,,,,,27,0,3,,,,,1,,,72,0
36178,note_on,,,,,58,0,4,,,,,1,,,64,0
36179,note_on,,,,,29,0,1,,,,,0,,,71,0
36180,note_on,,,,,26,0,3,,,,,1,,,72,78
36180,note_on,,,,,2,0,4,,,,,1,,,60,68
36180,note_on,,,,,1,0,1,,,,,0,,,72,70
36209,note_on,,,,,0,0,2,,,,,0,,,60,0
36209,note_on,,,,,89,0,2,,,,,0,,,64,0
36209,note_on,,,,,29,0,1,,,,,0,,,72,0
36210,note_on,,,,,1,0,1,,,,,0,,,74,88
36228,note_on,,,,,48,0,4,,,,,1,,,60,0
36232,note_on,,,,,52,0,3,,,,,1,,,72,0
36239,note_on,,,,,29,0,1,,,,,0,,,74,0
36240,note_on,,,,,12,0,4,,,,,1,,,72,78
36240,note_on,,,,,1,0,1,,,,,0,,,76,70
36240,note_on,,,,,0,0,2,,,,,0,,,48,78
36240,note_on,,,,,31,0,2,,,,,0,,,36,88
36240,note_on,,,,,8,0,3,,,,,1,,,76,78
36240,note_on,,,,,151,0,6,,,,,1,,,48,78
36269,note_on,,,,,29,0,1,,,,,0,,,76,0
36270,note_on,,,,,1,0,1,,,,,0,,,72,70
36284,note_on,,,,,44,0,2,,,,,0,,,48,0
36297,note_on,,,,,57,0,4,,,,,1,,,72,0
36299,note_on,,,,,59,0,3,,,,,1,,,76,0
36299,note_on,,,,,59,0,6,,,,,1,,,48,0
36299,note_on,,,,,15,0,2,,,,,0,,,36,0
36299,note_on,,,,,29,0,1,,,,,0,,,72,0
36300,note_on,,,,,1,0,2,,,,,0,,,50,78
36300,note_on,,,,,3,0,4,,,,,1,,,71,68
36300,note_on,,,,,1,0,3,,,,,1,,,74,78
36300,note_on,,,,,1,0,1,,,,,0,,,71,70
36300,note_on,,,,,0,0,2,,,,,0,,,38,70
36300,note_on,,,,,181,0,5,,,,,1,,,65,78
36300,note_on,,,,,1,0,6,,,,,1,,,50,68
36329,note_on,,,,,29,0,1,,,,,0,,,71,0
36330,note_on,,,,,1,0,1,,,,,0,,,74,70
36352,note_on,,,,,52,0,4,,,,,1,,,71,0
36355,note_on,,,,,55,0,3,,,,,1,,,74,0
36359,note_on,,,,,59,0,5,,,,,1,,,65,0
36359,note_on,,,,,0,0,2,,,,,0,,,50,0
36359,note_on,,,,,59,0,2,,,,,0,,,38,0
36359,note_on,,,,,59,0,6,,,,,1,,,50,0
36359,note_on,,,,,29,0,1,,,,,0,,,74,0
36360,note_on,,,,,1,0,6,,,,,1,,,52,78
36360,note_on,,,,,5,0,3,,,,,1,,,72,78
36360,note_on,,,,,1,0,2,,,,,0,,,40,78
36360,note_on,,,,,1,0,1,,,,,0,,,72,78
36360,note_on,,,,,8,0,4,,,,,1,,,69,78
36360,note_on,,,,,1,0,5,,,,,1,,,64,68
36360,note_on,,,,,0,0,2,,,,,0,,,52,78
36389,note_on,,,,,29,0,1,,,,,0,,,72,0
36390,note_on,,,,,1,0,1,,,,,0,,,69,62
36404,note_on,,,,,44,0,2,,,,,0,,,52,0
36404,note_on,,,,,0,0,2,,,,,0,,,40,0
36418,note_on,,,,,58,0,4,,,,,1,,,69,0
36419,note_on,,,,,59,0,6,,,,,1,,,52,0
36419,note_on,,,,,29,0,1,,,,,0,,,69,0
36420,note_on,,,,,1,0,1,,,,,0,,,68,70
36420,note_on,,,,,60,0,3,,,,,1,,,71,78
36420,note_on,,,,,16,0,2,,,,,0,,,52,78
36420,note_on,,,,,1,0,6,,,,,1,,,50,68
36420,note_on,,,,,0,0,2,,,,,0,,,50,78
36420,note_on,,,,,2,0,4,,,,,1,,,68,90
36422,note_on,,,,,2,0,3,,,,,1,,,72,0
36449,note_on,,,,,29,0,1,,,,,0,,,68,0
36450,note_on,,,,,1,0,1,,,,,0,,,71,70
36456,note_on,,,,,36,0,4,,,,,1,,,68,0
36461,note_on,,,,,39,0,3,,,,,1,,,71,0
36464,note_on,,,,,0,0,2,,,,,0,,,52,0
36464,note_on,,,,,44,0,2,,,,,0,,,50,0
36479,note_on,,,,,59,0,6,,,,,1,,,50,0
36479,note_on,,,,,29,0,1,,,,,0,,,71,0
36480,note_on,,,,,19,0,3,,,,,1,,,69,78
36480,note_on,,,,,16,0,2,,,,,0,,,52,78
36480,note_on,,,,,0,0,2,,,,,0,,,48,78
36480,note_on,,,,,1,0,1,,,,,0,,,69,70
36480,note_on,,,,,24,0,4,,,,,1,,,69,90
36480,note_on,,,,,1,0,6,,,,,1,,,48,78
36509,note_on,,,,,29,0,1,,,,,0,,,69,0
36510,note_on,,,,,1,0,1,,,,,0,,,80,88
36539,note_on,,,,,29,0,1,,,,,0,,,80,0
36540,note_on,,,,,1,0,1,,,,,0,,,81,70
36569,note_on,,,,,89,0,2,,,,,0,,,48,0
36569,note_on,,,,,0,0,2,,,,,0,,,52,0
36569,note_on,,,,,29,0,1,,,,,0,,,81,0
36570,note_on,,,,,1,0,1,,,,,0,,,80,88
36599,note_on,,,,,239,0,5,,,,,1,,,64,0
36599,note_on,,,,,29,0,1,,,,,0,,,80,0
36600,note_on,,,,,31,0,2,,,,,0,,,60,88
36600,note_on,,,,,0,0,2,,,,,0,,,64,88
36600,note_on,,,,,120,0,3,,,,,1,,,72,90
36600,note_on,,,,,1,0,5,,,,,1,,,57,78
36600,note_on,,,,,1,0,1,,,,,0,,,81,70
36603,note_on,,,,,3,0,3,,,,,1,,,69,0
36629,note_on,,,,,29,0,1,,,,,0,,,81,0
36629,note_on,,,,,149,0,6,,,,,1,,,48,0
36630,note_on,,,,,1,0,1,,,,,0,,,79,62
36633,note_on,,,,,153,0,4,,,,,1,,,69,0
36657,note_on,,,,,54,0,3,,,,,1,,,72,0
36659,note_on,,,,,29,0,1,,,,,0,,,79,0
36660,note_on,,,,,27,0,4,,,,,1,,,69,90
36660,note_on,,,,,31,0,6,,,,,1,,,48,78
36660,note_on,,,,,3,0,3,,,,,1,,,76,68
36660,note_on,,,,,1,0,1,,,,,0,,,78,70
36674,note_on,,,,,0,0,2,,,,,0,,,60,0
36674,note_on,,,,,74,0,2,,,,,0,,,64,0
36689,note_on,,,,,29,0,1,,,,,0,,,78,0
36689,note_on,,,,,89,0,5,,,,,1,,,57,0
36690,note_on,,,,,1,0,1,,,,,0,,,76,62
36719,note_on,,,,,59,0,6,,,,,1,,,48,0
36719,note_on,,,,,29,0,1,,,,,0,,,76,0
36719,note_on,,,,,59,0,4,,,,,1,,,69,0
36720,note_on,,,,,46,0,2,,,,,0,,,55,88
36720,note_on,,,,,0,0,2,,,,,0,,,50,88
36720,note_on,,,,,0,0,2,,,,,0,,,47,88
36720,note_on,,,,,60,0,3,,,,,1,,,76,0
36720,note_on,,,,,0,0,3,,,,,1,,,74,90
36720,note_on,,,,,1,0,1,,,,,0,,,74,78
36720,note_on,,,,,1,0,4,,,,,1,,,71,78
36720,note_on,,,,,1,0,6,,,,,1,,,47,78
36749,note_on,,,,,0,0,2,,,,,0,,,47,0
36749,note_on,,,,,0,0,2,,,,,0,,,55,0
36749,note_on,,,,,29,0,1,,,,,0,,,74,0
36749,note_on,,,,,29,0,2,,,,,0,,,50,0
36750,note_on,,,,,1,0,1,,,,,0,,,71,49
36779,note_on,,,,,29,0,1,,,,,0,,,71,0
36779,note_on,,,,,59,0,4,,,,,1,,,71,0
36779,note_on,,,,,59,0,6,,,,,1,,,47,0
36780,note_on,,,,,31,0,2,,,,,0,,,57,88
36780,note_on,,,,,1,0,6,,,,,1,,,48,78
36780,note_on,,,,,1,0,1,,,,,0,,,69,55
36780,note_on,,,,,60,0,3,,,,,1,,,74,0
36780,note_on,,,,,0,0,3,,,,,1,,,72,78
36780,note_on,,,,,91,0,5,,,,,1,,,64,68
36780,note_on,,,,,0,0,2,,,,,0,,,48,78
36780,note_on,,,,,0,0,2,,,,,0,,,52,78
36780,note_on,,,,,1,0,4,,,,,1,,,69,78
36809,note_on,,,,,0,0,2,,,,,0,,,57,0
36809,note_on,,,,,29,0,1,,,,,0,,,69,0
36809,note_on,,,,,0,0,2,,,,,0,,,48,0
36809,note_on,,,,,29,0,2,,,,,0,,,52,0
36810,note_on,,,,,1,0,1,,,,,0,,,72,70
36838,note_on,,,,,58,0,4,,,,,1,,,69,0
36839,note_on,,,,,59,0,6,,,,,1,,,48,0
36839,note_on,,,,,29,0,1,,,,,0,,,72,0
36839,note_on,,,,,59,0,5,,,,,1,,,64,0
36840,note_on,,,,,1,0,5,,,,,1,,,62,78
36840,note_on,,,,,1,0,1,,,,,0,,,71,70
36840,note_on,,,,,0,0,2,,,,,0,,,55,88
36840,note_on,,,,,1,0,6,,,,,1,,,50,78
36840,note_on,,,,,0,0,2,,,,,0,,,50,78
36840,note_on,,,,,31,0,2,,,,,0,,,59,88
36840,note_on,,,,,2,0,4,,,,,1,,,67,78
36840,note_on,,,,,60,0,3,,,,,1,,,71,78
36841,note_on,,,,,1,0,3,,,,,1,,,72,0
36869,note_on,,,,,29,0,1,,,,,0,,,71,0
36870,note_on,,,,,1,0,1,,,,,0,,,67,70
36874,note_on,,,,,34,0,4,,,,,1,,,67,0
36884,note_on,,,,,44,0,2,,,,,0,,,55,0
36884,note_on,,,,,0,0,2,,,,,0,,,50,0
36884,note_on,,,,,0,0,2,,,,,0,,,59,0
36894,note_on,,,,,53,0,3,,,,,1,,,71,0
36899,note_on,,,,,29,0,1,,,,,0,,,67,0
36899,note_on,,,,,59,0,6,,,,,1,,,50,0
36900,note_on,,,,,0,0,2,,,,,0,,,57,88
36900,note_on,,,,,6,0,3,,,,,1,,,69,78
36900,note_on,,,,,1,0,6,,,,,1,,,48,68
36900,note_on,,,,,26,0,4,,,,,1,,,66,78
36900,note_on,,,,,16,0,2,,,,,0,,,54,98
36900,note_on,,,,,1,0,1,,,,,0,,,66,98
36900,note_on,,,,,0,0,2,,,,,0,,,48,78
36929,note_on,,,,,0,0,2,,,,,0,,,48,0
36929,note_on,,,,,0,0,2,,,,,0,,,54,0
36929,note_on,,,,,29,0,1,,,,,0,,,66,0
36929,note_on,,,,,29,0,2,,,,,0,,,57,0
36930,note_on,,,,,1,0,1,,,,,0,,,69,70
36937,note_on,,,,,37,0,4,,,,,1,,,66,0
36956,note_on,,,,,56,0,3,,,,,1,,,69,0
36959,note_on,,,,,29,0,1,,,,,0,,,69,0
36959,note_on,,,,,59,0,6,,,,,1,,,48,0
36960,note_on,,,,,23,0,4,,,,,1,,,67,90
36960,note_on,,,,,1,0,1,,,,,0,,,67,78
36960,note_on,,,,,1,0,6,,,,,1,,,47,90
36960,note_on,,,,,0,0,2,,,,,0,,,47,78
36960,note_on,,,,,0,0,2,,,,,0,,,55,88
36960,note_on,,,,,4,0,3,,,,,1,,,67,90
36960,note_on,,,,,31,0,2,,,,,0,,,50,88
36989,note_on,,,,,29,0,1,,,,,0,,,67,0
36990,note_on,,,,,1,0,1,,,,,0,,,78,88
37019,note_on,,,,,29,0,1,,,,,0,,,78,0
37020,note_on,,,,,1,0,1,,,,,0,,,79,78
37049,note_on,,,,,29,0,1,,,,,0,,,79,0
37050,note_on,,,,,1,0,1,,,,,0,,,78,88
37079,note_on,,,,,239,0,5,,,,,1,,,62,0
37079,note_on,,,,,119,0,2,,,,,0,,,47,0
37079,note_on,,,,,119,0,6,,,,,1,,,47,0
37079,note_on,,,,,29,0,1,,,,,0,,,78,0
37079,note_on,,,,,0,0,2,,,,,0,,,50,0
37079,note_on,,,,,0,0,2,,,,,0,,,55,0
37080,note_on,,,,,1,0,5,,,,,1,,,55,78
37080,note_on,,,,,1,0,1,,,,,0,,,79,78
37080,note_on,,,,,120,0,3,,,,,1,,,71,90
37086,note_on,,,,,6,0,3,,,,,1,,,67,0
37090,note_on,,,,,130,0,4,,,,,1,,,67,0
37109,note_on,,,,,29,0,1,,,,,0,,,79,0
37110,note_on,,,,,1,0,1,,,,,0,,,78,78
37139,note_on,,,,,29,0,1,,,,,0,,,78,0
37140,note_on,,,,,0,0,3,,,,,1,,,74,78
37140,note_on,,,,,54,0,3,,,,,1,,,71,0
37140,note_on,,,,,1,0,1,,,,,0,,,76,70
37169,note_on,,,,,29,0,1,,,,,0,,,76,0
37170,note_on,,,,,1,0,1,,,,,0,,,74,62
37193,note_on,,,,,53,0,3,,,,,1,,,74,0
37199,note_on,,,,,119,0,5,,,,,1,,,55,0
37199,note_on,,,,,29,0,1,,,,,0,,,74,0
37200,note_on,,,,,1,0,1,,,,,0,,,72,78
37200,note_on,,,,,7,0,3,,,,,1,,,72,78
37200,note_on,,,,,121,0,2,,,,,0,,,36,88
37200,note_on,,,,,0,0,2,,,,,0,,,48,78
37259,note_on,,,,,59,0,1,,,,,0,,,72,0
37260,note_on,,,,,1,0,1,,,,,0,,,71,70
37289,note_on,,,,,0,0,2,,,,,0,,,36,0
37289,note_on,,,,,89,0,2,,,,,0,,,48,0
37289,note_on,,,,,29,0,1,,,,,0,,,71,0
37290,note_on,,,,,1,0,1,,,,,0,,,72,55
37303,note_on,,,,,103,0,3,,,,,1,,,72,0
37304,note_on,,,,,14,0,1,,,,,0,,,72,0
37320,note_on,,,,,241,0,6,,,,,1,,,60,78
37320,note_on,,,,,16,0,1,,,,,0,,,72,78
37320,note_on,,,,,17,0,3,,,,,1,,,72,90
37320,note_on,,,,,0,0,2,,,,,0,,,64,88
37320,note_on,,,,,31,0,2,,,,,0,,,60,88
37320,note_on,,,,,121,0,5,,,,,1,,,64,78
37379,note_on,,,,,59,0,6,,,,,1,,,60,0
37379,note_on,,,,,59,0,5,,,,,1,,,64,0
37379,note_on,,,,,59,0,1,,,,,0,,,72,0
37380,note_on,,,,,1,0,5,,,,,1,,,62,78
37380,note_on,,,,,60,0,2,,,,,0,,,59,78
37380,note_on,,,,,1,0,1,,,,,0,,,71,62
37380,note_on,,,,,1,0,6,,,,,1,,,59,78
37394,note_on,,,,,14,0,2,,,,,0,,,60,0
37409,note_on,,,,,29,0,1,,,,,0,,,71,0
37410,note_on,,,,,1,0,1,,,,,0,,,72,62
37414,note_on,,,,,94,0,3,,,,,1,,,72,0
37424,note_on,,,,,14,0,1,,,,,0,,,72,0
37439,note_on,,,,,59,0,5,,,,,1,,,62,0
37439,note_on,,,,,59,0,6,,,,,1,,,59,0
37439,note_on,,,,,45,0,2,,,,,0,,,59,0
37440,note_on,,,,,26,0,3,,,,,1,,,72,90
37440,note_on,,,,,1,0,5,,,,,1,,,60,78
37440,note_on,,,,,1,0,6,,,,,1,,,57,90
37440,note_on,,,,,16,0,1,,,,,0,,,72,88
37440,note_on,,,,,1,0,2,,,,,0,,,57,78
37499,note_on,,,,,59,0,5,,,,,1,,,60,0
37499,note_on,,,,,59,0,6,,,,,1,,,57,0
37499,note_on,,,,,59,0,1,,,,,0,,,72,0
37499,note_on,,,,,59,0,2,,,,,0,,,57,0
37500,note_on,,,,,1,0,1,,,,,0,,,71,70
37500,note_on,,,,,1,0,6,,,,,1,,,60,68
37500,note_on,,,,,410,0,4,,,,,1,,,72,78
37500,note_on,,,,,1,0,2,,,,,0,,,60,78
37500,note_on,,,,,1,0,5,,,,,1,,,64,68
37514,note_on,,,,,14,0,2,,,,,0,,,64,0
37529,note_on,,,,,29,0,1,,,,,0,,,71,0
37530,note_on,,,,,1,0,1,,,,,0,,,72,55
37541,note_on,,,,,101,0,3,,,,,1,,,72,0
37544,note_on,,,,,30,0,2,,,,,0,,,60,0
37544,note_on,,,,,14,0,1,,,,,0,,,72,0
37556,note_on,,,,,56,0,4,,,,,1,,,72,0
37559,note_on,,,,,59,0,6,,,,,1,,,60,0
37559,note_on,,,,,59,0,5,,,,,1,,,64,0
37560,note_on,,,,,19,0,3,,,,,1,,,72,90
37560,note_on,,,,,16,0,1,,,,,0,,,72,78
37560,note_on,,,,,1,0,5,,,,,1,,,57,78
37560,note_on,,,,,16,0,2,,,,,0,,,57,70
37560,note_on,,,,,1,0,6,,,,,1,,,57,78
37560,note_on,,,,,4,0,4,,,,,1,,,71,78
37560,note_on,,,,,0,0,2,,,,,0,,,60,70
37589,note_on,,,,,29,0,2,,,,,0,,,57,0
37597,note_on,,,,,37,0,3,,,,,1,,,72,0
37604,note_on,,,,,15,0,2,,,,,0,,,60,0
37619,note_on,,,,,59,0,6,,,,,1,,,57,0
37619,note_on,,,,,59,0,5,,,,,1,,,57,0
37619,note_on,,,,,59,0,1,,,,,0,,,72,0
37620,note_on,,,,,1,0,5,,,,,1,,,59,78
37620,note_on,,,,,23,0,3,,,,,1,,,72,78
37620,note_on,,,,,60,0,4,,,,,1,,,69,78
37620,note_on,,,,,1,0,1,,,,,0,,,71,62
37620,note_on,,,,,1,0,6,,,,,1,,,55,68
37620,note_on,,,,,16,0,2,,,,,0,,,59,62
37620,note_on,,,,,0,0,2,,,,,0,,,55,55
37625,note_on,,,,,5,0,4,,,,,1,,,71,0
37649,note_on,,,,,29,0,2,,,,,0,,,55,0
37649,note_on,,,,,29,0,1,,,,,0,,,71,0
37649,note_on,,,,,0,0,2,,,,,0,,,59,0
37650,note_on,,,,,1,0,1,,,,,0,,,72,62
37650,note_on,,,,,30,0,3,,,,,1,,,72,0
37664,note_on,,,,,14,0,1,,,,,0,,,72,0
37665,note_on,,,,,40,0,4,,,,,1,,,69,0
37679,note_on,,,,,59,0,6,,,,,1,,,55,0
37679,note_on,,,,,59,0,5,,,,,1,,,59,0
37680,note_on,,,,,0,0,2,,,,,0,,,57,70
37680,note_on,,,,,1,0,5,,,,,1,,,60,68
37680,note_on,,,,,15,0,4,,,,,1,,,72,58
37680,note_on,,,,,1,0,6,,,,,1,,,54,90
37680,note_on,,,,,30,0,3,,,,,1,,,72,90
37680,note_on,,,,,16,0,1,,,,,0,,,72,78
37680,note_on,,,,,31,0,2,,,,,0,,,54,70
37724,note_on,,,,,44,0,2,,,,,0,,,57,0
37730,note_on,,,,,50,0,4,,,,,1,,,72,0
37739,note_on,,,,,59,0,6,,,,,1,,,54,0
37739,note_on,,,,,59,0,1,,,,,0,,,72,0
37739,note_on,,,,,15,0,2,,,,,0,,,54,0
37740,note_on,,,,,1,0,6,,,,,1,,,57,78
37740,note_on,,,,,1,0,1,,,,,0,,,74,70
37740,note_on,,,,,10,0,4,,,,,1,,,69,78
37740,note_on,,,,,0,0,2,,,,,0,,,60,62
37740,note_on,,,,,1,0,2,,,,,0,,,57,78
37769,note_on,,,,,29,0,1,,,,,0,,,74,0
37770,note_on,,,,,1,0,1,,,,,0,,,76,55
37776,note_on,,,,,36,0,4,,,,,1,,,69,0
37784,note_on,,,,,44,0,2,,,,,0,,,60,0
37784,note_on,,,,,0,0,2,,,,,0,,,57,0
37785,note_on,,,,,105,0,3,,,,,1,,,72,0
37799,note_on,,,,,29,0,1,,,,,0,,,76,0
37799,note_on,,,,,59,0,6,,,,,1,,,57,0
37799,note_on,,,,,119,0,5,,,,,1,,,60,0
37800,note_on,,,,,16,0,2,,,,,0,,,57,70
37800,note_on,,,,,24,0,4,,,,,1,,,69,68
37800,note_on,,,,,1,0,5,,,,,1,,,54,90
37800,note_on,,,,,0,0,2,,,,,0,,,54,70
37800,note_on,,,,,15,0,3,,,,,1,,,72,90
37800,note_on,,,,,1,0,6,,,,,1,,,54,90
37800,note_on,,,,,1,0,1,,,,,0,,,78,78
37814,note_on,,,,,14,0,2,,,,,0,,,57,0
37829,note_on,,,,,15,0,2,,,,,0,,,54,0
37829,note_on,,,,,29,0,1,,,,,0,,,78,0
37830,note_on,,,,,1,0,1,,,,,0,,,79,70
37833,note_on,,,,,33,0,3,,,,,1,,,72,0
37844,note_on,,,,,44,0,4,,,,,1,,,69,0
37859,note_on,,,,,59,0,6,,,,,1,,,54,0
37859,note_on,,,,,59,0,5,,,,,1,,,54,0
37859,note_on,,,,,29,0,1,,,,,0,,,79,0
37860,note_on,,,,,1,0,1,,,,,0,,,81,70
37860,note_on,,,,,16,0,4,,,,,1,,,67,68
37860,note_on,,,,,31,0,2,,,,,0,,,55,62
37860,note_on,,,,,1,0,5,,,,,1,,,55,78
37860,note_on,,,,,0,0,2,,,,,0,,,52,55
37860,note_on,,,,,1,0,6,,,,,1,,,52,68
37860,note_on,,,,,27,0,3,,,,,1,,,72,78
37889,note_on,,,,,0,0,2,,,,,0,,,55,0
37889,note_on,,,,,29,0,1,,,,,0,,,81,0
37889,note_on,,,,,29,0,2,,,,,0,,,52,0
37889,note_on,,,,,29,0,4,,,,,1,,,67,0
37890,note_on,,,,,1,0,1,,,,,0,,,83,70
37893,note_on,,,,,33,0,3,,,,,1,,,72,0
37919,note_on,,,,,59,0,5,,,,,1,,,55,0
37919,note_on,,,,,59,0,6,,,,,1,,,52,0
37919,note_on,,,,,29,0,1,,,,,0,,,83,0
37920,note_on,,,,,0,0,2,,,,,0,,,50,70
37920,note_on,,,,,1,0,6,,,,,1,,,50,78
37920,note_on,,,,,31,0,2,,,,,0,,,54,98
37920,note_on,,,,,27,0,3,,,,,1,,,72,90
37920,note_on,,,,,0,0,2,,,,,0,,,57,70
37920,note_on,,,,,1,0,1,,,,,0,,,84,49
37920,note_on,,,,,1,0,5,,,,,1,,,57,78
37920,note_on,,,,,31,0,4,,,,,1,,,66,90
37949,note_on,,,,,29,0,1,,,,,0,,,84,0
37950,note_on,,,,,1,0,1,,,,,0,,,86,62
37979,note_on,,,,,29,0,1,,,,,0,,,86,0
37980,note_on,,,,,1,0,1,,,,,0,,,83,88
38009,note_on,,,,,0,0,2,,,,,0,,,54,0
38009,note_on,,,,,0,0,2,,,,,0,,,57,0
38009,note_on,,,,,89,0,2,,,,,0,,,50,0
38009,note_on,,,,,29,0,1,,,,,0,,,83,0
38010,note_on,,,,,1,0,1,,,,,0,,,84,55
38039,note_on,,,,,29,0,1,,,,,0,,,84,0
38040,note_on,,,,,31,0,2,,,,,0,,,62,88
38040,note_on,,,,,0,0,2,,,,,0,,,60,88
38040,note_on,,,,,1,0,1,,,,,0,,,81,62
38069,note_on,,,,,29,0,1,,,,,0,,,81,0
38070,note_on,,,,,1,0,1,,,,,0,,,83,62
38072,note_on,,,,,152,0,4,,,,,1,,,66,0
38099,note_on,,,,,29,0,1,,,,,0,,,83,0
38100,note_on,,,,,28,0,4,,,,,1,,,66,90
38100,note_on,,,,,1,0,1,,,,,0,,,79,62
38114,note_on,,,,,74,0,2,,,,,0,,,60,0
38114,note_on,,,,,0,0,2,,,,,0,,,62,0
38129,note_on,,,,,29,0,4,,,,,1,,,66,0
38129,note_on,,,,,29,0,1,,,,,0,,,79,0
38129,note_on,,,,,209,0,6,,,,,1,,,50,0
38130,note_on,,,,,1,0,1,,,,,0,,,81,62
38130,note_on,,,,,0,0,2,,,,,0,,,62,88
38130,note_on,,,,,16,0,2,,,,,0,,,60,78
38139,note_on,,,,,219,0,3,,,,,1,,,72,0
38144,note_on,,,,,0,0,2,,,,,0,,,60,0
38144,note_on,,,,,14,0,2,,,,,0,,,62,0
38159,note_on,,,,,29,0,1,,,,,0,,,81,0
38159,note_on,,,,,239,0,5,,,,,1,,,57,0
38160,note_on,,,,,0,0,2,,,,,0,,,62,78
38160,note_on,,,,,16,0,2,,,,,0,,,60,78
38160,note_on,,,,,1,0,5,,,,,1,,,57,68
38160,note_on,,,,,31,0,4,,,,,1,,,66,90
38160,note_on,,,,,31,0,6,,,,,1,,,50,90
38160,note_on,,,,,21,0,3,,,,,1,,,72,90
38160,note_on,,,,,1,0,1,,,,,0,,,78,78
38189,note_on,,,,,29,0,1,,,,,0,,,78,0
38190,note_on,,,,,1,0,1,,,,,0,,,79,44
38219,note_on,,,,,29,0,1,,,,,0,,,79,0
38220,note_on,,,,,1,0,1,,,,,0,,,76,49
38234,note_on,,,,,74,0,2,,,,,0,,,62,0
38234,note_on,,,,,0,0,2,,,,,0,,,60,0
38249,note_on,,,,,29,0,1,,,,,0,,,76,0
38250,note_on,,,,,1,0,1,,,,,0,,,78,70
38260,note_on,,,,,100,0,4,,,,,1,,,66,0
38279,note_on,,,,,29,0,1,,,,,0,,,78,0
38279,note_on,,,,,119,0,5,,,,,1,,,57,0
38280,note_on,,,,,1,0,1,,,,,0,,,74,70
38280,note_on,,,,,1,0,5,,,,,1,,,62,78
38280,note_on,,,,,46,0,2,,,,,0,,,60,70
38280,note_on,,,,,0,0,2,,,,,0,,,50,70
38280,note_on,,,,,0,0,2,,,,,0,,,54,98
38280,note_on,,,,,20,0,4,,,,,1,,,66,90
38309,note_on,,,,,29,0,1,,,,,0,,,74,0
38309,note_on,,,,,149,0,6,,,,,1,,,50,0
38310,note_on,,,,,1,0,1,,,,,0,,,76,70
38320,note_on,,,,,160,0,3,,,,,1,,,72,0
38324,note_on,,,,,44,0,2,,,,,0,,,50,0
38339,note_on,,,,,29,0,1,,,,,0,,,76,0
38340,note_on,,,,,1,0,1,,,,,0,,,72,62
38340,note_on,,,,,20,0,3,,,,,1,,,72,90
38340,note_on,,,,,31,0,6,,,,,1,,,50,78
38340,note_on,,,,,16,0,2,,,,,0,,,50,78
38354,note_on,,,,,14,0,2,,,,,0,,,54,0
38369,note_on,,,,,15,0,2,,,,,0,,,50,0
38369,note_on,,,,,0,0,2,,,,,0,,,60,0
38369,note_on,,,,,29,0,1,,,,,0,,,72,0
38369,note_on,,,,,89,0,5,,,,,1,,,62,0
38370,note_on,,,,,1,0,1,,,,,0,,,74,70
38379,note_on,,,,,99,0,4,,,,,1,,,66,0
38392,note_on,,,,,52,0,3,,,,,1,,,72,0
38399,note_on,,,,,29,0,1,,,,,0,,,74,0
38399,note_on,,,,,59,0,6,,,,,1,,,50,0
38400,note_on,,,,,0,0,2,,,,,0,,,59,78
38400,note_on,,,,,1,0,1,,,,,0,,,71,78
38400,note_on,,,,,21,0,4,,,,,1,,,67,90
38400,note_on,,,,,1,0,6,,,,,1,,,55,90
38400,note_on,,,,,31,0,5,,,,,1,,,62,90
38400,note_on,,,,,8,0,3,,,,,1,,,71,90
38400,note_on,,,,,31,0,2,,,,,0,,,55,88
38429,note_on,,,,,29,0,1,,,,,0,,,71,0
38430,note_on,,,,,1,0,1,,,,,0,,,74,78
38459,note_on,,,,,29,0,1,,,,,0,,,74,0
38460,note_on,,,,,1,0,1,,,,,0,,,72,88
38489,note_on,,,,,0,0,2,,,,,0,,,55,0
38489,note_on,,,,,89,0,2,,,,,0,,,59,0
38489,note_on,,,,,29,0,1,,,,,0,,,72,0
38490,note_on,,,,,1,0,1,,,,,0,,,71,78
38503,note_on,,,,,103,0,4,,,,,1,,,67,0
38519,note_on,,,,,119,0,6,,,,,1,,,55,0
38519,note_on,,,,,119,0,5,,,,,1,,,62,0
38519,note_on,,,,,29,0,1,,,,,0,,,71,0
38520,note_on,,,,,0,0,2,,,,,0,,,52,88
38520,note_on,,,,,0,0,2,,,,,0,,,57,78
38520,note_on,,,,,31,0,2,,,,,0,,,48,70
38520,note_on,,,,,17,0,4,,,,,1,,,69,78
38520,note_on,,,,,1,0,6,,,,,1,,,48,68
38520,note_on,,,,,0,0,3,,,,,1,,,72,78
38520,note_on,,,,,1,0,1,,,,,0,,,76,70
38520,note_on,,,,,1,0,5,,,,,1,,,64,68
38520,note_on,,,,,120,0,3,,,,,1,,,71,0
38549,note_on,,,,,29,0,6,,,,,1,,,48,0
38549,note_on,,,,,29,0,1,,,,,0,,,76,0
38550,note_on,,,,,1,0,1,,,,,0,,,72,70
38556,note_on,,,,,36,0,4,,,,,1,,,69,0
38559,note_on,,,,,39,0,3,,,,,1,,,72,0
38579,note_on,,,,,59,0,5,,,,,1,,,64,0
38579,note_on,,,,,29,0,1,,,,,0,,,72,0
38580,note_on,,,,,21,0,3,,,,,1,,,72,90
38580,note_on,,,,,24,0,4,,,,,1,,,69,78
38580,note_on,,,,,1,0,5,,,,,1,,,64,68
38580,note_on,,,,,31,0,6,,,,,1,,,48,68
38580,note_on,,,,,1,0,1,,,,,0,,,71,78
38609,note_on,,,,,29,0,1,,,,,0,,,71,0
38610,note_on,,,,,1,0,1,,,,,0,,,69,78
38624,note_on,,,,,0,0,2,,,,,0,,,57,0
38624,note_on,,,,,104,0,2,,,,,0,,,52,0
38624,note_on,,,,,0,0,2,,,,,0,,,48,0
38633,note_on,,,,,53,0,4,,,,,1,,,69,0
38635,note_on,,,,,55,0,3,,,,,1,,,72,0
38639,note_on,,,,,59,0,5,,,,,1,,,64,0
38639,note_on,,,,,59,0,6,,,,,1,,,48,0
38639,note_on,,,,,29,0,1,,,,,0,,,69,0
38640,note_on,,,,,1,0,6,,,,,1,,,50,90
38640,note_on,,,,,0,0,2,,,,,0,,,50,70
38640,note_on,,,,,0,0,2,,,,,0,,,59,78
38640,note_on,,,,,5,0,3,,,,,1,,,71,90
38640,note_on,,,,,1,0,5,,,,,1,,,62,78
38640,note_on,,,,,7,0,4,,,,,1,,,67,78
38640,note_on,,,,,16,0,2,,,,,0,,,55,88
38640,note_on,,,,,1,0,1,,,,,0,,,74,88
38669,note_on,,,,,29,0,1,,,,,0,,,74,0
38670,note_on,,,,,1,0,1,,,,,0,,,71,62
38699,note_on,,,,,29,0,1,,,,,0,,,71,0
38700,note_on,,,,,1,0,1,,,,,0,,,69,70
38729,note_on,,,,,29,0,1,,,,,0,,,69,0
38729,note_on,,,,,89,0,2,,,,,0,,,59,0
38729,note_on,,,,,0,0,2,,,,,0,,,55,0
38730,note_on,,,,,1,0,1,,,,,0,,,67,70
38744,note_on,,,,,15,0,2,,,,,0,,,50,0
38758,note_on,,,,,118,0,3,,,,,1,,,71,0
38759,note_on,,,,,29,0,1,,,,,0,,,67,0
38760,note_on,,,,,1,0,1,,,,,0,,,72,78
38760,note_on,,,,,0,0,2,,,,,0,,,50,70
38760,note_on,,,,,0,0,2,,,,,0,,,57,88
38760,note_on,,,,,16,0,2,,,,,0,,,54,98
38760,note_on,,,,,120,0,4,,,,,1,,,66,90
38760,note_on,,,,,2,0,3,,,,,1,,,69,78
38765,note_on,,,,,5,0,4,,,,,1,,,67,0
38789,note_on,,,,,29,0,1,,,,,0,,,72,0
38790,note_on,,,,,1,0,1,,,,,0,,,69,78
38819,note_on,,,,,29,0,1,,,,,0,,,69,0
38820,note_on,,,,,1,0,1,,,,,0,,,67,62
38849,note_on,,,,,89,0,2,,,,,0,,,57,0
38849,note_on,,,,,29,0,1,,,,,0,,,67,0
38849,note_on,,,,,209,0,5,,,,,1,,,62,0
38850,note_on,,,,,1,0,1,,,,,0,,,66,78
38864,note_on,,,,,0,0,2,,,,,0,,,54,0
38864,note_on,,,,,15,0,2,,,,,0,,,50,0
38864,note_on,,,,,14,0,1,,,,,0,,,66,0
38866,note_on,,,,,101,0,4,,,,,1,,,66,0
38875,note_on,,,,,115,0,3,,,,,1,,,69,0
38879,note_on,,,,,239,0,6,,,,,1,,,50,0
38880,note_on,,,,,1,0,6,,,,,1,,,43,78
38880,note_on,,,,,0,0,2,,,,,0,,,50,78
38880,note_on,,,,,5,0,3,,,,,1,,,67,90
38880,note_on,,,,,0,0,2,,,,,0,,,43,78
38880,note_on,,,,,16,0,2,,,,,0,,,55,78
38880,note_on,,,,,14,0,4,,,,,1,,,67,90
38880,note_on,,,,,16,0,1,,,,,0,,,67,98
38880,note_on,,,,,31,0,5,,,,,1,,,62,90
38894,note_on,,,,,14,0,1,,,,,0,,,67,0
38910,note_on,,,,,16,0,1,,,,,0,,,67,78
38939,note_on,,,,,29,0,1,,,,,0,,,67,0
38940,note_on,,,,,1,0,1,,,,,0,,,66,70
38969,note_on,,,,,29,0,1,,,,,0,,,66,0
38970,note_on,,,,,1,0,1,,,,,0,,,67,62
38984,note_on,,,,,0,0,2,,,,,0,,,55,0
38984,note_on,,,,,0,0,2,,,,,0,,,43,0
38984,note_on,,,,,104,0,2,,,,,0,,,50,0
38991,note_on,,,,,111,0,4,,,,,1,,,67,0
38996,note_on,,,,,116,0,3,,,,,1,,,67,0
38999,note_on,,,,,29,0,1,,,,,0,,,67,0
38999,note_on,,,,,119,0,5,,,,,1,,,62,0
38999,note_on,,,,,119,0,6,,,,,1,,,43,0
39000,note_on,,,,,16,0,2,,,,,0,,,55,88
39000,note_on,,,,,1,0,1,,,,,0,,,69,70
39029,note_on,,,,,29,0,1,,,,,0,,,69,0
39030,note_on,,,,,1,0,1,,,,,0,,,67,62
39059,note_on,,,,,29,0,1,,,,,0,,,67,0
39060,note_on,,,,,1,0,1,,,,,0,,,66,78
39074,note_on,,,,,74,0,2,,,,,0,,,55,0
39074,note_on,,,,,14,0,1,,,,,0,,,66,0
39090,note_on,,,,,16,0,2,,,,,0,,,55,78
39090,note_on,,,,,16,0,1,,,,,0,,,67,70
39119,note_on,,,,,29,0,1,,,,,0,,,67,0
39119,note_on,,,,,29,0,2,,,,,0,,,55,0
39120,note_on,,,,,1,0,2,,,,,0,,,43,98
39120,note_on,,,,,1,0,1,,,,,0,,,55,78
39149,note_on,,,,,29,0,2,,,,,0,,,43,0
39149,note_on,,,,,29,0,1,,,,,0,,,55,0
39150,note_on,,,,,1,0,1,,,,,0,,,67,70
39179,note_on,,,,,29,0,1,,,,,0,,,67,0
39180,note_on,,,,,31,0,2,,,,,0,,,45,88
39180,note_on,,,,,1,0,1,,,,,0,,,57,88
39209,note_on,,,,,29,0,1,,,,,0,,,57,0
39210,note_on,,,,,1,0,1,,,,,0,,,67,78
39224,note_on,,,,,44,0,2,,,,,0,,,45,0
39239,note_on,,,,,29,0,1,,,,,0,,,67,0
39240,note_on,,,,,1,0,1,,,,,0,,,59,88
39240,note_on,,,,,16,0,2,,,,,0,,,47,98
39269,note_on,,,,,29,0,1,,,,,0,,,59,0
39269,note_on,,,,,29,0,2,,,,,0,,,47,0
39270,note_on,,,,,1,0,1,,,,,0,,,67,70
39299,note_on,,,,,29,0,1,,,,,0,,,67,0
39300,note_on,,,,,301,0,6,,,,,1,,,55,90
39300,note_on,,,,,1,0,1,,,,,0,,,60,78
39300,note_on,,,,,301,0,5,,,,,1,,,55,68
39300,note_on,,,,,309,0,4,,,,,1,,,67,78
39300,note_on,,,,,31,0,2,,,,,0,,,48,98
39300,note_on,,,,,304,0,3,,,,,1,,,79,90
39327,note_on,,,,,27,0,4,,,,,1,,,67,0
39329,note_on,,,,,29,0,5,,,,,1,,,55,0
39329,note_on,,,,,29,0,6,,,,,1,,,55,0
39329,note_on,,,,,29,0,2,,,,,0,,,48,0
39329,note_on,,,,,29,0,1,,,,,0,,,60,0
39330,note_on,,,,,1,0,1,,,,,0,,,67,62
39336,note_on,,,,,36,0,3,,,,,1,,,79,0
39359,note_on,,,,,29,0,1,,,,,0,,,67,0
39360,note_on,,,,,31,0,6,,,,,1,,,55,90
39360,note_on,,,,,31,0,2,,,,,0,,,50,88
39360,note_on,,,,,33,0,4,,,,,1,,,67,90
39360,note_on,,,,,31,0,5,,,,,1,,,55,90
39360,note_on,,,,,24,0,3,,,,,1,,,79,90
39360,note_on,,,,,1,0,1,,,,,0,,,62,98
39374,note_on,,,,,14,0,1,,,,,0,,,62,0
39390,note_on,,,,,16,0,1,,,,,0,,,79,49
39419,note_on,,,,,29,0,1,,,,,0,,,79,0
39420,note_on,,,,,1,0,1,,,,,0,,,78,78
39449,note_on,,,,,29,0,1,,,,,0,,,78,0
39450,note_on,,,,,1,0,1,,,,,0,,,79,62
39479,note_on,,,,,119,0,2,,,,,0,,,50,0
39479,note_on,,,,,29,0,1,,,,,0,,,79,0
39480,note_on,,,,,1,0,1,,,,,0,,,81,70
39509,note_on,,,,,29,0,1,,,,,0,,,81,0
39509,note_on,,,,,149,0,5,,,,,1,,,55,0
39509,note_on,,,,,149,0,6,,,,,1,,,55,0
39510,note_on,,,,,1,0,1,,,,,0,,,79,70
39516,note_on,,,,,156,0,4,,,,,1,,,67,0
39520,note_on,,,,,160,0,3,,,,,1,,,79,0
39539,note_on,,,,,29,0,1,,,,,0,,,79,0
39540,note_on,,,,,20,0,3,,,,,1,,,79,78
39540,note_on,,,,,24,0,4,,,,,1,,,67,90
39540,note_on,,,,,31,0,5,,,,,1,,,55,78
39540,note_on,,,,,1,0,1,,,,,0,,,78,78
39540,note_on,,,,,31,0,6,,,,,1,,,55,90
39569,note_on,,,,,29,0,5,,,,,1,,,55,0
39569,note_on,,,,,29,0,6,,,,,1,,,55,0
39569,note_on,,,,,29,0,1,,,,,0,,,78,0
39570,note_on,,,,,1,0,1,,,,,0,,,79,62
39573,note_on,,,,,33,0,4,,,,,1,,,67,0
39574,note_on,,,,,34,0,3,,,,,1,,,79,0
39599,note_on,,,,,29,0,1,,,,,0,,,79,0
39600,note_on,,,,,31,0,6,,,,,1,,,55,90
39600,note_on,,,,,27,0,4,,,,,1,,,67,90
39600,note_on,,,,,121,0,2,,,,,0,,,47,88
39600,note_on,,,,,0,0,2,,,,,0,,,59,98
39600,note_on,,,,,31,0,5,,,,,1,,,55,78
39600,note_on,,,,,1,0,1,,,,,0,,,71,78
39600,note_on,,,,,26,0,3,,,,,1,,,79,90
39629,note_on,,,,,29,0,2,,,,,0,,,59,0
39629,note_on,,,,,29,0,1,,,,,0,,,71,0
39629,note_on,,,,,0,0,2,,,,,0,,,47,0
39630,note_on,,,,,1,0,1,,,,,0,,,79,70
39659,note_on,,,,,29,0,1,,,,,0,,,79,0
39660,note_on,,,,,0,0,2,,,,,0,,,48,78
39660,note_on,,,,,31,0,2,,,,,0,,,60,98
39660,note_on,,,,,1,0,1,,,,,0,,,72,78
39689,note_on,,,,,29,0,2,,,,,0,,,48,0
39689,note_on,,,,,0,0,2,,,,,0,,,60,0
39689,note_on,,,,,29,0,1,,,,,0,,,72,0
39689,note_on,,,,,89,0,6,,,,,1,,,55,0
39689,note_on,,,,,89,0,5,,,,,1,,,55,0
39690,note_on,,,,,1,0,1,,,,,0,,,79,70
39693,note_on,,,,,93,0,4,,,,,1,,,67,0
39696,note_on,,,,,96,0,3,,,,,1,,,79,0
39719,note_on,,,,,29,0,1,,,,,0,,,79,0
39720,note_on,,,,,27,0,4,,,,,1,,,67,90
39720,note_on,,,,,31,0,5,,,,,1,,,55,78
39720,note_on,,,,,31,0,6,,,,,1,,,55,90
39720,note_on,,,,,1,0,1,,,,,0,,,74,88
39720,note_on,,,,,24,0,3,,,,,1,,,79,90
39720,note_on,,,,,31,0,2,,,,,0,,,62,98
39720,note_on,,,,,0,0,2,,,,,0,,,50,78
39749,note_on,,,,,29,0,2,,,,,0,,,50,0
39749,note_on,,,,,0,0,2,,,,,0,,,62,0
39749,note_on,,,,,29,0,1,,,,,0,,,74,0
39750,note_on,,,,,1,0,1,,,,,0,,,79,70
39779,note_on,,,,,29,0,1,,,,,0,,,79,0
39780,note_on,,,,,31,0,2,,,,,0,,,52,62
39780,note_on,,,,,0,0,2,,,,,0,,,64,98
39780,note_on,,,,,1,0,1,,,,,0,,,76,62
39809,note_on,,,,,29,0,1,,,,,0,,,76,0
39809,note_on,,,,,89,0,6,,,,,1,,,55,0
39809,note_on,,,,,89,0,5,,,,,1,,,55,0
39809,note_on,,,,,29,0,2,,,,,0,,,64,0
39810,note_on,,,,,1,0,1,,,,,0,,,79,70
39814,note_on,,,,,94,0,4,,,,,1,,,67,0
39821,note_on,,,,,101,0,3,,,,,1,,,79,0
39824,note_on,,,,,15,0,2,,,,,0,,,52,0
39839,note_on,,,,,29,0,1,,,,,0,,,79,0
39840,note_on,,,,,31,0,5,,,,,1,,,65,58
39840,note_on,,,,,19,0,3,,,,,1,,,77,78
39840,note_on,,,,,1,0,1,,,,,0,,,77,78
39840,note_on,,,,,26,0,4,,,,,1,,,65,90
39840,note_on,,,,,31,0,6,,,,,1,,,53,90
39840,note_on,,,,,0,0,2,,,,,0,,,65,98
39840,note_on,,,,,16,0,2,,,,,0,,,53,88
39869,note_on,,,,,29,0,1,,,,,0,,,77,0
39869,note_on,,,,,29,0,2,,,,,0,,,53,0
39870,note_on,,,,,1,0,1,,,,,0,,,79,55
39884,note_on,,,,,15,0,2,,,,,0,,,65,0
39890,note_on,,,,,50,0,3,,,,,1,,,77,0
39897,note_on,,,,,57,0,4,,,,,1,,,65,0
39899,note_on,,,,,59,0,6,,,,,1,,,53,0
39899,note_on,,,,,59,0,5,,,,,1,,,65,0
39899,note_on,,,,,29,0,1,,,,,0,,,79,0
39900,note_on,,,,,0,0,2,,,,,0,,,64,98
39900,note_on,,,,,16,0,2,,,,,0,,,52,88
39900,note_on,,,,,1,0,6,,,,,1,,,52,78
39900,note_on,,,,,1,0,5,,,,,1,,,64,78
39900,note_on,,,,,1,0,1,,,,,0,,,76,62
39900,note_on,,,,,10,0,3,,,,,1,,,76,68
39900,note_on,,,,,3,0,4,,,,,1,,,64,78
39929,note_on,,,,,0,0,2,,,,,0,,,52,0
39929,note_on,,,,,29,0,2,,,,,0,,,64,0
39929,note_on,,,,,29,0,1,,,,,0,,,76,0
39930,note_on,,,,,1,0,1,,,,,0,,,77,70
39954,note_on,,,,,54,0,4,,,,,1,,,64,0
39958,note_on,,,,,58,0,3,,,,,1,,,76,0
39959,note_on,,,,,29,0,1,,,,,0,,,77,0
39959,note_on,,,,,59,0,6,,,,,1,,,52,0
39959,note_on,,,,,59,0,5,,,,,1,,,64,0
39960,note_on,,,,,1,0,5,,,,,1,,,62,78
39960,note_on,,,,,31,0,2,,,,,0,,,62,88
39960,note_on,,,,,0,0,2,,,,,0,,,50,88
39960,note_on,,,,,6,0,4,,,,,1,,,62,78
39960,note_on,,,,,2,0,3,,,,,1,,,74,78
39960,note_on,,,,,1,0,6,,,,,1,,,50,68
39960,note_on,,,,,1,0,1,,,,,0,,,74,78
39989,note_on,,,,,29,0,2,,,,,0,,,50,0
39989,note_on,,,,,29,0,1,,,,,0,,,74,0
39990,note_on,,,,,1,0,1,,,,,0,,,76,55
40003,note_on,,,,,43,0,4,,,,,1,,,62,0
40004,note_on,,,,,15,0,2,,,,,0,,,62,0
40019,note_on,,,,,59,0,5,,,,,1,,,62,0
40019,note_on,,,,,59,0,6,,,,,1,,,50,0
40019,note_on,,,,,29,0,1,,,,,0,,,76,0
40020,note_on,,,,,17,0,4,,,,,1,,,60,68
40020,note_on,,,,,1,0,5,,,,,1,,,60,78
40020,note_on,,,,,0,0,2,,,,,0,,,48,88
40020,note_on,,,,,16,0,2,,,,,0,,,60,88
40020,note_on,,,,,1,0,1,,,,,0,,,72,70
40020,note_on,,,,,1,0,6,,,,,1,,,48,78
40020,note_on,,,,,60,0,3,,,,,1,,,72,68
40022,note_on,,,,,2,0,3,,,,,1,,,74,0
40049,note_on,,,,,29,0,2,,,,,0,,,48,0
40049,note_on,,,,,29,0,1,,,,,0,,,72,0
40049,note_on,,,,,0,0,2,,,,,0,,,60,0
40050,note_on,,,,,1,0,1,,,,,0,,,74,78
40053,note_on,,,,,33,0,4,,,,,1,,,60,0
40077,note_on,,,,,55,0,3,,,,,1,,,72,0
40079,note_on,,,,,59,0,5,,,,,1,,,60,0
40079,note_on,,,,,29,0,1,,,,,0,,,74,0
40079,note_on,,,,,59,0,6,,,,,1,,,48,0
40080,note_on,,,,,1,0,5,,,,,1,,,59,78
40080,note_on,,,,,31,0,2,,,,,0,,,59,88
40080,note_on,,,,,1,0,1,,,,,0,,,71,78
40080,note_on,,,,,27,0,4,,,,,1,,,59,58
40080,note_on,,,,,3,0,3,,,,,1,,,71,68
40080,note_on,,,,,1,0,6,,,,,1,,,47,58
40080,note_on,,,,,0,0,2,,,,,0,,,47,88
40109,note_on,,,,,29,0,1,,,,,0,,,71,0
40109,note_on,,,,,29,0,2,,,,,0,,,47,0
40110,note_on,,,,,1,0,1,,,,,0,,,72,70
40124,note_on,,,,,15,0,2,,,,,0,,,59,0
40133,note_on,,,,,53,0,4,,,,,1,,,59,0
40139,note_on,,,,,29,0,1,,,,,0,,,72,0
40139,note_on,,,,,59,0,6,,,,,1,,,47,0
40139,note_on,,,,,59,0,5,,,,,1,,,59,0
40140,note_on,,,,,7,0,4,,,,,1,,,69,78
40140,note_on,,,,,1,0,6,,,,,1,,,57,78
40140,note_on,,,,,16,0,2,,,,,0,,,45,78
40140,note_on,,,,,60,0,3,,,,,1,,,69,68
40140,note_on,,,,,0,0,2,,,,,0,,,57,88
40140,note_on,,,,,1,0,1,,,,,0,,,69,78
40140,note_on,,,,,1,0,5,,,,,1,,,57,78
40146,note_on,,,,,6,0,3,,,,,1,,,71,0
40169,note_on,,,,,29,0,1,,,,,0,,,69,0
40169,note_on,,,,,0,0,2,,,,,0,,,45,0
40169,note_on,,,,,29,0,2,,,,,0,,,57,0
40170,note_on,,,,,1,0,1,,,,,0,,,71,78
40199,note_on,,,,,59,0,5,,,,,1,,,57,0
40199,note_on,,,,,59,0,6,,,,,1,,,57,0
40199,note_on,,,,,29,0,1,,,,,0,,,71,0
40200,note_on,,,,,1,0,5,,,,,1,,,55,78
40200,note_on,,,,,60,0,4,,,,,1,,,67,78
40200,note_on,,,,,1,0,6,,,,,1,,,55,78
40200,note_on,,,,,31,0,2,,,,,0,,,43,78
40200,note_on,,,,,0,0,2,,,,,0,,,55,88
40200,note_on,,,,,1,0,1,,,,,0,,,67,88
40200,note_on,,,,,54,0,3,,,,,1,,,67,90
40204,note_on,,,,,4,0,3,,,,,1,,,69,0
40206,note_on,,,,,6,0,4,,,,,1,,,69,0
40229,note_on,,,,,0,0,2,,,,,0,,,43,0
40229,note_on,,,,,29,0,2,,,,,0,,,55,0
40229,note_on,,,,,29,0,1,,,,,0,,,67,0
40230,note_on,,,,,1,0,1,,,,,0,,,69,70
40253,note_on,,,,,49,0,3,,,,,1,,,67,0
40257,note_on,,,,,51,0,4,,,,,1,,,67,0
40259,note_on,,,,,59,0,5,,,,,1,,,55,0
40259,note_on,,,,,59,0,6,,,,,1,,,55,0
40259,note_on,,,,,29,0,1,,,,,0,,,69,0
40260,note_on,,,,,1,0,5,,,,,1,,,53,78
40260,note_on,,,,,31,0,2,,,,,0,,,53,88
40260,note_on,,,,,1,0,6,,,,,1,,,53,78
40260,note_on,,,,,1,0,1,,,,,0,,,65,88
40260,note_on,,,,,7,0,3,,,,,1,,,65,78
40260,note_on,,,,,0,0,2,,,,,0,,,41,78
40260,note_on,,,,,3,0,4,,,,,1,,,65,78
40289,note_on,,,,,29,0,1,,,,,0,,,65,0
40289,note_on,,,,,29,0,2,,,,,0,,,41,0
40290,note_on,,,,,1,0,1,,,,,0,,,67,78
40304,note_on,,,,,15,0,2,,,,,0,,,53,0
40306,note_on,,,,,46,0,4,,,,,1,,,65,0
40317,note_on,,,,,57,0,3,,,,,1,,,65,0
40319,note_on,,,,,29,0,1,,,,,0,,,67,0
40319,note_on,,,,,59,0,5,,,,,1,,,53,0
40319,note_on,,,,,59,0,6,,,,,1,,,53,0
40320,note_on,,,,,0,0,2,,,,,0,,,52,88
40320,note_on,,,,,16,0,2,,,,,0,,,40,88
40320,note_on,,,,,1,0,1,,,,,0,,,64,88
40320,note_on,,,,,3,0,3,,,,,1,,,64,78
40320,note_on,,,,,1,0,5,,,,,1,,,52,78
40320,note_on,,,,,14,0,4,,,,,1,,,64,78
40320,note_on,,,,,1,0,6,,,,,1,,,52,78
40349,note_on,,,,,29,0,1,,,,,0,,,64,0
40350,note_on,,,,,1,0,1,,,,,0,,,68,88
40364,note_on,,,,,44,0,2,,,,,0,,,52,0
40364,note_on,,,,,0,0,2,,,,,0,,,40,0
40379,note_on,,,,,29,0,1,,,,,0,,,68,0
40380,note_on,,,,,1,0,1,,,,,0,,,71,88
40380,note_on,,,,,0,0,2,,,,,0,,,40,78
40380,note_on,,,,,16,0,2,,,,,0,,,52,70
40409,note_on,,,,,29,0,1,,,,,0,,,71,0
40410,note_on,,,,,1,0,1,,,,,0,,,76,88
40424,note_on,,,,,0,0,2,,,,,0,,,52,0
40424,note_on,,,,,44,0,2,,,,,0,,,40,0
40439,note_on,,,,,29,0,1,,,,,0,,,76,0
40440,note_on,,,,,0,0,2,,,,,0,,,52,78
40440,note_on,,,,,1,0,1,,,,,0,,,64,88
40440,note_on,,,,,16,0,2,,,,,0,,,40,78
40468,note_on,,,,,148,0,4,,,,,1,,,64,0
40469,note_on,,,,,149,0,5,,,,,1,,,52,0
40469,note_on,,,,,29,0,1,,,,,0,,,64,0
40469,note_on,,,,,149,0,6,,,,,1,,,52,0
40470,note_on,,,,,1,0,1,,,,,0,,,76,62
40481,note_on,,,,,161,0,3,,,,,1,,,64,0
40484,note_on,,,,,44,0,2,,,,,0,,,52,0
40484,note_on,,,,,0,0,2,,,,,0,,,40,0
40499,note_on,,,,,29,0,1,,,,,0,,,76,0
40500,note_on,,,,,1,0,1,,,,,0,,,64,78
40500,note_on,,,,,16,0,2,,,,,0,,,40,78
40500,note_on,,,,,31,0,6,,,,,1,,,52,78
40500,note_on,,,,,0,0,2,,,,,0,,,52,78
40500,note_on,,,,,19,0,3,,,,,1,,,64,78
40500,note_on,,,,,32,0,4,,,,,1,,,64,78
40500,note_on,,,,,31,0,5,,,,,1,,,52,78
40529,note_on,,,,,29,0,5,,,,,1,,,52,0
40529,note_on,,,,,29,0,6,,,,,1,,,52,0
40529,note_on,,,,,29,0,1,,,,,0,,,64,0
40530,note_on,,,,,1,0,1,,,,,0,,,76,88
40531,note_on,,,,,31,0,3,,,,,1,,,64,0
40537,note_on,,,,,37,0,4,,,,,1,,,64,0
40544,note_on,,,,,0,0,2,,,,,0,,,40,0
40544,note_on,,,,,44,0,2,,,,,0,,,52,0
40560,note_on,,,,,31,0,6,,,,,1,,,52,58
40560,note_on,,,,,23,0,4,,,,,1,,,64,78
40560,note_on,,,,,29,0,3,,,,,1,,,64,78
40560,note_on,,,,,16,0,2,,,,,0,,,52,70
40560,note_on,,,,,0,0,2,,,,,0,,,40,78
40560,note_on,,,,,30,0,1,,,,,0,,,64,88
40560,note_on,,,,,31,0,5,,,,,1,,,52,68
40574,note_on,,,,,14,0,1,,,,,0,,,76,0
40589,note_on,,,,,15,0,1,,,,,0,,,64,0
40589,note_on,,,,,29,0,2,,,,,0,,,52,0
40590,note_on,,,,,1,0,1,,,,,0,,,68,98
40604,note_on,,,,,15,0,2,,,,,0,,,40,0
40619,note_on,,,,,29,0,1,,,,,0,,,68,0
40620,note_on,,,,,1,0,1,,,,,0,,,71,78
40620,note_on,,,,,0,0,2,,,,,0,,,52,70
40620,note_on,,,,,16,0,2,,,,,0,,,40,62
40649,note_on,,,,,29,0,1,,,,,0,,,71,0
40649,note_on,,,,,29,0,2,,,,,0,,,40,0
40649,note_on,,,,,89,0,6,,,,,1,,,52,0
40650,note_on,,,,,1,0,1,,,,,0,,,76,88
40664,note_on,,,,,15,0,2,,,,,0,,,52,0
40667,note_on,,,,,107,0,4,,,,,1,,,64,0
40677,note_on,,,,,117,0,3,,,,,1,,,64,0
40679,note_on,,,,,29,0,1,,,,,0,,,76,0
40679,note_on,,,,,119,0,5,,,,,1,,,52,0
40680,note_on,,,,,0,0,2,,,,,0,,,52,78
40680,note_on,,,,,0,0,2,,,,,0,,,59,88
40680,note_on,,,,,16,0,2,,,,,0,,,56,98
40680,note_on,,,,,1,0,1,,,,,0,,,64,78
40680,note_on,,,,,1,0,5,,,,,1,,,64,68
40680,note_on,,,,,31,0,6,,,,,1,,,52,90
40680,note_on,,,,,3,0,3,,,,,1,,,76,90
40680,note_on,,,,,13,0,4,,,,,1,,,68,104
40709,note_on,,,,,29,0,1,,,,,0,,,64,0
40710,note_on,,,,,1,0,1,,,,,0,,,76,78
40724,note_on,,,,,44,0,2,,,,,0,,,52,0
40739,note_on,,,,,29,0,1,,,,,0,,,76,0
40740,note_on,,,,,1,0,1,,,,,0,,,64,78
40740,note_on,,,,,16,0,2,,,,,0,,,52,70
40754,note_on,,,,,0,0,2,,,,,0,,,56,0
40754,note_on,,,,,14,0,2,,,,,0,,,59,0
40769,note_on,,,,,89,0,6,,,,,1,,,52,0
40769,note_on,,,,,29,0,1,,,,,0,,,64,0
40769,note_on,,,,,15,0,2,,,,,0,,,52,0
40769,note_on,,,,,89,0,5,,,,,1,,,64,0
40770,note_on,,,,,1,0,1,,,,,0,,,76,70
40777,note_on,,,,,97,0,3,,,,,1,,,76,0
40783,note_on,,,,,103,0,4,,,,,1,,,68,0
40784,note_on,,,,,14,0,1,,,,,0,,,76,0
40800,note_on,,,,,23,0,3,,,,,1,,,76,90
40800,note_on,,,,,17,0,4,,,,,1,,,69,90
40800,note_on,,,,,31,0,6,,,,,1,,,52,90
40800,note_on,,,,,31,0,5,,,,,1,,,65,104
40800,note_on,,,,,0,0,2,,,,,0,,,57,88
40800,note_on,,,,,16,0,1,,,,,0,,,76,98
40800,note_on,,,,,31,0,2,,,,,0,,,52,88
40800,note_on,,,,,0,0,2,,,,,0,,,65,78
40844,note_on,,,,,44,0,2,,,,,0,,,52,0
40859,note_on,,,,,59,0,1,,,,,0,,,76,0
40859,note_on,,,,,59,0,5,,,,,1,,,65,0
40859,note_on,,,,,15,0,2,,,,,0,,,57,0
40860,note_on,,,,,1,0,1,,,,,0,,,81,39
40860,note_on,,,,,1,0,2,,,,,0,,,57,55
40860,note_on,,,,,0,0,2,,,,,0,,,52,78
40874,note_on,,,,,14,0,2,,,,,0,,,57,0
40879,note_on,,,,,79,0,4,,,,,1,,,69,0
40886,note_on,,,,,86,0,3,,,,,1,,,76,0
40889,note_on,,,,,89,0,6,,,,,1,,,52,0
40889,note_on,,,,,29,0,1,,,,,0,,,81,0
40890,note_on,,,,,11,0,4,,,,,1,,,69,42
40890,note_on,,,,,31,0,5,,,,,1,,,65,50
40890,note_on,,,,,1,0,6,,,,,1,,,52,42
40890,note_on,,,,,4,0,3,,,,,1,,,76,68
40890,note_on,,,,,1,0,1,,,,,0,,,77,44
40904,note_on,,,,,30,0,2,,,,,0,,,52,0
40906,note_on,,,,,16,0,3,,,,,1,,,76,0
40907,note_on,,,,,17,0,4,,,,,1,,,69,0
40919,note_on,,,,,29,0,6,,,,,1,,,52,0
40919,note_on,,,,,29,0,1,,,,,0,,,77,0
40919,note_on,,,,,29,0,5,,,,,1,,,65,0
40920,note_on,,,,,14,0,3,,,,,1,,,74,42
40920,note_on,,,,,13,0,4,,,,,1,,,69,50
40920,note_on,,,,,1,0,6,,,,,1,,,52,58
40920,note_on,,,,,1,0,5,,,,,1,,,65,68
40920,note_on,,,,,16,0,2,,,,,0,,,52,62
40920,note_on,,,,,1,0,1,,,,,0,,,74,55
40934,note_on,,,,,14,0,1,,,,,0,,,74,0
40949,note_on,,,,,29,0,2,,,,,0,,,52,0
40958,note_on,,,,,38,0,3,,,,,1,,,74,0
40980,note_on,,,,,31,0,2,,,,,0,,,52,35
40980,note_on,,,,,46,0,1,,,,,0,,,74,62
41007,note_on,,,,,87,0,4,,,,,1,,,69,0
41009,note_on,,,,,29,0,1,,,,,0,,,74,0
41009,note_on,,,,,89,0,6,,,,,1,,,52,0
41009,note_on,,,,,89,0,5,,,,,1,,,65,0
41009,note_on,,,,,29,0,2,,,,,0,,,52,0
41040,note_on,,,,,31,0,5,,,,,1,,,65,42
41040,note_on,,,,,31,0,2,,,,,0,,,52,44
41040,note_on,,,,,31,0,6,,,,,1,,,52,42
41040,note_on,,,,,31,0,1,,,,,0,,,74,62
41040,note_on,,,,,33,0,4,,,,,1,,,69,50
41040,note_on,,,,,82,0,3,,,,,1,,,74,50
41069,note_on,,,,,29,0,2,,,,,0,,,52,0
41069,note_on,,,,,29,0,1,,,,,0,,,74,0
41100,note_on,,,,,31,0,1,,,,,0,,,74,44
41100,note_on,,,,,31,0,2,,,,,0,,,52,49
41126,note_on,,,,,86,0,3,,,,,1,,,74,0
41129,note_on,,,,,89,0,6,,,,,1,,,52,0
41129,note_on,,,,,29,0,2,,,,,0,,,52,0
41129,note_on,,,,,89,0,5,,,,,1,,,65,0
41129,note_on,,,,,29,0,1,,,,,0,,,74,0
41138,note_on,,,,,98,0,4,,,,,1,,,69,0
41160,note_on,,,,,22,0,4,,,,,1,,,69,58
41160,note_on,,,,,31,0,5,,,,,1,,,65,58
41160,note_on,,,,,31,0,6,,,,,1,,,52,50
41160,note_on,,,,,31,0,1,,,,,0,,,74,44
41160,note_on,,,,,31,0,2,,,,,0,,,52,55
41160,note_on,,,,,34,0,3,,,,,1,,,74,42
41189,note_on,,,,,29,0,1,,,,,0,,,74,0
41189,note_on,,,,,29,0,2,,,,,0,,,52,0
41219,note_on,,,,,30,0,2,,,,,0,,,65,0
41220,note_on,,,,,1,0,2,,,,,0,,,52,62
41220,note_on,,,,,31,0,1,,,,,0,,,74,55
41249,note_on,,,,,89,0,6,,,,,1,,,52,0
41249,note_on,,,,,89,0,5,,,,,1,,,65,0
41249,note_on,,,,,29,0,2,,,,,0,,,52,0
41250,note_on,,,,,90,0,4,,,,,1,,,69,0
41262,note_on,,,,,102,0,3,,,,,1,,,74,0
41264,note_on,,,,,44,0,1,,,,,0,,,74,0
41280,note_on,,,,,0,0,2,,,,,0,,,64,88
41280,note_on,,,,,30,0,4,,,,,1,,,67,90
41280,note_on,,,,,16,0,1,,,,,0,,,74,110
41280,note_on,,,,,31,0,2,,,,,0,,,52,88
41280,note_on,,,,,31,0,6,,,,,1,,,52,90
41280,note_on,,,,,31,0,5,,,,,1,,,64,104
41280,note_on,,,,,0,0,2,,,,,0,,,55,98
41280,note_on,,,,,18,0,3,,,,,1,,,74,104
41309,note_on,,,,,29,0,2,,,,,0,,,52,0
41339,note_on,,,,,59,0,1,,,,,0,,,74,0
41340,note_on,,,,,1,0,1,,,,,0,,,79,39
41340,note_on,,,,,31,0,2,,,,,0,,,52,55
41369,note_on,,,,,29,0,2,,,,,0,,,52,0
41369,note_on,,,,,29,0,1,,,,,0,,,79,0
41369,note_on,,,,,89,0,6,,,,,1,,,52,0
41369,note_on,,,,,89,0,5,,,,,1,,,64,0
41370,note_on,,,,,1,0,1,,,,,0,,,76,22
41381,note_on,,,,,101,0,4,,,,,1,,,67,0
41388,note_on,,,,,108,0,3,,,,,1,,,74,0
41399,note_on,,,,,29,0,1,,,,,0,,,76,0
41400,note_on,,,,,31,0,6,,,,,1,,,52,50
41400,note_on,,,,,1,0,1,,,,,0,,,72,49
41400,note_on,,,,,31,0,5,,,,,1,,,64,42
41400,note_on,,,,,12,0,3,,,,,1,,,72,50
41400,note_on,,,,,31,0,2,,,,,0,,,52,35
41400,note_on,,,,,19,0,4,,,,,1,,,67,42
41429,note_on,,,,,29,0,2,,,,,0,,,52,0
41429,note_on,,,,,29,0,1,,,,,0,,,72,0
41460,note_on,,,,,31,0,1,,,,,0,,,72,44
41460,note_on,,,,,31,0,2,,,,,0,,,52,30
41474,note_on,,,,,14,0,1,,,,,0,,,72,0
41489,note_on,,,,,29,0,2,,,,,0,,,52,0
41489,note_on,,,,,89,0,6,,,,,1,,,52,0
41489,note_on,,,,,89,0,5,,,,,1,,,64,0
41489,note_on,,,,,89,0,4,,,,,1,,,67,0
41498,note_on,,,,,98,0,3,,,,,1,,,72,0
41520,note_on,,,,,31,0,5,,,,,1,,,64,35
41520,note_on,,,,,31,0,6,,,,,1,,,52,42
41520,note_on,,,,,31,0,2,,,,,0,,,52,35
41520,note_on,,,,,22,0,3,,,,,1,,,72,42
41520,note_on,,,,,46,0,1,,,,,0,,,72,49
41520,note_on,,,,,31,0,4,,,,,1,,,67,24
41549,note_on,,,,,29,0,2,,,,,0,,,52,0
41564,note_on,,,,,44,0,1,,,,,0,,,72,0
41580,note_on,,,,,31,0,2,,,,,0,,,52,49
41580,note_on,,,,,16,0,1,,,,,0,,,72,44
41601,note_on,,,,,81,0,4,,,,,1,,,67,0
41609,note_on,,,,,89,0,5,,,,,1,,,64,0
41609,note_on,,,,,89,0,6,,,,,1,,,52,0
41609,note_on,,,,,29,0,2,,,,,0,,,52,0
41616,note_on,,,,,96,0,3,,,,,1,,,72,0
41624,note_on,,,,,44,0,1,,,,,0,,,72,0
41640,note_on,,,,,31,0,6,,,,,1,,,52,29
41640,note_on,,,,,24,0,3,,,,,1,,,72,42
41640,note_on,,,,,16,0,1,,,,,0,,,72,49
41640,note_on,,,,,39,0,4,,,,,1,,,67,35
41640,note_on,,,,,31,0,2,,,,,0,,,52,39
41640,note_on,,,,,31,0,5,,,,,1,,,64,35
41669,note_on,,,,,29,0,2,,,,,0,,,52,0
41684,note_on,,,,,44,0,1,,,,,0,,,72,0
41700,note_on,,,,,16,0,1,,,,,0,,,72,55
41700,note_on,,,,,31,0,2,,,,,0,,,52,55
41714,note_on,,,,,14,0,2,,,,,0,,,55,0
41714,note_on,,,,,0,0,2,,,,,0,,,64,0
41729,note_on,,,,,89,0,6,,,,,1,,,52,0
41729,note_on,,,,,15,0,2,,,,,0,,,52,0
41732,note_on,,,,,92,0,4,,,,,1,,,67,0
41738,note_on,,,,,98,0,3,,,,,1,,,72,0
41744,note_on,,,,,44,0,1,,,,,0,,,72,0
41759,note_on,,,,,119,0,5,,,,,1,,,64,0
41760,note_on,,,,,28,0,4,,,,,1,,,65,90
41760,note_on,,,,,31,0,6,,,,,1,,,52,104
41760,note_on,,,,,22,0,3,,,,,1,,,72,90
41760,note_on,,,,,31,0,2,,,,,0,,,52,88
41760,note_on,,,,,16,0,1,,,,,0,,,72,98
41760,note_on,,,,,0,0,2,,,,,0,,,53,88
41760,note_on,,,,,1,0,5,,,,,1,,,62,104
41760,note_on,,,,,0,0,2,,,,,0,,,62,88
41789,note_on,,,,,29,0,2,,,,,0,,,52,0
41819,note_on,,,,,59,0,1,,,,,0,,,72,0
41820,note_on,,,,,1,0,1,,,,,0,,,77,55
41820,note_on,,,,,31,0,2,,,,,0,,,52,39
41849,note_on,,,,,29,0,2,,,,,0,,,52,0
41849,note_on,,,,,29,0,1,,,,,0,,,77,0
41850,note_on,,,,,1,0,1,,,,,0,,,74,35
41879,note_on,,,,,29,0,1,,,,,0,,,74,0
41880,note_on,,,,,120,0,3,,,,,1,,,72,0
41880,note_on,,,,,0,0,3,,,,,1,,,71,58
41880,note_on,,,,,1,0,1,,,,,0,,,71,39
41880,note_on,,,,,31,0,2,,,,,0,,,52,39
41909,note_on,,,,,29,0,2,,,,,0,,,52,0
41909,note_on,,,,,29,0,1,,,,,0,,,71,0
41940,note_on,,,,,31,0,2,,,,,0,,,52,49
41940,note_on,,,,,31,0,1,,,,,0,,,71,39
41954,note_on,,,,,14,0,2,,,,,0,,,62,0
41969,note_on,,,,,15,0,2,,,,,0,,,52,0
41969,note_on,,,,,0,0,2,,,,,0,,,53,0
41969,note_on,,,,,209,0,6,,,,,1,,,52,0
41984,note_on,,,,,44,0,1,,,,,0,,,71,0
41988,note_on,,,,,228,0,4,,,,,1,,,65,0
41999,note_on,,,,,239,0,5,,,,,1,,,62,0
42000,note_on,,,,,31,0,6,,,,,1,,,52,90
42000,note_on,,,,,31,0,2,,,,,0,,,52,88
42000,note_on,,,,,0,0,2,,,,,0,,,60,88
42000,note_on,,,,,16,0,1,,,,,0,,,71,110
42000,note_on,,,,,1,0,5,,,,,1,,,60,78
42000,note_on,,,,,12,0,4,,,,,1,,,64,90
42029,note_on,,,,,29,0,2,,,,,0,,,52,0
42059,note_on,,,,,59,0,1,,,,,0,,,71,0
42060,note_on,,,,,31,0,2,,,,,0,,,52,44
42060,note_on,,,,,1,0,1,,,,,0,,,76,30
42089,note_on,,,,,29,0,2,,,,,0,,,52,0
42089,note_on,,,,,29,0,1,,,,,0,,,76,0
42090,note_on,,,,,1,0,1,,,,,0,,,72,28
42119,note_on,,,,,29,0,1,,,,,0,,,72,0
42120,note_on,,,,,1,0,1,,,,,0,,,69,39
42120,note_on,,,,,240,0,3,,,,,1,,,69,42
42120,note_on,,,,,31,0,2,,,,,0,,,52,44
42127,note_on,,,,,7,0,3,,,,,1,,,71,0
42149,note_on,,,,,29,0,2,,,,,0,,,52,0
42164,note_on,,,,,44,0,1,,,,,0,,,69,0
42180,note_on,,,,,31,0,2,,,,,0,,,52,35
42180,note_on,,,,,16,0,1,,,,,0,,,69,49
42209,note_on,,,,,29,0,2,,,,,0,,,52,0
42209,note_on,,,,,209,0,5,,,,,1,,,60,0
42209,note_on,,,,,209,0,6,,,,,1,,,52,0
42209,note_on,,,,,0,0,2,,,,,0,,,60,0
42221,note_on,,,,,221,0,4,,,,,1,,,64,0
42224,note_on,,,,,44,0,1,,,,,0,,,69,0
42237,note_on,,,,,110,0,3,,,,,1,,,69,0
42240,note_on,,,,,31,0,6,,,,,1,,,52,90
42240,note_on,,,,,31,0,5,,,,,1,,,59,90
42240,note_on,,,,,31,0,2,,,,,0,,,40,78
42240,note_on,,,,,3,0,3,,,,,1,,,68,78
42240,note_on,,,,,0,0,2,,,,,0,,,52,70
42240,note_on,,,,,19,0,4,,,,,1,,,62,90
42240,note_on,,,,,16,0,1,,,,,0,,,68,98
42240,note_on,,,,,0,0,1,,,,,0,,,62,78
42240,note_on,,,,,0,0,1,,,,,0,,,65,98
42269,note_on,,,,,29,0,2,,,,,0,,,52,0
42269,note_on,,,,,29,0,1,,,,,0,,,62,0
42269,note_on,,,,,0,0,1,,,,,0,,,65,0
42284,note_on,,,,,15,0,1,,,,,0,,,68,0
42299,note_on,,,,,30,0,2,,,,,0,,,40,0
42300,note_on,,,,,1,0,2,,,,,0,,,52,70
42300,note_on,,,,,16,0,1,,,,,0,,,80,98
42329,note_on,,,,,29,0,1,,,,,0,,,80,0
42329,note_on,,,,,29,0,2,,,,,0,,,52,0
42329,note_on,,,,,89,0,6,,,,,1,,,52,0
42330,note_on,,,,,1,0,1,,,,,0,,,68,78
42344,note_on,,,,,104,0,3,,,,,1,,,68,0
42358,note_on,,,,,118,0,4,,,,,1,,,62,0
42359,note_on,,,,,29,0,1,,,,,0,,,68,0
42359,note_on,,,,,119,0,5,,,,,1,,,59,0
42360,note_on,,,,,2,0,4,,,,,1,,,64,78
42360,note_on,,,,,1,0,5,,,,,1,,,60,78
42360,note_on,,,,,0,0,2,,,,,0,,,64,78
42360,note_on,,,,,0,0,2,,,,,0,,,60,88
42360,note_on,,,,,16,0,3,,,,,1,,,69,90
42360,note_on,,,,,31,0,6,,,,,1,,,52,78
42360,note_on,,,,,31,0,2,,,,,0,,,52,78
42360,note_on,,,,,1,0,1,,,,,0,,,81,78
42389,note_on,,,,,29,0,2,,,,,0,,,60,0
42389,note_on,,,,,0,0,2,,,,,0,,,64,0
42389,note_on,,,,,0,0,2,,,,,0,,,52,0
42389,note_on,,,,,29,0,6,,,,,1,,,52,0
42389,note_on,,,,,29,0,1,,,,,0,,,81,0
42390,note_on,,,,,1,0,1,,,,,0,,,69,78
42395,note_on,,,,,35,0,4,,,,,1,,,64,0
42419,note_on,,,,,59,0,5,,,,,1,,,60,0
42419,note_on,,,,,29,0,1,,,,,0,,,69,0
42420,note_on,,,,,25,0,4,,,,,1,,,64,90
42420,note_on,,,,,60,0,3,,,,,1,,,71,78
42420,note_on,,,,,31,0,6,,,,,1,,,52,78
42420,note_on,,,,,1,0,5,,,,,1,,,56,90
42420,note_on,,,,,1,0,1,,,,,0,,,83,98
42420,note_on,,,,,0,0,2,,,,,0,,,62,88
42420,note_on,,,,,0,0,2,,,,,0,,,59,88
42420,note_on,,,,,31,0,2,,,,,0,,,52,88
42426,note_on,,,,,6,0,3,,,,,1,,,69,0
42449,note_on,,,,,0,0,2,,,,,0,,,52,0
42449,note_on,,,,,29,0,2,,,,,0,,,62,0
42449,note_on,,,,,29,0,6,,,,,1,,,52,0
42449,note_on,,,,,29,0,1,,,,,0,,,83,0
42449,note_on,,,,,0,0,2,,,,,0,,,59,0
42450,note_on,,,,,1,0,1,,,,,0,,,71,70
42455,note_on,,,,,35,0,4,,,,,1,,,64,0
42460,note_on,,,,,34,0,3,,,,,1,,,71,0
42479,note_on,,,,,59,0,5,,,,,1,,,56,0
42479,note_on,,,,,29,0,1,,,,,0,,,71,0
42480,note_on,,,,,1,0,5,,,,,1,,,57,68
42480,note_on,,,,,25,0,4,,,,,1,,,64,90
42480,note_on,,,,,20,0,3,,,,,1,,,72,90
42480,note_on,,,,,31,0,6,,,,,1,,,52,90
42480,note_on,,,,,1,0,1,,,,,0,,,84,98
42480,note_on,,,,,31,0,2,,,,,0,,,57,110
42480,note_on,,,,,0,0,2,,,,,0,,,60,88
42480,note_on,,,,,0,0,2,,,,,0,,,52,98
42509,note_on,,,,,29,0,1,,,,,0,,,84,0
42509,note_on,,,,,29,0,2,,,,,0,,,52,0
42510,note_on,,,,,1,0,1,,,,,0,,,72,70
42539,note_on,,,,,29,0,1,,,,,0,,,72,0
42540,note_on,,,,,1,0,1,,,,,0,,,84,98
42540,note_on,,,,,31,0,2,,,,,0,,,52,78
42569,note_on,,,,,29,0,2,,,,,0,,,52,0
42569,note_on,,,,,29,0,1,,,,,0,,,84,0
42570,note_on,,,,,1,0,1,,,,,0,,,72,70
42599,note_on,,,,,119,0,6,,,,,1,,,52,0
42599,note_on,,,,,119,0,4,,,,,1,,,64,0
42599,note_on,,,,,29,0,1,,,,,0,,,72,0
42600,note_on,,,,,1,0,6,,,,,1,,,51,90
42600,note_on,,,,,1,0,1,,,,,0,,,84,98
42600,note_on,,,,,1,0,4,,,,,1,,,66,90
42600,note_on,,,,,31,0,2,,,,,0,,,51,78
42629,note_on,,,,,29,0,2,,,,,0,,,51,0
42629,note_on,,,,,29,0,1,,,,,0,,,84,0
42630,note_on,,,,,1,0,1,,,,,0,,,72,62
42634,note_on,,,,,154,0,3,,,,,1,,,72,0
42659,note_on,,,,,59,0,6,,,,,1,,,51,0
42659,note_on,,,,,29,0,1,,,,,0,,,72,0
42659,note_on,,,,,179,0,5,,,,,1,,,57,0
42660,note_on,,,,,31,0,2,,,,,0,,,51,78
42660,note_on,,,,,1,0,1,,,,,0,,,84,88
42660,note_on,,,,,1,0,5,,,,,1,,,57,90
42660,note_on,,,,,26,0,3,,,,,1,,,72,78
42674,note_on,,,,,14,0,2,,,,,0,,,60,0
42674,note_on,,,,,0,0,2,,,,,0,,,57,0
42679,note_on,,,,,79,0,4,,,,,1,,,66,0
42689,note_on,,,,,29,0,1,,,,,0,,,84,0
42689,note_on,,,,,15,0,2,,,,,0,,,51,0
42690,note_on,,,,,11,0,4,,,,,1,,,66,78
42690,note_on,,,,,1,0,1,,,,,0,,,72,62
42690,note_on,,,,,31,0,6,,,,,1,,,51,90
42719,note_on,,,,,59,0,5,,,,,1,,,57,0
42719,note_on,,,,,29,0,6,,,,,1,,,51,0
42719,note_on,,,,,29,0,1,,,,,0,,,72,0
42720,note_on,,,,,1,0,5,,,,,1,,,56,90
42720,note_on,,,,,1,0,6,,,,,1,,,52,78
42720,note_on,,,,,60,0,3,,,,,1,,,72,0
42720,note_on,,,,,0,0,2,,,,,0,,,56,98
42720,note_on,,,,,31,0,2,,,,,0,,,52,88
42720,note_on,,,,,0,0,4,,,,,1,,,59,90
42720,note_on,,,,,30,0,4,,,,,1,,,66,0
42720,note_on,,,,,0,0,2,,,,,0,,,59,88
42720,note_on,,,,,1,0,1,,,,,0,,,83,98
42720,note_on,,,,,0,0,3,,,,,1,,,71,90
42749,note_on,,,,,29,0,1,,,,,0,,,83,0
42764,note_on,,,,,0,0,2,,,,,0,,,52,0
42764,note_on,,,,,44,0,2,,,,,0,,,56,0
42779,note_on,,,,,15,0,2,,,,,0,,,59,0
42780,note_on,,,,,1,0,2,,,,,0,,,52,78
42780,note_on,,,,,31,0,1,,,,,0,,,64,62
42809,note_on,,,,,29,0,2,,,,,0,,,52,0
42809,note_on,,,,,29,0,1,,,,,0,,,64,0
42810,note_on,,,,,1,0,2,,,,,0,,,54,98
42810,note_on,,,,,1,0,1,,,,,0,,,66,88
42828,note_on,,,,,108,0,4,,,,,1,,,59,0
42837,note_on,,,,,117,0,3,,,,,1,,,71,0
42839,note_on,,,,,29,0,1,,,,,0,,,66,0
42839,note_on,,,,,119,0,6,,,,,1,,,52,0
42839,note_on,,,,,29,0,2,,,,,0,,,54,0
42839,note_on,,,,,119,0,5,,,,,1,,,56,0
42840,note_on,,,,,1,0,1,,,,,0,,,68,88
42840,note_on,,,,,1,0,2,,,,,0,,,56,98
42869,note_on,,,,,29,0,2,,,,,0,,,56,0
42869,note_on,,,,,29,0,1,,,,,0,,,68,0
42870,note_on,,,,,1,0,1,,,,,0,,,69,78
42870,note_on,,,,,1,0,2,,,,,0,,,57,78
42899,note_on,,,,,29,0,2,,,,,0,,,57,0
42899,note_on,,,,,29,0,1,,,,,0,,,69,0
42900,note_on,,,,,1,0,1,,,,,0,,,71,78
42900,note_on,,,,,1,0,2,,,,,0,,,59,78
42929,note_on,,,,,29,0,2,,,,,0,,,59,0
42929,note_on,,,,,29,0,1,,,,,0,,,71,0
42930,note_on,,,,,1,0,2,,,,,0,,,56,70
42930,note_on,,,,,1,0,1,,,,,0,,,68,88
42944,note_on,,,,,14,0,2,,,,,0,,,56,0
42959,note_on,,,,,29,0,1,,,,,0,,,68,0
42960,note_on,,,,,0,0,2,,,,,0,,,62,88
42960,note_on,,,,,16,0,2,,,,,0,,,52,88
42960,note_on,,,,,0,0,2,,,,,0,,,59,70
42960,note_on,,,,,123,0,3,,,,,1,,,76,90
42960,note_on,,,,,1,0,1,,,,,0,,,64,88
42989,note_on,,,,,29,0,2,,,,,0,,,52,0
42989,note_on,,,,,29,0,1,,,,,0,,,64,0
42990,note_on,,,,,1,0,1,,,,,0,,,76,78
43019,note_on,,,,,29,0,1,,,,,0,,,76,0
43020,note_on,,,,,1,0,1,,,,,0,,,64,88
43020,note_on,,,,,181,0,6,,,,,1,,,52,78
43020,note_on,,,,,31,0,2,,,,,0,,,52,70
43020,note_on,,,,,181,0,5,,,,,1,,,56,90
43049,note_on,,,,,29,0,1,,,,,0,,,64,0
43050,note_on,,,,,1,0,1,,,,,0,,,76,70
43064,note_on,,,,,44,0,2,,,,,0,,,52,0
43079,note_on,,,,,59,0,5,,,,,1,,,56,0
43079,note_on,,,,,59,0,6,,,,,1,,,52,0
43079,note_on,,,,,29,0,1,,,,,0,,,76,0
43080,note_on,,,,,1,0,5,,,,,1,,,57,68
43080,note_on,,,,,1,0,1,,,,,0,,,66,110
43080,note_on,,,,,1,0,6,,,,,1,,,54,90
43080,note_on,,,,,16,0,2,,,,,0,,,54,78
43109,note_on,,,,,29,0,1,,,,,0,,,66,0
43109,note_on,,,,,29,0,2,,,,,0,,,54,0
43110,note_on,,,,,1,0,1,,,,,0,,,76,70
43119,note_on,,,,,159,0,3,,,,,1,,,76,0
43139,note_on,,,,,59,0,5,,,,,1,,,57,0
43139,note_on,,,,,29,0,1,,,,,0,,,76,0
43140,note_on,,,,,21,0,3,,,,,1,,,76,78
43140,note_on,,,,,31,0,2,,,,,0,,,56,88
43140,note_on,,,,,60,0,6,,,,,1,,,56,78
43140,note_on,,,,,1,0,5,,,,,1,,,59,78
43140,note_on,,,,,1,0,1,,,,,0,,,68,110
43154,note_on,,,,,14,0,2,,,,,0,,,59,0
43169,note_on,,,,,15,0,2,,,,,0,,,56,0
43169,note_on,,,,,0,0,2,,,,,0,,,62,0
43169,note_on,,,,,29,0,1,,,,,0,,,68,0
43169,note_on,,,,,29,0,6,,,,,1,,,54,0
43170,note_on,,,,,1,0,1,,,,,0,,,76,62
43195,note_on,,,,,55,0,3,,,,,1,,,76,0
43199,note_on,,,,,30,0,6,,,,,1,,,56,0
43199,note_on,,,,,29,0,1,,,,,0,,,76,0
43200,note_on,,,,,31,0,2,,,,,0,,,57,88
43200,note_on,,,,,5,0,3,,,,,1,,,72,78
43200,note_on,,,,,1,0,1,,,,,0,,,69,88
43200,note_on,,,,,60,0,5,,,,,1,,,60,68
43200,note_on,,,,,0,0,2,,,,,0,,,60,88
43200,note_on,,,,,1,0,6,,,,,1,,,57,78
43229,note_on,,,,,29,0,1,,,,,0,,,69,0
43229,note_on,,,,,29,0,5,,,,,1,,,59,0
43230,note_on,,,,,1,0,1,,,,,0,,,76,70
43244,note_on,,,,,44,0,2,,,,,0,,,60,0
43244,note_on,,,,,0,0,2,,,,,0,,,57,0
43256,note_on,,,,,56,0,3,,,,,1,,,72,0
43259,note_on,,,,,29,0,1,,,,,0,,,76,0
43259,note_on,,,,,30,0,5,,,,,1,,,60,0
43259,note_on,,,,,59,0,6,,,,,1,,,57,0
43260,note_on,,,,,1,0,1,,,,,0,,,72,78
43260,note_on,,,,,4,0,3,,,,,1,,,69,58
43260,note_on,,,,,16,0,2,,,,,0,,,64,88
43260,note_on,,,,,0,0,2,,,,,0,,,60,88
43260,note_on,,,,,1,0,5,,,,,1,,,64,78
43260,note_on,,,,,432,0,4,,,,,1,,,69,78
43260,note_on,,,,,1,0,6,,,,,1,,,60,78
43289,note_on,,,,,29,0,1,,,,,0,,,72,0
43289,note_on,,,,,29,0,2,,,,,0,,,60,0
43289,note_on,,,,,0,0,2,,,,,0,,,64,0
43290,note_on,,,,,1,0,1,,,,,0,,,76,62
43307,note_on,,,,,47,0,3,,,,,1,,,69,0
43319,note_on,,,,,59,0,6,,,,,1,,,60,0
43319,note_on,,,,,29,0,1,,,,,0,,,76,0
43319,note_on,,,,,59,0,5,,,,,1,,,64,0
43320,note_on,,,,,1,0,1,,,,,0,,,71,78
43320,note_on,,,,,31,0,2,,,,,0,,,68,98
43320,note_on,,,,,0,0,2,,,,,0,,,62,98
43320,note_on,,,,,1,0,5,,,,,1,,,62,68
43320,note_on,,,,,1,0,6,,,,,1,,,59,68
43320,note_on,,,,,60,0,4,,,,,1,,,68,90
43320,note_on,,,,,13,0,3,,,,,1,,,76,78
43320,note_on,,,,,0,0,2,,,,,0,,,59,88
43328,note_on,,,,,8,0,4,,,,,1,,,69,0
43349,note_on,,,,,0,0,2,,,,,0,,,68,0
43349,note_on,,,,,0,0,2,,,,,0,,,62,0
43349,note_on,,,,,29,0,2,,,,,0,,,59,0
43349,note_on,,,,,29,0,1,,,,,0,,,71,0
43350,note_on,,,,,1,0,1,,,,,0,,,76,70
43379,note_on,,,,,59,0,5,,,,,1,,,62,0
43379,note_on,,,,,51,0,4,,,,,1,,,68,0
43379,note_on,,,,,59,0,6,,,,,1,,,59,0
43379,note_on,,,,,29,0,1,,,,,0,,,76,0
43380,note_on,,,,,1,0,6,,,,,1,,,57,78
43380,note_on,,,,,1,0,1,,,,,0,,,69,78
43380,note_on,,,,,1,0,5,,,,,1,,,60,68
43380,note_on,,,,,0,0,2,,,,,0,,,57,98
43380,note_on,,,,,0,0,2,,,,,0,,,64,88
43380,note_on,,,,,31,0,2,,,,,0,,,60,98
43380,note_on,,,,,1,0,4,,,,,1,,,69,78
43409,note_on,,,,,0,0,2,,,,,0,,,60,0
43409,note_on,,,,,29,0,1,,,,,0,,,69,0
43409,note_on,,,,,0,0,2,,,,,0,,,57,0
43409,note_on,,,,,29,0,2,,,,,0,,,64,0
43410,note_on,,,,,1,0,1,,,,,0,,,76,55
43439,note_on,,,,,59,0,5,,,,,1,,,60,0
43439,note_on,,,,,29,0,1,,,,,0,,,76,0
43439,note_on,,,,,59,0,6,,,,,1,,,57,0
43440,note_on,,,,,0,0,2,,,,,0,,,59,88
43440,note_on,,,,,0,0,2,,,,,0,,,62,88
43440,note_on,,,,,1,0,6,,,,,1,,,56,90
43440,note_on,,,,,31,0,2,,,,,0,,,56,98
43440,note_on,,,,,1,0,5,,,,,1,,,59,68
43440,note_on,,,,,0,0,4,,,,,1,,,64,78
43440,note_on,,,,,1,0,1,,,,,0,,,68,88
43440,note_on,,,,,60,0,4,,,,,1,,,69,0
43448,note_on,,,,,128,0,3,,,,,1,,,76,0
43469,note_on,,,,,29,0,1,,,,,0,,,68,0
43469,note_on,,,,,29,0,2,,,,,0,,,56,0
43470,note_on,,,,,1,0,1,,,,,0,,,76,62
43499,note_on,,,,,29,0,1,,,,,0,,,76,0
43499,note_on,,,,,59,0,6,,,,,1,,,56,0
43499,note_on,,,,,59,0,5,,,,,1,,,59,0
43500,note_on,,,,,52,0,3,,,,,1,,,76,78
43500,note_on,,,,,1,0,1,,,,,0,,,64,88
43500,note_on,,,,,31,0,2,,,,,0,,,52,78
43500,note_on,,,,,1,0,5,,,,,1,,,56,78
43500,note_on,,,,,1,0,6,,,,,1,,,52,68
43529,note_on,,,,,29,0,2,,,,,0,,,52,0
43529,note_on,,,,,29,0,1,,,,,0,,,64,0
43530,note_on,,,,,1,0,1,,,,,0,,,76,70
43539,note_on,,,,,39,0,3,,,,,1,,,76,0
43540,note_on,,,,,100,0,4,,,,,1,,,64,0
43559,note_on,,,,,59,0,6,,,,,1,,,52,0
43559,note_on,,,,,59,0,5,,,,,1,,,56,0
43559,note_on,,,,,29,0,1,,,,,0,,,76,0
43560,note_on,,,,,20,0,4,,,,,1,,,64,78
43560,note_on,,,,,31,0,2,,,,,0,,,54,98
43560,note_on,,,,,1,0,5,,,,,1,,,57,78
43560,note_on,,,,,21,0,3,,,,,1,,,76,78
43560,note_on,,,,,1,0,1,,,,,0,,,66,98
43560,note_on,,,,,1,0,6,,,,,1,,,54,90
43589,note_on,,,,,29,0,1,,,,,0,,,66,0
43589,note_on,,,,,29,0,2,,,,,0,,,54,0
43590,note_on,,,,,1,0,1,,,,,0,,,76,70
43596,note_on,,,,,36,0,4,,,,,1,,,64,0
43596,note_on,,,,,36,0,3,,,,,1,,,76,0
43619,note_on,,,,,59,0,6,,,,,1,,,54,0
43619,note_on,,,,,59,0,5,,,,,1,,,57,0
43619,note_on,,,,,0,0,2,,,,,0,,,59,0
43619,note_on,,,,,29,0,1,,,,,0,,,76,0
43619,note_on,,,,,30,0,2,,,,,0,,,62,0
43620,note_on,,,,,24,0,3,,,,,1,,,76,90
43620,note_on,,,,,1,0,1,,,,,0,,,68,98
43620,note_on,,,,,1,0,6,,,,,1,,,56,78
43620,note_on,,,,,1,0,5,,,,,1,,,59,68
43620,note_on,,,,,24,0,4,,,,,1,,,64,68
43620,note_on,,,,,1,0,2,,,,,0,,,56,98
43649,note_on,,,,,29,0,2,,,,,0,,,56,0
43649,note_on,,,,,29,0,1,,,,,0,,,68,0
43650,note_on,,,,,1,0,1,,,,,0,,,76,70
43661,note_on,,,,,41,0,4,,,,,1,,,64,0
43674,note_on,,,,,54,0,3,,,,,1,,,76,0
43679,note_on,,,,,29,0,1,,,,,0,,,76,0
43679,note_on,,,,,59,0,6,,,,,1,,,56,0
43679,note_on,,,,,59,0,5,,,,,1,,,59,0
43680,note_on,,,,,19,0,4,,,,,1,,,64,78
43680,note_on,,,,,1,0,1,,,,,0,,,69,88
43680,note_on,,,,,31,0,2,,,,,0,,,57,98
43680,note_on,,,,,0,0,2,,,,,0,,,60,78
43680,note_on,,,,,6,0,3,,,,,1,,,72,78
43680,note_on,,,,,1,0,5,,,,,1,,,60,78
43680,note_on,,,,,1,0,6,,,,,1,,,57,78
43709,note_on,,,,,29,0,1,,,,,0,,,69,0
43709,note_on,,,,,29,0,2,,,,,0,,,57,0
43710,note_on,,,,,1,0,1,,,,,0,,,76,78
43724,note_on,,,,,15,0,2,,,,,0,,,60,0
43737,note_on,,,,,57,0,3,,,,,1,,,72,0
43739,note_on,,,,,29,0,1,,,,,0,,,76,0
43740,note_on,,,,,0,0,2,,,,,0,,,57,98
43740,note_on,,,,,3,0,3,,,,,1,,,69,78
43740,note_on,,,,,1,0,1,,,,,0,,,64,62
43740,note_on,,,,,16,0,2,,,,,0,,,48,88
43769,note_on,,,,,29,0,1,,,,,0,,,64,0
43770,note_on,,,,,1,0,1,,,,,0,,,76,78
43784,note_on,,,,,44,0,2,,,,,0,,,57,0
43784,note_on,,,,,0,0,2,,,,,0,,,48,0
43789,note_on,,,,,49,0,3,,,,,1,,,69,0
43799,note_on,,,,,29,0,1,,,,,0,,,76,0
43799,note_on,,,,,119,0,6,,,,,1,,,57,0
43799,note_on,,,,,119,0,5,,,,,1,,,60,0
43800,note_on,,,,,1,0,1,,,,,0,,,71,78
43800,note_on,,,,,1,0,5,,,,,1,,,59,78
43800,note_on,,,,,16,0,2,,,,,0,,,56,98
43800,note_on,,,,,1,0,6,,,,,1,,,56,90
43800,note_on,,,,,11,0,3,,,,,1,,,76,78
43800,note_on,,,,,0,0,2,,,,,0,,,59,88
43827,note_on,,,,,147,0,4,,,,,1,,,64,0
43829,note_on,,,,,0,0,2,,,,,0,,,56,0
43829,note_on,,,,,29,0,1,,,,,0,,,71,0
43829,note_on,,,,,29,0,2,,,,,0,,,59,0
43830,note_on,,,,,1,0,1,,,,,0,,,76,70
43859,note_on,,,,,29,0,1,,,,,0,,,76,0
43860,note_on,,,,,31,0,2,,,,,0,,,52,88
43860,note_on,,,,,0,0,2,,,,,0,,,64,78
43860,note_on,,,,,33,0,4,,,,,1,,,64,78
43860,note_on,,,,,1,0,1,,,,,0,,,68,88
43889,note_on,,,,,29,0,2,,,,,0,,,64,0
43889,note_on,,,,,0,0,2,,,,,0,,,52,0
43889,note_on,,,,,29,0,1,,,,,0,,,68,0
43890,note_on,,,,,1,0,1,,,,,0,,,76,55
43919,note_on,,,,,119,0,5,,,,,1,,,59,0
43919,note_on,,,,,119,0,6,,,,,1,,,56,0
43919,note_on,,,,,29,0,1,,,,,0,,,76,0
43920,note_on,,,,,31,0,2,,,,,0,,,57,88
43920,note_on,,,,,60,0,4,,,,,1,,,64,0
43920,note_on,,,,,0,0,4,,,,,1,,,65,78
43920,note_on,,,,,0,0,2,,,,,0,,,65,90
43920,note_on,,,,,1,0,1,,,,,0,,,79,70
43920,note_on,,,,,0,0,2,,,,,0,,,64,88
43920,note_on,,,,,1,0,5,,,,,1,,,60,78
43920,note_on,,,,,1,0,6,,,,,1,,,57,90
43940,note_on,,,,,140,0,3,,,,,1,,,76,0
43949,note_on,,,,,29,0,1,,,,,0,,,79,0
43950,note_on,,,,,1,0,1,,,,,0,,,77,70
43953,note_on,,,,,33,0,4,,,,,1,,,65,0
43979,note_on,,,,,29,0,1,,,,,0,,,77,0
43980,note_on,,,,,1,0,1,,,,,0,,,86,88
43980,note_on,,,,,27,0,4,,,,,1,,,65,78
44009,note_on,,,,,89,0,2,,,,,0,,,57,0
44009,note_on,,,,,29,0,1,,,,,0,,,86,0
44010,note_on,,,,,1,0,1,,,,,0,,,84,70
44014,note_on,,,,,34,0,4,,,,,1,,,65,0
44024,note_on,,,,,15,0,2,,,,,0,,,64,0
44039,note_on,,,,,119,0,6,,,,,1,,,57,0
44039,note_on,,,,,119,0,5,,,,,1,,,60,0
44039,note_on,,,,,29,0,1,,,,,0,,,84,0
44040,note_on,,,,,1,0,1,,,,,0,,,83,78
44040,note_on,,,,,100,0,3,,,,,1,,,76,78
44040,note_on,,,,,0,0,2,,,,,0,,,62,88
44040,note_on,,,,,16,0,2,,,,,0,,,59,88
44040,note_on,,,,,26,0,4,,,,,1,,,65,90
44069,note_on,,,,,29,0,1,,,,,0,,,83,0
44070,note_on,,,,,1,0,1,,,,,0,,,81,62
44099,note_on,,,,,29,0,1,,,,,0,,,81,0
44100,note_on,,,,,1,0,1,,,,,0,,,79,62
44114,note_on,,,,,74,0,2,,,,,0,,,62,0
44114,note_on,,,,,0,0,2,,,,,0,,,59,0
44129,note_on,,,,,29,0,1,,,,,0,,,79,0
44130,note_on,,,,,1,0,1,,,,,0,,,77,70
44144,note_on,,,,,14,0,1,,,,,0,,,77,0
44145,note_on,,,,,105,0,4,,,,,1,,,65,0
44147,note_on,,,,,107,0,3,,,,,1,,,76,0
44159,note_on,,,,,45,0,2,,,,,0,,,65,0
44160,note_on,,,,,13,0,3,,,,,1,,,67,78
44160,note_on,,,,,16,0,1,,,,,0,,,77,78
44160,note_on,,,,,121,0,6,,,,,1,,,60,90
44160,note_on,,,,,0,0,2,,,,,0,,,55,88
44160,note_on,,,,,0,0,2,,,,,0,,,62,98
44160,note_on,,,,,1,0,2,,,,,0,,,48,88
44189,note_on,,,,,29,0,1,,,,,0,,,77,0
44190,note_on,,,,,1,0,1,,,,,0,,,76,70
44219,note_on,,,,,29,0,1,,,,,0,,,76,0
44220,note_on,,,,,75,0,4,,,,,1,,,64,78
44220,note_on,,,,,1,0,1,,,,,0,,,84,98
44234,note_on,,,,,14,0,1,,,,,0,,,84,0
44250,note_on,,,,,16,0,1,,,,,0,,,83,88
44253,note_on,,,,,33,0,4,,,,,1,,,64,0
44279,note_on,,,,,119,0,2,,,,,0,,,55,0
44279,note_on,,,,,119,0,6,,,,,1,,,60,0
44279,note_on,,,,,29,0,1,,,,,0,,,83,0
44279,note_on,,,,,0,0,2,,,,,0,,,48,0
44279,note_on,,,,,0,0,2,,,,,0,,,62,0
44280,note_on,,,,,27,0,4,,,,,1,,,64,78
44280,note_on,,,,,1,0,2,,,,,0,,,60,88
44280,note_on,,,,,1,0,1,,,,,0,,,81,70
44280,note_on,,,,,241,0,5,,,,,1,,,52,90
44280,note_on,,,,,120,0,3,,,,,1,,,67,0
44309,note_on,,,,,29,0,1,,,,,0,,,81,0
44310,note_on,,,,,30,0,4,,,,,1,,,64,0
44310,note_on,,,,,1,0,1,,,,,0,,,79,70
44339,note_on,,,,,29,0,1,,,,,0,,,79,0
44340,note_on,,,,,1,0,1,,,,,0,,,77,62
44340,note_on,,,,,30,0,4,,,,,1,,,64,78
44340,note_on,,,,,60,0,3,,,,,1,,,72,78
44340,note_on,,,,,60,0,2,,,,,0,,,52,88
44354,note_on,,,,,14,0,2,,,,,0,,,60,0
44369,note_on,,,,,15,0,2,,,,,0,,,52,0
44369,note_on,,,,,29,0,1,,,,,0,,,77,0
44370,note_on,,,,,1,0,1,,,,,0,,,76,70
44380,note_on,,,,,40,0,3,,,,,1,,,72,0
44384,note_on,,,,,14,0,1,,,,,0,,,76,0
44387,note_on,,,,,47,0,4,,,,,1,,,64,0
44399,note_on,,,,,119,0,5,,,,,1,,,52,0
44400,note_on,,,,,20,0,3,,,,,1,,,72,78
44400,note_on,,,,,31,0,2,,,,,0,,,54,110
44400,note_on,,,,,0,0,2,,,,,0,,,62,88
44400,note_on,,,,,0,0,2,,,,,0,,,60,88
44400,note_on,,,,,13,0,4,,,,,1,,,62,78
44400,note_on,,,,,1,0,5,,,,,1,,,57,78
44400,note_on,,,,,16,0,1,,,,,0,,,76,78
44429,note_on,,,,,29,0,5,,,,,1,,,57,0
44429,note_on,,,,,29,0,1,,,,,0,,,76,0
44430,note_on,,,,,1,0,1,,,,,0,,,74,70
44440,note_on,,,,,40,0,3,,,,,1,,,72,0
44444,note_on,,,,,14,0,1,,,,,0,,,74,0
44460,note_on,,,,,31,0,5,,,,,1,,,57,68
44460,note_on,,,,,20,0,3,,,,,1,,,72,78
44460,note_on,,,,,16,0,1,,,,,0,,,83,88
44489,note_on,,,,,29,0,1,,,,,0,,,83,0
44489,note_on,,,,,89,0,2,,,,,0,,,62,0
44490,note_on,,,,,1,0,1,,,,,0,,,81,70
44504,note_on,,,,,0,0,2,,,,,0,,,54,0
44504,note_on,,,,,15,0,2,,,,,0,,,60,0
44509,note_on,,,,,49,0,3,,,,,1,,,72,0
44519,note_on,,,,,29,0,1,,,,,0,,,81,0
44519,note_on,,,,,59,0,5,,,,,1,,,57,0
44520,note_on,,,,,241,0,6,,,,,1,,,56,90
44520,note_on,,,,,11,0,3,,,,,1,,,71,90
44520,note_on,,,,,1,0,1,,,,,0,,,80,88
44520,note_on,,,,,1,0,5,,,,,1,,,64,78
44520,note_on,,,,,16,0,2,,,,,0,,,56,98
44520,note_on,,,,,0,0,2,,,,,0,,,64,88
44520,note_on,,,,,0,0,2,,,,,0,,,59,88
44549,note_on,,,,,29,0,1,,,,,0,,,80,0
44550,note_on,,,,,1,0,1,,,,,0,,,78,88
44564,note_on,,,,,14,0,1,,,,,0,,,78,0
44580,note_on,,,,,16,0,1,,,,,0,,,76,88
44609,note_on,,,,,29,0,1,,,,,0,,,76,0
44609,note_on,,,,,0,0,2,,,,,0,,,56,0
44609,note_on,,,,,0,0,2,,,,,0,,,64,0
44609,note_on,,,,,89,0,2,,,,,0,,,59,0
44610,note_on,,,,,1,0,1,,,,,0,,,74,78
44624,note_on,,,,,14,0,1,,,,,0,,,74,0
44632,note_on,,,,,112,0,3,,,,,1,,,71,0
44635,note_on,,,,,235,0,4,,,,,1,,,62,0
44639,note_on,,,,,119,0,6,,,,,1,,,56,0
44640,note_on,,,,,1,0,6,,,,,1,,,57,78
44640,note_on,,,,,16,0,1,,,,,0,,,72,78
44640,note_on,,,,,0,0,2,,,,,0,,,60,88
44640,note_on,,,,,0,0,2,,,,,0,,,64,88
44640,note_on,,,,,31,0,2,,,,,0,,,57,88
44640,note_on,,,,,8,0,3,,,,,1,,,69,90
44640,note_on,,,,,5,0,4,,,,,1,,,60,68
44669,note_on,,,,,29,0,1,,,,,0,,,72,0
44669,note_on,,,,,29,0,6,,,,,1,,,57,0
44670,note_on,,,,,1,0,1,,,,,0,,,76,70
44672,note_on,,,,,32,0,4,,,,,1,,,60,0
44675,note_on,,,,,35,0,3,,,,,1,,,69,0
44699,note_on,,,,,29,0,1,,,,,0,,,76,0
44700,note_on,,,,,1,0,1,,,,,0,,,81,78
44700,note_on,,,,,28,0,4,,,,,1,,,60,78
44700,note_on,,,,,25,0,3,,,,,1,,,69,78
44700,note_on,,,,,31,0,6,,,,,1,,,57,90
44714,note_on,,,,,74,0,2,,,,,0,,,60,0
44729,note_on,,,,,15,0,2,,,,,0,,,64,0
44729,note_on,,,,,29,0,1,,,,,0,,,81,0
44729,note_on,,,,,0,0,2,,,,,0,,,57,0
44730,note_on,,,,,1,0,1,,,,,0,,,76,70
44751,note_on,,,,,51,0,3,,,,,1,,,69,0
44759,note_on,,,,,59,0,6,,,,,1,,,57,0
44759,note_on,,,,,239,0,5,,,,,1,,,64,0
44759,note_on,,,,,29,0,1,,,,,0,,,76,0
44760,note_on,,,,,60,0,4,,,,,1,,,60,0
44760,note_on,,,,,0,0,4,,,,,1,,,65,90
44760,note_on,,,,,1,0,1,,,,,0,,,77,70
44760,note_on,,,,,1,0,5,,,,,1,,,62,78
44760,note_on,,,,,31,0,2,,,,,0,,,59,98
44760,note_on,,,,,0,0,2,,,,,0,,,53,98
44760,note_on,,,,,0,0,2,,,,,0,,,50,88
44760,note_on,,,,,1,0,6,,,,,1,,,50,78
44760,note_on,,,,,9,0,3,,,,,1,,,71,78
44789,note_on,,,,,29,0,1,,,,,0,,,77,0
44789,note_on,,,,,29,0,6,,,,,1,,,50,0
44790,note_on,,,,,1,0,1,,,,,0,,,74,70
44794,note_on,,,,,34,0,4,,,,,1,,,65,0
44798,note_on,,,,,38,0,3,,,,,1,,,71,0
44819,note_on,,,,,29,0,1,,,,,0,,,74,0
44820,note_on,,,,,31,0,6,,,,,1,,,50,78
44820,note_on,,,,,26,0,4,,,,,1,,,65,90
44820,note_on,,,,,1,0,1,,,,,0,,,72,62
44820,note_on,,,,,22,0,3,,,,,1,,,71,90
44849,note_on,,,,,29,0,1,,,,,0,,,72,0
44849,note_on,,,,,29,0,6,,,,,1,,,50,0
44849,note_on,,,,,89,0,2,,,,,0,,,50,0
44849,note_on,,,,,0,0,2,,,,,0,,,53,0
44849,note_on,,,,,0,0,2,,,,,0,,,59,0
44850,note_on,,,,,1,0,1,,,,,0,,,71,78
44873,note_on,,,,,53,0,4,,,,,1,,,65,0
44878,note_on,,,,,58,0,3,,,,,1,,,71,0
44879,note_on,,,,,29,0,1,,,,,0,,,71,0
44879,note_on,,,,,119,0,5,,,,,1,,,62,0
44880,note_on,,,,,0,0,2,,,,,0,,,57,98
44880,note_on,,,,,0,0,2,,,,,0,,,60,78
44880,note_on,,,,,31,0,6,,,,,1,,,52,78
44880,note_on,,,,,1,0,1,,,,,0,,,76,78
44880,note_on,,,,,2,0,3,,,,,1,,,69,90
44880,note_on,,,,,1,0,5,,,,,1,,,60,78
44880,note_on,,,,,7,0,4,,,,,1,,,64,78
44880,note_on,,,,,31,0,2,,,,,0,,,52,88
44909,note_on,,,,,29,0,1,,,,,0,,,76,0
44910,note_on,,,,,1,0,1,,,,,0,,,72,62
44939,note_on,,,,,29,0,1,,,,,0,,,72,0
44940,note_on,,,,,1,0,1,,,,,0,,,71,70
44969,note_on,,,,,89,0,2,,,,,0,,,60,0
44969,note_on,,,,,0,0,2,,,,,0,,,57,0
44969,note_on,,,,,0,0,2,,,,,0,,,52,0
44969,note_on,,,,,29,0,1,,,,,0,,,71,0
44970,note_on,,,,,1,0,1,,,,,0,,,69,70
44996,note_on,,,,,116,0,3,,,,,1,,,69,0
44999,note_on,,,,,119,0,5,,,,,1,,,60,0
44999,note_on,,,,,29,0,1,,,,,0,,,69,0
45000,note_on,,,,,0,0,2,,,,,0,,,59,88
45000,note_on,,,,,4,0,3,,,,,1,,,68,90
45000,note_on,,,,,0,0,2,,,,,0,,,52,88
45000,note_on,,,,,31,0,2,,,,,0,,,56,98
45000,note_on,,,,,1,0,5,,,,,1,,,59,90
45000,note_on,,,,,1,0,1,,,,,0,,,74,78
45029,note_on,,,,,29,0,1,,,,,0,,,74,0
45030,note_on,,,,,1,0,1,,,,,0,,,71,70
45044,note_on,,,,,44,0,2,,,,,0,,,52,0
45059,note_on,,,,,15,0,2,,,,,0,,,56,0
45059,note_on,,,,,29,0,1,,,,,0,,,71,0
45060,note_on,,,,,1,0,1,,,,,0,,,69,55
45060,note_on,,,,,1,0,2,,,,,0,,,52,78
45074,note_on,,,,,14,0,2,,,,,0,,,59,0
45089,note_on,,,,,29,0,1,,,,,0,,,69,0
45090,note_on,,,,,1,0,1,,,,,0,,,68,70
45094,note_on,,,,,214,0,4,,,,,1,,,64,0
45104,note_on,,,,,30,0,2,,,,,0,,,52,0
45104,note_on,,,,,14,0,1,,,,,0,,,68,0
45114,note_on,,,,,114,0,3,,,,,1,,,68,0
45119,note_on,,,,,119,0,5,,,,,1,,,59,0
45119,note_on,,,,,239,0,6,,,,,1,,,52,0
45120,note_on,,,,,16,0,2,,,,,0,,,45,98
45120,note_on,,,,,0,0,2,,,,,0,,,57,98
45120,note_on,,,,,0,0,2,,,,,0,,,52,88
45120,note_on,,,,,16,0,1,,,,,0,,,60,88
45120,note_on,,,,,0,0,1,,,,,0,,,69,88
45120,note_on,,,,,1,0,5,,,,,1,,,57,78
45120,note_on,,,,,1,0,6,,,,,1,,,45,90
45120,note_on,,,,,26,0,4,,,,,1,,,64,90
45120,note_on,,,,,6,0,3,,,,,1,,,69,90
45149,note_on,,,,,29,0,2,,,,,0,,,57,0
45164,note_on,,,,,0,0,1,,,,,0,,,60,0
45164,note_on,,,,,0,0,2,,,,,0,,,45,0
45164,note_on,,,,,15,0,2,,,,,0,,,52,0
45164,note_on,,,,,44,0,1,,,,,0,,,69,0
45180,note_on,,,,,0,0,1,,,,,0,,,72,88
45180,note_on,,,,,0,0,1,,,,,0,,,60,78
45180,note_on,,,,,16,0,2,,,,,0,,,57,78
45180,note_on,,,,,16,0,1,,,,,0,,,64,88
45194,note_on,,,,,14,0,1,,,,,0,,,60,0
45194,note_on,,,,,0,0,1,,,,,0,,,72,0
45194,note_on,,,,,0,0,1,,,,,0,,,64,0
45210,note_on,,,,,16,0,1,,,,,0,,,64,78
45210,note_on,,,,,0,0,1,,,,,0,,,72,70
45210,note_on,,,,,0,0,1,,,,,0,,,60,78
45224,note_on,,,,,44,0,2,,,,,0,,,57,0
45224,note_on,,,,,14,0,1,,,,,0,,,60,0
45224,note_on,,,,,0,0,1,,,,,0,,,72,0
45224,note_on,,,,,0,0,1,,,,,0,,,64,0
45227,note_on,,,,,107,0,3,,,,,1,,,69,0
45238,note_on,,,,,118,0,4,,,,,1,,,64,0
45239,note_on,,,,,119,0,6,,,,,1,,,45,0
45239,note_on,,,,,119,0,5,,,,,1,,,57,0
45240,note_on,,,,,0,0,1,,,,,0,,,60,78
45240,note_on,,,,,0,0,1,,,,,0,,,72,88
45240,note_on,,,,,16,0,1,,,,,0,,,64,88
45240,note_on,,,,,16,0,2,,,,,0,,,57,88
45284,note_on,,,,,0,0,1,,,,,0,,,64,0
45284,note_on,,,,,0,0,1,,,,,0,,,72,0
45284,note_on,,,,,44,0,2,,,,,0,,,57,0
45284,note_on,,,,,44,0,1,,,,,0,,,60,0
45300,note_on,,,,,0,0,1,,,,,0,,,60,78
45300,note_on,,,,,16,0,1,,,,,0,,,64,88
45300,note_on,,,,,0,0,1,,,,,0,,,72,78
45300,note_on,,,,,16,0,2,,,,,0,,,57,88
45329,note_on,,,,,0,0,1,,,,,0,,,64,0
45329,note_on,,,,,0,0,1,,,,,0,,,72,0
45329,note_on,,,,,29,0,1,,,,,0,,,60,0
45359,note_on,,,,,59,0,2,,,,,0,,,57,0
45360,note_on,,,,,0,0,1,,,,,0,,,64,78
45360,note_on,,,,,31,0,1,,,,,0,,,72,98
45360,note_on,,,,,1,0,2,,,,,0,,,55,78
45360,note_on,,,,,0,0,1,,,,,0,,,67,98
45389,note_on,,,,,29,0,1,,,,,0,,,64,0
45389,note_on,,,,,0,0,1,,,,,0,,,72,0
45389,note_on,,,,,0,0,1,,,,,0,,,67,0
45404,note_on,,,,,44,0,2,,,,,0,,,55,0
45420,note_on,,,,,0,0,1,,,,,0,,,76,88
45420,note_on,,,,,16,0,2,,,,,0,,,43,88
45420,note_on,,,,,0,0,1,,,,,0,,,72,78
45420,note_on,,,,,31,0,1,,,,,0,,,82,98
45420,note_on,,,,,0,0,2,,,,,0,,,55,88
45434,note_on,,,,,14,0,1,,,,,0,,,76,0
45434,note_on,,,,,0,0,1,,,,,0,,,82,0
45434,note_on,,,,,0,0,1,,,,,0,,,72,0
45450,note_on,,,,,0,0,1,,,,,0,,,72,70
45450,note_on,,,,,16,0,1,,,,,0,,,82,98
45450,note_on,,,,,0,0,1,,,,,0,,,76,70
45464,note_on,,,,,14,0,1,,,,,0,,,76,0
45464,note_on,,,,,0,0,1,,,,,0,,,82,0
45464,note_on,,,,,44,0,2,,,,,0,,,55,0
45464,note_on,,,,,0,0,2,,,,,0,,,43,0
45464,note_on,,,,,0,0,1,,,,,0,,,72,0
45480,note_on,,,,,0,0,2,,,,,0,,,55,78
45480,note_on,,,,,0,0,1,,,,,0,,,76,78
45480,note_on,,,,,16,0,1,,,,,0,,,82,98
45480,note_on,,,,,16,0,2,,,,,0,,,43,78
45480,note_on,,,,,0,0,1,,,,,0,,,72,78
45509,note_on,,,,,29,0,1,,,,,0,,,76,0
45509,note_on,,,,,0,0,1,,,,,0,,,82,0
45509,note_on,,,,,0,0,1,,,,,0,,,72,0
45524,note_on,,,,,0,0,2,,,,,0,,,43,0
45524,note_on,,,,,44,0,2,,,,,0,,,55,0
45540,note_on,,,,,0,0,2,,,,,0,,,55,78
45540,note_on,,,,,16,0,2,,,,,0,,,43,78
45540,note_on,,,,,0,0,1,,,,,0,,,72,70
45540,note_on,,,,,31,0,1,,,,,0,,,82,98
45540,note_on,,,,,0,0,1,,,,,0,,,76,78
45569,note_on,,,,,29,0,1,,,,,0,,,72,0
45569,note_on,,,,,0,0,1,,,,,0,,,82,0
45569,note_on,,,,,0,0,1,,,,,0,,,76,0
45584,note_on,,,,,44,0,2,,,,,0,,,55,0
45584,note_on,,,,,0,0,2,,,,,0,,,43,0
45600,note_on,,,,,0,0,2,,,,,0,,,53,88
45600,note_on,,,,,16,0,2,,,,,0,,,41,78
45600,note_on,,,,,0,0,1,,,,,0,,,72,78
45600,note_on,,,,,0,0,1,,,,,0,,,77,88
45600,note_on,,,,,31,0,1,,,,,0,,,81,78
45602,note_on,,,,,15060,0,7,,,,,2,,,77,110
45704,note_on,,,,,104,0,2,,,,,0,,,53,0
45704,note_on,,,,,0,0,2,,,,,0,,,41,0
45719,note_on,,,,,0,0,1,,,,,0,,,81,0
45719,note_on,,,,,119,0,1,,,,,0,,,77,0
45719,note_on,,,,,0,0,1,,,,,0,,,72,0
45844,note_on,,,,,242,0,7,,,,,2,,,72,88
45847,note_on,,,,,3,0,7,,,,,2,,,77,0
46080,note_on,,,,,361,0,1,,,,,0,,,79,62
46080,note_on,,,,,376,0,2,,,,,0,,,41,39
46080,note_on,,,,,233,0,7,,,,,2,,,69,78
46083,note_on,,,,,3,0,7,,,,,2,,,72,0
46109,note_on,,,,,29,0,1,,,,,0,,,79,0
46110,note_on,,,,,1,0,1,,,,,0,,,77,49
46139,note_on,,,,,29,0,1,,,,,0,,,77,0
46139,note_on,,,,,59,0,2,,,,,0,,,41,0
46140,note_on,,,,,1,0,1,,,,,0,,,76,78
46140,note_on,,,,,1,0,2,,,,,0,,,53,55
46154,note_on,,,,,14,0,1,,,,,0,,,76,0
46170,note_on,,,,,87,0,7,,,,,2,,,70,78
46170,note_on,,,,,16,0,1,,,,,0,,,77,70
46177,note_on,,,,,7,0,7,,,,,2,,,69,0
46184,note_on,,,,,44,0,2,,,,,0,,,53,0
46198,note_on,,,,,21,0,7,,,,,2,,,70,0
46198,note_on,,,,,0,0,7,,,,,2,,,72,78
46199,note_on,,,,,29,0,1,,,,,0,,,77,0
46200,note_on,,,,,1,0,1,,,,,0,,,74,62
46200,note_on,,,,,16,0,2,,,,,0,,,53,39
46229,note_on,,,,,29,0,2,,,,,0,,,53,0
46229,note_on,,,,,29,0,1,,,,,0,,,74,0
46230,note_on,,,,,1,0,1,,,,,0,,,72,49
46244,note_on,,,,,14,0,1,,,,,0,,,72,0
46260,note_on,,,,,16,0,1,,,,,0,,,71,78
46260,note_on,,,,,31,0,2,,,,,0,,,53,39
46274,note_on,,,,,14,0,1,,,,,0,,,71,0
46290,note_on,,,,,16,0,1,,,,,0,,,72,55
46304,note_on,,,,,14,0,1,,,,,0,,,72,0
46319,note_on,,,,,59,0,2,,,,,0,,,53,0
46320,note_on,,,,,16,0,1,,,,,0,,,70,88
46320,note_on,,,,,1,0,2,,,,,0,,,41,35
46333,note_on,,,,,135,0,7,,,,,2,,,72,0
46349,note_on,,,,,29,0,1,,,,,0,,,70,0
46350,note_on,,,,,1,0,1,,,,,0,,,69,70
46379,note_on,,,,,59,0,2,,,,,0,,,41,0
46379,note_on,,,,,29,0,1,,,,,0,,,69,0
46380,note_on,,,,,1,0,2,,,,,0,,,53,39
46380,note_on,,,,,1,0,1,,,,,0,,,68,88
46394,note_on,,,,,14,0,1,,,,,0,,,68,0
46410,note_on,,,,,16,0,1,,,,,0,,,69,78
46424,note_on,,,,,44,0,2,,,,,0,,,53,0
46439,note_on,,,,,106,0,7,,,,,2,,,72,70
46439,note_on,,,,,29,0,1,,,,,0,,,69,0
46440,note_on,,,,,1,0,1,,,,,0,,,67,70
46440,note_on,,,,,16,0,2,,,,,0,,,53,44
46469,note_on,,,,,29,0,1,,,,,0,,,67,0
46469,note_on,,,,,29,0,2,,,,,0,,,53,0
46470,note_on,,,,,1,0,1,,,,,0,,,65,62
46495,note_on,,,,,56,0,7,,,,,2,,,77,88
46499,note_on,,,,,29,0,1,,,,,0,,,65,0
46500,note_on,,,,,31,0,2,,,,,0,,,53,55
46500,note_on,,,,,5,0,7,,,,,2,,,72,0
46500,note_on,,,,,1,0,1,,,,,0,,,64,70
46514,note_on,,,,,14,0,1,,,,,0,,,64,0
46530,note_on,,,,,16,0,1,,,,,0,,,65,78
46544,note_on,,,,,44,0,7,,,,,2,,,77,0
46544,note_on,,,,,14,0,1,,,,,0,,,65,0
46559,note_on,,,,,59,0,2,,,,,0,,,53,0
46560,note_on,,,,,0,0,2,,,,,0,,,36,39
46560,note_on,,,,,1,0,2,,,,,0,,,43,39
46560,note_on,,,,,16,0,1,,,,,0,,,84,70
46566,note_on,,,,,22,0,7,,,,,2,,,77,98
46589,note_on,,,,,29,0,1,,,,,0,,,84,0
46590,note_on,,,,,1,0,1,,,,,0,,,82,70
46604,note_on,,,,,44,0,2,,,,,0,,,36,0
46619,note_on,,,,,29,0,1,,,,,0,,,82,0
46620,note_on,,,,,1,0,1,,,,,0,,,81,62
46620,note_on,,,,,16,0,2,,,,,0,,,48,55
46649,note_on,,,,,29,0,1,,,,,0,,,81,0
46649,note_on,,,,,29,0,2,,,,,0,,,48,0
46650,note_on,,,,,1,0,1,,,,,0,,,82,78
46664,note_on,,,,,14,0,1,,,,,0,,,82,0
46680,note_on,,,,,16,0,1,,,,,0,,,81,70
46680,note_on,,,,,31,0,2,,,,,0,,,48,49
46683,note_on,,,,,117,0,7,,,,,2,,,76,88
46688,note_on,,,,,5,0,7,,,,,2,,,77,0
46709,note_on,,,,,29,0,1,,,,,0,,,81,0
46709,note_on,,,,,29,0,2,,,,,0,,,48,0
46710,note_on,,,,,1,0,1,,,,,0,,,79,62
46739,note_on,,,,,29,0,1,,,,,0,,,79,0
46739,note_on,,,,,51,0,7,,,,,2,,,74,88
46740,note_on,,,,,1,0,1,,,,,0,,,78,78
46740,note_on,,,,,31,0,2,,,,,0,,,48,44
46742,note_on,,,,,3,0,7,,,,,2,,,76,0
46754,note_on,,,,,14,0,1,,,,,0,,,78,0
46768,note_on,,,,,26,0,7,,,,,2,,,74,0
46770,note_on,,,,,16,0,1,,,,,0,,,79,70
46784,note_on,,,,,14,0,1,,,,,0,,,79,0
46784,note_on,,,,,44,0,2,,,,,0,,,48,0
46784,note_on,,,,,0,0,2,,,,,0,,,43,0
46798,note_on,,,,,30,0,7,,,,,2,,,74,98
46800,note_on,,,,,16,0,2,,,,,0,,,36,70
46800,note_on,,,,,16,0,1,,,,,0,,,77,62
46829,note_on,,,,,29,0,1,,,,,0,,,77,0
46830,note_on,,,,,1,0,1,,,,,0,,,76,44
46859,note_on,,,,,29,0,1,,,,,0,,,76,0
46859,note_on,,,,,59,0,2,,,,,0,,,36,0
46860,note_on,,,,,1,0,2,,,,,0,,,48,49
46860,note_on,,,,,1,0,1,,,,,0,,,75,78
46874,note_on,,,,,14,0,1,,,,,0,,,75,0
46890,note_on,,,,,16,0,1,,,,,0,,,76,55
46904,note_on,,,,,44,0,2,,,,,0,,,48,0
46904,note_on,,,,,14,0,1,,,,,0,,,76,0
46920,note_on,,,,,16,0,2,,,,,0,,,48,49
46920,note_on,,,,,0,0,2,,,,,0,,,52,49
46920,note_on,,,,,16,0,1,,,,,0,,,74,62
46923,note_on,,,,,125,0,7,,,,,2,,,72,88
46929,note_on,,,,,6,0,7,,,,,2,,,74,0
46949,note_on,,,,,29,0,1,,,,,0,,,74,0
46949,note_on,,,,,29,0,2,,,,,0,,,48,0
46950,note_on,,,,,1,0,1,,,,,0,,,72,62
46964,note_on,,,,,15,0,2,,,,,0,,,52,0
46979,note_on,,,,,29,0,1,,,,,0,,,72,0
46980,note_on,,,,,1,0,1,,,,,0,,,71,70
46980,note_on,,,,,51,0,7,,,,,2,,,70,88
46980,note_on,,,,,16,0,2,,,,,0,,,48,39
46982,note_on,,,,,2,0,7,,,,,2,,,72,0
46994,note_on,,,,,14,0,1,,,,,0,,,71,0
47010,note_on,,,,,16,0,1,,,,,0,,,72,70
47024,note_on,,,,,44,0,2,,,,,0,,,48,0
47024,note_on,,,,,14,0,1,,,,,0,,,72,0
47040,note_on,,,,,58,0,7,,,,,2,,,70,0
47040,note_on,,,,,16,0,2,,,,,0,,,41,49
47040,note_on,,,,,16,0,1,,,,,0,,,86,62
47040,note_on,,,,,0,0,2,,,,,0,,,48,55
47042,note_on,,,,,2,0,7,,,,,2,,,69,88
47069,note_on,,,,,29,0,1,,,,,0,,,86,0
47070,note_on,,,,,1,0,1,,,,,0,,,84,62
47099,note_on,,,,,29,0,1,,,,,0,,,84,0
47099,note_on,,,,,59,0,2,,,,,0,,,41,0
47100,note_on,,,,,1,0,1,,,,,0,,,83,62
47100,note_on,,,,,1,0,2,,,,,0,,,53,55
47129,note_on,,,,,29,0,1,,,,,0,,,83,0
47129,note_on,,,,,29,0,2,,,,,0,,,53,0
47130,note_on,,,,,1,0,1,,,,,0,,,84,70
47130,note_on,,,,,88,0,7,,,,,2,,,70,88
47136,note_on,,,,,6,0,7,,,,,2,,,69,0
47144,note_on,,,,,14,0,1,,,,,0,,,84,0
47151,note_on,,,,,15,0,7,,,,,2,,,70,0
47156,note_on,,,,,5,0,7,,,,,2,,,72,88
47160,note_on,,,,,31,0,2,,,,,0,,,53,22
47160,note_on,,,,,16,0,1,,,,,0,,,82,70
47189,note_on,,,,,29,0,2,,,,,0,,,53,0
47189,note_on,,,,,29,0,1,,,,,0,,,82,0
47190,note_on,,,,,1,0,1,,,,,0,,,81,62
47204,note_on,,,,,14,0,1,,,,,0,,,81,0
47220,note_on,,,,,16,0,1,,,,,0,,,80,88
47220,note_on,,,,,31,0,2,,,,,0,,,53,44
47234,note_on,,,,,14,0,1,,,,,0,,,80,0
47249,note_on,,,,,29,0,2,,,,,0,,,53,0
47250,note_on,,,,,16,0,1,,,,,0,,,81,62
47264,note_on,,,,,14,0,1,,,,,0,,,81,0
47264,note_on,,,,,15,0,2,,,,,0,,,48,0
47270,note_on,,,,,114,0,7,,,,,2,,,72,0
47277,note_on,,,,,16694,0,8,,,,,2,,,60,78
47280,note_on,,,,,16,0,1,,,,,0,,,79,70
47280,note_on,,,,,16,0,2,,,,,0,,,41,44
47280,note_on,,,,,0,0,2,,,,,0,,,48,49
47309,note_on,,,,,29,0,1,,,,,0,,,79,0
47310,note_on,,,,,1,0,1,,,,,0,,,77,62
47339,note_on,,,,,59,0,2,,,,,0,,,41,0
47339,note_on,,,,,29,0,1,,,,,0,,,77,0
47340,note_on,,,,,1,0,2,,,,,0,,,53,49
47340,note_on,,,,,1,0,1,,,,,0,,,76,70
47354,note_on,,,,,14,0,1,,,,,0,,,76,0
47369,note_on,,,,,29,0,2,,,,,0,,,53,0
47370,note_on,,,,,16,0,1,,,,,0,,,77,70
47384,note_on,,,,,14,0,1,,,,,0,,,77,0
47399,note_on,,,,,16846,0,9,,,,,2,,,57,98
47400,note_on,,,,,31,0,2,,,,,0,,,53,49
47400,note_on,,,,,16,0,1,,,,,0,,,74,70
47429,note_on,,,,,29,0,2,,,,,0,,,53,0
47429,note_on,,,,,29,0,1,,,,,0,,,74,0
47430,note_on,,,,,1,0,1,,,,,0,,,72,55
47458,note_on,,,,,181,0,8,,,,,2,,,65,110
47459,note_on,,,,,60,0,9,,,,,2,,,57,0
47459,note_on,,,,,1,0,8,,,,,2,,,60,0
47459,note_on,,,,,0,0,9,,,,,2,,,53,98
47459,note_on,,,,,29,0,1,,,,,0,,,72,0
47460,note_on,,,,,31,0,2,,,,,0,,,53,49
47460,note_on,,,,,1,0,1,,,,,0,,,71,78
47474,note_on,,,,,14,0,1,,,,,0,,,71,0
47489,note_on,,,,,29,0,2,,,,,0,,,53,0
47489,note_on,,,,,0,0,2,,,,,0,,,48,0
47490,note_on,,,,,16,0,1,,,,,0,,,72,62
47496,note_on,,,,,37,0,8,,,,,2,,,65,0
47504,note_on,,,,,14,0,1,,,,,0,,,72,0
47520,note_on,,,,,31,0,2,,,,,0,,,46,62
47520,note_on,,,,,16,0,1,,,,,0,,,76,78
47520,note_on,,,,,0,0,2,,,,,0,,,53,62
47522,note_on,,,,,26,0,8,,,,,2,,,65,110
47524,note_on,,,,,254,0,7,,,,,2,,,74,98
47525,note_on,,,,,66,0,9,,,,,2,,,58,110
47527,note_on,,,,,2,0,9,,,,,2,,,53,0
47549,note_on,,,,,29,0,1,,,,,0,,,76,0
47550,note_on,,,,,1,0,1,,,,,0,,,74,70
47579,note_on,,,,,29,0,1,,,,,0,,,74,0
47580,note_on,,,,,1,0,1,,,,,0,,,73,88
47594,note_on,,,,,14,0,1,,,,,0,,,73,0
47610,note_on,,,,,16,0,1,,,,,0,,,74,70
47624,note_on,,,,,14,0,1,,,,,0,,,74,0
47635,note_on,,,,,108,0,9,,,,,2,,,58,0
47639,note_on,,,,,4,0,9,,,,,2,,,57,98
47639,note_on,,,,,119,0,2,,,,,0,,,46,0
47640,note_on,,,,,1,0,2,,,,,0,,,45,62
47640,note_on,,,,,16,0,1,,,,,0,,,74,70
47643,note_on,,,,,119,0,7,,,,,2,,,72,98
47649,note_on,,,,,6,0,7,,,,,2,,,74,0
47669,note_on,,,,,29,0,1,,,,,0,,,74,0
47670,note_on,,,,,1,0,1,,,,,0,,,72,70
47699,note_on,,,,,29,0,1,,,,,0,,,72,0
47700,note_on,,,,,1,0,1,,,,,0,,,71,70
47714,note_on,,,,,14,0,1,,,,,0,,,71,0
47730,note_on,,,,,16,0,1,,,,,0,,,72,70
47744,note_on,,,,,14,0,1,,,,,0,,,72,0
47744,note_on,,,,,104,0,2,,,,,0,,,45,0
47759,note_on,,,,,15,0,2,,,,,0,,,53,0
47760,note_on,,,,,0,0,2,,,,,0,,,43,35
47760,note_on,,,,,1,0,2,,,,,0,,,52,49
47760,note_on,,,,,238,0,8,,,,,2,,,65,0
47760,note_on,,,,,0,0,2,,,,,0,,,48,39
47760,note_on,,,,,16,0,1,,,,,0,,,84,78
47761,note_on,,,,,1,0,8,,,,,2,,,64,98
47762,note_on,,,,,123,0,9,,,,,2,,,55,98
47763,note_on,,,,,114,0,7,,,,,2,,,70,110
47764,note_on,,,,,2,0,9,,,,,2,,,57,0
47769,note_on,,,,,6,0,7,,,,,2,,,72,0
47789,note_on,,,,,29,0,1,,,,,0,,,84,0
47790,note_on,,,,,1,0,1,,,,,0,,,82,62
47819,note_on,,,,,29,0,1,,,,,0,,,82,0
47820,note_on,,,,,1,0,1,,,,,0,,,81,70
47834,note_on,,,,,74,0,2,,,,,0,,,48,0
47834,note_on,,,,,0,0,2,,,,,0,,,52,0
47849,note_on,,,,,29,0,1,,,,,0,,,81,0
47849,note_on,,,,,15,0,2,,,,,0,,,43,0
47850,note_on,,,,,1,0,1,,,,,0,,,82,98
47864,note_on,,,,,14,0,1,,,,,0,,,82,0
47874,note_on,,,,,110,0,9,,,,,2,,,55,0
47876,note_on,,,,,107,0,7,,,,,2,,,70,0
47877,note_on,,,,,1,0,7,,,,,2,,,69,98
47879,note_on,,,,,5,0,9,,,,,2,,,53,98
47880,note_on,,,,,31,0,2,,,,,0,,,41,49
47880,note_on,,,,,0,0,2,,,,,0,,,53,55
47880,note_on,,,,,119,0,8,,,,,2,,,65,110
47880,note_on,,,,,16,0,1,,,,,0,,,82,62
47880,note_on,,,,,0,0,2,,,,,0,,,48,62
47882,note_on,,,,,2,0,8,,,,,2,,,64,0
47909,note_on,,,,,29,0,1,,,,,0,,,82,0
47910,note_on,,,,,1,0,1,,,,,0,,,81,62
47939,note_on,,,,,29,0,1,,,,,0,,,81,0
47940,note_on,,,,,1,0,1,,,,,0,,,80,88
47954,note_on,,,,,14,0,1,,,,,0,,,80,0
47969,note_on,,,,,0,0,2,,,,,0,,,41,0
47969,note_on,,,,,0,0,2,,,,,0,,,48,0
47969,note_on,,,,,89,0,2,,,,,0,,,53,0
47970,note_on,,,,,16,0,1,,,,,0,,,81,62
47974,note_on,,,,,92,0,8,,,,,2,,,65,0
47974,note_on,,,,,97,0,7,,,,,2,,,69,0
47984,note_on,,,,,14,0,1,,,,,0,,,81,0
47995,note_on,,,,,21,0,7,,,,,2,,,69,98
47996,note_on,,,,,22,0,8,,,,,2,,,65,98
48000,note_on,,,,,121,0,9,,,,,2,,,53,0
48000,note_on,,,,,17406,0,10,,,,,2,,,60,98
48000,note_on,,,,,0,0,1,,,,,0,,,81,70
48000,note_on,,,,,16,0,1,,,,,0,,,77,70
48000,note_on,,,,,31,0,2,,,,,0,,,48,55
48000,note_on,,,,,0,0,2,,,,,0,,,60,78
48000,note_on,,,,,0,0,1,,,,,0,,,81,62
48000,note_on,,,,,0,0,1,,,,,0,,,77,55
48004,note_on,,,,,4,0,9,,,,,2,,,60,98
48089,note_on,,,,,0,0,1,,,,,0,,,77,0
48089,note_on,,,,,89,0,1,,,,,0,,,81,0
48118,note_on,,,,,122,0,8,,,,,2,,,64,98
48119,note_on,,,,,119,0,2,,,,,0,,,48,0
48120,note_on,,,,,2,0,8,,,,,2,,,65,0
48120,note_on,,,,,125,0,7,,,,,2,,,69,0
48120,note_on,,,,,31,0,1,,,,,0,,,76,55
48120,note_on,,,,,0,0,1,,,,,0,,,79,62
48120,note_on,,,,,0,0,7,,,,,2,,,67,98
48122,note_on,,,,,118,0,9,,,,,2,,,60,0
48122,note_on,,,,,0,0,9,,,,,2,,,48,98
48134,note_on,,,,,15,0,2,,,,,0,,,60,0
48219,note_on,,,,,97,0,9,,,,,2,,,48,0
48222,note_on,,,,,102,0,8,,,,,2,,,64,0
48224,note_on,,,,,0,0,1,,,,,0,,,76,0
48224,note_on,,,,,104,0,1,,,,,0,,,79,0
48233,note_on,,,,,113,0,7,,,,,2,,,67,0
48238,note_on,,,,,0,0,10,,,,,2,,,55,98
48238,note_on,,,,,238,0,10,,,,,2,,,60,0
48239,note_on,,,,,0,0,1,,,,,0,,,77,0
48239,note_on,,,,,15,0,1,,,,,0,,,81,0
48479,note_on,,,,,241,0,10,,,,,2,,,52,88
48480,note_on,,,,,1,0,10,,,,,2,,,55,0
48480,note_on,,,,,346,0,2,,,,,0,,,36,49
48480,note_on,,,,,241,0,1,,,,,0,,,81,70
48509,note_on,,,,,29,0,1,,,,,0,,,81,0
48510,note_on,,,,,1,0,1,,,,,0,,,79,49
48539,note_on,,,,,29,0,1,,,,,0,,,79,0
48539,note_on,,,,,59,0,2,,,,,0,,,36,0
48540,note_on,,,,,1,0,2,,,,,0,,,48,49
48540,note_on,,,,,1,0,1,,,,,0,,,78,78
48554,note_on,,,,,14,0,1,,,,,0,,,78,0
48570,note_on,,,,,16,0,1,,,,,0,,,79,62
48577,note_on,,,,,97,0,10,,,,,2,,,53,78
48580,note_on,,,,,3,0,10,,,,,2,,,52,0
48584,note_on,,,,,44,0,2,,,,,0,,,48,0
48599,note_on,,,,,29,0,1,,,,,0,,,79,0
48600,note_on,,,,,16,0,2,,,,,0,,,48,39
48600,note_on,,,,,20,0,10,,,,,2,,,53,0
48600,note_on,,,,,1,0,1,,,,,0,,,77,55
48603,note_on,,,,,3,0,10,,,,,2,,,55,98
48629,note_on,,,,,29,0,2,,,,,0,,,48,0
48629,note_on,,,,,29,0,1,,,,,0,,,77,0
48630,note_on,,,,,1,0,1,,,,,0,,,76,62
48659,note_on,,,,,29,0,1,,,,,0,,,76,0
48660,note_on,,,,,1,0,1,,,,,0,,,75,70
48660,note_on,,,,,31,0,2,,,,,0,,,48,39
48674,note_on,,,,,14,0,1,,,,,0,,,75,0
48690,note_on,,,,,16,0,1,,,,,0,,,76,55
48719,note_on,,,,,29,0,1,,,,,0,,,76,0
48719,note_on,,,,,59,0,2,,,,,0,,,48,0
48720,note_on,,,,,1,0,2,,,,,0,,,36,49
48720,note_on,,,,,1,0,1,,,,,0,,,74,70
48721,note_on,,,,,118,0,10,,,,,2,,,55,0
48749,note_on,,,,,29,0,1,,,,,0,,,74,0
48750,note_on,,,,,1,0,1,,,,,0,,,72,39
48779,note_on,,,,,29,0,1,,,,,0,,,72,0
48780,note_on,,,,,60,0,2,,,,,0,,,48,30
48780,note_on,,,,,1,0,1,,,,,0,,,71,62
48794,note_on,,,,,14,0,1,,,,,0,,,71,0
48794,note_on,,,,,14,0,2,,,,,0,,,36,0
48810,note_on,,,,,16,0,1,,,,,0,,,72,55
48824,note_on,,,,,30,0,2,,,,,0,,,48,0
48833,note_on,,,,,112,0,10,,,,,2,,,55,88
48839,note_on,,,,,29,0,1,,,,,0,,,72,0
48840,note_on,,,,,16,0,2,,,,,0,,,48,35
48840,note_on,,,,,1,0,1,,,,,0,,,69,44
48869,note_on,,,,,29,0,2,,,,,0,,,48,0
48869,note_on,,,,,29,0,1,,,,,0,,,69,0
48870,note_on,,,,,1,0,1,,,,,0,,,67,55
48899,note_on,,,,,29,0,1,,,,,0,,,67,0
48900,note_on,,,,,1,0,1,,,,,0,,,66,70
48900,note_on,,,,,31,0,2,,,,,0,,,48,35
48914,note_on,,,,,14,0,1,,,,,0,,,66,0
48916,note_on,,,,,83,0,10,,,,,2,,,55,0
48926,note_on,,,,,10,0,10,,,,,2,,,60,98
48929,note_on,,,,,29,0,2,,,,,0,,,48,0
48930,note_on,,,,,16,0,1,,,,,0,,,67,62
48941,note_on,,,,,15,0,10,,,,,2,,,60,0
48944,note_on,,,,,14,0,1,,,,,0,,,67,0
48951,note_on,,,,,10,0,10,,,,,2,,,60,110
48960,note_on,,,,,16,0,1,,,,,0,,,79,62
48960,note_on,,,,,31,0,2,,,,,0,,,43,49
48960,note_on,,,,,0,0,2,,,,,0,,,50,62
48989,note_on,,,,,29,0,1,,,,,0,,,79,0
48990,note_on,,,,,1,0,1,,,,,0,,,77,55
49019,note_on,,,,,59,0,2,,,,,0,,,43,0
49019,note_on,,,,,29,0,1,,,,,0,,,77,0
49020,note_on,,,,,1,0,2,,,,,0,,,55,44
49020,note_on,,,,,1,0,1,,,,,0,,,76,70
49034,note_on,,,,,14,0,1,,,,,0,,,76,0
49049,note_on,,,,,29,0,2,,,,,0,,,55,0
49050,note_on,,,,,16,0,1,,,,,0,,,77,62
49079,note_on,,,,,29,0,1,,,,,0,,,77,0
49080,note_on,,,,,31,0,2,,,,,0,,,55,49
49080,note_on,,,,,1,0,1,,,,,0,,,76,55
49109,note_on,,,,,29,0,2,,,,,0,,,55,0
49109,note_on,,,,,29,0,1,,,,,0,,,76,0
49110,note_on,,,,,1,0,1,,,,,0,,,74,62
49139,note_on,,,,,29,0,1,,,,,0,,,74,0
49140,note_on,,,,,1,0,1,,,,,0,,,73,78
49140,note_on,,,,,31,0,2,,,,,0,,,55,35
49152,note_on,,,,,201,0,10,,,,,2,,,62,98
49154,note_on,,,,,14,0,1,,,,,0,,,73,0
49156,note_on,,,,,4,0,10,,,,,2,,,60,0
49170,note_on,,,,,16,0,1,,,,,0,,,74,55
49176,note_on,,,,,20,0,10,,,,,2,,,60,88
49184,note_on,,,,,14,0,1,,,,,0,,,74,0
49184,note_on,,,,,44,0,2,,,,,0,,,55,0
49187,note_on,,,,,11,0,10,,,,,2,,,62,0
49200,note_on,,,,,16,0,1,,,,,0,,,72,62
49200,note_on,,,,,16,0,2,,,,,0,,,43,44
49203,note_on,,,,,16,0,10,,,,,2,,,60,0
49205,note_on,,,,,2,0,10,,,,,2,,,59,98
49214,note_on,,,,,14,0,2,,,,,0,,,50,0
49229,note_on,,,,,29,0,1,,,,,0,,,72,0
49230,note_on,,,,,1,0,1,,,,,0,,,71,70
49259,note_on,,,,,45,0,2,,,,,0,,,43,0
49259,note_on,,,,,54,0,10,,,,,2,,,57,98
49259,note_on,,,,,29,0,1,,,,,0,,,71,0
49260,note_on,,,,,1,0,1,,,,,0,,,70,70
49260,note_on,,,,,1,0,2,,,,,0,,,55,55
49262,note_on,,,,,3,0,10,,,,,2,,,59,0
49274,note_on,,,,,14,0,1,,,,,0,,,70,0
49289,note_on,,,,,29,0,2,,,,,0,,,55,0
49290,note_on,,,,,16,0,1,,,,,0,,,71,55
49304,note_on,,,,,14,0,1,,,,,0,,,71,0
49311,note_on,,,,,49,0,10,,,,,2,,,57,0
49318,note_on,,,,,7,0,10,,,,,2,,,55,98
49320,note_on,,,,,0,0,2,,,,,0,,,55,55
49320,note_on,,,,,31,0,2,,,,,0,,,59,62
49320,note_on,,,,,16,0,1,,,,,0,,,69,70
49349,note_on,,,,,29,0,2,,,,,0,,,55,0
49349,note_on,,,,,29,0,1,,,,,0,,,69,0
49350,note_on,,,,,1,0,1,,,,,0,,,67,55
49377,note_on,,,,,59,0,10,,,,,2,,,55,0
49378,note_on,,,,,1,0,10,,,,,2,,,53,98
49379,note_on,,,,,29,0,1,,,,,0,,,67,0
49379,note_on,,,,,30,0,2,,,,,0,,,59,0
49380,note_on,,,,,1,0,1,,,,,0,,,66,78
49380,note_on,,,,,1,0,2,,,,,0,,,55,49
49394,note_on,,,,,14,0,1,,,,,0,,,66,0
49409,note_on,,,,,29,0,2,,,,,0,,,55,0
49410,note_on,,,,,16,0,1,,,,,0,,,67,70
49424,note_on,,,,,14,0,1,,,,,0,,,67,0
49436,note_on,,,,,58,0,10,,,,,2,,,53,0
49437,note_on,,,,,1,0,10,,,,,2,,,52,98
49440,note_on,,,,,0,0,2,,,,,0,,,48,49
49440,note_on,,,,,16,0,1,,,,,0,,,86,70
49440,note_on,,,,,31,0,2,,,,,0,,,55,70
49469,note_on,,,,,29,0,1,,,,,0,,,86,0
49470,note_on,,,,,1,0,1,,,,,0,,,84,62
49484,note_on,,,,,44,0,2,,,,,0,,,48,0
49499,note_on,,,,,29,0,1,,,,,0,,,84,0
49500,note_on,,,,,1,0,1,,,,,0,,,83,78
49500,note_on,,,,,16,0,2,,,,,0,,,60,44
49514,note_on,,,,,14,0,1,,,,,0,,,83,0
49528,note_on,,,,,91,0,10,,,,,2,,,52,0
49529,note_on,,,,,29,0,2,,,,,0,,,60,0
49530,note_on,,,,,16,0,1,,,,,0,,,84,62
49530,note_on,,,,,2,0,10,,,,,2,,,53,98
49556,note_on,,,,,26,0,10,,,,,2,,,55,110
49559,note_on,,,,,29,0,1,,,,,0,,,84,0
49560,note_on,,,,,1,0,1,,,,,0,,,81,62
49560,note_on,,,,,4,0,10,,,,,2,,,53,0
49560,note_on,,,,,31,0,2,,,,,0,,,60,44
49589,note_on,,,,,29,0,2,,,,,0,,,60,0
49589,note_on,,,,,29,0,1,,,,,0,,,81,0
49590,note_on,,,,,1,0,1,,,,,0,,,79,62
49619,note_on,,,,,29,0,1,,,,,0,,,79,0
49620,note_on,,,,,31,0,2,,,,,0,,,60,39
49620,note_on,,,,,1,0,1,,,,,0,,,78,70
49634,note_on,,,,,14,0,1,,,,,0,,,78,0
49649,note_on,,,,,29,0,2,,,,,0,,,60,0
49650,note_on,,,,,16,0,1,,,,,0,,,79,35
49664,note_on,,,,,15,0,2,,,,,0,,,55,0
49679,note_on,,,,,29,0,1,,,,,0,,,79,0
49679,note_on,,,,,1460,0,9,,,,,2,,,60,98
49680,note_on,,,,,1458,0,8,,,,,2,,,64,88
49680,note_on,,,,,16,0,2,,,,,0,,,46,62
49680,note_on,,,,,1,0,1,,,,,0,,,77,62
49681,note_on,,,,,1448,0,7,,,,,2,,,79,98
49684,note_on,,,,,124,0,10,,,,,2,,,55,0
49709,note_on,,,,,29,0,1,,,,,0,,,77,0
49710,note_on,,,,,1,0,1,,,,,0,,,76,44
49739,note_on,,,,,59,0,2,,,,,0,,,46,0
49739,note_on,,,,,29,0,1,,,,,0,,,76,0
49740,note_on,,,,,1,0,2,,,,,0,,,58,70
49740,note_on,,,,,1,0,1,,,,,0,,,75,70
49754,note_on,,,,,14,0,1,,,,,0,,,75,0
49765,note_on,,,,,86,0,9,,,,,2,,,60,0
49770,note_on,,,,,90,0,8,,,,,2,,,64,0
49770,note_on,,,,,16,0,1,,,,,0,,,76,55
49776,note_on,,,,,95,0,7,,,,,2,,,79,0
49784,note_on,,,,,14,0,1,,,,,0,,,76,0
49784,note_on,,,,,44,0,2,,,,,0,,,58,0
49799,note_on,,,,,34,0,9,,,,,2,,,60,98
49800,note_on,,,,,16,0,2,,,,,0,,,58,62
49800,note_on,,,,,16,0,1,,,,,0,,,74,62
49801,note_on,,,,,25,0,7,,,,,2,,,79,88
49802,note_on,,,,,32,0,8,,,,,2,,,64,110
49829,note_on,,,,,29,0,2,,,,,0,,,58,0
49829,note_on,,,,,29,0,1,,,,,0,,,74,0
49830,note_on,,,,,1,0,1,,,,,0,,,72,49
49859,note_on,,,,,29,0,1,,,,,0,,,72,0
49860,note_on,,,,,31,0,2,,,,,0,,,58,62
49860,note_on,,,,,1,0,1,,,,,0,,,71,62
49874,note_on,,,,,14,0,1,,,,,0,,,71,0
49876,note_on,,,,,75,0,7,,,,,2,,,79,0
49887,note_on,,,,,85,0,8,,,,,2,,,64,0
49890,note_on,,,,,16,0,1,,,,,0,,,72,49
49904,note_on,,,,,14,0,1,,,,,0,,,72,0
49904,note_on,,,,,44,0,2,,,,,0,,,58,0
49914,note_on,,,,,115,0,9,,,,,2,,,60,0
49920,note_on,,,,,16,0,1,,,,,0,,,73,78
49920,note_on,,,,,0,0,1,,,,,0,,,76,62
49920,note_on,,,,,16,0,2,,,,,0,,,52,78
49920,note_on,,,,,0,0,2,,,,,0,,,45,110
49922,note_on,,,,,46,0,7,,,,,2,,,79,88
49924,note_on,,,,,10,0,9,,,,,2,,,61,98
49927,note_on,,,,,40,0,8,,,,,2,,,64,98
49979,note_on,,,,,59,0,1,,,,,0,,,76,0
49979,note_on,,,,,0,0,1,,,,,0,,,73,0
49979,note_on,,,,,59,0,2,,,,,0,,,45,0
49979,note_on,,,,,0,0,2,,,,,0,,,52,0
49980,note_on,,,,,1,0,2,,,,,0,,,57,88
49980,note_on,,,,,0,0,1,,,,,0,,,79,70
49980,note_on,,,,,1,0,1,,,,,0,,,76,62
49982,note_on,,,,,60,0,7,,,,,2,,,73,110
49983,note_on,,,,,1,0,7,,,,,2,,,79,0
49986,note_on,,,,,62,0,9,,,,,2,,,64,98
49987,note_on,,,,,1,0,9,,,,,2,,,61,0
49988,note_on,,,,,61,0,8,,,,,2,,,67,70
49991,note_on,,,,,3,0,8,,,,,2,,,64,0
50016,note_on,,,,,25,0,8,,,,,2,,,67,0
50020,note_on,,,,,33,0,9,,,,,2,,,64,0
50024,note_on,,,,,44,0,2,,,,,0,,,57,0
50027,note_on,,,,,44,0,7,,,,,2,,,73,0
50040,note_on,,,,,16,0,2,,,,,0,,,57,55
50045,note_on,,,,,25,0,9,,,,,2,,,64,78
50045,note_on,,,,,29,0,8,,,,,2,,,67,62
50045,note_on,,,,,18,0,7,,,,,2,,,73,110
50069,note_on,,,,,0,0,1,,,,,0,,,76,0
50069,note_on,,,,,29,0,2,,,,,0,,,57,0
50069,note_on,,,,,89,0,1,,,,,0,,,79,0
50100,note_on,,,,,0,0,1,,,,,0,,,79,78
50100,note_on,,,,,31,0,2,,,,,0,,,57,44
50100,note_on,,,,,31,0,1,,,,,0,,,82,98
50102,note_on,,,,,57,0,9,,,,,2,,,64,0
50102,note_on,,,,,57,0,8,,,,,2,,,70,62
50102,note_on,,,,,0,0,9,,,,,2,,,67,98
50111,note_on,,,,,9,0,8,,,,,2,,,67,0
50130,note_on,,,,,19,0,8,,,,,2,,,70,0
50139,note_on,,,,,37,0,9,,,,,2,,,67,0
50144,note_on,,,,,44,0,2,,,,,0,,,57,0
50158,note_on,,,,,28,0,8,,,,,2,,,70,78
50160,note_on,,,,,16,0,2,,,,,0,,,45,55
50162,note_on,,,,,23,0,9,,,,,2,,,67,98
50211,note_on,,,,,53,0,8,,,,,2,,,70,0
50219,note_on,,,,,0,0,1,,,,,0,,,82,0
50219,note_on,,,,,59,0,2,,,,,0,,,45,0
50219,note_on,,,,,8,0,8,,,,,2,,,69,70
50219,note_on,,,,,119,0,1,,,,,0,,,79,0
50220,note_on,,,,,0,0,2,,,,,0,,,57,39
50220,note_on,,,,,1,0,1,,,,,0,,,77,55
50220,note_on,,,,,0,0,1,,,,,0,,,81,62
50220,note_on,,,,,1,0,2,,,,,0,,,61,62
50222,note_on,,,,,60,0,9,,,,,2,,,65,88
50227,note_on,,,,,5,0,9,,,,,2,,,67,0
50249,note_on,,,,,29,0,2,,,,,0,,,57,0
50252,note_on,,,,,33,0,8,,,,,2,,,69,0
50260,note_on,,,,,33,0,9,,,,,2,,,65,0
50261,note_on,,,,,216,0,7,,,,,2,,,73,0
50264,note_on,,,,,15,0,2,,,,,0,,,61,0
50278,note_on,,,,,26,0,8,,,,,2,,,69,62
50279,note_on,,,,,18,0,7,,,,,2,,,74,98
50280,note_on,,,,,0,0,2,,,,,0,,,57,55
50280,note_on,,,,,16,0,2,,,,,0,,,62,62
50281,note_on,,,,,21,0,9,,,,,2,,,65,98
50309,note_on,,,,,29,0,2,,,,,0,,,57,0
50324,note_on,,,,,15,0,2,,,,,0,,,62,0
50338,note_on,,,,,60,0,8,,,,,2,,,69,0
50338,note_on,,,,,59,0,7,,,,,2,,,76,88
50339,note_on,,,,,0,0,1,,,,,0,,,77,0
50339,note_on,,,,,119,0,1,,,,,0,,,81,0
50340,note_on,,,,,2,0,8,,,,,2,,,67,70
50340,note_on,,,,,16,0,2,,,,,0,,,61,70
50340,note_on,,,,,0,0,2,,,,,0,,,57,44
50340,note_on,,,,,0,0,2,,,,,0,,,64,39
50340,note_on,,,,,1,0,1,,,,,0,,,79,55
50340,note_on,,,,,0,0,1,,,,,0,,,76,55
50343,note_on,,,,,62,0,9,,,,,2,,,64,88
50346,note_on,,,,,8,0,7,,,,,2,,,74,0
50351,note_on,,,,,8,0,9,,,,,2,,,65,0
50384,note_on,,,,,0,0,2,,,,,0,,,57,0
50384,note_on,,,,,44,0,2,,,,,0,,,64,0
50384,note_on,,,,,0,0,2,,,,,0,,,61,0
50384,note_on,,,,,44,0,1,,,,,0,,,76,0
50384,note_on,,,,,0,0,1,,,,,0,,,79,0
50394,note_on,,,,,48,0,7,,,,,2,,,76,0
50396,note_on,,,,,56,0,8,,,,,2,,,67,0
50399,note_on,,,,,48,0,9,,,,,2,,,64,0
50399,note_on,,,,,3,0,8,,,,,2,,,64,70
50400,note_on,,,,,6,0,7,,,,,2,,,79,88
50400,note_on,,,,,16,0,2,,,,,0,,,50,49
50404,note_on,,,,,5,0,9,,,,,2,,,61,110
50460,note_on,,,,,76,0,1,,,,,0,,,76,49
50460,note_on,,,,,0,0,1,,,,,0,,,79,39
50460,note_on,,,,,0,0,2,,,,,0,,,57,30
50460,note_on,,,,,60,0,2,,,,,0,,,61,62
50474,note_on,,,,,14,0,2,,,,,0,,,50,0
50484,note_on,,,,,84,0,7,,,,,2,,,79,0
50485,note_on,,,,,81,0,9,,,,,2,,,61,0
50488,note_on,,,,,4,0,7,,,,,2,,,77,98
50492,note_on,,,,,93,0,8,,,,,2,,,64,0
50493,note_on,,,,,1,0,8,,,,,2,,,65,44
50496,note_on,,,,,11,0,9,,,,,2,,,62,98
50503,note_on,,,,,15,0,7,,,,,2,,,77,0
50504,note_on,,,,,0,0,2,,,,,0,,,61,0
50504,note_on,,,,,30,0,2,,,,,0,,,57,0
50505,note_on,,,,,12,0,8,,,,,2,,,65,0
50511,note_on,,,,,15,0,9,,,,,2,,,62,0
50513,note_on,,,,,10,0,7,,,,,2,,,77,110
50516,note_on,,,,,11,0,8,,,,,2,,,65,88
50519,note_on,,,,,0,0,1,,,,,0,,,76,0
50519,note_on,,,,,59,0,1,,,,,0,,,79,0
50520,note_on,,,,,0,0,2,,,,,0,,,62,44
50520,note_on,,,,,0,0,1,,,,,0,,,74,49
50520,note_on,,,,,1,0,1,,,,,0,,,77,55
50520,note_on,,,,,9,0,9,,,,,2,,,62,110
50520,note_on,,,,,16,0,2,,,,,0,,,57,49
50549,note_on,,,,,29,0,2,,,,,0,,,62,0
50549,note_on,,,,,0,0,2,,,,,0,,,57,0
50564,note_on,,,,,44,0,1,,,,,0,,,74,0
50564,note_on,,,,,0,0,1,,,,,0,,,77,0
50580,note_on,,,,,0,0,1,,,,,0,,,74,62
50580,note_on,,,,,31,0,2,,,,,0,,,57,55
50580,note_on,,,,,0,0,2,,,,,0,,,62,55
50580,note_on,,,,,16,0,1,,,,,0,,,77,70
50594,note_on,,,,,14,0,1,,,,,0,,,74,0
50594,note_on,,,,,0,0,1,,,,,0,,,77,0
50594,note_on,,,,,14,0,2,,,,,0,,,62,0
50594,note_on,,,,,0,0,2,,,,,0,,,57,0
50612,note_on,,,,,96,0,8,,,,,2,,,65,0
50614,note_on,,,,,101,0,7,,,,,2,,,77,0
50634,note_on,,,,,20,0,7,,,,,2,,,77,98
50637,note_on,,,,,25,0,8,,,,,2,,,65,88
50638,note_on,,,,,118,0,9,,,,,2,,,62,0
50640,note_on,,,,,46,0,2,,,,,0,,,45,39
50641,note_on,,,,,3,0,9,,,,,2,,,60,98
50699,note_on,,,,,59,0,2,,,,,0,,,45,0
50700,note_on,,,,,0,0,1,,,,,0,,,72,49
50700,note_on,,,,,1,0,2,,,,,0,,,57,1
50700,note_on,,,,,106,0,1,,,,,0,,,77,55
50729,note_on,,,,,29,0,1,,,,,0,,,72,0
50729,note_on,,,,,29,0,2,,,,,0,,,57,0
50729,note_on,,,,,0,0,1,,,,,0,,,77,0
50739,note_on,,,,,105,0,7,,,,,2,,,77,0
50756,note_on,,,,,17,0,7,,,,,2,,,77,88
50760,note_on,,,,,31,0,2,,,,,0,,,57,39
50760,note_on,,,,,123,0,8,,,,,2,,,60,78
50760,note_on,,,,,31,0,1,,,,,0,,,77,39
50760,note_on,,,,,0,0,1,,,,,0,,,72,44
50761,note_on,,,,,120,0,9,,,,,2,,,60,0
50761,note_on,,,,,0,0,9,,,,,2,,,57,98
50762,note_on,,,,,2,0,8,,,,,2,,,65,0
50789,note_on,,,,,29,0,2,,,,,0,,,57,0
50804,note_on,,,,,44,0,1,,,,,0,,,72,0
50804,note_on,,,,,0,0,1,,,,,0,,,77,0
50820,note_on,,,,,0,0,1,,,,,0,,,77,55
50820,note_on,,,,,16,0,1,,,,,0,,,72,49
50820,note_on,,,,,31,0,2,,,,,0,,,57,55
50840,note_on,,,,,78,0,8,,,,,2,,,60,0
50842,note_on,,,,,86,0,7,,,,,2,,,77,0
50849,note_on,,,,,29,0,1,,,,,0,,,77,0
50849,note_on,,,,,0,0,1,,,,,0,,,72,0
50849,note_on,,,,,29,0,2,,,,,0,,,57,0
50877,note_on,,,,,116,0,9,,,,,2,,,57,0
50880,note_on,,,,,31,0,1,,,,,0,,,74,70
50880,note_on,,,,,0,0,1,,,,,0,,,71,62
50880,note_on,,,,,31,0,2,,,,,0,,,43,110
50886,note_on,,,,,44,0,7,,,,,2,,,77,110
50888,note_on,,,,,48,0,8,,,,,2,,,62,124
50888,note_on,,,,,11,0,9,,,,,2,,,59,110
50909,note_on,,,,,0,0,1,,,,,0,,,74,0
50909,note_on,,,,,29,0,1,,,,,0,,,71,0
50940,note_on,,,,,31,0,1,,,,,0,,,74,62
50940,note_on,,,,,60,0,2,,,,,0,,,55,98
50940,note_on,,,,,0,0,1,,,,,0,,,77,62
50945,note_on,,,,,57,0,9,,,,,2,,,62,98
50947,note_on,,,,,59,0,8,,,,,2,,,65,98
50949,note_on,,,,,4,0,9,,,,,2,,,59,0
50951,note_on,,,,,4,0,8,,,,,2,,,62,0
50954,note_on,,,,,14,0,2,,,,,0,,,43,0
50984,note_on,,,,,30,0,2,,,,,0,,,55,0
51000,note_on,,,,,16,0,2,,,,,0,,,55,98
51006,note_on,,,,,120,0,7,,,,,2,,,71,70
51009,note_on,,,,,3,0,7,,,,,2,,,77,0
51029,note_on,,,,,29,0,2,,,,,0,,,55,0
51044,note_on,,,,,0,0,1,,,,,0,,,74,0
51044,note_on,,,,,104,0,1,,,,,0,,,77,0
51057,note_on,,,,,108,0,9,,,,,2,,,62,0
51060,note_on,,,,,31,0,2,,,,,0,,,55,39
51060,note_on,,,,,0,0,1,,,,,0,,,77,44
51060,note_on,,,,,16,0,1,,,,,0,,,81,39
51062,note_on,,,,,5,0,9,,,,,2,,,65,55
51065,note_on,,,,,114,0,8,,,,,2,,,65,0
51070,note_on,,,,,5,0,8,,,,,2,,,69,62
51089,note_on,,,,,29,0,2,,,,,0,,,55,0
51120,note_on,,,,,31,0,2,,,,,0,,,43,35
51164,note_on,,,,,0,0,1,,,,,0,,,81,0
51164,note_on,,,,,104,0,1,,,,,0,,,77,0
51180,note_on,,,,,0,0,2,,,,,0,,,55,39
51180,note_on,,,,,0,0,1,,,,,0,,,79,39
51180,note_on,,,,,16,0,1,,,,,0,,,76,24
51180,note_on,,,,,60,0,2,,,,,0,,,59,35
51182,note_on,,,,,112,0,8,,,,,2,,,69,0
51182,note_on,,,,,0,0,8,,,,,2,,,67,78
51184,note_on,,,,,122,0,9,,,,,2,,,65,0
51185,note_on,,,,,1,0,9,,,,,2,,,64,49
51194,note_on,,,,,14,0,2,,,,,0,,,43,0
51209,note_on,,,,,15,0,2,,,,,0,,,55,0
51224,note_on,,,,,15,0,2,,,,,0,,,59,0
51236,note_on,,,,,227,0,7,,,,,2,,,72,70
51240,note_on,,,,,16,0,2,,,,,0,,,60,44
51240,note_on,,,,,0,0,2,,,,,0,,,55,35
51243,note_on,,,,,7,0,7,,,,,2,,,71,0
51269,note_on,,,,,29,0,2,,,,,0,,,55,0
51269,note_on,,,,,0,0,2,,,,,0,,,60,0
51284,note_on,,,,,0,0,1,,,,,0,,,76,0
51284,note_on,,,,,104,0,1,,,,,0,,,79,0
51291,note_on,,,,,109,0,8,,,,,2,,,67,0
51296,note_on,,,,,5,0,8,,,,,2,,,65,70
51296,note_on,,,,,111,0,9,,,,,2,,,64,0
51297,note_on,,,,,54,0,7,,,,,2,,,74,62
51300,note_on,,,,,0,0,1,,,,,0,,,74,39
51300,note_on,,,,,31,0,2,,,,,0,,,55,30
51300,note_on,,,,,0,0,2,,,,,0,,,62,30
51300,note_on,,,,,0,0,2,,,,,0,,,59,44
51300,note_on,,,,,16,0,1,,,,,0,,,77,49
51302,note_on,,,,,6,0,9,,,,,2,,,62,49
51306,note_on,,,,,9,0,7,,,,,2,,,72,0
51344,note_on,,,,,44,0,2,,,,,0,,,59,0
51344,note_on,,,,,0,0,2,,,,,0,,,62,0
51344,note_on,,,,,0,0,2,,,,,0,,,55,0
51356,note_on,,,,,60,0,8,,,,,2,,,62,88
51357,note_on,,,,,1,0,8,,,,,2,,,65,0
51357,note_on,,,,,51,0,7,,,,,2,,,77,70
51359,note_on,,,,,0,0,1,,,,,0,,,77,0
51359,note_on,,,,,59,0,1,,,,,0,,,74,0
51360,note_on,,,,,16,0,2,,,,,0,,,48,55
51360,note_on,,,,,3,0,7,,,,,2,,,74,0
51360,note_on,,,,,0,0,9,,,,,2,,,59,70
51360,note_on,,,,,58,0,9,,,,,2,,,62,0
51419,note_on,,,,,59,0,2,,,,,0,,,48,0
51420,note_on,,,,,0,0,2,,,,,0,,,55,55
51420,note_on,,,,,1,0,2,,,,,0,,,59,55
51420,note_on,,,,,61,0,1,,,,,0,,,74,49
51420,note_on,,,,,0,0,1,,,,,0,,,77,39
51449,note_on,,,,,0,0,2,,,,,0,,,59,0
51449,note_on,,,,,29,0,2,,,,,0,,,55,0
51475,note_on,,,,,115,0,7,,,,,2,,,77,0
51479,note_on,,,,,122,0,8,,,,,2,,,64,70
51479,note_on,,,,,4,0,7,,,,,2,,,76,55
51479,note_on,,,,,0,0,1,,,,,0,,,74,0
51479,note_on,,,,,59,0,1,,,,,0,,,77,0
51480,note_on,,,,,1,0,8,,,,,2,,,62,0
51480,note_on,,,,,31,0,2,,,,,0,,,60,55
51480,note_on,,,,,0,0,2,,,,,0,,,55,39
51480,note_on,,,,,0,0,1,,,,,0,,,72,30
51480,note_on,,,,,1,0,1,,,,,0,,,76,35
51484,note_on,,,,,124,0,9,,,,,2,,,60,70
51485,note_on,,,,,1,0,9,,,,,2,,,59,0
51509,note_on,,,,,29,0,1,,,,,0,,,76,0
51509,note_on,,,,,29,0,2,,,,,0,,,55,0
51509,note_on,,,,,0,0,2,,,,,0,,,60,0
51524,note_on,,,,,15,0,1,,,,,0,,,72,0
51540,note_on,,,,,16,0,1,,,,,0,,,76,49
51540,note_on,,,,,0,0,1,,,,,0,,,72,49
51540,note_on,,,,,31,0,2,,,,,0,,,60,55
51540,note_on,,,,,0,0,2,,,,,0,,,55,49
51554,note_on,,,,,0,0,2,,,,,0,,,60,0
51554,note_on,,,,,14,0,2,,,,,0,,,55,0
51554,note_on,,,,,0,0,1,,,,,0,,,76,0
51554,note_on,,,,,14,0,1,,,,,0,,,72,0
51591,note_on,,,,,106,0,9,,,,,2,,,60,0
51593,note_on,,,,,113,0,8,,,,,2,,,64,0
51597,note_on,,,,,118,0,7,,,,,2,,,79,70
51598,note_on,,,,,1,0,7,,,,,2,,,76,0
51600,note_on,,,,,46,0,2,,,,,0,,,48,39
51600,note_on,,,,,0,0,2,,,,,0,,,60,55
51659,note_on,,,,,59,0,2,,,,,0,,,60,0
51659,note_on,,,,,0,0,2,,,,,0,,,48,0
51660,note_on,,,,,106,0,1,,,,,0,,,72,44
51719,note_on,,,,,59,0,1,,,,,0,,,72,0
51720,note_on,,,,,0,0,1,,,,,0,,,64,44
51720,note_on,,,,,1,0,1,,,,,0,,,76,49
51720,note_on,,,,,61,0,2,,,,,0,,,47,49
51720,note_on,,,,,0,0,2,,,,,0,,,59,49
51723,note_on,,,,,130,0,8,,,,,2,,,64,78
51725,note_on,,,,,134,0,9,,,,,2,,,60,62
51749,note_on,,,,,29,0,1,,,,,0,,,64,0
51764,note_on,,,,,15,0,1,,,,,0,,,76,0
51779,note_on,,,,,0,0,2,,,,,0,,,47,0
51779,note_on,,,,,59,0,2,,,,,0,,,59,0
51780,note_on,,,,,16,0,1,,,,,0,,,67,62
51780,note_on,,,,,0,0,1,,,,,0,,,79,70
51809,note_on,,,,,29,0,1,,,,,0,,,67,0
51812,note_on,,,,,87,0,9,,,,,2,,,60,0
51824,note_on,,,,,15,0,1,,,,,0,,,79,0
51837,note_on,,,,,2153,0,10,,,,,2,,,57,98
51840,note_on,,,,,16,0,1,,,,,0,,,79,49
51840,note_on,,,,,117,0,8,,,,,2,,,64,0
51840,note_on,,,,,0,0,1,,,,,0,,,72,49
51840,note_on,,,,,0,0,2,,,,,0,,,57,55
51840,note_on,,,,,61,0,2,,,,,0,,,45,44
51843,note_on,,,,,3,0,8,,,,,2,,,65,88
51844,note_on,,,,,246,0,7,,,,,2,,,77,78
51845,note_on,,,,,33,0,9,,,,,2,,,60,78
51848,note_on,,,,,4,0,7,,,,,2,,,79,0
51869,note_on,,,,,29,0,1,,,,,0,,,79,0
51870,note_on,,,,,1,0,1,,,,,0,,,77,49
51899,note_on,,,,,59,0,2,,,,,0,,,57,0
51899,note_on,,,,,29,0,1,,,,,0,,,77,0
51899,note_on,,,,,0,0,2,,,,,0,,,45,0
51900,note_on,,,,,1,0,1,,,,,0,,,76,30
51929,note_on,,,,,29,0,1,,,,,0,,,76,0
51930,note_on,,,,,1,0,1,,,,,0,,,77,39
51944,note_on,,,,,14,0,1,,,,,0,,,77,0
51959,note_on,,,,,116,0,8,,,,,2,,,65,0
51959,note_on,,,,,111,0,7,,,,,2,,,76,88
51960,note_on,,,,,61,0,2,,,,,0,,,43,39
51960,note_on,,,,,0,0,2,,,,,0,,,55,55
51960,note_on,,,,,16,0,1,,,,,0,,,81,70
51961,note_on,,,,,124,0,10,,,,,2,,,57,0
51961,note_on,,,,,2,0,7,,,,,2,,,77,0
51962,note_on,,,,,3,0,8,,,,,2,,,67,88
51963,note_on,,,,,2,0,10,,,,,2,,,55,98
51972,note_on,,,,,127,0,9,,,,,2,,,59,70
51976,note_on,,,,,4,0,9,,,,,2,,,60,0
51989,note_on,,,,,29,0,1,,,,,0,,,81,0
51990,note_on,,,,,1,0,1,,,,,0,,,79,44
52000,note_on,,,,,37,0,10,,,,,2,,,55,0
52019,note_on,,,,,29,0,1,,,,,0,,,79,0
52019,note_on,,,,,0,0,2,,,,,0,,,43,0
52019,note_on,,,,,59,0,2,,,,,0,,,55,0
52019,note_on,,,,,19,0,10,,,,,2,,,55,88
52020,note_on,,,,,1,0,1,,,,,0,,,78,70
52034,note_on,,,,,14,0,1,,,,,0,,,78,0
52050,note_on,,,,,16,0,1,,,,,0,,,79,55
52064,note_on,,,,,0,0,1,,,,,0,,,72,0
52064,note_on,,,,,14,0,1,,,,,0,,,79,0
52076,note_on,,,,,115,0,7,,,,,2,,,74,88
52078,note_on,,,,,59,0,10,,,,,2,,,55,0
52079,note_on,,,,,117,0,8,,,,,2,,,69,88
52080,note_on,,,,,61,0,2,,,,,0,,,41,49
52080,note_on,,,,,1,0,8,,,,,2,,,67,0
52080,note_on,,,,,104,0,9,,,,,2,,,59,0
52080,note_on,,,,,0,0,2,,,,,0,,,53,49
52080,note_on,,,,,0,0,1,,,,,0,,,76,70
52080,note_on,,,,,16,0,1,,,,,0,,,81,62
52083,note_on,,,,,7,0,7,,,,,2,,,76,0
52083,note_on,,,,,5,0,10,,,,,2,,,53,98
52083,note_on,,,,,3,0,9,,,,,2,,,57,78
52109,note_on,,,,,29,0,1,,,,,0,,,76,0
52110,note_on,,,,,1,0,1,,,,,0,,,74,55
52124,note_on,,,,,14,0,1,,,,,0,,,74,0
52139,note_on,,,,,59,0,2,,,,,0,,,53,0
52139,note_on,,,,,0,0,2,,,,,0,,,41,0
52140,note_on,,,,,16,0,1,,,,,0,,,73,70
52154,note_on,,,,,14,0,1,,,,,0,,,73,0
52170,note_on,,,,,16,0,1,,,,,0,,,74,55
52181,note_on,,,,,101,0,8,,,,,2,,,69,0
52184,note_on,,,,,14,0,1,,,,,0,,,74,0
52196,note_on,,,,,0,0,7,,,,,2,,,72,88
52196,note_on,,,,,113,0,7,,,,,2,,,74,0
52198,note_on,,,,,115,0,10,,,,,2,,,53,0
52200,note_on,,,,,19,0,8,,,,,2,,,69,70
52200,note_on,,,,,0,0,2,,,,,0,,,54,70
52200,note_on,,,,,117,0,9,,,,,2,,,57,0
52200,note_on,,,,,16,0,1,,,,,0,,,74,62
52200,note_on,,,,,0,0,9,,,,,2,,,64,70
52200,note_on,,,,,61,0,2,,,,,0,,,42,70
52202,note_on,,,,,4,0,10,,,,,2,,,54,110
52229,note_on,,,,,29,0,1,,,,,0,,,74,0
52230,note_on,,,,,1,0,1,,,,,0,,,72,55
52259,note_on,,,,,29,0,1,,,,,0,,,72,0
52259,note_on,,,,,59,0,2,,,,,0,,,54,0
52259,note_on,,,,,0,0,2,,,,,0,,,42,0
52260,note_on,,,,,1,0,1,,,,,0,,,71,49
52289,note_on,,,,,0,0,1,,,,,0,,,81,0
52289,note_on,,,,,29,0,1,,,,,0,,,71,0
52290,note_on,,,,,1,0,1,,,,,0,,,72,62
52301,note_on,,,,,105,0,7,,,,,2,,,72,0
52302,note_on,,,,,102,0,9,,,,,2,,,64,0
52304,note_on,,,,,14,0,1,,,,,0,,,72,0
52316,note_on,,,,,114,0,10,,,,,2,,,54,0
52320,note_on,,,,,16,0,1,,,,,0,,,76,62
52320,note_on,,,,,61,0,2,,,,,0,,,43,55
52320,note_on,,,,,0,0,2,,,,,0,,,55,62
52320,note_on,,,,,0,0,1,,,,,0,,,72,55
52322,note_on,,,,,6,0,10,,,,,2,,,55,98
52323,note_on,,,,,22,0,7,,,,,2,,,72,88
52326,note_on,,,,,24,0,9,,,,,2,,,64,70
52328,note_on,,,,,0,0,8,,,,,2,,,67,78
52328,note_on,,,,,128,0,8,,,,,2,,,69,0
52415,note_on,,,,,93,0,10,,,,,2,,,55,0
52425,note_on,,,,,97,0,8,,,,,2,,,67,0
52435,note_on,,,,,20,0,10,,,,,2,,,55,98
52438,note_on,,,,,115,0,7,,,,,2,,,72,0
52438,note_on,,,,,0,0,7,,,,,2,,,71,88
52439,note_on,,,,,119,0,2,,,,,0,,,55,0
52439,note_on,,,,,0,0,1,,,,,0,,,76,0
52439,note_on,,,,,119,0,1,,,,,0,,,72,0
52439,note_on,,,,,0,0,2,,,,,0,,,43,0
52440,note_on,,,,,0,0,1,,,,,0,,,71,49
52440,note_on,,,,,1,0,1,,,,,0,,,74,62
52441,note_on,,,,,115,0,9,,,,,2,,,64,0
52444,note_on,,,,,19,0,8,,,,,2,,,67,88
52446,note_on,,,,,5,0,9,,,,,2,,,62,78
52531,note_on,,,,,96,0,10,,,,,2,,,55,0
52542,note_on,,,,,96,0,9,,,,,2,,,62,0
52544,note_on,,,,,0,0,1,,,,,0,,,74,0
52544,note_on,,,,,104,0,1,,,,,0,,,71,0
52549,note_on,,,,,105,0,8,,,,,2,,,67,0
52552,note_on,,,,,114,0,7,,,,,2,,,71,0
52557,note_on,,,,,26,0,10,,,,,2,,,55,98
52560,note_on,,,,,16,0,1,,,,,0,,,79,70
52560,note_on,,,,,121,0,2,,,,,0,,,43,44
52589,note_on,,,,,29,0,1,,,,,0,,,79,0
52590,note_on,,,,,1,0,1,,,,,0,,,77,49
52619,note_on,,,,,29,0,1,,,,,0,,,77,0
52619,note_on,,,,,59,0,2,,,,,0,,,43,0
52620,note_on,,,,,1,0,1,,,,,0,,,76,55
52620,note_on,,,,,1,0,2,,,,,0,,,55,44
52634,note_on,,,,,14,0,1,,,,,0,,,76,0
52649,note_on,,,,,29,0,2,,,,,0,,,55,0
52650,note_on,,,,,16,0,1,,,,,0,,,77,44
52664,note_on,,,,,14,0,1,,,,,0,,,77,0
52680,note_on,,,,,16,0,1,,,,,0,,,76,55
52680,note_on,,,,,31,0,2,,,,,0,,,55,35
52709,note_on,,,,,29,0,1,,,,,0,,,76,0
52709,note_on,,,,,29,0,2,,,,,0,,,55,0
52710,note_on,,,,,1,0,1,,,,,0,,,74,62
52736,note_on,,,,,0,0,10,,,,,2,,,57,98
52736,note_on,,,,,179,0,10,,,,,2,,,55,0
52739,note_on,,,,,29,0,1,,,,,0,,,74,0
52740,note_on,,,,,31,0,2,,,,,0,,,55,49
52740,note_on,,,,,1,0,1,,,,,0,,,73,70
52754,note_on,,,,,14,0,1,,,,,0,,,73,0
52761,note_on,,,,,25,0,10,,,,,2,,,59,70
52762,note_on,,,,,1,0,10,,,,,2,,,57,0
52770,note_on,,,,,16,0,1,,,,,0,,,74,49
52779,note_on,,,,,17,0,10,,,,,2,,,59,0
52784,note_on,,,,,44,0,2,,,,,0,,,55,0
52784,note_on,,,,,14,0,1,,,,,0,,,74,0
52791,note_on,,,,,12,0,10,,,,,2,,,60,110
52800,note_on,,,,,16,0,2,,,,,0,,,43,35
52800,note_on,,,,,16,0,1,,,,,0,,,77,62
52803,note_on,,,,,261,0,9,,,,,2,,,64,70
52808,note_on,,,,,256,0,7,,,,,2,,,72,88
52829,note_on,,,,,29,0,1,,,,,0,,,77,0
52830,note_on,,,,,1,0,1,,,,,0,,,76,55
52844,note_on,,,,,44,0,2,,,,,0,,,43,0
52859,note_on,,,,,29,0,1,,,,,0,,,76,0
52860,note_on,,,,,16,0,2,,,,,0,,,55,55
52860,note_on,,,,,1,0,1,,,,,0,,,75,78
52874,note_on,,,,,14,0,1,,,,,0,,,75,0
52889,note_on,,,,,29,0,2,,,,,0,,,55,0
52890,note_on,,,,,16,0,1,,,,,0,,,76,55
52904,note_on,,,,,14,0,1,,,,,0,,,76,0
52920,note_on,,,,,16,0,1,,,,,0,,,74,49
52920,note_on,,,,,31,0,2,,,,,0,,,55,39
52926,note_on,,,,,135,0,10,,,,,2,,,60,0
52926,note_on,,,,,0,0,10,,,,,2,,,55,110
52949,note_on,,,,,29,0,1,,,,,0,,,74,0
52949,note_on,,,,,29,0,2,,,,,0,,,55,0
52950,note_on,,,,,1,0,1,,,,,0,,,72,44
52979,note_on,,,,,29,0,1,,,,,0,,,72,0
52980,note_on,,,,,1,0,1,,,,,0,,,71,55
52980,note_on,,,,,172,0,7,,,,,2,,,74,78
52980,note_on,,,,,31,0,2,,,,,0,,,55,44
52984,note_on,,,,,181,0,9,,,,,2,,,64,0
52985,note_on,,,,,1,0,9,,,,,2,,,62,62
52988,note_on,,,,,8,0,7,,,,,2,,,72,0
52994,note_on,,,,,14,0,1,,,,,0,,,71,0
53008,note_on,,,,,20,0,7,,,,,2,,,76,70
53008,note_on,,,,,82,0,10,,,,,2,,,55,0
53010,note_on,,,,,16,0,1,,,,,0,,,72,55
53010,note_on,,,,,2,0,7,,,,,2,,,74,0
53014,note_on,,,,,0,0,9,,,,,2,,,60,62
53014,note_on,,,,,29,0,9,,,,,2,,,62,0
53024,note_on,,,,,44,0,2,,,,,0,,,55,0
53024,note_on,,,,,14,0,1,,,,,0,,,72,0
53038,note_on,,,,,0,0,7,,,,,2,,,77,88
53038,note_on,,,,,28,0,7,,,,,2,,,76,0
53040,note_on,,,,,16,0,2,,,,,0,,,43,44
53040,note_on,,,,,16,0,1,,,,,0,,,79,55
53040,note_on,,,,,32,0,10,,,,,2,,,55,98
53044,note_on,,,,,495,0,8,,,,,2,,,67,98
53047,note_on,,,,,33,0,9,,,,,2,,,60,0
53047,note_on,,,,,0,0,9,,,,,2,,,59,70
53069,note_on,,,,,29,0,1,,,,,0,,,79,0
53070,note_on,,,,,1,0,1,,,,,0,,,77,49
53099,note_on,,,,,29,0,1,,,,,0,,,77,0
53099,note_on,,,,,59,0,2,,,,,0,,,43,0
53100,note_on,,,,,1,0,2,,,,,0,,,55,44
53100,note_on,,,,,1,0,1,,,,,0,,,76,49
53114,note_on,,,,,14,0,1,,,,,0,,,76,0
53123,note_on,,,,,76,0,9,,,,,2,,,59,0
53129,note_on,,,,,85,0,8,,,,,2,,,67,0
53129,note_on,,,,,29,0,2,,,,,0,,,55,0
53130,note_on,,,,,16,0,1,,,,,0,,,77,49
53131,note_on,,,,,93,0,7,,,,,2,,,77,0
53144,note_on,,,,,14,0,1,,,,,0,,,77,0
53158,note_on,,,,,29,0,8,,,,,2,,,67,78
53160,note_on,,,,,29,0,7,,,,,2,,,77,88
53160,note_on,,,,,31,0,2,,,,,0,,,55,49
53160,note_on,,,,,16,0,1,,,,,0,,,76,39
53189,note_on,,,,,29,0,1,,,,,0,,,76,0
53189,note_on,,,,,29,0,2,,,,,0,,,55,0
53190,note_on,,,,,1,0,1,,,,,0,,,74,55
53210,note_on,,,,,170,0,10,,,,,2,,,55,0
53218,note_on,,,,,8,0,10,,,,,2,,,57,98
53219,note_on,,,,,29,0,1,,,,,0,,,74,0
53220,note_on,,,,,1,0,1,,,,,0,,,73,62
53220,note_on,,,,,31,0,2,,,,,0,,,55,55
53229,note_on,,,,,106,0,9,,,,,2,,,57,55
53234,note_on,,,,,14,0,1,,,,,0,,,73,0
53247,note_on,,,,,29,0,10,,,,,2,,,57,0
53247,note_on,,,,,0,0,10,,,,,2,,,59,88
53247,note_on,,,,,89,0,8,,,,,2,,,67,0
53250,note_on,,,,,16,0,1,,,,,0,,,74,49
53257,note_on,,,,,28,0,9,,,,,2,,,55,62
53260,note_on,,,,,3,0,9,,,,,2,,,57,0
53264,note_on,,,,,14,0,1,,,,,0,,,74,0
53264,note_on,,,,,44,0,2,,,,,0,,,55,0
53267,note_on,,,,,20,0,10,,,,,2,,,59,0
53276,note_on,,,,,29,0,8,,,,,2,,,67,88
53278,note_on,,,,,11,0,10,,,,,2,,,60,98
53279,note_on,,,,,119,0,7,,,,,2,,,77,0
53280,note_on,,,,,16,0,2,,,,,0,,,43,49
53280,note_on,,,,,16,0,1,,,,,0,,,77,62
53281,note_on,,,,,21,0,9,,,,,2,,,55,0
53286,note_on,,,,,7,0,7,,,,,2,,,76,78
53287,note_on,,,,,6,0,9,,,,,2,,,60,78
53309,note_on,,,,,29,0,1,,,,,0,,,77,0
53310,note_on,,,,,1,0,1,,,,,0,,,76,49
53339,note_on,,,,,29,0,1,,,,,0,,,76,0
53339,note_on,,,,,59,0,2,,,,,0,,,43,0
53340,note_on,,,,,1,0,2,,,,,0,,,55,49
53340,note_on,,,,,1,0,1,,,,,0,,,75,70
53354,note_on,,,,,14,0,1,,,,,0,,,75,0
53370,note_on,,,,,16,0,1,,,,,0,,,76,49
53384,note_on,,,,,44,0,2,,,,,0,,,55,0
53384,note_on,,,,,14,0,1,,,,,0,,,76,0
53397,note_on,,,,,119,0,10,,,,,2,,,60,0
53399,note_on,,,,,2,0,10,,,,,2,,,55,110
53400,note_on,,,,,16,0,1,,,,,0,,,74,62
53400,note_on,,,,,16,0,2,,,,,0,,,55,49
53429,note_on,,,,,29,0,1,,,,,0,,,74,0
53429,note_on,,,,,29,0,2,,,,,0,,,55,0
53430,note_on,,,,,1,0,1,,,,,0,,,72,44
53459,note_on,,,,,29,0,1,,,,,0,,,72,0
53460,note_on,,,,,1,0,1,,,,,0,,,71,49
53460,note_on,,,,,31,0,2,,,,,0,,,55,49
53462,note_on,,,,,175,0,9,,,,,2,,,62,70
53464,note_on,,,,,2,0,9,,,,,2,,,60,0
53464,note_on,,,,,178,0,7,,,,,2,,,74,78
53466,note_on,,,,,2,0,7,,,,,2,,,76,0
53474,note_on,,,,,14,0,1,,,,,0,,,71,0
53485,note_on,,,,,86,0,10,,,,,2,,,55,0
53490,note_on,,,,,16,0,1,,,,,0,,,72,35
53491,note_on,,,,,27,0,9,,,,,2,,,64,70
53493,note_on,,,,,27,0,7,,,,,2,,,72,70
53494,note_on,,,,,218,0,8,,,,,2,,,67,0
53494,note_on,,,,,3,0,9,,,,,2,,,62,0
53496,note_on,,,,,3,0,7,,,,,2,,,74,0
53504,note_on,,,,,14,0,1,,,,,0,,,72,0
53504,note_on,,,,,44,0,2,,,,,0,,,55,0
53514,note_on,,,,,29,0,10,,,,,2,,,55,110
53519,note_on,,,,,25,0,9,,,,,2,,,64,0
53520,note_on,,,,,16,0,2,,,,,0,,,43,30
53520,note_on,,,,,26,0,8,,,,,2,,,67,98
53520,note_on,,,,,16,0,1,,,,,0,,,79,62
53525,note_on,,,,,29,0,7,,,,,2,,,71,88
53526,note_on,,,,,7,0,9,,,,,2,,,65,70
53528,note_on,,,,,3,0,7,,,,,2,,,72,0
53549,note_on,,,,,29,0,1,,,,,0,,,79,0
53550,note_on,,,,,1,0,1,,,,,0,,,77,49
53579,note_on,,,,,29,0,1,,,,,0,,,77,0
53579,note_on,,,,,59,0,2,,,,,0,,,43,0
53580,note_on,,,,,1,0,2,,,,,0,,,55,39
53580,note_on,,,,,1,0,1,,,,,0,,,76,55
53594,note_on,,,,,14,0,1,,,,,0,,,76,0
53601,note_on,,,,,75,0,9,,,,,2,,,65,0
53609,note_on,,,,,29,0,2,,,,,0,,,55,0
53610,note_on,,,,,16,0,1,,,,,0,,,77,55
53624,note_on,,,,,14,0,1,,,,,0,,,77,0
53639,note_on,,,,,38,0,9,,,,,2,,,65,78
53640,note_on,,,,,16,0,1,,,,,0,,,76,49
53640,note_on,,,,,31,0,2,,,,,0,,,55,55
53669,note_on,,,,,29,0,2,,,,,0,,,55,0
53669,note_on,,,,,29,0,1,,,,,0,,,76,0
53670,note_on,,,,,1,0,1,,,,,0,,,74,62
53693,note_on,,,,,165,0,7,,,,,2,,,71,0
53694,note_on,,,,,0,0,10,,,,,2,,,57,98
53694,note_on,,,,,1,0,7,,,,,2,,,69,70
53694,note_on,,,,,180,0,10,,,,,2,,,55,0
53699,note_on,,,,,29,0,1,,,,,0,,,74,0
53700,note_on,,,,,31,0,2,,,,,0,,,55,49
53700,note_on,,,,,1,0,1,,,,,0,,,73,70
53710,note_on,,,,,71,0,9,,,,,2,,,65,0
53714,note_on,,,,,14,0,1,,,,,0,,,73,0
53718,note_on,,,,,24,0,7,,,,,2,,,69,0
53720,note_on,,,,,2,0,7,,,,,2,,,67,70
53724,note_on,,,,,30,0,10,,,,,2,,,57,0
53728,note_on,,,,,208,0,8,,,,,2,,,67,0
53729,note_on,,,,,29,0,2,,,,,0,,,55,0
53730,note_on,,,,,16,0,1,,,,,0,,,74,70
53732,note_on,,,,,8,0,10,,,,,2,,,59,98
53744,note_on,,,,,14,0,1,,,,,0,,,74,0
53758,note_on,,,,,26,0,10,,,,,2,,,59,0
53760,note_on,,,,,16,0,1,,,,,0,,,77,70
53760,note_on,,,,,0,0,1,,,,,0,,,81,55
53760,note_on,,,,,31,0,2,,,,,0,,,36,62
53760,note_on,,,,,32,0,8,,,,,2,,,67,88
53760,note_on,,,,,0,0,2,,,,,0,,,48,70
53762,note_on,,,,,4,0,10,,,,,2,,,60,98
53762,note_on,,,,,42,0,7,,,,,2,,,67,0
53762,note_on,,,,,0,0,7,,,,,2,,,79,78
53763,note_on,,,,,53,0,9,,,,,2,,,64,78
53789,note_on,,,,,29,0,1,,,,,0,,,81,0
53789,note_on,,,,,0,0,1,,,,,0,,,77,0
53790,note_on,,,,,1,0,1,,,,,0,,,79,39
53790,note_on,,,,,0,0,1,,,,,0,,,76,44
53804,note_on,,,,,14,0,1,,,,,0,,,76,0
53804,note_on,,,,,0,0,1,,,,,0,,,79,0
53819,note_on,,,,,0,0,2,,,,,0,,,36,0
53819,note_on,,,,,59,0,2,,,,,0,,,48,0
53820,note_on,,,,,16,0,1,,,,,0,,,78,55
53820,note_on,,,,,0,0,1,,,,,0,,,75,55
53834,note_on,,,,,14,0,1,,,,,0,,,75,0
53834,note_on,,,,,0,0,1,,,,,0,,,78,0
53850,note_on,,,,,16,0,1,,,,,0,,,76,55
53850,note_on,,,,,0,0,1,,,,,0,,,79,55
53859,note_on,,,,,97,0,7,,,,,2,,,79,0
53864,note_on,,,,,14,0,1,,,,,0,,,79,0
53864,note_on,,,,,0,0,1,,,,,0,,,76,0
53875,note_on,,,,,113,0,10,,,,,2,,,60,0
53876,note_on,,,,,116,0,8,,,,,2,,,67,0
53877,note_on,,,,,2,0,10,,,,,2,,,53,110
53880,note_on,,,,,0,0,1,,,,,0,,,79,55
53880,note_on,,,,,0,0,2,,,,,0,,,53,78
53880,note_on,,,,,16,0,1,,,,,0,,,76,62
53880,note_on,,,,,61,0,2,,,,,0,,,41,62
53883,note_on,,,,,7,0,8,,,,,2,,,69,88
53885,note_on,,,,,26,0,7,,,,,2,,,77,98
53887,note_on,,,,,124,0,9,,,,,2,,,57,88
53888,note_on,,,,,1,0,9,,,,,2,,,64,0
53909,note_on,,,,,0,0,1,,,,,0,,,76,0
53909,note_on,,,,,29,0,1,,,,,0,,,79,0
53910,note_on,,,,,0,0,1,,,,,0,,,74,49
53910,note_on,,,,,1,0,1,,,,,0,,,77,55
53918,note_on,,,,,35,0,8,,,,,2,,,69,0
53920,note_on,,,,,35,0,7,,,,,2,,,77,0
53924,note_on,,,,,14,0,1,,,,,0,,,74,0
53924,note_on,,,,,0,0,1,,,,,0,,,77,0
53925,note_on,,,,,37,0,9,,,,,2,,,57,0
53936,note_on,,,,,16,0,7,,,,,2,,,77,78
53939,note_on,,,,,59,0,2,,,,,0,,,53,0
53939,note_on,,,,,21,0,8,,,,,2,,,69,78
53939,note_on,,,,,0,0,2,,,,,0,,,41,0
53940,note_on,,,,,0,0,1,,,,,0,,,76,49
53940,note_on,,,,,16,0,1,,,,,0,,,73,62
53942,note_on,,,,,17,0,9,,,,,2,,,57,78
53954,note_on,,,,,14,0,1,,,,,0,,,76,0
53954,note_on,,,,,0,0,1,,,,,0,,,73,0
53970,note_on,,,,,16,0,1,,,,,0,,,77,44
53970,note_on,,,,,0,0,1,,,,,0,,,74,55
53984,note_on,,,,,107,0,10,,,,,2,,,53,0
53984,note_on,,,,,0,0,1,,,,,0,,,77,0
53984,note_on,,,,,14,0,1,,,,,0,,,74,0
53989,note_on,,,,,53,0,7,,,,,2,,,77,0
53994,note_on,,,,,52,0,9,,,,,2,,,57,0
53996,note_on,,,,,12,0,10,,,,,2,,,55,110
53997,note_on,,,,,8,0,7,,,,,2,,,76,70
53997,note_on,,,,,58,0,8,,,,,2,,,69,0
54000,note_on,,,,,16,0,1,,,,,0,,,74,62
54000,note_on,,,,,0,0,1,,,,,0,,,77,62
54000,note_on,,,,,61,0,2,,,,,0,,,43,70
54000,note_on,,,,,0,0,2,,,,,0,,,55,62
54004,note_on,,,,,10,0,9,,,,,2,,,60,88
54004,note_on,,,,,7,0,8,,,,,2,,,67,88
54029,note_on,,,,,0,0,1,,,,,0,,,74,0
54029,note_on,,,,,29,0,1,,,,,0,,,77,0
54030,note_on,,,,,1,0,1,,,,,0,,,76,39
54030,note_on,,,,,0,0,1,,,,,0,,,72,49
54044,note_on,,,,,0,0,1,,,,,0,,,76,0
54044,note_on,,,,,14,0,1,,,,,0,,,72,0
54059,note_on,,,,,0,0,2,,,,,0,,,43,0
54059,note_on,,,,,59,0,2,,,,,0,,,55,0
54060,note_on,,,,,0,0,1,,,,,0,,,71,55
54060,note_on,,,,,16,0,1,,,,,0,,,75,70
54089,note_on,,,,,0,0,1,,,,,0,,,75,0
54089,note_on,,,,,29,0,1,,,,,0,,,71,0
54090,note_on,,,,,1,0,1,,,,,0,,,72,49
54090,note_on,,,,,0,0,1,,,,,0,,,76,44
54104,note_on,,,,,0,0,1,,,,,0,,,72,0
54104,note_on,,,,,14,0,1,,,,,0,,,76,0
54118,note_on,,,,,114,0,9,,,,,2,,,60,0
54120,note_on,,,,,16,0,1,,,,,0,,,72,70
54120,note_on,,,,,0,0,1,,,,,0,,,76,70
54120,note_on,,,,,61,0,2,,,,,0,,,43,78
54120,note_on,,,,,0,0,7,,,,,2,,,74,98
54120,note_on,,,,,0,0,2,,,,,0,,,31,78
54120,note_on,,,,,123,0,7,,,,,2,,,76,0
54123,note_on,,,,,5,0,9,,,,,2,,,59,88
54149,note_on,,,,,29,0,1,,,,,0,,,76,0
54149,note_on,,,,,0,0,1,,,,,0,,,72,0
54150,note_on,,,,,1,0,1,,,,,0,,,74,62
54150,note_on,,,,,0,0,1,,,,,0,,,71,62
54164,note_on,,,,,14,0,1,,,,,0,,,71,0
54164,note_on,,,,,0,0,1,,,,,0,,,74,0
54164,note_on,,,,,44,0,2,,,,,0,,,43,0
54179,note_on,,,,,15,0,2,,,,,0,,,31,0
54180,note_on,,,,,0,0,1,,,,,0,,,69,62
54180,note_on,,,,,16,0,1,,,,,0,,,73,70
54209,note_on,,,,,0,0,1,,,,,0,,,73,0
54209,note_on,,,,,29,0,1,,,,,0,,,69,0
54210,note_on,,,,,0,0,1,,,,,0,,,74,70
54210,note_on,,,,,1,0,1,,,,,0,,,71,62
54215,note_on,,,,,211,0,8,,,,,2,,,67,0
54224,note_on,,,,,0,0,1,,,,,0,,,71,0
54224,note_on,,,,,14,0,1,,,,,0,,,74,0
54227,note_on,,,,,104,0,9,,,,,2,,,59,0
54239,note_on,,,,,119,0,7,,,,,2,,,74,0
54240,note_on,,,,,16,0,1,,,,,0,,,72,70
54240,note_on,,,,,0,0,2,,,,,0,,,48,98
54240,note_on,,,,,61,0,2,,,,,0,,,36,98
54242,note_on,,,,,246,0,10,,,,,2,,,55,0
54243,note_on,,,,,28,0,8,,,,,2,,,67,98
54244,note_on,,,,,2,0,10,,,,,2,,,48,110
54245,note_on,,,,,6,0,7,,,,,2,,,72,98
54247,note_on,,,,,20,0,9,,,,,2,,,60,110
54254,note_on,,,,,14,0,1,,,,,0,,,72,0
54270,note_on,,,,,16,0,1,,,,,0,,,72,88
54282,end_of_track,,,,,0,1,7,,,,,,,,,
54282,note_on,,,,,37,0,7,,,,,2,,,72,0
54289,end_of_track,,,,,0,1,9,,,,,,,,,
54289,note_on,,,,,42,0,9,,,,,2,,,60,0
54299,note_on,,,,,29,0,1,,,,,0,,,72,0
54300,note_on,,,,,9061,0,5,,,,,1,,,60,90
54300,note_on,,,,,1,0,1,,,,,0,,,71,88
54300,note_on,,,,,9073,0,3,,,,,1,,,72,90
54314,note_on,,,,,74,0,2,,,,,0,,,36,0
54329,note_on,,,,,15,0,2,,,,,0,,,48,0
54329,note_on,,,,,29,0,5,,,,,1,,,60,0
54329,note_on,,,,,29,0,1,,,,,0,,,71,0
54330,note_on,,,,,1,0,1,,,,,0,,,72,78
54337,end_of_track,,,,,0,1,8,,,,,,,,,
54337,note_on,,,,,94,0,8,,,,,2,,,67,0
54340,note_on,,,,,40,0,3,,,,,1,,,72,0
54357,note_on,,,,,113,0,10,,,,,2,,,48,0
54357,end_of_track,,,,,0,1,10,,,,,,,,,
54359,note_on,,,,,29,0,1,,,,,0,,,72,0
54360,note_on,,,,,31,0,5,,,,,1,,,60,90
54360,note_on,,,,,20,0,3,,,,,1,,,72,90
54360,note_on,,,,,31,0,2,,,,,0,,,48,110
54360,note_on,,,,,1,0,1,,,,,0,,,74,98
54360,note_on,,,,,0,0,2,,,,,0,,,60,98
54389,note_on,,,,,29,0,5,,,,,1,,,60,0
54389,note_on,,,,,29,0,1,,,,,0,,,74,0
54390,note_on,,,,,1,0,1,,,,,0,,,72,88
54400,note_on,,,,,40,0,3,,,,,1,,,72,0
54419,note_on,,,,,29,0,1,,,,,0,,,72,0
54420,note_on,,,,,20,0,3,,,,,1,,,72,90
54420,note_on,,,,,1,0,1,,,,,0,,,71,88
54420,note_on,,,,,31,0,5,,,,,1,,,60,90
54434,note_on,,,,,0,0,2,,,,,0,,,48,0
54434,note_on,,,,,74,0,2,,,,,0,,,60,0
54449,note_on,,,,,29,0,5,,,,,1,,,60,0
54449,note_on,,,,,29,0,1,,,,,0,,,71,0
54450,note_on,,,,,0,0,2,,,,,0,,,48,70
54450,note_on,,,,,1,0,1,,,,,0,,,72,88
54450,note_on,,,,,16,0,2,,,,,0,,,60,78
54458,note_on,,,,,38,0,3,,,,,1,,,72,0
54464,note_on,,,,,14,0,2,,,,,0,,,48,0
54464,note_on,,,,,0,0,2,,,,,0,,,60,0
54479,note_on,,,,,29,0,1,,,,,0,,,72,0
54480,note_on,,,,,31,0,5,,,,,1,,,60,78
54480,note_on,,,,,9241,0,6,,,,,1,,,48,90
54480,note_on,,,,,16,0,2,,,,,0,,,48,110
54480,note_on,,,,,1,0,1,,,,,0,,,60,88
54480,note_on,,,,,22,0,3,,,,,1,,,72,90
54480,note_on,,,,,0,0,2,,,,,0,,,36,110
54480,note_on,,,,,9242,0,4,,,,,1,,,60,78
54509,note_on,,,,,29,0,1,,,,,0,,,60,0
54509,note_on,,,,,29,0,2,,,,,0,,,36,0
54509,note_on,,,,,0,0,2,,,,,0,,,48,0
54510,note_on,,,,,1,0,1,,,,,0,,,72,88
54539,note_on,,,,,29,0,1,,,,,0,,,72,0
54539,note_on,,,,,59,0,6,,,,,1,,,48,0
54540,note_on,,,,,0,0,2,,,,,0,,,50,98
54540,note_on,,,,,1,0,6,,,,,1,,,50,90
54540,note_on,,,,,1,0,1,,,,,0,,,62,88
54540,note_on,,,,,31,0,2,,,,,0,,,38,98
54540,note_on,,,,,60,0,4,,,,,1,,,62,78
54544,note_on,,,,,4,0,4,,,,,1,,,60,0
54569,note_on,,,,,29,0,2,,,,,0,,,50,0
54569,note_on,,,,,0,0,2,,,,,0,,,38,0
54569,note_on,,,,,29,0,1,,,,,0,,,62,0
54569,note_on,,,,,29,0,6,,,,,1,,,50,0
54570,note_on,,,,,1,0,1,,,,,0,,,72,88
54585,note_on,,,,,41,0,4,,,,,1,,,62,0
54599,note_on,,,,,29,0,1,,,,,0,,,72,0
54600,note_on,,,,,0,0,2,,,,,0,,,52,98
54600,note_on,,,,,1,0,1,,,,,0,,,64,98
54600,note_on,,,,,31,0,2,,,,,0,,,40,98
54600,note_on,,,,,31,0,6,,,,,1,,,52,78
54600,note_on,,,,,15,0,4,,,,,1,,,64,68
54629,note_on,,,,,29,0,2,,,,,0,,,52,0
54629,note_on,,,,,0,0,2,,,,,0,,,40,0
54629,note_on,,,,,29,0,1,,,,,0,,,64,0
54630,note_on,,,,,1,0,1,,,,,0,,,72,88
54656,note_on,,,,,56,0,4,,,,,1,,,64,0
54659,note_on,,,,,29,0,1,,,,,0,,,72,0
54659,note_on,,,,,59,0,6,,,,,1,,,52,0
54660,note_on,,,,,1,0,1,,,,,0,,,65,98
54660,note_on,,,,,0,0,2,,,,,0,,,53,110
54660,note_on,,,,,31,0,2,,,,,0,,,41,98
54660,note_on,,,,,4,0,4,,,,,1,,,65,90
54660,note_on,,,,,1,0,6,,,,,1,,,53,78
54689,note_on,,,,,29,0,2,,,,,0,,,53,0
54689,note_on,,,,,0,0,2,,,,,0,,,41,0
54689,note_on,,,,,29,0,1,,,,,0,,,65,0
54690,note_on,,,,,1,0,1,,,,,0,,,72,78
54700,note_on,,,,,40,0,4,,,,,1,,,65,0
54719,note_on,,,,,29,0,1,,,,,0,,,72,0
54719,note_on,,,,,59,0,6,,,,,1,,,53,0
54720,note_on,,,,,31,0,2,,,,,0,,,43,88
54720,note_on,,,,,20,0,4,,,,,1,,,67,78
54720,note_on,,,,,1,0,1,,,,,0,,,67,98
54720,note_on,,,,,1,0,6,,,,,1,,,55,90
54720,note_on,,,,,0,0,2,,,,,0,,,55,98
54734,note_on,,,,,14,0,1,,,,,0,,,67,0
54750,note_on,,,,,16,0,1,,,,,0,,,72,98
54779,note_on,,,,,29,0,1,,,,,0,,,72,0
54780,note_on,,,,,1,0,1,,,,,0,,,71,88
54809,note_on,,,,,0,0,2,,,,,0,,,43,0
54809,note_on,,,,,329,0,5,,,,,1,,,60,0
54809,note_on,,,,,29,0,1,,,,,0,,,71,0
54809,note_on,,,,,89,0,2,,,,,0,,,55,0
54810,note_on,,,,,1,0,1,,,,,0,,,72,78
54816,note_on,,,,,336,0,3,,,,,1,,,72,0
54839,note_on,,,,,29,0,1,,,,,0,,,72,0
54840,note_on,,,,,31,0,2,,,,,0,,,48,110
54840,note_on,,,,,0,0,2,,,,,0,,,60,110
54840,note_on,,,,,31,0,5,,,,,1,,,60,78
54840,note_on,,,,,1,0,1,,,,,0,,,74,98
54840,note_on,,,,,24,0,3,,,,,1,,,72,90
54869,note_on,,,,,29,0,5,,,,,1,,,60,0
54869,note_on,,,,,29,0,1,,,,,0,,,74,0
54870,note_on,,,,,1,0,1,,,,,0,,,72,70
54879,note_on,,,,,39,0,3,,,,,1,,,72,0
54899,note_on,,,,,29,0,1,,,,,0,,,72,0
54899,note_on,,,,,59,0,2,,,,,0,,,60,0
54900,note_on,,,,,21,0,3,,,,,1,,,72,78
54900,note_on,,,,,31,0,5,,,,,1,,,60,78
54900,note_on,,,,,1,0,1,,,,,0,,,71,88
54914,note_on,,,,,15,0,2,,,,,0,,,48,0
54929,note_on,,,,,29,0,1,,,,,0,,,71,0
54929,note_on,,,,,29,0,5,,,,,1,,,60,0
54930,note_on,,,,,1,0,1,,,,,0,,,72,78
54930,note_on,,,,,16,0,2,,,,,0,,,60,88
54930,note_on,,,,,0,0,2,,,,,0,,,48,88
54939,note_on,,,,,39,0,3,,,,,1,,,72,0
54944,note_on,,,,,14,0,2,,,,,0,,,48,0
54944,note_on,,,,,0,0,2,,,,,0,,,60,0
54944,note_on,,,,,14,0,1,,,,,0,,,72,0
54954,note_on,,,,,234,0,4,,,,,1,,,67,0
54959,note_on,,,,,239,0,6,,,,,1,,,55,0
54960,note_on,,,,,1,0,6,,,,,1,,,52,90
54960,note_on,,,,,21,0,3,,,,,1,,,72,90
54960,note_on,,,,,16,0,2,,,,,0,,,40,98
54960,note_on,,,,,0,0,2,,,,,0,,,52,98
54960,note_on,,,,,31,0,5,,,,,1,,,60,90
54960,note_on,,,,,16,0,1,,,,,0,,,64,98
54960,note_on,,,,,6,0,4,,,,,1,,,64,90
54989,note_on,,,,,29,0,1,,,,,0,,,64,0
54989,note_on,,,,,29,0,2,,,,,0,,,40,0
54990,note_on,,,,,1,0,1,,,,,0,,,72,78
55004,note_on,,,,,14,0,1,,,,,0,,,72,0
55004,note_on,,,,,15,0,2,,,,,0,,,52,0
55019,note_on,,,,,59,0,6,,,,,1,,,52,0
55020,note_on,,,,,0,0,2,,,,,0,,,53,98
55020,note_on,,,,,16,0,2,,,,,0,,,41,98
55020,note_on,,,,,60,0,4,,,,,1,,,65,78
55020,note_on,,,,,16,0,1,,,,,0,,,65,98
55020,note_on,,,,,1,0,6,,,,,1,,,53,78
55024,note_on,,,,,4,0,4,,,,,1,,,64,0
55049,note_on,,,,,29,0,1,,,,,0,,,65,0
55049,note_on,,,,,29,0,2,,,,,0,,,53,0
55049,note_on,,,,,0,0,2,,,,,0,,,41,0
55050,note_on,,,,,1,0,1,,,,,0,,,72,78
55069,note_on,,,,,45,0,4,,,,,1,,,65,0
55079,note_on,,,,,29,0,1,,,,,0,,,72,0
55079,note_on,,,,,59,0,6,,,,,1,,,53,0
55080,note_on,,,,,1,0,6,,,,,1,,,55,78
55080,note_on,,,,,1,0,1,,,,,0,,,67,98
55080,note_on,,,,,11,0,4,,,,,1,,,67,78
55080,note_on,,,,,0,0,2,,,,,0,,,55,98
55080,note_on,,,,,31,0,2,,,,,0,,,43,88
55109,note_on,,,,,29,0,2,,,,,0,,,55,0
55109,note_on,,,,,0,0,2,,,,,0,,,43,0
55109,note_on,,,,,29,0,1,,,,,0,,,67,0
55110,note_on,,,,,1,0,1,,,,,0,,,72,78
55134,note_on,,,,,54,0,4,,,,,1,,,67,0
55139,note_on,,,,,29,0,1,,,,,0,,,72,0
55139,note_on,,,,,59,0,6,,,,,1,,,55,0
55140,note_on,,,,,1,0,1,,,,,0,,,69,88
55140,note_on,,,,,6,0,4,,,,,1,,,69,68
55140,note_on,,,,,31,0,2,,,,,0,,,45,88
55140,note_on,,,,,0,0,2,,,,,0,,,57,98
55140,note_on,,,,,1,0,6,,,,,1,,,57,78
55169,note_on,,,,,29,0,1,,,,,0,,,69,0
55169,note_on,,,,,29,0,2,,,,,0,,,57,0
55169,note_on,,,,,0,0,2,,,,,0,,,45,0
55169,note_on,,,,,29,0,6,,,,,1,,,57,0
55170,note_on,,,,,1,0,1,,,,,0,,,72,78
55195,note_on,,,,,55,0,4,,,,,1,,,69,0
55199,note_on,,,,,29,0,1,,,,,0,,,72,0
55200,note_on,,,,,5,0,4,,,,,1,,,70,90
55200,note_on,,,,,31,0,2,,,,,0,,,46,110
55200,note_on,,,,,0,0,2,,,,,0,,,58,110
55200,note_on,,,,,31,0,6,,,,,1,,,58,90
55200,note_on,,,,,1,0,1,,,,,0,,,70,110
55229,note_on,,,,,29,0,1,,,,,0,,,70,0
55230,note_on,,,,,1,0,1,,,,,0,,,72,78
55259,note_on,,,,,29,0,1,,,,,0,,,72,0
55260,note_on,,,,,1,0,1,,,,,0,,,71,88
55274,note_on,,,,,314,0,3,,,,,1,,,72,0
55289,note_on,,,,,29,0,1,,,,,0,,,71,0
55289,note_on,,,,,329,0,5,,,,,1,,,60,0
55290,note_on,,,,,1,0,1,,,,,0,,,72,78
55290,note_on,,,,,1,0,5,,,,,1,,,60,78
55290,note_on,,,,,16,0,3,,,,,1,,,72,90
55304,note_on,,,,,0,0,2,,,,,0,,,46,0
55304,note_on,,,,,104,0,2,,,,,0,,,58,0
55305,note_on,,,,,15,0,3,,,,,1,,,72,0
55319,note_on,,,,,29,0,5,,,,,1,,,60,0
55319,note_on,,,,,29,0,1,,,,,0,,,72,0
55320,note_on,,,,,16,0,2,,,,,0,,,48,88
55320,note_on,,,,,0,0,2,,,,,0,,,60,98
55320,note_on,,,,,15,0,3,,,,,1,,,72,90
55320,note_on,,,,,1,0,1,,,,,0,,,74,98
55320,note_on,,,,,1,0,5,,,,,1,,,60,90
55349,note_on,,,,,29,0,1,,,,,0,,,74,0
55349,note_on,,,,,29,0,5,,,,,1,,,60,0
55349,note_on,,,,,149,0,6,,,,,1,,,58,0
55350,note_on,,,,,1,0,1,,,,,0,,,72,70
55363,note_on,,,,,43,0,3,,,,,1,,,72,0
55372,note_on,,,,,172,0,4,,,,,1,,,70,0
55379,note_on,,,,,29,0,1,,,,,0,,,72,0
55380,note_on,,,,,1,0,1,,,,,0,,,71,88
55380,note_on,,,,,31,0,6,,,,,1,,,58,90
55380,note_on,,,,,8,0,4,,,,,1,,,67,78
55380,note_on,,,,,17,0,3,,,,,1,,,72,90
55380,note_on,,,,,31,0,5,,,,,1,,,60,78
55394,note_on,,,,,0,0,2,,,,,0,,,48,0
55394,note_on,,,,,74,0,2,,,,,0,,,60,0
55409,note_on,,,,,29,0,6,,,,,1,,,58,0
55409,note_on,,,,,29,0,1,,,,,0,,,71,0
55410,note_on,,,,,30,0,3,,,,,1,,,72,0
55410,note_on,,,,,1,0,1,,,,,0,,,72,78
55410,note_on,,,,,16,0,2,,,,,0,,,48,88
55410,note_on,,,,,0,0,2,,,,,0,,,60,98
55424,note_on,,,,,14,0,2,,,,,0,,,60,0
55424,note_on,,,,,0,0,2,,,,,0,,,48,0
55435,note_on,,,,,55,0,4,,,,,1,,,67,0
55439,note_on,,,,,59,0,5,,,,,1,,,60,0
55439,note_on,,,,,29,0,1,,,,,0,,,72,0
55440,note_on,,,,,1,0,1,,,,,0,,,76,88
55440,note_on,,,,,5,0,4,,,,,1,,,64,78
55440,note_on,,,,,30,0,3,,,,,1,,,72,90
55440,note_on,,,,,1,0,5,,,,,1,,,55,78
55440,note_on,,,,,0,0,2,,,,,0,,,46,98
55440,note_on,,,,,16,0,2,,,,,0,,,58,110
55440,note_on,,,,,31,0,6,,,,,1,,,58,90
55469,note_on,,,,,29,0,1,,,,,0,,,76,0
55470,note_on,,,,,1,0,1,,,,,0,,,72,78
55484,note_on,,,,,44,0,2,,,,,0,,,46,0
55484,note_on,,,,,0,0,2,,,,,0,,,58,0
55499,note_on,,,,,29,0,1,,,,,0,,,72,0
55499,note_on,,,,,59,0,6,,,,,1,,,58,0
55499,note_on,,,,,59,0,5,,,,,1,,,55,0
55500,note_on,,,,,0,0,2,,,,,0,,,57,98
55500,note_on,,,,,16,0,2,,,,,0,,,45,88
55500,note_on,,,,,1,0,6,,,,,1,,,57,78
55500,note_on,,,,,60,0,4,,,,,1,,,65,78
55500,note_on,,,,,1,0,5,,,,,1,,,57,78
55500,note_on,,,,,1,0,1,,,,,0,,,77,98
55525,note_on,,,,,25,0,4,,,,,1,,,64,0
55529,note_on,,,,,29,0,1,,,,,0,,,77,0
55529,note_on,,,,,29,0,2,,,,,0,,,45,0
55530,note_on,,,,,1,0,1,,,,,0,,,72,70
55539,note_on,,,,,99,0,3,,,,,1,,,72,0
55544,note_on,,,,,15,0,2,,,,,0,,,57,0
55559,note_on,,,,,59,0,6,,,,,1,,,57,0
55559,note_on,,,,,29,0,1,,,,,0,,,72,0
55559,note_on,,,,,59,0,5,,,,,1,,,57,0
55560,note_on,,,,,21,0,3,,,,,1,,,72,90
55560,note_on,,,,,1,0,5,,,,,1,,,58,78
55560,note_on,,,,,0,0,1,,,,,0,,,79,88
55560,note_on,,,,,0,0,2,,,,,0,,,55,98
55560,note_on,,,,,16,0,2,,,,,0,,,43,98
55560,note_on,,,,,1,0,1,,,,,0,,,76,88
55560,note_on,,,,,1,0,6,,,,,1,,,55,78
55560,note_on,,,,,35,0,4,,,,,1,,,67,68
55563,note_on,,,,,3,0,4,,,,,1,,,65,0
55589,note_on,,,,,29,0,1,,,,,0,,,79,0
55589,note_on,,,,,0,0,1,,,,,0,,,76,0
55590,note_on,,,,,1,0,1,,,,,0,,,72,78
55604,note_on,,,,,44,0,2,,,,,0,,,55,0
55604,note_on,,,,,0,0,2,,,,,0,,,43,0
55616,note_on,,,,,53,0,4,,,,,1,,,67,0
55619,note_on,,,,,59,0,5,,,,,1,,,58,0
55619,note_on,,,,,59,0,6,,,,,1,,,55,0
55619,note_on,,,,,29,0,1,,,,,0,,,72,0
55620,note_on,,,,,4,0,4,,,,,1,,,69,78
55620,note_on,,,,,16,0,2,,,,,0,,,41,88
55620,note_on,,,,,0,0,1,,,,,0,,,81,88
55620,note_on,,,,,1,0,1,,,,,0,,,77,98
55620,note_on,,,,,0,0,2,,,,,0,,,53,98
55620,note_on,,,,,1,0,5,,,,,1,,,57,78
55620,note_on,,,,,1,0,6,,,,,1,,,53,78
55649,note_on,,,,,29,0,1,,,,,0,,,81,0
55649,note_on,,,,,0,0,1,,,,,0,,,77,0
55649,note_on,,,,,29,0,2,,,,,0,,,41,0
55650,note_on,,,,,1,0,1,,,,,0,,,72,70
55657,note_on,,,,,97,0,3,,,,,1,,,72,0
55664,note_on,,,,,15,0,2,,,,,0,,,53,0
55676,note_on,,,,,56,0,4,,,,,1,,,69,0
55679,note_on,,,,,29,0,1,,,,,0,,,72,0
55679,note_on,,,,,59,0,5,,,,,1,,,57,0
55679,note_on,,,,,59,0,6,,,,,1,,,53,0
55680,note_on,,,,,1,0,1,,,,,0,,,82,124
55680,note_on,,,,,1,0,5,,,,,1,,,55,90
55680,note_on,,,,,1,0,6,,,,,1,,,52,90
55680,note_on,,,,,4,0,4,,,,,1,,,70,90
55680,note_on,,,,,23,0,3,,,,,1,,,72,90
55680,note_on,,,,,16,0,2,,,,,0,,,40,88
55680,note_on,,,,,0,0,2,,,,,0,,,52,98
55709,note_on,,,,,29,0,1,,,,,0,,,82,0
55710,note_on,,,,,1,0,1,,,,,0,,,79,78
55739,note_on,,,,,59,0,6,,,,,1,,,52,0
55739,note_on,,,,,29,0,1,,,,,0,,,79,0
55739,note_on,,,,,59,0,5,,,,,1,,,55,0
55740,note_on,,,,,1,0,1,,,,,0,,,72,78
55755,note_on,,,,,75,0,4,,,,,1,,,70,0
55769,note_on,,,,,89,0,2,,,,,0,,,40,0
55769,note_on,,,,,29,0,1,,,,,0,,,72,0
55770,note_on,,,,,1,0,1,,,,,0,,,82,98
55770,note_on,,,,,31,0,6,,,,,1,,,52,78
55770,note_on,,,,,31,0,5,,,,,1,,,55,78
55770,note_on,,,,,15,0,4,,,,,1,,,70,90
55784,note_on,,,,,14,0,1,,,,,0,,,82,0
55784,note_on,,,,,15,0,2,,,,,0,,,52,0
55796,note_on,,,,,26,0,4,,,,,1,,,70,0
55799,note_on,,,,,29,0,6,,,,,1,,,52,0
55799,note_on,,,,,29,0,5,,,,,1,,,55,0
55800,note_on,,,,,16,0,2,,,,,0,,,41,88
55800,note_on,,,,,1,0,6,,,,,1,,,53,78
55800,note_on,,,,,1,0,5,,,,,1,,,53,90
55800,note_on,,,,,16,0,1,,,,,0,,,81,78
55800,note_on,,,,,4,0,4,,,,,1,,,69,78
55800,note_on,,,,,0,0,2,,,,,0,,,53,98
55829,note_on,,,,,29,0,1,,,,,0,,,81,0
55829,note_on,,,,,29,0,5,,,,,1,,,53,0
55830,note_on,,,,,1,0,1,,,,,0,,,77,88
55835,note_on,,,,,155,0,3,,,,,1,,,72,0
55835,note_on,,,,,35,0,4,,,,,1,,,69,0
55859,note_on,,,,,59,0,6,,,,,1,,,53,0
55860,note_on,,,,,1,0,6,,,,,1,,,53,78
55860,note_on,,,,,31,0,5,,,,,1,,,53,90
55860,note_on,,,,,25,0,3,,,,,1,,,72,78
55860,note_on,,,,,25,0,4,,,,,1,,,69,78
55860,note_on,,,,,30,0,1,,,,,0,,,72,78
55874,note_on,,,,,14,0,1,,,,,0,,,77,0
55889,note_on,,,,,15,0,1,,,,,0,,,72,0
55890,note_on,,,,,1,0,1,,,,,0,,,81,88
55896,note_on,,,,,36,0,3,,,,,1,,,72,0
55904,note_on,,,,,104,0,2,,,,,0,,,53,0
55904,note_on,,,,,0,0,2,,,,,0,,,41,0
55914,note_on,,,,,54,0,4,,,,,1,,,69,0
55919,note_on,,,,,59,0,5,,,,,1,,,53,0
55919,note_on,,,,,59,0,6,,,,,1,,,53,0
55919,note_on,,,,,29,0,1,,,,,0,,,81,0
55920,note_on,,,,,24,0,3,,,,,1,,,72,78
55920,note_on,,,,,1,0,5,,,,,1,,,55,78
55920,note_on,,,,,1,0,6,,,,,1,,,52,78
55920,note_on,,,,,0,0,2,,,,,0,,,60,98
55920,note_on,,,,,6,0,4,,,,,1,,,67,78
55920,note_on,,,,,16,0,2,,,,,0,,,52,98
55920,note_on,,,,,1,0,1,,,,,0,,,79,88
55949,note_on,,,,,29,0,2,,,,,0,,,60,0
55949,note_on,,,,,0,0,2,,,,,0,,,52,0
55949,note_on,,,,,29,0,1,,,,,0,,,79,0
55949,note_on,,,,,29,0,5,,,,,1,,,55,0
55950,note_on,,,,,1,0,1,,,,,0,,,76,70
55956,note_on,,,,,36,0,3,,,,,1,,,72,0
55972,note_on,,,,,52,0,4,,,,,1,,,67,0
55979,note_on,,,,,29,0,1,,,,,0,,,76,0
55979,note_on,,,,,59,0,6,,,,,1,,,52,0
55980,note_on,,,,,1,0,1,,,,,0,,,79,78
55980,note_on,,,,,1,0,6,,,,,1,,,48,68
55980,note_on,,,,,0,0,2,,,,,0,,,60,98
55980,note_on,,,,,31,0,5,,,,,1,,,60,78
55980,note_on,,,,,31,0,2,,,,,0,,,48,98
55980,note_on,,,,,8,0,4,,,,,1,,,64,68
55980,note_on,,,,,24,0,3,,,,,1,,,72,68
56009,note_on,,,,,0,0,2,,,,,0,,,48,0
56009,note_on,,,,,29,0,1,,,,,0,,,79,0
56009,note_on,,,,,29,0,2,,,,,0,,,60,0
56010,note_on,,,,,1,0,1,,,,,0,,,76,78
56033,note_on,,,,,53,0,4,,,,,1,,,64,0
56036,note_on,,,,,56,0,3,,,,,1,,,72,0
56039,note_on,,,,,29,0,1,,,,,0,,,76,0
56039,note_on,,,,,59,0,6,,,,,1,,,48,0
56040,note_on,,,,,4,0,3,,,,,1,,,77,78
56040,note_on,,,,,7,0,4,,,,,1,,,69,78
56040,note_on,,,,,1,0,1,,,,,0,,,77,98
56040,note_on,,,,,0,0,2,,,,,0,,,60,98
56040,note_on,,,,,1,0,6,,,,,1,,,50,78
56040,note_on,,,,,31,0,2,,,,,0,,,50,98
56069,note_on,,,,,29,0,2,,,,,0,,,50,0
56084,note_on,,,,,15,0,2,,,,,0,,,60,0
56090,note_on,,,,,50,0,4,,,,,1,,,69,0
56099,note_on,,,,,59,0,1,,,,,0,,,77,0
56099,note_on,,,,,119,0,5,,,,,1,,,60,0
56099,note_on,,,,,59,0,6,,,,,1,,,50,0
56100,note_on,,,,,1,0,5,,,,,1,,,59,78
56100,note_on,,,,,0,0,2,,,,,0,,,55,98
56100,note_on,,,,,16,0,2,,,,,0,,,43,78
56100,note_on,,,,,10,0,4,,,,,1,,,67,78
56100,note_on,,,,,1,0,1,,,,,0,,,71,78
56100,note_on,,,,,1,0,6,,,,,1,,,55,78
56100,note_on,,,,,0,0,1,,,,,0,,,76,78
56115,note_on,,,,,75,0,3,,,,,1,,,77,0
56129,note_on,,,,,29,0,1,,,,,0,,,76,0
56129,note_on,,,,,0,0,1,,,,,0,,,71,0
56129,note_on,,,,,29,0,2,,,,,0,,,43,0
56130,note_on,,,,,15,0,3,,,,,1,,,77,78
56130,note_on,,,,,1,0,1,,,,,0,,,74,78
56142,note_on,,,,,42,0,4,,,,,1,,,67,0
56144,note_on,,,,,15,0,2,,,,,0,,,55,0
56156,note_on,,,,,26,0,3,,,,,1,,,77,0
56159,note_on,,,,,59,0,5,,,,,1,,,59,0
56159,note_on,,,,,29,0,1,,,,,0,,,74,0
56159,note_on,,,,,59,0,6,,,,,1,,,55,0
56160,note_on,,,,,1,0,5,,,,,1,,,60,78
56160,note_on,,,,,4,0,3,,,,,1,,,76,78
56160,note_on,,,,,0,0,2,,,,,0,,,36,88
56160,note_on,,,,,16,0,2,,,,,0,,,48,88
56160,note_on,,,,,18,0,4,,,,,1,,,67,90
56160,note_on,,,,,1,0,1,,,,,0,,,72,88
56160,note_on,,,,,1,0,6,,,,,1,,,48,78
56174,note_on,,,,,14,0,1,,,,,0,,,72,0
56190,note_on,,,,,16,0,1,,,,,0,,,71,88
56200,note_on,,,,,40,0,3,,,,,1,,,76,0
56204,note_on,,,,,14,0,1,,,,,0,,,71,0
56220,note_on,,,,,20,0,3,,,,,1,,,76,68
56220,note_on,,,,,16,0,1,,,,,0,,,84,88
56249,note_on,,,,,29,0,1,,,,,0,,,84,0
56249,note_on,,,,,89,0,5,,,,,1,,,60,0
56249,note_on,,,,,89,0,2,,,,,0,,,36,0
56250,note_on,,,,,1,0,1,,,,,0,,,83,70
56257,note_on,,,,,37,0,3,,,,,1,,,76,0
56264,note_on,,,,,15,0,2,,,,,0,,,48,0
56279,note_on,,,,,119,0,6,,,,,1,,,48,0
56279,note_on,,,,,29,0,1,,,,,0,,,83,0
56280,note_on,,,,,23,0,3,,,,,1,,,76,78
56280,note_on,,,,,1,0,1,,,,,0,,,81,70
56280,note_on,,,,,0,0,2,,,,,0,,,64,88
56280,note_on,,,,,16,0,2,,,,,0,,,60,98
56280,note_on,,,,,31,0,5,,,,,1,,,60,78
56305,note_on,,,,,145,0,4,,,,,1,,,67,0
56309,note_on,,,,,29,0,1,,,,,0,,,81,0
56310,note_on,,,,,1,0,1,,,,,0,,,79,70
56339,note_on,,,,,0,0,2,,,,,0,,,60,0
56339,note_on,,,,,29,0,1,,,,,0,,,79,0
56339,note_on,,,,,59,0,2,,,,,0,,,64,0
56340,note_on,,,,,35,0,4,,,,,1,,,67,78
56340,note_on,,,,,1,0,2,,,,,0,,,48,98
56340,note_on,,,,,1,0,1,,,,,0,,,77,62
56363,note_on,,,,,83,0,3,,,,,1,,,76,0
56369,note_on,,,,,29,0,1,,,,,0,,,77,0
56370,note_on,,,,,1,0,1,,,,,0,,,76,70
56370,note_on,,,,,7,0,3,,,,,1,,,76,68
56384,note_on,,,,,14,0,1,,,,,0,,,76,0
56395,note_on,,,,,25,0,3,,,,,1,,,76,0
56398,note_on,,,,,58,0,4,,,,,1,,,67,0
56399,note_on,,,,,59,0,2,,,,,0,,,48,0
56400,note_on,,,,,5,0,3,,,,,1,,,74,78
56400,note_on,,,,,16,0,1,,,,,0,,,76,78
56400,note_on,,,,,2,0,4,,,,,1,,,69,90
56400,note_on,,,,,0,0,2,,,,,0,,,62,88
56400,note_on,,,,,1,0,2,,,,,0,,,54,110
56400,note_on,,,,,0,0,2,,,,,0,,,60,88
56400,note_on,,,,,0,0,2,,,,,0,,,57,88
56429,note_on,,,,,29,0,1,,,,,0,,,76,0
56430,note_on,,,,,1,0,1,,,,,0,,,74,62
56444,note_on,,,,,14,0,1,,,,,0,,,74,0
56460,note_on,,,,,16,0,1,,,,,0,,,83,98
56460,note_on,,,,,181,0,6,,,,,1,,,54,90
56467,note_on,,,,,67,0,4,,,,,1,,,69,0
56474,note_on,,,,,74,0,2,,,,,0,,,62,0
56474,note_on,,,,,0,0,2,,,,,0,,,57,0
56474,note_on,,,,,0,0,2,,,,,0,,,60,0
56489,note_on,,,,,15,0,2,,,,,0,,,54,0
56489,note_on,,,,,29,0,1,,,,,0,,,83,0
56490,note_on,,,,,1,0,1,,,,,0,,,81,62
56490,note_on,,,,,23,0,4,,,,,1,,,69,78
56518,note_on,,,,,28,0,4,,,,,1,,,69,0
56519,note_on,,,,,59,0,6,,,,,1,,,54,0
56519,note_on,,,,,119,0,3,,,,,1,,,74,0
56519,note_on,,,,,29,0,1,,,,,0,,,81,0
56519,note_on,,,,,239,0,5,,,,,1,,,60,0
56520,note_on,,,,,31,0,2,,,,,0,,,56,110
56520,note_on,,,,,0,0,2,,,,,0,,,64,98
56520,note_on,,,,,0,0,2,,,,,0,,,59,88
56520,note_on,,,,,0,0,2,,,,,0,,,62,88
56520,note_on,,,,,1,0,1,,,,,0,,,80,88
56520,note_on,,,,,1,0,5,,,,,1,,,59,78
56520,note_on,,,,,2,0,4,,,,,1,,,64,78
56520,note_on,,,,,1,0,6,,,,,1,,,56,90
56549,note_on,,,,,29,0,1,,,,,0,,,80,0
56550,note_on,,,,,1,0,1,,,,,0,,,77,88
56579,note_on,,,,,29,0,1,,,,,0,,,77,0
56579,note_on,,,,,59,0,6,,,,,1,,,56,0
56580,note_on,,,,,1,0,1,,,,,0,,,76,62
56580,note_on,,,,,61,0,3,,,,,1,,,74,90
56594,note_on,,,,,0,0,2,,,,,0,,,59,0
56594,note_on,,,,,0,0,2,,,,,0,,,64,0
56594,note_on,,,,,0,0,2,,,,,0,,,56,0
56594,note_on,,,,,74,0,2,,,,,0,,,62,0
56609,note_on,,,,,29,0,1,,,,,0,,,76,0
56610,note_on,,,,,31,0,6,,,,,1,,,56,78
56610,note_on,,,,,1,0,1,,,,,0,,,74,70
56624,note_on,,,,,14,0,1,,,,,0,,,74,0
56633,note_on,,,,,53,0,3,,,,,1,,,74,0
56639,note_on,,,,,29,0,6,,,,,1,,,56,0
56640,note_on,,,,,1,0,6,,,,,1,,,57,68
56640,note_on,,,,,16,0,1,,,,,0,,,74,98
56640,note_on,,,,,7,0,3,,,,,1,,,72,78
56640,note_on,,,,,0,0,2,,,,,0,,,59,98
56640,note_on,,,,,0,0,2,,,,,0,,,52,98
56640,note_on,,,,,46,0,2,,,,,0,,,45,88
56669,note_on,,,,,29,0,1,,,,,0,,,74,0
56670,note_on,,,,,1,0,1,,,,,0,,,72,70
56679,note_on,,,,,159,0,4,,,,,1,,,64,0
56683,note_on,,,,,43,0,3,,,,,1,,,72,0
56699,note_on,,,,,179,0,5,,,,,1,,,59,0
56699,note_on,,,,,29,0,1,,,,,0,,,72,0
56700,note_on,,,,,21,0,4,,,,,1,,,64,90
56700,note_on,,,,,1,0,1,,,,,0,,,81,88
56700,note_on,,,,,17,0,3,,,,,1,,,72,78
56729,note_on,,,,,29,0,1,,,,,0,,,81,0
56729,note_on,,,,,89,0,2,,,,,0,,,59,0
56730,note_on,,,,,1,0,1,,,,,0,,,79,70
56730,note_on,,,,,31,0,5,,,,,1,,,59,78
56734,note_on,,,,,34,0,3,,,,,1,,,72,0
56737,note_on,,,,,37,0,4,,,,,1,,,64,0
56744,note_on,,,,,0,0,2,,,,,0,,,45,0
56744,note_on,,,,,15,0,2,,,,,0,,,52,0
56759,note_on,,,,,29,0,5,,,,,1,,,59,0
56759,note_on,,,,,29,0,1,,,,,0,,,79,0
56760,note_on,,,,,23,0,4,,,,,1,,,64,78
56760,note_on,,,,,26,0,3,,,,,1,,,72,78
56760,note_on,,,,,1,0,1,,,,,0,,,77,78
56760,note_on,,,,,0,0,2,,,,,0,,,64,98
56760,note_on,,,,,0,0,2,,,,,0,,,57,98
56760,note_on,,,,,1,0,5,,,,,1,,,57,78
56760,note_on,,,,,16,0,2,,,,,0,,,60,98
56789,note_on,,,,,29,0,1,,,,,0,,,77,0
56789,note_on,,,,,149,0,6,,,,,1,,,57,0
56789,note_on,,,,,29,0,5,,,,,1,,,57,0
56790,note_on,,,,,1,0,1,,,,,0,,,76,78
56797,note_on,,,,,37,0,4,,,,,1,,,64,0
56819,note_on,,,,,59,0,2,,,,,0,,,64,0
56819,note_on,,,,,0,0,2,,,,,0,,,57,0
56819,note_on,,,,,0,0,2,,,,,0,,,60,0
56819,note_on,,,,,29,0,1,,,,,0,,,76,0
56820,note_on,,,,,23,0,4,,,,,1,,,64,78
56820,note_on,,,,,31,0,5,,,,,1,,,57,78
56820,note_on,,,,,0,0,6,,,,,1,,,50,78
56820,note_on,,,,,31,0,6,,,,,1,,,48,58
56820,note_on,,,,,1,0,2,,,,,0,,,48,88
56820,note_on,,,,,1,0,1,,,,,0,,,74,70
56849,note_on,,,,,29,0,1,,,,,0,,,74,0
56849,note_on,,,,,29,0,5,,,,,1,,,57,0
56849,note_on,,,,,29,0,6,,,,,1,,,50,0
56850,note_on,,,,,1,0,1,,,,,0,,,72,70
56864,note_on,,,,,14,0,1,,,,,0,,,72,0
56868,note_on,,,,,48,0,4,,,,,1,,,64,0
56879,note_on,,,,,30,0,6,,,,,1,,,48,0
56879,note_on,,,,,59,0,2,,,,,0,,,48,0
56880,note_on,,,,,31,0,5,,,,,1,,,57,78
56880,note_on,,,,,120,0,3,,,,,1,,,70,90
56880,note_on,,,,,1,0,6,,,,,1,,,50,78
56880,note_on,,,,,12,0,4,,,,,1,,,65,90
56880,note_on,,,,,16,0,1,,,,,0,,,72,78
56880,note_on,,,,,0,0,2,,,,,0,,,55,88
56880,note_on,,,,,0,0,2,,,,,0,,,52,88
56880,note_on,,,,,0,0,2,,,,,0,,,60,88
56880,note_on,,,,,1,0,2,,,,,0,,,58,110
56893,note_on,,,,,13,0,3,,,,,1,,,72,0
56909,note_on,,,,,29,0,5,,,,,1,,,57,0
56909,note_on,,,,,29,0,1,,,,,0,,,72,0
56909,note_on,,,,,29,0,6,,,,,1,,,50,0
56910,note_on,,,,,1,0,1,,,,,0,,,70,78
56924,note_on,,,,,14,0,1,,,,,0,,,70,0
56940,note_on,,,,,31,0,6,,,,,1,,,50,78
56940,note_on,,,,,16,0,1,,,,,0,,,79,98
56940,note_on,,,,,31,0,5,,,,,1,,,57,78
56969,note_on,,,,,29,0,6,,,,,1,,,50,0
56969,note_on,,,,,0,0,2,,,,,0,,,55,0
56969,note_on,,,,,0,0,2,,,,,0,,,58,0
56969,note_on,,,,,89,0,2,,,,,0,,,52,0
56969,note_on,,,,,29,0,1,,,,,0,,,79,0
56969,note_on,,,,,0,0,2,,,,,0,,,60,0
56970,note_on,,,,,1,0,1,,,,,0,,,77,70
56978,note_on,,,,,85,0,3,,,,,1,,,70,0
56999,note_on,,,,,29,0,1,,,,,0,,,77,0
56999,note_on,,,,,59,0,5,,,,,1,,,57,0
57000,note_on,,,,,120,0,4,,,,,1,,,60,78
57000,note_on,,,,,1,0,1,,,,,0,,,76,70
57000,note_on,,,,,22,0,3,,,,,1,,,70,90
57000,note_on,,,,,0,0,2,,,,,0,,,55,78
57000,note_on,,,,,0,0,2,,,,,0,,,52,88
57000,note_on,,,,,31,0,6,,,,,1,,,52,78
57000,note_on,,,,,0,0,2,,,,,0,,,60,88
57000,note_on,,,,,1,0,5,,,,,1,,,55,78
57000,note_on,,,,,31,0,2,,,,,0,,,58,98
57007,note_on,,,,,7,0,4,,,,,1,,,65,0
57029,note_on,,,,,29,0,1,,,,,0,,,76,0
57030,note_on,,,,,1,0,1,,,,,0,,,74,70
57036,note_on,,,,,36,0,3,,,,,1,,,70,0
57059,note_on,,,,,29,0,1,,,,,0,,,74,0
57060,note_on,,,,,1,0,1,,,,,0,,,72,62
57060,note_on,,,,,24,0,3,,,,,1,,,70,90
57089,note_on,,,,,0,0,2,,,,,0,,,58,0
57089,note_on,,,,,0,0,2,,,,,0,,,52,0
57089,note_on,,,,,89,0,2,,,,,0,,,55,0
57089,note_on,,,,,29,0,1,,,,,0,,,72,0
57089,note_on,,,,,0,0,2,,,,,0,,,60,0
57090,note_on,,,,,1,0,1,,,,,0,,,70,88
57092,note_on,,,,,85,0,4,,,,,1,,,60,0
57104,note_on,,,,,14,0,1,,,,,0,,,70,0
57109,note_on,,,,,49,0,3,,,,,1,,,70,0
57119,note_on,,,,,119,0,6,,,,,1,,,52,0
57120,note_on,,,,,11,0,3,,,,,1,,,69,78
57120,note_on,,,,,31,0,2,,,,,0,,,41,98
57120,note_on,,,,,0,0,2,,,,,0,,,48,98
57120,note_on,,,,,0,0,2,,,,,0,,,55,98
57120,note_on,,,,,28,0,4,,,,,1,,,60,90
57120,note_on,,,,,16,0,1,,,,,0,,,70,88
57120,note_on,,,,,1,0,6,,,,,1,,,53,90
57149,note_on,,,,,29,0,1,,,,,0,,,70,0
57150,note_on,,,,,1,0,1,,,,,0,,,69,78
57179,note_on,,,,,29,0,1,,,,,0,,,69,0
57180,note_on,,,,,1,0,1,,,,,0,,,77,98
57191,note_on,,,,,71,0,4,,,,,1,,,60,0
57209,note_on,,,,,89,0,2,,,,,0,,,48,0
57209,note_on,,,,,29,0,1,,,,,0,,,77,0
57210,note_on,,,,,19,0,4,,,,,1,,,60,90
57210,note_on,,,,,1,0,1,,,,,0,,,76,62
57224,note_on,,,,,15,0,2,,,,,0,,,55,0
57224,note_on,,,,,0,0,2,,,,,0,,,41,0
57225,note_on,,,,,15,0,4,,,,,1,,,60,0
57239,note_on,,,,,29,0,1,,,,,0,,,76,0
57239,note_on,,,,,239,0,5,,,,,1,,,55,0
57239,note_on,,,,,119,0,6,,,,,1,,,53,0
57240,note_on,,,,,15,0,4,,,,,1,,,60,90
57240,note_on,,,,,1,0,1,,,,,0,,,74,78
57240,note_on,,,,,1,0,5,,,,,1,,,53,90
57240,note_on,,,,,0,0,2,,,,,0,,,60,88
57240,note_on,,,,,0,0,2,,,,,0,,,57,88
57240,note_on,,,,,16,0,2,,,,,0,,,53,98
57240,note_on,,,,,1,0,6,,,,,1,,,45,90
57269,note_on,,,,,29,0,1,,,,,0,,,74,0
57269,note_on,,,,,29,0,6,,,,,1,,,45,0
57270,note_on,,,,,1,0,1,,,,,0,,,72,70
57275,note_on,,,,,35,0,4,,,,,1,,,60,0
57275,note_on,,,,,155,0,3,,,,,1,,,69,0
57299,note_on,,,,,29,0,1,,,,,0,,,72,0
57299,note_on,,,,,59,0,2,,,,,0,,,60,0
57299,note_on,,,,,0,0,2,,,,,0,,,57,0
57300,note_on,,,,,1,0,1,,,,,0,,,70,70
57300,note_on,,,,,1,0,2,,,,,0,,,45,98
57300,note_on,,,,,25,0,4,,,,,1,,,60,90
57300,note_on,,,,,25,0,3,,,,,1,,,69,90
57300,note_on,,,,,31,0,6,,,,,1,,,45,78
57314,note_on,,,,,14,0,2,,,,,0,,,53,0
57329,note_on,,,,,29,0,1,,,,,0,,,70,0
57329,note_on,,,,,89,0,5,,,,,1,,,53,0
57330,note_on,,,,,1,0,1,,,,,0,,,69,70
57344,note_on,,,,,30,0,2,,,,,0,,,45,0
57344,note_on,,,,,44,0,4,,,,,1,,,60,0
57358,note_on,,,,,58,0,3,,,,,1,,,69,0
57359,note_on,,,,,59,0,6,,,,,1,,,45,0
57359,note_on,,,,,29,0,1,,,,,0,,,69,0
57360,note_on,,,,,0,0,2,,,,,0,,,50,88
57360,note_on,,,,,0,0,2,,,,,0,,,55,88
57360,note_on,,,,,1,0,6,,,,,1,,,47,78
57360,note_on,,,,,0,0,2,,,,,0,,,47,88
57360,note_on,,,,,1,0,1,,,,,0,,,67,70
57360,note_on,,,,,16,0,4,,,,,1,,,62,78
57360,note_on,,,,,16,0,2,,,,,0,,,53,88
57360,note_on,,,,,2,0,3,,,,,1,,,67,90
57360,note_on,,,,,31,0,5,,,,,1,,,53,90
57389,note_on,,,,,29,0,1,,,,,0,,,67,0
57390,note_on,,,,,1,0,1,,,,,0,,,67,88
57419,note_on,,,,,29,0,1,,,,,0,,,67,0
57419,note_on,,,,,59,0,5,,,,,1,,,53,0
57420,note_on,,,,,1,0,1,,,,,0,,,76,88
57449,note_on,,,,,89,0,2,,,,,0,,,55,0
57449,note_on,,,,,0,0,2,,,,,0,,,47,0
57449,note_on,,,,,0,0,2,,,,,0,,,53,0
57449,note_on,,,,,29,0,1,,,,,0,,,76,0
57450,note_on,,,,,1,0,1,,,,,0,,,74,70
57450,note_on,,,,,31,0,5,,,,,1,,,53,78
57464,note_on,,,,,15,0,2,,,,,0,,,50,0
57479,note_on,,,,,119,0,6,,,,,1,,,47,0
57479,note_on,,,,,29,0,5,,,,,1,,,53,0
57479,note_on,,,,,119,0,4,,,,,1,,,62,0
57479,note_on,,,,,29,0,1,,,,,0,,,74,0
57480,note_on,,,,,0,0,2,,,,,0,,,55,88
57480,note_on,,,,,0,0,2,,,,,0,,,52,88
57480,note_on,,,,,16,0,2,,,,,0,,,49,98
57480,note_on,,,,,1,0,4,,,,,1,,,57,90
57480,note_on,,,,,1,0,6,,,,,1,,,49,90
57480,note_on,,,,,1,0,1,,,,,0,,,73,88
57480,note_on,,,,,1,0,5,,,,,1,,,52,90
57509,note_on,,,,,29,0,5,,,,,1,,,52,0
57509,note_on,,,,,29,0,1,,,,,0,,,73,0
57510,note_on,,,,,1,0,1,,,,,0,,,70,98
57513,note_on,,,,,153,0,3,,,,,1,,,67,0
57539,note_on,,,,,29,0,1,,,,,0,,,70,0
57540,note_on,,,,,1,0,1,,,,,0,,,69,70
57540,note_on,,,,,31,0,5,,,,,1,,,52,68
57540,note_on,,,,,27,0,3,,,,,1,,,67,78
57569,note_on,,,,,0,0,2,,,,,0,,,49,0
57569,note_on,,,,,29,0,1,,,,,0,,,69,0
57569,note_on,,,,,29,0,5,,,,,1,,,52,0
57569,note_on,,,,,89,0,2,,,,,0,,,52,0
57570,note_on,,,,,1,0,1,,,,,0,,,67,70
57581,note_on,,,,,101,0,4,,,,,1,,,57,0
57584,note_on,,,,,15,0,2,,,,,0,,,55,0
57599,note_on,,,,,119,0,6,,,,,1,,,49,0
57599,note_on,,,,,29,0,1,,,,,0,,,67,0
57600,note_on,,,,,19,0,4,,,,,1,,,57,90
57600,note_on,,,,,1,0,1,,,,,0,,,65,88
57600,note_on,,,,,31,0,5,,,,,1,,,53,90
57600,note_on,,,,,16,0,2,,,,,0,,,53,98
57600,note_on,,,,,1,0,6,,,,,1,,,50,90
57600,note_on,,,,,0,0,2,,,,,0,,,50,88
57600,note_on,,,,,60,0,3,,,,,1,,,65,78
57601,note_on,,,,,1,0,3,,,,,1,,,67,0
57629,note_on,,,,,29,0,2,,,,,0,,,50,0
57629,note_on,,,,,0,0,2,,,,,0,,,53,0
57629,note_on,,,,,29,0,1,,,,,0,,,65,0
57630,note_on,,,,,1,0,1,,,,,0,,,69,78
57659,note_on,,,,,29,0,1,,,,,0,,,69,0
57659,note_on,,,,,59,0,5,,,,,1,,,53,0
57659,note_on,,,,,59,0,6,,,,,1,,,50,0
57660,note_on,,,,,1,0,1,,,,,0,,,67,88
57660,note_on,,,,,0,0,2,,,,,0,,,60,98
57660,note_on,,,,,1,0,5,,,,,1,,,55,78
57660,note_on,,,,,60,0,4,,,,,1,,,60,58
57660,note_on,,,,,59,0,3,,,,,1,,,67,68
57660,note_on,,,,,0,0,2,,,,,0,,,55,98
57660,note_on,,,,,31,0,2,,,,,0,,,52,98
57660,note_on,,,,,1,0,6,,,,,1,,,52,68
57668,note_on,,,,,8,0,3,,,,,1,,,65,0
57682,note_on,,,,,22,0,4,,,,,1,,,57,0
57689,note_on,,,,,29,0,2,,,,,0,,,52,0
57689,note_on,,,,,29,0,1,,,,,0,,,67,0
57690,note_on,,,,,1,0,1,,,,,0,,,70,88
57704,note_on,,,,,15,0,2,,,,,0,,,55,0
57715,note_on,,,,,47,0,3,,,,,1,,,67,0
57719,note_on,,,,,59,0,6,,,,,1,,,52,0
57719,note_on,,,,,59,0,5,,,,,1,,,55,0
57719,note_on,,,,,29,0,1,,,,,0,,,70,0
57720,note_on,,,,,1,0,1,,,,,0,,,69,88
57720,note_on,,,,,5,0,3,,,,,1,,,69,68
57720,note_on,,,,,0,0,2,,,,,0,,,53,78
57720,note_on,,,,,16,0,2,,,,,0,,,57,88
57720,note_on,,,,,1,0,5,,,,,1,,,57,78
57720,note_on,,,,,1,0,6,,,,,1,,,53,78
57749,note_on,,,,,0,0,2,,,,,0,,,57,0
57749,note_on,,,,,0,0,2,,,,,0,,,60,0
57749,note_on,,,,,29,0,2,,,,,0,,,53,0
57749,note_on,,,,,29,0,1,,,,,0,,,69,0
57750,note_on,,,,,1,0,1,,,,,0,,,72,78
57760,note_on,,,,,78,0,4,,,,,1,,,60,0
57774,note_on,,,,,54,0,3,,,,,1,,,69,0
57779,note_on,,,,,59,0,6,,,,,1,,,53,0
57779,note_on,,,,,59,0,5,,,,,1,,,57,0
57779,note_on,,,,,29,0,1,,,,,0,,,72,0
57780,note_on,,,,,1,0,1,,,,,0,,,71,88
57780,note_on,,,,,0,0,6,,,,,1,,,55,68
57780,note_on,,,,,0,0,2,,,,,0,,,59,88
57780,note_on,,,,,6,0,3,,,,,1,,,71,78
57780,note_on,,,,,31,0,2,,,,,0,,,55,78
57780,note_on,,,,,1,0,6,,,,,1,,,53,78
57780,note_on,,,,,20,0,4,,,,,1,,,65,78
57780,note_on,,,,,1,0,5,,,,,1,,,59,78
57780,note_on,,,,,0,0,2,,,,,0,,,65,98
57809,note_on,,,,,29,0,1,,,,,0,,,71,0
57809,note_on,,,,,29,0,6,,,,,1,,,53,0
57809,note_on,,,,,0,0,2,,,,,0,,,55,0
57809,note_on,,,,,29,0,2,,,,,0,,,65,0
57810,note_on,,,,,1,0,1,,,,,0,,,74,78
57824,note_on,,,,,15,0,2,,,,,0,,,59,0
57839,note_on,,,,,29,0,1,,,,,0,,,74,0
57839,note_on,,,,,59,0,5,,,,,1,,,59,0
57839,note_on,,,,,30,0,6,,,,,1,,,55,0
57840,note_on,,,,,1,0,1,,,,,0,,,72,78
57840,note_on,,,,,60,0,3,,,,,1,,,72,78
57840,note_on,,,,,1,0,6,,,,,1,,,57,78
57840,note_on,,,,,1,0,5,,,,,1,,,60,68
57840,note_on,,,,,60,0,4,,,,,1,,,64,78
57840,note_on,,,,,0,0,2,,,,,0,,,60,88
57840,note_on,,,,,0,0,2,,,,,0,,,64,98
57840,note_on,,,,,16,0,2,,,,,0,,,57,98
57841,note_on,,,,,1,0,4,,,,,1,,,65,0
57850,note_on,,,,,10,0,3,,,,,1,,,71,0
57869,note_on,,,,,29,0,2,,,,,0,,,60,0
57869,note_on,,,,,29,0,1,,,,,0,,,72,0
57869,note_on,,,,,0,0,2,,,,,0,,,64,0
57870,note_on,,,,,1,0,1,,,,,0,,,76,78
57897,note_on,,,,,56,0,4,,,,,1,,,64,0
57899,note_on,,,,,29,0,1,,,,,0,,,76,0
57899,note_on,,,,,59,0,5,,,,,1,,,60,0
57899,note_on,,,,,49,0,3,,,,,1,,,72,0
57899,note_on,,,,,59,0,6,,,,,1,,,57,0
57900,note_on,,,,,1,0,5,,,,,1,,,62,78
57900,note_on,,,,,0,0,2,,,,,0,,,59,88
57900,note_on,,,,,31,0,2,,,,,0,,,62,98
57900,note_on,,,,,1,0,3,,,,,1,,,74,68
57900,note_on,,,,,1,0,6,,,,,1,,,59,78
57900,note_on,,,,,1,0,1,,,,,0,,,74,70
57900,note_on,,,,,3,0,4,,,,,1,,,67,78
57914,note_on,,,,,14,0,2,,,,,0,,,59,0
57914,note_on,,,,,0,0,2,,,,,0,,,62,0
57929,note_on,,,,,15,0,2,,,,,0,,,57,0
57929,note_on,,,,,29,0,1,,,,,0,,,74,0
57930,note_on,,,,,1,0,1,,,,,0,,,77,70
57959,note_on,,,,,29,0,1,,,,,0,,,77,0
57959,note_on,,,,,59,0,6,,,,,1,,,59,0
57959,note_on,,,,,59,0,5,,,,,1,,,62,0
57959,note_on,,,,,59,0,3,,,,,1,,,74,0
57960,note_on,,,,,31,0,2,,,,,0,,,60,88
57960,note_on,,,,,1,0,5,,,,,1,,,64,78
57960,note_on,,,,,1,0,6,,,,,1,,,60,78
57960,note_on,,,,,1,0,3,,,,,1,,,76,68
57960,note_on,,,,,1,0,1,,,,,0,,,76,70
57989,note_on,,,,,29,0,1,,,,,0,,,76,0
57989,note_on,,,,,29,0,2,,,,,0,,,60,0
57990,note_on,,,,,1,0,1,,,,,0,,,79,62
58018,note_on,,,,,118,0,4,,,,,1,,,67,0
58019,note_on,,,,,29,0,1,,,,,0,,,79,0
58019,note_on,,,,,59,0,6,,,,,1,,,60,0
58019,note_on,,,,,59,0,5,,,,,1,,,64,0
58020,note_on,,,,,60,0,3,,,,,1,,,78,78
58020,note_on,,,,,1,0,1,,,,,0,,,78,78
58020,note_on,,,,,1,0,6,,,,,1,,,57,90
58020,note_on,,,,,31,0,2,,,,,0,,,57,98
58020,note_on,,,,,1,0,5,,,,,1,,,60,68
58020,note_on,,,,,0,0,2,,,,,0,,,60,78
58020,note_on,,,,,2,0,4,,,,,1,,,72,78
58028,note_on,,,,,8,0,3,,,,,1,,,76,0
58049,note_on,,,,,29,0,2,,,,,0,,,60,0
58049,note_on,,,,,29,0,1,,,,,0,,,78,0
58050,note_on,,,,,1,0,1,,,,,0,,,84,78
58064,note_on,,,,,15,0,2,,,,,0,,,57,0
58064,note_on,,,,,14,0,1,,,,,0,,,84,0
58070,note_on,,,,,50,0,4,,,,,1,,,72,0
58079,note_on,,,,,51,0,3,,,,,1,,,78,0
58079,note_on,,,,,59,0,6,,,,,1,,,57,0
58079,note_on,,,,,59,0,5,,,,,1,,,60,0
58080,note_on,,,,,0,0,2,,,,,0,,,59,98
58080,note_on,,,,,16,0,1,,,,,0,,,83,88
58080,note_on,,,,,16,0,2,,,,,0,,,62,98
58080,note_on,,,,,1,0,5,,,,,1,,,62,90
58080,note_on,,,,,0,0,2,,,,,0,,,55,98
58080,note_on,,,,,1,0,6,,,,,1,,,55,90
58080,note_on,,,,,1,0,3,,,,,1,,,79,68
58080,note_on,,,,,10,0,4,,,,,1,,,71,78
58109,note_on,,,,,29,0,1,,,,,0,,,83,0
58110,note_on,,,,,1,0,1,,,,,0,,,79,70
58124,note_on,,,,,0,0,2,,,,,0,,,62,0
58124,note_on,,,,,0,0,2,,,,,0,,,55,0
58124,note_on,,,,,44,0,2,,,,,0,,,59,0
58139,note_on,,,,,29,0,1,,,,,0,,,79,0
58140,note_on,,,,,1,0,1,,,,,0,,,74,70
58140,note_on,,,,,0,0,2,,,,,0,,,55,70
58140,note_on,,,,,16,0,2,,,,,0,,,43,78
58169,note_on,,,,,89,0,6,,,,,1,,,55,0
58169,note_on,,,,,29,0,1,,,,,0,,,74,0
58170,note_on,,,,,1,0,1,,,,,0,,,71,55
58184,note_on,,,,,0,0,2,,,,,0,,,43,0
58184,note_on,,,,,44,0,2,,,,,0,,,55,0
58194,note_on,,,,,114,0,4,,,,,1,,,71,0
58199,note_on,,,,,119,0,5,,,,,1,,,62,0
58199,note_on,,,,,29,0,1,,,,,0,,,71,0
58200,note_on,,,,,6,0,4,,,,,1,,,67,78
58200,note_on,,,,,1,0,1,,,,,0,,,79,70
58200,note_on,,,,,0,0,2,,,,,0,,,43,70
58200,note_on,,,,,0,0,3,,,,,1,,,67,78
58200,note_on,,,,,16,0,2,,,,,0,,,55,70
58200,note_on,,,,,31,0,6,,,,,1,,,55,90
58200,note_on,,,,,1,0,5,,,,,1,,,59,90
58200,note_on,,,,,120,0,3,,,,,1,,,79,0
58229,note_on,,,,,29,0,2,,,,,0,,,43,0
58229,note_on,,,,,29,0,1,,,,,0,,,79,0
58230,note_on,,,,,1,0,1,,,,,0,,,67,70
58244,note_on,,,,,15,0,2,,,,,0,,,55,0
58259,note_on,,,,,29,0,1,,,,,0,,,67,0
58260,note_on,,,,,16,0,2,,,,,0,,,43,62
58260,note_on,,,,,1,0,1,,,,,0,,,79,70
58260,note_on,,,,,0,0,2,,,,,0,,,55,62
58289,note_on,,,,,89,0,6,,,,,1,,,55,0
58289,note_on,,,,,29,0,1,,,,,0,,,79,0
58290,note_on,,,,,1,0,1,,,,,0,,,67,70
58296,note_on,,,,,96,0,4,,,,,1,,,67,0
58304,note_on,,,,,44,0,2,,,,,0,,,55,0
58304,note_on,,,,,0,0,2,,,,,0,,,43,0
58316,note_on,,,,,116,0,3,,,,,1,,,67,0
58319,note_on,,,,,119,0,5,,,,,1,,,59,0
58319,note_on,,,,,29,0,1,,,,,0,,,67,0
58320,note_on,,,,,1,0,5,,,,,1,,,59,50
58320,note_on,,,,,1,0,1,,,,,0,,,79,78
58320,note_on,,,,,4,0,3,,,,,1,,,79,90
58320,note_on,,,,,16,0,2,,,,,0,,,43,62
58320,note_on,,,,,0,0,2,,,,,0,,,55,62
58320,note_on,,,,,31,0,6,,,,,1,,,55,104
58320,note_on,,,,,24,0,4,,,,,1,,,67,90
58349,note_on,,,,,0,0,2,,,,,0,,,43,0
58349,note_on,,,,,29,0,2,,,,,0,,,55,0
58350,note_on,,,,,30,0,1,,,,,0,,,74,70
58364,note_on,,,,,14,0,1,,,,,0,,,79,0
58379,note_on,,,,,15,0,1,,,,,0,,,74,0
58380,note_on,,,,,1,0,1,,,,,0,,,71,78
58380,note_on,,,,,0,0,2,,,,,0,,,55,70
58380,note_on,,,,,31,0,2,,,,,0,,,43,70
58409,note_on,,,,,29,0,2,,,,,0,,,55,0
58409,note_on,,,,,29,0,1,,,,,0,,,71,0
58409,note_on,,,,,89,0,6,,,,,1,,,55,0
58409,note_on,,,,,89,0,5,,,,,1,,,59,0
58409,note_on,,,,,89,0,4,,,,,1,,,67,0
58410,note_on,,,,,1,0,1,,,,,0,,,67,78
58423,note_on,,,,,103,0,3,,,,,1,,,79,0
58424,note_on,,,,,15,0,2,,,,,0,,,43,0
58439,note_on,,,,,29,0,1,,,,,0,,,67,0
58440,note_on,,,,,31,0,6,,,,,1,,,55,90
58440,note_on,,,,,0,0,2,,,,,0,,,59,78
58440,note_on,,,,,16,0,2,,,,,0,,,55,78
58440,note_on,,,,,1,0,1,,,,,0,,,79,88
58440,note_on,,,,,17,0,3,,,,,1,,,79,90
58440,note_on,,,,,0,0,2,,,,,0,,,62,88
58440,note_on,,,,,31,0,4,,,,,1,,,67,90
58440,note_on,,,,,31,0,5,,,,,1,,,59,90
58469,note_on,,,,,29,0,2,,,,,0,,,55,0
58469,note_on,,,,,29,0,1,,,,,0,,,79,0
58470,note_on,,,,,1,0,1,,,,,0,,,67,78
58499,note_on,,,,,29,0,1,,,,,0,,,67,0
58499,note_on,,,,,30,0,2,,,,,0,,,59,0
58500,note_on,,,,,1,0,2,,,,,0,,,55,62
58500,note_on,,,,,1,0,1,,,,,0,,,79,78
58514,note_on,,,,,14,0,2,,,,,0,,,62,0
58529,note_on,,,,,15,0,2,,,,,0,,,55,0
58529,note_on,,,,,89,0,5,,,,,1,,,59,0
58529,note_on,,,,,29,0,1,,,,,0,,,79,0
58529,note_on,,,,,89,0,6,,,,,1,,,55,0
58530,note_on,,,,,1,0,1,,,,,0,,,67,70
58540,note_on,,,,,100,0,4,,,,,1,,,67,0
58543,note_on,,,,,103,0,3,,,,,1,,,79,0
58544,note_on,,,,,14,0,1,,,,,0,,,67,0
58560,note_on,,,,,16,0,1,,,,,0,,,79,70
58560,note_on,,,,,0,0,2,,,,,0,,,60,98
58560,note_on,,,,,17,0,3,,,,,1,,,79,90
58560,note_on,,,,,0,0,2,,,,,0,,,55,110
58560,note_on,,,,,31,0,5,,,,,1,,,60,90
58560,note_on,,,,,31,0,6,,,,,1,,,55,104
58560,note_on,,,,,31,0,2,,,,,0,,,68,124
58560,note_on,,,,,20,0,4,,,,,1,,,68,104
58589,note_on,,,,,29,0,2,,,,,0,,,55,0
58619,note_on,,,,,59,0,1,,,,,0,,,79,0
58620,note_on,,,,,31,0,2,,,,,0,,,55,30
58620,note_on,,,,,1,0,1,,,,,0,,,84,88
58634,note_on,,,,,14,0,2,,,,,0,,,55,0
58649,note_on,,,,,89,0,6,,,,,1,,,55,0
58649,note_on,,,,,29,0,1,,,,,0,,,84,0
58650,note_on,,,,,1,0,1,,,,,0,,,80,70
58651,note_on,,,,,91,0,4,,,,,1,,,68,0
58679,note_on,,,,,29,0,1,,,,,0,,,80,0
58679,note_on,,,,,119,0,5,,,,,1,,,60,0
58680,note_on,,,,,31,0,6,,,,,1,,,55,42
58680,note_on,,,,,1,0,5,,,,,1,,,60,42
58680,note_on,,,,,29,0,4,,,,,1,,,68,58
58680,note_on,,,,,1,0,1,,,,,0,,,77,78
58680,note_on,,,,,46,0,2,,,,,0,,,55,30
58680,note_on,,,,,120,0,3,,,,,1,,,77,58
58686,note_on,,,,,6,0,3,,,,,1,,,79,0
58694,note_on,,,,,14,0,1,,,,,0,,,77,0
58709,note_on,,,,,29,0,2,,,,,0,,,55,0
58740,note_on,,,,,31,0,2,,,,,0,,,55,30
58740,note_on,,,,,46,0,1,,,,,0,,,77,70
58754,note_on,,,,,14,0,1,,,,,0,,,77,0
58766,note_on,,,,,86,0,4,,,,,1,,,68,0
58769,note_on,,,,,29,0,2,,,,,0,,,55,0
58769,note_on,,,,,89,0,5,,,,,1,,,60,0
58769,note_on,,,,,89,0,6,,,,,1,,,55,0
58770,note_on,,,,,84,0,3,,,,,1,,,77,0
58800,note_on,,,,,31,0,2,,,,,0,,,55,35
58800,note_on,,,,,46,0,1,,,,,0,,,77,49
58800,note_on,,,,,30,0,3,,,,,1,,,77,50
58800,note_on,,,,,34,0,4,,,,,1,,,68,50
58800,note_on,,,,,31,0,6,,,,,1,,,55,42
58800,note_on,,,,,31,0,5,,,,,1,,,60,42
58829,note_on,,,,,29,0,1,,,,,0,,,77,0
58829,note_on,,,,,29,0,2,,,,,0,,,55,0
58859,note_on,,,,,59,0,6,,,,,1,,,55,0
58860,note_on,,,,,31,0,1,,,,,0,,,77,39
58860,note_on,,,,,31,0,2,,,,,0,,,55,28
58873,note_on,,,,,73,0,4,,,,,1,,,68,0
58874,note_on,,,,,74,0,3,,,,,1,,,77,0
58889,note_on,,,,,29,0,2,,,,,0,,,55,0
58889,note_on,,,,,89,0,5,,,,,1,,,60,0
58890,note_on,,,,,1,0,5,,,,,1,,,60,19
58890,note_on,,,,,31,0,6,,,,,1,,,55,42
58890,note_on,,,,,17,0,4,,,,,1,,,68,50
58890,note_on,,,,,16,0,3,,,,,1,,,77,50
58903,note_on,,,,,13,0,4,,,,,1,,,68,0
58904,note_on,,,,,44,0,1,,,,,0,,,77,0
58906,note_on,,,,,16,0,3,,,,,1,,,77,0
58919,note_on,,,,,29,0,5,,,,,1,,,60,0
58919,note_on,,,,,29,0,6,,,,,1,,,55,0
58920,note_on,,,,,14,0,3,,,,,1,,,77,42
58920,note_on,,,,,16,0,1,,,,,0,,,77,55
58920,note_on,,,,,1,0,5,,,,,1,,,60,42
58920,note_on,,,,,31,0,2,,,,,0,,,55,28
58920,note_on,,,,,1,0,6,,,,,1,,,55,50
58920,note_on,,,,,17,0,4,,,,,1,,,68,50
58944,note_on,,,,,24,0,3,,,,,1,,,77,0
58949,note_on,,,,,29,0,1,,,,,0,,,77,0
58949,note_on,,,,,29,0,5,,,,,1,,,60,0
58949,note_on,,,,,29,0,6,,,,,1,,,55,0
58949,note_on,,,,,29,0,2,,,,,0,,,55,0
58954,note_on,,,,,34,0,4,,,,,1,,,68,0
58980,note_on,,,,,26,0,4,,,,,1,,,68,42
58980,note_on,,,,,31,0,2,,,,,0,,,55,35
58980,note_on,,,,,36,0,3,,,,,1,,,77,58
58980,note_on,,,,,31,0,1,,,,,0,,,77,49
58980,note_on,,,,,31,0,5,,,,,1,,,60,35
58980,note_on,,,,,31,0,6,,,,,1,,,55,42
58994,note_on,,,,,14,0,2,,,,,0,,,60,0
58994,note_on,,,,,0,0,2,,,,,0,,,68,0
59008,note_on,,,,,28,0,4,,,,,1,,,68,0
59009,note_on,,,,,15,0,2,,,,,0,,,55,0
59009,note_on,,,,,29,0,5,,,,,1,,,60,0
59009,note_on,,,,,29,0,6,,,,,1,,,55,0
59012,note_on,,,,,32,0,3,,,,,1,,,77,0
59024,note_on,,,,,44,0,1,,,,,0,,,77,0
59040,note_on,,,,,0,0,2,,,,,0,,,67,98
59040,note_on,,,,,0,0,2,,,,,0,,,58,110
59040,note_on,,,,,31,0,2,,,,,0,,,55,70
59040,note_on,,,,,31,0,6,,,,,1,,,55,104
59040,note_on,,,,,31,0,5,,,,,1,,,58,90
59040,note_on,,,,,28,0,3,,,,,1,,,77,104
59040,note_on,,,,,32,0,4,,,,,1,,,67,90
59040,note_on,,,,,16,0,1,,,,,0,,,77,110
59069,note_on,,,,,29,0,2,,,,,0,,,55,0
59099,note_on,,,,,59,0,1,,,,,0,,,77,0
59100,note_on,,,,,31,0,2,,,,,0,,,55,28
59100,note_on,,,,,1,0,1,,,,,0,,,82,98
59129,note_on,,,,,89,0,5,,,,,1,,,58,0
59129,note_on,,,,,29,0,2,,,,,0,,,55,0
59129,note_on,,,,,29,0,1,,,,,0,,,82,0
59129,note_on,,,,,89,0,6,,,,,1,,,55,0
59130,note_on,,,,,1,0,1,,,,,0,,,79,62
59141,note_on,,,,,101,0,4,,,,,1,,,67,0
59159,note_on,,,,,29,0,1,,,,,0,,,79,0
59160,note_on,,,,,31,0,5,,,,,1,,,58,58
59160,note_on,,,,,120,0,3,,,,,1,,,75,58
59160,note_on,,,,,19,0,4,,,,,1,,,67,50
59160,note_on,,,,,1,0,1,,,,,0,,,75,55
59160,note_on,,,,,31,0,6,,,,,1,,,55,50
59160,note_on,,,,,31,0,2,,,,,0,,,55,30
59178,note_on,,,,,18,0,3,,,,,1,,,77,0
59189,note_on,,,,,29,0,2,,,,,0,,,55,0
59189,note_on,,,,,29,0,1,,,,,0,,,75,0
59220,note_on,,,,,31,0,2,,,,,0,,,55,39
59220,note_on,,,,,31,0,1,,,,,0,,,75,55
59234,note_on,,,,,14,0,2,,,,,0,,,55,0
59240,note_on,,,,,80,0,4,,,,,1,,,67,0
59249,note_on,,,,,29,0,1,,,,,0,,,75,0
59249,note_on,,,,,89,0,6,,,,,1,,,55,0
59249,note_on,,,,,89,0,5,,,,,1,,,58,0
59252,note_on,,,,,74,0,3,,,,,1,,,75,0
59280,note_on,,,,,31,0,6,,,,,1,,,55,42
59280,note_on,,,,,40,0,4,,,,,1,,,67,50
59280,note_on,,,,,46,0,2,,,,,0,,,55,30
59280,note_on,,,,,31,0,5,,,,,1,,,58,50
59280,note_on,,,,,28,0,3,,,,,1,,,75,68
59280,note_on,,,,,31,0,1,,,,,0,,,75,49
59294,note_on,,,,,14,0,2,,,,,0,,,55,0
59309,note_on,,,,,29,0,1,,,,,0,,,75,0
59339,note_on,,,,,59,0,5,,,,,1,,,58,0
59339,note_on,,,,,59,0,6,,,,,1,,,55,0
59340,note_on,,,,,46,0,2,,,,,0,,,55,28
59340,note_on,,,,,31,0,1,,,,,0,,,75,39
59352,note_on,,,,,72,0,4,,,,,1,,,67,0
59357,note_on,,,,,77,0,3,,,,,1,,,75,0
59369,note_on,,,,,29,0,1,,,,,0,,,75,0
59369,note_on,,,,,29,0,2,,,,,0,,,55,0
59370,note_on,,,,,13,0,3,,,,,1,,,75,58
59370,note_on,,,,,18,0,4,,,,,1,,,67,42
59370,note_on,,,,,31,0,5,,,,,1,,,58,58
59370,note_on,,,,,31,0,6,,,,,1,,,55,35
59383,note_on,,,,,13,0,4,,,,,1,,,67,0
59386,note_on,,,,,16,0,3,,,,,1,,,75,0
59399,note_on,,,,,29,0,5,,,,,1,,,58,0
59399,note_on,,,,,29,0,6,,,,,1,,,55,0
59400,note_on,,,,,31,0,2,,,,,0,,,55,30
59400,note_on,,,,,17,0,4,,,,,1,,,67,42
59400,note_on,,,,,1,0,5,,,,,1,,,58,58
59400,note_on,,,,,1,0,6,,,,,1,,,55,35
59400,note_on,,,,,14,0,3,,,,,1,,,75,68
59400,note_on,,,,,31,0,1,,,,,0,,,75,62
59414,note_on,,,,,14,0,2,,,,,0,,,55,0
59429,note_on,,,,,29,0,6,,,,,1,,,55,0
59429,note_on,,,,,29,0,5,,,,,1,,,58,0
59429,note_on,,,,,29,0,1,,,,,0,,,75,0
59436,note_on,,,,,36,0,3,,,,,1,,,75,0
59441,note_on,,,,,41,0,4,,,,,1,,,67,0
59460,note_on,,,,,19,0,4,,,,,1,,,67,50
59460,note_on,,,,,31,0,6,,,,,1,,,55,29
59460,note_on,,,,,24,0,3,,,,,1,,,75,68
59460,note_on,,,,,31,0,1,,,,,0,,,75,49
59460,note_on,,,,,46,0,2,,,,,0,,,55,35
59460,note_on,,,,,31,0,5,,,,,1,,,58,35
59474,note_on,,,,,14,0,2,,,,,0,,,67,0
59474,note_on,,,,,0,0,2,,,,,0,,,58,0
59489,note_on,,,,,29,0,5,,,,,1,,,58,0
59489,note_on,,,,,15,0,2,,,,,0,,,55,0
59489,note_on,,,,,29,0,6,,,,,1,,,55,0
59495,note_on,,,,,35,0,3,,,,,1,,,75,0
59495,note_on,,,,,35,0,4,,,,,1,,,67,0
59504,note_on,,,,,44,0,1,,,,,0,,,75,0
59520,note_on,,,,,16,0,1,,,,,0,,,75,110
59520,note_on,,,,,31,0,6,,,,,1,,,55,104
59520,note_on,,,,,0,0,2,,,,,0,,,65,98
59520,note_on,,,,,0,0,2,,,,,0,,,55,78
59520,note_on,,,,,31,0,2,,,,,0,,,56,110
59520,note_on,,,,,25,0,3,,,,,1,,,75,90
59520,note_on,,,,,31,0,5,,,,,1,,,56,90
59520,note_on,,,,,25,0,4,,,,,1,,,65,90
59549,note_on,,,,,29,0,2,,,,,0,,,55,0
59579,note_on,,,,,59,0,1,,,,,0,,,75,0
59580,note_on,,,,,1,0,1,,,,,0,,,80,62
59580,note_on,,,,,31,0,2,,,,,0,,,55,35
59594,note_on,,,,,14,0,2,,,,,0,,,55,0
59609,note_on,,,,,29,0,1,,,,,0,,,80,0
59610,note_on,,,,,1,0,1,,,,,0,,,77,39
59636,note_on,,,,,116,0,3,,,,,1,,,75,0
59639,note_on,,,,,29,0,1,,,,,0,,,77,0
59640,note_on,,,,,4,0,3,,,,,1,,,74,78
59640,note_on,,,,,46,0,2,,,,,0,,,55,28
59640,note_on,,,,,1,0,1,,,,,0,,,74,39
59654,note_on,,,,,14,0,2,,,,,0,,,55,0
59669,note_on,,,,,29,0,1,,,,,0,,,74,0
59700,note_on,,,,,31,0,1,,,,,0,,,74,44
59700,note_on,,,,,46,0,2,,,,,0,,,55,28
59714,note_on,,,,,14,0,2,,,,,0,,,55,0
59729,note_on,,,,,209,0,5,,,,,1,,,56,0
59729,note_on,,,,,209,0,6,,,,,1,,,55,0
59744,note_on,,,,,30,0,2,,,,,0,,,56,0
59744,note_on,,,,,44,0,1,,,,,0,,,74,0
59759,note_on,,,,,15,0,2,,,,,0,,,65,0
59760,note_on,,,,,31,0,6,,,,,1,,,55,90
59760,note_on,,,,,31,0,5,,,,,1,,,55,90
59760,note_on,,,,,0,0,2,,,,,0,,,63,98
59760,note_on,,,,,1,0,2,,,,,0,,,55,70
59760,note_on,,,,,16,0,1,,,,,0,,,74,110
59760,note_on,,,,,240,0,4,,,,,1,,,63,90
59764,note_on,,,,,4,0,4,,,,,1,,,65,0
59789,note_on,,,,,29,0,2,,,,,0,,,55,0
59819,note_on,,,,,59,0,1,,,,,0,,,74,0
59820,note_on,,,,,1,0,1,,,,,0,,,79,78
59820,note_on,,,,,31,0,2,,,,,0,,,55,28
59849,note_on,,,,,29,0,2,,,,,0,,,55,0
59849,note_on,,,,,29,0,1,,,,,0,,,79,0
59850,note_on,,,,,1,0,1,,,,,0,,,75,62
59879,note_on,,,,,29,0,1,,,,,0,,,75,0
59879,note_on,,,,,30,0,2,,,,,0,,,63,0
59880,note_on,,,,,1,0,1,,,,,0,,,72,35
59880,note_on,,,,,0,0,2,,,,,0,,,60,88
59880,note_on,,,,,1,0,2,,,,,0,,,55,78
59880,note_on,,,,,240,0,3,,,,,1,,,72,50
59884,note_on,,,,,4,0,3,,,,,1,,,74,0
59909,note_on,,,,,29,0,2,,,,,0,,,55,0
59909,note_on,,,,,29,0,1,,,,,0,,,72,0
59940,note_on,,,,,31,0,2,,,,,0,,,55,44
59940,note_on,,,,,31,0,1,,,,,0,,,72,17
59954,note_on,,,,,14,0,2,,,,,0,,,55,0
59969,note_on,,,,,209,0,5,,,,,1,,,55,0
59984,note_on,,,,,44,0,1,,,,,0,,,72,0
59997,note_on,,,,,233,0,4,,,,,1,,,63,0
59999,note_on,,,,,45,0,2,,,,,0,,,60,0
59999,note_on,,,,,239,0,6,,,,,1,,,55,0
60000,note_on,,,,,1,0,6,,,,,1,,,43,68
60000,note_on,,,,,16,0,1,,,,,0,,,72,98
60000,note_on,,,,,31,0,5,,,,,1,,,53,90
60000,note_on,,,,,0,0,2,,,,,0,,,43,78
60000,note_on,,,,,1,0,2,,,,,0,,,55,70
60000,note_on,,,,,3,0,4,,,,,1,,,62,90
60029,note_on,,,,,0,0,2,,,,,0,,,55,0
60029,note_on,,,,,29,0,2,,,,,0,,,43,0
60059,note_on,,,,,59,0,1,,,,,0,,,72,0
60060,note_on,,,,,31,0,2,,,,,0,,,55,35
60060,note_on,,,,,1,0,1,,,,,0,,,77,88
60060,note_on,,,,,0,0,2,,,,,0,,,43,30
60089,note_on,,,,,29,0,1,,,,,0,,,77,0
60089,note_on,,,,,29,0,2,,,,,0,,,43,0
60089,note_on,,,,,0,0,2,,,,,0,,,55,0
60090,note_on,,,,,1,0,1,,,,,0,,,74,62
60119,note_on,,,,,29,0,1,,,,,0,,,74,0
60120,note_on,,,,,236,0,3,,,,,1,,,70,58
60120,note_on,,,,,1,0,1,,,,,0,,,70,62
60120,note_on,,,,,31,0,2,,,,,0,,,55,39
60120,note_on,,,,,0,0,2,,,,,0,,,43,30
60131,note_on,,,,,11,0,3,,,,,1,,,72,0
60149,note_on,,,,,29,0,2,,,,,0,,,43,0
60149,note_on,,,,,29,0,1,,,,,0,,,70,0
60149,note_on,,,,,0,0,2,,,,,0,,,55,0
60180,note_on,,,,,31,0,1,,,,,0,,,70,49
60180,note_on,,,,,31,0,2,,,,,0,,,55,39
60180,note_on,,,,,0,0,2,,,,,0,,,43,39
60209,note_on,,,,,29,0,2,,,,,0,,,43,0
60209,note_on,,,,,0,0,2,,,,,0,,,55,0
60209,note_on,,,,,209,0,6,,,,,1,,,43,0
60224,note_on,,,,,44,0,1,,,,,0,,,70,0
60239,note_on,,,,,239,0,5,,,,,1,,,53,0
60240,note_on,,,,,1,0,5,,,,,1,,,51,78
60240,note_on,,,,,240,0,4,,,,,1,,,60,58
60240,note_on,,,,,31,0,2,,,,,0,,,55,98
60240,note_on,,,,,0,0,2,,,,,0,,,43,98
60240,note_on,,,,,31,0,6,,,,,1,,,43,58
60240,note_on,,,,,16,0,1,,,,,0,,,70,88
60246,note_on,,,,,6,0,4,,,,,1,,,62,0
60269,note_on,,,,,29,0,2,,,,,0,,,43,0
60269,note_on,,,,,0,0,2,,,,,0,,,55,0
60299,note_on,,,,,59,0,1,,,,,0,,,70,0
60300,note_on,,,,,1,0,1,,,,,0,,,75,55
60300,note_on,,,,,31,0,2,,,,,0,,,43,44
60300,note_on,,,,,0,0,2,,,,,0,,,55,35
60314,note_on,,,,,14,0,1,,,,,0,,,75,0
60329,note_on,,,,,29,0,2,,,,,0,,,55,0
60329,note_on,,,,,0,0,2,,,,,0,,,43,0
60330,note_on,,,,,16,0,1,,,,,0,,,72,28
60359,note_on,,,,,29,0,1,,,,,0,,,72,0
60360,note_on,,,,,31,0,2,,,,,0,,,43,39
60360,note_on,,,,,0,0,2,,,,,0,,,55,35
60360,note_on,,,,,229,0,3,,,,,1,,,68,68
60360,note_on,,,,,1,0,1,,,,,0,,,68,62
60361,note_on,,,,,1,0,3,,,,,1,,,70,0
60389,note_on,,,,,29,0,1,,,,,0,,,68,0
60389,note_on,,,,,0,0,2,,,,,0,,,43,0
60389,note_on,,,,,29,0,2,,,,,0,,,55,0
60420,note_on,,,,,31,0,2,,,,,0,,,55,39
60420,note_on,,,,,31,0,1,,,,,0,,,68,49
60420,note_on,,,,,0,0,2,,,,,0,,,43,35
60449,note_on,,,,,0,0,2,,,,,0,,,55,0
60449,note_on,,,,,29,0,1,,,,,0,,,68,0
60449,note_on,,,,,209,0,6,,,,,1,,,43,0
60449,note_on,,,,,29,0,2,,,,,0,,,43,0
60449,note_on,,,,,209,0,5,,,,,1,,,51,0
60480,note_on,,,,,31,0,1,,,,,0,,,68,55
60480,note_on,,,,,31,0,5,,,,,1,,,50,78
60480,note_on,,,,,31,0,2,,,,,0,,,55,98
60480,note_on,,,,,0,0,2,,,,,0,,,43,98
60480,note_on,,,,,234,0,4,,,,,1,,,58,58
60480,note_on,,,,,31,0,6,,,,,1,,,43,50
60488,note_on,,,,,8,0,4,,,,,1,,,60,0
60524,note_on,,,,,44,0,2,,,,,0,,,43,0
60524,note_on,,,,,0,0,2,,,,,0,,,55,0
60539,note_on,,,,,59,0,1,,,,,0,,,68,0
60540,note_on,,,,,1,0,1,,,,,0,,,74,70
60540,note_on,,,,,0,0,2,,,,,0,,,55,35
60540,note_on,,,,,16,0,2,,,,,0,,,43,49
60569,note_on,,,,,0,0,2,,,,,0,,,43,0
60569,note_on,,,,,29,0,2,,,,,0,,,55,0
60569,note_on,,,,,29,0,1,,,,,0,,,74,0
60570,note_on,,,,,1,0,1,,,,,0,,,70,62
60599,note_on,,,,,29,0,1,,,,,0,,,70,0
60600,note_on,,,,,1,0,1,,,,,0,,,67,55
60600,note_on,,,,,31,0,2,,,,,0,,,55,30
60600,note_on,,,,,239,0,3,,,,,1,,,67,68
60600,note_on,,,,,0,0,2,,,,,0,,,43,39
60602,note_on,,,,,2,0,3,,,,,1,,,68,0
60629,note_on,,,,,0,0,2,,,,,0,,,55,0
60629,note_on,,,,,29,0,2,,,,,0,,,43,0
60629,note_on,,,,,29,0,1,,,,,0,,,67,0
60660,note_on,,,,,0,0,2,,,,,0,,,43,39
60660,note_on,,,,,31,0,1,,,,,0,,,67,55
60660,note_on,,,,,31,0,2,,,,,0,,,55,30
60689,note_on,,,,,29,0,1,,,,,0,,,67,0
60689,note_on,,,,,0,0,2,,,,,0,,,55,0
60689,note_on,,,,,29,0,2,,,,,0,,,43,0
60715,note_on,,,,,227,0,4,,,,,1,,,58,0
60719,note_on,,,,,239,0,5,,,,,1,,,50,0
60720,note_on,,,,,31,0,1,,,,,0,,,67,88
60720,note_on,,,,,1,0,5,,,,,1,,,48,68
60720,note_on,,,,,0,0,2,,,,,0,,,43,98
60720,note_on,,,,,5,0,4,,,,,1,,,56,78
60720,note_on,,,,,31,0,2,,,,,0,,,55,98
60764,note_on,,,,,0,0,2,,,,,0,,,55,0
60764,note_on,,,,,44,0,2,,,,,0,,,43,0
60779,note_on,,,,,59,0,1,,,,,0,,,67,0
60780,note_on,,,,,16,0,2,,,,,0,,,55,30
60780,note_on,,,,,1,0,1,,,,,0,,,72,55
60780,note_on,,,,,0,0,2,,,,,0,,,43,35
60809,note_on,,,,,29,0,2,,,,,0,,,43,0
60809,note_on,,,,,0,0,2,,,,,0,,,55,0
60810,note_on,,,,,30,0,1,,,,,0,,,68,70
60824,note_on,,,,,14,0,1,,,,,0,,,72,0
60838,note_on,,,,,236,0,3,,,,,1,,,67,0
60839,note_on,,,,,15,0,1,,,,,0,,,68,0
60840,note_on,,,,,31,0,2,,,,,0,,,43,49
60840,note_on,,,,,0,0,2,,,,,0,,,55,35
60840,note_on,,,,,1,0,1,,,,,0,,,66,62
60840,note_on,,,,,2,0,3,,,,,1,,,66,50
60869,note_on,,,,,0,0,2,,,,,0,,,43,0
60869,note_on,,,,,29,0,2,,,,,0,,,55,0
60869,note_on,,,,,29,0,1,,,,,0,,,66,0
60900,note_on,,,,,0,0,2,,,,,0,,,43,44
60900,note_on,,,,,31,0,1,,,,,0,,,66,88
60900,note_on,,,,,31,0,2,,,,,0,,,55,39
60914,note_on,,,,,14,0,2,,,,,0,,,43,0
60914,note_on,,,,,0,0,2,,,,,0,,,55,0
60929,note_on,,,,,449,0,6,,,,,1,,,43,0
60929,note_on,,,,,29,0,1,,,,,0,,,66,0
60950,note_on,,,,,230,0,4,,,,,1,,,56,0
60959,note_on,,,,,239,0,5,,,,,1,,,48,0
60960,note_on,,,,,31,0,1,,,,,0,,,67,70
60960,note_on,,,,,46,0,2,,,,,0,,,43,98
60960,note_on,,,,,0,0,3,,,,,1,,,67,35
60960,note_on,,,,,1,0,5,,,,,1,,,47,19
60960,note_on,,,,,10,0,4,,,,,1,,,55,35
60960,note_on,,,,,31,0,6,,,,,1,,,43,58
60960,note_on,,,,,0,0,2,,,,,0,,,55,98
60960,note_on,,,,,120,0,3,,,,,1,,,66,0
61004,note_on,,,,,0,0,2,,,,,0,,,43,0
61004,note_on,,,,,44,0,2,,,,,0,,,55,0
61009,note_on,,,,,49,0,4,,,,,1,,,55,0
61019,note_on,,,,,59,0,1,,,,,0,,,67,0
61020,note_on,,,,,1,0,1,,,,,0,,,55,55
61020,note_on,,,,,11,0,4,,,,,1,,,67,90
61020,note_on,,,,,16,0,2,,,,,0,,,43,88
61049,note_on,,,,,89,0,5,,,,,1,,,47,0
61049,note_on,,,,,29,0,2,,,,,0,,,43,0
61049,note_on,,,,,29,0,1,,,,,0,,,55,0
61050,note_on,,,,,1,0,1,,,,,0,,,57,55
61050,note_on,,,,,1,0,2,,,,,0,,,45,78
61057,note_on,,,,,97,0,3,,,,,1,,,67,0
61062,note_on,,,,,42,0,4,,,,,1,,,67,0
61079,note_on,,,,,119,0,6,,,,,1,,,43,0
61079,note_on,,,,,29,0,2,,,,,0,,,45,0
61079,note_on,,,,,29,0,1,,,,,0,,,57,0
61080,note_on,,,,,18,0,4,,,,,1,,,67,90
61080,note_on,,,,,1,0,2,,,,,0,,,47,98
61080,note_on,,,,,1,0,1,,,,,0,,,59,62
61109,note_on,,,,,29,0,2,,,,,0,,,47,0
61109,note_on,,,,,29,0,1,,,,,0,,,59,0
61110,note_on,,,,,1,0,2,,,,,0,,,48,88
61110,note_on,,,,,1,0,1,,,,,0,,,60,55
61139,note_on,,,,,29,0,1,,,,,0,,,60,0
61139,note_on,,,,,29,0,2,,,,,0,,,48,0
61140,note_on,,,,,1,0,1,,,,,0,,,62,62
61140,note_on,,,,,1,0,2,,,,,0,,,50,88
61169,note_on,,,,,29,0,1,,,,,0,,,62,0
61169,note_on,,,,,29,0,2,,,,,0,,,50,0
61170,note_on,,,,,1,0,1,,,,,0,,,59,55
61170,note_on,,,,,1,0,2,,,,,0,,,47,70
61174,note_on,,,,,94,0,4,,,,,1,,,67,0
61184,note_on,,,,,14,0,2,,,,,0,,,47,0
61199,note_on,,,,,29,0,1,,,,,0,,,59,0
61200,note_on,,,,,0,0,2,,,,,0,,,50,98
61200,note_on,,,,,1,0,1,,,,,0,,,55,70
61200,note_on,,,,,0,0,2,,,,,0,,,53,98
61200,note_on,,,,,26,0,4,,,,,1,,,67,90
61200,note_on,,,,,16,0,2,,,,,0,,,43,88
61229,note_on,,,,,29,0,1,,,,,0,,,55,0
61230,note_on,,,,,1,0,1,,,,,0,,,67,78
61244,note_on,,,,,44,0,2,,,,,0,,,43,0
61259,note_on,,,,,29,0,1,,,,,0,,,67,0
61260,note_on,,,,,60,0,4,,,,,1,,,65,78
61260,note_on,,,,,181,0,6,,,,,1,,,55,78
61260,note_on,,,,,1,0,1,,,,,0,,,55,39
61260,note_on,,,,,16,0,2,,,,,0,,,43,88
61260,note_on,,,,,211,0,5,,,,,1,,,59,50
61264,note_on,,,,,4,0,4,,,,,1,,,67,0
61289,note_on,,,,,29,0,1,,,,,0,,,55,0
61290,note_on,,,,,1,0,1,,,,,0,,,67,78
61299,note_on,,,,,35,0,4,,,,,1,,,65,0
61304,note_on,,,,,44,0,2,,,,,0,,,43,0
61319,note_on,,,,,29,0,1,,,,,0,,,67,0
61319,note_on,,,,,59,0,6,,,,,1,,,55,0
61319,note_on,,,,,59,0,5,,,,,1,,,59,0
61320,note_on,,,,,21,0,4,,,,,1,,,65,90
61320,note_on,,,,,1,0,5,,,,,1,,,60,78
61320,note_on,,,,,16,0,2,,,,,0,,,45,98
61320,note_on,,,,,1,0,1,,,,,0,,,57,62
61320,note_on,,,,,1,0,6,,,,,1,,,57,78
61349,note_on,,,,,29,0,1,,,,,0,,,57,0
61350,note_on,,,,,1,0,1,,,,,0,,,67,70
61358,note_on,,,,,38,0,4,,,,,1,,,65,0
61364,note_on,,,,,44,0,2,,,,,0,,,45,0
61379,note_on,,,,,59,0,6,,,,,1,,,57,0
61379,note_on,,,,,29,0,1,,,,,0,,,67,0
61379,note_on,,,,,59,0,5,,,,,1,,,60,0
61380,note_on,,,,,1,0,6,,,,,1,,,59,78
61380,note_on,,,,,1,0,1,,,,,0,,,59,78
61380,note_on,,,,,323,0,3,,,,,1,,,79,90
61380,note_on,,,,,22,0,4,,,,,1,,,65,78
61380,note_on,,,,,1,0,5,,,,,1,,,62,78
61380,note_on,,,,,16,0,2,,,,,0,,,47,88
61409,note_on,,,,,29,0,1,,,,,0,,,59,0
61409,note_on,,,,,0,0,2,,,,,0,,,50,0
61409,note_on,,,,,29,0,2,,,,,0,,,47,0
61409,note_on,,,,,29,0,6,,,,,1,,,59,0
61410,note_on,,,,,1,0,1,,,,,0,,,67,70
61417,note_on,,,,,37,0,3,,,,,1,,,79,0
61424,note_on,,,,,15,0,2,,,,,0,,,53,0
61436,note_on,,,,,56,0,4,,,,,1,,,65,0
61439,note_on,,,,,29,0,1,,,,,0,,,67,0
61439,note_on,,,,,59,0,5,,,,,1,,,62,0
61440,note_on,,,,,0,0,2,,,,,0,,,48,98
61440,note_on,,,,,31,0,6,,,,,1,,,60,78
61440,note_on,,,,,1,0,1,,,,,0,,,60,78
61440,note_on,,,,,16,0,2,,,,,0,,,52,98
61440,note_on,,,,,1,0,5,,,,,1,,,64,68
61440,note_on,,,,,23,0,3,,,,,1,,,79,90
61440,note_on,,,,,4,0,4,,,,,1,,,64,90
61469,note_on,,,,,29,0,1,,,,,0,,,60,0
61470,note_on,,,,,1,0,1,,,,,0,,,67,70
61484,note_on,,,,,44,0,2,,,,,0,,,48,0
61484,note_on,,,,,0,0,2,,,,,0,,,52,0
61493,note_on,,,,,53,0,4,,,,,1,,,64,0
61499,note_on,,,,,59,0,6,,,,,1,,,60,0
61499,note_on,,,,,29,0,1,,,,,0,,,67,0
61499,note_on,,,,,59,0,5,,,,,1,,,64,0
61500,note_on,,,,,7,0,4,,,,,1,,,72,78
61500,note_on,,,,,0,0,2,,,,,0,,,55,98
61500,note_on,,,,,16,0,2,,,,,0,,,52,98
61500,note_on,,,,,1,0,1,,,,,0,,,64,70
61500,note_on,,,,,1,0,5,,,,,1,,,67,78
61500,note_on,,,,,1,0,6,,,,,1,,,64,90
61529,note_on,,,,,29,0,1,,,,,0,,,64,0
61529,note_on,,,,,29,0,2,,,,,0,,,55,0
61529,note_on,,,,,0,0,2,,,,,0,,,52,0
61530,note_on,,,,,1,0,1,,,,,0,,,67,62
61557,note_on,,,,,57,0,4,,,,,1,,,72,0
61558,note_on,,,,,118,0,3,,,,,1,,,79,0
61559,note_on,,,,,59,0,5,,,,,1,,,67,0
61559,note_on,,,,,29,0,1,,,,,0,,,67,0
61559,note_on,,,,,59,0,6,,,,,1,,,64,0
61560,note_on,,,,,0,0,2,,,,,0,,,50,98
61560,note_on,,,,,1,0,1,,,,,0,,,62,62
61560,note_on,,,,,2,0,3,,,,,1,,,67,78
61560,note_on,,,,,1,0,5,,,,,1,,,65,58
61560,note_on,,,,,31,0,2,,,,,0,,,53,98
61560,note_on,,,,,3,0,4,,,,,1,,,71,78
61560,note_on,,,,,1,0,6,,,,,1,,,62,78
61560,note_on,,,,,0,0,2,,,,,0,,,59,88
61589,note_on,,,,,29,0,1,,,,,0,,,62,0
61589,note_on,,,,,0,0,2,,,,,0,,,53,0
61589,note_on,,,,,29,0,2,,,,,0,,,50,0
61590,note_on,,,,,1,0,1,,,,,0,,,67,55
61604,note_on,,,,,15,0,2,,,,,0,,,59,0
61616,note_on,,,,,56,0,4,,,,,1,,,71,0
61619,note_on,,,,,59,0,6,,,,,1,,,62,0
61619,note_on,,,,,29,0,1,,,,,0,,,67,0
61619,note_on,,,,,59,0,5,,,,,1,,,65,0
61620,note_on,,,,,1,0,5,,,,,1,,,64,78
61620,note_on,,,,,1,0,1,,,,,0,,,60,55
61620,note_on,,,,,1,0,6,,,,,1,,,60,78
61620,note_on,,,,,0,0,2,,,,,0,,,55,98
61620,note_on,,,,,4,0,4,,,,,1,,,72,68
61620,note_on,,,,,16,0,2,,,,,0,,,52,98
61620,note_on,,,,,0,0,2,,,,,0,,,48,98
61634,note_on,,,,,14,0,2,,,,,0,,,55,0
61649,note_on,,,,,29,0,1,,,,,0,,,60,0
61649,note_on,,,,,15,0,2,,,,,0,,,48,0
61649,note_on,,,,,0,0,2,,,,,0,,,52,0
61650,note_on,,,,,1,0,1,,,,,0,,,67,70
61653,note_on,,,,,93,0,3,,,,,1,,,67,0
61679,note_on,,,,,59,0,6,,,,,1,,,60,0
61679,note_on,,,,,29,0,1,,,,,0,,,67,0
61679,note_on,,,,,59,0,5,,,,,1,,,64,0
61680,note_on,,,,,1,0,6,,,,,1,,,59,78
61680,note_on,,,,,1,0,1,,,,,0,,,59,62
61680,note_on,,,,,1,0,5,,,,,1,,,62,78
61680,note_on,,,,,0,0,2,,,,,0,,,53,88
61680,note_on,,,,,0,0,2,,,,,0,,,50,98
61680,note_on,,,,,31,0,2,,,,,0,,,47,98
61680,note_on,,,,,60,0,4,,,,,1,,,67,90
61683,note_on,,,,,3,0,4,,,,,1,,,72,0
61709,note_on,,,,,29,0,1,,,,,0,,,59,0
61709,note_on,,,,,29,0,2,,,,,0,,,47,0
61710,note_on,,,,,1,0,1,,,,,0,,,67,70
61739,note_on,,,,,59,0,6,,,,,1,,,59,0
61739,note_on,,,,,29,0,1,,,,,0,,,67,0
61739,note_on,,,,,59,0,5,,,,,1,,,62,0
61740,note_on,,,,,1,0,6,,,,,1,,,55,78
61740,note_on,,,,,1,0,1,,,,,0,,,55,70
61740,note_on,,,,,87,0,3,,,,,1,,,77,68
61740,note_on,,,,,1,0,5,,,,,1,,,59,78
61740,note_on,,,,,31,0,2,,,,,0,,,43,62
61769,note_on,,,,,29,0,2,,,,,0,,,43,0
61769,note_on,,,,,29,0,1,,,,,0,,,55,0
61770,note_on,,,,,1,0,1,,,,,0,,,67,78
61782,note_on,,,,,42,0,3,,,,,1,,,77,0
61799,note_on,,,,,59,0,6,,,,,1,,,55,0
61799,note_on,,,,,29,0,1,,,,,0,,,67,0
61799,note_on,,,,,59,0,5,,,,,1,,,59,0
61800,note_on,,,,,1,0,5,,,,,1,,,60,68
61800,note_on,,,,,18,0,3,,,,,1,,,77,78
61800,note_on,,,,,1,0,1,,,,,0,,,57,70
61800,note_on,,,,,31,0,2,,,,,0,,,45,98
61800,note_on,,,,,1,0,6,,,,,1,,,57,90
61829,note_on,,,,,29,0,1,,,,,0,,,57,0
61829,note_on,,,,,29,0,2,,,,,0,,,45,0
61830,note_on,,,,,1,0,1,,,,,0,,,67,70
61832,note_on,,,,,149,0,4,,,,,1,,,67,0
61840,note_on,,,,,40,0,3,,,,,1,,,77,0
61859,note_on,,,,,59,0,5,,,,,1,,,60,0
61859,note_on,,,,,29,0,1,,,,,0,,,67,0
61859,note_on,,,,,59,0,6,,,,,1,,,57,0
61860,note_on,,,,,1,0,5,,,,,1,,,62,58
61860,note_on,,,,,1,0,1,,,,,0,,,59,70
61860,note_on,,,,,28,0,4,,,,,1,,,67,90
61860,note_on,,,,,1,0,6,,,,,1,,,59,68
61860,note_on,,,,,31,0,2,,,,,0,,,47,98
61860,note_on,,,,,20,0,3,,,,,1,,,77,78
61878,note_on,,,,,18,0,4,,,,,1,,,67,0
61889,note_on,,,,,29,0,1,,,,,0,,,59,0
61889,note_on,,,,,0,0,2,,,,,0,,,50,0
61889,note_on,,,,,0,0,2,,,,,0,,,53,0
61889,note_on,,,,,29,0,2,,,,,0,,,47,0
61890,note_on,,,,,12,0,4,,,,,1,,,67,90
61890,note_on,,,,,1,0,1,,,,,0,,,67,70
61906,note_on,,,,,16,0,4,,,,,1,,,67,0
61914,note_on,,,,,54,0,3,,,,,1,,,77,0
61919,note_on,,,,,29,0,1,,,,,0,,,67,0
61919,note_on,,,,,59,0,6,,,,,1,,,59,0
61919,note_on,,,,,59,0,5,,,,,1,,,62,0
61920,note_on,,,,,0,0,2,,,,,0,,,52,98
61920,note_on,,,,,1,0,1,,,,,0,,,60,70
61920,note_on,,,,,14,0,4,,,,,1,,,67,90
61920,note_on,,,,,1,0,6,,,,,1,,,60,78
61920,note_on,,,,,31,0,2,,,,,0,,,48,98
61920,note_on,,,,,1,0,5,,,,,1,,,64,78
61920,note_on,,,,,6,0,3,,,,,1,,,76,90
61949,note_on,,,,,29,0,2,,,,,0,,,52,0
61949,note_on,,,,,29,0,1,,,,,0,,,60,0
61950,note_on,,,,,30,0,5,,,,,1,,,64,78
61950,note_on,,,,,1,0,1,,,,,0,,,67,70
61964,note_on,,,,,14,0,1,,,,,0,,,67,0
61979,note_on,,,,,29,0,5,,,,,1,,,64,0
61980,note_on,,,,,31,0,2,,,,,0,,,52,88
61980,note_on,,,,,16,0,1,,,,,0,,,55,70
61994,note_on,,,,,14,0,1,,,,,0,,,55,0
62005,note_on,,,,,85,0,3,,,,,1,,,76,0
62009,note_on,,,,,30,0,5,,,,,1,,,64,0
62009,note_on,,,,,89,0,6,,,,,1,,,60,0
62010,note_on,,,,,1,0,6,,,,,1,,,60,78
62010,note_on,,,,,16,0,1,,,,,0,,,67,70
62010,note_on,,,,,90,0,4,,,,,1,,,67,0
62010,note_on,,,,,5,0,3,,,,,1,,,72,58
62024,note_on,,,,,14,0,1,,,,,0,,,67,0
62024,note_on,,,,,44,0,2,,,,,0,,,52,0
62024,note_on,,,,,0,0,2,,,,,0,,,48,0
62034,note_on,,,,,24,0,3,,,,,1,,,72,0
62039,note_on,,,,,29,0,6,,,,,1,,,60,0
62040,note_on,,,,,16,0,2,,,,,0,,,50,98
62040,note_on,,,,,0,0,2,,,,,0,,,47,88
62040,note_on,,,,,1,0,6,,,,,1,,,59,78
62040,note_on,,,,,6,0,3,,,,,1,,,79,78
62040,note_on,,,,,31,0,5,,,,,1,,,62,58
62040,note_on,,,,,30,0,4,,,,,1,,,67,90
62040,note_on,,,,,16,0,1,,,,,0,,,67,62
62069,note_on,,,,,29,0,1,,,,,0,,,67,0
62070,note_on,,,,,1,0,1,,,,,0,,,79,70
62099,note_on,,,,,59,0,2,,,,,0,,,50,0
62099,note_on,,,,,29,0,1,,,,,0,,,79,0
62100,note_on,,,,,1,0,2,,,,,0,,,55,98
62100,note_on,,,,,1,0,1,,,,,0,,,67,44
62114,note_on,,,,,14,0,2,,,,,0,,,47,0
62129,note_on,,,,,15,0,2,,,,,0,,,55,0
62129,note_on,,,,,29,0,1,,,,,0,,,67,0
62129,note_on,,,,,89,0,6,,,,,1,,,59,0
62130,note_on,,,,,1,0,1,,,,,0,,,79,62
62144,note_on,,,,,14,0,1,,,,,0,,,79,0
62146,note_on,,,,,106,0,4,,,,,1,,,67,0
62159,note_on,,,,,119,0,5,,,,,1,,,62,0
62160,note_on,,,,,0,0,2,,,,,0,,,49,110
62160,note_on,,,,,0,0,2,,,,,0,,,55,88
62160,note_on,,,,,0,0,2,,,,,0,,,52,88
62160,note_on,,,,,14,0,4,,,,,1,,,69,90
62160,note_on,,,,,16,0,1,,,,,0,,,83,70
62160,note_on,,,,,31,0,6,,,,,1,,,61,90
62160,note_on,,,,,1,0,5,,,,,1,,,64,90
62160,note_on,,,,,31,0,2,,,,,0,,,57,88
62189,note_on,,,,,29,0,1,,,,,0,,,83,0
62190,note_on,,,,,1,0,1,,,,,0,,,81,62
62219,note_on,,,,,29,0,1,,,,,0,,,81,0
62220,note_on,,,,,1,0,1,,,,,0,,,80,55
62249,note_on,,,,,29,0,1,,,,,0,,,80,0
62249,note_on,,,,,89,0,2,,,,,0,,,55,0
62250,note_on,,,,,1,0,1,,,,,0,,,81,62
62264,note_on,,,,,15,0,2,,,,,0,,,52,0
62264,note_on,,,,,0,0,2,,,,,0,,,49,0
62264,note_on,,,,,14,0,1,,,,,0,,,81,0
62276,note_on,,,,,236,0,3,,,,,1,,,79,0
62279,note_on,,,,,119,0,6,,,,,1,,,61,0
62279,note_on,,,,,119,0,5,,,,,1,,,64,0
62280,note_on,,,,,1,0,6,,,,,1,,,62,90
62280,note_on,,,,,1,0,5,,,,,1,,,65,90
62280,note_on,,,,,0,0,2,,,,,0,,,50,88
62280,note_on,,,,,16,0,2,,,,,0,,,53,88
62280,note_on,,,,,16,0,1,,,,,0,,,81,62
62280,note_on,,,,,4,0,3,,,,,1,,,77,90
62309,note_on,,,,,29,0,1,,,,,0,,,81,0
62310,note_on,,,,,1,0,1,,,,,0,,,86,62
62324,note_on,,,,,14,0,1,,,,,0,,,86,0
62340,note_on,,,,,16,0,1,,,,,0,,,74,62
62369,note_on,,,,,29,0,1,,,,,0,,,74,0
62370,note_on,,,,,1,0,1,,,,,0,,,86,62
62384,note_on,,,,,104,0,2,,,,,0,,,57,0
62384,note_on,,,,,14,0,1,,,,,0,,,86,0
62399,note_on,,,,,119,0,6,,,,,1,,,62,0
62399,note_on,,,,,119,0,5,,,,,1,,,65,0
62400,note_on,,,,,16,0,2,,,,,0,,,47,78
62400,note_on,,,,,0,0,2,,,,,0,,,55,88
62400,note_on,,,,,1,0,5,,,,,1,,,62,90
62400,note_on,,,,,1,0,6,,,,,1,,,59,90
62400,note_on,,,,,240,0,4,,,,,1,,,67,90
62400,note_on,,,,,16,0,1,,,,,0,,,81,70
62401,note_on,,,,,1,0,4,,,,,1,,,69,0
62414,note_on,,,,,14,0,1,,,,,0,,,81,0
62430,note_on,,,,,16,0,1,,,,,0,,,79,70
62444,note_on,,,,,14,0,1,,,,,0,,,79,0
62460,note_on,,,,,16,0,1,,,,,0,,,78,78
62489,note_on,,,,,29,0,1,,,,,0,,,78,0
62490,note_on,,,,,1,0,1,,,,,0,,,79,55
62504,note_on,,,,,0,0,2,,,,,0,,,50,0
62504,note_on,,,,,0,0,2,,,,,0,,,53,0
62504,note_on,,,,,104,0,2,,,,,0,,,47,0
62504,note_on,,,,,14,0,1,,,,,0,,,79,0
62518,note_on,,,,,238,0,3,,,,,1,,,77,0
62519,note_on,,,,,119,0,6,,,,,1,,,59,0
62519,note_on,,,,,119,0,5,,,,,1,,,62,0
62519,note_on,,,,,15,0,2,,,,,0,,,55,0
62520,note_on,,,,,16,0,1,,,,,0,,,79,55
62520,note_on,,,,,1,0,2,,,,,0,,,52,98
62520,note_on,,,,,0,0,2,,,,,0,,,48,98
62520,note_on,,,,,1,0,5,,,,,1,,,64,78
62520,note_on,,,,,2,0,3,,,,,1,,,76,90
62520,note_on,,,,,1,0,6,,,,,1,,,60,78
62549,note_on,,,,,29,0,1,,,,,0,,,79,0
62550,note_on,,,,,1,0,1,,,,,0,,,84,70
62564,note_on,,,,,14,0,1,,,,,0,,,84,0
62580,note_on,,,,,16,0,1,,,,,0,,,72,70
62609,note_on,,,,,29,0,1,,,,,0,,,72,0
62610,note_on,,,,,1,0,1,,,,,0,,,84,70
62624,note_on,,,,,14,0,1,,,,,0,,,84,0
62631,note_on,,,,,230,0,4,,,,,1,,,67,0
62639,note_on,,,,,119,0,6,,,,,1,,,60,0
62639,note_on,,,,,119,0,5,,,,,1,,,64,0
62640,note_on,,,,,9,0,4,,,,,1,,,65,90
62640,note_on,,,,,120,0,2,,,,,0,,,45,70
62640,note_on,,,,,0,0,2,,,,,0,,,53,88
62640,note_on,,,,,1,0,6,,,,,1,,,57,90
62640,note_on,,,,,1,0,5,,,,,1,,,60,90
62640,note_on,,,,,16,0,1,,,,,0,,,79,70
62669,note_on,,,,,29,0,1,,,,,0,,,79,0
62670,note_on,,,,,1,0,1,,,,,0,,,77,55
62699,note_on,,,,,29,0,1,,,,,0,,,77,0
62700,note_on,,,,,1,0,1,,,,,0,,,76,49
62729,note_on,,,,,89,0,2,,,,,0,,,52,0
62729,note_on,,,,,29,0,1,,,,,0,,,76,0
62730,note_on,,,,,1,0,1,,,,,0,,,77,55
62744,note_on,,,,,15,0,2,,,,,0,,,53,0
62744,note_on,,,,,0,0,2,,,,,0,,,45,0
62744,note_on,,,,,14,0,1,,,,,0,,,77,0
62754,note_on,,,,,234,0,3,,,,,1,,,76,0
62759,note_on,,,,,119,0,6,,,,,1,,,57,0
62759,note_on,,,,,119,0,5,,,,,1,,,60,0
62759,note_on,,,,,15,0,2,,,,,0,,,48,0
62760,note_on,,,,,6,0,3,,,,,1,,,74,90
62760,note_on,,,,,16,0,1,,,,,0,,,77,55
62760,note_on,,,,,1,0,2,,,,,0,,,50,98
62760,note_on,,,,,0,0,2,,,,,0,,,47,98
62760,note_on,,,,,1,0,6,,,,,1,,,59,78
62760,note_on,,,,,1,0,5,,,,,1,,,62,90
62789,note_on,,,,,29,0,1,,,,,0,,,77,0
62790,note_on,,,,,1,0,1,,,,,0,,,86,70
62804,note_on,,,,,14,0,1,,,,,0,,,86,0
62820,note_on,,,,,16,0,1,,,,,0,,,74,70
62849,note_on,,,,,29,0,1,,,,,0,,,74,0
62850,note_on,,,,,1,0,1,,,,,0,,,86,70
62864,note_on,,,,,14,0,1,,,,,0,,,86,0
62879,note_on,,,,,119,0,5,,,,,1,,,62,0
62879,note_on,,,,,119,0,6,,,,,1,,,59,0
62880,note_on,,,,,0,0,2,,,,,0,,,52,78
62880,note_on,,,,,120,0,2,,,,,0,,,44,98
62880,note_on,,,,,16,0,1,,,,,0,,,77,62
62880,note_on,,,,,1,0,6,,,,,1,,,56,90
62880,note_on,,,,,240,0,4,,,,,1,,,65,0
62880,note_on,,,,,0,0,4,,,,,1,,,64,90
62880,note_on,,,,,1,0,5,,,,,1,,,59,78
62909,note_on,,,,,29,0,1,,,,,0,,,77,0
62910,note_on,,,,,1,0,1,,,,,0,,,76,49
62939,note_on,,,,,29,0,1,,,,,0,,,76,0
62940,note_on,,,,,1,0,1,,,,,0,,,75,78
62954,note_on,,,,,14,0,1,,,,,0,,,75,0
62969,note_on,,,,,89,0,5,,,,,1,,,59,0
62969,note_on,,,,,89,0,2,,,,,0,,,44,0
62969,note_on,,,,,0,0,2,,,,,0,,,50,0
62970,note_on,,,,,16,0,1,,,,,0,,,76,49
62984,note_on,,,,,14,0,1,,,,,0,,,76,0
62984,note_on,,,,,15,0,2,,,,,0,,,47,0
62984,note_on,,,,,0,0,2,,,,,0,,,52,0
62999,note_on,,,,,119,0,6,,,,,1,,,56,0
63000,note_on,,,,,0,0,2,,,,,0,,,48,98
63000,note_on,,,,,16,0,2,,,,,0,,,45,110
63000,note_on,,,,,240,0,3,,,,,1,,,72,78
63000,note_on,,,,,31,0,5,,,,,1,,,60,78
63000,note_on,,,,,16,0,1,,,,,0,,,76,55
63000,note_on,,,,,1,0,6,,,,,1,,,57,90
63010,note_on,,,,,10,0,3,,,,,1,,,74,0
63029,note_on,,,,,29,0,1,,,,,0,,,76,0
63030,note_on,,,,,1,0,1,,,,,0,,,84,88
63044,note_on,,,,,14,0,1,,,,,0,,,84,0
63060,note_on,,,,,16,0,1,,,,,0,,,72,62
63074,note_on,,,,,14,0,1,,,,,0,,,72,0
63090,note_on,,,,,16,0,1,,,,,0,,,84,78
63104,note_on,,,,,0,0,2,,,,,0,,,45,0
63104,note_on,,,,,104,0,2,,,,,0,,,48,0
63112,note_on,,,,,232,0,4,,,,,1,,,64,0
63119,note_on,,,,,29,0,1,,,,,0,,,84,0
63119,note_on,,,,,119,0,6,,,,,1,,,57,0
63119,note_on,,,,,119,0,5,,,,,1,,,60,0
63120,note_on,,,,,8,0,4,,,,,1,,,69,78
63120,note_on,,,,,1,0,6,,,,,1,,,54,90
63120,note_on,,,,,1,0,5,,,,,1,,,62,90
63120,note_on,,,,,0,0,2,,,,,0,,,41,70
63120,note_on,,,,,0,0,2,,,,,0,,,48,78
63120,note_on,,,,,16,0,2,,,,,0,,,50,88
63120,note_on,,,,,1,0,1,,,,,0,,,76,62
63120,note_on,,,,,0,0,2,,,,,0,,,42,110
63134,note_on,,,,,14,0,2,,,,,0,,,41,0
63149,note_on,,,,,29,0,1,,,,,0,,,76,0
63150,note_on,,,,,1,0,1,,,,,0,,,74,62
63164,note_on,,,,,14,0,1,,,,,0,,,74,0
63180,note_on,,,,,16,0,1,,,,,0,,,73,88
63194,note_on,,,,,14,0,1,,,,,0,,,73,0
63210,note_on,,,,,16,0,1,,,,,0,,,74,62
63224,note_on,,,,,14,0,1,,,,,0,,,74,0
63224,note_on,,,,,0,0,2,,,,,0,,,48,0
63224,note_on,,,,,0,0,2,,,,,0,,,42,0
63224,note_on,,,,,90,0,2,,,,,0,,,50,0
63234,note_on,,,,,224,0,3,,,,,1,,,72,0
63239,note_on,,,,,119,0,4,,,,,1,,,69,0
63239,note_on,,,,,119,0,6,,,,,1,,,54,0
63240,note_on,,,,,1,0,4,,,,,1,,,67,90
63240,note_on,,,,,16,0,1,,,,,0,,,74,55
63240,note_on,,,,,6,0,3,,,,,1,,,71,90
63240,note_on,,,,,16,0,2,,,,,0,,,41,98
63240,note_on,,,,,0,0,2,,,,,0,,,47,78
63240,note_on,,,,,0,0,2,,,,,0,,,44,98
63240,note_on,,,,,1,0,6,,,,,1,,,53,90
63254,note_on,,,,,14,0,1,,,,,0,,,74,0
63270,note_on,,,,,16,0,1,,,,,0,,,83,78
63284,note_on,,,,,14,0,1,,,,,0,,,83,0
63300,note_on,,,,,16,0,1,,,,,0,,,71,62
63314,note_on,,,,,0,0,2,,,,,0,,,41,0
63314,note_on,,,,,14,0,1,,,,,0,,,71,0
63314,note_on,,,,,0,0,2,,,,,0,,,47,0
63314,note_on,,,,,74,0,2,,,,,0,,,44,0
63330,note_on,,,,,16,0,1,,,,,0,,,83,62
63340,note_on,,,,,100,0,4,,,,,1,,,67,0
63344,note_on,,,,,14,0,1,,,,,0,,,83,0
63357,note_on,,,,,117,0,3,,,,,1,,,71,0
63359,note_on,,,,,119,0,6,,,,,1,,,53,0
63359,note_on,,,,,239,0,5,,,,,1,,,62,0
63360,note_on,,,,,20,0,4,,,,,1,,,67,78
63360,note_on,,,,,1,0,6,,,,,1,,,52,90
63360,note_on,,,,,3,0,3,,,,,1,,,79,68
63360,note_on,,,,,1,0,5,,,,,1,,,60,90
63360,note_on,,,,,16,0,1,,,,,0,,,84,78
63360,note_on,,,,,0,0,2,,,,,0,,,48,88
63360,note_on,,,,,0,0,2,,,,,0,,,43,98
63360,note_on,,,,,46,0,2,,,,,0,,,40,98
63389,note_on,,,,,29,0,1,,,,,0,,,84,0
63390,note_on,,,,,1,0,1,,,,,0,,,79,62
63419,note_on,,,,,29,0,1,,,,,0,,,79,0
63420,note_on,,,,,1,0,1,,,,,0,,,77,44
63449,note_on,,,,,89,0,2,,,,,0,,,43,0
63449,note_on,,,,,0,0,2,,,,,0,,,48,0
63449,note_on,,,,,0,0,2,,,,,0,,,40,0
63449,note_on,,,,,29,0,1,,,,,0,,,77,0
63450,note_on,,,,,1,0,1,,,,,0,,,76,44
63479,note_on,,,,,29,0,1,,,,,0,,,76,0
63479,note_on,,,,,119,0,6,,,,,1,,,52,0
63479,note_on,,,,,119,0,5,,,,,1,,,60,0
63480,note_on,,,,,1,0,1,,,,,0,,,81,70
63480,note_on,,,,,1,0,6,,,,,1,,,53,78
63480,note_on,,,,,1,0,5,,,,,1,,,60,90
63480,note_on,,,,,31,0,2,,,,,0,,,50,98
63480,note_on,,,,,0,0,2,,,,,0,,,45,98
63480,note_on,,,,,0,0,2,,,,,0,,,41,88
63480,note_on,,,,,120,0,3,,,,,1,,,77,78
63480,note_on,,,,,120,0,4,,,,,1,,,69,78
63482,note_on,,,,,2,0,3,,,,,1,,,79,0
63482,note_on,,,,,2,0,4,,,,,1,,,67,0
63509,note_on,,,,,29,0,1,,,,,0,,,81,0
63510,note_on,,,,,1,0,1,,,,,0,,,77,55
63539,note_on,,,,,29,0,1,,,,,0,,,77,0
63540,note_on,,,,,1,0,1,,,,,0,,,76,55
63554,note_on,,,,,74,0,2,,,,,0,,,41,0
63569,note_on,,,,,89,0,5,,,,,1,,,60,0
63569,note_on,,,,,89,0,6,,,,,1,,,53,0
63569,note_on,,,,,0,0,2,,,,,0,,,50,0
63569,note_on,,,,,29,0,1,,,,,0,,,76,0
63569,note_on,,,,,15,0,2,,,,,0,,,45,0
63570,note_on,,,,,1,0,1,,,,,0,,,74,62
63599,note_on,,,,,29,0,1,,,,,0,,,74,0
63600,note_on,,,,,31,0,6,,,,,1,,,55,90
63600,note_on,,,,,118,0,4,,,,,1,,,67,78
63600,note_on,,,,,31,0,5,,,,,1,,,60,78
63600,note_on,,,,,1,0,1,,,,,0,,,79,70
63600,note_on,,,,,118,0,3,,,,,1,,,76,90
63600,note_on,,,,,31,0,2,,,,,0,,,52,98
63600,note_on,,,,,0,0,2,,,,,0,,,43,98
63600,note_on,,,,,0,0,2,,,,,0,,,48,98
63603,note_on,,,,,3,0,4,,,,,1,,,69,0
63605,note_on,,,,,5,0,3,,,,,1,,,77,0
63629,note_on,,,,,29,0,1,,,,,0,,,79,0
63630,note_on,,,,,1,0,1,,,,,0,,,76,39
63659,note_on,,,,,29,0,1,,,,,0,,,76,0
63660,note_on,,,,,1,0,1,,,,,0,,,74,70
63689,note_on,,,,,89,0,2,,,,,0,,,48,0
63689,note_on,,,,,29,0,1,,,,,0,,,74,0
63689,note_on,,,,,0,0,2,,,,,0,,,52,0
63690,note_on,,,,,1,0,1,,,,,0,,,72,62
63704,note_on,,,,,15,0,2,,,,,0,,,43,0
63719,note_on,,,,,29,0,1,,,,,0,,,72,0
63719,note_on,,,,,119,0,5,,,,,1,,,60,0
63720,note_on,,,,,1,0,1,,,,,0,,,77,88
63720,note_on,,,,,1,0,5,,,,,1,,,59,90
63720,note_on,,,,,16,0,2,,,,,0,,,47,98
63720,note_on,,,,,0,0,2,,,,,0,,,43,88
63720,note_on,,,,,0,0,2,,,,,0,,,50,98
63720,note_on,,,,,115,0,3,,,,,1,,,74,78
63724,note_on,,,,,4,0,3,,,,,1,,,76,0
63749,note_on,,,,,29,0,1,,,,,0,,,77,0
63750,note_on,,,,,1,0,1,,,,,0,,,74,62
63779,note_on,,,,,29,0,1,,,,,0,,,74,0
63780,note_on,,,,,1,0,1,,,,,0,,,72,55
63809,note_on,,,,,29,0,1,,,,,0,,,72,0
63810,note_on,,,,,1,0,1,,,,,0,,,71,62
63815,note_on,,,,,212,0,4,,,,,1,,,67,0
63824,note_on,,,,,0,0,2,,,,,0,,,47,0
63824,note_on,,,,,104,0,2,,,,,0,,,50,0
63824,note_on,,,,,0,0,2,,,,,0,,,43,0
63838,note_on,,,,,114,0,3,,,,,1,,,74,0
63839,note_on,,,,,239,0,6,,,,,1,,,55,0
63839,note_on,,,,,119,0,5,,,,,1,,,59,0
63839,note_on,,,,,29,0,1,,,,,0,,,71,0
63840,note_on,,,,,25,0,4,,,,,1,,,67,90
63840,note_on,,,,,1,0,5,,,,,1,,,60,90
63840,note_on,,,,,2,0,3,,,,,1,,,72,78
63840,note_on,,,,,0,0,2,,,,,0,,,48,88
63840,note_on,,,,,16,0,2,,,,,0,,,36,98
63840,note_on,,,,,1,0,6,,,,,1,,,48,90
63840,note_on,,,,,1,0,1,,,,,0,,,72,78
63869,note_on,,,,,29,0,1,,,,,0,,,72,0
63870,note_on,,,,,1,0,1,,,,,0,,,67,70
63899,note_on,,,,,29,0,1,,,,,0,,,67,0
63900,note_on,,,,,1,0,1,,,,,0,,,69,70
63929,note_on,,,,,29,0,1,,,,,0,,,69,0
63929,note_on,,,,,89,0,5,,,,,1,,,60,0
63930,note_on,,,,,1,0,1,,,,,0,,,71,62
63949,note_on,,,,,109,0,4,,,,,1,,,67,0
63953,note_on,,,,,113,0,3,,,,,1,,,72,0
63959,note_on,,,,,119,0,2,,,,,0,,,48,0
63959,note_on,,,,,29,0,1,,,,,0,,,71,0
63959,note_on,,,,,0,0,2,,,,,0,,,36,0
63959,note_on,,,,,119,0,6,,,,,1,,,48,0
63960,note_on,,,,,1,0,1,,,,,0,,,72,70
63989,note_on,,,,,29,0,1,,,,,0,,,72,0
63990,note_on,,,,,1,0,1,,,,,0,,,74,70
64019,note_on,,,,,29,0,1,,,,,0,,,74,0
64020,note_on,,,,,1,0,1,,,,,0,,,76,70
64020,note_on,,,,,67,0,3,,,,,1,,,76,78
64049,note_on,,,,,29,0,1,,,,,0,,,76,0
64050,note_on,,,,,1,0,1,,,,,0,,,77,70
64079,note_on,,,,,29,0,1,,,,,0,,,77,0
64080,note_on,,,,,1,0,1,,,,,0,,,79,70
64080,note_on,,,,,60,0,3,,,,,1,,,79,78
64082,note_on,,,,,2,0,3,,,,,1,,,76,0
64109,note_on,,,,,29,0,1,,,,,0,,,79,0
64110,note_on,,,,,1,0,1,,,,,0,,,81,62
64139,note_on,,,,,29,0,1,,,,,0,,,81,0
64140,note_on,,,,,1,0,1,,,,,0,,,77,70
64140,note_on,,,,,58,0,3,,,,,1,,,77,68
64150,note_on,,,,,10,0,3,,,,,1,,,79,0
64169,note_on,,,,,29,0,1,,,,,0,,,77,0
64170,note_on,,,,,1,0,1,,,,,0,,,79,49
64199,note_on,,,,,29,0,1,,,,,0,,,79,0
64200,note_on,,,,,1,0,1,,,,,0,,,76,55
64200,note_on,,,,,50,0,3,,,,,1,,,76,58
64206,note_on,,,,,6,0,3,,,,,1,,,77,0
64229,note_on,,,,,29,0,1,,,,,0,,,76,0
64230,note_on,,,,,1,0,1,,,,,0,,,77,70
64259,note_on,,,,,29,0,1,,,,,0,,,77,0
64260,note_on,,,,,1,0,1,,,,,0,,,74,78
64260,note_on,,,,,54,0,3,,,,,1,,,74,68
64260,note_on,,,,,311,0,4,,,,,1,,,67,78
64260,note_on,,,,,301,0,2,,,,,0,,,67,70
64262,note_on,,,,,2,0,3,,,,,1,,,76,0
64289,note_on,,,,,29,0,1,,,,,0,,,74,0
64290,note_on,,,,,1,0,1,,,,,0,,,76,55
64310,note_on,,,,,48,0,3,,,,,1,,,74,0
64319,note_on,,,,,29,0,1,,,,,0,,,76,0
64319,note_on,,,,,59,0,2,,,,,0,,,67,0
64320,note_on,,,,,1,0,1,,,,,0,,,72,88
64320,note_on,,,,,60,0,4,,,,,1,,,69,78
64320,note_on,,,,,1,0,2,,,,,0,,,69,70
64320,note_on,,,,,10,0,3,,,,,1,,,72,68
64322,note_on,,,,,2,0,4,,,,,1,,,67,0
64349,note_on,,,,,29,0,2,,,,,0,,,69,0
64349,note_on,,,,,29,0,1,,,,,0,,,72,0
64350,note_on,,,,,1,0,2,,,,,0,,,71,55
64379,note_on,,,,,29,0,2,,,,,0,,,71,0
64380,note_on,,,,,58,0,4,,,,,1,,,67,78
64380,note_on,,,,,1,0,2,,,,,0,,,67,62
64380,note_on,,,,,31,0,1,,,,,0,,,72,78
64384,note_on,,,,,4,0,4,,,,,1,,,69,0
64409,note_on,,,,,29,0,2,,,,,0,,,67,0
64410,note_on,,,,,1,0,2,,,,,0,,,69,55
64436,note_on,,,,,52,0,4,,,,,1,,,67,0
64439,note_on,,,,,29,0,2,,,,,0,,,69,0
64440,note_on,,,,,1,0,2,,,,,0,,,65,62
64440,note_on,,,,,4,0,4,,,,,1,,,65,78
64469,note_on,,,,,29,0,2,,,,,0,,,65,0
64470,note_on,,,,,1,0,2,,,,,0,,,67,62
64499,note_on,,,,,29,0,2,,,,,0,,,67,0
64499,note_on,,,,,119,0,1,,,,,0,,,72,0
64500,note_on,,,,,1,0,2,,,,,0,,,64,49
64500,note_on,,,,,1,0,1,,,,,0,,,76,62
64500,note_on,,,,,60,0,4,,,,,1,,,65,0
64500,note_on,,,,,0,0,4,,,,,1,,,64,68
64500,note_on,,,,,180,0,3,,,,,1,,,76,58
64502,note_on,,,,,2,0,3,,,,,1,,,72,0
64529,note_on,,,,,29,0,2,,,,,0,,,64,0
64529,note_on,,,,,29,0,1,,,,,0,,,76,0
64530,note_on,,,,,1,0,1,,,,,0,,,72,62
64530,note_on,,,,,28,0,3,,,,,1,,,72,68
64530,note_on,,,,,1,0,2,,,,,0,,,65,70
64534,note_on,,,,,4,0,3,,,,,1,,,76,0
64550,note_on,,,,,50,0,4,,,,,1,,,64,0
64554,note_on,,,,,20,0,3,,,,,1,,,72,0
64559,note_on,,,,,29,0,2,,,,,0,,,65,0
64559,note_on,,,,,29,0,1,,,,,0,,,72,0
64560,note_on,,,,,6,0,3,,,,,1,,,77,78
64560,note_on,,,,,1,0,2,,,,,0,,,62,70
64560,note_on,,,,,10,0,4,,,,,1,,,62,90
64560,note_on,,,,,1,0,1,,,,,0,,,77,78
64589,note_on,,,,,29,0,1,,,,,0,,,77,0
64590,note_on,,,,,1,0,1,,,,,0,,,79,55
64604,note_on,,,,,44,0,2,,,,,0,,,62,0
64619,note_on,,,,,29,0,1,,,,,0,,,79,0
64620,note_on,,,,,1,0,1,,,,,0,,,76,70
64620,note_on,,,,,60,0,3,,,,,1,,,76,68
64620,note_on,,,,,16,0,2,,,,,0,,,62,78
64630,note_on,,,,,10,0,3,,,,,1,,,77,0
64649,note_on,,,,,29,0,1,,,,,0,,,76,0
64650,note_on,,,,,1,0,1,,,,,0,,,77,55
64679,note_on,,,,,29,0,1,,,,,0,,,77,0
64680,note_on,,,,,1,0,1,,,,,0,,,74,70
64680,note_on,,,,,50,0,3,,,,,1,,,74,68
64686,note_on,,,,,6,0,3,,,,,1,,,76,0
64709,note_on,,,,,29,0,1,,,,,0,,,74,0
64710,note_on,,,,,1,0,1,,,,,0,,,76,62
64738,note_on,,,,,178,0,4,,,,,1,,,62,0
64738,note_on,,,,,52,0,3,,,,,1,,,74,0
64739,note_on,,,,,29,0,1,,,,,0,,,76,0
64739,note_on,,,,,119,0,2,,,,,0,,,62,0
64740,note_on,,,,,2,0,4,,,,,1,,,65,78
64740,note_on,,,,,1,0,1,,,,,0,,,72,70
64740,note_on,,,,,1,0,2,,,,,0,,,65,70
64740,note_on,,,,,2,0,3,,,,,1,,,72,68
64769,note_on,,,,,29,0,1,,,,,0,,,72,0
64769,note_on,,,,,29,0,2,,,,,0,,,65,0
64770,note_on,,,,,1,0,2,,,,,0,,,62,70
64770,note_on,,,,,1,0,1,,,,,0,,,74,62
64770,note_on,,,,,30,0,4,,,,,1,,,62,68
64771,note_on,,,,,1,0,4,,,,,1,,,65,0
64793,note_on,,,,,53,0,3,,,,,1,,,72,0
64795,note_on,,,,,24,0,4,,,,,1,,,62,0
64799,note_on,,,,,29,0,2,,,,,0,,,62,0
64799,note_on,,,,,29,0,1,,,,,0,,,74,0
64800,note_on,,,,,5,0,4,,,,,1,,,67,78
64800,note_on,,,,,7,0,3,,,,,1,,,71,78
64800,note_on,,,,,1,0,2,,,,,0,,,67,70
64800,note_on,,,,,1,0,1,,,,,0,,,71,88
64829,note_on,,,,,29,0,2,,,,,0,,,67,0
64829,note_on,,,,,29,0,1,,,,,0,,,71,0
64830,note_on,,,,,1,0,2,,,,,0,,,69,55
64859,note_on,,,,,29,0,2,,,,,0,,,69,0
64860,note_on,,,,,31,0,1,,,,,0,,,71,88
64860,note_on,,,,,60,0,4,,,,,1,,,65,78
64860,note_on,,,,,1,0,2,,,,,0,,,65,62
64867,note_on,,,,,7,0,4,,,,,1,,,67,0
64889,note_on,,,,,29,0,2,,,,,0,,,65,0
64890,note_on,,,,,1,0,2,,,,,0,,,67,55
64918,note_on,,,,,51,0,4,,,,,1,,,65,0
64919,note_on,,,,,29,0,2,,,,,0,,,67,0
64920,note_on,,,,,2,0,4,,,,,1,,,64,68
64920,note_on,,,,,1,0,2,,,,,0,,,64,62
64949,note_on,,,,,29,0,2,,,,,0,,,64,0
64950,note_on,,,,,1,0,2,,,,,0,,,65,70
64979,note_on,,,,,29,0,2,,,,,0,,,65,0
64979,note_on,,,,,59,0,4,,,,,1,,,64,0
64979,note_on,,,,,119,0,1,,,,,0,,,71,0
64980,note_on,,,,,1,0,1,,,,,0,,,74,78
64980,note_on,,,,,180,0,3,,,,,1,,,74,78
64980,note_on,,,,,1021,0,6,,,,,1,,,55,90
64980,note_on,,,,,0,0,2,,,,,0,,,62,62
64980,note_on,,,,,1,0,2,,,,,0,,,55,62
64980,note_on,,,,,1,0,4,,,,,1,,,62,68
64989,note_on,,,,,9,0,3,,,,,1,,,71,0
65009,note_on,,,,,29,0,2,,,,,0,,,62,0
65009,note_on,,,,,0,0,2,,,,,0,,,55,0
65009,note_on,,,,,29,0,1,,,,,0,,,74,0
65010,note_on,,,,,1,0,1,,,,,0,,,71,70
65010,note_on,,,,,1,0,2,,,,,0,,,64,44
65010,note_on,,,,,21,0,3,,,,,1,,,71,58
65013,note_on,,,,,3,0,3,,,,,1,,,74,0
65028,note_on,,,,,48,0,4,,,,,1,,,62,0
65034,note_on,,,,,21,0,3,,,,,1,,,71,0
65039,note_on,,,,,29,0,2,,,,,0,,,64,0
65039,note_on,,,,,29,0,1,,,,,0,,,71,0
65039,note_on,,,,,59,0,6,,,,,1,,,55,0
65040,note_on,,,,,1,0,1,,,,,0,,,76,78
65040,note_on,,,,,6,0,3,,,,,1,,,76,78
65040,note_on,,,,,12,0,4,,,,,1,,,60,78
65040,note_on,,,,,0,0,2,,,,,0,,,60,70
65040,note_on,,,,,1,0,6,,,,,1,,,60,78
65040,note_on,,,,,1,0,2,,,,,0,,,48,70
65069,note_on,,,,,29,0,1,,,,,0,,,76,0
65070,note_on,,,,,1,0,1,,,,,0,,,77,62
65084,note_on,,,,,44,0,2,,,,,0,,,48,0
65099,note_on,,,,,29,0,1,,,,,0,,,77,0
65099,note_on,,,,,15,0,2,,,,,0,,,60,0
65099,note_on,,,,,59,0,6,,,,,1,,,60,0
65100,note_on,,,,,1,0,6,,,,,1,,,59,78
65100,note_on,,,,,0,0,2,,,,,0,,,59,70
65100,note_on,,,,,1,0,2,,,,,0,,,47,78
65100,note_on,,,,,1,0,1,,,,,0,,,74,78
65129,note_on,,,,,29,0,1,,,,,0,,,74,0
65130,note_on,,,,,1,0,1,,,,,0,,,76,55
65158,note_on,,,,,118,0,4,,,,,1,,,60,0
65159,note_on,,,,,59,0,6,,,,,1,,,59,0
65159,note_on,,,,,59,0,2,,,,,0,,,59,0
65159,note_on,,,,,0,0,2,,,,,0,,,47,0
65159,note_on,,,,,29,0,1,,,,,0,,,76,0
65160,note_on,,,,,1,0,6,,,,,1,,,57,78
65160,note_on,,,,,1,0,2,,,,,0,,,57,70
65160,note_on,,,,,1,0,1,,,,,0,,,72,70
65160,note_on,,,,,0,0,2,,,,,0,,,45,70
65189,note_on,,,,,29,0,1,,,,,0,,,72,0
65189,note_on,,,,,29,0,2,,,,,0,,,57,0
65190,note_on,,,,,1,0,1,,,,,0,,,84,78
65219,note_on,,,,,30,0,2,,,,,0,,,45,0
65219,note_on,,,,,29,0,1,,,,,0,,,84,0
65219,note_on,,,,,59,0,6,,,,,1,,,57,0
65220,note_on,,,,,1,0,2,,,,,0,,,60,78
65220,note_on,,,,,1,0,6,,,,,1,,,55,78
65220,note_on,,,,,0,0,2,,,,,0,,,55,70
65220,note_on,,,,,1,0,1,,,,,0,,,83,62
65220,note_on,,,,,1291,0,5,,,,,1,,,60,78
65249,note_on,,,,,29,0,1,,,,,0,,,83,0
65249,note_on,,,,,29,0,2,,,,,0,,,55,0
65249,note_on,,,,,0,0,2,,,,,0,,,60,0
65250,note_on,,,,,1,0,1,,,,,0,,,84,62
65279,note_on,,,,,29,0,1,,,,,0,,,84,0
65279,note_on,,,,,59,0,6,,,,,1,,,55,0
65279,note_on,,,,,59,0,5,,,,,1,,,60,0
65280,note_on,,,,,1,0,5,,,,,1,,,65,78
65280,note_on,,,,,1,0,6,,,,,1,,,53,90
65280,note_on,,,,,0,0,2,,,,,0,,,65,88
65280,note_on,,,,,31,0,2,,,,,0,,,53,70
65280,note_on,,,,,1,0,1,,,,,0,,,81,78
65294,note_on,,,,,14,0,2,,,,,0,,,65,0
65309,note_on,,,,,29,0,1,,,,,0,,,81,0
65310,note_on,,,,,1,0,1,,,,,0,,,83,62
65339,note_on,,,,,29,0,1,,,,,0,,,83,0
65339,note_on,,,,,45,0,2,,,,,0,,,53,0
65339,note_on,,,,,59,0,5,,,,,1,,,65,0
65340,note_on,,,,,1,0,1,,,,,0,,,79,62
65340,note_on,,,,,0,0,2,,,,,0,,,60,70
65340,note_on,,,,,1,0,5,,,,,1,,,64,78
65340,note_on,,,,,182,0,4,,,,,1,,,60,78
65340,note_on,,,,,1,0,2,,,,,0,,,64,78
65369,note_on,,,,,29,0,1,,,,,0,,,79,0
65370,note_on,,,,,1,0,1,,,,,0,,,81,62
65384,note_on,,,,,44,0,2,,,,,0,,,64,0
65391,note_on,,,,,51,0,4,,,,,1,,,60,0
65398,note_on,,,,,358,0,3,,,,,1,,,76,0
65399,note_on,,,,,15,0,2,,,,,0,,,60,0
65399,note_on,,,,,29,0,1,,,,,0,,,81,0
65399,note_on,,,,,59,0,5,,,,,1,,,64,0
65400,note_on,,,,,1,0,1,,,,,0,,,77,78
65400,note_on,,,,,1,0,2,,,,,0,,,62,78
65400,note_on,,,,,9,0,4,,,,,1,,,69,90
65400,note_on,,,,,2,0,3,,,,,1,,,77,90
65400,note_on,,,,,1,0,5,,,,,1,,,62,68
65429,note_on,,,,,29,0,1,,,,,0,,,77,0
65430,note_on,,,,,1,0,1,,,,,0,,,79,62
65459,note_on,,,,,29,0,1,,,,,0,,,79,0
65459,note_on,,,,,59,0,5,,,,,1,,,62,0
65459,note_on,,,,,179,0,6,,,,,1,,,53,0
65459,note_on,,,,,59,0,2,,,,,0,,,62,0
65460,note_on,,,,,1,0,6,,,,,1,,,57,78
65460,note_on,,,,,0,0,2,,,,,0,,,60,70
65460,note_on,,,,,1,0,1,,,,,0,,,76,49
65460,note_on,,,,,1,0,2,,,,,0,,,57,78
65460,note_on,,,,,1,0,5,,,,,1,,,60,68
65460,note_on,,,,,60,0,3,,,,,1,,,76,78
65468,note_on,,,,,8,0,3,,,,,1,,,77,0
65489,note_on,,,,,29,0,6,,,,,1,,,57,0
65489,note_on,,,,,0,0,2,,,,,0,,,57,0
65489,note_on,,,,,29,0,2,,,,,0,,,60,0
65489,note_on,,,,,29,0,1,,,,,0,,,76,0
65490,note_on,,,,,1,0,2,,,,,0,,,53,70
65490,note_on,,,,,1,0,1,,,,,0,,,77,62
65490,note_on,,,,,1,0,6,,,,,1,,,53,68
65515,note_on,,,,,47,0,3,,,,,1,,,76,0
65519,note_on,,,,,29,0,2,,,,,0,,,53,0
65519,note_on,,,,,29,0,1,,,,,0,,,77,0
65519,note_on,,,,,59,0,5,,,,,1,,,60,0
65519,note_on,,,,,29,0,6,,,,,1,,,53,0
65520,note_on,,,,,1,0,1,,,,,0,,,74,78
65520,note_on,,,,,1,0,6,,,,,1,,,59,78
65520,note_on,,,,,5,0,3,,,,,1,,,74,78
65520,note_on,,,,,1,0,5,,,,,1,,,59,90
65520,note_on,,,,,1,0,2,,,,,0,,,59,88
65549,note_on,,,,,29,0,1,,,,,0,,,74,0
65550,note_on,,,,,1,0,1,,,,,0,,,86,70
65579,note_on,,,,,59,0,2,,,,,0,,,59,0
65579,note_on,,,,,59,0,6,,,,,1,,,59,0
65579,note_on,,,,,29,0,1,,,,,0,,,86,0
65580,note_on,,,,,1,0,6,,,,,1,,,57,90
65580,note_on,,,,,0,0,2,,,,,0,,,65,98
65580,note_on,,,,,1,0,2,,,,,0,,,57,88
65580,note_on,,,,,1,0,1,,,,,0,,,84,78
65609,note_on,,,,,29,0,1,,,,,0,,,84,0
65609,note_on,,,,,29,0,2,,,,,0,,,57,0
65610,note_on,,,,,1,0,1,,,,,0,,,86,70
65624,note_on,,,,,15,0,2,,,,,0,,,65,0
65634,note_on,,,,,234,0,4,,,,,1,,,69,0
65639,note_on,,,,,29,0,1,,,,,0,,,86,0
65639,note_on,,,,,59,0,6,,,,,1,,,57,0
65640,note_on,,,,,16,0,2,,,,,0,,,62,88
65640,note_on,,,,,1,0,6,,,,,1,,,55,68
65640,note_on,,,,,1,0,1,,,,,0,,,83,78
65640,note_on,,,,,6,0,4,,,,,1,,,71,78
65640,note_on,,,,,0,0,2,,,,,0,,,55,78
65669,note_on,,,,,29,0,1,,,,,0,,,83,0
65670,note_on,,,,,1,0,1,,,,,0,,,84,62
65684,note_on,,,,,44,0,2,,,,,0,,,55,0
65699,note_on,,,,,179,0,5,,,,,1,,,59,0
65699,note_on,,,,,29,0,1,,,,,0,,,84,0
65699,note_on,,,,,59,0,6,,,,,1,,,55,0
65699,note_on,,,,,59,0,4,,,,,1,,,71,0
65700,note_on,,,,,1,0,1,,,,,0,,,81,70
65700,note_on,,,,,1,0,6,,,,,1,,,53,78
65700,note_on,,,,,1,0,4,,,,,1,,,69,68
65700,note_on,,,,,1,0,5,,,,,1,,,62,78
65700,note_on,,,,,16,0,2,,,,,0,,,53,78
65729,note_on,,,,,29,0,2,,,,,0,,,53,0
65729,note_on,,,,,29,0,1,,,,,0,,,81,0
65729,note_on,,,,,29,0,5,,,,,1,,,62,0
65730,note_on,,,,,1,0,1,,,,,0,,,83,55
65730,note_on,,,,,1,0,5,,,,,1,,,59,90
65758,note_on,,,,,58,0,4,,,,,1,,,69,0
65759,note_on,,,,,29,0,1,,,,,0,,,83,0
65759,note_on,,,,,59,0,6,,,,,1,,,53,0
65759,note_on,,,,,29,0,5,,,,,1,,,59,0
65759,note_on,,,,,30,0,2,,,,,0,,,62,0
65760,note_on,,,,,2,0,4,,,,,1,,,67,78
65760,note_on,,,,,0,0,2,,,,,0,,,64,88
65760,note_on,,,,,1,0,1,,,,,0,,,79,70
65760,note_on,,,,,1,0,6,,,,,1,,,52,90
65760,note_on,,,,,1,0,5,,,,,1,,,64,78
65760,note_on,,,,,1,0,2,,,,,0,,,52,88
65789,note_on,,,,,29,0,1,,,,,0,,,79,0
65790,note_on,,,,,1,0,1,,,,,0,,,81,55
65804,note_on,,,,,44,0,2,,,,,0,,,64,0
65819,note_on,,,,,29,0,1,,,,,0,,,81,0
65819,note_on,,,,,59,0,5,,,,,1,,,64,0
65820,note_on,,,,,1,0,1,,,,,0,,,77,78
65820,note_on,,,,,16,0,2,,,,,0,,,62,78
65820,note_on,,,,,1,0,5,,,,,1,,,62,78
65820,note_on,,,,,0,0,2,,,,,0,,,59,78
65849,note_on,,,,,29,0,1,,,,,0,,,77,0
65850,note_on,,,,,1,0,1,,,,,0,,,79,70
65864,note_on,,,,,44,0,2,,,,,0,,,59,0
65864,note_on,,,,,0,0,2,,,,,0,,,62,0
65879,note_on,,,,,29,0,1,,,,,0,,,79,0
65879,note_on,,,,,59,0,5,,,,,1,,,62,0
65880,note_on,,,,,360,0,3,,,,,1,,,76,78
65880,note_on,,,,,16,0,2,,,,,0,,,60,70
65880,note_on,,,,,1,0,1,,,,,0,,,76,70
65880,note_on,,,,,1,0,5,,,,,1,,,60,78
65888,note_on,,,,,8,0,3,,,,,1,,,74,0
65909,note_on,,,,,29,0,2,,,,,0,,,60,0
65909,note_on,,,,,29,0,1,,,,,0,,,76,0
65910,note_on,,,,,1,0,1,,,,,0,,,77,70
65939,note_on,,,,,29,0,1,,,,,0,,,77,0
65939,note_on,,,,,30,0,2,,,,,0,,,52,0
65939,note_on,,,,,179,0,6,,,,,1,,,52,0
65939,note_on,,,,,59,0,5,,,,,1,,,60,0
65940,note_on,,,,,52,0,3,,,,,1,,,76,0
65940,note_on,,,,,0,0,2,,,,,0,,,59,78
65940,note_on,,,,,0,0,3,,,,,1,,,74,68
65940,note_on,,,,,1,0,2,,,,,0,,,55,78
65940,note_on,,,,,1,0,1,,,,,0,,,74,78
65940,note_on,,,,,1,0,6,,,,,1,,,55,78
65940,note_on,,,,,1,0,5,,,,,1,,,59,68
65969,note_on,,,,,29,0,6,,,,,1,,,55,0
65969,note_on,,,,,29,0,2,,,,,0,,,59,0
65969,note_on,,,,,0,0,2,,,,,0,,,55,0
65969,note_on,,,,,29,0,1,,,,,0,,,74,0
65970,note_on,,,,,1,0,2,,,,,0,,,52,70
65970,note_on,,,,,1,0,1,,,,,0,,,76,55
65970,note_on,,,,,1,0,6,,,,,1,,,52,58
65996,note_on,,,,,56,0,3,,,,,1,,,74,0
65999,note_on,,,,,29,0,6,,,,,1,,,52,0
65999,note_on,,,,,29,0,2,,,,,0,,,52,0
65999,note_on,,,,,29,0,1,,,,,0,,,76,0
65999,note_on,,,,,59,0,5,,,,,1,,,59,0
66000,note_on,,,,,1,0,1,,,,,0,,,72,78
66000,note_on,,,,,1,0,5,,,,,1,,,57,90
66000,note_on,,,,,1,0,6,,,,,1,,,57,78
66000,note_on,,,,,4,0,3,,,,,1,,,72,68
66000,note_on,,,,,1,0,2,,,,,0,,,57,78
66029,note_on,,,,,29,0,1,,,,,0,,,72,0
66030,note_on,,,,,1,0,1,,,,,0,,,84,62
66059,note_on,,,,,29,0,1,,,,,0,,,84,0
66059,note_on,,,,,59,0,6,,,,,1,,,57,0
66059,note_on,,,,,59,0,2,,,,,0,,,57,0
66060,note_on,,,,,1,0,1,,,,,0,,,83,78
66060,note_on,,,,,0,0,2,,,,,0,,,64,88
66060,note_on,,,,,1,0,2,,,,,0,,,55,78
66060,note_on,,,,,1,0,6,,,,,1,,,55,90
66089,note_on,,,,,29,0,1,,,,,0,,,83,0
66089,note_on,,,,,29,0,2,,,,,0,,,55,0
66090,note_on,,,,,1,0,1,,,,,0,,,84,70
66104,note_on,,,,,15,0,2,,,,,0,,,64,0
66119,note_on,,,,,59,0,6,,,,,1,,,55,0
66119,note_on,,,,,29,0,1,,,,,0,,,84,0
66120,note_on,,,,,1,0,1,,,,,0,,,81,70
66120,note_on,,,,,1,0,6,,,,,1,,,53,68
66120,note_on,,,,,16,0,2,,,,,0,,,53,78
66120,note_on,,,,,0,0,2,,,,,0,,,60,78
66120,note_on,,,,,360,0,4,,,,,1,,,69,78
66121,note_on,,,,,1,0,4,,,,,1,,,67,0
66149,note_on,,,,,29,0,1,,,,,0,,,81,0
66150,note_on,,,,,1,0,1,,,,,0,,,83,62
66164,note_on,,,,,44,0,2,,,,,0,,,53,0
66179,note_on,,,,,59,0,6,,,,,1,,,53,0
66179,note_on,,,,,29,0,1,,,,,0,,,83,0
66180,note_on,,,,,1,0,6,,,,,1,,,52,78
66180,note_on,,,,,1,0,1,,,,,0,,,79,62
66180,note_on,,,,,16,0,2,,,,,0,,,52,70
66180,note_on,,,,,59,0,4,,,,,1,,,67,78
66181,note_on,,,,,1,0,4,,,,,1,,,69,0
66209,note_on,,,,,29,0,2,,,,,0,,,52,0
66209,note_on,,,,,29,0,1,,,,,0,,,79,0
66210,note_on,,,,,1,0,1,,,,,0,,,81,62
66239,note_on,,,,,59,0,6,,,,,1,,,52,0
66239,note_on,,,,,29,0,1,,,,,0,,,81,0
66239,note_on,,,,,58,0,4,,,,,1,,,67,0
66240,note_on,,,,,1,0,1,,,,,0,,,77,70
66240,note_on,,,,,1,0,4,,,,,1,,,65,78
66240,note_on,,,,,0,0,2,,,,,0,,,53,88
66240,note_on,,,,,1,0,6,,,,,1,,,50,78
66240,note_on,,,,,31,0,2,,,,,0,,,50,78
66269,note_on,,,,,29,0,1,,,,,0,,,77,0
66270,note_on,,,,,1,0,1,,,,,0,,,79,62
66284,note_on,,,,,44,0,2,,,,,0,,,50,0
66299,note_on,,,,,59,0,6,,,,,1,,,50,0
66299,note_on,,,,,0,0,2,,,,,0,,,60,0
66299,note_on,,,,,29,0,1,,,,,0,,,79,0
66299,note_on,,,,,15,0,2,,,,,0,,,53,0
66300,note_on,,,,,1,0,6,,,,,1,,,48,68
66300,note_on,,,,,1,0,1,,,,,0,,,76,55
66300,note_on,,,,,1,0,2,,,,,0,,,52,78
66329,note_on,,,,,29,0,2,,,,,0,,,52,0
66329,note_on,,,,,29,0,1,,,,,0,,,76,0
66330,note_on,,,,,1,0,1,,,,,0,,,77,70
66359,note_on,,,,,59,0,6,,,,,1,,,48,0
66359,note_on,,,,,359,0,5,,,,,1,,,57,0
66359,note_on,,,,,29,0,1,,,,,0,,,77,0
66360,note_on,,,,,0,0,2,,,,,0,,,55,78
66360,note_on,,,,,31,0,2,,,,,0,,,47,88
66360,note_on,,,,,1,0,5,,,,,1,,,59,78
66360,note_on,,,,,1,0,1,,,,,0,,,74,78
66360,note_on,,,,,1,0,6,,,,,1,,,47,78
66360,note_on,,,,,360,0,3,,,,,1,,,74,90
66370,note_on,,,,,10,0,3,,,,,1,,,72,0
66389,note_on,,,,,29,0,2,,,,,0,,,47,0
66389,note_on,,,,,29,0,1,,,,,0,,,74,0
66390,note_on,,,,,1,0,1,,,,,0,,,76,55
66413,note_on,,,,,173,0,4,,,,,1,,,65,0
66419,note_on,,,,,30,0,2,,,,,0,,,55,0
66419,note_on,,,,,29,0,1,,,,,0,,,76,0
66419,note_on,,,,,59,0,5,,,,,1,,,59,0
66419,note_on,,,,,59,0,6,,,,,1,,,47,0
66420,note_on,,,,,1,0,1,,,,,0,,,72,55
66420,note_on,,,,,1,0,6,,,,,1,,,45,68
66420,note_on,,,,,1,0,2,,,,,0,,,45,78
66420,note_on,,,,,1,0,5,,,,,1,,,60,78
66420,note_on,,,,,50,0,3,,,,,1,,,76,78
66420,note_on,,,,,0,0,2,,,,,0,,,48,78
66420,note_on,,,,,7,0,4,,,,,1,,,72,78
66421,note_on,,,,,1,0,3,,,,,1,,,74,0
66449,note_on,,,,,29,0,2,,,,,0,,,45,0
66449,note_on,,,,,29,0,1,,,,,0,,,72,0
66450,note_on,,,,,1,0,1,,,,,0,,,74,70
66464,note_on,,,,,15,0,2,,,,,0,,,48,0
66477,note_on,,,,,57,0,4,,,,,1,,,72,0
66479,note_on,,,,,59,0,6,,,,,1,,,45,0
66479,note_on,,,,,59,0,5,,,,,1,,,60,0
66479,note_on,,,,,29,0,1,,,,,0,,,74,0
66480,note_on,,,,,1,0,1,,,,,0,,,71,78
66480,note_on,,,,,0,0,2,,,,,0,,,50,88
66480,note_on,,,,,0,0,2,,,,,0,,,53,78
66480,note_on,,,,,59,0,3,,,,,1,,,77,90
66480,note_on,,,,,16,0,2,,,,,0,,,43,78
66480,note_on,,,,,1,0,6,,,,,1,,,43,78
66480,note_on,,,,,1,0,5,,,,,1,,,62,68
66480,note_on,,,,,3,0,4,,,,,1,,,71,90
66495,note_on,,,,,15,0,3,,,,,1,,,76,0
66509,note_on,,,,,29,0,1,,,,,0,,,71,0
66510,note_on,,,,,1,0,1,,,,,0,,,72,55
66539,note_on,,,,,29,0,1,,,,,0,,,72,0
66540,note_on,,,,,1,0,1,,,,,0,,,74,62
66569,note_on,,,,,29,0,1,,,,,0,,,74,0
66570,note_on,,,,,1,0,1,,,,,0,,,76,62
66584,note_on,,,,,0,0,2,,,,,0,,,43,0
66584,note_on,,,,,104,0,2,,,,,0,,,50,0
66599,note_on,,,,,29,0,1,,,,,0,,,76,0
66600,note_on,,,,,120,0,4,,,,,1,,,67,90
66600,note_on,,,,,0,0,2,,,,,0,,,43,88
66600,note_on,,,,,16,0,2,,,,,0,,,50,88
66600,note_on,,,,,120,0,6,,,,,1,,,55,90
66600,note_on,,,,,1,0,1,,,,,0,,,77,70
66611,note_on,,,,,11,0,4,,,,,1,,,71,0
66629,note_on,,,,,29,0,6,,,,,1,,,43,0
66629,note_on,,,,,29,0,1,,,,,0,,,77,0
66630,note_on,,,,,1,0,1,,,,,0,,,79,62
66644,note_on,,,,,149,0,3,,,,,1,,,77,0
66659,note_on,,,,,179,0,5,,,,,1,,,62,0
66659,note_on,,,,,29,0,1,,,,,0,,,79,0
66660,note_on,,,,,1,0,5,,,,,1,,,62,78
66660,note_on,,,,,1,0,1,,,,,0,,,81,62
66660,note_on,,,,,16,0,3,,,,,1,,,77,68
66674,note_on,,,,,74,0,2,,,,,0,,,43,0
66674,note_on,,,,,0,0,2,,,,,0,,,50,0
66687,note_on,,,,,76,0,4,,,,,1,,,67,0
66689,note_on,,,,,29,0,5,,,,,1,,,62,0
66689,note_on,,,,,15,0,2,,,,,0,,,53,0
66689,note_on,,,,,29,0,1,,,,,0,,,81,0
66690,note_on,,,,,0,0,2,,,,,0,,,50,70
66690,note_on,,,,,1,0,2,,,,,0,,,43,70
66690,note_on,,,,,1,0,1,,,,,0,,,83,70
66704,note_on,,,,,14,0,2,,,,,0,,,50,0
66704,note_on,,,,,0,0,2,,,,,0,,,43,0
66704,note_on,,,,,14,0,1,,,,,0,,,83,0
66717,note_on,,,,,57,0,3,,,,,1,,,77,0
66719,note_on,,,,,90,0,6,,,,,1,,,55,0
66720,note_on,,,,,31,0,5,,,,,1,,,60,90
66720,note_on,,,,,33,0,4,,,,,1,,,67,78
66720,note_on,,,,,1,0,6,,,,,1,,,60,78
66720,note_on,,,,,16,0,1,,,,,0,,,84,62
66720,note_on,,,,,16,0,2,,,,,0,,,52,88
66720,note_on,,,,,0,0,2,,,,,0,,,48,78
66720,note_on,,,,,3,0,3,,,,,1,,,76,78
66749,note_on,,,,,29,0,1,,,,,0,,,84,0
66750,note_on,,,,,1,0,1,,,,,0,,,79,55
66780,note_on,,,,,30,0,1,,,,,0,,,77,70
66794,note_on,,,,,0,0,2,,,,,0,,,52,0
66794,note_on,,,,,74,0,2,,,,,0,,,48,0
66794,note_on,,,,,14,0,1,,,,,0,,,79,0
66809,note_on,,,,,15,0,1,,,,,0,,,77,0
66810,note_on,,,,,1,0,1,,,,,0,,,76,55
66833,note_on,,,,,113,0,3,,,,,1,,,76,0
66834,note_on,,,,,114,0,4,,,,,1,,,67,0
66839,note_on,,,,,29,0,1,,,,,0,,,76,0
66839,note_on,,,,,119,0,6,,,,,1,,,60,0
66840,note_on,,,,,0,0,2,,,,,0,,,57,88
66840,note_on,,,,,0,0,2,,,,,0,,,60,88
66840,note_on,,,,,0,0,2,,,,,0,,,53,78
66840,note_on,,,,,6,0,4,,,,,1,,,69,90
66840,note_on,,,,,46,0,2,,,,,0,,,62,88
66840,note_on,,,,,1,0,6,,,,,1,,,53,78
66840,note_on,,,,,7,0,3,,,,,1,,,74,90
66840,note_on,,,,,1,0,1,,,,,0,,,81,78
66869,note_on,,,,,29,0,1,,,,,0,,,81,0
66869,note_on,,,,,149,0,5,,,,,1,,,60,0
66870,note_on,,,,,1,0,1,,,,,0,,,77,70
66899,note_on,,,,,29,0,1,,,,,0,,,77,0
66900,note_on,,,,,1,0,1,,,,,0,,,76,55
66900,note_on,,,,,31,0,5,,,,,1,,,62,78
66929,note_on,,,,,29,0,1,,,,,0,,,76,0
66930,note_on,,,,,1,0,1,,,,,0,,,74,70
66944,note_on,,,,,104,0,2,,,,,0,,,57,0
66944,note_on,,,,,0,0,2,,,,,0,,,53,0
66944,note_on,,,,,0,0,2,,,,,0,,,62,0
66949,note_on,,,,,109,0,4,,,,,1,,,69,0
66950,note_on,,,,,110,0,3,,,,,1,,,74,0
66959,note_on,,,,,29,0,1,,,,,0,,,74,0
66959,note_on,,,,,59,0,5,,,,,1,,,62,0
66959,note_on,,,,,119,0,6,,,,,1,,,53,0
66960,note_on,,,,,1,0,5,,,,,1,,,64,90
66960,note_on,,,,,11,0,4,,,,,1,,,67,90
66960,note_on,,,,,16,0,2,,,,,0,,,55,70
66960,note_on,,,,,0,0,2,,,,,0,,,64,98
66960,note_on,,,,,1,0,6,,,,,1,,,55,90
66960,note_on,,,,,10,0,3,,,,,1,,,72,78
66960,note_on,,,,,1,0,1,,,,,0,,,79,70
66989,note_on,,,,,29,0,1,,,,,0,,,79,0
66990,note_on,,,,,1,0,1,,,,,0,,,76,55
67019,note_on,,,,,29,0,1,,,,,0,,,76,0
67020,note_on,,,,,1,0,1,,,,,0,,,74,70
67049,note_on,,,,,29,0,1,,,,,0,,,74,0
67049,note_on,,,,,89,0,2,,,,,0,,,64,0
67049,note_on,,,,,0,0,2,,,,,0,,,55,0
67050,note_on,,,,,1,0,1,,,,,0,,,72,70
67079,note_on,,,,,119,0,5,,,,,1,,,64,0
67079,note_on,,,,,30,0,2,,,,,0,,,60,0
67079,note_on,,,,,29,0,1,,,,,0,,,72,0
67080,note_on,,,,,1,0,2,,,,,0,,,59,98
67080,note_on,,,,,1,0,5,,,,,1,,,62,90
67080,note_on,,,,,0,0,2,,,,,0,,,55,88
67080,note_on,,,,,0,0,2,,,,,0,,,62,88
67080,note_on,,,,,120,0,3,,,,,1,,,71,78
67080,note_on,,,,,1,0,1,,,,,0,,,77,78
67084,note_on,,,,,4,0,3,,,,,1,,,72,0
67109,note_on,,,,,29,0,1,,,,,0,,,77,0
67110,note_on,,,,,1,0,1,,,,,0,,,74,70
67139,note_on,,,,,29,0,1,,,,,0,,,74,0
67139,note_on,,,,,0,0,2,,,,,0,,,59,0
67139,note_on,,,,,59,0,2,,,,,0,,,62,0
67139,note_on,,,,,0,0,2,,,,,0,,,55,0
67140,note_on,,,,,1,0,1,,,,,0,,,72,62
67169,note_on,,,,,29,0,1,,,,,0,,,72,0
67170,note_on,,,,,1,0,1,,,,,0,,,71,70
67181,note_on,,,,,221,0,4,,,,,1,,,67,0
67194,note_on,,,,,110,0,3,,,,,1,,,71,0
67199,note_on,,,,,29,0,1,,,,,0,,,71,0
67199,note_on,,,,,239,0,6,,,,,1,,,55,0
67199,note_on,,,,,119,0,5,,,,,1,,,62,0
67200,note_on,,,,,19,0,4,,,,,1,,,67,90
67200,note_on,,,,,1,0,5,,,,,1,,,60,90
67200,note_on,,,,,1,0,1,,,,,0,,,72,78
67200,note_on,,,,,0,0,2,,,,,0,,,52,88
67200,note_on,,,,,0,0,2,,,,,0,,,48,78
67200,note_on,,,,,61,0,2,,,,,0,,,60,78
67200,note_on,,,,,6,0,3,,,,,1,,,72,90
67200,note_on,,,,,1,0,6,,,,,1,,,48,90
67229,note_on,,,,,29,0,2,,,,,0,,,52,0
67229,note_on,,,,,29,0,1,,,,,0,,,72,0
67229,note_on,,,,,0,0,2,,,,,0,,,48,0
67229,note_on,,,,,0,0,2,,,,,0,,,60,0
67260,note_on,,,,,31,0,1,,,,,0,,,72,78
67260,note_on,,,,,31,0,2,,,,,0,,,60,88
67289,note_on,,,,,29,0,1,,,,,0,,,72,0
67289,note_on,,,,,89,0,5,,,,,1,,,60,0
67289,note_on,,,,,29,0,2,,,,,0,,,60,0
67290,note_on,,,,,1,0,1,,,,,0,,,71,70
67290,note_on,,,,,1,0,2,,,,,0,,,59,78
67303,note_on,,,,,103,0,3,,,,,1,,,72,0
67304,note_on,,,,,14,0,2,,,,,0,,,59,0
67319,note_on,,,,,119,0,6,,,,,1,,,48,0
67319,note_on,,,,,29,0,1,,,,,0,,,71,0
67320,note_on,,,,,120,0,4,,,,,1,,,67,0
67320,note_on,,,,,1,0,1,,,,,0,,,69,62
67320,note_on,,,,,16,0,2,,,,,0,,,57,78
67349,note_on,,,,,29,0,1,,,,,0,,,69,0
67349,note_on,,,,,29,0,2,,,,,0,,,57,0
67350,note_on,,,,,1,0,1,,,,,0,,,71,49
67379,note_on,,,,,29,0,1,,,,,0,,,71,0
67380,note_on,,,,,31,0,2,,,,,0,,,55,78
67380,note_on,,,,,1,0,1,,,,,0,,,67,62
67409,note_on,,,,,29,0,2,,,,,0,,,55,0
67409,note_on,,,,,29,0,1,,,,,0,,,67,0
67410,note_on,,,,,1,0,1,,,,,0,,,69,44
67439,note_on,,,,,29,0,1,,,,,0,,,69,0
67440,note_on,,,,,31,0,2,,,,,0,,,53,88
67440,note_on,,,,,1,0,1,,,,,0,,,65,78
67469,note_on,,,,,29,0,1,,,,,0,,,65,0
67469,note_on,,,,,29,0,2,,,,,0,,,53,0
67470,note_on,,,,,1,0,1,,,,,0,,,67,62
67499,note_on,,,,,29,0,1,,,,,0,,,67,0
67500,note_on,,,,,1,0,1,,,,,0,,,64,70
67500,note_on,,,,,31,0,2,,,,,0,,,52,88
67529,note_on,,,,,29,0,1,,,,,0,,,64,0
67529,note_on,,,,,29,0,2,,,,,0,,,52,0
67530,note_on,,,,,1,0,1,,,,,0,,,65,62
67559,note_on,,,,,29,0,1,,,,,0,,,65,0
67560,note_on,,,,,0,0,2,,,,,0,,,55,98
67560,note_on,,,,,1,0,1,,,,,0,,,62,78
67560,note_on,,,,,31,0,2,,,,,0,,,50,98
67560,note_on,,,,,0,0,2,,,,,0,,,59,88
67589,note_on,,,,,0,0,2,,,,,0,,,59,0
67589,note_on,,,,,29,0,1,,,,,0,,,62,0
67589,note_on,,,,,0,0,2,,,,,0,,,50,0
67589,note_on,,,,,29,0,2,,,,,0,,,55,0
67590,note_on,,,,,1,0,1,,,,,0,,,64,49
67619,note_on,,,,,29,0,1,,,,,0,,,64,0
67620,note_on,,,,,1,0,1,,,,,0,,,60,62
67620,note_on,,,,,31,0,2,,,,,0,,,48,88
67620,note_on,,,,,0,0,2,,,,,0,,,52,88
67649,note_on,,,,,0,0,2,,,,,0,,,48,0
67649,note_on,,,,,29,0,1,,,,,0,,,60,0
67649,note_on,,,,,29,0,2,,,,,0,,,52,0
67650,note_on,,,,,1,0,1,,,,,0,,,62,70
67679,note_on,,,,,29,0,1,,,,,0,,,62,0
67680,note_on,,,,,360,0,4,,,,,1,,,67,90
67680,note_on,,,,,377,0,3,,,,,1,,,77,90
67680,note_on,,,,,1,0,1,,,,,0,,,59,88
67680,note_on,,,,,391,0,5,,,,,1,,,62,90
67680,note_on,,,,,31,0,2,,,,,0,,,47,88
67680,note_on,,,,,0,0,2,,,,,0,,,50,88
67680,note_on,,,,,0,0,2,,,,,0,,,53,98
67680,note_on,,,,,361,0,6,,,,,1,,,59,90
67694,note_on,,,,,14,0,1,,,,,0,,,59,0
67709,note_on,,,,,0,0,2,,,,,0,,,47,0
67709,note_on,,,,,29,0,2,,,,,0,,,50,0
67724,note_on,,,,,15,0,2,,,,,0,,,53,0
67740,note_on,,,,,46,0,1,,,,,0,,,86,98
67740,note_on,,,,,0,0,1,,,,,0,,,74,98
67740,note_on,,,,,0,0,1,,,,,0,,,77,88
67769,note_on,,,,,89,0,5,,,,,1,,,62,0
67776,note_on,,,,,96,0,4,,,,,1,,,67,0
67784,note_on,,,,,0,0,1,,,,,0,,,86,0
67784,note_on,,,,,44,0,1,,,,,0,,,77,0
67784,note_on,,,,,0,0,1,,,,,0,,,74,0
67797,note_on,,,,,117,0,3,,,,,1,,,77,0
67799,note_on,,,,,119,0,6,,,,,1,,,59,0
67800,note_on,,,,,76,0,2,,,,,0,,,48,98
67800,note_on,,,,,1,0,6,,,,,1,,,60,90
67800,note_on,,,,,0,0,2,,,,,0,,,60,98
67800,note_on,,,,,31,0,5,,,,,1,,,60,90
67800,note_on,,,,,24,0,4,,,,,1,,,67,90
67800,note_on,,,,,3,0,3,,,,,1,,,76,78
67800,note_on,,,,,0,0,2,,,,,0,,,52,98
67859,note_on,,,,,59,0,2,,,,,0,,,52,0
67859,note_on,,,,,0,0,2,,,,,0,,,48,0
67860,note_on,,,,,0,0,1,,,,,0,,,84,98
67860,note_on,,,,,76,0,1,,,,,0,,,72,98
67860,note_on,,,,,0,0,1,,,,,0,,,76,98
67874,note_on,,,,,15,0,2,,,,,0,,,60,0
67889,note_on,,,,,89,0,5,,,,,1,,,60,0
67904,note_on,,,,,0,0,1,,,,,0,,,72,0
67904,note_on,,,,,44,0,1,,,,,0,,,84,0
67904,note_on,,,,,0,0,1,,,,,0,,,76,0
67905,note_on,,,,,105,0,4,,,,,1,,,67,0
67912,note_on,,,,,112,0,3,,,,,1,,,76,0
67919,note_on,,,,,119,0,6,,,,,1,,,60,0
67920,note_on,,,,,0,0,2,,,,,0,,,55,98
67920,note_on,,,,,46,0,2,,,,,0,,,60,98
67920,note_on,,,,,0,0,2,,,,,0,,,62,110
67920,note_on,,,,,31,0,5,,,,,1,,,60,90
67920,note_on,,,,,8,0,3,,,,,1,,,74,90
67920,note_on,,,,,15,0,4,,,,,1,,,69,90
67920,note_on,,,,,1,0,6,,,,,1,,,53,68
67980,note_on,,,,,76,0,1,,,,,0,,,74,98
67980,note_on,,,,,0,0,1,,,,,0,,,84,88
67980,note_on,,,,,0,0,1,,,,,0,,,81,88
68024,note_on,,,,,0,0,2,,,,,0,,,55,0
68024,note_on,,,,,104,0,2,,,,,0,,,62,0
68024,note_on,,,,,0,0,2,,,,,0,,,60,0
68024,note_on,,,,,0,0,1,,,,,0,,,74,0
68024,note_on,,,,,0,0,1,,,,,0,,,84,0
68024,note_on,,,,,44,0,1,,,,,0,,,81,0
68028,note_on,,,,,108,0,4,,,,,1,,,69,0
68039,note_on,,,,,119,0,6,,,,,1,,,53,0
68039,note_on,,,,,119,0,5,,,,,1,,,60,0
68040,note_on,,,,,1,0,6,,,,,1,,,55,90
68040,note_on,,,,,16,0,2,,,,,0,,,55,98
68040,note_on,,,,,0,0,2,,,,,0,,,59,98
68040,note_on,,,,,0,0,2,,,,,0,,,62,98
68040,note_on,,,,,1,0,5,,,,,1,,,59,90
68040,note_on,,,,,12,0,4,,,,,1,,,67,90
68100,note_on,,,,,76,0,1,,,,,0,,,74,88
68100,note_on,,,,,0,0,1,,,,,0,,,83,88
68100,note_on,,,,,0,0,1,,,,,0,,,79,78
68114,note_on,,,,,0,0,1,,,,,0,,,74,0
68114,note_on,,,,,14,0,1,,,,,0,,,83,0
68129,note_on,,,,,15,0,1,,,,,0,,,79,0
68144,note_on,,,,,0,0,2,,,,,0,,,59,0
68144,note_on,,,,,0,0,2,,,,,0,,,55,0
68144,note_on,,,,,104,0,2,,,,,0,,,62,0
68147,note_on,,,,,107,0,4,,,,,1,,,67,0
68157,note_on,,,,,237,0,3,,,,,1,,,74,0
68159,note_on,,,,,119,0,6,,,,,1,,,55,0
68159,note_on,,,,,119,0,5,,,,,1,,,59,0
68160,note_on,,,,,0,0,1,,,,,0,,,84,88
68160,note_on,,,,,31,0,1,,,,,0,,,76,88
68160,note_on,,,,,0,0,1,,,,,0,,,79,88
68160,note_on,,,,,13,0,4,,,,,1,,,67,90
68160,note_on,,,,,3,0,3,,,,,1,,,76,90
68160,note_on,,,,,1,0,6,,,,,1,,,48,90
68160,note_on,,,,,16,0,2,,,,,0,,,48,88
68160,note_on,,,,,0,0,2,,,,,0,,,60,98
68160,note_on,,,,,1,0,5,,,,,1,,,60,90
68204,note_on,,,,,44,0,1,,,,,0,,,79,0
68204,note_on,,,,,0,0,1,,,,,0,,,76,0
68204,note_on,,,,,0,0,1,,,,,0,,,84,0
68204,note_on,,,,,0,0,2,,,,,0,,,48,0
68204,note_on,,,,,44,0,2,,,,,0,,,60,0
68219,note_on,,,,,59,0,5,,,,,1,,,60,0
68220,note_on,,,,,16,0,1,,,,,0,,,72,55
68220,note_on,,,,,16,0,2,,,,,0,,,60,78
68234,note_on,,,,,14,0,2,,,,,0,,,60,0
68249,note_on,,,,,29,0,1,,,,,0,,,72,0
68250,note_on,,,,,1,0,1,,,,,0,,,71,49
68250,note_on,,,,,16,0,2,,,,,0,,,59,62
68258,note_on,,,,,98,0,4,,,,,1,,,67,0
68259,note_on,,,,,99,0,3,,,,,1,,,76,0
68264,note_on,,,,,14,0,2,,,,,0,,,59,0
68279,note_on,,,,,29,0,1,,,,,0,,,71,0
68279,note_on,,,,,119,0,6,,,,,1,,,48,0
68280,note_on,,,,,16,0,2,,,,,0,,,57,78
68280,note_on,,,,,1,0,1,,,,,0,,,69,55
68309,note_on,,,,,29,0,2,,,,,0,,,57,0
68309,note_on,,,,,29,0,1,,,,,0,,,69,0
68310,note_on,,,,,1,0,1,,,,,0,,,71,49
68339,note_on,,,,,29,0,1,,,,,0,,,71,0
68340,note_on,,,,,31,0,2,,,,,0,,,55,62
68340,note_on,,,,,1,0,1,,,,,0,,,67,62
68369,note_on,,,,,29,0,1,,,,,0,,,67,0
68369,note_on,,,,,29,0,2,,,,,0,,,55,0
68370,note_on,,,,,1,0,1,,,,,0,,,69,49
68399,note_on,,,,,29,0,1,,,,,0,,,69,0
68400,note_on,,,,,1,0,1,,,,,0,,,65,88
68400,note_on,,,,,31,0,2,,,,,0,,,53,78
68429,note_on,,,,,29,0,1,,,,,0,,,65,0
68430,note_on,,,,,1,0,1,,,,,0,,,67,62
68444,note_on,,,,,44,0,2,,,,,0,,,53,0
68459,note_on,,,,,29,0,1,,,,,0,,,67,0
68460,note_on,,,,,1,0,1,,,,,0,,,64,78
68460,note_on,,,,,16,0,2,,,,,0,,,52,78
68489,note_on,,,,,29,0,1,,,,,0,,,64,0
68489,note_on,,,,,29,0,2,,,,,0,,,52,0
68490,note_on,,,,,1,0,1,,,,,0,,,65,88
68519,note_on,,,,,29,0,1,,,,,0,,,65,0
68520,note_on,,,,,1,0,1,,,,,0,,,62,88
68520,note_on,,,,,0,0,2,,,,,0,,,59,88
68520,note_on,,,,,31,0,2,,,,,0,,,50,98
68520,note_on,,,,,0,0,2,,,,,0,,,55,88
68549,note_on,,,,,0,0,2,,,,,0,,,59,0
68549,note_on,,,,,29,0,1,,,,,0,,,62,0
68549,note_on,,,,,29,0,2,,,,,0,,,55,0
68549,note_on,,,,,0,0,2,,,,,0,,,50,0
68550,note_on,,,,,1,0,1,,,,,0,,,64,78
68579,note_on,,,,,29,0,1,,,,,0,,,64,0
68580,note_on,,,,,1,0,1,,,,,0,,,60,70
68580,note_on,,,,,31,0,2,,,,,0,,,52,98
68580,note_on,,,,,0,0,2,,,,,0,,,48,98
68609,note_on,,,,,29,0,1,,,,,0,,,60,0
68609,note_on,,,,,29,0,2,,,,,0,,,48,0
68609,note_on,,,,,0,0,2,,,,,0,,,52,0
68610,note_on,,,,,1,0,1,,,,,0,,,62,78
68639,note_on,,,,,29,0,1,,,,,0,,,62,0
68640,note_on,,,,,31,0,2,,,,,0,,,47,88
68640,note_on,,,,,0,0,2,,,,,0,,,50,98
68640,note_on,,,,,421,0,5,,,,,1,,,62,90
68640,note_on,,,,,381,0,3,,,,,1,,,77,90
68640,note_on,,,,,382,0,4,,,,,1,,,67,90
68640,note_on,,,,,0,0,2,,,,,0,,,53,98
68640,note_on,,,,,1,0,1,,,,,0,,,59,88
68640,note_on,,,,,361,0,6,,,,,1,,,59,90
68654,note_on,,,,,14,0,1,,,,,0,,,59,0
68700,note_on,,,,,0,0,1,,,,,0,,,77,98
68700,note_on,,,,,46,0,1,,,,,0,,,74,98
68700,note_on,,,,,0,0,1,,,,,0,,,86,110
68714,note_on,,,,,0,0,2,,,,,0,,,47,0
68714,note_on,,,,,74,0,2,,,,,0,,,53,0
68714,note_on,,,,,0,0,2,,,,,0,,,50,0
68729,note_on,,,,,89,0,5,,,,,1,,,62,0
68741,note_on,,,,,101,0,4,,,,,1,,,67,0
68756,note_on,,,,,116,0,3,,,,,1,,,77,0
68759,note_on,,,,,119,0,6,,,,,1,,,59,0
68760,note_on,,,,,4,0,3,,,,,1,,,76,78
68760,note_on,,,,,0,0,2,,,,,0,,,60,110
68760,note_on,,,,,46,0,2,,,,,0,,,48,98
68760,note_on,,,,,31,0,5,,,,,1,,,60,90
68760,note_on,,,,,0,0,2,,,,,0,,,52,110
68760,note_on,,,,,19,0,4,,,,,1,,,67,90
68760,note_on,,,,,1,0,6,,,,,1,,,60,90
68774,note_on,,,,,74,0,1,,,,,0,,,77,0
68774,note_on,,,,,0,0,1,,,,,0,,,74,0
68774,note_on,,,,,0,0,1,,,,,0,,,86,0
68820,note_on,,,,,46,0,1,,,,,0,,,84,98
68820,note_on,,,,,0,0,1,,,,,0,,,76,98
68820,note_on,,,,,0,0,1,,,,,0,,,72,98
68834,note_on,,,,,74,0,2,,,,,0,,,52,0
68834,note_on,,,,,0,0,2,,,,,0,,,48,0
68834,note_on,,,,,0,0,2,,,,,0,,,60,0
68849,note_on,,,,,89,0,5,,,,,1,,,60,0
68865,note_on,,,,,105,0,4,,,,,1,,,67,0
68879,note_on,,,,,59,0,1,,,,,0,,,76,0
68879,note_on,,,,,0,0,1,,,,,0,,,72,0
68879,note_on,,,,,0,0,1,,,,,0,,,84,0
68879,note_on,,,,,119,0,6,,,,,1,,,60,0
68880,note_on,,,,,0,0,2,,,,,0,,,60,98
68880,note_on,,,,,46,0,2,,,,,0,,,53,110
68880,note_on,,,,,120,0,3,,,,,1,,,74,90
68880,note_on,,,,,1,0,6,,,,,1,,,53,78
68880,note_on,,,,,31,0,5,,,,,1,,,60,78
68880,note_on,,,,,15,0,4,,,,,1,,,69,90
68880,note_on,,,,,0,0,2,,,,,0,,,62,110
68883,note_on,,,,,3,0,3,,,,,1,,,76,0
68940,note_on,,,,,61,0,1,,,,,0,,,74,98
68940,note_on,,,,,0,0,1,,,,,0,,,81,88
68940,note_on,,,,,0,0,1,,,,,0,,,84,88
68969,note_on,,,,,0,0,2,,,,,0,,,60,0
68969,note_on,,,,,89,0,2,,,,,0,,,62,0
68969,note_on,,,,,0,0,2,,,,,0,,,53,0
68994,note_on,,,,,114,0,4,,,,,1,,,69,0
68999,note_on,,,,,59,0,1,,,,,0,,,81,0
68999,note_on,,,,,119,0,6,,,,,1,,,53,0
68999,note_on,,,,,119,0,5,,,,,1,,,60,0
68999,note_on,,,,,0,0,1,,,,,0,,,84,0
68999,note_on,,,,,0,0,1,,,,,0,,,74,0
69000,note_on,,,,,0,0,2,,,,,0,,,59,110
69000,note_on,,,,,0,0,2,,,,,0,,,55,110
69000,note_on,,,,,1,0,6,,,,,1,,,55,90
69000,note_on,,,,,31,0,2,,,,,0,,,62,110
69000,note_on,,,,,6,0,4,,,,,1,,,67,78
69000,note_on,,,,,1,0,5,,,,,1,,,59,90
69060,note_on,,,,,61,0,1,,,,,0,,,74,88
69060,note_on,,,,,0,0,1,,,,,0,,,83,88
69060,note_on,,,,,0,0,1,,,,,0,,,79,78
69089,note_on,,,,,0,0,1,,,,,0,,,74,0
69089,note_on,,,,,0,0,1,,,,,0,,,83,0
69089,note_on,,,,,29,0,1,,,,,0,,,79,0
69089,note_on,,,,,89,0,2,,,,,0,,,55,0
69089,note_on,,,,,0,0,2,,,,,0,,,59,0
69089,note_on,,,,,0,0,2,,,,,0,,,62,0
69103,note_on,,,,,103,0,4,,,,,1,,,67,0
69119,note_on,,,,,119,0,6,,,,,1,,,55,0
69119,note_on,,,,,119,0,5,,,,,1,,,59,0
69120,note_on,,,,,1,0,5,,,,,1,,,60,90
69120,note_on,,,,,1,0,6,,,,,1,,,48,90
69120,note_on,,,,,17,0,4,,,,,1,,,67,90
69120,note_on,,,,,237,0,3,,,,,1,,,72,90
69120,note_on,,,,,31,0,1,,,,,0,,,84,88
69120,note_on,,,,,0,0,2,,,,,0,,,60,98
69120,note_on,,,,,31,0,2,,,,,0,,,48,110
69120,note_on,,,,,0,0,1,,,,,0,,,76,98
69122,note_on,,,,,2,0,3,,,,,1,,,74,0
69134,note_on,,,,,0,0,1,,,,,0,,,84,0
69134,note_on,,,,,14,0,1,,,,,0,,,76,0
69150,note_on,,,,,16,0,1,,,,,0,,,72,55
69179,note_on,,,,,29,0,1,,,,,0,,,72,0
69180,note_on,,,,,1,0,1,,,,,0,,,71,62
69201,note_on,,,,,79,0,3,,,,,1,,,72,0
69209,note_on,,,,,89,0,5,,,,,1,,,60,0
69209,note_on,,,,,29,0,1,,,,,0,,,71,0
69210,note_on,,,,,1,0,1,,,,,0,,,72,62
69224,note_on,,,,,0,0,2,,,,,0,,,48,0
69224,note_on,,,,,104,0,2,,,,,0,,,60,0
69233,note_on,,,,,113,0,4,,,,,1,,,67,0
69239,note_on,,,,,29,0,1,,,,,0,,,72,0
69239,note_on,,,,,119,0,6,,,,,1,,,48,0
69240,note_on,,,,,1,0,1,,,,,0,,,74,62
69240,note_on,,,,,0,0,2,,,,,0,,,60,98
69240,note_on,,,,,16,0,2,,,,,0,,,48,98
69269,note_on,,,,,29,0,1,,,,,0,,,74,0
69270,note_on,,,,,1,0,1,,,,,0,,,72,62
69299,note_on,,,,,29,0,1,,,,,0,,,72,0
69300,note_on,,,,,1,0,1,,,,,0,,,71,62
69314,note_on,,,,,0,0,2,,,,,0,,,48,0
69314,note_on,,,,,74,0,2,,,,,0,,,60,0
69329,note_on,,,,,29,0,1,,,,,0,,,71,0
69330,note_on,,,,,16,0,2,,,,,0,,,60,88
69330,note_on,,,,,0,0,2,,,,,0,,,48,88
69330,note_on,,,,,1,0,1,,,,,0,,,72,70
69344,note_on,,,,,14,0,2,,,,,0,,,48,0
69344,note_on,,,,,14,0,1,,,,,0,,,72,0
69359,note_on,,,,,15,0,2,,,,,0,,,60,0
69360,note_on,,,,,16,0,1,,,,,0,,,60,98
69360,note_on,,,,,0,0,2,,,,,0,,,36,110
69360,note_on,,,,,1,0,2,,,,,0,,,48,98
69389,note_on,,,,,29,0,1,,,,,0,,,60,0
69390,note_on,,,,,1,0,1,,,,,0,,,72,88
69404,note_on,,,,,44,0,2,,,,,0,,,36,0
69404,note_on,,,,,0,0,2,,,,,0,,,48,0
69419,note_on,,,,,29,0,1,,,,,0,,,72,0
69420,note_on,,,,,0,0,2,,,,,0,,,50,110
69420,note_on,,,,,16,0,2,,,,,0,,,38,98
69420,note_on,,,,,1,0,1,,,,,0,,,62,98
69449,note_on,,,,,29,0,1,,,,,0,,,62,0
69450,note_on,,,,,1,0,1,,,,,0,,,72,78
69464,note_on,,,,,44,0,2,,,,,0,,,50,0
69464,note_on,,,,,0,0,2,,,,,0,,,38,0
69479,note_on,,,,,29,0,1,,,,,0,,,72,0
69480,note_on,,,,,16,0,2,,,,,0,,,40,98
69480,note_on,,,,,0,0,2,,,,,0,,,52,98
69480,note_on,,,,,1,0,1,,,,,0,,,64,88
69509,note_on,,,,,29,0,2,,,,,0,,,52,0
69509,note_on,,,,,29,0,1,,,,,0,,,64,0
69510,note_on,,,,,1,0,1,,,,,0,,,72,78
69524,note_on,,,,,15,0,2,,,,,0,,,40,0
69539,note_on,,,,,29,0,1,,,,,0,,,72,0
69540,note_on,,,,,1,0,1,,,,,0,,,65,98
69540,note_on,,,,,0,0,2,,,,,0,,,53,98
69540,note_on,,,,,16,0,2,,,,,0,,,41,88
69569,note_on,,,,,29,0,1,,,,,0,,,65,0
69569,note_on,,,,,0,0,2,,,,,0,,,41,0
69569,note_on,,,,,29,0,2,,,,,0,,,53,0
69570,note_on,,,,,1,0,1,,,,,0,,,72,70
69599,note_on,,,,,29,0,1,,,,,0,,,72,0
69600,note_on,,,,,31,0,2,,,,,0,,,43,78
69600,note_on,,,,,1,0,1,,,,,0,,,67,110
69600,note_on,,,,,0,0,2,,,,,0,,,55,98
69614,note_on,,,,,14,0,1,,,,,0,,,67,0
69630,note_on,,,,,16,0,1,,,,,0,,,72,88
69659,note_on,,,,,29,0,1,,,,,0,,,72,0
69660,note_on,,,,,1,0,1,,,,,0,,,71,70
69689,note_on,,,,,29,0,1,,,,,0,,,71,0
69690,note_on,,,,,1,0,1,,,,,0,,,72,70
69704,note_on,,,,,104,0,2,,,,,0,,,43,0
69719,note_on,,,,,29,0,1,,,,,0,,,72,0
69719,note_on,,,,,15,0,2,,,,,0,,,55,0
69720,note_on,,,,,0,0,2,,,,,0,,,60,98
69720,note_on,,,,,1,0,2,,,,,0,,,48,98
69720,note_on,,,,,1,0,1,,,,,0,,,74,78
69749,note_on,,,,,29,0,1,,,,,0,,,74,0
69750,note_on,,,,,1,0,1,,,,,0,,,72,62
69779,note_on,,,,,29,0,1,,,,,0,,,72,0
69780,note_on,,,,,1,0,1,,,,,0,,,71,62
69794,note_on,,,,,74,0,2,,,,,0,,,60,0
69794,note_on,,,,,0,0,2,,,,,0,,,48,0
69809,note_on,,,,,29,0,1,,,,,0,,,71,0
69810,note_on,,,,,16,0,2,,,,,0,,,60,88
69810,note_on,,,,,0,0,2,,,,,0,,,48,88
69810,note_on,,,,,1,0,1,,,,,0,,,72,70
69824,note_on,,,,,14,0,2,,,,,0,,,48,0
69824,note_on,,,,,0,0,2,,,,,0,,,60,0
69839,note_on,,,,,29,0,1,,,,,0,,,72,0
69840,note_on,,,,,1,0,1,,,,,0,,,64,88
69840,note_on,,,,,0,0,2,,,,,0,,,52,98
69840,note_on,,,,,16,0,2,,,,,0,,,40,88
69869,note_on,,,,,29,0,1,,,,,0,,,64,0
69870,note_on,,,,,1,0,1,,,,,0,,,72,88
69884,note_on,,,,,0,0,2,,,,,0,,,40,0
69884,note_on,,,,,44,0,2,,,,,0,,,52,0
69899,note_on,,,,,29,0,1,,,,,0,,,72,0
69900,note_on,,,,,1,0,1,,,,,0,,,65,98
69900,note_on,,,,,0,0,2,,,,,0,,,41,78
69900,note_on,,,,,16,0,2,,,,,0,,,53,98
69929,note_on,,,,,29,0,2,,,,,0,,,41,0
69929,note_on,,,,,29,0,1,,,,,0,,,65,0
69930,note_on,,,,,1,0,1,,,,,0,,,72,78
69944,note_on,,,,,15,0,2,,,,,0,,,53,0
69959,note_on,,,,,29,0,1,,,,,0,,,72,0
69960,note_on,,,,,0,0,2,,,,,0,,,55,98
69960,note_on,,,,,16,0,2,,,,,0,,,43,88
69960,note_on,,,,,1,0,1,,,,,0,,,67,98
69989,note_on,,,,,29,0,1,,,,,0,,,67,0
69989,note_on,,,,,29,0,2,,,,,0,,,55,0
69990,note_on,,,,,1,0,1,,,,,0,,,72,78
70004,note_on,,,,,15,0,2,,,,,0,,,43,0
70019,note_on,,,,,29,0,1,,,,,0,,,72,0
70020,note_on,,,,,1,0,1,,,,,0,,,69,88
70020,note_on,,,,,16,0,2,,,,,0,,,45,62
70020,note_on,,,,,0,0,2,,,,,0,,,57,98
70049,note_on,,,,,0,0,2,,,,,0,,,45,0
70049,note_on,,,,,29,0,1,,,,,0,,,69,0
70049,note_on,,,,,29,0,2,,,,,0,,,57,0
70050,note_on,,,,,1,0,1,,,,,0,,,72,78
70064,note_on,,,,,14,0,1,,,,,0,,,72,0
70080,note_on,,,,,847,0,4,,,,,1,,,67,90
70080,note_on,,,,,841,0,6,,,,,1,,,58,90
70080,note_on,,,,,879,0,3,,,,,1,,,76,78
70080,note_on,,,,,0,0,2,,,,,0,,,58,110
70080,note_on,,,,,31,0,2,,,,,0,,,46,98
70080,note_on,,,,,16,0,1,,,,,0,,,70,110
70080,note_on,,,,,871,0,5,,,,,1,,,60,90
70094,note_on,,,,,14,0,1,,,,,0,,,70,0
70110,note_on,,,,,16,0,1,,,,,0,,,72,70
70139,note_on,,,,,29,0,1,,,,,0,,,72,0
70140,note_on,,,,,1,0,1,,,,,0,,,71,70
70169,note_on,,,,,29,0,1,,,,,0,,,71,0
70170,note_on,,,,,1,0,1,,,,,0,,,72,70
70184,note_on,,,,,104,0,2,,,,,0,,,58,0
70184,note_on,,,,,0,0,2,,,,,0,,,46,0
70199,note_on,,,,,29,0,1,,,,,0,,,72,0
70200,note_on,,,,,16,0,2,,,,,0,,,48,98
70200,note_on,,,,,0,0,2,,,,,0,,,60,98
70200,note_on,,,,,1,0,1,,,,,0,,,74,88
70229,note_on,,,,,29,0,1,,,,,0,,,74,0
70230,note_on,,,,,1,0,1,,,,,0,,,72,62
70259,note_on,,,,,29,0,1,,,,,0,,,72,0
70260,note_on,,,,,1,0,1,,,,,0,,,71,70
70274,note_on,,,,,74,0,2,,,,,0,,,60,0
70274,note_on,,,,,0,0,2,,,,,0,,,48,0
70289,note_on,,,,,29,0,1,,,,,0,,,71,0
70290,note_on,,,,,1,0,1,,,,,0,,,72,70
70290,note_on,,,,,16,0,2,,,,,0,,,48,78
70290,note_on,,,,,0,0,2,,,,,0,,,60,88
70304,note_on,,,,,0,0,2,,,,,0,,,48,0
70304,note_on,,,,,14,0,2,,,,,0,,,60,0
70319,note_on,,,,,29,0,1,,,,,0,,,72,0
70320,note_on,,,,,1,0,1,,,,,0,,,76,78
70320,note_on,,,,,0,0,2,,,,,0,,,58,110
70320,note_on,,,,,16,0,2,,,,,0,,,46,98
70349,note_on,,,,,269,0,6,,,,,1,,,58,0
70349,note_on,,,,,29,0,2,,,,,0,,,58,0
70349,note_on,,,,,29,0,1,,,,,0,,,76,0
70350,note_on,,,,,1,0,1,,,,,0,,,72,49
70364,note_on,,,,,15,0,2,,,,,0,,,46,0
70379,note_on,,,,,29,0,1,,,,,0,,,72,0
70380,note_on,,,,,0,0,3,,,,,1,,,77,78
70380,note_on,,,,,16,0,2,,,,,0,,,45,88
70380,note_on,,,,,0,0,2,,,,,0,,,57,110
70380,note_on,,,,,31,0,6,,,,,1,,,57,78
70380,note_on,,,,,1,0,1,,,,,0,,,77,70
70380,note_on,,,,,300,0,3,,,,,1,,,76,0
70380,note_on,,,,,0,0,4,,,,,1,,,69,78
70380,note_on,,,,,300,0,4,,,,,1,,,67,0
70409,note_on,,,,,29,0,2,,,,,0,,,57,0
70409,note_on,,,,,0,0,2,,,,,0,,,45,0
70409,note_on,,,,,29,0,1,,,,,0,,,77,0
70409,note_on,,,,,329,0,5,,,,,1,,,60,0
70410,note_on,,,,,1,0,1,,,,,0,,,72,62
70439,note_on,,,,,29,0,1,,,,,0,,,72,0
70439,note_on,,,,,59,0,6,,,,,1,,,57,0
70440,note_on,,,,,0,0,1,,,,,0,,,76,88
70440,note_on,,,,,1,0,6,,,,,1,,,55,68
70440,note_on,,,,,60,0,3,,,,,1,,,76,68
70440,note_on,,,,,0,0,2,,,,,0,,,55,88
70440,note_on,,,,,31,0,2,,,,,0,,,43,78
70440,note_on,,,,,31,0,5,,,,,1,,,60,90
70440,note_on,,,,,60,0,4,,,,,1,,,70,78
70440,note_on,,,,,1,0,1,,,,,0,,,79,88
70448,note_on,,,,,8,0,4,,,,,1,,,69,0
70450,note_on,,,,,10,0,3,,,,,1,,,77,0
70469,note_on,,,,,29,0,2,,,,,0,,,55,0
70469,note_on,,,,,29,0,5,,,,,1,,,60,0
70469,note_on,,,,,0,0,1,,,,,0,,,79,0
70469,note_on,,,,,29,0,1,,,,,0,,,76,0
70470,note_on,,,,,1,0,1,,,,,0,,,72,62
70484,note_on,,,,,15,0,2,,,,,0,,,43,0
70499,note_on,,,,,29,0,1,,,,,0,,,72,0
70499,note_on,,,,,59,0,6,,,,,1,,,55,0
70500,note_on,,,,,16,0,2,,,,,0,,,41,88
70500,note_on,,,,,0,0,2,,,,,0,,,53,98
70500,note_on,,,,,1,0,6,,,,,1,,,53,78
70500,note_on,,,,,31,0,5,,,,,1,,,60,78
70500,note_on,,,,,50,0,3,,,,,1,,,77,68
70500,note_on,,,,,0,0,1,,,,,0,,,81,78
70500,note_on,,,,,1,0,1,,,,,0,,,77,88
70500,note_on,,,,,52,0,4,,,,,1,,,69,78
70503,note_on,,,,,3,0,4,,,,,1,,,70,0
70507,note_on,,,,,7,0,3,,,,,1,,,76,0
70529,note_on,,,,,0,0,1,,,,,0,,,77,0
70529,note_on,,,,,29,0,5,,,,,1,,,60,0
70529,note_on,,,,,29,0,1,,,,,0,,,81,0
70529,note_on,,,,,0,0,2,,,,,0,,,41,0
70529,note_on,,,,,29,0,2,,,,,0,,,53,0
70530,note_on,,,,,1,0,1,,,,,0,,,72,62
70544,note_on,,,,,14,0,1,,,,,0,,,72,0
70554,note_on,,,,,47,0,3,,,,,1,,,77,0
70554,note_on,,,,,51,0,4,,,,,1,,,69,0
70559,note_on,,,,,59,0,6,,,,,1,,,53,0
70560,note_on,,,,,0,0,2,,,,,0,,,52,98
70560,note_on,,,,,6,0,3,,,,,1,,,79,78
70560,note_on,,,,,6,0,4,,,,,1,,,67,90
70560,note_on,,,,,0,0,1,,,,,0,,,72,98
70560,note_on,,,,,16,0,1,,,,,0,,,82,110
70560,note_on,,,,,0,0,1,,,,,0,,,79,88
70560,note_on,,,,,1,0,6,,,,,1,,,52,78
70560,note_on,,,,,31,0,2,,,,,0,,,40,88
70560,note_on,,,,,31,0,5,,,,,1,,,60,90
70574,note_on,,,,,14,0,1,,,,,0,,,79,0
70574,note_on,,,,,0,0,1,,,,,0,,,82,0
70589,note_on,,,,,15,0,1,,,,,0,,,72,0
70649,note_on,,,,,89,0,5,,,,,1,,,60,0
70673,note_on,,,,,113,0,4,,,,,1,,,67,0
70676,note_on,,,,,116,0,3,,,,,1,,,79,0
70679,note_on,,,,,119,0,6,,,,,1,,,52,0
70679,note_on,,,,,0,0,2,,,,,0,,,40,0
70679,note_on,,,,,119,0,2,,,,,0,,,52,0
70680,note_on,,,,,7,0,4,,,,,1,,,69,90
70680,note_on,,,,,0,0,2,,,,,0,,,53,110
70680,note_on,,,,,1,0,2,,,,,0,,,41,88
70680,note_on,,,,,91,0,1,,,,,0,,,77,98
70680,note_on,,,,,1,0,6,,,,,1,,,53,90
70680,note_on,,,,,0,0,1,,,,,0,,,72,98
70680,note_on,,,,,0,0,1,,,,,0,,,81,88
70680,note_on,,,,,4,0,3,,,,,1,,,77,90
70680,note_on,,,,,31,0,5,,,,,1,,,60,90
70694,note_on,,,,,14,0,1,,,,,0,,,72,0
70694,note_on,,,,,0,0,1,,,,,0,,,77,0
70709,note_on,,,,,15,0,1,,,,,0,,,81,0
70769,note_on,,,,,89,0,5,,,,,1,,,60,0
70798,note_on,,,,,118,0,4,,,,,1,,,69,0
70799,note_on,,,,,119,0,6,,,,,1,,,53,0
70799,note_on,,,,,119,0,2,,,,,0,,,53,0
70799,note_on,,,,,0,0,2,,,,,0,,,41,0
70800,note_on,,,,,2,0,4,,,,,1,,,67,78
70800,note_on,,,,,120,0,3,,,,,1,,,76,78
70800,note_on,,,,,91,0,1,,,,,0,,,79,88
70800,note_on,,,,,0,0,1,,,,,0,,,67,98
70800,note_on,,,,,0,0,1,,,,,0,,,76,78
70800,note_on,,,,,1,0,2,,,,,0,,,43,98
70800,note_on,,,,,0,0,2,,,,,0,,,55,110
70800,note_on,,,,,1,0,6,,,,,1,,,55,90
70800,note_on,,,,,31,0,5,,,,,1,,,60,90
70804,note_on,,,,,4,0,3,,,,,1,,,77,0
70829,note_on,,,,,0,0,1,,,,,0,,,79,0
70829,note_on,,,,,29,0,1,,,,,0,,,76,0
70860,note_on,,,,,31,0,1,,,,,0,,,72,78
70860,note_on,,,,,0,0,1,,,,,0,,,76,70
70889,note_on,,,,,0,0,1,,,,,0,,,67,0
70889,note_on,,,,,29,0,1,,,,,0,,,76,0
70889,note_on,,,,,0,0,1,,,,,0,,,72,0
70904,note_on,,,,,104,0,2,,,,,0,,,43,0
70917,note_on,,,,,113,0,3,,,,,1,,,76,0
70919,note_on,,,,,119,0,5,,,,,1,,,60,0
70919,note_on,,,,,15,0,2,,,,,0,,,55,0
70920,note_on,,,,,31,0,1,,,,,0,,,77,88
70920,note_on,,,,,0,0,1,,,,,0,,,67,88
70920,note_on,,,,,0,0,1,,,,,0,,,74,98
70920,note_on,,,,,1,0,2,,,,,0,,,31,98
70920,note_on,,,,,1,0,5,,,,,1,,,59,78
70920,note_on,,,,,3,0,3,,,,,1,,,74,90
70920,note_on,,,,,0,0,2,,,,,0,,,43,98
70949,note_on,,,,,29,0,1,,,,,0,,,74,0
70964,note_on,,,,,15,0,1,,,,,0,,,77,0
70980,note_on,,,,,16,0,1,,,,,0,,,74,70
70980,note_on,,,,,0,0,1,,,,,0,,,71,62
70994,note_on,,,,,14,0,1,,,,,0,,,71,0
71009,note_on,,,,,15,0,1,,,,,0,,,74,0
71009,note_on,,,,,0,0,1,,,,,0,,,67,0
71024,note_on,,,,,0,0,2,,,,,0,,,31,0
71024,note_on,,,,,104,0,2,,,,,0,,,43,0
71025,note_on,,,,,225,0,4,,,,,1,,,67,0
71039,note_on,,,,,239,0,6,,,,,1,,,55,0
71039,note_on,,,,,119,0,5,,,,,1,,,59,0
71040,note_on,,,,,31,0,1,,,,,0,,,64,98
71040,note_on,,,,,15,0,4,,,,,1,,,67,90
71040,note_on,,,,,0,0,1,,,,,0,,,67,98
71040,note_on,,,,,0,0,1,,,,,0,,,72,98
71040,note_on,,,,,0,0,2,,,,,0,,,48,98
71040,note_on,,,,,16,0,2,,,,,0,,,36,88
71040,note_on,,,,,1,0,6,,,,,1,,,48,90
71040,note_on,,,,,1,0,5,,,,,1,,,60,90
71040,note_on,,,,,120,0,3,,,,,1,,,72,90
71042,note_on,,,,,2,0,3,,,,,1,,,74,0
71084,note_on,,,,,0,0,2,,,,,0,,,36,0
71084,note_on,,,,,44,0,2,,,,,0,,,48,0
71100,note_on,,,,,16,0,2,,,,,0,,,48,88
71129,note_on,,,,,29,0,2,,,,,0,,,48,0
71129,note_on,,,,,89,0,5,,,,,1,,,60,0
71130,note_on,,,,,1,0,2,,,,,0,,,50,88
71144,note_on,,,,,0,0,1,,,,,0,,,72,0
71144,note_on,,,,,0,0,1,,,,,0,,,64,0
71144,note_on,,,,,104,0,1,,,,,0,,,67,0
71159,note_on,,,,,119,0,6,,,,,1,,,48,0
71159,note_on,,,,,119,0,4,,,,,1,,,67,0
71159,note_on,,,,,29,0,2,,,,,0,,,50,0
71160,note_on,,,,,1,0,2,,,,,0,,,52,110
71160,note_on,,,,,0,0,1,,,,,0,,,72,88
71160,note_on,,,,,16,0,1,,,,,0,,,60,88
71165,note_on,,,,,123,0,3,,,,,1,,,72,0
71219,note_on,,,,,59,0,2,,,,,0,,,52,0
71220,note_on,,,,,1,0,2,,,,,0,,,50,98
71234,note_on,,,,,14,0,2,,,,,0,,,50,0
71234,note_on,,,,,0,0,1,,,,,0,,,60,0
71234,note_on,,,,,74,0,1,,,,,0,,,72,0
71250,note_on,,,,,16,0,2,,,,,0,,,52,78
71250,note_on,,,,,0,0,1,,,,,0,,,72,70
71250,note_on,,,,,16,0,1,,,,,0,,,60,70
71264,note_on,,,,,14,0,2,,,,,0,,,52,0
71264,note_on,,,,,14,0,1,,,,,0,,,72,0
71264,note_on,,,,,0,0,1,,,,,0,,,60,0
71280,note_on,,,,,16,0,1,,,,,0,,,73,30
71280,note_on,,,,,0,0,1,,,,,0,,,69,98
71280,note_on,,,,,0,0,1,,,,,0,,,72,98
71280,note_on,,,,,0,0,1,,,,,0,,,74,98
71280,note_on,,,,,16,0,2,,,,,0,,,53,110
71294,note_on,,,,,14,0,1,,,,,0,,,73,0
71339,note_on,,,,,59,0,2,,,,,0,,,53,0
71340,note_on,,,,,1,0,2,,,,,0,,,52,98
71369,note_on,,,,,29,0,2,,,,,0,,,52,0
71370,note_on,,,,,1,0,2,,,,,0,,,53,98
71384,note_on,,,,,0,0,1,,,,,0,,,74,0
71384,note_on,,,,,90,0,1,,,,,0,,,69,0
71384,note_on,,,,,0,0,1,,,,,0,,,72,0
71399,note_on,,,,,29,0,2,,,,,0,,,53,0
71400,note_on,,,,,241,0,6,,,,,1,,,55,90
71400,note_on,,,,,16,0,1,,,,,0,,,71,98
71400,note_on,,,,,271,0,5,,,,,1,,,59,90
71400,note_on,,,,,0,0,1,,,,,0,,,67,98
71400,note_on,,,,,241,0,4,,,,,1,,,67,90
71400,note_on,,,,,1,0,2,,,,,0,,,55,110
71400,note_on,,,,,0,0,1,,,,,0,,,74,88
71400,note_on,,,,,235,0,3,,,,,1,,,74,90
71429,note_on,,,,,29,0,2,,,,,0,,,55,0
71430,note_on,,,,,1,0,2,,,,,0,,,57,88
71459,note_on,,,,,0,0,1,,,,,0,,,71,0
71459,note_on,,,,,0,0,1,,,,,0,,,67,0
71459,note_on,,,,,59,0,1,,,,,0,,,74,0
71459,note_on,,,,,29,0,2,,,,,0,,,57,0
71460,note_on,,,,,1,0,2,,,,,0,,,53,98
71489,note_on,,,,,29,0,2,,,,,0,,,53,0
71490,note_on,,,,,1,0,2,,,,,0,,,55,78
71490,note_on,,,,,0,0,1,,,,,0,,,71,78
71490,note_on,,,,,0,0,1,,,,,0,,,74,88
71490,note_on,,,,,31,0,1,,,,,0,,,67,78
71493,note_on,,,,,93,0,4,,,,,1,,,67,0
71504,note_on,,,,,0,0,1,,,,,0,,,67,0
71504,note_on,,,,,14,0,1,,,,,0,,,71,0
71504,note_on,,,,,0,0,1,,,,,0,,,74,0
71519,note_on,,,,,119,0,6,,,,,1,,,55,0
71519,note_on,,,,,119,0,5,,,,,1,,,59,0
71519,note_on,,,,,29,0,2,,,,,0,,,55,0
71520,note_on,,,,,27,0,4,,,,,1,,,67,104
71520,note_on,,,,,0,0,1,,,,,0,,,72,98
71520,note_on,,,,,16,0,1,,,,,0,,,67,98
71520,note_on,,,,,120,0,3,,,,,1,,,76,90
71520,note_on,,,,,0,0,1,,,,,0,,,79,98
71520,note_on,,,,,1,0,5,,,,,1,,,60,78
71520,note_on,,,,,1,0,6,,,,,1,,,60,90
71520,note_on,,,,,1,0,2,,,,,0,,,52,98
71521,note_on,,,,,1,0,3,,,,,1,,,74,0
71579,note_on,,,,,59,0,2,,,,,0,,,52,0
71580,note_on,,,,,1,0,2,,,,,0,,,48,88
71609,note_on,,,,,29,0,2,,,,,0,,,48,0
71609,note_on,,,,,89,0,1,,,,,0,,,72,0
71609,note_on,,,,,0,0,1,,,,,0,,,79,0
71609,note_on,,,,,0,0,1,,,,,0,,,67,0
71610,note_on,,,,,1,0,2,,,,,0,,,50,78
71633,note_on,,,,,112,0,3,,,,,1,,,76,0
71639,note_on,,,,,29,0,2,,,,,0,,,50,0
71639,note_on,,,,,119,0,4,,,,,1,,,67,0
71639,note_on,,,,,119,0,6,,,,,1,,,60,0
71639,note_on,,,,,119,0,5,,,,,1,,,60,0
71640,note_on,,,,,0,0,1,,,,,0,,,72,78
71640,note_on,,,,,31,0,1,,,,,0,,,84,88
71640,note_on,,,,,1,0,2,,,,,0,,,52,98
71699,note_on,,,,,59,0,2,,,,,0,,,52,0
71700,note_on,,,,,1,0,2,,,,,0,,,50,88
71714,note_on,,,,,74,0,1,,,,,0,,,72,0
71714,note_on,,,,,0,0,1,,,,,0,,,84,0
71714,note_on,,,,,14,0,2,,,,,0,,,50,0
71730,note_on,,,,,16,0,1,,,,,0,,,72,78
71730,note_on,,,,,0,0,1,,,,,0,,,84,70
71730,note_on,,,,,16,0,2,,,,,0,,,52,88
71744,note_on,,,,,0,0,1,,,,,0,,,72,0
71744,note_on,,,,,14,0,1,,,,,0,,,84,0
71759,note_on,,,,,29,0,2,,,,,0,,,52,0
71760,note_on,,,,,0,0,1,,,,,0,,,84,98
71760,note_on,,,,,0,0,1,,,,,0,,,81,88
71760,note_on,,,,,16,0,1,,,,,0,,,74,98
71760,note_on,,,,,1,0,2,,,,,0,,,53,98
71819,note_on,,,,,59,0,2,,,,,0,,,53,0
71820,note_on,,,,,1,0,2,,,,,0,,,52,88
71849,note_on,,,,,29,0,2,,,,,0,,,52,0
71850,note_on,,,,,1,0,2,,,,,0,,,53,88
71864,note_on,,,,,0,0,1,,,,,0,,,74,0
71864,note_on,,,,,14,0,2,,,,,0,,,53,0
71864,note_on,,,,,104,0,1,,,,,0,,,84,0
71864,note_on,,,,,0,0,1,,,,,0,,,81,0
71880,note_on,,,,,241,0,5,,,,,1,,,59,90
71880,note_on,,,,,241,0,6,,,,,1,,,55,104
71880,note_on,,,,,16,0,2,,,,,0,,,55,98
71880,note_on,,,,,16,0,1,,,,,0,,,83,98
71880,note_on,,,,,0,0,1,,,,,0,,,74,98
71880,note_on,,,,,241,0,4,,,,,1,,,67,90
71880,note_on,,,,,0,0,1,,,,,0,,,79,98
71880,note_on,,,,,247,0,3,,,,,1,,,74,90
71939,note_on,,,,,59,0,2,,,,,0,,,55,0
71940,note_on,,,,,1,0,2,,,,,0,,,43,88
71954,note_on,,,,,0,0,1,,,,,0,,,74,0
71954,note_on,,,,,74,0,1,,,,,0,,,79,0
71954,note_on,,,,,0,0,1,,,,,0,,,83,0
71970,note_on,,,,,0,0,1,,,,,0,,,77,78
71970,note_on,,,,,0,0,1,,,,,0,,,83,88
71970,note_on,,,,,16,0,1,,,,,0,,,74,88
71972,note_on,,,,,92,0,4,,,,,1,,,67,0
71984,note_on,,,,,14,0,1,,,,,0,,,77,0
71984,note_on,,,,,0,0,1,,,,,0,,,74,0
71984,note_on,,,,,44,0,2,,,,,0,,,43,0
71984,note_on,,,,,0,0,1,,,,,0,,,83,0
71993,note_on,,,,,113,0,3,,,,,1,,,74,0
71999,note_on,,,,,119,0,5,,,,,1,,,59,0
71999,note_on,,,,,119,0,6,,,,,1,,,55,0
72000,note_on,,,,,1,0,5,,,,,1,,,60,90
72000,note_on,,,,,16,0,1,,,,,0,,,72,98
72000,note_on,,,,,0,0,1,,,,,0,,,84,98
72000,note_on,,,,,1,0,6,,,,,1,,,48,90
72000,note_on,,,,,0,0,1,,,,,0,,,76,88
72000,note_on,,,,,7,0,3,,,,,1,,,72,78
72000,note_on,,,,,28,0,4,,,,,1,,,67,104
72000,note_on,,,,,16,0,2,,,,,0,,,48,98
72089,note_on,,,,,89,0,1,,,,,0,,,76,0
72089,note_on,,,,,0,0,1,,,,,0,,,72,0
72089,note_on,,,,,0,0,1,,,,,0,,,84,0
72104,note_on,,,,,104,0,2,,,,,0,,,48,0
72117,end_of_track,,,,,0,1,4,,,,,,,,,
72117,note_on,,,,,117,0,4,,,,,1,,,67,0
72119,note_on,,,,,119,0,6,,,,,1,,,48,0
72119,end_of_track,,,,,0,1,6,,,,,,,,,
72119,note_on,,,,,119,0,5,,,,,1,,,60,0
72119,end_of_track,,,,,0,1,5,,,,,,,,,
72120,end_of_track,,,,,0,1,3,,,,,,,,,
72120,note_on,,,,,0,0,2,,,,,0,,,48,110
72120,note_on,,,,,31,0,1,,,,,0,,,60,98
72120,note_on,,,,,16,0,2,,,,,0,,,36,110
72120,note_on,,,,,120,0,3,,,,,1,,,72,0
72194,note_on,,,,,0,0,2,,,,,0,,,36,0
72194,note_on,,,,,74,0,2,,,,,0,,,48,0
72194,note_on,,,,,74,0,1,,,,,0,,,60,0
72210,note_on,,,,,16,0,1,,,,,0,,,60,88
72210,note_on,,,,,16,0,2,,,,,0,,,36,98
72210,note_on,,,,,0,0,2,,,,,0,,,48,98
72224,note_on,,,,,14,0,1,,,,,0,,,60,0
72224,note_on,,,,,14,0,2,,,,,0,,,48,0
72224,note_on,,,,,0,0,2,,,,,0,,,36,0
72240,note_on,,,,,16,0,1,,,,,0,,,60,78
72240,note_on,,,,,16,0,2,,,,,0,,,36,110
72240,note_on,,,,,0,0,2,,,,,0,,,48,110
72299,end_of_track,,,,,0,1,1,,,,,,,,,
72299,note_on,,,,,59,0,1,,,,,0,,,60,0
72329,note_on,,,,,0,0,2,,,,,0,,,36,0
72329,end_of_track,,,,,0,1,2,,,,,,,,,
72329,note_on,,,,,89,0,2,,,,,0,,,48,0
