tick,type,time,meta,track,numerator,denominator,clocks_per_click,notated_32nd_notes_per_beat,key,tempo,program,channel,note,velocity
0,track_name,0,1,0,,,,,,,,,,
0,note_on,0,0,2,,,,,,,,1,46,88
0,program_change,0,0,2,,,,,,,0,1,,
0,note_on,0,0,1,,,,,,,,0,70,88
0,program_change,0,0,1,,,,,,,0,0,,
0,end_of_track,0,1,3,,,,,,,,,,
0,time_signature,0,1,0,2,4,24,8,,,,,,
0,copyright,0,1,0,,,,,,,,,,
0,key_signature,0,1,0,,,,,Bb,,,,,
0,set_tempo,0,1,0,,,,,,714286,,,,
43,note_on,43,0,2,,,,,,,,1,46,0
48,note_on,5,0,2,,,,,,,,1,58,88
91,note_on,43,0,2,,,,,,,,1,58,0
96,note_on,5,0,2,,,,,,,,1,62,88
139,note_on,43,0,2,,,,,,,,1,62,0
144,note_on,5,0,2,,,,,,,,1,58,88
172,note_on,172,0,1,,,,,,,,0,70,0
187,note_on,43,0,2,,,,,,,,1,58,0
192,note_on,20,0,1,,,,,,,,0,72,88
240,note_on,53,0,2,,,,,,,,1,53,88
283,note_on,43,0,2,,,,,,,,1,53,0
288,note_on,5,0,2,,,,,,,,1,57,88
331,note_on,43,0,2,,,,,,,,1,57,0
336,note_on,5,0,2,,,,,,,,1,53,88
364,note_on,172,0,1,,,,,,,,0,72,0
379,note_on,43,0,2,,,,,,,,1,53,0
384,note_on,20,0,1,,,,,,,,0,74,88
432,note_on,53,0,2,,,,,,,,1,58,88
475,note_on,43,0,2,,,,,,,,1,58,0
480,note_on,5,0,2,,,,,,,,1,57,88
523,note_on,43,0,2,,,,,,,,1,57,0
528,note_on,5,0,2,,,,,,,,1,58,88
556,note_on,172,0,1,,,,,,,,0,74,0
571,note_on,43,0,2,,,,,,,,1,58,0
576,note_on,20,0,1,,,,,,,,0,75,88
576,note_on,5,0,2,,,,,,,,1,55,88
619,note_on,43,0,2,,,,,,,,1,55,0
624,note_on,5,0,2,,,,,,,,1,58,88
662,note_on,86,0,1,,,,,,,,0,75,0
667,note_on,43,0,2,,,,,,,,1,58,0
672,note_on,5,0,2,,,,,,,,1,50,88
672,note_on,10,0,1,,,,,,,,0,77,88
715,note_on,43,0,2,,,,,,,,1,50,0
720,note_on,5,0,2,,,,,,,,1,58,88
758,note_on,86,0,1,,,,,,,,0,77,0
763,note_on,43,0,2,,,,,,,,1,58,0
768,note_on,10,0,1,,,,,,,,0,79,88
768,note_on,5,0,2,,,,,,,,1,51,88
811,note_on,43,0,2,,,,,,,,1,51,0
816,note_on,5,0,2,,,,,,,,1,51,88
859,note_on,43,0,2,,,,,,,,1,51,0
864,note_on,5,0,2,,,,,,,,1,51,88
907,note_on,43,0,2,,,,,,,,1,51,0
912,note_on,0,0,1,,,,,,,,0,77,88
912,note_on,144,0,1,,,,,,,,0,79,0
912,note_on,5,0,2,,,,,,,,1,51,88
924,note_on,12,0,1,,,,,,,,0,77,0
924,note_on,0,0,1,,,,,,,,0,75,88
936,note_on,12,0,1,,,,,,,,0,75,0
936,note_on,0,0,1,,,,,,,,0,74,88
948,note_on,12,0,1,,,,,,,,0,74,0
948,note_on,0,0,1,,,,,,,,0,72,88
955,note_on,43,0,2,,,,,,,,1,51,0
958,note_on,10,0,1,,,,,,,,0,72,0
960,note_on,2,0,1,,,,,,,,0,70,88
960,note_on,5,0,2,,,,,,,,1,51,88
966,note_on,6,0,1,,,,,,,,0,70,0
966,note_on,0,0,1,,,,,,,,0,69,88
1003,note_on,43,0,2,,,,,,,,1,51,0
1003,note_on,37,0,1,,,,,,,,0,69,0
1008,note_on,5,0,1,,,,,,,,0,70,88
1008,note_on,5,0,2,,,,,,,,1,50,88
1051,note_on,43,0,2,,,,,,,,1,50,0
1051,note_on,43,0,1,,,,,,,,0,70,0
1056,note_on,5,0,1,,,,,,,,0,72,88
1056,note_on,5,0,2,,,,,,,,1,51,88
1099,note_on,43,0,2,,,,,,,,1,51,0
1104,note_on,5,0,2,,,,,,,,1,53,88
1120,note_on,64,0,1,,,,,,,,0,72,0
1128,note_on,8,0,1,,,,,,,,0,74,88
1138,note_on,10,0,1,,,,,,,,0,74,0
1140,note_on,2,0,1,,,,,,,,0,75,88
1147,note_on,43,0,2,,,,,,,,1,53,0
1150,note_on,10,0,1,,,,,,,,0,75,0
1152,note_on,2,0,1,,,,,,,,0,75,88
1152,note_on,5,0,2,,,,,,,,1,46,88
1158,note_on,6,0,1,,,,,,,,0,75,0
1158,note_on,0,0,1,,,,,,,,0,74,88
1195,note_on,43,0,2,,,,,,,,1,46,0
1200,note_on,5,0,2,,,,,,,,1,58,88
1243,note_on,43,0,2,,,,,,,,1,58,0
1248,note_on,5,0,2,,,,,,,,1,53,88
1248,note_on,90,0,1,,,,,,,,0,74,0
1291,note_on,43,0,2,,,,,,,,1,53,0
1296,note_on,5,0,2,,,,,,,,1,50,88
1339,note_on,43,0,2,,,,,,,,1,50,0
1344,note_on,5,0,2,,,,,,,,1,46,88
1344,note_on,96,0,1,,,,,,,,0,72,88
1350,note_on,6,0,1,,,,,,,,0,72,0
1350,note_on,0,0,1,,,,,,,,0,70,88
1356,note_on,0,0,1,,,,,,,,0,72,88
1356,note_on,6,0,1,,,,,,,,0,70,0
1362,note_on,6,0,1,,,,,,,,0,72,0
1362,note_on,0,0,1,,,,,,,,0,70,88
1368,note_on,6,0,1,,,,,,,,0,70,0
1368,note_on,0,0,1,,,,,,,,0,72,88
1374,note_on,6,0,1,,,,,,,,0,72,0
1374,note_on,0,0,1,,,,,,,,0,70,88
1380,note_on,6,0,1,,,,,,,,0,70,0
1380,note_on,0,0,1,,,,,,,,0,72,88
1386,note_on,6,0,1,,,,,,,,0,72,0
1386,note_on,0,0,1,,,,,,,,0,70,88
1387,note_on,43,0,2,,,,,,,,1,46,0
1392,note_on,5,0,2,,,,,,,,1,58,88
1392,note_on,6,0,1,,,,,,,,0,70,0
1392,note_on,0,0,1,,,,,,,,0,72,88
1398,note_on,0,0,1,,,,,,,,0,70,88
1398,note_on,6,0,1,,,,,,,,0,72,0
1404,note_on,0,0,1,,,,,,,,0,72,88
1404,note_on,6,0,1,,,,,,,,0,70,0
1410,note_on,0,0,1,,,,,,,,0,70,88
1410,note_on,6,0,1,,,,,,,,0,72,0
1416,note_on,0,0,1,,,,,,,,0,72,88
1416,note_on,6,0,1,,,,,,,,0,70,0
1422,note_on,0,0,1,,,,,,,,0,70,88
1422,note_on,6,0,1,,,,,,,,0,72,0
1428,note_on,6,0,1,,,,,,,,0,70,0
1428,note_on,0,0,1,,,,,,,,0,72,88
1434,note_on,6,0,1,,,,,,,,0,72,0
1434,note_on,0,0,1,,,,,,,,0,70,88
1435,note_on,43,0,2,,,,,,,,1,58,0
1440,note_on,5,0,2,,,,,,,,1,62,88
1440,note_on,0,0,1,,,,,,,,0,72,88
1440,note_on,6,0,1,,,,,,,,0,70,0
1446,note_on,0,0,1,,,,,,,,0,70,88
1446,note_on,6,0,1,,,,,,,,0,72,0
1452,note_on,6,0,1,,,,,,,,0,70,0
1452,note_on,0,0,1,,,,,,,,0,72,88
1458,note_on,6,0,1,,,,,,,,0,72,0
1458,note_on,0,0,1,,,,,,,,0,70,88
1464,note_on,6,0,1,,,,,,,,0,70,0
1464,note_on,0,0,1,,,,,,,,0,72,88
1470,note_on,6,0,1,,,,,,,,0,72,0
1470,note_on,0,0,1,,,,,,,,0,70,88
1476,note_on,0,0,1,,,,,,,,0,72,88
1476,note_on,6,0,1,,,,,,,,0,70,0
1482,note_on,0,0,1,,,,,,,,0,70,88
1482,note_on,6,0,1,,,,,,,,0,72,0
1483,note_on,43,0,2,,,,,,,,1,62,0
1488,note_on,5,0,2,,,,,,,,1,58,88
1488,note_on,6,0,1,,,,,,,,0,70,0
1488,note_on,0,0,1,,,,,,,,0,69,88
1509,note_on,21,0,1,,,,,,,,0,69,0
1512,note_on,3,0,1,,,,,,,,0,70,88
1531,note_on,43,0,2,,,,,,,,1,58,0
1533,note_on,21,0,1,,,,,,,,0,70,0
1536,note_on,3,0,1,,,,,,,,0,74,88
1542,note_on,0,0,1,,,,,,,,0,72,88
1542,note_on,6,0,1,,,,,,,,0,74,0
1548,note_on,6,0,1,,,,,,,,0,72,0
1548,note_on,0,0,1,,,,,,,,0,74,88
1554,note_on,0,0,1,,,,,,,,0,72,88
1554,note_on,6,0,1,,,,,,,,0,74,0
1560,note_on,0,0,1,,,,,,,,0,74,88
1560,note_on,6,0,1,,,,,,,,0,72,0
1566,note_on,0,0,1,,,,,,,,0,72,88
1566,note_on,6,0,1,,,,,,,,0,74,0
1572,note_on,0,0,1,,,,,,,,0,74,88
1572,note_on,6,0,1,,,,,,,,0,72,0
1578,note_on,0,0,1,,,,,,,,0,72,88
1578,note_on,6,0,1,,,,,,,,0,74,0
1584,note_on,0,0,1,,,,,,,,0,74,88
1584,note_on,6,0,1,,,,,,,,0,72,0
1584,note_on,53,0,2,,,,,,,,1,53,88
1590,note_on,6,0,1,,,,,,,,0,74,0
1590,note_on,0,0,1,,,,,,,,0,72,88
1596,note_on,0,0,1,,,,,,,,0,74,88
1596,note_on,6,0,1,,,,,,,,0,72,0
1602,note_on,6,0,1,,,,,,,,0,74,0
1602,note_on,0,0,1,,,,,,,,0,72,88
1608,note_on,0,0,1,,,,,,,,0,74,88
1608,note_on,6,0,1,,,,,,,,0,72,0
1614,note_on,0,0,1,,,,,,,,0,72,88
1614,note_on,6,0,1,,,,,,,,0,74,0
1620,note_on,6,0,1,,,,,,,,0,72,0
1620,note_on,0,0,1,,,,,,,,0,74,88
1626,note_on,6,0,1,,,,,,,,0,74,0
1626,note_on,0,0,1,,,,,,,,0,72,88
1627,note_on,43,0,2,,,,,,,,1,53,0
1632,note_on,5,0,2,,,,,,,,1,57,88
1632,note_on,0,0,1,,,,,,,,0,74,88
1632,note_on,6,0,1,,,,,,,,0,72,0
1638,note_on,0,0,1,,,,,,,,0,72,88
1638,note_on,6,0,1,,,,,,,,0,74,0
1644,note_on,6,0,1,,,,,,,,0,72,0
1644,note_on,0,0,1,,,,,,,,0,74,88
1650,note_on,0,0,1,,,,,,,,0,72,88
1650,note_on,6,0,1,,,,,,,,0,74,0
1656,note_on,6,0,1,,,,,,,,0,72,0
1656,note_on,0,0,1,,,,,,,,0,74,88
1662,note_on,0,0,1,,,,,,,,0,72,88
1662,note_on,6,0,1,,,,,,,,0,74,0
1668,note_on,6,0,1,,,,,,,,0,72,0
1668,note_on,0,0,1,,,,,,,,0,74,88
1674,note_on,0,0,1,,,,,,,,0,72,88
1674,note_on,6,0,1,,,,,,,,0,74,0
1675,note_on,43,0,2,,,,,,,,1,57,0
1680,note_on,5,0,2,,,,,,,,1,53,88
1680,note_on,0,0,1,,,,,,,,0,70,88
1680,note_on,6,0,1,,,,,,,,0,72,0
1701,note_on,21,0,1,,,,,,,,0,70,0
1704,note_on,3,0,1,,,,,,,,0,72,88
1723,note_on,43,0,2,,,,,,,,1,53,0
1725,note_on,21,0,1,,,,,,,,0,72,0
1728,note_on,3,0,1,,,,,,,,0,75,88
1734,note_on,6,0,1,,,,,,,,0,75,0
1734,note_on,0,0,1,,,,,,,,0,74,88
1740,note_on,0,0,1,,,,,,,,0,75,88
1740,note_on,6,0,1,,,,,,,,0,74,0
1746,note_on,6,0,1,,,,,,,,0,75,0
1746,note_on,0,0,1,,,,,,,,0,74,88
1752,note_on,6,0,1,,,,,,,,0,74,0
1752,note_on,0,0,1,,,,,,,,0,75,88
1758,note_on,6,0,1,,,,,,,,0,75,0
1758,note_on,0,0,1,,,,,,,,0,74,88
1764,note_on,0,0,1,,,,,,,,0,75,88
1764,note_on,6,0,1,,,,,,,,0,74,0
1770,note_on,0,0,1,,,,,,,,0,74,88
1770,note_on,6,0,1,,,,,,,,0,75,0
1776,note_on,6,0,1,,,,,,,,0,74,0
1776,note_on,0,0,1,,,,,,,,0,75,88
1776,note_on,53,0,2,,,,,,,,1,58,88
1782,note_on,6,0,1,,,,,,,,0,75,0
1782,note_on,0,0,1,,,,,,,,0,74,88
1788,note_on,6,0,1,,,,,,,,0,74,0
1788,note_on,0,0,1,,,,,,,,0,75,88
1794,note_on,0,0,1,,,,,,,,0,74,88
1794,note_on,6,0,1,,,,,,,,0,75,0
1800,note_on,0,0,1,,,,,,,,0,75,88
1800,note_on,6,0,1,,,,,,,,0,74,0
1806,note_on,6,0,1,,,,,,,,0,75,0
1806,note_on,0,0,1,,,,,,,,0,74,88
1812,note_on,6,0,1,,,,,,,,0,74,0
1812,note_on,0,0,1,,,,,,,,0,75,88
1818,note_on,6,0,1,,,,,,,,0,75,0
1818,note_on,0,0,1,,,,,,,,0,74,88
1819,note_on,43,0,2,,,,,,,,1,58,0
1824,note_on,5,0,2,,,,,,,,1,57,88
1824,note_on,6,0,1,,,,,,,,0,74,0
1824,note_on,0,0,1,,,,,,,,0,75,88
1830,note_on,6,0,1,,,,,,,,0,75,0
1830,note_on,0,0,1,,,,,,,,0,74,88
1836,note_on,0,0,1,,,,,,,,0,75,88
1836,note_on,6,0,1,,,,,,,,0,74,0
1842,note_on,6,0,1,,,,,,,,0,75,0
1842,note_on,0,0,1,,,,,,,,0,74,88
1848,note_on,6,0,1,,,,,,,,0,74,0
1848,note_on,0,0,1,,,,,,,,0,75,88
1854,note_on,6,0,1,,,,,,,,0,75,0
1854,note_on,0,0,1,,,,,,,,0,74,88
1860,note_on,6,0,1,,,,,,,,0,74,0
1860,note_on,0,0,1,,,,,,,,0,75,88
1866,note_on,0,0,1,,,,,,,,0,74,88
1866,note_on,6,0,1,,,,,,,,0,75,0
1867,note_on,43,0,2,,,,,,,,1,57,0
1872,note_on,5,0,2,,,,,,,,1,58,88
1872,note_on,0,0,1,,,,,,,,0,72,88
1872,note_on,6,0,1,,,,,,,,0,74,0
1893,note_on,21,0,1,,,,,,,,0,72,0
1896,note_on,3,0,1,,,,,,,,0,74,88
1915,note_on,43,0,2,,,,,,,,1,58,0
1917,note_on,21,0,1,,,,,,,,0,74,0
1920,note_on,5,0,2,,,,,,,,1,55,88
1920,note_on,3,0,1,,,,,,,,0,77,88
1926,note_on,0,0,1,,,,,,,,0,75,88
1926,note_on,6,0,1,,,,,,,,0,77,0
1932,note_on,0,0,1,,,,,,,,0,77,88
1932,note_on,6,0,1,,,,,,,,0,75,0
1938,note_on,0,0,1,,,,,,,,0,75,88
1938,note_on,6,0,1,,,,,,,,0,77,0
1944,note_on,0,0,1,,,,,,,,0,77,88
1944,note_on,6,0,1,,,,,,,,0,75,0
1950,note_on,6,0,1,,,,,,,,0,77,0
1950,note_on,0,0,1,,,,,,,,0,75,88
1956,note_on,6,0,1,,,,,,,,0,75,0
1956,note_on,0,0,1,,,,,,,,0,77,88
1962,note_on,0,0,1,,,,,,,,0,75,88
1962,note_on,6,0,1,,,,,,,,0,77,0
1963,note_on,43,0,2,,,,,,,,1,55,0
1968,note_on,5,0,2,,,,,,,,1,58,88
1968,note_on,0,0,1,,,,,,,,0,77,88
1968,note_on,6,0,1,,,,,,,,0,75,0
1974,note_on,0,0,1,,,,,,,,0,75,88
1974,note_on,6,0,1,,,,,,,,0,77,0
1980,note_on,6,0,1,,,,,,,,0,75,0
1980,note_on,0,0,1,,,,,,,,0,77,88
1986,note_on,6,0,1,,,,,,,,0,77,0
1986,note_on,0,0,1,,,,,,,,0,75,88
1992,note_on,6,0,1,,,,,,,,0,75,0
1992,note_on,0,0,1,,,,,,,,0,74,88
2002,note_on,10,0,1,,,,,,,,0,74,0
2004,note_on,2,0,1,,,,,,,,0,75,88
2011,note_on,43,0,2,,,,,,,,1,58,0
2014,note_on,10,0,1,,,,,,,,0,75,0
2016,note_on,2,0,1,,,,,,,,0,79,88
2016,note_on,5,0,2,,,,,,,,1,50,88
2022,note_on,6,0,1,,,,,,,,0,79,0
2022,note_on,0,0,1,,,,,,,,0,77,88
2028,note_on,0,0,1,,,,,,,,0,79,88
2028,note_on,6,0,1,,,,,,,,0,77,0
2034,note_on,0,0,1,,,,,,,,0,77,88
2034,note_on,6,0,1,,,,,,,,0,79,0
2040,note_on,6,0,1,,,,,,,,0,77,0
2040,note_on,0,0,1,,,,,,,,0,79,88
2046,note_on,0,0,1,,,,,,,,0,77,88
2046,note_on,6,0,1,,,,,,,,0,79,0
2052,note_on,6,0,1,,,,,,,,0,77,0
2052,note_on,0,0,1,,,,,,,,0,79,88
2058,note_on,0,0,1,,,,,,,,0,77,88
2058,note_on,6,0,1,,,,,,,,0,79,0
2059,note_on,43,0,2,,,,,,,,1,50,0
2064,note_on,5,0,2,,,,,,,,1,58,88
2064,note_on,0,0,1,,,,,,,,0,79,88
2064,note_on,6,0,1,,,,,,,,0,77,0
2070,note_on,6,0,1,,,,,,,,0,79,0
2070,note_on,0,0,1,,,,,,,,0,77,88
2076,note_on,6,0,1,,,,,,,,0,77,0
2076,note_on,0,0,1,,,,,,,,0,79,88
2082,note_on,6,0,1,,,,,,,,0,79,0
2082,note_on,0,0,1,,,,,,,,0,77,88
2088,note_on,6,0,1,,,,,,,,0,77,0
2088,note_on,0,0,1,,,,,,,,0,75,88
2098,note_on,10,0,1,,,,,,,,0,75,0
2100,note_on,2,0,1,,,,,,,,0,77,88
2107,note_on,43,0,2,,,,,,,,1,58,0
2110,note_on,10,0,1,,,,,,,,0,77,0
2112,note_on,2,0,1,,,,,,,,0,79,88
2112,note_on,5,0,2,,,,,,,,1,51,88
2155,note_on,43,0,2,,,,,,,,1,51,0
2160,note_on,5,0,2,,,,,,,,1,51,88
2203,note_on,43,0,2,,,,,,,,1,51,0
2208,note_on,5,0,2,,,,,,,,1,51,88
2251,note_on,43,0,2,,,,,,,,1,51,0
2256,note_on,0,0,1,,,,,,,,0,77,88
2256,note_on,144,0,1,,,,,,,,0,79,0
2256,note_on,5,0,2,,,,,,,,1,51,88
2268,note_on,0,0,1,,,,,,,,0,75,88
2268,note_on,12,0,1,,,,,,,,0,77,0
2280,note_on,12,0,1,,,,,,,,0,75,0
2280,note_on,0,0,1,,,,,,,,0,74,88
2292,note_on,0,0,1,,,,,,,,0,72,88
2292,note_on,12,0,1,,,,,,,,0,74,0
2299,note_on,43,0,2,,,,,,,,1,51,0
2302,note_on,10,0,1,,,,,,,,0,72,0
2304,note_on,5,0,2,,,,,,,,1,51,88
2304,note_on,2,0,1,,,,,,,,0,81,88
2347,note_on,43,0,2,,,,,,,,1,51,0
2352,note_on,5,0,2,,,,,,,,1,48,88
2390,note_on,86,0,1,,,,,,,,0,81,0
2395,note_on,43,0,2,,,,,,,,1,48,0
2400,note_on,10,0,1,,,,,,,,0,84,88
2400,note_on,5,0,2,,,,,,,,1,50,88
2424,note_on,24,0,1,,,,,,,,0,84,0
2424,note_on,0,0,1,,,,,,,,0,82,88
2443,note_on,43,0,2,,,,,,,,1,50,0
2448,note_on,5,0,2,,,,,,,,1,51,88
2448,note_on,0,0,1,,,,,,,,0,81,88
2448,note_on,24,0,1,,,,,,,,0,82,0
2472,note_on,0,0,1,,,,,,,,0,79,88
2472,note_on,24,0,1,,,,,,,,0,81,0
2491,note_on,43,0,2,,,,,,,,1,51,0
2496,note_on,24,0,1,,,,,,,,0,79,0
2496,note_on,0,0,1,,,,,,,,0,77,88
2496,note_on,5,0,2,,,,,,,,1,53,88
2539,note_on,43,0,2,,,,,,,,1,53,0
2544,note_on,5,0,2,,,,,,,,1,53,88
2587,note_on,43,0,2,,,,,,,,1,53,0
2592,note_on,5,0,2,,,,,,,,1,53,88
2635,note_on,43,0,2,,,,,,,,1,53,0
2640,note_on,5,0,2,,,,,,,,1,53,88
2640,note_on,144,0,1,,,,,,,,0,77,0
2640,note_on,0,0,1,,,,,,,,0,77,88
2646,note_on,0,0,1,,,,,,,,0,75,88
2646,note_on,6,0,1,,,,,,,,0,77,0
2652,note_on,6,0,1,,,,,,,,0,75,0
2652,note_on,0,0,1,,,,,,,,0,77,88
2658,note_on,6,0,1,,,,,,,,0,77,0
2658,note_on,0,0,1,,,,,,,,0,75,88
2664,note_on,6,0,1,,,,,,,,0,75,0
2664,note_on,0,0,1,,,,,,,,0,77,88
2670,note_on,6,0,1,,,,,,,,0,77,0
2670,note_on,0,0,1,,,,,,,,0,75,88
2676,note_on,0,0,1,,,,,,,,0,77,88
2676,note_on,6,0,1,,,,,,,,0,75,0
2682,note_on,0,0,1,,,,,,,,0,75,88
2682,note_on,6,0,1,,,,,,,,0,77,0
2683,note_on,43,0,2,,,,,,,,1,53,0
2688,note_on,0,0,1,,,,,,,,0,74,88
2688,note_on,6,0,1,,,,,,,,0,75,0
2688,note_on,5,0,2,,,,,,,,1,46,88
2731,note_on,43,0,2,,,,,,,,1,46,0
2736,note_on,5,0,2,,,,,,,,1,58,88
2774,note_on,86,0,1,,,,,,,,0,74,0
2779,note_on,43,0,2,,,,,,,,1,58,0
2784,note_on,5,0,2,,,,,,,,1,53,88
2827,note_on,43,0,2,,,,,,,,1,53,0
2832,note_on,5,0,2,,,,,,,,1,50,88
2875,note_on,43,0,2,,,,,,,,1,50,0
2880,note_on,5,0,2,,,,,,,,1,46,88
2880,note_on,106,0,1,,,,,,,,0,77,88
2923,note_on,43,0,2,,,,,,,,1,46,0
2928,note_on,0,0,1,,,,,,,,0,74,88
2928,note_on,48,0,1,,,,,,,,0,77,0
2928,note_on,5,0,2,,,,,,,,1,58,88
2971,note_on,43,0,2,,,,,,,,1,58,0
2976,note_on,5,0,2,,,,,,,,1,62,88
2976,note_on,48,0,1,,,,,,,,0,74,0
3019,note_on,43,0,2,,,,,,,,1,62,0
3024,note_on,48,0,1,,,,,,,,0,74,88
3024,note_on,5,0,2,,,,,,,,1,58,88
3067,note_on,43,0,1,,,,,,,,0,74,0
3067,note_on,43,0,2,,,,,,,,1,58,0
3072,note_on,5,0,1,,,,,,,,0,77,88
3120,note_on,48,0,1,,,,,,,,0,77,0
3120,note_on,53,0,2,,,,,,,,1,57,88
3120,note_on,0,0,1,,,,,,,,0,75,88
3163,note_on,43,0,2,,,,,,,,1,57,0
3168,note_on,5,0,2,,,,,,,,1,60,88
3168,note_on,48,0,1,,,,,,,,0,75,0
3211,note_on,43,0,2,,,,,,,,1,60,0
3216,note_on,48,0,1,,,,,,,,0,72,88
3216,note_on,5,0,2,,,,,,,,1,57,88
3259,note_on,43,0,2,,,,,,,,1,57,0
3259,note_on,43,0,1,,,,,,,,0,72,0
3264,note_on,5,0,1,,,,,,,,0,74,88
3264,note_on,5,0,2,,,,,,,,1,58,88
3288,note_on,0,0,1,,,,,,,,0,77,88
3288,note_on,24,0,1,,,,,,,,0,74,0
3307,note_on,43,0,2,,,,,,,,1,58,0
3312,note_on,5,0,2,,,,,,,,1,46,88
3312,note_on,0,0,1,,,,,,,,0,82,88
3312,note_on,24,0,1,,,,,,,,0,77,0
3336,note_on,0,0,1,,,,,,,,0,81,88
3336,note_on,24,0,1,,,,,,,,0,82,0
3355,note_on,43,0,2,,,,,,,,1,46,0
3360,note_on,0,0,1,,,,,,,,0,79,88
3360,note_on,24,0,1,,,,,,,,0,81,0
3360,note_on,5,0,2,,,,,,,,1,50,88
3384,note_on,24,0,1,,,,,,,,0,79,0
3384,note_on,0,0,1,,,,,,,,0,77,88
3403,note_on,43,0,2,,,,,,,,1,50,0
3408,note_on,24,0,1,,,,,,,,0,77,0
3408,note_on,0,0,1,,,,,,,,0,75,88
3408,note_on,5,0,2,,,,,,,,1,55,88
3432,note_on,24,0,1,,,,,,,,0,75,0
3432,note_on,0,0,1,,,,,,,,0,74,88
3451,note_on,43,0,2,,,,,,,,1,55,0
3456,note_on,24,0,1,,,,,,,,0,74,0
3456,note_on,5,0,2,,,,,,,,1,53,88
3456,note_on,0,0,1,,,,,,,,0,77,88
3499,note_on,43,0,2,,,,,,,,1,53,0
3504,note_on,5,0,2,,,,,,,,1,53,88
3528,note_on,0,0,1,,,,,,,,0,74,88
3528,note_on,72,0,1,,,,,,,,0,77,0
3547,note_on,43,0,2,,,,,,,,1,53,0
3552,note_on,0,0,1,,,,,,,,0,72,88
3552,note_on,24,0,1,,,,,,,,0,74,0
3552,note_on,5,0,2,,,,,,,,1,41,88
3576,note_on,0,0,1,,,,,,,,0,74,88
3576,note_on,24,0,1,,,,,,,,0,72,0
3595,note_on,43,0,2,,,,,,,,1,41,0
3600,note_on,24,0,1,,,,,,,,0,74,0
3600,note_on,0,0,1,,,,,,,,0,75,88
3624,note_on,0,0,1,,,,,,,,0,76,88
3624,note_on,24,0,1,,,,,,,,0,75,0
3648,note_on,0,0,1,,,,,,,,0,77,88
3648,note_on,24,0,1,,,,,,,,0,76,0
3696,note_on,48,0,1,,,,,,,,0,77,0
3696,note_on,101,0,2,,,,,,,,1,58,88
3696,note_on,0,0,1,,,,,,,,0,74,88
3739,note_on,43,0,2,,,,,,,,1,58,0
3744,note_on,48,0,1,,,,,,,,0,74,0
3744,note_on,5,0,2,,,,,,,,1,62,88
3768,note_on,24,0,1,,,,,,,,0,74,88
3780,note_on,12,0,1,,,,,,,,0,74,0
3787,note_on,43,0,2,,,,,,,,1,62,0
3792,note_on,12,0,1,,,,,,,,0,75,88
3792,note_on,5,0,2,,,,,,,,1,58,88
3804,note_on,12,0,1,,,,,,,,0,75,0
3804,note_on,0,0,1,,,,,,,,0,74,88
3816,note_on,12,0,1,,,,,,,,0,74,0
3816,note_on,0,0,1,,,,,,,,0,72,88
3828,note_on,12,0,1,,,,,,,,0,72,0
3828,note_on,0,0,1,,,,,,,,0,74,88
3835,note_on,43,0,2,,,,,,,,1,58,0
3838,note_on,10,0,1,,,,,,,,0,74,0
3840,note_on,2,0,1,,,,,,,,0,77,88
3864,note_on,24,0,1,,,,,,,,0,77,0
3864,note_on,0,0,1,,,,,,,,0,76,88
3888,note_on,0,0,1,,,,,,,,0,75,88
3888,note_on,53,0,2,,,,,,,,1,57,88
3888,note_on,24,0,1,,,,,,,,0,76,0
3931,note_on,43,0,2,,,,,,,,1,57,0
3936,note_on,48,0,1,,,,,,,,0,75,0
3936,note_on,5,0,2,,,,,,,,1,60,88
3960,note_on,24,0,1,,,,,,,,0,72,88
3972,note_on,12,0,1,,,,,,,,0,72,0
3979,note_on,43,0,2,,,,,,,,1,60,0
3984,note_on,5,0,2,,,,,,,,1,57,88
3984,note_on,12,0,1,,,,,,,,0,74,88
3996,note_on,12,0,1,,,,,,,,0,74,0
3996,note_on,0,0,1,,,,,,,,0,72,88
4008,note_on,12,0,1,,,,,,,,0,72,0
4008,note_on,0,0,1,,,,,,,,0,71,88
4020,note_on,12,0,1,,,,,,,,0,71,0
4020,note_on,0,0,1,,,,,,,,0,72,88
4027,note_on,43,0,2,,,,,,,,1,57,0
4032,note_on,12,0,1,,,,,,,,0,72,0
4032,note_on,0,0,1,,,,,,,,0,74,88
4032,note_on,5,0,2,,,,,,,,1,58,88
4056,note_on,0,0,1,,,,,,,,0,77,88
4056,note_on,24,0,1,,,,,,,,0,74,0
4075,note_on,43,0,2,,,,,,,,1,58,0
4080,note_on,5,0,2,,,,,,,,1,46,88
4080,note_on,24,0,1,,,,,,,,0,77,0
4080,note_on,0,0,1,,,,,,,,0,82,88
4104,note_on,24,0,1,,,,,,,,0,82,0
4104,note_on,0,0,1,,,,,,,,0,81,88
4123,note_on,43,0,2,,,,,,,,1,46,0
4128,note_on,5,0,2,,,,,,,,1,50,88
4128,note_on,24,0,1,,,,,,,,0,81,0
4128,note_on,0,0,1,,,,,,,,0,79,88
4152,note_on,0,0,1,,,,,,,,0,77,88
4152,note_on,24,0,1,,,,,,,,0,79,0
4171,note_on,43,0,2,,,,,,,,1,50,0
4176,note_on,24,0,1,,,,,,,,0,77,0
4176,note_on,0,0,1,,,,,,,,0,75,88
4176,note_on,5,0,2,,,,,,,,1,55,88
4200,note_on,0,0,1,,,,,,,,0,74,88
4200,note_on,24,0,1,,,,,,,,0,75,0
4219,note_on,43,0,2,,,,,,,,1,55,0
4224,time_signature,4224,1,0,4,4,24,8,,,,,,
4224,note_on,5,0,2,,,,,,,,1,53,88
4224,set_tempo,0,1,0,,,,,,2142857,,,,
4224,note_on,0,0,1,,,,,,,,0,77,88
4224,note_on,24,0,1,,,,,,,,0,74,0
4353,note_on,129,0,1,,,,,,,,0,77,0
4368,set_tempo,144,1,0,,,,,,714286,,,,
4368,note_on,15,0,1,,,,,,,,0,79,88
4380,note_on,12,0,1,,,,,,,,0,79,0
4380,note_on,0,0,1,,,,,,,,0,77,88
4392,note_on,0,0,1,,,,,,,,0,75,88
4392,note_on,12,0,1,,,,,,,,0,77,0
4404,note_on,0,0,1,,,,,,,,0,74,88
4404,note_on,12,0,1,,,,,,,,0,75,0
4416,note_on,12,0,1,,,,,,,,0,74,0
4416,note_on,0,0,1,,,,,,,,0,75,88
4428,note_on,0,0,1,,,,,,,,0,77,88
4428,note_on,12,0,1,,,,,,,,0,75,0
4440,note_on,0,0,1,,,,,,,,0,79,88
4440,note_on,12,0,1,,,,,,,,0,77,0
4452,note_on,0,0,1,,,,,,,,0,81,88
4452,note_on,12,0,1,,,,,,,,0,79,0
4464,note_on,12,0,1,,,,,,,,0,81,0
4464,note_on,0,0,1,,,,,,,,0,82,88
4476,note_on,0,0,1,,,,,,,,0,81,88
4476,note_on,12,0,1,,,,,,,,0,82,0
4488,note_on,0,0,1,,,,,,,,0,79,88
4488,note_on,12,0,1,,,,,,,,0,81,0
4500,note_on,12,0,1,,,,,,,,0,79,0
4500,note_on,0,0,1,,,,,,,,0,77,88
4512,note_on,12,0,1,,,,,,,,0,77,0
4512,note_on,0,0,1,,,,,,,,0,79,88
4524,note_on,12,0,1,,,,,,,,0,79,0
4524,note_on,0,0,1,,,,,,,,0,81,88
4536,note_on,12,0,1,,,,,,,,0,81,0
4536,note_on,0,0,1,,,,,,,,0,82,88
4548,note_on,12,0,1,,,,,,,,0,82,0
4548,note_on,0,0,1,,,,,,,,0,84,88
4560,note_on,12,0,1,,,,,,,,0,84,0
4560,note_on,0,0,1,,,,,,,,0,86,88
4608,set_tempo,0,1,0,,,,,,2608696,,,,
4608,note_on,48,0,1,,,,,,,,0,86,0
4608,time_signature,240,1,0,3,4,24,8,,,,,,
4656,set_tempo,48,1,0,,,,,,1304348,,,,
4680,note_on,72,0,1,,,,,,,,0,74,88
4704,note_on,0,0,1,,,,,,,,0,75,88
4704,note_on,24,0,1,,,,,,,,0,74,0
4728,note_on,24,0,1,,,,,,,,0,75,0
4728,note_on,0,0,1,,,,,,,,0,76,88
4749,note_on,21,0,1,,,,,,,,0,76,0
4752,note_on,3,0,1,,,,,,,,0,79,88
4758,note_on,0,0,1,,,,,,,,0,77,88
4758,note_on,6,0,1,,,,,,,,0,79,0
4814,set_tempo,158,1,0,,,,,,1304348,,,,
4823,note_on,65,0,1,,,,,,,,0,77,0
4824,note_on,1,0,1,,,,,,,,0,75,88
4832,note_on,8,0,1,,,,,,,,0,75,0
4832,note_on,0,0,1,,,,,,,,0,74,88
4840,note_on,0,0,1,,,,,,,,0,72,88
4840,note_on,8,0,1,,,,,,,,0,74,0
4848,note_on,8,0,1,,,,,,,,0,72,0
4848,note_on,0,0,1,,,,,,,,0,75,88
4854,note_on,0,0,1,,,,,,,,0,74,88
4854,note_on,6,0,1,,,,,,,,0,75,0
4886,note_on,662,0,2,,,,,,,,1,53,0
4896,note_on,0,0,1,,,,,,,,0,72,88
4896,note_on,42,0,1,,,,,,,,0,74,0
4896,set_tempo,0,1,0,,,,,,714286,,,,
4896,time_signature,82,1,0,2,4,24,8,,,,,,
4896,note_on,10,0,2,,,,,,,,1,53,88
4939,note_on,43,0,2,,,,,,,,1,53,0
4944,note_on,5,0,2,,,,,,,,1,41,88
4982,note_on,86,0,1,,,,,,,,0,72,0
4987,note_on,43,0,2,,,,,,,,1,41,0
4992,note_on,5,0,2,,,,,,,,1,45,88
5035,note_on,43,0,2,,,,,,,,1,45,0
5040,note_on,5,0,2,,,,,,,,1,48,88
5083,note_on,43,0,2,,,,,,,,1,48,0
5088,note_on,106,0,1,,,,,,,,0,72,88
5088,note_on,5,0,2,,,,,,,,1,53,88
5131,note_on,43,0,2,,,,,,,,1,53,0
5136,note_on,5,0,2,,,,,,,,1,53,88
5174,note_on,86,0,1,,,,,,,,0,72,0
5179,note_on,43,0,2,,,,,,,,1,53,0
5184,note_on,10,0,1,,,,,,,,0,65,88
5184,note_on,5,0,2,,,,,,,,1,57,88
5227,note_on,43,0,2,,,,,,,,1,57,0
5232,note_on,5,0,2,,,,,,,,1,53,88
5270,note_on,86,0,1,,,,,,,,0,65,0
5275,note_on,43,0,2,,,,,,,,1,53,0
5280,note_on,5,0,2,,,,,,,,1,55,88
5280,note_on,10,0,1,,,,,,,,0,64,88
5323,note_on,43,0,2,,,,,,,,1,55,0
5328,note_on,5,0,2,,,,,,,,1,60,88
5371,note_on,43,0,2,,,,,,,,1,60,0
5376,note_on,5,0,2,,,,,,,,1,55,88
5419,note_on,43,0,2,,,,,,,,1,55,0
5424,note_on,5,0,2,,,,,,,,1,52,88
5452,note_on,172,0,1,,,,,,,,0,64,0
5467,note_on,43,0,2,,,,,,,,1,52,0
5472,note_on,20,0,1,,,,,,,,0,82,88
5472,note_on,5,0,2,,,,,,,,1,48,88
5515,note_on,43,0,1,,,,,,,,0,82,0
5520,note_on,5,0,1,,,,,,,,0,79,88
5563,note_on,43,0,1,,,,,,,,0,79,0
5568,note_on,5,0,1,,,,,,,,0,76,88
5611,note_on,43,0,1,,,,,,,,0,76,0
5616,note_on,5,0,1,,,,,,,,0,70,88
5644,note_on,172,0,2,,,,,,,,1,48,0
5659,note_on,43,0,1,,,,,,,,0,70,0
5664,note_on,5,0,1,,,,,,,,0,70,88
5688,note_on,0,0,1,,,,,,,,0,69,88
5688,note_on,24,0,1,,,,,,,,0,70,0
5712,note_on,0,0,1,,,,,,,,0,74,88
5712,note_on,24,0,1,,,,,,,,0,69,0
5712,note_on,68,0,2,,,,,,,,1,57,88
5736,note_on,24,0,1,,,,,,,,0,74,0
5736,note_on,0,0,1,,,,,,,,0,72,88
5755,note_on,43,0,2,,,,,,,,1,57,0
5760,note_on,0,0,1,,,,,,,,0,72,88
5760,note_on,24,0,1,,,,,,,,0,72,0
5760,note_on,5,0,2,,,,,,,,1,53,88
5803,note_on,43,0,2,,,,,,,,1,53,0
5808,note_on,5,0,2,,,,,,,,1,48,88
5846,note_on,86,0,1,,,,,,,,0,72,0
5851,note_on,43,0,2,,,,,,,,1,48,0
5856,note_on,5,0,2,,,,,,,,1,45,88
5856,note_on,10,0,1,,,,,,,,0,72,88
5892,note_on,36,0,1,,,,,,,,0,72,0
5892,note_on,0,0,1,,,,,,,,0,74,88
5898,note_on,6,0,1,,,,,,,,0,74,0
5898,note_on,0,0,1,,,,,,,,0,72,88
5899,note_on,43,0,2,,,,,,,,1,45,0
5904,note_on,6,0,1,,,,,,,,0,72,0
5904,note_on,0,0,1,,,,,,,,0,77,88
5904,note_on,5,0,2,,,,,,,,1,57,88
5947,note_on,43,0,2,,,,,,,,1,57,0
5952,note_on,5,0,2,,,,,,,,1,57,88
5995,note_on,43,0,2,,,,,,,,1,57,0
6000,note_on,0,0,1,,,,,,,,0,75,88
6000,note_on,96,0,1,,,,,,,,0,77,0
6000,note_on,5,0,2,,,,,,,,1,57,88
6043,note_on,43,0,2,,,,,,,,1,57,0
6043,note_on,43,0,1,,,,,,,,0,75,0
6048,note_on,5,0,2,,,,,,,,1,58,88
6048,note_on,5,0,1,,,,,,,,0,75,88
6072,note_on,24,0,1,,,,,,,,0,75,0
6072,note_on,0,0,1,,,,,,,,0,74,88
6091,note_on,43,0,2,,,,,,,,1,58,0
6096,note_on,5,0,2,,,,,,,,1,58,88
6139,note_on,43,0,2,,,,,,,,1,58,0
6144,note_on,5,0,2,,,,,,,,1,58,88
6187,note_on,43,0,2,,,,,,,,1,58,0
6189,note_on,117,0,1,,,,,,,,0,74,0
6192,note_on,3,0,1,,,,,,,,0,74,88
6192,note_on,5,0,2,,,,,,,,1,58,88
6235,note_on,43,0,1,,,,,,,,0,74,0
6235,note_on,43,0,2,,,,,,,,1,58,0
6240,note_on,5,0,1,,,,,,,,0,74,88
6240,note_on,5,0,2,,,,,,,,1,46,88
6276,note_on,36,0,1,,,,,,,,0,74,0
6276,note_on,0,0,1,,,,,,,,0,75,88
6282,note_on,0,0,1,,,,,,,,0,74,88
6282,note_on,6,0,1,,,,,,,,0,75,0
6283,note_on,43,0,2,,,,,,,,1,46,0
6288,note_on,6,0,1,,,,,,,,0,74,0
6288,note_on,0,0,1,,,,,,,,0,79,88
6288,note_on,5,0,2,,,,,,,,1,58,88
6331,note_on,43,0,2,,,,,,,,1,58,0
6336,note_on,5,0,2,,,,,,,,1,58,88
6379,note_on,43,0,2,,,,,,,,1,58,0
6384,note_on,96,0,1,,,,,,,,0,79,0
6384,note_on,0,0,1,,,,,,,,0,77,88
6384,note_on,5,0,2,,,,,,,,1,59,88
6427,note_on,43,0,1,,,,,,,,0,77,0
6427,note_on,43,0,2,,,,,,,,1,59,0
6432,note_on,5,0,2,,,,,,,,1,60,88
6432,note_on,5,0,1,,,,,,,,0,79,88
6438,note_on,0,0,1,,,,,,,,0,77,88
6438,note_on,6,0,1,,,,,,,,0,79,0
6444,note_on,0,0,1,,,,,,,,0,79,88
6444,note_on,6,0,1,,,,,,,,0,77,0
6450,note_on,0,0,1,,,,,,,,0,77,88
6450,note_on,6,0,1,,,,,,,,0,79,0
6456,note_on,0,0,1,,,,,,,,0,79,88
6456,note_on,6,0,1,,,,,,,,0,77,0
6462,note_on,0,0,1,,,,,,,,0,77,88
6462,note_on,6,0,1,,,,,,,,0,79,0
6468,note_on,6,0,1,,,,,,,,0,77,0
6468,note_on,0,0,1,,,,,,,,0,79,88
6474,note_on,0,0,1,,,,,,,,0,77,88
6474,note_on,6,0,1,,,,,,,,0,79,0
6475,note_on,43,0,2,,,,,,,,1,60,0
6480,note_on,5,0,2,,,,,,,,1,48,88
6480,note_on,0,0,1,,,,,,,,0,79,88
6480,note_on,6,0,1,,,,,,,,0,77,0
6486,note_on,0,0,1,,,,,,,,0,77,88
6486,note_on,6,0,1,,,,,,,,0,79,0
6492,note_on,0,0,1,,,,,,,,0,79,88
6492,note_on,6,0,1,,,,,,,,0,77,0
6498,note_on,0,0,1,,,,,,,,0,77,88
6498,note_on,6,0,1,,,,,,,,0,79,0
6504,note_on,0,0,1,,,,,,,,0,79,88
6504,note_on,6,0,1,,,,,,,,0,77,0
6510,note_on,0,0,1,,,,,,,,0,77,88
6510,note_on,6,0,1,,,,,,,,0,79,0
6516,note_on,6,0,1,,,,,,,,0,77,0
6516,note_on,0,0,1,,,,,,,,0,79,88
6522,note_on,6,0,1,,,,,,,,0,79,0
6522,note_on,0,0,1,,,,,,,,0,77,88
6523,note_on,43,0,2,,,,,,,,1,48,0
6528,note_on,5,0,2,,,,,,,,1,60,88
6528,note_on,6,0,1,,,,,,,,0,77,0
6528,note_on,0,0,1,,,,,,,,0,76,88
6571,note_on,43,0,2,,,,,,,,1,60,0
6576,note_on,5,0,2,,,,,,,,1,58,88
6614,note_on,86,0,1,,,,,,,,0,76,0
6619,note_on,43,0,2,,,,,,,,1,58,0
6624,note_on,5,0,2,,,,,,,,1,57,88
6667,note_on,43,0,2,,,,,,,,1,57,0
6672,note_on,5,0,2,,,,,,,,1,53,88
6715,note_on,43,0,2,,,,,,,,1,53,0
6720,note_on,5,0,2,,,,,,,,1,52,88
6720,note_on,106,0,1,,,,,,,,0,72,88
6763,note_on,43,0,1,,,,,,,,0,72,0
6763,note_on,43,0,2,,,,,,,,1,52,0
6768,note_on,5,0,2,,,,,,,,1,48,88
6768,note_on,5,0,1,,,,,,,,0,72,88
6811,note_on,43,0,1,,,,,,,,0,72,0
6811,note_on,43,0,2,,,,,,,,1,48,0
6816,note_on,5,0,2,,,,,,,,1,57,88
6816,note_on,5,0,1,,,,,,,,0,72,88
6840,note_on,0,0,1,,,,,,,,0,77,88
6840,note_on,24,0,1,,,,,,,,0,72,0
6864,note_on,24,0,1,,,,,,,,0,77,0
6864,note_on,0,0,1,,,,,,,,0,81,88
6888,note_on,24,0,1,,,,,,,,0,81,0
6888,note_on,0,0,1,,,,,,,,0,79,88
6902,note_on,86,0,2,,,,,,,,1,57,0
6912,note_on,24,0,1,,,,,,,,0,79,0
6912,note_on,0,0,1,,,,,,,,0,77,88
6936,note_on,24,0,1,,,,,,,,0,77,0
6936,note_on,0,0,1,,,,,,,,0,76,88
6960,note_on,58,0,2,,,,,,,,1,53,88
6960,note_on,0,0,1,,,,,,,,0,74,88
6960,note_on,24,0,1,,,,,,,,0,76,0
6984,note_on,24,0,1,,,,,,,,0,74,0
6984,note_on,0,0,1,,,,,,,,0,72,88
7003,note_on,43,0,2,,,,,,,,1,53,0
7005,note_on,21,0,1,,,,,,,,0,72,0
7008,note_on,3,0,1,,,,,,,,0,70,88
7008,note_on,5,0,2,,,,,,,,1,55,88
7032,note_on,24,0,1,,,,,,,,0,70,0
7032,note_on,0,0,1,,,,,,,,0,76,88
7056,note_on,24,0,1,,,,,,,,0,76,0
7056,note_on,0,0,1,,,,,,,,0,79,88
7080,note_on,24,0,1,,,,,,,,0,79,0
7080,note_on,0,0,1,,,,,,,,0,77,88
7094,note_on,86,0,2,,,,,,,,1,55,0
7104,note_on,24,0,1,,,,,,,,0,77,0
7104,note_on,0,0,1,,,,,,,,0,76,88
7104,note_on,10,0,2,,,,,,,,1,48,88
7128,note_on,24,0,1,,,,,,,,0,76,0
7128,note_on,0,0,1,,,,,,,,0,74,88
7152,note_on,24,0,1,,,,,,,,0,74,0
7152,note_on,0,0,1,,,,,,,,0,72,88
7176,note_on,0,0,1,,,,,,,,0,70,88
7176,note_on,24,0,1,,,,,,,,0,72,0
7190,note_on,86,0,2,,,,,,,,1,48,0
7197,note_on,21,0,1,,,,,,,,0,70,0
7200,note_on,10,0,2,,,,,,,,1,53,88
7200,note_on,3,0,1,,,,,,,,0,69,88
7221,note_on,21,0,1,,,,,,,,0,69,0
7224,note_on,3,0,1,,,,,,,,0,77,88
7236,note_on,0,0,1,,,,,,,,0,79,88
7236,note_on,12,0,1,,,,,,,,0,77,0
7248,note_on,12,0,1,,,,,,,,0,79,0
7248,note_on,0,0,1,,,,,,,,0,81,88
7272,note_on,24,0,1,,,,,,,,0,81,0
7272,note_on,0,0,1,,,,,,,,0,81,88
7284,note_on,12,0,1,,,,,,,,0,81,0
7284,note_on,0,0,1,,,,,,,,0,79,88
7286,note_on,86,0,2,,,,,,,,1,53,0
7296,note_on,12,0,1,,,,,,,,0,79,0
7296,note_on,0,0,1,,,,,,,,0,77,88
7320,note_on,24,0,1,,,,,,,,0,77,0
7320,note_on,0,0,1,,,,,,,,0,77,88
7332,note_on,12,0,1,,,,,,,,0,77,0
7332,note_on,0,0,1,,,,,,,,0,76,88
7344,note_on,58,0,2,,,,,,,,1,53,88
7344,note_on,0,0,1,,,,,,,,0,74,88
7344,note_on,12,0,1,,,,,,,,0,76,0
7368,note_on,24,0,1,,,,,,,,0,74,0
7368,note_on,0,0,1,,,,,,,,0,74,88
7380,note_on,12,0,1,,,,,,,,0,74,0
7380,note_on,0,0,1,,,,,,,,0,72,88
7387,note_on,43,0,2,,,,,,,,1,53,0
7392,note_on,5,0,2,,,,,,,,1,55,88
7392,note_on,0,0,1,,,,,,,,0,70,88
7392,note_on,12,0,1,,,,,,,,0,72,0
7416,note_on,0,0,1,,,,,,,,0,76,88
7416,note_on,24,0,1,,,,,,,,0,70,0
7428,note_on,12,0,1,,,,,,,,0,76,0
7428,note_on,0,0,1,,,,,,,,0,77,88
7440,note_on,12,0,1,,,,,,,,0,77,0
7440,note_on,0,0,1,,,,,,,,0,79,88
7464,note_on,24,0,1,,,,,,,,0,79,0
7464,note_on,0,0,1,,,,,,,,0,79,88
7476,note_on,12,0,1,,,,,,,,0,79,0
7476,note_on,0,0,1,,,,,,,,0,77,88
7478,note_on,86,0,2,,,,,,,,1,55,0
7488,note_on,0,0,1,,,,,,,,0,76,88
7488,note_on,12,0,1,,,,,,,,0,77,0
7488,note_on,10,0,2,,,,,,,,1,48,88
7512,note_on,24,0,1,,,,,,,,0,76,0
7512,note_on,0,0,1,,,,,,,,0,76,88
7524,note_on,12,0,1,,,,,,,,0,76,0
7524,note_on,0,0,1,,,,,,,,0,74,88
7536,note_on,12,0,1,,,,,,,,0,74,0
7536,note_on,0,0,1,,,,,,,,0,72,88
7560,note_on,0,0,1,,,,,,,,0,72,88
7560,note_on,24,0,1,,,,,,,,0,72,0
7572,note_on,12,0,1,,,,,,,,0,72,0
7572,note_on,0,0,1,,,,,,,,0,70,88
7574,note_on,86,0,2,,,,,,,,1,48,0
7584,note_on,0,0,1,,,,,,,,0,69,88
7584,note_on,10,0,2,,,,,,,,1,53,88
7584,note_on,12,0,1,,,,,,,,0,70,0
7608,note_on,24,0,1,,,,,,,,0,69,0
7608,note_on,0,0,1,,,,,,,,0,77,88
7620,note_on,12,0,1,,,,,,,,0,77,0
7620,note_on,0,0,1,,,,,,,,0,79,88
7632,note_on,12,0,1,,,,,,,,0,79,0
7632,note_on,0,0,1,,,,,,,,0,81,88
7644,note_on,12,0,1,,,,,,,,0,81,0
7644,note_on,0,0,1,,,,,,,,0,82,88
7656,note_on,12,0,1,,,,,,,,0,82,0
7656,note_on,0,0,1,,,,,,,,0,79,88
7668,note_on,0,0,1,,,,,,,,0,81,88
7668,note_on,12,0,1,,,,,,,,0,79,0
7670,note_on,86,0,2,,,,,,,,1,53,0
7680,note_on,12,0,1,,,,,,,,0,81,0
7680,note_on,0,0,1,,,,,,,,0,77,88
7692,note_on,0,0,1,,,,,,,,0,79,88
7692,note_on,12,0,1,,,,,,,,0,77,0
7704,note_on,12,0,1,,,,,,,,0,79,0
7704,note_on,0,0,1,,,,,,,,0,76,88
7716,note_on,12,0,1,,,,,,,,0,76,0
7716,note_on,0,0,1,,,,,,,,0,77,88
7728,note_on,0,0,1,,,,,,,,0,74,88
7728,note_on,12,0,1,,,,,,,,0,77,0
7728,note_on,58,0,2,,,,,,,,1,53,88
7740,note_on,12,0,1,,,,,,,,0,74,0
7740,note_on,0,0,1,,,,,,,,0,76,88
7752,note_on,12,0,1,,,,,,,,0,76,0
7752,note_on,0,0,1,,,,,,,,0,72,88
7764,note_on,12,0,1,,,,,,,,0,72,0
7764,note_on,0,0,1,,,,,,,,0,74,88
7771,note_on,43,0,2,,,,,,,,1,53,0
7776,note_on,0,0,1,,,,,,,,0,70,88
7776,note_on,12,0,1,,,,,,,,0,74,0
7776,note_on,5,0,2,,,,,,,,1,55,88
7800,note_on,0,0,1,,,,,,,,0,76,88
7800,note_on,24,0,1,,,,,,,,0,70,0
7812,note_on,12,0,1,,,,,,,,0,76,0
7812,note_on,0,0,1,,,,,,,,0,77,88
7824,note_on,0,0,1,,,,,,,,0,79,88
7824,note_on,12,0,1,,,,,,,,0,77,0
7836,note_on,0,0,1,,,,,,,,0,81,88
7836,note_on,12,0,1,,,,,,,,0,79,0
7848,note_on,12,0,1,,,,,,,,0,81,0
7848,note_on,0,0,1,,,,,,,,0,77,88
7860,note_on,12,0,1,,,,,,,,0,77,0
7860,note_on,0,0,1,,,,,,,,0,79,88
7862,note_on,86,0,2,,,,,,,,1,55,0
7872,note_on,12,0,1,,,,,,,,0,79,0
7872,note_on,0,0,1,,,,,,,,0,76,88
7884,note_on,12,0,1,,,,,,,,0,76,0
7884,note_on,0,0,1,,,,,,,,0,77,88
7896,note_on,12,0,1,,,,,,,,0,77,0
7896,note_on,0,0,1,,,,,,,,0,74,88
7908,note_on,12,0,1,,,,,,,,0,74,0
7908,note_on,0,0,1,,,,,,,,0,76,88
7920,note_on,0,0,1,,,,,,,,0,72,88
7920,note_on,58,0,2,,,,,,,,1,52,88
7920,note_on,12,0,1,,,,,,,,0,76,0
7932,note_on,0,0,1,,,,,,,,0,74,88
7932,note_on,12,0,1,,,,,,,,0,72,0
7944,note_on,12,0,1,,,,,,,,0,74,0
7944,note_on,0,0,1,,,,,,,,0,70,88
7956,note_on,12,0,1,,,,,,,,0,70,0
7956,note_on,0,0,1,,,,,,,,0,72,88
7963,note_on,43,0,2,,,,,,,,1,52,0
7968,note_on,12,0,1,,,,,,,,0,72,0
7968,note_on,5,0,2,,,,,,,,1,53,88
7968,note_on,0,0,1,,,,,,,,0,69,88
8011,note_on,43,0,2,,,,,,,,1,53,0
8016,note_on,48,0,1,,,,,,,,0,69,0
8016,note_on,0,0,1,,,,,,,,0,77,88
8016,note_on,5,0,2,,,,,,,,1,41,88
8059,note_on,43,0,2,,,,,,,,1,41,0
8064,note_on,5,0,2,,,,,,,,1,45,88
8107,note_on,43,0,2,,,,,,,,1,45,0
8112,note_on,96,0,1,,,,,,,,0,77,0
8112,note_on,0,0,1,,,,,,,,0,75,88
8112,note_on,5,0,2,,,,,,,,1,41,88
8155,note_on,43,0,2,,,,,,,,1,41,0
8160,note_on,0,0,1,,,,,,,,0,73,88
8160,note_on,48,0,1,,,,,,,,0,75,0
8208,note_on,48,0,1,,,,,,,,0,73,0
8208,note_on,0,0,1,,,,,,,,0,74,88
8208,note_on,53,0,2,,,,,,,,1,46,88
8251,note_on,43,0,2,,,,,,,,1,46,0
8256,note_on,48,0,1,,,,,,,,0,74,0
8256,note_on,5,0,2,,,,,,,,1,50,88
8299,note_on,43,0,2,,,,,,,,1,50,0
8304,note_on,5,0,2,,,,,,,,1,46,88
8304,note_on,48,0,1,,,,,,,,0,74,88
8347,note_on,43,0,2,,,,,,,,1,46,0
8347,note_on,43,0,1,,,,,,,,0,74,0
8352,note_on,5,0,1,,,,,,,,0,72,88
8352,note_on,5,0,2,,,,,,,,1,45,88
8395,note_on,43,0,1,,,,,,,,0,72,0
8400,note_on,5,0,1,,,,,,,,0,74,88
8406,note_on,0,0,1,,,,,,,,0,72,88
8406,note_on,6,0,1,,,,,,,,0,74,0
8412,note_on,0,0,1,,,,,,,,0,71,88
8412,note_on,6,0,1,,,,,,,,0,72,0
8416,note_on,64,0,2,,,,,,,,1,45,0
8418,note_on,6,0,1,,,,,,,,0,71,0
8418,note_on,0,0,1,,,,,,,,0,72,88
8424,note_on,0,0,1,,,,,,,,0,74,88
8424,note_on,6,0,1,,,,,,,,0,72,0
8424,note_on,8,0,2,,,,,,,,1,46,88
8434,note_on,10,0,1,,,,,,,,0,74,0
8436,note_on,2,0,1,,,,,,,,0,70,88
8445,note_on,21,0,2,,,,,,,,1,46,0
8446,note_on,10,0,1,,,,,,,,0,70,0
8448,note_on,3,0,2,,,,,,,,1,48,88
8448,note_on,2,0,1,,,,,,,,0,69,88
8491,note_on,43,0,2,,,,,,,,1,48,0
8491,note_on,43,0,1,,,,,,,,0,69,0
8496,note_on,5,0,2,,,,,,,,1,48,88
8496,note_on,5,0,1,,,,,,,,0,67,88
8539,note_on,43,0,1,,,,,,,,0,67,0
8539,note_on,43,0,2,,,,,,,,1,48,0
8544,note_on,5,0,1,,,,,,,,0,77,88
8544,note_on,5,0,2,,,,,,,,1,45,88
8587,note_on,43,0,2,,,,,,,,1,45,0
8592,note_on,5,0,2,,,,,,,,1,41,88
8635,note_on,43,0,2,,,,,,,,1,41,0
8640,note_on,5,0,2,,,,,,,,1,51,88
8683,note_on,43,0,2,,,,,,,,1,51,0
8688,note_on,5,0,2,,,,,,,,1,48,88
8731,note_on,43,0,2,,,,,,,,1,48,0
8736,note_on,5,0,2,,,,,,,,1,50,88
8779,note_on,43,0,2,,,,,,,,1,50,0
8784,note_on,5,0,2,,,,,,,,1,46,88
8827,note_on,43,0,2,,,,,,,,1,46,0
8832,note_on,5,0,2,,,,,,,,1,62,88
8875,note_on,43,0,2,,,,,,,,1,62,0
8880,note_on,5,0,2,,,,,,,,1,58,88
8923,note_on,43,0,2,,,,,,,,1,58,0
8928,note_on,5,0,2,,,,,,,,1,57,88
8949,note_on,405,0,1,,,,,,,,0,77,0
8952,note_on,3,0,1,,,,,,,,0,77,88
8964,note_on,12,0,1,,,,,,,,0,77,0
8971,note_on,43,0,2,,,,,,,,1,57,0
8976,note_on,5,0,2,,,,,,,,1,52,88
8976,note_on,12,0,1,,,,,,,,0,79,88
8988,note_on,12,0,1,,,,,,,,0,79,0
9000,note_on,12,0,1,,,,,,,,0,79,88
9012,note_on,12,0,1,,,,,,,,0,79,0
9019,note_on,43,0,2,,,,,,,,1,52,0
9024,note_on,5,0,2,,,,,,,,1,53,88
9024,note_on,12,0,1,,,,,,,,0,81,88
9036,note_on,12,0,1,,,,,,,,0,81,0
9048,note_on,12,0,1,,,,,,,,0,81,88
9060,note_on,12,0,1,,,,,,,,0,81,0
9067,note_on,43,0,2,,,,,,,,1,53,0
9072,note_on,5,0,2,,,,,,,,1,50,88
9072,note_on,12,0,1,,,,,,,,0,82,88
9084,note_on,12,0,1,,,,,,,,0,82,0
9096,note_on,12,0,1,,,,,,,,0,82,88
9108,note_on,12,0,1,,,,,,,,0,82,0
9115,note_on,43,0,2,,,,,,,,1,50,0
9120,note_on,12,0,1,,,,,,,,0,84,88
9120,note_on,5,0,2,,,,,,,,1,45,88
9144,note_on,0,0,1,,,,,,,,0,81,88
9144,note_on,24,0,1,,,,,,,,0,84,0
9163,note_on,43,0,2,,,,,,,,1,45,0
9168,note_on,5,0,2,,,,,,,,1,48,88
9168,note_on,0,0,1,,,,,,,,0,77,88
9168,note_on,24,0,1,,,,,,,,0,81,0
9192,note_on,24,0,1,,,,,,,,0,77,0
9192,note_on,0,0,1,,,,,,,,0,72,88
9211,note_on,43,0,2,,,,,,,,1,48,0
9216,note_on,24,0,1,,,,,,,,0,72,0
9216,note_on,5,0,2,,,,,,,,1,53,88
9216,note_on,0,0,1,,,,,,,,0,81,88
9240,note_on,24,0,1,,,,,,,,0,81,0
9240,note_on,0,0,1,,,,,,,,0,77,88
9259,note_on,43,0,2,,,,,,,,1,53,0
9264,note_on,0,0,1,,,,,,,,0,72,88
9264,note_on,5,0,2,,,,,,,,1,57,88
9264,note_on,24,0,1,,,,,,,,0,77,0
9288,note_on,24,0,1,,,,,,,,0,72,0
9288,note_on,0,0,1,,,,,,,,0,69,88
9307,note_on,43,0,2,,,,,,,,1,57,0
9312,note_on,24,0,1,,,,,,,,0,69,0
9312,note_on,0,0,1,,,,,,,,0,69,88
9312,note_on,5,0,2,,,,,,,,1,60,88
9318,note_on,6,0,1,,,,,,,,0,69,0
9318,note_on,0,0,1,,,,,,,,0,67,88
9324,note_on,6,0,1,,,,,,,,0,67,0
9324,note_on,0,0,1,,,,,,,,0,69,88
9330,note_on,6,0,1,,,,,,,,0,69,0
9330,note_on,0,0,1,,,,,,,,0,67,88
9336,note_on,6,0,1,,,,,,,,0,67,0
9336,note_on,0,0,1,,,,,,,,0,69,88
9342,note_on,0,0,1,,,,,,,,0,67,88
9342,note_on,6,0,1,,,,,,,,0,69,0
9348,note_on,6,0,1,,,,,,,,0,67,0
9348,note_on,0,0,1,,,,,,,,0,69,88
9354,note_on,6,0,1,,,,,,,,0,69,0
9354,note_on,0,0,1,,,,,,,,0,67,88
9355,note_on,43,0,2,,,,,,,,1,60,0
9360,note_on,6,0,1,,,,,,,,0,67,0
9360,note_on,0,0,1,,,,,,,,0,69,88
9360,note_on,5,0,2,,,,,,,,1,48,88
9366,note_on,6,0,1,,,,,,,,0,69,0
9366,note_on,0,0,1,,,,,,,,0,67,88
9372,note_on,6,0,1,,,,,,,,0,67,0
9372,note_on,0,0,1,,,,,,,,0,69,88
9378,note_on,0,0,1,,,,,,,,0,67,88
9378,note_on,6,0,1,,,,,,,,0,69,0
9384,note_on,0,0,1,,,,,,,,0,69,88
9384,note_on,6,0,1,,,,,,,,0,67,0
9390,note_on,0,0,1,,,,,,,,0,67,88
9390,note_on,6,0,1,,,,,,,,0,69,0
9396,note_on,0,0,1,,,,,,,,0,69,88
9396,note_on,6,0,1,,,,,,,,0,67,0
9402,note_on,0,0,1,,,,,,,,0,67,88
9402,note_on,6,0,1,,,,,,,,0,69,0
9403,note_on,43,0,2,,,,,,,,1,48,0
9408,note_on,5,0,2,,,,,,,,1,48,88
9408,note_on,0,0,1,,,,,,,,0,69,88
9408,note_on,6,0,1,,,,,,,,0,67,0
9414,note_on,0,0,1,,,,,,,,0,67,88
9414,note_on,6,0,1,,,,,,,,0,69,0
9420,note_on,0,0,1,,,,,,,,0,69,88
9420,note_on,6,0,1,,,,,,,,0,67,0
9426,note_on,0,0,1,,,,,,,,0,67,88
9426,note_on,6,0,1,,,,,,,,0,69,0
9432,note_on,0,0,1,,,,,,,,0,69,88
9432,note_on,6,0,1,,,,,,,,0,67,0
9438,note_on,0,0,1,,,,,,,,0,67,88
9438,note_on,6,0,1,,,,,,,,0,69,0
9444,note_on,0,0,1,,,,,,,,0,69,88
9444,note_on,6,0,1,,,,,,,,0,67,0
9450,note_on,0,0,1,,,,,,,,0,67,88
9450,note_on,6,0,1,,,,,,,,0,69,0
9451,note_on,43,0,2,,,,,,,,1,48,0
9456,note_on,0,0,1,,,,,,,,0,65,88
9456,note_on,6,0,1,,,,,,,,0,67,0
9456,note_on,5,0,2,,,,,,,,1,48,88
9477,note_on,21,0,1,,,,,,,,0,65,0
9480,note_on,3,0,1,,,,,,,,0,67,88
9499,note_on,43,0,2,,,,,,,,1,48,0
9501,note_on,21,0,1,,,,,,,,0,67,0
9504,note_on,5,0,2,,,,,,,,1,53,88
9504,note_on,3,0,1,,,,,,,,0,65,88
9590,note_on,86,0,2,,,,,,,,1,53,0
9590,note_on,86,0,1,,,,,,,,0,65,0
9696,note_on,106,0,2,,,,,,,,1,41,88
9696,note_on,106,0,1,,,,,,,,0,72,88
9739,note_on,43,0,2,,,,,,,,1,41,0
9744,note_on,5,0,2,,,,,,,,1,53,88
9787,note_on,43,0,2,,,,,,,,1,53,0
9792,note_on,5,0,2,,,,,,,,1,57,88
9825,note_on,129,0,1,,,,,,,,0,72,0
9835,note_on,43,0,2,,,,,,,,1,57,0
9840,note_on,5,0,2,,,,,,,,1,53,88
9840,note_on,15,0,1,,,,,,,,0,77,88
9883,note_on,43,0,2,,,,,,,,1,53,0
9883,note_on,43,0,1,,,,,,,,0,77,0
9888,note_on,5,0,2,,,,,,,,1,46,88
9888,note_on,5,0,1,,,,,,,,0,75,88
9909,note_on,21,0,1,,,,,,,,0,75,0
9912,note_on,3,0,1,,,,,,,,0,73,88
9931,note_on,43,0,2,,,,,,,,1,46,0
9933,note_on,21,0,1,,,,,,,,0,73,0
9936,note_on,5,0,2,,,,,,,,1,58,88
9936,note_on,3,0,1,,,,,,,,0,73,88
9979,note_on,43,0,1,,,,,,,,0,73,0
9979,note_on,43,0,2,,,,,,,,1,58,0
9984,note_on,5,0,2,,,,,,,,1,53,88
10027,note_on,43,0,2,,,,,,,,1,53,0
10032,note_on,5,0,2,,,,,,,,1,49,88
10075,note_on,43,0,2,,,,,,,,1,49,0
10080,note_on,101,0,1,,,,,,,,0,79,88
10080,note_on,5,0,2,,,,,,,,1,46,88
10123,note_on,43,0,2,,,,,,,,1,46,0
10128,note_on,5,0,2,,,,,,,,1,58,88
10171,note_on,43,0,2,,,,,,,,1,58,0
10176,note_on,5,0,2,,,,,,,,1,61,88
10219,note_on,43,0,2,,,,,,,,1,61,0
10224,note_on,5,0,2,,,,,,,,1,58,88
10224,note_on,144,0,1,,,,,,,,0,79,0
10224,note_on,0,0,1,,,,,,,,0,73,88
10267,note_on,43,0,2,,,,,,,,1,58,0
10272,note_on,5,0,2,,,,,,,,1,52,88
10272,note_on,0,0,1,,,,,,,,0,73,88
10272,note_on,48,0,1,,,,,,,,0,73,0
10315,note_on,43,0,2,,,,,,,,1,52,0
10315,note_on,43,0,1,,,,,,,,0,73,0
10320,note_on,5,0,2,,,,,,,,1,55,88
10320,note_on,5,0,1,,,,,,,,0,72,88
10363,note_on,43,0,2,,,,,,,,1,55,0
10363,note_on,43,0,1,,,,,,,,0,72,0
10368,note_on,5,0,2,,,,,,,,1,60,88
10392,note_on,29,0,1,,,,,,,,0,76,88
10411,note_on,43,0,2,,,,,,,,1,60,0
10413,note_on,21,0,1,,,,,,,,0,76,0
10416,note_on,3,0,1,,,,,,,,0,77,88
10416,note_on,5,0,2,,,,,,,,1,48,88
10437,note_on,21,0,1,,,,,,,,0,77,0
10440,note_on,3,0,1,,,,,,,,0,79,88
10459,note_on,43,0,2,,,,,,,,1,48,0
10461,note_on,21,0,1,,,,,,,,0,79,0
10464,note_on,3,0,1,,,,,,,,0,81,88
10464,note_on,5,0,2,,,,,,,,1,53,88
10550,note_on,86,0,2,,,,,,,,1,53,0
10560,note_on,10,0,2,,,,,,,,1,49,88
10608,note_on,0,0,1,,,,,,,,0,71,88
10608,note_on,144,0,1,,,,,,,,0,81,0
10646,note_on,86,0,2,,,,,,,,1,49,0
10656,note_on,0,0,1,,,,,,,,0,72,88
10656,note_on,48,0,1,,,,,,,,0,71,0
10656,note_on,10,0,2,,,,,,,,1,48,88
10742,note_on,86,0,2,,,,,,,,1,48,0
10752,note_on,0,0,1,,,,,,,,0,73,88
10752,note_on,96,0,1,,,,,,,,0,72,0
10800,note_on,48,0,1,,,,,,,,0,73,0
10800,note_on,0,0,1,,,,,,,,0,74,88
10848,note_on,0,0,1,,,,,,,,0,75,88
10848,note_on,48,0,1,,,,,,,,0,74,0
10848,note_on,106,0,2,,,,,,,,1,44,88
10891,note_on,43,0,2,,,,,,,,1,44,0
10896,note_on,5,0,2,,,,,,,,1,56,88
10939,note_on,43,0,2,,,,,,,,1,56,0
10944,note_on,5,0,2,,,,,,,,1,60,88
10987,note_on,43,0,2,,,,,,,,1,60,0
10992,note_on,5,0,2,,,,,,,,1,56,88
10992,note_on,144,0,1,,,,,,,,0,75,0
10992,note_on,0,0,1,,,,,,,,0,77,88
11035,note_on,43,0,2,,,,,,,,1,56,0
11040,note_on,48,0,1,,,,,,,,0,77,0
11040,note_on,0,0,1,,,,,,,,0,75,88
11088,note_on,53,0,2,,,,,,,,1,53,88
11131,note_on,43,0,2,,,,,,,,1,53,0
11136,note_on,96,0,1,,,,,,,,0,75,0
11136,note_on,0,0,1,,,,,,,,0,73,88
11136,note_on,5,0,2,,,,,,,,1,58,88
11179,note_on,43,0,2,,,,,,,,1,58,0
11184,note_on,5,0,2,,,,,,,,1,56,88
11184,note_on,48,0,1,,,,,,,,0,73,0
11227,note_on,43,0,2,,,,,,,,1,56,0
11232,note_on,48,0,1,,,,,,,,0,73,88
11232,note_on,5,0,2,,,,,,,,1,55,88
11256,note_on,24,0,1,,,,,,,,0,73,0
11256,note_on,0,0,1,,,,,,,,0,75,88
11275,note_on,43,0,2,,,,,,,,1,55,0
11280,note_on,5,0,2,,,,,,,,1,51,88
11280,note_on,0,0,1,,,,,,,,0,77,88
11280,note_on,24,0,1,,,,,,,,0,75,0
11304,note_on,24,0,1,,,,,,,,0,77,0
11304,note_on,0,0,1,,,,,,,,0,75,88
11323,note_on,43,0,2,,,,,,,,1,51,0
11328,note_on,5,0,2,,,,,,,,1,58,88
11328,note_on,24,0,1,,,,,,,,0,75,0
11328,note_on,0,0,1,,,,,,,,0,79,88
11352,note_on,0,0,1,,,,,,,,0,77,88
11352,note_on,24,0,1,,,,,,,,0,79,0
11371,note_on,43,0,2,,,,,,,,1,58,0
11376,note_on,24,0,1,,,,,,,,0,77,0
11376,note_on,5,0,2,,,,,,,,1,55,88
11376,note_on,0,0,1,,,,,,,,0,75,88
11400,note_on,0,0,1,,,,,,,,0,73,88
11400,note_on,24,0,1,,,,,,,,0,75,0
11419,note_on,43,0,2,,,,,,,,1,55,0
11424,note_on,24,0,1,,,,,,,,0,73,0
11424,note_on,0,0,1,,,,,,,,0,71,88
11472,note_on,53,0,2,,,,,,,,1,51,88
11496,note_on,72,0,1,,,,,,,,0,71,0
11496,note_on,0,0,1,,,,,,,,0,72,88
11515,note_on,43,0,2,,,,,,,,1,51,0
11520,note_on,24,0,1,,,,,,,,0,72,0
11520,note_on,0,0,1,,,,,,,,0,72,88
11520,note_on,5,0,2,,,,,,,,1,56,88
11563,note_on,43,0,2,,,,,,,,1,56,0
11568,note_on,5,0,2,,,,,,,,1,53,88
11606,note_on,86,0,1,,,,,,,,0,72,0
11611,note_on,43,0,2,,,,,,,,1,53,0
11616,note_on,10,0,1,,,,,,,,0,70,88
11616,note_on,5,0,2,,,,,,,,1,50,88
11659,note_on,43,0,2,,,,,,,,1,50,0
11664,note_on,5,0,2,,,,,,,,1,46,88
11707,note_on,43,0,2,,,,,,,,1,46,0
11712,note_on,5,0,2,,,,,,,,1,56,88
11755,note_on,43,0,2,,,,,,,,1,56,0
11760,note_on,5,0,2,,,,,,,,1,53,88
11788,note_on,172,0,1,,,,,,,,0,70,0
11803,note_on,43,0,2,,,,,,,,1,53,0
11808,note_on,5,0,2,,,,,,,,1,55,88
11808,note_on,20,0,1,,,,,,,,0,70,88
11851,note_on,43,0,2,,,,,,,,1,55,0
11856,note_on,5,0,2,,,,,,,,1,58,88
11899,note_on,43,0,2,,,,,,,,1,58,0
11904,note_on,5,0,2,,,,,,,,1,55,88
11918,note_on,110,0,1,,,,,,,,0,70,0
11920,note_on,2,0,1,,,,,,,,0,72,88
11934,note_on,14,0,1,,,,,,,,0,72,0
11936,note_on,2,0,1,,,,,,,,0,74,88
11947,note_on,43,0,2,,,,,,,,1,55,0
11950,note_on,14,0,1,,,,,,,,0,74,0
11952,note_on,5,0,2,,,,,,,,1,51,88
11952,note_on,2,0,1,,,,,,,,0,75,88
11966,note_on,14,0,1,,,,,,,,0,75,0
11968,note_on,2,0,1,,,,,,,,0,77,88
11982,note_on,14,0,1,,,,,,,,0,77,0
11984,note_on,2,0,1,,,,,,,,0,79,88
11995,note_on,43,0,2,,,,,,,,1,51,0
11998,note_on,14,0,1,,,,,,,,0,79,0
12000,note_on,2,0,1,,,,,,,,0,80,88
12000,note_on,5,0,2,,,,,,,,1,46,88
12043,note_on,43,0,1,,,,,,,,0,80,0
12048,note_on,5,0,1,,,,,,,,0,77,88
12091,note_on,43,0,1,,,,,,,,0,77,0
12096,note_on,5,0,1,,,,,,,,0,74,88
12139,note_on,43,0,1,,,,,,,,0,74,0
12144,note_on,5,0,1,,,,,,,,0,68,88
12172,note_on,172,0,2,,,,,,,,1,46,0
12187,note_on,43,0,1,,,,,,,,0,68,0
12192,note_on,5,0,1,,,,,,,,0,68,88
12216,note_on,24,0,1,,,,,,,,0,68,0
12216,note_on,0,0,1,,,,,,,,0,67,88
12240,note_on,68,0,2,,,,,,,,1,51,88
12240,note_on,24,0,1,,,,,,,,0,67,0
12240,note_on,0,0,1,,,,,,,,0,72,88
12264,note_on,24,0,1,,,,,,,,0,72,0
12264,note_on,0,0,1,,,,,,,,0,70,88
12283,note_on,43,0,2,,,,,,,,1,51,0
12288,note_on,5,0,2,,,,,,,,1,55,88
12288,note_on,24,0,1,,,,,,,,0,70,0
12288,note_on,0,0,1,,,,,,,,0,70,88
12331,note_on,43,0,2,,,,,,,,1,55,0
12336,note_on,5,0,2,,,,,,,,1,51,88
12374,note_on,86,0,1,,,,,,,,0,70,0
12379,note_on,43,0,2,,,,,,,,1,51,0
12384,note_on,10,0,1,,,,,,,,0,58,88
12384,note_on,5,0,2,,,,,,,,1,50,88
12427,note_on,43,0,2,,,,,,,,1,50,0
12432,note_on,5,0,2,,,,,,,,1,46,88
12475,note_on,43,0,2,,,,,,,,1,46,0
12480,note_on,5,0,2,,,,,,,,1,56,88
12523,note_on,43,0,2,,,,,,,,1,56,0
12528,note_on,5,0,2,,,,,,,,1,53,88
12556,note_on,172,0,1,,,,,,,,0,58,0
12571,note_on,43,0,2,,,,,,,,1,53,0
12576,note_on,5,0,2,,,,,,,,1,55,88
12576,note_on,20,0,1,,,,,,,,0,82,88
12619,note_on,43,0,2,,,,,,,,1,55,0
12624,note_on,5,0,2,,,,,,,,1,58,88
12667,note_on,43,0,2,,,,,,,,1,58,0
12672,note_on,5,0,2,,,,,,,,1,55,88
12715,note_on,43,0,2,,,,,,,,1,55,0
12720,note_on,5,0,2,,,,,,,,1,51,88
12748,note_on,172,0,1,,,,,,,,0,82,0
12763,note_on,43,0,2,,,,,,,,1,51,0
12768,note_on,5,0,2,,,,,,,,1,46,88
12768,note_on,20,0,1,,,,,,,,0,80,88
12792,note_on,0,0,1,,,,,,,,0,79,88
12792,note_on,24,0,1,,,,,,,,0,80,0
12816,note_on,0,0,1,,,,,,,,0,79,88
12816,note_on,24,0,1,,,,,,,,0,79,0
12822,note_on,6,0,1,,,,,,,,0,79,0
12822,note_on,0,0,1,,,,,,,,0,77,88
12828,note_on,0,0,1,,,,,,,,0,79,88
12828,note_on,6,0,1,,,,,,,,0,77,0
12834,note_on,0,0,1,,,,,,,,0,77,88
12834,note_on,6,0,1,,,,,,,,0,79,0
12840,note_on,6,0,1,,,,,,,,0,77,0
12840,note_on,0,0,1,,,,,,,,0,75,88
12861,note_on,21,0,1,,,,,,,,0,75,0
12864,note_on,3,0,1,,,,,,,,0,75,88
12870,note_on,6,0,1,,,,,,,,0,75,0
12870,note_on,0,0,1,,,,,,,,0,74,88
12876,note_on,6,0,1,,,,,,,,0,74,0
12876,note_on,0,0,1,,,,,,,,0,75,88
12882,note_on,0,0,1,,,,,,,,0,74,88
12882,note_on,6,0,1,,,,,,,,0,75,0
12888,note_on,6,0,1,,,,,,,,0,74,0
12888,note_on,0,0,1,,,,,,,,0,72,88
12912,note_on,0,0,1,,,,,,,,0,72,88
12912,note_on,24,0,1,,,,,,,,0,72,0
12918,note_on,6,0,1,,,,,,,,0,72,0
12918,note_on,0,0,1,,,,,,,,0,70,88
12924,note_on,6,0,1,,,,,,,,0,70,0
12924,note_on,0,0,1,,,,,,,,0,72,88
12930,note_on,0,0,1,,,,,,,,0,70,88
12930,note_on,6,0,1,,,,,,,,0,72,0
12936,note_on,6,0,1,,,,,,,,0,70,0
12936,note_on,0,0,1,,,,,,,,0,68,88
12940,note_on,172,0,2,,,,,,,,1,46,0
12960,note_on,24,0,1,,,,,,,,0,68,0
12960,note_on,0,0,1,,,,,,,,0,67,88
13008,note_on,48,0,1,,,,,,,,0,67,0
13008,note_on,0,0,1,,,,,,,,0,79,88
13008,note_on,68,0,2,,,,,,,,1,51,88
13051,note_on,43,0,2,,,,,,,,1,51,0
13056,note_on,5,0,2,,,,,,,,1,51,88
13099,note_on,43,0,2,,,,,,,,1,51,0
13104,note_on,5,0,2,,,,,,,,1,51,88
13104,note_on,96,0,1,,,,,,,,0,79,0
13104,note_on,0,0,1,,,,,,,,0,77,88
13110,note_on,6,0,1,,,,,,,,0,77,0
13110,note_on,0,0,1,,,,,,,,0,75,88
13147,note_on,43,0,2,,,,,,,,1,51,0
13152,note_on,5,0,2,,,,,,,,1,51,88
13152,note_on,42,0,1,,,,,,,,0,75,0
13152,note_on,0,0,1,,,,,,,,0,74,88
13158,note_on,0,0,1,,,,,,,,0,73,88
13158,note_on,6,0,1,,,,,,,,0,74,0
13200,note_on,42,0,1,,,,,,,,0,73,0
13200,note_on,0,0,1,,,,,,,,0,73,88
13286,note_on,86,0,1,,,,,,,,0,73,0
13296,note_on,10,0,1,,,,,,,,0,73,88
13324,note_on,172,0,2,,,,,,,,1,51,0
13339,note_on,43,0,1,,,,,,,,0,73,0
13344,note_on,20,0,2,,,,,,,,1,50,88
13344,note_on,5,0,1,,,,,,,,0,74,88
13387,note_on,43,0,2,,,,,,,,1,50,0
13392,note_on,48,0,1,,,,,,,,0,74,0
13392,note_on,0,0,1,,,,,,,,0,75,88
13392,note_on,5,0,2,,,,,,,,1,48,88
13435,note_on,43,0,2,,,,,,,,1,48,0
13440,note_on,48,0,1,,,,,,,,0,75,0
13440,note_on,5,0,2,,,,,,,,1,54,88
13483,note_on,43,0,2,,,,,,,,1,54,0
13488,note_on,48,0,1,,,,,,,,0,75,88
13488,note_on,5,0,2,,,,,,,,1,45,88
13531,note_on,43,0,1,,,,,,,,0,75,0
13531,note_on,43,0,2,,,,,,,,1,45,0
13536,note_on,5,0,1,,,,,,,,0,74,88
13536,note_on,5,0,2,,,,,,,,1,46,88
13579,note_on,43,0,1,,,,,,,,0,74,0
13584,note_on,5,0,1,,,,,,,,0,75,88
13590,note_on,6,0,1,,,,,,,,0,75,0
13590,note_on,0,0,1,,,,,,,,0,74,88
13596,note_on,0,0,1,,,,,,,,0,72,88
13596,note_on,6,0,1,,,,,,,,0,74,0
13600,note_on,64,0,2,,,,,,,,1,46,0
13602,note_on,0,0,1,,,,,,,,0,74,88
13602,note_on,6,0,1,,,,,,,,0,72,0
13608,note_on,0,0,1,,,,,,,,0,75,88
13608,note_on,6,0,1,,,,,,,,0,74,0
13608,note_on,8,0,2,,,,,,,,1,48,88
13618,note_on,10,0,1,,,,,,,,0,75,0
13620,note_on,2,0,1,,,,,,,,0,74,88
13629,note_on,21,0,2,,,,,,,,1,48,0
13630,note_on,10,0,1,,,,,,,,0,74,0
13632,note_on,3,0,2,,,,,,,,1,50,88
13632,note_on,2,0,1,,,,,,,,0,70,88
13675,note_on,43,0,1,,,,,,,,0,70,0
13675,note_on,43,0,2,,,,,,,,1,50,0
13680,note_on,5,0,2,,,,,,,,1,50,88
13680,note_on,5,0,1,,,,,,,,0,69,88
13723,note_on,43,0,2,,,,,,,,1,50,0
13723,note_on,43,0,1,,,,,,,,0,69,0
13728,note_on,5,0,2,,,,,,,,1,43,88
13728,note_on,5,0,1,,,,,,,,0,67,88
13771,note_on,43,0,2,,,,,,,,1,43,0
13776,note_on,5,0,2,,,,,,,,1,55,88
13814,note_on,86,0,1,,,,,,,,0,67,0
13819,note_on,43,0,2,,,,,,,,1,55,0
13824,note_on,5,0,2,,,,,,,,1,58,88
13867,note_on,43,0,2,,,,,,,,1,58,0
13872,note_on,5,0,2,,,,,,,,1,55,88
13915,note_on,43,0,2,,,,,,,,1,55,0
13920,note_on,5,0,2,,,,,,,,1,51,88
13920,note_on,106,0,1,,,,,,,,0,79,88
14064,note_on,0,0,1,,,,,,,,0,73,88
14064,note_on,144,0,1,,,,,,,,0,79,0
14092,note_on,172,0,2,,,,,,,,1,51,0
14112,note_on,48,0,1,,,,,,,,0,73,0
14112,note_on,0,0,1,,,,,,,,0,73,88
14160,note_on,0,0,1,,,,,,,,0,74,88
14160,note_on,68,0,2,,,,,,,,1,50,88
14160,note_on,48,0,1,,,,,,,,0,73,0
14203,note_on,43,0,2,,,,,,,,1,50,0
14208,note_on,48,0,1,,,,,,,,0,74,0
14208,note_on,5,0,2,,,,,,,,1,54,88
14251,note_on,43,0,2,,,,,,,,1,54,0
14256,note_on,5,0,2,,,,,,,,1,50,88
14299,note_on,43,0,2,,,,,,,,1,50,0
14304,note_on,96,0,1,,,,,,,,0,82,88
14304,note_on,5,0,2,,,,,,,,1,51,88
14448,note_on,144,0,1,,,,,,,,0,82,0
14448,note_on,0,0,1,,,,,,,,0,73,88
14476,note_on,172,0,2,,,,,,,,1,51,0
14496,note_on,48,0,1,,,,,,,,0,73,0
14496,note_on,0,0,1,,,,,,,,0,74,88
14496,set_tempo,9600,1,0,,,,,,1428571,,,,
14496,note_on,20,0,2,,,,,,,,1,50,88
14592,set_tempo,96,1,0,,,,,,714286,,,,
14613,note_on,117,0,1,,,,,,,,0,74,0
14616,note_on,3,0,1,,,,,,,,0,75,88
14622,note_on,6,0,1,,,,,,,,0,75,0
14622,note_on,0,0,1,,,,,,,,0,74,88
14625,note_on,129,0,2,,,,,,,,1,50,0
14628,note_on,6,0,1,,,,,,,,0,74,0
14628,note_on,0,0,1,,,,,,,,0,73,88
14634,note_on,6,0,1,,,,,,,,0,73,0
14634,note_on,0,0,1,,,,,,,,0,74,88
14640,note_on,6,0,1,,,,,,,,0,74,0
14640,note_on,0,0,1,,,,,,,,0,77,88
14676,note_on,36,0,1,,,,,,,,0,77,0
14676,note_on,0,0,1,,,,,,,,0,75,88
14688,set_tempo,96,1,0,,,,,,1428571,,,,
14688,note_on,63,0,2,,,,,,,,1,45,88
14688,note_on,0,0,1,,,,,,,,0,75,88
14688,note_on,12,0,1,,,,,,,,0,75,0
14784,set_tempo,96,1,0,,,,,,714286,,,,
14784,note_on,0,0,1,,,,,,,,0,76,88
14784,note_on,96,0,1,,,,,,,,0,75,0
14817,note_on,129,0,2,,,,,,,,1,45,0
14832,note_on,0,0,1,,,,,,,,0,77,88
14832,note_on,48,0,1,,,,,,,,0,76,0
14861,note_on,29,0,1,,,,,,,,0,77,0
14862,note_on,1,0,1,,,,,,,,0,74,88
14867,note_on,5,0,1,,,,,,,,0,74,0
14868,note_on,1,0,1,,,,,,,,0,75,88
14873,note_on,5,0,1,,,,,,,,0,75,0
14874,note_on,1,0,1,,,,,,,,0,72,88
14879,note_on,5,0,1,,,,,,,,0,72,0
14880,note_on,1,0,1,,,,,,,,0,70,88
14880,note_on,63,0,2,,,,,,,,1,46,88
14923,note_on,43,0,2,,,,,,,,1,46,0
14928,note_on,5,0,2,,,,,,,,1,58,88
14971,note_on,43,0,2,,,,,,,,1,58,0
14976,note_on,5,0,2,,,,,,,,1,62,88
15019,note_on,43,0,2,,,,,,,,1,62,0
15024,note_on,5,0,2,,,,,,,,1,58,88
15052,note_on,172,0,1,,,,,,,,0,70,0
15067,note_on,43,0,2,,,,,,,,1,58,0
15072,note_on,20,0,1,,,,,,,,0,72,88
15120,note_on,53,0,2,,,,,,,,1,53,88
15163,note_on,43,0,2,,,,,,,,1,53,0
15168,note_on,5,0,2,,,,,,,,1,57,88
15211,note_on,43,0,2,,,,,,,,1,57,0
15216,note_on,5,0,2,,,,,,,,1,53,88
15244,note_on,172,0,1,,,,,,,,0,72,0
15259,note_on,43,0,2,,,,,,,,1,53,0
15264,note_on,20,0,1,,,,,,,,0,74,88
15312,note_on,53,0,2,,,,,,,,1,58,88
15355,note_on,43,0,2,,,,,,,,1,58,0
15360,note_on,5,0,2,,,,,,,,1,57,88
15403,note_on,43,0,2,,,,,,,,1,57,0
15408,note_on,5,0,2,,,,,,,,1,58,88
15436,note_on,172,0,1,,,,,,,,0,74,0
15451,note_on,43,0,2,,,,,,,,1,58,0
15456,note_on,5,0,2,,,,,,,,1,55,88
15456,note_on,20,0,1,,,,,,,,0,75,88
15499,note_on,43,0,2,,,,,,,,1,55,0
15504,note_on,5,0,2,,,,,,,,1,58,88
15542,note_on,86,0,1,,,,,,,,0,75,0
15547,note_on,43,0,2,,,,,,,,1,58,0
15552,note_on,5,0,2,,,,,,,,1,50,88
15552,note_on,10,0,1,,,,,,,,0,77,88
15595,note_on,43,0,2,,,,,,,,1,50,0
15600,note_on,5,0,2,,,,,,,,1,58,88
15638,note_on,86,0,1,,,,,,,,0,77,0
15643,note_on,43,0,2,,,,,,,,1,58,0
15648,note_on,5,0,2,,,,,,,,1,51,88
15648,note_on,10,0,1,,,,,,,,0,79,88
15691,note_on,43,0,2,,,,,,,,1,51,0
15696,note_on,5,0,2,,,,,,,,1,51,88
15739,note_on,43,0,2,,,,,,,,1,51,0
15744,note_on,5,0,2,,,,,,,,1,51,88
15787,note_on,43,0,2,,,,,,,,1,51,0
15792,note_on,144,0,1,,,,,,,,0,79,0
15792,note_on,5,0,2,,,,,,,,1,51,88
15792,note_on,0,0,1,,,,,,,,0,77,88
15804,note_on,12,0,1,,,,,,,,0,77,0
15804,note_on,0,0,1,,,,,,,,0,75,88
15816,note_on,12,0,1,,,,,,,,0,75,0
15816,note_on,0,0,1,,,,,,,,0,74,88
15828,note_on,0,0,1,,,,,,,,0,72,88
15828,note_on,12,0,1,,,,,,,,0,74,0
15835,note_on,43,0,2,,,,,,,,1,51,0
15838,note_on,10,0,1,,,,,,,,0,72,0
15840,note_on,2,0,1,,,,,,,,0,70,88
15840,note_on,5,0,2,,,,,,,,1,51,88
15846,note_on,0,0,1,,,,,,,,0,69,88
15846,note_on,6,0,1,,,,,,,,0,70,0
15883,note_on,37,0,1,,,,,,,,0,69,0
15883,note_on,43,0,2,,,,,,,,1,51,0
15888,note_on,5,0,1,,,,,,,,0,70,88
15888,note_on,5,0,2,,,,,,,,1,50,88
15931,note_on,43,0,2,,,,,,,,1,50,0
15931,note_on,43,0,1,,,,,,,,0,70,0
15936,note_on,5,0,1,,,,,,,,0,72,88
15936,note_on,5,0,2,,,,,,,,1,51,88
15979,note_on,43,0,2,,,,,,,,1,51,0
15984,note_on,5,0,2,,,,,,,,1,53,88
16000,note_on,64,0,1,,,,,,,,0,72,0
16008,note_on,8,0,1,,,,,,,,0,74,88
16018,note_on,10,0,1,,,,,,,,0,74,0
16020,note_on,2,0,1,,,,,,,,0,75,88
16027,note_on,43,0,2,,,,,,,,1,53,0
16030,note_on,10,0,1,,,,,,,,0,75,0
16032,note_on,5,0,2,,,,,,,,1,46,88
16032,note_on,2,0,1,,,,,,,,0,75,88
16038,note_on,0,0,1,,,,,,,,0,74,88
16038,note_on,6,0,1,,,,,,,,0,75,0
16075,note_on,43,0,2,,,,,,,,1,46,0
16080,note_on,5,0,2,,,,,,,,1,58,88
16123,note_on,43,0,2,,,,,,,,1,58,0
16128,note_on,90,0,1,,,,,,,,0,74,0
16128,note_on,5,0,2,,,,,,,,1,53,88
16171,note_on,43,0,2,,,,,,,,1,53,0
16176,note_on,5,0,2,,,,,,,,1,50,88
16219,note_on,43,0,2,,,,,,,,1,50,0
16224,note_on,5,0,2,,,,,,,,1,46,88
16224,note_on,96,0,1,,,,,,,,0,72,88
16230,note_on,0,0,1,,,,,,,,0,70,88
16230,note_on,6,0,1,,,,,,,,0,72,0
16236,note_on,6,0,1,,,,,,,,0,70,0
16236,note_on,0,0,1,,,,,,,,0,72,88
16242,note_on,0,0,1,,,,,,,,0,70,88
16242,note_on,6,0,1,,,,,,,,0,72,0
16248,note_on,6,0,1,,,,,,,,0,70,0
16248,note_on,0,0,1,,,,,,,,0,72,88
16254,note_on,6,0,1,,,,,,,,0,72,0
16254,note_on,0,0,1,,,,,,,,0,70,88
16260,note_on,0,0,1,,,,,,,,0,72,88
16260,note_on,6,0,1,,,,,,,,0,70,0
16266,note_on,6,0,1,,,,,,,,0,72,0
16266,note_on,0,0,1,,,,,,,,0,70,88
16267,note_on,43,0,2,,,,,,,,1,46,0
16272,note_on,5,0,2,,,,,,,,1,58,88
16272,note_on,0,0,1,,,,,,,,0,72,88
16272,note_on,6,0,1,,,,,,,,0,70,0
16278,note_on,0,0,1,,,,,,,,0,70,88
16278,note_on,6,0,1,,,,,,,,0,72,0
16284,note_on,0,0,1,,,,,,,,0,72,88
16284,note_on,6,0,1,,,,,,,,0,70,0
16290,note_on,6,0,1,,,,,,,,0,72,0
16290,note_on,0,0,1,,,,,,,,0,70,88
16296,note_on,6,0,1,,,,,,,,0,70,0
16296,note_on,0,0,1,,,,,,,,0,72,88
16302,note_on,6,0,1,,,,,,,,0,72,0
16302,note_on,0,0,1,,,,,,,,0,70,88
16308,note_on,0,0,1,,,,,,,,0,72,88
16308,note_on,6,0,1,,,,,,,,0,70,0
16314,note_on,6,0,1,,,,,,,,0,72,0
16314,note_on,0,0,1,,,,,,,,0,70,88
16315,note_on,43,0,2,,,,,,,,1,58,0
16320,note_on,0,0,1,,,,,,,,0,72,88
16320,note_on,5,0,2,,,,,,,,1,62,88
16320,note_on,6,0,1,,,,,,,,0,70,0
16326,note_on,6,0,1,,,,,,,,0,72,0
16326,note_on,0,0,1,,,,,,,,0,70,88
16332,note_on,6,0,1,,,,,,,,0,70,0
16332,note_on,0,0,1,,,,,,,,0,72,88
16338,note_on,6,0,1,,,,,,,,0,72,0
16338,note_on,0,0,1,,,,,,,,0,70,88
16344,note_on,0,0,1,,,,,,,,0,72,88
16344,note_on,6,0,1,,,,,,,,0,70,0
16350,note_on,0,0,1,,,,,,,,0,70,88
16350,note_on,6,0,1,,,,,,,,0,72,0
16356,note_on,0,0,1,,,,,,,,0,72,88
16356,note_on,6,0,1,,,,,,,,0,70,0
16362,note_on,0,0,1,,,,,,,,0,70,88
16362,note_on,6,0,1,,,,,,,,0,72,0
16363,note_on,43,0,2,,,,,,,,1,62,0
16368,note_on,0,0,1,,,,,,,,0,69,88
16368,note_on,6,0,1,,,,,,,,0,70,0
16368,note_on,5,0,2,,,,,,,,1,58,88
16389,note_on,21,0,1,,,,,,,,0,69,0
16392,note_on,3,0,1,,,,,,,,0,70,88
16411,note_on,43,0,2,,,,,,,,1,58,0
16413,note_on,21,0,1,,,,,,,,0,70,0
16416,note_on,3,0,1,,,,,,,,0,74,88
16422,note_on,0,0,1,,,,,,,,0,72,88
16422,note_on,6,0,1,,,,,,,,0,74,0
16428,note_on,0,0,1,,,,,,,,0,74,88
16428,note_on,6,0,1,,,,,,,,0,72,0
16434,note_on,0,0,1,,,,,,,,0,72,88
16434,note_on,6,0,1,,,,,,,,0,74,0
16440,note_on,0,0,1,,,,,,,,0,74,88
16440,note_on,6,0,1,,,,,,,,0,72,0
16446,note_on,0,0,1,,,,,,,,0,72,88
16446,note_on,6,0,1,,,,,,,,0,74,0
16452,note_on,0,0,1,,,,,,,,0,74,88
16452,note_on,6,0,1,,,,,,,,0,72,0
16458,note_on,6,0,1,,,,,,,,0,74,0
16458,note_on,0,0,1,,,,,,,,0,72,88
16464,note_on,0,0,1,,,,,,,,0,74,88
16464,note_on,6,0,1,,,,,,,,0,72,0
16464,note_on,53,0,2,,,,,,,,1,53,88
16470,note_on,0,0,1,,,,,,,,0,72,88
16470,note_on,6,0,1,,,,,,,,0,74,0
16476,note_on,0,0,1,,,,,,,,0,74,88
16476,note_on,6,0,1,,,,,,,,0,72,0
16482,note_on,0,0,1,,,,,,,,0,72,88
16482,note_on,6,0,1,,,,,,,,0,74,0
16488,note_on,0,0,1,,,,,,,,0,74,88
16488,note_on,6,0,1,,,,,,,,0,72,0
16494,note_on,6,0,1,,,,,,,,0,74,0
16494,note_on,0,0,1,,,,,,,,0,72,88
16500,note_on,6,0,1,,,,,,,,0,72,0
16500,note_on,0,0,1,,,,,,,,0,74,88
16506,note_on,0,0,1,,,,,,,,0,72,88
16506,note_on,6,0,1,,,,,,,,0,74,0
16507,note_on,43,0,2,,,,,,,,1,53,0
16512,note_on,6,0,1,,,,,,,,0,72,0
16512,note_on,5,0,2,,,,,,,,1,57,88
16512,note_on,0,0,1,,,,,,,,0,74,88
16518,note_on,6,0,1,,,,,,,,0,74,0
16518,note_on,0,0,1,,,,,,,,0,72,88
16524,note_on,6,0,1,,,,,,,,0,72,0
16524,note_on,0,0,1,,,,,,,,0,74,88
16530,note_on,6,0,1,,,,,,,,0,74,0
16530,note_on,0,0,1,,,,,,,,0,72,88
16536,note_on,0,0,1,,,,,,,,0,74,88
16536,note_on,6,0,1,,,,,,,,0,72,0
16542,note_on,0,0,1,,,,,,,,0,72,88
16542,note_on,6,0,1,,,,,,,,0,74,0
16548,note_on,0,0,1,,,,,,,,0,74,88
16548,note_on,6,0,1,,,,,,,,0,72,0
16554,note_on,6,0,1,,,,,,,,0,74,0
16554,note_on,0,0,1,,,,,,,,0,72,88
16555,note_on,43,0,2,,,,,,,,1,57,0
16560,note_on,0,0,1,,,,,,,,0,70,88
16560,note_on,6,0,1,,,,,,,,0,72,0
16560,note_on,5,0,2,,,,,,,,1,53,88
16581,note_on,21,0,1,,,,,,,,0,70,0
16584,note_on,3,0,1,,,,,,,,0,72,88
16603,note_on,43,0,2,,,,,,,,1,53,0
16605,note_on,21,0,1,,,,,,,,0,72,0
16608,note_on,3,0,1,,,,,,,,0,75,88
16614,note_on,0,0,1,,,,,,,,0,74,88
16614,note_on,6,0,1,,,,,,,,0,75,0
16620,note_on,0,0,1,,,,,,,,0,75,88
16620,note_on,6,0,1,,,,,,,,0,74,0
16626,note_on,0,0,1,,,,,,,,0,74,88
16626,note_on,6,0,1,,,,,,,,0,75,0
16632,note_on,6,0,1,,,,,,,,0,74,0
16632,note_on,0,0,1,,,,,,,,0,75,88
16638,note_on,6,0,1,,,,,,,,0,75,0
16638,note_on,0,0,1,,,,,,,,0,74,88
16644,note_on,0,0,1,,,,,,,,0,75,88
16644,note_on,6,0,1,,,,,,,,0,74,0
16650,note_on,6,0,1,,,,,,,,0,75,0
16650,note_on,0,0,1,,,,,,,,0,74,88
16656,note_on,53,0,2,,,,,,,,1,58,88
16656,note_on,6,0,1,,,,,,,,0,74,0
16656,note_on,0,0,1,,,,,,,,0,75,88
16662,note_on,6,0,1,,,,,,,,0,75,0
16662,note_on,0,0,1,,,,,,,,0,74,88
16668,note_on,6,0,1,,,,,,,,0,74,0
16668,note_on,0,0,1,,,,,,,,0,75,88
16674,note_on,0,0,1,,,,,,,,0,74,88
16674,note_on,6,0,1,,,,,,,,0,75,0
16680,note_on,0,0,1,,,,,,,,0,75,88
16680,note_on,6,0,1,,,,,,,,0,74,0
16686,note_on,6,0,1,,,,,,,,0,75,0
16686,note_on,0,0,1,,,,,,,,0,74,88
16692,note_on,0,0,1,,,,,,,,0,75,88
16692,note_on,6,0,1,,,,,,,,0,74,0
16698,note_on,6,0,1,,,,,,,,0,75,0
16698,note_on,0,0,1,,,,,,,,0,74,88
16699,note_on,43,0,2,,,,,,,,1,58,0
16704,note_on,5,0,2,,,,,,,,1,57,88
16704,note_on,6,0,1,,,,,,,,0,74,0
16704,note_on,0,0,1,,,,,,,,0,75,88
16710,note_on,6,0,1,,,,,,,,0,75,0
16710,note_on,0,0,1,,,,,,,,0,74,88
16716,note_on,6,0,1,,,,,,,,0,74,0
16716,note_on,0,0,1,,,,,,,,0,75,88
16722,note_on,6,0,1,,,,,,,,0,75,0
16722,note_on,0,0,1,,,,,,,,0,74,88
16728,note_on,0,0,1,,,,,,,,0,75,88
16728,note_on,6,0,1,,,,,,,,0,74,0
16734,note_on,0,0,1,,,,,,,,0,74,88
16734,note_on,6,0,1,,,,,,,,0,75,0
16740,note_on,0,0,1,,,,,,,,0,75,88
16740,note_on,6,0,1,,,,,,,,0,74,0
16746,note_on,0,0,1,,,,,,,,0,74,88
16746,note_on,6,0,1,,,,,,,,0,75,0
16747,note_on,43,0,2,,,,,,,,1,57,0
16752,note_on,5,0,2,,,,,,,,1,58,88
16752,note_on,6,0,1,,,,,,,,0,74,0
16752,note_on,0,0,1,,,,,,,,0,72,88
16773,note_on,21,0,1,,,,,,,,0,72,0
16776,note_on,3,0,1,,,,,,,,0,74,88
16795,note_on,43,0,2,,,,,,,,1,58,0
16797,note_on,21,0,1,,,,,,,,0,74,0
16800,note_on,3,0,1,,,,,,,,0,77,88
16800,note_on,5,0,2,,,,,,,,1,55,88
16806,note_on,6,0,1,,,,,,,,0,77,0
16806,note_on,0,0,1,,,,,,,,0,75,88
16812,note_on,6,0,1,,,,,,,,0,75,0
16812,note_on,0,0,1,,,,,,,,0,77,88
16818,note_on,6,0,1,,,,,,,,0,77,0
16818,note_on,0,0,1,,,,,,,,0,75,88
16824,note_on,6,0,1,,,,,,,,0,75,0
16824,note_on,0,0,1,,,,,,,,0,77,88
16830,note_on,0,0,1,,,,,,,,0,75,88
16830,note_on,6,0,1,,,,,,,,0,77,0
16836,note_on,6,0,1,,,,,,,,0,75,0
16836,note_on,0,0,1,,,,,,,,0,77,88
16842,note_on,0,0,1,,,,,,,,0,75,88
16842,note_on,6,0,1,,,,,,,,0,77,0
16843,note_on,43,0,2,,,,,,,,1,55,0
16848,note_on,6,0,1,,,,,,,,0,75,0
16848,note_on,0,0,1,,,,,,,,0,77,88
16848,note_on,5,0,2,,,,,,,,1,58,88
16854,note_on,6,0,1,,,,,,,,0,77,0
16854,note_on,0,0,1,,,,,,,,0,75,88
16860,note_on,6,0,1,,,,,,,,0,75,0
16860,note_on,0,0,1,,,,,,,,0,77,88
16866,note_on,0,0,1,,,,,,,,0,75,88
16866,note_on,6,0,1,,,,,,,,0,77,0
16872,note_on,6,0,1,,,,,,,,0,75,0
16872,note_on,0,0,1,,,,,,,,0,74,88
16882,note_on,10,0,1,,,,,,,,0,74,0
16884,note_on,2,0,1,,,,,,,,0,75,88
16891,note_on,43,0,2,,,,,,,,1,58,0
16894,note_on,10,0,1,,,,,,,,0,75,0
16896,note_on,5,0,2,,,,,,,,1,50,88
16896,note_on,2,0,1,,,,,,,,0,79,88
16902,note_on,6,0,1,,,,,,,,0,79,0
16902,note_on,0,0,1,,,,,,,,0,77,88
16908,note_on,6,0,1,,,,,,,,0,77,0
16908,note_on,0,0,1,,,,,,,,0,79,88
16914,note_on,6,0,1,,,,,,,,0,79,0
16914,note_on,0,0,1,,,,,,,,0,77,88
16920,note_on,6,0,1,,,,,,,,0,77,0
16920,note_on,0,0,1,,,,,,,,0,79,88
16926,note_on,6,0,1,,,,,,,,0,79,0
16926,note_on,0,0,1,,,,,,,,0,77,88
16932,note_on,6,0,1,,,,,,,,0,77,0
16932,note_on,0,0,1,,,,,,,,0,79,88
16938,note_on,6,0,1,,,,,,,,0,79,0
16938,note_on,0,0,1,,,,,,,,0,77,88
16939,note_on,43,0,2,,,,,,,,1,50,0
16944,note_on,6,0,1,,,,,,,,0,77,0
16944,note_on,0,0,1,,,,,,,,0,79,88
16944,note_on,5,0,2,,,,,,,,1,58,88
16950,note_on,6,0,1,,,,,,,,0,79,0
16950,note_on,0,0,1,,,,,,,,0,77,88
16956,note_on,6,0,1,,,,,,,,0,77,0
16956,note_on,0,0,1,,,,,,,,0,79,88
16962,note_on,6,0,1,,,,,,,,0,79,0
16962,note_on,0,0,1,,,,,,,,0,77,88
16968,note_on,6,0,1,,,,,,,,0,77,0
16968,note_on,0,0,1,,,,,,,,0,75,88
16978,note_on,10,0,1,,,,,,,,0,75,0
16980,note_on,2,0,1,,,,,,,,0,77,88
16987,note_on,43,0,2,,,,,,,,1,58,0
16990,note_on,10,0,1,,,,,,,,0,77,0
16992,note_on,2,0,1,,,,,,,,0,79,88
16992,note_on,5,0,2,,,,,,,,1,51,88
17035,note_on,43,0,2,,,,,,,,1,51,0
17040,note_on,5,0,2,,,,,,,,1,51,88
17083,note_on,43,0,2,,,,,,,,1,51,0
17088,note_on,5,0,2,,,,,,,,1,51,88
17131,note_on,43,0,2,,,,,,,,1,51,0
17136,note_on,0,0,1,,,,,,,,0,77,88
17136,note_on,144,0,1,,,,,,,,0,79,0
17136,note_on,5,0,2,,,,,,,,1,51,88
17148,note_on,0,0,1,,,,,,,,0,75,88
17148,note_on,12,0,1,,,,,,,,0,77,0
17160,note_on,12,0,1,,,,,,,,0,75,0
17160,note_on,0,0,1,,,,,,,,0,74,88
17172,note_on,0,0,1,,,,,,,,0,72,88
17172,note_on,12,0,1,,,,,,,,0,74,0
17179,note_on,43,0,2,,,,,,,,1,51,0
17182,note_on,10,0,1,,,,,,,,0,72,0
17184,note_on,5,0,2,,,,,,,,1,51,88
17184,note_on,2,0,1,,,,,,,,0,81,88
17227,note_on,43,0,2,,,,,,,,1,51,0
17232,note_on,5,0,2,,,,,,,,1,48,88
17270,note_on,86,0,1,,,,,,,,0,81,0
17275,note_on,43,0,2,,,,,,,,1,48,0
17280,note_on,10,0,1,,,,,,,,0,84,88
17280,note_on,5,0,2,,,,,,,,1,50,88
17304,note_on,0,0,1,,,,,,,,0,82,88
17304,note_on,24,0,1,,,,,,,,0,84,0
17323,note_on,43,0,2,,,,,,,,1,50,0
17328,note_on,5,0,2,,,,,,,,1,51,88
17328,note_on,0,0,1,,,,,,,,0,81,88
17328,note_on,24,0,1,,,,,,,,0,82,0
17352,note_on,0,0,1,,,,,,,,0,79,88
17352,note_on,24,0,1,,,,,,,,0,81,0
17371,note_on,43,0,2,,,,,,,,1,51,0
17376,note_on,5,0,2,,,,,,,,1,53,88
17376,note_on,24,0,1,,,,,,,,0,79,0
17376,note_on,0,0,1,,,,,,,,0,77,88
17419,note_on,43,0,2,,,,,,,,1,53,0
17424,note_on,5,0,2,,,,,,,,1,53,88
17467,note_on,43,0,2,,,,,,,,1,53,0
17472,note_on,5,0,2,,,,,,,,1,53,88
17515,note_on,43,0,2,,,,,,,,1,53,0
17520,note_on,5,0,2,,,,,,,,1,53,88
17520,note_on,144,0,1,,,,,,,,0,77,0
17520,note_on,0,0,1,,,,,,,,0,77,88
17526,note_on,6,0,1,,,,,,,,0,77,0
17526,note_on,0,0,1,,,,,,,,0,75,88
17532,note_on,0,0,1,,,,,,,,0,77,88
17532,note_on,6,0,1,,,,,,,,0,75,0
17538,note_on,0,0,1,,,,,,,,0,75,88
17538,note_on,6,0,1,,,,,,,,0,77,0
17544,note_on,0,0,1,,,,,,,,0,77,88
17544,note_on,6,0,1,,,,,,,,0,75,0
17550,note_on,0,0,1,,,,,,,,0,75,88
17550,note_on,6,0,1,,,,,,,,0,77,0
17556,note_on,0,0,1,,,,,,,,0,77,88
17556,note_on,6,0,1,,,,,,,,0,75,0
17562,note_on,6,0,1,,,,,,,,0,77,0
17562,note_on,0,0,1,,,,,,,,0,75,88
17563,note_on,43,0,2,,,,,,,,1,53,0
17568,note_on,6,0,1,,,,,,,,0,75,0
17568,note_on,5,0,2,,,,,,,,1,46,88
17568,note_on,0,0,1,,,,,,,,0,74,88
17611,note_on,43,0,2,,,,,,,,1,46,0
17616,note_on,5,0,2,,,,,,,,1,58,88
17654,note_on,86,0,1,,,,,,,,0,74,0
17659,note_on,43,0,2,,,,,,,,1,58,0
17664,note_on,5,0,2,,,,,,,,1,53,88
17707,note_on,43,0,2,,,,,,,,1,53,0
17712,note_on,5,0,2,,,,,,,,1,50,88
17755,note_on,43,0,2,,,,,,,,1,50,0
17760,note_on,106,0,1,,,,,,,,0,77,88
17760,note_on,5,0,2,,,,,,,,1,46,88
17803,note_on,43,0,2,,,,,,,,1,46,0
17808,note_on,5,0,2,,,,,,,,1,58,88
17808,note_on,48,0,1,,,,,,,,0,77,0
17808,note_on,0,0,1,,,,,,,,0,74,88
17851,note_on,43,0,2,,,,,,,,1,58,0
17856,note_on,48,0,1,,,,,,,,0,74,0
17856,note_on,5,0,2,,,,,,,,1,62,88
17899,note_on,43,0,2,,,,,,,,1,62,0
17904,note_on,5,0,2,,,,,,,,1,58,88
17904,note_on,48,0,1,,,,,,,,0,74,88
17947,note_on,43,0,1,,,,,,,,0,74,0
17947,note_on,43,0,2,,,,,,,,1,58,0
17952,note_on,5,0,1,,,,,,,,0,77,88
18000,note_on,48,0,1,,,,,,,,0,77,0
18000,note_on,53,0,2,,,,,,,,1,57,88
18000,note_on,0,0,1,,,,,,,,0,75,88
18043,note_on,43,0,2,,,,,,,,1,57,0
18048,note_on,48,0,1,,,,,,,,0,75,0
18048,note_on,5,0,2,,,,,,,,1,60,88
18091,note_on,43,0,2,,,,,,,,1,60,0
18096,note_on,48,0,1,,,,,,,,0,72,88
18096,note_on,5,0,2,,,,,,,,1,57,88
18139,note_on,43,0,1,,,,,,,,0,72,0
18139,note_on,43,0,2,,,,,,,,1,57,0
18144,note_on,5,0,2,,,,,,,,1,58,88
18144,note_on,5,0,1,,,,,,,,0,74,88
18168,note_on,24,0,1,,,,,,,,0,74,0
18168,note_on,0,0,1,,,,,,,,0,77,88
18187,note_on,43,0,2,,,,,,,,1,58,0
18192,note_on,24,0,1,,,,,,,,0,77,0
18192,note_on,5,0,2,,,,,,,,1,46,88
18192,note_on,0,0,1,,,,,,,,0,82,88
18216,note_on,24,0,1,,,,,,,,0,82,0
18216,note_on,0,0,1,,,,,,,,0,81,88
18235,note_on,43,0,2,,,,,,,,1,46,0
18240,note_on,0,0,1,,,,,,,,0,79,88
18240,note_on,24,0,1,,,,,,,,0,81,0
18240,note_on,5,0,2,,,,,,,,1,50,88
18264,note_on,0,0,1,,,,,,,,0,77,88
18264,note_on,24,0,1,,,,,,,,0,79,0
18283,note_on,43,0,2,,,,,,,,1,50,0
18288,note_on,0,0,1,,,,,,,,0,75,88
18288,note_on,5,0,2,,,,,,,,1,55,88
18288,note_on,24,0,1,,,,,,,,0,77,0
18312,note_on,0,0,1,,,,,,,,0,74,88
18312,note_on,24,0,1,,,,,,,,0,75,0
18331,note_on,43,0,2,,,,,,,,1,55,0
18336,note_on,0,0,1,,,,,,,,0,77,88
18336,note_on,24,0,1,,,,,,,,0,74,0
18336,note_on,5,0,2,,,,,,,,1,53,88
18379,note_on,43,0,2,,,,,,,,1,53,0
18384,note_on,5,0,2,,,,,,,,1,53,88
18408,note_on,72,0,1,,,,,,,,0,77,0
18408,note_on,0,0,1,,,,,,,,0,74,88
18427,note_on,43,0,2,,,,,,,,1,53,0
18432,note_on,5,0,2,,,,,,,,1,41,88
18432,note_on,0,0,1,,,,,,,,0,72,88
18432,note_on,24,0,1,,,,,,,,0,74,0
18456,note_on,0,0,1,,,,,,,,0,74,88
18456,note_on,24,0,1,,,,,,,,0,72,0
18475,note_on,43,0,2,,,,,,,,1,41,0
18480,note_on,24,0,1,,,,,,,,0,74,0
18480,note_on,0,0,1,,,,,,,,0,75,88
18504,note_on,0,0,1,,,,,,,,0,76,88
18504,note_on,24,0,1,,,,,,,,0,75,0
18528,note_on,0,0,1,,,,,,,,0,77,88
18528,note_on,24,0,1,,,,,,,,0,76,0
18576,note_on,48,0,1,,,,,,,,0,77,0
18576,note_on,0,0,1,,,,,,,,0,74,88
18576,note_on,101,0,2,,,,,,,,1,58,88
18619,note_on,43,0,2,,,,,,,,1,58,0
18624,note_on,5,0,2,,,,,,,,1,62,88
18624,note_on,48,0,1,,,,,,,,0,74,0
18648,note_on,24,0,1,,,,,,,,0,74,88
18660,note_on,12,0,1,,,,,,,,0,74,0
18667,note_on,43,0,2,,,,,,,,1,62,0
18672,note_on,5,0,2,,,,,,,,1,58,88
18672,note_on,12,0,1,,,,,,,,0,75,88
18684,note_on,12,0,1,,,,,,,,0,75,0
18684,note_on,0,0,1,,,,,,,,0,74,88
18696,note_on,12,0,1,,,,,,,,0,74,0
18696,note_on,0,0,1,,,,,,,,0,72,88
18708,note_on,12,0,1,,,,,,,,0,72,0
18708,note_on,0,0,1,,,,,,,,0,74,88
18715,note_on,43,0,2,,,,,,,,1,58,0
18718,note_on,10,0,1,,,,,,,,0,74,0
18720,note_on,2,0,1,,,,,,,,0,77,88
18744,note_on,0,0,1,,,,,,,,0,76,88
18744,note_on,24,0,1,,,,,,,,0,77,0
18768,note_on,53,0,2,,,,,,,,1,57,88
18768,note_on,0,0,1,,,,,,,,0,75,88
18768,note_on,24,0,1,,,,,,,,0,76,0
18811,note_on,43,0,2,,,,,,,,1,57,0
18816,note_on,48,0,1,,,,,,,,0,75,0
18816,note_on,5,0,2,,,,,,,,1,60,88
18840,note_on,24,0,1,,,,,,,,0,72,88
18852,note_on,12,0,1,,,,,,,,0,72,0
18859,note_on,43,0,2,,,,,,,,1,60,0
18864,note_on,12,0,1,,,,,,,,0,74,88
18864,note_on,5,0,2,,,,,,,,1,57,88
18876,note_on,0,0,1,,,,,,,,0,72,88
18876,note_on,12,0,1,,,,,,,,0,74,0
18888,note_on,12,0,1,,,,,,,,0,72,0
18888,note_on,0,0,1,,,,,,,,0,71,88
18900,note_on,0,0,1,,,,,,,,0,72,88
18900,note_on,12,0,1,,,,,,,,0,71,0
18907,note_on,43,0,2,,,,,,,,1,57,0
18912,note_on,5,0,2,,,,,,,,1,58,88
18912,note_on,0,0,1,,,,,,,,0,74,88
18912,note_on,12,0,1,,,,,,,,0,72,0
18936,note_on,24,0,1,,,,,,,,0,74,0
18936,note_on,0,0,1,,,,,,,,0,77,88
18955,note_on,43,0,2,,,,,,,,1,58,0
18960,note_on,5,0,2,,,,,,,,1,46,88
18960,note_on,24,0,1,,,,,,,,0,77,0
18960,note_on,0,0,1,,,,,,,,0,82,88
18984,note_on,24,0,1,,,,,,,,0,82,0
18984,note_on,0,0,1,,,,,,,,0,81,88
19003,note_on,43,0,2,,,,,,,,1,46,0
19008,note_on,0,0,1,,,,,,,,0,79,88
19008,note_on,5,0,2,,,,,,,,1,50,88
19008,note_on,24,0,1,,,,,,,,0,81,0
19032,note_on,0,0,1,,,,,,,,0,77,88
19032,note_on,24,0,1,,,,,,,,0,79,0
19051,note_on,43,0,2,,,,,,,,1,50,0
19056,note_on,5,0,2,,,,,,,,1,55,88
19056,note_on,24,0,1,,,,,,,,0,77,0
19056,note_on,0,0,1,,,,,,,,0,75,88
19080,note_on,24,0,1,,,,,,,,0,75,0
19080,note_on,0,0,1,,,,,,,,0,74,88
19099,note_on,43,0,2,,,,,,,,1,55,0
19104,time_signature,4320,1,0,4,4,24,8,,,,,,
19104,set_tempo,0,1,0,,,,,,2142857,,,,
19104,note_on,24,0,1,,,,,,,,0,74,0
19104,note_on,0,0,1,,,,,,,,0,77,88
19104,note_on,5,0,2,,,,,,,,1,53,88
19233,note_on,129,0,1,,,,,,,,0,77,0
19248,set_tempo,144,1,0,,,,,,714286,,,,
19248,note_on,15,0,1,,,,,,,,0,79,88
19260,note_on,12,0,1,,,,,,,,0,79,0
19260,note_on,0,0,1,,,,,,,,0,77,88
19272,note_on,12,0,1,,,,,,,,0,77,0
19272,note_on,0,0,1,,,,,,,,0,75,88
19284,note_on,12,0,1,,,,,,,,0,75,0
19284,note_on,0,0,1,,,,,,,,0,74,88
19296,note_on,12,0,1,,,,,,,,0,74,0
19296,note_on,0,0,1,,,,,,,,0,75,88
19308,note_on,12,0,1,,,,,,,,0,75,0
19308,note_on,0,0,1,,,,,,,,0,77,88
19320,note_on,12,0,1,,,,,,,,0,77,0
19320,note_on,0,0,1,,,,,,,,0,79,88
19332,note_on,12,0,1,,,,,,,,0,79,0
19332,note_on,0,0,1,,,,,,,,0,81,88
19344,note_on,12,0,1,,,,,,,,0,81,0
19344,note_on,0,0,1,,,,,,,,0,82,88
19356,note_on,0,0,1,,,,,,,,0,81,88
19356,note_on,12,0,1,,,,,,,,0,82,0
19368,note_on,12,0,1,,,,,,,,0,81,0
19368,note_on,0,0,1,,,,,,,,0,79,88
19380,note_on,12,0,1,,,,,,,,0,79,0
19380,note_on,0,0,1,,,,,,,,0,77,88
19392,note_on,0,0,1,,,,,,,,0,79,88
19392,note_on,12,0,1,,,,,,,,0,77,0
19404,note_on,12,0,1,,,,,,,,0,79,0
19404,note_on,0,0,1,,,,,,,,0,81,88
19416,note_on,12,0,1,,,,,,,,0,81,0
19416,note_on,0,0,1,,,,,,,,0,82,88
19428,note_on,12,0,1,,,,,,,,0,82,0
19428,note_on,0,0,1,,,,,,,,0,84,88
19440,note_on,12,0,1,,,,,,,,0,84,0
19440,note_on,0,0,1,,,,,,,,0,86,88
19488,note_on,48,0,1,,,,,,,,0,86,0
19488,set_tempo,0,1,0,,,,,,2608696,,,,
19488,time_signature,240,1,0,3,4,24,8,,,,,,
19536,set_tempo,48,1,0,,,,,,1304348,,,,
19560,note_on,72,0,1,,,,,,,,0,74,88
19584,note_on,0,0,1,,,,,,,,0,75,88
19584,note_on,24,0,1,,,,,,,,0,74,0
19608,note_on,24,0,1,,,,,,,,0,75,0
19608,note_on,0,0,1,,,,,,,,0,76,88
19629,note_on,21,0,1,,,,,,,,0,76,0
19632,note_on,3,0,1,,,,,,,,0,79,88
19638,note_on,0,0,1,,,,,,,,0,77,88
19638,note_on,6,0,1,,,,,,,,0,79,0
19690,set_tempo,154,1,0,,,,,,1304348,,,,
19703,note_on,65,0,1,,,,,,,,0,77,0
19704,note_on,1,0,1,,,,,,,,0,75,88
19712,note_on,8,0,1,,,,,,,,0,75,0
19712,note_on,0,0,1,,,,,,,,0,74,88
19720,note_on,8,0,1,,,,,,,,0,74,0
19720,note_on,0,0,1,,,,,,,,0,72,88
19728,note_on,0,0,1,,,,,,,,0,75,88
19728,note_on,8,0,1,,,,,,,,0,72,0
19734,note_on,0,0,1,,,,,,,,0,74,88
19734,note_on,6,0,1,,,,,,,,0,75,0
19766,note_on,662,0,2,,,,,,,,1,53,0
19776,note_on,42,0,1,,,,,,,,0,74,0
19776,note_on,0,0,1,,,,,,,,0,72,88
19776,set_tempo,0,1,0,,,,,,714286,,,,
19776,time_signature,86,1,0,2,4,24,8,,,,,,
19776,note_on,10,0,2,,,,,,,,1,53,88
19819,note_on,43,0,2,,,,,,,,1,53,0
19824,note_on,5,0,2,,,,,,,,1,41,88
19862,note_on,86,0,1,,,,,,,,0,72,0
19867,note_on,43,0,2,,,,,,,,1,41,0
19872,note_on,5,0,2,,,,,,,,1,45,88
19915,note_on,43,0,2,,,,,,,,1,45,0
19920,note_on,5,0,2,,,,,,,,1,48,88
19963,note_on,43,0,2,,,,,,,,1,48,0
19968,note_on,106,0,1,,,,,,,,0,72,88
19968,note_on,5,0,2,,,,,,,,1,53,88
20011,note_on,43,0,2,,,,,,,,1,53,0
20016,note_on,5,0,2,,,,,,,,1,53,88
20054,note_on,86,0,1,,,,,,,,0,72,0
20059,note_on,43,0,2,,,,,,,,1,53,0
20064,note_on,5,0,2,,,,,,,,1,57,88
20064,note_on,10,0,1,,,,,,,,0,65,88
20107,note_on,43,0,2,,,,,,,,1,57,0
20112,note_on,5,0,2,,,,,,,,1,53,88
20150,note_on,86,0,1,,,,,,,,0,65,0
20155,note_on,43,0,2,,,,,,,,1,53,0
20160,note_on,10,0,1,,,,,,,,0,64,88
20160,note_on,5,0,2,,,,,,,,1,55,88
20203,note_on,43,0,2,,,,,,,,1,55,0
20208,note_on,5,0,2,,,,,,,,1,60,88
20251,note_on,43,0,2,,,,,,,,1,60,0
20256,note_on,5,0,2,,,,,,,,1,55,88
20288,note_on,128,0,1,,,,,,,,0,64,0
20292,note_on,4,0,1,,,,,,,,0,65,88
20298,note_on,0,0,1,,,,,,,,0,67,88
20298,note_on,6,0,1,,,,,,,,0,65,0
20299,note_on,43,0,2,,,,,,,,1,55,0
20304,note_on,5,0,2,,,,,,,,1,52,88
20304,note_on,6,0,1,,,,,,,,0,67,0
20304,note_on,0,0,1,,,,,,,,0,69,88
20310,note_on,0,0,1,,,,,,,,0,70,88
20310,note_on,6,0,1,,,,,,,,0,69,0
20316,note_on,0,0,1,,,,,,,,0,72,88
20316,note_on,6,0,1,,,,,,,,0,70,0
20322,note_on,6,0,1,,,,,,,,0,72,0
20322,note_on,0,0,1,,,,,,,,0,74,88
20328,note_on,0,0,1,,,,,,,,0,76,88
20328,note_on,6,0,1,,,,,,,,0,74,0
20334,note_on,0,0,1,,,,,,,,0,77,88
20334,note_on,6,0,1,,,,,,,,0,76,0
20340,note_on,0,0,1,,,,,,,,0,79,88
20340,note_on,6,0,1,,,,,,,,0,77,0
20346,note_on,0,0,1,,,,,,,,0,81,88
20346,note_on,6,0,1,,,,,,,,0,79,0
20347,note_on,43,0,2,,,,,,,,1,52,0
20352,note_on,5,0,2,,,,,,,,1,48,88
20352,note_on,0,0,1,,,,,,,,0,82,88
20352,note_on,6,0,1,,,,,,,,0,81,0
20400,note_on,0,0,1,,,,,,,,0,79,88
20400,note_on,48,0,1,,,,,,,,0,82,0
20448,note_on,0,0,1,,,,,,,,0,76,88
20448,note_on,48,0,1,,,,,,,,0,79,0
20496,note_on,0,0,1,,,,,,,,0,70,88
20496,note_on,48,0,1,,,,,,,,0,76,0
20524,note_on,172,0,2,,,,,,,,1,48,0
20544,note_on,0,0,1,,,,,,,,0,70,88
20544,note_on,48,0,1,,,,,,,,0,70,0
20568,note_on,24,0,1,,,,,,,,0,70,0
20568,note_on,0,0,1,,,,,,,,0,69,88
20592,note_on,0,0,1,,,,,,,,0,74,88
20592,note_on,68,0,2,,,,,,,,1,53,88
20592,note_on,24,0,1,,,,,,,,0,69,0
20616,note_on,0,0,1,,,,,,,,0,72,88
20616,note_on,24,0,1,,,,,,,,0,74,0
20635,note_on,43,0,2,,,,,,,,1,53,0
20640,note_on,5,0,2,,,,,,,,1,57,88
20640,note_on,24,0,1,,,,,,,,0,72,0
20640,note_on,0,0,1,,,,,,,,0,72,88
20664,note_on,0,0,1,,,,,,,,0,74,88
20664,note_on,24,0,1,,,,,,,,0,72,0
20683,note_on,43,0,2,,,,,,,,1,57,0
20688,note_on,5,0,2,,,,,,,,1,53,88
20688,note_on,0,0,1,,,,,,,,0,75,88
20688,note_on,24,0,1,,,,,,,,0,74,0
20712,note_on,0,0,1,,,,,,,,0,76,88
20712,note_on,24,0,1,,,,,,,,0,75,0
20731,note_on,43,0,2,,,,,,,,1,53,0
20736,note_on,5,0,2,,,,,,,,1,50,88
20736,note_on,24,0,1,,,,,,,,0,76,0
20736,note_on,0,0,1,,,,,,,,0,77,88
20779,note_on,43,0,2,,,,,,,,1,50,0
20784,note_on,5,0,2,,,,,,,,1,46,88
20822,note_on,86,0,1,,,,,,,,0,77,0
20827,note_on,43,0,2,,,,,,,,1,46,0
20832,note_on,5,0,2,,,,,,,,1,50,88
20832,note_on,10,0,1,,,,,,,,0,70,88
20875,note_on,43,0,2,,,,,,,,1,50,0
20880,note_on,5,0,2,,,,,,,,1,46,88
20918,note_on,86,0,1,,,,,,,,0,70,0
20923,note_on,43,0,2,,,,,,,,1,46,0
20928,note_on,5,0,2,,,,,,,,1,48,88
20928,note_on,10,0,1,,,,,,,,0,69,88
20971,note_on,43,0,2,,,,,,,,1,48,0
20976,note_on,5,0,2,,,,,,,,1,53,88
21019,note_on,43,0,2,,,,,,,,1,53,0
21024,note_on,5,0,2,,,,,,,,1,48,88
21056,note_on,128,0,1,,,,,,,,0,69,0
21060,note_on,4,0,1,,,,,,,,0,70,88
21066,note_on,0,0,1,,,,,,,,0,72,88
21066,note_on,6,0,1,,,,,,,,0,70,0
21067,note_on,43,0,2,,,,,,,,1,48,0
21072,note_on,5,0,2,,,,,,,,1,45,88
21072,note_on,6,0,1,,,,,,,,0,72,0
21072,note_on,0,0,1,,,,,,,,0,74,88
21078,note_on,6,0,1,,,,,,,,0,74,0
21078,note_on,0,0,1,,,,,,,,0,76,88
21084,note_on,0,0,1,,,,,,,,0,77,88
21084,note_on,6,0,1,,,,,,,,0,76,0
21090,note_on,6,0,1,,,,,,,,0,77,0
21090,note_on,0,0,1,,,,,,,,0,79,88
21096,note_on,6,0,1,,,,,,,,0,79,0
21096,note_on,0,0,1,,,,,,,,0,81,88
21102,note_on,6,0,1,,,,,,,,0,81,0
21102,note_on,0,0,1,,,,,,,,0,82,88
21108,note_on,0,0,1,,,,,,,,0,84,88
21108,note_on,6,0,1,,,,,,,,0,82,0
21114,note_on,6,0,1,,,,,,,,0,84,0
21114,note_on,0,0,1,,,,,,,,0,86,88
21115,note_on,43,0,2,,,,,,,,1,45,0
21120,note_on,0,0,1,,,,,,,,0,84,88
21120,note_on,5,0,2,,,,,,,,1,41,88
21120,note_on,6,0,1,,,,,,,,0,86,0
21168,note_on,0,0,1,,,,,,,,0,81,88
21168,note_on,48,0,1,,,,,,,,0,84,0
21216,note_on,0,0,1,,,,,,,,0,77,88
21216,note_on,48,0,1,,,,,,,,0,81,0
21264,note_on,48,0,1,,,,,,,,0,77,0
21264,note_on,0,0,1,,,,,,,,0,75,88
21292,note_on,172,0,2,,,,,,,,1,41,0
21312,note_on,0,0,1,,,,,,,,0,75,88
21312,note_on,48,0,1,,,,,,,,0,75,0
21336,note_on,24,0,1,,,,,,,,0,75,0
21336,note_on,0,0,1,,,,,,,,0,74,88
21360,note_on,68,0,2,,,,,,,,1,62,88
21360,note_on,0,0,1,,,,,,,,0,79,88
21360,note_on,24,0,1,,,,,,,,0,74,0
21384,note_on,0,0,1,,,,,,,,0,77,88
21384,note_on,24,0,1,,,,,,,,0,79,0
21403,note_on,43,0,2,,,,,,,,1,62,0
21408,note_on,0,0,1,,,,,,,,0,77,88
21408,note_on,5,0,2,,,,,,,,1,58,88
21408,note_on,24,0,1,,,,,,,,0,77,0
21451,note_on,43,0,2,,,,,,,,1,58,0
21456,note_on,5,0,2,,,,,,,,1,53,88
21494,note_on,86,0,1,,,,,,,,0,77,0
21499,note_on,43,0,2,,,,,,,,1,53,0
21504,note_on,10,0,1,,,,,,,,0,77,88
21504,note_on,5,0,2,,,,,,,,1,50,88
21516,note_on,0,0,1,,,,,,,,0,74,88
21516,note_on,12,0,1,,,,,,,,0,77,0
21528,note_on,0,0,1,,,,,,,,0,75,88
21528,note_on,12,0,1,,,,,,,,0,74,0
21540,note_on,12,0,1,,,,,,,,0,75,0
21540,note_on,0,0,1,,,,,,,,0,72,88
21547,note_on,43,0,2,,,,,,,,1,50,0
21552,note_on,12,0,1,,,,,,,,0,72,0
21552,note_on,0,0,1,,,,,,,,0,70,88
21552,note_on,5,0,2,,,,,,,,1,50,88
21595,note_on,43,0,2,,,,,,,,1,50,0
21600,note_on,5,0,2,,,,,,,,1,50,88
21638,note_on,86,0,1,,,,,,,,0,70,0
21643,note_on,43,0,2,,,,,,,,1,50,0
21648,note_on,5,0,2,,,,,,,,1,50,88
21648,note_on,10,0,1,,,,,,,,0,70,88
21691,note_on,43,0,2,,,,,,,,1,50,0
21691,note_on,43,0,1,,,,,,,,0,70,0
21696,note_on,5,0,2,,,,,,,,1,51,88
21696,note_on,5,0,1,,,,,,,,0,70,88
21739,note_on,43,0,2,,,,,,,,1,51,0
21744,note_on,5,0,2,,,,,,,,1,51,88
21768,note_on,72,0,1,,,,,,,,0,70,0
21768,note_on,0,0,1,,,,,,,,0,72,88
21787,note_on,43,0,2,,,,,,,,1,51,0
21792,note_on,24,0,1,,,,,,,,0,72,0
21792,note_on,0,0,1,,,,,,,,0,70,88
21792,note_on,5,0,2,,,,,,,,1,51,88
21835,note_on,43,0,2,,,,,,,,1,51,0
21840,note_on,5,0,2,,,,,,,,1,51,88
21878,note_on,86,0,1,,,,,,,,0,70,0
21883,note_on,43,0,2,,,,,,,,1,51,0
21888,note_on,5,0,2,,,,,,,,1,52,88
21888,note_on,10,0,1,,,,,,,,0,79,88
21900,note_on,0,0,1,,,,,,,,0,76,88
21900,note_on,12,0,1,,,,,,,,0,79,0
21912,note_on,0,0,1,,,,,,,,0,77,88
21912,note_on,12,0,1,,,,,,,,0,76,0
21924,note_on,12,0,1,,,,,,,,0,77,0
21924,note_on,0,0,1,,,,,,,,0,74,88
21931,note_on,43,0,2,,,,,,,,1,52,0
21936,note_on,0,0,1,,,,,,,,0,72,88
21936,note_on,12,0,1,,,,,,,,0,74,0
21936,note_on,5,0,2,,,,,,,,1,52,88
21979,note_on,43,0,2,,,,,,,,1,52,0
21984,note_on,5,0,2,,,,,,,,1,52,88
22022,note_on,86,0,1,,,,,,,,0,72,0
22027,note_on,43,0,2,,,,,,,,1,52,0
22032,note_on,10,0,1,,,,,,,,0,72,88
22032,note_on,5,0,2,,,,,,,,1,52,88
22075,note_on,43,0,1,,,,,,,,0,72,0
22075,note_on,43,0,2,,,,,,,,1,52,0
22080,note_on,5,0,2,,,,,,,,1,53,88
22080,note_on,5,0,1,,,,,,,,0,72,88
22123,note_on,43,0,2,,,,,,,,1,53,0
22128,note_on,5,0,2,,,,,,,,1,53,88
22152,note_on,72,0,1,,,,,,,,0,72,0
22152,note_on,0,0,1,,,,,,,,0,74,88
22171,note_on,43,0,2,,,,,,,,1,53,0
22176,note_on,24,0,1,,,,,,,,0,74,0
22176,note_on,0,0,1,,,,,,,,0,72,88
22176,note_on,5,0,2,,,,,,,,1,53,88
22219,note_on,43,0,2,,,,,,,,1,53,0
22224,note_on,5,0,2,,,,,,,,1,53,88
22262,note_on,86,0,1,,,,,,,,0,72,0
22267,note_on,43,0,2,,,,,,,,1,53,0
22272,note_on,5,0,2,,,,,,,,1,57,88
22315,note_on,43,0,2,,,,,,,,1,57,0
22320,note_on,5,0,2,,,,,,,,1,53,88
22363,note_on,43,0,2,,,,,,,,1,53,0
22368,note_on,5,0,2,,,,,,,,1,48,88
22368,note_on,106,0,1,,,,,,,,0,77,88
22411,note_on,43,0,1,,,,,,,,0,77,0
22411,note_on,43,0,2,,,,,,,,1,48,0
22416,note_on,5,0,2,,,,,,,,1,45,88
22416,note_on,5,0,1,,,,,,,,0,77,88
22459,note_on,43,0,1,,,,,,,,0,77,0
22459,note_on,43,0,2,,,,,,,,1,45,0
22464,note_on,5,0,2,,,,,,,,1,46,88
22464,note_on,5,0,1,,,,,,,,0,77,88
22488,note_on,24,0,1,,,,,,,,0,77,0
22488,note_on,0,0,1,,,,,,,,0,74,88
22507,note_on,43,0,2,,,,,,,,1,46,0
22512,note_on,5,0,2,,,,,,,,1,58,88
22512,note_on,24,0,1,,,,,,,,0,74,0
22512,note_on,0,0,1,,,,,,,,0,70,88
22524,note_on,12,0,1,,,,,,,,0,70,0
22536,note_on,12,0,1,,,,,,,,0,70,88
22548,note_on,12,0,1,,,,,,,,0,70,0
22555,note_on,43,0,2,,,,,,,,1,58,0
22560,note_on,5,0,2,,,,,,,,1,62,88
22584,note_on,36,0,1,,,,,,,,0,70,88
22603,note_on,43,0,2,,,,,,,,1,62,0
22608,note_on,0,0,1,,,,,,,,0,72,88
22608,note_on,24,0,1,,,,,,,,0,70,0
22608,note_on,5,0,2,,,,,,,,1,58,88
22632,note_on,0,0,1,,,,,,,,0,74,88
22632,note_on,24,0,1,,,,,,,,0,72,0
22651,note_on,43,0,2,,,,,,,,1,58,0
22656,note_on,24,0,1,,,,,,,,0,74,0
22656,note_on,0,0,1,,,,,,,,0,75,88
22680,note_on,24,0,1,,,,,,,,0,75,0
22680,note_on,0,0,1,,,,,,,,0,72,88
22704,note_on,24,0,1,,,,,,,,0,72,0
22704,note_on,53,0,2,,,,,,,,1,53,88
22704,note_on,0,0,1,,,,,,,,0,69,88
22716,note_on,12,0,1,,,,,,,,0,69,0
22728,note_on,12,0,1,,,,,,,,0,69,88
22740,note_on,12,0,1,,,,,,,,0,69,0
22747,note_on,43,0,2,,,,,,,,1,53,0
22752,note_on,5,0,2,,,,,,,,1,57,88
22776,note_on,36,0,1,,,,,,,,0,72,88
22795,note_on,43,0,2,,,,,,,,1,57,0
22800,note_on,5,0,2,,,,,,,,1,53,88
22800,note_on,0,0,1,,,,,,,,0,74,88
22800,note_on,24,0,1,,,,,,,,0,72,0
22824,note_on,0,0,1,,,,,,,,0,75,88
22824,note_on,24,0,1,,,,,,,,0,74,0
22843,note_on,43,0,2,,,,,,,,1,53,0
22848,note_on,5,0,2,,,,,,,,1,50,88
22848,note_on,0,0,1,,,,,,,,0,77,88
22848,note_on,24,0,1,,,,,,,,0,75,0
22872,note_on,24,0,1,,,,,,,,0,77,0
22872,note_on,0,0,1,,,,,,,,0,74,88
22891,note_on,43,0,2,,,,,,,,1,50,0
22896,note_on,5,0,2,,,,,,,,1,46,88
22896,note_on,24,0,1,,,,,,,,0,74,0
22896,note_on,0,0,1,,,,,,,,0,82,88
22908,note_on,12,0,1,,,,,,,,0,82,0
22920,note_on,12,0,1,,,,,,,,0,82,88
22932,note_on,12,0,1,,,,,,,,0,82,0
22939,note_on,43,0,2,,,,,,,,1,46,0
22944,note_on,5,0,2,,,,,,,,1,50,88
22968,note_on,36,0,1,,,,,,,,0,70,88
22987,note_on,43,0,2,,,,,,,,1,50,0
22992,note_on,24,0,1,,,,,,,,0,70,0
22992,note_on,5,0,2,,,,,,,,1,46,88
22992,note_on,0,0,1,,,,,,,,0,72,88
23016,note_on,24,0,1,,,,,,,,0,72,0
23016,note_on,0,0,1,,,,,,,,0,74,88
23035,note_on,43,0,2,,,,,,,,1,46,0
23040,note_on,24,0,1,,,,,,,,0,74,0
23040,note_on,0,0,1,,,,,,,,0,75,88
23064,note_on,24,0,1,,,,,,,,0,75,0
23064,note_on,0,0,1,,,,,,,,0,72,88
23088,note_on,53,0,2,,,,,,,,1,53,88
23088,note_on,24,0,1,,,,,,,,0,72,0
23088,note_on,0,0,1,,,,,,,,0,84,88
23100,note_on,12,0,1,,,,,,,,0,84,0
23112,note_on,12,0,1,,,,,,,,0,84,88
23124,note_on,12,0,1,,,,,,,,0,84,0
23131,note_on,43,0,2,,,,,,,,1,53,0
23136,note_on,5,0,2,,,,,,,,1,57,88
23160,note_on,36,0,1,,,,,,,,0,72,88
23179,note_on,43,0,2,,,,,,,,1,57,0
23184,note_on,0,0,1,,,,,,,,0,74,88
23184,note_on,24,0,1,,,,,,,,0,72,0
23184,note_on,5,0,2,,,,,,,,1,53,88
23208,note_on,0,0,1,,,,,,,,0,75,88
23208,note_on,24,0,1,,,,,,,,0,74,0
23227,note_on,43,0,2,,,,,,,,1,53,0
23232,note_on,5,0,2,,,,,,,,1,58,88
23232,note_on,0,0,1,,,,,,,,0,74,88
23232,note_on,24,0,1,,,,,,,,0,75,0
23275,note_on,43,0,2,,,,,,,,1,58,0
23280,note_on,48,0,1,,,,,,,,0,74,0
23280,note_on,5,0,2,,,,,,,,1,50,88
23280,note_on,0,0,1,,,,,,,,0,82,88
23323,note_on,43,0,2,,,,,,,,1,50,0
23328,note_on,5,0,2,,,,,,,,1,50,88
23371,note_on,43,0,2,,,,,,,,1,50,0
23376,note_on,0,0,1,,,,,,,,0,80,88
23376,note_on,96,0,1,,,,,,,,0,82,0
23376,note_on,5,0,2,,,,,,,,1,50,88
23419,note_on,43,0,2,,,,,,,,1,50,0
23424,note_on,48,0,1,,,,,,,,0,80,0
23424,note_on,5,0,2,,,,,,,,1,51,88
23424,note_on,0,0,1,,,,,,,,0,78,88
23467,note_on,43,0,2,,,,,,,,1,51,0
23472,note_on,48,0,1,,,,,,,,0,78,0
23472,note_on,0,0,1,,,,,,,,0,79,88
23472,note_on,5,0,2,,,,,,,,1,51,88
23515,note_on,43,0,2,,,,,,,,1,51,0
23520,note_on,48,0,1,,,,,,,,0,79,0
23520,note_on,5,0,2,,,,,,,,1,51,88
23563,note_on,43,0,2,,,,,,,,1,51,0
23568,note_on,48,0,1,,,,,,,,0,79,88
23568,note_on,5,0,2,,,,,,,,1,51,88
23611,note_on,43,0,2,,,,,,,,1,51,0
23611,note_on,43,0,1,,,,,,,,0,79,0
23616,note_on,5,0,2,,,,,,,,1,50,88
23616,note_on,5,0,1,,,,,,,,0,77,88
23659,note_on,43,0,1,,,,,,,,0,77,0
23664,note_on,5,0,1,,,,,,,,0,79,88
23670,note_on,6,0,1,,,,,,,,0,79,0
23670,note_on,0,0,1,,,,,,,,0,77,88
23676,note_on,0,0,1,,,,,,,,0,76,88
23676,note_on,6,0,1,,,,,,,,0,77,0
23680,note_on,64,0,2,,,,,,,,1,50,0
23682,note_on,6,0,1,,,,,,,,0,76,0
23682,note_on,0,0,1,,,,,,,,0,77,88
23688,note_on,8,0,2,,,,,,,,1,51,88
23688,note_on,6,0,1,,,,,,,,0,77,0
23688,note_on,0,0,1,,,,,,,,0,79,88
23698,note_on,10,0,1,,,,,,,,0,79,0
23700,note_on,2,0,1,,,,,,,,0,75,88
23709,note_on,21,0,2,,,,,,,,1,51,0
23710,note_on,10,0,1,,,,,,,,0,75,0
23712,note_on,3,0,2,,,,,,,,1,53,88
23712,note_on,2,0,1,,,,,,,,0,74,88
23755,note_on,43,0,2,,,,,,,,1,53,0
23755,note_on,43,0,1,,,,,,,,0,74,0
23760,note_on,5,0,2,,,,,,,,1,53,88
23760,note_on,5,0,1,,,,,,,,0,72,88
23803,note_on,43,0,2,,,,,,,,1,53,0
23803,note_on,43,0,1,,,,,,,,0,72,0
23808,note_on,5,0,2,,,,,,,,1,46,88
23808,note_on,5,0,1,,,,,,,,0,70,88
23851,note_on,43,0,2,,,,,,,,1,46,0
23856,note_on,5,0,2,,,,,,,,1,58,88
23899,note_on,43,0,2,,,,,,,,1,58,0
23904,note_on,5,0,2,,,,,,,,1,62,88
23947,note_on,43,0,2,,,,,,,,1,62,0
23952,note_on,5,0,2,,,,,,,,1,58,88
23995,note_on,43,0,2,,,,,,,,1,58,0
24000,note_on,5,0,2,,,,,,,,1,55,88
24043,note_on,43,0,2,,,,,,,,1,55,0
24048,note_on,5,0,2,,,,,,,,1,51,88
24091,note_on,43,0,2,,,,,,,,1,51,0
24096,note_on,5,0,2,,,,,,,,1,55,88
24139,note_on,43,0,2,,,,,,,,1,55,0
24144,note_on,5,0,2,,,,,,,,1,51,88
24172,note_on,364,0,1,,,,,,,,0,70,0
24187,note_on,43,0,2,,,,,,,,1,51,0
24192,note_on,20,0,1,,,,,,,,0,82,88
24192,note_on,5,0,2,,,,,,,,1,50,88
24235,note_on,43,0,2,,,,,,,,1,50,0
24240,note_on,5,0,2,,,,,,,,1,46,88
24283,note_on,43,0,2,,,,,,,,1,46,0
24288,note_on,5,0,2,,,,,,,,1,56,88
24331,note_on,43,0,2,,,,,,,,1,56,0
24336,note_on,5,0,2,,,,,,,,1,53,88
24379,note_on,43,0,2,,,,,,,,1,53,0
24384,note_on,5,0,2,,,,,,,,1,55,88
24427,note_on,43,0,2,,,,,,,,1,55,0
24432,note_on,5,0,2,,,,,,,,1,51,88
24475,note_on,43,0,2,,,,,,,,1,51,0
24480,note_on,5,0,2,,,,,,,,1,55,88
24523,note_on,43,0,2,,,,,,,,1,55,0
24528,note_on,5,0,2,,,,,,,,1,51,88
24571,note_on,43,0,2,,,,,,,,1,51,0
24576,note_on,5,0,2,,,,,,,,1,46,88
24624,note_on,0,0,1,,,,,,,,0,80,88
24624,note_on,432,0,1,,,,,,,,0,82,0
24672,note_on,48,0,1,,,,,,,,0,80,0
24672,note_on,0,0,1,,,,,,,,0,79,88
24720,note_on,0,0,1,,,,,,,,0,78,88
24720,note_on,48,0,1,,,,,,,,0,79,0
24748,note_on,172,0,2,,,,,,,,1,46,0
24768,note_on,0,0,1,,,,,,,,0,79,88
24768,note_on,48,0,1,,,,,,,,0,78,0
24816,note_on,68,0,2,,,,,,,,1,51,88
24828,note_on,0,0,1,,,,,,,,0,81,88
24828,note_on,60,0,1,,,,,,,,0,79,0
24840,note_on,12,0,1,,,,,,,,0,81,0
24840,note_on,0,0,1,,,,,,,,0,78,88
24852,note_on,12,0,1,,,,,,,,0,78,0
24852,note_on,0,0,1,,,,,,,,0,81,88
24859,note_on,43,0,2,,,,,,,,1,51,0
24864,note_on,12,0,1,,,,,,,,0,81,0
24864,note_on,0,0,1,,,,,,,,0,79,88
24864,note_on,5,0,2,,,,,,,,1,51,88
24907,note_on,43,0,2,,,,,,,,1,51,0
24912,note_on,5,0,2,,,,,,,,1,51,88
24924,note_on,0,0,1,,,,,,,,0,81,88
24924,note_on,60,0,1,,,,,,,,0,79,0
24936,note_on,12,0,1,,,,,,,,0,81,0
24936,note_on,0,0,1,,,,,,,,0,78,88
24948,note_on,12,0,1,,,,,,,,0,78,0
24948,note_on,0,0,1,,,,,,,,0,81,88
24955,note_on,43,0,2,,,,,,,,1,51,0
24960,note_on,5,0,2,,,,,,,,1,51,88
24960,note_on,12,0,1,,,,,,,,0,81,0
24960,note_on,0,0,1,,,,,,,,0,79,88
24972,note_on,12,0,1,,,,,,,,0,79,0
24972,note_on,0,0,1,,,,,,,,0,81,88
24984,note_on,12,0,1,,,,,,,,0,81,0
24984,note_on,0,0,1,,,,,,,,0,78,88
24996,note_on,0,0,1,,,,,,,,0,81,88
24996,note_on,12,0,1,,,,,,,,0,78,0
25003,note_on,43,0,2,,,,,,,,1,51,0
25008,note_on,12,0,1,,,,,,,,0,81,0
25008,note_on,5,0,2,,,,,,,,1,51,88
25008,note_on,0,0,1,,,,,,,,0,79,88
25020,note_on,0,0,1,,,,,,,,0,81,88
25020,note_on,12,0,1,,,,,,,,0,79,0
25032,note_on,0,0,1,,,,,,,,0,78,88
25032,note_on,12,0,1,,,,,,,,0,81,0
25044,note_on,0,0,1,,,,,,,,0,81,88
25044,note_on,12,0,1,,,,,,,,0,78,0
25051,note_on,43,0,2,,,,,,,,1,51,0
25056,note_on,5,0,2,,,,,,,,1,51,88
25056,note_on,12,0,1,,,,,,,,0,81,0
25056,note_on,0,0,1,,,,,,,,0,79,88
25068,note_on,0,0,1,,,,,,,,0,81,88
25068,note_on,12,0,1,,,,,,,,0,79,0
25080,note_on,12,0,1,,,,,,,,0,81,0
25080,note_on,0,0,1,,,,,,,,0,78,88
25092,note_on,12,0,1,,,,,,,,0,78,0
25092,note_on,0,0,1,,,,,,,,0,81,88
25099,note_on,43,0,2,,,,,,,,1,51,0
25104,note_on,0,0,1,,,,,,,,0,79,88
25104,note_on,5,0,2,,,,,,,,1,51,88
25104,note_on,12,0,1,,,,,,,,0,81,0
25116,note_on,12,0,1,,,,,,,,0,79,0
25116,note_on,0,0,1,,,,,,,,0,81,88
25128,note_on,0,0,1,,,,,,,,0,78,88
25128,note_on,12,0,1,,,,,,,,0,81,0
25140,note_on,12,0,1,,,,,,,,0,78,0
25140,note_on,0,0,1,,,,,,,,0,81,88
25147,note_on,43,0,2,,,,,,,,1,51,0
25152,note_on,0,0,1,,,,,,,,0,79,88
25152,note_on,5,0,2,,,,,,,,1,51,88
25152,note_on,12,0,1,,,,,,,,0,81,0
25164,note_on,12,0,1,,,,,,,,0,79,0
25164,note_on,0,0,1,,,,,,,,0,81,88
25176,note_on,12,0,1,,,,,,,,0,81,0
25176,note_on,0,0,1,,,,,,,,0,82,88
25188,note_on,12,0,1,,,,,,,,0,82,0
25188,note_on,0,0,1,,,,,,,,0,81,88
25200,note_on,12,0,1,,,,,,,,0,81,0
25200,note_on,0,0,1,,,,,,,,0,79,88
25212,note_on,0,0,1,,,,,,,,0,77,88
25212,note_on,12,0,1,,,,,,,,0,79,0
25224,note_on,12,0,1,,,,,,,,0,77,0
25224,note_on,0,0,1,,,,,,,,0,75,88
25236,note_on,12,0,1,,,,,,,,0,75,0
25236,note_on,0,0,1,,,,,,,,0,74,88
25238,note_on,86,0,2,,,,,,,,1,51,0
25248,note_on,12,0,1,,,,,,,,0,74,0
25248,note_on,0,0,1,,,,,,,,0,72,88
25260,note_on,0,0,1,,,,,,,,0,74,88
25260,note_on,12,0,1,,,,,,,,0,72,0
25272,note_on,12,0,1,,,,,,,,0,74,0
25272,note_on,0,0,1,,,,,,,,0,75,88
25284,note_on,12,0,1,,,,,,,,0,75,0
25284,note_on,0,0,1,,,,,,,,0,74,88
25296,note_on,12,0,1,,,,,,,,0,74,0
25296,note_on,58,0,2,,,,,,,,1,51,88
25296,note_on,0,0,1,,,,,,,,0,72,88
25308,note_on,12,0,1,,,,,,,,0,72,0
25308,note_on,0,0,1,,,,,,,,0,70,88
25320,note_on,12,0,1,,,,,,,,0,70,0
25320,note_on,0,0,1,,,,,,,,0,69,88
25332,note_on,0,0,1,,,,,,,,0,67,88
25332,note_on,12,0,1,,,,,,,,0,69,0
25339,note_on,43,0,2,,,,,,,,1,51,0
25344,note_on,0,0,1,,,,,,,,0,65,88
25344,note_on,5,0,2,,,,,,,,1,53,88
25344,note_on,12,0,1,,,,,,,,0,67,0
25368,note_on,24,0,1,,,,,,,,0,65,0
25368,note_on,0,0,1,,,,,,,,0,67,88
25380,note_on,12,0,1,,,,,,,,0,67,0
25380,note_on,0,0,1,,,,,,,,0,69,88
25392,note_on,12,0,1,,,,,,,,0,69,0
25392,note_on,0,0,1,,,,,,,,0,70,88
25404,note_on,0,0,1,,,,,,,,0,72,88
25404,note_on,12,0,1,,,,,,,,0,70,0
25416,note_on,12,0,1,,,,,,,,0,72,0
25416,note_on,0,0,1,,,,,,,,0,74,88
25428,note_on,0,0,1,,,,,,,,0,76,88
25428,note_on,12,0,1,,,,,,,,0,74,0
25440,note_on,0,0,1,,,,,,,,0,77,88
25440,note_on,12,0,1,,,,,,,,0,76,0
25452,note_on,12,0,1,,,,,,,,0,77,0
25452,note_on,0,0,1,,,,,,,,0,76,88
25464,note_on,12,0,1,,,,,,,,0,76,0
25464,note_on,0,0,1,,,,,,,,0,77,88
25476,note_on,12,0,1,,,,,,,,0,77,0
25476,note_on,0,0,1,,,,,,,,0,76,88
25488,note_on,12,0,1,,,,,,,,0,76,0
25488,note_on,0,0,1,,,,,,,,0,77,88
25500,note_on,12,0,1,,,,,,,,0,77,0
25500,note_on,0,0,1,,,,,,,,0,76,88
25512,note_on,12,0,1,,,,,,,,0,76,0
25512,note_on,0,0,1,,,,,,,,0,77,88
25524,note_on,12,0,1,,,,,,,,0,77,0
25524,note_on,0,0,1,,,,,,,,0,76,88
25536,note_on,12,0,1,,,,,,,,0,76,0
25536,note_on,0,0,1,,,,,,,,0,77,88
25546,note_on,10,0,1,,,,,,,,0,77,0
25548,note_on,2,0,1,,,,,,,,0,70,88
25558,note_on,10,0,1,,,,,,,,0,70,0
25560,note_on,2,0,1,,,,,,,,0,72,88
25570,note_on,10,0,1,,,,,,,,0,72,0
25572,note_on,2,0,1,,,,,,,,0,74,88
25582,note_on,10,0,1,,,,,,,,0,74,0
25584,note_on,2,0,1,,,,,,,,0,75,88
25594,note_on,10,0,1,,,,,,,,0,75,0
25596,note_on,2,0,1,,,,,,,,0,77,88
25606,note_on,10,0,1,,,,,,,,0,77,0
25608,note_on,2,0,1,,,,,,,,0,79,88
25618,note_on,10,0,1,,,,,,,,0,79,0
25620,note_on,2,0,1,,,,,,,,0,81,88
25630,note_on,10,0,1,,,,,,,,0,81,0
25632,note_on,2,0,1,,,,,,,,0,82,88
25642,note_on,10,0,1,,,,,,,,0,82,0
25644,note_on,2,0,1,,,,,,,,0,81,88
25654,note_on,10,0,1,,,,,,,,0,81,0
25656,note_on,2,0,1,,,,,,,,0,82,88
25666,note_on,10,0,1,,,,,,,,0,82,0
25668,note_on,2,0,1,,,,,,,,0,81,88
25678,note_on,10,0,1,,,,,,,,0,81,0
25680,note_on,2,0,1,,,,,,,,0,82,88
25690,note_on,10,0,1,,,,,,,,0,82,0
25692,note_on,2,0,1,,,,,,,,0,81,88
25702,note_on,10,0,1,,,,,,,,0,81,0
25704,note_on,2,0,1,,,,,,,,0,82,88
25714,note_on,10,0,1,,,,,,,,0,82,0
25716,note_on,2,0,1,,,,,,,,0,81,88
25726,note_on,10,0,1,,,,,,,,0,81,0
25728,note_on,2,0,1,,,,,,,,0,82,88
25771,note_on,43,0,1,,,,,,,,0,82,0
25771,note_on,427,0,2,,,,,,,,1,53,0
25776,note_on,5,0,2,,,,,,,,1,53,88
25788,note_on,17,0,1,,,,,,,,0,77,88
25798,note_on,10,0,1,,,,,,,,0,77,0
25800,note_on,2,0,1,,,,,,,,0,79,88
25810,note_on,10,0,1,,,,,,,,0,79,0
25812,note_on,2,0,1,,,,,,,,0,81,88
25819,note_on,43,0,2,,,,,,,,1,53,0
25822,note_on,10,0,1,,,,,,,,0,81,0
25824,note_on,2,0,1,,,,,,,,0,82,88
25867,note_on,43,0,1,,,,,,,,0,82,0
25872,note_on,53,0,2,,,,,,,,1,53,88
25884,note_on,17,0,1,,,,,,,,0,77,88
25894,note_on,10,0,1,,,,,,,,0,77,0
25896,note_on,2,0,1,,,,,,,,0,79,88
25906,note_on,10,0,1,,,,,,,,0,79,0
25908,note_on,2,0,1,,,,,,,,0,81,88
25915,note_on,43,0,2,,,,,,,,1,53,0
25918,note_on,10,0,1,,,,,,,,0,81,0
25920,note_on,2,0,1,,,,,,,,0,82,88
25944,note_on,24,0,1,,,,,,,,0,82,0
25944,note_on,0,0,1,,,,,,,,0,77,88
25968,note_on,53,0,2,,,,,,,,1,58,88
25992,note_on,48,0,1,,,,,,,,0,77,0
25992,note_on,0,0,1,,,,,,,,0,74,88
26011,note_on,43,0,2,,,,,,,,1,58,0
26016,note_on,24,0,1,,,,,,,,0,74,0
26016,note_on,0,0,1,,,,,,,,0,77,88
26016,note_on,5,0,2,,,,,,,,1,62,88
26040,note_on,24,0,1,,,,,,,,0,77,0
26040,note_on,0,0,1,,,,,,,,0,74,88
26059,note_on,43,0,2,,,,,,,,1,62,0
26064,note_on,5,0,2,,,,,,,,1,58,88
26088,note_on,0,0,1,,,,,,,,0,70,88
26088,note_on,48,0,1,,,,,,,,0,74,0
26107,note_on,43,0,2,,,,,,,,1,58,0
26112,note_on,24,0,1,,,,,,,,0,70,0
26112,note_on,0,0,1,,,,,,,,0,74,88
26112,note_on,5,0,2,,,,,,,,1,53,88
26118,note_on,0,0,1,,,,,,,,0,72,88
26118,note_on,6,0,1,,,,,,,,0,74,0
26124,note_on,0,0,1,,,,,,,,0,74,88
26124,note_on,6,0,1,,,,,,,,0,72,0
26130,note_on,0,0,1,,,,,,,,0,72,88
26130,note_on,6,0,1,,,,,,,,0,74,0
26136,note_on,0,0,1,,,,,,,,0,74,88
26136,note_on,6,0,1,,,,,,,,0,72,0
26142,note_on,6,0,1,,,,,,,,0,74,0
26142,note_on,0,0,1,,,,,,,,0,72,88
26148,note_on,6,0,1,,,,,,,,0,72,0
26148,note_on,0,0,1,,,,,,,,0,74,88
26154,note_on,6,0,1,,,,,,,,0,74,0
26154,note_on,0,0,1,,,,,,,,0,72,88
26155,note_on,43,0,2,,,,,,,,1,53,0
26160,note_on,6,0,1,,,,,,,,0,72,0
26160,note_on,0,0,1,,,,,,,,0,74,88
26160,note_on,5,0,2,,,,,,,,1,53,88
26166,note_on,0,0,1,,,,,,,,0,72,88
26166,note_on,6,0,1,,,,,,,,0,74,0
26172,note_on,0,0,1,,,,,,,,0,74,88
26172,note_on,6,0,1,,,,,,,,0,72,0
26178,note_on,0,0,1,,,,,,,,0,72,88
26178,note_on,6,0,1,,,,,,,,0,74,0
26184,note_on,6,0,1,,,,,,,,0,72,0
26184,note_on,0,0,1,,,,,,,,0,74,88
26190,note_on,6,0,1,,,,,,,,0,74,0
26190,note_on,0,0,1,,,,,,,,0,72,88
26196,note_on,6,0,1,,,,,,,,0,72,0
26196,note_on,0,0,1,,,,,,,,0,74,88
26202,note_on,6,0,1,,,,,,,,0,74,0
26202,note_on,0,0,1,,,,,,,,0,72,88
26203,note_on,43,0,2,,,,,,,,1,53,0
26208,note_on,5,0,2,,,,,,,,1,53,88
26208,note_on,6,0,1,,,,,,,,0,72,0
26208,note_on,0,0,1,,,,,,,,0,74,88
26214,note_on,6,0,1,,,,,,,,0,74,0
26214,note_on,0,0,1,,,,,,,,0,72,88
26220,note_on,6,0,1,,,,,,,,0,72,0
26220,note_on,0,0,1,,,,,,,,0,74,88
26226,note_on,6,0,1,,,,,,,,0,74,0
26226,note_on,0,0,1,,,,,,,,0,72,88
26232,note_on,6,0,1,,,,,,,,0,72,0
26232,note_on,0,0,1,,,,,,,,0,74,88
26238,note_on,6,0,1,,,,,,,,0,74,0
26238,note_on,0,0,1,,,,,,,,0,72,88
26244,note_on,6,0,1,,,,,,,,0,72,0
26244,note_on,0,0,1,,,,,,,,0,74,88
26250,note_on,0,0,1,,,,,,,,0,72,88
26250,note_on,6,0,1,,,,,,,,0,74,0
26251,note_on,43,0,2,,,,,,,,1,53,0
26256,note_on,0,0,1,,,,,,,,0,74,88
26256,note_on,6,0,1,,,,,,,,0,72,0
26256,note_on,5,0,2,,,,,,,,1,53,88
26262,note_on,0,0,1,,,,,,,,0,72,88
26262,note_on,6,0,1,,,,,,,,0,74,0
26265,end_of_track,0,1,0,,,,,,,,,,
26265,set_tempo,6489,1,0,,,,,,1304348,,,,
26268,note_on,6,0,1,,,,,,,,0,72,0
26268,note_on,0,0,1,,,,,,,,0,74,88
26274,note_on,6,0,1,,,,,,,,0,74,0
26274,note_on,0,0,1,,,,,,,,0,72,88
26280,note_on,6,0,1,,,,,,,,0,72,0
26280,note_on,0,0,1,,,,,,,,0,70,88
26290,note_on,10,0,1,,,,,,,,0,70,0
26292,note_on,2,0,1,,,,,,,,0,72,88
26299,note_on,43,0,2,,,,,,,,1,53,0
26302,note_on,10,0,1,,,,,,,,0,72,0
26304,note_on,2,0,1,,,,,,,,0,70,88
26304,note_on,5,0,2,,,,,,,,1,46,88
26390,end_of_track,0,1,2,,,,,,,,,,
26390,note_on,86,0,2,,,,,,,,1,46,0
26390,end_of_track,0,1,1,,,,,,,,,,
26390,note_on,86,0,1,,,,,,,,0,70,0
