tick,type,time,meta,track,numerator,denominator,clocks_per_click,notated_32nd_notes_per_beat,key,tempo,control,value,channel,program,pitch,note,velocity
0,track_name,0,1,0,,,,,,,,,,,,,
0,control_change,0,0,3,,,,,,,64,0,3,,,,
0,control_change,0,0,3,,,,,,,64,0,3,,,,
0,program_change,0,0,3,,,,,,,,,3,0,,,
0,control_change,0,0,3,,,,,,,32,0,3,,,,
0,control_change,0,0,3,,,,,,,0,0,3,,,,
0,track_name,0,1,3,,,,,,,,,,,,,
0,control_change,0,0,2,,,,,,,10,73,2,,,,
0,control_change,0,0,2,,,,,,,91,100,2,,,,
0,control_change,0,0,2,,,,,,,93,28,2,,,,
0,pitchwheel,0,0,2,,,,,,,,,2,,0,,
0,control_change,0,0,2,,,,,,,1,0,2,,,,
0,control_change,0,0,2,,,,,,,7,122,2,,,,
0,control_change,0,0,3,,,,,,,7,112,3,,,,
0,control_change,0,0,2,,,,,,,64,0,2,,,,
0,program_change,0,0,2,,,,,,,,,2,0,,,
0,control_change,0,0,2,,,,,,,0,0,2,,,,
0,track_name,0,1,2,,,,,,,,,,,,,
0,pitchwheel,0,0,1,,,,,,,,,1,,0,,
0,program_change,0,0,1,,,,,,,,,1,0,,,
0,control_change,0,0,1,,,,,,,7,127,1,,,,
0,control_change,0,0,1,,,,,,,1,0,1,,,,
0,control_change,0,0,1,,,,,,,93,28,1,,,,
0,control_change,0,0,1,,,,,,,91,100,1,,,,
0,control_change,0,0,1,,,,,,,10,73,1,,,,
0,control_change,0,0,1,,,,,,,64,0,1,,,,
0,control_change,0,0,1,,,,,,,32,0,1,,,,
0,control_change,0,0,2,,,,,,,64,0,2,,,,
0,control_change,0,0,1,,,,,,,0,0,1,,,,
0,control_change,0,0,3,,,,,,,1,0,3,,,,
0,control_change,0,0,3,,,,,,,93,28,3,,,,
0,control_change,0,0,5,,,,,,,10,55,5,,,,
0,control_change,0,0,5,,,,,,,91,100,5,,,,
0,control_change,0,0,5,,,,,,,93,28,5,,,,
0,pitchwheel,0,0,5,,,,,,,,,5,,0,,
0,control_change,0,0,5,,,,,,,1,0,5,,,,
0,control_change,0,0,5,,,,,,,7,125,5,,,,
0,control_change,0,0,5,,,,,,,64,0,5,,,,
0,control_change,0,0,5,,,,,,,64,0,5,,,,
0,program_change,0,0,5,,,,,,,,,5,0,,,
0,control_change,0,0,5,,,,,,,32,0,5,,,,
0,control_change,0,0,5,,,,,,,0,0,5,,,,
0,track_name,0,1,5,,,,,,,,,,,,,
0,pitchwheel,0,0,3,,,,,,,,,3,,0,,
0,control_change,0,0,4,,,,,,,7,120,4,,,,
0,pitchwheel,0,0,4,,,,,,,,,4,,0,,
0,control_change,0,0,4,,,,,,,93,28,4,,,,
0,control_change,0,0,4,,,,,,,91,100,4,,,,
0,control_change,0,0,4,,,,,,,10,55,4,,,,
0,control_change,0,0,4,,,,,,,64,0,4,,,,
0,control_change,0,0,4,,,,,,,64,0,4,,,,
0,program_change,0,0,4,,,,,,,,,4,0,,,
0,control_change,0,0,4,,,,,,,32,0,4,,,,
0,control_change,0,0,4,,,,,,,0,0,4,,,,
0,track_name,0,1,4,,,,,,,,,,,,,
0,control_change,0,0,3,,,,,,,10,64,3,,,,
0,control_change,0,0,3,,,,,,,91,100,3,,,,
0,control_change,0,0,4,,,,,,,1,0,4,,,,
0,track_name,0,1,1,,,,,,,,,,,,,
0,control_change,0,0,2,,,,,,,32,0,2,,,,
0,set_tempo,0,1,0,,,,,,416666,,,,,,,
0,time_signature,0,1,0,3,4,24,8,,,,,,,,,
0,key_signature,0,1,0,,,,,C,,,,,,,,
0,marker,0,1,0,,,,,,,,,,,,,
960,note_on,960,0,4,,,,,,,,,4,,,50,1
960,note_on,960,0,2,,,,,,,,,2,,,53,1
1440,note_on,0,0,3,,,,,,,,,3,,,66,57
1440,control_change,1440,0,3,,,,,,,64,0,3,,,,
1440,control_change,1440,0,1,,,,,,,64,0,1,,,,
1440,note_on,0,0,1,,,,,,,,,1,,,81,57
1440,note_on,0,0,5,,,,,,,,,5,,,62,57
1440,note_off,0,0,2,,,,,,,,,2,,,53,0
1440,control_change,1440,0,5,,,,,,,64,0,5,,,,
1440,note_off,0,0,4,,,,,,,,,4,,,50,0
1440,marker,0,1,0,,,,,,,,,,,,,
1440,control_change,480,0,2,,,,,,,64,0,2,,,,
1440,control_change,480,0,4,,,,,,,64,0,4,,,,
1440,set_tempo,1440,1,0,,,,,,504201,,,,,,,
1680,note_off,240,0,3,,,,,,,,,3,,,66,0
1680,note_on,0,0,3,,,,,,,,,3,,,69,57
1920,note_on,0,0,3,,,,,,,,,3,,,66,57
1920,note_off,240,0,3,,,,,,,,,3,,,69,0
2160,note_on,0,0,3,,,,,,,,,3,,,69,56
2160,note_off,240,0,3,,,,,,,,,3,,,66,0
2400,note_on,0,0,3,,,,,,,,,3,,,66,56
2400,note_off,960,0,1,,,,,,,,,1,,,81,0
2400,note_on,0,0,1,,,,,,,,,1,,,86,58
2400,note_off,240,0,3,,,,,,,,,3,,,69,0
2640,note_off,240,0,3,,,,,,,,,3,,,66,0
2640,note_on,0,0,3,,,,,,,,,3,,,69,56
2640,note_on,0,0,1,,,,,,,,,1,,,81,57
2640,note_off,240,0,1,,,,,,,,,1,,,86,0
2832,note_off,192,0,1,,,,,,,,,1,,,81,0
2832,note_off,192,0,3,,,,,,,,,3,,,69,0
2850,note_off,1410,0,5,,,,,,,,,5,,,62,0
2880,note_on,48,0,1,,,,,,,,,1,,,78,55
2880,note_on,48,0,3,,,,,,,,,3,,,66,56
2880,note_on,30,0,5,,,,,,,,,5,,,62,56
3120,note_on,0,0,3,,,,,,,,,3,,,69,55
3120,note_off,240,0,3,,,,,,,,,3,,,66,0
3360,note_on,0,0,3,,,,,,,,,3,,,66,55
3360,note_off,240,0,3,,,,,,,,,3,,,69,0
3600,note_off,240,0,3,,,,,,,,,3,,,66,0
3600,note_on,0,0,3,,,,,,,,,3,,,69,55
3840,note_on,0,0,1,,,,,,,,,1,,,81,57
3840,note_off,240,0,3,,,,,,,,,3,,,69,0
3840,note_on,0,0,3,,,,,,,,,3,,,66,54
3840,note_off,960,0,1,,,,,,,,,1,,,78,0
4080,note_off,240,0,3,,,,,,,,,3,,,66,0
4080,note_off,240,0,1,,,,,,,,,1,,,81,0
4080,note_on,0,0,1,,,,,,,,,1,,,78,55
4080,note_on,0,0,3,,,,,,,,,3,,,69,54
4272,note_off,192,0,3,,,,,,,,,3,,,69,0
4272,note_off,192,0,1,,,,,,,,,1,,,78,0
4290,note_off,1410,0,5,,,,,,,,,5,,,62,0
4320,note_on,48,0,1,,,,,,,,,1,,,74,53
4320,note_on,48,0,3,,,,,,,,,3,,,66,54
4320,note_on,30,0,5,,,,,,,,,5,,,57,54
4560,note_on,0,0,3,,,,,,,,,3,,,69,54
4560,note_off,240,0,3,,,,,,,,,3,,,66,0
4800,note_on,0,0,1,,,,,,,,,1,,,74,52
4800,note_off,480,0,1,,,,,,,,,1,,,74,0
4800,note_on,0,0,3,,,,,,,,,3,,,66,53
4800,note_off,240,0,3,,,,,,,,,3,,,69,0
5040,note_on,0,0,3,,,,,,,,,3,,,69,53
5040,note_off,240,0,3,,,,,,,,,3,,,66,0
5280,note_off,480,0,1,,,,,,,,,1,,,74,0
5280,note_on,0,0,5,,,,,,,,,5,,,61,53
5280,note_on,0,0,1,,,,,,,,,1,,,76,50
5280,note_off,960,0,5,,,,,,,,,5,,,57,0
5280,note_on,0,0,3,,,,,,,,,3,,,67,53
5280,note_off,240,0,3,,,,,,,,,3,,,69,0
5360,note_on,0,0,1,,,,,,,,,1,,,78,50
5360,note_off,80,0,1,,,,,,,,,1,,,76,0
5440,note_on,0,0,1,,,,,,,,,1,,,76,51
5440,note_off,80,0,1,,,,,,,,,1,,,78,0
5520,note_on,0,0,1,,,,,,,,,1,,,74,51
5520,note_off,80,0,1,,,,,,,,,1,,,76,0
5520,note_off,240,0,3,,,,,,,,,3,,,67,0
5520,note_on,0,0,3,,,,,,,,,3,,,69,52
5640,set_tempo,4200,1,0,,,,,,508474,,,,,,,
5640,note_off,120,0,1,,,,,,,,,1,,,74,0
5640,note_on,0,0,1,,,,,,,,,1,,,76,52
5712,note_off,192,0,3,,,,,,,,,3,,,69,0
5737,note_off,457,0,5,,,,,,,,,5,,,61,0
5760,note_on,48,0,3,,,,,,,,,3,,,66,52
5760,note_off,120,0,1,,,,,,,,,1,,,76,0
5760,note_on,0,0,1,,,,,,,,,1,,,78,55
5760,note_on,23,0,5,,,,,,,,,5,,,62,52
6120,note_off,360,0,3,,,,,,,,,3,,,66,0
6120,note_off,360,0,5,,,,,,,,,5,,,62,0
6240,note_off,480,0,1,,,,,,,,,1,,,78,0
6240,note_on,0,0,1,,,,,,,,,1,,,74,51
6720,note_on,0,0,1,,,,,,,,,1,,,69,48
6720,note_off,480,0,1,,,,,,,,,1,,,74,0
7080,set_tempo,1440,1,0,,,,,,517241,,,,,,,
7080,note_off,360,0,1,,,,,,,,,1,,,69,0
7200,note_on,1080,0,5,,,,,,,,,5,,,62,50
7200,set_tempo,120,1,0,,,,,,504201,,,,,,,
7200,note_on,1080,0,3,,,,,,,,,3,,,66,50
7200,note_on,120,0,1,,,,,,,,,1,,,81,50
7440,note_on,0,0,3,,,,,,,,,3,,,69,50
7440,note_off,240,0,3,,,,,,,,,3,,,66,0
7680,note_on,0,0,3,,,,,,,,,3,,,66,50
7680,note_off,240,0,3,,,,,,,,,3,,,69,0
7920,note_off,240,0,3,,,,,,,,,3,,,66,0
7920,note_on,0,0,3,,,,,,,,,3,,,69,49
8160,note_off,960,0,1,,,,,,,,,1,,,81,0
8160,note_off,240,0,3,,,,,,,,,3,,,69,0
8160,note_on,0,0,3,,,,,,,,,3,,,66,49
8160,note_on,0,0,1,,,,,,,,,1,,,86,51
8400,note_off,240,0,3,,,,,,,,,3,,,66,0
8400,note_on,0,0,3,,,,,,,,,3,,,69,49
8520,note_off,360,0,1,,,,,,,,,1,,,86,0
8520,note_on,0,0,1,,,,,,,,,1,,,81,48
8592,note_off,192,0,3,,,,,,,,,3,,,69,0
8610,note_off,1410,0,5,,,,,,,,,5,,,62,0
8616,note_off,96,0,1,,,,,,,,,1,,,81,0
8640,note_on,24,0,1,,,,,,,,,1,,,78,47
8640,note_on,48,0,3,,,,,,,,,3,,,66,48
8640,note_on,30,0,5,,,,,,,,,5,,,62,48
8880,note_on,0,0,3,,,,,,,,,3,,,69,48
8880,note_off,240,0,3,,,,,,,,,3,,,66,0
9120,note_on,0,0,3,,,,,,,,,3,,,66,48
9120,note_off,240,0,3,,,,,,,,,3,,,69,0
9360,note_off,240,0,3,,,,,,,,,3,,,66,0
9360,note_on,0,0,3,,,,,,,,,3,,,69,48
9600,note_off,960,0,1,,,,,,,,,1,,,78,0
9600,note_on,0,0,1,,,,,,,,,1,,,81,49
9600,note_on,0,0,3,,,,,,,,,3,,,66,47
9600,note_off,240,0,3,,,,,,,,,3,,,69,0
9840,note_off,240,0,3,,,,,,,,,3,,,66,0
9840,note_on,0,0,3,,,,,,,,,3,,,69,47
9960,note_on,0,0,1,,,,,,,,,1,,,78,47
9960,note_off,360,0,1,,,,,,,,,1,,,81,0
10032,note_off,192,0,3,,,,,,,,,3,,,69,0
10050,note_off,1410,0,5,,,,,,,,,5,,,62,0
10056,note_off,96,0,1,,,,,,,,,1,,,78,0
10080,note_on,48,0,3,,,,,,,,,3,,,66,47
10080,note_on,30,0,5,,,,,,,,,5,,,57,47
10080,note_on,24,0,1,,,,,,,,,1,,,74,47
10320,note_off,240,0,3,,,,,,,,,3,,,66,0
10320,note_on,0,0,3,,,,,,,,,3,,,69,46
10560,note_on,0,0,1,,,,,,,,,1,,,74,46
10560,note_off,240,0,3,,,,,,,,,3,,,69,0
10560,note_off,480,0,1,,,,,,,,,1,,,74,0
10560,note_on,0,0,3,,,,,,,,,3,,,66,46
10800,note_on,0,0,3,,,,,,,,,3,,,69,46
10800,note_off,240,0,3,,,,,,,,,3,,,66,0
11040,note_off,960,0,5,,,,,,,,,5,,,57,0
11040,note_on,0,0,5,,,,,,,,,5,,,61,45
11040,note_on,0,0,1,,,,,,,,,1,,,76,47
11040,note_off,480,0,1,,,,,,,,,1,,,74,0
11040,note_off,240,0,3,,,,,,,,,3,,,69,0
11040,note_on,0,0,3,,,,,,,,,3,,,67,45
11120,note_off,80,0,1,,,,,,,,,1,,,76,0
11120,note_on,0,0,1,,,,,,,,,1,,,78,47
11200,note_on,0,0,1,,,,,,,,,1,,,76,46
11200,note_off,80,0,1,,,,,,,,,1,,,78,0
11280,note_off,240,0,3,,,,,,,,,3,,,67,0
11280,note_on,0,0,3,,,,,,,,,3,,,69,45
11400,note_off,200,0,1,,,,,,,,,1,,,76,0
11400,note_on,0,0,1,,,,,,,,,1,,,78,45
11400,set_tempo,4200,1,0,,,,,,508474,,,,,,,
11472,note_off,192,0,3,,,,,,,,,3,,,69,0
11497,note_off,457,0,5,,,,,,,,,5,,,61,0
11520,note_on,48,0,3,,,,,,,,,3,,,66,45
11520,note_on,23,0,5,,,,,,,,,5,,,62,45
11520,note_off,120,0,1,,,,,,,,,1,,,78,0
11520,note_on,0,0,1,,,,,,,,,1,,,74,44
11880,note_off,360,0,1,,,,,,,,,1,,,74,0
11880,note_off,360,0,3,,,,,,,,,3,,,66,0
11880,note_off,360,0,5,,,,,,,,,5,,,62,0
12000,note_on,120,0,5,,,,,,,,,5,,,57,42
12360,note_off,360,0,5,,,,,,,,,5,,,57,0
12480,note_on,120,0,5,,,,,,,,,5,,,50,39
12720,set_tempo,1320,1,0,,,,,,526315,,,,,,,
12840,note_off,360,0,5,,,,,,,,,5,,,50,0
12960,note_on,0,0,3,,,,,,,,,3,,,66,57
12960,control_change,1080,0,3,,,,,,,64,0,3,,,,
12960,control_change,11520,0,2,,,,,,,64,0,2,,,,
12960,control_change,120,0,5,,,,,,,64,0,5,,,,
12960,note_on,0,0,5,,,,,,,,,5,,,62,57
12960,control_change,1080,0,1,,,,,,,64,0,1,,,,
12960,note_on,0,0,1,,,,,,,,,1,,,81,57
12960,marker,0,1,0,,,,,,,,,,,,,
12960,control_change,11520,0,4,,,,,,,64,0,4,,,,
12960,set_tempo,240,1,0,,,,,,504201,,,,,,,
13200,note_off,240,0,3,,,,,,,,,3,,,66,0
13200,note_on,0,0,3,,,,,,,,,3,,,69,57
13440,note_off,240,0,3,,,,,,,,,3,,,69,0
13440,note_on,0,0,3,,,,,,,,,3,,,66,57
13680,note_off,240,0,3,,,,,,,,,3,,,66,0
13680,note_on,0,0,3,,,,,,,,,3,,,69,56
13920,note_on,0,0,3,,,,,,,,,3,,,66,56
13920,note_off,240,0,3,,,,,,,,,3,,,69,0
13920,note_off,960,0,1,,,,,,,,,1,,,81,0
13920,note_on,0,0,1,,,,,,,,,1,,,86,58
14160,note_off,240,0,1,,,,,,,,,1,,,86,0
14160,note_off,240,0,3,,,,,,,,,3,,,66,0
14160,note_on,0,0,3,,,,,,,,,3,,,69,56
14160,note_on,0,0,1,,,,,,,,,1,,,81,57
14352,note_off,192,0,1,,,,,,,,,1,,,81,0
14352,note_off,192,0,3,,,,,,,,,3,,,69,0
14370,note_off,1410,0,5,,,,,,,,,5,,,62,0
14400,note_on,48,0,3,,,,,,,,,3,,,66,56
14400,note_on,30,0,5,,,,,,,,,5,,,62,56
14400,note_on,48,0,1,,,,,,,,,1,,,78,55
14640,note_on,0,0,3,,,,,,,,,3,,,69,55
14640,note_off,240,0,3,,,,,,,,,3,,,66,0
14880,note_off,240,0,3,,,,,,,,,3,,,69,0
14880,note_on,0,0,3,,,,,,,,,3,,,66,55
15120,note_off,240,0,3,,,,,,,,,3,,,66,0
15120,note_on,0,0,3,,,,,,,,,3,,,69,55
15360,note_off,240,0,3,,,,,,,,,3,,,69,0
15360,note_on,0,0,3,,,,,,,,,3,,,66,54
15360,note_off,960,0,1,,,,,,,,,1,,,78,0
15360,note_on,0,0,1,,,,,,,,,1,,,81,57
15600,note_off,240,0,1,,,,,,,,,1,,,81,0
15600,note_on,0,0,1,,,,,,,,,1,,,78,55
15600,note_off,240,0,3,,,,,,,,,3,,,66,0
15600,note_on,0,0,3,,,,,,,,,3,,,69,54
15792,note_off,192,0,1,,,,,,,,,1,,,78,0
15792,note_off,192,0,3,,,,,,,,,3,,,69,0
15810,note_off,1410,0,5,,,,,,,,,5,,,62,0
15840,note_on,48,0,3,,,,,,,,,3,,,66,54
15840,note_on,48,0,1,,,,,,,,,1,,,74,53
15840,note_on,30,0,5,,,,,,,,,5,,,57,54
16080,note_on,0,0,3,,,,,,,,,3,,,69,54
16080,note_off,240,0,3,,,,,,,,,3,,,66,0
16320,note_off,240,0,3,,,,,,,,,3,,,69,0
16320,note_on,0,0,1,,,,,,,,,1,,,74,52
16320,note_off,480,0,1,,,,,,,,,1,,,74,0
16320,note_on,0,0,3,,,,,,,,,3,,,66,53
16560,note_on,0,0,3,,,,,,,,,3,,,69,53
16560,note_off,240,0,3,,,,,,,,,3,,,66,0
16800,note_off,480,0,1,,,,,,,,,1,,,74,0
16800,note_off,240,0,3,,,,,,,,,3,,,69,0
16800,note_on,0,0,3,,,,,,,,,3,,,67,53
16800,note_on,0,0,1,,,,,,,,,1,,,76,50
16800,note_on,0,0,5,,,,,,,,,5,,,61,53
16800,note_off,960,0,5,,,,,,,,,5,,,57,0
16880,note_off,80,0,1,,,,,,,,,1,,,76,0
16880,note_on,0,0,1,,,,,,,,,1,,,78,50
16960,note_on,0,0,1,,,,,,,,,1,,,76,51
16960,note_off,80,0,1,,,,,,,,,1,,,78,0
17040,note_off,240,0,3,,,,,,,,,3,,,67,0
17040,note_on,0,0,3,,,,,,,,,3,,,69,52
17040,note_off,80,0,1,,,,,,,,,1,,,76,0
17040,note_on,0,0,1,,,,,,,,,1,,,74,51
17160,note_off,120,0,1,,,,,,,,,1,,,74,0
17160,set_tempo,4200,1,0,,,,,,508474,,,,,,,
17160,note_on,0,0,1,,,,,,,,,1,,,76,52
17232,note_off,192,0,3,,,,,,,,,3,,,69,0
17257,note_off,457,0,5,,,,,,,,,5,,,61,0
17280,note_off,120,0,1,,,,,,,,,1,,,76,0
17280,note_on,23,0,5,,,,,,,,,5,,,62,52
17280,note_on,48,0,3,,,,,,,,,3,,,66,52
17280,note_on,0,0,1,,,,,,,,,1,,,78,55
17640,note_off,360,0,5,,,,,,,,,5,,,62,0
17640,note_off,360,0,3,,,,,,,,,3,,,66,0
17760,note_off,480,0,1,,,,,,,,,1,,,78,0
17760,note_on,0,0,1,,,,,,,,,1,,,74,51
18240,note_on,0,0,1,,,,,,,,,1,,,69,48
18240,note_off,480,0,1,,,,,,,,,1,,,74,0
18600,note_off,360,0,1,,,,,,,,,1,,,69,0
18600,set_tempo,1440,1,0,,,,,,517241,,,,,,,
18720,note_on,1080,0,3,,,,,,,,,3,,,66,50
18720,set_tempo,120,1,0,,,,,,504201,,,,,,,
18720,note_on,1080,0,5,,,,,,,,,5,,,62,50
18720,note_on,120,0,1,,,,,,,,,1,,,81,50
18960,note_off,240,0,3,,,,,,,,,3,,,66,0
18960,note_on,0,0,3,,,,,,,,,3,,,69,50
19200,note_off,240,0,3,,,,,,,,,3,,,69,0
19200,note_on,0,0,3,,,,,,,,,3,,,66,50
19440,note_on,0,0,3,,,,,,,,,3,,,69,49
19440,note_off,240,0,3,,,,,,,,,3,,,66,0
19680,note_off,240,0,3,,,,,,,,,3,,,69,0
19680,note_on,0,0,3,,,,,,,,,3,,,66,49
19680,note_on,0,0,1,,,,,,,,,1,,,86,51
19680,note_off,960,0,1,,,,,,,,,1,,,81,0
19920,note_on,0,0,3,,,,,,,,,3,,,69,49
19920,note_off,240,0,3,,,,,,,,,3,,,66,0
20040,note_on,0,0,1,,,,,,,,,1,,,81,48
20040,note_off,360,0,1,,,,,,,,,1,,,86,0
20112,note_off,192,0,3,,,,,,,,,3,,,69,0
20130,note_off,1410,0,5,,,,,,,,,5,,,62,0
20136,note_off,96,0,1,,,,,,,,,1,,,81,0
20160,note_on,48,0,3,,,,,,,,,3,,,66,48
20160,note_on,24,0,1,,,,,,,,,1,,,78,47
20160,note_on,30,0,5,,,,,,,,,5,,,62,48
20400,note_on,0,0,3,,,,,,,,,3,,,69,48
20400,note_off,240,0,3,,,,,,,,,3,,,66,0
20640,note_on,0,0,3,,,,,,,,,3,,,66,48
20640,note_off,240,0,3,,,,,,,,,3,,,69,0
20880,note_on,0,0,3,,,,,,,,,3,,,69,48
20880,note_off,240,0,3,,,,,,,,,3,,,66,0
21120,note_on,0,0,1,,,,,,,,,1,,,81,49
21120,note_off,240,0,3,,,,,,,,,3,,,69,0
21120,note_on,0,0,3,,,,,,,,,3,,,66,47
21120,note_off,960,0,1,,,,,,,,,1,,,78,0
21360,note_off,240,0,3,,,,,,,,,3,,,66,0
21360,note_on,0,0,3,,,,,,,,,3,,,69,47
21480,note_on,0,0,1,,,,,,,,,1,,,78,47
21480,note_off,360,0,1,,,,,,,,,1,,,81,0
21552,note_off,192,0,3,,,,,,,,,3,,,69,0
21570,note_off,1410,0,5,,,,,,,,,5,,,62,0
21576,note_off,96,0,1,,,,,,,,,1,,,78,0
21600,note_on,24,0,1,,,,,,,,,1,,,74,47
21600,note_on,48,0,3,,,,,,,,,3,,,66,47
21600,note_on,30,0,5,,,,,,,,,5,,,57,47
21840,note_off,240,0,3,,,,,,,,,3,,,66,0
21840,note_on,0,0,3,,,,,,,,,3,,,69,46
22080,note_off,240,0,3,,,,,,,,,3,,,69,0
22080,note_on,0,0,3,,,,,,,,,3,,,66,46
22080,note_on,0,0,1,,,,,,,,,1,,,74,46
22080,note_off,480,0,1,,,,,,,,,1,,,74,0
22320,note_on,0,0,3,,,,,,,,,3,,,69,46
22320,note_off,240,0,3,,,,,,,,,3,,,66,0
22560,note_off,240,0,3,,,,,,,,,3,,,69,0
22560,note_off,480,0,1,,,,,,,,,1,,,74,0
22560,note_on,0,0,1,,,,,,,,,1,,,76,47
22560,note_on,0,0,3,,,,,,,,,3,,,67,45
22560,note_on,0,0,5,,,,,,,,,5,,,61,45
22560,note_off,960,0,5,,,,,,,,,5,,,57,0
22640,note_off,80,0,1,,,,,,,,,1,,,76,0
22640,note_on,0,0,1,,,,,,,,,1,,,78,47
22720,note_off,80,0,1,,,,,,,,,1,,,78,0
22720,note_on,0,0,1,,,,,,,,,1,,,76,46
22800,note_off,240,0,3,,,,,,,,,3,,,67,0
22800,note_on,0,0,3,,,,,,,,,3,,,69,45
22920,note_off,200,0,1,,,,,,,,,1,,,76,0
22920,set_tempo,4200,1,0,,,,,,508474,,,,,,,
22920,note_on,0,0,1,,,,,,,,,1,,,78,45
22992,note_off,192,0,3,,,,,,,,,3,,,69,0
23017,note_off,457,0,5,,,,,,,,,5,,,61,0
23040,note_on,48,0,3,,,,,,,,,3,,,66,45
23040,note_on,23,0,5,,,,,,,,,5,,,62,45
23040,note_on,0,0,1,,,,,,,,,1,,,74,44
23040,note_off,120,0,1,,,,,,,,,1,,,78,0
23400,note_off,360,0,5,,,,,,,,,5,,,62,0
23400,note_off,360,0,1,,,,,,,,,1,,,74,0
23400,note_off,360,0,3,,,,,,,,,3,,,66,0
23520,note_on,120,0,5,,,,,,,,,5,,,57,42
23880,note_off,360,0,5,,,,,,,,,5,,,57,0
24000,note_on,120,0,5,,,,,,,,,5,,,50,39
24240,set_tempo,1320,1,0,,,,,,526315,,,,,,,
24360,note_off,360,0,5,,,,,,,,,5,,,50,0
24480,note_on,0,0,2,,,,,,,,,2,,,73,70
24480,control_change,1080,0,3,,,,,,,64,0,3,,,,
24480,note_on,0,0,2,,,,,,,,,2,,,69,70
24480,control_change,11520,0,2,,,,,,,64,0,2,,,,
24480,note_on,0,0,5,,,,,,,,,5,,,45,70
24480,marker,0,1,0,,,,,,,,,,,,,
24480,set_tempo,240,1,0,,,,,,504201,,,,,,,
24480,control_change,11520,0,4,,,,,,,64,0,4,,,,
24480,control_change,120,0,5,,,,,,,64,0,5,,,,
24480,control_change,1080,0,1,,,,,,,64,0,1,,,,
24480,note_on,0,0,1,,,,,,,,,1,,,76,70
24480,note_on,0,0,5,,,,,,,,,5,,,57,70
24840,note_off,360,0,5,,,,,,,,,5,,,57,0
24840,note_off,0,0,5,,,,,,,,,5,,,45,0
24840,note_off,360,0,2,,,,,,,,,2,,,73,0
24840,note_off,360,0,1,,,,,,,,,1,,,76,0
24840,note_off,0,0,2,,,,,,,,,2,,,69,0
24960,note_on,120,0,1,,,,,,,,,1,,,76,72
24960,note_on,120,0,2,,,,,,,,,2,,,69,72
24960,note_on,0,0,2,,,,,,,,,2,,,73,72
25320,note_off,0,0,2,,,,,,,,,2,,,69,0
25320,note_off,360,0,2,,,,,,,,,2,,,73,0
25320,note_off,360,0,1,,,,,,,,,1,,,76,0
25440,note_on,0,0,2,,,,,,,,,2,,,73,73
25440,note_on,120,0,2,,,,,,,,,2,,,69,73
25440,note_on,120,0,1,,,,,,,,,1,,,76,73
25800,note_off,360,0,1,,,,,,,,,1,,,76,0
25800,note_off,0,0,2,,,,,,,,,2,,,69,0
25800,note_off,360,0,2,,,,,,,,,2,,,73,0
25920,note_on,120,0,2,,,,,,,,,2,,,73,75
25920,note_on,120,0,1,,,,,,,,,1,,,76,75
25920,note_on,0,0,2,,,,,,,,,2,,,69,75
26160,note_on,1320,0,5,,,,,,,,,5,,,45,74
26400,note_on,0,0,5,,,,,,,,,5,,,49,73
26400,note_off,240,0,5,,,,,,,,,5,,,45,0
26640,note_on,0,0,5,,,,,,,,,5,,,52,71
26640,note_off,240,0,5,,,,,,,,,5,,,49,0
26880,note_off,240,0,5,,,,,,,,,5,,,52,0
26880,note_on,0,0,5,,,,,,,,,5,,,57,70
27120,note_off,240,0,5,,,,,,,,,5,,,57,0
27120,note_on,0,0,5,,,,,,,,,5,,,45,68
27240,note_off,1320,0,1,,,,,,,,,1,,,76,0
27240,note_off,0,0,2,,,,,,,,,2,,,73,0
27240,note_off,1320,0,2,,,,,,,,,2,,,69,0
27300,set_tempo,2820,1,0,,,,,,508474,,,,,,,
27360,note_off,240,0,5,,,,,,,,,5,,,45,0
27360,note_on,0,0,5,,,,,,,,,5,,,50,66
27360,set_tempo,60,1,0,,,,,,504201,,,,,,,
27360,note_on,0,0,2,,,,,,,,,2,,,74,66
27360,note_on,120,0,2,,,,,,,,,2,,,69,66
27360,note_on,120,0,1,,,,,,,,,1,,,78,66
27720,note_off,360,0,2,,,,,,,,,2,,,74,0
27720,note_off,0,0,2,,,,,,,,,2,,,69,0
27720,note_off,360,0,5,,,,,,,,,5,,,50,0
27720,note_off,360,0,1,,,,,,,,,1,,,78,0
27840,note_on,120,0,1,,,,,,,,,1,,,78,67
27840,note_on,120,0,2,,,,,,,,,2,,,69,67
27840,note_on,0,0,2,,,,,,,,,2,,,74,67
28200,note_off,0,0,2,,,,,,,,,2,,,69,0
28200,note_off,360,0,2,,,,,,,,,2,,,74,0
28200,note_off,360,0,1,,,,,,,,,1,,,78,0
28320,note_on,120,0,1,,,,,,,,,1,,,78,68
28320,note_on,120,0,2,,,,,,,,,2,,,69,68
28320,note_on,0,0,2,,,,,,,,,2,,,74,68
28680,note_off,0,0,2,,,,,,,,,2,,,69,0
28680,note_off,360,0,1,,,,,,,,,1,,,78,0
28680,note_off,360,0,2,,,,,,,,,2,,,74,0
28800,note_on,120,0,2,,,,,,,,,2,,,74,69
28800,note_on,0,0,2,,,,,,,,,2,,,69,69
28800,note_on,120,0,1,,,,,,,,,1,,,78,69
29040,note_on,1320,0,5,,,,,,,,,5,,,50,68
29280,note_on,0,0,5,,,,,,,,,5,,,54,67
29280,note_off,240,0,5,,,,,,,,,5,,,50,0
29520,note_on,0,0,5,,,,,,,,,5,,,57,66
29520,note_off,240,0,5,,,,,,,,,5,,,54,0
29760,note_on,0,0,5,,,,,,,,,5,,,62,65
29760,note_off,240,0,5,,,,,,,,,5,,,57,0
30000,note_on,0,0,5,,,,,,,,,5,,,50,64
30000,note_off,240,0,5,,,,,,,,,5,,,62,0
30120,set_tempo,2760,1,0,,,,,,508474,,,,,,,
30120,note_off,1320,0,1,,,,,,,,,1,,,78,0
30120,note_off,0,0,2,,,,,,,,,2,,,74,0
30120,note_off,1320,0,2,,,,,,,,,2,,,69,0
30192,note_off,192,0,5,,,,,,,,,5,,,50,0
30240,note_on,48,0,5,,,,,,,,,5,,,62,66
30240,note_on,120,0,1,,,,,,,,,1,,,81,67
30240,note_on,5760,0,3,,,,,,,,,3,,,66,66
30255,set_tempo,135,1,0,,,,,,504201,,,,,,,
30480,note_off,240,0,3,,,,,,,,,3,,,66,0
30480,note_on,0,0,3,,,,,,,,,3,,,69,65
30720,note_on,0,0,1,,,,,,,,,1,,,74,65
30720,note_on,0,0,3,,,,,,,,,3,,,66,65
30720,note_off,480,0,1,,,,,,,,,1,,,81,0
30720,note_off,240,0,3,,,,,,,,,3,,,69,0
30960,note_on,0,0,1,,,,,,,,,1,,,78,63
30960,note_off,240,0,3,,,,,,,,,3,,,66,0
30960,note_on,0,0,3,,,,,,,,,3,,,69,64
30960,note_off,240,0,1,,,,,,,,,1,,,74,0
31200,note_on,0,0,3,,,,,,,,,3,,,66,64
31200,note_off,240,0,1,,,,,,,,,1,,,78,0
31200,note_off,240,0,3,,,,,,,,,3,,,69,0
31200,note_on,0,0,1,,,,,,,,,1,,,81,62
31440,note_off,240,0,3,,,,,,,,,3,,,66,0
31440,note_on,0,0,3,,,,,,,,,3,,,69,64
31440,note_on,0,0,1,,,,,,,,,1,,,86,60
31440,note_off,240,0,1,,,,,,,,,1,,,81,0
31632,note_off,192,0,3,,,,,,,,,3,,,69,0
31632,note_off,192,0,1,,,,,,,,,1,,,86,0
31650,note_off,1410,0,5,,,,,,,,,5,,,62,0
31680,note_on,30,0,5,,,,,,,,,5,,,62,63
31680,note_on,48,0,3,,,,,,,,,3,,,66,63
31680,note_on,48,0,1,,,,,,,,,1,,,81,65
31920,note_on,0,0,3,,,,,,,,,3,,,69,63
31920,note_off,240,0,3,,,,,,,,,3,,,66,0
32160,note_off,480,0,1,,,,,,,,,1,,,81,0
32160,note_on,0,0,1,,,,,,,,,1,,,74,62
32160,note_off,240,0,3,,,,,,,,,3,,,69,0
32160,note_on,0,0,3,,,,,,,,,3,,,66,62
32400,note_off,240,0,1,,,,,,,,,1,,,74,0
32400,note_off,240,0,3,,,,,,,,,3,,,66,0
32400,note_on,0,0,1,,,,,,,,,1,,,78,61
32400,note_on,0,0,3,,,,,,,,,3,,,69,62
32640,note_off,240,0,1,,,,,,,,,1,,,78,0
32640,note_on,0,0,1,,,,,,,,,1,,,81,60
32640,note_on,0,0,3,,,,,,,,,3,,,66,62
32640,note_off,240,0,3,,,,,,,,,3,,,69,0
32880,note_on,0,0,3,,,,,,,,,3,,,69,61
32880,note_off,240,0,3,,,,,,,,,3,,,66,0
32880,note_off,240,0,1,,,,,,,,,1,,,81,0
32880,note_on,0,0,1,,,,,,,,,1,,,86,58
33072,note_off,192,0,3,,,,,,,,,3,,,69,0
33072,note_off,192,0,1,,,,,,,,,1,,,86,0
33090,note_off,1410,0,5,,,,,,,,,5,,,62,0
33120,note_on,48,0,3,,,,,,,,,3,,,66,61
33120,note_on,48,0,1,,,,,,,,,1,,,81,61
33120,note_on,30,0,5,,,,,,,,,5,,,62,61
33360,note_off,240,0,3,,,,,,,,,3,,,66,0
33360,note_on,0,0,3,,,,,,,,,3,,,69,60
33600,note_off,240,0,3,,,,,,,,,3,,,69,0
33600,note_on,0,0,3,,,,,,,,,3,,,64,60
33600,note_off,480,0,1,,,,,,,,,1,,,81,0
33600,note_on,0,0,1,,,,,,,,,1,,,79,60
33600,note_off,480,0,5,,,,,,,,,5,,,62,0
33600,note_on,0,0,5,,,,,,,,,5,,,61,60
33840,note_off,240,0,3,,,,,,,,,3,,,64,0
33840,note_on,0,0,3,,,,,,,,,3,,,69,59
34080,note_off,240,0,3,,,,,,,,,3,,,69,0
34080,note_on,0,0,3,,,,,,,,,3,,,66,59
34080,note_off,480,0,5,,,,,,,,,5,,,61,0
34080,note_on,0,0,5,,,,,,,,,5,,,62,59
34080,note_off,480,0,1,,,,,,,,,1,,,79,0
34080,note_on,0,0,1,,,,,,,,,1,,,78,59
34320,note_off,240,0,3,,,,,,,,,3,,,66,0
34320,note_on,0,0,3,,,,,,,,,3,,,69,59
34440,set_tempo,4185,1,0,,,,,,508474,,,,,,,
34560,note_off,480,0,1,,,,,,,,,1,,,78,0
34560,note_on,0,0,1,,,,,,,,,1,,,78,58
34560,note_on,0,0,5,,,,,,,,,5,,,57,58
34560,note_off,480,0,5,,,,,,,,,5,,,62,0
34560,note_on,0,0,3,,,,,,,,,3,,,61,58
34560,note_off,240,0,3,,,,,,,,,3,,,69,0
34800,note_off,240,0,1,,,,,,,,,1,,,78,0
34800,note_on,0,0,1,,,,,,,,,1,,,76,55
34920,note_off,360,0,5,,,,,,,,,5,,,57,0
34920,note_off,360,0,3,,,,,,,,,3,,,61,0
34992,note_off,192,0,1,,,,,,,,,1,,,76,0
35040,note_on,48,0,1,,,,,,,,,1,,,69,55
35232,note_off,192,0,1,,,,,,,,,1,,,69,0
35280,note_on,48,0,1,,,,,,,,,1,,,69,57
35472,note_off,192,0,1,,,,,,,,,1,,,69,0
35520,note_on,48,0,1,,,,,,,,,1,,,69,61
35712,note_off,192,0,1,,,,,,,,,1,,,69,0
35760,note_on,48,0,1,,,,,,,,,1,,,69,65
35880,set_tempo,1440,1,0,,,,,,517241,,,,,,,
35952,note_off,192,0,1,,,,,,,,,1,,,69,0
36000,set_tempo,120,1,0,,,,,,504201,,,,,,,
36000,control_change,1080,0,5,,,,,,,64,0,5,,,,
36000,control_change,5880,0,2,,,,,,,64,0,2,,,,
36000,control_change,1080,0,3,,,,,,,64,0,3,,,,
36000,control_change,11520,0,4,,,,,,,64,0,4,,,,
36000,control_change,48,0,1,,,,,,,64,0,1,,,,
36000,note_on,0,0,1,,,,,,,,,1,,,81,79
36000,note_on,0,0,3,,,,,,,,,3,,,66,79
36000,note_on,0,0,5,,,,,,,,,5,,,62,79
36240,note_off,240,0,3,,,,,,,,,3,,,66,0
36240,note_on,0,0,3,,,,,,,,,3,,,69,79
36480,note_off,240,0,3,,,,,,,,,3,,,69,0
36480,note_on,0,0,3,,,,,,,,,3,,,66,78
36720,note_off,240,0,3,,,,,,,,,3,,,66,0
36720,note_on,0,0,3,,,,,,,,,3,,,69,78
36960,note_off,960,0,1,,,,,,,,,1,,,81,0
36960,note_on,0,0,1,,,,,,,,,1,,,86,81
36960,note_off,240,0,3,,,,,,,,,3,,,69,0
36960,note_on,0,0,3,,,,,,,,,3,,,66,77
37200,note_on,0,0,3,,,,,,,,,3,,,69,76
37200,note_off,240,0,3,,,,,,,,,3,,,66,0
37320,note_on,0,0,1,,,,,,,,,1,,,81,77
37320,note_off,360,0,1,,,,,,,,,1,,,86,0
37392,note_off,192,0,3,,,,,,,,,3,,,69,0
37410,note_off,1410,0,5,,,,,,,,,5,,,62,0
37416,note_off,96,0,1,,,,,,,,,1,,,81,0
37440,note_on,48,0,3,,,,,,,,,3,,,66,76
37440,note_on,24,0,1,,,,,,,,,1,,,78,76
37440,note_on,30,0,5,,,,,,,,,5,,,62,76
37680,note_off,240,0,3,,,,,,,,,3,,,66,0
37680,note_on,0,0,3,,,,,,,,,3,,,69,75
37920,note_off,240,0,3,,,,,,,,,3,,,69,0
37920,note_on,0,0,3,,,,,,,,,3,,,66,75
38160,note_on,0,0,3,,,,,,,,,3,,,69,74
38160,note_off,240,0,3,,,,,,,,,3,,,66,0
38400,note_off,240,0,3,,,,,,,,,3,,,69,0
38400,note_on,0,0,1,,,,,,,,,1,,,81,77
38400,note_off,960,0,1,,,,,,,,,1,,,78,0
38400,note_on,0,0,3,,,,,,,,,3,,,66,74
38640,note_on,0,0,3,,,,,,,,,3,,,69,73
38640,note_off,240,0,3,,,,,,,,,3,,,66,0
38760,note_on,0,0,1,,,,,,,,,1,,,78,74
38760,note_off,360,0,1,,,,,,,,,1,,,81,0
38832,note_off,192,0,3,,,,,,,,,3,,,69,0
38850,note_off,1410,0,5,,,,,,,,,5,,,62,0
38856,note_off,96,0,1,,,,,,,,,1,,,78,0
38880,note_on,30,0,5,,,,,,,,,5,,,57,72
38880,note_on,48,0,3,,,,,,,,,3,,,66,72
38880,note_on,24,0,1,,,,,,,,,1,,,74,73
39120,note_on,0,0,3,,,,,,,,,3,,,69,72
39120,note_off,240,0,3,,,,,,,,,3,,,66,0
39360,note_off,240,0,3,,,,,,,,,3,,,69,0
39360,note_on,0,0,3,,,,,,,,,3,,,66,71
39360,note_off,480,0,1,,,,,,,,,1,,,74,0
39360,note_on,0,0,1,,,,,,,,,1,,,74,71
39600,note_off,240,0,3,,,,,,,,,3,,,66,0
39600,note_on,0,0,3,,,,,,,,,3,,,69,71
39840,note_on,0,0,1,,,,,,,,,1,,,76,65
39840,note_off,960,0,5,,,,,,,,,5,,,57,0
39840,note_off,240,0,3,,,,,,,,,3,,,69,0
39840,note_off,480,0,1,,,,,,,,,1,,,74,0
39840,note_on,0,0,5,,,,,,,,,5,,,61,70
39840,note_on,0,0,3,,,,,,,,,3,,,67,70
39920,note_off,80,0,1,,,,,,,,,1,,,76,0
39920,note_on,0,0,1,,,,,,,,,1,,,78,66
40000,note_off,80,0,1,,,,,,,,,1,,,78,0
40000,note_on,0,0,1,,,,,,,,,1,,,76,67
40080,note_on,0,0,1,,,,,,,,,1,,,74,67
40080,note_off,80,0,1,,,,,,,,,1,,,76,0
40080,note_off,240,0,3,,,,,,,,,3,,,67,0
40080,note_on,0,0,3,,,,,,,,,3,,,69,69
40200,note_on,0,0,1,,,,,,,,,1,,,76,68
40200,note_off,120,0,1,,,,,,,,,1,,,74,0
40200,set_tempo,4200,1,0,,,,,,508474,,,,,,,
40272,note_off,192,0,3,,,,,,,,,3,,,69,0
40297,note_off,457,0,5,,,,,,,,,5,,,61,0
40320,note_on,48,0,3,,,,,,,,,3,,,66,69
40320,note_off,120,0,1,,,,,,,,,1,,,76,0
40320,note_on,0,0,1,,,,,,,,,1,,,78,70
40320,note_on,23,0,5,,,,,,,,,5,,,62,69
40680,note_off,360,0,3,,,,,,,,,3,,,66,0
40680,note_off,360,0,5,,,,,,,,,5,,,62,0
40800,note_off,480,0,1,,,,,,,,,1,,,78,0
40800,note_on,0,0,1,,,,,,,,,1,,,74,63
41280,note_off,480,0,1,,,,,,,,,1,,,74,0
41280,note_on,0,0,1,,,,,,,,,1,,,69,58
41640,set_tempo,1440,1,0,,,,,,517241,,,,,,,
41640,note_off,360,0,1,,,,,,,,,1,,,69,0
41760,note_on,1080,0,5,,,,,,,,,5,,,62,63
41760,set_tempo,120,1,0,,,,,,504201,,,,,,,
41760,note_on,1080,0,3,,,,,,,,,3,,,66,63
41760,note_on,120,0,1,,,,,,,,,1,,,81,63
42000,note_on,0,0,3,,,,,,,,,3,,,69,63
42000,note_off,240,0,3,,,,,,,,,3,,,66,0
42240,note_on,0,0,3,,,,,,,,,3,,,66,62
42240,note_off,240,0,3,,,,,,,,,3,,,69,0
42480,note_off,240,0,3,,,,,,,,,3,,,66,0
42480,note_on,0,0,3,,,,,,,,,3,,,69,61
42720,note_on,0,0,3,,,,,,,,,3,,,66,61
42720,note_on,0,0,1,,,,,,,,,1,,,86,61
42720,note_off,240,0,3,,,,,,,,,3,,,69,0
42720,note_off,960,0,1,,,,,,,,,1,,,81,0
42840,note_off,120,0,1,,,,,,,,,1,,,86,0
42840,note_on,0,0,1,,,,,,,,,1,,,85,60
42960,note_on,0,0,1,,,,,,,,,1,,,86,60
42960,note_off,120,0,1,,,,,,,,,1,,,85,0
42960,note_off,240,0,3,,,,,,,,,3,,,66,0
42960,note_on,0,0,3,,,,,,,,,3,,,69,60
43080,note_on,0,0,1,,,,,,,,,1,,,81,60
43080,note_off,120,0,1,,,,,,,,,1,,,86,0
43152,note_off,192,0,3,,,,,,,,,3,,,69,0
43170,note_off,1410,0,5,,,,,,,,,5,,,62,0
43176,note_off,96,0,1,,,,,,,,,1,,,81,0
43200,note_on,48,0,3,,,,,,,,,3,,,66,59
43200,note_on,30,0,5,,,,,,,,,5,,,62,59
43200,note_on,24,0,1,,,,,,,,,1,,,78,59
43440,note_on,0,0,3,,,,,,,,,3,,,69,58
43440,note_off,240,0,3,,,,,,,,,3,,,66,0
43680,note_on,0,0,3,,,,,,,,,3,,,66,58
43680,note_off,240,0,3,,,,,,,,,3,,,69,0
43920,note_on,0,0,3,,,,,,,,,3,,,69,57
43920,note_off,240,0,3,,,,,,,,,3,,,66,0
44160,note_off,240,0,3,,,,,,,,,3,,,69,0
44160,note_on,0,0,3,,,,,,,,,3,,,66,56
44160,note_on,0,0,1,,,,,,,,,1,,,81,56
44160,note_off,960,0,1,,,,,,,,,1,,,78,0
44280,note_on,0,0,1,,,,,,,,,1,,,80,56
44280,note_off,120,0,1,,,,,,,,,1,,,81,0
44400,note_off,240,0,3,,,,,,,,,3,,,66,0
44400,note_on,0,0,3,,,,,,,,,3,,,69,56
44400,note_off,120,0,1,,,,,,,,,1,,,80,0
44400,note_on,0,0,1,,,,,,,,,1,,,81,56
44520,note_on,0,0,1,,,,,,,,,1,,,78,55
44520,note_off,120,0,1,,,,,,,,,1,,,81,0
44592,note_off,192,0,3,,,,,,,,,3,,,69,0
44610,note_off,1410,0,5,,,,,,,,,5,,,62,0
44616,note_off,96,0,1,,,,,,,,,1,,,78,0
44640,note_on,24,0,1,,,,,,,,,1,,,74,55
44640,note_on,30,0,5,,,,,,,,,5,,,57,55
44640,note_on,48,0,3,,,,,,,,,3,,,66,55
44880,note_off,240,0,3,,,,,,,,,3,,,66,0
44880,note_on,0,0,3,,,,,,,,,3,,,69,54
45120,note_off,240,0,3,,,,,,,,,3,,,69,0
45120,note_on,0,0,3,,,,,,,,,3,,,66,54
45120,note_off,480,0,1,,,,,,,,,1,,,74,0
45120,note_on,0,0,1,,,,,,,,,1,,,74,54
45360,note_off,240,0,3,,,,,,,,,3,,,66,0
45360,note_on,0,0,3,,,,,,,,,3,,,69,53
45600,note_off,240,0,3,,,,,,,,,3,,,69,0
45600,note_on,0,0,3,,,,,,,,,3,,,67,52
45600,note_on,0,0,5,,,,,,,,,5,,,61,52
45600,note_off,960,0,5,,,,,,,,,5,,,57,0
45600,note_on,0,0,1,,,,,,,,,1,,,76,53
45600,note_off,480,0,1,,,,,,,,,1,,,74,0
45720,note_on,0,0,1,,,,,,,,,1,,,74,52
45720,note_off,120,0,1,,,,,,,,,1,,,76,0
45840,note_on,0,0,3,,,,,,,,,3,,,69,52
45840,note_off,240,0,3,,,,,,,,,3,,,67,0
45840,note_on,0,0,1,,,,,,,,,1,,,76,51
45840,note_off,120,0,1,,,,,,,,,1,,,74,0
45960,set_tempo,4200,1,0,,,,,,508474,,,,,,,
45960,note_on,0,0,1,,,,,,,,,1,,,78,50
45960,note_off,120,0,1,,,,,,,,,1,,,76,0
46032,note_off,192,0,3,,,,,,,,,3,,,69,0
46057,note_off,457,0,5,,,,,,,,,5,,,61,0
46080,note_on,48,0,3,,,,,,,,,3,,,66,53
46080,note_off,120,0,1,,,,,,,,,1,,,78,0
46080,note_on,0,0,1,,,,,,,,,1,,,74,48
46080,note_on,23,0,5,,,,,,,,,5,,,62,53
46440,note_off,360,0,1,,,,,,,,,1,,,74,0
46440,note_off,360,0,5,,,,,,,,,5,,,62,0
46440,note_off,360,0,3,,,,,,,,,3,,,66,0
46560,note_on,120,0,5,,,,,,,,,5,,,57,50
46920,note_off,360,0,5,,,,,,,,,5,,,57,0
47040,note_on,120,0,5,,,,,,,,,5,,,50,47
47280,set_tempo,1320,1,0,,,,,,535714,,,,,,,
47400,note_off,360,0,5,,,,,,,,,5,,,50,0
47520,control_change,1080,0,3,,,,,,,64,0,3,,,,
47520,control_change,11520,0,4,,,,,,,64,0,4,,,,
47520,control_change,120,0,5,,,,,,,64,0,5,,,,
47520,note_on,0,0,5,,,,,,,,,5,,,45,70
47520,control_change,11520,0,2,,,,,,,64,0,2,,,,
47520,note_on,0,0,2,,,,,,,,,2,,,69,70
47520,set_tempo,240,1,0,,,,,,504201,,,,,,,
47520,note_on,0,0,5,,,,,,,,,5,,,57,70
47520,note_on,0,0,2,,,,,,,,,2,,,73,70
47520,marker,0,1,0,,,,,,,,,,,,,
47520,control_change,1080,0,1,,,,,,,64,0,1,,,,
47520,note_on,0,0,1,,,,,,,,,1,,,76,70
47880,note_off,0,0,2,,,,,,,,,2,,,69,0
47880,note_off,360,0,5,,,,,,,,,5,,,57,0
47880,note_off,0,0,5,,,,,,,,,5,,,45,0
47880,note_off,360,0,2,,,,,,,,,2,,,73,0
47880,note_off,360,0,1,,,,,,,,,1,,,76,0
48000,note_on,0,0,2,,,,,,,,,2,,,73,72
48000,note_on,120,0,1,,,,,,,,,1,,,76,72
48000,note_on,120,0,2,,,,,,,,,2,,,69,72
48360,note_off,360,0,1,,,,,,,,,1,,,76,0
48360,note_off,360,0,2,,,,,,,,,2,,,73,0
48360,note_off,0,0,2,,,,,,,,,2,,,69,0
48480,note_on,120,0,1,,,,,,,,,1,,,76,73
48480,note_on,120,0,2,,,,,,,,,2,,,69,73
48480,note_on,0,0,2,,,,,,,,,2,,,73,73
48840,note_off,0,0,2,,,,,,,,,2,,,69,0
48840,note_off,360,0,2,,,,,,,,,2,,,73,0
48840,note_off,360,0,1,,,,,,,,,1,,,76,0
48960,note_on,0,0,2,,,,,,,,,2,,,69,75
48960,note_on,120,0,2,,,,,,,,,2,,,73,75
48960,note_on,120,0,1,,,,,,,,,1,,,76,75
49200,note_on,1320,0,5,,,,,,,,,5,,,45,74
49440,note_off,240,0,5,,,,,,,,,5,,,45,0
49440,note_on,0,0,5,,,,,,,,,5,,,49,73
49680,note_on,0,0,5,,,,,,,,,5,,,52,71
49680,note_off,240,0,5,,,,,,,,,5,,,49,0
49920,note_off,240,0,5,,,,,,,,,5,,,52,0
49920,note_on,0,0,5,,,,,,,,,5,,,57,70
50160,note_on,0,0,5,,,,,,,,,5,,,45,68
50160,note_off,240,0,5,,,,,,,,,5,,,57,0
50280,note_off,1320,0,2,,,,,,,,,2,,,69,0
50280,note_off,0,0,2,,,,,,,,,2,,,73,0
50280,note_off,1320,0,1,,,,,,,,,1,,,76,0
50340,set_tempo,2820,1,0,,,,,,508474,,,,,,,
50400,note_on,120,0,1,,,,,,,,,1,,,78,66
50400,note_on,0,0,5,,,,,,,,,5,,,50,66
50400,set_tempo,60,1,0,,,,,,504201,,,,,,,
50400,note_on,120,0,2,,,,,,,,,2,,,69,66
50400,note_on,0,0,2,,,,,,,,,2,,,74,66
50400,note_off,240,0,5,,,,,,,,,5,,,45,0
50760,note_off,0,0,2,,,,,,,,,2,,,69,0
50760,note_off,360,0,2,,,,,,,,,2,,,74,0
50760,note_off,360,0,5,,,,,,,,,5,,,50,0
50760,note_off,360,0,1,,,,,,,,,1,,,78,0
50880,note_on,0,0,2,,,,,,,,,2,,,74,67
50880,note_on,120,0,2,,,,,,,,,2,,,69,67
50880,note_on,120,0,1,,,,,,,,,1,,,78,67
51240,note_off,360,0,2,,,,,,,,,2,,,74,0
51240,note_off,0,0,2,,,,,,,,,2,,,69,0
51240,note_off,360,0,1,,,,,,,,,1,,,78,0
51360,note_on,120,0,1,,,,,,,,,1,,,78,68
51360,note_on,120,0,2,,,,,,,,,2,,,69,68
51360,note_on,0,0,2,,,,,,,,,2,,,74,68
51720,note_off,0,0,2,,,,,,,,,2,,,69,0
51720,note_off,360,0,1,,,,,,,,,1,,,78,0
51720,note_off,360,0,2,,,,,,,,,2,,,74,0
51840,note_on,120,0,2,,,,,,,,,2,,,74,69
51840,note_on,120,0,1,,,,,,,,,1,,,78,69
51840,note_on,0,0,2,,,,,,,,,2,,,69,69
52080,note_on,1320,0,5,,,,,,,,,5,,,50,68
52320,note_off,240,0,5,,,,,,,,,5,,,50,0
52320,note_on,0,0,5,,,,,,,,,5,,,54,67
52560,note_off,240,0,5,,,,,,,,,5,,,54,0
52560,note_on,0,0,5,,,,,,,,,5,,,57,66
52800,note_off,240,0,5,,,,,,,,,5,,,57,0
52800,note_on,0,0,5,,,,,,,,,5,,,62,65
53040,note_on,0,0,5,,,,,,,,,5,,,50,64
53040,note_off,240,0,5,,,,,,,,,5,,,62,0
53160,set_tempo,2760,1,0,,,,,,508474,,,,,,,
53160,note_off,1320,0,2,,,,,,,,,2,,,69,0
53160,note_off,1320,0,1,,,,,,,,,1,,,78,0
53160,note_off,0,0,2,,,,,,,,,2,,,74,0
53232,note_off,192,0,5,,,,,,,,,5,,,50,0
53280,note_on,48,0,5,,,,,,,,,5,,,62,66
53280,note_on,5760,0,3,,,,,,,,,3,,,66,66
53280,note_on,120,0,1,,,,,,,,,1,,,81,67
53295,set_tempo,135,1,0,,,,,,504201,,,,,,,
53520,note_off,240,0,3,,,,,,,,,3,,,66,0
53520,note_on,0,0,3,,,,,,,,,3,,,69,65
53760,note_off,240,0,3,,,,,,,,,3,,,69,0
53760,note_off,480,0,1,,,,,,,,,1,,,81,0
53760,note_on,0,0,1,,,,,,,,,1,,,74,65
53760,note_on,0,0,3,,,,,,,,,3,,,66,65
54000,note_off,240,0,3,,,,,,,,,3,,,66,0
54000,note_on,0,0,1,,,,,,,,,1,,,78,63
54000,note_off,240,0,1,,,,,,,,,1,,,74,0
54000,note_on,0,0,3,,,,,,,,,3,,,69,64
54240,note_on,0,0,1,,,,,,,,,1,,,81,62
54240,note_off,240,0,1,,,,,,,,,1,,,78,0
54240,note_on,0,0,3,,,,,,,,,3,,,66,64
54240,note_off,240,0,3,,,,,,,,,3,,,69,0
54480,note_on,0,0,3,,,,,,,,,3,,,69,64
54480,note_off,240,0,3,,,,,,,,,3,,,66,0
54480,note_off,240,0,1,,,,,,,,,1,,,81,0
54480,note_on,0,0,1,,,,,,,,,1,,,86,60
54672,note_off,192,0,1,,,,,,,,,1,,,86,0
54672,note_off,192,0,3,,,,,,,,,3,,,69,0
54690,note_off,1410,0,5,,,,,,,,,5,,,62,0
54720,note_on,48,0,1,,,,,,,,,1,,,81,65
54720,note_on,48,0,3,,,,,,,,,3,,,66,63
54720,note_on,30,0,5,,,,,,,,,5,,,62,63
54960,note_on,0,0,3,,,,,,,,,3,,,69,63
54960,note_off,240,0,3,,,,,,,,,3,,,66,0
55200,note_on,0,0,1,,,,,,,,,1,,,74,62
55200,note_off,240,0,3,,,,,,,,,3,,,69,0
55200,note_off,480,0,1,,,,,,,,,1,,,81,0
55200,note_on,0,0,3,,,,,,,,,3,,,66,62
55440,note_off,240,0,1,,,,,,,,,1,,,74,0
55440,note_off,240,0,3,,,,,,,,,3,,,66,0
55440,note_on,0,0,1,,,,,,,,,1,,,78,61
55440,note_on,0,0,3,,,,,,,,,3,,,69,62
55680,note_off,240,0,1,,,,,,,,,1,,,78,0
55680,note_on,0,0,1,,,,,,,,,1,,,81,60
55680,note_off,240,0,3,,,,,,,,,3,,,69,0
55680,note_on,0,0,3,,,,,,,,,3,,,66,62
55920,note_on,0,0,1,,,,,,,,,1,,,86,58
55920,note_on,0,0,3,,,,,,,,,3,,,69,61
55920,note_off,240,0,1,,,,,,,,,1,,,81,0
55920,note_off,240,0,3,,,,,,,,,3,,,66,0
56112,note_off,192,0,1,,,,,,,,,1,,,86,0
56112,note_off,192,0,3,,,,,,,,,3,,,69,0
56130,note_off,1410,0,5,,,,,,,,,5,,,62,0
56160,note_on,30,0,5,,,,,,,,,5,,,62,61
56160,note_on,48,0,1,,,,,,,,,1,,,81,61
56160,note_on,48,0,3,,,,,,,,,3,,,66,61
56400,note_on,0,0,3,,,,,,,,,3,,,69,60
56400,note_off,240,0,3,,,,,,,,,3,,,66,0
56640,note_on,0,0,1,,,,,,,,,1,,,79,60
56640,note_off,480,0,1,,,,,,,,,1,,,81,0
56640,note_off,480,0,5,,,,,,,,,5,,,62,0
56640,note_on,0,0,3,,,,,,,,,3,,,64,60
56640,note_off,240,0,3,,,,,,,,,3,,,69,0
56640,note_on,0,0,5,,,,,,,,,5,,,61,60
56880,note_on,0,0,3,,,,,,,,,3,,,69,59
56880,note_off,240,0,3,,,,,,,,,3,,,64,0
57120,note_on,0,0,5,,,,,,,,,5,,,62,59
57120,note_on,0,0,1,,,,,,,,,1,,,78,59
57120,note_off,480,0,1,,,,,,,,,1,,,79,0
57120,note_off,480,0,5,,,,,,,,,5,,,61,0
57120,note_off,240,0,3,,,,,,,,,3,,,69,0
57120,note_on,0,0,3,,,,,,,,,3,,,66,59
57360,note_off,240,0,3,,,,,,,,,3,,,66,0
57360,note_on,0,0,3,,,,,,,,,3,,,69,59
57480,set_tempo,4185,1,0,,,,,,508474,,,,,,,
57600,note_off,480,0,1,,,,,,,,,1,,,78,0
57600,note_on,0,0,1,,,,,,,,,1,,,78,58
57600,note_off,240,0,3,,,,,,,,,3,,,69,0
57600,note_off,480,0,5,,,,,,,,,5,,,62,0
57600,note_on,0,0,5,,,,,,,,,5,,,57,58
57600,note_on,0,0,3,,,,,,,,,3,,,61,58
57840,note_on,0,0,1,,,,,,,,,1,,,76,55
57840,note_off,240,0,1,,,,,,,,,1,,,78,0
57960,note_off,360,0,5,,,,,,,,,5,,,57,0
57960,note_off,360,0,3,,,,,,,,,3,,,61,0
58032,note_off,192,0,1,,,,,,,,,1,,,76,0
58080,note_on,48,0,1,,,,,,,,,1,,,69,55
58272,note_off,192,0,1,,,,,,,,,1,,,69,0
58320,note_on,48,0,1,,,,,,,,,1,,,69,57
58512,note_off,192,0,1,,,,,,,,,1,,,69,0
58560,note_on,48,0,1,,,,,,,,,1,,,69,61
58752,note_off,192,0,1,,,,,,,,,1,,,69,0
58800,note_on,48,0,1,,,,,,,,,1,,,69,65
58920,set_tempo,1440,1,0,,,,,,517241,,,,,,,
58992,note_off,192,0,1,,,,,,,,,1,,,69,0
59040,control_change,48,0,1,,,,,,,64,0,1,,,,
59040,note_on,0,0,1,,,,,,,,,1,,,81,79
59040,note_on,0,0,5,,,,,,,,,5,,,62,79
59040,control_change,1080,0,5,,,,,,,64,0,5,,,,
59040,control_change,1080,0,3,,,,,,,64,0,3,,,,
59040,control_change,5880,0,2,,,,,,,64,0,2,,,,
59040,control_change,11520,0,4,,,,,,,64,0,4,,,,
59040,set_tempo,120,1,0,,,,,,504201,,,,,,,
59040,note_on,0,0,3,,,,,,,,,3,,,66,79
59280,note_on,0,0,3,,,,,,,,,3,,,69,79
59280,note_off,240,0,3,,,,,,,,,3,,,66,0
59520,note_on,0,0,3,,,,,,,,,3,,,66,78
59520,note_off,240,0,3,,,,,,,,,3,,,69,0
59760,note_on,0,0,3,,,,,,,,,3,,,69,78
59760,note_off,240,0,3,,,,,,,,,3,,,66,0
60000,note_on,0,0,1,,,,,,,,,1,,,86,81
60000,note_off,960,0,1,,,,,,,,,1,,,81,0
60000,note_on,0,0,3,,,,,,,,,3,,,66,77
60000,note_off,240,0,3,,,,,,,,,3,,,69,0
60240,note_on,0,0,3,,,,,,,,,3,,,69,76
60240,note_off,240,0,3,,,,,,,,,3,,,66,0
60360,note_on,0,0,1,,,,,,,,,1,,,81,77
60360,note_off,360,0,1,,,,,,,,,1,,,86,0
60432,note_off,192,0,3,,,,,,,,,3,,,69,0
60450,note_off,1410,0,5,,,,,,,,,5,,,62,0
60456,note_off,96,0,1,,,,,,,,,1,,,81,0
60480,note_on,24,0,1,,,,,,,,,1,,,78,76
60480,note_on,30,0,5,,,,,,,,,5,,,62,76
60480,note_on,48,0,3,,,,,,,,,3,,,66,76
60720,note_off,240,0,3,,,,,,,,,3,,,66,0
60720,note_on,0,0,3,,,,,,,,,3,,,69,75
60960,note_off,240,0,3,,,,,,,,,3,,,69,0
60960,note_on,0,0,3,,,,,,,,,3,,,66,75
61200,note_on,0,0,3,,,,,,,,,3,,,69,74
61200,note_off,240,0,3,,,,,,,,,3,,,66,0
61440,note_on,0,0,3,,,,,,,,,3,,,66,74
61440,note_off,960,0,1,,,,,,,,,1,,,78,0
61440,note_on,0,0,1,,,,,,,,,1,,,81,77
61440,note_off,240,0,3,,,,,,,,,3,,,69,0
61680,note_on,0,0,3,,,,,,,,,3,,,69,73
61680,note_off,240,0,3,,,,,,,,,3,,,66,0
61800,note_off,360,0,1,,,,,,,,,1,,,81,0
61800,note_on,0,0,1,,,,,,,,,1,,,78,74
61872,note_off,192,0,3,,,,,,,,,3,,,69,0
61890,note_off,1410,0,5,,,,,,,,,5,,,62,0
61896,note_off,96,0,1,,,,,,,,,1,,,78,0
61920,note_on,24,0,1,,,,,,,,,1,,,74,73
61920,note_on,30,0,5,,,,,,,,,5,,,57,72
61920,note_on,48,0,3,,,,,,,,,3,,,66,72
62160,note_on,0,0,3,,,,,,,,,3,,,69,72
62160,note_off,240,0,3,,,,,,,,,3,,,66,0
62400,note_on,0,0,1,,,,,,,,,1,,,74,71
62400,note_off,480,0,1,,,,,,,,,1,,,74,0
62400,note_on,0,0,3,,,,,,,,,3,,,66,71
62400,note_off,240,0,3,,,,,,,,,3,,,69,0
62640,note_on,0,0,3,,,,,,,,,3,,,69,71
62640,note_off,240,0,3,,,,,,,,,3,,,66,0
62880,note_on,0,0,5,,,,,,,,,5,,,61,70
62880,note_on,0,0,1,,,,,,,,,1,,,76,65
62880,note_off,480,0,1,,,,,,,,,1,,,74,0
62880,note_on,0,0,3,,,,,,,,,3,,,67,70
62880,note_off,240,0,3,,,,,,,,,3,,,69,0
62880,note_off,960,0,5,,,,,,,,,5,,,57,0
62960,note_off,80,0,1,,,,,,,,,1,,,76,0
62960,note_on,0,0,1,,,,,,,,,1,,,78,66
63040,note_off,80,0,1,,,,,,,,,1,,,78,0
63040,note_on,0,0,1,,,,,,,,,1,,,76,67
63120,note_on,0,0,3,,,,,,,,,3,,,69,69
63120,note_off,240,0,3,,,,,,,,,3,,,67,0
63120,note_off,80,0,1,,,,,,,,,1,,,76,0
63120,note_on,0,0,1,,,,,,,,,1,,,74,67
63240,note_on,0,0,1,,,,,,,,,1,,,76,68
63240,note_off,120,0,1,,,,,,,,,1,,,74,0
63240,set_tempo,4200,1,0,,,,,,508474,,,,,,,
63312,note_off,192,0,3,,,,,,,,,3,,,69,0
63337,note_off,457,0,5,,,,,,,,,5,,,61,0
63360,note_on,0,0,1,,,,,,,,,1,,,78,70
63360,note_on,48,0,3,,,,,,,,,3,,,66,69
63360,note_on,23,0,5,,,,,,,,,5,,,62,69
63360,note_off,120,0,1,,,,,,,,,1,,,76,0
63720,note_off,360,0,3,,,,,,,,,3,,,66,0
63720,note_off,360,0,5,,,,,,,,,5,,,62,0
63840,note_off,480,0,1,,,,,,,,,1,,,78,0
63840,note_on,0,0,1,,,,,,,,,1,,,74,63
64320,note_off,480,0,1,,,,,,,,,1,,,74,0
64320,note_on,0,0,1,,,,,,,,,1,,,69,58
64680,set_tempo,1440,1,0,,,,,,517241,,,,,,,
64680,note_off,360,0,1,,,,,,,,,1,,,69,0
64800,note_on,1080,0,3,,,,,,,,,3,,,66,63
64800,set_tempo,120,1,0,,,,,,504201,,,,,,,
64800,note_on,120,0,1,,,,,,,,,1,,,81,63
64800,note_on,1080,0,5,,,,,,,,,5,,,62,63
65040,note_off,240,0,3,,,,,,,,,3,,,66,0
65040,note_on,0,0,3,,,,,,,,,3,,,69,63
65280,note_off,240,0,3,,,,,,,,,3,,,69,0
65280,note_on,0,0,3,,,,,,,,,3,,,66,62
65520,note_off,240,0,3,,,,,,,,,3,,,66,0
65520,note_on,0,0,3,,,,,,,,,3,,,69,61
65760,note_on,0,0,1,,,,,,,,,1,,,86,61
65760,note_off,960,0,1,,,,,,,,,1,,,81,0
65760,note_off,240,0,3,,,,,,,,,3,,,69,0
65760,note_on,0,0,3,,,,,,,,,3,,,66,61
65880,note_on,0,0,1,,,,,,,,,1,,,85,60
65880,note_off,120,0,1,,,,,,,,,1,,,86,0
66000,note_on,0,0,3,,,,,,,,,3,,,69,60
66000,note_on,0,0,1,,,,,,,,,1,,,86,60
66000,note_off,120,0,1,,,,,,,,,1,,,85,0
66000,note_off,240,0,3,,,,,,,,,3,,,66,0
66120,note_on,0,0,1,,,,,,,,,1,,,81,60
66120,note_off,120,0,1,,,,,,,,,1,,,86,0
66192,note_off,192,0,3,,,,,,,,,3,,,69,0
66210,note_off,1410,0,5,,,,,,,,,5,,,62,0
66216,note_off,96,0,1,,,,,,,,,1,,,81,0
66240,note_on,48,0,3,,,,,,,,,3,,,66,59
66240,note_on,24,0,1,,,,,,,,,1,,,78,59
66240,note_on,30,0,5,,,,,,,,,5,,,62,59
66480,note_off,240,0,3,,,,,,,,,3,,,66,0
66480,note_on,0,0,3,,,,,,,,,3,,,69,58
66720,note_off,240,0,3,,,,,,,,,3,,,69,0
66720,note_on,0,0,3,,,,,,,,,3,,,66,58
66960,note_on,0,0,3,,,,,,,,,3,,,69,57
66960,note_off,240,0,3,,,,,,,,,3,,,66,0
67200,note_off,960,0,1,,,,,,,,,1,,,78,0
67200,note_on,0,0,1,,,,,,,,,1,,,81,56
67200,note_off,240,0,3,,,,,,,,,3,,,69,0
67200,note_on,0,0,3,,,,,,,,,3,,,66,56
67320,note_off,120,0,1,,,,,,,,,1,,,81,0
67320,note_on,0,0,1,,,,,,,,,1,,,80,56
67440,note_on,0,0,1,,,,,,,,,1,,,81,56
67440,note_off,240,0,3,,,,,,,,,3,,,66,0
67440,note_on,0,0,3,,,,,,,,,3,,,69,56
67440,note_off,120,0,1,,,,,,,,,1,,,80,0
67560,note_off,120,0,1,,,,,,,,,1,,,81,0
67560,note_on,0,0,1,,,,,,,,,1,,,78,55
67632,note_off,192,0,3,,,,,,,,,3,,,69,0
67650,note_off,1410,0,5,,,,,,,,,5,,,62,0
67656,note_off,96,0,1,,,,,,,,,1,,,78,0
67680,note_on,48,0,3,,,,,,,,,3,,,66,55
67680,note_on,30,0,5,,,,,,,,,5,,,57,55
67680,note_on,24,0,1,,,,,,,,,1,,,74,55
67920,note_on,0,0,3,,,,,,,,,3,,,69,54
67920,note_off,240,0,3,,,,,,,,,3,,,66,0
68160,note_on,0,0,1,,,,,,,,,1,,,74,54
68160,note_off,240,0,3,,,,,,,,,3,,,69,0
68160,note_on,0,0,3,,,,,,,,,3,,,66,54
68160,note_off,480,0,1,,,,,,,,,1,,,74,0
68400,note_off,240,0,3,,,,,,,,,3,,,66,0
68400,note_on,0,0,3,,,,,,,,,3,,,69,53
68640,note_on,0,0,5,,,,,,,,,5,,,61,52
68640,note_on,0,0,1,,,,,,,,,1,,,76,53
68640,note_on,0,0,3,,,,,,,,,3,,,67,52
68640,note_off,240,0,3,,,,,,,,,3,,,69,0
68640,note_off,960,0,5,,,,,,,,,5,,,57,0
68640,note_off,480,0,1,,,,,,,,,1,,,74,0
68760,note_on,0,0,1,,,,,,,,,1,,,74,52
68760,note_off,120,0,1,,,,,,,,,1,,,76,0
68880,note_off,120,0,1,,,,,,,,,1,,,74,0
68880,note_on,0,0,3,,,,,,,,,3,,,69,52
68880,note_off,240,0,3,,,,,,,,,3,,,67,0
68880,note_on,0,0,1,,,,,,,,,1,,,76,51
69000,note_off,120,0,1,,,,,,,,,1,,,76,0
69000,set_tempo,4200,1,0,,,,,,508474,,,,,,,
69000,note_on,0,0,1,,,,,,,,,1,,,78,50
69072,note_off,192,0,3,,,,,,,,,3,,,69,0
69097,note_off,457,0,5,,,,,,,,,5,,,61,0
69120,note_off,120,0,1,,,,,,,,,1,,,78,0
69120,note_on,23,0,5,,,,,,,,,5,,,62,53
69120,note_on,0,0,1,,,,,,,,,1,,,74,48
69120,note_on,48,0,3,,,,,,,,,3,,,66,53
69480,note_off,360,0,5,,,,,,,,,5,,,62,0
69480,note_off,360,0,1,,,,,,,,,1,,,74,0
69480,note_off,360,0,3,,,,,,,,,3,,,66,0
69600,note_on,120,0,5,,,,,,,,,5,,,57,50
69855,set_tempo,855,1,0,,,,,,517241,,,,,,,
69960,note_off,360,0,5,,,,,,,,,5,,,57,0
70080,note_on,120,0,5,,,,,,,,,5,,,50,47
70200,set_tempo,345,1,0,,,,,,526315,,,,,,,
70320,set_tempo,120,1,0,,,,,,625000,,,,,,,
70440,note_off,360,0,5,,,,,,,,,5,,,50,0
70560,control_change,1080,0,1,,,,,,,64,0,1,,,,
70560,control_change,11520,0,2,,,,,,,64,0,2,,,,
70560,control_change,11520,0,4,,,,,,,64,0,4,,,,
70560,control_change,120,0,5,,,,,,,64,0,5,,,,
70560,note_on,0,0,5,,,,,,,,,5,,,62,59
70560,note_on,0,0,1,,,,,,,,,1,,,83,59
70560,set_tempo,240,1,0,,,,,,500000,,,,,,,
70560,control_change,1080,0,3,,,,,,,64,0,3,,,,
70560,note_on,0,0,3,,,,,,,,,3,,,66,59
70560,marker,0,1,0,,,,,,,,,,,,,
70680,note_on,0,0,1,,,,,,,,,1,,,81,59
70680,note_off,120,0,1,,,,,,,,,1,,,83,0
70800,note_on,0,0,1,,,,,,,,,1,,,80,59
70800,note_off,240,0,3,,,,,,,,,3,,,66,0
70800,note_on,0,0,3,,,,,,,,,3,,,69,59
70800,note_off,120,0,1,,,,,,,,,1,,,81,0
70920,note_on,0,0,1,,,,,,,,,1,,,81,59
70920,note_off,120,0,1,,,,,,,,,1,,,80,0
71040,note_on,0,0,3,,,,,,,,,3,,,66,59
71040,note_on,0,0,1,,,,,,,,,1,,,80,59
71040,note_off,120,0,1,,,,,,,,,1,,,81,0
71040,note_off,240,0,3,,,,,,,,,3,,,69,0
71160,note_off,120,0,1,,,,,,,,,1,,,80,0
71160,note_on,0,0,1,,,,,,,,,1,,,81,58
71280,note_on,0,0,3,,,,,,,,,3,,,69,58
71280,note_off,240,0,3,,,,,,,,,3,,,66,0
71280,note_off,120,0,1,,,,,,,,,1,,,81,0
71280,note_on,0,0,1,,,,,,,,,1,,,80,58
71400,note_off,120,0,1,,,,,,,,,1,,,80,0
71400,note_on,0,0,1,,,,,,,,,1,,,81,58
71520,note_off,120,0,1,,,,,,,,,1,,,81,0
71520,note_off,240,0,3,,,,,,,,,3,,,69,0
71520,note_on,0,0,1,,,,,,,,,1,,,83,58
71520,note_on,0,0,3,,,,,,,,,3,,,66,58
71640,note_off,120,0,1,,,,,,,,,1,,,83,0
71640,note_on,0,0,1,,,,,,,,,1,,,81,57
71760,note_off,240,0,3,,,,,,,,,3,,,66,0
71760,note_on,0,0,3,,,,,,,,,3,,,69,57
71760,note_on,0,0,1,,,,,,,,,1,,,86,57
71760,note_off,120,0,1,,,,,,,,,1,,,81,0
71880,note_on,0,0,1,,,,,,,,,1,,,81,57
71880,note_off,120,0,1,,,,,,,,,1,,,86,0
71952,note_off,192,0,3,,,,,,,,,3,,,69,0
71970,note_off,1410,0,5,,,,,,,,,5,,,62,0
71976,note_off,96,0,1,,,,,,,,,1,,,81,0
72000,note_on,48,0,3,,,,,,,,,3,,,66,57
72000,note_on,24,0,1,,,,,,,,,1,,,79,57
72000,note_on,30,0,5,,,,,,,,,5,,,62,57
72120,note_on,0,0,1,,,,,,,,,1,,,78,57
72120,note_off,120,0,1,,,,,,,,,1,,,79,0
72240,note_off,240,0,3,,,,,,,,,3,,,66,0
72240,note_on,0,0,3,,,,,,,,,3,,,69,56
72240,note_on,0,0,1,,,,,,,,,1,,,77,56
72240,note_off,120,0,1,,,,,,,,,1,,,78,0
72360,note_on,0,0,1,,,,,,,,,1,,,78,56
72360,note_off,120,0,1,,,,,,,,,1,,,77,0
72480,note_off,240,0,3,,,,,,,,,3,,,69,0
72480,note_on,0,0,3,,,,,,,,,3,,,66,56
72480,note_on,0,0,1,,,,,,,,,1,,,77,56
72480,note_off,120,0,1,,,,,,,,,1,,,78,0
72600,note_on,0,0,1,,,,,,,,,1,,,78,56
72600,note_off,120,0,1,,,,,,,,,1,,,77,0
72720,note_on,0,0,3,,,,,,,,,3,,,69,56
72720,note_off,240,0,3,,,,,,,,,3,,,66,0
72720,note_off,120,0,1,,,,,,,,,1,,,78,0
72720,note_on,0,0,1,,,,,,,,,1,,,77,56
72840,note_on,0,0,1,,,,,,,,,1,,,78,55
72840,note_off,120,0,1,,,,,,,,,1,,,77,0
72960,note_on,0,0,3,,,,,,,,,3,,,66,55
72960,note_off,240,0,3,,,,,,,,,3,,,69,0
72960,note_on,0,0,1,,,,,,,,,1,,,81,55
72960,note_off,120,0,1,,,,,,,,,1,,,78,0
73080,note_on,0,0,1,,,,,,,,,1,,,78,55
73080,note_off,120,0,1,,,,,,,,,1,,,81,0
73200,note_off,120,0,1,,,,,,,,,1,,,78,0
73200,note_on,0,0,1,,,,,,,,,1,,,77,55
73200,note_off,240,0,3,,,,,,,,,3,,,66,0
73200,note_on,0,0,3,,,,,,,,,3,,,69,55
73320,note_off,120,0,1,,,,,,,,,1,,,77,0
73320,note_on,0,0,1,,,,,,,,,1,,,78,55
73392,note_off,192,0,3,,,,,,,,,3,,,69,0
73410,note_off,1410,0,5,,,,,,,,,5,,,62,0
73416,note_off,96,0,1,,,,,,,,,1,,,78,0
73440,note_on,48,0,3,,,,,,,,,3,,,66,54
73440,note_on,30,0,5,,,,,,,,,5,,,57,54
73440,note_on,24,0,1,,,,,,,,,1,,,76,54
73560,note_off,120,0,1,,,,,,,,,1,,,76,0
73560,note_on,0,0,1,,,,,,,,,1,,,74,54
73680,note_off,120,0,1,,,,,,,,,1,,,74,0
73680,note_on,0,0,1,,,,,,,,,1,,,73,54
73680,note_on,0,0,3,,,,,,,,,3,,,69,54
73680,note_off,240,0,3,,,,,,,,,3,,,66,0
73800,note_off,120,0,1,,,,,,,,,1,,,73,0
73800,note_on,0,0,1,,,,,,,,,1,,,74,54
73920,note_off,240,0,3,,,,,,,,,3,,,69,0
73920,note_off,120,0,1,,,,,,,,,1,,,74,0
73920,note_on,0,0,1,,,,,,,,,1,,,76,54
73920,note_on,0,0,3,,,,,,,,,3,,,66,54
74040,note_off,120,0,1,,,,,,,,,1,,,76,0
74040,note_on,0,0,1,,,,,,,,,1,,,74,53
74160,note_off,120,0,1,,,,,,,,,1,,,74,0
74160,note_on,0,0,1,,,,,,,,,1,,,73,53
74160,note_on,0,0,3,,,,,,,,,3,,,69,53
74160,note_off,240,0,3,,,,,,,,,3,,,66,0
74280,note_on,0,0,1,,,,,,,,,1,,,74,53
74280,note_off,120,0,1,,,,,,,,,1,,,73,0
74400,note_on,0,0,5,,,,,,,,,5,,,61,53
74400,note_off,960,0,5,,,,,,,,,5,,,57,0
74400,note_on,0,0,3,,,,,,,,,3,,,67,53
74400,note_off,240,0,3,,,,,,,,,3,,,69,0
74400,note_off,120,0,1,,,,,,,,,1,,,74,0
74400,note_on,0,0,1,,,,,,,,,1,,,78,53
74520,note_on,0,0,1,,,,,,,,,1,,,76,52
74520,note_off,120,0,1,,,,,,,,,1,,,78,0
74640,note_on,0,0,1,,,,,,,,,1,,,75,52
74640,note_off,120,0,1,,,,,,,,,1,,,76,0
74640,note_on,0,0,3,,,,,,,,,3,,,69,52
74640,note_off,240,0,3,,,,,,,,,3,,,67,0
74760,note_on,0,0,1,,,,,,,,,1,,,76,52
74760,note_off,120,0,1,,,,,,,,,1,,,75,0
74832,note_off,192,0,3,,,,,,,,,3,,,69,0
74857,note_off,457,0,5,,,,,,,,,5,,,61,0
74880,note_on,0,0,1,,,,,,,,,1,,,78,52
74880,note_off,120,0,1,,,,,,,,,1,,,76,0
74880,note_on,23,0,5,,,,,,,,,5,,,62,52
74880,note_on,48,0,3,,,,,,,,,3,,,66,52
75000,note_off,120,0,1,,,,,,,,,1,,,78,0
75000,note_on,0,0,1,,,,,,,,,1,,,74,52
75120,note_off,120,0,1,,,,,,,,,1,,,74,0
75120,note_on,0,0,1,,,,,,,,,1,,,73,54
75240,note_off,360,0,3,,,,,,,,,3,,,66,0
75240,note_off,360,0,5,,,,,,,,,5,,,62,0
75240,note_off,120,0,1,,,,,,,,,1,,,73,0
75240,note_on,0,0,1,,,,,,,,,1,,,76,55
75360,note_off,120,0,1,,,,,,,,,1,,,76,0
75360,note_on,0,0,1,,,,,,,,,1,,,74,57
75480,note_on,0,0,1,,,,,,,,,1,,,78,58
75480,note_off,120,0,1,,,,,,,,,1,,,74,0
75600,note_on,0,0,1,,,,,,,,,1,,,76,59
75600,note_off,120,0,1,,,,,,,,,1,,,78,0
75720,note_on,0,0,1,,,,,,,,,1,,,79,61
75720,note_off,120,0,1,,,,,,,,,1,,,76,0
75840,note_off,120,0,1,,,,,,,,,1,,,79,0
75840,note_on,0,0,1,,,,,,,,,1,,,78,62
75960,note_on,0,0,1,,,,,,,,,1,,,81,64
75960,note_off,120,0,1,,,,,,,,,1,,,78,0
76080,note_off,120,0,1,,,,,,,,,1,,,81,0
76080,note_on,0,0,1,,,,,,,,,1,,,79,65
76200,note_on,0,0,1,,,,,,,,,1,,,83,67
76200,note_off,120,0,1,,,,,,,,,1,,,79,0
76260,set_tempo,5700,1,0,,,,,,504201,,,,,,,
76296,note_off,96,0,1,,,,,,,,,1,,,83,0
76320,note_on,1080,0,5,,,,,,,,,5,,,62,73
76320,set_tempo,60,1,0,,,,,,500000,,,,,,,
76320,note_on,24,0,1,,,,,,,,,1,,,80,73
76320,note_on,1080,0,3,,,,,,,,,3,,,66,73
76440,note_off,120,0,1,,,,,,,,,1,,,80,0
76440,note_on,0,0,1,,,,,,,,,1,,,81,73
76560,note_off,120,0,1,,,,,,,,,1,,,81,0
76560,note_on,0,0,3,,,,,,,,,3,,,69,73
76560,note_off,240,0,3,,,,,,,,,3,,,66,0
76560,note_on,0,0,1,,,,,,,,,1,,,83,73
76680,note_on,0,0,1,,,,,,,,,1,,,81,73
76680,note_off,120,0,1,,,,,,,,,1,,,83,0
76800,note_on,0,0,1,,,,,,,,,1,,,83,73
76800,note_off,120,0,1,,,,,,,,,1,,,81,0
76800,note_off,240,0,3,,,,,,,,,3,,,69,0
76800,note_on,0,0,3,,,,,,,,,3,,,66,73
76920,note_on,0,0,1,,,,,,,,,1,,,81,73
76920,note_off,120,0,1,,,,,,,,,1,,,83,0
77040,note_on,0,0,1,,,,,,,,,1,,,83,72
77040,note_off,120,0,1,,,,,,,,,1,,,81,0
77040,note_off,240,0,3,,,,,,,,,3,,,66,0
77040,note_on,0,0,3,,,,,,,,,3,,,69,73
77160,note_off,120,0,1,,,,,,,,,1,,,83,0
77160,note_on,0,0,1,,,,,,,,,1,,,81,72
77280,note_on,0,0,3,,,,,,,,,3,,,66,72
77280,note_off,240,0,3,,,,,,,,,3,,,69,0
77280,note_on,0,0,1,,,,,,,,,1,,,80,72
77280,note_off,120,0,1,,,,,,,,,1,,,81,0
77400,note_off,120,0,1,,,,,,,,,1,,,80,0
77400,note_on,0,0,1,,,,,,,,,1,,,81,72
77520,note_on,0,0,1,,,,,,,,,1,,,86,72
77520,note_off,120,0,1,,,,,,,,,1,,,81,0
77520,note_off,240,0,3,,,,,,,,,3,,,66,0
77520,note_on,0,0,3,,,,,,,,,3,,,69,72
77640,note_off,120,0,1,,,,,,,,,1,,,86,0
77640,note_on,0,0,1,,,,,,,,,1,,,81,72
77712,note_off,192,0,3,,,,,,,,,3,,,69,0
77730,note_off,1410,0,5,,,,,,,,,5,,,62,0
77736,note_off,96,0,1,,,,,,,,,1,,,81,0
77760,note_on,24,0,1,,,,,,,,,1,,,77,71
77760,note_on,48,0,3,,,,,,,,,3,,,66,72
77760,note_on,30,0,5,,,,,,,,,5,,,62,72
77880,note_on,0,0,1,,,,,,,,,1,,,78,71
77880,note_off,120,0,1,,,,,,,,,1,,,77,0
78000,note_on,0,0,3,,,,,,,,,3,,,69,72
78000,note_off,240,0,3,,,,,,,,,3,,,66,0
78000,note_off,120,0,1,,,,,,,,,1,,,78,0
78000,note_on,0,0,1,,,,,,,,,1,,,79,71
78120,note_off,120,0,1,,,,,,,,,1,,,79,0
78120,note_on,0,0,1,,,,,,,,,1,,,78,71
78240,note_on,0,0,3,,,,,,,,,3,,,66,71
78240,note_off,240,0,3,,,,,,,,,3,,,69,0
78240,note_off,120,0,1,,,,,,,,,1,,,78,0
78240,note_on,0,0,1,,,,,,,,,1,,,79,71
78360,note_off,120,0,1,,,,,,,,,1,,,79,0
78360,note_on,0,0,1,,,,,,,,,1,,,78,70
78480,note_on,0,0,3,,,,,,,,,3,,,69,71
78480,note_off,240,0,3,,,,,,,,,3,,,66,0
78480,note_on,0,0,1,,,,,,,,,1,,,79,70
78480,note_off,120,0,1,,,,,,,,,1,,,78,0
78600,note_off,120,0,1,,,,,,,,,1,,,79,0
78600,note_on,0,0,1,,,,,,,,,1,,,78,70
78720,note_off,120,0,1,,,,,,,,,1,,,78,0
78720,note_on,0,0,3,,,,,,,,,3,,,66,71
78720,note_off,240,0,3,,,,,,,,,3,,,69,0
78720,note_on,0,0,1,,,,,,,,,1,,,77,70
78840,note_off,120,0,1,,,,,,,,,1,,,77,0
78840,note_on,0,0,1,,,,,,,,,1,,,78,70
78960,note_on,0,0,3,,,,,,,,,3,,,69,71
78960,note_off,240,0,3,,,,,,,,,3,,,66,0
78960,note_on,0,0,1,,,,,,,,,1,,,81,70
78960,note_off,120,0,1,,,,,,,,,1,,,78,0
79080,note_on,0,0,1,,,,,,,,,1,,,78,69
79080,note_off,120,0,1,,,,,,,,,1,,,81,0
79152,note_off,192,0,3,,,,,,,,,3,,,69,0
79170,note_off,1410,0,5,,,,,,,,,5,,,62,0
79176,note_off,96,0,1,,,,,,,,,1,,,78,0
79200,note_on,24,0,1,,,,,,,,,1,,,73,69
79200,note_on,30,0,5,,,,,,,,,5,,,57,70
79200,note_on,48,0,3,,,,,,,,,3,,,66,70
79320,note_off,120,0,1,,,,,,,,,1,,,73,0
79320,note_on,0,0,1,,,,,,,,,1,,,74,69
79440,note_off,240,0,3,,,,,,,,,3,,,66,0
79440,note_on,0,0,3,,,,,,,,,3,,,69,70
79440,note_on,0,0,1,,,,,,,,,1,,,76,69
79440,note_off,120,0,1,,,,,,,,,1,,,74,0
79560,note_on,0,0,1,,,,,,,,,1,,,74,69
79560,note_off,120,0,1,,,,,,,,,1,,,76,0
79680,note_off,120,0,1,,,,,,,,,1,,,74,0
79680,note_on,0,0,3,,,,,,,,,3,,,66,70
79680,note_off,240,0,3,,,,,,,,,3,,,69,0
79680,note_on,0,0,1,,,,,,,,,1,,,73,68
79800,note_on,0,0,1,,,,,,,,,1,,,74,68
79800,note_off,120,0,1,,,,,,,,,1,,,73,0
79920,note_off,120,0,1,,,,,,,,,1,,,74,0
79920,note_on,0,0,1,,,,,,,,,1,,,76,68
79920,note_on,0,0,3,,,,,,,,,3,,,69,69
79920,note_off,240,0,3,,,,,,,,,3,,,66,0
80040,note_off,120,0,1,,,,,,,,,1,,,76,0
80040,note_on,0,0,1,,,,,,,,,1,,,74,68
80160,note_on,0,0,3,,,,,,,,,3,,,67,69
80160,note_on,0,0,1,,,,,,,,,1,,,75,68
80160,note_off,240,0,3,,,,,,,,,3,,,69,0
80160,note_off,120,0,1,,,,,,,,,1,,,74,0
80160,note_on,0,0,5,,,,,,,,,5,,,61,69
80160,note_off,960,0,5,,,,,,,,,5,,,57,0
80280,note_off,120,0,1,,,,,,,,,1,,,75,0
80280,note_on,0,0,1,,,,,,,,,1,,,76,68
80400,note_on,0,0,3,,,,,,,,,3,,,69,69
80400,note_on,0,0,1,,,,,,,,,1,,,78,67
80400,note_off,120,0,1,,,,,,,,,1,,,76,0
80400,note_off,240,0,3,,,,,,,,,3,,,67,0
80520,note_on,0,0,1,,,,,,,,,1,,,76,67
80520,note_off,120,0,1,,,,,,,,,1,,,78,0
80592,note_off,192,0,3,,,,,,,,,3,,,69,0
80616,note_off,96,0,1,,,,,,,,,1,,,76,0
80617,note_off,457,0,5,,,,,,,,,5,,,61,0
80640,note_on,48,0,3,,,,,,,,,3,,,66,69
80640,note_on,23,0,5,,,,,,,,,5,,,62,69
80640,note_on,24,0,1,,,,,,,,,1,,,76,67
80760,note_off,120,0,1,,,,,,,,,1,,,76,0
80760,note_on,0,0,1,,,,,,,,,1,,,74,67
80880,note_off,120,0,1,,,,,,,,,1,,,74,0
80880,note_on,0,0,1,,,,,,,,,1,,,73,67
81000,note_on,0,0,1,,,,,,,,,1,,,71,67
81000,note_off,360,0,5,,,,,,,,,5,,,62,0
81000,note_off,120,0,1,,,,,,,,,1,,,73,0
81000,note_off,360,0,3,,,,,,,,,3,,,66,0
81120,note_off,120,0,1,,,,,,,,,1,,,71,0
81120,note_on,0,0,1,,,,,,,,,1,,,69,66
81240,note_off,120,0,1,,,,,,,,,1,,,69,0
81240,note_on,0,0,1,,,,,,,,,1,,,67,66
81360,note_on,0,0,1,,,,,,,,,1,,,66,66
81360,note_off,120,0,1,,,,,,,,,1,,,67,0
81480,note_on,0,0,1,,,,,,,,,1,,,64,66
81480,note_off,120,0,1,,,,,,,,,1,,,66,0
81600,note_off,120,0,1,,,,,,,,,1,,,64,0
81600,note_on,0,0,1,,,,,,,,,1,,,62,66
81840,set_tempo,5520,1,0,,,,,,504201,,,,,,,
81960,note_off,360,0,1,,,,,,,,,1,,,62,0
82080,note_on,0,0,1,,,,,,,,,1,,,83,59
82080,control_change,1080,0,5,,,,,,,64,0,5,,,,
82080,note_on,0,0,5,,,,,,,,,5,,,62,59
82080,control_change,120,0,1,,,,,,,64,0,1,,,,
82080,control_change,1080,0,3,,,,,,,64,0,3,,,,
82080,note_on,0,0,3,,,,,,,,,3,,,66,59
82080,set_tempo,240,1,0,,,,,,500000,,,,,,,
82080,control_change,11520,0,2,,,,,,,64,0,2,,,,
82080,control_change,11520,0,4,,,,,,,64,0,4,,,,
82080,marker,0,1,0,,,,,,,,,,,,,
82200,note_off,120,0,1,,,,,,,,,1,,,83,0
82200,note_on,0,0,1,,,,,,,,,1,,,81,59
82320,note_off,120,0,1,,,,,,,,,1,,,81,0
82320,note_on,0,0,1,,,,,,,,,1,,,80,59
82320,note_on,0,0,3,,,,,,,,,3,,,69,59
82320,note_off,240,0,3,,,,,,,,,3,,,66,0
82440,note_off,120,0,1,,,,,,,,,1,,,80,0
82440,note_on,0,0,1,,,,,,,,,1,,,81,59
82560,note_on,0,0,3,,,,,,,,,3,,,66,59
82560,note_off,240,0,3,,,,,,,,,3,,,69,0
82560,note_off,120,0,1,,,,,,,,,1,,,81,0
82560,note_on,0,0,1,,,,,,,,,1,,,80,59
82680,note_on,0,0,1,,,,,,,,,1,,,81,58
82680,note_off,120,0,1,,,,,,,,,1,,,80,0
82800,note_off,240,0,3,,,,,,,,,3,,,66,0
82800,note_on,0,0,1,,,,,,,,,1,,,80,58
82800,note_off,120,0,1,,,,,,,,,1,,,81,0
82800,note_on,0,0,3,,,,,,,,,3,,,69,58
82920,note_off,120,0,1,,,,,,,,,1,,,80,0
82920,note_on,0,0,1,,,,,,,,,1,,,81,58
83040,note_off,240,0,3,,,,,,,,,3,,,69,0
83040,note_on,0,0,3,,,,,,,,,3,,,66,58
83040,note_on,0,0,1,,,,,,,,,1,,,83,58
83040,note_off,120,0,1,,,,,,,,,1,,,81,0
83160,note_on,0,0,1,,,,,,,,,1,,,81,57
83160,note_off,120,0,1,,,,,,,,,1,,,83,0
83280,note_off,240,0,3,,,,,,,,,3,,,66,0
83280,note_on,0,0,3,,,,,,,,,3,,,69,57
83280,note_off,120,0,1,,,,,,,,,1,,,81,0
83280,note_on,0,0,1,,,,,,,,,1,,,86,57
83400,note_on,0,0,1,,,,,,,,,1,,,81,57
83400,note_off,120,0,1,,,,,,,,,1,,,86,0
83472,note_off,192,0,3,,,,,,,,,3,,,69,0
83490,note_off,1410,0,5,,,,,,,,,5,,,62,0
83496,note_off,96,0,1,,,,,,,,,1,,,81,0
83520,note_on,48,0,3,,,,,,,,,3,,,66,57
83520,note_on,24,0,1,,,,,,,,,1,,,79,57
83520,note_on,30,0,5,,,,,,,,,5,,,62,57
83640,note_off,120,0,1,,,,,,,,,1,,,79,0
83640,note_on,0,0,1,,,,,,,,,1,,,78,57
83760,note_on,0,0,3,,,,,,,,,3,,,69,56
83760,note_off,120,0,1,,,,,,,,,1,,,78,0
83760,note_on,0,0,1,,,,,,,,,1,,,77,56
83760,note_off,240,0,3,,,,,,,,,3,,,66,0
83880,note_off,120,0,1,,,,,,,,,1,,,77,0
83880,note_on,0,0,1,,,,,,,,,1,,,78,56
84000,note_on,0,0,3,,,,,,,,,3,,,66,56
84000,note_on,0,0,1,,,,,,,,,1,,,77,56
84000,note_off,120,0,1,,,,,,,,,1,,,78,0
84000,note_off,240,0,3,,,,,,,,,3,,,69,0
84120,note_off,120,0,1,,,,,,,,,1,,,77,0
84120,note_on,0,0,1,,,,,,,,,1,,,78,56
84240,note_off,240,0,3,,,,,,,,,3,,,66,0
84240,note_off,120,0,1,,,,,,,,,1,,,78,0
84240,note_on,0,0,1,,,,,,,,,1,,,77,56
84240,note_on,0,0,3,,,,,,,,,3,,,69,56
84360,note_on,0,0,1,,,,,,,,,1,,,78,55
84360,note_off,120,0,1,,,,,,,,,1,,,77,0
84480,note_off,240,0,3,,,,,,,,,3,,,69,0
84480,note_off,120,0,1,,,,,,,,,1,,,78,0
84480,note_on,0,0,1,,,,,,,,,1,,,81,55
84480,note_on,0,0,3,,,,,,,,,3,,,66,55
84600,note_on,0,0,1,,,,,,,,,1,,,78,55
84600,note_off,120,0,1,,,,,,,,,1,,,81,0
84720,note_on,0,0,1,,,,,,,,,1,,,77,55
84720,note_off,120,0,1,,,,,,,,,1,,,78,0
84720,note_on,0,0,3,,,,,,,,,3,,,69,55
84720,note_off,240,0,3,,,,,,,,,3,,,66,0
84840,note_on,0,0,1,,,,,,,,,1,,,78,55
84840,note_off,120,0,1,,,,,,,,,1,,,77,0
84912,note_off,192,0,3,,,,,,,,,3,,,69,0
84930,note_off,1410,0,5,,,,,,,,,5,,,62,0
84936,note_off,96,0,1,,,,,,,,,1,,,78,0
84960,note_on,24,0,1,,,,,,,,,1,,,76,54
84960,note_on,30,0,5,,,,,,,,,5,,,57,54
84960,note_on,48,0,3,,,,,,,,,3,,,66,54
85080,note_on,0,0,1,,,,,,,,,1,,,74,54
85080,note_off,120,0,1,,,,,,,,,1,,,76,0
85200,note_on,0,0,1,,,,,,,,,1,,,73,54
85200,note_on,0,0,3,,,,,,,,,3,,,69,54
85200,note_off,240,0,3,,,,,,,,,3,,,66,0
85200,note_off,120,0,1,,,,,,,,,1,,,74,0
85320,note_on,0,0,1,,,,,,,,,1,,,74,54
85320,note_off,120,0,1,,,,,,,,,1,,,73,0
85440,note_on,0,0,1,,,,,,,,,1,,,76,54
85440,note_off,120,0,1,,,,,,,,,1,,,74,0
85440,note_off,240,0,3,,,,,,,,,3,,,69,0
85440,note_on,0,0,3,,,,,,,,,3,,,66,54
85560,note_on,0,0,1,,,,,,,,,1,,,74,53
85560,note_off,120,0,1,,,,,,,,,1,,,76,0
85680,note_on,0,0,1,,,,,,,,,1,,,73,53
85680,note_off,120,0,1,,,,,,,,,1,,,74,0
85680,note_off,240,0,3,,,,,,,,,3,,,66,0
85680,note_on,0,0,3,,,,,,,,,3,,,69,53
85800,note_on,0,0,1,,,,,,,,,1,,,74,53
85800,note_off,120,0,1,,,,,,,,,1,,,73,0
85920,note_off,120,0,1,,,,,,,,,1,,,74,0
85920,note_off,240,0,3,,,,,,,,,3,,,69,0
85920,note_on,0,0,3,,,,,,,,,3,,,67,53
85920,note_off,960,0,5,,,,,,,,,5,,,57,0
85920,note_on,0,0,1,,,,,,,,,1,,,78,53
85920,note_on,0,0,5,,,,,,,,,5,,,61,53
86040,note_on,0,0,1,,,,,,,,,1,,,76,52
86040,note_off,120,0,1,,,,,,,,,1,,,78,0
86160,note_on,0,0,3,,,,,,,,,3,,,69,52
86160,note_on,0,0,1,,,,,,,,,1,,,75,52
86160,note_off,240,0,3,,,,,,,,,3,,,67,0
86160,note_off,120,0,1,,,,,,,,,1,,,76,0
86280,note_on,0,0,1,,,,,,,,,1,,,76,52
86280,note_off,120,0,1,,,,,,,,,1,,,75,0
86352,note_off,192,0,3,,,,,,,,,3,,,69,0
86377,note_off,457,0,5,,,,,,,,,5,,,61,0
86400,note_off,120,0,1,,,,,,,,,1,,,76,0
86400,note_on,0,0,1,,,,,,,,,1,,,78,52
86400,note_on,23,0,5,,,,,,,,,5,,,62,52
86400,note_on,48,0,3,,,,,,,,,3,,,66,52
86520,note_off,120,0,1,,,,,,,,,1,,,78,0
86520,note_on,0,0,1,,,,,,,,,1,,,74,52
86640,note_off,120,0,1,,,,,,,,,1,,,74,0
86640,note_on,0,0,1,,,,,,,,,1,,,73,54
86760,note_off,360,0,5,,,,,,,,,5,,,62,0
86760,note_off,120,0,1,,,,,,,,,1,,,73,0
86760,note_on,0,0,1,,,,,,,,,1,,,76,55
86760,note_off,360,0,3,,,,,,,,,3,,,66,0
86880,note_off,120,0,1,,,,,,,,,1,,,76,0
86880,note_on,0,0,1,,,,,,,,,1,,,74,57
87000,note_off,120,0,1,,,,,,,,,1,,,74,0
87000,note_on,0,0,1,,,,,,,,,1,,,78,58
87120,note_off,120,0,1,,,,,,,,,1,,,78,0
87120,note_on,0,0,1,,,,,,,,,1,,,76,59
87240,note_on,0,0,1,,,,,,,,,1,,,79,61
87240,note_off,120,0,1,,,,,,,,,1,,,76,0
87360,note_on,0,0,1,,,,,,,,,1,,,78,62
87360,note_off,120,0,1,,,,,,,,,1,,,79,0
87480,note_on,0,0,1,,,,,,,,,1,,,81,64
87480,note_off,120,0,1,,,,,,,,,1,,,78,0
87600,note_on,0,0,1,,,,,,,,,1,,,79,65
87600,note_off,120,0,1,,,,,,,,,1,,,81,0
87720,note_on,0,0,1,,,,,,,,,1,,,83,67
87720,note_off,120,0,1,,,,,,,,,1,,,79,0
87780,set_tempo,5700,1,0,,,,,,504201,,,,,,,
87816,note_off,96,0,1,,,,,,,,,1,,,83,0
87840,note_on,1080,0,5,,,,,,,,,5,,,62,73
87840,note_on,24,0,1,,,,,,,,,1,,,80,73
87840,note_on,1080,0,3,,,,,,,,,3,,,66,73
87840,set_tempo,60,1,0,,,,,,500000,,,,,,,
87960,note_on,0,0,1,,,,,,,,,1,,,81,73
87960,note_off,120,0,1,,,,,,,,,1,,,80,0
88080,note_off,240,0,3,,,,,,,,,3,,,66,0
88080,note_on,0,0,3,,,,,,,,,3,,,69,73
88080,note_on,0,0,1,,,,,,,,,1,,,83,73
88080,note_off,120,0,1,,,,,,,,,1,,,81,0
88200,note_on,0,0,1,,,,,,,,,1,,,81,73
88200,note_off,120,0,1,,,,,,,,,1,,,83,0
88320,note_on,0,0,3,,,,,,,,,3,,,66,73
88320,note_off,120,0,1,,,,,,,,,1,,,81,0
88320,note_off,240,0,3,,,,,,,,,3,,,69,0
88320,note_on,0,0,1,,,,,,,,,1,,,83,73
88440,note_on,0,0,1,,,,,,,,,1,,,81,73
88440,note_off,120,0,1,,,,,,,,,1,,,83,0
88560,note_off,120,0,1,,,,,,,,,1,,,81,0
88560,note_on,0,0,3,,,,,,,,,3,,,69,73
88560,note_off,240,0,3,,,,,,,,,3,,,66,0
88560,note_on,0,0,1,,,,,,,,,1,,,83,72
88680,note_on,0,0,1,,,,,,,,,1,,,81,72
88680,note_off,120,0,1,,,,,,,,,1,,,83,0
88800,note_on,0,0,1,,,,,,,,,1,,,80,72
88800,note_on,0,0,3,,,,,,,,,3,,,66,72
88800,note_off,240,0,3,,,,,,,,,3,,,69,0
88800,note_off,120,0,1,,,,,,,,,1,,,81,0
88920,note_off,120,0,1,,,,,,,,,1,,,80,0
88920,note_on,0,0,1,,,,,,,,,1,,,81,72
89040,note_off,120,0,1,,,,,,,,,1,,,81,0
89040,note_on,0,0,1,,,,,,,,,1,,,86,72
89040,note_off,240,0,3,,,,,,,,,3,,,66,0
89040,note_on,0,0,3,,,,,,,,,3,,,69,72
89160,note_off,120,0,1,,,,,,,,,1,,,86,0
89160,note_on,0,0,1,,,,,,,,,1,,,81,72
89232,note_off,192,0,3,,,,,,,,,3,,,69,0
89250,note_off,1410,0,5,,,,,,,,,5,,,62,0
89256,note_off,96,0,1,,,,,,,,,1,,,81,0
89280,note_on,30,0,5,,,,,,,,,5,,,62,72
89280,note_on,48,0,3,,,,,,,,,3,,,66,72
89280,note_on,24,0,1,,,,,,,,,1,,,77,71
89400,note_off,120,0,1,,,,,,,,,1,,,77,0
89400,note_on,0,0,1,,,,,,,,,1,,,78,71
89520,note_on,0,0,3,,,,,,,,,3,,,69,72
89520,note_on,0,0,1,,,,,,,,,1,,,79,71
89520,note_off,240,0,3,,,,,,,,,3,,,66,0
89520,note_off,120,0,1,,,,,,,,,1,,,78,0
89640,note_on,0,0,1,,,,,,,,,1,,,78,71
89640,note_off,120,0,1,,,,,,,,,1,,,79,0
89760,note_on,0,0,3,,,,,,,,,3,,,66,71
89760,note_off,240,0,3,,,,,,,,,3,,,69,0
89760,note_off,120,0,1,,,,,,,,,1,,,78,0
89760,note_on,0,0,1,,,,,,,,,1,,,79,71
89880,note_off,120,0,1,,,,,,,,,1,,,79,0
89880,note_on,0,0,1,,,,,,,,,1,,,78,70
90000,note_on,0,0,3,,,,,,,,,3,,,69,71
90000,note_off,240,0,3,,,,,,,,,3,,,66,0
90000,note_on,0,0,1,,,,,,,,,1,,,79,70
90000,note_off,120,0,1,,,,,,,,,1,,,78,0
90120,note_off,120,0,1,,,,,,,,,1,,,79,0
90120,note_on,0,0,1,,,,,,,,,1,,,78,70
90240,note_on,0,0,3,,,,,,,,,3,,,66,71
90240,note_on,0,0,1,,,,,,,,,1,,,77,70
90240,note_off,240,0,3,,,,,,,,,3,,,69,0
90240,note_off,120,0,1,,,,,,,,,1,,,78,0
90360,note_off,120,0,1,,,,,,,,,1,,,77,0
90360,note_on,0,0,1,,,,,,,,,1,,,78,70
90480,note_off,240,0,3,,,,,,,,,3,,,66,0
90480,note_off,120,0,1,,,,,,,,,1,,,78,0
90480,note_on,0,0,1,,,,,,,,,1,,,81,70
90480,note_on,0,0,3,,,,,,,,,3,,,69,71
90600,note_off,120,0,1,,,,,,,,,1,,,81,0
90600,note_on,0,0,1,,,,,,,,,1,,,78,69
90672,note_off,192,0,3,,,,,,,,,3,,,69,0
90690,note_off,1410,0,5,,,,,,,,,5,,,62,0
90696,note_off,96,0,1,,,,,,,,,1,,,78,0
90720,note_on,24,0,1,,,,,,,,,1,,,73,69
90720,note_on,48,0,3,,,,,,,,,3,,,66,70
90720,note_on,30,0,5,,,,,,,,,5,,,57,70
90840,note_off,120,0,1,,,,,,,,,1,,,73,0
90840,note_on,0,0,1,,,,,,,,,1,,,74,69
90960,note_off,240,0,3,,,,,,,,,3,,,66,0
90960,note_on,0,0,3,,,,,,,,,3,,,69,70
90960,note_off,120,0,1,,,,,,,,,1,,,74,0
90960,note_on,0,0,1,,,,,,,,,1,,,76,69
91080,note_on,0,0,1,,,,,,,,,1,,,74,69
91080,note_off,120,0,1,,,,,,,,,1,,,76,0
91200,note_on,0,0,3,,,,,,,,,3,,,66,70
91200,note_off,120,0,1,,,,,,,,,1,,,74,0
91200,note_on,0,0,1,,,,,,,,,1,,,73,68
91200,note_off,240,0,3,,,,,,,,,3,,,69,0
91320,note_on,0,0,1,,,,,,,,,1,,,74,68
91320,note_off,120,0,1,,,,,,,,,1,,,73,0
91440,note_on,0,0,1,,,,,,,,,1,,,76,68
91440,note_off,120,0,1,,,,,,,,,1,,,74,0
91440,note_on,0,0,3,,,,,,,,,3,,,69,69
91440,note_off,240,0,3,,,,,,,,,3,,,66,0
91560,note_off,120,0,1,,,,,,,,,1,,,76,0
91560,note_on,0,0,1,,,,,,,,,1,,,74,68
91680,note_on,0,0,3,,,,,,,,,3,,,67,69
91680,note_off,120,0,1,,,,,,,,,1,,,74,0
91680,note_on,0,0,1,,,,,,,,,1,,,75,68
91680,note_off,960,0,5,,,,,,,,,5,,,57,0
91680,note_on,0,0,5,,,,,,,,,5,,,61,69
91680,note_off,240,0,3,,,,,,,,,3,,,69,0
91800,note_off,120,0,1,,,,,,,,,1,,,75,0
91800,note_on,0,0,1,,,,,,,,,1,,,76,68
91920,note_on,0,0,1,,,,,,,,,1,,,78,67
91920,note_off,120,0,1,,,,,,,,,1,,,76,0
91920,note_off,240,0,3,,,,,,,,,3,,,67,0
91920,note_on,0,0,3,,,,,,,,,3,,,69,69
92040,note_on,0,0,1,,,,,,,,,1,,,76,67
92040,note_off,120,0,1,,,,,,,,,1,,,78,0
92112,note_off,192,0,3,,,,,,,,,3,,,69,0
92136,note_off,96,0,1,,,,,,,,,1,,,76,0
92137,note_off,457,0,5,,,,,,,,,5,,,61,0
92160,note_on,24,0,1,,,,,,,,,1,,,76,67
92160,note_on,23,0,5,,,,,,,,,5,,,62,69
92160,note_on,48,0,3,,,,,,,,,3,,,66,69
92280,note_off,120,0,1,,,,,,,,,1,,,76,0
92280,note_on,0,0,1,,,,,,,,,1,,,74,67
92400,note_off,120,0,1,,,,,,,,,1,,,74,0
92400,note_on,0,0,1,,,,,,,,,1,,,73,67
92520,note_off,360,0,3,,,,,,,,,3,,,66,0
92520,note_off,360,0,5,,,,,,,,,5,,,62,0
92520,note_off,120,0,1,,,,,,,,,1,,,73,0
92520,note_on,0,0,1,,,,,,,,,1,,,71,67
92640,note_on,0,0,1,,,,,,,,,1,,,69,66
92640,note_off,120,0,1,,,,,,,,,1,,,71,0
92760,note_off,120,0,1,,,,,,,,,1,,,69,0
92760,note_on,0,0,1,,,,,,,,,1,,,67,66
92880,note_on,0,0,1,,,,,,,,,1,,,66,66
92880,note_off,120,0,1,,,,,,,,,1,,,67,0
93000,note_on,0,0,1,,,,,,,,,1,,,64,66
93000,note_off,120,0,1,,,,,,,,,1,,,66,0
93120,note_off,120,0,1,,,,,,,,,1,,,64,0
93120,note_on,0,0,1,,,,,,,,,1,,,62,66
93360,set_tempo,5520,1,0,,,,,,504201,,,,,,,
93480,note_off,360,0,1,,,,,,,,,1,,,62,0
93600,control_change,1080,0,3,,,,,,,64,0,3,,,,
93600,control_change,11520,0,2,,,,,,,64,0,2,,,,
93600,set_tempo,240,1,0,,,,,,500000,,,,,,,
93600,control_change,1080,0,5,,,,,,,64,0,5,,,,
93600,note_on,0,0,5,,,,,,,,,5,,,57,53
93600,control_change,11520,0,4,,,,,,,64,0,4,,,,
93600,marker,0,1,0,,,,,,,,,,,,,
93600,control_change,120,0,1,,,,,,,64,0,1,,,,
93600,note_on,0,0,1,,,,,,,,,1,,,76,53
93720,note_on,0,0,1,,,,,,,,,1,,,73,53
93720,note_off,120,0,1,,,,,,,,,1,,,76,0
93840,note_on,240,0,3,,,,,,,,,3,,,64,53
93840,note_off,120,0,1,,,,,,,,,1,,,73,0
93840,note_on,0,0,1,,,,,,,,,1,,,69,53
93960,note_off,120,0,1,,,,,,,,,1,,,69,0
93960,note_on,0,0,1,,,,,,,,,1,,,73,53
94080,note_on,0,0,3,,,,,,,,,3,,,61,53
94080,note_off,240,0,3,,,,,,,,,3,,,64,0
94080,note_off,120,0,1,,,,,,,,,1,,,73,0
94080,note_on,0,0,1,,,,,,,,,1,,,76,53
94200,note_off,120,0,1,,,,,,,,,1,,,76,0
94200,note_on,0,0,1,,,,,,,,,1,,,73,52
94320,note_off,240,0,3,,,,,,,,,3,,,61,0
94320,note_off,120,0,1,,,,,,,,,1,,,73,0
94320,note_on,0,0,1,,,,,,,,,1,,,79,52
94320,note_on,0,0,3,,,,,,,,,3,,,64,52
94440,note_on,0,0,1,,,,,,,,,1,,,76,52
94440,note_off,120,0,1,,,,,,,,,1,,,79,0
94560,note_on,0,0,1,,,,,,,,,1,,,78,52
94560,note_off,120,0,1,,,,,,,,,1,,,76,0
94560,note_on,0,0,3,,,,,,,,,3,,,62,52
94560,note_off,240,0,3,,,,,,,,,3,,,64,0
94680,note_off,120,0,1,,,,,,,,,1,,,78,0
94680,note_on,0,0,1,,,,,,,,,1,,,74,52
94800,note_off,120,0,1,,,,,,,,,1,,,74,0
94800,note_on,0,0,1,,,,,,,,,1,,,81,51
94800,note_on,0,0,3,,,,,,,,,3,,,66,51
94800,note_off,240,0,3,,,,,,,,,3,,,62,0
94920,note_off,120,0,1,,,,,,,,,1,,,81,0
94920,note_on,0,0,1,,,,,,,,,1,,,78,51
95010,note_off,1410,0,5,,,,,,,,,5,,,57,0
95040,note_on,0,0,3,,,,,,,,,3,,,64,51
95040,note_off,240,0,3,,,,,,,,,3,,,66,0
95040,note_on,0,0,1,,,,,,,,,1,,,79,51
95040,note_off,120,0,1,,,,,,,,,1,,,78,0
95040,note_on,30,0,5,,,,,,,,,5,,,57,51
95160,note_on,0,0,1,,,,,,,,,1,,,76,51
95160,note_off,120,0,1,,,,,,,,,1,,,79,0
95280,note_on,0,0,1,,,,,,,,,1,,,85,51
95280,note_off,120,0,1,,,,,,,,,1,,,76,0
95400,note_on,0,0,1,,,,,,,,,1,,,79,50
95400,note_off,120,0,1,,,,,,,,,1,,,85,0
95400,note_off,360,0,5,,,,,,,,,5,,,57,0
95400,note_off,360,0,3,,,,,,,,,3,,,64,0
95520,note_off,120,0,1,,,,,,,,,1,,,79,0
95520,note_on,0,0,1,,,,,,,,,1,,,88,50
95640,note_off,120,0,1,,,,,,,,,1,,,88,0
95640,note_on,0,0,1,,,,,,,,,1,,,86,50
95760,note_off,120,0,1,,,,,,,,,1,,,86,0
95760,note_on,0,0,1,,,,,,,,,1,,,85,50
95880,note_off,120,0,1,,,,,,,,,1,,,85,0
95880,note_on,0,0,1,,,,,,,,,1,,,83,50
96000,note_off,120,0,1,,,,,,,,,1,,,83,0
96000,note_on,0,0,1,,,,,,,,,1,,,81,49
96120,note_off,120,0,1,,,,,,,,,1,,,81,0
96120,note_on,0,0,1,,,,,,,,,1,,,79,49
96240,note_off,120,0,1,,,,,,,,,1,,,79,0
96240,note_on,0,0,1,,,,,,,,,1,,,78,49
96360,note_off,120,0,1,,,,,,,,,1,,,78,0
96360,note_on,0,0,1,,,,,,,,,1,,,76,49
96420,set_tempo,2820,1,0,,,,,,504201,,,,,,,
96456,note_off,96,0,1,,,,,,,,,1,,,76,0
96480,note_on,24,0,1,,,,,,,,,1,,,78,49
96480,set_tempo,60,1,0,,,,,,500000,,,,,,,
96480,note_on,1080,0,5,,,,,,,,,5,,,62,49
96600,note_on,0,0,1,,,,,,,,,1,,,74,48
96600,note_off,120,0,1,,,,,,,,,1,,,78,0
96720,note_off,120,0,1,,,,,,,,,1,,,74,0
96720,note_on,0,0,1,,,,,,,,,1,,,69,48
96720,note_on,1320,0,3,,,,,,,,,3,,,66,48
96840,note_off,120,0,1,,,,,,,,,1,,,69,0
96840,note_on,0,0,1,,,,,,,,,1,,,74,48
96960,note_off,120,0,1,,,,,,,,,1,,,74,0
96960,note_on,0,0,1,,,,,,,,,1,,,78,48
96960,note_on,0,0,3,,,,,,,,,3,,,69,48
96960,note_off,240,0,3,,,,,,,,,3,,,66,0
97080,note_off,120,0,1,,,,,,,,,1,,,78,0
97080,note_on,0,0,1,,,,,,,,,1,,,74,48
97200,note_off,120,0,1,,,,,,,,,1,,,74,0
97200,note_on,0,0,1,,,,,,,,,1,,,81,47
97200,note_off,240,0,3,,,,,,,,,3,,,69,0
97200,note_on,0,0,3,,,,,,,,,3,,,66,47
97320,note_off,120,0,1,,,,,,,,,1,,,81,0
97320,note_on,0,0,1,,,,,,,,,1,,,78,47
97440,note_off,120,0,1,,,,,,,,,1,,,78,0
97440,note_on,0,0,1,,,,,,,,,1,,,79,47
97440,note_on,0,0,3,,,,,,,,,3,,,64,47
97440,note_off,240,0,3,,,,,,,,,3,,,66,0
97560,note_on,0,0,1,,,,,,,,,1,,,76,47
97560,note_off,120,0,1,,,,,,,,,1,,,79,0
97680,note_off,120,0,1,,,,,,,,,1,,,76,0
97680,note_off,240,0,3,,,,,,,,,3,,,64,0
97680,note_on,0,0,3,,,,,,,,,3,,,67,47
97680,note_on,0,0,1,,,,,,,,,1,,,83,47
97800,note_on,0,0,1,,,,,,,,,1,,,79,46
97800,note_off,120,0,1,,,,,,,,,1,,,83,0
97890,note_off,1410,0,5,,,,,,,,,5,,,62,0
97920,note_on,30,0,5,,,,,,,,,5,,,62,46
97920,note_off,120,0,1,,,,,,,,,1,,,79,0
97920,note_on,0,0,1,,,,,,,,,1,,,81,46
97920,note_on,0,0,3,,,,,,,,,3,,,66,46
97920,note_off,240,0,3,,,,,,,,,3,,,67,0
98040,note_off,120,0,1,,,,,,,,,1,,,81,0
98040,note_on,0,0,1,,,,,,,,,1,,,78,46
98160,note_on,0,0,1,,,,,,,,,1,,,74,46
98160,note_off,120,0,1,,,,,,,,,1,,,78,0
98280,note_on,0,0,1,,,,,,,,,1,,,73,46
98280,note_off,120,0,1,,,,,,,,,1,,,74,0
98280,note_off,360,0,5,,,,,,,,,5,,,62,0
98280,note_off,360,0,3,,,,,,,,,3,,,66,0
98400,note_on,0,0,1,,,,,,,,,1,,,76,47
98400,note_off,120,0,1,,,,,,,,,1,,,73,0
98520,note_on,0,0,1,,,,,,,,,1,,,74,49
98520,note_off,120,0,1,,,,,,,,,1,,,76,0
98640,note_on,0,0,1,,,,,,,,,1,,,78,50
98640,note_off,120,0,1,,,,,,,,,1,,,74,0
98760,note_off,120,0,1,,,,,,,,,1,,,78,0
98760,note_on,0,0,1,,,,,,,,,1,,,76,52
98880,note_off,120,0,1,,,,,,,,,1,,,76,0
98880,note_on,0,0,1,,,,,,,,,1,,,79,54
99000,note_off,120,0,1,,,,,,,,,1,,,79,0
99000,note_on,0,0,1,,,,,,,,,1,,,78,57
99120,note_off,120,0,1,,,,,,,,,1,,,78,0
99120,note_on,0,0,1,,,,,,,,,1,,,81,59
99240,note_off,120,0,1,,,,,,,,,1,,,81,0
99240,note_on,0,0,1,,,,,,,,,1,,,79,62
99300,set_tempo,2820,1,0,,,,,,504201,,,,,,,
99336,note_off,96,0,1,,,,,,,,,1,,,79,0
99360,note_on,1080,0,5,,,,,,,,,5,,,62,67
99360,note_on,24,0,1,,,,,,,,,1,,,83,67
99360,set_tempo,60,1,0,,,,,,500000,,,,,,,
99480,note_off,120,0,1,,,,,,,,,1,,,83,0
99480,note_on,0,0,1,,,,,,,,,1,,,81,67
99600,note_off,120,0,1,,,,,,,,,1,,,81,0
99600,note_on,0,0,1,,,,,,,,,1,,,79,67
99600,note_on,1320,0,3,,,,,,,,,3,,,66,67
99720,note_on,0,0,1,,,,,,,,,1,,,78,67
99720,note_off,120,0,1,,,,,,,,,1,,,79,0
99835,note_off,235,0,3,,,,,,,,,3,,,66,0
99840,note_on,0,0,1,,,,,,,,,1,,,76,66
99840,note_on,5,0,3,,,,,,,,,3,,,69,66
99840,note_off,120,0,1,,,,,,,,,1,,,78,0
99960,note_on,0,0,1,,,,,,,,,1,,,74,66
99960,note_off,120,0,1,,,,,,,,,1,,,76,0
100075,note_off,235,0,3,,,,,,,,,3,,,69,0
100080,note_on,0,0,1,,,,,,,,,1,,,73,66
100080,note_on,5,0,3,,,,,,,,,3,,,66,66
100080,note_off,120,0,1,,,,,,,,,1,,,74,0
100200,note_off,120,0,1,,,,,,,,,1,,,73,0
100200,note_on,0,0,1,,,,,,,,,1,,,74,65
100315,note_off,235,0,3,,,,,,,,,3,,,66,0
100320,note_off,120,0,1,,,,,,,,,1,,,74,0
100320,note_on,5,0,3,,,,,,,,,3,,,67,65
100320,note_on,0,0,1,,,,,,,,,1,,,83,65
100440,note_on,0,0,1,,,,,,,,,1,,,85,65
100440,note_off,120,0,1,,,,,,,,,1,,,83,0
100555,note_off,235,0,3,,,,,,,,,3,,,67,0
100560,note_on,0,0,1,,,,,,,,,1,,,86,65
100560,note_on,5,0,3,,,,,,,,,3,,,71,65
100560,note_off,120,0,1,,,,,,,,,1,,,85,0
100680,note_on,0,0,1,,,,,,,,,1,,,83,64
100680,note_off,120,0,1,,,,,,,,,1,,,86,0
100752,note_off,192,0,3,,,,,,,,,3,,,71,0
100770,note_off,1410,0,5,,,,,,,,,5,,,62,0
100776,note_off,96,0,1,,,,,,,,,1,,,83,0
100800,note_on,24,0,1,,,,,,,,,1,,,80,64
100800,note_on,30,0,5,,,,,,,,,5,,,62,64
100920,note_on,0,0,1,,,,,,,,,1,,,81,64
100920,note_off,120,0,1,,,,,,,,,1,,,80,0
101040,note_off,120,0,1,,,,,,,,,1,,,81,0
101040,note_on,0,0,1,,,,,,,,,1,,,83,64
101040,note_on,288,0,3,,,,,,,,,3,,,66,64
101160,note_on,0,0,1,,,,,,,,,1,,,81,63
101160,note_off,120,0,1,,,,,,,,,1,,,83,0
101275,note_off,235,0,3,,,,,,,,,3,,,66,0
101280,note_on,5,0,3,,,,,,,,,3,,,69,63
101280,note_off,120,0,1,,,,,,,,,1,,,81,0
101280,note_on,0,0,1,,,,,,,,,1,,,79,63
101400,note_on,0,0,1,,,,,,,,,1,,,78,63
101400,note_off,120,0,1,,,,,,,,,1,,,79,0
101515,note_off,235,0,3,,,,,,,,,3,,,69,0
101520,note_on,0,0,1,,,,,,,,,1,,,76,63
101520,note_off,120,0,1,,,,,,,,,1,,,78,0
101520,note_on,5,0,3,,,,,,,,,3,,,66,63
101640,note_on,0,0,1,,,,,,,,,1,,,74,62
101640,note_off,120,0,1,,,,,,,,,1,,,76,0
101755,note_off,235,0,3,,,,,,,,,3,,,66,0
101760,note_on,0,0,1,,,,,,,,,1,,,83,62
101760,note_off,120,0,1,,,,,,,,,1,,,74,0
101760,note_on,5,0,3,,,,,,,,,3,,,67,62
101880,note_on,0,0,1,,,,,,,,,1,,,85,62
101880,note_off,120,0,1,,,,,,,,,1,,,83,0
101995,note_off,235,0,3,,,,,,,,,3,,,67,0
102000,note_on,5,0,3,,,,,,,,,3,,,71,61
102000,note_on,0,0,1,,,,,,,,,1,,,86,61
102000,note_off,120,0,1,,,,,,,,,1,,,85,0
102120,note_on,0,0,1,,,,,,,,,1,,,83,61
102120,note_off,120,0,1,,,,,,,,,1,,,86,0
102192,note_off,192,0,3,,,,,,,,,3,,,71,0
102210,note_off,1410,0,5,,,,,,,,,5,,,62,0
102216,note_off,96,0,1,,,,,,,,,1,,,83,0
102240,note_on,24,0,1,,,,,,,,,1,,,83,61
102240,note_on,30,0,5,,,,,,,,,5,,,62,61
102240,note_on,48,0,3,,,,,,,,,3,,,66,61
102360,note_on,0,0,1,,,,,,,,,1,,,81,61
102360,note_off,120,0,1,,,,,,,,,1,,,83,0
102480,note_on,0,0,1,,,,,,,,,1,,,86,60
102480,note_off,120,0,1,,,,,,,,,1,,,81,0
102480,note_off,240,0,3,,,,,,,,,3,,,66,0
102600,note_on,0,0,1,,,,,,,,,1,,,81,60
102600,note_off,120,0,1,,,,,,,,,1,,,86,0
102696,note_off,96,0,1,,,,,,,,,1,,,81,0
102720,note_on,240,0,3,,,,,,,,,3,,,64,60
102720,note_on,0,0,5,,,,,,,,,5,,,61,60
102720,note_off,480,0,5,,,,,,,,,5,,,62,0
102720,note_on,24,0,1,,,,,,,,,1,,,81,60
102840,note_on,0,0,1,,,,,,,,,1,,,79,60
102840,note_off,120,0,1,,,,,,,,,1,,,81,0
102960,note_off,120,0,1,,,,,,,,,1,,,79,0
102960,note_on,0,0,1,,,,,,,,,1,,,88,59
102960,note_off,240,0,3,,,,,,,,,3,,,64,0
103080,note_off,120,0,1,,,,,,,,,1,,,88,0
103080,note_on,0,0,1,,,,,,,,,1,,,79,59
103176,note_off,96,0,1,,,,,,,,,1,,,79,0
103200,note_on,24,0,1,,,,,,,,,1,,,79,59
103200,note_on,240,0,3,,,,,,,,,3,,,66,59
103200,note_on,0,0,5,,,,,,,,,5,,,62,59
103200,note_off,480,0,5,,,,,,,,,5,,,61,0
103320,note_off,120,0,1,,,,,,,,,1,,,79,0
103320,note_on,0,0,1,,,,,,,,,1,,,78,58
103440,note_off,120,0,1,,,,,,,,,1,,,78,0
103440,note_on,0,0,1,,,,,,,,,1,,,86,58
103440,note_off,240,0,3,,,,,,,,,3,,,66,0
103560,note_off,120,0,1,,,,,,,,,1,,,86,0
103560,note_on,0,0,1,,,,,,,,,1,,,78,58
103656,note_off,96,0,1,,,,,,,,,1,,,78,0
103680,note_on,240,0,3,,,,,,,,,3,,,61,59
103680,note_off,480,0,5,,,,,,,,,5,,,62,0
103680,note_on,0,0,5,,,,,,,,,5,,,57,59
103680,note_on,24,0,1,,,,,,,,,1,,,78,59
103800,note_off,120,0,1,,,,,,,,,1,,,78,0
103800,note_on,0,0,1,,,,,,,,,1,,,76,58
103920,note_on,0,0,1,,,,,,,,,1,,,75,58
103920,note_off,120,0,1,,,,,,,,,1,,,76,0
104040,note_on,0,0,1,,,,,,,,,1,,,76,57
104040,note_off,120,0,1,,,,,,,,,1,,,75,0
104040,note_off,360,0,5,,,,,,,,,5,,,57,0
104040,note_off,360,0,3,,,,,,,,,3,,,61,0
104160,note_on,0,0,1,,,,,,,,,1,,,74,57
104160,note_off,120,0,1,,,,,,,,,1,,,76,0
104280,note_on,0,0,1,,,,,,,,,1,,,73,56
104280,note_off,120,0,1,,,,,,,,,1,,,74,0
104400,note_off,120,0,1,,,,,,,,,1,,,73,0
104400,note_on,0,0,1,,,,,,,,,1,,,72,55
104520,note_off,120,0,1,,,,,,,,,1,,,72,0
104520,note_on,0,0,1,,,,,,,,,1,,,73,55
104640,note_off,120,0,1,,,,,,,,,1,,,73,0
104640,note_on,0,0,1,,,,,,,,,1,,,71,54
104760,note_on,0,0,1,,,,,,,,,1,,,69,53
104760,note_off,120,0,1,,,,,,,,,1,,,71,0
104880,note_off,120,0,1,,,,,,,,,1,,,69,0
104880,note_on,0,0,1,,,,,,,,,1,,,68,53
105000,set_tempo,5640,1,0,,,,,,508474,,,,,,,
105000,note_off,120,0,1,,,,,,,,,1,,,68,0
105000,note_on,0,0,1,,,,,,,,,1,,,69,52
105096,note_off,96,0,1,,,,,,,,,1,,,69,0
105120,control_change,11520,0,2,,,,,,,64,0,2,,,,
105120,note_on,0,0,3,,,,,,,,,3,,,66,55
105120,control_change,1080,0,3,,,,,,,64,0,3,,,,
105120,control_change,11520,0,4,,,,,,,64,0,4,,,,
105120,set_tempo,120,1,0,,,,,,500000,,,,,,,
105120,control_change,1080,0,5,,,,,,,64,0,5,,,,
105120,note_on,0,0,5,,,,,,,,,5,,,62,55
105120,control_change,24,0,1,,,,,,,64,0,1,,,,
105120,note_on,0,0,1,,,,,,,,,1,,,83,55
105240,note_off,120,0,1,,,,,,,,,1,,,83,0
105240,note_on,0,0,1,,,,,,,,,1,,,81,55
105360,note_off,120,0,1,,,,,,,,,1,,,81,0
105360,note_off,240,0,3,,,,,,,,,3,,,66,0
105360,note_on,0,0,3,,,,,,,,,3,,,69,55
105360,note_on,0,0,1,,,,,,,,,1,,,80,54
105480,note_on,0,0,1,,,,,,,,,1,,,81,54
105480,note_off,120,0,1,,,,,,,,,1,,,80,0
105600,note_off,120,0,1,,,,,,,,,1,,,81,0
105600,note_on,0,0,1,,,,,,,,,1,,,80,53
105600,note_on,0,0,3,,,,,,,,,3,,,66,54
105600,note_off,240,0,3,,,,,,,,,3,,,69,0
105720,note_off,120,0,1,,,,,,,,,1,,,80,0
105720,note_on,0,0,1,,,,,,,,,1,,,81,53
105840,note_off,240,0,3,,,,,,,,,3,,,66,0
105840,note_on,0,0,3,,,,,,,,,3,,,69,54
105840,note_on,0,0,1,,,,,,,,,1,,,80,52
105840,note_off,120,0,1,,,,,,,,,1,,,81,0
105960,note_off,120,0,1,,,,,,,,,1,,,80,0
105960,note_on,0,0,1,,,,,,,,,1,,,81,52
106080,note_off,240,0,3,,,,,,,,,3,,,69,0
106080,note_off,120,0,1,,,,,,,,,1,,,81,0
106080,note_on,0,0,3,,,,,,,,,3,,,66,53
106080,note_on,0,0,1,,,,,,,,,1,,,83,51
106200,note_on,0,0,1,,,,,,,,,1,,,81,51
106200,note_off,120,0,1,,,,,,,,,1,,,83,0
106320,note_on,0,0,1,,,,,,,,,1,,,86,50
106320,note_off,120,0,1,,,,,,,,,1,,,81,0
106320,note_on,0,0,3,,,,,,,,,3,,,69,53
106320,note_off,240,0,3,,,,,,,,,3,,,66,0
106440,note_on,0,0,1,,,,,,,,,1,,,81,50
106440,note_off,120,0,1,,,,,,,,,1,,,86,0
106512,note_off,192,0,3,,,,,,,,,3,,,69,0
106530,note_off,1410,0,5,,,,,,,,,5,,,62,0
106536,note_off,96,0,1,,,,,,,,,1,,,81,0
106560,note_on,48,0,3,,,,,,,,,3,,,66,52
106560,note_on,30,0,5,,,,,,,,,5,,,62,52
106560,note_on,24,0,1,,,,,,,,,1,,,79,53
106680,note_on,0,0,1,,,,,,,,,1,,,78,53
106680,note_off,120,0,1,,,,,,,,,1,,,79,0
106800,note_off,240,0,3,,,,,,,,,3,,,66,0
106800,note_off,120,0,1,,,,,,,,,1,,,78,0
106800,note_on,0,0,1,,,,,,,,,1,,,77,52
106800,note_on,0,0,3,,,,,,,,,3,,,69,52
106920,note_off,120,0,1,,,,,,,,,1,,,77,0
106920,note_on,0,0,1,,,,,,,,,1,,,78,52
107040,note_off,240,0,3,,,,,,,,,3,,,69,0
107040,note_on,0,0,3,,,,,,,,,3,,,66,51
107040,note_off,120,0,1,,,,,,,,,1,,,78,0
107040,note_on,0,0,1,,,,,,,,,1,,,77,51
107160,note_off,120,0,1,,,,,,,,,1,,,77,0
107160,note_on,0,0,1,,,,,,,,,1,,,78,50
107280,note_off,240,0,3,,,,,,,,,3,,,66,0
107280,note_on,0,0,1,,,,,,,,,1,,,77,50
107280,note_on,0,0,3,,,,,,,,,3,,,69,51
107280,note_off,120,0,1,,,,,,,,,1,,,78,0
107400,note_off,120,0,1,,,,,,,,,1,,,77,0
107400,note_on,0,0,1,,,,,,,,,1,,,78,49
107520,note_off,120,0,1,,,,,,,,,1,,,78,0
107520,note_on,0,0,1,,,,,,,,,1,,,81,49
107520,note_off,240,0,3,,,,,,,,,3,,,69,0
107520,note_on,0,0,3,,,,,,,,,3,,,66,50
107640,note_off,120,0,1,,,,,,,,,1,,,81,0
107640,note_on,0,0,1,,,,,,,,,1,,,78,48
107760,note_off,240,0,3,,,,,,,,,3,,,66,0
107760,note_on,0,0,3,,,,,,,,,3,,,69,50
107760,note_on,0,0,1,,,,,,,,,1,,,77,48
107760,note_off,120,0,1,,,,,,,,,1,,,78,0
107880,note_on,0,0,1,,,,,,,,,1,,,78,50
107880,note_off,120,0,1,,,,,,,,,1,,,77,0
107952,note_off,192,0,3,,,,,,,,,3,,,69,0
107970,note_off,1410,0,5,,,,,,,,,5,,,62,0
107976,note_off,96,0,1,,,,,,,,,1,,,78,0
108000,note_on,24,0,1,,,,,,,,,1,,,76,49
108000,note_on,30,0,5,,,,,,,,,5,,,57,49
108000,note_on,48,0,3,,,,,,,,,3,,,66,49
108120,note_on,0,0,1,,,,,,,,,1,,,74,49
108120,note_off,120,0,1,,,,,,,,,1,,,76,0
108240,note_off,120,0,1,,,,,,,,,1,,,74,0
108240,note_off,240,0,3,,,,,,,,,3,,,66,0
108240,note_on,0,0,1,,,,,,,,,1,,,73,49
108240,note_on,0,0,3,,,,,,,,,3,,,69,49
108360,note_on,0,0,1,,,,,,,,,1,,,74,49
108360,note_off,120,0,1,,,,,,,,,1,,,73,0
108480,note_on,0,0,3,,,,,,,,,3,,,66,48
108480,note_off,120,0,1,,,,,,,,,1,,,74,0
108480,note_on,0,0,1,,,,,,,,,1,,,76,48
108480,note_off,240,0,3,,,,,,,,,3,,,69,0
108600,note_off,120,0,1,,,,,,,,,1,,,76,0
108600,note_on,0,0,1,,,,,,,,,1,,,74,48
108720,note_off,240,0,3,,,,,,,,,3,,,66,0
108720,note_on,0,0,3,,,,,,,,,3,,,69,48
108720,note_off,120,0,1,,,,,,,,,1,,,74,0
108720,note_on,0,0,1,,,,,,,,,1,,,73,48
108840,note_off,120,0,1,,,,,,,,,1,,,73,0
108840,note_on,0,0,1,,,,,,,,,1,,,74,48
108960,note_on,0,0,5,,,,,,,,,5,,,61,47
108960,note_off,960,0,5,,,,,,,,,5,,,57,0
108960,note_off,240,0,3,,,,,,,,,3,,,69,0
108960,note_on,0,0,3,,,,,,,,,3,,,67,47
108960,note_off,120,0,1,,,,,,,,,1,,,74,0
108960,note_on,0,0,1,,,,,,,,,1,,,78,47
109080,note_off,120,0,1,,,,,,,,,1,,,78,0
109080,note_on,0,0,1,,,,,,,,,1,,,76,47
109200,note_on,0,0,1,,,,,,,,,1,,,75,47
109200,note_off,120,0,1,,,,,,,,,1,,,76,0
109200,note_off,240,0,3,,,,,,,,,3,,,67,0
109200,note_on,0,0,3,,,,,,,,,3,,,69,47
109320,note_on,0,0,1,,,,,,,,,1,,,76,47
109320,note_off,120,0,1,,,,,,,,,1,,,75,0
109392,note_off,192,0,3,,,,,,,,,3,,,69,0
109417,note_off,457,0,5,,,,,,,,,5,,,61,0
109440,note_on,0,0,1,,,,,,,,,1,,,78,46
109440,note_on,23,0,5,,,,,,,,,5,,,62,46
109440,note_on,48,0,3,,,,,,,,,3,,,66,46
109440,note_off,120,0,1,,,,,,,,,1,,,76,0
109560,note_off,120,0,1,,,,,,,,,1,,,78,0
109560,note_on,0,0,1,,,,,,,,,1,,,74,47
109680,note_off,120,0,1,,,,,,,,,1,,,74,0
109680,note_on,0,0,1,,,,,,,,,1,,,73,49
109800,note_on,0,0,1,,,,,,,,,1,,,76,51
109800,note_off,120,0,1,,,,,,,,,1,,,73,0
109800,note_off,360,0,3,,,,,,,,,3,,,66,0
109800,note_off,360,0,5,,,,,,,,,5,,,62,0
109920,note_on,0,0,1,,,,,,,,,1,,,74,53
109920,note_off,120,0,1,,,,,,,,,1,,,76,0
110040,note_on,0,0,1,,,,,,,,,1,,,78,55
110040,note_off,120,0,1,,,,,,,,,1,,,74,0
110160,note_on,0,0,1,,,,,,,,,1,,,76,57
110160,note_off,120,0,1,,,,,,,,,1,,,78,0
110280,note_off,120,0,1,,,,,,,,,1,,,76,0
110280,note_on,0,0,1,,,,,,,,,1,,,79,59
110400,note_off,120,0,1,,,,,,,,,1,,,79,0
110400,note_on,0,0,1,,,,,,,,,1,,,78,60
110520,note_on,0,0,1,,,,,,,,,1,,,81,62
110520,note_off,120,0,1,,,,,,,,,1,,,78,0
110640,note_on,0,0,1,,,,,,,,,1,,,79,64
110640,note_off,120,0,1,,,,,,,,,1,,,81,0
110760,note_off,120,0,1,,,,,,,,,1,,,79,0
110760,note_on,0,0,1,,,,,,,,,1,,,83,66
110820,set_tempo,5700,1,0,,,,,,504201,,,,,,,
110856,note_off,96,0,1,,,,,,,,,1,,,83,0
110880,note_on,24,0,1,,,,,,,,,1,,,80,75
110880,set_tempo,60,1,0,,,,,,500000,,,,,,,
110880,note_on,1080,0,5,,,,,,,,,5,,,62,75
110880,note_on,1080,0,3,,,,,,,,,3,,,66,75
111000,note_off,120,0,1,,,,,,,,,1,,,80,0
111000,note_on,0,0,1,,,,,,,,,1,,,81,75
111120,note_off,120,0,1,,,,,,,,,1,,,81,0
111120,note_on,0,0,3,,,,,,,,,3,,,69,75
111120,note_off,240,0,3,,,,,,,,,3,,,66,0
111120,note_on,0,0,1,,,,,,,,,1,,,83,75
111240,note_on,0,0,1,,,,,,,,,1,,,81,75
111240,note_off,120,0,1,,,,,,,,,1,,,83,0
111360,note_on,0,0,3,,,,,,,,,3,,,66,75
111360,note_off,240,0,3,,,,,,,,,3,,,69,0
111360,note_off,120,0,1,,,,,,,,,1,,,81,0
111360,note_on,0,0,1,,,,,,,,,1,,,83,75
111480,note_off,120,0,1,,,,,,,,,1,,,83,0
111480,note_on,0,0,1,,,,,,,,,1,,,81,75
111600,note_off,240,0,3,,,,,,,,,3,,,66,0
111600,note_off,120,0,1,,,,,,,,,1,,,81,0
111600,note_on,0,0,1,,,,,,,,,1,,,83,74
111600,note_on,0,0,3,,,,,,,,,3,,,69,74
111720,note_on,0,0,1,,,,,,,,,1,,,81,74
111720,note_off,120,0,1,,,,,,,,,1,,,83,0
111840,note_off,120,0,1,,,,,,,,,1,,,81,0
111840,note_off,240,0,3,,,,,,,,,3,,,69,0
111840,note_on,0,0,3,,,,,,,,,3,,,66,74
111840,note_on,0,0,1,,,,,,,,,1,,,80,74
111960,note_off,120,0,1,,,,,,,,,1,,,80,0
111960,note_on,0,0,1,,,,,,,,,1,,,81,74
112080,note_off,240,0,3,,,,,,,,,3,,,66,0
112080,note_on,0,0,3,,,,,,,,,3,,,69,74
112080,note_off,120,0,1,,,,,,,,,1,,,81,0
112080,note_on,0,0,1,,,,,,,,,1,,,86,74
112200,note_off,120,0,1,,,,,,,,,1,,,86,0
112200,note_on,0,0,1,,,,,,,,,1,,,81,74
112272,note_off,192,0,3,,,,,,,,,3,,,69,0
112290,note_off,1410,0,5,,,,,,,,,5,,,62,0
112296,note_off,96,0,1,,,,,,,,,1,,,81,0
112320,note_on,48,0,3,,,,,,,,,3,,,66,73
112320,note_on,30,0,5,,,,,,,,,5,,,62,73
112320,note_on,24,0,1,,,,,,,,,1,,,77,73
112440,note_off,120,0,1,,,,,,,,,1,,,77,0
112440,note_on,0,0,1,,,,,,,,,1,,,78,73
112560,note_off,240,0,3,,,,,,,,,3,,,66,0
112560,note_on,0,0,3,,,,,,,,,3,,,69,73
112560,note_on,0,0,1,,,,,,,,,1,,,79,73
112560,note_off,120,0,1,,,,,,,,,1,,,78,0
112680,note_on,0,0,1,,,,,,,,,1,,,78,73
112680,note_off,120,0,1,,,,,,,,,1,,,79,0
112800,note_on,0,0,1,,,,,,,,,1,,,79,73
112800,note_off,120,0,1,,,,,,,,,1,,,78,0
112800,note_off,240,0,3,,,,,,,,,3,,,69,0
112800,note_on,0,0,3,,,,,,,,,3,,,66,73
112920,note_on,0,0,1,,,,,,,,,1,,,78,73
112920,note_off,120,0,1,,,,,,,,,1,,,79,0
113040,note_off,240,0,3,,,,,,,,,3,,,66,0
113040,note_on,0,0,3,,,,,,,,,3,,,69,72
113040,note_off,120,0,1,,,,,,,,,1,,,78,0
113040,note_on,0,0,1,,,,,,,,,1,,,79,72
113160,note_off,120,0,1,,,,,,,,,1,,,79,0
113160,note_on,0,0,1,,,,,,,,,1,,,78,72
113280,note_off,120,0,1,,,,,,,,,1,,,78,0
113280,note_off,240,0,3,,,,,,,,,3,,,69,0
113280,note_on,0,0,3,,,,,,,,,3,,,66,72
113280,note_on,0,0,1,,,,,,,,,1,,,77,72
113400,note_on,0,0,1,,,,,,,,,1,,,78,72
113400,note_off,120,0,1,,,,,,,,,1,,,77,0
113520,note_on,0,0,1,,,,,,,,,1,,,81,72
113520,note_off,120,0,1,,,,,,,,,1,,,78,0
113520,note_on,0,0,3,,,,,,,,,3,,,69,72
113520,note_off,240,0,3,,,,,,,,,3,,,66,0
113640,note_on,0,0,1,,,,,,,,,1,,,78,72
113640,note_off,120,0,1,,,,,,,,,1,,,81,0
113712,note_off,192,0,3,,,,,,,,,3,,,69,0
113730,note_off,1410,0,5,,,,,,,,,5,,,62,0
113736,note_off,96,0,1,,,,,,,,,1,,,78,0
113760,note_on,48,0,3,,,,,,,,,3,,,66,71
113760,note_on,24,0,1,,,,,,,,,1,,,73,71
113760,note_on,30,0,5,,,,,,,,,5,,,57,71
113880,note_off,120,0,1,,,,,,,,,1,,,73,0
113880,note_on,0,0,1,,,,,,,,,1,,,74,71
114000,note_off,120,0,1,,,,,,,,,1,,,74,0
114000,note_off,240,0,3,,,,,,,,,3,,,66,0
114000,note_on,0,0,1,,,,,,,,,1,,,76,71
114000,note_on,0,0,3,,,,,,,,,3,,,69,71
114120,note_on,0,0,1,,,,,,,,,1,,,74,71
114120,note_off,120,0,1,,,,,,,,,1,,,76,0
114240,note_off,240,0,3,,,,,,,,,3,,,69,0
114240,note_on,0,0,3,,,,,,,,,3,,,66,71
114240,note_off,120,0,1,,,,,,,,,1,,,74,0
114240,note_on,0,0,1,,,,,,,,,1,,,73,71
114360,note_off,120,0,1,,,,,,,,,1,,,73,0
114360,note_on,0,0,1,,,,,,,,,1,,,74,71
114480,note_on,0,0,1,,,,,,,,,1,,,76,70
114480,note_on,0,0,3,,,,,,,,,3,,,69,70
114480,note_off,240,0,3,,,,,,,,,3,,,66,0
114480,note_off,120,0,1,,,,,,,,,1,,,74,0
114600,note_on,0,0,1,,,,,,,,,1,,,74,70
114600,note_off,120,0,1,,,,,,,,,1,,,76,0
114720,note_on,0,0,5,,,,,,,,,5,,,61,70
114720,note_off,960,0,5,,,,,,,,,5,,,57,0
114720,note_off,120,0,1,,,,,,,,,1,,,74,0
114720,note_on,0,0,1,,,,,,,,,1,,,75,70
114720,note_off,240,0,3,,,,,,,,,3,,,69,0
114720,note_on,0,0,3,,,,,,,,,3,,,67,70
114840,note_on,0,0,1,,,,,,,,,1,,,76,70
114840,note_off,120,0,1,,,,,,,,,1,,,75,0
114960,note_on,0,0,1,,,,,,,,,1,,,78,70
114960,note_off,120,0,1,,,,,,,,,1,,,76,0
114960,note_on,0,0,3,,,,,,,,,3,,,69,70
114960,note_off,240,0,3,,,,,,,,,3,,,67,0
115080,note_on,0,0,1,,,,,,,,,1,,,76,69
115080,note_off,120,0,1,,,,,,,,,1,,,78,0
115152,note_off,192,0,3,,,,,,,,,3,,,69,0
115176,note_off,96,0,1,,,,,,,,,1,,,76,0
115177,note_off,457,0,5,,,,,,,,,5,,,61,0
115200,note_on,24,0,1,,,,,,,,,1,,,76,69
115200,note_on,48,0,3,,,,,,,,,3,,,66,69
115200,note_on,23,0,5,,,,,,,,,5,,,62,69
115320,note_off,120,0,1,,,,,,,,,1,,,76,0
115320,note_on,0,0,1,,,,,,,,,1,,,74,67
115440,note_off,120,0,1,,,,,,,,,1,,,74,0
115440,note_on,0,0,1,,,,,,,,,1,,,73,67
115560,note_off,360,0,3,,,,,,,,,3,,,66,0
115560,note_on,0,0,1,,,,,,,,,1,,,71,66
115560,note_off,360,0,5,,,,,,,,,5,,,62,0
115560,note_off,120,0,1,,,,,,,,,1,,,73,0
115680,note_off,120,0,1,,,,,,,,,1,,,71,0
115680,note_on,0,0,1,,,,,,,,,1,,,69,65
115800,note_off,120,0,1,,,,,,,,,1,,,69,0
115800,note_on,0,0,1,,,,,,,,,1,,,67,65
115920,note_off,120,0,1,,,,,,,,,1,,,67,0
115920,note_on,0,0,1,,,,,,,,,1,,,66,64
116040,note_on,0,0,1,,,,,,,,,1,,,64,63
116040,note_off,120,0,1,,,,,,,,,1,,,66,0
116160,note_off,120,0,1,,,,,,,,,1,,,64,0
116160,note_on,0,0,1,,,,,,,,,1,,,62,63
116160,set_tempo,5280,1,0,,,,,,504201,,,,,,,
116400,set_tempo,240,1,0,,,,,,540540,,,,,,,
116520,note_off,360,0,1,,,,,,,,,1,,,62,0
116640,note_on,0,0,5,,,,,,,,,5,,,57,53
116640,control_change,1080,0,5,,,,,,,64,0,5,,,,
116640,control_change,120,0,1,,,,,,,64,0,1,,,,
116640,control_change,11520,0,4,,,,,,,64,0,4,,,,
116640,note_on,0,0,1,,,,,,,,,1,,,76,53
116640,control_change,11520,0,2,,,,,,,64,0,2,,,,
116640,set_tempo,240,1,0,,,,,,500000,,,,,,,
116640,control_change,1080,0,3,,,,,,,64,0,3,,,,
116640,marker,0,1,0,,,,,,,,,,,,,
116760,note_on,0,0,1,,,,,,,,,1,,,73,53
116760,note_off,120,0,1,,,,,,,,,1,,,76,0
116880,note_on,240,0,3,,,,,,,,,3,,,64,53
116880,note_off,120,0,1,,,,,,,,,1,,,73,0
116880,note_on,0,0,1,,,,,,,,,1,,,69,53
117000,note_off,120,0,1,,,,,,,,,1,,,69,0
117000,note_on,0,0,1,,,,,,,,,1,,,73,53
117120,note_off,120,0,1,,,,,,,,,1,,,73,0
117120,note_off,240,0,3,,,,,,,,,3,,,64,0
117120,note_on,0,0,3,,,,,,,,,3,,,61,53
117120,note_on,0,0,1,,,,,,,,,1,,,76,53
117240,note_off,120,0,1,,,,,,,,,1,,,76,0
117240,note_on,0,0,1,,,,,,,,,1,,,73,52
117360,note_on,0,0,1,,,,,,,,,1,,,79,52
117360,note_off,240,0,3,,,,,,,,,3,,,61,0
117360,note_on,0,0,3,,,,,,,,,3,,,64,52
117360,note_off,120,0,1,,,,,,,,,1,,,73,0
117480,note_off,120,0,1,,,,,,,,,1,,,79,0
117480,note_on,0,0,1,,,,,,,,,1,,,76,52
117600,note_off,240,0,3,,,,,,,,,3,,,64,0
117600,note_on,0,0,3,,,,,,,,,3,,,62,52
117600,note_on,0,0,1,,,,,,,,,1,,,78,52
117600,note_off,120,0,1,,,,,,,,,1,,,76,0
117720,note_off,120,0,1,,,,,,,,,1,,,78,0
117720,note_on,0,0,1,,,,,,,,,1,,,74,52
117840,note_off,120,0,1,,,,,,,,,1,,,74,0
117840,note_off,240,0,3,,,,,,,,,3,,,62,0
117840,note_on,0,0,3,,,,,,,,,3,,,66,51
117840,note_on,0,0,1,,,,,,,,,1,,,81,51
117960,note_off,120,0,1,,,,,,,,,1,,,81,0
117960,note_on,0,0,1,,,,,,,,,1,,,78,51
118050,note_off,1410,0,5,,,,,,,,,5,,,57,0
118080,note_on,0,0,3,,,,,,,,,3,,,64,51
118080,note_off,240,0,3,,,,,,,,,3,,,66,0
118080,note_off,120,0,1,,,,,,,,,1,,,78,0
118080,note_on,30,0,5,,,,,,,,,5,,,57,51
118080,note_on,0,0,1,,,,,,,,,1,,,79,51
118200,note_off,120,0,1,,,,,,,,,1,,,79,0
118200,note_on,0,0,1,,,,,,,,,1,,,76,51
118320,note_on,0,0,1,,,,,,,,,1,,,85,51
118320,note_off,120,0,1,,,,,,,,,1,,,76,0
118440,note_on,0,0,1,,,,,,,,,1,,,79,50
118440,note_off,360,0,3,,,,,,,,,3,,,64,0
118440,note_off,360,0,5,,,,,,,,,5,,,57,0
118440,note_off,120,0,1,,,,,,,,,1,,,85,0
118560,note_off,120,0,1,,,,,,,,,1,,,79,0
118560,note_on,0,0,1,,,,,,,,,1,,,88,50
118680,note_off,120,0,1,,,,,,,,,1,,,88,0
118680,note_on,0,0,1,,,,,,,,,1,,,86,50
118800,note_off,120,0,1,,,,,,,,,1,,,86,0
118800,note_on,0,0,1,,,,,,,,,1,,,85,50
118920,note_off,120,0,1,,,,,,,,,1,,,85,0
118920,note_on,0,0,1,,,,,,,,,1,,,83,50
119040,note_on,0,0,1,,,,,,,,,1,,,81,49
119040,note_off,120,0,1,,,,,,,,,1,,,83,0
119160,note_on,0,0,1,,,,,,,,,1,,,79,49
119160,note_off,120,0,1,,,,,,,,,1,,,81,0
119280,note_on,0,0,1,,,,,,,,,1,,,78,49
119280,note_off,120,0,1,,,,,,,,,1,,,79,0
119400,note_off,120,0,1,,,,,,,,,1,,,78,0
119400,note_on,0,0,1,,,,,,,,,1,,,76,49
119460,set_tempo,2820,1,0,,,,,,504201,,,,,,,
119496,note_off,96,0,1,,,,,,,,,1,,,76,0
119520,note_on,1080,0,5,,,,,,,,,5,,,62,49
119520,note_on,24,0,1,,,,,,,,,1,,,78,49
119520,set_tempo,60,1,0,,,,,,500000,,,,,,,
119640,note_off,120,0,1,,,,,,,,,1,,,78,0
119640,note_on,0,0,1,,,,,,,,,1,,,74,48
119760,note_on,1320,0,3,,,,,,,,,3,,,66,48
119760,note_on,0,0,1,,,,,,,,,1,,,69,48
119760,note_off,120,0,1,,,,,,,,,1,,,74,0
119880,note_on,0,0,1,,,,,,,,,1,,,74,48
119880,note_off,120,0,1,,,,,,,,,1,,,69,0
120000,note_off,120,0,1,,,,,,,,,1,,,74,0
120000,note_on,0,0,1,,,,,,,,,1,,,78,48
120000,note_off,240,0,3,,,,,,,,,3,,,66,0
120000,note_on,0,0,3,,,,,,,,,3,,,69,48
120120,note_off,120,0,1,,,,,,,,,1,,,78,0
120120,note_on,0,0,1,,,,,,,,,1,,,74,48
120240,note_on,0,0,3,,,,,,,,,3,,,66,47
120240,note_off,240,0,3,,,,,,,,,3,,,69,0
120240,note_off,120,0,1,,,,,,,,,1,,,74,0
120240,note_on,0,0,1,,,,,,,,,1,,,81,47
120360,note_off,120,0,1,,,,,,,,,1,,,81,0
120360,note_on,0,0,1,,,,,,,,,1,,,78,47
120480,note_on,0,0,3,,,,,,,,,3,,,64,47
120480,note_off,120,0,1,,,,,,,,,1,,,78,0
120480,note_off,240,0,3,,,,,,,,,3,,,66,0
120480,note_on,0,0,1,,,,,,,,,1,,,79,47
120600,note_off,120,0,1,,,,,,,,,1,,,79,0
120600,note_on,0,0,1,,,,,,,,,1,,,76,47
120720,note_on,0,0,3,,,,,,,,,3,,,67,47
120720,note_off,120,0,1,,,,,,,,,1,,,76,0
120720,note_on,0,0,1,,,,,,,,,1,,,83,47
120720,note_off,240,0,3,,,,,,,,,3,,,64,0
120840,note_on,0,0,1,,,,,,,,,1,,,79,46
120840,note_off,120,0,1,,,,,,,,,1,,,83,0
120930,note_off,1410,0,5,,,,,,,,,5,,,62,0
120960,note_on,30,0,5,,,,,,,,,5,,,62,46
120960,note_off,240,0,3,,,,,,,,,3,,,67,0
120960,note_on,0,0,3,,,,,,,,,3,,,66,46
120960,note_off,120,0,1,,,,,,,,,1,,,79,0
120960,note_on,0,0,1,,,,,,,,,1,,,81,46
121080,note_off,120,0,1,,,,,,,,,1,,,81,0
121080,note_on,0,0,1,,,,,,,,,1,,,78,46
121200,note_on,0,0,1,,,,,,,,,1,,,74,46
121200,note_off,120,0,1,,,,,,,,,1,,,78,0
121320,note_on,0,0,1,,,,,,,,,1,,,73,46
121320,note_off,360,0,5,,,,,,,,,5,,,62,0
121320,note_off,120,0,1,,,,,,,,,1,,,74,0
121320,note_off,360,0,3,,,,,,,,,3,,,66,0
121440,note_on,0,0,1,,,,,,,,,1,,,76,47
121440,note_off,120,0,1,,,,,,,,,1,,,73,0
121560,note_on,0,0,1,,,,,,,,,1,,,74,49
121560,note_off,120,0,1,,,,,,,,,1,,,76,0
121680,note_on,0,0,1,,,,,,,,,1,,,78,50
121680,note_off,120,0,1,,,,,,,,,1,,,74,0
121800,note_on,0,0,1,,,,,,,,,1,,,76,52
121800,note_off,120,0,1,,,,,,,,,1,,,78,0
121920,note_off,120,0,1,,,,,,,,,1,,,76,0
121920,note_on,0,0,1,,,,,,,,,1,,,79,54
122040,note_on,0,0,1,,,,,,,,,1,,,78,57
122040,note_off,120,0,1,,,,,,,,,1,,,79,0
122160,note_on,0,0,1,,,,,,,,,1,,,81,59
122160,note_off,120,0,1,,,,,,,,,1,,,78,0
122280,note_off,120,0,1,,,,,,,,,1,,,81,0
122280,note_on,0,0,1,,,,,,,,,1,,,79,62
122340,set_tempo,2820,1,0,,,,,,504201,,,,,,,
122376,note_off,96,0,1,,,,,,,,,1,,,79,0
122400,note_on,24,0,1,,,,,,,,,1,,,83,67
122400,note_on,1080,0,5,,,,,,,,,5,,,62,67
122400,set_tempo,60,1,0,,,,,,500000,,,,,,,
122520,note_off,120,0,1,,,,,,,,,1,,,83,0
122520,note_on,0,0,1,,,,,,,,,1,,,81,67
122640,note_off,120,0,1,,,,,,,,,1,,,81,0
122640,note_on,0,0,1,,,,,,,,,1,,,79,67
122640,note_on,1320,0,3,,,,,,,,,3,,,66,67
122760,note_off,120,0,1,,,,,,,,,1,,,79,0
122760,note_on,0,0,1,,,,,,,,,1,,,78,67
122875,note_off,235,0,3,,,,,,,,,3,,,66,0
122880,note_off,120,0,1,,,,,,,,,1,,,78,0
122880,note_on,0,0,1,,,,,,,,,1,,,76,66
122880,note_on,5,0,3,,,,,,,,,3,,,69,66
123000,note_off,120,0,1,,,,,,,,,1,,,76,0
123000,note_on,0,0,1,,,,,,,,,1,,,74,66
123115,note_off,235,0,3,,,,,,,,,3,,,69,0
123120,note_on,0,0,1,,,,,,,,,1,,,73,66
123120,note_off,120,0,1,,,,,,,,,1,,,74,0
123120,note_on,5,0,3,,,,,,,,,3,,,66,66
123240,note_off,120,0,1,,,,,,,,,1,,,73,0
123240,note_on,0,0,1,,,,,,,,,1,,,74,65
123355,note_off,235,0,3,,,,,,,,,3,,,66,0
123360,note_off,120,0,1,,,,,,,,,1,,,74,0
123360,note_on,0,0,1,,,,,,,,,1,,,83,65
123360,note_on,5,0,3,,,,,,,,,3,,,67,65
123480,note_off,120,0,1,,,,,,,,,1,,,83,0
123480,note_on,0,0,1,,,,,,,,,1,,,85,65
123595,note_off,235,0,3,,,,,,,,,3,,,67,0
123600,note_off,120,0,1,,,,,,,,,1,,,85,0
123600,note_on,5,0,3,,,,,,,,,3,,,71,65
123600,note_on,0,0,1,,,,,,,,,1,,,86,65
123720,note_off,120,0,1,,,,,,,,,1,,,86,0
123720,note_on,0,0,1,,,,,,,,,1,,,83,64
123792,note_off,192,0,3,,,,,,,,,3,,,71,0
123810,note_off,1410,0,5,,,,,,,,,5,,,62,0
123816,note_off,96,0,1,,,,,,,,,1,,,83,0
123840,note_on,30,0,5,,,,,,,,,5,,,62,64
123840,note_on,24,0,1,,,,,,,,,1,,,80,64
123960,note_on,0,0,1,,,,,,,,,1,,,81,64
123960,note_off,120,0,1,,,,,,,,,1,,,80,0
124080,note_on,0,0,1,,,,,,,,,1,,,83,64
124080,note_off,120,0,1,,,,,,,,,1,,,81,0
124080,note_on,288,0,3,,,,,,,,,3,,,66,64
124200,note_on,0,0,1,,,,,,,,,1,,,81,63
124200,note_off,120,0,1,,,,,,,,,1,,,83,0
124315,note_off,235,0,3,,,,,,,,,3,,,66,0
124320,note_on,5,0,3,,,,,,,,,3,,,69,63
124320,note_on,0,0,1,,,,,,,,,1,,,79,63
124320,note_off,120,0,1,,,,,,,,,1,,,81,0
124440,note_on,0,0,1,,,,,,,,,1,,,78,63
124440,note_off,120,0,1,,,,,,,,,1,,,79,0
124555,note_off,235,0,3,,,,,,,,,3,,,69,0
124560,note_on,0,0,1,,,,,,,,,1,,,76,63
124560,note_off,120,0,1,,,,,,,,,1,,,78,0
124560,note_on,5,0,3,,,,,,,,,3,,,66,63
124680,note_on,0,0,1,,,,,,,,,1,,,74,62
124680,note_off,120,0,1,,,,,,,,,1,,,76,0
124795,note_off,235,0,3,,,,,,,,,3,,,66,0
124800,note_on,0,0,1,,,,,,,,,1,,,83,62
124800,note_off,120,0,1,,,,,,,,,1,,,74,0
124800,note_on,5,0,3,,,,,,,,,3,,,67,62
124920,note_on,0,0,1,,,,,,,,,1,,,85,62
124920,note_off,120,0,1,,,,,,,,,1,,,83,0
125035,note_off,235,0,3,,,,,,,,,3,,,67,0
125040,note_off,120,0,1,,,,,,,,,1,,,85,0
125040,note_on,0,0,1,,,,,,,,,1,,,86,61
125040,note_on,5,0,3,,,,,,,,,3,,,71,61
125160,note_on,0,0,1,,,,,,,,,1,,,83,61
125160,note_off,120,0,1,,,,,,,,,1,,,86,0
125232,note_off,192,0,3,,,,,,,,,3,,,71,0
125250,note_off,1410,0,5,,,,,,,,,5,,,62,0
125256,note_off,96,0,1,,,,,,,,,1,,,83,0
125280,note_on,24,0,1,,,,,,,,,1,,,83,61
125280,note_on,30,0,5,,,,,,,,,5,,,62,61
125280,note_on,48,0,3,,,,,,,,,3,,,66,61
125400,note_off,120,0,1,,,,,,,,,1,,,83,0
125400,note_on,0,0,1,,,,,,,,,1,,,81,61
125520,note_off,240,0,3,,,,,,,,,3,,,66,0
125520,note_off,120,0,1,,,,,,,,,1,,,81,0
125520,note_on,0,0,1,,,,,,,,,1,,,86,60
125640,note_on,0,0,1,,,,,,,,,1,,,81,60
125640,note_off,120,0,1,,,,,,,,,1,,,86,0
125736,note_off,96,0,1,,,,,,,,,1,,,81,0
125760,note_on,0,0,5,,,,,,,,,5,,,61,60
125760,note_on,240,0,3,,,,,,,,,3,,,64,60
125760,note_on,24,0,1,,,,,,,,,1,,,81,60
125760,note_off,480,0,5,,,,,,,,,5,,,62,0
125880,note_off,120,0,1,,,,,,,,,1,,,81,0
125880,note_on,0,0,1,,,,,,,,,1,,,79,60
126000,note_off,240,0,3,,,,,,,,,3,,,64,0
126000,note_on,0,0,1,,,,,,,,,1,,,88,59
126000,note_off,120,0,1,,,,,,,,,1,,,79,0
126120,note_on,0,0,1,,,,,,,,,1,,,79,59
126120,note_off,120,0,1,,,,,,,,,1,,,88,0
126216,note_off,96,0,1,,,,,,,,,1,,,79,0
126240,note_on,240,0,3,,,,,,,,,3,,,66,59
126240,note_on,0,0,5,,,,,,,,,5,,,62,59
126240,note_off,480,0,5,,,,,,,,,5,,,61,0
126240,note_on,24,0,1,,,,,,,,,1,,,79,59
126360,note_off,120,0,1,,,,,,,,,1,,,79,0
126360,note_on,0,0,1,,,,,,,,,1,,,78,58
126480,note_off,240,0,3,,,,,,,,,3,,,66,0
126480,note_off,120,0,1,,,,,,,,,1,,,78,0
126480,note_on,0,0,1,,,,,,,,,1,,,86,58
126600,note_on,0,0,1,,,,,,,,,1,,,78,58
126600,note_off,120,0,1,,,,,,,,,1,,,86,0
126696,note_off,96,0,1,,,,,,,,,1,,,78,0
126720,note_on,240,0,3,,,,,,,,,3,,,61,59
126720,note_off,480,0,5,,,,,,,,,5,,,62,0
126720,note_on,24,0,1,,,,,,,,,1,,,78,59
126720,note_on,0,0,5,,,,,,,,,5,,,57,59
126840,note_off,120,0,1,,,,,,,,,1,,,78,0
126840,note_on,0,0,1,,,,,,,,,1,,,76,58
126960,note_off,120,0,1,,,,,,,,,1,,,76,0
126960,note_on,0,0,1,,,,,,,,,1,,,75,58
127080,note_off,360,0,3,,,,,,,,,3,,,61,0
127080,note_off,360,0,5,,,,,,,,,5,,,57,0
127080,note_on,0,0,1,,,,,,,,,1,,,76,57
127080,note_off,120,0,1,,,,,,,,,1,,,75,0
127200,note_on,0,0,1,,,,,,,,,1,,,74,57
127200,note_off,120,0,1,,,,,,,,,1,,,76,0
127320,note_off,120,0,1,,,,,,,,,1,,,74,0
127320,note_on,0,0,1,,,,,,,,,1,,,73,56
127440,note_off,120,0,1,,,,,,,,,1,,,73,0
127440,note_on,0,0,1,,,,,,,,,1,,,72,55
127560,note_on,0,0,1,,,,,,,,,1,,,73,55
127560,note_off,120,0,1,,,,,,,,,1,,,72,0
127680,note_off,120,0,1,,,,,,,,,1,,,73,0
127680,note_on,0,0,1,,,,,,,,,1,,,71,54
127800,note_on,0,0,1,,,,,,,,,1,,,69,53
127800,note_off,120,0,1,,,,,,,,,1,,,71,0
127920,note_off,120,0,1,,,,,,,,,1,,,69,0
127920,note_on,0,0,1,,,,,,,,,1,,,68,53
128040,note_off,120,0,1,,,,,,,,,1,,,68,0
128040,note_on,0,0,1,,,,,,,,,1,,,69,52
128040,set_tempo,5640,1,0,,,,,,508474,,,,,,,
128136,note_off,96,0,1,,,,,,,,,1,,,69,0
128160,control_change,11520,0,2,,,,,,,64,0,2,,,,
128160,note_on,0,0,3,,,,,,,,,3,,,66,55
128160,control_change,11520,0,4,,,,,,,64,0,4,,,,
128160,control_change,1080,0,3,,,,,,,64,0,3,,,,
128160,note_on,0,0,1,,,,,,,,,1,,,83,55
128160,set_tempo,120,1,0,,,,,,500000,,,,,,,
128160,control_change,1080,0,5,,,,,,,64,0,5,,,,
128160,control_change,24,0,1,,,,,,,64,0,1,,,,
128160,note_on,0,0,5,,,,,,,,,5,,,62,55
128280,note_off,120,0,1,,,,,,,,,1,,,83,0
128280,note_on,0,0,1,,,,,,,,,1,,,81,55
128400,note_on,0,0,3,,,,,,,,,3,,,69,55
128400,note_off,240,0,3,,,,,,,,,3,,,66,0
128400,note_off,120,0,1,,,,,,,,,1,,,81,0
128400,note_on,0,0,1,,,,,,,,,1,,,80,54
128520,note_on,0,0,1,,,,,,,,,1,,,81,54
128520,note_off,120,0,1,,,,,,,,,1,,,80,0
128640,note_on,0,0,3,,,,,,,,,3,,,66,54
128640,note_off,120,0,1,,,,,,,,,1,,,81,0
128640,note_on,0,0,1,,,,,,,,,1,,,80,53
128640,note_off,240,0,3,,,,,,,,,3,,,69,0
128760,note_off,120,0,1,,,,,,,,,1,,,80,0
128760,note_on,0,0,1,,,,,,,,,1,,,81,53
128880,note_on,0,0,1,,,,,,,,,1,,,80,52
128880,note_off,240,0,3,,,,,,,,,3,,,66,0
128880,note_on,0,0,3,,,,,,,,,3,,,69,54
128880,note_off,120,0,1,,,,,,,,,1,,,81,0
129000,note_on,0,0,1,,,,,,,,,1,,,81,52
129000,note_off,120,0,1,,,,,,,,,1,,,80,0
129120,note_on,0,0,1,,,,,,,,,1,,,83,51
129120,note_off,120,0,1,,,,,,,,,1,,,81,0
129120,note_on,0,0,3,,,,,,,,,3,,,66,53
129120,note_off,240,0,3,,,,,,,,,3,,,69,0
129240,note_on,0,0,1,,,,,,,,,1,,,81,51
129240,note_off,120,0,1,,,,,,,,,1,,,83,0
129360,note_on,0,0,3,,,,,,,,,3,,,69,53
129360,note_off,240,0,3,,,,,,,,,3,,,66,0
129360,note_off,120,0,1,,,,,,,,,1,,,81,0
129360,note_on,0,0,1,,,,,,,,,1,,,86,50
129480,note_on,0,0,1,,,,,,,,,1,,,81,50
129480,note_off,120,0,1,,,,,,,,,1,,,86,0
129552,note_off,192,0,3,,,,,,,,,3,,,69,0
129570,note_off,1410,0,5,,,,,,,,,5,,,62,0
129576,note_off,96,0,1,,,,,,,,,1,,,81,0
129600,note_on,48,0,3,,,,,,,,,3,,,66,52
129600,note_on,24,0,1,,,,,,,,,1,,,79,53
129600,note_on,30,0,5,,,,,,,,,5,,,62,52
129720,note_on,0,0,1,,,,,,,,,1,,,78,53
129720,note_off,120,0,1,,,,,,,,,1,,,79,0
129840,note_off,120,0,1,,,,,,,,,1,,,78,0
129840,note_off,240,0,3,,,,,,,,,3,,,66,0
129840,note_on,0,0,1,,,,,,,,,1,,,77,52
129840,note_on,0,0,3,,,,,,,,,3,,,69,52
129960,note_on,0,0,1,,,,,,,,,1,,,78,52
129960,note_off,120,0,1,,,,,,,,,1,,,77,0
130080,note_off,120,0,1,,,,,,,,,1,,,78,0
130080,note_on,0,0,1,,,,,,,,,1,,,77,51
130080,note_on,0,0,3,,,,,,,,,3,,,66,51
130080,note_off,240,0,3,,,,,,,,,3,,,69,0
130200,note_off,120,0,1,,,,,,,,,1,,,77,0
130200,note_on,0,0,1,,,,,,,,,1,,,78,50
130320,note_off,240,0,3,,,,,,,,,3,,,66,0
130320,note_on,0,0,3,,,,,,,,,3,,,69,51
130320,note_off,120,0,1,,,,,,,,,1,,,78,0
130320,note_on,0,0,1,,,,,,,,,1,,,77,50
130440,note_off,120,0,1,,,,,,,,,1,,,77,0
130440,note_on,0,0,1,,,,,,,,,1,,,78,49
130560,note_on,0,0,3,,,,,,,,,3,,,66,50
130560,note_off,120,0,1,,,,,,,,,1,,,78,0
130560,note_on,0,0,1,,,,,,,,,1,,,81,49
130560,note_off,240,0,3,,,,,,,,,3,,,69,0
130680,note_off,120,0,1,,,,,,,,,1,,,81,0
130680,note_on,0,0,1,,,,,,,,,1,,,78,48
130800,note_off,120,0,1,,,,,,,,,1,,,78,0
130800,note_on,0,0,3,,,,,,,,,3,,,69,50
130800,note_off,240,0,3,,,,,,,,,3,,,66,0
130800,note_on,0,0,1,,,,,,,,,1,,,77,48
130920,note_off,120,0,1,,,,,,,,,1,,,77,0
130920,note_on,0,0,1,,,,,,,,,1,,,78,50
130992,note_off,192,0,3,,,,,,,,,3,,,69,0
131010,note_off,1410,0,5,,,,,,,,,5,,,62,0
131016,note_off,96,0,1,,,,,,,,,1,,,78,0
131040,note_on,30,0,5,,,,,,,,,5,,,57,49
131040,note_on,48,0,3,,,,,,,,,3,,,66,49
131040,note_on,24,0,1,,,,,,,,,1,,,76,49
131160,note_on,0,0,1,,,,,,,,,1,,,74,49
131160,note_off,120,0,1,,,,,,,,,1,,,76,0
131280,note_on,0,0,3,,,,,,,,,3,,,69,49
131280,note_off,240,0,3,,,,,,,,,3,,,66,0
131280,note_on,0,0,1,,,,,,,,,1,,,73,49
131280,note_off,120,0,1,,,,,,,,,1,,,74,0
131400,note_off,120,0,1,,,,,,,,,1,,,73,0
131400,note_on,0,0,1,,,,,,,,,1,,,74,49
131520,note_off,120,0,1,,,,,,,,,1,,,74,0
131520,note_on,0,0,3,,,,,,,,,3,,,66,48
131520,note_off,240,0,3,,,,,,,,,3,,,69,0
131520,note_on,0,0,1,,,,,,,,,1,,,76,48
131640,note_off,120,0,1,,,,,,,,,1,,,76,0
131640,note_on,0,0,1,,,,,,,,,1,,,74,48
131760,note_on,0,0,1,,,,,,,,,1,,,73,48
131760,note_off,240,0,3,,,,,,,,,3,,,66,0
131760,note_on,0,0,3,,,,,,,,,3,,,69,48
131760,note_off,120,0,1,,,,,,,,,1,,,74,0
131880,note_on,0,0,1,,,,,,,,,1,,,74,48
131880,note_off,120,0,1,,,,,,,,,1,,,73,0
132000,note_off,960,0,5,,,,,,,,,5,,,57,0
132000,note_on,0,0,5,,,,,,,,,5,,,61,47
132000,note_on,0,0,3,,,,,,,,,3,,,67,47
132000,note_on,0,0,1,,,,,,,,,1,,,78,47
132000,note_off,240,0,3,,,,,,,,,3,,,69,0
132000,note_off,120,0,1,,,,,,,,,1,,,74,0
132120,note_off,120,0,1,,,,,,,,,1,,,78,0
132120,note_on,0,0,1,,,,,,,,,1,,,76,47
132240,note_off,120,0,1,,,,,,,,,1,,,76,0
132240,note_on,0,0,1,,,,,,,,,1,,,75,47
132240,note_off,240,0,3,,,,,,,,,3,,,67,0
132240,note_on,0,0,3,,,,,,,,,3,,,69,47
132360,note_off,120,0,1,,,,,,,,,1,,,75,0
132360,note_on,0,0,1,,,,,,,,,1,,,76,47
132432,note_off,192,0,3,,,,,,,,,3,,,69,0
132457,note_off,457,0,5,,,,,,,,,5,,,61,0
132480,note_off,120,0,1,,,,,,,,,1,,,76,0
132480,note_on,23,0,5,,,,,,,,,5,,,62,46
132480,note_on,48,0,3,,,,,,,,,3,,,66,46
132480,note_on,0,0,1,,,,,,,,,1,,,78,46
132600,note_on,0,0,1,,,,,,,,,1,,,74,47
132600,note_off,120,0,1,,,,,,,,,1,,,78,0
132720,note_off,120,0,1,,,,,,,,,1,,,74,0
132720,note_on,0,0,1,,,,,,,,,1,,,73,49
132840,note_off,360,0,3,,,,,,,,,3,,,66,0
132840,note_on,0,0,1,,,,,,,,,1,,,76,51
132840,note_off,120,0,1,,,,,,,,,1,,,73,0
132840,note_off,360,0,5,,,,,,,,,5,,,62,0
132960,note_on,0,0,1,,,,,,,,,1,,,74,53
132960,note_off,120,0,1,,,,,,,,,1,,,76,0
133080,note_off,120,0,1,,,,,,,,,1,,,74,0
133080,note_on,0,0,1,,,,,,,,,1,,,78,55
133200,note_off,120,0,1,,,,,,,,,1,,,78,0
133200,note_on,0,0,1,,,,,,,,,1,,,76,57
133320,note_off,120,0,1,,,,,,,,,1,,,76,0
133320,note_on,0,0,1,,,,,,,,,1,,,79,59
133440,note_off,120,0,1,,,,,,,,,1,,,79,0
133440,note_on,0,0,1,,,,,,,,,1,,,78,60
133560,note_on,0,0,1,,,,,,,,,1,,,81,62
133560,note_off,120,0,1,,,,,,,,,1,,,78,0
133680,note_off,120,0,1,,,,,,,,,1,,,81,0
133680,note_on,0,0,1,,,,,,,,,1,,,79,64
133800,note_off,120,0,1,,,,,,,,,1,,,79,0
133800,note_on,0,0,1,,,,,,,,,1,,,83,66
133860,set_tempo,5700,1,0,,,,,,504201,,,,,,,
133896,note_off,96,0,1,,,,,,,,,1,,,83,0
133920,note_on,1080,0,3,,,,,,,,,3,,,66,75
133920,set_tempo,60,1,0,,,,,,500000,,,,,,,
133920,note_on,1080,0,5,,,,,,,,,5,,,62,75
133920,note_on,24,0,1,,,,,,,,,1,,,80,75
134040,note_on,0,0,1,,,,,,,,,1,,,81,75
134040,note_off,120,0,1,,,,,,,,,1,,,80,0
134160,note_off,120,0,1,,,,,,,,,1,,,81,0
134160,note_on,0,0,3,,,,,,,,,3,,,69,75
134160,note_off,240,0,3,,,,,,,,,3,,,66,0
134160,note_on,0,0,1,,,,,,,,,1,,,83,75
134280,note_off,120,0,1,,,,,,,,,1,,,83,0
134280,note_on,0,0,1,,,,,,,,,1,,,81,75
134400,note_on,0,0,3,,,,,,,,,3,,,66,75
134400,note_off,240,0,3,,,,,,,,,3,,,69,0
134400,note_off,120,0,1,,,,,,,,,1,,,81,0
134400,note_on,0,0,1,,,,,,,,,1,,,83,75
134520,note_off,120,0,1,,,,,,,,,1,,,83,0
134520,note_on,0,0,1,,,,,,,,,1,,,81,75
134640,note_off,120,0,1,,,,,,,,,1,,,81,0
134640,note_off,240,0,3,,,,,,,,,3,,,66,0
134640,note_on,0,0,1,,,,,,,,,1,,,83,74
134640,note_on,0,0,3,,,,,,,,,3,,,69,74
134760,note_on,0,0,1,,,,,,,,,1,,,81,74
134760,note_off,120,0,1,,,,,,,,,1,,,83,0
134880,note_off,120,0,1,,,,,,,,,1,,,81,0
134880,note_on,0,0,1,,,,,,,,,1,,,80,74
134880,note_off,240,0,3,,,,,,,,,3,,,69,0
134880,note_on,0,0,3,,,,,,,,,3,,,66,74
135000,note_on,0,0,1,,,,,,,,,1,,,81,74
135000,note_off,120,0,1,,,,,,,,,1,,,80,0
135120,note_on,0,0,1,,,,,,,,,1,,,86,74
135120,note_off,120,0,1,,,,,,,,,1,,,81,0
135120,note_on,0,0,3,,,,,,,,,3,,,69,74
135120,note_off,240,0,3,,,,,,,,,3,,,66,0
135240,note_on,0,0,1,,,,,,,,,1,,,81,74
135240,note_off,120,0,1,,,,,,,,,1,,,86,0
135312,note_off,192,0,3,,,,,,,,,3,,,69,0
135330,note_off,1410,0,5,,,,,,,,,5,,,62,0
135336,note_off,96,0,1,,,,,,,,,1,,,81,0
135360,note_on,48,0,3,,,,,,,,,3,,,66,73
135360,note_on,24,0,1,,,,,,,,,1,,,77,73
135360,note_on,30,0,5,,,,,,,,,5,,,62,73
135480,note_on,0,0,1,,,,,,,,,1,,,78,73
135480,note_off,120,0,1,,,,,,,,,1,,,77,0
135600,note_off,120,0,1,,,,,,,,,1,,,78,0
135600,note_on,0,0,3,,,,,,,,,3,,,69,73
135600,note_off,240,0,3,,,,,,,,,3,,,66,0
135600,note_on,0,0,1,,,,,,,,,1,,,79,73
135720,note_on,0,0,1,,,,,,,,,1,,,78,73
135720,note_off,120,0,1,,,,,,,,,1,,,79,0
135840,note_off,120,0,1,,,,,,,,,1,,,78,0
135840,note_on,0,0,1,,,,,,,,,1,,,79,73
135840,note_on,0,0,3,,,,,,,,,3,,,66,73
135840,note_off,240,0,3,,,,,,,,,3,,,69,0
135960,note_on,0,0,1,,,,,,,,,1,,,78,73
135960,note_off,120,0,1,,,,,,,,,1,,,79,0
136080,note_on,0,0,3,,,,,,,,,3,,,69,72
136080,note_on,0,0,1,,,,,,,,,1,,,79,72
136080,note_off,120,0,1,,,,,,,,,1,,,78,0
136080,note_off,240,0,3,,,,,,,,,3,,,66,0
136200,note_on,0,0,1,,,,,,,,,1,,,78,72
136200,note_off,120,0,1,,,,,,,,,1,,,79,0
136320,note_off,120,0,1,,,,,,,,,1,,,78,0
136320,note_on,0,0,1,,,,,,,,,1,,,77,72
136320,note_on,0,0,3,,,,,,,,,3,,,66,72
136320,note_off,240,0,3,,,,,,,,,3,,,69,0
136440,note_on,0,0,1,,,,,,,,,1,,,78,72
136440,note_off,120,0,1,,,,,,,,,1,,,77,0
136560,note_on,0,0,1,,,,,,,,,1,,,81,72
136560,note_off,120,0,1,,,,,,,,,1,,,78,0
136560,note_on,0,0,3,,,,,,,,,3,,,69,72
136560,note_off,240,0,3,,,,,,,,,3,,,66,0
136680,note_off,120,0,1,,,,,,,,,1,,,81,0
136680,note_on,0,0,1,,,,,,,,,1,,,78,72
136752,note_off,192,0,3,,,,,,,,,3,,,69,0
136770,note_off,1410,0,5,,,,,,,,,5,,,62,0
136776,note_off,96,0,1,,,,,,,,,1,,,78,0
136800,note_on,48,0,3,,,,,,,,,3,,,66,71
136800,note_on,30,0,5,,,,,,,,,5,,,57,71
136800,note_on,24,0,1,,,,,,,,,1,,,73,71
136920,note_on,0,0,1,,,,,,,,,1,,,74,71
136920,note_off,120,0,1,,,,,,,,,1,,,73,0
137040,note_on,0,0,1,,,,,,,,,1,,,76,71
137040,note_off,240,0,3,,,,,,,,,3,,,66,0
137040,note_on,0,0,3,,,,,,,,,3,,,69,71
137040,note_off,120,0,1,,,,,,,,,1,,,74,0
137160,note_off,120,0,1,,,,,,,,,1,,,76,0
137160,note_on,0,0,1,,,,,,,,,1,,,74,71
137280,note_off,240,0,3,,,,,,,,,3,,,69,0
137280,note_on,0,0,3,,,,,,,,,3,,,66,71
137280,note_off,120,0,1,,,,,,,,,1,,,74,0
137280,note_on,0,0,1,,,,,,,,,1,,,73,71
137400,note_on,0,0,1,,,,,,,,,1,,,74,71
137400,note_off,120,0,1,,,,,,,,,1,,,73,0
137520,note_on,0,0,1,,,,,,,,,1,,,76,70
137520,note_off,240,0,3,,,,,,,,,3,,,66,0
137520,note_on,0,0,3,,,,,,,,,3,,,69,70
137520,note_off,120,0,1,,,,,,,,,1,,,74,0
137640,note_off,120,0,1,,,,,,,,,1,,,76,0
137640,note_on,0,0,1,,,,,,,,,1,,,74,70
137760,note_on,0,0,1,,,,,,,,,1,,,75,70
137760,note_off,120,0,1,,,,,,,,,1,,,74,0
137760,note_on,0,0,3,,,,,,,,,3,,,67,70
137760,note_off,960,0,5,,,,,,,,,5,,,57,0
137760,note_on,0,0,5,,,,,,,,,5,,,61,70
137760,note_off,240,0,3,,,,,,,,,3,,,69,0
137880,note_on,0,0,1,,,,,,,,,1,,,76,70
137880,note_off,120,0,1,,,,,,,,,1,,,75,0
138000,note_on,0,0,3,,,,,,,,,3,,,69,70
138000,note_on,0,0,1,,,,,,,,,1,,,78,70
138000,note_off,120,0,1,,,,,,,,,1,,,76,0
138000,note_off,240,0,3,,,,,,,,,3,,,67,0
138120,note_on,0,0,1,,,,,,,,,1,,,76,69
138120,note_off,120,0,1,,,,,,,,,1,,,78,0
138192,note_off,192,0,3,,,,,,,,,3,,,69,0
138216,note_off,96,0,1,,,,,,,,,1,,,76,0
138217,note_off,457,0,5,,,,,,,,,5,,,61,0
138240,note_on,23,0,5,,,,,,,,,5,,,62,69
138240,note_on,24,0,1,,,,,,,,,1,,,76,69
138240,note_on,48,0,3,,,,,,,,,3,,,66,69
138360,note_on,0,0,1,,,,,,,,,1,,,74,67
138360,note_off,120,0,1,,,,,,,,,1,,,76,0
138480,note_off,120,0,1,,,,,,,,,1,,,74,0
138480,note_on,0,0,1,,,,,,,,,1,,,73,67
138600,note_on,0,0,1,,,,,,,,,1,,,71,66
138600,note_off,360,0,5,,,,,,,,,5,,,62,0
138600,note_off,360,0,3,,,,,,,,,3,,,66,0
138600,note_off,120,0,1,,,,,,,,,1,,,73,0
138720,note_on,0,0,1,,,,,,,,,1,,,69,65
138720,note_off,120,0,1,,,,,,,,,1,,,71,0
138840,note_on,0,0,1,,,,,,,,,1,,,67,65
138840,note_off,120,0,1,,,,,,,,,1,,,69,0
138960,note_off,120,0,1,,,,,,,,,1,,,67,0
138960,note_on,0,0,1,,,,,,,,,1,,,66,64
139080,note_on,0,0,1,,,,,,,,,1,,,64,63
139080,note_off,120,0,1,,,,,,,,,1,,,66,0
139200,set_tempo,5280,1,0,,,,,,504201,,,,,,,
139200,note_on,0,0,1,,,,,,,,,1,,,62,63
139200,note_off,120,0,1,,,,,,,,,1,,,64,0
139440,set_tempo,240,1,0,,,,,,540540,,,,,,,
139560,note_off,360,0,1,,,,,,,,,1,,,62,0
139680,control_change,120,0,1,,,,,,,64,0,1,,,,
139680,control_change,1080,0,3,,,,,,,64,0,3,,,,
139680,note_on,0,0,1,,,,,,,,,1,,,81,79
139680,control_change,1080,0,5,,,,,,,64,0,5,,,,
139680,note_on,0,0,5,,,,,,,,,5,,,50,79
139680,set_tempo,240,1,0,,,,,,495867,,,,,,,
139680,control_change,11520,0,4,,,,,,,64,0,4,,,,
139680,marker,0,1,0,,,,,,,,,,,,,
139680,note_on,0,0,2,,,,,,,,,2,,,78,79
139680,note_on,0,0,2,,,,,,,,,2,,,74,79
139680,control_change,11520,0,2,,,,,,,64,0,2,,,,
139800,note_on,120,0,4,,,,,,,,,4,,,62,79
139920,note_off,240,0,5,,,,,,,,,5,,,50,0
139920,note_on,0,0,4,,,,,,,,,4,,,61,79
139920,note_off,120,0,4,,,,,,,,,4,,,62,0
140040,note_off,120,0,4,,,,,,,,,4,,,61,0
140040,note_on,0,0,4,,,,,,,,,4,,,62,79
140160,note_off,120,0,4,,,,,,,,,4,,,62,0
140160,note_on,0,0,4,,,,,,,,,4,,,66,79
140280,note_off,120,0,4,,,,,,,,,4,,,66,0
140280,note_on,0,0,4,,,,,,,,,4,,,62,79
140400,note_on,0,0,4,,,,,,,,,4,,,61,79
140400,note_off,120,0,4,,,,,,,,,4,,,62,0
140520,note_off,120,0,4,,,,,,,,,4,,,61,0
140520,note_on,0,0,4,,,,,,,,,4,,,62,79
140640,note_off,0,0,2,,,,,,,,,2,,,74,0
140640,note_off,960,0,1,,,,,,,,,1,,,81,0
140640,note_on,0,0,1,,,,,,,,,1,,,86,74
140640,note_on,720,0,5,,,,,,,,,5,,,57,78
140640,note_off,120,0,4,,,,,,,,,4,,,62,0
140640,note_off,960,0,2,,,,,,,,,2,,,78,0
140760,note_on,120,0,4,,,,,,,,,4,,,62,78
140796,note_off,156,0,5,,,,,,,,,5,,,57,0
140832,note_off,192,0,1,,,,,,,,,1,,,86,0
140880,note_off,120,0,4,,,,,,,,,4,,,62,0
140880,note_on,84,0,5,,,,,,,,,5,,,54,78
141000,note_on,120,0,4,,,,,,,,,4,,,57,78
141036,note_off,156,0,5,,,,,,,,,5,,,54,0
141096,note_off,96,0,4,,,,,,,,,4,,,57,0
141120,note_on,480,0,2,,,,,,,,,2,,,74,78
141120,note_on,0,0,2,,,,,,,,,2,,,69,78
141120,note_on,84,0,5,,,,,,,,,5,,,50,78
141120,note_on,288,0,1,,,,,,,,,1,,,78,78
141240,note_on,144,0,4,,,,,,,,,4,,,62,78
141360,note_off,120,0,4,,,,,,,,,4,,,62,0
141360,note_on,0,0,4,,,,,,,,,4,,,61,78
141360,note_off,240,0,5,,,,,,,,,5,,,50,0
141480,note_on,0,0,4,,,,,,,,,4,,,62,78
141480,note_off,120,0,4,,,,,,,,,4,,,61,0
141600,note_off,120,0,4,,,,,,,,,4,,,62,0
141600,note_on,0,0,4,,,,,,,,,4,,,66,77
141720,note_off,120,0,4,,,,,,,,,4,,,66,0
141720,note_on,0,0,4,,,,,,,,,4,,,62,77
141840,note_off,120,0,4,,,,,,,,,4,,,62,0
141840,note_on,0,0,4,,,,,,,,,4,,,61,77
141960,note_off,120,0,4,,,,,,,,,4,,,61,0
141960,note_on,0,0,4,,,,,,,,,4,,,62,77
142080,note_on,720,0,5,,,,,,,,,5,,,57,77
142080,note_off,960,0,1,,,,,,,,,1,,,78,0
142080,note_on,0,0,1,,,,,,,,,1,,,81,74
142080,note_off,0,0,2,,,,,,,,,2,,,74,0
142080,note_off,960,0,2,,,,,,,,,2,,,69,0
142080,note_off,120,0,4,,,,,,,,,4,,,62,0
142200,note_on,120,0,4,,,,,,,,,4,,,62,77
142236,note_off,156,0,5,,,,,,,,,5,,,57,0
142272,note_off,192,0,1,,,,,,,,,1,,,81,0
142320,note_off,120,0,4,,,,,,,,,4,,,62,0
142320,note_on,84,0,5,,,,,,,,,5,,,54,77
142440,note_on,120,0,4,,,,,,,,,4,,,57,77
142476,note_off,156,0,5,,,,,,,,,5,,,54,0
142536,note_off,96,0,4,,,,,,,,,4,,,57,0
142560,note_on,84,0,5,,,,,,,,,5,,,47,76
142560,note_on,288,0,1,,,,,,,,,1,,,74,76
142560,note_on,480,0,2,,,,,,,,,2,,,71,76
142560,note_on,0,0,2,,,,,,,,,2,,,66,76
142680,note_on,144,0,4,,,,,,,,,4,,,50,76
142716,note_off,156,0,5,,,,,,,,,5,,,47,0
142752,note_off,192,0,1,,,,,,,,,1,,,74,0
142752,note_off,0,0,2,,,,,,,,,2,,,71,0
142752,note_off,192,0,2,,,,,,,,,2,,,66,0
142800,note_off,120,0,4,,,,,,,,,4,,,50,0
142800,note_on,0,0,4,,,,,,,,,4,,,54,76
142920,note_off,120,0,4,,,,,,,,,4,,,54,0
142920,note_on,0,0,4,,,,,,,,,4,,,59,76
143016,note_off,96,0,4,,,,,,,,,4,,,59,0
143040,note_on,0,0,2,,,,,,,,,2,,,71,76
143040,note_on,324,0,5,,,,,,,,,5,,,43,76
143040,note_on,288,0,1,,,,,,,,,1,,,76,76
143040,note_on,288,0,2,,,,,,,,,2,,,74,76
143160,note_on,144,0,4,,,,,,,,,4,,,47,76
143196,note_off,156,0,5,,,,,,,,,5,,,43,0
143232,note_off,192,0,1,,,,,,,,,1,,,76,0
143232,note_off,192,0,2,,,,,,,,,2,,,71,0
143232,note_off,0,0,2,,,,,,,,,2,,,74,0
143280,note_on,0,0,4,,,,,,,,,4,,,52,76
143280,note_off,120,0,4,,,,,,,,,4,,,47,0
143400,note_on,0,0,4,,,,,,,,,4,,,55,76
143400,note_off,120,0,4,,,,,,,,,4,,,52,0
143496,note_off,96,0,4,,,,,,,,,4,,,55,0
143520,note_on,324,0,5,,,,,,,,,5,,,45,75
143520,note_on,288,0,1,,,,,,,,,1,,,79,75
143520,note_on,0,0,2,,,,,,,,,2,,,73,75
143520,note_on,0,0,2,,,,,,,,,2,,,69,75
143520,note_on,288,0,2,,,,,,,,,2,,,76,75
143640,note_on,144,0,4,,,,,,,,,4,,,49,75
143676,note_off,156,0,5,,,,,,,,,5,,,45,0
143712,note_off,0,0,2,,,,,,,,,2,,,69,0
143712,note_off,192,0,2,,,,,,,,,2,,,73,0
143712,note_off,0,0,2,,,,,,,,,2,,,76,0
143712,note_off,192,0,1,,,,,,,,,1,,,79,0
143760,note_on,0,0,4,,,,,,,,,4,,,52,75
143760,note_off,120,0,4,,,,,,,,,4,,,49,0
143880,note_on,0,0,4,,,,,,,,,4,,,57,75
143880,note_off,120,0,4,,,,,,,,,4,,,52,0
143976,note_off,96,0,4,,,,,,,,,4,,,57,0
144000,note_on,324,0,5,,,,,,,,,5,,,50,75
144000,note_on,288,0,1,,,,,,,,,1,,,78,75
144120,note_on,0,0,1,,,,,,,,,1,,,74,75
144120,note_off,120,0,1,,,,,,,,,1,,,78,0
144240,note_off,120,0,1,,,,,,,,,1,,,74,0
144240,note_on,0,0,1,,,,,,,,,1,,,73,74
144360,note_off,120,0,1,,,,,,,,,1,,,73,0
144360,note_on,0,0,1,,,,,,,,,1,,,76,73
144360,note_off,360,0,5,,,,,,,,,5,,,50,0
144480,note_on,0,0,1,,,,,,,,,1,,,74,73
144480,note_off,120,0,1,,,,,,,,,1,,,76,0
144600,note_off,120,0,1,,,,,,,,,1,,,74,0
144600,note_on,0,0,1,,,,,,,,,1,,,78,72
144720,note_on,0,0,1,,,,,,,,,1,,,76,71
144720,note_off,120,0,1,,,,,,,,,1,,,78,0
144840,note_on,0,0,1,,,,,,,,,1,,,79,71
144840,note_off,120,0,1,,,,,,,,,1,,,76,0
144960,note_off,120,0,1,,,,,,,,,1,,,79,0
144960,note_on,0,0,1,,,,,,,,,1,,,78,70
145080,note_off,120,0,1,,,,,,,,,1,,,78,0
145080,note_on,0,0,1,,,,,,,,,1,,,81,69
145200,note_off,120,0,1,,,,,,,,,1,,,81,0
145200,note_on,0,0,1,,,,,,,,,1,,,79,69
145320,note_off,120,0,1,,,,,,,,,1,,,79,0
145320,note_on,0,0,1,,,,,,,,,1,,,83,68
145380,set_tempo,5700,1,0,,,,,,500000,,,,,,,
145416,note_off,96,0,1,,,,,,,,,1,,,83,0
145440,note_on,24,0,1,,,,,,,,,1,,,81,73
145440,note_on,1080,0,5,,,,,,,,,5,,,50,73
145440,set_tempo,60,1,0,,,,,,495867,,,,,,,
145440,note_on,0,0,2,,,,,,,,,2,,,74,73
145440,note_on,1728,0,2,,,,,,,,,2,,,78,73
145560,note_on,1584,0,4,,,,,,,,,4,,,62,73
145680,note_off,120,0,4,,,,,,,,,4,,,62,0
145680,note_off,240,0,5,,,,,,,,,5,,,50,0
145680,note_on,0,0,4,,,,,,,,,4,,,61,73
145800,note_on,0,0,4,,,,,,,,,4,,,62,73
145800,note_off,120,0,4,,,,,,,,,4,,,61,0
145920,note_on,0,0,4,,,,,,,,,4,,,66,73
145920,note_off,120,0,4,,,,,,,,,4,,,62,0
146040,note_on,0,0,4,,,,,,,,,4,,,62,73
146040,note_off,120,0,4,,,,,,,,,4,,,66,0
146160,note_off,120,0,4,,,,,,,,,4,,,62,0
146160,note_on,0,0,4,,,,,,,,,4,,,61,73
146280,note_off,120,0,4,,,,,,,,,4,,,61,0
146280,note_on,0,0,4,,,,,,,,,4,,,62,72
146400,note_on,720,0,5,,,,,,,,,5,,,57,72
146400,note_off,960,0,2,,,,,,,,,2,,,74,0
146400,note_off,0,0,2,,,,,,,,,2,,,78,0
146400,note_on,0,0,1,,,,,,,,,1,,,86,68
146400,note_off,960,0,1,,,,,,,,,1,,,81,0
146400,note_off,120,0,4,,,,,,,,,4,,,62,0
146520,note_on,120,0,4,,,,,,,,,4,,,62,72
146556,note_off,156,0,5,,,,,,,,,5,,,57,0
146592,note_off,192,0,1,,,,,,,,,1,,,86,0
146640,note_on,84,0,5,,,,,,,,,5,,,54,72
146640,note_off,120,0,4,,,,,,,,,4,,,62,0
146760,note_on,120,0,4,,,,,,,,,4,,,57,72
146796,note_off,156,0,5,,,,,,,,,5,,,54,0
146856,note_off,96,0,4,,,,,,,,,4,,,57,0
146880,note_on,84,0,5,,,,,,,,,5,,,50,72
146880,note_on,0,0,2,,,,,,,,,2,,,69,72
146880,note_on,480,0,2,,,,,,,,,2,,,74,72
146880,note_on,288,0,1,,,,,,,,,1,,,78,72
147000,note_on,144,0,4,,,,,,,,,4,,,62,72
147120,note_on,0,0,4,,,,,,,,,4,,,61,72
147120,note_off,120,0,4,,,,,,,,,4,,,62,0
147120,note_off,240,0,5,,,,,,,,,5,,,50,0
147240,note_on,0,0,4,,,,,,,,,4,,,62,71
147240,note_off,120,0,4,,,,,,,,,4,,,61,0
147360,note_on,0,0,4,,,,,,,,,4,,,66,71
147360,note_off,120,0,4,,,,,,,,,4,,,62,0
147480,note_off,120,0,4,,,,,,,,,4,,,66,0
147480,note_on,0,0,4,,,,,,,,,4,,,62,71
147600,note_off,120,0,4,,,,,,,,,4,,,62,0
147600,note_on,0,0,4,,,,,,,,,4,,,61,71
147720,note_off,120,0,4,,,,,,,,,4,,,61,0
147720,note_on,0,0,4,,,,,,,,,4,,,62,71
147840,note_off,120,0,4,,,,,,,,,4,,,62,0
147840,note_on,720,0,5,,,,,,,,,5,,,57,71
147840,note_on,0,0,1,,,,,,,,,1,,,81,67
147840,note_off,960,0,2,,,,,,,,,2,,,69,0
147840,note_off,0,0,2,,,,,,,,,2,,,74,0
147840,note_off,960,0,1,,,,,,,,,1,,,78,0
147960,note_on,120,0,4,,,,,,,,,4,,,62,71
147996,note_off,156,0,5,,,,,,,,,5,,,57,0
148032,note_off,192,0,1,,,,,,,,,1,,,81,0
148080,note_on,84,0,5,,,,,,,,,5,,,54,71
148080,note_off,120,0,4,,,,,,,,,4,,,62,0
148200,note_on,120,0,4,,,,,,,,,4,,,57,70
148236,note_off,156,0,5,,,,,,,,,5,,,54,0
148296,note_off,96,0,4,,,,,,,,,4,,,57,0
148320,note_on,480,0,2,,,,,,,,,2,,,66,70
148320,note_on,0,0,2,,,,,,,,,2,,,71,70
148320,note_on,288,0,1,,,,,,,,,1,,,74,70
148320,note_on,84,0,5,,,,,,,,,5,,,47,70
148440,note_on,144,0,4,,,,,,,,,4,,,50,70
148476,note_off,156,0,5,,,,,,,,,5,,,47,0
148512,note_off,0,0,2,,,,,,,,,2,,,66,0
148512,note_off,192,0,2,,,,,,,,,2,,,71,0
148512,note_off,192,0,1,,,,,,,,,1,,,74,0
148560,note_off,120,0,4,,,,,,,,,4,,,50,0
148560,note_on,0,0,4,,,,,,,,,4,,,54,70
148680,note_off,120,0,4,,,,,,,,,4,,,54,0
148680,note_on,0,0,4,,,,,,,,,4,,,59,70
148776,note_off,96,0,4,,,,,,,,,4,,,59,0
148800,note_on,288,0,1,,,,,,,,,1,,,76,70
148800,note_on,0,0,2,,,,,,,,,2,,,67,70
148800,note_on,288,0,2,,,,,,,,,2,,,71,70
148800,note_on,324,0,5,,,,,,,,,5,,,43,70
148920,note_on,144,0,4,,,,,,,,,4,,,47,70
148956,note_off,156,0,5,,,,,,,,,5,,,43,0
148992,note_off,192,0,1,,,,,,,,,1,,,76,0
148992,note_off,192,0,2,,,,,,,,,2,,,67,0
148992,note_off,0,0,2,,,,,,,,,2,,,71,0
149040,note_on,0,0,4,,,,,,,,,4,,,52,70
149040,note_off,120,0,4,,,,,,,,,4,,,47,0
149160,note_on,0,0,4,,,,,,,,,4,,,55,69
149160,note_off,120,0,4,,,,,,,,,4,,,52,0
149256,note_off,96,0,4,,,,,,,,,4,,,55,0
149280,note_on,288,0,1,,,,,,,,,1,,,73,69
149280,note_on,0,0,2,,,,,,,,,2,,,67,69
149280,note_on,288,0,2,,,,,,,,,2,,,69,69
149280,note_on,324,0,5,,,,,,,,,5,,,45,69
149280,note_on,0,0,2,,,,,,,,,2,,,64,69
149400,note_on,144,0,4,,,,,,,,,4,,,49,69
149436,note_off,156,0,5,,,,,,,,,5,,,45,0
149472,note_off,192,0,2,,,,,,,,,2,,,64,0
149472,note_off,0,0,2,,,,,,,,,2,,,67,0
149472,note_off,0,0,2,,,,,,,,,2,,,69,0
149472,note_off,192,0,1,,,,,,,,,1,,,73,0
149520,note_off,120,0,4,,,,,,,,,4,,,49,0
149520,note_on,0,0,4,,,,,,,,,4,,,52,69
149640,note_off,120,0,4,,,,,,,,,4,,,52,0
149640,note_on,0,0,4,,,,,,,,,4,,,57,69
149736,note_off,96,0,4,,,,,,,,,4,,,57,0
149760,note_on,324,0,5,,,,,,,,,5,,,38,69
149760,note_on,288,0,1,,,,,,,,,1,,,74,69
149760,note_on,0,0,2,,,,,,,,,2,,,69,69
149760,note_on,0,0,2,,,,,,,,,2,,,66,69
149760,note_on,288,0,2,,,,,,,,,2,,,62,69
149880,note_on,144,0,4,,,,,,,,,4,,,50,69
150000,note_off,120,0,4,,,,,,,,,4,,,50,0
150000,note_on,0,0,4,,,,,,,,,4,,,54,69
150000,note_off,240,0,5,,,,,,,,,5,,,38,0
150120,note_off,360,0,2,,,,,,,,,2,,,69,0
150120,note_off,120,0,4,,,,,,,,,4,,,54,0
150120,note_on,0,0,4,,,,,,,,,4,,,50,68
150120,note_off,360,0,1,,,,,,,,,1,,,74,0
150120,note_off,0,0,2,,,,,,,,,2,,,62,0
150120,note_off,0,0,2,,,,,,,,,2,,,66,0
150240,note_off,120,0,4,,,,,,,,,4,,,50,0
150240,note_on,240,0,5,,,,,,,,,5,,,45,68
150360,note_on,120,0,4,,,,,,,,,4,,,50,68
150396,note_off,156,0,5,,,,,,,,,5,,,45,0
150480,note_off,120,0,4,,,,,,,,,4,,,50,0
150480,note_on,84,0,5,,,,,,,,,5,,,42,68
150600,note_on,120,0,4,,,,,,,,,4,,,45,68
150636,note_off,156,0,5,,,,,,,,,5,,,42,0
150660,set_tempo,5220,1,0,,,,,,500000,,,,,,,
150720,note_on,84,0,5,,,,,,,,,5,,,38,68
150720,note_off,120,0,4,,,,,,,,,4,,,45,0
150912,note_off,192,0,5,,,,,,,,,5,,,38,0
150960,set_tempo,300,1,0,,,,,,508474,,,,,,,
151200,control_change,288,0,5,,,,,,,64,0,5,,,,
151200,note_on,0,0,5,,,,,,,,,5,,,50,79
151200,control_change,480,0,4,,,,,,,64,0,4,,,,
151200,control_change,11520,0,3,,,,,,,64,0,3,,,,
151200,marker,0,1,0,,,,,,,,,,,,,
151200,control_change,1080,0,2,,,,,,,64,0,2,,,,
151200,note_on,0,0,2,,,,,,,,,2,,,78,79
151200,note_on,0,0,1,,,,,,,,,1,,,81,79
151200,control_change,1080,0,1,,,,,,,64,0,1,,,,
151200,note_on,0,0,2,,,,,,,,,2,,,74,79
151200,set_tempo,240,1,0,,,,,,495867,,,,,,,
151320,note_on,120,0,4,,,,,,,,,4,,,62,79
151440,note_off,240,0,5,,,,,,,,,5,,,50,0
151440,note_off,120,0,4,,,,,,,,,4,,,62,0
151440,note_on,0,0,4,,,,,,,,,4,,,61,79
151560,note_on,0,0,4,,,,,,,,,4,,,62,79
151560,note_off,120,0,4,,,,,,,,,4,,,61,0
151680,note_off,120,0,4,,,,,,,,,4,,,62,0
151680,note_on,0,0,4,,,,,,,,,4,,,66,79
151800,note_off,120,0,4,,,,,,,,,4,,,66,0
151800,note_on,0,0,4,,,,,,,,,4,,,62,79
151920,note_on,0,0,4,,,,,,,,,4,,,61,79
151920,note_off,120,0,4,,,,,,,,,4,,,62,0
152040,note_on,0,0,4,,,,,,,,,4,,,62,79
152040,note_off,120,0,4,,,,,,,,,4,,,61,0
152160,note_on,720,0,5,,,,,,,,,5,,,57,78
152160,note_off,960,0,2,,,,,,,,,2,,,74,0
152160,note_off,0,0,2,,,,,,,,,2,,,78,0
152160,note_off,960,0,1,,,,,,,,,1,,,81,0
152160,note_on,0,0,1,,,,,,,,,1,,,86,74
152160,note_off,120,0,4,,,,,,,,,4,,,62,0
152280,note_on,120,0,4,,,,,,,,,4,,,62,78
152316,note_off,156,0,5,,,,,,,,,5,,,57,0
152352,note_off,192,0,1,,,,,,,,,1,,,86,0
152400,note_off,120,0,4,,,,,,,,,4,,,62,0
152400,note_on,84,0,5,,,,,,,,,5,,,54,78
152520,note_on,120,0,4,,,,,,,,,4,,,57,78
152556,note_off,156,0,5,,,,,,,,,5,,,54,0
152616,note_off,96,0,4,,,,,,,,,4,,,57,0
152640,note_on,84,0,5,,,,,,,,,5,,,50,78
152640,note_on,480,0,2,,,,,,,,,2,,,69,78
152640,note_on,288,0,1,,,,,,,,,1,,,78,78
152640,note_on,0,0,2,,,,,,,,,2,,,74,78
152760,note_on,144,0,4,,,,,,,,,4,,,62,78
152880,note_off,240,0,5,,,,,,,,,5,,,50,0
152880,note_on,0,0,4,,,,,,,,,4,,,61,78
152880,note_off,120,0,4,,,,,,,,,4,,,62,0
153000,note_on,0,0,4,,,,,,,,,4,,,62,78
153000,note_off,120,0,4,,,,,,,,,4,,,61,0
153120,note_on,0,0,4,,,,,,,,,4,,,66,77
153120,note_off,120,0,4,,,,,,,,,4,,,62,0
153240,note_off,120,0,4,,,,,,,,,4,,,66,0
153240,note_on,0,0,4,,,,,,,,,4,,,62,77
153360,note_off,120,0,4,,,,,,,,,4,,,62,0
153360,note_on,0,0,4,,,,,,,,,4,,,61,77
153480,note_off,120,0,4,,,,,,,,,4,,,61,0
153480,note_on,0,0,4,,,,,,,,,4,,,62,77
153600,note_off,960,0,2,,,,,,,,,2,,,74,0
153600,note_on,0,0,1,,,,,,,,,1,,,81,74
153600,note_off,0,0,2,,,,,,,,,2,,,69,0
153600,note_on,720,0,5,,,,,,,,,5,,,57,77
153600,note_off,960,0,1,,,,,,,,,1,,,78,0
153600,note_off,120,0,4,,,,,,,,,4,,,62,0
153720,note_on,120,0,4,,,,,,,,,4,,,62,77
153756,note_off,156,0,5,,,,,,,,,5,,,57,0
153792,note_off,192,0,1,,,,,,,,,1,,,81,0
153840,note_off,120,0,4,,,,,,,,,4,,,62,0
153840,note_on,84,0,5,,,,,,,,,5,,,54,77
153960,note_on,120,0,4,,,,,,,,,4,,,57,77
153996,note_off,156,0,5,,,,,,,,,5,,,54,0
154056,note_off,96,0,4,,,,,,,,,4,,,57,0
154080,note_on,0,0,2,,,,,,,,,2,,,71,76
154080,note_on,288,0,1,,,,,,,,,1,,,74,76
154080,note_on,84,0,5,,,,,,,,,5,,,47,76
154080,note_on,480,0,2,,,,,,,,,2,,,66,76
154200,note_on,144,0,4,,,,,,,,,4,,,50,76
154236,note_off,156,0,5,,,,,,,,,5,,,47,0
154272,note_off,192,0,2,,,,,,,,,2,,,71,0
154272,note_off,0,0,2,,,,,,,,,2,,,66,0
154272,note_off,192,0,1,,,,,,,,,1,,,74,0
154320,note_off,120,0,4,,,,,,,,,4,,,50,0
154320,note_on,0,0,4,,,,,,,,,4,,,54,76
154440,note_off,120,0,4,,,,,,,,,4,,,54,0
154440,note_on,0,0,4,,,,,,,,,4,,,59,76
154536,note_off,96,0,4,,,,,,,,,4,,,59,0
154560,note_on,324,0,5,,,,,,,,,5,,,43,76
154560,note_on,0,0,2,,,,,,,,,2,,,74,76
154560,note_on,288,0,2,,,,,,,,,2,,,71,76
154560,note_on,288,0,1,,,,,,,,,1,,,76,76
154680,note_on,144,0,4,,,,,,,,,4,,,47,76
154716,note_off,156,0,5,,,,,,,,,5,,,43,0
154752,note_off,192,0,1,,,,,,,,,1,,,76,0
154752,note_off,192,0,2,,,,,,,,,2,,,74,0
154752,note_off,0,0,2,,,,,,,,,2,,,71,0
154800,note_on,0,0,4,,,,,,,,,4,,,52,76
154800,note_off,120,0,4,,,,,,,,,4,,,47,0
154920,note_on,0,0,4,,,,,,,,,4,,,55,76
154920,note_off,120,0,4,,,,,,,,,4,,,52,0
155016,note_off,96,0,4,,,,,,,,,4,,,55,0
155040,note_on,288,0,1,,,,,,,,,1,,,79,75
155040,note_on,0,0,2,,,,,,,,,2,,,69,75
155040,note_on,288,0,2,,,,,,,,,2,,,73,75
155040,note_on,324,0,5,,,,,,,,,5,,,45,75
155040,note_on,0,0,2,,,,,,,,,2,,,76,75
155160,note_on,144,0,4,,,,,,,,,4,,,49,75
155196,note_off,156,0,5,,,,,,,,,5,,,45,0
155232,note_off,192,0,2,,,,,,,,,2,,,76,0
155232,note_off,0,0,2,,,,,,,,,2,,,69,0
155232,note_off,0,0,2,,,,,,,,,2,,,73,0
155232,note_off,192,0,1,,,,,,,,,1,,,79,0
155280,note_on,0,0,4,,,,,,,,,4,,,52,75
155280,note_off,120,0,4,,,,,,,,,4,,,49,0
155400,note_on,0,0,4,,,,,,,,,4,,,57,75
155400,note_off,120,0,4,,,,,,,,,4,,,52,0
155496,note_off,96,0,4,,,,,,,,,4,,,57,0
155520,note_on,324,0,5,,,,,,,,,5,,,50,75
155520,note_on,288,0,1,,,,,,,,,1,,,78,75
155640,note_off,120,0,1,,,,,,,,,1,,,78,0
155640,note_on,0,0,1,,,,,,,,,1,,,74,75
155760,note_off,120,0,1,,,,,,,,,1,,,74,0
155760,note_on,0,0,1,,,,,,,,,1,,,73,74
155880,note_off,120,0,1,,,,,,,,,1,,,73,0
155880,note_on,0,0,1,,,,,,,,,1,,,76,73
155880,note_off,360,0,5,,,,,,,,,5,,,50,0
156000,note_off,120,0,1,,,,,,,,,1,,,76,0
156000,note_on,0,0,1,,,,,,,,,1,,,74,73
156120,note_off,120,0,1,,,,,,,,,1,,,74,0
156120,note_on,0,0,1,,,,,,,,,1,,,78,72
156240,note_on,0,0,1,,,,,,,,,1,,,76,71
156240,note_off,120,0,1,,,,,,,,,1,,,78,0
156360,note_off,120,0,1,,,,,,,,,1,,,76,0
156360,note_on,0,0,1,,,,,,,,,1,,,79,71
156480,note_off,120,0,1,,,,,,,,,1,,,79,0
156480,note_on,0,0,1,,,,,,,,,1,,,78,70
156600,note_on,0,0,1,,,,,,,,,1,,,81,69
156600,note_off,120,0,1,,,,,,,,,1,,,78,0
156720,note_on,0,0,1,,,,,,,,,1,,,79,69
156720,note_off,120,0,1,,,,,,,,,1,,,81,0
156840,note_on,0,0,1,,,,,,,,,1,,,83,68
156840,note_off,120,0,1,,,,,,,,,1,,,79,0
156900,set_tempo,5700,1,0,,,,,,500000,,,,,,,
156936,note_off,96,0,1,,,,,,,,,1,,,83,0
156960,note_on,24,0,1,,,,,,,,,1,,,81,73
156960,note_on,0,0,2,,,,,,,,,2,,,78,73
156960,note_on,1080,0,5,,,,,,,,,5,,,50,73
156960,set_tempo,60,1,0,,,,,,495867,,,,,,,
156960,note_on,1728,0,2,,,,,,,,,2,,,74,73
157080,note_on,1584,0,4,,,,,,,,,4,,,62,73
157200,note_off,240,0,5,,,,,,,,,5,,,50,0
157200,note_off,120,0,4,,,,,,,,,4,,,62,0
157200,note_on,0,0,4,,,,,,,,,4,,,61,73
157320,note_on,0,0,4,,,,,,,,,4,,,62,73
157320,note_off,120,0,4,,,,,,,,,4,,,61,0
157440,note_off,120,0,4,,,,,,,,,4,,,62,0
157440,note_on,0,0,4,,,,,,,,,4,,,66,73
157560,note_on,0,0,4,,,,,,,,,4,,,62,73
157560,note_off,120,0,4,,,,,,,,,4,,,66,0
157680,note_on,0,0,4,,,,,,,,,4,,,61,73
157680,note_off,120,0,4,,,,,,,,,4,,,62,0
157800,note_on,0,0,4,,,,,,,,,4,,,62,72
157800,note_off,120,0,4,,,,,,,,,4,,,61,0
157920,note_on,0,0,1,,,,,,,,,1,,,86,68
157920,note_off,960,0,2,,,,,,,,,2,,,78,0
157920,note_on,720,0,5,,,,,,,,,5,,,57,72
157920,note_off,120,0,4,,,,,,,,,4,,,62,0
157920,note_off,0,0,2,,,,,,,,,2,,,74,0
157920,note_off,960,0,1,,,,,,,,,1,,,81,0
158040,note_on,120,0,4,,,,,,,,,4,,,62,72
158076,note_off,156,0,5,,,,,,,,,5,,,57,0
158112,note_off,192,0,1,,,,,,,,,1,,,86,0
158160,note_off,120,0,4,,,,,,,,,4,,,62,0
158160,note_on,84,0,5,,,,,,,,,5,,,54,72
158280,note_on,120,0,4,,,,,,,,,4,,,57,72
158316,note_off,156,0,5,,,,,,,,,5,,,54,0
158376,note_off,96,0,4,,,,,,,,,4,,,57,0
158400,note_on,480,0,2,,,,,,,,,2,,,69,72
158400,note_on,288,0,1,,,,,,,,,1,,,78,72
158400,note_on,0,0,2,,,,,,,,,2,,,74,72
158400,note_on,84,0,5,,,,,,,,,5,,,50,72
158520,note_on,144,0,4,,,,,,,,,4,,,62,72
158640,note_off,120,0,4,,,,,,,,,4,,,62,0
158640,note_on,0,0,4,,,,,,,,,4,,,61,72
158640,note_off,240,0,5,,,,,,,,,5,,,50,0
158760,note_off,120,0,4,,,,,,,,,4,,,61,0
158760,note_on,0,0,4,,,,,,,,,4,,,62,71
158880,note_off,120,0,4,,,,,,,,,4,,,62,0
158880,note_on,0,0,4,,,,,,,,,4,,,66,71
159000,note_off,120,0,4,,,,,,,,,4,,,66,0
159000,note_on,0,0,4,,,,,,,,,4,,,62,71
159120,note_off,120,0,4,,,,,,,,,4,,,62,0
159120,note_on,0,0,4,,,,,,,,,4,,,61,71
159240,note_off,120,0,4,,,,,,,,,4,,,61,0
159240,note_on,0,0,4,,,,,,,,,4,,,62,71
159360,note_on,0,0,1,,,,,,,,,1,,,81,67
159360,note_off,0,0,2,,,,,,,,,2,,,69,0
159360,note_off,960,0,2,,,,,,,,,2,,,74,0
159360,note_on,720,0,5,,,,,,,,,5,,,57,71
159360,note_off,120,0,4,,,,,,,,,4,,,62,0
159360,note_off,960,0,1,,,,,,,,,1,,,78,0
159480,note_on,120,0,4,,,,,,,,,4,,,62,71
159516,note_off,156,0,5,,,,,,,,,5,,,57,0
159552,note_off,192,0,1,,,,,,,,,1,,,81,0
159600,note_on,84,0,5,,,,,,,,,5,,,54,71
159600,note_off,120,0,4,,,,,,,,,4,,,62,0
159720,note_on,120,0,4,,,,,,,,,4,,,57,70
159756,note_off,156,0,5,,,,,,,,,5,,,54,0
159816,note_off,96,0,4,,,,,,,,,4,,,57,0
159840,note_on,288,0,1,,,,,,,,,1,,,74,70
159840,note_on,480,0,2,,,,,,,,,2,,,71,70
159840,note_on,0,0,2,,,,,,,,,2,,,66,70
159840,note_on,84,0,5,,,,,,,,,5,,,47,70
159960,note_on,144,0,4,,,,,,,,,4,,,50,70
159996,note_off,156,0,5,,,,,,,,,5,,,47,0
160032,note_off,192,0,1,,,,,,,,,1,,,74,0
160032,note_off,192,0,2,,,,,,,,,2,,,66,0
160032,note_off,0,0,2,,,,,,,,,2,,,71,0
160080,note_on,0,0,4,,,,,,,,,4,,,54,70
160080,note_off,120,0,4,,,,,,,,,4,,,50,0
160200,note_on,0,0,4,,,,,,,,,4,,,59,70
160200,note_off,120,0,4,,,,,,,,,4,,,54,0
160296,note_off,96,0,4,,,,,,,,,4,,,59,0
160320,note_on,324,0,5,,,,,,,,,5,,,43,70
160320,note_on,0,0,2,,,,,,,,,2,,,71,70
160320,note_on,288,0,2,,,,,,,,,2,,,67,70
160320,note_on,288,0,1,,,,,,,,,1,,,76,70
160440,note_on,144,0,4,,,,,,,,,4,,,47,70
160476,note_off,156,0,5,,,,,,,,,5,,,43,0
160512,note_off,0,0,2,,,,,,,,,2,,,67,0
160512,note_off,192,0,2,,,,,,,,,2,,,71,0
160512,note_off,192,0,1,,,,,,,,,1,,,76,0
160560,note_on,0,0,4,,,,,,,,,4,,,52,70
160560,note_off,120,0,4,,,,,,,,,4,,,47,0
160680,note_on,0,0,4,,,,,,,,,4,,,55,69
160680,note_off,120,0,4,,,,,,,,,4,,,52,0
160776,note_off,96,0,4,,,,,,,,,4,,,55,0
160800,note_on,324,0,5,,,,,,,,,5,,,45,69
160800,note_on,288,0,1,,,,,,,,,1,,,73,69
160800,note_on,0,0,2,,,,,,,,,2,,,69,69
160800,note_on,0,0,2,,,,,,,,,2,,,67,69
160800,note_on,288,0,2,,,,,,,,,2,,,64,69
160920,note_on,144,0,4,,,,,,,,,4,,,49,69
160956,note_off,156,0,5,,,,,,,,,5,,,45,0
160992,note_off,192,0,1,,,,,,,,,1,,,73,0
160992,note_off,0,0,2,,,,,,,,,2,,,64,0
160992,note_off,192,0,2,,,,,,,,,2,,,69,0
160992,note_off,0,0,2,,,,,,,,,2,,,67,0
161040,note_off,120,0,4,,,,,,,,,4,,,49,0
161040,note_on,0,0,4,,,,,,,,,4,,,52,69
161160,note_off,120,0,4,,,,,,,,,4,,,52,0
161160,note_on,0,0,4,,,,,,,,,4,,,57,69
161256,note_off,96,0,4,,,,,,,,,4,,,57,0
161280,note_on,324,0,5,,,,,,,,,5,,,38,69
161280,note_on,0,0,2,,,,,,,,,2,,,66,69
161280,note_on,288,0,1,,,,,,,,,1,,,74,69
161280,note_on,0,0,2,,,,,,,,,2,,,62,69
161280,note_on,288,0,2,,,,,,,,,2,,,69,69
161400,note_on,144,0,4,,,,,,,,,4,,,50,69
161520,note_off,120,0,4,,,,,,,,,4,,,50,0
161520,note_on,0,0,4,,,,,,,,,4,,,54,69
161520,note_off,240,0,5,,,,,,,,,5,,,38,0
161640,note_off,120,0,4,,,,,,,,,4,,,54,0
161640,note_on,0,0,4,,,,,,,,,4,,,50,68
161640,note_off,0,0,2,,,,,,,,,2,,,69,0
161640,note_off,0,0,2,,,,,,,,,2,,,66,0
161640,note_off,360,0,2,,,,,,,,,2,,,62,0
161640,note_off,360,0,1,,,,,,,,,1,,,74,0
161760,note_off,120,0,4,,,,,,,,,4,,,50,0
161760,note_on,240,0,5,,,,,,,,,5,,,45,68
161880,note_on,120,0,4,,,,,,,,,4,,,50,68
161916,note_off,156,0,5,,,,,,,,,5,,,45,0
162000,note_off,120,0,4,,,,,,,,,4,,,50,0
162000,note_on,84,0,5,,,,,,,,,5,,,42,68
162120,note_on,120,0,4,,,,,,,,,4,,,45,68
162156,note_off,156,0,5,,,,,,,,,5,,,42,0
162180,set_tempo,5220,1,0,,,,,,500000,,,,,,,
162240,note_on,84,0,5,,,,,,,,,5,,,38,68
162240,note_off,120,0,4,,,,,,,,,4,,,45,0
162432,note_off,192,0,5,,,,,,,,,5,,,38,0
162480,set_tempo,300,1,0,,,,,,508474,,,,,,,
162720,control_change,1080,0,2,,,,,,,64,0,2,,,,
162720,marker,0,1,0,,,,,,,,,,,,,
162720,set_tempo,240,1,0,,,,,,495867,,,,,,,
162720,note_on,0,0,2,,,,,,,,,2,,,69,76
162720,note_on,0,0,2,,,,,,,,,2,,,73,76
162720,control_change,480,0,4,,,,,,,64,0,4,,,,
162720,control_change,11520,0,3,,,,,,,64,0,3,,,,
162720,note_on,0,0,1,,,,,,,,,1,,,76,76
162720,control_change,288,0,5,,,,,,,64,0,5,,,,
162720,control_change,1080,0,1,,,,,,,64,0,1,,,,
162840,note_on,120,0,5,,,,,,,,,5,,,45,77
162918,note_off,78,0,5,,,,,,,,,5,,,45,0
162960,note_on,42,0,5,,,,,,,,,5,,,47,77
163038,note_off,78,0,5,,,,,,,,,5,,,47,0
163080,note_off,360,0,1,,,,,,,,,1,,,76,0
163080,note_off,360,0,2,,,,,,,,,2,,,69,0
163080,note_off,0,0,2,,,,,,,,,2,,,73,0
163080,note_on,42,0,5,,,,,,,,,5,,,49,78
163158,note_off,78,0,5,,,,,,,,,5,,,49,0
163200,note_on,0,0,2,,,,,,,,,2,,,69,78
163200,note_on,120,0,2,,,,,,,,,2,,,73,78
163200,note_on,120,0,1,,,,,,,,,1,,,76,78
163200,note_on,42,0,5,,,,,,,,,5,,,50,78
163278,note_off,78,0,5,,,,,,,,,5,,,50,0
163320,note_on,42,0,5,,,,,,,,,5,,,52,79
163398,note_off,78,0,5,,,,,,,,,5,,,52,0
163440,note_on,42,0,5,,,,,,,,,5,,,54,80
163518,note_off,78,0,5,,,,,,,,,5,,,54,0
163560,note_on,42,0,5,,,,,,,,,5,,,56,80
163560,note_off,360,0,2,,,,,,,,,2,,,69,0
163560,note_off,360,0,1,,,,,,,,,1,,,76,0
163560,note_off,0,0,2,,,,,,,,,2,,,73,0
163638,note_off,78,0,5,,,,,,,,,5,,,56,0
163680,note_on,120,0,2,,,,,,,,,2,,,73,81
163680,note_on,0,0,2,,,,,,,,,2,,,69,81
163680,note_on,42,0,5,,,,,,,,,5,,,57,81
163680,note_on,120,0,1,,,,,,,,,1,,,76,81
163758,note_off,78,0,5,,,,,,,,,5,,,57,0
163800,note_on,42,0,5,,,,,,,,,5,,,59,81
163878,note_off,78,0,5,,,,,,,,,5,,,59,0
163920,note_on,42,0,5,,,,,,,,,5,,,61,82
163998,note_off,78,0,5,,,,,,,,,5,,,61,0
164040,note_off,0,0,2,,,,,,,,,2,,,73,0
164040,note_on,42,0,5,,,,,,,,,5,,,62,83
164040,note_off,360,0,1,,,,,,,,,1,,,76,0
164040,note_off,360,0,2,,,,,,,,,2,,,69,0
164118,note_off,78,0,5,,,,,,,,,5,,,62,0
164160,note_on,120,0,1,,,,,,,,,1,,,76,85
164160,note_on,0,0,2,,,,,,,,,2,,,73,85
164160,note_on,120,0,2,,,,,,,,,2,,,69,85
164160,note_on,42,0,5,,,,,,,,,5,,,64,84
164280,note_off,120,0,5,,,,,,,,,5,,,64,0
164280,note_on,0,0,5,,,,,,,,,5,,,62,83
164400,note_off,120,0,5,,,,,,,,,5,,,62,0
164400,note_on,0,0,5,,,,,,,,,5,,,61,82
164520,note_on,0,0,5,,,,,,,,,5,,,59,81
164520,note_off,120,0,5,,,,,,,,,5,,,61,0
164640,note_on,0,0,5,,,,,,,,,5,,,57,80
164640,note_off,120,0,5,,,,,,,,,5,,,59,0
164760,note_off,120,0,5,,,,,,,,,5,,,57,0
164760,note_on,0,0,5,,,,,,,,,5,,,55,79
164880,note_off,120,0,5,,,,,,,,,5,,,55,0
164880,note_on,0,0,5,,,,,,,,,5,,,54,78
165000,note_off,840,0,1,,,,,,,,,1,,,76,0
165000,note_on,0,0,2,,,,,,,,,2,,,74,78
165000,note_on,0,0,5,,,,,,,,,5,,,52,77
165000,note_off,120,0,5,,,,,,,,,5,,,54,0
165000,note_off,0,0,2,,,,,,,,,2,,,69,0
165000,note_on,0,0,1,,,,,,,,,1,,,78,78
165000,note_off,840,0,2,,,,,,,,,2,,,73,0
165120,note_off,120,0,1,,,,,,,,,1,,,78,0
165120,note_on,0,0,5,,,,,,,,,5,,,50,77
165120,note_off,120,0,5,,,,,,,,,5,,,52,0
165120,note_off,120,0,2,,,,,,,,,2,,,74,0
165120,note_on,0,0,2,,,,,,,,,2,,,76,77
165120,note_on,0,0,1,,,,,,,,,1,,,79,77
165240,note_on,0,0,5,,,,,,,,,5,,,49,76
165240,note_off,120,0,5,,,,,,,,,5,,,50,0
165312,note_off,192,0,1,,,,,,,,,1,,,79,0
165312,note_off,192,0,2,,,,,,,,,2,,,76,0
165360,note_off,120,0,5,,,,,,,,,5,,,49,0
165360,note_on,0,0,5,,,,,,,,,5,,,47,75
165480,note_on,0,0,5,,,,,,,,,5,,,45,74
165480,note_off,120,0,5,,,,,,,,,5,,,47,0
165540,set_tempo,2820,1,0,,,,,,500000,,,,,,,
165558,note_off,78,0,5,,,,,,,,,5,,,45,0
165600,note_on,0,0,2,,,,,,,,,2,,,69,78
165600,note_on,288,0,2,,,,,,,,,2,,,74,78
165600,note_on,288,0,1,,,,,,,,,1,,,78,78
165600,set_tempo,60,1,0,,,,,,495867,,,,,,,
165720,note_on,162,0,5,,,,,,,,,5,,,50,78
165798,note_off,78,0,5,,,,,,,,,5,,,50,0
165840,note_on,42,0,5,,,,,,,,,5,,,52,79
165918,note_off,78,0,5,,,,,,,,,5,,,52,0
165960,note_on,42,0,5,,,,,,,,,5,,,54,79
165960,note_off,360,0,1,,,,,,,,,1,,,78,0
165960,note_off,360,0,2,,,,,,,,,2,,,69,0
165960,note_off,0,0,2,,,,,,,,,2,,,74,0
166038,note_off,78,0,5,,,,,,,,,5,,,54,0
166080,note_on,42,0,5,,,,,,,,,5,,,55,80
166080,note_on,120,0,1,,,,,,,,,1,,,78,80
166080,note_on,0,0,2,,,,,,,,,2,,,69,80
166080,note_on,120,0,2,,,,,,,,,2,,,74,80
166158,note_off,78,0,5,,,,,,,,,5,,,55,0
166200,note_on,42,0,5,,,,,,,,,5,,,57,80
166278,note_off,78,0,5,,,,,,,,,5,,,57,0
166320,note_on,42,0,5,,,,,,,,,5,,,59,80
166398,note_off,78,0,5,,,,,,,,,5,,,59,0
166440,note_off,360,0,1,,,,,,,,,1,,,78,0
166440,note_on,42,0,5,,,,,,,,,5,,,61,81
166440,note_off,0,0,2,,,,,,,,,2,,,74,0
166440,note_off,360,0,2,,,,,,,,,2,,,69,0
166518,note_off,78,0,5,,,,,,,,,5,,,61,0
166560,note_on,42,0,5,,,,,,,,,5,,,62,81
166560,note_on,120,0,2,,,,,,,,,2,,,74,81
166560,note_on,0,0,2,,,,,,,,,2,,,69,81
166560,note_on,120,0,1,,,,,,,,,1,,,78,81
166638,note_off,78,0,5,,,,,,,,,5,,,62,0
166680,note_on,42,0,5,,,,,,,,,5,,,64,82
166758,note_off,78,0,5,,,,,,,,,5,,,64,0
166800,note_on,42,0,5,,,,,,,,,5,,,66,82
166878,note_off,78,0,5,,,,,,,,,5,,,66,0
166920,note_off,0,0,2,,,,,,,,,2,,,74,0
166920,note_on,42,0,5,,,,,,,,,5,,,67,83
166920,note_off,360,0,1,,,,,,,,,1,,,78,0
166920,note_off,360,0,2,,,,,,,,,2,,,69,0
166980,set_tempo,1380,1,0,,,,,,500000,,,,,,,
166998,note_off,78,0,5,,,,,,,,,5,,,67,0
167040,set_tempo,60,1,0,,,,,,495867,,,,,,,
167040,note_on,120,0,2,,,,,,,,,2,,,74,83
167040,note_on,120,0,1,,,,,,,,,1,,,78,83
167040,note_on,42,0,5,,,,,,,,,5,,,69,83
167146,note_off,106,0,5,,,,,,,,,5,,,69,0
167160,note_on,14,0,5,,,,,,,,,5,,,67,81
167280,note_off,120,0,5,,,,,,,,,5,,,67,0
167280,note_on,0,0,5,,,,,,,,,5,,,66,80
167400,note_on,0,0,5,,,,,,,,,5,,,64,80
167400,note_off,120,0,5,,,,,,,,,5,,,66,0
167520,note_off,120,0,5,,,,,,,,,5,,,64,0
167520,note_on,0,0,5,,,,,,,,,5,,,62,79
167640,note_on,0,0,5,,,,,,,,,5,,,61,78
167640,note_off,120,0,5,,,,,,,,,5,,,62,0
167760,note_on,0,0,5,,,,,,,,,5,,,59,78
167760,note_off,120,0,5,,,,,,,,,5,,,61,0
167880,note_on,0,0,5,,,,,,,,,5,,,57,77
167880,note_off,120,0,5,,,,,,,,,5,,,59,0
167880,note_off,840,0,1,,,,,,,,,1,,,78,0
167880,note_on,0,0,1,,,,,,,,,1,,,79,78
167880,note_off,840,0,2,,,,,,,,,2,,,74,0
167880,note_on,0,0,2,,,,,,,,,2,,,76,78
168000,note_on,0,0,5,,,,,,,,,5,,,55,76
168000,note_off,120,0,1,,,,,,,,,1,,,79,0
168000,note_on,0,0,1,,,,,,,,,1,,,81,77
168000,note_off,120,0,5,,,,,,,,,5,,,57,0
168000,note_off,120,0,2,,,,,,,,,2,,,76,0
168000,note_on,0,0,2,,,,,,,,,2,,,78,77
168120,note_off,120,0,5,,,,,,,,,5,,,55,0
168120,note_on,0,0,5,,,,,,,,,5,,,54,75
168192,note_off,192,0,1,,,,,,,,,1,,,81,0
168192,note_off,192,0,2,,,,,,,,,2,,,78,0
168240,note_off,120,0,5,,,,,,,,,5,,,54,0
168240,note_on,0,0,5,,,,,,,,,5,,,52,75
168360,note_off,120,0,5,,,,,,,,,5,,,52,0
168360,note_on,0,0,5,,,,,,,,,5,,,50,74
168420,set_tempo,1380,1,0,,,,,,500000,,,,,,,
168456,note_off,96,0,5,,,,,,,,,5,,,50,0
168480,note_on,288,0,1,,,,,,,,,1,,,86,59
168480,set_tempo,60,1,0,,,,,,495867,,,,,,,
168600,note_on,5880,0,4,,,,,,,,,4,,,62,55
168720,note_off,120,0,4,,,,,,,,,4,,,62,0
168720,note_on,264,0,5,,,,,,,,,5,,,61,55
168840,note_on,120,0,4,,,,,,,,,4,,,62,55
168876,note_off,156,0,5,,,,,,,,,5,,,61,0
168960,note_on,0,0,1,,,,,,,,,1,,,78,56
168960,note_off,480,0,1,,,,,,,,,1,,,86,0
168960,note_off,120,0,4,,,,,,,,,4,,,62,0
168960,note_on,84,0,5,,,,,,,,,5,,,60,55
169080,note_on,120,0,4,,,,,,,,,4,,,62,54
169116,note_off,156,0,5,,,,,,,,,5,,,60,0
169116,note_off,156,0,1,,,,,,,,,1,,,78,0
169200,note_on,84,0,5,,,,,,,,,5,,,59,54
169200,note_off,120,0,4,,,,,,,,,4,,,62,0
169200,note_on,84,0,1,,,,,,,,,1,,,79,55
169320,note_on,120,0,4,,,,,,,,,4,,,62,54
169356,note_off,156,0,5,,,,,,,,,5,,,59,0
169356,note_off,156,0,1,,,,,,,,,1,,,79,0
169440,note_on,84,0,1,,,,,,,,,1,,,81,53
169440,note_on,84,0,5,,,,,,,,,5,,,57,54
169440,note_off,120,0,4,,,,,,,,,4,,,62,0
169560,note_on,120,0,4,,,,,,,,,4,,,62,54
169596,note_off,156,0,5,,,,,,,,,5,,,57,0
169596,note_off,156,0,1,,,,,,,,,1,,,81,0
169680,note_off,120,0,4,,,,,,,,,4,,,62,0
169680,note_on,84,0,5,,,,,,,,,5,,,55,53
169680,note_on,84,0,1,,,,,,,,,1,,,83,52
169800,note_on,120,0,4,,,,,,,,,4,,,62,53
169836,note_off,156,0,5,,,,,,,,,5,,,55,0
169836,note_off,156,0,1,,,,,,,,,1,,,83,0
169920,note_on,84,0,1,,,,,,,,,1,,,81,53
169920,note_off,120,0,4,,,,,,,,,4,,,62,0
169920,note_on,84,0,5,,,,,,,,,5,,,54,53
170040,note_on,120,0,4,,,,,,,,,4,,,62,53
170076,note_off,156,0,5,,,,,,,,,5,,,54,0
170160,note_on,84,0,5,,,,,,,,,5,,,61,52
170160,note_off,120,0,4,,,,,,,,,4,,,62,0
170280,note_on,120,0,4,,,,,,,,,4,,,62,52
170280,note_on,0,0,1,,,,,,,,,1,,,86,53
170280,note_off,360,0,1,,,,,,,,,1,,,81,0
170316,note_off,156,0,5,,,,,,,,,5,,,61,0
170400,note_off,120,0,1,,,,,,,,,1,,,86,0
170400,note_on,0,0,1,,,,,,,,,1,,,78,52
170400,note_off,120,0,4,,,,,,,,,4,,,62,0
170400,note_on,84,0,5,,,,,,,,,5,,,60,52
170520,note_on,120,0,4,,,,,,,,,4,,,62,52
170556,note_off,156,0,1,,,,,,,,,1,,,78,0
170556,note_off,156,0,5,,,,,,,,,5,,,60,0
170640,note_on,84,0,5,,,,,,,,,5,,,59,52
170640,note_on,84,0,1,,,,,,,,,1,,,79,50
170640,note_off,120,0,4,,,,,,,,,4,,,62,0
170760,note_on,120,0,4,,,,,,,,,4,,,62,51
170796,note_off,156,0,5,,,,,,,,,5,,,59,0
170796,note_off,156,0,1,,,,,,,,,1,,,79,0
170880,note_on,84,0,5,,,,,,,,,5,,,57,51
170880,note_on,84,0,1,,,,,,,,,1,,,81,48
170880,note_off,120,0,4,,,,,,,,,4,,,62,0
171000,note_on,120,0,4,,,,,,,,,4,,,62,51
171036,note_off,156,0,5,,,,,,,,,5,,,57,0
171036,note_off,156,0,1,,,,,,,,,1,,,81,0
171120,note_off,120,0,4,,,,,,,,,4,,,62,0
171120,note_on,84,0,5,,,,,,,,,5,,,55,51
171120,note_on,84,0,1,,,,,,,,,1,,,83,46
171240,note_on,120,0,4,,,,,,,,,4,,,62,51
171276,note_off,156,0,5,,,,,,,,,5,,,55,0
171276,note_off,156,0,1,,,,,,,,,1,,,83,0
171360,note_off,120,0,4,,,,,,,,,4,,,62,0
171360,note_on,84,0,5,,,,,,,,,5,,,54,50
171360,note_on,84,0,1,,,,,,,,,1,,,83,50
171480,note_on,120,0,4,,,,,,,,,4,,,62,50
171516,note_off,156,0,5,,,,,,,,,5,,,54,0
171600,note_off,240,0,1,,,,,,,,,1,,,83,0
171600,note_on,0,0,4,,,,,,,,,4,,,57,50
171600,note_off,120,0,4,,,,,,,,,4,,,62,0
171600,note_on,0,0,1,,,,,,,,,1,,,81,50
171720,note_on,0,0,4,,,,,,,,,4,,,62,50
171720,note_off,120,0,4,,,,,,,,,4,,,57,0
171720,note_off,120,0,1,,,,,,,,,1,,,81,0
171840,note_off,120,0,4,,,,,,,,,4,,,62,0
171840,note_on,324,0,5,,,,,,,,,5,,,52,49
171840,note_on,120,0,1,,,,,,,,,1,,,81,49
171960,note_on,120,0,4,,,,,,,,,4,,,61,49
171996,note_off,156,0,5,,,,,,,,,5,,,52,0
172080,note_off,240,0,1,,,,,,,,,1,,,81,0
172080,note_on,0,0,1,,,,,,,,,1,,,79,49
172080,note_on,0,0,4,,,,,,,,,4,,,57,49
172080,note_off,120,0,4,,,,,,,,,4,,,61,0
172200,note_off,120,0,1,,,,,,,,,1,,,79,0
172200,note_on,0,0,4,,,,,,,,,4,,,61,49
172200,note_off,120,0,4,,,,,,,,,4,,,57,0
172320,note_on,120,0,1,,,,,,,,,1,,,79,49
172320,note_off,120,0,4,,,,,,,,,4,,,61,0
172320,note_on,324,0,5,,,,,,,,,5,,,50,49
172440,note_on,120,0,4,,,,,,,,,4,,,62,48
172476,note_off,156,0,5,,,,,,,,,5,,,50,0
172560,note_off,120,0,4,,,,,,,,,4,,,62,0
172560,note_on,0,0,1,,,,,,,,,1,,,78,48
172560,note_off,240,0,1,,,,,,,,,1,,,79,0
172560,note_on,0,0,4,,,,,,,,,4,,,57,48
172680,note_on,0,0,4,,,,,,,,,4,,,62,48
172680,note_off,120,0,4,,,,,,,,,4,,,57,0
172680,note_off,120,0,1,,,,,,,,,1,,,78,0
172800,note_off,120,0,4,,,,,,,,,4,,,62,0
172800,note_on,324,0,5,,,,,,,,,5,,,57,48
172800,note_on,0,0,4,,,,,,,,,4,,,61,48
172800,note_on,120,0,1,,,,,,,,,1,,,76,48
172896,note_off,96,0,1,,,,,,,,,1,,,76,0
172920,note_on,24,0,1,,,,,,,,,1,,,69,46
173040,note_off,120,0,1,,,,,,,,,1,,,69,0
173040,note_on,0,0,1,,,,,,,,,1,,,71,48
173160,note_off,360,0,5,,,,,,,,,5,,,57,0
173160,note_off,120,0,1,,,,,,,,,1,,,71,0
173160,note_on,0,0,1,,,,,,,,,1,,,72,51
173160,note_off,360,0,4,,,,,,,,,4,,,61,0
173280,note_off,120,0,1,,,,,,,,,1,,,72,0
173280,note_on,0,0,1,,,,,,,,,1,,,73,53
173400,note_off,120,0,1,,,,,,,,,1,,,73,0
173400,note_on,0,0,1,,,,,,,,,1,,,74,55
173520,note_off,120,0,1,,,,,,,,,1,,,74,0
173520,note_on,0,0,1,,,,,,,,,1,,,75,57
173640,note_off,120,0,1,,,,,,,,,1,,,75,0
173640,note_on,0,0,1,,,,,,,,,1,,,76,60
173760,note_off,120,0,1,,,,,,,,,1,,,76,0
173760,note_on,0,0,1,,,,,,,,,1,,,77,62
173880,note_off,120,0,1,,,,,,,,,1,,,77,0
173880,note_on,0,0,1,,,,,,,,,1,,,78,64
174000,note_on,0,0,1,,,,,,,,,1,,,79,66
174000,note_off,120,0,1,,,,,,,,,1,,,78,0
174120,set_tempo,5640,1,0,,,,,,508474,,,,,,,
174120,note_off,120,0,1,,,,,,,,,1,,,79,0
174120,note_on,0,0,1,,,,,,,,,1,,,80,69
174216,note_off,96,0,1,,,,,,,,,1,,,80,0
174240,note_on,1080,0,5,,,,,,,,,5,,,50,80
174240,note_on,24,0,1,,,,,,,,,1,,,81,80
174240,set_tempo,120,1,0,,,,,,495867,,,,,,,
174240,note_on,0,0,2,,,,,,,,,2,,,74,80
174240,note_on,6048,0,2,,,,,,,,,2,,,78,80
174360,note_on,1200,0,4,,,,,,,,,4,,,62,81
174480,note_on,0,0,4,,,,,,,,,4,,,61,81
174480,note_off,120,0,4,,,,,,,,,4,,,62,0
174480,note_off,240,0,5,,,,,,,,,5,,,50,0
174600,note_on,0,0,4,,,,,,,,,4,,,62,81
174600,note_off,120,0,4,,,,,,,,,4,,,61,0
174720,note_on,0,0,4,,,,,,,,,4,,,66,81
174720,note_off,120,0,4,,,,,,,,,4,,,62,0
174840,note_off,120,0,4,,,,,,,,,4,,,66,0
174840,note_on,0,0,4,,,,,,,,,4,,,62,81
174960,note_off,120,0,4,,,,,,,,,4,,,62,0
174960,note_on,0,0,4,,,,,,,,,4,,,61,81
175080,note_on,0,0,4,,,,,,,,,4,,,62,81
175080,note_off,120,0,4,,,,,,,,,4,,,61,0
175200,note_off,120,0,4,,,,,,,,,4,,,62,0
175200,note_on,720,0,5,,,,,,,,,5,,,57,81
175200,note_off,0,0,2,,,,,,,,,2,,,78,0
175200,note_off,960,0,2,,,,,,,,,2,,,74,0
175200,note_on,0,0,1,,,,,,,,,1,,,86,78
175200,note_off,960,0,1,,,,,,,,,1,,,81,0
175320,note_on,120,0,4,,,,,,,,,4,,,62,80
175356,note_off,156,0,5,,,,,,,,,5,,,57,0
175392,note_off,192,0,1,,,,,,,,,1,,,86,0
175440,note_off,120,0,4,,,,,,,,,4,,,62,0
175440,note_on,84,0,5,,,,,,,,,5,,,54,80
175560,note_on,120,0,4,,,,,,,,,4,,,57,80
175596,note_off,156,0,5,,,,,,,,,5,,,54,0
175656,note_off,96,0,4,,,,,,,,,4,,,57,0
175680,note_on,480,0,2,,,,,,,,,2,,,74,80
175680,note_on,0,0,2,,,,,,,,,2,,,69,80
175680,note_on,84,0,5,,,,,,,,,5,,,50,80
175680,note_on,288,0,1,,,,,,,,,1,,,78,80
175800,note_on,144,0,4,,,,,,,,,4,,,62,80
175920,note_off,120,0,4,,,,,,,,,4,,,62,0
175920,note_on,0,0,4,,,,,,,,,4,,,61,80
175920,note_off,240,0,5,,,,,,,,,5,,,50,0
176040,note_off,120,0,4,,,,,,,,,4,,,61,0
176040,note_on,0,0,4,,,,,,,,,4,,,62,80
176160,note_off,120,0,4,,,,,,,,,4,,,62,0
176160,note_on,0,0,4,,,,,,,,,4,,,66,79
176280,note_off,120,0,4,,,,,,,,,4,,,66,0
176280,note_on,0,0,4,,,,,,,,,4,,,62,79
176400,note_on,0,0,4,,,,,,,,,4,,,61,79
176400,note_off,120,0,4,,,,,,,,,4,,,62,0
176520,note_off,120,0,4,,,,,,,,,4,,,61,0
176520,note_on,0,0,4,,,,,,,,,4,,,62,79
176640,note_on,0,0,1,,,,,,,,,1,,,81,77
176640,note_off,120,0,4,,,,,,,,,4,,,62,0
176640,note_on,720,0,5,,,,,,,,,5,,,57,79
176640,note_off,0,0,2,,,,,,,,,2,,,74,0
176640,note_off,960,0,2,,,,,,,,,2,,,69,0
176640,note_off,960,0,1,,,,,,,,,1,,,78,0
176760,note_on,120,0,4,,,,,,,,,4,,,62,79
176796,note_off,156,0,5,,,,,,,,,5,,,57,0
176832,note_off,192,0,1,,,,,,,,,1,,,81,0
176880,note_on,84,0,5,,,,,,,,,5,,,54,79
176880,note_off,120,0,4,,,,,,,,,4,,,62,0
177000,note_on,120,0,4,,,,,,,,,4,,,57,79
177036,note_off,156,0,5,,,,,,,,,5,,,54,0
177096,note_off,96,0,4,,,,,,,,,4,,,57,0
177120,note_on,288,0,1,,,,,,,,,1,,,74,78
177120,note_on,84,0,5,,,,,,,,,5,,,47,78
177120,note_on,480,0,2,,,,,,,,,2,,,71,78
177120,note_on,0,0,2,,,,,,,,,2,,,66,78
177240,note_on,144,0,4,,,,,,,,,4,,,50,78
177276,note_off,156,0,5,,,,,,,,,5,,,47,0
177312,note_off,192,0,1,,,,,,,,,1,,,74,0
177312,note_off,0,0,2,,,,,,,,,2,,,71,0
177312,note_off,192,0,2,,,,,,,,,2,,,66,0
177360,note_off,120,0,4,,,,,,,,,4,,,50,0
177360,note_on,0,0,4,,,,,,,,,4,,,54,78
177480,note_off,120,0,4,,,,,,,,,4,,,54,0
177480,note_on,0,0,4,,,,,,,,,4,,,59,78
177576,note_off,96,0,4,,,,,,,,,4,,,59,0
177600,note_on,288,0,1,,,,,,,,,1,,,76,78
177600,note_on,0,0,2,,,,,,,,,2,,,71,78
177600,note_on,288,0,2,,,,,,,,,2,,,74,78
177600,note_on,324,0,5,,,,,,,,,5,,,43,78
177720,note_on,144,0,4,,,,,,,,,4,,,47,78
177756,note_off,156,0,5,,,,,,,,,5,,,43,0
177792,note_off,192,0,1,,,,,,,,,1,,,76,0
177792,note_off,0,0,2,,,,,,,,,2,,,74,0
177792,note_off,192,0,2,,,,,,,,,2,,,71,0
177840,note_off,120,0,4,,,,,,,,,4,,,47,0
177840,note_on,0,0,4,,,,,,,,,4,,,52,78
177960,note_off,120,0,4,,,,,,,,,4,,,52,0
177960,note_on,0,0,4,,,,,,,,,4,,,55,78
178056,note_off,96,0,4,,,,,,,,,4,,,55,0
178080,note_on,324,0,5,,,,,,,,,5,,,45,77
178080,note_on,288,0,2,,,,,,,,,2,,,76,77
178080,note_on,0,0,2,,,,,,,,,2,,,73,77
178080,note_on,288,0,1,,,,,,,,,1,,,79,77
178080,note_on,0,0,2,,,,,,,,,2,,,69,77
178200,note_on,144,0,4,,,,,,,,,4,,,49,77
178236,note_off,156,0,5,,,,,,,,,5,,,45,0
178272,note_off,0,0,2,,,,,,,,,2,,,73,0
178272,note_off,0,0,2,,,,,,,,,2,,,76,0
178272,note_off,192,0,2,,,,,,,,,2,,,69,0
178272,note_off,192,0,1,,,,,,,,,1,,,79,0
178320,note_off,120,0,4,,,,,,,,,4,,,49,0
178320,note_on,0,0,4,,,,,,,,,4,,,52,77
178440,note_off,120,0,4,,,,,,,,,4,,,52,0
178440,note_on,0,0,4,,,,,,,,,4,,,57,77
178536,note_off,96,0,4,,,,,,,,,4,,,57,0
178560,note_on,324,0,5,,,,,,,,,5,,,50,77
178560,note_on,288,0,1,,,,,,,,,1,,,78,77
178680,note_on,0,0,1,,,,,,,,,1,,,74,75
178680,note_off,120,0,1,,,,,,,,,1,,,78,0
178800,note_off,120,0,1,,,,,,,,,1,,,74,0
178800,note_on,0,0,1,,,,,,,,,1,,,73,75
178920,note_off,120,0,1,,,,,,,,,1,,,73,0
178920,note_off,360,0,5,,,,,,,,,5,,,50,0
178920,note_on,0,0,1,,,,,,,,,1,,,76,74
179040,note_off,120,0,1,,,,,,,,,1,,,76,0
179040,note_on,0,0,1,,,,,,,,,1,,,74,73
179160,note_on,0,0,1,,,,,,,,,1,,,78,73
179160,note_off,120,0,1,,,,,,,,,1,,,74,0
179280,note_on,0,0,1,,,,,,,,,1,,,76,72
179280,note_off,120,0,1,,,,,,,,,1,,,78,0
179400,note_off,120,0,1,,,,,,,,,1,,,76,0
179400,note_on,0,0,1,,,,,,,,,1,,,79,72
179520,note_off,120,0,1,,,,,,,,,1,,,79,0
179520,note_on,0,0,1,,,,,,,,,1,,,78,71
179640,note_on,0,0,1,,,,,,,,,1,,,81,71
179640,note_off,120,0,1,,,,,,,,,1,,,78,0
179760,note_on,0,0,1,,,,,,,,,1,,,79,70
179760,note_off,120,0,1,,,,,,,,,1,,,81,0
179880,note_on,0,0,1,,,,,,,,,1,,,83,70
179880,note_off,120,0,1,,,,,,,,,1,,,79,0
179940,set_tempo,5700,1,0,,,,,,500000,,,,,,,
179976,note_off,96,0,1,,,,,,,,,1,,,83,0
180000,set_tempo,60,1,0,,,,,,495867,,,,,,,
180000,note_on,24,0,1,,,,,,,,,1,,,81,75
180000,note_on,1080,0,5,,,,,,,,,5,,,50,75
180000,note_on,0,0,2,,,,,,,,,2,,,78,75
180000,note_on,1728,0,2,,,,,,,,,2,,,74,75
180120,note_on,1584,0,4,,,,,,,,,4,,,62,75
180240,note_off,120,0,4,,,,,,,,,4,,,62,0
180240,note_on,0,0,4,,,,,,,,,4,,,61,75
180240,note_off,240,0,5,,,,,,,,,5,,,50,0
180360,note_on,0,0,4,,,,,,,,,4,,,62,75
180360,note_off,120,0,4,,,,,,,,,4,,,61,0
180480,note_on,0,0,4,,,,,,,,,4,,,66,75
180480,note_off,120,0,4,,,,,,,,,4,,,62,0
180600,note_on,0,0,4,,,,,,,,,4,,,62,75
180600,note_off,120,0,4,,,,,,,,,4,,,66,0
180720,note_off,120,0,4,,,,,,,,,4,,,62,0
180720,note_on,0,0,4,,,,,,,,,4,,,61,75
180840,note_off,120,0,4,,,,,,,,,4,,,61,0
180840,note_on,0,0,4,,,,,,,,,4,,,62,74
180960,note_off,120,0,4,,,,,,,,,4,,,62,0
180960,note_on,720,0,5,,,,,,,,,5,,,57,74
180960,note_off,960,0,2,,,,,,,,,2,,,78,0
180960,note_off,0,0,2,,,,,,,,,2,,,74,0
180960,note_on,0,0,1,,,,,,,,,1,,,86,71
180960,note_off,960,0,1,,,,,,,,,1,,,81,0
181080,note_on,120,0,4,,,,,,,,,4,,,62,74
181116,note_off,156,0,5,,,,,,,,,5,,,57,0
181152,note_off,192,0,1,,,,,,,,,1,,,86,0
181200,note_on,84,0,5,,,,,,,,,5,,,54,74
181200,note_off,120,0,4,,,,,,,,,4,,,62,0
181320,note_on,120,0,4,,,,,,,,,4,,,57,74
181356,note_off,156,0,5,,,,,,,,,5,,,54,0
181416,note_off,96,0,4,,,,,,,,,4,,,57,0
181440,note_on,480,0,2,,,,,,,,,2,,,74,74
181440,note_on,0,0,2,,,,,,,,,2,,,69,74
181440,note_on,288,0,1,,,,,,,,,1,,,78,74
181440,note_on,84,0,5,,,,,,,,,5,,,50,74
181560,note_on,144,0,4,,,,,,,,,4,,,62,74
181680,note_off,240,0,5,,,,,,,,,5,,,50,0
181680,note_on,0,0,4,,,,,,,,,4,,,61,73
181680,note_off,120,0,4,,,,,,,,,4,,,62,0
181800,note_on,0,0,4,,,,,,,,,4,,,62,73
181800,note_off,120,0,4,,,,,,,,,4,,,61,0
181920,note_off,120,0,4,,,,,,,,,4,,,62,0
181920,note_on,0,0,4,,,,,,,,,4,,,66,73
182040,note_on,0,0,4,,,,,,,,,4,,,62,73
182040,note_off,120,0,4,,,,,,,,,4,,,66,0
182160,note_off,120,0,4,,,,,,,,,4,,,62,0
182160,note_on,0,0,4,,,,,,,,,4,,,61,73
182280,note_off,120,0,4,,,,,,,,,4,,,61,0
182280,note_on,0,0,4,,,,,,,,,4,,,62,73
182400,note_on,720,0,5,,,,,,,,,5,,,57,73
182400,note_off,960,0,2,,,,,,,,,2,,,69,0
182400,note_off,960,0,1,,,,,,,,,1,,,78,0
182400,note_on,0,0,1,,,,,,,,,1,,,81,69
182400,note_off,120,0,4,,,,,,,,,4,,,62,0
182400,note_off,0,0,2,,,,,,,,,2,,,74,0
182520,note_on,120,0,4,,,,,,,,,4,,,62,73
182556,note_off,156,0,5,,,,,,,,,5,,,57,0
182592,note_off,192,0,1,,,,,,,,,1,,,81,0
182640,note_on,84,0,5,,,,,,,,,5,,,54,72
182640,note_off,120,0,4,,,,,,,,,4,,,62,0
182760,note_on,120,0,4,,,,,,,,,4,,,57,72
182796,note_off,156,0,5,,,,,,,,,5,,,54,0
182856,note_off,96,0,4,,,,,,,,,4,,,57,0
182880,note_on,480,0,2,,,,,,,,,2,,,71,72
182880,note_on,288,0,1,,,,,,,,,1,,,74,72
182880,note_on,84,0,5,,,,,,,,,5,,,47,72
182880,note_on,0,0,2,,,,,,,,,2,,,66,72
183000,note_on,144,0,4,,,,,,,,,4,,,50,72
183036,note_off,156,0,5,,,,,,,,,5,,,47,0
183072,note_off,0,0,2,,,,,,,,,2,,,71,0
183072,note_off,192,0,2,,,,,,,,,2,,,66,0
183072,note_off,192,0,1,,,,,,,,,1,,,74,0
183120,note_off,120,0,4,,,,,,,,,4,,,50,0
183120,note_on,0,0,4,,,,,,,,,4,,,54,72
183240,note_off,120,0,4,,,,,,,,,4,,,54,0
183240,note_on,0,0,4,,,,,,,,,4,,,59,72
183336,note_off,96,0,4,,,,,,,,,4,,,59,0
183360,note_on,324,0,5,,,,,,,,,5,,,43,72
183360,note_on,0,0,2,,,,,,,,,2,,,71,72
183360,note_on,288,0,2,,,,,,,,,2,,,67,72
183360,note_on,288,0,1,,,,,,,,,1,,,76,72
183480,note_on,144,0,4,,,,,,,,,4,,,47,72
183516,note_off,156,0,5,,,,,,,,,5,,,43,0
183552,note_off,192,0,1,,,,,,,,,1,,,76,0
183552,note_off,0,0,2,,,,,,,,,2,,,67,0
183552,note_off,192,0,2,,,,,,,,,2,,,71,0
183600,note_off,120,0,4,,,,,,,,,4,,,47,0
183600,note_on,0,0,4,,,,,,,,,4,,,52,71
183720,note_on,0,0,4,,,,,,,,,4,,,55,71
183720,note_off,120,0,4,,,,,,,,,4,,,52,0
183816,note_off,96,0,4,,,,,,,,,4,,,55,0
183840,note_on,288,0,1,,,,,,,,,1,,,73,71
183840,note_on,0,0,2,,,,,,,,,2,,,64,71
183840,note_on,0,0,2,,,,,,,,,2,,,69,71
183840,note_on,288,0,2,,,,,,,,,2,,,67,71
183840,note_on,324,0,5,,,,,,,,,5,,,45,71
183960,note_on,144,0,4,,,,,,,,,4,,,49,71
183996,note_off,156,0,5,,,,,,,,,5,,,45,0
184032,note_off,0,0,2,,,,,,,,,2,,,67,0
184032,note_off,0,0,2,,,,,,,,,2,,,69,0
184032,note_off,192,0,2,,,,,,,,,2,,,64,0
184032,note_off,192,0,1,,,,,,,,,1,,,73,0
184080,note_on,0,0,4,,,,,,,,,4,,,52,71
184080,note_off,120,0,4,,,,,,,,,4,,,49,0
184200,note_on,0,0,4,,,,,,,,,4,,,57,71
184200,note_off,120,0,4,,,,,,,,,4,,,52,0
184296,note_off,96,0,4,,,,,,,,,4,,,57,0
184320,note_on,0,0,2,,,,,,,,,2,,,62,71
184320,note_on,324,0,5,,,,,,,,,5,,,38,71
184320,note_on,288,0,1,,,,,,,,,1,,,74,71
184320,note_on,288,0,2,,,,,,,,,2,,,69,71
184320,note_on,0,0,2,,,,,,,,,2,,,66,71
184440,note_on,144,0,4,,,,,,,,,4,,,50,70
184476,note_off,156,0,5,,,,,,,,,5,,,38,0
184560,note_on,0,0,4,,,,,,,,,4,,,54,70
184560,note_off,120,0,4,,,,,,,,,4,,,50,0
184680,note_off,360,0,2,,,,,,,,,2,,,62,0
184680,note_off,360,0,1,,,,,,,,,1,,,74,0
184680,note_on,0,0,4,,,,,,,,,4,,,50,70
184680,note_off,120,0,4,,,,,,,,,4,,,54,0
184680,note_off,0,0,2,,,,,,,,,2,,,69,0
184680,note_off,0,0,2,,,,,,,,,2,,,66,0
184800,note_off,120,0,4,,,,,,,,,4,,,50,0
184800,note_on,324,0,5,,,,,,,,,5,,,45,70
184920,note_on,120,0,4,,,,,,,,,4,,,50,70
184956,note_off,156,0,5,,,,,,,,,5,,,45,0
185040,note_off,120,0,4,,,,,,,,,4,,,50,0
185040,note_on,84,0,5,,,,,,,,,5,,,42,70
185160,note_on,120,0,4,,,,,,,,,4,,,45,70
185196,note_off,156,0,5,,,,,,,,,5,,,42,0
185280,note_off,120,0,4,,,,,,,,,4,,,45,0
185280,note_on,84,0,5,,,,,,,,,5,,,38,70
185520,set_tempo,5520,1,0,,,,,,508474,,,,,,,
185520,control_change,240,0,4,,,,,,,64,0,4,,,,
185520,control_change,840,0,1,,,,,,,64,0,1,,,,
185520,control_change,240,0,5,,,,,,,64,0,5,,,,
185520,note_off,0,0,5,,,,,,,,,5,,,38,0
185520,control_change,22800,0,3,,,,,,,64,0,3,,,,
185520,control_change,840,0,2,,,,,,,64,0,2,,,,
185760,control_change,240,0,5,,,,,,,64,0,5,,,,
185760,control_change,240,0,1,,,,,,,64,0,1,,,,
185760,marker,0,1,0,,,,,,,,,,,,,
185760,control_change,240,0,3,,,,,,,64,0,3,,,,
185760,control_change,240,0,2,,,,,,,64,0,2,,,,
185760,note_on,0,0,2,,,,,,,,,2,,,69,76
185760,note_on,0,0,2,,,,,,,,,2,,,73,76
185760,set_tempo,240,1,0,,,,,,495867,,,,,,,
185760,note_on,0,0,1,,,,,,,,,1,,,76,76
185760,control_change,240,0,4,,,,,,,64,0,4,,,,
185880,note_on,120,0,5,,,,,,,,,5,,,45,77
185958,note_off,78,0,5,,,,,,,,,5,,,45,0
186000,note_on,42,0,5,,,,,,,,,5,,,47,77
186078,note_off,78,0,5,,,,,,,,,5,,,47,0
186120,note_off,360,0,1,,,,,,,,,1,,,76,0
186120,note_off,0,0,2,,,,,,,,,2,,,69,0
186120,note_off,360,0,2,,,,,,,,,2,,,73,0
186120,note_on,42,0,5,,,,,,,,,5,,,49,78
186198,note_off,78,0,5,,,,,,,,,5,,,49,0
186240,note_on,42,0,5,,,,,,,,,5,,,50,78
186240,note_on,0,0,2,,,,,,,,,2,,,73,78
186240,note_on,120,0,2,,,,,,,,,2,,,69,78
186240,note_on,120,0,1,,,,,,,,,1,,,76,78
186318,note_off,78,0,5,,,,,,,,,5,,,50,0
186360,note_on,42,0,5,,,,,,,,,5,,,52,79
186438,note_off,78,0,5,,,,,,,,,5,,,52,0
186480,note_on,42,0,5,,,,,,,,,5,,,54,80
186558,note_off,78,0,5,,,,,,,,,5,,,54,0
186600,note_on,42,0,5,,,,,,,,,5,,,56,80
186600,note_off,360,0,1,,,,,,,,,1,,,76,0
186600,note_off,360,0,2,,,,,,,,,2,,,73,0
186600,note_off,0,0,2,,,,,,,,,2,,,69,0
186678,note_off,78,0,5,,,,,,,,,5,,,56,0
186720,note_on,120,0,1,,,,,,,,,1,,,76,81
186720,note_on,120,0,2,,,,,,,,,2,,,69,81
186720,note_on,0,0,2,,,,,,,,,2,,,73,81
186720,note_on,42,0,5,,,,,,,,,5,,,57,81
186798,note_off,78,0,5,,,,,,,,,5,,,57,0
186840,note_on,42,0,5,,,,,,,,,5,,,59,81
186918,note_off,78,0,5,,,,,,,,,5,,,59,0
186960,note_on,42,0,5,,,,,,,,,5,,,61,82
187038,note_off,78,0,5,,,,,,,,,5,,,61,0
187080,note_off,0,0,2,,,,,,,,,2,,,69,0
187080,note_on,42,0,5,,,,,,,,,5,,,62,83
187080,note_off,360,0,2,,,,,,,,,2,,,73,0
187080,note_off,360,0,1,,,,,,,,,1,,,76,0
187158,note_off,78,0,5,,,,,,,,,5,,,62,0
187200,note_on,42,0,5,,,,,,,,,5,,,64,84
187200,note_on,120,0,1,,,,,,,,,1,,,76,85
187200,note_on,120,0,2,,,,,,,,,2,,,73,85
187200,note_on,0,0,2,,,,,,,,,2,,,69,85
187320,note_off,120,0,5,,,,,,,,,5,,,64,0
187320,note_on,0,0,5,,,,,,,,,5,,,62,83
187440,note_on,0,0,5,,,,,,,,,5,,,61,82
187440,note_off,120,0,5,,,,,,,,,5,,,62,0
187560,note_off,120,0,5,,,,,,,,,5,,,61,0
187560,note_on,0,0,5,,,,,,,,,5,,,59,81
187680,note_off,120,0,5,,,,,,,,,5,,,59,0
187680,note_on,0,0,5,,,,,,,,,5,,,57,80
187800,note_on,0,0,5,,,,,,,,,5,,,55,79
187800,note_off,120,0,5,,,,,,,,,5,,,57,0
187920,note_off,120,0,5,,,,,,,,,5,,,55,0
187920,note_on,0,0,5,,,,,,,,,5,,,54,78
188040,note_off,120,0,5,,,,,,,,,5,,,54,0
188040,note_on,0,0,2,,,,,,,,,2,,,74,78
188040,note_on,0,0,5,,,,,,,,,5,,,52,77
188040,note_off,0,0,2,,,,,,,,,2,,,73,0
188040,note_on,0,0,1,,,,,,,,,1,,,78,78
188040,note_off,840,0,2,,,,,,,,,2,,,69,0
188040,note_off,840,0,1,,,,,,,,,1,,,76,0
188160,note_off,120,0,2,,,,,,,,,2,,,74,0
188160,note_on,0,0,2,,,,,,,,,2,,,76,77
188160,note_on,0,0,5,,,,,,,,,5,,,50,77
188160,note_off,120,0,1,,,,,,,,,1,,,78,0
188160,note_on,0,0,1,,,,,,,,,1,,,79,77
188160,note_off,120,0,5,,,,,,,,,5,,,52,0
188280,note_off,120,0,5,,,,,,,,,5,,,50,0
188280,note_on,0,0,5,,,,,,,,,5,,,49,76
188352,note_off,192,0,2,,,,,,,,,2,,,76,0
188352,note_off,192,0,1,,,,,,,,,1,,,79,0
188400,note_on,0,0,5,,,,,,,,,5,,,47,75
188400,note_off,120,0,5,,,,,,,,,5,,,49,0
188520,note_off,120,0,5,,,,,,,,,5,,,47,0
188520,note_on,0,0,5,,,,,,,,,5,,,45,74
188580,set_tempo,2820,1,0,,,,,,500000,,,,,,,
188598,note_off,78,0,5,,,,,,,,,5,,,45,0
188640,note_on,0,0,2,,,,,,,,,2,,,74,78
188640,set_tempo,60,1,0,,,,,,495867,,,,,,,
188640,note_on,288,0,1,,,,,,,,,1,,,78,78
188640,note_on,288,0,2,,,,,,,,,2,,,69,78
188760,note_on,162,0,5,,,,,,,,,5,,,50,78
188838,note_off,78,0,5,,,,,,,,,5,,,50,0
188880,note_on,42,0,5,,,,,,,,,5,,,52,79
188958,note_off,78,0,5,,,,,,,,,5,,,52,0
189000,note_off,360,0,2,,,,,,,,,2,,,74,0
189000,note_off,0,0,2,,,,,,,,,2,,,69,0
189000,note_on,42,0,5,,,,,,,,,5,,,54,79
189000,note_off,360,0,1,,,,,,,,,1,,,78,0
189078,note_off,78,0,5,,,,,,,,,5,,,54,0
189120,note_on,120,0,2,,,,,,,,,2,,,69,80
189120,note_on,0,0,2,,,,,,,,,2,,,74,80
189120,note_on,42,0,5,,,,,,,,,5,,,55,80
189120,note_on,120,0,1,,,,,,,,,1,,,78,80
189198,note_off,78,0,5,,,,,,,,,5,,,55,0
189240,note_on,42,0,5,,,,,,,,,5,,,57,80
189318,note_off,78,0,5,,,,,,,,,5,,,57,0
189360,note_on,42,0,5,,,,,,,,,5,,,59,80
189438,note_off,78,0,5,,,,,,,,,5,,,59,0
189480,note_on,42,0,5,,,,,,,,,5,,,61,81
189480,note_off,360,0,2,,,,,,,,,2,,,74,0
189480,note_off,360,0,1,,,,,,,,,1,,,78,0
189480,note_off,0,0,2,,,,,,,,,2,,,69,0
189558,note_off,78,0,5,,,,,,,,,5,,,61,0
189600,note_on,120,0,1,,,,,,,,,1,,,78,81
189600,note_on,120,0,2,,,,,,,,,2,,,69,81
189600,note_on,42,0,5,,,,,,,,,5,,,62,81
189600,note_on,0,0,2,,,,,,,,,2,,,74,81
189678,note_off,78,0,5,,,,,,,,,5,,,62,0
189720,note_on,42,0,5,,,,,,,,,5,,,64,82
189798,note_off,78,0,5,,,,,,,,,5,,,64,0
189840,note_on,42,0,5,,,,,,,,,5,,,66,82
189918,note_off,78,0,5,,,,,,,,,5,,,66,0
189960,note_on,42,0,5,,,,,,,,,5,,,67,83
189960,note_off,0,0,2,,,,,,,,,2,,,69,0
189960,note_off,360,0,2,,,,,,,,,2,,,74,0
189960,note_off,360,0,1,,,,,,,,,1,,,78,0
190020,set_tempo,1380,1,0,,,,,,500000,,,,,,,
190038,note_off,78,0,5,,,,,,,,,5,,,67,0
190080,set_tempo,60,1,0,,,,,,495867,,,,,,,
190080,note_on,120,0,1,,,,,,,,,1,,,78,83
190080,note_on,120,0,2,,,,,,,,,2,,,74,83
190080,note_on,42,0,5,,,,,,,,,5,,,69,83
190186,note_off,106,0,5,,,,,,,,,5,,,69,0
190200,note_on,14,0,5,,,,,,,,,5,,,67,81
190320,note_off,120,0,5,,,,,,,,,5,,,67,0
190320,note_on,0,0,5,,,,,,,,,5,,,66,80
190440,note_off,120,0,5,,,,,,,,,5,,,66,0
190440,note_on,0,0,5,,,,,,,,,5,,,64,80
190560,note_off,120,0,5,,,,,,,,,5,,,64,0
190560,note_on,0,0,5,,,,,,,,,5,,,62,79
190680,note_off,120,0,5,,,,,,,,,5,,,62,0
190680,note_on,0,0,5,,,,,,,,,5,,,61,78
190800,note_off,120,0,5,,,,,,,,,5,,,61,0
190800,note_on,0,0,5,,,,,,,,,5,,,59,78
190920,note_off,840,0,1,,,,,,,,,1,,,78,0
190920,note_on,0,0,1,,,,,,,,,1,,,79,78
190920,note_off,840,0,2,,,,,,,,,2,,,74,0
190920,note_on,0,0,5,,,,,,,,,5,,,57,77
190920,note_on,0,0,2,,,,,,,,,2,,,76,78
190920,note_off,120,0,5,,,,,,,,,5,,,59,0
191040,note_off,120,0,5,,,,,,,,,5,,,57,0
191040,note_on,0,0,5,,,,,,,,,5,,,55,76
191040,note_off,120,0,2,,,,,,,,,2,,,76,0
191040,note_on,0,0,2,,,,,,,,,2,,,78,77
191040,note_off,120,0,1,,,,,,,,,1,,,79,0
191040,note_on,0,0,1,,,,,,,,,1,,,81,77
191160,note_off,120,0,5,,,,,,,,,5,,,55,0
191160,note_on,0,0,5,,,,,,,,,5,,,54,75
191232,note_off,192,0,2,,,,,,,,,2,,,78,0
191232,note_off,192,0,1,,,,,,,,,1,,,81,0
191280,note_off,120,0,5,,,,,,,,,5,,,54,0
191280,note_on,0,0,5,,,,,,,,,5,,,52,75
191400,note_on,0,0,5,,,,,,,,,5,,,50,74
191400,note_off,120,0,5,,,,,,,,,5,,,52,0
191460,set_tempo,1380,1,0,,,,,,500000,,,,,,,
191496,note_off,96,0,5,,,,,,,,,5,,,50,0
191520,note_on,288,0,1,,,,,,,,,1,,,86,59
191520,set_tempo,60,1,0,,,,,,495867,,,,,,,
191640,note_on,5880,0,4,,,,,,,,,4,,,62,55
191760,note_off,120,0,4,,,,,,,,,4,,,62,0
191760,note_on,264,0,5,,,,,,,,,5,,,61,55
191880,note_on,120,0,4,,,,,,,,,4,,,62,55
191916,note_off,156,0,5,,,,,,,,,5,,,61,0
192000,note_off,120,0,4,,,,,,,,,4,,,62,0
192000,note_on,84,0,5,,,,,,,,,5,,,60,55
192000,note_on,0,0,1,,,,,,,,,1,,,78,56
192000,note_off,480,0,1,,,,,,,,,1,,,86,0
192120,note_on,120,0,4,,,,,,,,,4,,,62,54
192156,note_off,156,0,5,,,,,,,,,5,,,60,0
192156,note_off,156,0,1,,,,,,,,,1,,,78,0
192240,note_on,84,0,1,,,,,,,,,1,,,79,55
192240,note_off,120,0,4,,,,,,,,,4,,,62,0
192240,note_on,84,0,5,,,,,,,,,5,,,59,54
192360,note_on,120,0,4,,,,,,,,,4,,,62,54
192396,note_off,156,0,1,,,,,,,,,1,,,79,0
192396,note_off,156,0,5,,,,,,,,,5,,,59,0
192480,note_off,120,0,4,,,,,,,,,4,,,62,0
192480,note_on,84,0,1,,,,,,,,,1,,,81,53
192480,note_on,84,0,5,,,,,,,,,5,,,57,54
192600,note_on,120,0,4,,,,,,,,,4,,,62,54
192636,note_off,156,0,1,,,,,,,,,1,,,81,0
192636,note_off,156,0,5,,,,,,,,,5,,,57,0
192720,note_off,120,0,4,,,,,,,,,4,,,62,0
192720,note_on,84,0,1,,,,,,,,,1,,,83,52
192720,note_on,84,0,5,,,,,,,,,5,,,55,53
192840,note_on,120,0,4,,,,,,,,,4,,,62,53
192876,note_off,156,0,5,,,,,,,,,5,,,55,0
192876,note_off,156,0,1,,,,,,,,,1,,,83,0
192960,note_on,84,0,1,,,,,,,,,1,,,81,53
192960,note_off,120,0,4,,,,,,,,,4,,,62,0
192960,note_on,84,0,5,,,,,,,,,5,,,54,53
193080,note_on,120,0,4,,,,,,,,,4,,,62,53
193116,note_off,156,0,5,,,,,,,,,5,,,54,0
193200,note_on,84,0,5,,,,,,,,,5,,,61,52
193200,note_off,120,0,4,,,,,,,,,4,,,62,0
193320,note_on,0,0,1,,,,,,,,,1,,,86,53
193320,note_on,120,0,4,,,,,,,,,4,,,62,52
193320,note_off,360,0,1,,,,,,,,,1,,,81,0
193356,note_off,156,0,5,,,,,,,,,5,,,61,0
193440,note_off,120,0,1,,,,,,,,,1,,,86,0
193440,note_on,0,0,1,,,,,,,,,1,,,78,52
193440,note_on,84,0,5,,,,,,,,,5,,,60,52
193440,note_off,120,0,4,,,,,,,,,4,,,62,0
193560,note_on,120,0,4,,,,,,,,,4,,,62,52
193596,note_off,156,0,1,,,,,,,,,1,,,78,0
193596,note_off,156,0,5,,,,,,,,,5,,,60,0
193680,note_on,84,0,1,,,,,,,,,1,,,79,50
193680,note_on,84,0,5,,,,,,,,,5,,,59,52
193680,note_off,120,0,4,,,,,,,,,4,,,62,0
193800,note_on,120,0,4,,,,,,,,,4,,,62,51
193836,note_off,156,0,1,,,,,,,,,1,,,79,0
193836,note_off,156,0,5,,,,,,,,,5,,,59,0
193920,note_on,84,0,1,,,,,,,,,1,,,81,48
193920,note_on,84,0,5,,,,,,,,,5,,,57,51
193920,note_off,120,0,4,,,,,,,,,4,,,62,0
194040,note_on,120,0,4,,,,,,,,,4,,,62,51
194076,note_off,156,0,5,,,,,,,,,5,,,57,0
194076,note_off,156,0,1,,,,,,,,,1,,,81,0
194160,note_off,120,0,4,,,,,,,,,4,,,62,0
194160,note_on,84,0,5,,,,,,,,,5,,,55,51
194160,note_on,84,0,1,,,,,,,,,1,,,83,46
194280,note_on,120,0,4,,,,,,,,,4,,,62,51
194316,note_off,156,0,5,,,,,,,,,5,,,55,0
194316,note_off,156,0,1,,,,,,,,,1,,,83,0
194400,note_off,120,0,4,,,,,,,,,4,,,62,0
194400,note_on,84,0,5,,,,,,,,,5,,,54,50
194400,note_on,84,0,1,,,,,,,,,1,,,83,50
194520,note_on,120,0,4,,,,,,,,,4,,,62,50
194556,note_off,156,0,5,,,,,,,,,5,,,54,0
194640,note_on,0,0,1,,,,,,,,,1,,,81,50
194640,note_on,0,0,4,,,,,,,,,4,,,57,50
194640,note_off,240,0,1,,,,,,,,,1,,,83,0
194640,note_off,120,0,4,,,,,,,,,4,,,62,0
194760,note_on,0,0,4,,,,,,,,,4,,,62,50
194760,note_off,120,0,1,,,,,,,,,1,,,81,0
194760,note_off,120,0,4,,,,,,,,,4,,,57,0
194880,note_on,324,0,5,,,,,,,,,5,,,52,49
194880,note_off,120,0,4,,,,,,,,,4,,,62,0
194880,note_on,120,0,1,,,,,,,,,1,,,81,49
195000,note_on,120,0,4,,,,,,,,,4,,,61,49
195036,note_off,156,0,5,,,,,,,,,5,,,52,0
195120,note_on,0,0,1,,,,,,,,,1,,,79,49
195120,note_off,240,0,1,,,,,,,,,1,,,81,0
195120,note_off,120,0,4,,,,,,,,,4,,,61,0
195120,note_on,0,0,4,,,,,,,,,4,,,57,49
195240,note_on,0,0,4,,,,,,,,,4,,,61,49
195240,note_off,120,0,4,,,,,,,,,4,,,57,0
195240,note_off,120,0,1,,,,,,,,,1,,,79,0
195360,note_off,120,0,4,,,,,,,,,4,,,61,0
195360,note_on,120,0,1,,,,,,,,,1,,,79,49
195360,note_on,324,0,5,,,,,,,,,5,,,50,49
195480,note_on,120,0,4,,,,,,,,,4,,,62,48
195516,note_off,156,0,5,,,,,,,,,5,,,50,0
195600,note_off,120,0,4,,,,,,,,,4,,,62,0
195600,note_on,0,0,1,,,,,,,,,1,,,78,48
195600,note_off,240,0,1,,,,,,,,,1,,,79,0
195600,note_on,0,0,4,,,,,,,,,4,,,57,48
195720,note_on,0,0,4,,,,,,,,,4,,,62,48
195720,note_off,120,0,4,,,,,,,,,4,,,57,0
195720,note_off,120,0,1,,,,,,,,,1,,,78,0
195840,note_on,0,0,4,,,,,,,,,4,,,61,48
195840,note_on,120,0,1,,,,,,,,,1,,,76,48
195840,note_on,324,0,5,,,,,,,,,5,,,57,48
195840,note_off,120,0,4,,,,,,,,,4,,,62,0
195936,note_off,96,0,1,,,,,,,,,1,,,76,0
195960,note_on,24,0,1,,,,,,,,,1,,,69,46
196080,note_on,0,0,1,,,,,,,,,1,,,71,48
196080,note_off,120,0,1,,,,,,,,,1,,,69,0
196200,note_on,0,0,1,,,,,,,,,1,,,72,51
196200,note_off,360,0,4,,,,,,,,,4,,,61,0
196200,note_off,360,0,5,,,,,,,,,5,,,57,0
196200,note_off,120,0,1,,,,,,,,,1,,,71,0
196320,note_off,120,0,1,,,,,,,,,1,,,72,0
196320,note_on,0,0,1,,,,,,,,,1,,,73,53
196440,note_off,120,0,1,,,,,,,,,1,,,73,0
196440,note_on,0,0,1,,,,,,,,,1,,,74,55
196560,note_on,0,0,1,,,,,,,,,1,,,75,57
196560,note_off,120,0,1,,,,,,,,,1,,,74,0
196680,note_off,120,0,1,,,,,,,,,1,,,75,0
196680,note_on,0,0,1,,,,,,,,,1,,,76,60
196800,note_off,120,0,1,,,,,,,,,1,,,76,0
196800,note_on,0,0,1,,,,,,,,,1,,,77,62
196920,note_off,120,0,1,,,,,,,,,1,,,77,0
196920,note_on,0,0,1,,,,,,,,,1,,,78,64
197040,note_off,120,0,1,,,,,,,,,1,,,78,0
197040,note_on,0,0,1,,,,,,,,,1,,,79,66
197160,note_off,120,0,1,,,,,,,,,1,,,79,0
197160,set_tempo,5640,1,0,,,,,,508474,,,,,,,
197160,note_on,0,0,1,,,,,,,,,1,,,80,69
197256,note_off,96,0,1,,,,,,,,,1,,,80,0
197280,note_on,0,0,2,,,,,,,,,2,,,78,80
197280,note_on,6048,0,2,,,,,,,,,2,,,74,80
197280,note_on,1080,0,5,,,,,,,,,5,,,50,80
197280,set_tempo,120,1,0,,,,,,495867,,,,,,,
197280,note_on,24,0,1,,,,,,,,,1,,,81,80
197400,note_on,1200,0,4,,,,,,,,,4,,,62,81
197520,note_on,0,0,4,,,,,,,,,4,,,61,81
197520,note_off,240,0,5,,,,,,,,,5,,,50,0
197520,note_off,120,0,4,,,,,,,,,4,,,62,0
197640,note_off,120,0,4,,,,,,,,,4,,,61,0
197640,note_on,0,0,4,,,,,,,,,4,,,62,81
197760,note_off,120,0,4,,,,,,,,,4,,,62,0
197760,note_on,0,0,4,,,,,,,,,4,,,66,81
197880,note_on,0,0,4,,,,,,,,,4,,,62,81
197880,note_off,120,0,4,,,,,,,,,4,,,66,0
198000,note_on,0,0,4,,,,,,,,,4,,,61,81
198000,note_off,120,0,4,,,,,,,,,4,,,62,0
198120,note_off,120,0,4,,,,,,,,,4,,,61,0
198120,note_on,0,0,4,,,,,,,,,4,,,62,81
198240,note_off,120,0,4,,,,,,,,,4,,,62,0
198240,note_off,0,0,2,,,,,,,,,2,,,74,0
198240,note_off,960,0,2,,,,,,,,,2,,,78,0
198240,note_on,0,0,1,,,,,,,,,1,,,86,78
198240,note_off,960,0,1,,,,,,,,,1,,,81,0
198240,note_on,720,0,5,,,,,,,,,5,,,57,81
198360,note_on,120,0,4,,,,,,,,,4,,,62,80
198396,note_off,156,0,5,,,,,,,,,5,,,57,0
198432,note_off,192,0,1,,,,,,,,,1,,,86,0
198480,note_on,84,0,5,,,,,,,,,5,,,54,80
198480,note_off,120,0,4,,,,,,,,,4,,,62,0
198600,note_on,120,0,4,,,,,,,,,4,,,57,80
198636,note_off,156,0,5,,,,,,,,,5,,,54,0
198696,note_off,96,0,4,,,,,,,,,4,,,57,0
198720,note_on,84,0,5,,,,,,,,,5,,,50,80
198720,note_on,480,0,2,,,,,,,,,2,,,69,80
198720,note_on,0,0,2,,,,,,,,,2,,,74,80
198720,note_on,288,0,1,,,,,,,,,1,,,78,80
198840,note_on,144,0,4,,,,,,,,,4,,,62,80
198960,note_on,0,0,4,,,,,,,,,4,,,61,80
198960,note_off,120,0,4,,,,,,,,,4,,,62,0
198960,note_off,240,0,5,,,,,,,,,5,,,50,0
199080,note_off,120,0,4,,,,,,,,,4,,,61,0
199080,note_on,0,0,4,,,,,,,,,4,,,62,80
199200,note_off,120,0,4,,,,,,,,,4,,,62,0
199200,note_on,0,0,4,,,,,,,,,4,,,66,79
199320,note_off,120,0,4,,,,,,,,,4,,,66,0
199320,note_on,0,0,4,,,,,,,,,4,,,62,79
199440,note_on,0,0,4,,,,,,,,,4,,,61,79
199440,note_off,120,0,4,,,,,,,,,4,,,62,0
199560,note_off,120,0,4,,,,,,,,,4,,,61,0
199560,note_on,0,0,4,,,,,,,,,4,,,62,79
199680,note_off,960,0,1,,,,,,,,,1,,,78,0
199680,note_on,0,0,1,,,,,,,,,1,,,81,77
199680,note_off,120,0,4,,,,,,,,,4,,,62,0
199680,note_on,720,0,5,,,,,,,,,5,,,57,79
199680,note_off,960,0,2,,,,,,,,,2,,,74,0
199680,note_off,0,0,2,,,,,,,,,2,,,69,0
199800,note_on,120,0,4,,,,,,,,,4,,,62,79
199836,note_off,156,0,5,,,,,,,,,5,,,57,0
199872,note_off,192,0,1,,,,,,,,,1,,,81,0
199920,note_off,120,0,4,,,,,,,,,4,,,62,0
199920,note_on,84,0,5,,,,,,,,,5,,,54,79
200040,note_on,120,0,4,,,,,,,,,4,,,57,79
200076,note_off,156,0,5,,,,,,,,,5,,,54,0
200136,note_off,96,0,4,,,,,,,,,4,,,57,0
200160,note_on,84,0,5,,,,,,,,,5,,,47,78
200160,note_on,288,0,1,,,,,,,,,1,,,74,78
200160,note_on,0,0,2,,,,,,,,,2,,,71,78
200160,note_on,480,0,2,,,,,,,,,2,,,66,78
200280,note_on,144,0,4,,,,,,,,,4,,,50,78
200316,note_off,156,0,5,,,,,,,,,5,,,47,0
200352,note_off,192,0,2,,,,,,,,,2,,,71,0
200352,note_off,192,0,1,,,,,,,,,1,,,74,0
200352,note_off,0,0,2,,,,,,,,,2,,,66,0
200400,note_off,120,0,4,,,,,,,,,4,,,50,0
200400,note_on,0,0,4,,,,,,,,,4,,,54,78
200520,note_on,0,0,4,,,,,,,,,4,,,59,78
200520,note_off,120,0,4,,,,,,,,,4,,,54,0
200616,note_off,96,0,4,,,,,,,,,4,,,59,0
200640,note_on,288,0,1,,,,,,,,,1,,,76,78
200640,note_on,0,0,2,,,,,,,,,2,,,74,78
200640,note_on,288,0,2,,,,,,,,,2,,,71,78
200640,note_on,324,0,5,,,,,,,,,5,,,43,78
200760,note_on,144,0,4,,,,,,,,,4,,,47,78
200796,note_off,156,0,5,,,,,,,,,5,,,43,0
200832,note_off,192,0,2,,,,,,,,,2,,,74,0
200832,note_off,192,0,1,,,,,,,,,1,,,76,0
200832,note_off,0,0,2,,,,,,,,,2,,,71,0
200880,note_off,120,0,4,,,,,,,,,4,,,47,0
200880,note_on,0,0,4,,,,,,,,,4,,,52,78
201000,note_off,120,0,4,,,,,,,,,4,,,52,0
201000,note_on,0,0,4,,,,,,,,,4,,,55,78
201096,note_off,96,0,4,,,,,,,,,4,,,55,0
201120,note_on,288,0,2,,,,,,,,,2,,,69,77
201120,note_on,0,0,2,,,,,,,,,2,,,73,77
201120,note_on,0,0,2,,,,,,,,,2,,,76,77
201120,note_on,324,0,5,,,,,,,,,5,,,45,77
201120,note_on,288,0,1,,,,,,,,,1,,,79,77
201240,note_on,144,0,4,,,,,,,,,4,,,49,77
201276,note_off,156,0,5,,,,,,,,,5,,,45,0
201312,note_off,192,0,2,,,,,,,,,2,,,76,0
201312,note_off,192,0,1,,,,,,,,,1,,,79,0
201312,note_off,0,0,2,,,,,,,,,2,,,69,0
201312,note_off,0,0,2,,,,,,,,,2,,,73,0
201360,note_off,120,0,4,,,,,,,,,4,,,49,0
201360,note_on,0,0,4,,,,,,,,,4,,,52,77
201480,note_off,120,0,4,,,,,,,,,4,,,52,0
201480,note_on,0,0,4,,,,,,,,,4,,,57,77
201576,note_off,96,0,4,,,,,,,,,4,,,57,0
201600,note_on,324,0,5,,,,,,,,,5,,,50,77
201600,note_on,288,0,1,,,,,,,,,1,,,78,77
201720,note_off,120,0,1,,,,,,,,,1,,,78,0
201720,note_on,0,0,1,,,,,,,,,1,,,74,75
201840,note_off,120,0,1,,,,,,,,,1,,,74,0
201840,note_on,0,0,1,,,,,,,,,1,,,73,75
201960,note_off,120,0,1,,,,,,,,,1,,,73,0
201960,note_on,0,0,1,,,,,,,,,1,,,76,74
201960,note_off,360,0,5,,,,,,,,,5,,,50,0
202080,note_off,120,0,1,,,,,,,,,1,,,76,0
202080,note_on,0,0,1,,,,,,,,,1,,,74,73
202200,note_off,120,0,1,,,,,,,,,1,,,74,0
202200,note_on,0,0,1,,,,,,,,,1,,,78,73
202320,note_on,0,0,1,,,,,,,,,1,,,76,72
202320,note_off,120,0,1,,,,,,,,,1,,,78,0
202440,note_off,120,0,1,,,,,,,,,1,,,76,0
202440,note_on,0,0,1,,,,,,,,,1,,,79,72
202560,note_off,120,0,1,,,,,,,,,1,,,79,0
202560,note_on,0,0,1,,,,,,,,,1,,,78,71
202680,note_on,0,0,1,,,,,,,,,1,,,81,71
202680,note_off,120,0,1,,,,,,,,,1,,,78,0
202800,note_off,120,0,1,,,,,,,,,1,,,81,0
202800,note_on,0,0,1,,,,,,,,,1,,,79,70
202920,note_off,120,0,1,,,,,,,,,1,,,79,0
202920,note_on,0,0,1,,,,,,,,,1,,,83,70
202980,set_tempo,5700,1,0,,,,,,500000,,,,,,,
203016,note_off,96,0,1,,,,,,,,,1,,,83,0
203040,note_on,1080,0,5,,,,,,,,,5,,,50,75
203040,set_tempo,60,1,0,,,,,,495867,,,,,,,
203040,note_on,1728,0,2,,,,,,,,,2,,,78,75
203040,note_on,0,0,2,,,,,,,,,2,,,74,75
203040,note_on,24,0,1,,,,,,,,,1,,,81,75
203160,note_on,1584,0,4,,,,,,,,,4,,,62,75
203280,note_off,240,0,5,,,,,,,,,5,,,50,0
203280,note_on,0,0,4,,,,,,,,,4,,,61,75
203280,note_off,120,0,4,,,,,,,,,4,,,62,0
203400,note_on,0,0,4,,,,,,,,,4,,,62,75
203400,note_off,120,0,4,,,,,,,,,4,,,61,0
203520,note_on,0,0,4,,,,,,,,,4,,,66,75
203520,note_off,120,0,4,,,,,,,,,4,,,62,0
203640,note_on,0,0,4,,,,,,,,,4,,,62,75
203640,note_off,120,0,4,,,,,,,,,4,,,66,0
203760,note_on,0,0,4,,,,,,,,,4,,,61,75
203760,note_off,120,0,4,,,,,,,,,4,,,62,0
203880,note_off,120,0,4,,,,,,,,,4,,,61,0
203880,note_on,0,0,4,,,,,,,,,4,,,62,74
204000,note_off,0,0,2,,,,,,,,,2,,,78,0
204000,note_off,120,0,4,,,,,,,,,4,,,62,0
204000,note_on,0,0,1,,,,,,,,,1,,,86,71
204000,note_off,960,0,2,,,,,,,,,2,,,74,0
204000,note_on,720,0,5,,,,,,,,,5,,,57,74
204000,note_off,960,0,1,,,,,,,,,1,,,81,0
204120,note_on,120,0,4,,,,,,,,,4,,,62,74
204156,note_off,156,0,5,,,,,,,,,5,,,57,0
204192,note_off,192,0,1,,,,,,,,,1,,,86,0
204240,note_on,84,0,5,,,,,,,,,5,,,54,74
204240,note_off,120,0,4,,,,,,,,,4,,,62,0
204360,note_on,120,0,4,,,,,,,,,4,,,57,74
204396,note_off,156,0,5,,,,,,,,,5,,,54,0
204456,note_off,96,0,4,,,,,,,,,4,,,57,0
204480,note_on,288,0,1,,,,,,,,,1,,,78,74
204480,note_on,84,0,5,,,,,,,,,5,,,50,74
204480,note_on,0,0,2,,,,,,,,,2,,,74,74
204480,note_on,480,0,2,,,,,,,,,2,,,69,74
204600,note_on,144,0,4,,,,,,,,,4,,,62,74
204720,note_on,0,0,4,,,,,,,,,4,,,61,73
204720,note_off,240,0,5,,,,,,,,,5,,,50,0
204720,note_off,120,0,4,,,,,,,,,4,,,62,0
204840,note_off,120,0,4,,,,,,,,,4,,,61,0
204840,note_on,0,0,4,,,,,,,,,4,,,62,73
204960,note_off,120,0,4,,,,,,,,,4,,,62,0
204960,note_on,0,0,4,,,,,,,,,4,,,66,73
205080,note_off,120,0,4,,,,,,,,,4,,,66,0
205080,note_on,0,0,4,,,,,,,,,4,,,62,73
205200,note_off,120,0,4,,,,,,,,,4,,,62,0
205200,note_on,0,0,4,,,,,,,,,4,,,61,73
205320,note_off,120,0,4,,,,,,,,,4,,,61,0
205320,note_on,0,0,4,,,,,,,,,4,,,62,73
205440,note_off,120,0,4,,,,,,,,,4,,,62,0
205440,note_off,960,0,1,,,,,,,,,1,,,78,0
205440,note_on,720,0,5,,,,,,,,,5,,,57,73
205440,note_off,960,0,2,,,,,,,,,2,,,74,0
205440,note_on,0,0,1,,,,,,,,,1,,,81,69
205440,note_off,0,0,2,,,,,,,,,2,,,69,0
205560,note_on,120,0,4,,,,,,,,,4,,,62,73
205596,note_off,156,0,5,,,,,,,,,5,,,57,0
205632,note_off,192,0,1,,,,,,,,,1,,,81,0
205680,note_on,84,0,5,,,,,,,,,5,,,54,72
205680,note_off,120,0,4,,,,,,,,,4,,,62,0
205800,note_on,120,0,4,,,,,,,,,4,,,57,72
205836,note_off,156,0,5,,,,,,,,,5,,,54,0
205896,note_off,96,0,4,,,,,,,,,4,,,57,0
205920,note_on,84,0,5,,,,,,,,,5,,,47,72
205920,note_on,0,0,2,,,,,,,,,2,,,71,72
205920,note_on,288,0,1,,,,,,,,,1,,,74,72
205920,note_on,480,0,2,,,,,,,,,2,,,66,72
206040,note_on,144,0,4,,,,,,,,,4,,,50,72
206076,note_off,156,0,5,,,,,,,,,5,,,47,0
206112,note_off,192,0,2,,,,,,,,,2,,,71,0
206112,note_off,192,0,1,,,,,,,,,1,,,74,0
206112,note_off,0,0,2,,,,,,,,,2,,,66,0
206160,note_off,120,0,4,,,,,,,,,4,,,50,0
206160,note_on,0,0,4,,,,,,,,,4,,,54,72
206280,note_on,0,0,4,,,,,,,,,4,,,59,72
206280,note_off,120,0,4,,,,,,,,,4,,,54,0
206376,note_off,96,0,4,,,,,,,,,4,,,59,0
206400,note_on,324,0,5,,,,,,,,,5,,,43,72
206400,note_on,288,0,1,,,,,,,,,1,,,76,72
206400,note_on,0,0,2,,,,,,,,,2,,,67,72
206400,note_on,288,0,2,,,,,,,,,2,,,71,72
206520,note_on,144,0,4,,,,,,,,,4,,,47,72
206556,note_off,156,0,5,,,,,,,,,5,,,43,0
206592,note_off,192,0,2,,,,,,,,,2,,,67,0
206592,note_off,0,0,2,,,,,,,,,2,,,71,0
206592,note_off,192,0,1,,,,,,,,,1,,,76,0
206640,note_on,0,0,4,,,,,,,,,4,,,52,71
206640,note_off,120,0,4,,,,,,,,,4,,,47,0
206760,note_off,120,0,4,,,,,,,,,4,,,52,0
206760,note_on,0,0,4,,,,,,,,,4,,,55,71
206856,note_off,96,0,4,,,,,,,,,4,,,55,0
206880,note_on,0,0,2,,,,,,,,,2,,,69,71
206880,note_on,288,0,2,,,,,,,,,2,,,64,71
206880,note_on,0,0,2,,,,,,,,,2,,,67,71
206880,note_on,324,0,5,,,,,,,,,5,,,45,71
206880,note_on,288,0,1,,,,,,,,,1,,,73,71
207000,note_on,144,0,4,,,,,,,,,4,,,49,71
207036,note_off,156,0,5,,,,,,,,,5,,,45,0
207072,note_off,0,0,2,,,,,,,,,2,,,69,0
207072,note_off,0,0,2,,,,,,,,,2,,,64,0
207072,note_off,192,0,1,,,,,,,,,1,,,73,0
207072,note_off,192,0,2,,,,,,,,,2,,,67,0
207120,note_off,120,0,4,,,,,,,,,4,,,49,0
207120,note_on,0,0,4,,,,,,,,,4,,,52,71
207240,note_on,0,0,4,,,,,,,,,4,,,57,71
207240,note_off,120,0,4,,,,,,,,,4,,,52,0
207336,note_off,96,0,4,,,,,,,,,4,,,57,0
207360,note_on,324,0,5,,,,,,,,,5,,,38,71
207360,note_on,0,0,2,,,,,,,,,2,,,69,71
207360,note_on,0,0,2,,,,,,,,,2,,,66,71
207360,note_on,288,0,2,,,,,,,,,2,,,62,71
207360,note_on,288,0,1,,,,,,,,,1,,,74,71
207480,note_on,144,0,4,,,,,,,,,4,,,50,70
207516,note_off,156,0,5,,,,,,,,,5,,,38,0
207600,note_off,120,0,4,,,,,,,,,4,,,50,0
207600,note_on,0,0,4,,,,,,,,,4,,,54,70
207720,note_off,0,0,2,,,,,,,,,2,,,62,0
207720,note_off,0,0,2,,,,,,,,,2,,,66,0
207720,note_off,360,0,2,,,,,,,,,2,,,69,0
207720,note_off,360,0,1,,,,,,,,,1,,,74,0
207720,note_on,0,0,4,,,,,,,,,4,,,50,70
207720,note_off,120,0,4,,,,,,,,,4,,,54,0
207840,note_on,324,0,5,,,,,,,,,5,,,45,70
207840,note_off,120,0,4,,,,,,,,,4,,,50,0
207960,note_on,120,0,4,,,,,,,,,4,,,50,70
207996,note_off,156,0,5,,,,,,,,,5,,,45,0
208080,note_off,120,0,4,,,,,,,,,4,,,50,0
208080,note_on,84,0,5,,,,,,,,,5,,,42,70
208200,note_on,120,0,4,,,,,,,,,4,,,45,70
208236,note_off,156,0,5,,,,,,,,,5,,,42,0
208260,set_tempo,5220,1,0,,,,,,500000,,,,,,,
208320,set_tempo,60,1,0,,,,,,1500000,,,,,,,
208320,note_on,84,0,5,,,,,,,,,5,,,38,70
208320,note_off,120,0,4,,,,,,,,,4,,,45,0
208416,note_off,96,0,5,,,,,,,,,5,,,38,0
208560,control_change,22800,0,3,,,,,,,64,0,3,,,,
208560,set_tempo,240,1,0,,,,,,491803,,,,,,,
208560,control_change,240,0,4,,,,,,,64,0,4,,,,
208560,control_change,144,0,5,,,,,,,64,0,5,,,,
208560,control_change,840,0,1,,,,,,,64,0,1,,,,
208560,control_change,840,0,2,,,,,,,64,0,2,,,,
208620,note_on,60,0,2,,,,,,,,,2,,,69,76
208680,note_off,60,0,2,,,,,,,,,2,,,69,0
208680,note_on,0,0,2,,,,,,,,,2,,,74,78
208740,note_off,60,0,2,,,,,,,,,2,,,74,0
208740,note_on,0,0,2,,,,,,,,,2,,,78,79
208800,set_tempo,240,1,0,,,,,,491803,,,,,,,
208800,note_off,0,0,2,,,,,,,,,2,,,78,0
208800,marker,0,1,0,,,,,,,,,,,,,
208800,control_change,240,0,3,,,,,,,64,0,3,,,,
208800,control_change,240,0,4,,,,,,,64,0,4,,,,
208800,note_on,0,0,1,,,,,,,,,1,,,81,82
208800,control_change,60,0,2,,,,,,,64,0,2,,,,
208800,control_change,240,0,1,,,,,,,64,0,1,,,,
208800,control_change,240,0,5,,,,,,,64,0,5,,,,
208920,note_on,120,0,5,,,,,,,,,5,,,50,81
209040,note_on,0,0,5,,,,,,,,,5,,,54,81
209040,note_off,120,0,5,,,,,,,,,5,,,50,0
209160,note_on,0,0,5,,,,,,,,,5,,,57,81
209160,note_off,120,0,5,,,,,,,,,5,,,54,0
209280,note_off,120,0,5,,,,,,,,,5,,,57,0
209280,note_on,0,0,5,,,,,,,,,5,,,62,81
209376,note_off,576,0,1,,,,,,,,,1,,,81,0
209400,note_on,24,0,1,,,,,,,,,1,,,69,80
209520,note_off,120,0,1,,,,,,,,,1,,,69,0
209520,note_on,0,0,1,,,,,,,,,1,,,74,79
209640,note_off,120,0,1,,,,,,,,,1,,,74,0
209640,note_on,0,0,1,,,,,,,,,1,,,78,79
209760,note_off,480,0,5,,,,,,,,,5,,,62,0
209760,note_off,120,0,1,,,,,,,,,1,,,78,0
209760,note_on,0,0,1,,,,,,,,,1,,,81,79
209838,note_off,78,0,1,,,,,,,,,1,,,81,0
209880,note_on,42,0,1,,,,,,,,,1,,,78,78
209958,note_off,78,0,1,,,,,,,,,1,,,78,0
210000,note_on,42,0,1,,,,,,,,,1,,,86,78
210078,note_off,78,0,1,,,,,,,,,1,,,86,0
210120,note_on,42,0,1,,,,,,,,,1,,,86,78
210198,note_off,78,0,1,,,,,,,,,1,,,86,0
210240,note_on,42,0,1,,,,,,,,,1,,,78,80
210360,note_on,600,0,5,,,,,,,,,5,,,38,80
210480,note_on,0,0,5,,,,,,,,,5,,,42,80
210480,note_off,120,0,5,,,,,,,,,5,,,38,0
210600,note_on,0,0,5,,,,,,,,,5,,,45,79
210600,note_off,120,0,5,,,,,,,,,5,,,42,0
210720,note_on,0,0,5,,,,,,,,,5,,,50,79
210720,note_off,120,0,5,,,,,,,,,5,,,45,0
210816,note_off,576,0,1,,,,,,,,,1,,,78,0
210840,note_on,24,0,1,,,,,,,,,1,,,66,77
210960,note_off,120,0,1,,,,,,,,,1,,,66,0
210960,note_on,0,0,1,,,,,,,,,1,,,69,76
211080,note_off,120,0,1,,,,,,,,,1,,,69,0
211080,note_on,0,0,1,,,,,,,,,1,,,74,76
211200,note_off,480,0,5,,,,,,,,,5,,,50,0
211200,note_on,0,0,1,,,,,,,,,1,,,78,75
211200,note_off,120,0,1,,,,,,,,,1,,,74,0
211278,note_off,78,0,1,,,,,,,,,1,,,78,0
211320,note_on,42,0,1,,,,,,,,,1,,,74,74
211398,note_off,78,0,1,,,,,,,,,1,,,74,0
211440,note_on,42,0,1,,,,,,,,,1,,,81,74
211518,note_off,78,0,1,,,,,,,,,1,,,81,0
211560,note_on,42,0,1,,,,,,,,,1,,,81,78
211638,note_off,78,0,1,,,,,,,,,1,,,81,0
211680,note_on,480,0,5,,,,,,,,,5,,,59,78
211800,note_on,162,0,1,,,,,,,,,1,,,66,78
211872,note_off,192,0,5,,,,,,,,,5,,,59,0
211878,note_off,78,0,1,,,,,,,,,1,,,66,0
211920,note_on,42,0,1,,,,,,,,,1,,,71,78
212040,note_off,120,0,1,,,,,,,,,1,,,71,0
212040,note_on,0,0,1,,,,,,,,,1,,,74,78
212118,note_off,78,0,1,,,,,,,,,1,,,74,0
212160,note_on,288,0,5,,,,,,,,,5,,,55,78
212280,note_on,162,0,1,,,,,,,,,1,,,67,78
212352,note_off,192,0,5,,,,,,,,,5,,,55,0
212358,note_off,78,0,1,,,,,,,,,1,,,67,0
212400,note_on,42,0,1,,,,,,,,,1,,,71,77
212520,note_on,0,0,1,,,,,,,,,1,,,76,77
212520,note_off,120,0,1,,,,,,,,,1,,,71,0
212598,note_off,78,0,1,,,,,,,,,1,,,76,0
212640,note_on,288,0,5,,,,,,,,,5,,,57,77
212760,note_on,162,0,1,,,,,,,,,1,,,64,77
212832,note_off,192,0,5,,,,,,,,,5,,,57,0
212838,note_off,78,0,1,,,,,,,,,1,,,64,0
212880,note_on,42,0,1,,,,,,,,,1,,,67,77
213000,note_off,120,0,1,,,,,,,,,1,,,67,0
213000,note_on,0,0,1,,,,,,,,,1,,,73,77
213078,note_off,78,0,1,,,,,,,,,1,,,73,0
213120,note_on,288,0,5,,,,,,,,,5,,,50,77
213120,note_on,42,0,1,,,,,,,,,1,,,74,77
213216,note_off,96,0,1,,,,,,,,,1,,,74,0
213240,note_on,24,0,1,,,,,,,,,1,,,62,77
213360,note_on,0,0,1,,,,,,,,,1,,,64,76
213360,note_off,120,0,1,,,,,,,,,1,,,62,0
213480,note_off,120,0,1,,,,,,,,,1,,,64,0
213480,note_on,0,0,1,,,,,,,,,1,,,66,75
213480,note_off,360,0,5,,,,,,,,,5,,,50,0
213600,note_on,0,0,1,,,,,,,,,1,,,67,75
213600,note_off,120,0,1,,,,,,,,,1,,,66,0
213720,note_on,0,0,1,,,,,,,,,1,,,69,74
213720,note_off,120,0,1,,,,,,,,,1,,,67,0
213840,note_on,0,0,1,,,,,,,,,1,,,71,73
213840,note_off,120,0,1,,,,,,,,,1,,,69,0
213960,note_on,0,0,1,,,,,,,,,1,,,73,73
213960,note_off,120,0,1,,,,,,,,,1,,,71,0
214080,note_on,0,0,1,,,,,,,,,1,,,74,72
214080,note_off,120,0,1,,,,,,,,,1,,,73,0
214200,note_off,120,0,1,,,,,,,,,1,,,74,0
214200,note_on,0,0,1,,,,,,,,,1,,,76,71
214320,note_off,120,0,1,,,,,,,,,1,,,76,0
214320,note_on,0,0,1,,,,,,,,,1,,,78,70
214440,note_on,0,0,1,,,,,,,,,1,,,79,70
214440,note_off,120,0,1,,,,,,,,,1,,,78,0
214500,set_tempo,5700,1,0,,,,,,495867,,,,,,,
214536,note_off,96,0,1,,,,,,,,,1,,,79,0
214560,set_tempo,60,1,0,,,,,,491803,,,,,,,
214560,note_on,24,0,1,,,,,,,,,1,,,81,75
214680,note_on,1200,0,5,,,,,,,,,5,,,38,75
214800,note_off,120,0,5,,,,,,,,,5,,,38,0
214800,note_on,0,0,5,,,,,,,,,5,,,42,75
214920,note_on,0,0,5,,,,,,,,,5,,,45,75
214920,note_off,120,0,5,,,,,,,,,5,,,42,0
215040,note_on,0,0,5,,,,,,,,,5,,,50,75
215040,note_off,120,0,5,,,,,,,,,5,,,45,0
215136,note_off,576,0,1,,,,,,,,,1,,,81,0
215160,note_on,24,0,1,,,,,,,,,1,,,69,72
215280,note_off,120,0,1,,,,,,,,,1,,,69,0
215280,note_on,0,0,1,,,,,,,,,1,,,74,71
215400,note_off,120,0,1,,,,,,,,,1,,,74,0
215400,note_on,0,0,1,,,,,,,,,1,,,78,71
215520,note_off,480,0,5,,,,,,,,,5,,,50,0
215520,note_off,120,0,1,,,,,,,,,1,,,78,0
215520,note_on,0,0,1,,,,,,,,,1,,,81,70
215598,note_off,78,0,1,,,,,,,,,1,,,81,0
215640,note_on,42,0,1,,,,,,,,,1,,,78,69
215718,note_off,78,0,1,,,,,,,,,1,,,78,0
215760,note_on,42,0,1,,,,,,,,,1,,,86,68
215838,note_off,78,0,1,,,,,,,,,1,,,86,0
215880,note_on,42,0,1,,,,,,,,,1,,,86,68
215958,note_off,78,0,1,,,,,,,,,1,,,86,0
216000,note_on,42,0,1,,,,,,,,,1,,,78,74
216120,note_on,600,0,5,,,,,,,,,5,,,50,74
216240,note_on,0,0,5,,,,,,,,,5,,,54,73
216240,note_off,120,0,5,,,,,,,,,5,,,50,0
216360,note_on,0,0,5,,,,,,,,,5,,,57,73
216360,note_off,120,0,5,,,,,,,,,5,,,54,0
216480,note_on,0,0,5,,,,,,,,,5,,,62,73
216480,note_off,120,0,5,,,,,,,,,5,,,57,0
216576,note_off,576,0,1,,,,,,,,,1,,,78,0
216600,note_on,24,0,1,,,,,,,,,1,,,66,72
216720,note_off,120,0,1,,,,,,,,,1,,,66,0
216720,note_on,0,0,1,,,,,,,,,1,,,69,71
216840,note_off,120,0,1,,,,,,,,,1,,,69,0
216840,note_on,0,0,1,,,,,,,,,1,,,74,71
216960,note_off,120,0,1,,,,,,,,,1,,,74,0
216960,note_off,480,0,5,,,,,,,,,5,,,62,0
216960,note_on,0,0,1,,,,,,,,,1,,,78,70
217038,note_off,78,0,1,,,,,,,,,1,,,78,0
217080,note_on,42,0,1,,,,,,,,,1,,,74,69
217158,note_off,78,0,1,,,,,,,,,1,,,74,0
217200,note_on,42,0,1,,,,,,,,,1,,,81,68
217278,note_off,78,0,1,,,,,,,,,1,,,81,0
217320,note_on,42,0,1,,,,,,,,,1,,,81,68
217398,note_off,78,0,1,,,,,,,,,1,,,81,0
217440,note_on,42,0,1,,,,,,,,,1,,,74,72
217560,note_on,600,0,5,,,,,,,,,5,,,47,72
217632,note_off,192,0,1,,,,,,,,,1,,,74,0
217638,note_off,78,0,5,,,,,,,,,5,,,47,0
217680,note_on,42,0,5,,,,,,,,,5,,,50,72
217800,note_off,120,0,5,,,,,,,,,5,,,50,0
217800,note_on,0,0,5,,,,,,,,,5,,,59,72
217878,note_off,78,0,5,,,,,,,,,5,,,59,0
217920,note_on,288,0,1,,,,,,,,,1,,,76,72
217920,note_on,9120,0,2,,,,,,,,,2,,,67,72
218040,note_on,162,0,5,,,,,,,,,5,,,43,72
218112,note_off,192,0,1,,,,,,,,,1,,,76,0
218112,note_off,192,0,2,,,,,,,,,2,,,67,0
218118,note_off,78,0,5,,,,,,,,,5,,,43,0
218160,note_on,42,0,5,,,,,,,,,5,,,47,71
218280,note_off,120,0,5,,,,,,,,,5,,,47,0
218280,note_on,0,0,5,,,,,,,,,5,,,55,71
218358,note_off,78,0,5,,,,,,,,,5,,,55,0
218400,note_on,288,0,1,,,,,,,,,1,,,73,71
218400,note_on,288,0,2,,,,,,,,,2,,,64,71
218520,note_on,162,0,5,,,,,,,,,5,,,45,71
218592,note_off,192,0,2,,,,,,,,,2,,,64,0
218592,note_off,192,0,1,,,,,,,,,1,,,73,0
218598,note_off,78,0,5,,,,,,,,,5,,,45,0
218640,note_on,42,0,5,,,,,,,,,5,,,49,71
218760,note_off,120,0,5,,,,,,,,,5,,,49,0
218760,note_on,0,0,5,,,,,,,,,5,,,57,71
218838,note_off,78,0,5,,,,,,,,,5,,,57,0
218880,note_on,288,0,1,,,,,,,,,1,,,74,71
218880,note_on,288,0,2,,,,,,,,,2,,,66,71
219000,note_on,162,0,5,,,,,,,,,5,,,50,71
219120,note_on,0,0,5,,,,,,,,,5,,,54,71
219120,note_off,120,0,5,,,,,,,,,5,,,50,0
219240,note_off,360,0,2,,,,,,,,,2,,,66,0
219240,note_off,360,0,1,,,,,,,,,1,,,74,0
219240,note_on,0,0,5,,,,,,,,,5,,,50,70
219240,note_off,120,0,5,,,,,,,,,5,,,54,0
219360,note_off,120,0,5,,,,,,,,,5,,,50,0
219360,note_on,0,0,5,,,,,,,,,5,,,45,70
219480,note_on,0,0,5,,,,,,,,,5,,,50,69
219480,note_off,120,0,5,,,,,,,,,5,,,45,0
219600,note_off,120,0,5,,,,,,,,,5,,,50,0
219600,note_on,0,0,5,,,,,,,,,5,,,42,69
219720,note_on,0,0,5,,,,,,,,,5,,,45,68
219720,note_off,120,0,5,,,,,,,,,5,,,42,0
219780,set_tempo,5220,1,0,,,,,,495867,,,,,,,
219840,set_tempo,60,1,0,,,,,,500000,,,,,,,
219840,note_off,120,0,5,,,,,,,,,5,,,45,0
219840,note_on,0,0,5,,,,,,,,,5,,,38,68
220080,control_change,11280,0,4,,,,,,,64,0,4,,,,
220080,control_change,240,0,5,,,,,,,64,0,5,,,,
220080,control_change,840,0,2,,,,,,,64,0,2,,,,
220080,control_change,11280,0,3,,,,,,,64,0,3,,,,
220080,control_change,840,0,1,,,,,,,64,0,1,,,,
220080,set_tempo,240,1,0,,,,,,491803,,,,,,,
220140,note_on,60,0,2,,,,,,,,,2,,,69,76
220200,note_off,60,0,2,,,,,,,,,2,,,69,0
220200,note_off,120,0,5,,,,,,,,,5,,,38,0
220200,note_on,0,0,2,,,,,,,,,2,,,74,78
220260,note_on,0,0,2,,,,,,,,,2,,,78,79
220260,note_off,60,0,2,,,,,,,,,2,,,74,0
220320,control_change,240,0,1,,,,,,,64,0,1,,,,
220320,control_change,240,0,4,,,,,,,64,0,4,,,,
220320,set_tempo,240,1,0,,,,,,491803,,,,,,,
220320,note_on,0,0,1,,,,,,,,,1,,,81,82
220320,control_change,240,0,3,,,,,,,64,0,3,,,,
220320,marker,0,1,0,,,,,,,,,,,,,
220320,note_off,0,0,2,,,,,,,,,2,,,78,0
220320,control_change,120,0,5,,,,,,,64,0,5,,,,
220320,control_change,60,0,2,,,,,,,64,0,2,,,,
220440,note_on,120,0,5,,,,,,,,,5,,,50,81
220560,note_off,120,0,5,,,,,,,,,5,,,50,0
220560,note_on,0,0,5,,,,,,,,,5,,,54,81
220680,note_off,120,0,5,,,,,,,,,5,,,54,0
220680,note_on,0,0,5,,,,,,,,,5,,,57,81
220800,note_off,120,0,5,,,,,,,,,5,,,57,0
220800,note_on,0,0,5,,,,,,,,,5,,,62,81
220896,note_off,576,0,1,,,,,,,,,1,,,81,0
220920,note_on,24,0,1,,,,,,,,,1,,,69,80
221040,note_on,0,0,1,,,,,,,,,1,,,74,79
221040,note_off,120,0,1,,,,,,,,,1,,,69,0
221160,note_off,120,0,1,,,,,,,,,1,,,74,0
221160,note_on,0,0,1,,,,,,,,,1,,,78,79
221280,note_off,120,0,1,,,,,,,,,1,,,78,0
221280,note_on,0,0,1,,,,,,,,,1,,,81,79
221280,note_off,480,0,5,,,,,,,,,5,,,62,0
221358,note_off,78,0,1,,,,,,,,,1,,,81,0
221400,note_on,42,0,1,,,,,,,,,1,,,78,78
221478,note_off,78,0,1,,,,,,,,,1,,,78,0
221520,note_on,42,0,1,,,,,,,,,1,,,86,78
221598,note_off,78,0,1,,,,,,,,,1,,,86,0
221640,note_on,42,0,1,,,,,,,,,1,,,86,78
221718,note_off,78,0,1,,,,,,,,,1,,,86,0
221760,note_on,42,0,1,,,,,,,,,1,,,78,80
221880,note_on,600,0,5,,,,,,,,,5,,,38,80
222000,note_off,120,0,5,,,,,,,,,5,,,38,0
222000,note_on,0,0,5,,,,,,,,,5,,,42,80
222120,note_on,0,0,5,,,,,,,,,5,,,45,79
222120,note_off,120,0,5,,,,,,,,,5,,,42,0
222240,note_on,0,0,5,,,,,,,,,5,,,50,79
222240,note_off,120,0,5,,,,,,,,,5,,,45,0
222336,note_off,576,0,1,,,,,,,,,1,,,78,0
222360,note_on,24,0,1,,,,,,,,,1,,,66,77
222480,note_off,120,0,1,,,,,,,,,1,,,66,0
222480,note_on,0,0,1,,,,,,,,,1,,,69,76
222600,note_off,120,0,1,,,,,,,,,1,,,69,0
222600,note_on,0,0,1,,,,,,,,,1,,,74,76
222720,note_on,0,0,1,,,,,,,,,1,,,78,75
222720,note_off,480,0,5,,,,,,,,,5,,,50,0
222720,note_off,120,0,1,,,,,,,,,1,,,74,0
222798,note_off,78,0,1,,,,,,,,,1,,,78,0
222840,note_on,42,0,1,,,,,,,,,1,,,74,74
222918,note_off,78,0,1,,,,,,,,,1,,,74,0
222960,note_on,42,0,1,,,,,,,,,1,,,81,74
223038,note_off,78,0,1,,,,,,,,,1,,,81,0
223080,note_on,42,0,1,,,,,,,,,1,,,81,78
223158,note_off,78,0,1,,,,,,,,,1,,,81,0
223200,note_on,480,0,5,,,,,,,,,5,,,59,78
223320,note_on,162,0,1,,,,,,,,,1,,,66,78
223392,note_off,192,0,5,,,,,,,,,5,,,59,0
223398,note_off,78,0,1,,,,,,,,,1,,,66,0
223440,note_on,42,0,1,,,,,,,,,1,,,71,78
223560,note_off,120,0,1,,,,,,,,,1,,,71,0
223560,note_on,0,0,1,,,,,,,,,1,,,74,78
223638,note_off,78,0,1,,,,,,,,,1,,,74,0
223680,note_on,288,0,5,,,,,,,,,5,,,55,78
223800,note_on,162,0,1,,,,,,,,,1,,,67,78
223872,note_off,192,0,5,,,,,,,,,5,,,55,0
223878,note_off,78,0,1,,,,,,,,,1,,,67,0
223920,note_on,42,0,1,,,,,,,,,1,,,71,77
224040,note_on,0,0,1,,,,,,,,,1,,,76,77
224040,note_off,120,0,1,,,,,,,,,1,,,71,0
224118,note_off,78,0,1,,,,,,,,,1,,,76,0
224160,note_on,288,0,5,,,,,,,,,5,,,57,77
224280,note_on,162,0,1,,,,,,,,,1,,,64,77
224352,note_off,192,0,5,,,,,,,,,5,,,57,0
224358,note_off,78,0,1,,,,,,,,,1,,,64,0
224400,note_on,42,0,1,,,,,,,,,1,,,67,77
224520,note_off,120,0,1,,,,,,,,,1,,,67,0
224520,note_on,0,0,1,,,,,,,,,1,,,73,77
224598,note_off,78,0,1,,,,,,,,,1,,,73,0
224640,note_on,42,0,1,,,,,,,,,1,,,74,77
224640,note_on,288,0,5,,,,,,,,,5,,,50,77
224736,note_off,96,0,1,,,,,,,,,1,,,74,0
224760,note_on,24,0,1,,,,,,,,,1,,,62,77
224880,note_off,120,0,1,,,,,,,,,1,,,62,0
224880,note_on,0,0,1,,,,,,,,,1,,,64,76
225000,note_off,120,0,1,,,,,,,,,1,,,64,0
225000,note_on,0,0,1,,,,,,,,,1,,,66,75
225000,note_off,360,0,5,,,,,,,,,5,,,50,0
225120,note_off,120,0,1,,,,,,,,,1,,,66,0
225120,note_on,0,0,1,,,,,,,,,1,,,67,75
225240,note_on,0,0,1,,,,,,,,,1,,,69,74
225240,note_off,120,0,1,,,,,,,,,1,,,67,0
225360,note_on,0,0,1,,,,,,,,,1,,,71,73
225360,note_off,120,0,1,,,,,,,,,1,,,69,0
225480,note_on,0,0,1,,,,,,,,,1,,,73,73
225480,note_off,120,0,1,,,,,,,,,1,,,71,0
225600,note_on,0,0,1,,,,,,,,,1,,,74,72
225600,note_off,120,0,1,,,,,,,,,1,,,73,0
225720,note_on,0,0,1,,,,,,,,,1,,,76,71
225720,note_off,120,0,1,,,,,,,,,1,,,74,0
225840,note_on,0,0,1,,,,,,,,,1,,,78,70
225840,note_off,120,0,1,,,,,,,,,1,,,76,0
225960,note_on,0,0,1,,,,,,,,,1,,,79,70
225960,note_off,120,0,1,,,,,,,,,1,,,78,0
226020,set_tempo,5700,1,0,,,,,,495867,,,,,,,
226056,note_off,96,0,1,,,,,,,,,1,,,79,0
226080,note_on,24,0,1,,,,,,,,,1,,,81,75
226080,set_tempo,60,1,0,,,,,,491803,,,,,,,
226200,note_on,1200,0,5,,,,,,,,,5,,,38,75
226320,note_off,120,0,5,,,,,,,,,5,,,38,0
226320,note_on,0,0,5,,,,,,,,,5,,,42,75
226440,note_off,120,0,5,,,,,,,,,5,,,42,0
226440,note_on,0,0,5,,,,,,,,,5,,,45,75
226560,note_off,120,0,5,,,,,,,,,5,,,45,0
226560,note_on,0,0,5,,,,,,,,,5,,,50,75
226656,note_off,576,0,1,,,,,,,,,1,,,81,0
226680,note_on,24,0,1,,,,,,,,,1,,,69,72
226800,note_off,120,0,1,,,,,,,,,1,,,69,0
226800,note_on,0,0,1,,,,,,,,,1,,,74,71
226920,note_on,0,0,1,,,,,,,,,1,,,78,71
226920,note_off,120,0,1,,,,,,,,,1,,,74,0
227040,note_off,480,0,5,,,,,,,,,5,,,50,0
227040,note_on,0,0,1,,,,,,,,,1,,,81,70
227040,note_off,120,0,1,,,,,,,,,1,,,78,0
227118,note_off,78,0,1,,,,,,,,,1,,,81,0
227160,note_on,42,0,1,,,,,,,,,1,,,78,69
227238,note_off,78,0,1,,,,,,,,,1,,,78,0
227280,note_on,42,0,1,,,,,,,,,1,,,86,68
227358,note_off,78,0,1,,,,,,,,,1,,,86,0
227400,note_on,42,0,1,,,,,,,,,1,,,86,68
227478,note_off,78,0,1,,,,,,,,,1,,,86,0
227520,note_on,42,0,1,,,,,,,,,1,,,78,74
227640,note_on,600,0,5,,,,,,,,,5,,,50,74
227760,note_on,0,0,5,,,,,,,,,5,,,54,73
227760,note_off,120,0,5,,,,,,,,,5,,,50,0
227880,note_on,0,0,5,,,,,,,,,5,,,57,73
227880,note_off,120,0,5,,,,,,,,,5,,,54,0
228000,note_on,0,0,5,,,,,,,,,5,,,62,73
228000,note_off,120,0,5,,,,,,,,,5,,,57,0
228096,note_off,576,0,1,,,,,,,,,1,,,78,0
228120,note_on,24,0,1,,,,,,,,,1,,,66,72
228240,note_on,0,0,1,,,,,,,,,1,,,69,71
228240,note_off,120,0,1,,,,,,,,,1,,,66,0
228360,note_off,120,0,1,,,,,,,,,1,,,69,0
228360,note_on,0,0,1,,,,,,,,,1,,,74,71
228480,note_off,480,0,5,,,,,,,,,5,,,62,0
228480,note_on,0,0,1,,,,,,,,,1,,,78,70
228480,note_off,120,0,1,,,,,,,,,1,,,74,0
228558,note_off,78,0,1,,,,,,,,,1,,,78,0
228600,note_on,42,0,1,,,,,,,,,1,,,74,69
228678,note_off,78,0,1,,,,,,,,,1,,,74,0
228720,note_on,42,0,1,,,,,,,,,1,,,81,68
228798,note_off,78,0,1,,,,,,,,,1,,,81,0
228840,note_on,42,0,1,,,,,,,,,1,,,81,68
228918,note_off,78,0,1,,,,,,,,,1,,,81,0
228960,note_on,42,0,1,,,,,,,,,1,,,74,72
229080,note_on,600,0,5,,,,,,,,,5,,,47,72
229152,note_off,192,0,1,,,,,,,,,1,,,74,0
229158,note_off,78,0,5,,,,,,,,,5,,,47,0
229200,note_on,42,0,5,,,,,,,,,5,,,50,72
229320,note_on,0,0,5,,,,,,,,,5,,,59,72
229320,note_off,120,0,5,,,,,,,,,5,,,50,0
229398,note_off,78,0,5,,,,,,,,,5,,,59,0
229440,note_on,9120,0,2,,,,,,,,,2,,,67,72
229440,note_on,288,0,1,,,,,,,,,1,,,76,72
229560,note_on,162,0,5,,,,,,,,,5,,,43,72
229632,note_off,192,0,2,,,,,,,,,2,,,67,0
229632,note_off,192,0,1,,,,,,,,,1,,,76,0
229638,note_off,78,0,5,,,,,,,,,5,,,43,0
229680,note_on,42,0,5,,,,,,,,,5,,,47,71
229800,note_off,120,0,5,,,,,,,,,5,,,47,0
229800,note_on,0,0,5,,,,,,,,,5,,,55,71
229878,note_off,78,0,5,,,,,,,,,5,,,55,0
229920,note_on,288,0,2,,,,,,,,,2,,,64,71
229920,note_on,288,0,1,,,,,,,,,1,,,73,71
230040,note_on,162,0,5,,,,,,,,,5,,,45,71
230112,note_off,192,0,2,,,,,,,,,2,,,64,0
230112,note_off,192,0,1,,,,,,,,,1,,,73,0
230118,note_off,78,0,5,,,,,,,,,5,,,45,0
230160,note_on,42,0,5,,,,,,,,,5,,,49,71
230280,note_off,120,0,5,,,,,,,,,5,,,49,0
230280,note_on,0,0,5,,,,,,,,,5,,,57,71
230358,note_off,78,0,5,,,,,,,,,5,,,57,0
230400,note_on,288,0,1,,,,,,,,,1,,,74,71
230400,note_on,288,0,2,,,,,,,,,2,,,66,71
230520,note_on,162,0,5,,,,,,,,,5,,,50,71
230640,note_off,120,0,5,,,,,,,,,5,,,50,0
230640,note_on,0,0,5,,,,,,,,,5,,,54,71
230760,note_off,120,0,5,,,,,,,,,5,,,54,0
230760,note_on,0,0,5,,,,,,,,,5,,,50,70
230760,note_off,360,0,1,,,,,,,,,1,,,74,0
230760,note_off,360,0,2,,,,,,,,,2,,,66,0
230880,note_off,120,0,5,,,,,,,,,5,,,50,0
230880,note_on,0,0,5,,,,,,,,,5,,,45,70
231000,note_off,120,0,5,,,,,,,,,5,,,45,0
231000,note_on,0,0,5,,,,,,,,,5,,,50,69
231120,note_on,0,0,5,,,,,,,,,5,,,42,69
231120,note_off,120,0,5,,,,,,,,,5,,,50,0
231240,note_off,120,0,5,,,,,,,,,5,,,42,0
231240,note_on,0,0,5,,,,,,,,,5,,,45,68
231300,set_tempo,5220,1,0,,,,,,495867,,,,,,,
231360,note_off,120,0,5,,,,,,,,,5,,,45,0
231360,note_on,0,0,5,,,,,,,,,5,,,38,68
231600,set_tempo,300,1,0,,,,,,495867,,,,,,,
231720,note_off,360,0,5,,,,,,,,,5,,,38,0
231840,control_change,1080,0,1,,,,,,,64,0,1,,,,
231840,set_tempo,240,1,0,,,,,,491803,,,,,,,
231840,control_change,11520,0,3,,,,,,,64,0,3,,,,
231840,note_on,0,0,1,,,,,,,,,1,,,76,73
231840,note_on,0,0,2,,,,,,,,,2,,,69,73
231840,note_on,0,0,2,,,,,,,,,2,,,73,73
231840,control_change,1080,0,2,,,,,,,64,0,2,,,,
231840,control_change,120,0,5,,,,,,,64,0,5,,,,
231840,marker,0,1,0,,,,,,,,,,,,,
231840,control_change,11520,0,4,,,,,,,64,0,4,,,,
231960,note_on,120,0,5,,,,,,,,,5,,,33,73
232080,note_on,0,0,5,,,,,,,,,5,,,37,73
232080,note_off,120,0,5,,,,,,,,,5,,,33,0
232200,note_off,120,0,5,,,,,,,,,5,,,37,0
232200,note_on,0,0,5,,,,,,,,,5,,,40,73
232200,note_off,0,0,2,,,,,,,,,2,,,73,0
232200,note_off,360,0,2,,,,,,,,,2,,,69,0
232200,note_off,360,0,1,,,,,,,,,1,,,76,0
232320,note_off,120,0,5,,,,,,,,,5,,,40,0
232320,note_on,0,0,5,,,,,,,,,5,,,45,73
232440,note_on,240,0,1,,,,,,,,,1,,,61,73
232560,note_off,120,0,1,,,,,,,,,1,,,61,0
232560,note_on,0,0,1,,,,,,,,,1,,,64,73
232680,note_off,360,0,5,,,,,,,,,5,,,45,0
232680,note_on,0,0,1,,,,,,,,,1,,,69,72
232680,note_off,120,0,1,,,,,,,,,1,,,64,0
232800,note_on,0,0,1,,,,,,,,,1,,,73,72
232800,note_off,120,0,1,,,,,,,,,1,,,69,0
232920,note_on,240,0,5,,,,,,,,,5,,,57,72
233040,note_on,0,0,5,,,,,,,,,5,,,61,72
233040,note_off,120,0,5,,,,,,,,,5,,,57,0
233160,note_on,0,0,5,,,,,,,,,5,,,64,72
233160,note_off,360,0,1,,,,,,,,,1,,,73,0
233160,note_off,120,0,5,,,,,,,,,5,,,61,0
233280,note_on,0,0,5,,,,,,,,,5,,,69,72
233280,note_off,120,0,5,,,,,,,,,5,,,64,0
233400,note_on,240,0,1,,,,,,,,,1,,,76,72
233520,note_on,0,0,1,,,,,,,,,1,,,81,71
233520,note_off,120,0,1,,,,,,,,,1,,,76,0
233640,note_on,0,0,1,,,,,,,,,1,,,85,71
233640,note_off,360,0,5,,,,,,,,,5,,,69,0
233640,note_off,120,0,1,,,,,,,,,1,,,81,0
233760,note_off,120,0,1,,,,,,,,,1,,,85,0
233760,note_on,0,0,1,,,,,,,,,1,,,88,71
233880,note_on,0,0,1,,,,,,,,,1,,,86,71
233880,note_off,120,0,1,,,,,,,,,1,,,88,0
234000,note_off,120,0,1,,,,,,,,,1,,,86,0
234000,note_on,0,0,1,,,,,,,,,1,,,85,71
234120,note_off,120,0,1,,,,,,,,,1,,,85,0
234120,note_on,0,0,1,,,,,,,,,1,,,83,71
234240,note_off,120,0,1,,,,,,,,,1,,,83,0
234240,note_on,0,0,1,,,,,,,,,1,,,81,71
234360,note_on,0,0,1,,,,,,,,,1,,,79,70
234360,note_off,120,0,1,,,,,,,,,1,,,81,0
234480,note_on,0,0,1,,,,,,,,,1,,,78,70
234480,note_off,120,0,1,,,,,,,,,1,,,79,0
234600,note_on,0,0,1,,,,,,,,,1,,,76,70
234600,note_off,120,0,1,,,,,,,,,1,,,78,0
234660,set_tempo,2820,1,0,,,,,,495867,,,,,,,
234720,set_tempo,60,1,0,,,,,,491803,,,,,,,
234720,note_off,120,0,1,,,,,,,,,1,,,76,0
234720,note_on,0,0,1,,,,,,,,,1,,,78,70
234840,note_on,1200,0,5,,,,,,,,,5,,,38,70
234960,note_on,0,0,5,,,,,,,,,5,,,42,70
234960,note_off,120,0,5,,,,,,,,,5,,,38,0
235080,note_off,120,0,5,,,,,,,,,5,,,42,0
235080,note_on,0,0,5,,,,,,,,,5,,,45,70
235080,note_off,360,0,1,,,,,,,,,1,,,78,0
235200,note_off,120,0,5,,,,,,,,,5,,,45,0
235200,note_on,0,0,5,,,,,,,,,5,,,50,70
235320,note_on,240,0,1,,,,,,,,,1,,,66,69
235440,note_on,0,0,1,,,,,,,,,1,,,69,69
235440,note_off,120,0,1,,,,,,,,,1,,,66,0
235560,note_off,360,0,5,,,,,,,,,5,,,50,0
235560,note_off,120,0,1,,,,,,,,,1,,,69,0
235560,note_on,0,0,1,,,,,,,,,1,,,74,69
235680,note_on,0,0,1,,,,,,,,,1,,,78,69
235680,note_off,120,0,1,,,,,,,,,1,,,74,0
235800,note_on,240,0,5,,,,,,,,,5,,,62,69
235920,note_off,120,0,5,,,,,,,,,5,,,62,0
235920,note_on,0,0,5,,,,,,,,,5,,,66,69
236040,note_off,360,0,1,,,,,,,,,1,,,78,0
236040,note_off,120,0,5,,,,,,,,,5,,,66,0
236040,note_on,0,0,5,,,,,,,,,5,,,69,69
236160,note_off,120,0,5,,,,,,,,,5,,,69,0
236160,note_on,0,0,5,,,,,,,,,5,,,74,68
236280,note_on,240,0,1,,,,,,,,,1,,,81,68
236400,note_off,120,0,1,,,,,,,,,1,,,81,0
236400,note_on,0,0,1,,,,,,,,,1,,,83,68
236520,note_off,120,0,1,,,,,,,,,1,,,83,0
236520,note_off,360,0,5,,,,,,,,,5,,,74,0
236520,note_on,0,0,1,,,,,,,,,1,,,85,68
236640,note_off,120,0,1,,,,,,,,,1,,,85,0
236640,note_on,0,0,1,,,,,,,,,1,,,86,68
236760,note_off,120,0,1,,,,,,,,,1,,,86,0
236760,note_on,0,0,1,,,,,,,,,1,,,85,68
236880,note_off,120,0,1,,,,,,,,,1,,,85,0
236880,note_on,0,0,1,,,,,,,,,1,,,83,68
237000,note_on,0,0,1,,,,,,,,,1,,,81,67
237000,note_off,120,0,1,,,,,,,,,1,,,83,0
237120,note_on,0,0,1,,,,,,,,,1,,,79,67
237120,note_off,120,0,1,,,,,,,,,1,,,81,0
237240,note_on,0,0,1,,,,,,,,,1,,,78,67
237240,note_off,120,0,1,,,,,,,,,1,,,79,0
237360,note_on,0,0,1,,,,,,,,,1,,,76,67
237360,note_off,120,0,1,,,,,,,,,1,,,78,0
237480,note_off,120,0,1,,,,,,,,,1,,,76,0
237480,note_on,0,0,1,,,,,,,,,1,,,74,67
237540,set_tempo,2820,1,0,,,,,,495867,,,,,,,
237576,note_off,96,0,1,,,,,,,,,1,,,74,0
237600,note_on,1080,0,5,,,,,,,,,5,,,50,74
237600,set_tempo,60,1,0,,,,,,491803,,,,,,,
237600,note_on,24,0,1,,,,,,,,,1,,,81,67
237600,note_on,5400,0,2,,,,,,,,,2,,,78,67
237720,note_off,120,0,2,,,,,,,,,2,,,78,0
237720,note_on,0,0,2,,,,,,,,,2,,,74,67
237756,note_off,156,0,1,,,,,,,,,1,,,81,0
237840,note_off,120,0,2,,,,,,,,,2,,,74,0
237840,note_on,84,0,1,,,,,,,,,1,,,86,66
237960,note_on,120,0,2,,,,,,,,,2,,,74,66
237996,note_off,156,0,1,,,,,,,,,1,,,86,0
238080,note_on,0,0,2,,,,,,,,,2,,,78,66
238080,note_off,120,0,2,,,,,,,,,2,,,74,0
238080,note_on,84,0,1,,,,,,,,,1,,,81,66
238200,note_off,120,0,2,,,,,,,,,2,,,78,0
238200,note_on,0,0,2,,,,,,,,,2,,,74,66
238236,note_off,156,0,1,,,,,,,,,1,,,81,0
238236,note_off,636,0,5,,,,,,,,,5,,,50,0
238320,note_on,84,0,1,,,,,,,,,1,,,83,66
238320,note_on,84,0,5,,,,,,,,,5,,,55,66
238320,note_off,120,0,2,,,,,,,,,2,,,74,0
238320,note_on,0,0,2,,,,,,,,,2,,,79,66
238440,note_off,120,0,2,,,,,,,,,2,,,79,0
238440,note_on,0,0,2,,,,,,,,,2,,,74,66
238476,note_off,156,0,1,,,,,,,,,1,,,83,0
238476,note_off,156,0,5,,,,,,,,,5,,,55,0
238560,note_off,120,0,2,,,,,,,,,2,,,74,0
238560,note_on,84,0,5,,,,,,,,,5,,,50,66
238560,note_on,84,0,1,,,,,,,,,1,,,81,66
238560,note_on,0,0,2,,,,,,,,,2,,,78,66
238680,note_off,120,0,2,,,,,,,,,2,,,78,0
238680,note_on,0,0,2,,,,,,,,,2,,,74,65
238716,note_off,156,0,5,,,,,,,,,5,,,50,0
238716,note_off,156,0,1,,,,,,,,,1,,,81,0
238800,note_on,84,0,5,,,,,,,,,5,,,55,65
238800,note_on,84,0,1,,,,,,,,,1,,,83,65
238800,note_on,0,0,2,,,,,,,,,2,,,79,65
238800,note_off,120,0,2,,,,,,,,,2,,,74,0
238920,note_on,0,0,2,,,,,,,,,2,,,74,65
238920,note_off,120,0,2,,,,,,,,,2,,,79,0
238956,note_off,156,0,1,,,,,,,,,1,,,83,0
238956,note_off,156,0,5,,,,,,,,,5,,,55,0
239016,note_off,96,0,2,,,,,,,,,2,,,74,0
239040,note_on,24,0,2,,,,,,,,,2,,,78,65
239040,note_on,84,0,5,,,,,,,,,5,,,50,70
239040,note_on,84,0,1,,,,,,,,,1,,,81,65
239160,note_off,120,0,2,,,,,,,,,2,,,78,0
239160,note_on,0,0,2,,,,,,,,,2,,,74,65
239196,note_off,156,0,1,,,,,,,,,1,,,81,0
239280,note_off,120,0,2,,,,,,,,,2,,,74,0
239280,note_on,84,0,1,,,,,,,,,1,,,86,65
239400,note_on,120,0,2,,,,,,,,,2,,,74,65
239436,note_off,156,0,1,,,,,,,,,1,,,86,0
239520,note_off,120,0,2,,,,,,,,,2,,,74,0
239520,note_on,0,0,2,,,,,,,,,2,,,78,64
239520,note_on,84,0,1,,,,,,,,,1,,,81,64
239640,note_off,120,0,2,,,,,,,,,2,,,78,0
239640,note_on,0,0,2,,,,,,,,,2,,,74,64
239676,note_off,156,0,1,,,,,,,,,1,,,81,0
239676,note_off,636,0,5,,,,,,,,,5,,,50,0
239760,note_on,84,0,5,,,,,,,,,5,,,55,64
239760,note_on,0,0,2,,,,,,,,,2,,,79,64
239760,note_off,120,0,2,,,,,,,,,2,,,74,0
239760,note_on,84,0,1,,,,,,,,,1,,,83,64
239880,note_off,120,0,2,,,,,,,,,2,,,79,0
239880,note_on,0,0,2,,,,,,,,,2,,,74,64
239916,note_off,156,0,5,,,,,,,,,5,,,55,0
239916,note_off,156,0,1,,,,,,,,,1,,,83,0
240000,note_on,84,0,5,,,,,,,,,5,,,50,64
240000,note_on,84,0,1,,,,,,,,,1,,,81,64
240000,note_on,0,0,2,,,,,,,,,2,,,78,64
240000,note_off,120,0,2,,,,,,,,,2,,,74,0
240120,note_on,0,0,2,,,,,,,,,2,,,74,64
240120,note_off,120,0,2,,,,,,,,,2,,,78,0
240156,note_off,156,0,1,,,,,,,,,1,,,81,0
240156,note_off,156,0,5,,,,,,,,,5,,,50,0
240240,note_on,84,0,5,,,,,,,,,5,,,55,64
240240,note_on,0,0,2,,,,,,,,,2,,,79,64
240240,note_on,84,0,1,,,,,,,,,1,,,83,64
240240,note_off,120,0,2,,,,,,,,,2,,,74,0
240360,note_off,120,0,2,,,,,,,,,2,,,79,0
240360,note_on,0,0,2,,,,,,,,,2,,,74,64
240396,note_off,156,0,1,,,,,,,,,1,,,83,0
240396,note_off,156,0,5,,,,,,,,,5,,,55,0
240456,note_off,96,0,2,,,,,,,,,2,,,74,0
240480,note_on,84,0,5,,,,,,,,,5,,,50,63
240480,note_on,84,0,1,,,,,,,,,1,,,81,63
240600,note_on,144,0,2,,,,,,,,,2,,,78,63
240600,note_on,8760,0,4,,,,,,,,,4,,,57,63
240636,note_off,156,0,1,,,,,,,,,1,,,81,0
240636,note_off,156,0,5,,,,,,,,,5,,,50,0
240720,note_on,0,0,2,,,,,,,,,2,,,74,63
240720,note_on,0,0,4,,,,,,,,,4,,,54,63
240720,note_off,120,0,4,,,,,,,,,4,,,57,0
240720,note_off,120,0,2,,,,,,,,,2,,,78,0
240840,note_off,120,0,2,,,,,,,,,2,,,74,0
240840,note_on,0,0,2,,,,,,,,,2,,,81,63
240840,note_off,120,0,4,,,,,,,,,4,,,54,0
240840,note_on,0,0,4,,,,,,,,,4,,,57,63
240936,note_off,96,0,4,,,,,,,,,4,,,57,0
240960,note_off,120,0,2,,,,,,,,,2,,,81,0
240960,note_on,324,0,1,,,,,,,,,1,,,79,63
240960,note_on,324,0,5,,,,,,,,,5,,,49,63
241080,note_on,144,0,4,,,,,,,,,4,,,57,63
241080,note_on,120,0,2,,,,,,,,,2,,,76,63
241116,note_off,156,0,5,,,,,,,,,5,,,49,0
241116,note_off,156,0,1,,,,,,,,,1,,,79,0
241200,note_on,0,0,2,,,,,,,,,2,,,69,63
241200,note_off,120,0,2,,,,,,,,,2,,,76,0
241200,note_off,120,0,4,,,,,,,,,4,,,57,0
241200,note_on,0,0,4,,,,,,,,,4,,,52,63
241320,note_on,0,0,2,,,,,,,,,2,,,79,62
241320,note_off,120,0,2,,,,,,,,,2,,,69,0
241320,note_on,0,0,4,,,,,,,,,4,,,57,62
241320,note_off,120,0,4,,,,,,,,,4,,,52,0
241416,note_off,96,0,4,,,,,,,,,4,,,57,0
241440,note_on,324,0,1,,,,,,,,,1,,,78,62
241440,note_off,120,0,2,,,,,,,,,2,,,79,0
241440,note_on,324,0,5,,,,,,,,,5,,,50,62
241560,note_on,144,0,4,,,,,,,,,4,,,57,62
241560,note_on,120,0,2,,,,,,,,,2,,,74,62
241596,note_off,156,0,1,,,,,,,,,1,,,78,0
241596,note_off,156,0,5,,,,,,,,,5,,,50,0
241680,note_off,120,0,4,,,,,,,,,4,,,57,0
241680,note_on,0,0,4,,,,,,,,,4,,,54,62
241680,note_on,0,0,2,,,,,,,,,2,,,69,62
241680,note_off,120,0,2,,,,,,,,,2,,,74,0
241800,note_off,120,0,4,,,,,,,,,4,,,54,0
241800,note_on,0,0,2,,,,,,,,,2,,,78,62
241800,note_off,120,0,2,,,,,,,,,2,,,69,0
241800,note_on,0,0,4,,,,,,,,,4,,,57,62
241896,note_off,96,0,2,,,,,,,,,2,,,78,0
241896,note_off,96,0,4,,,,,,,,,4,,,57,0
241920,note_on,324,0,1,,,,,,,,,1,,,76,64
241920,note_on,324,0,5,,,,,,,,,5,,,45,64
242040,note_on,144,0,2,,,,,,,,,2,,,69,64
242076,note_off,156,0,1,,,,,,,,,1,,,76,0
242160,note_off,120,0,2,,,,,,,,,2,,,69,0
242160,note_on,84,0,1,,,,,,,,,1,,,73,64
242280,note_on,120,0,2,,,,,,,,,2,,,69,65
242280,note_off,360,0,5,,,,,,,,,5,,,45,0
242316,note_off,156,0,1,,,,,,,,,1,,,73,0
242400,note_on,84,0,1,,,,,,,,,1,,,74,66
242400,note_off,120,0,2,,,,,,,,,2,,,69,0
242400,note_on,0,0,2,,,,,,,,,2,,,71,66
242520,note_on,0,0,2,,,,,,,,,2,,,69,67
242520,note_off,120,0,2,,,,,,,,,2,,,71,0
242592,note_off,192,0,1,,,,,,,,,1,,,74,0
242640,note_on,0,0,2,,,,,,,,,2,,,73,67
242640,note_on,48,0,1,,,,,,,,,1,,,76,67
242640,note_off,120,0,2,,,,,,,,,2,,,69,0
242760,note_on,0,0,2,,,,,,,,,2,,,69,68
242760,note_off,120,0,2,,,,,,,,,2,,,73,0
242796,note_off,156,0,1,,,,,,,,,1,,,76,0
242880,note_off,120,0,2,,,,,,,,,2,,,69,0
242880,note_on,84,0,1,,,,,,,,,1,,,78,69
242880,note_on,0,0,2,,,,,,,,,2,,,74,69
243000,note_on,0,0,2,,,,,,,,,2,,,69,70
243000,note_off,120,0,2,,,,,,,,,2,,,74,0
243036,note_off,156,0,1,,,,,,,,,1,,,78,0
243120,note_off,120,0,2,,,,,,,,,2,,,69,0
243120,note_on,0,0,2,,,,,,,,,2,,,76,70
243120,note_on,84,0,1,,,,,,,,,1,,,79,70
243240,note_off,120,0,2,,,,,,,,,2,,,76,0
243240,note_on,0,0,2,,,,,,,,,2,,,69,71
243240,set_tempo,5640,1,0,,,,,,495867,,,,,,,
243276,note_off,156,0,1,,,,,,,,,1,,,79,0
243336,note_off,96,0,2,,,,,,,,,2,,,69,0
243360,marker,0,1,0,,,,,,,,,,,,,
243360,set_tempo,120,1,0,,,,,,240000,,,,,,,
243420,control_change,84,0,2,,,,,,,64,0,2,,,,
243420,control_change,1524,0,4,,,,,,,64,0,4,,,,
243420,note_on,0,0,2,,,,,,,,,2,,,69,77
243420,control_change,11580,0,3,,,,,,,64,0,3,,,,
243420,control_change,144,0,1,,,,,,,64,0,1,,,,
243420,set_tempo,60,1,0,,,,,,480000,,,,,,,
243420,control_change,1140,0,5,,,,,,,64,0,5,,,,
243480,note_on,0,0,2,,,,,,,,,2,,,74,79
243480,note_off,60,0,2,,,,,,,,,2,,,69,0
243540,note_on,0,0,2,,,,,,,,,2,,,78,81
243540,note_off,60,0,2,,,,,,,,,2,,,74,0
243600,note_on,180,0,1,,,,,,,,,1,,,81,83
243600,note_off,60,0,2,,,,,,,,,2,,,78,0
243720,note_on,300,0,5,,,,,,,,,5,,,50,83
243840,note_on,0,0,5,,,,,,,,,5,,,54,83
243840,note_off,120,0,5,,,,,,,,,5,,,50,0
243960,note_off,120,0,5,,,,,,,,,5,,,54,0
243960,note_on,0,0,5,,,,,,,,,5,,,57,83
244080,note_off,120,0,5,,,,,,,,,5,,,57,0
244080,note_on,0,0,5,,,,,,,,,5,,,62,83
244176,note_off,576,0,1,,,,,,,,,1,,,81,0
244200,note_on,24,0,1,,,,,,,,,1,,,69,81
244320,note_off,120,0,1,,,,,,,,,1,,,69,0
244320,note_on,0,0,1,,,,,,,,,1,,,74,80
244440,note_off,120,0,1,,,,,,,,,1,,,74,0
244440,note_on,0,0,1,,,,,,,,,1,,,78,80
244560,note_off,480,0,5,,,,,,,,,5,,,62,0
244560,note_on,0,0,1,,,,,,,,,1,,,81,79
244560,note_off,120,0,1,,,,,,,,,1,,,78,0
244638,note_off,78,0,1,,,,,,,,,1,,,81,0
244680,note_on,42,0,1,,,,,,,,,1,,,78,79
244758,note_off,78,0,1,,,,,,,,,1,,,78,0
244800,note_on,42,0,1,,,,,,,,,1,,,86,78
244878,note_off,78,0,1,,,,,,,,,1,,,86,0
244920,note_on,42,0,1,,,,,,,,,1,,,86,78
244998,note_off,78,0,1,,,,,,,,,1,,,86,0
245040,note_on,42,0,1,,,,,,,,,1,,,78,82
245160,note_on,600,0,5,,,,,,,,,5,,,38,82
245280,note_off,120,0,5,,,,,,,,,5,,,38,0
245280,note_on,0,0,5,,,,,,,,,5,,,42,82
245400,note_off,120,0,5,,,,,,,,,5,,,42,0
245400,note_on,0,0,5,,,,,,,,,5,,,45,82
245520,note_on,0,0,5,,,,,,,,,5,,,50,82
245520,note_off,120,0,5,,,,,,,,,5,,,45,0
245616,note_off,576,0,1,,,,,,,,,1,,,78,0
245640,note_on,24,0,1,,,,,,,,,1,,,66,79
245760,note_on,0,0,1,,,,,,,,,1,,,69,78
245760,note_off,120,0,1,,,,,,,,,1,,,66,0
245880,note_on,0,0,1,,,,,,,,,1,,,74,78
245880,note_off,120,0,1,,,,,,,,,1,,,69,0
246000,note_off,120,0,1,,,,,,,,,1,,,74,0
246000,note_on,0,0,1,,,,,,,,,1,,,78,77
246000,note_off,480,0,5,,,,,,,,,5,,,50,0
246078,note_off,78,0,1,,,,,,,,,1,,,78,0
246120,note_on,42,0,1,,,,,,,,,1,,,74,76
246198,note_off,78,0,1,,,,,,,,,1,,,74,0
246240,note_on,42,0,1,,,,,,,,,1,,,81,76
246318,note_off,78,0,1,,,,,,,,,1,,,81,0
246360,note_on,42,0,1,,,,,,,,,1,,,81,81
246438,note_off,78,0,1,,,,,,,,,1,,,81,0
246480,note_on,480,0,5,,,,,,,,,5,,,59,81
246600,note_on,162,0,1,,,,,,,,,1,,,66,80
246672,note_off,192,0,5,,,,,,,,,5,,,59,0
246678,note_off,78,0,1,,,,,,,,,1,,,66,0
246720,note_on,42,0,1,,,,,,,,,1,,,71,80
246840,note_on,0,0,1,,,,,,,,,1,,,74,80
246840,note_off,120,0,1,,,,,,,,,1,,,71,0
246918,note_off,78,0,1,,,,,,,,,1,,,74,0
246960,note_on,288,0,5,,,,,,,,,5,,,55,80
247080,note_on,162,0,1,,,,,,,,,1,,,67,80
247152,note_off,192,0,5,,,,,,,,,5,,,55,0
247158,note_off,78,0,1,,,,,,,,,1,,,67,0
247200,note_on,42,0,1,,,,,,,,,1,,,71,80
247320,note_on,0,0,1,,,,,,,,,1,,,76,80
247320,note_off,120,0,1,,,,,,,,,1,,,71,0
247398,note_off,78,0,1,,,,,,,,,1,,,76,0
247440,note_on,288,0,5,,,,,,,,,5,,,57,79
247560,note_on,162,0,1,,,,,,,,,1,,,64,79
247632,note_off,192,0,5,,,,,,,,,5,,,57,0
247638,note_off,78,0,1,,,,,,,,,1,,,64,0
247680,note_on,42,0,1,,,,,,,,,1,,,67,79
247800,note_off,120,0,1,,,,,,,,,1,,,67,0
247800,note_on,0,0,1,,,,,,,,,1,,,73,79
247878,note_off,78,0,1,,,,,,,,,1,,,73,0
247920,note_on,42,0,1,,,,,,,,,1,,,74,79
247920,note_on,288,0,5,,,,,,,,,5,,,50,79
248016,note_off,96,0,1,,,,,,,,,1,,,74,0
248040,note_on,24,0,1,,,,,,,,,1,,,62,79
248160,note_off,120,0,1,,,,,,,,,1,,,62,0
248160,note_on,0,0,1,,,,,,,,,1,,,64,77
248280,note_off,120,0,1,,,,,,,,,1,,,64,0
248280,note_on,0,0,1,,,,,,,,,1,,,66,77
248280,note_off,360,0,5,,,,,,,,,5,,,50,0
248400,note_off,120,0,1,,,,,,,,,1,,,66,0
248400,note_on,0,0,1,,,,,,,,,1,,,67,76
248520,note_off,120,0,1,,,,,,,,,1,,,67,0
248520,note_on,0,0,1,,,,,,,,,1,,,69,76
248640,note_on,0,0,1,,,,,,,,,1,,,71,76
248640,note_off,120,0,1,,,,,,,,,1,,,69,0
248760,note_on,0,0,1,,,,,,,,,1,,,73,75
248760,note_off,120,0,1,,,,,,,,,1,,,71,0
248880,note_on,0,0,1,,,,,,,,,1,,,74,75
248880,note_off,120,0,1,,,,,,,,,1,,,73,0
249000,note_off,120,0,1,,,,,,,,,1,,,74,0
249000,note_on,0,0,1,,,,,,,,,1,,,76,74
249120,note_off,120,0,1,,,,,,,,,1,,,76,0
249120,note_on,0,0,1,,,,,,,,,1,,,78,74
249240,note_off,120,0,1,,,,,,,,,1,,,78,0
249240,note_on,0,0,1,,,,,,,,,1,,,79,74
249300,set_tempo,5880,1,0,,,,,,495867,,,,,,,
249336,note_off,96,0,1,,,,,,,,,1,,,79,0
249360,note_on,24,0,1,,,,,,,,,1,,,81,78
249360,set_tempo,60,1,0,,,,,,491803,,,,,,,
249480,note_on,1200,0,5,,,,,,,,,5,,,50,77
249600,note_off,120,0,5,,,,,,,,,5,,,50,0
249600,note_on,0,0,5,,,,,,,,,5,,,54,77
249720,note_off,120,0,5,,,,,,,,,5,,,54,0
249720,note_on,0,0,5,,,,,,,,,5,,,57,77
249840,note_on,0,0,5,,,,,,,,,5,,,62,77
249840,note_off,120,0,5,,,,,,,,,5,,,57,0
249936,note_off,576,0,1,,,,,,,,,1,,,81,0
249960,note_on,24,0,1,,,,,,,,,1,,,69,76
250080,note_on,0,0,1,,,,,,,,,1,,,74,75
250080,note_off,120,0,1,,,,,,,,,1,,,69,0
250200,note_off,120,0,1,,,,,,,,,1,,,74,0
250200,note_on,0,0,1,,,,,,,,,1,,,78,75
250320,note_off,480,0,5,,,,,,,,,5,,,62,0
250320,note_on,0,0,1,,,,,,,,,1,,,81,74
250320,note_off,120,0,1,,,,,,,,,1,,,78,0
250398,note_off,78,0,1,,,,,,,,,1,,,81,0
250440,note_on,42,0,1,,,,,,,,,1,,,78,73
250518,note_off,78,0,1,,,,,,,,,1,,,78,0
250560,note_on,42,0,1,,,,,,,,,1,,,86,73
250638,note_off,78,0,1,,,,,,,,,1,,,86,0
250680,note_on,42,0,1,,,,,,,,,1,,,86,72
250758,note_off,78,0,1,,,,,,,,,1,,,86,0
250800,note_on,42,0,1,,,,,,,,,1,,,78,76
250920,note_on,600,0,5,,,,,,,,,5,,,38,76
251040,note_off,120,0,5,,,,,,,,,5,,,38,0
251040,note_on,0,0,5,,,,,,,,,5,,,42,76
251160,note_on,0,0,5,,,,,,,,,5,,,45,76
251160,note_off,120,0,5,,,,,,,,,5,,,42,0
251280,note_on,0,0,5,,,,,,,,,5,,,50,75
251280,note_off,120,0,5,,,,,,,,,5,,,45,0
251376,note_off,576,0,1,,,,,,,,,1,,,78,0
251400,note_on,24,0,1,,,,,,,,,1,,,66,74
251520,note_off,120,0,1,,,,,,,,,1,,,66,0
251520,note_on,0,0,1,,,,,,,,,1,,,69,73
251640,note_on,0,0,1,,,,,,,,,1,,,74,73
251640,note_off,120,0,1,,,,,,,,,1,,,69,0
251760,note_on,0,0,1,,,,,,,,,1,,,78,72
251760,note_off,120,0,1,,,,,,,,,1,,,74,0
251760,note_off,480,0,5,,,,,,,,,5,,,50,0
251838,note_off,78,0,1,,,,,,,,,1,,,78,0
251880,note_on,42,0,1,,,,,,,,,1,,,74,71
251958,note_off,78,0,1,,,,,,,,,1,,,74,0
252000,note_on,42,0,1,,,,,,,,,1,,,81,71
252078,note_off,78,0,1,,,,,,,,,1,,,81,0
252120,note_on,42,0,1,,,,,,,,,1,,,81,70
252198,note_off,78,0,1,,,,,,,,,1,,,81,0
252240,note_on,42,0,1,,,,,,,,,1,,,74,74
252360,note_on,600,0,5,,,,,,,,,5,,,47,74
252432,note_off,192,0,1,,,,,,,,,1,,,74,0
252438,note_off,78,0,5,,,,,,,,,5,,,47,0
252480,note_on,42,0,5,,,,,,,,,5,,,50,74
252600,note_on,0,0,5,,,,,,,,,5,,,59,74
252600,note_off,120,0,5,,,,,,,,,5,,,50,0
252678,note_off,78,0,5,,,,,,,,,5,,,59,0
252720,note_on,288,0,1,,,,,,,,,1,,,76,74
252720,note_on,9120,0,2,,,,,,,,,2,,,67,74
252840,note_on,162,0,5,,,,,,,,,5,,,43,74
252912,note_off,192,0,1,,,,,,,,,1,,,76,0
252912,note_off,192,0,2,,,,,,,,,2,,,67,0
252918,note_off,78,0,5,,,,,,,,,5,,,43,0
252960,note_on,42,0,5,,,,,,,,,5,,,47,74
253080,note_off,120,0,5,,,,,,,,,5,,,47,0
253080,note_on,0,0,5,,,,,,,,,5,,,55,73
253158,note_off,78,0,5,,,,,,,,,5,,,55,0
253200,note_on,288,0,1,,,,,,,,,1,,,73,73
253200,note_on,288,0,2,,,,,,,,,2,,,64,73
253320,note_on,162,0,5,,,,,,,,,5,,,45,73
253392,note_off,192,0,1,,,,,,,,,1,,,73,0
253392,note_off,192,0,2,,,,,,,,,2,,,64,0
253398,note_off,78,0,5,,,,,,,,,5,,,45,0
253440,note_on,42,0,5,,,,,,,,,5,,,49,73
253560,note_off,120,0,5,,,,,,,,,5,,,49,0
253560,note_on,0,0,5,,,,,,,,,5,,,57,73
253638,note_off,78,0,5,,,,,,,,,5,,,57,0
253680,note_on,288,0,1,,,,,,,,,1,,,74,73
253680,note_on,288,0,2,,,,,,,,,2,,,66,73
253800,note_on,162,0,5,,,,,,,,,5,,,50,73
253920,note_off,120,0,5,,,,,,,,,5,,,50,0
253920,note_on,0,0,5,,,,,,,,,5,,,54,72
254040,note_off,360,0,2,,,,,,,,,2,,,66,0
254040,note_on,0,0,5,,,,,,,,,5,,,50,71
254040,note_off,120,0,5,,,,,,,,,5,,,54,0
254040,note_off,360,0,1,,,,,,,,,1,,,74,0
254160,note_off,120,0,5,,,,,,,,,5,,,50,0
254160,note_on,0,0,5,,,,,,,,,5,,,45,69
254280,note_off,120,0,5,,,,,,,,,5,,,45,0
254280,note_on,0,0,5,,,,,,,,,5,,,50,68
254400,note_off,120,0,5,,,,,,,,,5,,,50,0
254400,note_on,0,0,5,,,,,,,,,5,,,42,67
254520,note_off,120,0,5,,,,,,,,,5,,,42,0
254520,note_on,0,0,5,,,,,,,,,5,,,45,66
254580,set_tempo,5220,1,0,,,,,,495867,,,,,,,
254640,note_on,0,0,5,,,,,,,,,5,,,38,65
254640,note_off,120,0,5,,,,,,,,,5,,,45,0
254880,set_tempo,300,1,0,,,,,,517241,,,,,,,
254887,note_off,247,0,5,,,,,,,,,5,,,38,0
255120,control_change,1080,0,1,,,,,,,64,0,1,,,,
255120,note_on,0,0,2,,,,,,,,,2,,,73,73
255120,set_tempo,240,1,0,,,,,,491803,,,,,,,
255120,control_change,11700,0,3,,,,,,,64,0,3,,,,
255120,control_change,233,0,5,,,,,,,64,0,5,,,,
255120,marker,0,1,0,,,,,,,,,,,,,
255120,control_change,11700,0,4,,,,,,,64,0,4,,,,
255120,control_change,1080,0,2,,,,,,,64,0,2,,,,
255120,note_on,0,0,2,,,,,,,,,2,,,69,73
255120,note_on,0,0,1,,,,,,,,,1,,,76,73
255240,note_on,120,0,5,,,,,,,,,5,,,33,73
255360,note_on,0,0,5,,,,,,,,,5,,,37,73
255360,note_off,120,0,5,,,,,,,,,5,,,33,0
255480,note_off,0,0,2,,,,,,,,,2,,,69,0
255480,note_off,360,0,1,,,,,,,,,1,,,76,0
255480,note_off,120,0,5,,,,,,,,,5,,,37,0
255480,note_on,0,0,5,,,,,,,,,5,,,40,73
255480,note_off,360,0,2,,,,,,,,,2,,,73,0
255600,note_off,120,0,5,,,,,,,,,5,,,40,0
255600,note_on,0,0,5,,,,,,,,,5,,,45,73
255720,note_on,240,0,1,,,,,,,,,1,,,61,73
255840,note_off,120,0,1,,,,,,,,,1,,,61,0
255840,note_on,0,0,1,,,,,,,,,1,,,64,73
255960,note_off,360,0,5,,,,,,,,,5,,,45,0
255960,note_on,0,0,1,,,,,,,,,1,,,69,72
255960,note_off,120,0,1,,,,,,,,,1,,,64,0
256080,note_on,0,0,1,,,,,,,,,1,,,73,72
256080,note_off,120,0,1,,,,,,,,,1,,,69,0
256200,note_on,240,0,5,,,,,,,,,5,,,57,72
256320,note_off,120,0,5,,,,,,,,,5,,,57,0
256320,note_on,0,0,5,,,,,,,,,5,,,61,72
256440,note_off,360,0,1,,,,,,,,,1,,,73,0
256440,note_on,0,0,5,,,,,,,,,5,,,64,72
256440,note_off,120,0,5,,,,,,,,,5,,,61,0
256560,note_on,0,0,5,,,,,,,,,5,,,69,72
256560,note_off,120,0,5,,,,,,,,,5,,,64,0
256680,note_on,240,0,1,,,,,,,,,1,,,76,72
256800,note_on,0,0,1,,,,,,,,,1,,,81,71
256800,note_off,120,0,1,,,,,,,,,1,,,76,0
256920,note_on,0,0,1,,,,,,,,,1,,,85,71
256920,note_off,120,0,1,,,,,,,,,1,,,81,0
256920,note_off,360,0,5,,,,,,,,,5,,,69,0
257040,note_off,120,0,1,,,,,,,,,1,,,85,0
257040,note_on,0,0,1,,,,,,,,,1,,,88,71
257160,note_on,0,0,1,,,,,,,,,1,,,86,71
257160,note_off,120,0,1,,,,,,,,,1,,,88,0
257280,note_on,0,0,1,,,,,,,,,1,,,85,71
257280,note_off,120,0,1,,,,,,,,,1,,,86,0
257400,note_off,120,0,1,,,,,,,,,1,,,85,0
257400,note_on,0,0,1,,,,,,,,,1,,,83,71
257520,note_off,120,0,1,,,,,,,,,1,,,83,0
257520,note_on,0,0,1,,,,,,,,,1,,,81,71
257640,note_on,0,0,1,,,,,,,,,1,,,79,70
257640,note_off,120,0,1,,,,,,,,,1,,,81,0
257760,note_on,0,0,1,,,,,,,,,1,,,78,70
257760,note_off,120,0,1,,,,,,,,,1,,,79,0
257880,note_off,120,0,1,,,,,,,,,1,,,78,0
257880,note_on,0,0,1,,,,,,,,,1,,,76,70
257940,set_tempo,2820,1,0,,,,,,495867,,,,,,,
258000,set_tempo,60,1,0,,,,,,491803,,,,,,,
258000,note_on,0,0,1,,,,,,,,,1,,,78,70
258000,note_off,120,0,1,,,,,,,,,1,,,76,0
258120,note_on,1200,0,5,,,,,,,,,5,,,38,70
258240,note_on,0,0,5,,,,,,,,,5,,,42,70
258240,note_off,120,0,5,,,,,,,,,5,,,38,0
258360,note_off,360,0,1,,,,,,,,,1,,,78,0
258360,note_on,0,0,5,,,,,,,,,5,,,45,70
258360,note_off,120,0,5,,,,,,,,,5,,,42,0
258480,note_off,120,0,5,,,,,,,,,5,,,45,0
258480,note_on,0,0,5,,,,,,,,,5,,,50,70
258600,note_on,240,0,1,,,,,,,,,1,,,66,69
258720,note_off,120,0,1,,,,,,,,,1,,,66,0
258720,note_on,0,0,1,,,,,,,,,1,,,69,69
258840,note_off,120,0,1,,,,,,,,,1,,,69,0
258840,note_on,0,0,1,,,,,,,,,1,,,74,69
258840,note_off,360,0,5,,,,,,,,,5,,,50,0
258960,note_off,120,0,1,,,,,,,,,1,,,74,0
258960,note_on,0,0,1,,,,,,,,,1,,,78,69
259080,note_on,240,0,5,,,,,,,,,5,,,62,69
259200,note_off,120,0,5,,,,,,,,,5,,,62,0
259200,note_on,0,0,5,,,,,,,,,5,,,66,69
259320,note_off,120,0,5,,,,,,,,,5,,,66,0
259320,note_on,0,0,5,,,,,,,,,5,,,69,69
259320,note_off,360,0,1,,,,,,,,,1,,,78,0
259440,note_on,0,0,5,,,,,,,,,5,,,74,68
259440,note_off,120,0,5,,,,,,,,,5,,,69,0
259560,note_on,240,0,1,,,,,,,,,1,,,81,68
259680,note_off,120,0,1,,,,,,,,,1,,,81,0
259680,note_on,0,0,1,,,,,,,,,1,,,83,68
259800,note_off,360,0,5,,,,,,,,,5,,,74,0
259800,note_off,120,0,1,,,,,,,,,1,,,83,0
259800,note_on,0,0,1,,,,,,,,,1,,,85,68
259920,note_off,120,0,1,,,,,,,,,1,,,85,0
259920,note_on,0,0,1,,,,,,,,,1,,,86,68
260040,note_off,120,0,1,,,,,,,,,1,,,86,0
260040,note_on,0,0,1,,,,,,,,,1,,,85,68
260160,note_on,0,0,1,,,,,,,,,1,,,83,68
260160,note_off,120,0,1,,,,,,,,,1,,,85,0
260280,note_off,120,0,1,,,,,,,,,1,,,83,0
260280,note_on,0,0,1,,,,,,,,,1,,,81,67
260400,note_off,120,0,1,,,,,,,,,1,,,81,0
260400,note_on,0,0,1,,,,,,,,,1,,,79,67
260520,note_off,120,0,1,,,,,,,,,1,,,79,0
260520,note_on,0,0,1,,,,,,,,,1,,,78,67
260640,note_off,120,0,1,,,,,,,,,1,,,78,0
260640,note_on,0,0,1,,,,,,,,,1,,,76,67
260760,note_on,0,0,1,,,,,,,,,1,,,74,67
260760,note_off,120,0,1,,,,,,,,,1,,,76,0
260820,set_tempo,2820,1,0,,,,,,495867,,,,,,,
260856,note_off,96,0,1,,,,,,,,,1,,,74,0
260880,note_on,1080,0,5,,,,,,,,,5,,,50,74
260880,note_on,5400,0,2,,,,,,,,,2,,,78,67
260880,note_on,24,0,1,,,,,,,,,1,,,81,67
260880,set_tempo,60,1,0,,,,,,491803,,,,,,,
261000,note_on,0,0,2,,,,,,,,,2,,,74,67
261000,note_off,120,0,2,,,,,,,,,2,,,78,0
261036,note_off,156,0,1,,,,,,,,,1,,,81,0
261120,note_off,120,0,2,,,,,,,,,2,,,74,0
261120,note_on,84,0,1,,,,,,,,,1,,,86,66
261240,note_on,120,0,2,,,,,,,,,2,,,74,66
261276,note_off,156,0,1,,,,,,,,,1,,,86,0
261360,note_on,0,0,2,,,,,,,,,2,,,78,66
261360,note_off,120,0,2,,,,,,,,,2,,,74,0
261360,note_on,84,0,1,,,,,,,,,1,,,81,66
261480,note_on,0,0,2,,,,,,,,,2,,,74,66
261480,note_off,120,0,2,,,,,,,,,2,,,78,0
261516,note_off,636,0,5,,,,,,,,,5,,,50,0
261516,note_off,156,0,1,,,,,,,,,1,,,81,0
261600,note_on,84,0,1,,,,,,,,,1,,,83,66
261600,note_on,0,0,2,,,,,,,,,2,,,79,66
261600,note_on,84,0,5,,,,,,,,,5,,,55,66
261600,note_off,120,0,2,,,,,,,,,2,,,74,0
261720,note_off,120,0,2,,,,,,,,,2,,,79,0
261720,note_on,0,0,2,,,,,,,,,2,,,74,66
261756,note_off,156,0,5,,,,,,,,,5,,,55,0
261756,note_off,156,0,1,,,,,,,,,1,,,83,0
261840,note_off,120,0,2,,,,,,,,,2,,,74,0
261840,note_on,0,0,2,,,,,,,,,2,,,78,66
261840,note_on,84,0,1,,,,,,,,,1,,,81,66
261840,note_on,84,0,5,,,,,,,,,5,,,50,66
261960,note_off,120,0,2,,,,,,,,,2,,,78,0
261960,note_on,0,0,2,,,,,,,,,2,,,74,65
261996,note_off,156,0,5,,,,,,,,,5,,,50,0
261996,note_off,156,0,1,,,,,,,,,1,,,81,0
262080,note_on,84,0,5,,,,,,,,,5,,,55,65
262080,note_off,120,0,2,,,,,,,,,2,,,74,0
262080,note_on,84,0,1,,,,,,,,,1,,,83,65
262080,note_on,0,0,2,,,,,,,,,2,,,79,65
262200,note_off,120,0,2,,,,,,,,,2,,,79,0
262200,note_on,0,0,2,,,,,,,,,2,,,74,65
262236,note_off,156,0,1,,,,,,,,,1,,,83,0
262236,note_off,156,0,5,,,,,,,,,5,,,55,0
262296,note_off,96,0,2,,,,,,,,,2,,,74,0
262320,note_on,24,0,2,,,,,,,,,2,,,78,65
262320,note_on,84,0,1,,,,,,,,,1,,,81,65
262320,note_on,84,0,5,,,,,,,,,5,,,50,70
262440,note_off,120,0,2,,,,,,,,,2,,,78,0
262440,note_on,0,0,2,,,,,,,,,2,,,74,65
262476,note_off,156,0,1,,,,,,,,,1,,,81,0
262560,note_off,120,0,2,,,,,,,,,2,,,74,0
262560,note_on,84,0,1,,,,,,,,,1,,,86,65
262680,note_on,120,0,2,,,,,,,,,2,,,74,65
262716,note_off,156,0,1,,,,,,,,,1,,,86,0
262800,note_off,120,0,2,,,,,,,,,2,,,74,0
262800,note_on,0,0,2,,,,,,,,,2,,,78,64
262800,note_on,84,0,1,,,,,,,,,1,,,81,64
262920,note_off,120,0,2,,,,,,,,,2,,,78,0
262920,note_on,0,0,2,,,,,,,,,2,,,74,64
262956,note_off,156,0,1,,,,,,,,,1,,,81,0
262956,note_off,636,0,5,,,,,,,,,5,,,50,0
263040,note_on,0,0,2,,,,,,,,,2,,,79,64
263040,note_on,84,0,1,,,,,,,,,1,,,83,64
263040,note_off,120,0,2,,,,,,,,,2,,,74,0
263040,note_on,84,0,5,,,,,,,,,5,,,55,64
263160,note_off,120,0,2,,,,,,,,,2,,,79,0
263160,note_on,0,0,2,,,,,,,,,2,,,74,64
263196,note_off,156,0,5,,,,,,,,,5,,,55,0
263196,note_off,156,0,1,,,,,,,,,1,,,83,0
263280,note_off,120,0,2,,,,,,,,,2,,,74,0
263280,note_on,0,0,2,,,,,,,,,2,,,78,64
263280,note_on,84,0,5,,,,,,,,,5,,,50,64
263280,note_on,84,0,1,,,,,,,,,1,,,81,64
263400,note_off,120,0,2,,,,,,,,,2,,,78,0
263400,note_on,0,0,2,,,,,,,,,2,,,74,64
263436,note_off,156,0,5,,,,,,,,,5,,,50,0
263436,note_off,156,0,1,,,,,,,,,1,,,81,0
263520,note_off,120,0,2,,,,,,,,,2,,,74,0
263520,note_on,0,0,2,,,,,,,,,2,,,79,64
263520,note_on,84,0,1,,,,,,,,,1,,,83,64
263520,note_on,84,0,5,,,,,,,,,5,,,55,64
263640,note_on,0,0,2,,,,,,,,,2,,,74,64
263640,note_off,120,0,2,,,,,,,,,2,,,79,0
263676,note_off,156,0,1,,,,,,,,,1,,,83,0
263676,note_off,156,0,5,,,,,,,,,5,,,55,0
263736,note_off,96,0,2,,,,,,,,,2,,,74,0
263760,note_on,84,0,1,,,,,,,,,1,,,81,63
263760,note_on,84,0,5,,,,,,,,,5,,,50,63
263880,note_on,144,0,2,,,,,,,,,2,,,78,63
263880,note_on,8760,0,4,,,,,,,,,4,,,57,63
263916,note_off,156,0,1,,,,,,,,,1,,,81,0
263916,note_off,156,0,5,,,,,,,,,5,,,50,0
264000,note_on,0,0,4,,,,,,,,,4,,,54,63
264000,note_off,120,0,4,,,,,,,,,4,,,57,0
264000,note_on,0,0,2,,,,,,,,,2,,,74,63
264000,note_off,120,0,2,,,,,,,,,2,,,78,0
264120,note_off,120,0,4,,,,,,,,,4,,,54,0
264120,note_on,0,0,4,,,,,,,,,4,,,57,63
264120,note_off,120,0,2,,,,,,,,,2,,,74,0
264120,note_on,0,0,2,,,,,,,,,2,,,81,63
264216,note_off,96,0,4,,,,,,,,,4,,,57,0
264240,note_on,324,0,5,,,,,,,,,5,,,49,63
264240,note_on,324,0,1,,,,,,,,,1,,,79,63
264240,note_off,120,0,2,,,,,,,,,2,,,81,0
264360,note_on,144,0,4,,,,,,,,,4,,,57,63
264360,note_on,120,0,2,,,,,,,,,2,,,76,63
264396,note_off,156,0,5,,,,,,,,,5,,,49,0
264396,note_off,156,0,1,,,,,,,,,1,,,79,0
264480,note_on,0,0,2,,,,,,,,,2,,,69,63
264480,note_off,120,0,2,,,,,,,,,2,,,76,0
264480,note_on,0,0,4,,,,,,,,,4,,,52,63
264480,note_off,120,0,4,,,,,,,,,4,,,57,0
264600,note_on,0,0,4,,,,,,,,,4,,,57,62
264600,note_off,120,0,4,,,,,,,,,4,,,52,0
264600,note_off,120,0,2,,,,,,,,,2,,,69,0
264600,note_on,0,0,2,,,,,,,,,2,,,79,62
264696,note_off,96,0,4,,,,,,,,,4,,,57,0
264720,note_off,120,0,2,,,,,,,,,2,,,79,0
264720,note_on,324,0,5,,,,,,,,,5,,,50,62
264720,note_on,324,0,1,,,,,,,,,1,,,78,62
264840,note_on,120,0,2,,,,,,,,,2,,,74,62
264840,note_on,144,0,4,,,,,,,,,4,,,57,62
264876,note_off,156,0,1,,,,,,,,,1,,,78,0
264876,note_off,156,0,5,,,,,,,,,5,,,50,0
264960,note_off,120,0,4,,,,,,,,,4,,,57,0
264960,note_on,0,0,4,,,,,,,,,4,,,54,62
264960,note_on,0,0,2,,,,,,,,,2,,,69,62
264960,note_off,120,0,2,,,,,,,,,2,,,74,0
265080,note_on,0,0,4,,,,,,,,,4,,,57,62
265080,note_off,120,0,2,,,,,,,,,2,,,69,0
265080,note_on,0,0,2,,,,,,,,,2,,,78,62
265080,note_off,120,0,4,,,,,,,,,4,,,54,0
265176,note_off,96,0,2,,,,,,,,,2,,,78,0
265176,note_off,96,0,4,,,,,,,,,4,,,57,0
265200,note_on,324,0,1,,,,,,,,,1,,,76,64
265200,note_on,324,0,5,,,,,,,,,5,,,45,64
265320,note_on,144,0,2,,,,,,,,,2,,,69,64
265356,note_off,156,0,1,,,,,,,,,1,,,76,0
265440,note_off,120,0,2,,,,,,,,,2,,,69,0
265440,note_on,84,0,1,,,,,,,,,1,,,73,64
265560,note_off,360,0,5,,,,,,,,,5,,,45,0
265560,note_on,120,0,2,,,,,,,,,2,,,69,65
265596,note_off,156,0,1,,,,,,,,,1,,,73,0
265680,note_off,120,0,2,,,,,,,,,2,,,69,0
265680,note_on,0,0,2,,,,,,,,,2,,,71,66
265680,note_on,84,0,1,,,,,,,,,1,,,74,66
265800,note_on,0,0,2,,,,,,,,,2,,,69,67
265800,note_off,120,0,2,,,,,,,,,2,,,71,0
265872,note_off,192,0,1,,,,,,,,,1,,,74,0
265920,note_on,0,0,2,,,,,,,,,2,,,73,67
265920,note_off,120,0,2,,,,,,,,,2,,,69,0
265920,note_on,48,0,1,,,,,,,,,1,,,76,67
266040,note_off,120,0,2,,,,,,,,,2,,,73,0
266040,note_on,0,0,2,,,,,,,,,2,,,69,68
266076,note_off,156,0,1,,,,,,,,,1,,,76,0
266160,note_off,120,0,2,,,,,,,,,2,,,69,0
266160,note_on,0,0,2,,,,,,,,,2,,,74,69
266160,note_on,84,0,1,,,,,,,,,1,,,78,69
266280,note_on,0,0,2,,,,,,,,,2,,,69,70
266280,note_off,120,0,2,,,,,,,,,2,,,74,0
266316,note_off,156,0,1,,,,,,,,,1,,,78,0
266400,note_on,84,0,1,,,,,,,,,1,,,79,70
266400,note_on,0,0,2,,,,,,,,,2,,,76,70
266400,note_off,120,0,2,,,,,,,,,2,,,69,0
266520,set_tempo,5640,1,0,,,,,,495867,,,,,,,
266520,note_on,0,0,2,,,,,,,,,2,,,69,71
266520,note_off,120,0,2,,,,,,,,,2,,,76,0
266556,note_off,156,0,1,,,,,,,,,1,,,79,0
266616,note_off,96,0,2,,,,,,,,,2,,,69,0
266640,marker,0,1,0,,,,,,,,,,,,,
266640,set_tempo,120,1,0,,,,,,240000,,,,,,,
266700,set_tempo,60,1,0,,,,,,480000,,,,,,,
266700,control_change,1524,0,4,,,,,,,64,0,4,,,,
266700,control_change,144,0,1,,,,,,,64,0,1,,,,
266700,control_change,84,0,2,,,,,,,64,0,2,,,,
266700,note_on,0,0,2,,,,,,,,,2,,,69,77
266700,control_change,11580,0,3,,,,,,,64,0,3,,,,
266700,control_change,1140,0,5,,,,,,,64,0,5,,,,
266760,note_off,60,0,2,,,,,,,,,2,,,69,0
266760,note_on,0,0,2,,,,,,,,,2,,,74,79
266820,note_off,60,0,2,,,,,,,,,2,,,74,0
266820,note_on,0,0,2,,,,,,,,,2,,,78,81
266880,note_on,180,0,1,,,,,,,,,1,,,81,83
266880,note_off,60,0,2,,,,,,,,,2,,,78,0
267000,note_on,300,0,5,,,,,,,,,5,,,50,83
267120,note_off,120,0,5,,,,,,,,,5,,,50,0
267120,note_on,0,0,5,,,,,,,,,5,,,54,83
267240,note_off,120,0,5,,,,,,,,,5,,,54,0
267240,note_on,0,0,5,,,,,,,,,5,,,57,83
267360,note_off,120,0,5,,,,,,,,,5,,,57,0
267360,note_on,0,0,5,,,,,,,,,5,,,62,83
267456,note_off,576,0,1,,,,,,,,,1,,,81,0
267480,note_on,24,0,1,,,,,,,,,1,,,69,81
267600,note_on,0,0,1,,,,,,,,,1,,,74,80
267600,note_off,120,0,1,,,,,,,,,1,,,69,0
267720,note_on,0,0,1,,,,,,,,,1,,,78,80
267720,note_off,120,0,1,,,,,,,,,1,,,74,0
267840,note_on,0,0,1,,,,,,,,,1,,,81,79
267840,note_off,120,0,1,,,,,,,,,1,,,78,0
267840,note_off,480,0,5,,,,,,,,,5,,,62,0
267918,note_off,78,0,1,,,,,,,,,1,,,81,0
267960,note_on,42,0,1,,,,,,,,,1,,,78,79
268038,note_off,78,0,1,,,,,,,,,1,,,78,0
268080,note_on,42,0,1,,,,,,,,,1,,,86,78
268158,note_off,78,0,1,,,,,,,,,1,,,86,0
268200,note_on,42,0,1,,,,,,,,,1,,,86,78
268278,note_off,78,0,1,,,,,,,,,1,,,86,0
268320,note_on,42,0,1,,,,,,,,,1,,,78,82
268440,note_on,600,0,5,,,,,,,,,5,,,38,82
268560,note_off,120,0,5,,,,,,,,,5,,,38,0
268560,note_on,0,0,5,,,,,,,,,5,,,42,82
268680,note_on,0,0,5,,,,,,,,,5,,,45,82
268680,note_off,120,0,5,,,,,,,,,5,,,42,0
268800,note_on,0,0,5,,,,,,,,,5,,,50,82
268800,note_off,120,0,5,,,,,,,,,5,,,45,0
268896,note_off,576,0,1,,,,,,,,,1,,,78,0
268920,note_on,24,0,1,,,,,,,,,1,,,66,79
269040,note_off,120,0,1,,,,,,,,,1,,,66,0
269040,note_on,0,0,1,,,,,,,,,1,,,69,78
269160,note_on,0,0,1,,,,,,,,,1,,,74,78
269160,note_off,120,0,1,,,,,,,,,1,,,69,0
269280,note_off,120,0,1,,,,,,,,,1,,,74,0
269280,note_on,0,0,1,,,,,,,,,1,,,78,77
269280,note_off,480,0,5,,,,,,,,,5,,,50,0
269358,note_off,78,0,1,,,,,,,,,1,,,78,0
269400,note_on,42,0,1,,,,,,,,,1,,,74,76
269478,note_off,78,0,1,,,,,,,,,1,,,74,0
269520,note_on,42,0,1,,,,,,,,,1,,,81,76
269598,note_off,78,0,1,,,,,,,,,1,,,81,0
269640,note_on,42,0,1,,,,,,,,,1,,,81,81
269718,note_off,78,0,1,,,,,,,,,1,,,81,0
269760,note_on,480,0,5,,,,,,,,,5,,,59,81
269880,note_on,162,0,1,,,,,,,,,1,,,66,80
269952,note_off,192,0,5,,,,,,,,,5,,,59,0
269958,note_off,78,0,1,,,,,,,,,1,,,66,0
270000,note_on,42,0,1,,,,,,,,,1,,,71,80
270120,note_off,120,0,1,,,,,,,,,1,,,71,0
270120,note_on,0,0,1,,,,,,,,,1,,,74,80
270198,note_off,78,0,1,,,,,,,,,1,,,74,0
270240,note_on,288,0,5,,,,,,,,,5,,,55,80
270360,note_on,162,0,1,,,,,,,,,1,,,67,80
270432,note_off,192,0,5,,,,,,,,,5,,,55,0
270438,note_off,78,0,1,,,,,,,,,1,,,67,0
270480,note_on,42,0,1,,,,,,,,,1,,,71,80
270600,note_on,0,0,1,,,,,,,,,1,,,76,80
270600,note_off,120,0,1,,,,,,,,,1,,,71,0
270678,note_off,78,0,1,,,,,,,,,1,,,76,0
270720,note_on,288,0,5,,,,,,,,,5,,,57,79
270840,note_on,162,0,1,,,,,,,,,1,,,64,79
270912,note_off,192,0,5,,,,,,,,,5,,,57,0
270918,note_off,78,0,1,,,,,,,,,1,,,64,0
270960,note_on,42,0,1,,,,,,,,,1,,,67,79
271080,note_on,0,0,1,,,,,,,,,1,,,73,79
271080,note_off,120,0,1,,,,,,,,,1,,,67,0
271158,note_off,78,0,1,,,,,,,,,1,,,73,0
271200,note_on,42,0,1,,,,,,,,,1,,,74,79
271200,note_on,288,0,5,,,,,,,,,5,,,50,79
271296,note_off,96,0,1,,,,,,,,,1,,,74,0
271320,note_on,24,0,1,,,,,,,,,1,,,62,79
271440,note_off,120,0,1,,,,,,,,,1,,,62,0
271440,note_on,0,0,1,,,,,,,,,1,,,64,77
271560,note_off,360,0,5,,,,,,,,,5,,,50,0
271560,note_on,0,0,1,,,,,,,,,1,,,66,77
271560,note_off,120,0,1,,,,,,,,,1,,,64,0
271680,note_on,0,0,1,,,,,,,,,1,,,67,76
271680,note_off,120,0,1,,,,,,,,,1,,,66,0
271800,note_off,120,0,1,,,,,,,,,1,,,67,0
271800,note_on,0,0,1,,,,,,,,,1,,,69,76
271920,note_on,0,0,1,,,,,,,,,1,,,71,76
271920,note_off,120,0,1,,,,,,,,,1,,,69,0
272040,note_off,120,0,1,,,,,,,,,1,,,71,0
272040,note_on,0,0,1,,,,,,,,,1,,,73,75
272160,note_off,120,0,1,,,,,,,,,1,,,73,0
272160,note_on,0,0,1,,,,,,,,,1,,,74,75
272280,note_off,120,0,1,,,,,,,,,1,,,74,0
272280,note_on,0,0,1,,,,,,,,,1,,,76,74
272400,note_off,120,0,1,,,,,,,,,1,,,76,0
272400,note_on,0,0,1,,,,,,,,,1,,,78,74
272520,note_off,120,0,1,,,,,,,,,1,,,78,0
272520,note_on,0,0,1,,,,,,,,,1,,,79,74
272580,set_tempo,5880,1,0,,,,,,495867,,,,,,,
272616,note_off,96,0,1,,,,,,,,,1,,,79,0
272640,set_tempo,60,1,0,,,,,,491803,,,,,,,
272640,note_on,24,0,1,,,,,,,,,1,,,81,78
272760,note_on,1200,0,5,,,,,,,,,5,,,50,77
272880,note_on,0,0,5,,,,,,,,,5,,,54,77
272880,note_off,120,0,5,,,,,,,,,5,,,50,0
273000,note_on,0,0,5,,,,,,,,,5,,,57,77
273000,note_off,120,0,5,,,,,,,,,5,,,54,0
273120,note_off,120,0,5,,,,,,,,,5,,,57,0
273120,note_on,0,0,5,,,,,,,,,5,,,62,77
273216,note_off,576,0,1,,,,,,,,,1,,,81,0
273240,note_on,24,0,1,,,,,,,,,1,,,69,76
273360,note_off,120,0,1,,,,,,,,,1,,,69,0
273360,note_on,0,0,1,,,,,,,,,1,,,74,75
273480,note_off,120,0,1,,,,,,,,,1,,,74,0
273480,note_on,0,0,1,,,,,,,,,1,,,78,75
273600,note_on,0,0,1,,,,,,,,,1,,,81,74
273600,note_off,120,0,1,,,,,,,,,1,,,78,0
273600,note_off,480,0,5,,,,,,,,,5,,,62,0
273678,note_off,78,0,1,,,,,,,,,1,,,81,0
273720,note_on,42,0,1,,,,,,,,,1,,,78,73
273798,note_off,78,0,1,,,,,,,,,1,,,78,0
273840,note_on,42,0,1,,,,,,,,,1,,,86,73
273918,note_off,78,0,1,,,,,,,,,1,,,86,0
273960,note_on,42,0,1,,,,,,,,,1,,,86,72
274038,note_off,78,0,1,,,,,,,,,1,,,86,0
274080,note_on,42,0,1,,,,,,,,,1,,,78,76
274200,note_on,600,0,5,,,,,,,,,5,,,38,76
274320,note_off,120,0,5,,,,,,,,,5,,,38,0
274320,note_on,0,0,5,,,,,,,,,5,,,42,76
274440,note_off,120,0,5,,,,,,,,,5,,,42,0
274440,note_on,0,0,5,,,,,,,,,5,,,45,76
274560,note_off,120,0,5,,,,,,,,,5,,,45,0
274560,note_on,0,0,5,,,,,,,,,5,,,50,75
274656,note_off,576,0,1,,,,,,,,,1,,,78,0
274680,note_on,24,0,1,,,,,,,,,1,,,66,74
274800,note_off,120,0,1,,,,,,,,,1,,,66,0
274800,note_on,0,0,1,,,,,,,,,1,,,69,73
274920,note_off,120,0,1,,,,,,,,,1,,,69,0
274920,note_on,0,0,1,,,,,,,,,1,,,74,73
275040,note_off,480,0,5,,,,,,,,,5,,,50,0
275040,note_off,120,0,1,,,,,,,,,1,,,74,0
275040,note_on,0,0,1,,,,,,,,,1,,,78,72
275118,note_off,78,0,1,,,,,,,,,1,,,78,0
275160,note_on,42,0,1,,,,,,,,,1,,,74,71
275238,note_off,78,0,1,,,,,,,,,1,,,74,0
275280,note_on,42,0,1,,,,,,,,,1,,,81,71
275358,note_off,78,0,1,,,,,,,,,1,,,81,0
275400,note_on,42,0,1,,,,,,,,,1,,,81,70
275478,note_off,78,0,1,,,,,,,,,1,,,81,0
275520,note_on,42,0,1,,,,,,,,,1,,,74,74
275640,note_on,600,0,5,,,,,,,,,5,,,47,74
275712,note_off,192,0,1,,,,,,,,,1,,,74,0
275718,note_off,78,0,5,,,,,,,,,5,,,47,0
275760,note_on,42,0,5,,,,,,,,,5,,,50,74
275880,note_off,120,0,5,,,,,,,,,5,,,50,0
275880,note_on,0,0,5,,,,,,,,,5,,,59,74
275958,note_off,78,0,5,,,,,,,,,5,,,59,0
276000,note_on,288,0,1,,,,,,,,,1,,,76,74
276000,note_on,9120,0,2,,,,,,,,,2,,,67,74
276120,note_on,162,0,5,,,,,,,,,5,,,43,74
276192,note_off,192,0,2,,,,,,,,,2,,,67,0
276192,note_off,192,0,1,,,,,,,,,1,,,76,0
276198,note_off,78,0,5,,,,,,,,,5,,,43,0
276240,note_on,42,0,5,,,,,,,,,5,,,47,74
276360,note_on,0,0,5,,,,,,,,,5,,,55,73
276360,note_off,120,0,5,,,,,,,,,5,,,47,0
276438,note_off,78,0,5,,,,,,,,,5,,,55,0
276480,note_on,288,0,1,,,,,,,,,1,,,73,73
276480,note_on,288,0,2,,,,,,,,,2,,,64,73
276600,note_on,162,0,5,,,,,,,,,5,,,45,73
276672,note_off,192,0,1,,,,,,,,,1,,,73,0
276672,note_off,192,0,2,,,,,,,,,2,,,64,0
276678,note_off,78,0,5,,,,,,,,,5,,,45,0
276720,note_on,42,0,5,,,,,,,,,5,,,49,73
276840,note_off,120,0,5,,,,,,,,,5,,,49,0
276840,note_on,0,0,5,,,,,,,,,5,,,57,73
276918,note_off,78,0,5,,,,,,,,,5,,,57,0
276960,note_on,288,0,2,,,,,,,,,2,,,66,73
276960,note_on,288,0,1,,,,,,,,,1,,,74,73
277080,note_on,162,0,5,,,,,,,,,5,,,50,73
277200,note_off,120,0,5,,,,,,,,,5,,,50,0
277200,note_on,0,0,5,,,,,,,,,5,,,54,72
277320,note_off,360,0,1,,,,,,,,,1,,,74,0
277320,note_off,360,0,2,,,,,,,,,2,,,66,0
277320,note_off,120,0,5,,,,,,,,,5,,,54,0
277320,note_on,0,0,5,,,,,,,,,5,,,50,71
277440,note_off,120,0,5,,,,,,,,,5,,,50,0
277440,note_on,0,0,5,,,,,,,,,5,,,45,69
277560,note_off,120,0,5,,,,,,,,,5,,,45,0
277560,note_on,0,0,5,,,,,,,,,5,,,50,68
277680,note_off,120,0,5,,,,,,,,,5,,,50,0
277680,note_on,0,0,5,,,,,,,,,5,,,42,67
277800,note_on,0,0,5,,,,,,,,,5,,,45,66
277800,note_off,120,0,5,,,,,,,,,5,,,42,0
277860,set_tempo,5220,1,0,,,,,,495867,,,,,,,
277920,set_tempo,60,1,0,,,,,,500000,,,,,,,
277920,note_on,0,0,5,,,,,,,,,5,,,38,65
277920,note_off,120,0,5,,,,,,,,,5,,,45,0
278167,note_off,247,0,5,,,,,,,,,5,,,38,0
278400,set_tempo,480,1,0,,,,,,283018,,,,,,,
279360,control_change,1193,0,5,,,,,,,64,0,5,,,,
279360,note_on,0,0,5,,,,,,,,,5,,,62,55
279360,control_change,12660,0,3,,,,,,,64,0,3,,,,
279360,control_change,12660,0,4,,,,,,,64,0,4,,,,
279360,marker,0,1,0,,,,,,,,,,,,,
279360,set_tempo,960,1,0,,,,,,487804,,,,,,,
279360,note_on,0,0,1,,,,,,,,,1,,,81,55
279360,control_change,2040,0,2,,,,,,,64,0,2,,,,
279360,note_on,0,0,2,,,,,,,,,2,,,78,55
279360,control_change,2040,0,1,,,,,,,64,0,1,,,,
279520,note_off,160,0,1,,,,,,,,,1,,,81,0
279520,note_on,0,0,1,,,,,,,,,1,,,79,54
279520,note_off,160,0,2,,,,,,,,,2,,,78,0
279520,note_on,0,0,2,,,,,,,,,2,,,76,54
279680,note_off,160,0,1,,,,,,,,,1,,,79,0
279680,note_on,0,0,1,,,,,,,,,1,,,78,53
279680,note_off,160,0,2,,,,,,,,,2,,,76,0
279680,note_on,0,0,2,,,,,,,,,2,,,74,53
279720,note_off,360,0,5,,,,,,,,,5,,,62,0
279784,note_off,104,0,1,,,,,,,,,1,,,78,0
279784,note_off,104,0,2,,,,,,,,,2,,,74,0
279840,note_on,56,0,1,,,,,,,,,1,,,78,52
279840,note_on,56,0,2,,,,,,,,,2,,,74,52
279944,note_off,104,0,2,,,,,,,,,2,,,74,0
279944,note_off,104,0,1,,,,,,,,,1,,,78,0
280000,note_on,56,0,2,,,,,,,,,2,,,74,51
280000,note_on,56,0,1,,,,,,,,,1,,,78,51
280104,note_off,104,0,2,,,,,,,,,2,,,74,0
280104,note_off,104,0,1,,,,,,,,,1,,,78,0
280160,note_on,56,0,2,,,,,,,,,2,,,74,50
280160,note_on,56,0,1,,,,,,,,,1,,,78,50
280264,note_off,104,0,2,,,,,,,,,2,,,74,0
280264,note_off,104,0,1,,,,,,,,,1,,,78,0
280320,note_on,56,0,1,,,,,,,,,1,,,78,49
280320,note_on,56,0,2,,,,,,,,,2,,,74,49
280424,note_off,104,0,1,,,,,,,,,1,,,78,0
280424,note_off,104,0,2,,,,,,,,,2,,,74,0
280480,note_on,56,0,1,,,,,,,,,1,,,78,48
280480,note_on,56,0,2,,,,,,,,,2,,,74,48
280584,note_off,104,0,2,,,,,,,,,2,,,74,0
280584,note_off,104,0,1,,,,,,,,,1,,,78,0
280640,note_on,56,0,2,,,,,,,,,2,,,74,49
280640,note_on,56,0,1,,,,,,,,,1,,,78,49
280744,note_off,104,0,2,,,,,,,,,2,,,74,0
280744,note_off,104,0,1,,,,,,,,,1,,,78,0
280800,note_on,56,0,2,,,,,,,,,2,,,69,53
280800,note_on,1080,0,5,,,,,,,,,5,,,50,53
280800,note_on,56,0,1,,,,,,,,,1,,,78,53
280960,note_on,0,0,1,,,,,,,,,1,,,76,52
280960,note_off,160,0,2,,,,,,,,,2,,,69,0
280960,note_on,0,0,2,,,,,,,,,2,,,67,52
280960,note_off,160,0,1,,,,,,,,,1,,,78,0
281120,note_on,0,0,1,,,,,,,,,1,,,74,51
281120,note_off,160,0,1,,,,,,,,,1,,,76,0
281120,note_off,160,0,2,,,,,,,,,2,,,67,0
281120,note_on,0,0,2,,,,,,,,,2,,,66,51
281160,note_off,360,0,5,,,,,,,,,5,,,50,0
281224,note_off,104,0,2,,,,,,,,,2,,,66,0
281224,note_off,104,0,1,,,,,,,,,1,,,74,0
281280,note_on,56,0,1,,,,,,,,,1,,,74,50
281280,note_on,56,0,2,,,,,,,,,2,,,66,50
281384,note_off,104,0,2,,,,,,,,,2,,,66,0
281384,note_off,104,0,1,,,,,,,,,1,,,74,0
281440,note_on,56,0,1,,,,,,,,,1,,,74,49
281440,note_on,56,0,2,,,,,,,,,2,,,66,49
281544,note_off,104,0,1,,,,,,,,,1,,,74,0
281544,note_off,104,0,2,,,,,,,,,2,,,66,0
281600,note_on,56,0,1,,,,,,,,,1,,,74,47
281600,note_on,56,0,2,,,,,,,,,2,,,66,47
281704,note_off,104,0,2,,,,,,,,,2,,,66,0
281704,note_off,104,0,1,,,,,,,,,1,,,74,0
281760,note_on,56,0,2,,,,,,,,,2,,,66,46
281760,note_on,56,0,1,,,,,,,,,1,,,74,46
281864,note_off,104,0,2,,,,,,,,,2,,,66,0
281864,note_off,104,0,1,,,,,,,,,1,,,74,0
281920,note_on,56,0,1,,,,,,,,,1,,,74,45
281920,note_on,56,0,2,,,,,,,,,2,,,66,45
282024,note_off,104,0,2,,,,,,,,,2,,,66,0
282024,note_off,104,0,1,,,,,,,,,1,,,74,0
282080,note_on,56,0,2,,,,,,,,,2,,,66,44
282080,note_on,56,0,1,,,,,,,,,1,,,74,44
282184,note_off,104,0,1,,,,,,,,,1,,,74,0
282184,note_off,104,0,2,,,,,,,,,2,,,66,0
282240,note_on,1080,0,5,,,,,,,,,5,,,62,51
282396,note_off,156,0,5,,,,,,,,,5,,,62,0
282400,note_on,216,0,2,,,,,,,,,2,,,66,50
282400,note_on,216,0,1,,,,,,,,,1,,,74,50
282560,note_on,0,0,2,,,,,,,,,2,,,69,50
282560,note_off,160,0,2,,,,,,,,,2,,,66,0
282560,note_off,160,0,1,,,,,,,,,1,,,74,0
282560,note_on,0,0,1,,,,,,,,,1,,,78,50
282664,note_off,104,0,1,,,,,,,,,1,,,78,0
282664,note_off,104,0,2,,,,,,,,,2,,,69,0
282720,note_on,324,0,5,,,,,,,,,5,,,55,50
282876,note_off,156,0,5,,,,,,,,,5,,,55,0
282880,note_on,216,0,1,,,,,,,,,1,,,76,49
282880,note_on,216,0,2,,,,,,,,,2,,,67,49
283040,note_off,160,0,2,,,,,,,,,2,,,67,0
283040,note_on,0,0,1,,,,,,,,,1,,,79,49
283040,note_on,0,0,2,,,,,,,,,2,,,71,49
283040,note_off,160,0,1,,,,,,,,,1,,,76,0
283144,note_off,104,0,1,,,,,,,,,1,,,79,0
283144,note_off,104,0,2,,,,,,,,,2,,,71,0
283200,note_on,324,0,5,,,,,,,,,5,,,57,49
283356,note_off,156,0,5,,,,,,,,,5,,,57,0
283360,note_on,216,0,2,,,,,,,,,2,,,64,49
283360,note_on,216,0,1,,,,,,,,,1,,,73,49
283520,note_on,0,0,1,,,,,,,,,1,,,76,48
283520,note_on,0,0,2,,,,,,,,,2,,,67,48
283520,note_off,160,0,1,,,,,,,,,1,,,73,0
283520,note_off,160,0,2,,,,,,,,,2,,,64,0
283624,note_off,104,0,2,,,,,,,,,2,,,67,0
283624,note_off,104,0,1,,,,,,,,,1,,,76,0
283680,note_on,56,0,1,,,,,,,,,1,,,74,48
283680,note_on,56,0,2,,,,,,,,,2,,,66,48
283680,note_on,324,0,5,,,,,,,,,5,,,50,48
283784,note_off,104,0,1,,,,,,,,,1,,,74,0
283784,note_off,104,0,2,,,,,,,,,2,,,66,0
283840,note_on,56,0,1,,,,,,,,,1,,,69,48
283968,note_off,128,0,1,,,,,,,,,1,,,69,0
284000,note_on,32,0,1,,,,,,,,,1,,,71,49
284040,note_off,360,0,5,,,,,,,,,5,,,50,0
284128,note_off,128,0,1,,,,,,,,,1,,,71,0
284160,note_on,32,0,1,,,,,,,,,1,,,73,51
284288,note_off,128,0,1,,,,,,,,,1,,,73,0
284320,note_on,32,0,1,,,,,,,,,1,,,74,52
284448,note_off,128,0,1,,,,,,,,,1,,,74,0
284480,note_on,32,0,1,,,,,,,,,1,,,76,53
284608,note_off,128,0,1,,,,,,,,,1,,,76,0
284640,note_on,32,0,1,,,,,,,,,1,,,78,54
284768,note_off,128,0,1,,,,,,,,,1,,,78,0
284800,note_on,32,0,1,,,,,,,,,1,,,79,56
284928,note_off,128,0,1,,,,,,,,,1,,,79,0
284960,note_on,32,0,1,,,,,,,,,1,,,80,57
285060,set_tempo,5700,1,0,,,,,,491803,,,,,,,
285088,note_off,128,0,1,,,,,,,,,1,,,80,0
285120,set_tempo,60,1,0,,,,,,487804,,,,,,,
285120,note_on,0,0,5,,,,,,,,,5,,,69,65
285120,note_on,32,0,1,,,,,,,,,1,,,81,65
285120,note_on,1080,0,5,,,,,,,,,5,,,66,65
285280,note_on,0,0,5,,,,,,,,,5,,,64,64
285280,note_on,0,0,5,,,,,,,,,5,,,67,64
285280,note_off,0,0,5,,,,,,,,,5,,,66,0
285280,note_off,160,0,5,,,,,,,,,5,,,69,0
285440,note_on,0,0,5,,,,,,,,,5,,,66,63
285440,note_on,0,0,5,,,,,,,,,5,,,62,63
285440,note_off,0,0,5,,,,,,,,,5,,,67,0
285440,note_off,160,0,5,,,,,,,,,5,,,64,0
285544,note_off,0,0,5,,,,,,,,,5,,,62,0
285544,note_off,104,0,5,,,,,,,,,5,,,66,0
285600,note_on,0,0,5,,,,,,,,,5,,,66,63
285600,note_on,56,0,5,,,,,,,,,5,,,62,63
285704,note_off,0,0,5,,,,,,,,,5,,,62,0
285704,note_off,104,0,5,,,,,,,,,5,,,66,0
285760,note_on,56,0,5,,,,,,,,,5,,,62,62
285760,note_on,0,0,5,,,,,,,,,5,,,66,62
285840,note_off,720,0,1,,,,,,,,,1,,,81,0
285840,note_on,0,0,1,,,,,,,,,1,,,83,61
285864,note_off,0,0,5,,,,,,,,,5,,,62,0
285864,note_off,104,0,5,,,,,,,,,5,,,66,0
285900,note_off,60,0,1,,,,,,,,,1,,,83,0
285900,note_on,0,0,1,,,,,,,,,1,,,81,60
285920,note_on,56,0,5,,,,,,,,,5,,,62,61
285920,note_on,0,0,5,,,,,,,,,5,,,66,61
285960,note_on,0,0,1,,,,,,,,,1,,,80,60
285960,note_off,60,0,1,,,,,,,,,1,,,81,0
286020,note_on,0,0,1,,,,,,,,,1,,,81,60
286020,note_off,60,0,1,,,,,,,,,1,,,80,0
286024,note_off,0,0,5,,,,,,,,,5,,,62,0
286024,note_off,104,0,5,,,,,,,,,5,,,66,0
286080,note_off,60,0,1,,,,,,,,,1,,,81,0
286080,note_on,0,0,5,,,,,,,,,5,,,66,60
286080,note_on,0,0,1,,,,,,,,,1,,,86,59
286080,note_on,56,0,5,,,,,,,,,5,,,62,60
286184,note_off,104,0,5,,,,,,,,,5,,,66,0
286184,note_off,0,0,5,,,,,,,,,5,,,62,0
286240,note_on,56,0,5,,,,,,,,,5,,,62,59
286240,note_on,0,0,5,,,,,,,,,5,,,66,59
286272,note_off,192,0,1,,,,,,,,,1,,,86,0
286344,note_off,104,0,5,,,,,,,,,5,,,66,0
286344,note_off,0,0,5,,,,,,,,,5,,,62,0
286400,note_on,56,0,5,,,,,,,,,5,,,62,58
286400,note_on,0,0,5,,,,,,,,,5,,,66,58
286504,note_off,104,0,5,,,,,,,,,5,,,66,0
286504,note_off,0,0,5,,,,,,,,,5,,,62,0
286560,note_on,56,0,5,,,,,,,,,5,,,57,63
286560,note_on,0,0,5,,,,,,,,,5,,,66,63
286560,note_on,288,0,1,,,,,,,,,1,,,78,65
286720,note_off,160,0,5,,,,,,,,,5,,,66,0
286720,note_on,0,0,5,,,,,,,,,5,,,64,63
286720,note_on,0,0,5,,,,,,,,,5,,,55,63
286720,note_off,0,0,5,,,,,,,,,5,,,57,0
286880,note_off,160,0,5,,,,,,,,,5,,,64,0
286880,note_off,0,0,5,,,,,,,,,5,,,55,0
286880,note_on,0,0,5,,,,,,,,,5,,,54,62
286880,note_on,0,0,5,,,,,,,,,5,,,62,62
286984,note_off,104,0,5,,,,,,,,,5,,,62,0
286984,note_off,0,0,5,,,,,,,,,5,,,54,0
287040,note_on,56,0,5,,,,,,,,,5,,,62,61
287040,note_on,0,0,5,,,,,,,,,5,,,54,61
287144,note_off,104,0,5,,,,,,,,,5,,,54,0
287144,note_off,0,0,5,,,,,,,,,5,,,62,0
287200,note_on,56,0,5,,,,,,,,,5,,,62,60
287200,note_on,0,0,5,,,,,,,,,5,,,54,60
287280,note_off,720,0,1,,,,,,,,,1,,,78,0
287280,note_on,0,0,1,,,,,,,,,1,,,79,59
287304,note_off,0,0,5,,,,,,,,,5,,,62,0
287304,note_off,104,0,5,,,,,,,,,5,,,54,0
287340,note_on,0,0,1,,,,,,,,,1,,,78,59
287340,note_off,60,0,1,,,,,,,,,1,,,79,0
287360,note_on,56,0,5,,,,,,,,,5,,,62,59
287360,note_on,0,0,5,,,,,,,,,5,,,54,59
287400,note_off,60,0,1,,,,,,,,,1,,,78,0
287400,note_on,0,0,1,,,,,,,,,1,,,76,58
287460,note_off,60,0,1,,,,,,,,,1,,,76,0
287460,note_on,0,0,1,,,,,,,,,1,,,78,58
287464,note_off,104,0,5,,,,,,,,,5,,,54,0
287464,note_off,0,0,5,,,,,,,,,5,,,62,0
287520,note_on,0,0,1,,,,,,,,,1,,,81,57
287520,note_off,60,0,1,,,,,,,,,1,,,78,0
287520,note_on,56,0,5,,,,,,,,,5,,,62,58
287520,note_on,0,0,5,,,,,,,,,5,,,54,58
287624,note_off,104,0,5,,,,,,,,,5,,,54,0
287624,note_off,0,0,5,,,,,,,,,5,,,62,0
287680,note_on,56,0,5,,,,,,,,,5,,,62,57
287680,note_on,0,0,5,,,,,,,,,5,,,54,57
287712,note_off,192,0,1,,,,,,,,,1,,,81,0
287784,note_off,0,0,5,,,,,,,,,5,,,62,0
287784,note_off,104,0,5,,,,,,,,,5,,,54,0
287840,note_on,56,0,5,,,,,,,,,5,,,54,56
287840,note_on,0,0,5,,,,,,,,,5,,,62,56
287944,note_off,104,0,5,,,,,,,,,5,,,62,0
287944,note_off,0,0,5,,,,,,,,,5,,,54,0
288000,note_on,56,0,5,,,,,,,,,5,,,59,60
288156,note_off,156,0,5,,,,,,,,,5,,,59,0
288160,note_on,448,0,1,,,,,,,,,1,,,74,60
288160,note_on,4376,0,2,,,,,,,,,2,,,66,60
288320,note_off,160,0,2,,,,,,,,,2,,,66,0
288320,note_on,0,0,2,,,,,,,,,2,,,69,60
288320,note_on,0,0,1,,,,,,,,,1,,,78,60
288320,note_off,160,0,1,,,,,,,,,1,,,74,0
288424,note_off,104,0,2,,,,,,,,,2,,,69,0
288424,note_off,104,0,1,,,,,,,,,1,,,78,0
288480,note_on,324,0,5,,,,,,,,,5,,,55,60
288636,note_off,156,0,5,,,,,,,,,5,,,55,0
288640,note_on,216,0,1,,,,,,,,,1,,,76,59
288640,note_on,216,0,2,,,,,,,,,2,,,67,59
288800,note_off,160,0,1,,,,,,,,,1,,,76,0
288800,note_on,0,0,1,,,,,,,,,1,,,79,59
288800,note_off,160,0,2,,,,,,,,,2,,,67,0
288800,note_on,0,0,2,,,,,,,,,2,,,71,59
288904,note_off,104,0,1,,,,,,,,,1,,,79,0
288904,note_off,104,0,2,,,,,,,,,2,,,71,0
288960,note_on,324,0,5,,,,,,,,,5,,,57,59
289116,note_off,156,0,5,,,,,,,,,5,,,57,0
289120,note_on,216,0,2,,,,,,,,,2,,,64,58
289120,note_on,216,0,1,,,,,,,,,1,,,73,58
289280,note_off,160,0,1,,,,,,,,,1,,,73,0
289280,note_on,0,0,1,,,,,,,,,1,,,76,58
289280,note_on,0,0,2,,,,,,,,,2,,,67,58
289280,note_off,160,0,2,,,,,,,,,2,,,64,0
289384,note_off,104,0,1,,,,,,,,,1,,,76,0
289384,note_off,104,0,2,,,,,,,,,2,,,67,0
289440,note_on,56,0,1,,,,,,,,,1,,,74,58
289440,note_on,56,0,2,,,,,,,,,2,,,66,58
289600,note_on,484,0,5,,,,,,,,,5,,,62,59
289760,note_on,0,0,5,,,,,,,,,5,,,57,58
289760,note_off,160,0,5,,,,,,,,,5,,,62,0
289800,note_off,360,0,2,,,,,,,,,2,,,66,0
289800,note_off,360,0,1,,,,,,,,,1,,,74,0
289920,note_on,0,0,5,,,,,,,,,5,,,54,56
289920,note_off,160,0,5,,,,,,,,,5,,,57,0
290080,note_off,160,0,5,,,,,,,,,5,,,54,0
290080,note_on,0,0,5,,,,,,,,,5,,,50,55
290240,note_on,0,0,5,,,,,,,,,5,,,45,54
290240,note_off,160,0,5,,,,,,,,,5,,,50,0
290340,set_tempo,5220,1,0,,,,,,491803,,,,,,,
290400,note_on,0,0,5,,,,,,,,,5,,,38,53
290400,note_off,160,0,5,,,,,,,,,5,,,45,0
290640,set_tempo,300,1,0,,,,,,491803,,,,,,,
290760,note_off,360,0,5,,,,,,,,,5,,,38,0
290880,set_tempo,240,1,0,,,,,,487804,,,,,,,
290880,control_change,1080,0,2,,,,,,,64,0,2,,,,
290880,marker,0,1,0,,,,,,,,,,,,,
290880,control_change,120,0,5,,,,,,,64,0,5,,,,
290880,note_on,0,0,2,,,,,,,,,2,,,78,55
290880,control_change,11520,0,3,,,,,,,64,0,3,,,,
290880,note_on,0,0,1,,,,,,,,,1,,,81,55
290880,control_change,1080,0,1,,,,,,,64,0,1,,,,
290880,control_change,11520,0,4,,,,,,,64,0,4,,,,
290880,note_on,0,0,5,,,,,,,,,5,,,62,55
291040,note_off,160,0,2,,,,,,,,,2,,,78,0
291040,note_on,0,0,1,,,,,,,,,1,,,79,54
291040,note_on,0,0,2,,,,,,,,,2,,,76,54
291040,note_off,160,0,1,,,,,,,,,1,,,81,0
291200,note_off,160,0,1,,,,,,,,,1,,,79,0
291200,note_on,0,0,1,,,,,,,,,1,,,78,53
291200,note_on,0,0,2,,,,,,,,,2,,,74,53
291200,note_off,160,0,2,,,,,,,,,2,,,76,0
291240,note_off,360,0,5,,,,,,,,,5,,,62,0
291304,note_off,104,0,2,,,,,,,,,2,,,74,0
291304,note_off,104,0,1,,,,,,,,,1,,,78,0
291360,note_on,56,0,2,,,,,,,,,2,,,74,52
291360,note_on,56,0,1,,,,,,,,,1,,,78,52
291464,note_off,104,0,2,,,,,,,,,2,,,74,0
291464,note_off,104,0,1,,,,,,,,,1,,,78,0
291520,note_on,56,0,2,,,,,,,,,2,,,74,51
291520,note_on,56,0,1,,,,,,,,,1,,,78,51
291624,note_off,104,0,2,,,,,,,,,2,,,74,0
291624,note_off,104,0,1,,,,,,,,,1,,,78,0
291680,note_on,56,0,1,,,,,,,,,1,,,78,50
291680,note_on,56,0,2,,,,,,,,,2,,,74,50
291784,note_off,104,0,1,,,,,,,,,1,,,78,0
291784,note_off,104,0,2,,,,,,,,,2,,,74,0
291840,note_on,56,0,1,,,,,,,,,1,,,78,49
291840,note_on,56,0,2,,,,,,,,,2,,,74,49
291944,note_off,104,0,1,,,,,,,,,1,,,78,0
291944,note_off,104,0,2,,,,,,,,,2,,,74,0
292000,note_on,56,0,1,,,,,,,,,1,,,78,48
292000,note_on,56,0,2,,,,,,,,,2,,,74,48
292104,note_off,104,0,2,,,,,,,,,2,,,74,0
292104,note_off,104,0,1,,,,,,,,,1,,,78,0
292160,note_on,56,0,2,,,,,,,,,2,,,74,49
292160,note_on,56,0,1,,,,,,,,,1,,,78,49
292264,note_off,104,0,1,,,,,,,,,1,,,78,0
292264,note_off,104,0,2,,,,,,,,,2,,,74,0
292320,note_on,56,0,2,,,,,,,,,2,,,69,53
292320,note_on,1080,0,5,,,,,,,,,5,,,50,53
292320,note_on,56,0,1,,,,,,,,,1,,,78,53
292480,note_off,160,0,2,,,,,,,,,2,,,69,0
292480,note_on,0,0,2,,,,,,,,,2,,,67,52
292480,note_on,0,0,1,,,,,,,,,1,,,76,52
292480,note_off,160,0,1,,,,,,,,,1,,,78,0
292640,note_on,0,0,1,,,,,,,,,1,,,74,51
292640,note_off,160,0,2,,,,,,,,,2,,,67,0
292640,note_on,0,0,2,,,,,,,,,2,,,66,51
292640,note_off,160,0,1,,,,,,,,,1,,,76,0
292680,note_off,360,0,5,,,,,,,,,5,,,50,0
292744,note_off,104,0,1,,,,,,,,,1,,,74,0
292744,note_off,104,0,2,,,,,,,,,2,,,66,0
292800,note_on,56,0,1,,,,,,,,,1,,,74,50
292800,note_on,56,0,2,,,,,,,,,2,,,66,50
292904,note_off,104,0,1,,,,,,,,,1,,,74,0
292904,note_off,104,0,2,,,,,,,,,2,,,66,0
292960,note_on,56,0,1,,,,,,,,,1,,,74,49
292960,note_on,56,0,2,,,,,,,,,2,,,66,49
293064,note_off,104,0,1,,,,,,,,,1,,,74,0
293064,note_off,104,0,2,,,,,,,,,2,,,66,0
293120,note_on,56,0,2,,,,,,,,,2,,,66,47
293120,note_on,56,0,1,,,,,,,,,1,,,74,47
293224,note_off,104,0,1,,,,,,,,,1,,,74,0
293224,note_off,104,0,2,,,,,,,,,2,,,66,0
293280,note_on,56,0,1,,,,,,,,,1,,,74,46
293280,note_on,56,0,2,,,,,,,,,2,,,66,46
293384,note_off,104,0,2,,,,,,,,,2,,,66,0
293384,note_off,104,0,1,,,,,,,,,1,,,74,0
293440,note_on,56,0,1,,,,,,,,,1,,,74,45
293440,note_on,56,0,2,,,,,,,,,2,,,66,45
293544,note_off,104,0,1,,,,,,,,,1,,,74,0
293544,note_off,104,0,2,,,,,,,,,2,,,66,0
293600,note_on,56,0,1,,,,,,,,,1,,,74,44
293600,note_on,56,0,2,,,,,,,,,2,,,66,44
293704,note_off,104,0,2,,,,,,,,,2,,,66,0
293704,note_off,104,0,1,,,,,,,,,1,,,74,0
293760,note_on,1080,0,5,,,,,,,,,5,,,62,51
293916,note_off,156,0,5,,,,,,,,,5,,,62,0
293920,note_on,216,0,1,,,,,,,,,1,,,74,50
293920,note_on,216,0,2,,,,,,,,,2,,,66,50
294080,note_on,0,0,1,,,,,,,,,1,,,78,50
294080,note_off,160,0,1,,,,,,,,,1,,,74,0
294080,note_off,160,0,2,,,,,,,,,2,,,66,0
294080,note_on,0,0,2,,,,,,,,,2,,,69,50
294184,note_off,104,0,2,,,,,,,,,2,,,69,0
294184,note_off,104,0,1,,,,,,,,,1,,,78,0
294240,note_on,324,0,5,,,,,,,,,5,,,55,50
294396,note_off,156,0,5,,,,,,,,,5,,,55,0
294400,note_on,216,0,2,,,,,,,,,2,,,67,49
294400,note_on,216,0,1,,,,,,,,,1,,,76,49
294560,note_off,160,0,2,,,,,,,,,2,,,67,0
294560,note_on,0,0,1,,,,,,,,,1,,,79,49
294560,note_off,160,0,1,,,,,,,,,1,,,76,0
294560,note_on,0,0,2,,,,,,,,,2,,,71,49
294664,note_off,104,0,2,,,,,,,,,2,,,71,0
294664,note_off,104,0,1,,,,,,,,,1,,,79,0
294720,note_on,324,0,5,,,,,,,,,5,,,57,49
294876,note_off,156,0,5,,,,,,,,,5,,,57,0
294880,note_on,216,0,2,,,,,,,,,2,,,64,49
294880,note_on,216,0,1,,,,,,,,,1,,,73,49
295040,note_off,160,0,1,,,,,,,,,1,,,73,0
295040,note_on,0,0,2,,,,,,,,,2,,,67,48
295040,note_on,0,0,1,,,,,,,,,1,,,76,48
295040,note_off,160,0,2,,,,,,,,,2,,,64,0
295144,note_off,104,0,2,,,,,,,,,2,,,67,0
295144,note_off,104,0,1,,,,,,,,,1,,,76,0
295200,note_on,56,0,2,,,,,,,,,2,,,66,48
295200,note_on,56,0,1,,,,,,,,,1,,,74,48
295200,note_on,324,0,5,,,,,,,,,5,,,50,48
295304,note_off,104,0,2,,,,,,,,,2,,,66,0
295304,note_off,104,0,1,,,,,,,,,1,,,74,0
295360,note_on,56,0,1,,,,,,,,,1,,,69,48
295488,note_off,128,0,1,,,,,,,,,1,,,69,0
295520,note_on,32,0,1,,,,,,,,,1,,,71,49
295560,note_off,360,0,5,,,,,,,,,5,,,50,0
295648,note_off,128,0,1,,,,,,,,,1,,,71,0
295680,note_on,32,0,1,,,,,,,,,1,,,73,51
295808,note_off,128,0,1,,,,,,,,,1,,,73,0
295840,note_on,32,0,1,,,,,,,,,1,,,74,52
295968,note_off,128,0,1,,,,,,,,,1,,,74,0
296000,note_on,32,0,1,,,,,,,,,1,,,76,53
296128,note_off,128,0,1,,,,,,,,,1,,,76,0
296160,note_on,32,0,1,,,,,,,,,1,,,78,54
296288,note_off,128,0,1,,,,,,,,,1,,,78,0
296320,note_on,32,0,1,,,,,,,,,1,,,79,56
296448,note_off,128,0,1,,,,,,,,,1,,,79,0
296480,note_on,32,0,1,,,,,,,,,1,,,80,57
296580,set_tempo,5700,1,0,,,,,,491803,,,,,,,
296608,note_off,128,0,1,,,,,,,,,1,,,80,0
296640,note_on,32,0,1,,,,,,,,,1,,,81,65
296640,set_tempo,60,1,0,,,,,,487804,,,,,,,
296640,note_on,0,0,5,,,,,,,,,5,,,66,65
296640,note_on,1080,0,5,,,,,,,,,5,,,69,65
296800,note_on,0,0,5,,,,,,,,,5,,,64,64
296800,note_on,0,0,5,,,,,,,,,5,,,67,64
296800,note_off,0,0,5,,,,,,,,,5,,,69,0
296800,note_off,160,0,5,,,,,,,,,5,,,66,0
296960,note_on,0,0,5,,,,,,,,,5,,,66,63
296960,note_off,0,0,5,,,,,,,,,5,,,64,0
296960,note_off,160,0,5,,,,,,,,,5,,,67,0
296960,note_on,0,0,5,,,,,,,,,5,,,62,63
297064,note_off,104,0,5,,,,,,,,,5,,,62,0
297064,note_off,0,0,5,,,,,,,,,5,,,66,0
297120,note_on,56,0,5,,,,,,,,,5,,,66,63
297120,note_on,0,0,5,,,,,,,,,5,,,62,63
297224,note_off,104,0,5,,,,,,,,,5,,,62,0
297224,note_off,0,0,5,,,,,,,,,5,,,66,0
297280,note_on,0,0,5,,,,,,,,,5,,,62,62
297280,note_on,56,0,5,,,,,,,,,5,,,66,62
297360,note_off,720,0,1,,,,,,,,,1,,,81,0
297360,note_on,0,0,1,,,,,,,,,1,,,83,61
297384,note_off,104,0,5,,,,,,,,,5,,,62,0
297384,note_off,0,0,5,,,,,,,,,5,,,66,0
297420,note_off,60,0,1,,,,,,,,,1,,,83,0
297420,note_on,0,0,1,,,,,,,,,1,,,81,60
297440,note_on,56,0,5,,,,,,,,,5,,,66,61
297440,note_on,0,0,5,,,,,,,,,5,,,62,61
297480,note_on,0,0,1,,,,,,,,,1,,,80,60
297480,note_off,60,0,1,,,,,,,,,1,,,81,0
297540,note_off,60,0,1,,,,,,,,,1,,,80,0
297540,note_on,0,0,1,,,,,,,,,1,,,81,60
297544,note_off,104,0,5,,,,,,,,,5,,,62,0
297544,note_off,0,0,5,,,,,,,,,5,,,66,0
297600,note_off,60,0,1,,,,,,,,,1,,,81,0
297600,note_on,56,0,5,,,,,,,,,5,,,66,60
297600,note_on,0,0,5,,,,,,,,,5,,,62,60
297600,note_on,0,0,1,,,,,,,,,1,,,86,59
297704,note_off,104,0,5,,,,,,,,,5,,,62,0
297704,note_off,0,0,5,,,,,,,,,5,,,66,0
297760,note_on,56,0,5,,,,,,,,,5,,,66,59
297760,note_on,0,0,5,,,,,,,,,5,,,62,59
297792,note_off,192,0,1,,,,,,,,,1,,,86,0
297864,note_off,0,0,5,,,,,,,,,5,,,66,0
297864,note_off,104,0,5,,,,,,,,,5,,,62,0
297920,note_on,0,0,5,,,,,,,,,5,,,62,58
297920,note_on,56,0,5,,,,,,,,,5,,,66,58
298024,note_off,104,0,5,,,,,,,,,5,,,62,0
298024,note_off,0,0,5,,,,,,,,,5,,,66,0
298080,note_on,56,0,5,,,,,,,,,5,,,66,63
298080,note_on,0,0,5,,,,,,,,,5,,,57,63
298080,note_on,288,0,1,,,,,,,,,1,,,78,65
298240,note_off,160,0,5,,,,,,,,,5,,,57,0
298240,note_off,0,0,5,,,,,,,,,5,,,66,0
298240,note_on,0,0,5,,,,,,,,,5,,,64,63
298240,note_on,0,0,5,,,,,,,,,5,,,55,63
298400,note_off,160,0,5,,,,,,,,,5,,,55,0
298400,note_off,0,0,5,,,,,,,,,5,,,64,0
298400,note_on,0,0,5,,,,,,,,,5,,,62,62
298400,note_on,0,0,5,,,,,,,,,5,,,54,62
298504,note_off,104,0,5,,,,,,,,,5,,,54,0
298504,note_off,0,0,5,,,,,,,,,5,,,62,0
298560,note_on,56,0,5,,,,,,,,,5,,,54,61
298560,note_on,0,0,5,,,,,,,,,5,,,62,61
298664,note_off,104,0,5,,,,,,,,,5,,,62,0
298664,note_off,0,0,5,,,,,,,,,5,,,54,0
298720,note_on,56,0,5,,,,,,,,,5,,,54,60
298720,note_on,0,0,5,,,,,,,,,5,,,62,60
298800,note_off,720,0,1,,,,,,,,,1,,,78,0
298800,note_on,0,0,1,,,,,,,,,1,,,79,59
298824,note_off,104,0,5,,,,,,,,,5,,,62,0
298824,note_off,0,0,5,,,,,,,,,5,,,54,0
298860,note_off,60,0,1,,,,,,,,,1,,,79,0
298860,note_on,0,0,1,,,,,,,,,1,,,78,59
298880,note_on,56,0,5,,,,,,,,,5,,,54,59
298880,note_on,0,0,5,,,,,,,,,5,,,62,59
298920,note_off,60,0,1,,,,,,,,,1,,,78,0
298920,note_on,0,0,1,,,,,,,,,1,,,76,58
298980,note_on,0,0,1,,,,,,,,,1,,,78,58
298980,note_off,60,0,1,,,,,,,,,1,,,76,0
298984,note_off,104,0,5,,,,,,,,,5,,,62,0
298984,note_off,0,0,5,,,,,,,,,5,,,54,0
299040,note_on,0,0,1,,,,,,,,,1,,,81,57
299040,note_on,56,0,5,,,,,,,,,5,,,54,58
299040,note_on,0,0,5,,,,,,,,,5,,,62,58
299040,note_off,60,0,1,,,,,,,,,1,,,78,0
299144,note_off,0,0,5,,,,,,,,,5,,,54,0
299144,note_off,104,0,5,,,,,,,,,5,,,62,0
299200,note_on,56,0,5,,,,,,,,,5,,,54,57
299200,note_on,0,0,5,,,,,,,,,5,,,62,57
299232,note_off,192,0,1,,,,,,,,,1,,,81,0
299304,note_off,0,0,5,,,,,,,,,5,,,54,0
299304,note_off,104,0,5,,,,,,,,,5,,,62,0
299360,note_on,0,0,5,,,,,,,,,5,,,54,56
299360,note_on,56,0,5,,,,,,,,,5,,,62,56
299464,note_off,0,0,5,,,,,,,,,5,,,62,0
299464,note_off,104,0,5,,,,,,,,,5,,,54,0
299520,note_on,56,0,5,,,,,,,,,5,,,59,60
299676,note_off,156,0,5,,,,,,,,,5,,,59,0
299680,note_on,448,0,1,,,,,,,,,1,,,74,60
299680,note_on,4376,0,2,,,,,,,,,2,,,66,60
299840,note_off,160,0,2,,,,,,,,,2,,,66,0
299840,note_on,0,0,2,,,,,,,,,2,,,69,60
299840,note_off,160,0,1,,,,,,,,,1,,,74,0
299840,note_on,0,0,1,,,,,,,,,1,,,78,60
299944,note_off,104,0,2,,,,,,,,,2,,,69,0
299944,note_off,104,0,1,,,,,,,,,1,,,78,0
300000,note_on,324,0,5,,,,,,,,,5,,,55,60
300156,note_off,156,0,5,,,,,,,,,5,,,55,0
300160,note_on,216,0,2,,,,,,,,,2,,,67,59
300160,note_on,216,0,1,,,,,,,,,1,,,76,59
300320,note_off,160,0,2,,,,,,,,,2,,,67,0
300320,note_on,0,0,2,,,,,,,,,2,,,71,59
300320,note_on,0,0,1,,,,,,,,,1,,,79,59
300320,note_off,160,0,1,,,,,,,,,1,,,76,0
300424,note_off,104,0,2,,,,,,,,,2,,,71,0
300424,note_off,104,0,1,,,,,,,,,1,,,79,0
300480,note_on,324,0,5,,,,,,,,,5,,,57,59
300636,note_off,156,0,5,,,,,,,,,5,,,57,0
300640,note_on,216,0,2,,,,,,,,,2,,,64,58
300640,note_on,216,0,1,,,,,,,,,1,,,73,58
300800,note_off,160,0,1,,,,,,,,,1,,,73,0
300800,note_on,0,0,1,,,,,,,,,1,,,76,58
300800,note_off,160,0,2,,,,,,,,,2,,,64,0
300800,note_on,0,0,2,,,,,,,,,2,,,67,58
300904,note_off,104,0,1,,,,,,,,,1,,,76,0
300904,note_off,104,0,2,,,,,,,,,2,,,67,0
300960,note_on,56,0,1,,,,,,,,,1,,,74,58
300960,note_on,56,0,2,,,,,,,,,2,,,66,58
301120,note_on,484,0,5,,,,,,,,,5,,,62,59
301280,note_on,0,0,5,,,,,,,,,5,,,57,58
301280,note_off,160,0,5,,,,,,,,,5,,,62,0
301320,note_off,360,0,2,,,,,,,,,2,,,66,0
301320,note_off,360,0,1,,,,,,,,,1,,,74,0
301440,note_on,0,0,5,,,,,,,,,5,,,54,56
301440,note_off,160,0,5,,,,,,,,,5,,,57,0
301600,note_off,160,0,5,,,,,,,,,5,,,54,0
301600,note_on,0,0,5,,,,,,,,,5,,,50,55
301760,note_off,160,0,5,,,,,,,,,5,,,50,0
301760,note_on,0,0,5,,,,,,,,,5,,,45,54
301860,set_tempo,5220,1,0,,,,,,491803,,,,,,,
301920,note_off,160,0,5,,,,,,,,,5,,,45,0
301920,note_on,0,0,5,,,,,,,,,5,,,38,53
302160,set_tempo,300,1,0,,,,,,491803,,,,,,,
302280,note_off,360,0,5,,,,,,,,,5,,,38,0
302400,control_change,11520,0,3,,,,,,,64,0,3,,,,
302400,control_change,11520,0,4,,,,,,,64,0,4,,,,
302400,marker,240,1,0,,,,,,,,,,,,,
302400,control_change,120,0,5,,,,,,,64,0,5,,,,
302400,note_on,0,0,5,,,,,,,,,5,,,57,50
302400,control_change,1080,0,1,,,,,,,64,0,1,,,,
302400,note_on,0,0,5,,,,,,,,,5,,,45,50
302400,control_change,1080,0,2,,,,,,,64,0,2,,,,
302400,note_on,0,0,2,,,,,,,,,2,,,73,50
302400,note_on,0,0,1,,,,,,,,,1,,,76,50
302415,set_tempo,15,1,0,,,,,,487804,,,,,,,
302560,note_off,160,0,2,,,,,,,,,2,,,73,0
302560,note_on,0,0,1,,,,,,,,,1,,,69,51
302560,note_off,160,0,1,,,,,,,,,1,,,76,0
302664,note_off,104,0,1,,,,,,,,,1,,,69,0
302720,note_on,56,0,1,,,,,,,,,1,,,79,52
302720,note_on,160,0,2,,,,,,,,,2,,,76,52
302824,note_off,104,0,1,,,,,,,,,1,,,79,0
302824,note_off,104,0,2,,,,,,,,,2,,,76,0
302880,note_on,56,0,1,,,,,,,,,1,,,79,53
302880,note_on,56,0,2,,,,,,,,,2,,,76,53
303040,note_on,0,0,1,,,,,,,,,1,,,73,54
303040,note_off,160,0,1,,,,,,,,,1,,,79,0
303040,note_off,160,0,2,,,,,,,,,2,,,76,0
303144,note_off,104,0,1,,,,,,,,,1,,,73,0
303200,note_on,56,0,1,,,,,,,,,1,,,85,55
303200,note_on,160,0,2,,,,,,,,,2,,,79,55
303304,note_off,104,0,1,,,,,,,,,1,,,85,0
303304,note_off,104,0,2,,,,,,,,,2,,,79,0
303360,note_on,56,0,2,,,,,,,,,2,,,79,56
303360,note_on,56,0,1,,,,,,,,,1,,,85,56
303520,note_on,0,0,1,,,,,,,,,1,,,76,57
303520,note_off,160,0,1,,,,,,,,,1,,,85,0
303520,note_off,160,0,2,,,,,,,,,2,,,79,0
303624,note_off,104,0,1,,,,,,,,,1,,,76,0
303680,note_on,160,0,2,,,,,,,,,2,,,85,58
303680,note_on,56,0,1,,,,,,,,,1,,,88,58
303784,note_off,104,0,2,,,,,,,,,2,,,85,0
303784,note_off,104,0,1,,,,,,,,,1,,,88,0
303840,note_off,1440,0,5,,,,,,,,,5,,,57,0
303840,note_on,0,0,5,,,,,,,,,5,,,69,61
303840,note_off,0,0,5,,,,,,,,,5,,,45,0
304000,note_on,216,0,2,,,,,,,,,2,,,85,60
304000,note_on,216,0,1,,,,,,,,,1,,,88,60
304104,note_off,104,0,1,,,,,,,,,1,,,88,0
304104,note_off,104,0,2,,,,,,,,,2,,,85,0
304160,note_on,56,0,2,,,,,,,,,2,,,83,60
304160,note_on,56,0,1,,,,,,,,,1,,,86,60
304200,note_off,360,0,5,,,,,,,,,5,,,69,0
304264,note_off,104,0,1,,,,,,,,,1,,,86,0
304264,note_off,104,0,2,,,,,,,,,2,,,83,0
304320,note_on,56,0,2,,,,,,,,,2,,,81,58
304320,note_on,56,0,1,,,,,,,,,1,,,85,58
304424,note_off,104,0,2,,,,,,,,,2,,,81,0
304424,note_off,104,0,1,,,,,,,,,1,,,85,0
304480,note_on,56,0,2,,,,,,,,,2,,,79,56
304480,note_on,56,0,1,,,,,,,,,1,,,83,56
304584,note_off,104,0,2,,,,,,,,,2,,,79,0
304584,note_off,104,0,1,,,,,,,,,1,,,83,0
304640,note_on,56,0,2,,,,,,,,,2,,,78,54
304640,note_on,56,0,1,,,,,,,,,1,,,81,54
304744,note_off,104,0,2,,,,,,,,,2,,,78,0
304744,note_off,104,0,1,,,,,,,,,1,,,81,0
304800,note_on,56,0,1,,,,,,,,,1,,,79,52
304800,note_on,56,0,2,,,,,,,,,2,,,76,52
304904,note_off,104,0,1,,,,,,,,,1,,,79,0
304904,note_off,104,0,2,,,,,,,,,2,,,76,0
304960,note_on,56,0,1,,,,,,,,,1,,,78,50
304960,note_on,56,0,2,,,,,,,,,2,,,74,50
305064,note_off,104,0,1,,,,,,,,,1,,,78,0
305064,note_off,104,0,2,,,,,,,,,2,,,74,0
305120,note_on,56,0,2,,,,,,,,,2,,,73,49
305120,note_on,56,0,1,,,,,,,,,1,,,76,49
305220,set_tempo,2805,1,0,,,,,,491803,,,,,,,
305224,note_off,104,0,1,,,,,,,,,1,,,76,0
305224,note_off,104,0,2,,,,,,,,,2,,,73,0
305280,note_on,1080,0,5,,,,,,,,,5,,,50,51
305280,note_on,56,0,2,,,,,,,,,2,,,74,51
305280,note_on,0,0,5,,,,,,,,,5,,,62,51
305280,note_on,56,0,1,,,,,,,,,1,,,78,51
305280,set_tempo,60,1,0,,,,,,487804,,,,,,,
305440,note_off,160,0,2,,,,,,,,,2,,,74,0
305440,note_on,0,0,1,,,,,,,,,1,,,69,50
305440,note_off,160,0,1,,,,,,,,,1,,,78,0
305544,note_off,104,0,1,,,,,,,,,1,,,69,0
305600,note_on,56,0,1,,,,,,,,,1,,,81,49
305600,note_on,160,0,2,,,,,,,,,2,,,78,49
305704,note_off,104,0,1,,,,,,,,,1,,,81,0
305704,note_off,104,0,2,,,,,,,,,2,,,78,0
305760,note_on,56,0,2,,,,,,,,,2,,,78,49
305760,note_on,56,0,1,,,,,,,,,1,,,81,49
305920,note_off,160,0,1,,,,,,,,,1,,,81,0
305920,note_on,0,0,1,,,,,,,,,1,,,74,50
305920,note_off,160,0,2,,,,,,,,,2,,,78,0
306024,note_off,104,0,1,,,,,,,,,1,,,74,0
306080,note_on,56,0,1,,,,,,,,,1,,,86,50
306080,note_on,160,0,2,,,,,,,,,2,,,78,50
306184,note_off,104,0,2,,,,,,,,,2,,,78,0
306184,note_off,104,0,1,,,,,,,,,1,,,86,0
306240,note_on,56,0,2,,,,,,,,,2,,,78,51
306240,note_on,56,0,1,,,,,,,,,1,,,86,51
306400,note_off,160,0,1,,,,,,,,,1,,,86,0
306400,note_on,0,0,1,,,,,,,,,1,,,85,51
306400,note_on,0,0,2,,,,,,,,,2,,,76,51
306400,note_off,160,0,2,,,,,,,,,2,,,78,0
306504,note_off,104,0,1,,,,,,,,,1,,,85,0
306504,note_off,104,0,2,,,,,,,,,2,,,76,0
306560,note_on,56,0,1,,,,,,,,,1,,,86,52
306560,note_on,56,0,2,,,,,,,,,2,,,78,52
306664,note_off,104,0,2,,,,,,,,,2,,,78,0
306664,note_off,104,0,1,,,,,,,,,1,,,86,0
306720,note_on,0,0,5,,,,,,,,,5,,,38,52
306720,note_off,0,0,5,,,,,,,,,5,,,50,0
306720,note_off,1440,0,5,,,,,,,,,5,,,62,0
306880,note_on,216,0,1,,,,,,,,,1,,,73,52
307008,note_off,128,0,1,,,,,,,,,1,,,73,0
307040,note_on,32,0,1,,,,,,,,,1,,,74,52
307080,note_off,360,0,5,,,,,,,,,5,,,38,0
307168,note_off,128,0,1,,,,,,,,,1,,,74,0
307200,note_on,32,0,1,,,,,,,,,1,,,75,53
307328,note_off,128,0,1,,,,,,,,,1,,,75,0
307360,note_on,32,0,1,,,,,,,,,1,,,76,53
307488,note_off,128,0,1,,,,,,,,,1,,,76,0
307520,note_on,32,0,1,,,,,,,,,1,,,77,54
307648,note_off,128,0,1,,,,,,,,,1,,,77,0
307680,note_on,32,0,1,,,,,,,,,1,,,78,54
307808,note_off,128,0,1,,,,,,,,,1,,,78,0
307840,note_on,32,0,1,,,,,,,,,1,,,79,55
307968,note_off,128,0,1,,,,,,,,,1,,,79,0
308000,note_on,32,0,1,,,,,,,,,1,,,80,55
308100,set_tempo,2820,1,0,,,,,,491803,,,,,,,
308128,note_off,128,0,1,,,,,,,,,1,,,80,0
308160,note_on,32,0,1,,,,,,,,,1,,,81,59
308160,set_tempo,60,1,0,,,,,,487804,,,,,,,
308288,note_off,128,0,1,,,,,,,,,1,,,81,0
308320,note_on,32,0,1,,,,,,,,,1,,,86,59
308480,note_off,160,0,1,,,,,,,,,1,,,86,0
308480,note_on,0,0,1,,,,,,,,,1,,,85,58
308640,note_off,160,0,1,,,,,,,,,1,,,85,0
308640,note_on,0,0,1,,,,,,,,,1,,,84,57
308800,note_off,160,0,1,,,,,,,,,1,,,84,0
308800,note_on,0,0,1,,,,,,,,,1,,,83,56
308960,note_off,160,0,1,,,,,,,,,1,,,83,0
308960,note_on,0,0,1,,,,,,,,,1,,,82,55
309120,note_on,2040,0,5,,,,,,,,,5,,,61,57
309120,note_on,6720,0,4,,,,,,,,,4,,,69,57
309120,note_off,160,0,1,,,,,,,,,1,,,82,0
309120,note_on,0,0,1,,,,,,,,,1,,,81,54
309276,note_off,156,0,1,,,,,,,,,1,,,81,0
309600,note_off,480,0,5,,,,,,,,,5,,,61,0
309600,note_off,480,0,4,,,,,,,,,4,,,69,0
309600,note_on,0,0,4,,,,,,,,,4,,,66,50
309600,note_on,0,0,5,,,,,,,,,5,,,62,50
309760,note_on,484,0,1,,,,,,,,,1,,,86,55
309920,note_on,0,0,1,,,,,,,,,1,,,85,54
309920,note_off,160,0,1,,,,,,,,,1,,,86,0
309960,note_off,360,0,5,,,,,,,,,5,,,62,0
309960,note_off,360,0,4,,,,,,,,,4,,,66,0
310080,note_on,0,0,1,,,,,,,,,1,,,84,52
310080,note_off,160,0,1,,,,,,,,,1,,,85,0
310240,note_off,160,0,1,,,,,,,,,1,,,84,0
310240,note_on,0,0,1,,,,,,,,,1,,,83,51
310400,note_off,160,0,1,,,,,,,,,1,,,83,0
310400,note_on,0,0,1,,,,,,,,,1,,,82,50
310560,note_on,600,0,5,,,,,,,,,5,,,61,53
310560,note_on,600,0,4,,,,,,,,,4,,,69,53
310560,note_off,160,0,1,,,,,,,,,1,,,82,0
310560,note_on,0,0,1,,,,,,,,,1,,,81,48
310716,note_off,156,0,1,,,,,,,,,1,,,81,0
311040,note_off,480,0,5,,,,,,,,,5,,,61,0
311040,note_off,480,0,4,,,,,,,,,4,,,69,0
311040,note_on,0,0,4,,,,,,,,,4,,,66,47
311040,note_on,0,0,5,,,,,,,,,5,,,62,47
311196,note_off,156,0,4,,,,,,,,,4,,,66,0
311196,note_off,156,0,5,,,,,,,,,5,,,62,0
311200,note_on,484,0,1,,,,,,,,,1,,,80,52
311200,note_on,4536,0,2,,,,,,,,,2,,,77,52
311360,note_off,160,0,1,,,,,,,,,1,,,80,0
311360,note_on,0,0,1,,,,,,,,,1,,,81,51
311360,note_on,0,0,2,,,,,,,,,2,,,78,51
311360,note_off,160,0,2,,,,,,,,,2,,,77,0
311520,note_off,160,0,1,,,,,,,,,1,,,81,0
311520,note_off,160,0,2,,,,,,,,,2,,,78,0
311520,note_on,324,0,5,,,,,,,,,5,,,55,51
311676,note_off,156,0,5,,,,,,,,,5,,,55,0
311680,note_on,160,0,1,,,,,,,,,1,,,78,50
311680,note_on,160,0,2,,,,,,,,,2,,,75,50
311840,note_on,0,0,1,,,,,,,,,1,,,79,50
311840,note_off,160,0,1,,,,,,,,,1,,,78,0
311840,note_off,160,0,2,,,,,,,,,2,,,75,0
311840,note_on,0,0,2,,,,,,,,,2,,,76,50
312000,note_off,160,0,1,,,,,,,,,1,,,79,0
312000,note_off,160,0,2,,,,,,,,,2,,,76,0
312000,note_on,324,0,5,,,,,,,,,5,,,56,49
312156,note_off,156,0,5,,,,,,,,,5,,,56,0
312160,note_on,160,0,2,,,,,,,,,2,,,73,49
312160,note_on,160,0,1,,,,,,,,,1,,,77,49
312320,note_off,160,0,1,,,,,,,,,1,,,77,0
312320,note_off,160,0,2,,,,,,,,,2,,,73,0
312320,note_on,0,0,2,,,,,,,,,2,,,74,49
312320,note_on,0,0,1,,,,,,,,,1,,,78,49
312480,note_off,160,0,1,,,,,,,,,1,,,78,0
312480,note_on,0,0,2,,,,,,,,,2,,,73,48
312480,note_on,0,0,1,,,,,,,,,1,,,76,48
312480,note_off,160,0,2,,,,,,,,,2,,,74,0
312640,note_on,484,0,5,,,,,,,,,5,,,45,48
312800,note_on,0,0,5,,,,,,,,,5,,,49,49
312800,note_off,160,0,5,,,,,,,,,5,,,45,0
312840,note_off,360,0,1,,,,,,,,,1,,,76,0
312840,note_off,360,0,2,,,,,,,,,2,,,73,0
312960,note_on,0,0,5,,,,,,,,,5,,,52,49
312960,note_off,160,0,5,,,,,,,,,5,,,49,0
313064,note_off,104,0,5,,,,,,,,,5,,,52,0
313120,note_on,56,0,5,,,,,,,,,5,,,57,50
313280,note_on,0,0,5,,,,,,,,,5,,,58,51
313280,note_off,160,0,5,,,,,,,,,5,,,57,0
313440,note_on,0,0,5,,,,,,,,,5,,,59,53
313440,note_off,160,0,5,,,,,,,,,5,,,58,0
313600,note_on,0,0,5,,,,,,,,,5,,,60,54
313600,note_off,160,0,5,,,,,,,,,5,,,59,0
313760,note_off,160,0,5,,,,,,,,,5,,,60,0
313760,note_on,0,0,5,,,,,,,,,5,,,61,55
313800,set_tempo,5640,1,0,,,,,,500000,,,,,,,
313920,set_tempo,120,1,0,,,,,,487804,,,,,,,
313920,note_on,1080,0,2,,,,,,,,,2,,,78,58
313920,note_on,0,0,5,,,,,,,,,5,,,62,58
313920,note_on,1080,0,1,,,,,,,,,1,,,81,58
313920,note_off,160,0,5,,,,,,,,,5,,,61,0
314080,note_on,0,0,2,,,,,,,,,2,,,76,59
314080,note_off,160,0,2,,,,,,,,,2,,,78,0
314080,note_off,160,0,1,,,,,,,,,1,,,81,0
314080,note_on,0,0,1,,,,,,,,,1,,,79,59
314240,note_off,160,0,2,,,,,,,,,2,,,76,0
314240,note_off,160,0,1,,,,,,,,,1,,,79,0
314240,note_on,0,0,1,,,,,,,,,1,,,78,57
314240,note_on,0,0,2,,,,,,,,,2,,,74,57
314280,note_off,360,0,5,,,,,,,,,5,,,62,0
314344,note_off,104,0,2,,,,,,,,,2,,,74,0
314344,note_off,104,0,1,,,,,,,,,1,,,78,0
314400,note_on,56,0,2,,,,,,,,,2,,,74,56
314400,note_on,56,0,1,,,,,,,,,1,,,78,56
314504,note_off,104,0,1,,,,,,,,,1,,,78,0
314504,note_off,104,0,2,,,,,,,,,2,,,74,0
314560,note_on,56,0,2,,,,,,,,,2,,,74,55
314560,note_on,56,0,1,,,,,,,,,1,,,78,55
314664,note_off,104,0,2,,,,,,,,,2,,,74,0
314664,note_off,104,0,1,,,,,,,,,1,,,78,0
314720,note_on,56,0,2,,,,,,,,,2,,,74,54
314720,note_on,56,0,1,,,,,,,,,1,,,78,54
314824,note_off,104,0,2,,,,,,,,,2,,,74,0
314824,note_off,104,0,1,,,,,,,,,1,,,78,0
314880,note_on,56,0,1,,,,,,,,,1,,,78,53
314880,note_on,56,0,2,,,,,,,,,2,,,74,53
314984,note_off,104,0,1,,,,,,,,,1,,,78,0
314984,note_off,104,0,2,,,,,,,,,2,,,74,0
315040,note_on,56,0,1,,,,,,,,,1,,,78,51
315040,note_on,56,0,2,,,,,,,,,2,,,74,51
315144,note_off,104,0,2,,,,,,,,,2,,,74,0
315144,note_off,104,0,1,,,,,,,,,1,,,78,0
315200,note_on,56,0,2,,,,,,,,,2,,,74,50
315200,note_on,56,0,1,,,,,,,,,1,,,78,50
315304,note_off,104,0,2,,,,,,,,,2,,,74,0
315304,note_off,104,0,1,,,,,,,,,1,,,78,0
315360,note_on,56,0,1,,,,,,,,,1,,,78,55
315360,note_on,56,0,2,,,,,,,,,2,,,69,55
315360,note_on,1080,0,5,,,,,,,,,5,,,50,55
315520,note_on,0,0,1,,,,,,,,,1,,,76,54
315520,note_off,160,0,2,,,,,,,,,2,,,69,0
315520,note_on,0,0,2,,,,,,,,,2,,,67,54
315520,note_off,160,0,1,,,,,,,,,1,,,78,0
315680,note_off,160,0,1,,,,,,,,,1,,,76,0
315680,note_off,160,0,2,,,,,,,,,2,,,67,0
315680,note_on,0,0,2,,,,,,,,,2,,,66,53
315680,note_on,0,0,1,,,,,,,,,1,,,74,53
315720,note_off,360,0,5,,,,,,,,,5,,,50,0
315784,note_off,104,0,1,,,,,,,,,1,,,74,0
315784,note_off,104,0,2,,,,,,,,,2,,,66,0
315840,note_on,56,0,1,,,,,,,,,1,,,74,52
315840,note_on,56,0,2,,,,,,,,,2,,,66,52
315944,note_off,104,0,1,,,,,,,,,1,,,74,0
315944,note_off,104,0,2,,,,,,,,,2,,,66,0
316000,note_on,56,0,1,,,,,,,,,1,,,74,51
316000,note_on,56,0,2,,,,,,,,,2,,,66,51
316104,note_off,104,0,2,,,,,,,,,2,,,66,0
316104,note_off,104,0,1,,,,,,,,,1,,,74,0
316160,note_on,56,0,1,,,,,,,,,1,,,74,50
316160,note_on,56,0,2,,,,,,,,,2,,,66,50
316264,note_off,104,0,1,,,,,,,,,1,,,74,0
316264,note_off,104,0,2,,,,,,,,,2,,,66,0
316320,note_on,56,0,1,,,,,,,,,1,,,74,49
316320,note_on,56,0,2,,,,,,,,,2,,,66,49
316424,note_off,104,0,1,,,,,,,,,1,,,74,0
316424,note_off,104,0,2,,,,,,,,,2,,,66,0
316480,note_on,56,0,2,,,,,,,,,2,,,66,48
316480,note_on,56,0,1,,,,,,,,,1,,,74,48
316584,note_off,104,0,2,,,,,,,,,2,,,66,0
316584,note_off,104,0,1,,,,,,,,,1,,,74,0
316640,note_on,56,0,2,,,,,,,,,2,,,66,52
316640,note_on,56,0,1,,,,,,,,,1,,,74,52
316744,note_off,104,0,1,,,,,,,,,1,,,74,0
316744,note_off,104,0,2,,,,,,,,,2,,,66,0
316800,note_on,1080,0,5,,,,,,,,,5,,,62,52
316956,note_off,156,0,5,,,,,,,,,5,,,62,0
316960,note_on,216,0,1,,,,,,,,,1,,,74,52
316960,note_on,216,0,2,,,,,,,,,2,,,66,52
317120,note_on,0,0,2,,,,,,,,,2,,,69,51
317120,note_off,160,0,2,,,,,,,,,2,,,66,0
317120,note_on,0,0,1,,,,,,,,,1,,,78,51
317120,note_off,160,0,1,,,,,,,,,1,,,74,0
317224,note_off,104,0,1,,,,,,,,,1,,,78,0
317224,note_off,104,0,2,,,,,,,,,2,,,69,0
317280,note_on,324,0,5,,,,,,,,,5,,,55,51
317436,note_off,156,0,5,,,,,,,,,5,,,55,0
317440,note_on,216,0,1,,,,,,,,,1,,,76,51
317440,note_on,216,0,2,,,,,,,,,2,,,67,51
317600,note_on,0,0,1,,,,,,,,,1,,,79,50
317600,note_off,160,0,1,,,,,,,,,1,,,76,0
317600,note_on,0,0,2,,,,,,,,,2,,,71,50
317600,note_off,160,0,2,,,,,,,,,2,,,67,0
317704,note_off,104,0,2,,,,,,,,,2,,,71,0
317704,note_off,104,0,1,,,,,,,,,1,,,79,0
317760,note_on,324,0,5,,,,,,,,,5,,,57,50
317916,note_off,156,0,5,,,,,,,,,5,,,57,0
317920,note_on,216,0,2,,,,,,,,,2,,,64,50
317920,note_on,216,0,1,,,,,,,,,1,,,73,50
318080,note_off,160,0,2,,,,,,,,,2,,,64,0
318080,note_on,0,0,2,,,,,,,,,2,,,67,51
318080,note_off,160,0,1,,,,,,,,,1,,,73,0
318080,note_on,0,0,1,,,,,,,,,1,,,76,51
318184,note_off,104,0,1,,,,,,,,,1,,,76,0
318184,note_off,104,0,2,,,,,,,,,2,,,67,0
318240,note_on,56,0,2,,,,,,,,,2,,,66,50
318240,note_on,56,0,1,,,,,,,,,1,,,74,50
318240,note_on,324,0,5,,,,,,,,,5,,,50,52
318344,note_off,104,0,1,,,,,,,,,1,,,74,0
318344,note_off,104,0,2,,,,,,,,,2,,,66,0
318400,note_on,56,0,1,,,,,,,,,1,,,69,51
318528,note_off,128,0,1,,,,,,,,,1,,,69,0
318560,note_on,32,0,1,,,,,,,,,1,,,71,53
318600,note_off,360,0,5,,,,,,,,,5,,,50,0
318688,note_off,128,0,1,,,,,,,,,1,,,71,0
318720,note_on,32,0,1,,,,,,,,,1,,,73,54
318848,note_off,128,0,1,,,,,,,,,1,,,73,0
318880,note_on,32,0,1,,,,,,,,,1,,,74,55
319008,note_off,128,0,1,,,,,,,,,1,,,74,0
319040,note_on,32,0,1,,,,,,,,,1,,,76,57
319168,note_off,128,0,1,,,,,,,,,1,,,76,0
319200,note_on,32,0,1,,,,,,,,,1,,,78,58
319328,note_off,128,0,1,,,,,,,,,1,,,78,0
319360,note_on,32,0,1,,,,,,,,,1,,,79,60
319488,note_off,128,0,1,,,,,,,,,1,,,79,0
319520,note_on,32,0,1,,,,,,,,,1,,,80,61
319620,set_tempo,5700,1,0,,,,,,491803,,,,,,,
319648,note_off,128,0,1,,,,,,,,,1,,,80,0
319680,note_on,0,0,5,,,,,,,,,5,,,66,67
319680,note_on,1080,0,5,,,,,,,,,5,,,69,67
319680,set_tempo,60,1,0,,,,,,487804,,,,,,,
319680,note_on,32,0,1,,,,,,,,,1,,,81,65
319840,note_off,0,0,5,,,,,,,,,5,,,69,0
319840,note_on,0,0,5,,,,,,,,,5,,,64,66
319840,note_off,160,0,5,,,,,,,,,5,,,66,0
319840,note_on,0,0,5,,,,,,,,,5,,,67,66
320000,note_on,0,0,5,,,,,,,,,5,,,66,65
320000,note_on,0,0,5,,,,,,,,,5,,,62,65
320000,note_off,0,0,5,,,,,,,,,5,,,64,0
320000,note_off,160,0,5,,,,,,,,,5,,,67,0
320104,note_off,0,0,5,,,,,,,,,5,,,66,0
320104,note_off,104,0,5,,,,,,,,,5,,,62,0
320160,note_on,56,0,5,,,,,,,,,5,,,66,64
320160,note_on,0,0,5,,,,,,,,,5,,,62,64
320264,note_off,104,0,5,,,,,,,,,5,,,62,0
320264,note_off,0,0,5,,,,,,,,,5,,,66,0
320320,note_on,56,0,5,,,,,,,,,5,,,66,63
320320,note_on,0,0,5,,,,,,,,,5,,,62,63
320400,note_off,720,0,1,,,,,,,,,1,,,81,0
320400,note_on,0,0,1,,,,,,,,,1,,,83,62
320424,note_off,104,0,5,,,,,,,,,5,,,62,0
320424,note_off,0,0,5,,,,,,,,,5,,,66,0
320460,note_on,0,0,1,,,,,,,,,1,,,81,61
320460,note_off,60,0,1,,,,,,,,,1,,,83,0
320480,note_on,0,0,5,,,,,,,,,5,,,62,62
320480,note_on,56,0,5,,,,,,,,,5,,,66,62
320520,note_on,0,0,1,,,,,,,,,1,,,80,61
320520,note_off,60,0,1,,,,,,,,,1,,,81,0
320580,note_on,0,0,1,,,,,,,,,1,,,81,61
320580,note_off,60,0,1,,,,,,,,,1,,,80,0
320584,note_off,104,0,5,,,,,,,,,5,,,62,0
320584,note_off,0,0,5,,,,,,,,,5,,,66,0
320640,note_off,60,0,1,,,,,,,,,1,,,81,0
320640,note_on,0,0,1,,,,,,,,,1,,,86,61
320640,note_on,56,0,5,,,,,,,,,5,,,66,61
320640,note_on,0,0,5,,,,,,,,,5,,,62,61
320744,note_off,104,0,5,,,,,,,,,5,,,62,0
320744,note_off,0,0,5,,,,,,,,,5,,,66,0
320800,note_on,56,0,5,,,,,,,,,5,,,66,60
320800,note_on,0,0,5,,,,,,,,,5,,,62,60
320832,note_off,192,0,1,,,,,,,,,1,,,86,0
320904,note_off,104,0,5,,,,,,,,,5,,,62,0
320904,note_off,0,0,5,,,,,,,,,5,,,66,0
320960,note_on,56,0,5,,,,,,,,,5,,,66,60
320960,note_on,0,0,5,,,,,,,,,5,,,62,60
321064,note_off,104,0,5,,,,,,,,,5,,,62,0
321064,note_off,0,0,5,,,,,,,,,5,,,66,0
321120,note_on,56,0,5,,,,,,,,,5,,,66,65
321120,note_on,0,0,5,,,,,,,,,5,,,57,65
321120,note_on,288,0,1,,,,,,,,,1,,,78,65
321280,note_on,0,0,5,,,,,,,,,5,,,55,64
321280,note_off,160,0,5,,,,,,,,,5,,,57,0
321280,note_on,0,0,5,,,,,,,,,5,,,64,64
321280,note_off,0,0,5,,,,,,,,,5,,,66,0
321440,note_off,0,0,5,,,,,,,,,5,,,64,0
321440,note_on,0,0,5,,,,,,,,,5,,,62,63
321440,note_on,0,0,5,,,,,,,,,5,,,54,63
321440,note_off,160,0,5,,,,,,,,,5,,,55,0
321544,note_off,104,0,5,,,,,,,,,5,,,54,0
321544,note_off,0,0,5,,,,,,,,,5,,,62,0
321600,note_on,0,0,5,,,,,,,,,5,,,62,63
321600,note_on,56,0,5,,,,,,,,,5,,,54,63
321704,note_off,104,0,5,,,,,,,,,5,,,62,0
321704,note_off,0,0,5,,,,,,,,,5,,,54,0
321760,note_on,0,0,5,,,,,,,,,5,,,62,62
321760,note_on,56,0,5,,,,,,,,,5,,,54,62
321840,note_on,0,0,1,,,,,,,,,1,,,79,61
321840,note_off,720,0,1,,,,,,,,,1,,,78,0
321864,note_off,104,0,5,,,,,,,,,5,,,62,0
321864,note_off,0,0,5,,,,,,,,,5,,,54,0
321900,note_off,60,0,1,,,,,,,,,1,,,79,0
321900,note_on,0,0,1,,,,,,,,,1,,,78,61
321920,note_on,0,0,5,,,,,,,,,5,,,62,61
321920,note_on,56,0,5,,,,,,,,,5,,,54,61
321960,note_on,0,0,1,,,,,,,,,1,,,76,60
321960,note_off,60,0,1,,,,,,,,,1,,,78,0
322020,note_off,60,0,1,,,,,,,,,1,,,76,0
322020,note_on,0,0,1,,,,,,,,,1,,,78,60
322024,note_off,104,0,5,,,,,,,,,5,,,62,0
322024,note_off,0,0,5,,,,,,,,,5,,,54,0
322080,note_on,0,0,1,,,,,,,,,1,,,81,59
322080,note_on,0,0,5,,,,,,,,,5,,,62,60
322080,note_on,56,0,5,,,,,,,,,5,,,54,60
322080,note_off,60,0,1,,,,,,,,,1,,,78,0
322184,note_off,0,0,5,,,,,,,,,5,,,54,0
322184,note_off,104,0,5,,,,,,,,,5,,,62,0
322240,note_on,56,0,5,,,,,,,,,5,,,54,59
322240,note_on,0,0,5,,,,,,,,,5,,,62,59
322272,note_off,192,0,1,,,,,,,,,1,,,81,0
322344,note_off,104,0,5,,,,,,,,,5,,,62,0
322344,note_off,0,0,5,,,,,,,,,5,,,54,0
322400,note_on,56,0,5,,,,,,,,,5,,,62,58
322400,note_on,0,0,5,,,,,,,,,5,,,54,58
322504,note_off,104,0,5,,,,,,,,,5,,,54,0
322504,note_off,0,0,5,,,,,,,,,5,,,62,0
322560,note_on,56,0,5,,,,,,,,,5,,,59,62
322716,note_off,156,0,5,,,,,,,,,5,,,59,0
322720,note_on,4376,0,2,,,,,,,,,2,,,66,62
322720,note_on,448,0,1,,,,,,,,,1,,,74,62
322880,note_off,160,0,1,,,,,,,,,1,,,74,0
322880,note_off,160,0,2,,,,,,,,,2,,,66,0
322880,note_on,0,0,2,,,,,,,,,2,,,69,62
322880,note_on,0,0,1,,,,,,,,,1,,,78,62
322984,note_off,104,0,2,,,,,,,,,2,,,69,0
322984,note_off,104,0,1,,,,,,,,,1,,,78,0
323040,note_on,324,0,5,,,,,,,,,5,,,55,61
323196,note_off,156,0,5,,,,,,,,,5,,,55,0
323200,note_on,216,0,2,,,,,,,,,2,,,67,61
323200,note_on,216,0,1,,,,,,,,,1,,,76,61
323360,note_on,0,0,2,,,,,,,,,2,,,71,61
323360,note_off,160,0,2,,,,,,,,,2,,,67,0
323360,note_off,160,0,1,,,,,,,,,1,,,76,0
323360,note_on,0,0,1,,,,,,,,,1,,,79,61
323464,note_off,104,0,1,,,,,,,,,1,,,79,0
323464,note_off,104,0,2,,,,,,,,,2,,,71,0
323520,note_on,324,0,5,,,,,,,,,5,,,57,60
323676,note_off,156,0,5,,,,,,,,,5,,,57,0
323680,note_on,216,0,2,,,,,,,,,2,,,64,60
323680,note_on,216,0,1,,,,,,,,,1,,,73,60
323840,note_off,160,0,2,,,,,,,,,2,,,64,0
323840,note_off,160,0,1,,,,,,,,,1,,,73,0
323840,note_on,0,0,1,,,,,,,,,1,,,76,60
323840,note_on,0,0,2,,,,,,,,,2,,,67,60
323944,note_off,104,0,2,,,,,,,,,2,,,67,0
323944,note_off,104,0,1,,,,,,,,,1,,,76,0
324000,note_on,56,0,1,,,,,,,,,1,,,74,59
324000,note_on,56,0,2,,,,,,,,,2,,,66,59
324160,note_on,484,0,5,,,,,,,,,5,,,62,61
324320,note_on,0,0,5,,,,,,,,,5,,,57,60
324320,note_off,160,0,5,,,,,,,,,5,,,62,0
324360,note_off,360,0,1,,,,,,,,,1,,,74,0
324360,note_off,360,0,2,,,,,,,,,2,,,66,0
324480,note_on,0,0,5,,,,,,,,,5,,,54,59
324480,note_off,160,0,5,,,,,,,,,5,,,57,0
324640,note_off,160,0,5,,,,,,,,,5,,,54,0
324640,note_on,0,0,5,,,,,,,,,5,,,50,58
324800,note_off,160,0,5,,,,,,,,,5,,,50,0
324800,note_on,0,0,5,,,,,,,,,5,,,45,57
324900,set_tempo,5220,1,0,,,,,,495867,,,,,,,
324960,set_tempo,60,1,0,,,,,,500000,,,,,,,
324960,note_off,160,0,5,,,,,,,,,5,,,45,0
324960,note_on,0,0,5,,,,,,,,,5,,,38,56
325200,note_off,240,0,5,,,,,,,,,5,,,38,0
325440,note_on,0,0,1,,,,,,,,,1,,,76,50
325440,control_change,23040,0,3,,,,,,,64,0,3,,,,
325440,control_change,1080,0,2,,,,,,,64,0,2,,,,
325440,note_on,0,0,2,,,,,,,,,2,,,73,50
325440,note_on,0,0,5,,,,,,,,,5,,,57,50
325440,control_change,240,0,5,,,,,,,64,0,5,,,,
325440,note_on,0,0,5,,,,,,,,,5,,,45,50
325440,control_change,14244,0,4,,,,,,,64,0,4,,,,
325440,marker,0,1,0,,,,,,,,,,,,,
325440,set_tempo,480,1,0,,,,,,487804,,,,,,,
325440,control_change,1080,0,1,,,,,,,64,0,1,,,,
325600,note_on,0,0,1,,,,,,,,,1,,,69,51
325600,note_off,160,0,1,,,,,,,,,1,,,76,0
325600,note_off,160,0,2,,,,,,,,,2,,,73,0
325704,note_off,104,0,1,,,,,,,,,1,,,69,0
325760,note_on,160,0,2,,,,,,,,,2,,,76,52
325760,note_on,56,0,1,,,,,,,,,1,,,79,52
325864,note_off,104,0,1,,,,,,,,,1,,,79,0
325864,note_off,104,0,2,,,,,,,,,2,,,76,0
325920,note_on,56,0,2,,,,,,,,,2,,,76,53
325920,note_on,56,0,1,,,,,,,,,1,,,79,53
326080,note_off,160,0,2,,,,,,,,,2,,,76,0
326080,note_off,160,0,1,,,,,,,,,1,,,79,0
326080,note_on,0,0,1,,,,,,,,,1,,,73,54
326184,note_off,104,0,1,,,,,,,,,1,,,73,0
326240,note_on,160,0,2,,,,,,,,,2,,,79,55
326240,note_on,56,0,1,,,,,,,,,1,,,85,55
326344,note_off,104,0,2,,,,,,,,,2,,,79,0
326344,note_off,104,0,1,,,,,,,,,1,,,85,0
326400,note_on,56,0,2,,,,,,,,,2,,,79,56
326400,note_on,56,0,1,,,,,,,,,1,,,85,56
326560,note_off,160,0,2,,,,,,,,,2,,,79,0
326560,note_on,0,0,1,,,,,,,,,1,,,76,57
326560,note_off,160,0,1,,,,,,,,,1,,,85,0
326664,note_off,104,0,1,,,,,,,,,1,,,76,0
326720,note_on,56,0,1,,,,,,,,,1,,,88,58
326720,note_on,160,0,2,,,,,,,,,2,,,85,58
326824,note_off,104,0,1,,,,,,,,,1,,,88,0
326824,note_off,104,0,2,,,,,,,,,2,,,85,0
326880,note_off,1440,0,5,,,,,,,,,5,,,45,0
326880,note_on,0,0,5,,,,,,,,,5,,,69,61
326880,note_off,0,0,5,,,,,,,,,5,,,57,0
327040,note_on,216,0,2,,,,,,,,,2,,,85,60
327040,note_on,216,0,1,,,,,,,,,1,,,88,60
327144,note_off,104,0,1,,,,,,,,,1,,,88,0
327144,note_off,104,0,2,,,,,,,,,2,,,85,0
327200,note_on,56,0,2,,,,,,,,,2,,,83,60
327200,note_on,56,0,1,,,,,,,,,1,,,86,60
327240,note_off,360,0,5,,,,,,,,,5,,,69,0
327304,note_off,104,0,1,,,,,,,,,1,,,86,0
327304,note_off,104,0,2,,,,,,,,,2,,,83,0
327360,note_on,56,0,1,,,,,,,,,1,,,85,58
327360,note_on,56,0,2,,,,,,,,,2,,,81,58
327464,note_off,104,0,1,,,,,,,,,1,,,85,0
327464,note_off,104,0,2,,,,,,,,,2,,,81,0
327520,note_on,56,0,1,,,,,,,,,1,,,83,56
327520,note_on,56,0,2,,,,,,,,,2,,,79,56
327624,note_off,104,0,1,,,,,,,,,1,,,83,0
327624,note_off,104,0,2,,,,,,,,,2,,,79,0
327680,note_on,56,0,1,,,,,,,,,1,,,81,54
327680,note_on,56,0,2,,,,,,,,,2,,,78,54
327784,note_off,104,0,2,,,,,,,,,2,,,78,0
327784,note_off,104,0,1,,,,,,,,,1,,,81,0
327840,note_on,56,0,1,,,,,,,,,1,,,79,52
327840,note_on,56,0,2,,,,,,,,,2,,,76,52
327944,note_off,104,0,1,,,,,,,,,1,,,79,0
327944,note_off,104,0,2,,,,,,,,,2,,,76,0
328000,note_on,56,0,2,,,,,,,,,2,,,74,50
328000,note_on,56,0,1,,,,,,,,,1,,,78,50
328104,note_off,104,0,2,,,,,,,,,2,,,74,0
328104,note_off,104,0,1,,,,,,,,,1,,,78,0
328160,note_on,56,0,2,,,,,,,,,2,,,73,49
328160,note_on,56,0,1,,,,,,,,,1,,,76,49
328260,set_tempo,2820,1,0,,,,,,491803,,,,,,,
328264,note_off,104,0,1,,,,,,,,,1,,,76,0
328264,note_off,104,0,2,,,,,,,,,2,,,73,0
328320,set_tempo,60,1,0,,,,,,487804,,,,,,,
328320,note_on,56,0,1,,,,,,,,,1,,,78,51
328320,note_on,1080,0,5,,,,,,,,,5,,,62,51
328320,note_on,0,0,5,,,,,,,,,5,,,50,51
328320,note_on,56,0,2,,,,,,,,,2,,,74,51
328480,note_on,0,0,1,,,,,,,,,1,,,69,50
328480,note_off,160,0,1,,,,,,,,,1,,,78,0
328480,note_off,160,0,2,,,,,,,,,2,,,74,0
328584,note_off,104,0,1,,,,,,,,,1,,,69,0
328640,note_on,160,0,2,,,,,,,,,2,,,78,49
328640,note_on,56,0,1,,,,,,,,,1,,,81,49
328744,note_off,104,0,2,,,,,,,,,2,,,78,0
328744,note_off,104,0,1,,,,,,,,,1,,,81,0
328800,note_on,56,0,2,,,,,,,,,2,,,78,49
328800,note_on,56,0,1,,,,,,,,,1,,,81,49
328960,note_off,160,0,2,,,,,,,,,2,,,78,0
328960,note_off,160,0,1,,,,,,,,,1,,,81,0
328960,note_on,0,0,1,,,,,,,,,1,,,74,50
329064,note_off,104,0,1,,,,,,,,,1,,,74,0
329120,note_on,160,0,2,,,,,,,,,2,,,78,50
329120,note_on,56,0,1,,,,,,,,,1,,,86,50
329224,note_off,104,0,2,,,,,,,,,2,,,78,0
329224,note_off,104,0,1,,,,,,,,,1,,,86,0
329280,note_on,56,0,2,,,,,,,,,2,,,78,51
329280,note_on,56,0,1,,,,,,,,,1,,,86,51
329440,note_off,160,0,2,,,,,,,,,2,,,78,0
329440,note_off,160,0,1,,,,,,,,,1,,,86,0
329440,note_on,0,0,1,,,,,,,,,1,,,85,51
329440,note_on,0,0,2,,,,,,,,,2,,,76,51
329544,note_off,104,0,1,,,,,,,,,1,,,85,0
329544,note_off,104,0,2,,,,,,,,,2,,,76,0
329600,note_on,56,0,2,,,,,,,,,2,,,78,52
329600,note_on,56,0,1,,,,,,,,,1,,,86,52
329704,note_off,104,0,2,,,,,,,,,2,,,78,0
329704,note_off,104,0,1,,,,,,,,,1,,,86,0
329760,note_on,0,0,5,,,,,,,,,5,,,38,52
329760,note_off,0,0,5,,,,,,,,,5,,,62,0
329760,note_off,1440,0,5,,,,,,,,,5,,,50,0
329920,note_on,216,0,1,,,,,,,,,1,,,73,52
330048,note_off,128,0,1,,,,,,,,,1,,,73,0
330080,note_on,32,0,1,,,,,,,,,1,,,74,52
330120,note_off,360,0,5,,,,,,,,,5,,,38,0
330208,note_off,128,0,1,,,,,,,,,1,,,74,0
330240,note_on,32,0,1,,,,,,,,,1,,,75,53
330368,note_off,128,0,1,,,,,,,,,1,,,75,0
330400,note_on,32,0,1,,,,,,,,,1,,,76,53
330528,note_off,128,0,1,,,,,,,,,1,,,76,0
330560,note_on,32,0,1,,,,,,,,,1,,,77,54
330688,note_off,128,0,1,,,,,,,,,1,,,77,0
330720,note_on,32,0,1,,,,,,,,,1,,,78,54
330848,note_off,128,0,1,,,,,,,,,1,,,78,0
330880,note_on,32,0,1,,,,,,,,,1,,,79,55
331008,note_off,128,0,1,,,,,,,,,1,,,79,0
331040,note_on,32,0,1,,,,,,,,,1,,,80,55
331140,set_tempo,2820,1,0,,,,,,491803,,,,,,,
331168,note_off,128,0,1,,,,,,,,,1,,,80,0
331200,note_on,32,0,1,,,,,,,,,1,,,81,59
331200,set_tempo,60,1,0,,,,,,487804,,,,,,,
331328,note_off,128,0,1,,,,,,,,,1,,,81,0
331360,note_on,32,0,1,,,,,,,,,1,,,86,59
331520,note_off,160,0,1,,,,,,,,,1,,,86,0
331520,note_on,0,0,1,,,,,,,,,1,,,85,58
331680,note_on,0,0,1,,,,,,,,,1,,,84,57
331680,note_off,160,0,1,,,,,,,,,1,,,85,0
331840,note_on,0,0,1,,,,,,,,,1,,,83,56
331840,note_off,160,0,1,,,,,,,,,1,,,84,0
332000,note_on,0,0,1,,,,,,,,,1,,,82,55
332000,note_off,160,0,1,,,,,,,,,1,,,83,0
332160,note_on,0,0,1,,,,,,,,,1,,,81,54
332160,note_on,6720,0,4,,,,,,,,,4,,,69,57
332160,note_on,2040,0,5,,,,,,,,,5,,,61,57
332160,note_off,160,0,1,,,,,,,,,1,,,82,0
332316,note_off,156,0,1,,,,,,,,,1,,,81,0
332640,note_off,480,0,4,,,,,,,,,4,,,69,0
332640,note_off,480,0,5,,,,,,,,,5,,,61,0
332640,note_on,0,0,5,,,,,,,,,5,,,62,50
332640,note_on,0,0,4,,,,,,,,,4,,,66,50
332800,note_on,484,0,1,,,,,,,,,1,,,86,55
332960,note_off,160,0,1,,,,,,,,,1,,,86,0
332960,note_on,0,0,1,,,,,,,,,1,,,85,54
333000,note_off,360,0,5,,,,,,,,,5,,,62,0
333000,note_off,360,0,4,,,,,,,,,4,,,66,0
333120,note_off,160,0,1,,,,,,,,,1,,,85,0
333120,note_on,0,0,1,,,,,,,,,1,,,84,52
333280,note_off,160,0,1,,,,,,,,,1,,,84,0
333280,note_on,0,0,1,,,,,,,,,1,,,83,51
333440,note_off,160,0,1,,,,,,,,,1,,,83,0
333440,note_on,0,0,1,,,,,,,,,1,,,82,50
333600,note_off,160,0,1,,,,,,,,,1,,,82,0
333600,note_on,600,0,4,,,,,,,,,4,,,69,53
333600,note_on,0,0,1,,,,,,,,,1,,,81,48
333600,note_on,600,0,5,,,,,,,,,5,,,61,53
333756,note_off,156,0,1,,,,,,,,,1,,,81,0
334080,note_on,0,0,4,,,,,,,,,4,,,66,47
334080,note_on,0,0,5,,,,,,,,,5,,,62,47
334080,note_off,480,0,4,,,,,,,,,4,,,69,0
334080,note_off,480,0,5,,,,,,,,,5,,,61,0
334236,note_off,156,0,4,,,,,,,,,4,,,66,0
334236,note_off,156,0,5,,,,,,,,,5,,,62,0
334240,note_on,4536,0,2,,,,,,,,,2,,,77,52
334240,note_on,484,0,1,,,,,,,,,1,,,80,52
334400,note_off,160,0,2,,,,,,,,,2,,,77,0
334400,note_on,0,0,1,,,,,,,,,1,,,81,51
334400,note_off,160,0,1,,,,,,,,,1,,,80,0
334400,note_on,0,0,2,,,,,,,,,2,,,78,51
334560,note_on,324,0,5,,,,,,,,,5,,,55,51
334560,note_off,160,0,2,,,,,,,,,2,,,78,0
334560,note_off,160,0,1,,,,,,,,,1,,,81,0
334716,note_off,156,0,5,,,,,,,,,5,,,55,0
334720,note_on,160,0,1,,,,,,,,,1,,,78,50
334720,note_on,160,0,2,,,,,,,,,2,,,75,50
334880,note_on,0,0,1,,,,,,,,,1,,,79,50
334880,note_off,160,0,1,,,,,,,,,1,,,78,0
334880,note_on,0,0,2,,,,,,,,,2,,,76,50
334880,note_off,160,0,2,,,,,,,,,2,,,75,0
335040,note_on,324,0,5,,,,,,,,,5,,,56,49
335040,note_off,160,0,1,,,,,,,,,1,,,79,0
335040,note_off,160,0,2,,,,,,,,,2,,,76,0
335196,note_off,156,0,5,,,,,,,,,5,,,56,0
335200,note_on,160,0,2,,,,,,,,,2,,,73,49
335200,note_on,160,0,1,,,,,,,,,1,,,77,49
335360,note_on,0,0,1,,,,,,,,,1,,,78,49
335360,note_on,0,0,2,,,,,,,,,2,,,74,49
335360,note_off,160,0,2,,,,,,,,,2,,,73,0
335360,note_off,160,0,1,,,,,,,,,1,,,77,0
335520,note_off,160,0,1,,,,,,,,,1,,,78,0
335520,note_off,160,0,2,,,,,,,,,2,,,74,0
335520,note_on,0,0,2,,,,,,,,,2,,,73,48
335520,note_on,0,0,1,,,,,,,,,1,,,76,48
335680,note_on,484,0,5,,,,,,,,,5,,,45,48
335840,note_on,0,0,5,,,,,,,,,5,,,49,49
335840,note_off,160,0,5,,,,,,,,,5,,,45,0
335880,note_off,360,0,1,,,,,,,,,1,,,76,0
335880,note_off,360,0,2,,,,,,,,,2,,,73,0
336000,note_on,0,0,5,,,,,,,,,5,,,52,49
336000,note_off,160,0,5,,,,,,,,,5,,,49,0
336104,note_off,104,0,5,,,,,,,,,5,,,52,0
336160,note_on,56,0,5,,,,,,,,,5,,,57,50
336320,note_off,160,0,5,,,,,,,,,5,,,57,0
336320,note_on,0,0,5,,,,,,,,,5,,,58,51
336480,note_off,160,0,5,,,,,,,,,5,,,58,0
336480,note_on,0,0,5,,,,,,,,,5,,,59,53
336640,note_off,160,0,5,,,,,,,,,5,,,59,0
336640,note_on,0,0,5,,,,,,,,,5,,,60,54
336800,note_off,160,0,5,,,,,,,,,5,,,60,0
336800,note_on,0,0,5,,,,,,,,,5,,,61,55
336840,set_tempo,5640,1,0,,,,,,500000,,,,,,,
336960,note_off,160,0,5,,,,,,,,,5,,,61,0
336960,note_on,0,0,5,,,,,,,,,5,,,62,58
336960,note_on,1080,0,2,,,,,,,,,2,,,78,58
336960,note_on,1080,0,1,,,,,,,,,1,,,81,58
336960,set_tempo,120,1,0,,,,,,487804,,,,,,,
337120,note_on,0,0,2,,,,,,,,,2,,,76,59
337120,note_off,160,0,2,,,,,,,,,2,,,78,0
337120,note_on,0,0,1,,,,,,,,,1,,,79,59
337120,note_off,160,0,1,,,,,,,,,1,,,81,0
337280,note_off,160,0,1,,,,,,,,,1,,,79,0
337280,note_on,0,0,2,,,,,,,,,2,,,74,57
337280,note_on,0,0,1,,,,,,,,,1,,,78,57
337280,note_off,160,0,2,,,,,,,,,2,,,76,0
337320,note_off,360,0,5,,,,,,,,,5,,,62,0
337384,note_off,104,0,1,,,,,,,,,1,,,78,0
337384,note_off,104,0,2,,,,,,,,,2,,,74,0
337440,note_on,56,0,2,,,,,,,,,2,,,74,56
337440,note_on,56,0,1,,,,,,,,,1,,,78,56
337544,note_off,104,0,2,,,,,,,,,2,,,74,0
337544,note_off,104,0,1,,,,,,,,,1,,,78,0
337600,note_on,56,0,2,,,,,,,,,2,,,74,55
337600,note_on,56,0,1,,,,,,,,,1,,,78,55
337704,note_off,104,0,1,,,,,,,,,1,,,78,0
337704,note_off,104,0,2,,,,,,,,,2,,,74,0
337760,note_on,56,0,2,,,,,,,,,2,,,74,54
337760,note_on,56,0,1,,,,,,,,,1,,,78,54
337864,note_off,104,0,2,,,,,,,,,2,,,74,0
337864,note_off,104,0,1,,,,,,,,,1,,,78,0
337920,note_on,56,0,1,,,,,,,,,1,,,78,53
337920,note_on,56,0,2,,,,,,,,,2,,,74,53
338024,note_off,104,0,1,,,,,,,,,1,,,78,0
338024,note_off,104,0,2,,,,,,,,,2,,,74,0
338080,note_on,56,0,2,,,,,,,,,2,,,74,51
338080,note_on,56,0,1,,,,,,,,,1,,,78,51
338184,note_off,104,0,1,,,,,,,,,1,,,78,0
338184,note_off,104,0,2,,,,,,,,,2,,,74,0
338240,note_on,56,0,1,,,,,,,,,1,,,78,50
338240,note_on,56,0,2,,,,,,,,,2,,,74,50
338344,note_off,104,0,2,,,,,,,,,2,,,74,0
338344,note_off,104,0,1,,,,,,,,,1,,,78,0
338400,note_on,56,0,2,,,,,,,,,2,,,69,55
338400,note_on,1080,0,5,,,,,,,,,5,,,50,55
338400,note_on,56,0,1,,,,,,,,,1,,,78,55
338560,note_on,0,0,1,,,,,,,,,1,,,76,54
338560,note_off,160,0,2,,,,,,,,,2,,,69,0
338560,note_off,160,0,1,,,,,,,,,1,,,78,0
338560,note_on,0,0,2,,,,,,,,,2,,,67,54
338720,note_off,160,0,2,,,,,,,,,2,,,67,0
338720,note_on,0,0,1,,,,,,,,,1,,,74,53
338720,note_off,160,0,1,,,,,,,,,1,,,76,0
338720,note_on,0,0,2,,,,,,,,,2,,,66,53
338760,note_off,360,0,5,,,,,,,,,5,,,50,0
338824,note_off,104,0,2,,,,,,,,,2,,,66,0
338824,note_off,104,0,1,,,,,,,,,1,,,74,0
338880,note_on,56,0,2,,,,,,,,,2,,,66,52
338880,note_on,56,0,1,,,,,,,,,1,,,74,52
338984,note_off,104,0,2,,,,,,,,,2,,,66,0
338984,note_off,104,0,1,,,,,,,,,1,,,74,0
339040,note_on,56,0,2,,,,,,,,,2,,,66,51
339040,note_on,56,0,1,,,,,,,,,1,,,74,51
339144,note_off,104,0,2,,,,,,,,,2,,,66,0
339144,note_off,104,0,1,,,,,,,,,1,,,74,0
339200,note_on,56,0,2,,,,,,,,,2,,,66,50
339200,note_on,56,0,1,,,,,,,,,1,,,74,50
339304,note_off,104,0,2,,,,,,,,,2,,,66,0
339304,note_off,104,0,1,,,,,,,,,1,,,74,0
339360,note_on,56,0,1,,,,,,,,,1,,,74,49
339360,note_on,56,0,2,,,,,,,,,2,,,66,49
339464,note_off,104,0,1,,,,,,,,,1,,,74,0
339464,note_off,104,0,2,,,,,,,,,2,,,66,0
339520,note_on,56,0,1,,,,,,,,,1,,,74,48
339520,note_on,56,0,2,,,,,,,,,2,,,66,48
339624,note_off,104,0,1,,,,,,,,,1,,,74,0
339624,note_off,104,0,2,,,,,,,,,2,,,66,0
339680,note_on,56,0,2,,,,,,,,,2,,,66,52
339680,note_on,56,0,1,,,,,,,,,1,,,74,52
339784,note_off,104,0,2,,,,,,,,,2,,,66,0
339784,note_off,104,0,1,,,,,,,,,1,,,74,0
339840,note_on,1080,0,5,,,,,,,,,5,,,62,52
339996,note_off,156,0,5,,,,,,,,,5,,,62,0
340000,note_on,216,0,2,,,,,,,,,2,,,66,52
340000,note_on,216,0,1,,,,,,,,,1,,,74,52
340160,note_on,0,0,1,,,,,,,,,1,,,78,51
340160,note_off,160,0,1,,,,,,,,,1,,,74,0
340160,note_on,0,0,2,,,,,,,,,2,,,69,51
340160,note_off,160,0,2,,,,,,,,,2,,,66,0
340264,note_off,104,0,1,,,,,,,,,1,,,78,0
340264,note_off,104,0,2,,,,,,,,,2,,,69,0
340320,note_on,324,0,5,,,,,,,,,5,,,55,51
340476,note_off,156,0,5,,,,,,,,,5,,,55,0
340480,note_on,216,0,1,,,,,,,,,1,,,76,51
340480,note_on,216,0,2,,,,,,,,,2,,,67,51
340640,note_off,160,0,2,,,,,,,,,2,,,67,0
340640,note_on,0,0,2,,,,,,,,,2,,,71,50
340640,note_off,160,0,1,,,,,,,,,1,,,76,0
340640,note_on,0,0,1,,,,,,,,,1,,,79,50
340744,note_off,104,0,2,,,,,,,,,2,,,71,0
340744,note_off,104,0,1,,,,,,,,,1,,,79,0
340800,note_on,324,0,5,,,,,,,,,5,,,57,50
340956,note_off,156,0,5,,,,,,,,,5,,,57,0
340960,note_on,216,0,2,,,,,,,,,2,,,64,50
340960,note_on,216,0,1,,,,,,,,,1,,,73,50
341120,note_off,160,0,2,,,,,,,,,2,,,64,0
341120,note_on,0,0,2,,,,,,,,,2,,,67,51
341120,note_on,0,0,1,,,,,,,,,1,,,76,51
341120,note_off,160,0,1,,,,,,,,,1,,,73,0
341224,note_off,104,0,2,,,,,,,,,2,,,67,0
341224,note_off,104,0,1,,,,,,,,,1,,,76,0
341280,note_on,56,0,2,,,,,,,,,2,,,66,50
341280,note_on,324,0,5,,,,,,,,,5,,,50,52
341280,note_on,56,0,1,,,,,,,,,1,,,74,50
341384,note_off,104,0,1,,,,,,,,,1,,,74,0
341384,note_off,104,0,2,,,,,,,,,2,,,66,0
341440,note_on,56,0,1,,,,,,,,,1,,,69,51
341568,note_off,128,0,1,,,,,,,,,1,,,69,0
341600,note_on,32,0,1,,,,,,,,,1,,,71,53
341640,note_off,360,0,5,,,,,,,,,5,,,50,0
341728,note_off,128,0,1,,,,,,,,,1,,,71,0
341760,note_on,32,0,1,,,,,,,,,1,,,73,54
341888,note_off,128,0,1,,,,,,,,,1,,,73,0
341920,note_on,32,0,1,,,,,,,,,1,,,74,55
342048,note_off,128,0,1,,,,,,,,,1,,,74,0
342080,note_on,32,0,1,,,,,,,,,1,,,76,57
342208,note_off,128,0,1,,,,,,,,,1,,,76,0
342240,note_on,32,0,1,,,,,,,,,1,,,78,58
342368,note_off,128,0,1,,,,,,,,,1,,,78,0
342400,note_on,32,0,1,,,,,,,,,1,,,79,60
342528,note_off,128,0,1,,,,,,,,,1,,,79,0
342560,note_on,32,0,1,,,,,,,,,1,,,80,61
342660,set_tempo,5700,1,0,,,,,,491803,,,,,,,
342688,note_off,128,0,1,,,,,,,,,1,,,80,0
342720,set_tempo,60,1,0,,,,,,487804,,,,,,,
342720,note_on,1080,0,5,,,,,,,,,5,,,66,67
342720,note_on,0,0,5,,,,,,,,,5,,,69,67
342720,note_on,32,0,1,,,,,,,,,1,,,81,65
342880,note_on,0,0,5,,,,,,,,,5,,,64,66
342880,note_on,0,0,5,,,,,,,,,5,,,67,66
342880,note_off,0,0,5,,,,,,,,,5,,,66,0
342880,note_off,160,0,5,,,,,,,,,5,,,69,0
343040,note_on,0,0,5,,,,,,,,,5,,,66,65
343040,note_off,160,0,5,,,,,,,,,5,,,64,0
343040,note_off,0,0,5,,,,,,,,,5,,,67,0
343040,note_on,0,0,5,,,,,,,,,5,,,62,65
343144,note_off,104,0,5,,,,,,,,,5,,,66,0
343144,note_off,0,0,5,,,,,,,,,5,,,62,0
343200,note_on,0,0,5,,,,,,,,,5,,,66,64
343200,note_on,56,0,5,,,,,,,,,5,,,62,64
343304,note_off,104,0,5,,,,,,,,,5,,,66,0
343304,note_off,0,0,5,,,,,,,,,5,,,62,0
343360,note_on,56,0,5,,,,,,,,,5,,,62,63
343360,note_on,0,0,5,,,,,,,,,5,,,66,63
343440,note_on,0,0,1,,,,,,,,,1,,,83,62
343440,note_off,720,0,1,,,,,,,,,1,,,81,0
343464,note_off,0,0,5,,,,,,,,,5,,,62,0
343464,note_off,104,0,5,,,,,,,,,5,,,66,0
343500,note_on,0,0,1,,,,,,,,,1,,,81,61
343500,note_off,60,0,1,,,,,,,,,1,,,83,0
343520,note_on,0,0,5,,,,,,,,,5,,,66,62
343520,note_on,56,0,5,,,,,,,,,5,,,62,62
343560,note_off,60,0,1,,,,,,,,,1,,,81,0
343560,note_on,0,0,1,,,,,,,,,1,,,80,61
343620,note_off,60,0,1,,,,,,,,,1,,,80,0
343620,note_on,0,0,1,,,,,,,,,1,,,81,61
343624,note_off,0,0,5,,,,,,,,,5,,,62,0
343624,note_off,104,0,5,,,,,,,,,5,,,66,0
343680,note_on,0,0,1,,,,,,,,,1,,,86,61
343680,note_off,60,0,1,,,,,,,,,1,,,81,0
343680,note_on,56,0,5,,,,,,,,,5,,,62,61
343680,note_on,0,0,5,,,,,,,,,5,,,66,61
343784,note_off,104,0,5,,,,,,,,,5,,,66,0
343784,note_off,0,0,5,,,,,,,,,5,,,62,0
343840,note_on,56,0,5,,,,,,,,,5,,,62,60
343840,note_on,0,0,5,,,,,,,,,5,,,66,60
343872,note_off,192,0,1,,,,,,,,,1,,,86,0
343944,note_off,104,0,5,,,,,,,,,5,,,66,0
343944,note_off,0,0,5,,,,,,,,,5,,,62,0
344000,note_on,56,0,5,,,,,,,,,5,,,62,60
344000,note_on,0,0,5,,,,,,,,,5,,,66,60
344104,note_off,104,0,5,,,,,,,,,5,,,66,0
344104,note_off,0,0,5,,,,,,,,,5,,,62,0
344160,note_on,0,0,5,,,,,,,,,5,,,66,65
344160,note_on,288,0,1,,,,,,,,,1,,,78,65
344160,note_on,56,0,5,,,,,,,,,5,,,57,65
344320,note_off,160,0,5,,,,,,,,,5,,,66,0
344320,note_off,0,0,5,,,,,,,,,5,,,57,0
344320,note_on,0,0,5,,,,,,,,,5,,,55,64
344320,note_on,0,0,5,,,,,,,,,5,,,64,64
344480,note_on,0,0,5,,,,,,,,,5,,,62,63
344480,note_off,160,0,5,,,,,,,,,5,,,64,0
344480,note_off,0,0,5,,,,,,,,,5,,,55,0
344480,note_on,0,0,5,,,,,,,,,5,,,54,63
344584,note_off,0,0,5,,,,,,,,,5,,,54,0
344584,note_off,104,0,5,,,,,,,,,5,,,62,0
344640,note_on,0,0,5,,,,,,,,,5,,,54,63
344640,note_on,56,0,5,,,,,,,,,5,,,62,63
344744,note_off,0,0,5,,,,,,,,,5,,,62,0
344744,note_off,104,0,5,,,,,,,,,5,,,54,0
344800,note_on,0,0,5,,,,,,,,,5,,,54,62
344800,note_on,56,0,5,,,,,,,,,5,,,62,62
344880,note_off,720,0,1,,,,,,,,,1,,,78,0
344880,note_on,0,0,1,,,,,,,,,1,,,79,61
344904,note_off,0,0,5,,,,,,,,,5,,,62,0
344904,note_off,104,0,5,,,,,,,,,5,,,54,0
344940,note_off,60,0,1,,,,,,,,,1,,,79,0
344940,note_on,0,0,1,,,,,,,,,1,,,78,61
344960,note_on,0,0,5,,,,,,,,,5,,,54,61
344960,note_on,56,0,5,,,,,,,,,5,,,62,61
345000,note_off,60,0,1,,,,,,,,,1,,,78,0
345000,note_on,0,0,1,,,,,,,,,1,,,76,60
345060,note_on,0,0,1,,,,,,,,,1,,,78,60
345060,note_off,60,0,1,,,,,,,,,1,,,76,0
345064,note_off,0,0,5,,,,,,,,,5,,,62,0
345064,note_off,104,0,5,,,,,,,,,5,,,54,0
345120,note_on,0,0,1,,,,,,,,,1,,,81,59
345120,note_on,0,0,5,,,,,,,,,5,,,54,60
345120,note_off,60,0,1,,,,,,,,,1,,,78,0
345120,note_on,56,0,5,,,,,,,,,5,,,62,60
345224,note_off,0,0,5,,,,,,,,,5,,,62,0
345224,note_off,104,0,5,,,,,,,,,5,,,54,0
345280,note_on,56,0,5,,,,,,,,,5,,,62,59
345280,note_on,0,0,5,,,,,,,,,5,,,54,59
345312,note_off,192,0,1,,,,,,,,,1,,,81,0
345384,note_off,0,0,5,,,,,,,,,5,,,62,0
345384,note_off,104,0,5,,,,,,,,,5,,,54,0
345440,note_on,56,0,5,,,,,,,,,5,,,54,58
345440,note_on,0,0,5,,,,,,,,,5,,,62,58
345544,note_off,104,0,5,,,,,,,,,5,,,62,0
345544,note_off,0,0,5,,,,,,,,,5,,,54,0
345600,note_on,56,0,5,,,,,,,,,5,,,59,62
345756,note_off,156,0,5,,,,,,,,,5,,,59,0
345760,note_on,448,0,1,,,,,,,,,1,,,74,62
345760,note_on,4376,0,2,,,,,,,,,2,,,66,62
345920,note_on,0,0,2,,,,,,,,,2,,,69,62
345920,note_on,0,0,1,,,,,,,,,1,,,78,62
345920,note_off,160,0,1,,,,,,,,,1,,,74,0
345920,note_off,160,0,2,,,,,,,,,2,,,66,0
346024,note_off,104,0,1,,,,,,,,,1,,,78,0
346024,note_off,104,0,2,,,,,,,,,2,,,69,0
346080,note_on,324,0,5,,,,,,,,,5,,,55,61
346236,note_off,156,0,5,,,,,,,,,5,,,55,0
346240,note_on,216,0,2,,,,,,,,,2,,,67,61
346240,note_on,216,0,1,,,,,,,,,1,,,76,61
346400,note_on,0,0,2,,,,,,,,,2,,,71,61
346400,note_off,160,0,1,,,,,,,,,1,,,76,0
346400,note_on,0,0,1,,,,,,,,,1,,,79,61
346400,note_off,160,0,2,,,,,,,,,2,,,67,0
346504,note_off,104,0,1,,,,,,,,,1,,,79,0
346504,note_off,104,0,2,,,,,,,,,2,,,71,0
346560,note_on,324,0,5,,,,,,,,,5,,,57,60
346716,note_off,156,0,5,,,,,,,,,5,,,57,0
346720,note_on,216,0,1,,,,,,,,,1,,,73,60
346720,note_on,216,0,2,,,,,,,,,2,,,64,60
346880,note_off,160,0,1,,,,,,,,,1,,,73,0
346880,note_on,0,0,2,,,,,,,,,2,,,67,60
346880,note_on,0,0,1,,,,,,,,,1,,,76,60
346880,note_off,160,0,2,,,,,,,,,2,,,64,0
346984,note_off,104,0,1,,,,,,,,,1,,,76,0
346984,note_off,104,0,2,,,,,,,,,2,,,67,0
347040,note_on,56,0,1,,,,,,,,,1,,,74,59
347040,note_on,56,0,2,,,,,,,,,2,,,66,59
347200,note_on,484,0,5,,,,,,,,,5,,,62,61
347360,note_on,0,0,5,,,,,,,,,5,,,57,60
347360,note_off,160,0,5,,,,,,,,,5,,,62,0
347400,note_off,360,0,2,,,,,,,,,2,,,66,0
347400,note_off,360,0,1,,,,,,,,,1,,,74,0
347520,note_off,160,0,5,,,,,,,,,5,,,57,0
347520,note_on,0,0,5,,,,,,,,,5,,,54,59
347680,note_on,0,0,5,,,,,,,,,5,,,50,58
347680,note_off,160,0,5,,,,,,,,,5,,,54,0
347840,note_on,0,0,5,,,,,,,,,5,,,45,57
347840,note_off,160,0,5,,,,,,,,,5,,,50,0
347940,set_tempo,5220,1,0,,,,,,495867,,,,,,,
348000,note_off,160,0,5,,,,,,,,,5,,,45,0
348000,note_on,0,0,5,,,,,,,,,5,,,38,56
348000,set_tempo,60,1,0,,,,,,500000,,,,,,,
348240,note_off,240,0,5,,,,,,,,,5,,,38,0
348240,set_tempo,240,1,0,,,,,,1333333,,,,,,,
348360,set_tempo,120,1,0,,,,,,2222222,,,,,,,
348480,control_change,240,0,5,,,,,,,64,0,5,,,,
348480,control_change,23040,0,3,,,,,,,64,0,3,,,,
348480,marker,0,1,0,,,,,,,,,,,,,
348480,control_change,14244,0,4,,,,,,,64,0,4,,,,
348480,control_change,1080,0,2,,,,,,,64,0,2,,,,
348480,control_change,1080,0,1,,,,,,,64,0,1,,,,
348480,note_on,0,0,1,,,,,,,,,1,,,81,55
348480,set_tempo,120,1,0,,,,,,483870,,,,,,,
348636,note_off,156,0,1,,,,,,,,,1,,,81,0
348720,note_on,84,0,1,,,,,,,,,1,,,81,54
348876,note_off,156,0,1,,,,,,,,,1,,,81,0
348960,note_on,84,0,1,,,,,,,,,1,,,81,52
349116,note_off,156,0,1,,,,,,,,,1,,,81,0
349200,note_on,720,0,4,,,,,,,,,4,,,79,51
349200,note_on,720,0,5,,,,,,,,,5,,,73,51
349200,note_on,84,0,1,,,,,,,,,1,,,81,50
349356,note_off,156,0,4,,,,,,,,,4,,,79,0
349356,note_off,156,0,1,,,,,,,,,1,,,81,0
349356,note_off,156,0,5,,,,,,,,,5,,,73,0
349440,note_on,84,0,1,,,,,,,,,1,,,83,48
349440,note_on,84,0,5,,,,,,,,,5,,,74,46
349440,note_on,84,0,4,,,,,,,,,4,,,78,46
349500,note_off,60,0,1,,,,,,,,,1,,,83,0
349500,note_on,0,0,1,,,,,,,,,1,,,81,48
349560,note_off,60,0,1,,,,,,,,,1,,,81,0
349560,note_on,0,0,1,,,,,,,,,1,,,80,47
349620,note_off,60,0,1,,,,,,,,,1,,,80,0
349620,note_on,0,0,1,,,,,,,,,1,,,81,47
349632,note_off,192,0,5,,,,,,,,,5,,,74,0
349632,note_off,192,0,4,,,,,,,,,4,,,78,0
349680,note_on,0,0,1,,,,,,,,,1,,,86,46
349680,note_off,60,0,1,,,,,,,,,1,,,81,0
349836,note_off,156,0,1,,,,,,,,,1,,,86,0
349920,note_on,84,0,1,,,,,,,,,1,,,78,51
350076,note_off,156,0,1,,,,,,,,,1,,,78,0
350160,note_on,84,0,1,,,,,,,,,1,,,78,50
350316,note_off,156,0,1,,,,,,,,,1,,,78,0
350400,note_on,84,0,1,,,,,,,,,1,,,78,48
350556,note_off,156,0,1,,,,,,,,,1,,,78,0
350640,note_on,84,0,1,,,,,,,,,1,,,78,46
350640,note_on,1008,0,4,,,,,,,,,4,,,76,48
350640,note_on,1008,0,5,,,,,,,,,5,,,70,48
350796,note_off,156,0,4,,,,,,,,,4,,,76,0
350796,note_off,156,0,1,,,,,,,,,1,,,78,0
350796,note_off,156,0,5,,,,,,,,,5,,,70,0
350880,note_on,84,0,4,,,,,,,,,4,,,74,44
350880,note_on,84,0,5,,,,,,,,,5,,,71,44
350880,note_on,84,0,1,,,,,,,,,1,,,79,44
350940,note_off,60,0,1,,,,,,,,,1,,,79,0
350940,note_on,0,0,1,,,,,,,,,1,,,78,44
351000,note_off,60,0,1,,,,,,,,,1,,,78,0
351000,note_on,0,0,1,,,,,,,,,1,,,77,43
351060,note_on,0,0,1,,,,,,,,,1,,,78,43
351060,note_off,60,0,1,,,,,,,,,1,,,77,0
351072,note_off,192,0,5,,,,,,,,,5,,,71,0
351072,note_off,192,0,4,,,,,,,,,4,,,74,0
351120,note_on,0,0,1,,,,,,,,,1,,,83,42
351120,note_off,60,0,1,,,,,,,,,1,,,78,0
351276,note_off,156,0,1,,,,,,,,,1,,,83,0
351360,note_on,84,0,1,,,,,,,,,1,,,74,48
351516,note_off,156,0,1,,,,,,,,,1,,,74,0
351600,note_on,528,0,5,,,,,,,,,5,,,66,47
351600,note_on,528,0,4,,,,,,,,,4,,,69,47
351756,note_off,156,0,5,,,,,,,,,5,,,66,0
351756,note_off,156,0,4,,,,,,,,,4,,,69,0
351840,note_on,324,0,1,,,,,,,,,1,,,76,46
351996,note_off,156,0,1,,,,,,,,,1,,,76,0
352080,note_on,324,0,4,,,,,,,,,4,,,71,46
352080,note_on,324,0,5,,,,,,,,,5,,,67,46
352236,note_off,156,0,5,,,,,,,,,5,,,67,0
352236,note_off,156,0,4,,,,,,,,,4,,,71,0
352320,note_on,324,0,1,,,,,,,,,1,,,79,45
352476,note_off,156,0,1,,,,,,,,,1,,,79,0
352560,note_on,324,0,5,,,,,,,,,5,,,69,44
352560,note_on,324,0,4,,,,,,,,,4,,,73,44
352716,note_off,156,0,5,,,,,,,,,5,,,69,0
352716,note_off,156,0,4,,,,,,,,,4,,,73,0
352800,note_on,84,0,5,,,,,,,,,5,,,62,44
352800,note_on,324,0,1,,,,,,,,,1,,,78,44
353040,note_off,240,0,1,,,,,,,,,1,,,78,0
353040,note_on,0,0,1,,,,,,,,,1,,,74,42
353160,note_off,360,0,5,,,,,,,,,5,,,62,0
353160,note_off,120,0,1,,,,,,,,,1,,,74,0
353160,note_on,0,0,1,,,,,,,,,1,,,76,43
353238,note_off,78,0,1,,,,,,,,,1,,,76,0
353280,note_on,42,0,1,,,,,,,,,1,,,76,44
353400,note_on,0,0,1,,,,,,,,,1,,,78,45
353400,note_off,120,0,1,,,,,,,,,1,,,76,0
353478,note_off,78,0,1,,,,,,,,,1,,,78,0
353520,note_on,42,0,1,,,,,,,,,1,,,78,46
353640,note_off,120,0,1,,,,,,,,,1,,,78,0
353640,note_on,0,0,1,,,,,,,,,1,,,79,47
353718,note_off,78,0,1,,,,,,,,,1,,,79,0
353760,note_on,42,0,1,,,,,,,,,1,,,79,48
353880,note_on,0,0,1,,,,,,,,,1,,,81,49
353880,note_off,120,0,1,,,,,,,,,1,,,79,0
353958,note_off,78,0,1,,,,,,,,,1,,,81,0
354000,note_on,42,0,1,,,,,,,,,1,,,81,50
354120,note_off,120,0,1,,,,,,,,,1,,,81,0
354120,note_on,0,0,1,,,,,,,,,1,,,83,51
354180,set_tempo,5700,1,0,,,,,,487804,,,,,,,
354198,note_off,78,0,1,,,,,,,,,1,,,83,0
354240,set_tempo,60,1,0,,,,,,483870,,,,,,,
354240,note_on,42,0,1,,,,,,,,,1,,,81,59
354396,note_off,156,0,1,,,,,,,,,1,,,81,0
354480,note_on,1320,0,5,,,,,,,,,5,,,73,58
354480,note_on,1764,0,4,,,,,,,,,4,,,79,58
354480,note_on,84,0,1,,,,,,,,,1,,,81,58
354636,note_off,156,0,4,,,,,,,,,4,,,79,0
354636,note_off,156,0,5,,,,,,,,,5,,,73,0
354636,note_off,156,0,1,,,,,,,,,1,,,81,0
354720,note_on,84,0,4,,,,,,,,,4,,,78,56
354720,note_on,84,0,5,,,,,,,,,5,,,74,56
354720,note_on,84,0,1,,,,,,,,,1,,,81,57
354876,note_off,156,0,5,,,,,,,,,5,,,74,0
354876,note_off,156,0,4,,,,,,,,,4,,,78,0
354876,note_off,156,0,1,,,,,,,,,1,,,81,0
354960,note_on,84,0,5,,,,,,,,,5,,,73,53
354960,note_on,84,0,4,,,,,,,,,4,,,79,53
354960,note_on,84,0,1,,,,,,,,,1,,,81,55
355116,note_off,156,0,1,,,,,,,,,1,,,81,0
355116,note_off,156,0,4,,,,,,,,,4,,,79,0
355116,note_off,156,0,5,,,,,,,,,5,,,73,0
355200,note_on,84,0,1,,,,,,,,,1,,,81,54
355200,note_on,84,0,4,,,,,,,,,4,,,78,51
355200,note_on,84,0,5,,,,,,,,,5,,,74,51
355320,note_off,120,0,1,,,,,,,,,1,,,81,0
355320,note_on,0,0,1,,,,,,,,,1,,,83,53
355392,note_off,192,0,5,,,,,,,,,5,,,74,0
355392,note_off,192,0,4,,,,,,,,,4,,,78,0
355440,note_off,120,0,1,,,,,,,,,1,,,83,0
355440,note_on,0,0,1,,,,,,,,,1,,,85,53
355560,note_on,0,0,1,,,,,,,,,1,,,86,52
355560,note_off,120,0,1,,,,,,,,,1,,,85,0
355656,note_off,96,0,1,,,,,,,,,1,,,86,0
355680,note_on,24,0,1,,,,,,,,,1,,,78,57
355836,note_off,156,0,1,,,,,,,,,1,,,78,0
355920,note_on,528,0,4,,,,,,,,,4,,,76,57
355920,note_on,528,0,5,,,,,,,,,5,,,70,57
355920,note_on,84,0,1,,,,,,,,,1,,,78,56
356076,note_off,156,0,4,,,,,,,,,4,,,76,0
356076,note_off,156,0,5,,,,,,,,,5,,,70,0
356076,note_off,156,0,1,,,,,,,,,1,,,78,0
356160,note_on,84,0,1,,,,,,,,,1,,,78,54
356160,note_on,84,0,4,,,,,,,,,4,,,74,54
356160,note_on,84,0,5,,,,,,,,,5,,,71,54
356316,note_off,156,0,4,,,,,,,,,4,,,74,0
356316,note_off,156,0,1,,,,,,,,,1,,,78,0
356316,note_off,156,0,5,,,,,,,,,5,,,71,0
356400,note_on,84,0,5,,,,,,,,,5,,,70,51
356400,note_on,84,0,4,,,,,,,,,4,,,76,51
356400,note_on,84,0,1,,,,,,,,,1,,,78,52
356556,note_off,156,0,5,,,,,,,,,5,,,70,0
356556,note_off,156,0,1,,,,,,,,,1,,,78,0
356556,note_off,156,0,4,,,,,,,,,4,,,76,0
356640,note_on,84,0,1,,,,,,,,,1,,,78,50
356640,note_on,84,0,4,,,,,,,,,4,,,74,48
356640,note_on,84,0,5,,,,,,,,,5,,,71,48
356760,note_on,0,0,1,,,,,,,,,1,,,80,49
356760,note_off,120,0,1,,,,,,,,,1,,,78,0
356832,note_off,192,0,4,,,,,,,,,4,,,74,0
356832,note_off,192,0,5,,,,,,,,,5,,,71,0
356880,note_on,0,0,1,,,,,,,,,1,,,82,48
356880,note_off,120,0,1,,,,,,,,,1,,,80,0
357000,note_on,0,0,1,,,,,,,,,1,,,83,48
357000,note_off,120,0,1,,,,,,,,,1,,,82,0
357096,note_off,96,0,1,,,,,,,,,1,,,83,0
357120,note_on,24,0,1,,,,,,,,,1,,,74,54
357360,note_on,528,0,5,,,,,,,,,5,,,66,54
357360,note_on,528,0,4,,,,,,,,,4,,,69,54
357480,note_off,360,0,1,,,,,,,,,1,,,74,0
357480,note_on,0,0,1,,,,,,,,,1,,,78,54
357516,note_off,156,0,5,,,,,,,,,5,,,66,0
357516,note_off,156,0,4,,,,,,,,,4,,,69,0
357600,note_on,0,0,1,,,,,,,,,1,,,76,53
357600,note_off,120,0,1,,,,,,,,,1,,,78,0
357840,note_on,324,0,4,,,,,,,,,4,,,71,53
357840,note_on,324,0,5,,,,,,,,,5,,,67,53
357960,note_on,0,0,1,,,,,,,,,1,,,79,53
357960,note_off,360,0,1,,,,,,,,,1,,,76,0
357996,note_off,156,0,4,,,,,,,,,4,,,71,0
357996,note_off,156,0,5,,,,,,,,,5,,,67,0
358080,note_on,0,0,1,,,,,,,,,1,,,73,53
358080,note_off,120,0,1,,,,,,,,,1,,,79,0
358320,note_on,324,0,5,,,,,,,,,5,,,57,52
358320,note_on,324,0,4,,,,,,,,,4,,,67,52
358440,note_off,360,0,1,,,,,,,,,1,,,73,0
358440,note_on,0,0,1,,,,,,,,,1,,,76,52
358476,note_off,156,0,4,,,,,,,,,4,,,67,0
358476,note_off,156,0,5,,,,,,,,,5,,,57,0
358500,set_tempo,4260,1,0,,,,,,487804,,,,,,,
358560,note_on,0,0,1,,,,,,,,,1,,,74,52
358560,note_off,120,0,1,,,,,,,,,1,,,76,0
358800,note_on,324,0,5,,,,,,,,,5,,,54,52
358800,note_on,0,0,5,,,,,,,,,5,,,42,52
358920,note_off,360,0,1,,,,,,,,,1,,,74,0
358956,note_off,156,0,5,,,,,,,,,5,,,42,0
358956,note_off,0,0,5,,,,,,,,,5,,,54,0
359040,note_on,84,0,5,,,,,,,,,5,,,55,50
359040,note_on,0,0,5,,,,,,,,,5,,,43,50
359196,note_off,156,0,5,,,,,,,,,5,,,43,0
359196,note_off,0,0,5,,,,,,,,,5,,,55,0
359280,note_on,84,0,5,,,,,,,,,5,,,45,49
359280,note_on,0,0,5,,,,,,,,,5,,,57,49
359436,note_off,0,0,5,,,,,,,,,5,,,45,0
359436,note_off,156,0,5,,,,,,,,,5,,,57,0
359460,set_tempo,960,1,0,,,,,,495867,,,,,,,
359520,note_on,0,0,5,,,,,,,,,5,,,50,47
359520,note_on,84,0,5,,,,,,,,,5,,,38,47
359760,note_off,0,0,5,,,,,,,,,5,,,38,0
359760,set_tempo,300,1,0,,,,,,500000,,,,,,,
359760,note_off,240,0,5,,,,,,,,,5,,,50,0
360000,control_change,11520,0,2,,,,,,,64,0,2,,,,
360000,control_change,11520,0,3,,,,,,,64,0,3,,,,
360000,control_change,1080,0,1,,,,,,,64,0,1,,,,
360000,marker,0,1,0,,,,,,,,,,,,,
360000,set_tempo,240,1,0,,,,,,483870,,,,,,,
360000,control_change,1524,0,4,,,,,,,64,0,4,,,,
360000,note_on,0,0,1,,,,,,,,,1,,,81,55
360000,control_change,240,0,5,,,,,,,64,0,5,,,,
360156,note_off,156,0,1,,,,,,,,,1,,,81,0
360240,note_on,84,0,1,,,,,,,,,1,,,81,54
360396,note_off,156,0,1,,,,,,,,,1,,,81,0
360480,note_on,84,0,1,,,,,,,,,1,,,81,52
360636,note_off,156,0,1,,,,,,,,,1,,,81,0
360720,note_on,720,0,5,,,,,,,,,5,,,73,51
360720,note_on,84,0,1,,,,,,,,,1,,,81,50
360720,note_on,720,0,4,,,,,,,,,4,,,79,51
360876,note_off,156,0,4,,,,,,,,,4,,,79,0
360876,note_off,156,0,1,,,,,,,,,1,,,81,0
360876,note_off,156,0,5,,,,,,,,,5,,,73,0
360960,note_on,84,0,5,,,,,,,,,5,,,74,46
360960,note_on,84,0,4,,,,,,,,,4,,,78,46
360960,note_on,84,0,1,,,,,,,,,1,,,83,48
361020,note_on,0,0,1,,,,,,,,,1,,,81,48
361020,note_off,60,0,1,,,,,,,,,1,,,83,0
361080,note_off,60,0,1,,,,,,,,,1,,,81,0
361080,note_on,0,0,1,,,,,,,,,1,,,80,47
361140,note_off,60,0,1,,,,,,,,,1,,,80,0
361140,note_on,0,0,1,,,,,,,,,1,,,81,47
361152,note_off,192,0,5,,,,,,,,,5,,,74,0
361152,note_off,192,0,4,,,,,,,,,4,,,78,0
361200,note_off,60,0,1,,,,,,,,,1,,,81,0
361200,note_on,0,0,1,,,,,,,,,1,,,86,46
361356,note_off,156,0,1,,,,,,,,,1,,,86,0
361440,note_on,84,0,1,,,,,,,,,1,,,78,51
361596,note_off,156,0,1,,,,,,,,,1,,,78,0
361680,note_on,84,0,1,,,,,,,,,1,,,78,50
361836,note_off,156,0,1,,,,,,,,,1,,,78,0
361920,note_on,84,0,1,,,,,,,,,1,,,78,48
362076,note_off,156,0,1,,,,,,,,,1,,,78,0
362160,note_on,84,0,1,,,,,,,,,1,,,78,46
362160,note_on,1008,0,5,,,,,,,,,5,,,70,48
362160,note_on,1008,0,4,,,,,,,,,4,,,76,48
362316,note_off,156,0,4,,,,,,,,,4,,,76,0
362316,note_off,156,0,1,,,,,,,,,1,,,78,0
362316,note_off,156,0,5,,,,,,,,,5,,,70,0
362400,note_on,84,0,4,,,,,,,,,4,,,74,44
362400,note_on,84,0,1,,,,,,,,,1,,,79,44
362400,note_on,84,0,5,,,,,,,,,5,,,71,44
362460,note_off,60,0,1,,,,,,,,,1,,,79,0
362460,note_on,0,0,1,,,,,,,,,1,,,78,44
362520,note_off,60,0,1,,,,,,,,,1,,,78,0
362520,note_on,0,0,1,,,,,,,,,1,,,77,43
362580,note_off,60,0,1,,,,,,,,,1,,,77,0
362580,note_on,0,0,1,,,,,,,,,1,,,78,43
362592,note_off,192,0,4,,,,,,,,,4,,,74,0
362592,note_off,192,0,5,,,,,,,,,5,,,71,0
362640,note_off,60,0,1,,,,,,,,,1,,,78,0
362640,note_on,0,0,1,,,,,,,,,1,,,83,42
362796,note_off,156,0,1,,,,,,,,,1,,,83,0
362880,note_on,84,0,1,,,,,,,,,1,,,74,48
363036,note_off,156,0,1,,,,,,,,,1,,,74,0
363120,note_on,528,0,5,,,,,,,,,5,,,66,47
363120,note_on,528,0,4,,,,,,,,,4,,,69,47
363276,note_off,156,0,4,,,,,,,,,4,,,69,0
363276,note_off,156,0,5,,,,,,,,,5,,,66,0
363360,note_on,324,0,1,,,,,,,,,1,,,76,46
363516,note_off,156,0,1,,,,,,,,,1,,,76,0
363600,note_on,324,0,4,,,,,,,,,4,,,71,46
363600,note_on,324,0,5,,,,,,,,,5,,,67,46
363756,note_off,156,0,4,,,,,,,,,4,,,71,0
363756,note_off,156,0,5,,,,,,,,,5,,,67,0
363840,note_on,324,0,1,,,,,,,,,1,,,79,45
363996,note_off,156,0,1,,,,,,,,,1,,,79,0
364080,note_on,324,0,5,,,,,,,,,5,,,69,44
364080,note_on,324,0,4,,,,,,,,,4,,,73,44
364236,note_off,156,0,5,,,,,,,,,5,,,69,0
364236,note_off,156,0,4,,,,,,,,,4,,,73,0
364320,note_on,84,0,5,,,,,,,,,5,,,62,44
364320,note_on,324,0,1,,,,,,,,,1,,,78,44
364560,note_off,240,0,1,,,,,,,,,1,,,78,0
364560,note_on,0,0,1,,,,,,,,,1,,,74,42
364680,note_off,120,0,1,,,,,,,,,1,,,74,0
364680,note_on,0,0,1,,,,,,,,,1,,,76,43
364680,note_off,360,0,5,,,,,,,,,5,,,62,0
364758,note_off,78,0,1,,,,,,,,,1,,,76,0
364800,note_on,42,0,1,,,,,,,,,1,,,76,44
364920,note_off,120,0,1,,,,,,,,,1,,,76,0
364920,note_on,0,0,1,,,,,,,,,1,,,78,45
364998,note_off,78,0,1,,,,,,,,,1,,,78,0
365040,note_on,42,0,1,,,,,,,,,1,,,78,46
365160,note_off,120,0,1,,,,,,,,,1,,,78,0
365160,note_on,0,0,1,,,,,,,,,1,,,79,47
365238,note_off,78,0,1,,,,,,,,,1,,,79,0
365280,note_on,42,0,1,,,,,,,,,1,,,79,48
365400,note_off,120,0,1,,,,,,,,,1,,,79,0
365400,note_on,0,0,1,,,,,,,,,1,,,81,49
365478,note_off,78,0,1,,,,,,,,,1,,,81,0
365520,note_on,42,0,1,,,,,,,,,1,,,81,50
365640,note_off,120,0,1,,,,,,,,,1,,,81,0
365640,note_on,0,0,1,,,,,,,,,1,,,83,51
365700,set_tempo,5700,1,0,,,,,,487804,,,,,,,
365718,note_off,78,0,1,,,,,,,,,1,,,83,0
365760,note_on,42,0,1,,,,,,,,,1,,,81,59
365760,set_tempo,60,1,0,,,,,,483870,,,,,,,
365916,note_off,156,0,1,,,,,,,,,1,,,81,0
366000,note_on,1764,0,4,,,,,,,,,4,,,79,58
366000,note_on,1320,0,5,,,,,,,,,5,,,73,58
366000,note_on,84,0,1,,,,,,,,,1,,,81,58
366156,note_off,156,0,4,,,,,,,,,4,,,79,0
366156,note_off,156,0,5,,,,,,,,,5,,,73,0
366156,note_off,156,0,1,,,,,,,,,1,,,81,0
366240,note_on,84,0,5,,,,,,,,,5,,,74,56
366240,note_on,84,0,1,,,,,,,,,1,,,81,57
366240,note_on,84,0,4,,,,,,,,,4,,,78,56
366396,note_off,156,0,5,,,,,,,,,5,,,74,0
366396,note_off,156,0,4,,,,,,,,,4,,,78,0
366396,note_off,156,0,1,,,,,,,,,1,,,81,0
366480,note_on,84,0,1,,,,,,,,,1,,,81,55
366480,note_on,84,0,5,,,,,,,,,5,,,73,53
366480,note_on,84,0,4,,,,,,,,,4,,,79,53
366636,note_off,156,0,4,,,,,,,,,4,,,79,0
366636,note_off,156,0,5,,,,,,,,,5,,,73,0
366636,note_off,156,0,1,,,,,,,,,1,,,81,0
366720,note_on,84,0,1,,,,,,,,,1,,,81,54
366720,note_on,84,0,4,,,,,,,,,4,,,78,51
366720,note_on,84,0,5,,,,,,,,,5,,,74,51
366840,note_off,120,0,1,,,,,,,,,1,,,81,0
366840,note_on,0,0,1,,,,,,,,,1,,,83,53
366912,note_off,192,0,4,,,,,,,,,4,,,78,0
366912,note_off,192,0,5,,,,,,,,,5,,,74,0
366960,note_off,120,0,1,,,,,,,,,1,,,83,0
366960,note_on,0,0,1,,,,,,,,,1,,,85,53
367080,note_off,120,0,1,,,,,,,,,1,,,85,0
367080,note_on,0,0,1,,,,,,,,,1,,,86,52
367176,note_off,96,0,1,,,,,,,,,1,,,86,0
367200,note_on,24,0,1,,,,,,,,,1,,,78,57
367356,note_off,156,0,1,,,,,,,,,1,,,78,0
367440,note_on,528,0,5,,,,,,,,,5,,,70,57
367440,note_on,528,0,4,,,,,,,,,4,,,76,57
367440,note_on,84,0,1,,,,,,,,,1,,,78,56
367596,note_off,156,0,5,,,,,,,,,5,,,70,0
367596,note_off,156,0,4,,,,,,,,,4,,,76,0
367596,note_off,156,0,1,,,,,,,,,1,,,78,0
367680,note_on,84,0,4,,,,,,,,,4,,,74,54
367680,note_on,84,0,5,,,,,,,,,5,,,71,54
367680,note_on,84,0,1,,,,,,,,,1,,,78,54
367836,note_off,156,0,5,,,,,,,,,5,,,71,0
367836,note_off,156,0,4,,,,,,,,,4,,,74,0
367836,note_off,156,0,1,,,,,,,,,1,,,78,0
367920,note_on,84,0,1,,,,,,,,,1,,,78,52
367920,note_on,84,0,5,,,,,,,,,5,,,70,51
367920,note_on,84,0,4,,,,,,,,,4,,,76,51
368076,note_off,156,0,5,,,,,,,,,5,,,70,0
368076,note_off,156,0,1,,,,,,,,,1,,,78,0
368076,note_off,156,0,4,,,,,,,,,4,,,76,0
368160,note_on,84,0,4,,,,,,,,,4,,,74,48
368160,note_on,84,0,5,,,,,,,,,5,,,71,48
368160,note_on,84,0,1,,,,,,,,,1,,,78,50
368280,note_off,120,0,1,,,,,,,,,1,,,78,0
368280,note_on,0,0,1,,,,,,,,,1,,,80,49
368352,note_off,192,0,4,,,,,,,,,4,,,74,0
368352,note_off,192,0,5,,,,,,,,,5,,,71,0
368400,note_on,0,0,1,,,,,,,,,1,,,82,48
368400,note_off,120,0,1,,,,,,,,,1,,,80,0
368520,note_off,120,0,1,,,,,,,,,1,,,82,0
368520,note_on,0,0,1,,,,,,,,,1,,,83,48
368616,note_off,96,0,1,,,,,,,,,1,,,83,0
368640,note_on,24,0,1,,,,,,,,,1,,,74,54
368880,note_on,528,0,4,,,,,,,,,4,,,69,54
368880,note_on,528,0,5,,,,,,,,,5,,,66,54
369000,note_off,360,0,1,,,,,,,,,1,,,74,0
369000,note_on,0,0,1,,,,,,,,,1,,,78,54
369036,note_off,156,0,5,,,,,,,,,5,,,66,0
369036,note_off,156,0,4,,,,,,,,,4,,,69,0
369120,note_off,120,0,1,,,,,,,,,1,,,78,0
369120,note_on,0,0,1,,,,,,,,,1,,,76,53
369360,note_on,324,0,4,,,,,,,,,4,,,71,53
369360,note_on,324,0,5,,,,,,,,,5,,,67,53
369480,note_on,0,0,1,,,,,,,,,1,,,79,53
369480,note_off,360,0,1,,,,,,,,,1,,,76,0
369516,note_off,156,0,5,,,,,,,,,5,,,67,0
369516,note_off,156,0,4,,,,,,,,,4,,,71,0
369600,note_on,0,0,1,,,,,,,,,1,,,73,53
369600,note_off,120,0,1,,,,,,,,,1,,,79,0
369840,note_on,324,0,4,,,,,,,,,4,,,67,52
369840,note_on,324,0,5,,,,,,,,,5,,,57,52
369960,note_on,0,0,1,,,,,,,,,1,,,76,52
369960,note_off,360,0,1,,,,,,,,,1,,,73,0
369996,note_off,156,0,4,,,,,,,,,4,,,67,0
369996,note_off,156,0,5,,,,,,,,,5,,,57,0
370020,set_tempo,4260,1,0,,,,,,487804,,,,,,,
370080,note_on,0,0,1,,,,,,,,,1,,,74,52
370080,note_off,120,0,1,,,,,,,,,1,,,76,0
370320,note_on,0,0,5,,,,,,,,,5,,,54,52
370320,note_on,324,0,5,,,,,,,,,5,,,42,52
370440,note_off,360,0,1,,,,,,,,,1,,,74,0
370476,note_off,156,0,5,,,,,,,,,5,,,54,0
370476,note_off,0,0,5,,,,,,,,,5,,,42,0
370560,note_on,84,0,5,,,,,,,,,5,,,43,50
370560,note_on,0,0,5,,,,,,,,,5,,,55,50
370716,note_off,0,0,5,,,,,,,,,5,,,43,0
370716,note_off,156,0,5,,,,,,,,,5,,,55,0
370800,note_on,84,0,5,,,,,,,,,5,,,57,49
370800,note_on,0,0,5,,,,,,,,,5,,,45,49
370956,note_off,156,0,5,,,,,,,,,5,,,45,0
370956,note_off,0,0,5,,,,,,,,,5,,,57,0
370980,set_tempo,960,1,0,,,,,,495867,,,,,,,
371040,note_on,84,0,5,,,,,,,,,5,,,50,47
371040,note_on,0,0,5,,,,,,,,,5,,,38,47
371280,note_off,240,0,5,,,,,,,,,5,,,38,0
371280,note_off,0,0,5,,,,,,,,,5,,,50,0
371280,set_tempo,300,1,0,,,,,,500000,,,,,,,
371520,note_on,0,0,1,,,,,,,,,1,,,76,54
371520,control_change,11520,0,2,,,,,,,64,0,2,,,,
371520,marker,0,1,0,,,,,,,,,,,,,
371520,control_change,1080,0,1,,,,,,,64,0,1,,,,
371520,note_on,0,0,4,,,,,,,,,4,,,61,54
371520,control_change,1524,0,4,,,,,,,64,0,4,,,,
371520,note_on,0,0,2,,,,,,,,,2,,,69,54
371520,note_on,0,0,5,,,,,,,,,5,,,57,54
371520,control_change,240,0,5,,,,,,,64,0,5,,,,
371520,set_tempo,240,1,0,,,,,,483870,,,,,,,
371520,control_change,11520,0,3,,,,,,,64,0,3,,,,
371676,note_off,156,0,4,,,,,,,,,4,,,61,0
371676,note_off,156,0,2,,,,,,,,,2,,,69,0
371676,note_off,156,0,1,,,,,,,,,1,,,76,0
371676,note_off,156,0,5,,,,,,,,,5,,,57,0
371760,note_on,84,0,4,,,,,,,,,4,,,61,55
371760,note_on,84,0,1,,,,,,,,,1,,,76,55
371760,note_on,84,0,5,,,,,,,,,5,,,57,55
371760,note_on,84,0,2,,,,,,,,,2,,,69,55
371916,note_off,156,0,2,,,,,,,,,2,,,69,0
371916,note_off,156,0,1,,,,,,,,,1,,,76,0
371916,note_off,156,0,5,,,,,,,,,5,,,57,0
371916,note_off,156,0,4,,,,,,,,,4,,,61,0
372000,note_on,84,0,1,,,,,,,,,1,,,76,56
372000,note_on,84,0,4,,,,,,,,,4,,,61,56
372000,note_on,84,0,2,,,,,,,,,2,,,69,56
372000,note_on,84,0,5,,,,,,,,,5,,,57,56
372156,note_off,156,0,2,,,,,,,,,2,,,69,0
372156,note_off,156,0,4,,,,,,,,,4,,,61,0
372156,note_off,156,0,5,,,,,,,,,5,,,57,0
372156,note_off,156,0,1,,,,,,,,,1,,,76,0
372240,note_on,84,0,4,,,,,,,,,4,,,61,58
372240,note_on,84,0,2,,,,,,,,,2,,,69,58
372240,note_on,84,0,1,,,,,,,,,1,,,76,58
372240,note_on,84,0,5,,,,,,,,,5,,,57,58
372396,note_off,156,0,5,,,,,,,,,5,,,57,0
372396,note_off,156,0,1,,,,,,,,,1,,,76,0
372396,note_off,156,0,4,,,,,,,,,4,,,61,0
372396,note_off,156,0,2,,,,,,,,,2,,,69,0
372480,note_on,84,0,4,,,,,,,,,4,,,62,59
372480,note_on,84,0,5,,,,,,,,,5,,,57,59
372480,note_on,84,0,1,,,,,,,,,1,,,77,59
372480,note_on,84,0,2,,,,,,,,,2,,,69,59
372720,note_off,240,0,2,,,,,,,,,2,,,69,0
372720,note_on,0,0,4,,,,,,,,,4,,,63,61
372720,note_on,0,0,2,,,,,,,,,2,,,69,61
372720,note_off,240,0,5,,,,,,,,,5,,,57,0
372720,note_on,0,0,5,,,,,,,,,5,,,57,61
372720,note_off,240,0,1,,,,,,,,,1,,,77,0
372720,note_on,0,0,1,,,,,,,,,1,,,78,61
372720,note_off,240,0,4,,,,,,,,,4,,,62,0
372900,set_tempo,1380,1,0,,,,,,487804,,,,,,,
372960,note_off,240,0,5,,,,,,,,,5,,,57,0
372960,note_on,0,0,5,,,,,,,,,5,,,57,63
372960,note_off,240,0,2,,,,,,,,,2,,,69,0
372960,note_off,240,0,4,,,,,,,,,4,,,63,0
372960,note_on,0,0,4,,,,,,,,,4,,,64,63
372960,note_on,0,0,1,,,,,,,,,1,,,79,63
372960,note_off,240,0,1,,,,,,,,,1,,,78,0
372960,note_on,0,0,2,,,,,,,,,2,,,69,63
373680,note_on,0,0,1,,,,,,,,,1,,,78,53
373680,note_off,720,0,1,,,,,,,,,1,,,79,0
373680,note_off,720,0,4,,,,,,,,,4,,,64,0
373680,note_on,0,0,4,,,,,,,,,4,,,66,52
373760,note_off,80,0,1,,,,,,,,,1,,,78,0
373760,note_on,0,0,1,,,,,,,,,1,,,76,52
373840,note_off,80,0,1,,,,,,,,,1,,,76,0
373840,note_on,0,0,1,,,,,,,,,1,,,74,50
373920,note_off,80,0,1,,,,,,,,,1,,,74,0
373920,note_on,0,0,1,,,,,,,,,1,,,73,49
373920,note_on,0,0,4,,,,,,,,,4,,,67,49
373920,note_off,240,0,4,,,,,,,,,4,,,66,0
374112,note_off,192,0,1,,,,,,,,,1,,,73,0
374112,note_off,1152,0,2,,,,,,,,,2,,,69,0
374112,note_off,1152,0,5,,,,,,,,,5,,,57,0
374112,note_off,192,0,4,,,,,,,,,4,,,67,0
374340,set_tempo,1440,1,0,,,,,,495867,,,,,,,
374400,set_tempo,60,1,0,,,,,,483870,,,,,,,
374400,note_on,288,0,5,,,,,,,,,5,,,62,49
374400,note_on,288,0,1,,,,,,,,,1,,,78,49
374400,note_on,288,0,2,,,,,,,,,2,,,74,49
374556,note_off,156,0,2,,,,,,,,,2,,,74,0
374556,note_off,156,0,1,,,,,,,,,1,,,78,0
374556,note_off,156,0,5,,,,,,,,,5,,,62,0
374640,note_on,84,0,1,,,,,,,,,1,,,78,50
374640,note_on,84,0,2,,,,,,,,,2,,,74,50
374640,note_on,84,0,5,,,,,,,,,5,,,62,50
374796,note_off,156,0,1,,,,,,,,,1,,,78,0
374796,note_off,156,0,5,,,,,,,,,5,,,62,0
374796,note_off,156,0,2,,,,,,,,,2,,,74,0
374880,note_on,84,0,2,,,,,,,,,2,,,74,51
374880,note_on,84,0,5,,,,,,,,,5,,,62,51
374880,note_on,84,0,1,,,,,,,,,1,,,78,51
375036,note_off,156,0,2,,,,,,,,,2,,,74,0
375036,note_off,156,0,5,,,,,,,,,5,,,62,0
375036,note_off,156,0,1,,,,,,,,,1,,,78,0
375120,note_on,84,0,1,,,,,,,,,1,,,78,52
375120,note_on,84,0,5,,,,,,,,,5,,,62,52
375120,note_on,84,0,2,,,,,,,,,2,,,74,52
375276,note_off,156,0,1,,,,,,,,,1,,,78,0
375276,note_off,156,0,5,,,,,,,,,5,,,62,0
375276,note_off,156,0,2,,,,,,,,,2,,,74,0
375360,note_on,84,0,1,,,,,,,,,1,,,79,54
375360,note_on,84,0,5,,,,,,,,,5,,,62,54
375360,note_on,84,0,2,,,,,,,,,2,,,74,54
375360,note_on,1248,0,4,,,,,,,,,4,,,64,54
375600,note_on,0,0,2,,,,,,,,,2,,,74,56
375600,note_off,240,0,1,,,,,,,,,1,,,79,0
375600,note_on,0,0,1,,,,,,,,,1,,,80,56
375600,note_on,0,0,4,,,,,,,,,4,,,65,56
375600,note_off,240,0,4,,,,,,,,,4,,,64,0
375600,note_on,0,0,5,,,,,,,,,5,,,62,56
375600,note_off,240,0,5,,,,,,,,,5,,,62,0
375600,note_off,240,0,2,,,,,,,,,2,,,74,0
375780,set_tempo,1380,1,0,,,,,,487804,,,,,,,
375840,note_on,0,0,2,,,,,,,,,2,,,74,59
375840,note_off,240,0,2,,,,,,,,,2,,,74,0
375840,note_off,240,0,4,,,,,,,,,4,,,65,0
375840,note_on,0,0,4,,,,,,,,,4,,,66,59
375840,note_on,0,0,1,,,,,,,,,1,,,81,59
375840,note_off,240,0,5,,,,,,,,,5,,,62,0
375840,note_off,240,0,1,,,,,,,,,1,,,80,0
375840,note_on,0,0,5,,,,,,,,,5,,,62,59
376560,note_on,0,0,4,,,,,,,,,4,,,67,49
376560,note_off,720,0,4,,,,,,,,,4,,,66,0
376560,note_on,0,0,1,,,,,,,,,1,,,79,49
376560,note_off,720,0,1,,,,,,,,,1,,,81,0
376640,note_on,0,0,1,,,,,,,,,1,,,78,48
376640,note_off,80,0,1,,,,,,,,,1,,,79,0
376640,note_on,0,0,4,,,,,,,,,4,,,69,48
376640,note_off,80,0,4,,,,,,,,,4,,,67,0
376720,note_on,0,0,4,,,,,,,,,4,,,67,47
376720,note_off,80,0,1,,,,,,,,,1,,,78,0
376720,note_on,0,0,1,,,,,,,,,1,,,76,47
376720,note_off,80,0,4,,,,,,,,,4,,,69,0
376792,note_off,952,0,2,,,,,,,,,2,,,74,0
376800,note_off,80,0,1,,,,,,,,,1,,,76,0
376800,set_tempo,1020,1,0,,,,,,495867,,,,,,,
376800,note_off,80,0,4,,,,,,,,,4,,,67,0
376800,note_on,0,0,1,,,,,,,,,1,,,74,46
376800,note_on,0,0,4,,,,,,,,,4,,,66,46
376920,set_tempo,120,1,0,,,,,,483870,,,,,,,
376992,note_off,1152,0,5,,,,,,,,,5,,,62,0
376992,note_off,192,0,4,,,,,,,,,4,,,66,0
376992,note_off,192,0,1,,,,,,,,,1,,,74,0
377040,note_on,248,0,2,,,,,,,,,2,,,83,45
377040,note_on,48,0,1,,,,,,,,,1,,,86,45
377280,note_on,0,0,1,,,,,,,,,1,,,85,46
377280,note_on,0,0,2,,,,,,,,,2,,,81,46
377280,note_off,240,0,2,,,,,,,,,2,,,83,0
377280,note_off,240,0,1,,,,,,,,,1,,,86,0
377520,note_on,0,0,2,,,,,,,,,2,,,79,47
377520,note_off,240,0,2,,,,,,,,,2,,,81,0
377520,note_on,528,0,5,,,,,,,,,5,,,61,47
377520,note_on,0,0,1,,,,,,,,,1,,,83,47
377520,note_off,240,0,1,,,,,,,,,1,,,85,0
377760,note_off,240,0,5,,,,,,,,,5,,,61,0
377760,note_off,240,0,1,,,,,,,,,1,,,83,0
377760,note_on,0,0,1,,,,,,,,,1,,,81,48
377760,note_on,0,0,5,,,,,,,,,5,,,62,48
377760,note_on,0,0,2,,,,,,,,,2,,,78,48
377760,note_off,240,0,2,,,,,,,,,2,,,79,0
378000,note_on,0,0,5,,,,,,,,,5,,,64,49
378000,note_off,240,0,5,,,,,,,,,5,,,62,0
378240,note_on,0,0,5,,,,,,,,,5,,,66,51
378240,note_off,240,0,5,,,,,,,,,5,,,64,0
378420,note_off,180,0,5,,,,,,,,,5,,,66,0
378420,note_off,660,0,1,,,,,,,,,1,,,81,0
378420,note_off,660,0,2,,,,,,,,,2,,,78,0
378480,note_on,60,0,1,,,,,,,,,1,,,86,52
378480,note_on,60,0,2,,,,,,,,,2,,,83,52
378720,note_off,240,0,1,,,,,,,,,1,,,86,0
378720,note_on,0,0,2,,,,,,,,,2,,,81,53
378720,note_off,240,0,2,,,,,,,,,2,,,83,0
378720,note_on,0,0,1,,,,,,,,,1,,,85,53
378960,note_on,540,0,5,,,,,,,,,5,,,73,54
378960,note_on,0,0,2,,,,,,,,,2,,,79,54
378960,note_off,240,0,2,,,,,,,,,2,,,81,0
378960,note_on,0,0,1,,,,,,,,,1,,,83,54
378960,note_off,240,0,1,,,,,,,,,1,,,85,0
379200,note_on,0,0,2,,,,,,,,,2,,,78,55
379200,note_off,240,0,2,,,,,,,,,2,,,79,0
379200,note_on,0,0,1,,,,,,,,,1,,,81,55
379200,note_off,240,0,1,,,,,,,,,1,,,83,0
379200,note_off,240,0,5,,,,,,,,,5,,,73,0
379200,note_on,0,0,5,,,,,,,,,5,,,74,55
379440,note_on,0,0,5,,,,,,,,,5,,,76,56
379440,note_off,240,0,5,,,,,,,,,5,,,74,0
379680,note_on,0,0,5,,,,,,,,,5,,,78,57
379680,note_off,240,0,5,,,,,,,,,5,,,76,0
379867,note_off,667,0,1,,,,,,,,,1,,,81,0
379872,note_off,192,0,5,,,,,,,,,5,,,78,0
379920,note_off,720,0,2,,,,,,,,,2,,,78,0
379920,note_on,53,0,1,,,,,,,,,1,,,83,58
379920,note_on,48,0,5,,,,,,,,,5,,,75,58
380160,note_off,240,0,5,,,,,,,,,5,,,75,0
380160,note_on,0,0,5,,,,,,,,,5,,,76,59
380160,note_off,240,0,1,,,,,,,,,1,,,83,0
380160,note_on,0,0,1,,,,,,,,,1,,,79,59
380400,note_off,240,0,5,,,,,,,,,5,,,76,0
380400,note_off,240,0,1,,,,,,,,,1,,,79,0
380400,note_on,0,0,5,,,,,,,,,5,,,73,60
380400,note_on,0,0,1,,,,,,,,,1,,,81,60
380640,note_on,0,0,1,,,,,,,,,1,,,78,61
380640,note_off,240,0,1,,,,,,,,,1,,,81,0
380640,note_on,0,0,5,,,,,,,,,5,,,74,61
380640,note_off,240,0,5,,,,,,,,,5,,,73,0
380880,note_on,0,0,1,,,,,,,,,1,,,79,62
380880,note_off,240,0,1,,,,,,,,,1,,,78,0
380880,note_on,3888,0,4,,,,,,,,,4,,,74,62
380880,note_on,0,0,5,,,,,,,,,5,,,71,62
380880,note_off,240,0,5,,,,,,,,,5,,,74,0
381120,note_on,0,0,4,,,,,,,,,4,,,74,63
381120,note_off,240,0,5,,,,,,,,,5,,,71,0
381120,note_on,0,0,1,,,,,,,,,1,,,81,63
381120,note_off,240,0,4,,,,,,,,,4,,,74,0
381120,note_on,0,0,5,,,,,,,,,5,,,66,63
381120,note_off,240,0,1,,,,,,,,,1,,,79,0
381360,note_off,240,0,1,,,,,,,,,1,,,81,0
381360,note_on,0,0,5,,,,,,,,,5,,,68,65
381360,note_on,0,0,1,,,,,,,,,1,,,83,65
381360,note_off,240,0,5,,,,,,,,,5,,,66,0
381360,note_on,0,0,4,,,,,,,,,4,,,74,65
381360,note_off,240,0,4,,,,,,,,,4,,,74,0
381495,set_tempo,4575,1,0,,,,,,487804,,,,,,,
381552,note_off,192,0,1,,,,,,,,,1,,,83,0
381600,note_on,48,0,1,,,,,,,,,1,,,78,66
381600,note_on,0,0,5,,,,,,,,,5,,,69,66
381600,note_off,240,0,5,,,,,,,,,5,,,68,0
381600,note_off,240,0,4,,,,,,,,,4,,,74,0
381600,note_on,0,0,4,,,,,,,,,4,,,74,66
381960,note_off,360,0,1,,,,,,,,,1,,,78,0
381960,note_on,0,0,1,,,,,,,,,1,,,79,60
382020,note_off,60,0,1,,,,,,,,,1,,,79,0
382020,note_on,0,0,1,,,,,,,,,1,,,78,59
382080,set_tempo,585,1,0,,,,,,495867,,,,,,,
382080,note_on,0,0,4,,,,,,,,,4,,,73,58
382080,note_off,480,0,4,,,,,,,,,4,,,74,0
382080,note_off,60,0,1,,,,,,,,,1,,,78,0
382080,note_on,0,0,1,,,,,,,,,1,,,76,58
382200,set_tempo,120,1,0,,,,,,487804,,,,,,,
382236,note_off,156,0,1,,,,,,,,,1,,,76,0
382320,note_on,84,0,1,,,,,,,,,1,,,78,53
382440,note_off,840,0,5,,,,,,,,,5,,,69,0
382440,note_off,360,0,4,,,,,,,,,4,,,73,0
382476,note_off,156,0,1,,,,,,,,,1,,,78,0
382560,note_on,84,0,1,,,,,,,,,1,,,79,53
382716,note_off,156,0,1,,,,,,,,,1,,,79,0
382800,note_on,84,0,1,,,,,,,,,1,,,80,51
382920,set_tempo,720,1,0,,,,,,495867,,,,,,,
382956,note_off,156,0,1,,,,,,,,,1,,,80,0
383040,set_tempo,120,1,0,,,,,,483870,,,,,,,
383040,note_on,84,0,1,,,,,,,,,1,,,81,53
383196,note_off,156,0,1,,,,,,,,,1,,,81,0
383280,note_on,84,0,1,,,,,,,,,1,,,81,52
383436,note_off,156,0,1,,,,,,,,,1,,,81,0
383520,note_on,84,0,1,,,,,,,,,1,,,81,50
383676,note_off,156,0,1,,,,,,,,,1,,,81,0
383760,note_on,1320,0,5,,,,,,,,,5,,,73,49
383760,note_on,1320,0,4,,,,,,,,,4,,,79,49
383760,note_on,84,0,1,,,,,,,,,1,,,81,48
383916,note_off,156,0,5,,,,,,,,,5,,,73,0
383916,note_off,156,0,4,,,,,,,,,4,,,79,0
383916,note_off,156,0,1,,,,,,,,,1,,,81,0
384000,note_on,84,0,5,,,,,,,,,5,,,74,45
384000,note_on,84,0,4,,,,,,,,,4,,,78,45
384000,note_on,84,0,1,,,,,,,,,1,,,83,46
384060,note_on,0,0,1,,,,,,,,,1,,,81,46
384060,note_off,60,0,1,,,,,,,,,1,,,83,0
384120,note_off,60,0,1,,,,,,,,,1,,,81,0
384120,note_on,0,0,1,,,,,,,,,1,,,80,45
384180,note_off,60,0,1,,,,,,,,,1,,,80,0
384180,note_on,0,0,1,,,,,,,,,1,,,81,45
384192,note_off,192,0,4,,,,,,,,,4,,,78,0
384192,note_off,192,0,5,,,,,,,,,5,,,74,0
384240,note_off,60,0,1,,,,,,,,,1,,,81,0
384240,note_on,0,0,1,,,,,,,,,1,,,86,44
384396,note_off,156,0,1,,,,,,,,,1,,,86,0
384480,note_on,84,0,1,,,,,,,,,1,,,78,49
384636,note_off,156,0,1,,,,,,,,,1,,,78,0
384720,note_on,84,0,1,,,,,,,,,1,,,78,47
384876,note_off,156,0,1,,,,,,,,,1,,,78,0
384960,note_on,84,0,1,,,,,,,,,1,,,78,46
385116,note_off,156,0,1,,,,,,,,,1,,,78,0
385200,note_on,84,0,1,,,,,,,,,1,,,78,44
385200,note_on,1008,0,4,,,,,,,,,4,,,76,46
385200,note_on,1008,0,5,,,,,,,,,5,,,70,46
385356,note_off,156,0,1,,,,,,,,,1,,,78,0
385356,note_off,156,0,5,,,,,,,,,5,,,70,0
385356,note_off,156,0,4,,,,,,,,,4,,,76,0
385440,note_on,84,0,4,,,,,,,,,4,,,74,42
385440,note_on,84,0,1,,,,,,,,,1,,,79,42
385440,note_on,84,0,5,,,,,,,,,5,,,71,42
385500,note_off,60,0,1,,,,,,,,,1,,,79,0
385500,note_on,0,0,1,,,,,,,,,1,,,78,41
385560,note_off,60,0,1,,,,,,,,,1,,,78,0
385560,note_on,0,0,1,,,,,,,,,1,,,77,41
385620,note_off,60,0,1,,,,,,,,,1,,,77,0
385620,note_on,0,0,1,,,,,,,,,1,,,78,40
385632,note_off,192,0,4,,,,,,,,,4,,,74,0
385632,note_off,192,0,5,,,,,,,,,5,,,71,0
385680,note_off,60,0,1,,,,,,,,,1,,,78,0
385680,note_on,0,0,1,,,,,,,,,1,,,83,40
385836,note_off,156,0,1,,,,,,,,,1,,,83,0
385920,note_on,84,0,1,,,,,,,,,1,,,74,45
386076,note_off,156,0,1,,,,,,,,,1,,,74,0
386160,note_on,528,0,5,,,,,,,,,5,,,66,45
386160,note_on,528,0,4,,,,,,,,,4,,,69,45
386316,note_off,156,0,4,,,,,,,,,4,,,69,0
386316,note_off,156,0,5,,,,,,,,,5,,,66,0
386400,note_on,324,0,1,,,,,,,,,1,,,76,44
386556,note_off,156,0,1,,,,,,,,,1,,,76,0
386640,note_on,324,0,4,,,,,,,,,4,,,71,43
386640,note_on,324,0,5,,,,,,,,,5,,,67,43
386796,note_off,156,0,5,,,,,,,,,5,,,67,0
386796,note_off,156,0,4,,,,,,,,,4,,,71,0
386880,note_on,324,0,1,,,,,,,,,1,,,79,43
387036,note_off,156,0,1,,,,,,,,,1,,,79,0
387120,note_on,324,0,5,,,,,,,,,5,,,69,42
387120,note_on,324,0,4,,,,,,,,,4,,,73,42
387276,note_off,156,0,4,,,,,,,,,4,,,73,0
387276,note_off,156,0,5,,,,,,,,,5,,,69,0
387360,note_on,84,0,5,,,,,,,,,5,,,62,42
387360,note_on,324,0,1,,,,,,,,,1,,,78,42
387600,note_off,240,0,1,,,,,,,,,1,,,78,0
387600,note_on,0,0,1,,,,,,,,,1,,,74,42
387720,note_off,360,0,5,,,,,,,,,5,,,62,0
387720,note_off,120,0,1,,,,,,,,,1,,,74,0
387720,note_on,0,0,1,,,,,,,,,1,,,76,43
387798,note_off,78,0,1,,,,,,,,,1,,,76,0
387840,note_on,42,0,1,,,,,,,,,1,,,76,44
387960,note_off,120,0,1,,,,,,,,,1,,,76,0
387960,note_on,0,0,1,,,,,,,,,1,,,78,45
388038,note_off,78,0,1,,,,,,,,,1,,,78,0
388080,note_on,42,0,1,,,,,,,,,1,,,78,46
388200,note_off,120,0,1,,,,,,,,,1,,,78,0
388200,note_on,0,0,1,,,,,,,,,1,,,79,47
388278,note_off,78,0,1,,,,,,,,,1,,,79,0
388320,note_on,42,0,1,,,,,,,,,1,,,79,48
388440,note_on,0,0,1,,,,,,,,,1,,,81,49
388440,note_off,120,0,1,,,,,,,,,1,,,79,0
388518,note_off,78,0,1,,,,,,,,,1,,,81,0
388560,note_on,42,0,1,,,,,,,,,1,,,81,50
388680,note_off,120,0,1,,,,,,,,,1,,,81,0
388680,note_on,0,0,1,,,,,,,,,1,,,83,51
388740,set_tempo,5700,1,0,,,,,,487804,,,,,,,
388758,note_off,78,0,1,,,,,,,,,1,,,83,0
388800,note_on,42,0,1,,,,,,,,,1,,,81,61
388800,set_tempo,60,1,0,,,,,,483870,,,,,,,
388956,note_off,156,0,1,,,,,,,,,1,,,81,0
389040,note_on,1764,0,4,,,,,,,,,4,,,79,60
389040,note_on,84,0,1,,,,,,,,,1,,,81,60
389040,note_on,1320,0,5,,,,,,,,,5,,,73,60
389196,note_off,156,0,5,,,,,,,,,5,,,73,0
389196,note_off,156,0,1,,,,,,,,,1,,,81,0
389196,note_off,156,0,4,,,,,,,,,4,,,79,0
389280,note_on,84,0,5,,,,,,,,,5,,,74,58
389280,note_on,84,0,1,,,,,,,,,1,,,81,58
389280,note_on,84,0,4,,,,,,,,,4,,,78,58
389436,note_off,156,0,4,,,,,,,,,4,,,78,0
389436,note_off,156,0,5,,,,,,,,,5,,,74,0
389436,note_off,156,0,1,,,,,,,,,1,,,81,0
389520,note_on,84,0,5,,,,,,,,,5,,,73,55
389520,note_on,84,0,1,,,,,,,,,1,,,81,56
389520,note_on,84,0,4,,,,,,,,,4,,,79,55
389676,note_off,156,0,5,,,,,,,,,5,,,73,0
389676,note_off,156,0,1,,,,,,,,,1,,,81,0
389676,note_off,156,0,4,,,,,,,,,4,,,79,0
389760,note_on,84,0,4,,,,,,,,,4,,,78,53
389760,note_on,84,0,1,,,,,,,,,1,,,81,54
389760,note_on,84,0,5,,,,,,,,,5,,,74,53
389880,note_off,120,0,1,,,,,,,,,1,,,81,0
389880,note_on,0,0,1,,,,,,,,,1,,,83,54
389952,note_off,192,0,5,,,,,,,,,5,,,74,0
389952,note_off,192,0,4,,,,,,,,,4,,,78,0
390000,note_on,0,0,1,,,,,,,,,1,,,85,53
390000,note_off,120,0,1,,,,,,,,,1,,,83,0
390120,note_on,0,0,1,,,,,,,,,1,,,86,52
390120,note_off,120,0,1,,,,,,,,,1,,,85,0
390216,note_off,96,0,1,,,,,,,,,1,,,86,0
390240,note_on,24,0,1,,,,,,,,,1,,,78,59
390396,note_off,156,0,1,,,,,,,,,1,,,78,0
390480,note_on,528,0,4,,,,,,,,,4,,,76,59
390480,note_on,528,0,5,,,,,,,,,5,,,70,59
390480,note_on,84,0,1,,,,,,,,,1,,,78,58
390636,note_off,156,0,4,,,,,,,,,4,,,76,0
390636,note_off,156,0,5,,,,,,,,,5,,,70,0
390636,note_off,156,0,1,,,,,,,,,1,,,78,0
390720,note_on,84,0,1,,,,,,,,,1,,,78,56
390720,note_on,84,0,4,,,,,,,,,4,,,74,57
390720,note_on,84,0,5,,,,,,,,,5,,,71,57
390876,note_off,156,0,1,,,,,,,,,1,,,78,0
390876,note_off,156,0,4,,,,,,,,,4,,,74,0
390876,note_off,156,0,5,,,,,,,,,5,,,71,0
390960,note_on,84,0,4,,,,,,,,,4,,,76,54
390960,note_on,84,0,5,,,,,,,,,5,,,70,54
390960,note_on,84,0,1,,,,,,,,,1,,,78,54
391116,note_off,156,0,1,,,,,,,,,1,,,78,0
391116,note_off,156,0,5,,,,,,,,,5,,,70,0
391116,note_off,156,0,4,,,,,,,,,4,,,76,0
391200,note_on,84,0,4,,,,,,,,,4,,,74,51
391200,note_on,84,0,5,,,,,,,,,5,,,71,51
391200,note_on,84,0,1,,,,,,,,,1,,,78,52
391320,note_on,0,0,1,,,,,,,,,1,,,80,52
391320,note_off,120,0,1,,,,,,,,,1,,,78,0
391392,note_off,192,0,4,,,,,,,,,4,,,74,0
391392,note_off,192,0,5,,,,,,,,,5,,,71,0
391440,note_on,0,0,1,,,,,,,,,1,,,82,51
391440,note_off,120,0,1,,,,,,,,,1,,,80,0
391560,note_on,0,0,1,,,,,,,,,1,,,83,50
391560,note_off,120,0,1,,,,,,,,,1,,,82,0
391656,note_off,96,0,1,,,,,,,,,1,,,83,0
391680,note_on,24,0,1,,,,,,,,,1,,,74,56
391920,note_on,528,0,5,,,,,,,,,5,,,66,56
391920,note_on,528,0,4,,,,,,,,,4,,,69,56
392040,note_off,360,0,1,,,,,,,,,1,,,74,0
392040,note_on,0,0,1,,,,,,,,,1,,,78,56
392076,note_off,156,0,4,,,,,,,,,4,,,69,0
392076,note_off,156,0,5,,,,,,,,,5,,,66,0
392160,note_on,0,0,1,,,,,,,,,1,,,76,56
392160,note_off,120,0,1,,,,,,,,,1,,,78,0
392400,note_on,324,0,5,,,,,,,,,5,,,67,55
392400,note_on,324,0,4,,,,,,,,,4,,,71,55
392520,note_on,0,0,1,,,,,,,,,1,,,79,55
392520,note_off,360,0,1,,,,,,,,,1,,,76,0
392556,note_off,156,0,4,,,,,,,,,4,,,71,0
392556,note_off,156,0,5,,,,,,,,,5,,,67,0
392640,note_off,120,0,1,,,,,,,,,1,,,79,0
392640,note_on,0,0,1,,,,,,,,,1,,,73,55
392880,note_on,324,0,4,,,,,,,,,4,,,67,54
392880,note_on,324,0,5,,,,,,,,,5,,,57,54
393000,note_off,360,0,1,,,,,,,,,1,,,73,0
393000,note_on,0,0,1,,,,,,,,,1,,,76,54
393036,note_off,156,0,4,,,,,,,,,4,,,67,0
393036,note_off,156,0,5,,,,,,,,,5,,,57,0
393060,set_tempo,4260,1,0,,,,,,487804,,,,,,,
393120,note_off,120,0,1,,,,,,,,,1,,,76,0
393120,note_on,0,0,1,,,,,,,,,1,,,74,57
393360,note_on,324,0,5,,,,,,,,,5,,,42,56
393360,note_on,0,0,5,,,,,,,,,5,,,54,56
393480,note_off,360,0,1,,,,,,,,,1,,,74,0
393516,note_off,156,0,5,,,,,,,,,5,,,54,0
393516,note_off,0,0,5,,,,,,,,,5,,,42,0
393600,note_on,0,0,5,,,,,,,,,5,,,55,53
393600,note_on,84,0,5,,,,,,,,,5,,,43,53
393756,note_off,0,0,5,,,,,,,,,5,,,43,0
393756,note_off,156,0,5,,,,,,,,,5,,,55,0
393840,note_on,0,0,5,,,,,,,,,5,,,45,51
393840,note_on,84,0,5,,,,,,,,,5,,,57,51
393960,set_tempo,900,1,0,,,,,,495867,,,,,,,
393996,note_off,0,0,5,,,,,,,,,5,,,57,0
393996,note_off,156,0,5,,,,,,,,,5,,,45,0
394080,set_tempo,120,1,0,,,,,,517241,,,,,,,
394080,note_on,84,0,5,,,,,,,,,5,,,50,49
394080,note_on,0,0,5,,,,,,,,,5,,,38,49
394272,note_off,192,0,5,,,,,,,,,5,,,38,0
394272,note_off,0,0,5,,,,,,,,,5,,,50,0
394560,note_on,0,0,2,,,,,,,,,2,,,69,54
394560,note_on,0,0,4,,,,,,,,,4,,,61,54
394560,control_change,1524,0,4,,,,,,,64,0,4,,,,
394560,marker,0,1,0,,,,,,,,,,,,,
394560,set_tempo,480,1,0,,,,,,483870,,,,,,,
394560,control_change,1080,0,1,,,,,,,64,0,1,,,,
394560,note_on,0,0,1,,,,,,,,,1,,,76,54
394560,control_change,14640,0,2,,,,,,,64,0,2,,,,
394560,note_on,0,0,5,,,,,,,,,5,,,57,54
394560,control_change,23040,0,3,,,,,,,64,0,3,,,,
394560,control_change,288,0,5,,,,,,,64,0,5,,,,
394716,note_off,156,0,1,,,,,,,,,1,,,76,0
394716,note_off,156,0,2,,,,,,,,,2,,,69,0
394716,note_off,156,0,4,,,,,,,,,4,,,61,0
394716,note_off,156,0,5,,,,,,,,,5,,,57,0
394800,note_on,84,0,5,,,,,,,,,5,,,57,55
394800,note_on,84,0,2,,,,,,,,,2,,,69,55
394800,note_on,84,0,4,,,,,,,,,4,,,61,55
394800,note_on,84,0,1,,,,,,,,,1,,,76,55
394956,note_off,156,0,1,,,,,,,,,1,,,76,0
394956,note_off,156,0,2,,,,,,,,,2,,,69,0
394956,note_off,156,0,5,,,,,,,,,5,,,57,0
394956,note_off,156,0,4,,,,,,,,,4,,,61,0
395040,note_on,84,0,5,,,,,,,,,5,,,57,56
395040,note_on,84,0,2,,,,,,,,,2,,,69,56
395040,note_on,84,0,4,,,,,,,,,4,,,61,56
395040,note_on,84,0,1,,,,,,,,,1,,,76,56
395196,note_off,156,0,4,,,,,,,,,4,,,61,0
395196,note_off,156,0,1,,,,,,,,,1,,,76,0
395196,note_off,156,0,5,,,,,,,,,5,,,57,0
395196,note_off,156,0,2,,,,,,,,,2,,,69,0
395280,note_on,84,0,2,,,,,,,,,2,,,69,58
395280,note_on,84,0,1,,,,,,,,,1,,,76,58
395280,note_on,84,0,4,,,,,,,,,4,,,61,58
395280,note_on,84,0,5,,,,,,,,,5,,,57,58
395436,note_off,156,0,5,,,,,,,,,5,,,57,0
395436,note_off,156,0,4,,,,,,,,,4,,,61,0
395436,note_off,156,0,2,,,,,,,,,2,,,69,0
395436,note_off,156,0,1,,,,,,,,,1,,,76,0
395520,note_on,84,0,2,,,,,,,,,2,,,69,59
395520,note_on,84,0,4,,,,,,,,,4,,,62,59
395520,note_on,84,0,5,,,,,,,,,5,,,57,59
395520,note_on,84,0,1,,,,,,,,,1,,,77,59
395760,note_off,240,0,1,,,,,,,,,1,,,77,0
395760,note_on,0,0,4,,,,,,,,,4,,,63,61
395760,note_off,240,0,4,,,,,,,,,4,,,62,0
395760,note_off,240,0,2,,,,,,,,,2,,,69,0
395760,note_off,240,0,5,,,,,,,,,5,,,57,0
395760,note_on,0,0,5,,,,,,,,,5,,,57,61
395760,note_on,0,0,1,,,,,,,,,1,,,78,61
395760,note_on,0,0,2,,,,,,,,,2,,,69,61
395940,set_tempo,1380,1,0,,,,,,487804,,,,,,,
396000,note_on,0,0,5,,,,,,,,,5,,,57,63
396000,note_on,0,0,2,,,,,,,,,2,,,69,63
396000,note_off,240,0,1,,,,,,,,,1,,,78,0
396000,note_on,0,0,1,,,,,,,,,1,,,79,63
396000,note_off,240,0,5,,,,,,,,,5,,,57,0
396000,note_on,0,0,4,,,,,,,,,4,,,64,63
396000,note_off,240,0,4,,,,,,,,,4,,,63,0
396000,note_off,240,0,2,,,,,,,,,2,,,69,0
396720,note_off,720,0,4,,,,,,,,,4,,,64,0
396720,note_on,0,0,4,,,,,,,,,4,,,66,52
396720,note_off,720,0,1,,,,,,,,,1,,,79,0
396720,note_on,0,0,1,,,,,,,,,1,,,78,53
396800,note_off,80,0,1,,,,,,,,,1,,,78,0
396800,note_on,0,0,1,,,,,,,,,1,,,76,52
396880,note_off,80,0,1,,,,,,,,,1,,,76,0
396880,note_on,0,0,1,,,,,,,,,1,,,74,50
396960,note_off,80,0,1,,,,,,,,,1,,,74,0
396960,note_off,240,0,4,,,,,,,,,4,,,66,0
396960,note_on,0,0,1,,,,,,,,,1,,,73,49
396960,note_on,0,0,4,,,,,,,,,4,,,67,49
397152,note_off,1152,0,2,,,,,,,,,2,,,69,0
397152,note_off,192,0,1,,,,,,,,,1,,,73,0
397152,note_off,192,0,4,,,,,,,,,4,,,67,0
397152,note_off,1152,0,5,,,,,,,,,5,,,57,0
397380,set_tempo,1440,1,0,,,,,,495867,,,,,,,
397440,note_on,288,0,5,,,,,,,,,5,,,62,49
397440,set_tempo,60,1,0,,,,,,483870,,,,,,,
397440,note_on,288,0,1,,,,,,,,,1,,,78,49
397440,note_on,288,0,2,,,,,,,,,2,,,74,49
397596,note_off,156,0,1,,,,,,,,,1,,,78,0
397596,note_off,156,0,2,,,,,,,,,2,,,74,0
397596,note_off,156,0,5,,,,,,,,,5,,,62,0
397680,note_on,84,0,1,,,,,,,,,1,,,78,50
397680,note_on,84,0,2,,,,,,,,,2,,,74,50
397680,note_on,84,0,5,,,,,,,,,5,,,62,50
397836,note_off,156,0,5,,,,,,,,,5,,,62,0
397836,note_off,156,0,2,,,,,,,,,2,,,74,0
397836,note_off,156,0,1,,,,,,,,,1,,,78,0
397920,note_on,84,0,1,,,,,,,,,1,,,78,51
397920,note_on,84,0,2,,,,,,,,,2,,,74,51
397920,note_on,84,0,5,,,,,,,,,5,,,62,51
398076,note_off,156,0,1,,,,,,,,,1,,,78,0
398076,note_off,156,0,5,,,,,,,,,5,,,62,0
398076,note_off,156,0,2,,,,,,,,,2,,,74,0
398160,note_on,84,0,2,,,,,,,,,2,,,74,52
398160,note_on,84,0,1,,,,,,,,,1,,,78,52
398160,note_on,84,0,5,,,,,,,,,5,,,62,52
398316,note_off,156,0,1,,,,,,,,,1,,,78,0
398316,note_off,156,0,2,,,,,,,,,2,,,74,0
398316,note_off,156,0,5,,,,,,,,,5,,,62,0
398400,note_on,84,0,1,,,,,,,,,1,,,79,54
398400,note_on,1248,0,4,,,,,,,,,4,,,64,54
398400,note_on,84,0,2,,,,,,,,,2,,,74,54
398400,note_on,84,0,5,,,,,,,,,5,,,62,54
398640,note_on,0,0,5,,,,,,,,,5,,,62,56
398640,note_off,240,0,2,,,,,,,,,2,,,74,0
398640,note_on,0,0,1,,,,,,,,,1,,,80,56
398640,note_off,240,0,1,,,,,,,,,1,,,79,0
398640,note_on,0,0,4,,,,,,,,,4,,,65,56
398640,note_off,240,0,4,,,,,,,,,4,,,64,0
398640,note_on,0,0,2,,,,,,,,,2,,,74,56
398640,note_off,240,0,5,,,,,,,,,5,,,62,0
398820,set_tempo,1380,1,0,,,,,,487804,,,,,,,
398880,note_on,0,0,1,,,,,,,,,1,,,81,59
398880,note_off,240,0,1,,,,,,,,,1,,,80,0
398880,note_off,240,0,5,,,,,,,,,5,,,62,0
398880,note_off,240,0,4,,,,,,,,,4,,,65,0
398880,note_on,0,0,4,,,,,,,,,4,,,66,59
398880,note_on,0,0,5,,,,,,,,,5,,,62,59
398880,note_on,0,0,2,,,,,,,,,2,,,74,59
398880,note_off,240,0,2,,,,,,,,,2,,,74,0
399600,note_off,720,0,1,,,,,,,,,1,,,81,0
399600,note_on,0,0,1,,,,,,,,,1,,,79,49
399600,note_on,0,0,4,,,,,,,,,4,,,67,49
399600,note_off,720,0,4,,,,,,,,,4,,,66,0
399680,note_off,80,0,1,,,,,,,,,1,,,79,0
399680,note_on,0,0,1,,,,,,,,,1,,,78,48
399680,note_off,80,0,4,,,,,,,,,4,,,67,0
399680,note_on,0,0,4,,,,,,,,,4,,,69,48
399760,note_off,80,0,4,,,,,,,,,4,,,69,0
399760,note_on,0,0,4,,,,,,,,,4,,,67,47
399760,note_on,0,0,1,,,,,,,,,1,,,76,47
399760,note_off,80,0,1,,,,,,,,,1,,,78,0
399832,note_off,952,0,2,,,,,,,,,2,,,74,0
399840,note_on,0,0,1,,,,,,,,,1,,,74,46
399840,note_off,80,0,1,,,,,,,,,1,,,76,0
399840,note_off,80,0,4,,,,,,,,,4,,,67,0
399840,note_on,0,0,4,,,,,,,,,4,,,66,46
399840,set_tempo,1020,1,0,,,,,,495867,,,,,,,
399960,set_tempo,120,1,0,,,,,,483870,,,,,,,
400032,note_off,1152,0,5,,,,,,,,,5,,,62,0
400032,note_off,192,0,1,,,,,,,,,1,,,74,0
400032,note_off,192,0,4,,,,,,,,,4,,,66,0
400080,note_on,48,0,1,,,,,,,,,1,,,86,45
400080,note_on,248,0,2,,,,,,,,,2,,,83,45
400320,note_off,240,0,1,,,,,,,,,1,,,86,0
400320,note_on,0,0,1,,,,,,,,,1,,,85,46
400320,note_off,240,0,2,,,,,,,,,2,,,83,0
400320,note_on,0,0,2,,,,,,,,,2,,,81,46
400560,note_off,240,0,1,,,,,,,,,1,,,85,0
400560,note_off,240,0,2,,,,,,,,,2,,,81,0
400560,note_on,0,0,2,,,,,,,,,2,,,79,47
400560,note_on,0,0,1,,,,,,,,,1,,,83,47
400560,note_on,528,0,5,,,,,,,,,5,,,61,47
400800,note_off,240,0,1,,,,,,,,,1,,,83,0
400800,note_on,0,0,1,,,,,,,,,1,,,81,48
400800,note_on,0,0,2,,,,,,,,,2,,,78,48
400800,note_off,240,0,2,,,,,,,,,2,,,79,0
400800,note_off,240,0,5,,,,,,,,,5,,,61,0
400800,note_on,0,0,5,,,,,,,,,5,,,62,48
401040,note_on,0,0,5,,,,,,,,,5,,,64,49
401040,note_off,240,0,5,,,,,,,,,5,,,62,0
401280,note_off,240,0,5,,,,,,,,,5,,,64,0
401280,note_on,0,0,5,,,,,,,,,5,,,66,51
401460,note_off,180,0,5,,,,,,,,,5,,,66,0
401460,note_off,660,0,1,,,,,,,,,1,,,81,0
401460,note_off,660,0,2,,,,,,,,,2,,,78,0
401520,note_on,60,0,2,,,,,,,,,2,,,83,52
401520,note_on,60,0,1,,,,,,,,,1,,,86,52
401760,note_on,0,0,1,,,,,,,,,1,,,85,53
401760,note_off,240,0,1,,,,,,,,,1,,,86,0
401760,note_off,240,0,2,,,,,,,,,2,,,83,0
401760,note_on,0,0,2,,,,,,,,,2,,,81,53
402000,note_on,0,0,2,,,,,,,,,2,,,79,54
402000,note_on,0,0,1,,,,,,,,,1,,,83,54
402000,note_off,240,0,1,,,,,,,,,1,,,85,0
402000,note_on,540,0,5,,,,,,,,,5,,,73,54
402000,note_off,240,0,2,,,,,,,,,2,,,81,0
402240,note_on,0,0,2,,,,,,,,,2,,,78,55
402240,note_on,0,0,5,,,,,,,,,5,,,74,55
402240,note_off,240,0,5,,,,,,,,,5,,,73,0
402240,note_on,0,0,1,,,,,,,,,1,,,81,55
402240,note_off,240,0,1,,,,,,,,,1,,,83,0
402240,note_off,240,0,2,,,,,,,,,2,,,79,0
402480,note_on,0,0,5,,,,,,,,,5,,,76,56
402480,note_off,240,0,5,,,,,,,,,5,,,74,0
402720,note_on,0,0,5,,,,,,,,,5,,,78,57
402720,note_off,240,0,5,,,,,,,,,5,,,76,0
402907,note_off,667,0,1,,,,,,,,,1,,,81,0
402912,note_off,192,0,5,,,,,,,,,5,,,78,0
402960,note_on,53,0,1,,,,,,,,,1,,,83,58
402960,note_off,720,0,2,,,,,,,,,2,,,78,0
402960,note_on,48,0,5,,,,,,,,,5,,,75,58
403200,note_off,240,0,5,,,,,,,,,5,,,75,0
403200,note_on,0,0,5,,,,,,,,,5,,,76,59
403200,note_off,240,0,1,,,,,,,,,1,,,83,0
403200,note_on,0,0,1,,,,,,,,,1,,,79,59
403440,note_on,0,0,5,,,,,,,,,5,,,73,60
403440,note_off,240,0,5,,,,,,,,,5,,,76,0
403440,note_off,240,0,1,,,,,,,,,1,,,79,0
403440,note_on,0,0,1,,,,,,,,,1,,,81,60
403680,note_on,0,0,5,,,,,,,,,5,,,74,61
403680,note_off,240,0,5,,,,,,,,,5,,,73,0
403680,note_off,240,0,1,,,,,,,,,1,,,81,0
403680,note_on,0,0,1,,,,,,,,,1,,,78,61
403920,note_on,3888,0,4,,,,,,,,,4,,,74,62
403920,note_on,0,0,1,,,,,,,,,1,,,79,62
403920,note_off,240,0,1,,,,,,,,,1,,,78,0
403920,note_off,240,0,5,,,,,,,,,5,,,74,0
403920,note_on,0,0,5,,,,,,,,,5,,,71,62
404160,note_off,240,0,1,,,,,,,,,1,,,79,0
404160,note_on,0,0,1,,,,,,,,,1,,,81,63
404160,note_on,0,0,5,,,,,,,,,5,,,66,63
404160,note_off,240,0,5,,,,,,,,,5,,,71,0
404160,note_off,240,0,4,,,,,,,,,4,,,74,0
404160,note_on,0,0,4,,,,,,,,,4,,,74,63
404400,note_off,240,0,1,,,,,,,,,1,,,81,0
404400,note_on,0,0,1,,,,,,,,,1,,,83,65
404400,note_on,0,0,5,,,,,,,,,5,,,68,65
404400,note_off,240,0,4,,,,,,,,,4,,,74,0
404400,note_off,240,0,5,,,,,,,,,5,,,66,0
404400,note_on,0,0,4,,,,,,,,,4,,,74,65
404535,set_tempo,4575,1,0,,,,,,487804,,,,,,,
404592,note_off,192,0,1,,,,,,,,,1,,,83,0
404640,note_on,0,0,4,,,,,,,,,4,,,74,66
404640,note_off,240,0,4,,,,,,,,,4,,,74,0
404640,note_on,0,0,5,,,,,,,,,5,,,69,66
404640,note_on,48,0,1,,,,,,,,,1,,,78,66
404640,note_off,240,0,5,,,,,,,,,5,,,68,0
405000,note_on,0,0,1,,,,,,,,,1,,,79,60
405000,note_off,360,0,1,,,,,,,,,1,,,78,0
405060,note_on,0,0,1,,,,,,,,,1,,,78,59
405060,note_off,60,0,1,,,,,,,,,1,,,79,0
405120,note_on,0,0,4,,,,,,,,,4,,,73,58
405120,note_off,480,0,4,,,,,,,,,4,,,74,0
405120,set_tempo,585,1,0,,,,,,495867,,,,,,,
405120,note_off,60,0,1,,,,,,,,,1,,,78,0
405120,note_on,0,0,1,,,,,,,,,1,,,76,58
405240,set_tempo,120,1,0,,,,,,487804,,,,,,,
405276,note_off,156,0,1,,,,,,,,,1,,,76,0
405360,note_on,84,0,1,,,,,,,,,1,,,78,53
405480,note_off,840,0,5,,,,,,,,,5,,,69,0
405480,note_off,360,0,4,,,,,,,,,4,,,73,0
405516,note_off,156,0,1,,,,,,,,,1,,,78,0
405600,note_on,84,0,1,,,,,,,,,1,,,79,53
405756,note_off,156,0,1,,,,,,,,,1,,,79,0
405840,note_on,84,0,1,,,,,,,,,1,,,80,51
405960,set_tempo,720,1,0,,,,,,495867,,,,,,,
405996,note_off,156,0,1,,,,,,,,,1,,,80,0
406080,note_on,84,0,1,,,,,,,,,1,,,81,53
406080,set_tempo,120,1,0,,,,,,483870,,,,,,,
406236,note_off,156,0,1,,,,,,,,,1,,,81,0
406320,note_on,84,0,1,,,,,,,,,1,,,81,52
406476,note_off,156,0,1,,,,,,,,,1,,,81,0
406560,note_on,84,0,1,,,,,,,,,1,,,81,50
406716,note_off,156,0,1,,,,,,,,,1,,,81,0
406800,note_on,1320,0,4,,,,,,,,,4,,,79,49
406800,note_on,1320,0,5,,,,,,,,,5,,,73,49
406800,note_on,84,0,1,,,,,,,,,1,,,81,48
406956,note_off,156,0,4,,,,,,,,,4,,,79,0
406956,note_off,156,0,1,,,,,,,,,1,,,81,0
406956,note_off,156,0,5,,,,,,,,,5,,,73,0
407040,note_on,84,0,5,,,,,,,,,5,,,74,45
407040,note_on,84,0,1,,,,,,,,,1,,,83,46
407040,note_on,84,0,4,,,,,,,,,4,,,78,45
407100,note_on,0,0,1,,,,,,,,,1,,,81,46
407100,note_off,60,0,1,,,,,,,,,1,,,83,0
407160,note_on,0,0,1,,,,,,,,,1,,,80,45
407160,note_off,60,0,1,,,,,,,,,1,,,81,0
407220,note_off,60,0,1,,,,,,,,,1,,,80,0
407220,note_on,0,0,1,,,,,,,,,1,,,81,45
407232,note_off,192,0,5,,,,,,,,,5,,,74,0
407232,note_off,192,0,4,,,,,,,,,4,,,78,0
407280,note_on,0,0,1,,,,,,,,,1,,,86,44
407280,note_off,60,0,1,,,,,,,,,1,,,81,0
407436,note_off,156,0,1,,,,,,,,,1,,,86,0
407520,note_on,84,0,1,,,,,,,,,1,,,78,49
407676,note_off,156,0,1,,,,,,,,,1,,,78,0
407760,note_on,84,0,1,,,,,,,,,1,,,78,47
407916,note_off,156,0,1,,,,,,,,,1,,,78,0
408000,note_on,84,0,1,,,,,,,,,1,,,78,46
408156,note_off,156,0,1,,,,,,,,,1,,,78,0
408240,note_on,84,0,1,,,,,,,,,1,,,78,44
408240,note_on,1008,0,4,,,,,,,,,4,,,76,46
408240,note_on,1008,0,5,,,,,,,,,5,,,70,46
408396,note_off,156,0,1,,,,,,,,,1,,,78,0
408396,note_off,156,0,4,,,,,,,,,4,,,76,0
408396,note_off,156,0,5,,,,,,,,,5,,,70,0
408480,note_on,84,0,5,,,,,,,,,5,,,71,42
408480,note_on,84,0,4,,,,,,,,,4,,,74,42
408480,note_on,84,0,1,,,,,,,,,1,,,79,42
408540,note_off,60,0,1,,,,,,,,,1,,,79,0
408540,note_on,0,0,1,,,,,,,,,1,,,78,41
408600,note_on,0,0,1,,,,,,,,,1,,,77,41
408600,note_off,60,0,1,,,,,,,,,1,,,78,0
408660,note_on,0,0,1,,,,,,,,,1,,,78,40
408660,note_off,60,0,1,,,,,,,,,1,,,77,0
408672,note_off,192,0,5,,,,,,,,,5,,,71,0
408672,note_off,192,0,4,,,,,,,,,4,,,74,0
408720,note_off,60,0,1,,,,,,,,,1,,,78,0
408720,note_on,0,0,1,,,,,,,,,1,,,83,40
408876,note_off,156,0,1,,,,,,,,,1,,,83,0
408960,note_on,84,0,1,,,,,,,,,1,,,74,45
409116,note_off,156,0,1,,,,,,,,,1,,,74,0
409200,note_on,528,0,5,,,,,,,,,5,,,66,45
409200,note_on,528,0,4,,,,,,,,,4,,,69,45
409356,note_off,156,0,5,,,,,,,,,5,,,66,0
409356,note_off,156,0,4,,,,,,,,,4,,,69,0
409440,note_on,324,0,1,,,,,,,,,1,,,76,44
409596,note_off,156,0,1,,,,,,,,,1,,,76,0
409680,note_on,324,0,5,,,,,,,,,5,,,67,43
409680,note_on,324,0,4,,,,,,,,,4,,,71,43
409836,note_off,156,0,4,,,,,,,,,4,,,71,0
409836,note_off,156,0,5,,,,,,,,,5,,,67,0
409920,note_on,324,0,1,,,,,,,,,1,,,79,43
410076,note_off,156,0,1,,,,,,,,,1,,,79,0
410160,note_on,324,0,4,,,,,,,,,4,,,73,42
410160,note_on,324,0,5,,,,,,,,,5,,,69,42
410316,note_off,156,0,4,,,,,,,,,4,,,73,0
410316,note_off,156,0,5,,,,,,,,,5,,,69,0
410400,note_on,84,0,5,,,,,,,,,5,,,62,42
410400,note_on,324,0,1,,,,,,,,,1,,,78,42
410640,note_off,240,0,1,,,,,,,,,1,,,78,0
410640,note_on,0,0,1,,,,,,,,,1,,,74,42
410760,note_off,360,0,5,,,,,,,,,5,,,62,0
410760,note_off,120,0,1,,,,,,,,,1,,,74,0
410760,note_on,0,0,1,,,,,,,,,1,,,76,43
410838,note_off,78,0,1,,,,,,,,,1,,,76,0
410880,note_on,42,0,1,,,,,,,,,1,,,76,44
411000,note_off,120,0,1,,,,,,,,,1,,,76,0
411000,note_on,0,0,1,,,,,,,,,1,,,78,45
411078,note_off,78,0,1,,,,,,,,,1,,,78,0
411120,note_on,42,0,1,,,,,,,,,1,,,78,46
411240,note_on,0,0,1,,,,,,,,,1,,,79,47
411240,note_off,120,0,1,,,,,,,,,1,,,78,0
411318,note_off,78,0,1,,,,,,,,,1,,,79,0
411360,note_on,42,0,1,,,,,,,,,1,,,79,48
411480,note_on,0,0,1,,,,,,,,,1,,,81,49
411480,note_off,120,0,1,,,,,,,,,1,,,79,0
411558,note_off,78,0,1,,,,,,,,,1,,,81,0
411600,note_on,42,0,1,,,,,,,,,1,,,81,50
411720,note_off,120,0,1,,,,,,,,,1,,,81,0
411720,note_on,0,0,1,,,,,,,,,1,,,83,51
411780,set_tempo,5700,1,0,,,,,,487804,,,,,,,
411798,note_off,78,0,1,,,,,,,,,1,,,83,0
411840,note_on,42,0,1,,,,,,,,,1,,,81,61
411840,set_tempo,60,1,0,,,,,,483870,,,,,,,
411996,note_off,156,0,1,,,,,,,,,1,,,81,0
412080,note_on,84,0,1,,,,,,,,,1,,,81,60
412080,note_on,1320,0,5,,,,,,,,,5,,,73,60
412080,note_on,1764,0,4,,,,,,,,,4,,,79,60
412236,note_off,156,0,4,,,,,,,,,4,,,79,0
412236,note_off,156,0,1,,,,,,,,,1,,,81,0
412236,note_off,156,0,5,,,,,,,,,5,,,73,0
412320,note_on,84,0,1,,,,,,,,,1,,,81,58
412320,note_on,84,0,4,,,,,,,,,4,,,78,58
412320,note_on,84,0,5,,,,,,,,,5,,,74,58
412476,note_off,156,0,4,,,,,,,,,4,,,78,0
412476,note_off,156,0,5,,,,,,,,,5,,,74,0
412476,note_off,156,0,1,,,,,,,,,1,,,81,0
412560,note_on,84,0,4,,,,,,,,,4,,,79,55
412560,note_on,84,0,5,,,,,,,,,5,,,73,55
412560,note_on,84,0,1,,,,,,,,,1,,,81,56
412716,note_off,156,0,1,,,,,,,,,1,,,81,0
412716,note_off,156,0,4,,,,,,,,,4,,,79,0
412716,note_off,156,0,5,,,,,,,,,5,,,73,0
412800,note_on,84,0,4,,,,,,,,,4,,,78,53
412800,note_on,84,0,5,,,,,,,,,5,,,74,53
412800,note_on,84,0,1,,,,,,,,,1,,,81,54
412920,note_off,120,0,1,,,,,,,,,1,,,81,0
412920,note_on,0,0,1,,,,,,,,,1,,,83,54
412992,note_off,192,0,5,,,,,,,,,5,,,74,0
412992,note_off,192,0,4,,,,,,,,,4,,,78,0
413040,note_off,120,0,1,,,,,,,,,1,,,83,0
413040,note_on,0,0,1,,,,,,,,,1,,,85,53
413160,note_off,120,0,1,,,,,,,,,1,,,85,0
413160,note_on,0,0,1,,,,,,,,,1,,,86,52
413256,note_off,96,0,1,,,,,,,,,1,,,86,0
413280,note_on,24,0,1,,,,,,,,,1,,,78,59
413436,note_off,156,0,1,,,,,,,,,1,,,78,0
413520,note_on,84,0,1,,,,,,,,,1,,,78,58
413520,note_on,528,0,5,,,,,,,,,5,,,70,59
413520,note_on,528,0,4,,,,,,,,,4,,,76,59
413676,note_off,156,0,4,,,,,,,,,4,,,76,0
413676,note_off,156,0,5,,,,,,,,,5,,,70,0
413676,note_off,156,0,1,,,,,,,,,1,,,78,0
413760,note_on,84,0,5,,,,,,,,,5,,,71,57
413760,note_on,84,0,4,,,,,,,,,4,,,74,57
413760,note_on,84,0,1,,,,,,,,,1,,,78,56
413916,note_off,156,0,4,,,,,,,,,4,,,74,0
413916,note_off,156,0,1,,,,,,,,,1,,,78,0
413916,note_off,156,0,5,,,,,,,,,5,,,71,0
414000,note_on,84,0,5,,,,,,,,,5,,,70,54
414000,note_on,84,0,4,,,,,,,,,4,,,76,54
414000,note_on,84,0,1,,,,,,,,,1,,,78,54
414156,note_off,156,0,4,,,,,,,,,4,,,76,0
414156,note_off,156,0,5,,,,,,,,,5,,,70,0
414156,note_off,156,0,1,,,,,,,,,1,,,78,0
414240,note_on,84,0,5,,,,,,,,,5,,,71,51
414240,note_on,84,0,4,,,,,,,,,4,,,74,51
414240,note_on,84,0,1,,,,,,,,,1,,,78,52
414360,note_off,120,0,1,,,,,,,,,1,,,78,0
414360,note_on,0,0,1,,,,,,,,,1,,,80,52
414432,note_off,192,0,4,,,,,,,,,4,,,74,0
414432,note_off,192,0,5,,,,,,,,,5,,,71,0
414480,note_on,0,0,1,,,,,,,,,1,,,82,51
414480,note_off,120,0,1,,,,,,,,,1,,,80,0
414600,note_on,0,0,1,,,,,,,,,1,,,83,50
414600,note_off,120,0,1,,,,,,,,,1,,,82,0
414696,note_off,96,0,1,,,,,,,,,1,,,83,0
414720,note_on,24,0,1,,,,,,,,,1,,,74,56
414960,note_on,528,0,5,,,,,,,,,5,,,66,56
414960,note_on,528,0,4,,,,,,,,,4,,,69,56
415080,note_on,0,0,1,,,,,,,,,1,,,78,56
415080,note_off,360,0,1,,,,,,,,,1,,,74,0
415116,note_off,156,0,5,,,,,,,,,5,,,66,0
415116,note_off,156,0,4,,,,,,,,,4,,,69,0
415200,note_on,0,0,1,,,,,,,,,1,,,76,56
415200,note_off,120,0,1,,,,,,,,,1,,,78,0
415440,note_on,324,0,5,,,,,,,,,5,,,67,55
415440,note_on,324,0,4,,,,,,,,,4,,,71,55
415560,note_on,0,0,1,,,,,,,,,1,,,79,55
415560,note_off,360,0,1,,,,,,,,,1,,,76,0
415596,note_off,156,0,4,,,,,,,,,4,,,71,0
415596,note_off,156,0,5,,,,,,,,,5,,,67,0
415680,note_off,120,0,1,,,,,,,,,1,,,79,0
415680,note_on,0,0,1,,,,,,,,,1,,,73,55
415920,note_on,324,0,5,,,,,,,,,5,,,57,54
415920,note_on,324,0,4,,,,,,,,,4,,,67,54
416040,note_off,360,0,1,,,,,,,,,1,,,73,0
416040,note_on,0,0,1,,,,,,,,,1,,,76,54
416076,note_off,156,0,4,,,,,,,,,4,,,67,0
416076,note_off,156,0,5,,,,,,,,,5,,,57,0
416100,set_tempo,4260,1,0,,,,,,487804,,,,,,,
416160,note_off,120,0,1,,,,,,,,,1,,,76,0
416160,note_on,0,0,1,,,,,,,,,1,,,74,57
416400,note_on,0,0,5,,,,,,,,,5,,,42,56
416400,note_on,324,0,5,,,,,,,,,5,,,54,56
416520,note_off,360,0,1,,,,,,,,,1,,,74,0
416556,note_off,0,0,5,,,,,,,,,5,,,54,0
416556,note_off,156,0,5,,,,,,,,,5,,,42,0
416640,note_on,0,0,5,,,,,,,,,5,,,43,53
416640,note_on,84,0,5,,,,,,,,,5,,,55,53
416796,note_off,0,0,5,,,,,,,,,5,,,55,0
416796,note_off,156,0,5,,,,,,,,,5,,,43,0
416880,note_on,0,0,5,,,,,,,,,5,,,57,51
416880,note_on,84,0,5,,,,,,,,,5,,,45,51
417000,set_tempo,900,1,0,,,,,,508474,,,,,,,
417036,note_off,0,0,5,,,,,,,,,5,,,45,0
417036,note_off,156,0,5,,,,,,,,,5,,,57,0
417120,set_tempo,120,1,0,,,,,,517241,,,,,,,
417120,note_on,84,0,5,,,,,,,,,5,,,38,49
417120,note_on,0,0,5,,,,,,,,,5,,,50,49
417360,set_tempo,240,1,0,,,,,,2727272,,,,,,,
417360,note_off,0,0,5,,,,,,,,,5,,,38,0
417360,note_off,240,0,5,,,,,,,,,5,,,50,0
417600,control_change,1524,0,4,,,,,,,64,0,4,,,,
417600,note_on,0,0,1,,,,,,,,,1,,,81,51
417600,control_change,1080,0,1,,,,,,,64,0,1,,,,
417600,set_tempo,240,1,0,,,,,,821917,,,,,,,
417600,marker,0,1,0,,,,,,,,,,,,,
417600,control_change,23040,0,3,,,,,,,64,0,3,,,,
417600,control_change,240,0,5,,,,,,,64,0,5,,,,
417600,control_change,14640,0,2,,,,,,,64,0,2,,,,
417960,note_off,360,0,1,,,,,,,,,1,,,81,0
418080,note_on,120,0,1,,,,,,,,,1,,,81,52
418080,note_on,480,0,3,,,,,,,,,3,,,62,51
418080,note_on,0,0,3,,,,,,,,,3,,,69,51
418080,note_on,0,0,3,,,,,,,,,3,,,65,51
418440,note_off,0,0,3,,,,,,,,,3,,,62,0
418440,note_off,360,0,1,,,,,,,,,1,,,81,0
418440,note_off,360,0,3,,,,,,,,,3,,,65,0
418440,note_off,0,0,3,,,,,,,,,3,,,69,0
418560,note_on,0,0,3,,,,,,,,,3,,,62,50
418560,note_on,0,0,3,,,,,,,,,3,,,69,50
418560,note_on,120,0,3,,,,,,,,,3,,,65,50
418800,note_on,360,0,1,,,,,,,,,1,,,86,48
418920,note_off,0,0,3,,,,,,,,,3,,,65,0
418920,note_off,0,0,3,,,,,,,,,3,,,62,0
418920,note_off,360,0,3,,,,,,,,,3,,,69,0
418992,note_off,192,0,1,,,,,,,,,1,,,86,0
419040,note_on,48,0,1,,,,,,,,,1,,,77,50
419400,note_off,360,0,1,,,,,,,,,1,,,77,0
419520,note_on,120,0,1,,,,,,,,,1,,,77,51
419520,note_on,600,0,3,,,,,,,,,3,,,69,49
419520,note_on,0,0,3,,,,,,,,,3,,,62,49
419520,note_on,0,0,3,,,,,,,,,3,,,65,49
419880,note_off,360,0,1,,,,,,,,,1,,,77,0
419880,note_off,0,0,3,,,,,,,,,3,,,69,0
419880,note_off,0,0,3,,,,,,,,,3,,,62,0
419880,note_off,360,0,3,,,,,,,,,3,,,65,0
420000,note_on,0,0,3,,,,,,,,,3,,,69,49
420000,note_on,0,0,3,,,,,,,,,3,,,62,49
420000,note_on,120,0,3,,,,,,,,,3,,,65,49
420240,note_on,360,0,1,,,,,,,,,1,,,81,46
420360,note_off,0,0,3,,,,,,,,,3,,,65,0
420360,note_off,360,0,3,,,,,,,,,3,,,62,0
420360,note_off,0,0,3,,,,,,,,,3,,,69,0
420432,note_off,192,0,1,,,,,,,,,1,,,81,0
420480,note_on,120,0,3,,,,,,,,,3,,,65,48
420480,note_on,48,0,1,,,,,,,,,1,,,74,48
420480,note_on,2880,0,5,,,,,,,,,5,,,57,48
420720,note_on,0,0,1,,,,,,,,,1,,,76,47
420720,note_off,240,0,1,,,,,,,,,1,,,74,0
420780,note_on,0,0,1,,,,,,,,,1,,,74,48
420780,note_off,60,0,1,,,,,,,,,1,,,76,0
420840,note_off,60,0,1,,,,,,,,,1,,,74,0
420840,note_on,0,0,1,,,,,,,,,1,,,73,50
420900,note_on,0,0,1,,,,,,,,,1,,,74,51
420900,note_off,60,0,1,,,,,,,,,1,,,73,0
420960,note_on,0,0,3,,,,,,,,,3,,,69,53
420960,note_off,480,0,3,,,,,,,,,3,,,65,0
420960,note_on,0,0,1,,,,,,,,,1,,,77,53
420960,note_off,60,0,1,,,,,,,,,1,,,74,0
421440,note_on,0,0,3,,,,,,,,,3,,,67,49
421440,note_off,480,0,3,,,,,,,,,3,,,69,0
421680,note_on,0,0,1,,,,,,,,,1,,,76,46
421680,note_off,720,0,1,,,,,,,,,1,,,77,0
421920,note_on,0,0,3,,,,,,,,,3,,,65,47
421920,note_on,0,0,1,,,,,,,,,1,,,74,47
421920,note_on,0,0,5,,,,,,,,,5,,,62,47
421920,note_off,1440,0,5,,,,,,,,,5,,,57,0
421920,note_off,480,0,3,,,,,,,,,3,,,67,0
421920,note_off,240,0,1,,,,,,,,,1,,,76,0
422076,note_off,156,0,1,,,,,,,,,1,,,74,0
422160,note_on,84,0,1,,,,,,,,,1,,,73,46
422280,note_off,360,0,5,,,,,,,,,5,,,62,0
422280,note_off,360,0,3,,,,,,,,,3,,,65,0
422316,note_off,156,0,1,,,,,,,,,1,,,73,0
422400,note_on,84,0,1,,,,,,,,,1,,,74,46
422556,note_off,156,0,1,,,,,,,,,1,,,74,0
422640,note_on,84,0,1,,,,,,,,,1,,,76,45
422796,note_off,156,0,1,,,,,,,,,1,,,76,0
422880,note_on,84,0,1,,,,,,,,,1,,,77,45
423036,note_off,156,0,1,,,,,,,,,1,,,77,0
423120,note_on,84,0,1,,,,,,,,,1,,,79,45
423276,note_off,156,0,1,,,,,,,,,1,,,79,0
423300,set_tempo,5700,1,0,,,,,,833333,,,,,,,
423360,note_on,84,0,1,,,,,,,,,1,,,81,44
423360,note_on,1080,0,5,,,,,,,,,5,,,62,44
423360,set_tempo,60,1,0,,,,,,821917,,,,,,,
423600,note_off,240,0,1,,,,,,,,,1,,,81,0
423600,note_on,0,0,1,,,,,,,,,1,,,83,42
423660,note_off,60,0,1,,,,,,,,,1,,,83,0
423660,note_on,0,0,1,,,,,,,,,1,,,81,43
423720,note_off,60,0,1,,,,,,,,,1,,,81,0
423720,note_on,0,0,1,,,,,,,,,1,,,80,43
423780,note_off,60,0,1,,,,,,,,,1,,,80,0
423780,note_on,0,0,1,,,,,,,,,1,,,81,44
423840,note_on,0,0,1,,,,,,,,,1,,,83,44
423840,note_off,60,0,1,,,,,,,,,1,,,81,0
423840,note_on,1560,0,3,,,,,,,,,3,,,65,44
423840,note_on,0,0,3,,,,,,,,,3,,,69,44
424032,note_off,192,0,1,,,,,,,,,1,,,83,0
424080,note_on,48,0,1,,,,,,,,,1,,,85,46
424200,note_off,360,0,3,,,,,,,,,3,,,69,0
424200,note_off,0,0,3,,,,,,,,,3,,,65,0
424272,note_off,192,0,1,,,,,,,,,1,,,85,0
424320,note_on,48,0,1,,,,,,,,,1,,,86,48
424320,note_on,120,0,3,,,,,,,,,3,,,65,48
424320,note_on,0,0,3,,,,,,,,,3,,,69,48
424512,note_off,192,0,1,,,,,,,,,1,,,86,0
424560,note_on,48,0,1,,,,,,,,,1,,,88,50
424680,note_off,360,0,3,,,,,,,,,3,,,69,0
424680,note_off,0,0,3,,,,,,,,,3,,,65,0
424680,note_off,1320,0,5,,,,,,,,,5,,,62,0
424752,note_off,192,0,1,,,,,,,,,1,,,88,0
424800,note_on,120,0,5,,,,,,,,,5,,,62,52
424800,note_on,48,0,1,,,,,,,,,1,,,89,55
424956,note_off,156,0,1,,,,,,,,,1,,,89,0
425040,note_on,84,0,1,,,,,,,,,1,,,85,51
425280,note_on,0,0,1,,,,,,,,,1,,,86,52
425280,note_on,600,0,3,,,,,,,,,3,,,69,50
425280,note_on,0,0,3,,,,,,,,,3,,,65,50
425280,note_off,240,0,1,,,,,,,,,1,,,85,0
425436,note_off,156,0,1,,,,,,,,,1,,,86,0
425520,note_on,84,0,1,,,,,,,,,1,,,80,48
425640,note_off,0,0,3,,,,,,,,,3,,,69,0
425640,note_off,360,0,3,,,,,,,,,3,,,65,0
425760,note_on,0,0,3,,,,,,,,,3,,,65,47
425760,note_off,240,0,1,,,,,,,,,1,,,80,0
425760,note_on,0,0,1,,,,,,,,,1,,,81,51
425760,note_on,120,0,3,,,,,,,,,3,,,69,47
425916,note_off,156,0,1,,,,,,,,,1,,,81,0
426000,note_on,84,0,1,,,,,,,,,1,,,76,46
426120,note_off,1320,0,5,,,,,,,,,5,,,62,0
426120,note_off,360,0,3,,,,,,,,,3,,,65,0
426120,note_off,0,0,3,,,,,,,,,3,,,69,0
426240,note_on,120,0,5,,,,,,,,,5,,,57,44
426240,note_on,0,0,1,,,,,,,,,1,,,77,44
426240,note_off,240,0,1,,,,,,,,,1,,,76,0
426480,note_off,240,0,1,,,,,,,,,1,,,77,0
426480,note_on,0,0,1,,,,,,,,,1,,,79,41
426540,note_off,60,0,1,,,,,,,,,1,,,79,0
426540,note_on,0,0,1,,,,,,,,,1,,,77,41
426600,note_off,60,0,1,,,,,,,,,1,,,77,0
426600,note_on,0,0,1,,,,,,,,,1,,,76,42
426660,note_on,0,0,1,,,,,,,,,1,,,77,43
426660,note_off,60,0,1,,,,,,,,,1,,,76,0
426720,note_on,600,0,3,,,,,,,,,3,,,69,44
426720,note_on,0,0,1,,,,,,,,,1,,,81,49
426720,note_off,60,0,1,,,,,,,,,1,,,77,0
426720,note_on,0,0,3,,,,,,,,,3,,,65,44
427200,note_off,480,0,3,,,,,,,,,3,,,65,0
427200,note_on,0,0,3,,,,,,,,,3,,,67,41
427200,note_on,0,0,3,,,,,,,,,3,,,64,41
427200,note_off,0,0,3,,,,,,,,,3,,,69,0
427440,note_on,0,0,1,,,,,,,,,1,,,73,40
427440,note_off,720,0,1,,,,,,,,,1,,,81,0
427560,note_off,360,0,3,,,,,,,,,3,,,67,0
427560,note_off,0,0,3,,,,,,,,,3,,,64,0
427560,note_off,1320,0,5,,,,,,,,,5,,,57,0
427560,set_tempo,4200,1,0,,,,,,833333,,,,,,,
427632,note_off,192,0,1,,,,,,,,,1,,,73,0
427680,note_on,48,0,1,,,,,,,,,1,,,76,42
427680,note_on,10080,0,2,,,,,,,,,2,,,67,42
428160,note_on,0,0,2,,,,,,,,,2,,,65,36
428160,note_on,0,0,1,,,,,,,,,1,,,74,36
428160,note_off,480,0,1,,,,,,,,,1,,,76,0
428160,note_off,480,0,2,,,,,,,,,2,,,67,0
428160,note_on,600,0,5,,,,,,,,,5,,,62,38
428520,note_off,360,0,5,,,,,,,,,5,,,62,0
428520,note_off,360,0,2,,,,,,,,,2,,,65,0
428520,note_off,360,0,1,,,,,,,,,1,,,74,0
428520,set_tempo,960,1,0,,,,,,845070,,,,,,,
428640,note_on,120,0,5,,,,,,,,,5,,,50,36
429000,note_off,360,0,5,,,,,,,,,5,,,50,0
429000,set_tempo,480,1,0,,,,,,1428571,,,,,,,
429120,control_change,11520,0,4,,,,,,,64,0,4,,,,
429120,marker,0,1,0,,,,,,,,,,,,,
429120,set_tempo,120,1,0,,,,,,821917,,,,,,,
429120,note_on,0,0,1,,,,,,,,,1,,,81,51
429120,control_change,600,0,1,,,,,,,64,0,1,,,,
429120,control_change,120,0,5,,,,,,,64,0,5,,,,
429120,control_change,1560,0,3,,,,,,,64,0,3,,,,
429120,control_change,600,0,2,,,,,,,64,0,2,,,,
429480,note_off,360,0,1,,,,,,,,,1,,,81,0
429600,note_on,120,0,1,,,,,,,,,1,,,81,52
429600,note_on,480,0,3,,,,,,,,,3,,,65,51
429600,note_on,0,0,3,,,,,,,,,3,,,62,51
429600,note_on,0,0,3,,,,,,,,,3,,,69,51
429960,note_off,360,0,1,,,,,,,,,1,,,81,0
429960,note_off,0,0,3,,,,,,,,,3,,,65,0
429960,note_off,0,0,3,,,,,,,,,3,,,69,0
429960,note_off,360,0,3,,,,,,,,,3,,,62,0
430080,note_on,0,0,3,,,,,,,,,3,,,65,50
430080,note_on,0,0,3,,,,,,,,,3,,,62,50
430080,note_on,120,0,3,,,,,,,,,3,,,69,50
430320,note_on,360,0,1,,,,,,,,,1,,,86,48
430440,note_off,0,0,3,,,,,,,,,3,,,62,0
430440,note_off,360,0,3,,,,,,,,,3,,,65,0
430440,note_off,0,0,3,,,,,,,,,3,,,69,0
430512,note_off,192,0,1,,,,,,,,,1,,,86,0
430560,note_on,48,0,1,,,,,,,,,1,,,77,50
430920,note_off,360,0,1,,,,,,,,,1,,,77,0
431040,note_on,120,0,1,,,,,,,,,1,,,77,51
431040,note_on,0,0,3,,,,,,,,,3,,,69,49
431040,note_on,600,0,3,,,,,,,,,3,,,65,49
431040,note_on,0,0,3,,,,,,,,,3,,,62,49
431400,note_off,0,0,3,,,,,,,,,3,,,65,0
431400,note_off,0,0,3,,,,,,,,,3,,,62,0
431400,note_off,360,0,1,,,,,,,,,1,,,77,0
431400,note_off,360,0,3,,,,,,,,,3,,,69,0
431520,note_on,120,0,3,,,,,,,,,3,,,62,49
431520,note_on,0,0,3,,,,,,,,,3,,,69,49
431520,note_on,0,0,3,,,,,,,,,3,,,65,49
431760,note_on,360,0,1,,,,,,,,,1,,,81,46
431880,note_off,360,0,3,,,,,,,,,3,,,65,0
431880,note_off,0,0,3,,,,,,,,,3,,,69,0
431880,note_off,0,0,3,,,,,,,,,3,,,62,0
431952,note_off,192,0,1,,,,,,,,,1,,,81,0
432000,note_on,48,0,1,,,,,,,,,1,,,74,48
432000,note_on,120,0,3,,,,,,,,,3,,,65,48
432000,note_on,2880,0,5,,,,,,,,,5,,,57,48
432240,note_off,240,0,1,,,,,,,,,1,,,74,0
432240,note_on,0,0,1,,,,,,,,,1,,,76,47
432300,note_off,60,0,1,,,,,,,,,1,,,76,0
432300,note_on,0,0,1,,,,,,,,,1,,,74,48
432360,note_on,0,0,1,,,,,,,,,1,,,73,50
432360,note_off,60,0,1,,,,,,,,,1,,,74,0
432420,note_off,60,0,1,,,,,,,,,1,,,73,0
432420,note_on,0,0,1,,,,,,,,,1,,,74,51
432480,note_off,480,0,3,,,,,,,,,3,,,65,0
432480,note_off,60,0,1,,,,,,,,,1,,,74,0
432480,note_on,0,0,1,,,,,,,,,1,,,77,53
432480,note_on,0,0,3,,,,,,,,,3,,,69,53
432960,note_on,0,0,3,,,,,,,,,3,,,67,49
432960,note_off,480,0,3,,,,,,,,,3,,,69,0
433200,note_off,720,0,1,,,,,,,,,1,,,77,0
433200,note_on,0,0,1,,,,,,,,,1,,,76,46
433440,note_off,480,0,3,,,,,,,,,3,,,67,0
433440,note_on,0,0,3,,,,,,,,,3,,,65,47
433440,note_on,0,0,5,,,,,,,,,5,,,62,47
433440,note_off,240,0,1,,,,,,,,,1,,,76,0
433440,note_on,0,0,1,,,,,,,,,1,,,74,47
433440,note_off,1440,0,5,,,,,,,,,5,,,57,0
433596,note_off,156,0,1,,,,,,,,,1,,,74,0
433680,note_on,84,0,1,,,,,,,,,1,,,73,46
433800,note_off,360,0,5,,,,,,,,,5,,,62,0
433800,note_off,360,0,3,,,,,,,,,3,,,65,0
433836,note_off,156,0,1,,,,,,,,,1,,,73,0
433920,note_on,84,0,1,,,,,,,,,1,,,74,46
434076,note_off,156,0,1,,,,,,,,,1,,,74,0
434160,note_on,84,0,1,,,,,,,,,1,,,76,45
434316,note_off,156,0,1,,,,,,,,,1,,,76,0
434400,note_on,84,0,1,,,,,,,,,1,,,77,45
434556,note_off,156,0,1,,,,,,,,,1,,,77,0
434640,note_on,84,0,1,,,,,,,,,1,,,79,45
434796,note_off,156,0,1,,,,,,,,,1,,,79,0
434820,set_tempo,5700,1,0,,,,,,833333,,,,,,,
434880,note_on,1080,0,5,,,,,,,,,5,,,62,44
434880,set_tempo,60,1,0,,,,,,821917,,,,,,,
434880,note_on,84,0,1,,,,,,,,,1,,,81,44
435120,note_off,240,0,1,,,,,,,,,1,,,81,0
435120,note_on,0,0,1,,,,,,,,,1,,,83,42
435180,note_off,60,0,1,,,,,,,,,1,,,83,0
435180,note_on,0,0,1,,,,,,,,,1,,,81,43
435240,note_off,60,0,1,,,,,,,,,1,,,81,0
435240,note_on,0,0,1,,,,,,,,,1,,,80,43
435300,note_on,0,0,1,,,,,,,,,1,,,81,44
435300,note_off,60,0,1,,,,,,,,,1,,,80,0
435360,note_on,0,0,3,,,,,,,,,3,,,65,44
435360,note_on,1560,0,3,,,,,,,,,3,,,69,44
435360,note_off,60,0,1,,,,,,,,,1,,,81,0
435360,note_on,0,0,1,,,,,,,,,1,,,83,44
435552,note_off,192,0,1,,,,,,,,,1,,,83,0
435600,note_on,48,0,1,,,,,,,,,1,,,85,46
435720,note_off,360,0,3,,,,,,,,,3,,,65,0
435720,note_off,0,0,3,,,,,,,,,3,,,69,0
435792,note_off,192,0,1,,,,,,,,,1,,,85,0
435840,note_on,48,0,1,,,,,,,,,1,,,86,48
435840,note_on,120,0,3,,,,,,,,,3,,,69,48
435840,note_on,0,0,3,,,,,,,,,3,,,65,48
436032,note_off,192,0,1,,,,,,,,,1,,,86,0
436080,note_on,48,0,1,,,,,,,,,1,,,88,50
436200,note_off,0,0,3,,,,,,,,,3,,,69,0
436200,note_off,1320,0,5,,,,,,,,,5,,,62,0
436200,note_off,360,0,3,,,,,,,,,3,,,65,0
436272,note_off,192,0,1,,,,,,,,,1,,,88,0
436320,note_on,120,0,5,,,,,,,,,5,,,62,52
436320,note_on,48,0,1,,,,,,,,,1,,,89,55
436476,note_off,156,0,1,,,,,,,,,1,,,89,0
436560,note_on,84,0,1,,,,,,,,,1,,,85,51
436800,note_on,0,0,1,,,,,,,,,1,,,86,52
436800,note_on,600,0,3,,,,,,,,,3,,,65,50
436800,note_on,0,0,3,,,,,,,,,3,,,69,50
436800,note_off,240,0,1,,,,,,,,,1,,,85,0
436956,note_off,156,0,1,,,,,,,,,1,,,86,0
437040,note_on,84,0,1,,,,,,,,,1,,,80,48
437160,note_off,0,0,3,,,,,,,,,3,,,65,0
437160,note_off,360,0,3,,,,,,,,,3,,,69,0
437280,note_on,0,0,1,,,,,,,,,1,,,81,51
437280,note_off,240,0,1,,,,,,,,,1,,,80,0
437280,note_on,0,0,3,,,,,,,,,3,,,69,47
437280,note_on,120,0,3,,,,,,,,,3,,,65,47
437436,note_off,156,0,1,,,,,,,,,1,,,81,0
437520,note_on,84,0,1,,,,,,,,,1,,,76,46
437640,note_off,1320,0,5,,,,,,,,,5,,,62,0
437640,note_off,0,0,3,,,,,,,,,3,,,65,0
437640,note_off,360,0,3,,,,,,,,,3,,,69,0
437760,note_off,240,0,1,,,,,,,,,1,,,76,0
437760,note_on,0,0,1,,,,,,,,,1,,,77,44
437760,note_on,120,0,5,,,,,,,,,5,,,57,44
438000,note_off,240,0,1,,,,,,,,,1,,,77,0
438000,note_on,0,0,1,,,,,,,,,1,,,79,41
438060,note_off,60,0,1,,,,,,,,,1,,,79,0
438060,note_on,0,0,1,,,,,,,,,1,,,77,41
438120,note_off,60,0,1,,,,,,,,,1,,,77,0
438120,note_on,0,0,1,,,,,,,,,1,,,76,42
438180,note_off,60,0,1,,,,,,,,,1,,,76,0
438180,note_on,0,0,1,,,,,,,,,1,,,77,43
438240,note_on,600,0,3,,,,,,,,,3,,,65,44
438240,note_on,0,0,3,,,,,,,,,3,,,69,44
438240,note_off,60,0,1,,,,,,,,,1,,,77,0
438240,note_on,0,0,1,,,,,,,,,1,,,81,49
438720,note_on,0,0,3,,,,,,,,,3,,,67,41
438720,note_off,0,0,3,,,,,,,,,3,,,65,0
438720,note_off,480,0,3,,,,,,,,,3,,,69,0
438720,note_on,0,0,3,,,,,,,,,3,,,64,41
438960,note_off,720,0,1,,,,,,,,,1,,,81,0
438960,note_on,0,0,1,,,,,,,,,1,,,73,40
439080,note_off,1320,0,5,,,,,,,,,5,,,57,0
439080,note_off,360,0,3,,,,,,,,,3,,,64,0
439080,note_off,0,0,3,,,,,,,,,3,,,67,0
439080,set_tempo,4200,1,0,,,,,,833333,,,,,,,
439152,note_off,192,0,1,,,,,,,,,1,,,73,0
439200,note_on,48,0,1,,,,,,,,,1,,,76,42
439200,note_on,10080,0,2,,,,,,,,,2,,,67,42
439680,note_on,0,0,1,,,,,,,,,1,,,74,36
439680,note_off,480,0,1,,,,,,,,,1,,,76,0
439680,note_on,600,0,5,,,,,,,,,5,,,62,38
439680,note_off,480,0,2,,,,,,,,,2,,,67,0
439680,note_on,0,0,2,,,,,,,,,2,,,65,36
440040,note_off,360,0,1,,,,,,,,,1,,,74,0
440040,set_tempo,960,1,0,,,,,,845070,,,,,,,
440040,note_off,360,0,2,,,,,,,,,2,,,65,0
440040,note_off,360,0,5,,,,,,,,,5,,,62,0
440160,note_on,120,0,5,,,,,,,,,5,,,50,36
440520,note_off,360,0,5,,,,,,,,,5,,,50,0
440520,set_tempo,480,1,0,,,,,,1428571,,,,,,,
440640,control_change,11520,0,4,,,,,,,64,0,4,,,,
440640,set_tempo,120,1,0,,,,,,821917,,,,,,,
440640,marker,0,1,0,,,,,,,,,,,,,
440640,control_change,120,0,5,,,,,,,64,0,5,,,,
440640,control_change,600,0,2,,,,,,,64,0,2,,,,
440640,control_change,600,0,1,,,,,,,64,0,1,,,,
440640,note_on,0,0,1,,,,,,,,,1,,,76,50
440640,control_change,1560,0,3,,,,,,,64,0,3,,,,
441000,note_off,360,0,1,,,,,,,,,1,,,76,0
441120,note_on,0,0,4,,,,,,,,,4,,,61,50
441120,note_on,480,0,4,,,,,,,,,4,,,57,50
441360,note_on,360,0,1,,,,,,,,,1,,,76,50
441480,note_off,0,0,4,,,,,,,,,4,,,57,0
441480,note_off,360,0,4,,,,,,,,,4,,,61,0
441552,note_off,192,0,1,,,,,,,,,1,,,76,0
441600,note_on,120,0,4,,,,,,,,,4,,,61,50
441600,note_on,48,0,1,,,,,,,,,1,,,76,50
441600,note_on,0,0,4,,,,,,,,,4,,,57,50
441792,note_off,192,0,1,,,,,,,,,1,,,76,0
441840,note_on,48,0,1,,,,,,,,,1,,,76,50
441960,note_off,0,0,4,,,,,,,,,4,,,61,0
441960,note_off,360,0,4,,,,,,,,,4,,,57,0
442032,note_off,192,0,1,,,,,,,,,1,,,76,0
442080,note_on,48,0,1,,,,,,,,,1,,,77,50
442120,note_on,0,0,1,,,,,,,,,1,,,76,50
442120,note_off,40,0,1,,,,,,,,,1,,,77,0
442160,note_on,0,0,1,,,,,,,,,1,,,75,50
442160,note_off,40,0,1,,,,,,,,,1,,,76,0
442200,note_on,0,0,1,,,,,,,,,1,,,76,51
442200,note_off,40,0,1,,,,,,,,,1,,,75,0
442440,note_on,0,0,1,,,,,,,,,1,,,81,54
442440,note_off,240,0,1,,,,,,,,,1,,,76,0
442560,note_on,0,0,1,,,,,,,,,1,,,81,57
442560,note_off,120,0,1,,,,,,,,,1,,,81,0
442560,note_on,0,0,4,,,,,,,,,4,,,69,57
442560,note_on,600,0,4,,,,,,,,,4,,,73,57
442920,note_off,360,0,4,,,,,,,,,4,,,69,0
442920,note_off,0,0,4,,,,,,,,,4,,,73,0
443040,note_on,120,0,4,,,,,,,,,4,,,69,53
443040,note_on,0,0,4,,,,,,,,,4,,,73,53
443280,note_off,720,0,1,,,,,,,,,1,,,81,0
443280,note_on,0,0,1,,,,,,,,,1,,,76,51
443400,note_off,360,0,4,,,,,,,,,4,,,73,0
443400,note_off,0,0,4,,,,,,,,,4,,,69,0
443460,set_tempo,2820,1,0,,,,,,833333,,,,,,,
443520,note_off,240,0,1,,,,,,,,,1,,,76,0
443520,set_tempo,60,1,0,,,,,,821917,,,,,,,
443520,note_on,0,0,1,,,,,,,,,1,,,79,51
443760,note_off,240,0,1,,,,,,,,,1,,,79,0
443760,note_on,0,0,1,,,,,,,,,1,,,77,46
443952,note_off,192,0,1,,,,,,,,,1,,,77,0
444000,note_on,0,0,4,,,,,,,,,4,,,62,50
444000,note_on,600,0,4,,,,,,,,,4,,,69,50
444240,note_on,288,0,1,,,,,,,,,1,,,77,48
444360,note_off,360,0,4,,,,,,,,,4,,,62,0
444360,note_off,0,0,4,,,,,,,,,4,,,69,0
444432,note_off,192,0,1,,,,,,,,,1,,,77,0
444480,note_on,0,0,4,,,,,,,,,4,,,62,52
444480,note_on,120,0,4,,,,,,,,,4,,,69,52
444480,note_on,48,0,1,,,,,,,,,1,,,77,50
444672,note_off,192,0,1,,,,,,,,,1,,,77,0
444720,note_on,48,0,1,,,,,,,,,1,,,77,52
444840,note_off,0,0,4,,,,,,,,,4,,,69,0
444840,note_off,360,0,4,,,,,,,,,4,,,62,0
444912,note_off,192,0,1,,,,,,,,,1,,,77,0
444960,note_on,48,0,1,,,,,,,,,1,,,79,54
445000,note_off,40,0,1,,,,,,,,,1,,,79,0
445000,note_on,0,0,1,,,,,,,,,1,,,77,54
445040,note_on,0,0,1,,,,,,,,,1,,,76,55
445040,note_off,40,0,1,,,,,,,,,1,,,77,0
445080,note_on,0,0,1,,,,,,,,,1,,,77,55
445080,note_off,40,0,1,,,,,,,,,1,,,76,0
445320,note_off,240,0,1,,,,,,,,,1,,,77,0
445320,note_on,0,0,1,,,,,,,,,1,,,79,57
445440,note_on,600,0,4,,,,,,,,,4,,,74,57
445440,note_on,0,0,4,,,,,,,,,4,,,77,57
445440,note_on,0,0,1,,,,,,,,,1,,,81,58
445440,note_off,120,0,1,,,,,,,,,1,,,79,0
445800,note_off,360,0,4,,,,,,,,,4,,,77,0
445800,note_off,0,0,4,,,,,,,,,4,,,74,0
445920,note_on,120,0,4,,,,,,,,,4,,,77,59
445920,note_on,0,0,4,,,,,,,,,4,,,74,59
446160,note_off,720,0,1,,,,,,,,,1,,,81,0
446160,note_on,0,0,1,,,,,,,,,1,,,86,61
446280,note_off,360,0,4,,,,,,,,,4,,,74,0
446280,note_off,0,0,4,,,,,,,,,4,,,77,0
446340,set_tempo,2820,1,0,,,,,,833333,,,,,,,
446400,note_off,240,0,1,,,,,,,,,1,,,86,0
446400,note_on,0,0,4,,,,,,,,,4,,,73,65
446400,note_on,120,0,4,,,,,,,,,4,,,79,65
446400,set_tempo,60,1,0,,,,,,821917,,,,,,,
446400,note_on,0,0,1,,,,,,,,,1,,,85,65
446640,note_off,240,0,1,,,,,,,,,1,,,85,0
446640,note_on,0,0,1,,,,,,,,,1,,,82,60
446880,note_off,240,0,1,,,,,,,,,1,,,82,0
446880,note_on,0,0,1,,,,,,,,,1,,,81,59
446880,note_on,0,0,4,,,,,,,,,4,,,74,56
446880,note_off,0,0,4,,,,,,,,,4,,,79,0
446880,note_on,0,0,4,,,,,,,,,4,,,77,56
446880,note_off,480,0,4,,,,,,,,,4,,,73,0
446976,note_off,96,0,1,,,,,,,,,1,,,81,0
447000,note_on,24,0,1,,,,,,,,,1,,,89,58
447120,note_off,120,0,1,,,,,,,,,1,,,89,0
447120,note_on,0,0,1,,,,,,,,,1,,,88,57
447240,note_off,120,0,1,,,,,,,,,1,,,88,0
447240,note_on,0,0,1,,,,,,,,,1,,,86,57
447240,note_off,0,0,4,,,,,,,,,4,,,74,0
447240,note_off,360,0,4,,,,,,,,,4,,,77,0
447360,note_off,120,0,1,,,,,,,,,1,,,86,0
447360,note_on,0,0,1,,,,,,,,,1,,,85,56
447480,note_on,0,0,1,,,,,,,,,1,,,86,55
447480,note_off,120,0,1,,,,,,,,,1,,,85,0
447600,note_on,0,0,1,,,,,,,,,1,,,88,55
447600,note_off,120,0,1,,,,,,,,,1,,,86,0
447720,note_on,0,0,1,,,,,,,,,1,,,86,54
447720,note_off,120,0,1,,,,,,,,,1,,,88,0
447780,set_tempo,1380,1,0,,,,,,833333,,,,,,,
447840,note_on,600,0,4,,,,,,,,,4,,,79,53
447840,note_on,0,0,1,,,,,,,,,1,,,85,57
447840,note_off,120,0,1,,,,,,,,,1,,,86,0
447840,note_on,0,0,4,,,,,,,,,4,,,73,53
447840,set_tempo,60,1,0,,,,,,821917,,,,,,,
448080,note_on,0,0,1,,,,,,,,,1,,,82,51
448080,note_off,240,0,1,,,,,,,,,1,,,85,0
448320,note_off,240,0,1,,,,,,,,,1,,,82,0
448320,note_off,480,0,4,,,,,,,,,4,,,73,0
448320,note_off,0,0,4,,,,,,,,,4,,,79,0
448320,note_on,0,0,4,,,,,,,,,4,,,74,46
448320,note_on,0,0,4,,,,,,,,,4,,,77,46
448320,note_on,0,0,1,,,,,,,,,1,,,81,51
448440,note_on,0,0,1,,,,,,,,,1,,,82,53
448440,note_off,120,0,1,,,,,,,,,1,,,81,0
448560,note_off,120,0,1,,,,,,,,,1,,,82,0
448560,note_on,0,0,1,,,,,,,,,1,,,83,55
448680,note_off,360,0,4,,,,,,,,,4,,,77,0
448680,note_off,0,0,4,,,,,,,,,4,,,74,0
448680,note_off,120,0,1,,,,,,,,,1,,,83,0
448680,note_on,0,0,1,,,,,,,,,1,,,84,56
448800,note_off,120,0,1,,,,,,,,,1,,,84,0
448800,note_on,0,0,1,,,,,,,,,1,,,85,58
448920,note_off,120,0,1,,,,,,,,,1,,,85,0
448920,note_on,0,0,1,,,,,,,,,1,,,86,60
449040,note_off,120,0,1,,,,,,,,,1,,,86,0
449040,note_on,0,0,1,,,,,,,,,1,,,88,62
449160,note_off,120,0,1,,,,,,,,,1,,,88,0
449160,note_on,0,0,1,,,,,,,,,1,,,89,64
449220,set_tempo,1380,1,0,,,,,,833333,,,,,,,
449256,note_off,96,0,1,,,,,,,,,1,,,89,0
449280,note_on,8640,0,5,,,,,,,,,5,,,71,66
449280,note_on,24,0,1,,,,,,,,,1,,,89,66
449280,set_tempo,60,1,0,,,,,,821917,,,,,,,
449436,note_off,156,0,1,,,,,,,,,1,,,89,0
449520,note_on,84,0,1,,,,,,,,,1,,,80,65
449676,note_off,156,0,1,,,,,,,,,1,,,80,0
449760,note_off,480,0,5,,,,,,,,,5,,,71,0
449760,note_on,0,0,5,,,,,,,,,5,,,73,62
449760,note_on,84,0,1,,,,,,,,,1,,,79,62
450000,note_on,0,0,1,,,,,,,,,1,,,88,56
450000,note_off,240,0,1,,,,,,,,,1,,,79,0
450156,note_off,156,0,1,,,,,,,,,1,,,88,0
450240,note_on,84,0,1,,,,,,,,,1,,,77,58
450240,note_on,0,0,5,,,,,,,,,5,,,74,55
450240,note_off,480,0,5,,,,,,,,,5,,,73,0
450480,note_off,240,0,1,,,,,,,,,1,,,77,0
450480,note_on,0,0,1,,,,,,,,,1,,,83,52
450480,note_on,0,0,5,,,,,,,,,5,,,68,52
450480,note_off,240,0,5,,,,,,,,,5,,,74,0
450600,set_tempo,1320,1,0,,,,,,833333,,,,,,,
450636,note_off,156,0,1,,,,,,,,,1,,,83,0
450672,note_off,192,0,5,,,,,,,,,5,,,68,0
450720,note_on,2040,0,4,,,,,,,,,4,,,74,55
450720,note_on,48,0,5,,,,,,,,,5,,,69,55
450720,note_on,84,0,1,,,,,,,,,1,,,81,55
451200,note_off,480,0,1,,,,,,,,,1,,,81,0
451200,note_on,0,0,1,,,,,,,,,1,,,79,47
451320,note_on,0,0,1,,,,,,,,,1,,,77,45
451320,note_off,120,0,1,,,,,,,,,1,,,79,0
451440,note_off,120,0,1,,,,,,,,,1,,,77,0
451440,note_on,0,0,1,,,,,,,,,1,,,76,44
451560,note_on,0,0,1,,,,,,,,,1,,,77,42
451560,set_tempo,960,1,0,,,,,,845070,,,,,,,
451560,note_off,120,0,1,,,,,,,,,1,,,76,0
451680,note_off,120,0,1,,,,,,,,,1,,,77,0
451680,note_off,960,0,4,,,,,,,,,4,,,74,0
451680,note_on,0,0,4,,,,,,,,,4,,,73,40
451680,note_on,0,0,1,,,,,,,,,1,,,76,40
451867,note_off,1147,0,5,,,,,,,,,5,,,69,0
451872,note_off,192,0,1,,,,,,,,,1,,,76,0
451872,note_off,192,0,4,,,,,,,,,4,,,73,0
452040,set_tempo,480,1,0,,,,,,1276595,,,,,,,
452160,note_on,288,0,1,,,,,,,,,1,,,81,48
452160,set_tempo,120,1,0,,,,,,821917,,,,,,,
452520,note_off,360,0,1,,,,,,,,,1,,,81,0
452640,note_on,0,0,4,,,,,,,,,4,,,62,49
452640,note_on,768,0,4,,,,,,,,,4,,,65,49
452640,note_on,0,0,4,,,,,,,,,4,,,69,49
452640,note_on,120,0,1,,,,,,,,,1,,,81,51
453000,note_off,360,0,1,,,,,,,,,1,,,81,0
453000,note_off,0,0,4,,,,,,,,,4,,,65,0
453000,note_off,0,0,4,,,,,,,,,4,,,62,0
453000,note_off,360,0,4,,,,,,,,,4,,,69,0
453000,note_on,0,0,1,,,,,,,,,1,,,82,49
453040,note_off,40,0,1,,,,,,,,,1,,,82,0
453040,note_on,0,0,1,,,,,,,,,1,,,81,49
453080,note_on,0,0,1,,,,,,,,,1,,,80,49
453080,note_off,40,0,1,,,,,,,,,1,,,81,0
453120,note_on,0,0,4,,,,,,,,,4,,,62,51
453120,note_on,0,0,4,,,,,,,,,4,,,69,51
453120,note_on,0,0,1,,,,,,,,,1,,,81,48
453120,note_off,40,0,1,,,,,,,,,1,,,80,0
453120,note_on,120,0,4,,,,,,,,,4,,,65,51
453360,note_off,240,0,1,,,,,,,,,1,,,81,0
453360,note_on,0,0,1,,,,,,,,,1,,,86,52
453480,note_off,360,0,4,,,,,,,,,4,,,69,0
453480,note_off,0,0,4,,,,,,,,,4,,,65,0
453480,note_off,0,0,4,,,,,,,,,4,,,62,0
453600,note_off,240,0,1,,,,,,,,,1,,,86,0
453600,note_on,0,0,1,,,,,,,,,1,,,86,57
453960,note_off,360,0,1,,,,,,,,,1,,,86,0
453960,note_on,0,0,1,,,,,,,,,1,,,77,51
454056,note_off,96,0,1,,,,,,,,,1,,,77,0
454080,note_on,0,0,4,,,,,,,,,4,,,62,49
454080,note_on,24,0,1,,,,,,,,,1,,,77,49
454080,note_on,600,0,4,,,,,,,,,4,,,65,49
454080,note_on,0,0,4,,,,,,,,,4,,,69,49
454440,note_off,360,0,1,,,,,,,,,1,,,77,0
454440,note_on,0,0,1,,,,,,,,,1,,,79,48
454440,note_off,360,0,4,,,,,,,,,4,,,69,0
454440,note_off,0,0,4,,,,,,,,,4,,,62,0
454440,note_off,0,0,4,,,,,,,,,4,,,65,0
454480,note_on,0,0,1,,,,,,,,,1,,,77,48
454480,note_off,40,0,1,,,,,,,,,1,,,79,0
454520,note_off,40,0,1,,,,,,,,,1,,,77,0
454520,note_on,0,0,1,,,,,,,,,1,,,76,49
454560,note_off,40,0,1,,,,,,,,,1,,,76,0
454560,note_on,120,0,4,,,,,,,,,4,,,65,49
454560,note_on,0,0,4,,,,,,,,,4,,,62,49
454560,note_on,0,0,1,,,,,,,,,1,,,77,49
454560,note_on,0,0,4,,,,,,,,,4,,,69,49
454800,note_on,0,0,1,,,,,,,,,1,,,81,50
454800,note_off,240,0,1,,,,,,,,,1,,,77,0
454920,note_off,360,0,4,,,,,,,,,4,,,69,0
454920,note_off,0,0,4,,,,,,,,,4,,,62,0
454920,note_off,0,0,4,,,,,,,,,4,,,65,0
455040,note_on,3173,0,5,,,,,,,,,5,,,57,51
455040,note_on,120,0,4,,,,,,,,,4,,,65,51
455280,note_on,0,0,1,,,,,,,,,1,,,74,53
455280,note_off,480,0,1,,,,,,,,,1,,,81,0
455520,note_on,0,0,4,,,,,,,,,4,,,69,52
455520,note_off,480,0,4,,,,,,,,,4,,,65,0
455760,note_on,0,0,1,,,,,,,,,1,,,77,57
455760,note_off,480,0,1,,,,,,,,,1,,,74,0
456000,note_off,480,0,4,,,,,,,,,4,,,69,0
456000,note_on,0,0,4,,,,,,,,,4,,,67,51
456240,note_on,0,0,1,,,,,,,,,1,,,76,48
456240,note_off,480,0,1,,,,,,,,,1,,,77,0
456480,note_off,240,0,1,,,,,,,,,1,,,76,0
456480,note_on,0,0,1,,,,,,,,,1,,,74,45
456480,note_off,480,0,4,,,,,,,,,4,,,67,0
456480,note_on,0,0,4,,,,,,,,,4,,,65,45
456480,note_on,0,0,5,,,,,,,,,5,,,62,45
456480,note_off,1440,0,5,,,,,,,,,5,,,57,0
456576,note_off,96,0,1,,,,,,,,,1,,,74,0
456600,note_on,24,0,1,,,,,,,,,1,,,76,44
456660,note_off,60,0,1,,,,,,,,,1,,,76,0
456660,note_on,0,0,1,,,,,,,,,1,,,74,44
456720,note_off,60,0,1,,,,,,,,,1,,,74,0
456720,note_on,0,0,1,,,,,,,,,1,,,73,44
456798,note_off,78,0,1,,,,,,,,,1,,,73,0
456840,note_off,360,0,4,,,,,,,,,4,,,65,0
456840,note_on,42,0,1,,,,,,,,,1,,,74,45
456840,note_off,360,0,5,,,,,,,,,5,,,62,0
456918,note_off,78,0,1,,,,,,,,,1,,,74,0
456960,note_on,42,0,1,,,,,,,,,1,,,76,46
457038,note_off,78,0,1,,,,,,,,,1,,,76,0
457080,note_on,42,0,1,,,,,,,,,1,,,77,46
457158,note_off,78,0,1,,,,,,,,,1,,,77,0
457200,note_on,42,0,1,,,,,,,,,1,,,79,47
457278,note_off,78,0,1,,,,,,,,,1,,,79,0
457320,note_on,42,0,1,,,,,,,,,1,,,81,48
457398,note_off,78,0,1,,,,,,,,,1,,,81,0
457440,note_on,42,0,1,,,,,,,,,1,,,83,49
457518,note_off,78,0,1,,,,,,,,,1,,,83,0
457560,note_on,42,0,1,,,,,,,,,1,,,85,50
457638,note_off,78,0,1,,,,,,,,,1,,,85,0
457680,note_on,42,0,1,,,,,,,,,1,,,86,50
457758,note_off,78,0,1,,,,,,,,,1,,,86,0
457800,note_on,42,0,1,,,,,,,,,1,,,88,51
457860,set_tempo,5700,1,0,,,,,,833333,,,,,,,
457878,note_off,78,0,1,,,,,,,,,1,,,88,0
457920,set_tempo,60,1,0,,,,,,821917,,,,,,,
457920,note_on,42,0,1,,,,,,,,,1,,,89,57
457920,note_on,1080,0,5,,,,,,,,,5,,,62,57
458076,note_off,156,0,1,,,,,,,,,1,,,89,0
458160,note_on,84,0,1,,,,,,,,,1,,,85,52
458400,note_on,0,0,1,,,,,,,,,1,,,86,54
458400,note_off,240,0,1,,,,,,,,,1,,,85,0
458400,note_on,0,0,4,,,,,,,,,4,,,65,53
458400,note_on,1560,0,4,,,,,,,,,4,,,69,53
458556,note_off,156,0,1,,,,,,,,,1,,,86,0
458640,note_on,84,0,1,,,,,,,,,1,,,80,48
458760,note_off,360,0,4,,,,,,,,,4,,,65,0
458760,note_off,0,0,4,,,,,,,,,4,,,69,0
458880,note_on,0,0,4,,,,,,,,,4,,,65,49
458880,note_on,120,0,4,,,,,,,,,4,,,69,49
458880,note_on,0,0,1,,,,,,,,,1,,,81,50
458880,note_off,240,0,1,,,,,,,,,1,,,80,0
459036,note_off,156,0,1,,,,,,,,,1,,,81,0
459120,note_on,84,0,1,,,,,,,,,1,,,77,43
459240,note_off,1320,0,5,,,,,,,,,5,,,62,0
459240,note_off,0,0,4,,,,,,,,,4,,,69,0
459240,note_off,360,0,4,,,,,,,,,4,,,65,0
459300,set_tempo,1380,1,0,,,,,,833333,,,,,,,
459360,note_on,120,0,5,,,,,,,,,5,,,55,77
459360,note_on,0,0,1,,,,,,,,,1,,,75,77
459360,note_on,0,0,4,,,,,,,,,4,,,58,77
459360,note_on,120,0,4,,,,,,,,,4,,,63,77
459360,note_off,240,0,1,,,,,,,,,1,,,77,0
459480,note_on,0,0,1,,,,,,,,,1,,,77,75
459480,note_off,120,0,1,,,,,,,,,1,,,75,0
459520,note_off,40,0,1,,,,,,,,,1,,,77,0
459520,note_on,0,0,1,,,,,,,,,1,,,75,74
459560,note_off,40,0,1,,,,,,,,,1,,,75,0
459560,note_on,0,0,1,,,,,,,,,1,,,74,74
459600,note_off,40,0,1,,,,,,,,,1,,,74,0
459600,note_on,0,0,1,,,,,,,,,1,,,75,73
459720,note_off,120,0,1,,,,,,,,,1,,,75,0
459720,note_on,0,0,1,,,,,,,,,1,,,77,71
459840,note_off,120,0,1,,,,,,,,,1,,,77,0
459840,note_on,0,0,1,,,,,,,,,1,,,79,70
459960,note_off,120,0,1,,,,,,,,,1,,,79,0
459960,note_on,0,0,1,,,,,,,,,1,,,81,68
460000,note_off,40,0,1,,,,,,,,,1,,,81,0
460000,note_on,0,0,1,,,,,,,,,1,,,79,67
460040,note_on,0,0,1,,,,,,,,,1,,,78,66
460040,note_off,40,0,1,,,,,,,,,1,,,79,0
460080,note_off,40,0,1,,,,,,,,,1,,,78,0
460080,note_on,0,0,1,,,,,,,,,1,,,79,65
460200,note_off,120,0,1,,,,,,,,,1,,,79,0
460200,note_on,0,0,1,,,,,,,,,1,,,81,62
460320,note_on,0,0,1,,,,,,,,,1,,,82,59
460320,note_off,120,0,1,,,,,,,,,1,,,81,0
460512,note_off,1152,0,5,,,,,,,,,5,,,55,0
460512,note_off,0,0,4,,,,,,,,,4,,,63,0
460512,note_off,1152,0,4,,,,,,,,,4,,,58,0
460512,note_off,192,0,1,,,,,,,,,1,,,82,0
460575,set_tempo,1275,1,0,,,,,,845070,,,,,,,
460800,note_on,288,0,4,,,,,,,,,4,,,65,43
460800,note_on,288,0,1,,,,,,,,,1,,,74,43
460800,note_on,288,0,5,,,,,,,,,5,,,57,43
461040,note_off,240,0,1,,,,,,,,,1,,,74,0
461040,note_on,0,0,1,,,,,,,,,1,,,76,46
461100,note_off,60,0,1,,,,,,,,,1,,,76,0
461100,note_on,0,0,1,,,,,,,,,1,,,74,47
461160,note_off,360,0,5,,,,,,,,,5,,,57,0
461160,note_off,360,0,4,,,,,,,,,4,,,65,0
461160,note_off,60,0,1,,,,,,,,,1,,,74,0
461160,note_on,0,0,1,,,,,,,,,1,,,73,48
461220,note_off,60,0,1,,,,,,,,,1,,,73,0
461220,note_on,0,0,1,,,,,,,,,1,,,74,49
461280,note_off,60,0,1,,,,,,,,,1,,,74,0
461280,note_on,0,0,1,,,,,,,,,1,,,77,52
461280,note_on,20640,0,2,,,,,,,,,2,,,69,52
461760,note_on,600,0,5,,,,,,,,,5,,,45,49
462000,note_off,720,0,1,,,,,,,,,1,,,77,0
462000,note_off,720,0,2,,,,,,,,,2,,,69,0
462000,note_on,0,0,2,,,,,,,,,2,,,67,47
462000,note_on,0,0,1,,,,,,,,,1,,,76,47
462120,set_tempo,1545,1,0,,,,,,869565,,,,,,,
462120,note_off,360,0,5,,,,,,,,,5,,,45,0
462240,note_on,120,0,5,,,,,,,,,5,,,50,45
462240,note_on,0,0,1,,,,,,,,,1,,,74,45
462240,note_on,0,0,2,,,,,,,,,2,,,65,45
462240,note_off,240,0,1,,,,,,,,,1,,,76,0
462240,note_off,240,0,2,,,,,,,,,2,,,67,0
462600,note_off,360,0,5,,,,,,,,,5,,,50,0
462600,note_off,360,0,2,,,,,,,,,2,,,65,0
462600,note_off,360,0,1,,,,,,,,,1,,,74,0
462720,set_tempo,600,1,0,,,,,,895522,,,,,,,
462720,note_on,120,0,5,,,,,,,,,5,,,45,40
463080,note_off,360,0,5,,,,,,,,,5,,,45,0
463200,note_on,120,0,5,,,,,,,,,5,,,38,34
463440,set_tempo,720,1,0,,,,,,923076,,,,,,,
463560,note_off,360,0,5,,,,,,,,,5,,,38,0
463680,control_change,2520,0,4,,,,,,,64,0,4,,,,
463680,control_change,1080,0,2,,,,,,,64,0,2,,,,
463680,control_change,1080,0,1,,,,,,,64,0,1,,,,
463680,control_change,23040,0,3,,,,,,,64,0,3,,,,
463680,note_on,0,0,1,,,,,,,,,1,,,76,50
463680,set_tempo,240,1,0,,,,,,821917,,,,,,,
463680,marker,0,1,0,,,,,,,,,,,,,
463680,control_change,120,0,5,,,,,,,64,0,5,,,,
464040,note_off,360,0,1,,,,,,,,,1,,,76,0
464160,note_on,480,0,4,,,,,,,,,4,,,61,50
464160,note_on,0,0,4,,,,,,,,,4,,,57,50
464400,note_on,360,0,1,,,,,,,,,1,,,76,50
464520,note_off,360,0,4,,,,,,,,,4,,,57,0
464520,note_off,0,0,4,,,,,,,,,4,,,61,0
464592,note_off,192,0,1,,,,,,,,,1,,,76,0
464640,note_on,0,0,4,,,,,,,,,4,,,61,50
464640,note_on,48,0,1,,,,,,,,,1,,,76,50
464640,note_on,120,0,4,,,,,,,,,4,,,57,50
464832,note_off,192,0,1,,,,,,,,,1,,,76,0
464880,note_on,48,0,1,,,,,,,,,1,,,76,50
465000,note_off,0,0,4,,,,,,,,,4,,,57,0
465000,note_off,360,0,4,,,,,,,,,4,,,61,0
465072,note_off,192,0,1,,,,,,,,,1,,,76,0
465120,note_on,48,0,1,,,,,,,,,1,,,77,50
465160,note_off,40,0,1,,,,,,,,,1,,,77,0
465160,note_on,0,0,1,,,,,,,,,1,,,76,50
465200,note_off,40,0,1,,,,,,,,,1,,,76,0
465200,note_on,0,0,1,,,,,,,,,1,,,75,50
465240,note_off,40,0,1,,,,,,,,,1,,,75,0
465240,note_on,0,0,1,,,,,,,,,1,,,76,51
465480,note_off,240,0,1,,,,,,,,,1,,,76,0
465480,note_on,0,0,1,,,,,,,,,1,,,81,54
465600,note_on,0,0,4,,,,,,,,,4,,,73,57
465600,note_on,600,0,4,,,,,,,,,4,,,69,57
465600,note_off,120,0,1,,,,,,,,,1,,,81,0
465600,note_on,0,0,1,,,,,,,,,1,,,81,57
465960,note_off,0,0,4,,,,,,,,,4,,,69,0
465960,note_off,360,0,4,,,,,,,,,4,,,73,0
466080,note_on,120,0,4,,,,,,,,,4,,,73,53
466080,note_on,0,0,4,,,,,,,,,4,,,69,53
466320,note_on,0,0,1,,,,,,,,,1,,,76,51
466320,note_off,720,0,1,,,,,,,,,1,,,81,0
466440,note_off,360,0,4,,,,,,,,,4,,,69,0
466440,note_off,0,0,4,,,,,,,,,4,,,73,0
466500,set_tempo,2820,1,0,,,,,,833333,,,,,,,
466560,set_tempo,60,1,0,,,,,,821917,,,,,,,
466560,note_on,0,0,1,,,,,,,,,1,,,79,51
466560,note_off,240,0,1,,,,,,,,,1,,,76,0
466800,note_off,240,0,1,,,,,,,,,1,,,79,0
466800,note_on,0,0,1,,,,,,,,,1,,,77,46
466992,note_off,192,0,1,,,,,,,,,1,,,77,0
467040,note_on,600,0,4,,,,,,,,,4,,,62,50
467040,note_on,0,0,4,,,,,,,,,4,,,69,50
467280,note_on,288,0,1,,,,,,,,,1,,,77,48
467400,note_off,360,0,4,,,,,,,,,4,,,69,0
467400,note_off,0,0,4,,,,,,,,,4,,,62,0
467472,note_off,192,0,1,,,,,,,,,1,,,77,0
467520,note_on,120,0,4,,,,,,,,,4,,,62,52
467520,note_on,0,0,4,,,,,,,,,4,,,69,52
467520,note_on,48,0,1,,,,,,,,,1,,,77,50
467712,note_off,192,0,1,,,,,,,,,1,,,77,0
467760,note_on,48,0,1,,,,,,,,,1,,,77,52
467880,note_off,360,0,4,,,,,,,,,4,,,69,0
467880,note_off,0,0,4,,,,,,,,,4,,,62,0
467952,note_off,192,0,1,,,,,,,,,1,,,77,0
468000,note_on,48,0,1,,,,,,,,,1,,,79,54
468040,note_on,0,0,1,,,,,,,,,1,,,77,54
468040,note_off,40,0,1,,,,,,,,,1,,,79,0
468080,note_on,0,0,1,,,,,,,,,1,,,76,55
468080,note_off,40,0,1,,,,,,,,,1,,,77,0
468120,note_on,0,0,1,,,,,,,,,1,,,77,55
468120,note_off,40,0,1,,,,,,,,,1,,,76,0
468360,note_on,0,0,1,,,,,,,,,1,,,79,57
468360,note_off,240,0,1,,,,,,,,,1,,,77,0
468480,note_on,0,0,4,,,,,,,,,4,,,74,57
468480,note_on,600,0,4,,,,,,,,,4,,,77,57
468480,note_off,120,0,1,,,,,,,,,1,,,79,0
468480,note_on,0,0,1,,,,,,,,,1,,,81,58
468840,note_off,360,0,4,,,,,,,,,4,,,74,0
468840,note_off,0,0,4,,,,,,,,,4,,,77,0
468960,note_on,120,0,4,,,,,,,,,4,,,74,59
468960,note_on,0,0,4,,,,,,,,,4,,,77,59
469200,note_off,720,0,1,,,,,,,,,1,,,81,0
469200,note_on,0,0,1,,,,,,,,,1,,,86,61
469320,note_off,0,0,4,,,,,,,,,4,,,74,0
469320,note_off,360,0,4,,,,,,,,,4,,,77,0
469380,set_tempo,2820,1,0,,,,,,833333,,,,,,,
469440,set_tempo,60,1,0,,,,,,821917,,,,,,,
469440,note_off,240,0,1,,,,,,,,,1,,,86,0
469440,note_on,0,0,1,,,,,,,,,1,,,85,65
469440,note_on,120,0,4,,,,,,,,,4,,,73,65
469440,note_on,0,0,4,,,,,,,,,4,,,79,65
469680,note_off,240,0,1,,,,,,,,,1,,,85,0
469680,note_on,0,0,1,,,,,,,,,1,,,82,60
469920,note_on,0,0,1,,,,,,,,,1,,,81,59
469920,note_on,0,0,4,,,,,,,,,4,,,77,56
469920,note_off,0,0,4,,,,,,,,,4,,,73,0
469920,note_off,480,0,4,,,,,,,,,4,,,79,0
469920,note_on,0,0,4,,,,,,,,,4,,,74,56
469920,note_off,240,0,1,,,,,,,,,1,,,82,0
470016,note_off,96,0,1,,,,,,,,,1,,,81,0
470040,note_on,24,0,1,,,,,,,,,1,,,89,58
470160,note_on,0,0,1,,,,,,,,,1,,,88,57
470160,note_off,120,0,1,,,,,,,,,1,,,89,0
470280,note_on,0,0,1,,,,,,,,,1,,,86,57
470280,note_off,120,0,1,,,,,,,,,1,,,88,0
470280,note_off,360,0,4,,,,,,,,,4,,,74,0
470280,note_off,0,0,4,,,,,,,,,4,,,77,0
470400,note_off,120,0,1,,,,,,,,,1,,,86,0
470400,note_on,0,0,1,,,,,,,,,1,,,85,56
470520,note_off,120,0,1,,,,,,,,,1,,,85,0
470520,note_on,0,0,1,,,,,,,,,1,,,86,55
470640,note_off,120,0,1,,,,,,,,,1,,,86,0
470640,note_on,0,0,1,,,,,,,,,1,,,88,55
470760,note_off,120,0,1,,,,,,,,,1,,,88,0
470760,note_on,0,0,1,,,,,,,,,1,,,86,54
470820,set_tempo,1380,1,0,,,,,,833333,,,,,,,
470880,note_off,120,0,1,,,,,,,,,1,,,86,0
470880,note_on,0,0,1,,,,,,,,,1,,,85,57
470880,set_tempo,60,1,0,,,,,,821917,,,,,,,
470880,note_on,0,0,4,,,,,,,,,4,,,79,53
470880,note_on,600,0,4,,,,,,,,,4,,,73,53
471120,note_off,240,0,1,,,,,,,,,1,,,85,0
471120,note_on,0,0,1,,,,,,,,,1,,,82,51
471360,note_off,480,0,4,,,,,,,,,4,,,79,0
471360,note_on,0,0,4,,,,,,,,,4,,,74,46
471360,note_on,0,0,4,,,,,,,,,4,,,77,46
471360,note_off,240,0,1,,,,,,,,,1,,,82,0
471360,note_on,0,0,1,,,,,,,,,1,,,81,51
471360,note_off,0,0,4,,,,,,,,,4,,,73,0
471480,note_off,120,0,1,,,,,,,,,1,,,81,0
471480,note_on,0,0,1,,,,,,,,,1,,,82,53
471600,note_on,0,0,1,,,,,,,,,1,,,83,55
471600,note_off,120,0,1,,,,,,,,,1,,,82,0
471720,note_off,0,0,4,,,,,,,,,4,,,77,0
471720,note_on,0,0,1,,,,,,,,,1,,,84,56
471720,note_off,120,0,1,,,,,,,,,1,,,83,0
471720,note_off,360,0,4,,,,,,,,,4,,,74,0
471840,note_off,120,0,1,,,,,,,,,1,,,84,0
471840,note_on,0,0,1,,,,,,,,,1,,,85,58
471960,note_on,0,0,1,,,,,,,,,1,,,86,60
471960,note_off,120,0,1,,,,,,,,,1,,,85,0
472080,note_on,0,0,1,,,,,,,,,1,,,88,62
472080,note_off,120,0,1,,,,,,,,,1,,,86,0
472200,note_on,0,0,1,,,,,,,,,1,,,89,64
472200,note_off,120,0,1,,,,,,,,,1,,,88,0
472260,set_tempo,1380,1,0,,,,,,833333,,,,,,,
472296,note_off,96,0,1,,,,,,,,,1,,,89,0
472320,note_on,24,0,1,,,,,,,,,1,,,89,66
472320,note_on,8640,0,5,,,,,,,,,5,,,71,66
472320,set_tempo,60,1,0,,,,,,821917,,,,,,,
472476,note_off,156,0,1,,,,,,,,,1,,,89,0
472560,note_on,84,0,1,,,,,,,,,1,,,80,65
472716,note_off,156,0,1,,,,,,,,,1,,,80,0
472800,note_off,480,0,5,,,,,,,,,5,,,71,0
472800,note_on,0,0,5,,,,,,,,,5,,,73,62
472800,note_on,84,0,1,,,,,,,,,1,,,79,62
473040,note_off,240,0,1,,,,,,,,,1,,,79,0
473040,note_on,0,0,1,,,,,,,,,1,,,88,56
473196,note_off,156,0,1,,,,,,,,,1,,,88,0
473280,note_off,480,0,5,,,,,,,,,5,,,73,0
473280,note_on,0,0,5,,,,,,,,,5,,,74,55
473280,note_on,84,0,1,,,,,,,,,1,,,77,58
473520,note_off,240,0,1,,,,,,,,,1,,,77,0
473520,note_on,0,0,1,,,,,,,,,1,,,83,52
473520,note_off,240,0,5,,,,,,,,,5,,,74,0
473520,note_on,0,0,5,,,,,,,,,5,,,68,52
473640,set_tempo,1320,1,0,,,,,,833333,,,,,,,
473676,note_off,156,0,1,,,,,,,,,1,,,83,0
473712,note_off,192,0,5,,,,,,,,,5,,,68,0
473760,note_on,84,0,1,,,,,,,,,1,,,81,55
473760,note_on,2040,0,4,,,,,,,,,4,,,74,55
473760,note_on,48,0,5,,,,,,,,,5,,,69,55
474240,note_on,0,0,1,,,,,,,,,1,,,79,47
474240,note_off,480,0,1,,,,,,,,,1,,,81,0
474360,note_off,120,0,1,,,,,,,,,1,,,79,0
474360,note_on,0,0,1,,,,,,,,,1,,,77,45
474480,note_off,120,0,1,,,,,,,,,1,,,77,0
474480,note_on,0,0,1,,,,,,,,,1,,,76,44
474600,note_off,120,0,1,,,,,,,,,1,,,76,0
474600,note_on,0,0,1,,,,,,,,,1,,,77,42
474600,set_tempo,960,1,0,,,,,,845070,,,,,,,
474720,note_off,120,0,1,,,,,,,,,1,,,77,0
474720,note_off,960,0,4,,,,,,,,,4,,,74,0
474720,note_on,0,0,1,,,,,,,,,1,,,76,40
474720,note_on,0,0,4,,,,,,,,,4,,,73,40
474907,note_off,1147,0,5,,,,,,,,,5,,,69,0
474912,note_off,192,0,1,,,,,,,,,1,,,76,0
474912,note_off,192,0,4,,,,,,,,,4,,,73,0
475080,set_tempo,480,1,0,,,,,,1276595,,,,,,,
475200,note_on,288,0,1,,,,,,,,,1,,,81,48
475200,set_tempo,120,1,0,,,,,,821917,,,,,,,
475560,note_off,360,0,1,,,,,,,,,1,,,81,0
475680,note_on,0,0,4,,,,,,,,,4,,,65,49
475680,note_on,0,0,4,,,,,,,,,4,,,62,49
475680,note_on,768,0,4,,,,,,,,,4,,,69,49
475680,note_on,120,0,1,,,,,,,,,1,,,81,51
476040,note_on,0,0,1,,,,,,,,,1,,,82,49
476040,note_off,0,0,4,,,,,,,,,4,,,69,0
476040,note_off,360,0,4,,,,,,,,,4,,,65,0
476040,note_off,360,0,1,,,,,,,,,1,,,81,0
476040,note_off,0,0,4,,,,,,,,,4,,,62,0
476080,note_on,0,0,1,,,,,,,,,1,,,81,49
476080,note_off,40,0,1,,,,,,,,,1,,,82,0
476120,note_on,0,0,1,,,,,,,,,1,,,80,49
476120,note_off,40,0,1,,,,,,,,,1,,,81,0
476160,note_on,0,0,4,,,,,,,,,4,,,65,51
476160,note_on,120,0,4,,,,,,,,,4,,,69,51
476160,note_on,0,0,1,,,,,,,,,1,,,81,48
476160,note_off,40,0,1,,,,,,,,,1,,,80,0
476160,note_on,0,0,4,,,,,,,,,4,,,62,51
476400,note_off,240,0,1,,,,,,,,,1,,,81,0
476400,note_on,0,0,1,,,,,,,,,1,,,86,52
476520,note_off,360,0,4,,,,,,,,,4,,,65,0
476520,note_off,0,0,4,,,,,,,,,4,,,62,0
476520,note_off,0,0,4,,,,,,,,,4,,,69,0
476640,note_off,240,0,1,,,,,,,,,1,,,86,0
476640,note_on,0,0,1,,,,,,,,,1,,,86,57
477000,note_off,360,0,1,,,,,,,,,1,,,86,0
477000,note_on,0,0,1,,,,,,,,,1,,,77,51
477096,note_off,96,0,1,,,,,,,,,1,,,77,0
477120,note_on,0,0,4,,,,,,,,,4,,,62,49
477120,note_on,0,0,4,,,,,,,,,4,,,65,49
477120,note_on,24,0,1,,,,,,,,,1,,,77,49
477120,note_on,600,0,4,,,,,,,,,4,,,69,49
477480,note_off,360,0,1,,,,,,,,,1,,,77,0
477480,note_on,0,0,1,,,,,,,,,1,,,79,48
477480,note_off,360,0,4,,,,,,,,,4,,,65,0
477480,note_off,0,0,4,,,,,,,,,4,,,62,0
477480,note_off,0,0,4,,,,,,,,,4,,,69,0
477520,note_on,0,0,1,,,,,,,,,1,,,77,48
477520,note_off,40,0,1,,,,,,,,,1,,,79,0
477560,note_off,40,0,1,,,,,,,,,1,,,77,0
477560,note_on,0,0,1,,,,,,,,,1,,,76,49
477600,note_on,0,0,1,,,,,,,,,1,,,77,49
477600,note_on,120,0,4,,,,,,,,,4,,,69,49
477600,note_on,0,0,4,,,,,,,,,4,,,62,49
477600,note_on,0,0,4,,,,,,,,,4,,,65,49
477600,note_off,40,0,1,,,,,,,,,1,,,76,0
477840,note_off,240,0,1,,,,,,,,,1,,,77,0
477840,note_on,0,0,1,,,,,,,,,1,,,81,50
477960,note_off,0,0,4,,,,,,,,,4,,,69,0
477960,note_off,0,0,4,,,,,,,,,4,,,62,0
477960,note_off,360,0,4,,,,,,,,,4,,,65,0
478080,note_on,120,0,4,,,,,,,,,4,,,65,51
478080,note_on,3173,0,5,,,,,,,,,5,,,57,51
478320,note_on,0,0,1,,,,,,,,,1,,,74,53
478320,note_off,480,0,1,,,,,,,,,1,,,81,0
478560,note_off,480,0,4,,,,,,,,,4,,,65,0
478560,note_on,0,0,4,,,,,,,,,4,,,69,52
478800,note_off,480,0,1,,,,,,,,,1,,,74,0
478800,note_on,0,0,1,,,,,,,,,1,,,77,57
479040,note_on,0,0,4,,,,,,,,,4,,,67,51
479040,note_off,480,0,4,,,,,,,,,4,,,69,0
479280,note_off,480,0,1,,,,,,,,,1,,,77,0
479280,note_on,0,0,1,,,,,,,,,1,,,76,48
479520,note_on,0,0,4,,,,,,,,,4,,,65,45
479520,note_on,0,0,1,,,,,,,,,1,,,74,45
479520,note_off,240,0,1,,,,,,,,,1,,,76,0
479520,note_off,480,0,4,,,,,,,,,4,,,67,0
479520,note_on,0,0,5,,,,,,,,,5,,,62,45
479520,note_off,1440,0,5,,,,,,,,,5,,,57,0
479616,note_off,96,0,1,,,,,,,,,1,,,74,0
479640,note_on,24,0,1,,,,,,,,,1,,,76,44
479700,note_on,0,0,1,,,,,,,,,1,,,74,44
479700,note_off,60,0,1,,,,,,,,,1,,,76,0
479760,note_on,0,0,1,,,,,,,,,1,,,73,44
479760,note_off,60,0,1,,,,,,,,,1,,,74,0
479838,note_off,78,0,1,,,,,,,,,1,,,73,0
479880,note_off,360,0,4,,,,,,,,,4,,,65,0
479880,note_off,360,0,5,,,,,,,,,5,,,62,0
479880,note_on,42,0,1,,,,,,,,,1,,,74,45
479958,note_off,78,0,1,,,,,,,,,1,,,74,0
480000,note_on,42,0,1,,,,,,,,,1,,,76,46
480078,note_off,78,0,1,,,,,,,,,1,,,76,0
480120,note_on,42,0,1,,,,,,,,,1,,,77,46
480198,note_off,78,0,1,,,,,,,,,1,,,77,0
480240,note_on,42,0,1,,,,,,,,,1,,,79,47
480318,note_off,78,0,1,,,,,,,,,1,,,79,0
480360,note_on,42,0,1,,,,,,,,,1,,,81,48
480438,note_off,78,0,1,,,,,,,,,1,,,81,0
480480,note_on,42,0,1,,,,,,,,,1,,,83,49
480558,note_off,78,0,1,,,,,,,,,1,,,83,0
480600,note_on,42,0,1,,,,,,,,,1,,,85,50
480678,note_off,78,0,1,,,,,,,,,1,,,85,0
480720,note_on,42,0,1,,,,,,,,,1,,,86,50
480798,note_off,78,0,1,,,,,,,,,1,,,86,0
480840,note_on,42,0,1,,,,,,,,,1,,,88,51
480900,set_tempo,5700,1,0,,,,,,833333,,,,,,,
480918,note_off,78,0,1,,,,,,,,,1,,,88,0
480960,note_on,1080,0,5,,,,,,,,,5,,,62,57
480960,note_on,42,0,1,,,,,,,,,1,,,89,57
480960,set_tempo,60,1,0,,,,,,821917,,,,,,,
481116,note_off,156,0,1,,,,,,,,,1,,,89,0
481200,note_on,84,0,1,,,,,,,,,1,,,85,52
481440,note_on,0,0,4,,,,,,,,,4,,,69,53
481440,note_on,0,0,1,,,,,,,,,1,,,86,54
481440,note_off,240,0,1,,,,,,,,,1,,,85,0
481440,note_on,1560,0,4,,,,,,,,,4,,,65,53
481596,note_off,156,0,1,,,,,,,,,1,,,86,0
481680,note_on,84,0,1,,,,,,,,,1,,,80,48
481800,note_off,360,0,4,,,,,,,,,4,,,69,0
481800,note_off,0,0,4,,,,,,,,,4,,,65,0
481920,note_off,240,0,1,,,,,,,,,1,,,80,0
481920,note_on,0,0,1,,,,,,,,,1,,,81,50
481920,note_on,0,0,4,,,,,,,,,4,,,69,49
481920,note_on,120,0,4,,,,,,,,,4,,,65,49
482076,note_off,156,0,1,,,,,,,,,1,,,81,0
482160,note_on,84,0,1,,,,,,,,,1,,,77,43
482280,note_off,0,0,4,,,,,,,,,4,,,65,0
482280,note_off,1320,0,5,,,,,,,,,5,,,62,0
482280,note_off,360,0,4,,,,,,,,,4,,,69,0
482340,set_tempo,1380,1,0,,,,,,833333,,,,,,,
482400,note_on,0,0,1,,,,,,,,,1,,,75,77
482400,note_on,120,0,5,,,,,,,,,5,,,55,77
482400,note_off,240,0,1,,,,,,,,,1,,,77,0
482400,note_on,120,0,4,,,,,,,,,4,,,58,77
482400,note_on,0,0,4,,,,,,,,,4,,,63,77
482520,note_on,0,0,1,,,,,,,,,1,,,77,75
482520,note_off,120,0,1,,,,,,,,,1,,,75,0
482560,note_on,0,0,1,,,,,,,,,1,,,75,74
482560,note_off,40,0,1,,,,,,,,,1,,,77,0
482600,note_on,0,0,1,,,,,,,,,1,,,74,74
482600,note_off,40,0,1,,,,,,,,,1,,,75,0
482640,note_off,40,0,1,,,,,,,,,1,,,74,0
482640,note_on,0,0,1,,,,,,,,,1,,,75,73
482760,note_off,120,0,1,,,,,,,,,1,,,75,0
482760,note_on,0,0,1,,,,,,,,,1,,,77,71
482880,note_off,120,0,1,,,,,,,,,1,,,77,0
482880,note_on,0,0,1,,,,,,,,,1,,,79,70
483000,note_off,120,0,1,,,,,,,,,1,,,79,0
483000,note_on,0,0,1,,,,,,,,,1,,,81,68
483040,note_off,40,0,1,,,,,,,,,1,,,81,0
483040,note_on,0,0,1,,,,,,,,,1,,,79,67
483080,note_on,0,0,1,,,,,,,,,1,,,78,66
483080,note_off,40,0,1,,,,,,,,,1,,,79,0
483120,note_on,0,0,1,,,,,,,,,1,,,79,65
483120,note_off,40,0,1,,,,,,,,,1,,,78,0
483240,note_on,0,0,1,,,,,,,,,1,,,81,62
483240,note_off,120,0,1,,,,,,,,,1,,,79,0
483360,note_on,0,0,1,,,,,,,,,1,,,82,59
483360,note_off,120,0,1,,,,,,,,,1,,,81,0
483552,note_off,1152,0,5,,,,,,,,,5,,,55,0
483552,note_off,1152,0,4,,,,,,,,,4,,,63,0
483552,note_off,0,0,4,,,,,,,,,4,,,58,0
483552,note_off,192,0,1,,,,,,,,,1,,,82,0
483615,set_tempo,1275,1,0,,,,,,845070,,,,,,,
483840,note_on,288,0,5,,,,,,,,,5,,,57,43
483840,note_on,288,0,1,,,,,,,,,1,,,74,43
483840,note_on,288,0,4,,,,,,,,,4,,,65,43
484080,note_off,240,0,1,,,,,,,,,1,,,74,0
484080,note_on,0,0,1,,,,,,,,,1,,,76,46
484140,note_off,60,0,1,,,,,,,,,1,,,76,0
484140,note_on,0,0,1,,,,,,,,,1,,,74,47
484200,note_off,360,0,5,,,,,,,,,5,,,57,0
484200,note_off,360,0,4,,,,,,,,,4,,,65,0
484200,note_off,60,0,1,,,,,,,,,1,,,74,0
484200,note_on,0,0,1,,,,,,,,,1,,,73,48
484260,note_off,60,0,1,,,,,,,,,1,,,73,0
484260,note_on,0,0,1,,,,,,,,,1,,,74,49
484320,note_off,60,0,1,,,,,,,,,1,,,74,0
484320,note_on,0,0,1,,,,,,,,,1,,,77,52
484320,note_on,20640,0,2,,,,,,,,,2,,,69,52
484800,note_on,600,0,5,,,,,,,,,5,,,45,49
485040,note_off,720,0,2,,,,,,,,,2,,,69,0
485040,note_on,0,0,2,,,,,,,,,2,,,67,47
485040,note_off,720,0,1,,,,,,,,,1,,,77,0
485040,note_on,0,0,1,,,,,,,,,1,,,76,47
485160,note_off,360,0,5,,,,,,,,,5,,,45,0
485160,set_tempo,1545,1,0,,,,,,869565,,,,,,,
485280,note_off,240,0,2,,,,,,,,,2,,,67,0
485280,note_on,120,0,5,,,,,,,,,5,,,50,45
485280,note_on,0,0,2,,,,,,,,,2,,,65,45
485280,note_on,0,0,1,,,,,,,,,1,,,74,45
485280,note_off,240,0,1,,,,,,,,,1,,,76,0
485640,note_off,360,0,2,,,,,,,,,2,,,65,0
485640,note_off,360,0,5,,,,,,,,,5,,,50,0
485640,note_off,360,0,1,,,,,,,,,1,,,74,0
485760,set_tempo,600,1,0,,,,,,895522,,,,,,,
485760,note_on,120,0,5,,,,,,,,,5,,,45,40
486120,note_off,360,0,5,,,,,,,,,5,,,45,0
486120,set_tempo,360,1,0,,,,,,1176470,,,,,,,
486240,note_on,120,0,5,,,,,,,,,5,,,38,34
486480,set_tempo,360,1,0,,,,,,2727272,,,,,,,
486600,note_off,360,0,5,,,,,,,,,5,,,38,0
486720,set_tempo,240,1,0,,,,,,458015,,,,,,,
486720,note_on,120,0,5,,,,,,,,,5,,,62,55
486720,marker,0,1,0,,,,,,,,,,,,,
486720,note_on,1080,0,1,,,,,,,,,1,,,69,55
486720,note_on,2520,0,4,,,,,,,,,4,,,66,55
486816,note_off,96,0,1,,,,,,,,,1,,,69,0
486840,note_on,24,0,1,,,,,,,,,1,,,81,55
486936,note_off,96,0,1,,,,,,,,,1,,,81,0
486960,note_off,240,0,4,,,,,,,,,4,,,66,0
486960,note_on,0,0,4,,,,,,,,,4,,,65,55
486960,note_on,24,0,1,,,,,,,,,1,,,68,55
487056,note_off,96,0,1,,,,,,,,,1,,,68,0
487080,note_on,24,0,1,,,,,,,,,1,,,80,55
487176,note_off,96,0,1,,,,,,,,,1,,,80,0
487200,note_on,24,0,1,,,,,,,,,1,,,69,55
487200,note_off,240,0,4,,,,,,,,,4,,,65,0
487200,note_on,0,0,4,,,,,,,,,4,,,66,54
487296,note_off,96,0,1,,,,,,,,,1,,,69,0
487320,note_on,24,0,1,,,,,,,,,1,,,81,54
487416,note_off,96,0,1,,,,,,,,,1,,,81,0
487440,note_on,24,0,1,,,,,,,,,1,,,68,54
487440,note_on,0,0,4,,,,,,,,,4,,,65,52
487440,note_off,240,0,4,,,,,,,,,4,,,66,0
487536,note_off,96,0,1,,,,,,,,,1,,,68,0
487560,note_on,24,0,1,,,,,,,,,1,,,80,54
487656,note_off,96,0,1,,,,,,,,,1,,,80,0
487680,note_on,24,0,1,,,,,,,,,1,,,69,54
487680,note_on,0,0,4,,,,,,,,,4,,,66,51
487680,note_off,240,0,4,,,,,,,,,4,,,65,0
487776,note_off,96,0,1,,,,,,,,,1,,,69,0
487800,note_on,24,0,1,,,,,,,,,1,,,81,53
487896,note_off,96,0,1,,,,,,,,,1,,,81,0
487920,note_off,1200,0,5,,,,,,,,,5,,,62,0
487920,note_off,240,0,4,,,,,,,,,4,,,66,0
487920,note_on,24,0,1,,,,,,,,,1,,,74,53
488016,note_off,96,0,1,,,,,,,,,1,,,74,0
488040,note_on,24,0,1,,,,,,,,,1,,,86,53
488136,note_off,96,0,1,,,,,,,,,1,,,86,0
488160,note_on,240,0,5,,,,,,,,,5,,,50,53
488160,note_on,240,0,4,,,,,,,,,4,,,57,53
488160,note_on,24,0,1,,,,,,,,,1,,,66,53
488256,note_off,96,0,1,,,,,,,,,1,,,66,0
488280,note_on,24,0,1,,,,,,,,,1,,,78,53
488376,note_off,96,0,1,,,,,,,,,1,,,78,0
488400,note_on,0,0,4,,,,,,,,,4,,,56,52
488400,note_on,24,0,1,,,,,,,,,1,,,65,52
488400,note_off,240,0,4,,,,,,,,,4,,,57,0
488496,note_off,96,0,1,,,,,,,,,1,,,65,0
488520,note_on,24,0,1,,,,,,,,,1,,,77,52
488616,note_off,96,0,1,,,,,,,,,1,,,77,0
488640,note_on,24,0,1,,,,,,,,,1,,,66,52
488640,note_on,0,0,4,,,,,,,,,4,,,57,51
488640,note_off,240,0,4,,,,,,,,,4,,,56,0
488736,note_off,96,0,1,,,,,,,,,1,,,66,0
488760,note_on,24,0,1,,,,,,,,,1,,,78,52
488856,note_off,96,0,1,,,,,,,,,1,,,78,0
488880,note_off,240,0,4,,,,,,,,,4,,,57,0
488880,note_on,0,0,4,,,,,,,,,4,,,56,50
488880,note_on,24,0,1,,,,,,,,,1,,,65,52
488976,note_off,96,0,1,,,,,,,,,1,,,65,0
489000,note_on,24,0,1,,,,,,,,,1,,,77,51
489096,note_off,96,0,1,,,,,,,,,1,,,77,0
489120,note_on,24,0,1,,,,,,,,,1,,,66,51
489120,note_off,240,0,4,,,,,,,,,4,,,56,0
489120,note_on,0,0,4,,,,,,,,,4,,,57,49
489216,note_off,96,0,1,,,,,,,,,1,,,66,0
489240,note_on,24,0,1,,,,,,,,,1,,,78,51
489336,note_off,96,0,1,,,,,,,,,1,,,78,0
489360,note_off,240,0,4,,,,,,,,,4,,,57,0
489360,note_on,24,0,1,,,,,,,,,1,,,69,51
489360,note_off,1200,0,5,,,,,,,,,5,,,50,0
489456,note_off,96,0,1,,,,,,,,,1,,,69,0
489480,note_on,24,0,1,,,,,,,,,1,,,81,50
489576,note_off,96,0,1,,,,,,,,,1,,,81,0
489600,note_on,0,0,5,,,,,,,,,5,,,59,50
489600,note_on,240,0,5,,,,,,,,,5,,,47,50
489600,note_on,24,0,1,,,,,,,,,1,,,62,50
489696,note_off,96,0,1,,,,,,,,,1,,,62,0
489720,note_on,24,0,1,,,,,,,,,1,,,74,50
489756,note_off,0,0,5,,,,,,,,,5,,,47,0
489756,note_off,156,0,5,,,,,,,,,5,,,59,0
489816,note_off,96,0,1,,,,,,,,,1,,,74,0
489840,note_on,24,0,1,,,,,,,,,1,,,66,50
489936,note_off,96,0,1,,,,,,,,,1,,,66,0
489960,note_on,24,0,1,,,,,,,,,1,,,78,50
490056,note_off,96,0,1,,,,,,,,,1,,,78,0
490080,note_on,324,0,5,,,,,,,,,5,,,43,49
490080,note_on,24,0,1,,,,,,,,,1,,,64,49
490080,note_on,0,0,5,,,,,,,,,5,,,55,49
490176,note_off,96,0,1,,,,,,,,,1,,,64,0
490200,note_on,24,0,1,,,,,,,,,1,,,76,49
490236,note_off,156,0,5,,,,,,,,,5,,,55,0
490236,note_off,0,0,5,,,,,,,,,5,,,43,0
490296,note_off,96,0,1,,,,,,,,,1,,,76,0
490320,note_on,24,0,1,,,,,,,,,1,,,67,49
490416,note_off,96,0,1,,,,,,,,,1,,,67,0
490440,note_on,24,0,1,,,,,,,,,1,,,79,49
490536,note_off,96,0,1,,,,,,,,,1,,,79,0
490560,note_on,24,0,1,,,,,,,,,1,,,61,49
490560,note_on,324,0,5,,,,,,,,,5,,,45,49
490560,note_on,0,0,5,,,,,,,,,5,,,57,49
490656,note_off,96,0,1,,,,,,,,,1,,,61,0
490680,note_on,24,0,1,,,,,,,,,1,,,73,48
490716,note_off,0,0,5,,,,,,,,,5,,,45,0
490716,note_off,156,0,5,,,,,,,,,5,,,57,0
490776,note_off,96,0,1,,,,,,,,,1,,,73,0
490800,note_on,24,0,1,,,,,,,,,1,,,64,48
490896,note_off,96,0,1,,,,,,,,,1,,,64,0
490920,note_on,24,0,1,,,,,,,,,1,,,76,48
491016,note_off,96,0,1,,,,,,,,,1,,,76,0
491040,note_on,0,0,5,,,,,,,,,5,,,38,46
491040,note_on,324,0,5,,,,,,,,,5,,,50,46
491040,note_on,24,0,1,,,,,,,,,1,,,62,46
491136,note_off,96,0,1,,,,,,,,,1,,,62,0
491160,note_on,24,0,1,,,,,,,,,1,,,74,48
491256,note_off,96,0,1,,,,,,,,,1,,,74,0
491280,note_on,24,0,1,,,,,,,,,1,,,61,49
491376,note_off,96,0,1,,,,,,,,,1,,,61,0
491400,note_off,0,0,5,,,,,,,,,5,,,50,0
491400,note_off,360,0,5,,,,,,,,,5,,,38,0
491400,note_on,24,0,1,,,,,,,,,1,,,73,51
491496,note_off,96,0,1,,,,,,,,,1,,,73,0
491520,note_on,24,0,1,,,,,,,,,1,,,62,52
491616,note_off,96,0,1,,,,,,,,,1,,,62,0
491640,note_on,24,0,1,,,,,,,,,1,,,74,54
491736,note_off,96,0,1,,,,,,,,,1,,,74,0
491760,note_on,24,0,1,,,,,,,,,1,,,64,55
491856,note_off,96,0,1,,,,,,,,,1,,,64,0
491880,note_on,24,0,1,,,,,,,,,1,,,76,57
491976,note_off,96,0,1,,,,,,,,,1,,,76,0
492000,note_on,24,0,1,,,,,,,,,1,,,66,58
492096,note_off,96,0,1,,,,,,,,,1,,,66,0
492120,note_on,24,0,1,,,,,,,,,1,,,78,60
492216,note_off,96,0,1,,,,,,,,,1,,,78,0
492240,note_on,24,0,1,,,,,,,,,1,,,67,61
492336,note_off,96,0,1,,,,,,,,,1,,,67,0
492360,note_on,24,0,1,,,,,,,,,1,,,79,63
492420,set_tempo,5700,1,0,,,,,,461538,,,,,,,
492456,note_off,96,0,1,,,,,,,,,1,,,79,0
492480,note_on,0,0,1,,,,,,,,,1,,,69,71
492480,note_on,1080,0,5,,,,,,,,,5,,,50,71
492480,note_on,6840,0,2,,,,,,,,,2,,,78,71
492480,note_on,24,0,1,,,,,,,,,1,,,81,71
492480,set_tempo,60,1,0,,,,,,458015,,,,,,,
492600,note_on,3240,0,4,,,,,,,,,4,,,62,71
492636,note_off,156,0,5,,,,,,,,,5,,,50,0
492696,note_off,96,0,4,,,,,,,,,4,,,62,0
492720,note_on,84,0,5,,,,,,,,,5,,,54,71
492840,note_on,144,0,4,,,,,,,,,4,,,66,71
492876,note_off,156,0,5,,,,,,,,,5,,,54,0
492936,note_off,96,0,4,,,,,,,,,4,,,66,0
492960,note_on,84,0,5,,,,,,,,,5,,,52,71
493080,note_on,144,0,4,,,,,,,,,4,,,64,70
493116,note_off,156,0,5,,,,,,,,,5,,,52,0
493176,note_off,96,0,4,,,,,,,,,4,,,64,0
493200,note_on,84,0,5,,,,,,,,,5,,,50,70
493320,note_on,144,0,4,,,,,,,,,4,,,62,70
493356,note_off,156,0,5,,,,,,,,,5,,,50,0
493416,note_off,96,0,4,,,,,,,,,4,,,62,0
493440,note_off,960,0,2,,,,,,,,,2,,,78,0
493440,note_on,0,0,2,,,,,,,,,2,,,78,66
493440,note_on,84,0,5,,,,,,,,,5,,,49,70
493440,note_off,960,0,1,,,,,,,,,1,,,69,0
493440,note_off,0,0,1,,,,,,,,,1,,,81,0
493440,note_on,0,0,1,,,,,,,,,1,,,86,66
493440,note_on,0,0,1,,,,,,,,,1,,,74,66
493560,note_on,144,0,4,,,,,,,,,4,,,61,70
493596,note_off,156,0,5,,,,,,,,,5,,,49,0
493632,note_off,0,0,1,,,,,,,,,1,,,86,0
493632,note_off,192,0,2,,,,,,,,,2,,,78,0
493632,note_off,192,0,1,,,,,,,,,1,,,74,0
493656,note_off,96,0,4,,,,,,,,,4,,,61,0
493680,note_on,84,0,5,,,,,,,,,5,,,47,69
493800,note_on,144,0,4,,,,,,,,,4,,,59,69
493836,note_off,156,0,5,,,,,,,,,5,,,47,0
493896,note_off,96,0,4,,,,,,,,,4,,,59,0
493920,note_on,84,0,5,,,,,,,,,5,,,45,69
493920,note_on,288,0,1,,,,,,,,,1,,,66,69
493920,note_on,288,0,2,,,,,,,,,2,,,74,69
493920,note_on,0,0,1,,,,,,,,,1,,,78,69
494040,note_on,144,0,4,,,,,,,,,4,,,57,69
494076,note_off,156,0,5,,,,,,,,,5,,,45,0
494136,note_off,96,0,4,,,,,,,,,4,,,57,0
494160,note_on,84,0,5,,,,,,,,,5,,,43,68
494280,note_on,144,0,4,,,,,,,,,4,,,55,68
494316,note_off,156,0,5,,,,,,,,,5,,,43,0
494376,note_off,96,0,4,,,,,,,,,4,,,55,0
494400,note_on,84,0,5,,,,,,,,,5,,,42,68
494520,note_on,144,0,4,,,,,,,,,4,,,54,68
494556,note_off,156,0,5,,,,,,,,,5,,,42,0
494616,note_off,96,0,4,,,,,,,,,4,,,54,0
494640,note_on,84,0,5,,,,,,,,,5,,,40,68
494760,note_on,144,0,4,,,,,,,,,4,,,52,67
494796,note_off,156,0,5,,,,,,,,,5,,,40,0
494856,note_off,96,0,4,,,,,,,,,4,,,52,0
494880,note_on,0,0,1,,,,,,,,,1,,,69,62
494880,note_on,0,0,1,,,,,,,,,1,,,81,62
494880,note_off,0,0,1,,,,,,,,,1,,,66,0
494880,note_off,960,0,1,,,,,,,,,1,,,78,0
494880,note_on,0,0,2,,,,,,,,,2,,,78,62
494880,note_off,960,0,2,,,,,,,,,2,,,74,0
494880,note_on,84,0,5,,,,,,,,,5,,,38,67
495000,note_on,144,0,4,,,,,,,,,4,,,50,67
495036,note_off,156,0,5,,,,,,,,,5,,,38,0
495072,note_off,192,0,2,,,,,,,,,2,,,78,0
495072,note_off,192,0,1,,,,,,,,,1,,,69,0
495072,note_off,0,0,1,,,,,,,,,1,,,81,0
495096,note_off,96,0,4,,,,,,,,,4,,,50,0
495120,note_on,84,0,5,,,,,,,,,5,,,37,67
495240,note_on,144,0,4,,,,,,,,,4,,,49,67
495276,note_off,156,0,5,,,,,,,,,5,,,37,0
495336,note_off,96,0,4,,,,,,,,,4,,,49,0
495360,note_on,84,0,5,,,,,,,,,5,,,35,66
495360,note_on,24,0,4,,,,,,,,,4,,,47,66
495480,note_on,408,0,1,,,,,,,,,1,,,67,66
495516,note_off,156,0,4,,,,,,,,,4,,,47,0
495516,note_off,156,0,5,,,,,,,,,5,,,35,0
495600,note_on,0,0,1,,,,,,,,,1,,,74,66
495600,note_off,120,0,1,,,,,,,,,1,,,67,0
495720,note_off,120,0,1,,,,,,,,,1,,,74,0
495720,note_on,0,0,1,,,,,,,,,1,,,79,66
495816,note_off,96,0,1,,,,,,,,,1,,,79,0
495840,note_on,324,0,4,,,,,,,,,4,,,45,65
495840,note_on,324,0,5,,,,,,,,,5,,,33,65
495960,note_on,144,0,1,,,,,,,,,1,,,69,65
495996,note_off,156,0,4,,,,,,,,,4,,,45,0
495996,note_off,156,0,5,,,,,,,,,5,,,33,0
496080,note_off,120,0,1,,,,,,,,,1,,,69,0
496080,note_on,0,0,1,,,,,,,,,1,,,74,65
496200,note_off,120,0,1,,,,,,,,,1,,,74,0
496200,note_on,0,0,1,,,,,,,,,1,,,78,65
496296,note_off,96,0,1,,,,,,,,,1,,,78,0
496320,note_on,324,0,5,,,,,,,,,5,,,33,65
496320,note_on,324,0,4,,,,,,,,,4,,,45,65
496440,note_on,144,0,1,,,,,,,,,1,,,67,64
496476,note_off,156,0,4,,,,,,,,,4,,,45,0
496476,note_off,156,0,5,,,,,,,,,5,,,33,0
496560,note_on,0,0,1,,,,,,,,,1,,,73,64
496560,note_off,120,0,1,,,,,,,,,1,,,67,0
496680,note_off,120,0,1,,,,,,,,,1,,,73,0
496680,note_on,0,0,1,,,,,,,,,1,,,76,64
496800,note_off,120,0,1,,,,,,,,,1,,,76,0
496800,note_on,0,0,1,,,,,,,,,1,,,74,64
496800,note_on,0,0,1,,,,,,,,,1,,,66,64
496920,note_on,444,0,5,,,,,,,,,5,,,50,65
497040,note_on,0,0,5,,,,,,,,,5,,,54,64
497040,note_off,120,0,5,,,,,,,,,5,,,50,0
497160,note_off,120,0,5,,,,,,,,,5,,,54,0
497160,note_on,0,0,5,,,,,,,,,5,,,50,63
497160,note_off,360,0,1,,,,,,,,,1,,,66,0
497160,note_off,0,0,1,,,,,,,,,1,,,74,0
497280,note_off,120,0,5,,,,,,,,,5,,,50,0
497280,note_on,0,0,5,,,,,,,,,5,,,45,62
497400,note_off,120,0,5,,,,,,,,,5,,,45,0
497400,note_on,0,0,5,,,,,,,,,5,,,50,62
497520,note_off,120,0,5,,,,,,,,,5,,,50,0
497520,note_on,0,0,5,,,,,,,,,5,,,42,61
497640,note_off,120,0,5,,,,,,,,,5,,,42,0
497640,note_on,0,0,5,,,,,,,,,5,,,45,60
497700,set_tempo,5220,1,0,,,,,,461538,,,,,,,
497760,note_off,120,0,5,,,,,,,,,5,,,45,0
497760,note_on,0,0,5,,,,,,,,,5,,,38,59
498048,note_off,288,0,5,,,,,,,,,5,,,38,0
498120,set_tempo,420,1,0,,,,,,465116,,,,,,,
498240,note_on,192,0,5,,,,,,,,,5,,,62,55
498240,note_on,1764,0,4,,,,,,,,,4,,,66,55
498240,marker,0,1,0,,,,,,,,,,,,,
498240,note_on,1080,0,1,,,,,,,,,1,,,69,55
498240,set_tempo,120,1,0,,,,,,458015,,,,,,,
498336,note_off,96,0,1,,,,,,,,,1,,,69,0
498360,note_on,24,0,1,,,,,,,,,1,,,81,55
498456,note_off,96,0,1,,,,,,,,,1,,,81,0
498480,note_on,0,0,4,,,,,,,,,4,,,65,55
498480,note_on,24,0,1,,,,,,,,,1,,,68,55
498480,note_off,240,0,4,,,,,,,,,4,,,66,0
498576,note_off,96,0,1,,,,,,,,,1,,,68,0
498600,note_on,24,0,1,,,,,,,,,1,,,80,55
498696,note_off,96,0,1,,,,,,,,,1,,,80,0
498720,note_on,24,0,1,,,,,,,,,1,,,69,55
498720,note_on,0,0,4,,,,,,,,,4,,,66,54
498720,note_off,240,0,4,,,,,,,,,4,,,65,0
498816,note_off,96,0,1,,,,,,,,,1,,,69,0
498840,note_on,24,0,1,,,,,,,,,1,,,81,54
498936,note_off,96,0,1,,,,,,,,,1,,,81,0
498960,note_on,24,0,1,,,,,,,,,1,,,68,54
498960,note_on,0,0,4,,,,,,,,,4,,,65,52
498960,note_off,240,0,4,,,,,,,,,4,,,66,0
499056,note_off,96,0,1,,,,,,,,,1,,,68,0
499080,note_on,24,0,1,,,,,,,,,1,,,80,54
499176,note_off,96,0,1,,,,,,,,,1,,,80,0
499200,note_on,0,0,4,,,,,,,,,4,,,66,51
499200,note_off,240,0,4,,,,,,,,,4,,,65,0
499200,note_on,24,0,1,,,,,,,,,1,,,69,54
499296,note_off,96,0,1,,,,,,,,,1,,,69,0
499320,note_on,24,0,1,,,,,,,,,1,,,81,53
499416,note_off,96,0,1,,,,,,,,,1,,,81,0
499440,note_off,1200,0,5,,,,,,,,,5,,,62,0
499440,note_on,24,0,1,,,,,,,,,1,,,74,53
499440,note_off,240,0,4,,,,,,,,,4,,,66,0
499536,note_off,96,0,1,,,,,,,,,1,,,74,0
499560,note_on,24,0,1,,,,,,,,,1,,,86,53
499656,note_off,96,0,1,,,,,,,,,1,,,86,0
499680,note_on,24,0,1,,,,,,,,,1,,,66,53
499680,note_on,240,0,5,,,,,,,,,5,,,50,53
499680,note_on,240,0,4,,,,,,,,,4,,,57,53
499776,note_off,96,0,1,,,,,,,,,1,,,66,0
499800,note_on,24,0,1,,,,,,,,,1,,,78,53
499896,note_off,96,0,1,,,,,,,,,1,,,78,0
499920,note_off,240,0,4,,,,,,,,,4,,,57,0
499920,note_on,24,0,1,,,,,,,,,1,,,65,52
499920,note_on,0,0,4,,,,,,,,,4,,,56,52
500016,note_off,96,0,1,,,,,,,,,1,,,65,0
500040,note_on,24,0,1,,,,,,,,,1,,,77,52
500136,note_off,96,0,1,,,,,,,,,1,,,77,0
500160,note_off,240,0,4,,,,,,,,,4,,,56,0
500160,note_on,0,0,4,,,,,,,,,4,,,57,51
500160,note_on,24,0,1,,,,,,,,,1,,,66,52
500256,note_off,96,0,1,,,,,,,,,1,,,66,0
500280,note_on,24,0,1,,,,,,,,,1,,,78,52
500376,note_off,96,0,1,,,,,,,,,1,,,78,0
500400,note_on,24,0,1,,,,,,,,,1,,,65,52
500400,note_on,0,0,4,,,,,,,,,4,,,56,50
500400,note_off,240,0,4,,,,,,,,,4,,,57,0
500496,note_off,96,0,1,,,,,,,,,1,,,65,0
500520,note_on,24,0,1,,,,,,,,,1,,,77,51
500616,note_off,96,0,1,,,,,,,,,1,,,77,0
500640,note_on,0,0,4,,,,,,,,,4,,,57,49
500640,note_off,240,0,4,,,,,,,,,4,,,56,0
500640,note_on,24,0,1,,,,,,,,,1,,,66,51
500736,note_off,96,0,1,,,,,,,,,1,,,66,0
500760,note_on,24,0,1,,,,,,,,,1,,,78,51
500856,note_off,96,0,1,,,,,,,,,1,,,78,0
500880,note_off,240,0,4,,,,,,,,,4,,,57,0
500880,note_on,24,0,1,,,,,,,,,1,,,69,51
500880,note_off,1200,0,5,,,,,,,,,5,,,50,0
500976,note_off,96,0,1,,,,,,,,,1,,,69,0
501000,note_on,24,0,1,,,,,,,,,1,,,81,50
501096,note_off,96,0,1,,,,,,,,,1,,,81,0
501120,note_on,240,0,5,,,,,,,,,5,,,59,50
501120,note_on,0,0,5,,,,,,,,,5,,,47,50
501120,note_on,24,0,1,,,,,,,,,1,,,62,50
501216,note_off,96,0,1,,,,,,,,,1,,,62,0
501240,note_on,24,0,1,,,,,,,,,1,,,74,50
501276,note_off,156,0,5,,,,,,,,,5,,,47,0
501276,note_off,0,0,5,,,,,,,,,5,,,59,0
501336,note_off,96,0,1,,,,,,,,,1,,,74,0
501360,note_on,24,0,1,,,,,,,,,1,,,66,50
501456,note_off,96,0,1,,,,,,,,,1,,,66,0
501480,note_on,24,0,1,,,,,,,,,1,,,78,50
501576,note_off,96,0,1,,,,,,,,,1,,,78,0
501600,note_on,324,0,5,,,,,,,,,5,,,55,49
501600,note_on,0,0,5,,,,,,,,,5,,,43,49
501600,note_on,24,0,1,,,,,,,,,1,,,64,49
501696,note_off,96,0,1,,,,,,,,,1,,,64,0
501720,note_on,24,0,1,,,,,,,,,1,,,76,49
501756,note_off,0,0,5,,,,,,,,,5,,,55,0
501756,note_off,156,0,5,,,,,,,,,5,,,43,0
501816,note_off,96,0,1,,,,,,,,,1,,,76,0
501840,note_on,24,0,1,,,,,,,,,1,,,67,49
501936,note_off,96,0,1,,,,,,,,,1,,,67,0
501960,note_on,24,0,1,,,,,,,,,1,,,79,49
502056,note_off,96,0,1,,,,,,,,,1,,,79,0
502080,note_on,0,0,5,,,,,,,,,5,,,45,49
502080,note_on,324,0,5,,,,,,,,,5,,,57,49
502080,note_on,24,0,1,,,,,,,,,1,,,61,49
502176,note_off,96,0,1,,,,,,,,,1,,,61,0
502200,note_on,24,0,1,,,,,,,,,1,,,73,48
502236,note_off,156,0,5,,,,,,,,,5,,,45,0
502236,note_off,0,0,5,,,,,,,,,5,,,57,0
502296,note_off,96,0,1,,,,,,,,,1,,,73,0
502320,note_on,24,0,1,,,,,,,,,1,,,64,48
502416,note_off,96,0,1,,,,,,,,,1,,,64,0
502440,note_on,24,0,1,,,,,,,,,1,,,76,48
502536,note_off,96,0,1,,,,,,,,,1,,,76,0
502560,note_on,24,0,1,,,,,,,,,1,,,62,46
502560,note_on,324,0,5,,,,,,,,,5,,,38,46
502560,note_on,0,0,5,,,,,,,,,5,,,50,46
502656,note_off,96,0,1,,,,,,,,,1,,,62,0
502680,note_on,24,0,1,,,,,,,,,1,,,74,48
502776,note_off,96,0,1,,,,,,,,,1,,,74,0
502800,note_on,24,0,1,,,,,,,,,1,,,61,49
502896,note_off,96,0,1,,,,,,,,,1,,,61,0
502920,note_off,360,0,5,,,,,,,,,5,,,50,0
502920,note_on,24,0,1,,,,,,,,,1,,,73,51
502920,note_off,0,0,5,,,,,,,,,5,,,38,0
503016,note_off,96,0,1,,,,,,,,,1,,,73,0
503040,note_on,24,0,1,,,,,,,,,1,,,62,52
503136,note_off,96,0,1,,,,,,,,,1,,,62,0
503160,note_on,24,0,1,,,,,,,,,1,,,74,54
503256,note_off,96,0,1,,,,,,,,,1,,,74,0
503280,note_on,24,0,1,,,,,,,,,1,,,64,55
503376,note_off,96,0,1,,,,,,,,,1,,,64,0
503400,note_on,24,0,1,,,,,,,,,1,,,76,57
503496,note_off,96,0,1,,,,,,,,,1,,,76,0
503520,note_on,24,0,1,,,,,,,,,1,,,66,58
503616,note_off,96,0,1,,,,,,,,,1,,,66,0
503640,note_on,24,0,1,,,,,,,,,1,,,78,60
503736,note_off,96,0,1,,,,,,,,,1,,,78,0
503760,note_on,24,0,1,,,,,,,,,1,,,67,61
503856,note_off,96,0,1,,,,,,,,,1,,,67,0
503880,note_on,24,0,1,,,,,,,,,1,,,79,63
503940,set_tempo,5700,1,0,,,,,,461538,,,,,,,
503976,note_off,96,0,1,,,,,,,,,1,,,79,0
504000,set_tempo,60,1,0,,,,,,458015,,,,,,,
504000,note_on,1080,0,5,,,,,,,,,5,,,50,71
504000,note_on,8928,0,2,,,,,,,,,2,,,78,71
504000,note_on,24,0,1,,,,,,,,,1,,,69,71
504000,note_on,0,0,1,,,,,,,,,1,,,81,71
504120,note_on,3240,0,4,,,,,,,,,4,,,62,71
504156,note_off,156,0,5,,,,,,,,,5,,,50,0
504216,note_off,96,0,4,,,,,,,,,4,,,62,0
504240,note_on,84,0,5,,,,,,,,,5,,,54,71
504360,note_on,144,0,4,,,,,,,,,4,,,66,71
504396,note_off,156,0,5,,,,,,,,,5,,,54,0
504456,note_off,96,0,4,,,,,,,,,4,,,66,0
504480,note_on,84,0,5,,,,,,,,,5,,,52,71
504600,note_on,144,0,4,,,,,,,,,4,,,64,70
504636,note_off,156,0,5,,,,,,,,,5,,,52,0
504696,note_off,96,0,4,,,,,,,,,4,,,64,0
504720,note_on,84,0,5,,,,,,,,,5,,,50,70
504840,note_on,144,0,4,,,,,,,,,4,,,62,70
504876,note_off,156,0,5,,,,,,,,,5,,,50,0
504936,note_off,96,0,4,,,,,,,,,4,,,62,0
504960,note_off,960,0,1,,,,,,,,,1,,,81,0
504960,note_off,0,0,1,,,,,,,,,1,,,69,0
504960,note_off,960,0,2,,,,,,,,,2,,,78,0
504960,note_on,0,0,1,,,,,,,,,1,,,74,66
504960,note_on,0,0,2,,,,,,,,,2,,,78,66
504960,note_on,0,0,1,,,,,,,,,1,,,86,66
504960,note_on,84,0,5,,,,,,,,,5,,,49,70
505080,note_on,144,0,4,,,,,,,,,4,,,61,70
505116,note_off,156,0,5,,,,,,,,,5,,,49,0
505152,note_off,0,0,1,,,,,,,,,1,,,74,0
505152,note_off,192,0,2,,,,,,,,,2,,,78,0
505152,note_off,192,0,1,,,,,,,,,1,,,86,0
505176,note_off,96,0,4,,,,,,,,,4,,,61,0
505200,note_on,84,0,5,,,,,,,,,5,,,47,69
505320,note_on,144,0,4,,,,,,,,,4,,,59,69
505356,note_off,156,0,5,,,,,,,,,5,,,47,0
505416,note_off,96,0,4,,,,,,,,,4,,,59,0
505440,note_on,84,0,5,,,,,,,,,5,,,45,69
505440,note_on,0,0,1,,,,,,,,,1,,,66,69
505440,note_on,288,0,1,,,,,,,,,1,,,78,69
505440,note_on,288,0,2,,,,,,,,,2,,,74,69
505560,note_on,144,0,4,,,,,,,,,4,,,57,69
505596,note_off,156,0,5,,,,,,,,,5,,,45,0
505656,note_off,96,0,4,,,,,,,,,4,,,57,0
505680,note_on,84,0,5,,,,,,,,,5,,,43,68
505800,note_on,144,0,4,,,,,,,,,4,,,55,68
505836,note_off,156,0,5,,,,,,,,,5,,,43,0
505896,note_off,96,0,4,,,,,,,,,4,,,55,0
505920,note_on,84,0,5,,,,,,,,,5,,,42,68
506040,note_on,144,0,4,,,,,,,,,4,,,54,68
506076,note_off,156,0,5,,,,,,,,,5,,,42,0
506136,note_off,96,0,4,,,,,,,,,4,,,54,0
506160,note_on,84,0,5,,,,,,,,,5,,,40,68
506280,note_on,144,0,4,,,,,,,,,4,,,52,67
506316,note_off,156,0,5,,,,,,,,,5,,,40,0
506376,note_off,96,0,4,,,,,,,,,4,,,52,0
506400,note_off,960,0,2,,,,,,,,,2,,,74,0
506400,note_off,960,0,1,,,,,,,,,1,,,66,0
506400,note_off,0,0,1,,,,,,,,,1,,,78,0
506400,note_on,0,0,1,,,,,,,,,1,,,69,62
506400,note_on,0,0,1,,,,,,,,,1,,,81,62
506400,note_on,84,0,5,,,,,,,,,5,,,38,67
506400,note_on,0,0,2,,,,,,,,,2,,,78,62
506520,note_on,144,0,4,,,,,,,,,4,,,50,67
506556,note_off,156,0,5,,,,,,,,,5,,,38,0
506592,note_off,192,0,2,,,,,,,,,2,,,78,0
506592,note_off,192,0,1,,,,,,,,,1,,,81,0
506592,note_off,0,0,1,,,,,,,,,1,,,69,0
506616,note_off,96,0,4,,,,,,,,,4,,,50,0
506640,note_on,84,0,5,,,,,,,,,5,,,37,67
506760,note_on,144,0,4,,,,,,,,,4,,,49,67
506796,note_off,156,0,5,,,,,,,,,5,,,37,0
506856,note_off,96,0,4,,,,,,,,,4,,,49,0
506880,note_on,84,0,5,,,,,,,,,5,,,35,66
506880,note_on,24,0,4,,,,,,,,,4,,,47,66
507000,note_on,408,0,1,,,,,,,,,1,,,67,66
507036,note_off,156,0,4,,,,,,,,,4,,,47,0
507036,note_off,156,0,5,,,,,,,,,5,,,35,0
507120,note_on,0,0,1,,,,,,,,,1,,,74,66
507120,note_off,120,0,1,,,,,,,,,1,,,67,0
507240,note_on,0,0,1,,,,,,,,,1,,,79,66
507240,note_off,120,0,1,,,,,,,,,1,,,74,0
507336,note_off,96,0,1,,,,,,,,,1,,,79,0
507360,note_on,324,0,4,,,,,,,,,4,,,45,65
507360,note_on,324,0,5,,,,,,,,,5,,,33,65
507480,note_on,144,0,1,,,,,,,,,1,,,69,65
507516,note_off,156,0,4,,,,,,,,,4,,,45,0
507516,note_off,156,0,5,,,,,,,,,5,,,33,0
507600,note_on,0,0,1,,,,,,,,,1,,,74,65
507600,note_off,120,0,1,,,,,,,,,1,,,69,0
507720,note_off,120,0,1,,,,,,,,,1,,,74,0
507720,note_on,0,0,1,,,,,,,,,1,,,78,65
507816,note_off,96,0,1,,,,,,,,,1,,,78,0
507840,note_on,324,0,5,,,,,,,,,5,,,33,65
507840,note_on,324,0,4,,,,,,,,,4,,,45,65
507960,note_on,144,0,1,,,,,,,,,1,,,67,64
507996,note_off,156,0,4,,,,,,,,,4,,,45,0
507996,note_off,156,0,5,,,,,,,,,5,,,33,0
508080,note_off,120,0,1,,,,,,,,,1,,,67,0
508080,note_on,0,0,1,,,,,,,,,1,,,73,64
508200,note_off,120,0,1,,,,,,,,,1,,,73,0
508200,note_on,0,0,1,,,,,,,,,1,,,76,64
508320,note_off,120,0,1,,,,,,,,,1,,,76,0
508320,note_on,0,0,1,,,,,,,,,1,,,74,64
508320,note_on,0,0,1,,,,,,,,,1,,,66,64
508440,note_on,444,0,5,,,,,,,,,5,,,50,65
508560,note_on,0,0,5,,,,,,,,,5,,,54,64
508560,note_off,120,0,5,,,,,,,,,5,,,50,0
508680,note_off,360,0,1,,,,,,,,,1,,,74,0
508680,note_off,120,0,5,,,,,,,,,5,,,54,0
508680,note_on,0,0,5,,,,,,,,,5,,,50,63
508680,note_off,0,0,1,,,,,,,,,1,,,66,0
508800,note_on,0,0,5,,,,,,,,,5,,,45,62
508800,note_off,120,0,5,,,,,,,,,5,,,50,0
508920,note_off,120,0,5,,,,,,,,,5,,,45,0
508920,note_on,0,0,5,,,,,,,,,5,,,50,62
509040,note_off,120,0,5,,,,,,,,,5,,,50,0
509040,note_on,0,0,5,,,,,,,,,5,,,42,61
509160,note_off,120,0,5,,,,,,,,,5,,,42,0
509160,note_on,0,0,5,,,,,,,,,5,,,45,60
509220,set_tempo,5220,1,0,,,,,,461538,,,,,,,
509280,note_off,120,0,5,,,,,,,,,5,,,45,0
509280,note_on,0,0,5,,,,,,,,,5,,,38,59
509568,note_off,288,0,5,,,,,,,,,5,,,38,0
509640,set_tempo,420,1,0,,,,,,465116,,,,,,,
509760,note_on,1764,0,4,,,,,,,,,4,,,61,57
509760,note_on,192,0,5,,,,,,,,,5,,,57,57
509760,marker,120,1,0,,,,,,,,,,,,,
509760,note_on,1080,0,1,,,,,,,,,1,,,64,57
509790,set_tempo,30,1,0,,,,,,458015,,,,,,,
509856,note_off,96,0,1,,,,,,,,,1,,,64,0
509880,note_on,24,0,1,,,,,,,,,1,,,76,57
509976,note_off,96,0,1,,,,,,,,,1,,,76,0
510000,note_on,0,0,4,,,,,,,,,4,,,60,57
510000,note_on,24,0,1,,,,,,,,,1,,,63,57
510000,note_off,240,0,4,,,,,,,,,4,,,61,0
510096,note_off,96,0,1,,,,,,,,,1,,,63,0
510120,note_on,24,0,1,,,,,,,,,1,,,75,57
510216,note_off,96,0,1,,,,,,,,,1,,,75,0
510240,note_off,240,0,4,,,,,,,,,4,,,60,0
510240,note_on,24,0,1,,,,,,,,,1,,,64,56
510240,note_on,0,0,4,,,,,,,,,4,,,61,56
510336,note_off,96,0,1,,,,,,,,,1,,,64,0
510360,note_on,24,0,1,,,,,,,,,1,,,76,56
510456,note_off,96,0,1,,,,,,,,,1,,,76,0
510480,note_off,240,0,4,,,,,,,,,4,,,61,0
510480,note_on,0,0,4,,,,,,,,,4,,,60,56
510480,note_on,24,0,1,,,,,,,,,1,,,63,56
510576,note_off,96,0,1,,,,,,,,,1,,,63,0
510600,note_on,24,0,1,,,,,,,,,1,,,75,56
510696,note_off,96,0,1,,,,,,,,,1,,,75,0
510720,note_on,24,0,1,,,,,,,,,1,,,64,56
510720,note_on,0,0,4,,,,,,,,,4,,,61,56
510720,note_off,240,0,4,,,,,,,,,4,,,60,0
510816,note_off,96,0,1,,,,,,,,,1,,,64,0
510840,note_on,24,0,1,,,,,,,,,1,,,76,55
510936,note_off,96,0,1,,,,,,,,,1,,,76,0
510960,note_on,0,0,4,,,,,,,,,4,,,62,55
510960,note_off,240,0,4,,,,,,,,,4,,,61,0
510960,note_on,24,0,1,,,,,,,,,1,,,66,55
511056,note_off,96,0,1,,,,,,,,,1,,,66,0
511080,note_on,24,0,1,,,,,,,,,1,,,78,55
511176,note_off,96,0,1,,,,,,,,,1,,,78,0
511200,note_on,0,0,4,,,,,,,,,4,,,64,55
511200,note_on,24,0,1,,,,,,,,,1,,,67,55
511200,note_off,240,0,4,,,,,,,,,4,,,62,0
511296,note_off,96,0,1,,,,,,,,,1,,,67,0
511320,note_on,24,0,1,,,,,,,,,1,,,79,54
511416,note_off,96,0,1,,,,,,,,,1,,,79,0
511440,note_on,24,0,1,,,,,,,,,1,,,66,54
511440,note_off,240,0,4,,,,,,,,,4,,,64,0
511440,note_on,0,0,4,,,,,,,,,4,,,63,54
511536,note_off,96,0,1,,,,,,,,,1,,,66,0
511560,note_on,24,0,1,,,,,,,,,1,,,78,54
511656,note_off,96,0,1,,,,,,,,,1,,,78,0
511680,note_on,24,0,1,,,,,,,,,1,,,67,54
511680,note_on,0,0,4,,,,,,,,,4,,,64,54
511680,note_off,240,0,4,,,,,,,,,4,,,63,0
511776,note_off,96,0,1,,,,,,,,,1,,,67,0
511800,note_on,24,0,1,,,,,,,,,1,,,79,54
511896,note_off,96,0,1,,,,,,,,,1,,,79,0
511920,note_on,24,0,1,,,,,,,,,1,,,66,53
511920,note_off,240,0,4,,,,,,,,,4,,,64,0
511920,note_on,0,0,4,,,,,,,,,4,,,63,53
512016,note_off,96,0,1,,,,,,,,,1,,,66,0
512040,note_on,24,0,1,,,,,,,,,1,,,78,53
512136,note_off,96,0,1,,,,,,,,,1,,,78,0
512160,note_on,24,0,1,,,,,,,,,1,,,67,53
512160,note_on,0,0,4,,,,,,,,,4,,,64,53
512160,note_off,240,0,4,,,,,,,,,4,,,63,0
512256,note_off,96,0,1,,,,,,,,,1,,,67,0
512280,note_on,24,0,1,,,,,,,,,1,,,79,53
512376,note_off,96,0,1,,,,,,,,,1,,,79,0
512400,note_on,0,0,4,,,,,,,,,4,,,61,53
512400,note_off,240,0,4,,,,,,,,,4,,,64,0
512400,note_on,24,0,1,,,,,,,,,1,,,64,53
512496,note_off,96,0,1,,,,,,,,,1,,,64,0
512520,note_on,24,0,1,,,,,,,,,1,,,76,52
512565,note_off,2805,0,5,,,,,,,,,5,,,57,0
512580,set_tempo,2790,1,0,,,,,,461538,,,,,,,
512592,note_off,192,0,4,,,,,,,,,4,,,61,0
512616,note_off,96,0,1,,,,,,,,,1,,,76,0
512640,note_on,48,0,4,,,,,,,,,4,,,62,52
512640,note_on,75,0,5,,,,,,,,,5,,,50,52
512640,set_tempo,60,1,0,,,,,,458015,,,,,,,
512640,note_on,24,0,1,,,,,,,,,1,,,66,52
512736,note_off,96,0,1,,,,,,,,,1,,,66,0
512760,note_on,24,0,1,,,,,,,,,1,,,78,52
512856,note_off,96,0,1,,,,,,,,,1,,,78,0
512880,note_off,240,0,4,,,,,,,,,4,,,62,0
512880,note_on,24,0,1,,,,,,,,,1,,,65,52
512880,note_on,0,0,4,,,,,,,,,4,,,61,52
512976,note_off,96,0,1,,,,,,,,,1,,,65,0
513000,note_on,24,0,1,,,,,,,,,1,,,77,51
513096,note_off,96,0,1,,,,,,,,,1,,,77,0
513120,note_off,240,0,4,,,,,,,,,4,,,61,0
513120,note_on,24,0,1,,,,,,,,,1,,,66,51
513120,note_on,0,0,4,,,,,,,,,4,,,62,51
513216,note_off,96,0,1,,,,,,,,,1,,,66,0
513240,note_on,24,0,1,,,,,,,,,1,,,78,51
513336,note_off,96,0,1,,,,,,,,,1,,,78,0
513360,note_on,24,0,1,,,,,,,,,1,,,65,51
513360,note_on,0,0,4,,,,,,,,,4,,,61,51
513360,note_off,240,0,4,,,,,,,,,4,,,62,0
513456,note_off,96,0,1,,,,,,,,,1,,,65,0
513480,note_on,24,0,1,,,,,,,,,1,,,77,51
513576,note_off,96,0,1,,,,,,,,,1,,,77,0
513600,note_on,24,0,1,,,,,,,,,1,,,66,50
513600,note_off,240,0,4,,,,,,,,,4,,,61,0
513600,note_on,0,0,4,,,,,,,,,4,,,62,50
513696,note_off,96,0,1,,,,,,,,,1,,,66,0
513720,note_on,24,0,1,,,,,,,,,1,,,78,50
513816,note_off,96,0,1,,,,,,,,,1,,,78,0
513840,note_off,240,0,4,,,,,,,,,4,,,62,0
513840,note_on,0,0,4,,,,,,,,,4,,,64,50
513840,note_on,24,0,1,,,,,,,,,1,,,67,50
513936,note_off,96,0,1,,,,,,,,,1,,,67,0
513960,note_on,24,0,1,,,,,,,,,1,,,79,50
514056,note_off,96,0,1,,,,,,,,,1,,,79,0
514080,note_on,24,0,1,,,,,,,,,1,,,69,50
514080,note_off,1440,0,5,,,,,,,,,5,,,50,0
514080,note_on,0,0,5,,,,,,,,,5,,,62,50
514080,note_on,0,0,4,,,,,,,,,4,,,66,50
514080,note_off,240,0,4,,,,,,,,,4,,,64,0
514176,note_off,96,0,1,,,,,,,,,1,,,69,0
514200,note_on,24,0,1,,,,,,,,,1,,,81,49
514296,note_off,96,0,1,,,,,,,,,1,,,81,0
514320,note_off,240,0,4,,,,,,,,,4,,,66,0
514320,note_on,0,0,4,,,,,,,,,4,,,65,49
514320,note_on,24,0,1,,,,,,,,,1,,,68,49
514416,note_off,96,0,1,,,,,,,,,1,,,68,0
514440,note_on,24,0,1,,,,,,,,,1,,,80,49
514536,note_off,96,0,1,,,,,,,,,1,,,80,0
514560,note_off,240,0,4,,,,,,,,,4,,,65,0
514560,note_on,0,0,4,,,,,,,,,4,,,66,49
514560,note_on,24,0,1,,,,,,,,,1,,,69,49
514656,note_off,96,0,1,,,,,,,,,1,,,69,0
514680,note_on,24,0,1,,,,,,,,,1,,,81,48
514776,note_off,96,0,1,,,,,,,,,1,,,81,0
514800,note_on,24,0,1,,,,,,,,,1,,,68,48
514800,note_on,0,0,4,,,,,,,,,4,,,65,48
514800,note_off,240,0,4,,,,,,,,,4,,,66,0
514896,note_off,96,0,1,,,,,,,,,1,,,68,0
514920,note_on,24,0,1,,,,,,,,,1,,,80,48
515016,note_off,96,0,1,,,,,,,,,1,,,80,0
515040,note_on,0,0,4,,,,,,,,,4,,,66,48
515040,note_on,24,0,1,,,,,,,,,1,,,69,48
515040,note_off,240,0,4,,,,,,,,,4,,,65,0
515040,note_off,960,0,5,,,,,,,,,5,,,62,0
515136,note_off,96,0,1,,,,,,,,,1,,,69,0
515160,note_on,24,0,1,,,,,,,,,1,,,81,48
515250,note_off,210,0,4,,,,,,,,,4,,,66,0
515256,note_off,96,0,1,,,,,,,,,1,,,81,0
515280,note_on,24,0,1,,,,,,,,,1,,,74,83
515400,note_off,120,0,1,,,,,,,,,1,,,74,0
515400,note_on,0,0,1,,,,,,,,,1,,,86,82
515460,set_tempo,2820,1,0,,,,,,461538,,,,,,,
515520,note_on,8928,0,2,,,,,,,,,2,,,81,81
515520,note_off,120,0,1,,,,,,,,,1,,,86,0
515520,note_on,0,0,1,,,,,,,,,1,,,73,81
515520,note_on,480,0,5,,,,,,,,,5,,,43,81
515520,note_on,0,0,1,,,,,,,,,1,,,85,81
515520,set_tempo,60,1,0,,,,,,458015,,,,,,,
515640,note_on,390,0,4,,,,,,,,,4,,,55,81
515676,note_off,156,0,5,,,,,,,,,5,,,43,0
515736,note_off,96,0,4,,,,,,,,,4,,,55,0
515760,note_on,84,0,5,,,,,,,,,5,,,45,80
515880,note_on,144,0,4,,,,,,,,,4,,,57,80
515916,note_off,156,0,5,,,,,,,,,5,,,45,0
515976,note_off,96,0,4,,,,,,,,,4,,,57,0
516000,note_on,0,0,1,,,,,,,,,1,,,83,77
516000,note_on,84,0,5,,,,,,,,,5,,,47,80
516000,note_off,480,0,2,,,,,,,,,2,,,81,0
516000,note_on,0,0,2,,,,,,,,,2,,,79,77
516000,note_off,480,0,1,,,,,,,,,1,,,85,0
516000,note_off,0,0,1,,,,,,,,,1,,,73,0
516000,note_on,0,0,1,,,,,,,,,1,,,71,77
516120,note_on,144,0,4,,,,,,,,,4,,,59,80
516156,note_off,156,0,5,,,,,,,,,5,,,47,0
516216,note_off,96,0,4,,,,,,,,,4,,,59,0
516240,note_on,84,0,5,,,,,,,,,5,,,49,80
516360,note_on,144,0,4,,,,,,,,,4,,,61,79
516396,note_off,156,0,5,,,,,,,,,5,,,49,0
516456,note_off,96,0,4,,,,,,,,,4,,,61,0
516480,note_off,480,0,2,,,,,,,,,2,,,79,0
516480,note_on,0,0,2,,,,,,,,,2,,,78,78
516480,note_on,0,0,1,,,,,,,,,1,,,69,78
516480,note_on,84,0,5,,,,,,,,,5,,,50,79
516480,note_off,480,0,1,,,,,,,,,1,,,83,0
516480,note_off,0,0,1,,,,,,,,,1,,,71,0
516480,note_on,0,0,1,,,,,,,,,1,,,81,78
516600,note_on,144,0,4,,,,,,,,,4,,,62,79
516636,note_off,156,0,5,,,,,,,,,5,,,50,0
516672,note_off,192,0,1,,,,,,,,,1,,,69,0
516672,note_off,192,0,2,,,,,,,,,2,,,78,0
516672,note_off,0,0,1,,,,,,,,,1,,,81,0
516696,note_off,96,0,4,,,,,,,,,4,,,62,0
516720,note_on,0,0,1,,,,,,,,,1,,,86,81
516720,note_on,48,0,1,,,,,,,,,1,,,74,81
516720,note_on,84,0,5,,,,,,,,,5,,,54,79
516720,note_on,48,0,2,,,,,,,,,2,,,81,81
516840,note_on,144,0,4,,,,,,,,,4,,,66,78
516876,note_off,156,0,5,,,,,,,,,5,,,54,0
516936,note_off,96,0,4,,,,,,,,,4,,,66,0
516960,note_on,84,0,5,,,,,,,,,5,,,55,78
516960,note_on,0,0,2,,,,,,,,,2,,,81,80
516960,note_off,240,0,1,,,,,,,,,1,,,86,0
516960,note_off,0,0,1,,,,,,,,,1,,,74,0
516960,note_on,0,0,1,,,,,,,,,1,,,85,80
516960,note_on,0,0,1,,,,,,,,,1,,,73,80
516960,note_off,240,0,2,,,,,,,,,2,,,81,0
517080,note_on,144,0,4,,,,,,,,,4,,,67,78
517116,note_off,156,0,5,,,,,,,,,5,,,55,0
517176,note_off,96,0,4,,,,,,,,,4,,,67,0
517200,note_on,84,0,5,,,,,,,,,5,,,57,78
517320,note_on,144,0,4,,,,,,,,,4,,,69,77
517356,note_off,156,0,5,,,,,,,,,5,,,57,0
517416,note_off,96,0,4,,,,,,,,,4,,,69,0
517440,note_on,0,0,1,,,,,,,,,1,,,83,78
517440,note_off,480,0,2,,,,,,,,,2,,,81,0
517440,note_on,0,0,2,,,,,,,,,2,,,79,78
517440,note_off,0,0,1,,,,,,,,,1,,,85,0
517440,note_off,480,0,1,,,,,,,,,1,,,73,0
517440,note_on,84,0,5,,,,,,,,,5,,,59,77
517440,note_on,0,0,1,,,,,,,,,1,,,71,78
517560,note_on,144,0,4,,,,,,,,,4,,,71,77
517596,note_off,156,0,5,,,,,,,,,5,,,59,0
517656,note_off,96,0,4,,,,,,,,,4,,,71,0
517680,note_on,84,0,5,,,,,,,,,5,,,61,77
517800,note_on,144,0,4,,,,,,,,,4,,,73,76
517836,note_off,156,0,5,,,,,,,,,5,,,61,0
517896,note_off,96,0,4,,,,,,,,,4,,,73,0
517920,note_on,0,0,1,,,,,,,,,1,,,81,76
517920,note_on,84,0,5,,,,,,,,,5,,,62,76
517920,note_off,0,0,1,,,,,,,,,1,,,71,0
517920,note_on,0,0,2,,,,,,,,,2,,,78,76
517920,note_off,480,0,2,,,,,,,,,2,,,79,0
517920,note_on,0,0,1,,,,,,,,,1,,,69,76
517920,note_off,480,0,1,,,,,,,,,1,,,83,0
518040,note_on,144,0,4,,,,,,,,,4,,,74,76
518076,note_off,156,0,5,,,,,,,,,5,,,62,0
518112,note_off,0,0,1,,,,,,,,,1,,,69,0
518112,note_off,192,0,1,,,,,,,,,1,,,81,0
518112,note_off,192,0,2,,,,,,,,,2,,,78,0
518136,note_off,96,0,4,,,,,,,,,4,,,74,0
518160,note_on,48,0,2,,,,,,,,,2,,,76,76
518160,note_on,48,0,1,,,,,,,,,1,,,81,76
518160,note_on,84,0,5,,,,,,,,,5,,,61,76
518280,note_on,144,0,4,,,,,,,,,4,,,73,75
518316,note_off,156,0,5,,,,,,,,,5,,,61,0
518376,note_off,96,0,4,,,,,,,,,4,,,73,0
518400,note_off,240,0,2,,,,,,,,,2,,,76,0
518400,note_on,0,0,2,,,,,,,,,2,,,74,75
518400,note_off,240,0,1,,,,,,,,,1,,,81,0
518400,note_on,0,0,1,,,,,,,,,1,,,79,75
518400,note_on,84,0,5,,,,,,,,,5,,,59,75
518520,note_on,144,0,4,,,,,,,,,4,,,71,75
518556,note_off,156,0,5,,,,,,,,,5,,,59,0
518616,note_off,96,0,4,,,,,,,,,4,,,71,0
518640,note_on,84,0,5,,,,,,,,,5,,,57,75
518640,note_off,240,0,1,,,,,,,,,1,,,79,0
518640,note_off,240,0,2,,,,,,,,,2,,,74,0
518640,note_on,0,0,2,,,,,,,,,2,,,73,74
518640,note_on,0,0,1,,,,,,,,,1,,,78,74
518760,note_on,144,0,4,,,,,,,,,4,,,69,74
518796,note_off,156,0,5,,,,,,,,,5,,,57,0
518856,note_off,96,0,4,,,,,,,,,4,,,69,0
518880,note_on,0,0,1,,,,,,,,,1,,,76,73
518880,note_off,240,0,1,,,,,,,,,1,,,78,0
518880,note_off,240,0,2,,,,,,,,,2,,,73,0
518880,note_on,84,0,5,,,,,,,,,5,,,55,74
518880,note_on,0,0,2,,,,,,,,,2,,,71,73
519000,note_on,144,0,4,,,,,,,,,4,,,67,74
519036,note_off,156,0,5,,,,,,,,,5,,,55,0
519096,note_off,96,0,4,,,,,,,,,4,,,67,0
519120,note_on,0,0,2,,,,,,,,,2,,,69,72
519120,note_on,84,0,5,,,,,,,,,5,,,54,74
519120,note_off,240,0,2,,,,,,,,,2,,,71,0
519120,note_off,240,0,1,,,,,,,,,1,,,76,0
519120,note_on,0,0,1,,,,,,,,,1,,,74,72
519240,note_on,144,0,4,,,,,,,,,4,,,66,74
519276,note_off,156,0,5,,,,,,,,,5,,,54,0
519336,note_off,96,0,4,,,,,,,,,4,,,66,0
519360,note_on,0,0,1,,,,,,,,,1,,,73,71
519360,note_off,240,0,1,,,,,,,,,1,,,74,0
519360,note_on,0,0,2,,,,,,,,,2,,,67,71
519360,note_off,240,0,2,,,,,,,,,2,,,69,0
519360,note_on,84,0,5,,,,,,,,,5,,,52,73
519480,note_on,144,0,4,,,,,,,,,4,,,64,73
519516,note_off,156,0,5,,,,,,,,,5,,,52,0
519576,note_off,96,0,4,,,,,,,,,4,,,64,0
519600,note_on,0,0,2,,,,,,,,,2,,,66,70
519600,note_off,240,0,1,,,,,,,,,1,,,73,0
519600,note_off,240,0,2,,,,,,,,,2,,,67,0
519600,note_on,84,0,5,,,,,,,,,5,,,50,73
519600,note_on,0,0,1,,,,,,,,,1,,,74,70
519720,note_on,144,0,4,,,,,,,,,4,,,62,73
519756,note_off,156,0,5,,,,,,,,,5,,,50,0
519816,note_off,96,0,4,,,,,,,,,4,,,62,0
519840,note_on,0,0,1,,,,,,,,,1,,,76,70
519840,note_on,24,0,4,,,,,,,,,4,,,57,72
519840,note_on,84,0,5,,,,,,,,,5,,,45,72
519840,note_off,240,0,1,,,,,,,,,1,,,74,0
519840,note_off,240,0,2,,,,,,,,,2,,,66,0
519840,note_on,0,0,2,,,,,,,,,2,,,73,70
519840,note_on,0,0,2,,,,,,,,,2,,,64,70
520032,note_off,192,0,2,,,,,,,,,2,,,64,0
520032,note_off,0,0,2,,,,,,,,,2,,,73,0
520032,note_off,192,0,1,,,,,,,,,1,,,76,0
520080,note_on,48,0,1,,,,,,,,,1,,,61,71
520176,note_off,96,0,1,,,,,,,,,1,,,61,0
520200,note_off,360,0,4,,,,,,,,,4,,,57,0
520200,note_on,24,0,1,,,,,,,,,1,,,73,69
520200,note_off,360,0,5,,,,,,,,,5,,,45,0
520296,note_off,96,0,1,,,,,,,,,1,,,73,0
520320,note_on,24,0,1,,,,,,,,,1,,,62,67
520416,note_off,96,0,1,,,,,,,,,1,,,62,0
520440,note_on,24,0,1,,,,,,,,,1,,,74,65
520536,note_off,96,0,1,,,,,,,,,1,,,74,0
520560,note_on,24,0,1,,,,,,,,,1,,,64,63
520656,note_off,96,0,1,,,,,,,,,1,,,64,0
520680,note_on,24,0,1,,,,,,,,,1,,,76,62
520776,note_off,96,0,1,,,,,,,,,1,,,76,0
520800,note_on,24,0,1,,,,,,,,,1,,,66,60
520896,note_off,96,0,1,,,,,,,,,1,,,66,0
520920,note_on,24,0,1,,,,,,,,,1,,,78,58
521016,note_off,96,0,1,,,,,,,,,1,,,78,0
521040,note_on,24,0,1,,,,,,,,,1,,,67,56
521136,note_off,96,0,1,,,,,,,,,1,,,67,0
521160,note_on,24,0,1,,,,,,,,,1,,,79,54
521220,set_tempo,5700,1,0,,,,,,461538,,,,,,,
521256,note_off,96,0,1,,,,,,,,,1,,,79,0
521280,note_on,1080,0,4,,,,,,,,,4,,,66,53
521280,note_on,24,0,1,,,,,,,,,1,,,69,53
521280,note_on,1080,0,5,,,,,,,,,5,,,62,53
521280,set_tempo,60,1,0,,,,,,458015,,,,,,,
521376,note_off,96,0,1,,,,,,,,,1,,,69,0
521400,note_on,24,0,1,,,,,,,,,1,,,81,53
521496,note_off,96,0,1,,,,,,,,,1,,,81,0
521520,note_on,0,0,4,,,,,,,,,4,,,65,52
521520,note_off,240,0,4,,,,,,,,,4,,,66,0
521520,note_on,24,0,1,,,,,,,,,1,,,68,53
521616,note_off,96,0,1,,,,,,,,,1,,,68,0
521640,note_on,24,0,1,,,,,,,,,1,,,80,53
521736,note_off,96,0,1,,,,,,,,,1,,,80,0
521760,note_on,24,0,1,,,,,,,,,1,,,69,53
521760,note_off,240,0,4,,,,,,,,,4,,,65,0
521760,note_on,0,0,4,,,,,,,,,4,,,66,51
521856,note_off,96,0,1,,,,,,,,,1,,,69,0
521880,note_on,24,0,1,,,,,,,,,1,,,81,52
521976,note_off,96,0,1,,,,,,,,,1,,,81,0
522000,note_on,24,0,1,,,,,,,,,1,,,68,52
522000,note_off,240,0,4,,,,,,,,,4,,,66,0
522000,note_on,0,0,4,,,,,,,,,4,,,65,50
522096,note_off,96,0,1,,,,,,,,,1,,,68,0
522120,note_on,24,0,1,,,,,,,,,1,,,80,52
522216,note_off,96,0,1,,,,,,,,,1,,,80,0
522240,note_off,240,0,4,,,,,,,,,4,,,65,0
522240,note_on,24,0,1,,,,,,,,,1,,,69,52
522240,note_on,0,0,4,,,,,,,,,4,,,66,48
522336,note_off,96,0,1,,,,,,,,,1,,,69,0
522360,note_on,24,0,1,,,,,,,,,1,,,81,52
522456,note_off,96,0,1,,,,,,,,,1,,,81,0
522480,note_off,240,0,4,,,,,,,,,4,,,66,0
522480,note_on,24,0,1,,,,,,,,,1,,,74,51
522480,note_off,1200,0,5,,,,,,,,,5,,,62,0
522576,note_off,96,0,1,,,,,,,,,1,,,74,0
522600,note_on,24,0,1,,,,,,,,,1,,,86,51
522696,note_off,96,0,1,,,,,,,,,1,,,86,0
522720,note_on,24,0,1,,,,,,,,,1,,,66,51
522720,note_on,240,0,5,,,,,,,,,5,,,50,51
522720,note_on,240,0,4,,,,,,,,,4,,,57,51
522816,note_off,96,0,1,,,,,,,,,1,,,66,0
522840,note_on,24,0,1,,,,,,,,,1,,,78,51
522936,note_off,96,0,1,,,,,,,,,1,,,78,0
522960,note_on,0,0,4,,,,,,,,,4,,,56,50
522960,note_on,24,0,1,,,,,,,,,1,,,65,51
522960,note_off,240,0,4,,,,,,,,,4,,,57,0
523056,note_off,96,0,1,,,,,,,,,1,,,65,0
523080,note_on,24,0,1,,,,,,,,,1,,,77,50
523176,note_off,96,0,1,,,,,,,,,1,,,77,0
523200,note_on,0,0,4,,,,,,,,,4,,,57,48
523200,note_off,240,0,4,,,,,,,,,4,,,56,0
523200,note_on,24,0,1,,,,,,,,,1,,,66,50
523296,note_off,96,0,1,,,,,,,,,1,,,66,0
523320,note_on,24,0,1,,,,,,,,,1,,,78,50
523416,note_off,96,0,1,,,,,,,,,1,,,78,0
523440,note_on,0,0,4,,,,,,,,,4,,,56,47
523440,note_off,240,0,4,,,,,,,,,4,,,57,0
523440,note_on,24,0,1,,,,,,,,,1,,,65,50
523536,note_off,96,0,1,,,,,,,,,1,,,65,0
523560,note_on,24,0,1,,,,,,,,,1,,,77,50
523656,note_off,96,0,1,,,,,,,,,1,,,77,0
523680,note_on,0,0,4,,,,,,,,,4,,,57,45
523680,note_off,240,0,4,,,,,,,,,4,,,56,0
523680,note_on,24,0,1,,,,,,,,,1,,,66,49
523776,note_off,96,0,1,,,,,,,,,1,,,66,0
523800,note_on,24,0,1,,,,,,,,,1,,,78,49
523896,note_off,96,0,1,,,,,,,,,1,,,78,0
523920,note_off,1200,0,5,,,,,,,,,5,,,50,0
523920,note_on,24,0,1,,,,,,,,,1,,,69,49
523920,note_off,240,0,4,,,,,,,,,4,,,57,0
524016,note_off,96,0,1,,,,,,,,,1,,,69,0
524040,note_on,24,0,1,,,,,,,,,1,,,81,49
524136,note_off,96,0,1,,,,,,,,,1,,,81,0
524160,note_on,240,0,5,,,,,,,,,5,,,47,49
524160,note_on,240,0,4,,,,,,,,,4,,,59,49
524160,note_on,24,0,1,,,,,,,,,1,,,62,49
524256,note_off,96,0,1,,,,,,,,,1,,,62,0
524280,note_on,24,0,1,,,,,,,,,1,,,74,48
524316,note_off,156,0,4,,,,,,,,,4,,,59,0
524316,note_off,156,0,5,,,,,,,,,5,,,47,0
524376,note_off,96,0,1,,,,,,,,,1,,,74,0
524400,note_on,24,0,1,,,,,,,,,1,,,66,48
524496,note_off,96,0,1,,,,,,,,,1,,,66,0
524520,note_on,24,0,1,,,,,,,,,1,,,78,48
524616,note_off,96,0,1,,,,,,,,,1,,,78,0
524640,note_on,24,0,1,,,,,,,,,1,,,64,48
524640,note_on,324,0,4,,,,,,,,,4,,,55,48
524640,note_on,324,0,5,,,,,,,,,5,,,43,48
524736,note_off,96,0,1,,,,,,,,,1,,,64,0
524760,note_on,24,0,1,,,,,,,,,1,,,76,48
524796,note_off,156,0,5,,,,,,,,,5,,,43,0
524796,note_off,156,0,4,,,,,,,,,4,,,55,0
524856,note_off,96,0,1,,,,,,,,,1,,,76,0
524880,note_on,24,0,1,,,,,,,,,1,,,67,47
524976,note_off,96,0,1,,,,,,,,,1,,,67,0
525000,note_on,24,0,1,,,,,,,,,1,,,79,47
525096,note_off,96,0,1,,,,,,,,,1,,,79,0
525120,note_on,24,0,1,,,,,,,,,1,,,61,47
525120,note_on,324,0,5,,,,,,,,,5,,,45,47
525120,note_on,324,0,4,,,,,,,,,4,,,57,47
525216,note_off,96,0,1,,,,,,,,,1,,,61,0
525240,note_on,24,0,1,,,,,,,,,1,,,73,47
525276,note_off,156,0,5,,,,,,,,,5,,,45,0
525276,note_off,156,0,4,,,,,,,,,4,,,57,0
525336,note_off,96,0,1,,,,,,,,,1,,,73,0
525360,note_on,24,0,1,,,,,,,,,1,,,64,47
525456,note_off,96,0,1,,,,,,,,,1,,,64,0
525480,note_on,24,0,1,,,,,,,,,1,,,76,46
525576,note_off,96,0,1,,,,,,,,,1,,,76,0
525600,note_on,24,0,1,,,,,,,,,1,,,62,46
525600,note_on,324,0,5,,,,,,,,,5,,,38,46
525600,note_on,324,0,4,,,,,,,,,4,,,50,46
525696,note_off,96,0,1,,,,,,,,,1,,,62,0
525720,note_on,24,0,1,,,,,,,,,1,,,74,48
525816,note_off,96,0,1,,,,,,,,,1,,,74,0
525840,note_on,24,0,1,,,,,,,,,1,,,61,48
525936,note_off,96,0,1,,,,,,,,,1,,,61,0
525960,note_off,360,0,5,,,,,,,,,5,,,38,0
525960,note_on,24,0,1,,,,,,,,,1,,,73,50
525960,note_off,360,0,4,,,,,,,,,4,,,50,0
526056,note_off,96,0,1,,,,,,,,,1,,,73,0
526080,note_on,24,0,1,,,,,,,,,1,,,62,53
526176,note_off,96,0,1,,,,,,,,,1,,,62,0
526200,note_on,24,0,1,,,,,,,,,1,,,74,55
526296,note_off,96,0,1,,,,,,,,,1,,,74,0
526320,note_on,24,0,1,,,,,,,,,1,,,64,58
526416,note_off,96,0,1,,,,,,,,,1,,,64,0
526440,note_on,24,0,1,,,,,,,,,1,,,76,60
526536,note_off,96,0,1,,,,,,,,,1,,,76,0
526560,note_on,24,0,1,,,,,,,,,1,,,66,62
526656,note_off,96,0,1,,,,,,,,,1,,,66,0
526680,note_on,24,0,1,,,,,,,,,1,,,78,65
526776,note_off,96,0,1,,,,,,,,,1,,,78,0
526800,note_on,24,0,1,,,,,,,,,1,,,67,67
526896,note_off,96,0,1,,,,,,,,,1,,,67,0
526920,note_on,24,0,1,,,,,,,,,1,,,79,70
526980,set_tempo,5700,1,0,,,,,,461538,,,,,,,
527016,note_off,96,0,1,,,,,,,,,1,,,79,0
527040,note_on,0,0,1,,,,,,,,,1,,,81,75
527040,note_on,24,0,1,,,,,,,,,1,,,69,75
527040,note_on,7008,0,2,,,,,,,,,2,,,78,75
527040,note_on,1080,0,5,,,,,,,,,5,,,50,75
527040,set_tempo,60,1,0,,,,,,458015,,,,,,,
527160,note_on,1200,0,4,,,,,,,,,4,,,62,75
527196,note_off,156,0,5,,,,,,,,,5,,,50,0
527256,note_off,96,0,4,,,,,,,,,4,,,62,0
527280,note_on,84,0,5,,,,,,,,,5,,,54,75
527400,note_on,144,0,4,,,,,,,,,4,,,66,75
527436,note_off,156,0,5,,,,,,,,,5,,,54,0
527496,note_off,96,0,4,,,,,,,,,4,,,66,0
527520,note_on,84,0,5,,,,,,,,,5,,,52,75
527640,note_on,144,0,4,,,,,,,,,4,,,64,74
527676,note_off,156,0,5,,,,,,,,,5,,,52,0
527736,note_off,96,0,4,,,,,,,,,4,,,64,0
527760,note_on,84,0,5,,,,,,,,,5,,,50,74
527880,note_on,144,0,4,,,,,,,,,4,,,62,74
527916,note_off,156,0,5,,,,,,,,,5,,,50,0
527976,note_off,96,0,4,,,,,,,,,4,,,62,0
528000,note_on,0,0,2,,,,,,,,,2,,,78,71
528000,note_on,84,0,5,,,,,,,,,5,,,49,74
528000,note_off,960,0,2,,,,,,,,,2,,,78,0
528000,note_off,0,0,1,,,,,,,,,1,,,69,0
528000,note_on,0,0,1,,,,,,,,,1,,,74,71
528000,note_on,0,0,1,,,,,,,,,1,,,86,71
528000,note_off,960,0,1,,,,,,,,,1,,,81,0
528120,note_on,144,0,4,,,,,,,,,4,,,61,73
528156,note_off,156,0,5,,,,,,,,,5,,,49,0
528192,note_off,192,0,2,,,,,,,,,2,,,78,0
528192,note_off,192,0,1,,,,,,,,,1,,,86,0
528192,note_off,0,0,1,,,,,,,,,1,,,74,0
528216,note_off,96,0,4,,,,,,,,,4,,,61,0
528240,note_on,84,0,5,,,,,,,,,5,,,47,73
528360,note_on,144,0,4,,,,,,,,,4,,,59,73
528396,note_off,156,0,5,,,,,,,,,5,,,47,0
528456,note_off,96,0,4,,,,,,,,,4,,,59,0
528480,note_on,84,0,5,,,,,,,,,5,,,45,73
528480,note_on,288,0,1,,,,,,,,,1,,,78,73
528480,note_on,0,0,1,,,,,,,,,1,,,66,73
528480,note_on,288,0,2,,,,,,,,,2,,,74,73
528600,note_on,144,0,4,,,,,,,,,4,,,57,73
528636,note_off,156,0,5,,,,,,,,,5,,,45,0
528696,note_off,96,0,4,,,,,,,,,4,,,57,0
528720,note_on,84,0,5,,,,,,,,,5,,,43,72
528840,note_on,144,0,4,,,,,,,,,4,,,55,72
528876,note_off,156,0,5,,,,,,,,,5,,,43,0
528936,note_off,96,0,4,,,,,,,,,4,,,55,0
528960,note_on,84,0,5,,,,,,,,,5,,,42,72
529080,note_on,144,0,4,,,,,,,,,4,,,54,72
529116,note_off,156,0,5,,,,,,,,,5,,,42,0
529176,note_off,96,0,4,,,,,,,,,4,,,54,0
529200,note_on,84,0,5,,,,,,,,,5,,,40,71
529320,note_on,144,0,4,,,,,,,,,4,,,52,71
529356,note_off,156,0,5,,,,,,,,,5,,,40,0
529416,note_off,96,0,4,,,,,,,,,4,,,52,0
529440,note_off,960,0,1,,,,,,,,,1,,,66,0
529440,note_off,0,0,1,,,,,,,,,1,,,78,0
529440,note_on,0,0,1,,,,,,,,,1,,,69,69
529440,note_on,0,0,1,,,,,,,,,1,,,81,69
529440,note_on,0,0,2,,,,,,,,,2,,,78,69
529440,note_on,84,0,5,,,,,,,,,5,,,38,71
529440,note_off,960,0,2,,,,,,,,,2,,,74,0
529560,note_on,144,0,4,,,,,,,,,4,,,50,71
529596,note_off,156,0,5,,,,,,,,,5,,,38,0
529632,note_off,192,0,1,,,,,,,,,1,,,81,0
529632,note_off,0,0,1,,,,,,,,,1,,,69,0
529632,note_off,192,0,2,,,,,,,,,2,,,78,0
529656,note_off,96,0,4,,,,,,,,,4,,,50,0
529680,note_on,84,0,5,,,,,,,,,5,,,37,71
529800,note_on,144,0,4,,,,,,,,,4,,,49,70
529836,note_off,156,0,5,,,,,,,,,5,,,37,0
529896,note_off,96,0,4,,,,,,,,,4,,,49,0
529920,note_on,84,0,5,,,,,,,,,5,,,35,70
529920,note_on,24,0,4,,,,,,,,,4,,,47,70
530040,note_on,408,0,1,,,,,,,,,1,,,67,70
530076,note_off,156,0,4,,,,,,,,,4,,,47,0
530076,note_off,156,0,5,,,,,,,,,5,,,35,0
530160,note_on,0,0,1,,,,,,,,,1,,,74,70
530160,note_off,120,0,1,,,,,,,,,1,,,67,0
530280,note_off,120,0,1,,,,,,,,,1,,,74,0
530280,note_on,0,0,1,,,,,,,,,1,,,79,69
530376,note_off,96,0,1,,,,,,,,,1,,,79,0
530400,note_on,324,0,5,,,,,,,,,5,,,33,69
530400,note_on,324,0,4,,,,,,,,,4,,,45,69
530520,note_on,144,0,1,,,,,,,,,1,,,69,69
530556,note_off,156,0,4,,,,,,,,,4,,,45,0
530556,note_off,156,0,5,,,,,,,,,5,,,33,0
530640,note_on,0,0,1,,,,,,,,,1,,,74,69
530640,note_off,120,0,1,,,,,,,,,1,,,69,0
530760,note_on,0,0,1,,,,,,,,,1,,,78,69
530760,note_off,120,0,1,,,,,,,,,1,,,74,0
530856,note_off,96,0,1,,,,,,,,,1,,,78,0
530880,note_on,324,0,5,,,,,,,,,5,,,33,68
530880,note_on,324,0,4,,,,,,,,,4,,,45,68
531000,note_on,144,0,1,,,,,,,,,1,,,67,68
531036,note_off,156,0,4,,,,,,,,,4,,,45,0
531036,note_off,156,0,5,,,,,,,,,5,,,33,0
531120,note_on,0,0,1,,,,,,,,,1,,,73,68
531120,note_off,120,0,1,,,,,,,,,1,,,67,0
531240,note_off,120,0,1,,,,,,,,,1,,,73,0
531240,note_on,0,0,1,,,,,,,,,1,,,76,68
531360,note_on,0,0,1,,,,,,,,,1,,,66,67
531360,note_off,120,0,1,,,,,,,,,1,,,76,0
531360,note_on,0,0,1,,,,,,,,,1,,,74,67
531480,note_on,444,0,5,,,,,,,,,5,,,50,67
531600,note_on,0,0,5,,,,,,,,,5,,,54,67
531600,note_off,120,0,5,,,,,,,,,5,,,50,0
531720,note_off,120,0,5,,,,,,,,,5,,,54,0
531720,note_on,0,0,5,,,,,,,,,5,,,50,67
531720,note_off,0,0,1,,,,,,,,,1,,,66,0
531720,note_off,360,0,1,,,,,,,,,1,,,74,0
531840,note_off,120,0,5,,,,,,,,,5,,,50,0
531840,note_on,0,0,5,,,,,,,,,5,,,45,67
531960,note_off,120,0,5,,,,,,,,,5,,,45,0
531960,note_on,0,0,5,,,,,,,,,5,,,50,66
532080,note_off,120,0,5,,,,,,,,,5,,,50,0
532080,note_on,0,0,5,,,,,,,,,5,,,42,66
532200,note_off,120,0,5,,,,,,,,,5,,,42,0
532200,note_on,0,0,5,,,,,,,,,5,,,45,66
532260,set_tempo,5220,1,0,,,,,,461538,,,,,,,
532320,note_on,0,0,5,,,,,,,,,5,,,38,66
532320,note_off,120,0,5,,,,,,,,,5,,,45,0
532608,note_off,288,0,5,,,,,,,,,5,,,38,0
532800,note_on,1080,0,1,,,,,,,,,1,,,64,57
532800,marker,540,1,0,,,,,,,,,,,,,
532800,note_on,1764,0,4,,,,,,,,,4,,,61,57
532800,note_on,192,0,5,,,,,,,,,5,,,57,57
532830,set_tempo,30,1,0,,,,,,458015,,,,,,,
532896,note_off,96,0,1,,,,,,,,,1,,,64,0
532920,note_on,24,0,1,,,,,,,,,1,,,76,57
533016,note_off,96,0,1,,,,,,,,,1,,,76,0
533040,note_on,24,0,1,,,,,,,,,1,,,63,57
533040,note_off,240,0,4,,,,,,,,,4,,,61,0
533040,note_on,0,0,4,,,,,,,,,4,,,60,57
533136,note_off,96,0,1,,,,,,,,,1,,,63,0
533160,note_on,24,0,1,,,,,,,,,1,,,75,57
533256,note_off,96,0,1,,,,,,,,,1,,,75,0
533280,note_on,24,0,1,,,,,,,,,1,,,64,56
533280,note_off,240,0,4,,,,,,,,,4,,,60,0
533280,note_on,0,0,4,,,,,,,,,4,,,61,56
533376,note_off,96,0,1,,,,,,,,,1,,,64,0
533400,note_on,24,0,1,,,,,,,,,1,,,76,56
533496,note_off,96,0,1,,,,,,,,,1,,,76,0
533520,note_on,0,0,4,,,,,,,,,4,,,60,56
533520,note_off,240,0,4,,,,,,,,,4,,,61,0
533520,note_on,24,0,1,,,,,,,,,1,,,63,56
533616,note_off,96,0,1,,,,,,,,,1,,,63,0
533640,note_on,24,0,1,,,,,,,,,1,,,75,56
533736,note_off,96,0,1,,,,,,,,,1,,,75,0
533760,note_on,24,0,1,,,,,,,,,1,,,64,56
533760,note_on,0,0,4,,,,,,,,,4,,,61,56
533760,note_off,240,0,4,,,,,,,,,4,,,60,0
533856,note_off,96,0,1,,,,,,,,,1,,,64,0
533880,note_on,24,0,1,,,,,,,,,1,,,76,55
533976,note_off,96,0,1,,,,,,,,,1,,,76,0
534000,note_on,24,0,1,,,,,,,,,1,,,66,55
534000,note_off,240,0,4,,,,,,,,,4,,,61,0
534000,note_on,0,0,4,,,,,,,,,4,,,62,55
534096,note_off,96,0,1,,,,,,,,,1,,,66,0
534120,note_on,24,0,1,,,,,,,,,1,,,78,55
534216,note_off,96,0,1,,,,,,,,,1,,,78,0
534240,note_off,240,0,4,,,,,,,,,4,,,62,0
534240,note_on,24,0,1,,,,,,,,,1,,,67,55
534240,note_on,0,0,4,,,,,,,,,4,,,64,55
534336,note_off,96,0,1,,,,,,,,,1,,,67,0
534360,note_on,24,0,1,,,,,,,,,1,,,79,54
534456,note_off,96,0,1,,,,,,,,,1,,,79,0
534480,note_on,24,0,1,,,,,,,,,1,,,66,54
534480,note_off,240,0,4,,,,,,,,,4,,,64,0
534480,note_on,0,0,4,,,,,,,,,4,,,63,54
534576,note_off,96,0,1,,,,,,,,,1,,,66,0
534600,note_on,24,0,1,,,,,,,,,1,,,78,54
534696,note_off,96,0,1,,,,,,,,,1,,,78,0
534720,note_on,24,0,1,,,,,,,,,1,,,67,54
534720,note_off,240,0,4,,,,,,,,,4,,,63,0
534720,note_on,0,0,4,,,,,,,,,4,,,64,54
534816,note_off,96,0,1,,,,,,,,,1,,,67,0
534840,note_on,24,0,1,,,,,,,,,1,,,79,54
534936,note_off,96,0,1,,,,,,,,,1,,,79,0
534960,note_off,240,0,4,,,,,,,,,4,,,64,0
534960,note_on,0,0,4,,,,,,,,,4,,,63,53
534960,note_on,24,0,1,,,,,,,,,1,,,66,53
535056,note_off,96,0,1,,,,,,,,,1,,,66,0
535080,note_on,24,0,1,,,,,,,,,1,,,78,53
535176,note_off,96,0,1,,,,,,,,,1,,,78,0
535200,note_on,24,0,1,,,,,,,,,1,,,67,53
535200,note_off,240,0,4,,,,,,,,,4,,,63,0
535200,note_on,0,0,4,,,,,,,,,4,,,64,53
535296,note_off,96,0,1,,,,,,,,,1,,,67,0
535320,note_on,24,0,1,,,,,,,,,1,,,79,53
535416,note_off,96,0,1,,,,,,,,,1,,,79,0
535440,note_on,24,0,1,,,,,,,,,1,,,64,53
535440,note_off,240,0,4,,,,,,,,,4,,,64,0
535440,note_on,0,0,4,,,,,,,,,4,,,61,53
535536,note_off,96,0,1,,,,,,,,,1,,,64,0
535560,note_on,24,0,1,,,,,,,,,1,,,76,52
535605,note_off,2805,0,5,,,,,,,,,5,,,57,0
535620,set_tempo,2790,1,0,,,,,,461538,,,,,,,
535632,note_off,192,0,4,,,,,,,,,4,,,61,0
535656,note_off,96,0,1,,,,,,,,,1,,,76,0
535680,note_on,75,0,5,,,,,,,,,5,,,50,52
535680,set_tempo,60,1,0,,,,,,458015,,,,,,,
535680,note_on,24,0,1,,,,,,,,,1,,,66,52
535680,note_on,48,0,4,,,,,,,,,4,,,62,52
535776,note_off,96,0,1,,,,,,,,,1,,,66,0
535800,note_on,24,0,1,,,,,,,,,1,,,78,52
535896,note_off,96,0,1,,,,,,,,,1,,,78,0
535920,note_on,24,0,1,,,,,,,,,1,,,65,52
535920,note_on,0,0,4,,,,,,,,,4,,,61,52
535920,note_off,240,0,4,,,,,,,,,4,,,62,0
536016,note_off,96,0,1,,,,,,,,,1,,,65,0
536040,note_on,24,0,1,,,,,,,,,1,,,77,51
536136,note_off,96,0,1,,,,,,,,,1,,,77,0
536160,note_off,240,0,4,,,,,,,,,4,,,61,0
536160,note_on,0,0,4,,,,,,,,,4,,,62,51
536160,note_on,24,0,1,,,,,,,,,1,,,66,51
536256,note_off,96,0,1,,,,,,,,,1,,,66,0
536280,note_on,24,0,1,,,,,,,,,1,,,78,51
536376,note_off,96,0,1,,,,,,,,,1,,,78,0
536400,note_on,0,0,4,,,,,,,,,4,,,61,51
536400,note_on,24,0,1,,,,,,,,,1,,,65,51
536400,note_off,240,0,4,,,,,,,,,4,,,62,0
536496,note_off,96,0,1,,,,,,,,,1,,,65,0
536520,note_on,24,0,1,,,,,,,,,1,,,77,51
536616,note_off,96,0,1,,,,,,,,,1,,,77,0
536640,note_on,24,0,1,,,,,,,,,1,,,66,50
536640,note_off,240,0,4,,,,,,,,,4,,,61,0
536640,note_on,0,0,4,,,,,,,,,4,,,62,50
536736,note_off,96,0,1,,,,,,,,,1,,,66,0
536760,note_on,24,0,1,,,,,,,,,1,,,78,50
536856,note_off,96,0,1,,,,,,,,,1,,,78,0
536880,note_on,24,0,1,,,,,,,,,1,,,67,50
536880,note_off,240,0,4,,,,,,,,,4,,,62,0
536880,note_on,0,0,4,,,,,,,,,4,,,64,50
536976,note_off,96,0,1,,,,,,,,,1,,,67,0
537000,note_on,24,0,1,,,,,,,,,1,,,79,50
537096,note_off,96,0,1,,,,,,,,,1,,,79,0
537120,note_off,240,0,4,,,,,,,,,4,,,64,0
537120,note_on,0,0,4,,,,,,,,,4,,,66,50
537120,note_off,1440,0,5,,,,,,,,,5,,,50,0
537120,note_on,0,0,5,,,,,,,,,5,,,62,50
537120,note_on,24,0,1,,,,,,,,,1,,,69,50
537216,note_off,96,0,1,,,,,,,,,1,,,69,0
537240,note_on,24,0,1,,,,,,,,,1,,,81,49
537336,note_off,96,0,1,,,,,,,,,1,,,81,0
537360,note_on,0,0,4,,,,,,,,,4,,,65,49
537360,note_off,240,0,4,,,,,,,,,4,,,66,0
537360,note_on,24,0,1,,,,,,,,,1,,,68,49
537456,note_off,96,0,1,,,,,,,,,1,,,68,0
537480,note_on,24,0,1,,,,,,,,,1,,,80,49
537576,note_off,96,0,1,,,,,,,,,1,,,80,0
537600,note_on,0,0,4,,,,,,,,,4,,,66,49
537600,note_on,24,0,1,,,,,,,,,1,,,69,49
537600,note_off,240,0,4,,,,,,,,,4,,,65,0
537696,note_off,96,0,1,,,,,,,,,1,,,69,0
537720,note_on,24,0,1,,,,,,,,,1,,,81,48
537816,note_off,96,0,1,,,,,,,,,1,,,81,0
537840,note_off,240,0,4,,,,,,,,,4,,,66,0
537840,note_on,0,0,4,,,,,,,,,4,,,65,48
537840,note_on,24,0,1,,,,,,,,,1,,,68,48
537936,note_off,96,0,1,,,,,,,,,1,,,68,0
537960,note_on,24,0,1,,,,,,,,,1,,,80,48
538056,note_off,96,0,1,,,,,,,,,1,,,80,0
538080,note_on,24,0,1,,,,,,,,,1,,,69,48
538080,note_on,0,0,4,,,,,,,,,4,,,66,48
538080,note_off,960,0,5,,,,,,,,,5,,,62,0
538080,note_off,240,0,4,,,,,,,,,4,,,65,0
538176,note_off,96,0,1,,,,,,,,,1,,,69,0
538200,note_on,24,0,1,,,,,,,,,1,,,81,48
538290,note_off,210,0,4,,,,,,,,,4,,,66,0
538296,note_off,96,0,1,,,,,,,,,1,,,81,0
538320,note_on,24,0,1,,,,,,,,,1,,,74,83
538440,note_off,120,0,1,,,,,,,,,1,,,74,0
538440,note_on,0,0,1,,,,,,,,,1,,,86,82
538500,set_tempo,2820,1,0,,,,,,461538,,,,,,,
538560,note_off,120,0,1,,,,,,,,,1,,,86,0
538560,note_on,8928,0,2,,,,,,,,,2,,,81,81
538560,set_tempo,60,1,0,,,,,,458015,,,,,,,
538560,note_on,0,0,1,,,,,,,,,1,,,73,81
538560,note_on,0,0,1,,,,,,,,,1,,,85,81
538560,note_on,480,0,5,,,,,,,,,5,,,43,81
538680,note_on,390,0,4,,,,,,,,,4,,,55,81
538716,note_off,156,0,5,,,,,,,,,5,,,43,0
538776,note_off,96,0,4,,,,,,,,,4,,,55,0
538800,note_on,84,0,5,,,,,,,,,5,,,45,80
538920,note_on,144,0,4,,,,,,,,,4,,,57,80
538956,note_off,156,0,5,,,,,,,,,5,,,45,0
539016,note_off,96,0,4,,,,,,,,,4,,,57,0
539040,note_off,0,0,1,,,,,,,,,1,,,85,0
539040,note_off,480,0,1,,,,,,,,,1,,,73,0
539040,note_on,84,0,5,,,,,,,,,5,,,47,80
539040,note_on,0,0,1,,,,,,,,,1,,,71,77
539040,note_on,0,0,2,,,,,,,,,2,,,79,77
539040,note_off,480,0,2,,,,,,,,,2,,,81,0
539040,note_on,0,0,1,,,,,,,,,1,,,83,77
539160,note_on,144,0,4,,,,,,,,,4,,,59,80
539196,note_off,156,0,5,,,,,,,,,5,,,47,0
539256,note_off,96,0,4,,,,,,,,,4,,,59,0
539280,note_on,84,0,5,,,,,,,,,5,,,49,80
539400,note_on,144,0,4,,,,,,,,,4,,,61,79
539436,note_off,156,0,5,,,,,,,,,5,,,49,0
539496,note_off,96,0,4,,,,,,,,,4,,,61,0
539520,note_off,0,0,1,,,,,,,,,1,,,83,0
539520,note_on,0,0,1,,,,,,,,,1,,,69,78
539520,note_on,0,0,1,,,,,,,,,1,,,81,78
539520,note_off,480,0,1,,,,,,,,,1,,,71,0
539520,note_off,480,0,2,,,,,,,,,2,,,79,0
539520,note_on,0,0,2,,,,,,,,,2,,,78,78
539520,note_on,84,0,5,,,,,,,,,5,,,50,79
539640,note_on,144,0,4,,,,,,,,,4,,,62,79
539676,note_off,156,0,5,,,,,,,,,5,,,50,0
539712,note_off,192,0,1,,,,,,,,,1,,,81,0
539712,note_off,192,0,2,,,,,,,,,2,,,78,0
539712,note_off,0,0,1,,,,,,,,,1,,,69,0
539736,note_off,96,0,4,,,,,,,,,4,,,62,0
539760,note_on,0,0,1,,,,,,,,,1,,,74,81
539760,note_on,84,0,5,,,,,,,,,5,,,54,79
539760,note_on,48,0,2,,,,,,,,,2,,,81,81
539760,note_on,48,0,1,,,,,,,,,1,,,86,81
539880,note_on,144,0,4,,,,,,,,,4,,,66,78
539916,note_off,156,0,5,,,,,,,,,5,,,54,0
539976,note_off,96,0,4,,,,,,,,,4,,,66,0
540000,note_off,240,0,1,,,,,,,,,1,,,74,0
540000,note_off,0,0,1,,,,,,,,,1,,,86,0
540000,note_on,0,0,1,,,,,,,,,1,,,73,80
540000,note_on,0,0,1,,,,,,,,,1,,,85,80
540000,note_on,84,0,5,,,,,,,,,5,,,55,78
540000,note_on,0,0,2,,,,,,,,,2,,,81,80
540000,note_off,240,0,2,,,,,,,,,2,,,81,0
540120,note_on,144,0,4,,,,,,,,,4,,,67,78
540156,note_off,156,0,5,,,,,,,,,5,,,55,0
540216,note_off,96,0,4,,,,,,,,,4,,,67,0
540240,note_on,84,0,5,,,,,,,,,5,,,57,78
540360,note_on,144,0,4,,,,,,,,,4,,,69,77
540396,note_off,156,0,5,,,,,,,,,5,,,57,0
540456,note_off,96,0,4,,,,,,,,,4,,,69,0
540480,note_off,480,0,2,,,,,,,,,2,,,81,0
540480,note_off,480,0,1,,,,,,,,,1,,,85,0
540480,note_on,0,0,1,,,,,,,,,1,,,83,78
540480,note_on,84,0,5,,,,,,,,,5,,,59,77
540480,note_on,0,0,2,,,,,,,,,2,,,79,78
540480,note_on,0,0,1,,,,,,,,,1,,,71,78
540480,note_off,0,0,1,,,,,,,,,1,,,73,0
540600,note_on,144,0,4,,,,,,,,,4,,,71,77
540636,note_off,156,0,5,,,,,,,,,5,,,59,0
540696,note_off,96,0,4,,,,,,,,,4,,,71,0
540720,note_on,84,0,5,,,,,,,,,5,,,61,77
540840,note_on,144,0,4,,,,,,,,,4,,,73,76
540876,note_off,156,0,5,,,,,,,,,5,,,61,0
540936,note_off,96,0,4,,,,,,,,,4,,,73,0
540960,note_on,84,0,5,,,,,,,,,5,,,62,76
540960,note_on,0,0,2,,,,,,,,,2,,,78,76
540960,note_off,480,0,2,,,,,,,,,2,,,79,0
540960,note_on,0,0,1,,,,,,,,,1,,,81,76
540960,note_off,480,0,1,,,,,,,,,1,,,71,0
540960,note_on,0,0,1,,,,,,,,,1,,,69,76
540960,note_off,0,0,1,,,,,,,,,1,,,83,0
541080,note_on,144,0,4,,,,,,,,,4,,,74,76
541116,note_off,156,0,5,,,,,,,,,5,,,62,0
541152,note_off,192,0,2,,,,,,,,,2,,,78,0
541152,note_off,192,0,1,,,,,,,,,1,,,69,0
541152,note_off,0,0,1,,,,,,,,,1,,,81,0
541176,note_off,96,0,4,,,,,,,,,4,,,74,0
541200,note_on,84,0,5,,,,,,,,,5,,,61,76
541200,note_on,48,0,1,,,,,,,,,1,,,81,76
541200,note_on,48,0,2,,,,,,,,,2,,,76,76
541320,note_on,144,0,4,,,,,,,,,4,,,73,75
541356,note_off,156,0,5,,,,,,,,,5,,,61,0
541416,note_off,96,0,4,,,,,,,,,4,,,73,0
541440,note_on,0,0,2,,,,,,,,,2,,,74,75
541440,note_off,240,0,2,,,,,,,,,2,,,76,0
541440,note_on,84,0,5,,,,,,,,,5,,,59,75
541440,note_off,240,0,1,,,,,,,,,1,,,81,0
541440,note_on,0,0,1,,,,,,,,,1,,,79,75
541560,note_on,144,0,4,,,,,,,,,4,,,71,75
541596,note_off,156,0,5,,,,,,,,,5,,,59,0
541656,note_off,96,0,4,,,,,,,,,4,,,71,0
541680,note_on,0,0,1,,,,,,,,,1,,,78,74
541680,note_off,240,0,1,,,,,,,,,1,,,79,0
541680,note_off,240,0,2,,,,,,,,,2,,,74,0
541680,note_on,84,0,5,,,,,,,,,5,,,57,75
541680,note_on,0,0,2,,,,,,,,,2,,,73,74
541800,note_on,144,0,4,,,,,,,,,4,,,69,74
541836,note_off,156,0,5,,,,,,,,,5,,,57,0
541896,note_off,96,0,4,,,,,,,,,4,,,69,0
541920,note_off,240,0,2,,,,,,,,,2,,,73,0
541920,note_on,0,0,1,,,,,,,,,1,,,76,73
541920,note_off,240,0,1,,,,,,,,,1,,,78,0
541920,note_on,84,0,5,,,,,,,,,5,,,55,74
541920,note_on,0,0,2,,,,,,,,,2,,,71,73
542040,note_on,144,0,4,,,,,,,,,4,,,67,74
542076,note_off,156,0,5,,,,,,,,,5,,,55,0
542136,note_off,96,0,4,,,,,,,,,4,,,67,0
542160,note_on,84,0,5,,,,,,,,,5,,,54,74
542160,note_on,0,0,2,,,,,,,,,2,,,69,72
542160,note_off,240,0,1,,,,,,,,,1,,,76,0
542160,note_on,0,0,1,,,,,,,,,1,,,74,72
542160,note_off,240,0,2,,,,,,,,,2,,,71,0
542280,note_on,144,0,4,,,,,,,,,4,,,66,74
542316,note_off,156,0,5,,,,,,,,,5,,,54,0
542376,note_off,96,0,4,,,,,,,,,4,,,66,0
542400,note_on,84,0,5,,,,,,,,,5,,,52,73
542400,note_on,0,0,1,,,,,,,,,1,,,73,71
542400,note_on,0,0,2,,,,,,,,,2,,,67,71
542400,note_off,240,0,1,,,,,,,,,1,,,74,0
542400,note_off,240,0,2,,,,,,,,,2,,,69,0
542520,note_on,144,0,4,,,,,,,,,4,,,64,73
542556,note_off,156,0,5,,,,,,,,,5,,,52,0
542616,note_off,96,0,4,,,,,,,,,4,,,64,0
542640,note_on,0,0,1,,,,,,,,,1,,,74,70
542640,note_on,0,0,2,,,,,,,,,2,,,66,70
542640,note_off,240,0,1,,,,,,,,,1,,,73,0
542640,note_off,240,0,2,,,,,,,,,2,,,67,0
542640,note_on,84,0,5,,,,,,,,,5,,,50,73
542760,note_on,144,0,4,,,,,,,,,4,,,62,73
542796,note_off,156,0,5,,,,,,,,,5,,,50,0
542856,note_off,96,0,4,,,,,,,,,4,,,62,0
542880,note_on,0,0,1,,,,,,,,,1,,,76,70
542880,note_on,0,0,2,,,,,,,,,2,,,64,70
542880,note_off,240,0,2,,,,,,,,,2,,,66,0
542880,note_on,24,0,4,,,,,,,,,4,,,57,72
542880,note_off,240,0,1,,,,,,,,,1,,,74,0
542880,note_on,0,0,2,,,,,,,,,2,,,73,70
542880,note_on,84,0,5,,,,,,,,,5,,,45,72
543072,note_off,192,0,1,,,,,,,,,1,,,76,0
543072,note_off,192,0,2,,,,,,,,,2,,,73,0
543072,note_off,0,0,2,,,,,,,,,2,,,64,0
543120,note_on,48,0,1,,,,,,,,,1,,,61,71
543216,note_off,96,0,1,,,,,,,,,1,,,61,0
543240,note_off,360,0,5,,,,,,,,,5,,,45,0
543240,note_on,24,0,1,,,,,,,,,1,,,73,69
543240,note_off,360,0,4,,,,,,,,,4,,,57,0
543336,note_off,96,0,1,,,,,,,,,1,,,73,0
543360,note_on,24,0,1,,,,,,,,,1,,,62,67
543456,note_off,96,0,1,,,,,,,,,1,,,62,0
543480,note_on,24,0,1,,,,,,,,,1,,,74,65
543576,note_off,96,0,1,,,,,,,,,1,,,74,0
543600,note_on,24,0,1,,,,,,,,,1,,,64,63
543696,note_off,96,0,1,,,,,,,,,1,,,64,0
543720,note_on,24,0,1,,,,,,,,,1,,,76,62
543816,note_off,96,0,1,,,,,,,,,1,,,76,0
543840,note_on,24,0,1,,,,,,,,,1,,,66,60
543936,note_off,96,0,1,,,,,,,,,1,,,66,0
543960,note_on,24,0,1,,,,,,,,,1,,,78,58
544056,note_off,96,0,1,,,,,,,,,1,,,78,0
544080,note_on,24,0,1,,,,,,,,,1,,,67,56
544176,note_off,96,0,1,,,,,,,,,1,,,67,0
544200,note_on,24,0,1,,,,,,,,,1,,,79,54
544260,set_tempo,5700,1,0,,,,,,461538,,,,,,,
544296,note_off,96,0,1,,,,,,,,,1,,,79,0
544320,note_on,1080,0,4,,,,,,,,,4,,,66,53
544320,note_on,24,0,1,,,,,,,,,1,,,69,53
544320,set_tempo,60,1,0,,,,,,458015,,,,,,,
544320,note_on,1080,0,5,,,,,,,,,5,,,62,53
544416,note_off,96,0,1,,,,,,,,,1,,,69,0
544440,note_on,24,0,1,,,,,,,,,1,,,81,53
544536,note_off,96,0,1,,,,,,,,,1,,,81,0
544560,note_on,24,0,1,,,,,,,,,1,,,68,53
544560,note_off,240,0,4,,,,,,,,,4,,,66,0
544560,note_on,0,0,4,,,,,,,,,4,,,65,52
544656,note_off,96,0,1,,,,,,,,,1,,,68,0
544680,note_on,24,0,1,,,,,,,,,1,,,80,53
544776,note_off,96,0,1,,,,,,,,,1,,,80,0
544800,note_on,0,0,4,,,,,,,,,4,,,66,51
544800,note_off,240,0,4,,,,,,,,,4,,,65,0
544800,note_on,24,0,1,,,,,,,,,1,,,69,53
544896,note_off,96,0,1,,,,,,,,,1,,,69,0
544920,note_on,24,0,1,,,,,,,,,1,,,81,52
545016,note_off,96,0,1,,,,,,,,,1,,,81,0
545040,note_on,0,0,4,,,,,,,,,4,,,65,50
545040,note_off,240,0,4,,,,,,,,,4,,,66,0
545040,note_on,24,0,1,,,,,,,,,1,,,68,52
545136,note_off,96,0,1,,,,,,,,,1,,,68,0
545160,note_on,24,0,1,,,,,,,,,1,,,80,52
545256,note_off,96,0,1,,,,,,,,,1,,,80,0
545280,note_off,240,0,4,,,,,,,,,4,,,65,0
545280,note_on,0,0,4,,,,,,,,,4,,,66,48
545280,note_on,24,0,1,,,,,,,,,1,,,69,52
545376,note_off,96,0,1,,,,,,,,,1,,,69,0
545400,note_on,24,0,1,,,,,,,,,1,,,81,52
545496,note_off,96,0,1,,,,,,,,,1,,,81,0
545520,note_off,240,0,4,,,,,,,,,4,,,66,0
545520,note_off,1200,0,5,,,,,,,,,5,,,62,0
545520,note_on,24,0,1,,,,,,,,,1,,,74,51
545616,note_off,96,0,1,,,,,,,,,1,,,74,0
545640,note_on,24,0,1,,,,,,,,,1,,,86,51
545736,note_off,96,0,1,,,,,,,,,1,,,86,0
545760,note_on,24,0,1,,,,,,,,,1,,,66,51
545760,note_on,240,0,5,,,,,,,,,5,,,50,51
545760,note_on,240,0,4,,,,,,,,,4,,,57,51
545856,note_off,96,0,1,,,,,,,,,1,,,66,0
545880,note_on,24,0,1,,,,,,,,,1,,,78,51
545976,note_off,96,0,1,,,,,,,,,1,,,78,0
546000,note_on,0,0,4,,,,,,,,,4,,,56,50
546000,note_off,240,0,4,,,,,,,,,4,,,57,0
546000,note_on,24,0,1,,,,,,,,,1,,,65,51
546096,note_off,96,0,1,,,,,,,,,1,,,65,0
546120,note_on,24,0,1,,,,,,,,,1,,,77,50
546216,note_off,96,0,1,,,,,,,,,1,,,77,0
546240,note_off,240,0,4,,,,,,,,,4,,,56,0
546240,note_on,24,0,1,,,,,,,,,1,,,66,50
546240,note_on,0,0,4,,,,,,,,,4,,,57,48
546336,note_off,96,0,1,,,,,,,,,1,,,66,0
546360,note_on,24,0,1,,,,,,,,,1,,,78,50
546456,note_off,96,0,1,,,,,,,,,1,,,78,0
546480,note_on,0,0,4,,,,,,,,,4,,,56,47
546480,note_off,240,0,4,,,,,,,,,4,,,57,0
546480,note_on,24,0,1,,,,,,,,,1,,,65,50
546576,note_off,96,0,1,,,,,,,,,1,,,65,0
546600,note_on,24,0,1,,,,,,,,,1,,,77,50
546696,note_off,96,0,1,,,,,,,,,1,,,77,0
546720,note_on,0,0,4,,,,,,,,,4,,,57,45
546720,note_on,24,0,1,,,,,,,,,1,,,66,49
546720,note_off,240,0,4,,,,,,,,,4,,,56,0
546816,note_off,96,0,1,,,,,,,,,1,,,66,0
546840,note_on,24,0,1,,,,,,,,,1,,,78,49
546936,note_off,96,0,1,,,,,,,,,1,,,78,0
546960,note_off,1200,0,5,,,,,,,,,5,,,50,0
546960,note_off,240,0,4,,,,,,,,,4,,,57,0
546960,note_on,24,0,1,,,,,,,,,1,,,69,49
547056,note_off,96,0,1,,,,,,,,,1,,,69,0
547080,note_on,24,0,1,,,,,,,,,1,,,81,49
547176,note_off,96,0,1,,,,,,,,,1,,,81,0
547200,note_on,240,0,5,,,,,,,,,5,,,47,49
547200,note_on,240,0,4,,,,,,,,,4,,,59,49
547200,note_on,24,0,1,,,,,,,,,1,,,62,49
547296,note_off,96,0,1,,,,,,,,,1,,,62,0
547320,note_on,24,0,1,,,,,,,,,1,,,74,48
547356,note_off,156,0,5,,,,,,,,,5,,,47,0
547356,note_off,156,0,4,,,,,,,,,4,,,59,0
547416,note_off,96,0,1,,,,,,,,,1,,,74,0
547440,note_on,24,0,1,,,,,,,,,1,,,66,48
547536,note_off,96,0,1,,,,,,,,,1,,,66,0
547560,note_on,24,0,1,,,,,,,,,1,,,78,48
547656,note_off,96,0,1,,,,,,,,,1,,,78,0
547680,note_on,24,0,1,,,,,,,,,1,,,64,48
547680,note_on,324,0,4,,,,,,,,,4,,,55,48
547680,note_on,324,0,5,,,,,,,,,5,,,43,48
547776,note_off,96,0,1,,,,,,,,,1,,,64,0
547800,note_on,24,0,1,,,,,,,,,1,,,76,48
547836,note_off,156,0,4,,,,,,,,,4,,,55,0
547836,note_off,156,0,5,,,,,,,,,5,,,43,0
547896,note_off,96,0,1,,,,,,,,,1,,,76,0
547920,note_on,24,0,1,,,,,,,,,1,,,67,47
548016,note_off,96,0,1,,,,,,,,,1,,,67,0
548040,note_on,24,0,1,,,,,,,,,1,,,79,47
548136,note_off,96,0,1,,,,,,,,,1,,,79,0
548160,note_on,324,0,4,,,,,,,,,4,,,57,47
548160,note_on,324,0,5,,,,,,,,,5,,,45,47
548160,note_on,24,0,1,,,,,,,,,1,,,61,47
548256,note_off,96,0,1,,,,,,,,,1,,,61,0
548280,note_on,24,0,1,,,,,,,,,1,,,73,47
548316,note_off,156,0,4,,,,,,,,,4,,,57,0
548316,note_off,156,0,5,,,,,,,,,5,,,45,0
548376,note_off,96,0,1,,,,,,,,,1,,,73,0
548400,note_on,24,0,1,,,,,,,,,1,,,64,47
548496,note_off,96,0,1,,,,,,,,,1,,,64,0
548520,note_on,24,0,1,,,,,,,,,1,,,76,46
548616,note_off,96,0,1,,,,,,,,,1,,,76,0
548640,note_on,324,0,4,,,,,,,,,4,,,50,46
548640,note_on,24,0,1,,,,,,,,,1,,,62,46
548640,note_on,324,0,5,,,,,,,,,5,,,38,46
548736,note_off,96,0,1,,,,,,,,,1,,,62,0
548760,note_on,24,0,1,,,,,,,,,1,,,74,48
548856,note_off,96,0,1,,,,,,,,,1,,,74,0
548880,note_on,24,0,1,,,,,,,,,1,,,61,48
548976,note_off,96,0,1,,,,,,,,,1,,,61,0
549000,note_off,360,0,4,,,,,,,,,4,,,50,0
549000,note_off,360,0,5,,,,,,,,,5,,,38,0
549000,note_on,24,0,1,,,,,,,,,1,,,73,50
549096,note_off,96,0,1,,,,,,,,,1,,,73,0
549120,note_on,24,0,1,,,,,,,,,1,,,62,53
549216,note_off,96,0,1,,,,,,,,,1,,,62,0
549240,note_on,24,0,1,,,,,,,,,1,,,74,55
549336,note_off,96,0,1,,,,,,,,,1,,,74,0
549360,note_on,24,0,1,,,,,,,,,1,,,64,58
549456,note_off,96,0,1,,,,,,,,,1,,,64,0
549480,note_on,24,0,1,,,,,,,,,1,,,76,60
549576,note_off,96,0,1,,,,,,,,,1,,,76,0
549600,note_on,24,0,1,,,,,,,,,1,,,66,62
549696,note_off,96,0,1,,,,,,,,,1,,,66,0
549720,note_on,24,0,1,,,,,,,,,1,,,78,65
549816,note_off,96,0,1,,,,,,,,,1,,,78,0
549840,note_on,24,0,1,,,,,,,,,1,,,67,67
549936,note_off,96,0,1,,,,,,,,,1,,,67,0
549960,note_on,24,0,1,,,,,,,,,1,,,79,70
550020,set_tempo,5700,1,0,,,,,,461538,,,,,,,
550056,note_off,96,0,1,,,,,,,,,1,,,79,0
550080,note_on,1080,0,5,,,,,,,,,5,,,50,75
550080,set_tempo,60,1,0,,,,,,458015,,,,,,,
550080,note_on,7008,0,2,,,,,,,,,2,,,78,75
550080,note_on,0,0,1,,,,,,,,,1,,,69,75
550080,note_on,24,0,1,,,,,,,,,1,,,81,75
550200,note_on,1200,0,4,,,,,,,,,4,,,62,75
550236,note_off,156,0,5,,,,,,,,,5,,,50,0
550296,note_off,96,0,4,,,,,,,,,4,,,62,0
550320,note_on,84,0,5,,,,,,,,,5,,,54,75
550440,note_on,144,0,4,,,,,,,,,4,,,66,75
550476,note_off,156,0,5,,,,,,,,,5,,,54,0
550536,note_off,96,0,4,,,,,,,,,4,,,66,0
550560,note_on,84,0,5,,,,,,,,,5,,,52,75
550680,note_on,144,0,4,,,,,,,,,4,,,64,74
550716,note_off,156,0,5,,,,,,,,,5,,,52,0
550776,note_off,96,0,4,,,,,,,,,4,,,64,0
550800,note_on,84,0,5,,,,,,,,,5,,,50,74
550920,note_on,144,0,4,,,,,,,,,4,,,62,74
550956,note_off,156,0,5,,,,,,,,,5,,,50,0
551016,note_off,96,0,4,,,,,,,,,4,,,62,0
551040,note_off,960,0,1,,,,,,,,,1,,,69,0
551040,note_off,960,0,2,,,,,,,,,2,,,78,0
551040,note_on,0,0,2,,,,,,,,,2,,,78,71
551040,note_on,0,0,1,,,,,,,,,1,,,74,71
551040,note_on,84,0,5,,,,,,,,,5,,,49,74
551040,note_off,0,0,1,,,,,,,,,1,,,81,0
551040,note_on,0,0,1,,,,,,,,,1,,,86,71
551160,note_on,144,0,4,,,,,,,,,4,,,61,73
551196,note_off,156,0,5,,,,,,,,,5,,,49,0
551232,note_off,0,0,1,,,,,,,,,1,,,86,0
551232,note_off,192,0,2,,,,,,,,,2,,,78,0
551232,note_off,192,0,1,,,,,,,,,1,,,74,0
551256,note_off,96,0,4,,,,,,,,,4,,,61,0
551280,note_on,84,0,5,,,,,,,,,5,,,47,73
551400,note_on,144,0,4,,,,,,,,,4,,,59,73
551436,note_off,156,0,5,,,,,,,,,5,,,47,0
551496,note_off,96,0,4,,,,,,,,,4,,,59,0
551520,note_on,288,0,1,,,,,,,,,1,,,66,73
551520,note_on,0,0,1,,,,,,,,,1,,,78,73
551520,note_on,288,0,2,,,,,,,,,2,,,74,73
551520,note_on,84,0,5,,,,,,,,,5,,,45,73
551640,note_on,144,0,4,,,,,,,,,4,,,57,73
551676,note_off,156,0,5,,,,,,,,,5,,,45,0
551736,note_off,96,0,4,,,,,,,,,4,,,57,0
551760,note_on,84,0,5,,,,,,,,,5,,,43,72
551880,note_on,144,0,4,,,,,,,,,4,,,55,72
551916,note_off,156,0,5,,,,,,,,,5,,,43,0
551976,note_off,96,0,4,,,,,,,,,4,,,55,0
552000,note_on,84,0,5,,,,,,,,,5,,,42,72
552120,note_on,144,0,4,,,,,,,,,4,,,54,72
552156,note_off,156,0,5,,,,,,,,,5,,,42,0
552216,note_off,96,0,4,,,,,,,,,4,,,54,0
552240,note_on,84,0,5,,,,,,,,,5,,,40,71
552360,note_on,144,0,4,,,,,,,,,4,,,52,71
552396,note_off,156,0,5,,,,,,,,,5,,,40,0
552456,note_off,96,0,4,,,,,,,,,4,,,52,0
552480,note_on,0,0,2,,,,,,,,,2,,,78,69
552480,note_on,84,0,5,,,,,,,,,5,,,38,71
552480,note_off,960,0,2,,,,,,,,,2,,,74,0
552480,note_off,960,0,1,,,,,,,,,1,,,78,0
552480,note_on,0,0,1,,,,,,,,,1,,,69,69
552480,note_off,0,0,1,,,,,,,,,1,,,66,0
552480,note_on,0,0,1,,,,,,,,,1,,,81,69
552600,note_on,144,0,4,,,,,,,,,4,,,50,71
552636,note_off,156,0,5,,,,,,,,,5,,,38,0
552672,note_off,192,0,1,,,,,,,,,1,,,69,0
552672,note_off,192,0,2,,,,,,,,,2,,,78,0
552672,note_off,0,0,1,,,,,,,,,1,,,81,0
552696,note_off,96,0,4,,,,,,,,,4,,,50,0
552720,note_on,84,0,5,,,,,,,,,5,,,37,71
552840,note_on,144,0,4,,,,,,,,,4,,,49,70
552876,note_off,156,0,5,,,,,,,,,5,,,37,0
552936,note_off,96,0,4,,,,,,,,,4,,,49,0
552960,note_on,24,0,4,,,,,,,,,4,,,47,70
552960,note_on,84,0,5,,,,,,,,,5,,,35,70
553080,note_on,408,0,1,,,,,,,,,1,,,67,70
553116,note_off,156,0,5,,,,,,,,,5,,,35,0
553116,note_off,156,0,4,,,,,,,,,4,,,47,0
553200,note_on,0,0,1,,,,,,,,,1,,,74,70
553200,note_off,120,0,1,,,,,,,,,1,,,67,0
553320,note_on,0,0,1,,,,,,,,,1,,,79,69
553320,note_off,120,0,1,,,,,,,,,1,,,74,0
553416,note_off,96,0,1,,,,,,,,,1,,,79,0
553440,note_on,324,0,5,,,,,,,,,5,,,33,69
553440,note_on,324,0,4,,,,,,,,,4,,,45,69
553560,note_on,144,0,1,,,,,,,,,1,,,69,69
553596,note_off,156,0,4,,,,,,,,,4,,,45,0
553596,note_off,156,0,5,,,,,,,,,5,,,33,0
553680,note_on,0,0,1,,,,,,,,,1,,,74,69
553680,note_off,120,0,1,,,,,,,,,1,,,69,0
553800,note_off,120,0,1,,,,,,,,,1,,,74,0
553800,note_on,0,0,1,,,,,,,,,1,,,78,69
553896,note_off,96,0,1,,,,,,,,,1,,,78,0
553920,note_on,324,0,4,,,,,,,,,4,,,45,68
553920,note_on,324,0,5,,,,,,,,,5,,,33,68
554040,note_on,144,0,1,,,,,,,,,1,,,67,68
554076,note_off,156,0,4,,,,,,,,,4,,,45,0
554076,note_off,156,0,5,,,,,,,,,5,,,33,0
554160,note_off,120,0,1,,,,,,,,,1,,,67,0
554160,note_on,0,0,1,,,,,,,,,1,,,73,68
554280,note_off,120,0,1,,,,,,,,,1,,,73,0
554280,note_on,0,0,1,,,,,,,,,1,,,76,68
554400,note_on,0,0,1,,,,,,,,,1,,,74,67
554400,note_off,120,0,1,,,,,,,,,1,,,76,0
554400,note_on,0,0,1,,,,,,,,,1,,,66,67
554520,note_on,444,0,5,,,,,,,,,5,,,50,67
554640,note_off,120,0,5,,,,,,,,,5,,,50,0
554640,note_on,0,0,5,,,,,,,,,5,,,54,67
554760,note_off,360,0,1,,,,,,,,,1,,,66,0
554760,note_off,120,0,5,,,,,,,,,5,,,54,0
554760,note_off,0,0,1,,,,,,,,,1,,,74,0
554760,note_on,0,0,5,,,,,,,,,5,,,50,67
554880,note_on,0,0,5,,,,,,,,,5,,,45,67
554880,note_off,120,0,5,,,,,,,,,5,,,50,0
555000,note_off,120,0,5,,,,,,,,,5,,,45,0
555000,note_on,0,0,5,,,,,,,,,5,,,50,66
555120,note_off,120,0,5,,,,,,,,,5,,,50,0
555120,note_on,0,0,5,,,,,,,,,5,,,42,66
555240,note_on,0,0,5,,,,,,,,,5,,,45,66
555240,note_off,120,0,5,,,,,,,,,5,,,42,0
555300,set_tempo,5220,1,0,,,,,,461538,,,,,,,
555360,note_off,120,0,5,,,,,,,,,5,,,45,0
555360,note_on,0,0,5,,,,,,,,,5,,,38,66
555600,set_tempo,300,1,0,,,,,,2727272,,,,,,,
555648,note_off,288,0,5,,,,,,,,,5,,,38,0
555840,note_on,192,0,5,,,,,,,,,5,,,62,51
555840,note_on,1080,0,1,,,,,,,,,1,,,81,51
555840,marker,0,1,0,,,,,,,,,,,,,
555840,note_on,1764,0,4,,,,,,,,,4,,,66,51
555840,set_tempo,240,1,0,,,,,,659340,,,,,,,
556200,note_off,360,0,5,,,,,,,,,5,,,62,0
556200,note_off,360,0,4,,,,,,,,,4,,,66,0
556920,note_on,0,0,1,,,,,,,,,1,,,83,49
556920,note_off,1080,0,1,,,,,,,,,1,,,81,0
557040,note_off,120,0,1,,,,,,,,,1,,,83,0
557040,note_on,0,0,1,,,,,,,,,1,,,81,48
557160,note_off,120,0,1,,,,,,,,,1,,,81,0
557160,note_on,0,0,1,,,,,,,,,1,,,80,47
557280,note_off,120,0,1,,,,,,,,,1,,,80,0
557280,note_on,0,0,1,,,,,,,,,1,,,81,45
557400,note_off,120,0,1,,,,,,,,,1,,,81,0
557400,note_on,0,0,1,,,,,,,,,1,,,86,44
557520,note_off,120,0,1,,,,,,,,,1,,,86,0
557520,note_on,0,0,1,,,,,,,,,1,,,85,42
557640,note_on,0,0,1,,,,,,,,,1,,,88,41
557640,note_off,120,0,1,,,,,,,,,1,,,85,0
557760,note_on,0,0,1,,,,,,,,,1,,,86,40
557760,note_off,120,0,1,,,,,,,,,1,,,88,0
558120,note_off,360,0,1,,,,,,,,,1,,,86,0
558600,set_tempo,2760,1,0,,,,,,666666,,,,,,,
558720,note_on,2520,0,5,,,,,,,,,5,,,62,47
558720,note_on,600,0,1,,,,,,,,,1,,,78,47
558720,set_tempo,120,1,0,,,,,,659340,,,,,,,
558720,note_on,2520,0,4,,,,,,,,,4,,,69,47
559080,note_off,360,0,5,,,,,,,,,5,,,62,0
559080,note_off,360,0,4,,,,,,,,,4,,,69,0
559800,note_on,0,0,1,,,,,,,,,1,,,79,45
559800,note_off,1080,0,1,,,,,,,,,1,,,78,0
559920,note_on,0,0,1,,,,,,,,,1,,,78,44
559920,note_off,120,0,1,,,,,,,,,1,,,79,0
560040,note_on,0,0,1,,,,,,,,,1,,,76,43
560040,note_off,120,0,1,,,,,,,,,1,,,78,0
560160,note_on,0,0,1,,,,,,,,,1,,,78,42
560160,note_off,120,0,1,,,,,,,,,1,,,76,0
560280,note_on,0,0,1,,,,,,,,,1,,,81,41
560280,note_off,120,0,1,,,,,,,,,1,,,78,0
560400,note_off,120,0,1,,,,,,,,,1,,,81,0
560400,note_on,0,0,1,,,,,,,,,1,,,79,40
560520,note_off,120,0,1,,,,,,,,,1,,,79,0
560520,note_on,0,0,1,,,,,,,,,1,,,83,39
560640,note_off,120,0,1,,,,,,,,,1,,,83,0
560640,note_on,0,0,1,,,,,,,,,1,,,81,37
561000,note_off,360,0,1,,,,,,,,,1,,,81,0
561480,set_tempo,2760,1,0,,,,,,666666,,,,,,,
561600,note_on,2520,0,5,,,,,,,,,5,,,57,42
561600,set_tempo,120,1,0,,,,,,659340,,,,,,,
561600,note_on,600,0,1,,,,,,,,,1,,,74,42
561600,note_on,2520,0,4,,,,,,,,,4,,,66,42
562320,note_off,720,0,1,,,,,,,,,1,,,74,0
562320,note_off,720,0,4,,,,,,,,,4,,,66,0
562320,note_off,720,0,5,,,,,,,,,5,,,57,0
562560,note_on,240,0,1,,,,,,,,,1,,,74,41
562560,note_on,240,0,4,,,,,,,,,4,,,66,41
562560,note_on,240,0,5,,,,,,,,,5,,,57,41
562920,note_off,360,0,4,,,,,,,,,4,,,66,0
562920,note_off,360,0,1,,,,,,,,,1,,,74,0
562920,note_off,360,0,5,,,,,,,,,5,,,57,0
563040,note_on,120,0,1,,,,,,,,,1,,,74,40
563040,note_on,120,0,4,,,,,,,,,4,,,66,40
563040,note_on,120,0,5,,,,,,,,,5,,,57,40
563400,note_off,360,0,4,,,,,,,,,4,,,66,0
563400,note_on,0,0,1,,,,,,,,,1,,,78,40
563400,note_off,360,0,5,,,,,,,,,5,,,57,0
563400,note_off,360,0,1,,,,,,,,,1,,,74,0
563520,note_on,120,0,4,,,,,,,,,4,,,67,39
563520,note_on,120,0,5,,,,,,,,,5,,,57,39
563520,note_off,120,0,1,,,,,,,,,1,,,78,0
563520,note_on,0,0,1,,,,,,,,,1,,,76,39
563880,note_off,360,0,4,,,,,,,,,4,,,67,0
563880,note_off,360,0,1,,,,,,,,,1,,,76,0
563880,note_on,0,0,1,,,,,,,,,1,,,74,39
563880,note_off,360,0,5,,,,,,,,,5,,,57,0
564000,note_on,120,0,5,,,,,,,,,5,,,57,39
564000,note_on,0,0,1,,,,,,,,,1,,,76,39
564000,note_on,120,0,4,,,,,,,,,4,,,67,39
564000,note_off,120,0,1,,,,,,,,,1,,,74,0
564360,note_off,360,0,1,,,,,,,,,1,,,76,0
564360,note_off,360,0,5,,,,,,,,,5,,,57,0
564360,set_tempo,2760,1,0,,,,,,666666,,,,,,,
564360,note_on,0,0,1,,,,,,,,,1,,,78,38
564360,note_off,360,0,4,,,,,,,,,4,,,67,0
564480,note_off,120,0,1,,,,,,,,,1,,,78,0
564480,note_on,0,0,1,,,,,,,,,1,,,74,40
564480,note_on,120,0,5,,,,,,,,,5,,,62,40
564480,note_on,120,0,4,,,,,,,,,4,,,66,40
564672,note_off,192,0,1,,,,,,,,,1,,,74,0
564705,set_tempo,345,1,0,,,,,,659340,,,,,,,
564720,note_on,48,0,1,,,,,,,,,1,,,62,36
564840,note_on,0,0,1,,,,,,,,,1,,,66,36
564840,note_off,120,0,1,,,,,,,,,1,,,62,0
564840,note_off,360,0,4,,,,,,,,,4,,,66,0
564840,note_off,360,0,5,,,,,,,,,5,,,62,0
564960,note_on,0,0,1,,,,,,,,,1,,,64,37
564960,note_off,120,0,1,,,,,,,,,1,,,66,0
565080,note_on,0,0,1,,,,,,,,,1,,,67,38
565080,note_off,120,0,1,,,,,,,,,1,,,64,0
565200,note_on,0,0,1,,,,,,,,,1,,,66,38
565200,note_off,120,0,1,,,,,,,,,1,,,67,0
565320,note_off,120,0,1,,,,,,,,,1,,,66,0
565320,note_on,0,0,1,,,,,,,,,1,,,69,39
565440,note_off,120,0,1,,,,,,,,,1,,,69,0
565440,note_on,0,0,1,,,,,,,,,1,,,67,40
565560,note_off,120,0,1,,,,,,,,,1,,,67,0
565560,note_on,0,0,1,,,,,,,,,1,,,71,40
565680,note_on,0,0,1,,,,,,,,,1,,,69,41
565680,note_off,120,0,1,,,,,,,,,1,,,71,0
565800,note_on,0,0,1,,,,,,,,,1,,,73,42
565800,note_off,120,0,1,,,,,,,,,1,,,69,0
565920,note_on,0,0,1,,,,,,,,,1,,,71,43
565920,note_off,120,0,1,,,,,,,,,1,,,73,0
566040,note_on,0,0,1,,,,,,,,,1,,,74,43
566040,note_off,120,0,1,,,,,,,,,1,,,71,0
566160,note_off,120,0,1,,,,,,,,,1,,,74,0
566160,note_on,0,0,1,,,,,,,,,1,,,73,44
566280,note_on,0,0,1,,,,,,,,,1,,,76,45
566280,note_off,120,0,1,,,,,,,,,1,,,73,0
566400,note_on,0,0,1,,,,,,,,,1,,,74,46
566400,note_off,120,0,1,,,,,,,,,1,,,76,0
566520,note_off,120,0,1,,,,,,,,,1,,,74,0
566520,note_on,0,0,1,,,,,,,,,1,,,78,46
566640,note_on,0,0,1,,,,,,,,,1,,,76,47
566640,note_off,120,0,1,,,,,,,,,1,,,78,0
566760,note_off,120,0,1,,,,,,,,,1,,,76,0
566760,note_on,0,0,1,,,,,,,,,1,,,79,48
566880,note_off,120,0,1,,,,,,,,,1,,,79,0
566880,note_on,0,0,1,,,,,,,,,1,,,78,49
567000,note_on,0,0,1,,,,,,,,,1,,,81,49
567000,note_off,120,0,1,,,,,,,,,1,,,78,0
567120,note_on,0,0,1,,,,,,,,,1,,,79,50
567120,note_off,120,0,1,,,,,,,,,1,,,81,0
567240,note_on,0,0,1,,,,,,,,,1,,,83,51
567240,note_off,120,0,1,,,,,,,,,1,,,79,0
567240,set_tempo,2535,1,0,,,,,,666666,,,,,,,
567336,note_off,96,0,1,,,,,,,,,1,,,83,0
567360,note_on,24,0,1,,,,,,,,,1,,,81,54
567360,set_tempo,120,1,0,,,,,,659340,,,,,,,
567840,note_on,3000,0,4,,,,,,,,,4,,,66,51
567840,note_on,3000,0,5,,,,,,,,,5,,,62,51
568200,note_off,360,0,4,,,,,,,,,4,,,66,0
568200,note_off,360,0,5,,,,,,,,,5,,,62,0
568320,note_on,120,0,4,,,,,,,,,4,,,66,50
568320,note_on,120,0,5,,,,,,,,,5,,,62,50
568560,note_off,1200,0,1,,,,,,,,,1,,,81,0
568560,note_on,0,0,1,,,,,,,,,1,,,83,48
568680,note_off,360,0,4,,,,,,,,,4,,,66,0
568680,note_off,360,0,5,,,,,,,,,5,,,62,0
568800,note_on,0,0,1,,,,,,,,,1,,,85,49
568800,note_off,240,0,1,,,,,,,,,1,,,83,0
569040,note_on,0,0,1,,,,,,,,,1,,,86,50
569040,note_off,240,0,1,,,,,,,,,1,,,85,0
569280,note_on,0,0,1,,,,,,,,,1,,,88,51
569280,note_off,240,0,1,,,,,,,,,1,,,86,0
569520,note_on,0,0,1,,,,,,,,,1,,,86,50
569520,note_off,240,0,1,,,,,,,,,1,,,88,0
569760,note_on,0,0,1,,,,,,,,,1,,,85,49
569760,note_off,240,0,1,,,,,,,,,1,,,86,0
570000,note_off,240,0,1,,,,,,,,,1,,,85,0
570000,note_on,0,0,1,,,,,,,,,1,,,86,48
570120,set_tempo,2760,1,0,,,,,,666666,,,,,,,
570192,note_off,192,0,1,,,,,,,,,1,,,86,0
570240,set_tempo,120,1,0,,,,,,659340,,,,,,,
570240,note_on,48,0,1,,,,,,,,,1,,,78,48
570720,note_on,2040,0,4,,,,,,,,,4,,,69,47
570720,note_on,2040,0,5,,,,,,,,,5,,,62,47
571080,note_off,360,0,5,,,,,,,,,5,,,62,0
571080,note_off,360,0,4,,,,,,,,,4,,,69,0
571200,note_on,120,0,4,,,,,,,,,4,,,69,47
571200,note_on,120,0,5,,,,,,,,,5,,,62,47
571440,note_off,1200,0,1,,,,,,,,,1,,,78,0
571440,note_on,0,0,1,,,,,,,,,1,,,79,44
571560,note_off,360,0,5,,,,,,,,,5,,,62,0
571560,note_off,360,0,4,,,,,,,,,4,,,69,0
571680,note_off,240,0,1,,,,,,,,,1,,,79,0
571680,note_on,0,0,1,,,,,,,,,1,,,80,45
571920,note_on,0,0,1,,,,,,,,,1,,,81,46
571920,note_off,240,0,1,,,,,,,,,1,,,80,0
572160,note_on,0,0,1,,,,,,,,,1,,,83,47
572160,note_off,240,0,1,,,,,,,,,1,,,81,0
572400,note_off,240,0,1,,,,,,,,,1,,,83,0
572400,note_on,0,0,1,,,,,,,,,1,,,81,46
572640,note_on,0,0,1,,,,,,,,,1,,,80,44
572640,note_off,240,0,1,,,,,,,,,1,,,81,0
572880,note_on,0,0,1,,,,,,,,,1,,,81,42
572880,note_off,240,0,1,,,,,,,,,1,,,80,0
573000,set_tempo,2760,1,0,,,,,,666666,,,,,,,
573072,note_off,192,0,1,,,,,,,,,1,,,81,0
573120,note_on,48,0,1,,,,,,,,,1,,,81,55
573120,note_on,1560,0,5,,,,,,,,,5,,,57,45
573120,note_on,1560,0,4,,,,,,,,,4,,,66,45
573120,set_tempo,120,1,0,,,,,,659340,,,,,,,
573840,note_off,720,0,1,,,,,,,,,1,,,81,0
573840,note_on,0,0,1,,,,,,,,,1,,,78,44
573840,note_off,720,0,5,,,,,,,,,5,,,57,0
573840,note_off,720,0,4,,,,,,,,,4,,,66,0
574032,note_off,192,0,1,,,,,,,,,1,,,78,0
574080,note_on,48,0,1,,,,,,,,,1,,,74,43
574080,note_on,240,0,5,,,,,,,,,5,,,57,43
574080,note_on,240,0,4,,,,,,,,,4,,,66,43
574440,note_off,360,0,4,,,,,,,,,4,,,66,0
574447,note_off,367,0,1,,,,,,,,,1,,,74,0
574560,note_on,113,0,1,,,,,,,,,1,,,74,43
574560,note_on,120,0,4,,,,,,,,,4,,,66,43
574912,note_off,352,0,1,,,,,,,,,1,,,74,0
574920,note_off,360,0,4,,,,,,,,,4,,,66,0
574920,note_on,8,0,1,,,,,,,,,1,,,78,42
575040,note_on,0,0,1,,,,,,,,,1,,,76,42
575040,note_on,120,0,4,,,,,,,,,4,,,67,42
575040,note_off,120,0,1,,,,,,,,,1,,,78,0
575400,note_off,360,0,4,,,,,,,,,4,,,67,0
575400,note_on,0,0,1,,,,,,,,,1,,,74,42
575400,note_off,360,0,1,,,,,,,,,1,,,76,0
575520,note_off,120,0,1,,,,,,,,,1,,,74,0
575520,note_on,120,0,4,,,,,,,,,4,,,67,42
575520,note_on,0,0,1,,,,,,,,,1,,,76,42
575880,note_on,0,0,1,,,,,,,,,1,,,78,41
575880,set_tempo,2760,1,0,,,,,,666666,,,,,,,
575880,note_off,1800,0,5,,,,,,,,,5,,,57,0
575880,note_off,360,0,4,,,,,,,,,4,,,67,0
575880,note_off,360,0,1,,,,,,,,,1,,,76,0
576000,note_off,120,0,1,,,,,,,,,1,,,78,0
576000,note_on,0,0,1,,,,,,,,,1,,,76,41
576000,set_tempo,120,1,0,,,,,,659340,,,,,,,
576000,note_on,120,0,5,,,,,,,,,5,,,62,41
576000,note_on,120,0,4,,,,,,,,,4,,,67,41
576960,note_off,960,0,4,,,,,,,,,4,,,67,0
576960,note_off,960,0,1,,,,,,,,,1,,,76,0
576960,note_on,0,0,1,,,,,,,,,1,,,74,34
576960,note_on,0,0,4,,,,,,,,,4,,,66,35
577320,note_off,360,0,4,,,,,,,,,4,,,66,0
577320,note_off,360,0,1,,,,,,,,,1,,,74,0
577320,note_off,1320,0,5,,,,,,,,,5,,,62,0
577440,note_on,120,0,5,,,,,,,,,5,,,56,52
577680,note_on,0,0,5,,,,,,,,,5,,,57,45
577680,note_off,240,0,5,,,,,,,,,5,,,56,0
577800,note_off,120,0,5,,,,,,,,,5,,,57,0
577920,note_on,120,0,5,,,,,,,,,5,,,53,56
578160,note_on,0,0,5,,,,,,,,,5,,,54,50
578160,note_off,240,0,5,,,,,,,,,5,,,53,0
578280,note_off,120,0,5,,,,,,,,,5,,,54,0
578400,note_on,120,0,5,,,,,,,,,5,,,49,61
578640,note_on,0,0,5,,,,,,,,,5,,,50,54
578640,note_off,240,0,5,,,,,,,,,5,,,49,0
578760,note_off,120,0,5,,,,,,,,,5,,,50,0
578760,set_tempo,2760,1,0,,,,,,666666,,,,,,,
578880,note_on,1560,0,1,,,,,,,,,1,,,76,63
578880,note_on,120,0,5,,,,,,,,,5,,,45,68
578880,set_tempo,120,1,0,,,,,,659340,,,,,,,
579360,note_on,0,0,4,,,,,,,,,4,,,57,63
579360,note_on,2040,0,4,,,,,,,,,4,,,61,63
579720,note_off,360,0,4,,,,,,,,,4,,,57,0
579720,note_off,0,0,4,,,,,,,,,4,,,61,0
579840,note_on,0,0,4,,,,,,,,,4,,,61,62
579840,note_on,120,0,4,,,,,,,,,4,,,57,62
580032,note_off,1152,0,1,,,,,,,,,1,,,76,0
580080,note_on,48,0,1,,,,,,,,,1,,,78,61
580140,note_off,60,0,1,,,,,,,,,1,,,78,0
580140,note_on,0,0,1,,,,,,,,,1,,,76,61
580200,note_on,0,0,1,,,,,,,,,1,,,75,62
580200,note_off,360,0,4,,,,,,,,,4,,,61,0
580200,note_off,0,0,4,,,,,,,,,4,,,57,0
580200,note_off,60,0,1,,,,,,,,,1,,,76,0
580260,note_on,0,0,1,,,,,,,,,1,,,76,63
580260,note_off,60,0,1,,,,,,,,,1,,,75,0
580320,note_on,0,0,4,,,,,,,,,4,,,61,62
580320,note_on,120,0,4,,,,,,,,,4,,,57,62
580320,note_on,0,0,1,,,,,,,,,1,,,79,64
580320,note_off,60,0,1,,,,,,,,,1,,,76,0
580560,note_on,0,0,1,,,,,,,,,1,,,78,61
580560,note_off,240,0,1,,,,,,,,,1,,,79,0
580680,note_off,0,0,4,,,,,,,,,4,,,57,0
580680,note_off,360,0,4,,,,,,,,,4,,,61,0
580752,note_off,192,0,1,,,,,,,,,1,,,78,0
580800,note_on,48,0,1,,,,,,,,,1,,,78,61
580800,note_on,120,0,4,,,,,,,,,4,,,57,61
580800,note_on,0,0,4,,,,,,,,,4,,,62,61
581032,note_off,232,0,1,,,,,,,,,1,,,78,0
581040,note_on,8,0,1,,,,,,,,,1,,,79,60
581100,note_on,0,0,1,,,,,,,,,1,,,78,61
581100,note_off,60,0,1,,,,,,,,,1,,,79,0
581160,note_off,60,0,1,,,,,,,,,1,,,78,0
581160,note_off,0,0,4,,,,,,,,,4,,,57,0
581160,note_off,360,0,4,,,,,,,,,4,,,62,0
581160,note_on,0,0,1,,,,,,,,,1,,,77,61
581220,note_on,0,0,1,,,,,,,,,1,,,78,62
581220,note_off,60,0,1,,,,,,,,,1,,,77,0
581280,note_on,0,0,1,,,,,,,,,1,,,81,62
581280,note_on,0,0,4,,,,,,,,,4,,,62,60
581280,note_on,120,0,4,,,,,,,,,4,,,57,60
581280,note_off,60,0,1,,,,,,,,,1,,,78,0
581520,note_on,240,0,1,,,,,,,,,1,,,79,60
581527,note_off,7,0,1,,,,,,,,,1,,,81,0
581640,set_tempo,2760,1,0,,,,,,666666,,,,,,,
581640,note_off,360,0,4,,,,,,,,,4,,,62,0
581640,note_off,0,0,4,,,,,,,,,4,,,57,0
581647,note_off,2767,0,5,,,,,,,,,5,,,45,0
581760,note_on,0,0,1,,,,,,,,,1,,,79,60
581760,note_off,233,0,1,,,,,,,,,1,,,79,0
581760,set_tempo,120,1,0,,,,,,659340,,,,,,,
581760,note_on,120,0,4,,,,,,,,,4,,,64,60
581760,note_on,0,0,4,,,,,,,,,4,,,57,60
582120,note_off,0,0,4,,,,,,,,,4,,,64,0
582120,note_off,360,0,4,,,,,,,,,4,,,57,0
582120,note_off,360,0,1,,,,,,,,,1,,,79,0
582640,note_on,520,0,1,,,,,,,,,1,,,57,50
582760,note_off,120,0,1,,,,,,,,,1,,,57,0
582760,note_on,0,0,1,,,,,,,,,1,,,59,51
582880,note_on,0,0,1,,,,,,,,,1,,,61,51
582880,note_off,120,0,1,,,,,,,,,1,,,59,0
583000,note_off,120,0,1,,,,,,,,,1,,,61,0
583000,note_on,0,0,1,,,,,,,,,1,,,62,52
583120,note_on,0,0,1,,,,,,,,,1,,,64,53
583120,note_off,120,0,1,,,,,,,,,1,,,62,0
583240,note_on,0,0,1,,,,,,,,,1,,,66,54
583240,note_off,120,0,1,,,,,,,,,1,,,64,0
583360,note_on,0,0,1,,,,,,,,,1,,,68,54
583360,note_off,120,0,1,,,,,,,,,1,,,66,0
583480,note_off,120,0,1,,,,,,,,,1,,,68,0
583480,note_on,0,0,1,,,,,,,,,1,,,69,55
583540,note_on,0,0,1,,,,,,,,,1,,,71,55
583540,note_off,60,0,1,,,,,,,,,1,,,69,0
583600,note_on,0,0,1,,,,,,,,,1,,,73,56
583600,note_off,60,0,1,,,,,,,,,1,,,71,0
583660,note_on,0,0,1,,,,,,,,,1,,,74,56
583660,note_off,60,0,1,,,,,,,,,1,,,73,0
583720,note_off,60,0,1,,,,,,,,,1,,,74,0
583720,note_on,0,0,1,,,,,,,,,1,,,76,56
583780,note_on,0,0,1,,,,,,,,,1,,,78,57
583780,note_off,60,0,1,,,,,,,,,1,,,76,0
583840,note_off,60,0,1,,,,,,,,,1,,,78,0
583840,note_on,0,0,1,,,,,,,,,1,,,80,57
583900,note_off,60,0,1,,,,,,,,,1,,,80,0
583900,note_on,0,0,1,,,,,,,,,1,,,81,57
583960,note_off,60,0,1,,,,,,,,,1,,,81,0
583960,note_on,0,0,1,,,,,,,,,1,,,83,58
584020,note_off,60,0,1,,,,,,,,,1,,,83,0
584020,note_on,0,0,1,,,,,,,,,1,,,85,58
584080,note_on,0,0,1,,,,,,,,,1,,,86,58
584080,note_off,60,0,1,,,,,,,,,1,,,85,0
584140,note_off,60,0,1,,,,,,,,,1,,,86,0
584140,note_on,0,0,1,,,,,,,,,1,,,88,59
584220,note_on,0,0,1,,,,,,,,,1,,,86,59
584220,note_off,80,0,1,,,,,,,,,1,,,88,0
584300,note_off,80,0,1,,,,,,,,,1,,,86,0
584320,note_on,20,0,1,,,,,,,,,1,,,85,60
584380,note_on,60,0,1,,,,,,,,,1,,,83,60
584400,note_off,20,0,1,,,,,,,,,1,,,85,0
584460,note_off,60,0,1,,,,,,,,,1,,,83,0
584460,note_on,0,0,1,,,,,,,,,1,,,81,61
584540,note_off,80,0,1,,,,,,,,,1,,,81,0
584540,note_on,0,0,1,,,,,,,,,1,,,79,61
584580,set_tempo,2820,1,0,,,,,,674157,,,,,,,
584620,note_off,80,0,1,,,,,,,,,1,,,79,0
584640,set_tempo,60,1,0,,,,,,659340,,,,,,,
584640,note_on,20,0,1,,,,,,,,,1,,,78,65
584640,note_on,2993,0,5,,,,,,,,,5,,,50,65
585120,note_on,3000,0,4,,,,,,,,,4,,,62,65
585480,note_off,360,0,4,,,,,,,,,4,,,62,0
585600,note_on,120,0,4,,,,,,,,,4,,,62,64
585600,note_on,0,0,4,,,,,,,,,4,,,66,64
585760,note_off,1120,0,1,,,,,,,,,1,,,78,0
585760,note_on,0,0,1,,,,,,,,,1,,,74,64
585920,note_on,0,0,1,,,,,,,,,1,,,76,64
585920,note_off,160,0,1,,,,,,,,,1,,,74,0
585960,note_off,0,0,4,,,,,,,,,4,,,62,0
585960,note_off,360,0,4,,,,,,,,,4,,,66,0
586080,note_on,0,0,1,,,,,,,,,1,,,78,63
586080,note_off,160,0,1,,,,,,,,,1,,,76,0
586080,note_on,0,0,4,,,,,,,,,4,,,66,63
586080,note_on,120,0,4,,,,,,,,,4,,,62,63
586240,note_off,160,0,1,,,,,,,,,1,,,78,0
586240,note_on,0,0,1,,,,,,,,,1,,,79,63
586400,note_on,0,0,1,,,,,,,,,1,,,81,63
586400,note_off,160,0,1,,,,,,,,,1,,,79,0
586440,note_off,360,0,4,,,,,,,,,4,,,66,0
586440,note_off,0,0,4,,,,,,,,,4,,,62,0
586560,note_on,0,0,4,,,,,,,,,4,,,62,63
586560,note_on,0,0,4,,,,,,,,,4,,,67,63
586560,note_on,120,0,4,,,,,,,,,4,,,64,63
586560,note_off,160,0,1,,,,,,,,,1,,,81,0
586560,note_on,0,0,1,,,,,,,,,1,,,79,63
586720,note_off,160,0,1,,,,,,,,,1,,,79,0
586720,note_on,0,0,1,,,,,,,,,1,,,76,62
586880,note_off,160,0,1,,,,,,,,,1,,,76,0
586880,note_on,0,0,1,,,,,,,,,1,,,78,62
586920,note_off,360,0,4,,,,,,,,,4,,,62,0
586920,note_off,0,0,4,,,,,,,,,4,,,64,0
586920,note_off,0,0,4,,,,,,,,,4,,,67,0
587040,note_off,160,0,1,,,,,,,,,1,,,78,0
587040,note_on,0,0,1,,,,,,,,,1,,,79,62
587040,note_on,120,0,4,,,,,,,,,4,,,64,62
587040,note_on,0,0,4,,,,,,,,,4,,,62,62
587040,note_on,0,0,4,,,,,,,,,4,,,67,62
587200,note_off,160,0,1,,,,,,,,,1,,,79,0
587200,note_on,0,0,1,,,,,,,,,1,,,81,62
587349,note_off,2709,0,5,,,,,,,,,5,,,50,0
587360,note_off,160,0,1,,,,,,,,,1,,,81,0
587360,note_on,0,0,1,,,,,,,,,1,,,83,61
587400,set_tempo,2760,1,0,,,,,,666666,,,,,,,
587400,note_off,360,0,4,,,,,,,,,4,,,67,0
587400,note_off,0,0,4,,,,,,,,,4,,,62,0
587400,note_off,0,0,4,,,,,,,,,4,,,64,0
587520,note_on,120,0,4,,,,,,,,,4,,,62,61
587520,note_on,0,0,1,,,,,,,,,1,,,81,61
587520,note_on,0,0,4,,,,,,,,,4,,,66,61
587520,note_on,0,0,4,,,,,,,,,4,,,69,61
587520,set_tempo,120,1,0,,,,,,659340,,,,,,,
587520,note_off,160,0,1,,,,,,,,,1,,,83,0
587880,note_off,0,0,4,,,,,,,,,4,,,69,0
587880,note_off,360,0,4,,,,,,,,,4,,,66,0
587880,note_off,0,0,4,,,,,,,,,4,,,62,0
587880,note_off,360,0,1,,,,,,,,,1,,,81,0
588000,note_on,120,0,1,,,,,,,,,1,,,62,68
588480,note_on,480,0,1,,,,,,,,,1,,,50,69
588840,note_off,360,0,1,,,,,,,,,1,,,62,0
588840,note_on,0,0,1,,,,,,,,,1,,,64,54
588900,note_off,60,0,1,,,,,,,,,1,,,64,0
588900,note_on,0,0,1,,,,,,,,,1,,,62,54
588960,note_off,60,0,1,,,,,,,,,1,,,62,0
588960,note_on,0,0,1,,,,,,,,,1,,,61,54
589020,note_off,60,0,1,,,,,,,,,1,,,61,0
589020,note_on,0,0,1,,,,,,,,,1,,,62,55
589080,note_off,60,0,1,,,,,,,,,1,,,62,0
589080,note_on,0,0,1,,,,,,,,,1,,,64,55
589140,note_on,0,0,1,,,,,,,,,1,,,66,56
589140,note_off,60,0,1,,,,,,,,,1,,,64,0
589200,note_off,60,0,1,,,,,,,,,1,,,66,0
589200,note_off,0,0,1,,,,,,,,,1,,,50,0
589200,note_on,0,0,1,,,,,,,,,1,,,67,56
589260,note_off,60,0,1,,,,,,,,,1,,,67,0
589260,note_on,0,0,1,,,,,,,,,1,,,69,56
589320,note_off,60,0,1,,,,,,,,,1,,,69,0
589320,note_on,0,0,1,,,,,,,,,1,,,71,57
589380,note_on,0,0,1,,,,,,,,,1,,,73,57
589380,note_off,60,0,1,,,,,,,,,1,,,71,0
589440,note_off,60,0,1,,,,,,,,,1,,,73,0
589440,note_on,0,0,1,,,,,,,,,1,,,74,58
589500,note_off,60,0,1,,,,,,,,,1,,,74,0
589500,note_on,0,0,1,,,,,,,,,1,,,76,58
589560,note_on,0,0,1,,,,,,,,,1,,,78,58
589560,note_off,60,0,1,,,,,,,,,1,,,76,0
589620,note_off,60,0,1,,,,,,,,,1,,,78,0
589620,note_on,0,0,1,,,,,,,,,1,,,79,59
589680,note_off,60,0,1,,,,,,,,,1,,,79,0
589680,note_on,0,0,1,,,,,,,,,1,,,81,59
589740,note_off,60,0,1,,,,,,,,,1,,,81,0
589740,note_on,0,0,1,,,,,,,,,1,,,83,59
589800,note_off,60,0,1,,,,,,,,,1,,,83,0
589800,note_on,0,0,1,,,,,,,,,1,,,85,60
589860,note_on,0,0,1,,,,,,,,,1,,,86,60
589860,note_off,60,0,1,,,,,,,,,1,,,85,0
589920,note_off,60,0,1,,,,,,,,,1,,,86,0
589920,note_on,0,0,1,,,,,,,,,1,,,85,61
589980,note_off,60,0,1,,,,,,,,,1,,,85,0
589980,note_on,0,0,1,,,,,,,,,1,,,86,61
590040,note_off,60,0,1,,,,,,,,,1,,,86,0
590040,note_on,0,0,1,,,,,,,,,1,,,85,61
590100,note_on,0,0,1,,,,,,,,,1,,,86,62
590100,note_off,60,0,1,,,,,,,,,1,,,85,0
590160,note_on,0,0,1,,,,,,,,,1,,,88,62
590160,note_off,60,0,1,,,,,,,,,1,,,86,0
590220,note_on,0,0,1,,,,,,,,,1,,,86,62
590220,note_off,60,0,1,,,,,,,,,1,,,88,0
590280,note_off,60,0,1,,,,,,,,,1,,,86,0
590280,note_on,0,0,1,,,,,,,,,1,,,85,63
590340,note_off,60,0,1,,,,,,,,,1,,,85,0
590340,set_tempo,2820,1,0,,,,,,674157,,,,,,,
590340,note_on,0,0,1,,,,,,,,,1,,,83,63
590400,control_change,2520,0,4,,,,,,,64,0,4,,,,
590400,control_change,3051,0,5,,,,,,,64,0,5,,,,
590400,note_on,0,0,5,,,,,,,,,5,,,62,66
590400,control_change,60,0,1,,,,,,,64,0,1,,,,
590400,note_off,0,0,1,,,,,,,,,1,,,83,0
590400,set_tempo,60,1,0,,,,,,659340,,,,,,,
590400,control_change,37728,0,2,,,,,,,64,0,2,,,,
590400,control_change,126720,0,3,,,,,,,64,0,3,,,,
590400,note_on,0,0,1,,,,,,,,,1,,,81,66
590880,note_on,0,0,4,,,,,,,,,4,,,66,66
590880,note_on,480,0,4,,,,,,,,,4,,,69,66
591240,note_off,0,0,4,,,,,,,,,4,,,69,0
591240,note_off,360,0,4,,,,,,,,,4,,,66,0
591360,note_on,120,0,4,,,,,,,,,4,,,66,66
591360,note_on,0,0,4,,,,,,,,,4,,,69,66
591600,note_on,0,0,1,,,,,,,,,1,,,74,62
591600,note_off,1200,0,1,,,,,,,,,1,,,81,0
591720,note_off,360,0,4,,,,,,,,,4,,,69,0
591720,note_off,0,0,4,,,,,,,,,4,,,66,0
591840,note_on,0,0,1,,,,,,,,,1,,,78,63
591840,note_on,120,0,4,,,,,,,,,4,,,66,66
591840,note_on,0,0,4,,,,,,,,,4,,,69,66
591840,note_off,240,0,1,,,,,,,,,1,,,74,0
592080,note_off,240,0,1,,,,,,,,,1,,,78,0
592080,note_on,0,0,1,,,,,,,,,1,,,81,64
592200,note_off,360,0,4,,,,,,,,,4,,,69,0
592200,note_off,0,0,4,,,,,,,,,4,,,66,0
592320,note_on,0,0,1,,,,,,,,,1,,,83,65
592320,note_on,120,0,4,,,,,,,,,4,,,71,67
592320,note_on,0,0,4,,,,,,,,,4,,,67,67
592320,note_off,240,0,1,,,,,,,,,1,,,81,0
592560,note_on,0,0,1,,,,,,,,,1,,,79,66
592560,note_off,240,0,1,,,,,,,,,1,,,83,0
592680,note_off,360,0,4,,,,,,,,,4,,,67,0
592680,note_off,0,0,4,,,,,,,,,4,,,71,0
592800,note_on,120,0,4,,,,,,,,,4,,,71,67
592800,note_on,0,0,4,,,,,,,,,4,,,67,67
592800,note_on,0,0,1,,,,,,,,,1,,,86,67
592800,note_off,240,0,1,,,,,,,,,1,,,79,0
593040,note_on,0,0,1,,,,,,,,,1,,,83,68
593040,note_off,240,0,1,,,,,,,,,1,,,86,0
593160,note_off,360,0,4,,,,,,,,,4,,,67,0
593160,set_tempo,2760,1,0,,,,,,666666,,,,,,,
593160,note_off,0,0,4,,,,,,,,,4,,,71,0
593167,note_off,2767,0,5,,,,,,,,,5,,,62,0
593232,note_off,192,0,1,,,,,,,,,1,,,83,0
593280,note_on,48,0,1,,,,,,,,,1,,,80,70
593280,set_tempo,120,1,0,,,,,,659340,,,,,,,
593280,note_on,113,0,5,,,,,,,,,5,,,62,69
593760,note_off,480,0,1,,,,,,,,,1,,,80,0
593760,note_on,600,0,4,,,,,,,,,4,,,69,63
593760,note_on,0,0,4,,,,,,,,,4,,,66,63
593760,note_on,0,0,1,,,,,,,,,1,,,81,63
594120,note_off,360,0,4,,,,,,,,,4,,,66,0
594120,note_off,0,0,4,,,,,,,,,4,,,69,0
594240,note_on,120,0,4,,,,,,,,,4,,,66,62
594240,note_on,0,0,4,,,,,,,,,4,,,69,62
594320,note_on,0,0,1,,,,,,,,,1,,,74,63
594320,note_off,560,0,1,,,,,,,,,1,,,81,0
594400,note_on,0,0,1,,,,,,,,,1,,,75,63
594400,note_off,80,0,1,,,,,,,,,1,,,74,0
594480,note_off,80,0,1,,,,,,,,,1,,,75,0
594480,note_on,0,0,1,,,,,,,,,1,,,76,63
594560,note_on,0,0,1,,,,,,,,,1,,,77,63
594560,note_off,80,0,1,,,,,,,,,1,,,76,0
594600,note_off,0,0,4,,,,,,,,,4,,,66,0
594600,note_off,360,0,4,,,,,,,,,4,,,69,0
594640,note_off,80,0,1,,,,,,,,,1,,,77,0
594640,note_on,0,0,1,,,,,,,,,1,,,78,63
594720,note_on,120,0,4,,,,,,,,,4,,,66,64
594720,note_on,0,0,4,,,,,,,,,4,,,69,64
594720,note_off,80,0,1,,,,,,,,,1,,,78,0
594720,note_on,0,0,1,,,,,,,,,1,,,79,64
594840,note_off,120,0,1,,,,,,,,,1,,,79,0
594840,note_on,0,0,1,,,,,,,,,1,,,80,64
594960,note_on,0,0,1,,,,,,,,,1,,,81,64
594960,note_off,120,0,1,,,,,,,,,1,,,80,0
595080,note_off,120,0,1,,,,,,,,,1,,,81,0
595080,note_off,0,0,4,,,,,,,,,4,,,66,0
595080,note_off,360,0,4,,,,,,,,,4,,,69,0
595080,note_on,0,0,1,,,,,,,,,1,,,82,65
595200,note_on,0,0,4,,,,,,,,,4,,,67,65
595200,note_on,120,0,4,,,,,,,,,4,,,71,65
595200,note_off,120,0,1,,,,,,,,,1,,,82,0
595200,note_on,0,0,1,,,,,,,,,1,,,83,65
595280,note_off,80,0,1,,,,,,,,,1,,,83,0
595280,note_on,0,0,1,,,,,,,,,1,,,84,65
595360,note_on,0,0,1,,,,,,,,,1,,,85,65
595360,note_off,80,0,1,,,,,,,,,1,,,84,0
595440,note_on,0,0,1,,,,,,,,,1,,,86,65
595440,note_off,80,0,1,,,,,,,,,1,,,85,0
595560,note_on,0,0,1,,,,,,,,,1,,,85,66
595560,note_off,0,0,4,,,,,,,,,4,,,71,0
595560,note_off,120,0,1,,,,,,,,,1,,,86,0
595560,note_off,360,0,4,,,,,,,,,4,,,67,0
595680,note_on,120,0,4,,,,,,,,,4,,,71,66
595680,note_on,0,0,4,,,,,,,,,4,,,67,66
595680,note_on,0,0,1,,,,,,,,,1,,,88,66
595680,note_off,120,0,1,,,,,,,,,1,,,85,0
595800,note_on,0,0,1,,,,,,,,,1,,,86,66
595800,note_off,120,0,1,,,,,,,,,1,,,88,0
595920,note_on,0,0,1,,,,,,,,,1,,,85,67
595920,note_off,120,0,1,,,,,,,,,1,,,86,0
596040,set_tempo,2760,1,0,,,,,,666666,,,,,,,
596040,note_off,120,0,1,,,,,,,,,1,,,85,0
596040,note_on,0,0,1,,,,,,,,,1,,,83,67
596040,note_off,0,0,4,,,,,,,,,4,,,71,0
596040,note_off,360,0,4,,,,,,,,,4,,,67,0
596047,note_off,2767,0,5,,,,,,,,,5,,,62,0
596136,note_off,96,0,1,,,,,,,,,1,,,83,0
596160,set_tempo,120,1,0,,,,,,659340,,,,,,,
596160,note_on,0,0,4,,,,,,,,,4,,,69,67
596160,note_on,24,0,1,,,,,,,,,1,,,83,67
596160,note_on,120,0,4,,,,,,,,,4,,,66,67
596160,note_on,113,0,5,,,,,,,,,5,,,62,67
596280,note_off,120,0,1,,,,,,,,,1,,,83,0
596280,note_on,0,0,1,,,,,,,,,1,,,81,68
596358,note_off,78,0,1,,,,,,,,,1,,,81,0
596400,note_on,42,0,1,,,,,,,,,1,,,86,68
596478,note_off,78,0,1,,,,,,,,,1,,,86,0
596520,note_on,42,0,1,,,,,,,,,1,,,85,68
596520,note_off,0,0,4,,,,,,,,,4,,,66,0
596520,note_off,360,0,4,,,,,,,,,4,,,69,0
596520,note_off,360,0,5,,,,,,,,,5,,,62,0
596598,note_off,78,0,1,,,,,,,,,1,,,85,0
596640,note_on,42,0,1,,,,,,,,,1,,,86,69
596718,note_off,78,0,1,,,,,,,,,1,,,86,0
596760,note_on,42,0,1,,,,,,,,,1,,,85,69
596838,note_off,78,0,1,,,,,,,,,1,,,85,0
596880,note_on,42,0,1,,,,,,,,,1,,,83,69
596958,note_off,78,0,1,,,,,,,,,1,,,83,0
597000,note_on,42,0,1,,,,,,,,,1,,,81,70
597078,note_off,78,0,1,,,,,,,,,1,,,81,0
597120,note_on,42,0,1,,,,,,,,,1,,,81,70
597120,note_on,600,0,4,,,,,,,,,4,,,69,70
597120,note_on,600,0,5,,,,,,,,,5,,,61,70
597240,note_on,0,0,1,,,,,,,,,1,,,79,70
597240,note_off,120,0,1,,,,,,,,,1,,,81,0
597318,note_off,78,0,1,,,,,,,,,1,,,79,0
597360,note_on,42,0,1,,,,,,,,,1,,,88,71
597438,note_off,78,0,1,,,,,,,,,1,,,88,0
597480,note_off,360,0,4,,,,,,,,,4,,,69,0
597480,note_on,42,0,1,,,,,,,,,1,,,86,71
597480,note_off,360,0,5,,,,,,,,,5,,,61,0
597558,note_off,78,0,1,,,,,,,,,1,,,86,0
597600,note_on,42,0,1,,,,,,,,,1,,,85,71
597678,note_off,78,0,1,,,,,,,,,1,,,85,0
597720,note_on,42,0,1,,,,,,,,,1,,,83,71
597798,note_off,78,0,1,,,,,,,,,1,,,83,0
597840,note_on,42,0,1,,,,,,,,,1,,,81,72
597918,note_off,78,0,1,,,,,,,,,1,,,81,0
597960,note_on,42,0,1,,,,,,,,,1,,,79,72
598038,note_off,78,0,1,,,,,,,,,1,,,79,0
598080,control_change,7680,0,3,,,,,,,64,0,3,,,,
598080,control_change,7680,0,2,,,,,,,64,0,2,,,,
598080,note_on,0,0,1,,,,,,,,,1,,,79,72
598080,note_on,0,0,5,,,,,,,,,5,,,62,72
598080,control_change,600,0,5,,,,,,,64,0,5,,,,
598080,control_change,600,0,4,,,,,,,64,0,4,,,,
598080,note_on,0,0,4,,,,,,,,,4,,,69,72
598080,control_change,42,0,1,,,,,,,64,0,1,,,,
598200,note_off,120,0,1,,,,,,,,,1,,,79,0
598200,note_on,0,0,1,,,,,,,,,1,,,78,73
598278,note_off,78,0,1,,,,,,,,,1,,,78,0
598320,note_on,42,0,1,,,,,,,,,1,,,86,73
598398,note_off,78,0,1,,,,,,,,,1,,,86,0
598440,note_off,360,0,4,,,,,,,,,4,,,69,0
598440,note_off,360,0,5,,,,,,,,,5,,,62,0
598440,note_on,42,0,1,,,,,,,,,1,,,85,73
598518,note_off,78,0,1,,,,,,,,,1,,,85,0
598560,note_on,42,0,1,,,,,,,,,1,,,83,74
598638,note_off,78,0,1,,,,,,,,,1,,,83,0
598680,note_on,42,0,1,,,,,,,,,1,,,81,74
598758,note_off,78,0,1,,,,,,,,,1,,,81,0
598800,note_on,42,0,1,,,,,,,,,1,,,79,74
598878,note_off,78,0,1,,,,,,,,,1,,,79,0
598920,note_on,42,0,1,,,,,,,,,1,,,78,75
598920,set_tempo,2760,1,0,,,,,,666666,,,,,,,
598998,note_off,78,0,1,,,,,,,,,1,,,78,0
599040,note_on,600,0,5,,,,,,,,,5,,,57,77
599040,set_tempo,120,1,0,,,,,,659340,,,,,,,
599040,note_on,600,0,4,,,,,,,,,4,,,66,77
599040,note_on,42,0,1,,,,,,,,,1,,,81,77
600240,note_off,1200,0,1,,,,,,,,,1,,,81,0
600240,note_on,0,0,1,,,,,,,,,1,,,80,65
600360,note_off,120,0,1,,,,,,,,,1,,,80,0
600360,note_on,0,0,1,,,,,,,,,1,,,81,63
600480,note_off,120,0,1,,,,,,,,,1,,,81,0
600480,note_on,0,0,1,,,,,,,,,1,,,83,62
600600,note_on,0,0,1,,,,,,,,,1,,,81,61
600600,note_off,120,0,1,,,,,,,,,1,,,83,0
600720,note_on,0,0,1,,,,,,,,,1,,,79,60
600720,note_on,1680,0,4,,,,,,,,,4,,,62,60
600720,note_off,120,0,1,,,,,,,,,1,,,81,0
600735,note_off,15,0,4,,,,,,,,,4,,,66,0
600840,note_off,120,0,1,,,,,,,,,1,,,79,0
600840,note_on,0,0,1,,,,,,,,,1,,,78,59
600960,note_off,120,0,1,,,,,,,,,1,,,78,0
600960,note_on,0,0,1,,,,,,,,,1,,,76,58
600960,note_on,0,0,4,,,,,,,,,4,,,61,56
600960,note_off,225,0,4,,,,,,,,,4,,,62,0
601080,set_tempo,2040,1,0,,,,,,666666,,,,,,,
601152,note_off,192,0,1,,,,,,,,,1,,,76,0
601200,note_on,48,0,1,,,,,,,,,1,,,78,55
601320,note_off,2280,0,5,,,,,,,,,5,,,57,0
601320,note_off,360,0,4,,,,,,,,,4,,,61,0
601392,note_off,192,0,1,,,,,,,,,1,,,78,0
601440,note_on,48,0,1,,,,,,,,,1,,,79,53
601632,note_off,192,0,1,,,,,,,,,1,,,79,0
601680,note_on,48,0,1,,,,,,,,,1,,,80,50
601800,set_tempo,720,1,0,,,,,,689655,,,,,,,
601872,note_off,192,0,1,,,,,,,,,1,,,80,0
601920,set_tempo,120,1,0,,,,,,659340,,,,,,,
601920,note_on,48,0,1,,,,,,,,,1,,,81,54
602400,note_on,1080,0,4,,,,,,,,,4,,,66,53
602400,note_on,1080,0,5,,,,,,,,,5,,,62,53
602760,note_off,360,0,4,,,,,,,,,4,,,66,0
602760,note_off,360,0,5,,,,,,,,,5,,,62,0
602880,note_on,120,0,4,,,,,,,,,4,,,66,53
602880,note_on,120,0,5,,,,,,,,,5,,,62,53
603040,note_off,1120,0,1,,,,,,,,,1,,,81,0
603040,note_on,0,0,1,,,,,,,,,1,,,82,53
603200,note_off,160,0,1,,,,,,,,,1,,,82,0
603200,note_on,0,0,1,,,,,,,,,1,,,83,52
603240,note_off,360,0,4,,,,,,,,,4,,,66,0
603240,note_off,360,0,5,,,,,,,,,5,,,62,0
603360,note_on,0,0,1,,,,,,,,,1,,,84,51
603360,note_off,160,0,1,,,,,,,,,1,,,83,0
603520,note_on,0,0,1,,,,,,,,,1,,,85,51
603520,note_off,160,0,1,,,,,,,,,1,,,84,0
603680,note_on,0,0,1,,,,,,,,,1,,,86,50
603680,note_off,160,0,1,,,,,,,,,1,,,85,0
603840,note_on,0,0,1,,,,,,,,,1,,,88,49
603840,note_off,160,0,1,,,,,,,,,1,,,86,0
604080,note_on,0,0,1,,,,,,,,,1,,,86,48
604080,note_off,240,0,1,,,,,,,,,1,,,88,0
604320,note_off,240,0,1,,,,,,,,,1,,,86,0
604320,note_on,0,0,1,,,,,,,,,1,,,85,47
604560,note_off,240,0,1,,,,,,,,,1,,,85,0
604560,note_on,0,0,1,,,,,,,,,1,,,86,46
604680,set_tempo,2760,1,0,,,,,,666666,,,,,,,
604725,note_off,165,0,1,,,,,,,,,1,,,86,0
604740,note_on,15,0,1,,,,,,,,,1,,,86,48
604800,set_tempo,120,1,0,,,,,,659340,,,,,,,
604800,note_on,0,0,1,,,,,,,,,1,,,78,49
604800,note_off,60,0,1,,,,,,,,,1,,,86,0
605280,note_on,2040,0,4,,,,,,,,,4,,,69,49
605280,note_on,2040,0,5,,,,,,,,,5,,,62,49
605640,note_off,360,0,5,,,,,,,,,5,,,62,0
605640,note_off,360,0,4,,,,,,,,,4,,,69,0
605760,control_change,7680,0,3,,,,,,,64,0,3,,,,
605760,control_change,7680,0,2,,,,,,,64,0,2,,,,
605760,note_on,0,0,5,,,,,,,,,5,,,62,48
605760,note_on,0,0,4,,,,,,,,,4,,,69,48
605760,control_change,120,0,5,,,,,,,64,0,5,,,,
605760,control_change,960,0,1,,,,,,,64,0,1,,,,
605760,control_change,120,0,4,,,,,,,64,0,4,,,,
605915,note_off,155,0,1,,,,,,,,,1,,,78,0
605920,note_on,5,0,1,,,,,,,,,1,,,78,49
606080,note_off,160,0,1,,,,,,,,,1,,,78,0
606080,note_on,0,0,1,,,,,,,,,1,,,79,49
606120,note_off,360,0,4,,,,,,,,,4,,,69,0
606120,note_off,360,0,5,,,,,,,,,5,,,62,0
606240,note_off,160,0,1,,,,,,,,,1,,,79,0
606240,note_on,0,0,1,,,,,,,,,1,,,80,48
606400,note_on,0,0,1,,,,,,,,,1,,,81,47
606400,note_off,160,0,1,,,,,,,,,1,,,80,0
606560,note_on,0,0,1,,,,,,,,,1,,,82,47
606560,note_off,160,0,1,,,,,,,,,1,,,81,0
606720,note_off,160,0,1,,,,,,,,,1,,,82,0
606720,note_on,0,0,1,,,,,,,,,1,,,83,46
606960,note_off,240,0,1,,,,,,,,,1,,,83,0
606960,note_on,0,0,1,,,,,,,,,1,,,81,45
607200,note_on,0,0,1,,,,,,,,,1,,,80,44
607200,note_off,240,0,1,,,,,,,,,1,,,81,0
607440,note_off,240,0,1,,,,,,,,,1,,,80,0
607440,note_on,0,0,1,,,,,,,,,1,,,81,44
607560,set_tempo,2760,1,0,,,,,,666666,,,,,,,
607632,note_off,192,0,1,,,,,,,,,1,,,81,0
607680,note_on,48,0,1,,,,,,,,,1,,,81,46
607680,note_on,1560,0,5,,,,,,,,,5,,,57,46
607680,note_on,1560,0,4,,,,,,,,,4,,,66,46
607680,set_tempo,120,1,0,,,,,,659340,,,,,,,
608160,note_on,0,0,1,,,,,,,,,1,,,81,45
608160,note_off,480,0,1,,,,,,,,,1,,,81,0
608280,note_on,0,0,1,,,,,,,,,1,,,78,45
608280,note_off,120,0,1,,,,,,,,,1,,,81,0
608400,note_off,720,0,5,,,,,,,,,5,,,57,0
608400,note_on,0,0,1,,,,,,,,,1,,,81,45
608400,note_off,120,0,1,,,,,,,,,1,,,78,0
608400,note_off,720,0,4,,,,,,,,,4,,,66,0
608520,note_off,120,0,1,,,,,,,,,1,,,81,0
608520,note_on,0,0,1,,,,,,,,,1,,,78,44
608616,note_off,96,0,1,,,,,,,,,1,,,78,0
608640,note_on,24,0,1,,,,,,,,,1,,,74,44
608640,note_on,240,0,5,,,,,,,,,5,,,57,44
608640,note_on,240,0,4,,,,,,,,,4,,,66,44
609000,note_off,360,0,4,,,,,,,,,4,,,66,0
609007,note_off,367,0,1,,,,,,,,,1,,,74,0
609120,note_on,113,0,1,,,,,,,,,1,,,74,44
609120,note_on,120,0,4,,,,,,,,,4,,,66,44
609472,note_off,352,0,1,,,,,,,,,1,,,74,0
609480,note_on,8,0,1,,,,,,,,,1,,,78,43
609480,note_off,360,0,4,,,,,,,,,4,,,66,0
609600,note_off,120,0,1,,,,,,,,,1,,,78,0
609600,note_on,120,0,4,,,,,,,,,4,,,67,43
609600,note_on,0,0,1,,,,,,,,,1,,,76,43
609960,note_off,360,0,1,,,,,,,,,1,,,76,0
609960,note_off,360,0,4,,,,,,,,,4,,,67,0
609960,note_on,0,0,1,,,,,,,,,1,,,74,42
610080,note_on,120,0,4,,,,,,,,,4,,,67,42
610080,note_on,0,0,1,,,,,,,,,1,,,76,42
610080,note_off,120,0,1,,,,,,,,,1,,,74,0
610440,note_off,1800,0,5,,,,,,,,,5,,,57,0
610440,set_tempo,2760,1,0,,,,,,666666,,,,,,,
610440,note_on,0,0,1,,,,,,,,,1,,,78,42
610440,note_off,360,0,1,,,,,,,,,1,,,76,0
610440,note_off,360,0,4,,,,,,,,,4,,,67,0
610560,note_on,0,0,1,,,,,,,,,1,,,74,44
610560,set_tempo,120,1,0,,,,,,659340,,,,,,,
610560,note_off,120,0,1,,,,,,,,,1,,,78,0
610560,note_on,120,0,4,,,,,,,,,4,,,66,44
610680,note_on,240,0,5,,,,,,,,,5,,,38,40
610800,note_off,120,0,5,,,,,,,,,5,,,38,0
610800,note_on,0,0,5,,,,,,,,,5,,,40,41
610920,note_off,120,0,5,,,,,,,,,5,,,40,0
610920,note_on,0,0,5,,,,,,,,,5,,,42,41
611040,note_off,120,0,5,,,,,,,,,5,,,42,0
611040,note_on,0,0,5,,,,,,,,,5,,,43,42
611160,note_off,120,0,5,,,,,,,,,5,,,43,0
611160,note_on,0,0,5,,,,,,,,,5,,,45,43
611280,note_off,120,0,5,,,,,,,,,5,,,45,0
611280,note_on,0,0,5,,,,,,,,,5,,,47,44
611400,note_off,120,0,5,,,,,,,,,5,,,47,0
611400,note_on,0,0,5,,,,,,,,,5,,,49,45
611520,note_on,0,0,5,,,,,,,,,5,,,50,46
611520,note_off,960,0,1,,,,,,,,,1,,,74,0
611520,note_off,120,0,5,,,,,,,,,5,,,49,0
611520,note_off,960,0,4,,,,,,,,,4,,,66,0
611640,note_off,120,0,5,,,,,,,,,5,,,50,0
611640,note_on,0,0,5,,,,,,,,,5,,,52,46
611760,note_off,120,0,5,,,,,,,,,5,,,52,0
611760,note_on,0,0,5,,,,,,,,,5,,,54,47
611880,note_on,0,0,5,,,,,,,,,5,,,55,48
611880,note_off,120,0,5,,,,,,,,,5,,,54,0
612000,note_on,0,0,5,,,,,,,,,5,,,57,49
612000,note_off,120,0,5,,,,,,,,,5,,,55,0
612120,note_off,120,0,5,,,,,,,,,5,,,57,0
612120,note_on,0,0,5,,,,,,,,,5,,,59,50
612240,note_off,120,0,5,,,,,,,,,5,,,59,0
612240,note_on,0,0,5,,,,,,,,,5,,,61,50
612360,note_off,120,0,5,,,,,,,,,5,,,61,0
612360,note_on,0,0,5,,,,,,,,,5,,,62,51
612480,note_off,120,0,5,,,,,,,,,5,,,62,0
612480,note_on,0,0,5,,,,,,,,,5,,,64,52
612600,note_on,0,0,5,,,,,,,,,5,,,66,53
612600,note_off,120,0,5,,,,,,,,,5,,,64,0
612720,note_on,0,0,5,,,,,,,,,5,,,67,54
612720,note_off,120,0,5,,,,,,,,,5,,,66,0
612840,note_off,120,0,5,,,,,,,,,5,,,67,0
612840,note_on,0,0,5,,,,,,,,,5,,,69,55
612960,note_off,120,0,5,,,,,,,,,5,,,69,0
612960,note_on,0,0,5,,,,,,,,,5,,,71,55
613040,note_off,80,0,5,,,,,,,,,5,,,71,0
613040,note_on,0,0,5,,,,,,,,,5,,,73,56
613120,note_off,80,0,5,,,,,,,,,5,,,73,0
613120,note_on,0,0,5,,,,,,,,,5,,,74,56
613200,note_off,80,0,5,,,,,,,,,5,,,74,0
613200,note_on,0,0,5,,,,,,,,,5,,,76,57
613280,note_on,0,0,5,,,,,,,,,5,,,78,58
613280,note_off,80,0,5,,,,,,,,,5,,,76,0
613360,note_off,80,0,5,,,,,,,,,5,,,78,0
613360,note_on,0,0,5,,,,,,,,,5,,,79,58
613380,set_tempo,2820,1,0,,,,,,674157,,,,,,,
613424,note_off,64,0,5,,,,,,,,,5,,,79,0
613440,note_on,1920,0,1,,,,,,,,,1,,,81,59
613440,note_on,7680,0,2,,,,,,,,,2,,,78,59
613440,set_tempo,60,1,0,,,,,,659340,,,,,,,
613600,note_on,176,0,5,,,,,,,,,5,,,50,54
613720,note_off,120,0,5,,,,,,,,,5,,,50,0
613720,note_on,0,0,5,,,,,,,,,5,,,52,55
613840,note_off,120,0,5,,,,,,,,,5,,,52,0
613840,note_on,0,0,5,,,,,,,,,5,,,54,55
613960,note_on,0,0,5,,,,,,,,,5,,,55,56
613960,note_off,120,0,5,,,,,,,,,5,,,54,0
614080,note_on,0,0,5,,,,,,,,,5,,,57,57
614080,note_off,120,0,5,,,,,,,,,5,,,55,0
614200,note_on,0,0,5,,,,,,,,,5,,,59,57
614200,note_off,120,0,5,,,,,,,,,5,,,57,0
614320,note_on,0,0,5,,,,,,,,,5,,,61,58
614320,note_off,120,0,5,,,,,,,,,5,,,59,0
614440,note_on,0,0,5,,,,,,,,,5,,,62,59
614440,note_off,120,0,5,,,,,,,,,5,,,61,0
614560,note_on,0,0,5,,,,,,,,,5,,,64,59
614560,note_off,120,0,5,,,,,,,,,5,,,62,0
614680,note_on,0,0,5,,,,,,,,,5,,,66,60
614680,note_off,120,0,5,,,,,,,,,5,,,64,0
614800,note_off,120,0,5,,,,,,,,,5,,,66,0
614800,note_on,0,0,5,,,,,,,,,5,,,67,61
614920,note_on,0,0,5,,,,,,,,,5,,,69,61
614920,note_off,120,0,5,,,,,,,,,5,,,67,0
615040,note_off,120,0,5,,,,,,,,,5,,,69,0
615040,note_on,0,0,5,,,,,,,,,5,,,71,62
615160,note_on,0,0,5,,,,,,,,,5,,,73,63
615160,note_off,120,0,5,,,,,,,,,5,,,71,0
615280,note_on,0,0,5,,,,,,,,,5,,,74,63
615280,note_off,120,0,5,,,,,,,,,5,,,73,0
615360,note_on,80,0,5,,,,,,,,,5,,,62,64
615400,note_off,40,0,5,,,,,,,,,5,,,74,0
615535,note_off,2095,0,2,,,,,,,,,2,,,78,0
615535,note_off,2095,0,1,,,,,,,,,1,,,81,0
615600,note_on,65,0,1,,,,,,,,,1,,,79,62
615720,note_off,320,0,5,,,,,,,,,5,,,62,0
615720,note_on,0,0,1,,,,,,,,,1,,,83,63
615720,note_off,120,0,1,,,,,,,,,1,,,79,0
615840,note_on,0,0,1,,,,,,,,,1,,,76,64
615840,note_off,120,0,1,,,,,,,,,1,,,83,0
615960,note_off,120,0,1,,,,,,,,,1,,,76,0
615960,note_on,0,0,1,,,,,,,,,1,,,85,65
616080,note_off,120,0,1,,,,,,,,,1,,,85,0
616080,note_on,0,0,1,,,,,,,,,1,,,78,66
616200,note_on,0,0,1,,,,,,,,,1,,,86,67
616200,note_off,120,0,1,,,,,,,,,1,,,78,0
616260,set_tempo,2820,1,0,,,,,,674157,,,,,,,
616320,note_on,785,0,2,,,,,,,,,2,,,74,68
616320,set_tempo,60,1,0,,,,,,659340,,,,,,,
616320,note_on,0,0,1,,,,,,,,,1,,,78,68
616320,note_off,120,0,1,,,,,,,,,1,,,86,0
616440,note_on,720,0,5,,,,,,,,,5,,,38,64
616560,note_off,120,0,5,,,,,,,,,5,,,38,0
616560,note_on,0,0,5,,,,,,,,,5,,,40,65
616680,note_on,0,0,5,,,,,,,,,5,,,42,65
616680,note_off,120,0,5,,,,,,,,,5,,,40,0
616800,note_off,120,0,5,,,,,,,,,5,,,42,0
616800,note_on,0,0,5,,,,,,,,,5,,,43,66
616920,note_off,120,0,5,,,,,,,,,5,,,43,0
616920,note_on,0,0,5,,,,,,,,,5,,,45,67
617040,note_on,0,0,5,,,,,,,,,5,,,47,68
617040,note_off,120,0,5,,,,,,,,,5,,,45,0
617160,note_on,0,0,5,,,,,,,,,5,,,49,68
617160,note_off,120,0,5,,,,,,,,,5,,,47,0
617280,note_on,0,0,5,,,,,,,,,5,,,50,69
617280,note_off,120,0,5,,,,,,,,,5,,,49,0
617400,note_off,120,0,5,,,,,,,,,5,,,50,0
617400,note_on,0,0,5,,,,,,,,,5,,,52,70
617520,note_off,120,0,5,,,,,,,,,5,,,52,0
617520,note_on,0,0,5,,,,,,,,,5,,,54,71
617640,note_off,120,0,5,,,,,,,,,5,,,54,0
617640,note_on,0,0,5,,,,,,,,,5,,,55,71
617760,note_off,120,0,5,,,,,,,,,5,,,55,0
617760,note_on,0,0,5,,,,,,,,,5,,,57,72
617880,note_on,0,0,5,,,,,,,,,5,,,59,73
617880,note_off,120,0,5,,,,,,,,,5,,,57,0
618000,note_on,0,0,5,,,,,,,,,5,,,61,73
618000,note_off,120,0,5,,,,,,,,,5,,,59,0
618120,note_off,120,0,5,,,,,,,,,5,,,61,0
618120,note_on,0,0,5,,,,,,,,,5,,,62,74
618240,note_off,1920,0,2,,,,,,,,,2,,,74,0
618240,note_off,1920,0,1,,,,,,,,,1,,,78,0
618240,note_off,120,0,5,,,,,,,,,5,,,62,0
618240,note_on,0,0,5,,,,,,,,,5,,,50,75
618480,note_on,240,0,1,,,,,,,,,1,,,76,73
618600,note_off,360,0,5,,,,,,,,,5,,,50,0
618600,note_on,0,0,1,,,,,,,,,1,,,79,74
618600,note_off,120,0,1,,,,,,,,,1,,,76,0
618720,note_on,0,0,1,,,,,,,,,1,,,77,75
618720,note_off,120,0,1,,,,,,,,,1,,,79,0
618840,note_off,120,0,1,,,,,,,,,1,,,77,0
618840,note_on,0,0,1,,,,,,,,,1,,,80,77
618960,note_off,120,0,1,,,,,,,,,1,,,80,0
618960,note_on,0,0,1,,,,,,,,,1,,,78,78
619080,note_off,120,0,1,,,,,,,,,1,,,78,0
619080,set_tempo,2760,1,0,,,,,,666666,,,,,,,
619080,note_on,0,0,1,,,,,,,,,1,,,81,79
619200,note_on,0,0,1,,,,,,,,,1,,,69,81
619200,note_off,120,0,1,,,,,,,,,1,,,81,0
619200,set_tempo,120,1,0,,,,,,659340,,,,,,,
619200,note_on,600,0,5,,,,,,,,,5,,,57,81
619328,note_off,128,0,1,,,,,,,,,1,,,69,0
619360,note_on,32,0,1,,,,,,,,,1,,,86,80
619520,note_off,160,0,1,,,,,,,,,1,,,86,0
619520,note_on,0,0,1,,,,,,,,,1,,,85,79
619680,note_off,160,0,1,,,,,,,,,1,,,85,0
619680,note_on,0,0,1,,,,,,,,,1,,,84,77
619840,note_on,0,0,1,,,,,,,,,1,,,83,76
619840,note_off,160,0,1,,,,,,,,,1,,,84,0
620000,note_off,160,0,1,,,,,,,,,1,,,83,0
620000,note_on,0,0,1,,,,,,,,,1,,,82,75
620160,note_on,8640,0,4,,,,,,,,,4,,,64,73
620160,note_on,0,0,4,,,,,,,,,4,,,67,73
620160,note_on,0,0,1,,,,,,,,,1,,,81,73
620160,note_off,160,0,1,,,,,,,,,1,,,82,0
620280,note_on,0,0,1,,,,,,,,,1,,,80,72
620280,note_off,120,0,1,,,,,,,,,1,,,81,0
620400,note_off,120,0,1,,,,,,,,,1,,,80,0
620400,note_on,0,0,1,,,,,,,,,1,,,79,72
620520,note_off,120,0,1,,,,,,,,,1,,,79,0
620520,note_on,0,0,1,,,,,,,,,1,,,78,71
620640,note_off,120,0,1,,,,,,,,,1,,,78,0
620640,note_on,0,0,1,,,,,,,,,1,,,77,70
620800,note_on,0,0,1,,,,,,,,,1,,,76,68
620800,note_off,160,0,1,,,,,,,,,1,,,77,0
620960,note_on,0,0,1,,,,,,,,,1,,,75,67
620960,note_off,160,0,1,,,,,,,,,1,,,76,0
621120,note_off,160,0,1,,,,,,,,,1,,,75,0
621120,note_on,0,0,1,,,,,,,,,1,,,74,66
621360,note_on,0,0,1,,,,,,,,,1,,,73,64
621360,note_off,240,0,1,,,,,,,,,1,,,74,0
621600,note_on,0,0,1,,,,,,,,,1,,,79,62
621600,note_off,240,0,1,,,,,,,,,1,,,73,0
621847,note_off,0,0,4,,,,,,,,,4,,,64,0
621847,note_off,247,0,1,,,,,,,,,1,,,79,0
621847,note_off,1687,0,4,,,,,,,,,4,,,67,0
621847,note_off,2647,0,5,,,,,,,,,5,,,57,0
621915,set_tempo,2715,1,0,,,,,,674157,,,,,,,
621960,note_on,113,0,1,,,,,,,,,1,,,73,59
622056,note_off,96,0,1,,,,,,,,,1,,,73,0
622080,note_on,3840,0,2,,,,,,,,,2,,,67,61
622080,note_on,24,0,1,,,,,,,,,1,,,76,61
622080,note_on,0,0,5,,,,,,,,,5,,,38,56
622080,note_on,233,0,5,,,,,,,,,5,,,50,56
623040,note_on,0,0,2,,,,,,,,,2,,,66,39
623040,note_off,960,0,2,,,,,,,,,2,,,67,0
623040,set_tempo,1125,1,0,,,,,,689655,,,,,,,
623040,note_on,0,0,1,,,,,,,,,1,,,74,39
623040,note_off,960,0,1,,,,,,,,,1,,,76,0
623760,note_off,720,0,2,,,,,,,,,2,,,66,0
623760,note_off,1680,0,5,,,,,,,,,5,,,38,0
623760,note_off,0,0,5,,,,,,,,,5,,,50,0
623760,note_off,720,0,1,,,,,,,,,1,,,74,0
624720,set_tempo,1680,1,0,,,,,,2400000,,,,,,,
624960,note_on,1200,0,5,,,,,,,,,5,,,62,52
624960,note_on,1200,0,1,,,,,,,,,1,,,81,52
624960,time_signature,240,1,0,2,4,24,8,,,,,,,,,
624960,set_tempo,0,1,0,,,,,,454545,,,,,,,
624960,marker,0,1,0,,,,,,,,,,,,,
624960,note_on,3113,0,4,,,,,,,,,4,,,66,52
625116,note_off,156,0,1,,,,,,,,,1,,,81,0
625116,note_off,156,0,5,,,,,,,,,5,,,62,0
625116,note_off,156,0,4,,,,,,,,,4,,,66,0
625200,note_on,84,0,1,,,,,,,,,1,,,81,55
625200,note_on,84,0,4,,,,,,,,,4,,,66,55
625440,note_on,0,0,4,,,,,,,,,4,,,67,53
625440,note_off,240,0,4,,,,,,,,,4,,,66,0
625440,note_on,0,0,1,,,,,,,,,1,,,83,53
625440,note_off,240,0,1,,,,,,,,,1,,,81,0
625680,note_on,0,0,4,,,,,,,,,4,,,64,50
625680,note_on,0,0,1,,,,,,,,,1,,,79,50
625680,note_off,240,0,1,,,,,,,,,1,,,83,0
625680,note_off,240,0,4,,,,,,,,,4,,,67,0
625836,note_off,156,0,1,,,,,,,,,1,,,79,0
625836,note_off,156,0,4,,,,,,,,,4,,,64,0
625920,note_on,84,0,4,,,,,,,,,4,,,69,48
625920,note_on,804,0,5,,,,,,,,,5,,,62,48
625920,note_on,84,0,1,,,,,,,,,1,,,78,48
626076,note_off,156,0,4,,,,,,,,,4,,,69,0
626076,note_off,156,0,5,,,,,,,,,5,,,62,0
626076,note_off,156,0,1,,,,,,,,,1,,,78,0
626160,note_on,84,0,4,,,,,,,,,4,,,69,51
626160,note_on,84,0,1,,,,,,,,,1,,,78,51
626400,note_off,240,0,1,,,,,,,,,1,,,78,0
626400,note_on,0,0,1,,,,,,,,,1,,,79,49
626400,note_off,240,0,4,,,,,,,,,4,,,69,0
626400,note_on,0,0,4,,,,,,,,,4,,,71,49
626640,note_on,0,0,1,,,,,,,,,1,,,76,47
626640,note_off,240,0,1,,,,,,,,,1,,,79,0
626640,note_on,0,0,4,,,,,,,,,4,,,67,47
626640,note_off,240,0,4,,,,,,,,,4,,,71,0
626796,note_off,156,0,1,,,,,,,,,1,,,76,0
626796,note_off,156,0,4,,,,,,,,,4,,,67,0
626880,note_on,84,0,1,,,,,,,,,1,,,74,44
626880,note_on,804,0,5,,,,,,,,,5,,,62,44
626880,note_on,84,0,4,,,,,,,,,4,,,66,44
627036,note_off,156,0,4,,,,,,,,,4,,,66,0
627036,note_off,156,0,5,,,,,,,,,5,,,62,0
627036,note_off,156,0,1,,,,,,,,,1,,,74,0
627120,note_on,84,0,5,,,,,,,,,5,,,62,44
627120,note_on,84,0,4,,,,,,,,,4,,,66,44
627120,note_on,84,0,1,,,,,,,,,1,,,74,44
627276,note_off,156,0,1,,,,,,,,,1,,,74,0
627276,note_off,156,0,5,,,,,,,,,5,,,62,0
627276,note_off,156,0,4,,,,,,,,,4,,,66,0
627360,note_on,84,0,1,,,,,,,,,1,,,76,44
627360,note_on,84,0,5,,,,,,,,,5,,,57,44
627360,note_on,84,0,4,,,,,,,,,4,,,61,44
627516,note_off,156,0,4,,,,,,,,,4,,,61,0
627516,note_off,156,0,1,,,,,,,,,1,,,76,0
627516,note_off,156,0,5,,,,,,,,,5,,,57,0
627600,note_on,84,0,5,,,,,,,,,5,,,57,43
627600,note_on,84,0,4,,,,,,,,,4,,,61,43
627600,note_on,84,0,1,,,,,,,,,1,,,76,43
627756,note_off,156,0,1,,,,,,,,,1,,,76,0
627756,note_off,156,0,4,,,,,,,,,4,,,61,0
627756,note_off,156,0,5,,,,,,,,,5,,,57,0
627840,note_on,84,0,1,,,,,,,,,1,,,77,52
627840,note_on,84,0,5,,,,,,,,,5,,,62,42
628080,note_on,0,0,1,,,,,,,,,1,,,78,42
628080,note_off,240,0,1,,,,,,,,,1,,,77,0
628200,note_off,360,0,5,,,,,,,,,5,,,62,0
628236,note_off,156,0,1,,,,,,,,,1,,,78,0
628320,note_on,84,0,1,,,,,,,,,1,,,74,40
628476,note_off,156,0,1,,,,,,,,,1,,,74,0
628560,note_on,84,0,1,,,,,,,,,1,,,69,38
628680,set_tempo,3720,1,0,,,,,,458015,,,,,,,
628716,note_off,156,0,1,,,,,,,,,1,,,69,0
628800,note_on,84,0,1,,,,,,,,,1,,,81,77
628800,note_on,600,0,5,,,,,,,,,5,,,50,77
628800,set_tempo,120,1,0,,,,,,454545,,,,,,,
628920,note_on,1164,0,4,,,,,,,,,4,,,62,77
628956,note_off,156,0,1,,,,,,,,,1,,,81,0
628956,note_off,156,0,5,,,,,,,,,5,,,50,0
629040,note_on,84,0,5,,,,,,,,,5,,,54,77
629040,note_off,120,0,4,,,,,,,,,4,,,62,0
629040,note_on,84,0,1,,,,,,,,,1,,,86,88
629160,note_on,120,0,4,,,,,,,,,4,,,62,76
629196,note_off,156,0,5,,,,,,,,,5,,,54,0
629280,note_off,120,0,4,,,,,,,,,4,,,62,0
629280,note_on,84,0,5,,,,,,,,,5,,,57,76
629400,note_on,120,0,4,,,,,,,,,4,,,62,76
629436,note_off,156,0,5,,,,,,,,,5,,,57,0
629520,note_on,0,0,1,,,,,,,,,1,,,81,76
629520,note_off,120,0,4,,,,,,,,,4,,,62,0
629520,note_on,84,0,5,,,,,,,,,5,,,61,76
629520,note_off,480,0,1,,,,,,,,,1,,,86,0
629640,note_on,120,0,4,,,,,,,,,4,,,62,75
629676,note_off,156,0,1,,,,,,,,,1,,,81,0
629676,note_off,156,0,5,,,,,,,,,5,,,61,0
629736,note_off,96,0,4,,,,,,,,,4,,,62,0
629760,note_on,84,0,1,,,,,,,,,1,,,78,75
629760,note_on,84,0,5,,,,,,,,,5,,,50,75
629880,note_on,144,0,4,,,,,,,,,4,,,62,75
629916,note_off,156,0,5,,,,,,,,,5,,,50,0
629916,note_off,156,0,1,,,,,,,,,1,,,78,0
630000,note_off,120,0,4,,,,,,,,,4,,,62,0
630000,note_on,84,0,1,,,,,,,,,1,,,81,84
630000,note_on,84,0,5,,,,,,,,,5,,,54,74
630120,note_on,120,0,4,,,,,,,,,4,,,62,74
630156,note_off,156,0,5,,,,,,,,,5,,,54,0
630240,note_off,120,0,4,,,,,,,,,4,,,62,0
630240,note_on,84,0,5,,,,,,,,,5,,,57,74
630360,note_on,120,0,4,,,,,,,,,4,,,62,73
630396,note_off,156,0,5,,,,,,,,,5,,,57,0
630480,note_off,120,0,4,,,,,,,,,4,,,62,0
630480,note_on,84,0,5,,,,,,,,,5,,,61,73
630480,note_on,0,0,1,,,,,,,,,1,,,74,73
630480,note_off,480,0,1,,,,,,,,,1,,,81,0
630600,note_on,120,0,4,,,,,,,,,4,,,62,73
630636,note_off,156,0,5,,,,,,,,,5,,,61,0
630636,note_off,156,0,1,,,,,,,,,1,,,74,0
630696,note_off,96,0,4,,,,,,,,,4,,,62,0
630720,note_on,84,0,1,,,,,,,,,1,,,78,72
630720,note_on,84,0,5,,,,,,,,,5,,,59,72
630840,note_on,144,0,4,,,,,,,,,4,,,66,72
630876,note_off,156,0,1,,,,,,,,,1,,,78,0
630876,note_off,156,0,5,,,,,,,,,5,,,59,0
630936,note_off,96,0,4,,,,,,,,,4,,,66,0
630960,note_on,24,0,4,,,,,,,,,4,,,62,72
630960,note_on,84,0,1,,,,,,,,,1,,,78,72
631056,note_off,96,0,4,,,,,,,,,4,,,62,0
631080,note_on,24,0,4,,,,,,,,,4,,,66,71
631116,note_off,156,0,1,,,,,,,,,1,,,78,0
631140,note_on,24,0,1,,,,,,,,,1,,,78,71
631176,note_off,96,0,4,,,,,,,,,4,,,66,0
631200,note_off,60,0,1,,,,,,,,,1,,,78,0
631200,note_on,0,0,1,,,,,,,,,1,,,76,71
631200,note_on,324,0,5,,,,,,,,,5,,,57,71
631320,note_off,120,0,1,,,,,,,,,1,,,76,0
631320,note_on,0,0,1,,,,,,,,,1,,,74,71
631320,note_on,144,0,4,,,,,,,,,4,,,67,71
631356,note_off,156,0,5,,,,,,,,,5,,,57,0
631416,note_off,96,0,4,,,,,,,,,4,,,67,0
631440,note_on,24,0,4,,,,,,,,,4,,,61,70
631440,note_off,120,0,1,,,,,,,,,1,,,74,0
631440,note_on,0,0,1,,,,,,,,,1,,,76,70
631536,note_off,96,0,4,,,,,,,,,4,,,61,0
631560,note_on,0,0,1,,,,,,,,,1,,,78,70
631560,note_on,24,0,4,,,,,,,,,4,,,67,70
631560,note_off,120,0,1,,,,,,,,,1,,,76,0
631620,set_tempo,2820,1,0,,,,,,458015,,,,,,,
631656,note_off,96,0,4,,,,,,,,,4,,,67,0
631680,note_on,24,0,4,,,,,,,,,4,,,62,70
631680,note_on,0,0,4,,,,,,,,,4,,,66,70
631680,note_on,0,0,1,,,,,,,,,1,,,74,70
631680,note_off,120,0,1,,,,,,,,,1,,,78,0
631836,note_off,0,0,4,,,,,,,,,4,,,62,0
631836,note_off,156,0,4,,,,,,,,,4,,,66,0
631920,note_on,564,0,5,,,,,,,,,5,,,57,66
632040,note_off,360,0,1,,,,,,,,,1,,,74,0
632076,note_off,156,0,5,,,,,,,,,5,,,57,0
632160,note_on,84,0,5,,,,,,,,,5,,,50,64
632316,note_off,156,0,5,,,,,,,,,5,,,50,0
632400,set_tempo,780,1,0,,,,,,465116,,,,,,,
632520,set_tempo,120,1,0,,,,,,454545,,,,,,,
632640,set_tempo,120,1,0,,,,,,454545,,,,,,,
632640,note_on,324,0,5,,,,,,,,,5,,,62,52
632640,marker,0,1,0,,,,,,,,,,,,,
632640,note_on,804,0,4,,,,,,,,,4,,,66,52
632640,note_on,600,0,1,,,,,,,,,1,,,81,52
632796,note_off,156,0,1,,,,,,,,,1,,,81,0
632796,note_off,156,0,5,,,,,,,,,5,,,62,0
632796,note_off,156,0,4,,,,,,,,,4,,,66,0
632880,note_on,84,0,4,,,,,,,,,4,,,66,55
632880,note_on,84,0,1,,,,,,,,,1,,,81,55
633120,note_on,0,0,1,,,,,,,,,1,,,83,53
633120,note_off,240,0,1,,,,,,,,,1,,,81,0
633120,note_on,0,0,4,,,,,,,,,4,,,67,53
633120,note_off,240,0,4,,,,,,,,,4,,,66,0
633360,note_on,0,0,1,,,,,,,,,1,,,79,50
633360,note_off,240,0,1,,,,,,,,,1,,,83,0
633360,note_off,240,0,4,,,,,,,,,4,,,67,0
633360,note_on,0,0,4,,,,,,,,,4,,,64,50
633516,note_off,156,0,1,,,,,,,,,1,,,79,0
633516,note_off,156,0,4,,,,,,,,,4,,,64,0
633600,note_on,84,0,4,,,,,,,,,4,,,69,48
633600,note_on,84,0,1,,,,,,,,,1,,,78,48
633600,note_on,804,0,5,,,,,,,,,5,,,62,48
633756,note_off,156,0,1,,,,,,,,,1,,,78,0
633756,note_off,156,0,5,,,,,,,,,5,,,62,0
633756,note_off,156,0,4,,,,,,,,,4,,,69,0
633840,note_on,84,0,4,,,,,,,,,4,,,69,51
633840,note_on,84,0,1,,,,,,,,,1,,,78,51
634080,note_on,0,0,4,,,,,,,,,4,,,71,49
634080,note_off,240,0,4,,,,,,,,,4,,,69,0
634080,note_off,240,0,1,,,,,,,,,1,,,78,0
634080,note_on,0,0,1,,,,,,,,,1,,,79,49
634320,note_off,240,0,4,,,,,,,,,4,,,71,0
634320,note_off,240,0,1,,,,,,,,,1,,,79,0
634320,note_on,0,0,1,,,,,,,,,1,,,76,47
634320,note_on,0,0,4,,,,,,,,,4,,,67,47
634476,note_off,156,0,1,,,,,,,,,1,,,76,0
634476,note_off,156,0,4,,,,,,,,,4,,,67,0
634560,note_on,84,0,1,,,,,,,,,1,,,74,44
634560,note_on,84,0,4,,,,,,,,,4,,,66,44
634560,note_on,804,0,5,,,,,,,,,5,,,62,44
634716,note_off,156,0,4,,,,,,,,,4,,,66,0
634716,note_off,156,0,5,,,,,,,,,5,,,62,0
634716,note_off,156,0,1,,,,,,,,,1,,,74,0
634800,note_on,84,0,4,,,,,,,,,4,,,66,44
634800,note_on,84,0,5,,,,,,,,,5,,,62,44
634800,note_on,84,0,1,,,,,,,,,1,,,74,44
634956,note_off,156,0,4,,,,,,,,,4,,,66,0
634956,note_off,156,0,5,,,,,,,,,5,,,62,0
634956,note_off,156,0,1,,,,,,,,,1,,,74,0
635040,note_on,84,0,5,,,,,,,,,5,,,57,44
635040,note_on,84,0,1,,,,,,,,,1,,,76,44
635040,note_on,84,0,4,,,,,,,,,4,,,61,44
635196,note_off,156,0,4,,,,,,,,,4,,,61,0
635196,note_off,156,0,1,,,,,,,,,1,,,76,0
635196,note_off,156,0,5,,,,,,,,,5,,,57,0
635280,note_on,84,0,1,,,,,,,,,1,,,76,43
635280,note_on,84,0,5,,,,,,,,,5,,,57,43
635280,note_on,84,0,4,,,,,,,,,4,,,61,43
635436,note_off,156,0,1,,,,,,,,,1,,,76,0
635436,note_off,156,0,4,,,,,,,,,4,,,61,0
635436,note_off,156,0,5,,,,,,,,,5,,,57,0
635520,note_on,84,0,1,,,,,,,,,1,,,77,52
635520,note_on,84,0,5,,,,,,,,,5,,,62,42
635760,note_on,0,0,1,,,,,,,,,1,,,78,42
635760,note_off,240,0,1,,,,,,,,,1,,,77,0
635880,note_off,360,0,5,,,,,,,,,5,,,62,0
635916,note_off,156,0,1,,,,,,,,,1,,,78,0
636000,note_on,84,0,1,,,,,,,,,1,,,74,40
636156,note_off,156,0,1,,,,,,,,,1,,,74,0
636240,note_on,84,0,1,,,,,,,,,1,,,69,38
636360,set_tempo,3720,1,0,,,,,,458015,,,,,,,
636396,note_off,156,0,1,,,,,,,,,1,,,69,0
636480,note_on,600,0,5,,,,,,,,,5,,,50,77
636480,note_on,84,0,1,,,,,,,,,1,,,81,77
636480,set_tempo,120,1,0,,,,,,454545,,,,,,,
636600,note_on,1164,0,4,,,,,,,,,4,,,62,77
636636,note_off,156,0,5,,,,,,,,,5,,,50,0
636636,note_off,156,0,1,,,,,,,,,1,,,81,0
636720,note_on,84,0,1,,,,,,,,,1,,,86,88
636720,note_on,84,0,5,,,,,,,,,5,,,54,77
636720,note_off,120,0,4,,,,,,,,,4,,,62,0
636840,note_on,120,0,4,,,,,,,,,4,,,62,76
636876,note_off,156,0,5,,,,,,,,,5,,,54,0
636960,note_off,120,0,4,,,,,,,,,4,,,62,0
636960,note_on,84,0,5,,,,,,,,,5,,,57,76
637080,note_on,120,0,4,,,,,,,,,4,,,62,76
637116,note_off,156,0,5,,,,,,,,,5,,,57,0
637200,note_off,120,0,4,,,,,,,,,4,,,62,0
637200,note_on,84,0,5,,,,,,,,,5,,,61,76
637200,note_off,480,0,1,,,,,,,,,1,,,86,0
637200,note_on,0,0,1,,,,,,,,,1,,,81,76
637320,note_on,120,0,4,,,,,,,,,4,,,62,75
637356,note_off,156,0,5,,,,,,,,,5,,,61,0
637356,note_off,156,0,1,,,,,,,,,1,,,81,0
637416,note_off,96,0,4,,,,,,,,,4,,,62,0
637440,note_on,84,0,1,,,,,,,,,1,,,78,75
637440,note_on,84,0,5,,,,,,,,,5,,,50,75
637560,note_on,144,0,4,,,,,,,,,4,,,62,75
637596,note_off,156,0,5,,,,,,,,,5,,,50,0
637596,note_off,156,0,1,,,,,,,,,1,,,78,0
637680,note_on,84,0,1,,,,,,,,,1,,,81,84
637680,note_off,120,0,4,,,,,,,,,4,,,62,0
637680,note_on,84,0,5,,,,,,,,,5,,,54,74
637800,note_on,120,0,4,,,,,,,,,4,,,62,74
637836,note_off,156,0,5,,,,,,,,,5,,,54,0
637920,note_on,84,0,5,,,,,,,,,5,,,57,74
637920,note_off,120,0,4,,,,,,,,,4,,,62,0
638040,note_on,120,0,4,,,,,,,,,4,,,62,73
638076,note_off,156,0,5,,,,,,,,,5,,,57,0
638160,note_on,84,0,5,,,,,,,,,5,,,61,73
638160,note_off,480,0,1,,,,,,,,,1,,,81,0
638160,note_on,0,0,1,,,,,,,,,1,,,74,73
638160,note_off,120,0,4,,,,,,,,,4,,,62,0
638280,note_on,120,0,4,,,,,,,,,4,,,62,73
638316,note_off,156,0,1,,,,,,,,,1,,,74,0
638316,note_off,156,0,5,,,,,,,,,5,,,61,0
638376,note_off,96,0,4,,,,,,,,,4,,,62,0
638400,note_on,84,0,5,,,,,,,,,5,,,59,72
638400,note_on,84,0,1,,,,,,,,,1,,,78,72
638520,note_on,144,0,4,,,,,,,,,4,,,66,72
638556,note_off,156,0,5,,,,,,,,,5,,,59,0
638556,note_off,156,0,1,,,,,,,,,1,,,78,0
638616,note_off,96,0,4,,,,,,,,,4,,,66,0
638640,note_on,24,0,4,,,,,,,,,4,,,62,72
638640,note_on,84,0,1,,,,,,,,,1,,,78,72
638736,note_off,96,0,4,,,,,,,,,4,,,62,0
638760,note_on,24,0,4,,,,,,,,,4,,,66,71
638796,note_off,156,0,1,,,,,,,,,1,,,78,0
638820,note_on,24,0,1,,,,,,,,,1,,,78,71
638856,note_off,96,0,4,,,,,,,,,4,,,66,0
638880,note_on,324,0,5,,,,,,,,,5,,,57,71
638880,note_off,60,0,1,,,,,,,,,1,,,78,0
638880,note_on,0,0,1,,,,,,,,,1,,,76,71
639000,note_on,144,0,4,,,,,,,,,4,,,67,71
639000,note_off,120,0,1,,,,,,,,,1,,,76,0
639000,note_on,0,0,1,,,,,,,,,1,,,74,71
639036,note_off,156,0,5,,,,,,,,,5,,,57,0
639096,note_off,96,0,4,,,,,,,,,4,,,67,0
639120,note_off,120,0,1,,,,,,,,,1,,,74,0
639120,note_on,0,0,1,,,,,,,,,1,,,76,70
639120,note_on,24,0,4,,,,,,,,,4,,,61,70
639216,note_off,96,0,4,,,,,,,,,4,,,61,0
639240,note_off,120,0,1,,,,,,,,,1,,,76,0
639240,note_on,24,0,4,,,,,,,,,4,,,67,70
639240,note_on,0,0,1,,,,,,,,,1,,,78,70
639300,set_tempo,2820,1,0,,,,,,458015,,,,,,,
639336,note_off,96,0,4,,,,,,,,,4,,,67,0
639360,note_on,24,0,4,,,,,,,,,4,,,66,70
639360,note_on,0,0,4,,,,,,,,,4,,,62,70
639360,note_on,0,0,1,,,,,,,,,1,,,74,70
639360,note_off,120,0,1,,,,,,,,,1,,,78,0
639516,note_off,156,0,4,,,,,,,,,4,,,62,0
639516,note_off,0,0,4,,,,,,,,,4,,,66,0
639600,note_on,564,0,5,,,,,,,,,5,,,57,66
639720,note_off,360,0,1,,,,,,,,,1,,,74,0
639756,note_off,156,0,5,,,,,,,,,5,,,57,0
639840,note_on,84,0,5,,,,,,,,,5,,,50,64
639996,note_off,156,0,5,,,,,,,,,5,,,50,0
640080,set_tempo,780,1,0,,,,,,465116,,,,,,,
640200,set_tempo,120,1,0,,,,,,454545,,,,,,,
640320,note_on,16560,0,2,,,,,,,,,2,,,69,85
640320,note_on,0,0,2,,,,,,,,,2,,,73,85
640320,note_on,600,0,1,,,,,,,,,1,,,76,85
640320,marker,120,1,0,,,,,,,,,,,,,
640320,note_on,324,0,5,,,,,,,,,5,,,43,85
640320,note_on,0,0,5,,,,,,,,,5,,,55,85
640680,note_off,0,0,2,,,,,,,,,2,,,69,0
640680,note_off,360,0,2,,,,,,,,,2,,,73,0
640680,note_off,360,0,1,,,,,,,,,1,,,76,0
640680,note_off,0,0,5,,,,,,,,,5,,,43,0
640680,note_off,360,0,5,,,,,,,,,5,,,55,0
640800,note_on,0,0,5,,,,,,,,,5,,,42,88
640800,note_on,0,0,2,,,,,,,,,2,,,74,88
640800,note_on,120,0,1,,,,,,,,,1,,,78,88
640800,note_on,120,0,5,,,,,,,,,5,,,54,88
640800,note_on,120,0,2,,,,,,,,,2,,,69,88
641160,note_off,0,0,2,,,,,,,,,2,,,69,0
641160,note_off,360,0,2,,,,,,,,,2,,,74,0
641160,note_off,360,0,1,,,,,,,,,1,,,78,0
641160,note_off,0,0,5,,,,,,,,,5,,,54,0
641160,note_off,360,0,5,,,,,,,,,5,,,42,0
641280,note_on,0,0,2,,,,,,,,,2,,,69,92
641280,note_on,120,0,2,,,,,,,,,2,,,76,92
641280,note_on,120,0,5,,,,,,,,,5,,,37,92
641280,note_on,0,0,5,,,,,,,,,5,,,49,92
641280,note_on,120,0,1,,,,,,,,,1,,,79,92
641640,note_off,0,0,2,,,,,,,,,2,,,76,0
641640,note_off,360,0,2,,,,,,,,,2,,,69,0
641640,note_off,360,0,5,,,,,,,,,5,,,49,0
641640,note_off,360,0,1,,,,,,,,,1,,,79,0
641640,note_off,0,0,5,,,,,,,,,5,,,37,0
642120,note_on,480,0,1,,,,,,,,,1,,,76,51
642216,note_off,96,0,1,,,,,,,,,1,,,76,0
642240,note_on,600,0,5,,,,,,,,,5,,,62,50
642240,note_on,24,0,1,,,,,,,,,1,,,78,50
642240,note_on,2724,0,4,,,,,,,,,4,,,66,50
642360,note_on,0,0,1,,,,,,,,,1,,,73,49
642360,note_off,120,0,1,,,,,,,,,1,,,78,0
642396,note_off,156,0,5,,,,,,,,,5,,,62,0
642396,note_off,156,0,4,,,,,,,,,4,,,66,0
642480,note_on,84,0,4,,,,,,,,,4,,,66,47
642480,note_on,84,0,5,,,,,,,,,5,,,62,47
642480,note_off,120,0,1,,,,,,,,,1,,,73,0
642480,note_on,0,0,1,,,,,,,,,1,,,74,47
642600,note_on,0,0,1,,,,,,,,,1,,,78,46
642600,note_off,120,0,1,,,,,,,,,1,,,74,0
642636,note_off,156,0,4,,,,,,,,,4,,,66,0
642636,note_off,156,0,5,,,,,,,,,5,,,62,0
642720,note_on,0,0,1,,,,,,,,,1,,,79,45
642720,note_on,84,0,5,,,,,,,,,5,,,64,45
642720,note_on,84,0,4,,,,,,,,,4,,,67,45
642720,note_off,120,0,1,,,,,,,,,1,,,78,0
642840,note_off,120,0,1,,,,,,,,,1,,,79,0
642840,note_on,0,0,1,,,,,,,,,1,,,75,44
642876,note_off,156,0,5,,,,,,,,,5,,,64,0
642876,note_off,156,0,4,,,,,,,,,4,,,67,0
642960,note_on,84,0,5,,,,,,,,,5,,,64,43
642960,note_on,84,0,4,,,,,,,,,4,,,67,43
642960,note_off,120,0,1,,,,,,,,,1,,,75,0
642960,note_on,0,0,1,,,,,,,,,1,,,76,43
643080,note_off,120,0,1,,,,,,,,,1,,,76,0
643080,note_on,0,0,1,,,,,,,,,1,,,79,42
643116,note_off,156,0,4,,,,,,,,,4,,,67,0
643116,note_off,156,0,5,,,,,,,,,5,,,64,0
643200,note_on,0,0,4,,,,,,,,,4,,,69,41
643200,control_change,37440,0,3,,,,,,,64,0,3,,,,
643200,control_change,1560,0,2,,,,,,,64,0,2,,,,
643200,note_off,0,0,1,,,,,,,,,1,,,79,0
643200,note_on,0,0,5,,,,,,,,,5,,,66,41
643200,note_on,0,0,1,,,,,,,,,1,,,81,41
643200,control_change,84,0,5,,,,,,,64,0,5,,,,
643200,control_change,84,0,4,,,,,,,64,0,4,,,,
643200,control_change,120,0,1,,,,,,,64,0,1,,,,
643560,note_off,360,0,4,,,,,,,,,4,,,69,0
643560,note_off,360,0,5,,,,,,,,,5,,,66,0
643560,note_off,360,0,1,,,,,,,,,1,,,81,0
643920,note_on,360,0,1,,,,,,,,,1,,,86,54
644040,note_off,120,0,1,,,,,,,,,1,,,86,0
644040,note_on,0,0,1,,,,,,,,,1,,,85,57
644136,note_off,96,0,1,,,,,,,,,1,,,85,0
644160,note_on,24,0,1,,,,,,,,,1,,,85,59
644280,note_on,0,0,1,,,,,,,,,1,,,83,62
644280,note_off,120,0,1,,,,,,,,,1,,,85,0
644376,note_off,96,0,1,,,,,,,,,1,,,83,0
644400,note_on,24,0,1,,,,,,,,,1,,,83,64
644520,note_on,0,0,1,,,,,,,,,1,,,81,66
644520,note_off,120,0,1,,,,,,,,,1,,,83,0
644616,note_off,96,0,1,,,,,,,,,1,,,81,0
644640,note_on,24,0,1,,,,,,,,,1,,,81,69
644760,note_on,0,0,1,,,,,,,,,1,,,79,71
644760,note_off,120,0,1,,,,,,,,,1,,,81,0
644856,note_off,96,0,1,,,,,,,,,1,,,79,0
644880,note_on,24,0,1,,,,,,,,,1,,,79,73
645000,note_on,0,0,1,,,,,,,,,1,,,78,76
645000,note_off,120,0,1,,,,,,,,,1,,,79,0
645096,note_off,96,0,1,,,,,,,,,1,,,78,0
645120,note_on,1560,0,5,,,,,,,,,5,,,67,81
645120,note_on,24,0,1,,,,,,,,,1,,,83,81
645120,note_on,1560,0,4,,,,,,,,,4,,,73,81
645780,note_off,660,0,5,,,,,,,,,5,,,67,0
645780,note_off,660,0,4,,,,,,,,,4,,,73,0
645787,note_off,667,0,1,,,,,,,,,1,,,83,0
645840,note_on,60,0,4,,,,,,,,,4,,,74,73
645840,note_on,60,0,5,,,,,,,,,5,,,66,73
645840,note_on,53,0,1,,,,,,,,,1,,,81,73
646032,note_off,192,0,4,,,,,,,,,4,,,74,0
646032,note_off,192,0,1,,,,,,,,,1,,,81,0
646032,note_off,192,0,5,,,,,,,,,5,,,66,0
646080,note_on,48,0,5,,,,,,,,,5,,,64,70
646080,note_on,48,0,4,,,,,,,,,4,,,74,70
646080,note_on,48,0,1,,,,,,,,,1,,,80,70
646272,note_off,192,0,5,,,,,,,,,5,,,64,0
646272,note_off,192,0,1,,,,,,,,,1,,,80,0
646272,note_off,192,0,4,,,,,,,,,4,,,74,0
646320,note_on,48,0,5,,,,,,,,,5,,,69,67
646320,note_on,48,0,4,,,,,,,,,4,,,73,67
646320,note_on,48,0,1,,,,,,,,,1,,,79,67
646512,note_off,192,0,1,,,,,,,,,1,,,79,0
646512,note_off,192,0,5,,,,,,,,,5,,,69,0
646512,note_off,192,0,4,,,,,,,,,4,,,73,0
646560,note_on,48,0,1,,,,,,,,,1,,,78,64
646560,note_on,48,0,5,,,,,,,,,5,,,71,64
646560,note_on,48,0,4,,,,,,,,,4,,,74,64
646752,note_off,192,0,5,,,,,,,,,5,,,71,0
646752,note_off,192,0,4,,,,,,,,,4,,,74,0
646752,note_off,192,0,1,,,,,,,,,1,,,78,0
646800,note_on,48,0,4,,,,,,,,,4,,,74,61
646800,note_on,48,0,5,,,,,,,,,5,,,68,61
646800,note_on,48,0,1,,,,,,,,,1,,,77,61
646992,note_off,192,0,1,,,,,,,,,1,,,77,0
646992,note_off,192,0,5,,,,,,,,,5,,,68,0
646992,note_off,192,0,4,,,,,,,,,4,,,74,0
647040,note_on,48,0,4,,,,,,,,,4,,,73,59
647040,note_on,48,0,1,,,,,,,,,1,,,76,59
647040,note_on,48,0,5,,,,,,,,,5,,,69,59
647160,set_tempo,6840,1,0,,,,,,458015,,,,,,,
647232,note_off,192,0,1,,,,,,,,,1,,,76,0
647280,note_on,48,0,1,,,,,,,,,1,,,78,56
647400,note_off,360,0,5,,,,,,,,,5,,,69,0
647400,note_off,360,0,4,,,,,,,,,4,,,73,0
647520,note_on,0,0,1,,,,,,,,,1,,,79,53
647520,note_off,240,0,1,,,,,,,,,1,,,78,0
647760,note_off,240,0,1,,,,,,,,,1,,,79,0
647760,note_on,0,0,1,,,,,,,,,1,,,80,50
647880,set_tempo,720,1,0,,,,,,472440,,,,,,,
648000,note_on,600,0,5,,,,,,,,,5,,,62,55
648000,note_on,600,0,4,,,,,,,,,4,,,66,55
648000,note_off,240,0,1,,,,,,,,,1,,,80,0
648000,note_on,0,0,1,,,,,,,,,1,,,81,55
648000,set_tempo,120,1,0,,,,,,454545,,,,,,,
648156,note_off,156,0,1,,,,,,,,,1,,,81,0
648156,note_off,156,0,5,,,,,,,,,5,,,62,0
648156,note_off,156,0,4,,,,,,,,,4,,,66,0
648240,note_on,84,0,1,,,,,,,,,1,,,81,57
648240,note_on,84,0,4,,,,,,,,,4,,,66,57
648480,note_off,240,0,1,,,,,,,,,1,,,81,0
648480,note_on,0,0,1,,,,,,,,,1,,,83,55
648480,note_on,0,0,4,,,,,,,,,4,,,67,55
648480,note_off,240,0,4,,,,,,,,,4,,,66,0
648720,note_off,240,0,4,,,,,,,,,4,,,67,0
648720,note_on,0,0,4,,,,,,,,,4,,,64,54
648720,note_off,240,0,1,,,,,,,,,1,,,83,0
648720,note_on,0,0,1,,,,,,,,,1,,,79,54
648876,note_off,156,0,1,,,,,,,,,1,,,79,0
648876,note_off,156,0,4,,,,,,,,,4,,,64,0
648960,note_on,84,0,4,,,,,,,,,4,,,69,52
648960,note_on,804,0,5,,,,,,,,,5,,,62,52
648960,note_on,84,0,1,,,,,,,,,1,,,78,52
649116,note_off,156,0,4,,,,,,,,,4,,,69,0
649116,note_off,156,0,1,,,,,,,,,1,,,78,0
649116,note_off,156,0,5,,,,,,,,,5,,,62,0
649200,note_on,84,0,1,,,,,,,,,1,,,78,55
649200,note_on,84,0,4,,,,,,,,,4,,,69,55
649440,note_on,0,0,1,,,,,,,,,1,,,79,54
649440,note_off,240,0,1,,,,,,,,,1,,,78,0
649440,note_on,0,0,4,,,,,,,,,4,,,71,54
649440,note_off,240,0,4,,,,,,,,,4,,,69,0
649680,note_on,0,0,4,,,,,,,,,4,,,67,52
649680,note_on,0,0,1,,,,,,,,,1,,,76,52
649680,note_off,240,0,1,,,,,,,,,1,,,79,0
649680,note_off,240,0,4,,,,,,,,,4,,,71,0
649836,note_off,156,0,1,,,,,,,,,1,,,76,0
649836,note_off,156,0,4,,,,,,,,,4,,,67,0
649920,note_on,804,0,5,,,,,,,,,5,,,62,50
649920,note_on,84,0,1,,,,,,,,,1,,,74,50
649920,note_on,84,0,4,,,,,,,,,4,,,66,50
650076,note_off,156,0,1,,,,,,,,,1,,,74,0
650076,note_off,156,0,5,,,,,,,,,5,,,62,0
650076,note_off,156,0,4,,,,,,,,,4,,,66,0
650160,note_on,84,0,5,,,,,,,,,5,,,62,50
650160,note_on,84,0,4,,,,,,,,,4,,,66,50
650160,note_on,84,0,1,,,,,,,,,1,,,74,50
650316,note_off,156,0,1,,,,,,,,,1,,,74,0
650316,note_off,156,0,5,,,,,,,,,5,,,62,0
650316,note_off,156,0,4,,,,,,,,,4,,,66,0
650400,note_on,84,0,4,,,,,,,,,4,,,61,49
650400,note_on,84,0,1,,,,,,,,,1,,,76,49
650400,note_on,84,0,5,,,,,,,,,5,,,57,49
650556,note_off,156,0,5,,,,,,,,,5,,,57,0
650556,note_off,156,0,1,,,,,,,,,1,,,76,0
650556,note_off,156,0,4,,,,,,,,,4,,,61,0
650640,note_on,84,0,1,,,,,,,,,1,,,76,48
650640,note_on,84,0,5,,,,,,,,,5,,,57,48
650640,note_on,84,0,4,,,,,,,,,4,,,61,48
650796,note_off,156,0,5,,,,,,,,,5,,,57,0
650796,note_off,156,0,1,,,,,,,,,1,,,76,0
650796,note_off,156,0,4,,,,,,,,,4,,,61,0
650880,note_on,84,0,1,,,,,,,,,1,,,77,58
650880,note_on,84,0,5,,,,,,,,,5,,,62,48
651120,note_off,240,0,1,,,,,,,,,1,,,77,0
651120,note_on,0,0,1,,,,,,,,,1,,,78,47
651240,note_off,360,0,5,,,,,,,,,5,,,62,0
651276,note_off,156,0,1,,,,,,,,,1,,,78,0
651360,note_on,84,0,1,,,,,,,,,1,,,74,46
651516,note_off,156,0,1,,,,,,,,,1,,,74,0
651600,note_on,84,0,1,,,,,,,,,1,,,69,46
651720,set_tempo,3720,1,0,,,,,,458015,,,,,,,
651756,note_off,156,0,1,,,,,,,,,1,,,69,0
651840,note_on,600,0,5,,,,,,,,,5,,,50,83
651840,set_tempo,120,1,0,,,,,,454545,,,,,,,
651840,note_on,84,0,1,,,,,,,,,1,,,81,83
651960,note_on,1164,0,4,,,,,,,,,4,,,62,83
651996,note_off,156,0,1,,,,,,,,,1,,,81,0
651996,note_off,156,0,5,,,,,,,,,5,,,50,0
652080,note_off,120,0,4,,,,,,,,,4,,,62,0
652080,note_on,84,0,5,,,,,,,,,5,,,54,83
652080,note_on,84,0,1,,,,,,,,,1,,,86,93
652200,note_on,120,0,4,,,,,,,,,4,,,62,83
652236,note_off,156,0,5,,,,,,,,,5,,,54,0
652320,note_on,84,0,5,,,,,,,,,5,,,57,82
652320,note_off,120,0,4,,,,,,,,,4,,,62,0
652440,note_on,120,0,4,,,,,,,,,4,,,62,82
652476,note_off,156,0,5,,,,,,,,,5,,,57,0
652560,note_on,84,0,5,,,,,,,,,5,,,61,82
652560,note_off,120,0,4,,,,,,,,,4,,,62,0
652560,note_on,0,0,1,,,,,,,,,1,,,81,82
652560,note_off,480,0,1,,,,,,,,,1,,,86,0
652680,note_on,120,0,4,,,,,,,,,4,,,62,82
652716,note_off,156,0,1,,,,,,,,,1,,,81,0
652716,note_off,156,0,5,,,,,,,,,5,,,61,0
652776,note_off,96,0,4,,,,,,,,,4,,,62,0
652800,note_on,84,0,5,,,,,,,,,5,,,50,81
652800,note_on,84,0,1,,,,,,,,,1,,,78,81
652920,note_on,144,0,4,,,,,,,,,4,,,62,81
652956,note_off,156,0,5,,,,,,,,,5,,,50,0
652956,note_off,156,0,1,,,,,,,,,1,,,78,0
653040,note_off,120,0,4,,,,,,,,,4,,,62,0
653040,note_on,84,0,1,,,,,,,,,1,,,81,91
653040,note_on,84,0,5,,,,,,,,,5,,,54,81
653160,note_on,120,0,4,,,,,,,,,4,,,62,81
653196,note_off,156,0,5,,,,,,,,,5,,,54,0
653280,note_off,120,0,4,,,,,,,,,4,,,62,0
653280,note_on,84,0,5,,,,,,,,,5,,,57,81
653400,note_on,120,0,4,,,,,,,,,4,,,62,80
653436,note_off,156,0,5,,,,,,,,,5,,,57,0
653520,note_off,120,0,4,,,,,,,,,4,,,62,0
653520,note_on,84,0,5,,,,,,,,,5,,,61,80
653520,note_on,0,0,1,,,,,,,,,1,,,74,80
653520,note_off,480,0,1,,,,,,,,,1,,,81,0
653640,note_on,120,0,4,,,,,,,,,4,,,62,80
653676,note_off,156,0,1,,,,,,,,,1,,,74,0
653676,note_off,156,0,5,,,,,,,,,5,,,61,0
653736,note_off,96,0,4,,,,,,,,,4,,,62,0
653760,note_on,84,0,5,,,,,,,,,5,,,59,80
653760,note_on,84,0,1,,,,,,,,,1,,,78,80
653880,note_on,144,0,4,,,,,,,,,4,,,66,79
653916,note_off,156,0,5,,,,,,,,,5,,,59,0
653916,note_off,156,0,1,,,,,,,,,1,,,78,0
653976,note_off,96,0,4,,,,,,,,,4,,,66,0
654000,note_on,84,0,1,,,,,,,,,1,,,78,80
654000,note_on,24,0,4,,,,,,,,,4,,,62,79
654096,note_off,96,0,4,,,,,,,,,4,,,62,0
654120,note_on,24,0,4,,,,,,,,,4,,,66,79
654156,note_off,156,0,1,,,,,,,,,1,,,78,0
654180,note_on,24,0,1,,,,,,,,,1,,,78,79
654216,note_off,96,0,4,,,,,,,,,4,,,66,0
654240,note_off,60,0,1,,,,,,,,,1,,,78,0
654240,note_on,0,0,1,,,,,,,,,1,,,76,79
654240,note_on,324,0,5,,,,,,,,,5,,,57,79
654360,note_off,120,0,1,,,,,,,,,1,,,76,0
654360,note_on,144,0,4,,,,,,,,,4,,,67,78
654360,note_on,0,0,1,,,,,,,,,1,,,74,78
654396,note_off,156,0,5,,,,,,,,,5,,,57,0
654456,note_off,96,0,4,,,,,,,,,4,,,67,0
654480,note_on,24,0,4,,,,,,,,,4,,,61,78
654480,note_on,0,0,1,,,,,,,,,1,,,76,77
654480,note_off,120,0,1,,,,,,,,,1,,,74,0
654576,note_off,96,0,4,,,,,,,,,4,,,61,0
654600,note_off,120,0,1,,,,,,,,,1,,,76,0
654600,note_on,0,0,1,,,,,,,,,1,,,78,77
654600,note_on,24,0,4,,,,,,,,,4,,,67,78
654660,set_tempo,2820,1,0,,,,,,458015,,,,,,,
654696,note_off,96,0,4,,,,,,,,,4,,,67,0
654720,note_on,0,0,1,,,,,,,,,1,,,74,76
654720,note_on,0,0,4,,,,,,,,,4,,,62,78
654720,note_off,120,0,1,,,,,,,,,1,,,78,0
654720,note_on,24,0,4,,,,,,,,,4,,,66,78
654876,note_off,0,0,4,,,,,,,,,4,,,66,0
654876,note_off,156,0,4,,,,,,,,,4,,,62,0
654960,note_on,564,0,5,,,,,,,,,5,,,57,76
655080,note_off,360,0,1,,,,,,,,,1,,,74,0
655116,note_off,156,0,5,,,,,,,,,5,,,57,0
655200,note_on,84,0,5,,,,,,,,,5,,,50,75
655356,note_off,156,0,5,,,,,,,,,5,,,50,0
655440,set_tempo,780,1,0,,,,,,472440,,,,,,,
655680,note_on,324,0,5,,,,,,,,,5,,,55,85
655680,marker,240,1,0,,,,,,,,,,,,,
655680,note_on,0,0,2,,,,,,,,,2,,,69,85
655680,note_on,12480,0,2,,,,,,,,,2,,,73,85
655680,note_on,600,0,1,,,,,,,,,1,,,76,85
655680,note_on,0,0,5,,,,,,,,,5,,,43,85
656040,note_off,0,0,2,,,,,,,,,2,,,73,0
656040,note_off,360,0,2,,,,,,,,,2,,,69,0
656040,note_off,360,0,5,,,,,,,,,5,,,43,0
656040,note_off,360,0,1,,,,,,,,,1,,,76,0
656040,note_off,0,0,5,,,,,,,,,5,,,55,0
656160,note_on,120,0,2,,,,,,,,,2,,,74,88
656160,note_on,0,0,2,,,,,,,,,2,,,69,88
656160,note_on,120,0,1,,,,,,,,,1,,,78,88
656160,note_on,120,0,5,,,,,,,,,5,,,42,88
656160,note_on,0,0,5,,,,,,,,,5,,,54,88
656520,note_off,360,0,1,,,,,,,,,1,,,78,0
656520,note_off,360,0,2,,,,,,,,,2,,,69,0
656520,note_off,0,0,2,,,,,,,,,2,,,74,0
656520,note_off,360,0,5,,,,,,,,,5,,,54,0
656520,note_off,0,0,5,,,,,,,,,5,,,42,0
656640,note_on,120,0,5,,,,,,,,,5,,,49,92
656640,note_on,0,0,5,,,,,,,,,5,,,37,92
656640,note_on,0,0,2,,,,,,,,,2,,,76,92
656640,note_on,120,0,2,,,,,,,,,2,,,69,92
656640,note_on,120,0,1,,,,,,,,,1,,,79,92
657000,note_off,0,0,5,,,,,,,,,5,,,49,0
657000,note_off,0,0,2,,,,,,,,,2,,,69,0
657000,note_off,360,0,1,,,,,,,,,1,,,79,0
657000,note_off,360,0,5,,,,,,,,,5,,,37,0
657000,note_off,360,0,2,,,,,,,,,2,,,76,0
657480,note_on,480,0,1,,,,,,,,,1,,,76,51
657576,note_off,96,0,1,,,,,,,,,1,,,76,0
657600,note_on,600,0,5,,,,,,,,,5,,,62,50
657600,note_on,2724,0,4,,,,,,,,,4,,,66,50
657600,note_on,24,0,1,,,,,,,,,1,,,78,50
657720,note_off,120,0,1,,,,,,,,,1,,,78,0
657720,note_on,0,0,1,,,,,,,,,1,,,73,49
657756,note_off,156,0,4,,,,,,,,,4,,,66,0
657756,note_off,156,0,5,,,,,,,,,5,,,62,0
657840,note_on,84,0,4,,,,,,,,,4,,,66,47
657840,note_off,120,0,1,,,,,,,,,1,,,73,0
657840,note_on,84,0,5,,,,,,,,,5,,,62,47
657840,note_on,0,0,1,,,,,,,,,1,,,74,47
657960,note_off,120,0,1,,,,,,,,,1,,,74,0
657960,note_on,0,0,1,,,,,,,,,1,,,78,46
657996,note_off,156,0,5,,,,,,,,,5,,,62,0
657996,note_off,156,0,4,,,,,,,,,4,,,66,0
658080,note_on,84,0,4,,,,,,,,,4,,,67,45
658080,note_off,120,0,1,,,,,,,,,1,,,78,0
658080,note_on,0,0,1,,,,,,,,,1,,,79,45
658080,note_on,84,0,5,,,,,,,,,5,,,64,45
658200,note_on,0,0,1,,,,,,,,,1,,,75,44
658200,note_off,120,0,1,,,,,,,,,1,,,79,0
658236,note_off,156,0,5,,,,,,,,,5,,,64,0
658236,note_off,156,0,4,,,,,,,,,4,,,67,0
658320,note_on,0,0,1,,,,,,,,,1,,,76,43
658320,note_off,120,0,1,,,,,,,,,1,,,75,0
658320,note_on,84,0,5,,,,,,,,,5,,,64,43
658320,note_on,84,0,4,,,,,,,,,4,,,67,43
658440,note_on,0,0,1,,,,,,,,,1,,,79,42
658440,note_off,120,0,1,,,,,,,,,1,,,76,0
658476,note_off,156,0,5,,,,,,,,,5,,,64,0
658476,note_off,156,0,4,,,,,,,,,4,,,67,0
658560,note_off,0,0,1,,,,,,,,,1,,,79,0
658560,control_change,120,0,1,,,,,,,64,0,1,,,,
658560,control_change,84,0,4,,,,,,,64,0,4,,,,
658560,note_on,0,0,1,,,,,,,,,1,,,81,41
658560,note_on,0,0,4,,,,,,,,,4,,,69,41
658560,control_change,1560,0,2,,,,,,,64,0,2,,,,
658560,control_change,15360,0,3,,,,,,,64,0,3,,,,
658560,note_on,0,0,5,,,,,,,,,5,,,66,41
658560,control_change,84,0,5,,,,,,,64,0,5,,,,
658920,note_off,360,0,1,,,,,,,,,1,,,81,0
658920,note_off,360,0,5,,,,,,,,,5,,,66,0
658920,note_off,360,0,4,,,,,,,,,4,,,69,0
659280,note_on,360,0,1,,,,,,,,,1,,,86,54
659400,note_off,120,0,1,,,,,,,,,1,,,86,0
659400,note_on,0,0,1,,,,,,,,,1,,,85,57
659496,note_off,96,0,1,,,,,,,,,1,,,85,0
659520,note_on,24,0,1,,,,,,,,,1,,,85,59
659640,note_off,120,0,1,,,,,,,,,1,,,85,0
659640,note_on,0,0,1,,,,,,,,,1,,,83,62
659736,note_off,96,0,1,,,,,,,,,1,,,83,0
659760,note_on,24,0,1,,,,,,,,,1,,,83,64
659880,note_off,120,0,1,,,,,,,,,1,,,83,0
659880,note_on,0,0,1,,,,,,,,,1,,,81,66
659976,note_off,96,0,1,,,,,,,,,1,,,81,0
660000,note_on,24,0,1,,,,,,,,,1,,,81,69
660120,note_on,0,0,1,,,,,,,,,1,,,79,71
660120,note_off,120,0,1,,,,,,,,,1,,,81,0
660216,note_off,96,0,1,,,,,,,,,1,,,79,0
660240,note_on,24,0,1,,,,,,,,,1,,,79,73
660360,note_off,120,0,1,,,,,,,,,1,,,79,0
660360,note_on,0,0,1,,,,,,,,,1,,,78,76
660456,note_off,96,0,1,,,,,,,,,1,,,78,0
660480,note_on,1560,0,5,,,,,,,,,5,,,67,81
660480,note_on,1560,0,4,,,,,,,,,4,,,73,81
660480,note_on,24,0,1,,,,,,,,,1,,,83,81
661140,note_off,660,0,5,,,,,,,,,5,,,67,0
661140,note_off,660,0,4,,,,,,,,,4,,,73,0
661147,note_off,667,0,1,,,,,,,,,1,,,83,0
661200,note_on,60,0,4,,,,,,,,,4,,,74,73
661200,note_on,53,0,1,,,,,,,,,1,,,81,73
661200,note_on,60,0,5,,,,,,,,,5,,,66,73
661392,note_off,192,0,1,,,,,,,,,1,,,81,0
661392,note_off,192,0,5,,,,,,,,,5,,,66,0
661392,note_off,192,0,4,,,,,,,,,4,,,74,0
661440,note_on,48,0,1,,,,,,,,,1,,,80,70
661440,note_on,48,0,4,,,,,,,,,4,,,74,70
661440,note_on,48,0,5,,,,,,,,,5,,,64,70
661632,note_off,192,0,1,,,,,,,,,1,,,80,0
661632,note_off,192,0,4,,,,,,,,,4,,,74,0
661632,note_off,192,0,5,,,,,,,,,5,,,64,0
661680,note_on,48,0,4,,,,,,,,,4,,,73,67
661680,note_on,48,0,5,,,,,,,,,5,,,69,67
661680,note_on,48,0,1,,,,,,,,,1,,,79,67
661872,note_off,192,0,1,,,,,,,,,1,,,79,0
661872,note_off,192,0,5,,,,,,,,,5,,,69,0
661872,note_off,192,0,4,,,,,,,,,4,,,73,0
661920,note_on,48,0,1,,,,,,,,,1,,,78,64
661920,note_on,48,0,4,,,,,,,,,4,,,74,64
661920,note_on,48,0,5,,,,,,,,,5,,,71,64
662112,note_off,192,0,5,,,,,,,,,5,,,71,0
662112,note_off,192,0,4,,,,,,,,,4,,,74,0
662112,note_off,192,0,1,,,,,,,,,1,,,78,0
662160,note_on,48,0,4,,,,,,,,,4,,,74,61
662160,note_on,48,0,5,,,,,,,,,5,,,68,61
662160,note_on,48,0,1,,,,,,,,,1,,,77,61
662352,note_off,192,0,5,,,,,,,,,5,,,68,0
662352,note_off,192,0,4,,,,,,,,,4,,,74,0
662352,note_off,192,0,1,,,,,,,,,1,,,77,0
662400,note_on,48,0,4,,,,,,,,,4,,,73,59
662400,note_on,48,0,5,,,,,,,,,5,,,69,59
662400,note_on,48,0,1,,,,,,,,,1,,,76,59
662520,set_tempo,6840,1,0,,,,,,458015,,,,,,,
662592,note_off,192,0,1,,,,,,,,,1,,,76,0
662640,note_on,48,0,1,,,,,,,,,1,,,78,56
662760,note_off,360,0,5,,,,,,,,,5,,,69,0
662760,note_off,360,0,4,,,,,,,,,4,,,73,0
662880,note_off,240,0,1,,,,,,,,,1,,,78,0
662880,note_on,0,0,1,,,,,,,,,1,,,79,53
663120,note_on,0,0,1,,,,,,,,,1,,,80,50
663120,note_off,240,0,1,,,,,,,,,1,,,79,0
663240,set_tempo,720,1,0,,,,,,472440,,,,,,,
663360,set_tempo,120,1,0,,,,,,454545,,,,,,,
663360,note_on,600,0,4,,,,,,,,,4,,,66,55
663360,note_off,240,0,1,,,,,,,,,1,,,80,0
663360,note_on,0,0,1,,,,,,,,,1,,,81,55
663360,note_on,600,0,5,,,,,,,,,5,,,62,55
663516,note_off,156,0,1,,,,,,,,,1,,,81,0
663516,note_off,156,0,5,,,,,,,,,5,,,62,0
663516,note_off,156,0,4,,,,,,,,,4,,,66,0
663600,note_on,84,0,4,,,,,,,,,4,,,66,57
663600,note_on,84,0,1,,,,,,,,,1,,,81,57
663840,note_off,240,0,1,,,,,,,,,1,,,81,0
663840,note_on,0,0,1,,,,,,,,,1,,,83,55
663840,note_on,0,0,4,,,,,,,,,4,,,67,55
663840,note_off,240,0,4,,,,,,,,,4,,,66,0
664080,note_off,240,0,4,,,,,,,,,4,,,67,0
664080,note_on,0,0,4,,,,,,,,,4,,,64,54
664080,note_on,0,0,1,,,,,,,,,1,,,79,54
664080,note_off,240,0,1,,,,,,,,,1,,,83,0
664236,note_off,156,0,4,,,,,,,,,4,,,64,0
664236,note_off,156,0,1,,,,,,,,,1,,,79,0
664320,note_on,84,0,1,,,,,,,,,1,,,78,52
664320,note_on,804,0,5,,,,,,,,,5,,,62,52
664320,note_on,84,0,4,,,,,,,,,4,,,69,52
664476,note_off,156,0,4,,,,,,,,,4,,,69,0
664476,note_off,156,0,1,,,,,,,,,1,,,78,0
664476,note_off,156,0,5,,,,,,,,,5,,,62,0
664560,note_on,84,0,4,,,,,,,,,4,,,69,55
664560,note_on,84,0,1,,,,,,,,,1,,,78,55
664800,note_on,0,0,4,,,,,,,,,4,,,71,54
664800,note_off,240,0,4,,,,,,,,,4,,,69,0
664800,note_off,240,0,1,,,,,,,,,1,,,78,0
664800,note_on,0,0,1,,,,,,,,,1,,,79,54
665040,note_on,0,0,1,,,,,,,,,1,,,76,52
665040,note_off,240,0,1,,,,,,,,,1,,,79,0
665040,note_off,240,0,4,,,,,,,,,4,,,71,0
665040,note_on,0,0,4,,,,,,,,,4,,,67,52
665196,note_off,156,0,4,,,,,,,,,4,,,67,0
665196,note_off,156,0,1,,,,,,,,,1,,,76,0
665280,note_on,84,0,1,,,,,,,,,1,,,74,50
665280,note_on,84,0,4,,,,,,,,,4,,,66,50
665280,note_on,804,0,5,,,,,,,,,5,,,62,50
665436,note_off,156,0,1,,,,,,,,,1,,,74,0
665436,note_off,156,0,4,,,,,,,,,4,,,66,0
665436,note_off,156,0,5,,,,,,,,,5,,,62,0
665520,note_on,84,0,4,,,,,,,,,4,,,66,50
665520,note_on,84,0,5,,,,,,,,,5,,,62,50
665520,note_on,84,0,1,,,,,,,,,1,,,74,50
665676,note_off,156,0,5,,,,,,,,,5,,,62,0
665676,note_off,156,0,1,,,,,,,,,1,,,74,0
665676,note_off,156,0,4,,,,,,,,,4,,,66,0
665760,note_on,84,0,5,,,,,,,,,5,,,57,49
665760,note_on,84,0,1,,,,,,,,,1,,,76,49
665760,note_on,84,0,4,,,,,,,,,4,,,61,49
665916,note_off,156,0,5,,,,,,,,,5,,,57,0
665916,note_off,156,0,4,,,,,,,,,4,,,61,0
665916,note_off,156,0,1,,,,,,,,,1,,,76,0
666000,note_on,84,0,4,,,,,,,,,4,,,61,48
666000,note_on,84,0,5,,,,,,,,,5,,,57,48
666000,note_on,84,0,1,,,,,,,,,1,,,76,48
666156,note_off,156,0,5,,,,,,,,,5,,,57,0
666156,note_off,156,0,4,,,,,,,,,4,,,61,0
666156,note_off,156,0,1,,,,,,,,,1,,,76,0
666240,note_on,84,0,5,,,,,,,,,5,,,62,48
666240,note_on,84,0,1,,,,,,,,,1,,,77,58
666480,note_off,240,0,1,,,,,,,,,1,,,77,0
666480,note_on,0,0,1,,,,,,,,,1,,,78,47
666600,note_off,360,0,5,,,,,,,,,5,,,62,0
666636,note_off,156,0,1,,,,,,,,,1,,,78,0
666720,note_on,84,0,1,,,,,,,,,1,,,74,46
666876,note_off,156,0,1,,,,,,,,,1,,,74,0
666960,note_on,84,0,1,,,,,,,,,1,,,69,46
667080,set_tempo,3720,1,0,,,,,,458015,,,,,,,
667116,note_off,156,0,1,,,,,,,,,1,,,69,0
667200,note_on,84,0,1,,,,,,,,,1,,,81,83
667200,set_tempo,120,1,0,,,,,,454545,,,,,,,
667200,note_on,600,0,5,,,,,,,,,5,,,50,83
667320,note_on,1164,0,4,,,,,,,,,4,,,62,83
667356,note_off,156,0,5,,,,,,,,,5,,,50,0
667356,note_off,156,0,1,,,,,,,,,1,,,81,0
667440,note_on,84,0,5,,,,,,,,,5,,,54,83
667440,note_on,84,0,1,,,,,,,,,1,,,86,93
667440,note_off,120,0,4,,,,,,,,,4,,,62,0
667560,note_on,120,0,4,,,,,,,,,4,,,62,83
667596,note_off,156,0,5,,,,,,,,,5,,,54,0
667680,note_off,120,0,4,,,,,,,,,4,,,62,0
667680,note_on,84,0,5,,,,,,,,,5,,,57,82
667800,note_on,120,0,4,,,,,,,,,4,,,62,82
667836,note_off,156,0,5,,,,,,,,,5,,,57,0
667920,note_on,0,0,1,,,,,,,,,1,,,81,82
667920,note_off,480,0,1,,,,,,,,,1,,,86,0
667920,note_on,84,0,5,,,,,,,,,5,,,61,82
667920,note_off,120,0,4,,,,,,,,,4,,,62,0
668040,note_on,120,0,4,,,,,,,,,4,,,62,82
668076,note_off,156,0,5,,,,,,,,,5,,,61,0
668076,note_off,156,0,1,,,,,,,,,1,,,81,0
668136,note_off,96,0,4,,,,,,,,,4,,,62,0
668160,note_on,84,0,1,,,,,,,,,1,,,78,81
668160,note_on,84,0,5,,,,,,,,,5,,,50,81
668280,note_on,144,0,4,,,,,,,,,4,,,62,81
668316,note_off,156,0,5,,,,,,,,,5,,,50,0
668316,note_off,156,0,1,,,,,,,,,1,,,78,0
668400,note_off,120,0,4,,,,,,,,,4,,,62,0
668400,note_on,84,0,1,,,,,,,,,1,,,81,91
668400,note_on,84,0,5,,,,,,,,,5,,,54,81
668520,note_on,120,0,4,,,,,,,,,4,,,62,81
668556,note_off,156,0,5,,,,,,,,,5,,,54,0
668640,note_off,120,0,4,,,,,,,,,4,,,62,0
668640,note_on,84,0,5,,,,,,,,,5,,,57,81
668760,note_on,120,0,4,,,,,,,,,4,,,62,80
668796,note_off,156,0,5,,,,,,,,,5,,,57,0
668880,note_on,84,0,5,,,,,,,,,5,,,61,80
668880,note_on,0,0,1,,,,,,,,,1,,,74,80
668880,note_off,480,0,1,,,,,,,,,1,,,81,0
668880,note_off,120,0,4,,,,,,,,,4,,,62,0
669000,note_on,120,0,4,,,,,,,,,4,,,62,80
669036,note_off,156,0,1,,,,,,,,,1,,,74,0
669036,note_off,156,0,5,,,,,,,,,5,,,61,0
669096,note_off,96,0,4,,,,,,,,,4,,,62,0
669120,note_on,84,0,1,,,,,,,,,1,,,78,80
669120,note_on,84,0,5,,,,,,,,,5,,,59,80
669240,note_on,144,0,4,,,,,,,,,4,,,66,79
669276,note_off,156,0,5,,,,,,,,,5,,,59,0
669276,note_off,156,0,1,,,,,,,,,1,,,78,0
669336,note_off,96,0,4,,,,,,,,,4,,,66,0
669360,note_on,24,0,4,,,,,,,,,4,,,62,79
669360,note_on,84,0,1,,,,,,,,,1,,,78,80
669456,note_off,96,0,4,,,,,,,,,4,,,62,0
669480,note_on,24,0,4,,,,,,,,,4,,,66,79
669516,note_off,156,0,1,,,,,,,,,1,,,78,0
669540,note_on,24,0,1,,,,,,,,,1,,,78,79
669576,note_off,96,0,4,,,,,,,,,4,,,66,0
669600,note_on,0,0,1,,,,,,,,,1,,,76,79
669600,note_on,324,0,5,,,,,,,,,5,,,57,79
669600,note_off,60,0,1,,,,,,,,,1,,,78,0
669720,note_off,120,0,1,,,,,,,,,1,,,76,0
669720,note_on,144,0,4,,,,,,,,,4,,,67,78
669720,note_on,0,0,1,,,,,,,,,1,,,74,78
669756,note_off,156,0,5,,,,,,,,,5,,,57,0
669816,note_off,96,0,4,,,,,,,,,4,,,67,0
669840,note_off,120,0,1,,,,,,,,,1,,,74,0
669840,note_on,0,0,1,,,,,,,,,1,,,76,77
669840,note_on,24,0,4,,,,,,,,,4,,,61,78
669936,note_off,96,0,4,,,,,,,,,4,,,61,0
669960,note_off,120,0,1,,,,,,,,,1,,,76,0
669960,note_on,0,0,1,,,,,,,,,1,,,78,77
669960,note_on,24,0,4,,,,,,,,,4,,,67,78
670020,set_tempo,2820,1,0,,,,,,458015,,,,,,,
670056,note_off,96,0,4,,,,,,,,,4,,,67,0
670080,note_on,0,0,1,,,,,,,,,1,,,74,76
670080,note_on,0,0,4,,,,,,,,,4,,,66,78
670080,note_on,24,0,4,,,,,,,,,4,,,62,78
670080,note_off,120,0,1,,,,,,,,,1,,,78,0
670236,note_off,0,0,4,,,,,,,,,4,,,62,0
670236,note_off,156,0,4,,,,,,,,,4,,,66,0
670320,note_on,564,0,5,,,,,,,,,5,,,57,76
670440,note_off,360,0,1,,,,,,,,,1,,,74,0
670476,note_off,156,0,5,,,,,,,,,5,,,57,0
670560,note_on,84,0,5,,,,,,,,,5,,,50,75
670716,note_off,156,0,5,,,,,,,,,5,,,50,0
670800,set_tempo,780,1,0,,,,,,472440,,,,,,,
671040,marker,0,1,0,,,,,,,,,,,,,
671040,note_on,600,0,1,,,,,,,,,1,,,72,47
671040,note_on,804,0,4,,,,,,,,,4,,,62,47
671040,set_tempo,240,1,0,,,,,,454545,,,,,,,
671040,note_on,324,0,5,,,,,,,,,5,,,54,47
671196,note_off,156,0,5,,,,,,,,,5,,,54,0
671196,note_off,156,0,4,,,,,,,,,4,,,62,0
671196,note_off,156,0,1,,,,,,,,,1,,,72,0
671280,note_on,84,0,5,,,,,,,,,5,,,54,45
671280,note_on,84,0,4,,,,,,,,,4,,,62,45
671280,note_on,84,0,1,,,,,,,,,1,,,72,45
671436,note_off,156,0,4,,,,,,,,,4,,,62,0
671436,note_off,156,0,1,,,,,,,,,1,,,72,0
671436,note_off,156,0,5,,,,,,,,,5,,,54,0
671520,note_on,84,0,4,,,,,,,,,4,,,62,43
671520,note_on,84,0,5,,,,,,,,,5,,,54,43
671520,note_on,84,0,1,,,,,,,,,1,,,72,43
671560,note_on,0,0,1,,,,,,,,,1,,,74,43
671560,note_off,40,0,1,,,,,,,,,1,,,72,0
671600,note_on,0,0,1,,,,,,,,,1,,,72,43
671600,note_off,40,0,1,,,,,,,,,1,,,74,0
671640,note_on,0,0,1,,,,,,,,,1,,,71,42
671640,note_off,40,0,1,,,,,,,,,1,,,72,0
671676,note_off,156,0,4,,,,,,,,,4,,,62,0
671676,note_off,156,0,5,,,,,,,,,5,,,54,0
671760,note_on,0,0,1,,,,,,,,,1,,,72,41
671760,note_on,84,0,4,,,,,,,,,4,,,62,41
671760,note_off,120,0,1,,,,,,,,,1,,,71,0
671760,note_on,84,0,5,,,,,,,,,5,,,54,41
671880,note_off,120,0,1,,,,,,,,,1,,,72,0
671880,note_on,0,0,1,,,,,,,,,1,,,74,40
671916,note_off,156,0,5,,,,,,,,,5,,,54,0
671916,note_off,156,0,4,,,,,,,,,4,,,62,0
672000,note_off,120,0,1,,,,,,,,,1,,,74,0
672000,note_on,0,0,1,,,,,,,,,1,,,71,39
672000,note_on,84,0,4,,,,,,,,,4,,,62,39
672000,note_on,84,0,5,,,,,,,,,5,,,55,39
672360,note_off,360,0,4,,,,,,,,,4,,,62,0
672360,note_off,360,0,1,,,,,,,,,1,,,71,0
672360,note_off,360,0,5,,,,,,,,,5,,,55,0
672840,set_tempo,1800,1,0,,,,,,458015,,,,,,,
672960,note_on,600,0,1,,,,,,,,,1,,,69,39
672960,note_on,600,0,4,,,,,,,,,4,,,62,39
672960,note_on,600,0,5,,,,,,,,,5,,,57,39
673116,note_off,156,0,1,,,,,,,,,1,,,69,0
673116,note_off,156,0,4,,,,,,,,,4,,,62,0
673116,note_off,156,0,5,,,,,,,,,5,,,57,0
673200,note_on,84,0,5,,,,,,,,,5,,,57,38
673200,note_on,84,0,1,,,,,,,,,1,,,69,38
673200,note_on,84,0,4,,,,,,,,,4,,,62,38
673356,note_off,156,0,5,,,,,,,,,5,,,57,0
673356,note_off,156,0,4,,,,,,,,,4,,,62,0
673356,note_off,156,0,1,,,,,,,,,1,,,69,0
673440,note_on,84,0,4,,,,,,,,,4,,,62,36
673440,note_on,84,0,1,,,,,,,,,1,,,69,36
673440,note_on,84,0,5,,,,,,,,,5,,,57,36
673480,note_off,40,0,1,,,,,,,,,1,,,69,0
673480,note_on,0,0,1,,,,,,,,,1,,,71,36
673520,note_off,40,0,1,,,,,,,,,1,,,71,0
673520,note_on,0,0,1,,,,,,,,,1,,,69,35
673560,note_off,40,0,1,,,,,,,,,1,,,69,0
673560,note_on,0,0,1,,,,,,,,,1,,,68,35
673596,note_off,156,0,4,,,,,,,,,4,,,62,0
673596,note_off,156,0,5,,,,,,,,,5,,,57,0
673680,note_on,84,0,5,,,,,,,,,5,,,57,34
673680,note_on,84,0,4,,,,,,,,,4,,,62,34
673680,note_off,120,0,1,,,,,,,,,1,,,68,0
673680,note_on,0,0,1,,,,,,,,,1,,,69,34
673800,note_on,0,0,1,,,,,,,,,1,,,71,33
673800,note_off,120,0,1,,,,,,,,,1,,,69,0
673836,note_off,156,0,4,,,,,,,,,4,,,62,0
673836,note_off,156,0,5,,,,,,,,,5,,,57,0
673920,note_on,84,0,5,,,,,,,,,5,,,59,32
673920,note_off,120,0,1,,,,,,,,,1,,,71,0
673920,note_on,84,0,4,,,,,,,,,4,,,62,32
673920,note_on,0,0,1,,,,,,,,,1,,,67,32
674280,note_off,360,0,5,,,,,,,,,5,,,59,0
674280,note_off,360,0,1,,,,,,,,,1,,,67,0
674280,note_off,360,0,4,,,,,,,,,4,,,62,0
674760,set_tempo,1920,1,0,,,,,,465116,,,,,,,
674880,note_on,600,0,5,,,,,,,,,5,,,58,58
674880,note_on,600,0,4,,,,,,,,,4,,,62,58
674880,note_on,0,0,4,,,,,,,,,4,,,67,58
674880,set_tempo,120,1,0,,,,,,458015,,,,,,,
674880,note_on,600,0,1,,,,,,,,,1,,,79,52
675036,note_off,156,0,1,,,,,,,,,1,,,79,0
675120,note_on,84,0,1,,,,,,,,,1,,,79,54
675276,note_off,156,0,1,,,,,,,,,1,,,79,0
675360,note_on,84,0,1,,,,,,,,,1,,,79,61
675480,note_off,120,0,1,,,,,,,,,1,,,79,0
675480,note_on,0,0,1,,,,,,,,,1,,,78,57
675600,note_off,120,0,1,,,,,,,,,1,,,78,0
675600,note_on,0,0,1,,,,,,,,,1,,,79,57
675720,note_on,0,0,1,,,,,,,,,1,,,81,58
675720,set_tempo,840,1,0,,,,,,465116,,,,,,,
675720,note_off,120,0,1,,,,,,,,,1,,,79,0
675840,note_off,120,0,1,,,,,,,,,1,,,81,0
675840,note_on,0,0,5,,,,,,,,,5,,,57,64
675840,note_off,960,0,5,,,,,,,,,5,,,58,0
675840,note_off,0,0,4,,,,,,,,,4,,,62,0
675840,set_tempo,120,1,0,,,,,,454545,,,,,,,
675840,note_on,0,0,1,,,,,,,,,1,,,79,59
675840,note_on,0,0,4,,,,,,,,,4,,,67,64
675840,note_on,0,0,4,,,,,,,,,4,,,61,64
675840,note_off,960,0,4,,,,,,,,,4,,,67,0
675960,note_on,0,0,1,,,,,,,,,1,,,76,60
675960,note_off,120,0,1,,,,,,,,,1,,,79,0
676080,note_off,120,0,1,,,,,,,,,1,,,76,0
676080,note_on,0,0,1,,,,,,,,,1,,,79,61
676200,note_off,360,0,5,,,,,,,,,5,,,57,0
676200,note_off,120,0,1,,,,,,,,,1,,,79,0
676200,note_on,0,0,1,,,,,,,,,1,,,85,62
676200,note_off,360,0,4,,,,,,,,,4,,,67,0
676200,note_off,0,0,4,,,,,,,,,4,,,61,0
676320,note_off,120,0,1,,,,,,,,,1,,,85,0
676320,note_on,0,0,1,,,,,,,,,1,,,88,63
676440,note_off,120,0,1,,,,,,,,,1,,,88,0
676440,note_on,0,0,1,,,,,,,,,1,,,79,64
676560,note_on,0,0,5,,,,,,,,,5,,,46,75
676560,note_on,360,0,5,,,,,,,,,5,,,58,75
676560,note_off,120,0,1,,,,,,,,,1,,,79,0
676560,note_on,0,0,1,,,,,,,,,1,,,86,75
676680,note_off,120,0,1,,,,,,,,,1,,,86,0
676680,note_on,0,0,1,,,,,,,,,1,,,79,65
676716,note_off,156,0,5,,,,,,,,,5,,,46,0
676716,note_off,0,0,5,,,,,,,,,5,,,58,0
676776,note_off,96,0,1,,,,,,,,,1,,,79,0
676800,note_on,84,0,5,,,,,,,,,5,,,57,72
676800,note_on,0,0,5,,,,,,,,,5,,,45,72
676800,note_on,24,0,1,,,,,,,,,1,,,88,66
676920,note_on,0,0,1,,,,,,,,,1,,,79,67
676920,note_off,120,0,1,,,,,,,,,1,,,88,0
677040,note_on,0,0,1,,,,,,,,,1,,,76,68
677040,note_off,120,0,1,,,,,,,,,1,,,79,0
677160,note_off,120,0,1,,,,,,,,,1,,,76,0
677160,note_on,0,0,1,,,,,,,,,1,,,79,69
677280,note_off,120,0,1,,,,,,,,,1,,,79,0
677280,note_on,0,0,1,,,,,,,,,1,,,88,70
677400,note_off,120,0,1,,,,,,,,,1,,,88,0
677400,note_on,0,0,1,,,,,,,,,1,,,79,71
677467,note_off,0,0,5,,,,,,,,,5,,,57,0
677467,note_off,667,0,5,,,,,,,,,5,,,45,0
677520,note_on,0,0,1,,,,,,,,,1,,,86,82
677520,note_on,0,0,5,,,,,,,,,5,,,58,82
677520,note_on,53,0,5,,,,,,,,,5,,,46,82
677520,note_off,120,0,1,,,,,,,,,1,,,79,0
677640,note_on,0,0,1,,,,,,,,,1,,,79,73
677640,note_off,120,0,1,,,,,,,,,1,,,86,0
677676,note_off,0,0,5,,,,,,,,,5,,,46,0
677676,note_off,156,0,5,,,,,,,,,5,,,58,0
677736,note_off,96,0,1,,,,,,,,,1,,,79,0
677760,note_on,24,0,1,,,,,,,,,1,,,85,74
677760,note_on,0,0,5,,,,,,,,,5,,,57,80
677760,note_on,84,0,5,,,,,,,,,5,,,45,80
677880,note_on,0,0,1,,,,,,,,,1,,,79,74
677880,note_off,120,0,1,,,,,,,,,1,,,85,0
678000,note_on,0,0,1,,,,,,,,,1,,,76,75
678000,note_off,120,0,1,,,,,,,,,1,,,79,0
678120,note_on,0,0,1,,,,,,,,,1,,,79,76
678120,note_off,120,0,1,,,,,,,,,1,,,76,0
678240,note_on,0,0,1,,,,,,,,,1,,,88,77
678240,note_off,120,0,1,,,,,,,,,1,,,79,0
678360,note_on,0,0,1,,,,,,,,,1,,,79,78
678360,note_off,120,0,1,,,,,,,,,1,,,88,0
678427,note_off,0,0,5,,,,,,,,,5,,,45,0
678427,note_off,667,0,5,,,,,,,,,5,,,57,0
678480,note_on,53,0,5,,,,,,,,,5,,,46,89
678480,note_on,0,0,5,,,,,,,,,5,,,58,89
678480,note_on,0,0,1,,,,,,,,,1,,,86,89
678480,note_off,120,0,1,,,,,,,,,1,,,79,0
678600,note_off,120,0,1,,,,,,,,,1,,,86,0
678600,note_on,0,0,1,,,,,,,,,1,,,79,80
678636,note_off,156,0,5,,,,,,,,,5,,,58,0
678636,note_off,0,0,5,,,,,,,,,5,,,46,0
678696,note_off,96,0,1,,,,,,,,,1,,,79,0
678720,note_on,0,0,5,,,,,,,,,5,,,57,81
678720,note_on,84,0,5,,,,,,,,,5,,,45,81
678720,note_on,24,0,1,,,,,,,,,1,,,85,81
678840,note_off,120,0,1,,,,,,,,,1,,,85,0
678840,note_on,0,0,1,,,,,,,,,1,,,79,82
678876,note_off,156,0,5,,,,,,,,,5,,,57,0
678876,note_off,0,0,5,,,,,,,,,5,,,45,0
678960,note_on,0,0,1,,,,,,,,,1,,,86,93
678960,note_off,120,0,1,,,,,,,,,1,,,79,0
678960,note_on,84,0,5,,,,,,,,,5,,,58,93
678960,note_on,0,0,5,,,,,,,,,5,,,46,93
679080,note_on,0,0,1,,,,,,,,,1,,,79,83
679080,note_off,120,0,1,,,,,,,,,1,,,86,0
679116,note_off,0,0,5,,,,,,,,,5,,,58,0
679116,note_off,156,0,5,,,,,,,,,5,,,46,0
679200,note_off,120,0,1,,,,,,,,,1,,,79,0
679200,note_on,0,0,5,,,,,,,,,5,,,45,84
679200,note_on,84,0,5,,,,,,,,,5,,,57,84
679200,note_on,0,0,1,,,,,,,,,1,,,85,84
679320,note_on,0,0,1,,,,,,,,,1,,,79,85
679320,note_off,120,0,1,,,,,,,,,1,,,85,0
679356,note_off,0,0,5,,,,,,,,,5,,,57,0
679356,note_off,156,0,5,,,,,,,,,5,,,45,0
679440,note_on,0,0,1,,,,,,,,,1,,,86,99
679440,note_on,0,0,5,,,,,,,,,5,,,46,99
679440,note_on,84,0,5,,,,,,,,,5,,,58,99
679440,note_off,120,0,1,,,,,,,,,1,,,79,0
679560,note_off,120,0,1,,,,,,,,,1,,,86,0
679560,note_on,0,0,1,,,,,,,,,1,,,79,87
679560,set_tempo,3720,1,0,,,,,,458015,,,,,,,
679596,note_off,0,0,5,,,,,,,,,5,,,58,0
679596,note_off,156,0,5,,,,,,,,,5,,,46,0
679656,note_off,96,0,1,,,,,,,,,1,,,79,0
679680,set_tempo,120,1,0,,,,,,454545,,,,,,,
679680,note_on,0,0,5,,,,,,,,,5,,,69,104
679680,note_on,24,0,1,,,,,,,,,1,,,85,100
679680,note_on,84,0,5,,,,,,,,,5,,,57,104
679800,note_off,120,0,1,,,,,,,,,1,,,85,0
679800,note_on,0,0,1,,,,,,,,,1,,,81,92
679920,note_off,120,0,1,,,,,,,,,1,,,81,0
679920,note_on,0,0,1,,,,,,,,,1,,,88,90
680040,note_off,120,0,1,,,,,,,,,1,,,88,0
680040,note_on,0,0,1,,,,,,,,,1,,,79,89
680160,note_off,120,0,1,,,,,,,,,1,,,79,0
680160,note_on,0,0,1,,,,,,,,,1,,,78,88
680280,note_off,120,0,1,,,,,,,,,1,,,78,0
680280,note_on,0,0,1,,,,,,,,,1,,,81,87
680400,note_off,120,0,1,,,,,,,,,1,,,81,0
680400,note_on,0,0,1,,,,,,,,,1,,,88,86
680520,note_off,120,0,1,,,,,,,,,1,,,88,0
680520,note_on,0,0,1,,,,,,,,,1,,,86,85
680640,note_on,0,0,1,,,,,,,,,1,,,76,84
680640,note_off,120,0,1,,,,,,,,,1,,,86,0
680760,note_on,0,0,1,,,,,,,,,1,,,79,83
680760,note_off,120,0,1,,,,,,,,,1,,,76,0
680880,note_on,0,0,1,,,,,,,,,1,,,86,82
680880,note_off,120,0,1,,,,,,,,,1,,,79,0
681000,note_on,0,0,1,,,,,,,,,1,,,85,81
681000,note_off,120,0,1,,,,,,,,,1,,,86,0
681120,note_off,120,0,1,,,,,,,,,1,,,85,0
681120,note_on,0,0,1,,,,,,,,,1,,,74,80
681240,note_off,120,0,1,,,,,,,,,1,,,74,0
681240,note_on,0,0,1,,,,,,,,,1,,,78,79
681360,note_off,120,0,1,,,,,,,,,1,,,78,0
681360,note_on,0,0,1,,,,,,,,,1,,,85,78
681480,set_tempo,1800,1,0,,,,,,458015,,,,,,,
681480,note_off,120,0,1,,,,,,,,,1,,,85,0
681480,note_on,0,0,1,,,,,,,,,1,,,83,77
681600,note_on,0,0,5,,,,,,,,,5,,,57,81
681600,note_off,1920,0,5,,,,,,,,,5,,,69,0
681600,note_off,0,0,5,,,,,,,,,5,,,57,0
681600,set_tempo,120,1,0,,,,,,454545,,,,,,,
681600,note_off,120,0,1,,,,,,,,,1,,,83,0
681600,note_on,0,0,5,,,,,,,,,5,,,45,81
681600,note_on,0,0,1,,,,,,,,,1,,,73,76
681720,note_on,0,0,1,,,,,,,,,1,,,76,75
681720,note_off,120,0,1,,,,,,,,,1,,,73,0
681840,note_on,0,0,1,,,,,,,,,1,,,83,74
681840,note_off,120,0,1,,,,,,,,,1,,,76,0
681960,note_off,120,0,1,,,,,,,,,1,,,83,0
681960,note_on,0,0,1,,,,,,,,,1,,,81,73
682080,note_on,0,0,1,,,,,,,,,1,,,71,72
682080,note_off,120,0,1,,,,,,,,,1,,,81,0
682200,note_off,120,0,1,,,,,,,,,1,,,71,0
682200,note_on,0,0,1,,,,,,,,,1,,,74,71
682320,note_off,120,0,1,,,,,,,,,1,,,74,0
682320,note_on,0,0,1,,,,,,,,,1,,,81,70
682440,note_off,120,0,1,,,,,,,,,1,,,81,0
682440,note_on,0,0,1,,,,,,,,,1,,,79,69
682560,note_off,120,0,1,,,,,,,,,1,,,79,0
682560,note_on,0,0,1,,,,,,,,,1,,,69,68
682680,note_on,0,0,1,,,,,,,,,1,,,73,67
682680,note_off,120,0,1,,,,,,,,,1,,,69,0
682800,note_on,0,0,1,,,,,,,,,1,,,79,66
682800,note_off,120,0,1,,,,,,,,,1,,,73,0
682920,note_off,120,0,1,,,,,,,,,1,,,79,0
682920,note_on,0,0,1,,,,,,,,,1,,,78,65
683040,note_off,120,0,1,,,,,,,,,1,,,78,0
683040,note_on,0,0,1,,,,,,,,,1,,,67,64
683160,note_off,120,0,1,,,,,,,,,1,,,67,0
683160,note_on,0,0,1,,,,,,,,,1,,,71,63
683280,note_off,120,0,1,,,,,,,,,1,,,71,0
683280,note_on,0,0,1,,,,,,,,,1,,,78,62
683400,set_tempo,1800,1,0,,,,,,458015,,,,,,,
683400,note_on,0,0,1,,,,,,,,,1,,,76,61
683400,note_off,120,0,1,,,,,,,,,1,,,78,0
683520,note_on,0,0,1,,,,,,,,,1,,,66,60
683520,note_off,1920,0,5,,,,,,,,,5,,,57,0
683520,note_off,120,0,1,,,,,,,,,1,,,76,0
683520,note_on,0,0,5,,,,,,,,,5,,,45,65
683520,set_tempo,120,1,0,,,,,,454545,,,,,,,
683520,note_on,0,0,5,,,,,,,,,5,,,33,65
683520,note_off,0,0,5,,,,,,,,,5,,,45,0
683640,note_off,120,0,1,,,,,,,,,1,,,66,0
683640,note_on,0,0,1,,,,,,,,,1,,,69,59
683760,note_off,120,0,1,,,,,,,,,1,,,69,0
683760,note_on,0,0,1,,,,,,,,,1,,,76,58
683880,note_off,120,0,1,,,,,,,,,1,,,76,0
683880,note_on,0,0,1,,,,,,,,,1,,,74,57
684000,note_on,0,0,1,,,,,,,,,1,,,64,56
684000,note_off,120,0,1,,,,,,,,,1,,,74,0
684120,note_off,120,0,1,,,,,,,,,1,,,64,0
684120,note_on,0,0,1,,,,,,,,,1,,,67,55
684240,note_off,120,0,1,,,,,,,,,1,,,67,0
684240,note_on,0,0,1,,,,,,,,,1,,,74,54
684360,note_off,120,0,1,,,,,,,,,1,,,74,0
684360,note_on,0,0,1,,,,,,,,,1,,,73,53
684480,note_on,0,0,1,,,,,,,,,1,,,62,52
684480,note_off,120,0,1,,,,,,,,,1,,,73,0
684600,note_on,0,0,1,,,,,,,,,1,,,66,51
684600,note_off,120,0,1,,,,,,,,,1,,,62,0
684720,note_off,120,0,1,,,,,,,,,1,,,66,0
684720,note_on,0,0,1,,,,,,,,,1,,,73,50
684840,note_off,120,0,1,,,,,,,,,1,,,73,0
684840,note_on,0,0,1,,,,,,,,,1,,,71,49
684960,note_off,120,0,1,,,,,,,,,1,,,71,0
684960,note_on,0,0,1,,,,,,,,,1,,,61,48
685080,note_off,120,0,1,,,,,,,,,1,,,61,0
685080,note_on,0,0,1,,,,,,,,,1,,,64,47
685200,note_off,120,0,1,,,,,,,,,1,,,64,0
685200,note_on,0,0,1,,,,,,,,,1,,,71,46
685320,note_off,120,0,1,,,,,,,,,1,,,71,0
685320,note_on,0,0,1,,,,,,,,,1,,,69,45
685320,set_tempo,1800,1,0,,,,,,458015,,,,,,,
685416,note_off,96,0,1,,,,,,,,,1,,,69,0
685440,note_on,26880,0,3,,,,,,,,,3,,,59,44
685440,set_tempo,120,1,0,,,,,,454545,,,,,,,
685440,note_off,1920,0,5,,,,,,,,,5,,,33,0
685440,note_off,0,0,5,,,,,,,,,5,,,45,0
685560,note_off,120,0,3,,,,,,,,,3,,,59,0
685560,note_on,0,0,3,,,,,,,,,3,,,62,44
685680,note_off,120,0,3,,,,,,,,,3,,,62,0
685680,note_on,0,0,3,,,,,,,,,3,,,65,45
685680,note_on,264,0,1,,,,,,,,,1,,,74,45
685800,note_off,120,0,3,,,,,,,,,3,,,65,0
685800,note_on,0,0,3,,,,,,,,,3,,,70,46
685920,note_on,0,0,3,,,,,,,,,3,,,64,46
685920,note_off,240,0,1,,,,,,,,,1,,,74,0
685920,note_off,120,0,3,,,,,,,,,3,,,70,0
685920,note_on,0,0,1,,,,,,,,,1,,,76,46
686040,note_off,120,0,3,,,,,,,,,3,,,64,0
686040,note_on,0,0,3,,,,,,,,,3,,,68,47
686160,note_on,0,0,1,,,,,,,,,1,,,77,48
686160,note_off,240,0,1,,,,,,,,,1,,,76,0
686160,note_on,0,0,3,,,,,,,,,3,,,62,48
686160,note_off,120,0,3,,,,,,,,,3,,,68,0
686280,note_on,0,0,3,,,,,,,,,3,,,68,48
686280,note_off,120,0,3,,,,,,,,,3,,,62,0
686352,note_off,192,0,1,,,,,,,,,1,,,77,0
686400,note_on,0,0,3,,,,,,,,,3,,,59,49
686400,note_off,120,0,3,,,,,,,,,3,,,68,0
686520,note_off,120,0,3,,,,,,,,,3,,,59,0
686520,note_on,0,0,3,,,,,,,,,3,,,62,50
686640,note_on,288,0,1,,,,,,,,,1,,,74,50
686640,note_on,0,0,3,,,,,,,,,3,,,65,50
686640,note_off,120,0,3,,,,,,,,,3,,,62,0
686760,note_off,120,0,3,,,,,,,,,3,,,65,0
686760,note_on,0,0,3,,,,,,,,,3,,,68,51
686880,note_on,0,0,3,,,,,,,,,3,,,64,52
686880,note_on,0,0,1,,,,,,,,,1,,,76,52
686880,note_off,240,0,1,,,,,,,,,1,,,74,0
686880,note_off,120,0,3,,,,,,,,,3,,,68,0
687000,note_off,120,0,3,,,,,,,,,3,,,64,0
687000,note_on,0,0,3,,,,,,,,,3,,,68,53
687120,note_on,0,0,1,,,,,,,,,1,,,77,53
687120,note_off,120,0,3,,,,,,,,,3,,,68,0
687120,note_on,0,0,3,,,,,,,,,3,,,62,53
687120,note_off,240,0,1,,,,,,,,,1,,,76,0
687240,note_on,0,0,3,,,,,,,,,3,,,68,54
687240,note_off,120,0,3,,,,,,,,,3,,,62,0
687312,note_off,192,0,1,,,,,,,,,1,,,77,0
687360,note_off,120,0,3,,,,,,,,,3,,,68,0
687360,note_on,0,0,3,,,,,,,,,3,,,59,55
687480,note_off,120,0,3,,,,,,,,,3,,,59,0
687480,note_on,0,0,3,,,,,,,,,3,,,62,55
687600,note_on,288,0,1,,,,,,,,,1,,,74,56
687600,note_off,120,0,3,,,,,,,,,3,,,62,0
687600,note_on,0,0,3,,,,,,,,,3,,,65,56
687720,note_on,0,0,3,,,,,,,,,3,,,68,57
687720,note_off,120,0,3,,,,,,,,,3,,,65,0
687840,note_on,0,0,1,,,,,,,,,1,,,76,57
687840,note_off,240,0,1,,,,,,,,,1,,,74,0
687840,note_off,120,0,3,,,,,,,,,3,,,68,0
687840,note_on,0,0,3,,,,,,,,,3,,,64,57
687960,note_on,0,0,3,,,,,,,,,3,,,68,58
687960,note_off,120,0,3,,,,,,,,,3,,,64,0
688080,note_off,120,0,3,,,,,,,,,3,,,68,0
688080,note_on,0,0,3,,,,,,,,,3,,,62,59
688080,note_off,240,0,1,,,,,,,,,1,,,76,0
688080,note_on,0,0,1,,,,,,,,,1,,,77,59
688200,note_off,120,0,3,,,,,,,,,3,,,62,0
688200,note_on,0,0,3,,,,,,,,,3,,,68,59
688272,note_off,192,0,1,,,,,,,,,1,,,77,0
688320,note_off,120,0,3,,,,,,,,,3,,,68,0
688320,note_on,0,0,3,,,,,,,,,3,,,62,60
688320,note_on,48,0,1,,,,,,,,,1,,,77,63
688440,note_on,0,0,3,,,,,,,,,3,,,68,61
688440,note_off,120,0,3,,,,,,,,,3,,,62,0
688560,note_off,240,0,1,,,,,,,,,1,,,77,0
688560,note_on,0,0,1,,,,,,,,,1,,,76,62
688560,note_off,120,0,3,,,,,,,,,3,,,68,0
688560,note_on,0,0,3,,,,,,,,,3,,,64,62
688680,note_on,0,0,3,,,,,,,,,3,,,68,62
688680,note_off,120,0,3,,,,,,,,,3,,,64,0
688752,note_off,192,0,1,,,,,,,,,1,,,76,0
688800,note_on,0,0,3,,,,,,,,,3,,,64,63
688800,note_off,120,0,3,,,,,,,,,3,,,68,0
688800,note_on,48,0,1,,,,,,,,,1,,,76,60
688920,note_on,0,0,3,,,,,,,,,3,,,68,64
688920,note_off,120,0,3,,,,,,,,,3,,,64,0
689040,note_off,240,0,1,,,,,,,,,1,,,76,0
689040,note_on,0,0,1,,,,,,,,,1,,,74,59
689040,note_on,0,0,3,,,,,,,,,3,,,65,64
689040,note_off,120,0,3,,,,,,,,,3,,,68,0
689160,note_on,0,0,3,,,,,,,,,3,,,68,65
689160,set_tempo,3720,1,0,,,,,,458015,,,,,,,
689160,note_off,120,0,3,,,,,,,,,3,,,65,0
689232,note_off,192,0,1,,,,,,,,,1,,,74,0
689256,note_off,96,0,3,,,,,,,,,3,,,68,0
689280,set_tempo,120,1,0,,,,,,454545,,,,,,,
689280,note_on,24,0,3,,,,,,,,,3,,,61,66
689400,note_on,0,0,3,,,,,,,,,3,,,64,66
689400,note_off,120,0,3,,,,,,,,,3,,,61,0
689520,note_on,0,0,3,,,,,,,,,3,,,67,67
689520,note_off,120,0,3,,,,,,,,,3,,,64,0
689520,note_on,4080,0,5,,,,,,,,,5,,,40,67
689640,note_on,0,0,3,,,,,,,,,3,,,70,68
689640,note_off,120,0,3,,,,,,,,,3,,,67,0
689760,note_on,0,0,3,,,,,,,,,3,,,65,68
689760,note_off,120,0,3,,,,,,,,,3,,,70,0
689760,note_on,0,0,5,,,,,,,,,5,,,38,68
689760,note_off,240,0,5,,,,,,,,,5,,,40,0
689880,note_on,0,0,3,,,,,,,,,3,,,70,69
689880,note_off,120,0,3,,,,,,,,,3,,,65,0
690000,note_on,0,0,5,,,,,,,,,5,,,37,70
690000,note_off,240,0,5,,,,,,,,,5,,,38,0
690000,note_off,120,0,3,,,,,,,,,3,,,70,0
690000,note_on,0,0,3,,,,,,,,,3,,,64,70
690120,note_off,120,0,3,,,,,,,,,3,,,64,0
690120,note_on,0,0,3,,,,,,,,,3,,,70,71
690192,note_off,192,0,5,,,,,,,,,5,,,37,0
690240,note_off,120,0,3,,,,,,,,,3,,,70,0
690240,note_on,0,0,3,,,,,,,,,3,,,61,71
690360,note_off,120,0,3,,,,,,,,,3,,,61,0
690360,note_on,0,0,3,,,,,,,,,3,,,64,72
690480,note_off,120,0,3,,,,,,,,,3,,,64,0
690480,note_on,0,0,3,,,,,,,,,3,,,67,73
690480,note_on,288,0,5,,,,,,,,,5,,,40,73
690600,note_off,120,0,3,,,,,,,,,3,,,67,0
690600,note_on,0,0,3,,,,,,,,,3,,,70,73
690720,note_on,0,0,3,,,,,,,,,3,,,65,74
690720,note_on,0,0,5,,,,,,,,,5,,,38,74
690720,note_off,240,0,5,,,,,,,,,5,,,40,0
690720,note_off,120,0,3,,,,,,,,,3,,,70,0
690840,note_on,0,0,3,,,,,,,,,3,,,70,75
690840,note_off,120,0,3,,,,,,,,,3,,,65,0
690960,note_off,120,0,3,,,,,,,,,3,,,70,0
690960,note_off,240,0,5,,,,,,,,,5,,,38,0
690960,note_on,0,0,5,,,,,,,,,5,,,37,75
690960,note_on,0,0,3,,,,,,,,,3,,,64,75
691080,note_off,120,0,3,,,,,,,,,3,,,64,0
691080,note_on,0,0,3,,,,,,,,,3,,,70,76
691152,note_off,192,0,5,,,,,,,,,5,,,37,0
691200,note_on,0,0,3,,,,,,,,,3,,,64,77
691200,note_on,48,0,5,,,,,,,,,5,,,37,77
691200,note_off,120,0,3,,,,,,,,,3,,,70,0
691320,note_off,120,0,3,,,,,,,,,3,,,64,0
691320,note_on,0,0,3,,,,,,,,,3,,,70,77
691440,note_on,0,0,3,,,,,,,,,3,,,62,78
691440,note_off,120,0,3,,,,,,,,,3,,,70,0
691440,note_off,240,0,5,,,,,,,,,5,,,37,0
691440,note_on,0,0,5,,,,,,,,,5,,,38,78
691560,note_on,0,0,3,,,,,,,,,3,,,70,79
691560,note_off,120,0,3,,,,,,,,,3,,,62,0
691632,note_off,192,0,5,,,,,,,,,5,,,38,0
691680,note_on,0,0,3,,,,,,,,,3,,,62,80
691680,note_off,120,0,3,,,,,,,,,3,,,70,0
691680,note_on,48,0,5,,,,,,,,,5,,,38,80
691800,note_on,0,0,3,,,,,,,,,3,,,70,80
691800,note_off,120,0,3,,,,,,,,,3,,,62,0
691920,note_on,0,0,5,,,,,,,,,5,,,40,81
691920,note_off,240,0,5,,,,,,,,,5,,,38,0
691920,note_off,120,0,3,,,,,,,,,3,,,70,0
691920,note_on,0,0,3,,,,,,,,,3,,,61,81
692040,note_off,120,0,3,,,,,,,,,3,,,61,0
692040,note_on,0,0,3,,,,,,,,,3,,,70,82
692112,note_off,192,0,5,,,,,,,,,5,,,40,0
692160,note_on,48,0,5,,,,,,,,,5,,,40,82
692160,note_off,120,0,3,,,,,,,,,3,,,70,0
692160,note_on,0,0,3,,,,,,,,,3,,,61,82
692520,note_off,360,0,5,,,,,,,,,5,,,40,0
692520,note_off,360,0,3,,,,,,,,,3,,,61,0
692640,note_on,120,0,5,,,,,,,,,5,,,38,87
693000,note_off,360,0,5,,,,,,,,,5,,,38,0
693120,note_on,120,0,5,,,,,,,,,5,,,37,90
693480,note_off,360,0,5,,,,,,,,,5,,,37,0
693600,note_on,120,0,5,,,,,,,,,5,,,34,93
693840,set_tempo,4560,1,0,,,,,,465116,,,,,,,
693960,note_off,360,0,5,,,,,,,,,5,,,34,0
694080,set_tempo,240,1,0,,,,,,550458,,,,,,,
694080,note_on,120,0,5,,,,,,,,,5,,,33,98
694080,note_on,0,0,3,,,,,,,,,3,,,40,98
694080,note_on,1560,0,3,,,,,,,,,3,,,37,98
694080,note_on,0,0,3,,,,,,,,,3,,,43,98
694080,note_on,4848,0,1,,,,,,,,,1,,,45,98
695760,note_on,1680,0,1,,,,,,,,,1,,,47,71
695760,set_tempo,1680,1,0,,,,,,535714,,,,,,,
695767,note_off,7,0,1,,,,,,,,,1,,,45,0
695840,note_off,73,0,1,,,,,,,,,1,,,47,0
695840,set_tempo,80,1,0,,,,,,540540,,,,,,,
695840,note_on,0,0,1,,,,,,,,,1,,,45,71
695920,note_on,0,0,1,,,,,,,,,1,,,44,71
695920,note_off,80,0,1,,,,,,,,,1,,,45,0
695920,set_tempo,80,1,0,,,,,,560747,,,,,,,
696000,note_off,80,0,1,,,,,,,,,1,,,44,0
696000,note_on,0,0,1,,,,,,,,,1,,,45,70
696000,set_tempo,80,1,0,,,,,,659340,,,,,,,
696060,note_on,0,0,1,,,,,,,,,1,,,49,70
696060,note_off,60,0,1,,,,,,,,,1,,,45,0
696060,set_tempo,60,1,0,,,,,,638297,,,,,,,
696120,note_off,60,0,1,,,,,,,,,1,,,49,0
696120,note_on,0,0,1,,,,,,,,,1,,,47,70
696180,note_off,60,0,1,,,,,,,,,1,,,47,0
696180,note_on,0,0,1,,,,,,,,,1,,,50,70
696240,note_off,60,0,1,,,,,,,,,1,,,50,0
696240,note_on,0,0,1,,,,,,,,,1,,,49,69
696300,note_off,60,0,1,,,,,,,,,1,,,49,0
696300,note_on,0,0,1,,,,,,,,,1,,,52,69
696360,note_off,60,0,1,,,,,,,,,1,,,52,0
696360,note_on,0,0,1,,,,,,,,,1,,,50,69
696420,note_off,60,0,1,,,,,,,,,1,,,50,0
696420,note_on,0,0,1,,,,,,,,,1,,,54,69
696480,note_off,60,0,1,,,,,,,,,1,,,54,0
696480,note_on,0,0,1,,,,,,,,,1,,,52,69
696540,note_off,60,0,1,,,,,,,,,1,,,52,0
696540,note_on,0,0,1,,,,,,,,,1,,,55,68
696600,note_off,60,0,1,,,,,,,,,1,,,55,0
696600,note_on,0,0,1,,,,,,,,,1,,,54,68
696660,note_off,60,0,1,,,,,,,,,1,,,54,0
696660,note_on,0,0,1,,,,,,,,,1,,,57,68
696720,note_off,60,0,1,,,,,,,,,1,,,57,0
696720,note_on,0,0,1,,,,,,,,,1,,,55,68
696780,note_off,60,0,1,,,,,,,,,1,,,55,0
696780,note_on,0,0,1,,,,,,,,,1,,,59,67
696840,note_off,60,0,1,,,,,,,,,1,,,59,0
696840,note_on,0,0,1,,,,,,,,,1,,,57,67
696900,note_off,60,0,1,,,,,,,,,1,,,57,0
696900,note_on,0,0,1,,,,,,,,,1,,,61,67
696960,note_on,0,0,1,,,,,,,,,1,,,59,67
696960,note_off,60,0,1,,,,,,,,,1,,,61,0
697020,note_on,0,0,1,,,,,,,,,1,,,62,66
697020,note_off,60,0,1,,,,,,,,,1,,,59,0
697080,note_off,60,0,1,,,,,,,,,1,,,62,0
697080,note_on,0,0,1,,,,,,,,,1,,,61,66
697140,note_off,60,0,1,,,,,,,,,1,,,61,0
697140,note_on,0,0,1,,,,,,,,,1,,,64,66
697200,note_off,60,0,1,,,,,,,,,1,,,64,0
697200,note_on,0,0,1,,,,,,,,,1,,,62,66
697260,note_on,0,0,1,,,,,,,,,1,,,66,65
697260,note_off,60,0,1,,,,,,,,,1,,,62,0
697320,note_off,60,0,1,,,,,,,,,1,,,66,0
697320,note_on,0,0,1,,,,,,,,,1,,,64,65
697380,note_off,60,0,1,,,,,,,,,1,,,64,0
697380,note_on,0,0,1,,,,,,,,,1,,,67,65
697440,note_off,60,0,1,,,,,,,,,1,,,67,0
697440,note_on,0,0,1,,,,,,,,,1,,,66,65
697500,note_off,60,0,1,,,,,,,,,1,,,66,0
697500,note_on,0,0,1,,,,,,,,,1,,,69,64
697560,note_off,60,0,1,,,,,,,,,1,,,69,0
697560,note_on,0,0,1,,,,,,,,,1,,,67,64
697620,note_on,0,0,1,,,,,,,,,1,,,71,64
697620,note_off,60,0,1,,,,,,,,,1,,,67,0
697680,note_off,60,0,1,,,,,,,,,1,,,71,0
697680,note_on,0,0,1,,,,,,,,,1,,,69,64
697740,note_on,0,0,1,,,,,,,,,1,,,73,63
697740,note_off,60,0,1,,,,,,,,,1,,,69,0
697800,note_off,60,0,1,,,,,,,,,1,,,73,0
697800,note_on,0,0,1,,,,,,,,,1,,,71,63
697860,note_off,60,0,1,,,,,,,,,1,,,71,0
697860,note_on,0,0,1,,,,,,,,,1,,,74,63
697920,note_on,0,0,1,,,,,,,,,1,,,73,63
697920,note_off,60,0,1,,,,,,,,,1,,,74,0
697980,note_on,0,0,1,,,,,,,,,1,,,76,63
697980,note_off,60,0,1,,,,,,,,,1,,,73,0
698040,note_on,0,0,1,,,,,,,,,1,,,74,62
698040,note_off,60,0,1,,,,,,,,,1,,,76,0
698100,note_on,0,0,1,,,,,,,,,1,,,78,62
698100,note_off,60,0,1,,,,,,,,,1,,,74,0
698160,note_off,60,0,1,,,,,,,,,1,,,78,0
698160,note_on,0,0,1,,,,,,,,,1,,,76,62
698220,note_on,0,0,1,,,,,,,,,1,,,79,62
698220,note_off,60,0,1,,,,,,,,,1,,,76,0
698280,note_on,0,0,1,,,,,,,,,1,,,78,61
698280,note_off,60,0,1,,,,,,,,,1,,,79,0
698280,set_tempo,2220,1,0,,,,,,652173,,,,,,,
698340,note_off,60,0,1,,,,,,,,,1,,,78,0
698340,note_on,0,0,1,,,,,,,,,1,,,81,61
698340,set_tempo,60,1,0,,,,,,674157,,,,,,,
698400,set_tempo,60,1,0,,,,,,821917,,,,,,,
698400,note_off,60,0,1,,,,,,,,,1,,,81,0
698400,note_on,0,0,1,,,,,,,,,1,,,79,61
698460,set_tempo,60,1,0,,,,,,750000,,,,,,,
698460,note_off,60,0,1,,,,,,,,,1,,,79,0
698460,note_on,0,0,1,,,,,,,,,1,,,81,61
698520,note_off,60,0,1,,,,,,,,,1,,,81,0
698520,note_on,0,0,1,,,,,,,,,1,,,79,60
698580,note_on,0,0,1,,,,,,,,,1,,,81,60
698580,note_off,60,0,1,,,,,,,,,1,,,79,0
698640,note_off,60,0,1,,,,,,,,,1,,,81,0
698640,note_on,0,0,1,,,,,,,,,1,,,79,60
698700,note_off,60,0,1,,,,,,,,,1,,,79,0
698700,note_on,0,0,1,,,,,,,,,1,,,81,60
698760,note_off,60,0,1,,,,,,,,,1,,,81,0
698760,note_on,0,0,1,,,,,,,,,1,,,79,59
698820,note_off,60,0,1,,,,,,,,,1,,,79,0
698820,note_on,0,0,1,,,,,,,,,1,,,81,59
698880,note_off,60,0,1,,,,,,,,,1,,,81,0
698880,note_on,0,0,1,,,,,,,,,1,,,79,59
698940,note_on,0,0,1,,,,,,,,,1,,,81,59
698940,note_off,60,0,1,,,,,,,,,1,,,79,0
699000,note_off,60,0,1,,,,,,,,,1,,,81,0
699000,note_on,0,0,1,,,,,,,,,1,,,79,58
699060,note_off,60,0,1,,,,,,,,,1,,,79,0
699060,note_on,0,0,1,,,,,,,,,1,,,81,58
699120,note_off,60,0,1,,,,,,,,,1,,,81,0
699120,note_on,0,0,1,,,,,,,,,1,,,79,58
699180,note_off,60,0,1,,,,,,,,,1,,,79,0
699180,note_on,0,0,1,,,,,,,,,1,,,81,58
699240,note_off,60,0,1,,,,,,,,,1,,,81,0
699240,note_on,0,0,1,,,,,,,,,1,,,79,58
699240,set_tempo,780,1,0,,,,,,769230,,,,,,,
699300,note_off,60,0,1,,,,,,,,,1,,,79,0
699300,note_on,0,0,1,,,,,,,,,1,,,81,57
699300,set_tempo,60,1,0,,,,,,810810,,,,,,,
699360,set_tempo,60,1,0,,,,,,810810,,,,,,,
699360,note_off,60,0,1,,,,,,,,,1,,,81,0
699360,note_on,0,0,1,,,,,,,,,1,,,80,57
699420,set_tempo,60,1,0,,,,,,769230,,,,,,,
699420,note_off,60,0,1,,,,,,,,,1,,,80,0
699420,note_on,0,0,1,,,,,,,,,1,,,81,57
699480,note_on,0,0,1,,,,,,,,,1,,,80,57
699480,note_off,60,0,1,,,,,,,,,1,,,81,0
699540,note_off,60,0,1,,,,,,,,,1,,,80,0
699540,note_on,0,0,1,,,,,,,,,1,,,81,56
699600,note_off,60,0,1,,,,,,,,,1,,,81,0
699600,note_on,0,0,1,,,,,,,,,1,,,80,56
699660,note_on,0,0,1,,,,,,,,,1,,,81,56
699660,note_off,60,0,1,,,,,,,,,1,,,80,0
699720,note_off,60,0,1,,,,,,,,,1,,,81,0
699720,note_on,0,0,1,,,,,,,,,1,,,80,56
699780,note_on,0,0,1,,,,,,,,,1,,,81,55
699780,note_off,60,0,1,,,,,,,,,1,,,80,0
699840,note_off,60,0,1,,,,,,,,,1,,,81,0
699840,note_on,0,0,1,,,,,,,,,1,,,80,55
699900,note_off,60,0,1,,,,,,,,,1,,,80,0
699900,note_on,0,0,1,,,,,,,,,1,,,81,55
699960,note_off,60,0,1,,,,,,,,,1,,,81,0
699960,note_on,0,0,1,,,,,,,,,1,,,80,55
700020,note_on,0,0,1,,,,,,,,,1,,,81,54
700020,note_off,60,0,1,,,,,,,,,1,,,80,0
700080,note_off,60,0,1,,,,,,,,,1,,,81,0
700080,note_on,0,0,1,,,,,,,,,1,,,80,54
700120,note_off,40,0,1,,,,,,,,,1,,,80,0
700120,note_on,0,0,1,,,,,,,,,1,,,81,54
700140,set_tempo,720,1,0,,,,,,789473,,,,,,,
700158,note_off,6078,0,3,,,,,,,,,3,,,43,0
700158,note_off,6078,0,5,,,,,,,,,5,,,33,0
700158,note_off,0,0,3,,,,,,,,,3,,,40,0
700158,note_off,0,0,3,,,,,,,,,3,,,37,0
700160,note_on,0,0,1,,,,,,,,,1,,,80,54
700160,note_off,40,0,1,,,,,,,,,1,,,81,0
700200,note_on,0,0,1,,,,,,,,,1,,,78,54
700200,note_off,40,0,1,,,,,,,,,1,,,80,0
700260,note_off,60,0,1,,,,,,,,,1,,,78,0
700260,set_tempo,120,1,0,,,,,,923076,,,,,,,
700260,note_on,0,0,1,,,,,,,,,1,,,80,53
700320,set_tempo,60,1,0,,,,,,1071428,,,,,,,
700320,note_off,60,0,1,,,,,,,,,1,,,80,0
700320,note_on,0,0,1,,,,,,,,,1,,,83,53
700680,set_tempo,360,1,0,,,,,,1276595,,,,,,,
700680,note_off,360,0,1,,,,,,,,,1,,,83,0
700680,note_on,0,0,1,,,,,,,,,1,,,81,52
700776,note_off,96,0,1,,,,,,,,,1,,,81,0
700800,note_on,642,0,5,,,,,,,,,5,,,62,57
700800,note_on,24,0,1,,,,,,,,,1,,,81,57
700800,note_on,642,0,3,,,,,,,,,3,,,66,57
700800,time_signature,120,1,0,3,4,24,8,,,,,,,,,
700800,set_tempo,0,1,0,,,,,,504201,,,,,,,
700800,marker,0,1,0,,,,,,,,,,,,,
701040,note_on,0,0,3,,,,,,,,,3,,,69,57
701040,note_off,240,0,3,,,,,,,,,3,,,66,0
701280,note_on,0,0,3,,,,,,,,,3,,,66,57
701280,note_off,240,0,3,,,,,,,,,3,,,69,0
701520,note_on,0,0,3,,,,,,,,,3,,,69,56
701520,note_off,240,0,3,,,,,,,,,3,,,66,0
701520,note_off,720,0,1,,,,,,,,,1,,,81,0
701520,note_on,0,0,1,,,,,,,,,1,,,83,53
701580,note_off,60,0,1,,,,,,,,,1,,,83,0
701580,note_on,0,0,1,,,,,,,,,1,,,81,53
701640,note_on,0,0,1,,,,,,,,,1,,,80,53
701640,note_off,60,0,1,,,,,,,,,1,,,81,0
701700,note_on,0,0,1,,,,,,,,,1,,,81,52
701700,note_off,60,0,1,,,,,,,,,1,,,80,0
701760,note_on,0,0,3,,,,,,,,,3,,,66,56
701760,note_off,240,0,3,,,,,,,,,3,,,69,0
701760,note_on,0,0,1,,,,,,,,,1,,,86,52
701760,note_off,60,0,1,,,,,,,,,1,,,81,0
702000,note_on,0,0,3,,,,,,,,,3,,,69,56
702000,note_off,240,0,3,,,,,,,,,3,,,66,0
702120,note_on,0,0,1,,,,,,,,,1,,,81,50
702120,note_off,360,0,1,,,,,,,,,1,,,86,0
702192,note_off,192,0,3,,,,,,,,,3,,,69,0
702210,note_off,1410,0,5,,,,,,,,,5,,,62,0
702216,note_off,96,0,1,,,,,,,,,1,,,81,0
702240,note_on,48,0,3,,,,,,,,,3,,,66,55
702240,note_on,24,0,1,,,,,,,,,1,,,78,55
702240,note_on,30,0,5,,,,,,,,,5,,,62,55
702480,note_off,240,0,3,,,,,,,,,3,,,66,0
702480,note_on,0,0,3,,,,,,,,,3,,,69,55
702720,note_off,240,0,3,,,,,,,,,3,,,69,0
702720,note_on,0,0,3,,,,,,,,,3,,,66,55
702960,note_on,720,0,1,,,,,,,,,1,,,79,52
702960,note_off,240,0,3,,,,,,,,,3,,,66,0
702960,note_on,0,0,3,,,,,,,,,3,,,69,54
702963,note_off,3,0,1,,,,,,,,,1,,,78,0
703020,note_off,57,0,1,,,,,,,,,1,,,79,0
703020,note_on,0,0,1,,,,,,,,,1,,,78,52
703080,note_on,0,0,1,,,,,,,,,1,,,76,52
703080,note_off,60,0,1,,,,,,,,,1,,,78,0
703140,note_off,60,0,1,,,,,,,,,1,,,76,0
703140,note_on,0,0,1,,,,,,,,,1,,,78,52
703200,note_on,0,0,3,,,,,,,,,3,,,66,54
703200,note_off,240,0,3,,,,,,,,,3,,,69,0
703200,note_on,0,0,1,,,,,,,,,1,,,81,51
703200,note_off,60,0,1,,,,,,,,,1,,,78,0
703440,note_on,0,0,3,,,,,,,,,3,,,69,53
703440,note_off,240,0,3,,,,,,,,,3,,,66,0
703560,note_on,0,0,1,,,,,,,,,1,,,78,50
703560,note_off,360,0,1,,,,,,,,,1,,,81,0
703632,note_off,192,0,3,,,,,,,,,3,,,69,0
703650,note_off,1410,0,5,,,,,,,,,5,,,62,0
703656,note_off,96,0,1,,,,,,,,,1,,,78,0
703680,note_on,30,0,5,,,,,,,,,5,,,57,53
703680,note_on,48,0,3,,,,,,,,,3,,,66,53
703680,note_on,24,0,1,,,,,,,,,1,,,74,53
703920,note_on,0,0,3,,,,,,,,,3,,,69,53
703920,note_off,240,0,3,,,,,,,,,3,,,66,0
704160,note_on,0,0,1,,,,,,,,,1,,,74,52
704160,note_off,480,0,1,,,,,,,,,1,,,74,0
704160,note_on,0,0,3,,,,,,,,,3,,,66,52
704160,note_off,240,0,3,,,,,,,,,3,,,69,0
704400,note_off,240,0,3,,,,,,,,,3,,,66,0
704400,note_on,0,0,3,,,,,,,,,3,,,69,52
704640,note_on,0,0,1,,,,,,,,,1,,,76,52
704640,note_off,480,0,1,,,,,,,,,1,,,74,0
704640,note_on,0,0,5,,,,,,,,,5,,,61,52
704640,note_on,0,0,3,,,,,,,,,3,,,67,52
704640,note_off,960,0,5,,,,,,,,,5,,,57,0
704640,note_off,240,0,3,,,,,,,,,3,,,69,0
704720,note_on,0,0,1,,,,,,,,,1,,,78,52
704720,note_off,80,0,1,,,,,,,,,1,,,76,0
704800,note_off,80,0,1,,,,,,,,,1,,,78,0
704800,note_on,0,0,1,,,,,,,,,1,,,76,51
704880,note_off,240,0,3,,,,,,,,,3,,,67,0
704880,note_on,0,0,3,,,,,,,,,3,,,69,51
704880,note_on,0,0,1,,,,,,,,,1,,,74,51
704880,note_off,80,0,1,,,,,,,,,1,,,76,0
705000,note_on,0,0,1,,,,,,,,,1,,,76,51
705000,note_off,120,0,1,,,,,,,,,1,,,74,0
705072,note_off,192,0,3,,,,,,,,,3,,,69,0
705097,note_off,457,0,5,,,,,,,,,5,,,61,0
705120,note_on,23,0,5,,,,,,,,,5,,,62,51
705120,note_off,120,0,1,,,,,,,,,1,,,76,0
705120,note_on,0,0,1,,,,,,,,,1,,,77,51
705120,note_on,48,0,3,,,,,,,,,3,,,66,51
705360,note_off,240,0,1,,,,,,,,,1,,,77,0
705360,note_on,0,0,1,,,,,,,,,1,,,78,46
705480,note_off,360,0,5,,,,,,,,,5,,,62,0
705480,note_off,120,0,1,,,,,,,,,1,,,78,0
705480,note_off,360,0,3,,,,,,,,,3,,,66,0
705600,note_on,120,0,1,,,,,,,,,1,,,73,50
705840,note_off,240,0,1,,,,,,,,,1,,,73,0
705840,note_on,0,0,1,,,,,,,,,1,,,74,46
705960,note_off,120,0,1,,,,,,,,,1,,,74,0
706080,note_on,120,0,1,,,,,,,,,1,,,68,49
706320,note_on,0,0,1,,,,,,,,,1,,,69,41
706320,note_off,240,0,1,,,,,,,,,1,,,68,0
706440,set_tempo,5640,1,0,,,,,,508474,,,,,,,
706440,note_off,120,0,1,,,,,,,,,1,,,69,0
706560,note_on,1080,0,5,,,,,,,,,5,,,62,48
706560,set_tempo,120,1,0,,,,,,504201,,,,,,,
706560,note_on,120,0,1,,,,,,,,,1,,,81,48
706560,note_on,30360,0,4,,,,,,,,,4,,,66,48
706752,note_off,192,0,1,,,,,,,,,1,,,81,0
706800,note_on,48,0,1,,,,,,,,,1,,,82,49
706920,note_off,360,0,4,,,,,,,,,4,,,66,0
706920,note_off,360,0,5,,,,,,,,,5,,,62,0
706992,note_off,192,0,1,,,,,,,,,1,,,82,0
707040,note_on,48,0,1,,,,,,,,,1,,,83,50
707232,note_off,192,0,1,,,,,,,,,1,,,83,0
707280,note_on,48,0,1,,,,,,,,,1,,,85,52
707472,note_off,192,0,1,,,,,,,,,1,,,85,0
707520,note_on,48,0,1,,,,,,,,,1,,,88,56
707760,note_off,240,0,1,,,,,,,,,1,,,88,0
707760,note_on,0,0,1,,,,,,,,,1,,,86,52
707880,set_tempo,1320,1,0,,,,,,508474,,,,,,,
707952,note_off,192,0,1,,,,,,,,,1,,,86,0
708000,note_on,1080,0,5,,,,,,,,,5,,,62,46
708000,set_tempo,120,1,0,,,,,,504201,,,,,,,
708000,note_on,48,0,1,,,,,,,,,1,,,77,46
708000,note_on,1080,0,4,,,,,,,,,4,,,69,46
708192,note_off,192,0,1,,,,,,,,,1,,,77,0
708240,note_on,48,0,1,,,,,,,,,1,,,78,47
708360,end_of_track,0,1,4,,,,,,,,,,,,,
708360,note_off,360,0,4,,,,,,,,,4,,,69,0
708360,note_off,360,0,5,,,,,,,,,5,,,62,0
708432,note_off,192,0,1,,,,,,,,,1,,,78,0
708480,note_on,48,0,1,,,,,,,,,1,,,79,48
708672,note_off,192,0,1,,,,,,,,,1,,,79,0
708720,note_on,48,0,1,,,,,,,,,1,,,80,50
708912,note_off,192,0,1,,,,,,,,,1,,,80,0
708960,note_on,48,0,1,,,,,,,,,1,,,83,54
709200,note_off,240,0,1,,,,,,,,,1,,,83,0
709200,note_on,0,0,1,,,,,,,,,1,,,81,48
709320,set_tempo,1320,1,0,,,,,,508474,,,,,,,
709392,note_off,192,0,1,,,,,,,,,1,,,81,0
709440,set_tempo,120,1,0,,,,,,504201,,,,,,,
709440,note_on,3960,0,3,,,,,,,,,3,,,66,47
709440,note_on,48,0,1,,,,,,,,,1,,,81,47
709440,note_on,1080,0,5,,,,,,,,,5,,,57,47
709680,note_off,240,0,3,,,,,,,,,3,,,66,0
709680,note_on,0,0,3,,,,,,,,,3,,,69,47
709800,note_off,360,0,1,,,,,,,,,1,,,81,0
709800,note_on,0,0,1,,,,,,,,,1,,,78,47
709920,note_on,0,0,3,,,,,,,,,3,,,66,46
709920,note_off,240,0,3,,,,,,,,,3,,,69,0
709920,note_on,0,0,1,,,,,,,,,1,,,74,46
709920,note_off,120,0,1,,,,,,,,,1,,,78,0
710112,note_off,192,0,1,,,,,,,,,1,,,74,0
710160,note_on,0,0,3,,,,,,,,,3,,,69,46
710160,note_off,240,0,3,,,,,,,,,3,,,66,0
710400,note_off,960,0,5,,,,,,,,,5,,,57,0
710400,note_on,288,0,1,,,,,,,,,1,,,76,42
710400,note_off,240,0,3,,,,,,,,,3,,,69,0
710400,note_on,0,0,5,,,,,,,,,5,,,61,45
710400,note_on,0,0,3,,,,,,,,,3,,,67,45
710440,note_on,0,0,1,,,,,,,,,1,,,78,43
710440,note_off,40,0,1,,,,,,,,,1,,,76,0
710480,note_off,40,0,1,,,,,,,,,1,,,78,0
710480,note_on,0,0,1,,,,,,,,,1,,,76,44
710520,note_off,40,0,1,,,,,,,,,1,,,76,0
710520,note_on,0,0,1,,,,,,,,,1,,,74,44
710640,note_off,120,0,1,,,,,,,,,1,,,74,0
710640,note_on,0,0,1,,,,,,,,,1,,,76,44
710640,note_on,0,0,3,,,,,,,,,3,,,69,44
710640,note_off,240,0,3,,,,,,,,,3,,,67,0
710760,note_off,120,0,1,,,,,,,,,1,,,76,0
710760,note_on,0,0,1,,,,,,,,,1,,,78,44
710760,set_tempo,1320,1,0,,,,,,508474,,,,,,,
710832,note_off,192,0,3,,,,,,,,,3,,,69,0
710857,note_off,457,0,5,,,,,,,,,5,,,61,0
710880,note_on,23,0,5,,,,,,,,,5,,,62,44
710880,note_on,0,0,1,,,,,,,,,1,,,74,44
710880,note_off,120,0,1,,,,,,,,,1,,,78,0
710880,set_tempo,120,1,0,,,,,,504201,,,,,,,
710880,note_on,48,0,3,,,,,,,,,3,,,66,44
711240,note_off,360,0,5,,,,,,,,,5,,,62,0
711240,note_off,360,0,3,,,,,,,,,3,,,66,0
711240,note_off,360,0,1,,,,,,,,,1,,,74,0
711480,note_on,240,0,1,,,,,,,,,1,,,86,47
711576,note_off,96,0,1,,,,,,,,,1,,,86,0
711600,note_on,24,0,1,,,,,,,,,1,,,85,46
711696,note_off,96,0,1,,,,,,,,,1,,,85,0
711720,note_on,24,0,1,,,,,,,,,1,,,83,45
711816,note_off,96,0,1,,,,,,,,,1,,,83,0
711840,note_on,24,0,1,,,,,,,,,1,,,81,44
711936,note_off,96,0,1,,,,,,,,,1,,,81,0
711960,note_on,24,0,1,,,,,,,,,1,,,79,43
712056,note_off,96,0,1,,,,,,,,,1,,,79,0
712080,note_on,24,0,1,,,,,,,,,1,,,78,42
712176,note_off,96,0,1,,,,,,,,,1,,,78,0
712200,note_on,24,0,1,,,,,,,,,1,,,76,41
712260,set_tempo,1380,1,0,,,,,,508474,,,,,,,
712296,note_off,96,0,1,,,,,,,,,1,,,76,0
712320,note_on,1080,0,5,,,,,,,,,5,,,57,40
712320,set_tempo,60,1,0,,,,,,504201,,,,,,,
712320,note_on,1080,0,3,,,,,,,,,3,,,66,40
712320,note_on,24,0,1,,,,,,,,,1,,,74,40
712560,note_on,0,0,3,,,,,,,,,3,,,69,40
712560,note_off,240,0,3,,,,,,,,,3,,,66,0
712800,note_on,0,0,3,,,,,,,,,3,,,66,39
712800,note_off,240,0,3,,,,,,,,,3,,,69,0
712800,note_off,480,0,1,,,,,,,,,1,,,74,0
712800,note_on,0,0,1,,,,,,,,,1,,,74,39
713040,note_off,240,0,3,,,,,,,,,3,,,66,0
713040,note_on,0,0,3,,,,,,,,,3,,,69,38
713280,note_off,240,0,3,,,,,,,,,3,,,69,0
713280,note_on,0,0,5,,,,,,,,,5,,,61,38
713280,note_on,0,0,1,,,,,,,,,1,,,76,38
713280,note_on,0,0,3,,,,,,,,,3,,,67,38
713280,note_off,480,0,1,,,,,,,,,1,,,74,0
713280,note_off,960,0,5,,,,,,,,,5,,,57,0
713460,note_off,180,0,1,,,,,,,,,1,,,76,0
713460,note_on,0,0,1,,,,,,,,,1,,,74,38
713520,note_off,240,0,3,,,,,,,,,3,,,67,0
713520,note_on,0,0,3,,,,,,,,,3,,,69,37
713520,note_on,0,0,1,,,,,,,,,1,,,76,37
713520,note_off,60,0,1,,,,,,,,,1,,,74,0
713640,note_on,0,0,1,,,,,,,,,1,,,78,36
713640,note_off,120,0,1,,,,,,,,,1,,,76,0
713640,set_tempo,1320,1,0,,,,,,508474,,,,,,,
713712,note_off,192,0,3,,,,,,,,,3,,,69,0
713737,note_off,457,0,5,,,,,,,,,5,,,61,0
713760,note_on,48,0,3,,,,,,,,,3,,,66,37
713760,note_on,23,0,5,,,,,,,,,5,,,62,37
713760,note_off,120,0,1,,,,,,,,,1,,,78,0
713760,set_tempo,120,1,0,,,,,,504201,,,,,,,
713760,note_on,0,0,1,,,,,,,,,1,,,74,34
714120,note_off,360,0,1,,,,,,,,,1,,,74,0
714120,note_off,360,0,3,,,,,,,,,3,,,66,0
714120,note_off,360,0,5,,,,,,,,,5,,,62,0
714360,note_on,240,0,1,,,,,,,,,1,,,86,75
714420,note_off,60,0,1,,,,,,,,,1,,,86,0
714420,note_on,0,0,1,,,,,,,,,1,,,85,76
714480,note_off,60,0,1,,,,,,,,,1,,,85,0
714480,note_on,0,0,1,,,,,,,,,1,,,83,77
714540,note_on,0,0,1,,,,,,,,,1,,,81,78
714540,note_off,60,0,1,,,,,,,,,1,,,83,0
714600,note_off,60,0,1,,,,,,,,,1,,,81,0
714600,note_on,0,0,1,,,,,,,,,1,,,79,80
714660,note_off,60,0,1,,,,,,,,,1,,,79,0
714660,note_on,0,0,1,,,,,,,,,1,,,78,81
714720,note_off,60,0,1,,,,,,,,,1,,,78,0
714720,note_on,0,0,1,,,,,,,,,1,,,76,82
714780,note_on,0,0,1,,,,,,,,,1,,,74,83
714780,note_off,60,0,1,,,,,,,,,1,,,76,0
714840,note_on,0,0,1,,,,,,,,,1,,,73,85
714840,note_off,60,0,1,,,,,,,,,1,,,74,0
714900,note_on,0,0,1,,,,,,,,,1,,,71,86
714900,note_off,60,0,1,,,,,,,,,1,,,73,0
714960,note_off,60,0,1,,,,,,,,,1,,,71,0
714960,note_on,0,0,1,,,,,,,,,1,,,69,87
715020,note_off,60,0,1,,,,,,,,,1,,,69,0
715020,note_on,0,0,1,,,,,,,,,1,,,67,88
715080,note_off,60,0,1,,,,,,,,,1,,,67,0
715080,note_on,0,0,1,,,,,,,,,1,,,66,89
715140,set_tempo,1380,1,0,,,,,,508474,,,,,,,
715140,note_off,60,0,1,,,,,,,,,1,,,66,0
715140,note_on,0,0,1,,,,,,,,,1,,,64,91
715200,note_off,60,0,1,,,,,,,,,1,,,64,0
715200,note_on,0,0,1,,,,,,,,,1,,,62,96
715200,note_on,1080,0,5,,,,,,,,,5,,,45,96
715200,note_on,1080,0,3,,,,,,,,,3,,,54,96
715200,set_tempo,60,1,0,,,,,,504201,,,,,,,
715440,note_on,0,0,3,,,,,,,,,3,,,57,94
715440,note_off,240,0,3,,,,,,,,,3,,,54,0
715680,note_on,0,0,1,,,,,,,,,1,,,62,92
715680,note_on,0,0,3,,,,,,,,,3,,,54,92
715680,note_off,240,0,3,,,,,,,,,3,,,57,0
715680,note_off,480,0,1,,,,,,,,,1,,,62,0
715920,note_on,0,0,3,,,,,,,,,3,,,57,91
715920,note_off,240,0,3,,,,,,,,,3,,,54,0
716160,note_on,0,0,3,,,,,,,,,3,,,55,89
716160,note_off,240,0,3,,,,,,,,,3,,,57,0
716160,note_on,0,0,1,,,,,,,,,1,,,64,87
716160,note_off,960,0,5,,,,,,,,,5,,,45,0
716160,note_on,0,0,5,,,,,,,,,5,,,49,89
716160,note_off,480,0,1,,,,,,,,,1,,,62,0
716200,note_off,40,0,1,,,,,,,,,1,,,64,0
716200,note_on,0,0,1,,,,,,,,,1,,,66,87
716240,note_on,0,0,1,,,,,,,,,1,,,64,88
716240,note_off,40,0,1,,,,,,,,,1,,,66,0
716280,note_on,0,0,1,,,,,,,,,1,,,62,89
716280,note_off,40,0,1,,,,,,,,,1,,,64,0
716400,note_off,240,0,3,,,,,,,,,3,,,55,0
716400,note_on,0,0,3,,,,,,,,,3,,,57,87
716400,note_off,120,0,1,,,,,,,,,1,,,62,0
716400,note_on,0,0,1,,,,,,,,,1,,,64,87
716520,note_on,0,0,1,,,,,,,,,1,,,66,87
716520,note_off,120,0,1,,,,,,,,,1,,,64,0
716520,set_tempo,1320,1,0,,,,,,508474,,,,,,,
716592,note_off,192,0,3,,,,,,,,,3,,,57,0
716617,note_off,457,0,5,,,,,,,,,5,,,49,0
716640,set_tempo,120,1,0,,,,,,517241,,,,,,,
716640,note_on,0,0,1,,,,,,,,,1,,,62,86
716640,note_on,23,0,5,,,,,,,,,5,,,50,86
716640,note_off,120,0,1,,,,,,,,,1,,,66,0
716640,note_on,48,0,3,,,,,,,,,3,,,54,86
717000,note_off,360,0,5,,,,,,,,,5,,,50,0
717000,end_of_track,0,1,3,,,,,,,,,,,,,
717000,note_off,360,0,3,,,,,,,,,3,,,54,0
717000,note_off,360,0,1,,,,,,,,,1,,,62,0
717600,end_of_track,0,1,0,,,,,,,,,,,,,
717600,note_on,600,0,1,,,,,,,,,1,,,85,105
717600,set_tempo,960,1,0,,,,,,612244,,,,,,,
717600,note_on,59040,0,2,,,,,,,,,2,,,76,105
717600,note_on,600,0,5,,,,,,,,,5,,,45,105
717600,note_on,0,0,2,,,,,,,,,2,,,79,105
717600,note_on,0,0,5,,,,,,,,,5,,,57,105
717960,note_off,0,0,2,,,,,,,,,2,,,76,0
717960,note_off,360,0,2,,,,,,,,,2,,,79,0
717960,note_off,0,0,5,,,,,,,,,5,,,45,0
717960,note_off,360,0,5,,,,,,,,,5,,,57,0
717960,note_off,360,0,1,,,,,,,,,1,,,85,0
718080,note_on,0,0,2,,,,,,,,,2,,,78,99
718080,note_on,120,0,5,,,,,,,,,5,,,38,99
718080,note_on,0,0,5,,,,,,,,,5,,,50,99
718080,note_on,120,0,1,,,,,,,,,1,,,86,99
718080,note_on,120,0,2,,,,,,,,,2,,,74,99
718440,note_off,360,0,5,,,,,,,,,5,,,50,0
718440,note_off,360,0,1,,,,,,,,,1,,,86,0
718440,note_off,0,0,5,,,,,,,,,5,,,38,0
718440,note_off,360,0,2,,,,,,,,,2,,,78,0
718440,note_off,0,0,2,,,,,,,,,2,,,74,0
718440,end_of_track,0,1,2,,,,,,,,,,,,,
718440,end_of_track,0,1,1,,,,,,,,,,,,,
718440,end_of_track,0,1,5,,,,,,,,,,,,,
