tick,type,time,meta,track,numerator,denominator,clocks_per_click,notated_32nd_notes_per_beat,key,tempo,program,channel,control,value,note,velocity
0,track_name,0,1,0,,,,,,,,,,,,
0,control_change,0,0,10,,,,,,,,5,10,96,,
0,control_change,0,0,10,,,,,,,,5,11,127,,
0,track_name,0,1,11,,,,,,,,,,,,
0,program_change,0,0,11,,,,,,,48,6,,,,
0,control_change,0,0,11,,,,,,,,6,7,112,,
0,control_change,0,0,11,,,,,,,,6,10,115,,
0,control_change,0,0,11,,,,,,,,6,11,127,,
0,control_change,0,0,10,,,,,,,,5,7,96,,
0,note_on,0,0,11,,,,,,,,6,,,38,48
0,program_change,0,0,12,,,,,,,56,7,,,,
0,control_change,0,0,12,,,,,,,,7,7,96,,
0,control_change,0,0,12,,,,,,,,7,10,64,,
0,control_change,0,0,12,,,,,,,,7,11,127,,
0,track_name,0,1,13,,,,,,,,,,,,
0,program_change,0,0,13,,,,,,,47,8,,,,
0,control_change,0,0,13,,,,,,,,8,7,112,,
0,track_name,0,1,12,,,,,,,,,,,,
0,program_change,0,0,10,,,,,,,48,5,,,,
0,track_name,0,1,10,,,,,,,,,,,,
0,control_change,0,0,9,,,,,,,,4,11,127,,
0,control_change,0,0,6,,,,,,,,1,7,96,,
0,control_change,0,0,6,,,,,,,,1,10,65,,
0,control_change,0,0,6,,,,,,,,1,11,127,,
0,track_name,0,1,7,,,,,,,,,,,,
0,program_change,0,0,7,,,,,,,48,2,,,,
0,control_change,0,0,7,,,,,,,,2,7,96,,
0,control_change,0,0,7,,,,,,,,2,10,48,,
0,control_change,0,0,7,,,,,,,,2,11,127,,
0,track_name,0,1,8,,,,,,,,,,,,
0,program_change,0,0,8,,,,,,,48,3,,,,
0,control_change,0,0,8,,,,,,,,3,7,96,,
0,control_change,0,0,8,,,,,,,,3,10,24,,
0,control_change,0,0,8,,,,,,,,3,11,127,,
0,track_name,0,1,9,,,,,,,,,,,,
0,program_change,0,0,9,,,,,,,48,4,,,,
0,control_change,0,0,9,,,,,,,,4,7,96,,
0,control_change,0,0,9,,,,,,,,4,10,80,,
0,control_change,0,0,13,,,,,,,,8,10,24,,
0,control_change,0,0,13,,,,,,,,8,11,127,,
0,track_name,0,1,14,,,,,,,,,,,,
0,program_change,0,0,14,,,,,,,57,10,,,,
0,control_change,0,0,18,,,,,,,,12,10,94,,
0,control_change,0,0,18,,,,,,,,12,11,127,,
0,track_name,0,1,19,,,,,,,,,,,,
0,program_change,0,0,19,,,,,,,52,13,,,,
0,control_change,0,0,19,,,,,,,,13,7,127,,
0,control_change,0,0,19,,,,,,,,13,10,48,,
0,control_change,0,0,19,,,,,,,,13,11,127,,
0,track_name,0,1,20,,,,,,,,,,,,
0,program_change,0,0,20,,,,,,,52,14,,,,
0,control_change,0,0,20,,,,,,,,14,7,127,,
0,control_change,0,0,20,,,,,,,,14,10,80,,
0,control_change,0,0,20,,,,,,,,14,11,127,,
0,track_name,0,1,21,,,,,,,,,,,,
0,program_change,0,0,21,,,,,,,19,15,,,,
0,control_change,0,0,21,,,,,,,,15,7,31,,
0,control_change,0,0,21,,,,,,,,15,10,70,,
0,control_change,0,0,21,,,,,,,,15,11,127,,
0,control_change,0,0,18,,,,,,,,12,7,127,,
0,program_change,0,0,6,,,,,,,70,1,,,,
0,program_change,0,0,18,,,,,,,52,12,,,,
0,control_change,0,0,17,,,,,,,,11,11,127,,
0,control_change,0,0,14,,,,,,,,10,7,96,,
0,control_change,0,0,14,,,,,,,,10,10,90,,
0,control_change,0,0,14,,,,,,,,10,11,127,,
0,track_name,0,1,15,,,,,,,,,,,,
0,program_change,0,0,15,,,,,,,57,10,,,,
0,control_change,0,0,15,,,,,,,,10,7,96,,
0,control_change,0,0,15,,,,,,,,10,10,90,,
0,control_change,0,0,15,,,,,,,,10,11,127,,
0,track_name,0,1,16,,,,,,,,,,,,
0,program_change,0,0,16,,,,,,,57,10,,,,
0,control_change,0,0,16,,,,,,,,10,7,96,,
0,control_change,0,0,16,,,,,,,,10,10,90,,
0,control_change,0,0,16,,,,,,,,10,11,127,,
0,track_name,0,1,17,,,,,,,,,,,,
0,program_change,0,0,17,,,,,,,52,11,,,,
0,control_change,0,0,17,,,,,,,,11,7,127,,
0,control_change,0,0,17,,,,,,,,11,10,43,,
0,track_name,0,1,18,,,,,,,,,,,,
0,track_name,0,1,6,,,,,,,,,,,,
0,end_of_track,0,1,22,,,,,,,,,,,,
0,time_signature,0,1,0,4,4,24,8,,,,,,,,
0,track_name,0,1,2,,,,,,,,,,,,
0,end_of_track,0,1,2,,,,,,,,,,,,
0,track_name,0,1,3,,,,,,,,,,,,
0,end_of_track,0,1,3,,,,,,,,,,,,
0,end_of_track,0,1,4,,,,,,,,,,,,
0,track_name,0,1,5,,,,,,,,,,,,
0,program_change,0,0,5,,,,,,,71,0,,,,
0,control_change,0,0,5,,,,,,,,0,7,96,,
0,control_change,0,0,5,,,,,,,,0,10,75,,
0,key_signature,0,1,0,,,,,F,,,,,,,
0,end_of_track,0,1,1,,,,,,,,,,,,
0,track_name,0,1,1,,,,,,,,,,,,
0,set_tempo,0,1,0,,,,,,1200000,,,,,,
0,marker,0,1,0,,,,,,,,,,,,
29,note_on,29,0,11,,,,,,,,6,,,38,0
60,note_on,60,0,8,,,,,,,,3,,,62,48
60,note_on,60,0,9,,,,,,,,4,,,53,48
89,note_on,29,0,8,,,,,,,,3,,,62,0
89,note_on,29,0,9,,,,,,,,4,,,53,0
120,note_on,120,0,6,,,,,,,,1,,,62,48
120,note_on,91,0,11,,,,,,,,6,,,41,48
149,note_on,29,0,11,,,,,,,,6,,,41,0
180,note_on,91,0,9,,,,,,,,4,,,57,48
180,note_on,91,0,8,,,,,,,,3,,,62,48
209,note_on,29,0,8,,,,,,,,3,,,62,0
209,note_on,29,0,9,,,,,,,,4,,,57,0
240,note_on,91,0,11,,,,,,,,6,,,40,48
269,note_on,29,0,11,,,,,,,,6,,,40,0
300,note_on,91,0,8,,,,,,,,3,,,62,48
300,note_on,91,0,9,,,,,,,,4,,,55,48
329,note_on,29,0,9,,,,,,,,4,,,55,0
329,note_on,29,0,8,,,,,,,,3,,,62,0
359,note_on,239,0,6,,,,,,,,1,,,62,0
360,note_on,1,0,6,,,,,,,,1,,,61,48
360,note_on,91,0,11,,,,,,,,6,,,43,48
389,note_on,29,0,11,,,,,,,,6,,,43,0
405,note_on,76,0,9,,,,,,,,4,,,58,48
420,note_on,91,0,8,,,,,,,,3,,,61,48
434,note_on,29,0,9,,,,,,,,4,,,58,0
449,note_on,29,0,8,,,,,,,,3,,,61,0
479,note_on,119,0,6,,,,,,,,1,,,61,0
480,note_on,1,0,6,,,,,,,,1,,,62,48
480,note_on,91,0,11,,,,,,,,6,,,41,48
509,note_on,29,0,11,,,,,,,,6,,,41,0
540,note_on,106,0,9,,,,,,,,4,,,57,48
540,note_on,91,0,8,,,,,,,,3,,,62,48
540,note_on,540,0,7,,,,,,,,2,,,69,48
569,note_on,29,0,8,,,,,,,,3,,,62,0
569,note_on,29,0,9,,,,,,,,4,,,57,0
569,note_on,29,0,7,,,,,,,,2,,,69,0
599,note_on,119,0,6,,,,,,,,1,,,62,0
600,control_change,600,0,5,,,,,,,,0,11,127,,
600,note_on,0,0,5,,,,,,,,0,,,69,48
600,note_on,1,0,6,,,,,,,,1,,,64,48
600,note_on,91,0,11,,,,,,,,6,,,37,48
629,note_on,29,0,11,,,,,,,,6,,,37,0
660,note_on,91,0,8,,,,,,,,3,,,64,48
660,note_on,91,0,9,,,,,,,,4,,,57,48
660,note_on,91,0,7,,,,,,,,2,,,69,48
689,note_on,29,0,7,,,,,,,,2,,,69,0
689,note_on,29,0,9,,,,,,,,4,,,57,0
689,note_on,29,0,8,,,,,,,,3,,,64,0
719,note_on,119,0,6,,,,,,,,1,,,64,0
720,note_on,91,0,11,,,,,,,,6,,,38,48
720,note_on,1,0,6,,,,,,,,1,,,65,48
749,note_on,29,0,11,,,,,,,,6,,,38,0
780,note_on,91,0,8,,,,,,,,3,,,65,48
780,note_on,91,0,7,,,,,,,,2,,,69,48
780,note_on,91,0,9,,,,,,,,4,,,57,48
809,note_on,29,0,9,,,,,,,,4,,,57,0
809,note_on,29,0,8,,,,,,,,3,,,65,0
809,note_on,29,0,7,,,,,,,,2,,,69,0
839,note_on,239,0,5,,,,,,,,0,,,69,0
840,note_on,1,0,5,,,,,,,,0,,,68,48
840,note_on,91,0,11,,,,,,,,6,,,38,48
869,note_on,29,0,11,,,,,,,,6,,,38,0
900,note_on,91,0,7,,,,,,,,2,,,68,48
900,note_on,91,0,8,,,,,,,,3,,,65,48
900,note_on,91,0,9,,,,,,,,4,,,59,48
929,note_on,29,0,7,,,,,,,,2,,,68,0
929,note_on,29,0,8,,,,,,,,3,,,65,0
929,note_on,29,0,9,,,,,,,,4,,,59,0
959,note_on,119,0,5,,,,,,,,0,,,68,0
959,note_on,239,0,6,,,,,,,,1,,,65,0
960,note_on,1,0,5,,,,,,,,0,,,69,48
960,note_on,1,0,6,,,,,,,,1,,,64,48
960,note_on,91,0,11,,,,,,,,6,,,36,48
1019,note_on,59,0,11,,,,,,,,6,,,36,0
1020,note_on,91,0,8,,,,,,,,3,,,64,48
1020,note_on,91,0,7,,,,,,,,2,,,69,48
1020,note_on,91,0,9,,,,,,,,4,,,60,48
1079,note_on,59,0,9,,,,,,,,4,,,60,0
1079,note_on,119,0,5,,,,,,,,0,,,69,0
1079,note_on,59,0,7,,,,,,,,2,,,69,0
1079,note_on,59,0,8,,,,,,,,3,,,64,0
1080,note_on,61,0,11,,,,,,,,6,,,32,48
1080,note_on,1,0,5,,,,,,,,0,,,71,48
1139,note_on,59,0,11,,,,,,,,6,,,32,0
1140,note_on,61,0,9,,,,,,,,4,,,62,48
1140,note_on,61,0,7,,,,,,,,2,,,71,48
1140,note_on,61,0,8,,,,,,,,3,,,64,48
1199,note_on,59,0,9,,,,,,,,4,,,62,0
1199,note_on,59,0,7,,,,,,,,2,,,71,0
1199,note_on,59,0,8,,,,,,,,3,,,64,0
1199,note_on,119,0,5,,,,,,,,0,,,71,0
1200,note_on,1,0,5,,,,,,,,0,,,72,48
1200,note_on,61,0,11,,,,,,,,6,,,33,48
1259,note_on,59,0,11,,,,,,,,6,,,33,0
1260,note_on,61,0,9,,,,,,,,4,,,60,48
1260,note_on,61,0,7,,,,,,,,2,,,72,48
1260,note_on,61,0,8,,,,,,,,3,,,64,48
1319,note_on,359,0,6,,,,,,,,1,,,64,0
1319,note_on,59,0,7,,,,,,,,2,,,72,0
1319,note_on,119,0,5,,,,,,,,0,,,72,0
1319,note_on,59,0,8,,,,,,,,3,,,64,0
1319,note_on,59,0,9,,,,,,,,4,,,60,0
1320,note_on,1,0,5,,,,,,,,0,,,74,48
1320,note_on,0,0,5,,,,,,,,0,,,70,48
1320,note_on,61,0,11,,,,,,,,6,,,38,48
1320,note_on,1,0,6,,,,,,,,1,,,66,48
1379,note_on,59,0,5,,,,,,,,0,,,70,0
1379,note_on,59,0,11,,,,,,,,6,,,38,0
1380,note_on,61,0,7,,,,,,,,2,,,72,48
1380,note_on,61,0,9,,,,,,,,4,,,62,48
1380,note_on,1,0,5,,,,,,,,0,,,69,48
1380,note_on,61,0,8,,,,,,,,3,,,66,48
1439,note_on,119,0,6,,,,,,,,1,,,66,0
1439,note_on,59,0,5,,,,,,,,0,,,69,0
1439,note_on,59,0,7,,,,,,,,2,,,72,0
1439,note_on,59,0,9,,,,,,,,4,,,62,0
1439,note_on,59,0,8,,,,,,,,3,,,66,0
1440,note_on,1,0,5,,,,,,,,0,,,70,48
1440,note_on,1,0,6,,,,,,,,1,,,67,48
1440,note_on,61,0,11,,,,,,,,6,,,31,48
1499,note_on,59,0,11,,,,,,,,6,,,31,0
1500,note_on,61,0,8,,,,,,,,3,,,67,48
1500,note_on,61,0,7,,,,,,,,2,,,70,48
1500,note_on,61,0,9,,,,,,,,4,,,62,48
1559,note_on,59,0,8,,,,,,,,3,,,67,0
1559,note_on,59,0,9,,,,,,,,4,,,62,0
1559,note_on,119,0,5,,,,,,,,0,,,70,0
1559,note_on,0,0,5,,,,,,,,0,,,74,0
1559,note_on,59,0,7,,,,,,,,2,,,70,0
1559,note_on,119,0,6,,,,,,,,1,,,67,0
1560,note_on,0,0,5,,,,,,,,0,,,69,48
1560,note_on,61,0,11,,,,,,,,6,,,33,48
1560,note_on,0,0,6,,,,,,,,1,,,57,48
1560,note_on,1,0,6,,,,,,,,1,,,65,48
1560,note_on,1,0,5,,,,,,,,0,,,73,48
1619,note_on,59,0,5,,,,,,,,0,,,69,0
1619,note_on,59,0,11,,,,,,,,6,,,33,0
1619,note_on,59,0,6,,,,,,,,1,,,65,0
1620,note_on,1,0,6,,,,,,,,1,,,64,48
1620,note_on,61,0,7,,,,,,,,2,,,64,48
1620,note_on,61,0,8,,,,,,,,3,,,61,48
1620,note_on,61,0,9,,,,,,,,4,,,57,48
1620,note_on,1,0,5,,,,,,,,0,,,67,48
1679,note_on,59,0,9,,,,,,,,4,,,57,0
1679,note_on,59,0,6,,,,,,,,1,,,64,0
1679,note_on,0,0,5,,,,,,,,0,,,73,0
1679,note_on,59,0,5,,,,,,,,0,,,67,0
1679,note_on,59,0,7,,,,,,,,2,,,64,0
1679,note_on,59,0,8,,,,,,,,3,,,61,0
1680,note_on,61,0,11,,,,,,,,6,,,41,48
1680,note_on,1,0,6,,,,,,,,1,,,65,48
1680,note_on,1,0,5,,,,,,,,0,,,74,48
1680,note_on,0,0,5,,,,,,,,0,,,69,48
1739,note_on,59,0,11,,,,,,,,6,,,41,0
1740,note_on,61,0,8,,,,,,,,3,,,62,48
1740,note_on,61,0,9,,,,,,,,4,,,57,48
1740,note_on,61,0,7,,,,,,,,2,,,69,48
1799,note_on,0,0,6,,,,,,,,1,,,57,0
1799,note_on,59,0,9,,,,,,,,4,,,57,0
1799,note_on,119,0,6,,,,,,,,1,,,65,0
1799,note_on,59,0,7,,,,,,,,2,,,69,0
1799,note_on,119,0,5,,,,,,,,0,,,69,0
1799,note_on,0,0,5,,,,,,,,0,,,74,0
1799,note_on,59,0,8,,,,,,,,3,,,62,0
1800,note_on,1,0,6,,,,,,,,1,,,56,48
1800,note_on,0,0,5,,,,,,,,0,,,71,48
1800,note_on,1,0,5,,,,,,,,0,,,76,48
1800,note_on,0,0,6,,,,,,,,1,,,59,48
1800,note_on,61,0,11,,,,,,,,6,,,40,48
1859,note_on,59,0,11,,,,,,,,6,,,40,0
1859,note_on,59,0,6,,,,,,,,1,,,59,0
1860,note_on,61,0,7,,,,,,,,2,,,68,48
1860,note_on,1,0,6,,,,,,,,1,,,64,48
1860,note_on,61,0,9,,,,,,,,4,,,59,48
1860,note_on,61,0,8,,,,,,,,3,,,64,48
1919,note_on,0,0,5,,,,,,,,0,,,76,0
1919,note_on,119,0,5,,,,,,,,0,,,71,0
1919,note_on,59,0,7,,,,,,,,2,,,68,0
1919,note_on,59,0,6,,,,,,,,1,,,56,0
1919,note_on,59,0,8,,,,,,,,3,,,64,0
1919,note_on,59,0,9,,,,,,,,4,,,59,0
1920,note_on,1,0,6,,,,,,,,1,,,57,48
1920,note_on,0,0,5,,,,,,,,0,,,72,48
1920,note_on,61,0,11,,,,,,,,6,,,38,48
1920,note_on,1,0,5,,,,,,,,0,,,77,48
1979,note_on,59,0,6,,,,,,,,1,,,64,0
1979,note_on,59,0,5,,,,,,,,0,,,72,0
1979,note_on,59,0,11,,,,,,,,6,,,38,0
1980,note_on,61,0,9,,,,,,,,4,,,65,48
1980,note_on,1,0,5,,,,,,,,0,,,71,48
1980,note_on,1,0,6,,,,,,,,1,,,62,48
1980,note_on,61,0,8,,,,,,,,3,,,69,48
1980,note_on,61,0,7,,,,,,,,2,,,72,48
2009,note_on,29,0,5,,,,,,,,0,,,71,0
2009,note_on,29,0,6,,,,,,,,1,,,62,0
2010,note_on,1,0,5,,,,,,,,0,,,69,48
2010,note_on,1,0,6,,,,,,,,1,,,60,48
2039,note_on,29,0,6,,,,,,,,1,,,60,0
2039,note_on,0,0,6,,,,,,,,1,,,57,0
2039,note_on,59,0,9,,,,,,,,4,,,65,0
2039,note_on,29,0,5,,,,,,,,0,,,69,0
2039,note_on,59,0,8,,,,,,,,3,,,69,0
2039,note_on,59,0,7,,,,,,,,2,,,72,0
2040,note_on,1,0,6,,,,,,,,1,,,59,48
2040,note_on,0,0,6,,,,,,,,1,,,62,48
2040,note_on,61,0,11,,,,,,,,6,,,43,48
2040,note_on,1,0,5,,,,,,,,0,,,67,48
2099,note_on,59,0,11,,,,,,,,6,,,43,0
2100,note_on,61,0,9,,,,,,,,4,,,65,48
2100,note_on,61,0,8,,,,,,,,3,,,67,48
2100,note_on,61,0,7,,,,,,,,2,,,71,48
2159,note_on,59,0,7,,,,,,,,2,,,71,0
2159,note_on,119,0,5,,,,,,,,0,,,77,0
2159,note_on,59,0,8,,,,,,,,3,,,67,0
2159,note_on,59,0,9,,,,,,,,4,,,65,0
2159,note_on,119,0,6,,,,,,,,1,,,62,0
2159,note_on,0,0,6,,,,,,,,1,,,59,0
2160,note_on,1,0,5,,,,,,,,0,,,76,48
2160,note_on,61,0,11,,,,,,,,6,,,36,48
2160,note_on,1,0,6,,,,,,,,1,,,60,48
2160,note_on,0,0,6,,,,,,,,1,,,64,48
2219,note_on,59,0,11,,,,,,,,6,,,36,0
2220,note_on,61,0,7,,,,,,,,2,,,72,48
2220,note_on,61,0,9,,,,,,,,4,,,64,48
2220,note_on,61,0,8,,,,,,,,3,,,67,48
2279,note_on,119,0,5,,,,,,,,0,,,76,0
2279,note_on,59,0,8,,,,,,,,3,,,67,0
2279,note_on,59,0,9,,,,,,,,4,,,64,0
2279,note_on,0,0,5,,,,,,,,0,,,67,0
2279,note_on,59,0,7,,,,,,,,2,,,72,0
2280,note_on,61,0,11,,,,,,,,6,,,33,48
2280,note_on,0,0,5,,,,,,,,0,,,72,48
2280,note_on,1,0,5,,,,,,,,0,,,69,48
2339,note_on,59,0,11,,,,,,,,6,,,33,0
2339,note_on,59,0,5,,,,,,,,0,,,69,0
2340,note_on,61,0,9,,,,,,,,4,,,69,48
2340,note_on,1,0,5,,,,,,,,0,,,67,48
2340,note_on,61,0,8,,,,,,,,3,,,72,48
2340,note_on,61,0,7,,,,,,,,2,,,76,48
2399,note_on,59,0,5,,,,,,,,0,,,67,0
2399,note_on,59,0,9,,,,,,,,4,,,69,0
2399,note_on,239,0,6,,,,,,,,1,,,60,0
2399,note_on,59,0,7,,,,,,,,2,,,76,0
2399,note_on,59,0,8,,,,,,,,3,,,72,0
2400,note_on,1,0,6,,,,,,,,1,,,57,48
2400,note_on,1,0,5,,,,,,,,0,,,65,48
2400,note_on,61,0,11,,,,,,,,6,,,38,48
2459,note_on,59,0,11,,,,,,,,6,,,38,0
2460,note_on,61,0,9,,,,,,,,4,,,65,48
2460,note_on,61,0,8,,,,,,,,3,,,72,48
2460,note_on,61,0,7,,,,,,,,2,,,74,48
2519,note_on,59,0,9,,,,,,,,4,,,65,0
2519,note_on,59,0,8,,,,,,,,3,,,72,0
2519,note_on,119,0,6,,,,,,,,1,,,57,0
2519,note_on,119,0,5,,,,,,,,0,,,72,0
2519,note_on,0,0,6,,,,,,,,1,,,64,0
2519,note_on,59,0,7,,,,,,,,2,,,74,0
2520,note_on,1,0,6,,,,,,,,1,,,50,48
2520,note_on,0,0,6,,,,,,,,1,,,62,48
2520,note_on,1,0,5,,,,,,,,0,,,70,48
2520,note_on,61,0,11,,,,,,,,6,,,38,48
2579,note_on,59,0,5,,,,,,,,0,,,70,0
2579,note_on,59,0,11,,,,,,,,6,,,38,0
2580,note_on,61,0,7,,,,,,,,2,,,74,48
2580,note_on,61,0,8,,,,,,,,3,,,69,48
2580,note_on,1,0,5,,,,,,,,0,,,69,48
2580,note_on,61,0,9,,,,,,,,4,,,65,48
2639,note_on,59,0,7,,,,,,,,2,,,74,0
2639,note_on,59,0,8,,,,,,,,3,,,69,0
2639,note_on,59,0,9,,,,,,,,4,,,65,0
2639,note_on,59,0,5,,,,,,,,0,,,69,0
2639,note_on,0,0,5,,,,,,,,0,,,65,0
2639,note_on,119,0,6,,,,,,,,1,,,50,0
2640,note_on,61,0,11,,,,,,,,6,,,40,48
2640,note_on,0,0,5,,,,,,,,0,,,64,48
2640,note_on,1,0,6,,,,,,,,1,,,52,48
2640,note_on,1,0,5,,,,,,,,0,,,68,48
2699,note_on,59,0,11,,,,,,,,6,,,40,0
2699,note_on,59,0,6,,,,,,,,1,,,62,0
2699,note_on,59,0,5,,,,,,,,0,,,68,0
2700,note_on,61,0,9,,,,,,,,4,,,64,48
2700,note_on,61,0,8,,,,,,,,3,,,69,48
2700,note_on,61,0,7,,,,,,,,2,,,72,48
2700,note_on,1,0,6,,,,,,,,1,,,60,48
2700,note_on,1,0,5,,,,,,,,0,,,69,48
2759,note_on,59,0,9,,,,,,,,4,,,64,0
2759,note_on,59,0,6,,,,,,,,1,,,60,0
2759,note_on,59,0,8,,,,,,,,3,,,69,0
2759,note_on,59,0,7,,,,,,,,2,,,72,0
2759,note_on,59,0,5,,,,,,,,0,,,64,0
2760,note_on,61,0,11,,,,,,,,6,,,40,48
2760,note_on,1,0,5,,,,,,,,0,,,62,48
2760,note_on,1,0,6,,,,,,,,1,,,59,48
2819,note_on,59,0,11,,,,,,,,6,,,40,0
2819,note_on,59,0,5,,,,,,,,0,,,69,0
2820,note_on,61,0,9,,,,,,,,4,,,62,48
2820,note_on,61,0,7,,,,,,,,2,,,71,48
2820,note_on,61,0,8,,,,,,,,3,,,68,48
2820,note_on,1,0,5,,,,,,,,0,,,68,48
2879,note_on,59,0,5,,,,,,,,0,,,68,0
2879,note_on,119,0,6,,,,,,,,1,,,59,0
2879,note_on,0,0,6,,,,,,,,1,,,52,0
2879,note_on,59,0,8,,,,,,,,3,,,68,0
2879,note_on,0,0,5,,,,,,,,0,,,62,0
2879,note_on,59,0,7,,,,,,,,2,,,71,0
2879,note_on,59,0,9,,,,,,,,4,,,62,0
2880,note_on,1,0,6,,,,,,,,1,,,57,48
2880,note_on,0,0,5,,,,,,,,0,,,60,48
2880,note_on,1,0,5,,,,,,,,0,,,69,48
2880,note_on,61,0,11,,,,,,,,6,,,45,48
2939,note_on,59,0,11,,,,,,,,6,,,45,0
2940,note_on,61,0,7,,,,,,,,2,,,69,48
2940,note_on,61,0,9,,,,,,,,4,,,60,48
2940,note_on,61,0,8,,,,,,,,3,,,69,48
2999,note_on,59,0,8,,,,,,,,3,,,69,0
2999,note_on,119,0,5,,,,,,,,0,,,60,0
2999,note_on,0,0,5,,,,,,,,0,,,69,0
2999,note_on,119,0,6,,,,,,,,1,,,57,0
2999,note_on,59,0,7,,,,,,,,2,,,69,0
2999,note_on,59,0,9,,,,,,,,4,,,60,0
3000,note_on,61,0,11,,,,,,,,6,,,43,48
3000,note_on,3000,0,16,,,,,,,,10,,,55,72
3000,note_on,3000,0,15,,,,,,,,10,,,61,72
3000,note_on,3000,0,14,,,,,,,,10,,,70,72
3059,note_on,59,0,11,,,,,,,,6,,,43,0
3060,note_on,61,0,7,,,,,,,,2,,,82,72
3060,note_on,61,0,8,,,,,,,,3,,,76,72
3060,note_on,0,0,8,,,,,,,,3,,,73,72
3060,note_on,61,0,9,,,,,,,,4,,,67,72
3119,note_on,59,0,9,,,,,,,,4,,,67,0
3119,note_on,119,0,15,,,,,,,,10,,,61,0
3119,note_on,119,0,16,,,,,,,,10,,,55,0
3119,note_on,119,0,14,,,,,,,,10,,,70,0
3119,note_on,59,0,7,,,,,,,,2,,,82,0
3119,note_on,59,0,8,,,,,,,,3,,,73,0
3119,note_on,0,0,8,,,,,,,,3,,,76,0
3120,note_on,1,0,16,,,,,,,,10,,,53,72
3120,note_on,1,0,14,,,,,,,,10,,,69,72
3120,note_on,61,0,11,,,,,,,,6,,,41,48
3120,note_on,1,0,15,,,,,,,,10,,,62,72
3179,note_on,59,0,11,,,,,,,,6,,,41,0
3180,note_on,61,0,7,,,,,,,,2,,,81,72
3180,note_on,0,0,8,,,,,,,,3,,,77,72
3180,note_on,61,0,9,,,,,,,,4,,,65,72
3180,note_on,61,0,8,,,,,,,,3,,,74,72
3239,note_on,119,0,15,,,,,,,,10,,,62,0
3239,note_on,119,0,14,,,,,,,,10,,,69,0
3239,note_on,59,0,8,,,,,,,,3,,,77,0
3239,note_on,119,0,16,,,,,,,,10,,,53,0
3239,note_on,59,0,9,,,,,,,,4,,,65,0
3239,note_on,0,0,8,,,,,,,,3,,,74,0
3239,note_on,59,0,7,,,,,,,,2,,,81,0
3240,note_on,1,0,14,,,,,,,,10,,,67,72
3240,note_on,3240,0,12,,,,,,,,7,,,69,76
3240,note_on,1,0,15,,,,,,,,10,,,61,72
3240,note_on,1,0,16,,,,,,,,10,,,52,72
3240,note_on,0,0,12,,,,,,,,7,,,57,76
3240,note_on,61,0,11,,,,,,,,6,,,40,48
3240,note_on,3240,0,13,,,,,,,,8,,,45,72
3299,note_on,59,0,12,,,,,,,,7,,,57,0
3299,note_on,59,0,13,,,,,,,,8,,,45,0
3299,note_on,0,0,12,,,,,,,,7,,,69,0
3299,note_on,59,0,11,,,,,,,,6,,,40,0
3300,note_on,0,0,8,,,,,,,,3,,,79,72
3300,note_on,61,0,8,,,,,,,,3,,,69,72
3300,note_on,1,0,12,,,,,,,,7,,,69,76
3300,note_on,0,0,12,,,,,,,,7,,,57,76
3300,note_on,61,0,7,,,,,,,,2,,,85,72
3300,note_on,1,0,13,,,,,,,,8,,,45,72
3300,note_on,61,0,9,,,,,,,,4,,,64,72
3359,note_on,119,0,16,,,,,,,,10,,,52,0
3359,note_on,59,0,13,,,,,,,,8,,,45,0
3359,note_on,59,0,7,,,,,,,,2,,,85,0
3359,note_on,59,0,9,,,,,,,,4,,,64,0
3359,note_on,119,0,15,,,,,,,,10,,,61,0
3359,note_on,119,0,14,,,,,,,,10,,,67,0
3359,note_on,0,0,12,,,,,,,,7,,,69,0
3359,note_on,59,0,12,,,,,,,,7,,,57,0
3359,note_on,59,0,8,,,,,,,,3,,,79,0
3359,note_on,0,0,8,,,,,,,,3,,,69,0
3360,note_on,1,0,9,,,,,,,,4,,,62,72
3360,note_on,1,0,14,,,,,,,,10,,,65,72
3360,note_on,61,0,11,,,,,,,,6,,,38,48
3360,note_on,1,0,13,,,,,,,,8,,,50,72
3360,note_on,1,0,16,,,,,,,,10,,,50,72
3360,note_on,1,0,15,,,,,,,,10,,,62,72
3360,note_on,1,0,12,,,,,,,,7,,,69,76
3360,note_on,0,0,12,,,,,,,,7,,,62,76
3390,note_on,31,0,7,,,,,,,,2,,,86,72
3390,note_on,31,0,8,,,,,,,,3,,,86,72
3419,note_on,59,0,11,,,,,,,,6,,,38,0
3419,note_on,59,0,9,,,,,,,,4,,,62,0
3449,note_on,59,0,7,,,,,,,,2,,,86,0
3449,note_on,59,0,8,,,,,,,,3,,,86,0
3450,note_on,1,0,7,,,,,,,,2,,,74,72
3450,note_on,1,0,8,,,,,,,,3,,,74,72
3479,note_on,119,0,12,,,,,,,,7,,,62,0
3479,note_on,119,0,14,,,,,,,,10,,,65,0
3479,note_on,0,0,12,,,,,,,,7,,,69,0
3479,note_on,119,0,15,,,,,,,,10,,,62,0
3479,note_on,29,0,7,,,,,,,,2,,,74,0
3479,note_on,119,0,13,,,,,,,,8,,,50,0
3479,note_on,119,0,16,,,,,,,,10,,,50,0
3479,note_on,29,0,8,,,,,,,,3,,,74,0
3480,note_on,481,0,6,,,,,,,,1,,,50,72
3480,note_on,61,0,9,,,,,,,,4,,,62,72
3480,note_on,0,0,21,,,,,,,,15,,,69,72
3480,note_on,61,0,11,,,,,,,,6,,,38,48
3480,note_on,0,0,21,,,,,,,,15,,,65,72
3480,note_on,3480,0,21,,,,,,,,15,,,50,72
3480,note_on,3480,0,10,,,,,,,,5,,,50,48
3480,note_on,3480,0,20,,,,,,,,14,,,50,72
3480,note_on,0,0,21,,,,,,,,15,,,74,72
3480,note_on,1,0,16,,,,,,,,10,,,50,72
3510,note_on,31,0,7,,,,,,,,2,,,74,72
3510,note_on,31,0,8,,,,,,,,3,,,74,72
3539,note_on,59,0,9,,,,,,,,4,,,62,0
3539,note_on,59,0,11,,,,,,,,6,,,38,0
3569,note_on,59,0,8,,,,,,,,3,,,74,0
3569,note_on,59,0,7,,,,,,,,2,,,74,0
3570,note_on,1,0,7,,,,,,,,2,,,62,72
3570,note_on,1,0,8,,,,,,,,3,,,62,72
3599,note_on,29,0,7,,,,,,,,2,,,62,0
3599,note_on,29,0,8,,,,,,,,3,,,62,0
3600,note_on,61,0,11,,,,,,,,6,,,38,48
3600,note_on,61,0,9,,,,,,,,4,,,62,72
3630,note_on,31,0,8,,,,,,,,3,,,70,72
3630,note_on,31,0,7,,,,,,,,2,,,70,72
3659,note_on,59,0,11,,,,,,,,6,,,38,0
3659,note_on,179,0,20,,,,,,,,14,,,50,0
3659,note_on,179,0,16,,,,,,,,10,,,50,0
3659,note_on,59,0,9,,,,,,,,4,,,62,0
3660,note_on,1,0,20,,,,,,,,14,,,50,72
3660,note_on,1,0,16,,,,,,,,10,,,50,72
3689,note_on,59,0,8,,,,,,,,3,,,70,0
3689,note_on,59,0,7,,,,,,,,2,,,70,0
3690,note_on,1,0,8,,,,,,,,3,,,58,72
3690,note_on,1,0,7,,,,,,,,2,,,58,72
3719,note_on,0,0,21,,,,,,,,15,,,50,0
3719,note_on,59,0,16,,,,,,,,10,,,50,0
3719,note_on,0,0,21,,,,,,,,15,,,65,0
3719,note_on,29,0,8,,,,,,,,3,,,58,0
3719,note_on,0,0,21,,,,,,,,15,,,69,0
3719,note_on,29,0,7,,,,,,,,2,,,58,0
3719,note_on,239,0,10,,,,,,,,5,,,50,0
3719,note_on,239,0,21,,,,,,,,15,,,74,0
3719,note_on,59,0,20,,,,,,,,14,,,50,0
3719,note_on,239,0,6,,,,,,,,1,,,50,0
3720,note_on,3720,0,19,,,,,,,,13,,,57,72
3720,note_on,61,0,9,,,,,,,,4,,,61,72
3720,note_on,1,0,6,,,,,,,,1,,,57,72
3720,note_on,1,0,21,,,,,,,,15,,,57,72
3720,note_on,0,0,21,,,,,,,,15,,,73,72
3720,note_on,0,0,21,,,,,,,,15,,,76,72
3720,note_on,1,0,20,,,,,,,,14,,,49,72
3720,note_on,61,0,11,,,,,,,,6,,,37,48
3720,note_on,0,0,6,,,,,,,,1,,,49,72
3720,note_on,1,0,10,,,,,,,,5,,,57,48
3720,note_on,0,0,21,,,,,,,,15,,,69,72
3720,note_on,241,0,15,,,,,,,,10,,,57,72
3720,note_on,1,0,16,,,,,,,,10,,,49,72
3750,note_on,31,0,8,,,,,,,,3,,,76,72
3750,note_on,31,0,7,,,,,,,,2,,,76,72
3779,note_on,59,0,11,,,,,,,,6,,,37,0
3779,note_on,59,0,16,,,,,,,,10,,,49,0
3779,note_on,59,0,9,,,,,,,,4,,,61,0
3779,note_on,59,0,20,,,,,,,,14,,,49,0
3780,note_on,1,0,16,,,,,,,,10,,,49,72
3780,note_on,1,0,20,,,,,,,,14,,,49,72
3809,note_on,59,0,8,,,,,,,,3,,,76,0
3809,note_on,59,0,7,,,,,,,,2,,,76,0
3810,note_on,1,0,7,,,,,,,,2,,,64,72
3810,note_on,1,0,8,,,,,,,,3,,,64,72
3839,note_on,59,0,16,,,,,,,,10,,,49,0
3839,note_on,59,0,20,,,,,,,,14,,,49,0
3839,note_on,29,0,7,,,,,,,,2,,,64,0
3839,note_on,119,0,6,,,,,,,,1,,,49,0
3839,note_on,29,0,8,,,,,,,,3,,,64,0
3840,note_on,1,0,6,,,,,,,,1,,,50,72
3840,note_on,1,0,20,,,,,,,,14,,,50,72
3840,note_on,61,0,11,,,,,,,,6,,,38,48
3840,note_on,1,0,16,,,,,,,,10,,,50,72
3840,note_on,61,0,9,,,,,,,,4,,,62,72
3870,note_on,31,0,7,,,,,,,,2,,,77,72
3870,note_on,31,0,8,,,,,,,,3,,,77,72
3899,note_on,179,0,15,,,,,,,,10,,,57,0
3899,note_on,179,0,19,,,,,,,,13,,,57,0
3899,note_on,59,0,9,,,,,,,,4,,,62,0
3899,note_on,59,0,11,,,,,,,,6,,,38,0
3900,note_on,1,0,19,,,,,,,,13,,,57,72
3900,note_on,1,0,15,,,,,,,,10,,,57,72
3929,note_on,59,0,8,,,,,,,,3,,,77,0
3929,note_on,59,0,7,,,,,,,,2,,,77,0
3930,note_on,1,0,8,,,,,,,,3,,,65,72
3930,note_on,1,0,7,,,,,,,,2,,,65,72
3959,note_on,119,0,20,,,,,,,,14,,,50,0
3959,note_on,0,0,6,,,,,,,,1,,,57,0
3959,note_on,0,0,21,,,,,,,,15,,,73,0
3959,note_on,0,0,21,,,,,,,,15,,,57,0
3959,note_on,239,0,21,,,,,,,,15,,,69,0
3959,note_on,119,0,6,,,,,,,,1,,,50,0
3959,note_on,59,0,19,,,,,,,,13,,,57,0
3959,note_on,119,0,16,,,,,,,,10,,,50,0
3959,note_on,29,0,7,,,,,,,,2,,,65,0
3959,note_on,29,0,8,,,,,,,,3,,,65,0
3959,note_on,59,0,15,,,,,,,,10,,,57,0
3959,note_on,239,0,10,,,,,,,,5,,,57,0
3959,note_on,0,0,21,,,,,,,,15,,,76,0
3960,note_on,1,0,16,,,,,,,,10,,,52,72
3960,note_on,961,0,5,,,,,,,,0,,,62,72
3960,note_on,481,0,14,,,,,,,,10,,,62,72
3960,note_on,1,0,20,,,,,,,,14,,,52,72
3960,note_on,3960,0,18,,,,,,,,12,,,62,72
3960,note_on,1,0,19,,,,,,,,13,,,56,72
3960,note_on,1,0,10,,,,,,,,5,,,62,48
3960,note_on,61,0,11,,,,,,,,6,,,40,48
3960,note_on,61,0,9,,,,,,,,4,,,64,72
3960,note_on,1,0,21,,,,,,,,15,,,62,72
3960,note_on,0,0,21,,,,,,,,15,,,56,72
3960,note_on,0,0,6,,,,,,,,1,,,52,72
3960,note_on,1,0,15,,,,,,,,10,,,56,72
3960,note_on,1,0,6,,,,,,,,1,,,56,72
3960,note_on,0,0,10,,,,,,,,5,,,56,48
3990,note_on,31,0,8,,,,,,,,3,,,71,72
3990,note_on,31,0,7,,,,,,,,2,,,71,72
4019,note_on,59,0,15,,,,,,,,10,,,56,0
4019,note_on,59,0,19,,,,,,,,13,,,56,0
4019,note_on,59,0,11,,,,,,,,6,,,40,0
4019,note_on,59,0,9,,,,,,,,4,,,64,0
4020,note_on,1,0,15,,,,,,,,10,,,56,72
4020,note_on,1,0,19,,,,,,,,13,,,56,72
4049,note_on,59,0,7,,,,,,,,2,,,71,0
4049,note_on,59,0,8,,,,,,,,3,,,71,0
4050,note_on,1,0,7,,,,,,,,2,,,59,72
4050,note_on,1,0,8,,,,,,,,3,,,59,72
4079,note_on,0,0,6,,,,,,,,1,,,56,0
4079,note_on,119,0,6,,,,,,,,1,,,52,0
4079,note_on,29,0,7,,,,,,,,2,,,59,0
4079,note_on,59,0,19,,,,,,,,13,,,56,0
4079,note_on,119,0,20,,,,,,,,14,,,52,0
4079,note_on,29,0,8,,,,,,,,3,,,59,0
4079,note_on,119,0,21,,,,,,,,15,,,56,0
4079,note_on,119,0,16,,,,,,,,10,,,52,0
4079,note_on,59,0,15,,,,,,,,10,,,56,0
4079,note_on,119,0,10,,,,,,,,5,,,56,0
4080,note_on,1,0,16,,,,,,,,10,,,53,72
4080,note_on,1,0,20,,,,,,,,14,,,53,72
4080,note_on,1,0,21,,,,,,,,15,,,57,72
4080,note_on,61,0,11,,,,,,,,6,,,41,48
4080,note_on,1,0,6,,,,,,,,1,,,57,72
4080,note_on,61,0,9,,,,,,,,4,,,65,72
4080,note_on,1,0,10,,,,,,,,5,,,57,48
4080,note_on,1,0,19,,,,,,,,13,,,57,72
4080,note_on,1,0,15,,,,,,,,10,,,57,72
4080,note_on,0,0,6,,,,,,,,1,,,53,72
4110,note_on,31,0,8,,,,,,,,3,,,69,72
4110,note_on,31,0,7,,,,,,,,2,,,69,72
4139,note_on,179,0,18,,,,,,,,12,,,62,0
4139,note_on,59,0,9,,,,,,,,4,,,65,0
4139,note_on,59,0,11,,,,,,,,6,,,41,0
4139,note_on,179,0,14,,,,,,,,10,,,62,0
4140,note_on,1,0,18,,,,,,,,12,,,62,72
4140,note_on,1,0,14,,,,,,,,10,,,62,72
4169,note_on,59,0,8,,,,,,,,3,,,69,0
4169,note_on,59,0,7,,,,,,,,2,,,69,0
4170,note_on,1,0,7,,,,,,,,2,,,57,72
4170,note_on,1,0,8,,,,,,,,3,,,57,72
4199,note_on,0,0,10,,,,,,,,5,,,62,0
4199,note_on,119,0,10,,,,,,,,5,,,57,0
4199,note_on,0,0,21,,,,,,,,15,,,62,0
4199,note_on,119,0,21,,,,,,,,15,,,57,0
4199,note_on,119,0,20,,,,,,,,14,,,53,0
4199,note_on,59,0,18,,,,,,,,12,,,62,0
4199,note_on,239,0,5,,,,,,,,0,,,62,0
4199,note_on,119,0,16,,,,,,,,10,,,53,0
4199,note_on,119,0,6,,,,,,,,1,,,53,0
4199,note_on,0,0,6,,,,,,,,1,,,57,0
4199,note_on,119,0,19,,,,,,,,13,,,57,0
4199,note_on,119,0,15,,,,,,,,10,,,57,0
4199,note_on,29,0,7,,,,,,,,2,,,57,0
4199,note_on,29,0,8,,,,,,,,3,,,57,0
4199,note_on,59,0,14,,,,,,,,10,,,62,0
4200,note_on,1,0,19,,,,,,,,13,,,55,72
4200,note_on,1,0,18,,,,,,,,12,,,61,72
4200,note_on,1,0,20,,,,,,,,14,,,52,72
4200,note_on,1,0,16,,,,,,,,10,,,52,72
4200,note_on,61,0,11,,,,,,,,6,,,40,48
4200,note_on,1,0,15,,,,,,,,10,,,55,72
4200,note_on,1,0,5,,,,,,,,0,,,69,72
4200,note_on,0,0,5,,,,,,,,0,,,61,72
4200,note_on,1,0,6,,,,,,,,1,,,55,72
4200,note_on,0,0,6,,,,,,,,1,,,52,72
4200,note_on,0,0,21,,,,,,,,15,,,67,72
4200,note_on,1,0,21,,,,,,,,15,,,52,72
4200,note_on,61,0,9,,,,,,,,4,,,64,72
4200,note_on,0,0,21,,,,,,,,15,,,73,72
4200,note_on,1,0,14,,,,,,,,10,,,61,72
4200,note_on,0,0,21,,,,,,,,15,,,69,72
4200,note_on,4200,0,17,,,,,,,,11,,,69,72
4230,note_on,31,0,7,,,,,,,,2,,,79,72
4230,note_on,31,0,8,,,,,,,,3,,,79,72
4259,note_on,0,0,21,,,,,,,,15,,,67,0
4259,note_on,59,0,9,,,,,,,,4,,,64,0
4259,note_on,59,0,14,,,,,,,,10,,,61,0
4259,note_on,59,0,18,,,,,,,,12,,,61,0
4259,note_on,59,0,11,,,,,,,,6,,,40,0
4259,note_on,59,0,21,,,,,,,,15,,,73,0
4259,note_on,0,0,21,,,,,,,,15,,,69,0
4259,note_on,0,0,21,,,,,,,,15,,,52,0
4260,note_on,1,0,18,,,,,,,,12,,,61,72
4260,note_on,1,0,14,,,,,,,,10,,,61,72
4289,note_on,59,0,8,,,,,,,,3,,,79,0
4289,note_on,59,0,7,,,,,,,,2,,,79,0
4290,note_on,1,0,7,,,,,,,,2,,,67,72
4290,note_on,1,0,8,,,,,,,,3,,,67,72
4319,note_on,119,0,19,,,,,,,,13,,,55,0
4319,note_on,29,0,8,,,,,,,,3,,,67,0
4319,note_on,119,0,15,,,,,,,,10,,,55,0
4319,note_on,119,0,16,,,,,,,,10,,,52,0
4319,note_on,59,0,18,,,,,,,,12,,,61,0
4319,note_on,59,0,14,,,,,,,,10,,,61,0
4319,note_on,29,0,7,,,,,,,,2,,,67,0
4319,note_on,119,0,6,,,,,,,,1,,,52,0
4319,note_on,0,0,6,,,,,,,,1,,,55,0
4319,note_on,119,0,20,,,,,,,,14,,,52,0
4319,note_on,119,0,5,,,,,,,,0,,,61,0
4320,note_on,1,0,20,,,,,,,,14,,,50,72
4320,note_on,1,0,14,,,,,,,,10,,,62,72
4320,note_on,1,0,18,,,,,,,,12,,,62,72
4320,note_on,0,0,21,,,,,,,,15,,,74,72
4320,note_on,0,0,21,,,,,,,,15,,,65,72
4320,note_on,61,0,9,,,,,,,,4,,,62,72
4320,note_on,0,0,6,,,,,,,,1,,,50,72
4320,note_on,1,0,6,,,,,,,,1,,,53,72
4320,note_on,1,0,15,,,,,,,,10,,,53,72
4320,note_on,61,0,11,,,,,,,,6,,,38,48
4320,note_on,1,0,5,,,,,,,,0,,,62,72
4320,note_on,61,0,21,,,,,,,,15,,,50,72
4320,note_on,1,0,19,,,,,,,,13,,,53,72
4320,note_on,0,0,21,,,,,,,,15,,,69,72
4320,note_on,1,0,16,,,,,,,,10,,,50,72
4350,note_on,31,0,7,,,,,,,,2,,,77,72
4350,note_on,31,0,8,,,,,,,,3,,,77,72
4379,note_on,59,0,9,,,,,,,,4,,,62,0
4379,note_on,179,0,17,,,,,,,,11,,,69,0
4379,note_on,59,0,11,,,,,,,,6,,,38,0
4379,note_on,59,0,21,,,,,,,,15,,,74,0
4379,note_on,59,0,5,,,,,,,,0,,,62,0
4379,note_on,0,0,21,,,,,,,,15,,,65,0
4379,note_on,0,0,21,,,,,,,,15,,,69,0
4379,note_on,59,0,18,,,,,,,,12,,,62,0
4379,note_on,0,0,21,,,,,,,,15,,,50,0
4379,note_on,59,0,14,,,,,,,,10,,,62,0
4380,note_on,1,0,14,,,,,,,,10,,,60,72
4380,note_on,1,0,17,,,,,,,,11,,,69,72
4380,note_on,1,0,18,,,,,,,,12,,,60,72
4380,note_on,1,0,5,,,,,,,,0,,,60,72
4409,note_on,59,0,8,,,,,,,,3,,,77,0
4409,note_on,59,0,7,,,,,,,,2,,,77,0
4410,note_on,1,0,8,,,,,,,,3,,,65,72
4410,note_on,1,0,7,,,,,,,,2,,,65,72
4439,note_on,59,0,14,,,,,,,,10,,,60,0
4439,note_on,0,0,5,,,,,,,,0,,,69,0
4439,note_on,119,0,16,,,,,,,,10,,,50,0
4439,note_on,59,0,5,,,,,,,,0,,,60,0
4439,note_on,29,0,8,,,,,,,,3,,,65,0
4439,note_on,119,0,20,,,,,,,,14,,,50,0
4439,note_on,0,0,6,,,,,,,,1,,,53,0
4439,note_on,119,0,6,,,,,,,,1,,,50,0
4439,note_on,119,0,15,,,,,,,,10,,,53,0
4439,note_on,29,0,7,,,,,,,,2,,,65,0
4439,note_on,119,0,19,,,,,,,,13,,,53,0
4439,note_on,59,0,18,,,,,,,,12,,,60,0
4439,note_on,59,0,17,,,,,,,,11,,,69,0
4440,note_on,0,0,21,,,,,,,,15,,,71,72
4440,note_on,0,0,21,,,,,,,,15,,,68,72
4440,note_on,61,0,21,,,,,,,,15,,,52,72
4440,note_on,1,0,19,,,,,,,,13,,,62,72
4440,note_on,1,0,18,,,,,,,,12,,,59,72
4440,note_on,1,0,20,,,,,,,,14,,,52,72
4440,note_on,61,0,11,,,,,,,,6,,,40,48
4440,note_on,1,0,17,,,,,,,,11,,,68,72
4440,note_on,1,0,16,,,,,,,,10,,,52,72
4440,note_on,0,0,6,,,,,,,,1,,,52,72
4440,note_on,61,0,9,,,,,,,,4,,,64,72
4440,note_on,0,0,5,,,,,,,,0,,,59,72
4440,note_on,1,0,5,,,,,,,,0,,,68,72
4440,note_on,1,0,15,,,,,,,,10,,,62,72
4440,note_on,1,0,6,,,,,,,,1,,,62,72
4440,note_on,1,0,14,,,,,,,,10,,,59,72
4440,note_on,0,0,21,,,,,,,,15,,,74,72
4470,note_on,31,0,7,,,,,,,,2,,,74,72
4470,note_on,31,0,8,,,,,,,,3,,,74,72
4499,note_on,59,0,11,,,,,,,,6,,,40,0
4499,note_on,59,0,5,,,,,,,,0,,,59,0
4499,note_on,59,0,18,,,,,,,,12,,,59,0
4499,note_on,59,0,9,,,,,,,,4,,,64,0
4499,note_on,0,0,21,,,,,,,,15,,,52,0
4499,note_on,0,0,21,,,,,,,,15,,,68,0
4499,note_on,0,0,21,,,,,,,,15,,,71,0
4499,note_on,59,0,21,,,,,,,,15,,,74,0
4499,note_on,59,0,17,,,,,,,,11,,,68,0
4499,note_on,59,0,14,,,,,,,,10,,,59,0
4500,note_on,1,0,5,,,,,,,,0,,,64,72
4500,note_on,1,0,14,,,,,,,,10,,,64,72
4500,note_on,1,0,17,,,,,,,,11,,,68,72
4500,note_on,1,0,18,,,,,,,,12,,,64,72
4529,note_on,59,0,8,,,,,,,,3,,,74,0
4529,note_on,59,0,7,,,,,,,,2,,,74,0
4530,note_on,1,0,7,,,,,,,,2,,,62,72
4530,note_on,1,0,8,,,,,,,,3,,,62,72
4559,note_on,59,0,17,,,,,,,,11,,,68,0
4559,note_on,59,0,5,,,,,,,,0,,,64,0
4559,note_on,29,0,7,,,,,,,,2,,,62,0
4559,note_on,119,0,20,,,,,,,,14,,,52,0
4559,note_on,119,0,15,,,,,,,,10,,,62,0
4559,note_on,59,0,18,,,,,,,,12,,,64,0
4559,note_on,119,0,6,,,,,,,,1,,,52,0
4559,note_on,0,0,6,,,,,,,,1,,,62,0
4559,note_on,119,0,19,,,,,,,,13,,,62,0
4559,note_on,0,0,5,,,,,,,,0,,,68,0
4559,note_on,29,0,8,,,,,,,,3,,,62,0
4559,note_on,119,0,16,,,,,,,,10,,,52,0
4559,note_on,59,0,14,,,,,,,,10,,,64,0
4560,note_on,1,0,5,,,,,,,,0,,,69,72
4560,note_on,1,0,19,,,,,,,,13,,,60,72
4560,note_on,61,0,21,,,,,,,,15,,,53,72
4560,note_on,0,0,5,,,,,,,,0,,,57,72
4560,note_on,1,0,17,,,,,,,,11,,,69,72
4560,note_on,0,0,21,,,,,,,,15,,,69,72
4560,note_on,0,0,21,,,,,,,,15,,,72,72
4560,note_on,1,0,18,,,,,,,,12,,,57,72
4560,note_on,1,0,16,,,,,,,,10,,,53,72
4560,note_on,61,0,11,,,,,,,,6,,,41,48
4560,note_on,1,0,15,,,,,,,,10,,,60,72
4560,note_on,1,0,6,,,,,,,,1,,,60,72
4560,note_on,0,0,6,,,,,,,,1,,,53,72
4560,note_on,1,0,20,,,,,,,,14,,,53,72
4560,note_on,61,0,9,,,,,,,,4,,,65,72
4560,note_on,1,0,14,,,,,,,,10,,,57,72
4590,note_on,31,0,8,,,,,,,,3,,,72,72
4590,note_on,31,0,7,,,,,,,,2,,,72,72
4619,note_on,59,0,6,,,,,,,,1,,,53,0
4619,note_on,59,0,11,,,,,,,,6,,,41,0
4619,note_on,59,0,9,,,,,,,,4,,,65,0
4619,note_on,59,0,21,,,,,,,,15,,,53,0
4619,note_on,59,0,16,,,,,,,,10,,,53,0
4619,note_on,59,0,20,,,,,,,,14,,,53,0
4620,note_on,1,0,16,,,,,,,,10,,,52,72
4620,note_on,1,0,6,,,,,,,,1,,,52,72
4620,note_on,1,0,11,,,,,,,,6,,,40,48
4620,note_on,1,0,21,,,,,,,,15,,,52,72
4620,note_on,1,0,9,,,,,,,,4,,,64,72
4620,note_on,1,0,20,,,,,,,,14,,,52,72
4649,note_on,59,0,7,,,,,,,,2,,,72,0
4649,note_on,59,0,8,,,,,,,,3,,,72,0
4650,note_on,1,0,8,,,,,,,,3,,,60,72
4650,note_on,1,0,7,,,,,,,,2,,,60,72
4679,note_on,29,0,7,,,,,,,,2,,,60,0
4679,note_on,119,0,14,,,,,,,,10,,,57,0
4679,note_on,119,0,17,,,,,,,,11,,,69,0
4679,note_on,59,0,16,,,,,,,,10,,,52,0
4679,note_on,59,0,21,,,,,,,,15,,,52,0
4679,note_on,0,0,21,,,,,,,,15,,,72,0
4679,note_on,119,0,5,,,,,,,,0,,,57,0
4679,note_on,59,0,9,,,,,,,,4,,,64,0
4679,note_on,119,0,18,,,,,,,,12,,,57,0
4679,note_on,59,0,11,,,,,,,,6,,,40,0
4679,note_on,119,0,19,,,,,,,,13,,,60,0
4679,note_on,59,0,6,,,,,,,,1,,,52,0
4679,note_on,0,0,6,,,,,,,,1,,,60,0
4679,note_on,0,0,21,,,,,,,,15,,,69,0
4679,note_on,0,0,5,,,,,,,,0,,,69,0
4679,note_on,119,0,15,,,,,,,,10,,,60,0
4679,note_on,59,0,20,,,,,,,,14,,,52,0
4679,note_on,29,0,8,,,,,,,,3,,,60,0
4680,note_on,1,0,19,,,,,,,,13,,,62,72
4680,note_on,1,0,6,,,,,,,,1,,,62,72
4680,note_on,0,0,5,,,,,,,,0,,,65,72
4680,note_on,1,0,20,,,,,,,,14,,,50,72
4680,note_on,1,0,14,,,,,,,,10,,,65,72
4680,note_on,0,0,21,,,,,,,,15,,,71,72
4680,note_on,1,0,11,,,,,,,,6,,,38,48
4680,note_on,0,0,6,,,,,,,,1,,,50,72
4680,note_on,1,0,15,,,,,,,,10,,,62,72
4680,note_on,1,0,9,,,,,,,,4,,,62,72
4680,note_on,1,0,16,,,,,,,,10,,,50,72
4680,note_on,1,0,21,,,,,,,,15,,,50,72
4680,note_on,0,0,21,,,,,,,,15,,,65,72
4680,note_on,0,0,21,,,,,,,,15,,,67,72
4680,note_on,1,0,17,,,,,,,,11,,,71,72
4680,note_on,1,0,18,,,,,,,,12,,,65,72
4680,note_on,1,0,5,,,,,,,,0,,,71,72
4710,note_on,31,0,7,,,,,,,,2,,,77,72
4710,note_on,31,0,8,,,,,,,,3,,,77,72
4739,note_on,59,0,16,,,,,,,,10,,,50,0
4739,note_on,59,0,20,,,,,,,,14,,,50,0
4739,note_on,59,0,9,,,,,,,,4,,,62,0
4739,note_on,59,0,6,,,,,,,,1,,,50,0
4739,note_on,59,0,11,,,,,,,,6,,,38,0
4739,note_on,59,0,21,,,,,,,,15,,,50,0
4740,note_on,1,0,16,,,,,,,,10,,,55,72
4740,note_on,1,0,9,,,,,,,,4,,,67,72
4740,note_on,1,0,6,,,,,,,,1,,,55,72
4740,note_on,1,0,20,,,,,,,,14,,,55,72
4740,note_on,1,0,11,,,,,,,,6,,,43,48
4740,note_on,1,0,21,,,,,,,,15,,,55,72
4769,note_on,59,0,7,,,,,,,,2,,,77,0
4769,note_on,59,0,8,,,,,,,,3,,,77,0
4770,note_on,1,0,8,,,,,,,,3,,,65,72
4770,note_on,1,0,7,,,,,,,,2,,,65,72
4799,note_on,59,0,11,,,,,,,,6,,,43,0
4799,note_on,59,0,16,,,,,,,,10,,,55,0
4799,note_on,59,0,9,,,,,,,,4,,,67,0
4799,note_on,119,0,18,,,,,,,,12,,,65,0
4799,note_on,119,0,17,,,,,,,,11,,,71,0
4799,note_on,59,0,20,,,,,,,,14,,,55,0
4799,note_on,119,0,19,,,,,,,,13,,,62,0
4799,note_on,59,0,21,,,,,,,,15,,,55,0
4799,note_on,59,0,6,,,,,,,,1,,,55,0
4799,note_on,29,0,7,,,,,,,,2,,,65,0
4799,note_on,0,0,6,,,,,,,,1,,,62,0
4799,note_on,0,0,5,,,,,,,,0,,,71,0
4799,note_on,119,0,14,,,,,,,,10,,,65,0
4799,note_on,0,0,21,,,,,,,,15,,,71,0
4799,note_on,0,0,21,,,,,,,,15,,,67,0
4799,note_on,119,0,15,,,,,,,,10,,,62,0
4799,note_on,29,0,8,,,,,,,,3,,,65,0
4799,note_on,119,0,5,,,,,,,,0,,,65,0
4799,note_on,0,0,21,,,,,,,,15,,,65,0
4800,note_on,1,0,20,,,,,,,,14,,,48,72
4800,note_on,1,0,17,,,,,,,,11,,,72,72
4800,note_on,1,0,5,,,,,,,,0,,,72,72
4800,note_on,1,0,21,,,,,,,,15,,,48,72
4800,note_on,0,0,21,,,,,,,,15,,,64,72
4800,note_on,1,0,16,,,,,,,,10,,,48,72
4800,note_on,1,0,14,,,,,,,,10,,,64,72
4800,note_on,0,0,21,,,,,,,,15,,,67,72
4800,note_on,0,0,21,,,,,,,,15,,,72,72
4800,note_on,1,0,18,,,,,,,,12,,,64,72
4800,note_on,0,0,6,,,,,,,,1,,,48,72
4800,note_on,1,0,11,,,,,,,,6,,,36,48
4800,note_on,1,0,19,,,,,,,,13,,,64,72
4800,note_on,1,0,6,,,,,,,,1,,,64,72
4800,note_on,0,0,5,,,,,,,,0,,,64,72
4800,note_on,1,0,15,,,,,,,,10,,,64,72
4800,note_on,1,0,9,,,,,,,,4,,,60,72
4830,note_on,31,0,7,,,,,,,,2,,,76,72
4830,note_on,31,0,8,,,,,,,,3,,,76,72
4859,note_on,59,0,15,,,,,,,,10,,,64,0
4859,note_on,59,0,6,,,,,,,,1,,,64,0
4859,note_on,59,0,19,,,,,,,,13,,,64,0
4860,note_on,1,0,6,,,,,,,,1,,,57,72
4860,note_on,1,0,19,,,,,,,,13,,,57,72
4860,note_on,1,0,15,,,,,,,,10,,,57,72
4889,note_on,59,0,8,,,,,,,,3,,,76,0
4889,note_on,59,0,7,,,,,,,,2,,,76,0
4890,note_on,1,0,8,,,,,,,,3,,,64,72
4890,note_on,1,0,7,,,,,,,,2,,,64,72
4919,note_on,29,0,7,,,,,,,,2,,,64,0
4919,note_on,0,0,5,,,,,,,,0,,,72,0
4919,note_on,119,0,9,,,,,,,,4,,,60,0
4919,note_on,119,0,11,,,,,,,,6,,,36,0
4919,note_on,119,0,14,,,,,,,,10,,,64,0
4919,note_on,59,0,6,,,,,,,,1,,,57,0
4919,note_on,0,0,6,,,,,,,,1,,,48,0
4919,note_on,119,0,5,,,,,,,,0,,,64,0
4919,note_on,119,0,21,,,,,,,,15,,,72,0
4919,note_on,0,0,21,,,,,,,,15,,,64,0
4919,note_on,0,0,21,,,,,,,,15,,,67,0
4919,note_on,59,0,19,,,,,,,,13,,,57,0
4919,note_on,29,0,8,,,,,,,,3,,,64,0
4919,note_on,59,0,15,,,,,,,,10,,,57,0
4919,note_on,119,0,16,,,,,,,,10,,,48,0
4919,note_on,119,0,17,,,,,,,,11,,,72,0
4919,note_on,0,0,21,,,,,,,,15,,,48,0
4919,note_on,119,0,20,,,,,,,,14,,,48,0
4919,note_on,119,0,18,,,,,,,,12,,,64,0
4920,note_on,0,0,21,,,,,,,,15,,,72,72
4920,note_on,1,0,21,,,,,,,,15,,,50,72
4920,note_on,0,0,21,,,,,,,,15,,,66,72
4920,note_on,1,0,11,,,,,,,,6,,,38,48
4920,note_on,0,0,21,,,,,,,,15,,,69,72
4920,note_on,1,0,15,,,,,,,,10,,,62,72
4920,note_on,1,0,9,,,,,,,,4,,,62,72
4920,note_on,1,0,18,,,,,,,,12,,,66,72
4920,note_on,0,0,6,,,,,,,,1,,,50,72
4920,note_on,1,0,16,,,,,,,,10,,,50,72
4920,note_on,1,0,6,,,,,,,,1,,,62,72
4920,note_on,1,0,20,,,,,,,,14,,,50,72
4920,note_on,1,0,17,,,,,,,,11,,,70,72
4920,note_on,1,0,19,,,,,,,,13,,,62,72
4920,note_on,1,0,5,,,,,,,,0,,,70,72
4920,note_on,1,0,14,,,,,,,,10,,,66,72
4920,note_on,0,0,5,,,,,,,,0,,,66,72
4950,note_on,31,0,8,,,,,,,,3,,,78,72
4950,note_on,31,0,7,,,,,,,,2,,,78,72
4979,note_on,59,0,15,,,,,,,,10,,,62,0
4979,note_on,59,0,17,,,,,,,,11,,,70,0
4979,note_on,59,0,5,,,,,,,,0,,,70,0
4979,note_on,59,0,6,,,,,,,,1,,,62,0
4979,note_on,59,0,19,,,,,,,,13,,,62,0
4980,note_on,1,0,5,,,,,,,,0,,,69,72
4980,note_on,1,0,17,,,,,,,,11,,,69,72
4980,note_on,1,0,15,,,,,,,,10,,,60,72
4980,note_on,1,0,19,,,,,,,,13,,,60,72
4980,note_on,1,0,6,,,,,,,,1,,,60,72
5009,note_on,59,0,7,,,,,,,,2,,,78,0
5009,note_on,59,0,8,,,,,,,,3,,,78,0
5010,note_on,1,0,8,,,,,,,,3,,,66,72
5010,note_on,1,0,7,,,,,,,,2,,,66,72
5039,note_on,119,0,21,,,,,,,,15,,,72,0
5039,note_on,0,0,21,,,,,,,,15,,,50,0
5039,note_on,0,0,21,,,,,,,,15,,,66,0
5039,note_on,119,0,18,,,,,,,,12,,,66,0
5039,note_on,59,0,15,,,,,,,,10,,,60,0
5039,note_on,59,0,17,,,,,,,,11,,,69,0
5039,note_on,0,0,5,,,,,,,,0,,,66,0
5039,note_on,59,0,5,,,,,,,,0,,,69,0
5039,note_on,0,0,21,,,,,,,,15,,,69,0
5039,note_on,119,0,14,,,,,,,,10,,,66,0
5039,note_on,59,0,19,,,,,,,,13,,,60,0
5039,note_on,29,0,7,,,,,,,,2,,,66,0
5039,note_on,119,0,20,,,,,,,,14,,,50,0
5039,note_on,119,0,16,,,,,,,,10,,,50,0
5039,note_on,119,0,9,,,,,,,,4,,,62,0
5039,note_on,119,0,11,,,,,,,,6,,,38,0
5039,note_on,0,0,6,,,,,,,,1,,,50,0
5039,note_on,59,0,6,,,,,,,,1,,,60,0
5039,note_on,29,0,8,,,,,,,,3,,,66,0
5040,note_on,1,0,20,,,,,,,,14,,,55,72
5040,note_on,1,0,21,,,,,,,,15,,,43,72
5040,note_on,1,0,19,,,,,,,,13,,,58,72
5040,note_on,1,0,17,,,,,,,,11,,,70,72
5040,note_on,0,0,6,,,,,,,,1,,,58,72
5040,note_on,1,0,18,,,,,,,,12,,,67,72
5040,note_on,1,0,6,,,,,,,,1,,,55,72
5040,note_on,0,0,21,,,,,,,,15,,,55,72
5040,note_on,0,0,21,,,,,,,,15,,,58,72
5040,note_on,1,0,5,,,,,,,,0,,,67,72
5040,note_on,1,0,14,,,,,,,,10,,,67,72
5040,note_on,1,0,9,,,,,,,,4,,,55,72
5040,note_on,1,0,16,,,,,,,,10,,,55,72
5040,note_on,1,0,15,,,,,,,,10,,,58,72
5040,note_on,1,0,11,,,,,,,,6,,,31,48
5040,note_on,0,0,5,,,,,,,,0,,,70,72
5070,note_on,31,0,7,,,,,,,,2,,,79,72
5070,note_on,31,0,8,,,,,,,,3,,,79,72
5099,note_on,59,0,14,,,,,,,,10,,,67,0
5099,note_on,59,0,18,,,,,,,,12,,,67,0
5099,note_on,59,0,5,,,,,,,,0,,,67,0
5100,note_on,1,0,5,,,,,,,,0,,,65,72
5100,note_on,1,0,14,,,,,,,,10,,,65,72
5100,note_on,1,0,18,,,,,,,,12,,,65,72
5129,note_on,59,0,8,,,,,,,,3,,,79,0
5129,note_on,59,0,7,,,,,,,,2,,,79,0
5130,note_on,1,0,7,,,,,,,,2,,,67,72
5130,note_on,1,0,8,,,,,,,,3,,,67,72
5159,note_on,119,0,11,,,,,,,,6,,,31,0
5159,note_on,59,0,5,,,,,,,,0,,,65,0
5159,note_on,0,0,5,,,,,,,,0,,,70,0
5159,note_on,29,0,7,,,,,,,,2,,,67,0
5159,note_on,59,0,14,,,,,,,,10,,,65,0
5159,note_on,119,0,6,,,,,,,,1,,,55,0
5159,note_on,119,0,9,,,,,,,,4,,,55,0
5159,note_on,59,0,18,,,,,,,,12,,,65,0
5159,note_on,119,0,20,,,,,,,,14,,,55,0
5159,note_on,0,0,21,,,,,,,,15,,,43,0
5159,note_on,0,0,21,,,,,,,,15,,,58,0
5159,note_on,119,0,17,,,,,,,,11,,,70,0
5159,note_on,119,0,21,,,,,,,,15,,,55,0
5159,note_on,29,0,8,,,,,,,,3,,,67,0
5159,note_on,119,0,16,,,,,,,,10,,,55,0
5160,note_on,1,0,16,,,,,,,,10,,,48,72
5160,note_on,1,0,11,,,,,,,,6,,,36,48
5160,note_on,1,0,17,,,,,,,,11,,,69,72
5160,note_on,1,0,5,,,,,,,,0,,,69,72
5160,note_on,0,0,5,,,,,,,,0,,,64,72
5160,note_on,1,0,20,,,,,,,,14,,,48,72
5160,note_on,1,0,9,,,,,,,,4,,,60,72
5160,note_on,1,0,14,,,,,,,,10,,,64,72
5160,note_on,1,0,6,,,,,,,,1,,,48,72
5160,note_on,0,0,21,,,,,,,,15,,,67,72
5160,note_on,1,0,18,,,,,,,,12,,,64,72
5160,note_on,0,0,21,,,,,,,,15,,,64,72
5160,note_on,1,0,21,,,,,,,,15,,,48,72
5160,note_on,0,0,21,,,,,,,,15,,,70,72
5190,note_on,31,0,7,,,,,,,,2,,,82,72
5190,note_on,31,0,8,,,,,,,,3,,,82,72
5219,note_on,59,0,17,,,,,,,,11,,,69,0
5219,note_on,59,0,5,,,,,,,,0,,,69,0
5219,note_on,179,0,19,,,,,,,,13,,,58,0
5219,note_on,179,0,15,,,,,,,,10,,,58,0
5219,note_on,59,0,6,,,,,,,,1,,,58,0
5220,note_on,1,0,6,,,,,,,,1,,,60,72
5220,note_on,1,0,17,,,,,,,,11,,,67,72
5220,note_on,1,0,19,,,,,,,,13,,,60,72
5220,note_on,1,0,15,,,,,,,,10,,,60,72
5220,note_on,1,0,5,,,,,,,,0,,,67,72
5249,note_on,29,0,6,,,,,,,,1,,,60,0
5249,note_on,29,0,19,,,,,,,,13,,,60,0
5249,note_on,29,0,15,,,,,,,,10,,,60,0
5249,note_on,59,0,8,,,,,,,,3,,,82,0
5249,note_on,59,0,7,,,,,,,,2,,,82,0
5250,note_on,1,0,7,,,,,,,,2,,,70,72
5250,note_on,1,0,6,,,,,,,,1,,,58,72
5250,note_on,1,0,8,,,,,,,,3,,,70,72
5250,note_on,1,0,15,,,,,,,,10,,,58,72
5250,note_on,1,0,19,,,,,,,,13,,,58,72
5279,note_on,0,0,21,,,,,,,,15,,,67,0
5279,note_on,119,0,16,,,,,,,,10,,,48,0
5279,note_on,119,0,11,,,,,,,,6,,,36,0
5279,note_on,119,0,9,,,,,,,,4,,,60,0
5279,note_on,29,0,15,,,,,,,,10,,,58,0
5279,note_on,0,0,21,,,,,,,,15,,,64,0
5279,note_on,29,0,8,,,,,,,,3,,,70,0
5279,note_on,29,0,19,,,,,,,,13,,,58,0
5279,note_on,0,0,21,,,,,,,,15,,,48,0
5279,note_on,59,0,5,,,,,,,,0,,,67,0
5279,note_on,29,0,6,,,,,,,,1,,,58,0
5279,note_on,119,0,21,,,,,,,,15,,,70,0
5279,note_on,59,0,17,,,,,,,,11,,,67,0
5279,note_on,0,0,6,,,,,,,,1,,,48,0
5279,note_on,119,0,20,,,,,,,,14,,,48,0
5279,note_on,29,0,7,,,,,,,,2,,,70,0
5280,note_on,1,0,21,,,,,,,,15,,,53,72
5280,note_on,1,0,11,,,,,,,,6,,,41,48
5280,note_on,0,0,6,,,,,,,,1,,,53,72
5280,note_on,0,0,21,,,,,,,,15,,,76,72
5280,note_on,1,0,17,,,,,,,,11,,,69,72
5280,note_on,0,0,21,,,,,,,,15,,,72,72
5280,note_on,0,0,21,,,,,,,,15,,,69,72
5280,note_on,1,0,6,,,,,,,,1,,,57,72
5280,note_on,1,0,20,,,,,,,,14,,,53,72
5280,note_on,1,0,16,,,,,,,,10,,,53,72
5280,note_on,1,0,19,,,,,,,,13,,,57,72
5280,note_on,1,0,15,,,,,,,,10,,,57,72
5280,note_on,1,0,9,,,,,,,,4,,,65,72
5280,note_on,1,0,5,,,,,,,,0,,,69,72
5310,note_on,31,0,8,,,,,,,,3,,,81,72
5310,note_on,31,0,7,,,,,,,,2,,,81,72
5339,note_on,59,0,17,,,,,,,,11,,,69,0
5339,note_on,59,0,16,,,,,,,,10,,,53,0
5339,note_on,0,0,21,,,,,,,,15,,,72,0
5339,note_on,59,0,5,,,,,,,,0,,,64,0
5339,note_on,59,0,20,,,,,,,,14,,,53,0
5339,note_on,59,0,21,,,,,,,,15,,,76,0
5339,note_on,179,0,14,,,,,,,,10,,,64,0
5339,note_on,179,0,18,,,,,,,,12,,,64,0
5340,note_on,1,0,14,,,,,,,,10,,,62,72
5340,note_on,1,0,16,,,,,,,,10,,,53,72
5340,note_on,0,0,21,,,,,,,,15,,,65,72
5340,note_on,1,0,18,,,,,,,,12,,,62,72
5340,note_on,1,0,20,,,,,,,,14,,,53,72
5340,note_on,1,0,21,,,,,,,,15,,,74,72
5340,note_on,1,0,5,,,,,,,,0,,,62,72
5340,note_on,1,0,17,,,,,,,,11,,,69,72
5369,note_on,29,0,18,,,,,,,,12,,,62,0
5369,note_on,89,0,15,,,,,,,,10,,,57,0
5369,note_on,89,0,19,,,,,,,,13,,,57,0
5369,note_on,59,0,8,,,,,,,,3,,,81,0
5369,note_on,29,0,14,,,,,,,,10,,,62,0
5369,note_on,29,0,17,,,,,,,,11,,,69,0
5369,note_on,59,0,7,,,,,,,,2,,,81,0
5369,note_on,29,0,5,,,,,,,,0,,,62,0
5370,note_on,1,0,17,,,,,,,,11,,,69,72
5370,note_on,1,0,7,,,,,,,,2,,,69,72
5370,note_on,1,0,14,,,,,,,,10,,,61,72
5370,note_on,1,0,18,,,,,,,,12,,,61,72
5370,note_on,1,0,15,,,,,,,,10,,,57,72
5370,note_on,1,0,8,,,,,,,,3,,,69,72
5370,note_on,1,0,5,,,,,,,,0,,,61,72
5370,note_on,1,0,19,,,,,,,,13,,,57,72
5399,note_on,29,0,15,,,,,,,,10,,,57,0
5399,note_on,59,0,16,,,,,,,,10,,,53,0
5399,note_on,0,0,5,,,,,,,,0,,,69,0
5399,note_on,29,0,5,,,,,,,,0,,,61,0
5399,note_on,29,0,18,,,,,,,,12,,,61,0
5399,note_on,0,0,6,,,,,,,,1,,,57,0
5399,note_on,59,0,20,,,,,,,,14,,,53,0
5399,note_on,29,0,8,,,,,,,,3,,,69,0
5399,note_on,119,0,9,,,,,,,,4,,,65,0
5399,note_on,119,0,11,,,,,,,,6,,,41,0
5399,note_on,29,0,7,,,,,,,,2,,,69,0
5399,note_on,29,0,19,,,,,,,,13,,,57,0
5399,note_on,119,0,6,,,,,,,,1,,,53,0
5399,note_on,29,0,17,,,,,,,,11,,,69,0
5399,note_on,0,0,21,,,,,,,,15,,,74,0
5399,note_on,29,0,14,,,,,,,,10,,,61,0
5399,note_on,59,0,21,,,,,,,,15,,,65,0
5399,note_on,0,0,21,,,,,,,,15,,,53,0
5399,note_on,0,0,21,,,,,,,,15,,,69,0
5400,note_on,0,0,21,,,,,,,,15,,,62,72
5400,note_on,0,0,21,,,,,,,,15,,,65,72
5400,note_on,0,0,6,,,,,,,,1,,,58,72
5400,note_on,1,0,6,,,,,,,,1,,,65,72
5400,note_on,0,0,21,,,,,,,,15,,,74,72
5400,note_on,1,0,19,,,,,,,,13,,,65,72
5400,note_on,1,0,5,,,,,,,,0,,,62,72
5400,note_on,1,0,9,,,,,,,,4,,,70,72
5400,note_on,1,0,11,,,,,,,,6,,,46,48
5400,note_on,1,0,14,,,,,,,,10,,,62,72
5400,note_on,1,0,21,,,,,,,,15,,,58,72
5400,note_on,1,0,18,,,,,,,,12,,,62,72
5400,note_on,1,0,17,,,,,,,,11,,,74,72
5400,note_on,1,0,20,,,,,,,,14,,,58,72
5400,note_on,1,0,15,,,,,,,,10,,,65,72
5400,note_on,1,0,16,,,,,,,,10,,,58,72
5430,note_on,31,0,7,,,,,,,,2,,,86,72
5430,note_on,31,0,8,,,,,,,,3,,,86,72
5459,note_on,59,0,5,,,,,,,,0,,,62,0
5459,note_on,59,0,14,,,,,,,,10,,,62,0
5459,note_on,59,0,11,,,,,,,,6,,,46,0
5459,note_on,59,0,9,,,,,,,,4,,,70,0
5459,note_on,59,0,20,,,,,,,,14,,,58,0
5459,note_on,59,0,6,,,,,,,,1,,,58,0
5459,note_on,59,0,16,,,,,,,,10,,,58,0
5459,note_on,59,0,19,,,,,,,,13,,,65,0
5459,note_on,59,0,15,,,,,,,,10,,,65,0
5459,note_on,59,0,21,,,,,,,,15,,,62,0
5459,note_on,0,0,21,,,,,,,,15,,,58,0
5459,note_on,0,0,21,,,,,,,,15,,,65,0
5459,note_on,0,0,21,,,,,,,,15,,,74,0
5459,note_on,59,0,18,,,,,,,,12,,,62,0
5460,note_on,1,0,16,,,,,,,,10,,,57,72
5460,note_on,1,0,20,,,,,,,,14,,,57,72
5460,note_on,1,0,18,,,,,,,,12,,,69,72
5460,note_on,1,0,19,,,,,,,,13,,,65,72
5460,note_on,0,0,21,,,,,,,,15,,,69,72
5460,note_on,1,0,15,,,,,,,,10,,,65,72
5460,note_on,1,0,11,,,,,,,,6,,,45,48
5460,note_on,1,0,5,,,,,,,,0,,,69,72
5460,note_on,0,0,21,,,,,,,,15,,,65,72
5460,note_on,0,0,21,,,,,,,,15,,,74,72
5460,note_on,1,0,6,,,,,,,,1,,,57,72
5460,note_on,1,0,21,,,,,,,,15,,,57,72
5460,note_on,1,0,14,,,,,,,,10,,,69,72
5460,note_on,1,0,9,,,,,,,,4,,,69,72
5489,note_on,59,0,8,,,,,,,,3,,,86,0
5489,note_on,59,0,7,,,,,,,,2,,,86,0
5490,note_on,1,0,7,,,,,,,,2,,,74,72
5490,note_on,1,0,8,,,,,,,,3,,,74,72
5519,note_on,0,0,21,,,,,,,,15,,,65,0
5519,note_on,59,0,14,,,,,,,,10,,,69,0
5519,note_on,59,0,21,,,,,,,,15,,,69,0
5519,note_on,59,0,19,,,,,,,,13,,,65,0
5519,note_on,59,0,5,,,,,,,,0,,,69,0
5519,note_on,59,0,11,,,,,,,,6,,,45,0
5519,note_on,59,0,9,,,,,,,,4,,,69,0
5519,note_on,29,0,8,,,,,,,,3,,,74,0
5519,note_on,59,0,6,,,,,,,,1,,,57,0
5519,note_on,0,0,6,,,,,,,,1,,,65,0
5519,note_on,0,0,21,,,,,,,,15,,,57,0
5519,note_on,59,0,20,,,,,,,,14,,,57,0
5519,note_on,0,0,21,,,,,,,,15,,,74,0
5519,note_on,29,0,7,,,,,,,,2,,,74,0
5519,note_on,59,0,15,,,,,,,,10,,,65,0
5519,note_on,59,0,16,,,,,,,,10,,,57,0
5519,note_on,59,0,18,,,,,,,,12,,,69,0
5520,note_on,0,0,6,,,,,,,,1,,,64,72
5520,note_on,1,0,6,,,,,,,,1,,,55,72
5520,note_on,0,0,21,,,,,,,,15,,,74,72
5520,note_on,0,0,21,,,,,,,,15,,,70,72
5520,note_on,1,0,21,,,,,,,,15,,,55,72
5520,note_on,1,0,15,,,,,,,,10,,,64,72
5520,note_on,1,0,14,,,,,,,,10,,,70,72
5520,note_on,1,0,19,,,,,,,,13,,,64,72
5520,note_on,1,0,9,,,,,,,,4,,,67,72
5520,note_on,1,0,16,,,,,,,,10,,,55,72
5520,note_on,0,0,21,,,,,,,,15,,,64,72
5520,note_on,1,0,20,,,,,,,,14,,,55,72
5520,note_on,1,0,5,,,,,,,,0,,,70,72
5520,note_on,1,0,18,,,,,,,,12,,,70,72
5520,note_on,1,0,11,,,,,,,,6,,,43,48
5550,note_on,31,0,7,,,,,,,,2,,,88,72
5550,note_on,31,0,8,,,,,,,,3,,,88,72
5579,note_on,59,0,20,,,,,,,,14,,,55,0
5579,note_on,59,0,21,,,,,,,,15,,,55,0
5579,note_on,59,0,6,,,,,,,,1,,,55,0
5579,note_on,59,0,9,,,,,,,,4,,,67,0
5579,note_on,59,0,16,,,,,,,,10,,,55,0
5579,note_on,179,0,17,,,,,,,,11,,,74,0
5579,note_on,59,0,11,,,,,,,,6,,,43,0
5580,note_on,1,0,6,,,,,,,,1,,,53,72
5580,note_on,1,0,11,,,,,,,,6,,,41,48
5580,note_on,1,0,21,,,,,,,,15,,,53,72
5580,note_on,1,0,16,,,,,,,,10,,,53,72
5580,note_on,1,0,9,,,,,,,,4,,,65,72
5580,note_on,1,0,20,,,,,,,,14,,,53,72
5580,note_on,1,0,17,,,,,,,,11,,,74,72
5609,note_on,29,0,11,,,,,,,,6,,,41,0
5609,note_on,29,0,16,,,,,,,,10,,,53,0
5609,note_on,29,0,21,,,,,,,,15,,,53,0
5609,note_on,59,0,7,,,,,,,,2,,,88,0
5609,note_on,59,0,8,,,,,,,,3,,,88,0
5609,note_on,29,0,20,,,,,,,,14,,,53,0
5609,note_on,29,0,9,,,,,,,,4,,,65,0
5609,note_on,29,0,6,,,,,,,,1,,,53,0
5610,note_on,1,0,20,,,,,,,,14,,,52,72
5610,note_on,1,0,16,,,,,,,,10,,,52,72
5610,note_on,1,0,9,,,,,,,,4,,,64,72
5610,note_on,1,0,8,,,,,,,,3,,,76,72
5610,note_on,1,0,6,,,,,,,,1,,,52,72
5610,note_on,1,0,21,,,,,,,,15,,,52,72
5610,note_on,1,0,11,,,,,,,,6,,,40,48
5610,note_on,1,0,7,,,,,,,,2,,,76,72
5639,note_on,29,0,9,,,,,,,,4,,,64,0
5639,note_on,29,0,11,,,,,,,,6,,,40,0
5639,note_on,119,0,19,,,,,,,,13,,,64,0
5639,note_on,29,0,6,,,,,,,,1,,,52,0
5639,note_on,119,0,14,,,,,,,,10,,,70,0
5639,note_on,29,0,8,,,,,,,,3,,,76,0
5639,note_on,119,0,18,,,,,,,,12,,,70,0
5639,note_on,119,0,15,,,,,,,,10,,,64,0
5639,note_on,29,0,16,,,,,,,,10,,,52,0
5639,note_on,0,0,21,,,,,,,,15,,,64,0
5639,note_on,0,0,21,,,,,,,,15,,,74,0
5639,note_on,29,0,20,,,,,,,,14,,,52,0
5639,note_on,29,0,7,,,,,,,,2,,,76,0
5639,note_on,119,0,5,,,,,,,,0,,,70,0
5639,note_on,29,0,21,,,,,,,,15,,,52,0
5639,note_on,0,0,21,,,,,,,,15,,,70,0
5639,note_on,59,0,17,,,,,,,,11,,,74,0
5640,note_on,1,0,16,,,,,,,,10,,,57,72
5640,note_on,0,0,5,,,,,,,,0,,,69,72
5640,note_on,0,0,21,,,,,,,,15,,,69,72
5640,note_on,1,0,6,,,,,,,,1,,,57,72
5640,note_on,1,0,9,,,,,,,,4,,,69,72
5640,note_on,1,0,11,,,,,,,,6,,,45,48
5640,note_on,1,0,14,,,,,,,,10,,,69,72
5640,note_on,0,0,21,,,,,,,,15,,,64,72
5640,note_on,1,0,17,,,,,,,,11,,,73,72
5640,note_on,0,0,21,,,,,,,,15,,,73,72
5640,note_on,1,0,21,,,,,,,,15,,,57,72
5640,note_on,1,0,20,,,,,,,,14,,,57,72
5640,note_on,1,0,18,,,,,,,,12,,,69,72
5640,note_on,1,0,15,,,,,,,,10,,,64,72
5640,note_on,1,0,5,,,,,,,,0,,,73,72
5640,note_on,1,0,19,,,,,,,,13,,,64,72
5670,note_on,31,0,8,,,,,,,,3,,,76,72
5670,note_on,31,0,7,,,,,,,,2,,,76,72
5699,note_on,59,0,20,,,,,,,,14,,,57,0
5699,note_on,59,0,11,,,,,,,,6,,,45,0
5699,note_on,59,0,17,,,,,,,,11,,,73,0
5699,note_on,59,0,6,,,,,,,,1,,,57,0
5699,note_on,59,0,9,,,,,,,,4,,,69,0
5699,note_on,59,0,21,,,,,,,,15,,,69,0
5699,note_on,0,0,21,,,,,,,,15,,,57,0
5699,note_on,0,0,21,,,,,,,,15,,,73,0
5699,note_on,0,0,21,,,,,,,,15,,,64,0
5699,note_on,59,0,16,,,,,,,,10,,,57,0
5700,note_on,1,0,11,,,,,,,,6,,,43,48
5700,note_on,1,0,17,,,,,,,,11,,,73,72
5700,note_on,1,0,21,,,,,,,,15,,,55,72
5700,note_on,0,0,21,,,,,,,,15,,,73,72
5700,note_on,1,0,20,,,,,,,,14,,,55,72
5700,note_on,0,0,21,,,,,,,,15,,,69,72
5700,note_on,1,0,16,,,,,,,,10,,,55,72
5700,note_on,1,0,9,,,,,,,,4,,,67,72
5700,note_on,1,0,6,,,,,,,,1,,,55,72
5729,note_on,59,0,8,,,,,,,,3,,,76,0
5729,note_on,59,0,7,,,,,,,,2,,,76,0
5730,note_on,1,0,8,,,,,,,,3,,,64,72
5730,note_on,1,0,7,,,,,,,,2,,,64,72
5759,note_on,59,0,20,,,,,,,,14,,,55,0
5759,note_on,59,0,11,,,,,,,,6,,,43,0
5759,note_on,29,0,8,,,,,,,,3,,,64,0
5759,note_on,59,0,16,,,,,,,,10,,,55,0
5759,note_on,29,0,7,,,,,,,,2,,,64,0
5759,note_on,59,0,6,,,,,,,,1,,,55,0
5759,note_on,0,0,6,,,,,,,,1,,,64,0
5759,note_on,119,0,19,,,,,,,,13,,,64,0
5759,note_on,0,0,21,,,,,,,,15,,,55,0
5759,note_on,0,0,21,,,,,,,,15,,,69,0
5759,note_on,119,0,15,,,,,,,,10,,,64,0
5759,note_on,59,0,9,,,,,,,,4,,,67,0
5759,note_on,59,0,21,,,,,,,,15,,,73,0
5759,note_on,119,0,5,,,,,,,,0,,,73,0
5759,note_on,59,0,17,,,,,,,,11,,,73,0
5760,note_on,0,0,6,,,,,,,,1,,,53,72
5760,note_on,1,0,9,,,,,,,,4,,,65,72
5760,note_on,1,0,19,,,,,,,,13,,,57,72
5760,note_on,1,0,6,,,,,,,,1,,,57,72
5760,note_on,1,0,17,,,,,,,,11,,,74,72
5760,note_on,1,0,21,,,,,,,,15,,,53,72
5760,note_on,0,0,21,,,,,,,,15,,,57,72
5760,note_on,1,0,11,,,,,,,,6,,,41,48
5760,note_on,0,0,21,,,,,,,,15,,,69,72
5760,note_on,0,0,21,,,,,,,,15,,,74,72
5760,note_on,1,0,20,,,,,,,,14,,,53,72
5760,note_on,1,0,16,,,,,,,,10,,,53,72
5760,note_on,1,0,5,,,,,,,,0,,,74,72
5760,note_on,1,0,15,,,,,,,,10,,,57,72
5790,note_on,31,0,8,,,,,,,,3,,,81,72
5790,note_on,31,0,7,,,,,,,,2,,,81,72
5819,note_on,59,0,9,,,,,,,,4,,,65,0
5819,note_on,59,0,20,,,,,,,,14,,,53,0
5819,note_on,59,0,11,,,,,,,,6,,,41,0
5819,note_on,59,0,16,,,,,,,,10,,,53,0
5819,note_on,59,0,6,,,,,,,,1,,,53,0
5819,note_on,59,0,21,,,,,,,,15,,,53,0
5820,note_on,1,0,16,,,,,,,,10,,,52,72
5820,note_on,1,0,11,,,,,,,,6,,,40,48
5820,note_on,1,0,9,,,,,,,,4,,,64,72
5820,note_on,1,0,21,,,,,,,,15,,,52,72
5820,note_on,1,0,6,,,,,,,,1,,,52,72
5820,note_on,1,0,20,,,,,,,,14,,,52,72
5849,note_on,59,0,8,,,,,,,,3,,,81,0
5849,note_on,59,0,7,,,,,,,,2,,,81,0
5850,note_on,1,0,7,,,,,,,,2,,,69,72
5850,note_on,1,0,8,,,,,,,,3,,,69,72
5879,note_on,29,0,7,,,,,,,,2,,,69,0
5879,note_on,59,0,20,,,,,,,,14,,,52,0
5879,note_on,119,0,5,,,,,,,,0,,,74,0
5879,note_on,59,0,9,,,,,,,,4,,,64,0
5879,note_on,59,0,6,,,,,,,,1,,,52,0
5879,note_on,59,0,16,,,,,,,,10,,,52,0
5879,note_on,59,0,11,,,,,,,,6,,,40,0
5879,note_on,0,0,21,,,,,,,,15,,,69,0
5879,note_on,119,0,17,,,,,,,,11,,,74,0
5879,note_on,0,0,21,,,,,,,,15,,,74,0
5879,note_on,0,0,21,,,,,,,,15,,,57,0
5879,note_on,29,0,8,,,,,,,,3,,,69,0
5879,note_on,59,0,21,,,,,,,,15,,,52,0
5880,note_on,0,0,21,,,,,,,,15,,,76,72
5880,note_on,1,0,21,,,,,,,,15,,,50,72
5880,note_on,1,0,20,,,,,,,,14,,,50,72
5880,note_on,1,0,9,,,,,,,,4,,,62,72
5880,note_on,0,0,21,,,,,,,,15,,,67,72
5880,note_on,0,0,21,,,,,,,,15,,,70,72
5880,note_on,1,0,17,,,,,,,,11,,,76,72
5880,note_on,1,0,5,,,,,,,,0,,,76,72
5880,note_on,1,0,6,,,,,,,,1,,,50,72
5880,note_on,1,0,16,,,,,,,,10,,,50,72
5880,note_on,1,0,11,,,,,,,,6,,,38,48
5910,note_on,31,0,7,,,,,,,,2,,,79,72
5910,note_on,31,0,8,,,,,,,,3,,,79,72
5939,note_on,299,0,14,,,,,,,,10,,,69,0
5939,note_on,59,0,16,,,,,,,,10,,,50,0
5939,note_on,59,0,6,,,,,,,,1,,,50,0
5939,note_on,59,0,11,,,,,,,,6,,,38,0
5939,note_on,59,0,20,,,,,,,,14,,,50,0
5939,note_on,299,0,18,,,,,,,,12,,,69,0
5939,note_on,0,0,21,,,,,,,,15,,,76,0
5939,note_on,0,0,21,,,,,,,,15,,,67,0
5939,note_on,179,0,15,,,,,,,,10,,,57,0
5939,note_on,59,0,5,,,,,,,,0,,,69,0
5939,note_on,179,0,19,,,,,,,,13,,,57,0
5939,note_on,59,0,9,,,,,,,,4,,,62,0
5939,note_on,0,0,21,,,,,,,,15,,,50,0
5939,note_on,59,0,21,,,,,,,,15,,,70,0
5940,note_on,1,0,15,,,,,,,,10,,,57,72
5940,note_on,1,0,11,,,,,,,,6,,,37,48
5940,note_on,1,0,5,,,,,,,,0,,,67,72
5940,note_on,1,0,16,,,,,,,,10,,,49,72
5940,note_on,1,0,14,,,,,,,,10,,,67,72
5940,note_on,1,0,9,,,,,,,,4,,,61,72
5940,note_on,0,0,21,,,,,,,,15,,,76,72
5940,note_on,0,0,21,,,,,,,,15,,,67,72
5940,note_on,0,0,21,,,,,,,,15,,,69,72
5940,note_on,1,0,6,,,,,,,,1,,,49,72
5940,note_on,1,0,19,,,,,,,,13,,,57,72
5940,note_on,1,0,21,,,,,,,,15,,,49,72
5940,note_on,1,0,18,,,,,,,,12,,,67,72
5940,note_on,1,0,20,,,,,,,,14,,,49,72
5969,note_on,59,0,7,,,,,,,,2,,,79,0
5969,note_on,59,0,8,,,,,,,,3,,,79,0
5970,note_on,1,0,7,,,,,,,,2,,,67,72
5970,note_on,1,0,8,,,,,,,,3,,,67,72
5999,note_on,59,0,6,,,,,,,,1,,,49,0
5999,note_on,59,0,14,,,,,,,,10,,,67,0
5999,note_on,0,0,5,,,,,,,,0,,,76,0
5999,note_on,59,0,5,,,,,,,,0,,,67,0
5999,note_on,29,0,8,,,,,,,,3,,,67,0
5999,note_on,59,0,16,,,,,,,,10,,,49,0
5999,note_on,119,0,17,,,,,,,,11,,,76,0
5999,note_on,59,0,9,,,,,,,,4,,,61,0
5999,note_on,29,0,7,,,,,,,,2,,,67,0
5999,note_on,59,0,19,,,,,,,,13,,,57,0
5999,note_on,59,0,18,,,,,,,,12,,,67,0
5999,note_on,59,0,20,,,,,,,,14,,,49,0
5999,note_on,59,0,11,,,,,,,,6,,,37,0
5999,note_on,59,0,15,,,,,,,,10,,,57,0
5999,note_on,59,0,21,,,,,,,,15,,,69,0
5999,note_on,0,0,21,,,,,,,,15,,,49,0
5999,note_on,0,0,21,,,,,,,,15,,,76,0
5999,note_on,0,0,21,,,,,,,,15,,,67,0
6000,note_on,1,0,11,,,,,,,,6,,,38,48
6000,note_on,1,0,17,,,,,,,,11,,,77,72
6000,note_on,1,0,6,,,,,,,,1,,,50,72
6000,note_on,1,0,16,,,,,,,,10,,,50,72
6000,note_on,1,0,9,,,,,,,,4,,,62,72
6000,note_on,1,0,18,,,,,,,,12,,,65,72
6000,note_on,1,0,19,,,,,,,,13,,,57,72
6000,note_on,0,0,21,,,,,,,,15,,,69,72
6000,note_on,1,0,21,,,,,,,,15,,,50,72
6000,note_on,0,0,21,,,,,,,,15,,,65,72
6000,note_on,1,0,15,,,,,,,,10,,,57,72
6000,note_on,1,0,14,,,,,,,,10,,,65,72
6000,note_on,0,0,21,,,,,,,,15,,,74,72
6000,note_on,1,0,20,,,,,,,,14,,,50,72
6000,note_on,1,0,5,,,,,,,,0,,,77,72
6000,note_on,0,0,5,,,,,,,,0,,,65,72
6030,note_on,31,0,8,,,,,,,,3,,,77,72
6030,note_on,31,0,7,,,,,,,,2,,,77,72
6059,note_on,59,0,16,,,,,,,,10,,,50,0
6059,note_on,59,0,19,,,,,,,,13,,,57,0
6059,note_on,59,0,14,,,,,,,,10,,,65,0
6059,note_on,59,0,18,,,,,,,,12,,,65,0
6059,note_on,59,0,15,,,,,,,,10,,,57,0
6059,note_on,59,0,20,,,,,,,,14,,,50,0
6059,note_on,59,0,5,,,,,,,,0,,,65,0
6060,note_on,1,0,19,,,,,,,,13,,,57,72
6060,note_on,1,0,18,,,,,,,,12,,,64,72
6060,note_on,1,0,15,,,,,,,,10,,,57,72
6060,note_on,1,0,20,,,,,,,,14,,,50,72
6060,note_on,1,0,14,,,,,,,,10,,,64,72
6060,note_on,1,0,16,,,,,,,,10,,,50,72
6060,note_on,1,0,5,,,,,,,,0,,,64,72
6089,note_on,29,0,14,,,,,,,,10,,,64,0
6089,note_on,59,0,7,,,,,,,,2,,,77,0
6089,note_on,59,0,8,,,,,,,,3,,,77,0
6089,note_on,29,0,18,,,,,,,,12,,,64,0
6089,note_on,29,0,5,,,,,,,,0,,,64,0
6090,note_on,1,0,5,,,,,,,,0,,,62,72
6090,note_on,1,0,14,,,,,,,,10,,,62,72
6090,note_on,1,0,18,,,,,,,,12,,,62,72
6090,note_on,1,0,8,,,,,,,,3,,,65,72
6090,note_on,1,0,7,,,,,,,,2,,,65,72
6119,note_on,29,0,8,,,,,,,,3,,,65,0
6119,note_on,119,0,11,,,,,,,,6,,,38,0
6119,note_on,59,0,20,,,,,,,,14,,,50,0
6119,note_on,0,0,5,,,,,,,,0,,,77,0
6119,note_on,119,0,9,,,,,,,,4,,,62,0
6119,note_on,0,0,21,,,,,,,,15,,,65,0
6119,note_on,29,0,5,,,,,,,,0,,,62,0
6119,note_on,29,0,7,,,,,,,,2,,,65,0
6119,note_on,59,0,16,,,,,,,,10,,,50,0
6119,note_on,59,0,19,,,,,,,,13,,,57,0
6119,note_on,119,0,21,,,,,,,,15,,,74,0
6119,note_on,0,0,21,,,,,,,,15,,,69,0
6119,note_on,29,0,14,,,,,,,,10,,,62,0
6119,note_on,29,0,18,,,,,,,,12,,,62,0
6119,note_on,0,0,21,,,,,,,,15,,,50,0
6119,note_on,119,0,17,,,,,,,,11,,,77,0
6119,note_on,59,0,15,,,,,,,,10,,,57,0
6119,note_on,119,0,6,,,,,,,,1,,,50,0
6120,note_on,0,0,21,,,,,,,,15,,,69,72
6120,note_on,1,0,18,,,,,,,,12,,,65,72
6120,note_on,1,0,5,,,,,,,,0,,,76,72
6120,note_on,0,0,5,,,,,,,,0,,,69,72
6120,note_on,1,0,16,,,,,,,,10,,,48,72
6120,note_on,1,0,17,,,,,,,,11,,,76,72
6120,note_on,1,0,20,,,,,,,,14,,,48,72
6120,note_on,1,0,9,,,,,,,,4,,,60,72
6120,note_on,1,0,21,,,,,,,,15,,,48,72
6120,note_on,1,0,14,,,,,,,,10,,,65,72
6120,note_on,1,0,11,,,,,,,,6,,,36,48
6120,note_on,1,0,6,,,,,,,,1,,,48,72
6120,note_on,0,0,21,,,,,,,,15,,,76,72
6120,note_on,0,0,21,,,,,,,,15,,,57,72
6120,note_on,1,0,15,,,,,,,,10,,,57,72
6120,note_on,1,0,19,,,,,,,,13,,,57,72
6150,note_on,31,0,8,,,,,,,,3,,,81,72
6150,note_on,31,0,7,,,,,,,,2,,,81,72
6179,note_on,59,0,17,,,,,,,,11,,,76,0
6179,note_on,59,0,19,,,,,,,,13,,,57,0
6179,note_on,59,0,14,,,,,,,,10,,,65,0
6179,note_on,59,0,15,,,,,,,,10,,,57,0
6179,note_on,59,0,18,,,,,,,,12,,,65,0
6179,note_on,59,0,16,,,,,,,,10,,,48,0
6179,note_on,59,0,20,,,,,,,,14,,,48,0
6179,note_on,59,0,6,,,,,,,,1,,,57,0
6180,note_on,1,0,18,,,,,,,,12,,,65,72
6180,note_on,1,0,17,,,,,,,,11,,,76,72
6180,note_on,1,0,19,,,,,,,,13,,,60,72
6180,note_on,1,0,20,,,,,,,,14,,,48,72
6180,note_on,1,0,6,,,,,,,,1,,,60,72
6180,note_on,1,0,16,,,,,,,,10,,,48,72
6180,note_on,1,0,14,,,,,,,,10,,,65,72
6180,note_on,1,0,15,,,,,,,,10,,,60,72
6209,note_on,29,0,15,,,,,,,,10,,,60,0
6209,note_on,29,0,6,,,,,,,,1,,,60,0
6209,note_on,29,0,19,,,,,,,,13,,,60,0
6209,note_on,59,0,7,,,,,,,,2,,,81,0
6209,note_on,59,0,8,,,,,,,,3,,,81,0
6210,note_on,1,0,6,,,,,,,,1,,,57,72
6210,note_on,1,0,15,,,,,,,,10,,,57,72
6210,note_on,1,0,19,,,,,,,,13,,,57,72
6210,note_on,1,0,7,,,,,,,,2,,,69,72
6210,note_on,1,0,8,,,,,,,,3,,,69,72
6239,note_on,59,0,16,,,,,,,,10,,,48,0
6239,note_on,119,0,11,,,,,,,,6,,,36,0
6239,note_on,119,0,5,,,,,,,,0,,,76,0
6239,note_on,59,0,18,,,,,,,,12,,,65,0
6239,note_on,29,0,15,,,,,,,,10,,,57,0
6239,note_on,59,0,17,,,,,,,,11,,,76,0
6239,note_on,0,0,21,,,,,,,,15,,,69,0
6239,note_on,0,0,21,,,,,,,,15,,,76,0
6239,note_on,59,0,14,,,,,,,,10,,,65,0
6239,note_on,0,0,21,,,,,,,,15,,,48,0
6239,note_on,29,0,8,,,,,,,,3,,,69,0
6239,note_on,29,0,6,,,,,,,,1,,,57,0
6239,note_on,29,0,19,,,,,,,,13,,,57,0
6239,note_on,29,0,7,,,,,,,,2,,,69,0
6239,note_on,59,0,20,,,,,,,,14,,,48,0
6239,note_on,119,0,9,,,,,,,,4,,,60,0
6239,note_on,119,0,21,,,,,,,,15,,,57,0
6239,note_on,0,0,6,,,,,,,,1,,,48,0
6240,note_on,1,0,9,,,,,,,,4,,,58,72
6240,note_on,1,0,16,,,,,,,,10,,,46,72
6240,note_on,1,0,18,,,,,,,,12,,,69,72
6240,note_on,1,0,19,,,,,,,,13,,,65,72
6240,note_on,0,0,21,,,,,,,,15,,,69,72
6240,note_on,1,0,11,,,,,,,,6,,,34,48
6240,note_on,1,0,15,,,,,,,,10,,,65,72
6240,note_on,0,0,21,,,,,,,,15,,,62,72
6240,note_on,1,0,17,,,,,,,,11,,,74,72
6240,note_on,1,0,21,,,,,,,,15,,,46,72
6240,note_on,1,0,14,,,,,,,,10,,,69,72
6240,note_on,1,0,6,,,,,,,,1,,,65,72
6240,note_on,0,0,6,,,,,,,,1,,,46,72
6240,note_on,1,0,20,,,,,,,,14,,,46,72
6240,note_on,1,0,5,,,,,,,,0,,,74,72
6240,note_on,0,0,21,,,,,,,,15,,,65,72
6270,note_on,31,0,8,,,,,,,,3,,,86,72
6270,note_on,31,0,7,,,,,,,,2,,,86,72
6299,note_on,59,0,16,,,,,,,,10,,,46,0
6299,note_on,59,0,14,,,,,,,,10,,,69,0
6299,note_on,59,0,18,,,,,,,,12,,,69,0
6299,note_on,59,0,21,,,,,,,,15,,,69,0
6299,note_on,59,0,5,,,,,,,,0,,,69,0
6299,note_on,59,0,20,,,,,,,,14,,,46,0
6299,note_on,59,0,19,,,,,,,,13,,,65,0
6299,note_on,59,0,15,,,,,,,,10,,,65,0
6299,note_on,59,0,17,,,,,,,,11,,,74,0
6300,note_on,1,0,19,,,,,,,,13,,,65,72
6300,note_on,1,0,14,,,,,,,,10,,,70,72
6300,note_on,1,0,5,,,,,,,,0,,,70,72
6300,note_on,1,0,15,,,,,,,,10,,,65,72
6300,note_on,1,0,17,,,,,,,,11,,,74,72
6300,note_on,1,0,20,,,,,,,,14,,,46,72
6300,note_on,1,0,21,,,,,,,,15,,,70,72
6300,note_on,1,0,18,,,,,,,,12,,,70,72
6300,note_on,1,0,16,,,,,,,,10,,,46,72
6329,note_on,59,0,8,,,,,,,,3,,,86,0
6329,note_on,59,0,7,,,,,,,,2,,,86,0
6330,note_on,1,0,7,,,,,,,,2,,,74,72
6330,note_on,1,0,8,,,,,,,,3,,,74,72
6359,note_on,0,0,21,,,,,,,,15,,,65,0
6359,note_on,59,0,21,,,,,,,,15,,,70,0
6359,note_on,0,0,21,,,,,,,,15,,,62,0
6359,note_on,59,0,18,,,,,,,,12,,,70,0
6359,note_on,59,0,17,,,,,,,,11,,,74,0
6359,note_on,59,0,19,,,,,,,,13,,,65,0
6359,note_on,59,0,5,,,,,,,,0,,,70,0
6359,note_on,29,0,8,,,,,,,,3,,,74,0
6359,note_on,119,0,6,,,,,,,,1,,,46,0
6359,note_on,59,0,15,,,,,,,,10,,,65,0
6359,note_on,0,0,6,,,,,,,,1,,,65,0
6359,note_on,59,0,20,,,,,,,,14,,,46,0
6359,note_on,29,0,7,,,,,,,,2,,,74,0
6359,note_on,119,0,11,,,,,,,,6,,,34,0
6359,note_on,119,0,9,,,,,,,,4,,,58,0
6359,note_on,59,0,16,,,,,,,,10,,,46,0
6359,note_on,0,0,21,,,,,,,,15,,,46,0
6359,note_on,59,0,14,,,,,,,,10,,,70,0
6360,note_on,1,0,11,,,,,,,,6,,,46,48
6360,note_on,1,0,9,,,,,,,,4,,,70,72
6360,note_on,1,0,20,,,,,,,,14,,,58,72
6360,note_on,0,0,21,,,,,,,,15,,,62,72
6360,note_on,0,0,21,,,,,,,,15,,,67,72
6360,note_on,1,0,17,,,,,,,,11,,,74,72
6360,note_on,1,0,15,,,,,,,,10,,,62,72
6360,note_on,1,0,6,,,,,,,,1,,,62,72
6360,note_on,0,0,6,,,,,,,,1,,,58,72
6360,note_on,1,0,14,,,,,,,,10,,,67,72
6360,note_on,0,0,21,,,,,,,,15,,,74,72
6360,note_on,1,0,21,,,,,,,,15,,,58,72
6360,note_on,1,0,5,,,,,,,,0,,,67,72
6360,note_on,1,0,16,,,,,,,,10,,,58,72
6360,note_on,1,0,19,,,,,,,,13,,,62,72
6360,note_on,1,0,18,,,,,,,,12,,,67,72
6390,note_on,31,0,8,,,,,,,,3,,,86,72
6390,note_on,31,0,7,,,,,,,,2,,,86,72
6449,note_on,89,0,20,,,,,,,,14,,,58,0
6449,note_on,89,0,19,,,,,,,,13,,,62,0
6449,note_on,89,0,18,,,,,,,,12,,,67,0
6449,note_on,59,0,8,,,,,,,,3,,,86,0
6449,note_on,89,0,14,,,,,,,,10,,,67,0
6449,note_on,59,0,7,,,,,,,,2,,,86,0
6449,note_on,89,0,17,,,,,,,,11,,,74,0
6449,note_on,89,0,15,,,,,,,,10,,,62,0
6449,note_on,89,0,16,,,,,,,,10,,,58,0
6450,note_on,1,0,14,,,,,,,,10,,,67,72
6450,note_on,1,0,7,,,,,,,,2,,,74,72
6450,note_on,1,0,16,,,,,,,,10,,,58,72
6450,note_on,1,0,19,,,,,,,,13,,,62,72
6450,note_on,1,0,8,,,,,,,,3,,,74,72
6450,note_on,1,0,18,,,,,,,,12,,,67,72
6450,note_on,1,0,17,,,,,,,,11,,,74,72
6450,note_on,1,0,15,,,,,,,,10,,,62,72
6450,note_on,1,0,20,,,,,,,,14,,,58,72
6479,note_on,29,0,15,,,,,,,,10,,,62,0
6479,note_on,29,0,16,,,,,,,,10,,,58,0
6479,note_on,119,0,6,,,,,,,,1,,,58,0
6479,note_on,0,0,6,,,,,,,,1,,,62,0
6479,note_on,29,0,19,,,,,,,,13,,,62,0
6479,note_on,119,0,9,,,,,,,,4,,,70,0
6479,note_on,29,0,20,,,,,,,,14,,,58,0
6479,note_on,29,0,8,,,,,,,,3,,,74,0
6479,note_on,29,0,14,,,,,,,,10,,,67,0
6479,note_on,29,0,18,,,,,,,,12,,,67,0
6479,note_on,119,0,5,,,,,,,,0,,,67,0
6479,note_on,0,0,5,,,,,,,,0,,,74,0
6479,note_on,119,0,11,,,,,,,,6,,,46,0
6479,note_on,29,0,17,,,,,,,,11,,,74,0
6479,note_on,29,0,7,,,,,,,,2,,,74,0
6479,note_on,119,0,21,,,,,,,,15,,,62,0
6479,note_on,0,0,21,,,,,,,,15,,,58,0
6479,note_on,0,0,21,,,,,,,,15,,,74,0
6479,note_on,0,0,21,,,,,,,,15,,,67,0
6480,note_on,1,0,14,,,,,,,,10,,,69,72
6480,note_on,0,0,5,,,,,,,,0,,,69,72
6480,note_on,1,0,5,,,,,,,,0,,,73,72
6480,note_on,1,0,9,,,,,,,,4,,,69,72
6480,note_on,0,0,6,,,,,,,,1,,,57,72
6480,note_on,1,0,17,,,,,,,,11,,,73,72
6480,note_on,0,0,21,,,,,,,,15,,,64,72
6480,note_on,1,0,16,,,,,,,,10,,,57,72
6480,note_on,0,0,21,,,,,,,,15,,,73,72
6480,note_on,0,0,21,,,,,,,,15,,,69,72
6480,note_on,1,0,15,,,,,,,,10,,,64,72
6480,note_on,1,0,20,,,,,,,,14,,,57,72
6480,note_on,1,0,11,,,,,,,,6,,,45,48
6480,note_on,1,0,18,,,,,,,,12,,,69,72
6480,note_on,1,0,19,,,,,,,,13,,,64,72
6480,note_on,1,0,21,,,,,,,,15,,,57,72
6480,note_on,1,0,6,,,,,,,,1,,,64,72
6510,note_on,31,0,7,,,,,,,,2,,,81,72
6510,note_on,31,0,8,,,,,,,,3,,,81,72
6539,note_on,0,0,21,,,,,,,,15,,,64,0
6539,note_on,59,0,11,,,,,,,,6,,,45,0
6539,note_on,0,0,21,,,,,,,,15,,,57,0
6539,note_on,0,0,21,,,,,,,,15,,,73,0
6539,note_on,59,0,21,,,,,,,,15,,,69,0
6539,note_on,0,0,5,,,,,,,,0,,,73,0
6539,note_on,59,0,5,,,,,,,,0,,,69,0
6539,note_on,0,0,6,,,,,,,,1,,,64,0
6539,note_on,59,0,6,,,,,,,,1,,,57,0
6539,note_on,59,0,9,,,,,,,,4,,,69,0
6569,note_on,59,0,7,,,,,,,,2,,,81,0
6569,note_on,59,0,8,,,,,,,,3,,,81,0
6570,note_on,1,0,7,,,,,,,,2,,,69,72
6570,note_on,1,0,8,,,,,,,,3,,,69,72
6599,note_on,119,0,17,,,,,,,,11,,,73,0
6599,note_on,119,0,14,,,,,,,,10,,,69,0
6599,note_on,29,0,7,,,,,,,,2,,,69,0
6599,note_on,119,0,15,,,,,,,,10,,,64,0
6599,note_on,119,0,19,,,,,,,,13,,,64,0
6599,note_on,119,0,16,,,,,,,,10,,,57,0
6599,note_on,29,0,8,,,,,,,,3,,,69,0
6599,note_on,119,0,20,,,,,,,,14,,,57,0
6599,note_on,119,0,18,,,,,,,,12,,,69,0
6600,note_on,0,0,6,,,,,,,,1,,,58,72
6600,note_on,61,0,6,,,,,,,,1,,,64,72
6600,note_on,61,0,9,,,,,,,,4,,,67,72
6600,note_on,0,0,21,,,,,,,,15,,,70,72
6600,note_on,61,0,21,,,,,,,,15,,,55,72
6600,note_on,0,0,21,,,,,,,,15,,,72,72
6600,note_on,0,0,21,,,,,,,,15,,,64,72
6600,note_on,0,0,5,,,,,,,,0,,,70,72
6600,note_on,61,0,5,,,,,,,,0,,,76,72
6600,note_on,61,0,11,,,,,,,,6,,,43,48
6630,note_on,31,0,8,,,,,,,,3,,,82,72
6630,note_on,31,0,7,,,,,,,,2,,,82,72
6659,note_on,59,0,9,,,,,,,,4,,,67,0
6659,note_on,0,0,5,,,,,,,,0,,,76,0
6659,note_on,0,0,21,,,,,,,,15,,,70,0
6659,note_on,59,0,21,,,,,,,,15,,,64,0
6659,note_on,0,0,6,,,,,,,,1,,,64,0
6659,note_on,59,0,6,,,,,,,,1,,,58,0
6659,note_on,0,0,21,,,,,,,,15,,,72,0
6659,note_on,59,0,5,,,,,,,,0,,,70,0
6659,note_on,59,0,11,,,,,,,,6,,,43,0
6659,note_on,0,0,21,,,,,,,,15,,,55,0
6689,note_on,59,0,7,,,,,,,,2,,,82,0
6689,note_on,59,0,8,,,,,,,,3,,,82,0
6690,note_on,1,0,7,,,,,,,,2,,,76,72
6690,note_on,1,0,8,,,,,,,,3,,,76,72
6719,note_on,29,0,7,,,,,,,,2,,,76,0
6719,note_on,29,0,8,,,,,,,,3,,,76,0
6720,note_on,0,0,5,,,,,,,,0,,,69,72
6720,note_on,61,0,9,,,,,,,,4,,,65,72
6720,note_on,61,0,5,,,,,,,,0,,,74,72
6720,note_on,61,0,11,,,,,,,,6,,,41,48
6720,note_on,0,0,21,,,,,,,,15,,,77,72
6720,note_on,1,0,7,,,,,,,,2,,,77,72
6720,note_on,0,0,8,,,,,,,,3,,,69,72
6720,note_on,0,0,21,,,,,,,,15,,,72,72
6720,note_on,0,0,21,,,,,,,,15,,,69,72
6720,note_on,61,0,21,,,,,,,,15,,,53,72
6720,note_on,0,0,6,,,,,,,,1,,,65,72
6720,note_on,61,0,6,,,,,,,,1,,,57,72
6720,note_on,0,0,7,,,,,,,,2,,,72,72
6720,note_on,1,0,8,,,,,,,,3,,,77,72
6720,note_on,0,0,7,,,,,,,,2,,,65,72
6780,note_on,181,0,19,,,,,,,,13,,,57,72
6780,note_on,181,0,20,,,,,,,,14,,,53,72
6780,note_on,181,0,17,,,,,,,,11,,,72,72
6780,note_on,181,0,14,,,,,,,,10,,,69,72
6780,note_on,181,0,16,,,,,,,,10,,,53,72
6780,note_on,181,0,18,,,,,,,,12,,,69,72
6780,note_on,181,0,15,,,,,,,,10,,,57,72
6839,note_on,59,0,14,,,,,,,,10,,,69,0
6839,note_on,59,0,18,,,,,,,,12,,,69,0
6839,note_on,0,0,5,,,,,,,,0,,,74,0
6839,note_on,119,0,9,,,,,,,,4,,,65,0
6839,note_on,119,0,6,,,,,,,,1,,,65,0
6839,note_on,0,0,6,,,,,,,,1,,,57,0
6839,note_on,0,0,8,,,,,,,,3,,,77,0
6839,note_on,119,0,11,,,,,,,,6,,,41,0
6839,note_on,119,0,8,,,,,,,,3,,,69,0
6839,note_on,119,0,5,,,,,,,,0,,,69,0
6839,note_on,0,0,21,,,,,,,,15,,,72,0
6839,note_on,59,0,15,,,,,,,,10,,,57,0
6839,note_on,59,0,17,,,,,,,,11,,,72,0
6839,note_on,119,0,7,,,,,,,,2,,,65,0
6839,note_on,0,0,7,,,,,,,,2,,,72,0
6839,note_on,0,0,7,,,,,,,,2,,,77,0
6839,note_on,59,0,19,,,,,,,,13,,,57,0
6839,note_on,0,0,21,,,,,,,,15,,,69,0
6839,note_on,0,0,21,,,,,,,,15,,,53,0
6839,note_on,119,0,21,,,,,,,,15,,,77,0
6839,note_on,59,0,20,,,,,,,,14,,,53,0
6839,note_on,59,0,16,,,,,,,,10,,,53,0
6840,note_on,1,0,20,,,,,,,,14,,,53,72
6840,note_on,1,0,15,,,,,,,,10,,,57,72
6840,note_on,1,0,18,,,,,,,,12,,,69,72
6840,note_on,1,0,17,,,,,,,,11,,,72,72
6840,note_on,1,0,16,,,,,,,,10,,,53,72
6840,note_on,1,0,19,,,,,,,,13,,,57,72
6840,note_on,1,0,14,,,,,,,,10,,,69,72
6899,note_on,59,0,16,,,,,,,,10,,,53,0
6899,note_on,59,0,19,,,,,,,,13,,,57,0
6899,note_on,59,0,14,,,,,,,,10,,,69,0
6899,note_on,59,0,15,,,,,,,,10,,,57,0
6899,note_on,59,0,20,,,,,,,,14,,,53,0
6899,note_on,59,0,18,,,,,,,,12,,,69,0
6899,note_on,59,0,17,,,,,,,,11,,,72,0
6900,note_on,1,0,17,,,,,,,,11,,,72,72
6900,note_on,1,0,18,,,,,,,,12,,,69,72
6900,note_on,1,0,16,,,,,,,,10,,,53,72
6900,note_on,1,0,15,,,,,,,,10,,,57,72
6900,note_on,1,0,19,,,,,,,,13,,,57,72
6900,note_on,1,0,20,,,,,,,,14,,,53,72
6900,note_on,1,0,14,,,,,,,,10,,,69,72
6945,note_on,106,0,8,,,,,,,,3,,,67,72
6945,note_on,106,0,7,,,,,,,,2,,,67,72
6959,note_on,14,0,7,,,,,,,,2,,,67,0
6959,note_on,59,0,18,,,,,,,,12,,,69,0
6959,note_on,59,0,20,,,,,,,,14,,,53,0
6959,note_on,14,0,8,,,,,,,,3,,,67,0
6959,note_on,59,0,15,,,,,,,,10,,,57,0
6959,note_on,59,0,14,,,,,,,,10,,,69,0
6959,note_on,59,0,16,,,,,,,,10,,,53,0
6959,note_on,59,0,17,,,,,,,,11,,,72,0
6959,note_on,59,0,19,,,,,,,,13,,,57,0
6960,note_on,1,0,15,,,,,,,,10,,,57,72
6960,note_on,1,0,8,,,,,,,,3,,,65,72
6960,note_on,1,0,7,,,,,,,,2,,,65,72
6960,note_on,1,0,20,,,,,,,,14,,,53,72
6960,note_on,1,0,14,,,,,,,,10,,,69,72
6960,note_on,1,0,16,,,,,,,,10,,,53,72
6960,note_on,0,0,21,,,,,,,,15,,,72,72
6960,note_on,1,0,19,,,,,,,,13,,,57,72
6960,note_on,1,0,18,,,,,,,,12,,,69,72
6960,note_on,121,0,21,,,,,,,,15,,,69,72
6960,note_on,1,0,17,,,,,,,,11,,,72,72
6974,note_on,14,0,8,,,,,,,,3,,,65,0
6974,note_on,14,0,7,,,,,,,,2,,,65,0
6975,note_on,1,0,8,,,,,,,,3,,,64,72
6975,note_on,1,0,7,,,,,,,,2,,,64,72
6989,note_on,14,0,7,,,,,,,,2,,,64,0
6989,note_on,14,0,8,,,,,,,,3,,,64,0
6990,note_on,1,0,8,,,,,,,,3,,,65,72
6990,note_on,151,0,11,,,,,,,,6,,,41,48
6990,note_on,1,0,7,,,,,,,,2,,,65,72
6990,note_on,151,0,9,,,,,,,,4,,,65,72
6990,note_on,30,0,21,,,,,,,,15,,,53,72
7019,note_on,29,0,21,,,,,,,,15,,,53,0
7019,note_on,29,0,9,,,,,,,,4,,,65,0
7019,note_on,29,0,7,,,,,,,,2,,,65,0
7019,note_on,29,0,8,,,,,,,,3,,,65,0
7019,note_on,29,0,11,,,,,,,,6,,,41,0
7020,note_on,1,0,11,,,,,,,,6,,,45,48
7020,note_on,181,0,6,,,,,,,,1,,,60,72
7020,note_on,1,0,9,,,,,,,,4,,,69,72
7020,note_on,0,0,6,,,,,,,,1,,,57,72
7020,note_on,181,0,5,,,,,,,,0,,,69,72
7020,note_on,1,0,7,,,,,,,,2,,,69,72
7020,note_on,0,0,5,,,,,,,,0,,,72,72
7020,note_on,1,0,8,,,,,,,,3,,,69,72
7020,note_on,1,0,21,,,,,,,,15,,,57,72
7049,note_on,89,0,15,,,,,,,,10,,,57,0
7049,note_on,89,0,17,,,,,,,,11,,,72,0
7049,note_on,29,0,7,,,,,,,,2,,,69,0
7049,note_on,29,0,11,,,,,,,,6,,,45,0
7049,note_on,89,0,16,,,,,,,,10,,,53,0
7049,note_on,29,0,21,,,,,,,,15,,,57,0
7049,note_on,89,0,19,,,,,,,,13,,,57,0
7049,note_on,29,0,9,,,,,,,,4,,,69,0
7049,note_on,89,0,18,,,,,,,,12,,,69,0
7049,note_on,29,0,8,,,,,,,,3,,,69,0
7049,note_on,89,0,20,,,,,,,,14,,,53,0
7049,note_on,89,0,14,,,,,,,,10,,,69,0
7050,note_on,1,0,7,,,,,,,,2,,,65,72
7050,note_on,1,0,16,,,,,,,,10,,,53,72
7050,note_on,1,0,17,,,,,,,,11,,,70,72
7050,note_on,1,0,14,,,,,,,,10,,,67,72
7050,note_on,1,0,18,,,,,,,,12,,,67,72
7050,note_on,1,0,11,,,,,,,,6,,,41,48
7050,note_on,1,0,8,,,,,,,,3,,,65,72
7050,note_on,1,0,20,,,,,,,,14,,,53,72
7050,note_on,1,0,19,,,,,,,,13,,,58,72
7050,note_on,1,0,15,,,,,,,,10,,,58,72
7050,note_on,1,0,21,,,,,,,,15,,,53,72
7050,note_on,1,0,9,,,,,,,,4,,,65,72
7064,note_on,14,0,8,,,,,,,,3,,,65,0
7064,note_on,14,0,7,,,,,,,,2,,,65,0
7064,note_on,14,0,11,,,,,,,,6,,,41,0
7064,note_on,14,0,21,,,,,,,,15,,,53,0
7064,note_on,14,0,9,,,,,,,,4,,,65,0
7079,note_on,59,0,5,,,,,,,,0,,,72,0
7079,note_on,29,0,17,,,,,,,,11,,,70,0
7079,note_on,15,0,21,,,,,,,,15,,,72,0
7079,note_on,59,0,6,,,,,,,,1,,,57,0
7079,note_on,29,0,14,,,,,,,,10,,,67,0
7079,note_on,0,0,21,,,,,,,,15,,,69,0
7079,note_on,29,0,15,,,,,,,,10,,,58,0
7079,note_on,29,0,16,,,,,,,,10,,,53,0
7079,note_on,29,0,20,,,,,,,,14,,,53,0
7079,note_on,0,0,5,,,,,,,,0,,,69,0
7079,note_on,0,0,6,,,,,,,,1,,,60,0
7079,note_on,29,0,18,,,,,,,,12,,,67,0
7079,note_on,29,0,19,,,,,,,,13,,,58,0
7080,note_on,1,0,15,,,,,,,,10,,,60,72
7080,note_on,16,0,7,,,,,,,,2,,,60,72
7080,note_on,16,0,9,,,,,,,,4,,,60,72
7080,note_on,1,0,18,,,,,,,,12,,,65,72
7080,note_on,1,0,6,,,,,,,,1,,,60,72
7080,note_on,1,0,5,,,,,,,,0,,,69,72
7080,note_on,16,0,8,,,,,,,,3,,,60,72
7080,note_on,0,0,6,,,,,,,,1,,,57,72
7080,note_on,1,0,17,,,,,,,,11,,,69,72
7080,note_on,1,0,14,,,,,,,,10,,,65,72
7080,note_on,16,0,11,,,,,,,,6,,,36,48
7080,note_on,1,0,16,,,,,,,,10,,,53,72
7080,note_on,1,0,19,,,,,,,,13,,,60,72
7080,note_on,0,0,5,,,,,,,,0,,,72,72
7080,note_on,1,0,20,,,,,,,,14,,,53,72
7094,note_on,14,0,9,,,,,,,,4,,,60,0
7094,note_on,14,0,8,,,,,,,,3,,,60,0
7094,note_on,14,0,11,,,,,,,,6,,,36,0
7094,note_on,14,0,7,,,,,,,,2,,,60,0
7110,note_on,16,0,8,,,,,,,,3,,,65,72
7110,note_on,16,0,7,,,,,,,,2,,,65,72
7110,note_on,16,0,11,,,,,,,,6,,,41,48
7110,note_on,16,0,9,,,,,,,,4,,,65,72
7124,note_on,14,0,8,,,,,,,,3,,,65,0
7124,note_on,14,0,9,,,,,,,,4,,,65,0
7124,note_on,14,0,7,,,,,,,,2,,,65,0
7124,note_on,14,0,11,,,,,,,,6,,,41,0
7139,note_on,0,0,5,,,,,,,,0,,,69,0
7139,note_on,0,0,6,,,,,,,,1,,,60,0
7139,note_on,59,0,6,,,,,,,,1,,,57,0
7139,note_on,59,0,5,,,,,,,,0,,,72,0
7140,note_on,16,0,8,,,,,,,,3,,,57,72
7140,note_on,16,0,11,,,,,,,,6,,,33,48
7140,note_on,16,0,9,,,,,,,,4,,,57,72
7140,note_on,16,0,7,,,,,,,,2,,,57,72
7140,note_on,0,0,5,,,,,,,,0,,,72,72
7140,note_on,1,0,6,,,,,,,,1,,,60,72
7140,note_on,0,0,6,,,,,,,,1,,,57,72
7140,note_on,1,0,5,,,,,,,,0,,,69,72
7154,note_on,14,0,8,,,,,,,,3,,,57,0
7154,note_on,14,0,11,,,,,,,,6,,,33,0
7154,note_on,14,0,7,,,,,,,,2,,,57,0
7154,note_on,14,0,9,,,,,,,,4,,,57,0
7170,note_on,16,0,11,,,,,,,,6,,,36,48
7170,note_on,16,0,8,,,,,,,,3,,,60,72
7170,note_on,16,0,9,,,,,,,,4,,,60,72
7170,note_on,16,0,7,,,,,,,,2,,,60,72
7184,note_on,14,0,7,,,,,,,,2,,,60,0
7184,note_on,14,0,9,,,,,,,,4,,,60,0
7184,note_on,14,0,11,,,,,,,,6,,,36,0
7184,note_on,14,0,8,,,,,,,,3,,,60,0
7199,note_on,119,0,14,,,,,,,,10,,,65,0
7199,note_on,119,0,18,,,,,,,,12,,,65,0
7199,note_on,119,0,16,,,,,,,,10,,,53,0
7199,note_on,119,0,20,,,,,,,,14,,,53,0
7199,note_on,0,0,5,,,,,,,,0,,,69,0
7199,note_on,119,0,15,,,,,,,,10,,,60,0
7199,note_on,119,0,19,,,,,,,,13,,,60,0
7199,note_on,59,0,6,,,,,,,,1,,,57,0
7199,note_on,0,0,6,,,,,,,,1,,,60,0
7199,note_on,119,0,17,,,,,,,,11,,,69,0
7199,note_on,59,0,5,,,,,,,,0,,,72,0
7200,note_on,121,0,21,,,,,,,,15,,,41,72
7200,note_on,0,0,21,,,,,,,,15,,,57,72
7200,note_on,16,0,9,,,,,,,,4,,,53,72
7200,note_on,0,0,21,,,,,,,,15,,,60,72
7200,note_on,0,0,21,,,,,,,,15,,,65,72
7200,note_on,0,0,5,,,,,,,,0,,,69,72
7200,note_on,16,0,8,,,,,,,,3,,,65,72
7200,note_on,16,0,7,,,,,,,,2,,,65,72
7200,note_on,16,0,11,,,,,,,,6,,,29,48
7200,note_on,1,0,5,,,,,,,,0,,,72,72
7200,note_on,0,0,6,,,,,,,,1,,,57,72
7200,note_on,1,0,6,,,,,,,,1,,,60,72
7260,note_on,61,0,20,,,,,,,,14,,,53,72
7260,note_on,61,0,19,,,,,,,,13,,,60,72
7260,note_on,61,0,14,,,,,,,,10,,,69,72
7260,note_on,61,0,18,,,,,,,,12,,,69,72
7260,note_on,61,0,17,,,,,,,,11,,,75,72
7260,note_on,61,0,16,,,,,,,,10,,,53,72
7260,note_on,61,0,15,,,,,,,,10,,,60,72
7319,note_on,59,0,18,,,,,,,,12,,,69,0
7319,note_on,119,0,21,,,,,,,,15,,,65,0
7319,note_on,119,0,7,,,,,,,,2,,,65,0
7319,note_on,59,0,19,,,,,,,,13,,,60,0
7319,note_on,119,0,9,,,,,,,,4,,,53,0
7319,note_on,0,0,21,,,,,,,,15,,,60,0
7319,note_on,59,0,16,,,,,,,,10,,,53,0
7319,note_on,59,0,14,,,,,,,,10,,,69,0
7319,note_on,119,0,8,,,,,,,,3,,,65,0
7319,note_on,0,0,6,,,,,,,,1,,,60,0
7319,note_on,119,0,6,,,,,,,,1,,,57,0
7319,note_on,59,0,20,,,,,,,,14,,,53,0
7319,note_on,0,0,5,,,,,,,,0,,,72,0
7319,note_on,59,0,17,,,,,,,,11,,,75,0
7319,note_on,119,0,5,,,,,,,,0,,,69,0
7319,note_on,119,0,11,,,,,,,,6,,,29,0
7319,note_on,0,0,21,,,,,,,,15,,,57,0
7319,note_on,59,0,15,,,,,,,,10,,,60,0
7319,note_on,0,0,21,,,,,,,,15,,,41,0
7320,note_on,1,0,16,,,,,,,,10,,,53,72
7320,note_on,1,0,20,,,,,,,,14,,,53,72
7320,note_on,1,0,17,,,,,,,,11,,,75,72
7320,note_on,1,0,19,,,,,,,,13,,,60,72
7320,note_on,1,0,15,,,,,,,,10,,,60,72
7320,note_on,1,0,14,,,,,,,,10,,,69,72
7320,note_on,1,0,18,,,,,,,,12,,,69,72
7379,note_on,59,0,17,,,,,,,,11,,,75,0
7379,note_on,59,0,19,,,,,,,,13,,,60,0
7379,note_on,59,0,20,,,,,,,,14,,,53,0
7379,note_on,59,0,16,,,,,,,,10,,,53,0
7379,note_on,59,0,15,,,,,,,,10,,,60,0
7379,note_on,59,0,14,,,,,,,,10,,,69,0
7379,note_on,59,0,18,,,,,,,,12,,,69,0
7380,note_on,1,0,20,,,,,,,,14,,,53,72
7380,note_on,1,0,19,,,,,,,,13,,,60,72
7380,note_on,1,0,17,,,,,,,,11,,,75,72
7380,note_on,1,0,16,,,,,,,,10,,,53,72
7380,note_on,1,0,15,,,,,,,,10,,,60,72
7380,note_on,1,0,18,,,,,,,,12,,,69,72
7380,note_on,1,0,14,,,,,,,,10,,,69,72
7425,note_on,106,0,7,,,,,,,,2,,,67,72
7425,note_on,106,0,8,,,,,,,,3,,,67,72
7439,note_on,59,0,18,,,,,,,,12,,,69,0
7439,note_on,59,0,19,,,,,,,,13,,,60,0
7439,note_on,59,0,17,,,,,,,,11,,,75,0
7439,note_on,59,0,14,,,,,,,,10,,,69,0
7439,note_on,14,0,7,,,,,,,,2,,,67,0
7439,note_on,59,0,20,,,,,,,,14,,,53,0
7439,note_on,14,0,8,,,,,,,,3,,,67,0
7439,note_on,59,0,16,,,,,,,,10,,,53,0
7439,note_on,59,0,15,,,,,,,,10,,,60,0
7440,note_on,1,0,14,,,,,,,,10,,,69,72
7440,note_on,1,0,8,,,,,,,,3,,,65,72
7440,note_on,1,0,16,,,,,,,,10,,,53,72
7440,note_on,1,0,20,,,,,,,,14,,,53,72
7440,note_on,1,0,18,,,,,,,,12,,,69,72
7440,note_on,1,0,7,,,,,,,,2,,,65,72
7440,note_on,1,0,17,,,,,,,,11,,,75,72
7440,note_on,1,0,19,,,,,,,,13,,,60,72
7440,note_on,0,0,21,,,,,,,,15,,,72,72
7440,note_on,121,0,21,,,,,,,,15,,,69,72
7440,note_on,1,0,15,,,,,,,,10,,,60,72
7454,note_on,14,0,7,,,,,,,,2,,,65,0
7454,note_on,14,0,8,,,,,,,,3,,,65,0
7455,note_on,1,0,7,,,,,,,,2,,,64,72
7455,note_on,1,0,8,,,,,,,,3,,,64,72
7469,note_on,14,0,7,,,,,,,,2,,,64,0
7469,note_on,14,0,8,,,,,,,,3,,,64,0
7470,note_on,151,0,11,,,,,,,,6,,,41,48
7470,note_on,151,0,9,,,,,,,,4,,,65,72
7470,note_on,1,0,8,,,,,,,,3,,,65,72
7470,note_on,1,0,7,,,,,,,,2,,,65,72
7470,note_on,30,0,21,,,,,,,,15,,,53,72
7499,note_on,29,0,8,,,,,,,,3,,,65,0
7499,note_on,29,0,9,,,,,,,,4,,,65,0
7499,note_on,29,0,7,,,,,,,,2,,,65,0
7499,note_on,29,0,21,,,,,,,,15,,,53,0
7499,note_on,29,0,11,,,,,,,,6,,,41,0
7500,note_on,1,0,11,,,,,,,,6,,,45,48
7500,note_on,1,0,8,,,,,,,,3,,,69,72
7500,note_on,1,0,9,,,,,,,,4,,,69,72
7500,note_on,1,0,21,,,,,,,,15,,,57,72
7500,note_on,181,0,5,,,,,,,,0,,,72,72
7500,note_on,181,0,6,,,,,,,,1,,,63,72
7500,note_on,0,0,5,,,,,,,,0,,,75,72
7500,note_on,0,0,6,,,,,,,,1,,,60,72
7500,note_on,1,0,7,,,,,,,,2,,,69,72
7529,note_on,29,0,8,,,,,,,,3,,,69,0
7529,note_on,29,0,11,,,,,,,,6,,,45,0
7529,note_on,29,0,9,,,,,,,,4,,,69,0
7529,note_on,89,0,15,,,,,,,,10,,,60,0
7529,note_on,89,0,17,,,,,,,,11,,,75,0
7529,note_on,89,0,16,,,,,,,,10,,,53,0
7529,note_on,29,0,7,,,,,,,,2,,,69,0
7529,note_on,89,0,20,,,,,,,,14,,,53,0
7529,note_on,89,0,18,,,,,,,,12,,,69,0
7529,note_on,29,0,21,,,,,,,,15,,,57,0
7529,note_on,89,0,19,,,,,,,,13,,,60,0
7529,note_on,89,0,14,,,,,,,,10,,,69,0
7530,note_on,1,0,20,,,,,,,,14,,,53,72
7530,note_on,1,0,16,,,,,,,,10,,,53,72
7530,note_on,1,0,21,,,,,,,,15,,,53,72
7530,note_on,1,0,11,,,,,,,,6,,,41,48
7530,note_on,1,0,19,,,,,,,,13,,,62,72
7530,note_on,1,0,9,,,,,,,,4,,,65,72
7530,note_on,1,0,15,,,,,,,,10,,,62,72
7530,note_on,1,0,7,,,,,,,,2,,,65,72
7530,note_on,1,0,8,,,,,,,,3,,,65,72
7530,note_on,1,0,18,,,,,,,,12,,,70,72
7530,note_on,1,0,17,,,,,,,,11,,,74,72
7530,note_on,1,0,14,,,,,,,,10,,,70,72
7544,note_on,14,0,11,,,,,,,,6,,,41,0
7544,note_on,14,0,8,,,,,,,,3,,,65,0
7544,note_on,14,0,21,,,,,,,,15,,,53,0
7544,note_on,14,0,9,,,,,,,,4,,,65,0
7544,note_on,14,0,7,,,,,,,,2,,,65,0
7559,note_on,29,0,17,,,,,,,,11,,,74,0
7559,note_on,0,0,21,,,,,,,,15,,,69,0
7559,note_on,0,0,6,,,,,,,,1,,,63,0
7559,note_on,29,0,20,,,,,,,,14,,,53,0
7559,note_on,15,0,21,,,,,,,,15,,,72,0
7559,note_on,29,0,16,,,,,,,,10,,,53,0
7559,note_on,59,0,5,,,,,,,,0,,,75,0
7559,note_on,29,0,18,,,,,,,,12,,,70,0
7559,note_on,29,0,19,,,,,,,,13,,,62,0
7559,note_on,59,0,6,,,,,,,,1,,,60,0
7559,note_on,0,0,5,,,,,,,,0,,,72,0
7559,note_on,29,0,15,,,,,,,,10,,,62,0
7559,note_on,29,0,14,,,,,,,,10,,,70,0
7560,note_on,1,0,20,,,,,,,,14,,,53,72
7560,note_on,1,0,14,,,,,,,,10,,,69,72
7560,note_on,1,0,19,,,,,,,,13,,,63,72
7560,note_on,16,0,8,,,,,,,,3,,,60,72
7560,note_on,1,0,15,,,,,,,,10,,,63,72
7560,note_on,1,0,5,,,,,,,,0,,,72,72
7560,note_on,1,0,6,,,,,,,,1,,,63,72
7560,note_on,1,0,17,,,,,,,,11,,,72,72
7560,note_on,16,0,7,,,,,,,,2,,,60,72
7560,note_on,1,0,18,,,,,,,,12,,,69,72
7560,note_on,1,0,16,,,,,,,,10,,,53,72
7560,note_on,16,0,9,,,,,,,,4,,,60,72
7560,note_on,0,0,5,,,,,,,,0,,,75,72
7560,note_on,0,0,6,,,,,,,,1,,,60,72
7560,note_on,16,0,11,,,,,,,,6,,,36,48
7574,note_on,14,0,8,,,,,,,,3,,,60,0
7574,note_on,14,0,7,,,,,,,,2,,,60,0
7574,note_on,14,0,9,,,,,,,,4,,,60,0
7574,note_on,14,0,11,,,,,,,,6,,,36,0
7590,note_on,16,0,8,,,,,,,,3,,,65,72
7590,note_on,16,0,7,,,,,,,,2,,,65,72
7590,note_on,16,0,11,,,,,,,,6,,,41,48
7590,note_on,16,0,9,,,,,,,,4,,,65,72
7604,note_on,14,0,8,,,,,,,,3,,,65,0
7604,note_on,14,0,7,,,,,,,,2,,,65,0
7604,note_on,14,0,11,,,,,,,,6,,,41,0
7604,note_on,14,0,9,,,,,,,,4,,,65,0
7619,note_on,0,0,6,,,,,,,,1,,,63,0
7619,note_on,0,0,5,,,,,,,,0,,,72,0
7619,note_on,59,0,5,,,,,,,,0,,,75,0
7619,note_on,59,0,6,,,,,,,,1,,,60,0
7620,note_on,0,0,6,,,,,,,,1,,,60,72
7620,note_on,1,0,6,,,,,,,,1,,,63,72
7620,note_on,16,0,9,,,,,,,,4,,,57,72
7620,note_on,16,0,8,,,,,,,,3,,,57,72
7620,note_on,0,0,5,,,,,,,,0,,,75,72
7620,note_on,1,0,5,,,,,,,,0,,,72,72
7620,note_on,16,0,7,,,,,,,,2,,,57,72
7620,note_on,16,0,11,,,,,,,,6,,,33,48
7634,note_on,14,0,8,,,,,,,,3,,,57,0
7634,note_on,14,0,7,,,,,,,,2,,,57,0
7634,note_on,14,0,9,,,,,,,,4,,,57,0
7634,note_on,14,0,11,,,,,,,,6,,,33,0
7650,note_on,16,0,7,,,,,,,,2,,,60,72
7650,note_on,16,0,11,,,,,,,,6,,,36,48
7650,note_on,16,0,8,,,,,,,,3,,,60,72
7650,note_on,16,0,9,,,,,,,,4,,,60,72
7664,note_on,14,0,11,,,,,,,,6,,,36,0
7664,note_on,14,0,8,,,,,,,,3,,,60,0
7664,note_on,14,0,9,,,,,,,,4,,,60,0
7664,note_on,14,0,7,,,,,,,,2,,,60,0
7679,note_on,0,0,5,,,,,,,,0,,,72,0
7679,note_on,59,0,5,,,,,,,,0,,,75,0
7679,note_on,119,0,15,,,,,,,,10,,,63,0
7679,note_on,119,0,17,,,,,,,,11,,,72,0
7679,note_on,119,0,20,,,,,,,,14,,,53,0
7679,note_on,119,0,18,,,,,,,,12,,,69,0
7679,note_on,59,0,6,,,,,,,,1,,,60,0
7679,note_on,119,0,16,,,,,,,,10,,,53,0
7679,note_on,119,0,14,,,,,,,,10,,,69,0
7679,note_on,119,0,19,,,,,,,,13,,,63,0
7679,note_on,0,0,6,,,,,,,,1,,,63,0
7680,note_on,1,0,18,,,,,,,,12,,,69,72
7680,note_on,0,0,5,,,,,,,,0,,,69,72
7680,note_on,1,0,20,,,,,,,,14,,,51,72
7680,note_on,16,0,11,,,,,,,,6,,,39,48
7680,note_on,1,0,5,,,,,,,,0,,,79,72
7680,note_on,1,0,19,,,,,,,,13,,,60,72
7680,note_on,16,0,9,,,,,,,,4,,,63,72
7680,note_on,1,0,14,,,,,,,,10,,,69,72
7680,note_on,1,0,6,,,,,,,,1,,,67,72
7680,note_on,0,0,21,,,,,,,,15,,,60,72
7680,note_on,0,0,21,,,,,,,,15,,,69,72
7680,note_on,0,0,21,,,,,,,,15,,,67,72
7680,note_on,1,0,15,,,,,,,,10,,,60,72
7680,note_on,1,0,16,,,,,,,,10,,,51,72
7680,note_on,1,0,17,,,,,,,,11,,,79,72
7680,note_on,0,0,6,,,,,,,,1,,,57,72
7680,note_on,121,0,21,,,,,,,,15,,,51,72
7739,note_on,0,0,21,,,,,,,,15,,,69,0
7739,note_on,59,0,5,,,,,,,,0,,,69,0
7739,note_on,59,0,6,,,,,,,,1,,,57,0
7739,note_on,0,0,6,,,,,,,,1,,,67,0
7739,note_on,0,0,21,,,,,,,,15,,,67,0
7739,note_on,0,0,21,,,,,,,,15,,,51,0
7739,note_on,59,0,21,,,,,,,,15,,,60,0
7739,note_on,59,0,11,,,,,,,,6,,,39,0
7739,note_on,0,0,5,,,,,,,,0,,,79,0
7739,note_on,59,0,9,,,,,,,,4,,,63,0
7740,note_on,76,0,7,,,,,,,,2,,,69,72
7740,note_on,0,0,7,,,,,,,,2,,,79,72
7740,note_on,0,0,8,,,,,,,,3,,,69,72
7740,note_on,76,0,8,,,,,,,,3,,,79,72
7769,note_on,89,0,14,,,,,,,,10,,,69,0
7769,note_on,89,0,19,,,,,,,,13,,,60,0
7769,note_on,89,0,20,,,,,,,,14,,,51,0
7769,note_on,89,0,15,,,,,,,,10,,,60,0
7769,note_on,89,0,18,,,,,,,,12,,,69,0
7769,note_on,89,0,17,,,,,,,,11,,,79,0
7769,note_on,89,0,16,,,,,,,,10,,,51,0
7770,note_on,1,0,14,,,,,,,,10,,,69,72
7770,note_on,1,0,16,,,,,,,,10,,,51,72
7770,note_on,1,0,15,,,,,,,,10,,,60,72
7770,note_on,1,0,20,,,,,,,,14,,,51,72
7770,note_on,1,0,18,,,,,,,,12,,,69,72
7770,note_on,1,0,17,,,,,,,,11,,,79,72
7770,note_on,1,0,19,,,,,,,,13,,,60,72
7799,note_on,29,0,14,,,,,,,,10,,,69,0
7799,note_on,29,0,16,,,,,,,,10,,,51,0
7799,note_on,0,0,8,,,,,,,,3,,,79,0
7799,note_on,59,0,8,,,,,,,,3,,,69,0
7799,note_on,0,0,7,,,,,,,,2,,,69,0
7799,note_on,29,0,17,,,,,,,,11,,,79,0
7799,note_on,29,0,15,,,,,,,,10,,,60,0
7799,note_on,29,0,18,,,,,,,,12,,,69,0
7799,note_on,59,0,7,,,,,,,,2,,,79,0
7799,note_on,29,0,19,,,,,,,,13,,,60,0
7799,note_on,29,0,20,,,,,,,,14,,,51,0
7800,note_on,1,0,19,,,,,,,,13,,,62,72
7800,note_on,1,0,15,,,,,,,,10,,,62,72
7800,note_on,61,0,11,,,,,,,,6,,,38,48
7800,note_on,1,0,16,,,,,,,,10,,,50,72
7800,note_on,0,0,6,,,,,,,,1,,,58,72
7800,note_on,1,0,17,,,,,,,,11,,,77,72
7800,note_on,1,0,18,,,,,,,,12,,,70,72
7800,note_on,61,0,21,,,,,,,,15,,,50,72
7800,note_on,0,0,21,,,,,,,,15,,,65,72
7800,note_on,0,0,21,,,,,,,,15,,,70,72
7800,note_on,0,0,21,,,,,,,,15,,,62,72
7800,note_on,1,0,20,,,,,,,,14,,,50,72
7800,note_on,61,0,5,,,,,,,,0,,,77,72
7800,note_on,0,0,5,,,,,,,,0,,,70,72
7800,note_on,1,0,14,,,,,,,,10,,,70,72
7800,note_on,61,0,9,,,,,,,,4,,,62,72
7800,note_on,61,0,6,,,,,,,,1,,,65,72
7859,note_on,59,0,5,,,,,,,,0,,,70,0
7859,note_on,0,0,5,,,,,,,,0,,,77,0
7859,note_on,59,0,9,,,,,,,,4,,,62,0
7859,note_on,0,0,6,,,,,,,,1,,,65,0
7859,note_on,0,0,21,,,,,,,,15,,,70,0
7859,note_on,59,0,21,,,,,,,,15,,,62,0
7859,note_on,0,0,21,,,,,,,,15,,,50,0
7859,note_on,0,0,21,,,,,,,,15,,,65,0
7859,note_on,59,0,6,,,,,,,,1,,,58,0
7859,note_on,59,0,11,,,,,,,,6,,,38,0
7860,note_on,61,0,8,,,,,,,,3,,,77,72
7860,note_on,0,0,8,,,,,,,,3,,,70,72
7860,note_on,0,0,8,,,,,,,,3,,,62,72
7860,note_on,0,0,7,,,,,,,,2,,,70,72
7860,note_on,61,0,7,,,,,,,,2,,,62,72
7860,note_on,0,0,7,,,,,,,,2,,,77,72
7919,note_on,59,0,7,,,,,,,,2,,,77,0
7919,note_on,119,0,18,,,,,,,,12,,,70,0
7919,note_on,119,0,20,,,,,,,,14,,,50,0
7919,note_on,0,0,7,,,,,,,,2,,,70,0
7919,note_on,119,0,17,,,,,,,,11,,,77,0
7919,note_on,119,0,19,,,,,,,,13,,,62,0
7919,note_on,0,0,7,,,,,,,,2,,,62,0
7919,note_on,59,0,8,,,,,,,,3,,,62,0
7919,note_on,119,0,14,,,,,,,,10,,,70,0
7919,note_on,119,0,15,,,,,,,,10,,,62,0
7919,note_on,0,0,8,,,,,,,,3,,,70,0
7919,note_on,0,0,8,,,,,,,,3,,,77,0
7919,note_on,119,0,16,,,,,,,,10,,,50,0
7920,note_on,0,0,5,,,,,,,,0,,,69,48
7920,note_on,61,0,5,,,,,,,,0,,,75,48
7920,note_on,3721,0,10,,,,,,,,5,,,66,48
7920,note_on,61,0,6,,,,,,,,1,,,66,48
7979,note_on,59,0,10,,,,,,,,5,,,66,0
7980,note_on,61,0,8,,,,,,,,3,,,75,48
7980,note_on,121,0,9,,,,,,,,4,,,72,48
7980,note_on,61,0,7,,,,,,,,2,,,81,48
8039,note_on,59,0,8,,,,,,,,3,,,75,0
8039,note_on,119,0,6,,,,,,,,1,,,66,0
8039,note_on,59,0,7,,,,,,,,2,,,81,0
8039,note_on,59,0,9,,,,,,,,4,,,72,0
8039,note_on,0,0,5,,,,,,,,0,,,75,0
8039,note_on,119,0,5,,,,,,,,0,,,69,0
8040,note_on,61,0,10,,,,,,,,5,,,67,48
8040,note_on,1,0,6,,,,,,,,1,,,69,48
8040,note_on,0,0,5,,,,,,,,0,,,70,48
8040,note_on,1,0,5,,,,,,,,0,,,74,48
8099,note_on,59,0,10,,,,,,,,5,,,67,0
8100,note_on,61,0,7,,,,,,,,2,,,82,48
8100,note_on,61,0,9,,,,,,,,4,,,70,48
8100,note_on,61,0,8,,,,,,,,3,,,74,48
8159,note_on,59,0,7,,,,,,,,2,,,82,0
8159,note_on,0,0,5,,,,,,,,0,,,74,0
8159,note_on,119,0,5,,,,,,,,0,,,70,0
8159,note_on,59,0,8,,,,,,,,3,,,74,0
8159,note_on,119,0,6,,,,,,,,1,,,69,0
8159,note_on,59,0,9,,,,,,,,4,,,70,0
8160,note_on,0,0,21,,,,,,,,15,,,72,48
8160,note_on,0,0,21,,,,,,,,15,,,70,48
8160,note_on,0,0,21,,,,,,,,15,,,67,48
8160,note_on,301,0,21,,,,,,,,15,,,51,48
8160,note_on,241,0,20,,,,,,,,14,,,51,48
8160,note_on,241,0,19,,,,,,,,13,,,58,48
8160,note_on,241,0,16,,,,,,,,10,,,51,48
8160,note_on,241,0,15,,,,,,,,10,,,58,48
8160,note_on,241,0,18,,,,,,,,12,,,67,48
8160,note_on,0,0,6,,,,,,,,1,,,58,48
8160,note_on,1,0,6,,,,,,,,1,,,60,48
8160,note_on,301,0,11,,,,,,,,6,,,39,48
8160,note_on,241,0,17,,,,,,,,11,,,72,48
8160,note_on,241,0,14,,,,,,,,10,,,67,48
8219,note_on,59,0,21,,,,,,,,15,,,72,0
8219,note_on,0,0,21,,,,,,,,15,,,51,0
8219,note_on,0,0,21,,,,,,,,15,,,67,0
8219,note_on,0,0,21,,,,,,,,15,,,70,0
8219,note_on,59,0,11,,,,,,,,6,,,39,0
8220,note_on,61,0,9,,,,,,,,4,,,55,48
8220,note_on,61,0,8,,,,,,,,3,,,58,48
8220,note_on,61,0,7,,,,,,,,2,,,60,48
8279,note_on,119,0,14,,,,,,,,10,,,67,0
8279,note_on,119,0,16,,,,,,,,10,,,51,0
8279,note_on,119,0,17,,,,,,,,11,,,72,0
8279,note_on,119,0,6,,,,,,,,1,,,60,0
8279,note_on,59,0,9,,,,,,,,4,,,55,0
8279,note_on,119,0,15,,,,,,,,10,,,58,0
8279,note_on,119,0,18,,,,,,,,12,,,67,0
8279,note_on,59,0,8,,,,,,,,3,,,58,0
8279,note_on,119,0,20,,,,,,,,14,,,51,0
8279,note_on,59,0,7,,,,,,,,2,,,60,0
8279,note_on,119,0,19,,,,,,,,13,,,58,0
8280,note_on,1,0,15,,,,,,,,10,,,55,48
8280,note_on,0,0,21,,,,,,,,15,,,67,48
8280,note_on,1,0,18,,,,,,,,12,,,67,48
8280,note_on,0,0,21,,,,,,,,15,,,70,48
8280,note_on,0,0,21,,,,,,,,15,,,73,48
8280,note_on,1,0,20,,,,,,,,14,,,52,48
8280,note_on,61,0,21,,,,,,,,15,,,52,48
8280,note_on,1,0,19,,,,,,,,13,,,55,48
8280,note_on,1,0,17,,,,,,,,11,,,73,48
8280,note_on,1,0,16,,,,,,,,10,,,52,48
8280,note_on,1,0,6,,,,,,,,1,,,61,48
8280,note_on,61,0,11,,,,,,,,6,,,40,48
8280,note_on,1,0,14,,,,,,,,10,,,67,48
8339,note_on,0,0,21,,,,,,,,15,,,70,0
8339,note_on,59,0,18,,,,,,,,12,,,67,0
8339,note_on,59,0,15,,,,,,,,10,,,55,0
8339,note_on,0,0,21,,,,,,,,15,,,73,0
8339,note_on,0,0,21,,,,,,,,15,,,52,0
8339,note_on,59,0,21,,,,,,,,15,,,67,0
8339,note_on,59,0,14,,,,,,,,10,,,67,0
8339,note_on,59,0,11,,,,,,,,6,,,40,0
8339,note_on,59,0,16,,,,,,,,10,,,52,0
8339,note_on,59,0,17,,,,,,,,11,,,73,0
8339,note_on,59,0,20,,,,,,,,14,,,52,0
8339,note_on,59,0,19,,,,,,,,13,,,55,0
8340,note_on,61,0,7,,,,,,,,2,,,61,48
8340,note_on,1,0,17,,,,,,,,11,,,70,48
8340,note_on,1,0,18,,,,,,,,12,,,67,48
8340,note_on,61,0,8,,,,,,,,3,,,58,48
8340,note_on,1,0,16,,,,,,,,10,,,52,48
8340,note_on,1,0,15,,,,,,,,10,,,61,48
8340,note_on,1,0,20,,,,,,,,14,,,52,48
8340,note_on,1,0,14,,,,,,,,10,,,67,48
8340,note_on,1,0,19,,,,,,,,13,,,61,48
8340,note_on,61,0,9,,,,,,,,4,,,55,48
8399,note_on,59,0,19,,,,,,,,13,,,61,0
8399,note_on,59,0,8,,,,,,,,3,,,58,0
8399,note_on,59,0,18,,,,,,,,12,,,67,0
8399,note_on,59,0,7,,,,,,,,2,,,61,0
8399,note_on,59,0,20,,,,,,,,14,,,52,0
8399,note_on,119,0,6,,,,,,,,1,,,61,0
8399,note_on,59,0,14,,,,,,,,10,,,67,0
8399,note_on,59,0,16,,,,,,,,10,,,52,0
8399,note_on,59,0,17,,,,,,,,11,,,70,0
8399,note_on,59,0,15,,,,,,,,10,,,61,0
8399,note_on,59,0,9,,,,,,,,4,,,55,0
8400,note_on,1,0,20,,,,,,,,14,,,53,48
8400,note_on,0,0,21,,,,,,,,15,,,65,48
8400,note_on,1,0,18,,,,,,,,12,,,65,48
8400,note_on,0,0,21,,,,,,,,15,,,60,48
8400,note_on,0,0,21,,,,,,,,15,,,70,48
8400,note_on,1,0,14,,,,,,,,10,,,65,48
8400,note_on,1,0,6,,,,,,,,1,,,60,48
8400,note_on,1,0,17,,,,,,,,11,,,70,48
8400,note_on,1,0,19,,,,,,,,13,,,60,48
8400,note_on,1,0,15,,,,,,,,10,,,60,48
8400,note_on,1,0,16,,,,,,,,10,,,53,48
8400,note_on,61,0,21,,,,,,,,15,,,53,48
8400,note_on,61,0,11,,,,,,,,6,,,41,48
8430,note_on,31,0,7,,,,,,,,2,,,72,48
8459,note_on,59,0,11,,,,,,,,6,,,41,0
8459,note_on,59,0,21,,,,,,,,15,,,65,0
8459,note_on,0,0,21,,,,,,,,15,,,60,0
8459,note_on,0,0,21,,,,,,,,15,,,53,0
8459,note_on,29,0,7,,,,,,,,2,,,72,0
8459,note_on,0,0,21,,,,,,,,15,,,70,0
8460,note_on,61,0,8,,,,,,,,3,,,60,48
8460,note_on,61,0,9,,,,,,,,4,,,58,48
8460,note_on,1,0,7,,,,,,,,2,,,77,48
8489,note_on,29,0,7,,,,,,,,2,,,77,0
8490,note_on,1,0,7,,,,,,,,2,,,77,48
8504,note_on,14,0,7,,,,,,,,2,,,77,0
8519,note_on,59,0,8,,,,,,,,3,,,60,0
8519,note_on,59,0,9,,,,,,,,4,,,58,0
8519,note_on,119,0,17,,,,,,,,11,,,70,0
8519,note_on,119,0,6,,,,,,,,1,,,58,0
8520,note_on,61,0,11,,,,,,,,6,,,29,48
8520,note_on,0,0,21,,,,,,,,15,,,60,48
8520,note_on,61,0,21,,,,,,,,15,,,41,48
8520,note_on,0,0,21,,,,,,,,15,,,69,48
8520,note_on,0,0,21,,,,,,,,15,,,65,48
8520,note_on,1,0,17,,,,,,,,11,,,69,48
8520,note_on,1,0,6,,,,,,,,1,,,57,48
8550,note_on,46,0,7,,,,,,,,2,,,72,48
8579,note_on,59,0,11,,,,,,,,6,,,29,0
8579,note_on,0,0,21,,,,,,,,15,,,69,0
8579,note_on,29,0,7,,,,,,,,2,,,72,0
8579,note_on,59,0,21,,,,,,,,15,,,65,0
8579,note_on,0,0,21,,,,,,,,15,,,41,0
8579,note_on,0,0,21,,,,,,,,15,,,60,0
8580,note_on,61,0,9,,,,,,,,4,,,57,48
8580,note_on,61,0,8,,,,,,,,3,,,60,48
8580,note_on,1,0,7,,,,,,,,2,,,77,48
8609,note_on,29,0,7,,,,,,,,2,,,77,0
8610,note_on,1,0,7,,,,,,,,2,,,77,48
8624,note_on,14,0,7,,,,,,,,2,,,77,0
8639,note_on,239,0,20,,,,,,,,14,,,53,0
8639,note_on,239,0,19,,,,,,,,13,,,60,0
8639,note_on,59,0,8,,,,,,,,3,,,60,0
8639,note_on,0,0,6,,,,,,,,1,,,60,0
8639,note_on,239,0,14,,,,,,,,10,,,65,0
8639,note_on,239,0,15,,,,,,,,10,,,60,0
8639,note_on,239,0,18,,,,,,,,12,,,65,0
8639,note_on,119,0,17,,,,,,,,11,,,69,0
8639,note_on,119,0,6,,,,,,,,1,,,57,0
8639,note_on,239,0,16,,,,,,,,10,,,53,0
8639,note_on,59,0,9,,,,,,,,4,,,57,0
8640,note_on,1,0,19,,,,,,,,13,,,62,48
8640,note_on,0,0,21,,,,,,,,15,,,65,48
8640,note_on,0,0,21,,,,,,,,15,,,62,48
8640,note_on,61,0,21,,,,,,,,15,,,46,48
8640,note_on,1,0,14,,,,,,,,10,,,65,48
8640,note_on,1,0,18,,,,,,,,12,,,65,48
8640,note_on,1,0,20,,,,,,,,14,,,46,48
8640,note_on,16,0,7,,,,,,,,2,,,74,48
8640,note_on,1,0,8,,,,,,,,3,,,62,48
8640,note_on,61,0,11,,,,,,,,6,,,34,48
8640,note_on,1,0,16,,,,,,,,10,,,46,48
8640,note_on,1,0,17,,,,,,,,11,,,70,48
8640,note_on,1,0,9,,,,,,,,4,,,58,48
8640,note_on,0,0,21,,,,,,,,15,,,70,48
8640,note_on,1,0,6,,,,,,,,1,,,58,48
8640,note_on,1,0,15,,,,,,,,10,,,62,48
8699,note_on,59,0,9,,,,,,,,4,,,58,0
8699,note_on,0,0,21,,,,,,,,15,,,65,0
8699,note_on,59,0,11,,,,,,,,6,,,34,0
8699,note_on,0,0,21,,,,,,,,15,,,62,0
8699,note_on,59,0,21,,,,,,,,15,,,70,0
8699,note_on,59,0,8,,,,,,,,3,,,62,0
8699,note_on,59,0,7,,,,,,,,2,,,74,0
8699,note_on,0,0,21,,,,,,,,15,,,46,0
8700,note_on,1,0,9,,,,,,,,4,,,58,48
8700,note_on,1,0,8,,,,,,,,3,,,62,48
8700,note_on,1,0,7,,,,,,,,2,,,65,48
8759,note_on,59,0,9,,,,,,,,4,,,58,0
8759,note_on,119,0,18,,,,,,,,12,,,65,0
8759,note_on,59,0,7,,,,,,,,2,,,65,0
8759,note_on,119,0,15,,,,,,,,10,,,62,0
8759,note_on,119,0,16,,,,,,,,10,,,46,0
8759,note_on,119,0,17,,,,,,,,11,,,70,0
8759,note_on,59,0,8,,,,,,,,3,,,62,0
8759,note_on,119,0,19,,,,,,,,13,,,62,0
8759,note_on,119,0,20,,,,,,,,14,,,46,0
8759,note_on,119,0,14,,,,,,,,10,,,65,0
8759,note_on,119,0,6,,,,,,,,1,,,58,0
8760,note_on,601,0,5,,,,,,,,0,,,70,48
8760,note_on,61,0,11,,,,,,,,6,,,50,48
8805,note_on,46,0,7,,,,,,,,2,,,70,48
8819,note_on,59,0,11,,,,,,,,6,,,50,0
8820,note_on,61,0,8,,,,,,,,3,,,65,48
8820,note_on,61,0,9,,,,,,,,4,,,58,48
8864,note_on,59,0,7,,,,,,,,2,,,70,0
8879,note_on,59,0,9,,,,,,,,4,,,58,0
8879,note_on,59,0,8,,,,,,,,3,,,65,0
8880,note_on,61,0,11,,,,,,,,6,,,48,48
8939,note_on,59,0,11,,,,,,,,6,,,48,0
8940,note_on,76,0,7,,,,,,,,2,,,70,48
8940,note_on,61,0,9,,,,,,,,4,,,60,48
8940,note_on,61,0,8,,,,,,,,3,,,63,48
8999,note_on,59,0,8,,,,,,,,3,,,63,0
8999,note_on,59,0,7,,,,,,,,2,,,70,0
8999,note_on,59,0,9,,,,,,,,4,,,60,0
8999,note_on,239,0,5,,,,,,,,0,,,70,0
9000,note_on,61,0,11,,,,,,,,6,,,41,48
9000,note_on,1,0,5,,,,,,,,0,,,75,48
9000,note_on,0,0,5,,,,,,,,0,,,69,48
9059,note_on,59,0,11,,,,,,,,6,,,41,0
9060,note_on,61,0,8,,,,,,,,3,,,63,48
9060,note_on,61,0,9,,,,,,,,4,,,60,48
9060,note_on,61,0,7,,,,,,,,2,,,69,48
9119,note_on,119,0,5,,,,,,,,0,,,69,0
9119,note_on,59,0,8,,,,,,,,3,,,63,0
9119,note_on,59,0,9,,,,,,,,4,,,60,0
9119,note_on,59,0,7,,,,,,,,2,,,69,0
9120,note_on,1,0,7,,,,,,,,2,,,77,48
9120,note_on,361,0,6,,,,,,,,1,,,65,48
9120,control_change,361,0,17,,,,,,,,11,10,55,,
9120,note_on,1,0,5,,,,,,,,0,,,70,48
9120,note_on,1,0,9,,,,,,,,4,,,58,48
9120,note_on,61,0,11,,,,,,,,6,,,46,48
9120,program_change,0,0,17,,,,,,,73,11,,,,
9179,note_on,59,0,11,,,,,,,,6,,,46,0
9239,note_on,119,0,5,,,,,,,,0,,,70,0
9239,note_on,119,0,9,,,,,,,,4,,,58,0
9240,note_on,120,0,6,,,,,,,,1,,,60,48
9240,note_on,121,0,8,,,,,,,,3,,,72,48
9240,note_on,1,0,9,,,,,,,,4,,,57,48
9240,note_on,61,0,11,,,,,,,,6,,,45,48
9269,note_on,29,0,6,,,,,,,,1,,,65,0
9269,note_on,149,0,7,,,,,,,,2,,,77,0
9270,note_on,1,0,7,,,,,,,,2,,,79,48
9270,note_on,1,0,6,,,,,,,,1,,,67,48
9299,note_on,29,0,7,,,,,,,,2,,,79,0
9299,note_on,60,0,5,,,,,,,,0,,,75,0
9299,note_on,59,0,11,,,,,,,,6,,,45,0
9299,note_on,29,0,6,,,,,,,,1,,,67,0
9300,note_on,1,0,5,,,,,,,,0,,,74,48
9300,note_on,1,0,7,,,,,,,,2,,,77,48
9300,note_on,1,0,6,,,,,,,,1,,,65,48
9329,note_on,29,0,6,,,,,,,,1,,,65,0
9329,note_on,29,0,7,,,,,,,,2,,,77,0
9330,note_on,1,0,6,,,,,,,,1,,,63,48
9330,note_on,1,0,7,,,,,,,,2,,,75,48
9359,note_on,119,0,9,,,,,,,,4,,,57,0
9359,note_on,29,0,6,,,,,,,,1,,,63,0
9359,note_on,59,0,5,,,,,,,,0,,,74,0
9359,note_on,29,0,7,,,,,,,,2,,,75,0
9360,note_on,1,0,6,,,,,,,,1,,,62,48
9360,note_on,1,0,9,,,,,,,,4,,,58,48
9360,note_on,1,0,7,,,,,,,,2,,,74,48
9360,note_on,61,0,11,,,,,,,,6,,,46,48
9389,note_on,29,0,6,,,,,,,,1,,,62,0
9389,note_on,29,0,7,,,,,,,,2,,,74,0
9390,note_on,1,0,7,,,,,,,,2,,,77,48
9390,note_on,1,0,6,,,,,,,,1,,,65,48
9419,note_on,59,0,11,,,,,,,,6,,,46,0
9419,note_on,0,0,6,,,,,,,,1,,,60,0
9419,note_on,29,0,6,,,,,,,,1,,,65,0
9419,note_on,59,0,9,,,,,,,,4,,,58,0
9419,note_on,179,0,8,,,,,,,,3,,,72,0
9419,note_on,29,0,7,,,,,,,,2,,,77,0
9420,note_on,1,0,11,,,,,,,,6,,,43,48
9420,note_on,1,0,8,,,,,,,,3,,,70,48
9420,note_on,1,0,9,,,,,,,,4,,,55,48
9420,note_on,0,0,6,,,,,,,,1,,,58,48
9420,note_on,1,0,6,,,,,,,,1,,,63,48
9420,note_on,1,0,7,,,,,,,,2,,,75,48
9449,note_on,29,0,6,,,,,,,,1,,,63,0
9449,note_on,29,0,7,,,,,,,,2,,,75,0
9450,note_on,1,0,6,,,,,,,,1,,,62,48
9450,note_on,1,0,7,,,,,,,,2,,,74,48
9479,note_on,59,0,9,,,,,,,,4,,,55,0
9479,note_on,59,0,11,,,,,,,,6,,,43,0
9479,note_on,29,0,7,,,,,,,,2,,,74,0
9479,note_on,29,0,6,,,,,,,,1,,,62,0
9480,note_on,1,0,6,,,,,,,,1,,,60,48
9480,note_on,1,0,7,,,,,,,,2,,,72,48
9480,note_on,1,0,9,,,,,,,,4,,,51,48
9480,note_on,1,0,11,,,,,,,,6,,,39,48
9509,note_on,29,0,7,,,,,,,,2,,,72,0
9509,note_on,29,0,6,,,,,,,,1,,,60,0
9510,note_on,1,0,6,,,,,,,,1,,,63,48
9510,note_on,1,0,7,,,,,,,,2,,,75,48
9539,note_on,59,0,9,,,,,,,,4,,,51,0
9539,note_on,29,0,7,,,,,,,,2,,,75,0
9539,note_on,29,0,6,,,,,,,,1,,,63,0
9539,note_on,0,0,6,,,,,,,,1,,,58,0
9539,note_on,119,0,8,,,,,,,,3,,,70,0
9539,note_on,59,0,11,,,,,,,,6,,,39,0
9540,note_on,1,0,9,,,,,,,,4,,,53,48
9540,note_on,1,0,8,,,,,,,,3,,,69,48
9540,note_on,1,0,6,,,,,,,,1,,,57,48
9540,note_on,0,0,6,,,,,,,,1,,,62,48
9540,note_on,1,0,7,,,,,,,,2,,,74,48
9540,note_on,1,0,11,,,,,,,,6,,,41,48
9569,note_on,29,0,6,,,,,,,,1,,,62,0
9569,note_on,29,0,7,,,,,,,,2,,,74,0
9570,note_on,1,0,7,,,,,,,,2,,,72,48
9570,note_on,1,0,6,,,,,,,,1,,,60,48
9599,note_on,0,0,6,,,,,,,,1,,,57,0
9599,note_on,29,0,6,,,,,,,,1,,,60,0
9599,note_on,29,0,7,,,,,,,,2,,,72,0
9599,note_on,59,0,8,,,,,,,,3,,,69,0
9599,note_on,59,0,9,,,,,,,,4,,,53,0
9599,note_on,59,0,11,,,,,,,,6,,,41,0
9600,note_on,1,0,6,,,,,,,,1,,,58,48
9600,note_on,1,0,7,,,,,,,,2,,,70,48
9600,note_on,1,0,9,,,,,,,,4,,,58,48
9600,note_on,480,0,17,,,,,,,,11,,,74,64
9600,note_on,1,0,11,,,,,,,,6,,,34,48
9660,note_on,61,0,8,,,,,,,,3,,,58,48
9719,note_on,119,0,9,,,,,,,,4,,,58,0
9719,note_on,119,0,11,,,,,,,,6,,,34,0
9719,note_on,119,0,6,,,,,,,,1,,,58,0
9719,note_on,119,0,7,,,,,,,,2,,,70,0
9719,note_on,119,0,17,,,,,,,,11,,,74,0
9720,note_on,1,0,17,,,,,,,,11,,,77,64
9749,note_on,89,0,8,,,,,,,,3,,,58,0
9750,note_on,1,0,8,,,,,,,,3,,,57,48
9779,note_on,29,0,8,,,,,,,,3,,,57,0
9780,note_on,1,0,8,,,,,,,,3,,,58,48
9809,note_on,29,0,8,,,,,,,,3,,,58,0
9810,note_on,1,0,8,,,,,,,,3,,,60,48
9839,note_on,29,0,8,,,,,,,,3,,,60,0
9839,note_on,119,0,17,,,,,,,,11,,,77,0
9840,note_on,1,0,8,,,,,,,,3,,,62,48
9840,note_on,1,0,17,,,,,,,,11,,,74,64
9869,note_on,29,0,8,,,,,,,,3,,,62,0
9870,note_on,1,0,8,,,,,,,,3,,,60,48
9899,note_on,59,0,17,,,,,,,,11,,,74,0
9899,note_on,29,0,8,,,,,,,,3,,,60,0
9900,note_on,1801,0,10,,,,,,,,5,,,58,48
9900,note_on,1,0,17,,,,,,,,11,,,74,64
9900,note_on,1,0,8,,,,,,,,3,,,62,48
9900,note_on,181,0,9,,,,,,,,4,,,62,48
9929,note_on,29,0,8,,,,,,,,3,,,62,0
9930,note_on,1,0,8,,,,,,,,3,,,64,48
9959,note_on,29,0,8,,,,,,,,3,,,64,0
9959,note_on,59,0,17,,,,,,,,11,,,74,0
9960,note_on,1,0,8,,,,,,,,3,,,65,48
9960,note_on,1,0,17,,,,,,,,11,,,74,64
9989,note_on,89,0,10,,,,,,,,5,,,58,0
9989,note_on,89,0,9,,,,,,,,4,,,62,0
9990,note_on,1,0,10,,,,,,,,5,,,60,48
9990,note_on,1,0,9,,,,,,,,4,,,63,48
10019,note_on,29,0,10,,,,,,,,5,,,60,0
10019,note_on,59,0,8,,,,,,,,3,,,65,0
10019,note_on,29,0,9,,,,,,,,4,,,63,0
10020,note_on,1,0,8,,,,,,,,3,,,66,48
10020,note_on,1,0,10,,,,,,,,5,,,58,48
10020,note_on,1,0,9,,,,,,,,4,,,62,48
10049,note_on,29,0,10,,,,,,,,5,,,58,0
10049,note_on,29,0,9,,,,,,,,4,,,62,0
10050,note_on,1,0,10,,,,,,,,5,,,57,48
10050,note_on,1,0,9,,,,,,,,4,,,60,48
10079,note_on,29,0,10,,,,,,,,5,,,57,0
10079,note_on,29,0,9,,,,,,,,4,,,60,0
10079,note_on,59,0,8,,,,,,,,3,,,66,0
10080,note_on,1,0,9,,,,,,,,4,,,58,48
10080,note_on,1,0,8,,,,,,,,3,,,67,48
10080,note_on,1,0,10,,,,,,,,5,,,55,48
10109,note_on,29,0,9,,,,,,,,4,,,58,0
10109,note_on,29,0,10,,,,,,,,5,,,55,0
10110,note_on,1,0,10,,,,,,,,5,,,53,48
10110,note_on,1,0,9,,,,,,,,4,,,57,48
10139,note_on,29,0,9,,,,,,,,4,,,57,0
10139,note_on,179,0,17,,,,,,,,11,,,74,0
10139,note_on,29,0,10,,,,,,,,5,,,53,0
10140,note_on,1,0,17,,,,,,,,11,,,74,64
10140,note_on,1,0,10,,,,,,,,5,,,51,48
10140,note_on,1,0,9,,,,,,,,4,,,55,48
10140,note_on,421,0,7,,,,,,,,2,,,67,48
10169,note_on,29,0,9,,,,,,,,4,,,55,0
10169,note_on,29,0,10,,,,,,,,5,,,51,0
10170,note_on,1,0,9,,,,,,,,4,,,53,48
10170,note_on,1,0,10,,,,,,,,5,,,50,48
10199,note_on,119,0,8,,,,,,,,3,,,67,0
10199,note_on,59,0,17,,,,,,,,11,,,74,0
10199,note_on,29,0,9,,,,,,,,4,,,53,0
10199,note_on,29,0,10,,,,,,,,5,,,50,0
10200,note_on,1,0,9,,,,,,,,4,,,51,48
10200,note_on,1,0,17,,,,,,,,11,,,75,64
10200,note_on,1,0,10,,,,,,,,5,,,48,48
10229,note_on,89,0,7,,,,,,,,2,,,67,0
10230,note_on,1,0,7,,,,,,,,2,,,65,48
10259,note_on,29,0,7,,,,,,,,2,,,65,0
10260,note_on,1,0,7,,,,,,,,2,,,67,48
10289,note_on,29,0,7,,,,,,,,2,,,67,0
10290,note_on,1,0,7,,,,,,,,2,,,69,48
10319,note_on,119,0,17,,,,,,,,11,,,75,0
10319,note_on,119,0,9,,,,,,,,4,,,51,0
10319,note_on,29,0,7,,,,,,,,2,,,69,0
10319,note_on,119,0,10,,,,,,,,5,,,48,0
10320,note_on,1,0,17,,,,,,,,11,,,74,64
10320,note_on,1,0,7,,,,,,,,2,,,70,48
10320,note_on,1,0,9,,,,,,,,4,,,53,48
10320,note_on,1,0,10,,,,,,,,5,,,50,48
10349,note_on,29,0,7,,,,,,,,2,,,70,0
10350,note_on,1,0,7,,,,,,,,2,,,65,48
10379,note_on,29,0,7,,,,,,,,2,,,65,0
10379,note_on,59,0,17,,,,,,,,11,,,74,0
10380,note_on,1,0,7,,,,,,,,2,,,70,48
10380,note_on,181,0,8,,,,,,,,3,,,65,48
10380,note_on,1,0,17,,,,,,,,11,,,74,64
10409,note_on,89,0,10,,,,,,,,5,,,50,0
10410,note_on,1,0,10,,,,,,,,5,,,52,48
10439,note_on,59,0,17,,,,,,,,11,,,74,0
10439,note_on,29,0,10,,,,,,,,5,,,52,0
10439,note_on,119,0,9,,,,,,,,4,,,53,0
10440,note_on,1,0,10,,,,,,,,5,,,53,48
10440,note_on,1,0,17,,,,,,,,11,,,72,64
10469,note_on,89,0,8,,,,,,,,3,,,65,0
10470,note_on,1,0,8,,,,,,,,3,,,67,48
10499,note_on,119,0,7,,,,,,,,2,,,70,0
10499,note_on,29,0,8,,,,,,,,3,,,67,0
10500,note_on,61,0,9,,,,,,,,4,,,65,48
10500,note_on,1,0,7,,,,,,,,2,,,69,48
10500,note_on,1,0,8,,,,,,,,3,,,65,48
10529,note_on,29,0,8,,,,,,,,3,,,65,0
10530,note_on,1,0,8,,,,,,,,3,,,63,48
10559,note_on,119,0,10,,,,,,,,5,,,53,0
10559,note_on,59,0,7,,,,,,,,2,,,69,0
10559,note_on,119,0,17,,,,,,,,11,,,72,0
10559,note_on,29,0,8,,,,,,,,3,,,63,0
10560,note_on,1,0,7,,,,,,,,2,,,70,48
10560,note_on,1,0,17,,,,,,,,11,,,70,64
10560,note_on,1,0,10,,,,,,,,5,,,46,48
10560,note_on,1,0,8,,,,,,,,3,,,62,48
10589,note_on,89,0,9,,,,,,,,4,,,65,0
10589,note_on,29,0,8,,,,,,,,3,,,62,0
10590,note_on,1,0,9,,,,,,,,4,,,67,48
10590,note_on,1,0,8,,,,,,,,3,,,63,48
10619,note_on,29,0,9,,,,,,,,4,,,67,0
10619,note_on,29,0,8,,,,,,,,3,,,63,0
10619,note_on,59,0,7,,,,,,,,2,,,70,0
10620,note_on,1,0,8,,,,,,,,3,,,62,48
10620,note_on,1,0,7,,,,,,,,2,,,82,48
10620,note_on,1,0,9,,,,,,,,4,,,65,48
10649,note_on,29,0,8,,,,,,,,3,,,62,0
10649,note_on,29,0,9,,,,,,,,4,,,65,0
10650,note_on,1,0,9,,,,,,,,4,,,63,48
10650,note_on,1,0,8,,,,,,,,3,,,60,48
10679,note_on,119,0,17,,,,,,,,11,,,70,0
10679,note_on,29,0,8,,,,,,,,3,,,60,0
10679,note_on,29,0,9,,,,,,,,4,,,63,0
10679,note_on,119,0,10,,,,,,,,5,,,46,0
10680,note_on,1,0,8,,,,,,,,3,,,58,48
10680,note_on,1,0,9,,,,,,,,4,,,62,48
10709,note_on,89,0,7,,,,,,,,2,,,82,0
10709,note_on,29,0,9,,,,,,,,4,,,62,0
10710,note_on,1,0,7,,,,,,,,2,,,84,48
10710,note_on,1,0,9,,,,,,,,4,,,63,48
10739,note_on,29,0,9,,,,,,,,4,,,63,0
10739,note_on,59,0,8,,,,,,,,3,,,58,0
10739,note_on,29,0,7,,,,,,,,2,,,84,0
10740,note_on,1,0,8,,,,,,,,3,,,74,48
10740,note_on,1,0,7,,,,,,,,2,,,82,48
10740,note_on,1,0,9,,,,,,,,4,,,62,48
10769,note_on,29,0,9,,,,,,,,4,,,62,0
10769,note_on,29,0,7,,,,,,,,2,,,82,0
10770,note_on,1,0,7,,,,,,,,2,,,81,48
10770,note_on,1,0,9,,,,,,,,4,,,60,48
10799,note_on,29,0,9,,,,,,,,4,,,60,0
10799,note_on,29,0,7,,,,,,,,2,,,81,0
10800,note_on,1,0,9,,,,,,,,4,,,58,48
10800,note_on,1,0,7,,,,,,,,2,,,79,48
10829,note_on,29,0,9,,,,,,,,4,,,58,0
10829,note_on,29,0,7,,,,,,,,2,,,79,0
10829,note_on,89,0,8,,,,,,,,3,,,74,0
10830,note_on,1,0,9,,,,,,,,4,,,72,48
10830,note_on,1,0,8,,,,,,,,3,,,75,48
10830,note_on,1,0,7,,,,,,,,2,,,81,48
10859,note_on,29,0,7,,,,,,,,2,,,81,0
10859,note_on,29,0,9,,,,,,,,4,,,72,0
10859,note_on,29,0,8,,,,,,,,3,,,75,0
10860,note_on,1,0,8,,,,,,,,3,,,74,48
10860,note_on,1,0,9,,,,,,,,4,,,70,48
10860,note_on,1,0,7,,,,,,,,2,,,79,48
10889,note_on,29,0,8,,,,,,,,3,,,74,0
10889,note_on,29,0,7,,,,,,,,2,,,79,0
10889,note_on,29,0,9,,,,,,,,4,,,70,0
10890,note_on,1,0,7,,,,,,,,2,,,77,48
10890,note_on,1,0,8,,,,,,,,3,,,72,48
10890,note_on,1,0,9,,,,,,,,4,,,69,48
10919,note_on,29,0,8,,,,,,,,3,,,72,0
10919,note_on,29,0,9,,,,,,,,4,,,69,0
10919,note_on,29,0,7,,,,,,,,2,,,77,0
10920,note_on,1,0,9,,,,,,,,4,,,67,48
10920,note_on,1,0,8,,,,,,,,3,,,70,48
10920,note_on,1,0,7,,,,,,,,2,,,76,48
10949,note_on,29,0,8,,,,,,,,3,,,70,0
10949,note_on,29,0,9,,,,,,,,4,,,67,0
10949,note_on,29,0,7,,,,,,,,2,,,76,0
10950,note_on,1,0,8,,,,,,,,3,,,72,48
10950,note_on,1,0,9,,,,,,,,4,,,69,48
10950,note_on,1,0,7,,,,,,,,2,,,77,48
10979,note_on,29,0,7,,,,,,,,2,,,77,0
10979,note_on,29,0,8,,,,,,,,3,,,72,0
10979,note_on,29,0,9,,,,,,,,4,,,69,0
10980,note_on,1,0,7,,,,,,,,2,,,76,48
10980,note_on,1,0,9,,,,,,,,4,,,67,48
10980,note_on,301,0,10,,,,,,,,5,,,60,48
10980,note_on,1,0,8,,,,,,,,3,,,70,48
11009,note_on,29,0,8,,,,,,,,3,,,70,0
11009,note_on,29,0,7,,,,,,,,2,,,76,0
11009,note_on,29,0,9,,,,,,,,4,,,67,0
11010,note_on,1,0,7,,,,,,,,2,,,74,48
11010,note_on,1,0,9,,,,,,,,4,,,65,48
11010,note_on,1,0,8,,,,,,,,3,,,69,48
11039,note_on,29,0,7,,,,,,,,2,,,74,0
11039,note_on,29,0,9,,,,,,,,4,,,65,0
11039,note_on,29,0,8,,,,,,,,3,,,69,0
11040,note_on,1,0,9,,,,,,,,4,,,64,48
11040,note_on,361,0,17,,,,,,,,11,,,72,64
11040,note_on,1,0,7,,,,,,,,2,,,72,48
11040,note_on,1,0,8,,,,,,,,3,,,67,48
11069,note_on,89,0,10,,,,,,,,5,,,60,0
11070,note_on,1,0,10,,,,,,,,5,,,62,48
11099,note_on,59,0,8,,,,,,,,3,,,67,0
11099,note_on,29,0,10,,,,,,,,5,,,62,0
11100,note_on,1,0,8,,,,,,,,3,,,72,48
11100,note_on,1,0,10,,,,,,,,5,,,60,48
11129,note_on,29,0,10,,,,,,,,5,,,60,0
11130,note_on,1,0,10,,,,,,,,5,,,58,48
11159,note_on,119,0,17,,,,,,,,11,,,72,0
11159,note_on,29,0,10,,,,,,,,5,,,58,0
11159,note_on,119,0,7,,,,,,,,2,,,72,0
11159,note_on,119,0,9,,,,,,,,4,,,64,0
11160,note_on,1,0,9,,,,,,,,4,,,65,48
11160,note_on,1,0,17,,,,,,,,11,,,72,64
11160,note_on,1,0,10,,,,,,,,5,,,57,48
11189,note_on,29,0,10,,,,,,,,5,,,57,0
11189,note_on,89,0,8,,,,,,,,3,,,72,0
11190,note_on,1,0,10,,,,,,,,5,,,58,48
11190,note_on,1,0,8,,,,,,,,3,,,74,48
11219,note_on,29,0,10,,,,,,,,5,,,58,0
11219,note_on,29,0,8,,,,,,,,3,,,74,0
11220,note_on,61,0,7,,,,,,,,2,,,84,48
11220,note_on,1,0,10,,,,,,,,5,,,57,48
11220,note_on,1,0,8,,,,,,,,3,,,72,48
11249,note_on,29,0,10,,,,,,,,5,,,57,0
11249,note_on,29,0,8,,,,,,,,3,,,72,0
11250,note_on,1,0,10,,,,,,,,5,,,55,48
11250,note_on,1,0,8,,,,,,,,3,,,70,48
11279,note_on,119,0,9,,,,,,,,4,,,65,0
11279,note_on,29,0,8,,,,,,,,3,,,70,0
11279,note_on,119,0,17,,,,,,,,11,,,72,0
11279,note_on,29,0,10,,,,,,,,5,,,55,0
11280,note_on,1,0,10,,,,,,,,5,,,53,48
11280,note_on,1,0,8,,,,,,,,3,,,69,48
11280,note_on,1,0,17,,,,,,,,11,,,72,64
11309,note_on,89,0,7,,,,,,,,2,,,84,0
11309,note_on,29,0,8,,,,,,,,3,,,69,0
11310,note_on,1,0,8,,,,,,,,3,,,70,48
11310,note_on,1,0,7,,,,,,,,2,,,86,48
11339,note_on,29,0,8,,,,,,,,3,,,70,0
11339,note_on,59,0,17,,,,,,,,11,,,72,0
11339,note_on,29,0,7,,,,,,,,2,,,86,0
11340,note_on,1,0,8,,,,,,,,3,,,69,48
11340,note_on,1,0,17,,,,,,,,11,,,72,64
11340,note_on,1,0,7,,,,,,,,2,,,84,48
11369,note_on,29,0,8,,,,,,,,3,,,69,0
11369,note_on,29,0,7,,,,,,,,2,,,84,0
11370,note_on,1,0,7,,,,,,,,2,,,82,48
11370,note_on,1,0,8,,,,,,,,3,,,67,48
11399,note_on,59,0,17,,,,,,,,11,,,72,0
11399,note_on,29,0,7,,,,,,,,2,,,82,0
11399,note_on,29,0,8,,,,,,,,3,,,67,0
11400,note_on,1,0,8,,,,,,,,3,,,65,48
11400,note_on,1,0,17,,,,,,,,11,,,72,64
11400,note_on,1,0,7,,,,,,,,2,,,81,48
11429,note_on,29,0,8,,,,,,,,3,,,65,0
11429,note_on,29,0,7,,,,,,,,2,,,81,0
11430,note_on,1,0,7,,,,,,,,2,,,82,48
11430,note_on,1,0,8,,,,,,,,3,,,64,48
11459,note_on,29,0,8,,,,,,,,3,,,64,0
11459,note_on,179,0,10,,,,,,,,5,,,53,0
11459,note_on,29,0,7,,,,,,,,2,,,82,0
11460,note_on,1,0,7,,,,,,,,2,,,81,48
11460,note_on,1,0,10,,,,,,,,5,,,51,48
11460,note_on,1,0,8,,,,,,,,3,,,65,48
11489,note_on,89,0,17,,,,,,,,11,,,72,0
11489,note_on,29,0,8,,,,,,,,3,,,65,0
11489,note_on,29,0,7,,,,,,,,2,,,81,0
11490,note_on,1,0,17,,,,,,,,11,,,72,64
11490,note_on,1,0,8,,,,,,,,3,,,67,48
11490,note_on,1,0,7,,,,,,,,2,,,79,48
11519,note_on,29,0,8,,,,,,,,3,,,67,0
11519,note_on,59,0,10,,,,,,,,5,,,51,0
11519,note_on,29,0,17,,,,,,,,11,,,72,0
11519,note_on,29,0,7,,,,,,,,2,,,79,0
11520,note_on,1,0,17,,,,,,,,11,,,74,64
11520,note_on,1,0,10,,,,,,,,5,,,50,48
11520,note_on,1,0,7,,,,,,,,2,,,78,48
11520,note_on,1,0,8,,,,,,,,3,,,69,48
11549,note_on,29,0,10,,,,,,,,5,,,50,0
11550,note_on,1,0,10,,,,,,,,5,,,51,48
11579,note_on,59,0,17,,,,,,,,11,,,74,0
11579,note_on,29,0,10,,,,,,,,5,,,51,0
11580,note_on,1,0,17,,,,,,,,11,,,74,64
11580,note_on,1,0,10,,,,,,,,5,,,50,48
11580,note_on,301,0,9,,,,,,,,4,,,62,48
11609,note_on,29,0,10,,,,,,,,5,,,50,0
11610,note_on,1,0,10,,,,,,,,5,,,48,48
11639,note_on,119,0,7,,,,,,,,2,,,78,0
11639,note_on,119,0,8,,,,,,,,3,,,69,0
11639,note_on,59,0,17,,,,,,,,11,,,74,0
11639,note_on,29,0,10,,,,,,,,5,,,48,0
11640,note_on,1,0,8,,,,,,,,3,,,67,48
11640,note_on,1,0,17,,,,,,,,11,,,67,64
11640,note_on,1,0,10,,,,,,,,5,,,46,48
11640,note_on,1,0,7,,,,,,,,2,,,79,48
11669,note_on,89,0,9,,,,,,,,4,,,62,0
11669,note_on,29,0,10,,,,,,,,5,,,46,0
11670,note_on,1,0,10,,,,,,,,5,,,45,48
11670,note_on,1,0,9,,,,,,,,4,,,63,48
11699,note_on,29,0,9,,,,,,,,4,,,63,0
11699,note_on,29,0,10,,,,,,,,5,,,45,0
11699,note_on,59,0,17,,,,,,,,11,,,67,0
11700,note_on,1,0,9,,,,,,,,4,,,62,48
11700,note_on,1,0,17,,,,,,,,11,,,67,64
11700,note_on,1,0,10,,,,,,,,5,,,46,48
11729,note_on,29,0,9,,,,,,,,4,,,62,0
11729,note_on,29,0,10,,,,,,,,5,,,46,0
11730,note_on,1,0,10,,,,,,,,5,,,48,48
11730,note_on,1,0,9,,,,,,,,4,,,60,48
11759,note_on,29,0,10,,,,,,,,5,,,48,0
11759,note_on,29,0,9,,,,,,,,4,,,60,0
11759,note_on,59,0,17,,,,,,,,11,,,67,0
11759,note_on,119,0,8,,,,,,,,3,,,67,0
11760,note_on,1,0,9,,,,,,,,4,,,58,48
11760,note_on,1,0,17,,,,,,,,11,,,70,64
11760,note_on,1,0,10,,,,,,,,5,,,50,48
11789,note_on,29,0,9,,,,,,,,4,,,58,0
11790,note_on,1,0,9,,,,,,,,4,,,57,48
11819,note_on,29,0,9,,,,,,,,4,,,57,0
11820,note_on,1,0,9,,,,,,,,4,,,58,48
11820,note_on,61,0,8,,,,,,,,3,,,74,48
11849,note_on,29,0,9,,,,,,,,4,,,58,0
11850,note_on,1,0,9,,,,,,,,4,,,60,48
11879,note_on,239,0,7,,,,,,,,2,,,79,0
11879,note_on,29,0,9,,,,,,,,4,,,60,0
11879,note_on,119,0,17,,,,,,,,11,,,70,0
11880,note_on,1,0,9,,,,,,,,4,,,62,48
11880,note_on,1,0,7,,,,,,,,2,,,78,48
11880,note_on,1,0,17,,,,,,,,11,,,69,64
11909,note_on,89,0,8,,,,,,,,3,,,74,0
11910,note_on,1,0,8,,,,,,,,3,,,75,48
11939,note_on,29,0,8,,,,,,,,3,,,75,0
11940,note_on,1,0,8,,,,,,,,3,,,74,48
11969,note_on,89,0,17,,,,,,,,11,,,69,0
11969,note_on,29,0,8,,,,,,,,3,,,74,0
11970,note_on,1,0,8,,,,,,,,3,,,72,48
11970,note_on,1,0,17,,,,,,,,11,,,69,64
11999,note_on,239,0,10,,,,,,,,5,,,50,0
11999,note_on,29,0,8,,,,,,,,3,,,72,0
11999,note_on,119,0,7,,,,,,,,2,,,78,0
11999,note_on,29,0,17,,,,,,,,11,,,69,0
12000,note_on,1,0,10,,,,,,,,5,,,55,48
12000,note_on,1,0,7,,,,,,,,2,,,79,72
12000,note_on,1,0,17,,,,,,,,11,,,67,64
12000,note_on,1,0,8,,,,,,,,3,,,70,48
12044,note_on,44,0,7,,,,,,,,2,,,79,0
12044,note_on,44,0,8,,,,,,,,3,,,70,0
12045,note_on,1,0,8,,,,,,,,3,,,58,72
12045,note_on,1,0,7,,,,,,,,2,,,67,72
12059,note_on,14,0,7,,,,,,,,2,,,67,0
12059,note_on,14,0,8,,,,,,,,3,,,58,0
12060,note_on,1,0,8,,,,,,,,3,,,67,72
12060,note_on,2701,0,5,,,,,,,,0,,,70,72
12060,note_on,1,0,7,,,,,,,,2,,,74,72
12104,note_on,44,0,7,,,,,,,,2,,,74,0
12104,note_on,44,0,8,,,,,,,,3,,,67,0
12105,note_on,1,0,7,,,,,,,,2,,,70,72
12105,note_on,1,0,8,,,,,,,,3,,,62,72
12119,note_on,239,0,9,,,,,,,,4,,,62,0
12119,note_on,59,0,5,,,,,,,,0,,,70,0
12119,note_on,119,0,10,,,,,,,,5,,,55,0
12119,note_on,14,0,8,,,,,,,,3,,,62,0
12119,note_on,14,0,7,,,,,,,,2,,,70,0
12119,note_on,119,0,17,,,,,,,,11,,,67,0
12120,program_change,0,0,17,,,,,,,73,11,,,,
12120,control_change,1,0,17,,,,,,,,11,10,24,,
12120,note_on,1,0,8,,,,,,,,3,,,70,72
12120,note_on,1,0,5,,,,,,,,0,,,75,72
12120,note_on,1,0,7,,,,,,,,2,,,75,72
12165,note_on,0,0,21,,,,,,,,15,,,67,72
12165,note_on,0,0,21,,,,,,,,15,,,70,72
12165,note_on,0,0,21,,,,,,,,15,,,63,72
12165,note_on,2446,0,6,,,,,,,,1,,,55,72
12165,note_on,3466,0,21,,,,,,,,15,,,55,72
12165,note_on,46,0,9,,,,,,,,4,,,60,72
12165,note_on,2446,0,11,,,,,,,,6,,,43,72
12179,note_on,14,0,6,,,,,,,,1,,,55,0
12179,note_on,14,0,21,,,,,,,,15,,,55,0
12179,note_on,14,0,11,,,,,,,,6,,,43,0
12179,note_on,14,0,9,,,,,,,,4,,,60,0
12180,note_on,1,0,11,,,,,,,,6,,,46,72
12180,note_on,1,0,9,,,,,,,,4,,,67,72
12180,note_on,3421,0,20,,,,,,,,14,,,55,72
12180,note_on,3421,0,19,,,,,,,,13,,,63,72
12180,note_on,1,0,21,,,,,,,,15,,,58,72
12180,note_on,3421,0,16,,,,,,,,10,,,55,72
12180,note_on,1,0,6,,,,,,,,1,,,58,72
12180,note_on,3421,0,15,,,,,,,,10,,,63,72
12224,note_on,44,0,6,,,,,,,,1,,,58,0
12224,note_on,44,0,9,,,,,,,,4,,,67,0
12224,note_on,44,0,21,,,,,,,,15,,,58,0
12224,note_on,44,0,11,,,,,,,,6,,,46,0
12225,note_on,1,0,21,,,,,,,,15,,,55,72
12225,note_on,1,0,9,,,,,,,,4,,,63,72
12225,note_on,1,0,11,,,,,,,,6,,,43,72
12225,note_on,1,0,6,,,,,,,,1,,,55,72
12239,note_on,14,0,11,,,,,,,,6,,,43,0
12239,note_on,119,0,8,,,,,,,,3,,,70,0
12239,note_on,59,0,20,,,,,,,,14,,,55,0
12239,note_on,14,0,6,,,,,,,,1,,,55,0
12239,note_on,59,0,15,,,,,,,,10,,,63,0
12239,note_on,119,0,7,,,,,,,,2,,,75,0
12239,note_on,59,0,16,,,,,,,,10,,,55,0
12239,note_on,59,0,19,,,,,,,,13,,,63,0
12239,note_on,0,0,21,,,,,,,,15,,,67,0
12239,note_on,0,0,21,,,,,,,,15,,,63,0
12239,note_on,0,0,21,,,,,,,,15,,,70,0
12239,note_on,14,0,21,,,,,,,,15,,,55,0
12239,note_on,14,0,9,,,,,,,,4,,,63,0
12240,note_on,1,0,9,,,,,,,,4,,,65,72
12240,note_on,1,0,15,,,,,,,,10,,,60,72
12240,note_on,1,0,19,,,,,,,,13,,,60,72
12240,note_on,1,0,6,,,,,,,,1,,,57,72
12240,note_on,1,0,11,,,,,,,,6,,,45,72
12240,note_on,1,0,16,,,,,,,,10,,,57,72
12240,note_on,1,0,21,,,,,,,,15,,,57,72
12240,note_on,1,0,20,,,,,,,,14,,,57,72
12240,note_on,0,0,21,,,,,,,,15,,,60,72
12240,note_on,0,0,21,,,,,,,,15,,,65,72
12285,note_on,46,0,7,,,,,,,,2,,,65,72
12285,note_on,46,0,8,,,,,,,,3,,,60,72
12299,note_on,14,0,8,,,,,,,,3,,,60,0
12299,note_on,59,0,16,,,,,,,,10,,,57,0
12299,note_on,14,0,7,,,,,,,,2,,,65,0
12299,note_on,59,0,19,,,,,,,,13,,,60,0
12299,note_on,59,0,20,,,,,,,,14,,,57,0
12299,note_on,179,0,5,,,,,,,,0,,,75,0
12299,note_on,59,0,15,,,,,,,,10,,,60,0
12300,note_on,3541,0,18,,,,,,,,12,,,72,72
12300,note_on,1,0,8,,,,,,,,3,,,69,72
12300,note_on,1,0,19,,,,,,,,13,,,65,72
12300,note_on,1,0,5,,,,,,,,0,,,72,72
12300,note_on,1,0,15,,,,,,,,10,,,65,72
12300,note_on,1,0,16,,,,,,,,10,,,57,72
12300,note_on,3541,0,14,,,,,,,,10,,,72,72
12300,note_on,1,0,7,,,,,,,,2,,,72,72
12300,note_on,1,0,20,,,,,,,,14,,,57,72
12344,note_on,44,0,7,,,,,,,,2,,,72,0
12344,note_on,44,0,8,,,,,,,,3,,,69,0
12345,note_on,1,0,8,,,,,,,,3,,,65,72
12345,note_on,1,0,7,,,,,,,,2,,,69,72
12359,note_on,119,0,21,,,,,,,,15,,,65,0
12359,note_on,59,0,18,,,,,,,,12,,,72,0
12359,note_on,119,0,6,,,,,,,,1,,,57,0
12359,note_on,59,0,16,,,,,,,,10,,,57,0
12359,note_on,59,0,5,,,,,,,,0,,,72,0
12359,note_on,59,0,14,,,,,,,,10,,,72,0
12359,note_on,14,0,8,,,,,,,,3,,,65,0
12359,note_on,59,0,15,,,,,,,,10,,,65,0
12359,note_on,59,0,19,,,,,,,,13,,,65,0
12359,note_on,59,0,20,,,,,,,,14,,,57,0
12359,note_on,0,0,21,,,,,,,,15,,,57,0
12359,note_on,119,0,11,,,,,,,,6,,,45,0
12359,note_on,14,0,7,,,,,,,,2,,,69,0
12359,note_on,0,0,21,,,,,,,,15,,,60,0
12359,note_on,119,0,9,,,,,,,,4,,,65,0
12360,note_on,1,0,18,,,,,,,,12,,,69,72
12360,note_on,1,0,5,,,,,,,,0,,,77,72
12360,note_on,1,0,8,,,,,,,,3,,,72,72
12360,note_on,1,0,14,,,,,,,,10,,,69,72
12360,note_on,1,0,7,,,,,,,,2,,,77,72
12405,note_on,46,0,6,,,,,,,,1,,,53,72
12405,note_on,46,0,21,,,,,,,,15,,,53,72
12405,note_on,0,0,21,,,,,,,,15,,,69,72
12405,note_on,0,0,21,,,,,,,,15,,,72,72
12405,note_on,0,0,21,,,,,,,,15,,,65,72
12405,note_on,46,0,9,,,,,,,,4,,,69,72
12405,note_on,46,0,11,,,,,,,,6,,,41,72
12419,note_on,14,0,6,,,,,,,,1,,,53,0
12419,note_on,14,0,9,,,,,,,,4,,,69,0
12419,note_on,59,0,14,,,,,,,,10,,,69,0
12419,note_on,14,0,11,,,,,,,,6,,,41,0
12419,note_on,14,0,21,,,,,,,,15,,,53,0
12419,note_on,59,0,18,,,,,,,,12,,,69,0
12420,note_on,61,0,20,,,,,,,,14,,,57,72
12420,note_on,1,0,11,,,,,,,,6,,,45,72
12420,note_on,61,0,16,,,,,,,,10,,,57,72
12420,note_on,61,0,15,,,,,,,,10,,,65,72
12420,note_on,1,0,18,,,,,,,,12,,,65,72
12420,note_on,61,0,19,,,,,,,,13,,,65,72
12420,note_on,1,0,9,,,,,,,,4,,,72,72
12420,note_on,1,0,6,,,,,,,,1,,,57,72
12420,note_on,1,0,21,,,,,,,,15,,,57,72
12420,note_on,1,0,14,,,,,,,,10,,,65,72
12464,note_on,44,0,21,,,,,,,,15,,,57,0
12464,note_on,44,0,6,,,,,,,,1,,,57,0
12464,note_on,44,0,9,,,,,,,,4,,,72,0
12464,note_on,44,0,11,,,,,,,,6,,,45,0
12465,note_on,1,0,11,,,,,,,,6,,,41,72
12465,note_on,1,0,21,,,,,,,,15,,,53,72
12465,note_on,1,0,9,,,,,,,,4,,,69,72
12465,note_on,1,0,6,,,,,,,,1,,,53,72
12479,note_on,119,0,7,,,,,,,,2,,,77,0
12479,note_on,14,0,11,,,,,,,,6,,,41,0
12479,note_on,14,0,6,,,,,,,,1,,,53,0
12479,note_on,59,0,15,,,,,,,,10,,,65,0
12479,note_on,14,0,9,,,,,,,,4,,,69,0
12479,note_on,59,0,16,,,,,,,,10,,,57,0
12479,note_on,59,0,19,,,,,,,,13,,,65,0
12479,note_on,59,0,20,,,,,,,,14,,,57,0
12479,note_on,59,0,14,,,,,,,,10,,,65,0
12479,note_on,59,0,18,,,,,,,,12,,,65,0
12479,note_on,119,0,8,,,,,,,,3,,,72,0
12479,note_on,14,0,21,,,,,,,,15,,,53,0
12479,note_on,119,0,5,,,,,,,,0,,,77,0
12479,note_on,0,0,21,,,,,,,,15,,,72,0
12479,note_on,0,0,21,,,,,,,,15,,,69,0
12479,note_on,0,0,21,,,,,,,,15,,,65,0
12480,note_on,1,0,6,,,,,,,,1,,,58,72
12480,note_on,1,0,11,,,,,,,,6,,,46,72
12480,note_on,1,0,9,,,,,,,,4,,,65,72
12480,note_on,1,0,15,,,,,,,,10,,,62,72
12480,note_on,1,0,21,,,,,,,,15,,,58,72
12480,note_on,1,0,19,,,,,,,,13,,,62,72
12480,note_on,360,0,17,,,,,,,,11,,,74,72
12480,note_on,1,0,16,,,,,,,,10,,,58,72
12480,note_on,1,0,20,,,,,,,,14,,,58,72
12480,note_on,1,0,5,,,,,,,,0,,,74,72
12525,note_on,46,0,8,,,,,,,,3,,,70,72
12525,note_on,46,0,7,,,,,,,,2,,,74,72
12539,note_on,14,0,8,,,,,,,,3,,,70,0
12539,note_on,59,0,19,,,,,,,,13,,,62,0
12539,note_on,59,0,15,,,,,,,,10,,,62,0
12539,note_on,59,0,20,,,,,,,,14,,,58,0
12539,note_on,59,0,16,,,,,,,,10,,,58,0
12539,note_on,14,0,7,,,,,,,,2,,,74,0
12540,note_on,61,0,18,,,,,,,,12,,,65,72
12540,note_on,1,0,7,,,,,,,,2,,,77,72
12540,note_on,1,0,20,,,,,,,,14,,,46,72
12540,note_on,1,0,15,,,,,,,,10,,,58,72
12540,note_on,61,0,14,,,,,,,,10,,,65,72
12540,note_on,1,0,8,,,,,,,,3,,,74,72
12540,note_on,1,0,19,,,,,,,,13,,,58,72
12540,note_on,1,0,16,,,,,,,,10,,,46,72
12584,note_on,44,0,8,,,,,,,,3,,,74,0
12584,note_on,44,0,7,,,,,,,,2,,,77,0
12585,note_on,1,0,8,,,,,,,,3,,,70,72
12585,note_on,1,0,7,,,,,,,,2,,,74,72
12599,note_on,59,0,19,,,,,,,,13,,,58,0
12599,note_on,119,0,9,,,,,,,,4,,,65,0
12599,note_on,14,0,8,,,,,,,,3,,,70,0
12599,note_on,119,0,21,,,,,,,,15,,,58,0
12599,note_on,14,0,7,,,,,,,,2,,,74,0
12599,note_on,119,0,6,,,,,,,,1,,,58,0
12599,note_on,119,0,11,,,,,,,,6,,,46,0
12599,note_on,59,0,20,,,,,,,,14,,,46,0
12599,note_on,119,0,5,,,,,,,,0,,,74,0
12599,note_on,59,0,15,,,,,,,,10,,,58,0
12599,note_on,59,0,14,,,,,,,,10,,,65,0
12599,note_on,119,0,17,,,,,,,,11,,,74,0
12599,note_on,59,0,16,,,,,,,,10,,,46,0
12599,note_on,59,0,18,,,,,,,,12,,,65,0
12600,note_on,1,0,14,,,,,,,,10,,,62,72
12600,note_on,1,0,8,,,,,,,,3,,,74,72
12600,note_on,1,0,7,,,,,,,,2,,,82,72
12600,note_on,1,0,5,,,,,,,,0,,,77,72
12600,note_on,1,0,17,,,,,,,,11,,,77,72
12600,note_on,1,0,18,,,,,,,,12,,,62,72
12645,note_on,46,0,11,,,,,,,,6,,,46,72
12645,note_on,46,0,9,,,,,,,,4,,,62,72
12645,note_on,46,0,21,,,,,,,,15,,,58,72
12645,note_on,0,0,21,,,,,,,,15,,,70,72
12645,note_on,0,0,21,,,,,,,,15,,,74,72
12645,note_on,0,0,21,,,,,,,,15,,,77,72
12645,note_on,46,0,6,,,,,,,,1,,,58,72
12659,note_on,14,0,21,,,,,,,,15,,,58,0
12659,note_on,14,0,9,,,,,,,,4,,,62,0
12659,note_on,59,0,18,,,,,,,,12,,,62,0
12659,note_on,14,0,6,,,,,,,,1,,,58,0
12659,note_on,14,0,11,,,,,,,,6,,,46,0
12659,note_on,59,0,14,,,,,,,,10,,,62,0
12660,note_on,61,0,16,,,,,,,,10,,,58,72
12660,note_on,1,0,11,,,,,,,,6,,,50,72
12660,note_on,1,0,18,,,,,,,,12,,,70,72
12660,note_on,1,0,9,,,,,,,,4,,,65,72
12660,note_on,61,0,15,,,,,,,,10,,,62,72
12660,note_on,61,0,19,,,,,,,,13,,,62,72
12660,note_on,61,0,20,,,,,,,,14,,,58,72
12660,note_on,1,0,21,,,,,,,,15,,,62,72
12660,note_on,1,0,6,,,,,,,,1,,,62,72
12660,note_on,1,0,14,,,,,,,,10,,,70,72
12704,note_on,44,0,11,,,,,,,,6,,,50,0
12704,note_on,44,0,9,,,,,,,,4,,,65,0
12704,note_on,44,0,21,,,,,,,,15,,,62,0
12704,note_on,44,0,6,,,,,,,,1,,,62,0
12705,note_on,1,0,9,,,,,,,,4,,,62,72
12705,note_on,1,0,21,,,,,,,,15,,,58,72
12705,note_on,1,0,6,,,,,,,,1,,,58,72
12705,note_on,1,0,11,,,,,,,,6,,,46,72
12719,note_on,14,0,11,,,,,,,,6,,,46,0
12719,note_on,59,0,15,,,,,,,,10,,,62,0
12719,note_on,119,0,17,,,,,,,,11,,,77,0
12719,note_on,14,0,6,,,,,,,,1,,,58,0
12719,note_on,119,0,5,,,,,,,,0,,,77,0
12719,note_on,14,0,21,,,,,,,,15,,,58,0
12719,note_on,119,0,7,,,,,,,,2,,,82,0
12719,note_on,0,0,21,,,,,,,,15,,,74,0
12719,note_on,119,0,8,,,,,,,,3,,,74,0
12719,note_on,59,0,19,,,,,,,,13,,,62,0
12719,note_on,0,0,21,,,,,,,,15,,,70,0
12719,note_on,59,0,14,,,,,,,,10,,,70,0
12719,note_on,14,0,9,,,,,,,,4,,,62,0
12719,note_on,0,0,21,,,,,,,,15,,,77,0
12719,note_on,59,0,18,,,,,,,,12,,,70,0
12719,note_on,59,0,16,,,,,,,,10,,,58,0
12719,note_on,59,0,20,,,,,,,,14,,,58,0
12720,note_on,1,0,17,,,,,,,,11,,,74,72
12720,note_on,1,0,20,,,,,,,,14,,,54,72
12720,note_on,1,0,6,,,,,,,,1,,,54,72
12720,note_on,1,0,15,,,,,,,,10,,,57,72
12720,note_on,1,0,19,,,,,,,,13,,,57,72
12720,note_on,1,0,11,,,,,,,,6,,,42,72
12720,note_on,1,0,9,,,,,,,,4,,,69,72
12720,note_on,1,0,16,,,,,,,,10,,,54,72
12720,note_on,1,0,5,,,,,,,,0,,,74,72
12720,note_on,0,0,21,,,,,,,,15,,,74,72
12720,note_on,0,0,21,,,,,,,,15,,,69,72
12720,note_on,1,0,21,,,,,,,,15,,,54,72
12765,note_on,46,0,7,,,,,,,,2,,,69,72
12765,note_on,46,0,8,,,,,,,,3,,,62,72
12779,note_on,14,0,8,,,,,,,,3,,,62,0
12779,note_on,14,0,7,,,,,,,,2,,,69,0
12780,note_on,61,0,18,,,,,,,,12,,,69,72
12780,note_on,61,0,14,,,,,,,,10,,,69,72
12780,note_on,1,0,7,,,,,,,,2,,,74,72
12780,note_on,1,0,8,,,,,,,,3,,,69,72
12824,note_on,44,0,8,,,,,,,,3,,,69,0
12824,note_on,44,0,7,,,,,,,,2,,,74,0
12825,note_on,1,0,7,,,,,,,,2,,,69,72
12825,note_on,1,0,8,,,,,,,,3,,,66,72
12839,note_on,119,0,15,,,,,,,,10,,,57,0
12839,note_on,119,0,16,,,,,,,,10,,,54,0
12839,note_on,59,0,14,,,,,,,,10,,,69,0
12839,note_on,119,0,20,,,,,,,,14,,,54,0
12839,note_on,59,0,18,,,,,,,,12,,,69,0
12839,note_on,119,0,19,,,,,,,,13,,,57,0
12839,note_on,119,0,11,,,,,,,,6,,,42,0
12839,note_on,119,0,6,,,,,,,,1,,,54,0
12839,note_on,14,0,7,,,,,,,,2,,,69,0
12839,note_on,0,0,21,,,,,,,,15,,,54,0
12839,note_on,0,0,21,,,,,,,,15,,,69,0
12839,note_on,119,0,5,,,,,,,,0,,,74,0
12839,note_on,119,0,21,,,,,,,,15,,,74,0
12839,note_on,119,0,17,,,,,,,,11,,,74,0
12839,note_on,14,0,8,,,,,,,,3,,,66,0
12839,note_on,119,0,9,,,,,,,,4,,,69,0
12840,note_on,1,0,7,,,,,,,,2,,,81,72
12840,note_on,1,0,16,,,,,,,,10,,,54,72
12840,note_on,1,0,5,,,,,,,,0,,,74,72
12840,note_on,1,0,20,,,,,,,,14,,,54,72
12840,note_on,1,0,15,,,,,,,,10,,,57,72
12840,note_on,1,0,17,,,,,,,,11,,,74,72
12840,note_on,1,0,18,,,,,,,,12,,,66,72
12840,note_on,1,0,19,,,,,,,,13,,,57,72
12840,note_on,1,0,14,,,,,,,,10,,,66,72
12840,note_on,1,0,8,,,,,,,,3,,,78,72
12885,note_on,0,0,21,,,,,,,,15,,,66,72
12885,note_on,46,0,9,,,,,,,,4,,,66,72
12885,note_on,0,0,21,,,,,,,,15,,,69,72
12885,note_on,46,0,21,,,,,,,,15,,,50,72
12885,note_on,46,0,6,,,,,,,,1,,,50,72
12885,note_on,46,0,11,,,,,,,,6,,,38,72
12885,note_on,0,0,21,,,,,,,,15,,,74,72
12899,note_on,14,0,6,,,,,,,,1,,,50,0
12899,note_on,59,0,16,,,,,,,,10,,,54,0
12899,note_on,14,0,9,,,,,,,,4,,,66,0
12899,note_on,59,0,14,,,,,,,,10,,,66,0
12899,note_on,59,0,20,,,,,,,,14,,,54,0
12899,note_on,59,0,15,,,,,,,,10,,,57,0
12899,note_on,14,0,21,,,,,,,,15,,,50,0
12899,note_on,14,0,11,,,,,,,,6,,,38,0
12899,note_on,59,0,18,,,,,,,,12,,,66,0
12899,note_on,59,0,19,,,,,,,,13,,,57,0
12900,note_on,1,0,14,,,,,,,,10,,,62,72
12900,note_on,1,0,11,,,,,,,,6,,,41,72
12900,note_on,1,0,6,,,,,,,,1,,,53,72
12900,note_on,1,0,18,,,,,,,,12,,,62,72
12900,note_on,1,0,15,,,,,,,,10,,,57,72
12900,note_on,1,0,20,,,,,,,,14,,,54,72
12900,note_on,1,0,9,,,,,,,,4,,,69,72
12900,note_on,1,0,16,,,,,,,,10,,,54,72
12900,note_on,1,0,19,,,,,,,,13,,,57,72
12900,note_on,1,0,21,,,,,,,,15,,,53,72
12929,note_on,29,0,14,,,,,,,,10,,,62,0
12929,note_on,29,0,18,,,,,,,,12,,,62,0
12930,note_on,1,0,14,,,,,,,,10,,,62,72
12930,note_on,1,0,18,,,,,,,,12,,,62,72
12944,note_on,44,0,6,,,,,,,,1,,,53,0
12944,note_on,44,0,11,,,,,,,,6,,,41,0
12944,note_on,44,0,9,,,,,,,,4,,,69,0
12944,note_on,44,0,21,,,,,,,,15,,,53,0
12945,note_on,1,0,11,,,,,,,,6,,,38,72
12945,note_on,1,0,21,,,,,,,,15,,,50,72
12945,note_on,1,0,9,,,,,,,,4,,,66,72
12945,note_on,1,0,6,,,,,,,,1,,,50,72
12959,note_on,119,0,7,,,,,,,,2,,,81,0
12959,note_on,119,0,5,,,,,,,,0,,,74,0
12959,note_on,14,0,11,,,,,,,,6,,,38,0
12959,note_on,59,0,15,,,,,,,,10,,,57,0
12959,note_on,14,0,6,,,,,,,,1,,,50,0
12959,note_on,119,0,8,,,,,,,,3,,,78,0
12959,note_on,59,0,16,,,,,,,,10,,,54,0
12959,note_on,0,0,21,,,,,,,,15,,,74,0
12959,note_on,0,0,21,,,,,,,,15,,,69,0
12959,note_on,0,0,21,,,,,,,,15,,,66,0
12959,note_on,14,0,21,,,,,,,,15,,,50,0
12959,note_on,29,0,18,,,,,,,,12,,,62,0
12959,note_on,29,0,14,,,,,,,,10,,,62,0
12959,note_on,59,0,19,,,,,,,,13,,,57,0
12959,note_on,14,0,9,,,,,,,,4,,,66,0
12959,note_on,59,0,20,,,,,,,,14,,,54,0
12960,note_on,1,0,16,,,,,,,,10,,,55,72
12960,note_on,1,0,9,,,,,,,,4,,,70,72
12960,note_on,1,0,15,,,,,,,,10,,,58,72
12960,note_on,1,0,14,,,,,,,,10,,,70,72
12960,note_on,1,0,11,,,,,,,,6,,,43,72
12960,note_on,0,0,21,,,,,,,,15,,,70,72
12960,note_on,0,0,21,,,,,,,,15,,,67,72
12960,note_on,1,0,5,,,,,,,,0,,,74,72
12960,note_on,1,0,19,,,,,,,,13,,,58,72
12960,note_on,0,0,21,,,,,,,,15,,,74,72
12960,note_on,1,0,18,,,,,,,,12,,,70,72
12960,note_on,1,0,21,,,,,,,,15,,,55,72
12960,note_on,1,0,20,,,,,,,,14,,,55,72
12960,note_on,1,0,6,,,,,,,,1,,,55,72
13005,note_on,46,0,7,,,,,,,,2,,,70,72
13005,note_on,46,0,8,,,,,,,,3,,,62,72
13019,note_on,59,0,19,,,,,,,,13,,,58,0
13019,note_on,14,0,7,,,,,,,,2,,,70,0
13019,note_on,14,0,8,,,,,,,,3,,,62,0
13019,note_on,179,0,17,,,,,,,,11,,,74,0
13019,note_on,59,0,16,,,,,,,,10,,,55,0
13019,note_on,59,0,20,,,,,,,,14,,,55,0
13019,note_on,59,0,15,,,,,,,,10,,,58,0
13020,note_on,1,0,8,,,,,,,,3,,,70,72
13020,note_on,1,0,15,,,,,,,,10,,,62,72
13020,note_on,1,0,16,,,,,,,,10,,,55,72
13020,note_on,1,0,19,,,,,,,,13,,,62,72
13020,note_on,1,0,17,,,,,,,,11,,,74,72
13020,note_on,1,0,7,,,,,,,,2,,,74,72
13020,note_on,1,0,20,,,,,,,,14,,,55,72
13049,note_on,29,0,16,,,,,,,,10,,,55,0
13049,note_on,29,0,20,,,,,,,,14,,,55,0
13050,note_on,1,0,16,,,,,,,,10,,,55,72
13050,note_on,1,0,20,,,,,,,,14,,,55,72
13064,note_on,44,0,7,,,,,,,,2,,,74,0
13064,note_on,44,0,8,,,,,,,,3,,,70,0
13065,note_on,1,0,7,,,,,,,,2,,,70,72
13065,note_on,1,0,8,,,,,,,,3,,,67,72
13079,note_on,119,0,6,,,,,,,,1,,,55,0
13079,note_on,14,0,7,,,,,,,,2,,,70,0
13079,note_on,119,0,11,,,,,,,,6,,,43,0
13079,note_on,29,0,20,,,,,,,,14,,,55,0
13079,note_on,0,0,21,,,,,,,,15,,,74,0
13079,note_on,59,0,19,,,,,,,,13,,,62,0
13079,note_on,119,0,9,,,,,,,,4,,,70,0
13079,note_on,0,0,21,,,,,,,,15,,,70,0
13079,note_on,119,0,21,,,,,,,,15,,,67,0
13079,note_on,14,0,8,,,,,,,,3,,,67,0
13079,note_on,59,0,17,,,,,,,,11,,,74,0
13079,note_on,29,0,16,,,,,,,,10,,,55,0
13079,note_on,59,0,15,,,,,,,,10,,,62,0
13079,note_on,0,0,21,,,,,,,,15,,,55,0
13080,note_on,1,0,8,,,,,,,,3,,,79,72
13080,note_on,1,0,15,,,,,,,,10,,,67,72
13080,note_on,1,0,17,,,,,,,,11,,,74,72
13080,note_on,1,0,20,,,,,,,,14,,,55,72
13080,note_on,1,0,16,,,,,,,,10,,,55,72
13080,note_on,1,0,19,,,,,,,,13,,,67,72
13080,note_on,1,0,7,,,,,,,,2,,,82,72
13125,note_on,0,0,21,,,,,,,,15,,,70,72
13125,note_on,0,0,21,,,,,,,,15,,,65,72
13125,note_on,46,0,21,,,,,,,,15,,,55,72
13125,note_on,0,0,21,,,,,,,,15,,,74,72
13125,note_on,46,0,6,,,,,,,,1,,,55,72
13125,note_on,46,0,9,,,,,,,,4,,,58,72
13125,note_on,46,0,11,,,,,,,,6,,,43,72
13139,note_on,14,0,11,,,,,,,,6,,,43,0
13139,note_on,59,0,16,,,,,,,,10,,,55,0
13139,note_on,179,0,14,,,,,,,,10,,,70,0
13139,note_on,59,0,20,,,,,,,,14,,,55,0
13139,note_on,14,0,9,,,,,,,,4,,,58,0
13139,note_on,59,0,17,,,,,,,,11,,,74,0
13139,note_on,179,0,18,,,,,,,,12,,,70,0
13139,note_on,14,0,21,,,,,,,,15,,,55,0
13139,note_on,59,0,19,,,,,,,,13,,,67,0
13139,note_on,59,0,15,,,,,,,,10,,,67,0
13139,note_on,14,0,6,,,,,,,,1,,,55,0
13140,note_on,1,0,14,,,,,,,,10,,,70,72
13140,note_on,1,0,20,,,,,,,,14,,,55,72
13140,note_on,1,0,16,,,,,,,,10,,,55,72
13140,note_on,1,0,11,,,,,,,,6,,,46,72
13140,note_on,1,0,18,,,,,,,,12,,,70,72
13140,note_on,1,0,6,,,,,,,,1,,,58,72
13140,note_on,1,0,17,,,,,,,,11,,,74,72
13140,note_on,1,0,15,,,,,,,,10,,,65,72
13140,note_on,1,0,21,,,,,,,,15,,,58,72
13140,note_on,1,0,9,,,,,,,,4,,,62,72
13140,note_on,1,0,19,,,,,,,,13,,,65,72
13184,note_on,44,0,11,,,,,,,,6,,,46,0
13184,note_on,44,0,9,,,,,,,,4,,,62,0
13184,note_on,44,0,21,,,,,,,,15,,,58,0
13184,note_on,44,0,6,,,,,,,,1,,,58,0
13185,note_on,1,0,9,,,,,,,,4,,,58,72
13185,note_on,1,0,21,,,,,,,,15,,,55,72
13185,note_on,1,0,6,,,,,,,,1,,,55,72
13185,note_on,1,0,11,,,,,,,,6,,,43,72
13199,note_on,59,0,14,,,,,,,,10,,,70,0
13199,note_on,0,0,21,,,,,,,,15,,,65,0
13199,note_on,59,0,19,,,,,,,,13,,,65,0
13199,note_on,59,0,20,,,,,,,,14,,,55,0
13199,note_on,59,0,16,,,,,,,,10,,,55,0
13199,note_on,59,0,15,,,,,,,,10,,,65,0
13199,note_on,0,0,21,,,,,,,,15,,,74,0
13199,note_on,14,0,9,,,,,,,,4,,,58,0
13199,note_on,119,0,8,,,,,,,,3,,,79,0
13199,note_on,59,0,18,,,,,,,,12,,,70,0
13199,note_on,14,0,6,,,,,,,,1,,,55,0
13199,note_on,119,0,7,,,,,,,,2,,,82,0
13199,note_on,14,0,11,,,,,,,,6,,,43,0
13199,note_on,14,0,21,,,,,,,,15,,,55,0
13199,note_on,0,0,21,,,,,,,,15,,,70,0
13199,note_on,59,0,17,,,,,,,,11,,,74,0
13199,note_on,239,0,5,,,,,,,,0,,,74,0
13200,note_on,1,0,17,,,,,,,,11,,,75,72
13200,note_on,0,0,21,,,,,,,,15,,,63,72
13200,note_on,1,0,6,,,,,,,,1,,,48,72
13200,note_on,0,0,21,,,,,,,,15,,,75,72
13200,note_on,1,0,15,,,,,,,,10,,,63,72
13200,note_on,1,0,9,,,,,,,,4,,,63,72
13200,note_on,0,0,21,,,,,,,,15,,,69,72
13200,note_on,1,0,19,,,,,,,,13,,,63,72
13200,note_on,1,0,21,,,,,,,,15,,,48,72
13200,note_on,1,0,16,,,,,,,,10,,,48,72
13200,note_on,1,0,20,,,,,,,,14,,,48,72
13200,note_on,1,0,5,,,,,,,,0,,,75,72
13200,note_on,1,0,11,,,,,,,,6,,,36,72
13200,note_on,1,0,14,,,,,,,,10,,,69,72
13200,note_on,1,0,18,,,,,,,,12,,,69,72
13245,note_on,46,0,8,,,,,,,,3,,,75,72
13245,note_on,46,0,7,,,,,,,,2,,,81,72
13259,note_on,59,0,21,,,,,,,,15,,,75,0
13259,note_on,0,0,21,,,,,,,,15,,,48,0
13259,note_on,0,0,21,,,,,,,,15,,,63,0
13259,note_on,59,0,16,,,,,,,,10,,,48,0
13259,note_on,0,0,21,,,,,,,,15,,,69,0
13259,note_on,59,0,18,,,,,,,,12,,,69,0
13259,note_on,59,0,15,,,,,,,,10,,,63,0
13259,note_on,14,0,7,,,,,,,,2,,,81,0
13259,note_on,14,0,8,,,,,,,,3,,,75,0
13259,note_on,59,0,11,,,,,,,,6,,,36,0
13259,note_on,59,0,6,,,,,,,,1,,,48,0
13259,note_on,59,0,14,,,,,,,,10,,,69,0
13259,note_on,59,0,17,,,,,,,,11,,,75,0
13259,note_on,59,0,20,,,,,,,,14,,,48,0
13259,note_on,59,0,5,,,,,,,,0,,,75,0
13259,note_on,59,0,19,,,,,,,,13,,,63,0
13259,note_on,59,0,9,,,,,,,,4,,,63,0
13260,note_on,1,0,9,,,,,,,,4,,,65,72
13260,note_on,1,0,7,,,,,,,,2,,,82,72
13260,note_on,1,0,15,,,,,,,,10,,,65,72
13260,note_on,1,0,14,,,,,,,,10,,,70,72
13260,note_on,1,0,19,,,,,,,,13,,,65,72
13260,note_on,1,0,6,,,,,,,,1,,,50,72
13260,note_on,1,0,21,,,,,,,,15,,,50,72
13260,note_on,1,0,8,,,,,,,,3,,,74,72
13260,note_on,0,0,21,,,,,,,,15,,,65,72
13260,note_on,0,0,21,,,,,,,,15,,,70,72
13260,note_on,1,0,11,,,,,,,,6,,,38,72
13260,note_on,0,0,21,,,,,,,,15,,,74,72
13260,note_on,1,0,20,,,,,,,,14,,,50,72
13260,note_on,1,0,5,,,,,,,,0,,,74,72
13260,note_on,1,0,16,,,,,,,,10,,,50,72
13260,note_on,1,0,18,,,,,,,,12,,,70,72
13260,note_on,1,0,17,,,,,,,,11,,,74,72
13304,note_on,44,0,7,,,,,,,,2,,,82,0
13304,note_on,0,0,21,,,,,,,,15,,,50,0
13304,note_on,0,0,21,,,,,,,,15,,,65,0
13304,note_on,44,0,16,,,,,,,,10,,,50,0
13304,note_on,44,0,8,,,,,,,,3,,,74,0
13304,note_on,44,0,11,,,,,,,,6,,,38,0
13304,note_on,44,0,20,,,,,,,,14,,,50,0
13304,note_on,44,0,21,,,,,,,,15,,,74,0
13304,note_on,44,0,6,,,,,,,,1,,,50,0
13305,note_on,1,0,16,,,,,,,,10,,,51,72
13305,note_on,1,0,11,,,,,,,,6,,,39,72
13305,note_on,1,0,20,,,,,,,,14,,,51,72
13305,note_on,1,0,8,,,,,,,,3,,,70,72
13305,note_on,0,0,21,,,,,,,,15,,,67,72
13305,note_on,1,0,21,,,,,,,,15,,,51,72
13305,note_on,1,0,7,,,,,,,,2,,,74,72
13305,note_on,1,0,6,,,,,,,,1,,,51,72
13319,note_on,0,0,21,,,,,,,,15,,,51,0
13319,note_on,14,0,21,,,,,,,,15,,,67,0
13319,note_on,14,0,11,,,,,,,,6,,,39,0
13319,note_on,14,0,20,,,,,,,,14,,,51,0
13319,note_on,0,0,21,,,,,,,,15,,,70,0
13319,note_on,14,0,7,,,,,,,,2,,,74,0
13319,note_on,59,0,14,,,,,,,,10,,,70,0
13319,note_on,59,0,17,,,,,,,,11,,,74,0
13319,note_on,14,0,6,,,,,,,,1,,,51,0
13319,note_on,14,0,8,,,,,,,,3,,,70,0
13319,note_on,59,0,18,,,,,,,,12,,,70,0
13319,note_on,14,0,16,,,,,,,,10,,,51,0
13319,note_on,59,0,5,,,,,,,,0,,,74,0
13320,note_on,1,0,7,,,,,,,,2,,,72,72
13320,note_on,1,0,5,,,,,,,,0,,,72,72
13320,note_on,1,0,6,,,,,,,,1,,,53,72
13320,note_on,1,0,18,,,,,,,,12,,,70,72
13320,note_on,1,0,14,,,,,,,,10,,,70,72
13320,note_on,1,0,11,,,,,,,,6,,,41,72
13320,note_on,0,0,21,,,,,,,,15,,,70,72
13320,note_on,0,0,21,,,,,,,,15,,,72,72
13320,note_on,0,0,21,,,,,,,,15,,,65,72
13320,note_on,1,0,8,,,,,,,,3,,,70,72
13320,note_on,1,0,21,,,,,,,,15,,,53,72
13320,note_on,1,0,16,,,,,,,,10,,,53,72
13320,note_on,1,0,20,,,,,,,,14,,,53,72
13320,note_on,1,0,17,,,,,,,,11,,,72,72
13364,note_on,44,0,8,,,,,,,,3,,,70,0
13364,note_on,44,0,7,,,,,,,,2,,,72,0
13365,note_on,1,0,8,,,,,,,,3,,,72,72
13365,note_on,1,0,7,,,,,,,,2,,,82,72
13379,note_on,119,0,9,,,,,,,,4,,,65,0
13379,note_on,119,0,19,,,,,,,,13,,,65,0
13379,note_on,59,0,14,,,,,,,,10,,,70,0
13379,note_on,14,0,8,,,,,,,,3,,,72,0
13379,note_on,59,0,11,,,,,,,,6,,,41,0
13379,note_on,59,0,21,,,,,,,,15,,,70,0
13379,note_on,0,0,21,,,,,,,,15,,,53,0
13379,note_on,14,0,7,,,,,,,,2,,,82,0
13379,note_on,59,0,6,,,,,,,,1,,,53,0
13379,note_on,59,0,18,,,,,,,,12,,,70,0
13379,note_on,119,0,15,,,,,,,,10,,,65,0
13380,note_on,1,0,8,,,,,,,,3,,,69,72
13380,note_on,1,0,21,,,,,,,,15,,,41,72
13380,note_on,1,0,6,,,,,,,,1,,,41,72
13380,note_on,1,0,18,,,,,,,,12,,,69,72
13380,note_on,1,0,15,,,,,,,,10,,,63,72
13380,note_on,1,0,9,,,,,,,,4,,,63,72
13380,note_on,1,0,14,,,,,,,,10,,,69,72
13380,note_on,1,0,7,,,,,,,,2,,,72,72
13380,note_on,1,0,11,,,,,,,,6,,,29,72
13380,note_on,1,0,19,,,,,,,,13,,,63,72
13380,note_on,0,0,21,,,,,,,,15,,,69,72
13424,note_on,44,0,7,,,,,,,,2,,,72,0
13424,note_on,44,0,8,,,,,,,,3,,,69,0
13425,note_on,1,0,8,,,,,,,,3,,,72,72
13425,note_on,1,0,7,,,,,,,,2,,,81,72
13439,note_on,59,0,6,,,,,,,,1,,,41,0
13439,note_on,119,0,16,,,,,,,,10,,,53,0
13439,note_on,119,0,20,,,,,,,,14,,,53,0
13439,note_on,119,0,17,,,,,,,,11,,,72,0
13439,note_on,59,0,18,,,,,,,,12,,,69,0
13439,note_on,59,0,11,,,,,,,,6,,,29,0
13439,note_on,119,0,5,,,,,,,,0,,,72,0
13439,note_on,59,0,14,,,,,,,,10,,,69,0
13439,note_on,14,0,8,,,,,,,,3,,,72,0
13439,note_on,14,0,7,,,,,,,,2,,,81,0
13439,note_on,59,0,9,,,,,,,,4,,,63,0
13439,note_on,59,0,15,,,,,,,,10,,,63,0
13439,note_on,0,0,21,,,,,,,,15,,,41,0
13439,note_on,59,0,19,,,,,,,,13,,,63,0
13439,note_on,0,0,21,,,,,,,,15,,,65,0
13439,note_on,59,0,21,,,,,,,,15,,,69,0
13439,note_on,0,0,21,,,,,,,,15,,,72,0
13440,note_on,1,0,17,,,,,,,,11,,,70,72
13440,note_on,1,0,16,,,,,,,,10,,,46,72
13440,note_on,1,0,19,,,,,,,,13,,,62,72
13440,note_on,1,0,5,,,,,,,,0,,,70,72
13440,note_on,1,0,18,,,,,,,,12,,,70,72
13440,note_on,1,0,6,,,,,,,,1,,,46,72
13440,note_on,1,0,20,,,,,,,,14,,,46,72
13440,note_on,0,0,21,,,,,,,,15,,,70,72
13440,note_on,0,0,21,,,,,,,,15,,,65,72
13440,note_on,1,0,11,,,,,,,,6,,,34,72
13440,note_on,1,0,14,,,,,,,,10,,,70,72
13440,note_on,1,0,15,,,,,,,,10,,,62,72
13440,note_on,0,0,21,,,,,,,,15,,,62,72
13440,note_on,1,0,8,,,,,,,,3,,,74,72
13440,note_on,1,0,21,,,,,,,,15,,,46,72
13440,note_on,1,0,7,,,,,,,,2,,,82,72
13440,note_on,1,0,9,,,,,,,,4,,,62,72
13484,note_on,44,0,7,,,,,,,,2,,,82,0
13484,note_on,44,0,8,,,,,,,,3,,,74,0
13485,note_on,1,0,7,,,,,,,,2,,,70,72
13485,note_on,1,0,8,,,,,,,,3,,,62,72
13499,note_on,14,0,8,,,,,,,,3,,,62,0
13499,note_on,14,0,7,,,,,,,,2,,,70,0
13500,note_on,1,0,7,,,,,,,,2,,,74,72
13500,note_on,1,0,8,,,,,,,,3,,,65,72
13544,note_on,44,0,7,,,,,,,,2,,,74,0
13544,note_on,44,0,8,,,,,,,,3,,,65,0
13545,note_on,1,0,7,,,,,,,,2,,,70,72
13545,note_on,1,0,8,,,,,,,,3,,,62,72
13559,note_on,14,0,7,,,,,,,,2,,,70,0
13559,note_on,14,0,8,,,,,,,,3,,,62,0
13559,note_on,119,0,17,,,,,,,,11,,,70,0
13559,note_on,119,0,15,,,,,,,,10,,,62,0
13559,note_on,119,0,9,,,,,,,,4,,,62,0
13559,note_on,119,0,11,,,,,,,,6,,,34,0
13559,note_on,119,0,21,,,,,,,,15,,,70,0
13559,note_on,119,0,19,,,,,,,,13,,,62,0
13559,note_on,0,0,21,,,,,,,,15,,,46,0
13559,note_on,119,0,6,,,,,,,,1,,,46,0
13559,note_on,119,0,20,,,,,,,,14,,,46,0
13559,note_on,0,0,21,,,,,,,,15,,,62,0
13559,note_on,119,0,16,,,,,,,,10,,,46,0
13559,note_on,119,0,5,,,,,,,,0,,,70,0
13559,note_on,119,0,18,,,,,,,,12,,,70,0
13559,note_on,119,0,14,,,,,,,,10,,,70,0
13559,note_on,0,0,21,,,,,,,,15,,,65,0
13560,note_on,1,0,8,,,,,,,,3,,,74,72
13560,note_on,1,0,7,,,,,,,,2,,,82,72
13605,note_on,0,0,21,,,,,,,,15,,,65,72
13605,note_on,46,0,6,,,,,,,,1,,,58,72
13605,note_on,46,0,21,,,,,,,,15,,,58,72
13605,note_on,0,0,21,,,,,,,,15,,,70,72
13605,note_on,0,0,21,,,,,,,,15,,,74,72
13605,note_on,46,0,9,,,,,,,,4,,,62,72
13605,note_on,46,0,11,,,,,,,,6,,,46,72
13619,note_on,14,0,21,,,,,,,,15,,,58,0
13619,note_on,14,0,9,,,,,,,,4,,,62,0
13619,note_on,14,0,6,,,,,,,,1,,,58,0
13619,note_on,14,0,11,,,,,,,,6,,,46,0
13620,note_on,61,0,19,,,,,,,,13,,,62,72
13620,note_on,1,0,6,,,,,,,,1,,,62,72
13620,note_on,1,0,9,,,,,,,,4,,,65,72
13620,note_on,61,0,15,,,,,,,,10,,,62,72
13620,note_on,1,0,21,,,,,,,,15,,,62,72
13620,note_on,61,0,16,,,,,,,,10,,,58,72
13620,note_on,1,0,11,,,,,,,,6,,,50,72
13620,note_on,61,0,20,,,,,,,,14,,,58,72
13664,note_on,44,0,11,,,,,,,,6,,,50,0
13664,note_on,44,0,9,,,,,,,,4,,,65,0
13664,note_on,44,0,6,,,,,,,,1,,,62,0
13664,note_on,44,0,21,,,,,,,,15,,,62,0
13665,note_on,1,0,9,,,,,,,,4,,,62,72
13665,note_on,1,0,21,,,,,,,,15,,,58,72
13665,note_on,1,0,11,,,,,,,,6,,,46,72
13665,note_on,1,0,6,,,,,,,,1,,,58,72
13679,note_on,59,0,20,,,,,,,,14,,,58,0
13679,note_on,0,0,21,,,,,,,,15,,,74,0
13679,note_on,0,0,21,,,,,,,,15,,,65,0
13679,note_on,59,0,16,,,,,,,,10,,,58,0
13679,note_on,14,0,9,,,,,,,,4,,,62,0
13679,note_on,119,0,8,,,,,,,,3,,,74,0
13679,note_on,59,0,19,,,,,,,,13,,,62,0
13679,note_on,59,0,15,,,,,,,,10,,,62,0
13679,note_on,14,0,11,,,,,,,,6,,,46,0
13679,note_on,0,0,21,,,,,,,,15,,,70,0
13679,note_on,119,0,7,,,,,,,,2,,,82,0
13679,note_on,14,0,6,,,,,,,,1,,,58,0
13679,note_on,14,0,21,,,,,,,,15,,,58,0
13680,note_on,1,0,16,,,,,,,,10,,,55,72
13680,note_on,1,0,20,,,,,,,,14,,,55,72
13680,note_on,1,0,6,,,,,,,,1,,,55,72
13680,note_on,0,0,21,,,,,,,,15,,,67,72
13680,note_on,0,0,21,,,,,,,,15,,,74,72
13680,note_on,1,0,15,,,,,,,,10,,,58,72
13680,note_on,1,0,9,,,,,,,,4,,,58,72
13680,note_on,0,0,21,,,,,,,,15,,,70,72
13680,note_on,1,0,19,,,,,,,,13,,,58,72
13680,note_on,1,0,21,,,,,,,,15,,,55,72
13680,note_on,1,0,11,,,,,,,,6,,,43,72
13725,note_on,46,0,7,,,,,,,,2,,,74,72
13725,note_on,46,0,8,,,,,,,,3,,,70,72
13739,note_on,14,0,7,,,,,,,,2,,,74,0
13739,note_on,14,0,8,,,,,,,,3,,,70,0
13740,note_on,1,0,8,,,,,,,,3,,,74,72
13740,note_on,181,0,14,,,,,,,,10,,,62,72
13740,note_on,181,0,18,,,,,,,,12,,,62,72
13740,note_on,1,0,7,,,,,,,,2,,,79,72
13784,note_on,44,0,7,,,,,,,,2,,,79,0
13784,note_on,44,0,8,,,,,,,,3,,,74,0
13785,note_on,1,0,8,,,,,,,,3,,,70,72
13785,note_on,1,0,7,,,,,,,,2,,,74,72
13799,note_on,119,0,15,,,,,,,,10,,,58,0
13799,note_on,119,0,16,,,,,,,,10,,,55,0
13799,note_on,0,0,21,,,,,,,,15,,,55,0
13799,note_on,14,0,7,,,,,,,,2,,,74,0
13799,note_on,119,0,6,,,,,,,,1,,,55,0
13799,note_on,0,0,21,,,,,,,,15,,,74,0
13799,note_on,0,0,21,,,,,,,,15,,,70,0
13799,note_on,59,0,14,,,,,,,,10,,,62,0
13799,note_on,119,0,9,,,,,,,,4,,,58,0
13799,note_on,14,0,8,,,,,,,,3,,,70,0
13799,note_on,119,0,21,,,,,,,,15,,,67,0
13799,note_on,59,0,18,,,,,,,,12,,,62,0
13799,note_on,119,0,20,,,,,,,,14,,,55,0
13799,note_on,119,0,19,,,,,,,,13,,,58,0
13799,note_on,119,0,11,,,,,,,,6,,,43,0
13800,note_on,1,0,7,,,,,,,,2,,,86,72
13800,note_on,1,0,8,,,,,,,,3,,,82,72
13800,note_on,1,0,14,,,,,,,,10,,,67,72
13800,note_on,1,0,18,,,,,,,,12,,,67,72
13845,note_on,0,0,21,,,,,,,,15,,,67,72
13845,note_on,46,0,6,,,,,,,,1,,,55,72
13845,note_on,46,0,11,,,,,,,,6,,,43,72
13845,note_on,46,0,21,,,,,,,,15,,,55,72
13845,note_on,0,0,21,,,,,,,,15,,,70,72
13845,note_on,46,0,9,,,,,,,,4,,,58,72
13845,note_on,0,0,21,,,,,,,,15,,,74,72
13859,note_on,14,0,11,,,,,,,,6,,,43,0
13859,note_on,14,0,21,,,,,,,,15,,,55,0
13859,note_on,14,0,6,,,,,,,,1,,,55,0
13859,note_on,14,0,9,,,,,,,,4,,,58,0
13860,note_on,1,0,6,,,,,,,,1,,,58,72
13860,note_on,1,0,9,,,,,,,,4,,,62,72
13860,note_on,61,0,20,,,,,,,,14,,,55,72
13860,note_on,61,0,16,,,,,,,,10,,,55,72
13860,note_on,61,0,19,,,,,,,,13,,,58,72
13860,note_on,61,0,15,,,,,,,,10,,,58,72
13860,note_on,1,0,21,,,,,,,,15,,,58,72
13860,note_on,1,0,11,,,,,,,,6,,,46,72
13904,note_on,44,0,6,,,,,,,,1,,,58,0
13904,note_on,44,0,21,,,,,,,,15,,,58,0
13904,note_on,44,0,9,,,,,,,,4,,,62,0
13904,note_on,44,0,11,,,,,,,,6,,,46,0
13905,note_on,1,0,11,,,,,,,,6,,,43,72
13905,note_on,1,0,9,,,,,,,,4,,,58,72
13905,note_on,1,0,21,,,,,,,,15,,,55,72
13905,note_on,1,0,6,,,,,,,,1,,,55,72
13919,note_on,0,0,21,,,,,,,,15,,,70,0
13919,note_on,119,0,7,,,,,,,,2,,,86,0
13919,note_on,0,0,21,,,,,,,,15,,,74,0
13919,note_on,0,0,21,,,,,,,,15,,,67,0
13919,note_on,14,0,21,,,,,,,,15,,,55,0
13919,note_on,59,0,20,,,,,,,,14,,,55,0
13919,note_on,14,0,11,,,,,,,,6,,,43,0
13919,note_on,59,0,16,,,,,,,,10,,,55,0
13919,note_on,59,0,15,,,,,,,,10,,,58,0
13919,note_on,119,0,8,,,,,,,,3,,,82,0
13919,note_on,119,0,18,,,,,,,,12,,,67,0
13919,note_on,59,0,19,,,,,,,,13,,,58,0
13919,note_on,14,0,9,,,,,,,,4,,,58,0
13919,note_on,14,0,6,,,,,,,,1,,,55,0
13919,note_on,119,0,14,,,,,,,,10,,,67,0
13920,note_on,1,0,15,,,,,,,,10,,,55,72
13920,note_on,1,0,21,,,,,,,,15,,,52,72
13920,note_on,1,0,19,,,,,,,,13,,,55,72
13920,note_on,1,0,9,,,,,,,,4,,,55,72
13920,note_on,1,0,6,,,,,,,,1,,,52,72
13920,note_on,0,0,21,,,,,,,,15,,,67,72
13920,note_on,1,0,11,,,,,,,,6,,,40,72
13920,note_on,0,0,21,,,,,,,,15,,,72,72
13920,note_on,361,0,17,,,,,,,,11,,,72,72
13920,note_on,0,0,21,,,,,,,,15,,,70,72
13920,note_on,1,0,20,,,,,,,,14,,,52,72
13920,note_on,1,0,16,,,,,,,,10,,,52,72
13920,note_on,361,0,5,,,,,,,,0,,,72,72
13965,note_on,46,0,7,,,,,,,,2,,,72,72
13965,note_on,46,0,8,,,,,,,,3,,,67,72
13979,note_on,14,0,7,,,,,,,,2,,,72,0
13979,note_on,14,0,8,,,,,,,,3,,,67,0
13980,note_on,61,0,18,,,,,,,,12,,,67,72
13980,note_on,1,0,7,,,,,,,,2,,,79,72
13980,note_on,1,0,8,,,,,,,,3,,,72,72
13980,note_on,61,0,14,,,,,,,,10,,,67,72
14024,note_on,44,0,8,,,,,,,,3,,,72,0
14024,note_on,44,0,7,,,,,,,,2,,,79,0
14025,note_on,1,0,8,,,,,,,,3,,,67,72
14025,note_on,1,0,7,,,,,,,,2,,,72,72
14039,note_on,119,0,6,,,,,,,,1,,,52,0
14039,note_on,14,0,8,,,,,,,,3,,,67,0
14039,note_on,0,0,21,,,,,,,,15,,,70,0
14039,note_on,0,0,21,,,,,,,,15,,,67,0
14039,note_on,119,0,20,,,,,,,,14,,,52,0
14039,note_on,119,0,11,,,,,,,,6,,,40,0
14039,note_on,14,0,7,,,,,,,,2,,,72,0
14039,note_on,119,0,15,,,,,,,,10,,,55,0
14039,note_on,59,0,18,,,,,,,,12,,,67,0
14039,note_on,0,0,21,,,,,,,,15,,,52,0
14039,note_on,59,0,14,,,,,,,,10,,,67,0
14039,note_on,119,0,9,,,,,,,,4,,,55,0
14039,note_on,119,0,16,,,,,,,,10,,,52,0
14039,note_on,119,0,5,,,,,,,,0,,,72,0
14039,note_on,119,0,21,,,,,,,,15,,,72,0
14039,note_on,119,0,19,,,,,,,,13,,,55,0
14039,note_on,119,0,17,,,,,,,,11,,,72,0
14040,note_on,1,0,20,,,,,,,,14,,,52,72
14040,note_on,1,0,16,,,,,,,,10,,,52,72
14040,note_on,1,0,19,,,,,,,,13,,,55,72
14040,note_on,1,0,7,,,,,,,,2,,,84,72
14040,note_on,1,0,17,,,,,,,,11,,,72,72
14040,note_on,1,0,15,,,,,,,,10,,,55,72
14040,note_on,1,0,8,,,,,,,,3,,,82,72
14040,note_on,1,0,18,,,,,,,,12,,,70,72
14040,note_on,1,0,14,,,,,,,,10,,,70,72
14040,note_on,1,0,5,,,,,,,,0,,,72,72
14085,note_on,46,0,21,,,,,,,,15,,,52,72
14085,note_on,0,0,21,,,,,,,,15,,,72,72
14085,note_on,0,0,21,,,,,,,,15,,,67,72
14085,note_on,46,0,9,,,,,,,,4,,,67,72
14085,note_on,46,0,6,,,,,,,,1,,,52,72
14085,note_on,0,0,21,,,,,,,,15,,,70,72
14085,note_on,46,0,11,,,,,,,,6,,,40,72
14099,note_on,14,0,6,,,,,,,,1,,,52,0
14099,note_on,14,0,9,,,,,,,,4,,,67,0
14099,note_on,14,0,11,,,,,,,,6,,,40,0
14099,note_on,59,0,20,,,,,,,,14,,,52,0
14099,note_on,14,0,21,,,,,,,,15,,,52,0
14099,note_on,59,0,16,,,,,,,,10,,,52,0
14100,note_on,1,0,20,,,,,,,,14,,,52,72
14100,note_on,1,0,9,,,,,,,,4,,,70,72
14100,note_on,1,0,21,,,,,,,,15,,,55,72
14100,note_on,1,0,6,,,,,,,,1,,,55,72
14100,note_on,1,0,11,,,,,,,,6,,,43,72
14100,note_on,1,0,16,,,,,,,,10,,,52,72
14144,note_on,44,0,9,,,,,,,,4,,,70,0
14144,note_on,44,0,21,,,,,,,,15,,,55,0
14144,note_on,44,0,6,,,,,,,,1,,,55,0
14144,note_on,44,0,11,,,,,,,,6,,,43,0
14145,note_on,1,0,9,,,,,,,,4,,,67,72
14145,note_on,1,0,6,,,,,,,,1,,,60,72
14145,note_on,1,0,11,,,,,,,,6,,,48,72
14145,note_on,1,0,21,,,,,,,,15,,,60,72
14159,note_on,119,0,17,,,,,,,,11,,,72,0
14159,note_on,119,0,8,,,,,,,,3,,,82,0
14159,note_on,14,0,21,,,,,,,,15,,,60,0
14159,note_on,59,0,20,,,,,,,,14,,,52,0
14159,note_on,14,0,9,,,,,,,,4,,,67,0
14159,note_on,14,0,11,,,,,,,,6,,,48,0
14159,note_on,59,0,16,,,,,,,,10,,,52,0
14159,note_on,119,0,7,,,,,,,,2,,,84,0
14159,note_on,119,0,5,,,,,,,,0,,,72,0
14159,note_on,14,0,6,,,,,,,,1,,,60,0
14160,note_on,1,0,11,,,,,,,,6,,,39,72
14160,note_on,1,0,16,,,,,,,,10,,,51,72
14160,note_on,1,0,17,,,,,,,,11,,,72,72
14160,note_on,1,0,5,,,,,,,,0,,,72,72
14160,note_on,1,0,6,,,,,,,,1,,,51,72
14160,note_on,1,0,9,,,,,,,,4,,,55,72
14160,note_on,1,0,21,,,,,,,,15,,,51,72
14160,note_on,1,0,20,,,,,,,,14,,,51,72
14205,note_on,46,0,8,,,,,,,,3,,,67,72
14205,note_on,46,0,7,,,,,,,,2,,,72,72
14219,note_on,59,0,20,,,,,,,,14,,,51,0
14219,note_on,59,0,16,,,,,,,,10,,,51,0
14219,note_on,14,0,8,,,,,,,,3,,,67,0
14219,note_on,179,0,18,,,,,,,,12,,,70,0
14219,note_on,14,0,7,,,,,,,,2,,,72,0
14219,note_on,179,0,14,,,,,,,,10,,,70,0
14220,note_on,1,0,14,,,,,,,,10,,,70,72
14220,note_on,1,0,16,,,,,,,,10,,,51,72
14220,note_on,1,0,18,,,,,,,,12,,,70,72
14220,note_on,1,0,8,,,,,,,,3,,,72,72
14220,note_on,1,0,20,,,,,,,,14,,,51,72
14220,note_on,1,0,7,,,,,,,,2,,,79,72
14264,note_on,44,0,8,,,,,,,,3,,,72,0
14264,note_on,44,0,7,,,,,,,,2,,,79,0
14265,note_on,1,0,7,,,,,,,,2,,,72,72
14265,note_on,1,0,8,,,,,,,,3,,,67,72
14279,note_on,119,0,11,,,,,,,,6,,,39,0
14279,note_on,14,0,7,,,,,,,,2,,,72,0
14279,note_on,119,0,21,,,,,,,,15,,,51,0
14279,note_on,0,0,21,,,,,,,,15,,,72,0
14279,note_on,239,0,19,,,,,,,,13,,,55,0
14279,note_on,119,0,6,,,,,,,,1,,,51,0
14279,note_on,59,0,18,,,,,,,,12,,,70,0
14279,note_on,59,0,16,,,,,,,,10,,,51,0
14279,note_on,239,0,15,,,,,,,,10,,,55,0
14279,note_on,59,0,14,,,,,,,,10,,,70,0
14279,note_on,0,0,21,,,,,,,,15,,,70,0
14279,note_on,0,0,21,,,,,,,,15,,,67,0
14279,note_on,59,0,20,,,,,,,,14,,,51,0
14279,note_on,119,0,9,,,,,,,,4,,,55,0
14279,note_on,14,0,8,,,,,,,,3,,,67,0
14280,note_on,1,0,8,,,,,,,,3,,,81,72
14280,note_on,1,0,7,,,,,,,,2,,,84,72
14280,note_on,1,0,19,,,,,,,,13,,,54,72
14280,note_on,1,0,16,,,,,,,,10,,,51,72
14280,note_on,1,0,15,,,,,,,,10,,,54,72
14280,note_on,1,0,14,,,,,,,,10,,,69,72
14280,note_on,1,0,20,,,,,,,,14,,,51,72
14280,note_on,1,0,18,,,,,,,,12,,,69,72
14325,note_on,0,0,21,,,,,,,,15,,,69,72
14325,note_on,0,0,21,,,,,,,,15,,,72,72
14325,note_on,0,0,21,,,,,,,,15,,,66,72
14325,note_on,46,0,6,,,,,,,,1,,,51,72
14325,note_on,46,0,11,,,,,,,,6,,,39,72
14325,note_on,46,0,9,,,,,,,,4,,,63,72
14325,note_on,46,0,21,,,,,,,,15,,,51,72
14339,note_on,59,0,15,,,,,,,,10,,,54,0
14339,note_on,14,0,11,,,,,,,,6,,,39,0
14339,note_on,59,0,18,,,,,,,,12,,,69,0
14339,note_on,14,0,21,,,,,,,,15,,,66,0
14339,note_on,14,0,9,,,,,,,,4,,,63,0
14339,note_on,14,0,6,,,,,,,,1,,,51,0
14339,note_on,0,0,21,,,,,,,,15,,,69,0
14339,note_on,59,0,14,,,,,,,,10,,,69,0
14339,note_on,59,0,19,,,,,,,,13,,,54,0
14339,note_on,59,0,20,,,,,,,,14,,,51,0
14339,note_on,59,0,16,,,,,,,,10,,,51,0
14339,note_on,179,0,17,,,,,,,,11,,,72,0
14339,note_on,0,0,21,,,,,,,,15,,,51,0
14340,note_on,1,0,21,,,,,,,,15,,,55,72
14340,note_on,0,0,21,,,,,,,,15,,,63,72
14340,note_on,0,0,21,,,,,,,,15,,,67,72
14340,note_on,1,0,9,,,,,,,,4,,,55,72
14340,note_on,1,0,15,,,,,,,,10,,,55,72
14340,note_on,1,0,17,,,,,,,,11,,,72,72
14340,note_on,1,0,6,,,,,,,,1,,,55,72
14340,note_on,1,0,19,,,,,,,,13,,,55,72
14340,note_on,1,0,20,,,,,,,,14,,,51,72
14340,note_on,1,0,14,,,,,,,,10,,,67,72
14340,note_on,1,0,11,,,,,,,,6,,,43,72
14340,note_on,1,0,18,,,,,,,,12,,,67,72
14340,note_on,1,0,16,,,,,,,,10,,,51,72
14384,note_on,44,0,6,,,,,,,,1,,,55,0
14384,note_on,44,0,11,,,,,,,,6,,,43,0
14384,note_on,44,0,21,,,,,,,,15,,,55,0
14384,note_on,44,0,9,,,,,,,,4,,,55,0
14385,note_on,1,0,9,,,,,,,,4,,,67,72
14385,note_on,1,0,11,,,,,,,,6,,,48,72
14385,note_on,1,0,21,,,,,,,,15,,,60,72
14385,note_on,1,0,6,,,,,,,,1,,,60,72
14399,note_on,14,0,9,,,,,,,,4,,,67,0
14399,note_on,59,0,14,,,,,,,,10,,,67,0
14399,note_on,119,0,7,,,,,,,,2,,,84,0
14399,note_on,0,0,21,,,,,,,,15,,,72,0
14399,note_on,239,0,5,,,,,,,,0,,,72,0
14399,note_on,59,0,20,,,,,,,,14,,,51,0
14399,note_on,59,0,16,,,,,,,,10,,,51,0
14399,note_on,14,0,6,,,,,,,,1,,,60,0
14399,note_on,59,0,19,,,,,,,,13,,,55,0
14399,note_on,0,0,21,,,,,,,,15,,,67,0
14399,note_on,14,0,21,,,,,,,,15,,,60,0
14399,note_on,59,0,18,,,,,,,,12,,,67,0
14399,note_on,0,0,21,,,,,,,,15,,,63,0
14399,note_on,14,0,11,,,,,,,,6,,,48,0
14399,note_on,59,0,17,,,,,,,,11,,,72,0
14399,note_on,59,0,15,,,,,,,,10,,,55,0
14399,note_on,119,0,8,,,,,,,,3,,,81,0
14400,note_on,1,0,18,,,,,,,,12,,,66,72
14400,note_on,1,0,20,,,,,,,,14,,,50,72
14400,note_on,1,0,17,,,,,,,,11,,,74,72
14400,note_on,1,0,5,,,,,,,,0,,,74,72
14400,note_on,1,0,21,,,,,,,,15,,,69,72
14400,note_on,0,0,21,,,,,,,,15,,,50,72
14400,note_on,0,0,21,,,,,,,,15,,,66,72
14400,note_on,0,0,21,,,,,,,,15,,,72,72
14400,note_on,1,0,15,,,,,,,,10,,,57,72
14400,note_on,1,0,16,,,,,,,,10,,,50,72
14400,note_on,1,0,11,,,,,,,,6,,,38,72
14400,note_on,1,0,14,,,,,,,,10,,,66,72
14400,note_on,1,0,6,,,,,,,,1,,,50,72
14400,note_on,1,0,19,,,,,,,,13,,,57,72
14400,note_on,1,0,9,,,,,,,,4,,,66,72
14445,note_on,46,0,7,,,,,,,,2,,,72,72
14445,note_on,46,0,8,,,,,,,,3,,,69,72
14459,note_on,59,0,9,,,,,,,,4,,,66,0
14459,note_on,0,0,21,,,,,,,,15,,,66,0
14459,note_on,0,0,21,,,,,,,,15,,,50,0
14459,note_on,0,0,21,,,,,,,,15,,,69,0
14459,note_on,59,0,21,,,,,,,,15,,,72,0
14459,note_on,59,0,19,,,,,,,,13,,,57,0
14459,note_on,59,0,15,,,,,,,,10,,,57,0
14459,note_on,59,0,11,,,,,,,,6,,,38,0
14459,note_on,14,0,7,,,,,,,,2,,,72,0
14459,note_on,59,0,6,,,,,,,,1,,,50,0
14459,note_on,14,0,8,,,,,,,,3,,,69,0
14460,note_on,1,0,7,,,,,,,,2,,,84,72
14460,note_on,1,0,19,,,,,,,,13,,,57,72
14460,note_on,1,0,8,,,,,,,,3,,,81,72
14460,note_on,1,0,15,,,,,,,,10,,,57,72
14505,note_on,0,0,21,,,,,,,,15,,,72,72
14505,note_on,0,0,21,,,,,,,,15,,,66,72
14505,note_on,0,0,21,,,,,,,,15,,,69,72
14505,note_on,46,0,11,,,,,,,,6,,,50,72
14505,note_on,46,0,21,,,,,,,,15,,,62,72
14505,note_on,46,0,6,,,,,,,,1,,,62,72
14505,note_on,46,0,9,,,,,,,,4,,,66,72
14519,note_on,59,0,7,,,,,,,,2,,,84,0
14519,note_on,59,0,8,,,,,,,,3,,,81,0
14519,note_on,59,0,19,,,,,,,,13,,,57,0
14519,note_on,14,0,6,,,,,,,,1,,,62,0
14519,note_on,119,0,17,,,,,,,,11,,,74,0
14519,note_on,14,0,21,,,,,,,,15,,,66,0
14519,note_on,119,0,5,,,,,,,,0,,,74,0
14519,note_on,0,0,21,,,,,,,,15,,,72,0
14519,note_on,0,0,21,,,,,,,,15,,,69,0
14519,note_on,14,0,11,,,,,,,,6,,,50,0
14519,note_on,59,0,15,,,,,,,,10,,,57,0
14519,note_on,119,0,18,,,,,,,,12,,,66,0
14519,note_on,0,0,21,,,,,,,,15,,,62,0
14519,note_on,119,0,16,,,,,,,,10,,,50,0
14519,note_on,14,0,9,,,,,,,,4,,,66,0
14519,note_on,119,0,20,,,,,,,,14,,,50,0
14519,note_on,119,0,14,,,,,,,,10,,,66,0
14520,note_on,1,0,9,,,,,,,,4,,,64,72
14520,note_on,1,0,16,,,,,,,,10,,,49,72
14520,note_on,1,0,19,,,,,,,,13,,,58,72
14520,note_on,0,0,21,,,,,,,,15,,,64,72
14520,note_on,0,0,21,,,,,,,,15,,,67,72
14520,note_on,1,0,11,,,,,,,,6,,,49,72
14520,note_on,0,0,21,,,,,,,,15,,,70,72
14520,note_on,1,0,20,,,,,,,,14,,,49,72
14520,note_on,1,0,18,,,,,,,,12,,,64,72
14520,note_on,1,0,6,,,,,,,,1,,,61,72
14520,note_on,1,0,17,,,,,,,,11,,,67,72
14520,note_on,1,0,15,,,,,,,,10,,,58,72
14520,note_on,1,0,5,,,,,,,,0,,,67,72
14520,note_on,1,0,21,,,,,,,,15,,,61,72
14520,note_on,1,0,14,,,,,,,,10,,,64,72
14565,note_on,46,0,8,,,,,,,,3,,,67,72
14565,note_on,46,0,7,,,,,,,,2,,,70,72
14579,note_on,59,0,21,,,,,,,,15,,,70,0
14579,note_on,0,0,21,,,,,,,,15,,,61,0
14579,note_on,59,0,19,,,,,,,,13,,,58,0
14579,note_on,0,0,21,,,,,,,,15,,,67,0
14579,note_on,59,0,9,,,,,,,,4,,,64,0
14579,note_on,0,0,21,,,,,,,,15,,,64,0
14579,note_on,59,0,11,,,,,,,,6,,,49,0
14579,note_on,14,0,7,,,,,,,,2,,,70,0
14579,note_on,14,0,8,,,,,,,,3,,,67,0
14579,note_on,59,0,6,,,,,,,,1,,,61,0
14579,note_on,59,0,15,,,,,,,,10,,,58,0
14580,note_on,1,0,8,,,,,,,,3,,,79,72
14580,note_on,1,0,19,,,,,,,,13,,,55,72
14580,note_on,1,0,15,,,,,,,,10,,,55,72
14580,note_on,1,0,7,,,,,,,,2,,,82,72
14625,note_on,0,0,21,,,,,,,,15,,,70,72
14625,note_on,46,0,6,,,,,,,,1,,,49,72
14625,note_on,46,0,21,,,,,,,,15,,,48,72
14625,note_on,46,0,11,,,,,,,,6,,,36,72
14625,note_on,46,0,9,,,,,,,,4,,,64,72
14625,note_on,0,0,21,,,,,,,,15,,,67,72
14625,note_on,0,0,21,,,,,,,,15,,,64,72
14639,note_on,0,0,21,,,,,,,,15,,,67,0
14639,note_on,14,0,6,,,,,,,,1,,,49,0
14639,note_on,14,0,21,,,,,,,,15,,,64,0
14639,note_on,59,0,8,,,,,,,,3,,,79,0
14639,note_on,59,0,7,,,,,,,,2,,,82,0
14639,note_on,0,0,21,,,,,,,,15,,,48,0
14639,note_on,119,0,20,,,,,,,,14,,,49,0
14639,note_on,0,0,21,,,,,,,,15,,,70,0
14639,note_on,14,0,11,,,,,,,,6,,,36,0
14639,note_on,119,0,14,,,,,,,,10,,,64,0
14639,note_on,119,0,18,,,,,,,,12,,,64,0
14639,note_on,119,0,17,,,,,,,,11,,,67,0
14639,note_on,119,0,16,,,,,,,,10,,,49,0
14639,note_on,59,0,15,,,,,,,,10,,,55,0
14639,note_on,59,0,19,,,,,,,,13,,,55,0
14639,note_on,14,0,9,,,,,,,,4,,,64,0
14639,note_on,119,0,5,,,,,,,,0,,,67,0
14640,note_on,1,0,17,,,,,,,,11,,,70,72
14640,note_on,1,0,9,,,,,,,,4,,,62,72
14640,note_on,1,0,5,,,,,,,,0,,,70,72
14640,note_on,1,0,15,,,,,,,,10,,,62,72
14640,note_on,1,0,20,,,,,,,,14,,,50,72
14640,note_on,1,0,6,,,,,,,,1,,,50,72
14640,note_on,1,0,14,,,,,,,,10,,,67,72
14640,note_on,0,0,21,,,,,,,,15,,,62,72
14640,note_on,1,0,19,,,,,,,,13,,,62,72
14640,note_on,1,0,21,,,,,,,,15,,,50,72
14640,note_on,0,0,21,,,,,,,,15,,,67,72
14640,note_on,0,0,21,,,,,,,,15,,,70,72
14640,note_on,1,0,16,,,,,,,,10,,,50,72
14640,note_on,1,0,11,,,,,,,,6,,,38,72
14640,note_on,1,0,18,,,,,,,,12,,,67,72
14685,note_on,46,0,8,,,,,,,,3,,,70,72
14685,note_on,46,0,7,,,,,,,,2,,,70,72
14699,note_on,59,0,11,,,,,,,,6,,,38,0
14699,note_on,59,0,14,,,,,,,,10,,,67,0
14699,note_on,59,0,9,,,,,,,,4,,,62,0
14699,note_on,0,0,21,,,,,,,,15,,,67,0
14699,note_on,14,0,8,,,,,,,,3,,,70,0
14699,note_on,14,0,7,,,,,,,,2,,,70,0
14699,note_on,0,0,21,,,,,,,,15,,,70,0
14699,note_on,59,0,21,,,,,,,,15,,,62,0
14699,note_on,0,0,21,,,,,,,,15,,,50,0
14699,note_on,59,0,6,,,,,,,,1,,,50,0
14699,note_on,59,0,18,,,,,,,,12,,,67,0
14700,note_on,1,0,7,,,,,,,,2,,,74,72
14700,note_on,1,0,8,,,,,,,,3,,,74,72
14700,note_on,1,0,18,,,,,,,,12,,,67,72
14700,note_on,1,0,6,,,,,,,,1,,,50,72
14700,note_on,0,0,21,,,,,,,,15,,,62,72
14700,note_on,1,0,14,,,,,,,,10,,,67,72
14700,note_on,1,0,11,,,,,,,,6,,,38,72
14700,note_on,0,0,21,,,,,,,,15,,,69,72
14700,note_on,0,0,21,,,,,,,,15,,,66,72
14700,note_on,1,0,9,,,,,,,,4,,,62,72
14700,note_on,1,0,21,,,,,,,,15,,,50,72
14744,note_on,44,0,8,,,,,,,,3,,,74,0
14744,note_on,44,0,7,,,,,,,,2,,,74,0
14745,note_on,1,0,8,,,,,,,,3,,,79,72
14745,note_on,1,0,7,,,,,,,,2,,,79,72
14759,note_on,0,0,21,,,,,,,,15,,,69,0
14759,note_on,59,0,14,,,,,,,,10,,,67,0
14759,note_on,59,0,9,,,,,,,,4,,,62,0
14759,note_on,59,0,21,,,,,,,,15,,,62,0
14759,note_on,14,0,7,,,,,,,,2,,,79,0
14759,note_on,59,0,11,,,,,,,,6,,,38,0
14759,note_on,0,0,21,,,,,,,,15,,,50,0
14759,note_on,59,0,18,,,,,,,,12,,,67,0
14759,note_on,119,0,5,,,,,,,,0,,,70,0
14759,note_on,14,0,8,,,,,,,,3,,,79,0
14759,note_on,119,0,17,,,,,,,,11,,,70,0
14759,note_on,59,0,6,,,,,,,,1,,,50,0
14759,note_on,0,0,21,,,,,,,,15,,,66,0
14760,note_on,1,0,5,,,,,,,,0,,,69,72
14760,note_on,1,0,9,,,,,,,,4,,,62,72
14760,note_on,1,0,17,,,,,,,,11,,,69,72
14760,note_on,1,0,7,,,,,,,,2,,,62,72
14760,note_on,1,0,11,,,,,,,,6,,,38,72
14760,note_on,1,0,6,,,,,,,,1,,,50,72
14760,note_on,1,0,18,,,,,,,,12,,,65,72
14760,note_on,1,0,21,,,,,,,,15,,,50,72
14760,note_on,0,0,21,,,,,,,,15,,,66,72
14760,note_on,1,0,8,,,,,,,,3,,,62,72
14760,note_on,0,0,21,,,,,,,,15,,,62,72
14760,note_on,1,0,14,,,,,,,,10,,,65,72
14760,note_on,0,0,21,,,,,,,,15,,,69,72
14804,note_on,44,0,8,,,,,,,,3,,,62,0
14804,note_on,44,0,7,,,,,,,,2,,,62,0
14805,note_on,1,0,8,,,,,,,,3,,,69,72
14805,note_on,1,0,7,,,,,,,,2,,,69,72
14819,note_on,14,0,7,,,,,,,,2,,,69,0
14819,note_on,179,0,20,,,,,,,,14,,,50,0
14819,note_on,0,0,21,,,,,,,,15,,,50,0
14819,note_on,59,0,21,,,,,,,,15,,,62,0
14819,note_on,59,0,11,,,,,,,,6,,,38,0
14819,note_on,179,0,15,,,,,,,,10,,,62,0
14819,note_on,0,0,21,,,,,,,,15,,,69,0
14819,note_on,0,0,21,,,,,,,,15,,,66,0
14819,note_on,14,0,8,,,,,,,,3,,,69,0
14819,note_on,179,0,19,,,,,,,,13,,,62,0
14819,note_on,59,0,6,,,,,,,,1,,,50,0
14819,note_on,59,0,9,,,,,,,,4,,,62,0
14819,note_on,179,0,16,,,,,,,,10,,,50,0
14820,note_on,1,0,9,,,,,,,,4,,,62,72
14820,note_on,1,0,8,,,,,,,,3,,,72,72
14820,note_on,0,0,21,,,,,,,,15,,,62,72
14820,note_on,1,0,21,,,,,,,,15,,,50,72
14820,note_on,0,0,21,,,,,,,,15,,,69,72
14820,note_on,1,0,11,,,,,,,,6,,,38,72
14820,note_on,1,0,20,,,,,,,,14,,,50,72
14820,note_on,0,0,21,,,,,,,,15,,,66,72
14820,note_on,1,0,7,,,,,,,,2,,,72,72
14820,note_on,1,0,19,,,,,,,,13,,,60,72
14820,note_on,1,0,6,,,,,,,,1,,,50,72
14820,note_on,1,0,16,,,,,,,,10,,,50,72
14820,note_on,1,0,15,,,,,,,,10,,,60,72
14849,note_on,89,0,18,,,,,,,,12,,,65,0
14849,note_on,89,0,14,,,,,,,,10,,,65,0
14849,note_on,89,0,17,,,,,,,,11,,,69,0
14850,note_on,1,0,18,,,,,,,,12,,,65,72
14850,note_on,1,0,14,,,,,,,,10,,,65,72
14850,note_on,1,0,17,,,,,,,,11,,,69,72
14864,note_on,44,0,8,,,,,,,,3,,,72,0
14864,note_on,44,0,7,,,,,,,,2,,,72,0
14865,note_on,1,0,8,,,,,,,,3,,,78,72
14865,note_on,1,0,7,,,,,,,,2,,,78,72
14879,note_on,59,0,11,,,,,,,,6,,,38,0
14879,note_on,59,0,16,,,,,,,,10,,,50,0
14879,note_on,59,0,6,,,,,,,,1,,,50,0
14879,note_on,59,0,19,,,,,,,,13,,,60,0
14879,note_on,14,0,7,,,,,,,,2,,,78,0
14879,note_on,29,0,17,,,,,,,,11,,,69,0
14879,note_on,59,0,15,,,,,,,,10,,,60,0
14879,note_on,0,0,21,,,,,,,,15,,,69,0
14879,note_on,119,0,5,,,,,,,,0,,,69,0
14879,note_on,0,0,21,,,,,,,,15,,,66,0
14879,note_on,0,0,21,,,,,,,,15,,,50,0
14879,note_on,29,0,18,,,,,,,,12,,,65,0
14879,note_on,59,0,21,,,,,,,,15,,,62,0
14879,note_on,14,0,8,,,,,,,,3,,,78,0
14879,note_on,29,0,14,,,,,,,,10,,,65,0
14879,note_on,59,0,20,,,,,,,,14,,,50,0
14879,note_on,59,0,9,,,,,,,,4,,,62,0
14880,note_on,1,0,21,,,,,,,,15,,,43,72
14880,note_on,0,0,21,,,,,,,,15,,,58,72
14880,note_on,0,0,21,,,,,,,,15,,,62,72
14880,note_on,0,0,21,,,,,,,,15,,,67,72
14880,note_on,1,0,6,,,,,,,,1,,,43,72
14880,note_on,1,0,9,,,,,,,,4,,,55,72
14880,note_on,1,0,7,,,,,,,,2,,,79,72
14880,note_on,1,0,14,,,,,,,,10,,,67,72
14880,note_on,1,0,19,,,,,,,,13,,,58,72
14880,note_on,1,0,5,,,,,,,,0,,,67,72
14880,note_on,1,0,17,,,,,,,,11,,,67,72
14880,note_on,1,0,20,,,,,,,,14,,,50,72
14880,note_on,1,0,18,,,,,,,,12,,,67,72
14880,note_on,1,0,16,,,,,,,,10,,,50,72
14880,note_on,1,0,11,,,,,,,,6,,,31,72
14880,note_on,1,0,8,,,,,,,,3,,,79,72
14880,note_on,1,0,15,,,,,,,,10,,,58,72
14939,note_on,59,0,7,,,,,,,,2,,,79,0
14939,note_on,59,0,21,,,,,,,,15,,,67,0
14939,note_on,59,0,9,,,,,,,,4,,,55,0
14939,note_on,0,0,21,,,,,,,,15,,,62,0
14939,note_on,0,0,21,,,,,,,,15,,,58,0
14939,note_on,0,0,21,,,,,,,,15,,,43,0
14939,note_on,59,0,8,,,,,,,,3,,,79,0
14939,note_on,59,0,11,,,,,,,,6,,,31,0
14940,note_on,1,0,8,,,,,,,,3,,,58,48
14940,note_on,1,0,7,,,,,,,,2,,,67,48
14940,note_on,1,0,9,,,,,,,,4,,,55,48
14999,note_on,119,0,14,,,,,,,,10,,,67,0
14999,note_on,119,0,18,,,,,,,,12,,,67,0
14999,note_on,119,0,5,,,,,,,,0,,,67,0
14999,note_on,119,0,20,,,,,,,,14,,,50,0
14999,note_on,119,0,19,,,,,,,,13,,,58,0
14999,note_on,119,0,16,,,,,,,,10,,,50,0
14999,note_on,59,0,9,,,,,,,,4,,,55,0
14999,note_on,119,0,6,,,,,,,,1,,,43,0
14999,note_on,119,0,15,,,,,,,,10,,,58,0
14999,note_on,59,0,7,,,,,,,,2,,,67,0
14999,note_on,119,0,17,,,,,,,,11,,,67,0
14999,note_on,59,0,8,,,,,,,,3,,,58,0
15000,note_on,1,0,5,,,,,,,,0,,,67,48
15000,note_on,61,0,11,,,,,,,,6,,,46,48
15059,note_on,59,0,11,,,,,,,,6,,,46,0
15060,note_on,61,0,7,,,,,,,,2,,,67,48
15060,note_on,61,0,9,,,,,,,,4,,,58,48
15060,note_on,61,0,8,,,,,,,,3,,,62,48
15119,note_on,59,0,9,,,,,,,,4,,,58,0
15119,note_on,59,0,8,,,,,,,,3,,,62,0
15119,note_on,59,0,7,,,,,,,,2,,,67,0
15120,note_on,61,0,11,,,,,,,,6,,,45,48
15120,note_on,121,0,6,,,,,,,,1,,,63,48
15120,note_on,120,0,5,,,,,,,,0,,,72,48
15179,note_on,59,0,11,,,,,,,,6,,,45,0
15180,note_on,61,0,8,,,,,,,,3,,,60,48
15180,note_on,61,0,9,,,,,,,,4,,,57,48
15180,note_on,61,0,7,,,,,,,,2,,,67,48
15239,note_on,59,0,9,,,,,,,,4,,,57,0
15239,note_on,119,0,6,,,,,,,,1,,,63,0
15239,note_on,59,0,7,,,,,,,,2,,,67,0
15239,note_on,119,0,5,,,,,,,,0,,,67,0
15239,note_on,59,0,8,,,,,,,,3,,,60,0
15240,note_on,1,0,5,,,,,,,,0,,,66,48
15240,note_on,1,0,6,,,,,,,,1,,,62,48
15240,note_on,61,0,11,,,,,,,,6,,,38,48
15299,note_on,59,0,11,,,,,,,,6,,,38,0
15300,note_on,61,0,7,,,,,,,,2,,,66,48
15300,note_on,61,0,9,,,,,,,,4,,,57,48
15300,note_on,61,0,8,,,,,,,,3,,,60,48
15359,note_on,59,0,8,,,,,,,,3,,,60,0
15359,note_on,119,0,5,,,,,,,,0,,,66,0
15359,note_on,59,0,9,,,,,,,,4,,,57,0
15359,note_on,59,0,7,,,,,,,,2,,,66,0
15360,note_on,61,0,11,,,,,,,,6,,,43,48
15360,note_on,1,0,9,,,,,,,,4,,,55,48
15360,note_on,1,0,7,,,,,,,,2,,,74,48
15419,note_on,59,0,11,,,,,,,,6,,,43,0
15419,note_on,60,0,5,,,,,,,,0,,,72,0
15420,note_on,1,0,5,,,,,,,,0,,,70,48
15479,note_on,119,0,9,,,,,,,,4,,,55,0
15479,note_on,59,0,5,,,,,,,,0,,,70,0
15480,note_on,121,0,8,,,,,,,,3,,,69,48
15480,note_on,1,0,9,,,,,,,,4,,,54,48
15480,note_on,61,0,11,,,,,,,,6,,,42,48
15480,note_on,240,0,6,,,,,,,,1,,,57,48
15509,note_on,29,0,6,,,,,,,,1,,,62,0
15509,note_on,149,0,7,,,,,,,,2,,,74,0
15510,note_on,1,0,7,,,,,,,,2,,,75,48
15510,note_on,1,0,6,,,,,,,,1,,,63,48
15539,note_on,59,0,11,,,,,,,,6,,,42,0
15539,note_on,29,0,7,,,,,,,,2,,,75,0
15539,note_on,29,0,6,,,,,,,,1,,,63,0
15540,note_on,1,0,7,,,,,,,,2,,,74,48
15540,note_on,1,0,6,,,,,,,,1,,,62,48
15569,note_on,29,0,7,,,,,,,,2,,,74,0
15569,note_on,29,0,6,,,,,,,,1,,,62,0
15570,note_on,1,0,6,,,,,,,,1,,,60,48
15570,note_on,1,0,7,,,,,,,,2,,,72,48
15599,note_on,29,0,6,,,,,,,,1,,,60,0
15599,note_on,29,0,7,,,,,,,,2,,,72,0
15599,note_on,119,0,9,,,,,,,,4,,,54,0
15600,note_on,1,0,9,,,,,,,,4,,,55,48
15600,note_on,1,0,7,,,,,,,,2,,,70,48
15600,note_on,61,0,11,,,,,,,,6,,,43,48
15600,note_on,1,0,6,,,,,,,,1,,,58,48
15629,note_on,29,0,7,,,,,,,,2,,,70,0
15629,note_on,29,0,6,,,,,,,,1,,,58,0
15630,note_on,1,0,7,,,,,,,,2,,,74,48
15630,note_on,1,0,6,,,,,,,,1,,,62,48
15659,note_on,59,0,9,,,,,,,,4,,,55,0
15659,note_on,0,0,6,,,,,,,,1,,,57,0
15659,note_on,29,0,6,,,,,,,,1,,,62,0
15659,note_on,59,0,11,,,,,,,,6,,,43,0
15659,note_on,179,0,8,,,,,,,,3,,,69,0
15659,note_on,29,0,7,,,,,,,,2,,,74,0
15660,note_on,1,0,8,,,,,,,,3,,,67,48
15660,note_on,1,0,7,,,,,,,,2,,,72,48
15660,note_on,1,0,6,,,,,,,,1,,,55,48
15660,note_on,0,0,6,,,,,,,,1,,,60,48
15660,note_on,1,0,11,,,,,,,,6,,,39,48
15660,note_on,1,0,9,,,,,,,,4,,,51,48
15689,note_on,29,0,7,,,,,,,,2,,,72,0
15689,note_on,29,0,6,,,,,,,,1,,,60,0
15690,note_on,1,0,7,,,,,,,,2,,,70,48
15690,note_on,1,0,6,,,,,,,,1,,,58,48
15719,note_on,59,0,9,,,,,,,,4,,,51,0
15719,note_on,59,0,11,,,,,,,,6,,,39,0
15719,note_on,29,0,6,,,,,,,,1,,,58,0
15719,note_on,29,0,7,,,,,,,,2,,,70,0
15720,note_on,1,0,6,,,,,,,,1,,,57,48
15720,note_on,1,0,11,,,,,,,,6,,,36,48
15720,note_on,1,0,9,,,,,,,,4,,,48,48
15720,note_on,1,0,7,,,,,,,,2,,,69,48
15749,note_on,29,0,6,,,,,,,,1,,,57,0
15749,note_on,29,0,7,,,,,,,,2,,,69,0
15750,note_on,1,0,7,,,,,,,,2,,,72,48
15750,note_on,1,0,6,,,,,,,,1,,,60,48
15779,note_on,0,0,6,,,,,,,,1,,,55,0
15779,note_on,29,0,6,,,,,,,,1,,,60,0
15779,note_on,59,0,11,,,,,,,,6,,,36,0
15779,note_on,119,0,8,,,,,,,,3,,,67,0
15779,note_on,59,0,9,,,,,,,,4,,,48,0
15779,note_on,29,0,7,,,,,,,,2,,,72,0
15780,note_on,0,0,6,,,,,,,,1,,,54,48
15780,note_on,1,0,6,,,,,,,,1,,,58,48
15780,note_on,1,0,7,,,,,,,,2,,,70,48
15780,note_on,1,0,11,,,,,,,,6,,,38,48
15780,note_on,1,0,8,,,,,,,,3,,,66,48
15780,note_on,1,0,9,,,,,,,,4,,,50,48
15809,note_on,29,0,7,,,,,,,,2,,,70,0
15809,note_on,29,0,6,,,,,,,,1,,,58,0
15810,note_on,1,0,6,,,,,,,,1,,,57,48
15810,note_on,1,0,7,,,,,,,,2,,,69,48
15839,note_on,59,0,11,,,,,,,,6,,,38,0
15839,note_on,59,0,8,,,,,,,,3,,,66,0
15839,note_on,59,0,9,,,,,,,,4,,,50,0
15839,note_on,29,0,6,,,,,,,,1,,,57,0
15839,note_on,0,0,6,,,,,,,,1,,,54,0
15839,note_on,29,0,7,,,,,,,,2,,,69,0
15840,note_on,1,0,11,,,,,,,,6,,,31,48
15840,note_on,1,0,7,,,,,,,,2,,,67,48
15840,note_on,1,0,9,,,,,,,,4,,,55,48
15840,note_on,1,0,8,,,,,,,,3,,,67,48
15840,note_on,1,0,6,,,,,,,,1,,,55,48
15869,note_on,29,0,7,,,,,,,,2,,,67,0
15869,note_on,29,0,8,,,,,,,,3,,,67,0
15870,note_on,1,0,8,,,,,,,,3,,,70,72
15870,note_on,1,0,7,,,,,,,,2,,,70,72
15899,note_on,59,0,6,,,,,,,,1,,,55,0
15899,note_on,59,0,9,,,,,,,,4,,,55,0
15899,note_on,59,0,11,,,,,,,,6,,,31,0
15929,note_on,59,0,7,,,,,,,,2,,,70,0
15929,note_on,59,0,8,,,,,,,,3,,,70,0
15930,note_on,1,0,8,,,,,,,,3,,,82,72
15930,note_on,1,0,7,,,,,,,,2,,,82,72
15959,note_on,29,0,7,,,,,,,,2,,,82,0
15959,note_on,29,0,8,,,,,,,,3,,,82,0
15960,note_on,61,0,9,,,,,,,,4,,,58,72
15960,note_on,0,0,21,,,,,,,,15,,,70,72
15960,note_on,0,0,21,,,,,,,,15,,,62,72
15960,note_on,0,0,21,,,,,,,,15,,,67,72
15960,note_on,1021,0,21,,,,,,,,15,,,58,72
15960,note_on,961,0,20,,,,,,,,14,,,50,72
15960,note_on,61,0,11,,,,,,,,6,,,46,72
15960,note_on,961,0,16,,,,,,,,10,,,50,72
15960,note_on,61,0,6,,,,,,,,1,,,50,72
15990,note_on,31,0,7,,,,,,,,2,,,67,72
15990,note_on,31,0,8,,,,,,,,3,,,67,72
16019,note_on,0,0,21,,,,,,,,15,,,67,0
16019,note_on,59,0,21,,,,,,,,15,,,70,0
16019,note_on,59,0,11,,,,,,,,6,,,46,0
16019,note_on,0,0,21,,,,,,,,15,,,62,0
16019,note_on,0,0,21,,,,,,,,15,,,58,0
16019,note_on,59,0,9,,,,,,,,4,,,58,0
16049,note_on,59,0,8,,,,,,,,3,,,67,0
16049,note_on,59,0,7,,,,,,,,2,,,67,0
16050,note_on,1,0,8,,,,,,,,3,,,79,72
16050,note_on,1,0,7,,,,,,,,2,,,79,72
16079,note_on,29,0,8,,,,,,,,3,,,79,0
16079,note_on,29,0,7,,,,,,,,2,,,79,0
16080,note_on,61,0,11,,,,,,,,6,,,45,72
16080,note_on,0,0,21,,,,,,,,15,,,69,72
16080,note_on,61,0,9,,,,,,,,4,,,57,72
16080,note_on,0,0,21,,,,,,,,15,,,64,72
16080,note_on,0,0,21,,,,,,,,15,,,62,72
16080,note_on,61,0,21,,,,,,,,15,,,57,72
16110,note_on,31,0,7,,,,,,,,2,,,64,72
16110,note_on,31,0,8,,,,,,,,3,,,64,72
16139,note_on,179,0,20,,,,,,,,14,,,50,0
16139,note_on,0,0,21,,,,,,,,15,,,64,0
16139,note_on,0,0,21,,,,,,,,15,,,62,0
16139,note_on,59,0,11,,,,,,,,6,,,45,0
16139,note_on,59,0,21,,,,,,,,15,,,69,0
16139,note_on,179,0,16,,,,,,,,10,,,50,0
16139,note_on,59,0,9,,,,,,,,4,,,57,0
16139,note_on,0,0,21,,,,,,,,15,,,57,0
16140,note_on,1,0,16,,,,,,,,10,,,50,72
16140,note_on,661,0,5,,,,,,,,0,,,69,72
16140,note_on,1141,0,18,,,,,,,,12,,,69,72
16140,note_on,1141,0,14,,,,,,,,10,,,69,72
16140,note_on,1,0,20,,,,,,,,14,,,50,72
16169,note_on,59,0,8,,,,,,,,3,,,64,0
16169,note_on,59,0,7,,,,,,,,2,,,64,0
16170,note_on,1,0,7,,,,,,,,2,,,76,72
16170,note_on,1,0,8,,,,,,,,3,,,76,72
16199,note_on,29,0,8,,,,,,,,3,,,76,0
16199,note_on,29,0,7,,,,,,,,2,,,76,0
16199,note_on,239,0,6,,,,,,,,1,,,50,0
16199,note_on,59,0,16,,,,,,,,10,,,50,0
16199,note_on,59,0,20,,,,,,,,14,,,50,0
16200,note_on,61,0,11,,,,,,,,6,,,33,72
16200,note_on,61,0,9,,,,,,,,4,,,57,72
16200,note_on,1,0,6,,,,,,,,1,,,49,72
16200,note_on,0,0,21,,,,,,,,15,,,64,72
16200,note_on,61,0,21,,,,,,,,15,,,45,72
16200,note_on,1,0,20,,,,,,,,14,,,49,72
16200,note_on,1,0,16,,,,,,,,10,,,49,72
16200,note_on,0,0,21,,,,,,,,15,,,69,72
16200,note_on,0,0,21,,,,,,,,15,,,61,72
16229,note_on,89,0,14,,,,,,,,10,,,69,0
16229,note_on,89,0,5,,,,,,,,0,,,69,0
16229,note_on,89,0,18,,,,,,,,12,,,69,0
16230,note_on,1,0,18,,,,,,,,12,,,70,72
16230,note_on,31,0,8,,,,,,,,3,,,69,72
16230,note_on,1,0,5,,,,,,,,0,,,70,72
16230,note_on,1,0,14,,,,,,,,10,,,70,72
16230,note_on,31,0,7,,,,,,,,2,,,69,72
16259,note_on,29,0,18,,,,,,,,12,,,70,0
16259,note_on,59,0,9,,,,,,,,4,,,57,0
16259,note_on,0,0,21,,,,,,,,15,,,64,0
16259,note_on,0,0,21,,,,,,,,15,,,61,0
16259,note_on,0,0,21,,,,,,,,15,,,45,0
16259,note_on,59,0,21,,,,,,,,15,,,69,0
16259,note_on,29,0,14,,,,,,,,10,,,70,0
16259,note_on,29,0,5,,,,,,,,0,,,70,0
16259,note_on,59,0,11,,,,,,,,6,,,33,0
16259,note_on,59,0,16,,,,,,,,10,,,49,0
16259,note_on,59,0,20,,,,,,,,14,,,49,0
16260,note_on,1,0,16,,,,,,,,10,,,49,72
16260,note_on,1,0,14,,,,,,,,10,,,69,72
16260,note_on,1,0,20,,,,,,,,14,,,49,72
16260,note_on,1,0,5,,,,,,,,0,,,69,72
16260,note_on,1,0,18,,,,,,,,12,,,69,72
16289,note_on,59,0,7,,,,,,,,2,,,69,0
16289,note_on,29,0,5,,,,,,,,0,,,69,0
16289,note_on,59,0,8,,,,,,,,3,,,69,0
16289,note_on,29,0,18,,,,,,,,12,,,69,0
16289,note_on,29,0,14,,,,,,,,10,,,69,0
16290,note_on,1,0,8,,,,,,,,3,,,81,72
16290,note_on,1,0,18,,,,,,,,12,,,67,72
16290,note_on,1,0,7,,,,,,,,2,,,81,72
16290,note_on,1,0,5,,,,,,,,0,,,67,72
16290,note_on,1,0,14,,,,,,,,10,,,67,72
16319,note_on,59,0,20,,,,,,,,14,,,49,0
16319,note_on,59,0,16,,,,,,,,10,,,49,0
16319,note_on,29,0,5,,,,,,,,0,,,67,0
16319,note_on,29,0,7,,,,,,,,2,,,81,0
16319,note_on,119,0,6,,,,,,,,1,,,49,0
16319,note_on,29,0,8,,,,,,,,3,,,81,0
16319,note_on,29,0,18,,,,,,,,12,,,67,0
16319,note_on,29,0,14,,,,,,,,10,,,67,0
16320,note_on,1,0,14,,,,,,,,10,,,65,72
16320,note_on,0,0,21,,,,,,,,15,,,69,72
16320,note_on,0,0,21,,,,,,,,15,,,62,72
16320,note_on,61,0,9,,,,,,,,4,,,62,72
16320,note_on,0,0,21,,,,,,,,15,,,65,72
16320,note_on,61,0,21,,,,,,,,15,,,50,72
16320,note_on,61,0,11,,,,,,,,6,,,38,72
16320,note_on,1,0,5,,,,,,,,0,,,65,72
16320,note_on,1,0,6,,,,,,,,1,,,50,72
16320,note_on,1,0,18,,,,,,,,12,,,65,72
16320,note_on,1,0,20,,,,,,,,14,,,50,72
16320,note_on,1,0,16,,,,,,,,10,,,50,72
16349,note_on,29,0,18,,,,,,,,12,,,65,0
16349,note_on,29,0,5,,,,,,,,0,,,65,0
16349,note_on,29,0,14,,,,,,,,10,,,65,0
16350,note_on,31,0,7,,,,,,,,2,,,69,72
16350,note_on,31,0,8,,,,,,,,3,,,69,72
16350,note_on,1,0,18,,,,,,,,12,,,69,72
16350,note_on,1,0,5,,,,,,,,0,,,69,72
16350,note_on,1,0,14,,,,,,,,10,,,69,72
16379,note_on,59,0,11,,,,,,,,6,,,38,0
16379,note_on,29,0,18,,,,,,,,12,,,69,0
16379,note_on,59,0,9,,,,,,,,4,,,62,0
16379,note_on,29,0,14,,,,,,,,10,,,69,0
16379,note_on,59,0,21,,,,,,,,15,,,62,0
16379,note_on,0,0,21,,,,,,,,15,,,50,0
16379,note_on,29,0,5,,,,,,,,0,,,69,0
16379,note_on,0,0,21,,,,,,,,15,,,65,0
16379,note_on,0,0,21,,,,,,,,15,,,69,0
16380,note_on,1,0,14,,,,,,,,10,,,67,72
16380,note_on,1,0,18,,,,,,,,12,,,67,72
16380,note_on,1,0,5,,,,,,,,0,,,67,72
16409,note_on,59,0,8,,,,,,,,3,,,69,0
16409,note_on,29,0,5,,,,,,,,0,,,67,0
16409,note_on,59,0,7,,,,,,,,2,,,69,0
16409,note_on,29,0,18,,,,,,,,12,,,67,0
16409,note_on,29,0,14,,,,,,,,10,,,67,0
16410,note_on,1,0,5,,,,,,,,0,,,65,72
16410,note_on,1,0,18,,,,,,,,12,,,65,72
16410,note_on,1,0,8,,,,,,,,3,,,81,72
16410,note_on,1,0,7,,,,,,,,2,,,81,72
16410,note_on,1,0,14,,,,,,,,10,,,65,72
16439,note_on,29,0,8,,,,,,,,3,,,81,0
16439,note_on,29,0,14,,,,,,,,10,,,65,0
16439,note_on,29,0,18,,,,,,,,12,,,65,0
16439,note_on,119,0,20,,,,,,,,14,,,50,0
16439,note_on,29,0,7,,,,,,,,2,,,81,0
16439,note_on,119,0,16,,,,,,,,10,,,50,0
16439,note_on,119,0,6,,,,,,,,1,,,50,0
16439,note_on,29,0,5,,,,,,,,0,,,65,0
16440,note_on,1,0,14,,,,,,,,10,,,64,72
16440,note_on,61,0,11,,,,,,,,6,,,40,72
16440,note_on,0,0,21,,,,,,,,15,,,64,72
16440,note_on,1,0,18,,,,,,,,12,,,64,72
16440,note_on,61,0,9,,,,,,,,4,,,64,72
16440,note_on,0,0,21,,,,,,,,15,,,67,72
16440,note_on,0,0,21,,,,,,,,15,,,52,72
16440,note_on,1,0,20,,,,,,,,14,,,52,72
16440,note_on,1,0,16,,,,,,,,10,,,52,72
16440,note_on,1,0,6,,,,,,,,1,,,52,72
16440,note_on,61,0,21,,,,,,,,15,,,73,72
16440,note_on,1,0,5,,,,,,,,0,,,64,72
16469,note_on,29,0,14,,,,,,,,10,,,64,0
16469,note_on,29,0,5,,,,,,,,0,,,64,0
16469,note_on,29,0,18,,,,,,,,12,,,64,0
16470,note_on,1,0,18,,,,,,,,12,,,67,72
16470,note_on,31,0,8,,,,,,,,3,,,73,72
16470,note_on,1,0,14,,,,,,,,10,,,67,72
16470,note_on,31,0,7,,,,,,,,2,,,73,72
16470,note_on,1,0,5,,,,,,,,0,,,67,72
16499,note_on,29,0,5,,,,,,,,0,,,67,0
16499,note_on,29,0,18,,,,,,,,12,,,67,0
16499,note_on,59,0,21,,,,,,,,15,,,64,0
16499,note_on,0,0,21,,,,,,,,15,,,73,0
16499,note_on,29,0,14,,,,,,,,10,,,67,0
16499,note_on,59,0,9,,,,,,,,4,,,64,0
16499,note_on,0,0,21,,,,,,,,15,,,67,0
16499,note_on,0,0,21,,,,,,,,15,,,52,0
16499,note_on,59,0,11,,,,,,,,6,,,40,0
16500,note_on,1,0,5,,,,,,,,0,,,65,72
16500,note_on,1,0,18,,,,,,,,12,,,65,72
16500,note_on,1,0,14,,,,,,,,10,,,65,72
16529,note_on,29,0,14,,,,,,,,10,,,65,0
16529,note_on,59,0,7,,,,,,,,2,,,73,0
16529,note_on,29,0,18,,,,,,,,12,,,65,0
16529,note_on,59,0,8,,,,,,,,3,,,73,0
16529,note_on,29,0,5,,,,,,,,0,,,65,0
16530,note_on,1,0,7,,,,,,,,2,,,85,72
16530,note_on,1,0,14,,,,,,,,10,,,64,72
16530,note_on,1,0,18,,,,,,,,12,,,64,72
16530,note_on,1,0,5,,,,,,,,0,,,64,72
16530,note_on,1,0,8,,,,,,,,3,,,85,72
16559,note_on,29,0,5,,,,,,,,0,,,64,0
16559,note_on,119,0,6,,,,,,,,1,,,52,0
16559,note_on,29,0,8,,,,,,,,3,,,85,0
16559,note_on,29,0,7,,,,,,,,2,,,85,0
16559,note_on,119,0,16,,,,,,,,10,,,52,0
16559,note_on,119,0,20,,,,,,,,14,,,52,0
16559,note_on,29,0,18,,,,,,,,12,,,64,0
16559,note_on,29,0,14,,,,,,,,10,,,64,0
16560,note_on,1,0,20,,,,,,,,14,,,53,72
16560,note_on,1,0,16,,,,,,,,10,,,53,72
16560,note_on,61,0,9,,,,,,,,4,,,65,72
16560,note_on,0,0,21,,,,,,,,15,,,65,72
16560,note_on,0,0,21,,,,,,,,15,,,74,72
16560,note_on,0,0,21,,,,,,,,15,,,69,72
16560,note_on,61,0,21,,,,,,,,15,,,53,72
16560,note_on,1,0,14,,,,,,,,10,,,62,72
16560,note_on,61,0,11,,,,,,,,6,,,41,72
16560,note_on,1,0,6,,,,,,,,1,,,53,72
16560,note_on,1,0,5,,,,,,,,0,,,62,72
16560,note_on,1,0,18,,,,,,,,12,,,62,72
16589,note_on,29,0,5,,,,,,,,0,,,62,0
16589,note_on,29,0,14,,,,,,,,10,,,62,0
16589,note_on,29,0,18,,,,,,,,12,,,62,0
16590,note_on,1,0,5,,,,,,,,0,,,61,72
16590,note_on,31,0,7,,,,,,,,2,,,74,72
16590,note_on,1,0,14,,,,,,,,10,,,61,72
16590,note_on,31,0,8,,,,,,,,3,,,74,72
16590,note_on,1,0,18,,,,,,,,12,,,61,72
16619,note_on,29,0,5,,,,,,,,0,,,61,0
16619,note_on,59,0,9,,,,,,,,4,,,65,0
16619,note_on,0,0,21,,,,,,,,15,,,74,0
16619,note_on,0,0,21,,,,,,,,15,,,53,0
16619,note_on,59,0,21,,,,,,,,15,,,65,0
16619,note_on,0,0,21,,,,,,,,15,,,69,0
16619,note_on,59,0,11,,,,,,,,6,,,41,0
16619,note_on,29,0,14,,,,,,,,10,,,61,0
16619,note_on,29,0,18,,,,,,,,12,,,61,0
16620,note_on,1,0,14,,,,,,,,10,,,62,72
16620,note_on,1,0,5,,,,,,,,0,,,62,72
16620,note_on,1,0,18,,,,,,,,12,,,62,72
16649,note_on,59,0,8,,,,,,,,3,,,74,0
16649,note_on,29,0,14,,,,,,,,10,,,62,0
16649,note_on,59,0,7,,,,,,,,2,,,74,0
16649,note_on,29,0,5,,,,,,,,0,,,62,0
16649,note_on,29,0,18,,,,,,,,12,,,62,0
16650,note_on,1,0,8,,,,,,,,3,,,86,72
16650,note_on,1,0,7,,,,,,,,2,,,86,72
16650,note_on,1,0,5,,,,,,,,0,,,64,72
16650,note_on,1,0,18,,,,,,,,12,,,64,72
16650,note_on,1,0,14,,,,,,,,10,,,64,72
16679,note_on,29,0,8,,,,,,,,3,,,86,0
16679,note_on,29,0,14,,,,,,,,10,,,64,0
16679,note_on,29,0,7,,,,,,,,2,,,86,0
16679,note_on,119,0,16,,,,,,,,10,,,53,0
16679,note_on,119,0,6,,,,,,,,1,,,53,0
16679,note_on,119,0,20,,,,,,,,14,,,53,0
16679,note_on,29,0,18,,,,,,,,12,,,64,0
16679,note_on,29,0,5,,,,,,,,0,,,64,0
16680,note_on,1,0,14,,,,,,,,10,,,65,72
16680,note_on,61,0,9,,,,,,,,4,,,62,72
16680,note_on,61,0,11,,,,,,,,6,,,38,72
16680,note_on,1681,0,15,,,,,,,,10,,,57,72
16680,note_on,1,0,5,,,,,,,,0,,,65,72
16680,note_on,1,0,6,,,,,,,,1,,,50,72
16680,note_on,0,0,6,,,,,,,,1,,,57,72
16680,note_on,1,0,16,,,,,,,,10,,,50,72
16680,note_on,61,0,21,,,,,,,,15,,,50,72
16680,note_on,1,0,18,,,,,,,,12,,,65,72
16680,note_on,0,0,21,,,,,,,,15,,,65,72
16680,note_on,0,0,21,,,,,,,,15,,,69,72
16680,note_on,0,0,21,,,,,,,,15,,,74,72
16680,note_on,1681,0,19,,,,,,,,13,,,57,72
16680,note_on,1,0,20,,,,,,,,14,,,50,72
16709,note_on,29,0,5,,,,,,,,0,,,65,0
16709,note_on,29,0,14,,,,,,,,10,,,65,0
16709,note_on,29,0,18,,,,,,,,12,,,65,0
16710,note_on,1,0,5,,,,,,,,0,,,64,72
16710,note_on,31,0,7,,,,,,,,2,,,65,72
16710,note_on,1,0,14,,,,,,,,10,,,64,72
16710,note_on,1,0,18,,,,,,,,12,,,64,72
16710,note_on,31,0,8,,,,,,,,3,,,65,72
16739,note_on,59,0,9,,,,,,,,4,,,62,0
16739,note_on,0,0,21,,,,,,,,15,,,65,0
16739,note_on,0,0,21,,,,,,,,15,,,50,0
16739,note_on,59,0,21,,,,,,,,15,,,74,0
16739,note_on,29,0,14,,,,,,,,10,,,64,0
16739,note_on,29,0,18,,,,,,,,12,,,64,0
16739,note_on,0,0,21,,,,,,,,15,,,69,0
16739,note_on,29,0,5,,,,,,,,0,,,64,0
16739,note_on,59,0,11,,,,,,,,6,,,38,0
16740,note_on,1,0,5,,,,,,,,0,,,62,72
16740,note_on,1,0,18,,,,,,,,12,,,62,72
16740,note_on,1,0,14,,,,,,,,10,,,62,72
16769,note_on,29,0,5,,,,,,,,0,,,62,0
16769,note_on,59,0,7,,,,,,,,2,,,65,0
16769,note_on,29,0,18,,,,,,,,12,,,62,0
16769,note_on,59,0,8,,,,,,,,3,,,65,0
16769,note_on,29,0,14,,,,,,,,10,,,62,0
16770,note_on,1,0,8,,,,,,,,3,,,77,72
16770,note_on,1,0,5,,,,,,,,0,,,60,72
16770,note_on,1,0,7,,,,,,,,2,,,77,72
16770,note_on,1,0,18,,,,,,,,12,,,60,72
16770,note_on,1,0,14,,,,,,,,10,,,60,72
16799,note_on,29,0,14,,,,,,,,10,,,60,0
16799,note_on,29,0,8,,,,,,,,3,,,77,0
16799,note_on,29,0,18,,,,,,,,12,,,60,0
16799,note_on,119,0,6,,,,,,,,1,,,50,0
16799,note_on,29,0,5,,,,,,,,0,,,60,0
16799,note_on,119,0,20,,,,,,,,14,,,50,0
16799,note_on,119,0,16,,,,,,,,10,,,50,0
16799,note_on,29,0,7,,,,,,,,2,,,77,0
16800,note_on,0,0,21,,,,,,,,15,,,59,72
16800,note_on,1,0,5,,,,,,,,0,,,59,72
16800,note_on,1,0,6,,,,,,,,1,,,52,72
16800,note_on,1,0,20,,,,,,,,14,,,52,72
16800,note_on,1,0,18,,,,,,,,12,,,59,72
16800,note_on,1,0,14,,,,,,,,10,,,59,72
16800,note_on,0,0,21,,,,,,,,15,,,69,72
16800,note_on,61,0,21,,,,,,,,15,,,52,72
16800,note_on,0,0,21,,,,,,,,15,,,64,72
16800,note_on,1,0,16,,,,,,,,10,,,52,72
16800,note_on,61,0,11,,,,,,,,6,,,40,72
16800,note_on,61,0,9,,,,,,,,4,,,52,72
16830,note_on,31,0,8,,,,,,,,3,,,64,72
16830,note_on,31,0,7,,,,,,,,2,,,64,72
16859,note_on,179,0,19,,,,,,,,13,,,57,0
16859,note_on,59,0,11,,,,,,,,6,,,40,0
16859,note_on,59,0,9,,,,,,,,4,,,52,0
16859,note_on,0,0,21,,,,,,,,15,,,52,0
16859,note_on,179,0,15,,,,,,,,10,,,57,0
16859,note_on,0,0,21,,,,,,,,15,,,59,0
16859,note_on,59,0,21,,,,,,,,15,,,64,0
16859,note_on,0,0,21,,,,,,,,15,,,69,0
16860,note_on,60,0,5,,,,,,,,0,,,76,72
16860,note_on,1,0,15,,,,,,,,10,,,57,72
16860,note_on,1861,0,17,,,,,,,,11,,,76,72
16860,note_on,1,0,19,,,,,,,,13,,,57,72
16889,note_on,89,0,18,,,,,,,,12,,,59,0
16889,note_on,59,0,7,,,,,,,,2,,,64,0
16889,note_on,89,0,14,,,,,,,,10,,,59,0
16889,note_on,59,0,8,,,,,,,,3,,,64,0
16890,note_on,1,0,8,,,,,,,,3,,,76,72
16890,note_on,1,0,7,,,,,,,,2,,,76,72
16890,note_on,1,0,14,,,,,,,,10,,,59,72
16890,note_on,1,0,18,,,,,,,,12,,,59,72
16919,note_on,59,0,19,,,,,,,,13,,,57,0
16919,note_on,119,0,6,,,,,,,,1,,,52,0
16919,note_on,0,0,6,,,,,,,,1,,,57,0
16919,note_on,59,0,15,,,,,,,,10,,,57,0
16919,note_on,29,0,7,,,,,,,,2,,,76,0
16919,note_on,119,0,16,,,,,,,,10,,,52,0
16919,note_on,119,0,20,,,,,,,,14,,,52,0
16919,note_on,29,0,14,,,,,,,,10,,,59,0
16919,note_on,29,0,8,,,,,,,,3,,,76,0
16919,note_on,29,0,18,,,,,,,,12,,,59,0
16920,note_on,61,0,9,,,,,,,,4,,,52,72
16920,note_on,1,0,6,,,,,,,,1,,,56,72
16920,note_on,61,0,11,,,,,,,,6,,,40,72
16920,note_on,1,0,18,,,,,,,,12,,,59,72
16920,note_on,1,0,14,,,,,,,,10,,,59,72
16920,note_on,0,0,21,,,,,,,,15,,,68,72
16920,note_on,1,0,15,,,,,,,,10,,,56,72
16920,note_on,61,0,21,,,,,,,,15,,,52,72
16920,note_on,1,0,19,,,,,,,,13,,,56,72
16920,note_on,0,0,21,,,,,,,,15,,,59,72
16920,note_on,0,0,21,,,,,,,,15,,,64,72
16949,note_on,89,0,5,,,,,,,,0,,,76,0
16949,note_on,89,0,17,,,,,,,,11,,,76,0
16950,note_on,1,0,17,,,,,,,,11,,,77,72
16950,note_on,1,0,5,,,,,,,,0,,,77,72
16950,note_on,31,0,7,,,,,,,,2,,,71,72
16950,note_on,31,0,8,,,,,,,,3,,,71,72
16979,note_on,59,0,15,,,,,,,,10,,,56,0
16979,note_on,59,0,11,,,,,,,,6,,,40,0
16979,note_on,0,0,21,,,,,,,,15,,,52,0
16979,note_on,59,0,19,,,,,,,,13,,,56,0
16979,note_on,59,0,9,,,,,,,,4,,,52,0
16979,note_on,29,0,17,,,,,,,,11,,,77,0
16979,note_on,0,0,21,,,,,,,,15,,,59,0
16979,note_on,59,0,21,,,,,,,,15,,,64,0
16979,note_on,29,0,5,,,,,,,,0,,,77,0
16979,note_on,0,0,21,,,,,,,,15,,,68,0
16980,note_on,1,0,19,,,,,,,,13,,,56,72
16980,note_on,1,0,5,,,,,,,,0,,,76,72
16980,note_on,1,0,15,,,,,,,,10,,,56,72
16980,note_on,1,0,17,,,,,,,,11,,,76,72
17009,note_on,29,0,17,,,,,,,,11,,,76,0
17009,note_on,29,0,5,,,,,,,,0,,,76,0
17009,note_on,59,0,7,,,,,,,,2,,,71,0
17009,note_on,59,0,8,,,,,,,,3,,,71,0
17010,note_on,1,0,5,,,,,,,,0,,,74,72
17010,note_on,1,0,8,,,,,,,,3,,,83,72
17010,note_on,1,0,7,,,,,,,,2,,,83,72
17010,note_on,1,0,17,,,,,,,,11,,,74,72
17039,note_on,119,0,6,,,,,,,,1,,,56,0
17039,note_on,59,0,15,,,,,,,,10,,,56,0
17039,note_on,29,0,7,,,,,,,,2,,,83,0
17039,note_on,0,0,5,,,,,,,,0,,,59,0
17039,note_on,29,0,5,,,,,,,,0,,,74,0
17039,note_on,119,0,18,,,,,,,,12,,,59,0
17039,note_on,29,0,17,,,,,,,,11,,,74,0
17039,note_on,119,0,14,,,,,,,,10,,,59,0
17039,note_on,59,0,19,,,,,,,,13,,,56,0
17039,note_on,29,0,8,,,,,,,,3,,,83,0
17040,note_on,0,0,21,,,,,,,,15,,,64,72
17040,note_on,0,0,21,,,,,,,,15,,,69,72
17040,note_on,1,0,19,,,,,,,,13,,,57,72
17040,note_on,1,0,17,,,,,,,,11,,,72,72
17040,note_on,61,0,9,,,,,,,,4,,,57,72
17040,note_on,4921,0,10,,,,,,,,5,,,57,72
17040,note_on,1,0,6,,,,,,,,1,,,57,72
17040,note_on,0,0,21,,,,,,,,15,,,60,72
17040,note_on,1,0,15,,,,,,,,10,,,57,72
17040,note_on,1,0,5,,,,,,,,0,,,72,72
17040,note_on,61,0,21,,,,,,,,15,,,57,72
17040,note_on,1,0,14,,,,,,,,10,,,60,72
17040,note_on,0,0,5,,,,,,,,0,,,60,72
17040,note_on,1,0,18,,,,,,,,12,,,60,72
17069,note_on,29,0,17,,,,,,,,11,,,72,0
17069,note_on,29,0,5,,,,,,,,0,,,72,0
17070,note_on,1,0,5,,,,,,,,0,,,76,72
17070,note_on,1,0,17,,,,,,,,11,,,76,72
17070,note_on,31,0,7,,,,,,,,2,,,72,72
17070,note_on,31,0,8,,,,,,,,3,,,72,72
17099,note_on,29,0,5,,,,,,,,0,,,76,0
17099,note_on,29,0,17,,,,,,,,11,,,76,0
17100,note_on,1,0,17,,,,,,,,11,,,74,72
17100,note_on,1,0,5,,,,,,,,0,,,74,72
17129,note_on,59,0,7,,,,,,,,2,,,72,0
17129,note_on,59,0,8,,,,,,,,3,,,72,0
17129,note_on,29,0,17,,,,,,,,11,,,74,0
17129,note_on,29,0,5,,,,,,,,0,,,74,0
17130,note_on,1,0,17,,,,,,,,11,,,72,72
17130,note_on,1,0,5,,,,,,,,0,,,72,72
17130,note_on,1,0,8,,,,,,,,3,,,84,72
17130,note_on,1,0,7,,,,,,,,2,,,84,72
17159,note_on,0,0,21,,,,,,,,15,,,64,0
17159,note_on,0,0,21,,,,,,,,15,,,60,0
17159,note_on,29,0,17,,,,,,,,11,,,72,0
17159,note_on,0,0,21,,,,,,,,15,,,57,0
17159,note_on,119,0,21,,,,,,,,15,,,69,0
17159,note_on,119,0,10,,,,,,,,5,,,57,0
17159,note_on,29,0,7,,,,,,,,2,,,84,0
17159,note_on,0,0,5,,,,,,,,0,,,60,0
17159,note_on,29,0,5,,,,,,,,0,,,72,0
17159,note_on,119,0,14,,,,,,,,10,,,60,0
17159,note_on,119,0,9,,,,,,,,4,,,57,0
17159,note_on,29,0,8,,,,,,,,3,,,84,0
17159,note_on,119,0,6,,,,,,,,1,,,57,0
17159,note_on,119,0,19,,,,,,,,13,,,57,0
17159,note_on,119,0,18,,,,,,,,12,,,60,0
17159,note_on,119,0,15,,,,,,,,10,,,57,0
17160,note_on,1,0,15,,,,,,,,10,,,59,72
17160,note_on,0,0,21,,,,,,,,15,,,62,72
17160,note_on,1,0,21,,,,,,,,15,,,59,72
17160,note_on,1,0,14,,,,,,,,10,,,62,72
17160,note_on,0,0,5,,,,,,,,0,,,62,72
17160,note_on,1,0,6,,,,,,,,1,,,59,72
17160,note_on,1,0,18,,,,,,,,12,,,62,72
17160,note_on,1,0,19,,,,,,,,13,,,59,72
17160,note_on,0,0,21,,,,,,,,15,,,68,72
17160,note_on,1,0,17,,,,,,,,11,,,71,72
17160,note_on,1,0,5,,,,,,,,0,,,71,72
17160,note_on,1,0,10,,,,,,,,5,,,59,72
17160,note_on,1,0,9,,,,,,,,4,,,59,72
17189,note_on,29,0,5,,,,,,,,0,,,71,0
17189,note_on,29,0,17,,,,,,,,11,,,71,0
17190,note_on,1,0,5,,,,,,,,0,,,74,72
17190,note_on,31,0,8,,,,,,,,3,,,68,72
17190,note_on,1,0,17,,,,,,,,11,,,74,72
17190,note_on,31,0,7,,,,,,,,2,,,68,72
17219,note_on,29,0,17,,,,,,,,11,,,74,0
17219,note_on,29,0,5,,,,,,,,0,,,74,0
17220,note_on,1,0,17,,,,,,,,11,,,72,72
17220,note_on,1,0,5,,,,,,,,0,,,72,72
17249,note_on,59,0,8,,,,,,,,3,,,68,0
17249,note_on,29,0,17,,,,,,,,11,,,72,0
17249,note_on,29,0,5,,,,,,,,0,,,72,0
17249,note_on,59,0,7,,,,,,,,2,,,68,0
17250,note_on,1,0,7,,,,,,,,2,,,80,72
17250,note_on,1,0,8,,,,,,,,3,,,80,72
17250,note_on,1,0,17,,,,,,,,11,,,71,72
17250,note_on,1,0,5,,,,,,,,0,,,71,72
17279,note_on,119,0,14,,,,,,,,10,,,62,0
17279,note_on,119,0,6,,,,,,,,1,,,59,0
17279,note_on,119,0,18,,,,,,,,12,,,62,0
17279,note_on,0,0,5,,,,,,,,0,,,62,0
17279,note_on,0,0,21,,,,,,,,15,,,62,0
17279,note_on,119,0,19,,,,,,,,13,,,59,0
17279,note_on,119,0,9,,,,,,,,4,,,59,0
17279,note_on,119,0,10,,,,,,,,5,,,59,0
17279,note_on,119,0,15,,,,,,,,10,,,59,0
17279,note_on,29,0,7,,,,,,,,2,,,80,0
17279,note_on,29,0,8,,,,,,,,3,,,80,0
17279,note_on,29,0,17,,,,,,,,11,,,71,0
17279,note_on,0,0,21,,,,,,,,15,,,59,0
17279,note_on,29,0,5,,,,,,,,0,,,71,0
17279,note_on,119,0,21,,,,,,,,15,,,68,0
17280,note_on,1,0,5,,,,,,,,0,,,64,72
17280,note_on,1,0,19,,,,,,,,13,,,60,72
17280,note_on,1,0,6,,,,,,,,1,,,60,72
17280,note_on,1,0,9,,,,,,,,4,,,60,72
17280,note_on,0,0,5,,,,,,,,0,,,69,72
17280,note_on,1,0,10,,,,,,,,5,,,60,72
17280,note_on,1,0,18,,,,,,,,12,,,64,72
17280,note_on,1,0,15,,,,,,,,10,,,60,72
17280,note_on,1,0,14,,,,,,,,10,,,64,72
17280,note_on,0,0,21,,,,,,,,15,,,69,72
17280,note_on,0,0,21,,,,,,,,15,,,64,72
17280,note_on,1,0,8,,,,,,,,3,,,81,72
17280,note_on,1,0,21,,,,,,,,15,,,60,72
17280,note_on,1,0,7,,,,,,,,2,,,81,72
17280,note_on,1,0,17,,,,,,,,11,,,69,72
17309,note_on,29,0,17,,,,,,,,11,,,69,0
17309,note_on,29,0,5,,,,,,,,0,,,69,0
17310,note_on,1,0,5,,,,,,,,0,,,71,72
17310,note_on,1,0,17,,,,,,,,11,,,71,72
17339,note_on,59,0,8,,,,,,,,3,,,81,0
17339,note_on,59,0,21,,,,,,,,15,,,69,0
17339,note_on,59,0,18,,,,,,,,12,,,64,0
17339,note_on,59,0,6,,,,,,,,1,,,60,0
17339,note_on,29,0,5,,,,,,,,0,,,71,0
17339,note_on,59,0,7,,,,,,,,2,,,81,0
17339,note_on,0,0,21,,,,,,,,15,,,60,0
17339,note_on,59,0,14,,,,,,,,10,,,64,0
17339,note_on,0,0,21,,,,,,,,15,,,64,0
17339,note_on,29,0,17,,,,,,,,11,,,71,0
17339,note_on,59,0,10,,,,,,,,5,,,60,0
17340,note_on,361,0,11,,,,,,,,6,,,45,72
17340,note_on,421,0,16,,,,,,,,10,,,57,72
17340,note_on,1,0,14,,,,,,,,10,,,64,72
17340,note_on,1,0,18,,,,,,,,12,,,64,72
17340,note_on,0,0,21,,,,,,,,15,,,69,72
17340,note_on,421,0,20,,,,,,,,14,,,57,72
17340,note_on,0,0,21,,,,,,,,15,,,64,72
17340,note_on,1,0,17,,,,,,,,11,,,72,72
17340,note_on,1,0,5,,,,,,,,0,,,72,72
17340,note_on,1,0,8,,,,,,,,3,,,64,72
17340,note_on,0,0,21,,,,,,,,15,,,60,72
17340,note_on,1,0,21,,,,,,,,15,,,57,72
17340,note_on,1,0,7,,,,,,,,2,,,72,72
17340,note_on,1,0,6,,,,,,,,1,,,57,72
17399,note_on,59,0,6,,,,,,,,1,,,57,0
17399,note_on,0,0,21,,,,,,,,15,,,60,0
17399,note_on,0,0,21,,,,,,,,15,,,64,0
17399,note_on,0,0,21,,,,,,,,15,,,57,0
17399,note_on,59,0,21,,,,,,,,15,,,69,0
17399,note_on,59,0,11,,,,,,,,6,,,45,0
17399,note_on,59,0,8,,,,,,,,3,,,64,0
17399,note_on,59,0,20,,,,,,,,14,,,57,0
17399,note_on,119,0,15,,,,,,,,10,,,60,0
17399,note_on,119,0,9,,,,,,,,4,,,60,0
17399,note_on,59,0,18,,,,,,,,12,,,64,0
17399,note_on,59,0,5,,,,,,,,0,,,64,0
17399,note_on,119,0,19,,,,,,,,13,,,60,0
17399,note_on,59,0,16,,,,,,,,10,,,57,0
17399,note_on,59,0,14,,,,,,,,10,,,64,0
17400,note_on,1,0,11,,,,,,,,6,,,42,72
17400,note_on,0,0,21,,,,,,,,15,,,62,72
17400,note_on,1,0,20,,,,,,,,14,,,54,72
17400,note_on,1,0,8,,,,,,,,3,,,69,72
17400,note_on,1,0,5,,,,,,,,0,,,69,72
17400,note_on,1,0,18,,,,,,,,12,,,69,72
17400,note_on,1,0,6,,,,,,,,1,,,54,72
17400,note_on,1,0,16,,,,,,,,10,,,54,72
17400,note_on,0,0,21,,,,,,,,15,,,69,72
17400,note_on,1,0,9,,,,,,,,4,,,62,72
17400,note_on,1,0,21,,,,,,,,15,,,54,72
17400,note_on,1,0,14,,,,,,,,10,,,69,72
17400,note_on,0,0,21,,,,,,,,15,,,72,72
17429,note_on,89,0,17,,,,,,,,11,,,72,0
17429,note_on,29,0,5,,,,,,,,0,,,72,0
17429,note_on,89,0,7,,,,,,,,2,,,72,0
17430,note_on,1,0,17,,,,,,,,11,,,70,72
17430,note_on,1,0,5,,,,,,,,0,,,70,72
17430,note_on,1,0,7,,,,,,,,2,,,70,72
17459,note_on,0,0,21,,,,,,,,15,,,54,0
17459,note_on,59,0,16,,,,,,,,10,,,54,0
17459,note_on,29,0,5,,,,,,,,0,,,70,0
17459,note_on,0,0,21,,,,,,,,15,,,69,0
17459,note_on,0,0,21,,,,,,,,15,,,72,0
17459,note_on,29,0,17,,,,,,,,11,,,70,0
17459,note_on,29,0,7,,,,,,,,2,,,70,0
17459,note_on,59,0,20,,,,,,,,14,,,54,0
17459,note_on,59,0,6,,,,,,,,1,,,54,0
17459,note_on,59,0,11,,,,,,,,6,,,42,0
17459,note_on,59,0,21,,,,,,,,15,,,62,0
17460,note_on,0,0,21,,,,,,,,15,,,70,72
17460,note_on,0,0,21,,,,,,,,15,,,65,72
17460,note_on,1,0,17,,,,,,,,11,,,72,72
17460,note_on,1,0,16,,,,,,,,10,,,50,72
17460,note_on,0,0,21,,,,,,,,15,,,62,72
17460,note_on,1,0,5,,,,,,,,0,,,72,72
17460,note_on,1,0,11,,,,,,,,6,,,34,72
17460,note_on,1,0,21,,,,,,,,15,,,46,72
17460,note_on,1,0,6,,,,,,,,1,,,50,72
17460,note_on,1,0,20,,,,,,,,14,,,50,72
17460,note_on,1,0,7,,,,,,,,2,,,72,72
17489,note_on,29,0,5,,,,,,,,0,,,72,0
17489,note_on,29,0,17,,,,,,,,11,,,72,0
17489,note_on,29,0,7,,,,,,,,2,,,72,0
17490,note_on,1,0,7,,,,,,,,2,,,74,72
17490,note_on,1,0,17,,,,,,,,11,,,74,72
17490,note_on,1,0,5,,,,,,,,0,,,74,72
17519,note_on,59,0,16,,,,,,,,10,,,50,0
17519,note_on,0,0,21,,,,,,,,15,,,65,0
17519,note_on,0,0,21,,,,,,,,15,,,62,0
17519,note_on,0,0,21,,,,,,,,15,,,46,0
17519,note_on,59,0,21,,,,,,,,15,,,70,0
17519,note_on,29,0,7,,,,,,,,2,,,74,0
17519,note_on,29,0,5,,,,,,,,0,,,74,0
17519,note_on,59,0,6,,,,,,,,1,,,50,0
17519,note_on,29,0,17,,,,,,,,11,,,74,0
17519,note_on,59,0,20,,,,,,,,14,,,50,0
17519,note_on,59,0,11,,,,,,,,6,,,34,0
17520,note_on,1,0,20,,,,,,,,14,,,55,72
17520,note_on,1,0,16,,,,,,,,10,,,55,72
17520,note_on,1,0,11,,,,,,,,6,,,43,72
17520,note_on,0,0,21,,,,,,,,15,,,70,72
17520,note_on,1,0,6,,,,,,,,1,,,55,72
17520,note_on,1,0,21,,,,,,,,15,,,55,72
17520,note_on,1,0,5,,,,,,,,0,,,70,72
17520,note_on,1,0,7,,,,,,,,2,,,70,72
17520,note_on,0,0,21,,,,,,,,15,,,69,72
17520,note_on,1,0,17,,,,,,,,11,,,70,72
17549,note_on,29,0,5,,,,,,,,0,,,69,0
17549,note_on,149,0,14,,,,,,,,10,,,69,0
17549,note_on,149,0,8,,,,,,,,3,,,69,0
17549,note_on,149,0,18,,,,,,,,12,,,69,0
17550,note_on,1,0,18,,,,,,,,12,,,62,72
17550,note_on,1,0,5,,,,,,,,0,,,62,72
17550,note_on,1,0,14,,,,,,,,10,,,62,72
17550,note_on,1,0,8,,,,,,,,3,,,62,72
17579,note_on,29,0,14,,,,,,,,10,,,62,0
17579,note_on,29,0,18,,,,,,,,12,,,62,0
17579,note_on,29,0,8,,,,,,,,3,,,62,0
17579,note_on,29,0,5,,,,,,,,0,,,62,0
17579,note_on,179,0,9,,,,,,,,4,,,62,0
17580,note_on,1,0,5,,,,,,,,0,,,64,72
17580,note_on,1,0,8,,,,,,,,3,,,64,72
17580,note_on,1,0,14,,,,,,,,10,,,64,72
17580,note_on,1,0,18,,,,,,,,12,,,64,72
17580,note_on,1,0,9,,,,,,,,4,,,62,72
17609,note_on,89,0,11,,,,,,,,6,,,43,0
17609,note_on,89,0,6,,,,,,,,1,,,55,0
17609,note_on,29,0,5,,,,,,,,0,,,64,0
17609,note_on,29,0,18,,,,,,,,12,,,64,0
17609,note_on,89,0,21,,,,,,,,15,,,55,0
17609,note_on,29,0,8,,,,,,,,3,,,64,0
17609,note_on,29,0,14,,,,,,,,10,,,64,0
17609,note_on,89,0,20,,,,,,,,14,,,55,0
17609,note_on,89,0,16,,,,,,,,10,,,55,0
17610,note_on,1,0,20,,,,,,,,14,,,57,72
17610,note_on,1,0,18,,,,,,,,12,,,66,72
17610,note_on,1,0,5,,,,,,,,0,,,66,72
17610,note_on,1,0,21,,,,,,,,15,,,57,72
17610,note_on,1,0,11,,,,,,,,6,,,45,72
17610,note_on,1,0,8,,,,,,,,3,,,66,72
17610,note_on,1,0,16,,,,,,,,10,,,57,72
17610,note_on,1,0,14,,,,,,,,10,,,66,72
17610,note_on,1,0,6,,,,,,,,1,,,57,72
17639,note_on,29,0,11,,,,,,,,6,,,45,0
17639,note_on,29,0,8,,,,,,,,3,,,66,0
17639,note_on,0,0,21,,,,,,,,15,,,70,0
17639,note_on,29,0,6,,,,,,,,1,,,57,0
17639,note_on,29,0,16,,,,,,,,10,,,57,0
17639,note_on,29,0,14,,,,,,,,10,,,66,0
17639,note_on,29,0,18,,,,,,,,12,,,66,0
17639,note_on,29,0,20,,,,,,,,14,,,57,0
17639,note_on,0,0,21,,,,,,,,15,,,69,0
17639,note_on,29,0,21,,,,,,,,15,,,57,0
17639,note_on,29,0,5,,,,,,,,0,,,66,0
17640,note_on,0,0,21,,,,,,,,15,,,67,72
17640,note_on,0,0,21,,,,,,,,15,,,70,72
17640,note_on,1,0,5,,,,,,,,0,,,67,72
17640,note_on,1,0,11,,,,,,,,6,,,46,72
17640,note_on,1,0,16,,,,,,,,10,,,58,72
17640,note_on,0,0,21,,,,,,,,15,,,62,72
17640,note_on,1,0,21,,,,,,,,15,,,58,72
17640,note_on,1,0,18,,,,,,,,12,,,67,72
17640,note_on,1,0,8,,,,,,,,3,,,67,72
17640,note_on,1,0,14,,,,,,,,10,,,67,72
17640,note_on,1,0,20,,,,,,,,14,,,58,72
17640,note_on,1,0,6,,,,,,,,1,,,58,72
17669,note_on,149,0,7,,,,,,,,2,,,70,0
17669,note_on,149,0,17,,,,,,,,11,,,70,0
17669,note_on,29,0,5,,,,,,,,0,,,70,0
17670,note_on,1,0,5,,,,,,,,0,,,69,72
17670,note_on,1,0,7,,,,,,,,2,,,69,72
17670,note_on,1,0,17,,,,,,,,11,,,69,72
17699,note_on,29,0,5,,,,,,,,0,,,69,0
17699,note_on,59,0,11,,,,,,,,6,,,46,0
17699,note_on,59,0,21,,,,,,,,15,,,58,0
17699,note_on,29,0,7,,,,,,,,2,,,69,0
17699,note_on,29,0,17,,,,,,,,11,,,69,0
17699,note_on,59,0,6,,,,,,,,1,,,58,0
17699,note_on,119,0,9,,,,,,,,4,,,62,0
17699,note_on,59,0,16,,,,,,,,10,,,58,0
17699,note_on,59,0,20,,,,,,,,14,,,58,0
17700,note_on,1,0,6,,,,,,,,1,,,55,72
17700,note_on,1,0,5,,,,,,,,0,,,70,72
17700,note_on,1,0,11,,,,,,,,6,,,43,72
17700,note_on,1,0,16,,,,,,,,10,,,55,72
17700,note_on,1,0,9,,,,,,,,4,,,62,72
17700,note_on,1,0,17,,,,,,,,11,,,70,72
17700,note_on,1,0,21,,,,,,,,15,,,55,72
17700,note_on,1,0,7,,,,,,,,2,,,70,72
17700,note_on,1,0,20,,,,,,,,14,,,55,72
17729,note_on,29,0,17,,,,,,,,11,,,70,0
17729,note_on,29,0,7,,,,,,,,2,,,70,0
17729,note_on,29,0,5,,,,,,,,0,,,70,0
17730,note_on,1,0,17,,,,,,,,11,,,72,72
17730,note_on,1,0,7,,,,,,,,2,,,72,72
17730,note_on,1,0,5,,,,,,,,0,,,72,72
17759,note_on,59,0,21,,,,,,,,15,,,55,0
17759,note_on,59,0,11,,,,,,,,6,,,43,0
17759,note_on,59,0,6,,,,,,,,1,,,55,0
17759,note_on,59,0,16,,,,,,,,10,,,55,0
17759,note_on,59,0,20,,,,,,,,14,,,55,0
17759,note_on,29,0,7,,,,,,,,2,,,72,0
17759,note_on,29,0,17,,,,,,,,11,,,72,0
17759,note_on,0,0,21,,,,,,,,15,,,62,0
17759,note_on,0,0,21,,,,,,,,15,,,67,0
17759,note_on,0,0,21,,,,,,,,15,,,70,0
17759,note_on,29,0,5,,,,,,,,0,,,72,0
17760,note_on,0,0,21,,,,,,,,15,,,69,72
17760,note_on,0,0,21,,,,,,,,15,,,62,72
17760,note_on,1,0,17,,,,,,,,11,,,72,72
17760,note_on,1,0,20,,,,,,,,14,,,62,72
17760,note_on,1,0,16,,,,,,,,10,,,62,72
17760,note_on,1,0,6,,,,,,,,1,,,50,72
17760,note_on,1,0,5,,,,,,,,0,,,69,72
17760,note_on,1,0,11,,,,,,,,6,,,38,72
17760,note_on,1,0,21,,,,,,,,15,,,50,72
17760,note_on,1,0,7,,,,,,,,2,,,69,72
17760,note_on,0,0,21,,,,,,,,15,,,67,72
17819,note_on,59,0,11,,,,,,,,6,,,38,0
17819,note_on,119,0,9,,,,,,,,4,,,62,0
17819,note_on,59,0,20,,,,,,,,14,,,62,0
17819,note_on,59,0,21,,,,,,,,15,,,62,0
17819,note_on,59,0,16,,,,,,,,10,,,62,0
17819,note_on,0,0,21,,,,,,,,15,,,50,0
17819,note_on,0,0,21,,,,,,,,15,,,67,0
17819,note_on,0,0,21,,,,,,,,15,,,69,0
17819,note_on,179,0,18,,,,,,,,12,,,67,0
17819,note_on,179,0,8,,,,,,,,3,,,67,0
17819,note_on,179,0,14,,,,,,,,10,,,67,0
17820,note_on,421,0,15,,,,,,,,10,,,62,72
17820,note_on,1,0,16,,,,,,,,10,,,50,72
17820,note_on,1,0,14,,,,,,,,10,,,67,72
17820,note_on,1,0,18,,,,,,,,12,,,67,72
17820,note_on,0,0,21,,,,,,,,15,,,69,72
17820,note_on,481,0,10,,,,,,,,5,,,62,72
17820,note_on,0,0,21,,,,,,,,15,,,65,72
17820,note_on,1,0,21,,,,,,,,15,,,62,72
17820,note_on,1,0,8,,,,,,,,3,,,67,72
17820,note_on,1,0,20,,,,,,,,14,,,50,72
17820,note_on,1,0,9,,,,,,,,4,,,62,72
17820,note_on,60,0,6,,,,,,,,1,,,62,72
17820,note_on,421,0,19,,,,,,,,13,,,62,72
17849,note_on,89,0,17,,,,,,,,11,,,72,0
17849,note_on,89,0,7,,,,,,,,2,,,69,0
17850,note_on,1,0,17,,,,,,,,11,,,72,72
17850,note_on,1,0,7,,,,,,,,2,,,69,72
17879,note_on,59,0,8,,,,,,,,3,,,67,0
17879,note_on,29,0,7,,,,,,,,2,,,69,0
17879,note_on,59,0,20,,,,,,,,14,,,50,0
17879,note_on,119,0,5,,,,,,,,0,,,67,0
17879,note_on,59,0,18,,,,,,,,12,,,67,0
17879,note_on,59,0,16,,,,,,,,10,,,50,0
17879,note_on,59,0,21,,,,,,,,15,,,69,0
17879,note_on,59,0,6,,,,,,,,1,,,50,0
17879,note_on,29,0,17,,,,,,,,11,,,72,0
17879,note_on,0,0,21,,,,,,,,15,,,65,0
17879,note_on,59,0,14,,,,,,,,10,,,67,0
17880,note_on,1,0,5,,,,,,,,0,,,66,72
17880,note_on,1,0,14,,,,,,,,10,,,66,72
17880,note_on,1,0,8,,,,,,,,3,,,66,72
17880,note_on,0,0,21,,,,,,,,15,,,69,72
17880,note_on,1,0,18,,,,,,,,12,,,66,72
17880,note_on,0,0,21,,,,,,,,15,,,74,72
17880,note_on,1,0,7,,,,,,,,2,,,69,72
17880,note_on,1,0,21,,,,,,,,15,,,66,72
17880,note_on,1,0,17,,,,,,,,11,,,72,72
17909,note_on,89,0,15,,,,,,,,10,,,62,0
17909,note_on,89,0,10,,,,,,,,5,,,62,0
17909,note_on,30,0,6,,,,,,,,1,,,62,0
17909,note_on,29,0,21,,,,,,,,15,,,62,0
17909,note_on,89,0,9,,,,,,,,4,,,62,0
17909,note_on,89,0,19,,,,,,,,13,,,62,0
17910,note_on,1,0,19,,,,,,,,13,,,63,72
17910,note_on,1,0,21,,,,,,,,15,,,63,72
17910,note_on,1,0,10,,,,,,,,5,,,63,72
17910,note_on,1,0,15,,,,,,,,10,,,63,72
17910,note_on,1,0,9,,,,,,,,4,,,63,72
17910,note_on,1,0,6,,,,,,,,1,,,63,72
17939,note_on,29,0,6,,,,,,,,1,,,63,0
17939,note_on,29,0,21,,,,,,,,15,,,63,0
17939,note_on,29,0,9,,,,,,,,4,,,63,0
17939,note_on,59,0,14,,,,,,,,10,,,66,0
17939,note_on,59,0,18,,,,,,,,12,,,66,0
17939,note_on,59,0,7,,,,,,,,2,,,69,0
17939,note_on,29,0,19,,,,,,,,13,,,63,0
17939,note_on,29,0,15,,,,,,,,10,,,63,0
17939,note_on,59,0,8,,,,,,,,3,,,66,0
17939,note_on,29,0,10,,,,,,,,5,,,63,0
17940,note_on,1,0,9,,,,,,,,4,,,62,72
17940,note_on,1,0,21,,,,,,,,15,,,62,72
17940,note_on,1,0,18,,,,,,,,12,,,66,72
17940,note_on,1,0,19,,,,,,,,13,,,62,72
17940,note_on,1,0,10,,,,,,,,5,,,62,72
17940,note_on,1,0,15,,,,,,,,10,,,62,72
17940,note_on,1,0,7,,,,,,,,2,,,69,72
17940,note_on,1,0,8,,,,,,,,3,,,66,72
17940,note_on,1,0,14,,,,,,,,10,,,66,72
17940,note_on,1,0,6,,,,,,,,1,,,62,72
17969,note_on,29,0,19,,,,,,,,13,,,62,0
17969,note_on,29,0,15,,,,,,,,10,,,62,0
17969,note_on,29,0,9,,,,,,,,4,,,62,0
17969,note_on,29,0,6,,,,,,,,1,,,62,0
17969,note_on,29,0,21,,,,,,,,15,,,62,0
17969,note_on,29,0,10,,,,,,,,5,,,62,0
17970,note_on,1,0,9,,,,,,,,4,,,60,72
17970,note_on,1,0,21,,,,,,,,15,,,60,72
17970,note_on,1,0,6,,,,,,,,1,,,60,72
17970,note_on,1,0,19,,,,,,,,13,,,60,72
17970,note_on,1,0,10,,,,,,,,5,,,60,72
17970,note_on,1,0,15,,,,,,,,10,,,60,72
17999,note_on,59,0,18,,,,,,,,12,,,66,0
17999,note_on,59,0,7,,,,,,,,2,,,69,0
17999,note_on,59,0,8,,,,,,,,3,,,66,0
17999,note_on,0,0,5,,,,,,,,0,,,69,0
17999,note_on,119,0,5,,,,,,,,0,,,66,0
17999,note_on,0,0,21,,,,,,,,15,,,74,0
17999,note_on,0,0,21,,,,,,,,15,,,66,0
17999,note_on,29,0,6,,,,,,,,1,,,60,0
17999,note_on,119,0,17,,,,,,,,11,,,72,0
17999,note_on,59,0,14,,,,,,,,10,,,66,0
17999,note_on,29,0,15,,,,,,,,10,,,60,0
17999,note_on,0,0,21,,,,,,,,15,,,69,0
17999,note_on,29,0,10,,,,,,,,5,,,60,0
17999,note_on,29,0,9,,,,,,,,4,,,60,0
17999,note_on,29,0,21,,,,,,,,15,,,60,0
17999,note_on,29,0,19,,,,,,,,13,,,60,0
18000,note_on,1,0,19,,,,,,,,13,,,58,72
18000,note_on,1,0,9,,,,,,,,4,,,58,72
18000,note_on,0,0,21,,,,,,,,15,,,67,72
18000,note_on,1,0,21,,,,,,,,15,,,58,72
18000,note_on,1,0,14,,,,,,,,10,,,67,72
18000,note_on,1,0,17,,,,,,,,11,,,74,72
18000,note_on,1,0,5,,,,,,,,0,,,67,72
18000,note_on,0,0,21,,,,,,,,15,,,74,72
18000,note_on,1,0,18,,,,,,,,12,,,67,72
18000,note_on,1,0,10,,,,,,,,5,,,58,72
18000,note_on,0,0,5,,,,,,,,0,,,74,72
18000,note_on,1,0,7,,,,,,,,2,,,74,72
18000,note_on,1,0,6,,,,,,,,1,,,58,72
18000,note_on,1,0,15,,,,,,,,10,,,58,72
18000,note_on,1,0,8,,,,,,,,3,,,67,72
18029,note_on,29,0,6,,,,,,,,1,,,58,0
18029,note_on,29,0,9,,,,,,,,4,,,58,0
18029,note_on,29,0,19,,,,,,,,13,,,58,0
18029,note_on,29,0,15,,,,,,,,10,,,58,0
18030,note_on,1,0,6,,,,,,,,1,,,62,72
18030,note_on,1,0,15,,,,,,,,10,,,62,72
18030,note_on,1,0,9,,,,,,,,4,,,62,72
18030,note_on,1,0,19,,,,,,,,13,,,62,72
18059,note_on,59,0,7,,,,,,,,2,,,74,0
18059,note_on,0,0,21,,,,,,,,15,,,58,0
18059,note_on,29,0,15,,,,,,,,10,,,62,0
18059,note_on,29,0,19,,,,,,,,13,,,62,0
18059,note_on,0,0,21,,,,,,,,15,,,74,0
18059,note_on,59,0,21,,,,,,,,15,,,67,0
18059,note_on,29,0,6,,,,,,,,1,,,62,0
18059,note_on,59,0,10,,,,,,,,5,,,58,0
18059,note_on,29,0,9,,,,,,,,4,,,62,0
18060,note_on,1,0,19,,,,,,,,13,,,60,72
18060,note_on,1,0,15,,,,,,,,10,,,60,72
18060,note_on,0,0,6,,,,,,,,1,,,55,72
18060,note_on,1,0,7,,,,,,,,2,,,74,72
18060,note_on,181,0,16,,,,,,,,10,,,55,72
18060,note_on,241,0,11,,,,,,,,6,,,43,72
18060,note_on,1,0,6,,,,,,,,1,,,60,72
18060,note_on,181,0,20,,,,,,,,14,,,55,72
18060,note_on,1,0,21,,,,,,,,15,,,55,72
18060,note_on,1,0,9,,,,,,,,4,,,60,72
18060,note_on,0,0,21,,,,,,,,15,,,70,72
18060,note_on,0,0,21,,,,,,,,15,,,74,72
18089,note_on,29,0,9,,,,,,,,4,,,60,0
18089,note_on,29,0,19,,,,,,,,13,,,60,0
18089,note_on,29,0,6,,,,,,,,1,,,60,0
18089,note_on,29,0,15,,,,,,,,10,,,60,0
18090,note_on,1,0,19,,,,,,,,13,,,58,72
18090,note_on,1,0,15,,,,,,,,10,,,58,72
18090,note_on,1,0,6,,,,,,,,1,,,58,72
18090,note_on,1,0,9,,,,,,,,4,,,58,72
18119,note_on,59,0,21,,,,,,,,15,,,70,0
18119,note_on,29,0,15,,,,,,,,10,,,58,0
18119,note_on,29,0,6,,,,,,,,1,,,58,0
18119,note_on,29,0,19,,,,,,,,13,,,58,0
18119,note_on,119,0,5,,,,,,,,0,,,67,0
18119,note_on,119,0,14,,,,,,,,10,,,67,0
18119,note_on,29,0,9,,,,,,,,4,,,58,0
18119,note_on,119,0,18,,,,,,,,12,,,67,0
18119,note_on,119,0,8,,,,,,,,3,,,67,0
18120,note_on,1,0,5,,,,,,,,0,,,69,72
18120,note_on,1,0,19,,,,,,,,13,,,57,72
18120,note_on,1,0,6,,,,,,,,1,,,57,72
18120,note_on,1,0,15,,,,,,,,10,,,57,72
18120,note_on,1,0,8,,,,,,,,3,,,69,72
18120,note_on,1,0,14,,,,,,,,10,,,69,72
18120,note_on,1,0,18,,,,,,,,12,,,69,72
18120,note_on,1,0,21,,,,,,,,15,,,69,72
18120,note_on,1,0,9,,,,,,,,4,,,57,72
18149,note_on,29,0,19,,,,,,,,13,,,57,0
18149,note_on,29,0,6,,,,,,,,1,,,57,0
18149,note_on,29,0,15,,,,,,,,10,,,57,0
18149,note_on,29,0,9,,,,,,,,4,,,57,0
18150,note_on,1,0,19,,,,,,,,13,,,60,72
18150,note_on,1,0,15,,,,,,,,10,,,60,72
18150,note_on,1,0,6,,,,,,,,1,,,60,72
18150,note_on,1,0,9,,,,,,,,4,,,60,72
18179,note_on,119,0,11,,,,,,,,6,,,43,0
18179,note_on,119,0,7,,,,,,,,2,,,74,0
18179,note_on,0,0,21,,,,,,,,15,,,55,0
18179,note_on,59,0,21,,,,,,,,15,,,74,0
18179,note_on,29,0,15,,,,,,,,10,,,60,0
18179,note_on,29,0,9,,,,,,,,4,,,60,0
18179,note_on,179,0,17,,,,,,,,11,,,74,0
18179,note_on,29,0,19,,,,,,,,13,,,60,0
18179,note_on,119,0,20,,,,,,,,14,,,55,0
18179,note_on,119,0,16,,,,,,,,10,,,55,0
18179,note_on,0,0,6,,,,,,,,1,,,55,0
18179,note_on,29,0,6,,,,,,,,1,,,60,0
18180,note_on,1,0,16,,,,,,,,10,,,54,72
18180,note_on,1,0,20,,,,,,,,14,,,54,72
18180,note_on,1,0,21,,,,,,,,15,,,54,72
18180,note_on,0,0,21,,,,,,,,15,,,74,72
18180,note_on,1,0,9,,,,,,,,4,,,58,72
18180,note_on,1,0,15,,,,,,,,10,,,58,72
18180,note_on,1,0,17,,,,,,,,11,,,74,72
18180,note_on,1,0,11,,,,,,,,6,,,42,72
18180,note_on,1,0,7,,,,,,,,2,,,74,72
18180,note_on,0,0,6,,,,,,,,1,,,54,72
18180,note_on,1,0,6,,,,,,,,1,,,58,72
18180,note_on,1,0,19,,,,,,,,13,,,58,72
18209,note_on,29,0,6,,,,,,,,1,,,58,0
18209,note_on,29,0,19,,,,,,,,13,,,58,0
18209,note_on,29,0,9,,,,,,,,4,,,58,0
18209,note_on,29,0,15,,,,,,,,10,,,58,0
18210,note_on,1,0,19,,,,,,,,13,,,57,72
18210,note_on,1,0,6,,,,,,,,1,,,57,72
18210,note_on,1,0,9,,,,,,,,4,,,57,72
18210,note_on,1,0,15,,,,,,,,10,,,57,72
18239,note_on,59,0,16,,,,,,,,10,,,54,0
18239,note_on,59,0,11,,,,,,,,6,,,42,0
18239,note_on,59,0,7,,,,,,,,2,,,74,0
18239,note_on,0,0,21,,,,,,,,15,,,69,0
18239,note_on,119,0,5,,,,,,,,0,,,69,0
18239,note_on,119,0,18,,,,,,,,12,,,69,0
18239,note_on,119,0,14,,,,,,,,10,,,69,0
18239,note_on,0,0,21,,,,,,,,15,,,54,0
18239,note_on,59,0,17,,,,,,,,11,,,74,0
18239,note_on,119,0,8,,,,,,,,3,,,69,0
18239,note_on,29,0,19,,,,,,,,13,,,57,0
18239,note_on,0,0,6,,,,,,,,1,,,54,0
18239,note_on,29,0,6,,,,,,,,1,,,57,0
18239,note_on,59,0,21,,,,,,,,15,,,74,0
18239,note_on,29,0,9,,,,,,,,4,,,57,0
18239,note_on,29,0,15,,,,,,,,10,,,57,0
18239,note_on,59,0,20,,,,,,,,14,,,54,0
18240,note_on,0,0,21,,,,,,,,15,,,74,72
18240,note_on,0,0,21,,,,,,,,15,,,67,72
18240,note_on,1,0,9,,,,,,,,4,,,55,72
18240,note_on,1,0,16,,,,,,,,10,,,55,72
18240,note_on,1,0,6,,,,,,,,1,,,55,72
18240,note_on,1,0,11,,,,,,,,6,,,43,72
18240,note_on,0,0,6,,,,,,,,1,,,55,72
18240,note_on,1,0,18,,,,,,,,12,,,70,72
18240,note_on,0,0,21,,,,,,,,15,,,70,72
18240,note_on,1,0,15,,,,,,,,10,,,55,72
18240,note_on,1,0,14,,,,,,,,10,,,70,72
18240,note_on,1,0,19,,,,,,,,13,,,55,72
18240,note_on,1,0,20,,,,,,,,14,,,55,72
18240,note_on,1,0,7,,,,,,,,2,,,74,72
18240,note_on,1,0,5,,,,,,,,0,,,70,72
18240,note_on,1,0,8,,,,,,,,3,,,70,72
18240,note_on,1,0,17,,,,,,,,11,,,74,72
18240,note_on,1,0,21,,,,,,,,15,,,55,72
18269,note_on,29,0,17,,,,,,,,11,,,74,0
18269,note_on,29,0,7,,,,,,,,2,,,74,0
18269,note_on,29,0,5,,,,,,,,0,,,70,0
18269,note_on,0,0,5,,,,,,,,0,,,74,0
18269,note_on,29,0,14,,,,,,,,10,,,70,0
18269,note_on,29,0,8,,,,,,,,3,,,70,0
18269,note_on,29,0,18,,,,,,,,12,,,70,0
18270,note_on,1,0,7,,,,,,,,2,,,72,72
18270,note_on,1,0,14,,,,,,,,10,,,69,72
18270,note_on,1,0,18,,,,,,,,12,,,69,72
18270,note_on,1,0,8,,,,,,,,3,,,69,72
18270,note_on,0,0,5,,,,,,,,0,,,69,72
18270,note_on,1,0,17,,,,,,,,11,,,72,72
18270,note_on,1,0,5,,,,,,,,0,,,72,72
18299,note_on,29,0,8,,,,,,,,3,,,69,0
18299,note_on,29,0,7,,,,,,,,2,,,72,0
18299,note_on,29,0,14,,,,,,,,10,,,69,0
18299,note_on,0,0,5,,,,,,,,0,,,72,0
18299,note_on,29,0,5,,,,,,,,0,,,69,0
18299,note_on,29,0,17,,,,,,,,11,,,72,0
18299,note_on,29,0,18,,,,,,,,12,,,69,0
18300,note_on,1,0,14,,,,,,,,10,,,67,72
18300,note_on,1,0,18,,,,,,,,12,,,67,72
18300,note_on,1,0,17,,,,,,,,11,,,70,72
18300,note_on,1,0,5,,,,,,,,0,,,70,72
18300,note_on,1,0,7,,,,,,,,2,,,70,72
18300,note_on,1,0,8,,,,,,,,3,,,67,72
18300,note_on,0,0,5,,,,,,,,0,,,67,72
18329,note_on,89,0,20,,,,,,,,14,,,55,0
18329,note_on,29,0,5,,,,,,,,0,,,70,0
18329,note_on,89,0,19,,,,,,,,13,,,55,0
18329,note_on,29,0,7,,,,,,,,2,,,70,0
18329,note_on,89,0,16,,,,,,,,10,,,55,0
18329,note_on,89,0,6,,,,,,,,1,,,55,0
18329,note_on,29,0,17,,,,,,,,11,,,70,0
18329,note_on,89,0,15,,,,,,,,10,,,55,0
18329,note_on,89,0,9,,,,,,,,4,,,55,0
18330,note_on,1,0,9,,,,,,,,4,,,57,72
18330,note_on,1,0,17,,,,,,,,11,,,72,72
18330,note_on,1,0,16,,,,,,,,10,,,43,72
18330,note_on,1,0,19,,,,,,,,13,,,57,72
18330,note_on,1,0,5,,,,,,,,0,,,72,72
18330,note_on,1,0,6,,,,,,,,1,,,57,72
18330,note_on,1,0,20,,,,,,,,14,,,43,72
18330,note_on,1,0,15,,,,,,,,10,,,57,72
18330,note_on,1,0,7,,,,,,,,2,,,72,72
18359,note_on,29,0,20,,,,,,,,14,,,43,0
18359,note_on,29,0,16,,,,,,,,10,,,43,0
18359,note_on,29,0,19,,,,,,,,13,,,57,0
18359,note_on,29,0,17,,,,,,,,11,,,72,0
18359,note_on,29,0,9,,,,,,,,4,,,57,0
18359,note_on,119,0,11,,,,,,,,6,,,43,0
18359,note_on,0,0,21,,,,,,,,15,,,55,0
18359,note_on,29,0,7,,,,,,,,2,,,72,0
18359,note_on,29,0,5,,,,,,,,0,,,72,0
18359,note_on,0,0,6,,,,,,,,1,,,55,0
18359,note_on,29,0,6,,,,,,,,1,,,57,0
18359,note_on,29,0,15,,,,,,,,10,,,57,0
18359,note_on,119,0,21,,,,,,,,15,,,67,0
18359,note_on,0,0,21,,,,,,,,15,,,74,0
18359,note_on,0,0,21,,,,,,,,15,,,70,0
18360,note_on,1,0,11,,,,,,,,6,,,31,72
18360,note_on,1,0,15,,,,,,,,10,,,58,72
18360,note_on,1,0,17,,,,,,,,11,,,74,72
18360,note_on,0,0,21,,,,,,,,15,,,70,72
18360,note_on,0,0,21,,,,,,,,15,,,67,72
18360,note_on,1,0,16,,,,,,,,10,,,43,72
18360,note_on,1,0,21,,,,,,,,15,,,43,72
18360,note_on,1,0,6,,,,,,,,1,,,58,72
18360,note_on,1,0,19,,,,,,,,13,,,58,72
18360,note_on,0,0,6,,,,,,,,1,,,43,72
18360,note_on,0,0,21,,,,,,,,15,,,74,72
18360,note_on,1,0,20,,,,,,,,14,,,43,72
18360,note_on,1,0,9,,,,,,,,4,,,58,72
18360,note_on,1,0,5,,,,,,,,0,,,74,72
18360,note_on,1,0,7,,,,,,,,2,,,74,72
18389,note_on,29,0,9,,,,,,,,4,,,58,0
18389,note_on,89,0,14,,,,,,,,10,,,67,0
18389,note_on,89,0,8,,,,,,,,3,,,67,0
18389,note_on,29,0,5,,,,,,,,0,,,74,0
18389,note_on,89,0,18,,,,,,,,12,,,67,0
18389,note_on,29,0,6,,,,,,,,1,,,58,0
18389,note_on,0,0,5,,,,,,,,0,,,67,0
18389,note_on,29,0,15,,,,,,,,10,,,58,0
18389,note_on,29,0,7,,,,,,,,2,,,74,0
18389,note_on,29,0,17,,,,,,,,11,,,74,0
18389,note_on,29,0,19,,,,,,,,13,,,58,0
18390,note_on,1,0,6,,,,,,,,1,,,57,72
18390,note_on,0,0,5,,,,,,,,0,,,69,72
18390,note_on,1,0,15,,,,,,,,10,,,57,72
18390,note_on,1,0,17,,,,,,,,11,,,72,72
18390,note_on,1,0,19,,,,,,,,13,,,57,72
18390,note_on,1,0,8,,,,,,,,3,,,69,72
18390,note_on,1,0,14,,,,,,,,10,,,69,72
18390,note_on,1,0,9,,,,,,,,4,,,57,72
18390,note_on,1,0,7,,,,,,,,2,,,72,72
18390,note_on,1,0,18,,,,,,,,12,,,69,72
18390,note_on,1,0,5,,,,,,,,0,,,72,72
18419,note_on,29,0,19,,,,,,,,13,,,57,0
18419,note_on,29,0,8,,,,,,,,3,,,69,0
18419,note_on,29,0,14,,,,,,,,10,,,69,0
18419,note_on,29,0,9,,,,,,,,4,,,57,0
18419,note_on,29,0,5,,,,,,,,0,,,69,0
18419,note_on,29,0,7,,,,,,,,2,,,72,0
18419,note_on,0,0,5,,,,,,,,0,,,72,0
18419,note_on,59,0,21,,,,,,,,15,,,74,0
18419,note_on,29,0,6,,,,,,,,1,,,57,0
18419,note_on,0,0,21,,,,,,,,15,,,43,0
18419,note_on,0,0,21,,,,,,,,15,,,67,0
18419,note_on,29,0,18,,,,,,,,12,,,69,0
18419,note_on,0,0,6,,,,,,,,1,,,43,0
18419,note_on,0,0,21,,,,,,,,15,,,70,0
18419,note_on,59,0,11,,,,,,,,6,,,31,0
18419,note_on,29,0,15,,,,,,,,10,,,57,0
18419,note_on,29,0,17,,,,,,,,11,,,72,0
18420,note_on,1,0,21,,,,,,,,15,,,55,72
18420,note_on,1,0,11,,,,,,,,6,,,43,72
18420,note_on,1,0,14,,,,,,,,10,,,70,72
18420,note_on,1,0,7,,,,,,,,2,,,74,72
18420,note_on,1,0,9,,,,,,,,4,,,55,72
18420,note_on,1,0,18,,,,,,,,12,,,70,72
18420,note_on,1,0,8,,,,,,,,3,,,70,72
18420,note_on,0,0,21,,,,,,,,15,,,76,72
18420,note_on,0,0,21,,,,,,,,15,,,70,72
18420,note_on,0,0,5,,,,,,,,0,,,70,72
18420,note_on,1,0,5,,,,,,,,0,,,74,72
18420,note_on,1,0,6,,,,,,,,1,,,55,72
18420,note_on,0,0,6,,,,,,,,1,,,55,72
18420,note_on,1,0,19,,,,,,,,13,,,55,72
18420,note_on,1,0,15,,,,,,,,10,,,55,72
18420,note_on,1,0,17,,,,,,,,11,,,74,72
18449,note_on,29,0,17,,,,,,,,11,,,74,0
18449,note_on,29,0,5,,,,,,,,0,,,70,0
18449,note_on,29,0,18,,,,,,,,12,,,70,0
18449,note_on,0,0,5,,,,,,,,0,,,74,0
18449,note_on,29,0,9,,,,,,,,4,,,55,0
18449,note_on,29,0,7,,,,,,,,2,,,74,0
18449,note_on,29,0,14,,,,,,,,10,,,70,0
18449,note_on,29,0,6,,,,,,,,1,,,55,0
18449,note_on,29,0,15,,,,,,,,10,,,55,0
18449,note_on,29,0,19,,,,,,,,13,,,55,0
18449,note_on,29,0,8,,,,,,,,3,,,70,0
18450,note_on,1,0,17,,,,,,,,11,,,76,72
18450,note_on,1,0,6,,,,,,,,1,,,58,72
18450,note_on,1,0,18,,,,,,,,12,,,67,72
18450,note_on,1,0,15,,,,,,,,10,,,58,72
18450,note_on,0,0,5,,,,,,,,0,,,67,72
18450,note_on,1,0,8,,,,,,,,3,,,67,72
18450,note_on,1,0,5,,,,,,,,0,,,76,72
18450,note_on,1,0,19,,,,,,,,13,,,58,72
18450,note_on,1,0,7,,,,,,,,2,,,76,72
18450,note_on,1,0,14,,,,,,,,10,,,67,72
18450,note_on,1,0,9,,,,,,,,4,,,58,72
18479,note_on,29,0,15,,,,,,,,10,,,58,0
18479,note_on,29,0,7,,,,,,,,2,,,76,0
18479,note_on,29,0,8,,,,,,,,3,,,67,0
18479,note_on,0,0,6,,,,,,,,1,,,55,0
18479,note_on,29,0,6,,,,,,,,1,,,58,0
18479,note_on,29,0,18,,,,,,,,12,,,67,0
18479,note_on,29,0,14,,,,,,,,10,,,67,0
18479,note_on,0,0,21,,,,,,,,15,,,55,0
18479,note_on,119,0,16,,,,,,,,10,,,43,0
18479,note_on,0,0,5,,,,,,,,0,,,76,0
18479,note_on,29,0,5,,,,,,,,0,,,67,0
18479,note_on,29,0,9,,,,,,,,4,,,58,0
18479,note_on,0,0,21,,,,,,,,15,,,70,0
18479,note_on,59,0,21,,,,,,,,15,,,76,0
18479,note_on,29,0,19,,,,,,,,13,,,58,0
18479,note_on,29,0,17,,,,,,,,11,,,76,0
18479,note_on,119,0,20,,,,,,,,14,,,43,0
18479,note_on,59,0,11,,,,,,,,6,,,43,0
18480,note_on,1,0,18,,,,,,,,12,,,72,72
18480,note_on,0,0,5,,,,,,,,0,,,72,72
18480,note_on,1,0,19,,,,,,,,13,,,57,72
18480,note_on,1,0,6,,,,,,,,1,,,57,72
18480,note_on,1,0,8,,,,,,,,3,,,72,72
18480,note_on,1,0,11,,,,,,,,6,,,45,72
18480,note_on,1,0,15,,,,,,,,10,,,57,72
18480,note_on,1,0,5,,,,,,,,0,,,77,72
18480,note_on,1,0,17,,,,,,,,11,,,77,72
18480,note_on,1,0,14,,,,,,,,10,,,72,72
18480,note_on,1,0,21,,,,,,,,15,,,57,72
18480,note_on,1,0,7,,,,,,,,2,,,77,72
18480,note_on,0,0,21,,,,,,,,15,,,72,72
18480,note_on,0,0,21,,,,,,,,15,,,77,72
18480,note_on,1,0,9,,,,,,,,4,,,57,72
18509,note_on,29,0,8,,,,,,,,3,,,72,0
18509,note_on,29,0,11,,,,,,,,6,,,45,0
18509,note_on,29,0,15,,,,,,,,10,,,57,0
18509,note_on,29,0,21,,,,,,,,15,,,57,0
18509,note_on,29,0,14,,,,,,,,10,,,72,0
18509,note_on,29,0,5,,,,,,,,0,,,72,0
18509,note_on,29,0,6,,,,,,,,1,,,57,0
18509,note_on,29,0,18,,,,,,,,12,,,72,0
18509,note_on,29,0,19,,,,,,,,13,,,57,0
18509,note_on,29,0,9,,,,,,,,4,,,57,0
18510,note_on,1,0,9,,,,,,,,4,,,55,72
18510,note_on,1,0,18,,,,,,,,12,,,70,72
18510,note_on,1,0,21,,,,,,,,15,,,55,72
18510,note_on,1,0,15,,,,,,,,10,,,55,72
18510,note_on,1,0,11,,,,,,,,6,,,43,72
18510,note_on,1,0,8,,,,,,,,3,,,70,72
18510,note_on,1,0,6,,,,,,,,1,,,55,72
18510,note_on,1,0,19,,,,,,,,13,,,55,72
18510,note_on,1,0,14,,,,,,,,10,,,70,72
18510,note_on,1,0,5,,,,,,,,0,,,70,72
18539,note_on,59,0,17,,,,,,,,11,,,77,0
18539,note_on,29,0,11,,,,,,,,6,,,43,0
18539,note_on,29,0,15,,,,,,,,10,,,55,0
18539,note_on,29,0,14,,,,,,,,10,,,70,0
18539,note_on,29,0,21,,,,,,,,15,,,55,0
18539,note_on,29,0,6,,,,,,,,1,,,55,0
18539,note_on,29,0,18,,,,,,,,12,,,70,0
18539,note_on,29,0,19,,,,,,,,13,,,55,0
18539,note_on,29,0,8,,,,,,,,3,,,70,0
18539,note_on,29,0,9,,,,,,,,4,,,55,0
18539,note_on,0,0,5,,,,,,,,0,,,77,0
18539,note_on,59,0,7,,,,,,,,2,,,77,0
18539,note_on,29,0,5,,,,,,,,0,,,70,0
18540,note_on,1,0,11,,,,,,,,6,,,41,72
18540,note_on,1,0,15,,,,,,,,10,,,53,72
18540,note_on,1,0,14,,,,,,,,10,,,69,72
18540,note_on,1,0,7,,,,,,,,2,,,72,72
18540,note_on,1,0,21,,,,,,,,15,,,53,72
18540,note_on,1,0,17,,,,,,,,11,,,72,72
18540,note_on,1,0,18,,,,,,,,12,,,69,72
18540,note_on,1,0,9,,,,,,,,4,,,53,72
18540,note_on,1,0,6,,,,,,,,1,,,53,72
18540,note_on,0,0,5,,,,,,,,0,,,72,72
18540,note_on,1,0,8,,,,,,,,3,,,69,72
18540,note_on,1,0,19,,,,,,,,13,,,53,72
18540,note_on,1,0,5,,,,,,,,0,,,69,72
18569,note_on,29,0,14,,,,,,,,10,,,69,0
18569,note_on,29,0,18,,,,,,,,12,,,69,0
18569,note_on,29,0,8,,,,,,,,3,,,69,0
18569,note_on,29,0,19,,,,,,,,13,,,53,0
18569,note_on,29,0,15,,,,,,,,10,,,53,0
18569,note_on,29,0,5,,,,,,,,0,,,69,0
18569,note_on,29,0,11,,,,,,,,6,,,41,0
18569,note_on,29,0,9,,,,,,,,4,,,53,0
18569,note_on,29,0,21,,,,,,,,15,,,53,0
18569,note_on,29,0,6,,,,,,,,1,,,53,0
18570,note_on,1,0,11,,,,,,,,6,,,43,72
18570,note_on,1,0,5,,,,,,,,0,,,70,72
18570,note_on,1,0,8,,,,,,,,3,,,70,72
18570,note_on,1,0,14,,,,,,,,10,,,70,72
18570,note_on,1,0,15,,,,,,,,10,,,55,72
18570,note_on,1,0,18,,,,,,,,12,,,70,72
18570,note_on,1,0,9,,,,,,,,4,,,55,72
18570,note_on,1,0,19,,,,,,,,13,,,55,72
18570,note_on,1,0,21,,,,,,,,15,,,55,72
18570,note_on,1,0,6,,,,,,,,1,,,55,72
18599,note_on,29,0,6,,,,,,,,1,,,55,0
18599,note_on,29,0,11,,,,,,,,6,,,43,0
18599,note_on,29,0,5,,,,,,,,0,,,70,0
18599,note_on,0,0,5,,,,,,,,0,,,72,0
18599,note_on,59,0,7,,,,,,,,2,,,72,0
18599,note_on,59,0,17,,,,,,,,11,,,72,0
18599,note_on,29,0,19,,,,,,,,13,,,55,0
18599,note_on,29,0,8,,,,,,,,3,,,70,0
18599,note_on,29,0,15,,,,,,,,10,,,55,0
18599,note_on,29,0,21,,,,,,,,15,,,55,0
18599,note_on,29,0,9,,,,,,,,4,,,55,0
18599,note_on,29,0,18,,,,,,,,12,,,70,0
18599,note_on,29,0,14,,,,,,,,10,,,70,0
18600,note_on,1,0,15,,,,,,,,10,,,57,72
18600,note_on,1,0,19,,,,,,,,13,,,57,72
18600,note_on,1,0,18,,,,,,,,12,,,72,72
18600,note_on,1,0,14,,,,,,,,10,,,72,72
18600,note_on,1,0,9,,,,,,,,4,,,57,72
18600,note_on,1,0,17,,,,,,,,11,,,77,72
18600,note_on,1,0,7,,,,,,,,2,,,77,72
18600,note_on,1,0,8,,,,,,,,3,,,72,72
18600,note_on,0,0,5,,,,,,,,0,,,72,72
18600,note_on,1,0,6,,,,,,,,1,,,57,72
18600,note_on,1,0,21,,,,,,,,15,,,57,72
18600,note_on,1,0,5,,,,,,,,0,,,77,72
18600,note_on,1,0,11,,,,,,,,6,,,45,72
18629,note_on,29,0,8,,,,,,,,3,,,72,0
18629,note_on,29,0,15,,,,,,,,10,,,57,0
18629,note_on,29,0,9,,,,,,,,4,,,57,0
18629,note_on,29,0,5,,,,,,,,0,,,72,0
18629,note_on,29,0,19,,,,,,,,13,,,57,0
18629,note_on,29,0,11,,,,,,,,6,,,45,0
18629,note_on,29,0,14,,,,,,,,10,,,72,0
18629,note_on,29,0,21,,,,,,,,15,,,57,0
18629,note_on,29,0,6,,,,,,,,1,,,57,0
18629,note_on,29,0,18,,,,,,,,12,,,72,0
18630,note_on,1,0,11,,,,,,,,6,,,43,72
18630,note_on,1,0,8,,,,,,,,3,,,70,72
18630,note_on,1,0,14,,,,,,,,10,,,70,72
18630,note_on,1,0,21,,,,,,,,15,,,55,72
18630,note_on,1,0,19,,,,,,,,13,,,55,72
18630,note_on,1,0,6,,,,,,,,1,,,55,72
18630,note_on,1,0,5,,,,,,,,0,,,70,72
18630,note_on,1,0,9,,,,,,,,4,,,55,72
18630,note_on,1,0,15,,,,,,,,10,,,55,72
18630,note_on,1,0,18,,,,,,,,12,,,70,72
18659,note_on,29,0,14,,,,,,,,10,,,70,0
18659,note_on,29,0,15,,,,,,,,10,,,55,0
18659,note_on,29,0,19,,,,,,,,13,,,55,0
18659,note_on,29,0,9,,,,,,,,4,,,55,0
18659,note_on,29,0,21,,,,,,,,15,,,55,0
18659,note_on,29,0,11,,,,,,,,6,,,43,0
18659,note_on,29,0,6,,,,,,,,1,,,55,0
18659,note_on,29,0,8,,,,,,,,3,,,70,0
18659,note_on,29,0,18,,,,,,,,12,,,70,0
18659,note_on,29,0,5,,,,,,,,0,,,70,0
18660,note_on,1,0,8,,,,,,,,3,,,69,72
18660,note_on,1,0,18,,,,,,,,12,,,69,72
18660,note_on,1,0,6,,,,,,,,1,,,57,72
18660,note_on,1,0,21,,,,,,,,15,,,57,72
18660,note_on,1,0,9,,,,,,,,4,,,57,72
18660,note_on,1,0,19,,,,,,,,13,,,57,72
18660,note_on,1,0,15,,,,,,,,10,,,57,72
18660,note_on,1,0,5,,,,,,,,0,,,69,72
18660,note_on,1,0,14,,,,,,,,10,,,69,72
18660,note_on,1,0,11,,,,,,,,6,,,45,72
18689,note_on,29,0,15,,,,,,,,10,,,57,0
18689,note_on,29,0,21,,,,,,,,15,,,57,0
18689,note_on,29,0,14,,,,,,,,10,,,69,0
18689,note_on,29,0,5,,,,,,,,0,,,69,0
18689,note_on,29,0,9,,,,,,,,4,,,57,0
18689,note_on,29,0,11,,,,,,,,6,,,45,0
18689,note_on,29,0,6,,,,,,,,1,,,57,0
18689,note_on,29,0,18,,,,,,,,12,,,69,0
18689,note_on,29,0,8,,,,,,,,3,,,69,0
18689,note_on,29,0,19,,,,,,,,13,,,57,0
18690,note_on,1,0,21,,,,,,,,15,,,53,72
18690,note_on,1,0,15,,,,,,,,10,,,53,72
18690,note_on,1,0,6,,,,,,,,1,,,53,72
18690,note_on,1,0,11,,,,,,,,6,,,41,72
18690,note_on,1,0,18,,,,,,,,12,,,70,72
18690,note_on,1,0,8,,,,,,,,3,,,70,72
18690,note_on,1,0,14,,,,,,,,10,,,70,72
18690,note_on,1,0,19,,,,,,,,13,,,53,72
18690,note_on,1,0,9,,,,,,,,4,,,53,72
18690,note_on,1,0,5,,,,,,,,0,,,70,72
18719,note_on,29,0,19,,,,,,,,13,,,53,0
18719,note_on,29,0,11,,,,,,,,6,,,41,0
18719,note_on,29,0,8,,,,,,,,3,,,70,0
18719,note_on,29,0,14,,,,,,,,10,,,70,0
18719,note_on,29,0,21,,,,,,,,15,,,53,0
18719,note_on,29,0,15,,,,,,,,10,,,53,0
18719,note_on,0,0,21,,,,,,,,15,,,77,0
18719,note_on,0,0,21,,,,,,,,15,,,72,0
18719,note_on,29,0,6,,,,,,,,1,,,53,0
18719,note_on,29,0,18,,,,,,,,12,,,70,0
18719,note_on,29,0,9,,,,,,,,4,,,53,0
18719,note_on,29,0,5,,,,,,,,0,,,70,0
18720,note_on,1,0,21,,,,,,,,15,,,48,72
18720,note_on,0,0,21,,,,,,,,15,,,77,72
18720,note_on,1,0,19,,,,,,,,13,,,60,72
18720,note_on,1,0,11,,,,,,,,6,,,36,72
18720,note_on,1,0,6,,,,,,,,1,,,60,72
18720,note_on,0,0,21,,,,,,,,15,,,67,72
18720,note_on,1,0,5,,,,,,,,0,,,67,72
18720,note_on,1,0,8,,,,,,,,3,,,67,72
18720,note_on,1,0,9,,,,,,,,4,,,60,72
18720,note_on,1,0,14,,,,,,,,10,,,67,72
18720,note_on,1,0,18,,,,,,,,12,,,67,72
18720,note_on,1,0,15,,,,,,,,10,,,60,72
18720,note_on,0,0,21,,,,,,,,15,,,60,72
18779,note_on,59,0,11,,,,,,,,6,,,36,0
18779,note_on,59,0,15,,,,,,,,10,,,60,0
18779,note_on,179,0,7,,,,,,,,2,,,77,0
18779,note_on,179,0,17,,,,,,,,11,,,77,0
18779,note_on,59,0,19,,,,,,,,13,,,60,0
18779,note_on,59,0,21,,,,,,,,15,,,60,0
18779,note_on,0,0,21,,,,,,,,15,,,48,0
18779,note_on,59,0,9,,,,,,,,4,,,60,0
18780,note_on,1,0,21,,,,,,,,15,,,60,72
18780,note_on,1,0,15,,,,,,,,10,,,48,72
18780,note_on,1,0,17,,,,,,,,11,,,77,72
18780,note_on,301,0,16,,,,,,,,10,,,60,72
18780,note_on,1,0,11,,,,,,,,6,,,48,72
18780,note_on,1,0,9,,,,,,,,4,,,48,72
18780,note_on,1,0,19,,,,,,,,13,,,48,72
18780,note_on,301,0,20,,,,,,,,14,,,60,72
18780,note_on,1,0,7,,,,,,,,2,,,77,72
18809,note_on,89,0,8,,,,,,,,3,,,67,0
18809,note_on,89,0,18,,,,,,,,12,,,67,0
18809,note_on,89,0,14,,,,,,,,10,,,67,0
18810,note_on,1,0,14,,,,,,,,10,,,67,72
18810,note_on,1,0,18,,,,,,,,12,,,67,72
18810,note_on,1,0,8,,,,,,,,3,,,67,72
18839,note_on,29,0,18,,,,,,,,12,,,67,0
18839,note_on,59,0,19,,,,,,,,13,,,48,0
18839,note_on,59,0,21,,,,,,,,15,,,67,0
18839,note_on,59,0,7,,,,,,,,2,,,77,0
18839,note_on,0,0,21,,,,,,,,15,,,77,0
18839,note_on,119,0,5,,,,,,,,0,,,77,0
18839,note_on,29,0,14,,,,,,,,10,,,67,0
18839,note_on,29,0,8,,,,,,,,3,,,67,0
18839,note_on,59,0,17,,,,,,,,11,,,77,0
18839,note_on,59,0,15,,,,,,,,10,,,48,0
18839,note_on,59,0,9,,,,,,,,4,,,48,0
18840,note_on,1,0,14,,,,,,,,10,,,67,72
18840,note_on,1,0,8,,,,,,,,3,,,67,72
18840,note_on,1,0,7,,,,,,,,2,,,76,72
18840,note_on,1,0,18,,,,,,,,12,,,67,72
18840,note_on,1,0,5,,,,,,,,0,,,76,72
18840,note_on,1,0,17,,,,,,,,11,,,76,72
18840,note_on,1,0,21,,,,,,,,15,,,76,72
18840,note_on,1,0,9,,,,,,,,4,,,60,72
18840,note_on,0,0,21,,,,,,,,15,,,67,72
18869,note_on,89,0,11,,,,,,,,6,,,48,0
18869,note_on,89,0,20,,,,,,,,14,,,60,0
18869,note_on,89,0,16,,,,,,,,10,,,60,0
18869,note_on,149,0,6,,,,,,,,1,,,60,0
18869,note_on,29,0,21,,,,,,,,15,,,60,0
18870,note_on,1,0,11,,,,,,,,6,,,50,72
18870,note_on,1,0,16,,,,,,,,10,,,62,72
18870,note_on,1,0,6,,,,,,,,1,,,62,72
18870,note_on,1,0,21,,,,,,,,15,,,62,72
18870,note_on,1,0,20,,,,,,,,14,,,62,72
18899,note_on,29,0,6,,,,,,,,1,,,62,0
18899,note_on,59,0,17,,,,,,,,11,,,76,0
18899,note_on,29,0,11,,,,,,,,6,,,50,0
18899,note_on,29,0,21,,,,,,,,15,,,62,0
18899,note_on,29,0,20,,,,,,,,14,,,62,0
18899,note_on,29,0,16,,,,,,,,10,,,62,0
18899,note_on,59,0,7,,,,,,,,2,,,76,0
18899,note_on,59,0,8,,,,,,,,3,,,67,0
18900,note_on,1,0,11,,,,,,,,6,,,48,72
18900,note_on,1,0,17,,,,,,,,11,,,76,72
18900,note_on,1,0,6,,,,,,,,1,,,60,72
18900,note_on,1,0,7,,,,,,,,2,,,76,72
18900,note_on,1,0,8,,,,,,,,3,,,67,72
18900,note_on,1,0,21,,,,,,,,15,,,60,72
18900,note_on,1,0,16,,,,,,,,10,,,60,72
18900,note_on,1,0,20,,,,,,,,14,,,60,72
18929,note_on,29,0,20,,,,,,,,14,,,60,0
18929,note_on,29,0,11,,,,,,,,6,,,48,0
18929,note_on,29,0,21,,,,,,,,15,,,60,0
18929,note_on,29,0,16,,,,,,,,10,,,60,0
18929,note_on,29,0,6,,,,,,,,1,,,60,0
18930,note_on,1,0,21,,,,,,,,15,,,58,72
18930,note_on,1,0,6,,,,,,,,1,,,58,72
18930,note_on,1,0,11,,,,,,,,6,,,46,72
18930,note_on,1,0,16,,,,,,,,10,,,58,72
18930,note_on,1,0,20,,,,,,,,14,,,58,72
18959,note_on,59,0,17,,,,,,,,11,,,76,0
18959,note_on,29,0,11,,,,,,,,6,,,46,0
18959,note_on,29,0,16,,,,,,,,10,,,58,0
18959,note_on,29,0,20,,,,,,,,14,,,58,0
18959,note_on,119,0,18,,,,,,,,12,,,67,0
18959,note_on,59,0,8,,,,,,,,3,,,67,0
18959,note_on,0,0,21,,,,,,,,15,,,76,0
18959,note_on,0,0,21,,,,,,,,15,,,67,0
18959,note_on,29,0,21,,,,,,,,15,,,58,0
18959,note_on,59,0,7,,,,,,,,2,,,76,0
18959,note_on,0,0,5,,,,,,,,0,,,67,0
18959,note_on,119,0,5,,,,,,,,0,,,76,0
18959,note_on,29,0,6,,,,,,,,1,,,58,0
18959,note_on,119,0,14,,,,,,,,10,,,67,0
18960,note_on,1,0,17,,,,,,,,11,,,77,72
18960,note_on,1,0,8,,,,,,,,3,,,60,72
18960,note_on,1,0,5,,,,,,,,0,,,72,72
18960,note_on,1,0,20,,,,,,,,14,,,57,72
18960,note_on,1,0,16,,,,,,,,10,,,57,72
18960,note_on,1,0,11,,,,,,,,6,,,45,72
18960,note_on,121,0,15,,,,,,,,10,,,60,72
18960,note_on,0,0,5,,,,,,,,0,,,77,72
18960,note_on,121,0,19,,,,,,,,13,,,60,72
18960,note_on,0,0,6,,,,,,,,1,,,60,72
18960,note_on,0,0,21,,,,,,,,15,,,72,72
18960,note_on,0,0,21,,,,,,,,15,,,77,72
18960,note_on,0,0,21,,,,,,,,15,,,69,72
18960,note_on,1,0,7,,,,,,,,2,,,77,72
18960,note_on,1,0,6,,,,,,,,1,,,57,72
18960,note_on,1,0,21,,,,,,,,15,,,57,72
18989,note_on,29,0,11,,,,,,,,6,,,45,0
18989,note_on,29,0,20,,,,,,,,14,,,57,0
18989,note_on,29,0,16,,,,,,,,10,,,57,0
18989,note_on,29,0,21,,,,,,,,15,,,57,0
18989,note_on,29,0,6,,,,,,,,1,,,57,0
18990,note_on,1,0,11,,,,,,,,6,,,48,72
18990,note_on,1,0,21,,,,,,,,15,,,60,72
18990,note_on,1,0,6,,,,,,,,1,,,60,72
18990,note_on,1,0,20,,,,,,,,14,,,60,72
18990,note_on,1,0,16,,,,,,,,10,,,60,72
19019,note_on,29,0,16,,,,,,,,10,,,60,0
19019,note_on,59,0,5,,,,,,,,0,,,77,0
19019,note_on,29,0,21,,,,,,,,15,,,60,0
19019,note_on,29,0,6,,,,,,,,1,,,60,0
19019,note_on,29,0,11,,,,,,,,6,,,48,0
19019,note_on,29,0,20,,,,,,,,14,,,60,0
19019,note_on,59,0,8,,,,,,,,3,,,60,0
19020,note_on,1,0,8,,,,,,,,3,,,72,72
19020,note_on,1,0,21,,,,,,,,15,,,58,72
19020,note_on,1,0,20,,,,,,,,14,,,58,72
19020,note_on,1,0,16,,,,,,,,10,,,58,72
19020,note_on,61,0,14,,,,,,,,10,,,72,72
19020,note_on,61,0,18,,,,,,,,12,,,72,72
19020,note_on,1,0,6,,,,,,,,1,,,58,72
19020,note_on,1,0,11,,,,,,,,6,,,46,72
19020,note_on,1,0,5,,,,,,,,0,,,72,72
19049,note_on,29,0,21,,,,,,,,15,,,58,0
19049,note_on,29,0,11,,,,,,,,6,,,46,0
19049,note_on,29,0,6,,,,,,,,1,,,58,0
19049,note_on,29,0,20,,,,,,,,14,,,58,0
19049,note_on,29,0,16,,,,,,,,10,,,58,0
19050,note_on,1,0,11,,,,,,,,6,,,45,72
19050,note_on,1,0,6,,,,,,,,1,,,57,72
19050,note_on,1,0,20,,,,,,,,14,,,57,72
19050,note_on,1,0,16,,,,,,,,10,,,57,72
19050,note_on,1,0,21,,,,,,,,15,,,57,72
19079,note_on,29,0,11,,,,,,,,6,,,45,0
19079,note_on,119,0,17,,,,,,,,11,,,77,0
19079,note_on,119,0,15,,,,,,,,10,,,60,0
19079,note_on,239,0,9,,,,,,,,4,,,60,0
19079,note_on,0,0,21,,,,,,,,15,,,72,0
19079,note_on,0,0,21,,,,,,,,15,,,77,0
19079,note_on,119,0,19,,,,,,,,13,,,60,0
19079,note_on,29,0,6,,,,,,,,1,,,57,0
19079,note_on,0,0,6,,,,,,,,1,,,60,0
19079,note_on,0,0,21,,,,,,,,15,,,69,0
19079,note_on,29,0,20,,,,,,,,14,,,57,0
19079,note_on,59,0,5,,,,,,,,0,,,72,0
19079,note_on,29,0,16,,,,,,,,10,,,57,0
19079,note_on,119,0,7,,,,,,,,2,,,77,0
19079,note_on,29,0,21,,,,,,,,15,,,57,0
19080,note_on,1,0,6,,,,,,,,1,,,55,72
19080,note_on,1,0,20,,,,,,,,14,,,55,72
19080,note_on,1,0,7,,,,,,,,2,,,79,72
19080,note_on,0,0,6,,,,,,,,1,,,64,72
19080,note_on,1,0,9,,,,,,,,4,,,64,72
19080,note_on,1,0,11,,,,,,,,6,,,43,72
19080,note_on,1,0,19,,,,,,,,13,,,64,72
19080,note_on,1,0,16,,,,,,,,10,,,55,72
19080,note_on,1,0,5,,,,,,,,0,,,64,72
19080,note_on,1,0,17,,,,,,,,11,,,79,72
19080,note_on,0,0,21,,,,,,,,15,,,76,72
19080,note_on,0,0,21,,,,,,,,15,,,70,72
19080,note_on,1,0,15,,,,,,,,10,,,64,72
19080,note_on,1,0,21,,,,,,,,15,,,55,72
19080,note_on,0,0,21,,,,,,,,15,,,67,72
19109,note_on,29,0,21,,,,,,,,15,,,55,0
19109,note_on,29,0,11,,,,,,,,6,,,43,0
19109,note_on,29,0,20,,,,,,,,14,,,55,0
19109,note_on,29,0,6,,,,,,,,1,,,55,0
19109,note_on,29,0,16,,,,,,,,10,,,55,0
19110,note_on,1,0,11,,,,,,,,6,,,46,72
19110,note_on,1,0,20,,,,,,,,14,,,58,72
19110,note_on,1,0,6,,,,,,,,1,,,58,72
19110,note_on,1,0,16,,,,,,,,10,,,58,72
19110,note_on,1,0,21,,,,,,,,15,,,58,72
19139,note_on,59,0,5,,,,,,,,0,,,72,0
19139,note_on,29,0,11,,,,,,,,6,,,46,0
19139,note_on,119,0,18,,,,,,,,12,,,72,0
19139,note_on,29,0,6,,,,,,,,1,,,58,0
19139,note_on,29,0,20,,,,,,,,14,,,58,0
19139,note_on,119,0,14,,,,,,,,10,,,72,0
19139,note_on,29,0,21,,,,,,,,15,,,58,0
19139,note_on,119,0,8,,,,,,,,3,,,72,0
19139,note_on,29,0,16,,,,,,,,10,,,58,0
19140,note_on,1,0,8,,,,,,,,3,,,70,72
19140,note_on,1,0,5,,,,,,,,0,,,70,72
19140,note_on,1,0,11,,,,,,,,6,,,45,72
19140,note_on,1,0,18,,,,,,,,12,,,70,72
19140,note_on,1,0,16,,,,,,,,10,,,57,72
19140,note_on,1,0,6,,,,,,,,1,,,57,72
19140,note_on,1,0,14,,,,,,,,10,,,70,72
19140,note_on,1,0,21,,,,,,,,15,,,57,72
19140,note_on,1,0,20,,,,,,,,14,,,57,72
19169,note_on,29,0,20,,,,,,,,14,,,57,0
19169,note_on,29,0,6,,,,,,,,1,,,57,0
19169,note_on,29,0,16,,,,,,,,10,,,57,0
19169,note_on,29,0,21,,,,,,,,15,,,57,0
19169,note_on,29,0,11,,,,,,,,6,,,45,0
19170,note_on,1,0,20,,,,,,,,14,,,55,72
19170,note_on,1,0,16,,,,,,,,10,,,55,72
19170,note_on,1,0,11,,,,,,,,6,,,43,72
19170,note_on,1,0,21,,,,,,,,15,,,55,72
19170,note_on,1,0,6,,,,,,,,1,,,55,72
19199,note_on,59,0,5,,,,,,,,0,,,70,0
19199,note_on,119,0,15,,,,,,,,10,,,64,0
19199,note_on,29,0,6,,,,,,,,1,,,55,0
19199,note_on,0,0,21,,,,,,,,15,,,70,0
19199,note_on,29,0,16,,,,,,,,10,,,55,0
19199,note_on,0,0,5,,,,,,,,0,,,64,0
19199,note_on,0,0,21,,,,,,,,15,,,67,0
19199,note_on,0,0,21,,,,,,,,15,,,76,0
19199,note_on,29,0,21,,,,,,,,15,,,55,0
19199,note_on,119,0,17,,,,,,,,11,,,79,0
19199,note_on,119,0,19,,,,,,,,13,,,64,0
19199,note_on,119,0,9,,,,,,,,4,,,64,0
19199,note_on,59,0,8,,,,,,,,3,,,70,0
19199,note_on,29,0,20,,,,,,,,14,,,55,0
19199,note_on,0,0,6,,,,,,,,1,,,64,0
19199,note_on,29,0,11,,,,,,,,6,,,43,0
19199,note_on,119,0,7,,,,,,,,2,,,79,0
19199,note_on,59,0,18,,,,,,,,12,,,70,0
19199,note_on,59,0,14,,,,,,,,10,,,70,0
19200,note_on,0,0,21,,,,,,,,15,,,62,72
19200,note_on,1,0,11,,,,,,,,6,,,41,72
19200,note_on,1,0,16,,,,,,,,10,,,53,72
19200,note_on,1,0,14,,,,,,,,10,,,69,72
19200,note_on,1,0,17,,,,,,,,11,,,81,72
19200,note_on,1,0,21,,,,,,,,15,,,53,72
19200,note_on,1,0,19,,,,,,,,13,,,65,72
19200,note_on,1,0,9,,,,,,,,4,,,65,72
19200,note_on,0,0,21,,,,,,,,15,,,69,72
19200,note_on,1,0,18,,,,,,,,12,,,69,72
19200,note_on,1,0,8,,,,,,,,3,,,69,72
19200,note_on,1,0,6,,,,,,,,1,,,65,72
19200,note_on,0,0,6,,,,,,,,1,,,53,72
19200,note_on,1,0,5,,,,,,,,0,,,69,72
19200,note_on,1,0,20,,,,,,,,14,,,53,72
19200,note_on,1,0,15,,,,,,,,10,,,65,72
19200,note_on,0,0,5,,,,,,,,0,,,65,72
19200,note_on,1,0,7,,,,,,,,2,,,81,72
19229,note_on,29,0,6,,,,,,,,1,,,53,0
19229,note_on,29,0,16,,,,,,,,10,,,53,0
19229,note_on,29,0,11,,,,,,,,6,,,41,0
19229,note_on,29,0,21,,,,,,,,15,,,62,0
19229,note_on,0,0,21,,,,,,,,15,,,69,0
19229,note_on,0,0,21,,,,,,,,15,,,53,0
19229,note_on,29,0,20,,,,,,,,14,,,53,0
19230,note_on,1,0,11,,,,,,,,6,,,43,72
19230,note_on,0,0,21,,,,,,,,15,,,64,72
19230,note_on,1,0,21,,,,,,,,15,,,55,72
19230,note_on,0,0,21,,,,,,,,15,,,70,72
19230,note_on,1,0,16,,,,,,,,10,,,55,72
19230,note_on,1,0,20,,,,,,,,14,,,55,72
19230,note_on,1,0,6,,,,,,,,1,,,55,72
19259,note_on,29,0,6,,,,,,,,1,,,55,0
19259,note_on,29,0,20,,,,,,,,14,,,55,0
19259,note_on,59,0,18,,,,,,,,12,,,69,0
19259,note_on,59,0,14,,,,,,,,10,,,69,0
19259,note_on,29,0,21,,,,,,,,15,,,64,0
19259,note_on,0,0,21,,,,,,,,15,,,70,0
19259,note_on,29,0,11,,,,,,,,6,,,43,0
19259,note_on,0,0,21,,,,,,,,15,,,55,0
19259,note_on,59,0,8,,,,,,,,3,,,69,0
19259,note_on,29,0,16,,,,,,,,10,,,55,0
19260,note_on,1,0,16,,,,,,,,10,,,57,72
19260,note_on,1,0,6,,,,,,,,1,,,57,72
19260,note_on,1,0,21,,,,,,,,15,,,57,72
19260,note_on,0,0,21,,,,,,,,15,,,72,72
19260,note_on,0,0,21,,,,,,,,15,,,65,72
19260,note_on,1,0,8,,,,,,,,3,,,67,72
19260,note_on,1,0,14,,,,,,,,10,,,67,72
19260,note_on,1,0,20,,,,,,,,14,,,57,72
19260,note_on,1,0,11,,,,,,,,6,,,45,72
19260,note_on,1,0,18,,,,,,,,12,,,67,72
19289,note_on,29,0,18,,,,,,,,12,,,67,0
19289,note_on,29,0,14,,,,,,,,10,,,67,0
19289,note_on,29,0,8,,,,,,,,3,,,67,0
19290,note_on,1,0,14,,,,,,,,10,,,65,72
19290,note_on,1,0,18,,,,,,,,12,,,65,72
19290,note_on,1,0,8,,,,,,,,3,,,65,72
19319,note_on,119,0,7,,,,,,,,2,,,81,0
19319,note_on,119,0,17,,,,,,,,11,,,81,0
19319,note_on,119,0,19,,,,,,,,13,,,65,0
19319,note_on,119,0,5,,,,,,,,0,,,65,0
19319,note_on,119,0,15,,,,,,,,10,,,65,0
19319,note_on,59,0,21,,,,,,,,15,,,65,0
19319,note_on,0,0,5,,,,,,,,0,,,69,0
19319,note_on,0,0,21,,,,,,,,15,,,72,0
19319,note_on,29,0,8,,,,,,,,3,,,65,0
19319,note_on,29,0,18,,,,,,,,12,,,65,0
19319,note_on,59,0,6,,,,,,,,1,,,65,0
19319,note_on,119,0,9,,,,,,,,4,,,65,0
19319,note_on,29,0,14,,,,,,,,10,,,65,0
19320,note_on,1,0,9,,,,,,,,4,,,57,72
19320,note_on,1,0,18,,,,,,,,12,,,64,72
19320,note_on,1,0,17,,,,,,,,11,,,73,72
19320,note_on,1,0,8,,,,,,,,3,,,64,72
19320,note_on,0,0,5,,,,,,,,0,,,64,72
19320,note_on,1,0,7,,,,,,,,2,,,73,72
19320,note_on,1,0,14,,,,,,,,10,,,64,72
19320,note_on,1,0,5,,,,,,,,0,,,73,72
19320,note_on,1,0,21,,,,,,,,15,,,73,72
19320,note_on,0,0,21,,,,,,,,15,,,64,72
19349,note_on,30,0,6,,,,,,,,1,,,57,0
19349,note_on,89,0,20,,,,,,,,14,,,57,0
19349,note_on,29,0,21,,,,,,,,15,,,57,0
19349,note_on,89,0,16,,,,,,,,10,,,57,0
19349,note_on,89,0,11,,,,,,,,6,,,45,0
19350,note_on,1,0,6,,,,,,,,1,,,58,72
19350,note_on,1,0,16,,,,,,,,10,,,58,72
19350,note_on,1,0,21,,,,,,,,15,,,58,72
19350,note_on,1,0,20,,,,,,,,14,,,58,72
19350,note_on,1,0,11,,,,,,,,6,,,46,72
19379,note_on,59,0,7,,,,,,,,2,,,73,0
19379,note_on,29,0,6,,,,,,,,1,,,58,0
19379,note_on,29,0,11,,,,,,,,6,,,46,0
19379,note_on,29,0,20,,,,,,,,14,,,58,0
19379,note_on,59,0,9,,,,,,,,4,,,57,0
19379,note_on,29,0,21,,,,,,,,15,,,58,0
19379,note_on,59,0,17,,,,,,,,11,,,73,0
19379,note_on,29,0,16,,,,,,,,10,,,58,0
19380,note_on,1,0,20,,,,,,,,14,,,57,72
19380,note_on,1,0,6,,,,,,,,1,,,57,72
19380,note_on,1,0,9,,,,,,,,4,,,57,72
19380,note_on,1,0,17,,,,,,,,11,,,73,72
19380,note_on,1,0,21,,,,,,,,15,,,57,72
19380,note_on,1,0,16,,,,,,,,10,,,57,72
19380,note_on,1,0,11,,,,,,,,6,,,45,72
19380,note_on,1,0,7,,,,,,,,2,,,73,72
19409,note_on,29,0,6,,,,,,,,1,,,57,0
19409,note_on,29,0,16,,,,,,,,10,,,57,0
19409,note_on,29,0,11,,,,,,,,6,,,45,0
19409,note_on,29,0,20,,,,,,,,14,,,57,0
19409,note_on,29,0,21,,,,,,,,15,,,57,0
19410,note_on,1,0,6,,,,,,,,1,,,55,72
19410,note_on,1,0,21,,,,,,,,15,,,55,72
19410,note_on,1,0,20,,,,,,,,14,,,55,72
19410,note_on,1,0,16,,,,,,,,10,,,55,72
19410,note_on,1,0,11,,,,,,,,6,,,43,72
19439,note_on,29,0,20,,,,,,,,14,,,55,0
19439,note_on,0,0,5,,,,,,,,0,,,73,0
19439,note_on,119,0,5,,,,,,,,0,,,64,0
19439,note_on,29,0,16,,,,,,,,10,,,55,0
19439,note_on,29,0,11,,,,,,,,6,,,43,0
19439,note_on,59,0,17,,,,,,,,11,,,73,0
19439,note_on,119,0,8,,,,,,,,3,,,64,0
19439,note_on,0,0,21,,,,,,,,15,,,73,0
19439,note_on,119,0,18,,,,,,,,12,,,64,0
19439,note_on,119,0,14,,,,,,,,10,,,64,0
19439,note_on,29,0,21,,,,,,,,15,,,55,0
19439,note_on,29,0,6,,,,,,,,1,,,55,0
19439,note_on,0,0,21,,,,,,,,15,,,64,0
19439,note_on,59,0,9,,,,,,,,4,,,57,0
19439,note_on,59,0,7,,,,,,,,2,,,73,0
19440,note_on,1,0,6,,,,,,,,1,,,53,72
19440,note_on,1,0,7,,,,,,,,2,,,74,72
19440,note_on,0,0,21,,,,,,,,15,,,74,72
19440,note_on,121,0,15,,,,,,,,10,,,57,72
19440,note_on,1,0,21,,,,,,,,15,,,53,72
19440,note_on,1,0,20,,,,,,,,14,,,53,72
19440,note_on,1,0,16,,,,,,,,10,,,53,72
19440,note_on,0,0,5,,,,,,,,0,,,69,72
19440,note_on,0,0,6,,,,,,,,1,,,57,72
19440,note_on,0,0,21,,,,,,,,15,,,69,72
19440,note_on,1,0,5,,,,,,,,0,,,74,72
19440,note_on,1,0,9,,,,,,,,4,,,57,72
19440,note_on,121,0,19,,,,,,,,13,,,57,72
19440,note_on,1,0,17,,,,,,,,11,,,74,72
19440,note_on,1,0,11,,,,,,,,6,,,41,72
19469,note_on,29,0,20,,,,,,,,14,,,53,0
19469,note_on,29,0,11,,,,,,,,6,,,41,0
19469,note_on,29,0,21,,,,,,,,15,,,53,0
19469,note_on,29,0,6,,,,,,,,1,,,53,0
19469,note_on,29,0,16,,,,,,,,10,,,53,0
19470,note_on,1,0,21,,,,,,,,15,,,57,72
19470,note_on,1,0,6,,,,,,,,1,,,57,72
19470,note_on,1,0,16,,,,,,,,10,,,57,72
19470,note_on,1,0,11,,,,,,,,6,,,45,72
19470,note_on,1,0,20,,,,,,,,14,,,57,72
19499,note_on,29,0,21,,,,,,,,15,,,57,0
19499,note_on,29,0,6,,,,,,,,1,,,57,0
19499,note_on,29,0,20,,,,,,,,14,,,57,0
19499,note_on,29,0,11,,,,,,,,6,,,45,0
19499,note_on,29,0,16,,,,,,,,10,,,57,0
19500,note_on,1,0,16,,,,,,,,10,,,55,72
19500,note_on,61,0,8,,,,,,,,3,,,69,72
19500,note_on,1,0,20,,,,,,,,14,,,55,72
19500,note_on,1,0,11,,,,,,,,6,,,43,72
19500,note_on,61,0,14,,,,,,,,10,,,69,72
19500,note_on,61,0,18,,,,,,,,12,,,69,72
19500,note_on,1,0,6,,,,,,,,1,,,55,72
19500,note_on,1,0,21,,,,,,,,15,,,55,72
19529,note_on,29,0,11,,,,,,,,6,,,43,0
19529,note_on,29,0,20,,,,,,,,14,,,55,0
19529,note_on,29,0,6,,,,,,,,1,,,55,0
19529,note_on,29,0,21,,,,,,,,15,,,55,0
19529,note_on,29,0,16,,,,,,,,10,,,55,0
19530,note_on,1,0,21,,,,,,,,15,,,53,72
19530,note_on,1,0,11,,,,,,,,6,,,41,72
19530,note_on,1,0,20,,,,,,,,14,,,53,72
19530,note_on,1,0,16,,,,,,,,10,,,53,72
19530,note_on,1,0,6,,,,,,,,1,,,53,72
19559,note_on,29,0,16,,,,,,,,10,,,53,0
19559,note_on,119,0,19,,,,,,,,13,,,57,0
19559,note_on,119,0,17,,,,,,,,11,,,74,0
19559,note_on,29,0,20,,,,,,,,14,,,53,0
19559,note_on,119,0,9,,,,,,,,4,,,57,0
19559,note_on,29,0,11,,,,,,,,6,,,41,0
19559,note_on,0,0,6,,,,,,,,1,,,57,0
19559,note_on,119,0,7,,,,,,,,2,,,74,0
19559,note_on,29,0,6,,,,,,,,1,,,53,0
19559,note_on,29,0,21,,,,,,,,15,,,53,0
19559,note_on,119,0,5,,,,,,,,0,,,74,0
19559,note_on,119,0,15,,,,,,,,10,,,57,0
19559,note_on,0,0,21,,,,,,,,15,,,69,0
19559,note_on,0,0,21,,,,,,,,15,,,74,0
19560,note_on,0,0,21,,,,,,,,15,,,61,72
19560,note_on,0,0,21,,,,,,,,15,,,67,72
19560,note_on,1,0,21,,,,,,,,15,,,52,72
19560,note_on,1,0,9,,,,,,,,4,,,61,72
19560,note_on,1,0,16,,,,,,,,10,,,52,72
19560,note_on,1,0,15,,,,,,,,10,,,61,72
19560,note_on,1,0,17,,,,,,,,11,,,76,72
19560,note_on,1,0,11,,,,,,,,6,,,40,72
19560,note_on,0,0,6,,,,,,,,1,,,61,72
19560,note_on,1,0,6,,,,,,,,1,,,52,72
19560,note_on,1,0,19,,,,,,,,13,,,61,72
19560,note_on,1,0,20,,,,,,,,14,,,52,72
19560,note_on,1,0,7,,,,,,,,2,,,76,72
19560,note_on,1,0,5,,,,,,,,0,,,76,72
19589,note_on,29,0,11,,,,,,,,6,,,40,0
19589,note_on,29,0,20,,,,,,,,14,,,52,0
19589,note_on,29,0,21,,,,,,,,15,,,52,0
19589,note_on,29,0,16,,,,,,,,10,,,52,0
19589,note_on,29,0,6,,,,,,,,1,,,52,0
19590,note_on,1,0,16,,,,,,,,10,,,55,72
19590,note_on,1,0,6,,,,,,,,1,,,55,72
19590,note_on,1,0,11,,,,,,,,6,,,43,72
19590,note_on,1,0,20,,,,,,,,14,,,55,72
19590,note_on,1,0,21,,,,,,,,15,,,55,72
19619,note_on,29,0,6,,,,,,,,1,,,55,0
19619,note_on,29,0,11,,,,,,,,6,,,43,0
19619,note_on,29,0,20,,,,,,,,14,,,55,0
19619,note_on,59,0,5,,,,,,,,0,,,69,0
19619,note_on,119,0,8,,,,,,,,3,,,69,0
19619,note_on,29,0,21,,,,,,,,15,,,55,0
19619,note_on,29,0,16,,,,,,,,10,,,55,0
19619,note_on,119,0,14,,,,,,,,10,,,69,0
19619,note_on,119,0,18,,,,,,,,12,,,69,0
19620,note_on,1,0,5,,,,,,,,0,,,67,72
19620,note_on,1,0,18,,,,,,,,12,,,67,72
19620,note_on,1,0,20,,,,,,,,14,,,53,72
19620,note_on,1,0,21,,,,,,,,15,,,53,72
19620,note_on,1,0,6,,,,,,,,1,,,53,72
19620,note_on,1,0,8,,,,,,,,3,,,67,72
19620,note_on,1,0,16,,,,,,,,10,,,53,72
19620,note_on,1,0,11,,,,,,,,6,,,41,72
19620,note_on,1,0,14,,,,,,,,10,,,67,72
19649,note_on,29,0,21,,,,,,,,15,,,53,0
19649,note_on,29,0,6,,,,,,,,1,,,53,0
19649,note_on,29,0,11,,,,,,,,6,,,41,0
19649,note_on,29,0,20,,,,,,,,14,,,53,0
19649,note_on,29,0,16,,,,,,,,10,,,53,0
19650,note_on,1,0,11,,,,,,,,6,,,40,72
19650,note_on,1,0,20,,,,,,,,14,,,52,72
19650,note_on,1,0,21,,,,,,,,15,,,52,72
19650,note_on,1,0,16,,,,,,,,10,,,52,72
19650,note_on,1,0,6,,,,,,,,1,,,52,72
19679,note_on,0,0,21,,,,,,,,15,,,61,0
19679,note_on,0,0,5,,,,,,,,0,,,76,0
19679,note_on,119,0,7,,,,,,,,2,,,76,0
19679,note_on,119,0,17,,,,,,,,11,,,76,0
19679,note_on,59,0,14,,,,,,,,10,,,67,0
19679,note_on,59,0,8,,,,,,,,3,,,67,0
19679,note_on,0,0,21,,,,,,,,15,,,67,0
19679,note_on,29,0,21,,,,,,,,15,,,52,0
19679,note_on,119,0,15,,,,,,,,10,,,61,0
19679,note_on,29,0,6,,,,,,,,1,,,52,0
19679,note_on,29,0,11,,,,,,,,6,,,40,0
19679,note_on,119,0,9,,,,,,,,4,,,61,0
19679,note_on,59,0,5,,,,,,,,0,,,67,0
19679,note_on,119,0,19,,,,,,,,13,,,61,0
19679,note_on,29,0,20,,,,,,,,14,,,52,0
19679,note_on,29,0,16,,,,,,,,10,,,52,0
19679,note_on,0,0,6,,,,,,,,1,,,61,0
19679,note_on,59,0,18,,,,,,,,12,,,67,0
19680,note_on,1,0,11,,,,,,,,6,,,38,72
19680,note_on,1,0,17,,,,,,,,11,,,77,72
19680,note_on,1,0,7,,,,,,,,2,,,77,72
19680,note_on,1,0,16,,,,,,,,10,,,50,72
19680,note_on,1,0,5,,,,,,,,0,,,77,72
19680,note_on,0,0,5,,,,,,,,0,,,65,72
19680,note_on,1,0,15,,,,,,,,10,,,62,72
19680,note_on,1,0,6,,,,,,,,1,,,62,72
19680,note_on,0,0,6,,,,,,,,1,,,50,72
19680,note_on,1,0,14,,,,,,,,10,,,65,72
19680,note_on,1,0,18,,,,,,,,12,,,65,72
19680,note_on,0,0,21,,,,,,,,15,,,62,72
19680,note_on,0,0,21,,,,,,,,15,,,69,72
19680,note_on,0,0,21,,,,,,,,15,,,65,72
19680,note_on,1,0,21,,,,,,,,15,,,50,72
19680,note_on,1,0,8,,,,,,,,3,,,65,72
19680,note_on,1,0,9,,,,,,,,4,,,62,72
19680,note_on,1,0,20,,,,,,,,14,,,50,72
19680,note_on,1,0,19,,,,,,,,13,,,62,72
19709,note_on,29,0,6,,,,,,,,1,,,50,0
19709,note_on,29,0,21,,,,,,,,15,,,50,0
19709,note_on,29,0,16,,,,,,,,10,,,50,0
19709,note_on,29,0,20,,,,,,,,14,,,50,0
19709,note_on,29,0,11,,,,,,,,6,,,38,0
19710,note_on,1,0,11,,,,,,,,6,,,39,72
19710,note_on,1,0,21,,,,,,,,15,,,51,72
19710,note_on,1,0,20,,,,,,,,14,,,51,72
19710,note_on,1,0,16,,,,,,,,10,,,51,72
19710,note_on,1,0,6,,,,,,,,1,,,51,72
19739,note_on,29,0,20,,,,,,,,14,,,51,0
19739,note_on,59,0,14,,,,,,,,10,,,65,0
19739,note_on,59,0,8,,,,,,,,3,,,65,0
19739,note_on,29,0,11,,,,,,,,6,,,39,0
19739,note_on,29,0,6,,,,,,,,1,,,51,0
19739,note_on,29,0,16,,,,,,,,10,,,51,0
19739,note_on,59,0,18,,,,,,,,12,,,65,0
19739,note_on,29,0,21,,,,,,,,15,,,51,0
19739,note_on,0,0,21,,,,,,,,15,,,69,0
19740,note_on,1,0,20,,,,,,,,14,,,53,72
19740,note_on,1,0,8,,,,,,,,3,,,63,72
19740,note_on,1,0,14,,,,,,,,10,,,63,72
19740,note_on,1,0,11,,,,,,,,6,,,41,72
19740,note_on,1,0,18,,,,,,,,12,,,63,72
19740,note_on,1,0,21,,,,,,,,15,,,53,72
19740,note_on,1,0,6,,,,,,,,1,,,53,72
19740,note_on,1,0,16,,,,,,,,10,,,53,72
19740,note_on,0,0,21,,,,,,,,15,,,69,72
19769,note_on,29,0,14,,,,,,,,10,,,63,0
19769,note_on,29,0,8,,,,,,,,3,,,63,0
19769,note_on,29,0,18,,,,,,,,12,,,63,0
19770,note_on,1,0,18,,,,,,,,12,,,62,72
19770,note_on,1,0,14,,,,,,,,10,,,62,72
19770,note_on,1,0,8,,,,,,,,3,,,62,72
19799,note_on,0,0,21,,,,,,,,15,,,62,0
19799,note_on,119,0,17,,,,,,,,11,,,77,0
19799,note_on,0,0,21,,,,,,,,15,,,65,0
19799,note_on,119,0,9,,,,,,,,4,,,62,0
19799,note_on,59,0,21,,,,,,,,15,,,69,0
19799,note_on,119,0,15,,,,,,,,10,,,62,0
19799,note_on,59,0,6,,,,,,,,1,,,62,0
19799,note_on,29,0,14,,,,,,,,10,,,62,0
19799,note_on,119,0,7,,,,,,,,2,,,77,0
19799,note_on,29,0,8,,,,,,,,3,,,62,0
19799,note_on,119,0,19,,,,,,,,13,,,62,0
19799,note_on,29,0,18,,,,,,,,12,,,62,0
19799,note_on,119,0,5,,,,,,,,0,,,65,0
19799,note_on,0,0,5,,,,,,,,0,,,77,0
19800,note_on,1,0,7,,,,,,,,2,,,69,72
19800,note_on,1,0,17,,,,,,,,11,,,69,72
19800,note_on,1,0,9,,,,,,,,4,,,53,72
19800,note_on,0,0,21,,,,,,,,15,,,60,72
19800,note_on,1,0,21,,,,,,,,15,,,69,72
19800,note_on,1,0,18,,,,,,,,12,,,60,72
19800,note_on,0,0,21,,,,,,,,15,,,65,72
19800,note_on,0,0,5,,,,,,,,0,,,60,72
19800,note_on,1,0,5,,,,,,,,0,,,69,72
19800,note_on,1,0,8,,,,,,,,3,,,60,72
19800,note_on,1,0,14,,,,,,,,10,,,60,72
19829,note_on,30,0,6,,,,,,,,1,,,53,0
19829,note_on,89,0,16,,,,,,,,10,,,53,0
19829,note_on,29,0,21,,,,,,,,15,,,53,0
19829,note_on,89,0,11,,,,,,,,6,,,41,0
19829,note_on,89,0,20,,,,,,,,14,,,53,0
19830,note_on,1,0,21,,,,,,,,15,,,55,72
19830,note_on,1,0,6,,,,,,,,1,,,55,72
19830,note_on,1,0,16,,,,,,,,10,,,55,72
19830,note_on,1,0,11,,,,,,,,6,,,43,72
19830,note_on,1,0,20,,,,,,,,14,,,55,72
19859,note_on,29,0,6,,,,,,,,1,,,55,0
19859,note_on,59,0,7,,,,,,,,2,,,69,0
19859,note_on,29,0,11,,,,,,,,6,,,43,0
19859,note_on,59,0,17,,,,,,,,11,,,69,0
19859,note_on,59,0,9,,,,,,,,4,,,53,0
19859,note_on,29,0,16,,,,,,,,10,,,55,0
19859,note_on,29,0,21,,,,,,,,15,,,55,0
19859,note_on,29,0,20,,,,,,,,14,,,55,0
19860,note_on,1,0,9,,,,,,,,4,,,53,72
19860,note_on,1,0,16,,,,,,,,10,,,53,72
19860,note_on,1,0,20,,,,,,,,14,,,53,72
19860,note_on,1,0,6,,,,,,,,1,,,53,72
19860,note_on,1,0,21,,,,,,,,15,,,53,72
19860,note_on,1,0,11,,,,,,,,6,,,41,72
19860,note_on,1,0,7,,,,,,,,2,,,69,72
19860,note_on,1,0,17,,,,,,,,11,,,69,72
19889,note_on,29,0,20,,,,,,,,14,,,53,0
19889,note_on,29,0,6,,,,,,,,1,,,53,0
19889,note_on,29,0,21,,,,,,,,15,,,53,0
19889,note_on,29,0,16,,,,,,,,10,,,53,0
19889,note_on,29,0,11,,,,,,,,6,,,41,0
19890,note_on,1,0,21,,,,,,,,15,,,52,72
19890,note_on,1,0,20,,,,,,,,14,,,52,72
19890,note_on,1,0,16,,,,,,,,10,,,52,72
19890,note_on,1,0,6,,,,,,,,1,,,51,72
19890,note_on,1,0,11,,,,,,,,6,,,40,72
19919,note_on,59,0,17,,,,,,,,11,,,69,0
19919,note_on,59,0,9,,,,,,,,4,,,53,0
19919,note_on,29,0,6,,,,,,,,1,,,51,0
19919,note_on,119,0,5,,,,,,,,0,,,60,0
19919,note_on,0,0,5,,,,,,,,0,,,69,0
19919,note_on,119,0,8,,,,,,,,3,,,60,0
19919,note_on,0,0,21,,,,,,,,15,,,65,0
19919,note_on,119,0,14,,,,,,,,10,,,60,0
19919,note_on,119,0,18,,,,,,,,12,,,60,0
19919,note_on,59,0,7,,,,,,,,2,,,69,0
19919,note_on,29,0,16,,,,,,,,10,,,52,0
19919,note_on,29,0,20,,,,,,,,14,,,52,0
19919,note_on,29,0,11,,,,,,,,6,,,40,0
19919,note_on,29,0,21,,,,,,,,15,,,52,0
19919,note_on,0,0,21,,,,,,,,15,,,60,0
19919,note_on,0,0,21,,,,,,,,15,,,69,0
19920,note_on,1,0,11,,,,,,,,6,,,38,72
19920,note_on,121,0,19,,,,,,,,13,,,53,72
19920,note_on,1,0,20,,,,,,,,14,,,50,72
19920,note_on,1,0,9,,,,,,,,4,,,53,72
19920,note_on,0,0,5,,,,,,,,0,,,65,72
19920,note_on,121,0,15,,,,,,,,10,,,53,72
19920,note_on,0,0,6,,,,,,,,1,,,53,72
19920,note_on,1,0,5,,,,,,,,0,,,70,72
19920,note_on,1,0,21,,,,,,,,15,,,50,72
19920,note_on,0,0,21,,,,,,,,15,,,65,72
19920,note_on,0,0,21,,,,,,,,15,,,70,72
19920,note_on,1,0,16,,,,,,,,10,,,50,72
19920,note_on,1,0,7,,,,,,,,2,,,70,72
19920,note_on,1,0,6,,,,,,,,1,,,50,72
19920,note_on,1,0,17,,,,,,,,11,,,70,72
19949,note_on,29,0,20,,,,,,,,14,,,50,0
19949,note_on,29,0,6,,,,,,,,1,,,50,0
19949,note_on,29,0,21,,,,,,,,15,,,50,0
19949,note_on,29,0,11,,,,,,,,6,,,38,0
19949,note_on,29,0,16,,,,,,,,10,,,50,0
19950,note_on,1,0,20,,,,,,,,14,,,53,72
19950,note_on,1,0,11,,,,,,,,6,,,41,72
19950,note_on,1,0,16,,,,,,,,10,,,53,72
19950,note_on,1,0,6,,,,,,,,1,,,53,72
19950,note_on,1,0,21,,,,,,,,15,,,53,72
19979,note_on,29,0,6,,,,,,,,1,,,53,0
19979,note_on,29,0,11,,,,,,,,6,,,41,0
19979,note_on,29,0,16,,,,,,,,10,,,53,0
19979,note_on,29,0,21,,,,,,,,15,,,53,0
19979,note_on,29,0,20,,,,,,,,14,,,53,0
19980,note_on,61,0,14,,,,,,,,10,,,65,72
19980,note_on,1,0,21,,,,,,,,15,,,52,72
19980,note_on,1,0,20,,,,,,,,14,,,52,72
19980,note_on,1,0,11,,,,,,,,6,,,40,72
19980,note_on,61,0,8,,,,,,,,3,,,65,72
19980,note_on,1,0,6,,,,,,,,1,,,51,72
19980,note_on,61,0,18,,,,,,,,12,,,65,72
19980,note_on,1,0,16,,,,,,,,10,,,52,72
20009,note_on,29,0,20,,,,,,,,14,,,52,0
20009,note_on,29,0,11,,,,,,,,6,,,40,0
20009,note_on,29,0,21,,,,,,,,15,,,52,0
20009,note_on,29,0,16,,,,,,,,10,,,52,0
20009,note_on,29,0,6,,,,,,,,1,,,51,0
20010,note_on,1,0,11,,,,,,,,6,,,38,72
20010,note_on,1,0,6,,,,,,,,1,,,50,72
20010,note_on,1,0,16,,,,,,,,10,,,50,72
20010,note_on,1,0,21,,,,,,,,15,,,50,72
20010,note_on,1,0,20,,,,,,,,14,,,50,72
20039,note_on,29,0,11,,,,,,,,6,,,38,0
20039,note_on,29,0,16,,,,,,,,10,,,50,0
20039,note_on,119,0,15,,,,,,,,10,,,53,0
20039,note_on,29,0,21,,,,,,,,15,,,50,0
20039,note_on,0,0,21,,,,,,,,15,,,65,0
20039,note_on,0,0,21,,,,,,,,15,,,70,0
20039,note_on,119,0,5,,,,,,,,0,,,70,0
20039,note_on,119,0,17,,,,,,,,11,,,70,0
20039,note_on,119,0,19,,,,,,,,13,,,53,0
20039,note_on,29,0,20,,,,,,,,14,,,50,0
20039,note_on,119,0,7,,,,,,,,2,,,70,0
20039,note_on,29,0,6,,,,,,,,1,,,50,0
20039,note_on,119,0,9,,,,,,,,4,,,53,0
20039,note_on,0,0,6,,,,,,,,1,,,53,0
20040,note_on,0,0,21,,,,,,,,15,,,63,72
20040,note_on,1,0,21,,,,,,,,15,,,48,72
20040,note_on,0,0,21,,,,,,,,15,,,69,72
20040,note_on,1,0,16,,,,,,,,10,,,48,72
20040,note_on,1,0,15,,,,,,,,10,,,57,72
20040,note_on,1,0,17,,,,,,,,11,,,72,72
20040,note_on,1,0,5,,,,,,,,0,,,72,72
20040,note_on,1,0,9,,,,,,,,4,,,57,72
20040,note_on,1,0,11,,,,,,,,6,,,36,72
20040,note_on,1,0,7,,,,,,,,2,,,72,72
20040,note_on,1,0,19,,,,,,,,13,,,57,72
20040,note_on,1,0,20,,,,,,,,14,,,48,72
20040,note_on,1,0,6,,,,,,,,1,,,48,72
20040,note_on,0,0,6,,,,,,,,1,,,57,72
20069,note_on,29,0,16,,,,,,,,10,,,48,0
20069,note_on,29,0,20,,,,,,,,14,,,48,0
20069,note_on,29,0,21,,,,,,,,15,,,48,0
20069,note_on,29,0,11,,,,,,,,6,,,36,0
20069,note_on,29,0,6,,,,,,,,1,,,48,0
20070,note_on,1,0,21,,,,,,,,15,,,52,72
20070,note_on,1,0,16,,,,,,,,10,,,52,72
20070,note_on,1,0,20,,,,,,,,14,,,52,72
20070,note_on,1,0,6,,,,,,,,1,,,51,72
20070,note_on,1,0,11,,,,,,,,6,,,40,72
20099,note_on,119,0,18,,,,,,,,12,,,65,0
20099,note_on,59,0,5,,,,,,,,0,,,65,0
20099,note_on,29,0,20,,,,,,,,14,,,52,0
20099,note_on,119,0,8,,,,,,,,3,,,65,0
20099,note_on,29,0,21,,,,,,,,15,,,52,0
20099,note_on,29,0,11,,,,,,,,6,,,40,0
20099,note_on,29,0,16,,,,,,,,10,,,52,0
20099,note_on,119,0,14,,,,,,,,10,,,65,0
20099,note_on,29,0,6,,,,,,,,1,,,51,0
20100,note_on,1,0,18,,,,,,,,12,,,64,72
20100,note_on,1,0,5,,,,,,,,0,,,63,72
20100,note_on,1,0,20,,,,,,,,14,,,50,72
20100,note_on,1,0,6,,,,,,,,1,,,50,72
20100,note_on,1,0,8,,,,,,,,3,,,64,72
20100,note_on,1,0,21,,,,,,,,15,,,50,72
20100,note_on,1,0,11,,,,,,,,6,,,38,72
20100,note_on,1,0,14,,,,,,,,10,,,64,72
20100,note_on,1,0,16,,,,,,,,10,,,50,72
20129,note_on,29,0,6,,,,,,,,1,,,50,0
20129,note_on,29,0,20,,,,,,,,14,,,50,0
20129,note_on,29,0,11,,,,,,,,6,,,38,0
20129,note_on,29,0,21,,,,,,,,15,,,50,0
20129,note_on,29,0,16,,,,,,,,10,,,50,0
20130,note_on,1,0,21,,,,,,,,15,,,48,72
20130,note_on,1,0,6,,,,,,,,1,,,48,72
20130,note_on,1,0,11,,,,,,,,6,,,36,72
20130,note_on,1,0,20,,,,,,,,14,,,48,72
20130,note_on,1,0,16,,,,,,,,10,,,48,72
20159,note_on,59,0,8,,,,,,,,3,,,64,0
20159,note_on,29,0,21,,,,,,,,15,,,48,0
20159,note_on,29,0,6,,,,,,,,1,,,48,0
20159,note_on,29,0,16,,,,,,,,10,,,48,0
20159,note_on,119,0,19,,,,,,,,13,,,57,0
20159,note_on,29,0,20,,,,,,,,14,,,48,0
20159,note_on,59,0,14,,,,,,,,10,,,64,0
20159,note_on,29,0,11,,,,,,,,6,,,36,0
20159,note_on,119,0,7,,,,,,,,2,,,72,0
20159,note_on,59,0,18,,,,,,,,12,,,64,0
20159,note_on,0,0,21,,,,,,,,15,,,69,0
20159,note_on,0,0,21,,,,,,,,15,,,63,0
20159,note_on,0,0,6,,,,,,,,1,,,57,0
20159,note_on,119,0,17,,,,,,,,11,,,72,0
20159,note_on,119,0,15,,,,,,,,10,,,57,0
20159,note_on,59,0,5,,,,,,,,0,,,63,0
20159,note_on,0,0,5,,,,,,,,0,,,72,0
20159,note_on,119,0,9,,,,,,,,4,,,57,0
20160,note_on,1,0,18,,,,,,,,12,,,62,72
20160,note_on,1,0,7,,,,,,,,2,,,74,72
20160,note_on,1,0,11,,,,,,,,6,,,34,72
20160,note_on,1,0,5,,,,,,,,0,,,74,72
20160,note_on,0,0,5,,,,,,,,0,,,62,72
20160,note_on,1,0,17,,,,,,,,11,,,74,72
20160,note_on,1,0,19,,,,,,,,13,,,58,72
20160,note_on,1,0,20,,,,,,,,14,,,46,72
20160,note_on,1,0,21,,,,,,,,15,,,46,72
20160,note_on,1,0,15,,,,,,,,10,,,58,72
20160,note_on,1,0,16,,,,,,,,10,,,46,72
20160,note_on,0,0,21,,,,,,,,15,,,58,72
20160,note_on,1,0,14,,,,,,,,10,,,62,72
20160,note_on,0,0,21,,,,,,,,15,,,62,72
20160,note_on,0,0,21,,,,,,,,15,,,65,72
20160,note_on,1,0,8,,,,,,,,3,,,62,72
20160,note_on,1,0,6,,,,,,,,1,,,58,72
20160,note_on,0,0,6,,,,,,,,1,,,46,72
20160,note_on,1,0,9,,,,,,,,4,,,58,72
20219,note_on,59,0,5,,,,,,,,0,,,62,0
20219,note_on,0,0,5,,,,,,,,0,,,74,0
20219,note_on,59,0,17,,,,,,,,11,,,74,0
20219,note_on,0,0,6,,,,,,,,1,,,58,0
20219,note_on,59,0,6,,,,,,,,1,,,46,0
20220,note_on,1,0,17,,,,,,,,11,,,74,72
20220,note_on,1,0,6,,,,,,,,1,,,58,72
20220,note_on,0,0,6,,,,,,,,1,,,65,72
20220,note_on,16741,0,13,,,,,,,,8,,,50,72
20220,note_on,0,0,12,,,,,,,,7,,,62,76
20220,note_on,16741,0,12,,,,,,,,7,,,74,76
20220,note_on,0,0,5,,,,,,,,0,,,70,72
20220,note_on,1,0,5,,,,,,,,0,,,77,72
20279,note_on,119,0,18,,,,,,,,12,,,62,0
20279,note_on,119,0,19,,,,,,,,13,,,58,0
20279,note_on,119,0,7,,,,,,,,2,,,74,0
20279,note_on,119,0,11,,,,,,,,6,,,34,0
20279,note_on,0,0,5,,,,,,,,0,,,77,0
20279,note_on,119,0,16,,,,,,,,10,,,46,0
20279,note_on,119,0,8,,,,,,,,3,,,62,0
20279,note_on,59,0,5,,,,,,,,0,,,70,0
20279,note_on,119,0,21,,,,,,,,15,,,58,0
20279,note_on,0,0,21,,,,,,,,15,,,46,0
20279,note_on,0,0,21,,,,,,,,15,,,62,0
20279,note_on,0,0,21,,,,,,,,15,,,65,0
20279,note_on,59,0,12,,,,,,,,7,,,62,0
20279,note_on,0,0,6,,,,,,,,1,,,58,0
20279,note_on,59,0,6,,,,,,,,1,,,65,0
20279,note_on,119,0,14,,,,,,,,10,,,62,0
20279,note_on,119,0,9,,,,,,,,4,,,58,0
20279,note_on,0,0,12,,,,,,,,7,,,74,0
20279,note_on,119,0,15,,,,,,,,10,,,58,0
20279,note_on,59,0,17,,,,,,,,11,,,74,0
20279,note_on,59,0,13,,,,,,,,8,,,50,0
20279,note_on,119,0,20,,,,,,,,14,,,46,0
20280,note_on,1,0,6,,,,,,,,1,,,58,72
20280,note_on,1,0,13,,,,,,,,8,,,50,72
20280,note_on,1,0,12,,,,,,,,7,,,62,76
20280,note_on,0,0,12,,,,,,,,7,,,74,76
20280,note_on,0,0,5,,,,,,,,0,,,70,72
20280,note_on,1,0,5,,,,,,,,0,,,77,72
20280,note_on,0,0,6,,,,,,,,1,,,65,72
20280,note_on,1,0,17,,,,,,,,11,,,74,72
20339,note_on,59,0,5,,,,,,,,0,,,70,0
20339,note_on,0,0,5,,,,,,,,0,,,77,0
20339,note_on,59,0,13,,,,,,,,8,,,50,0
20339,note_on,59,0,17,,,,,,,,11,,,74,0
20339,note_on,0,0,6,,,,,,,,1,,,58,0
20339,note_on,59,0,6,,,,,,,,1,,,65,0
20339,note_on,0,0,12,,,,,,,,7,,,62,0
20339,note_on,59,0,12,,,,,,,,7,,,74,0
20340,note_on,1,0,13,,,,,,,,8,,,50,72
20340,note_on,0,0,5,,,,,,,,0,,,70,72
20340,note_on,0,0,12,,,,,,,,7,,,62,76
20340,note_on,1,0,6,,,,,,,,1,,,58,72
20340,note_on,1,0,17,,,,,,,,11,,,74,72
20340,note_on,1,0,5,,,,,,,,0,,,77,72
20340,note_on,1,0,12,,,,,,,,7,,,74,76
20340,note_on,0,0,6,,,,,,,,1,,,65,72
20385,note_on,106,0,8,,,,,,,,3,,,72,72
20385,note_on,106,0,7,,,,,,,,2,,,72,72
20399,note_on,14,0,8,,,,,,,,3,,,72,0
20399,note_on,0,0,5,,,,,,,,0,,,77,0
20399,note_on,0,0,12,,,,,,,,7,,,74,0
20399,note_on,59,0,6,,,,,,,,1,,,65,0
20399,note_on,0,0,6,,,,,,,,1,,,58,0
20399,note_on,14,0,7,,,,,,,,2,,,72,0
20399,note_on,59,0,5,,,,,,,,0,,,70,0
20399,note_on,59,0,13,,,,,,,,8,,,50,0
20399,note_on,59,0,17,,,,,,,,11,,,74,0
20399,note_on,59,0,12,,,,,,,,7,,,62,0
20400,note_on,1,0,13,,,,,,,,8,,,50,72
20400,note_on,1,0,5,,,,,,,,0,,,77,72
20400,note_on,1,0,17,,,,,,,,11,,,77,72
20400,note_on,1,0,8,,,,,,,,3,,,70,72
20400,note_on,0,0,6,,,,,,,,1,,,58,72
20400,note_on,1,0,6,,,,,,,,1,,,65,72
20400,note_on,1,0,12,,,,,,,,7,,,74,76
20400,note_on,1,0,7,,,,,,,,2,,,70,72
20400,note_on,0,0,12,,,,,,,,7,,,62,76
20400,note_on,0,0,5,,,,,,,,0,,,70,72
20414,note_on,14,0,7,,,,,,,,2,,,70,0
20414,note_on,14,0,8,,,,,,,,3,,,70,0
20415,note_on,1,0,7,,,,,,,,2,,,69,72
20415,note_on,1,0,8,,,,,,,,3,,,69,72
20429,note_on,14,0,7,,,,,,,,2,,,69,0
20429,note_on,14,0,8,,,,,,,,3,,,69,0
20430,note_on,151,0,9,,,,,,,,4,,,70,72
20430,note_on,151,0,11,,,,,,,,6,,,46,72
20430,note_on,1,0,7,,,,,,,,2,,,70,72
20430,note_on,1,0,8,,,,,,,,3,,,70,72
20459,note_on,29,0,11,,,,,,,,6,,,46,0
20459,note_on,29,0,9,,,,,,,,4,,,70,0
20459,note_on,29,0,7,,,,,,,,2,,,70,0
20459,note_on,29,0,8,,,,,,,,3,,,70,0
20460,note_on,181,0,15,,,,,,,,10,,,62,72
20460,note_on,181,0,20,,,,,,,,14,,,58,72
20460,note_on,181,0,18,,,,,,,,12,,,65,72
20460,note_on,1,0,7,,,,,,,,2,,,74,72
20460,note_on,181,0,16,,,,,,,,10,,,58,72
20460,note_on,181,0,14,,,,,,,,10,,,65,72
20460,note_on,1,0,11,,,,,,,,6,,,50,72
20460,note_on,1,0,8,,,,,,,,3,,,74,72
20460,note_on,181,0,19,,,,,,,,13,,,62,72
20460,note_on,1,0,9,,,,,,,,4,,,74,72
20489,note_on,29,0,9,,,,,,,,4,,,74,0
20489,note_on,89,0,17,,,,,,,,11,,,77,0
20489,note_on,29,0,8,,,,,,,,3,,,74,0
20489,note_on,29,0,7,,,,,,,,2,,,74,0
20489,note_on,29,0,11,,,,,,,,6,,,50,0
20490,note_on,1,0,9,,,,,,,,4,,,70,72
20490,note_on,1,0,8,,,,,,,,3,,,70,72
20490,note_on,1,0,11,,,,,,,,6,,,46,72
20490,note_on,1,0,17,,,,,,,,11,,,76,72
20490,note_on,1,0,7,,,,,,,,2,,,70,72
20504,note_on,14,0,8,,,,,,,,3,,,70,0
20504,note_on,14,0,11,,,,,,,,6,,,46,0
20504,note_on,14,0,9,,,,,,,,4,,,70,0
20504,note_on,14,0,7,,,,,,,,2,,,70,0
20519,note_on,59,0,15,,,,,,,,10,,,62,0
20519,note_on,29,0,17,,,,,,,,11,,,76,0
20519,note_on,0,0,5,,,,,,,,0,,,77,0
20519,note_on,119,0,13,,,,,,,,8,,,50,0
20519,note_on,0,0,6,,,,,,,,1,,,65,0
20519,note_on,119,0,6,,,,,,,,1,,,58,0
20519,note_on,59,0,14,,,,,,,,10,,,65,0
20519,note_on,119,0,12,,,,,,,,7,,,62,0
20519,note_on,0,0,12,,,,,,,,7,,,74,0
20519,note_on,59,0,18,,,,,,,,12,,,65,0
20519,note_on,59,0,19,,,,,,,,13,,,62,0
20519,note_on,59,0,20,,,,,,,,14,,,58,0
20519,note_on,59,0,16,,,,,,,,10,,,58,0
20519,note_on,119,0,5,,,,,,,,0,,,70,0
20520,note_on,1,0,20,,,,,,,,14,,,58,72
20520,note_on,1,0,19,,,,,,,,13,,,62,72
20520,note_on,16,0,9,,,,,,,,4,,,65,72
20520,note_on,1,0,16,,,,,,,,10,,,58,72
20520,note_on,16,0,7,,,,,,,,2,,,65,72
20520,note_on,1,0,18,,,,,,,,12,,,65,72
20520,note_on,1,0,15,,,,,,,,10,,,62,72
20520,note_on,1,0,14,,,,,,,,10,,,65,72
20520,note_on,1,0,17,,,,,,,,11,,,74,72
20520,note_on,16,0,8,,,,,,,,3,,,65,72
20520,note_on,16,0,11,,,,,,,,6,,,41,72
20534,note_on,14,0,7,,,,,,,,2,,,65,0
20534,note_on,14,0,8,,,,,,,,3,,,65,0
20534,note_on,14,0,9,,,,,,,,4,,,65,0
20534,note_on,14,0,11,,,,,,,,6,,,41,0
20550,note_on,16,0,9,,,,,,,,4,,,62,72
20550,note_on,16,0,11,,,,,,,,6,,,38,72
20550,note_on,16,0,7,,,,,,,,2,,,62,72
20550,note_on,16,0,8,,,,,,,,3,,,62,72
20564,note_on,14,0,9,,,,,,,,4,,,62,0
20564,note_on,14,0,8,,,,,,,,3,,,62,0
20564,note_on,14,0,11,,,,,,,,6,,,38,0
20564,note_on,14,0,7,,,,,,,,2,,,62,0
20579,note_on,59,0,18,,,,,,,,12,,,65,0
20579,note_on,59,0,20,,,,,,,,14,,,58,0
20579,note_on,59,0,19,,,,,,,,13,,,62,0
20579,note_on,59,0,16,,,,,,,,10,,,58,0
20579,note_on,59,0,14,,,,,,,,10,,,65,0
20579,note_on,59,0,15,,,,,,,,10,,,62,0
20580,note_on,1,0,20,,,,,,,,14,,,58,72
20580,note_on,1,0,16,,,,,,,,10,,,58,72
20580,note_on,1,0,19,,,,,,,,13,,,62,72
20580,note_on,1,0,14,,,,,,,,10,,,65,72
20580,note_on,1,0,18,,,,,,,,12,,,65,72
20580,note_on,16,0,8,,,,,,,,3,,,58,72
20580,note_on,16,0,11,,,,,,,,6,,,34,72
20580,note_on,16,0,9,,,,,,,,4,,,58,72
20580,note_on,16,0,7,,,,,,,,2,,,58,72
20580,note_on,1,0,15,,,,,,,,10,,,62,72
20594,note_on,14,0,8,,,,,,,,3,,,58,0
20594,note_on,14,0,11,,,,,,,,6,,,34,0
20594,note_on,14,0,9,,,,,,,,4,,,58,0
20594,note_on,14,0,7,,,,,,,,2,,,58,0
20610,note_on,16,0,11,,,,,,,,6,,,41,72
20610,note_on,16,0,9,,,,,,,,4,,,65,72
20610,note_on,16,0,7,,,,,,,,2,,,65,72
20610,note_on,16,0,8,,,,,,,,3,,,65,72
20624,note_on,14,0,7,,,,,,,,2,,,65,0
20624,note_on,14,0,11,,,,,,,,6,,,41,0
20624,note_on,14,0,8,,,,,,,,3,,,65,0
20624,note_on,14,0,9,,,,,,,,4,,,65,0
20639,note_on,59,0,14,,,,,,,,10,,,65,0
20639,note_on,119,0,17,,,,,,,,11,,,74,0
20639,note_on,59,0,20,,,,,,,,14,,,58,0
20639,note_on,59,0,16,,,,,,,,10,,,58,0
20639,note_on,59,0,19,,,,,,,,13,,,62,0
20639,note_on,59,0,18,,,,,,,,12,,,65,0
20639,note_on,59,0,15,,,,,,,,10,,,62,0
20640,note_on,1,0,19,,,,,,,,13,,,65,72
20640,note_on,1,0,20,,,,,,,,14,,,57,72
20640,note_on,16,0,7,,,,,,,,2,,,57,72
20640,note_on,1,0,15,,,,,,,,10,,,65,72
20640,note_on,1,0,14,,,,,,,,10,,,69,72
20640,note_on,1,0,18,,,,,,,,12,,,69,72
20640,note_on,1,0,16,,,,,,,,10,,,57,72
20640,note_on,16,0,8,,,,,,,,3,,,57,72
20640,note_on,361,0,21,,,,,,,,15,,,45,72
20640,note_on,0,0,21,,,,,,,,15,,,62,72
20640,note_on,0,0,21,,,,,,,,15,,,65,72
20640,note_on,0,0,21,,,,,,,,15,,,69,72
20640,note_on,16,0,9,,,,,,,,4,,,57,72
20640,note_on,16,0,11,,,,,,,,6,,,33,72
20700,note_on,181,0,5,,,,,,,,0,,,74,72
20700,note_on,61,0,17,,,,,,,,11,,,74,72
20700,note_on,0,0,5,,,,,,,,0,,,77,60
20700,note_on,0,0,6,,,,,,,,1,,,62,72
20700,note_on,0,0,12,,,,,,,,7,,,69,76
20700,note_on,181,0,6,,,,,,,,1,,,65,72
20700,note_on,181,0,13,,,,,,,,8,,,50,72
20700,note_on,181,0,12,,,,,,,,7,,,57,76
20729,note_on,89,0,20,,,,,,,,14,,,57,0
20729,note_on,89,0,14,,,,,,,,10,,,69,0
20729,note_on,89,0,15,,,,,,,,10,,,65,0
20729,note_on,89,0,19,,,,,,,,13,,,65,0
20729,note_on,89,0,18,,,,,,,,12,,,69,0
20729,note_on,89,0,16,,,,,,,,10,,,57,0
20730,note_on,1,0,16,,,,,,,,10,,,57,72
20730,note_on,1,0,15,,,,,,,,10,,,64,72
20730,note_on,1,0,14,,,,,,,,10,,,67,72
20730,note_on,1,0,19,,,,,,,,13,,,64,72
20730,note_on,1,0,20,,,,,,,,14,,,57,72
20730,note_on,1,0,18,,,,,,,,12,,,67,72
20759,note_on,59,0,17,,,,,,,,11,,,74,0
20759,note_on,119,0,8,,,,,,,,3,,,57,0
20759,note_on,0,0,21,,,,,,,,15,,,65,0
20759,note_on,59,0,13,,,,,,,,8,,,50,0
20759,note_on,29,0,20,,,,,,,,14,,,57,0
20759,note_on,119,0,7,,,,,,,,2,,,57,0
20759,note_on,29,0,19,,,,,,,,13,,,64,0
20759,note_on,29,0,18,,,,,,,,12,,,67,0
20759,note_on,119,0,11,,,,,,,,6,,,33,0
20759,note_on,59,0,12,,,,,,,,7,,,69,0
20759,note_on,0,0,12,,,,,,,,7,,,57,0
20759,note_on,59,0,5,,,,,,,,0,,,77,0
20759,note_on,29,0,16,,,,,,,,10,,,57,0
20759,note_on,119,0,9,,,,,,,,4,,,57,0
20759,note_on,29,0,15,,,,,,,,10,,,64,0
20759,note_on,0,0,5,,,,,,,,0,,,74,0
20759,note_on,59,0,6,,,,,,,,1,,,62,0
20759,note_on,29,0,14,,,,,,,,10,,,67,0
20759,note_on,0,0,21,,,,,,,,15,,,62,0
20759,note_on,0,0,21,,,,,,,,15,,,45,0
20759,note_on,119,0,21,,,,,,,,15,,,69,0
20759,note_on,0,0,6,,,,,,,,1,,,65,0
20760,note_on,1,0,6,,,,,,,,1,,,62,72
20760,note_on,1,0,19,,,,,,,,13,,,62,72
20760,note_on,1,0,5,,,,,,,,0,,,74,60
20760,note_on,1,0,18,,,,,,,,12,,,65,72
20760,note_on,0,0,5,,,,,,,,0,,,77,72
20760,note_on,0,0,12,,,,,,,,7,,,69,76
20760,note_on,1,0,13,,,,,,,,8,,,50,72
20760,note_on,1,0,15,,,,,,,,10,,,62,72
20760,note_on,1,0,14,,,,,,,,10,,,65,72
20760,note_on,1,0,16,,,,,,,,10,,,57,72
20760,note_on,1,0,17,,,,,,,,11,,,74,72
20760,note_on,0,0,6,,,,,,,,1,,,65,72
20760,note_on,1,0,12,,,,,,,,7,,,57,76
20760,note_on,1,0,20,,,,,,,,14,,,57,72
20819,note_on,0,0,5,,,,,,,,0,,,74,0
20819,note_on,59,0,12,,,,,,,,7,,,69,0
20819,note_on,0,0,12,,,,,,,,7,,,57,0
20819,note_on,59,0,5,,,,,,,,0,,,77,0
20819,note_on,59,0,17,,,,,,,,11,,,74,0
20819,note_on,59,0,6,,,,,,,,1,,,65,0
20819,note_on,0,0,6,,,,,,,,1,,,62,0
20819,note_on,59,0,13,,,,,,,,8,,,50,0
20820,note_on,1,0,5,,,,,,,,0,,,74,72
20820,note_on,1,0,17,,,,,,,,11,,,74,72
20820,note_on,0,0,6,,,,,,,,1,,,65,72
20820,note_on,1,0,6,,,,,,,,1,,,62,72
20820,note_on,0,0,12,,,,,,,,7,,,69,76
20820,note_on,0,0,5,,,,,,,,0,,,77,72
20820,note_on,1,0,12,,,,,,,,7,,,57,76
20820,note_on,1,0,13,,,,,,,,8,,,50,72
20865,note_on,106,0,7,,,,,,,,2,,,76,72
20865,note_on,106,0,8,,,,,,,,3,,,76,72
20879,note_on,59,0,12,,,,,,,,7,,,69,0
20879,note_on,0,0,12,,,,,,,,7,,,57,0
20879,note_on,119,0,15,,,,,,,,10,,,62,0
20879,note_on,14,0,8,,,,,,,,3,,,76,0
20879,note_on,119,0,14,,,,,,,,10,,,65,0
20879,note_on,0,0,5,,,,,,,,0,,,74,0
20879,note_on,59,0,5,,,,,,,,0,,,77,0
20879,note_on,59,0,6,,,,,,,,1,,,65,0
20879,note_on,0,0,6,,,,,,,,1,,,62,0
20879,note_on,119,0,20,,,,,,,,14,,,57,0
20879,note_on,119,0,18,,,,,,,,12,,,65,0
20879,note_on,59,0,13,,,,,,,,8,,,50,0
20879,note_on,119,0,19,,,,,,,,13,,,62,0
20879,note_on,14,0,7,,,,,,,,2,,,76,0
20879,note_on,119,0,16,,,,,,,,10,,,57,0
20879,note_on,59,0,17,,,,,,,,11,,,74,0
20880,note_on,1,0,7,,,,,,,,2,,,74,72
20880,note_on,1,0,8,,,,,,,,3,,,74,72
20880,note_on,1,0,12,,,,,,,,7,,,69,76
20880,note_on,0,0,12,,,,,,,,7,,,57,76
20880,note_on,0,0,5,,,,,,,,0,,,77,72
20880,note_on,1,0,17,,,,,,,,11,,,77,72
20880,note_on,1,0,5,,,,,,,,0,,,74,72
20880,note_on,1,0,6,,,,,,,,1,,,65,72
20880,note_on,0,0,6,,,,,,,,1,,,62,72
20880,note_on,1,0,13,,,,,,,,8,,,50,72
20894,note_on,14,0,8,,,,,,,,3,,,74,0
20894,note_on,14,0,7,,,,,,,,2,,,74,0
20895,note_on,1,0,8,,,,,,,,3,,,73,72
20895,note_on,1,0,7,,,,,,,,2,,,73,72
20909,note_on,14,0,8,,,,,,,,3,,,73,0
20909,note_on,14,0,7,,,,,,,,2,,,73,0
20910,note_on,1,0,7,,,,,,,,2,,,74,72
20910,note_on,151,0,9,,,,,,,,4,,,74,72
20910,note_on,151,0,11,,,,,,,,6,,,50,72
20910,note_on,1,0,8,,,,,,,,3,,,74,72
20939,note_on,29,0,7,,,,,,,,2,,,74,0
20939,note_on,29,0,8,,,,,,,,3,,,74,0
20939,note_on,29,0,9,,,,,,,,4,,,74,0
20939,note_on,29,0,11,,,,,,,,6,,,50,0
20940,note_on,61,0,14,,,,,,,,10,,,65,72
20940,note_on,1,0,9,,,,,,,,4,,,77,72
20940,note_on,61,0,19,,,,,,,,13,,,62,72
20940,note_on,1,0,8,,,,,,,,3,,,77,72
20940,note_on,61,0,16,,,,,,,,10,,,57,72
20940,note_on,61,0,18,,,,,,,,12,,,65,72
20940,note_on,61,0,15,,,,,,,,10,,,62,72
20940,note_on,1,0,11,,,,,,,,6,,,53,72
20940,note_on,61,0,20,,,,,,,,14,,,57,72
20940,note_on,1,0,7,,,,,,,,2,,,77,72
20969,note_on,29,0,7,,,,,,,,2,,,77,0
20969,note_on,29,0,8,,,,,,,,3,,,77,0
20969,note_on,89,0,17,,,,,,,,11,,,77,0
20969,note_on,29,0,11,,,,,,,,6,,,53,0
20969,note_on,29,0,9,,,,,,,,4,,,77,0
20970,note_on,1,0,9,,,,,,,,4,,,74,72
20970,note_on,1,0,11,,,,,,,,6,,,50,72
20970,note_on,1,0,7,,,,,,,,2,,,74,72
20970,note_on,1,0,17,,,,,,,,11,,,76,72
20970,note_on,1,0,8,,,,,,,,3,,,74,72
20984,note_on,14,0,9,,,,,,,,4,,,74,0
20984,note_on,14,0,7,,,,,,,,2,,,74,0
20984,note_on,14,0,8,,,,,,,,3,,,74,0
20984,note_on,14,0,11,,,,,,,,6,,,50,0
20999,note_on,119,0,12,,,,,,,,7,,,57,0
20999,note_on,59,0,15,,,,,,,,10,,,62,0
20999,note_on,119,0,5,,,,,,,,0,,,77,0
20999,note_on,119,0,13,,,,,,,,8,,,50,0
20999,note_on,59,0,19,,,,,,,,13,,,62,0
20999,note_on,0,0,5,,,,,,,,0,,,74,0
20999,note_on,29,0,17,,,,,,,,11,,,76,0
20999,note_on,59,0,18,,,,,,,,12,,,65,0
20999,note_on,59,0,14,,,,,,,,10,,,65,0
20999,note_on,0,0,12,,,,,,,,7,,,69,0
20999,note_on,0,0,6,,,,,,,,1,,,65,0
20999,note_on,119,0,6,,,,,,,,1,,,62,0
20999,note_on,59,0,16,,,,,,,,10,,,57,0
20999,note_on,59,0,20,,,,,,,,14,,,57,0
21000,note_on,1,0,17,,,,,,,,11,,,74,72
21000,note_on,1,0,16,,,,,,,,10,,,57,72
21000,note_on,1,0,18,,,,,,,,12,,,65,72
21000,note_on,16,0,9,,,,,,,,4,,,69,72
21000,note_on,1,0,19,,,,,,,,13,,,62,72
21000,note_on,1,0,20,,,,,,,,14,,,57,72
21000,note_on,1,0,14,,,,,,,,10,,,65,72
21000,note_on,16,0,8,,,,,,,,3,,,69,72
21000,note_on,16,0,11,,,,,,,,6,,,45,72
21000,note_on,1,0,15,,,,,,,,10,,,62,72
21000,note_on,16,0,7,,,,,,,,2,,,69,72
21014,note_on,14,0,8,,,,,,,,3,,,69,0
21014,note_on,14,0,7,,,,,,,,2,,,69,0
21014,note_on,14,0,9,,,,,,,,4,,,69,0
21014,note_on,14,0,11,,,,,,,,6,,,45,0
21030,note_on,16,0,8,,,,,,,,3,,,65,72
21030,note_on,16,0,11,,,,,,,,6,,,41,72
21030,note_on,16,0,7,,,,,,,,2,,,65,72
21030,note_on,16,0,9,,,,,,,,4,,,65,72
21044,note_on,14,0,9,,,,,,,,4,,,65,0
21044,note_on,14,0,11,,,,,,,,6,,,41,0
21044,note_on,14,0,7,,,,,,,,2,,,65,0
21044,note_on,14,0,8,,,,,,,,3,,,65,0
21059,note_on,59,0,18,,,,,,,,12,,,65,0
21059,note_on,59,0,20,,,,,,,,14,,,57,0
21059,note_on,59,0,19,,,,,,,,13,,,62,0
21059,note_on,59,0,15,,,,,,,,10,,,62,0
21059,note_on,59,0,16,,,,,,,,10,,,57,0
21059,note_on,59,0,14,,,,,,,,10,,,65,0
21060,note_on,1,0,18,,,,,,,,12,,,65,72
21060,note_on,1,0,14,,,,,,,,10,,,65,72
21060,note_on,16,0,9,,,,,,,,4,,,62,72
21060,note_on,1,0,20,,,,,,,,14,,,57,72
21060,note_on,1,0,19,,,,,,,,13,,,62,72
21060,note_on,1,0,16,,,,,,,,10,,,57,72
21060,note_on,16,0,11,,,,,,,,6,,,38,72
21060,note_on,16,0,8,,,,,,,,3,,,62,72
21060,note_on,1,0,15,,,,,,,,10,,,62,72
21060,note_on,16,0,7,,,,,,,,2,,,62,72
21074,note_on,14,0,7,,,,,,,,2,,,62,0
21074,note_on,14,0,11,,,,,,,,6,,,38,0
21074,note_on,14,0,8,,,,,,,,3,,,62,0
21074,note_on,14,0,9,,,,,,,,4,,,62,0
21090,note_on,16,0,11,,,,,,,,6,,,41,72
21090,note_on,16,0,9,,,,,,,,4,,,65,72
21090,note_on,16,0,7,,,,,,,,2,,,65,72
21090,note_on,16,0,8,,,,,,,,3,,,65,72
21104,note_on,14,0,11,,,,,,,,6,,,41,0
21104,note_on,14,0,9,,,,,,,,4,,,65,0
21104,note_on,14,0,8,,,,,,,,3,,,65,0
21104,note_on,14,0,7,,,,,,,,2,,,65,0
21119,note_on,59,0,14,,,,,,,,10,,,65,0
21119,note_on,119,0,17,,,,,,,,11,,,74,0
21119,note_on,59,0,15,,,,,,,,10,,,62,0
21119,note_on,59,0,18,,,,,,,,12,,,65,0
21119,note_on,59,0,20,,,,,,,,14,,,57,0
21119,note_on,59,0,19,,,,,,,,13,,,62,0
21119,note_on,59,0,16,,,,,,,,10,,,57,0
21120,note_on,1,0,16,,,,,,,,10,,,56,72
21120,note_on,1,0,18,,,,,,,,12,,,65,72
21120,note_on,1,0,20,,,,,,,,14,,,56,72
21120,note_on,16,0,11,,,,,,,,6,,,32,72
21120,note_on,16,0,8,,,,,,,,3,,,56,72
21120,note_on,16,0,9,,,,,,,,4,,,56,72
21120,note_on,16,0,7,,,,,,,,2,,,56,72
21120,note_on,1,0,14,,,,,,,,10,,,65,72
21120,note_on,121,0,5,,,,,,,,0,,,77,72
21120,note_on,0,0,5,,,,,,,,0,,,71,72
21120,note_on,121,0,6,,,,,,,,1,,,56,72
21120,note_on,0,0,12,,,,,,,,7,,,74,76
21120,note_on,121,0,13,,,,,,,,8,,,50,72
21120,note_on,0,0,6,,,,,,,,1,,,62,72
21120,note_on,1,0,15,,,,,,,,10,,,62,72
21120,note_on,1,0,19,,,,,,,,13,,,62,72
21120,note_on,361,0,21,,,,,,,,15,,,44,72
21120,note_on,0,0,21,,,,,,,,15,,,71,72
21120,note_on,0,0,21,,,,,,,,15,,,77,72
21120,note_on,0,0,21,,,,,,,,15,,,65,72
21120,note_on,121,0,12,,,,,,,,7,,,62,76
21179,note_on,59,0,8,,,,,,,,3,,,56,0
21179,note_on,59,0,21,,,,,,,,15,,,44,0
21179,note_on,59,0,9,,,,,,,,4,,,56,0
21179,note_on,59,0,7,,,,,,,,2,,,56,0
21179,note_on,59,0,11,,,,,,,,6,,,32,0
21180,note_on,1,0,21,,,,,,,,15,,,56,72
21180,note_on,1,0,7,,,,,,,,2,,,77,72
21180,note_on,1,0,8,,,,,,,,3,,,62,72
21180,note_on,1,0,9,,,,,,,,4,,,71,72
21180,note_on,1,0,11,,,,,,,,6,,,44,72
21209,note_on,89,0,15,,,,,,,,10,,,62,0
21209,note_on,89,0,14,,,,,,,,10,,,65,0
21209,note_on,89,0,18,,,,,,,,12,,,65,0
21209,note_on,89,0,20,,,,,,,,14,,,56,0
21209,note_on,89,0,16,,,,,,,,10,,,56,0
21209,note_on,89,0,19,,,,,,,,13,,,62,0
21210,note_on,1,0,14,,,,,,,,10,,,64,72
21210,note_on,1,0,18,,,,,,,,12,,,64,72
21210,note_on,1,0,20,,,,,,,,14,,,56,72
21210,note_on,1,0,15,,,,,,,,10,,,60,72
21210,note_on,1,0,16,,,,,,,,10,,,56,72
21210,note_on,1,0,19,,,,,,,,13,,,60,72
21239,note_on,29,0,14,,,,,,,,10,,,64,0
21239,note_on,29,0,16,,,,,,,,10,,,56,0
21239,note_on,29,0,18,,,,,,,,12,,,64,0
21239,note_on,29,0,19,,,,,,,,13,,,60,0
21239,note_on,29,0,20,,,,,,,,14,,,56,0
21239,note_on,59,0,8,,,,,,,,3,,,62,0
21239,note_on,119,0,13,,,,,,,,8,,,50,0
21239,note_on,59,0,9,,,,,,,,4,,,71,0
21239,note_on,119,0,12,,,,,,,,7,,,74,0
21239,note_on,0,0,12,,,,,,,,7,,,62,0
21239,note_on,59,0,21,,,,,,,,15,,,56,0
21239,note_on,59,0,11,,,,,,,,6,,,44,0
21239,note_on,29,0,15,,,,,,,,10,,,60,0
21239,note_on,59,0,7,,,,,,,,2,,,77,0
21240,note_on,1,0,16,,,,,,,,10,,,56,72
21240,note_on,1,0,14,,,,,,,,10,,,62,72
21240,note_on,1,0,18,,,,,,,,12,,,62,72
21240,note_on,0,0,12,,,,,,,,7,,,62,76
21240,note_on,1,0,19,,,,,,,,13,,,59,72
21240,note_on,1,0,7,,,,,,,,2,,,77,72
21240,note_on,1,0,8,,,,,,,,3,,,62,72
21240,note_on,1,0,12,,,,,,,,7,,,74,76
21240,note_on,1,0,20,,,,,,,,14,,,56,72
21240,note_on,1,0,21,,,,,,,,15,,,56,72
21240,note_on,1,0,15,,,,,,,,10,,,59,72
21240,note_on,1,0,13,,,,,,,,8,,,50,72
21240,note_on,121,0,17,,,,,,,,11,,,77,72
21240,note_on,1,0,11,,,,,,,,6,,,44,72
21240,note_on,1,0,9,,,,,,,,4,,,71,72
21299,note_on,59,0,7,,,,,,,,2,,,77,0
21299,note_on,59,0,8,,,,,,,,3,,,62,0
21299,note_on,59,0,21,,,,,,,,15,,,56,0
21299,note_on,59,0,9,,,,,,,,4,,,71,0
21299,note_on,59,0,11,,,,,,,,6,,,44,0
21300,note_on,1,0,9,,,,,,,,4,,,71,72
21300,note_on,1,0,8,,,,,,,,3,,,62,72
21300,note_on,1,0,7,,,,,,,,2,,,77,72
21300,note_on,1,0,11,,,,,,,,6,,,44,72
21300,note_on,1,0,21,,,,,,,,15,,,56,72
21329,note_on,89,0,13,,,,,,,,8,,,50,0
21329,note_on,0,0,12,,,,,,,,7,,,74,0
21329,note_on,89,0,12,,,,,,,,7,,,62,0
21330,note_on,1,0,12,,,,,,,,7,,,74,76
21330,note_on,1,0,13,,,,,,,,8,,,50,72
21330,note_on,0,0,12,,,,,,,,7,,,62,76
21359,note_on,119,0,15,,,,,,,,10,,,59,0
21359,note_on,119,0,20,,,,,,,,14,,,56,0
21359,note_on,59,0,11,,,,,,,,6,,,44,0
21359,note_on,119,0,14,,,,,,,,10,,,62,0
21359,note_on,119,0,19,,,,,,,,13,,,59,0
21359,note_on,29,0,13,,,,,,,,8,,,50,0
21359,note_on,59,0,21,,,,,,,,15,,,56,0
21359,note_on,59,0,9,,,,,,,,4,,,71,0
21359,note_on,119,0,16,,,,,,,,10,,,56,0
21359,note_on,0,0,12,,,,,,,,7,,,74,0
21359,note_on,29,0,12,,,,,,,,7,,,62,0
21359,note_on,59,0,7,,,,,,,,2,,,77,0
21359,note_on,0,0,21,,,,,,,,15,,,65,0
21359,note_on,0,0,21,,,,,,,,15,,,77,0
21359,note_on,59,0,8,,,,,,,,3,,,62,0
21359,note_on,119,0,18,,,,,,,,12,,,62,0
21359,note_on,0,0,21,,,,,,,,15,,,71,0
21360,note_on,1,0,15,,,,,,,,10,,,62,72
21360,note_on,1,0,13,,,,,,,,8,,,50,72
21360,note_on,1,0,11,,,,,,,,6,,,44,72
21360,note_on,1,0,7,,,,,,,,2,,,77,72
21360,note_on,1,0,18,,,,,,,,12,,,71,72
21360,note_on,0,0,12,,,,,,,,7,,,62,76
21360,note_on,1,0,12,,,,,,,,7,,,74,76
21360,note_on,1,0,16,,,,,,,,10,,,56,72
21360,note_on,1,0,14,,,,,,,,10,,,71,72
21360,note_on,1,0,9,,,,,,,,4,,,71,72
21360,note_on,1,0,21,,,,,,,,15,,,56,72
21360,note_on,1,0,20,,,,,,,,14,,,56,72
21360,note_on,0,0,21,,,,,,,,15,,,71,72
21360,note_on,1,0,19,,,,,,,,13,,,62,72
21360,note_on,0,0,21,,,,,,,,15,,,77,72
21360,note_on,1,0,8,,,,,,,,3,,,62,72
21419,note_on,59,0,9,,,,,,,,4,,,71,0
21419,note_on,59,0,21,,,,,,,,15,,,56,0
21419,note_on,59,0,11,,,,,,,,6,,,44,0
21419,note_on,59,0,7,,,,,,,,2,,,77,0
21419,note_on,59,0,8,,,,,,,,3,,,62,0
21420,note_on,1,0,7,,,,,,,,2,,,77,72
21420,note_on,1,0,8,,,,,,,,3,,,62,72
21420,note_on,1,0,9,,,,,,,,4,,,71,72
21420,note_on,1,0,21,,,,,,,,15,,,56,72
21420,note_on,1,0,11,,,,,,,,6,,,44,72
21479,note_on,59,0,9,,,,,,,,4,,,71,0
21479,note_on,119,0,16,,,,,,,,10,,,56,0
21479,note_on,119,0,19,,,,,,,,13,,,62,0
21479,note_on,119,0,12,,,,,,,,7,,,62,0
21479,note_on,0,0,12,,,,,,,,7,,,74,0
21479,note_on,359,0,5,,,,,,,,0,,,77,0
21479,note_on,59,0,11,,,,,,,,6,,,44,0
21479,note_on,119,0,13,,,,,,,,8,,,50,0
21479,note_on,119,0,18,,,,,,,,12,,,71,0
21479,note_on,59,0,8,,,,,,,,3,,,62,0
21479,note_on,59,0,21,,,,,,,,15,,,56,0
21479,note_on,239,0,17,,,,,,,,11,,,77,0
21479,note_on,0,0,21,,,,,,,,15,,,77,0
21479,note_on,0,0,21,,,,,,,,15,,,71,0
21479,note_on,59,0,7,,,,,,,,2,,,77,0
21479,note_on,119,0,15,,,,,,,,10,,,62,0
21479,note_on,119,0,20,,,,,,,,14,,,56,0
21479,note_on,119,0,14,,,,,,,,10,,,71,0
21479,note_on,359,0,6,,,,,,,,1,,,62,0
21480,note_on,1,0,17,,,,,,,,11,,,76,72
21480,note_on,1,0,11,,,,,,,,6,,,44,72
21480,note_on,1,0,18,,,,,,,,12,,,71,72
21480,note_on,0,0,21,,,,,,,,15,,,76,72
21480,note_on,0,0,21,,,,,,,,15,,,71,72
21480,note_on,1,0,21,,,,,,,,15,,,56,72
21480,note_on,1,0,15,,,,,,,,10,,,64,72
21480,note_on,1,0,20,,,,,,,,14,,,56,72
21480,note_on,1,0,8,,,,,,,,3,,,64,72
21480,note_on,1,0,16,,,,,,,,10,,,56,72
21480,note_on,1,0,9,,,,,,,,4,,,71,72
21480,note_on,1,0,19,,,,,,,,13,,,64,72
21480,note_on,1,0,5,,,,,,,,0,,,76,72
21480,note_on,1,0,6,,,,,,,,1,,,64,72
21480,note_on,1,0,7,,,,,,,,2,,,76,72
21480,note_on,1,0,14,,,,,,,,10,,,71,72
21539,note_on,59,0,19,,,,,,,,13,,,64,0
21539,note_on,59,0,15,,,,,,,,10,,,64,0
21539,note_on,59,0,16,,,,,,,,10,,,56,0
21539,note_on,0,0,21,,,,,,,,15,,,56,0
21539,note_on,0,0,21,,,,,,,,15,,,71,0
21539,note_on,59,0,21,,,,,,,,15,,,76,0
21539,note_on,59,0,6,,,,,,,,1,,,64,0
21539,note_on,59,0,20,,,,,,,,14,,,56,0
21539,note_on,59,0,18,,,,,,,,12,,,71,0
21539,note_on,59,0,7,,,,,,,,2,,,76,0
21539,note_on,59,0,9,,,,,,,,4,,,71,0
21539,note_on,59,0,11,,,,,,,,6,,,44,0
21539,note_on,59,0,5,,,,,,,,0,,,76,0
21539,note_on,59,0,8,,,,,,,,3,,,64,0
21539,note_on,59,0,14,,,,,,,,10,,,71,0
21539,note_on,59,0,17,,,,,,,,11,,,76,0
21540,note_on,1,0,7,,,,,,,,2,,,74,72
21540,note_on,1,0,20,,,,,,,,14,,,56,72
21540,note_on,1,0,9,,,,,,,,4,,,71,72
21540,note_on,0,0,12,,,,,,,,7,,,62,76
21540,note_on,1,0,6,,,,,,,,1,,,65,72
21540,note_on,61,0,13,,,,,,,,8,,,50,72
21540,note_on,1,0,17,,,,,,,,11,,,74,72
21540,note_on,1,0,14,,,,,,,,10,,,71,72
21540,note_on,1,0,21,,,,,,,,15,,,56,72
21540,note_on,0,0,21,,,,,,,,15,,,74,72
21540,note_on,1,0,18,,,,,,,,12,,,71,72
21540,note_on,1,0,19,,,,,,,,13,,,65,72
21540,note_on,61,0,12,,,,,,,,7,,,74,76
21540,note_on,1,0,16,,,,,,,,10,,,56,72
21540,note_on,1,0,8,,,,,,,,3,,,65,72
21540,note_on,1,0,5,,,,,,,,0,,,74,72
21540,note_on,1,0,11,,,,,,,,6,,,44,72
21540,note_on,0,0,21,,,,,,,,15,,,71,72
21540,note_on,1,0,15,,,,,,,,10,,,65,72
21599,note_on,59,0,18,,,,,,,,12,,,71,0
21599,note_on,59,0,16,,,,,,,,10,,,56,0
21599,note_on,59,0,17,,,,,,,,11,,,74,0
21599,note_on,59,0,7,,,,,,,,2,,,74,0
21599,note_on,59,0,19,,,,,,,,13,,,65,0
21599,note_on,59,0,20,,,,,,,,14,,,56,0
21599,note_on,59,0,15,,,,,,,,10,,,65,0
21599,note_on,0,0,12,,,,,,,,7,,,74,0
21599,note_on,59,0,9,,,,,,,,4,,,71,0
21599,note_on,59,0,5,,,,,,,,0,,,74,0
21599,note_on,0,0,6,,,,,,,,1,,,56,0
21599,note_on,59,0,12,,,,,,,,7,,,62,0
21599,note_on,0,0,5,,,,,,,,0,,,71,0
21599,note_on,59,0,13,,,,,,,,8,,,50,0
21599,note_on,59,0,6,,,,,,,,1,,,65,0
21599,note_on,59,0,14,,,,,,,,10,,,71,0
21599,note_on,59,0,21,,,,,,,,15,,,71,0
21599,note_on,0,0,21,,,,,,,,15,,,74,0
21599,note_on,0,0,21,,,,,,,,15,,,56,0
21599,note_on,59,0,8,,,,,,,,3,,,65,0
21599,note_on,59,0,11,,,,,,,,6,,,44,0
21600,note_on,1,0,15,,,,,,,,10,,,65,72
21600,note_on,1,0,8,,,,,,,,3,,,65,72
21600,note_on,1,0,7,,,,,,,,2,,,74,72
21600,note_on,1,0,9,,,,,,,,4,,,69,72
21600,note_on,1,0,17,,,,,,,,11,,,74,72
21600,note_on,1,0,11,,,,,,,,6,,,45,72
21600,note_on,1,0,13,,,,,,,,8,,,45,72
21600,note_on,0,0,21,,,,,,,,15,,,69,72
21600,note_on,0,0,12,,,,,,,,7,,,57,76
21600,note_on,1,0,12,,,,,,,,7,,,69,76
21600,note_on,0,0,21,,,,,,,,15,,,65,72
21600,note_on,0,0,21,,,,,,,,15,,,74,72
21600,note_on,1,0,21,,,,,,,,15,,,57,72
21600,note_on,1,0,16,,,,,,,,10,,,57,72
21600,note_on,1,0,18,,,,,,,,12,,,69,72
21600,note_on,0,0,6,,,,,,,,1,,,65,72
21600,note_on,1,0,6,,,,,,,,1,,,57,72
21600,note_on,1,0,5,,,,,,,,0,,,74,72
21600,note_on,1,0,20,,,,,,,,14,,,57,72
21600,note_on,1,0,14,,,,,,,,10,,,69,72
21600,note_on,1,0,19,,,,,,,,13,,,65,72
21659,note_on,59,0,7,,,,,,,,2,,,74,0
21659,note_on,59,0,15,,,,,,,,10,,,65,0
21659,note_on,59,0,6,,,,,,,,1,,,65,0
21659,note_on,0,0,21,,,,,,,,15,,,57,0
21659,note_on,59,0,18,,,,,,,,12,,,69,0
21659,note_on,59,0,5,,,,,,,,0,,,74,0
21659,note_on,59,0,9,,,,,,,,4,,,69,0
21659,note_on,59,0,17,,,,,,,,11,,,74,0
21659,note_on,59,0,16,,,,,,,,10,,,57,0
21659,note_on,0,0,21,,,,,,,,15,,,65,0
21659,note_on,0,0,21,,,,,,,,15,,,74,0
21659,note_on,59,0,20,,,,,,,,14,,,57,0
21659,note_on,59,0,21,,,,,,,,15,,,69,0
21659,note_on,59,0,14,,,,,,,,10,,,69,0
21659,note_on,59,0,8,,,,,,,,3,,,65,0
21659,note_on,59,0,12,,,,,,,,7,,,57,0
21659,note_on,0,0,12,,,,,,,,7,,,69,0
21659,note_on,59,0,19,,,,,,,,13,,,65,0
21659,note_on,59,0,13,,,,,,,,8,,,45,0
21659,note_on,59,0,11,,,,,,,,6,,,45,0
21660,note_on,1,0,8,,,,,,,,3,,,64,72
21660,note_on,1,0,19,,,,,,,,13,,,64,72
21660,note_on,1,0,17,,,,,,,,11,,,73,72
21660,note_on,1,0,14,,,,,,,,10,,,69,72
21660,note_on,1,0,7,,,,,,,,2,,,73,72
21660,note_on,1,0,6,,,,,,,,1,,,64,72
21660,note_on,1,0,20,,,,,,,,14,,,57,72
21660,note_on,0,0,21,,,,,,,,15,,,64,72
21660,note_on,0,0,21,,,,,,,,15,,,69,72
21660,note_on,0,0,21,,,,,,,,15,,,73,72
21660,note_on,1,0,21,,,,,,,,15,,,45,72
21660,note_on,1,0,11,,,,,,,,6,,,33,72
21660,note_on,1,0,12,,,,,,,,7,,,69,76
21660,note_on,0,0,12,,,,,,,,7,,,57,76
21660,note_on,1,0,13,,,,,,,,8,,,45,72
21660,note_on,1,0,15,,,,,,,,10,,,64,72
21660,note_on,1,0,5,,,,,,,,0,,,73,72
21660,note_on,1,0,9,,,,,,,,4,,,57,72
21660,note_on,1,0,18,,,,,,,,12,,,69,72
21660,note_on,1,0,16,,,,,,,,10,,,57,72
21719,note_on,59,0,11,,,,,,,,6,,,33,0
21719,note_on,59,0,5,,,,,,,,0,,,73,0
21719,note_on,59,0,14,,,,,,,,10,,,69,0
21719,note_on,59,0,17,,,,,,,,11,,,73,0
21719,note_on,59,0,7,,,,,,,,2,,,73,0
21719,note_on,59,0,15,,,,,,,,10,,,64,0
21719,note_on,59,0,16,,,,,,,,10,,,57,0
21719,note_on,59,0,19,,,,,,,,13,,,64,0
21719,note_on,59,0,12,,,,,,,,7,,,57,0
21719,note_on,59,0,18,,,,,,,,12,,,69,0
21719,note_on,59,0,21,,,,,,,,15,,,69,0
21719,note_on,0,0,21,,,,,,,,15,,,73,0
21719,note_on,0,0,21,,,,,,,,15,,,64,0
21719,note_on,0,0,6,,,,,,,,1,,,57,0
21719,note_on,59,0,6,,,,,,,,1,,,64,0
21719,note_on,0,0,12,,,,,,,,7,,,69,0
21719,note_on,59,0,8,,,,,,,,3,,,64,0
21719,note_on,59,0,9,,,,,,,,4,,,57,0
21719,note_on,59,0,13,,,,,,,,8,,,45,0
21719,note_on,0,0,21,,,,,,,,15,,,45,0
21719,note_on,59,0,20,,,,,,,,14,,,57,0
21780,note_on,61,0,19,,,,,,,,13,,,61,48
21780,note_on,61,0,8,,,,,,,,3,,,64,48
21780,note_on,61,0,14,,,,,,,,10,,,64,48
21780,note_on,61,0,20,,,,,,,,14,,,57,48
21780,note_on,61,0,17,,,,,,,,11,,,69,48
21780,note_on,61,0,9,,,,,,,,4,,,60,48
21780,note_on,61,0,11,,,,,,,,6,,,33,48
21780,note_on,61,0,7,,,,,,,,2,,,69,48
21780,note_on,61,0,16,,,,,,,,10,,,57,48
21780,note_on,61,0,15,,,,,,,,10,,,61,48
21780,note_on,61,0,18,,,,,,,,12,,,64,48
21780,note_on,61,0,21,,,,,,,,15,,,45,48
21780,note_on,0,0,21,,,,,,,,15,,,61,48
21780,note_on,0,0,21,,,,,,,,15,,,64,48
21839,note_on,59,0,18,,,,,,,,12,,,64,0
21839,note_on,59,0,21,,,,,,,,15,,,64,0
21839,note_on,59,0,20,,,,,,,,14,,,57,0
21839,note_on,59,0,16,,,,,,,,10,,,57,0
21839,note_on,59,0,14,,,,,,,,10,,,64,0
21839,note_on,59,0,11,,,,,,,,6,,,33,0
21839,note_on,0,0,21,,,,,,,,15,,,45,0
21839,note_on,59,0,9,,,,,,,,4,,,60,0
21839,note_on,0,0,21,,,,,,,,15,,,61,0
21839,note_on,59,0,8,,,,,,,,3,,,64,0
21839,note_on,59,0,17,,,,,,,,11,,,69,0
21839,note_on,59,0,15,,,,,,,,10,,,61,0
21839,note_on,59,0,7,,,,,,,,2,,,69,0
21839,note_on,59,0,19,,,,,,,,13,,,61,0
21840,note_on,1,0,16,,,,,,,,10,,,50,48
21840,note_on,1,0,21,,,,,,,,15,,,50,48
21840,note_on,0,0,21,,,,,,,,15,,,65,48
21840,note_on,0,0,21,,,,,,,,15,,,69,48
21840,note_on,0,0,21,,,,,,,,15,,,62,48
21840,note_on,1,0,9,,,,,,,,4,,,62,48
21840,note_on,1,0,15,,,,,,,,10,,,62,48
21840,note_on,1,0,7,,,,,,,,2,,,69,48
21840,note_on,1,0,18,,,,,,,,12,,,65,48
21840,note_on,1,0,11,,,,,,,,6,,,38,48
21840,note_on,1,0,14,,,,,,,,10,,,65,48
21840,note_on,1,0,19,,,,,,,,13,,,62,48
21840,note_on,1,0,8,,,,,,,,3,,,65,48
21840,note_on,1,0,17,,,,,,,,11,,,69,48
21840,note_on,1,0,20,,,,,,,,14,,,50,48
21959,note_on,119,0,16,,,,,,,,10,,,50,0
21959,note_on,119,0,14,,,,,,,,10,,,65,0
21959,note_on,119,0,9,,,,,,,,4,,,62,0
21959,note_on,119,0,15,,,,,,,,10,,,62,0
21959,note_on,119,0,20,,,,,,,,14,,,50,0
21959,note_on,119,0,17,,,,,,,,11,,,69,0
21959,note_on,119,0,19,,,,,,,,13,,,62,0
21959,note_on,0,0,21,,,,,,,,15,,,69,0
21959,note_on,0,0,21,,,,,,,,15,,,65,0
21959,note_on,0,0,21,,,,,,,,15,,,50,0
21959,note_on,119,0,11,,,,,,,,6,,,38,0
21959,note_on,119,0,21,,,,,,,,15,,,62,0
21959,note_on,119,0,8,,,,,,,,3,,,65,0
21959,note_on,119,0,18,,,,,,,,12,,,65,0
21959,note_on,119,0,7,,,,,,,,2,,,69,0
21960,note_on,1,0,15,,,,,,,,10,,,64,48
21960,note_on,1,0,20,,,,,,,,14,,,49,48
21960,note_on,0,0,21,,,,,,,,15,,,64,48
21960,note_on,0,0,21,,,,,,,,15,,,69,48
21960,note_on,1,0,21,,,,,,,,15,,,49,48
21960,note_on,1,0,9,,,,,,,,4,,,64,48
21960,note_on,0,0,21,,,,,,,,15,,,67,48
21960,note_on,1,0,8,,,,,,,,3,,,67,48
21960,note_on,1,0,19,,,,,,,,13,,,64,48
21960,note_on,1,0,11,,,,,,,,6,,,37,48
21960,note_on,1,0,17,,,,,,,,11,,,69,48
21960,note_on,1,0,18,,,,,,,,12,,,67,48
21960,note_on,1,0,16,,,,,,,,10,,,49,48
21960,note_on,1,0,7,,,,,,,,2,,,69,48
21960,note_on,1,0,14,,,,,,,,10,,,67,48
22079,note_on,119,0,8,,,,,,,,3,,,67,0
22079,note_on,119,0,20,,,,,,,,14,,,49,0
22079,note_on,119,0,11,,,,,,,,6,,,37,0
22079,note_on,119,0,17,,,,,,,,11,,,69,0
22079,note_on,119,0,18,,,,,,,,12,,,67,0
22079,note_on,119,0,7,,,,,,,,2,,,69,0
22079,note_on,119,0,15,,,,,,,,10,,,64,0
22079,note_on,119,0,21,,,,,,,,15,,,64,0
22079,note_on,0,0,21,,,,,,,,15,,,49,0
22079,note_on,0,0,21,,,,,,,,15,,,67,0
22079,note_on,0,0,21,,,,,,,,15,,,69,0
22079,note_on,119,0,16,,,,,,,,10,,,49,0
22079,note_on,119,0,9,,,,,,,,4,,,64,0
22079,note_on,119,0,19,,,,,,,,13,,,64,0
22079,note_on,119,0,14,,,,,,,,10,,,67,0
22080,note_on,1,0,17,,,,,,,,11,,,69,48
22080,note_on,1,0,15,,,,,,,,10,,,62,48
22080,note_on,1,0,20,,,,,,,,14,,,50,48
22080,note_on,1,0,11,,,,,,,,6,,,38,48
22080,note_on,361,0,13,,,,,,,,8,,,45,48
22080,note_on,0,0,21,,,,,,,,15,,,69,48
22080,note_on,0,0,21,,,,,,,,15,,,65,48
22080,note_on,1,0,18,,,,,,,,12,,,65,48
22080,note_on,1,0,8,,,,,,,,3,,,65,48
22080,note_on,1,0,21,,,,,,,,15,,,50,48
22080,note_on,1,0,16,,,,,,,,10,,,50,48
22080,note_on,1,0,9,,,,,,,,4,,,62,48
22080,note_on,1,0,19,,,,,,,,13,,,62,48
22080,note_on,1,0,7,,,,,,,,2,,,69,48
22080,note_on,1,0,14,,,,,,,,10,,,65,48
22080,note_on,0,0,21,,,,,,,,15,,,62,48
22139,note_on,59,0,13,,,,,,,,8,,,45,0
22140,note_on,1,0,13,,,,,,,,8,,,45,48
22169,note_on,89,0,16,,,,,,,,10,,,50,0
22169,note_on,89,0,18,,,,,,,,12,,,65,0
22169,note_on,89,0,15,,,,,,,,10,,,62,0
22169,note_on,89,0,17,,,,,,,,11,,,69,0
22169,note_on,89,0,20,,,,,,,,14,,,50,0
22169,note_on,29,0,13,,,,,,,,8,,,45,0
22169,note_on,89,0,14,,,,,,,,10,,,65,0
22169,note_on,89,0,19,,,,,,,,13,,,62,0
22170,note_on,1,0,14,,,,,,,,10,,,65,48
22170,note_on,1,0,13,,,,,,,,8,,,45,48
22170,note_on,1,0,16,,,,,,,,10,,,50,48
22170,note_on,1,0,18,,,,,,,,12,,,65,48
22170,note_on,1,0,20,,,,,,,,14,,,50,48
22170,note_on,1,0,17,,,,,,,,11,,,69,48
22170,note_on,1,0,19,,,,,,,,13,,,62,48
22170,note_on,1,0,15,,,,,,,,10,,,62,48
22199,note_on,29,0,13,,,,,,,,8,,,45,0
22199,note_on,119,0,7,,,,,,,,2,,,69,0
22199,note_on,29,0,17,,,,,,,,11,,,69,0
22199,note_on,29,0,19,,,,,,,,13,,,62,0
22199,note_on,29,0,15,,,,,,,,10,,,62,0
22199,note_on,119,0,8,,,,,,,,3,,,65,0
22199,note_on,119,0,9,,,,,,,,4,,,62,0
22199,note_on,29,0,16,,,,,,,,10,,,50,0
22199,note_on,29,0,14,,,,,,,,10,,,65,0
22199,note_on,29,0,20,,,,,,,,14,,,50,0
22199,note_on,119,0,21,,,,,,,,15,,,62,0
22199,note_on,0,0,21,,,,,,,,15,,,50,0
22199,note_on,119,0,11,,,,,,,,6,,,38,0
22199,note_on,0,0,21,,,,,,,,15,,,65,0
22199,note_on,0,0,21,,,,,,,,15,,,69,0
22199,note_on,29,0,18,,,,,,,,12,,,65,0
22200,note_on,1,0,20,,,,,,,,14,,,48,48
22200,note_on,0,0,21,,,,,,,,15,,,57,48
22200,note_on,1,0,21,,,,,,,,15,,,48,48
22200,note_on,0,0,21,,,,,,,,15,,,64,48
22200,note_on,1,0,14,,,,,,,,10,,,64,48
22200,note_on,1,0,19,,,,,,,,13,,,57,48
22200,note_on,1,0,15,,,,,,,,10,,,57,48
22200,note_on,0,0,21,,,,,,,,15,,,69,48
22200,note_on,1,0,7,,,,,,,,2,,,69,48
22200,note_on,1,0,17,,,,,,,,11,,,69,48
22200,note_on,1,0,9,,,,,,,,4,,,57,48
22200,note_on,1,0,8,,,,,,,,3,,,64,48
22200,note_on,1,0,11,,,,,,,,6,,,36,48
22200,note_on,1,0,18,,,,,,,,12,,,64,48
22200,note_on,1,0,13,,,,,,,,8,,,45,48
22200,note_on,1,0,16,,,,,,,,10,,,48,48
22259,note_on,59,0,13,,,,,,,,8,,,45,0
22260,note_on,1,0,13,,,,,,,,8,,,45,48
22319,note_on,0,0,21,,,,,,,,15,,,69,0
22319,note_on,59,0,13,,,,,,,,8,,,45,0
22319,note_on,0,0,21,,,,,,,,15,,,64,0
22319,note_on,119,0,20,,,,,,,,14,,,48,0
22319,note_on,119,0,19,,,,,,,,13,,,57,0
22319,note_on,119,0,17,,,,,,,,11,,,69,0
22319,note_on,119,0,18,,,,,,,,12,,,64,0
22319,note_on,119,0,11,,,,,,,,6,,,36,0
22319,note_on,119,0,16,,,,,,,,10,,,48,0
22319,note_on,119,0,15,,,,,,,,10,,,57,0
22319,note_on,119,0,21,,,,,,,,15,,,57,0
22319,note_on,0,0,21,,,,,,,,15,,,48,0
22319,note_on,119,0,14,,,,,,,,10,,,64,0
22319,note_on,119,0,9,,,,,,,,4,,,57,0
22319,note_on,119,0,7,,,,,,,,2,,,69,0
22319,note_on,119,0,8,,,,,,,,3,,,64,0
22320,note_on,0,0,21,,,,,,,,15,,,62,48
22320,note_on,1,0,13,,,,,,,,8,,,45,48
22320,note_on,1,0,20,,,,,,,,14,,,47,48
22320,note_on,1,0,18,,,,,,,,12,,,62,48
22320,note_on,1,0,16,,,,,,,,10,,,47,48
22320,note_on,1,0,14,,,,,,,,10,,,62,48
22320,note_on,1,0,11,,,,,,,,6,,,35,48
22320,note_on,1,0,15,,,,,,,,10,,,53,48
22320,note_on,1,0,9,,,,,,,,4,,,53,48
22320,note_on,1,0,21,,,,,,,,15,,,47,48
22320,note_on,1,0,17,,,,,,,,11,,,69,48
22320,note_on,1,0,19,,,,,,,,13,,,53,48
22320,note_on,0,0,21,,,,,,,,15,,,65,48
22320,note_on,0,0,21,,,,,,,,15,,,69,48
22320,note_on,1,0,7,,,,,,,,2,,,69,48
22320,note_on,1,0,8,,,,,,,,3,,,62,48
22439,note_on,0,0,21,,,,,,,,15,,,47,0
22439,note_on,119,0,8,,,,,,,,3,,,62,0
22439,note_on,0,0,21,,,,,,,,15,,,62,0
22439,note_on,0,0,21,,,,,,,,15,,,65,0
22439,note_on,119,0,20,,,,,,,,14,,,47,0
22439,note_on,119,0,21,,,,,,,,15,,,69,0
22439,note_on,119,0,16,,,,,,,,10,,,47,0
22439,note_on,119,0,15,,,,,,,,10,,,53,0
22439,note_on,119,0,14,,,,,,,,10,,,62,0
22439,note_on,119,0,11,,,,,,,,6,,,35,0
22439,note_on,119,0,7,,,,,,,,2,,,69,0
22439,note_on,119,0,19,,,,,,,,13,,,53,0
22439,note_on,119,0,9,,,,,,,,4,,,53,0
22439,note_on,119,0,17,,,,,,,,11,,,69,0
22439,note_on,119,0,18,,,,,,,,12,,,62,0
22440,note_on,1,0,16,,,,,,,,10,,,46,48
22440,note_on,1,0,14,,,,,,,,10,,,62,48
22440,note_on,1,0,7,,,,,,,,2,,,68,48
22440,note_on,1,0,18,,,,,,,,12,,,62,48
22440,note_on,1,0,8,,,,,,,,3,,,62,48
22440,note_on,1,0,15,,,,,,,,10,,,52,48
22440,note_on,1,0,21,,,,,,,,15,,,46,48
22440,note_on,1,0,19,,,,,,,,13,,,52,48
22440,note_on,1,0,20,,,,,,,,14,,,46,48
22440,note_on,1,0,9,,,,,,,,4,,,52,48
22440,note_on,0,0,21,,,,,,,,15,,,62,48
22440,note_on,1,0,11,,,,,,,,6,,,34,48
22440,note_on,1,0,17,,,,,,,,11,,,68,48
22440,note_on,0,0,21,,,,,,,,15,,,68,48
22499,note_on,59,0,19,,,,,,,,13,,,52,0
22499,note_on,59,0,7,,,,,,,,2,,,68,0
22499,note_on,59,0,18,,,,,,,,12,,,62,0
22499,note_on,59,0,9,,,,,,,,4,,,52,0
22499,note_on,59,0,14,,,,,,,,10,,,62,0
22499,note_on,59,0,16,,,,,,,,10,,,46,0
22499,note_on,59,0,20,,,,,,,,14,,,46,0
22499,note_on,59,0,15,,,,,,,,10,,,52,0
22499,note_on,59,0,17,,,,,,,,11,,,68,0
22500,note_on,1,0,16,,,,,,,,10,,,46,48
22500,note_on,1,0,14,,,,,,,,10,,,62,48
22500,note_on,1,0,15,,,,,,,,10,,,50,48
22500,note_on,1,0,17,,,,,,,,11,,,69,48
22500,note_on,1,0,9,,,,,,,,4,,,50,48
22500,note_on,1,0,7,,,,,,,,2,,,69,48
22500,note_on,1,0,20,,,,,,,,14,,,46,48
22500,note_on,1,0,19,,,,,,,,13,,,50,48
22500,note_on,1,0,18,,,,,,,,12,,,62,48
22559,note_on,119,0,21,,,,,,,,15,,,68,0
22559,note_on,0,0,21,,,,,,,,15,,,62,0
22559,note_on,59,0,16,,,,,,,,10,,,46,0
22559,note_on,0,0,21,,,,,,,,15,,,46,0
22559,note_on,59,0,17,,,,,,,,11,,,69,0
22559,note_on,59,0,18,,,,,,,,12,,,62,0
22559,note_on,59,0,14,,,,,,,,10,,,62,0
22559,note_on,59,0,7,,,,,,,,2,,,69,0
22559,note_on,59,0,19,,,,,,,,13,,,50,0
22559,note_on,59,0,9,,,,,,,,4,,,50,0
22559,note_on,239,0,13,,,,,,,,8,,,45,0
22559,note_on,119,0,11,,,,,,,,6,,,34,0
22559,note_on,119,0,8,,,,,,,,3,,,62,0
22559,note_on,59,0,15,,,,,,,,10,,,50,0
22559,note_on,59,0,20,,,,,,,,14,,,46,0
22560,note_on,1,0,18,,,,,,,,12,,,62,48
22560,note_on,1,0,17,,,,,,,,11,,,65,48
22560,note_on,0,0,21,,,,,,,,15,,,65,48
22560,note_on,0,0,21,,,,,,,,15,,,62,48
22560,note_on,1,0,21,,,,,,,,15,,,45,48
22560,note_on,0,0,21,,,,,,,,15,,,57,48
22560,note_on,1,0,14,,,,,,,,10,,,62,48
22560,note_on,1,0,7,,,,,,,,2,,,65,48
22560,note_on,841,0,12,,,,,,,,7,,,69,48
22560,note_on,1,0,16,,,,,,,,10,,,45,48
22560,note_on,1,0,15,,,,,,,,10,,,57,48
22560,note_on,1,0,11,,,,,,,,6,,,33,48
22560,note_on,0,0,12,,,,,,,,7,,,57,48
22560,note_on,1,0,9,,,,,,,,4,,,57,48
22560,note_on,1,0,20,,,,,,,,14,,,45,48
22560,note_on,1,0,19,,,,,,,,13,,,57,48
22560,note_on,1,0,8,,,,,,,,3,,,62,48
22679,note_on,119,0,7,,,,,,,,2,,,65,0
22679,note_on,119,0,8,,,,,,,,3,,,62,0
22679,note_on,0,0,21,,,,,,,,15,,,62,0
22679,note_on,119,0,18,,,,,,,,12,,,62,0
22679,note_on,119,0,17,,,,,,,,11,,,65,0
22679,note_on,119,0,14,,,,,,,,10,,,62,0
22679,note_on,119,0,21,,,,,,,,15,,,65,0
22680,note_on,1,0,21,,,,,,,,15,,,64,48
22680,note_on,1,0,18,,,,,,,,12,,,61,48
22680,note_on,1,0,7,,,,,,,,2,,,64,48
22680,note_on,0,0,21,,,,,,,,15,,,61,48
22680,note_on,1,0,14,,,,,,,,10,,,61,48
22680,note_on,1,0,8,,,,,,,,3,,,61,48
22680,note_on,1,0,17,,,,,,,,11,,,64,48
22739,note_on,59,0,7,,,,,,,,2,,,64,0
22739,note_on,0,0,21,,,,,,,,15,,,64,0
22739,note_on,59,0,21,,,,,,,,15,,,61,0
22739,note_on,59,0,8,,,,,,,,3,,,61,0
22739,note_on,59,0,17,,,,,,,,11,,,64,0
22739,note_on,59,0,14,,,,,,,,10,,,61,0
22739,note_on,59,0,18,,,,,,,,12,,,61,0
22740,note_on,0,0,21,,,,,,,,15,,,59,48
22740,note_on,1,0,14,,,,,,,,10,,,59,48
22740,note_on,1,0,17,,,,,,,,11,,,62,48
22740,note_on,1,0,8,,,,,,,,3,,,59,48
22740,note_on,1,0,18,,,,,,,,12,,,59,48
22740,note_on,1,0,21,,,,,,,,15,,,62,48
22740,note_on,1,0,7,,,,,,,,2,,,62,48
22799,note_on,59,0,8,,,,,,,,3,,,59,0
22799,note_on,59,0,7,,,,,,,,2,,,62,0
22799,note_on,59,0,14,,,,,,,,10,,,59,0
22799,note_on,239,0,12,,,,,,,,7,,,57,0
22799,note_on,239,0,11,,,,,,,,6,,,33,0
22799,note_on,239,0,15,,,,,,,,10,,,57,0
22799,note_on,239,0,19,,,,,,,,13,,,57,0
22799,note_on,239,0,9,,,,,,,,4,,,57,0
22799,note_on,0,0,12,,,,,,,,7,,,69,0
22799,note_on,239,0,20,,,,,,,,14,,,45,0
22799,note_on,59,0,18,,,,,,,,12,,,59,0
22799,note_on,59,0,17,,,,,,,,11,,,62,0
22799,note_on,0,0,21,,,,,,,,15,,,57,0
22799,note_on,0,0,21,,,,,,,,15,,,45,0
22799,note_on,239,0,16,,,,,,,,10,,,45,0
22799,note_on,0,0,21,,,,,,,,15,,,62,0
22799,note_on,59,0,21,,,,,,,,15,,,59,0
22800,note_on,1,0,9,,,,,,,,4,,,57,48
22800,note_on,1,0,18,,,,,,,,12,,,61,48
22800,note_on,1,0,20,,,,,,,,14,,,45,48
22800,note_on,1,0,12,,,,,,,,7,,,69,48
22800,note_on,0,0,12,,,,,,,,7,,,57,48
22800,note_on,1,0,17,,,,,,,,11,,,64,48
22800,note_on,1,0,7,,,,,,,,2,,,64,48
22800,note_on,1,0,15,,,,,,,,10,,,57,48
22800,note_on,1,0,8,,,,,,,,3,,,60,48
22800,note_on,1,0,16,,,,,,,,10,,,45,48
22800,note_on,0,0,21,,,,,,,,15,,,57,48
22800,note_on,0,0,21,,,,,,,,15,,,61,48
22800,note_on,0,0,21,,,,,,,,15,,,64,48
22800,note_on,1,0,14,,,,,,,,10,,,61,48
22800,note_on,1,0,19,,,,,,,,13,,,57,48
22800,set_tempo,22800,1,0,,,,,,2000000,,,,,,
22800,note_on,1,0,21,,,,,,,,15,,,45,48
22800,note_on,1,0,11,,,,,,,,6,,,33,48
23039,note_on,239,0,15,,,,,,,,10,,,57,0
23039,note_on,0,0,21,,,,,,,,15,,,57,0
23039,note_on,0,0,21,,,,,,,,15,,,45,0
23039,note_on,0,0,12,,,,,,,,7,,,69,0
23039,note_on,239,0,8,,,,,,,,3,,,60,0
23039,note_on,239,0,14,,,,,,,,10,,,61,0
23039,note_on,239,0,21,,,,,,,,15,,,64,0
23039,note_on,0,0,21,,,,,,,,15,,,61,0
23039,note_on,239,0,11,,,,,,,,6,,,33,0
23039,note_on,239,0,12,,,,,,,,7,,,57,0
23039,note_on,239,0,9,,,,,,,,4,,,57,0
23039,note_on,239,0,17,,,,,,,,11,,,64,0
23039,note_on,239,0,16,,,,,,,,10,,,45,0
23039,note_on,239,0,7,,,,,,,,2,,,64,0
23039,note_on,239,0,18,,,,,,,,12,,,61,0
23039,note_on,239,0,19,,,,,,,,13,,,57,0
23039,note_on,239,0,20,,,,,,,,14,,,45,0
23040,marker,0,1,0,,,,,,,,,,,,
23040,note_on,1,0,16,,,,,,,,10,,,57,72
23040,set_tempo,240,1,0,,,,,,545455,,,,,,
23040,note_on,1321,0,6,,,,,,,,1,,,57,72
23040,note_on,1,0,11,,,,,,,,6,,,45,72
23040,note_on,1,0,21,,,,,,,,15,,,57,72
23040,note_on,1,0,20,,,,,,,,14,,,57,72
23219,note_on,179,0,21,,,,,,,,15,,,57,0
23219,note_on,179,0,16,,,,,,,,10,,,57,0
23219,note_on,179,0,11,,,,,,,,6,,,45,0
23219,note_on,179,0,6,,,,,,,,1,,,57,0
23219,note_on,179,0,20,,,,,,,,14,,,57,0
23220,note_on,1,0,6,,,,,,,,1,,,57,72
23220,note_on,1,0,11,,,,,,,,6,,,45,72
23220,note_on,1,0,20,,,,,,,,14,,,57,72
23220,note_on,1,0,16,,,,,,,,10,,,57,72
23220,note_on,1,0,21,,,,,,,,15,,,57,72
23279,note_on,59,0,16,,,,,,,,10,,,57,0
23279,note_on,59,0,21,,,,,,,,15,,,57,0
23279,note_on,59,0,6,,,,,,,,1,,,57,0
23279,note_on,59,0,20,,,,,,,,14,,,57,0
23279,note_on,59,0,11,,,,,,,,6,,,45,0
23280,note_on,1,0,6,,,,,,,,1,,,53,72
23280,note_on,1,0,16,,,,,,,,10,,,53,72
23280,note_on,1,0,20,,,,,,,,14,,,53,72
23280,note_on,1,0,21,,,,,,,,15,,,53,72
23280,note_on,1,0,11,,,,,,,,6,,,41,72
23399,note_on,119,0,16,,,,,,,,10,,,53,0
23399,note_on,119,0,20,,,,,,,,14,,,53,0
23399,note_on,119,0,6,,,,,,,,1,,,53,0
23399,note_on,119,0,11,,,,,,,,6,,,41,0
23399,note_on,119,0,21,,,,,,,,15,,,53,0
23400,note_on,1,0,11,,,,,,,,6,,,46,72
23400,note_on,1,0,6,,,,,,,,1,,,58,72
23400,note_on,1,0,16,,,,,,,,10,,,58,72
23400,note_on,1,0,20,,,,,,,,14,,,58,72
23400,note_on,1,0,21,,,,,,,,15,,,58,72
23519,note_on,119,0,6,,,,,,,,1,,,58,0
23519,note_on,119,0,11,,,,,,,,6,,,46,0
23519,note_on,119,0,21,,,,,,,,15,,,58,0
23519,note_on,119,0,16,,,,,,,,10,,,58,0
23519,note_on,119,0,20,,,,,,,,14,,,58,0
23520,note_on,1,0,11,,,,,,,,6,,,37,72
23520,note_on,1,0,20,,,,,,,,14,,,49,72
23520,note_on,1,0,21,,,,,,,,15,,,49,72
23520,note_on,1,0,6,,,,,,,,1,,,49,72
23520,note_on,1,0,16,,,,,,,,10,,,49,72
23580,note_on,541,0,18,,,,,,,,12,,,64,72
23580,note_on,1861,0,5,,,,,,,,0,,,64,72
23580,note_on,60,0,21,,,,,,,,15,,,64,72
23580,note_on,541,0,8,,,,,,,,3,,,64,72
23580,note_on,5521,0,10,,,,,,,,5,,,64,72
23580,note_on,541,0,14,,,,,,,,10,,,64,72
23639,note_on,59,0,8,,,,,,,,3,,,64,0
23639,note_on,59,0,10,,,,,,,,5,,,64,0
23639,note_on,59,0,21,,,,,,,,15,,,64,0
23639,note_on,59,0,14,,,,,,,,10,,,64,0
23639,note_on,59,0,5,,,,,,,,0,,,64,0
23639,note_on,59,0,18,,,,,,,,12,,,64,0
23640,note_on,1,0,21,,,,,,,,15,,,64,72
23640,note_on,1,0,5,,,,,,,,0,,,64,72
23640,note_on,1,0,18,,,,,,,,12,,,64,72
23640,note_on,1,0,10,,,,,,,,5,,,64,72
23640,note_on,1,0,8,,,,,,,,3,,,64,72
23640,note_on,1,0,14,,,,,,,,10,,,64,72
23699,note_on,59,0,8,,,,,,,,3,,,64,0
23699,note_on,179,0,20,,,,,,,,14,,,49,0
23699,note_on,59,0,14,,,,,,,,10,,,64,0
23699,note_on,59,0,10,,,,,,,,5,,,64,0
23699,note_on,179,0,11,,,,,,,,6,,,37,0
23699,note_on,59,0,5,,,,,,,,0,,,64,0
23699,note_on,179,0,16,,,,,,,,10,,,49,0
23699,note_on,59,0,18,,,,,,,,12,,,64,0
23699,note_on,179,0,6,,,,,,,,1,,,49,0
23699,note_on,59,0,21,,,,,,,,15,,,64,0
23699,note_on,0,0,21,,,,,,,,15,,,49,0
23700,note_on,1,0,8,,,,,,,,3,,,64,72
23700,note_on,1,0,18,,,,,,,,12,,,64,72
23700,note_on,1,0,14,,,,,,,,10,,,64,72
23700,note_on,1,0,10,,,,,,,,5,,,64,72
23700,note_on,1,0,16,,,,,,,,10,,,49,72
23700,note_on,1,0,5,,,,,,,,0,,,64,72
23700,note_on,1,0,21,,,,,,,,15,,,64,72
23700,note_on,1,0,20,,,,,,,,14,,,49,72
23700,note_on,0,0,21,,,,,,,,15,,,49,72
23700,note_on,1,0,11,,,,,,,,6,,,37,72
23700,note_on,1,0,6,,,,,,,,1,,,49,72
23759,note_on,0,0,21,,,,,,,,15,,,64,0
23759,note_on,59,0,14,,,,,,,,10,,,64,0
23759,note_on,59,0,8,,,,,,,,3,,,64,0
23759,note_on,59,0,10,,,,,,,,5,,,64,0
23759,note_on,59,0,6,,,,,,,,1,,,49,0
23759,note_on,59,0,16,,,,,,,,10,,,49,0
23759,note_on,59,0,5,,,,,,,,0,,,64,0
23759,note_on,59,0,11,,,,,,,,6,,,37,0
23759,note_on,59,0,20,,,,,,,,14,,,49,0
23759,note_on,59,0,21,,,,,,,,15,,,49,0
23759,note_on,59,0,18,,,,,,,,12,,,64,0
23760,note_on,1,0,8,,,,,,,,3,,,65,72
23760,note_on,1,0,16,,,,,,,,10,,,50,72
23760,note_on,1,0,18,,,,,,,,12,,,65,72
23760,note_on,1,0,20,,,,,,,,14,,,50,72
23760,note_on,0,0,21,,,,,,,,15,,,50,72
23760,note_on,1,0,6,,,,,,,,1,,,50,72
23760,note_on,1,0,10,,,,,,,,5,,,65,72
23760,note_on,1,0,14,,,,,,,,10,,,65,72
23760,note_on,1,0,5,,,,,,,,0,,,65,72
23760,note_on,1,0,11,,,,,,,,6,,,38,72
23760,note_on,1,0,21,,,,,,,,15,,,65,72
23789,note_on,29,0,8,,,,,,,,3,,,65,0
23789,note_on,29,0,14,,,,,,,,10,,,65,0
23789,note_on,29,0,10,,,,,,,,5,,,65,0
23789,note_on,29,0,18,,,,,,,,12,,,65,0
23789,note_on,29,0,5,,,,,,,,0,,,65,0
23789,note_on,29,0,21,,,,,,,,15,,,65,0
23790,note_on,1,0,14,,,,,,,,10,,,67,72
23790,note_on,1,0,10,,,,,,,,5,,,67,72
23790,note_on,1,0,18,,,,,,,,12,,,67,72
23790,note_on,1,0,8,,,,,,,,3,,,67,72
23790,note_on,1,0,5,,,,,,,,0,,,67,72
23790,note_on,1,0,21,,,,,,,,15,,,67,72
23819,note_on,29,0,18,,,,,,,,12,,,67,0
23819,note_on,29,0,8,,,,,,,,3,,,67,0
23819,note_on,29,0,10,,,,,,,,5,,,67,0
23819,note_on,29,0,14,,,,,,,,10,,,67,0
23819,note_on,29,0,21,,,,,,,,15,,,67,0
23819,note_on,29,0,5,,,,,,,,0,,,67,0
23820,note_on,1,0,8,,,,,,,,3,,,65,72
23820,note_on,1,0,14,,,,,,,,10,,,65,72
23820,note_on,1,0,5,,,,,,,,0,,,65,72
23820,note_on,1,0,10,,,,,,,,5,,,65,72
23820,note_on,1,0,18,,,,,,,,12,,,65,72
23820,note_on,1,0,21,,,,,,,,15,,,65,72
23849,note_on,29,0,21,,,,,,,,15,,,65,0
23849,note_on,29,0,18,,,,,,,,12,,,65,0
23849,note_on,29,0,10,,,,,,,,5,,,65,0
23849,note_on,29,0,8,,,,,,,,3,,,65,0
23849,note_on,29,0,14,,,,,,,,10,,,65,0
23849,note_on,29,0,5,,,,,,,,0,,,65,0
23850,note_on,1,0,18,,,,,,,,12,,,64,72
23850,note_on,1,0,8,,,,,,,,3,,,64,72
23850,note_on,1,0,10,,,,,,,,5,,,64,72
23850,note_on,1,0,5,,,,,,,,0,,,64,72
23850,note_on,1,0,21,,,,,,,,15,,,64,72
23850,note_on,1,0,14,,,,,,,,10,,,64,72
23879,note_on,29,0,8,,,,,,,,3,,,64,0
23879,note_on,29,0,10,,,,,,,,5,,,64,0
23879,note_on,29,0,18,,,,,,,,12,,,64,0
23879,note_on,29,0,14,,,,,,,,10,,,64,0
23879,note_on,119,0,16,,,,,,,,10,,,50,0
23879,note_on,119,0,6,,,,,,,,1,,,50,0
23879,note_on,29,0,5,,,,,,,,0,,,64,0
23879,note_on,29,0,21,,,,,,,,15,,,64,0
23879,note_on,119,0,20,,,,,,,,14,,,50,0
23879,note_on,119,0,11,,,,,,,,6,,,38,0
23879,note_on,0,0,21,,,,,,,,15,,,50,0
23880,note_on,1,0,21,,,,,,,,15,,,65,72
23880,note_on,1,0,8,,,,,,,,3,,,65,72
23880,note_on,1,0,18,,,,,,,,12,,,65,72
23880,note_on,1,0,5,,,,,,,,0,,,65,72
23880,note_on,1,0,10,,,,,,,,5,,,65,72
23880,note_on,1,0,14,,,,,,,,10,,,65,72
23909,note_on,29,0,8,,,,,,,,3,,,65,0
23909,note_on,29,0,10,,,,,,,,5,,,65,0
23909,note_on,29,0,5,,,,,,,,0,,,65,0
23909,note_on,29,0,21,,,,,,,,15,,,65,0
23909,note_on,29,0,18,,,,,,,,12,,,65,0
23909,note_on,29,0,14,,,,,,,,10,,,65,0
23910,note_on,1,0,18,,,,,,,,12,,,67,72
23910,note_on,1,0,5,,,,,,,,0,,,67,72
23910,note_on,1,0,8,,,,,,,,3,,,67,72
23910,note_on,1,0,21,,,,,,,,15,,,67,72
23910,note_on,1,0,14,,,,,,,,10,,,67,72
23910,note_on,1,0,10,,,,,,,,5,,,67,72
23939,note_on,29,0,8,,,,,,,,3,,,67,0
23939,note_on,29,0,18,,,,,,,,12,,,67,0
23939,note_on,29,0,21,,,,,,,,15,,,67,0
23939,note_on,29,0,5,,,,,,,,0,,,67,0
23939,note_on,29,0,14,,,,,,,,10,,,67,0
23939,note_on,29,0,10,,,,,,,,5,,,67,0
23940,note_on,1,0,18,,,,,,,,12,,,64,72
23940,note_on,61,0,11,,,,,,,,6,,,38,72
23940,note_on,1,0,10,,,,,,,,5,,,64,72
23940,note_on,1,0,21,,,,,,,,15,,,64,72
23940,note_on,1,0,14,,,,,,,,10,,,64,72
23940,note_on,0,0,21,,,,,,,,15,,,50,72
23940,note_on,61,0,6,,,,,,,,1,,,50,72
23940,note_on,61,0,16,,,,,,,,10,,,50,72
23940,note_on,61,0,20,,,,,,,,14,,,50,72
23940,note_on,1,0,5,,,,,,,,0,,,64,72
23940,note_on,1,0,8,,,,,,,,3,,,64,72
23969,note_on,29,0,10,,,,,,,,5,,,64,0
23969,note_on,29,0,14,,,,,,,,10,,,64,0
23969,note_on,29,0,18,,,,,,,,12,,,64,0
23969,note_on,29,0,21,,,,,,,,15,,,64,0
23969,note_on,29,0,5,,,,,,,,0,,,64,0
23969,note_on,29,0,8,,,,,,,,3,,,64,0
23970,note_on,1,0,8,,,,,,,,3,,,65,72
23970,note_on,1,0,21,,,,,,,,15,,,65,72
23970,note_on,1,0,18,,,,,,,,12,,,65,72
23970,note_on,1,0,10,,,,,,,,5,,,65,72
23970,note_on,1,0,14,,,,,,,,10,,,65,72
23970,note_on,1,0,5,,,,,,,,0,,,65,72
23999,note_on,29,0,14,,,,,,,,10,,,65,0
23999,note_on,59,0,16,,,,,,,,10,,,50,0
23999,note_on,0,0,21,,,,,,,,15,,,50,0
23999,note_on,59,0,11,,,,,,,,6,,,38,0
23999,note_on,29,0,21,,,,,,,,15,,,65,0
23999,note_on,29,0,5,,,,,,,,0,,,65,0
23999,note_on,59,0,20,,,,,,,,14,,,50,0
23999,note_on,29,0,8,,,,,,,,3,,,65,0
23999,note_on,29,0,10,,,,,,,,5,,,65,0
23999,note_on,29,0,18,,,,,,,,12,,,65,0
23999,note_on,59,0,6,,,,,,,,1,,,50,0
24000,note_on,1,0,21,,,,,,,,15,,,52,72
24000,note_on,1,0,14,,,,,,,,10,,,67,72
24000,note_on,1,0,10,,,,,,,,5,,,67,72
24000,note_on,1,0,18,,,,,,,,12,,,67,72
24000,note_on,1,0,16,,,,,,,,10,,,52,72
24000,note_on,0,0,21,,,,,,,,15,,,67,72
24000,note_on,1,0,20,,,,,,,,14,,,52,72
24000,note_on,1,0,6,,,,,,,,1,,,52,72
24000,note_on,1,0,8,,,,,,,,3,,,67,72
24000,note_on,1,0,5,,,,,,,,0,,,67,72
24000,note_on,1,0,11,,,,,,,,6,,,40,72
24029,note_on,29,0,18,,,,,,,,12,,,67,0
24029,note_on,29,0,5,,,,,,,,0,,,67,0
24029,note_on,29,0,10,,,,,,,,5,,,67,0
24029,note_on,29,0,8,,,,,,,,3,,,67,0
24029,note_on,29,0,21,,,,,,,,15,,,67,0
24029,note_on,29,0,14,,,,,,,,10,,,67,0
24030,note_on,1,0,10,,,,,,,,5,,,69,72
24030,note_on,1,0,14,,,,,,,,10,,,69,72
24030,note_on,1,0,21,,,,,,,,15,,,69,72
24030,note_on,1,0,5,,,,,,,,0,,,69,72
24030,note_on,1,0,8,,,,,,,,3,,,69,72
24030,note_on,1,0,18,,,,,,,,12,,,69,72
24059,note_on,29,0,14,,,,,,,,10,,,69,0
24059,note_on,29,0,18,,,,,,,,12,,,69,0
24059,note_on,29,0,8,,,,,,,,3,,,69,0
24059,note_on,29,0,21,,,,,,,,15,,,69,0
24059,note_on,29,0,10,,,,,,,,5,,,69,0
24059,note_on,29,0,5,,,,,,,,0,,,69,0
24060,note_on,1,0,5,,,,,,,,0,,,67,72
24060,note_on,1,0,8,,,,,,,,3,,,67,72
24060,note_on,1,0,14,,,,,,,,10,,,67,72
24060,note_on,1,0,10,,,,,,,,5,,,67,72
24060,note_on,1,0,18,,,,,,,,12,,,67,72
24060,note_on,1,0,21,,,,,,,,15,,,67,72
24089,note_on,29,0,5,,,,,,,,0,,,67,0
24089,note_on,29,0,8,,,,,,,,3,,,67,0
24089,note_on,29,0,21,,,,,,,,15,,,67,0
24089,note_on,29,0,18,,,,,,,,12,,,67,0
24089,note_on,29,0,14,,,,,,,,10,,,67,0
24089,note_on,29,0,10,,,,,,,,5,,,67,0
24090,note_on,1,0,8,,,,,,,,3,,,65,72
24090,note_on,1,0,10,,,,,,,,5,,,65,72
24090,note_on,1,0,21,,,,,,,,15,,,65,72
24090,note_on,1,0,5,,,,,,,,0,,,65,72
24090,note_on,1,0,14,,,,,,,,10,,,65,72
24090,note_on,1,0,18,,,,,,,,12,,,65,72
24119,note_on,29,0,14,,,,,,,,10,,,65,0
24119,note_on,29,0,5,,,,,,,,0,,,65,0
24119,note_on,29,0,8,,,,,,,,3,,,65,0
24119,note_on,29,0,10,,,,,,,,5,,,65,0
24119,note_on,29,0,21,,,,,,,,15,,,65,0
24119,note_on,29,0,18,,,,,,,,12,,,65,0
24120,note_on,1,0,14,,,,,,,,10,,,67,72
24120,note_on,1,0,18,,,,,,,,12,,,67,72
24120,note_on,1,0,8,,,,,,,,3,,,67,72
24120,note_on,1,0,10,,,,,,,,5,,,67,72
24120,note_on,1,0,21,,,,,,,,15,,,67,72
24120,note_on,1,0,5,,,,,,,,0,,,67,72
24149,note_on,29,0,14,,,,,,,,10,,,67,0
24149,note_on,29,0,10,,,,,,,,5,,,67,0
24149,note_on,29,0,18,,,,,,,,12,,,67,0
24149,note_on,29,0,5,,,,,,,,0,,,67,0
24149,note_on,29,0,8,,,,,,,,3,,,67,0
24149,note_on,29,0,21,,,,,,,,15,,,67,0
24150,note_on,1,0,5,,,,,,,,0,,,69,72
24150,note_on,1,0,18,,,,,,,,12,,,69,72
24150,note_on,1,0,21,,,,,,,,15,,,69,72
24150,note_on,1,0,8,,,,,,,,3,,,69,72
24150,note_on,1,0,14,,,,,,,,10,,,69,72
24150,note_on,1,0,10,,,,,,,,5,,,69,72
24179,note_on,29,0,18,,,,,,,,12,,,69,0
24179,note_on,29,0,5,,,,,,,,0,,,69,0
24179,note_on,179,0,20,,,,,,,,14,,,52,0
24179,note_on,179,0,16,,,,,,,,10,,,52,0
24179,note_on,29,0,8,,,,,,,,3,,,69,0
24179,note_on,179,0,6,,,,,,,,1,,,52,0
24179,note_on,29,0,10,,,,,,,,5,,,69,0
24179,note_on,29,0,21,,,,,,,,15,,,69,0
24179,note_on,0,0,21,,,,,,,,15,,,52,0
24179,note_on,29,0,14,,,,,,,,10,,,69,0
24179,note_on,179,0,11,,,,,,,,6,,,40,0
24180,note_on,1,0,18,,,,,,,,12,,,65,72
24180,note_on,1,0,21,,,,,,,,15,,,65,72
24180,note_on,0,0,21,,,,,,,,15,,,50,72
24180,note_on,1,0,14,,,,,,,,10,,,65,72
24180,note_on,1,0,11,,,,,,,,6,,,38,72
24180,note_on,1,0,5,,,,,,,,0,,,65,72
24180,note_on,1,0,20,,,,,,,,14,,,50,72
24180,note_on,1,0,8,,,,,,,,3,,,65,72
24180,note_on,1,0,6,,,,,,,,1,,,50,72
24180,note_on,1,0,10,,,,,,,,5,,,65,72
24180,note_on,1,0,16,,,,,,,,10,,,50,72
24209,note_on,29,0,10,,,,,,,,5,,,65,0
24209,note_on,29,0,14,,,,,,,,10,,,65,0
24209,note_on,29,0,5,,,,,,,,0,,,65,0
24209,note_on,0,0,21,,,,,,,,15,,,65,0
24209,note_on,29,0,21,,,,,,,,15,,,50,0
24209,note_on,29,0,11,,,,,,,,6,,,38,0
24209,note_on,29,0,16,,,,,,,,10,,,50,0
24209,note_on,29,0,20,,,,,,,,14,,,50,0
24209,note_on,29,0,18,,,,,,,,12,,,65,0
24209,note_on,29,0,8,,,,,,,,3,,,65,0
24209,note_on,29,0,6,,,,,,,,1,,,50,0
24210,note_on,1,0,6,,,,,,,,1,,,52,72
24210,note_on,1,0,5,,,,,,,,0,,,67,72
24210,note_on,1,0,10,,,,,,,,5,,,67,72
24210,note_on,1,0,14,,,,,,,,10,,,67,72
24210,note_on,0,0,21,,,,,,,,15,,,52,72
24210,note_on,1,0,21,,,,,,,,15,,,67,72
24210,note_on,1,0,8,,,,,,,,3,,,67,72
24210,note_on,1,0,20,,,,,,,,14,,,52,72
24210,note_on,1,0,16,,,,,,,,10,,,52,72
24210,note_on,1,0,11,,,,,,,,6,,,40,72
24210,note_on,1,0,18,,,,,,,,12,,,67,72
24239,note_on,29,0,14,,,,,,,,10,,,67,0
24239,note_on,29,0,20,,,,,,,,14,,,52,0
24239,note_on,29,0,16,,,,,,,,10,,,52,0
24239,note_on,0,0,21,,,,,,,,15,,,67,0
24239,note_on,29,0,5,,,,,,,,0,,,67,0
24239,note_on,29,0,6,,,,,,,,1,,,52,0
24239,note_on,29,0,21,,,,,,,,15,,,52,0
24239,note_on,29,0,18,,,,,,,,12,,,67,0
24239,note_on,29,0,11,,,,,,,,6,,,40,0
24239,note_on,29,0,10,,,,,,,,5,,,67,0
24239,note_on,29,0,8,,,,,,,,3,,,67,0
24240,note_on,1,0,16,,,,,,,,10,,,53,72
24240,note_on,1,0,21,,,,,,,,15,,,53,72
24240,note_on,1,0,5,,,,,,,,0,,,69,72
24240,note_on,1,0,14,,,,,,,,10,,,69,72
24240,note_on,1,0,20,,,,,,,,14,,,53,72
24240,note_on,1,0,18,,,,,,,,12,,,69,72
24240,note_on,0,0,21,,,,,,,,15,,,69,72
24240,note_on,1,0,6,,,,,,,,1,,,53,72
24240,note_on,1,0,8,,,,,,,,3,,,69,72
24240,note_on,1,0,10,,,,,,,,5,,,69,72
24240,note_on,1,0,11,,,,,,,,6,,,41,72
24299,note_on,0,0,21,,,,,,,,15,,,53,0
24299,note_on,59,0,14,,,,,,,,10,,,69,0
24299,note_on,59,0,6,,,,,,,,1,,,53,0
24299,note_on,59,0,21,,,,,,,,15,,,69,0
24299,note_on,59,0,5,,,,,,,,0,,,69,0
24299,note_on,59,0,20,,,,,,,,14,,,53,0
24299,note_on,59,0,16,,,,,,,,10,,,53,0
24299,note_on,59,0,11,,,,,,,,6,,,41,0
24299,note_on,59,0,10,,,,,,,,5,,,69,0
24299,note_on,59,0,8,,,,,,,,3,,,69,0
24299,note_on,59,0,18,,,,,,,,12,,,69,0
24300,note_on,1,0,18,,,,,,,,12,,,70,72
24300,note_on,1,0,16,,,,,,,,10,,,52,72
24300,note_on,1,0,10,,,,,,,,5,,,70,72
24300,note_on,1,0,5,,,,,,,,0,,,70,72
24300,note_on,1,0,21,,,,,,,,15,,,52,72
24300,note_on,1,0,8,,,,,,,,3,,,70,72
24300,note_on,0,0,21,,,,,,,,15,,,70,72
24300,note_on,1,0,11,,,,,,,,6,,,40,72
24300,note_on,1,0,6,,,,,,,,1,,,52,72
24300,note_on,1,0,14,,,,,,,,10,,,70,72
24300,note_on,1,0,20,,,,,,,,14,,,52,72
24329,note_on,29,0,18,,,,,,,,12,,,70,0
24329,note_on,0,0,21,,,,,,,,15,,,52,0
24329,note_on,29,0,6,,,,,,,,1,,,52,0
24329,note_on,29,0,8,,,,,,,,3,,,70,0
24329,note_on,29,0,21,,,,,,,,15,,,70,0
24329,note_on,29,0,14,,,,,,,,10,,,70,0
24329,note_on,29,0,20,,,,,,,,14,,,52,0
24329,note_on,29,0,5,,,,,,,,0,,,70,0
24329,note_on,29,0,10,,,,,,,,5,,,70,0
24329,note_on,29,0,11,,,,,,,,6,,,40,0
24329,note_on,29,0,16,,,,,,,,10,,,52,0
24330,note_on,1,0,11,,,,,,,,6,,,41,72
24330,note_on,1,0,20,,,,,,,,14,,,53,72
24330,note_on,1,0,18,,,,,,,,12,,,69,72
24330,note_on,0,0,21,,,,,,,,15,,,53,72
24330,note_on,1,0,21,,,,,,,,15,,,69,72
24330,note_on,1,0,6,,,,,,,,1,,,53,72
24330,note_on,1,0,8,,,,,,,,3,,,69,72
24330,note_on,1,0,14,,,,,,,,10,,,69,72
24330,note_on,1,0,10,,,,,,,,5,,,69,72
24330,note_on,1,0,5,,,,,,,,0,,,69,72
24330,note_on,1,0,16,,,,,,,,10,,,53,72
24359,note_on,29,0,6,,,,,,,,1,,,53,0
24359,note_on,29,0,16,,,,,,,,10,,,53,0
24359,note_on,29,0,18,,,,,,,,12,,,69,0
24359,note_on,29,0,5,,,,,,,,0,,,69,0
24359,note_on,0,0,21,,,,,,,,15,,,69,0
24359,note_on,29,0,11,,,,,,,,6,,,41,0
24359,note_on,29,0,14,,,,,,,,10,,,69,0
24359,note_on,29,0,21,,,,,,,,15,,,53,0
24359,note_on,29,0,10,,,,,,,,5,,,69,0
24359,note_on,29,0,8,,,,,,,,3,,,69,0
24359,note_on,29,0,20,,,,,,,,14,,,53,0
24360,note_on,1,0,14,,,,,,,,10,,,67,72
24360,note_on,1,0,10,,,,,,,,5,,,67,72
24360,note_on,1,0,6,,,,,,,,1,,,55,72
24360,note_on,1,0,11,,,,,,,,6,,,43,72
24360,note_on,1,0,20,,,,,,,,14,,,55,72
24360,note_on,1,0,5,,,,,,,,0,,,67,72
24360,note_on,0,0,21,,,,,,,,15,,,67,72
24360,note_on,1,0,16,,,,,,,,10,,,55,72
24360,note_on,1,0,18,,,,,,,,12,,,67,72
24360,note_on,1,0,21,,,,,,,,15,,,55,72
24360,note_on,1,0,8,,,,,,,,3,,,67,72
24389,note_on,29,0,14,,,,,,,,10,,,67,0
24389,note_on,29,0,21,,,,,,,,15,,,67,0
24389,note_on,29,0,10,,,,,,,,5,,,67,0
24389,note_on,29,0,8,,,,,,,,3,,,67,0
24389,note_on,29,0,18,,,,,,,,12,,,67,0
24389,note_on,29,0,5,,,,,,,,0,,,67,0
24390,note_on,1,0,8,,,,,,,,3,,,65,72
24390,note_on,1,0,10,,,,,,,,5,,,65,72
24390,note_on,1,0,5,,,,,,,,0,,,65,72
24390,note_on,1,0,21,,,,,,,,15,,,65,72
24390,note_on,1,0,18,,,,,,,,12,,,65,72
24390,note_on,1,0,14,,,,,,,,10,,,65,72
24419,note_on,29,0,8,,,,,,,,3,,,65,0
24419,note_on,59,0,11,,,,,,,,6,,,43,0
24419,note_on,59,0,6,,,,,,,,1,,,55,0
24419,note_on,59,0,20,,,,,,,,14,,,55,0
24419,note_on,29,0,18,,,,,,,,12,,,65,0
24419,note_on,29,0,21,,,,,,,,15,,,65,0
24419,note_on,59,0,16,,,,,,,,10,,,55,0
24419,note_on,0,0,21,,,,,,,,15,,,55,0
24419,note_on,29,0,14,,,,,,,,10,,,65,0
24419,note_on,29,0,5,,,,,,,,0,,,65,0
24419,note_on,29,0,10,,,,,,,,5,,,65,0
24420,note_on,1,0,8,,,,,,,,3,,,64,72
24420,note_on,1,0,21,,,,,,,,15,,,53,72
24420,note_on,1,0,6,,,,,,,,1,,,53,72
24420,note_on,1,0,5,,,,,,,,0,,,64,72
24420,note_on,1,0,11,,,,,,,,6,,,41,72
24420,note_on,1,0,16,,,,,,,,10,,,53,72
24420,note_on,1,0,10,,,,,,,,5,,,64,72
24420,note_on,1,0,18,,,,,,,,12,,,64,72
24420,note_on,1,0,14,,,,,,,,10,,,64,72
24420,note_on,1,0,20,,,,,,,,14,,,53,72
24420,note_on,0,0,21,,,,,,,,15,,,64,72
24449,note_on,29,0,20,,,,,,,,14,,,53,0
24449,note_on,29,0,16,,,,,,,,10,,,53,0
24449,note_on,29,0,8,,,,,,,,3,,,64,0
24449,note_on,29,0,14,,,,,,,,10,,,64,0
24449,note_on,29,0,5,,,,,,,,0,,,64,0
24449,note_on,29,0,11,,,,,,,,6,,,41,0
24449,note_on,29,0,10,,,,,,,,5,,,64,0
24449,note_on,29,0,6,,,,,,,,1,,,53,0
24449,note_on,29,0,21,,,,,,,,15,,,64,0
24449,note_on,29,0,18,,,,,,,,12,,,64,0
24449,note_on,0,0,21,,,,,,,,15,,,53,0
24450,note_on,1,0,11,,,,,,,,6,,,43,72
24450,note_on,1,0,20,,,,,,,,14,,,55,72
24450,note_on,1,0,18,,,,,,,,12,,,62,72
24450,note_on,1,0,6,,,,,,,,1,,,55,72
24450,note_on,0,0,21,,,,,,,,15,,,62,72
24450,note_on,1,0,10,,,,,,,,5,,,62,72
24450,note_on,1,0,16,,,,,,,,10,,,55,72
24450,note_on,1,0,14,,,,,,,,10,,,62,72
24450,note_on,1,0,8,,,,,,,,3,,,62,72
24450,note_on,1,0,5,,,,,,,,0,,,62,72
24450,note_on,1,0,21,,,,,,,,15,,,55,72
24479,note_on,29,0,14,,,,,,,,10,,,62,0
24479,note_on,29,0,18,,,,,,,,12,,,62,0
24479,note_on,29,0,8,,,,,,,,3,,,62,0
24479,note_on,29,0,6,,,,,,,,1,,,55,0
24479,note_on,0,0,21,,,,,,,,15,,,55,0
24479,note_on,29,0,20,,,,,,,,14,,,55,0
24479,note_on,29,0,21,,,,,,,,15,,,62,0
24479,note_on,29,0,16,,,,,,,,10,,,55,0
24479,note_on,29,0,5,,,,,,,,0,,,62,0
24479,note_on,29,0,11,,,,,,,,6,,,43,0
24479,note_on,29,0,10,,,,,,,,5,,,62,0
24480,note_on,1,0,10,,,,,,,,5,,,61,72
24480,note_on,1,0,21,,,,,,,,15,,,57,72
24480,note_on,1,0,8,,,,,,,,3,,,61,72
24480,note_on,1,0,14,,,,,,,,10,,,61,72
24480,note_on,1,0,11,,,,,,,,6,,,45,72
24480,note_on,0,0,21,,,,,,,,15,,,61,72
24480,note_on,1,0,6,,,,,,,,1,,,57,72
24480,note_on,1,0,16,,,,,,,,10,,,57,72
24480,note_on,1,0,20,,,,,,,,14,,,57,72
24480,note_on,1,0,5,,,,,,,,0,,,61,72
24480,note_on,1,0,18,,,,,,,,12,,,61,72
24539,note_on,59,0,20,,,,,,,,14,,,57,0
24539,note_on,59,0,18,,,,,,,,12,,,61,0
24539,note_on,59,0,21,,,,,,,,15,,,61,0
24539,note_on,59,0,14,,,,,,,,10,,,61,0
24539,note_on,59,0,11,,,,,,,,6,,,45,0
24539,note_on,59,0,5,,,,,,,,0,,,61,0
24539,note_on,59,0,6,,,,,,,,1,,,57,0
24539,note_on,0,0,21,,,,,,,,15,,,57,0
24539,note_on,59,0,16,,,,,,,,10,,,57,0
24539,note_on,59,0,8,,,,,,,,3,,,61,0
24539,note_on,59,0,10,,,,,,,,5,,,61,0
24540,note_on,1,0,6,,,,,,,,1,,,55,72
24540,note_on,1,0,14,,,,,,,,10,,,64,72
24540,note_on,1,0,18,,,,,,,,12,,,64,72
24540,note_on,1,0,8,,,,,,,,3,,,64,72
24540,note_on,1,0,10,,,,,,,,5,,,64,72
24540,note_on,1,0,5,,,,,,,,0,,,64,72
24540,note_on,1,0,21,,,,,,,,15,,,55,72
24540,note_on,1,0,11,,,,,,,,6,,,43,72
24540,note_on,1,0,16,,,,,,,,10,,,55,72
24540,note_on,1,0,20,,,,,,,,14,,,55,72
24540,note_on,0,0,21,,,,,,,,15,,,64,72
24599,note_on,59,0,10,,,,,,,,5,,,64,0
24599,note_on,59,0,18,,,,,,,,12,,,64,0
24599,note_on,59,0,14,,,,,,,,10,,,64,0
24599,note_on,0,0,21,,,,,,,,15,,,55,0
24599,note_on,59,0,6,,,,,,,,1,,,55,0
24599,note_on,59,0,8,,,,,,,,3,,,64,0
24599,note_on,59,0,20,,,,,,,,14,,,55,0
24599,note_on,59,0,5,,,,,,,,0,,,64,0
24599,note_on,59,0,11,,,,,,,,6,,,43,0
24599,note_on,59,0,16,,,,,,,,10,,,55,0
24599,note_on,59,0,21,,,,,,,,15,,,64,0
24600,note_on,1,0,10,,,,,,,,5,,,65,72
24600,note_on,1,0,21,,,,,,,,15,,,53,72
24600,note_on,1,0,20,,,,,,,,14,,,53,72
24600,note_on,0,0,21,,,,,,,,15,,,65,72
24600,note_on,1,0,8,,,,,,,,3,,,69,72
24600,note_on,1,0,18,,,,,,,,12,,,69,72
24600,note_on,1,0,16,,,,,,,,10,,,53,72
24600,note_on,1,0,11,,,,,,,,6,,,41,72
24600,note_on,1,0,6,,,,,,,,1,,,53,72
24600,note_on,1,0,14,,,,,,,,10,,,69,72
24600,note_on,1,0,5,,,,,,,,0,,,69,72
24659,note_on,59,0,21,,,,,,,,15,,,65,0
24659,note_on,59,0,16,,,,,,,,10,,,53,0
24659,note_on,59,0,11,,,,,,,,6,,,41,0
24659,note_on,59,0,5,,,,,,,,0,,,69,0
24659,note_on,59,0,14,,,,,,,,10,,,69,0
24659,note_on,59,0,20,,,,,,,,14,,,53,0
24659,note_on,59,0,6,,,,,,,,1,,,53,0
24659,note_on,59,0,18,,,,,,,,12,,,69,0
24659,note_on,59,0,10,,,,,,,,5,,,65,0
24659,note_on,59,0,8,,,,,,,,3,,,69,0
24659,note_on,0,0,21,,,,,,,,15,,,53,0
24660,note_on,1,0,5,,,,,,,,0,,,67,72
24660,note_on,1,0,18,,,,,,,,12,,,67,72
24660,note_on,0,0,21,,,,,,,,15,,,52,72
24660,note_on,1,0,20,,,,,,,,14,,,52,72
24660,note_on,1,0,16,,,,,,,,10,,,52,72
24660,note_on,1,0,11,,,,,,,,6,,,40,72
24660,note_on,1,0,10,,,,,,,,5,,,64,72
24660,note_on,1,0,6,,,,,,,,1,,,52,72
24660,note_on,1,0,8,,,,,,,,3,,,67,72
24660,note_on,1,0,21,,,,,,,,15,,,64,72
24660,note_on,1,0,14,,,,,,,,10,,,67,72
24719,note_on,59,0,16,,,,,,,,10,,,52,0
24719,note_on,59,0,11,,,,,,,,6,,,40,0
24719,note_on,59,0,5,,,,,,,,0,,,67,0
24719,note_on,59,0,18,,,,,,,,12,,,67,0
24719,note_on,59,0,10,,,,,,,,5,,,64,0
24719,note_on,0,0,21,,,,,,,,15,,,64,0
24719,note_on,59,0,21,,,,,,,,15,,,52,0
24719,note_on,59,0,14,,,,,,,,10,,,67,0
24719,note_on,59,0,6,,,,,,,,1,,,52,0
24719,note_on,59,0,8,,,,,,,,3,,,67,0
24719,note_on,59,0,20,,,,,,,,14,,,52,0
24720,note_on,1,0,11,,,,,,,,6,,,38,72
24720,note_on,1,0,16,,,,,,,,10,,,50,72
24720,note_on,1681,0,17,,,,,,,,11,,,74,72
24720,note_on,1,0,20,,,,,,,,14,,,50,72
24720,note_on,1,0,21,,,,,,,,15,,,50,72
24720,note_on,1,0,6,,,,,,,,1,,,50,72
24720,note_on,1681,0,7,,,,,,,,2,,,74,72
24720,note_on,1,0,14,,,,,,,,10,,,65,72
24720,note_on,0,0,5,,,,,,,,0,,,74,72
24720,note_on,1,0,18,,,,,,,,12,,,65,72
24720,note_on,1,0,5,,,,,,,,0,,,65,72
24720,note_on,1,0,8,,,,,,,,3,,,65,72
24779,note_on,59,0,21,,,,,,,,15,,,50,0
24779,note_on,59,0,20,,,,,,,,14,,,50,0
24779,note_on,59,0,14,,,,,,,,10,,,65,0
24779,note_on,59,0,5,,,,,,,,0,,,65,0
24779,note_on,59,0,11,,,,,,,,6,,,38,0
24779,note_on,59,0,18,,,,,,,,12,,,65,0
24779,note_on,59,0,6,,,,,,,,1,,,50,0
24779,note_on,59,0,16,,,,,,,,10,,,50,0
24779,note_on,59,0,8,,,,,,,,3,,,65,0
24780,note_on,0,0,21,,,,,,,,15,,,70,72
24780,note_on,0,0,21,,,,,,,,15,,,74,72
24780,note_on,0,0,21,,,,,,,,15,,,48,72
24780,note_on,0,0,21,,,,,,,,15,,,64,72
24780,note_on,1,0,11,,,,,,,,6,,,36,72
24780,note_on,1,0,6,,,,,,,,1,,,48,72
24780,note_on,1,0,8,,,,,,,,3,,,64,72
24780,note_on,1,0,14,,,,,,,,10,,,64,72
24780,note_on,1,0,16,,,,,,,,10,,,48,72
24780,note_on,1,0,18,,,,,,,,12,,,64,72
24780,note_on,1,0,5,,,,,,,,0,,,64,72
24780,note_on,1,0,21,,,,,,,,15,,,67,72
24780,note_on,1,0,20,,,,,,,,14,,,48,72
24809,note_on,29,0,14,,,,,,,,10,,,64,0
24809,note_on,29,0,18,,,,,,,,12,,,64,0
24809,note_on,29,0,5,,,,,,,,0,,,64,0
24809,note_on,29,0,8,,,,,,,,3,,,64,0
24810,note_on,1,0,18,,,,,,,,12,,,65,72
24810,note_on,1,0,14,,,,,,,,10,,,65,72
24810,note_on,1,0,8,,,,,,,,3,,,65,72
24810,note_on,1,0,5,,,,,,,,0,,,65,72
24839,note_on,59,0,21,,,,,,,,15,,,64,0
24839,note_on,29,0,18,,,,,,,,12,,,65,0
24839,note_on,59,0,6,,,,,,,,1,,,48,0
24839,note_on,59,0,16,,,,,,,,10,,,48,0
24839,note_on,29,0,8,,,,,,,,3,,,65,0
24839,note_on,59,0,20,,,,,,,,14,,,48,0
24839,note_on,0,0,21,,,,,,,,15,,,48,0
24839,note_on,0,0,21,,,,,,,,15,,,70,0
24839,note_on,29,0,5,,,,,,,,0,,,65,0
24839,note_on,0,0,21,,,,,,,,15,,,74,0
24839,note_on,29,0,14,,,,,,,,10,,,65,0
24839,note_on,59,0,11,,,,,,,,6,,,36,0
24839,note_on,0,0,21,,,,,,,,15,,,67,0
24840,note_on,1,0,18,,,,,,,,12,,,62,72
24840,note_on,1,0,6,,,,,,,,1,,,47,72
24840,note_on,1,0,11,,,,,,,,6,,,35,72
24840,note_on,1,0,16,,,,,,,,10,,,47,72
24840,note_on,0,0,21,,,,,,,,15,,,66,72
24840,note_on,1,0,8,,,,,,,,3,,,62,72
24840,note_on,1,0,14,,,,,,,,10,,,62,72
24840,note_on,1,0,21,,,,,,,,15,,,47,72
24840,note_on,1,0,5,,,,,,,,0,,,62,72
24840,note_on,0,0,21,,,,,,,,15,,,74,72
24840,note_on,1,0,20,,,,,,,,14,,,47,72
24869,note_on,29,0,18,,,,,,,,12,,,62,0
24869,note_on,29,0,8,,,,,,,,3,,,62,0
24869,note_on,29,0,5,,,,,,,,0,,,62,0
24869,note_on,29,0,14,,,,,,,,10,,,62,0
24870,note_on,1,0,5,,,,,,,,0,,,64,72
24870,note_on,1,0,14,,,,,,,,10,,,64,72
24870,note_on,1,0,18,,,,,,,,12,,,64,72
24870,note_on,1,0,8,,,,,,,,3,,,64,72
24899,note_on,59,0,11,,,,,,,,6,,,35,0
24899,note_on,29,0,14,,,,,,,,10,,,64,0
24899,note_on,0,0,21,,,,,,,,15,,,74,0
24899,note_on,59,0,21,,,,,,,,15,,,66,0
24899,note_on,29,0,8,,,,,,,,3,,,64,0
24899,note_on,59,0,16,,,,,,,,10,,,47,0
24899,note_on,0,0,21,,,,,,,,15,,,47,0
24899,note_on,59,0,6,,,,,,,,1,,,47,0
24899,note_on,179,0,17,,,,,,,,11,,,74,0
24899,note_on,179,0,7,,,,,,,,2,,,74,0
24899,note_on,29,0,18,,,,,,,,12,,,64,0
24899,note_on,59,0,20,,,,,,,,14,,,47,0
24899,note_on,0,0,5,,,,,,,,0,,,74,0
24899,note_on,29,0,5,,,,,,,,0,,,64,0
24900,note_on,1,0,5,,,,,,,,0,,,66,72
24900,note_on,1,0,11,,,,,,,,6,,,40,72
24900,note_on,0,0,5,,,,,,,,0,,,74,72
24900,note_on,1,0,8,,,,,,,,3,,,66,72
24900,note_on,1,0,18,,,,,,,,12,,,66,72
24900,note_on,1,0,21,,,,,,,,15,,,52,72
24900,note_on,0,0,21,,,,,,,,15,,,68,72
24900,note_on,0,0,21,,,,,,,,15,,,71,72
24900,note_on,0,0,21,,,,,,,,15,,,74,72
24900,note_on,1,0,17,,,,,,,,11,,,74,72
24900,note_on,1,0,20,,,,,,,,14,,,52,72
24900,note_on,1,0,16,,,,,,,,10,,,52,72
24900,note_on,1,0,7,,,,,,,,2,,,74,72
24900,note_on,1,0,14,,,,,,,,10,,,66,72
24900,note_on,1,0,6,,,,,,,,1,,,52,72
24929,note_on,29,0,5,,,,,,,,0,,,66,0
24929,note_on,29,0,14,,,,,,,,10,,,66,0
24929,note_on,29,0,18,,,,,,,,12,,,66,0
24929,note_on,29,0,8,,,,,,,,3,,,66,0
24930,note_on,1,0,18,,,,,,,,12,,,68,72
24930,note_on,1,0,5,,,,,,,,0,,,68,72
24930,note_on,1,0,8,,,,,,,,3,,,68,72
24930,note_on,1,0,14,,,,,,,,10,,,68,72
24959,note_on,0,0,21,,,,,,,,15,,,52,0
24959,note_on,0,0,5,,,,,,,,0,,,74,0
24959,note_on,29,0,5,,,,,,,,0,,,68,0
24959,note_on,59,0,17,,,,,,,,11,,,74,0
24959,note_on,59,0,21,,,,,,,,15,,,74,0
24959,note_on,0,0,21,,,,,,,,15,,,68,0
24959,note_on,0,0,21,,,,,,,,15,,,71,0
24959,note_on,59,0,16,,,,,,,,10,,,52,0
24959,note_on,59,0,7,,,,,,,,2,,,74,0
24959,note_on,29,0,18,,,,,,,,12,,,68,0
24959,note_on,59,0,6,,,,,,,,1,,,52,0
24959,note_on,29,0,8,,,,,,,,3,,,68,0
24959,note_on,59,0,11,,,,,,,,6,,,40,0
24959,note_on,59,0,20,,,,,,,,14,,,52,0
24959,note_on,29,0,14,,,,,,,,10,,,68,0
24960,note_on,1,0,16,,,,,,,,10,,,45,72
24960,note_on,1,0,18,,,,,,,,12,,,69,72
24960,note_on,1,0,5,,,,,,,,0,,,69,72
24960,note_on,0,0,21,,,,,,,,15,,,69,72
24960,note_on,1,0,14,,,,,,,,10,,,69,72
24960,note_on,0,0,5,,,,,,,,0,,,72,72
24960,note_on,1,0,8,,,,,,,,3,,,69,72
24960,note_on,1,0,17,,,,,,,,11,,,72,72
24960,note_on,1,0,6,,,,,,,,1,,,45,72
24960,note_on,1,0,21,,,,,,,,15,,,45,72
24960,note_on,0,0,21,,,,,,,,15,,,72,72
24960,note_on,0,0,21,,,,,,,,15,,,64,72
24960,note_on,1,0,20,,,,,,,,14,,,45,72
24960,note_on,1,0,11,,,,,,,,6,,,33,72
24960,note_on,1,0,7,,,,,,,,2,,,72,72
25019,note_on,59,0,16,,,,,,,,10,,,45,0
25019,note_on,59,0,6,,,,,,,,1,,,45,0
25019,note_on,59,0,21,,,,,,,,15,,,45,0
25019,note_on,59,0,20,,,,,,,,14,,,45,0
25019,note_on,59,0,11,,,,,,,,6,,,33,0
25020,note_on,1,0,21,,,,,,,,15,,,53,72
25020,note_on,1,0,6,,,,,,,,1,,,53,72
25020,note_on,1,0,11,,,,,,,,6,,,41,72
25020,note_on,1,0,16,,,,,,,,10,,,53,72
25020,note_on,1,0,20,,,,,,,,14,,,53,72
25049,note_on,29,0,16,,,,,,,,10,,,53,0
25049,note_on,29,0,11,,,,,,,,6,,,41,0
25049,note_on,29,0,21,,,,,,,,15,,,53,0
25049,note_on,29,0,20,,,,,,,,14,,,53,0
25049,note_on,29,0,6,,,,,,,,1,,,53,0
25050,note_on,1,0,6,,,,,,,,1,,,52,72
25050,note_on,1,0,20,,,,,,,,14,,,52,72
25050,note_on,1,0,11,,,,,,,,6,,,40,72
25050,note_on,1,0,16,,,,,,,,10,,,52,72
25050,note_on,1,0,21,,,,,,,,15,,,52,72
25079,note_on,119,0,5,,,,,,,,0,,,72,0
25079,note_on,0,0,21,,,,,,,,15,,,72,0
25079,note_on,0,0,21,,,,,,,,15,,,64,0
25079,note_on,119,0,8,,,,,,,,3,,,69,0
25079,note_on,29,0,16,,,,,,,,10,,,52,0
25079,note_on,29,0,20,,,,,,,,14,,,52,0
25079,note_on,119,0,18,,,,,,,,12,,,69,0
25079,note_on,29,0,21,,,,,,,,15,,,52,0
25079,note_on,0,0,21,,,,,,,,15,,,69,0
25079,note_on,119,0,17,,,,,,,,11,,,72,0
25079,note_on,29,0,11,,,,,,,,6,,,40,0
25079,note_on,29,0,6,,,,,,,,1,,,52,0
25079,note_on,119,0,7,,,,,,,,2,,,72,0
25079,note_on,119,0,14,,,,,,,,10,,,69,0
25079,note_on,0,0,5,,,,,,,,0,,,69,0
25080,note_on,1,0,16,,,,,,,,10,,,50,72
25080,note_on,1,0,7,,,,,,,,2,,,77,72
25080,note_on,1,0,5,,,,,,,,0,,,77,72
25080,note_on,1,0,17,,,,,,,,11,,,77,72
25080,note_on,1,0,20,,,,,,,,14,,,50,72
25080,note_on,0,0,21,,,,,,,,15,,,74,72
25080,note_on,0,0,21,,,,,,,,15,,,77,72
25080,note_on,1,0,21,,,,,,,,15,,,50,72
25080,note_on,1,0,6,,,,,,,,1,,,50,72
25080,note_on,1,0,11,,,,,,,,6,,,38,72
25080,note_on,0,0,21,,,,,,,,15,,,69,72
25109,note_on,29,0,20,,,,,,,,14,,,50,0
25109,note_on,29,0,6,,,,,,,,1,,,50,0
25109,note_on,29,0,16,,,,,,,,10,,,50,0
25109,note_on,29,0,11,,,,,,,,6,,,38,0
25109,note_on,29,0,21,,,,,,,,15,,,50,0
25110,note_on,1,0,20,,,,,,,,14,,,47,72
25110,note_on,1,0,11,,,,,,,,6,,,35,72
25110,note_on,1,0,16,,,,,,,,10,,,47,72
25110,note_on,1,0,21,,,,,,,,15,,,47,72
25110,note_on,1,0,6,,,,,,,,1,,,47,72
25139,note_on,29,0,20,,,,,,,,14,,,47,0
25139,note_on,29,0,11,,,,,,,,6,,,35,0
25139,note_on,29,0,16,,,,,,,,10,,,47,0
25139,note_on,29,0,21,,,,,,,,15,,,47,0
25139,note_on,29,0,6,,,,,,,,1,,,47,0
25140,note_on,1,0,20,,,,,,,,14,,,48,72
25140,note_on,1,0,11,,,,,,,,6,,,36,72
25140,note_on,1,0,16,,,,,,,,10,,,48,72
25140,note_on,1,0,21,,,,,,,,15,,,48,72
25140,note_on,1,0,6,,,,,,,,1,,,48,72
25169,note_on,29,0,6,,,,,,,,1,,,48,0
25169,note_on,29,0,11,,,,,,,,6,,,36,0
25169,note_on,29,0,21,,,,,,,,15,,,48,0
25169,note_on,29,0,16,,,,,,,,10,,,48,0
25169,note_on,29,0,20,,,,,,,,14,,,48,0
25170,note_on,1,0,11,,,,,,,,6,,,38,72
25170,note_on,1,0,21,,,,,,,,15,,,50,72
25170,note_on,1,0,6,,,,,,,,1,,,50,72
25170,note_on,1,0,20,,,,,,,,14,,,50,72
25170,note_on,1,0,16,,,,,,,,10,,,50,72
25199,note_on,29,0,11,,,,,,,,6,,,38,0
25199,note_on,29,0,6,,,,,,,,1,,,50,0
25199,note_on,29,0,20,,,,,,,,14,,,50,0
25199,note_on,0,0,21,,,,,,,,15,,,77,0
25199,note_on,29,0,16,,,,,,,,10,,,50,0
25199,note_on,119,0,7,,,,,,,,2,,,77,0
25199,note_on,29,0,21,,,,,,,,15,,,50,0
25199,note_on,119,0,17,,,,,,,,11,,,77,0
25199,note_on,0,0,21,,,,,,,,15,,,74,0
25199,note_on,0,0,21,,,,,,,,15,,,69,0
25199,note_on,119,0,5,,,,,,,,0,,,77,0
25200,note_on,0,0,21,,,,,,,,15,,,68,72
25200,note_on,1,0,16,,,,,,,,10,,,52,72
25200,note_on,1,0,11,,,,,,,,6,,,40,72
25200,note_on,1,0,20,,,,,,,,14,,,52,72
25200,note_on,1,0,21,,,,,,,,15,,,52,72
25200,note_on,1,0,5,,,,,,,,0,,,68,72
25200,note_on,1,0,17,,,,,,,,11,,,68,72
25200,note_on,1,0,7,,,,,,,,2,,,68,72
25200,note_on,1,0,6,,,,,,,,1,,,52,72
25200,note_on,0,0,6,,,,,,,,1,,,52,72
25200,note_on,0,0,21,,,,,,,,15,,,71,72
25259,note_on,59,0,6,,,,,,,,1,,,52,0
25260,note_on,1,0,6,,,,,,,,1,,,59,72
25260,note_on,2221,0,15,,,,,,,,10,,,59,72
25260,note_on,2221,0,19,,,,,,,,13,,,59,72
25260,note_on,2221,0,9,,,,,,,,4,,,59,72
25319,note_on,119,0,21,,,,,,,,15,,,71,0
25319,note_on,59,0,19,,,,,,,,13,,,59,0
25319,note_on,119,0,11,,,,,,,,6,,,40,0
25319,note_on,59,0,6,,,,,,,,1,,,59,0
25319,note_on,119,0,16,,,,,,,,10,,,52,0
25319,note_on,0,0,21,,,,,,,,15,,,68,0
25319,note_on,59,0,9,,,,,,,,4,,,59,0
25319,note_on,0,0,6,,,,,,,,1,,,52,0
25319,note_on,119,0,20,,,,,,,,14,,,52,0
25319,note_on,59,0,15,,,,,,,,10,,,59,0
25319,note_on,0,0,21,,,,,,,,15,,,52,0
25320,note_on,1,0,19,,,,,,,,13,,,59,72
25320,note_on,1,0,9,,,,,,,,4,,,59,72
25320,note_on,1,0,6,,,,,,,,1,,,59,72
25320,note_on,1,0,15,,,,,,,,10,,,59,72
25379,note_on,59,0,19,,,,,,,,13,,,59,0
25379,note_on,59,0,9,,,,,,,,4,,,59,0
25379,note_on,59,0,15,,,,,,,,10,,,59,0
25379,note_on,179,0,5,,,,,,,,0,,,68,0
25379,note_on,179,0,17,,,,,,,,11,,,68,0
25379,note_on,59,0,6,,,,,,,,1,,,59,0
25379,note_on,179,0,7,,,,,,,,2,,,68,0
25380,note_on,0,0,21,,,,,,,,15,,,71,72
25380,note_on,1,0,9,,,,,,,,4,,,59,72
25380,note_on,1,0,6,,,,,,,,1,,,59,72
25380,note_on,61,0,16,,,,,,,,10,,,52,72
25380,note_on,61,0,11,,,,,,,,6,,,40,72
25380,note_on,1,0,15,,,,,,,,10,,,59,72
25380,note_on,1,0,17,,,,,,,,11,,,68,72
25380,note_on,1,0,5,,,,,,,,0,,,68,72
25380,note_on,61,0,21,,,,,,,,15,,,52,72
25380,note_on,0,0,21,,,,,,,,15,,,68,72
25380,note_on,1,0,19,,,,,,,,13,,,59,72
25380,note_on,1,0,7,,,,,,,,2,,,68,72
25380,note_on,61,0,20,,,,,,,,14,,,52,72
25439,note_on,59,0,21,,,,,,,,15,,,68,0
25439,note_on,59,0,17,,,,,,,,11,,,68,0
25439,note_on,59,0,6,,,,,,,,1,,,59,0
25439,note_on,59,0,19,,,,,,,,13,,,59,0
25439,note_on,59,0,7,,,,,,,,2,,,68,0
25439,note_on,0,0,21,,,,,,,,15,,,71,0
25439,note_on,59,0,16,,,,,,,,10,,,52,0
25439,note_on,59,0,20,,,,,,,,14,,,52,0
25439,note_on,59,0,5,,,,,,,,0,,,68,0
25439,note_on,59,0,11,,,,,,,,6,,,40,0
25439,note_on,59,0,9,,,,,,,,4,,,59,0
25439,note_on,0,0,21,,,,,,,,15,,,52,0
25439,note_on,59,0,15,,,,,,,,10,,,59,0
25440,note_on,1,0,9,,,,,,,,4,,,60,72
25440,note_on,1,0,19,,,,,,,,13,,,60,72
25440,note_on,1,0,20,,,,,,,,14,,,57,72
25440,note_on,1,0,11,,,,,,,,6,,,45,72
25440,note_on,1,0,5,,,,,,,,0,,,69,72
25440,note_on,1,0,15,,,,,,,,10,,,60,72
25440,note_on,1,0,7,,,,,,,,2,,,69,72
25440,note_on,1,0,21,,,,,,,,15,,,57,72
25440,note_on,0,0,21,,,,,,,,15,,,60,72
25440,note_on,0,0,21,,,,,,,,15,,,64,72
25440,note_on,1,0,16,,,,,,,,10,,,57,72
25440,note_on,1,0,17,,,,,,,,11,,,69,72
25440,note_on,1,0,6,,,,,,,,1,,,60,72
25469,note_on,29,0,6,,,,,,,,1,,,60,0
25469,note_on,29,0,19,,,,,,,,13,,,60,0
25469,note_on,29,0,15,,,,,,,,10,,,60,0
25469,note_on,29,0,9,,,,,,,,4,,,60,0
25470,note_on,1,0,9,,,,,,,,4,,,62,72
25470,note_on,1,0,19,,,,,,,,13,,,62,72
25470,note_on,1,0,6,,,,,,,,1,,,62,72
25470,note_on,1,0,15,,,,,,,,10,,,62,72
25499,note_on,29,0,9,,,,,,,,4,,,62,0
25499,note_on,59,0,21,,,,,,,,15,,,57,0
25499,note_on,59,0,16,,,,,,,,10,,,57,0
25499,note_on,59,0,20,,,,,,,,14,,,57,0
25499,note_on,29,0,6,,,,,,,,1,,,62,0
25499,note_on,59,0,11,,,,,,,,6,,,45,0
25499,note_on,29,0,19,,,,,,,,13,,,62,0
25499,note_on,29,0,15,,,,,,,,10,,,62,0
25500,note_on,1,0,21,,,,,,,,15,,,45,72
25500,note_on,1,0,6,,,,,,,,1,,,60,72
25500,note_on,1,0,15,,,,,,,,10,,,60,72
25500,note_on,1,0,20,,,,,,,,14,,,45,72
25500,note_on,1,0,9,,,,,,,,4,,,60,72
25500,note_on,1,0,19,,,,,,,,13,,,60,72
25500,note_on,1,0,11,,,,,,,,6,,,33,72
25500,note_on,1,0,16,,,,,,,,10,,,45,72
25529,note_on,29,0,19,,,,,,,,13,,,60,0
25529,note_on,29,0,9,,,,,,,,4,,,60,0
25529,note_on,29,0,15,,,,,,,,10,,,60,0
25529,note_on,29,0,6,,,,,,,,1,,,60,0
25530,note_on,1,0,15,,,,,,,,10,,,59,72
25530,note_on,1,0,9,,,,,,,,4,,,59,72
25530,note_on,1,0,6,,,,,,,,1,,,59,72
25530,note_on,1,0,19,,,,,,,,13,,,59,72
25559,note_on,59,0,20,,,,,,,,14,,,45,0
25559,note_on,0,0,21,,,,,,,,15,,,60,0
25559,note_on,59,0,16,,,,,,,,10,,,45,0
25559,note_on,29,0,19,,,,,,,,13,,,59,0
25559,note_on,119,0,17,,,,,,,,11,,,69,0
25559,note_on,29,0,6,,,,,,,,1,,,59,0
25559,note_on,0,0,21,,,,,,,,15,,,64,0
25559,note_on,119,0,5,,,,,,,,0,,,69,0
25559,note_on,29,0,9,,,,,,,,4,,,59,0
25559,note_on,59,0,21,,,,,,,,15,,,45,0
25559,note_on,29,0,15,,,,,,,,10,,,59,0
25559,note_on,119,0,7,,,,,,,,2,,,69,0
25559,note_on,59,0,11,,,,,,,,6,,,33,0
25560,note_on,1,0,9,,,,,,,,4,,,60,72
25560,note_on,1,0,11,,,,,,,,6,,,45,72
25560,note_on,1,0,16,,,,,,,,10,,,57,72
25560,note_on,1,0,19,,,,,,,,13,,,60,72
25560,note_on,0,0,21,,,,,,,,15,,,60,72
25560,note_on,0,0,6,,,,,,,,1,,,57,72
25560,note_on,0,0,21,,,,,,,,15,,,64,72
25560,note_on,1,0,15,,,,,,,,10,,,60,72
25560,note_on,1,0,21,,,,,,,,15,,,57,72
25560,note_on,1,0,20,,,,,,,,14,,,57,72
25560,note_on,1,0,6,,,,,,,,1,,,60,72
25589,note_on,29,0,9,,,,,,,,4,,,60,0
25589,note_on,29,0,6,,,,,,,,1,,,60,0
25589,note_on,29,0,15,,,,,,,,10,,,60,0
25589,note_on,29,0,19,,,,,,,,13,,,60,0
25590,note_on,1,0,15,,,,,,,,10,,,62,72
25590,note_on,1,0,9,,,,,,,,4,,,62,72
25590,note_on,1,0,6,,,,,,,,1,,,62,72
25590,note_on,1,0,19,,,,,,,,13,,,62,72
25619,note_on,29,0,15,,,,,,,,10,,,62,0
25619,note_on,29,0,9,,,,,,,,4,,,62,0
25619,note_on,29,0,6,,,,,,,,1,,,62,0
25619,note_on,29,0,19,,,,,,,,13,,,62,0
25620,note_on,1,0,19,,,,,,,,13,,,59,72
25620,note_on,61,0,17,,,,,,,,11,,,69,72
25620,note_on,61,0,7,,,,,,,,2,,,69,72
25620,note_on,1,0,15,,,,,,,,10,,,59,72
25620,note_on,1,0,9,,,,,,,,4,,,59,72
25620,note_on,61,0,5,,,,,,,,0,,,69,72
25620,note_on,1,0,6,,,,,,,,1,,,59,72
25649,note_on,29,0,15,,,,,,,,10,,,59,0
25649,note_on,29,0,19,,,,,,,,13,,,59,0
25649,note_on,29,0,6,,,,,,,,1,,,59,0
25649,note_on,29,0,9,,,,,,,,4,,,59,0
25650,note_on,1,0,15,,,,,,,,10,,,60,72
25650,note_on,1,0,9,,,,,,,,4,,,60,72
25650,note_on,1,0,6,,,,,,,,1,,,60,72
25650,note_on,1,0,19,,,,,,,,13,,,60,72
25679,note_on,119,0,21,,,,,,,,15,,,64,0
25679,note_on,29,0,6,,,,,,,,1,,,60,0
25679,note_on,29,0,15,,,,,,,,10,,,60,0
25679,note_on,29,0,9,,,,,,,,4,,,60,0
25679,note_on,0,0,21,,,,,,,,15,,,60,0
25679,note_on,29,0,19,,,,,,,,13,,,60,0
25679,note_on,59,0,5,,,,,,,,0,,,69,0
25679,note_on,59,0,7,,,,,,,,2,,,69,0
25679,note_on,59,0,17,,,,,,,,11,,,69,0
25680,note_on,1,0,17,,,,,,,,11,,,71,72
25680,note_on,1,0,6,,,,,,,,1,,,62,72
25680,note_on,0,0,21,,,,,,,,15,,,62,72
25680,note_on,1,0,21,,,,,,,,15,,,71,72
25680,note_on,1,0,19,,,,,,,,13,,,62,72
25680,note_on,0,0,21,,,,,,,,15,,,65,72
25680,note_on,1,0,5,,,,,,,,0,,,71,72
25680,note_on,1,0,7,,,,,,,,2,,,71,72
25680,note_on,1,0,9,,,,,,,,4,,,62,72
25680,note_on,1,0,15,,,,,,,,10,,,62,72
25709,note_on,29,0,19,,,,,,,,13,,,62,0
25709,note_on,29,0,9,,,,,,,,4,,,62,0
25709,note_on,29,0,6,,,,,,,,1,,,62,0
25709,note_on,29,0,15,,,,,,,,10,,,62,0
25710,note_on,1,0,6,,,,,,,,1,,,64,72
25710,note_on,1,0,15,,,,,,,,10,,,64,72
25710,note_on,1,0,19,,,,,,,,13,,,64,72
25710,note_on,1,0,9,,,,,,,,4,,,64,72
25739,note_on,29,0,6,,,,,,,,1,,,64,0
25739,note_on,29,0,9,,,,,,,,4,,,64,0
25739,note_on,29,0,19,,,,,,,,13,,,64,0
25739,note_on,29,0,15,,,,,,,,10,,,64,0
25740,note_on,1,0,19,,,,,,,,13,,,62,72
25740,note_on,1,0,6,,,,,,,,1,,,62,72
25740,note_on,1,0,9,,,,,,,,4,,,62,72
25740,note_on,1,0,15,,,,,,,,10,,,62,72
25769,note_on,29,0,9,,,,,,,,4,,,62,0
25769,note_on,29,0,15,,,,,,,,10,,,62,0
25769,note_on,29,0,6,,,,,,,,1,,,62,0
25769,note_on,29,0,19,,,,,,,,13,,,62,0
25770,note_on,1,0,9,,,,,,,,4,,,60,72
25770,note_on,1,0,6,,,,,,,,1,,,60,72
25770,note_on,1,0,19,,,,,,,,13,,,60,72
25770,note_on,1,0,15,,,,,,,,10,,,60,72
25799,note_on,239,0,16,,,,,,,,10,,,57,0
25799,note_on,29,0,15,,,,,,,,10,,,60,0
25799,note_on,239,0,20,,,,,,,,14,,,57,0
25799,note_on,0,0,21,,,,,,,,15,,,57,0
25799,note_on,29,0,6,,,,,,,,1,,,60,0
25799,note_on,0,0,6,,,,,,,,1,,,57,0
25799,note_on,0,0,21,,,,,,,,15,,,71,0
25799,note_on,29,0,19,,,,,,,,13,,,60,0
25799,note_on,0,0,21,,,,,,,,15,,,62,0
25799,note_on,29,0,9,,,,,,,,4,,,60,0
25799,note_on,239,0,11,,,,,,,,6,,,45,0
25799,note_on,119,0,21,,,,,,,,15,,,65,0
25800,note_on,1,0,11,,,,,,,,6,,,43,72
25800,note_on,1,0,16,,,,,,,,10,,,55,72
25800,note_on,1,0,20,,,,,,,,14,,,55,72
25800,note_on,0,0,6,,,,,,,,1,,,55,72
25800,note_on,1,0,6,,,,,,,,1,,,62,72
25800,note_on,1,0,15,,,,,,,,10,,,62,72
25800,note_on,0,0,21,,,,,,,,15,,,65,72
25800,note_on,0,0,21,,,,,,,,15,,,62,72
25800,note_on,0,0,21,,,,,,,,15,,,71,72
25800,note_on,1,0,21,,,,,,,,15,,,55,72
25800,note_on,1,0,19,,,,,,,,13,,,62,72
25800,note_on,1,0,9,,,,,,,,4,,,62,72
25829,note_on,29,0,20,,,,,,,,14,,,55,0
25829,note_on,29,0,15,,,,,,,,10,,,62,0
25829,note_on,29,0,11,,,,,,,,6,,,43,0
25829,note_on,29,0,16,,,,,,,,10,,,55,0
25829,note_on,29,0,6,,,,,,,,1,,,55,0
25829,note_on,29,0,9,,,,,,,,4,,,62,0
25829,note_on,29,0,21,,,,,,,,15,,,55,0
25829,note_on,29,0,19,,,,,,,,13,,,62,0
25829,note_on,0,0,6,,,,,,,,1,,,62,0
25830,note_on,1,0,16,,,,,,,,10,,,53,72
25830,note_on,1,0,15,,,,,,,,10,,,64,72
25830,note_on,1,0,20,,,,,,,,14,,,53,72
25830,note_on,1,0,9,,,,,,,,4,,,64,72
25830,note_on,1,0,21,,,,,,,,15,,,53,72
25830,note_on,1,0,11,,,,,,,,6,,,41,72
25830,note_on,1,0,6,,,,,,,,1,,,64,72
25830,note_on,0,0,6,,,,,,,,1,,,53,72
25830,note_on,1,0,19,,,,,,,,13,,,64,72
25859,note_on,29,0,20,,,,,,,,14,,,53,0
25859,note_on,29,0,21,,,,,,,,15,,,53,0
25859,note_on,179,0,17,,,,,,,,11,,,71,0
25859,note_on,29,0,6,,,,,,,,1,,,53,0
25859,note_on,0,0,6,,,,,,,,1,,,64,0
25859,note_on,29,0,19,,,,,,,,13,,,64,0
25859,note_on,179,0,5,,,,,,,,0,,,71,0
25859,note_on,29,0,11,,,,,,,,6,,,41,0
25859,note_on,29,0,15,,,,,,,,10,,,64,0
25859,note_on,179,0,7,,,,,,,,2,,,71,0
25859,note_on,29,0,16,,,,,,,,10,,,53,0
25859,note_on,29,0,9,,,,,,,,4,,,64,0
25860,note_on,1,0,15,,,,,,,,10,,,60,72
25860,note_on,1,0,16,,,,,,,,10,,,52,72
25860,note_on,1,0,5,,,,,,,,0,,,69,72
25860,note_on,1,0,19,,,,,,,,13,,,60,72
25860,note_on,1,0,11,,,,,,,,6,,,40,72
25860,note_on,1,0,17,,,,,,,,11,,,69,72
25860,note_on,1,0,6,,,,,,,,1,,,60,72
25860,note_on,0,0,6,,,,,,,,1,,,52,72
25860,note_on,1,0,21,,,,,,,,15,,,52,72
25860,note_on,1,0,7,,,,,,,,2,,,69,72
25860,note_on,1,0,9,,,,,,,,4,,,60,72
25860,note_on,1,0,20,,,,,,,,14,,,52,72
25889,note_on,29,0,9,,,,,,,,4,,,60,0
25889,note_on,29,0,17,,,,,,,,11,,,69,0
25889,note_on,29,0,11,,,,,,,,6,,,40,0
25889,note_on,29,0,6,,,,,,,,1,,,52,0
25889,note_on,29,0,21,,,,,,,,15,,,52,0
25889,note_on,29,0,5,,,,,,,,0,,,69,0
25889,note_on,29,0,20,,,,,,,,14,,,52,0
25889,note_on,29,0,19,,,,,,,,13,,,60,0
25889,note_on,29,0,15,,,,,,,,10,,,60,0
25889,note_on,29,0,16,,,,,,,,10,,,52,0
25889,note_on,0,0,6,,,,,,,,1,,,60,0
25889,note_on,29,0,7,,,,,,,,2,,,69,0
25890,note_on,1,0,7,,,,,,,,2,,,71,72
25890,note_on,1,0,16,,,,,,,,10,,,50,72
25890,note_on,1,0,21,,,,,,,,15,,,50,72
25890,note_on,1,0,17,,,,,,,,11,,,71,72
25890,note_on,1,0,9,,,,,,,,4,,,62,72
25890,note_on,1,0,15,,,,,,,,10,,,62,72
25890,note_on,1,0,5,,,,,,,,0,,,71,72
25890,note_on,1,0,19,,,,,,,,13,,,62,72
25890,note_on,1,0,6,,,,,,,,1,,,62,72
25890,note_on,1,0,20,,,,,,,,14,,,50,72
25890,note_on,0,0,6,,,,,,,,1,,,50,72
25890,note_on,1,0,11,,,,,,,,6,,,38,72
25919,note_on,0,0,21,,,,,,,,15,,,71,0
25919,note_on,0,0,21,,,,,,,,15,,,62,0
25919,note_on,29,0,16,,,,,,,,10,,,50,0
25919,note_on,29,0,7,,,,,,,,2,,,71,0
25919,note_on,29,0,21,,,,,,,,15,,,50,0
25919,note_on,0,0,21,,,,,,,,15,,,65,0
25919,note_on,29,0,5,,,,,,,,0,,,71,0
25919,note_on,29,0,11,,,,,,,,6,,,38,0
25919,note_on,0,0,6,,,,,,,,1,,,62,0
25919,note_on,29,0,17,,,,,,,,11,,,71,0
25919,note_on,29,0,15,,,,,,,,10,,,62,0
25919,note_on,29,0,6,,,,,,,,1,,,50,0
25919,note_on,29,0,20,,,,,,,,14,,,50,0
25919,note_on,29,0,9,,,,,,,,4,,,62,0
25919,note_on,29,0,19,,,,,,,,13,,,62,0
25920,note_on,1,0,17,,,,,,,,11,,,72,72
25920,note_on,1,0,20,,,,,,,,14,,,48,72
25920,note_on,1,0,7,,,,,,,,2,,,72,72
25920,note_on,1,0,21,,,,,,,,15,,,48,72
25920,note_on,0,0,21,,,,,,,,15,,,64,72
25920,note_on,0,0,21,,,,,,,,15,,,67,72
25920,note_on,1,0,9,,,,,,,,4,,,64,72
25920,note_on,1,0,15,,,,,,,,10,,,64,72
25920,note_on,1,0,16,,,,,,,,10,,,48,72
25920,note_on,1,0,5,,,,,,,,0,,,72,72
25920,note_on,1,0,19,,,,,,,,13,,,64,72
25920,note_on,1,0,6,,,,,,,,1,,,64,72
25920,note_on,1,0,11,,,,,,,,6,,,36,72
25920,note_on,0,0,6,,,,,,,,1,,,48,72
25979,note_on,59,0,9,,,,,,,,4,,,64,0
25979,note_on,59,0,15,,,,,,,,10,,,64,0
25979,note_on,59,0,5,,,,,,,,0,,,72,0
25979,note_on,59,0,17,,,,,,,,11,,,72,0
25979,note_on,59,0,6,,,,,,,,1,,,64,0
25979,note_on,59,0,19,,,,,,,,13,,,64,0
25979,note_on,59,0,7,,,,,,,,2,,,72,0
25980,note_on,1,0,7,,,,,,,,2,,,71,72
25980,note_on,1,0,6,,,,,,,,1,,,65,72
25980,note_on,1,0,5,,,,,,,,0,,,71,72
25980,note_on,1,0,9,,,,,,,,4,,,65,72
25980,note_on,1,0,17,,,,,,,,11,,,71,72
25980,note_on,1,0,19,,,,,,,,13,,,65,72
25980,note_on,1,0,15,,,,,,,,10,,,65,72
26009,note_on,29,0,7,,,,,,,,2,,,71,0
26009,note_on,29,0,15,,,,,,,,10,,,65,0
26009,note_on,29,0,6,,,,,,,,1,,,65,0
26009,note_on,29,0,17,,,,,,,,11,,,71,0
26009,note_on,29,0,9,,,,,,,,4,,,65,0
26009,note_on,29,0,19,,,,,,,,13,,,65,0
26009,note_on,29,0,5,,,,,,,,0,,,71,0
26010,note_on,1,0,7,,,,,,,,2,,,72,72
26010,note_on,1,0,9,,,,,,,,4,,,64,72
26010,note_on,1,0,5,,,,,,,,0,,,72,72
26010,note_on,1,0,6,,,,,,,,1,,,64,72
26010,note_on,1,0,15,,,,,,,,10,,,64,72
26010,note_on,1,0,19,,,,,,,,13,,,64,72
26010,note_on,1,0,17,,,,,,,,11,,,72,72
26039,note_on,0,0,21,,,,,,,,15,,,48,0
26039,note_on,29,0,19,,,,,,,,13,,,64,0
26039,note_on,29,0,9,,,,,,,,4,,,64,0
26039,note_on,29,0,7,,,,,,,,2,,,72,0
26039,note_on,29,0,5,,,,,,,,0,,,72,0
26039,note_on,119,0,21,,,,,,,,15,,,67,0
26039,note_on,0,0,21,,,,,,,,15,,,64,0
26039,note_on,29,0,17,,,,,,,,11,,,72,0
26039,note_on,119,0,20,,,,,,,,14,,,48,0
26039,note_on,29,0,6,,,,,,,,1,,,64,0
26039,note_on,119,0,16,,,,,,,,10,,,48,0
26039,note_on,29,0,15,,,,,,,,10,,,64,0
26039,note_on,119,0,11,,,,,,,,6,,,36,0
26039,note_on,0,0,6,,,,,,,,1,,,48,0
26040,note_on,1,0,16,,,,,,,,10,,,47,72
26040,note_on,1,0,19,,,,,,,,13,,,62,72
26040,note_on,1,0,15,,,,,,,,10,,,62,72
26040,note_on,1,0,6,,,,,,,,1,,,47,72
26040,note_on,1,0,7,,,,,,,,2,,,74,72
26040,note_on,1,0,5,,,,,,,,0,,,74,72
26040,note_on,1,0,9,,,,,,,,4,,,62,72
26040,note_on,1,0,17,,,,,,,,11,,,74,72
26040,note_on,0,0,6,,,,,,,,1,,,62,72
26040,note_on,1,0,11,,,,,,,,6,,,35,72
26040,note_on,1,0,21,,,,,,,,15,,,47,72
26040,note_on,0,0,21,,,,,,,,15,,,62,72
26040,note_on,0,0,21,,,,,,,,15,,,65,72
26040,note_on,0,0,21,,,,,,,,15,,,69,72
26040,note_on,1,0,20,,,,,,,,14,,,47,72
26069,note_on,29,0,6,,,,,,,,1,,,62,0
26069,note_on,29,0,19,,,,,,,,13,,,62,0
26069,note_on,29,0,15,,,,,,,,10,,,62,0
26069,note_on,29,0,9,,,,,,,,4,,,62,0
26070,note_on,1,0,9,,,,,,,,4,,,60,72
26070,note_on,1,0,6,,,,,,,,1,,,60,72
26070,note_on,1,0,15,,,,,,,,10,,,60,72
26070,note_on,1,0,19,,,,,,,,13,,,60,72
26099,note_on,59,0,17,,,,,,,,11,,,74,0
26099,note_on,59,0,20,,,,,,,,14,,,47,0
26099,note_on,59,0,21,,,,,,,,15,,,47,0
26099,note_on,59,0,7,,,,,,,,2,,,74,0
26099,note_on,59,0,11,,,,,,,,6,,,35,0
26099,note_on,0,0,6,,,,,,,,1,,,47,0
26099,note_on,29,0,6,,,,,,,,1,,,60,0
26099,note_on,29,0,19,,,,,,,,13,,,60,0
26099,note_on,59,0,16,,,,,,,,10,,,47,0
26099,note_on,59,0,5,,,,,,,,0,,,74,0
26099,note_on,29,0,9,,,,,,,,4,,,60,0
26099,note_on,29,0,15,,,,,,,,10,,,60,0
26100,note_on,0,0,6,,,,,,,,1,,,59,72
26100,note_on,1,0,6,,,,,,,,1,,,53,72
26100,note_on,1,0,20,,,,,,,,14,,,53,72
26100,note_on,1,0,15,,,,,,,,10,,,59,72
26100,note_on,1,0,11,,,,,,,,6,,,41,72
26100,note_on,1,0,7,,,,,,,,2,,,72,72
26100,note_on,1,0,17,,,,,,,,11,,,72,72
26100,note_on,1,0,16,,,,,,,,10,,,53,72
26100,note_on,1,0,19,,,,,,,,13,,,59,72
26100,note_on,1,0,21,,,,,,,,15,,,53,72
26100,note_on,1,0,9,,,,,,,,4,,,59,72
26100,note_on,1,0,5,,,,,,,,0,,,72,72
26129,note_on,29,0,9,,,,,,,,4,,,59,0
26129,note_on,29,0,17,,,,,,,,11,,,72,0
26129,note_on,29,0,19,,,,,,,,13,,,59,0
26129,note_on,29,0,15,,,,,,,,10,,,59,0
26129,note_on,29,0,7,,,,,,,,2,,,72,0
26129,note_on,29,0,6,,,,,,,,1,,,59,0
26129,note_on,29,0,5,,,,,,,,0,,,72,0
26130,note_on,1,0,5,,,,,,,,0,,,74,72
26130,note_on,1,0,7,,,,,,,,2,,,74,72
26130,note_on,1,0,9,,,,,,,,4,,,57,72
26130,note_on,1,0,15,,,,,,,,10,,,57,72
26130,note_on,1,0,17,,,,,,,,11,,,74,72
26130,note_on,1,0,19,,,,,,,,13,,,57,72
26130,note_on,1,0,6,,,,,,,,1,,,57,72
26159,note_on,29,0,9,,,,,,,,4,,,57,0
26159,note_on,59,0,11,,,,,,,,6,,,41,0
26159,note_on,29,0,7,,,,,,,,2,,,74,0
26159,note_on,0,0,6,,,,,,,,1,,,53,0
26159,note_on,29,0,17,,,,,,,,11,,,74,0
26159,note_on,29,0,6,,,,,,,,1,,,57,0
26159,note_on,59,0,20,,,,,,,,14,,,53,0
26159,note_on,59,0,16,,,,,,,,10,,,53,0
26159,note_on,29,0,19,,,,,,,,13,,,57,0
26159,note_on,59,0,21,,,,,,,,15,,,53,0
26159,note_on,29,0,5,,,,,,,,0,,,74,0
26159,note_on,29,0,15,,,,,,,,10,,,57,0
26159,note_on,0,0,21,,,,,,,,15,,,62,0
26159,note_on,0,0,21,,,,,,,,15,,,65,0
26159,note_on,0,0,21,,,,,,,,15,,,69,0
26160,note_on,0,0,21,,,,,,,,15,,,68,72
26160,note_on,1,0,21,,,,,,,,15,,,52,72
26160,note_on,0,0,21,,,,,,,,15,,,76,72
26160,note_on,0,0,6,,,,,,,,1,,,52,72
26160,note_on,0,0,21,,,,,,,,15,,,71,72
26160,note_on,1,0,11,,,,,,,,6,,,40,72
26160,note_on,1,0,17,,,,,,,,11,,,76,72
26160,note_on,1,0,6,,,,,,,,1,,,56,72
26160,note_on,1,0,7,,,,,,,,2,,,76,72
26160,note_on,1,0,9,,,,,,,,4,,,56,72
26160,note_on,1,0,16,,,,,,,,10,,,52,72
26160,note_on,1,0,5,,,,,,,,0,,,76,72
26160,note_on,1,0,20,,,,,,,,14,,,52,72
26160,note_on,1,0,19,,,,,,,,13,,,56,72
26160,note_on,1,0,15,,,,,,,,10,,,56,72
26219,note_on,59,0,6,,,,,,,,1,,,56,0
26219,note_on,59,0,7,,,,,,,,2,,,76,0
26219,note_on,59,0,5,,,,,,,,0,,,76,0
26219,note_on,59,0,15,,,,,,,,10,,,56,0
26219,note_on,59,0,19,,,,,,,,13,,,56,0
26219,note_on,59,0,17,,,,,,,,11,,,76,0
26219,note_on,59,0,21,,,,,,,,15,,,76,0
26219,note_on,59,0,9,,,,,,,,4,,,56,0
26219,note_on,0,0,21,,,,,,,,15,,,71,0
26219,note_on,0,0,21,,,,,,,,15,,,68,0
26220,note_on,1,0,15,,,,,,,,10,,,59,72
26220,note_on,1,0,17,,,,,,,,11,,,74,72
26220,note_on,1,0,7,,,,,,,,2,,,74,72
26220,note_on,0,0,21,,,,,,,,15,,,74,72
26220,note_on,0,0,21,,,,,,,,15,,,71,72
26220,note_on,1,0,21,,,,,,,,15,,,68,72
26220,note_on,1,0,5,,,,,,,,0,,,74,72
26220,note_on,1,0,6,,,,,,,,1,,,59,72
26220,note_on,1,0,9,,,,,,,,4,,,59,72
26220,note_on,1,0,19,,,,,,,,13,,,59,72
26249,note_on,29,0,6,,,,,,,,1,,,52,0
26249,note_on,29,0,21,,,,,,,,15,,,52,0
26249,note_on,89,0,11,,,,,,,,6,,,40,0
26249,note_on,89,0,16,,,,,,,,10,,,52,0
26249,note_on,89,0,20,,,,,,,,14,,,52,0
26250,note_on,1,0,21,,,,,,,,15,,,54,72
26250,note_on,1,0,11,,,,,,,,6,,,42,72
26250,note_on,1,0,20,,,,,,,,14,,,54,72
26250,note_on,1,0,16,,,,,,,,10,,,54,72
26250,note_on,1,0,6,,,,,,,,1,,,54,72
26279,note_on,0,0,21,,,,,,,,15,,,71,0
26279,note_on,59,0,17,,,,,,,,11,,,74,0
26279,note_on,0,0,21,,,,,,,,15,,,74,0
26279,note_on,59,0,19,,,,,,,,13,,,59,0
26279,note_on,29,0,21,,,,,,,,15,,,54,0
26279,note_on,59,0,15,,,,,,,,10,,,59,0
26279,note_on,0,0,6,,,,,,,,1,,,59,0
26279,note_on,59,0,5,,,,,,,,0,,,74,0
26279,note_on,29,0,6,,,,,,,,1,,,54,0
26279,note_on,59,0,9,,,,,,,,4,,,59,0
26279,note_on,29,0,16,,,,,,,,10,,,54,0
26279,note_on,59,0,7,,,,,,,,2,,,74,0
26279,note_on,29,0,11,,,,,,,,6,,,42,0
26279,note_on,29,0,20,,,,,,,,14,,,54,0
26279,note_on,0,0,21,,,,,,,,15,,,68,0
26280,note_on,1,0,11,,,,,,,,6,,,44,72
26280,note_on,1,0,21,,,,,,,,15,,,56,72
26280,note_on,1,0,17,,,,,,,,11,,,72,72
26280,note_on,0,0,21,,,,,,,,15,,,64,72
26280,note_on,1,0,9,,,,,,,,4,,,64,72
26280,note_on,0,0,6,,,,,,,,1,,,56,72
26280,note_on,1,0,19,,,,,,,,13,,,64,72
26280,note_on,1,0,15,,,,,,,,10,,,64,72
26280,note_on,1,0,5,,,,,,,,0,,,72,72
26280,note_on,1,0,16,,,,,,,,10,,,56,72
26280,note_on,1,0,20,,,,,,,,14,,,56,72
26280,note_on,1,0,7,,,,,,,,2,,,72,72
26280,note_on,0,0,21,,,,,,,,15,,,72,72
26280,note_on,1,0,6,,,,,,,,1,,,64,72
26309,note_on,29,0,16,,,,,,,,10,,,56,0
26309,note_on,29,0,6,,,,,,,,1,,,56,0
26309,note_on,29,0,21,,,,,,,,15,,,56,0
26309,note_on,29,0,20,,,,,,,,14,,,56,0
26309,note_on,29,0,11,,,,,,,,6,,,44,0
26310,note_on,1,0,6,,,,,,,,1,,,57,72
26310,note_on,1,0,21,,,,,,,,15,,,57,72
26310,note_on,1,0,20,,,,,,,,14,,,57,72
26310,note_on,1,0,16,,,,,,,,10,,,57,72
26310,note_on,1,0,11,,,,,,,,6,,,45,72
26339,note_on,59,0,7,,,,,,,,2,,,72,0
26339,note_on,0,0,6,,,,,,,,1,,,64,0
26339,note_on,29,0,20,,,,,,,,14,,,57,0
26339,note_on,29,0,16,,,,,,,,10,,,57,0
26339,note_on,59,0,5,,,,,,,,0,,,72,0
26339,note_on,29,0,11,,,,,,,,6,,,45,0
26339,note_on,59,0,15,,,,,,,,10,,,64,0
26339,note_on,0,0,21,,,,,,,,15,,,72,0
26339,note_on,59,0,9,,,,,,,,4,,,64,0
26339,note_on,59,0,17,,,,,,,,11,,,72,0
26339,note_on,29,0,21,,,,,,,,15,,,57,0
26339,note_on,0,0,21,,,,,,,,15,,,64,0
26339,note_on,29,0,6,,,,,,,,1,,,57,0
26339,note_on,59,0,19,,,,,,,,13,,,64,0
26340,note_on,1,0,16,,,,,,,,10,,,54,72
26340,note_on,1,0,21,,,,,,,,15,,,54,72
26340,note_on,0,0,21,,,,,,,,15,,,62,72
26340,note_on,1,0,20,,,,,,,,14,,,54,72
26340,note_on,0,0,21,,,,,,,,15,,,71,72
26340,note_on,1,0,11,,,,,,,,6,,,42,72
26340,note_on,1,0,17,,,,,,,,11,,,71,72
26340,note_on,1,0,15,,,,,,,,10,,,62,72
26340,note_on,1,0,5,,,,,,,,0,,,71,72
26340,note_on,1,0,19,,,,,,,,13,,,62,72
26340,note_on,1,0,9,,,,,,,,4,,,62,72
26340,note_on,1,0,6,,,,,,,,1,,,62,72
26340,note_on,0,0,6,,,,,,,,1,,,54,72
26340,note_on,1,0,7,,,,,,,,2,,,71,72
26369,note_on,29,0,6,,,,,,,,1,,,54,0
26369,note_on,29,0,21,,,,,,,,15,,,54,0
26369,note_on,29,0,16,,,,,,,,10,,,54,0
26369,note_on,29,0,20,,,,,,,,14,,,54,0
26369,note_on,29,0,11,,,,,,,,6,,,42,0
26370,note_on,1,0,16,,,,,,,,10,,,56,72
26370,note_on,1,0,11,,,,,,,,6,,,44,72
26370,note_on,1,0,21,,,,,,,,15,,,56,72
26370,note_on,1,0,20,,,,,,,,14,,,56,72
26370,note_on,1,0,6,,,,,,,,1,,,56,72
26399,note_on,29,0,16,,,,,,,,10,,,56,0
26399,note_on,59,0,17,,,,,,,,11,,,71,0
26399,note_on,0,0,6,,,,,,,,1,,,62,0
26399,note_on,59,0,7,,,,,,,,2,,,71,0
26399,note_on,59,0,19,,,,,,,,13,,,62,0
26399,note_on,29,0,21,,,,,,,,15,,,56,0
26399,note_on,29,0,6,,,,,,,,1,,,56,0
26399,note_on,29,0,20,,,,,,,,14,,,56,0
26399,note_on,59,0,5,,,,,,,,0,,,71,0
26399,note_on,59,0,15,,,,,,,,10,,,62,0
26399,note_on,0,0,21,,,,,,,,15,,,71,0
26399,note_on,0,0,21,,,,,,,,15,,,62,0
26399,note_on,29,0,11,,,,,,,,6,,,44,0
26399,note_on,59,0,9,,,,,,,,4,,,62,0
26400,note_on,1,0,7,,,,,,,,2,,,69,72
26400,note_on,0,0,21,,,,,,,,15,,,69,72
26400,note_on,0,0,12,,,,,,,,7,,,57,76
26400,note_on,0,0,21,,,,,,,,15,,,64,72
26400,note_on,0,0,21,,,,,,,,15,,,60,72
26400,note_on,3361,0,12,,,,,,,,7,,,69,76
26400,note_on,1,0,21,,,,,,,,15,,,57,72
26400,note_on,1,0,16,,,,,,,,10,,,57,72
26400,note_on,1,0,5,,,,,,,,0,,,69,72
26400,note_on,1,0,17,,,,,,,,11,,,69,72
26400,note_on,1,0,20,,,,,,,,14,,,57,72
26400,note_on,1321,0,14,,,,,,,,10,,,69,72
26400,note_on,1,0,6,,,,,,,,1,,,60,72
26400,note_on,1,0,11,,,,,,,,6,,,45,72
26400,note_on,1,0,19,,,,,,,,13,,,60,72
26400,note_on,1321,0,8,,,,,,,,3,,,69,72
26400,note_on,3841,0,13,,,,,,,,8,,,45,72
26400,note_on,1,0,15,,,,,,,,10,,,60,72
26400,note_on,1321,0,18,,,,,,,,12,,,69,72
26400,note_on,1,0,9,,,,,,,,4,,,60,72
26400,note_on,0,0,6,,,,,,,,1,,,57,72
26459,note_on,59,0,9,,,,,,,,4,,,60,0
26459,note_on,59,0,17,,,,,,,,11,,,69,0
26459,note_on,59,0,19,,,,,,,,13,,,60,0
26459,note_on,59,0,15,,,,,,,,10,,,60,0
26459,note_on,59,0,7,,,,,,,,2,,,69,0
26459,note_on,0,0,21,,,,,,,,15,,,57,0
26459,note_on,59,0,20,,,,,,,,14,,,57,0
26459,note_on,59,0,13,,,,,,,,8,,,45,0
26459,note_on,59,0,11,,,,,,,,6,,,45,0
26459,note_on,59,0,6,,,,,,,,1,,,57,0
26459,note_on,59,0,21,,,,,,,,15,,,69,0
26459,note_on,0,0,6,,,,,,,,1,,,60,0
26459,note_on,0,0,21,,,,,,,,15,,,64,0
26459,note_on,59,0,16,,,,,,,,10,,,57,0
26459,note_on,0,0,21,,,,,,,,15,,,60,0
26460,note_on,0,0,21,,,,,,,,15,,,61,72
26460,note_on,1,0,17,,,,,,,,11,,,79,72
26460,note_on,0,0,21,,,,,,,,15,,,64,72
26460,note_on,0,0,21,,,,,,,,15,,,69,72
26460,note_on,0,0,6,,,,,,,,1,,,45,72
26460,note_on,1,0,6,,,,,,,,1,,,61,72
26460,note_on,1,0,11,,,,,,,,6,,,33,72
26460,note_on,1,0,19,,,,,,,,13,,,61,72
26460,note_on,1,0,13,,,,,,,,8,,,45,72
26460,note_on,1,0,20,,,,,,,,14,,,45,72
26460,note_on,1,0,15,,,,,,,,10,,,61,72
26460,note_on,1,0,21,,,,,,,,15,,,45,72
26460,note_on,60,0,5,,,,,,,,0,,,79,72
26460,note_on,1,0,9,,,,,,,,4,,,61,72
26460,note_on,1,0,7,,,,,,,,2,,,79,72
26460,note_on,1,0,16,,,,,,,,10,,,45,72
26489,note_on,29,0,13,,,,,,,,8,,,45,0
26490,note_on,1,0,13,,,,,,,,8,,,45,72
26519,note_on,59,0,11,,,,,,,,6,,,33,0
26519,note_on,59,0,5,,,,,,,,0,,,79,0
26519,note_on,119,0,12,,,,,,,,7,,,57,0
26519,note_on,59,0,16,,,,,,,,10,,,45,0
26519,note_on,0,0,12,,,,,,,,7,,,69,0
26519,note_on,29,0,13,,,,,,,,8,,,45,0
26519,note_on,0,0,6,,,,,,,,1,,,61,0
26519,note_on,59,0,9,,,,,,,,4,,,61,0
26519,note_on,0,0,21,,,,,,,,15,,,61,0
26519,note_on,0,0,21,,,,,,,,15,,,45,0
26519,note_on,59,0,17,,,,,,,,11,,,79,0
26519,note_on,59,0,21,,,,,,,,15,,,69,0
26519,note_on,59,0,20,,,,,,,,14,,,45,0
26519,note_on,59,0,19,,,,,,,,13,,,61,0
26519,note_on,59,0,15,,,,,,,,10,,,61,0
26519,note_on,59,0,7,,,,,,,,2,,,79,0
26519,note_on,0,0,21,,,,,,,,15,,,64,0
26519,note_on,59,0,6,,,,,,,,1,,,45,0
26520,note_on,1,0,21,,,,,,,,15,,,47,72
26520,note_on,1,0,15,,,,,,,,10,,,62,72
26520,note_on,0,0,21,,,,,,,,15,,,77,72
26520,note_on,0,0,21,,,,,,,,15,,,69,72
26520,note_on,0,0,12,,,,,,,,7,,,57,76
26520,note_on,1,0,12,,,,,,,,7,,,69,76
26520,note_on,0,0,21,,,,,,,,15,,,62,72
26520,note_on,1,0,6,,,,,,,,1,,,62,72
26520,note_on,1,0,7,,,,,,,,2,,,77,72
26520,note_on,1,0,20,,,,,,,,14,,,47,72
26520,note_on,1,0,17,,,,,,,,11,,,77,72
26520,note_on,1,0,9,,,,,,,,4,,,62,72
26520,note_on,1,0,13,,,,,,,,8,,,45,72
26520,note_on,1,0,5,,,,,,,,0,,,77,72
26520,note_on,1,0,16,,,,,,,,10,,,47,72
26520,note_on,0,0,6,,,,,,,,1,,,47,72
26520,note_on,1,0,19,,,,,,,,13,,,62,72
26520,note_on,1,0,11,,,,,,,,6,,,35,72
26579,note_on,59,0,6,,,,,,,,1,,,47,0
26579,note_on,0,0,12,,,,,,,,7,,,69,0
26579,note_on,59,0,12,,,,,,,,7,,,57,0
26579,note_on,59,0,9,,,,,,,,4,,,62,0
26579,note_on,59,0,17,,,,,,,,11,,,77,0
26579,note_on,59,0,19,,,,,,,,13,,,62,0
26579,note_on,59,0,16,,,,,,,,10,,,47,0
26579,note_on,0,0,6,,,,,,,,1,,,62,0
26579,note_on,59,0,15,,,,,,,,10,,,62,0
26579,note_on,0,0,5,,,,,,,,0,,,69,0
26579,note_on,179,0,18,,,,,,,,12,,,69,0
26579,note_on,59,0,21,,,,,,,,15,,,69,0
26579,note_on,59,0,11,,,,,,,,6,,,35,0
26579,note_on,179,0,14,,,,,,,,10,,,69,0
26579,note_on,179,0,8,,,,,,,,3,,,69,0
26579,note_on,59,0,5,,,,,,,,0,,,77,0
26579,note_on,59,0,13,,,,,,,,8,,,45,0
26579,note_on,59,0,20,,,,,,,,14,,,47,0
26579,note_on,0,0,21,,,,,,,,15,,,77,0
26579,note_on,0,0,21,,,,,,,,15,,,62,0
26579,note_on,0,0,21,,,,,,,,15,,,47,0
26579,note_on,59,0,7,,,,,,,,2,,,77,0
26580,note_on,1,0,7,,,,,,,,2,,,76,72
26580,note_on,1,0,8,,,,,,,,3,,,69,72
26580,note_on,1,0,17,,,,,,,,11,,,76,72
26580,note_on,1,0,9,,,,,,,,4,,,64,72
26580,note_on,1,0,20,,,,,,,,14,,,49,72
26580,note_on,1,0,16,,,,,,,,10,,,49,72
26580,note_on,1,0,18,,,,,,,,12,,,69,72
26580,note_on,0,0,6,,,,,,,,1,,,49,72
26580,note_on,1,0,6,,,,,,,,1,,,64,72
26580,note_on,1,0,11,,,,,,,,6,,,37,72
26580,note_on,1,0,14,,,,,,,,10,,,69,72
26580,note_on,0,0,21,,,,,,,,15,,,69,72
26580,note_on,0,0,21,,,,,,,,15,,,67,72
26580,note_on,1,0,21,,,,,,,,15,,,49,72
26580,note_on,0,0,12,,,,,,,,7,,,57,76
26580,note_on,1,0,13,,,,,,,,8,,,45,72
26580,note_on,0,0,21,,,,,,,,15,,,76,72
26580,note_on,1,0,12,,,,,,,,7,,,69,76
26580,note_on,1,0,5,,,,,,,,0,,,76,72
26580,note_on,0,0,5,,,,,,,,0,,,69,72
26580,note_on,1,0,15,,,,,,,,10,,,64,72
26580,note_on,1,0,19,,,,,,,,13,,,64,72
26639,note_on,59,0,15,,,,,,,,10,,,64,0
26639,note_on,59,0,8,,,,,,,,3,,,69,0
26639,note_on,0,0,6,,,,,,,,1,,,64,0
26639,note_on,59,0,6,,,,,,,,1,,,49,0
26639,note_on,59,0,13,,,,,,,,8,,,45,0
26639,note_on,59,0,19,,,,,,,,13,,,64,0
26639,note_on,59,0,12,,,,,,,,7,,,57,0
26639,note_on,0,0,12,,,,,,,,7,,,69,0
26639,note_on,59,0,18,,,,,,,,12,,,69,0
26639,note_on,59,0,9,,,,,,,,4,,,64,0
26639,note_on,59,0,21,,,,,,,,15,,,69,0
26639,note_on,0,0,21,,,,,,,,15,,,49,0
26639,note_on,0,0,21,,,,,,,,15,,,76,0
26639,note_on,0,0,21,,,,,,,,15,,,67,0
26639,note_on,59,0,11,,,,,,,,6,,,37,0
26639,note_on,0,0,5,,,,,,,,0,,,76,0
26639,note_on,59,0,5,,,,,,,,0,,,69,0
26639,note_on,59,0,16,,,,,,,,10,,,49,0
26639,note_on,59,0,17,,,,,,,,11,,,76,0
26639,note_on,59,0,14,,,,,,,,10,,,69,0
26639,note_on,59,0,7,,,,,,,,2,,,76,0
26639,note_on,59,0,20,,,,,,,,14,,,49,0
26640,note_on,0,0,12,,,,,,,,7,,,62,76
26640,note_on,1,0,21,,,,,,,,15,,,50,72
26640,note_on,1,0,9,,,,,,,,4,,,57,72
26640,note_on,1,0,7,,,,,,,,2,,,74,72
26640,note_on,1,0,8,,,,,,,,3,,,65,72
26640,note_on,1,0,20,,,,,,,,14,,,50,72
26640,note_on,1,0,18,,,,,,,,12,,,65,72
26640,note_on,0,0,6,,,,,,,,1,,,50,72
26640,note_on,1,0,6,,,,,,,,1,,,57,72
26640,note_on,1,0,16,,,,,,,,10,,,50,72
26640,note_on,1,0,13,,,,,,,,8,,,50,72
26640,note_on,1,0,14,,,,,,,,10,,,65,72
26640,note_on,1,0,12,,,,,,,,7,,,69,76
26640,note_on,0,0,21,,,,,,,,15,,,65,72
26640,note_on,0,0,21,,,,,,,,15,,,69,72
26640,note_on,1,0,19,,,,,,,,13,,,57,72
26640,note_on,1,0,17,,,,,,,,11,,,74,72
26640,note_on,1,0,15,,,,,,,,10,,,57,72
26640,note_on,1,0,5,,,,,,,,0,,,74,72
26640,note_on,0,0,5,,,,,,,,0,,,65,72
26640,note_on,1,0,11,,,,,,,,6,,,38,72
26699,note_on,59,0,15,,,,,,,,10,,,57,0
26699,note_on,59,0,6,,,,,,,,1,,,57,0
26699,note_on,59,0,19,,,,,,,,13,,,57,0
26699,note_on,59,0,11,,,,,,,,6,,,38,0
26699,note_on,59,0,21,,,,,,,,15,,,50,0
26699,note_on,59,0,9,,,,,,,,4,,,57,0
26700,note_on,1,0,21,,,,,,,,15,,,50,72
26700,note_on,1,0,19,,,,,,,,13,,,50,72
26700,note_on,1,0,11,,,,,,,,6,,,38,72
26700,note_on,1,0,6,,,,,,,,1,,,50,72
26700,note_on,1,0,15,,,,,,,,10,,,50,72
26700,note_on,1,0,9,,,,,,,,4,,,50,72
26759,note_on,119,0,5,,,,,,,,0,,,65,0
26759,note_on,59,0,21,,,,,,,,15,,,50,0
26759,note_on,0,0,6,,,,,,,,1,,,50,0
26759,note_on,59,0,6,,,,,,,,1,,,50,0
26759,note_on,119,0,16,,,,,,,,10,,,50,0
26759,note_on,0,0,12,,,,,,,,7,,,69,0
26759,note_on,119,0,12,,,,,,,,7,,,62,0
26759,note_on,119,0,13,,,,,,,,8,,,50,0
26759,note_on,119,0,14,,,,,,,,10,,,65,0
26759,note_on,59,0,19,,,,,,,,13,,,50,0
26759,note_on,59,0,15,,,,,,,,10,,,50,0
26759,note_on,119,0,18,,,,,,,,12,,,65,0
26759,note_on,0,0,5,,,,,,,,0,,,74,0
26759,note_on,59,0,9,,,,,,,,4,,,50,0
26759,note_on,0,0,21,,,,,,,,15,,,69,0
26759,note_on,119,0,8,,,,,,,,3,,,65,0
26759,note_on,119,0,7,,,,,,,,2,,,74,0
26759,note_on,0,0,21,,,,,,,,15,,,65,0
26759,note_on,59,0,11,,,,,,,,6,,,38,0
26759,note_on,119,0,20,,,,,,,,14,,,50,0
26759,note_on,119,0,17,,,,,,,,11,,,74,0
26760,note_on,1,0,19,,,,,,,,13,,,55,72
26760,note_on,1,0,21,,,,,,,,15,,,55,72
26760,note_on,1,0,15,,,,,,,,10,,,55,72
26760,note_on,0,0,21,,,,,,,,15,,,58,72
26760,note_on,1,0,6,,,,,,,,1,,,55,72
26760,note_on,1,0,14,,,,,,,,10,,,70,72
26760,note_on,1,0,5,,,,,,,,0,,,70,72
26760,note_on,1,0,11,,,,,,,,6,,,43,72
26760,note_on,1,0,18,,,,,,,,12,,,70,72
26760,note_on,1,0,8,,,,,,,,3,,,70,72
26760,note_on,0,0,21,,,,,,,,15,,,62,72
26760,note_on,1,0,9,,,,,,,,4,,,55,72
26819,note_on,59,0,9,,,,,,,,4,,,55,0
26819,note_on,59,0,11,,,,,,,,6,,,43,0
26819,note_on,59,0,15,,,,,,,,10,,,55,0
26819,note_on,59,0,19,,,,,,,,13,,,55,0
26819,note_on,0,0,21,,,,,,,,15,,,55,0
26819,note_on,59,0,6,,,,,,,,1,,,55,0
26819,note_on,59,0,21,,,,,,,,15,,,62,0
26820,note_on,0,0,21,,,,,,,,15,,,67,72
26820,note_on,60,0,5,,,,,,,,0,,,62,72
26820,note_on,61,0,7,,,,,,,,2,,,62,72
26820,note_on,1,0,21,,,,,,,,15,,,53,72
26820,note_on,1,0,11,,,,,,,,6,,,41,72
26820,note_on,1,0,19,,,,,,,,13,,,53,72
26820,note_on,1,0,6,,,,,,,,1,,,53,72
26820,note_on,1,0,9,,,,,,,,4,,,53,72
26820,note_on,1,0,15,,,,,,,,10,,,53,72
26820,note_on,61,0,17,,,,,,,,11,,,62,72
26879,note_on,59,0,19,,,,,,,,13,,,53,0
26879,note_on,59,0,9,,,,,,,,4,,,53,0
26879,note_on,119,0,18,,,,,,,,12,,,70,0
26879,note_on,59,0,7,,,,,,,,2,,,62,0
26879,note_on,119,0,14,,,,,,,,10,,,70,0
26879,note_on,119,0,8,,,,,,,,3,,,70,0
26879,note_on,59,0,6,,,,,,,,1,,,53,0
26879,note_on,59,0,15,,,,,,,,10,,,53,0
26879,note_on,59,0,11,,,,,,,,6,,,41,0
26879,note_on,0,0,21,,,,,,,,15,,,58,0
26879,note_on,0,0,21,,,,,,,,15,,,53,0
26879,note_on,0,0,5,,,,,,,,0,,,70,0
26879,note_on,59,0,5,,,,,,,,0,,,62,0
26879,note_on,59,0,21,,,,,,,,15,,,67,0
26879,note_on,59,0,17,,,,,,,,11,,,62,0
26880,note_on,1,0,15,,,,,,,,10,,,52,72
26880,note_on,1,0,14,,,,,,,,10,,,61,72
26880,note_on,1,0,6,,,,,,,,1,,,52,72
26880,note_on,0,0,21,,,,,,,,15,,,58,72
26880,note_on,0,0,21,,,,,,,,15,,,67,72
26880,note_on,0,0,21,,,,,,,,15,,,61,72
26880,note_on,1,0,9,,,,,,,,4,,,52,72
26880,note_on,1,0,21,,,,,,,,15,,,52,72
26880,note_on,1,0,17,,,,,,,,11,,,67,72
26880,note_on,1,0,8,,,,,,,,3,,,61,72
26880,note_on,0,0,5,,,,,,,,0,,,61,72
26880,note_on,1,0,7,,,,,,,,2,,,67,72
26880,note_on,1,0,5,,,,,,,,0,,,67,72
26880,note_on,1,0,11,,,,,,,,6,,,40,72
26880,note_on,1,0,19,,,,,,,,13,,,52,72
26880,note_on,1,0,18,,,,,,,,12,,,61,72
26939,note_on,59,0,9,,,,,,,,4,,,52,0
26939,note_on,59,0,19,,,,,,,,13,,,52,0
26939,note_on,59,0,21,,,,,,,,15,,,52,0
26939,note_on,59,0,6,,,,,,,,1,,,52,0
26939,note_on,59,0,15,,,,,,,,10,,,52,0
26939,note_on,59,0,11,,,,,,,,6,,,40,0
26940,note_on,1,0,9,,,,,,,,4,,,55,72
26940,note_on,1,0,19,,,,,,,,13,,,53,72
26940,note_on,181,0,20,,,,,,,,14,,,52,72
26940,note_on,0,0,6,,,,,,,,1,,,52,72
26940,note_on,1,0,6,,,,,,,,1,,,55,72
26940,note_on,1,0,21,,,,,,,,15,,,52,72
26940,note_on,1,0,11,,,,,,,,6,,,40,72
26940,note_on,181,0,16,,,,,,,,10,,,52,72
26940,note_on,1,0,15,,,,,,,,10,,,53,72
26999,note_on,59,0,11,,,,,,,,6,,,40,0
26999,note_on,59,0,16,,,,,,,,10,,,52,0
26999,note_on,0,0,6,,,,,,,,1,,,55,0
26999,note_on,59,0,6,,,,,,,,1,,,52,0
26999,note_on,59,0,15,,,,,,,,10,,,53,0
26999,note_on,59,0,20,,,,,,,,14,,,52,0
26999,note_on,59,0,21,,,,,,,,15,,,52,0
26999,note_on,59,0,19,,,,,,,,13,,,53,0
26999,note_on,59,0,9,,,,,,,,4,,,55,0
27000,note_on,1,0,21,,,,,,,,15,,,52,72
27000,note_on,1,0,11,,,,,,,,6,,,40,72
27000,note_on,0,0,6,,,,,,,,1,,,58,72
27000,note_on,1,0,20,,,,,,,,14,,,52,72
27000,note_on,1,0,19,,,,,,,,13,,,58,72
27000,note_on,1,0,15,,,,,,,,10,,,58,72
27000,note_on,1,0,6,,,,,,,,1,,,52,72
27000,note_on,1,0,9,,,,,,,,4,,,58,72
27000,note_on,1,0,16,,,,,,,,10,,,52,72
27059,note_on,0,0,5,,,,,,,,0,,,67,0
27059,note_on,179,0,7,,,,,,,,2,,,67,0
27059,note_on,179,0,17,,,,,,,,11,,,67,0
27059,note_on,59,0,21,,,,,,,,15,,,52,0
27059,note_on,59,0,20,,,,,,,,14,,,52,0
27059,note_on,59,0,6,,,,,,,,1,,,52,0
27059,note_on,179,0,18,,,,,,,,12,,,61,0
27059,note_on,59,0,11,,,,,,,,6,,,40,0
27059,note_on,179,0,5,,,,,,,,0,,,61,0
27059,note_on,179,0,8,,,,,,,,3,,,61,0
27059,note_on,179,0,14,,,,,,,,10,,,61,0
27059,note_on,59,0,16,,,,,,,,10,,,52,0
27060,note_on,1,0,17,,,,,,,,11,,,65,72
27060,note_on,1,0,11,,,,,,,,6,,,40,72
27060,note_on,0,0,5,,,,,,,,0,,,65,72
27060,note_on,1,0,6,,,,,,,,1,,,52,72
27060,note_on,1,0,21,,,,,,,,15,,,52,72
27060,note_on,1,0,5,,,,,,,,0,,,61,72
27060,note_on,1,0,18,,,,,,,,12,,,61,72
27060,note_on,1,0,14,,,,,,,,10,,,61,72
27060,note_on,1,0,7,,,,,,,,2,,,65,72
27060,note_on,1,0,8,,,,,,,,3,,,61,72
27060,note_on,1,0,20,,,,,,,,14,,,52,72
27060,note_on,1,0,16,,,,,,,,10,,,52,72
27089,note_on,29,0,5,,,,,,,,0,,,65,0
27089,note_on,29,0,7,,,,,,,,2,,,65,0
27089,note_on,29,0,17,,,,,,,,11,,,65,0
27090,note_on,1,0,5,,,,,,,,0,,,64,72
27090,note_on,1,0,7,,,,,,,,2,,,64,72
27090,note_on,1,0,17,,,,,,,,11,,,64,72
27119,note_on,59,0,11,,,,,,,,6,,,40,0
27119,note_on,59,0,16,,,,,,,,10,,,52,0
27119,note_on,119,0,15,,,,,,,,10,,,58,0
27119,note_on,29,0,7,,,,,,,,2,,,64,0
27119,note_on,119,0,19,,,,,,,,13,,,58,0
27119,note_on,59,0,18,,,,,,,,12,,,61,0
27119,note_on,59,0,14,,,,,,,,10,,,61,0
27119,note_on,59,0,20,,,,,,,,14,,,52,0
27119,note_on,119,0,9,,,,,,,,4,,,58,0
27119,note_on,29,0,17,,,,,,,,11,,,64,0
27119,note_on,0,0,6,,,,,,,,1,,,58,0
27119,note_on,0,0,21,,,,,,,,15,,,61,0
27119,note_on,59,0,6,,,,,,,,1,,,52,0
27119,note_on,0,0,21,,,,,,,,15,,,67,0
27119,note_on,0,0,21,,,,,,,,15,,,58,0
27119,note_on,0,0,5,,,,,,,,0,,,61,0
27119,note_on,29,0,5,,,,,,,,0,,,64,0
27119,note_on,59,0,21,,,,,,,,15,,,52,0
27119,note_on,59,0,8,,,,,,,,3,,,61,0
27120,note_on,1,0,8,,,,,,,,3,,,62,72
27120,note_on,0,0,5,,,,,,,,0,,,62,72
27120,note_on,1,0,20,,,,,,,,14,,,53,72
27120,note_on,1,0,5,,,,,,,,0,,,69,72
27120,note_on,1,0,18,,,,,,,,12,,,62,72
27120,note_on,1,0,7,,,,,,,,2,,,69,72
27120,note_on,1,0,11,,,,,,,,6,,,41,72
27120,note_on,0,0,21,,,,,,,,15,,,69,72
27120,note_on,0,0,21,,,,,,,,15,,,62,72
27120,note_on,1,0,16,,,,,,,,10,,,53,72
27120,note_on,1,0,17,,,,,,,,11,,,69,72
27120,note_on,0,0,6,,,,,,,,1,,,53,72
27120,note_on,1,0,6,,,,,,,,1,,,57,72
27120,note_on,1,0,19,,,,,,,,13,,,57,72
27120,note_on,1,0,15,,,,,,,,10,,,57,72
27120,note_on,1,0,14,,,,,,,,10,,,62,72
27120,note_on,1,0,21,,,,,,,,15,,,53,72
27120,note_on,1,0,9,,,,,,,,4,,,57,72
27149,note_on,29,0,11,,,,,,,,6,,,41,0
27149,note_on,29,0,20,,,,,,,,14,,,53,0
27149,note_on,29,0,6,,,,,,,,1,,,53,0
27149,note_on,29,0,21,,,,,,,,15,,,53,0
27149,note_on,29,0,16,,,,,,,,10,,,53,0
27150,note_on,1,0,16,,,,,,,,10,,,55,72
27150,note_on,1,0,11,,,,,,,,6,,,43,72
27150,note_on,1,0,6,,,,,,,,1,,,55,72
27150,note_on,1,0,21,,,,,,,,15,,,55,72
27150,note_on,1,0,20,,,,,,,,14,,,55,72
27179,note_on,29,0,16,,,,,,,,10,,,55,0
27179,note_on,29,0,6,,,,,,,,1,,,55,0
27179,note_on,59,0,17,,,,,,,,11,,,69,0
27179,note_on,59,0,7,,,,,,,,2,,,69,0
27179,note_on,29,0,20,,,,,,,,14,,,55,0
27179,note_on,59,0,5,,,,,,,,0,,,69,0
27179,note_on,29,0,11,,,,,,,,6,,,43,0
27179,note_on,29,0,21,,,,,,,,15,,,55,0
27180,note_on,1,0,11,,,,,,,,6,,,41,72
27180,note_on,1,0,6,,,,,,,,1,,,53,72
27180,note_on,1,0,5,,,,,,,,0,,,62,72
27180,note_on,1,0,16,,,,,,,,10,,,53,72
27180,note_on,1,0,20,,,,,,,,14,,,53,72
27180,note_on,1,0,7,,,,,,,,2,,,62,72
27180,note_on,1,0,17,,,,,,,,11,,,62,72
27180,note_on,1,0,21,,,,,,,,15,,,53,72
27209,note_on,29,0,21,,,,,,,,15,,,53,0
27209,note_on,29,0,6,,,,,,,,1,,,53,0
27209,note_on,29,0,16,,,,,,,,10,,,53,0
27209,note_on,29,0,11,,,,,,,,6,,,41,0
27209,note_on,29,0,20,,,,,,,,14,,,53,0
27210,note_on,1,0,16,,,,,,,,10,,,52,72
27210,note_on,1,0,6,,,,,,,,1,,,52,72
27210,note_on,1,0,20,,,,,,,,14,,,52,72
27210,note_on,1,0,11,,,,,,,,6,,,40,72
27210,note_on,1,0,21,,,,,,,,15,,,52,72
27239,note_on,119,0,8,,,,,,,,3,,,62,0
27239,note_on,59,0,17,,,,,,,,11,,,62,0
27239,note_on,119,0,19,,,,,,,,13,,,57,0
27239,note_on,29,0,6,,,,,,,,1,,,52,0
27239,note_on,119,0,9,,,,,,,,4,,,57,0
27239,note_on,119,0,15,,,,,,,,10,,,57,0
27239,note_on,29,0,16,,,,,,,,10,,,52,0
27239,note_on,0,0,5,,,,,,,,0,,,62,0
27239,note_on,0,0,6,,,,,,,,1,,,57,0
27239,note_on,29,0,20,,,,,,,,14,,,52,0
27239,note_on,119,0,18,,,,,,,,12,,,62,0
27239,note_on,119,0,14,,,,,,,,10,,,62,0
27239,note_on,59,0,5,,,,,,,,0,,,62,0
27239,note_on,59,0,7,,,,,,,,2,,,62,0
27239,note_on,29,0,21,,,,,,,,15,,,52,0
27239,note_on,29,0,11,,,,,,,,6,,,40,0
27240,note_on,1,0,6,,,,,,,,1,,,53,72
27240,note_on,1,0,16,,,,,,,,10,,,53,72
27240,note_on,1,0,7,,,,,,,,2,,,74,72
27240,note_on,1,0,20,,,,,,,,14,,,53,72
27240,note_on,1,0,21,,,,,,,,15,,,53,72
27240,note_on,1,0,11,,,,,,,,6,,,41,72
27240,note_on,1,0,5,,,,,,,,0,,,74,72
27240,note_on,1,0,17,,,,,,,,11,,,74,72
27269,note_on,29,0,11,,,,,,,,6,,,41,0
27269,note_on,29,0,21,,,,,,,,15,,,53,0
27269,note_on,29,0,16,,,,,,,,10,,,53,0
27269,note_on,29,0,6,,,,,,,,1,,,53,0
27269,note_on,29,0,20,,,,,,,,14,,,53,0
27270,note_on,1,0,6,,,,,,,,1,,,55,72
27270,note_on,1,0,20,,,,,,,,14,,,55,72
27270,note_on,1,0,16,,,,,,,,10,,,55,72
27270,note_on,1,0,21,,,,,,,,15,,,55,72
27270,note_on,1,0,11,,,,,,,,6,,,43,72
27299,note_on,29,0,16,,,,,,,,10,,,55,0
27299,note_on,29,0,21,,,,,,,,15,,,55,0
27299,note_on,29,0,11,,,,,,,,6,,,43,0
27299,note_on,29,0,6,,,,,,,,1,,,55,0
27299,note_on,29,0,20,,,,,,,,14,,,55,0
27300,note_on,60,0,5,,,,,,,,0,,,62,72
27300,note_on,1,0,21,,,,,,,,15,,,52,72
27300,note_on,61,0,14,,,,,,,,10,,,62,72
27300,note_on,1,0,20,,,,,,,,14,,,52,72
27300,note_on,61,0,18,,,,,,,,12,,,62,72
27300,note_on,1,0,6,,,,,,,,1,,,52,72
27300,note_on,1,0,11,,,,,,,,6,,,40,72
27300,note_on,1,0,16,,,,,,,,10,,,52,72
27300,note_on,61,0,8,,,,,,,,3,,,62,72
27329,note_on,29,0,20,,,,,,,,14,,,52,0
27329,note_on,29,0,21,,,,,,,,15,,,52,0
27329,note_on,29,0,11,,,,,,,,6,,,40,0
27329,note_on,29,0,16,,,,,,,,10,,,52,0
27329,note_on,29,0,6,,,,,,,,1,,,52,0
27330,note_on,1,0,6,,,,,,,,1,,,53,72
27330,note_on,1,0,16,,,,,,,,10,,,53,72
27330,note_on,1,0,20,,,,,,,,14,,,53,72
27330,note_on,1,0,11,,,,,,,,6,,,41,72
27330,note_on,1,0,21,,,,,,,,15,,,53,72
27359,note_on,29,0,21,,,,,,,,15,,,53,0
27359,note_on,59,0,18,,,,,,,,12,,,62,0
27359,note_on,29,0,6,,,,,,,,1,,,53,0
27359,note_on,29,0,20,,,,,,,,14,,,53,0
27359,note_on,59,0,14,,,,,,,,10,,,62,0
27359,note_on,59,0,5,,,,,,,,0,,,62,0
27359,note_on,29,0,16,,,,,,,,10,,,53,0
27359,note_on,29,0,11,,,,,,,,6,,,41,0
27359,note_on,0,0,21,,,,,,,,15,,,62,0
27359,note_on,59,0,8,,,,,,,,3,,,62,0
27359,note_on,0,0,21,,,,,,,,15,,,69,0
27360,note_on,1,0,18,,,,,,,,12,,,64,72
27360,note_on,1,0,16,,,,,,,,10,,,55,72
27360,note_on,1,0,6,,,,,,,,1,,,55,72
27360,note_on,1,0,21,,,,,,,,15,,,55,72
27360,note_on,1,0,11,,,,,,,,6,,,43,72
27360,note_on,1,0,8,,,,,,,,3,,,64,72
27360,note_on,0,0,21,,,,,,,,15,,,74,72
27360,note_on,1,0,14,,,,,,,,10,,,64,72
27360,note_on,0,0,21,,,,,,,,15,,,70,72
27360,note_on,1,0,5,,,,,,,,0,,,64,72
27360,note_on,1,0,20,,,,,,,,14,,,55,72
27360,note_on,0,0,21,,,,,,,,15,,,65,72
27389,note_on,29,0,6,,,,,,,,1,,,55,0
27389,note_on,29,0,20,,,,,,,,14,,,55,0
27389,note_on,29,0,21,,,,,,,,15,,,55,0
27389,note_on,29,0,16,,,,,,,,10,,,55,0
27389,note_on,29,0,11,,,,,,,,6,,,43,0
27390,note_on,1,0,11,,,,,,,,6,,,45,72
27390,note_on,1,0,6,,,,,,,,1,,,57,72
27390,note_on,1,0,21,,,,,,,,15,,,57,72
27390,note_on,1,0,20,,,,,,,,14,,,57,72
27390,note_on,1,0,16,,,,,,,,10,,,57,72
27419,note_on,29,0,6,,,,,,,,1,,,57,0
27419,note_on,29,0,16,,,,,,,,10,,,57,0
27419,note_on,29,0,11,,,,,,,,6,,,45,0
27419,note_on,29,0,21,,,,,,,,15,,,57,0
27419,note_on,29,0,20,,,,,,,,14,,,57,0
27420,note_on,1,0,16,,,,,,,,10,,,55,72
27420,note_on,1,0,21,,,,,,,,15,,,55,72
27420,note_on,1,0,11,,,,,,,,6,,,43,72
27420,note_on,1,0,6,,,,,,,,1,,,55,72
27420,note_on,1,0,20,,,,,,,,14,,,55,72
27449,note_on,29,0,6,,,,,,,,1,,,55,0
27449,note_on,29,0,21,,,,,,,,15,,,55,0
27449,note_on,29,0,11,,,,,,,,6,,,43,0
27449,note_on,29,0,20,,,,,,,,14,,,55,0
27449,note_on,29,0,16,,,,,,,,10,,,55,0
27450,note_on,1,0,6,,,,,,,,1,,,53,72
27450,note_on,1,0,21,,,,,,,,15,,,53,72
27450,note_on,1,0,11,,,,,,,,6,,,41,72
27450,note_on,1,0,16,,,,,,,,10,,,53,72
27450,note_on,1,0,20,,,,,,,,14,,,53,72
27479,note_on,29,0,6,,,,,,,,1,,,53,0
27479,note_on,29,0,11,,,,,,,,6,,,41,0
27479,note_on,29,0,16,,,,,,,,10,,,53,0
27479,note_on,119,0,5,,,,,,,,0,,,74,0
27479,note_on,29,0,20,,,,,,,,14,,,53,0
27479,note_on,239,0,17,,,,,,,,11,,,74,0
27479,note_on,239,0,7,,,,,,,,2,,,74,0
27479,note_on,29,0,21,,,,,,,,15,,,53,0
27480,note_on,1,0,11,,,,,,,,6,,,43,72
27480,note_on,1,0,20,,,,,,,,14,,,55,72
27480,note_on,1,0,17,,,,,,,,11,,,74,72
27480,note_on,1,0,7,,,,,,,,2,,,74,72
27480,note_on,1,0,21,,,,,,,,15,,,55,72
27480,note_on,1,0,6,,,,,,,,1,,,55,72
27480,note_on,1,0,5,,,,,,,,0,,,74,72
27480,note_on,1,0,16,,,,,,,,10,,,55,72
27509,note_on,29,0,21,,,,,,,,15,,,55,0
27509,note_on,29,0,6,,,,,,,,1,,,55,0
27509,note_on,29,0,11,,,,,,,,6,,,43,0
27509,note_on,29,0,20,,,,,,,,14,,,55,0
27509,note_on,29,0,16,,,,,,,,10,,,55,0
27510,note_on,1,0,21,,,,,,,,15,,,57,72
27510,note_on,1,0,6,,,,,,,,1,,,57,72
27510,note_on,1,0,11,,,,,,,,6,,,45,72
27510,note_on,1,0,20,,,,,,,,14,,,57,72
27510,note_on,1,0,16,,,,,,,,10,,,57,72
27539,note_on,29,0,11,,,,,,,,6,,,45,0
27539,note_on,59,0,5,,,,,,,,0,,,64,0
27539,note_on,29,0,20,,,,,,,,14,,,57,0
27539,note_on,29,0,6,,,,,,,,1,,,57,0
27539,note_on,29,0,21,,,,,,,,15,,,57,0
27539,note_on,29,0,16,,,,,,,,10,,,57,0
27539,note_on,179,0,14,,,,,,,,10,,,64,0
27539,note_on,179,0,18,,,,,,,,12,,,64,0
27539,note_on,179,0,8,,,,,,,,3,,,64,0
27540,note_on,1,0,21,,,,,,,,15,,,53,72
27540,note_on,1,0,14,,,,,,,,10,,,62,72
27540,note_on,1,0,11,,,,,,,,6,,,41,72
27540,note_on,1,0,6,,,,,,,,1,,,53,72
27540,note_on,1,0,18,,,,,,,,12,,,62,72
27540,note_on,1,0,20,,,,,,,,14,,,53,72
27540,note_on,1,0,8,,,,,,,,3,,,62,72
27540,note_on,1,0,5,,,,,,,,0,,,62,72
27540,note_on,1,0,16,,,,,,,,10,,,53,72
27569,note_on,29,0,16,,,,,,,,10,,,53,0
27569,note_on,29,0,21,,,,,,,,15,,,53,0
27569,note_on,29,0,6,,,,,,,,1,,,53,0
27569,note_on,29,0,20,,,,,,,,14,,,53,0
27569,note_on,29,0,5,,,,,,,,0,,,62,0
27569,note_on,29,0,18,,,,,,,,12,,,62,0
27569,note_on,29,0,8,,,,,,,,3,,,62,0
27569,note_on,29,0,14,,,,,,,,10,,,62,0
27569,note_on,29,0,11,,,,,,,,6,,,41,0
27570,note_on,1,0,8,,,,,,,,3,,,64,72
27570,note_on,1,0,21,,,,,,,,15,,,55,72
27570,note_on,1,0,11,,,,,,,,6,,,43,72
27570,note_on,1,0,6,,,,,,,,1,,,55,72
27570,note_on,1,0,5,,,,,,,,0,,,64,72
27570,note_on,1,0,16,,,,,,,,10,,,55,72
27570,note_on,1,0,20,,,,,,,,14,,,55,72
27570,note_on,1,0,14,,,,,,,,10,,,64,72
27570,note_on,1,0,18,,,,,,,,12,,,64,72
27599,note_on,29,0,8,,,,,,,,3,,,64,0
27599,note_on,29,0,20,,,,,,,,14,,,55,0
27599,note_on,29,0,16,,,,,,,,10,,,55,0
27599,note_on,29,0,18,,,,,,,,12,,,64,0
27599,note_on,0,0,5,,,,,,,,0,,,74,0
27599,note_on,119,0,7,,,,,,,,2,,,74,0
27599,note_on,29,0,5,,,,,,,,0,,,64,0
27599,note_on,0,0,21,,,,,,,,15,,,74,0
27599,note_on,29,0,6,,,,,,,,1,,,55,0
27599,note_on,29,0,14,,,,,,,,10,,,64,0
27599,note_on,29,0,11,,,,,,,,6,,,43,0
27599,note_on,0,0,21,,,,,,,,15,,,70,0
27599,note_on,119,0,17,,,,,,,,11,,,74,0
27599,note_on,0,0,21,,,,,,,,15,,,65,0
27599,note_on,29,0,21,,,,,,,,15,,,55,0
27600,note_on,1,0,7,,,,,,,,2,,,74,72
27600,note_on,1,0,18,,,,,,,,12,,,65,72
27600,note_on,1,0,16,,,,,,,,10,,,57,72
27600,note_on,1,0,6,,,,,,,,1,,,57,72
27600,note_on,1,0,14,,,,,,,,10,,,65,72
27600,note_on,0,0,21,,,,,,,,15,,,69,72
27600,note_on,0,0,21,,,,,,,,15,,,65,72
27600,note_on,1,0,5,,,,,,,,0,,,74,72
27600,note_on,0,0,5,,,,,,,,0,,,65,72
27600,note_on,1,0,8,,,,,,,,3,,,65,72
27600,note_on,0,0,21,,,,,,,,15,,,74,72
27600,note_on,1,0,20,,,,,,,,14,,,57,72
27600,note_on,1,0,21,,,,,,,,15,,,57,72
27600,note_on,1,0,17,,,,,,,,11,,,74,72
27600,note_on,1,0,11,,,,,,,,6,,,45,72
27659,note_on,59,0,21,,,,,,,,15,,,69,0
27659,note_on,59,0,14,,,,,,,,10,,,65,0
27659,note_on,59,0,8,,,,,,,,3,,,65,0
27659,note_on,0,0,21,,,,,,,,15,,,57,0
27659,note_on,59,0,18,,,,,,,,12,,,65,0
27659,note_on,0,0,21,,,,,,,,15,,,74,0
27659,note_on,0,0,21,,,,,,,,15,,,65,0
27659,note_on,59,0,17,,,,,,,,11,,,74,0
27659,note_on,59,0,20,,,,,,,,14,,,57,0
27659,note_on,59,0,5,,,,,,,,0,,,65,0
27659,note_on,0,0,5,,,,,,,,0,,,74,0
27659,note_on,59,0,7,,,,,,,,2,,,74,0
27659,note_on,59,0,6,,,,,,,,1,,,57,0
27659,note_on,59,0,11,,,,,,,,6,,,45,0
27659,note_on,59,0,16,,,,,,,,10,,,57,0
27660,note_on,1,0,21,,,,,,,,15,,,58,72
27660,note_on,0,0,21,,,,,,,,15,,,73,72
27660,note_on,0,0,21,,,,,,,,15,,,65,72
27660,note_on,0,0,21,,,,,,,,15,,,69,72
27660,note_on,1,0,5,,,,,,,,0,,,73,72
27660,note_on,0,0,5,,,,,,,,0,,,64,72
27660,note_on,1,0,8,,,,,,,,3,,,64,72
27660,note_on,1,0,7,,,,,,,,2,,,73,72
27660,note_on,1,0,6,,,,,,,,1,,,58,72
27660,note_on,1,0,20,,,,,,,,14,,,58,72
27660,note_on,1,0,17,,,,,,,,11,,,73,72
27660,note_on,1,0,14,,,,,,,,10,,,64,72
27660,note_on,1,0,11,,,,,,,,6,,,46,72
27660,note_on,1,0,18,,,,,,,,12,,,64,72
27660,note_on,1,0,16,,,,,,,,10,,,58,72
27689,note_on,29,0,20,,,,,,,,14,,,58,0
27689,note_on,0,0,5,,,,,,,,0,,,73,0
27689,note_on,29,0,5,,,,,,,,0,,,64,0
27689,note_on,29,0,7,,,,,,,,2,,,73,0
27689,note_on,29,0,6,,,,,,,,1,,,58,0
27689,note_on,29,0,21,,,,,,,,15,,,58,0
27689,note_on,29,0,17,,,,,,,,11,,,73,0
27689,note_on,29,0,11,,,,,,,,6,,,46,0
27689,note_on,29,0,18,,,,,,,,12,,,64,0
27689,note_on,29,0,14,,,,,,,,10,,,64,0
27689,note_on,29,0,8,,,,,,,,3,,,64,0
27689,note_on,29,0,16,,,,,,,,10,,,58,0
27690,note_on,1,0,11,,,,,,,,6,,,45,72
27690,note_on,1,0,21,,,,,,,,15,,,57,72
27690,note_on,1,0,14,,,,,,,,10,,,65,72
27690,note_on,1,0,5,,,,,,,,0,,,74,72
27690,note_on,1,0,8,,,,,,,,3,,,65,72
27690,note_on,1,0,16,,,,,,,,10,,,57,72
27690,note_on,1,0,20,,,,,,,,14,,,57,72
27690,note_on,1,0,17,,,,,,,,11,,,74,72
27690,note_on,0,0,5,,,,,,,,0,,,65,72
27690,note_on,1,0,18,,,,,,,,12,,,65,72
27690,note_on,1,0,6,,,,,,,,1,,,57,72
27690,note_on,1,0,7,,,,,,,,2,,,74,72
27719,note_on,29,0,17,,,,,,,,11,,,74,0
27719,note_on,29,0,7,,,,,,,,2,,,74,0
27719,note_on,29,0,14,,,,,,,,10,,,65,0
27719,note_on,29,0,8,,,,,,,,3,,,65,0
27719,note_on,29,0,6,,,,,,,,1,,,57,0
27719,note_on,29,0,16,,,,,,,,10,,,57,0
27719,note_on,29,0,20,,,,,,,,14,,,57,0
27719,note_on,29,0,21,,,,,,,,15,,,57,0
27719,note_on,0,0,21,,,,,,,,15,,,69,0
27719,note_on,0,0,21,,,,,,,,15,,,65,0
27719,note_on,0,0,21,,,,,,,,15,,,73,0
27719,note_on,29,0,11,,,,,,,,6,,,45,0
27719,note_on,29,0,5,,,,,,,,0,,,65,0
27719,note_on,0,0,5,,,,,,,,0,,,74,0
27719,note_on,29,0,18,,,,,,,,12,,,65,0
27720,note_on,0,0,5,,,,,,,,0,,,67,72
27720,note_on,1,0,21,,,,,,,,15,,,67,72
27720,note_on,0,0,21,,,,,,,,15,,,55,72
27720,note_on,0,0,21,,,,,,,,15,,,70,72
27720,note_on,0,0,21,,,,,,,,15,,,76,72
27720,note_on,1,0,16,,,,,,,,10,,,55,72
27720,note_on,1,0,18,,,,,,,,12,,,67,72
27720,note_on,1,0,20,,,,,,,,14,,,55,72
27720,note_on,1,0,14,,,,,,,,10,,,67,72
27720,note_on,1,0,7,,,,,,,,2,,,76,72
27720,note_on,1,0,17,,,,,,,,11,,,76,72
27720,note_on,1,0,8,,,,,,,,3,,,67,72
27720,note_on,1,0,5,,,,,,,,0,,,77,72
27720,note_on,1,0,11,,,,,,,,6,,,43,72
27720,note_on,1,0,6,,,,,,,,1,,,55,72
27749,note_on,29,0,20,,,,,,,,14,,,55,0
27749,note_on,29,0,11,,,,,,,,6,,,43,0
27749,note_on,29,0,21,,,,,,,,15,,,55,0
27749,note_on,29,0,16,,,,,,,,10,,,55,0
27749,note_on,29,0,6,,,,,,,,1,,,55,0
27750,note_on,1,0,16,,,,,,,,10,,,53,72
27750,note_on,1,0,20,,,,,,,,14,,,53,72
27750,note_on,1,0,21,,,,,,,,15,,,53,72
27750,note_on,1,0,6,,,,,,,,1,,,53,72
27750,note_on,1,0,11,,,,,,,,6,,,41,72
27779,note_on,59,0,14,,,,,,,,10,,,67,0
27779,note_on,29,0,6,,,,,,,,1,,,53,0
27779,note_on,59,0,5,,,,,,,,0,,,67,0
27779,note_on,59,0,18,,,,,,,,12,,,67,0
27779,note_on,29,0,11,,,,,,,,6,,,41,0
27779,note_on,29,0,21,,,,,,,,15,,,53,0
27779,note_on,29,0,16,,,,,,,,10,,,53,0
27779,note_on,29,0,20,,,,,,,,14,,,53,0
27779,note_on,59,0,8,,,,,,,,3,,,67,0
27780,note_on,1,0,5,,,,,,,,0,,,65,72
27780,note_on,1,0,18,,,,,,,,12,,,65,72
27780,note_on,1,0,16,,,,,,,,10,,,52,72
27780,note_on,1,0,20,,,,,,,,14,,,52,72
27780,note_on,1,0,8,,,,,,,,3,,,65,72
27780,note_on,1,0,6,,,,,,,,1,,,52,72
27780,note_on,1,0,14,,,,,,,,10,,,65,72
27780,note_on,1,0,21,,,,,,,,15,,,52,72
27780,note_on,1,0,11,,,,,,,,6,,,40,72
27795,note_on,15,0,14,,,,,,,,10,,,67,72
27795,note_on,15,0,18,,,,,,,,12,,,67,72
27809,note_on,29,0,8,,,,,,,,3,,,65,0
27809,note_on,14,0,14,,,,,,,,10,,,65,0
27809,note_on,14,0,18,,,,,,,,12,,,65,0
27809,note_on,29,0,6,,,,,,,,1,,,52,0
27809,note_on,29,0,16,,,,,,,,10,,,52,0
27809,note_on,29,0,20,,,,,,,,14,,,52,0
27809,note_on,29,0,11,,,,,,,,6,,,40,0
27809,note_on,29,0,21,,,,,,,,15,,,52,0
27809,note_on,29,0,5,,,,,,,,0,,,65,0
27810,note_on,1,0,16,,,,,,,,10,,,50,72
27810,note_on,1,0,21,,,,,,,,15,,,50,72
27810,note_on,1,0,8,,,,,,,,3,,,67,72
27810,note_on,1,0,6,,,,,,,,1,,,50,72
27810,note_on,1,0,20,,,,,,,,14,,,50,72
27810,note_on,1,0,5,,,,,,,,0,,,67,72
27810,note_on,1,0,11,,,,,,,,6,,,38,72
27824,note_on,15,0,14,,,,,,,,10,,,67,0
27824,note_on,15,0,18,,,,,,,,12,,,67,0
27839,note_on,0,0,21,,,,,,,,15,,,67,0
27839,note_on,29,0,5,,,,,,,,0,,,67,0
27839,note_on,29,0,20,,,,,,,,14,,,50,0
27839,note_on,29,0,11,,,,,,,,6,,,38,0
27839,note_on,29,0,6,,,,,,,,1,,,50,0
27839,note_on,29,0,21,,,,,,,,15,,,50,0
27839,note_on,0,0,21,,,,,,,,15,,,76,0
27839,note_on,0,0,21,,,,,,,,15,,,70,0
27839,note_on,29,0,8,,,,,,,,3,,,67,0
27839,note_on,29,0,16,,,,,,,,10,,,50,0
27840,note_on,1,0,21,,,,,,,,15,,,76,72
27840,note_on,16,0,18,,,,,,,,12,,,69,72
27840,note_on,1,0,11,,,,,,,,6,,,37,72
27840,note_on,0,0,21,,,,,,,,15,,,67,72
27840,note_on,0,0,21,,,,,,,,15,,,49,72
27840,note_on,0,0,21,,,,,,,,15,,,69,72
27840,note_on,1,0,16,,,,,,,,10,,,49,72
27840,note_on,1,0,6,,,,,,,,1,,,49,72
27840,note_on,16,0,14,,,,,,,,10,,,69,72
27840,note_on,1,0,8,,,,,,,,3,,,69,72
27840,note_on,1,0,20,,,,,,,,14,,,49,72
27840,note_on,1,0,5,,,,,,,,0,,,69,72
27899,note_on,59,0,14,,,,,,,,10,,,69,0
27899,note_on,59,0,11,,,,,,,,6,,,37,0
27899,note_on,59,0,20,,,,,,,,14,,,49,0
27899,note_on,59,0,6,,,,,,,,1,,,49,0
27899,note_on,59,0,5,,,,,,,,0,,,69,0
27899,note_on,59,0,21,,,,,,,,15,,,49,0
27899,note_on,59,0,18,,,,,,,,12,,,69,0
27899,note_on,59,0,8,,,,,,,,3,,,69,0
27899,note_on,59,0,16,,,,,,,,10,,,49,0
27900,note_on,1,0,21,,,,,,,,15,,,52,72
27900,note_on,1,0,11,,,,,,,,6,,,40,72
27900,note_on,1141,0,12,,,,,,,,7,,,69,76
27900,note_on,0,0,12,,,,,,,,7,,,57,76
27900,note_on,1,0,14,,,,,,,,10,,,67,72
27900,note_on,1,0,18,,,,,,,,12,,,67,72
27900,note_on,1,0,8,,,,,,,,3,,,67,72
27900,note_on,1141,0,13,,,,,,,,8,,,45,72
27900,note_on,1,0,6,,,,,,,,1,,,52,72
27900,note_on,1,0,16,,,,,,,,10,,,52,72
27900,note_on,1,0,5,,,,,,,,0,,,67,72
27900,note_on,1,0,20,,,,,,,,14,,,52,72
27959,note_on,0,0,21,,,,,,,,15,,,67,0
27959,note_on,0,0,21,,,,,,,,15,,,76,0
27959,note_on,59,0,6,,,,,,,,1,,,52,0
27959,note_on,239,0,7,,,,,,,,2,,,76,0
27959,note_on,59,0,13,,,,,,,,8,,,45,0
27959,note_on,59,0,21,,,,,,,,15,,,52,0
27959,note_on,239,0,17,,,,,,,,11,,,76,0
27959,note_on,0,0,21,,,,,,,,15,,,69,0
27959,note_on,59,0,20,,,,,,,,14,,,52,0
27959,note_on,59,0,8,,,,,,,,3,,,67,0
27959,note_on,59,0,5,,,,,,,,0,,,67,0
27959,note_on,0,0,5,,,,,,,,0,,,77,0
27959,note_on,59,0,16,,,,,,,,10,,,52,0
27959,note_on,59,0,14,,,,,,,,10,,,67,0
27959,note_on,59,0,18,,,,,,,,12,,,67,0
27959,note_on,59,0,11,,,,,,,,6,,,40,0
27959,note_on,59,0,12,,,,,,,,7,,,57,0
27959,note_on,0,0,12,,,,,,,,7,,,69,0
27960,note_on,1,0,8,,,,,,,,3,,,65,72
27960,note_on,0,0,21,,,,,,,,15,,,65,72
27960,note_on,1,0,20,,,,,,,,14,,,57,72
27960,note_on,1,0,13,,,,,,,,8,,,45,72
27960,note_on,1,0,17,,,,,,,,11,,,74,72
27960,note_on,1,0,18,,,,,,,,12,,,65,72
27960,note_on,1,0,5,,,,,,,,0,,,65,72
27960,note_on,1,0,7,,,,,,,,2,,,74,72
27960,note_on,1,0,6,,,,,,,,1,,,57,72
27960,note_on,1,0,16,,,,,,,,10,,,57,72
27960,note_on,1,0,11,,,,,,,,6,,,45,72
27960,note_on,1,0,14,,,,,,,,10,,,65,72
27960,note_on,1,0,21,,,,,,,,15,,,57,72
27960,note_on,0,0,21,,,,,,,,15,,,74,72
27960,note_on,0,0,12,,,,,,,,7,,,57,76
27960,note_on,0,0,5,,,,,,,,0,,,74,72
27960,note_on,1,0,12,,,,,,,,7,,,69,76
28019,note_on,59,0,5,,,,,,,,0,,,74,0
28019,note_on,59,0,20,,,,,,,,14,,,57,0
28019,note_on,59,0,7,,,,,,,,2,,,74,0
28019,note_on,59,0,8,,,,,,,,3,,,65,0
28019,note_on,59,0,16,,,,,,,,10,,,57,0
28019,note_on,0,0,21,,,,,,,,15,,,57,0
28019,note_on,0,0,21,,,,,,,,15,,,74,0
28019,note_on,59,0,14,,,,,,,,10,,,65,0
28019,note_on,59,0,17,,,,,,,,11,,,74,0
28019,note_on,59,0,21,,,,,,,,15,,,65,0
28019,note_on,59,0,13,,,,,,,,8,,,45,0
28019,note_on,59,0,11,,,,,,,,6,,,45,0
28019,note_on,0,0,5,,,,,,,,0,,,65,0
28019,note_on,59,0,12,,,,,,,,7,,,57,0
28019,note_on,0,0,12,,,,,,,,7,,,69,0
28019,note_on,59,0,18,,,,,,,,12,,,65,0
28019,note_on,59,0,6,,,,,,,,1,,,57,0
28020,note_on,1,0,17,,,,,,,,11,,,73,72
28020,note_on,0,0,5,,,,,,,,0,,,73,72
28020,note_on,1,0,7,,,,,,,,2,,,73,72
28020,note_on,1,0,11,,,,,,,,6,,,43,72
28020,note_on,1,0,20,,,,,,,,14,,,55,72
28020,note_on,0,0,21,,,,,,,,15,,,73,72
28020,note_on,1,0,8,,,,,,,,3,,,64,72
28020,note_on,1,0,12,,,,,,,,7,,,69,76
28020,note_on,0,0,21,,,,,,,,15,,,69,72
28020,note_on,1,0,21,,,,,,,,15,,,55,72
28020,note_on,0,0,12,,,,,,,,7,,,57,76
28020,note_on,1,0,16,,,,,,,,10,,,55,72
28020,note_on,1,0,5,,,,,,,,0,,,64,72
28020,note_on,1,0,14,,,,,,,,10,,,64,72
28020,note_on,1,0,18,,,,,,,,12,,,64,72
28020,note_on,1,0,6,,,,,,,,1,,,55,72
28020,note_on,1,0,13,,,,,,,,8,,,45,72
28079,note_on,59,0,11,,,,,,,,6,,,43,0
28079,note_on,59,0,7,,,,,,,,2,,,73,0
28079,note_on,59,0,5,,,,,,,,0,,,73,0
28079,note_on,59,0,13,,,,,,,,8,,,45,0
28079,note_on,0,0,21,,,,,,,,15,,,55,0
28079,note_on,0,0,21,,,,,,,,15,,,69,0
28079,note_on,59,0,21,,,,,,,,15,,,73,0
28079,note_on,59,0,20,,,,,,,,14,,,55,0
28079,note_on,59,0,16,,,,,,,,10,,,55,0
28079,note_on,59,0,18,,,,,,,,12,,,64,0
28079,note_on,0,0,12,,,,,,,,7,,,69,0
28079,note_on,59,0,12,,,,,,,,7,,,57,0
28079,note_on,59,0,8,,,,,,,,3,,,64,0
28079,note_on,59,0,17,,,,,,,,11,,,73,0
28079,note_on,59,0,6,,,,,,,,1,,,55,0
28079,note_on,59,0,14,,,,,,,,10,,,64,0
28079,note_on,0,0,5,,,,,,,,0,,,64,0
28080,note_on,1,0,14,,,,,,,,10,,,62,72
28080,note_on,1,0,7,,,,,,,,2,,,74,72
28080,note_on,0,0,21,,,,,,,,15,,,74,72
28080,note_on,0,0,21,,,,,,,,15,,,69,72
28080,note_on,1,0,21,,,,,,,,15,,,53,72
28080,note_on,1,0,20,,,,,,,,14,,,53,72
28080,note_on,1,0,6,,,,,,,,1,,,53,72
28080,note_on,0,0,6,,,,,,,,1,,,62,72
28080,note_on,841,0,15,,,,,,,,10,,,62,72
28080,note_on,0,0,12,,,,,,,,7,,,62,76
28080,note_on,1,0,12,,,,,,,,7,,,69,76
28080,note_on,841,0,9,,,,,,,,4,,,62,72
28080,note_on,1,0,18,,,,,,,,12,,,62,72
28080,note_on,1,0,17,,,,,,,,11,,,74,72
28080,note_on,1,0,8,,,,,,,,3,,,62,72
28080,note_on,1,0,5,,,,,,,,0,,,74,72
28080,note_on,0,0,5,,,,,,,,0,,,62,72
28080,note_on,841,0,19,,,,,,,,13,,,62,72
28080,note_on,1,0,16,,,,,,,,10,,,53,72
28080,note_on,1,0,13,,,,,,,,8,,,50,72
28080,note_on,1,0,11,,,,,,,,6,,,41,72
28109,note_on,29,0,21,,,,,,,,15,,,53,0
28109,note_on,29,0,6,,,,,,,,1,,,53,0
28109,note_on,29,0,16,,,,,,,,10,,,53,0
28109,note_on,29,0,20,,,,,,,,14,,,53,0
28109,note_on,29,0,11,,,,,,,,6,,,41,0
28110,note_on,1,0,21,,,,,,,,15,,,52,72
28110,note_on,1,0,11,,,,,,,,6,,,40,72
28110,note_on,1,0,20,,,,,,,,14,,,52,72
28110,note_on,1,0,16,,,,,,,,10,,,52,72
28110,note_on,1,0,6,,,,,,,,1,,,52,72
28139,note_on,29,0,11,,,,,,,,6,,,40,0
28139,note_on,29,0,20,,,,,,,,14,,,52,0
28139,note_on,29,0,16,,,,,,,,10,,,52,0
28139,note_on,29,0,6,,,,,,,,1,,,52,0
28139,note_on,29,0,21,,,,,,,,15,,,52,0
28140,note_on,1,0,16,,,,,,,,10,,,50,72
28140,note_on,1,0,6,,,,,,,,1,,,50,72
28140,note_on,1,0,21,,,,,,,,15,,,50,72
28140,note_on,1,0,20,,,,,,,,14,,,50,72
28140,note_on,1,0,11,,,,,,,,6,,,38,72
28169,note_on,29,0,6,,,,,,,,1,,,50,0
28169,note_on,89,0,18,,,,,,,,12,,,62,0
28169,note_on,89,0,8,,,,,,,,3,,,62,0
28169,note_on,29,0,20,,,,,,,,14,,,50,0
28169,note_on,89,0,14,,,,,,,,10,,,62,0
28169,note_on,29,0,11,,,,,,,,6,,,38,0
28169,note_on,89,0,5,,,,,,,,0,,,62,0
28169,note_on,29,0,16,,,,,,,,10,,,50,0
28169,note_on,29,0,21,,,,,,,,15,,,50,0
28170,note_on,1,0,11,,,,,,,,6,,,36,72
28170,note_on,1,0,20,,,,,,,,14,,,48,72
28170,note_on,1,0,21,,,,,,,,15,,,48,72
28170,note_on,1,0,18,,,,,,,,12,,,64,72
28170,note_on,1,0,5,,,,,,,,0,,,64,72
28170,note_on,1,0,14,,,,,,,,10,,,64,72
28170,note_on,1,0,16,,,,,,,,10,,,48,72
28170,note_on,1,0,8,,,,,,,,3,,,64,72
28170,note_on,1,0,6,,,,,,,,1,,,48,72
28199,note_on,29,0,20,,,,,,,,14,,,48,0
28199,note_on,0,0,12,,,,,,,,7,,,69,0
28199,note_on,0,0,21,,,,,,,,15,,,69,0
28199,note_on,0,0,21,,,,,,,,15,,,74,0
28199,note_on,29,0,18,,,,,,,,12,,,64,0
28199,note_on,119,0,12,,,,,,,,7,,,62,0
28199,note_on,29,0,11,,,,,,,,6,,,36,0
28199,note_on,119,0,17,,,,,,,,11,,,74,0
28199,note_on,29,0,14,,,,,,,,10,,,64,0
28199,note_on,29,0,5,,,,,,,,0,,,64,0
28199,note_on,29,0,16,,,,,,,,10,,,48,0
28199,note_on,29,0,8,,,,,,,,3,,,64,0
28199,note_on,29,0,6,,,,,,,,1,,,48,0
28199,note_on,29,0,21,,,,,,,,15,,,48,0
28199,note_on,119,0,7,,,,,,,,2,,,74,0
28199,note_on,119,0,13,,,,,,,,8,,,50,0
28199,note_on,0,0,5,,,,,,,,0,,,74,0
28200,note_on,1,0,18,,,,,,,,12,,,66,72
28200,note_on,1,0,20,,,,,,,,14,,,47,72
28200,note_on,1,0,14,,,,,,,,10,,,66,72
28200,note_on,0,0,21,,,,,,,,15,,,62,72
28200,note_on,0,0,21,,,,,,,,15,,,66,72
28200,note_on,1,0,11,,,,,,,,6,,,35,72
28200,note_on,1,0,16,,,,,,,,10,,,47,72
28200,note_on,1,0,5,,,,,,,,0,,,66,72
28200,note_on,1,0,21,,,,,,,,15,,,47,72
28200,note_on,1,0,8,,,,,,,,3,,,66,72
28200,note_on,1,0,6,,,,,,,,1,,,47,72
28259,note_on,59,0,6,,,,,,,,1,,,62,0
28259,note_on,0,0,21,,,,,,,,15,,,62,0
28259,note_on,59,0,14,,,,,,,,10,,,66,0
28259,note_on,179,0,9,,,,,,,,4,,,62,0
28259,note_on,59,0,5,,,,,,,,0,,,66,0
28259,note_on,59,0,21,,,,,,,,15,,,66,0
28259,note_on,59,0,18,,,,,,,,12,,,66,0
28259,note_on,179,0,15,,,,,,,,10,,,62,0
28259,note_on,179,0,19,,,,,,,,13,,,62,0
28259,note_on,59,0,8,,,,,,,,3,,,66,0
28260,note_on,1,0,14,,,,,,,,10,,,68,72
28260,note_on,1,0,9,,,,,,,,4,,,62,72
28260,note_on,1,0,8,,,,,,,,3,,,68,72
28260,note_on,1,0,18,,,,,,,,12,,,68,72
28260,note_on,1,0,6,,,,,,,,1,,,62,72
28260,note_on,0,0,21,,,,,,,,15,,,62,72
28260,note_on,1,0,5,,,,,,,,0,,,68,72
28260,note_on,1,0,15,,,,,,,,10,,,62,72
28260,note_on,1,0,21,,,,,,,,15,,,68,72
28260,note_on,1,0,19,,,,,,,,13,,,62,72
28319,note_on,0,0,21,,,,,,,,15,,,68,0
28319,note_on,59,0,9,,,,,,,,4,,,62,0
28319,note_on,59,0,5,,,,,,,,0,,,68,0
28319,note_on,0,0,21,,,,,,,,15,,,47,0
28319,note_on,59,0,6,,,,,,,,1,,,62,0
28319,note_on,0,0,6,,,,,,,,1,,,47,0
28319,note_on,59,0,19,,,,,,,,13,,,62,0
28319,note_on,59,0,18,,,,,,,,12,,,68,0
28319,note_on,119,0,20,,,,,,,,14,,,47,0
28319,note_on,119,0,11,,,,,,,,6,,,35,0
28319,note_on,59,0,15,,,,,,,,10,,,62,0
28319,note_on,59,0,21,,,,,,,,15,,,62,0
28319,note_on,59,0,8,,,,,,,,3,,,68,0
28319,note_on,119,0,16,,,,,,,,10,,,47,0
28319,note_on,59,0,14,,,,,,,,10,,,68,0
28320,note_on,1,0,9,,,,,,,,4,,,60,72
28320,note_on,1,0,16,,,,,,,,10,,,48,72
28320,note_on,1,0,11,,,,,,,,6,,,36,72
28320,note_on,1,0,14,,,,,,,,10,,,69,72
28320,note_on,0,0,21,,,,,,,,15,,,64,72
28320,note_on,0,0,21,,,,,,,,15,,,69,72
28320,note_on,1,0,15,,,,,,,,10,,,60,72
28320,note_on,1,0,21,,,,,,,,15,,,48,72
28320,note_on,1,0,5,,,,,,,,0,,,69,72
28320,note_on,1,0,6,,,,,,,,1,,,60,72
28320,note_on,0,0,6,,,,,,,,1,,,48,72
28320,note_on,1,0,19,,,,,,,,13,,,60,72
28320,note_on,1,0,18,,,,,,,,12,,,69,72
28320,note_on,1,0,20,,,,,,,,14,,,48,72
28320,note_on,0,0,21,,,,,,,,15,,,60,72
28320,note_on,1,0,8,,,,,,,,3,,,69,72
28379,note_on,59,0,5,,,,,,,,0,,,69,0
28379,note_on,59,0,14,,,,,,,,10,,,69,0
28379,note_on,59,0,18,,,,,,,,12,,,69,0
28379,note_on,59,0,8,,,,,,,,3,,,69,0
28380,note_on,1,0,18,,,,,,,,12,,,64,72
28380,note_on,1,0,8,,,,,,,,3,,,64,72
28380,note_on,1,0,14,,,,,,,,10,,,64,72
28380,note_on,1,0,5,,,,,,,,0,,,64,72
28439,note_on,0,0,21,,,,,,,,15,,,64,0
28439,note_on,119,0,16,,,,,,,,10,,,48,0
28439,note_on,119,0,9,,,,,,,,4,,,60,0
28439,note_on,119,0,6,,,,,,,,1,,,48,0
28439,note_on,0,0,6,,,,,,,,1,,,60,0
28439,note_on,119,0,20,,,,,,,,14,,,48,0
28439,note_on,0,0,21,,,,,,,,15,,,69,0
28439,note_on,119,0,19,,,,,,,,13,,,60,0
28439,note_on,119,0,11,,,,,,,,6,,,36,0
28439,note_on,119,0,15,,,,,,,,10,,,60,0
28439,note_on,119,0,21,,,,,,,,15,,,60,0
28439,note_on,0,0,21,,,,,,,,15,,,48,0
28440,note_on,1,0,6,,,,,,,,1,,,65,72
28440,note_on,1,0,20,,,,,,,,14,,,50,72
28440,note_on,1,0,19,,,,,,,,13,,,65,72
28440,note_on,0,0,6,,,,,,,,1,,,50,72
28440,note_on,1,0,9,,,,,,,,4,,,65,72
28440,note_on,1,0,16,,,,,,,,10,,,50,72
28440,note_on,1,0,21,,,,,,,,15,,,50,72
28440,note_on,0,0,21,,,,,,,,15,,,69,72
28440,note_on,0,0,21,,,,,,,,15,,,72,72
28440,note_on,0,0,21,,,,,,,,15,,,64,72
28440,note_on,1,0,11,,,,,,,,6,,,38,72
28440,note_on,0,0,21,,,,,,,,15,,,65,72
28440,note_on,1,0,15,,,,,,,,10,,,65,72
28499,note_on,119,0,8,,,,,,,,3,,,64,0
28499,note_on,119,0,18,,,,,,,,12,,,64,0
28499,note_on,119,0,14,,,,,,,,10,,,64,0
28499,note_on,59,0,21,,,,,,,,15,,,64,0
28499,note_on,119,0,5,,,,,,,,0,,,64,0
28499,note_on,0,0,21,,,,,,,,15,,,69,0
28499,note_on,0,0,21,,,,,,,,15,,,72,0
28500,note_on,1,0,8,,,,,,,,3,,,62,72
28500,note_on,1,0,18,,,,,,,,12,,,62,72
28500,note_on,1,0,5,,,,,,,,0,,,62,72
28500,note_on,0,0,21,,,,,,,,15,,,71,72
28500,note_on,1,0,14,,,,,,,,10,,,62,72
28500,note_on,1,0,21,,,,,,,,15,,,62,72
28529,note_on,29,0,5,,,,,,,,0,,,62,0
28529,note_on,29,0,14,,,,,,,,10,,,62,0
28529,note_on,29,0,18,,,,,,,,12,,,62,0
28529,note_on,29,0,8,,,,,,,,3,,,62,0
28529,note_on,29,0,21,,,,,,,,15,,,71,0
28529,note_on,0,0,21,,,,,,,,15,,,62,0
28530,note_on,1,0,14,,,,,,,,10,,,60,72
28530,note_on,1,0,18,,,,,,,,12,,,60,72
28530,note_on,1,0,5,,,,,,,,0,,,60,72
28530,note_on,1,0,8,,,,,,,,3,,,60,72
28530,note_on,0,0,21,,,,,,,,15,,,69,72
28530,note_on,1,0,21,,,,,,,,15,,,60,72
28559,note_on,29,0,18,,,,,,,,12,,,60,0
28559,note_on,0,0,6,,,,,,,,1,,,65,0
28559,note_on,0,0,21,,,,,,,,15,,,60,0
28559,note_on,0,0,21,,,,,,,,15,,,65,0
28559,note_on,0,0,21,,,,,,,,15,,,50,0
28559,note_on,29,0,21,,,,,,,,15,,,69,0
28559,note_on,29,0,8,,,,,,,,3,,,60,0
28559,note_on,119,0,20,,,,,,,,14,,,50,0
28559,note_on,119,0,6,,,,,,,,1,,,50,0
28559,note_on,119,0,19,,,,,,,,13,,,65,0
28559,note_on,119,0,15,,,,,,,,10,,,65,0
28559,note_on,29,0,14,,,,,,,,10,,,60,0
28559,note_on,119,0,16,,,,,,,,10,,,50,0
28559,note_on,119,0,9,,,,,,,,4,,,65,0
28559,note_on,29,0,5,,,,,,,,0,,,60,0
28559,note_on,119,0,11,,,,,,,,6,,,38,0
28560,note_on,1,0,19,,,,,,,,13,,,56,72
28560,note_on,1,0,15,,,,,,,,10,,,56,72
28560,note_on,1,0,9,,,,,,,,4,,,56,72
28560,note_on,1,0,5,,,,,,,,0,,,59,72
28560,note_on,0,0,6,,,,,,,,1,,,52,72
28560,note_on,1,0,6,,,,,,,,1,,,56,72
28560,note_on,1,0,14,,,,,,,,10,,,59,72
28560,note_on,1,0,20,,,,,,,,14,,,52,72
28560,note_on,1,0,21,,,,,,,,15,,,52,72
28560,note_on,0,0,21,,,,,,,,15,,,68,72
28560,note_on,1,0,16,,,,,,,,10,,,52,72
28560,note_on,1,0,11,,,,,,,,6,,,40,72
28560,note_on,0,0,21,,,,,,,,15,,,71,72
28560,note_on,1,0,18,,,,,,,,12,,,59,72
28560,note_on,1,0,8,,,,,,,,3,,,59,72
28620,note_on,421,0,7,,,,,,,,2,,,71,72
28620,note_on,421,0,17,,,,,,,,11,,,71,72
28620,note_on,60,0,5,,,,,,,,0,,,71,72
28679,note_on,0,0,5,,,,,,,,0,,,59,0
28679,note_on,119,0,18,,,,,,,,12,,,59,0
28679,note_on,119,0,16,,,,,,,,10,,,52,0
28679,note_on,119,0,11,,,,,,,,6,,,40,0
28679,note_on,119,0,14,,,,,,,,10,,,59,0
28679,note_on,119,0,20,,,,,,,,14,,,52,0
28679,note_on,119,0,21,,,,,,,,15,,,71,0
28679,note_on,0,0,21,,,,,,,,15,,,68,0
28679,note_on,0,0,21,,,,,,,,15,,,52,0
28679,note_on,0,0,6,,,,,,,,1,,,56,0
28679,note_on,119,0,6,,,,,,,,1,,,52,0
28679,note_on,59,0,7,,,,,,,,2,,,71,0
28679,note_on,59,0,17,,,,,,,,11,,,71,0
28679,note_on,59,0,5,,,,,,,,0,,,71,0
28679,note_on,119,0,8,,,,,,,,3,,,59,0
28680,note_on,1,0,5,,,,,,,,0,,,71,72
28680,note_on,1,0,17,,,,,,,,11,,,71,72
28680,note_on,1,0,7,,,,,,,,2,,,71,72
28739,note_on,179,0,19,,,,,,,,13,,,56,0
28739,note_on,179,0,15,,,,,,,,10,,,56,0
28739,note_on,59,0,5,,,,,,,,0,,,71,0
28739,note_on,59,0,17,,,,,,,,11,,,71,0
28739,note_on,59,0,7,,,,,,,,2,,,71,0
28739,note_on,179,0,9,,,,,,,,4,,,56,0
28740,note_on,61,0,21,,,,,,,,15,,,52,72
28740,note_on,0,0,21,,,,,,,,15,,,68,72
28740,note_on,61,0,16,,,,,,,,10,,,52,72
28740,note_on,1,0,15,,,,,,,,10,,,56,72
28740,note_on,1,0,17,,,,,,,,11,,,71,72
28740,note_on,0,0,6,,,,,,,,1,,,52,72
28740,note_on,61,0,6,,,,,,,,1,,,55,72
28740,note_on,1,0,5,,,,,,,,0,,,71,72
28740,note_on,1,0,9,,,,,,,,4,,,56,72
28740,note_on,1,0,7,,,,,,,,2,,,71,72
28740,note_on,61,0,11,,,,,,,,6,,,40,72
28740,note_on,0,0,21,,,,,,,,15,,,71,72
28740,note_on,1,0,19,,,,,,,,13,,,56,72
28740,note_on,61,0,20,,,,,,,,14,,,52,72
28799,note_on,59,0,20,,,,,,,,14,,,52,0
28799,note_on,0,0,21,,,,,,,,15,,,52,0
28799,note_on,59,0,11,,,,,,,,6,,,40,0
28799,note_on,0,0,21,,,,,,,,15,,,68,0
28799,note_on,59,0,9,,,,,,,,4,,,56,0
28799,note_on,59,0,21,,,,,,,,15,,,71,0
28799,note_on,59,0,15,,,,,,,,10,,,56,0
28799,note_on,59,0,16,,,,,,,,10,,,52,0
28799,note_on,0,0,6,,,,,,,,1,,,55,0
28799,note_on,59,0,6,,,,,,,,1,,,52,0
28799,note_on,59,0,17,,,,,,,,11,,,71,0
28799,note_on,59,0,5,,,,,,,,0,,,71,0
28799,note_on,59,0,7,,,,,,,,2,,,71,0
28799,note_on,59,0,19,,,,,,,,13,,,56,0
28800,note_on,1,0,7,,,,,,,,2,,,72,72
28800,note_on,0,0,21,,,,,,,,15,,,72,72
28800,note_on,0,0,21,,,,,,,,15,,,64,72
28800,note_on,1,0,19,,,,,,,,13,,,57,72
28800,note_on,1,0,11,,,,,,,,6,,,45,72
28800,note_on,1,0,15,,,,,,,,10,,,57,72
28800,note_on,1,0,21,,,,,,,,15,,,57,72
28800,note_on,1,0,16,,,,,,,,10,,,57,72
28800,note_on,1,0,9,,,,,,,,4,,,57,72
28800,note_on,1,0,6,,,,,,,,1,,,57,72
28800,note_on,1,0,17,,,,,,,,11,,,72,72
28800,note_on,1,0,5,,,,,,,,0,,,72,72
28800,note_on,1,0,20,,,,,,,,14,,,57,72
28829,note_on,29,0,5,,,,,,,,0,,,72,0
28829,note_on,29,0,17,,,,,,,,11,,,72,0
28829,note_on,29,0,7,,,,,,,,2,,,72,0
28830,note_on,1,0,17,,,,,,,,11,,,74,72
28830,note_on,1,0,7,,,,,,,,2,,,74,72
28830,note_on,1,0,5,,,,,,,,0,,,74,72
28859,note_on,29,0,17,,,,,,,,11,,,74,0
28859,note_on,29,0,7,,,,,,,,2,,,74,0
28859,note_on,29,0,5,,,,,,,,0,,,74,0
28860,note_on,181,0,14,,,,,,,,10,,,64,72
28860,note_on,181,0,8,,,,,,,,3,,,64,72
28860,note_on,0,0,5,,,,,,,,0,,,64,72
28860,note_on,1,0,5,,,,,,,,0,,,72,72
28860,note_on,1,0,7,,,,,,,,2,,,72,72
28860,note_on,1,0,17,,,,,,,,11,,,72,72
28860,note_on,181,0,18,,,,,,,,12,,,64,72
28889,note_on,29,0,17,,,,,,,,11,,,72,0
28889,note_on,29,0,5,,,,,,,,0,,,72,0
28889,note_on,29,0,7,,,,,,,,2,,,72,0
28890,note_on,1,0,7,,,,,,,,2,,,70,72
28890,note_on,1,0,17,,,,,,,,11,,,71,72
28890,note_on,1,0,5,,,,,,,,0,,,71,72
28919,note_on,29,0,7,,,,,,,,2,,,70,0
28919,note_on,59,0,18,,,,,,,,12,,,64,0
28919,note_on,119,0,19,,,,,,,,13,,,57,0
28919,note_on,119,0,9,,,,,,,,4,,,57,0
28919,note_on,119,0,15,,,,,,,,10,,,57,0
28919,note_on,59,0,8,,,,,,,,3,,,64,0
28919,note_on,29,0,17,,,,,,,,11,,,71,0
28919,note_on,59,0,14,,,,,,,,10,,,64,0
28919,note_on,29,0,5,,,,,,,,0,,,71,0
28919,note_on,0,0,5,,,,,,,,0,,,64,0
28920,note_on,1,0,17,,,,,,,,11,,,72,72
28920,note_on,1,0,7,,,,,,,,2,,,72,72
28920,note_on,1,0,14,,,,,,,,10,,,69,72
28920,note_on,1,0,8,,,,,,,,3,,,69,72
28920,note_on,1,0,18,,,,,,,,12,,,69,72
28920,note_on,0,0,5,,,,,,,,0,,,69,72
28920,note_on,1,0,5,,,,,,,,0,,,72,72
28949,note_on,29,0,5,,,,,,,,0,,,72,0
28949,note_on,29,0,7,,,,,,,,2,,,72,0
28949,note_on,149,0,16,,,,,,,,10,,,57,0
28949,note_on,149,0,6,,,,,,,,1,,,57,0
28949,note_on,149,0,11,,,,,,,,6,,,45,0
28949,note_on,149,0,21,,,,,,,,15,,,57,0
28949,note_on,149,0,20,,,,,,,,14,,,57,0
28949,note_on,29,0,17,,,,,,,,11,,,72,0
28950,note_on,1,0,16,,,,,,,,10,,,55,72
28950,note_on,1,0,7,,,,,,,,2,,,74,72
28950,note_on,1,0,17,,,,,,,,11,,,74,72
28950,note_on,1,0,5,,,,,,,,0,,,74,72
28950,note_on,1,0,11,,,,,,,,6,,,43,72
28950,note_on,1,0,20,,,,,,,,14,,,55,72
28950,note_on,1,0,6,,,,,,,,1,,,55,72
28950,note_on,1,0,21,,,,,,,,15,,,55,72
28979,note_on,29,0,11,,,,,,,,6,,,43,0
28979,note_on,29,0,7,,,,,,,,2,,,74,0
28979,note_on,29,0,17,,,,,,,,11,,,74,0
28979,note_on,29,0,16,,,,,,,,10,,,55,0
28979,note_on,29,0,20,,,,,,,,14,,,55,0
28979,note_on,29,0,6,,,,,,,,1,,,55,0
28979,note_on,29,0,21,,,,,,,,15,,,55,0
28979,note_on,29,0,5,,,,,,,,0,,,74,0
28980,note_on,61,0,15,,,,,,,,10,,,57,72
28980,note_on,61,0,9,,,,,,,,4,,,57,72
28980,note_on,1,0,17,,,,,,,,11,,,71,72
28980,note_on,1,0,20,,,,,,,,14,,,53,72
28980,note_on,1,0,7,,,,,,,,2,,,70,72
28980,note_on,61,0,19,,,,,,,,13,,,57,72
28980,note_on,1,0,6,,,,,,,,1,,,53,72
28980,note_on,0,0,6,,,,,,,,1,,,57,72
28980,note_on,1,0,5,,,,,,,,0,,,71,72
28980,note_on,1,0,16,,,,,,,,10,,,53,72
28980,note_on,1,0,21,,,,,,,,15,,,53,72
28980,note_on,1,0,11,,,,,,,,6,,,41,72
29009,note_on,29,0,7,,,,,,,,2,,,70,0
29009,note_on,29,0,17,,,,,,,,11,,,71,0
29009,note_on,29,0,16,,,,,,,,10,,,53,0
29009,note_on,29,0,21,,,,,,,,15,,,53,0
29009,note_on,29,0,5,,,,,,,,0,,,71,0
29009,note_on,29,0,20,,,,,,,,14,,,53,0
29009,note_on,29,0,11,,,,,,,,6,,,41,0
29009,note_on,29,0,6,,,,,,,,1,,,53,0
29010,note_on,1,0,11,,,,,,,,6,,,40,72
29010,note_on,1,0,6,,,,,,,,1,,,52,72
29010,note_on,1,0,7,,,,,,,,2,,,72,72
29010,note_on,1,0,21,,,,,,,,15,,,52,72
29010,note_on,1,0,16,,,,,,,,10,,,52,72
29010,note_on,1,0,20,,,,,,,,14,,,52,72
29010,note_on,1,0,5,,,,,,,,0,,,72,72
29010,note_on,1,0,17,,,,,,,,11,,,72,72
29039,note_on,59,0,9,,,,,,,,4,,,57,0
29039,note_on,59,0,19,,,,,,,,13,,,57,0
29039,note_on,0,0,6,,,,,,,,1,,,57,0
29039,note_on,29,0,17,,,,,,,,11,,,72,0
29039,note_on,29,0,6,,,,,,,,1,,,52,0
29039,note_on,29,0,7,,,,,,,,2,,,72,0
29039,note_on,29,0,16,,,,,,,,10,,,52,0
29039,note_on,59,0,15,,,,,,,,10,,,57,0
29039,note_on,29,0,5,,,,,,,,0,,,72,0
29039,note_on,0,0,21,,,,,,,,15,,,64,0
29039,note_on,29,0,21,,,,,,,,15,,,52,0
29039,note_on,29,0,11,,,,,,,,6,,,40,0
29039,note_on,29,0,20,,,,,,,,14,,,52,0
29039,note_on,0,0,21,,,,,,,,15,,,72,0
29040,note_on,1,0,19,,,,,,,,13,,,59,72
29040,note_on,1,0,16,,,,,,,,10,,,53,72
29040,note_on,0,0,21,,,,,,,,15,,,62,72
29040,note_on,0,0,21,,,,,,,,15,,,59,72
29040,note_on,0,0,21,,,,,,,,15,,,69,72
29040,note_on,1,0,20,,,,,,,,14,,,53,72
29040,note_on,1,0,15,,,,,,,,10,,,59,72
29040,note_on,1,0,11,,,,,,,,6,,,41,72
29040,note_on,1,0,7,,,,,,,,2,,,74,72
29040,note_on,1,0,9,,,,,,,,4,,,59,72
29040,note_on,1,0,17,,,,,,,,11,,,74,72
29040,note_on,1,0,5,,,,,,,,0,,,74,72
29040,note_on,1,0,6,,,,,,,,1,,,53,72
29040,note_on,0,0,6,,,,,,,,1,,,59,72
29040,note_on,1,0,21,,,,,,,,15,,,53,72
29069,note_on,29,0,7,,,,,,,,2,,,74,0
29069,note_on,29,0,5,,,,,,,,0,,,74,0
29069,note_on,149,0,18,,,,,,,,12,,,69,0
29069,note_on,149,0,8,,,,,,,,3,,,69,0
29069,note_on,149,0,14,,,,,,,,10,,,69,0
29069,note_on,0,0,5,,,,,,,,0,,,69,0
29069,note_on,29,0,17,,,,,,,,11,,,74,0
29070,note_on,1,0,14,,,,,,,,10,,,67,72
29070,note_on,0,0,5,,,,,,,,0,,,67,72
29070,note_on,1,0,5,,,,,,,,0,,,76,72
29070,note_on,1,0,17,,,,,,,,11,,,76,72
29070,note_on,1,0,18,,,,,,,,12,,,67,72
29070,note_on,1,0,7,,,,,,,,2,,,76,72
29070,note_on,1,0,8,,,,,,,,3,,,67,72
29099,note_on,29,0,8,,,,,,,,3,,,67,0
29099,note_on,59,0,11,,,,,,,,6,,,41,0
29099,note_on,29,0,18,,,,,,,,12,,,67,0
29099,note_on,29,0,14,,,,,,,,10,,,67,0
29099,note_on,59,0,20,,,,,,,,14,,,53,0
29099,note_on,59,0,6,,,,,,,,1,,,53,0
29099,note_on,29,0,5,,,,,,,,0,,,67,0
29099,note_on,0,0,5,,,,,,,,0,,,76,0
29099,note_on,59,0,16,,,,,,,,10,,,53,0
29099,note_on,29,0,7,,,,,,,,2,,,76,0
29099,note_on,59,0,21,,,,,,,,15,,,53,0
29099,note_on,29,0,17,,,,,,,,11,,,76,0
29100,note_on,1,0,8,,,,,,,,3,,,65,72
29100,note_on,1,0,5,,,,,,,,0,,,74,72
29100,note_on,0,0,5,,,,,,,,0,,,65,72
29100,note_on,1,0,20,,,,,,,,14,,,50,72
29100,note_on,1,0,18,,,,,,,,12,,,65,72
29100,note_on,1,0,17,,,,,,,,11,,,74,72
29100,note_on,1,0,11,,,,,,,,6,,,38,72
29100,note_on,1,0,7,,,,,,,,2,,,74,72
29100,note_on,1,0,14,,,,,,,,10,,,65,72
29100,note_on,1,0,21,,,,,,,,15,,,50,72
29100,note_on,1,0,16,,,,,,,,10,,,50,72
29100,note_on,1,0,6,,,,,,,,1,,,50,72
29129,note_on,0,0,5,,,,,,,,0,,,74,0
29129,note_on,29,0,17,,,,,,,,11,,,74,0
29129,note_on,29,0,18,,,,,,,,12,,,65,0
29129,note_on,29,0,14,,,,,,,,10,,,65,0
29129,note_on,29,0,5,,,,,,,,0,,,65,0
29129,note_on,29,0,8,,,,,,,,3,,,65,0
29129,note_on,29,0,7,,,,,,,,2,,,74,0
29130,note_on,1,0,14,,,,,,,,10,,,64,72
29130,note_on,1,0,18,,,,,,,,12,,,64,72
29130,note_on,1,0,17,,,,,,,,11,,,72,72
29130,note_on,1,0,7,,,,,,,,2,,,72,72
29130,note_on,0,0,5,,,,,,,,0,,,64,72
29130,note_on,1,0,8,,,,,,,,3,,,64,72
29130,note_on,1,0,5,,,,,,,,0,,,72,72
29159,note_on,0,0,21,,,,,,,,15,,,69,0
29159,note_on,29,0,8,,,,,,,,3,,,64,0
29159,note_on,0,0,21,,,,,,,,15,,,62,0
29159,note_on,0,0,21,,,,,,,,15,,,59,0
29159,note_on,59,0,6,,,,,,,,1,,,50,0
29159,note_on,59,0,11,,,,,,,,6,,,38,0
29159,note_on,59,0,21,,,,,,,,15,,,50,0
29159,note_on,29,0,18,,,,,,,,12,,,64,0
29159,note_on,0,0,5,,,,,,,,0,,,72,0
29159,note_on,29,0,7,,,,,,,,2,,,72,0
29159,note_on,59,0,20,,,,,,,,14,,,50,0
29159,note_on,29,0,14,,,,,,,,10,,,64,0
29159,note_on,59,0,16,,,,,,,,10,,,50,0
29159,note_on,29,0,5,,,,,,,,0,,,64,0
29159,note_on,29,0,17,,,,,,,,11,,,72,0
29160,note_on,1,0,6,,,,,,,,1,,,55,72
29160,note_on,1,0,21,,,,,,,,15,,,55,72
29160,note_on,0,0,21,,,,,,,,15,,,74,72
29160,note_on,0,0,21,,,,,,,,15,,,67,72
29160,note_on,1,0,20,,,,,,,,14,,,55,72
29160,note_on,1,0,14,,,,,,,,10,,,65,72
29160,note_on,1,0,17,,,,,,,,11,,,74,72
29160,note_on,0,0,21,,,,,,,,15,,,59,72
29160,note_on,1,0,11,,,,,,,,6,,,43,72
29160,note_on,0,0,5,,,,,,,,0,,,65,72
29160,note_on,1,0,16,,,,,,,,10,,,55,72
29160,note_on,1,0,7,,,,,,,,2,,,74,72
29160,note_on,1,0,5,,,,,,,,0,,,74,72
29160,note_on,1,0,8,,,,,,,,3,,,65,72
29160,note_on,1,0,18,,,,,,,,12,,,65,72
29189,note_on,29,0,17,,,,,,,,11,,,74,0
29189,note_on,29,0,5,,,,,,,,0,,,74,0
29189,note_on,29,0,7,,,,,,,,2,,,74,0
29190,note_on,1,0,17,,,,,,,,11,,,76,72
29190,note_on,1,0,5,,,,,,,,0,,,76,72
29190,note_on,1,0,7,,,,,,,,2,,,76,72
29219,note_on,29,0,5,,,,,,,,0,,,76,0
29219,note_on,59,0,8,,,,,,,,3,,,65,0
29219,note_on,59,0,21,,,,,,,,15,,,67,0
29219,note_on,59,0,6,,,,,,,,1,,,59,0
29219,note_on,0,0,5,,,,,,,,0,,,65,0
29219,note_on,59,0,14,,,,,,,,10,,,65,0
29219,note_on,179,0,15,,,,,,,,10,,,59,0
29219,note_on,29,0,7,,,,,,,,2,,,76,0
29219,note_on,29,0,17,,,,,,,,11,,,76,0
29219,note_on,179,0,19,,,,,,,,13,,,59,0
29219,note_on,179,0,9,,,,,,,,4,,,59,0
29219,note_on,59,0,18,,,,,,,,12,,,65,0
29220,note_on,1,0,17,,,,,,,,11,,,72,72
29220,note_on,1,0,9,,,,,,,,4,,,57,72
29220,note_on,1,0,21,,,,,,,,15,,,65,72
29220,note_on,1,0,15,,,,,,,,10,,,57,72
29220,note_on,1,0,6,,,,,,,,1,,,57,72
29220,note_on,1,0,18,,,,,,,,12,,,67,72
29220,note_on,1,0,5,,,,,,,,0,,,67,72
29220,note_on,0,0,5,,,,,,,,0,,,72,72
29220,note_on,1,0,8,,,,,,,,3,,,67,72
29220,note_on,1,0,19,,,,,,,,13,,,57,72
29220,note_on,1,0,7,,,,,,,,2,,,72,72
29220,note_on,1,0,14,,,,,,,,10,,,67,72
29249,note_on,29,0,15,,,,,,,,10,,,57,0
29249,note_on,29,0,8,,,,,,,,3,,,67,0
29249,note_on,29,0,7,,,,,,,,2,,,72,0
29249,note_on,29,0,18,,,,,,,,12,,,67,0
29249,note_on,29,0,6,,,,,,,,1,,,57,0
29249,note_on,29,0,5,,,,,,,,0,,,72,0
29249,note_on,0,0,5,,,,,,,,0,,,67,0
29249,note_on,29,0,14,,,,,,,,10,,,67,0
29249,note_on,29,0,19,,,,,,,,13,,,57,0
29249,note_on,29,0,17,,,,,,,,11,,,72,0
29249,note_on,29,0,9,,,,,,,,4,,,57,0
29250,note_on,1,0,15,,,,,,,,10,,,59,72
29250,note_on,1,0,8,,,,,,,,3,,,65,72
29250,note_on,1,0,18,,,,,,,,12,,,65,72
29250,note_on,1,0,14,,,,,,,,10,,,65,72
29250,note_on,1,0,5,,,,,,,,0,,,74,72
29250,note_on,0,0,5,,,,,,,,0,,,65,72
29250,note_on,1,0,19,,,,,,,,13,,,59,72
29250,note_on,1,0,17,,,,,,,,11,,,74,72
29250,note_on,1,0,6,,,,,,,,1,,,59,72
29250,note_on,1,0,9,,,,,,,,4,,,59,72
29250,note_on,1,0,7,,,,,,,,2,,,74,72
29279,note_on,0,0,21,,,,,,,,15,,,74,0
29279,note_on,29,0,14,,,,,,,,10,,,65,0
29279,note_on,29,0,17,,,,,,,,11,,,74,0
29279,note_on,29,0,15,,,,,,,,10,,,59,0
29279,note_on,29,0,8,,,,,,,,3,,,65,0
29279,note_on,29,0,18,,,,,,,,12,,,65,0
29279,note_on,29,0,7,,,,,,,,2,,,74,0
29279,note_on,119,0,20,,,,,,,,14,,,55,0
29279,note_on,29,0,19,,,,,,,,13,,,59,0
29279,note_on,119,0,11,,,,,,,,6,,,43,0
29279,note_on,59,0,21,,,,,,,,15,,,65,0
29279,note_on,0,0,21,,,,,,,,15,,,55,0
29279,note_on,29,0,6,,,,,,,,1,,,59,0
29279,note_on,0,0,6,,,,,,,,1,,,55,0
29279,note_on,0,0,5,,,,,,,,0,,,74,0
29279,note_on,29,0,5,,,,,,,,0,,,65,0
29279,note_on,119,0,16,,,,,,,,10,,,55,0
29279,note_on,29,0,9,,,,,,,,4,,,59,0
29279,note_on,0,0,21,,,,,,,,15,,,59,0
29280,note_on,1,0,18,,,,,,,,12,,,64,72
29280,note_on,0,0,21,,,,,,,,15,,,69,72
29280,note_on,1,0,14,,,,,,,,10,,,64,72
29280,note_on,1,0,17,,,,,,,,11,,,76,72
29280,note_on,1,0,15,,,,,,,,10,,,60,72
29280,note_on,1,0,6,,,,,,,,1,,,60,72
29280,note_on,1,0,7,,,,,,,,2,,,76,72
29280,note_on,1,0,20,,,,,,,,14,,,48,72
29280,note_on,1,0,21,,,,,,,,15,,,48,72
29280,note_on,0,0,21,,,,,,,,15,,,64,72
29280,note_on,1,0,16,,,,,,,,10,,,48,72
29280,note_on,1,0,11,,,,,,,,6,,,36,72
29280,note_on,0,0,6,,,,,,,,1,,,48,72
29280,note_on,1,0,8,,,,,,,,3,,,64,72
29280,note_on,1,0,9,,,,,,,,4,,,60,72
29280,note_on,0,0,5,,,,,,,,0,,,64,72
29280,note_on,1,0,5,,,,,,,,0,,,76,72
29280,note_on,1,0,19,,,,,,,,13,,,60,72
29339,note_on,59,0,21,,,,,,,,15,,,48,0
29339,note_on,0,0,6,,,,,,,,1,,,60,0
29339,note_on,59,0,11,,,,,,,,6,,,36,0
29339,note_on,59,0,6,,,,,,,,1,,,48,0
29339,note_on,59,0,5,,,,,,,,0,,,76,0
29339,note_on,59,0,15,,,,,,,,10,,,60,0
29339,note_on,59,0,7,,,,,,,,2,,,76,0
29339,note_on,59,0,16,,,,,,,,10,,,48,0
29339,note_on,59,0,17,,,,,,,,11,,,76,0
29339,note_on,59,0,9,,,,,,,,4,,,60,0
29339,note_on,59,0,20,,,,,,,,14,,,48,0
29339,note_on,59,0,19,,,,,,,,13,,,60,0
29340,note_on,1,0,7,,,,,,,,2,,,77,72
29340,note_on,1,0,17,,,,,,,,11,,,77,72
29340,note_on,0,0,6,,,,,,,,1,,,59,72
29340,note_on,1,0,6,,,,,,,,1,,,45,72
29340,note_on,1,0,5,,,,,,,,0,,,77,72
29340,note_on,1,0,19,,,,,,,,13,,,59,72
29340,note_on,1,0,11,,,,,,,,6,,,33,72
29340,note_on,1,0,20,,,,,,,,14,,,45,72
29340,note_on,1,0,21,,,,,,,,15,,,45,72
29340,note_on,1,0,9,,,,,,,,4,,,59,72
29340,note_on,1,0,16,,,,,,,,10,,,45,72
29340,note_on,1,0,15,,,,,,,,10,,,59,72
29369,note_on,29,0,9,,,,,,,,4,,,59,0
29369,note_on,29,0,19,,,,,,,,13,,,59,0
29369,note_on,29,0,17,,,,,,,,11,,,77,0
29369,note_on,29,0,5,,,,,,,,0,,,77,0
29369,note_on,29,0,6,,,,,,,,1,,,59,0
29369,note_on,29,0,7,,,,,,,,2,,,77,0
29369,note_on,29,0,15,,,,,,,,10,,,59,0
29370,note_on,1,0,5,,,,,,,,0,,,76,72
29370,note_on,1,0,17,,,,,,,,11,,,76,72
29370,note_on,1,0,19,,,,,,,,13,,,60,72
29370,note_on,1,0,15,,,,,,,,10,,,60,72
29370,note_on,1,0,9,,,,,,,,4,,,60,72
29370,note_on,1,0,7,,,,,,,,2,,,76,72
29370,note_on,1,0,6,,,,,,,,1,,,60,72
29399,note_on,29,0,17,,,,,,,,11,,,76,0
29399,note_on,0,0,6,,,,,,,,1,,,45,0
29399,note_on,29,0,9,,,,,,,,4,,,60,0
29399,note_on,59,0,20,,,,,,,,14,,,45,0
29399,note_on,119,0,18,,,,,,,,12,,,64,0
29399,note_on,29,0,15,,,,,,,,10,,,60,0
29399,note_on,119,0,8,,,,,,,,3,,,64,0
29399,note_on,59,0,16,,,,,,,,10,,,45,0
29399,note_on,29,0,5,,,,,,,,0,,,76,0
29399,note_on,59,0,21,,,,,,,,15,,,45,0
29399,note_on,29,0,6,,,,,,,,1,,,60,0
29399,note_on,0,0,5,,,,,,,,0,,,64,0
29399,note_on,119,0,14,,,,,,,,10,,,64,0
29399,note_on,59,0,11,,,,,,,,6,,,33,0
29399,note_on,29,0,19,,,,,,,,13,,,60,0
29399,note_on,0,0,21,,,,,,,,15,,,64,0
29399,note_on,29,0,7,,,,,,,,2,,,76,0
29399,note_on,0,0,21,,,,,,,,15,,,69,0
29400,note_on,0,0,21,,,,,,,,15,,,62,72
29400,note_on,1,0,20,,,,,,,,14,,,53,72
29400,note_on,0,0,6,,,,,,,,1,,,53,72
29400,note_on,1,0,6,,,,,,,,1,,,62,72
29400,note_on,1,0,21,,,,,,,,15,,,53,72
29400,note_on,0,0,21,,,,,,,,15,,,69,72
29400,note_on,1,0,15,,,,,,,,10,,,62,72
29400,note_on,1,0,16,,,,,,,,10,,,53,72
29400,note_on,1,0,11,,,,,,,,6,,,41,72
29400,note_on,1,0,5,,,,,,,,0,,,74,72
29400,note_on,1,0,7,,,,,,,,2,,,74,72
29400,note_on,1,0,9,,,,,,,,4,,,62,72
29400,note_on,1,0,19,,,,,,,,13,,,62,72
29400,note_on,1,0,17,,,,,,,,11,,,74,72
29429,note_on,29,0,17,,,,,,,,11,,,74,0
29429,note_on,29,0,7,,,,,,,,2,,,74,0
29429,note_on,29,0,5,,,,,,,,0,,,74,0
29430,note_on,1,0,5,,,,,,,,0,,,72,72
29430,note_on,1,0,17,,,,,,,,11,,,72,72
29430,note_on,1,0,7,,,,,,,,2,,,72,72
29459,note_on,59,0,9,,,,,,,,4,,,62,0
29459,note_on,59,0,6,,,,,,,,1,,,62,0
29459,note_on,29,0,17,,,,,,,,11,,,72,0
29459,note_on,59,0,19,,,,,,,,13,,,62,0
29459,note_on,59,0,15,,,,,,,,10,,,62,0
29459,note_on,29,0,7,,,,,,,,2,,,72,0
29459,note_on,29,0,5,,,,,,,,0,,,72,0
29460,note_on,1,0,19,,,,,,,,13,,,60,72
29460,note_on,1,0,9,,,,,,,,4,,,60,72
29460,note_on,1,0,15,,,,,,,,10,,,60,72
29460,note_on,1,0,17,,,,,,,,11,,,71,72
29460,note_on,1,0,6,,,,,,,,1,,,60,72
29460,note_on,1,0,5,,,,,,,,0,,,71,72
29460,note_on,1,0,7,,,,,,,,2,,,71,72
29489,note_on,29,0,7,,,,,,,,2,,,71,0
29489,note_on,29,0,19,,,,,,,,13,,,60,0
29489,note_on,89,0,20,,,,,,,,14,,,53,0
29489,note_on,29,0,6,,,,,,,,1,,,60,0
29489,note_on,29,0,5,,,,,,,,0,,,71,0
29489,note_on,89,0,16,,,,,,,,10,,,53,0
29489,note_on,29,0,9,,,,,,,,4,,,60,0
29489,note_on,29,0,17,,,,,,,,11,,,71,0
29489,note_on,29,0,15,,,,,,,,10,,,60,0
29490,note_on,1,0,5,,,,,,,,0,,,69,72
29490,note_on,1,0,6,,,,,,,,1,,,62,72
29490,note_on,1,0,20,,,,,,,,14,,,53,72
29490,note_on,1,0,9,,,,,,,,4,,,62,72
29490,note_on,1,0,19,,,,,,,,13,,,62,72
29490,note_on,1,0,17,,,,,,,,11,,,69,72
29490,note_on,1,0,15,,,,,,,,10,,,62,72
29490,note_on,1,0,16,,,,,,,,10,,,53,72
29490,note_on,1,0,7,,,,,,,,2,,,69,72
29519,note_on,0,0,21,,,,,,,,15,,,53,0
29519,note_on,0,0,21,,,,,,,,15,,,69,0
29519,note_on,119,0,21,,,,,,,,15,,,62,0
29519,note_on,0,0,6,,,,,,,,1,,,53,0
29519,note_on,29,0,7,,,,,,,,2,,,69,0
29519,note_on,29,0,17,,,,,,,,11,,,69,0
29519,note_on,29,0,6,,,,,,,,1,,,62,0
29519,note_on,119,0,11,,,,,,,,6,,,41,0
29519,note_on,29,0,15,,,,,,,,10,,,62,0
29519,note_on,29,0,16,,,,,,,,10,,,53,0
29519,note_on,29,0,9,,,,,,,,4,,,62,0
29519,note_on,29,0,19,,,,,,,,13,,,62,0
29519,note_on,29,0,20,,,,,,,,14,,,53,0
29519,note_on,29,0,5,,,,,,,,0,,,69,0
29520,note_on,1,0,15,,,,,,,,10,,,64,72
29520,note_on,1,0,9,,,,,,,,4,,,64,72
29520,note_on,1,0,17,,,,,,,,11,,,68,72
29520,note_on,1,0,20,,,,,,,,14,,,52,72
29520,note_on,1,0,7,,,,,,,,2,,,68,72
29520,note_on,0,0,6,,,,,,,,1,,,64,72
29520,note_on,1,0,6,,,,,,,,1,,,52,72
29520,note_on,1,0,21,,,,,,,,15,,,52,72
29520,note_on,0,0,21,,,,,,,,15,,,71,72
29520,note_on,1,0,11,,,,,,,,6,,,40,72
29520,note_on,0,0,21,,,,,,,,15,,,68,72
29520,note_on,1,0,5,,,,,,,,0,,,68,72
29520,note_on,1,0,19,,,,,,,,13,,,64,72
29520,note_on,1,0,16,,,,,,,,10,,,52,72
29579,note_on,59,0,9,,,,,,,,4,,,64,0
29579,note_on,59,0,19,,,,,,,,13,,,64,0
29579,note_on,59,0,5,,,,,,,,0,,,68,0
29579,note_on,0,0,21,,,,,,,,15,,,52,0
29579,note_on,0,0,21,,,,,,,,15,,,68,0
29579,note_on,59,0,21,,,,,,,,15,,,71,0
29579,note_on,59,0,15,,,,,,,,10,,,64,0
29579,note_on,59,0,11,,,,,,,,6,,,40,0
29579,note_on,59,0,17,,,,,,,,11,,,68,0
29579,note_on,59,0,7,,,,,,,,2,,,68,0
29579,note_on,59,0,6,,,,,,,,1,,,64,0
29580,note_on,1,0,21,,,,,,,,15,,,62,72
29580,note_on,181,0,8,,,,,,,,3,,,64,72
29580,note_on,1,0,15,,,,,,,,10,,,62,72
29580,note_on,0,0,21,,,,,,,,15,,,71,72
29580,note_on,0,0,21,,,,,,,,15,,,68,72
29580,note_on,4861,0,10,,,,,,,,5,,,62,72
29580,note_on,1,0,19,,,,,,,,13,,,62,72
29580,note_on,1,0,9,,,,,,,,4,,,62,72
29580,note_on,1,0,5,,,,,,,,0,,,69,72
29580,note_on,181,0,14,,,,,,,,10,,,64,72
29580,note_on,0,0,21,,,,,,,,15,,,64,72
29580,note_on,0,0,5,,,,,,,,0,,,64,72
29580,note_on,181,0,18,,,,,,,,12,,,64,72
29580,note_on,1,0,7,,,,,,,,2,,,71,72
29580,note_on,1,0,17,,,,,,,,11,,,71,72
29580,note_on,1,0,6,,,,,,,,1,,,62,72
29639,note_on,59,0,9,,,,,,,,4,,,62,0
29639,note_on,59,0,5,,,,,,,,0,,,64,0
29639,note_on,0,0,5,,,,,,,,0,,,69,0
29639,note_on,0,0,21,,,,,,,,15,,,68,0
29639,note_on,0,0,21,,,,,,,,15,,,64,0
29639,note_on,0,0,21,,,,,,,,15,,,62,0
29639,note_on,59,0,14,,,,,,,,10,,,64,0
29639,note_on,59,0,15,,,,,,,,10,,,62,0
29639,note_on,59,0,8,,,,,,,,3,,,64,0
29639,note_on,59,0,19,,,,,,,,13,,,62,0
29639,note_on,0,0,6,,,,,,,,1,,,52,0
29639,note_on,59,0,6,,,,,,,,1,,,62,0
29639,note_on,119,0,16,,,,,,,,10,,,52,0
29639,note_on,59,0,17,,,,,,,,11,,,71,0
29639,note_on,119,0,20,,,,,,,,14,,,52,0
29639,note_on,59,0,7,,,,,,,,2,,,71,0
29639,note_on,59,0,18,,,,,,,,12,,,64,0
29639,note_on,59,0,21,,,,,,,,15,,,71,0
29639,note_on,59,0,10,,,,,,,,5,,,62,0
29640,note_on,1,0,17,,,,,,,,11,,,76,72
29640,note_on,0,0,21,,,,,,,,15,,,69,72
29640,note_on,1,0,10,,,,,,,,5,,,60,72
29640,note_on,1,0,19,,,,,,,,13,,,60,72
29640,note_on,1,0,8,,,,,,,,3,,,66,72
29640,note_on,1,0,7,,,,,,,,2,,,76,72
29640,note_on,1,0,18,,,,,,,,12,,,66,72
29640,note_on,1,0,6,,,,,,,,1,,,60,72
29640,note_on,0,0,21,,,,,,,,15,,,66,72
29640,note_on,0,0,5,,,,,,,,0,,,66,72
29640,note_on,1,0,21,,,,,,,,15,,,60,72
29640,note_on,1,0,15,,,,,,,,10,,,60,72
29640,note_on,0,0,21,,,,,,,,15,,,76,72
29640,note_on,1,0,9,,,,,,,,4,,,60,72
29640,note_on,1,0,5,,,,,,,,0,,,76,72
29640,note_on,1,0,14,,,,,,,,10,,,66,72
29699,note_on,0,0,21,,,,,,,,15,,,60,0
29699,note_on,0,0,21,,,,,,,,15,,,76,0
29699,note_on,0,0,21,,,,,,,,15,,,66,0
29699,note_on,59,0,14,,,,,,,,10,,,66,0
29699,note_on,59,0,15,,,,,,,,10,,,60,0
29699,note_on,59,0,8,,,,,,,,3,,,66,0
29699,note_on,59,0,19,,,,,,,,13,,,60,0
29699,note_on,59,0,10,,,,,,,,5,,,60,0
29699,note_on,59,0,6,,,,,,,,1,,,60,0
29699,note_on,59,0,5,,,,,,,,0,,,66,0
29699,note_on,59,0,18,,,,,,,,12,,,66,0
29699,note_on,59,0,17,,,,,,,,11,,,76,0
29699,note_on,0,0,5,,,,,,,,0,,,76,0
29699,note_on,59,0,9,,,,,,,,4,,,60,0
29699,note_on,59,0,21,,,,,,,,15,,,69,0
29699,note_on,59,0,7,,,,,,,,2,,,76,0
29700,note_on,1,0,10,,,,,,,,5,,,59,72
29700,note_on,1,0,18,,,,,,,,12,,,68,72
29700,note_on,1,0,9,,,,,,,,4,,,59,72
29700,note_on,1,0,21,,,,,,,,15,,,59,72
29700,note_on,0,0,21,,,,,,,,15,,,68,72
29700,note_on,1,0,19,,,,,,,,13,,,59,72
29700,note_on,1,0,17,,,,,,,,11,,,74,72
29700,note_on,1,0,7,,,,,,,,2,,,74,72
29700,note_on,1,0,15,,,,,,,,10,,,59,72
29700,note_on,0,0,21,,,,,,,,15,,,74,72
29700,note_on,1,0,5,,,,,,,,0,,,74,72
29700,note_on,0,0,5,,,,,,,,0,,,68,72
29700,note_on,1,0,14,,,,,,,,10,,,68,72
29700,note_on,1,0,6,,,,,,,,1,,,59,72
29700,note_on,1,0,8,,,,,,,,3,,,68,72
29759,note_on,59,0,5,,,,,,,,0,,,68,0
29759,note_on,59,0,19,,,,,,,,13,,,59,0
29759,note_on,0,0,21,,,,,,,,15,,,59,0
29759,note_on,0,0,21,,,,,,,,15,,,74,0
29759,note_on,59,0,17,,,,,,,,11,,,74,0
29759,note_on,59,0,9,,,,,,,,4,,,59,0
29759,note_on,59,0,6,,,,,,,,1,,,59,0
29759,note_on,59,0,7,,,,,,,,2,,,74,0
29759,note_on,59,0,10,,,,,,,,5,,,59,0
29759,note_on,59,0,14,,,,,,,,10,,,68,0
29759,note_on,59,0,15,,,,,,,,10,,,59,0
29759,note_on,59,0,21,,,,,,,,15,,,68,0
29759,note_on,59,0,8,,,,,,,,3,,,68,0
29759,note_on,59,0,18,,,,,,,,12,,,68,0
29759,note_on,0,0,5,,,,,,,,0,,,74,0
29760,note_on,1,0,21,,,,,,,,15,,,57,72
29760,note_on,0,0,21,,,,,,,,15,,,69,72
29760,note_on,0,0,21,,,,,,,,15,,,65,72
29760,note_on,1,0,17,,,,,,,,11,,,72,72
29760,note_on,1,0,7,,,,,,,,2,,,72,72
29760,note_on,1,0,14,,,,,,,,10,,,69,72
29760,note_on,1,0,15,,,,,,,,10,,,57,72
29760,note_on,0,0,21,,,,,,,,15,,,72,72
29760,note_on,1,0,6,,,,,,,,1,,,57,72
29760,note_on,1,0,18,,,,,,,,12,,,69,72
29760,note_on,1,0,9,,,,,,,,4,,,57,72
29760,note_on,1,0,8,,,,,,,,3,,,69,72
29760,note_on,1,0,19,,,,,,,,13,,,57,72
29760,note_on,0,0,5,,,,,,,,0,,,69,72
29760,note_on,1,0,5,,,,,,,,0,,,72,72
29760,note_on,1,0,10,,,,,,,,5,,,57,72
29789,note_on,29,0,5,,,,,,,,0,,,72,0
29789,note_on,29,0,17,,,,,,,,11,,,72,0
29789,note_on,29,0,6,,,,,,,,1,,,57,0
29789,note_on,29,0,7,,,,,,,,2,,,72,0
29789,note_on,29,0,15,,,,,,,,10,,,57,0
29789,note_on,29,0,9,,,,,,,,4,,,57,0
29789,note_on,29,0,19,,,,,,,,13,,,57,0
29790,note_on,1,0,9,,,,,,,,4,,,59,72
29790,note_on,1,0,7,,,,,,,,2,,,71,72
29790,note_on,1,0,5,,,,,,,,0,,,71,72
29790,note_on,1,0,6,,,,,,,,1,,,59,72
29790,note_on,1,0,19,,,,,,,,13,,,59,72
29790,note_on,1,0,15,,,,,,,,10,,,59,72
29790,note_on,1,0,17,,,,,,,,11,,,71,72
29819,note_on,29,0,6,,,,,,,,1,,,59,0
29819,note_on,29,0,19,,,,,,,,13,,,59,0
29819,note_on,29,0,9,,,,,,,,4,,,59,0
29819,note_on,29,0,7,,,,,,,,2,,,71,0
29819,note_on,59,0,21,,,,,,,,15,,,57,0
29819,note_on,59,0,10,,,,,,,,5,,,57,0
29819,note_on,29,0,17,,,,,,,,11,,,71,0
29819,note_on,29,0,5,,,,,,,,0,,,71,0
29819,note_on,29,0,15,,,,,,,,10,,,59,0
29820,note_on,0,0,6,,,,,,,,1,,,60,72
29820,note_on,1,0,6,,,,,,,,1,,,57,72
29820,note_on,181,0,16,,,,,,,,10,,,57,72
29820,note_on,1,0,21,,,,,,,,15,,,57,72
29820,note_on,1,0,9,,,,,,,,4,,,60,72
29820,note_on,1,0,19,,,,,,,,13,,,60,72
29820,note_on,181,0,20,,,,,,,,14,,,57,72
29820,note_on,241,0,11,,,,,,,,6,,,45,72
29820,note_on,1,0,15,,,,,,,,10,,,60,72
29820,note_on,1,0,17,,,,,,,,11,,,69,72
29820,note_on,1,0,5,,,,,,,,0,,,69,72
29820,note_on,1,0,7,,,,,,,,2,,,69,72
29849,note_on,29,0,11,,,,,,,,6,,,45,0
29849,note_on,29,0,6,,,,,,,,1,,,57,0
29849,note_on,29,0,16,,,,,,,,10,,,57,0
29849,note_on,29,0,20,,,,,,,,14,,,57,0
29849,note_on,29,0,21,,,,,,,,15,,,57,0
29850,note_on,1,0,16,,,,,,,,10,,,55,72
29850,note_on,1,0,11,,,,,,,,6,,,43,72
29850,note_on,1,0,6,,,,,,,,1,,,55,72
29850,note_on,1,0,20,,,,,,,,14,,,55,72
29850,note_on,1,0,21,,,,,,,,15,,,55,72
29879,note_on,59,0,5,,,,,,,,0,,,69,0
29879,note_on,29,0,20,,,,,,,,14,,,55,0
29879,note_on,29,0,6,,,,,,,,1,,,55,0
29879,note_on,0,0,21,,,,,,,,15,,,69,0
29879,note_on,29,0,16,,,,,,,,10,,,55,0
29879,note_on,29,0,21,,,,,,,,15,,,55,0
29879,note_on,119,0,8,,,,,,,,3,,,69,0
29879,note_on,0,0,21,,,,,,,,15,,,65,0
29879,note_on,29,0,11,,,,,,,,6,,,43,0
29879,note_on,119,0,18,,,,,,,,12,,,69,0
29879,note_on,119,0,14,,,,,,,,10,,,69,0
29879,note_on,0,0,21,,,,,,,,15,,,72,0
29880,note_on,1,0,11,,,,,,,,6,,,41,72
29880,note_on,1,0,6,,,,,,,,1,,,53,72
29880,note_on,0,0,21,,,,,,,,15,,,72,72
29880,note_on,1,0,20,,,,,,,,14,,,53,72
29880,note_on,0,0,21,,,,,,,,15,,,69,72
29880,note_on,1,0,16,,,,,,,,10,,,53,72
29880,note_on,1,0,21,,,,,,,,15,,,53,72
29909,note_on,89,0,7,,,,,,,,2,,,69,0
29909,note_on,89,0,17,,,,,,,,11,,,69,0
29909,note_on,30,0,5,,,,,,,,0,,,69,0
29910,note_on,1,0,5,,,,,,,,0,,,70,72
29910,note_on,1,0,7,,,,,,,,2,,,70,72
29910,note_on,1,0,17,,,,,,,,11,,,70,72
29939,note_on,59,0,20,,,,,,,,14,,,53,0
29939,note_on,119,0,19,,,,,,,,13,,,60,0
29939,note_on,0,0,6,,,,,,,,1,,,60,0
29939,note_on,59,0,6,,,,,,,,1,,,53,0
29939,note_on,119,0,9,,,,,,,,4,,,60,0
29939,note_on,59,0,11,,,,,,,,6,,,41,0
29939,note_on,29,0,17,,,,,,,,11,,,70,0
29939,note_on,0,0,21,,,,,,,,15,,,69,0
29939,note_on,0,0,21,,,,,,,,15,,,53,0
29939,note_on,59,0,21,,,,,,,,15,,,72,0
29939,note_on,29,0,5,,,,,,,,0,,,70,0
29939,note_on,59,0,16,,,,,,,,10,,,53,0
29939,note_on,29,0,7,,,,,,,,2,,,70,0
29939,note_on,119,0,15,,,,,,,,10,,,60,0
29940,note_on,0,0,6,,,,,,,,1,,,61,72
29940,note_on,1,0,7,,,,,,,,2,,,67,72
29940,note_on,1,0,11,,,,,,,,6,,,39,72
29940,note_on,1,0,16,,,,,,,,10,,,51,72
29940,note_on,1,0,21,,,,,,,,15,,,51,72
29940,note_on,0,0,21,,,,,,,,15,,,67,72
29940,note_on,1,0,9,,,,,,,,4,,,61,72
29940,note_on,0,0,21,,,,,,,,15,,,73,72
29940,note_on,1,0,17,,,,,,,,11,,,67,72
29940,note_on,1,0,19,,,,,,,,13,,,61,72
29940,note_on,1,0,5,,,,,,,,0,,,67,72
29940,note_on,1,0,15,,,,,,,,10,,,61,72
29940,note_on,1,0,20,,,,,,,,14,,,51,72
29940,note_on,1,0,6,,,,,,,,1,,,51,72
29969,note_on,29,0,5,,,,,,,,0,,,67,0
29969,note_on,29,0,7,,,,,,,,2,,,67,0
29969,note_on,29,0,17,,,,,,,,11,,,67,0
29970,note_on,1,0,17,,,,,,,,11,,,69,72
29970,note_on,1,0,7,,,,,,,,2,,,69,72
29970,note_on,1,0,5,,,,,,,,0,,,69,72
29999,note_on,29,0,17,,,,,,,,11,,,69,0
29999,note_on,59,0,16,,,,,,,,10,,,51,0
29999,note_on,29,0,5,,,,,,,,0,,,69,0
29999,note_on,59,0,9,,,,,,,,4,,,61,0
29999,note_on,0,0,21,,,,,,,,15,,,51,0
29999,note_on,59,0,21,,,,,,,,15,,,73,0
29999,note_on,59,0,20,,,,,,,,14,,,51,0
29999,note_on,59,0,15,,,,,,,,10,,,61,0
29999,note_on,59,0,19,,,,,,,,13,,,61,0
29999,note_on,0,0,21,,,,,,,,15,,,67,0
29999,note_on,59,0,6,,,,,,,,1,,,61,0
29999,note_on,29,0,7,,,,,,,,2,,,69,0
29999,note_on,0,0,6,,,,,,,,1,,,51,0
29999,note_on,59,0,11,,,,,,,,6,,,39,0
30000,note_on,1,0,20,,,,,,,,14,,,50,72
30000,note_on,1,0,5,,,,,,,,0,,,66,72
30000,note_on,1,0,16,,,,,,,,10,,,50,72
30000,note_on,1,0,11,,,,,,,,6,,,38,72
30000,note_on,1,0,9,,,,,,,,4,,,62,72
30000,note_on,1,0,19,,,,,,,,13,,,62,72
30000,note_on,0,0,21,,,,,,,,15,,,69,72
30000,note_on,1,0,6,,,,,,,,1,,,62,72
30000,note_on,1,0,21,,,,,,,,15,,,50,72
30000,note_on,1,0,15,,,,,,,,10,,,62,72
30000,note_on,1,0,7,,,,,,,,2,,,65,72
30000,note_on,0,0,6,,,,,,,,1,,,50,72
30000,note_on,1,0,17,,,,,,,,11,,,66,72
30000,note_on,0,0,21,,,,,,,,15,,,66,72
30059,note_on,59,0,11,,,,,,,,6,,,38,0
30059,note_on,59,0,15,,,,,,,,10,,,62,0
30059,note_on,59,0,19,,,,,,,,13,,,62,0
30059,note_on,59,0,21,,,,,,,,15,,,69,0
30059,note_on,59,0,9,,,,,,,,4,,,62,0
30059,note_on,59,0,6,,,,,,,,1,,,62,0
30059,note_on,0,0,21,,,,,,,,15,,,50,0
30059,note_on,0,0,21,,,,,,,,15,,,66,0
30060,note_on,181,0,8,,,,,,,,3,,,69,72
30060,note_on,60,0,5,,,,,,,,0,,,69,72
30060,note_on,241,0,10,,,,,,,,5,,,50,72
30060,note_on,181,0,18,,,,,,,,12,,,69,72
30060,note_on,0,0,21,,,,,,,,15,,,69,72
30060,note_on,1,0,6,,,,,,,,1,,,50,72
30060,note_on,1,0,19,,,,,,,,13,,,50,72
30060,note_on,1,0,21,,,,,,,,15,,,50,72
30060,note_on,0,0,21,,,,,,,,15,,,66,72
30060,note_on,1,0,9,,,,,,,,4,,,50,72
30060,note_on,1,0,15,,,,,,,,10,,,50,72
30060,note_on,181,0,14,,,,,,,,10,,,69,72
30119,note_on,59,0,21,,,,,,,,15,,,69,0
30119,note_on,59,0,15,,,,,,,,10,,,50,0
30119,note_on,119,0,20,,,,,,,,14,,,50,0
30119,note_on,59,0,10,,,,,,,,5,,,50,0
30119,note_on,119,0,17,,,,,,,,11,,,66,0
30119,note_on,0,0,21,,,,,,,,15,,,66,0
30119,note_on,0,0,21,,,,,,,,15,,,50,0
30119,note_on,59,0,6,,,,,,,,1,,,50,0
30119,note_on,119,0,16,,,,,,,,10,,,50,0
30119,note_on,59,0,14,,,,,,,,10,,,69,0
30119,note_on,119,0,7,,,,,,,,2,,,65,0
30119,note_on,0,0,6,,,,,,,,1,,,50,0
30119,note_on,59,0,9,,,,,,,,4,,,50,0
30119,note_on,59,0,19,,,,,,,,13,,,50,0
30119,note_on,59,0,18,,,,,,,,12,,,69,0
30119,note_on,59,0,5,,,,,,,,0,,,69,0
30119,note_on,0,0,5,,,,,,,,0,,,66,0
30119,note_on,59,0,8,,,,,,,,3,,,69,0
30120,note_on,1,0,21,,,,,,,,15,,,52,72
30120,note_on,0,0,21,,,,,,,,15,,,70,72
30120,note_on,0,0,21,,,,,,,,15,,,67,72
30120,note_on,0,0,21,,,,,,,,15,,,74,72
30120,note_on,1,0,10,,,,,,,,5,,,52,72
30120,note_on,0,0,5,,,,,,,,0,,,67,72
30120,note_on,1,0,8,,,,,,,,3,,,74,72
30120,note_on,1,0,9,,,,,,,,4,,,52,72
30120,note_on,1,0,15,,,,,,,,10,,,52,72
30120,note_on,1,0,5,,,,,,,,0,,,74,72
30120,note_on,1,0,7,,,,,,,,2,,,67,72
30120,note_on,1,0,14,,,,,,,,10,,,74,72
30120,note_on,1,0,17,,,,,,,,11,,,67,72
30120,note_on,1,0,19,,,,,,,,13,,,52,72
30120,note_on,1,0,18,,,,,,,,12,,,74,72
30120,note_on,1,0,6,,,,,,,,1,,,52,72
30179,note_on,59,0,5,,,,,,,,0,,,67,0
30179,note_on,59,0,15,,,,,,,,10,,,52,0
30179,note_on,0,0,5,,,,,,,,0,,,74,0
30179,note_on,59,0,18,,,,,,,,12,,,74,0
30179,note_on,59,0,10,,,,,,,,5,,,52,0
30179,note_on,59,0,21,,,,,,,,15,,,74,0
30179,note_on,59,0,8,,,,,,,,3,,,74,0
30179,note_on,0,0,21,,,,,,,,15,,,52,0
30179,note_on,59,0,7,,,,,,,,2,,,67,0
30179,note_on,59,0,14,,,,,,,,10,,,74,0
30179,note_on,59,0,9,,,,,,,,4,,,52,0
30179,note_on,59,0,6,,,,,,,,1,,,52,0
30179,note_on,0,0,21,,,,,,,,15,,,67,0
30179,note_on,59,0,17,,,,,,,,11,,,67,0
30179,note_on,0,0,21,,,,,,,,15,,,70,0
30179,note_on,59,0,19,,,,,,,,13,,,52,0
30180,note_on,1,0,10,,,,,,,,5,,,54,72
30180,note_on,0,0,5,,,,,,,,0,,,69,72
30180,note_on,1,0,5,,,,,,,,0,,,72,72
30180,note_on,0,0,21,,,,,,,,15,,,72,72
30180,note_on,1,0,9,,,,,,,,4,,,54,72
30180,note_on,1,0,21,,,,,,,,15,,,54,72
30180,note_on,1,0,18,,,,,,,,12,,,72,72
30180,note_on,1,0,17,,,,,,,,11,,,69,72
30180,note_on,1,0,6,,,,,,,,1,,,54,72
30180,note_on,1,0,15,,,,,,,,10,,,54,72
30180,note_on,1,0,14,,,,,,,,10,,,72,72
30180,note_on,1,0,7,,,,,,,,2,,,69,72
30180,note_on,0,0,21,,,,,,,,15,,,69,72
30180,note_on,1,0,8,,,,,,,,3,,,72,72
30180,note_on,1,0,19,,,,,,,,13,,,54,72
30180,note_on,0,0,21,,,,,,,,15,,,64,72
30239,note_on,59,0,10,,,,,,,,5,,,54,0
30239,note_on,59,0,17,,,,,,,,11,,,69,0
30239,note_on,59,0,15,,,,,,,,10,,,54,0
30239,note_on,59,0,5,,,,,,,,0,,,69,0
30239,note_on,0,0,5,,,,,,,,0,,,72,0
30239,note_on,0,0,21,,,,,,,,15,,,72,0
30239,note_on,59,0,19,,,,,,,,13,,,54,0
30239,note_on,0,0,21,,,,,,,,15,,,64,0
30239,note_on,0,0,21,,,,,,,,15,,,54,0
30239,note_on,59,0,7,,,,,,,,2,,,69,0
30239,note_on,59,0,21,,,,,,,,15,,,69,0
30239,note_on,59,0,8,,,,,,,,3,,,72,0
30239,note_on,59,0,18,,,,,,,,12,,,72,0
30239,note_on,59,0,6,,,,,,,,1,,,54,0
30239,note_on,59,0,9,,,,,,,,4,,,54,0
30239,note_on,59,0,14,,,,,,,,10,,,72,0
30240,note_on,1,0,8,,,,,,,,3,,,70,72
30240,note_on,1,0,19,,,,,,,,13,,,55,72
30240,note_on,1,0,7,,,,,,,,2,,,62,72
30240,note_on,1,0,18,,,,,,,,12,,,70,72
30240,note_on,1,0,14,,,,,,,,10,,,70,72
30240,note_on,1,0,6,,,,,,,,1,,,55,72
30240,note_on,1,0,17,,,,,,,,11,,,62,72
30240,note_on,0,0,21,,,,,,,,15,,,62,72
30240,note_on,0,0,21,,,,,,,,15,,,70,72
30240,note_on,1,0,21,,,,,,,,15,,,55,72
30240,note_on,1,0,5,,,,,,,,0,,,70,72
30240,note_on,1,0,15,,,,,,,,10,,,55,72
30240,note_on,1,0,9,,,,,,,,4,,,55,72
30240,note_on,0,0,5,,,,,,,,0,,,62,72
30240,note_on,1,0,10,,,,,,,,5,,,55,72
30269,note_on,29,0,15,,,,,,,,10,,,55,0
30269,note_on,29,0,5,,,,,,,,0,,,70,0
30269,note_on,29,0,18,,,,,,,,12,,,70,0
30269,note_on,29,0,19,,,,,,,,13,,,55,0
30269,note_on,29,0,14,,,,,,,,10,,,70,0
30269,note_on,29,0,9,,,,,,,,4,,,55,0
30269,note_on,29,0,8,,,,,,,,3,,,70,0
30269,note_on,29,0,6,,,,,,,,1,,,55,0
30270,note_on,1,0,15,,,,,,,,10,,,57,72
30270,note_on,1,0,14,,,,,,,,10,,,69,72
30270,note_on,1,0,19,,,,,,,,13,,,57,72
30270,note_on,1,0,18,,,,,,,,12,,,69,72
30270,note_on,1,0,5,,,,,,,,0,,,69,72
30270,note_on,1,0,8,,,,,,,,3,,,69,72
30270,note_on,1,0,9,,,,,,,,4,,,57,72
30270,note_on,1,0,6,,,,,,,,1,,,57,72
30299,note_on,29,0,6,,,,,,,,1,,,57,0
30299,note_on,29,0,18,,,,,,,,12,,,69,0
30299,note_on,29,0,14,,,,,,,,10,,,69,0
30299,note_on,59,0,21,,,,,,,,15,,,55,0
30299,note_on,29,0,8,,,,,,,,3,,,69,0
30299,note_on,29,0,15,,,,,,,,10,,,57,0
30299,note_on,59,0,10,,,,,,,,5,,,55,0
30299,note_on,29,0,5,,,,,,,,0,,,69,0
30299,note_on,29,0,9,,,,,,,,4,,,57,0
30299,note_on,29,0,19,,,,,,,,13,,,57,0
30300,note_on,1,0,19,,,,,,,,13,,,58,72
30300,note_on,0,0,6,,,,,,,,1,,,58,72
30300,note_on,1,0,18,,,,,,,,12,,,67,72
30300,note_on,181,0,16,,,,,,,,10,,,55,72
30300,note_on,1,0,9,,,,,,,,4,,,58,72
30300,note_on,1,0,5,,,,,,,,0,,,67,72
30300,note_on,1,0,15,,,,,,,,10,,,58,72
30300,note_on,1,0,21,,,,,,,,15,,,55,72
30300,note_on,181,0,20,,,,,,,,14,,,55,72
30300,note_on,1,0,8,,,,,,,,3,,,67,72
30300,note_on,1,0,14,,,,,,,,10,,,67,72
30300,note_on,1,0,6,,,,,,,,1,,,55,72
30300,note_on,241,0,11,,,,,,,,6,,,43,72
30329,note_on,29,0,11,,,,,,,,6,,,43,0
30329,note_on,29,0,6,,,,,,,,1,,,55,0
30329,note_on,29,0,16,,,,,,,,10,,,55,0
30329,note_on,29,0,20,,,,,,,,14,,,55,0
30329,note_on,29,0,21,,,,,,,,15,,,55,0
30330,note_on,1,0,11,,,,,,,,6,,,41,72
30330,note_on,1,0,20,,,,,,,,14,,,53,72
30330,note_on,1,0,21,,,,,,,,15,,,53,72
30330,note_on,1,0,6,,,,,,,,1,,,53,72
30330,note_on,1,0,16,,,,,,,,10,,,53,72
30359,note_on,119,0,7,,,,,,,,2,,,62,0
30359,note_on,29,0,11,,,,,,,,6,,,41,0
30359,note_on,29,0,16,,,,,,,,10,,,53,0
30359,note_on,59,0,5,,,,,,,,0,,,62,0
30359,note_on,0,0,21,,,,,,,,15,,,70,0
30359,note_on,29,0,21,,,,,,,,15,,,53,0
30359,note_on,29,0,6,,,,,,,,1,,,53,0
30359,note_on,119,0,17,,,,,,,,11,,,62,0
30359,note_on,29,0,20,,,,,,,,14,,,53,0
30359,note_on,0,0,21,,,,,,,,15,,,62,0
30360,note_on,1,0,6,,,,,,,,1,,,52,72
30360,note_on,1,0,20,,,,,,,,14,,,52,72
30360,note_on,0,0,21,,,,,,,,15,,,52,72
30360,note_on,1,0,16,,,,,,,,10,,,52,72
30360,note_on,1,0,21,,,,,,,,15,,,70,72
30360,note_on,0,0,21,,,,,,,,15,,,67,72
30360,note_on,1,0,11,,,,,,,,6,,,40,72
30389,note_on,89,0,18,,,,,,,,12,,,67,0
30389,note_on,30,0,5,,,,,,,,0,,,67,0
30389,note_on,89,0,14,,,,,,,,10,,,67,0
30389,note_on,89,0,8,,,,,,,,3,,,67,0
30390,note_on,1,0,8,,,,,,,,3,,,69,72
30390,note_on,1,0,14,,,,,,,,10,,,69,72
30390,note_on,1,0,18,,,,,,,,12,,,69,72
30390,note_on,1,0,5,,,,,,,,0,,,69,72
30419,note_on,0,0,6,,,,,,,,1,,,58,0
30419,note_on,59,0,6,,,,,,,,1,,,52,0
30419,note_on,59,0,20,,,,,,,,14,,,52,0
30419,note_on,59,0,11,,,,,,,,6,,,40,0
30419,note_on,29,0,18,,,,,,,,12,,,69,0
30419,note_on,119,0,15,,,,,,,,10,,,58,0
30419,note_on,59,0,21,,,,,,,,15,,,67,0
30419,note_on,0,0,21,,,,,,,,15,,,52,0
30419,note_on,0,0,21,,,,,,,,15,,,70,0
30419,note_on,119,0,9,,,,,,,,4,,,58,0
30419,note_on,29,0,8,,,,,,,,3,,,69,0
30419,note_on,29,0,5,,,,,,,,0,,,69,0
30419,note_on,59,0,16,,,,,,,,10,,,52,0
30419,note_on,119,0,19,,,,,,,,13,,,58,0
30419,note_on,29,0,14,,,,,,,,10,,,69,0
30420,note_on,1,0,5,,,,,,,,0,,,65,72
30420,note_on,1,0,11,,,,,,,,6,,,38,72
30420,note_on,1,0,21,,,,,,,,15,,,50,72
30420,note_on,0,0,21,,,,,,,,15,,,65,72
30420,note_on,0,0,21,,,,,,,,15,,,71,72
30420,note_on,1,0,14,,,,,,,,10,,,65,72
30420,note_on,1,0,16,,,,,,,,10,,,50,72
30420,note_on,1,0,6,,,,,,,,1,,,59,72
30420,note_on,0,0,6,,,,,,,,1,,,50,72
30420,note_on,1,0,15,,,,,,,,10,,,59,72
30420,note_on,1,0,18,,,,,,,,12,,,65,72
30420,note_on,1,0,8,,,,,,,,3,,,65,72
30420,note_on,1,0,19,,,,,,,,13,,,59,72
30420,note_on,1,0,20,,,,,,,,14,,,50,72
30420,note_on,1,0,9,,,,,,,,4,,,59,72
30449,note_on,29,0,5,,,,,,,,0,,,65,0
30449,note_on,29,0,8,,,,,,,,3,,,65,0
30449,note_on,29,0,18,,,,,,,,12,,,65,0
30449,note_on,29,0,14,,,,,,,,10,,,65,0
30450,note_on,1,0,5,,,,,,,,0,,,67,72
30450,note_on,1,0,18,,,,,,,,12,,,67,72
30450,note_on,1,0,14,,,,,,,,10,,,67,72
30450,note_on,1,0,8,,,,,,,,3,,,67,72
30479,note_on,29,0,18,,,,,,,,12,,,67,0
30479,note_on,0,0,21,,,,,,,,15,,,50,0
30479,note_on,29,0,8,,,,,,,,3,,,67,0
30479,note_on,59,0,21,,,,,,,,15,,,71,0
30479,note_on,59,0,15,,,,,,,,10,,,59,0
30479,note_on,0,0,21,,,,,,,,15,,,65,0
30479,note_on,59,0,6,,,,,,,,1,,,50,0
30479,note_on,59,0,20,,,,,,,,14,,,50,0
30479,note_on,59,0,16,,,,,,,,10,,,50,0
30479,note_on,59,0,11,,,,,,,,6,,,38,0
30479,note_on,0,0,6,,,,,,,,1,,,59,0
30479,note_on,29,0,5,,,,,,,,0,,,67,0
30479,note_on,59,0,19,,,,,,,,13,,,59,0
30479,note_on,59,0,9,,,,,,,,4,,,59,0
30479,note_on,29,0,14,,,,,,,,10,,,67,0
30480,note_on,1,0,15,,,,,,,,10,,,60,72
30480,note_on,121,0,7,,,,,,,,2,,,72,72
30480,note_on,0,0,5,,,,,,,,0,,,64,72
30480,note_on,1,0,5,,,,,,,,0,,,72,72
30480,note_on,1,0,21,,,,,,,,15,,,48,72
30480,note_on,1,0,8,,,,,,,,3,,,64,72
30480,note_on,1,0,20,,,,,,,,14,,,48,72
30480,note_on,1,0,9,,,,,,,,4,,,60,72
30480,note_on,0,0,21,,,,,,,,15,,,64,72
30480,note_on,1,0,14,,,,,,,,10,,,64,72
30480,note_on,1,0,16,,,,,,,,10,,,48,72
30480,note_on,1,0,18,,,,,,,,12,,,64,72
30480,note_on,1,0,11,,,,,,,,6,,,36,72
30480,note_on,0,0,6,,,,,,,,1,,,48,72
30480,note_on,1,0,6,,,,,,,,1,,,60,72
30480,note_on,0,0,21,,,,,,,,15,,,72,72
30480,note_on,1,0,19,,,,,,,,13,,,60,72
30480,note_on,121,0,17,,,,,,,,11,,,72,72
30480,note_on,0,0,21,,,,,,,,15,,,67,72
30539,note_on,59,0,19,,,,,,,,13,,,60,0
30539,note_on,59,0,21,,,,,,,,15,,,72,0
30539,note_on,59,0,6,,,,,,,,1,,,60,0
30539,note_on,59,0,15,,,,,,,,10,,,60,0
30539,note_on,59,0,9,,,,,,,,4,,,60,0
30540,note_on,1,0,21,,,,,,,,15,,,70,72
30540,note_on,1,0,15,,,,,,,,10,,,58,72
30540,note_on,1,0,19,,,,,,,,13,,,58,72
30540,note_on,1,0,9,,,,,,,,4,,,58,72
30540,note_on,1,0,6,,,,,,,,1,,,58,72
30599,note_on,0,0,6,,,,,,,,1,,,48,0
30599,note_on,59,0,6,,,,,,,,1,,,58,0
30599,note_on,119,0,11,,,,,,,,6,,,36,0
30599,note_on,119,0,5,,,,,,,,0,,,64,0
30599,note_on,59,0,9,,,,,,,,4,,,58,0
30599,note_on,119,0,8,,,,,,,,3,,,64,0
30599,note_on,119,0,20,,,,,,,,14,,,48,0
30599,note_on,119,0,16,,,,,,,,10,,,48,0
30599,note_on,0,0,21,,,,,,,,15,,,48,0
30599,note_on,0,0,21,,,,,,,,15,,,64,0
30599,note_on,59,0,21,,,,,,,,15,,,70,0
30599,note_on,59,0,15,,,,,,,,10,,,58,0
30599,note_on,119,0,14,,,,,,,,10,,,64,0
30599,note_on,119,0,18,,,,,,,,12,,,64,0
30599,note_on,59,0,19,,,,,,,,13,,,58,0
30599,note_on,0,0,21,,,,,,,,15,,,67,0
30600,note_on,1,0,16,,,,,,,,10,,,50,72
30600,note_on,1,0,11,,,,,,,,6,,,38,72
30600,note_on,1,0,19,,,,,,,,13,,,57,72
30600,note_on,1,0,18,,,,,,,,12,,,65,72
30600,note_on,1,0,6,,,,,,,,1,,,57,72
30600,note_on,1,0,8,,,,,,,,3,,,65,72
30600,note_on,0,0,6,,,,,,,,1,,,50,72
30600,note_on,1,0,15,,,,,,,,10,,,57,72
30600,note_on,1,0,5,,,,,,,,0,,,65,72
30600,note_on,1,0,14,,,,,,,,10,,,65,72
30600,note_on,1,0,9,,,,,,,,4,,,57,72
30600,note_on,1,0,21,,,,,,,,15,,,50,72
30600,note_on,0,0,21,,,,,,,,15,,,65,72
30600,note_on,0,0,21,,,,,,,,15,,,69,72
30600,note_on,1,0,20,,,,,,,,14,,,50,72
30600,note_on,0,0,21,,,,,,,,15,,,72,72
30659,note_on,59,0,21,,,,,,,,15,,,72,0
30659,note_on,0,0,21,,,,,,,,15,,,50,0
30659,note_on,59,0,11,,,,,,,,6,,,38,0
30659,note_on,0,0,21,,,,,,,,15,,,65,0
30659,note_on,59,0,20,,,,,,,,14,,,50,0
30659,note_on,59,0,19,,,,,,,,13,,,57,0
30659,note_on,59,0,16,,,,,,,,10,,,50,0
30659,note_on,59,0,14,,,,,,,,10,,,65,0
30659,note_on,0,0,21,,,,,,,,15,,,69,0
30659,note_on,59,0,6,,,,,,,,1,,,50,0
30659,note_on,0,0,6,,,,,,,,1,,,57,0
30659,note_on,59,0,18,,,,,,,,12,,,65,0
30659,note_on,179,0,7,,,,,,,,2,,,72,0
30659,note_on,59,0,5,,,,,,,,0,,,65,0
30659,note_on,59,0,9,,,,,,,,4,,,57,0
30659,note_on,179,0,17,,,,,,,,11,,,72,0
30659,note_on,59,0,15,,,,,,,,10,,,57,0
30659,note_on,0,0,5,,,,,,,,0,,,72,0
30659,note_on,59,0,8,,,,,,,,3,,,65,0
30660,note_on,1,0,20,,,,,,,,14,,,52,72
30660,note_on,1,0,11,,,,,,,,6,,,40,72
30660,note_on,1,0,15,,,,,,,,10,,,55,72
30660,note_on,1,0,8,,,,,,,,3,,,67,72
30660,note_on,1,0,9,,,,,,,,4,,,55,72
30660,note_on,1,0,5,,,,,,,,0,,,67,72
30660,note_on,1,0,21,,,,,,,,15,,,70,72
30660,note_on,0,0,21,,,,,,,,15,,,52,72
30660,note_on,0,0,21,,,,,,,,15,,,67,72
30660,note_on,0,0,21,,,,,,,,15,,,72,72
30660,note_on,1,0,19,,,,,,,,13,,,55,72
30660,note_on,0,0,5,,,,,,,,0,,,72,72
30660,note_on,1,0,16,,,,,,,,10,,,52,72
30660,note_on,1,0,7,,,,,,,,2,,,72,72
30660,note_on,1,0,17,,,,,,,,11,,,72,72
30660,note_on,1,0,18,,,,,,,,12,,,67,72
30660,note_on,0,0,6,,,,,,,,1,,,52,72
30660,note_on,1,0,6,,,,,,,,1,,,55,72
30660,note_on,1,0,14,,,,,,,,10,,,67,72
30719,note_on,59,0,14,,,,,,,,10,,,67,0
30719,note_on,0,0,21,,,,,,,,15,,,70,0
30719,note_on,59,0,21,,,,,,,,15,,,72,0
30719,note_on,0,0,6,,,,,,,,1,,,55,0
30719,note_on,59,0,6,,,,,,,,1,,,52,0
30719,note_on,59,0,5,,,,,,,,0,,,72,0
30719,note_on,0,0,5,,,,,,,,0,,,67,0
30719,note_on,59,0,17,,,,,,,,11,,,72,0
30719,note_on,59,0,9,,,,,,,,4,,,55,0
30719,note_on,59,0,7,,,,,,,,2,,,72,0
30719,note_on,59,0,18,,,,,,,,12,,,67,0
30719,note_on,59,0,15,,,,,,,,10,,,55,0
30719,note_on,0,0,21,,,,,,,,15,,,52,0
30719,note_on,59,0,20,,,,,,,,14,,,52,0
30719,note_on,59,0,8,,,,,,,,3,,,67,0
30719,note_on,59,0,19,,,,,,,,13,,,55,0
30719,note_on,59,0,11,,,,,,,,6,,,40,0
30719,note_on,0,0,21,,,,,,,,15,,,67,0
30719,note_on,59,0,16,,,,,,,,10,,,52,0
30720,note_on,1,0,15,,,,,,,,10,,,57,72
30720,note_on,1,0,9,,,,,,,,4,,,57,72
30720,note_on,1,0,8,,,,,,,,3,,,60,72
30720,note_on,1,0,21,,,,,,,,15,,,53,72
30720,note_on,0,0,21,,,,,,,,15,,,69,72
30720,note_on,0,0,21,,,,,,,,15,,,65,72
30720,note_on,1,0,14,,,,,,,,10,,,60,72
30720,note_on,1,0,18,,,,,,,,12,,,60,72
30720,note_on,0,0,21,,,,,,,,15,,,72,72
30720,note_on,0,0,5,,,,,,,,0,,,60,72
30720,note_on,1,0,19,,,,,,,,13,,,57,72
30720,note_on,1,0,17,,,,,,,,11,,,69,72
30720,note_on,1,0,20,,,,,,,,14,,,53,72
30720,note_on,0,0,6,,,,,,,,1,,,57,72
30720,note_on,1,0,6,,,,,,,,1,,,53,72
30720,note_on,1,0,7,,,,,,,,2,,,69,72
30720,note_on,1,0,16,,,,,,,,10,,,53,72
30720,note_on,1,0,11,,,,,,,,6,,,41,72
30720,note_on,1,0,5,,,,,,,,0,,,69,72
30749,note_on,29,0,6,,,,,,,,1,,,57,0
30749,note_on,29,0,15,,,,,,,,10,,,57,0
30749,note_on,29,0,9,,,,,,,,4,,,57,0
30749,note_on,29,0,19,,,,,,,,13,,,57,0
30750,note_on,1,0,15,,,,,,,,10,,,53,72
30750,note_on,1,0,19,,,,,,,,13,,,53,72
30750,note_on,1,0,9,,,,,,,,4,,,53,72
30750,note_on,1,0,6,,,,,,,,1,,,53,72
30779,note_on,29,0,15,,,,,,,,10,,,53,0
30779,note_on,0,0,21,,,,,,,,15,,,72,0
30779,note_on,0,0,21,,,,,,,,15,,,53,0
30779,note_on,59,0,21,,,,,,,,15,,,65,0
30779,note_on,0,0,21,,,,,,,,15,,,69,0
30779,note_on,29,0,6,,,,,,,,1,,,53,0
30779,note_on,29,0,19,,,,,,,,13,,,53,0
30779,note_on,29,0,9,,,,,,,,4,,,53,0
30779,note_on,59,0,11,,,,,,,,6,,,41,0
30780,note_on,1,0,15,,,,,,,,10,,,55,72
30780,note_on,1,0,19,,,,,,,,13,,,55,72
30780,note_on,1,0,21,,,,,,,,15,,,55,72
30780,note_on,1,0,9,,,,,,,,4,,,55,72
30780,note_on,0,0,21,,,,,,,,15,,,70,72
30780,note_on,0,0,21,,,,,,,,15,,,62,72
30780,note_on,481,0,10,,,,,,,,5,,,55,72
30780,note_on,0,0,21,,,,,,,,15,,,67,72
30780,note_on,1,0,6,,,,,,,,1,,,55,72
30809,note_on,29,0,9,,,,,,,,4,,,55,0
30809,note_on,29,0,21,,,,,,,,15,,,55,0
30809,note_on,29,0,19,,,,,,,,13,,,55,0
30809,note_on,29,0,6,,,,,,,,1,,,55,0
30809,note_on,29,0,10,,,,,,,,5,,,55,0
30809,note_on,29,0,15,,,,,,,,10,,,55,0
30810,note_on,1,0,9,,,,,,,,4,,,57,72
30810,note_on,1,0,19,,,,,,,,13,,,57,72
30810,note_on,1,0,6,,,,,,,,1,,,57,72
30810,note_on,1,0,10,,,,,,,,5,,,57,72
30810,note_on,1,0,21,,,,,,,,15,,,57,72
30810,note_on,1,0,15,,,,,,,,10,,,57,72
30839,note_on,119,0,8,,,,,,,,3,,,60,0
30839,note_on,29,0,15,,,,,,,,10,,,57,0
30839,note_on,29,0,10,,,,,,,,5,,,57,0
30839,note_on,119,0,5,,,,,,,,0,,,60,0
30839,note_on,29,0,9,,,,,,,,4,,,57,0
30839,note_on,0,0,5,,,,,,,,0,,,69,0
30839,note_on,119,0,16,,,,,,,,10,,,53,0
30839,note_on,119,0,20,,,,,,,,14,,,53,0
30839,note_on,29,0,21,,,,,,,,15,,,57,0
30839,note_on,29,0,6,,,,,,,,1,,,57,0
30839,note_on,0,0,6,,,,,,,,1,,,53,0
30839,note_on,0,0,21,,,,,,,,15,,,67,0
30839,note_on,119,0,14,,,,,,,,10,,,60,0
30839,note_on,29,0,19,,,,,,,,13,,,57,0
30839,note_on,119,0,17,,,,,,,,11,,,69,0
30839,note_on,0,0,21,,,,,,,,15,,,70,0
30839,note_on,0,0,21,,,,,,,,15,,,62,0
30839,note_on,119,0,18,,,,,,,,12,,,60,0
30839,note_on,119,0,7,,,,,,,,2,,,69,0
30840,note_on,1,0,10,,,,,,,,5,,,58,72
30840,note_on,1,0,7,,,,,,,,2,,,74,72
30840,note_on,1,0,6,,,,,,,,1,,,58,72
30840,note_on,0,0,21,,,,,,,,15,,,67,72
30840,note_on,1,0,5,,,,,,,,0,,,72,72
30840,note_on,1,0,17,,,,,,,,11,,,74,72
30840,note_on,0,0,21,,,,,,,,15,,,74,72
30840,note_on,0,0,21,,,,,,,,15,,,65,72
30840,note_on,1,0,21,,,,,,,,15,,,58,72
30840,note_on,1,0,15,,,,,,,,10,,,58,72
30840,note_on,1,0,19,,,,,,,,13,,,58,72
30840,note_on,1,0,9,,,,,,,,4,,,58,72
30869,note_on,29,0,9,,,,,,,,4,,,58,0
30869,note_on,29,0,19,,,,,,,,13,,,58,0
30869,note_on,29,0,6,,,,,,,,1,,,58,0
30869,note_on,29,0,21,,,,,,,,15,,,58,0
30869,note_on,29,0,10,,,,,,,,5,,,58,0
30869,note_on,29,0,15,,,,,,,,10,,,58,0
30870,note_on,1,0,19,,,,,,,,13,,,55,72
30870,note_on,1,0,9,,,,,,,,4,,,55,72
30870,note_on,1,0,21,,,,,,,,15,,,55,72
30870,note_on,1,0,6,,,,,,,,1,,,55,72
30870,note_on,1,0,15,,,,,,,,10,,,55,72
30870,note_on,1,0,10,,,,,,,,5,,,55,72
30899,note_on,29,0,19,,,,,,,,13,,,55,0
30899,note_on,29,0,21,,,,,,,,15,,,55,0
30899,note_on,29,0,9,,,,,,,,4,,,55,0
30899,note_on,29,0,15,,,,,,,,10,,,55,0
30899,note_on,29,0,10,,,,,,,,5,,,55,0
30899,note_on,29,0,6,,,,,,,,1,,,55,0
30900,note_on,1,0,10,,,,,,,,5,,,57,72
30900,note_on,1,0,6,,,,,,,,1,,,57,72
30900,note_on,1,0,9,,,,,,,,4,,,57,72
30900,note_on,1,0,21,,,,,,,,15,,,57,72
30900,note_on,1,0,15,,,,,,,,10,,,57,72
30900,note_on,1,0,19,,,,,,,,13,,,57,72
30929,note_on,29,0,10,,,,,,,,5,,,57,0
30929,note_on,29,0,21,,,,,,,,15,,,57,0
30929,note_on,29,0,19,,,,,,,,13,,,57,0
30929,note_on,29,0,9,,,,,,,,4,,,57,0
30929,note_on,29,0,6,,,,,,,,1,,,57,0
30929,note_on,29,0,15,,,,,,,,10,,,57,0
30930,note_on,1,0,9,,,,,,,,4,,,58,72
30930,note_on,1,0,6,,,,,,,,1,,,58,72
30930,note_on,1,0,10,,,,,,,,5,,,58,72
30930,note_on,1,0,15,,,,,,,,10,,,58,72
30930,note_on,1,0,19,,,,,,,,13,,,58,72
30930,note_on,1,0,21,,,,,,,,15,,,58,72
30959,note_on,29,0,10,,,,,,,,5,,,58,0
30959,note_on,119,0,5,,,,,,,,0,,,72,0
30959,note_on,29,0,9,,,,,,,,4,,,58,0
30959,note_on,29,0,15,,,,,,,,10,,,58,0
30959,note_on,0,0,21,,,,,,,,15,,,65,0
30959,note_on,0,0,21,,,,,,,,15,,,67,0
30959,note_on,0,0,21,,,,,,,,15,,,74,0
30959,note_on,29,0,21,,,,,,,,15,,,58,0
30959,note_on,119,0,17,,,,,,,,11,,,74,0
30959,note_on,29,0,6,,,,,,,,1,,,58,0
30959,note_on,119,0,7,,,,,,,,2,,,74,0
30959,note_on,29,0,19,,,,,,,,13,,,58,0
30960,note_on,1,0,9,,,,,,,,4,,,60,72
30960,note_on,1,0,17,,,,,,,,11,,,64,72
30960,note_on,0,0,21,,,,,,,,15,,,72,72
30960,note_on,0,0,21,,,,,,,,15,,,67,72
30960,note_on,0,0,21,,,,,,,,15,,,64,72
30960,note_on,1,0,7,,,,,,,,2,,,64,72
30960,note_on,1,0,10,,,,,,,,5,,,60,72
30960,note_on,1,0,19,,,,,,,,13,,,60,72
30960,note_on,1,0,21,,,,,,,,15,,,60,72
30960,note_on,1,0,15,,,,,,,,10,,,60,72
30960,note_on,1,0,6,,,,,,,,1,,,60,72
30960,note_on,1,0,5,,,,,,,,0,,,64,72
31019,note_on,59,0,6,,,,,,,,1,,,60,0
31019,note_on,59,0,19,,,,,,,,13,,,60,0
31019,note_on,59,0,9,,,,,,,,4,,,60,0
31019,note_on,59,0,15,,,,,,,,10,,,60,0
31019,note_on,0,0,21,,,,,,,,15,,,67,0
31019,note_on,0,0,21,,,,,,,,15,,,64,0
31019,note_on,0,0,21,,,,,,,,15,,,60,0
31019,note_on,59,0,21,,,,,,,,15,,,72,0
31019,note_on,59,0,10,,,,,,,,5,,,60,0
31020,note_on,241,0,11,,,,,,,,6,,,36,72
31020,note_on,181,0,20,,,,,,,,14,,,48,72
31020,note_on,0,0,21,,,,,,,,15,,,64,72
31020,note_on,1,0,15,,,,,,,,10,,,55,72
31020,note_on,1,0,21,,,,,,,,15,,,48,72
31020,note_on,181,0,16,,,,,,,,10,,,48,72
31020,note_on,181,0,18,,,,,,,,12,,,60,72
31020,note_on,1,0,6,,,,,,,,1,,,55,72
31020,note_on,0,0,6,,,,,,,,1,,,48,72
31020,note_on,181,0,14,,,,,,,,10,,,60,72
31020,note_on,0,0,21,,,,,,,,15,,,67,72
31020,note_on,0,0,21,,,,,,,,15,,,60,72
31020,note_on,1,0,19,,,,,,,,13,,,55,72
31020,note_on,60,0,5,,,,,,,,0,,,60,72
31020,note_on,181,0,8,,,,,,,,3,,,60,72
31020,note_on,1,0,9,,,,,,,,4,,,55,72
31049,note_on,29,0,21,,,,,,,,15,,,48,0
31049,note_on,29,0,11,,,,,,,,6,,,36,0
31079,note_on,59,0,16,,,,,,,,10,,,48,0
31079,note_on,59,0,9,,,,,,,,4,,,55,0
31079,note_on,59,0,6,,,,,,,,1,,,48,0
31079,note_on,59,0,20,,,,,,,,14,,,48,0
31079,note_on,0,0,6,,,,,,,,1,,,55,0
31079,note_on,59,0,19,,,,,,,,13,,,55,0
31079,note_on,59,0,15,,,,,,,,10,,,55,0
31080,note_on,1,0,16,,,,,,,,10,,,48,72
31080,note_on,31,0,21,,,,,,,,15,,,48,72
31080,note_on,1,0,19,,,,,,,,13,,,60,72
31080,note_on,31,0,11,,,,,,,,6,,,36,72
31080,note_on,1,0,6,,,,,,,,1,,,48,72
31080,note_on,0,0,6,,,,,,,,1,,,60,72
31080,note_on,1,0,15,,,,,,,,10,,,60,72
31080,note_on,1,0,9,,,,,,,,4,,,60,72
31080,note_on,1,0,20,,,,,,,,14,,,48,72
31109,note_on,29,0,11,,,,,,,,6,,,36,0
31109,note_on,29,0,21,,,,,,,,15,,,48,0
31139,note_on,59,0,16,,,,,,,,10,,,48,0
31139,note_on,119,0,14,,,,,,,,10,,,60,0
31139,note_on,179,0,7,,,,,,,,2,,,64,0
31139,note_on,0,0,21,,,,,,,,15,,,67,0
31139,note_on,119,0,18,,,,,,,,12,,,60,0
31139,note_on,59,0,6,,,,,,,,1,,,48,0
31139,note_on,179,0,17,,,,,,,,11,,,64,0
31139,note_on,59,0,20,,,,,,,,14,,,48,0
31139,note_on,0,0,5,,,,,,,,0,,,64,0
31139,note_on,119,0,5,,,,,,,,0,,,60,0
31139,note_on,0,0,21,,,,,,,,15,,,64,0
31139,note_on,119,0,8,,,,,,,,3,,,60,0
31139,note_on,30,0,21,,,,,,,,15,,,60,0
31140,note_on,1,0,21,,,,,,,,15,,,48,72
31140,note_on,1,0,20,,,,,,,,14,,,48,72
31140,note_on,1,0,17,,,,,,,,11,,,64,72
31140,note_on,1,0,8,,,,,,,,3,,,58,72
31140,note_on,1,0,6,,,,,,,,1,,,48,72
31140,note_on,0,0,21,,,,,,,,15,,,67,72
31140,note_on,0,0,21,,,,,,,,15,,,64,72
31140,note_on,1,0,16,,,,,,,,10,,,48,72
31140,note_on,1,0,5,,,,,,,,0,,,64,72
31140,note_on,0,0,5,,,,,,,,0,,,58,72
31140,note_on,31,0,11,,,,,,,,6,,,36,72
31140,note_on,1,0,7,,,,,,,,2,,,64,72
31140,note_on,0,0,21,,,,,,,,15,,,58,72
31140,note_on,1,0,18,,,,,,,,12,,,58,72
31140,note_on,1,0,14,,,,,,,,10,,,58,72
31169,note_on,29,0,11,,,,,,,,6,,,36,0
31169,note_on,29,0,21,,,,,,,,15,,,48,0
31199,note_on,59,0,18,,,,,,,,12,,,58,0
31199,note_on,59,0,8,,,,,,,,3,,,58,0
31199,note_on,59,0,16,,,,,,,,10,,,48,0
31199,note_on,30,0,21,,,,,,,,15,,,64,0
31199,note_on,0,0,21,,,,,,,,15,,,67,0
31199,note_on,0,0,21,,,,,,,,15,,,58,0
31199,note_on,59,0,14,,,,,,,,10,,,58,0
31199,note_on,59,0,17,,,,,,,,11,,,64,0
31199,note_on,0,0,5,,,,,,,,0,,,64,0
31199,note_on,59,0,6,,,,,,,,1,,,48,0
31199,note_on,59,0,7,,,,,,,,2,,,64,0
31199,note_on,59,0,20,,,,,,,,14,,,48,0
31199,note_on,59,0,5,,,,,,,,0,,,58,0
31200,note_on,1,0,7,,,,,,,,2,,,65,72
31200,note_on,1,0,16,,,,,,,,10,,,50,72
31200,note_on,1,0,6,,,,,,,,1,,,50,72
31200,note_on,1,0,18,,,,,,,,12,,,57,72
31200,note_on,1,0,17,,,,,,,,11,,,65,72
31200,note_on,1,0,14,,,,,,,,10,,,57,72
31200,note_on,1,0,8,,,,,,,,3,,,57,72
31200,note_on,0,0,21,,,,,,,,15,,,57,72
31200,note_on,0,0,21,,,,,,,,15,,,65,72
31200,note_on,0,0,21,,,,,,,,15,,,69,72
31200,note_on,1,0,21,,,,,,,,15,,,50,72
31200,note_on,0,0,5,,,,,,,,0,,,57,72
31200,note_on,31,0,11,,,,,,,,6,,,38,72
31200,note_on,1,0,20,,,,,,,,14,,,50,72
31200,note_on,1,0,5,,,,,,,,0,,,65,72
31229,note_on,29,0,20,,,,,,,,14,,,50,0
31229,note_on,29,0,6,,,,,,,,1,,,50,0
31229,note_on,29,0,16,,,,,,,,10,,,50,0
31229,note_on,29,0,21,,,,,,,,15,,,50,0
31229,note_on,29,0,11,,,,,,,,6,,,38,0
31230,note_on,1,0,20,,,,,,,,14,,,52,72
31230,note_on,1,0,11,,,,,,,,6,,,40,72
31230,note_on,1,0,6,,,,,,,,1,,,52,72
31230,note_on,1,0,16,,,,,,,,10,,,52,72
31230,note_on,1,0,21,,,,,,,,15,,,52,72
31259,note_on,29,0,6,,,,,,,,1,,,52,0
31259,note_on,0,0,21,,,,,,,,15,,,57,0
31259,note_on,0,0,6,,,,,,,,1,,,60,0
31259,note_on,59,0,14,,,,,,,,10,,,57,0
31259,note_on,59,0,8,,,,,,,,3,,,57,0
31259,note_on,29,0,16,,,,,,,,10,,,52,0
31259,note_on,29,0,21,,,,,,,,15,,,52,0
31259,note_on,179,0,9,,,,,,,,4,,,60,0
31259,note_on,29,0,11,,,,,,,,6,,,40,0
31259,note_on,0,0,21,,,,,,,,15,,,65,0
31259,note_on,59,0,18,,,,,,,,12,,,57,0
31259,note_on,179,0,19,,,,,,,,13,,,60,0
31259,note_on,179,0,15,,,,,,,,10,,,60,0
31259,note_on,29,0,20,,,,,,,,14,,,52,0
31259,note_on,59,0,5,,,,,,,,0,,,57,0
31259,note_on,0,0,21,,,,,,,,15,,,69,0
31260,note_on,0,0,21,,,,,,,,15,,,70,72
31260,note_on,0,0,21,,,,,,,,15,,,65,72
31260,note_on,1,0,19,,,,,,,,13,,,58,72
31260,note_on,1,0,8,,,,,,,,3,,,65,72
31260,note_on,1,0,16,,,,,,,,10,,,50,72
31260,note_on,0,0,6,,,,,,,,1,,,58,72
31260,note_on,1,0,14,,,,,,,,10,,,65,72
31260,note_on,1,0,5,,,,,,,,0,,,65,72
31260,note_on,1,0,6,,,,,,,,1,,,50,72
31260,note_on,1,0,15,,,,,,,,10,,,58,72
31260,note_on,1,0,18,,,,,,,,12,,,65,72
31260,note_on,1,0,20,,,,,,,,14,,,50,72
31260,note_on,1,0,11,,,,,,,,6,,,38,72
31260,note_on,1,0,21,,,,,,,,15,,,50,72
31260,note_on,1,0,9,,,,,,,,4,,,58,72
31289,note_on,29,0,16,,,,,,,,10,,,50,0
31289,note_on,29,0,11,,,,,,,,6,,,38,0
31289,note_on,29,0,19,,,,,,,,13,,,58,0
31289,note_on,29,0,15,,,,,,,,10,,,58,0
31289,note_on,29,0,9,,,,,,,,4,,,58,0
31289,note_on,29,0,20,,,,,,,,14,,,50,0
31289,note_on,29,0,21,,,,,,,,15,,,50,0
31289,note_on,0,0,6,,,,,,,,1,,,50,0
31289,note_on,29,0,6,,,,,,,,1,,,58,0
31290,note_on,1,0,15,,,,,,,,10,,,57,72
31290,note_on,1,0,20,,,,,,,,14,,,48,72
31290,note_on,1,0,11,,,,,,,,6,,,36,72
31290,note_on,0,0,6,,,,,,,,1,,,57,72
31290,note_on,1,0,6,,,,,,,,1,,,48,72
31290,note_on,1,0,16,,,,,,,,10,,,48,72
31290,note_on,1,0,9,,,,,,,,4,,,57,72
31290,note_on,1,0,21,,,,,,,,15,,,48,72
31290,note_on,1,0,19,,,,,,,,13,,,57,72
31319,note_on,29,0,15,,,,,,,,10,,,57,0
31319,note_on,29,0,21,,,,,,,,15,,,48,0
31319,note_on,29,0,6,,,,,,,,1,,,57,0
31319,note_on,59,0,8,,,,,,,,3,,,65,0
31319,note_on,29,0,19,,,,,,,,13,,,57,0
31319,note_on,29,0,20,,,,,,,,14,,,48,0
31319,note_on,29,0,9,,,,,,,,4,,,57,0
31319,note_on,59,0,18,,,,,,,,12,,,65,0
31319,note_on,0,0,5,,,,,,,,0,,,65,0
31319,note_on,59,0,5,,,,,,,,0,,,65,0
31319,note_on,0,0,6,,,,,,,,1,,,48,0
31319,note_on,59,0,14,,,,,,,,10,,,65,0
31319,note_on,29,0,11,,,,,,,,6,,,36,0
31319,note_on,119,0,7,,,,,,,,2,,,65,0
31319,note_on,119,0,17,,,,,,,,11,,,65,0
31319,note_on,29,0,16,,,,,,,,10,,,48,0
31320,note_on,1,0,21,,,,,,,,15,,,50,72
31320,note_on,1,0,19,,,,,,,,13,,,58,72
31320,note_on,1,0,15,,,,,,,,10,,,58,72
31320,note_on,1,0,5,,,,,,,,0,,,62,72
31320,note_on,1,0,11,,,,,,,,6,,,38,72
31320,note_on,1,0,9,,,,,,,,4,,,58,72
31320,note_on,1,0,16,,,,,,,,10,,,50,72
31320,note_on,1,0,18,,,,,,,,12,,,62,72
31320,note_on,1,0,6,,,,,,,,1,,,50,72
31320,note_on,1,0,8,,,,,,,,3,,,62,72
31320,note_on,0,0,6,,,,,,,,1,,,58,72
31320,note_on,1,0,14,,,,,,,,10,,,62,72
31320,note_on,1,0,20,,,,,,,,14,,,50,72
31349,note_on,29,0,11,,,,,,,,6,,,38,0
31349,note_on,29,0,16,,,,,,,,10,,,50,0
31349,note_on,29,0,6,,,,,,,,1,,,58,0
31349,note_on,29,0,9,,,,,,,,4,,,58,0
31349,note_on,29,0,15,,,,,,,,10,,,58,0
31349,note_on,29,0,20,,,,,,,,14,,,50,0
31349,note_on,29,0,19,,,,,,,,13,,,58,0
31349,note_on,29,0,21,,,,,,,,15,,,50,0
31349,note_on,0,0,6,,,,,,,,1,,,50,0
31350,note_on,1,0,19,,,,,,,,13,,,60,72
31350,note_on,1,0,11,,,,,,,,6,,,40,72
31350,note_on,0,0,6,,,,,,,,1,,,60,72
31350,note_on,1,0,16,,,,,,,,10,,,52,72
31350,note_on,1,0,20,,,,,,,,14,,,52,72
31350,note_on,1,0,9,,,,,,,,4,,,60,72
31350,note_on,1,0,21,,,,,,,,15,,,52,72
31350,note_on,1,0,15,,,,,,,,10,,,60,72
31350,note_on,1,0,6,,,,,,,,1,,,52,72
31379,note_on,29,0,6,,,,,,,,1,,,60,0
31379,note_on,0,0,6,,,,,,,,1,,,52,0
31379,note_on,29,0,20,,,,,,,,14,,,52,0
31379,note_on,29,0,9,,,,,,,,4,,,60,0
31379,note_on,59,0,8,,,,,,,,3,,,62,0
31379,note_on,29,0,21,,,,,,,,15,,,52,0
31379,note_on,29,0,15,,,,,,,,10,,,60,0
31379,note_on,59,0,18,,,,,,,,12,,,62,0
31379,note_on,59,0,14,,,,,,,,10,,,62,0
31379,note_on,59,0,5,,,,,,,,0,,,62,0
31379,note_on,29,0,11,,,,,,,,6,,,40,0
31379,note_on,29,0,16,,,,,,,,10,,,52,0
31379,note_on,29,0,19,,,,,,,,13,,,60,0
31380,note_on,1,0,15,,,,,,,,10,,,57,72
31380,note_on,1,0,5,,,,,,,,0,,,65,72
31380,note_on,1,0,20,,,,,,,,14,,,48,72
31380,note_on,0,0,5,,,,,,,,0,,,58,72
31380,note_on,1,0,6,,,,,,,,1,,,48,72
31380,note_on,1,0,9,,,,,,,,4,,,57,72
31380,note_on,1,0,11,,,,,,,,6,,,36,72
31380,note_on,1,0,19,,,,,,,,13,,,57,72
31380,note_on,0,0,6,,,,,,,,1,,,57,72
31380,note_on,1,0,18,,,,,,,,12,,,58,72
31380,note_on,1,0,21,,,,,,,,15,,,48,72
31380,note_on,1,0,16,,,,,,,,10,,,48,72
31380,note_on,61,0,7,,,,,,,,2,,,65,72
31380,note_on,1,0,14,,,,,,,,10,,,58,72
31380,note_on,61,0,17,,,,,,,,11,,,65,72
31395,note_on,16,0,8,,,,,,,,3,,,58,72
31409,note_on,0,0,6,,,,,,,,1,,,48,0
31409,note_on,29,0,6,,,,,,,,1,,,57,0
31409,note_on,29,0,21,,,,,,,,15,,,48,0
31409,note_on,29,0,20,,,,,,,,14,,,48,0
31409,note_on,29,0,9,,,,,,,,4,,,57,0
31409,note_on,29,0,15,,,,,,,,10,,,57,0
31409,note_on,29,0,16,,,,,,,,10,,,48,0
31409,note_on,29,0,11,,,,,,,,6,,,36,0
31409,note_on,29,0,19,,,,,,,,13,,,57,0
31410,note_on,1,0,19,,,,,,,,13,,,58,72
31410,note_on,1,0,20,,,,,,,,14,,,50,72
31410,note_on,0,0,6,,,,,,,,1,,,58,72
31410,note_on,1,0,6,,,,,,,,1,,,50,72
31410,note_on,1,0,9,,,,,,,,4,,,58,72
31410,note_on,1,0,11,,,,,,,,6,,,38,72
31410,note_on,1,0,21,,,,,,,,15,,,50,72
31410,note_on,1,0,15,,,,,,,,10,,,58,72
31410,note_on,1,0,16,,,,,,,,10,,,50,72
31439,note_on,29,0,19,,,,,,,,13,,,58,0
31439,note_on,29,0,20,,,,,,,,14,,,50,0
31439,note_on,59,0,7,,,,,,,,2,,,65,0
31439,note_on,59,0,14,,,,,,,,10,,,58,0
31439,note_on,0,0,6,,,,,,,,1,,,50,0
31439,note_on,0,0,5,,,,,,,,0,,,65,0
31439,note_on,29,0,15,,,,,,,,10,,,58,0
31439,note_on,29,0,21,,,,,,,,15,,,50,0
31439,note_on,0,0,21,,,,,,,,15,,,70,0
31439,note_on,0,0,21,,,,,,,,15,,,65,0
31439,note_on,29,0,9,,,,,,,,4,,,58,0
31439,note_on,29,0,6,,,,,,,,1,,,58,0
31439,note_on,59,0,5,,,,,,,,0,,,58,0
31439,note_on,29,0,11,,,,,,,,6,,,38,0
31439,note_on,59,0,17,,,,,,,,11,,,65,0
31439,note_on,59,0,18,,,,,,,,12,,,58,0
31439,note_on,29,0,16,,,,,,,,10,,,50,0
31440,note_on,1,0,20,,,,,,,,14,,,52,72
31440,note_on,1,0,19,,,,,,,,13,,,55,72
31440,note_on,0,0,21,,,,,,,,15,,,60,72
31440,note_on,0,0,21,,,,,,,,15,,,70,72
31440,note_on,0,0,21,,,,,,,,15,,,67,72
31440,note_on,1,0,21,,,,,,,,15,,,52,72
31440,note_on,1,0,17,,,,,,,,11,,,67,72
31440,note_on,1,0,6,,,,,,,,1,,,52,72
31440,note_on,1,0,16,,,,,,,,10,,,52,72
31440,note_on,1,0,15,,,,,,,,10,,,55,72
31440,note_on,1,0,5,,,,,,,,0,,,67,72
31440,note_on,1,0,9,,,,,,,,4,,,55,72
31440,note_on,0,0,6,,,,,,,,1,,,55,72
31440,note_on,1,0,11,,,,,,,,6,,,40,72
31440,note_on,1,0,7,,,,,,,,2,,,67,72
31454,note_on,59,0,8,,,,,,,,3,,,58,0
31469,note_on,29,0,11,,,,,,,,6,,,40,0
31469,note_on,29,0,21,,,,,,,,15,,,52,0
31469,note_on,29,0,16,,,,,,,,10,,,52,0
31469,note_on,29,0,6,,,,,,,,1,,,52,0
31469,note_on,29,0,20,,,,,,,,14,,,52,0
31470,note_on,1,0,21,,,,,,,,15,,,53,72
31470,note_on,1,0,20,,,,,,,,14,,,53,72
31470,note_on,1,0,16,,,,,,,,10,,,53,72
31470,note_on,1,0,11,,,,,,,,6,,,41,72
31470,note_on,1,0,6,,,,,,,,1,,,53,72
31499,note_on,29,0,21,,,,,,,,15,,,53,0
31499,note_on,0,0,6,,,,,,,,1,,,55,0
31499,note_on,29,0,20,,,,,,,,14,,,53,0
31499,note_on,29,0,16,,,,,,,,10,,,53,0
31499,note_on,29,0,6,,,,,,,,1,,,53,0
31499,note_on,29,0,11,,,,,,,,6,,,41,0
31499,note_on,59,0,15,,,,,,,,10,,,55,0
31499,note_on,59,0,19,,,,,,,,13,,,55,0
31499,note_on,59,0,9,,,,,,,,4,,,55,0
31500,note_on,1,0,9,,,,,,,,4,,,57,72
31500,note_on,1,0,21,,,,,,,,15,,,52,72
31500,note_on,1,0,15,,,,,,,,10,,,57,72
31500,note_on,46,0,8,,,,,,,,3,,,67,72
31500,note_on,1,0,11,,,,,,,,6,,,40,72
31500,note_on,1,0,6,,,,,,,,1,,,57,72
31500,note_on,61,0,14,,,,,,,,10,,,67,72
31500,note_on,60,0,5,,,,,,,,0,,,67,72
31500,note_on,61,0,18,,,,,,,,12,,,67,72
31500,note_on,1,0,16,,,,,,,,10,,,52,72
31500,note_on,1,0,19,,,,,,,,13,,,57,72
31500,note_on,0,0,6,,,,,,,,1,,,52,72
31500,note_on,1,0,20,,,,,,,,14,,,52,72
31529,note_on,29,0,11,,,,,,,,6,,,40,0
31529,note_on,29,0,6,,,,,,,,1,,,52,0
31529,note_on,29,0,16,,,,,,,,10,,,52,0
31529,note_on,29,0,21,,,,,,,,15,,,52,0
31529,note_on,29,0,20,,,,,,,,14,,,52,0
31529,note_on,29,0,9,,,,,,,,4,,,57,0
31529,note_on,0,0,6,,,,,,,,1,,,57,0
31529,note_on,29,0,19,,,,,,,,13,,,57,0
31529,note_on,29,0,15,,,,,,,,10,,,57,0
31530,note_on,1,0,20,,,,,,,,14,,,50,72
31530,note_on,1,0,16,,,,,,,,10,,,50,72
31530,note_on,0,0,6,,,,,,,,1,,,58,72
31530,note_on,1,0,6,,,,,,,,1,,,50,72
31530,note_on,1,0,15,,,,,,,,10,,,58,72
31530,note_on,1,0,9,,,,,,,,4,,,58,72
31530,note_on,1,0,21,,,,,,,,15,,,50,72
31530,note_on,1,0,11,,,,,,,,6,,,38,72
31530,note_on,1,0,19,,,,,,,,13,,,58,72
31559,note_on,29,0,11,,,,,,,,6,,,38,0
31559,note_on,59,0,8,,,,,,,,3,,,67,0
31559,note_on,29,0,15,,,,,,,,10,,,58,0
31559,note_on,59,0,14,,,,,,,,10,,,67,0
31559,note_on,59,0,5,,,,,,,,0,,,67,0
31559,note_on,29,0,9,,,,,,,,4,,,58,0
31559,note_on,29,0,21,,,,,,,,15,,,50,0
31559,note_on,29,0,16,,,,,,,,10,,,50,0
31559,note_on,59,0,18,,,,,,,,12,,,67,0
31559,note_on,29,0,6,,,,,,,,1,,,58,0
31559,note_on,0,0,6,,,,,,,,1,,,50,0
31559,note_on,29,0,20,,,,,,,,14,,,50,0
31559,note_on,29,0,19,,,,,,,,13,,,58,0
31560,note_on,1,0,20,,,,,,,,14,,,52,72
31560,note_on,1,0,21,,,,,,,,15,,,52,72
31560,note_on,1,0,15,,,,,,,,10,,,60,72
31560,note_on,1,0,6,,,,,,,,1,,,52,72
31560,note_on,1,0,16,,,,,,,,10,,,52,72
31560,note_on,1,0,19,,,,,,,,13,,,60,72
31560,note_on,1,0,11,,,,,,,,6,,,40,72
31560,note_on,1,0,14,,,,,,,,10,,,64,72
31560,note_on,1,0,5,,,,,,,,0,,,64,72
31560,note_on,1,0,9,,,,,,,,4,,,60,72
31560,note_on,1,0,8,,,,,,,,3,,,64,72
31560,note_on,0,0,6,,,,,,,,1,,,60,72
31560,note_on,1,0,18,,,,,,,,12,,,64,72
31589,note_on,29,0,11,,,,,,,,6,,,40,0
31589,note_on,29,0,21,,,,,,,,15,,,52,0
31589,note_on,29,0,6,,,,,,,,1,,,52,0
31589,note_on,29,0,16,,,,,,,,10,,,52,0
31589,note_on,29,0,20,,,,,,,,14,,,52,0
31590,note_on,1,0,11,,,,,,,,6,,,41,72
31590,note_on,1,0,20,,,,,,,,14,,,53,72
31590,note_on,1,0,6,,,,,,,,1,,,53,72
31590,note_on,1,0,16,,,,,,,,10,,,53,72
31590,note_on,1,0,21,,,,,,,,15,,,53,72
31619,note_on,29,0,20,,,,,,,,14,,,53,0
31619,note_on,179,0,7,,,,,,,,2,,,67,0
31619,note_on,29,0,21,,,,,,,,15,,,53,0
31619,note_on,29,0,11,,,,,,,,6,,,41,0
31619,note_on,59,0,8,,,,,,,,3,,,64,0
31619,note_on,179,0,17,,,,,,,,11,,,67,0
31619,note_on,59,0,14,,,,,,,,10,,,64,0
31619,note_on,29,0,16,,,,,,,,10,,,53,0
31619,note_on,29,0,6,,,,,,,,1,,,53,0
31619,note_on,59,0,5,,,,,,,,0,,,64,0
31619,note_on,0,0,5,,,,,,,,0,,,67,0
31619,note_on,59,0,18,,,,,,,,12,,,64,0
31620,note_on,0,0,5,,,,,,,,0,,,65,72
31620,note_on,1,0,21,,,,,,,,15,,,50,72
31620,note_on,1,0,17,,,,,,,,11,,,65,72
31620,note_on,1,0,16,,,,,,,,10,,,50,72
31620,note_on,1,0,14,,,,,,,,10,,,60,72
31620,note_on,1,0,5,,,,,,,,0,,,60,72
31620,note_on,1,0,18,,,,,,,,12,,,60,72
31620,note_on,1,0,6,,,,,,,,1,,,50,72
31620,note_on,1,0,20,,,,,,,,14,,,50,72
31620,note_on,1,0,11,,,,,,,,6,,,38,72
31620,note_on,1,0,8,,,,,,,,3,,,60,72
31620,note_on,1,0,7,,,,,,,,2,,,65,72
31649,note_on,29,0,6,,,,,,,,1,,,50,0
31649,note_on,29,0,5,,,,,,,,0,,,65,0
31649,note_on,29,0,20,,,,,,,,14,,,50,0
31649,note_on,29,0,7,,,,,,,,2,,,65,0
31649,note_on,29,0,11,,,,,,,,6,,,38,0
31649,note_on,29,0,17,,,,,,,,11,,,65,0
31649,note_on,29,0,16,,,,,,,,10,,,50,0
31649,note_on,29,0,21,,,,,,,,15,,,50,0
31650,note_on,1,0,21,,,,,,,,15,,,52,72
31650,note_on,1,0,20,,,,,,,,14,,,52,72
31650,note_on,1,0,16,,,,,,,,10,,,52,72
31650,note_on,1,0,7,,,,,,,,2,,,67,72
31650,note_on,1,0,6,,,,,,,,1,,,52,72
31650,note_on,1,0,11,,,,,,,,6,,,40,72
31650,note_on,1,0,5,,,,,,,,0,,,67,72
31650,note_on,1,0,17,,,,,,,,11,,,67,72
31679,note_on,0,0,6,,,,,,,,1,,,60,0
31679,note_on,29,0,11,,,,,,,,6,,,40,0
31679,note_on,29,0,6,,,,,,,,1,,,52,0
31679,note_on,29,0,5,,,,,,,,0,,,67,0
31679,note_on,0,0,21,,,,,,,,15,,,70,0
31679,note_on,29,0,7,,,,,,,,2,,,67,0
31679,note_on,0,0,5,,,,,,,,0,,,60,0
31679,note_on,29,0,16,,,,,,,,10,,,52,0
31679,note_on,59,0,8,,,,,,,,3,,,60,0
31679,note_on,0,0,21,,,,,,,,15,,,67,0
31679,note_on,0,0,21,,,,,,,,15,,,60,0
31679,note_on,29,0,21,,,,,,,,15,,,52,0
31679,note_on,119,0,9,,,,,,,,4,,,60,0
31679,note_on,59,0,14,,,,,,,,10,,,60,0
31679,note_on,59,0,18,,,,,,,,12,,,60,0
31679,note_on,29,0,20,,,,,,,,14,,,52,0
31679,note_on,119,0,15,,,,,,,,10,,,60,0
31679,note_on,119,0,19,,,,,,,,13,,,60,0
31679,note_on,29,0,17,,,,,,,,11,,,67,0
31680,note_on,0,0,21,,,,,,,,15,,,69,72
31680,note_on,1,0,5,,,,,,,,0,,,69,72
31680,note_on,0,0,21,,,,,,,,15,,,65,72
31680,note_on,1,0,16,,,,,,,,10,,,53,72
31680,note_on,0,0,21,,,,,,,,15,,,72,72
31680,note_on,1,0,21,,,,,,,,15,,,53,72
31680,note_on,1,0,17,,,,,,,,11,,,69,72
31680,note_on,1,0,11,,,,,,,,6,,,41,72
31680,note_on,1,0,7,,,,,,,,2,,,69,72
31680,note_on,1,0,20,,,,,,,,14,,,53,72
31680,note_on,1,0,6,,,,,,,,1,,,53,72
31739,note_on,59,0,17,,,,,,,,11,,,69,0
31739,note_on,59,0,11,,,,,,,,6,,,41,0
31739,note_on,0,0,21,,,,,,,,15,,,72,0
31739,note_on,0,0,21,,,,,,,,15,,,69,0
31739,note_on,0,0,21,,,,,,,,15,,,53,0
31739,note_on,59,0,20,,,,,,,,14,,,53,0
31739,note_on,59,0,5,,,,,,,,0,,,69,0
31739,note_on,59,0,21,,,,,,,,15,,,65,0
31739,note_on,59,0,6,,,,,,,,1,,,53,0
31739,note_on,59,0,16,,,,,,,,10,,,53,0
31739,note_on,59,0,7,,,,,,,,2,,,69,0
31740,note_on,1,0,6,,,,,,,,1,,,55,72
31740,note_on,61,0,18,,,,,,,,12,,,64,72
31740,note_on,1,0,21,,,,,,,,15,,,55,72
31740,note_on,1,0,16,,,,,,,,10,,,55,72
31740,note_on,1,0,5,,,,,,,,0,,,67,72
31740,note_on,1,0,7,,,,,,,,2,,,67,72
31740,note_on,0,0,21,,,,,,,,15,,,70,72
31740,note_on,61,0,8,,,,,,,,3,,,64,72
31740,note_on,0,0,21,,,,,,,,15,,,64,72
31740,note_on,1,0,17,,,,,,,,11,,,67,72
31740,note_on,1,0,20,,,,,,,,14,,,55,72
31740,note_on,61,0,14,,,,,,,,10,,,64,72
31740,note_on,1,0,11,,,,,,,,6,,,43,72
31740,note_on,0,0,5,,,,,,,,0,,,64,72
31769,note_on,29,0,5,,,,,,,,0,,,64,0
31769,note_on,29,0,21,,,,,,,,15,,,64,0
31769,note_on,0,0,21,,,,,,,,15,,,70,0
31769,note_on,0,0,21,,,,,,,,15,,,55,0
31769,note_on,0,0,5,,,,,,,,0,,,67,0
31769,note_on,29,0,16,,,,,,,,10,,,55,0
31769,note_on,29,0,7,,,,,,,,2,,,67,0
31769,note_on,29,0,6,,,,,,,,1,,,55,0
31769,note_on,29,0,18,,,,,,,,12,,,64,0
31769,note_on,29,0,20,,,,,,,,14,,,55,0
31769,note_on,29,0,8,,,,,,,,3,,,64,0
31769,note_on,29,0,17,,,,,,,,11,,,67,0
31769,note_on,29,0,11,,,,,,,,6,,,43,0
31769,note_on,29,0,14,,,,,,,,10,,,64,0
31770,note_on,1,0,17,,,,,,,,11,,,69,72
31770,note_on,0,0,21,,,,,,,,15,,,69,72
31770,note_on,1,0,21,,,,,,,,15,,,53,72
31770,note_on,0,0,21,,,,,,,,15,,,72,72
31770,note_on,1,0,14,,,,,,,,10,,,65,72
31770,note_on,1,0,20,,,,,,,,14,,,53,72
31770,note_on,1,0,5,,,,,,,,0,,,69,72
31770,note_on,1,0,8,,,,,,,,3,,,65,72
31770,note_on,1,0,16,,,,,,,,10,,,53,72
31770,note_on,1,0,6,,,,,,,,1,,,53,72
31770,note_on,1,0,18,,,,,,,,12,,,65,72
31770,note_on,1,0,7,,,,,,,,2,,,69,72
31770,note_on,1,0,11,,,,,,,,6,,,41,72
31770,note_on,0,0,5,,,,,,,,0,,,65,72
31799,note_on,29,0,6,,,,,,,,1,,,53,0
31799,note_on,29,0,16,,,,,,,,10,,,53,0
31799,note_on,29,0,18,,,,,,,,12,,,65,0
31799,note_on,29,0,20,,,,,,,,14,,,53,0
31799,note_on,29,0,11,,,,,,,,6,,,41,0
31799,note_on,0,0,5,,,,,,,,0,,,69,0
31799,note_on,29,0,14,,,,,,,,10,,,65,0
31799,note_on,29,0,7,,,,,,,,2,,,69,0
31799,note_on,29,0,17,,,,,,,,11,,,69,0
31799,note_on,29,0,21,,,,,,,,15,,,69,0
31799,note_on,0,0,21,,,,,,,,15,,,72,0
31799,note_on,0,0,21,,,,,,,,15,,,53,0
31799,note_on,29,0,8,,,,,,,,3,,,65,0
31799,note_on,29,0,5,,,,,,,,0,,,65,0
31800,note_on,1,0,8,,,,,,,,3,,,67,72
31800,note_on,0,0,21,,,,,,,,15,,,70,72
31800,note_on,1,0,6,,,,,,,,1,,,52,72
31800,note_on,1,0,7,,,,,,,,2,,,70,72
31800,note_on,1,0,17,,,,,,,,11,,,70,72
31800,note_on,1,0,14,,,,,,,,10,,,67,72
31800,note_on,1,0,18,,,,,,,,12,,,67,72
31800,note_on,1,0,11,,,,,,,,6,,,40,72
31800,note_on,1,0,20,,,,,,,,14,,,52,72
31800,note_on,1,0,21,,,,,,,,15,,,52,72
31800,note_on,0,0,5,,,,,,,,0,,,67,72
31800,note_on,1,0,5,,,,,,,,0,,,70,72
31800,note_on,0,0,21,,,,,,,,15,,,67,72
31800,note_on,0,0,21,,,,,,,,15,,,72,72
31800,note_on,1,0,16,,,,,,,,10,,,52,72
31829,note_on,29,0,20,,,,,,,,14,,,52,0
31829,note_on,29,0,16,,,,,,,,10,,,52,0
31829,note_on,29,0,11,,,,,,,,6,,,40,0
31829,note_on,29,0,6,,,,,,,,1,,,52,0
31829,note_on,29,0,21,,,,,,,,15,,,52,0
31830,note_on,1,0,16,,,,,,,,10,,,50,72
31830,note_on,1,0,6,,,,,,,,1,,,50,72
31830,note_on,1,0,21,,,,,,,,15,,,50,72
31830,note_on,1,0,11,,,,,,,,6,,,38,72
31830,note_on,1,0,20,,,,,,,,14,,,50,72
31859,note_on,59,0,18,,,,,,,,12,,,67,0
31859,note_on,59,0,5,,,,,,,,0,,,67,0
31859,note_on,0,0,5,,,,,,,,0,,,70,0
31859,note_on,59,0,17,,,,,,,,11,,,70,0
31859,note_on,29,0,20,,,,,,,,14,,,50,0
31859,note_on,29,0,6,,,,,,,,1,,,50,0
31859,note_on,29,0,16,,,,,,,,10,,,50,0
31859,note_on,59,0,7,,,,,,,,2,,,70,0
31859,note_on,29,0,11,,,,,,,,6,,,38,0
31859,note_on,59,0,14,,,,,,,,10,,,67,0
31859,note_on,59,0,8,,,,,,,,3,,,67,0
31859,note_on,29,0,21,,,,,,,,15,,,50,0
31860,note_on,1,0,14,,,,,,,,10,,,65,72
31860,note_on,1,0,11,,,,,,,,6,,,36,72
31860,note_on,0,0,5,,,,,,,,0,,,65,72
31860,note_on,1,0,5,,,,,,,,0,,,69,72
31860,note_on,1,0,6,,,,,,,,1,,,48,72
31860,note_on,1,0,21,,,,,,,,15,,,48,72
31860,note_on,1,0,20,,,,,,,,14,,,48,72
31860,note_on,1,0,7,,,,,,,,2,,,69,72
31860,note_on,1,0,8,,,,,,,,3,,,65,72
31860,note_on,1,0,16,,,,,,,,10,,,48,72
31860,note_on,1,0,18,,,,,,,,12,,,65,72
31860,note_on,1,0,17,,,,,,,,11,,,69,72
31889,note_on,29,0,14,,,,,,,,10,,,65,0
31889,note_on,29,0,6,,,,,,,,1,,,48,0
31889,note_on,29,0,7,,,,,,,,2,,,69,0
31889,note_on,29,0,18,,,,,,,,12,,,65,0
31889,note_on,29,0,17,,,,,,,,11,,,69,0
31889,note_on,29,0,16,,,,,,,,10,,,48,0
31889,note_on,29,0,11,,,,,,,,6,,,36,0
31889,note_on,29,0,5,,,,,,,,0,,,65,0
31889,note_on,29,0,8,,,,,,,,3,,,65,0
31889,note_on,0,0,5,,,,,,,,0,,,69,0
31889,note_on,29,0,20,,,,,,,,14,,,48,0
31889,note_on,29,0,21,,,,,,,,15,,,48,0
31890,note_on,1,0,14,,,,,,,,10,,,67,72
31890,note_on,1,0,6,,,,,,,,1,,,46,72
31890,note_on,1,0,20,,,,,,,,14,,,46,72
31890,note_on,1,0,7,,,,,,,,2,,,70,72
31890,note_on,1,0,18,,,,,,,,12,,,67,72
31890,note_on,1,0,17,,,,,,,,11,,,70,72
31890,note_on,0,0,5,,,,,,,,0,,,67,72
31890,note_on,1,0,11,,,,,,,,6,,,34,72
31890,note_on,1,0,8,,,,,,,,3,,,67,72
31890,note_on,1,0,16,,,,,,,,10,,,46,72
31890,note_on,1,0,5,,,,,,,,0,,,70,72
31890,note_on,1,0,21,,,,,,,,15,,,46,72
31919,note_on,0,0,21,,,,,,,,15,,,67,0
31919,note_on,0,0,5,,,,,,,,0,,,70,0
31919,note_on,29,0,18,,,,,,,,12,,,67,0
31919,note_on,29,0,14,,,,,,,,10,,,67,0
31919,note_on,0,0,21,,,,,,,,15,,,70,0
31919,note_on,29,0,8,,,,,,,,3,,,67,0
31919,note_on,29,0,21,,,,,,,,15,,,46,0
31919,note_on,0,0,21,,,,,,,,15,,,72,0
31919,note_on,29,0,6,,,,,,,,1,,,46,0
31919,note_on,29,0,20,,,,,,,,14,,,46,0
31919,note_on,29,0,16,,,,,,,,10,,,46,0
31919,note_on,29,0,17,,,,,,,,11,,,70,0
31919,note_on,29,0,5,,,,,,,,0,,,67,0
31919,note_on,29,0,11,,,,,,,,6,,,34,0
31919,note_on,29,0,7,,,,,,,,2,,,70,0
31920,note_on,0,0,21,,,,,,,,15,,,65,72
31920,note_on,1,0,8,,,,,,,,3,,,69,72
31920,note_on,0,0,21,,,,,,,,15,,,72,72
31920,note_on,1,0,21,,,,,,,,15,,,45,72
31920,note_on,1,0,14,,,,,,,,10,,,69,72
31920,note_on,1,0,18,,,,,,,,12,,,69,72
31920,note_on,1,0,11,,,,,,,,6,,,33,72
31920,note_on,1,0,16,,,,,,,,10,,,45,72
31920,note_on,1,0,20,,,,,,,,14,,,45,72
31920,note_on,1,0,7,,,,,,,,2,,,72,72
31920,note_on,1,0,6,,,,,,,,1,,,45,72
31920,note_on,1,0,17,,,,,,,,11,,,72,72
31920,note_on,1,0,5,,,,,,,,0,,,72,72
31920,note_on,0,0,5,,,,,,,,0,,,69,72
31979,note_on,59,0,6,,,,,,,,1,,,45,0
31979,note_on,59,0,11,,,,,,,,6,,,33,0
31979,note_on,59,0,14,,,,,,,,10,,,69,0
31979,note_on,59,0,17,,,,,,,,11,,,72,0
31979,note_on,59,0,18,,,,,,,,12,,,69,0
31979,note_on,0,0,21,,,,,,,,15,,,45,0
31979,note_on,0,0,5,,,,,,,,0,,,72,0
31979,note_on,59,0,20,,,,,,,,14,,,45,0
31979,note_on,59,0,8,,,,,,,,3,,,69,0
31979,note_on,59,0,16,,,,,,,,10,,,45,0
31979,note_on,59,0,7,,,,,,,,2,,,72,0
31979,note_on,59,0,21,,,,,,,,15,,,65,0
31979,note_on,0,0,21,,,,,,,,15,,,72,0
31979,note_on,59,0,5,,,,,,,,0,,,69,0
31980,note_on,1,0,17,,,,,,,,11,,,70,72
31980,note_on,1,0,7,,,,,,,,2,,,70,72
31980,note_on,1,0,5,,,,,,,,0,,,70,72
31980,note_on,1,0,8,,,,,,,,3,,,64,72
31980,note_on,1,0,6,,,,,,,,1,,,48,72
31980,note_on,1,0,11,,,,,,,,6,,,36,72
31980,note_on,1,0,21,,,,,,,,15,,,48,72
31980,note_on,0,0,21,,,,,,,,15,,,64,72
31980,note_on,1,0,18,,,,,,,,12,,,64,72
31980,note_on,0,0,21,,,,,,,,15,,,67,72
31980,note_on,1,0,20,,,,,,,,14,,,48,72
31980,note_on,0,0,21,,,,,,,,15,,,70,72
31980,note_on,1,0,16,,,,,,,,10,,,48,72
31980,note_on,0,0,5,,,,,,,,0,,,64,72
31980,note_on,1,0,14,,,,,,,,10,,,64,72
32039,note_on,59,0,11,,,,,,,,6,,,36,0
32039,note_on,59,0,20,,,,,,,,14,,,48,0
32039,note_on,0,0,21,,,,,,,,15,,,67,0
32039,note_on,0,0,21,,,,,,,,15,,,64,0
32039,note_on,59,0,17,,,,,,,,11,,,70,0
32039,note_on,59,0,6,,,,,,,,1,,,48,0
32039,note_on,59,0,21,,,,,,,,15,,,70,0
32039,note_on,59,0,16,,,,,,,,10,,,48,0
32039,note_on,0,0,5,,,,,,,,0,,,70,0
32039,note_on,59,0,5,,,,,,,,0,,,64,0
32039,note_on,0,0,21,,,,,,,,15,,,48,0
32039,note_on,59,0,18,,,,,,,,12,,,64,0
32039,note_on,59,0,8,,,,,,,,3,,,64,0
32039,note_on,59,0,14,,,,,,,,10,,,64,0
32039,note_on,59,0,7,,,,,,,,2,,,70,0
32040,note_on,0,0,21,,,,,,,,15,,,72,72
32040,note_on,0,0,21,,,,,,,,15,,,69,72
32040,note_on,1,0,21,,,,,,,,15,,,53,72
32040,note_on,1,0,20,,,,,,,,14,,,53,72
32040,note_on,1,0,16,,,,,,,,10,,,53,72
32040,note_on,1,0,18,,,,,,,,12,,,65,72
32040,note_on,1,0,6,,,,,,,,1,,,53,72
32040,note_on,1,0,14,,,,,,,,10,,,65,72
32040,note_on,1,0,8,,,,,,,,3,,,65,72
32040,note_on,1,0,11,,,,,,,,6,,,41,72
32040,note_on,1,0,7,,,,,,,,2,,,69,72
32040,note_on,0,0,5,,,,,,,,0,,,65,72
32040,note_on,1,0,5,,,,,,,,0,,,69,72
32040,note_on,1,0,17,,,,,,,,11,,,69,72
32099,note_on,59,0,5,,,,,,,,0,,,65,0
32099,note_on,59,0,16,,,,,,,,10,,,53,0
32099,note_on,59,0,6,,,,,,,,1,,,53,0
32099,note_on,59,0,8,,,,,,,,3,,,65,0
32099,note_on,59,0,21,,,,,,,,15,,,72,0
32099,note_on,59,0,20,,,,,,,,14,,,53,0
32099,note_on,59,0,7,,,,,,,,2,,,69,0
32099,note_on,0,0,5,,,,,,,,0,,,69,0
32099,note_on,0,0,21,,,,,,,,15,,,53,0
32099,note_on,59,0,18,,,,,,,,12,,,65,0
32099,note_on,59,0,11,,,,,,,,6,,,41,0
32099,note_on,59,0,14,,,,,,,,10,,,65,0
32099,note_on,0,0,21,,,,,,,,15,,,69,0
32099,note_on,59,0,17,,,,,,,,11,,,69,0
32100,note_on,1,0,16,,,,,,,,10,,,51,72
32100,note_on,0,0,5,,,,,,,,0,,,61,72
32100,note_on,1,0,17,,,,,,,,11,,,67,72
32100,note_on,1,0,5,,,,,,,,0,,,67,72
32100,note_on,1,0,20,,,,,,,,14,,,51,72
32100,note_on,1,0,14,,,,,,,,10,,,61,72
32100,note_on,1,0,18,,,,,,,,12,,,61,72
32100,note_on,1,0,6,,,,,,,,1,,,51,72
32100,note_on,1,0,11,,,,,,,,6,,,39,72
32100,note_on,1,0,21,,,,,,,,15,,,51,72
32100,note_on,0,0,21,,,,,,,,15,,,67,72
32100,note_on,0,0,21,,,,,,,,15,,,61,72
32100,note_on,1,0,7,,,,,,,,2,,,67,72
32100,note_on,1,0,8,,,,,,,,3,,,61,72
32159,note_on,59,0,17,,,,,,,,11,,,67,0
32159,note_on,59,0,11,,,,,,,,6,,,39,0
32159,note_on,59,0,5,,,,,,,,0,,,61,0
32159,note_on,0,0,5,,,,,,,,0,,,67,0
32159,note_on,59,0,7,,,,,,,,2,,,67,0
32159,note_on,59,0,8,,,,,,,,3,,,61,0
32159,note_on,59,0,16,,,,,,,,10,,,51,0
32159,note_on,59,0,6,,,,,,,,1,,,51,0
32159,note_on,0,0,21,,,,,,,,15,,,51,0
32159,note_on,0,0,21,,,,,,,,15,,,67,0
32159,note_on,59,0,21,,,,,,,,15,,,61,0
32159,note_on,59,0,18,,,,,,,,12,,,61,0
32159,note_on,59,0,20,,,,,,,,14,,,51,0
32159,note_on,59,0,14,,,,,,,,10,,,61,0
32160,note_on,1,0,8,,,,,,,,3,,,62,72
32160,note_on,1,0,16,,,,,,,,10,,,50,72
32160,note_on,1,0,5,,,,,,,,0,,,66,72
32160,note_on,0,0,5,,,,,,,,0,,,62,72
32160,note_on,481,0,19,,,,,,,,13,,,62,72
32160,note_on,481,0,15,,,,,,,,10,,,62,72
32160,note_on,3961,0,12,,,,,,,,7,,,62,76
32160,note_on,1,0,6,,,,,,,,1,,,50,72
32160,note_on,0,0,6,,,,,,,,1,,,62,72
32160,note_on,481,0,9,,,,,,,,4,,,62,72
32160,note_on,1,0,17,,,,,,,,11,,,66,72
32160,note_on,1,0,18,,,,,,,,12,,,62,72
32160,note_on,1,0,20,,,,,,,,14,,,50,72
32160,note_on,3961,0,13,,,,,,,,8,,,50,72
32160,note_on,1,0,21,,,,,,,,15,,,50,72
32160,note_on,0,0,21,,,,,,,,15,,,66,72
32160,note_on,1,0,14,,,,,,,,10,,,62,72
32160,note_on,0,0,21,,,,,,,,15,,,69,72
32160,note_on,1,0,7,,,,,,,,2,,,66,72
32160,note_on,1,0,11,,,,,,,,6,,,38,72
32219,note_on,59,0,16,,,,,,,,10,,,50,0
32219,note_on,59,0,21,,,,,,,,15,,,69,0
32219,note_on,0,0,21,,,,,,,,15,,,50,0
32219,note_on,59,0,11,,,,,,,,6,,,38,0
32219,note_on,59,0,20,,,,,,,,14,,,50,0
32219,note_on,59,0,6,,,,,,,,1,,,50,0
32219,note_on,0,0,21,,,,,,,,15,,,66,0
32220,note_on,1,0,11,,,,,,,,6,,,48,72
32220,note_on,1,0,21,,,,,,,,15,,,60,72
32220,note_on,1,0,20,,,,,,,,14,,,60,72
32220,note_on,1,0,6,,,,,,,,1,,,60,72
32220,note_on,0,0,21,,,,,,,,15,,,65,72
32220,note_on,0,0,21,,,,,,,,15,,,62,72
32220,note_on,1,0,16,,,,,,,,10,,,60,72
32279,note_on,119,0,13,,,,,,,,8,,,50,0
32279,note_on,119,0,7,,,,,,,,2,,,66,0
32279,note_on,59,0,21,,,,,,,,15,,,62,0
32279,note_on,119,0,18,,,,,,,,12,,,62,0
32279,note_on,119,0,12,,,,,,,,7,,,62,0
32279,note_on,0,0,5,,,,,,,,0,,,66,0
32279,note_on,119,0,8,,,,,,,,3,,,62,0
32279,note_on,119,0,17,,,,,,,,11,,,66,0
32279,note_on,119,0,5,,,,,,,,0,,,62,0
32279,note_on,119,0,14,,,,,,,,10,,,62,0
32279,note_on,0,0,21,,,,,,,,15,,,65,0
32280,note_on,1,0,7,,,,,,,,2,,,67,72
32280,note_on,0,0,21,,,,,,,,15,,,64,72
32280,note_on,1,0,17,,,,,,,,11,,,67,72
32280,note_on,0,0,5,,,,,,,,0,,,64,72
32280,note_on,1,0,18,,,,,,,,12,,,64,72
32280,note_on,1,0,12,,,,,,,,7,,,62,76
32280,note_on,1,0,8,,,,,,,,3,,,64,72
32280,note_on,1,0,5,,,,,,,,0,,,67,72
32280,note_on,1,0,21,,,,,,,,15,,,67,72
32280,note_on,1,0,14,,,,,,,,10,,,64,72
32339,note_on,59,0,18,,,,,,,,12,,,64,0
32339,note_on,59,0,17,,,,,,,,11,,,67,0
32339,note_on,59,0,7,,,,,,,,2,,,67,0
32339,note_on,0,0,5,,,,,,,,0,,,67,0
32339,note_on,179,0,15,,,,,,,,10,,,62,0
32339,note_on,119,0,16,,,,,,,,10,,,60,0
32339,note_on,59,0,14,,,,,,,,10,,,64,0
32339,note_on,59,0,12,,,,,,,,7,,,62,0
32339,note_on,59,0,8,,,,,,,,3,,,64,0
32339,note_on,119,0,11,,,,,,,,6,,,48,0
32339,note_on,119,0,20,,,,,,,,14,,,60,0
32339,note_on,59,0,5,,,,,,,,0,,,64,0
32339,note_on,0,0,21,,,,,,,,15,,,67,0
32339,note_on,179,0,9,,,,,,,,4,,,62,0
32339,note_on,179,0,19,,,,,,,,13,,,62,0
32339,note_on,0,0,21,,,,,,,,15,,,60,0
32339,note_on,0,0,6,,,,,,,,1,,,62,0
32339,note_on,59,0,21,,,,,,,,15,,,64,0
32339,note_on,119,0,6,,,,,,,,1,,,60,0
32340,note_on,1,0,6,,,,,,,,1,,,62,72
32340,note_on,1,0,8,,,,,,,,3,,,66,72
32340,note_on,1,0,21,,,,,,,,15,,,58,72
32340,note_on,1,0,11,,,,,,,,6,,,46,72
32340,note_on,0,0,5,,,,,,,,0,,,66,72
32340,note_on,1,0,5,,,,,,,,0,,,69,72
32340,note_on,1,0,19,,,,,,,,13,,,62,72
32340,note_on,1,0,9,,,,,,,,4,,,62,72
32340,note_on,1,0,20,,,,,,,,14,,,58,72
32340,note_on,1,0,12,,,,,,,,7,,,62,76
32340,note_on,1,0,14,,,,,,,,10,,,66,72
32340,note_on,0,0,21,,,,,,,,15,,,68,72
32340,note_on,1,0,16,,,,,,,,10,,,58,72
32340,note_on,1,0,15,,,,,,,,10,,,62,72
32340,note_on,1,0,17,,,,,,,,11,,,69,72
32340,note_on,1,0,18,,,,,,,,12,,,66,72
32340,note_on,0,0,6,,,,,,,,1,,,58,72
32340,note_on,1,0,7,,,,,,,,2,,,69,72
32340,note_on,0,0,21,,,,,,,,15,,,64,72
32369,note_on,29,0,20,,,,,,,,14,,,58,0
32369,note_on,29,0,16,,,,,,,,10,,,58,0
32369,note_on,29,0,6,,,,,,,,1,,,58,0
32369,note_on,29,0,21,,,,,,,,15,,,58,0
32369,note_on,29,0,11,,,,,,,,6,,,46,0
32370,note_on,1,0,20,,,,,,,,14,,,57,72
32370,note_on,1,0,21,,,,,,,,15,,,57,72
32370,note_on,1,0,16,,,,,,,,10,,,57,72
32370,note_on,1,0,11,,,,,,,,6,,,45,72
32370,note_on,1,0,6,,,,,,,,1,,,57,72
32399,note_on,29,0,20,,,,,,,,14,,,57,0
32399,note_on,59,0,17,,,,,,,,11,,,69,0
32399,note_on,59,0,18,,,,,,,,12,,,66,0
32399,note_on,29,0,11,,,,,,,,6,,,45,0
32399,note_on,29,0,16,,,,,,,,10,,,57,0
32399,note_on,59,0,15,,,,,,,,10,,,62,0
32399,note_on,29,0,6,,,,,,,,1,,,57,0
32399,note_on,59,0,7,,,,,,,,2,,,69,0
32399,note_on,0,0,6,,,,,,,,1,,,62,0
32399,note_on,59,0,8,,,,,,,,3,,,66,0
32399,note_on,59,0,14,,,,,,,,10,,,66,0
32399,note_on,29,0,21,,,,,,,,15,,,57,0
32399,note_on,59,0,19,,,,,,,,13,,,62,0
32399,note_on,0,0,21,,,,,,,,15,,,68,0
32399,note_on,0,0,21,,,,,,,,15,,,64,0
32399,note_on,59,0,5,,,,,,,,0,,,66,0
32399,note_on,59,0,12,,,,,,,,7,,,62,0
32399,note_on,59,0,9,,,,,,,,4,,,62,0
32399,note_on,0,0,5,,,,,,,,0,,,69,0
32400,note_on,0,0,21,,,,,,,,15,,,70,72
32400,note_on,1,0,17,,,,,,,,11,,,70,72
32400,note_on,1,0,12,,,,,,,,7,,,62,76
32400,note_on,1,0,11,,,,,,,,6,,,43,72
32400,note_on,1,0,18,,,,,,,,12,,,67,72
32400,note_on,1,0,16,,,,,,,,10,,,55,72
32400,note_on,1,0,15,,,,,,,,10,,,58,72
32400,note_on,0,0,21,,,,,,,,15,,,62,72
32400,note_on,0,0,5,,,,,,,,0,,,67,72
32400,note_on,1,0,7,,,,,,,,2,,,70,72
32400,note_on,1,0,21,,,,,,,,15,,,55,72
32400,note_on,1,0,9,,,,,,,,4,,,58,72
32400,note_on,1,0,5,,,,,,,,0,,,70,72
32400,note_on,1,0,14,,,,,,,,10,,,67,72
32400,note_on,1,0,6,,,,,,,,1,,,55,72
32400,note_on,0,0,6,,,,,,,,1,,,58,72
32400,note_on,1,0,20,,,,,,,,14,,,55,72
32400,note_on,1,0,8,,,,,,,,3,,,67,72
32400,note_on,1,0,19,,,,,,,,13,,,58,72
32429,note_on,29,0,21,,,,,,,,15,,,55,0
32429,note_on,29,0,16,,,,,,,,10,,,55,0
32429,note_on,29,0,6,,,,,,,,1,,,55,0
32429,note_on,29,0,11,,,,,,,,6,,,43,0
32429,note_on,29,0,20,,,,,,,,14,,,55,0
32430,note_on,1,0,21,,,,,,,,15,,,53,72
32430,note_on,1,0,6,,,,,,,,1,,,53,72
32430,note_on,1,0,16,,,,,,,,10,,,53,72
32430,note_on,1,0,11,,,,,,,,6,,,41,72
32430,note_on,1,0,20,,,,,,,,14,,,53,72
32459,note_on,29,0,20,,,,,,,,14,,,53,0
32459,note_on,29,0,6,,,,,,,,1,,,53,0
32459,note_on,29,0,16,,,,,,,,10,,,53,0
32459,note_on,29,0,11,,,,,,,,6,,,41,0
32459,note_on,29,0,21,,,,,,,,15,,,53,0
32460,note_on,1,0,6,,,,,,,,1,,,51,72
32460,note_on,1,0,21,,,,,,,,15,,,51,72
32460,note_on,1,0,11,,,,,,,,6,,,39,72
32460,note_on,1,0,20,,,,,,,,14,,,51,72
32460,note_on,1,0,16,,,,,,,,10,,,51,72
32489,note_on,29,0,6,,,,,,,,1,,,51,0
32489,note_on,29,0,11,,,,,,,,6,,,39,0
32489,note_on,29,0,20,,,,,,,,14,,,51,0
32489,note_on,29,0,21,,,,,,,,15,,,51,0
32489,note_on,29,0,16,,,,,,,,10,,,51,0
32490,note_on,1,0,6,,,,,,,,1,,,50,72
32490,note_on,1,0,20,,,,,,,,14,,,50,72
32490,note_on,1,0,11,,,,,,,,6,,,38,72
32490,note_on,1,0,21,,,,,,,,15,,,50,72
32490,note_on,1,0,16,,,,,,,,10,,,50,72
32519,note_on,119,0,8,,,,,,,,3,,,67,0
32519,note_on,119,0,19,,,,,,,,13,,,58,0
32519,note_on,119,0,12,,,,,,,,7,,,62,0
32519,note_on,0,0,5,,,,,,,,0,,,70,0
32519,note_on,29,0,6,,,,,,,,1,,,50,0
32519,note_on,29,0,21,,,,,,,,15,,,50,0
32519,note_on,0,0,21,,,,,,,,15,,,62,0
32519,note_on,119,0,14,,,,,,,,10,,,67,0
32519,note_on,0,0,21,,,,,,,,15,,,70,0
32519,note_on,29,0,11,,,,,,,,6,,,38,0
32519,note_on,29,0,20,,,,,,,,14,,,50,0
32519,note_on,119,0,5,,,,,,,,0,,,67,0
32519,note_on,0,0,6,,,,,,,,1,,,58,0
32519,note_on,119,0,9,,,,,,,,4,,,58,0
32519,note_on,119,0,15,,,,,,,,10,,,58,0
32519,note_on,119,0,17,,,,,,,,11,,,70,0
32519,note_on,119,0,18,,,,,,,,12,,,67,0
32519,note_on,119,0,7,,,,,,,,2,,,70,0
32519,note_on,29,0,16,,,,,,,,10,,,50,0
32520,note_on,1,0,19,,,,,,,,13,,,63,72
32520,note_on,1,0,15,,,,,,,,10,,,63,72
32520,note_on,1,0,9,,,,,,,,4,,,63,72
32520,note_on,1,0,16,,,,,,,,10,,,48,72
32520,note_on,1,0,11,,,,,,,,6,,,36,72
32520,note_on,1,0,21,,,,,,,,15,,,48,72
32520,note_on,0,0,21,,,,,,,,15,,,63,72
32520,note_on,0,0,21,,,,,,,,15,,,67,72
32520,note_on,1,0,6,,,,,,,,1,,,48,72
32520,note_on,0,0,6,,,,,,,,1,,,63,72
32520,note_on,1,0,20,,,,,,,,14,,,48,72
32549,note_on,29,0,21,,,,,,,,15,,,48,0
32549,note_on,29,0,16,,,,,,,,10,,,48,0
32549,note_on,29,0,6,,,,,,,,1,,,48,0
32549,note_on,29,0,20,,,,,,,,14,,,48,0
32549,note_on,29,0,11,,,,,,,,6,,,36,0
32550,note_on,1,0,11,,,,,,,,6,,,38,72
32550,note_on,1,0,6,,,,,,,,1,,,50,72
32550,note_on,1,0,21,,,,,,,,15,,,50,72
32550,note_on,1,0,20,,,,,,,,14,,,50,72
32550,note_on,1,0,16,,,,,,,,10,,,50,72
32579,note_on,29,0,21,,,,,,,,15,,,50,0
32579,note_on,29,0,6,,,,,,,,1,,,50,0
32579,note_on,29,0,16,,,,,,,,10,,,50,0
32579,note_on,29,0,20,,,,,,,,14,,,50,0
32579,note_on,29,0,11,,,,,,,,6,,,38,0
32580,note_on,1,0,11,,,,,,,,6,,,34,72
32580,note_on,1,0,6,,,,,,,,1,,,46,72
32580,note_on,1,0,20,,,,,,,,14,,,46,72
32580,note_on,1,0,21,,,,,,,,15,,,46,72
32580,note_on,1,0,16,,,,,,,,10,,,46,72
32609,note_on,29,0,11,,,,,,,,6,,,34,0
32609,note_on,29,0,20,,,,,,,,14,,,46,0
32609,note_on,29,0,21,,,,,,,,15,,,46,0
32609,note_on,29,0,6,,,,,,,,1,,,46,0
32609,note_on,29,0,16,,,,,,,,10,,,46,0
32610,note_on,1,0,20,,,,,,,,14,,,48,72
32610,note_on,1,0,11,,,,,,,,6,,,36,72
32610,note_on,1,0,16,,,,,,,,10,,,48,72
32610,note_on,1,0,6,,,,,,,,1,,,48,72
32610,note_on,1,0,21,,,,,,,,15,,,48,72
32639,note_on,29,0,16,,,,,,,,10,,,48,0
32639,note_on,119,0,19,,,,,,,,13,,,63,0
32639,note_on,0,0,21,,,,,,,,15,,,63,0
32639,note_on,29,0,20,,,,,,,,14,,,48,0
32639,note_on,29,0,11,,,,,,,,6,,,36,0
32639,note_on,0,0,21,,,,,,,,15,,,67,0
32639,note_on,0,0,6,,,,,,,,1,,,63,0
32639,note_on,29,0,6,,,,,,,,1,,,48,0
32639,note_on,119,0,15,,,,,,,,10,,,63,0
32639,note_on,119,0,9,,,,,,,,4,,,63,0
32639,note_on,29,0,21,,,,,,,,15,,,48,0
32640,note_on,1,0,11,,,,,,,,6,,,38,72
32640,note_on,1,0,16,,,,,,,,10,,,50,72
32640,note_on,0,0,21,,,,,,,,15,,,69,72
32640,note_on,1,0,19,,,,,,,,13,,,54,72
32640,note_on,1,0,9,,,,,,,,4,,,54,72
32640,note_on,0,0,21,,,,,,,,15,,,66,72
32640,note_on,1,0,6,,,,,,,,1,,,54,72
32640,note_on,0,0,6,,,,,,,,1,,,50,72
32640,note_on,1,0,20,,,,,,,,14,,,50,72
32640,note_on,1,0,21,,,,,,,,15,,,50,72
32640,note_on,1,0,15,,,,,,,,10,,,54,72
32699,note_on,59,0,21,,,,,,,,15,,,69,0
32700,note_on,181,0,18,,,,,,,,12,,,63,72
32700,note_on,181,0,17,,,,,,,,11,,,69,72
32700,note_on,181,0,8,,,,,,,,3,,,63,72
32700,note_on,1,0,21,,,,,,,,15,,,63,72
32700,note_on,181,0,14,,,,,,,,10,,,63,72
32700,note_on,0,0,21,,,,,,,,15,,,69,72
32700,note_on,181,0,5,,,,,,,,0,,,69,72
32700,note_on,0,0,5,,,,,,,,0,,,63,72
32700,note_on,181,0,7,,,,,,,,2,,,69,72
32759,note_on,59,0,14,,,,,,,,10,,,63,0
32759,note_on,59,0,7,,,,,,,,2,,,69,0
32759,note_on,59,0,18,,,,,,,,12,,,63,0
32759,note_on,0,0,21,,,,,,,,15,,,63,0
32759,note_on,59,0,21,,,,,,,,15,,,69,0
32759,note_on,59,0,8,,,,,,,,3,,,63,0
32759,note_on,59,0,17,,,,,,,,11,,,69,0
32759,note_on,0,0,5,,,,,,,,0,,,69,0
32759,note_on,59,0,5,,,,,,,,0,,,63,0
32760,note_on,1,0,7,,,,,,,,2,,,69,72
32760,note_on,0,0,21,,,,,,,,15,,,69,72
32760,note_on,1,0,17,,,,,,,,11,,,69,72
32760,note_on,0,0,5,,,,,,,,0,,,62,72
32760,note_on,1,0,14,,,,,,,,10,,,62,72
32760,note_on,1,0,18,,,,,,,,12,,,62,72
32760,note_on,1,0,5,,,,,,,,0,,,69,72
32760,note_on,1,0,21,,,,,,,,15,,,62,72
32760,note_on,1,0,8,,,,,,,,3,,,62,72
32819,note_on,59,0,14,,,,,,,,10,,,62,0
32819,note_on,59,0,21,,,,,,,,15,,,69,0
32819,note_on,0,0,6,,,,,,,,1,,,54,0
32819,note_on,179,0,6,,,,,,,,1,,,50,0
32819,note_on,179,0,15,,,,,,,,10,,,54,0
32819,note_on,0,0,21,,,,,,,,15,,,62,0
32819,note_on,0,0,21,,,,,,,,15,,,50,0
32819,note_on,59,0,7,,,,,,,,2,,,69,0
32819,note_on,179,0,9,,,,,,,,4,,,54,0
32819,note_on,59,0,18,,,,,,,,12,,,62,0
32819,note_on,179,0,20,,,,,,,,14,,,50,0
32819,note_on,0,0,5,,,,,,,,0,,,69,0
32819,note_on,59,0,5,,,,,,,,0,,,62,0
32819,note_on,179,0,11,,,,,,,,6,,,38,0
32819,note_on,59,0,17,,,,,,,,11,,,69,0
32819,note_on,179,0,16,,,,,,,,10,,,50,0
32819,note_on,179,0,19,,,,,,,,13,,,54,0
32819,note_on,59,0,8,,,,,,,,3,,,62,0
32820,note_on,1,0,21,,,,,,,,15,,,50,72
32820,note_on,1,0,19,,,,,,,,13,,,54,72
32820,note_on,1,0,15,,,,,,,,10,,,54,72
32820,note_on,0,0,21,,,,,,,,15,,,69,72
32820,note_on,0,0,21,,,,,,,,15,,,60,72
32820,note_on,1,0,18,,,,,,,,12,,,60,72
32820,note_on,0,0,5,,,,,,,,0,,,60,72
32820,note_on,1,0,5,,,,,,,,0,,,69,72
32820,note_on,1,0,8,,,,,,,,3,,,60,72
32820,note_on,1,0,14,,,,,,,,10,,,60,72
32820,note_on,1,0,20,,,,,,,,14,,,50,72
32820,note_on,1,0,6,,,,,,,,1,,,54,72
32820,note_on,1,0,11,,,,,,,,6,,,38,72
32820,note_on,0,0,6,,,,,,,,1,,,50,72
32820,note_on,1,0,16,,,,,,,,10,,,50,72
32820,note_on,1,0,7,,,,,,,,2,,,69,72
32820,note_on,1,0,9,,,,,,,,4,,,54,72
32820,note_on,1,0,17,,,,,,,,11,,,69,72
32879,note_on,59,0,6,,,,,,,,1,,,50,0
32879,note_on,59,0,8,,,,,,,,3,,,60,0
32879,note_on,59,0,21,,,,,,,,15,,,60,0
32879,note_on,0,0,21,,,,,,,,15,,,66,0
32879,note_on,0,0,21,,,,,,,,15,,,50,0
32879,note_on,0,0,21,,,,,,,,15,,,69,0
32879,note_on,0,0,5,,,,,,,,0,,,69,0
32879,note_on,59,0,5,,,,,,,,0,,,60,0
32879,note_on,59,0,11,,,,,,,,6,,,38,0
32879,note_on,59,0,14,,,,,,,,10,,,60,0
32879,note_on,59,0,17,,,,,,,,11,,,69,0
32879,note_on,59,0,20,,,,,,,,14,,,50,0
32879,note_on,59,0,15,,,,,,,,10,,,54,0
32879,note_on,59,0,19,,,,,,,,13,,,54,0
32879,note_on,59,0,18,,,,,,,,12,,,60,0
32879,note_on,0,0,6,,,,,,,,1,,,54,0
32879,note_on,59,0,16,,,,,,,,10,,,50,0
32879,note_on,59,0,9,,,,,,,,4,,,54,0
32879,note_on,59,0,7,,,,,,,,2,,,69,0
32880,note_on,1,0,8,,,,,,,,3,,,58,72
32880,note_on,0,0,5,,,,,,,,0,,,58,72
32880,note_on,1,0,16,,,,,,,,10,,,43,72
32880,note_on,1,0,17,,,,,,,,11,,,70,72
32880,note_on,1,0,5,,,,,,,,0,,,70,72
32880,note_on,1,0,15,,,,,,,,10,,,55,72
32880,note_on,1,0,11,,,,,,,,6,,,31,72
32880,note_on,1,0,19,,,,,,,,13,,,55,72
32880,note_on,1,0,6,,,,,,,,1,,,55,72
32880,note_on,0,0,6,,,,,,,,1,,,43,72
32880,note_on,1,0,9,,,,,,,,4,,,55,72
32880,note_on,1,0,21,,,,,,,,15,,,43,72
32880,note_on,0,0,21,,,,,,,,15,,,67,72
32880,note_on,1,0,20,,,,,,,,14,,,43,72
32880,note_on,1,0,14,,,,,,,,10,,,58,72
32880,note_on,1,0,18,,,,,,,,12,,,58,72
32880,note_on,0,0,21,,,,,,,,15,,,62,72
32880,note_on,0,0,21,,,,,,,,15,,,70,72
32880,note_on,1,0,7,,,,,,,,2,,,70,72
32909,note_on,29,0,5,,,,,,,,0,,,70,0
32909,note_on,29,0,17,,,,,,,,11,,,70,0
32909,note_on,29,0,7,,,,,,,,2,,,70,0
32910,note_on,1,0,7,,,,,,,,2,,,72,72
32910,note_on,1,0,5,,,,,,,,0,,,72,72
32910,note_on,1,0,17,,,,,,,,11,,,72,72
32939,note_on,29,0,17,,,,,,,,11,,,72,0
32939,note_on,59,0,8,,,,,,,,3,,,58,0
32939,note_on,29,0,7,,,,,,,,2,,,72,0
32939,note_on,59,0,18,,,,,,,,12,,,58,0
32939,note_on,29,0,5,,,,,,,,0,,,72,0
32939,note_on,59,0,14,,,,,,,,10,,,58,0
32939,note_on,0,0,5,,,,,,,,0,,,58,0
32940,note_on,1,0,5,,,,,,,,0,,,70,72
32940,note_on,1,0,17,,,,,,,,11,,,70,72
32940,note_on,1,0,8,,,,,,,,3,,,55,72
32940,note_on,1,0,7,,,,,,,,2,,,70,72
32940,note_on,0,0,5,,,,,,,,0,,,55,72
32940,note_on,1,0,18,,,,,,,,12,,,55,72
32940,note_on,1,0,14,,,,,,,,10,,,55,72
32969,note_on,29,0,17,,,,,,,,11,,,70,0
32969,note_on,29,0,7,,,,,,,,2,,,70,0
32969,note_on,29,0,5,,,,,,,,0,,,70,0
32970,note_on,1,0,7,,,,,,,,2,,,69,72
32970,note_on,1,0,5,,,,,,,,0,,,69,72
32970,note_on,1,0,17,,,,,,,,11,,,69,72
32999,note_on,29,0,17,,,,,,,,11,,,69,0
32999,note_on,119,0,9,,,,,,,,4,,,55,0
32999,note_on,59,0,18,,,,,,,,12,,,55,0
32999,note_on,119,0,6,,,,,,,,1,,,43,0
32999,note_on,0,0,6,,,,,,,,1,,,55,0
32999,note_on,29,0,7,,,,,,,,2,,,69,0
32999,note_on,119,0,16,,,,,,,,10,,,43,0
32999,note_on,119,0,20,,,,,,,,14,,,43,0
32999,note_on,0,0,5,,,,,,,,0,,,55,0
32999,note_on,119,0,15,,,,,,,,10,,,55,0
32999,note_on,0,0,21,,,,,,,,15,,,62,0
32999,note_on,0,0,21,,,,,,,,15,,,70,0
32999,note_on,0,0,21,,,,,,,,15,,,43,0
32999,note_on,119,0,21,,,,,,,,15,,,67,0
32999,note_on,119,0,19,,,,,,,,13,,,55,0
32999,note_on,59,0,8,,,,,,,,3,,,55,0
32999,note_on,59,0,14,,,,,,,,10,,,55,0
32999,note_on,119,0,11,,,,,,,,6,,,31,0
32999,note_on,29,0,5,,,,,,,,0,,,69,0
33000,note_on,0,0,5,,,,,,,,0,,,63,72
33000,note_on,1,0,18,,,,,,,,12,,,63,72
33000,note_on,1,0,17,,,,,,,,11,,,70,72
33000,note_on,1,0,5,,,,,,,,0,,,70,72
33000,note_on,1,0,7,,,,,,,,2,,,70,72
33000,note_on,1,0,8,,,,,,,,3,,,63,72
33000,note_on,1,0,14,,,,,,,,10,,,63,72
33029,note_on,29,0,17,,,,,,,,11,,,70,0
33029,note_on,29,0,7,,,,,,,,2,,,70,0
33029,note_on,29,0,5,,,,,,,,0,,,70,0
33030,note_on,1,0,17,,,,,,,,11,,,72,72
33030,note_on,1,0,7,,,,,,,,2,,,72,72
33030,note_on,1,0,5,,,,,,,,0,,,72,72
33059,note_on,29,0,7,,,,,,,,2,,,72,0
33059,note_on,29,0,17,,,,,,,,11,,,72,0
33059,note_on,29,0,5,,,,,,,,0,,,72,0
33060,note_on,61,0,21,,,,,,,,15,,,70,72
33060,note_on,61,0,19,,,,,,,,13,,,55,72
33060,note_on,0,0,21,,,,,,,,15,,,55,72
33060,note_on,61,0,9,,,,,,,,4,,,55,72
33060,note_on,1,0,7,,,,,,,,2,,,69,72
33060,note_on,1,0,5,,,,,,,,0,,,69,72
33060,note_on,61,0,15,,,,,,,,10,,,55,72
33060,note_on,1,0,17,,,,,,,,11,,,69,72
33060,note_on,0,0,21,,,,,,,,15,,,64,72
33060,note_on,61,0,6,,,,,,,,1,,,55,72
33060,note_on,2041,0,10,,,,,,,,5,,,55,72
33089,note_on,29,0,17,,,,,,,,11,,,69,0
33089,note_on,29,0,5,,,,,,,,0,,,69,0
33089,note_on,29,0,7,,,,,,,,2,,,69,0
33090,note_on,1,0,5,,,,,,,,0,,,70,72
33090,note_on,1,0,17,,,,,,,,11,,,70,72
33090,note_on,1,0,7,,,,,,,,2,,,70,72
33119,note_on,59,0,9,,,,,,,,4,,,55,0
33119,note_on,59,0,21,,,,,,,,15,,,64,0
33119,note_on,59,0,10,,,,,,,,5,,,55,0
33119,note_on,59,0,15,,,,,,,,10,,,55,0
33119,note_on,0,0,21,,,,,,,,15,,,70,0
33119,note_on,59,0,19,,,,,,,,13,,,55,0
33119,note_on,29,0,7,,,,,,,,2,,,70,0
33119,note_on,29,0,5,,,,,,,,0,,,70,0
33119,note_on,59,0,6,,,,,,,,1,,,55,0
33119,note_on,29,0,17,,,,,,,,11,,,70,0
33119,note_on,0,0,21,,,,,,,,15,,,55,0
33120,note_on,1,0,10,,,,,,,,5,,,57,72
33120,note_on,0,0,21,,,,,,,,15,,,65,72
33120,note_on,1,0,17,,,,,,,,11,,,72,72
33120,note_on,1,0,21,,,,,,,,15,,,57,72
33120,note_on,0,0,21,,,,,,,,15,,,72,72
33120,note_on,1,0,9,,,,,,,,4,,,57,72
33120,note_on,1,0,5,,,,,,,,0,,,72,72
33120,note_on,1,0,6,,,,,,,,1,,,57,72
33120,note_on,1,0,19,,,,,,,,13,,,57,72
33120,note_on,1,0,15,,,,,,,,10,,,57,72
33120,note_on,1,0,7,,,,,,,,2,,,72,72
33149,note_on,29,0,17,,,,,,,,11,,,72,0
33149,note_on,29,0,7,,,,,,,,2,,,72,0
33149,note_on,29,0,5,,,,,,,,0,,,72,0
33150,note_on,1,0,7,,,,,,,,2,,,74,72
33150,note_on,1,0,5,,,,,,,,0,,,74,72
33150,note_on,1,0,17,,,,,,,,11,,,74,72
33179,note_on,179,0,8,,,,,,,,3,,,63,0
33179,note_on,29,0,17,,,,,,,,11,,,74,0
33179,note_on,179,0,14,,,,,,,,10,,,63,0
33179,note_on,179,0,18,,,,,,,,12,,,63,0
33179,note_on,0,0,5,,,,,,,,0,,,63,0
33179,note_on,29,0,5,,,,,,,,0,,,74,0
33179,note_on,29,0,7,,,,,,,,2,,,74,0
33180,note_on,1,0,17,,,,,,,,11,,,72,72
33180,note_on,1,0,7,,,,,,,,2,,,72,72
33180,note_on,1,0,5,,,,,,,,0,,,60,72
33180,note_on,1,0,14,,,,,,,,10,,,60,72
33180,note_on,0,0,5,,,,,,,,0,,,72,72
33180,note_on,1,0,8,,,,,,,,3,,,60,72
33180,note_on,1,0,18,,,,,,,,12,,,60,72
33209,note_on,29,0,5,,,,,,,,0,,,72,0
33209,note_on,29,0,7,,,,,,,,2,,,72,0
33209,note_on,29,0,17,,,,,,,,11,,,72,0
33210,note_on,1,0,5,,,,,,,,0,,,70,72
33210,note_on,1,0,7,,,,,,,,2,,,70,72
33210,note_on,1,0,17,,,,,,,,11,,,70,72
33239,note_on,59,0,8,,,,,,,,3,,,60,0
33239,note_on,29,0,7,,,,,,,,2,,,70,0
33239,note_on,29,0,5,,,,,,,,0,,,70,0
33239,note_on,0,0,5,,,,,,,,0,,,60,0
33239,note_on,29,0,17,,,,,,,,11,,,70,0
33239,note_on,59,0,14,,,,,,,,10,,,60,0
33239,note_on,59,0,18,,,,,,,,12,,,60,0
33240,note_on,1,0,18,,,,,,,,12,,,65,72
33240,note_on,1,0,8,,,,,,,,3,,,65,72
33240,note_on,1,0,5,,,,,,,,0,,,65,72
33240,note_on,0,0,5,,,,,,,,0,,,72,72
33240,note_on,1,0,14,,,,,,,,10,,,65,72
33240,note_on,1,0,7,,,,,,,,2,,,72,72
33240,note_on,1,0,17,,,,,,,,11,,,72,72
33269,note_on,29,0,7,,,,,,,,2,,,72,0
33269,note_on,29,0,5,,,,,,,,0,,,72,0
33269,note_on,29,0,17,,,,,,,,11,,,72,0
33270,note_on,1,0,7,,,,,,,,2,,,74,72
33270,note_on,1,0,17,,,,,,,,11,,,74,72
33270,note_on,1,0,5,,,,,,,,0,,,74,72
33299,note_on,0,0,21,,,,,,,,15,,,72,0
33299,note_on,0,0,21,,,,,,,,15,,,57,0
33299,note_on,29,0,5,,,,,,,,0,,,74,0
33299,note_on,179,0,15,,,,,,,,10,,,57,0
33299,note_on,179,0,6,,,,,,,,1,,,57,0
33299,note_on,179,0,21,,,,,,,,15,,,65,0
33299,note_on,179,0,19,,,,,,,,13,,,57,0
33299,note_on,29,0,17,,,,,,,,11,,,74,0
33299,note_on,179,0,10,,,,,,,,5,,,57,0
33299,note_on,179,0,9,,,,,,,,4,,,57,0
33299,note_on,29,0,7,,,,,,,,2,,,74,0
33300,note_on,1,0,9,,,,,,,,4,,,55,72
33300,note_on,1,0,17,,,,,,,,11,,,70,72
33300,note_on,1,0,7,,,,,,,,2,,,70,72
33300,note_on,0,0,21,,,,,,,,15,,,74,72
33300,note_on,1,0,6,,,,,,,,1,,,55,72
33300,note_on,1,0,10,,,,,,,,5,,,55,72
33300,note_on,1,0,15,,,,,,,,10,,,55,72
33300,note_on,0,0,21,,,,,,,,15,,,70,72
33300,note_on,1,0,5,,,,,,,,0,,,70,72
33300,note_on,1,0,21,,,,,,,,15,,,55,72
33300,note_on,1,0,19,,,,,,,,13,,,55,72
33329,note_on,29,0,21,,,,,,,,15,,,55,0
33329,note_on,29,0,15,,,,,,,,10,,,55,0
33329,note_on,29,0,10,,,,,,,,5,,,55,0
33329,note_on,29,0,9,,,,,,,,4,,,55,0
33329,note_on,29,0,6,,,,,,,,1,,,55,0
33329,note_on,29,0,7,,,,,,,,2,,,70,0
33329,note_on,29,0,17,,,,,,,,11,,,70,0
33329,note_on,29,0,19,,,,,,,,13,,,55,0
33329,note_on,29,0,5,,,,,,,,0,,,70,0
33330,note_on,1,0,7,,,,,,,,2,,,72,72
33330,note_on,1,0,9,,,,,,,,4,,,57,72
33330,note_on,1,0,15,,,,,,,,10,,,57,72
33330,note_on,1,0,21,,,,,,,,15,,,57,72
33330,note_on,1,0,19,,,,,,,,13,,,57,72
33330,note_on,1,0,6,,,,,,,,1,,,57,72
33330,note_on,1,0,5,,,,,,,,0,,,72,72
33330,note_on,1,0,17,,,,,,,,11,,,72,72
33330,note_on,1,0,10,,,,,,,,5,,,57,72
33359,note_on,29,0,10,,,,,,,,5,,,57,0
33359,note_on,0,0,21,,,,,,,,15,,,70,0
33359,note_on,29,0,19,,,,,,,,13,,,57,0
33359,note_on,0,0,21,,,,,,,,15,,,74,0
33359,note_on,29,0,21,,,,,,,,15,,,57,0
33359,note_on,29,0,5,,,,,,,,0,,,72,0
33359,note_on,29,0,7,,,,,,,,2,,,72,0
33359,note_on,29,0,6,,,,,,,,1,,,57,0
33359,note_on,29,0,15,,,,,,,,10,,,57,0
33359,note_on,29,0,17,,,,,,,,11,,,72,0
33359,note_on,29,0,9,,,,,,,,4,,,57,0
33360,note_on,1,0,17,,,,,,,,11,,,74,72
33360,note_on,1,0,9,,,,,,,,4,,,58,72
33360,note_on,1,0,21,,,,,,,,15,,,58,72
33360,note_on,0,0,21,,,,,,,,15,,,74,72
33360,note_on,0,0,21,,,,,,,,15,,,65,72
33360,note_on,1,0,7,,,,,,,,2,,,74,72
33360,note_on,1,0,15,,,,,,,,10,,,58,72
33360,note_on,1,0,10,,,,,,,,5,,,58,72
33360,note_on,1,0,6,,,,,,,,1,,,58,72
33360,note_on,1,0,5,,,,,,,,0,,,74,72
33360,note_on,1,0,19,,,,,,,,13,,,58,72
33419,note_on,59,0,9,,,,,,,,4,,,58,0
33419,note_on,59,0,15,,,,,,,,10,,,58,0
33419,note_on,59,0,7,,,,,,,,2,,,74,0
33419,note_on,59,0,6,,,,,,,,1,,,58,0
33419,note_on,59,0,21,,,,,,,,15,,,58,0
33419,note_on,59,0,10,,,,,,,,5,,,58,0
33419,note_on,59,0,17,,,,,,,,11,,,74,0
33419,note_on,59,0,5,,,,,,,,0,,,74,0
33419,note_on,59,0,19,,,,,,,,13,,,58,0
33420,note_on,1,0,5,,,,,,,,0,,,75,72
33420,note_on,1,0,15,,,,,,,,10,,,57,72
33420,note_on,1,0,17,,,,,,,,11,,,75,72
33420,note_on,1,0,9,,,,,,,,4,,,57,72
33420,note_on,1,0,19,,,,,,,,13,,,57,72
33420,note_on,1,0,7,,,,,,,,2,,,75,72
33420,note_on,1,0,10,,,,,,,,5,,,57,72
33420,note_on,1,0,6,,,,,,,,1,,,57,72
33420,note_on,1,0,21,,,,,,,,15,,,57,72
33449,note_on,29,0,19,,,,,,,,13,,,57,0
33449,note_on,29,0,9,,,,,,,,4,,,57,0
33449,note_on,29,0,10,,,,,,,,5,,,57,0
33449,note_on,29,0,17,,,,,,,,11,,,75,0
33449,note_on,29,0,21,,,,,,,,15,,,57,0
33449,note_on,29,0,6,,,,,,,,1,,,57,0
33449,note_on,29,0,5,,,,,,,,0,,,75,0
33449,note_on,29,0,7,,,,,,,,2,,,75,0
33449,note_on,29,0,15,,,,,,,,10,,,57,0
33450,note_on,1,0,17,,,,,,,,11,,,74,72
33450,note_on,1,0,21,,,,,,,,15,,,58,72
33450,note_on,1,0,7,,,,,,,,2,,,74,72
33450,note_on,1,0,15,,,,,,,,10,,,58,72
33450,note_on,1,0,10,,,,,,,,5,,,58,72
33450,note_on,1,0,9,,,,,,,,4,,,58,72
33450,note_on,1,0,6,,,,,,,,1,,,58,72
33450,note_on,1,0,5,,,,,,,,0,,,74,72
33450,note_on,1,0,19,,,,,,,,13,,,58,72
33479,note_on,29,0,9,,,,,,,,4,,,58,0
33479,note_on,0,0,21,,,,,,,,15,,,74,0
33479,note_on,0,0,21,,,,,,,,15,,,65,0
33479,note_on,29,0,21,,,,,,,,15,,,58,0
33479,note_on,239,0,18,,,,,,,,12,,,65,0
33479,note_on,29,0,6,,,,,,,,1,,,58,0
33479,note_on,29,0,19,,,,,,,,13,,,58,0
33479,note_on,29,0,15,,,,,,,,10,,,58,0
33479,note_on,0,0,5,,,,,,,,0,,,65,0
33479,note_on,29,0,5,,,,,,,,0,,,74,0
33479,note_on,29,0,17,,,,,,,,11,,,74,0
33479,note_on,239,0,14,,,,,,,,10,,,65,0
33479,note_on,239,0,8,,,,,,,,3,,,65,0
33479,note_on,29,0,10,,,,,,,,5,,,58,0
33479,note_on,29,0,7,,,,,,,,2,,,74,0
33480,note_on,1,0,7,,,,,,,,2,,,72,72
33480,note_on,1,0,19,,,,,,,,13,,,60,72
33480,note_on,1,0,6,,,,,,,,1,,,60,72
33480,note_on,0,0,21,,,,,,,,15,,,63,72
33480,note_on,1,0,8,,,,,,,,3,,,63,72
33480,note_on,1,0,21,,,,,,,,15,,,60,72
33480,note_on,0,0,21,,,,,,,,15,,,67,72
33480,note_on,1,0,9,,,,,,,,4,,,60,72
33480,note_on,1,0,18,,,,,,,,12,,,64,72
33480,note_on,0,0,5,,,,,,,,0,,,72,72
33480,note_on,1,0,5,,,,,,,,0,,,63,72
33480,note_on,1,0,14,,,,,,,,10,,,64,72
33480,note_on,1,0,10,,,,,,,,5,,,60,72
33480,note_on,1,0,17,,,,,,,,11,,,72,72
33480,note_on,1,0,15,,,,,,,,10,,,60,72
33509,note_on,29,0,5,,,,,,,,0,,,72,0
33509,note_on,29,0,7,,,,,,,,2,,,72,0
33509,note_on,29,0,17,,,,,,,,11,,,72,0
33510,note_on,1,0,7,,,,,,,,2,,,70,72
33510,note_on,1,0,5,,,,,,,,0,,,70,72
33510,note_on,1,0,17,,,,,,,,11,,,70,72
33539,note_on,59,0,9,,,,,,,,4,,,60,0
33539,note_on,29,0,17,,,,,,,,11,,,70,0
33539,note_on,59,0,10,,,,,,,,5,,,60,0
33539,note_on,59,0,15,,,,,,,,10,,,60,0
33539,note_on,29,0,7,,,,,,,,2,,,70,0
33539,note_on,29,0,5,,,,,,,,0,,,70,0
33539,note_on,59,0,19,,,,,,,,13,,,60,0
33539,note_on,59,0,6,,,,,,,,1,,,60,0
33539,note_on,59,0,21,,,,,,,,15,,,60,0
33540,note_on,1,0,5,,,,,,,,0,,,69,72
33540,note_on,1,0,10,,,,,,,,5,,,58,72
33540,note_on,1,0,6,,,,,,,,1,,,58,72
33540,note_on,1,0,19,,,,,,,,13,,,58,72
33540,note_on,1,0,17,,,,,,,,11,,,69,72
33540,note_on,1,0,21,,,,,,,,15,,,58,72
33540,note_on,1,0,7,,,,,,,,2,,,69,72
33540,note_on,1,0,9,,,,,,,,4,,,58,72
33540,note_on,1,0,15,,,,,,,,10,,,58,72
33569,note_on,29,0,15,,,,,,,,10,,,58,0
33569,note_on,29,0,6,,,,,,,,1,,,58,0
33569,note_on,29,0,7,,,,,,,,2,,,69,0
33569,note_on,29,0,21,,,,,,,,15,,,58,0
33569,note_on,29,0,17,,,,,,,,11,,,69,0
33569,note_on,29,0,19,,,,,,,,13,,,58,0
33569,note_on,29,0,9,,,,,,,,4,,,58,0
33569,note_on,29,0,5,,,,,,,,0,,,69,0
33569,note_on,29,0,10,,,,,,,,5,,,58,0
33570,note_on,1,0,7,,,,,,,,2,,,67,72
33570,note_on,1,0,6,,,,,,,,1,,,60,72
33570,note_on,1,0,5,,,,,,,,0,,,67,72
33570,note_on,1,0,21,,,,,,,,15,,,60,72
33570,note_on,1,0,9,,,,,,,,4,,,60,72
33570,note_on,1,0,15,,,,,,,,10,,,60,72
33570,note_on,1,0,17,,,,,,,,11,,,67,72
33570,note_on,1,0,10,,,,,,,,5,,,60,72
33570,note_on,1,0,19,,,,,,,,13,,,60,72
33599,note_on,29,0,10,,,,,,,,5,,,60,0
33599,note_on,0,0,21,,,,,,,,15,,,67,0
33599,note_on,119,0,14,,,,,,,,10,,,64,0
33599,note_on,0,0,21,,,,,,,,15,,,63,0
33599,note_on,29,0,7,,,,,,,,2,,,67,0
33599,note_on,0,0,5,,,,,,,,0,,,63,0
33599,note_on,29,0,15,,,,,,,,10,,,60,0
33599,note_on,119,0,8,,,,,,,,3,,,63,0
33599,note_on,29,0,19,,,,,,,,13,,,60,0
33599,note_on,29,0,21,,,,,,,,15,,,60,0
33599,note_on,29,0,9,,,,,,,,4,,,60,0
33599,note_on,29,0,17,,,,,,,,11,,,67,0
33599,note_on,119,0,18,,,,,,,,12,,,64,0
33599,note_on,29,0,5,,,,,,,,0,,,67,0
33599,note_on,29,0,6,,,,,,,,1,,,60,0
33600,note_on,0,0,21,,,,,,,,15,,,66,72
33600,note_on,0,0,21,,,,,,,,15,,,69,72
33600,note_on,1,0,21,,,,,,,,15,,,62,72
33600,note_on,1,0,5,,,,,,,,0,,,66,72
33600,note_on,0,0,5,,,,,,,,0,,,62,72
33600,note_on,1,0,19,,,,,,,,13,,,62,72
33600,note_on,1,0,14,,,,,,,,10,,,62,72
33600,note_on,1,0,7,,,,,,,,2,,,66,72
33600,note_on,1,0,15,,,,,,,,10,,,62,72
33600,note_on,1,0,8,,,,,,,,3,,,62,72
33600,note_on,1,0,17,,,,,,,,11,,,66,72
33600,note_on,1,0,9,,,,,,,,4,,,62,72
33600,note_on,1,0,18,,,,,,,,12,,,62,72
33600,note_on,1,0,6,,,,,,,,1,,,62,72
33600,note_on,1,0,10,,,,,,,,5,,,62,72
33659,note_on,59,0,19,,,,,,,,13,,,62,0
33659,note_on,59,0,9,,,,,,,,4,,,62,0
33659,note_on,59,0,10,,,,,,,,5,,,62,0
33659,note_on,0,0,5,,,,,,,,0,,,66,0
33659,note_on,59,0,14,,,,,,,,10,,,62,0
33659,note_on,0,0,21,,,,,,,,15,,,62,0
33659,note_on,0,0,21,,,,,,,,15,,,66,0
33659,note_on,59,0,21,,,,,,,,15,,,69,0
33659,note_on,59,0,15,,,,,,,,10,,,62,0
33659,note_on,59,0,8,,,,,,,,3,,,62,0
33659,note_on,59,0,18,,,,,,,,12,,,62,0
33659,note_on,59,0,17,,,,,,,,11,,,66,0
33659,note_on,59,0,7,,,,,,,,2,,,66,0
33659,note_on,59,0,6,,,,,,,,1,,,62,0
33659,note_on,59,0,5,,,,,,,,0,,,62,0
33660,note_on,1,0,14,,,,,,,,10,,,66,72
33660,note_on,1,0,8,,,,,,,,3,,,66,72
33660,note_on,0,0,21,,,,,,,,15,,,62,72
33660,note_on,1,0,21,,,,,,,,15,,,60,72
33660,note_on,1,0,15,,,,,,,,10,,,60,72
33660,note_on,1,0,7,,,,,,,,2,,,69,72
33660,note_on,0,0,21,,,,,,,,15,,,66,72
33660,note_on,1,0,19,,,,,,,,13,,,60,72
33660,note_on,0,0,5,,,,,,,,0,,,69,72
33660,note_on,1,0,18,,,,,,,,12,,,66,72
33660,note_on,1,0,10,,,,,,,,5,,,60,72
33660,note_on,1,0,6,,,,,,,,1,,,60,72
33660,note_on,1,0,9,,,,,,,,4,,,60,72
33660,note_on,1,0,17,,,,,,,,11,,,69,72
33660,note_on,1,0,5,,,,,,,,0,,,66,72
33719,note_on,0,0,21,,,,,,,,15,,,62,0
33719,note_on,59,0,9,,,,,,,,4,,,60,0
33719,note_on,0,0,5,,,,,,,,0,,,66,0
33719,note_on,59,0,5,,,,,,,,0,,,69,0
33719,note_on,59,0,14,,,,,,,,10,,,66,0
33719,note_on,0,0,21,,,,,,,,15,,,60,0
33719,note_on,59,0,17,,,,,,,,11,,,69,0
33719,note_on,59,0,6,,,,,,,,1,,,60,0
33719,note_on,59,0,8,,,,,,,,3,,,66,0
33719,note_on,59,0,18,,,,,,,,12,,,66,0
33719,note_on,59,0,15,,,,,,,,10,,,60,0
33719,note_on,59,0,7,,,,,,,,2,,,69,0
33719,note_on,59,0,10,,,,,,,,5,,,60,0
33719,note_on,59,0,19,,,,,,,,13,,,60,0
33719,note_on,59,0,21,,,,,,,,15,,,66,0
33720,note_on,1,0,17,,,,,,,,11,,,74,72
33720,note_on,1,0,7,,,,,,,,2,,,74,72
33720,note_on,1,0,10,,,,,,,,5,,,58,72
33720,note_on,1,0,8,,,,,,,,3,,,67,72
33720,note_on,1,0,18,,,,,,,,12,,,67,72
33720,note_on,1,0,15,,,,,,,,10,,,58,72
33720,note_on,1,0,21,,,,,,,,15,,,58,72
33720,note_on,0,0,21,,,,,,,,15,,,74,72
33720,note_on,1,0,6,,,,,,,,1,,,58,72
33720,note_on,1,0,14,,,,,,,,10,,,67,72
33720,note_on,0,0,21,,,,,,,,15,,,67,72
33720,note_on,1,0,5,,,,,,,,0,,,74,72
33720,note_on,1,0,9,,,,,,,,4,,,58,72
33720,note_on,1,0,19,,,,,,,,13,,,58,72
33720,note_on,0,0,5,,,,,,,,0,,,67,72
33779,note_on,59,0,6,,,,,,,,1,,,58,0
33779,note_on,59,0,10,,,,,,,,5,,,58,0
33779,note_on,59,0,17,,,,,,,,11,,,74,0
33779,note_on,59,0,15,,,,,,,,10,,,58,0
33779,note_on,59,0,18,,,,,,,,12,,,67,0
33779,note_on,0,0,21,,,,,,,,15,,,58,0
33779,note_on,0,0,21,,,,,,,,15,,,74,0
33779,note_on,59,0,7,,,,,,,,2,,,74,0
33779,note_on,59,0,5,,,,,,,,0,,,67,0
33779,note_on,59,0,19,,,,,,,,13,,,58,0
33779,note_on,59,0,9,,,,,,,,4,,,58,0
33779,note_on,0,0,5,,,,,,,,0,,,74,0
33779,note_on,59,0,14,,,,,,,,10,,,67,0
33779,note_on,59,0,21,,,,,,,,15,,,67,0
33779,note_on,59,0,8,,,,,,,,3,,,67,0
33780,note_on,0,0,21,,,,,,,,15,,,72,72
33780,note_on,0,0,21,,,,,,,,15,,,66,72
33780,note_on,1,0,19,,,,,,,,13,,,57,72
33780,note_on,1,0,18,,,,,,,,12,,,69,72
33780,note_on,1,0,8,,,,,,,,3,,,69,72
33780,note_on,1,0,9,,,,,,,,4,,,57,72
33780,note_on,1,0,21,,,,,,,,15,,,57,72
33780,note_on,1,0,17,,,,,,,,11,,,72,72
33780,note_on,1,0,15,,,,,,,,10,,,57,72
33780,note_on,1,0,14,,,,,,,,10,,,69,72
33780,note_on,1,0,5,,,,,,,,0,,,72,72
33780,note_on,0,0,5,,,,,,,,0,,,69,72
33780,note_on,1,0,10,,,,,,,,5,,,57,72
33780,note_on,1,0,7,,,,,,,,2,,,72,72
33780,note_on,1,0,6,,,,,,,,1,,,57,72
33839,note_on,59,0,7,,,,,,,,2,,,72,0
33839,note_on,59,0,14,,,,,,,,10,,,69,0
33839,note_on,59,0,10,,,,,,,,5,,,57,0
33839,note_on,59,0,21,,,,,,,,15,,,66,0
33839,note_on,0,0,21,,,,,,,,15,,,72,0
33839,note_on,0,0,21,,,,,,,,15,,,57,0
33839,note_on,59,0,6,,,,,,,,1,,,57,0
33839,note_on,59,0,9,,,,,,,,4,,,57,0
33839,note_on,59,0,19,,,,,,,,13,,,57,0
33839,note_on,59,0,8,,,,,,,,3,,,69,0
33839,note_on,59,0,17,,,,,,,,11,,,72,0
33839,note_on,59,0,15,,,,,,,,10,,,57,0
33839,note_on,0,0,5,,,,,,,,0,,,72,0
33839,note_on,59,0,5,,,,,,,,0,,,69,0
33839,note_on,59,0,18,,,,,,,,12,,,69,0
33840,note_on,1,0,14,,,,,,,,10,,,62,72
33840,note_on,1,0,7,,,,,,,,2,,,70,72
33840,note_on,841,0,16,,,,,,,,10,,,55,72
33840,note_on,841,0,11,,,,,,,,6,,,43,72
33840,note_on,1,0,15,,,,,,,,10,,,55,72
33840,note_on,841,0,20,,,,,,,,14,,,55,72
33840,note_on,1,0,17,,,,,,,,11,,,70,72
33840,note_on,1,0,8,,,,,,,,3,,,62,72
33840,note_on,1,0,9,,,,,,,,4,,,55,72
33840,note_on,1,0,21,,,,,,,,15,,,55,72
33840,note_on,0,0,21,,,,,,,,15,,,70,72
33840,note_on,0,0,21,,,,,,,,15,,,62,72
33840,note_on,0,0,6,,,,,,,,1,,,55,72
33840,note_on,0,0,5,,,,,,,,0,,,62,72
33840,note_on,1,0,19,,,,,,,,13,,,55,72
33840,note_on,1,0,18,,,,,,,,12,,,62,72
33840,note_on,1,0,5,,,,,,,,0,,,70,72
33840,note_on,1,0,6,,,,,,,,1,,,55,72
33899,note_on,59,0,15,,,,,,,,10,,,55,0
33899,note_on,59,0,19,,,,,,,,13,,,55,0
33899,note_on,59,0,18,,,,,,,,12,,,62,0
33899,note_on,59,0,14,,,,,,,,10,,,62,0
33899,note_on,59,0,9,,,,,,,,4,,,55,0
33899,note_on,59,0,17,,,,,,,,11,,,70,0
33899,note_on,59,0,21,,,,,,,,15,,,62,0
33899,note_on,0,0,21,,,,,,,,15,,,70,0
33899,note_on,59,0,6,,,,,,,,1,,,55,0
33899,note_on,0,0,5,,,,,,,,0,,,70,0
33899,note_on,59,0,5,,,,,,,,0,,,62,0
33899,note_on,59,0,8,,,,,,,,3,,,62,0
33899,note_on,59,0,7,,,,,,,,2,,,70,0
33900,note_on,1,0,8,,,,,,,,3,,,68,72
33900,note_on,1,0,17,,,,,,,,11,,,71,72
33900,note_on,1,0,6,,,,,,,,1,,,65,72
33900,note_on,1,0,15,,,,,,,,10,,,65,72
33900,note_on,1,0,7,,,,,,,,2,,,71,72
33900,note_on,1,0,19,,,,,,,,13,,,65,72
33900,note_on,1,0,5,,,,,,,,0,,,71,72
33900,note_on,0,0,5,,,,,,,,0,,,68,72
33900,note_on,0,0,21,,,,,,,,15,,,60,72
33900,note_on,0,0,21,,,,,,,,15,,,71,72
33900,note_on,1,0,14,,,,,,,,10,,,68,72
33900,note_on,1,0,9,,,,,,,,4,,,65,72
33900,note_on,1,0,18,,,,,,,,12,,,68,72
33900,note_on,1,0,21,,,,,,,,15,,,68,72
33959,note_on,59,0,9,,,,,,,,4,,,65,0
33959,note_on,59,0,6,,,,,,,,1,,,65,0
33959,note_on,59,0,18,,,,,,,,12,,,68,0
33959,note_on,59,0,15,,,,,,,,10,,,65,0
33959,note_on,0,0,5,,,,,,,,0,,,71,0
33959,note_on,59,0,5,,,,,,,,0,,,68,0
33959,note_on,59,0,19,,,,,,,,13,,,65,0
33959,note_on,59,0,17,,,,,,,,11,,,71,0
33959,note_on,59,0,7,,,,,,,,2,,,71,0
33959,note_on,59,0,14,,,,,,,,10,,,68,0
33959,note_on,59,0,21,,,,,,,,15,,,60,0
33959,note_on,0,0,21,,,,,,,,15,,,68,0
33959,note_on,59,0,8,,,,,,,,3,,,68,0
33959,note_on,0,0,21,,,,,,,,15,,,71,0
33960,note_on,1,0,14,,,,,,,,10,,,67,72
33960,note_on,0,0,5,,,,,,,,0,,,67,72
33960,note_on,1,0,5,,,,,,,,0,,,72,72
33960,note_on,1,0,8,,,,,,,,3,,,67,72
33960,note_on,1,0,18,,,,,,,,12,,,67,72
33960,note_on,1,0,19,,,,,,,,13,,,63,72
33960,note_on,0,0,21,,,,,,,,15,,,63,72
33960,note_on,0,0,21,,,,,,,,15,,,72,72
33960,note_on,1,0,17,,,,,,,,11,,,72,72
33960,note_on,1,0,15,,,,,,,,10,,,63,72
33960,note_on,1,0,7,,,,,,,,2,,,72,72
33960,note_on,1,0,6,,,,,,,,1,,,63,72
33960,note_on,1,0,9,,,,,,,,4,,,63,72
33960,note_on,1,0,21,,,,,,,,15,,,67,72
34019,note_on,59,0,17,,,,,,,,11,,,72,0
34019,note_on,59,0,9,,,,,,,,4,,,63,0
34019,note_on,0,0,21,,,,,,,,15,,,67,0
34019,note_on,59,0,6,,,,,,,,1,,,63,0
34019,note_on,0,0,6,,,,,,,,1,,,55,0
34019,note_on,59,0,19,,,,,,,,13,,,63,0
34019,note_on,59,0,7,,,,,,,,2,,,72,0
34019,note_on,59,0,5,,,,,,,,0,,,72,0
34019,note_on,59,0,15,,,,,,,,10,,,63,0
34019,note_on,179,0,11,,,,,,,,6,,,43,0
34019,note_on,179,0,20,,,,,,,,14,,,55,0
34019,note_on,0,0,21,,,,,,,,15,,,63,0
34019,note_on,59,0,21,,,,,,,,15,,,72,0
34019,note_on,0,0,21,,,,,,,,15,,,55,0
34019,note_on,179,0,16,,,,,,,,10,,,55,0
34020,note_on,1,0,19,,,,,,,,13,,,59,72
34020,note_on,1,0,9,,,,,,,,4,,,59,72
34020,note_on,1,0,15,,,,,,,,10,,,59,72
34020,note_on,1,0,20,,,,,,,,14,,,55,72
34020,note_on,0,0,21,,,,,,,,15,,,74,72
34020,note_on,1,0,21,,,,,,,,15,,,55,72
34020,note_on,0,0,21,,,,,,,,15,,,67,72
34020,note_on,1,0,11,,,,,,,,6,,,43,72
34020,note_on,1,0,17,,,,,,,,11,,,74,72
34020,note_on,1,0,7,,,,,,,,2,,,74,72
34020,note_on,0,0,6,,,,,,,,1,,,55,72
34020,note_on,1,0,6,,,,,,,,1,,,59,72
34020,note_on,1,0,16,,,,,,,,10,,,55,72
34020,note_on,0,0,21,,,,,,,,15,,,59,72
34020,note_on,1,0,5,,,,,,,,0,,,74,72
34079,note_on,59,0,17,,,,,,,,11,,,74,0
34079,note_on,59,0,11,,,,,,,,6,,,43,0
34079,note_on,119,0,8,,,,,,,,3,,,67,0
34079,note_on,59,0,16,,,,,,,,10,,,55,0
34079,note_on,119,0,18,,,,,,,,12,,,67,0
34079,note_on,59,0,7,,,,,,,,2,,,74,0
34079,note_on,0,0,6,,,,,,,,1,,,59,0
34079,note_on,0,0,5,,,,,,,,0,,,67,0
34079,note_on,59,0,20,,,,,,,,14,,,55,0
34079,note_on,119,0,14,,,,,,,,10,,,67,0
34079,note_on,59,0,5,,,,,,,,0,,,74,0
34079,note_on,59,0,15,,,,,,,,10,,,59,0
34079,note_on,59,0,21,,,,,,,,15,,,59,0
34079,note_on,59,0,6,,,,,,,,1,,,55,0
34079,note_on,0,0,21,,,,,,,,15,,,74,0
34079,note_on,59,0,9,,,,,,,,4,,,59,0
34079,note_on,59,0,19,,,,,,,,13,,,59,0
34079,note_on,0,0,21,,,,,,,,15,,,55,0
34079,note_on,0,0,21,,,,,,,,15,,,67,0
34080,note_on,0,0,6,,,,,,,,1,,,51,72
34080,note_on,1,0,6,,,,,,,,1,,,60,72
34080,note_on,1,0,19,,,,,,,,13,,,60,72
34080,note_on,1,0,16,,,,,,,,10,,,51,72
34080,note_on,1,0,5,,,,,,,,0,,,75,72
34080,note_on,1,0,20,,,,,,,,14,,,51,72
34080,note_on,0,0,21,,,,,,,,15,,,72,72
34080,note_on,1,0,21,,,,,,,,15,,,51,72
34080,note_on,0,0,21,,,,,,,,15,,,67,72
34080,note_on,1,0,15,,,,,,,,10,,,60,72
34080,note_on,1,0,9,,,,,,,,4,,,60,72
34080,note_on,1,0,11,,,,,,,,6,,,39,72
34080,note_on,1,0,17,,,,,,,,11,,,75,72
34080,note_on,1,0,7,,,,,,,,2,,,75,72
34109,note_on,29,0,17,,,,,,,,11,,,75,0
34109,note_on,29,0,7,,,,,,,,2,,,75,0
34109,note_on,29,0,5,,,,,,,,0,,,75,0
34110,note_on,1,0,17,,,,,,,,11,,,74,72
34110,note_on,1,0,5,,,,,,,,0,,,74,72
34110,note_on,1,0,7,,,,,,,,2,,,74,72
34125,note_on,45,0,6,,,,,,,,1,,,67,72
34139,note_on,59,0,19,,,,,,,,13,,,60,0
34139,note_on,14,0,6,,,,,,,,1,,,60,0
34139,note_on,29,0,7,,,,,,,,2,,,74,0
34139,note_on,29,0,5,,,,,,,,0,,,74,0
34139,note_on,59,0,9,,,,,,,,4,,,60,0
34139,note_on,59,0,15,,,,,,,,10,,,60,0
34139,note_on,29,0,17,,,,,,,,11,,,74,0
34140,note_on,1,0,17,,,,,,,,11,,,72,72
34140,note_on,1,0,9,,,,,,,,4,,,67,72
34140,note_on,1,0,15,,,,,,,,10,,,67,72
34140,note_on,1,0,19,,,,,,,,13,,,67,72
34140,note_on,1,0,5,,,,,,,,0,,,72,72
34140,note_on,1,0,7,,,,,,,,2,,,72,72
34184,note_on,45,0,6,,,,,,,,1,,,67,0
34199,note_on,59,0,5,,,,,,,,0,,,72,0
34199,note_on,119,0,11,,,,,,,,6,,,39,0
34199,note_on,59,0,15,,,,,,,,10,,,67,0
34199,note_on,0,0,21,,,,,,,,15,,,51,0
34199,note_on,119,0,16,,,,,,,,10,,,51,0
34199,note_on,119,0,21,,,,,,,,15,,,72,0
34199,note_on,0,0,21,,,,,,,,15,,,67,0
34199,note_on,59,0,9,,,,,,,,4,,,67,0
34199,note_on,59,0,19,,,,,,,,13,,,67,0
34199,note_on,119,0,20,,,,,,,,14,,,51,0
34199,note_on,59,0,7,,,,,,,,2,,,72,0
34199,note_on,15,0,6,,,,,,,,1,,,51,0
34199,note_on,59,0,17,,,,,,,,11,,,72,0
34200,note_on,0,0,21,,,,,,,,15,,,72,72
34200,note_on,1,0,21,,,,,,,,15,,,56,72
34200,note_on,0,0,21,,,,,,,,15,,,65,72
34200,note_on,1,0,15,,,,,,,,10,,,65,72
34200,note_on,1,0,20,,,,,,,,14,,,56,72
34200,note_on,1,0,6,,,,,,,,1,,,56,72
34200,note_on,0,0,6,,,,,,,,1,,,65,72
34200,note_on,1,0,9,,,,,,,,4,,,65,72
34200,note_on,1,0,16,,,,,,,,10,,,56,72
34200,note_on,1,0,19,,,,,,,,13,,,65,72
34200,note_on,1,0,11,,,,,,,,6,,,44,72
34229,note_on,29,0,9,,,,,,,,4,,,65,0
34229,note_on,29,0,19,,,,,,,,13,,,65,0
34229,note_on,29,0,15,,,,,,,,10,,,65,0
34229,note_on,29,0,6,,,,,,,,1,,,65,0
34230,note_on,1,0,15,,,,,,,,10,,,63,72
34230,note_on,1,0,6,,,,,,,,1,,,63,72
34230,note_on,1,0,9,,,,,,,,4,,,63,72
34230,note_on,1,0,19,,,,,,,,13,,,63,72
34259,note_on,29,0,19,,,,,,,,13,,,63,0
34259,note_on,29,0,9,,,,,,,,4,,,63,0
34259,note_on,29,0,6,,,,,,,,1,,,63,0
34259,note_on,29,0,15,,,,,,,,10,,,63,0
34260,note_on,1,0,19,,,,,,,,13,,,62,72
34260,note_on,1,0,6,,,,,,,,1,,,62,72
34260,note_on,1,0,9,,,,,,,,4,,,62,72
34260,note_on,1,0,15,,,,,,,,10,,,62,72
34289,note_on,29,0,15,,,,,,,,10,,,62,0
34289,note_on,29,0,19,,,,,,,,13,,,62,0
34289,note_on,29,0,6,,,,,,,,1,,,62,0
34289,note_on,29,0,9,,,,,,,,4,,,62,0
34290,note_on,1,0,19,,,,,,,,13,,,60,72
34290,note_on,1,0,6,,,,,,,,1,,,60,72
34290,note_on,1,0,9,,,,,,,,4,,,60,72
34290,note_on,1,0,15,,,,,,,,10,,,60,72
34319,note_on,0,0,21,,,,,,,,15,,,72,0
34319,note_on,119,0,21,,,,,,,,15,,,65,0
34319,note_on,29,0,19,,,,,,,,13,,,60,0
34319,note_on,0,0,21,,,,,,,,15,,,56,0
34319,note_on,29,0,6,,,,,,,,1,,,60,0
34319,note_on,119,0,16,,,,,,,,10,,,56,0
34319,note_on,29,0,15,,,,,,,,10,,,60,0
34319,note_on,29,0,9,,,,,,,,4,,,60,0
34319,note_on,0,0,6,,,,,,,,1,,,56,0
34319,note_on,119,0,20,,,,,,,,14,,,56,0
34319,note_on,119,0,11,,,,,,,,6,,,44,0
34320,note_on,1,0,6,,,,,,,,1,,,47,72
34320,note_on,0,0,6,,,,,,,,1,,,62,72
34320,note_on,1,0,11,,,,,,,,6,,,35,72
34320,note_on,1,0,15,,,,,,,,10,,,62,72
34320,note_on,1,0,20,,,,,,,,14,,,47,72
34320,note_on,1,0,16,,,,,,,,10,,,47,72
34320,note_on,0,0,21,,,,,,,,15,,,71,72
34320,note_on,0,0,21,,,,,,,,15,,,62,72
34320,note_on,0,0,21,,,,,,,,15,,,47,72
34320,note_on,1,0,19,,,,,,,,13,,,62,72
34320,note_on,1,0,21,,,,,,,,15,,,65,72
34320,note_on,1,0,9,,,,,,,,4,,,62,72
34349,note_on,29,0,6,,,,,,,,1,,,62,0
34349,note_on,29,0,9,,,,,,,,4,,,62,0
34349,note_on,29,0,19,,,,,,,,13,,,62,0
34349,note_on,29,0,15,,,,,,,,10,,,62,0
34350,note_on,1,0,6,,,,,,,,1,,,60,72
34350,note_on,1,0,19,,,,,,,,13,,,60,72
34350,note_on,1,0,15,,,,,,,,10,,,60,72
34350,note_on,1,0,9,,,,,,,,4,,,60,72
34379,note_on,29,0,15,,,,,,,,10,,,60,0
34379,note_on,29,0,19,,,,,,,,13,,,60,0
34379,note_on,29,0,6,,,,,,,,1,,,60,0
34379,note_on,29,0,9,,,,,,,,4,,,60,0
34380,note_on,301,0,18,,,,,,,,12,,,62,72
34380,note_on,181,0,5,,,,,,,,0,,,62,72
34380,note_on,1,0,6,,,,,,,,1,,,59,72
34380,note_on,1,0,15,,,,,,,,10,,,59,72
34380,note_on,301,0,14,,,,,,,,10,,,62,72
34380,note_on,1,0,9,,,,,,,,4,,,59,72
34380,note_on,301,0,8,,,,,,,,3,,,62,72
34380,note_on,1,0,19,,,,,,,,13,,,59,72
34409,note_on,29,0,19,,,,,,,,13,,,59,0
34409,note_on,29,0,6,,,,,,,,1,,,59,0
34409,note_on,29,0,15,,,,,,,,10,,,59,0
34409,note_on,29,0,9,,,,,,,,4,,,59,0
34410,note_on,1,0,19,,,,,,,,13,,,57,72
34410,note_on,1,0,15,,,,,,,,10,,,57,72
34410,note_on,1,0,6,,,,,,,,1,,,57,72
34410,note_on,1,0,9,,,,,,,,4,,,57,72
34439,note_on,0,0,21,,,,,,,,15,,,65,0
34439,note_on,0,0,21,,,,,,,,15,,,62,0
34439,note_on,29,0,9,,,,,,,,4,,,57,0
34439,note_on,59,0,8,,,,,,,,3,,,62,0
34439,note_on,29,0,15,,,,,,,,10,,,57,0
34439,note_on,59,0,14,,,,,,,,10,,,62,0
34439,note_on,29,0,19,,,,,,,,13,,,57,0
34439,note_on,59,0,18,,,,,,,,12,,,62,0
34439,note_on,29,0,6,,,,,,,,1,,,57,0
34439,note_on,59,0,5,,,,,,,,0,,,62,0
34439,note_on,119,0,21,,,,,,,,15,,,71,0
34440,note_on,1,0,21,,,,,,,,15,,,62,72
34440,note_on,0,0,21,,,,,,,,15,,,67,72
34440,note_on,0,0,21,,,,,,,,15,,,71,72
34440,note_on,1,0,19,,,,,,,,13,,,55,72
34440,note_on,1,0,15,,,,,,,,10,,,55,72
34440,note_on,1,0,6,,,,,,,,1,,,55,72
34440,note_on,1,0,5,,,,,,,,0,,,62,72
34440,note_on,1,0,9,,,,,,,,4,,,55,72
34440,note_on,1,0,14,,,,,,,,10,,,62,72
34440,note_on,1,0,8,,,,,,,,3,,,62,72
34440,note_on,1,0,18,,,,,,,,12,,,62,72
34469,note_on,29,0,9,,,,,,,,4,,,55,0
34469,note_on,29,0,19,,,,,,,,13,,,55,0
34469,note_on,29,0,15,,,,,,,,10,,,55,0
34469,note_on,29,0,6,,,,,,,,1,,,55,0
34470,note_on,1,0,15,,,,,,,,10,,,56,72
34470,note_on,1,0,9,,,,,,,,4,,,56,72
34470,note_on,1,0,6,,,,,,,,1,,,56,72
34470,note_on,1,0,19,,,,,,,,13,,,56,72
34499,note_on,59,0,5,,,,,,,,0,,,62,0
34499,note_on,179,0,16,,,,,,,,10,,,47,0
34499,note_on,179,0,20,,,,,,,,14,,,47,0
34499,note_on,59,0,18,,,,,,,,12,,,62,0
34499,note_on,179,0,11,,,,,,,,6,,,35,0
34499,note_on,29,0,9,,,,,,,,4,,,56,0
34499,note_on,29,0,19,,,,,,,,13,,,56,0
34499,note_on,0,0,21,,,,,,,,15,,,47,0
34499,note_on,59,0,21,,,,,,,,15,,,67,0
34499,note_on,29,0,6,,,,,,,,1,,,56,0
34499,note_on,59,0,8,,,,,,,,3,,,62,0
34499,note_on,59,0,14,,,,,,,,10,,,62,0
34499,note_on,0,0,6,,,,,,,,1,,,47,0
34499,note_on,29,0,15,,,,,,,,10,,,56,0
34500,note_on,1,0,5,,,,,,,,0,,,62,72
34500,note_on,1,0,6,,,,,,,,1,,,47,72
34500,note_on,1,0,21,,,,,,,,15,,,47,72
34500,note_on,1,0,19,,,,,,,,13,,,53,72
34500,note_on,1,0,8,,,,,,,,3,,,62,72
34500,note_on,0,0,21,,,,,,,,15,,,65,72
34500,note_on,0,0,6,,,,,,,,1,,,53,72
34500,note_on,1,0,20,,,,,,,,14,,,47,72
34500,note_on,1,0,15,,,,,,,,10,,,53,72
34500,note_on,1,0,14,,,,,,,,10,,,62,72
34500,note_on,1,0,11,,,,,,,,6,,,35,72
34500,note_on,1,0,9,,,,,,,,4,,,53,72
34500,note_on,1,0,16,,,,,,,,10,,,47,72
34500,note_on,1,0,18,,,,,,,,12,,,62,72
34529,note_on,29,0,9,,,,,,,,4,,,53,0
34529,note_on,29,0,19,,,,,,,,13,,,53,0
34529,note_on,29,0,15,,,,,,,,10,,,53,0
34529,note_on,29,0,6,,,,,,,,1,,,53,0
34530,note_on,1,0,15,,,,,,,,10,,,55,72
34530,note_on,1,0,19,,,,,,,,13,,,55,72
34530,note_on,1,0,6,,,,,,,,1,,,55,72
34530,note_on,1,0,9,,,,,,,,4,,,55,72
34559,note_on,59,0,20,,,,,,,,14,,,47,0
34559,note_on,59,0,5,,,,,,,,0,,,62,0
34559,note_on,59,0,11,,,,,,,,6,,,35,0
34559,note_on,29,0,6,,,,,,,,1,,,55,0
34559,note_on,0,0,21,,,,,,,,15,,,71,0
34559,note_on,0,0,6,,,,,,,,1,,,47,0
34559,note_on,0,0,21,,,,,,,,15,,,62,0
34559,note_on,59,0,21,,,,,,,,15,,,65,0
34559,note_on,59,0,14,,,,,,,,10,,,62,0
34559,note_on,59,0,8,,,,,,,,3,,,62,0
34559,note_on,59,0,18,,,,,,,,12,,,62,0
34559,note_on,29,0,15,,,,,,,,10,,,55,0
34559,note_on,59,0,16,,,,,,,,10,,,47,0
34559,note_on,29,0,9,,,,,,,,4,,,55,0
34559,note_on,29,0,19,,,,,,,,13,,,55,0
34559,note_on,0,0,21,,,,,,,,15,,,47,0
34560,note_on,1,0,9,,,,,,,,4,,,51,72
34560,note_on,1,0,8,,,,,,,,3,,,63,72
34560,note_on,1,0,19,,,,,,,,13,,,51,72
34560,note_on,1,0,6,,,,,,,,1,,,51,72
34560,note_on,0,0,6,,,,,,,,1,,,48,72
34560,note_on,1,0,15,,,,,,,,10,,,51,72
34560,note_on,1,0,18,,,,,,,,12,,,63,72
34560,note_on,0,0,21,,,,,,,,15,,,63,72
34560,note_on,0,0,21,,,,,,,,15,,,67,72
34560,note_on,1,0,14,,,,,,,,10,,,63,72
34560,note_on,1,0,16,,,,,,,,10,,,48,72
34560,note_on,1,0,5,,,,,,,,0,,,63,72
34560,note_on,1,0,20,,,,,,,,14,,,48,72
34560,note_on,1,0,11,,,,,,,,6,,,36,72
34560,note_on,1,0,21,,,,,,,,15,,,48,72
34589,note_on,29,0,8,,,,,,,,3,,,63,0
34589,note_on,29,0,14,,,,,,,,10,,,63,0
34589,note_on,29,0,5,,,,,,,,0,,,63,0
34589,note_on,29,0,18,,,,,,,,12,,,63,0
34590,note_on,1,0,14,,,,,,,,10,,,65,72
34590,note_on,1,0,18,,,,,,,,12,,,65,72
34590,note_on,1,0,5,,,,,,,,0,,,65,72
34590,note_on,1,0,8,,,,,,,,3,,,65,72
34619,note_on,59,0,15,,,,,,,,10,,,51,0
34619,note_on,29,0,18,,,,,,,,12,,,65,0
34619,note_on,29,0,14,,,,,,,,10,,,65,0
34619,note_on,59,0,6,,,,,,,,1,,,51,0
34619,note_on,59,0,9,,,,,,,,4,,,51,0
34619,note_on,29,0,5,,,,,,,,0,,,65,0
34619,note_on,59,0,19,,,,,,,,13,,,51,0
34619,note_on,29,0,8,,,,,,,,3,,,65,0
34620,note_on,1,0,15,,,,,,,,10,,,48,72
34620,note_on,1,0,19,,,,,,,,13,,,48,72
34620,note_on,1,0,14,,,,,,,,10,,,63,72
34620,note_on,1,0,18,,,,,,,,12,,,63,72
34620,note_on,1,0,5,,,,,,,,0,,,63,72
34620,note_on,1,0,8,,,,,,,,3,,,63,72
34620,note_on,1,0,9,,,,,,,,4,,,48,72
34620,note_on,1,0,6,,,,,,,,1,,,48,72
34649,note_on,29,0,18,,,,,,,,12,,,63,0
34649,note_on,29,0,8,,,,,,,,3,,,63,0
34649,note_on,29,0,5,,,,,,,,0,,,63,0
34649,note_on,29,0,14,,,,,,,,10,,,63,0
34650,note_on,1,0,18,,,,,,,,12,,,62,72
34650,note_on,1,0,14,,,,,,,,10,,,62,72
34650,note_on,1,0,8,,,,,,,,3,,,62,72
34650,note_on,1,0,5,,,,,,,,0,,,62,72
34679,note_on,119,0,11,,,,,,,,6,,,36,0
34679,note_on,29,0,18,,,,,,,,12,,,62,0
34679,note_on,0,0,21,,,,,,,,15,,,48,0
34679,note_on,29,0,5,,,,,,,,0,,,62,0
34679,note_on,0,0,21,,,,,,,,15,,,63,0
34679,note_on,119,0,16,,,,,,,,10,,,48,0
34679,note_on,119,0,21,,,,,,,,15,,,67,0
34679,note_on,119,0,20,,,,,,,,14,,,48,0
34679,note_on,29,0,8,,,,,,,,3,,,62,0
34679,note_on,59,0,15,,,,,,,,10,,,48,0
34679,note_on,59,0,9,,,,,,,,4,,,48,0
34679,note_on,59,0,19,,,,,,,,13,,,48,0
34679,note_on,0,0,6,,,,,,,,1,,,48,0
34679,note_on,59,0,6,,,,,,,,1,,,48,0
34679,note_on,29,0,14,,,,,,,,10,,,62,0
34680,note_on,1,0,14,,,,,,,,10,,,63,72
34680,note_on,1,0,15,,,,,,,,10,,,56,72
34680,note_on,1,0,9,,,,,,,,4,,,56,72
34680,note_on,1,0,19,,,,,,,,13,,,56,72
34680,note_on,1,0,6,,,,,,,,1,,,56,72
34680,note_on,1,0,5,,,,,,,,0,,,63,72
34680,note_on,1,0,18,,,,,,,,12,,,63,72
34680,note_on,1,0,8,,,,,,,,3,,,63,72
34709,note_on,29,0,5,,,,,,,,0,,,63,0
34709,note_on,29,0,18,,,,,,,,12,,,63,0
34709,note_on,29,0,8,,,,,,,,3,,,63,0
34709,note_on,29,0,14,,,,,,,,10,,,63,0
34710,note_on,1,0,5,,,,,,,,0,,,65,72
34710,note_on,1,0,18,,,,,,,,12,,,65,72
34710,note_on,1,0,14,,,,,,,,10,,,65,72
34710,note_on,1,0,8,,,,,,,,3,,,65,72
34739,note_on,29,0,14,,,,,,,,10,,,65,0
34739,note_on,29,0,18,,,,,,,,12,,,65,0
34739,note_on,29,0,5,,,,,,,,0,,,65,0
34739,note_on,29,0,8,,,,,,,,3,,,65,0
34740,note_on,60,0,6,,,,,,,,1,,,48,72
34740,note_on,1,0,5,,,,,,,,0,,,62,72
34740,note_on,1,0,8,,,,,,,,3,,,62,72
34740,note_on,61,0,20,,,,,,,,14,,,48,72
34740,note_on,0,0,21,,,,,,,,15,,,63,72
34740,note_on,61,0,16,,,,,,,,10,,,48,72
34740,note_on,1,0,14,,,,,,,,10,,,62,72
34740,note_on,61,0,11,,,,,,,,6,,,36,72
34740,note_on,1,0,18,,,,,,,,12,,,62,72
34740,note_on,0,0,21,,,,,,,,15,,,68,72
34740,note_on,61,0,21,,,,,,,,15,,,48,72
34769,note_on,29,0,14,,,,,,,,10,,,62,0
34769,note_on,29,0,8,,,,,,,,3,,,62,0
34769,note_on,29,0,5,,,,,,,,0,,,62,0
34769,note_on,29,0,18,,,,,,,,12,,,62,0
34770,note_on,1,0,8,,,,,,,,3,,,63,72
34770,note_on,1,0,5,,,,,,,,0,,,63,72
34770,note_on,1,0,18,,,,,,,,12,,,63,72
34770,note_on,1,0,14,,,,,,,,10,,,63,72
34799,note_on,29,0,14,,,,,,,,10,,,63,0
34799,note_on,59,0,21,,,,,,,,15,,,68,0
34799,note_on,59,0,20,,,,,,,,14,,,48,0
34799,note_on,0,0,21,,,,,,,,15,,,48,0
34799,note_on,59,0,16,,,,,,,,10,,,48,0
34799,note_on,29,0,18,,,,,,,,12,,,63,0
34799,note_on,29,0,8,,,,,,,,3,,,63,0
34799,note_on,0,0,21,,,,,,,,15,,,63,0
34799,note_on,29,0,5,,,,,,,,0,,,63,0
34799,note_on,59,0,11,,,,,,,,6,,,36,0
34799,note_on,59,0,6,,,,,,,,1,,,48,0
34800,note_on,1,0,14,,,,,,,,10,,,65,72
34800,note_on,1,0,5,,,,,,,,0,,,65,72
34800,note_on,1,0,16,,,,,,,,10,,,50,72
34800,note_on,1,0,6,,,,,,,,1,,,50,72
34800,note_on,1,0,20,,,,,,,,14,,,50,72
34800,note_on,0,0,21,,,,,,,,15,,,65,72
34800,note_on,1,0,8,,,,,,,,3,,,65,72
34800,note_on,1,0,18,,,,,,,,12,,,65,72
34800,note_on,1,0,21,,,,,,,,15,,,50,72
34800,note_on,1,0,11,,,,,,,,6,,,38,72
34800,note_on,0,0,21,,,,,,,,15,,,68,72
34829,note_on,29,0,5,,,,,,,,0,,,65,0
34829,note_on,29,0,14,,,,,,,,10,,,65,0
34829,note_on,29,0,8,,,,,,,,3,,,65,0
34829,note_on,29,0,18,,,,,,,,12,,,65,0
34830,note_on,1,0,5,,,,,,,,0,,,67,72
34830,note_on,1,0,18,,,,,,,,12,,,67,72
34830,note_on,1,0,14,,,,,,,,10,,,67,72
34830,note_on,1,0,8,,,,,,,,3,,,67,72
34859,note_on,179,0,15,,,,,,,,10,,,56,0
34859,note_on,179,0,9,,,,,,,,4,,,56,0
34859,note_on,179,0,19,,,,,,,,13,,,56,0
34859,note_on,29,0,14,,,,,,,,10,,,67,0
34859,note_on,29,0,5,,,,,,,,0,,,67,0
34859,note_on,59,0,6,,,,,,,,1,,,56,0
34859,note_on,29,0,18,,,,,,,,12,,,67,0
34859,note_on,29,0,8,,,,,,,,3,,,67,0
34860,note_on,1,0,19,,,,,,,,13,,,53,72
34860,note_on,1,0,14,,,,,,,,10,,,65,72
34860,note_on,1,0,15,,,,,,,,10,,,53,72
34860,note_on,1,0,6,,,,,,,,1,,,53,72
34860,note_on,1,0,5,,,,,,,,0,,,65,72
34860,note_on,1,0,9,,,,,,,,4,,,53,72
34860,note_on,1,0,18,,,,,,,,12,,,65,72
34860,note_on,1,0,8,,,,,,,,3,,,65,72
34889,note_on,29,0,14,,,,,,,,10,,,65,0
34889,note_on,29,0,8,,,,,,,,3,,,65,0
34889,note_on,29,0,5,,,,,,,,0,,,65,0
34889,note_on,29,0,18,,,,,,,,12,,,65,0
34890,note_on,1,0,14,,,,,,,,10,,,63,72
34890,note_on,1,0,18,,,,,,,,12,,,63,72
34890,note_on,1,0,5,,,,,,,,0,,,63,72
34890,note_on,1,0,8,,,,,,,,3,,,63,72
34919,note_on,29,0,18,,,,,,,,12,,,63,0
34919,note_on,29,0,14,,,,,,,,10,,,63,0
34919,note_on,59,0,6,,,,,,,,1,,,53,0
34919,note_on,29,0,8,,,,,,,,3,,,63,0
34919,note_on,59,0,19,,,,,,,,13,,,53,0
34919,note_on,59,0,15,,,,,,,,10,,,53,0
34919,note_on,59,0,9,,,,,,,,4,,,53,0
34919,note_on,0,0,21,,,,,,,,15,,,65,0
34919,note_on,119,0,21,,,,,,,,15,,,68,0
34919,note_on,29,0,5,,,,,,,,0,,,63,0
34920,note_on,1,0,18,,,,,,,,12,,,65,72
34920,note_on,1,0,9,,,,,,,,4,,,58,72
34920,note_on,1,0,14,,,,,,,,10,,,65,72
34920,note_on,1,0,6,,,,,,,,1,,,58,72
34920,note_on,0,0,21,,,,,,,,15,,,65,72
34920,note_on,1,0,8,,,,,,,,3,,,65,72
34920,note_on,1,0,19,,,,,,,,13,,,58,72
34920,note_on,1,0,5,,,,,,,,0,,,65,72
34920,note_on,1,0,15,,,,,,,,10,,,58,72
34920,note_on,1,0,21,,,,,,,,15,,,70,72
34949,note_on,29,0,8,,,,,,,,3,,,65,0
34949,note_on,29,0,5,,,,,,,,0,,,65,0
34949,note_on,29,0,18,,,,,,,,12,,,65,0
34949,note_on,29,0,14,,,,,,,,10,,,65,0
34950,note_on,1,0,14,,,,,,,,10,,,67,72
34950,note_on,1,0,5,,,,,,,,0,,,67,72
34950,note_on,1,0,18,,,,,,,,12,,,67,72
34950,note_on,1,0,8,,,,,,,,3,,,67,72
34979,note_on,59,0,6,,,,,,,,1,,,50,0
34979,note_on,29,0,18,,,,,,,,12,,,67,0
34979,note_on,179,0,11,,,,,,,,6,,,38,0
34979,note_on,0,0,21,,,,,,,,15,,,50,0
34979,note_on,0,0,21,,,,,,,,15,,,70,0
34979,note_on,59,0,21,,,,,,,,15,,,65,0
34979,note_on,179,0,20,,,,,,,,14,,,50,0
34979,note_on,29,0,14,,,,,,,,10,,,67,0
34979,note_on,29,0,8,,,,,,,,3,,,67,0
34979,note_on,179,0,16,,,,,,,,10,,,50,0
34979,note_on,29,0,5,,,,,,,,0,,,67,0
34980,note_on,0,0,21,,,,,,,,15,,,63,72
34980,note_on,1,0,16,,,,,,,,10,,,48,72
34980,note_on,1,0,11,,,,,,,,6,,,36,72
34980,note_on,1,0,18,,,,,,,,12,,,63,72
34980,note_on,1,0,21,,,,,,,,15,,,48,72
34980,note_on,0,0,21,,,,,,,,15,,,67,72
34980,note_on,1,0,14,,,,,,,,10,,,63,72
34980,note_on,1,0,20,,,,,,,,14,,,48,72
34980,note_on,1,0,6,,,,,,,,1,,,48,72
34980,note_on,1,0,5,,,,,,,,0,,,63,72
34980,note_on,1,0,8,,,,,,,,3,,,63,72
35009,note_on,29,0,8,,,,,,,,3,,,63,0
35009,note_on,29,0,11,,,,,,,,6,,,36,0
35009,note_on,29,0,5,,,,,,,,0,,,63,0
35009,note_on,29,0,21,,,,,,,,15,,,48,0
35009,note_on,29,0,14,,,,,,,,10,,,63,0
35009,note_on,29,0,16,,,,,,,,10,,,48,0
35009,note_on,29,0,20,,,,,,,,14,,,48,0
35009,note_on,29,0,6,,,,,,,,1,,,48,0
35009,note_on,29,0,18,,,,,,,,12,,,63,0
35010,note_on,1,0,14,,,,,,,,10,,,65,72
35010,note_on,1,0,8,,,,,,,,3,,,65,72
35010,note_on,1,0,6,,,,,,,,1,,,50,72
35010,note_on,1,0,16,,,,,,,,10,,,50,72
35010,note_on,1,0,5,,,,,,,,0,,,65,72
35010,note_on,1,0,21,,,,,,,,15,,,50,72
35010,note_on,1,0,18,,,,,,,,12,,,65,72
35010,note_on,1,0,11,,,,,,,,6,,,38,72
35010,note_on,1,0,20,,,,,,,,14,,,50,72
35039,note_on,0,0,21,,,,,,,,15,,,63,0
35039,note_on,29,0,6,,,,,,,,1,,,50,0
35039,note_on,29,0,8,,,,,,,,3,,,65,0
35039,note_on,29,0,21,,,,,,,,15,,,50,0
35039,note_on,0,0,21,,,,,,,,15,,,67,0
35039,note_on,29,0,20,,,,,,,,14,,,50,0
35039,note_on,29,0,16,,,,,,,,10,,,50,0
35039,note_on,29,0,11,,,,,,,,6,,,38,0
35039,note_on,29,0,18,,,,,,,,12,,,65,0
35039,note_on,29,0,5,,,,,,,,0,,,65,0
35039,note_on,29,0,14,,,,,,,,10,,,65,0
35040,note_on,1,0,21,,,,,,,,15,,,51,72
35040,note_on,0,0,21,,,,,,,,15,,,67,72
35040,note_on,0,0,21,,,,,,,,15,,,58,72
35040,note_on,1,0,6,,,,,,,,1,,,51,72
35040,note_on,1,0,11,,,,,,,,6,,,39,72
35040,note_on,1,0,18,,,,,,,,12,,,67,72
35040,note_on,1,0,16,,,,,,,,10,,,51,72
35040,note_on,1,0,20,,,,,,,,14,,,51,72
35040,note_on,1,0,14,,,,,,,,10,,,67,72
35040,note_on,1,0,5,,,,,,,,0,,,67,72
35040,note_on,1,0,8,,,,,,,,3,,,67,72
35099,note_on,59,0,21,,,,,,,,15,,,51,0
35099,note_on,59,0,20,,,,,,,,14,,,51,0
35099,note_on,59,0,16,,,,,,,,10,,,51,0
35099,note_on,59,0,5,,,,,,,,0,,,67,0
35099,note_on,59,0,14,,,,,,,,10,,,67,0
35099,note_on,59,0,18,,,,,,,,12,,,67,0
35099,note_on,59,0,11,,,,,,,,6,,,39,0
35099,note_on,59,0,6,,,,,,,,1,,,51,0
35099,note_on,59,0,8,,,,,,,,3,,,67,0
35100,note_on,1,0,16,,,,,,,,10,,,50,72
35100,note_on,1,0,14,,,,,,,,10,,,68,72
35100,note_on,1,0,6,,,,,,,,1,,,50,72
35100,note_on,1,0,20,,,,,,,,14,,,50,72
35100,note_on,1,0,11,,,,,,,,6,,,38,72
35100,note_on,1,0,5,,,,,,,,0,,,68,72
35100,note_on,1,0,18,,,,,,,,12,,,68,72
35100,note_on,1,0,21,,,,,,,,15,,,50,72
35100,note_on,1,0,8,,,,,,,,3,,,68,72
35129,note_on,29,0,20,,,,,,,,14,,,50,0
35129,note_on,29,0,5,,,,,,,,0,,,68,0
35129,note_on,29,0,16,,,,,,,,10,,,50,0
35129,note_on,29,0,21,,,,,,,,15,,,50,0
35129,note_on,29,0,8,,,,,,,,3,,,68,0
35129,note_on,29,0,18,,,,,,,,12,,,68,0
35129,note_on,29,0,11,,,,,,,,6,,,38,0
35129,note_on,29,0,14,,,,,,,,10,,,68,0
35129,note_on,29,0,6,,,,,,,,1,,,50,0
35130,note_on,1,0,8,,,,,,,,3,,,67,72
35130,note_on,1,0,16,,,,,,,,10,,,51,72
35130,note_on,1,0,6,,,,,,,,1,,,51,72
35130,note_on,1,0,20,,,,,,,,14,,,51,72
35130,note_on,1,0,18,,,,,,,,12,,,67,72
35130,note_on,1,0,11,,,,,,,,6,,,39,72
35130,note_on,1,0,14,,,,,,,,10,,,67,72
35130,note_on,1,0,21,,,,,,,,15,,,51,72
35130,note_on,1,0,5,,,,,,,,0,,,67,72
35159,note_on,0,0,21,,,,,,,,15,,,67,0
35159,note_on,0,0,21,,,,,,,,15,,,58,0
35159,note_on,29,0,21,,,,,,,,15,,,51,0
35159,note_on,29,0,8,,,,,,,,3,,,67,0
35159,note_on,29,0,18,,,,,,,,12,,,67,0
35159,note_on,29,0,16,,,,,,,,10,,,51,0
35159,note_on,29,0,5,,,,,,,,0,,,67,0
35159,note_on,239,0,19,,,,,,,,13,,,58,0
35159,note_on,0,0,6,,,,,,,,1,,,58,0
35159,note_on,29,0,20,,,,,,,,14,,,51,0
35159,note_on,29,0,14,,,,,,,,10,,,67,0
35159,note_on,239,0,15,,,,,,,,10,,,58,0
35159,note_on,29,0,11,,,,,,,,6,,,39,0
35159,note_on,239,0,9,,,,,,,,4,,,58,0
35159,note_on,29,0,6,,,,,,,,1,,,51,0
35160,note_on,1,0,9,,,,,,,,4,,,56,72
35160,note_on,1,0,21,,,,,,,,15,,,53,72
35160,note_on,1,0,5,,,,,,,,0,,,65,72
35160,note_on,1,0,20,,,,,,,,14,,,53,72
35160,note_on,0,0,21,,,,,,,,15,,,60,72
35160,note_on,1,0,15,,,,,,,,10,,,56,72
35160,note_on,1,0,18,,,,,,,,12,,,65,72
35160,note_on,0,0,21,,,,,,,,15,,,56,72
35160,note_on,1,0,19,,,,,,,,13,,,56,72
35160,note_on,1,0,11,,,,,,,,6,,,41,72
35160,note_on,1,0,14,,,,,,,,10,,,65,72
35160,note_on,0,0,6,,,,,,,,1,,,53,72
35160,note_on,1,0,6,,,,,,,,1,,,56,72
35160,note_on,1,0,16,,,,,,,,10,,,53,72
35160,note_on,1,0,8,,,,,,,,3,,,65,72
35189,note_on,29,0,14,,,,,,,,10,,,65,0
35189,note_on,29,0,5,,,,,,,,0,,,65,0
35189,note_on,29,0,8,,,,,,,,3,,,65,0
35189,note_on,29,0,18,,,,,,,,12,,,65,0
35190,note_on,1,0,5,,,,,,,,0,,,63,72
35190,note_on,1,0,14,,,,,,,,10,,,63,72
35190,note_on,1,0,8,,,,,,,,3,,,63,72
35190,note_on,1,0,18,,,,,,,,12,,,63,72
35219,note_on,59,0,20,,,,,,,,14,,,53,0
35219,note_on,29,0,14,,,,,,,,10,,,63,0
35219,note_on,59,0,21,,,,,,,,15,,,53,0
35219,note_on,59,0,11,,,,,,,,6,,,41,0
35219,note_on,59,0,6,,,,,,,,1,,,53,0
35219,note_on,29,0,18,,,,,,,,12,,,63,0
35219,note_on,59,0,16,,,,,,,,10,,,53,0
35219,note_on,29,0,5,,,,,,,,0,,,63,0
35219,note_on,29,0,8,,,,,,,,3,,,63,0
35220,note_on,1,0,18,,,,,,,,12,,,62,72
35220,note_on,1,0,14,,,,,,,,10,,,62,72
35220,note_on,1,0,21,,,,,,,,15,,,51,72
35220,note_on,1,0,5,,,,,,,,0,,,62,72
35220,note_on,1,0,6,,,,,,,,1,,,51,72
35220,note_on,1,0,8,,,,,,,,3,,,62,72
35220,note_on,1,0,20,,,,,,,,14,,,51,72
35220,note_on,1,0,16,,,,,,,,10,,,51,72
35220,note_on,1,0,11,,,,,,,,6,,,39,72
35249,note_on,29,0,5,,,,,,,,0,,,62,0
35249,note_on,29,0,16,,,,,,,,10,,,51,0
35249,note_on,29,0,21,,,,,,,,15,,,51,0
35249,note_on,29,0,8,,,,,,,,3,,,62,0
35249,note_on,29,0,11,,,,,,,,6,,,39,0
35249,note_on,29,0,18,,,,,,,,12,,,62,0
35249,note_on,29,0,14,,,,,,,,10,,,62,0
35249,note_on,29,0,6,,,,,,,,1,,,51,0
35249,note_on,29,0,20,,,,,,,,14,,,51,0
35250,note_on,1,0,5,,,,,,,,0,,,60,72
35250,note_on,1,0,11,,,,,,,,6,,,41,72
35250,note_on,1,0,20,,,,,,,,14,,,53,72
35250,note_on,1,0,8,,,,,,,,3,,,60,72
35250,note_on,1,0,6,,,,,,,,1,,,53,72
35250,note_on,1,0,14,,,,,,,,10,,,60,72
35250,note_on,1,0,18,,,,,,,,12,,,60,72
35250,note_on,1,0,21,,,,,,,,15,,,53,72
35250,note_on,1,0,16,,,,,,,,10,,,53,72
35279,note_on,29,0,8,,,,,,,,3,,,60,0
35279,note_on,29,0,5,,,,,,,,0,,,60,0
35279,note_on,119,0,19,,,,,,,,13,,,56,0
35279,note_on,29,0,11,,,,,,,,6,,,41,0
35279,note_on,0,0,6,,,,,,,,1,,,56,0
35279,note_on,29,0,18,,,,,,,,12,,,60,0
35279,note_on,29,0,20,,,,,,,,14,,,53,0
35279,note_on,29,0,21,,,,,,,,15,,,53,0
35279,note_on,0,0,21,,,,,,,,15,,,60,0
35279,note_on,0,0,21,,,,,,,,15,,,56,0
35279,note_on,29,0,6,,,,,,,,1,,,53,0
35279,note_on,119,0,15,,,,,,,,10,,,56,0
35279,note_on,119,0,9,,,,,,,,4,,,56,0
35279,note_on,29,0,14,,,,,,,,10,,,60,0
35279,note_on,29,0,16,,,,,,,,10,,,53,0
35280,note_on,1,0,6,,,,,,,,1,,,55,72
35280,note_on,1,0,19,,,,,,,,13,,,55,72
35280,note_on,1,0,8,,,,,,,,3,,,59,72
35280,note_on,1,0,11,,,,,,,,6,,,43,72
35280,note_on,1,0,21,,,,,,,,15,,,55,72
35280,note_on,1,0,15,,,,,,,,10,,,55,72
35280,note_on,0,0,21,,,,,,,,15,,,62,72
35280,note_on,1,0,16,,,,,,,,10,,,55,72
35280,note_on,1,0,5,,,,,,,,0,,,59,72
35280,note_on,0,0,21,,,,,,,,15,,,59,72
35280,note_on,1,0,20,,,,,,,,14,,,55,72
35280,note_on,1,0,9,,,,,,,,4,,,55,72
35280,note_on,1,0,18,,,,,,,,12,,,59,72
35280,note_on,1,0,14,,,,,,,,10,,,59,72
35339,note_on,59,0,18,,,,,,,,12,,,59,0
35339,note_on,59,0,14,,,,,,,,10,,,59,0
35339,note_on,59,0,20,,,,,,,,14,,,55,0
35339,note_on,59,0,6,,,,,,,,1,,,55,0
35339,note_on,59,0,16,,,,,,,,10,,,55,0
35339,note_on,59,0,9,,,,,,,,4,,,55,0
35339,note_on,59,0,15,,,,,,,,10,,,55,0
35339,note_on,59,0,11,,,,,,,,6,,,43,0
35339,note_on,0,0,21,,,,,,,,15,,,55,0
35339,note_on,0,0,21,,,,,,,,15,,,59,0
35339,note_on,59,0,8,,,,,,,,3,,,59,0
35339,note_on,59,0,21,,,,,,,,15,,,62,0
35339,note_on,59,0,19,,,,,,,,13,,,55,0
35339,note_on,59,0,5,,,,,,,,0,,,59,0
35340,note_on,1,0,8,,,,,,,,3,,,62,72
35340,note_on,1,0,9,,,,,,,,4,,,57,72
35340,note_on,1,0,16,,,,,,,,10,,,53,72
35340,note_on,1,0,20,,,,,,,,14,,,53,72
35340,note_on,1,0,14,,,,,,,,10,,,62,72
35340,note_on,1,0,19,,,,,,,,13,,,57,72
35340,note_on,1,0,15,,,,,,,,10,,,57,72
35340,note_on,1,0,18,,,,,,,,12,,,62,72
35340,note_on,1,0,5,,,,,,,,0,,,60,72
35340,note_on,1,0,11,,,,,,,,6,,,41,72
35340,note_on,0,0,21,,,,,,,,15,,,67,72
35340,note_on,0,0,21,,,,,,,,15,,,59,72
35340,note_on,0,0,6,,,,,,,,1,,,57,72
35340,note_on,1,0,6,,,,,,,,1,,,53,72
35340,note_on,1,0,21,,,,,,,,15,,,53,72
35369,note_on,29,0,15,,,,,,,,10,,,57,0
35369,note_on,29,0,19,,,,,,,,13,,,57,0
35369,note_on,29,0,6,,,,,,,,1,,,57,0
35369,note_on,29,0,9,,,,,,,,4,,,57,0
35370,note_on,1,0,15,,,,,,,,10,,,59,72
35370,note_on,1,0,6,,,,,,,,1,,,59,72
35370,note_on,1,0,19,,,,,,,,13,,,59,72
35370,note_on,1,0,9,,,,,,,,4,,,59,72
35399,note_on,29,0,6,,,,,,,,1,,,59,0
35399,note_on,59,0,16,,,,,,,,10,,,53,0
35399,note_on,29,0,9,,,,,,,,4,,,59,0
35399,note_on,0,0,6,,,,,,,,1,,,53,0
35399,note_on,29,0,19,,,,,,,,13,,,59,0
35399,note_on,59,0,5,,,,,,,,0,,,60,0
35399,note_on,59,0,11,,,,,,,,6,,,41,0
35399,note_on,29,0,15,,,,,,,,10,,,59,0
35399,note_on,59,0,21,,,,,,,,15,,,59,0
35399,note_on,0,0,21,,,,,,,,15,,,67,0
35399,note_on,0,0,21,,,,,,,,15,,,53,0
35399,note_on,59,0,20,,,,,,,,14,,,53,0
35399,note_on,59,0,18,,,,,,,,12,,,62,0
35399,note_on,59,0,14,,,,,,,,10,,,62,0
35399,note_on,59,0,8,,,,,,,,3,,,62,0
35400,note_on,1,0,8,,,,,,,,3,,,67,72
35400,note_on,1,0,6,,,,,,,,1,,,51,72
35400,note_on,1,0,18,,,,,,,,12,,,67,72
35400,note_on,0,0,21,,,,,,,,15,,,60,72
35400,note_on,0,0,21,,,,,,,,15,,,67,72
35400,note_on,1,0,21,,,,,,,,15,,,51,72
35400,note_on,1,0,20,,,,,,,,14,,,51,72
35400,note_on,0,0,6,,,,,,,,1,,,60,72
35400,note_on,1,0,14,,,,,,,,10,,,67,72
35400,note_on,1,0,19,,,,,,,,13,,,60,72
35400,note_on,1,0,16,,,,,,,,10,,,51,72
35400,note_on,1,0,11,,,,,,,,6,,,39,72
35400,note_on,1,0,9,,,,,,,,4,,,60,72
35400,note_on,1,0,15,,,,,,,,10,,,60,72
35400,note_on,1,0,5,,,,,,,,0,,,67,72
35459,note_on,59,0,21,,,,,,,,15,,,60,0
35459,note_on,0,0,21,,,,,,,,15,,,67,0
35459,note_on,0,0,21,,,,,,,,15,,,51,0
35459,note_on,59,0,11,,,,,,,,6,,,39,0
35459,note_on,59,0,6,,,,,,,,1,,,60,0
35459,note_on,0,0,6,,,,,,,,1,,,51,0
35459,note_on,59,0,9,,,,,,,,4,,,60,0
35459,note_on,59,0,19,,,,,,,,13,,,60,0
35459,note_on,59,0,8,,,,,,,,3,,,67,0
35459,note_on,59,0,15,,,,,,,,10,,,60,0
35459,note_on,59,0,20,,,,,,,,14,,,51,0
35459,note_on,59,0,18,,,,,,,,12,,,67,0
35459,note_on,59,0,16,,,,,,,,10,,,51,0
35459,note_on,59,0,14,,,,,,,,10,,,67,0
35459,note_on,59,0,5,,,,,,,,0,,,67,0
35460,note_on,1,0,9,,,,,,,,4,,,62,72
35460,note_on,1,0,5,,,,,,,,0,,,65,72
35460,note_on,1,0,11,,,,,,,,6,,,38,72
35460,note_on,1,0,8,,,,,,,,3,,,65,72
35460,note_on,0,0,21,,,,,,,,15,,,65,72
35460,note_on,1,0,19,,,,,,,,13,,,62,72
35460,note_on,0,0,21,,,,,,,,15,,,59,72
35460,note_on,1,0,14,,,,,,,,10,,,65,72
35460,note_on,1,0,6,,,,,,,,1,,,50,72
35460,note_on,0,0,6,,,,,,,,1,,,62,72
35460,note_on,1,0,18,,,,,,,,12,,,65,72
35460,note_on,1,0,15,,,,,,,,10,,,62,72
35460,note_on,1,0,16,,,,,,,,10,,,50,72
35460,note_on,1,0,21,,,,,,,,15,,,50,72
35460,note_on,1,0,20,,,,,,,,14,,,50,72
35519,note_on,59,0,8,,,,,,,,3,,,65,0
35519,note_on,59,0,18,,,,,,,,12,,,65,0
35519,note_on,0,0,6,,,,,,,,1,,,50,0
35519,note_on,59,0,20,,,,,,,,14,,,50,0
35519,note_on,59,0,6,,,,,,,,1,,,62,0
35519,note_on,59,0,21,,,,,,,,15,,,59,0
35519,note_on,0,0,21,,,,,,,,15,,,65,0
35519,note_on,0,0,21,,,,,,,,15,,,50,0
35519,note_on,59,0,5,,,,,,,,0,,,65,0
35519,note_on,59,0,9,,,,,,,,4,,,62,0
35519,note_on,59,0,15,,,,,,,,10,,,62,0
35519,note_on,59,0,11,,,,,,,,6,,,38,0
35519,note_on,59,0,16,,,,,,,,10,,,50,0
35519,note_on,59,0,14,,,,,,,,10,,,65,0
35519,note_on,59,0,19,,,,,,,,13,,,62,0
35520,note_on,1,0,8,,,,,,,,3,,,63,72
35520,note_on,1,0,14,,,,,,,,10,,,63,72
35520,note_on,1,0,20,,,,,,,,14,,,48,72
35520,note_on,1,0,5,,,,,,,,0,,,63,72
35520,note_on,1,0,11,,,,,,,,6,,,36,72
35520,note_on,1,0,9,,,,,,,,4,,,63,72
35520,note_on,1,0,6,,,,,,,,1,,,63,72
35520,note_on,0,0,6,,,,,,,,1,,,48,72
35520,note_on,1,0,21,,,,,,,,15,,,48,72
35520,note_on,0,0,21,,,,,,,,15,,,63,72
35520,note_on,1,0,18,,,,,,,,12,,,63,72
35520,note_on,1,0,15,,,,,,,,10,,,63,72
35520,note_on,0,0,21,,,,,,,,15,,,67,72
35520,note_on,1,0,19,,,,,,,,13,,,63,72
35520,note_on,1,0,16,,,,,,,,10,,,48,72
35549,note_on,29,0,19,,,,,,,,13,,,63,0
35549,note_on,29,0,15,,,,,,,,10,,,63,0
35549,note_on,29,0,9,,,,,,,,4,,,63,0
35549,note_on,29,0,6,,,,,,,,1,,,63,0
35550,note_on,1,0,6,,,,,,,,1,,,62,72
35550,note_on,1,0,9,,,,,,,,4,,,62,72
35550,note_on,1,0,19,,,,,,,,13,,,62,72
35550,note_on,1,0,15,,,,,,,,10,,,62,72
35579,note_on,29,0,6,,,,,,,,1,,,62,0
35579,note_on,59,0,20,,,,,,,,14,,,48,0
35579,note_on,29,0,19,,,,,,,,13,,,62,0
35579,note_on,29,0,15,,,,,,,,10,,,62,0
35579,note_on,59,0,16,,,,,,,,10,,,48,0
35579,note_on,29,0,9,,,,,,,,4,,,62,0
35579,note_on,59,0,11,,,,,,,,6,,,36,0
35579,note_on,0,0,6,,,,,,,,1,,,48,0
35579,note_on,59,0,21,,,,,,,,15,,,48,0
35580,note_on,1,0,6,,,,,,,,1,,,60,72
35580,note_on,0,0,6,,,,,,,,1,,,50,72
35580,note_on,1,0,9,,,,,,,,4,,,60,72
35580,note_on,1,0,15,,,,,,,,10,,,60,72
35580,note_on,1,0,11,,,,,,,,6,,,38,72
35580,note_on,1,0,16,,,,,,,,10,,,50,72
35580,note_on,1,0,21,,,,,,,,15,,,50,72
35580,note_on,1,0,20,,,,,,,,14,,,50,72
35580,note_on,1,0,19,,,,,,,,13,,,60,72
35609,note_on,29,0,16,,,,,,,,10,,,50,0
35609,note_on,29,0,9,,,,,,,,4,,,60,0
35609,note_on,29,0,20,,,,,,,,14,,,50,0
35609,note_on,29,0,21,,,,,,,,15,,,50,0
35609,note_on,29,0,19,,,,,,,,13,,,60,0
35609,note_on,29,0,15,,,,,,,,10,,,60,0
35609,note_on,29,0,11,,,,,,,,6,,,38,0
35609,note_on,0,0,6,,,,,,,,1,,,60,0
35609,note_on,29,0,6,,,,,,,,1,,,50,0
35610,note_on,1,0,16,,,,,,,,10,,,51,72
35610,note_on,1,0,9,,,,,,,,4,,,58,72
35610,note_on,1,0,11,,,,,,,,6,,,39,72
35610,note_on,0,0,6,,,,,,,,1,,,51,72
35610,note_on,1,0,15,,,,,,,,10,,,58,72
35610,note_on,1,0,20,,,,,,,,14,,,51,72
35610,note_on,1,0,6,,,,,,,,1,,,58,72
35610,note_on,1,0,19,,,,,,,,13,,,58,72
35610,note_on,1,0,21,,,,,,,,15,,,51,72
35639,note_on,0,0,6,,,,,,,,1,,,58,0
35639,note_on,29,0,11,,,,,,,,6,,,39,0
35639,note_on,29,0,15,,,,,,,,10,,,58,0
35639,note_on,29,0,16,,,,,,,,10,,,51,0
35639,note_on,29,0,9,,,,,,,,4,,,58,0
35639,note_on,0,0,21,,,,,,,,15,,,67,0
35639,note_on,29,0,19,,,,,,,,13,,,58,0
35639,note_on,29,0,20,,,,,,,,14,,,51,0
35639,note_on,29,0,6,,,,,,,,1,,,51,0
35639,note_on,0,0,21,,,,,,,,15,,,63,0
35639,note_on,29,0,21,,,,,,,,15,,,51,0
35640,note_on,0,0,21,,,,,,,,15,,,60,72
35640,note_on,1,0,6,,,,,,,,1,,,57,72
35640,note_on,1,0,11,,,,,,,,6,,,41,72
35640,note_on,0,0,21,,,,,,,,15,,,63,72
35640,note_on,0,0,6,,,,,,,,1,,,53,72
35640,note_on,1,0,16,,,,,,,,10,,,53,72
35640,note_on,1,0,9,,,,,,,,4,,,57,72
35640,note_on,1,0,19,,,,,,,,13,,,57,72
35640,note_on,1,0,21,,,,,,,,15,,,53,72
35640,note_on,0,0,21,,,,,,,,15,,,57,72
35640,note_on,1,0,20,,,,,,,,14,,,53,72
35640,note_on,1,0,15,,,,,,,,10,,,57,72
35699,note_on,59,0,6,,,,,,,,1,,,57,0
35699,note_on,179,0,14,,,,,,,,10,,,63,0
35699,note_on,59,0,21,,,,,,,,15,,,63,0
35699,note_on,0,0,21,,,,,,,,15,,,60,0
35699,note_on,0,0,21,,,,,,,,15,,,57,0
35699,note_on,59,0,15,,,,,,,,10,,,57,0
35699,note_on,59,0,9,,,,,,,,4,,,57,0
35699,note_on,179,0,8,,,,,,,,3,,,63,0
35699,note_on,179,0,18,,,,,,,,12,,,63,0
35699,note_on,59,0,19,,,,,,,,13,,,57,0
35699,note_on,179,0,5,,,,,,,,0,,,63,0
35700,note_on,1,0,9,,,,,,,,4,,,58,72
35700,note_on,1,0,15,,,,,,,,10,,,58,72
35700,note_on,1,0,8,,,,,,,,3,,,62,72
35700,note_on,1,0,14,,,,,,,,10,,,62,72
35700,note_on,1,0,6,,,,,,,,1,,,58,72
35700,note_on,1,0,18,,,,,,,,12,,,62,72
35700,note_on,0,0,21,,,,,,,,15,,,58,72
35700,note_on,1,0,5,,,,,,,,0,,,62,72
35700,note_on,1,0,21,,,,,,,,15,,,62,72
35700,note_on,1,0,19,,,,,,,,13,,,58,72
35759,note_on,0,0,21,,,,,,,,15,,,62,0
35759,note_on,59,0,14,,,,,,,,10,,,62,0
35759,note_on,59,0,18,,,,,,,,12,,,62,0
35759,note_on,59,0,8,,,,,,,,3,,,62,0
35759,note_on,59,0,5,,,,,,,,0,,,62,0
35759,note_on,59,0,21,,,,,,,,15,,,58,0
35760,note_on,1,0,21,,,,,,,,15,,,60,72
35760,note_on,0,0,21,,,,,,,,15,,,57,72
35760,note_on,0,0,5,,,,,,,,0,,,77,72
35760,note_on,1561,0,7,,,,,,,,2,,,77,72
35760,note_on,1,0,18,,,,,,,,12,,,60,72
35760,note_on,1561,0,17,,,,,,,,11,,,77,72
35760,note_on,1,0,14,,,,,,,,10,,,60,72
35760,note_on,1,0,5,,,,,,,,0,,,60,72
35760,note_on,1,0,8,,,,,,,,3,,,60,72
35819,note_on,59,0,8,,,,,,,,3,,,60,0
35819,note_on,59,0,14,,,,,,,,10,,,60,0
35819,note_on,119,0,6,,,,,,,,1,,,58,0
35819,note_on,0,0,6,,,,,,,,1,,,53,0
35819,note_on,119,0,15,,,,,,,,10,,,58,0
35819,note_on,59,0,18,,,,,,,,12,,,60,0
35819,note_on,179,0,11,,,,,,,,6,,,41,0
35819,note_on,0,0,21,,,,,,,,15,,,60,0
35819,note_on,0,0,21,,,,,,,,15,,,53,0
35819,note_on,119,0,9,,,,,,,,4,,,58,0
35819,note_on,179,0,20,,,,,,,,14,,,53,0
35819,note_on,119,0,19,,,,,,,,13,,,58,0
35819,note_on,59,0,21,,,,,,,,15,,,57,0
35819,note_on,59,0,5,,,,,,,,0,,,60,0
35819,note_on,179,0,16,,,,,,,,10,,,53,0
35820,note_on,1,0,11,,,,,,,,6,,,39,72
35820,note_on,1,0,9,,,,,,,,4,,,57,72
35820,note_on,1,0,5,,,,,,,,0,,,65,72
35820,note_on,1,0,6,,,,,,,,1,,,57,72
35820,note_on,0,0,6,,,,,,,,1,,,51,72
35820,note_on,1,0,15,,,,,,,,10,,,57,72
35820,note_on,1,0,16,,,,,,,,10,,,51,72
35820,note_on,1,0,18,,,,,,,,12,,,65,72
35820,note_on,1,0,21,,,,,,,,15,,,51,72
35820,note_on,0,0,21,,,,,,,,15,,,65,72
35820,note_on,1,0,14,,,,,,,,10,,,65,72
35820,note_on,1,0,20,,,,,,,,14,,,51,72
35820,note_on,1,0,19,,,,,,,,13,,,57,72
35820,note_on,1,0,8,,,,,,,,3,,,65,72
35820,note_on,0,0,21,,,,,,,,15,,,69,72
35820,note_on,0,0,21,,,,,,,,15,,,60,72
35879,note_on,0,0,21,,,,,,,,15,,,51,0
35879,note_on,59,0,19,,,,,,,,13,,,57,0
35879,note_on,59,0,9,,,,,,,,4,,,57,0
35879,note_on,0,0,21,,,,,,,,15,,,65,0
35879,note_on,59,0,6,,,,,,,,1,,,51,0
35879,note_on,59,0,8,,,,,,,,3,,,65,0
35879,note_on,59,0,20,,,,,,,,14,,,51,0
35879,note_on,59,0,15,,,,,,,,10,,,57,0
35879,note_on,0,0,6,,,,,,,,1,,,57,0
35879,note_on,59,0,21,,,,,,,,15,,,69,0
35879,note_on,59,0,16,,,,,,,,10,,,51,0
35879,note_on,59,0,11,,,,,,,,6,,,39,0
35879,note_on,0,0,21,,,,,,,,15,,,60,0
35879,note_on,59,0,5,,,,,,,,0,,,65,0
35879,note_on,59,0,14,,,,,,,,10,,,65,0
35879,note_on,59,0,18,,,,,,,,12,,,65,0
35880,note_on,1,0,8,,,,,,,,3,,,67,72
35880,note_on,0,0,6,,,,,,,,1,,,50,72
35880,note_on,1,0,6,,,,,,,,1,,,58,72
35880,note_on,1,0,18,,,,,,,,12,,,67,72
35880,note_on,1,0,5,,,,,,,,0,,,67,72
35880,note_on,1,0,15,,,,,,,,10,,,58,72
35880,note_on,1,0,11,,,,,,,,6,,,38,72
35880,note_on,1,0,20,,,,,,,,14,,,50,72
35880,note_on,1,0,14,,,,,,,,10,,,67,72
35880,note_on,1,0,19,,,,,,,,13,,,58,72
35880,note_on,1,0,21,,,,,,,,15,,,50,72
35880,note_on,1,0,9,,,,,,,,4,,,58,72
35880,note_on,0,0,21,,,,,,,,15,,,65,72
35880,note_on,0,0,21,,,,,,,,15,,,58,72
35880,note_on,1,0,16,,,,,,,,10,,,50,72
35939,note_on,179,0,7,,,,,,,,2,,,77,0
35939,note_on,0,0,21,,,,,,,,15,,,50,0
35939,note_on,0,0,21,,,,,,,,15,,,65,0
35939,note_on,0,0,6,,,,,,,,1,,,58,0
35939,note_on,59,0,6,,,,,,,,1,,,50,0
35939,note_on,59,0,11,,,,,,,,6,,,38,0
35939,note_on,59,0,21,,,,,,,,15,,,58,0
35939,note_on,59,0,8,,,,,,,,3,,,67,0
35939,note_on,59,0,18,,,,,,,,12,,,67,0
35939,note_on,0,0,5,,,,,,,,0,,,77,0
35939,note_on,59,0,14,,,,,,,,10,,,67,0
35939,note_on,59,0,5,,,,,,,,0,,,67,0
35939,note_on,179,0,17,,,,,,,,11,,,77,0
35939,note_on,59,0,9,,,,,,,,4,,,58,0
35939,note_on,59,0,19,,,,,,,,13,,,58,0
35939,note_on,59,0,20,,,,,,,,14,,,50,0
35939,note_on,59,0,15,,,,,,,,10,,,58,0
35939,note_on,59,0,16,,,,,,,,10,,,50,0
35940,note_on,1,0,8,,,,,,,,3,,,69,72
35940,note_on,1,0,21,,,,,,,,15,,,48,72
35940,note_on,1,0,9,,,,,,,,4,,,60,72
35940,note_on,0,0,21,,,,,,,,15,,,65,72
35940,note_on,0,0,21,,,,,,,,15,,,69,72
35940,note_on,1,0,14,,,,,,,,10,,,69,72
35940,note_on,0,0,21,,,,,,,,15,,,60,72
35940,note_on,1,0,16,,,,,,,,10,,,48,72
35940,note_on,1,0,19,,,,,,,,13,,,60,72
35940,note_on,1,0,17,,,,,,,,11,,,77,72
35940,note_on,1,0,11,,,,,,,,6,,,36,72
35940,note_on,1,0,18,,,,,,,,12,,,69,72
35940,note_on,0,0,5,,,,,,,,0,,,77,72
35940,note_on,1,0,6,,,,,,,,1,,,60,72
35940,note_on,1,0,5,,,,,,,,0,,,69,72
35940,note_on,1,0,20,,,,,,,,14,,,48,72
35940,note_on,1,0,7,,,,,,,,2,,,77,72
35940,note_on,0,0,6,,,,,,,,1,,,48,72
35940,note_on,1,0,15,,,,,,,,10,,,60,72
35999,note_on,0,0,21,,,,,,,,15,,,48,0
35999,note_on,59,0,21,,,,,,,,15,,,60,0
35999,note_on,0,0,21,,,,,,,,15,,,65,0
35999,note_on,0,0,21,,,,,,,,15,,,69,0
35999,note_on,59,0,6,,,,,,,,1,,,48,0
35999,note_on,59,0,5,,,,,,,,0,,,77,0
35999,note_on,0,0,6,,,,,,,,1,,,60,0
35999,note_on,0,0,5,,,,,,,,0,,,69,0
35999,note_on,59,0,18,,,,,,,,12,,,69,0
35999,note_on,59,0,16,,,,,,,,10,,,48,0
35999,note_on,59,0,19,,,,,,,,13,,,60,0
35999,note_on,59,0,20,,,,,,,,14,,,48,0
35999,note_on,59,0,7,,,,,,,,2,,,77,0
35999,note_on,59,0,9,,,,,,,,4,,,60,0
35999,note_on,59,0,17,,,,,,,,11,,,77,0
35999,note_on,59,0,14,,,,,,,,10,,,69,0
35999,note_on,59,0,11,,,,,,,,6,,,36,0
35999,note_on,59,0,8,,,,,,,,3,,,69,0
35999,note_on,59,0,15,,,,,,,,10,,,60,0
36000,note_on,1,0,18,,,,,,,,12,,,70,72
36000,note_on,1,0,8,,,,,,,,3,,,70,72
36000,note_on,1,0,11,,,,,,,,6,,,34,72
36000,note_on,0,0,21,,,,,,,,15,,,65,72
36000,note_on,0,0,6,,,,,,,,1,,,46,72
36000,note_on,1,0,7,,,,,,,,2,,,74,72
36000,note_on,1,0,6,,,,,,,,1,,,62,72
36000,note_on,1,0,9,,,,,,,,4,,,62,72
36000,note_on,1,0,17,,,,,,,,11,,,74,72
36000,note_on,0,0,5,,,,,,,,0,,,70,72
36000,note_on,1,0,5,,,,,,,,0,,,74,72
36000,note_on,1,0,19,,,,,,,,13,,,62,72
36000,note_on,1,0,14,,,,,,,,10,,,70,72
36000,note_on,1,0,16,,,,,,,,10,,,46,72
36000,note_on,1,0,15,,,,,,,,10,,,62,72
36000,note_on,0,0,21,,,,,,,,15,,,70,72
36000,note_on,1,0,21,,,,,,,,15,,,46,72
36000,note_on,0,0,21,,,,,,,,15,,,74,72
36000,note_on,1,0,20,,,,,,,,14,,,46,72
36059,note_on,59,0,6,,,,,,,,1,,,46,0
36059,note_on,59,0,18,,,,,,,,12,,,70,0
36059,note_on,59,0,14,,,,,,,,10,,,70,0
36059,note_on,59,0,16,,,,,,,,10,,,46,0
36059,note_on,59,0,20,,,,,,,,14,,,46,0
36059,note_on,59,0,21,,,,,,,,15,,,46,0
36059,note_on,59,0,5,,,,,,,,0,,,70,0
36059,note_on,59,0,8,,,,,,,,3,,,70,0
36059,note_on,59,0,11,,,,,,,,6,,,34,0
36060,note_on,1,0,8,,,,,,,,3,,,58,72
36060,note_on,1,0,21,,,,,,,,15,,,55,72
36060,note_on,1,0,14,,,,,,,,10,,,58,72
36060,note_on,1,0,18,,,,,,,,12,,,58,72
36060,note_on,1,0,5,,,,,,,,0,,,58,72
36060,note_on,1,0,16,,,,,,,,10,,,55,72
36060,note_on,1,0,20,,,,,,,,14,,,55,72
36060,note_on,1,0,11,,,,,,,,6,,,43,72
36060,note_on,1,0,6,,,,,,,,1,,,55,72
36089,note_on,29,0,11,,,,,,,,6,,,43,0
36089,note_on,29,0,21,,,,,,,,15,,,55,0
36089,note_on,29,0,6,,,,,,,,1,,,55,0
36089,note_on,29,0,20,,,,,,,,14,,,55,0
36089,note_on,29,0,16,,,,,,,,10,,,55,0
36090,note_on,1,0,6,,,,,,,,1,,,53,72
36090,note_on,1,0,21,,,,,,,,15,,,53,72
36090,note_on,1,0,16,,,,,,,,10,,,53,72
36090,note_on,1,0,20,,,,,,,,14,,,53,72
36090,note_on,1,0,11,,,,,,,,6,,,41,72
36119,note_on,0,0,6,,,,,,,,1,,,62,0
36119,note_on,29,0,21,,,,,,,,15,,,53,0
36119,note_on,119,0,7,,,,,,,,2,,,74,0
36119,note_on,119,0,9,,,,,,,,4,,,62,0
36119,note_on,119,0,19,,,,,,,,13,,,62,0
36119,note_on,29,0,6,,,,,,,,1,,,53,0
36119,note_on,59,0,5,,,,,,,,0,,,58,0
36119,note_on,0,0,5,,,,,,,,0,,,74,0
36119,note_on,0,0,21,,,,,,,,15,,,70,0
36119,note_on,119,0,17,,,,,,,,11,,,74,0
36119,note_on,0,0,21,,,,,,,,15,,,74,0
36119,note_on,59,0,8,,,,,,,,3,,,58,0
36119,note_on,29,0,16,,,,,,,,10,,,53,0
36119,note_on,29,0,11,,,,,,,,6,,,41,0
36119,note_on,59,0,14,,,,,,,,10,,,58,0
36119,note_on,119,0,15,,,,,,,,10,,,62,0
36119,note_on,59,0,18,,,,,,,,12,,,58,0
36119,note_on,29,0,20,,,,,,,,14,,,53,0
36119,note_on,0,0,21,,,,,,,,15,,,65,0
36120,note_on,0,0,21,,,,,,,,15,,,70,72
36120,note_on,1,0,17,,,,,,,,11,,,79,72
36120,note_on,1,0,16,,,,,,,,10,,,51,72
36120,note_on,1,0,21,,,,,,,,15,,,51,72
36120,note_on,1,0,20,,,,,,,,14,,,51,72
36120,note_on,1,0,6,,,,,,,,1,,,51,72
36120,note_on,1,0,5,,,,,,,,0,,,63,72
36120,note_on,0,0,21,,,,,,,,15,,,67,72
36120,note_on,0,0,5,,,,,,,,0,,,79,72
36120,note_on,1,0,8,,,,,,,,3,,,63,72
36120,note_on,1,0,11,,,,,,,,6,,,39,72
36120,note_on,1,0,18,,,,,,,,12,,,63,72
36120,note_on,1,0,7,,,,,,,,2,,,79,72
36120,note_on,1,0,14,,,,,,,,10,,,63,72
36149,note_on,29,0,11,,,,,,,,6,,,39,0
36149,note_on,29,0,21,,,,,,,,15,,,51,0
36149,note_on,29,0,6,,,,,,,,1,,,51,0
36149,note_on,29,0,16,,,,,,,,10,,,51,0
36149,note_on,29,0,20,,,,,,,,14,,,51,0
36150,note_on,1,0,6,,,,,,,,1,,,48,72
36150,note_on,1,0,16,,,,,,,,10,,,48,72
36150,note_on,1,0,21,,,,,,,,15,,,48,72
36150,note_on,1,0,11,,,,,,,,6,,,36,72
36150,note_on,1,0,20,,,,,,,,14,,,48,72
36179,note_on,29,0,21,,,,,,,,15,,,48,0
36179,note_on,29,0,6,,,,,,,,1,,,48,0
36179,note_on,29,0,16,,,,,,,,10,,,48,0
36179,note_on,29,0,20,,,,,,,,14,,,48,0
36179,note_on,29,0,11,,,,,,,,6,,,36,0
36180,note_on,1,0,6,,,,,,,,1,,,50,72
36180,note_on,1,0,21,,,,,,,,15,,,50,72
36180,note_on,1,0,20,,,,,,,,14,,,50,72
36180,note_on,1,0,11,,,,,,,,6,,,38,72
36180,note_on,1,0,16,,,,,,,,10,,,50,72
36209,note_on,29,0,11,,,,,,,,6,,,38,0
36209,note_on,89,0,18,,,,,,,,12,,,63,0
36209,note_on,0,0,21,,,,,,,,15,,,70,0
36209,note_on,29,0,6,,,,,,,,1,,,50,0
36209,note_on,0,0,21,,,,,,,,15,,,67,0
36209,note_on,89,0,14,,,,,,,,10,,,63,0
36209,note_on,29,0,20,,,,,,,,14,,,50,0
36209,note_on,89,0,8,,,,,,,,3,,,63,0
36209,note_on,29,0,21,,,,,,,,15,,,50,0
36209,note_on,89,0,5,,,,,,,,0,,,63,0
36209,note_on,29,0,16,,,,,,,,10,,,50,0
36210,note_on,1,0,14,,,,,,,,10,,,62,72
36210,note_on,0,0,21,,,,,,,,15,,,62,72
36210,note_on,1,0,16,,,,,,,,10,,,51,72
36210,note_on,1,0,6,,,,,,,,1,,,51,72
36210,note_on,1,0,18,,,,,,,,12,,,62,72
36210,note_on,1,0,21,,,,,,,,15,,,67,72
36210,note_on,0,0,21,,,,,,,,15,,,51,72
36210,note_on,0,0,21,,,,,,,,15,,,70,72
36210,note_on,1,0,20,,,,,,,,14,,,51,72
36210,note_on,1,0,8,,,,,,,,3,,,62,72
36210,note_on,1,0,11,,,,,,,,6,,,39,72
36210,note_on,1,0,5,,,,,,,,0,,,62,72
36239,note_on,29,0,16,,,,,,,,10,,,51,0
36239,note_on,29,0,14,,,,,,,,10,,,62,0
36239,note_on,119,0,7,,,,,,,,2,,,79,0
36239,note_on,29,0,18,,,,,,,,12,,,62,0
36239,note_on,29,0,8,,,,,,,,3,,,62,0
36239,note_on,29,0,20,,,,,,,,14,,,51,0
36239,note_on,29,0,5,,,,,,,,0,,,62,0
36239,note_on,0,0,21,,,,,,,,15,,,70,0
36239,note_on,0,0,5,,,,,,,,0,,,79,0
36239,note_on,29,0,6,,,,,,,,1,,,51,0
36239,note_on,29,0,21,,,,,,,,15,,,62,0
36239,note_on,0,0,21,,,,,,,,15,,,67,0
36239,note_on,119,0,17,,,,,,,,11,,,79,0
36239,note_on,29,0,11,,,,,,,,6,,,39,0
36239,note_on,0,0,21,,,,,,,,15,,,51,0
36240,note_on,1,0,20,,,,,,,,14,,,53,72
36240,note_on,1,0,18,,,,,,,,12,,,60,72
36240,note_on,1,0,21,,,,,,,,15,,,53,72
36240,note_on,1,0,17,,,,,,,,11,,,69,72
36240,note_on,0,0,21,,,,,,,,15,,,65,72
36240,note_on,1,0,7,,,,,,,,2,,,69,72
36240,note_on,0,0,5,,,,,,,,0,,,69,72
36240,note_on,1,0,5,,,,,,,,0,,,60,72
36240,note_on,1,0,16,,,,,,,,10,,,53,72
36240,note_on,0,0,21,,,,,,,,15,,,60,72
36240,note_on,0,0,21,,,,,,,,15,,,69,72
36240,note_on,1,0,6,,,,,,,,1,,,53,72
36240,note_on,1,0,14,,,,,,,,10,,,60,72
36240,note_on,1,0,8,,,,,,,,3,,,60,72
36240,note_on,1,0,11,,,,,,,,6,,,41,72
36299,note_on,59,0,18,,,,,,,,12,,,60,0
36299,note_on,59,0,8,,,,,,,,3,,,60,0
36299,note_on,59,0,14,,,,,,,,10,,,60,0
36299,note_on,0,0,21,,,,,,,,15,,,60,0
36299,note_on,0,0,21,,,,,,,,15,,,69,0
36299,note_on,0,0,21,,,,,,,,15,,,53,0
36299,note_on,59,0,21,,,,,,,,15,,,65,0
36299,note_on,59,0,11,,,,,,,,6,,,41,0
36299,note_on,59,0,5,,,,,,,,0,,,60,0
36300,note_on,2461,0,10,,,,,,,,5,,,53,72
36300,note_on,60,0,6,,,,,,,,1,,,53,72
36300,note_on,1,0,18,,,,,,,,12,,,60,72
36300,note_on,1,0,8,,,,,,,,3,,,60,72
36300,note_on,181,0,9,,,,,,,,4,,,53,72
36300,note_on,181,0,19,,,,,,,,13,,,53,72
36300,note_on,0,0,21,,,,,,,,15,,,60,72
36300,note_on,0,0,21,,,,,,,,15,,,69,72
36300,note_on,1,0,21,,,,,,,,15,,,53,72
36300,note_on,1,0,14,,,,,,,,10,,,60,72
36300,note_on,0,0,21,,,,,,,,15,,,65,72
36300,note_on,181,0,15,,,,,,,,10,,,53,72
36300,note_on,1,0,5,,,,,,,,0,,,60,72
36359,note_on,59,0,5,,,,,,,,0,,,60,0
36359,note_on,59,0,21,,,,,,,,15,,,53,0
36359,note_on,119,0,20,,,,,,,,14,,,53,0
36359,note_on,59,0,10,,,,,,,,5,,,53,0
36359,note_on,59,0,9,,,,,,,,4,,,53,0
36359,note_on,59,0,19,,,,,,,,13,,,53,0
36359,note_on,59,0,18,,,,,,,,12,,,60,0
36359,note_on,59,0,15,,,,,,,,10,,,53,0
36359,note_on,119,0,16,,,,,,,,10,,,53,0
36359,note_on,59,0,14,,,,,,,,10,,,60,0
36359,note_on,59,0,8,,,,,,,,3,,,60,0
36359,note_on,59,0,6,,,,,,,,1,,,53,0
36359,note_on,0,0,6,,,,,,,,1,,,53,0
36360,note_on,1,0,14,,,,,,,,10,,,65,72
36360,note_on,1,0,21,,,,,,,,15,,,53,72
36360,note_on,1,0,9,,,,,,,,4,,,53,72
36360,note_on,1,0,8,,,,,,,,3,,,65,72
36360,note_on,1,0,15,,,,,,,,10,,,53,72
36360,note_on,1,0,6,,,,,,,,1,,,53,72
36360,note_on,1,0,10,,,,,,,,5,,,53,72
36360,note_on,1,0,19,,,,,,,,13,,,53,72
36360,note_on,1,0,18,,,,,,,,12,,,65,72
36360,note_on,1,0,5,,,,,,,,0,,,65,72
36419,note_on,59,0,19,,,,,,,,13,,,53,0
36419,note_on,179,0,7,,,,,,,,2,,,69,0
36419,note_on,59,0,21,,,,,,,,15,,,53,0
36419,note_on,179,0,17,,,,,,,,11,,,69,0
36419,note_on,59,0,15,,,,,,,,10,,,53,0
36419,note_on,59,0,5,,,,,,,,0,,,69,0
36419,note_on,59,0,10,,,,,,,,5,,,53,0
36419,note_on,59,0,9,,,,,,,,4,,,53,0
36419,note_on,59,0,6,,,,,,,,1,,,53,0
36420,note_on,1,0,10,,,,,,,,5,,,53,72
36420,note_on,1,0,15,,,,,,,,10,,,53,72
36420,note_on,1,0,19,,,,,,,,13,,,53,72
36420,note_on,1,0,5,,,,,,,,0,,,69,72
36420,note_on,1,0,6,,,,,,,,1,,,53,72
36420,note_on,1,0,7,,,,,,,,2,,,69,72
36420,note_on,1,0,21,,,,,,,,15,,,53,72
36420,note_on,1,0,17,,,,,,,,11,,,69,72
36420,note_on,1,0,9,,,,,,,,4,,,53,72
36479,note_on,59,0,21,,,,,,,,15,,,53,0
36479,note_on,59,0,7,,,,,,,,2,,,69,0
36479,note_on,59,0,9,,,,,,,,4,,,53,0
36479,note_on,0,0,21,,,,,,,,15,,,65,0
36479,note_on,59,0,15,,,,,,,,10,,,53,0
36479,note_on,59,0,10,,,,,,,,5,,,53,0
36479,note_on,59,0,6,,,,,,,,1,,,53,0
36479,note_on,0,0,21,,,,,,,,15,,,60,0
36479,note_on,0,0,21,,,,,,,,15,,,69,0
36479,note_on,59,0,19,,,,,,,,13,,,53,0
36479,note_on,59,0,17,,,,,,,,11,,,69,0
36479,note_on,59,0,5,,,,,,,,0,,,69,0
36480,note_on,0,0,21,,,,,,,,15,,,70,72
36480,note_on,1,0,21,,,,,,,,15,,,55,72
36480,note_on,1,0,9,,,,,,,,4,,,55,72
36480,note_on,1,0,6,,,,,,,,1,,,55,72
36480,note_on,1,0,19,,,,,,,,13,,,55,72
36480,note_on,1,0,15,,,,,,,,10,,,55,72
36480,note_on,0,0,21,,,,,,,,15,,,74,72
36480,note_on,1,0,10,,,,,,,,5,,,55,72
36480,note_on,1,0,7,,,,,,,,2,,,70,72
36480,note_on,1,0,5,,,,,,,,0,,,70,72
36480,note_on,1,0,17,,,,,,,,11,,,70,72
36480,note_on,0,0,21,,,,,,,,15,,,65,72
36509,note_on,29,0,10,,,,,,,,5,,,55,0
36509,note_on,29,0,19,,,,,,,,13,,,55,0
36509,note_on,29,0,9,,,,,,,,4,,,55,0
36509,note_on,29,0,6,,,,,,,,1,,,55,0
36509,note_on,29,0,21,,,,,,,,15,,,55,0
36509,note_on,29,0,15,,,,,,,,10,,,55,0
36510,note_on,1,0,15,,,,,,,,10,,,57,72
36510,note_on,1,0,9,,,,,,,,4,,,57,72
36510,note_on,1,0,6,,,,,,,,1,,,57,72
36510,note_on,1,0,21,,,,,,,,15,,,57,72
36510,note_on,1,0,10,,,,,,,,5,,,57,72
36510,note_on,1,0,19,,,,,,,,13,,,57,72
36539,note_on,179,0,8,,,,,,,,3,,,65,0
36539,note_on,29,0,15,,,,,,,,10,,,57,0
36539,note_on,59,0,5,,,,,,,,0,,,65,0
36539,note_on,179,0,18,,,,,,,,12,,,65,0
36539,note_on,179,0,14,,,,,,,,10,,,65,0
36539,note_on,29,0,21,,,,,,,,15,,,57,0
36539,note_on,29,0,9,,,,,,,,4,,,57,0
36539,note_on,29,0,6,,,,,,,,1,,,57,0
36539,note_on,0,0,21,,,,,,,,15,,,70,0
36539,note_on,0,0,21,,,,,,,,15,,,74,0
36539,note_on,0,0,21,,,,,,,,15,,,65,0
36539,note_on,29,0,10,,,,,,,,5,,,57,0
36539,note_on,29,0,19,,,,,,,,13,,,57,0
36540,note_on,0,0,21,,,,,,,,15,,,70,72
36540,note_on,0,0,21,,,,,,,,15,,,63,72
36540,note_on,1,0,6,,,,,,,,1,,,55,72
36540,note_on,1,0,15,,,,,,,,10,,,55,72
36540,note_on,1,0,14,,,,,,,,10,,,63,72
36540,note_on,1,0,18,,,,,,,,12,,,63,72
36540,note_on,1,0,21,,,,,,,,15,,,55,72
36540,note_on,1,0,19,,,,,,,,13,,,55,72
36540,note_on,1,0,9,,,,,,,,4,,,55,72
36540,note_on,1,0,5,,,,,,,,0,,,63,72
36540,note_on,1,0,10,,,,,,,,5,,,55,72
36540,note_on,1,0,8,,,,,,,,3,,,63,72
36569,note_on,29,0,10,,,,,,,,5,,,55,0
36569,note_on,29,0,6,,,,,,,,1,,,55,0
36569,note_on,29,0,19,,,,,,,,13,,,55,0
36569,note_on,29,0,18,,,,,,,,12,,,63,0
36569,note_on,29,0,9,,,,,,,,4,,,55,0
36569,note_on,29,0,8,,,,,,,,3,,,63,0
36569,note_on,29,0,14,,,,,,,,10,,,63,0
36569,note_on,29,0,15,,,,,,,,10,,,55,0
36569,note_on,29,0,5,,,,,,,,0,,,63,0
36569,note_on,29,0,21,,,,,,,,15,,,55,0
36570,note_on,1,0,19,,,,,,,,13,,,53,72
36570,note_on,1,0,6,,,,,,,,1,,,53,72
36570,note_on,1,0,9,,,,,,,,4,,,53,72
36570,note_on,1,0,21,,,,,,,,15,,,53,72
36570,note_on,1,0,15,,,,,,,,10,,,53,72
36570,note_on,1,0,14,,,,,,,,10,,,62,72
36570,note_on,1,0,8,,,,,,,,3,,,62,72
36570,note_on,1,0,18,,,,,,,,12,,,62,72
36570,note_on,1,0,10,,,,,,,,5,,,53,72
36570,note_on,1,0,5,,,,,,,,0,,,62,72
36599,note_on,29,0,10,,,,,,,,5,,,53,0
36599,note_on,0,0,5,,,,,,,,0,,,70,0
36599,note_on,29,0,5,,,,,,,,0,,,62,0
36599,note_on,29,0,8,,,,,,,,3,,,62,0
36599,note_on,119,0,17,,,,,,,,11,,,70,0
36599,note_on,29,0,15,,,,,,,,10,,,53,0
36599,note_on,29,0,6,,,,,,,,1,,,53,0
36599,note_on,29,0,18,,,,,,,,12,,,62,0
36599,note_on,29,0,14,,,,,,,,10,,,62,0
36599,note_on,29,0,9,,,,,,,,4,,,53,0
36599,note_on,29,0,21,,,,,,,,15,,,53,0
36599,note_on,29,0,19,,,,,,,,13,,,53,0
36599,note_on,119,0,7,,,,,,,,2,,,70,0
36600,note_on,1,0,14,,,,,,,,10,,,63,72
36600,note_on,1,0,8,,,,,,,,3,,,63,72
36600,note_on,1,0,9,,,,,,,,4,,,55,72
36600,note_on,1,0,19,,,,,,,,13,,,55,72
36600,note_on,1,0,10,,,,,,,,5,,,55,72
36600,note_on,1,0,21,,,,,,,,15,,,55,72
36600,note_on,1,0,6,,,,,,,,1,,,55,72
36600,note_on,1,0,5,,,,,,,,0,,,63,72
36600,note_on,1,0,15,,,,,,,,10,,,55,72
36600,note_on,1,0,18,,,,,,,,12,,,63,72
36629,note_on,29,0,15,,,,,,,,10,,,55,0
36629,note_on,29,0,19,,,,,,,,13,,,55,0
36629,note_on,29,0,21,,,,,,,,15,,,55,0
36629,note_on,29,0,10,,,,,,,,5,,,55,0
36629,note_on,29,0,5,,,,,,,,0,,,63,0
36629,note_on,29,0,18,,,,,,,,12,,,63,0
36629,note_on,29,0,8,,,,,,,,3,,,63,0
36629,note_on,29,0,6,,,,,,,,1,,,55,0
36629,note_on,29,0,14,,,,,,,,10,,,63,0
36629,note_on,29,0,9,,,,,,,,4,,,55,0
36630,note_on,1,0,6,,,,,,,,1,,,57,72
36630,note_on,1,0,5,,,,,,,,0,,,65,72
36630,note_on,1,0,21,,,,,,,,15,,,57,72
36630,note_on,1,0,10,,,,,,,,5,,,57,72
36630,note_on,1,0,19,,,,,,,,13,,,57,72
36630,note_on,1,0,14,,,,,,,,10,,,65,72
36630,note_on,1,0,18,,,,,,,,12,,,65,72
36630,note_on,1,0,8,,,,,,,,3,,,65,72
36630,note_on,1,0,15,,,,,,,,10,,,57,72
36630,note_on,1,0,9,,,,,,,,4,,,57,72
36659,note_on,29,0,5,,,,,,,,0,,,65,0
36659,note_on,29,0,21,,,,,,,,15,,,57,0
36659,note_on,29,0,8,,,,,,,,3,,,65,0
36659,note_on,29,0,10,,,,,,,,5,,,57,0
36659,note_on,29,0,14,,,,,,,,10,,,65,0
36659,note_on,29,0,9,,,,,,,,4,,,57,0
36659,note_on,29,0,19,,,,,,,,13,,,57,0
36659,note_on,29,0,6,,,,,,,,1,,,57,0
36659,note_on,29,0,18,,,,,,,,12,,,65,0
36659,note_on,29,0,15,,,,,,,,10,,,57,0
36660,note_on,1,0,10,,,,,,,,5,,,53,72
36660,note_on,1,0,5,,,,,,,,0,,,70,72
36660,note_on,1,0,15,,,,,,,,10,,,53,72
36660,note_on,1,0,21,,,,,,,,15,,,53,72
36660,note_on,61,0,17,,,,,,,,11,,,70,72
36660,note_on,1,0,8,,,,,,,,3,,,62,72
36660,note_on,1,0,18,,,,,,,,12,,,62,72
36660,note_on,1,0,19,,,,,,,,13,,,53,72
36660,note_on,1,0,14,,,,,,,,10,,,62,72
36660,note_on,0,0,5,,,,,,,,0,,,62,72
36660,note_on,1,0,6,,,,,,,,1,,,53,72
36660,note_on,61,0,7,,,,,,,,2,,,70,72
36660,note_on,1,0,9,,,,,,,,4,,,53,72
36689,note_on,29,0,8,,,,,,,,3,,,62,0
36689,note_on,29,0,10,,,,,,,,5,,,53,0
36689,note_on,29,0,5,,,,,,,,0,,,62,0
36689,note_on,29,0,19,,,,,,,,13,,,53,0
36689,note_on,29,0,6,,,,,,,,1,,,53,0
36689,note_on,29,0,14,,,,,,,,10,,,62,0
36689,note_on,29,0,21,,,,,,,,15,,,53,0
36689,note_on,29,0,9,,,,,,,,4,,,53,0
36689,note_on,29,0,18,,,,,,,,12,,,62,0
36689,note_on,29,0,15,,,,,,,,10,,,53,0
36690,note_on,1,0,8,,,,,,,,3,,,63,72
36690,note_on,1,0,15,,,,,,,,10,,,55,72
36690,note_on,1,0,10,,,,,,,,5,,,55,72
36690,note_on,1,0,6,,,,,,,,1,,,55,72
36690,note_on,1,0,5,,,,,,,,0,,,63,72
36690,note_on,1,0,19,,,,,,,,13,,,55,72
36690,note_on,1,0,9,,,,,,,,4,,,55,72
36690,note_on,1,0,14,,,,,,,,10,,,63,72
36690,note_on,1,0,21,,,,,,,,15,,,55,72
36690,note_on,1,0,18,,,,,,,,12,,,63,72
36719,note_on,59,0,17,,,,,,,,11,,,70,0
36719,note_on,29,0,19,,,,,,,,13,,,55,0
36719,note_on,29,0,9,,,,,,,,4,,,55,0
36719,note_on,0,0,21,,,,,,,,15,,,63,0
36719,note_on,29,0,8,,,,,,,,3,,,63,0
36719,note_on,59,0,7,,,,,,,,2,,,70,0
36719,note_on,29,0,6,,,,,,,,1,,,55,0
36719,note_on,0,0,21,,,,,,,,15,,,70,0
36719,note_on,29,0,21,,,,,,,,15,,,55,0
36719,note_on,29,0,14,,,,,,,,10,,,63,0
36719,note_on,29,0,15,,,,,,,,10,,,55,0
36719,note_on,29,0,10,,,,,,,,5,,,55,0
36719,note_on,0,0,5,,,,,,,,0,,,70,0
36719,note_on,29,0,5,,,,,,,,0,,,63,0
36719,note_on,29,0,18,,,,,,,,12,,,63,0
36720,note_on,1,0,15,,,,,,,,10,,,57,72
36720,note_on,1,0,17,,,,,,,,11,,,72,72
36720,note_on,361,0,16,,,,,,,,10,,,53,72
36720,note_on,1,0,18,,,,,,,,12,,,60,72
36720,note_on,0,0,21,,,,,,,,15,,,69,72
36720,note_on,1,0,9,,,,,,,,4,,,57,72
36720,note_on,421,0,11,,,,,,,,6,,,41,72
36720,note_on,1,0,21,,,,,,,,15,,,53,72
36720,note_on,1,0,14,,,,,,,,10,,,60,72
36720,note_on,0,0,21,,,,,,,,15,,,72,72
36720,note_on,1,0,5,,,,,,,,0,,,72,72
36720,note_on,1,0,7,,,,,,,,2,,,72,72
36720,note_on,0,0,6,,,,,,,,1,,,53,72
36720,note_on,1,0,8,,,,,,,,3,,,60,72
36720,note_on,361,0,20,,,,,,,,14,,,53,72
36720,note_on,1,0,6,,,,,,,,1,,,57,72
36720,note_on,1,0,19,,,,,,,,13,,,57,72
36720,note_on,0,0,5,,,,,,,,0,,,60,72
36720,note_on,0,0,21,,,,,,,,15,,,65,72
36749,note_on,29,0,15,,,,,,,,10,,,57,0
36749,note_on,29,0,6,,,,,,,,1,,,57,0
36749,note_on,29,0,9,,,,,,,,4,,,57,0
36749,note_on,29,0,19,,,,,,,,13,,,57,0
36750,note_on,1,0,15,,,,,,,,10,,,58,72
36750,note_on,1,0,19,,,,,,,,13,,,58,72
36750,note_on,1,0,9,,,,,,,,4,,,58,72
36750,note_on,1,0,6,,,,,,,,1,,,58,72
36779,note_on,59,0,8,,,,,,,,3,,,60,0
36779,note_on,29,0,19,,,,,,,,13,,,58,0
36779,note_on,59,0,5,,,,,,,,0,,,60,0
36779,note_on,29,0,15,,,,,,,,10,,,58,0
36779,note_on,29,0,6,,,,,,,,1,,,58,0
36779,note_on,59,0,14,,,,,,,,10,,,60,0
36779,note_on,59,0,18,,,,,,,,12,,,60,0
36779,note_on,29,0,9,,,,,,,,4,,,58,0
36780,note_on,1,0,5,,,,,,,,0,,,62,72
36780,note_on,1,0,14,,,,,,,,10,,,62,72
36780,note_on,1,0,15,,,,,,,,10,,,57,72
36780,note_on,1,0,9,,,,,,,,4,,,57,72
36780,note_on,1,0,19,,,,,,,,13,,,57,72
36780,note_on,1,0,18,,,,,,,,12,,,62,72
36780,note_on,1,0,6,,,,,,,,1,,,57,72
36780,note_on,1,0,8,,,,,,,,3,,,62,72
36809,note_on,29,0,15,,,,,,,,10,,,57,0
36809,note_on,29,0,6,,,,,,,,1,,,57,0
36809,note_on,29,0,5,,,,,,,,0,,,62,0
36809,note_on,29,0,8,,,,,,,,3,,,62,0
36809,note_on,29,0,19,,,,,,,,13,,,57,0
36809,note_on,29,0,14,,,,,,,,10,,,62,0
36809,note_on,29,0,18,,,,,,,,12,,,62,0
36809,note_on,29,0,9,,,,,,,,4,,,57,0
36810,note_on,1,0,9,,,,,,,,4,,,55,72
36810,note_on,1,0,5,,,,,,,,0,,,63,72
36810,note_on,1,0,8,,,,,,,,3,,,63,72
36810,note_on,1,0,18,,,,,,,,12,,,63,72
36810,note_on,1,0,6,,,,,,,,1,,,55,72
36810,note_on,1,0,15,,,,,,,,10,,,55,72
36810,note_on,1,0,14,,,,,,,,10,,,63,72
36810,note_on,1,0,19,,,,,,,,13,,,55,72
36839,note_on,29,0,5,,,,,,,,0,,,63,0
36839,note_on,29,0,15,,,,,,,,10,,,55,0
36839,note_on,29,0,6,,,,,,,,1,,,55,0
36839,note_on,29,0,14,,,,,,,,10,,,63,0
36839,note_on,29,0,9,,,,,,,,4,,,55,0
36839,note_on,29,0,18,,,,,,,,12,,,63,0
36839,note_on,29,0,19,,,,,,,,13,,,55,0
36839,note_on,29,0,8,,,,,,,,3,,,63,0
36840,note_on,1,0,19,,,,,,,,13,,,57,72
36840,note_on,1,0,18,,,,,,,,12,,,65,72
36840,note_on,1,0,5,,,,,,,,0,,,65,72
36840,note_on,1,0,14,,,,,,,,10,,,65,72
36840,note_on,1,0,15,,,,,,,,10,,,57,72
36840,note_on,1,0,6,,,,,,,,1,,,57,72
36840,note_on,1,0,8,,,,,,,,3,,,65,72
36840,note_on,1,0,9,,,,,,,,4,,,57,72
36869,note_on,29,0,15,,,,,,,,10,,,57,0
36869,note_on,29,0,9,,,,,,,,4,,,57,0
36869,note_on,29,0,6,,,,,,,,1,,,57,0
36869,note_on,29,0,19,,,,,,,,13,,,57,0
36870,note_on,1,0,19,,,,,,,,13,,,58,72
36870,note_on,1,0,15,,,,,,,,10,,,58,72
36870,note_on,1,0,6,,,,,,,,1,,,58,72
36870,note_on,1,0,9,,,,,,,,4,,,58,72
36899,note_on,29,0,19,,,,,,,,13,,,58,0
36899,note_on,29,0,6,,,,,,,,1,,,58,0
36899,note_on,0,0,6,,,,,,,,1,,,53,0
36899,note_on,179,0,11,,,,,,,,6,,,41,0
36899,note_on,29,0,15,,,,,,,,10,,,58,0
36899,note_on,179,0,21,,,,,,,,15,,,53,0
36899,note_on,179,0,16,,,,,,,,10,,,53,0
36899,note_on,179,0,17,,,,,,,,11,,,72,0
36899,note_on,29,0,9,,,,,,,,4,,,58,0
36899,note_on,59,0,5,,,,,,,,0,,,72,0
36899,note_on,179,0,7,,,,,,,,2,,,72,0
36899,note_on,179,0,20,,,,,,,,14,,,53,0
36900,note_on,1,0,15,,,,,,,,10,,,55,72
36900,note_on,1,0,7,,,,,,,,2,,,70,72
36900,note_on,1,0,19,,,,,,,,13,,,55,72
36900,note_on,1,0,20,,,,,,,,14,,,53,72
36900,note_on,1,0,21,,,,,,,,15,,,53,72
36900,note_on,1,0,5,,,,,,,,0,,,70,72
36900,note_on,1,0,6,,,,,,,,1,,,55,72
36900,note_on,1,0,17,,,,,,,,11,,,70,72
36900,note_on,0,0,6,,,,,,,,1,,,53,72
36900,note_on,1,0,11,,,,,,,,6,,,41,72
36900,note_on,1,0,9,,,,,,,,4,,,55,72
36900,note_on,1,0,16,,,,,,,,10,,,53,72
36929,note_on,29,0,9,,,,,,,,4,,,55,0
36929,note_on,29,0,19,,,,,,,,13,,,55,0
36929,note_on,29,0,6,,,,,,,,1,,,55,0
36929,note_on,29,0,15,,,,,,,,10,,,55,0
36929,note_on,29,0,5,,,,,,,,0,,,70,0
36929,note_on,29,0,7,,,,,,,,2,,,70,0
36929,note_on,29,0,17,,,,,,,,11,,,70,0
36930,note_on,1,0,19,,,,,,,,13,,,57,72
36930,note_on,1,0,15,,,,,,,,10,,,57,72
36930,note_on,1,0,7,,,,,,,,2,,,72,72
36930,note_on,1,0,17,,,,,,,,11,,,72,72
36930,note_on,1,0,5,,,,,,,,0,,,72,72
36930,note_on,1,0,9,,,,,,,,4,,,57,72
36930,note_on,1,0,6,,,,,,,,1,,,57,72
36959,note_on,59,0,21,,,,,,,,15,,,53,0
36959,note_on,29,0,9,,,,,,,,4,,,57,0
36959,note_on,59,0,20,,,,,,,,14,,,53,0
36959,note_on,0,0,21,,,,,,,,15,,,65,0
36959,note_on,29,0,17,,,,,,,,11,,,72,0
36959,note_on,0,0,6,,,,,,,,1,,,53,0
36959,note_on,29,0,6,,,,,,,,1,,,57,0
36959,note_on,29,0,19,,,,,,,,13,,,57,0
36959,note_on,0,0,21,,,,,,,,15,,,69,0
36959,note_on,0,0,21,,,,,,,,15,,,72,0
36959,note_on,29,0,15,,,,,,,,10,,,57,0
36959,note_on,29,0,5,,,,,,,,0,,,72,0
36959,note_on,29,0,7,,,,,,,,2,,,72,0
36959,note_on,59,0,16,,,,,,,,10,,,53,0
36959,note_on,59,0,11,,,,,,,,6,,,41,0
36960,note_on,1,0,17,,,,,,,,11,,,74,72
36960,note_on,1,0,20,,,,,,,,14,,,50,72
36960,note_on,1,0,15,,,,,,,,10,,,58,72
36960,note_on,1,0,6,,,,,,,,1,,,58,72
36960,note_on,0,0,6,,,,,,,,1,,,50,72
36960,note_on,1,0,7,,,,,,,,2,,,74,72
36960,note_on,1,0,11,,,,,,,,6,,,38,72
36960,note_on,1,0,9,,,,,,,,4,,,58,72
36960,note_on,0,0,21,,,,,,,,15,,,74,72
36960,note_on,1,0,16,,,,,,,,10,,,50,72
36960,note_on,1,0,19,,,,,,,,13,,,58,72
36960,note_on,1,0,5,,,,,,,,0,,,74,72
36960,note_on,0,0,21,,,,,,,,15,,,70,72
36960,note_on,0,0,21,,,,,,,,15,,,65,72
36960,note_on,1,0,21,,,,,,,,15,,,50,72
37019,note_on,179,0,8,,,,,,,,3,,,65,0
37019,note_on,179,0,14,,,,,,,,10,,,65,0
37019,note_on,59,0,7,,,,,,,,2,,,74,0
37019,note_on,59,0,5,,,,,,,,0,,,74,0
37019,note_on,0,0,5,,,,,,,,0,,,65,0
37019,note_on,179,0,18,,,,,,,,12,,,65,0
37019,note_on,59,0,17,,,,,,,,11,,,74,0
37020,note_on,0,0,5,,,,,,,,0,,,58,72
37020,note_on,1,0,17,,,,,,,,11,,,72,72
37020,note_on,1,0,7,,,,,,,,2,,,72,72
37020,note_on,1,0,18,,,,,,,,12,,,58,72
37020,note_on,1,0,5,,,,,,,,0,,,72,72
37020,note_on,1,0,8,,,,,,,,3,,,58,72
37020,note_on,1,0,14,,,,,,,,10,,,58,72
37049,note_on,29,0,5,,,,,,,,0,,,72,0
37049,note_on,29,0,17,,,,,,,,11,,,72,0
37049,note_on,29,0,7,,,,,,,,2,,,72,0
37050,note_on,1,0,5,,,,,,,,0,,,74,72
37050,note_on,1,0,17,,,,,,,,11,,,74,72
37050,note_on,1,0,7,,,,,,,,2,,,74,72
37079,note_on,119,0,15,,,,,,,,10,,,58,0
37079,note_on,29,0,7,,,,,,,,2,,,74,0
37079,note_on,119,0,21,,,,,,,,15,,,74,0
37079,note_on,0,0,21,,,,,,,,15,,,70,0
37079,note_on,0,0,21,,,,,,,,15,,,65,0
37079,note_on,0,0,21,,,,,,,,15,,,50,0
37079,note_on,119,0,9,,,,,,,,4,,,58,0
37079,note_on,119,0,19,,,,,,,,13,,,58,0
37079,note_on,119,0,11,,,,,,,,6,,,38,0
37079,note_on,119,0,20,,,,,,,,14,,,50,0
37079,note_on,119,0,16,,,,,,,,10,,,50,0
37079,note_on,119,0,6,,,,,,,,1,,,50,0
37079,note_on,29,0,17,,,,,,,,11,,,74,0
37079,note_on,29,0,5,,,,,,,,0,,,74,0
37079,note_on,0,0,6,,,,,,,,1,,,58,0
37080,note_on,1,0,5,,,,,,,,0,,,75,72
37080,note_on,0,0,21,,,,,,,,15,,,70,72
37080,note_on,1,0,21,,,,,,,,15,,,55,72
37080,note_on,1,0,20,,,,,,,,14,,,55,72
37080,note_on,1,0,11,,,,,,,,6,,,43,72
37080,note_on,1,0,16,,,,,,,,10,,,55,72
37080,note_on,1,0,7,,,,,,,,2,,,75,72
37080,note_on,1,0,17,,,,,,,,11,,,75,72
37080,note_on,1,0,6,,,,,,,,1,,,55,72
37080,note_on,0,0,21,,,,,,,,15,,,75,72
37139,note_on,0,0,5,,,,,,,,0,,,58,0
37139,note_on,119,0,14,,,,,,,,10,,,58,0
37139,note_on,59,0,7,,,,,,,,2,,,75,0
37139,note_on,119,0,18,,,,,,,,12,,,58,0
37139,note_on,59,0,5,,,,,,,,0,,,75,0
37139,note_on,119,0,8,,,,,,,,3,,,58,0
37139,note_on,59,0,17,,,,,,,,11,,,75,0
37140,note_on,0,0,5,,,,,,,,0,,,67,72
37140,note_on,1,0,14,,,,,,,,10,,,67,72
37140,note_on,1,0,17,,,,,,,,11,,,74,72
37140,note_on,1,0,5,,,,,,,,0,,,74,72
37140,note_on,1,0,7,,,,,,,,2,,,74,72
37140,note_on,1,0,8,,,,,,,,3,,,67,72
37140,note_on,1,0,18,,,,,,,,12,,,67,72
37169,note_on,29,0,7,,,,,,,,2,,,74,0
37169,note_on,29,0,5,,,,,,,,0,,,74,0
37169,note_on,29,0,17,,,,,,,,11,,,74,0
37170,note_on,1,0,5,,,,,,,,0,,,75,72
37170,note_on,1,0,7,,,,,,,,2,,,75,72
37170,note_on,1,0,17,,,,,,,,11,,,75,72
37199,note_on,59,0,8,,,,,,,,3,,,67,0
37199,note_on,29,0,7,,,,,,,,2,,,75,0
37199,note_on,29,0,17,,,,,,,,11,,,75,0
37199,note_on,119,0,16,,,,,,,,10,,,55,0
37199,note_on,59,0,18,,,,,,,,12,,,67,0
37199,note_on,119,0,6,,,,,,,,1,,,55,0
37199,note_on,119,0,11,,,,,,,,6,,,43,0
37199,note_on,59,0,14,,,,,,,,10,,,67,0
37199,note_on,0,0,21,,,,,,,,15,,,70,0
37199,note_on,119,0,21,,,,,,,,15,,,75,0
37199,note_on,0,0,5,,,,,,,,0,,,67,0
37199,note_on,29,0,5,,,,,,,,0,,,75,0
37199,note_on,119,0,20,,,,,,,,14,,,55,0
37199,note_on,0,0,21,,,,,,,,15,,,55,0
37200,note_on,1,0,18,,,,,,,,12,,,65,72
37200,note_on,1,0,7,,,,,,,,2,,,77,72
37200,note_on,0,0,5,,,,,,,,0,,,65,72
37200,note_on,1,0,5,,,,,,,,0,,,77,72
37200,note_on,1,0,6,,,,,,,,1,,,45,72
37200,note_on,1,0,20,,,,,,,,14,,,45,72
37200,note_on,1,0,11,,,,,,,,6,,,33,72
37200,note_on,1,0,16,,,,,,,,10,,,45,72
37200,note_on,1,0,21,,,,,,,,15,,,45,72
37200,note_on,1,0,17,,,,,,,,11,,,77,72
37200,note_on,0,0,21,,,,,,,,15,,,60,72
37200,note_on,1,0,8,,,,,,,,3,,,65,72
37200,note_on,1,0,14,,,,,,,,10,,,65,72
37200,note_on,0,0,21,,,,,,,,15,,,77,72
37259,note_on,59,0,7,,,,,,,,2,,,77,0
37259,note_on,59,0,17,,,,,,,,11,,,77,0
37259,note_on,59,0,5,,,,,,,,0,,,77,0
37260,note_on,1,0,17,,,,,,,,11,,,72,72
37260,note_on,1,0,5,,,,,,,,0,,,72,72
37260,note_on,181,0,9,,,,,,,,4,,,60,72
37260,note_on,181,0,19,,,,,,,,13,,,60,72
37260,note_on,60,0,6,,,,,,,,1,,,60,72
37260,note_on,181,0,15,,,,,,,,10,,,60,72
37260,note_on,1,0,7,,,,,,,,2,,,72,72
37319,note_on,59,0,17,,,,,,,,11,,,72,0
37319,note_on,119,0,18,,,,,,,,12,,,65,0
37319,note_on,59,0,19,,,,,,,,13,,,60,0
37319,note_on,119,0,8,,,,,,,,3,,,65,0
37319,note_on,0,0,5,,,,,,,,0,,,65,0
37319,note_on,59,0,15,,,,,,,,10,,,60,0
37319,note_on,59,0,7,,,,,,,,2,,,72,0
37319,note_on,59,0,5,,,,,,,,0,,,72,0
37319,note_on,59,0,9,,,,,,,,4,,,60,0
37319,note_on,59,0,6,,,,,,,,1,,,60,0
37319,note_on,119,0,14,,,,,,,,10,,,65,0
37320,note_on,1,0,15,,,,,,,,10,,,60,72
37320,note_on,1,0,7,,,,,,,,2,,,77,72
37320,note_on,1,0,6,,,,,,,,1,,,60,72
37320,note_on,1,0,19,,,,,,,,13,,,60,72
37320,note_on,1,0,5,,,,,,,,0,,,77,72
37320,note_on,1,0,9,,,,,,,,4,,,60,72
37320,note_on,1,0,17,,,,,,,,11,,,77,72
37379,note_on,59,0,9,,,,,,,,4,,,60,0
37379,note_on,179,0,21,,,,,,,,15,,,77,0
37379,note_on,0,0,21,,,,,,,,15,,,45,0
37379,note_on,179,0,11,,,,,,,,6,,,33,0
37379,note_on,0,0,21,,,,,,,,15,,,60,0
37379,note_on,179,0,16,,,,,,,,10,,,45,0
37379,note_on,179,0,20,,,,,,,,14,,,45,0
37379,note_on,59,0,5,,,,,,,,0,,,77,0
37379,note_on,59,0,17,,,,,,,,11,,,77,0
37379,note_on,59,0,19,,,,,,,,13,,,60,0
37379,note_on,0,0,6,,,,,,,,1,,,45,0
37379,note_on,59,0,6,,,,,,,,1,,,60,0
37379,note_on,59,0,7,,,,,,,,2,,,77,0
37379,note_on,59,0,15,,,,,,,,10,,,60,0
37380,note_on,1,0,15,,,,,,,,10,,,60,72
37380,note_on,1,0,19,,,,,,,,13,,,60,72
37380,note_on,1,0,9,,,,,,,,4,,,60,72
37380,note_on,1,0,6,,,,,,,,1,,,45,72
37380,note_on,1,0,5,,,,,,,,0,,,76,72
37380,note_on,1,0,21,,,,,,,,15,,,45,72
37380,note_on,0,0,21,,,,,,,,15,,,75,72
37380,note_on,1,0,7,,,,,,,,2,,,76,72
37380,note_on,0,0,6,,,,,,,,1,,,60,72
37380,note_on,1,0,20,,,,,,,,14,,,45,72
37380,note_on,1,0,16,,,,,,,,10,,,45,72
37380,note_on,1,0,17,,,,,,,,11,,,75,72
37380,note_on,1,0,11,,,,,,,,6,,,33,72
37380,note_on,0,0,21,,,,,,,,15,,,60,72
37439,note_on,0,0,21,,,,,,,,15,,,45,0
37439,note_on,0,0,21,,,,,,,,15,,,75,0
37439,note_on,59,0,21,,,,,,,,15,,,60,0
37439,note_on,59,0,20,,,,,,,,14,,,45,0
37439,note_on,59,0,5,,,,,,,,0,,,76,0
37439,note_on,59,0,9,,,,,,,,4,,,60,0
37439,note_on,59,0,11,,,,,,,,6,,,33,0
37439,note_on,59,0,16,,,,,,,,10,,,45,0
37439,note_on,59,0,7,,,,,,,,2,,,76,0
37439,note_on,59,0,17,,,,,,,,11,,,75,0
37439,note_on,0,0,6,,,,,,,,1,,,45,0
37439,note_on,59,0,6,,,,,,,,1,,,60,0
37439,note_on,59,0,19,,,,,,,,13,,,60,0
37439,note_on,59,0,15,,,,,,,,10,,,60,0
37440,note_on,1,0,19,,,,,,,,13,,,62,72
37440,note_on,1,0,9,,,,,,,,4,,,62,72
37440,note_on,0,0,21,,,,,,,,15,,,58,72
37440,note_on,1,0,6,,,,,,,,1,,,62,72
37440,note_on,1,0,5,,,,,,,,0,,,74,72
37440,note_on,0,0,21,,,,,,,,15,,,65,72
37440,note_on,0,0,6,,,,,,,,1,,,46,72
37440,note_on,1,0,16,,,,,,,,10,,,46,72
37440,note_on,1,0,15,,,,,,,,10,,,62,72
37440,note_on,1,0,21,,,,,,,,15,,,46,72
37440,note_on,1,0,17,,,,,,,,11,,,74,72
37440,note_on,1,0,11,,,,,,,,6,,,34,72
37440,note_on,1,0,20,,,,,,,,14,,,46,72
37440,note_on,0,0,21,,,,,,,,15,,,74,72
37440,note_on,1,0,7,,,,,,,,2,,,74,72
37469,note_on,29,0,15,,,,,,,,10,,,62,0
37469,note_on,29,0,6,,,,,,,,1,,,62,0
37469,note_on,29,0,9,,,,,,,,4,,,62,0
37469,note_on,29,0,19,,,,,,,,13,,,62,0
37470,note_on,1,0,6,,,,,,,,1,,,63,72
37470,note_on,1,0,9,,,,,,,,4,,,63,72
37470,note_on,1,0,19,,,,,,,,13,,,63,72
37470,note_on,1,0,15,,,,,,,,10,,,63,72
37499,note_on,59,0,5,,,,,,,,0,,,74,0
37499,note_on,29,0,19,,,,,,,,13,,,63,0
37499,note_on,29,0,6,,,,,,,,1,,,63,0
37499,note_on,59,0,17,,,,,,,,11,,,74,0
37499,note_on,59,0,7,,,,,,,,2,,,74,0
37499,note_on,29,0,9,,,,,,,,4,,,63,0
37499,note_on,29,0,15,,,,,,,,10,,,63,0
37500,note_on,1,0,15,,,,,,,,10,,,62,72
37500,note_on,1,0,17,,,,,,,,11,,,65,72
37500,note_on,1,0,7,,,,,,,,2,,,65,72
37500,note_on,1,0,5,,,,,,,,0,,,65,72
37500,note_on,1,0,6,,,,,,,,1,,,62,72
37500,note_on,1,0,9,,,,,,,,4,,,62,72
37500,note_on,1,0,19,,,,,,,,13,,,62,72
37529,note_on,29,0,19,,,,,,,,13,,,62,0
37529,note_on,29,0,9,,,,,,,,4,,,62,0
37529,note_on,29,0,6,,,,,,,,1,,,62,0
37529,note_on,29,0,15,,,,,,,,10,,,62,0
37530,note_on,1,0,9,,,,,,,,4,,,60,72
37530,note_on,1,0,6,,,,,,,,1,,,60,72
37530,note_on,1,0,19,,,,,,,,13,,,60,72
37530,note_on,1,0,15,,,,,,,,10,,,60,72
37559,note_on,119,0,16,,,,,,,,10,,,46,0
37559,note_on,29,0,6,,,,,,,,1,,,60,0
37559,note_on,29,0,15,,,,,,,,10,,,60,0
37559,note_on,0,0,6,,,,,,,,1,,,46,0
37559,note_on,29,0,9,,,,,,,,4,,,60,0
37559,note_on,59,0,5,,,,,,,,0,,,65,0
37559,note_on,29,0,19,,,,,,,,13,,,60,0
37559,note_on,119,0,11,,,,,,,,6,,,34,0
37559,note_on,0,0,21,,,,,,,,15,,,74,0
37559,note_on,0,0,21,,,,,,,,15,,,65,0
37559,note_on,59,0,7,,,,,,,,2,,,65,0
37559,note_on,119,0,20,,,,,,,,14,,,46,0
37559,note_on,119,0,21,,,,,,,,15,,,58,0
37559,note_on,59,0,17,,,,,,,,11,,,65,0
37559,note_on,0,0,21,,,,,,,,15,,,46,0
37560,note_on,1,0,7,,,,,,,,2,,,70,72
37560,note_on,1,0,15,,,,,,,,10,,,62,72
37560,note_on,1,0,5,,,,,,,,0,,,70,72
37560,note_on,1,0,19,,,,,,,,13,,,62,72
37560,note_on,1,0,17,,,,,,,,11,,,70,72
37560,note_on,1,0,9,,,,,,,,4,,,62,72
37560,note_on,1,0,6,,,,,,,,1,,,62,72
37589,note_on,29,0,19,,,,,,,,13,,,62,0
37589,note_on,29,0,15,,,,,,,,10,,,62,0
37589,note_on,29,0,6,,,,,,,,1,,,62,0
37589,note_on,29,0,9,,,,,,,,4,,,62,0
37590,note_on,1,0,19,,,,,,,,13,,,63,72
37590,note_on,1,0,9,,,,,,,,4,,,63,72
37590,note_on,1,0,6,,,,,,,,1,,,63,72
37590,note_on,1,0,15,,,,,,,,10,,,63,72
37619,note_on,29,0,6,,,,,,,,1,,,63,0
37619,note_on,29,0,15,,,,,,,,10,,,63,0
37619,note_on,29,0,9,,,,,,,,4,,,63,0
37619,note_on,29,0,19,,,,,,,,13,,,63,0
37620,note_on,0,0,21,,,,,,,,15,,,65,72
37620,note_on,0,0,21,,,,,,,,15,,,74,72
37620,note_on,0,0,21,,,,,,,,15,,,58,72
37620,note_on,61,0,21,,,,,,,,15,,,46,72
37620,note_on,61,0,16,,,,,,,,10,,,46,72
37620,note_on,61,0,20,,,,,,,,14,,,46,72
37620,note_on,0,0,6,,,,,,,,1,,,46,72
37620,note_on,1,0,6,,,,,,,,1,,,60,72
37620,note_on,1,0,9,,,,,,,,4,,,60,72
37620,note_on,1,0,19,,,,,,,,13,,,60,72
37620,note_on,61,0,11,,,,,,,,6,,,34,72
37620,note_on,1,0,15,,,,,,,,10,,,60,72
37649,note_on,29,0,15,,,,,,,,10,,,60,0
37649,note_on,29,0,19,,,,,,,,13,,,60,0
37649,note_on,29,0,9,,,,,,,,4,,,60,0
37649,note_on,29,0,6,,,,,,,,1,,,60,0
37650,note_on,1,0,19,,,,,,,,13,,,62,72
37650,note_on,1,0,15,,,,,,,,10,,,62,72
37650,note_on,1,0,6,,,,,,,,1,,,62,72
37650,note_on,1,0,9,,,,,,,,4,,,62,72
37679,note_on,0,0,6,,,,,,,,1,,,46,0
37679,note_on,29,0,6,,,,,,,,1,,,62,0
37679,note_on,59,0,11,,,,,,,,6,,,34,0
37679,note_on,59,0,20,,,,,,,,14,,,46,0
37679,note_on,29,0,15,,,,,,,,10,,,62,0
37679,note_on,59,0,16,,,,,,,,10,,,46,0
37679,note_on,59,0,21,,,,,,,,15,,,74,0
37679,note_on,0,0,21,,,,,,,,15,,,65,0
37679,note_on,0,0,21,,,,,,,,15,,,58,0
37679,note_on,0,0,21,,,,,,,,15,,,46,0
37679,note_on,29,0,9,,,,,,,,4,,,62,0
37679,note_on,29,0,19,,,,,,,,13,,,62,0
37680,note_on,1,0,11,,,,,,,,6,,,36,72
37680,note_on,1,0,15,,,,,,,,10,,,63,72
37680,note_on,0,0,21,,,,,,,,15,,,67,72
37680,note_on,0,0,21,,,,,,,,15,,,64,72
37680,note_on,1,0,21,,,,,,,,15,,,48,72
37680,note_on,1,0,16,,,,,,,,10,,,48,72
37680,note_on,0,0,6,,,,,,,,1,,,48,72
37680,note_on,1,0,19,,,,,,,,13,,,63,72
37680,note_on,1,0,20,,,,,,,,14,,,48,72
37680,note_on,0,0,21,,,,,,,,15,,,70,72
37680,note_on,1,0,6,,,,,,,,1,,,63,72
37680,note_on,1,0,9,,,,,,,,4,,,63,72
37709,note_on,29,0,19,,,,,,,,13,,,63,0
37709,note_on,29,0,9,,,,,,,,4,,,63,0
37709,note_on,29,0,15,,,,,,,,10,,,63,0
37709,note_on,29,0,6,,,,,,,,1,,,63,0
37710,note_on,1,0,9,,,,,,,,4,,,65,72
37710,note_on,1,0,15,,,,,,,,10,,,65,72
37710,note_on,1,0,6,,,,,,,,1,,,65,72
37710,note_on,1,0,19,,,,,,,,13,,,65,72
37739,note_on,29,0,6,,,,,,,,1,,,65,0
37739,note_on,29,0,9,,,,,,,,4,,,65,0
37739,note_on,29,0,15,,,,,,,,10,,,65,0
37739,note_on,29,0,19,,,,,,,,13,,,65,0
37740,note_on,1,0,15,,,,,,,,10,,,63,72
37740,note_on,1,0,9,,,,,,,,4,,,63,72
37740,note_on,1,0,19,,,,,,,,13,,,63,72
37740,note_on,1,0,6,,,,,,,,1,,,63,72
37769,note_on,29,0,6,,,,,,,,1,,,63,0
37769,note_on,29,0,19,,,,,,,,13,,,63,0
37769,note_on,29,0,9,,,,,,,,4,,,63,0
37769,note_on,29,0,15,,,,,,,,10,,,63,0
37770,note_on,1,0,19,,,,,,,,13,,,62,72
37770,note_on,1,0,9,,,,,,,,4,,,62,72
37770,note_on,1,0,6,,,,,,,,1,,,62,72
37770,note_on,1,0,15,,,,,,,,10,,,62,72
37799,note_on,239,0,5,,,,,,,,0,,,70,0
37799,note_on,29,0,6,,,,,,,,1,,,62,0
37799,note_on,239,0,17,,,,,,,,11,,,70,0
37799,note_on,119,0,21,,,,,,,,15,,,70,0
37799,note_on,0,0,21,,,,,,,,15,,,67,0
37799,note_on,0,0,21,,,,,,,,15,,,64,0
37799,note_on,29,0,19,,,,,,,,13,,,62,0
37799,note_on,29,0,9,,,,,,,,4,,,62,0
37799,note_on,239,0,7,,,,,,,,2,,,70,0
37799,note_on,29,0,15,,,,,,,,10,,,62,0
37800,note_on,0,0,21,,,,,,,,15,,,69,72
37800,note_on,1,0,6,,,,,,,,1,,,63,72
37800,note_on,1,0,19,,,,,,,,13,,,63,72
37800,note_on,1,0,15,,,,,,,,10,,,63,72
37800,note_on,1,0,9,,,,,,,,4,,,63,72
37800,note_on,1,0,21,,,,,,,,15,,,64,72
37800,note_on,1,0,17,,,,,,,,11,,,69,72
37800,note_on,1,0,5,,,,,,,,0,,,69,72
37800,note_on,1,0,7,,,,,,,,2,,,69,72
37829,note_on,29,0,9,,,,,,,,4,,,63,0
37829,note_on,29,0,6,,,,,,,,1,,,63,0
37829,note_on,29,0,19,,,,,,,,13,,,63,0
37829,note_on,29,0,15,,,,,,,,10,,,63,0
37830,note_on,1,0,6,,,,,,,,1,,,65,72
37830,note_on,1,0,19,,,,,,,,13,,,65,72
37830,note_on,1,0,9,,,,,,,,4,,,65,72
37830,note_on,1,0,15,,,,,,,,10,,,65,72
37859,note_on,179,0,16,,,,,,,,10,,,48,0
37859,note_on,29,0,15,,,,,,,,10,,,65,0
37859,note_on,179,0,11,,,,,,,,6,,,36,0
37859,note_on,29,0,19,,,,,,,,13,,,65,0
37859,note_on,0,0,6,,,,,,,,1,,,48,0
37859,note_on,29,0,9,,,,,,,,4,,,65,0
37859,note_on,179,0,20,,,,,,,,14,,,48,0
37859,note_on,59,0,21,,,,,,,,15,,,48,0
37859,note_on,29,0,6,,,,,,,,1,,,65,0
37860,note_on,1,0,20,,,,,,,,14,,,46,72
37860,note_on,1,0,15,,,,,,,,10,,,62,72
37860,note_on,1,0,6,,,,,,,,1,,,62,72
37860,note_on,0,0,6,,,,,,,,1,,,46,72
37860,note_on,1,0,19,,,,,,,,13,,,62,72
37860,note_on,1,0,21,,,,,,,,15,,,46,72
37860,note_on,1,0,11,,,,,,,,6,,,34,72
37860,note_on,1,0,16,,,,,,,,10,,,46,72
37860,note_on,1,0,9,,,,,,,,4,,,62,72
37889,note_on,29,0,19,,,,,,,,13,,,62,0
37889,note_on,29,0,21,,,,,,,,15,,,46,0
37889,note_on,29,0,16,,,,,,,,10,,,46,0
37889,note_on,0,0,6,,,,,,,,1,,,62,0
37889,note_on,29,0,6,,,,,,,,1,,,46,0
37889,note_on,29,0,15,,,,,,,,10,,,62,0
37889,note_on,29,0,11,,,,,,,,6,,,34,0
37889,note_on,29,0,20,,,,,,,,14,,,46,0
37889,note_on,29,0,9,,,,,,,,4,,,62,0
37890,note_on,1,0,11,,,,,,,,6,,,36,72
37890,note_on,0,0,6,,,,,,,,1,,,48,72
37890,note_on,1,0,6,,,,,,,,1,,,63,72
37890,note_on,1,0,21,,,,,,,,15,,,48,72
37890,note_on,1,0,20,,,,,,,,14,,,48,72
37890,note_on,1,0,15,,,,,,,,10,,,63,72
37890,note_on,1,0,16,,,,,,,,10,,,48,72
37890,note_on,1,0,19,,,,,,,,13,,,63,72
37890,note_on,1,0,9,,,,,,,,4,,,63,72
37919,note_on,29,0,9,,,,,,,,4,,,63,0
37919,note_on,29,0,20,,,,,,,,14,,,48,0
37919,note_on,119,0,5,,,,,,,,0,,,69,0
37919,note_on,29,0,16,,,,,,,,10,,,48,0
37919,note_on,29,0,19,,,,,,,,13,,,63,0
37919,note_on,119,0,17,,,,,,,,11,,,69,0
37919,note_on,0,0,6,,,,,,,,1,,,63,0
37919,note_on,29,0,21,,,,,,,,15,,,48,0
37919,note_on,29,0,6,,,,,,,,1,,,48,0
37919,note_on,29,0,11,,,,,,,,6,,,36,0
37919,note_on,0,0,21,,,,,,,,15,,,64,0
37919,note_on,119,0,7,,,,,,,,2,,,69,0
37919,note_on,29,0,15,,,,,,,,10,,,63,0
37919,note_on,0,0,21,,,,,,,,15,,,69,0
37920,note_on,0,0,21,,,,,,,,15,,,70,72
37920,note_on,0,0,21,,,,,,,,15,,,65,72
37920,note_on,1,0,21,,,,,,,,15,,,50,72
37920,note_on,1,0,5,,,,,,,,0,,,70,72
37920,note_on,1,0,15,,,,,,,,10,,,65,72
37920,note_on,1,0,20,,,,,,,,14,,,50,72
37920,note_on,1,0,9,,,,,,,,4,,,65,72
37920,note_on,1,0,7,,,,,,,,2,,,70,72
37920,note_on,0,0,6,,,,,,,,1,,,65,72
37920,note_on,1,0,6,,,,,,,,1,,,50,72
37920,note_on,1,0,11,,,,,,,,6,,,38,72
37920,note_on,1,0,16,,,,,,,,10,,,50,72
37920,note_on,1,0,19,,,,,,,,13,,,65,72
37920,note_on,1,0,17,,,,,,,,11,,,70,72
37979,note_on,59,0,11,,,,,,,,6,,,38,0
37979,note_on,59,0,15,,,,,,,,10,,,65,0
37979,note_on,59,0,20,,,,,,,,14,,,50,0
37979,note_on,59,0,16,,,,,,,,10,,,50,0
37979,note_on,59,0,19,,,,,,,,13,,,65,0
37979,note_on,59,0,7,,,,,,,,2,,,70,0
37979,note_on,59,0,21,,,,,,,,15,,,50,0
37979,note_on,59,0,5,,,,,,,,0,,,70,0
37979,note_on,59,0,6,,,,,,,,1,,,65,0
37979,note_on,0,0,6,,,,,,,,1,,,50,0
37979,note_on,59,0,9,,,,,,,,4,,,65,0
37979,note_on,59,0,17,,,,,,,,11,,,70,0
37980,note_on,1,0,16,,,,,,,,10,,,58,72
37980,note_on,1,0,17,,,,,,,,11,,,70,72
37980,note_on,1,0,7,,,,,,,,2,,,70,72
37980,note_on,1,0,21,,,,,,,,15,,,58,72
37980,note_on,1,0,9,,,,,,,,4,,,62,72
37980,note_on,1,0,15,,,,,,,,10,,,62,72
37980,note_on,1,0,20,,,,,,,,14,,,58,72
37980,note_on,1,0,6,,,,,,,,1,,,62,72
37980,note_on,0,0,6,,,,,,,,1,,,58,72
37980,note_on,1,0,19,,,,,,,,13,,,62,72
37980,note_on,1,0,11,,,,,,,,6,,,46,72
37980,note_on,1,0,5,,,,,,,,0,,,70,72
38009,note_on,29,0,21,,,,,,,,15,,,58,0
38009,note_on,29,0,16,,,,,,,,10,,,58,0
38009,note_on,29,0,20,,,,,,,,14,,,58,0
38009,note_on,29,0,6,,,,,,,,1,,,58,0
38009,note_on,29,0,11,,,,,,,,6,,,46,0
38010,note_on,1,0,16,,,,,,,,10,,,57,72
38010,note_on,1,0,21,,,,,,,,15,,,57,72
38010,note_on,1,0,11,,,,,,,,6,,,45,72
38010,note_on,1,0,6,,,,,,,,1,,,57,72
38010,note_on,1,0,20,,,,,,,,14,,,57,72
38039,note_on,0,0,21,,,,,,,,15,,,70,0
38039,note_on,59,0,7,,,,,,,,2,,,70,0
38039,note_on,59,0,17,,,,,,,,11,,,70,0
38039,note_on,59,0,5,,,,,,,,0,,,70,0
38039,note_on,29,0,6,,,,,,,,1,,,57,0
38039,note_on,0,0,6,,,,,,,,1,,,62,0
38039,note_on,29,0,21,,,,,,,,15,,,57,0
38039,note_on,29,0,11,,,,,,,,6,,,45,0
38039,note_on,59,0,9,,,,,,,,4,,,62,0
38039,note_on,59,0,15,,,,,,,,10,,,62,0
38039,note_on,0,0,21,,,,,,,,15,,,65,0
38039,note_on,59,0,19,,,,,,,,13,,,62,0
38039,note_on,29,0,16,,,,,,,,10,,,57,0
38039,note_on,29,0,20,,,,,,,,14,,,57,0
38040,note_on,1,0,19,,,,,,,,13,,,64,72
38040,note_on,1,0,21,,,,,,,,15,,,55,72
38040,note_on,1,0,7,,,,,,,,2,,,70,72
38040,note_on,0,0,21,,,,,,,,15,,,70,72
38040,note_on,1,0,6,,,,,,,,1,,,64,72
38040,note_on,0,0,6,,,,,,,,1,,,55,72
38040,note_on,1,0,15,,,,,,,,10,,,64,72
38040,note_on,1,0,20,,,,,,,,14,,,55,72
38040,note_on,1,0,11,,,,,,,,6,,,43,72
38040,note_on,1,0,16,,,,,,,,10,,,55,72
38040,note_on,1,0,9,,,,,,,,4,,,64,72
38040,note_on,1,0,5,,,,,,,,0,,,70,72
38040,note_on,0,0,21,,,,,,,,15,,,64,72
38040,note_on,1,0,17,,,,,,,,11,,,70,72
38099,note_on,0,0,21,,,,,,,,15,,,70,0
38099,note_on,59,0,15,,,,,,,,10,,,64,0
38099,note_on,0,0,21,,,,,,,,15,,,55,0
38099,note_on,59,0,11,,,,,,,,6,,,43,0
38099,note_on,59,0,16,,,,,,,,10,,,55,0
38099,note_on,59,0,20,,,,,,,,14,,,55,0
38099,note_on,59,0,6,,,,,,,,1,,,55,0
38099,note_on,59,0,19,,,,,,,,13,,,64,0
38099,note_on,59,0,9,,,,,,,,4,,,64,0
38099,note_on,59,0,21,,,,,,,,15,,,64,0
38099,note_on,0,0,6,,,,,,,,1,,,64,0
38100,note_on,1,0,11,,,,,,,,6,,,41,72
38100,note_on,1,0,20,,,,,,,,14,,,53,72
38100,note_on,1,0,9,,,,,,,,4,,,65,72
38100,note_on,1,0,21,,,,,,,,15,,,53,72
38100,note_on,0,0,6,,,,,,,,1,,,53,72
38100,note_on,1,0,15,,,,,,,,10,,,65,72
38100,note_on,1,0,19,,,,,,,,13,,,65,72
38100,note_on,1,0,16,,,,,,,,10,,,53,72
38100,note_on,1,0,6,,,,,,,,1,,,65,72
38100,note_on,0,0,21,,,,,,,,15,,,70,72
38100,note_on,0,0,21,,,,,,,,15,,,65,72
38159,note_on,59,0,21,,,,,,,,15,,,65,0
38159,note_on,0,0,21,,,,,,,,15,,,70,0
38159,note_on,59,0,11,,,,,,,,6,,,41,0
38159,note_on,59,0,19,,,,,,,,13,,,65,0
38159,note_on,59,0,15,,,,,,,,10,,,65,0
38159,note_on,0,0,6,,,,,,,,1,,,65,0
38159,note_on,59,0,9,,,,,,,,4,,,65,0
38159,note_on,59,0,6,,,,,,,,1,,,53,0
38159,note_on,59,0,16,,,,,,,,10,,,53,0
38159,note_on,59,0,20,,,,,,,,14,,,53,0
38159,note_on,0,0,21,,,,,,,,15,,,53,0
38160,note_on,1,0,6,,,,,,,,1,,,52,72
38160,note_on,1,0,16,,,,,,,,10,,,52,72
38160,note_on,1,0,9,,,,,,,,4,,,67,72
38160,note_on,1,0,20,,,,,,,,14,,,52,72
38160,note_on,841,0,18,,,,,,,,12,,,72,72
38160,note_on,1,0,15,,,,,,,,10,,,67,72
38160,note_on,1,0,19,,,,,,,,13,,,67,72
38160,note_on,841,0,8,,,,,,,,3,,,72,72
38160,note_on,1,0,11,,,,,,,,6,,,40,72
38160,note_on,841,0,14,,,,,,,,10,,,72,72
38160,note_on,120,0,5,,,,,,,,0,,,72,72
38160,note_on,1,0,21,,,,,,,,15,,,52,72
38160,note_on,0,0,21,,,,,,,,15,,,72,72
38160,note_on,0,0,21,,,,,,,,15,,,70,72
38160,note_on,0,0,6,,,,,,,,1,,,67,72
38160,note_on,0,0,21,,,,,,,,15,,,67,72
38219,note_on,59,0,16,,,,,,,,10,,,52,0
38219,note_on,59,0,21,,,,,,,,15,,,52,0
38219,note_on,59,0,6,,,,,,,,1,,,52,0
38219,note_on,59,0,11,,,,,,,,6,,,40,0
38219,note_on,59,0,20,,,,,,,,14,,,52,0
38220,note_on,1,0,21,,,,,,,,15,,,55,72
38220,note_on,1,0,20,,,,,,,,14,,,55,72
38220,note_on,1,0,11,,,,,,,,6,,,43,72
38220,note_on,1,0,16,,,,,,,,10,,,55,72
38220,note_on,1,0,6,,,,,,,,1,,,55,72
38279,note_on,59,0,6,,,,,,,,1,,,55,0
38279,note_on,119,0,15,,,,,,,,10,,,67,0
38279,note_on,0,0,6,,,,,,,,1,,,67,0
38279,note_on,59,0,16,,,,,,,,10,,,55,0
38279,note_on,0,0,21,,,,,,,,15,,,67,0
38279,note_on,119,0,9,,,,,,,,4,,,67,0
38279,note_on,0,0,21,,,,,,,,15,,,70,0
38279,note_on,119,0,19,,,,,,,,13,,,67,0
38279,note_on,0,0,21,,,,,,,,15,,,72,0
38279,note_on,59,0,21,,,,,,,,15,,,55,0
38279,note_on,59,0,20,,,,,,,,14,,,55,0
38279,note_on,239,0,17,,,,,,,,11,,,70,0
38279,note_on,119,0,5,,,,,,,,0,,,70,0
38279,note_on,59,0,11,,,,,,,,6,,,43,0
38279,note_on,239,0,7,,,,,,,,2,,,70,0
38280,note_on,0,0,21,,,,,,,,15,,,68,72
38280,note_on,0,0,21,,,,,,,,15,,,65,72
38280,note_on,1,0,21,,,,,,,,15,,,48,72
38280,note_on,0,0,21,,,,,,,,15,,,72,72
38280,note_on,1,0,11,,,,,,,,6,,,36,72
38280,note_on,1,0,16,,,,,,,,10,,,48,72
38280,note_on,1,0,6,,,,,,,,1,,,48,72
38280,note_on,0,0,6,,,,,,,,1,,,65,72
38280,note_on,1,0,5,,,,,,,,0,,,68,72
38280,note_on,1,0,20,,,,,,,,14,,,48,72
38280,note_on,1,0,15,,,,,,,,10,,,65,72
38280,note_on,1,0,17,,,,,,,,11,,,68,72
38280,note_on,1,0,9,,,,,,,,4,,,65,72
38280,note_on,1,0,7,,,,,,,,2,,,68,72
38280,note_on,1,0,19,,,,,,,,13,,,65,72
38339,note_on,179,0,14,,,,,,,,10,,,72,0
38339,note_on,59,0,5,,,,,,,,0,,,68,0
38339,note_on,0,0,5,,,,,,,,0,,,72,0
38339,note_on,59,0,17,,,,,,,,11,,,68,0
38339,note_on,59,0,19,,,,,,,,13,,,65,0
38339,note_on,59,0,7,,,,,,,,2,,,68,0
38339,note_on,179,0,18,,,,,,,,12,,,72,0
38339,note_on,59,0,21,,,,,,,,15,,,72,0
38339,note_on,0,0,21,,,,,,,,15,,,68,0
38339,note_on,0,0,21,,,,,,,,15,,,65,0
38339,note_on,59,0,6,,,,,,,,1,,,65,0
38339,note_on,179,0,8,,,,,,,,3,,,72,0
38339,note_on,59,0,9,,,,,,,,4,,,65,0
38339,note_on,59,0,15,,,,,,,,10,,,65,0
38340,note_on,1,0,15,,,,,,,,10,,,64,72
38340,note_on,0,0,5,,,,,,,,0,,,67,72
38340,note_on,1,0,5,,,,,,,,0,,,72,72
38340,note_on,1,0,19,,,,,,,,13,,,64,72
38340,note_on,1,0,9,,,,,,,,4,,,64,72
38340,note_on,1,0,6,,,,,,,,1,,,64,72
38340,note_on,1,0,14,,,,,,,,10,,,72,72
38340,note_on,1,0,17,,,,,,,,11,,,67,72
38340,note_on,1,0,7,,,,,,,,2,,,67,72
38340,note_on,1,0,21,,,,,,,,15,,,67,72
38340,note_on,0,0,21,,,,,,,,15,,,64,72
38340,note_on,1,0,8,,,,,,,,3,,,72,72
38340,note_on,0,0,21,,,,,,,,15,,,72,72
38340,note_on,1,0,18,,,,,,,,12,,,72,72
38399,note_on,0,0,21,,,,,,,,15,,,64,0
38399,note_on,59,0,14,,,,,,,,10,,,72,0
38399,note_on,119,0,11,,,,,,,,6,,,36,0
38399,note_on,59,0,15,,,,,,,,10,,,64,0
38399,note_on,59,0,17,,,,,,,,11,,,67,0
38399,note_on,119,0,16,,,,,,,,10,,,48,0
38399,note_on,0,0,6,,,,,,,,1,,,48,0
38399,note_on,59,0,6,,,,,,,,1,,,64,0
38399,note_on,59,0,19,,,,,,,,13,,,64,0
38399,note_on,59,0,18,,,,,,,,12,,,72,0
38399,note_on,59,0,5,,,,,,,,0,,,67,0
38399,note_on,59,0,21,,,,,,,,15,,,72,0
38399,note_on,0,0,21,,,,,,,,15,,,48,0
38399,note_on,0,0,21,,,,,,,,15,,,67,0
38399,note_on,59,0,8,,,,,,,,3,,,72,0
38399,note_on,0,0,5,,,,,,,,0,,,72,0
38399,note_on,59,0,7,,,,,,,,2,,,67,0
38399,note_on,59,0,9,,,,,,,,4,,,64,0
38399,note_on,119,0,20,,,,,,,,14,,,48,0
38400,note_on,1,0,7,,,,,,,,2,,,68,72
38400,note_on,1,0,9,,,,,,,,4,,,65,72
38400,note_on,1,0,17,,,,,,,,11,,,68,72
38400,note_on,1,0,8,,,,,,,,3,,,68,72
38400,note_on,1,0,5,,,,,,,,0,,,68,72
38400,note_on,1,0,19,,,,,,,,13,,,65,72
38400,note_on,1,0,18,,,,,,,,12,,,68,72
38400,note_on,1,0,6,,,,,,,,1,,,65,72
38400,note_on,1,0,15,,,,,,,,10,,,65,72
38400,note_on,1,0,14,,,,,,,,10,,,68,72
38459,note_on,59,0,19,,,,,,,,13,,,65,0
38459,note_on,59,0,9,,,,,,,,4,,,65,0
38459,note_on,59,0,15,,,,,,,,10,,,65,0
38459,note_on,59,0,6,,,,,,,,1,,,65,0
38460,note_on,1,0,9,,,,,,,,4,,,53,72
38460,note_on,1741,0,10,,,,,,,,5,,,53,72
38460,note_on,1,0,19,,,,,,,,13,,,53,72
38460,note_on,1,0,6,,,,,,,,1,,,53,72
38460,note_on,0,0,21,,,,,,,,15,,,72,72
38460,note_on,0,0,21,,,,,,,,15,,,68,72
38460,note_on,1,0,15,,,,,,,,10,,,53,72
38460,note_on,61,0,21,,,,,,,,15,,,53,72
38519,note_on,119,0,14,,,,,,,,10,,,68,0
38519,note_on,0,0,21,,,,,,,,15,,,53,0
38519,note_on,119,0,8,,,,,,,,3,,,68,0
38519,note_on,119,0,5,,,,,,,,0,,,68,0
38519,note_on,119,0,17,,,,,,,,11,,,68,0
38519,note_on,0,0,21,,,,,,,,15,,,68,0
38519,note_on,59,0,10,,,,,,,,5,,,53,0
38519,note_on,59,0,21,,,,,,,,15,,,72,0
38519,note_on,59,0,19,,,,,,,,13,,,53,0
38519,note_on,59,0,9,,,,,,,,4,,,53,0
38519,note_on,119,0,18,,,,,,,,12,,,68,0
38519,note_on,59,0,15,,,,,,,,10,,,53,0
38519,note_on,119,0,7,,,,,,,,2,,,68,0
38519,note_on,59,0,6,,,,,,,,1,,,53,0
38520,note_on,1,0,8,,,,,,,,3,,,73,72
38520,note_on,1,0,14,,,,,,,,10,,,73,72
38520,note_on,1,0,21,,,,,,,,15,,,58,72
38520,note_on,0,0,21,,,,,,,,15,,,73,72
38520,note_on,0,0,21,,,,,,,,15,,,65,72
38520,note_on,1,0,19,,,,,,,,13,,,58,72
38520,note_on,1,0,6,,,,,,,,1,,,58,72
38520,note_on,1,0,5,,,,,,,,0,,,73,72
38520,note_on,1,0,18,,,,,,,,12,,,73,72
38520,note_on,1,0,15,,,,,,,,10,,,58,72
38520,note_on,1,0,10,,,,,,,,5,,,58,72
38520,note_on,1,0,9,,,,,,,,4,,,58,72
38579,note_on,59,0,10,,,,,,,,5,,,58,0
38579,note_on,59,0,9,,,,,,,,4,,,58,0
38579,note_on,59,0,19,,,,,,,,13,,,58,0
38579,note_on,59,0,21,,,,,,,,15,,,58,0
38579,note_on,59,0,6,,,,,,,,1,,,58,0
38579,note_on,59,0,15,,,,,,,,10,,,58,0
38580,note_on,1,0,9,,,,,,,,4,,,55,72
38580,note_on,1,0,6,,,,,,,,1,,,55,72
38580,note_on,1,0,21,,,,,,,,15,,,55,72
38580,note_on,1,0,10,,,,,,,,5,,,55,72
38580,note_on,1,0,15,,,,,,,,10,,,55,72
38580,note_on,1,0,19,,,,,,,,13,,,55,72
38639,note_on,59,0,6,,,,,,,,1,,,55,0
38639,note_on,59,0,15,,,,,,,,10,,,55,0
38639,note_on,119,0,8,,,,,,,,3,,,73,0
38639,note_on,59,0,9,,,,,,,,4,,,55,0
38639,note_on,119,0,18,,,,,,,,12,,,73,0
38639,note_on,59,0,10,,,,,,,,5,,,55,0
38639,note_on,0,0,21,,,,,,,,15,,,73,0
38639,note_on,0,0,21,,,,,,,,15,,,65,0
38639,note_on,59,0,21,,,,,,,,15,,,55,0
38639,note_on,119,0,5,,,,,,,,0,,,73,0
38639,note_on,119,0,14,,,,,,,,10,,,73,0
38639,note_on,59,0,19,,,,,,,,13,,,55,0
38640,note_on,1,0,6,,,,,,,,1,,,60,72
38640,note_on,1,0,9,,,,,,,,4,,,60,72
38640,note_on,1,0,18,,,,,,,,12,,,64,72
38640,note_on,1,0,10,,,,,,,,5,,,60,72
38640,note_on,1,0,15,,,,,,,,10,,,60,72
38640,note_on,1,0,19,,,,,,,,13,,,60,72
38640,note_on,1,0,8,,,,,,,,3,,,64,72
38640,note_on,1,0,14,,,,,,,,10,,,64,72
38640,note_on,1,0,5,,,,,,,,0,,,64,72
38640,note_on,1,0,21,,,,,,,,15,,,60,72
38640,note_on,0,0,21,,,,,,,,15,,,64,72
38640,note_on,0,0,21,,,,,,,,15,,,67,72
38699,note_on,59,0,10,,,,,,,,5,,,60,0
38699,note_on,59,0,21,,,,,,,,15,,,60,0
38700,note_on,301,0,20,,,,,,,,14,,,48,72
38700,note_on,1,0,21,,,,,,,,15,,,48,72
38700,note_on,0,0,21,,,,,,,,15,,,60,72
38700,note_on,301,0,11,,,,,,,,6,,,36,72
38700,note_on,60,0,6,,,,,,,,1,,,48,72
38700,note_on,301,0,16,,,,,,,,10,,,48,72
38759,note_on,59,0,21,,,,,,,,15,,,48,0
38759,note_on,59,0,6,,,,,,,,1,,,48,0
38759,note_on,119,0,19,,,,,,,,13,,,60,0
38759,note_on,119,0,9,,,,,,,,4,,,60,0
38759,note_on,119,0,15,,,,,,,,10,,,60,0
38759,note_on,59,0,11,,,,,,,,6,,,36,0
38759,note_on,0,0,6,,,,,,,,1,,,60,0
38759,note_on,59,0,20,,,,,,,,14,,,48,0
38759,note_on,59,0,16,,,,,,,,10,,,48,0
38760,note_on,1,0,21,,,,,,,,15,,,48,72
38760,note_on,1,0,11,,,,,,,,6,,,36,72
38760,note_on,1,0,6,,,,,,,,1,,,48,72
38760,note_on,1,0,20,,,,,,,,14,,,48,72
38760,note_on,1,0,16,,,,,,,,10,,,48,72
38819,note_on,59,0,21,,,,,,,,15,,,48,0
38819,note_on,179,0,5,,,,,,,,0,,,64,0
38819,note_on,59,0,11,,,,,,,,6,,,36,0
38819,note_on,59,0,20,,,,,,,,14,,,48,0
38819,note_on,59,0,6,,,,,,,,1,,,48,0
38819,note_on,59,0,16,,,,,,,,10,,,48,0
38819,note_on,179,0,14,,,,,,,,10,,,64,0
38819,note_on,179,0,18,,,,,,,,12,,,64,0
38819,note_on,179,0,8,,,,,,,,3,,,64,0
38820,note_on,1,0,14,,,,,,,,10,,,64,72
38820,note_on,1,0,16,,,,,,,,10,,,48,72
38820,note_on,1,0,21,,,,,,,,15,,,48,72
38820,note_on,1,0,8,,,,,,,,3,,,64,72
38820,note_on,1,0,11,,,,,,,,6,,,36,72
38820,note_on,1,0,20,,,,,,,,14,,,48,72
38820,note_on,1,0,6,,,,,,,,1,,,48,72
38820,note_on,1,0,18,,,,,,,,12,,,64,72
38820,note_on,1,0,5,,,,,,,,0,,,64,72
38879,note_on,59,0,21,,,,,,,,15,,,48,0
38879,note_on,0,0,21,,,,,,,,15,,,64,0
38879,note_on,59,0,16,,,,,,,,10,,,48,0
38879,note_on,0,0,21,,,,,,,,15,,,67,0
38879,note_on,59,0,14,,,,,,,,10,,,64,0
38879,note_on,0,0,21,,,,,,,,15,,,60,0
38879,note_on,59,0,20,,,,,,,,14,,,48,0
38879,note_on,59,0,18,,,,,,,,12,,,64,0
38879,note_on,59,0,8,,,,,,,,3,,,64,0
38879,note_on,59,0,11,,,,,,,,6,,,36,0
38879,note_on,59,0,6,,,,,,,,1,,,48,0
38879,note_on,59,0,5,,,,,,,,0,,,64,0
38880,note_on,1,0,5,,,,,,,,0,,,65,72
38880,note_on,1,0,18,,,,,,,,12,,,65,72
38880,note_on,1,0,8,,,,,,,,3,,,65,72
38880,note_on,0,0,21,,,,,,,,15,,,69,72
38880,note_on,1,0,14,,,,,,,,10,,,65,72
38880,note_on,1,0,16,,,,,,,,10,,,49,72
38880,note_on,0,0,21,,,,,,,,15,,,65,72
38880,note_on,1,0,6,,,,,,,,1,,,49,72
38880,note_on,1,0,11,,,,,,,,6,,,37,72
38880,note_on,1,0,21,,,,,,,,15,,,49,72
38880,note_on,1,0,20,,,,,,,,14,,,49,72
38909,note_on,29,0,20,,,,,,,,14,,,49,0
38909,note_on,29,0,16,,,,,,,,10,,,49,0
38909,note_on,29,0,21,,,,,,,,15,,,49,0
38909,note_on,29,0,6,,,,,,,,1,,,49,0
38909,note_on,29,0,11,,,,,,,,6,,,37,0
38910,note_on,1,0,11,,,,,,,,6,,,39,72
38910,note_on,1,0,16,,,,,,,,10,,,51,72
38910,note_on,1,0,20,,,,,,,,14,,,51,72
38910,note_on,1,0,21,,,,,,,,15,,,51,72
38910,note_on,1,0,6,,,,,,,,1,,,51,72
38939,note_on,29,0,20,,,,,,,,14,,,51,0
38939,note_on,29,0,21,,,,,,,,15,,,51,0
38939,note_on,29,0,11,,,,,,,,6,,,39,0
38939,note_on,29,0,6,,,,,,,,1,,,51,0
38939,note_on,29,0,16,,,,,,,,10,,,51,0
38940,note_on,1,0,16,,,,,,,,10,,,49,72
38940,note_on,1,0,20,,,,,,,,14,,,49,72
38940,note_on,1,0,6,,,,,,,,1,,,49,72
38940,note_on,421,0,7,,,,,,,,2,,,65,72
38940,note_on,421,0,17,,,,,,,,11,,,65,72
38940,note_on,1,0,11,,,,,,,,6,,,37,72
38940,note_on,1,0,21,,,,,,,,15,,,49,72
38940,note_on,60,0,5,,,,,,,,0,,,65,72
38969,note_on,29,0,16,,,,,,,,10,,,49,0
38969,note_on,29,0,21,,,,,,,,15,,,49,0
38969,note_on,29,0,20,,,,,,,,14,,,49,0
38969,note_on,29,0,6,,,,,,,,1,,,49,0
38969,note_on,29,0,11,,,,,,,,6,,,37,0
38970,note_on,1,0,11,,,,,,,,6,,,36,72
38970,note_on,1,0,16,,,,,,,,10,,,48,72
38970,note_on,1,0,6,,,,,,,,1,,,48,72
38970,note_on,1,0,20,,,,,,,,14,,,48,72
38970,note_on,1,0,21,,,,,,,,15,,,48,72
38999,note_on,29,0,16,,,,,,,,10,,,48,0
38999,note_on,29,0,21,,,,,,,,15,,,48,0
38999,note_on,0,0,21,,,,,,,,15,,,69,0
38999,note_on,0,0,5,,,,,,,,0,,,65,0
38999,note_on,59,0,5,,,,,,,,0,,,65,0
38999,note_on,29,0,20,,,,,,,,14,,,48,0
38999,note_on,119,0,18,,,,,,,,12,,,65,0
38999,note_on,119,0,8,,,,,,,,3,,,65,0
38999,note_on,59,0,7,,,,,,,,2,,,65,0
38999,note_on,119,0,14,,,,,,,,10,,,65,0
38999,note_on,59,0,17,,,,,,,,11,,,65,0
38999,note_on,29,0,11,,,,,,,,6,,,36,0
38999,note_on,29,0,6,,,,,,,,1,,,48,0
38999,note_on,0,0,21,,,,,,,,15,,,65,0
39000,note_on,1,0,21,,,,,,,,15,,,50,72
39000,note_on,0,0,21,,,,,,,,15,,,65,72
39000,note_on,0,0,21,,,,,,,,15,,,70,72
39000,note_on,1,0,20,,,,,,,,14,,,50,72
39000,note_on,1,0,11,,,,,,,,6,,,38,72
39000,note_on,1,0,16,,,,,,,,10,,,50,72
39000,note_on,1,0,17,,,,,,,,11,,,70,72
39000,note_on,1,0,7,,,,,,,,2,,,70,72
39000,note_on,1,0,5,,,,,,,,0,,,70,72
39000,note_on,1,0,6,,,,,,,,1,,,50,72
39029,note_on,29,0,6,,,,,,,,1,,,50,0
39029,note_on,29,0,20,,,,,,,,14,,,50,0
39029,note_on,29,0,21,,,,,,,,15,,,50,0
39029,note_on,29,0,11,,,,,,,,6,,,38,0
39029,note_on,29,0,16,,,,,,,,10,,,50,0
39030,note_on,1,0,11,,,,,,,,6,,,39,72
39030,note_on,1,0,16,,,,,,,,10,,,51,72
39030,note_on,1,0,21,,,,,,,,15,,,51,72
39030,note_on,1,0,20,,,,,,,,14,,,51,72
39030,note_on,1,0,6,,,,,,,,1,,,51,72
39059,note_on,29,0,6,,,,,,,,1,,,51,0
39059,note_on,29,0,11,,,,,,,,6,,,39,0
39059,note_on,29,0,16,,,,,,,,10,,,51,0
39059,note_on,59,0,5,,,,,,,,0,,,70,0
39059,note_on,29,0,20,,,,,,,,14,,,51,0
39059,note_on,0,0,21,,,,,,,,15,,,65,0
39059,note_on,59,0,7,,,,,,,,2,,,70,0
39059,note_on,0,0,21,,,,,,,,15,,,70,0
39059,note_on,29,0,21,,,,,,,,15,,,51,0
39059,note_on,59,0,17,,,,,,,,11,,,70,0
39060,note_on,1,0,16,,,,,,,,10,,,48,72
39060,note_on,0,0,21,,,,,,,,15,,,65,72
39060,note_on,1,0,21,,,,,,,,15,,,48,72
39060,note_on,1,0,6,,,,,,,,1,,,48,72
39060,note_on,1,0,7,,,,,,,,2,,,68,72
39060,note_on,1,0,20,,,,,,,,14,,,48,72
39060,note_on,1,0,5,,,,,,,,0,,,68,72
39060,note_on,1,0,11,,,,,,,,6,,,36,72
39060,note_on,0,0,21,,,,,,,,15,,,68,72
39060,note_on,1,0,17,,,,,,,,11,,,68,72
39089,note_on,29,0,6,,,,,,,,1,,,48,0
39089,note_on,29,0,11,,,,,,,,6,,,36,0
39089,note_on,29,0,21,,,,,,,,15,,,48,0
39089,note_on,29,0,20,,,,,,,,14,,,48,0
39089,note_on,29,0,16,,,,,,,,10,,,48,0
39090,note_on,1,0,6,,,,,,,,1,,,50,72
39090,note_on,1,0,21,,,,,,,,15,,,50,72
39090,note_on,1,0,20,,,,,,,,14,,,50,72
39090,note_on,1,0,11,,,,,,,,6,,,38,72
39090,note_on,1,0,16,,,,,,,,10,,,50,72
39119,note_on,29,0,6,,,,,,,,1,,,50,0
39119,note_on,59,0,7,,,,,,,,2,,,68,0
39119,note_on,29,0,20,,,,,,,,14,,,50,0
39119,note_on,59,0,17,,,,,,,,11,,,68,0
39119,note_on,29,0,11,,,,,,,,6,,,38,0
39119,note_on,59,0,5,,,,,,,,0,,,68,0
39119,note_on,29,0,16,,,,,,,,10,,,50,0
39119,note_on,0,0,21,,,,,,,,15,,,65,0
39119,note_on,0,0,21,,,,,,,,15,,,68,0
39119,note_on,29,0,21,,,,,,,,15,,,50,0
39120,note_on,1,0,16,,,,,,,,10,,,51,72
39120,note_on,1,0,6,,,,,,,,1,,,51,72
39120,note_on,0,0,21,,,,,,,,15,,,70,72
39120,note_on,0,0,21,,,,,,,,15,,,67,72
39120,note_on,1,0,20,,,,,,,,14,,,51,72
39120,note_on,1,0,7,,,,,,,,2,,,67,72
39120,note_on,1,0,5,,,,,,,,0,,,67,72
39120,note_on,1,0,17,,,,,,,,11,,,67,72
39120,note_on,1,0,11,,,,,,,,6,,,39,72
39120,note_on,1,0,21,,,,,,,,15,,,51,72
39149,note_on,29,0,11,,,,,,,,6,,,39,0
39149,note_on,29,0,21,,,,,,,,15,,,51,0
39149,note_on,29,0,20,,,,,,,,14,,,51,0
39149,note_on,29,0,6,,,,,,,,1,,,51,0
39149,note_on,29,0,16,,,,,,,,10,,,51,0
39150,note_on,1,0,21,,,,,,,,15,,,53,72
39150,note_on,1,0,20,,,,,,,,14,,,53,72
39150,note_on,1,0,6,,,,,,,,1,,,53,72
39150,note_on,1,0,16,,,,,,,,10,,,53,72
39150,note_on,1,0,11,,,,,,,,6,,,41,72
39179,note_on,0,0,21,,,,,,,,15,,,70,0
39179,note_on,0,0,21,,,,,,,,15,,,67,0
39179,note_on,29,0,20,,,,,,,,14,,,53,0
39179,note_on,29,0,21,,,,,,,,15,,,53,0
39179,note_on,29,0,6,,,,,,,,1,,,53,0
39179,note_on,59,0,7,,,,,,,,2,,,67,0
39179,note_on,29,0,16,,,,,,,,10,,,53,0
39179,note_on,59,0,5,,,,,,,,0,,,67,0
39179,note_on,59,0,17,,,,,,,,11,,,67,0
39179,note_on,29,0,11,,,,,,,,6,,,41,0
39180,note_on,0,0,6,,,,,,,,1,,,55,72
39180,note_on,1,0,5,,,,,,,,0,,,60,72
39180,note_on,1,0,11,,,,,,,,6,,,39,72
39180,note_on,0,0,21,,,,,,,,15,,,67,72
39180,note_on,1,0,16,,,,,,,,10,,,51,72
39180,note_on,1,0,6,,,,,,,,1,,,51,72
39180,note_on,0,0,21,,,,,,,,15,,,72,72
39180,note_on,1,0,21,,,,,,,,15,,,51,72
39180,note_on,1,0,17,,,,,,,,11,,,60,72
39180,note_on,421,0,19,,,,,,,,13,,,55,72
39180,note_on,421,0,9,,,,,,,,4,,,55,72
39180,note_on,1,0,7,,,,,,,,2,,,60,72
39180,note_on,421,0,15,,,,,,,,10,,,55,72
39180,note_on,1,0,20,,,,,,,,14,,,51,72
39209,note_on,29,0,11,,,,,,,,6,,,39,0
39209,note_on,29,0,21,,,,,,,,15,,,51,0
39209,note_on,29,0,16,,,,,,,,10,,,51,0
39209,note_on,29,0,20,,,,,,,,14,,,51,0
39209,note_on,29,0,6,,,,,,,,1,,,51,0
39210,note_on,1,0,16,,,,,,,,10,,,50,72
39210,note_on,1,0,20,,,,,,,,14,,,50,72
39210,note_on,1,0,6,,,,,,,,1,,,50,72
39210,note_on,1,0,11,,,,,,,,6,,,38,72
39210,note_on,1,0,21,,,,,,,,15,,,50,72
39239,note_on,29,0,16,,,,,,,,10,,,50,0
39239,note_on,29,0,11,,,,,,,,6,,,38,0
39239,note_on,59,0,17,,,,,,,,11,,,60,0
39239,note_on,59,0,15,,,,,,,,10,,,55,0
39239,note_on,29,0,6,,,,,,,,1,,,50,0
39239,note_on,0,0,6,,,,,,,,1,,,55,0
39239,note_on,59,0,9,,,,,,,,4,,,55,0
39239,note_on,29,0,20,,,,,,,,14,,,50,0
39239,note_on,59,0,5,,,,,,,,0,,,60,0
39239,note_on,0,0,21,,,,,,,,15,,,67,0
39239,note_on,0,0,21,,,,,,,,15,,,72,0
39239,note_on,29,0,21,,,,,,,,15,,,50,0
39239,note_on,59,0,7,,,,,,,,2,,,60,0
39239,note_on,59,0,19,,,,,,,,13,,,55,0
39240,note_on,1,0,7,,,,,,,,2,,,72,72
39240,note_on,1,0,9,,,,,,,,4,,,55,72
39240,note_on,0,0,6,,,,,,,,1,,,55,72
39240,note_on,1,0,6,,,,,,,,1,,,52,72
39240,note_on,1,0,5,,,,,,,,0,,,72,72
39240,note_on,1,0,16,,,,,,,,10,,,52,72
39240,note_on,1,0,19,,,,,,,,13,,,55,72
39240,note_on,0,0,21,,,,,,,,15,,,67,72
39240,note_on,1,0,17,,,,,,,,11,,,72,72
39240,note_on,0,0,21,,,,,,,,15,,,72,72
39240,note_on,1,0,11,,,,,,,,6,,,40,72
39240,note_on,1,0,21,,,,,,,,15,,,52,72
39240,note_on,1,0,15,,,,,,,,10,,,55,72
39240,note_on,1,0,20,,,,,,,,14,,,52,72
39269,note_on,29,0,21,,,,,,,,15,,,52,0
39269,note_on,29,0,20,,,,,,,,14,,,52,0
39269,note_on,29,0,11,,,,,,,,6,,,40,0
39269,note_on,29,0,16,,,,,,,,10,,,52,0
39269,note_on,29,0,6,,,,,,,,1,,,52,0
39270,note_on,1,0,11,,,,,,,,6,,,41,72
39270,note_on,1,0,16,,,,,,,,10,,,53,72
39270,note_on,1,0,6,,,,,,,,1,,,53,72
39270,note_on,1,0,21,,,,,,,,15,,,53,72
39270,note_on,1,0,20,,,,,,,,14,,,53,72
39299,note_on,59,0,9,,,,,,,,4,,,55,0
39299,note_on,59,0,19,,,,,,,,13,,,55,0
39299,note_on,29,0,20,,,,,,,,14,,,53,0
39299,note_on,0,0,21,,,,,,,,15,,,72,0
39299,note_on,29,0,21,,,,,,,,15,,,53,0
39299,note_on,29,0,16,,,,,,,,10,,,53,0
39299,note_on,29,0,11,,,,,,,,6,,,41,0
39299,note_on,59,0,17,,,,,,,,11,,,72,0
39299,note_on,0,0,21,,,,,,,,15,,,67,0
39299,note_on,59,0,15,,,,,,,,10,,,55,0
39299,note_on,59,0,7,,,,,,,,2,,,72,0
39299,note_on,0,0,6,,,,,,,,1,,,55,0
39299,note_on,59,0,5,,,,,,,,0,,,72,0
39299,note_on,29,0,6,,,,,,,,1,,,53,0
39300,note_on,1,0,11,,,,,,,,6,,,38,72
39300,note_on,1,0,6,,,,,,,,1,,,50,72
39300,note_on,0,0,6,,,,,,,,1,,,55,72
39300,note_on,1,0,9,,,,,,,,4,,,55,72
39300,note_on,1,0,20,,,,,,,,14,,,50,72
39300,note_on,1,0,15,,,,,,,,10,,,55,72
39300,note_on,0,0,21,,,,,,,,15,,,70,72
39300,note_on,1,0,5,,,,,,,,0,,,70,72
39300,note_on,1,0,16,,,,,,,,10,,,50,72
39300,note_on,0,0,21,,,,,,,,15,,,67,72
39300,note_on,1,0,21,,,,,,,,15,,,50,72
39300,note_on,1,0,19,,,,,,,,13,,,55,72
39300,note_on,1,0,17,,,,,,,,11,,,70,72
39300,note_on,1,0,7,,,,,,,,2,,,70,72
39329,note_on,29,0,21,,,,,,,,15,,,50,0
39329,note_on,29,0,16,,,,,,,,10,,,50,0
39329,note_on,29,0,6,,,,,,,,1,,,50,0
39329,note_on,29,0,11,,,,,,,,6,,,38,0
39329,note_on,29,0,20,,,,,,,,14,,,50,0
39330,note_on,1,0,21,,,,,,,,15,,,52,72
39330,note_on,1,0,16,,,,,,,,10,,,52,72
39330,note_on,1,0,20,,,,,,,,14,,,52,72
39330,note_on,1,0,6,,,,,,,,1,,,52,72
39330,note_on,1,0,11,,,,,,,,6,,,40,72
39359,note_on,29,0,21,,,,,,,,15,,,52,0
39359,note_on,59,0,7,,,,,,,,2,,,70,0
39359,note_on,59,0,19,,,,,,,,13,,,55,0
39359,note_on,29,0,20,,,,,,,,14,,,52,0
39359,note_on,29,0,11,,,,,,,,6,,,40,0
39359,note_on,59,0,17,,,,,,,,11,,,70,0
39359,note_on,29,0,16,,,,,,,,10,,,52,0
39359,note_on,59,0,15,,,,,,,,10,,,55,0
39359,note_on,0,0,21,,,,,,,,15,,,67,0
39359,note_on,59,0,5,,,,,,,,0,,,70,0
39359,note_on,59,0,9,,,,,,,,4,,,55,0
39359,note_on,29,0,6,,,,,,,,1,,,52,0
39359,note_on,0,0,6,,,,,,,,1,,,55,0
39359,note_on,0,0,21,,,,,,,,15,,,70,0
39360,note_on,1,0,21,,,,,,,,15,,,53,72
39360,note_on,0,0,21,,,,,,,,15,,,65,72
39360,note_on,1,0,19,,,,,,,,13,,,56,72
39360,note_on,1,0,15,,,,,,,,10,,,56,72
39360,note_on,1,0,6,,,,,,,,1,,,56,72
39360,note_on,1,0,7,,,,,,,,2,,,68,72
39360,note_on,0,0,6,,,,,,,,1,,,53,72
39360,note_on,1,0,11,,,,,,,,6,,,41,72
39360,note_on,1,0,20,,,,,,,,14,,,53,72
39360,note_on,1,0,17,,,,,,,,11,,,68,72
39360,note_on,0,0,21,,,,,,,,15,,,72,72
39360,note_on,1,0,5,,,,,,,,0,,,68,72
39360,note_on,1,0,9,,,,,,,,4,,,56,72
39360,note_on,1,0,16,,,,,,,,10,,,53,72
39360,note_on,0,0,21,,,,,,,,15,,,68,72
39389,note_on,29,0,15,,,,,,,,10,,,56,0
39389,note_on,29,0,6,,,,,,,,1,,,56,0
39389,note_on,29,0,19,,,,,,,,13,,,56,0
39389,note_on,29,0,9,,,,,,,,4,,,56,0
39390,note_on,1,0,6,,,,,,,,1,,,58,72
39390,note_on,1,0,19,,,,,,,,13,,,58,72
39390,note_on,1,0,15,,,,,,,,10,,,58,72
39390,note_on,1,0,9,,,,,,,,4,,,58,72
39419,note_on,0,0,6,,,,,,,,1,,,53,0
39419,note_on,59,0,11,,,,,,,,6,,,41,0
39419,note_on,29,0,9,,,,,,,,4,,,58,0
39419,note_on,29,0,6,,,,,,,,1,,,58,0
39419,note_on,59,0,21,,,,,,,,15,,,53,0
39419,note_on,59,0,16,,,,,,,,10,,,53,0
39419,note_on,59,0,20,,,,,,,,14,,,53,0
39419,note_on,29,0,19,,,,,,,,13,,,58,0
39419,note_on,29,0,15,,,,,,,,10,,,58,0
39420,note_on,1,0,21,,,,,,,,15,,,48,72
39420,note_on,0,0,6,,,,,,,,1,,,48,72
39420,note_on,1,0,16,,,,,,,,10,,,48,72
39420,note_on,1,0,20,,,,,,,,14,,,48,72
39420,note_on,1,0,11,,,,,,,,6,,,36,72
39420,note_on,1,0,6,,,,,,,,1,,,56,72
39420,note_on,1,0,19,,,,,,,,13,,,56,72
39420,note_on,1,0,9,,,,,,,,4,,,56,72
39420,note_on,1,0,15,,,,,,,,10,,,56,72
39449,note_on,29,0,9,,,,,,,,4,,,56,0
39449,note_on,29,0,15,,,,,,,,10,,,56,0
39449,note_on,29,0,19,,,,,,,,13,,,56,0
39449,note_on,29,0,6,,,,,,,,1,,,56,0
39450,note_on,1,0,9,,,,,,,,4,,,55,72
39450,note_on,1,0,15,,,,,,,,10,,,55,72
39450,note_on,1,0,19,,,,,,,,13,,,55,72
39450,note_on,1,0,6,,,,,,,,1,,,55,72
39479,note_on,29,0,15,,,,,,,,10,,,55,0
39479,note_on,29,0,19,,,,,,,,13,,,55,0
39479,note_on,59,0,20,,,,,,,,14,,,48,0
39479,note_on,59,0,11,,,,,,,,6,,,36,0
39479,note_on,119,0,7,,,,,,,,2,,,68,0
39479,note_on,119,0,17,,,,,,,,11,,,68,0
39479,note_on,59,0,21,,,,,,,,15,,,48,0
39479,note_on,0,0,21,,,,,,,,15,,,65,0
39479,note_on,0,0,21,,,,,,,,15,,,72,0
39479,note_on,29,0,9,,,,,,,,4,,,55,0
39479,note_on,0,0,21,,,,,,,,15,,,68,0
39479,note_on,59,0,16,,,,,,,,10,,,48,0
39479,note_on,29,0,6,,,,,,,,1,,,55,0
39479,note_on,119,0,5,,,,,,,,0,,,68,0
39479,note_on,0,0,6,,,,,,,,1,,,48,0
39480,note_on,1,0,16,,,,,,,,10,,,53,72
39480,note_on,1,0,19,,,,,,,,13,,,57,72
39480,note_on,1,0,21,,,,,,,,15,,,53,72
39480,note_on,0,0,21,,,,,,,,15,,,69,72
39480,note_on,0,0,21,,,,,,,,15,,,72,72
39480,note_on,0,0,21,,,,,,,,15,,,65,72
39480,note_on,1,0,6,,,,,,,,1,,,57,72
39480,note_on,1,0,15,,,,,,,,10,,,57,72
39480,note_on,1,0,9,,,,,,,,4,,,57,72
39480,note_on,1,0,11,,,,,,,,6,,,41,72
39480,note_on,1,0,20,,,,,,,,14,,,53,72
39480,note_on,0,0,6,,,,,,,,1,,,53,72
39509,note_on,29,0,9,,,,,,,,4,,,57,0
39509,note_on,29,0,15,,,,,,,,10,,,57,0
39509,note_on,29,0,6,,,,,,,,1,,,57,0
39509,note_on,29,0,19,,,,,,,,13,,,57,0
39510,note_on,1,0,15,,,,,,,,10,,,58,72
39510,note_on,1,0,6,,,,,,,,1,,,58,72
39510,note_on,1,0,19,,,,,,,,13,,,58,72
39510,note_on,1,0,9,,,,,,,,4,,,58,72
39539,note_on,0,0,6,,,,,,,,1,,,53,0
39539,note_on,29,0,9,,,,,,,,4,,,58,0
39539,note_on,29,0,6,,,,,,,,1,,,58,0
39539,note_on,59,0,21,,,,,,,,15,,,53,0
39539,note_on,59,0,16,,,,,,,,10,,,53,0
39539,note_on,59,0,11,,,,,,,,6,,,41,0
39539,note_on,29,0,15,,,,,,,,10,,,58,0
39539,note_on,29,0,19,,,,,,,,13,,,58,0
39539,note_on,59,0,20,,,,,,,,14,,,53,0
39540,note_on,1,0,9,,,,,,,,4,,,55,72
39540,note_on,1,0,6,,,,,,,,1,,,55,72
39540,note_on,1,0,15,,,,,,,,10,,,55,72
39540,note_on,0,0,6,,,,,,,,1,,,51,72
39540,note_on,1,0,19,,,,,,,,13,,,55,72
39540,note_on,1,0,21,,,,,,,,15,,,51,72
39540,note_on,1,0,16,,,,,,,,10,,,51,72
39540,note_on,1,0,20,,,,,,,,14,,,51,72
39540,note_on,1,0,11,,,,,,,,6,,,39,72
39569,note_on,29,0,6,,,,,,,,1,,,55,0
39569,note_on,29,0,9,,,,,,,,4,,,55,0
39569,note_on,29,0,19,,,,,,,,13,,,55,0
39569,note_on,29,0,15,,,,,,,,10,,,55,0
39570,note_on,1,0,15,,,,,,,,10,,,57,72
39570,note_on,1,0,9,,,,,,,,4,,,57,72
39570,note_on,1,0,19,,,,,,,,13,,,57,72
39570,note_on,1,0,6,,,,,,,,1,,,57,72
39599,note_on,29,0,6,,,,,,,,1,,,57,0
39599,note_on,0,0,6,,,,,,,,1,,,51,0
39599,note_on,0,0,21,,,,,,,,15,,,69,0
39599,note_on,0,0,21,,,,,,,,15,,,72,0
39599,note_on,29,0,15,,,,,,,,10,,,57,0
39599,note_on,59,0,16,,,,,,,,10,,,51,0
39599,note_on,0,0,21,,,,,,,,15,,,65,0
39599,note_on,59,0,21,,,,,,,,15,,,51,0
39599,note_on,59,0,11,,,,,,,,6,,,39,0
39599,note_on,29,0,9,,,,,,,,4,,,57,0
39599,note_on,29,0,19,,,,,,,,13,,,57,0
39599,note_on,59,0,20,,,,,,,,14,,,51,0
39600,note_on,1,0,11,,,,,,,,6,,,38,72
39600,note_on,1,0,6,,,,,,,,1,,,58,72
39600,note_on,0,0,6,,,,,,,,1,,,50,72
39600,note_on,1,0,16,,,,,,,,10,,,50,72
39600,note_on,0,0,21,,,,,,,,15,,,65,72
39600,note_on,0,0,21,,,,,,,,15,,,70,72
39600,note_on,1,0,9,,,,,,,,4,,,58,72
39600,note_on,1,0,20,,,,,,,,14,,,50,72
39600,note_on,1,0,15,,,,,,,,10,,,58,72
39600,note_on,1,0,19,,,,,,,,13,,,58,72
39600,note_on,1,0,21,,,,,,,,15,,,50,72
39629,note_on,29,0,9,,,,,,,,4,,,58,0
39629,note_on,29,0,6,,,,,,,,1,,,58,0
39629,note_on,29,0,19,,,,,,,,13,,,58,0
39629,note_on,29,0,15,,,,,,,,10,,,58,0
39630,note_on,1,0,19,,,,,,,,13,,,60,72
39630,note_on,1,0,6,,,,,,,,1,,,60,72
39630,note_on,1,0,15,,,,,,,,10,,,60,72
39630,note_on,1,0,9,,,,,,,,4,,,60,72
39659,note_on,29,0,9,,,,,,,,4,,,60,0
39659,note_on,29,0,19,,,,,,,,13,,,60,0
39659,note_on,59,0,21,,,,,,,,15,,,50,0
39659,note_on,0,0,6,,,,,,,,1,,,50,0
39659,note_on,59,0,16,,,,,,,,10,,,50,0
39659,note_on,29,0,15,,,,,,,,10,,,60,0
39659,note_on,59,0,20,,,,,,,,14,,,50,0
39659,note_on,59,0,11,,,,,,,,6,,,38,0
39659,note_on,29,0,6,,,,,,,,1,,,60,0
39660,note_on,661,0,18,,,,,,,,12,,,62,72
39660,note_on,181,0,5,,,,,,,,0,,,62,72
39660,note_on,1,0,6,,,,,,,,1,,,58,72
39660,note_on,0,0,6,,,,,,,,1,,,43,72
39660,note_on,1,0,20,,,,,,,,14,,,43,72
39660,note_on,1,0,15,,,,,,,,10,,,58,72
39660,note_on,1,0,11,,,,,,,,6,,,31,72
39660,note_on,1,0,19,,,,,,,,13,,,58,72
39660,note_on,661,0,14,,,,,,,,10,,,62,72
39660,note_on,661,0,8,,,,,,,,3,,,62,72
39660,note_on,1,0,21,,,,,,,,15,,,43,72
39660,note_on,1,0,16,,,,,,,,10,,,43,72
39660,note_on,1,0,9,,,,,,,,4,,,58,72
39689,note_on,29,0,19,,,,,,,,13,,,58,0
39689,note_on,29,0,6,,,,,,,,1,,,58,0
39689,note_on,29,0,15,,,,,,,,10,,,58,0
39689,note_on,29,0,9,,,,,,,,4,,,58,0
39690,note_on,1,0,6,,,,,,,,1,,,57,72
39690,note_on,1,0,19,,,,,,,,13,,,57,72
39690,note_on,1,0,15,,,,,,,,10,,,57,72
39690,note_on,1,0,9,,,,,,,,4,,,57,72
39719,note_on,29,0,9,,,,,,,,4,,,57,0
39719,note_on,59,0,20,,,,,,,,14,,,43,0
39719,note_on,59,0,5,,,,,,,,0,,,62,0
39719,note_on,59,0,11,,,,,,,,6,,,31,0
39719,note_on,59,0,14,,,,,,,,10,,,62,0
39719,note_on,59,0,8,,,,,,,,3,,,62,0
39719,note_on,59,0,18,,,,,,,,12,,,62,0
39719,note_on,29,0,6,,,,,,,,1,,,57,0
39719,note_on,59,0,16,,,,,,,,10,,,43,0
39719,note_on,29,0,19,,,,,,,,13,,,57,0
39719,note_on,59,0,21,,,,,,,,15,,,43,0
39719,note_on,0,0,21,,,,,,,,15,,,70,0
39719,note_on,0,0,21,,,,,,,,15,,,65,0
39719,note_on,29,0,15,,,,,,,,10,,,57,0
39719,note_on,0,0,6,,,,,,,,1,,,43,0
39720,note_on,1,0,16,,,,,,,,10,,,55,72
39720,note_on,1,0,9,,,,,,,,4,,,59,72
39720,note_on,1,0,21,,,,,,,,15,,,55,72
39720,note_on,1,0,14,,,,,,,,10,,,62,72
39720,note_on,0,0,21,,,,,,,,15,,,71,72
39720,note_on,0,0,21,,,,,,,,15,,,62,72
39720,note_on,1,0,18,,,,,,,,12,,,62,72
39720,note_on,1,0,6,,,,,,,,1,,,59,72
39720,note_on,1,0,11,,,,,,,,6,,,43,72
39720,note_on,1,0,20,,,,,,,,14,,,55,72
39720,note_on,1,0,5,,,,,,,,0,,,62,72
39720,note_on,1,0,15,,,,,,,,10,,,59,72
39720,note_on,0,0,6,,,,,,,,1,,,55,72
39720,note_on,1,0,19,,,,,,,,13,,,59,72
39720,note_on,1,0,8,,,,,,,,3,,,62,72
39749,note_on,29,0,19,,,,,,,,13,,,59,0
39749,note_on,29,0,15,,,,,,,,10,,,59,0
39749,note_on,29,0,9,,,,,,,,4,,,59,0
39749,note_on,29,0,6,,,,,,,,1,,,59,0
39750,note_on,1,0,15,,,,,,,,10,,,60,72
39750,note_on,1,0,6,,,,,,,,1,,,60,72
39750,note_on,1,0,19,,,,,,,,13,,,60,72
39750,note_on,1,0,9,,,,,,,,4,,,60,72
39779,note_on,59,0,8,,,,,,,,3,,,62,0
39779,note_on,59,0,11,,,,,,,,6,,,43,0
39779,note_on,59,0,20,,,,,,,,14,,,55,0
39779,note_on,59,0,18,,,,,,,,12,,,62,0
39779,note_on,29,0,6,,,,,,,,1,,,60,0
39779,note_on,59,0,14,,,,,,,,10,,,62,0
39779,note_on,0,0,6,,,,,,,,1,,,55,0
39779,note_on,59,0,5,,,,,,,,0,,,62,0
39779,note_on,59,0,16,,,,,,,,10,,,55,0
39779,note_on,29,0,9,,,,,,,,4,,,60,0
39779,note_on,29,0,15,,,,,,,,10,,,60,0
39779,note_on,29,0,19,,,,,,,,13,,,60,0
39779,note_on,59,0,21,,,,,,,,15,,,55,0
39780,note_on,0,0,6,,,,,,,,1,,,53,72
39780,note_on,1,0,15,,,,,,,,10,,,57,72
39780,note_on,1,0,19,,,,,,,,13,,,57,72
39780,note_on,1,0,20,,,,,,,,14,,,53,72
39780,note_on,1,0,21,,,,,,,,15,,,53,72
39780,note_on,1,0,6,,,,,,,,1,,,57,72
39780,note_on,1,0,5,,,,,,,,0,,,62,72
39780,note_on,1,0,8,,,,,,,,3,,,62,72
39780,note_on,1,0,11,,,,,,,,6,,,41,72
39780,note_on,1,0,18,,,,,,,,12,,,62,72
39780,note_on,1,0,16,,,,,,,,10,,,53,72
39780,note_on,1,0,14,,,,,,,,10,,,62,72
39780,note_on,1,0,9,,,,,,,,4,,,57,72
39809,note_on,29,0,19,,,,,,,,13,,,57,0
39809,note_on,29,0,6,,,,,,,,1,,,57,0
39809,note_on,29,0,15,,,,,,,,10,,,57,0
39809,note_on,29,0,9,,,,,,,,4,,,57,0
39810,note_on,1,0,15,,,,,,,,10,,,59,72
39810,note_on,1,0,9,,,,,,,,4,,,59,72
39810,note_on,1,0,6,,,,,,,,1,,,59,72
39810,note_on,1,0,19,,,,,,,,13,,,59,72
39839,note_on,59,0,14,,,,,,,,10,,,62,0
39839,note_on,59,0,5,,,,,,,,0,,,62,0
39839,note_on,29,0,19,,,,,,,,13,,,59,0
39839,note_on,0,0,21,,,,,,,,15,,,62,0
39839,note_on,59,0,21,,,,,,,,15,,,53,0
39839,note_on,29,0,9,,,,,,,,4,,,59,0
39839,note_on,29,0,6,,,,,,,,1,,,59,0
39839,note_on,0,0,6,,,,,,,,1,,,53,0
39839,note_on,0,0,21,,,,,,,,15,,,71,0
39839,note_on,29,0,15,,,,,,,,10,,,59,0
39839,note_on,59,0,8,,,,,,,,3,,,62,0
39839,note_on,59,0,16,,,,,,,,10,,,53,0
39839,note_on,59,0,11,,,,,,,,6,,,41,0
39839,note_on,59,0,20,,,,,,,,14,,,53,0
39839,note_on,59,0,18,,,,,,,,12,,,62,0
39840,note_on,1,0,18,,,,,,,,12,,,63,72
39840,note_on,0,0,6,,,,,,,,1,,,51,72
39840,note_on,1,0,6,,,,,,,,1,,,60,72
39840,note_on,1,0,5,,,,,,,,0,,,63,72
39840,note_on,1,0,20,,,,,,,,14,,,51,72
39840,note_on,1,0,15,,,,,,,,10,,,60,72
39840,note_on,1,0,16,,,,,,,,10,,,51,72
39840,note_on,0,0,21,,,,,,,,15,,,60,72
39840,note_on,1,0,11,,,,,,,,6,,,39,72
39840,note_on,1,0,8,,,,,,,,3,,,63,72
39840,note_on,1,0,14,,,,,,,,10,,,63,72
39840,note_on,1,0,21,,,,,,,,15,,,51,72
39840,note_on,0,0,21,,,,,,,,15,,,67,72
39840,note_on,1,0,19,,,,,,,,13,,,60,72
39840,note_on,1,0,9,,,,,,,,4,,,60,72
39869,note_on,29,0,18,,,,,,,,12,,,63,0
39869,note_on,29,0,5,,,,,,,,0,,,63,0
39869,note_on,29,0,8,,,,,,,,3,,,63,0
39869,note_on,29,0,14,,,,,,,,10,,,63,0
39870,note_on,1,0,14,,,,,,,,10,,,65,72
39870,note_on,1,0,5,,,,,,,,0,,,65,72
39870,note_on,1,0,8,,,,,,,,3,,,65,72
39870,note_on,1,0,18,,,,,,,,12,,,65,72
39899,note_on,29,0,8,,,,,,,,3,,,65,0
39899,note_on,29,0,14,,,,,,,,10,,,65,0
39899,note_on,29,0,18,,,,,,,,12,,,65,0
39899,note_on,0,0,21,,,,,,,,15,,,67,0
39899,note_on,59,0,11,,,,,,,,6,,,39,0
39899,note_on,29,0,5,,,,,,,,0,,,65,0
39899,note_on,59,0,9,,,,,,,,4,,,60,0
39899,note_on,59,0,19,,,,,,,,13,,,60,0
39899,note_on,59,0,15,,,,,,,,10,,,60,0
39899,note_on,0,0,21,,,,,,,,15,,,51,0
39899,note_on,59,0,21,,,,,,,,15,,,60,0
39899,note_on,59,0,6,,,,,,,,1,,,60,0
39900,note_on,0,0,21,,,,,,,,15,,,70,72
39900,note_on,1201,0,10,,,,,,,,5,,,55,72
39900,note_on,1,0,19,,,,,,,,13,,,55,72
39900,note_on,1,0,14,,,,,,,,10,,,63,72
39900,note_on,1,0,9,,,,,,,,4,,,55,72
39900,note_on,0,0,21,,,,,,,,15,,,62,72
39900,note_on,1,0,6,,,,,,,,1,,,55,72
39900,note_on,1,0,18,,,,,,,,12,,,63,72
39900,note_on,1,0,21,,,,,,,,15,,,55,72
39900,note_on,1,0,8,,,,,,,,3,,,63,72
39900,note_on,1,0,15,,,,,,,,10,,,55,72
39900,note_on,1,0,5,,,,,,,,0,,,63,72
39929,note_on,29,0,18,,,,,,,,12,,,63,0
39929,note_on,29,0,5,,,,,,,,0,,,63,0
39929,note_on,29,0,14,,,,,,,,10,,,63,0
39929,note_on,29,0,8,,,,,,,,3,,,63,0
39930,note_on,1,0,18,,,,,,,,12,,,62,72
39930,note_on,1,0,5,,,,,,,,0,,,62,72
39930,note_on,1,0,14,,,,,,,,10,,,62,72
39930,note_on,1,0,8,,,,,,,,3,,,62,72
39959,note_on,0,0,6,,,,,,,,1,,,51,0
39959,note_on,119,0,16,,,,,,,,10,,,51,0
39959,note_on,29,0,14,,,,,,,,10,,,62,0
39959,note_on,59,0,9,,,,,,,,4,,,55,0
39959,note_on,59,0,21,,,,,,,,15,,,62,0
39959,note_on,0,0,21,,,,,,,,15,,,70,0
39959,note_on,59,0,19,,,,,,,,13,,,55,0
39959,note_on,59,0,10,,,,,,,,5,,,55,0
39959,note_on,119,0,20,,,,,,,,14,,,51,0
39959,note_on,29,0,5,,,,,,,,0,,,62,0
39959,note_on,59,0,15,,,,,,,,10,,,55,0
39959,note_on,59,0,6,,,,,,,,1,,,55,0
39959,note_on,29,0,18,,,,,,,,12,,,62,0
39959,note_on,0,0,21,,,,,,,,15,,,55,0
39959,note_on,29,0,8,,,,,,,,3,,,62,0
39960,note_on,1,0,10,,,,,,,,5,,,60,72
39960,note_on,1,0,19,,,,,,,,13,,,60,72
39960,note_on,1,0,5,,,,,,,,0,,,64,72
39960,note_on,1,0,6,,,,,,,,1,,,60,72
39960,note_on,1,0,14,,,,,,,,10,,,64,72
39960,note_on,1,0,21,,,,,,,,15,,,60,72
39960,note_on,0,0,21,,,,,,,,15,,,64,72
39960,note_on,0,0,21,,,,,,,,15,,,67,72
39960,note_on,1,0,15,,,,,,,,10,,,60,72
39960,note_on,1,0,18,,,,,,,,12,,,64,72
39960,note_on,1,0,8,,,,,,,,3,,,64,72
39960,note_on,1,0,9,,,,,,,,4,,,60,72
39989,note_on,29,0,8,,,,,,,,3,,,64,0
39989,note_on,29,0,14,,,,,,,,10,,,64,0
39989,note_on,29,0,5,,,,,,,,0,,,64,0
39989,note_on,29,0,18,,,,,,,,12,,,64,0
39990,note_on,1,0,18,,,,,,,,12,,,65,72
39990,note_on,1,0,5,,,,,,,,0,,,65,72
39990,note_on,1,0,14,,,,,,,,10,,,65,72
39990,note_on,1,0,8,,,,,,,,3,,,65,72
40019,note_on,29,0,14,,,,,,,,10,,,65,0
40019,note_on,59,0,15,,,,,,,,10,,,60,0
40019,note_on,59,0,21,,,,,,,,15,,,60,0
40019,note_on,59,0,19,,,,,,,,13,,,60,0
40019,note_on,29,0,8,,,,,,,,3,,,65,0
40019,note_on,59,0,9,,,,,,,,4,,,60,0
40019,note_on,59,0,6,,,,,,,,1,,,60,0
40019,note_on,29,0,18,,,,,,,,12,,,65,0
40019,note_on,29,0,5,,,,,,,,0,,,65,0
40019,note_on,59,0,10,,,,,,,,5,,,60,0
40020,note_on,1,0,6,,,,,,,,1,,,58,72
40020,note_on,1,0,18,,,,,,,,12,,,62,72
40020,note_on,1,0,14,,,,,,,,10,,,62,72
40020,note_on,1,0,5,,,,,,,,0,,,62,72
40020,note_on,1,0,8,,,,,,,,3,,,62,72
40020,note_on,1,0,15,,,,,,,,10,,,58,72
40020,note_on,1,0,9,,,,,,,,4,,,58,72
40020,note_on,1,0,21,,,,,,,,15,,,58,72
40020,note_on,1,0,19,,,,,,,,13,,,58,72
40020,note_on,1,0,10,,,,,,,,5,,,58,72
40049,note_on,29,0,5,,,,,,,,0,,,62,0
40049,note_on,29,0,18,,,,,,,,12,,,62,0
40049,note_on,29,0,14,,,,,,,,10,,,62,0
40049,note_on,29,0,8,,,,,,,,3,,,62,0
40050,note_on,1,0,14,,,,,,,,10,,,64,72
40050,note_on,1,0,18,,,,,,,,12,,,64,72
40050,note_on,1,0,8,,,,,,,,3,,,64,72
40050,note_on,1,0,5,,,,,,,,0,,,64,72
40079,note_on,0,0,21,,,,,,,,15,,,67,0
40079,note_on,0,0,21,,,,,,,,15,,,64,0
40079,note_on,29,0,5,,,,,,,,0,,,64,0
40079,note_on,59,0,9,,,,,,,,4,,,58,0
40079,note_on,59,0,6,,,,,,,,1,,,58,0
40079,note_on,29,0,14,,,,,,,,10,,,64,0
40079,note_on,59,0,19,,,,,,,,13,,,58,0
40079,note_on,29,0,8,,,,,,,,3,,,64,0
40079,note_on,29,0,18,,,,,,,,12,,,64,0
40079,note_on,59,0,10,,,,,,,,5,,,58,0
40079,note_on,59,0,15,,,,,,,,10,,,58,0
40079,note_on,59,0,21,,,,,,,,15,,,58,0
40080,note_on,1,0,9,,,,,,,,4,,,57,72
40080,note_on,0,0,21,,,,,,,,15,,,60,72
40080,note_on,1,0,6,,,,,,,,1,,,57,72
40080,note_on,1,0,8,,,,,,,,3,,,65,72
40080,note_on,1,0,18,,,,,,,,12,,,65,72
40080,note_on,1,0,21,,,,,,,,15,,,57,72
40080,note_on,0,0,21,,,,,,,,15,,,65,72
40080,note_on,1,0,15,,,,,,,,10,,,57,72
40080,note_on,1,0,14,,,,,,,,10,,,65,72
40080,note_on,1,0,19,,,,,,,,13,,,57,72
40080,note_on,1,0,10,,,,,,,,5,,,57,72
40080,note_on,1,0,5,,,,,,,,0,,,65,72
40109,note_on,29,0,18,,,,,,,,12,,,65,0
40109,note_on,29,0,5,,,,,,,,0,,,65,0
40109,note_on,29,0,14,,,,,,,,10,,,65,0
40109,note_on,29,0,8,,,,,,,,3,,,65,0
40110,note_on,1,0,8,,,,,,,,3,,,67,72
40110,note_on,1,0,14,,,,,,,,10,,,67,72
40110,note_on,1,0,5,,,,,,,,0,,,67,72
40110,note_on,1,0,18,,,,,,,,12,,,67,72
40139,note_on,29,0,8,,,,,,,,3,,,67,0
40139,note_on,29,0,5,,,,,,,,0,,,67,0
40139,note_on,59,0,9,,,,,,,,4,,,57,0
40139,note_on,59,0,15,,,,,,,,10,,,57,0
40139,note_on,29,0,18,,,,,,,,12,,,67,0
40139,note_on,59,0,19,,,,,,,,13,,,57,0
40139,note_on,59,0,21,,,,,,,,15,,,57,0
40139,note_on,59,0,10,,,,,,,,5,,,57,0
40139,note_on,59,0,6,,,,,,,,1,,,57,0
40139,note_on,29,0,14,,,,,,,,10,,,67,0
40140,note_on,1,0,18,,,,,,,,12,,,65,72
40140,note_on,1,0,9,,,,,,,,4,,,50,72
40140,note_on,1,0,10,,,,,,,,5,,,50,72
40140,note_on,1,0,5,,,,,,,,0,,,65,72
40140,note_on,0,0,5,,,,,,,,0,,,69,72
40140,note_on,1,0,19,,,,,,,,13,,,50,72
40140,note_on,661,0,7,,,,,,,,2,,,69,72
40140,note_on,1,0,15,,,,,,,,10,,,50,72
40140,note_on,1,0,6,,,,,,,,1,,,50,72
40140,note_on,1,0,21,,,,,,,,15,,,50,72
40140,note_on,1,0,14,,,,,,,,10,,,65,72
40140,note_on,661,0,17,,,,,,,,11,,,69,72
40140,note_on,1,0,8,,,,,,,,3,,,65,72
40169,note_on,29,0,8,,,,,,,,3,,,65,0
40169,note_on,29,0,18,,,,,,,,12,,,65,0
40169,note_on,29,0,5,,,,,,,,0,,,65,0
40169,note_on,29,0,14,,,,,,,,10,,,65,0
40170,note_on,1,0,8,,,,,,,,3,,,64,72
40170,note_on,1,0,14,,,,,,,,10,,,64,72
40170,note_on,1,0,5,,,,,,,,0,,,64,72
40170,note_on,1,0,18,,,,,,,,12,,,64,72
40199,note_on,59,0,17,,,,,,,,11,,,69,0
40199,note_on,59,0,15,,,,,,,,10,,,50,0
40199,note_on,59,0,7,,,,,,,,2,,,69,0
40199,note_on,59,0,6,,,,,,,,1,,,50,0
40199,note_on,29,0,18,,,,,,,,12,,,64,0
40199,note_on,59,0,21,,,,,,,,15,,,50,0
40199,note_on,29,0,5,,,,,,,,0,,,64,0
40199,note_on,0,0,5,,,,,,,,0,,,69,0
40199,note_on,59,0,10,,,,,,,,5,,,50,0
40199,note_on,59,0,9,,,,,,,,4,,,50,0
40199,note_on,0,0,21,,,,,,,,15,,,60,0
40199,note_on,59,0,19,,,,,,,,13,,,50,0
40199,note_on,0,0,21,,,,,,,,15,,,65,0
40199,note_on,29,0,14,,,,,,,,10,,,64,0
40199,note_on,29,0,8,,,,,,,,3,,,64,0
40200,note_on,1,0,5,,,,,,,,0,,,66,72
40200,note_on,0,0,5,,,,,,,,0,,,69,72
40200,note_on,0,0,21,,,,,,,,15,,,66,72
40200,note_on,0,0,21,,,,,,,,15,,,69,72
40200,note_on,1,0,21,,,,,,,,15,,,62,72
40200,note_on,1,0,6,,,,,,,,1,,,62,72
40200,note_on,1,0,19,,,,,,,,13,,,62,72
40200,note_on,1,0,9,,,,,,,,4,,,62,72
40200,note_on,1,0,10,,,,,,,,5,,,62,72
40200,note_on,1,0,17,,,,,,,,11,,,69,72
40200,note_on,1,0,18,,,,,,,,12,,,66,72
40200,note_on,1,0,15,,,,,,,,10,,,62,72
40200,note_on,1,0,7,,,,,,,,2,,,69,72
40200,note_on,1,0,8,,,,,,,,3,,,66,72
40200,note_on,1,0,14,,,,,,,,10,,,66,72
40229,note_on,29,0,8,,,,,,,,3,,,66,0
40229,note_on,29,0,5,,,,,,,,0,,,66,0
40229,note_on,29,0,18,,,,,,,,12,,,66,0
40229,note_on,29,0,14,,,,,,,,10,,,66,0
40230,note_on,1,0,14,,,,,,,,10,,,67,72
40230,note_on,1,0,18,,,,,,,,12,,,67,72
40230,note_on,1,0,5,,,,,,,,0,,,67,72
40230,note_on,1,0,8,,,,,,,,3,,,67,72
40259,note_on,59,0,7,,,,,,,,2,,,69,0
40259,note_on,29,0,18,,,,,,,,12,,,67,0
40259,note_on,59,0,15,,,,,,,,10,,,62,0
40259,note_on,59,0,10,,,,,,,,5,,,62,0
40259,note_on,59,0,17,,,,,,,,11,,,69,0
40259,note_on,59,0,9,,,,,,,,4,,,62,0
40259,note_on,29,0,8,,,,,,,,3,,,67,0
40259,note_on,59,0,6,,,,,,,,1,,,62,0
40259,note_on,59,0,21,,,,,,,,15,,,62,0
40259,note_on,59,0,19,,,,,,,,13,,,62,0
40259,note_on,29,0,5,,,,,,,,0,,,67,0
40259,note_on,29,0,14,,,,,,,,10,,,67,0
40259,note_on,0,0,5,,,,,,,,0,,,69,0
40260,note_on,1,0,18,,,,,,,,12,,,64,72
40260,note_on,1,0,10,,,,,,,,5,,,60,72
40260,note_on,1,0,15,,,,,,,,10,,,60,72
40260,note_on,0,0,5,,,,,,,,0,,,69,72
40260,note_on,1,0,19,,,,,,,,13,,,60,72
40260,note_on,1,0,9,,,,,,,,4,,,60,72
40260,note_on,1,0,8,,,,,,,,3,,,64,72
40260,note_on,1,0,17,,,,,,,,11,,,69,72
40260,note_on,1,0,7,,,,,,,,2,,,69,72
40260,note_on,1,0,14,,,,,,,,10,,,64,72
40260,note_on,1,0,6,,,,,,,,1,,,60,72
40260,note_on,1,0,21,,,,,,,,15,,,60,72
40260,note_on,1,0,5,,,,,,,,0,,,64,72
40289,note_on,29,0,5,,,,,,,,0,,,64,0
40289,note_on,29,0,18,,,,,,,,12,,,64,0
40289,note_on,29,0,14,,,,,,,,10,,,64,0
40289,note_on,29,0,8,,,,,,,,3,,,64,0
40290,note_on,1,0,18,,,,,,,,12,,,66,72
40290,note_on,1,0,14,,,,,,,,10,,,66,72
40290,note_on,1,0,8,,,,,,,,3,,,66,72
40290,note_on,1,0,5,,,,,,,,0,,,66,72
40319,note_on,0,0,5,,,,,,,,0,,,69,0
40319,note_on,59,0,15,,,,,,,,10,,,60,0
40319,note_on,59,0,7,,,,,,,,2,,,69,0
40319,note_on,59,0,10,,,,,,,,5,,,60,0
40319,note_on,29,0,18,,,,,,,,12,,,66,0
40319,note_on,29,0,8,,,,,,,,3,,,66,0
40319,note_on,29,0,14,,,,,,,,10,,,66,0
40319,note_on,59,0,21,,,,,,,,15,,,60,0
40319,note_on,59,0,9,,,,,,,,4,,,60,0
40319,note_on,29,0,5,,,,,,,,0,,,66,0
40319,note_on,0,0,21,,,,,,,,15,,,69,0
40319,note_on,0,0,21,,,,,,,,15,,,66,0
40319,note_on,59,0,19,,,,,,,,13,,,60,0
40319,note_on,59,0,17,,,,,,,,11,,,69,0
40319,note_on,59,0,6,,,,,,,,1,,,60,0
40320,note_on,1,0,21,,,,,,,,15,,,58,72
40320,note_on,1,0,8,,,,,,,,3,,,67,72
40320,note_on,1,0,19,,,,,,,,13,,,58,72
40320,note_on,1,0,18,,,,,,,,12,,,67,72
40320,note_on,0,0,21,,,,,,,,15,,,74,72
40320,note_on,0,0,21,,,,,,,,15,,,67,72
40320,note_on,1,0,9,,,,,,,,4,,,58,72
40320,note_on,1,0,15,,,,,,,,10,,,58,72
40320,note_on,1,0,10,,,,,,,,5,,,58,72
40320,note_on,1,0,6,,,,,,,,1,,,58,72
40320,note_on,1,0,17,,,,,,,,11,,,70,72
40320,note_on,0,0,5,,,,,,,,0,,,67,72
40320,note_on,1,0,7,,,,,,,,2,,,70,72
40320,note_on,1,0,5,,,,,,,,0,,,70,72
40320,note_on,1,0,14,,,,,,,,10,,,67,72
40349,note_on,29,0,7,,,,,,,,2,,,70,0
40349,note_on,29,0,5,,,,,,,,0,,,70,0
40349,note_on,29,0,17,,,,,,,,11,,,70,0
40350,note_on,1,0,7,,,,,,,,2,,,72,72
40350,note_on,1,0,5,,,,,,,,0,,,72,72
40350,note_on,1,0,17,,,,,,,,11,,,72,72
40379,note_on,59,0,8,,,,,,,,3,,,67,0
40379,note_on,59,0,14,,,,,,,,10,,,67,0
40379,note_on,0,0,5,,,,,,,,0,,,67,0
40379,note_on,29,0,5,,,,,,,,0,,,72,0
40379,note_on,59,0,21,,,,,,,,15,,,58,0
40379,note_on,59,0,10,,,,,,,,5,,,58,0
40379,note_on,59,0,18,,,,,,,,12,,,67,0
40379,note_on,29,0,7,,,,,,,,2,,,72,0
40379,note_on,29,0,17,,,,,,,,11,,,72,0
40380,note_on,1,0,14,,,,,,,,10,,,62,72
40380,note_on,1,0,21,,,,,,,,15,,,62,72
40380,note_on,1,0,10,,,,,,,,5,,,62,72
40380,note_on,1,0,18,,,,,,,,12,,,62,72
40380,note_on,0,0,5,,,,,,,,0,,,62,72
40380,note_on,1,0,5,,,,,,,,0,,,70,72
40380,note_on,1,0,7,,,,,,,,2,,,70,72
40380,note_on,1,0,8,,,,,,,,3,,,62,72
40380,note_on,1,0,17,,,,,,,,11,,,70,72
40409,note_on,29,0,17,,,,,,,,11,,,70,0
40409,note_on,29,0,7,,,,,,,,2,,,70,0
40409,note_on,29,0,5,,,,,,,,0,,,70,0
40410,note_on,1,0,5,,,,,,,,0,,,69,72
40410,note_on,1,0,17,,,,,,,,11,,,69,72
40410,note_on,1,0,7,,,,,,,,2,,,69,72
40439,note_on,0,0,5,,,,,,,,0,,,62,0
40439,note_on,29,0,7,,,,,,,,2,,,69,0
40439,note_on,119,0,15,,,,,,,,10,,,58,0
40439,note_on,59,0,10,,,,,,,,5,,,62,0
40439,note_on,59,0,18,,,,,,,,12,,,62,0
40439,note_on,0,0,21,,,,,,,,15,,,74,0
40439,note_on,119,0,9,,,,,,,,4,,,58,0
40439,note_on,119,0,19,,,,,,,,13,,,58,0
40439,note_on,59,0,21,,,,,,,,15,,,62,0
40439,note_on,59,0,14,,,,,,,,10,,,62,0
40439,note_on,29,0,17,,,,,,,,11,,,69,0
40439,note_on,119,0,6,,,,,,,,1,,,58,0
40439,note_on,29,0,5,,,,,,,,0,,,69,0
40439,note_on,0,0,21,,,,,,,,15,,,67,0
40439,note_on,59,0,8,,,,,,,,3,,,62,0
40440,note_on,1,0,21,,,,,,,,15,,,67,72
40440,note_on,0,0,21,,,,,,,,15,,,71,72
40440,note_on,0,0,21,,,,,,,,15,,,74,72
40440,note_on,1,0,14,,,,,,,,10,,,67,72
40440,note_on,1,0,17,,,,,,,,11,,,71,72
40440,note_on,1,0,7,,,,,,,,2,,,71,72
40440,note_on,1,0,10,,,,,,,,5,,,67,72
40440,note_on,1,0,5,,,,,,,,0,,,71,72
40440,note_on,1,0,18,,,,,,,,12,,,67,72
40440,note_on,0,0,5,,,,,,,,0,,,67,72
40440,note_on,1,0,8,,,,,,,,3,,,67,72
40469,note_on,29,0,7,,,,,,,,2,,,71,0
40469,note_on,29,0,5,,,,,,,,0,,,71,0
40469,note_on,29,0,17,,,,,,,,11,,,71,0
40470,note_on,1,0,5,,,,,,,,0,,,72,72
40470,note_on,1,0,7,,,,,,,,2,,,72,72
40470,note_on,1,0,17,,,,,,,,11,,,72,72
40499,note_on,59,0,10,,,,,,,,5,,,67,0
40499,note_on,59,0,14,,,,,,,,10,,,67,0
40499,note_on,0,0,5,,,,,,,,0,,,67,0
40499,note_on,29,0,7,,,,,,,,2,,,72,0
40499,note_on,29,0,5,,,,,,,,0,,,72,0
40499,note_on,59,0,21,,,,,,,,15,,,67,0
40499,note_on,59,0,18,,,,,,,,12,,,67,0
40499,note_on,29,0,17,,,,,,,,11,,,72,0
40499,note_on,59,0,8,,,,,,,,3,,,67,0
40500,note_on,1,0,18,,,,,,,,12,,,65,72
40500,note_on,1,0,17,,,,,,,,11,,,69,72
40500,note_on,1,0,10,,,,,,,,5,,,65,72
40500,note_on,1,0,21,,,,,,,,15,,,65,72
40500,note_on,0,0,5,,,,,,,,0,,,65,72
40500,note_on,1,0,8,,,,,,,,3,,,65,72
40500,note_on,1,0,5,,,,,,,,0,,,69,72
40500,note_on,1,0,14,,,,,,,,10,,,65,72
40500,note_on,1,0,7,,,,,,,,2,,,69,72
40529,note_on,29,0,17,,,,,,,,11,,,69,0
40529,note_on,29,0,5,,,,,,,,0,,,69,0
40529,note_on,29,0,7,,,,,,,,2,,,69,0
40530,note_on,1,0,5,,,,,,,,0,,,71,72
40530,note_on,1,0,7,,,,,,,,2,,,71,72
40530,note_on,1,0,17,,,,,,,,11,,,71,72
40559,note_on,29,0,17,,,,,,,,11,,,71,0
40559,note_on,59,0,8,,,,,,,,3,,,65,0
40559,note_on,29,0,5,,,,,,,,0,,,71,0
40559,note_on,0,0,5,,,,,,,,0,,,65,0
40559,note_on,59,0,18,,,,,,,,12,,,65,0
40559,note_on,59,0,10,,,,,,,,5,,,65,0
40559,note_on,59,0,14,,,,,,,,10,,,65,0
40559,note_on,0,0,21,,,,,,,,15,,,71,0
40559,note_on,0,0,21,,,,,,,,15,,,74,0
40559,note_on,59,0,21,,,,,,,,15,,,65,0
40559,note_on,29,0,7,,,,,,,,2,,,71,0
40560,note_on,1,0,8,,,,,,,,3,,,64,72
40560,note_on,1,0,18,,,,,,,,12,,,64,72
40560,note_on,1,0,17,,,,,,,,11,,,72,72
40560,note_on,1,0,10,,,,,,,,5,,,64,72
40560,note_on,1,0,14,,,,,,,,10,,,64,72
40560,note_on,0,0,21,,,,,,,,15,,,72,72
40560,note_on,0,0,21,,,,,,,,15,,,67,72
40560,note_on,1,0,21,,,,,,,,15,,,64,72
40560,note_on,1,0,5,,,,,,,,0,,,72,72
40560,note_on,0,0,5,,,,,,,,0,,,64,72
40560,note_on,1,0,7,,,,,,,,2,,,72,72
40589,note_on,29,0,5,,,,,,,,0,,,72,0
40589,note_on,29,0,17,,,,,,,,11,,,72,0
40589,note_on,29,0,7,,,,,,,,2,,,72,0
40590,note_on,1,0,5,,,,,,,,0,,,74,72
40590,note_on,1,0,7,,,,,,,,2,,,74,72
40590,note_on,1,0,17,,,,,,,,11,,,74,72
40619,note_on,0,0,5,,,,,,,,0,,,64,0
40619,note_on,29,0,5,,,,,,,,0,,,74,0
40619,note_on,59,0,14,,,,,,,,10,,,64,0
40619,note_on,59,0,21,,,,,,,,15,,,72,0
40619,note_on,0,0,21,,,,,,,,15,,,64,0
40619,note_on,59,0,8,,,,,,,,3,,,64,0
40619,note_on,0,0,21,,,,,,,,15,,,67,0
40619,note_on,59,0,10,,,,,,,,5,,,64,0
40619,note_on,59,0,18,,,,,,,,12,,,64,0
40619,note_on,29,0,7,,,,,,,,2,,,74,0
40619,note_on,29,0,17,,,,,,,,11,,,74,0
40620,note_on,1,0,18,,,,,,,,12,,,57,72
40620,note_on,1,0,17,,,,,,,,11,,,72,72
40620,note_on,0,0,5,,,,,,,,0,,,57,72
40620,note_on,1,0,14,,,,,,,,10,,,57,72
40620,note_on,181,0,6,,,,,,,,1,,,55,72
40620,note_on,1,0,7,,,,,,,,2,,,72,72
40620,note_on,181,0,9,,,,,,,,4,,,55,72
40620,note_on,181,0,19,,,,,,,,13,,,55,72
40620,note_on,1,0,5,,,,,,,,0,,,72,72
40620,note_on,661,0,16,,,,,,,,10,,,52,72
40620,note_on,0,0,21,,,,,,,,15,,,72,72
40620,note_on,0,0,21,,,,,,,,15,,,69,72
40620,note_on,1,0,21,,,,,,,,15,,,52,72
40620,note_on,181,0,15,,,,,,,,10,,,55,72
40620,note_on,661,0,20,,,,,,,,14,,,52,72
40620,note_on,1,0,8,,,,,,,,3,,,57,72
40620,note_on,0,0,6,,,,,,,,1,,,52,72
40620,note_on,721,0,11,,,,,,,,6,,,40,72
40649,note_on,29,0,5,,,,,,,,0,,,72,0
40649,note_on,29,0,17,,,,,,,,11,,,72,0
40649,note_on,29,0,7,,,,,,,,2,,,72,0
40650,note_on,1,0,17,,,,,,,,11,,,71,72
40650,note_on,1,0,7,,,,,,,,2,,,71,72
40650,note_on,1,0,5,,,,,,,,0,,,71,72
40679,note_on,59,0,14,,,,,,,,10,,,57,0
40679,note_on,29,0,5,,,,,,,,0,,,71,0
40679,note_on,59,0,20,,,,,,,,14,,,52,0
40679,note_on,59,0,21,,,,,,,,15,,,72,0
40679,note_on,0,0,21,,,,,,,,15,,,52,0
40679,note_on,0,0,5,,,,,,,,0,,,57,0
40679,note_on,29,0,17,,,,,,,,11,,,71,0
40679,note_on,59,0,11,,,,,,,,6,,,40,0
40679,note_on,59,0,18,,,,,,,,12,,,57,0
40679,note_on,29,0,7,,,,,,,,2,,,71,0
40679,note_on,59,0,8,,,,,,,,3,,,57,0
40679,note_on,59,0,9,,,,,,,,4,,,55,0
40679,note_on,59,0,19,,,,,,,,13,,,55,0
40679,note_on,59,0,16,,,,,,,,10,,,52,0
40679,note_on,59,0,6,,,,,,,,1,,,52,0
40679,note_on,0,0,6,,,,,,,,1,,,55,0
40679,note_on,59,0,15,,,,,,,,10,,,55,0
40680,note_on,1,0,17,,,,,,,,11,,,73,72
40680,note_on,1,0,14,,,,,,,,10,,,69,72
40680,note_on,1,0,7,,,,,,,,2,,,73,72
40680,note_on,1,0,9,,,,,,,,4,,,55,72
40680,note_on,1,0,15,,,,,,,,10,,,55,72
40680,note_on,1,0,8,,,,,,,,3,,,69,72
40680,note_on,0,0,21,,,,,,,,15,,,73,72
40680,note_on,1,0,20,,,,,,,,14,,,52,72
40680,note_on,1,0,18,,,,,,,,12,,,69,72
40680,note_on,1,0,5,,,,,,,,0,,,73,72
40680,note_on,0,0,5,,,,,,,,0,,,69,72
40680,note_on,1,0,21,,,,,,,,15,,,52,72
40680,note_on,1,0,16,,,,,,,,10,,,52,72
40680,note_on,1,0,11,,,,,,,,6,,,40,72
40680,note_on,1,0,19,,,,,,,,13,,,55,72
40680,note_on,1,0,6,,,,,,,,1,,,55,72
40680,note_on,0,0,6,,,,,,,,1,,,52,72
40709,note_on,29,0,5,,,,,,,,0,,,73,0
40709,note_on,29,0,7,,,,,,,,2,,,73,0
40709,note_on,29,0,17,,,,,,,,11,,,73,0
40710,note_on,1,0,5,,,,,,,,0,,,74,72
40710,note_on,1,0,17,,,,,,,,11,,,74,72
40710,note_on,1,0,7,,,,,,,,2,,,74,72
40739,note_on,29,0,17,,,,,,,,11,,,74,0
40739,note_on,0,0,5,,,,,,,,0,,,69,0
40739,note_on,59,0,20,,,,,,,,14,,,52,0
40739,note_on,59,0,19,,,,,,,,13,,,55,0
40739,note_on,0,0,21,,,,,,,,15,,,69,0
40739,note_on,59,0,21,,,,,,,,15,,,52,0
40739,note_on,59,0,16,,,,,,,,10,,,52,0
40739,note_on,59,0,8,,,,,,,,3,,,69,0
40739,note_on,29,0,5,,,,,,,,0,,,74,0
40739,note_on,59,0,18,,,,,,,,12,,,69,0
40739,note_on,59,0,6,,,,,,,,1,,,52,0
40739,note_on,59,0,11,,,,,,,,6,,,40,0
40739,note_on,29,0,7,,,,,,,,2,,,74,0
40739,note_on,59,0,14,,,,,,,,10,,,69,0
40739,note_on,0,0,6,,,,,,,,1,,,55,0
40739,note_on,59,0,9,,,,,,,,4,,,55,0
40739,note_on,59,0,15,,,,,,,,10,,,55,0
40740,note_on,1,0,15,,,,,,,,10,,,57,72
40740,note_on,0,0,5,,,,,,,,0,,,71,72
40740,note_on,1,0,5,,,,,,,,0,,,67,72
40740,note_on,1,0,7,,,,,,,,2,,,71,72
40740,note_on,1,0,14,,,,,,,,10,,,67,72
40740,note_on,1,0,17,,,,,,,,11,,,71,72
40740,note_on,0,0,6,,,,,,,,1,,,52,72
40740,note_on,1,0,20,,,,,,,,14,,,52,72
40740,note_on,1,0,16,,,,,,,,10,,,52,72
40740,note_on,1,0,18,,,,,,,,12,,,67,72
40740,note_on,0,0,21,,,,,,,,15,,,67,72
40740,note_on,1,0,21,,,,,,,,15,,,52,72
40740,note_on,1,0,6,,,,,,,,1,,,57,72
40740,note_on,1,0,19,,,,,,,,13,,,57,72
40740,note_on,1,0,9,,,,,,,,4,,,57,72
40740,note_on,1,0,8,,,,,,,,3,,,67,72
40740,note_on,1,0,11,,,,,,,,6,,,40,72
40769,note_on,29,0,17,,,,,,,,11,,,71,0
40769,note_on,29,0,5,,,,,,,,0,,,71,0
40769,note_on,29,0,7,,,,,,,,2,,,71,0
40770,note_on,1,0,17,,,,,,,,11,,,73,72
40770,note_on,1,0,5,,,,,,,,0,,,72,72
40770,note_on,1,0,7,,,,,,,,2,,,73,72
40799,note_on,59,0,6,,,,,,,,1,,,52,0
40799,note_on,29,0,5,,,,,,,,0,,,72,0
40799,note_on,0,0,5,,,,,,,,0,,,67,0
40799,note_on,0,0,6,,,,,,,,1,,,57,0
40799,note_on,59,0,20,,,,,,,,14,,,52,0
40799,note_on,59,0,19,,,,,,,,13,,,57,0
40799,note_on,59,0,16,,,,,,,,10,,,52,0
40799,note_on,59,0,9,,,,,,,,4,,,57,0
40799,note_on,59,0,18,,,,,,,,12,,,67,0
40799,note_on,59,0,11,,,,,,,,6,,,40,0
40799,note_on,59,0,8,,,,,,,,3,,,67,0
40799,note_on,59,0,15,,,,,,,,10,,,57,0
40799,note_on,29,0,7,,,,,,,,2,,,73,0
40799,note_on,59,0,21,,,,,,,,15,,,67,0
40799,note_on,0,0,21,,,,,,,,15,,,52,0
40799,note_on,29,0,17,,,,,,,,11,,,73,0
40799,note_on,59,0,14,,,,,,,,10,,,67,0
40799,note_on,0,0,21,,,,,,,,15,,,73,0
40800,note_on,0,0,6,,,,,,,,1,,,53,72
40800,note_on,1,0,9,,,,,,,,4,,,57,72
40800,note_on,1,0,20,,,,,,,,14,,,53,72
40800,note_on,1,0,7,,,,,,,,2,,,74,72
40800,note_on,1,0,15,,,,,,,,10,,,57,72
40800,note_on,1,0,21,,,,,,,,15,,,53,72
40800,note_on,0,0,21,,,,,,,,15,,,57,72
40800,note_on,0,0,12,,,,,,,,7,,,62,76
40800,note_on,1,0,6,,,,,,,,1,,,57,72
40800,note_on,0,0,21,,,,,,,,15,,,65,72
40800,note_on,1,0,17,,,,,,,,11,,,74,72
40800,note_on,1,0,8,,,,,,,,3,,,65,72
40800,note_on,8281,0,12,,,,,,,,7,,,74,76
40800,note_on,1,0,18,,,,,,,,12,,,65,72
40800,note_on,8521,0,13,,,,,,,,8,,,50,72
40800,note_on,0,0,5,,,,,,,,0,,,65,72
40800,note_on,1,0,5,,,,,,,,0,,,74,72
40800,note_on,1,0,19,,,,,,,,13,,,57,72
40800,note_on,1,0,16,,,,,,,,10,,,53,72
40800,note_on,0,0,21,,,,,,,,15,,,74,72
40800,note_on,1,0,11,,,,,,,,6,,,41,72
40800,note_on,1,0,14,,,,,,,,10,,,65,72
40829,note_on,29,0,20,,,,,,,,14,,,53,0
40829,note_on,29,0,11,,,,,,,,6,,,41,0
40829,note_on,29,0,6,,,,,,,,1,,,53,0
40829,note_on,29,0,21,,,,,,,,15,,,53,0
40829,note_on,29,0,16,,,,,,,,10,,,53,0
40830,note_on,1,0,20,,,,,,,,14,,,55,72
40830,note_on,1,0,11,,,,,,,,6,,,43,72
40830,note_on,1,0,6,,,,,,,,1,,,55,72
40830,note_on,1,0,16,,,,,,,,10,,,55,72
40830,note_on,1,0,21,,,,,,,,15,,,55,72
40859,note_on,29,0,11,,,,,,,,6,,,43,0
40859,note_on,59,0,7,,,,,,,,2,,,74,0
40859,note_on,59,0,13,,,,,,,,8,,,50,0
40859,note_on,29,0,21,,,,,,,,15,,,55,0
40859,note_on,29,0,20,,,,,,,,14,,,55,0
40859,note_on,59,0,17,,,,,,,,11,,,74,0
40859,note_on,29,0,16,,,,,,,,10,,,55,0
40859,note_on,29,0,6,,,,,,,,1,,,55,0
40859,note_on,59,0,5,,,,,,,,0,,,74,0
40860,note_on,1,0,21,,,,,,,,15,,,53,72
40860,note_on,1,0,16,,,,,,,,10,,,53,72
40860,note_on,1,0,6,,,,,,,,1,,,53,72
40860,note_on,1,0,11,,,,,,,,6,,,41,72
40860,note_on,1,0,7,,,,,,,,2,,,69,72
40860,note_on,1,0,13,,,,,,,,8,,,50,72
40860,note_on,1,0,5,,,,,,,,0,,,69,72
40860,note_on,1,0,17,,,,,,,,11,,,69,72
40860,note_on,1,0,20,,,,,,,,14,,,53,72
40889,note_on,29,0,20,,,,,,,,14,,,53,0
40889,note_on,29,0,13,,,,,,,,8,,,50,0
40889,note_on,29,0,11,,,,,,,,6,,,41,0
40889,note_on,29,0,21,,,,,,,,15,,,53,0
40889,note_on,29,0,16,,,,,,,,10,,,53,0
40889,note_on,29,0,6,,,,,,,,1,,,53,0
40890,note_on,1,0,21,,,,,,,,15,,,52,72
40890,note_on,1,0,20,,,,,,,,14,,,52,72
40890,note_on,1,0,11,,,,,,,,6,,,40,72
40890,note_on,1,0,6,,,,,,,,1,,,52,72
40890,note_on,1,0,16,,,,,,,,10,,,52,72
40890,note_on,1,0,13,,,,,,,,8,,,50,72
40919,note_on,29,0,21,,,,,,,,15,,,52,0
40919,note_on,0,0,5,,,,,,,,0,,,65,0
40919,note_on,59,0,5,,,,,,,,0,,,69,0
40919,note_on,0,0,21,,,,,,,,15,,,65,0
40919,note_on,119,0,18,,,,,,,,12,,,65,0
40919,note_on,0,0,21,,,,,,,,15,,,57,0
40919,note_on,119,0,19,,,,,,,,13,,,57,0
40919,note_on,29,0,20,,,,,,,,14,,,52,0
40919,note_on,29,0,11,,,,,,,,6,,,40,0
40919,note_on,119,0,9,,,,,,,,4,,,57,0
40919,note_on,0,0,21,,,,,,,,15,,,74,0
40919,note_on,119,0,12,,,,,,,,7,,,62,0
40919,note_on,119,0,8,,,,,,,,3,,,65,0
40919,note_on,119,0,14,,,,,,,,10,,,65,0
40919,note_on,59,0,17,,,,,,,,11,,,69,0
40919,note_on,29,0,13,,,,,,,,8,,,50,0
40919,note_on,59,0,7,,,,,,,,2,,,69,0
40919,note_on,119,0,15,,,,,,,,10,,,57,0
40919,note_on,0,0,12,,,,,,,,7,,,74,0
40919,note_on,29,0,16,,,,,,,,10,,,52,0
40919,note_on,29,0,6,,,,,,,,1,,,52,0
40919,note_on,0,0,6,,,,,,,,1,,,57,0
40920,note_on,1,0,9,,,,,,,,4,,,57,72
40920,note_on,1,0,7,,,,,,,,2,,,74,72
40920,note_on,1,0,15,,,,,,,,10,,,57,72
40920,note_on,1,0,21,,,,,,,,15,,,54,72
40920,note_on,0,0,21,,,,,,,,15,,,57,72
40920,note_on,1,0,12,,,,,,,,7,,,74,76
40920,note_on,0,0,21,,,,,,,,15,,,69,72
40920,note_on,1,0,14,,,,,,,,10,,,69,72
40920,note_on,1,0,16,,,,,,,,10,,,54,72
40920,note_on,1,0,20,,,,,,,,14,,,54,72
40920,note_on,1,0,19,,,,,,,,13,,,57,72
40920,note_on,1,0,17,,,,,,,,11,,,74,72
40920,note_on,1,0,5,,,,,,,,0,,,74,72
40920,note_on,0,0,5,,,,,,,,0,,,69,72
40920,note_on,0,0,21,,,,,,,,15,,,74,72
40920,note_on,1,0,6,,,,,,,,1,,,54,72
40920,note_on,0,0,6,,,,,,,,1,,,57,72
40920,note_on,1,0,8,,,,,,,,3,,,69,72
40920,note_on,1,0,13,,,,,,,,8,,,50,72
40920,note_on,1,0,18,,,,,,,,12,,,69,72
40920,note_on,0,0,12,,,,,,,,7,,,62,76
40920,note_on,1,0,11,,,,,,,,6,,,42,72
40949,note_on,29,0,21,,,,,,,,15,,,54,0
40949,note_on,29,0,6,,,,,,,,1,,,54,0
40949,note_on,29,0,16,,,,,,,,10,,,54,0
40949,note_on,29,0,20,,,,,,,,14,,,54,0
40949,note_on,29,0,11,,,,,,,,6,,,42,0
40950,note_on,1,0,6,,,,,,,,1,,,55,72
40950,note_on,1,0,21,,,,,,,,15,,,55,72
40950,note_on,1,0,11,,,,,,,,6,,,43,72
40950,note_on,1,0,16,,,,,,,,10,,,55,72
40950,note_on,1,0,20,,,,,,,,14,,,55,72
40979,note_on,29,0,11,,,,,,,,6,,,43,0
40979,note_on,29,0,21,,,,,,,,15,,,55,0
40979,note_on,0,0,21,,,,,,,,15,,,69,0
40979,note_on,29,0,6,,,,,,,,1,,,55,0
40979,note_on,0,0,21,,,,,,,,15,,,74,0
40979,note_on,59,0,7,,,,,,,,2,,,74,0
40979,note_on,0,0,21,,,,,,,,15,,,57,0
40979,note_on,59,0,13,,,,,,,,8,,,50,0
40979,note_on,29,0,20,,,,,,,,14,,,55,0
40979,note_on,59,0,17,,,,,,,,11,,,74,0
40979,note_on,59,0,5,,,,,,,,0,,,74,0
40979,note_on,29,0,16,,,,,,,,10,,,55,0
40980,note_on,1,0,21,,,,,,,,15,,,52,72
40980,note_on,0,0,21,,,,,,,,15,,,72,72
40980,note_on,1,0,20,,,,,,,,14,,,52,72
40980,note_on,1,0,13,,,,,,,,8,,,50,72
40980,note_on,0,0,21,,,,,,,,15,,,64,72
40980,note_on,1,0,11,,,,,,,,6,,,40,72
40980,note_on,1,0,16,,,,,,,,10,,,52,72
40980,note_on,0,0,21,,,,,,,,15,,,69,72
40980,note_on,1,0,6,,,,,,,,1,,,52,72
40980,note_on,1,0,5,,,,,,,,0,,,72,72
40980,note_on,1,0,17,,,,,,,,11,,,72,72
40980,note_on,1,0,7,,,,,,,,2,,,72,72
41009,note_on,29,0,13,,,,,,,,8,,,50,0
41009,note_on,89,0,14,,,,,,,,10,,,69,0
41009,note_on,29,0,21,,,,,,,,15,,,52,0
41009,note_on,29,0,20,,,,,,,,14,,,52,0
41009,note_on,29,0,5,,,,,,,,0,,,69,0
41009,note_on,89,0,9,,,,,,,,4,,,57,0
41009,note_on,89,0,18,,,,,,,,12,,,69,0
41009,note_on,89,0,15,,,,,,,,10,,,57,0
41009,note_on,0,0,6,,,,,,,,1,,,57,0
41009,note_on,89,0,8,,,,,,,,3,,,69,0
41009,note_on,29,0,6,,,,,,,,1,,,52,0
41009,note_on,29,0,11,,,,,,,,6,,,40,0
41009,note_on,89,0,19,,,,,,,,13,,,57,0
41009,note_on,29,0,16,,,,,,,,10,,,52,0
41010,note_on,1,0,21,,,,,,,,15,,,54,72
41010,note_on,1,0,16,,,,,,,,10,,,54,72
41010,note_on,1,0,19,,,,,,,,13,,,57,72
41010,note_on,1,0,5,,,,,,,,0,,,69,72
41010,note_on,1,0,13,,,,,,,,8,,,50,72
41010,note_on,1,0,18,,,,,,,,12,,,69,72
41010,note_on,1,0,14,,,,,,,,10,,,69,72
41010,note_on,1,0,9,,,,,,,,4,,,57,72
41010,note_on,1,0,8,,,,,,,,3,,,69,72
41010,note_on,1,0,11,,,,,,,,6,,,42,72
41010,note_on,1,0,6,,,,,,,,1,,,54,72
41010,note_on,1,0,20,,,,,,,,14,,,54,72
41010,note_on,0,0,6,,,,,,,,1,,,57,72
41010,note_on,1,0,15,,,,,,,,10,,,57,72
41039,note_on,29,0,14,,,,,,,,10,,,69,0
41039,note_on,29,0,5,,,,,,,,0,,,69,0
41039,note_on,59,0,7,,,,,,,,2,,,72,0
41039,note_on,119,0,12,,,,,,,,7,,,62,0
41039,note_on,0,0,12,,,,,,,,7,,,74,0
41039,note_on,29,0,16,,,,,,,,10,,,54,0
41039,note_on,29,0,11,,,,,,,,6,,,42,0
41039,note_on,29,0,8,,,,,,,,3,,,69,0
41039,note_on,29,0,13,,,,,,,,8,,,50,0
41039,note_on,0,0,21,,,,,,,,15,,,72,0
41039,note_on,0,0,21,,,,,,,,15,,,69,0
41039,note_on,0,0,21,,,,,,,,15,,,64,0
41039,note_on,29,0,21,,,,,,,,15,,,54,0
41039,note_on,29,0,15,,,,,,,,10,,,57,0
41039,note_on,0,0,5,,,,,,,,0,,,72,0
41039,note_on,29,0,9,,,,,,,,4,,,57,0
41039,note_on,29,0,19,,,,,,,,13,,,57,0
41039,note_on,29,0,6,,,,,,,,1,,,57,0
41039,note_on,59,0,17,,,,,,,,11,,,72,0
41039,note_on,29,0,18,,,,,,,,12,,,69,0
41039,note_on,29,0,20,,,,,,,,14,,,54,0
41039,note_on,0,0,6,,,,,,,,1,,,54,0
41040,note_on,1,0,19,,,,,,,,13,,,59,72
41040,note_on,0,0,5,,,,,,,,0,,,62,72
41040,note_on,1,0,7,,,,,,,,2,,,70,72
41040,note_on,1,0,15,,,,,,,,10,,,59,72
41040,note_on,1,0,11,,,,,,,,6,,,43,72
41040,note_on,1,0,16,,,,,,,,10,,,55,72
41040,note_on,1,0,13,,,,,,,,8,,,50,72
41040,note_on,1,0,20,,,,,,,,14,,,55,72
41040,note_on,1,0,14,,,,,,,,10,,,62,72
41040,note_on,1,0,9,,,,,,,,4,,,59,72
41040,note_on,1,0,8,,,,,,,,3,,,62,72
41040,note_on,1,0,5,,,,,,,,0,,,71,72
41040,note_on,1,0,6,,,,,,,,1,,,59,72
41040,note_on,1,0,17,,,,,,,,11,,,71,72
41040,note_on,1,0,21,,,,,,,,15,,,55,72
41040,note_on,0,0,21,,,,,,,,15,,,59,72
41040,note_on,1,0,18,,,,,,,,12,,,62,72
41040,note_on,0,0,21,,,,,,,,15,,,62,72
41040,note_on,0,0,21,,,,,,,,15,,,71,72
41040,note_on,1,0,12,,,,,,,,7,,,74,76
41040,note_on,0,0,12,,,,,,,,7,,,62,76
41040,note_on,0,0,6,,,,,,,,1,,,55,72
41069,note_on,29,0,6,,,,,,,,1,,,55,0
41069,note_on,29,0,20,,,,,,,,14,,,55,0
41069,note_on,29,0,21,,,,,,,,15,,,55,0
41069,note_on,29,0,16,,,,,,,,10,,,55,0
41069,note_on,29,0,11,,,,,,,,6,,,43,0
41070,note_on,1,0,20,,,,,,,,14,,,57,72
41070,note_on,1,0,21,,,,,,,,15,,,57,72
41070,note_on,1,0,16,,,,,,,,10,,,57,72
41070,note_on,1,0,6,,,,,,,,1,,,57,72
41070,note_on,1,0,11,,,,,,,,6,,,45,72
41099,note_on,29,0,11,,,,,,,,6,,,45,0
41099,note_on,59,0,14,,,,,,,,10,,,62,0
41099,note_on,59,0,8,,,,,,,,3,,,62,0
41099,note_on,59,0,7,,,,,,,,2,,,70,0
41099,note_on,0,0,21,,,,,,,,15,,,59,0
41099,note_on,29,0,21,,,,,,,,15,,,57,0
41099,note_on,0,0,5,,,,,,,,0,,,71,0
41099,note_on,0,0,21,,,,,,,,15,,,71,0
41099,note_on,59,0,18,,,,,,,,12,,,62,0
41099,note_on,59,0,5,,,,,,,,0,,,62,0
41099,note_on,0,0,21,,,,,,,,15,,,62,0
41099,note_on,59,0,17,,,,,,,,11,,,71,0
41099,note_on,29,0,6,,,,,,,,1,,,57,0
41099,note_on,29,0,20,,,,,,,,14,,,57,0
41099,note_on,29,0,16,,,,,,,,10,,,57,0
41100,note_on,1,0,17,,,,,,,,11,,,64,72
41100,note_on,1,0,6,,,,,,,,1,,,55,72
41100,note_on,1,0,21,,,,,,,,15,,,55,72
41100,note_on,1,0,7,,,,,,,,2,,,64,72
41100,note_on,0,0,21,,,,,,,,15,,,59,72
41100,note_on,0,0,21,,,,,,,,15,,,71,72
41100,note_on,1,0,16,,,,,,,,10,,,55,72
41100,note_on,0,0,21,,,,,,,,15,,,64,72
41100,note_on,1,0,11,,,,,,,,6,,,43,72
41100,note_on,1,0,18,,,,,,,,12,,,71,72
41100,note_on,1,0,8,,,,,,,,3,,,71,72
41100,note_on,1,0,20,,,,,,,,14,,,55,72
41100,note_on,0,0,5,,,,,,,,0,,,64,72
41100,note_on,1,0,5,,,,,,,,0,,,71,72
41100,note_on,1,0,14,,,,,,,,10,,,71,72
41129,note_on,29,0,21,,,,,,,,15,,,55,0
41129,note_on,29,0,11,,,,,,,,6,,,43,0
41129,note_on,29,0,6,,,,,,,,1,,,55,0
41129,note_on,29,0,16,,,,,,,,10,,,55,0
41129,note_on,29,0,20,,,,,,,,14,,,55,0
41130,note_on,1,0,16,,,,,,,,10,,,54,72
41130,note_on,1,0,21,,,,,,,,15,,,54,72
41130,note_on,1,0,6,,,,,,,,1,,,54,72
41130,note_on,1,0,20,,,,,,,,14,,,54,72
41130,note_on,1,0,11,,,,,,,,6,,,42,72
41159,note_on,59,0,17,,,,,,,,11,,,64,0
41159,note_on,119,0,19,,,,,,,,13,,,59,0
41159,note_on,0,0,12,,,,,,,,7,,,74,0
41159,note_on,119,0,12,,,,,,,,7,,,62,0
41159,note_on,59,0,18,,,,,,,,12,,,71,0
41159,note_on,119,0,15,,,,,,,,10,,,59,0
41159,note_on,29,0,11,,,,,,,,6,,,42,0
41159,note_on,59,0,5,,,,,,,,0,,,64,0
41159,note_on,29,0,16,,,,,,,,10,,,54,0
41159,note_on,119,0,9,,,,,,,,4,,,59,0
41159,note_on,0,0,5,,,,,,,,0,,,71,0
41159,note_on,59,0,7,,,,,,,,2,,,64,0
41159,note_on,29,0,21,,,,,,,,15,,,54,0
41159,note_on,0,0,21,,,,,,,,15,,,64,0
41159,note_on,59,0,8,,,,,,,,3,,,71,0
41159,note_on,119,0,13,,,,,,,,8,,,50,0
41159,note_on,0,0,6,,,,,,,,1,,,59,0
41159,note_on,0,0,21,,,,,,,,15,,,59,0
41159,note_on,0,0,21,,,,,,,,15,,,71,0
41159,note_on,59,0,14,,,,,,,,10,,,71,0
41159,note_on,29,0,6,,,,,,,,1,,,54,0
41159,note_on,29,0,20,,,,,,,,14,,,54,0
41160,note_on,1,0,21,,,,,,,,15,,,56,72
41160,note_on,0,0,5,,,,,,,,0,,,71,72
41160,note_on,1,0,15,,,,,,,,10,,,59,72
41160,note_on,1,0,9,,,,,,,,4,,,59,72
41160,note_on,1,0,7,,,,,,,,2,,,76,72
41160,note_on,1,0,8,,,,,,,,3,,,71,72
41160,note_on,1,0,14,,,,,,,,10,,,71,72
41160,note_on,0,0,21,,,,,,,,15,,,71,72
41160,note_on,1,0,5,,,,,,,,0,,,76,72
41160,note_on,1,0,20,,,,,,,,14,,,56,72
41160,note_on,0,0,6,,,,,,,,1,,,59,72
41160,note_on,1,0,6,,,,,,,,1,,,56,72
41160,note_on,1,0,17,,,,,,,,11,,,76,72
41160,note_on,1,0,19,,,,,,,,13,,,59,72
41160,note_on,0,0,21,,,,,,,,15,,,74,72
41160,note_on,1,0,11,,,,,,,,6,,,44,72
41160,note_on,0,0,21,,,,,,,,15,,,68,72
41160,note_on,1,0,16,,,,,,,,10,,,56,72
41160,note_on,1,0,18,,,,,,,,12,,,71,72
41189,note_on,29,0,21,,,,,,,,15,,,56,0
41189,note_on,29,0,20,,,,,,,,14,,,56,0
41189,note_on,29,0,11,,,,,,,,6,,,44,0
41189,note_on,29,0,16,,,,,,,,10,,,56,0
41189,note_on,29,0,6,,,,,,,,1,,,56,0
41190,note_on,1,0,21,,,,,,,,15,,,57,72
41190,note_on,1,0,20,,,,,,,,14,,,57,72
41190,note_on,1,0,16,,,,,,,,10,,,57,72
41190,note_on,1,0,11,,,,,,,,6,,,45,72
41190,note_on,1,0,6,,,,,,,,1,,,57,72
41219,note_on,59,0,17,,,,,,,,11,,,76,0
41219,note_on,29,0,6,,,,,,,,1,,,57,0
41219,note_on,0,0,6,,,,,,,,1,,,59,0
41219,note_on,29,0,16,,,,,,,,10,,,57,0
41219,note_on,0,0,21,,,,,,,,15,,,68,0
41219,note_on,29,0,11,,,,,,,,6,,,45,0
41219,note_on,0,0,21,,,,,,,,15,,,74,0
41219,note_on,29,0,21,,,,,,,,15,,,57,0
41219,note_on,59,0,5,,,,,,,,0,,,76,0
41219,note_on,59,0,7,,,,,,,,2,,,76,0
41219,note_on,29,0,20,,,,,,,,14,,,57,0
41220,note_on,1,0,17,,,,,,,,11,,,74,72
41220,note_on,1,0,7,,,,,,,,2,,,74,72
41220,note_on,1,0,16,,,,,,,,10,,,54,72
41220,note_on,1,0,6,,,,,,,,1,,,53,72
41220,note_on,0,0,21,,,,,,,,15,,,66,72
41220,note_on,1,0,11,,,,,,,,6,,,42,72
41220,note_on,1,0,5,,,,,,,,0,,,74,72
41220,note_on,1,0,20,,,,,,,,14,,,54,72
41220,note_on,1,0,21,,,,,,,,15,,,54,72
41220,note_on,0,0,21,,,,,,,,15,,,74,72
41249,note_on,89,0,15,,,,,,,,10,,,59,0
41249,note_on,29,0,6,,,,,,,,1,,,53,0
41249,note_on,29,0,16,,,,,,,,10,,,54,0
41249,note_on,29,0,11,,,,,,,,6,,,42,0
41249,note_on,29,0,20,,,,,,,,14,,,54,0
41249,note_on,89,0,9,,,,,,,,4,,,59,0
41249,note_on,29,0,21,,,,,,,,15,,,54,0
41249,note_on,89,0,19,,,,,,,,13,,,59,0
41250,note_on,1,0,21,,,,,,,,15,,,55,72
41250,note_on,1,0,6,,,,,,,,1,,,56,72
41250,note_on,1,0,16,,,,,,,,10,,,56,72
41250,note_on,1,0,15,,,,,,,,10,,,59,72
41250,note_on,1,0,9,,,,,,,,4,,,59,72
41250,note_on,1,0,11,,,,,,,,6,,,43,72
41250,note_on,1,0,19,,,,,,,,13,,,59,72
41250,note_on,0,0,6,,,,,,,,1,,,59,72
41250,note_on,1,0,20,,,,,,,,14,,,56,72
41279,note_on,59,0,17,,,,,,,,11,,,74,0
41279,note_on,119,0,8,,,,,,,,3,,,71,0
41279,note_on,29,0,20,,,,,,,,14,,,56,0
41279,note_on,0,0,21,,,,,,,,15,,,71,0
41279,note_on,0,0,21,,,,,,,,15,,,74,0
41279,note_on,59,0,7,,,,,,,,2,,,74,0
41279,note_on,0,0,21,,,,,,,,15,,,66,0
41279,note_on,29,0,16,,,,,,,,10,,,56,0
41279,note_on,29,0,9,,,,,,,,4,,,59,0
41279,note_on,29,0,19,,,,,,,,13,,,59,0
41279,note_on,0,0,5,,,,,,,,0,,,71,0
41279,note_on,119,0,18,,,,,,,,12,,,71,0
41279,note_on,119,0,14,,,,,,,,10,,,71,0
41279,note_on,0,0,6,,,,,,,,1,,,56,0
41279,note_on,29,0,6,,,,,,,,1,,,59,0
41279,note_on,29,0,21,,,,,,,,15,,,55,0
41279,note_on,29,0,15,,,,,,,,10,,,59,0
41279,note_on,59,0,5,,,,,,,,0,,,74,0
41279,note_on,29,0,11,,,,,,,,6,,,43,0
41280,note_on,1,0,11,,,,,,,,6,,,45,72
41280,note_on,1,0,16,,,,,,,,10,,,57,72
41280,note_on,1,0,20,,,,,,,,14,,,57,72
41280,note_on,1,0,18,,,,,,,,12,,,64,72
41280,note_on,0,0,21,,,,,,,,15,,,61,72
41280,note_on,1,0,6,,,,,,,,1,,,61,72
41280,note_on,0,0,6,,,,,,,,1,,,57,72
41280,note_on,1,0,19,,,,,,,,13,,,61,72
41280,note_on,0,0,21,,,,,,,,15,,,64,72
41280,note_on,1,0,7,,,,,,,,2,,,73,72
41280,note_on,1,0,14,,,,,,,,10,,,64,72
41280,note_on,1,0,8,,,,,,,,3,,,64,72
41280,note_on,1,0,17,,,,,,,,11,,,73,72
41280,note_on,1,0,15,,,,,,,,10,,,61,72
41280,note_on,1,0,21,,,,,,,,15,,,57,72
41280,note_on,0,0,21,,,,,,,,15,,,73,72
41280,note_on,1,0,5,,,,,,,,0,,,73,72
41280,note_on,0,0,5,,,,,,,,0,,,64,72
41280,note_on,1,0,9,,,,,,,,4,,,61,72
41339,note_on,59,0,5,,,,,,,,0,,,64,0
41339,note_on,59,0,15,,,,,,,,10,,,61,0
41339,note_on,59,0,16,,,,,,,,10,,,57,0
41339,note_on,59,0,8,,,,,,,,3,,,64,0
41339,note_on,59,0,9,,,,,,,,4,,,61,0
41339,note_on,0,0,6,,,,,,,,1,,,61,0
41339,note_on,59,0,19,,,,,,,,13,,,61,0
41339,note_on,59,0,14,,,,,,,,10,,,64,0
41339,note_on,59,0,18,,,,,,,,12,,,64,0
41339,note_on,59,0,6,,,,,,,,1,,,57,0
41339,note_on,59,0,20,,,,,,,,14,,,57,0
41340,note_on,1,0,19,,,,,,,,13,,,57,72
41340,note_on,1,0,5,,,,,,,,0,,,61,72
41340,note_on,1,0,20,,,,,,,,14,,,57,72
41340,note_on,1,0,18,,,,,,,,12,,,61,72
41340,note_on,1,0,6,,,,,,,,1,,,57,72
41340,note_on,0,0,6,,,,,,,,1,,,57,72
41340,note_on,1,0,16,,,,,,,,10,,,57,72
41340,note_on,0,0,12,,,,,,,,7,,,57,76
41340,note_on,1,0,8,,,,,,,,3,,,61,72
41340,note_on,1,0,15,,,,,,,,10,,,57,72
41340,note_on,181,0,13,,,,,,,,8,,,45,72
41340,note_on,1,0,9,,,,,,,,4,,,57,72
41340,note_on,181,0,12,,,,,,,,7,,,69,76
41340,note_on,1,0,14,,,,,,,,10,,,61,72
41399,note_on,59,0,13,,,,,,,,8,,,45,0
41399,note_on,59,0,14,,,,,,,,10,,,61,0
41399,note_on,119,0,21,,,,,,,,15,,,61,0
41399,note_on,0,0,21,,,,,,,,15,,,64,0
41399,note_on,0,0,21,,,,,,,,15,,,73,0
41399,note_on,59,0,6,,,,,,,,1,,,57,0
41399,note_on,119,0,7,,,,,,,,2,,,73,0
41399,note_on,59,0,15,,,,,,,,10,,,57,0
41399,note_on,0,0,12,,,,,,,,7,,,69,0
41399,note_on,59,0,19,,,,,,,,13,,,57,0
41399,note_on,59,0,8,,,,,,,,3,,,61,0
41399,note_on,59,0,9,,,,,,,,4,,,57,0
41399,note_on,59,0,12,,,,,,,,7,,,57,0
41399,note_on,119,0,17,,,,,,,,11,,,73,0
41399,note_on,59,0,18,,,,,,,,12,,,61,0
41399,note_on,0,0,5,,,,,,,,0,,,73,0
41399,note_on,59,0,5,,,,,,,,0,,,61,0
41400,note_on,1,0,5,,,,,,,,0,,,62,72
41400,note_on,1,0,8,,,,,,,,3,,,62,72
41400,note_on,1,0,19,,,,,,,,13,,,59,72
41400,note_on,1,0,14,,,,,,,,10,,,62,72
41400,note_on,1,0,21,,,,,,,,15,,,59,72
41400,note_on,1,0,18,,,,,,,,12,,,62,72
41400,note_on,1,0,6,,,,,,,,1,,,59,72
41400,note_on,0,0,21,,,,,,,,15,,,62,72
41400,note_on,1,0,13,,,,,,,,8,,,45,72
41400,note_on,1,0,12,,,,,,,,7,,,69,76
41400,note_on,1,0,9,,,,,,,,4,,,59,72
41400,note_on,0,0,12,,,,,,,,7,,,57,76
41400,note_on,1,0,15,,,,,,,,10,,,59,72
41459,note_on,59,0,15,,,,,,,,10,,,59,0
41459,note_on,119,0,20,,,,,,,,14,,,57,0
41459,note_on,59,0,12,,,,,,,,7,,,57,0
41459,note_on,59,0,13,,,,,,,,8,,,45,0
41459,note_on,59,0,19,,,,,,,,13,,,59,0
41459,note_on,59,0,18,,,,,,,,12,,,62,0
41459,note_on,59,0,5,,,,,,,,0,,,62,0
41459,note_on,59,0,9,,,,,,,,4,,,59,0
41459,note_on,59,0,8,,,,,,,,3,,,62,0
41459,note_on,179,0,11,,,,,,,,6,,,45,0
41459,note_on,59,0,14,,,,,,,,10,,,62,0
41459,note_on,0,0,12,,,,,,,,7,,,69,0
41459,note_on,0,0,6,,,,,,,,1,,,57,0
41459,note_on,59,0,6,,,,,,,,1,,,59,0
41459,note_on,0,0,21,,,,,,,,15,,,57,0
41459,note_on,0,0,21,,,,,,,,15,,,59,0
41459,note_on,59,0,21,,,,,,,,15,,,62,0
41459,note_on,119,0,16,,,,,,,,10,,,57,0
41460,note_on,1,0,6,,,,,,,,1,,,61,72
41460,note_on,1,0,8,,,,,,,,3,,,64,72
41460,note_on,1,0,5,,,,,,,,0,,,64,72
41460,note_on,0,0,6,,,,,,,,1,,,57,72
41460,note_on,1,0,13,,,,,,,,8,,,45,72
41460,note_on,1,0,21,,,,,,,,15,,,61,72
41460,note_on,1,0,15,,,,,,,,10,,,61,72
41460,note_on,0,0,21,,,,,,,,15,,,57,72
41460,note_on,0,0,21,,,,,,,,15,,,64,72
41460,note_on,1,0,14,,,,,,,,10,,,64,72
41460,note_on,1,0,20,,,,,,,,14,,,57,72
41460,note_on,1,0,9,,,,,,,,4,,,61,72
41460,note_on,0,0,12,,,,,,,,7,,,57,76
41460,note_on,1,0,11,,,,,,,,6,,,45,72
41460,note_on,1,0,12,,,,,,,,7,,,69,76
41460,note_on,1,0,18,,,,,,,,12,,,64,72
41460,note_on,1,0,16,,,,,,,,10,,,57,72
41460,note_on,1,0,19,,,,,,,,13,,,61,72
41519,note_on,0,0,12,,,,,,,,7,,,69,0
41519,note_on,59,0,18,,,,,,,,12,,,64,0
41519,note_on,59,0,12,,,,,,,,7,,,57,0
41519,note_on,59,0,14,,,,,,,,10,,,64,0
41519,note_on,0,0,6,,,,,,,,1,,,61,0
41519,note_on,59,0,9,,,,,,,,4,,,61,0
41519,note_on,59,0,19,,,,,,,,13,,,61,0
41519,note_on,0,0,21,,,,,,,,15,,,61,0
41519,note_on,0,0,21,,,,,,,,15,,,57,0
41519,note_on,59,0,21,,,,,,,,15,,,64,0
41519,note_on,59,0,5,,,,,,,,0,,,64,0
41519,note_on,59,0,6,,,,,,,,1,,,57,0
41519,note_on,59,0,15,,,,,,,,10,,,61,0
41519,note_on,59,0,11,,,,,,,,6,,,45,0
41519,note_on,59,0,20,,,,,,,,14,,,57,0
41519,note_on,59,0,8,,,,,,,,3,,,64,0
41519,note_on,59,0,13,,,,,,,,8,,,45,0
41519,note_on,59,0,16,,,,,,,,10,,,57,0
41520,note_on,1,0,18,,,,,,,,12,,,65,72
41520,note_on,1,0,9,,,,,,,,4,,,62,72
41520,note_on,1,0,11,,,,,,,,6,,,41,72
41520,note_on,0,0,21,,,,,,,,15,,,62,72
41520,note_on,0,0,21,,,,,,,,15,,,69,72
41520,note_on,1,0,15,,,,,,,,10,,,62,72
41520,note_on,1,0,13,,,,,,,,8,,,50,72
41520,note_on,1,0,20,,,,,,,,14,,,53,72
41520,note_on,1,0,14,,,,,,,,10,,,65,72
41520,note_on,1,0,19,,,,,,,,13,,,62,72
41520,note_on,1,0,16,,,,,,,,10,,,53,72
41520,note_on,0,0,12,,,,,,,,7,,,62,76
41520,note_on,0,0,6,,,,,,,,1,,,53,72
41520,note_on,1,0,6,,,,,,,,1,,,62,72
41520,note_on,1,0,12,,,,,,,,7,,,69,76
41520,note_on,1,0,8,,,,,,,,3,,,65,72
41520,note_on,1,0,21,,,,,,,,15,,,53,72
41520,note_on,1,0,5,,,,,,,,0,,,65,72
41579,note_on,59,0,14,,,,,,,,10,,,65,0
41579,note_on,59,0,8,,,,,,,,3,,,65,0
41579,note_on,59,0,18,,,,,,,,12,,,65,0
41579,note_on,59,0,5,,,,,,,,0,,,65,0
41580,note_on,1,0,5,,,,,,,,0,,,64,72
41580,note_on,1,0,8,,,,,,,,3,,,64,72
41580,note_on,1,0,18,,,,,,,,12,,,64,72
41580,note_on,1,0,14,,,,,,,,10,,,64,72
41609,note_on,29,0,18,,,,,,,,12,,,64,0
41609,note_on,29,0,14,,,,,,,,10,,,64,0
41609,note_on,29,0,8,,,,,,,,3,,,64,0
41609,note_on,29,0,5,,,,,,,,0,,,64,0
41610,note_on,1,0,5,,,,,,,,0,,,65,72
41610,note_on,1,0,18,,,,,,,,12,,,65,72
41610,note_on,1,0,14,,,,,,,,10,,,65,72
41610,note_on,1,0,8,,,,,,,,3,,,65,72
41639,note_on,29,0,18,,,,,,,,12,,,65,0
41639,note_on,119,0,20,,,,,,,,14,,,53,0
41639,note_on,29,0,8,,,,,,,,3,,,65,0
41639,note_on,119,0,21,,,,,,,,15,,,62,0
41639,note_on,0,0,21,,,,,,,,15,,,69,0
41639,note_on,0,0,12,,,,,,,,7,,,69,0
41639,note_on,0,0,21,,,,,,,,15,,,53,0
41639,note_on,119,0,6,,,,,,,,1,,,53,0
41639,note_on,119,0,13,,,,,,,,8,,,50,0
41639,note_on,119,0,12,,,,,,,,7,,,62,0
41639,note_on,29,0,14,,,,,,,,10,,,65,0
41639,note_on,29,0,5,,,,,,,,0,,,65,0
41639,note_on,119,0,11,,,,,,,,6,,,41,0
41639,note_on,119,0,16,,,,,,,,10,,,53,0
41640,note_on,1,0,5,,,,,,,,0,,,67,72
41640,note_on,1,0,21,,,,,,,,15,,,58,72
41640,note_on,0,0,21,,,,,,,,15,,,62,72
41640,note_on,0,0,21,,,,,,,,15,,,67,72
41640,note_on,1,0,16,,,,,,,,10,,,58,72
41640,note_on,1,0,8,,,,,,,,3,,,67,72
41640,note_on,1,0,14,,,,,,,,10,,,67,72
41640,note_on,1,0,13,,,,,,,,8,,,50,72
41640,note_on,1,0,20,,,,,,,,14,,,58,72
41640,note_on,1,0,6,,,,,,,,1,,,58,72
41640,note_on,1,0,12,,,,,,,,7,,,74,76
41640,note_on,0,0,12,,,,,,,,7,,,62,76
41640,note_on,1,0,18,,,,,,,,12,,,67,72
41640,note_on,1,0,11,,,,,,,,6,,,46,72
41699,note_on,179,0,15,,,,,,,,10,,,62,0
41699,note_on,59,0,6,,,,,,,,1,,,62,0
41699,note_on,59,0,8,,,,,,,,3,,,67,0
41699,note_on,179,0,9,,,,,,,,4,,,62,0
41699,note_on,59,0,5,,,,,,,,0,,,67,0
41699,note_on,59,0,18,,,,,,,,12,,,67,0
41699,note_on,59,0,14,,,,,,,,10,,,67,0
41699,note_on,179,0,19,,,,,,,,13,,,62,0
41700,note_on,1,0,18,,,,,,,,12,,,65,72
41700,note_on,1,0,5,,,,,,,,0,,,65,72
41700,note_on,1,0,19,,,,,,,,13,,,62,72
41700,note_on,1,0,9,,,,,,,,4,,,62,72
41700,note_on,1,0,14,,,,,,,,10,,,65,72
41700,note_on,1,0,8,,,,,,,,3,,,65,72
41700,note_on,1,0,15,,,,,,,,10,,,62,72
41700,note_on,1,0,6,,,,,,,,1,,,62,72
41729,note_on,29,0,8,,,,,,,,3,,,65,0
41729,note_on,29,0,5,,,,,,,,0,,,65,0
41729,note_on,29,0,14,,,,,,,,10,,,65,0
41729,note_on,29,0,18,,,,,,,,12,,,65,0
41730,note_on,1,0,5,,,,,,,,0,,,67,72
41730,note_on,1,0,14,,,,,,,,10,,,67,72
41730,note_on,1,0,18,,,,,,,,12,,,67,72
41730,note_on,1,0,8,,,,,,,,3,,,67,72
41759,note_on,119,0,13,,,,,,,,8,,,50,0
41759,note_on,119,0,20,,,,,,,,14,,,58,0
41759,note_on,59,0,6,,,,,,,,1,,,62,0
41759,note_on,0,0,6,,,,,,,,1,,,58,0
41759,note_on,29,0,18,,,,,,,,12,,,67,0
41759,note_on,0,0,21,,,,,,,,15,,,58,0
41759,note_on,119,0,21,,,,,,,,15,,,67,0
41759,note_on,0,0,21,,,,,,,,15,,,62,0
41759,note_on,119,0,11,,,,,,,,6,,,46,0
41759,note_on,59,0,15,,,,,,,,10,,,62,0
41759,note_on,59,0,9,,,,,,,,4,,,62,0
41759,note_on,29,0,5,,,,,,,,0,,,67,0
41759,note_on,119,0,12,,,,,,,,7,,,62,0
41759,note_on,0,0,12,,,,,,,,7,,,74,0
41759,note_on,119,0,16,,,,,,,,10,,,58,0
41759,note_on,29,0,14,,,,,,,,10,,,67,0
41759,note_on,59,0,19,,,,,,,,13,,,62,0
41759,note_on,29,0,8,,,,,,,,3,,,67,0
41760,note_on,1,0,14,,,,,,,,10,,,69,72
41760,note_on,0,0,21,,,,,,,,15,,,69,72
41760,note_on,0,0,21,,,,,,,,15,,,64,72
41760,note_on,1,0,21,,,,,,,,15,,,49,72
41760,note_on,1,0,16,,,,,,,,10,,,49,72
41760,note_on,1,0,19,,,,,,,,13,,,64,72
41760,note_on,1,0,18,,,,,,,,12,,,69,72
41760,note_on,1,0,9,,,,,,,,4,,,64,72
41760,note_on,1,0,8,,,,,,,,3,,,69,72
41760,note_on,1,0,11,,,,,,,,6,,,37,72
41760,note_on,1,0,20,,,,,,,,14,,,49,72
41760,note_on,1,0,12,,,,,,,,7,,,69,76
41760,note_on,1,0,15,,,,,,,,10,,,64,72
41760,note_on,1,0,6,,,,,,,,1,,,64,72
41760,note_on,1,0,5,,,,,,,,0,,,69,72
41760,note_on,0,0,6,,,,,,,,1,,,49,72
41760,note_on,1,0,13,,,,,,,,8,,,45,72
41760,note_on,0,0,12,,,,,,,,7,,,57,76
41819,note_on,59,0,18,,,,,,,,12,,,69,0
41819,note_on,59,0,5,,,,,,,,0,,,69,0
41819,note_on,59,0,14,,,,,,,,10,,,69,0
41819,note_on,59,0,8,,,,,,,,3,,,69,0
41819,note_on,59,0,21,,,,,,,,15,,,69,0
41820,note_on,421,0,7,,,,,,,,2,,,76,72
41820,note_on,1,0,14,,,,,,,,10,,,70,72
41820,note_on,0,0,5,,,,,,,,0,,,76,72
41820,note_on,1,0,18,,,,,,,,12,,,70,72
41820,note_on,1,0,5,,,,,,,,0,,,70,72
41820,note_on,421,0,17,,,,,,,,11,,,76,72
41820,note_on,0,0,21,,,,,,,,15,,,76,72
41820,note_on,1,0,21,,,,,,,,15,,,70,72
41820,note_on,1,0,8,,,,,,,,3,,,70,72
41879,note_on,119,0,9,,,,,,,,4,,,64,0
41879,note_on,59,0,8,,,,,,,,3,,,70,0
41879,note_on,0,0,12,,,,,,,,7,,,69,0
41879,note_on,59,0,7,,,,,,,,2,,,76,0
41879,note_on,119,0,19,,,,,,,,13,,,64,0
41879,note_on,59,0,17,,,,,,,,11,,,76,0
41879,note_on,59,0,14,,,,,,,,10,,,70,0
41879,note_on,119,0,15,,,,,,,,10,,,64,0
41879,note_on,119,0,12,,,,,,,,7,,,57,0
41879,note_on,0,0,21,,,,,,,,15,,,70,0
41879,note_on,119,0,13,,,,,,,,8,,,45,0
41879,note_on,119,0,6,,,,,,,,1,,,64,0
41879,note_on,59,0,5,,,,,,,,0,,,76,0
41879,note_on,0,0,5,,,,,,,,0,,,70,0
41879,note_on,59,0,18,,,,,,,,12,,,70,0
41879,note_on,59,0,21,,,,,,,,15,,,76,0
41880,note_on,1,0,6,,,,,,,,1,,,57,72
41880,note_on,0,0,5,,,,,,,,0,,,76,72
41880,note_on,1,0,5,,,,,,,,0,,,69,72
41880,note_on,1,0,9,,,,,,,,4,,,57,72
41880,note_on,1,0,7,,,,,,,,2,,,76,72
41880,note_on,1,0,19,,,,,,,,13,,,57,72
41880,note_on,1,0,18,,,,,,,,12,,,69,72
41880,note_on,1,0,17,,,,,,,,11,,,76,72
41880,note_on,0,0,21,,,,,,,,15,,,76,72
41880,note_on,1,0,21,,,,,,,,15,,,69,72
41880,note_on,1,0,15,,,,,,,,10,,,57,72
41880,note_on,1,0,14,,,,,,,,10,,,69,72
41880,note_on,1,0,8,,,,,,,,3,,,69,72
41939,note_on,0,0,21,,,,,,,,15,,,69,0
41939,note_on,59,0,8,,,,,,,,3,,,69,0
41939,note_on,59,0,21,,,,,,,,15,,,76,0
41939,note_on,179,0,20,,,,,,,,14,,,49,0
41939,note_on,179,0,16,,,,,,,,10,,,49,0
41939,note_on,179,0,11,,,,,,,,6,,,37,0
41939,note_on,0,0,21,,,,,,,,15,,,49,0
41939,note_on,59,0,6,,,,,,,,1,,,49,0
41939,note_on,0,0,5,,,,,,,,0,,,69,0
41939,note_on,59,0,5,,,,,,,,0,,,76,0
41939,note_on,59,0,7,,,,,,,,2,,,76,0
41939,note_on,59,0,14,,,,,,,,10,,,69,0
41939,note_on,59,0,18,,,,,,,,12,,,69,0
41939,note_on,59,0,17,,,,,,,,11,,,76,0
41940,note_on,0,0,5,,,,,,,,0,,,76,72
41940,note_on,1,0,11,,,,,,,,6,,,37,72
41940,note_on,1,0,18,,,,,,,,12,,,67,72
41940,note_on,1,0,14,,,,,,,,10,,,67,72
41940,note_on,1,0,17,,,,,,,,11,,,76,72
41940,note_on,1,0,6,,,,,,,,1,,,49,72
41940,note_on,1,0,7,,,,,,,,2,,,76,72
41940,note_on,1,0,8,,,,,,,,3,,,67,72
41940,note_on,0,0,21,,,,,,,,15,,,76,72
41940,note_on,0,0,21,,,,,,,,15,,,67,72
41940,note_on,1,0,21,,,,,,,,15,,,49,72
41940,note_on,1,0,16,,,,,,,,10,,,49,72
41940,note_on,1,0,20,,,,,,,,14,,,49,72
41940,note_on,1,0,5,,,,,,,,0,,,67,72
41999,note_on,59,0,20,,,,,,,,14,,,49,0
41999,note_on,59,0,7,,,,,,,,2,,,76,0
41999,note_on,0,0,21,,,,,,,,15,,,64,0
41999,note_on,0,0,21,,,,,,,,15,,,49,0
41999,note_on,0,0,21,,,,,,,,15,,,67,0
41999,note_on,59,0,14,,,,,,,,10,,,67,0
41999,note_on,59,0,8,,,,,,,,3,,,67,0
41999,note_on,59,0,11,,,,,,,,6,,,37,0
41999,note_on,59,0,18,,,,,,,,12,,,67,0
41999,note_on,59,0,16,,,,,,,,10,,,49,0
41999,note_on,0,0,5,,,,,,,,0,,,67,0
41999,note_on,59,0,5,,,,,,,,0,,,76,0
41999,note_on,59,0,6,,,,,,,,1,,,49,0
41999,note_on,59,0,17,,,,,,,,11,,,76,0
41999,note_on,59,0,21,,,,,,,,15,,,76,0
42000,note_on,1,0,17,,,,,,,,11,,,77,72
42000,note_on,1,0,16,,,,,,,,10,,,50,72
42000,note_on,0,0,21,,,,,,,,15,,,77,72
42000,note_on,0,0,21,,,,,,,,15,,,69,72
42000,note_on,0,0,21,,,,,,,,15,,,65,72
42000,note_on,1,0,21,,,,,,,,15,,,50,72
42000,note_on,1,0,20,,,,,,,,14,,,50,72
42000,note_on,1,0,8,,,,,,,,3,,,65,72
42000,note_on,1,0,11,,,,,,,,6,,,38,72
42000,note_on,1,0,6,,,,,,,,1,,,50,72
42000,note_on,1,0,5,,,,,,,,0,,,65,72
42000,note_on,0,0,5,,,,,,,,0,,,77,72
42000,note_on,1,0,14,,,,,,,,10,,,65,72
42000,note_on,1,0,18,,,,,,,,12,,,65,72
42000,note_on,1,0,7,,,,,,,,2,,,77,72
42029,note_on,29,0,5,,,,,,,,0,,,77,0
42029,note_on,29,0,17,,,,,,,,11,,,77,0
42029,note_on,29,0,7,,,,,,,,2,,,77,0
42030,note_on,1,0,5,,,,,,,,0,,,79,72
42030,note_on,1,0,7,,,,,,,,2,,,79,72
42030,note_on,1,0,17,,,,,,,,11,,,79,72
42059,note_on,179,0,15,,,,,,,,10,,,57,0
42059,note_on,59,0,14,,,,,,,,10,,,65,0
42059,note_on,29,0,7,,,,,,,,2,,,79,0
42059,note_on,29,0,17,,,,,,,,11,,,79,0
42059,note_on,59,0,6,,,,,,,,1,,,57,0
42059,note_on,179,0,19,,,,,,,,13,,,57,0
42059,note_on,179,0,9,,,,,,,,4,,,57,0
42059,note_on,59,0,18,,,,,,,,12,,,65,0
42059,note_on,0,0,5,,,,,,,,0,,,65,0
42059,note_on,29,0,5,,,,,,,,0,,,79,0
42059,note_on,59,0,8,,,,,,,,3,,,65,0
42060,note_on,1,0,18,,,,,,,,12,,,69,72
42060,note_on,0,0,5,,,,,,,,0,,,77,72
42060,note_on,1,0,5,,,,,,,,0,,,69,72
42060,note_on,1,0,8,,,,,,,,3,,,69,72
42060,note_on,1,0,14,,,,,,,,10,,,69,72
42060,note_on,1,0,6,,,,,,,,1,,,53,72
42060,note_on,1,0,7,,,,,,,,2,,,77,72
42060,note_on,1,0,15,,,,,,,,10,,,53,72
42060,note_on,1,0,17,,,,,,,,11,,,77,72
42060,note_on,1,0,19,,,,,,,,13,,,53,72
42060,note_on,1,0,9,,,,,,,,4,,,53,72
42089,note_on,29,0,17,,,,,,,,11,,,77,0
42089,note_on,29,0,7,,,,,,,,2,,,77,0
42089,note_on,29,0,5,,,,,,,,0,,,77,0
42090,note_on,1,0,17,,,,,,,,11,,,76,72
42090,note_on,1,0,7,,,,,,,,2,,,76,72
42090,note_on,1,0,5,,,,,,,,0,,,76,72
42119,note_on,29,0,17,,,,,,,,11,,,76,0
42119,note_on,119,0,21,,,,,,,,15,,,77,0
42119,note_on,119,0,20,,,,,,,,14,,,50,0
42119,note_on,29,0,5,,,,,,,,0,,,76,0
42119,note_on,0,0,5,,,,,,,,0,,,69,0
42119,note_on,0,0,21,,,,,,,,15,,,69,0
42119,note_on,59,0,18,,,,,,,,12,,,69,0
42119,note_on,119,0,11,,,,,,,,6,,,38,0
42119,note_on,119,0,16,,,,,,,,10,,,50,0
42119,note_on,59,0,8,,,,,,,,3,,,69,0
42119,note_on,59,0,15,,,,,,,,10,,,53,0
42119,note_on,59,0,19,,,,,,,,13,,,53,0
42119,note_on,0,0,21,,,,,,,,15,,,50,0
42119,note_on,59,0,6,,,,,,,,1,,,53,0
42119,note_on,0,0,6,,,,,,,,1,,,50,0
42119,note_on,59,0,9,,,,,,,,4,,,53,0
42119,note_on,59,0,14,,,,,,,,10,,,69,0
42119,note_on,29,0,7,,,,,,,,2,,,76,0
42119,note_on,0,0,21,,,,,,,,15,,,65,0
42120,note_on,1,0,6,,,,,,,,1,,,58,72
42120,note_on,1,0,7,,,,,,,,2,,,77,72
42120,note_on,1,0,15,,,,,,,,10,,,58,72
42120,note_on,1,0,14,,,,,,,,10,,,74,72
42120,note_on,0,0,5,,,,,,,,0,,,74,72
42120,note_on,1,0,8,,,,,,,,3,,,74,72
42120,note_on,1,0,19,,,,,,,,13,,,58,72
42120,note_on,1,0,18,,,,,,,,12,,,74,72
42120,note_on,1,0,9,,,,,,,,4,,,58,72
42120,note_on,1,0,21,,,,,,,,15,,,65,72
42120,note_on,0,0,21,,,,,,,,15,,,70,72
42120,note_on,1,0,17,,,,,,,,11,,,77,72
42120,note_on,1,0,5,,,,,,,,0,,,77,72
42149,note_on,29,0,5,,,,,,,,0,,,77,0
42149,note_on,29,0,17,,,,,,,,11,,,77,0
42149,note_on,29,0,7,,,,,,,,2,,,77,0
42150,note_on,1,0,17,,,,,,,,11,,,79,72
42150,note_on,1,0,5,,,,,,,,0,,,79,72
42150,note_on,1,0,7,,,,,,,,2,,,79,72
42179,note_on,29,0,5,,,,,,,,0,,,79,0
42179,note_on,59,0,21,,,,,,,,15,,,70,0
42179,note_on,29,0,7,,,,,,,,2,,,79,0
42179,note_on,29,0,17,,,,,,,,11,,,79,0
42180,note_on,60,0,6,,,,,,,,1,,,50,72
42180,note_on,61,0,20,,,,,,,,14,,,50,72
42180,note_on,61,0,16,,,,,,,,10,,,50,72
42180,note_on,1,0,21,,,,,,,,15,,,50,72
42180,note_on,1,0,7,,,,,,,,2,,,76,72
42180,note_on,0,0,21,,,,,,,,15,,,69,72
42180,note_on,1,0,5,,,,,,,,0,,,76,72
42180,note_on,61,0,11,,,,,,,,6,,,38,72
42180,note_on,1,0,17,,,,,,,,11,,,76,72
42209,note_on,29,0,5,,,,,,,,0,,,76,0
42209,note_on,29,0,17,,,,,,,,11,,,76,0
42209,note_on,29,0,7,,,,,,,,2,,,76,0
42210,note_on,1,0,5,,,,,,,,0,,,77,72
42210,note_on,1,0,7,,,,,,,,2,,,77,72
42210,note_on,1,0,17,,,,,,,,11,,,77,72
42239,note_on,59,0,20,,,,,,,,14,,,50,0
42239,note_on,59,0,16,,,,,,,,10,,,50,0
42239,note_on,59,0,11,,,,,,,,6,,,38,0
42239,note_on,0,0,21,,,,,,,,15,,,50,0
42239,note_on,119,0,9,,,,,,,,4,,,58,0
42239,note_on,59,0,6,,,,,,,,1,,,50,0
42239,note_on,59,0,21,,,,,,,,15,,,69,0
42239,note_on,29,0,17,,,,,,,,11,,,77,0
42239,note_on,29,0,7,,,,,,,,2,,,77,0
42239,note_on,29,0,5,,,,,,,,0,,,77,0
42239,note_on,0,0,21,,,,,,,,15,,,65,0
42239,note_on,119,0,14,,,,,,,,10,,,74,0
42239,note_on,119,0,18,,,,,,,,12,,,74,0
42240,note_on,1,0,9,,,,,,,,4,,,58,72
42240,note_on,1,0,7,,,,,,,,2,,,79,72
42240,note_on,1,0,14,,,,,,,,10,,,74,72
42240,note_on,1,0,17,,,,,,,,11,,,79,72
42240,note_on,1,0,16,,,,,,,,10,,,52,72
42240,note_on,1,0,11,,,,,,,,6,,,40,72
42240,note_on,1,0,20,,,,,,,,14,,,52,72
42240,note_on,0,0,21,,,,,,,,15,,,74,72
42240,note_on,1,0,6,,,,,,,,1,,,52,72
42240,note_on,0,0,21,,,,,,,,15,,,67,72
42240,note_on,1,0,21,,,,,,,,15,,,52,72
42240,note_on,1,0,5,,,,,,,,0,,,79,72
42240,note_on,1,0,18,,,,,,,,12,,,74,72
42240,note_on,0,0,21,,,,,,,,15,,,58,72
42269,note_on,29,0,17,,,,,,,,11,,,79,0
42269,note_on,29,0,7,,,,,,,,2,,,79,0
42270,note_on,1,0,7,,,,,,,,2,,,81,72
42270,note_on,1,0,17,,,,,,,,11,,,81,72
42299,note_on,179,0,15,,,,,,,,10,,,58,0
42299,note_on,29,0,7,,,,,,,,2,,,81,0
42299,note_on,59,0,9,,,,,,,,4,,,58,0
42299,note_on,59,0,6,,,,,,,,1,,,58,0
42299,note_on,179,0,19,,,,,,,,13,,,58,0
42299,note_on,29,0,17,,,,,,,,11,,,81,0
42300,note_on,1,0,15,,,,,,,,10,,,55,72
42300,note_on,1,0,7,,,,,,,,2,,,79,72
42300,note_on,1,0,9,,,,,,,,4,,,55,72
42300,note_on,1,0,6,,,,,,,,1,,,55,72
42300,note_on,1,0,19,,,,,,,,13,,,55,72
42300,note_on,1,0,17,,,,,,,,11,,,79,72
42329,note_on,29,0,17,,,,,,,,11,,,79,0
42329,note_on,29,0,7,,,,,,,,2,,,79,0
42330,note_on,1,0,17,,,,,,,,11,,,77,72
42330,note_on,1,0,7,,,,,,,,2,,,77,72
42359,note_on,29,0,7,,,,,,,,2,,,77,0
42359,note_on,0,0,21,,,,,,,,15,,,58,0
42359,note_on,59,0,9,,,,,,,,4,,,55,0
42359,note_on,59,0,6,,,,,,,,1,,,55,0
42359,note_on,119,0,5,,,,,,,,0,,,74,0
42359,note_on,59,0,19,,,,,,,,13,,,55,0
42359,note_on,119,0,18,,,,,,,,12,,,74,0
42359,note_on,239,0,8,,,,,,,,3,,,74,0
42359,note_on,59,0,15,,,,,,,,10,,,55,0
42359,note_on,119,0,14,,,,,,,,10,,,74,0
42359,note_on,29,0,17,,,,,,,,11,,,77,0
42359,note_on,119,0,21,,,,,,,,15,,,74,0
42360,note_on,1,0,19,,,,,,,,13,,,64,72
42360,note_on,1,0,9,,,,,,,,4,,,64,72
42360,note_on,1,0,8,,,,,,,,3,,,73,72
42360,note_on,1,0,18,,,,,,,,12,,,73,72
42360,note_on,1,0,15,,,,,,,,10,,,64,72
42360,note_on,1,0,14,,,,,,,,10,,,73,72
42360,note_on,1,0,6,,,,,,,,1,,,64,72
42360,note_on,1,0,7,,,,,,,,2,,,79,72
42360,note_on,1,0,5,,,,,,,,0,,,73,72
42360,note_on,1,0,17,,,,,,,,11,,,79,72
42360,note_on,1,0,21,,,,,,,,15,,,73,72
42389,note_on,29,0,17,,,,,,,,11,,,79,0
42389,note_on,29,0,7,,,,,,,,2,,,79,0
42390,note_on,1,0,7,,,,,,,,2,,,81,72
42390,note_on,1,0,17,,,,,,,,11,,,81,72
42419,note_on,59,0,21,,,,,,,,15,,,52,0
42419,note_on,0,0,6,,,,,,,,1,,,52,0
42419,note_on,59,0,6,,,,,,,,1,,,64,0
42419,note_on,179,0,20,,,,,,,,14,,,52,0
42419,note_on,179,0,11,,,,,,,,6,,,40,0
42419,note_on,29,0,17,,,,,,,,11,,,81,0
42419,note_on,29,0,7,,,,,,,,2,,,81,0
42419,note_on,179,0,16,,,,,,,,10,,,52,0
42419,note_on,59,0,9,,,,,,,,4,,,64,0
42419,note_on,59,0,19,,,,,,,,13,,,64,0
42419,note_on,59,0,5,,,,,,,,0,,,79,0
42419,note_on,59,0,15,,,,,,,,10,,,64,0
42420,note_on,1,0,15,,,,,,,,10,,,64,72
42420,note_on,1,0,21,,,,,,,,15,,,50,72
42420,note_on,1,0,20,,,,,,,,14,,,50,72
42420,note_on,1,0,17,,,,,,,,11,,,77,72
42420,note_on,1,0,16,,,,,,,,10,,,50,72
42420,note_on,1,0,5,,,,,,,,0,,,77,72
42420,note_on,1,0,9,,,,,,,,4,,,64,72
42420,note_on,1,0,6,,,,,,,,1,,,64,72
42420,note_on,0,0,6,,,,,,,,1,,,50,72
42420,note_on,1,0,11,,,,,,,,6,,,38,72
42420,note_on,1,0,19,,,,,,,,13,,,64,72
42420,note_on,1,0,7,,,,,,,,2,,,77,72
42449,note_on,29,0,7,,,,,,,,2,,,77,0
42449,note_on,29,0,21,,,,,,,,15,,,50,0
42449,note_on,29,0,6,,,,,,,,1,,,50,0
42449,note_on,29,0,16,,,,,,,,10,,,50,0
42449,note_on,29,0,20,,,,,,,,14,,,50,0
42449,note_on,29,0,17,,,,,,,,11,,,77,0
42449,note_on,29,0,5,,,,,,,,0,,,77,0
42449,note_on,29,0,11,,,,,,,,6,,,38,0
42450,note_on,1,0,17,,,,,,,,11,,,79,72
42450,note_on,1,0,16,,,,,,,,10,,,52,72
42450,note_on,1,0,11,,,,,,,,6,,,40,72
42450,note_on,1,0,21,,,,,,,,15,,,52,72
42450,note_on,1,0,5,,,,,,,,0,,,76,72
42450,note_on,1,0,7,,,,,,,,2,,,79,72
42450,note_on,1,0,20,,,,,,,,14,,,52,72
42450,note_on,1,0,6,,,,,,,,1,,,52,72
42479,note_on,29,0,21,,,,,,,,15,,,52,0
42479,note_on,0,0,6,,,,,,,,1,,,64,0
42479,note_on,29,0,5,,,,,,,,0,,,76,0
42479,note_on,0,0,21,,,,,,,,15,,,73,0
42479,note_on,0,0,21,,,,,,,,15,,,67,0
42479,note_on,29,0,20,,,,,,,,14,,,52,0
42479,note_on,29,0,11,,,,,,,,6,,,40,0
42479,note_on,29,0,6,,,,,,,,1,,,52,0
42479,note_on,0,0,5,,,,,,,,0,,,73,0
42479,note_on,59,0,15,,,,,,,,10,,,64,0
42479,note_on,59,0,9,,,,,,,,4,,,64,0
42479,note_on,119,0,8,,,,,,,,3,,,73,0
42479,note_on,119,0,14,,,,,,,,10,,,73,0
42479,note_on,29,0,17,,,,,,,,11,,,79,0
42479,note_on,29,0,7,,,,,,,,2,,,79,0
42479,note_on,59,0,19,,,,,,,,13,,,64,0
42479,note_on,119,0,18,,,,,,,,12,,,73,0
42479,note_on,29,0,16,,,,,,,,10,,,52,0
42480,note_on,1,0,11,,,,,,,,6,,,41,72
42480,note_on,1,0,15,,,,,,,,10,,,62,72
42480,note_on,1,0,17,,,,,,,,11,,,81,72
42480,note_on,1,0,20,,,,,,,,14,,,53,72
42480,note_on,0,0,21,,,,,,,,15,,,65,72
42480,note_on,0,0,21,,,,,,,,15,,,69,72
42480,note_on,1,0,21,,,,,,,,15,,,53,72
42480,note_on,1,0,19,,,,,,,,13,,,62,72
42480,note_on,1,0,5,,,,,,,,0,,,74,72
42480,note_on,1,0,7,,,,,,,,2,,,81,72
42480,note_on,1,0,9,,,,,,,,4,,,62,72
42480,note_on,1,0,16,,,,,,,,10,,,53,72
42480,note_on,1,0,6,,,,,,,,1,,,62,72
42480,note_on,0,0,21,,,,,,,,15,,,62,72
42480,note_on,0,0,6,,,,,,,,1,,,53,72
42539,note_on,59,0,9,,,,,,,,4,,,62,0
42539,note_on,59,0,11,,,,,,,,6,,,41,0
42539,note_on,59,0,16,,,,,,,,10,,,53,0
42539,note_on,59,0,15,,,,,,,,10,,,62,0
42539,note_on,59,0,17,,,,,,,,11,,,81,0
42539,note_on,59,0,7,,,,,,,,2,,,81,0
42539,note_on,59,0,19,,,,,,,,13,,,62,0
42539,note_on,0,0,6,,,,,,,,1,,,62,0
42539,note_on,59,0,20,,,,,,,,14,,,53,0
42539,note_on,59,0,6,,,,,,,,1,,,53,0
42539,note_on,59,0,21,,,,,,,,15,,,53,0
42540,note_on,1,0,20,,,,,,,,14,,,52,72
42540,note_on,1,0,6,,,,,,,,1,,,61,72
42540,note_on,0,0,6,,,,,,,,1,,,52,72
42540,note_on,1,0,17,,,,,,,,11,,,82,72
42540,note_on,1,0,15,,,,,,,,10,,,61,72
42540,note_on,1,0,21,,,,,,,,15,,,52,72
42540,note_on,1,0,7,,,,,,,,2,,,82,72
42540,note_on,1,0,9,,,,,,,,4,,,61,72
42540,note_on,1,0,11,,,,,,,,6,,,40,72
42540,note_on,1,0,16,,,,,,,,10,,,52,72
42540,note_on,1,0,19,,,,,,,,13,,,61,72
42569,note_on,29,0,11,,,,,,,,6,,,40,0
42569,note_on,29,0,17,,,,,,,,11,,,82,0
42569,note_on,29,0,19,,,,,,,,13,,,61,0
42569,note_on,29,0,9,,,,,,,,4,,,61,0
42569,note_on,29,0,7,,,,,,,,2,,,82,0
42569,note_on,29,0,21,,,,,,,,15,,,52,0
42569,note_on,29,0,16,,,,,,,,10,,,52,0
42569,note_on,29,0,15,,,,,,,,10,,,61,0
42569,note_on,29,0,20,,,,,,,,14,,,52,0
42569,note_on,0,0,6,,,,,,,,1,,,61,0
42569,note_on,29,0,6,,,,,,,,1,,,52,0
42570,note_on,1,0,6,,,,,,,,1,,,62,72
42570,note_on,1,0,7,,,,,,,,2,,,81,72
42570,note_on,1,0,9,,,,,,,,4,,,62,72
42570,note_on,1,0,11,,,,,,,,6,,,41,72
42570,note_on,1,0,20,,,,,,,,14,,,53,72
42570,note_on,1,0,21,,,,,,,,15,,,53,72
42570,note_on,1,0,15,,,,,,,,10,,,62,72
42570,note_on,0,0,6,,,,,,,,1,,,53,72
42570,note_on,1,0,19,,,,,,,,13,,,62,72
42570,note_on,1,0,16,,,,,,,,10,,,53,72
42570,note_on,1,0,17,,,,,,,,11,,,81,72
42599,note_on,29,0,11,,,,,,,,6,,,41,0
42599,note_on,29,0,20,,,,,,,,14,,,53,0
42599,note_on,29,0,17,,,,,,,,11,,,81,0
42599,note_on,29,0,16,,,,,,,,10,,,53,0
42599,note_on,29,0,21,,,,,,,,15,,,53,0
42599,note_on,29,0,9,,,,,,,,4,,,62,0
42599,note_on,29,0,15,,,,,,,,10,,,62,0
42599,note_on,0,0,6,,,,,,,,1,,,62,0
42599,note_on,29,0,6,,,,,,,,1,,,53,0
42599,note_on,29,0,19,,,,,,,,13,,,62,0
42599,note_on,29,0,7,,,,,,,,2,,,81,0
42599,note_on,119,0,5,,,,,,,,0,,,74,0
42599,note_on,0,0,21,,,,,,,,15,,,69,0
42599,note_on,0,0,21,,,,,,,,15,,,62,0
42599,note_on,0,0,21,,,,,,,,15,,,65,0
42600,note_on,1,0,9,,,,,,,,4,,,64,72
42600,note_on,1,0,19,,,,,,,,13,,,64,72
42600,note_on,1,0,7,,,,,,,,2,,,79,72
42600,note_on,1,0,11,,,,,,,,6,,,43,72
42600,note_on,1,0,5,,,,,,,,0,,,79,72
42600,note_on,1,0,17,,,,,,,,11,,,79,72
42600,note_on,0,0,6,,,,,,,,1,,,55,72
42600,note_on,1,0,6,,,,,,,,1,,,64,72
42600,note_on,1,0,20,,,,,,,,14,,,55,72
42600,note_on,0,0,21,,,,,,,,15,,,70,72
42600,note_on,0,0,21,,,,,,,,15,,,67,72
42600,note_on,1,0,16,,,,,,,,10,,,55,72
42600,note_on,0,0,21,,,,,,,,15,,,64,72
42600,note_on,1,0,21,,,,,,,,15,,,55,72
42600,note_on,1,0,15,,,,,,,,10,,,64,72
42629,note_on,29,0,6,,,,,,,,1,,,64,0
42629,note_on,29,0,17,,,,,,,,11,,,79,0
42629,note_on,29,0,7,,,,,,,,2,,,79,0
42629,note_on,29,0,9,,,,,,,,4,,,64,0
42629,note_on,29,0,5,,,,,,,,0,,,79,0
42629,note_on,29,0,19,,,,,,,,13,,,64,0
42629,note_on,29,0,15,,,,,,,,10,,,64,0
42630,note_on,1,0,15,,,,,,,,10,,,65,72
42630,note_on,1,0,5,,,,,,,,0,,,77,72
42630,note_on,1,0,7,,,,,,,,2,,,77,72
42630,note_on,1,0,6,,,,,,,,1,,,65,72
42630,note_on,1,0,17,,,,,,,,11,,,77,72
42630,note_on,1,0,9,,,,,,,,4,,,65,72
42630,note_on,1,0,19,,,,,,,,13,,,65,72
42659,note_on,29,0,9,,,,,,,,4,,,65,0
42659,note_on,29,0,5,,,,,,,,0,,,77,0
42659,note_on,29,0,17,,,,,,,,11,,,77,0
42659,note_on,59,0,21,,,,,,,,15,,,55,0
42659,note_on,29,0,7,,,,,,,,2,,,77,0
42659,note_on,29,0,15,,,,,,,,10,,,65,0
42659,note_on,59,0,20,,,,,,,,14,,,55,0
42659,note_on,29,0,19,,,,,,,,13,,,65,0
42659,note_on,29,0,6,,,,,,,,1,,,65,0
42659,note_on,0,0,6,,,,,,,,1,,,55,0
42659,note_on,59,0,11,,,,,,,,6,,,43,0
42659,note_on,59,0,16,,,,,,,,10,,,55,0
42660,note_on,1,0,5,,,,,,,,0,,,76,72
42660,note_on,1,0,6,,,,,,,,1,,,67,72
42660,note_on,1,0,21,,,,,,,,15,,,53,72
42660,note_on,1,0,16,,,,,,,,10,,,53,72
42660,note_on,1,0,20,,,,,,,,14,,,53,72
42660,note_on,1,0,15,,,,,,,,10,,,67,72
42660,note_on,1,0,11,,,,,,,,6,,,41,72
42660,note_on,1,0,17,,,,,,,,11,,,76,72
42660,note_on,0,0,6,,,,,,,,1,,,53,72
42660,note_on,1,0,19,,,,,,,,13,,,67,72
42660,note_on,1,0,9,,,,,,,,4,,,67,72
42660,note_on,1,0,7,,,,,,,,2,,,76,72
42689,note_on,29,0,21,,,,,,,,15,,,53,0
42689,note_on,29,0,7,,,,,,,,2,,,76,0
42689,note_on,29,0,16,,,,,,,,10,,,53,0
42689,note_on,29,0,19,,,,,,,,13,,,67,0
42689,note_on,29,0,15,,,,,,,,10,,,67,0
42689,note_on,0,0,6,,,,,,,,1,,,67,0
42689,note_on,29,0,6,,,,,,,,1,,,53,0
42689,note_on,29,0,11,,,,,,,,6,,,41,0
42689,note_on,29,0,9,,,,,,,,4,,,67,0
42689,note_on,29,0,20,,,,,,,,14,,,53,0
42689,note_on,29,0,5,,,,,,,,0,,,76,0
42689,note_on,29,0,17,,,,,,,,11,,,76,0
42690,note_on,1,0,17,,,,,,,,11,,,74,72
42690,note_on,1,0,9,,,,,,,,4,,,65,72
42690,note_on,1,0,16,,,,,,,,10,,,55,72
42690,note_on,1,0,20,,,,,,,,14,,,55,72
42690,note_on,1,0,5,,,,,,,,0,,,74,72
42690,note_on,0,0,6,,,,,,,,1,,,55,72
42690,note_on,1,0,6,,,,,,,,1,,,65,72
42690,note_on,1,0,11,,,,,,,,6,,,43,72
42690,note_on,1,0,19,,,,,,,,13,,,65,72
42690,note_on,1,0,7,,,,,,,,2,,,74,72
42690,note_on,1,0,21,,,,,,,,15,,,55,72
42690,note_on,1,0,15,,,,,,,,10,,,65,72
42719,note_on,29,0,16,,,,,,,,10,,,55,0
42719,note_on,29,0,19,,,,,,,,13,,,65,0
42719,note_on,29,0,20,,,,,,,,14,,,55,0
42719,note_on,29,0,15,,,,,,,,10,,,65,0
42719,note_on,29,0,21,,,,,,,,15,,,55,0
42719,note_on,0,0,21,,,,,,,,15,,,70,0
42719,note_on,29,0,9,,,,,,,,4,,,65,0
42719,note_on,0,0,21,,,,,,,,15,,,67,0
42719,note_on,29,0,7,,,,,,,,2,,,74,0
42719,note_on,0,0,6,,,,,,,,1,,,65,0
42719,note_on,29,0,6,,,,,,,,1,,,55,0
42719,note_on,29,0,11,,,,,,,,6,,,43,0
42719,note_on,29,0,5,,,,,,,,0,,,74,0
42719,note_on,29,0,17,,,,,,,,11,,,74,0
42719,note_on,0,0,21,,,,,,,,15,,,64,0
42720,note_on,1,0,19,,,,,,,,13,,,64,72
42720,note_on,1,0,21,,,,,,,,15,,,57,72
42720,note_on,0,0,21,,,,,,,,15,,,73,72
42720,note_on,0,0,21,,,,,,,,15,,,64,72
42720,note_on,1,0,20,,,,,,,,14,,,57,72
42720,note_on,1,0,16,,,,,,,,10,,,57,72
42720,note_on,1,0,9,,,,,,,,4,,,64,72
42720,note_on,1,0,5,,,,,,,,0,,,73,72
42720,note_on,1,0,15,,,,,,,,10,,,64,72
42720,note_on,1,0,11,,,,,,,,6,,,45,72
42720,note_on,0,0,6,,,,,,,,1,,,57,72
42720,note_on,1,0,17,,,,,,,,11,,,73,72
42720,note_on,1,0,6,,,,,,,,1,,,64,72
42720,note_on,1,0,7,,,,,,,,2,,,73,72
42779,note_on,59,0,11,,,,,,,,6,,,45,0
42779,note_on,59,0,20,,,,,,,,14,,,57,0
42779,note_on,59,0,6,,,,,,,,1,,,57,0
42779,note_on,0,0,21,,,,,,,,15,,,57,0
42779,note_on,0,0,21,,,,,,,,15,,,73,0
42779,note_on,59,0,21,,,,,,,,15,,,64,0
42779,note_on,59,0,16,,,,,,,,10,,,57,0
42779,note_on,59,0,15,,,,,,,,10,,,64,0
42779,note_on,0,0,6,,,,,,,,1,,,64,0
42779,note_on,59,0,7,,,,,,,,2,,,73,0
42779,note_on,59,0,5,,,,,,,,0,,,73,0
42779,note_on,59,0,19,,,,,,,,13,,,64,0
42779,note_on,59,0,17,,,,,,,,11,,,73,0
42779,note_on,59,0,9,,,,,,,,4,,,64,0
42780,note_on,1,0,19,,,,,,,,13,,,62,72
42780,note_on,1,0,6,,,,,,,,1,,,62,72
42780,note_on,1,0,7,,,,,,,,2,,,74,72
42780,note_on,0,0,6,,,,,,,,1,,,58,72
42780,note_on,1,0,20,,,,,,,,14,,,58,72
42780,note_on,1,0,16,,,,,,,,10,,,58,72
42780,note_on,0,0,21,,,,,,,,15,,,62,72
42780,note_on,1,0,21,,,,,,,,15,,,58,72
42780,note_on,0,0,21,,,,,,,,15,,,65,72
42780,note_on,1,0,17,,,,,,,,11,,,74,72
42780,note_on,1,0,15,,,,,,,,10,,,62,72
42780,note_on,1,0,5,,,,,,,,0,,,74,72
42780,note_on,1,0,11,,,,,,,,6,,,46,72
42780,note_on,1,0,9,,,,,,,,4,,,62,72
42809,note_on,29,0,11,,,,,,,,6,,,46,0
42809,note_on,29,0,6,,,,,,,,1,,,58,0
42809,note_on,29,0,16,,,,,,,,10,,,58,0
42809,note_on,29,0,20,,,,,,,,14,,,58,0
42809,note_on,29,0,21,,,,,,,,15,,,58,0
42810,note_on,1,0,21,,,,,,,,15,,,57,72
42810,note_on,1,0,6,,,,,,,,1,,,57,72
42810,note_on,1,0,20,,,,,,,,14,,,57,72
42810,note_on,1,0,16,,,,,,,,10,,,57,72
42810,note_on,1,0,11,,,,,,,,6,,,45,72
42839,note_on,29,0,6,,,,,,,,1,,,57,0
42839,note_on,59,0,17,,,,,,,,11,,,74,0
42839,note_on,29,0,16,,,,,,,,10,,,57,0
42839,note_on,0,0,6,,,,,,,,1,,,62,0
42839,note_on,0,0,21,,,,,,,,15,,,65,0
42839,note_on,0,0,21,,,,,,,,15,,,62,0
42839,note_on,59,0,15,,,,,,,,10,,,62,0
42839,note_on,29,0,21,,,,,,,,15,,,57,0
42839,note_on,59,0,7,,,,,,,,2,,,74,0
42839,note_on,29,0,20,,,,,,,,14,,,57,0
42839,note_on,59,0,9,,,,,,,,4,,,62,0
42839,note_on,59,0,5,,,,,,,,0,,,74,0
42839,note_on,29,0,11,,,,,,,,6,,,45,0
42839,note_on,59,0,19,,,,,,,,13,,,62,0
42840,note_on,0,0,21,,,,,,,,15,,,70,72
42840,note_on,1,0,21,,,,,,,,15,,,55,72
42840,note_on,0,0,21,,,,,,,,15,,,76,72
42840,note_on,1,0,9,,,,,,,,4,,,61,72
42840,note_on,1,0,5,,,,,,,,0,,,76,72
42840,note_on,0,0,21,,,,,,,,15,,,61,72
42840,note_on,1,0,16,,,,,,,,10,,,55,72
42840,note_on,0,0,5,,,,,,,,0,,,70,72
42840,note_on,361,0,8,,,,,,,,3,,,70,72
42840,note_on,361,0,14,,,,,,,,10,,,70,72
42840,note_on,1,0,7,,,,,,,,2,,,76,72
42840,note_on,361,0,18,,,,,,,,12,,,70,72
42840,note_on,1,0,6,,,,,,,,1,,,55,72
42840,note_on,1,0,17,,,,,,,,11,,,76,72
42840,note_on,1,0,15,,,,,,,,10,,,61,72
42840,note_on,0,0,6,,,,,,,,1,,,61,72
42840,note_on,1,0,11,,,,,,,,6,,,43,72
42840,note_on,1,0,19,,,,,,,,13,,,61,72
42840,note_on,1,0,20,,,,,,,,14,,,55,72
42869,note_on,29,0,6,,,,,,,,1,,,55,0
42869,note_on,29,0,20,,,,,,,,14,,,55,0
42869,note_on,29,0,21,,,,,,,,15,,,55,0
42869,note_on,29,0,11,,,,,,,,6,,,43,0
42869,note_on,29,0,16,,,,,,,,10,,,55,0
42870,note_on,1,0,16,,,,,,,,10,,,53,72
42870,note_on,1,0,6,,,,,,,,1,,,53,72
42870,note_on,1,0,21,,,,,,,,15,,,53,72
42870,note_on,1,0,11,,,,,,,,6,,,41,72
42870,note_on,1,0,20,,,,,,,,14,,,53,72
42899,note_on,29,0,11,,,,,,,,6,,,41,0
42899,note_on,29,0,20,,,,,,,,14,,,53,0
42899,note_on,29,0,6,,,,,,,,1,,,53,0
42899,note_on,29,0,21,,,,,,,,15,,,53,0
42899,note_on,29,0,16,,,,,,,,10,,,53,0
42900,note_on,1,0,11,,,,,,,,6,,,40,72
42900,note_on,1,0,20,,,,,,,,14,,,52,72
42900,note_on,1,0,21,,,,,,,,15,,,52,72
42900,note_on,1,0,16,,,,,,,,10,,,52,72
42900,note_on,1,0,6,,,,,,,,1,,,52,72
42929,note_on,29,0,11,,,,,,,,6,,,40,0
42929,note_on,89,0,15,,,,,,,,10,,,61,0
42929,note_on,29,0,20,,,,,,,,14,,,52,0
42929,note_on,0,0,6,,,,,,,,1,,,61,0
42929,note_on,29,0,6,,,,,,,,1,,,52,0
42929,note_on,89,0,19,,,,,,,,13,,,61,0
42929,note_on,89,0,9,,,,,,,,4,,,61,0
42929,note_on,29,0,21,,,,,,,,15,,,52,0
42929,note_on,29,0,16,,,,,,,,10,,,52,0
42930,note_on,1,0,15,,,,,,,,10,,,62,72
42930,note_on,1,0,11,,,,,,,,6,,,38,72
42930,note_on,1,0,20,,,,,,,,14,,,50,72
42930,note_on,1,0,9,,,,,,,,4,,,62,72
42930,note_on,1,0,16,,,,,,,,10,,,50,72
42930,note_on,1,0,6,,,,,,,,1,,,50,72
42930,note_on,0,0,6,,,,,,,,1,,,62,72
42930,note_on,1,0,19,,,,,,,,13,,,62,72
42930,note_on,1,0,21,,,,,,,,15,,,50,72
42959,note_on,0,0,21,,,,,,,,15,,,70,0
42959,note_on,29,0,15,,,,,,,,10,,,62,0
42959,note_on,29,0,21,,,,,,,,15,,,50,0
42959,note_on,0,0,6,,,,,,,,1,,,50,0
42959,note_on,29,0,6,,,,,,,,1,,,62,0
42959,note_on,0,0,21,,,,,,,,15,,,76,0
42959,note_on,29,0,11,,,,,,,,6,,,38,0
42959,note_on,0,0,21,,,,,,,,15,,,61,0
42959,note_on,29,0,20,,,,,,,,14,,,50,0
42959,note_on,29,0,16,,,,,,,,10,,,50,0
42959,note_on,29,0,19,,,,,,,,13,,,62,0
42959,note_on,29,0,9,,,,,,,,4,,,62,0
42960,note_on,1,0,11,,,,,,,,6,,,37,72
42960,note_on,1,0,20,,,,,,,,14,,,49,72
42960,note_on,1,0,9,,,,,,,,4,,,64,72
42960,note_on,1,0,19,,,,,,,,13,,,64,72
42960,note_on,1,0,16,,,,,,,,10,,,49,72
42960,note_on,1,0,21,,,,,,,,15,,,49,72
42960,note_on,1,0,15,,,,,,,,10,,,64,72
42960,note_on,0,0,21,,,,,,,,15,,,76,72
42960,note_on,0,0,21,,,,,,,,15,,,67,72
42960,note_on,0,0,21,,,,,,,,15,,,70,72
42960,note_on,1,0,6,,,,,,,,1,,,64,72
42960,note_on,0,0,6,,,,,,,,1,,,49,72
43019,note_on,179,0,17,,,,,,,,11,,,76,0
43019,note_on,0,0,5,,,,,,,,0,,,76,0
43019,note_on,179,0,14,,,,,,,,10,,,70,0
43019,note_on,179,0,7,,,,,,,,2,,,76,0
43019,note_on,179,0,5,,,,,,,,0,,,70,0
43019,note_on,179,0,8,,,,,,,,3,,,70,0
43019,note_on,179,0,18,,,,,,,,12,,,70,0
43020,note_on,1,0,17,,,,,,,,11,,,79,72
43020,note_on,1,0,18,,,,,,,,12,,,70,72
43020,note_on,0,0,5,,,,,,,,0,,,70,72
43020,note_on,1141,0,13,,,,,,,,8,,,45,72
43020,note_on,1,0,14,,,,,,,,10,,,70,72
43020,note_on,1,0,8,,,,,,,,3,,,70,72
43020,note_on,0,0,12,,,,,,,,7,,,57,76
43020,note_on,1,0,5,,,,,,,,0,,,79,72
43020,note_on,1141,0,12,,,,,,,,7,,,69,76
43020,note_on,1,0,7,,,,,,,,2,,,79,72
43079,note_on,59,0,17,,,,,,,,11,,,79,0
43079,note_on,59,0,13,,,,,,,,8,,,45,0
43079,note_on,119,0,6,,,,,,,,1,,,49,0
43079,note_on,0,0,6,,,,,,,,1,,,64,0
43079,note_on,59,0,7,,,,,,,,2,,,79,0
43079,note_on,0,0,21,,,,,,,,15,,,49,0
43079,note_on,119,0,21,,,,,,,,15,,,70,0
43079,note_on,119,0,20,,,,,,,,14,,,49,0
43079,note_on,0,0,5,,,,,,,,0,,,79,0
43079,note_on,59,0,14,,,,,,,,10,,,70,0
43079,note_on,59,0,5,,,,,,,,0,,,70,0
43079,note_on,119,0,9,,,,,,,,4,,,64,0
43079,note_on,59,0,8,,,,,,,,3,,,70,0
43079,note_on,119,0,15,,,,,,,,10,,,64,0
43079,note_on,59,0,12,,,,,,,,7,,,57,0
43079,note_on,0,0,12,,,,,,,,7,,,69,0
43079,note_on,119,0,11,,,,,,,,6,,,37,0
43079,note_on,59,0,18,,,,,,,,12,,,70,0
43079,note_on,119,0,19,,,,,,,,13,,,64,0
43079,note_on,119,0,16,,,,,,,,10,,,49,0
43079,note_on,0,0,21,,,,,,,,15,,,67,0
43079,note_on,0,0,21,,,,,,,,15,,,76,0
43080,note_on,1,0,18,,,,,,,,12,,,69,72
43080,note_on,1,0,8,,,,,,,,3,,,69,72
43080,note_on,1,0,20,,,,,,,,14,,,50,72
43080,note_on,1,0,14,,,,,,,,10,,,69,72
43080,note_on,1,0,5,,,,,,,,0,,,77,72
43080,note_on,0,0,5,,,,,,,,0,,,69,72
43080,note_on,1,0,13,,,,,,,,8,,,50,72
43080,note_on,1,0,11,,,,,,,,6,,,38,72
43080,note_on,1,0,17,,,,,,,,11,,,77,72
43080,note_on,1,0,7,,,,,,,,2,,,77,72
43080,note_on,0,0,6,,,,,,,,1,,,50,72
43080,note_on,0,0,21,,,,,,,,15,,,65,72
43080,note_on,1,0,6,,,,,,,,1,,,57,72
43080,note_on,1,0,12,,,,,,,,7,,,69,76
43080,note_on,1,0,9,,,,,,,,4,,,57,72
43080,note_on,0,0,12,,,,,,,,7,,,57,76
43080,note_on,0,0,21,,,,,,,,15,,,69,72
43080,note_on,1,0,15,,,,,,,,10,,,57,72
43080,note_on,0,0,21,,,,,,,,15,,,57,72
43080,note_on,1,0,16,,,,,,,,10,,,50,72
43080,note_on,1,0,21,,,,,,,,15,,,50,72
43080,note_on,1,0,19,,,,,,,,13,,,57,72
43139,note_on,59,0,20,,,,,,,,14,,,50,0
43139,note_on,59,0,16,,,,,,,,10,,,50,0
43139,note_on,59,0,11,,,,,,,,6,,,38,0
43139,note_on,0,0,12,,,,,,,,7,,,69,0
43139,note_on,59,0,8,,,,,,,,3,,,69,0
43139,note_on,59,0,12,,,,,,,,7,,,57,0
43139,note_on,59,0,9,,,,,,,,4,,,57,0
43139,note_on,59,0,17,,,,,,,,11,,,77,0
43139,note_on,0,0,21,,,,,,,,15,,,57,0
43139,note_on,59,0,18,,,,,,,,12,,,69,0
43139,note_on,59,0,7,,,,,,,,2,,,77,0
43139,note_on,0,0,6,,,,,,,,1,,,57,0
43139,note_on,59,0,14,,,,,,,,10,,,69,0
43139,note_on,59,0,6,,,,,,,,1,,,50,0
43139,note_on,59,0,5,,,,,,,,0,,,69,0
43139,note_on,0,0,21,,,,,,,,15,,,65,0
43139,note_on,59,0,13,,,,,,,,8,,,50,0
43139,note_on,59,0,15,,,,,,,,10,,,57,0
43139,note_on,0,0,5,,,,,,,,0,,,77,0
43139,note_on,59,0,19,,,,,,,,13,,,57,0
43139,note_on,59,0,21,,,,,,,,15,,,69,0
43139,note_on,0,0,21,,,,,,,,15,,,50,0
43140,note_on,0,0,12,,,,,,,,7,,,57,76
43140,note_on,1,0,12,,,,,,,,7,,,69,76
43140,note_on,1,0,18,,,,,,,,12,,,69,72
43140,note_on,1,0,6,,,,,,,,1,,,61,72
43140,note_on,1,0,7,,,,,,,,2,,,76,72
43140,note_on,1,0,19,,,,,,,,13,,,60,72
43140,note_on,1,0,15,,,,,,,,10,,,60,72
43140,note_on,1,0,9,,,,,,,,4,,,61,72
43140,note_on,0,0,21,,,,,,,,15,,,61,72
43140,note_on,1,0,20,,,,,,,,14,,,57,72
43140,note_on,1,0,13,,,,,,,,8,,,45,72
43140,note_on,0,0,6,,,,,,,,1,,,57,72
43140,note_on,1,0,11,,,,,,,,6,,,45,72
43140,note_on,1,0,21,,,,,,,,15,,,57,72
43140,note_on,1,0,8,,,,,,,,3,,,69,72
43140,note_on,1,0,17,,,,,,,,11,,,76,72
43140,note_on,0,0,5,,,,,,,,0,,,69,72
43140,note_on,1,0,16,,,,,,,,10,,,57,72
43140,note_on,0,0,21,,,,,,,,15,,,76,72
43140,note_on,1,0,5,,,,,,,,0,,,76,72
43140,note_on,1,0,14,,,,,,,,10,,,69,72
43199,note_on,59,0,8,,,,,,,,3,,,69,0
43199,note_on,59,0,19,,,,,,,,13,,,60,0
43199,note_on,59,0,16,,,,,,,,10,,,57,0
43199,note_on,59,0,13,,,,,,,,8,,,45,0
43199,note_on,0,0,6,,,,,,,,1,,,61,0
43199,note_on,59,0,7,,,,,,,,2,,,76,0
43199,note_on,59,0,6,,,,,,,,1,,,57,0
43199,note_on,59,0,14,,,,,,,,10,,,69,0
43199,note_on,59,0,5,,,,,,,,0,,,69,0
43199,note_on,59,0,18,,,,,,,,12,,,69,0
43199,note_on,0,0,21,,,,,,,,15,,,57,0
43199,note_on,59,0,20,,,,,,,,14,,,57,0
43199,note_on,0,0,21,,,,,,,,15,,,61,0
43199,note_on,59,0,21,,,,,,,,15,,,76,0
43199,note_on,59,0,17,,,,,,,,11,,,76,0
43199,note_on,0,0,12,,,,,,,,7,,,69,0
43199,note_on,59,0,11,,,,,,,,6,,,45,0
43199,note_on,0,0,5,,,,,,,,0,,,76,0
43199,note_on,59,0,9,,,,,,,,4,,,61,0
43199,note_on,59,0,12,,,,,,,,7,,,57,0
43199,note_on,59,0,15,,,,,,,,10,,,60,0
43200,note_on,1,0,6,,,,,,,,1,,,62,72
43200,note_on,1,0,12,,,,,,,,7,,,74,76
43200,note_on,0,0,12,,,,,,,,7,,,62,76
43200,note_on,1,0,15,,,,,,,,10,,,62,72
43200,note_on,1,0,19,,,,,,,,13,,,62,72
43200,note_on,1,0,5,,,,,,,,0,,,74,72
43200,note_on,0,0,5,,,,,,,,0,,,69,72
43200,note_on,1,0,21,,,,,,,,15,,,58,72
43200,note_on,0,0,6,,,,,,,,1,,,58,72
43200,note_on,1,0,14,,,,,,,,10,,,69,72
43200,note_on,0,0,21,,,,,,,,15,,,74,72
43200,note_on,1,0,9,,,,,,,,4,,,62,72
43200,note_on,1,0,16,,,,,,,,10,,,58,72
43200,note_on,1,0,11,,,,,,,,6,,,46,72
43200,note_on,1,0,7,,,,,,,,2,,,74,72
43200,note_on,1,0,8,,,,,,,,3,,,69,72
43200,note_on,1,0,17,,,,,,,,11,,,74,72
43200,note_on,1,0,13,,,,,,,,8,,,50,72
43200,note_on,1,0,20,,,,,,,,14,,,58,72
43200,note_on,1,0,18,,,,,,,,12,,,69,72
43200,note_on,0,0,21,,,,,,,,15,,,69,72
43200,note_on,0,0,21,,,,,,,,15,,,65,72
43259,note_on,59,0,6,,,,,,,,1,,,62,0
43259,note_on,59,0,19,,,,,,,,13,,,62,0
43259,note_on,59,0,15,,,,,,,,10,,,62,0
43259,note_on,59,0,9,,,,,,,,4,,,62,0
43259,note_on,59,0,13,,,,,,,,8,,,50,0
43260,note_on,1,0,9,,,,,,,,4,,,65,72
43260,note_on,1,0,19,,,,,,,,13,,,65,72
43260,note_on,1,0,13,,,,,,,,8,,,50,72
43260,note_on,1,0,15,,,,,,,,10,,,65,72
43260,note_on,1,0,6,,,,,,,,1,,,65,72
43289,note_on,29,0,13,,,,,,,,8,,,50,0
43290,note_on,1,0,13,,,,,,,,8,,,50,72
43319,note_on,59,0,6,,,,,,,,1,,,65,0
43319,note_on,119,0,18,,,,,,,,12,,,69,0
43319,note_on,119,0,5,,,,,,,,0,,,69,0
43319,note_on,59,0,15,,,,,,,,10,,,65,0
43319,note_on,119,0,21,,,,,,,,15,,,69,0
43319,note_on,0,0,21,,,,,,,,15,,,65,0
43319,note_on,0,0,21,,,,,,,,15,,,58,0
43319,note_on,59,0,9,,,,,,,,4,,,65,0
43319,note_on,119,0,14,,,,,,,,10,,,69,0
43319,note_on,59,0,19,,,,,,,,13,,,65,0
43319,note_on,119,0,8,,,,,,,,3,,,69,0
43319,note_on,119,0,11,,,,,,,,6,,,46,0
43319,note_on,29,0,13,,,,,,,,8,,,50,0
43320,note_on,1,0,5,,,,,,,,0,,,68,72
43320,note_on,1,0,9,,,,,,,,4,,,64,72
43320,note_on,1,0,21,,,,,,,,15,,,46,72
43320,note_on,0,0,21,,,,,,,,15,,,68,72
43320,note_on,0,0,21,,,,,,,,15,,,64,72
43320,note_on,1,0,15,,,,,,,,10,,,64,72
43320,note_on,1,0,11,,,,,,,,6,,,34,72
43320,note_on,1,0,14,,,,,,,,10,,,68,72
43320,note_on,1,0,8,,,,,,,,3,,,68,72
43320,note_on,1,0,13,,,,,,,,8,,,50,72
43320,note_on,1,0,18,,,,,,,,12,,,68,72
43320,note_on,1,0,6,,,,,,,,1,,,64,72
43320,note_on,1,0,19,,,,,,,,13,,,64,72
43379,note_on,59,0,9,,,,,,,,4,,,64,0
43379,note_on,0,0,6,,,,,,,,1,,,58,0
43379,note_on,59,0,5,,,,,,,,0,,,74,0
43379,note_on,59,0,19,,,,,,,,13,,,64,0
43379,note_on,59,0,15,,,,,,,,10,,,64,0
43379,note_on,59,0,21,,,,,,,,15,,,64,0
43379,note_on,59,0,13,,,,,,,,8,,,50,0
43379,note_on,59,0,6,,,,,,,,1,,,64,0
43379,note_on,179,0,7,,,,,,,,2,,,74,0
43379,note_on,0,0,21,,,,,,,,15,,,74,0
43379,note_on,179,0,17,,,,,,,,11,,,74,0
43379,note_on,179,0,20,,,,,,,,14,,,58,0
43379,note_on,179,0,16,,,,,,,,10,,,58,0
43380,note_on,1,0,6,,,,,,,,1,,,62,72
43380,note_on,1,0,13,,,,,,,,8,,,50,72
43380,note_on,1,0,21,,,,,,,,15,,,74,72
43380,note_on,1,0,17,,,,,,,,11,,,74,72
43380,note_on,1,0,15,,,,,,,,10,,,62,72
43380,note_on,1,0,20,,,,,,,,14,,,58,72
43380,note_on,1,0,19,,,,,,,,13,,,62,72
43380,note_on,0,0,6,,,,,,,,1,,,58,72
43380,note_on,1,0,7,,,,,,,,2,,,74,72
43380,note_on,1,0,5,,,,,,,,0,,,74,72
43380,note_on,1,0,9,,,,,,,,4,,,62,72
43380,note_on,1,0,16,,,,,,,,10,,,58,72
43439,note_on,119,0,8,,,,,,,,3,,,68,0
43439,note_on,59,0,19,,,,,,,,13,,,62,0
43439,note_on,0,0,21,,,,,,,,15,,,68,0
43439,note_on,59,0,21,,,,,,,,15,,,74,0
43439,note_on,59,0,20,,,,,,,,14,,,58,0
43439,note_on,119,0,11,,,,,,,,6,,,34,0
43439,note_on,0,0,21,,,,,,,,15,,,46,0
43439,note_on,59,0,9,,,,,,,,4,,,62,0
43439,note_on,119,0,18,,,,,,,,12,,,68,0
43439,note_on,59,0,13,,,,,,,,8,,,50,0
43439,note_on,59,0,6,,,,,,,,1,,,58,0
43439,note_on,59,0,16,,,,,,,,10,,,58,0
43439,note_on,0,0,6,,,,,,,,1,,,62,0
43439,note_on,0,0,12,,,,,,,,7,,,74,0
43439,note_on,239,0,12,,,,,,,,7,,,62,0
43439,note_on,59,0,17,,,,,,,,11,,,74,0
43439,note_on,119,0,14,,,,,,,,10,,,68,0
43439,note_on,59,0,7,,,,,,,,2,,,74,0
43439,note_on,0,0,5,,,,,,,,0,,,68,0
43439,note_on,59,0,5,,,,,,,,0,,,74,0
43439,note_on,59,0,15,,,,,,,,10,,,62,0
43440,note_on,1,0,21,,,,,,,,15,,,45,72
43440,note_on,1,0,15,,,,,,,,10,,,64,72
43440,note_on,0,0,5,,,,,,,,0,,,69,72
43440,note_on,1,0,8,,,,,,,,3,,,69,72
43440,note_on,1,0,7,,,,,,,,2,,,73,72
43440,note_on,1,0,5,,,,,,,,0,,,73,72
43440,note_on,1,0,12,,,,,,,,7,,,69,76
43440,note_on,0,0,12,,,,,,,,7,,,57,76
43440,note_on,1,0,18,,,,,,,,12,,,69,72
43440,note_on,1,0,13,,,,,,,,8,,,45,72
43440,note_on,0,0,21,,,,,,,,15,,,73,72
43440,note_on,0,0,21,,,,,,,,15,,,64,72
43440,note_on,0,0,21,,,,,,,,15,,,69,72
43440,note_on,1,0,20,,,,,,,,14,,,57,72
43440,note_on,1,0,14,,,,,,,,10,,,69,72
43440,note_on,1,0,17,,,,,,,,11,,,73,72
43440,note_on,1,0,19,,,,,,,,13,,,64,72
43440,note_on,1,0,9,,,,,,,,4,,,64,72
43440,note_on,1,0,6,,,,,,,,1,,,64,72
43440,note_on,1,0,16,,,,,,,,10,,,57,72
43440,note_on,0,0,6,,,,,,,,1,,,57,72
43440,note_on,1,0,11,,,,,,,,6,,,33,72
43499,note_on,0,0,5,,,,,,,,0,,,73,0
43499,note_on,59,0,5,,,,,,,,0,,,69,0
43499,note_on,59,0,11,,,,,,,,6,,,33,0
43499,note_on,59,0,7,,,,,,,,2,,,73,0
43499,note_on,59,0,6,,,,,,,,1,,,64,0
43499,note_on,59,0,15,,,,,,,,10,,,64,0
43499,note_on,59,0,18,,,,,,,,12,,,69,0
43499,note_on,59,0,14,,,,,,,,10,,,69,0
43499,note_on,59,0,8,,,,,,,,3,,,69,0
43499,note_on,59,0,19,,,,,,,,13,,,64,0
43499,note_on,59,0,21,,,,,,,,15,,,45,0
43499,note_on,59,0,9,,,,,,,,4,,,64,0
43499,note_on,59,0,17,,,,,,,,11,,,73,0
43500,note_on,1,0,5,,,,,,,,0,,,69,72
43500,note_on,1,0,17,,,,,,,,11,,,73,72
43500,note_on,1,0,6,,,,,,,,1,,,57,72
43500,note_on,0,0,5,,,,,,,,0,,,73,72
43500,note_on,1,0,15,,,,,,,,10,,,57,72
43500,note_on,1,0,9,,,,,,,,4,,,57,72
43500,note_on,1,0,21,,,,,,,,15,,,57,72
43500,note_on,1,0,8,,,,,,,,3,,,69,72
43500,note_on,1,0,14,,,,,,,,10,,,69,72
43500,note_on,1,0,19,,,,,,,,13,,,57,72
43500,note_on,1,0,18,,,,,,,,12,,,69,72
43500,note_on,2881,0,10,,,,,,,,5,,,57,72
43500,note_on,1,0,7,,,,,,,,2,,,73,72
43559,note_on,59,0,10,,,,,,,,5,,,57,0
43559,note_on,119,0,16,,,,,,,,10,,,57,0
43559,note_on,0,0,12,,,,,,,,7,,,69,0
43559,note_on,119,0,12,,,,,,,,7,,,57,0
43559,note_on,119,0,13,,,,,,,,8,,,45,0
43559,note_on,0,0,21,,,,,,,,15,,,69,0
43559,note_on,0,0,21,,,,,,,,15,,,64,0
43559,note_on,0,0,21,,,,,,,,15,,,73,0
43559,note_on,59,0,21,,,,,,,,15,,,57,0
43559,note_on,59,0,19,,,,,,,,13,,,57,0
43559,note_on,59,0,5,,,,,,,,0,,,73,0
43559,note_on,59,0,7,,,,,,,,2,,,73,0
43559,note_on,119,0,20,,,,,,,,14,,,57,0
43559,note_on,59,0,9,,,,,,,,4,,,57,0
43559,note_on,59,0,17,,,,,,,,11,,,73,0
43559,note_on,59,0,15,,,,,,,,10,,,57,0
43559,note_on,0,0,6,,,,,,,,1,,,57,0
43559,note_on,59,0,6,,,,,,,,1,,,57,0
43560,note_on,0,0,21,,,,,,,,15,,,69,72
43560,note_on,1,0,17,,,,,,,,11,,,74,72
43560,note_on,1,0,21,,,,,,,,15,,,59,72
43560,note_on,1,0,6,,,,,,,,1,,,59,72
43560,note_on,1,0,15,,,,,,,,10,,,59,72
43560,note_on,0,0,21,,,,,,,,15,,,65,72
43560,note_on,1,0,7,,,,,,,,2,,,74,72
43560,note_on,1,0,9,,,,,,,,4,,,59,72
43560,note_on,1,0,10,,,,,,,,5,,,59,72
43560,note_on,1,0,19,,,,,,,,13,,,59,72
43560,note_on,1,0,5,,,,,,,,0,,,74,72
43560,note_on,0,0,21,,,,,,,,15,,,74,72
43619,note_on,59,0,21,,,,,,,,15,,,69,0
43619,note_on,0,0,21,,,,,,,,15,,,59,0
43619,note_on,0,0,21,,,,,,,,15,,,74,0
43619,note_on,0,0,21,,,,,,,,15,,,65,0
43619,note_on,119,0,8,,,,,,,,3,,,69,0
43619,note_on,59,0,19,,,,,,,,13,,,59,0
43619,note_on,59,0,10,,,,,,,,5,,,59,0
43619,note_on,119,0,18,,,,,,,,12,,,69,0
43619,note_on,59,0,9,,,,,,,,4,,,59,0
43619,note_on,59,0,15,,,,,,,,10,,,59,0
43619,note_on,59,0,6,,,,,,,,1,,,59,0
43619,note_on,0,0,5,,,,,,,,0,,,69,0
43619,note_on,59,0,5,,,,,,,,0,,,74,0
43619,note_on,59,0,7,,,,,,,,2,,,74,0
43619,note_on,59,0,17,,,,,,,,11,,,74,0
43619,note_on,119,0,14,,,,,,,,10,,,69,0
43620,note_on,0,0,5,,,,,,,,0,,,69,72
43620,note_on,1,0,5,,,,,,,,0,,,76,72
43620,note_on,1,0,14,,,,,,,,10,,,69,72
43620,note_on,1,0,18,,,,,,,,12,,,69,72
43620,note_on,1,0,6,,,,,,,,1,,,61,72
43620,note_on,1,0,8,,,,,,,,3,,,69,72
43620,note_on,1,0,7,,,,,,,,2,,,76,72
43620,note_on,1,0,9,,,,,,,,4,,,61,72
43620,note_on,1,0,15,,,,,,,,10,,,61,72
43620,note_on,1,0,17,,,,,,,,11,,,76,72
43620,note_on,1,0,10,,,,,,,,5,,,61,72
43620,note_on,1,0,21,,,,,,,,15,,,61,72
43620,note_on,0,0,21,,,,,,,,15,,,76,72
43620,note_on,0,0,21,,,,,,,,15,,,69,72
43620,note_on,1,0,19,,,,,,,,13,,,61,72
43679,note_on,59,0,9,,,,,,,,4,,,61,0
43679,note_on,59,0,7,,,,,,,,2,,,76,0
43679,note_on,59,0,14,,,,,,,,10,,,69,0
43679,note_on,59,0,10,,,,,,,,5,,,61,0
43679,note_on,59,0,8,,,,,,,,3,,,69,0
43679,note_on,59,0,5,,,,,,,,0,,,69,0
43679,note_on,0,0,21,,,,,,,,15,,,61,0
43679,note_on,59,0,18,,,,,,,,12,,,69,0
43679,note_on,59,0,21,,,,,,,,15,,,69,0
43679,note_on,59,0,6,,,,,,,,1,,,61,0
43679,note_on,0,0,5,,,,,,,,0,,,76,0
43679,note_on,59,0,17,,,,,,,,11,,,76,0
43679,note_on,59,0,15,,,,,,,,10,,,61,0
43679,note_on,59,0,19,,,,,,,,13,,,61,0
43679,note_on,0,0,21,,,,,,,,15,,,76,0
43680,note_on,1,0,7,,,,,,,,2,,,69,72
43680,note_on,1,0,5,,,,,,,,0,,,69,72
43680,note_on,0,0,5,,,,,,,,0,,,65,72
43680,note_on,1,0,21,,,,,,,,15,,,62,72
43680,note_on,1,0,14,,,,,,,,10,,,65,72
43680,note_on,0,0,21,,,,,,,,15,,,69,72
43680,note_on,0,0,21,,,,,,,,15,,,65,72
43680,note_on,1,0,19,,,,,,,,13,,,62,72
43680,note_on,1,0,6,,,,,,,,1,,,62,72
43680,note_on,1,0,17,,,,,,,,11,,,69,72
43680,note_on,1,0,15,,,,,,,,10,,,62,72
43680,note_on,1,0,9,,,,,,,,4,,,62,72
43680,note_on,1,0,10,,,,,,,,5,,,62,72
43680,note_on,1,0,8,,,,,,,,3,,,65,72
43680,note_on,1,0,18,,,,,,,,12,,,65,72
43739,note_on,59,0,19,,,,,,,,13,,,62,0
43739,note_on,59,0,21,,,,,,,,15,,,62,0
43739,note_on,59,0,10,,,,,,,,5,,,62,0
43739,note_on,59,0,6,,,,,,,,1,,,62,0
43739,note_on,59,0,15,,,,,,,,10,,,62,0
43739,note_on,59,0,9,,,,,,,,4,,,62,0
43740,note_on,1,0,21,,,,,,,,15,,,50,72
43740,note_on,1,0,6,,,,,,,,1,,,50,72
43740,note_on,1,0,19,,,,,,,,13,,,50,72
43740,note_on,1,0,15,,,,,,,,10,,,50,72
43740,note_on,1,0,9,,,,,,,,4,,,50,72
43740,note_on,1,0,10,,,,,,,,5,,,50,72
43799,note_on,59,0,15,,,,,,,,10,,,50,0
43799,note_on,119,0,8,,,,,,,,3,,,65,0
43799,note_on,0,0,21,,,,,,,,15,,,65,0
43799,note_on,0,0,21,,,,,,,,15,,,69,0
43799,note_on,59,0,21,,,,,,,,15,,,50,0
43799,note_on,59,0,10,,,,,,,,5,,,50,0
43799,note_on,119,0,14,,,,,,,,10,,,65,0
43799,note_on,119,0,17,,,,,,,,11,,,69,0
43799,note_on,59,0,9,,,,,,,,4,,,50,0
43799,note_on,0,0,5,,,,,,,,0,,,69,0
43799,note_on,119,0,7,,,,,,,,2,,,69,0
43799,note_on,59,0,6,,,,,,,,1,,,50,0
43799,note_on,119,0,5,,,,,,,,0,,,65,0
43799,note_on,59,0,19,,,,,,,,13,,,50,0
43799,note_on,119,0,18,,,,,,,,12,,,65,0
43800,note_on,1,0,9,,,,,,,,4,,,55,72
43800,note_on,1,0,15,,,,,,,,10,,,55,72
43800,note_on,0,0,21,,,,,,,,15,,,62,72
43800,note_on,1,0,6,,,,,,,,1,,,55,72
43800,note_on,1,0,18,,,,,,,,12,,,70,72
43800,note_on,1,0,14,,,,,,,,10,,,70,72
43800,note_on,1,0,8,,,,,,,,3,,,70,72
43800,note_on,1,0,10,,,,,,,,5,,,55,72
43800,note_on,0,0,21,,,,,,,,15,,,70,72
43800,note_on,1,0,19,,,,,,,,13,,,55,72
43800,note_on,1,0,5,,,,,,,,0,,,70,72
43800,note_on,1,0,21,,,,,,,,15,,,55,72
43859,note_on,59,0,15,,,,,,,,10,,,55,0
43859,note_on,59,0,19,,,,,,,,13,,,55,0
43859,note_on,59,0,10,,,,,,,,5,,,55,0
43859,note_on,59,0,6,,,,,,,,1,,,55,0
43859,note_on,59,0,21,,,,,,,,15,,,55,0
43859,note_on,59,0,9,,,,,,,,4,,,55,0
43860,note_on,1,0,9,,,,,,,,4,,,52,72
43860,note_on,1,0,10,,,,,,,,5,,,52,72
43860,note_on,1,0,15,,,,,,,,10,,,52,72
43860,note_on,1,0,6,,,,,,,,1,,,52,72
43860,note_on,1,0,21,,,,,,,,15,,,52,72
43860,note_on,1,0,19,,,,,,,,13,,,52,72
43919,note_on,0,0,21,,,,,,,,15,,,62,0
43919,note_on,59,0,10,,,,,,,,5,,,52,0
43919,note_on,59,0,9,,,,,,,,4,,,52,0
43919,note_on,59,0,19,,,,,,,,13,,,52,0
43919,note_on,119,0,18,,,,,,,,12,,,70,0
43919,note_on,59,0,6,,,,,,,,1,,,52,0
43919,note_on,59,0,21,,,,,,,,15,,,52,0
43919,note_on,119,0,8,,,,,,,,3,,,70,0
43919,note_on,59,0,15,,,,,,,,10,,,52,0
43919,note_on,119,0,14,,,,,,,,10,,,70,0
43919,note_on,119,0,5,,,,,,,,0,,,70,0
43919,note_on,0,0,21,,,,,,,,15,,,70,0
43920,note_on,1,0,9,,,,,,,,4,,,57,72
43920,note_on,1,0,8,,,,,,,,3,,,61,72
43920,note_on,1,0,15,,,,,,,,10,,,57,72
43920,note_on,1,0,18,,,,,,,,12,,,61,72
43920,note_on,1,0,21,,,,,,,,15,,,57,72
43920,note_on,0,0,21,,,,,,,,15,,,61,72
43920,note_on,0,0,21,,,,,,,,15,,,64,72
43920,note_on,1,0,5,,,,,,,,0,,,61,72
43920,note_on,1,0,19,,,,,,,,13,,,57,72
43920,note_on,1,0,10,,,,,,,,5,,,57,72
43920,note_on,1,0,14,,,,,,,,10,,,61,72
43920,note_on,1,0,6,,,,,,,,1,,,57,72
43979,note_on,59,0,9,,,,,,,,4,,,57,0
43979,note_on,59,0,19,,,,,,,,13,,,57,0
43979,note_on,59,0,6,,,,,,,,1,,,57,0
43979,note_on,59,0,10,,,,,,,,5,,,57,0
43979,note_on,59,0,21,,,,,,,,15,,,57,0
43979,note_on,59,0,15,,,,,,,,10,,,57,0
43980,note_on,1,0,21,,,,,,,,15,,,70,72
43980,note_on,421,0,20,,,,,,,,14,,,45,72
43980,note_on,1,0,9,,,,,,,,4,,,58,72
43980,note_on,421,0,16,,,,,,,,10,,,45,72
43980,note_on,1,0,6,,,,,,,,1,,,58,72
43980,note_on,0,0,6,,,,,,,,1,,,45,72
43980,note_on,481,0,11,,,,,,,,6,,,33,72
43980,note_on,0,0,21,,,,,,,,15,,,45,72
43980,note_on,1,0,15,,,,,,,,10,,,58,72
43980,note_on,1,0,19,,,,,,,,13,,,58,72
44039,note_on,59,0,21,,,,,,,,15,,,45,0
44039,note_on,59,0,15,,,,,,,,10,,,58,0
44039,note_on,59,0,9,,,,,,,,4,,,58,0
44039,note_on,59,0,19,,,,,,,,13,,,58,0
44039,note_on,59,0,11,,,,,,,,6,,,33,0
44039,note_on,0,0,21,,,,,,,,15,,,70,0
44039,note_on,59,0,16,,,,,,,,10,,,45,0
44039,note_on,59,0,6,,,,,,,,1,,,45,0
44039,note_on,0,0,6,,,,,,,,1,,,58,0
44039,note_on,59,0,20,,,,,,,,14,,,45,0
44040,note_on,0,0,6,,,,,,,,1,,,45,72
44040,note_on,1,0,15,,,,,,,,10,,,57,72
44040,note_on,1,0,21,,,,,,,,15,,,69,72
44040,note_on,1,0,9,,,,,,,,4,,,57,72
44040,note_on,0,0,21,,,,,,,,15,,,45,72
44040,note_on,1,0,20,,,,,,,,14,,,45,72
44040,note_on,1,0,16,,,,,,,,10,,,45,72
44040,note_on,1,0,6,,,,,,,,1,,,57,72
44040,note_on,1,0,11,,,,,,,,6,,,33,72
44040,note_on,1,0,19,,,,,,,,13,,,57,72
44099,note_on,59,0,21,,,,,,,,15,,,45,0
44099,note_on,59,0,20,,,,,,,,14,,,45,0
44099,note_on,0,0,6,,,,,,,,1,,,57,0
44099,note_on,59,0,15,,,,,,,,10,,,57,0
44099,note_on,179,0,18,,,,,,,,12,,,61,0
44099,note_on,59,0,19,,,,,,,,13,,,57,0
44099,note_on,59,0,9,,,,,,,,4,,,57,0
44099,note_on,179,0,14,,,,,,,,10,,,61,0
44099,note_on,59,0,6,,,,,,,,1,,,45,0
44099,note_on,0,0,21,,,,,,,,15,,,69,0
44099,note_on,59,0,16,,,,,,,,10,,,45,0
44099,note_on,179,0,8,,,,,,,,3,,,61,0
44099,note_on,179,0,5,,,,,,,,0,,,61,0
44099,note_on,59,0,11,,,,,,,,6,,,33,0
44100,note_on,1,0,18,,,,,,,,12,,,61,72
44100,note_on,1,0,20,,,,,,,,14,,,45,72
44100,note_on,1,0,5,,,,,,,,0,,,61,72
44100,note_on,1,0,21,,,,,,,,15,,,45,72
44100,note_on,1,0,11,,,,,,,,6,,,33,72
44100,note_on,1,0,9,,,,,,,,4,,,55,72
44100,note_on,1,0,14,,,,,,,,10,,,61,72
44100,note_on,1,0,16,,,,,,,,10,,,45,72
44100,note_on,1,0,8,,,,,,,,3,,,61,72
44100,note_on,1,0,6,,,,,,,,1,,,55,72
44100,note_on,0,0,6,,,,,,,,1,,,45,72
44100,note_on,1,0,19,,,,,,,,13,,,55,72
44100,note_on,1,0,15,,,,,,,,10,,,55,72
44100,note_on,0,0,21,,,,,,,,15,,,67,72
44159,note_on,59,0,5,,,,,,,,0,,,61,0
44159,note_on,59,0,15,,,,,,,,10,,,55,0
44159,note_on,59,0,16,,,,,,,,10,,,45,0
44159,note_on,59,0,21,,,,,,,,15,,,67,0
44159,note_on,59,0,19,,,,,,,,13,,,55,0
44159,note_on,0,0,6,,,,,,,,1,,,55,0
44159,note_on,59,0,20,,,,,,,,14,,,45,0
44159,note_on,0,0,21,,,,,,,,15,,,45,0
44159,note_on,0,0,21,,,,,,,,15,,,64,0
44159,note_on,59,0,14,,,,,,,,10,,,61,0
44159,note_on,0,0,21,,,,,,,,15,,,61,0
44159,note_on,59,0,18,,,,,,,,12,,,61,0
44159,note_on,59,0,8,,,,,,,,3,,,61,0
44159,note_on,59,0,9,,,,,,,,4,,,55,0
44159,note_on,59,0,11,,,,,,,,6,,,33,0
44159,note_on,59,0,6,,,,,,,,1,,,45,0
44160,note_on,1,0,5,,,,,,,,0,,,62,72
44160,note_on,1,0,19,,,,,,,,13,,,53,72
44160,note_on,1,0,16,,,,,,,,10,,,46,72
44160,note_on,1,0,21,,,,,,,,15,,,46,72
44160,note_on,0,0,21,,,,,,,,15,,,62,72
44160,note_on,1,0,15,,,,,,,,10,,,53,72
44160,note_on,1,0,6,,,,,,,,1,,,53,72
44160,note_on,1,0,20,,,,,,,,14,,,46,72
44160,note_on,1,0,9,,,,,,,,4,,,53,72
44160,note_on,0,0,21,,,,,,,,15,,,53,72
44160,note_on,0,0,6,,,,,,,,1,,,46,72
44160,note_on,1,0,18,,,,,,,,12,,,62,72
44160,note_on,1,0,8,,,,,,,,3,,,62,72
44160,note_on,1,0,14,,,,,,,,10,,,62,72
44160,note_on,1,0,11,,,,,,,,6,,,34,72
44189,note_on,29,0,21,,,,,,,,15,,,46,0
44189,note_on,29,0,16,,,,,,,,10,,,46,0
44189,note_on,29,0,11,,,,,,,,6,,,34,0
44189,note_on,29,0,6,,,,,,,,1,,,46,0
44189,note_on,29,0,20,,,,,,,,14,,,46,0
44190,note_on,1,0,21,,,,,,,,15,,,48,72
44190,note_on,1,0,11,,,,,,,,6,,,36,72
44190,note_on,1,0,6,,,,,,,,1,,,48,72
44190,note_on,1,0,20,,,,,,,,14,,,48,72
44190,note_on,1,0,16,,,,,,,,10,,,48,72
44219,note_on,29,0,20,,,,,,,,14,,,48,0
44219,note_on,59,0,19,,,,,,,,13,,,53,0
44219,note_on,59,0,15,,,,,,,,10,,,53,0
44219,note_on,29,0,6,,,,,,,,1,,,48,0
44219,note_on,0,0,6,,,,,,,,1,,,53,0
44219,note_on,29,0,11,,,,,,,,6,,,36,0
44219,note_on,29,0,16,,,,,,,,10,,,48,0
44219,note_on,29,0,21,,,,,,,,15,,,48,0
44219,note_on,59,0,9,,,,,,,,4,,,53,0
44220,note_on,1,0,11,,,,,,,,6,,,34,72
44220,note_on,1,0,16,,,,,,,,10,,,46,72
44220,note_on,1,0,21,,,,,,,,15,,,46,72
44220,note_on,1,0,9,,,,,,,,4,,,50,72
44220,note_on,1,0,15,,,,,,,,10,,,50,72
44220,note_on,1,0,19,,,,,,,,13,,,50,72
44220,note_on,1,0,20,,,,,,,,14,,,46,72
44220,note_on,0,0,6,,,,,,,,1,,,46,72
44220,note_on,1,0,6,,,,,,,,1,,,50,72
44249,note_on,29,0,20,,,,,,,,14,,,46,0
44249,note_on,29,0,11,,,,,,,,6,,,34,0
44249,note_on,29,0,16,,,,,,,,10,,,46,0
44249,note_on,29,0,6,,,,,,,,1,,,46,0
44249,note_on,29,0,21,,,,,,,,15,,,46,0
44250,note_on,1,0,11,,,,,,,,6,,,33,72
44250,note_on,1,0,6,,,,,,,,1,,,45,72
44250,note_on,1,0,16,,,,,,,,10,,,45,72
44250,note_on,1,0,20,,,,,,,,14,,,45,72
44250,note_on,1,0,21,,,,,,,,15,,,45,72
44279,note_on,29,0,6,,,,,,,,1,,,45,0
44279,note_on,29,0,11,,,,,,,,6,,,33,0
44279,note_on,119,0,5,,,,,,,,0,,,62,0
44279,note_on,29,0,16,,,,,,,,10,,,45,0
44279,note_on,119,0,8,,,,,,,,3,,,62,0
44279,note_on,59,0,9,,,,,,,,4,,,50,0
44279,note_on,59,0,19,,,,,,,,13,,,50,0
44279,note_on,59,0,15,,,,,,,,10,,,50,0
44279,note_on,0,0,21,,,,,,,,15,,,62,0
44279,note_on,0,0,21,,,,,,,,15,,,53,0
44279,note_on,29,0,21,,,,,,,,15,,,45,0
44279,note_on,119,0,18,,,,,,,,12,,,62,0
44279,note_on,29,0,20,,,,,,,,14,,,45,0
44279,note_on,0,0,6,,,,,,,,1,,,50,0
44279,note_on,119,0,14,,,,,,,,10,,,62,0
44280,note_on,1,0,20,,,,,,,,14,,,47,72
44280,note_on,1,0,19,,,,,,,,13,,,55,72
44280,note_on,1,0,6,,,,,,,,1,,,55,72
44280,note_on,1,0,11,,,,,,,,6,,,35,72
44280,note_on,1,0,16,,,,,,,,10,,,47,72
44280,note_on,0,0,21,,,,,,,,15,,,62,72
44280,note_on,1,0,21,,,,,,,,15,,,47,72
44280,note_on,1,0,15,,,,,,,,10,,,55,72
44280,note_on,1,0,9,,,,,,,,4,,,55,72
44280,note_on,0,0,6,,,,,,,,1,,,47,72
44280,note_on,0,0,21,,,,,,,,15,,,55,72
44309,note_on,29,0,16,,,,,,,,10,,,47,0
44309,note_on,29,0,21,,,,,,,,15,,,47,0
44309,note_on,29,0,6,,,,,,,,1,,,47,0
44309,note_on,29,0,20,,,,,,,,14,,,47,0
44309,note_on,29,0,11,,,,,,,,6,,,35,0
44310,note_on,1,0,20,,,,,,,,14,,,48,72
44310,note_on,1,0,6,,,,,,,,1,,,48,72
44310,note_on,1,0,21,,,,,,,,15,,,48,72
44310,note_on,1,0,16,,,,,,,,10,,,48,72
44310,note_on,1,0,11,,,,,,,,6,,,36,72
44339,note_on,0,0,21,,,,,,,,15,,,62,0
44339,note_on,0,0,21,,,,,,,,15,,,55,0
44339,note_on,29,0,21,,,,,,,,15,,,48,0
44339,note_on,29,0,11,,,,,,,,6,,,36,0
44339,note_on,0,0,6,,,,,,,,1,,,55,0
44339,note_on,59,0,9,,,,,,,,4,,,55,0
44339,note_on,29,0,16,,,,,,,,10,,,48,0
44339,note_on,29,0,6,,,,,,,,1,,,48,0
44339,note_on,59,0,19,,,,,,,,13,,,55,0
44339,note_on,59,0,15,,,,,,,,10,,,55,0
44339,note_on,29,0,20,,,,,,,,14,,,48,0
44340,note_on,0,0,21,,,,,,,,15,,,62,72
44340,note_on,61,0,8,,,,,,,,3,,,62,72
44340,note_on,1,0,6,,,,,,,,1,,,53,72
44340,note_on,0,0,6,,,,,,,,1,,,45,72
44340,note_on,61,0,18,,,,,,,,12,,,62,72
44340,note_on,1,0,19,,,,,,,,13,,,53,72
44340,note_on,1,0,15,,,,,,,,10,,,53,72
44340,note_on,61,0,5,,,,,,,,0,,,62,72
44340,note_on,1,0,21,,,,,,,,15,,,45,72
44340,note_on,1,0,9,,,,,,,,4,,,53,72
44340,note_on,0,0,21,,,,,,,,15,,,53,72
44340,note_on,1,0,11,,,,,,,,6,,,33,72
44340,note_on,1,0,16,,,,,,,,10,,,45,72
44340,note_on,1,0,20,,,,,,,,14,,,45,72
44340,note_on,61,0,14,,,,,,,,10,,,62,72
44369,note_on,29,0,20,,,,,,,,14,,,45,0
44369,note_on,29,0,21,,,,,,,,15,,,45,0
44369,note_on,29,0,16,,,,,,,,10,,,45,0
44369,note_on,29,0,6,,,,,,,,1,,,45,0
44369,note_on,29,0,11,,,,,,,,6,,,33,0
44370,note_on,1,0,21,,,,,,,,15,,,47,72
44370,note_on,1,0,11,,,,,,,,6,,,35,72
44370,note_on,1,0,20,,,,,,,,14,,,47,72
44370,note_on,1,0,6,,,,,,,,1,,,47,72
44370,note_on,1,0,16,,,,,,,,10,,,47,72
44399,note_on,29,0,21,,,,,,,,15,,,47,0
44399,note_on,0,0,21,,,,,,,,15,,,53,0
44399,note_on,59,0,5,,,,,,,,0,,,62,0
44399,note_on,59,0,19,,,,,,,,13,,,53,0
44399,note_on,59,0,15,,,,,,,,10,,,53,0
44399,note_on,29,0,20,,,,,,,,14,,,47,0
44399,note_on,0,0,21,,,,,,,,15,,,62,0
44399,note_on,59,0,14,,,,,,,,10,,,62,0
44399,note_on,59,0,8,,,,,,,,3,,,62,0
44399,note_on,59,0,9,,,,,,,,4,,,53,0
44399,note_on,59,0,18,,,,,,,,12,,,62,0
44399,note_on,0,0,6,,,,,,,,1,,,53,0
44399,note_on,29,0,11,,,,,,,,6,,,35,0
44399,note_on,29,0,16,,,,,,,,10,,,47,0
44399,note_on,29,0,6,,,,,,,,1,,,47,0
44400,note_on,1,0,16,,,,,,,,10,,,48,72
44400,note_on,1,0,11,,,,,,,,6,,,36,72
44400,note_on,1,0,5,,,,,,,,0,,,64,72
44400,note_on,1,0,19,,,,,,,,13,,,52,72
44400,note_on,0,0,6,,,,,,,,1,,,48,72
44400,note_on,1,0,15,,,,,,,,10,,,52,72
44400,note_on,1,0,6,,,,,,,,1,,,52,72
44400,note_on,1,0,21,,,,,,,,15,,,48,72
44400,note_on,1,0,20,,,,,,,,14,,,48,72
44400,note_on,0,0,21,,,,,,,,15,,,67,72
44400,note_on,1,0,8,,,,,,,,3,,,64,72
44400,note_on,0,0,21,,,,,,,,15,,,64,72
44400,note_on,1,0,14,,,,,,,,10,,,64,72
44400,note_on,1,0,9,,,,,,,,4,,,52,72
44400,note_on,1,0,18,,,,,,,,12,,,64,72
44429,note_on,29,0,21,,,,,,,,15,,,48,0
44429,note_on,29,0,20,,,,,,,,14,,,48,0
44429,note_on,29,0,11,,,,,,,,6,,,36,0
44429,note_on,29,0,6,,,,,,,,1,,,48,0
44429,note_on,29,0,16,,,,,,,,10,,,48,0
44430,note_on,1,0,11,,,,,,,,6,,,38,72
44430,note_on,1,0,21,,,,,,,,15,,,50,72
44430,note_on,1,0,6,,,,,,,,1,,,50,72
44430,note_on,1,0,20,,,,,,,,14,,,50,72
44430,note_on,1,0,16,,,,,,,,10,,,50,72
44459,note_on,29,0,16,,,,,,,,10,,,50,0
44459,note_on,29,0,21,,,,,,,,15,,,50,0
44459,note_on,0,0,21,,,,,,,,15,,,67,0
44459,note_on,0,0,21,,,,,,,,15,,,64,0
44459,note_on,59,0,19,,,,,,,,13,,,52,0
44459,note_on,29,0,11,,,,,,,,6,,,38,0
44459,note_on,29,0,20,,,,,,,,14,,,50,0
44459,note_on,59,0,15,,,,,,,,10,,,52,0
44459,note_on,0,0,6,,,,,,,,1,,,52,0
44459,note_on,29,0,6,,,,,,,,1,,,50,0
44459,note_on,59,0,9,,,,,,,,4,,,52,0
44460,note_on,1,0,9,,,,,,,,4,,,48,72
44460,note_on,0,0,6,,,,,,,,1,,,48,72
44460,note_on,1,0,6,,,,,,,,1,,,48,72
44460,note_on,0,0,21,,,,,,,,15,,,69,72
44460,note_on,661,0,17,,,,,,,,11,,,69,72
44460,note_on,1,0,15,,,,,,,,10,,,48,72
44460,note_on,0,0,21,,,,,,,,15,,,64,72
44460,note_on,1,0,21,,,,,,,,15,,,48,72
44460,note_on,1,0,16,,,,,,,,10,,,48,72
44460,note_on,1,0,19,,,,,,,,13,,,48,72
44460,note_on,60,0,5,,,,,,,,0,,,69,72
44460,note_on,1,0,20,,,,,,,,14,,,48,72
44460,note_on,661,0,7,,,,,,,,2,,,69,72
44460,note_on,1,0,11,,,,,,,,6,,,36,72
44489,note_on,29,0,20,,,,,,,,14,,,48,0
44489,note_on,29,0,21,,,,,,,,15,,,48,0
44489,note_on,29,0,16,,,,,,,,10,,,48,0
44489,note_on,29,0,11,,,,,,,,6,,,36,0
44489,note_on,29,0,6,,,,,,,,1,,,48,0
44490,note_on,1,0,21,,,,,,,,15,,,47,72
44490,note_on,1,0,20,,,,,,,,14,,,47,72
44490,note_on,1,0,11,,,,,,,,6,,,35,72
44490,note_on,1,0,16,,,,,,,,10,,,47,72
44490,note_on,1,0,6,,,,,,,,1,,,47,72
44519,note_on,59,0,17,,,,,,,,11,,,69,0
44519,note_on,59,0,19,,,,,,,,13,,,48,0
44519,note_on,59,0,15,,,,,,,,10,,,48,0
44519,note_on,29,0,11,,,,,,,,6,,,35,0
44519,note_on,29,0,21,,,,,,,,15,,,47,0
44519,note_on,29,0,6,,,,,,,,1,,,47,0
44519,note_on,59,0,7,,,,,,,,2,,,69,0
44519,note_on,59,0,9,,,,,,,,4,,,48,0
44519,note_on,29,0,16,,,,,,,,10,,,47,0
44519,note_on,29,0,20,,,,,,,,14,,,47,0
44519,note_on,0,0,6,,,,,,,,1,,,48,0
44519,note_on,59,0,5,,,,,,,,0,,,69,0
44520,note_on,1,0,17,,,,,,,,11,,,69,72
44520,note_on,1,0,6,,,,,,,,1,,,57,72
44520,note_on,1,0,21,,,,,,,,15,,,49,72
44520,note_on,0,0,6,,,,,,,,1,,,49,72
44520,note_on,1,0,19,,,,,,,,13,,,57,72
44520,note_on,1,0,15,,,,,,,,10,,,57,72
44520,note_on,1,0,16,,,,,,,,10,,,49,72
44520,note_on,1,0,11,,,,,,,,6,,,37,72
44520,note_on,1,0,20,,,,,,,,14,,,49,72
44520,note_on,1,0,5,,,,,,,,0,,,69,72
44520,note_on,1,0,7,,,,,,,,2,,,69,72
44520,note_on,1,0,9,,,,,,,,4,,,57,72
44549,note_on,29,0,11,,,,,,,,6,,,37,0
44549,note_on,29,0,21,,,,,,,,15,,,49,0
44549,note_on,29,0,16,,,,,,,,10,,,49,0
44549,note_on,29,0,6,,,,,,,,1,,,49,0
44549,note_on,29,0,20,,,,,,,,14,,,49,0
44550,note_on,1,0,6,,,,,,,,1,,,50,72
44550,note_on,1,0,11,,,,,,,,6,,,38,72
44550,note_on,1,0,21,,,,,,,,15,,,50,72
44550,note_on,1,0,20,,,,,,,,14,,,50,72
44550,note_on,1,0,16,,,,,,,,10,,,50,72
44579,note_on,0,0,6,,,,,,,,1,,,57,0
44579,note_on,59,0,9,,,,,,,,4,,,57,0
44579,note_on,29,0,20,,,,,,,,14,,,50,0
44579,note_on,59,0,7,,,,,,,,2,,,69,0
44579,note_on,29,0,16,,,,,,,,10,,,50,0
44579,note_on,179,0,14,,,,,,,,10,,,64,0
44579,note_on,29,0,6,,,,,,,,1,,,50,0
44579,note_on,59,0,5,,,,,,,,0,,,69,0
44579,note_on,29,0,11,,,,,,,,6,,,38,0
44579,note_on,0,0,5,,,,,,,,0,,,64,0
44579,note_on,59,0,19,,,,,,,,13,,,57,0
44579,note_on,179,0,8,,,,,,,,3,,,64,0
44579,note_on,59,0,15,,,,,,,,10,,,57,0
44579,note_on,59,0,17,,,,,,,,11,,,69,0
44579,note_on,179,0,18,,,,,,,,12,,,64,0
44579,note_on,29,0,21,,,,,,,,15,,,50,0
44580,note_on,1,0,18,,,,,,,,12,,,62,72
44580,note_on,1,0,16,,,,,,,,10,,,47,72
44580,note_on,1,0,8,,,,,,,,3,,,62,72
44580,note_on,1,0,14,,,,,,,,10,,,62,72
44580,note_on,1,0,20,,,,,,,,14,,,47,72
44580,note_on,1,0,9,,,,,,,,4,,,57,72
44580,note_on,0,0,6,,,,,,,,1,,,47,72
44580,note_on,1,0,21,,,,,,,,15,,,47,72
44580,note_on,1,0,5,,,,,,,,0,,,69,72
44580,note_on,0,0,5,,,,,,,,0,,,62,72
44580,note_on,1,0,7,,,,,,,,2,,,69,72
44580,note_on,1,0,15,,,,,,,,10,,,57,72
44580,note_on,1,0,11,,,,,,,,6,,,35,72
44580,note_on,1,0,19,,,,,,,,13,,,57,72
44580,note_on,1,0,6,,,,,,,,1,,,57,72
44580,note_on,1,0,17,,,,,,,,11,,,69,72
44609,note_on,29,0,6,,,,,,,,1,,,47,0
44609,note_on,29,0,5,,,,,,,,0,,,62,0
44609,note_on,29,0,20,,,,,,,,14,,,47,0
44609,note_on,29,0,8,,,,,,,,3,,,62,0
44609,note_on,29,0,11,,,,,,,,6,,,35,0
44609,note_on,29,0,14,,,,,,,,10,,,62,0
44609,note_on,29,0,21,,,,,,,,15,,,47,0
44609,note_on,29,0,18,,,,,,,,12,,,62,0
44609,note_on,29,0,16,,,,,,,,10,,,47,0
44610,note_on,1,0,16,,,,,,,,10,,,49,72
44610,note_on,1,0,21,,,,,,,,15,,,49,72
44610,note_on,1,0,18,,,,,,,,12,,,64,72
44610,note_on,1,0,14,,,,,,,,10,,,64,72
44610,note_on,1,0,5,,,,,,,,0,,,64,72
44610,note_on,1,0,20,,,,,,,,14,,,49,72
44610,note_on,1,0,8,,,,,,,,3,,,64,72
44610,note_on,1,0,11,,,,,,,,6,,,37,72
44610,note_on,1,0,6,,,,,,,,1,,,49,72
44639,note_on,29,0,21,,,,,,,,15,,,49,0
44639,note_on,59,0,19,,,,,,,,13,,,57,0
44639,note_on,29,0,6,,,,,,,,1,,,49,0
44639,note_on,0,0,21,,,,,,,,15,,,69,0
44639,note_on,59,0,15,,,,,,,,10,,,57,0
44639,note_on,0,0,21,,,,,,,,15,,,64,0
44639,note_on,59,0,7,,,,,,,,2,,,69,0
44639,note_on,29,0,18,,,,,,,,12,,,64,0
44639,note_on,59,0,17,,,,,,,,11,,,69,0
44639,note_on,0,0,5,,,,,,,,0,,,69,0
44639,note_on,29,0,5,,,,,,,,0,,,64,0
44639,note_on,29,0,8,,,,,,,,3,,,64,0
44639,note_on,29,0,14,,,,,,,,10,,,64,0
44639,note_on,29,0,16,,,,,,,,10,,,49,0
44639,note_on,29,0,20,,,,,,,,14,,,49,0
44639,note_on,29,0,11,,,,,,,,6,,,37,0
44639,note_on,0,0,6,,,,,,,,1,,,57,0
44639,note_on,59,0,9,,,,,,,,4,,,57,0
44640,note_on,1,0,6,,,,,,,,1,,,53,72
44640,note_on,1,0,17,,,,,,,,11,,,70,72
44640,note_on,1,0,19,,,,,,,,13,,,53,72
44640,note_on,1,0,9,,,,,,,,4,,,53,72
44640,note_on,1,0,18,,,,,,,,12,,,65,72
44640,note_on,1,0,8,,,,,,,,3,,,65,72
44640,note_on,1,0,20,,,,,,,,14,,,50,72
44640,note_on,0,0,21,,,,,,,,15,,,53,72
44640,note_on,0,0,21,,,,,,,,15,,,70,72
44640,note_on,1,0,21,,,,,,,,15,,,50,72
44640,note_on,0,0,21,,,,,,,,15,,,65,72
44640,note_on,1,0,15,,,,,,,,10,,,53,72
44640,note_on,0,0,6,,,,,,,,1,,,50,72
44640,note_on,1,0,7,,,,,,,,2,,,70,72
44640,note_on,1,0,16,,,,,,,,10,,,50,72
44640,note_on,1,0,14,,,,,,,,10,,,65,72
44640,note_on,0,0,5,,,,,,,,0,,,70,72
44640,note_on,1,0,5,,,,,,,,0,,,65,72
44640,note_on,1,0,11,,,,,,,,6,,,38,72
44669,note_on,29,0,7,,,,,,,,2,,,70,0
44669,note_on,29,0,5,,,,,,,,0,,,70,0
44669,note_on,29,0,17,,,,,,,,11,,,70,0
44670,note_on,1,0,7,,,,,,,,2,,,72,72
44670,note_on,1,0,17,,,,,,,,11,,,72,72
44670,note_on,1,0,5,,,,,,,,0,,,72,72
44699,note_on,59,0,20,,,,,,,,14,,,50,0
44699,note_on,59,0,11,,,,,,,,6,,,38,0
44699,note_on,29,0,5,,,,,,,,0,,,72,0
44699,note_on,29,0,7,,,,,,,,2,,,72,0
44699,note_on,59,0,16,,,,,,,,10,,,50,0
44699,note_on,59,0,21,,,,,,,,15,,,50,0
44699,note_on,59,0,6,,,,,,,,1,,,50,0
44699,note_on,29,0,17,,,,,,,,11,,,72,0
44700,note_on,1,0,7,,,,,,,,2,,,70,72
44700,note_on,1,0,6,,,,,,,,1,,,50,72
44700,note_on,1,0,5,,,,,,,,0,,,70,72
44700,note_on,1,0,16,,,,,,,,10,,,50,72
44700,note_on,1,0,11,,,,,,,,6,,,38,72
44700,note_on,1,0,17,,,,,,,,11,,,70,72
44700,note_on,1,0,20,,,,,,,,14,,,50,72
44700,note_on,1,0,21,,,,,,,,15,,,50,72
44729,note_on,29,0,5,,,,,,,,0,,,70,0
44729,note_on,29,0,17,,,,,,,,11,,,70,0
44729,note_on,29,0,7,,,,,,,,2,,,70,0
44730,note_on,1,0,7,,,,,,,,2,,,69,72
44730,note_on,1,0,17,,,,,,,,11,,,69,72
44730,note_on,1,0,5,,,,,,,,0,,,69,72
44759,note_on,29,0,7,,,,,,,,2,,,69,0
44759,note_on,59,0,11,,,,,,,,6,,,38,0
44759,note_on,119,0,14,,,,,,,,10,,,65,0
44759,note_on,0,0,6,,,,,,,,1,,,53,0
44759,note_on,59,0,16,,,,,,,,10,,,50,0
44759,note_on,29,0,5,,,,,,,,0,,,69,0
44759,note_on,119,0,15,,,,,,,,10,,,53,0
44759,note_on,0,0,5,,,,,,,,0,,,65,0
44759,note_on,119,0,8,,,,,,,,3,,,65,0
44759,note_on,59,0,20,,,,,,,,14,,,50,0
44759,note_on,59,0,21,,,,,,,,15,,,50,0
44759,note_on,59,0,6,,,,,,,,1,,,50,0
44759,note_on,119,0,18,,,,,,,,12,,,65,0
44759,note_on,0,0,21,,,,,,,,15,,,65,0
44759,note_on,0,0,21,,,,,,,,15,,,53,0
44759,note_on,119,0,19,,,,,,,,13,,,53,0
44759,note_on,119,0,9,,,,,,,,4,,,53,0
44759,note_on,0,0,21,,,,,,,,15,,,70,0
44759,note_on,29,0,17,,,,,,,,11,,,69,0
44760,note_on,1,0,21,,,,,,,,15,,,55,72
44760,note_on,0,0,21,,,,,,,,15,,,71,72
44760,note_on,1,0,16,,,,,,,,10,,,55,72
44760,note_on,0,0,6,,,,,,,,1,,,55,72
44760,note_on,1,0,11,,,,,,,,6,,,43,72
44760,note_on,1,0,17,,,,,,,,11,,,71,72
44760,note_on,1,0,5,,,,,,,,0,,,71,72
44760,note_on,1,0,6,,,,,,,,1,,,62,72
44760,note_on,1,0,9,,,,,,,,4,,,62,72
44760,note_on,1,0,20,,,,,,,,14,,,55,72
44760,note_on,0,0,21,,,,,,,,15,,,62,72
44760,note_on,1,0,7,,,,,,,,2,,,71,72
44760,note_on,1,0,15,,,,,,,,10,,,62,72
44760,note_on,1,0,19,,,,,,,,13,,,62,72
44789,note_on,29,0,7,,,,,,,,2,,,71,0
44789,note_on,29,0,5,,,,,,,,0,,,71,0
44789,note_on,29,0,17,,,,,,,,11,,,71,0
44790,note_on,1,0,5,,,,,,,,0,,,72,72
44790,note_on,1,0,17,,,,,,,,11,,,72,72
44790,note_on,1,0,7,,,,,,,,2,,,72,72
44819,note_on,59,0,6,,,,,,,,1,,,55,0
44819,note_on,29,0,5,,,,,,,,0,,,72,0
44819,note_on,59,0,16,,,,,,,,10,,,55,0
44819,note_on,59,0,11,,,,,,,,6,,,43,0
44819,note_on,59,0,21,,,,,,,,15,,,55,0
44819,note_on,29,0,17,,,,,,,,11,,,72,0
44819,note_on,59,0,20,,,,,,,,14,,,55,0
44819,note_on,29,0,7,,,,,,,,2,,,72,0
44820,note_on,1,0,16,,,,,,,,10,,,53,72
44820,note_on,1,0,11,,,,,,,,6,,,41,72
44820,note_on,1,0,17,,,,,,,,11,,,69,72
44820,note_on,1,0,21,,,,,,,,15,,,53,72
44820,note_on,1,0,20,,,,,,,,14,,,53,72
44820,note_on,1,0,5,,,,,,,,0,,,69,72
44820,note_on,1,0,6,,,,,,,,1,,,53,72
44820,note_on,1,0,7,,,,,,,,2,,,69,72
44849,note_on,29,0,7,,,,,,,,2,,,69,0
44849,note_on,29,0,17,,,,,,,,11,,,69,0
44849,note_on,29,0,5,,,,,,,,0,,,69,0
44850,note_on,1,0,7,,,,,,,,2,,,71,72
44850,note_on,1,0,17,,,,,,,,11,,,71,72
44850,note_on,1,0,5,,,,,,,,0,,,71,72
44879,note_on,59,0,11,,,,,,,,6,,,41,0
44879,note_on,29,0,5,,,,,,,,0,,,71,0
44879,note_on,0,0,6,,,,,,,,1,,,62,0
44879,note_on,0,0,21,,,,,,,,15,,,62,0
44879,note_on,119,0,19,,,,,,,,13,,,62,0
44879,note_on,59,0,21,,,,,,,,15,,,53,0
44879,note_on,29,0,17,,,,,,,,11,,,71,0
44879,note_on,59,0,6,,,,,,,,1,,,53,0
44879,note_on,59,0,16,,,,,,,,10,,,53,0
44879,note_on,0,0,21,,,,,,,,15,,,71,0
44879,note_on,29,0,7,,,,,,,,2,,,71,0
44879,note_on,119,0,15,,,,,,,,10,,,62,0
44879,note_on,59,0,20,,,,,,,,14,,,53,0
44879,note_on,119,0,9,,,,,,,,4,,,62,0
44880,note_on,0,0,6,,,,,,,,1,,,52,72
44880,note_on,1,0,5,,,,,,,,0,,,72,72
44880,note_on,1,0,15,,,,,,,,10,,,55,72
44880,note_on,1,0,17,,,,,,,,11,,,72,72
44880,note_on,1,0,20,,,,,,,,14,,,52,72
44880,note_on,1,0,9,,,,,,,,4,,,55,72
44880,note_on,0,0,21,,,,,,,,15,,,55,72
44880,note_on,1,0,7,,,,,,,,2,,,72,72
44880,note_on,1,0,21,,,,,,,,15,,,52,72
44880,note_on,1,0,16,,,,,,,,10,,,52,72
44880,note_on,1,0,6,,,,,,,,1,,,55,72
44880,note_on,1,0,11,,,,,,,,6,,,40,72
44880,note_on,0,0,21,,,,,,,,15,,,72,72
44880,note_on,1,0,19,,,,,,,,13,,,55,72
44909,note_on,29,0,7,,,,,,,,2,,,72,0
44909,note_on,29,0,5,,,,,,,,0,,,72,0
44909,note_on,29,0,17,,,,,,,,11,,,72,0
44910,note_on,1,0,5,,,,,,,,0,,,74,72
44910,note_on,1,0,7,,,,,,,,2,,,74,72
44910,note_on,1,0,17,,,,,,,,11,,,74,72
44939,note_on,29,0,17,,,,,,,,11,,,74,0
44939,note_on,59,0,21,,,,,,,,15,,,52,0
44939,note_on,29,0,5,,,,,,,,0,,,74,0
44939,note_on,59,0,6,,,,,,,,1,,,52,0
44939,note_on,59,0,20,,,,,,,,14,,,52,0
44939,note_on,29,0,7,,,,,,,,2,,,74,0
44939,note_on,59,0,11,,,,,,,,6,,,40,0
44939,note_on,59,0,16,,,,,,,,10,,,52,0
44940,note_on,181,0,18,,,,,,,,12,,,64,72
44940,note_on,181,0,8,,,,,,,,3,,,64,72
44940,note_on,1,0,21,,,,,,,,15,,,52,72
44940,note_on,181,0,14,,,,,,,,10,,,64,72
44940,note_on,1,0,17,,,,,,,,11,,,72,72
44940,note_on,1,0,7,,,,,,,,2,,,72,72
44940,note_on,1,0,5,,,,,,,,0,,,72,72
44940,note_on,0,0,5,,,,,,,,0,,,64,72
44940,note_on,1,0,20,,,,,,,,14,,,52,72
44940,note_on,1,0,11,,,,,,,,6,,,40,72
44940,note_on,1,0,16,,,,,,,,10,,,52,72
44940,note_on,1,0,6,,,,,,,,1,,,52,72
44969,note_on,29,0,17,,,,,,,,11,,,72,0
44969,note_on,29,0,5,,,,,,,,0,,,72,0
44969,note_on,29,0,7,,,,,,,,2,,,72,0
44970,note_on,1,0,17,,,,,,,,11,,,71,72
44970,note_on,1,0,7,,,,,,,,2,,,71,72
44970,note_on,1,0,5,,,,,,,,0,,,71,72
44999,note_on,0,0,5,,,,,,,,0,,,64,0
44999,note_on,119,0,9,,,,,,,,4,,,55,0
44999,note_on,59,0,14,,,,,,,,10,,,64,0
44999,note_on,59,0,11,,,,,,,,6,,,40,0
44999,note_on,59,0,16,,,,,,,,10,,,52,0
44999,note_on,59,0,20,,,,,,,,14,,,52,0
44999,note_on,29,0,17,,,,,,,,11,,,71,0
44999,note_on,0,0,21,,,,,,,,15,,,55,0
44999,note_on,59,0,21,,,,,,,,15,,,52,0
44999,note_on,59,0,6,,,,,,,,1,,,52,0
44999,note_on,0,0,6,,,,,,,,1,,,55,0
44999,note_on,59,0,8,,,,,,,,3,,,64,0
44999,note_on,119,0,15,,,,,,,,10,,,55,0
44999,note_on,119,0,19,,,,,,,,13,,,55,0
44999,note_on,29,0,7,,,,,,,,2,,,71,0
44999,note_on,59,0,18,,,,,,,,12,,,64,0
44999,note_on,29,0,5,,,,,,,,0,,,71,0
44999,note_on,0,0,21,,,,,,,,15,,,72,0
45000,note_on,1,0,17,,,,,,,,11,,,73,72
45000,note_on,1,0,14,,,,,,,,10,,,64,72
45000,note_on,1,0,5,,,,,,,,0,,,73,72
45000,note_on,0,0,5,,,,,,,,0,,,64,72
45000,note_on,1,0,11,,,,,,,,6,,,45,72
45000,note_on,1,0,16,,,,,,,,10,,,57,72
45000,note_on,1,0,20,,,,,,,,14,,,57,72
45000,note_on,1,0,8,,,,,,,,3,,,64,72
45000,note_on,1,0,18,,,,,,,,12,,,64,72
45000,note_on,0,0,21,,,,,,,,15,,,64,72
45000,note_on,0,0,21,,,,,,,,15,,,73,72
45000,note_on,1,0,21,,,,,,,,15,,,57,72
45000,note_on,1,0,6,,,,,,,,1,,,57,72
45000,note_on,1,0,7,,,,,,,,2,,,73,72
45029,note_on,29,0,17,,,,,,,,11,,,73,0
45029,note_on,29,0,5,,,,,,,,0,,,73,0
45029,note_on,29,0,7,,,,,,,,2,,,73,0
45030,note_on,1,0,17,,,,,,,,11,,,74,72
45030,note_on,1,0,7,,,,,,,,2,,,74,72
45030,note_on,1,0,5,,,,,,,,0,,,74,72
45059,note_on,59,0,18,,,,,,,,12,,,64,0
45059,note_on,0,0,5,,,,,,,,0,,,64,0
45059,note_on,59,0,16,,,,,,,,10,,,57,0
45059,note_on,29,0,5,,,,,,,,0,,,74,0
45059,note_on,29,0,17,,,,,,,,11,,,74,0
45059,note_on,59,0,21,,,,,,,,15,,,57,0
45059,note_on,59,0,11,,,,,,,,6,,,45,0
45059,note_on,59,0,14,,,,,,,,10,,,64,0
45059,note_on,29,0,7,,,,,,,,2,,,74,0
45059,note_on,59,0,6,,,,,,,,1,,,57,0
45059,note_on,59,0,20,,,,,,,,14,,,57,0
45059,note_on,59,0,8,,,,,,,,3,,,64,0
45060,note_on,0,0,5,,,,,,,,0,,,64,72
45060,note_on,1,0,5,,,,,,,,0,,,71,72
45060,note_on,1,0,14,,,,,,,,10,,,64,72
45060,note_on,1,0,20,,,,,,,,14,,,55,72
45060,note_on,1,0,7,,,,,,,,2,,,71,72
45060,note_on,1,0,21,,,,,,,,15,,,55,72
45060,note_on,1,0,8,,,,,,,,3,,,64,72
45060,note_on,1,0,16,,,,,,,,10,,,55,72
45060,note_on,1,0,11,,,,,,,,6,,,43,72
45060,note_on,1,0,6,,,,,,,,1,,,55,72
45060,note_on,1,0,17,,,,,,,,11,,,71,72
45060,note_on,1,0,18,,,,,,,,12,,,64,72
45089,note_on,29,0,5,,,,,,,,0,,,71,0
45089,note_on,29,0,17,,,,,,,,11,,,71,0
45089,note_on,29,0,7,,,,,,,,2,,,71,0
45090,note_on,1,0,7,,,,,,,,2,,,73,72
45090,note_on,1,0,17,,,,,,,,11,,,73,72
45090,note_on,1,0,5,,,,,,,,0,,,73,72
45119,note_on,59,0,18,,,,,,,,12,,,64,0
45119,note_on,29,0,7,,,,,,,,2,,,73,0
45119,note_on,59,0,8,,,,,,,,3,,,64,0
45119,note_on,29,0,17,,,,,,,,11,,,73,0
45119,note_on,59,0,6,,,,,,,,1,,,55,0
45119,note_on,59,0,11,,,,,,,,6,,,43,0
45119,note_on,0,0,21,,,,,,,,15,,,64,0
45119,note_on,59,0,21,,,,,,,,15,,,55,0
45119,note_on,59,0,16,,,,,,,,10,,,55,0
45119,note_on,59,0,14,,,,,,,,10,,,64,0
45119,note_on,29,0,5,,,,,,,,0,,,73,0
45119,note_on,0,0,5,,,,,,,,0,,,64,0
45119,note_on,0,0,21,,,,,,,,15,,,73,0
45119,note_on,59,0,20,,,,,,,,14,,,55,0
45120,note_on,1,0,16,,,,,,,,10,,,53,72
45120,note_on,0,0,21,,,,,,,,15,,,74,72
45120,note_on,0,0,21,,,,,,,,15,,,69,72
45120,note_on,1,0,20,,,,,,,,14,,,53,72
45120,note_on,1,0,14,,,,,,,,10,,,65,72
45120,note_on,1,0,11,,,,,,,,6,,,41,72
45120,note_on,1,0,17,,,,,,,,11,,,74,72
45120,note_on,1,0,18,,,,,,,,12,,,65,72
45120,note_on,1,0,21,,,,,,,,15,,,53,72
45120,note_on,1,0,7,,,,,,,,2,,,74,72
45120,note_on,1,0,6,,,,,,,,1,,,53,72
45120,note_on,1,0,5,,,,,,,,0,,,74,72
45120,note_on,0,0,5,,,,,,,,0,,,65,72
45120,note_on,1,0,8,,,,,,,,3,,,65,72
45149,note_on,29,0,8,,,,,,,,3,,,65,0
45149,note_on,29,0,14,,,,,,,,10,,,65,0
45149,note_on,29,0,18,,,,,,,,12,,,65,0
45149,note_on,29,0,5,,,,,,,,0,,,65,0
45150,note_on,1,0,14,,,,,,,,10,,,67,72
45150,note_on,1,0,18,,,,,,,,12,,,67,72
45150,note_on,1,0,8,,,,,,,,3,,,67,72
45150,note_on,1,0,5,,,,,,,,0,,,67,72
45179,note_on,29,0,5,,,,,,,,0,,,67,0
45179,note_on,29,0,18,,,,,,,,12,,,67,0
45179,note_on,59,0,11,,,,,,,,6,,,41,0
45179,note_on,29,0,14,,,,,,,,10,,,67,0
45179,note_on,59,0,21,,,,,,,,15,,,53,0
45179,note_on,29,0,8,,,,,,,,3,,,67,0
45180,note_on,1,0,21,,,,,,,,15,,,57,72
45180,note_on,1,0,5,,,,,,,,0,,,65,72
45180,note_on,1201,0,10,,,,,,,,5,,,57,72
45180,note_on,181,0,9,,,,,,,,4,,,57,72
45180,note_on,181,0,19,,,,,,,,13,,,57,72
45180,note_on,60,0,6,,,,,,,,1,,,57,72
45180,note_on,1,0,14,,,,,,,,10,,,65,72
45180,note_on,1,0,8,,,,,,,,3,,,65,72
45180,note_on,1,0,18,,,,,,,,12,,,65,72
45180,note_on,181,0,15,,,,,,,,10,,,57,72
45209,note_on,29,0,18,,,,,,,,12,,,65,0
45209,note_on,29,0,5,,,,,,,,0,,,65,0
45209,note_on,29,0,8,,,,,,,,3,,,65,0
45209,note_on,29,0,14,,,,,,,,10,,,65,0
45210,note_on,1,0,14,,,,,,,,10,,,64,72
45210,note_on,1,0,18,,,,,,,,12,,,64,72
45210,note_on,1,0,8,,,,,,,,3,,,64,72
45210,note_on,1,0,5,,,,,,,,0,,,64,72
45239,note_on,0,0,6,,,,,,,,1,,,53,0
45239,note_on,59,0,6,,,,,,,,1,,,57,0
45239,note_on,29,0,18,,,,,,,,12,,,64,0
45239,note_on,119,0,20,,,,,,,,14,,,53,0
45239,note_on,119,0,16,,,,,,,,10,,,53,0
45239,note_on,29,0,8,,,,,,,,3,,,64,0
45239,note_on,29,0,5,,,,,,,,0,,,64,0
45239,note_on,0,0,5,,,,,,,,0,,,74,0
45239,note_on,119,0,7,,,,,,,,2,,,74,0
45239,note_on,119,0,17,,,,,,,,11,,,74,0
45239,note_on,59,0,9,,,,,,,,4,,,57,0
45239,note_on,0,0,21,,,,,,,,15,,,69,0
45239,note_on,29,0,14,,,,,,,,10,,,64,0
45239,note_on,59,0,15,,,,,,,,10,,,57,0
45239,note_on,59,0,10,,,,,,,,5,,,57,0
45239,note_on,59,0,19,,,,,,,,13,,,57,0
45239,note_on,0,0,21,,,,,,,,15,,,74,0
45239,note_on,59,0,21,,,,,,,,15,,,57,0
45240,note_on,1,0,15,,,,,,,,10,,,62,72
45240,note_on,1,0,6,,,,,,,,1,,,62,72
45240,note_on,1,0,10,,,,,,,,5,,,62,72
45240,note_on,0,0,21,,,,,,,,15,,,66,72
45240,note_on,1,0,21,,,,,,,,15,,,62,72
45240,note_on,1,0,8,,,,,,,,3,,,66,72
45240,note_on,0,0,21,,,,,,,,15,,,70,72
45240,note_on,1,0,9,,,,,,,,4,,,62,72
45240,note_on,1,0,5,,,,,,,,0,,,66,72
45240,note_on,1,0,18,,,,,,,,12,,,66,72
45240,note_on,1,0,14,,,,,,,,10,,,66,72
45240,note_on,1,0,19,,,,,,,,13,,,62,72
45269,note_on,29,0,14,,,,,,,,10,,,66,0
45269,note_on,29,0,8,,,,,,,,3,,,66,0
45269,note_on,29,0,18,,,,,,,,12,,,66,0
45269,note_on,29,0,5,,,,,,,,0,,,66,0
45270,note_on,1,0,8,,,,,,,,3,,,67,72
45270,note_on,1,0,18,,,,,,,,12,,,67,72
45270,note_on,1,0,14,,,,,,,,10,,,67,72
45270,note_on,1,0,5,,,,,,,,0,,,67,72
45299,note_on,0,0,21,,,,,,,,15,,,62,0
45299,note_on,0,0,21,,,,,,,,15,,,66,0
45299,note_on,59,0,9,,,,,,,,4,,,62,0
45299,note_on,29,0,14,,,,,,,,10,,,67,0
45299,note_on,59,0,10,,,,,,,,5,,,62,0
45299,note_on,59,0,15,,,,,,,,10,,,62,0
45299,note_on,59,0,19,,,,,,,,13,,,62,0
45299,note_on,59,0,21,,,,,,,,15,,,70,0
45299,note_on,29,0,8,,,,,,,,3,,,67,0
45299,note_on,29,0,18,,,,,,,,12,,,67,0
45299,note_on,59,0,6,,,,,,,,1,,,62,0
45299,note_on,29,0,5,,,,,,,,0,,,67,0
45300,note_on,1,0,5,,,,,,,,0,,,64,72
45300,note_on,1,0,8,,,,,,,,3,,,64,72
45300,note_on,1,0,14,,,,,,,,10,,,64,72
45300,note_on,1,0,18,,,,,,,,12,,,64,72
45300,note_on,1,0,9,,,,,,,,4,,,60,72
45300,note_on,1,0,6,,,,,,,,1,,,60,72
45300,note_on,1,0,19,,,,,,,,13,,,60,72
45300,note_on,1,0,15,,,,,,,,10,,,60,72
45300,note_on,0,0,21,,,,,,,,15,,,67,72
45300,note_on,1,0,21,,,,,,,,15,,,60,72
45300,note_on,0,0,21,,,,,,,,15,,,64,72
45300,note_on,1,0,10,,,,,,,,5,,,60,72
45329,note_on,29,0,18,,,,,,,,12,,,64,0
45329,note_on,29,0,8,,,,,,,,3,,,64,0
45329,note_on,29,0,5,,,,,,,,0,,,64,0
45329,note_on,29,0,14,,,,,,,,10,,,64,0
45330,note_on,1,0,18,,,,,,,,12,,,66,72
45330,note_on,1,0,8,,,,,,,,3,,,66,72
45330,note_on,1,0,5,,,,,,,,0,,,66,72
45330,note_on,1,0,14,,,,,,,,10,,,66,72
45359,note_on,29,0,18,,,,,,,,12,,,66,0
45359,note_on,59,0,15,,,,,,,,10,,,60,0
45359,note_on,29,0,8,,,,,,,,3,,,66,0
45359,note_on,29,0,14,,,,,,,,10,,,66,0
45359,note_on,29,0,5,,,,,,,,0,,,66,0
45359,note_on,59,0,6,,,,,,,,1,,,60,0
45359,note_on,59,0,19,,,,,,,,13,,,60,0
45359,note_on,0,0,21,,,,,,,,15,,,64,0
45359,note_on,0,0,21,,,,,,,,15,,,60,0
45359,note_on,59,0,9,,,,,,,,4,,,60,0
45359,note_on,59,0,10,,,,,,,,5,,,60,0
45359,note_on,59,0,21,,,,,,,,15,,,67,0
45360,note_on,1,0,14,,,,,,,,10,,,67,72
45360,note_on,1,0,19,,,,,,,,13,,,59,72
45360,note_on,0,0,21,,,,,,,,15,,,62,72
45360,note_on,1,0,15,,,,,,,,10,,,59,72
45360,note_on,1,0,9,,,,,,,,4,,,59,72
45360,note_on,1,0,21,,,,,,,,15,,,59,72
45360,note_on,1,0,8,,,,,,,,3,,,67,72
45360,note_on,1,0,6,,,,,,,,1,,,59,72
45360,note_on,1,0,5,,,,,,,,0,,,67,72
45360,note_on,0,0,21,,,,,,,,15,,,67,72
45360,note_on,1,0,18,,,,,,,,12,,,67,72
45360,note_on,1,0,10,,,,,,,,5,,,59,72
45389,note_on,29,0,8,,,,,,,,3,,,67,0
45389,note_on,29,0,5,,,,,,,,0,,,67,0
45389,note_on,29,0,14,,,,,,,,10,,,67,0
45389,note_on,29,0,18,,,,,,,,12,,,67,0
45390,note_on,1,0,8,,,,,,,,3,,,69,72
45390,note_on,1,0,5,,,,,,,,0,,,69,72
45390,note_on,1,0,14,,,,,,,,10,,,69,72
45390,note_on,1,0,18,,,,,,,,12,,,69,72
45419,note_on,59,0,21,,,,,,,,15,,,62,0
45419,note_on,59,0,10,,,,,,,,5,,,59,0
45419,note_on,0,0,21,,,,,,,,15,,,59,0
45419,note_on,59,0,15,,,,,,,,10,,,59,0
45419,note_on,59,0,6,,,,,,,,1,,,59,0
45419,note_on,29,0,18,,,,,,,,12,,,69,0
45419,note_on,29,0,14,,,,,,,,10,,,69,0
45419,note_on,29,0,5,,,,,,,,0,,,69,0
45419,note_on,59,0,9,,,,,,,,4,,,59,0
45419,note_on,59,0,19,,,,,,,,13,,,59,0
45419,note_on,29,0,8,,,,,,,,3,,,69,0
45420,note_on,1,0,5,,,,,,,,0,,,67,72
45420,note_on,1,0,10,,,,,,,,5,,,59,72
45420,note_on,0,0,5,,,,,,,,0,,,76,72
45420,note_on,181,0,7,,,,,,,,2,,,76,72
45420,note_on,1,0,19,,,,,,,,13,,,59,72
45420,note_on,1,0,21,,,,,,,,15,,,59,72
45420,note_on,0,0,21,,,,,,,,15,,,76,72
45420,note_on,1,0,18,,,,,,,,12,,,67,72
45420,note_on,181,0,17,,,,,,,,11,,,76,72
45420,note_on,1,0,14,,,,,,,,10,,,67,72
45420,note_on,1,0,9,,,,,,,,4,,,59,72
45420,note_on,1,0,15,,,,,,,,10,,,59,72
45420,note_on,1,0,8,,,,,,,,3,,,67,72
45420,note_on,1,0,6,,,,,,,,1,,,59,72
45449,note_on,29,0,8,,,,,,,,3,,,67,0
45449,note_on,29,0,18,,,,,,,,12,,,67,0
45449,note_on,29,0,5,,,,,,,,0,,,67,0
45449,note_on,29,0,14,,,,,,,,10,,,67,0
45450,note_on,1,0,8,,,,,,,,3,,,66,72
45450,note_on,1,0,18,,,,,,,,12,,,66,72
45450,note_on,1,0,5,,,,,,,,0,,,66,72
45450,note_on,1,0,14,,,,,,,,10,,,66,72
45479,note_on,59,0,17,,,,,,,,11,,,76,0
45479,note_on,59,0,7,,,,,,,,2,,,76,0
45479,note_on,59,0,9,,,,,,,,4,,,59,0
45479,note_on,29,0,5,,,,,,,,0,,,66,0
45479,note_on,0,0,5,,,,,,,,0,,,76,0
45479,note_on,59,0,10,,,,,,,,5,,,59,0
45479,note_on,29,0,18,,,,,,,,12,,,66,0
45479,note_on,59,0,19,,,,,,,,13,,,59,0
45479,note_on,0,0,21,,,,,,,,15,,,59,0
45479,note_on,59,0,15,,,,,,,,10,,,59,0
45479,note_on,29,0,8,,,,,,,,3,,,66,0
45479,note_on,0,0,21,,,,,,,,15,,,67,0
45479,note_on,29,0,14,,,,,,,,10,,,66,0
45479,note_on,59,0,21,,,,,,,,15,,,76,0
45479,note_on,59,0,6,,,,,,,,1,,,59,0
45480,note_on,1,0,8,,,,,,,,3,,,68,72
45480,note_on,0,0,5,,,,,,,,0,,,76,72
45480,note_on,1,0,5,,,,,,,,0,,,68,72
45480,note_on,1,0,10,,,,,,,,5,,,64,72
45480,note_on,1,0,9,,,,,,,,4,,,64,72
45480,note_on,1,0,19,,,,,,,,13,,,64,72
45480,note_on,1,0,6,,,,,,,,1,,,64,72
45480,note_on,1,0,21,,,,,,,,15,,,64,72
45480,note_on,0,0,21,,,,,,,,15,,,68,72
45480,note_on,1,0,17,,,,,,,,11,,,76,72
45480,note_on,0,0,21,,,,,,,,15,,,70,72
45480,note_on,1,0,15,,,,,,,,10,,,64,72
45480,note_on,1,0,7,,,,,,,,2,,,76,72
45480,note_on,1,0,14,,,,,,,,10,,,68,72
45480,note_on,1,0,18,,,,,,,,12,,,68,72
45509,note_on,29,0,18,,,,,,,,12,,,68,0
45509,note_on,29,0,8,,,,,,,,3,,,68,0
45509,note_on,29,0,5,,,,,,,,0,,,68,0
45509,note_on,29,0,14,,,,,,,,10,,,68,0
45510,note_on,1,0,8,,,,,,,,3,,,69,72
45510,note_on,1,0,14,,,,,,,,10,,,69,72
45510,note_on,1,0,18,,,,,,,,12,,,69,72
45510,note_on,1,0,5,,,,,,,,0,,,69,72
45539,note_on,29,0,8,,,,,,,,3,,,69,0
45539,note_on,59,0,21,,,,,,,,15,,,64,0
45539,note_on,59,0,15,,,,,,,,10,,,64,0
45539,note_on,29,0,18,,,,,,,,12,,,69,0
45539,note_on,29,0,14,,,,,,,,10,,,69,0
45539,note_on,0,0,5,,,,,,,,0,,,76,0
45539,note_on,29,0,5,,,,,,,,0,,,69,0
45539,end_of_track,0,1,10,,,,,,,,,,,,
45539,note_on,59,0,19,,,,,,,,13,,,64,0
45539,note_on,59,0,17,,,,,,,,11,,,76,0
45539,note_on,59,0,10,,,,,,,,5,,,64,0
45539,note_on,59,0,6,,,,,,,,1,,,64,0
45539,note_on,59,0,7,,,,,,,,2,,,76,0
45539,note_on,59,0,9,,,,,,,,4,,,64,0
45540,note_on,1,0,14,,,,,,,,10,,,66,72
45540,note_on,1,0,17,,,,,,,,11,,,76,72
45540,note_on,1,0,9,,,,,,,,4,,,62,72
45540,note_on,361,0,11,,,,,,,,6,,,40,72
45540,note_on,1,0,21,,,,,,,,15,,,52,72
45540,note_on,1,0,15,,,,,,,,10,,,62,72
45540,note_on,301,0,16,,,,,,,,10,,,52,72
45540,note_on,1,0,18,,,,,,,,12,,,66,72
45540,note_on,0,0,21,,,,,,,,15,,,62,72
45540,note_on,1,0,5,,,,,,,,0,,,65,72
45540,note_on,0,0,5,,,,,,,,0,,,76,72
45540,note_on,1,0,7,,,,,,,,2,,,76,72
45540,note_on,301,0,20,,,,,,,,14,,,52,72
45540,note_on,1,0,8,,,,,,,,3,,,66,72
45540,note_on,1,0,19,,,,,,,,13,,,62,72
45540,note_on,0,0,6,,,,,,,,1,,,55,72
45540,note_on,1,0,6,,,,,,,,1,,,62,72
45569,note_on,29,0,5,,,,,,,,0,,,65,0
45569,note_on,29,0,18,,,,,,,,12,,,66,0
45569,note_on,29,0,8,,,,,,,,3,,,66,0
45569,note_on,29,0,14,,,,,,,,10,,,66,0
45570,note_on,1,0,18,,,,,,,,12,,,68,72
45570,note_on,1,0,14,,,,,,,,10,,,68,72
45570,note_on,1,0,5,,,,,,,,0,,,68,72
45570,note_on,1,0,8,,,,,,,,3,,,68,72
45599,note_on,0,0,21,,,,,,,,15,,,68,0
45599,note_on,59,0,9,,,,,,,,4,,,62,0
45599,note_on,59,0,7,,,,,,,,2,,,76,0
45599,note_on,29,0,5,,,,,,,,0,,,68,0
45599,note_on,59,0,19,,,,,,,,13,,,62,0
45599,note_on,59,0,21,,,,,,,,15,,,62,0
45599,note_on,0,0,21,,,,,,,,15,,,52,0
45599,note_on,0,0,21,,,,,,,,15,,,70,0
45599,note_on,59,0,20,,,,,,,,14,,,52,0
45599,note_on,59,0,11,,,,,,,,6,,,40,0
45599,note_on,0,0,5,,,,,,,,0,,,76,0
45599,note_on,59,0,17,,,,,,,,11,,,76,0
45599,note_on,59,0,16,,,,,,,,10,,,52,0
45599,note_on,29,0,14,,,,,,,,10,,,68,0
45599,note_on,29,0,8,,,,,,,,3,,,68,0
45599,note_on,0,0,6,,,,,,,,1,,,62,0
45599,note_on,59,0,6,,,,,,,,1,,,55,0
45599,note_on,59,0,15,,,,,,,,10,,,62,0
45599,note_on,29,0,18,,,,,,,,12,,,68,0
45600,note_on,1,0,17,,,,,,,,11,,,77,72
45600,note_on,1,0,19,,,,,,,,13,,,60,72
45600,note_on,1,0,15,,,,,,,,10,,,60,72
45600,note_on,0,0,21,,,,,,,,15,,,60,72
45600,note_on,0,0,6,,,,,,,,1,,,57,72
45600,note_on,1,0,6,,,,,,,,1,,,60,72
45600,note_on,0,0,21,,,,,,,,15,,,77,72
45600,note_on,1,0,21,,,,,,,,15,,,57,72
45600,note_on,1,0,16,,,,,,,,10,,,57,72
45600,note_on,1,0,20,,,,,,,,14,,,57,72
45600,note_on,1,0,9,,,,,,,,4,,,60,72
45600,note_on,1,0,5,,,,,,,,0,,,77,72
45600,note_on,1,0,18,,,,,,,,12,,,69,72
45600,note_on,0,0,5,,,,,,,,0,,,69,72
45600,note_on,1,0,11,,,,,,,,6,,,45,72
45600,note_on,1,0,14,,,,,,,,10,,,69,72
45600,note_on,1,0,7,,,,,,,,2,,,77,72
45600,note_on,1,0,8,,,,,,,,3,,,69,72
45629,note_on,29,0,7,,,,,,,,2,,,77,0
45629,note_on,29,0,5,,,,,,,,0,,,77,0
45629,note_on,29,0,17,,,,,,,,11,,,77,0
45630,note_on,1,0,5,,,,,,,,0,,,79,72
45630,note_on,1,0,7,,,,,,,,2,,,79,72
45630,note_on,1,0,17,,,,,,,,11,,,79,72
45659,note_on,29,0,5,,,,,,,,0,,,79,0
45659,note_on,29,0,7,,,,,,,,2,,,79,0
45659,note_on,59,0,20,,,,,,,,14,,,57,0
45659,note_on,59,0,16,,,,,,,,10,,,57,0
45659,note_on,59,0,6,,,,,,,,1,,,57,0
45659,note_on,29,0,17,,,,,,,,11,,,79,0
45659,note_on,59,0,11,,,,,,,,6,,,45,0
45659,note_on,59,0,21,,,,,,,,15,,,57,0
45660,note_on,1,0,20,,,,,,,,14,,,45,72
45660,note_on,1,0,21,,,,,,,,15,,,45,72
45660,note_on,1,0,6,,,,,,,,1,,,45,72
45660,note_on,1,0,11,,,,,,,,6,,,33,72
45660,note_on,1,0,17,,,,,,,,11,,,77,72
45660,note_on,1,0,7,,,,,,,,2,,,77,72
45660,note_on,1,0,16,,,,,,,,10,,,45,72
45660,note_on,1,0,5,,,,,,,,0,,,77,72
45689,note_on,29,0,5,,,,,,,,0,,,77,0
45689,note_on,29,0,17,,,,,,,,11,,,77,0
45689,note_on,29,0,7,,,,,,,,2,,,77,0
45690,note_on,1,0,5,,,,,,,,0,,,76,72
45690,note_on,1,0,7,,,,,,,,2,,,76,72
45690,note_on,1,0,17,,,,,,,,11,,,76,72
45719,note_on,59,0,6,,,,,,,,1,,,45,0
45719,note_on,119,0,8,,,,,,,,3,,,69,0
45719,note_on,59,0,11,,,,,,,,6,,,33,0
45719,note_on,29,0,7,,,,,,,,2,,,76,0
45719,note_on,0,0,6,,,,,,,,1,,,60,0
45719,note_on,59,0,16,,,,,,,,10,,,45,0
45719,note_on,119,0,14,,,,,,,,10,,,69,0
45719,note_on,29,0,17,,,,,,,,11,,,76,0
45719,note_on,0,0,21,,,,,,,,15,,,77,0
45719,note_on,0,0,21,,,,,,,,15,,,60,0
45719,note_on,119,0,19,,,,,,,,13,,,60,0
45719,note_on,29,0,5,,,,,,,,0,,,76,0
45719,note_on,0,0,5,,,,,,,,0,,,69,0
45719,note_on,59,0,20,,,,,,,,14,,,45,0
45719,note_on,119,0,18,,,,,,,,12,,,69,0
45719,note_on,119,0,15,,,,,,,,10,,,60,0
45719,note_on,59,0,21,,,,,,,,15,,,45,0
45719,note_on,119,0,9,,,,,,,,4,,,60,0
45720,note_on,1,0,14,,,,,,,,10,,,69,72
45720,note_on,0,0,5,,,,,,,,0,,,69,72
45720,note_on,1,0,16,,,,,,,,10,,,50,72
45720,note_on,1,0,8,,,,,,,,3,,,69,72
45720,note_on,1,0,5,,,,,,,,0,,,78,72
45720,note_on,0,0,6,,,,,,,,1,,,62,72
45720,note_on,1,0,7,,,,,,,,2,,,78,72
45720,note_on,1,0,17,,,,,,,,11,,,78,72
45720,note_on,1,0,6,,,,,,,,1,,,50,72
45720,note_on,0,0,21,,,,,,,,15,,,62,72
45720,note_on,0,0,21,,,,,,,,15,,,69,72
45720,note_on,0,0,21,,,,,,,,15,,,78,72
45720,note_on,1,0,21,,,,,,,,15,,,50,72
45720,note_on,1,0,11,,,,,,,,6,,,38,72
45720,note_on,1,0,19,,,,,,,,13,,,62,72
45720,note_on,1,0,15,,,,,,,,10,,,62,72
45720,note_on,1,0,20,,,,,,,,14,,,50,72
45720,note_on,1,0,9,,,,,,,,4,,,62,72
45720,note_on,1,0,18,,,,,,,,12,,,69,72
45749,note_on,29,0,17,,,,,,,,11,,,78,0
45749,note_on,29,0,7,,,,,,,,2,,,78,0
45749,note_on,29,0,5,,,,,,,,0,,,78,0
45750,note_on,1,0,17,,,,,,,,11,,,79,72
45750,note_on,1,0,5,,,,,,,,0,,,79,72
45750,note_on,1,0,7,,,,,,,,2,,,79,72
45779,note_on,59,0,11,,,,,,,,6,,,38,0
45779,note_on,29,0,17,,,,,,,,11,,,79,0
45779,note_on,59,0,20,,,,,,,,14,,,50,0
45779,note_on,59,0,21,,,,,,,,15,,,50,0
45779,note_on,29,0,7,,,,,,,,2,,,79,0
45779,note_on,59,0,16,,,,,,,,10,,,50,0
45779,note_on,59,0,6,,,,,,,,1,,,50,0
45779,note_on,29,0,5,,,,,,,,0,,,79,0
45780,note_on,1,0,5,,,,,,,,0,,,76,72
45780,note_on,1,0,21,,,,,,,,15,,,48,72
45780,note_on,1,0,7,,,,,,,,2,,,76,72
45780,note_on,1,0,17,,,,,,,,11,,,76,72
45780,note_on,1,0,16,,,,,,,,10,,,48,72
45780,note_on,1,0,11,,,,,,,,6,,,36,72
45780,note_on,1,0,20,,,,,,,,14,,,48,72
45780,note_on,1,0,6,,,,,,,,1,,,48,72
45809,note_on,29,0,17,,,,,,,,11,,,76,0
45809,note_on,89,0,15,,,,,,,,10,,,62,0
45809,note_on,89,0,19,,,,,,,,13,,,62,0
45809,note_on,89,0,8,,,,,,,,3,,,69,0
45809,note_on,29,0,6,,,,,,,,1,,,62,0
45809,note_on,0,0,5,,,,,,,,0,,,69,0
45809,note_on,29,0,7,,,,,,,,2,,,76,0
45809,note_on,89,0,9,,,,,,,,4,,,62,0
45809,note_on,89,0,18,,,,,,,,12,,,69,0
45809,note_on,89,0,14,,,,,,,,10,,,69,0
45809,note_on,29,0,5,,,,,,,,0,,,76,0
45810,note_on,1,0,8,,,,,,,,3,,,69,72
45810,note_on,1,0,17,,,,,,,,11,,,78,72
45810,note_on,1,0,6,,,,,,,,1,,,62,72
45810,note_on,1,0,15,,,,,,,,10,,,62,72
45810,note_on,1,0,9,,,,,,,,4,,,62,72
45810,note_on,1,0,7,,,,,,,,2,,,78,72
45810,note_on,1,0,18,,,,,,,,12,,,69,72
45810,note_on,1,0,19,,,,,,,,13,,,62,72
45810,note_on,0,0,5,,,,,,,,0,,,69,72
45810,note_on,1,0,5,,,,,,,,0,,,77,72
45810,note_on,1,0,14,,,,,,,,10,,,69,72
45839,note_on,59,0,16,,,,,,,,10,,,48,0
45839,note_on,59,0,21,,,,,,,,15,,,48,0
45839,note_on,59,0,20,,,,,,,,14,,,48,0
45839,note_on,29,0,17,,,,,,,,11,,,78,0
45839,note_on,29,0,15,,,,,,,,10,,,62,0
45839,note_on,29,0,5,,,,,,,,0,,,69,0
45839,note_on,29,0,18,,,,,,,,12,,,69,0
45839,note_on,29,0,19,,,,,,,,13,,,62,0
45839,note_on,29,0,7,,,,,,,,2,,,78,0
45839,note_on,0,0,6,,,,,,,,1,,,48,0
45839,note_on,29,0,6,,,,,,,,1,,,62,0
45839,note_on,0,0,21,,,,,,,,15,,,62,0
45839,note_on,0,0,21,,,,,,,,15,,,69,0
45839,note_on,59,0,11,,,,,,,,6,,,36,0
45839,note_on,0,0,5,,,,,,,,0,,,77,0
45839,note_on,29,0,9,,,,,,,,4,,,62,0
45839,note_on,0,0,21,,,,,,,,15,,,78,0
45839,note_on,29,0,8,,,,,,,,3,,,69,0
45839,note_on,29,0,14,,,,,,,,10,,,69,0
45840,note_on,1,0,21,,,,,,,,15,,,47,72
45840,note_on,1,0,6,,,,,,,,1,,,47,72
45840,note_on,0,0,5,,,,,,,,0,,,67,72
45840,note_on,1,0,19,,,,,,,,13,,,62,72
45840,note_on,1,0,16,,,,,,,,10,,,47,72
45840,note_on,1,0,18,,,,,,,,12,,,67,72
45840,note_on,1,0,8,,,,,,,,3,,,67,72
45840,note_on,1,0,7,,,,,,,,2,,,79,72
45840,note_on,1,0,17,,,,,,,,11,,,79,72
45840,note_on,0,0,6,,,,,,,,1,,,62,72
45840,note_on,1,0,20,,,,,,,,14,,,47,72
45840,note_on,1,0,14,,,,,,,,10,,,67,72
45840,note_on,1,0,15,,,,,,,,10,,,62,72
45840,note_on,1,0,11,,,,,,,,6,,,35,72
45840,note_on,1,0,5,,,,,,,,0,,,79,72
45840,note_on,0,0,21,,,,,,,,15,,,79,72
45840,note_on,0,0,21,,,,,,,,15,,,67,72
45840,note_on,1,0,9,,,,,,,,4,,,62,72
45840,note_on,0,0,21,,,,,,,,15,,,62,72
45869,note_on,29,0,17,,,,,,,,11,,,79,0
45869,note_on,29,0,7,,,,,,,,2,,,79,0
45870,note_on,1,0,7,,,,,,,,2,,,81,72
45870,note_on,1,0,17,,,,,,,,11,,,81,72
45899,note_on,29,0,7,,,,,,,,2,,,81,0
45899,note_on,59,0,6,,,,,,,,1,,,47,0
45899,note_on,59,0,16,,,,,,,,10,,,47,0
45899,note_on,59,0,11,,,,,,,,6,,,35,0
45899,note_on,59,0,20,,,,,,,,14,,,47,0
45899,note_on,59,0,5,,,,,,,,0,,,79,0
45899,note_on,59,0,21,,,,,,,,15,,,47,0
45899,note_on,29,0,17,,,,,,,,11,,,81,0
45900,note_on,1,0,11,,,,,,,,6,,,35,72
45900,note_on,1,0,5,,,,,,,,0,,,74,72
45900,note_on,1,0,20,,,,,,,,14,,,47,72
45900,note_on,1,0,7,,,,,,,,2,,,79,72
45900,note_on,1,0,17,,,,,,,,11,,,79,72
45900,note_on,1,0,16,,,,,,,,10,,,47,72
45900,note_on,1,0,6,,,,,,,,1,,,47,72
45900,note_on,1,0,21,,,,,,,,15,,,47,72
45929,note_on,29,0,17,,,,,,,,11,,,79,0
45929,note_on,29,0,7,,,,,,,,2,,,79,0
45930,note_on,1,0,7,,,,,,,,2,,,78,72
45930,note_on,1,0,17,,,,,,,,11,,,78,72
45959,note_on,59,0,11,,,,,,,,6,,,35,0
45959,note_on,119,0,19,,,,,,,,13,,,62,0
45959,note_on,0,0,6,,,,,,,,1,,,62,0
45959,note_on,59,0,6,,,,,,,,1,,,47,0
45959,note_on,59,0,20,,,,,,,,14,,,47,0
45959,note_on,0,0,21,,,,,,,,15,,,62,0
45959,note_on,59,0,5,,,,,,,,0,,,74,0
45959,note_on,0,0,5,,,,,,,,0,,,67,0
45959,note_on,119,0,8,,,,,,,,3,,,67,0
45959,note_on,29,0,17,,,,,,,,11,,,78,0
45959,note_on,119,0,14,,,,,,,,10,,,67,0
45959,note_on,59,0,21,,,,,,,,15,,,47,0
45959,note_on,0,0,21,,,,,,,,15,,,79,0
45959,note_on,0,0,21,,,,,,,,15,,,67,0
45959,note_on,119,0,15,,,,,,,,10,,,62,0
45959,note_on,119,0,9,,,,,,,,4,,,62,0
45959,note_on,59,0,16,,,,,,,,10,,,47,0
45959,note_on,29,0,7,,,,,,,,2,,,78,0
45959,note_on,119,0,18,,,,,,,,12,,,67,0
45960,note_on,0,0,21,,,,,,,,15,,,80,72
45960,note_on,1,0,20,,,,,,,,14,,,52,72
45960,note_on,1,0,19,,,,,,,,13,,,64,72
45960,note_on,1,0,8,,,,,,,,3,,,71,72
45960,note_on,1,0,14,,,,,,,,10,,,71,72
45960,note_on,1,0,18,,,,,,,,12,,,71,72
45960,note_on,1,0,21,,,,,,,,15,,,52,72
45960,note_on,1,0,16,,,,,,,,10,,,52,72
45960,note_on,1,0,9,,,,,,,,4,,,64,72
45960,note_on,1,0,15,,,,,,,,10,,,64,72
45960,note_on,1,0,7,,,,,,,,2,,,80,72
45960,note_on,1,0,17,,,,,,,,11,,,80,72
45960,note_on,1,0,6,,,,,,,,1,,,52,72
45960,note_on,0,0,6,,,,,,,,1,,,64,72
45960,note_on,1,0,5,,,,,,,,0,,,71,72
45960,note_on,1,0,11,,,,,,,,6,,,40,72
45989,note_on,29,0,17,,,,,,,,11,,,80,0
45989,note_on,29,0,7,,,,,,,,2,,,80,0
45990,note_on,1,0,17,,,,,,,,11,,,81,72
45990,note_on,1,0,7,,,,,,,,2,,,81,72
46019,note_on,59,0,6,,,,,,,,1,,,52,0
46019,note_on,59,0,11,,,,,,,,6,,,40,0
46019,note_on,29,0,7,,,,,,,,2,,,81,0
46019,note_on,59,0,20,,,,,,,,14,,,52,0
46019,note_on,59,0,21,,,,,,,,15,,,52,0
46019,note_on,59,0,16,,,,,,,,10,,,52,0
46019,note_on,29,0,17,,,,,,,,11,,,81,0
46020,note_on,1,0,17,,,,,,,,11,,,78,72
46020,note_on,1,0,20,,,,,,,,14,,,50,72
46020,note_on,1,0,16,,,,,,,,10,,,50,72
46020,note_on,1,0,6,,,,,,,,1,,,50,72
46020,note_on,1,0,11,,,,,,,,6,,,38,72
46020,note_on,1,0,21,,,,,,,,15,,,50,72
46020,note_on,1,0,7,,,,,,,,2,,,78,72
46049,note_on,89,0,18,,,,,,,,12,,,71,0
46049,note_on,89,0,5,,,,,,,,0,,,71,0
46049,note_on,29,0,17,,,,,,,,11,,,78,0
46049,note_on,89,0,9,,,,,,,,4,,,64,0
46049,note_on,89,0,15,,,,,,,,10,,,64,0
46049,note_on,29,0,6,,,,,,,,1,,,64,0
46049,note_on,29,0,7,,,,,,,,2,,,78,0
46049,note_on,89,0,14,,,,,,,,10,,,71,0
46049,note_on,89,0,8,,,,,,,,3,,,71,0
46049,note_on,89,0,19,,,,,,,,13,,,64,0
46050,note_on,1,0,5,,,,,,,,0,,,71,72
46050,note_on,1,0,19,,,,,,,,13,,,64,72
46050,note_on,1,0,9,,,,,,,,4,,,64,72
46050,note_on,1,0,17,,,,,,,,11,,,80,72
46050,note_on,1,0,14,,,,,,,,10,,,71,72
46050,note_on,1,0,6,,,,,,,,1,,,64,72
46050,note_on,1,0,18,,,,,,,,12,,,71,72
46050,note_on,1,0,15,,,,,,,,10,,,64,72
46050,note_on,1,0,8,,,,,,,,3,,,71,72
46050,note_on,1,0,7,,,,,,,,2,,,80,72
46079,note_on,29,0,17,,,,,,,,11,,,80,0
46079,note_on,29,0,5,,,,,,,,0,,,71,0
46079,note_on,29,0,7,,,,,,,,2,,,80,0
46079,note_on,59,0,16,,,,,,,,10,,,50,0
46079,note_on,29,0,18,,,,,,,,12,,,71,0
46079,note_on,29,0,9,,,,,,,,4,,,64,0
46079,note_on,59,0,21,,,,,,,,15,,,50,0
46079,note_on,29,0,19,,,,,,,,13,,,64,0
46079,note_on,59,0,20,,,,,,,,14,,,50,0
46079,note_on,29,0,8,,,,,,,,3,,,71,0
46079,note_on,29,0,15,,,,,,,,10,,,64,0
46079,note_on,29,0,14,,,,,,,,10,,,71,0
46079,note_on,29,0,6,,,,,,,,1,,,64,0
46079,note_on,59,0,11,,,,,,,,6,,,38,0
46079,note_on,0,0,21,,,,,,,,15,,,80,0
46079,note_on,0,0,6,,,,,,,,1,,,50,0
46080,note_on,1,0,15,,,,,,,,10,,,64,72
46080,note_on,0,0,21,,,,,,,,15,,,69,72
46080,note_on,1,0,8,,,,,,,,3,,,69,72
46080,note_on,1,0,5,,,,,,,,0,,,76,72
46080,note_on,0,0,5,,,,,,,,0,,,69,72
46080,note_on,1,0,9,,,,,,,,4,,,64,72
46080,note_on,1,0,16,,,,,,,,10,,,49,72
46080,note_on,0,0,12,,,,,,,,7,,,57,76
46080,note_on,1,0,18,,,,,,,,12,,,69,72
46080,note_on,1,0,20,,,,,,,,14,,,49,72
46080,note_on,1,0,14,,,,,,,,10,,,69,72
46080,note_on,0,0,6,,,,,,,,1,,,49,72
46080,note_on,1,0,6,,,,,,,,1,,,64,72
46080,note_on,1,0,19,,,,,,,,13,,,64,72
46080,note_on,0,0,21,,,,,,,,15,,,64,72
46080,note_on,2521,0,13,,,,,,,,8,,,45,72
46080,note_on,1,0,21,,,,,,,,15,,,49,72
46080,note_on,1,0,11,,,,,,,,6,,,37,72
46080,note_on,1,0,7,,,,,,,,2,,,81,72
46080,note_on,2521,0,12,,,,,,,,7,,,69,76
46080,note_on,1,0,17,,,,,,,,11,,,81,72
46139,note_on,59,0,5,,,,,,,,0,,,69,0
46139,note_on,59,0,8,,,,,,,,3,,,69,0
46139,note_on,0,0,21,,,,,,,,15,,,49,0
46139,note_on,59,0,20,,,,,,,,14,,,49,0
46139,note_on,59,0,14,,,,,,,,10,,,69,0
46139,note_on,0,0,21,,,,,,,,15,,,64,0
46139,note_on,59,0,6,,,,,,,,1,,,49,0
46139,note_on,59,0,17,,,,,,,,11,,,81,0
46139,note_on,59,0,7,,,,,,,,2,,,81,0
46139,note_on,59,0,11,,,,,,,,6,,,37,0
46139,note_on,59,0,18,,,,,,,,12,,,69,0
46139,note_on,59,0,21,,,,,,,,15,,,69,0
46139,note_on,59,0,16,,,,,,,,10,,,49,0
46140,note_on,1,0,18,,,,,,,,12,,,67,72
46140,note_on,1,0,21,,,,,,,,15,,,57,72
46140,note_on,1,0,8,,,,,,,,3,,,67,72
46140,note_on,1,0,20,,,,,,,,14,,,57,72
46140,note_on,0,0,21,,,,,,,,15,,,73,72
46140,note_on,1,0,14,,,,,,,,10,,,67,72
46140,note_on,1,0,17,,,,,,,,11,,,73,72
46140,note_on,0,0,21,,,,,,,,15,,,64,72
46140,note_on,0,0,21,,,,,,,,15,,,67,72
46140,note_on,1,0,7,,,,,,,,2,,,73,72
46140,note_on,1,0,5,,,,,,,,0,,,67,72
46140,note_on,1,0,6,,,,,,,,1,,,57,72
46140,note_on,1,0,11,,,,,,,,6,,,45,72
46140,note_on,1,0,16,,,,,,,,10,,,57,72
46199,note_on,59,0,20,,,,,,,,14,,,57,0
46199,note_on,59,0,6,,,,,,,,1,,,57,0
46199,note_on,59,0,11,,,,,,,,6,,,45,0
46199,note_on,119,0,15,,,,,,,,10,,,64,0
46199,note_on,0,0,6,,,,,,,,1,,,64,0
46199,note_on,59,0,16,,,,,,,,10,,,57,0
46199,note_on,59,0,14,,,,,,,,10,,,67,0
46199,note_on,119,0,13,,,,,,,,8,,,45,0
46199,note_on,59,0,18,,,,,,,,12,,,67,0
46199,note_on,0,0,5,,,,,,,,0,,,76,0
46199,note_on,119,0,19,,,,,,,,13,,,64,0
46199,note_on,59,0,7,,,,,,,,2,,,73,0
46199,note_on,59,0,8,,,,,,,,3,,,67,0
46199,note_on,119,0,9,,,,,,,,4,,,64,0
46199,note_on,59,0,21,,,,,,,,15,,,67,0
46199,note_on,0,0,21,,,,,,,,15,,,57,0
46199,note_on,0,0,21,,,,,,,,15,,,73,0
46199,note_on,0,0,21,,,,,,,,15,,,64,0
46199,note_on,0,0,12,,,,,,,,7,,,69,0
46199,note_on,119,0,12,,,,,,,,7,,,57,0
46199,note_on,59,0,17,,,,,,,,11,,,73,0
46199,note_on,59,0,5,,,,,,,,0,,,67,0
46200,note_on,1,0,8,,,,,,,,3,,,65,72
46200,note_on,1,0,9,,,,,,,,4,,,62,72
46200,note_on,1,0,13,,,,,,,,8,,,50,72
46200,note_on,0,0,21,,,,,,,,15,,,65,72
46200,note_on,1,0,20,,,,,,,,14,,,58,72
46200,note_on,0,0,6,,,,,,,,1,,,62,72
46200,note_on,1,0,6,,,,,,,,1,,,58,72
46200,note_on,1,0,18,,,,,,,,12,,,65,72
46200,note_on,1,0,19,,,,,,,,13,,,62,72
46200,note_on,1,0,12,,,,,,,,7,,,62,76
46200,note_on,1,0,5,,,,,,,,0,,,65,72
46200,note_on,1,0,11,,,,,,,,6,,,46,72
46200,note_on,1,0,16,,,,,,,,10,,,58,72
46200,note_on,1,0,21,,,,,,,,15,,,58,72
46200,note_on,0,0,21,,,,,,,,15,,,74,72
46200,note_on,1,0,15,,,,,,,,10,,,62,72
46200,note_on,1,0,14,,,,,,,,10,,,65,72
46200,note_on,1,0,17,,,,,,,,11,,,74,72
46200,note_on,0,0,5,,,,,,,,0,,,74,72
46200,note_on,1,0,7,,,,,,,,2,,,74,72
46259,note_on,59,0,8,,,,,,,,3,,,65,0
46259,note_on,59,0,7,,,,,,,,2,,,74,0
46259,note_on,59,0,6,,,,,,,,1,,,62,0
46259,note_on,59,0,13,,,,,,,,8,,,50,0
46259,note_on,59,0,15,,,,,,,,10,,,62,0
46259,note_on,0,0,6,,,,,,,,1,,,58,0
46259,note_on,0,0,5,,,,,,,,0,,,65,0
46259,note_on,59,0,5,,,,,,,,0,,,74,0
46259,note_on,59,0,11,,,,,,,,6,,,46,0
46259,note_on,59,0,19,,,,,,,,13,,,62,0
46259,note_on,59,0,20,,,,,,,,14,,,58,0
46259,note_on,59,0,21,,,,,,,,15,,,65,0
46259,note_on,59,0,14,,,,,,,,10,,,65,0
46259,note_on,59,0,12,,,,,,,,7,,,62,0
46259,note_on,0,0,21,,,,,,,,15,,,58,0
46259,note_on,0,0,21,,,,,,,,15,,,74,0
46259,note_on,59,0,9,,,,,,,,4,,,62,0
46259,note_on,59,0,16,,,,,,,,10,,,58,0
46259,note_on,59,0,18,,,,,,,,12,,,65,0
46259,note_on,59,0,17,,,,,,,,11,,,74,0
46260,note_on,1,0,6,,,,,,,,1,,,65,72
46260,note_on,0,0,6,,,,,,,,1,,,55,72
46260,note_on,1,0,15,,,,,,,,10,,,65,72
46260,note_on,1,0,21,,,,,,,,15,,,55,72
46260,note_on,1,0,12,,,,,,,,7,,,62,76
46260,note_on,1,0,20,,,,,,,,14,,,55,72
46260,note_on,1,0,5,,,,,,,,0,,,70,72
46260,note_on,0,0,21,,,,,,,,15,,,70,72
46260,note_on,0,0,21,,,,,,,,15,,,74,72
46260,note_on,1,0,19,,,,,,,,13,,,65,72
46260,note_on,0,0,21,,,,,,,,15,,,65,72
46260,note_on,1,0,16,,,,,,,,10,,,55,72
46260,note_on,1,0,9,,,,,,,,4,,,65,72
46260,note_on,1,0,14,,,,,,,,10,,,70,72
46260,note_on,1,0,7,,,,,,,,2,,,74,72
46260,note_on,1,0,17,,,,,,,,11,,,74,72
46260,note_on,1,0,11,,,,,,,,6,,,43,72
46260,note_on,1,0,18,,,,,,,,12,,,70,72
46260,note_on,1,0,8,,,,,,,,3,,,70,72
46260,note_on,1,0,13,,,,,,,,8,,,50,72
46260,note_on,0,0,5,,,,,,,,0,,,74,72
46319,note_on,59,0,8,,,,,,,,3,,,70,0
46319,note_on,59,0,6,,,,,,,,1,,,55,0
46319,note_on,59,0,15,,,,,,,,10,,,65,0
46319,note_on,59,0,9,,,,,,,,4,,,65,0
46319,note_on,0,0,21,,,,,,,,15,,,74,0
46319,note_on,0,0,21,,,,,,,,15,,,70,0
46319,note_on,59,0,21,,,,,,,,15,,,65,0
46319,note_on,59,0,18,,,,,,,,12,,,70,0
46319,note_on,0,0,21,,,,,,,,15,,,55,0
46319,note_on,59,0,13,,,,,,,,8,,,50,0
46319,note_on,59,0,16,,,,,,,,10,,,55,0
46319,note_on,0,0,6,,,,,,,,1,,,65,0
46319,note_on,59,0,11,,,,,,,,6,,,43,0
46319,note_on,59,0,12,,,,,,,,7,,,62,0
46319,note_on,59,0,5,,,,,,,,0,,,74,0
46319,note_on,0,0,5,,,,,,,,0,,,70,0
46319,note_on,59,0,20,,,,,,,,14,,,55,0
46319,note_on,59,0,17,,,,,,,,11,,,74,0
46319,note_on,59,0,7,,,,,,,,2,,,74,0
46319,note_on,59,0,19,,,,,,,,13,,,65,0
46319,note_on,59,0,14,,,,,,,,10,,,70,0
46320,note_on,1,0,19,,,,,,,,13,,,64,72
46320,note_on,1,0,8,,,,,,,,3,,,69,72
46320,note_on,1,0,17,,,,,,,,11,,,74,72
46320,note_on,1,0,13,,,,,,,,8,,,45,72
46320,note_on,1,0,7,,,,,,,,2,,,74,72
46320,note_on,1,0,9,,,,,,,,4,,,64,72
46320,note_on,1,0,16,,,,,,,,10,,,57,72
46320,note_on,0,0,12,,,,,,,,7,,,57,76
46320,note_on,1,0,15,,,,,,,,10,,,64,72
46320,note_on,1,0,20,,,,,,,,14,,,57,72
46320,note_on,1,0,14,,,,,,,,10,,,69,72
46320,note_on,0,0,6,,,,,,,,1,,,57,72
46320,note_on,1,0,6,,,,,,,,1,,,64,72
46320,note_on,1,0,21,,,,,,,,15,,,57,72
46320,note_on,0,0,21,,,,,,,,15,,,74,72
46320,note_on,0,0,21,,,,,,,,15,,,64,72
46320,note_on,0,0,21,,,,,,,,15,,,69,72
46320,note_on,0,0,5,,,,,,,,0,,,69,72
46320,note_on,1,0,5,,,,,,,,0,,,74,72
46320,note_on,1,0,11,,,,,,,,6,,,45,72
46320,note_on,1,0,18,,,,,,,,12,,,69,72
46320,note_on,1,0,12,,,,,,,,7,,,69,76
46379,note_on,0,0,12,,,,,,,,7,,,69,0
46379,note_on,59,0,12,,,,,,,,7,,,57,0
46379,note_on,59,0,13,,,,,,,,8,,,45,0
46380,note_on,1,0,12,,,,,,,,7,,,69,76
46380,note_on,0,0,12,,,,,,,,7,,,57,76
46380,note_on,1,0,13,,,,,,,,8,,,45,72
46409,note_on,29,0,13,,,,,,,,8,,,45,0
46409,note_on,0,0,12,,,,,,,,7,,,69,0
46409,note_on,29,0,12,,,,,,,,7,,,57,0
46410,note_on,0,0,12,,,,,,,,7,,,57,76
46410,note_on,1,0,12,,,,,,,,7,,,69,76
46410,note_on,1,0,13,,,,,,,,8,,,45,72
46439,note_on,119,0,11,,,,,,,,6,,,45,0
46439,note_on,29,0,12,,,,,,,,7,,,57,0
46439,note_on,119,0,7,,,,,,,,2,,,74,0
46439,note_on,119,0,5,,,,,,,,0,,,74,0
46439,note_on,119,0,17,,,,,,,,11,,,74,0
46439,note_on,119,0,21,,,,,,,,15,,,69,0
46439,note_on,29,0,13,,,,,,,,8,,,45,0
46439,note_on,0,0,21,,,,,,,,15,,,57,0
46439,note_on,0,0,21,,,,,,,,15,,,64,0
46439,note_on,0,0,12,,,,,,,,7,,,69,0
46439,note_on,0,0,21,,,,,,,,15,,,74,0
46440,note_on,1,0,21,,,,,,,,15,,,45,72
46440,note_on,0,0,21,,,,,,,,15,,,73,72
46440,note_on,0,0,21,,,,,,,,15,,,64,72
46440,note_on,1,0,5,,,,,,,,0,,,73,72
46440,note_on,0,0,21,,,,,,,,15,,,57,72
46440,note_on,1,0,11,,,,,,,,6,,,33,72
46440,note_on,1,0,13,,,,,,,,8,,,45,72
46440,note_on,1,0,12,,,,,,,,7,,,69,76
46440,note_on,0,0,12,,,,,,,,7,,,57,76
46440,note_on,1,0,17,,,,,,,,11,,,72,72
46440,note_on,1,0,7,,,,,,,,2,,,73,72
46499,note_on,0,0,12,,,,,,,,7,,,69,0
46499,note_on,179,0,18,,,,,,,,12,,,69,0
46499,note_on,179,0,16,,,,,,,,10,,,57,0
46499,note_on,59,0,12,,,,,,,,7,,,57,0
46499,note_on,179,0,20,,,,,,,,14,,,57,0
46499,note_on,179,0,8,,,,,,,,3,,,69,0
46499,note_on,179,0,9,,,,,,,,4,,,64,0
46499,note_on,59,0,5,,,,,,,,0,,,69,0
46499,note_on,179,0,15,,,,,,,,10,,,64,0
46499,note_on,179,0,14,,,,,,,,10,,,69,0
46499,note_on,59,0,13,,,,,,,,8,,,45,0
46499,note_on,179,0,19,,,,,,,,13,,,64,0
46500,note_on,1,0,5,,,,,,,,0,,,69,72
46500,note_on,1,0,15,,,,,,,,10,,,64,72
46500,note_on,1,0,13,,,,,,,,8,,,45,72
46500,note_on,0,0,12,,,,,,,,7,,,57,76
46500,note_on,1,0,12,,,,,,,,7,,,69,76
46500,note_on,1,0,18,,,,,,,,12,,,69,72
46500,note_on,1,0,8,,,,,,,,3,,,69,72
46500,note_on,1,0,20,,,,,,,,14,,,57,72
46500,note_on,1,0,16,,,,,,,,10,,,57,72
46500,note_on,1,0,9,,,,,,,,4,,,64,72
46500,note_on,1,0,19,,,,,,,,13,,,64,72
46500,note_on,1,0,14,,,,,,,,10,,,69,72
46559,note_on,59,0,9,,,,,,,,4,,,64,0
46559,note_on,59,0,5,,,,,,,,0,,,69,0
46559,note_on,59,0,15,,,,,,,,10,,,64,0
46559,note_on,119,0,21,,,,,,,,15,,,57,0
46559,note_on,59,0,19,,,,,,,,13,,,64,0
46559,note_on,0,0,21,,,,,,,,15,,,73,0
46559,note_on,0,0,21,,,,,,,,15,,,64,0
46559,note_on,59,0,8,,,,,,,,3,,,69,0
46559,note_on,0,0,12,,,,,,,,7,,,69,0
46559,note_on,59,0,12,,,,,,,,7,,,57,0
46559,note_on,59,0,20,,,,,,,,14,,,57,0
46559,note_on,0,0,5,,,,,,,,0,,,73,0
46559,note_on,59,0,14,,,,,,,,10,,,69,0
46559,note_on,0,0,21,,,,,,,,15,,,45,0
46559,note_on,59,0,18,,,,,,,,12,,,69,0
46559,note_on,59,0,16,,,,,,,,10,,,57,0
46559,note_on,59,0,13,,,,,,,,8,,,45,0
46559,note_on,239,0,6,,,,,,,,1,,,57,0
46559,note_on,0,0,6,,,,,,,,1,,,64,0
46559,note_on,119,0,17,,,,,,,,11,,,72,0
46559,note_on,119,0,11,,,,,,,,6,,,33,0
46559,note_on,119,0,7,,,,,,,,2,,,73,0
46560,note_on,1,0,9,,,,,,,,4,,,65,72
46560,note_on,1,0,6,,,,,,,,1,,,65,72
46560,note_on,1,0,14,,,,,,,,10,,,71,72
46560,note_on,0,0,6,,,,,,,,1,,,56,72
46560,note_on,0,0,5,,,,,,,,0,,,71,72
46560,note_on,1,0,19,,,,,,,,13,,,65,72
46560,note_on,1,0,15,,,,,,,,10,,,65,72
46560,note_on,1,0,20,,,,,,,,14,,,56,72
46560,note_on,1,0,7,,,,,,,,2,,,74,72
46560,note_on,1,0,16,,,,,,,,10,,,56,72
46560,note_on,1,0,17,,,,,,,,11,,,74,72
46560,note_on,1,0,12,,,,,,,,7,,,74,76
46560,note_on,1,0,21,,,,,,,,15,,,44,72
46560,note_on,0,0,21,,,,,,,,15,,,71,72
46560,note_on,0,0,21,,,,,,,,15,,,74,72
46560,note_on,0,0,21,,,,,,,,15,,,65,72
46560,note_on,0,0,12,,,,,,,,7,,,62,76
46560,note_on,1,0,8,,,,,,,,3,,,71,72
46560,note_on,1,0,11,,,,,,,,6,,,32,72
46560,note_on,1,0,5,,,,,,,,0,,,74,72
46560,note_on,1,0,13,,,,,,,,8,,,50,72
46560,note_on,1,0,18,,,,,,,,12,,,71,72
46799,note_on,239,0,20,,,,,,,,14,,,56,0
46799,note_on,239,0,6,,,,,,,,1,,,56,0
46799,note_on,0,0,6,,,,,,,,1,,,65,0
46799,note_on,239,0,11,,,,,,,,6,,,32,0
46799,note_on,239,0,19,,,,,,,,13,,,65,0
46799,note_on,239,0,8,,,,,,,,3,,,71,0
46799,note_on,239,0,9,,,,,,,,4,,,65,0
46799,note_on,0,0,12,,,,,,,,7,,,74,0
46799,note_on,239,0,13,,,,,,,,8,,,50,0
46799,note_on,0,0,5,,,,,,,,0,,,74,0
46799,note_on,239,0,12,,,,,,,,7,,,62,0
46799,note_on,239,0,7,,,,,,,,2,,,74,0
46799,note_on,0,0,21,,,,,,,,15,,,74,0
46799,note_on,239,0,18,,,,,,,,12,,,71,0
46799,note_on,239,0,17,,,,,,,,11,,,74,0
46799,note_on,239,0,14,,,,,,,,10,,,71,0
46799,note_on,0,0,21,,,,,,,,15,,,71,0
46799,note_on,239,0,15,,,,,,,,10,,,65,0
46799,note_on,239,0,21,,,,,,,,15,,,65,0
46799,note_on,239,0,16,,,,,,,,10,,,56,0
46799,note_on,239,0,5,,,,,,,,0,,,71,0
46799,note_on,0,0,21,,,,,,,,15,,,44,0
46800,set_tempo,23760,1,0,,,,,,2400000,,,,,,
46920,note_on,121,0,5,,,,,,,,0,,,74,72
46920,note_on,0,0,5,,,,,,,,0,,,65,72
46920,note_on,121,0,6,,,,,,,,1,,,65,72
46920,note_on,0,0,6,,,,,,,,1,,,56,72
46920,note_on,121,0,7,,,,,,,,2,,,74,72
46920,note_on,121,0,11,,,,,,,,6,,,44,72
46920,note_on,121,0,14,,,,,,,,10,,,71,72
46920,note_on,121,0,16,,,,,,,,10,,,56,72
46920,note_on,121,0,17,,,,,,,,11,,,74,72
46920,note_on,0,0,21,,,,,,,,15,,,74,72
46920,note_on,121,0,20,,,,,,,,14,,,56,72
46920,set_tempo,120,1,0,,,,,,1200000,,,,,,
46920,note_on,0,0,21,,,,,,,,15,,,71,72
46920,note_on,121,0,21,,,,,,,,15,,,56,72
46920,note_on,121,0,8,,,,,,,,3,,,71,72
46920,note_on,121,0,19,,,,,,,,13,,,65,72
46920,note_on,121,0,15,,,,,,,,10,,,65,72
46920,note_on,121,0,9,,,,,,,,4,,,65,72
46920,note_on,121,0,18,,,,,,,,12,,,71,72
46920,note_on,0,0,21,,,,,,,,15,,,65,72
47009,note_on,89,0,7,,,,,,,,2,,,74,0
47009,note_on,89,0,14,,,,,,,,10,,,71,0
47009,note_on,89,0,19,,,,,,,,13,,,65,0
47009,note_on,89,0,20,,,,,,,,14,,,56,0
47009,note_on,0,0,5,,,,,,,,0,,,74,0
47009,note_on,89,0,18,,,,,,,,12,,,71,0
47009,note_on,89,0,6,,,,,,,,1,,,56,0
47009,note_on,0,0,6,,,,,,,,1,,,65,0
47009,note_on,89,0,9,,,,,,,,4,,,65,0
47009,note_on,89,0,15,,,,,,,,10,,,65,0
47009,note_on,89,0,5,,,,,,,,0,,,65,0
47009,note_on,89,0,16,,,,,,,,10,,,56,0
47009,note_on,89,0,17,,,,,,,,11,,,74,0
47009,note_on,89,0,8,,,,,,,,3,,,71,0
47010,note_on,1,0,9,,,,,,,,4,,,65,72
47010,note_on,1,0,14,,,,,,,,10,,,71,72
47010,note_on,1,0,5,,,,,,,,0,,,74,72
47010,note_on,1,0,15,,,,,,,,10,,,65,72
47010,note_on,1,0,7,,,,,,,,2,,,74,72
47010,note_on,0,0,5,,,,,,,,0,,,65,72
47010,note_on,1,0,8,,,,,,,,3,,,71,72
47010,note_on,1,0,20,,,,,,,,14,,,56,72
47010,note_on,0,0,6,,,,,,,,1,,,56,72
47010,note_on,1,0,6,,,,,,,,1,,,65,72
47010,note_on,1,0,17,,,,,,,,11,,,74,72
47010,note_on,1,0,19,,,,,,,,13,,,65,72
47010,note_on,1,0,16,,,,,,,,10,,,56,72
47010,note_on,1,0,18,,,,,,,,12,,,71,72
47039,note_on,119,0,21,,,,,,,,15,,,65,0
47039,note_on,0,0,21,,,,,,,,15,,,56,0
47039,note_on,0,0,21,,,,,,,,15,,,71,0
47039,note_on,29,0,15,,,,,,,,10,,,65,0
47039,note_on,0,0,21,,,,,,,,15,,,74,0
47039,note_on,0,0,5,,,,,,,,0,,,74,0
47039,note_on,29,0,18,,,,,,,,12,,,71,0
47039,note_on,29,0,5,,,,,,,,0,,,65,0
47039,note_on,29,0,9,,,,,,,,4,,,65,0
47039,note_on,29,0,8,,,,,,,,3,,,71,0
47039,note_on,29,0,20,,,,,,,,14,,,56,0
47039,note_on,29,0,16,,,,,,,,10,,,56,0
47039,note_on,29,0,17,,,,,,,,11,,,74,0
47039,note_on,0,0,6,,,,,,,,1,,,65,0
47039,note_on,29,0,6,,,,,,,,1,,,56,0
47039,note_on,119,0,11,,,,,,,,6,,,44,0
47039,note_on,29,0,19,,,,,,,,13,,,65,0
47039,note_on,29,0,14,,,,,,,,10,,,71,0
47039,note_on,29,0,7,,,,,,,,2,,,74,0
47040,note_on,1,0,14,,,,,,,,10,,,69,72
47040,note_on,0,0,21,,,,,,,,15,,,69,72
47040,note_on,1,0,19,,,,,,,,13,,,64,72
47040,note_on,0,0,21,,,,,,,,15,,,64,72
47040,note_on,0,0,21,,,,,,,,15,,,73,72
47040,note_on,1,0,21,,,,,,,,15,,,57,72
47040,note_on,1,0,18,,,,,,,,12,,,69,72
47040,note_on,1,0,9,,,,,,,,4,,,64,72
47040,note_on,0,0,12,,,,,,,,7,,,57,76
47040,note_on,1,0,8,,,,,,,,3,,,69,72
47040,note_on,1,0,17,,,,,,,,11,,,73,72
47040,note_on,1,0,7,,,,,,,,2,,,73,72
47040,note_on,1,0,16,,,,,,,,10,,,57,72
47040,note_on,241,0,12,,,,,,,,7,,,69,76
47040,note_on,1,0,20,,,,,,,,14,,,57,72
47040,note_on,241,0,13,,,,,,,,8,,,45,72
47040,note_on,0,0,6,,,,,,,,1,,,57,72
47040,note_on,1,0,15,,,,,,,,10,,,64,72
47040,note_on,1,0,5,,,,,,,,0,,,73,72
47040,note_on,1,0,6,,,,,,,,1,,,64,72
47040,note_on,1,0,11,,,,,,,,6,,,45,72
47040,note_on,0,0,5,,,,,,,,0,,,64,72
47159,note_on,119,0,16,,,,,,,,10,,,57,0
47159,note_on,119,0,9,,,,,,,,4,,,64,0
47159,note_on,119,0,7,,,,,,,,2,,,73,0
47159,note_on,119,0,13,,,,,,,,8,,,45,0
47159,note_on,0,0,21,,,,,,,,15,,,57,0
47159,note_on,0,0,21,,,,,,,,15,,,73,0
47159,note_on,0,0,21,,,,,,,,15,,,64,0
47159,note_on,0,0,12,,,,,,,,7,,,69,0
47159,note_on,119,0,12,,,,,,,,7,,,57,0
47159,note_on,119,0,21,,,,,,,,15,,,69,0
47159,note_on,119,0,5,,,,,,,,0,,,64,0
47159,note_on,0,0,6,,,,,,,,1,,,64,0
47159,note_on,119,0,14,,,,,,,,10,,,69,0
47159,note_on,119,0,19,,,,,,,,13,,,64,0
47159,note_on,119,0,11,,,,,,,,6,,,45,0
47159,note_on,119,0,15,,,,,,,,10,,,64,0
47159,note_on,0,0,5,,,,,,,,0,,,73,0
47159,note_on,119,0,20,,,,,,,,14,,,57,0
47159,note_on,119,0,8,,,,,,,,3,,,69,0
47159,note_on,119,0,18,,,,,,,,12,,,69,0
47159,note_on,119,0,17,,,,,,,,11,,,73,0
47159,note_on,119,0,6,,,,,,,,1,,,57,0
47160,note_on,1,0,16,,,,,,,,10,,,53,72
47160,note_on,1,0,17,,,,,,,,11,,,74,72
47160,note_on,1,0,11,,,,,,,,6,,,41,72
47160,note_on,0,0,12,,,,,,,,7,,,62,76
47160,note_on,1,0,12,,,,,,,,7,,,69,76
47160,note_on,1,0,19,,,,,,,,13,,,65,72
47160,note_on,1,0,20,,,,,,,,14,,,53,72
47160,note_on,0,0,6,,,,,,,,1,,,53,72
47160,note_on,1,0,6,,,,,,,,1,,,65,72
47160,note_on,1,0,5,,,,,,,,0,,,74,72
47160,note_on,1,0,14,,,,,,,,10,,,69,72
47160,note_on,1,0,15,,,,,,,,10,,,65,72
47160,note_on,1,0,13,,,,,,,,8,,,50,72
47160,note_on,1,0,18,,,,,,,,12,,,69,72
47160,note_on,0,0,5,,,,,,,,0,,,65,72
47160,note_on,1,0,8,,,,,,,,3,,,69,72
47160,note_on,0,0,21,,,,,,,,15,,,74,72
47160,note_on,0,0,21,,,,,,,,15,,,69,72
47160,note_on,1,0,9,,,,,,,,4,,,65,72
47160,note_on,1,0,7,,,,,,,,2,,,74,72
47160,note_on,1,0,21,,,,,,,,15,,,53,72
47219,note_on,59,0,20,,,,,,,,14,,,53,0
47219,note_on,59,0,16,,,,,,,,10,,,53,0
47219,note_on,59,0,13,,,,,,,,8,,,50,0
47219,note_on,0,0,12,,,,,,,,7,,,69,0
47219,note_on,59,0,6,,,,,,,,1,,,53,0
47219,note_on,59,0,21,,,,,,,,15,,,53,0
47219,note_on,59,0,12,,,,,,,,7,,,62,0
47219,note_on,59,0,11,,,,,,,,6,,,41,0
47220,note_on,1,0,13,,,,,,,,8,,,50,72
47220,note_on,1,0,12,,,,,,,,7,,,69,76
47220,note_on,1,0,21,,,,,,,,15,,,50,72
47220,note_on,1,0,11,,,,,,,,6,,,38,72
47220,note_on,1,0,6,,,,,,,,1,,,50,72
47220,note_on,0,0,12,,,,,,,,7,,,62,76
47220,note_on,1,0,20,,,,,,,,14,,,50,72
47220,note_on,1,0,16,,,,,,,,10,,,50,72
47279,note_on,119,0,14,,,,,,,,10,,,69,0
47279,note_on,59,0,20,,,,,,,,14,,,50,0
47279,note_on,59,0,13,,,,,,,,8,,,50,0
47279,note_on,119,0,15,,,,,,,,10,,,65,0
47279,note_on,59,0,6,,,,,,,,1,,,50,0
47279,note_on,0,0,12,,,,,,,,7,,,69,0
47279,note_on,119,0,18,,,,,,,,12,,,69,0
47279,note_on,119,0,19,,,,,,,,13,,,65,0
47279,note_on,59,0,12,,,,,,,,7,,,62,0
47279,note_on,0,0,21,,,,,,,,15,,,69,0
47279,note_on,0,0,21,,,,,,,,15,,,74,0
47279,note_on,59,0,16,,,,,,,,10,,,50,0
47279,note_on,59,0,11,,,,,,,,6,,,38,0
47279,note_on,59,0,21,,,,,,,,15,,,50,0
47279,note_on,119,0,8,,,,,,,,3,,,69,0
47280,note_on,1,0,11,,,,,,,,6,,,33,72
47280,note_on,1,0,6,,,,,,,,1,,,57,72
47280,note_on,1,0,18,,,,,,,,12,,,69,72
47280,note_on,1,0,21,,,,,,,,15,,,45,72
47280,note_on,1,0,16,,,,,,,,10,,,57,72
47280,note_on,1,0,8,,,,,,,,3,,,69,72
47280,note_on,1,0,15,,,,,,,,10,,,65,72
47280,note_on,0,0,21,,,,,,,,15,,,74,72
47280,note_on,0,0,21,,,,,,,,15,,,65,72
47280,note_on,1,0,14,,,,,,,,10,,,69,72
47280,note_on,1,0,12,,,,,,,,7,,,69,76
47280,note_on,0,0,12,,,,,,,,7,,,57,76
47280,note_on,1,0,13,,,,,,,,8,,,45,72
47280,note_on,1,0,19,,,,,,,,13,,,65,72
47280,note_on,1,0,20,,,,,,,,14,,,57,72
47280,note_on,0,0,21,,,,,,,,15,,,69,72
47339,note_on,59,0,13,,,,,,,,8,,,45,0
47340,note_on,1,0,13,,,,,,,,8,,,45,72
47369,note_on,29,0,13,,,,,,,,8,,,45,0
47370,note_on,1,0,13,,,,,,,,8,,,45,72
47399,note_on,0,0,12,,,,,,,,7,,,69,0
47399,note_on,119,0,6,,,,,,,,1,,,57,0
47399,note_on,119,0,21,,,,,,,,15,,,69,0
47399,note_on,0,0,6,,,,,,,,1,,,65,0
47399,note_on,119,0,12,,,,,,,,7,,,57,0
47399,note_on,119,0,19,,,,,,,,13,,,65,0
47399,note_on,119,0,15,,,,,,,,10,,,65,0
47399,note_on,239,0,17,,,,,,,,11,,,74,0
47399,note_on,0,0,21,,,,,,,,15,,,45,0
47399,note_on,0,0,5,,,,,,,,0,,,74,0
47399,note_on,29,0,13,,,,,,,,8,,,45,0
47399,note_on,239,0,5,,,,,,,,0,,,65,0
47399,note_on,119,0,11,,,,,,,,6,,,33,0
47399,note_on,239,0,7,,,,,,,,2,,,74,0
47399,note_on,0,0,21,,,,,,,,15,,,65,0
47399,note_on,239,0,9,,,,,,,,4,,,65,0
47399,note_on,0,0,21,,,,,,,,15,,,74,0
47400,note_on,0,0,6,,,,,,,,1,,,45,72
47400,note_on,1,0,13,,,,,,,,8,,,45,72
47400,note_on,1,0,15,,,,,,,,10,,,64,72
47400,note_on,0,0,5,,,,,,,,0,,,64,72
47400,note_on,1,0,5,,,,,,,,0,,,73,72
47400,note_on,1,0,6,,,,,,,,1,,,64,72
47400,note_on,1,0,7,,,,,,,,2,,,73,72
47400,note_on,1,0,9,,,,,,,,4,,,64,72
47400,note_on,0,0,21,,,,,,,,15,,,69,72
47400,note_on,1,0,12,,,,,,,,7,,,69,76
47400,note_on,0,0,21,,,,,,,,15,,,64,72
47400,note_on,0,0,21,,,,,,,,15,,,73,72
47400,note_on,0,0,12,,,,,,,,7,,,57,76
47400,note_on,1,0,21,,,,,,,,15,,,45,72
47400,note_on,1,0,17,,,,,,,,11,,,73,72
47400,note_on,1,0,11,,,,,,,,6,,,33,72
47400,note_on,1,0,19,,,,,,,,13,,,64,72
47429,note_on,29,0,13,,,,,,,,8,,,45,0
47430,note_on,1,0,13,,,,,,,,8,,,45,72
47459,note_on,179,0,18,,,,,,,,12,,,69,0
47459,note_on,179,0,16,,,,,,,,10,,,57,0
47459,note_on,0,0,12,,,,,,,,7,,,69,0
47459,note_on,29,0,13,,,,,,,,8,,,45,0
47459,note_on,179,0,14,,,,,,,,10,,,69,0
47459,note_on,59,0,12,,,,,,,,7,,,57,0
47459,note_on,179,0,20,,,,,,,,14,,,57,0
47459,note_on,179,0,8,,,,,,,,3,,,69,0
47460,note_on,1,0,18,,,,,,,,12,,,69,72
47460,note_on,1,0,20,,,,,,,,14,,,57,72
47460,note_on,1,0,12,,,,,,,,7,,,69,76
47460,note_on,1,0,13,,,,,,,,8,,,45,72
47460,note_on,1,0,8,,,,,,,,3,,,69,72
47460,note_on,1,0,16,,,,,,,,10,,,57,72
47460,note_on,1,0,14,,,,,,,,10,,,69,72
47460,note_on,0,0,12,,,,,,,,7,,,57,76
47489,note_on,29,0,13,,,,,,,,8,,,45,0
47490,note_on,1,0,13,,,,,,,,8,,,45,72
47519,note_on,119,0,15,,,,,,,,10,,,64,0
47519,note_on,119,0,11,,,,,,,,6,,,33,0
47519,note_on,59,0,14,,,,,,,,10,,,69,0
47519,note_on,59,0,18,,,,,,,,12,,,69,0
47519,note_on,119,0,5,,,,,,,,0,,,64,0
47519,note_on,0,0,5,,,,,,,,0,,,73,0
47519,note_on,29,0,13,,,,,,,,8,,,45,0
47519,note_on,119,0,19,,,,,,,,13,,,64,0
47519,note_on,119,0,17,,,,,,,,11,,,73,0
47519,note_on,0,0,21,,,,,,,,15,,,64,0
47519,note_on,0,0,12,,,,,,,,7,,,69,0
47519,note_on,119,0,9,,,,,,,,4,,,64,0
47519,note_on,119,0,7,,,,,,,,2,,,73,0
47519,note_on,0,0,6,,,,,,,,1,,,64,0
47519,note_on,119,0,6,,,,,,,,1,,,45,0
47519,note_on,59,0,8,,,,,,,,3,,,69,0
47519,note_on,59,0,12,,,,,,,,7,,,57,0
47519,note_on,0,0,21,,,,,,,,15,,,73,0
47519,note_on,0,0,21,,,,,,,,15,,,45,0
47519,note_on,119,0,21,,,,,,,,15,,,69,0
47519,note_on,59,0,20,,,,,,,,14,,,57,0
47519,note_on,59,0,16,,,,,,,,10,,,57,0
47520,note_on,0,0,21,,,,,,,,15,,,62,72
47520,note_on,0,0,21,,,,,,,,15,,,65,72
47520,note_on,1,0,21,,,,,,,,15,,,50,72
47520,note_on,0,0,21,,,,,,,,15,,,69,72
47520,note_on,0,0,21,,,,,,,,15,,,74,72
47520,note_on,0,0,5,,,,,,,,0,,,62,72
47520,note_on,1,0,5,,,,,,,,0,,,74,72
47520,note_on,1,0,9,,,,,,,,4,,,62,72
47520,note_on,1,0,17,,,,,,,,11,,,74,72
47520,note_on,1,0,16,,,,,,,,10,,,50,72
47520,note_on,0,0,12,,,,,,,,7,,,62,76
47520,note_on,1,0,8,,,,,,,,3,,,69,72
47520,note_on,1,0,12,,,,,,,,7,,,69,76
47520,note_on,1,0,20,,,,,,,,14,,,50,72
47520,note_on,1,0,6,,,,,,,,1,,,62,72
47520,note_on,0,0,6,,,,,,,,1,,,50,72
47520,note_on,1,0,13,,,,,,,,8,,,50,72
47520,note_on,1,0,7,,,,,,,,2,,,74,72
47520,note_on,1,0,19,,,,,,,,13,,,62,72
47520,note_on,1,0,11,,,,,,,,6,,,38,72
47520,note_on,1,0,18,,,,,,,,12,,,69,72
47520,note_on,1,0,14,,,,,,,,10,,,69,72
47520,note_on,1,0,15,,,,,,,,10,,,62,72
47999,end_of_track,0,1,7,,,,,,,,,,,,
47999,note_on,0,0,21,,,,,,,,15,,,74,0
47999,note_on,0,0,12,,,,,,,,7,,,69,0
47999,note_on,479,0,12,,,,,,,,7,,,62,0
47999,note_on,0,0,21,,,,,,,,15,,,69,0
47999,note_on,0,0,21,,,,,,,,15,,,50,0
47999,note_on,479,0,21,,,,,,,,15,,,65,0
47999,note_on,479,0,20,,,,,,,,14,,,50,0
47999,end_of_track,0,1,20,,,,,,,,,,,,
47999,note_on,479,0,13,,,,,,,,8,,,50,0
47999,note_on,479,0,14,,,,,,,,10,,,69,0
47999,end_of_track,0,1,12,,,,,,,,,,,,
47999,end_of_track,0,1,14,,,,,,,,,,,,
47999,note_on,479,0,7,,,,,,,,2,,,74,0
47999,note_on,0,0,21,,,,,,,,15,,,62,0
47999,note_on,0,0,5,,,,,,,,0,,,74,0
47999,note_on,479,0,17,,,,,,,,11,,,74,0
47999,end_of_track,0,1,19,,,,,,,,,,,,
47999,note_on,479,0,5,,,,,,,,0,,,62,0
47999,end_of_track,0,1,11,,,,,,,,,,,,
47999,note_on,479,0,11,,,,,,,,6,,,38,0
47999,note_on,479,0,18,,,,,,,,12,,,69,0
47999,end_of_track,0,1,18,,,,,,,,,,,,
47999,end_of_track,0,1,13,,,,,,,,,,,,
47999,end_of_track,0,1,21,,,,,,,,,,,,
47999,note_on,479,0,15,,,,,,,,10,,,62,0
47999,end_of_track,0,1,9,,,,,,,,,,,,
47999,note_on,479,0,19,,,,,,,,13,,,62,0
47999,note_on,479,0,9,,,,,,,,4,,,62,0
47999,end_of_track,0,1,6,,,,,,,,,,,,
47999,note_on,0,0,6,,,,,,,,1,,,62,0
47999,note_on,479,0,6,,,,,,,,1,,,50,0
47999,end_of_track,0,1,8,,,,,,,,,,,,
47999,note_on,479,0,8,,,,,,,,3,,,69,0
47999,note_on,479,0,16,,,,,,,,10,,,50,0
47999,end_of_track,0,1,17,,,,,,,,,,,,
47999,end_of_track,0,1,5,,,,,,,,,,,,
47999,end_of_track,0,1,15,,,,,,,,,,,,
47999,end_of_track,0,1,16,,,,,,,,,,,,
48480,end_of_track,0,1,0,,,,,,,,,,,,
48480,set_tempo,1560,1,0,,,,,,1200000,,,,,,
