tick,type,time,meta,track,numerator,denominator,clocks_per_click,notated_32nd_notes_per_beat,key,tempo,program,channel,control,value,note,velocity
0,track_name,0,1,0,,,,,,,,,,,,
0,control_change,0,0,11,,,,,,,,6,7,96,,
0,program_change,0,0,11,,,,,,,48,6,,,,
0,track_name,0,1,11,,,,,,,,,,,,
0,control_change,0,0,10,,,,,,,,5,11,127,,
0,control_change,0,0,10,,,,,,,,5,10,24,,
0,control_change,0,0,10,,,,,,,,5,7,96,,
0,program_change,0,0,10,,,,,,,48,5,,,,
0,track_name,0,1,10,,,,,,,,,,,,
0,control_change,0,0,9,,,,,,,,4,11,127,,
0,control_change,0,0,9,,,,,,,,4,10,48,,
0,control_change,0,0,9,,,,,,,,4,7,96,,
0,program_change,0,0,9,,,,,,,48,4,,,,
0,track_name,0,1,9,,,,,,,,,,,,
0,control_change,0,0,8,,,,,,,,1,11,127,,
0,control_change,0,0,8,,,,,,,,1,10,65,,
0,control_change,0,0,8,,,,,,,,1,7,96,,
0,program_change,0,0,8,,,,,,,70,1,,,,
0,track_name,0,1,8,,,,,,,,,,,,
0,control_change,0,0,7,,,,,,,,1,11,127,,
0,control_change,0,0,7,,,,,,,,1,10,65,,
0,control_change,0,0,7,,,,,,,,1,7,96,,
0,program_change,0,0,7,,,,,,,70,1,,,,
0,track_name,0,1,7,,,,,,,,,,,,
0,note_on,0,0,6,,,,,,,,0,,,65,48
0,control_change,0,0,6,,,,,,,,0,11,127,,
0,control_change,0,0,6,,,,,,,,0,10,70,,
0,control_change,0,0,6,,,,,,,,0,7,96,,
0,control_change,0,0,11,,,,,,,,6,10,80,,
0,control_change,0,0,11,,,,,,,,6,11,127,,
0,track_name,0,1,12,,,,,,,,,,,,
0,program_change,0,0,12,,,,,,,48,7,,,,
0,control_change,0,0,17,,,,,,,,13,11,127,,
0,control_change,0,0,17,,,,,,,,13,10,80,,
0,control_change,0,0,17,,,,,,,,13,7,109,,
0,program_change,0,0,17,,,,,,,52,13,,,,
0,track_name,0,1,17,,,,,,,,,,,,
0,control_change,0,0,16,,,,,,,,12,11,127,,
0,control_change,0,0,16,,,,,,,,12,10,70,,
0,control_change,0,0,16,,,,,,,,12,7,110,,
0,program_change,0,0,16,,,,,,,52,12,,,,
0,track_name,0,1,16,,,,,,,,,,,,
0,control_change,0,0,15,,,,,,,,11,11,127,,
0,control_change,0,0,15,,,,,,,,11,10,60,,
0,control_change,0,0,15,,,,,,,,11,7,100,,
0,program_change,0,0,6,,,,,,,71,0,,,,
0,program_change,0,0,15,,,,,,,52,11,,,,
0,control_change,0,0,14,,,,,,,,10,11,127,,
0,control_change,0,0,14,,,,,,,,10,10,50,,
0,control_change,0,0,14,,,,,,,,10,7,101,,
0,program_change,0,0,14,,,,,,,52,10,,,,
0,track_name,0,1,14,,,,,,,,,,,,
0,control_change,0,0,13,,,,,,,,8,11,127,,
0,control_change,0,0,13,,,,,,,,8,10,112,,
0,control_change,0,0,13,,,,,,,,8,7,104,,
0,program_change,0,0,13,,,,,,,48,8,,,,
0,track_name,0,1,13,,,,,,,,,,,,
0,control_change,0,0,12,,,,,,,,7,11,127,,
0,control_change,0,0,12,,,,,,,,7,10,96,,
0,control_change,0,0,12,,,,,,,,7,7,96,,
0,track_name,0,1,15,,,,,,,,,,,,
0,track_name,0,1,6,,,,,,,,,,,,
0,end_of_track,0,1,18,,,,,,,,,,,,
0,program_change,0,0,5,,,,,,,71,0,,,,
0,marker,0,1,0,,,,,,,,,,,,
0,set_tempo,0,1,0,,,,,,923077,,,,,,
0,key_signature,0,1,0,,,,,F,,,,,,,
0,time_signature,0,1,0,3,4,24,8,,,,,,,,
0,control_change,0,0,5,,,,,,,,0,10,70,,
0,control_change,0,0,5,,,,,,,,0,11,127,,
0,end_of_track,0,1,2,,,,,,,,,,,,
0,track_name,0,1,3,,,,,,,,,,,,
0,end_of_track,0,1,3,,,,,,,,,,,,
0,control_change,0,0,5,,,,,,,,0,7,96,,
0,track_name,0,1,1,,,,,,,,,,,,
0,track_name,0,1,2,,,,,,,,,,,,
0,end_of_track,0,1,1,,,,,,,,,,,,
0,end_of_track,0,1,4,,,,,,,,,,,,
0,track_name,0,1,5,,,,,,,,,,,,
60,note_on,60,0,12,,,,,,,,7,,,65,48
89,note_on,29,0,12,,,,,,,,7,,,65,0
90,note_on,1,0,12,,,,,,,,7,,,64,48
119,note_on,29,0,12,,,,,,,,7,,,64,0
120,note_on,1,0,12,,,,,,,,7,,,62,48
179,note_on,59,0,12,,,,,,,,7,,,62,0
180,note_on,1,0,12,,,,,,,,7,,,60,48
239,note_on,59,0,12,,,,,,,,7,,,60,0
240,note_on,1,0,12,,,,,,,,7,,,58,48
299,note_on,59,0,12,,,,,,,,7,,,58,0
300,note_on,1,0,12,,,,,,,,7,,,57,48
359,note_on,59,0,12,,,,,,,,7,,,57,0
360,note_on,360,0,5,,,,,,,,0,,,67,48
360,note_on,1,0,12,,,,,,,,7,,,58,48
419,note_on,59,0,12,,,,,,,,7,,,58,0
420,note_on,1,0,12,,,,,,,,7,,,55,48
479,note_on,59,0,12,,,,,,,,7,,,55,0
479,note_on,479,0,6,,,,,,,,0,,,65,0
480,note_on,1,0,6,,,,,,,,0,,,64,48
480,note_on,1,0,12,,,,,,,,7,,,60,48
539,note_on,59,0,12,,,,,,,,7,,,60,0
540,note_on,1,0,12,,,,,,,,7,,,58,48
599,note_on,119,0,6,,,,,,,,0,,,64,0
599,note_on,59,0,12,,,,,,,,7,,,58,0
600,note_on,1,0,12,,,,,,,,7,,,57,48
600,note_on,1,0,6,,,,,,,,0,,,70,48
659,note_on,59,0,12,,,,,,,,7,,,57,0
660,note_on,1,0,12,,,,,,,,7,,,55,48
719,note_on,119,0,6,,,,,,,,0,,,70,0
719,note_on,59,0,12,,,,,,,,7,,,55,0
720,note_on,1,0,12,,,,,,,,7,,,53,48
720,note_on,1,0,6,,,,,,,,0,,,69,48
779,note_on,59,0,12,,,,,,,,7,,,53,0
780,note_on,1,0,12,,,,,,,,7,,,61,48
839,note_on,479,0,5,,,,,,,,0,,,67,0
839,note_on,59,0,12,,,,,,,,7,,,61,0
840,note_on,1,0,5,,,,,,,,0,,,65,48
840,note_on,1,0,12,,,,,,,,7,,,62,48
869,note_on,29,0,12,,,,,,,,7,,,62,0
900,note_on,31,0,12,,,,,,,,7,,,53,48
929,note_on,29,0,12,,,,,,,,7,,,53,0
959,note_on,119,0,5,,,,,,,,0,,,65,0
960,note_on,1,0,5,,,,,,,,0,,,72,48
960,note_on,31,0,12,,,,,,,,7,,,53,48
974,note_on,14,0,12,,,,,,,,7,,,53,0
975,note_on,1,0,12,,,,,,,,7,,,55,48
989,note_on,14,0,12,,,,,,,,7,,,55,0
990,note_on,1,0,12,,,,,,,,7,,,53,48
1004,note_on,14,0,12,,,,,,,,7,,,53,0
1005,note_on,1,0,12,,,,,,,,7,,,55,48
1019,note_on,14,0,12,,,,,,,,7,,,55,0
1020,note_on,1,0,12,,,,,,,,7,,,53,48
1034,note_on,14,0,12,,,,,,,,7,,,53,0
1035,note_on,1,0,12,,,,,,,,7,,,55,48
1049,note_on,14,0,12,,,,,,,,7,,,55,0
1050,note_on,1,0,12,,,,,,,,7,,,52,48
1064,note_on,14,0,12,,,,,,,,7,,,52,0
1065,note_on,1,0,12,,,,,,,,7,,,53,48
1079,note_on,14,0,12,,,,,,,,7,,,53,0
1079,note_on,119,0,5,,,,,,,,0,,,72,0
1080,note_on,1,0,12,,,,,,,,7,,,55,48
1080,note_on,1,0,5,,,,,,,,0,,,70,48
1139,note_on,59,0,12,,,,,,,,7,,,55,0
1140,note_on,1,0,12,,,,,,,,7,,,62,48
1199,note_on,59,0,12,,,,,,,,7,,,62,0
1199,note_on,479,0,6,,,,,,,,0,,,69,0
1200,note_on,1,0,12,,,,,,,,7,,,64,48
1200,note_on,1,0,6,,,,,,,,0,,,67,48
1229,note_on,29,0,12,,,,,,,,7,,,64,0
1260,note_on,31,0,12,,,,,,,,7,,,55,48
1289,note_on,29,0,12,,,,,,,,7,,,55,0
1319,note_on,119,0,6,,,,,,,,0,,,67,0
1320,note_on,31,0,12,,,,,,,,7,,,55,48
1320,note_on,1,0,6,,,,,,,,0,,,74,48
1334,note_on,14,0,12,,,,,,,,7,,,55,0
1335,note_on,1,0,12,,,,,,,,7,,,57,48
1349,note_on,14,0,12,,,,,,,,7,,,57,0
1350,note_on,1,0,12,,,,,,,,7,,,55,48
1364,note_on,14,0,12,,,,,,,,7,,,55,0
1365,note_on,1,0,12,,,,,,,,7,,,57,48
1379,note_on,14,0,12,,,,,,,,7,,,57,0
1380,note_on,1,0,12,,,,,,,,7,,,55,48
1394,note_on,14,0,12,,,,,,,,7,,,55,0
1395,note_on,1,0,12,,,,,,,,7,,,57,48
1409,note_on,14,0,12,,,,,,,,7,,,57,0
1410,note_on,1,0,12,,,,,,,,7,,,53,48
1424,note_on,14,0,12,,,,,,,,7,,,53,0
1425,note_on,1,0,12,,,,,,,,7,,,55,48
1439,note_on,14,0,12,,,,,,,,7,,,55,0
1439,note_on,119,0,6,,,,,,,,0,,,74,0
1440,note_on,1,0,6,,,,,,,,0,,,72,48
1440,note_on,1,0,12,,,,,,,,7,,,57,48
1499,note_on,59,0,12,,,,,,,,7,,,57,0
1500,note_on,1,0,12,,,,,,,,7,,,64,48
1559,note_on,59,0,12,,,,,,,,7,,,64,0
1559,note_on,479,0,5,,,,,,,,0,,,70,0
1560,note_on,1,0,12,,,,,,,,7,,,65,48
1560,note_on,1,0,5,,,,,,,,0,,,69,48
1589,note_on,29,0,12,,,,,,,,7,,,65,0
1620,note_on,31,0,12,,,,,,,,7,,,57,48
1649,note_on,29,0,12,,,,,,,,7,,,57,0
1679,note_on,119,0,5,,,,,,,,0,,,69,0
1680,note_on,31,0,12,,,,,,,,7,,,57,48
1680,note_on,1,0,5,,,,,,,,0,,,75,48
1694,note_on,14,0,12,,,,,,,,7,,,57,0
1695,note_on,1,0,12,,,,,,,,7,,,58,48
1709,note_on,14,0,12,,,,,,,,7,,,58,0
1710,note_on,1,0,12,,,,,,,,7,,,57,48
1724,note_on,14,0,12,,,,,,,,7,,,57,0
1725,note_on,1,0,12,,,,,,,,7,,,58,48
1739,note_on,14,0,12,,,,,,,,7,,,58,0
1740,note_on,1,0,12,,,,,,,,7,,,57,48
1754,note_on,14,0,12,,,,,,,,7,,,57,0
1755,note_on,1,0,12,,,,,,,,7,,,58,48
1769,note_on,14,0,12,,,,,,,,7,,,58,0
1770,note_on,1,0,12,,,,,,,,7,,,55,48
1784,note_on,14,0,12,,,,,,,,7,,,55,0
1785,note_on,1,0,12,,,,,,,,7,,,57,48
1799,note_on,14,0,12,,,,,,,,7,,,57,0
1799,note_on,119,0,5,,,,,,,,0,,,75,0
1800,note_on,1,0,5,,,,,,,,0,,,74,48
1800,note_on,1,0,12,,,,,,,,7,,,58,48
1859,note_on,59,0,12,,,,,,,,7,,,58,0
1860,note_on,1,0,12,,,,,,,,7,,,54,48
1919,note_on,59,0,12,,,,,,,,7,,,54,0
1919,note_on,479,0,6,,,,,,,,0,,,72,0
1920,note_on,1,0,6,,,,,,,,0,,,70,48
1920,note_on,1,0,12,,,,,,,,7,,,55,48
1979,note_on,59,0,6,,,,,,,,0,,,70,0
1979,note_on,59,0,12,,,,,,,,7,,,55,0
1979,note_on,179,0,5,,,,,,,,0,,,74,0
1980,note_on,1,0,6,,,,,,,,0,,,69,48
1980,note_on,1,0,12,,,,,,,,7,,,57,48
1980,note_on,1,0,5,,,,,,,,0,,,72,48
2039,note_on,59,0,5,,,,,,,,0,,,72,0
2039,note_on,59,0,12,,,,,,,,7,,,57,0
2039,note_on,59,0,6,,,,,,,,0,,,69,0
2040,note_on,1,0,5,,,,,,,,0,,,70,48
2040,note_on,1,0,12,,,,,,,,7,,,58,48
2040,note_on,1,0,6,,,,,,,,0,,,67,48
2099,note_on,59,0,6,,,,,,,,0,,,67,0
2099,note_on,59,0,12,,,,,,,,7,,,58,0
2099,note_on,59,0,5,,,,,,,,0,,,70,0
2100,note_on,1,0,6,,,,,,,,0,,,65,48
2100,note_on,1,0,12,,,,,,,,7,,,59,48
2100,note_on,1,0,5,,,,,,,,0,,,69,48
2159,note_on,59,0,5,,,,,,,,0,,,69,0
2159,note_on,59,0,6,,,,,,,,0,,,65,0
2159,note_on,59,0,12,,,,,,,,7,,,59,0
2160,note_on,1,0,12,,,,,,,,7,,,60,48
2160,note_on,1,0,6,,,,,,,,0,,,64,48
2160,note_on,1,0,5,,,,,,,,0,,,67,48
2220,note_on,2220,0,9,,,,,,,,4,,,79,48
2249,note_on,29,0,9,,,,,,,,4,,,79,0
2250,note_on,1,0,9,,,,,,,,4,,,77,48
2279,note_on,119,0,6,,,,,,,,0,,,64,0
2279,note_on,119,0,12,,,,,,,,7,,,60,0
2279,note_on,29,0,9,,,,,,,,4,,,77,0
2279,note_on,119,0,5,,,,,,,,0,,,67,0
2280,note_on,1,0,9,,,,,,,,4,,,76,48
2280,note_on,2280,0,13,,,,,,,,8,,,36,48
2339,note_on,59,0,9,,,,,,,,4,,,76,0
2340,note_on,1,0,9,,,,,,,,4,,,74,48
2340,note_on,2340,0,11,,,,,,,,6,,,48,48
2340,note_on,2340,0,10,,,,,,,,5,,,79,48
2369,note_on,29,0,10,,,,,,,,5,,,79,0
2370,note_on,1,0,10,,,,,,,,5,,,77,48
2399,note_on,59,0,11,,,,,,,,6,,,48,0
2399,note_on,29,0,10,,,,,,,,5,,,77,0
2399,note_on,59,0,9,,,,,,,,4,,,74,0
2400,note_on,1,0,11,,,,,,,,6,,,50,48
2400,note_on,1,0,10,,,,,,,,5,,,76,48
2400,note_on,1,0,9,,,,,,,,4,,,72,48
2459,note_on,59,0,10,,,,,,,,5,,,76,0
2459,note_on,59,0,9,,,,,,,,4,,,72,0
2459,note_on,59,0,11,,,,,,,,6,,,50,0
2460,note_on,1,0,9,,,,,,,,4,,,70,48
2460,note_on,1,0,11,,,,,,,,6,,,52,48
2460,note_on,1,0,10,,,,,,,,5,,,74,48
2519,note_on,59,0,11,,,,,,,,6,,,52,0
2519,note_on,59,0,9,,,,,,,,4,,,70,0
2519,note_on,59,0,10,,,,,,,,5,,,74,0
2520,note_on,1,0,9,,,,,,,,4,,,69,48
2520,note_on,1,0,11,,,,,,,,6,,,53,48
2520,note_on,1,0,10,,,,,,,,5,,,72,48
2534,note_on,14,0,11,,,,,,,,6,,,53,0
2535,note_on,1,0,11,,,,,,,,6,,,55,48
2549,note_on,14,0,11,,,,,,,,6,,,55,0
2550,note_on,1,0,11,,,,,,,,6,,,53,48
2564,note_on,14,0,11,,,,,,,,6,,,53,0
2565,note_on,1,0,11,,,,,,,,6,,,55,48
2579,note_on,59,0,10,,,,,,,,5,,,72,0
2579,note_on,59,0,9,,,,,,,,4,,,69,0
2579,note_on,14,0,11,,,,,,,,6,,,55,0
2580,note_on,1,0,10,,,,,,,,5,,,70,48
2580,note_on,1,0,11,,,,,,,,6,,,53,48
2580,note_on,1,0,9,,,,,,,,4,,,81,48
2594,note_on,14,0,11,,,,,,,,6,,,53,0
2595,note_on,1,0,11,,,,,,,,6,,,55,48
2609,note_on,29,0,9,,,,,,,,4,,,81,0
2609,note_on,14,0,11,,,,,,,,6,,,55,0
2610,note_on,1,0,11,,,,,,,,6,,,55,48
2610,note_on,1,0,9,,,,,,,,4,,,79,48
2639,note_on,29,0,11,,,,,,,,6,,,55,0
2639,note_on,59,0,10,,,,,,,,5,,,70,0
2639,note_on,29,0,9,,,,,,,,4,,,79,0
2639,note_on,359,0,13,,,,,,,,8,,,36,0
2640,note_on,1,0,13,,,,,,,,8,,,36,48
2640,note_on,1,0,11,,,,,,,,6,,,57,48
2640,note_on,1,0,9,,,,,,,,4,,,77,48
2640,note_on,1,0,10,,,,,,,,5,,,69,48
2699,note_on,59,0,11,,,,,,,,6,,,57,0
2699,note_on,59,0,10,,,,,,,,5,,,69,0
2699,note_on,59,0,9,,,,,,,,4,,,77,0
2700,note_on,1,0,11,,,,,,,,6,,,50,48
2700,note_on,1,0,10,,,,,,,,5,,,81,48
2700,note_on,1,0,9,,,,,,,,4,,,76,48
2729,note_on,29,0,10,,,,,,,,5,,,81,0
2730,note_on,1,0,10,,,,,,,,5,,,79,48
2759,note_on,59,0,11,,,,,,,,6,,,50,0
2759,note_on,59,0,9,,,,,,,,4,,,76,0
2759,note_on,29,0,10,,,,,,,,5,,,79,0
2760,note_on,1,0,9,,,,,,,,4,,,74,48
2760,note_on,1,0,10,,,,,,,,5,,,77,48
2760,note_on,1,0,11,,,,,,,,6,,,52,48
2819,note_on,59,0,9,,,,,,,,4,,,74,0
2819,note_on,59,0,10,,,,,,,,5,,,77,0
2819,note_on,59,0,11,,,,,,,,6,,,52,0
2820,note_on,1,0,9,,,,,,,,4,,,72,48
2820,note_on,1,0,10,,,,,,,,5,,,76,48
2820,note_on,1,0,11,,,,,,,,6,,,53,48
2879,note_on,59,0,11,,,,,,,,6,,,53,0
2879,note_on,59,0,10,,,,,,,,5,,,76,0
2879,note_on,59,0,9,,,,,,,,4,,,72,0
2880,note_on,1,0,9,,,,,,,,4,,,70,48
2880,note_on,1,0,10,,,,,,,,5,,,74,48
2880,note_on,1,0,11,,,,,,,,6,,,55,48
2894,note_on,14,0,11,,,,,,,,6,,,55,0
2895,note_on,1,0,11,,,,,,,,6,,,57,48
2909,note_on,14,0,11,,,,,,,,6,,,57,0
2910,note_on,1,0,11,,,,,,,,6,,,55,48
2924,note_on,14,0,11,,,,,,,,6,,,55,0
2925,note_on,1,0,11,,,,,,,,6,,,57,48
2939,note_on,14,0,11,,,,,,,,6,,,57,0
2939,note_on,59,0,9,,,,,,,,4,,,70,0
2939,note_on,59,0,10,,,,,,,,5,,,74,0
2940,note_on,1,0,10,,,,,,,,5,,,72,48
2940,note_on,1,0,9,,,,,,,,4,,,82,48
2940,note_on,1,0,11,,,,,,,,6,,,55,48
2954,note_on,14,0,11,,,,,,,,6,,,55,0
2955,note_on,1,0,11,,,,,,,,6,,,57,48
2969,note_on,14,0,11,,,,,,,,6,,,57,0
2969,note_on,29,0,9,,,,,,,,4,,,82,0
2970,note_on,1,0,9,,,,,,,,4,,,81,48
2970,note_on,1,0,11,,,,,,,,6,,,57,48
2999,note_on,29,0,11,,,,,,,,6,,,57,0
2999,note_on,59,0,10,,,,,,,,5,,,72,0
2999,note_on,359,0,13,,,,,,,,8,,,36,0
2999,note_on,29,0,9,,,,,,,,4,,,81,0
3000,note_on,1,0,10,,,,,,,,5,,,70,48
3000,note_on,1,0,11,,,,,,,,6,,,58,48
3000,note_on,1,0,13,,,,,,,,8,,,36,48
3000,note_on,1,0,9,,,,,,,,4,,,79,48
3059,note_on,59,0,10,,,,,,,,5,,,70,0
3059,note_on,59,0,11,,,,,,,,6,,,58,0
3059,note_on,59,0,9,,,,,,,,4,,,79,0
3060,note_on,1,0,11,,,,,,,,6,,,52,48
3060,note_on,1,0,10,,,,,,,,5,,,82,48
3060,note_on,1,0,9,,,,,,,,4,,,77,48
3089,note_on,29,0,10,,,,,,,,5,,,82,0
3090,note_on,1,0,10,,,,,,,,5,,,81,48
3119,note_on,59,0,9,,,,,,,,4,,,77,0
3119,note_on,59,0,11,,,,,,,,6,,,52,0
3119,note_on,29,0,10,,,,,,,,5,,,81,0
3120,note_on,1,0,10,,,,,,,,5,,,79,48
3120,note_on,1,0,9,,,,,,,,4,,,76,48
3120,note_on,1,0,11,,,,,,,,6,,,53,48
3179,note_on,59,0,10,,,,,,,,5,,,79,0
3179,note_on,59,0,9,,,,,,,,4,,,76,0
3179,note_on,59,0,11,,,,,,,,6,,,53,0
3180,note_on,1,0,10,,,,,,,,5,,,77,48
3180,note_on,1,0,9,,,,,,,,4,,,74,48
3180,note_on,1,0,11,,,,,,,,6,,,55,48
3239,note_on,59,0,10,,,,,,,,5,,,77,0
3239,note_on,59,0,9,,,,,,,,4,,,74,0
3239,note_on,59,0,11,,,,,,,,6,,,55,0
3240,note_on,1,0,10,,,,,,,,5,,,76,48
3240,note_on,1,0,9,,,,,,,,4,,,72,48
3240,note_on,1,0,11,,,,,,,,6,,,57,48
3254,note_on,14,0,11,,,,,,,,6,,,57,0
3255,note_on,1,0,11,,,,,,,,6,,,58,48
3269,note_on,14,0,11,,,,,,,,6,,,58,0
3270,note_on,1,0,11,,,,,,,,6,,,57,48
3284,note_on,14,0,11,,,,,,,,6,,,57,0
3285,note_on,1,0,11,,,,,,,,6,,,58,48
3299,note_on,59,0,10,,,,,,,,5,,,76,0
3299,note_on,59,0,9,,,,,,,,4,,,72,0
3299,note_on,14,0,11,,,,,,,,6,,,58,0
3300,note_on,1,0,9,,,,,,,,4,,,84,48
3300,note_on,1,0,10,,,,,,,,5,,,74,48
3300,note_on,1,0,11,,,,,,,,6,,,57,48
3314,note_on,14,0,11,,,,,,,,6,,,57,0
3315,note_on,1,0,11,,,,,,,,6,,,58,48
3329,note_on,29,0,9,,,,,,,,4,,,84,0
3329,note_on,14,0,11,,,,,,,,6,,,58,0
3330,note_on,1,0,11,,,,,,,,6,,,58,48
3330,note_on,1,0,9,,,,,,,,4,,,82,48
3359,note_on,59,0,10,,,,,,,,5,,,74,0
3359,note_on,359,0,13,,,,,,,,8,,,36,0
3359,note_on,29,0,11,,,,,,,,6,,,58,0
3359,note_on,29,0,9,,,,,,,,4,,,82,0
3360,note_on,1,0,10,,,,,,,,5,,,72,48
3360,note_on,1,0,9,,,,,,,,4,,,81,48
3360,note_on,1,0,13,,,,,,,,8,,,36,48
3360,note_on,1,0,11,,,,,,,,6,,,60,48
3419,note_on,59,0,11,,,,,,,,6,,,60,0
3419,note_on,59,0,10,,,,,,,,5,,,72,0
3419,note_on,59,0,9,,,,,,,,4,,,81,0
3420,note_on,1,0,10,,,,,,,,5,,,84,48
3420,note_on,1,0,9,,,,,,,,4,,,79,48
3420,note_on,1,0,11,,,,,,,,6,,,53,48
3449,note_on,29,0,10,,,,,,,,5,,,84,0
3450,note_on,1,0,10,,,,,,,,5,,,82,48
3479,note_on,59,0,11,,,,,,,,6,,,53,0
3479,note_on,29,0,10,,,,,,,,5,,,82,0
3479,note_on,59,0,9,,,,,,,,4,,,79,0
3480,note_on,1,0,9,,,,,,,,4,,,77,48
3480,note_on,1,0,11,,,,,,,,6,,,55,48
3480,note_on,1,0,10,,,,,,,,5,,,81,48
3539,note_on,59,0,11,,,,,,,,6,,,55,0
3539,note_on,59,0,9,,,,,,,,4,,,77,0
3539,note_on,59,0,10,,,,,,,,5,,,81,0
3540,note_on,1,0,10,,,,,,,,5,,,79,48
3540,note_on,1,0,9,,,,,,,,4,,,76,48
3540,note_on,1,0,11,,,,,,,,6,,,57,48
3599,note_on,59,0,9,,,,,,,,4,,,76,0
3599,note_on,59,0,10,,,,,,,,5,,,79,0
3599,note_on,59,0,11,,,,,,,,6,,,57,0
3600,note_on,1,0,11,,,,,,,,6,,,58,48
3600,note_on,1,0,9,,,,,,,,4,,,74,48
3600,note_on,1,0,10,,,,,,,,5,,,77,48
3614,note_on,14,0,11,,,,,,,,6,,,58,0
3615,note_on,1,0,11,,,,,,,,6,,,60,48
3629,note_on,14,0,11,,,,,,,,6,,,60,0
3630,note_on,1,0,11,,,,,,,,6,,,58,48
3644,note_on,14,0,11,,,,,,,,6,,,58,0
3645,note_on,1,0,11,,,,,,,,6,,,60,48
3659,note_on,59,0,9,,,,,,,,4,,,74,0
3659,note_on,59,0,10,,,,,,,,5,,,77,0
3659,note_on,14,0,11,,,,,,,,6,,,60,0
3660,note_on,1,0,9,,,,,,,,4,,,86,48
3660,note_on,1,0,11,,,,,,,,6,,,58,48
3660,note_on,1,0,10,,,,,,,,5,,,76,48
3674,note_on,14,0,11,,,,,,,,6,,,58,0
3675,note_on,1,0,11,,,,,,,,6,,,60,48
3689,note_on,29,0,9,,,,,,,,4,,,86,0
3689,note_on,14,0,11,,,,,,,,6,,,60,0
3690,note_on,1,0,11,,,,,,,,6,,,60,48
3690,note_on,1,0,9,,,,,,,,4,,,84,48
3719,note_on,29,0,11,,,,,,,,6,,,60,0
3719,note_on,29,0,9,,,,,,,,4,,,84,0
3719,note_on,59,0,10,,,,,,,,5,,,76,0
3719,note_on,359,0,13,,,,,,,,8,,,36,0
3720,note_on,1,0,10,,,,,,,,5,,,74,48
3720,note_on,1,0,13,,,,,,,,8,,,36,48
3720,note_on,1,0,9,,,,,,,,4,,,82,48
3720,note_on,1,0,11,,,,,,,,6,,,62,48
3779,note_on,59,0,9,,,,,,,,4,,,82,0
3779,note_on,59,0,10,,,,,,,,5,,,74,0
3779,note_on,59,0,11,,,,,,,,6,,,62,0
3780,note_on,1,0,11,,,,,,,,6,,,55,48
3780,note_on,1,0,9,,,,,,,,4,,,81,48
3780,note_on,1,0,10,,,,,,,,5,,,74,48
3809,note_on,29,0,10,,,,,,,,5,,,74,0
3810,note_on,1,0,10,,,,,,,,5,,,72,48
3839,note_on,59,0,11,,,,,,,,6,,,55,0
3839,note_on,59,0,9,,,,,,,,4,,,81,0
3839,note_on,29,0,10,,,,,,,,5,,,72,0
3840,note_on,1,0,11,,,,,,,,6,,,57,48
3840,note_on,1,0,9,,,,,,,,4,,,79,48
3840,note_on,1,0,10,,,,,,,,5,,,70,48
3899,note_on,59,0,9,,,,,,,,4,,,79,0
3899,note_on,59,0,11,,,,,,,,6,,,57,0
3899,note_on,59,0,10,,,,,,,,5,,,70,0
3900,note_on,1,0,11,,,,,,,,6,,,58,48
3900,note_on,1,0,9,,,,,,,,4,,,77,48
3900,note_on,1,0,10,,,,,,,,5,,,69,48
3959,note_on,59,0,11,,,,,,,,6,,,58,0
3959,note_on,59,0,9,,,,,,,,4,,,77,0
3959,note_on,59,0,10,,,,,,,,5,,,69,0
3960,note_on,1,0,11,,,,,,,,6,,,60,48
3960,note_on,1,0,9,,,,,,,,4,,,76,48
3960,note_on,1,0,10,,,,,,,,5,,,67,48
4019,note_on,59,0,9,,,,,,,,4,,,76,0
4019,note_on,59,0,10,,,,,,,,5,,,67,0
4020,note_on,1,0,10,,,,,,,,5,,,65,48
4020,note_on,1,0,9,,,,,,,,4,,,74,48
4079,note_on,359,0,13,,,,,,,,8,,,36,0
4079,note_on,59,0,9,,,,,,,,4,,,74,0
4079,note_on,59,0,10,,,,,,,,5,,,65,0
4080,note_on,1,0,13,,,,,,,,8,,,36,48
4080,note_on,1,0,9,,,,,,,,4,,,72,48
4080,note_on,1,0,10,,,,,,,,5,,,64,48
4139,note_on,59,0,10,,,,,,,,5,,,64,0
4139,note_on,59,0,9,,,,,,,,4,,,72,0
4139,note_on,179,0,11,,,,,,,,6,,,60,0
4140,note_on,1,0,10,,,,,,,,5,,,62,48
4140,note_on,1,0,9,,,,,,,,4,,,70,48
4140,note_on,1,0,11,,,,,,,,6,,,48,48
4199,note_on,119,0,13,,,,,,,,8,,,36,0
4199,note_on,59,0,10,,,,,,,,5,,,62,0
4199,note_on,59,0,11,,,,,,,,6,,,48,0
4199,note_on,59,0,9,,,,,,,,4,,,70,0
4200,note_on,1,0,13,,,,,,,,8,,,36,48
4200,note_on,1,0,9,,,,,,,,4,,,69,48
4200,note_on,1,0,10,,,,,,,,5,,,60,48
4200,note_on,1,0,11,,,,,,,,6,,,50,48
4259,note_on,59,0,9,,,,,,,,4,,,69,0
4259,note_on,59,0,10,,,,,,,,5,,,60,0
4259,note_on,59,0,11,,,,,,,,6,,,50,0
4260,note_on,1,0,10,,,,,,,,5,,,58,48
4260,note_on,1,0,11,,,,,,,,6,,,52,48
4260,note_on,1,0,9,,,,,,,,4,,,67,48
4319,note_on,119,0,13,,,,,,,,8,,,36,0
4319,note_on,59,0,10,,,,,,,,5,,,58,0
4319,note_on,59,0,11,,,,,,,,6,,,52,0
4319,note_on,59,0,9,,,,,,,,4,,,67,0
4320,note_on,1,0,10,,,,,,,,5,,,57,48
4320,note_on,1,0,11,,,,,,,,6,,,53,48
4320,note_on,1,0,9,,,,,,,,4,,,65,48
4320,note_on,1,0,13,,,,,,,,8,,,38,48
4349,note_on,29,0,13,,,,,,,,8,,,38,0
4379,note_on,59,0,10,,,,,,,,5,,,57,0
4379,note_on,59,0,11,,,,,,,,6,,,53,0
4380,note_on,31,0,13,,,,,,,,8,,,45,48
4380,note_on,1,0,11,,,,,,,,6,,,60,48
4380,note_on,1,0,10,,,,,,,,5,,,65,48
4409,note_on,89,0,9,,,,,,,,4,,,65,0
4410,note_on,1,0,9,,,,,,,,4,,,67,48
4439,note_on,59,0,11,,,,,,,,6,,,60,0
4439,note_on,59,0,13,,,,,,,,8,,,45,0
4439,note_on,29,0,9,,,,,,,,4,,,67,0
4440,note_on,1,0,13,,,,,,,,8,,,46,48
4440,note_on,1,0,9,,,,,,,,4,,,67,48
4440,note_on,1,0,11,,,,,,,,6,,,62,48
4454,note_on,14,0,9,,,,,,,,4,,,67,0
4455,note_on,1,0,9,,,,,,,,4,,,69,48
4469,note_on,14,0,9,,,,,,,,4,,,69,0
4470,note_on,1,0,9,,,,,,,,4,,,67,48
4484,note_on,14,0,9,,,,,,,,4,,,67,0
4485,note_on,1,0,9,,,,,,,,4,,,69,48
4499,note_on,59,0,11,,,,,,,,6,,,62,0
4499,note_on,119,0,10,,,,,,,,5,,,65,0
4499,note_on,59,0,13,,,,,,,,8,,,46,0
4499,note_on,14,0,9,,,,,,,,4,,,69,0
4500,note_on,1,0,13,,,,,,,,8,,,43,48
4500,note_on,1,0,11,,,,,,,,6,,,58,48
4500,note_on,1,0,9,,,,,,,,4,,,67,48
4500,note_on,1,0,10,,,,,,,,5,,,64,48
4514,note_on,14,0,9,,,,,,,,4,,,67,0
4515,note_on,1,0,9,,,,,,,,4,,,69,48
4529,note_on,29,0,10,,,,,,,,5,,,64,0
4529,note_on,14,0,9,,,,,,,,4,,,69,0
4530,note_on,1,0,10,,,,,,,,5,,,62,48
4530,note_on,1,0,9,,,,,,,,4,,,67,48
4544,note_on,14,0,9,,,,,,,,4,,,67,0
4545,note_on,1,0,9,,,,,,,,4,,,69,48
4559,note_on,29,0,10,,,,,,,,5,,,62,0
4559,note_on,59,0,11,,,,,,,,6,,,58,0
4559,note_on,59,0,13,,,,,,,,8,,,43,0
4559,note_on,14,0,9,,,,,,,,4,,,69,0
4560,note_on,1,0,10,,,,,,,,5,,,64,48
4560,note_on,1,0,13,,,,,,,,8,,,48,48
4560,note_on,1,0,11,,,,,,,,6,,,55,48
4560,note_on,1,0,9,,,,,,,,4,,,67,48
4574,note_on,14,0,9,,,,,,,,4,,,67,0
4575,note_on,1,0,9,,,,,,,,4,,,69,48
4589,note_on,14,0,9,,,,,,,,4,,,69,0
4590,note_on,1,0,9,,,,,,,,4,,,67,48
4604,note_on,14,0,9,,,,,,,,4,,,67,0
4605,note_on,1,0,9,,,,,,,,4,,,69,48
4619,note_on,59,0,13,,,,,,,,8,,,48,0
4619,note_on,59,0,11,,,,,,,,6,,,55,0
4619,note_on,14,0,9,,,,,,,,4,,,69,0
4620,note_on,1,0,13,,,,,,,,8,,,36,48
4620,note_on,1,0,9,,,,,,,,4,,,67,48
4620,note_on,1,0,11,,,,,,,,6,,,60,48
4634,note_on,14,0,9,,,,,,,,4,,,67,0
4635,note_on,1,0,9,,,,,,,,4,,,69,48
4649,note_on,29,0,13,,,,,,,,8,,,36,0
4649,note_on,14,0,9,,,,,,,,4,,,69,0
4650,note_on,1,0,9,,,,,,,,4,,,65,48
4664,note_on,14,0,9,,,,,,,,4,,,65,0
4665,note_on,1,0,9,,,,,,,,4,,,67,48
4679,note_on,14,0,9,,,,,,,,4,,,67,0
4679,note_on,119,0,10,,,,,,,,5,,,64,0
4679,note_on,59,0,11,,,,,,,,6,,,60,0
4680,note_on,1,0,10,,,,,,,,5,,,65,48
4680,note_on,31,0,13,,,,,,,,8,,,41,48
4680,note_on,1,0,9,,,,,,,,4,,,65,48
4680,note_on,4680,0,15,,,,,,,,11,,,65,60
4680,note_on,1,0,11,,,,,,,,6,,,57,48
4739,note_on,59,0,13,,,,,,,,8,,,41,0
4739,note_on,59,0,11,,,,,,,,6,,,57,0
4740,note_on,1,0,13,,,,,,,,8,,,29,48
4769,note_on,29,0,13,,,,,,,,8,,,29,0
4770,note_on,1,0,13,,,,,,,,8,,,31,48
4799,note_on,119,0,9,,,,,,,,4,,,65,0
4799,note_on,29,0,13,,,,,,,,8,,,31,0
4800,note_on,1,0,13,,,,,,,,8,,,33,48
4859,note_on,59,0,13,,,,,,,,8,,,33,0
4860,note_on,1,0,13,,,,,,,,8,,,34,48
4919,note_on,59,0,13,,,,,,,,8,,,34,0
4920,note_on,1,0,13,,,,,,,,8,,,36,48
4979,note_on,59,0,13,,,,,,,,8,,,36,0
4980,note_on,1,0,13,,,,,,,,8,,,38,48
5039,note_on,59,0,13,,,,,,,,8,,,38,0
5040,note_on,301,0,11,,,,,,,,6,,,67,48
5040,note_on,1,0,13,,,,,,,,8,,,34,48
5040,note_on,5040,0,17,,,,,,,,13,,,55,60
5099,note_on,59,0,13,,,,,,,,8,,,34,0
5100,note_on,1,0,13,,,,,,,,8,,,31,48
5159,note_on,59,0,13,,,,,,,,8,,,31,0
5159,note_on,479,0,10,,,,,,,,5,,,65,0
5159,note_on,479,0,15,,,,,,,,11,,,65,0
5160,note_on,1,0,15,,,,,,,,11,,,64,60
5160,note_on,1,0,10,,,,,,,,5,,,64,48
5160,note_on,1,0,13,,,,,,,,8,,,36,48
5219,note_on,59,0,13,,,,,,,,8,,,36,0
5220,note_on,1,0,13,,,,,,,,8,,,34,48
5279,note_on,119,0,15,,,,,,,,11,,,64,0
5279,note_on,59,0,13,,,,,,,,8,,,34,0
5279,note_on,119,0,10,,,,,,,,5,,,64,0
5280,note_on,1,0,13,,,,,,,,8,,,33,48
5280,note_on,1,0,10,,,,,,,,5,,,70,48
5280,note_on,1,0,15,,,,,,,,11,,,70,60
5339,note_on,59,0,13,,,,,,,,8,,,33,0
5340,note_on,1,0,13,,,,,,,,8,,,31,48
5399,note_on,119,0,15,,,,,,,,11,,,70,0
5399,note_on,59,0,13,,,,,,,,8,,,31,0
5399,note_on,119,0,10,,,,,,,,5,,,70,0
5400,note_on,1,0,15,,,,,,,,11,,,69,60
5400,note_on,1,0,13,,,,,,,,8,,,29,48
5400,note_on,1,0,10,,,,,,,,5,,,69,48
5459,note_on,59,0,13,,,,,,,,8,,,29,0
5460,note_on,1,0,13,,,,,,,,8,,,41,48
5489,note_on,29,0,13,,,,,,,,8,,,41,0
5490,note_on,1,0,13,,,,,,,,8,,,40,48
5519,note_on,479,0,17,,,,,,,,13,,,55,0
5519,note_on,479,0,11,,,,,,,,6,,,67,0
5519,note_on,29,0,13,,,,,,,,8,,,40,0
5520,note_on,1,0,13,,,,,,,,8,,,38,48
5520,note_on,1,0,11,,,,,,,,6,,,65,48
5520,note_on,1,0,17,,,,,,,,13,,,53,60
5579,note_on,59,0,13,,,,,,,,8,,,38,0
5580,note_on,1,0,13,,,,,,,,8,,,36,48
5639,note_on,119,0,17,,,,,,,,13,,,53,0
5639,note_on,59,0,13,,,,,,,,8,,,36,0
5639,note_on,119,0,11,,,,,,,,6,,,65,0
5640,note_on,1,0,17,,,,,,,,13,,,60,60
5640,note_on,1,0,13,,,,,,,,8,,,34,48
5640,note_on,1,0,11,,,,,,,,6,,,72,48
5699,note_on,59,0,13,,,,,,,,8,,,34,0
5700,note_on,1,0,13,,,,,,,,8,,,33,48
5759,note_on,59,0,13,,,,,,,,8,,,33,0
5759,note_on,119,0,17,,,,,,,,13,,,60,0
5759,note_on,119,0,11,,,,,,,,6,,,72,0
5760,note_on,1,0,11,,,,,,,,6,,,70,48
5760,note_on,1,0,17,,,,,,,,13,,,58,60
5760,note_on,1,0,13,,,,,,,,8,,,31,48
5819,note_on,59,0,13,,,,,,,,8,,,31,0
5820,note_on,1,0,13,,,,,,,,8,,,50,48
5849,note_on,29,0,13,,,,,,,,8,,,50,0
5850,note_on,1,0,13,,,,,,,,8,,,48,48
5879,note_on,479,0,10,,,,,,,,5,,,69,0
5879,note_on,29,0,13,,,,,,,,8,,,48,0
5879,note_on,479,0,15,,,,,,,,11,,,69,0
5880,note_on,1,0,10,,,,,,,,5,,,67,48
5880,note_on,1,0,15,,,,,,,,11,,,67,60
5880,note_on,1,0,13,,,,,,,,8,,,46,48
5939,note_on,59,0,13,,,,,,,,8,,,46,0
5940,note_on,1,0,13,,,,,,,,8,,,45,48
5999,note_on,239,0,11,,,,,,,,6,,,70,0
5999,note_on,119,0,15,,,,,,,,11,,,67,0
5999,note_on,59,0,13,,,,,,,,8,,,45,0
5999,note_on,119,0,10,,,,,,,,5,,,67,0
5999,note_on,239,0,17,,,,,,,,13,,,58,0
6000,note_on,1,0,10,,,,,,,,5,,,74,48
6000,note_on,1,0,11,,,,,,,,6,,,70,48
6000,note_on,1,0,15,,,,,,,,11,,,74,60
6000,note_on,1,0,13,,,,,,,,8,,,43,48
6000,note_on,1,0,17,,,,,,,,13,,,58,60
6059,note_on,59,0,13,,,,,,,,8,,,43,0
6060,note_on,1,0,13,,,,,,,,8,,,41,48
6119,note_on,119,0,17,,,,,,,,13,,,58,0
6119,note_on,59,0,13,,,,,,,,8,,,41,0
6119,note_on,119,0,10,,,,,,,,5,,,74,0
6119,note_on,119,0,15,,,,,,,,11,,,74,0
6120,note_on,1,0,15,,,,,,,,11,,,72,60
6120,note_on,1,0,13,,,,,,,,8,,,40,48
6120,note_on,1,0,17,,,,,,,,13,,,58,60
6120,note_on,1,0,10,,,,,,,,5,,,72,48
6179,note_on,59,0,13,,,,,,,,8,,,40,0
6180,note_on,1,0,13,,,,,,,,8,,,36,48
6239,note_on,59,0,13,,,,,,,,8,,,36,0
6239,note_on,119,0,17,,,,,,,,13,,,58,0
6239,note_on,239,0,11,,,,,,,,6,,,70,0
6240,note_on,1,0,11,,,,,,,,6,,,69,48
6240,note_on,1,0,17,,,,,,,,13,,,57,60
6240,note_on,1,0,13,,,,,,,,8,,,41,48
6299,note_on,59,0,13,,,,,,,,8,,,41,0
6300,note_on,1,0,13,,,,,,,,8,,,40,48
6359,note_on,239,0,15,,,,,,,,11,,,72,0
6359,note_on,239,0,10,,,,,,,,5,,,72,0
6359,note_on,59,0,13,,,,,,,,8,,,40,0
6360,note_on,1,0,10,,,,,,,,5,,,70,48
6360,note_on,1,0,15,,,,,,,,11,,,70,60
6360,note_on,1,0,13,,,,,,,,8,,,38,48
6419,note_on,59,0,13,,,,,,,,8,,,38,0
6420,note_on,1,0,13,,,,,,,,8,,,36,48
6479,note_on,239,0,17,,,,,,,,13,,,57,0
6479,note_on,239,0,11,,,,,,,,6,,,69,0
6479,note_on,59,0,13,,,,,,,,8,,,36,0
6480,note_on,1,0,13,,,,,,,,8,,,38,48
6480,note_on,1,0,17,,,,,,,,13,,,55,60
6480,note_on,1,0,11,,,,,,,,6,,,67,48
6539,note_on,59,0,13,,,,,,,,8,,,38,0
6540,note_on,1,0,13,,,,,,,,8,,,40,48
6599,note_on,119,0,17,,,,,,,,13,,,55,0
6599,note_on,59,0,13,,,,,,,,8,,,40,0
6599,note_on,239,0,10,,,,,,,,5,,,70,0
6599,note_on,239,0,15,,,,,,,,11,,,70,0
6599,note_on,119,0,11,,,,,,,,6,,,67,0
6600,note_on,1,0,11,,,,,,,,6,,,67,48
6600,note_on,1,0,17,,,,,,,,13,,,55,60
6600,note_on,1,0,10,,,,,,,,5,,,70,48
6600,note_on,1,0,13,,,,,,,,8,,,41,48
6600,note_on,1,0,15,,,,,,,,11,,,70,60
6659,note_on,59,0,13,,,,,,,,8,,,41,0
6660,note_on,1,0,13,,,,,,,,8,,,38,48
6719,note_on,59,0,13,,,,,,,,8,,,38,0
6720,note_on,1,0,13,,,,,,,,8,,,33,48
6749,note_on,149,0,10,,,,,,,,5,,,70,0
6749,note_on,149,0,11,,,,,,,,6,,,67,0
6749,note_on,149,0,15,,,,,,,,11,,,70,0
6749,note_on,149,0,17,,,,,,,,13,,,55,0
6750,note_on,1,0,17,,,,,,,,13,,,53,60
6750,note_on,1,0,11,,,,,,,,6,,,65,48
6750,note_on,1,0,15,,,,,,,,11,,,69,60
6750,note_on,1,0,10,,,,,,,,5,,,69,48
6779,note_on,59,0,13,,,,,,,,8,,,33,0
6779,note_on,29,0,10,,,,,,,,5,,,69,0
6779,note_on,29,0,15,,,,,,,,11,,,69,0
6779,note_on,29,0,11,,,,,,,,6,,,65,0
6779,note_on,29,0,17,,,,,,,,13,,,53,0
6780,note_on,1,0,10,,,,,,,,5,,,67,48
6780,note_on,1,0,11,,,,,,,,6,,,64,48
6780,note_on,1,0,13,,,,,,,,8,,,35,48
6780,note_on,1,0,15,,,,,,,,11,,,67,60
6780,note_on,1,0,17,,,,,,,,13,,,52,60
6809,note_on,29,0,11,,,,,,,,6,,,64,0
6809,note_on,29,0,15,,,,,,,,11,,,67,0
6809,note_on,29,0,17,,,,,,,,13,,,52,0
6809,note_on,29,0,10,,,,,,,,5,,,67,0
6810,note_on,1,0,15,,,,,,,,11,,,69,60
6810,note_on,1,0,17,,,,,,,,13,,,53,60
6810,note_on,1,0,11,,,,,,,,6,,,65,48
6810,note_on,1,0,10,,,,,,,,5,,,69,48
6839,note_on,29,0,10,,,,,,,,5,,,69,0
6839,note_on,29,0,17,,,,,,,,13,,,53,0
6839,note_on,59,0,13,,,,,,,,8,,,35,0
6839,note_on,29,0,11,,,,,,,,6,,,65,0
6839,note_on,29,0,15,,,,,,,,11,,,69,0
6840,note_on,1,0,13,,,,,,,,8,,,36,48
6840,note_on,1,0,17,,,,,,,,13,,,52,60
6840,note_on,1,0,15,,,,,,,,11,,,67,60
6840,note_on,6840,0,14,,,,,,,,10,,,72,60
6840,note_on,1,0,11,,,,,,,,6,,,64,48
6840,note_on,1,0,10,,,,,,,,5,,,67,48
6840,note_on,2041,0,9,,,,,,,,4,,,72,48
6899,note_on,59,0,11,,,,,,,,6,,,64,0
6899,note_on,59,0,13,,,,,,,,8,,,36,0
6900,note_on,4621,0,12,,,,,,,,7,,,60,48
6900,note_on,1,0,11,,,,,,,,6,,,64,48
6929,note_on,29,0,11,,,,,,,,6,,,64,0
6929,note_on,29,0,12,,,,,,,,7,,,60,0
6930,note_on,1,0,12,,,,,,,,7,,,59,48
6930,note_on,1,0,11,,,,,,,,6,,,62,48
6959,note_on,29,0,12,,,,,,,,7,,,59,0
6959,note_on,119,0,17,,,,,,,,13,,,52,0
6959,note_on,29,0,11,,,,,,,,6,,,62,0
6959,note_on,119,0,15,,,,,,,,11,,,67,0
6959,note_on,119,0,10,,,,,,,,5,,,67,0
6960,note_on,1,0,11,,,,,,,,6,,,60,48
6960,note_on,1,0,12,,,,,,,,7,,,57,48
7019,note_on,59,0,11,,,,,,,,6,,,60,0
7019,note_on,59,0,12,,,,,,,,7,,,57,0
7020,note_on,1,0,12,,,,,,,,7,,,55,48
7020,note_on,1,0,11,,,,,,,,6,,,59,48
7079,note_on,59,0,12,,,,,,,,7,,,55,0
7079,note_on,59,0,11,,,,,,,,6,,,59,0
7080,note_on,1,0,11,,,,,,,,6,,,57,48
7080,note_on,1,0,12,,,,,,,,7,,,53,48
7139,note_on,59,0,11,,,,,,,,6,,,57,0
7139,note_on,59,0,12,,,,,,,,7,,,53,0
7140,note_on,1,0,12,,,,,,,,7,,,52,48
7140,note_on,1,0,11,,,,,,,,6,,,55,48
7199,note_on,59,0,11,,,,,,,,6,,,55,0
7199,note_on,59,0,12,,,,,,,,7,,,52,0
7200,note_on,1,0,11,,,,,,,,6,,,57,48
7200,note_on,241,0,10,,,,,,,,5,,,62,48
7200,note_on,1,0,12,,,,,,,,7,,,53,48
7200,note_on,7200,0,16,,,,,,,,12,,,62,60
7259,note_on,59,0,12,,,,,,,,7,,,53,0
7259,note_on,59,0,11,,,,,,,,6,,,57,0
7260,note_on,1,0,12,,,,,,,,7,,,57,48
7260,note_on,1,0,11,,,,,,,,6,,,62,48
7289,note_on,29,0,11,,,,,,,,6,,,62,0
7290,note_on,1,0,11,,,,,,,,6,,,60,48
7319,note_on,59,0,12,,,,,,,,7,,,57,0
7319,note_on,479,0,14,,,,,,,,10,,,72,0
7319,note_on,479,0,9,,,,,,,,4,,,72,0
7319,note_on,29,0,11,,,,,,,,6,,,60,0
7320,note_on,1,0,9,,,,,,,,4,,,71,48
7320,note_on,1,0,12,,,,,,,,7,,,55,48
7320,note_on,1,0,11,,,,,,,,6,,,59,48
7320,note_on,1,0,14,,,,,,,,10,,,71,60
7379,note_on,59,0,12,,,,,,,,7,,,55,0
7379,note_on,59,0,11,,,,,,,,6,,,59,0
7380,note_on,1,0,12,,,,,,,,7,,,53,48
7380,note_on,1,0,11,,,,,,,,6,,,57,48
7439,note_on,119,0,14,,,,,,,,10,,,71,0
7439,note_on,59,0,12,,,,,,,,7,,,53,0
7439,note_on,119,0,9,,,,,,,,4,,,71,0
7439,note_on,59,0,11,,,,,,,,6,,,57,0
7440,note_on,1,0,12,,,,,,,,7,,,52,48
7440,note_on,1,0,9,,,,,,,,4,,,77,48
7440,note_on,1,0,14,,,,,,,,10,,,77,60
7440,note_on,1,0,11,,,,,,,,6,,,55,48
7499,note_on,59,0,12,,,,,,,,7,,,52,0
7499,note_on,59,0,11,,,,,,,,6,,,55,0
7500,note_on,1,0,11,,,,,,,,6,,,53,48
7500,note_on,1,0,12,,,,,,,,7,,,50,48
7559,note_on,119,0,14,,,,,,,,10,,,77,0
7559,note_on,119,0,9,,,,,,,,4,,,77,0
7559,note_on,59,0,12,,,,,,,,7,,,50,0
7559,note_on,59,0,11,,,,,,,,6,,,53,0
7560,note_on,1,0,12,,,,,,,,7,,,48,48
7560,note_on,1,0,11,,,,,,,,6,,,52,48
7560,note_on,1,0,14,,,,,,,,10,,,76,60
7560,note_on,1,0,9,,,,,,,,4,,,76,48
7619,note_on,59,0,12,,,,,,,,7,,,48,0
7619,note_on,59,0,11,,,,,,,,6,,,52,0
7620,note_on,1,0,12,,,,,,,,7,,,56,48
7620,note_on,1,0,11,,,,,,,,6,,,64,48
7649,note_on,29,0,11,,,,,,,,6,,,64,0
7650,note_on,1,0,11,,,,,,,,6,,,62,48
7679,note_on,479,0,10,,,,,,,,5,,,62,0
7679,note_on,59,0,12,,,,,,,,7,,,56,0
7679,note_on,479,0,16,,,,,,,,12,,,62,0
7679,note_on,29,0,11,,,,,,,,6,,,62,0
7680,note_on,1,0,16,,,,,,,,12,,,60,60
7680,note_on,1,0,11,,,,,,,,6,,,60,48
7680,note_on,1,0,12,,,,,,,,7,,,57,48
7680,note_on,1,0,10,,,,,,,,5,,,60,48
7709,note_on,29,0,12,,,,,,,,7,,,57,0
7739,note_on,59,0,11,,,,,,,,6,,,60,0
7739,note_on,59,0,10,,,,,,,,5,,,60,0
7740,note_on,31,0,12,,,,,,,,7,,,48,48
7740,note_on,1,0,10,,,,,,,,5,,,76,48
7740,note_on,1,0,11,,,,,,,,6,,,59,48
7769,note_on,29,0,10,,,,,,,,5,,,76,0
7769,note_on,29,0,12,,,,,,,,7,,,48,0
7770,note_on,1,0,10,,,,,,,,5,,,74,48
7799,note_on,119,0,16,,,,,,,,12,,,60,0
7799,note_on,29,0,10,,,,,,,,5,,,74,0
7799,note_on,59,0,11,,,,,,,,6,,,59,0
7800,note_on,1,0,10,,,,,,,,5,,,72,48
7800,note_on,1,0,16,,,,,,,,12,,,67,60
7800,note_on,31,0,12,,,,,,,,7,,,48,48
7800,note_on,1,0,11,,,,,,,,6,,,57,48
7814,note_on,14,0,12,,,,,,,,7,,,48,0
7815,note_on,1,0,12,,,,,,,,7,,,50,48
7829,note_on,14,0,12,,,,,,,,7,,,50,0
7830,note_on,1,0,12,,,,,,,,7,,,48,48
7844,note_on,14,0,12,,,,,,,,7,,,48,0
7845,note_on,1,0,12,,,,,,,,7,,,50,48
7859,note_on,59,0,11,,,,,,,,6,,,57,0
7859,note_on,59,0,10,,,,,,,,5,,,72,0
7859,note_on,14,0,12,,,,,,,,7,,,50,0
7860,note_on,1,0,12,,,,,,,,7,,,48,48
7860,note_on,1,0,11,,,,,,,,6,,,55,48
7860,note_on,1,0,10,,,,,,,,5,,,71,48
7874,note_on,14,0,12,,,,,,,,7,,,48,0
7875,note_on,1,0,12,,,,,,,,7,,,50,48
7889,note_on,14,0,12,,,,,,,,7,,,50,0
7890,note_on,1,0,12,,,,,,,,7,,,47,48
7904,note_on,14,0,12,,,,,,,,7,,,47,0
7905,note_on,1,0,12,,,,,,,,7,,,48,48
7919,note_on,14,0,12,,,,,,,,7,,,48,0
7919,note_on,59,0,10,,,,,,,,5,,,71,0
7919,note_on,59,0,11,,,,,,,,6,,,55,0
7919,note_on,119,0,16,,,,,,,,12,,,67,0
7920,note_on,1,0,10,,,,,,,,5,,,69,48
7920,note_on,1,0,16,,,,,,,,12,,,65,60
7920,note_on,1,0,12,,,,,,,,7,,,50,48
7920,note_on,1,0,11,,,,,,,,6,,,53,48
7979,note_on,59,0,11,,,,,,,,6,,,53,0
7979,note_on,59,0,12,,,,,,,,7,,,50,0
7979,note_on,59,0,10,,,,,,,,5,,,69,0
7980,note_on,1,0,10,,,,,,,,5,,,67,48
7980,note_on,1,0,12,,,,,,,,7,,,57,48
7980,note_on,1,0,11,,,,,,,,6,,,65,48
8009,note_on,29,0,11,,,,,,,,6,,,65,0
8010,note_on,1,0,11,,,,,,,,6,,,64,48
8039,note_on,479,0,14,,,,,,,,10,,,76,0
8039,note_on,59,0,12,,,,,,,,7,,,57,0
8039,note_on,59,0,10,,,,,,,,5,,,67,0
8039,note_on,29,0,11,,,,,,,,6,,,64,0
8039,note_on,479,0,9,,,,,,,,4,,,76,0
8040,note_on,1,0,11,,,,,,,,6,,,62,48
8040,note_on,1,0,10,,,,,,,,5,,,65,48
8040,note_on,1,0,14,,,,,,,,10,,,74,60
8040,note_on,1,0,9,,,,,,,,4,,,74,48
8040,note_on,1,0,12,,,,,,,,7,,,59,48
8069,note_on,29,0,12,,,,,,,,7,,,59,0
8099,note_on,59,0,10,,,,,,,,5,,,65,0
8099,note_on,59,0,11,,,,,,,,6,,,62,0
8100,note_on,1,0,10,,,,,,,,5,,,77,48
8100,note_on,31,0,12,,,,,,,,7,,,50,48
8100,note_on,1,0,11,,,,,,,,6,,,60,48
8129,note_on,29,0,10,,,,,,,,5,,,77,0
8129,note_on,29,0,12,,,,,,,,7,,,50,0
8130,note_on,1,0,10,,,,,,,,5,,,76,48
8159,note_on,29,0,10,,,,,,,,5,,,76,0
8159,note_on,239,0,16,,,,,,,,12,,,65,0
8159,note_on,119,0,9,,,,,,,,4,,,74,0
8159,note_on,119,0,14,,,,,,,,10,,,74,0
8159,note_on,59,0,11,,,,,,,,6,,,60,0
8160,note_on,1,0,11,,,,,,,,6,,,59,48
8160,note_on,1,0,10,,,,,,,,5,,,74,48
8160,note_on,1,0,14,,,,,,,,10,,,81,60
8160,note_on,1,0,16,,,,,,,,12,,,65,60
8160,note_on,31,0,12,,,,,,,,7,,,50,48
8160,note_on,1,0,9,,,,,,,,4,,,81,48
8174,note_on,14,0,12,,,,,,,,7,,,50,0
8175,note_on,1,0,12,,,,,,,,7,,,52,48
8189,note_on,14,0,12,,,,,,,,7,,,52,0
8190,note_on,1,0,12,,,,,,,,7,,,50,48
8204,note_on,14,0,12,,,,,,,,7,,,50,0
8205,note_on,1,0,12,,,,,,,,7,,,52,48
8219,note_on,59,0,11,,,,,,,,6,,,59,0
8219,note_on,59,0,10,,,,,,,,5,,,74,0
8219,note_on,14,0,12,,,,,,,,7,,,52,0
8220,note_on,1,0,11,,,,,,,,6,,,57,48
8220,note_on,1,0,10,,,,,,,,5,,,72,48
8220,note_on,1,0,12,,,,,,,,7,,,50,48
8234,note_on,14,0,12,,,,,,,,7,,,50,0
8235,note_on,1,0,12,,,,,,,,7,,,52,48
8249,note_on,14,0,12,,,,,,,,7,,,52,0
8250,note_on,1,0,12,,,,,,,,7,,,48,48
8264,note_on,14,0,12,,,,,,,,7,,,48,0
8265,note_on,1,0,12,,,,,,,,7,,,50,48
8279,note_on,119,0,16,,,,,,,,12,,,65,0
8279,note_on,59,0,10,,,,,,,,5,,,72,0
8279,note_on,119,0,9,,,,,,,,4,,,81,0
8279,note_on,119,0,14,,,,,,,,10,,,81,0
8279,note_on,59,0,11,,,,,,,,6,,,57,0
8279,note_on,14,0,12,,,,,,,,7,,,50,0
8280,note_on,1,0,10,,,,,,,,5,,,71,48
8280,note_on,1,0,12,,,,,,,,7,,,52,48
8280,note_on,1,0,11,,,,,,,,6,,,55,48
8280,note_on,1,0,14,,,,,,,,10,,,79,60
8280,note_on,1,0,9,,,,,,,,4,,,79,48
8280,note_on,1,0,16,,,,,,,,12,,,65,60
8339,note_on,59,0,10,,,,,,,,5,,,71,0
8339,note_on,59,0,12,,,,,,,,7,,,52,0
8339,note_on,59,0,11,,,,,,,,6,,,55,0
8340,note_on,1,0,10,,,,,,,,5,,,69,48
8340,note_on,1,0,12,,,,,,,,7,,,53,48
8340,note_on,1,0,11,,,,,,,,6,,,57,48
8399,note_on,59,0,11,,,,,,,,6,,,57,0
8399,note_on,59,0,12,,,,,,,,7,,,53,0
8399,note_on,59,0,10,,,,,,,,5,,,69,0
8399,note_on,119,0,16,,,,,,,,12,,,65,0
8400,note_on,1,0,16,,,,,,,,12,,,64,60
8400,note_on,1,0,11,,,,,,,,6,,,59,48
8400,note_on,1,0,10,,,,,,,,5,,,67,48
8400,note_on,1,0,12,,,,,,,,7,,,55,48
8459,note_on,59,0,10,,,,,,,,5,,,67,0
8459,note_on,59,0,12,,,,,,,,7,,,55,0
8459,note_on,59,0,11,,,,,,,,6,,,59,0
8460,note_on,1,0,10,,,,,,,,5,,,76,48
8460,note_on,1,0,11,,,,,,,,6,,,57,48
8460,note_on,1,0,12,,,,,,,,7,,,53,48
8489,note_on,29,0,12,,,,,,,,7,,,53,0
8489,note_on,29,0,10,,,,,,,,5,,,76,0
8489,note_on,29,0,11,,,,,,,,6,,,57,0
8490,note_on,1,0,11,,,,,,,,6,,,59,48
8490,note_on,1,0,10,,,,,,,,5,,,74,48
8490,note_on,1,0,12,,,,,,,,7,,,55,48
8519,note_on,29,0,10,,,,,,,,5,,,74,0
8519,note_on,239,0,14,,,,,,,,10,,,79,0
8519,note_on,29,0,11,,,,,,,,6,,,59,0
8519,note_on,239,0,9,,,,,,,,4,,,79,0
8519,note_on,29,0,12,,,,,,,,7,,,55,0
8520,note_on,1,0,12,,,,,,,,7,,,57,48
8520,note_on,1,0,14,,,,,,,,10,,,77,60
8520,note_on,1,0,10,,,,,,,,5,,,72,48
8520,note_on,1,0,11,,,,,,,,6,,,60,48
8520,note_on,1,0,9,,,,,,,,4,,,77,48
8579,note_on,59,0,12,,,,,,,,7,,,57,0
8579,note_on,59,0,11,,,,,,,,6,,,60,0
8580,note_on,1,0,12,,,,,,,,7,,,55,48
8580,note_on,1,0,11,,,,,,,,6,,,59,48
8609,note_on,29,0,12,,,,,,,,7,,,55,0
8609,note_on,29,0,11,,,,,,,,6,,,59,0
8610,note_on,1,0,11,,,,,,,,6,,,60,48
8610,note_on,1,0,12,,,,,,,,7,,,57,48
8639,note_on,29,0,11,,,,,,,,6,,,60,0
8639,note_on,239,0,16,,,,,,,,12,,,64,0
8639,note_on,29,0,12,,,,,,,,7,,,57,0
8639,note_on,119,0,10,,,,,,,,5,,,72,0
8640,note_on,1,0,11,,,,,,,,6,,,67,48
8640,note_on,1,0,16,,,,,,,,12,,,62,60
8640,note_on,1,0,10,,,,,,,,5,,,74,48
8640,note_on,1,0,12,,,,,,,,7,,,59,48
8699,note_on,59,0,12,,,,,,,,7,,,59,0
8700,note_on,1,0,12,,,,,,,,7,,,57,48
8729,note_on,29,0,12,,,,,,,,7,,,57,0
8730,note_on,1,0,12,,,,,,,,7,,,59,48
8759,note_on,239,0,14,,,,,,,,10,,,77,0
8759,note_on,119,0,16,,,,,,,,12,,,62,0
8759,note_on,119,0,10,,,,,,,,5,,,74,0
8759,note_on,29,0,12,,,,,,,,7,,,59,0
8759,note_on,239,0,9,,,,,,,,4,,,77,0
8760,note_on,1,0,16,,,,,,,,12,,,62,60
8760,note_on,1,0,10,,,,,,,,5,,,74,48
8760,note_on,1,0,14,,,,,,,,10,,,77,60
8760,note_on,1,0,12,,,,,,,,7,,,60,48
8760,note_on,1,0,9,,,,,,,,4,,,77,48
8819,note_on,179,0,11,,,,,,,,6,,,67,0
8819,note_on,59,0,12,,,,,,,,7,,,60,0
8820,note_on,1,0,11,,,,,,,,6,,,67,48
8820,note_on,1,0,12,,,,,,,,7,,,48,48
8849,note_on,29,0,12,,,,,,,,7,,,48,0
8850,note_on,1,0,12,,,,,,,,7,,,50,48
8879,note_on,29,0,12,,,,,,,,7,,,50,0
8879,note_on,59,0,11,,,,,,,,6,,,67,0
8880,note_on,1,0,11,,,,,,,,6,,,67,48
8880,note_on,1,0,12,,,,,,,,7,,,52,48
8909,note_on,149,0,14,,,,,,,,10,,,77,0
8909,note_on,149,0,10,,,,,,,,5,,,74,0
8909,note_on,149,0,9,,,,,,,,4,,,77,0
8909,note_on,149,0,16,,,,,,,,12,,,62,0
8910,note_on,1,0,9,,,,,,,,4,,,76,48
8910,note_on,1,0,14,,,,,,,,10,,,76,60
8910,note_on,1,0,10,,,,,,,,5,,,72,48
8910,note_on,1,0,16,,,,,,,,12,,,60,60
8939,note_on,29,0,14,,,,,,,,10,,,76,0
8939,note_on,59,0,12,,,,,,,,7,,,52,0
8939,note_on,29,0,9,,,,,,,,4,,,76,0
8939,note_on,29,0,10,,,,,,,,5,,,72,0
8939,note_on,59,0,11,,,,,,,,6,,,67,0
8939,note_on,29,0,16,,,,,,,,12,,,60,0
8940,note_on,1,0,14,,,,,,,,10,,,74,60
8940,note_on,1,0,10,,,,,,,,5,,,71,48
8940,note_on,1,0,11,,,,,,,,6,,,69,48
8940,note_on,1,0,16,,,,,,,,12,,,59,60
8940,note_on,1,0,9,,,,,,,,4,,,74,48
8940,note_on,1,0,12,,,,,,,,7,,,53,48
8969,note_on,29,0,10,,,,,,,,5,,,71,0
8969,note_on,29,0,16,,,,,,,,12,,,59,0
8969,note_on,29,0,14,,,,,,,,10,,,74,0
8969,note_on,29,0,9,,,,,,,,4,,,74,0
8970,note_on,1,0,9,,,,,,,,4,,,76,48
8970,note_on,1,0,10,,,,,,,,5,,,72,48
8970,note_on,1,0,14,,,,,,,,10,,,76,60
8970,note_on,1,0,16,,,,,,,,12,,,60,60
8999,note_on,59,0,12,,,,,,,,7,,,53,0
8999,note_on,29,0,9,,,,,,,,4,,,76,0
8999,note_on,29,0,14,,,,,,,,10,,,76,0
8999,note_on,29,0,10,,,,,,,,5,,,72,0
8999,note_on,59,0,11,,,,,,,,6,,,69,0
8999,note_on,29,0,16,,,,,,,,12,,,60,0
9000,note_on,1,0,10,,,,,,,,5,,,71,48
9000,note_on,1,0,9,,,,,,,,4,,,74,48
9000,note_on,1,0,12,,,,,,,,7,,,55,48
9000,note_on,1,0,11,,,,,,,,6,,,62,48
9000,note_on,1,0,14,,,,,,,,10,,,74,60
9000,note_on,1,0,16,,,,,,,,12,,,59,60
9059,note_on,59,0,11,,,,,,,,6,,,62,0
9059,note_on,59,0,12,,,,,,,,7,,,55,0
9060,note_on,2161,0,13,,,,,,,,8,,,43,48
9060,note_on,1,0,11,,,,,,,,6,,,55,48
9119,note_on,119,0,14,,,,,,,,10,,,74,0
9119,note_on,119,0,9,,,,,,,,4,,,74,0
9119,note_on,119,0,10,,,,,,,,5,,,71,0
9119,note_on,119,0,16,,,,,,,,12,,,59,0
9119,note_on,59,0,11,,,,,,,,6,,,55,0
9119,note_on,59,0,13,,,,,,,,8,,,43,0
9120,note_on,1,0,11,,,,,,,,6,,,55,48
9120,note_on,1,0,13,,,,,,,,8,,,43,48
9120,note_on,9120,0,8,,,,,,,,1,,,55,48
9120,note_on,9120,0,7,,,,,,,,1,,,55,48
9120,note_on,2161,0,17,,,,,,,,13,,,55,60
9179,note_on,59,0,11,,,,,,,,6,,,55,0
9179,note_on,59,0,13,,,,,,,,8,,,43,0
9180,note_on,1,0,13,,,,,,,,8,,,43,48
9180,note_on,1,0,11,,,,,,,,6,,,55,48
9239,note_on,59,0,13,,,,,,,,8,,,43,0
9239,note_on,59,0,11,,,,,,,,6,,,55,0
9239,note_on,119,0,17,,,,,,,,13,,,55,0
9239,note_on,119,0,7,,,,,,,,1,,,55,0
9239,note_on,119,0,8,,,,,,,,1,,,55,0
9240,note_on,1,0,13,,,,,,,,8,,,43,48
9240,note_on,1,0,7,,,,,,,,1,,,55,48
9240,note_on,1,0,8,,,,,,,,1,,,55,48
9240,note_on,1,0,17,,,,,,,,13,,,55,60
9240,note_on,1,0,11,,,,,,,,6,,,55,48
9299,note_on,59,0,11,,,,,,,,6,,,55,0
9299,note_on,59,0,13,,,,,,,,8,,,43,0
9300,note_on,1,0,11,,,,,,,,6,,,55,48
9300,note_on,1,0,13,,,,,,,,8,,,43,48
9359,note_on,119,0,7,,,,,,,,1,,,55,0
9359,note_on,119,0,17,,,,,,,,13,,,55,0
9359,note_on,59,0,13,,,,,,,,8,,,43,0
9359,note_on,59,0,11,,,,,,,,6,,,55,0
9359,note_on,119,0,8,,,,,,,,1,,,55,0
9360,note_on,1,0,7,,,,,,,,1,,,56,48
9360,note_on,1,0,8,,,,,,,,1,,,56,48
9360,note_on,1,0,11,,,,,,,,6,,,56,48
9360,note_on,1,0,17,,,,,,,,13,,,56,60
9360,note_on,1,0,13,,,,,,,,8,,,44,48
9419,note_on,59,0,13,,,,,,,,8,,,44,0
9419,note_on,59,0,11,,,,,,,,6,,,56,0
9420,note_on,1,0,13,,,,,,,,8,,,44,48
9420,note_on,1,0,11,,,,,,,,6,,,56,48
9479,note_on,59,0,13,,,,,,,,8,,,44,0
9479,note_on,59,0,11,,,,,,,,6,,,56,0
9480,note_on,361,0,16,,,,,,,,12,,,59,60
9480,note_on,7201,0,5,,,,,,,,0,,,74,48
9480,note_on,361,0,14,,,,,,,,10,,,74,60
9480,note_on,361,0,9,,,,,,,,4,,,74,48
9480,note_on,1,0,11,,,,,,,,6,,,56,48
9480,note_on,361,0,10,,,,,,,,5,,,59,48
9480,note_on,7201,0,6,,,,,,,,0,,,71,48
9480,note_on,1,0,13,,,,,,,,8,,,44,48
9539,note_on,59,0,13,,,,,,,,8,,,44,0
9539,note_on,59,0,11,,,,,,,,6,,,56,0
9540,note_on,1,0,13,,,,,,,,8,,,44,48
9540,note_on,1,0,11,,,,,,,,6,,,56,48
9599,note_on,119,0,14,,,,,,,,10,,,74,0
9599,note_on,119,0,5,,,,,,,,0,,,74,0
9599,note_on,59,0,13,,,,,,,,8,,,44,0
9599,note_on,59,0,11,,,,,,,,6,,,56,0
9599,note_on,239,0,8,,,,,,,,1,,,56,0
9599,note_on,119,0,6,,,,,,,,0,,,71,0
9599,note_on,239,0,7,,,,,,,,1,,,56,0
9599,note_on,119,0,10,,,,,,,,5,,,59,0
9599,note_on,239,0,17,,,,,,,,13,,,56,0
9599,note_on,119,0,16,,,,,,,,12,,,59,0
9599,note_on,119,0,9,,,,,,,,4,,,74,0
9600,note_on,1,0,11,,,,,,,,6,,,55,48
9600,note_on,1,0,7,,,,,,,,1,,,55,48
9600,note_on,1,0,9,,,,,,,,4,,,74,48
9600,note_on,1,0,8,,,,,,,,1,,,55,48
9600,note_on,1,0,5,,,,,,,,0,,,74,48
9600,note_on,1,0,16,,,,,,,,12,,,59,60
9600,note_on,1,0,6,,,,,,,,0,,,71,48
9600,note_on,1,0,10,,,,,,,,5,,,59,48
9600,note_on,1,0,17,,,,,,,,13,,,55,60
9600,note_on,1,0,13,,,,,,,,8,,,43,48
9600,note_on,1,0,14,,,,,,,,10,,,74,60
9659,note_on,59,0,11,,,,,,,,6,,,55,0
9659,note_on,59,0,13,,,,,,,,8,,,43,0
9660,note_on,1,0,11,,,,,,,,6,,,55,48
9660,note_on,1,0,13,,,,,,,,8,,,43,48
9719,note_on,119,0,9,,,,,,,,4,,,74,0
9719,note_on,119,0,16,,,,,,,,12,,,59,0
9719,note_on,59,0,13,,,,,,,,8,,,43,0
9719,note_on,119,0,17,,,,,,,,13,,,55,0
9719,note_on,119,0,7,,,,,,,,1,,,55,0
9719,note_on,59,0,11,,,,,,,,6,,,55,0
9719,note_on,119,0,10,,,,,,,,5,,,59,0
9719,note_on,119,0,14,,,,,,,,10,,,74,0
9719,note_on,119,0,6,,,,,,,,0,,,71,0
9719,note_on,119,0,5,,,,,,,,0,,,74,0
9719,note_on,119,0,8,,,,,,,,1,,,55,0
9720,note_on,1,0,14,,,,,,,,10,,,74,60
9720,note_on,1,0,10,,,,,,,,5,,,59,48
9720,note_on,1,0,7,,,,,,,,1,,,53,48
9720,note_on,1,0,16,,,,,,,,12,,,59,60
9720,note_on,1,0,9,,,,,,,,4,,,74,48
9720,note_on,1,0,5,,,,,,,,0,,,74,48
9720,note_on,1,0,11,,,,,,,,6,,,53,48
9720,note_on,1,0,13,,,,,,,,8,,,41,48
9720,note_on,1,0,8,,,,,,,,1,,,53,48
9720,note_on,1,0,6,,,,,,,,0,,,71,48
9779,note_on,59,0,11,,,,,,,,6,,,53,0
9779,note_on,59,0,13,,,,,,,,8,,,41,0
9780,note_on,1,0,13,,,,,,,,8,,,41,48
9780,note_on,1,0,11,,,,,,,,6,,,53,48
9839,note_on,59,0,13,,,,,,,,8,,,41,0
9839,note_on,59,0,11,,,,,,,,6,,,53,0
9840,note_on,1,0,11,,,,,,,,6,,,53,48
9840,note_on,121,0,17,,,,,,,,13,,,53,60
9840,note_on,1,0,13,,,,,,,,8,,,41,48
9899,note_on,179,0,10,,,,,,,,5,,,59,0
9899,note_on,179,0,14,,,,,,,,10,,,74,0
9899,note_on,179,0,16,,,,,,,,12,,,59,0
9899,note_on,179,0,9,,,,,,,,4,,,74,0
9899,note_on,179,0,5,,,,,,,,0,,,74,0
9899,note_on,59,0,11,,,,,,,,6,,,53,0
9899,note_on,59,0,13,,,,,,,,8,,,41,0
9899,note_on,179,0,6,,,,,,,,0,,,71,0
9900,note_on,1,0,6,,,,,,,,0,,,74,48
9900,note_on,1,0,14,,,,,,,,10,,,77,60
9900,note_on,1,0,5,,,,,,,,0,,,77,48
9900,note_on,1,0,13,,,,,,,,8,,,41,48
9900,note_on,1,0,9,,,,,,,,4,,,77,48
9900,note_on,1,0,10,,,,,,,,5,,,62,48
9900,note_on,1,0,11,,,,,,,,6,,,53,48
9900,note_on,1,0,16,,,,,,,,12,,,62,60
9929,note_on,29,0,16,,,,,,,,12,,,62,0
9929,note_on,29,0,9,,,,,,,,4,,,77,0
9929,note_on,29,0,5,,,,,,,,0,,,77,0
9929,note_on,29,0,14,,,,,,,,10,,,77,0
9929,note_on,29,0,10,,,,,,,,5,,,62,0
9929,note_on,29,0,6,,,,,,,,0,,,74,0
9930,note_on,1,0,16,,,,,,,,12,,,60,60
9930,note_on,1,0,10,,,,,,,,5,,,60,48
9930,note_on,1,0,9,,,,,,,,4,,,75,48
9930,note_on,1,0,14,,,,,,,,10,,,75,60
9930,note_on,1,0,6,,,,,,,,0,,,72,48
9930,note_on,1,0,5,,,,,,,,0,,,75,48
9959,note_on,239,0,7,,,,,,,,1,,,53,0
9959,note_on,239,0,8,,,,,,,,1,,,53,0
9959,note_on,119,0,17,,,,,,,,13,,,53,0
9959,note_on,29,0,5,,,,,,,,0,,,75,0
9959,note_on,29,0,10,,,,,,,,5,,,60,0
9959,note_on,59,0,13,,,,,,,,8,,,41,0
9959,note_on,29,0,9,,,,,,,,4,,,75,0
9959,note_on,29,0,6,,,,,,,,0,,,72,0
9959,note_on,59,0,11,,,,,,,,6,,,53,0
9959,note_on,29,0,16,,,,,,,,12,,,60,0
9959,note_on,29,0,14,,,,,,,,10,,,75,0
9960,note_on,1,0,13,,,,,,,,8,,,43,48
9960,note_on,1,0,9,,,,,,,,4,,,74,48
9960,note_on,1,0,11,,,,,,,,6,,,55,48
9960,note_on,1,0,17,,,,,,,,13,,,55,60
9960,note_on,1,0,8,,,,,,,,1,,,55,48
9960,note_on,1,0,7,,,,,,,,1,,,55,48
9960,note_on,1,0,5,,,,,,,,0,,,74,48
9960,note_on,1,0,6,,,,,,,,0,,,71,48
9960,note_on,1,0,10,,,,,,,,5,,,59,48
9960,note_on,1,0,14,,,,,,,,10,,,74,60
9960,note_on,1,0,16,,,,,,,,12,,,59,60
10019,note_on,59,0,11,,,,,,,,6,,,55,0
10019,note_on,59,0,13,,,,,,,,8,,,43,0
10020,note_on,1,0,11,,,,,,,,6,,,55,48
10020,note_on,1,0,13,,,,,,,,8,,,43,48
10079,note_on,119,0,9,,,,,,,,4,,,74,0
10079,note_on,119,0,14,,,,,,,,10,,,74,0
10079,note_on,119,0,5,,,,,,,,0,,,74,0
10079,note_on,119,0,17,,,,,,,,13,,,55,0
10079,note_on,119,0,10,,,,,,,,5,,,59,0
10079,note_on,59,0,13,,,,,,,,8,,,43,0
10079,note_on,119,0,8,,,,,,,,1,,,55,0
10079,note_on,59,0,11,,,,,,,,6,,,55,0
10079,note_on,119,0,16,,,,,,,,12,,,59,0
10079,note_on,119,0,7,,,,,,,,1,,,55,0
10079,note_on,119,0,6,,,,,,,,0,,,71,0
10080,note_on,1,0,11,,,,,,,,6,,,56,48
10080,note_on,1,0,10,,,,,,,,5,,,59,48
10080,note_on,1,0,17,,,,,,,,13,,,56,60
10080,note_on,1,0,8,,,,,,,,1,,,56,48
10080,note_on,1,0,16,,,,,,,,12,,,59,60
10080,note_on,1,0,7,,,,,,,,1,,,56,48
10080,note_on,1,0,6,,,,,,,,0,,,71,48
10080,note_on,1,0,13,,,,,,,,8,,,44,48
10139,note_on,59,0,11,,,,,,,,6,,,56,0
10139,note_on,59,0,13,,,,,,,,8,,,44,0
10140,note_on,1,0,13,,,,,,,,8,,,44,48
10140,note_on,1,0,11,,,,,,,,6,,,56,48
10199,note_on,59,0,13,,,,,,,,8,,,44,0
10199,note_on,119,0,6,,,,,,,,0,,,71,0
10199,note_on,59,0,11,,,,,,,,6,,,56,0
10199,note_on,119,0,16,,,,,,,,12,,,59,0
10199,note_on,119,0,10,,,,,,,,5,,,59,0
10200,note_on,1,0,11,,,,,,,,6,,,65,48
10200,note_on,3241,0,15,,,,,,,,11,,,65,60
10200,note_on,121,0,9,,,,,,,,4,,,74,48
10200,note_on,1,0,10,,,,,,,,5,,,60,48
10200,note_on,1,0,13,,,,,,,,8,,,44,48
10200,note_on,1,0,16,,,,,,,,12,,,60,60
10200,note_on,121,0,14,,,,,,,,10,,,74,60
10200,note_on,1,0,6,,,,,,,,0,,,72,48
10200,note_on,121,0,5,,,,,,,,0,,,74,48
10259,note_on,59,0,11,,,,,,,,6,,,65,0
10259,note_on,59,0,10,,,,,,,,5,,,60,0
10259,note_on,59,0,13,,,,,,,,8,,,44,0
10260,note_on,1,0,10,,,,,,,,5,,,72,48
10260,note_on,1,0,13,,,,,,,,8,,,44,48
10260,note_on,1,0,11,,,,,,,,6,,,65,48
10319,note_on,59,0,13,,,,,,,,8,,,44,0
10319,note_on,119,0,14,,,,,,,,10,,,74,0
10319,note_on,59,0,11,,,,,,,,6,,,65,0
10319,note_on,119,0,9,,,,,,,,4,,,74,0
10319,note_on,239,0,7,,,,,,,,1,,,56,0
10319,note_on,119,0,5,,,,,,,,0,,,74,0
10319,note_on,239,0,17,,,,,,,,13,,,56,0
10319,note_on,59,0,10,,,,,,,,5,,,72,0
10319,note_on,119,0,15,,,,,,,,11,,,65,0
10319,note_on,239,0,8,,,,,,,,1,,,56,0
10319,note_on,119,0,16,,,,,,,,12,,,60,0
10319,note_on,119,0,6,,,,,,,,0,,,72,0
10320,note_on,1,0,7,,,,,,,,1,,,60,48
10320,note_on,1,0,8,,,,,,,,1,,,55,48
10320,note_on,1,0,13,,,,,,,,8,,,43,48
10320,note_on,1,0,5,,,,,,,,0,,,74,48
10320,note_on,1,0,6,,,,,,,,0,,,67,48
10320,note_on,1,0,17,,,,,,,,13,,,55,60
10320,note_on,1,0,15,,,,,,,,11,,,67,60
10320,note_on,1,0,10,,,,,,,,5,,,72,48
10320,note_on,1,0,16,,,,,,,,12,,,60,60
10320,note_on,1,0,11,,,,,,,,6,,,67,48
10320,note_on,1,0,9,,,,,,,,4,,,74,48
10320,note_on,1,0,14,,,,,,,,10,,,74,60
10379,note_on,59,0,11,,,,,,,,6,,,67,0
10379,note_on,59,0,13,,,,,,,,8,,,43,0
10379,note_on,59,0,10,,,,,,,,5,,,72,0
10380,note_on,1,0,11,,,,,,,,6,,,67,48
10380,note_on,1,0,10,,,,,,,,5,,,72,48
10380,note_on,1,0,13,,,,,,,,8,,,43,48
10439,note_on,59,0,11,,,,,,,,6,,,67,0
10439,note_on,119,0,7,,,,,,,,1,,,60,0
10439,note_on,119,0,14,,,,,,,,10,,,74,0
10439,note_on,59,0,13,,,,,,,,8,,,43,0
10439,note_on,119,0,15,,,,,,,,11,,,67,0
10439,note_on,119,0,5,,,,,,,,0,,,74,0
10439,note_on,119,0,17,,,,,,,,13,,,55,0
10439,note_on,119,0,8,,,,,,,,1,,,55,0
10439,note_on,119,0,16,,,,,,,,12,,,60,0
10439,note_on,59,0,10,,,,,,,,5,,,72,0
10439,note_on,119,0,9,,,,,,,,4,,,74,0
10439,note_on,119,0,6,,,,,,,,0,,,67,0
10440,note_on,1,0,8,,,,,,,,1,,,54,48
10440,note_on,1,0,9,,,,,,,,4,,,74,48
10440,note_on,1,0,16,,,,,,,,12,,,60,60
10440,note_on,1,0,13,,,,,,,,8,,,42,48
10440,note_on,1,0,15,,,,,,,,11,,,69,60
10440,note_on,1,0,10,,,,,,,,5,,,72,48
10440,note_on,1,0,14,,,,,,,,10,,,74,60
10440,note_on,1,0,11,,,,,,,,6,,,69,48
10440,note_on,1,0,7,,,,,,,,1,,,60,48
10440,note_on,1,0,6,,,,,,,,0,,,69,48
10440,note_on,1,0,5,,,,,,,,0,,,74,48
10499,note_on,59,0,13,,,,,,,,8,,,42,0
10499,note_on,59,0,10,,,,,,,,5,,,72,0
10499,note_on,59,0,11,,,,,,,,6,,,69,0
10500,note_on,1,0,11,,,,,,,,6,,,69,48
10500,note_on,1,0,13,,,,,,,,8,,,42,48
10500,note_on,1,0,10,,,,,,,,5,,,72,48
10559,note_on,59,0,13,,,,,,,,8,,,42,0
10559,note_on,59,0,11,,,,,,,,6,,,69,0
10559,note_on,59,0,10,,,,,,,,5,,,72,0
10560,note_on,1,0,13,,,,,,,,8,,,42,48
10560,note_on,1,0,10,,,,,,,,5,,,72,48
10560,note_on,1,0,11,,,,,,,,6,,,69,48
10560,note_on,121,0,17,,,,,,,,13,,,54,60
10619,note_on,179,0,9,,,,,,,,4,,,74,0
10619,note_on,59,0,10,,,,,,,,5,,,72,0
10619,note_on,59,0,13,,,,,,,,8,,,42,0
10619,note_on,59,0,11,,,,,,,,6,,,69,0
10619,note_on,179,0,14,,,,,,,,10,,,74,0
10619,note_on,179,0,5,,,,,,,,0,,,74,0
10620,note_on,1,0,9,,,,,,,,4,,,77,48
10620,note_on,1,0,11,,,,,,,,6,,,69,48
10620,note_on,1,0,14,,,,,,,,10,,,77,60
10620,note_on,1,0,10,,,,,,,,5,,,72,48
10620,note_on,1,0,5,,,,,,,,0,,,77,48
10620,note_on,1,0,13,,,,,,,,8,,,42,48
10649,note_on,29,0,9,,,,,,,,4,,,77,0
10649,note_on,29,0,14,,,,,,,,10,,,77,0
10649,note_on,29,0,5,,,,,,,,0,,,77,0
10650,note_on,1,0,9,,,,,,,,4,,,75,48
10650,note_on,1,0,14,,,,,,,,10,,,75,60
10650,note_on,1,0,5,,,,,,,,0,,,75,48
10679,note_on,59,0,10,,,,,,,,5,,,72,0
10679,note_on,239,0,8,,,,,,,,1,,,54,0
10679,note_on,29,0,9,,,,,,,,4,,,75,0
10679,note_on,59,0,11,,,,,,,,6,,,69,0
10679,note_on,29,0,14,,,,,,,,10,,,75,0
10679,note_on,239,0,6,,,,,,,,0,,,69,0
10679,note_on,29,0,5,,,,,,,,0,,,75,0
10679,note_on,239,0,15,,,,,,,,11,,,69,0
10679,note_on,239,0,16,,,,,,,,12,,,60,0
10679,note_on,119,0,17,,,,,,,,13,,,54,0
10679,note_on,59,0,13,,,,,,,,8,,,42,0
10680,note_on,1,0,10,,,,,,,,5,,,72,48
10680,note_on,1,0,11,,,,,,,,6,,,62,48
10680,note_on,1,0,5,,,,,,,,0,,,74,48
10680,note_on,1,0,14,,,,,,,,10,,,74,60
10680,note_on,1,0,17,,,,,,,,13,,,55,60
10680,note_on,1,0,8,,,,,,,,1,,,55,48
10680,note_on,1,0,13,,,,,,,,8,,,43,48
10680,note_on,1,0,16,,,,,,,,12,,,60,60
10680,note_on,1,0,15,,,,,,,,11,,,62,60
10680,note_on,1,0,6,,,,,,,,0,,,62,48
10680,note_on,1,0,9,,,,,,,,4,,,74,48
10739,note_on,59,0,11,,,,,,,,6,,,62,0
10739,note_on,59,0,10,,,,,,,,5,,,72,0
10739,note_on,59,0,13,,,,,,,,8,,,43,0
10740,note_on,1,0,10,,,,,,,,5,,,72,48
10740,note_on,1,0,11,,,,,,,,6,,,62,48
10740,note_on,1,0,13,,,,,,,,8,,,43,48
10799,note_on,59,0,11,,,,,,,,6,,,62,0
10799,note_on,59,0,10,,,,,,,,5,,,72,0
10799,note_on,119,0,14,,,,,,,,10,,,74,0
10799,note_on,119,0,17,,,,,,,,13,,,55,0
10799,note_on,119,0,9,,,,,,,,4,,,74,0
10799,note_on,59,0,13,,,,,,,,8,,,43,0
10799,note_on,119,0,16,,,,,,,,12,,,60,0
10799,note_on,119,0,8,,,,,,,,1,,,55,0
10799,note_on,119,0,6,,,,,,,,0,,,62,0
10799,note_on,119,0,5,,,,,,,,0,,,74,0
10799,note_on,119,0,15,,,,,,,,11,,,62,0
10800,note_on,1,0,10,,,,,,,,5,,,72,48
10800,note_on,1,0,8,,,,,,,,1,,,56,48
10800,note_on,1,0,17,,,,,,,,13,,,56,60
10800,note_on,1,0,15,,,,,,,,11,,,65,60
10800,note_on,1,0,5,,,,,,,,0,,,74,48
10800,note_on,1,0,13,,,,,,,,8,,,44,48
10800,note_on,1,0,11,,,,,,,,6,,,65,48
10800,note_on,1,0,16,,,,,,,,12,,,60,60
10800,note_on,1,0,6,,,,,,,,0,,,65,48
10859,note_on,59,0,10,,,,,,,,5,,,72,0
10859,note_on,59,0,13,,,,,,,,8,,,44,0
10859,note_on,59,0,11,,,,,,,,6,,,65,0
10860,note_on,1,0,10,,,,,,,,5,,,72,48
10860,note_on,1,0,13,,,,,,,,8,,,44,48
10860,note_on,1,0,11,,,,,,,,6,,,65,48
10919,note_on,59,0,10,,,,,,,,5,,,72,0
10919,note_on,119,0,17,,,,,,,,13,,,56,0
10919,note_on,119,0,6,,,,,,,,0,,,65,0
10919,note_on,59,0,13,,,,,,,,8,,,44,0
10919,note_on,59,0,11,,,,,,,,6,,,65,0
10919,note_on,119,0,8,,,,,,,,1,,,56,0
10919,note_on,479,0,7,,,,,,,,1,,,60,0
10919,note_on,119,0,15,,,,,,,,11,,,65,0
10919,note_on,119,0,16,,,,,,,,12,,,60,0
10920,note_on,1,0,11,,,,,,,,6,,,67,48
10920,note_on,121,0,9,,,,,,,,4,,,74,48
10920,note_on,1,0,13,,,,,,,,8,,,43,48
10920,note_on,1,0,15,,,,,,,,11,,,67,60
10920,note_on,1,0,10,,,,,,,,5,,,71,48
10920,note_on,1,0,17,,,,,,,,13,,,55,60
10920,note_on,1,0,8,,,,,,,,1,,,55,48
10920,note_on,121,0,14,,,,,,,,10,,,74,60
10920,note_on,1,0,6,,,,,,,,0,,,67,48
10920,note_on,1,0,7,,,,,,,,1,,,59,48
10920,note_on,1,0,16,,,,,,,,12,,,59,60
10979,note_on,59,0,11,,,,,,,,6,,,67,0
10979,note_on,59,0,13,,,,,,,,8,,,43,0
10979,note_on,59,0,10,,,,,,,,5,,,71,0
10980,note_on,1,0,11,,,,,,,,6,,,67,48
10980,note_on,1,0,10,,,,,,,,5,,,71,48
10980,note_on,1,0,13,,,,,,,,8,,,43,48
11039,note_on,119,0,6,,,,,,,,0,,,67,0
11039,note_on,59,0,10,,,,,,,,5,,,71,0
11039,note_on,119,0,15,,,,,,,,11,,,67,0
11039,note_on,119,0,7,,,,,,,,1,,,59,0
11039,note_on,59,0,13,,,,,,,,8,,,43,0
11039,note_on,119,0,17,,,,,,,,13,,,55,0
11039,note_on,119,0,9,,,,,,,,4,,,74,0
11039,note_on,119,0,8,,,,,,,,1,,,55,0
11039,note_on,119,0,16,,,,,,,,12,,,59,0
11039,note_on,59,0,11,,,,,,,,6,,,67,0
11039,note_on,119,0,14,,,,,,,,10,,,74,0
11040,note_on,1,0,6,,,,,,,,0,,,68,48
11040,note_on,1,0,9,,,,,,,,4,,,74,48
11040,note_on,1,0,10,,,,,,,,5,,,71,48
11040,note_on,1,0,7,,,,,,,,1,,,59,48
11040,note_on,1,0,14,,,,,,,,10,,,74,60
11040,note_on,1,0,17,,,,,,,,13,,,53,60
11040,note_on,1,0,13,,,,,,,,8,,,41,48
11040,note_on,1,0,11,,,,,,,,6,,,68,48
11040,note_on,1,0,8,,,,,,,,1,,,53,48
11040,note_on,1,0,16,,,,,,,,12,,,59,60
11040,note_on,1,0,15,,,,,,,,11,,,68,60
11099,note_on,59,0,10,,,,,,,,5,,,71,0
11099,note_on,59,0,11,,,,,,,,6,,,68,0
11099,note_on,59,0,13,,,,,,,,8,,,41,0
11100,note_on,1,0,13,,,,,,,,8,,,41,48
11100,note_on,1,0,11,,,,,,,,6,,,68,48
11100,note_on,1,0,10,,,,,,,,5,,,71,48
11159,note_on,119,0,6,,,,,,,,0,,,68,0
11159,note_on,119,0,15,,,,,,,,11,,,68,0
11159,note_on,119,0,8,,,,,,,,1,,,53,0
11159,note_on,59,0,10,,,,,,,,5,,,71,0
11159,note_on,359,0,5,,,,,,,,0,,,74,0
11159,note_on,119,0,17,,,,,,,,13,,,53,0
11159,note_on,119,0,9,,,,,,,,4,,,74,0
11159,note_on,119,0,14,,,,,,,,10,,,74,0
11159,note_on,119,0,7,,,,,,,,1,,,59,0
11159,note_on,59,0,13,,,,,,,,8,,,41,0
11159,note_on,59,0,11,,,,,,,,6,,,68,0
11159,note_on,119,0,16,,,,,,,,12,,,59,0
11160,note_on,1,0,10,,,,,,,,5,,,72,48
11160,note_on,1,0,13,,,,,,,,8,,,40,48
11160,note_on,1,0,7,,,,,,,,1,,,60,48
11160,note_on,1,0,6,,,,,,,,0,,,67,48
11160,note_on,1,0,8,,,,,,,,1,,,52,48
11160,note_on,1,0,5,,,,,,,,0,,,76,48
11160,note_on,1,0,17,,,,,,,,13,,,52,60
11160,note_on,1,0,9,,,,,,,,4,,,79,48
11160,note_on,1,0,16,,,,,,,,12,,,60,60
11160,note_on,1,0,11,,,,,,,,6,,,67,48
11160,note_on,1,0,15,,,,,,,,11,,,67,60
11160,note_on,1,0,14,,,,,,,,10,,,79,60
11189,note_on,29,0,9,,,,,,,,4,,,79,0
11219,note_on,59,0,11,,,,,,,,6,,,67,0
11219,note_on,59,0,13,,,,,,,,8,,,40,0
11219,note_on,59,0,10,,,,,,,,5,,,72,0
11220,note_on,1,0,13,,,,,,,,8,,,40,48
11220,note_on,1,0,10,,,,,,,,5,,,72,48
11220,note_on,31,0,9,,,,,,,,4,,,79,48
11220,note_on,1,0,11,,,,,,,,6,,,67,48
11249,note_on,29,0,9,,,,,,,,4,,,79,0
11279,note_on,119,0,8,,,,,,,,1,,,52,0
11279,note_on,59,0,10,,,,,,,,5,,,72,0
11279,note_on,119,0,7,,,,,,,,1,,,60,0
11279,note_on,119,0,6,,,,,,,,0,,,67,0
11279,note_on,119,0,14,,,,,,,,10,,,79,0
11279,note_on,119,0,16,,,,,,,,12,,,60,0
11279,note_on,59,0,13,,,,,,,,8,,,40,0
11279,note_on,119,0,15,,,,,,,,11,,,67,0
11279,note_on,59,0,11,,,,,,,,6,,,67,0
11279,note_on,119,0,5,,,,,,,,0,,,76,0
11279,note_on,119,0,17,,,,,,,,13,,,52,0
11280,note_on,1,0,5,,,,,,,,0,,,74,48
11280,note_on,1,0,6,,,,,,,,0,,,59,48
11280,note_on,1,0,13,,,,,,,,8,,,44,48
11280,note_on,1,0,15,,,,,,,,11,,,65,60
11280,note_on,1,0,17,,,,,,,,13,,,56,60
11280,note_on,1,0,14,,,,,,,,10,,,71,60
11280,note_on,1,0,8,,,,,,,,1,,,56,48
11280,note_on,1,0,11,,,,,,,,6,,,62,48
11280,note_on,1,0,16,,,,,,,,12,,,62,60
11280,note_on,31,0,9,,,,,,,,4,,,71,48
11280,note_on,1,0,7,,,,,,,,1,,,65,48
11280,note_on,1,0,10,,,,,,,,5,,,65,48
11309,note_on,29,0,9,,,,,,,,4,,,71,0
11339,note_on,59,0,11,,,,,,,,6,,,62,0
11339,note_on,59,0,13,,,,,,,,8,,,44,0
11339,note_on,59,0,10,,,,,,,,5,,,65,0
11340,note_on,31,0,9,,,,,,,,4,,,71,48
11340,note_on,1,0,11,,,,,,,,6,,,62,48
11340,note_on,1,0,13,,,,,,,,8,,,44,48
11340,note_on,1,0,10,,,,,,,,5,,,65,48
11369,note_on,29,0,9,,,,,,,,4,,,71,0
11399,note_on,59,0,13,,,,,,,,8,,,44,0
11399,note_on,119,0,14,,,,,,,,10,,,71,0
11399,note_on,119,0,16,,,,,,,,12,,,62,0
11399,note_on,119,0,8,,,,,,,,1,,,56,0
11399,note_on,119,0,7,,,,,,,,1,,,65,0
11399,note_on,59,0,11,,,,,,,,6,,,62,0
11399,note_on,119,0,5,,,,,,,,0,,,74,0
11399,note_on,119,0,15,,,,,,,,11,,,65,0
11399,note_on,119,0,17,,,,,,,,13,,,56,0
11399,note_on,59,0,10,,,,,,,,5,,,65,0
11399,note_on,119,0,6,,,,,,,,0,,,59,0
11400,note_on,1,0,8,,,,,,,,1,,,57,48
11400,note_on,1,0,17,,,,,,,,13,,,57,60
11400,note_on,1,0,6,,,,,,,,0,,,60,48
11400,note_on,1,0,16,,,,,,,,12,,,60,60
11400,note_on,1,0,5,,,,,,,,0,,,72,48
11400,note_on,1,0,15,,,,,,,,11,,,65,60
11400,note_on,1,0,10,,,,,,,,5,,,64,48
11400,note_on,31,0,9,,,,,,,,4,,,72,48
11400,note_on,1,0,7,,,,,,,,1,,,64,48
11400,note_on,1,0,14,,,,,,,,10,,,72,60
11400,note_on,1,0,11,,,,,,,,6,,,60,48
11400,note_on,1,0,13,,,,,,,,8,,,45,48
11429,note_on,29,0,9,,,,,,,,4,,,72,0
11459,note_on,59,0,11,,,,,,,,6,,,60,0
11459,note_on,59,0,10,,,,,,,,5,,,64,0
11459,note_on,59,0,13,,,,,,,,8,,,45,0
11460,note_on,1,0,11,,,,,,,,6,,,60,48
11460,note_on,1,0,13,,,,,,,,8,,,45,48
11460,note_on,1,0,10,,,,,,,,5,,,64,48
11460,note_on,31,0,9,,,,,,,,4,,,72,48
11489,note_on,29,0,9,,,,,,,,4,,,72,0
11519,note_on,119,0,7,,,,,,,,1,,,64,0
11519,note_on,119,0,6,,,,,,,,0,,,60,0
11519,note_on,59,0,10,,,,,,,,5,,,64,0
11519,note_on,119,0,8,,,,,,,,1,,,57,0
11519,note_on,59,0,13,,,,,,,,8,,,45,0
11519,note_on,119,0,16,,,,,,,,12,,,60,0
11519,note_on,119,0,17,,,,,,,,13,,,57,0
11519,note_on,119,0,15,,,,,,,,11,,,65,0
11519,note_on,59,0,11,,,,,,,,6,,,60,0
11520,note_on,1,0,15,,,,,,,,11,,,69,60
11520,note_on,1,0,7,,,,,,,,1,,,65,48
11520,note_on,1,0,8,,,,,,,,1,,,53,48
11520,note_on,1,0,16,,,,,,,,12,,,65,60
11520,note_on,31,0,9,,,,,,,,4,,,72,48
11520,note_on,1,0,11,,,,,,,,6,,,65,48
11520,note_on,1,0,10,,,,,,,,5,,,69,48
11520,note_on,1,0,6,,,,,,,,0,,,69,48
11520,note_on,1,0,13,,,,,,,,8,,,41,48
11520,note_on,1,0,17,,,,,,,,13,,,53,60
11579,note_on,179,0,5,,,,,,,,0,,,72,0
11579,note_on,59,0,13,,,,,,,,8,,,41,0
11579,note_on,59,0,11,,,,,,,,6,,,65,0
11579,note_on,179,0,14,,,,,,,,10,,,72,0
11579,note_on,59,0,10,,,,,,,,5,,,69,0
11579,note_on,59,0,9,,,,,,,,4,,,72,0
11580,note_on,1,0,10,,,,,,,,5,,,69,48
11580,note_on,1,0,13,,,,,,,,8,,,41,48
11580,note_on,1,0,14,,,,,,,,10,,,76,60
11580,note_on,1,0,11,,,,,,,,6,,,65,48
11580,note_on,1,0,9,,,,,,,,4,,,76,48
11580,note_on,1,0,5,,,,,,,,0,,,76,48
11609,note_on,29,0,9,,,,,,,,4,,,76,0
11609,note_on,29,0,5,,,,,,,,0,,,76,0
11609,note_on,29,0,14,,,,,,,,10,,,76,0
11610,note_on,1,0,14,,,,,,,,10,,,74,60
11610,note_on,1,0,5,,,,,,,,0,,,74,48
11610,note_on,1,0,9,,,,,,,,4,,,74,48
11639,note_on,59,0,11,,,,,,,,6,,,65,0
11639,note_on,119,0,7,,,,,,,,1,,,65,0
11639,note_on,59,0,10,,,,,,,,5,,,69,0
11639,note_on,29,0,5,,,,,,,,0,,,74,0
11639,note_on,119,0,8,,,,,,,,1,,,53,0
11639,note_on,59,0,13,,,,,,,,8,,,41,0
11639,note_on,119,0,16,,,,,,,,12,,,65,0
11639,note_on,29,0,9,,,,,,,,4,,,74,0
11639,note_on,119,0,17,,,,,,,,13,,,53,0
11639,note_on,29,0,14,,,,,,,,10,,,74,0
11639,note_on,119,0,15,,,,,,,,11,,,69,0
11639,note_on,119,0,6,,,,,,,,0,,,69,0
11640,note_on,1,0,15,,,,,,,,11,,,67,60
11640,note_on,1,0,10,,,,,,,,5,,,67,48
11640,note_on,1,0,6,,,,,,,,0,,,67,48
11640,note_on,1,0,9,,,,,,,,4,,,72,48
11640,note_on,1,0,7,,,,,,,,1,,,64,48
11640,note_on,1,0,5,,,,,,,,0,,,72,48
11640,note_on,1,0,14,,,,,,,,10,,,72,60
11640,note_on,1,0,13,,,,,,,,8,,,43,48
11640,note_on,1,0,16,,,,,,,,12,,,64,60
11640,note_on,1,0,11,,,,,,,,6,,,64,48
11640,note_on,1,0,17,,,,,,,,13,,,55,60
11640,note_on,1,0,8,,,,,,,,1,,,55,48
11699,note_on,59,0,9,,,,,,,,4,,,72,0
11699,note_on,59,0,11,,,,,,,,6,,,64,0
11699,note_on,59,0,10,,,,,,,,5,,,67,0
11699,note_on,59,0,13,,,,,,,,8,,,43,0
11700,note_on,1,0,10,,,,,,,,5,,,67,48
11700,note_on,1,0,11,,,,,,,,6,,,64,48
11700,note_on,1,0,13,,,,,,,,8,,,43,48
11700,note_on,1,0,9,,,,,,,,4,,,72,48
11759,note_on,119,0,14,,,,,,,,10,,,72,0
11759,note_on,119,0,15,,,,,,,,11,,,67,0
11759,note_on,59,0,13,,,,,,,,8,,,43,0
11759,note_on,59,0,11,,,,,,,,6,,,64,0
11759,note_on,119,0,8,,,,,,,,1,,,55,0
11759,note_on,59,0,10,,,,,,,,5,,,67,0
11759,note_on,119,0,6,,,,,,,,0,,,67,0
11759,note_on,119,0,16,,,,,,,,12,,,64,0
11759,note_on,119,0,5,,,,,,,,0,,,72,0
11759,note_on,119,0,7,,,,,,,,1,,,64,0
11759,note_on,59,0,9,,,,,,,,4,,,72,0
11760,note_on,1,0,11,,,,,,,,6,,,62,48
11760,note_on,1,0,5,,,,,,,,0,,,71,48
11760,note_on,1,0,10,,,,,,,,5,,,65,48
11760,note_on,1,0,9,,,,,,,,4,,,71,48
11760,note_on,1,0,6,,,,,,,,0,,,65,48
11760,note_on,1,0,8,,,,,,,,1,,,43,48
11760,note_on,1,0,7,,,,,,,,1,,,62,48
11760,note_on,1,0,13,,,,,,,,8,,,31,48
11760,note_on,1,0,15,,,,,,,,11,,,65,60
11760,note_on,1,0,14,,,,,,,,10,,,71,60
11760,note_on,1,0,16,,,,,,,,12,,,62,60
11819,note_on,59,0,11,,,,,,,,6,,,62,0
11819,note_on,59,0,10,,,,,,,,5,,,65,0
11819,note_on,59,0,9,,,,,,,,4,,,71,0
11819,note_on,59,0,13,,,,,,,,8,,,31,0
11820,note_on,1,0,11,,,,,,,,6,,,62,48
11820,note_on,1,0,10,,,,,,,,5,,,65,48
11820,note_on,1,0,13,,,,,,,,8,,,31,48
11820,note_on,1,0,9,,,,,,,,4,,,71,48
11879,note_on,59,0,11,,,,,,,,6,,,62,0
11879,note_on,239,0,17,,,,,,,,13,,,55,0
11879,note_on,119,0,5,,,,,,,,0,,,71,0
11879,note_on,59,0,10,,,,,,,,5,,,65,0
11879,note_on,119,0,16,,,,,,,,12,,,62,0
11879,note_on,119,0,8,,,,,,,,1,,,43,0
11879,note_on,119,0,14,,,,,,,,10,,,71,0
11879,note_on,119,0,15,,,,,,,,11,,,65,0
11879,note_on,59,0,13,,,,,,,,8,,,31,0
11879,note_on,119,0,6,,,,,,,,0,,,65,0
11879,note_on,59,0,9,,,,,,,,4,,,71,0
11879,note_on,119,0,7,,,,,,,,1,,,62,0
11880,note_on,1,0,7,,,,,,,,1,,,60,48
11880,note_on,1,0,15,,,,,,,,11,,,64,60
11880,note_on,1,0,13,,,,,,,,8,,,36,48
11880,note_on,1,0,10,,,,,,,,5,,,67,48
11880,note_on,1,0,9,,,,,,,,4,,,72,48
11880,note_on,1,0,5,,,,,,,,0,,,72,48
11880,note_on,1,0,17,,,,,,,,13,,,48,60
11880,note_on,1,0,16,,,,,,,,12,,,60,60
11880,note_on,1,0,11,,,,,,,,6,,,60,48
11880,note_on,1,0,6,,,,,,,,0,,,64,48
11880,note_on,1,0,8,,,,,,,,1,,,48,48
11880,note_on,1,0,14,,,,,,,,10,,,72,60
11939,note_on,59,0,9,,,,,,,,4,,,72,0
11940,note_on,1,0,9,,,,,,,,4,,,79,66
11969,note_on,29,0,9,,,,,,,,4,,,79,0
11970,note_on,1,0,9,,,,,,,,4,,,77,66
11999,note_on,119,0,13,,,,,,,,8,,,36,0
11999,note_on,119,0,10,,,,,,,,5,,,67,0
11999,note_on,119,0,6,,,,,,,,0,,,64,0
11999,note_on,119,0,14,,,,,,,,10,,,72,0
11999,note_on,119,0,8,,,,,,,,1,,,48,0
11999,note_on,119,0,11,,,,,,,,6,,,60,0
11999,note_on,119,0,7,,,,,,,,1,,,60,0
11999,note_on,119,0,16,,,,,,,,12,,,60,0
11999,note_on,119,0,17,,,,,,,,13,,,48,0
11999,note_on,119,0,5,,,,,,,,0,,,72,0
11999,note_on,29,0,9,,,,,,,,4,,,77,0
11999,note_on,119,0,15,,,,,,,,11,,,64,0
12000,note_on,1,0,9,,,,,,,,4,,,76,66
12059,note_on,59,0,9,,,,,,,,4,,,76,0
12060,note_on,1,0,9,,,,,,,,4,,,74,66
12060,note_on,61,0,10,,,,,,,,5,,,79,66
12089,note_on,29,0,10,,,,,,,,5,,,79,0
12090,note_on,1,0,10,,,,,,,,5,,,77,66
12119,note_on,29,0,10,,,,,,,,5,,,77,0
12119,note_on,59,0,9,,,,,,,,4,,,74,0
12120,note_on,1,0,9,,,,,,,,4,,,72,66
12120,note_on,1,0,10,,,,,,,,5,,,76,66
12179,note_on,59,0,9,,,,,,,,4,,,72,0
12179,note_on,59,0,10,,,,,,,,5,,,76,0
12180,note_on,1,0,9,,,,,,,,4,,,71,66
12180,note_on,1,0,10,,,,,,,,5,,,74,66
12239,note_on,59,0,9,,,,,,,,4,,,71,0
12239,note_on,59,0,10,,,,,,,,5,,,74,0
12240,note_on,1,0,9,,,,,,,,4,,,69,66
12240,note_on,1,0,10,,,,,,,,5,,,72,66
12299,note_on,59,0,10,,,,,,,,5,,,72,0
12300,note_on,1,0,10,,,,,,,,5,,,81,66
12300,note_on,3241,0,12,,,,,,,,7,,,65,66
12329,note_on,29,0,12,,,,,,,,7,,,65,0
12329,note_on,29,0,10,,,,,,,,5,,,81,0
12330,note_on,1,0,10,,,,,,,,5,,,79,66
12330,note_on,1,0,12,,,,,,,,7,,,64,66
12359,note_on,29,0,10,,,,,,,,5,,,79,0
12359,note_on,119,0,9,,,,,,,,4,,,69,0
12359,note_on,29,0,12,,,,,,,,7,,,64,0
12360,note_on,1,0,12,,,,,,,,7,,,62,66
12360,note_on,1,0,9,,,,,,,,4,,,81,66
12360,note_on,1,0,10,,,,,,,,5,,,77,66
12419,note_on,59,0,12,,,,,,,,7,,,62,0
12419,note_on,59,0,10,,,,,,,,5,,,77,0
12420,note_on,1,0,12,,,,,,,,7,,,60,66
12420,note_on,1,0,10,,,,,,,,5,,,76,66
12479,note_on,59,0,12,,,,,,,,7,,,60,0
12479,note_on,59,0,10,,,,,,,,5,,,76,0
12480,note_on,1,0,10,,,,,,,,5,,,74,66
12480,note_on,1,0,12,,,,,,,,7,,,59,66
12539,note_on,59,0,10,,,,,,,,5,,,74,0
12539,note_on,59,0,12,,,,,,,,7,,,59,0
12540,note_on,1,0,12,,,,,,,,7,,,57,66
12540,note_on,1,0,10,,,,,,,,5,,,72,66
12599,note_on,59,0,10,,,,,,,,5,,,72,0
12599,note_on,59,0,12,,,,,,,,7,,,57,0
12600,note_on,1,0,10,,,,,,,,5,,,71,66
12600,note_on,1,0,12,,,,,,,,7,,,55,66
12659,note_on,299,0,9,,,,,,,,4,,,81,0
12659,note_on,59,0,10,,,,,,,,5,,,71,0
12660,note_on,1,0,10,,,,,,,,5,,,59,66
12660,note_on,1,0,9,,,,,,,,4,,,79,66
12689,note_on,29,0,9,,,,,,,,4,,,79,0
12690,note_on,1,0,9,,,,,,,,4,,,77,66
12719,note_on,59,0,10,,,,,,,,5,,,59,0
12719,note_on,29,0,9,,,,,,,,4,,,77,0
12720,note_on,1,0,10,,,,,,,,5,,,59,66
12720,note_on,1,0,9,,,,,,,,4,,,76,66
12734,note_on,14,0,10,,,,,,,,5,,,59,0
12735,note_on,1,0,10,,,,,,,,5,,,60,66
12749,note_on,14,0,10,,,,,,,,5,,,60,0
12750,note_on,1,0,10,,,,,,,,5,,,59,66
12764,note_on,14,0,10,,,,,,,,5,,,59,0
12765,note_on,1,0,10,,,,,,,,5,,,60,66
12779,note_on,59,0,9,,,,,,,,4,,,76,0
12779,note_on,14,0,10,,,,,,,,5,,,60,0
12780,note_on,1,0,10,,,,,,,,5,,,59,66
12780,note_on,1,0,9,,,,,,,,4,,,74,66
12780,note_on,781,0,11,,,,,,,,6,,,67,66
12794,note_on,14,0,10,,,,,,,,5,,,59,0
12795,note_on,1,0,10,,,,,,,,5,,,60,66
12809,note_on,29,0,11,,,,,,,,6,,,67,0
12809,note_on,14,0,10,,,,,,,,5,,,60,0
12810,note_on,1,0,11,,,,,,,,6,,,65,66
12810,note_on,1,0,10,,,,,,,,5,,,57,66
12824,note_on,14,0,10,,,,,,,,5,,,57,0
12825,note_on,1,0,10,,,,,,,,5,,,59,66
12839,note_on,29,0,11,,,,,,,,6,,,65,0
12839,note_on,14,0,10,,,,,,,,5,,,59,0
12839,note_on,59,0,9,,,,,,,,4,,,74,0
12840,note_on,1,0,10,,,,,,,,5,,,60,66
12840,note_on,1,0,9,,,,,,,,4,,,72,66
12840,note_on,1,0,11,,,,,,,,6,,,64,66
12899,note_on,59,0,10,,,,,,,,5,,,60,0
12899,note_on,59,0,11,,,,,,,,6,,,64,0
12899,note_on,59,0,9,,,,,,,,4,,,72,0
12899,note_on,299,0,12,,,,,,,,7,,,55,0
12900,note_on,1,0,9,,,,,,,,4,,,71,66
12900,note_on,1,0,11,,,,,,,,6,,,62,66
12900,note_on,1,0,10,,,,,,,,5,,,65,66
12900,note_on,901,0,13,,,,,,,,8,,,44,66
12900,note_on,1,0,12,,,,,,,,7,,,56,66
12959,note_on,59,0,10,,,,,,,,5,,,65,0
12959,note_on,59,0,12,,,,,,,,7,,,56,0
12959,note_on,59,0,13,,,,,,,,8,,,44,0
12959,note_on,59,0,9,,,,,,,,4,,,71,0
12959,note_on,59,0,11,,,,,,,,6,,,62,0
12960,note_on,1,0,10,,,,,,,,5,,,64,66
12960,note_on,1,0,13,,,,,,,,8,,,45,66
12960,note_on,1,0,9,,,,,,,,4,,,72,66
12960,note_on,1,0,11,,,,,,,,6,,,60,66
13019,note_on,59,0,11,,,,,,,,6,,,60,0
13019,note_on,59,0,13,,,,,,,,8,,,45,0
13019,note_on,59,0,10,,,,,,,,5,,,64,0
13020,note_on,1,0,13,,,,,,,,8,,,40,66
13020,note_on,1,0,11,,,,,,,,6,,,67,66
13020,note_on,1,0,10,,,,,,,,5,,,72,66
13049,note_on,89,0,9,,,,,,,,4,,,72,0
13050,note_on,1,0,9,,,,,,,,4,,,74,66
13079,note_on,59,0,11,,,,,,,,6,,,67,0
13079,note_on,59,0,13,,,,,,,,8,,,40,0
13079,note_on,29,0,9,,,,,,,,4,,,74,0
13080,note_on,1,0,11,,,,,,,,6,,,69,66
13080,note_on,1,0,13,,,,,,,,8,,,41,66
13080,note_on,1,0,9,,,,,,,,4,,,74,66
13094,note_on,14,0,9,,,,,,,,4,,,74,0
13095,note_on,1,0,9,,,,,,,,4,,,76,66
13109,note_on,14,0,9,,,,,,,,4,,,76,0
13110,note_on,1,0,9,,,,,,,,4,,,74,66
13124,note_on,14,0,9,,,,,,,,4,,,74,0
13125,note_on,1,0,9,,,,,,,,4,,,76,66
13139,note_on,59,0,11,,,,,,,,6,,,69,0
13139,note_on,59,0,13,,,,,,,,8,,,41,0
13139,note_on,119,0,10,,,,,,,,5,,,72,0
13139,note_on,14,0,9,,,,,,,,4,,,76,0
13140,note_on,1,0,10,,,,,,,,5,,,71,66
13140,note_on,1,0,11,,,,,,,,6,,,65,66
13140,note_on,1,0,13,,,,,,,,8,,,38,66
13140,note_on,1,0,9,,,,,,,,4,,,74,66
13154,note_on,14,0,9,,,,,,,,4,,,74,0
13155,note_on,1,0,9,,,,,,,,4,,,76,66
13169,note_on,29,0,10,,,,,,,,5,,,71,0
13169,note_on,14,0,9,,,,,,,,4,,,76,0
13170,note_on,1,0,9,,,,,,,,4,,,74,66
13170,note_on,1,0,10,,,,,,,,5,,,69,66
13184,note_on,14,0,9,,,,,,,,4,,,74,0
13185,note_on,1,0,9,,,,,,,,4,,,76,66
13199,note_on,14,0,9,,,,,,,,4,,,76,0
13199,note_on,59,0,11,,,,,,,,6,,,65,0
13199,note_on,29,0,10,,,,,,,,5,,,69,0
13199,note_on,59,0,13,,,,,,,,8,,,38,0
13200,note_on,1,0,9,,,,,,,,4,,,74,66
13200,note_on,1,0,11,,,,,,,,6,,,62,66
13200,note_on,1,0,13,,,,,,,,8,,,43,66
13200,note_on,1,0,10,,,,,,,,5,,,71,66
13214,note_on,14,0,9,,,,,,,,4,,,74,0
13215,note_on,1,0,9,,,,,,,,4,,,76,66
13229,note_on,14,0,9,,,,,,,,4,,,76,0
13230,note_on,1,0,9,,,,,,,,4,,,74,66
13244,note_on,14,0,9,,,,,,,,4,,,74,0
13245,note_on,1,0,9,,,,,,,,4,,,76,66
13259,note_on,59,0,11,,,,,,,,6,,,62,0
13259,note_on,14,0,9,,,,,,,,4,,,76,0
13259,note_on,59,0,13,,,,,,,,8,,,43,0
13260,note_on,1,0,11,,,,,,,,6,,,67,66
13260,note_on,1,0,9,,,,,,,,4,,,72,66
13260,note_on,1,0,13,,,,,,,,8,,,31,66
13289,note_on,29,0,9,,,,,,,,4,,,72,0
13289,note_on,29,0,13,,,,,,,,8,,,31,0
13290,note_on,1,0,9,,,,,,,,4,,,74,66
13319,note_on,59,0,11,,,,,,,,6,,,67,0
13319,note_on,119,0,10,,,,,,,,5,,,71,0
13319,note_on,29,0,9,,,,,,,,4,,,74,0
13320,note_on,31,0,13,,,,,,,,8,,,36,66
13320,note_on,1,0,11,,,,,,,,6,,,64,66
13320,note_on,1,0,10,,,,,,,,5,,,72,66
13320,note_on,1,0,9,,,,,,,,4,,,72,66
13349,note_on,29,0,13,,,,,,,,8,,,36,0
13379,note_on,59,0,10,,,,,,,,5,,,72,0
13379,note_on,59,0,9,,,,,,,,4,,,72,0
13379,note_on,59,0,11,,,,,,,,6,,,64,0
13380,note_on,1,0,9,,,,,,,,4,,,72,48
13380,note_on,1,0,11,,,,,,,,6,,,63,48
13380,note_on,31,0,13,,,,,,,,8,,,36,48
13380,note_on,1,0,10,,,,,,,,5,,,67,48
13409,note_on,29,0,13,,,,,,,,8,,,36,0
13410,note_on,1,0,13,,,,,,,,8,,,38,48
13439,note_on,29,0,13,,,,,,,,8,,,38,0
13439,note_on,59,0,9,,,,,,,,4,,,72,0
13439,note_on,59,0,11,,,,,,,,6,,,63,0
13439,note_on,59,0,10,,,,,,,,5,,,67,0
13440,note_on,1,0,9,,,,,,,,4,,,72,48
13440,note_on,1,0,13,,,,,,,,8,,,39,48
13440,note_on,1,0,10,,,,,,,,5,,,67,48
13440,note_on,1,0,11,,,,,,,,6,,,63,48
13440,note_on,1441,0,17,,,,,,,,13,,,60,60
13499,note_on,59,0,11,,,,,,,,6,,,63,0
13499,note_on,59,0,13,,,,,,,,8,,,39,0
13499,note_on,59,0,9,,,,,,,,4,,,72,0
13499,note_on,59,0,10,,,,,,,,5,,,67,0
13500,note_on,1,0,10,,,,,,,,5,,,67,48
13500,note_on,1,0,11,,,,,,,,6,,,63,48
13500,note_on,1,0,9,,,,,,,,4,,,72,48
13500,note_on,1,0,13,,,,,,,,8,,,43,48
13559,note_on,59,0,9,,,,,,,,4,,,72,0
13559,note_on,59,0,11,,,,,,,,6,,,63,0
13559,note_on,59,0,13,,,,,,,,8,,,43,0
13559,note_on,59,0,10,,,,,,,,5,,,67,0
13560,note_on,1,0,11,,,,,,,,6,,,63,48
13560,note_on,1,0,10,,,,,,,,5,,,67,48
13560,note_on,1,0,13,,,,,,,,8,,,39,48
13560,note_on,1,0,9,,,,,,,,4,,,72,48
13619,note_on,59,0,9,,,,,,,,4,,,72,0
13619,note_on,59,0,13,,,,,,,,8,,,39,0
13619,note_on,59,0,11,,,,,,,,6,,,63,0
13619,note_on,179,0,17,,,,,,,,13,,,60,0
13619,note_on,59,0,10,,,,,,,,5,,,67,0
13620,note_on,1,0,9,,,,,,,,4,,,72,48
13620,note_on,1,0,13,,,,,,,,8,,,36,48
13620,note_on,1,0,11,,,,,,,,6,,,63,48
13620,note_on,1,0,10,,,,,,,,5,,,67,48
13620,note_on,1,0,17,,,,,,,,13,,,60,60
13679,note_on,59,0,17,,,,,,,,13,,,60,0
13679,note_on,59,0,11,,,,,,,,6,,,63,0
13679,note_on,59,0,9,,,,,,,,4,,,72,0
13679,note_on,59,0,10,,,,,,,,5,,,67,0
13679,note_on,59,0,13,,,,,,,,8,,,36,0
13680,note_on,1,0,11,,,,,,,,6,,,62,48
13680,note_on,1,0,17,,,,,,,,13,,,55,60
13680,note_on,1,0,10,,,,,,,,5,,,67,48
13680,note_on,1,0,9,,,,,,,,4,,,71,48
13739,note_on,59,0,10,,,,,,,,5,,,67,0
13739,note_on,59,0,9,,,,,,,,4,,,71,0
13739,note_on,59,0,11,,,,,,,,6,,,62,0
13740,note_on,1,0,10,,,,,,,,5,,,67,48
13740,note_on,1,0,9,,,,,,,,4,,,74,48
13740,note_on,61,0,13,,,,,,,,8,,,31,48
13740,note_on,1,0,11,,,,,,,,6,,,65,48
13769,note_on,29,0,13,,,,,,,,8,,,31,0
13770,note_on,1,0,13,,,,,,,,8,,,33,48
13799,note_on,59,0,11,,,,,,,,6,,,65,0
13799,note_on,29,0,13,,,,,,,,8,,,33,0
13799,note_on,59,0,10,,,,,,,,5,,,67,0
13799,note_on,119,0,17,,,,,,,,13,,,55,0
13799,note_on,59,0,9,,,,,,,,4,,,74,0
13800,note_on,1,0,10,,,,,,,,5,,,67,48
13800,note_on,1,0,13,,,,,,,,8,,,35,48
13800,note_on,1,0,11,,,,,,,,6,,,65,48
13800,note_on,1801,0,16,,,,,,,,12,,,67,60
13800,note_on,1,0,9,,,,,,,,4,,,74,48
13829,note_on,29,0,11,,,,,,,,6,,,65,0
13829,note_on,29,0,9,,,,,,,,4,,,74,0
13859,note_on,59,0,13,,,,,,,,8,,,35,0
13859,note_on,59,0,10,,,,,,,,5,,,67,0
13860,note_on,1,0,10,,,,,,,,5,,,67,48
13860,note_on,1,0,13,,,,,,,,8,,,38,48
13860,note_on,31,0,9,,,,,,,,4,,,74,48
13860,note_on,31,0,11,,,,,,,,6,,,65,48
13889,note_on,29,0,11,,,,,,,,6,,,65,0
13889,note_on,29,0,9,,,,,,,,4,,,74,0
13919,note_on,59,0,10,,,,,,,,5,,,67,0
13919,note_on,59,0,13,,,,,,,,8,,,38,0
13920,note_on,31,0,11,,,,,,,,6,,,65,48
13920,note_on,31,0,9,,,,,,,,4,,,74,48
13920,note_on,1,0,10,,,,,,,,5,,,67,48
13920,note_on,1,0,13,,,,,,,,8,,,35,48
13949,note_on,29,0,9,,,,,,,,4,,,74,0
13949,note_on,29,0,11,,,,,,,,6,,,65,0
13979,note_on,59,0,10,,,,,,,,5,,,67,0
13979,note_on,59,0,13,,,,,,,,8,,,35,0
13979,note_on,179,0,16,,,,,,,,12,,,67,0
13980,note_on,1,0,13,,,,,,,,8,,,31,48
13980,note_on,31,0,11,,,,,,,,6,,,65,48
13980,note_on,1,0,16,,,,,,,,12,,,67,60
13980,note_on,1,0,10,,,,,,,,5,,,67,48
13980,note_on,31,0,9,,,,,,,,4,,,74,48
14009,note_on,29,0,9,,,,,,,,4,,,74,0
14009,note_on,29,0,11,,,,,,,,6,,,65,0
14039,note_on,59,0,16,,,,,,,,12,,,67,0
14039,note_on,59,0,13,,,,,,,,8,,,31,0
14039,note_on,59,0,10,,,,,,,,5,,,67,0
14040,note_on,1,0,16,,,,,,,,12,,,60,60
14040,note_on,31,0,9,,,,,,,,4,,,72,48
14040,note_on,31,0,11,,,,,,,,6,,,63,48
14040,note_on,1,0,10,,,,,,,,5,,,67,48
14099,note_on,59,0,9,,,,,,,,4,,,72,0
14099,note_on,59,0,11,,,,,,,,6,,,63,0
14099,note_on,59,0,10,,,,,,,,5,,,67,0
14100,note_on,2101,0,15,,,,,,,,11,,,67,60
14100,note_on,1,0,11,,,,,,,,6,,,60,48
14100,note_on,1,0,10,,,,,,,,5,,,67,48
14100,note_on,61,0,13,,,,,,,,8,,,39,48
14100,note_on,2101,0,14,,,,,,,,10,,,75,60
14100,note_on,1,0,9,,,,,,,,4,,,75,48
14129,note_on,29,0,13,,,,,,,,8,,,39,0
14130,note_on,1,0,13,,,,,,,,8,,,38,48
14159,note_on,59,0,14,,,,,,,,10,,,75,0
14159,note_on,59,0,9,,,,,,,,4,,,75,0
14159,note_on,119,0,16,,,,,,,,12,,,60,0
14159,note_on,59,0,11,,,,,,,,6,,,60,0
14159,note_on,29,0,13,,,,,,,,8,,,38,0
14159,note_on,59,0,10,,,,,,,,5,,,67,0
14159,note_on,59,0,15,,,,,,,,11,,,67,0
14160,note_on,1,0,9,,,,,,,,4,,,75,48
14160,note_on,1,0,11,,,,,,,,6,,,63,48
14160,note_on,1,0,15,,,,,,,,11,,,67,60
14160,note_on,1,0,14,,,,,,,,10,,,75,60
14160,note_on,1,0,13,,,,,,,,8,,,36,48
14160,note_on,1,0,10,,,,,,,,5,,,67,48
14189,note_on,29,0,11,,,,,,,,6,,,63,0
14189,note_on,29,0,9,,,,,,,,4,,,75,0
14219,note_on,59,0,13,,,,,,,,8,,,36,0
14219,note_on,59,0,10,,,,,,,,5,,,67,0
14220,note_on,31,0,9,,,,,,,,4,,,75,48
14220,note_on,31,0,11,,,,,,,,6,,,65,48
14220,note_on,1,0,13,,,,,,,,8,,,38,48
14220,note_on,1,0,10,,,,,,,,5,,,67,48
14249,note_on,29,0,11,,,,,,,,6,,,65,0
14249,note_on,29,0,9,,,,,,,,4,,,75,0
14279,note_on,119,0,15,,,,,,,,11,,,67,0
14279,note_on,59,0,13,,,,,,,,8,,,38,0
14279,note_on,119,0,14,,,,,,,,10,,,75,0
14279,note_on,59,0,10,,,,,,,,5,,,67,0
14280,note_on,31,0,11,,,,,,,,6,,,67,48
14280,note_on,1,0,13,,,,,,,,8,,,39,48
14280,note_on,1,0,10,,,,,,,,5,,,65,48
14280,note_on,1,0,15,,,,,,,,11,,,65,60
14280,note_on,31,0,9,,,,,,,,4,,,74,48
14280,note_on,1,0,14,,,,,,,,10,,,74,60
14309,note_on,29,0,9,,,,,,,,4,,,74,0
14309,note_on,29,0,11,,,,,,,,6,,,67,0
14339,note_on,59,0,15,,,,,,,,11,,,65,0
14339,note_on,59,0,13,,,,,,,,8,,,39,0
14339,note_on,59,0,14,,,,,,,,10,,,74,0
14339,note_on,59,0,10,,,,,,,,5,,,65,0
14340,note_on,31,0,9,,,,,,,,4,,,72,48
14340,note_on,1,0,10,,,,,,,,5,,,63,48
14340,note_on,1,0,14,,,,,,,,10,,,72,60
14340,note_on,1,0,15,,,,,,,,11,,,63,60
14340,note_on,1,0,13,,,,,,,,8,,,41,48
14340,note_on,31,0,11,,,,,,,,6,,,68,48
14369,note_on,29,0,9,,,,,,,,4,,,72,0
14369,note_on,29,0,11,,,,,,,,6,,,68,0
14399,note_on,59,0,13,,,,,,,,8,,,41,0
14399,note_on,59,0,10,,,,,,,,5,,,63,0
14399,note_on,59,0,15,,,,,,,,11,,,63,0
14399,note_on,59,0,14,,,,,,,,10,,,72,0
14400,note_on,1,0,15,,,,,,,,11,,,63,60
14400,note_on,1,0,10,,,,,,,,5,,,63,48
14400,note_on,1,0,13,,,,,,,,8,,,43,48
14400,note_on,1,0,14,,,,,,,,10,,,72,60
14400,note_on,31,0,9,,,,,,,,4,,,72,48
14400,note_on,31,0,11,,,,,,,,6,,,67,48
14459,note_on,59,0,9,,,,,,,,4,,,72,0
14459,note_on,59,0,13,,,,,,,,8,,,43,0
14459,note_on,59,0,10,,,,,,,,5,,,63,0
14460,note_on,1,0,9,,,,,,,,4,,,72,48
14460,note_on,1,0,10,,,,,,,,5,,,63,48
14460,note_on,1,0,13,,,,,,,,8,,,31,48
14519,note_on,59,0,10,,,,,,,,5,,,63,0
14519,note_on,119,0,14,,,,,,,,10,,,72,0
14519,note_on,59,0,13,,,,,,,,8,,,31,0
14519,note_on,119,0,15,,,,,,,,11,,,63,0
14519,note_on,59,0,9,,,,,,,,4,,,72,0
14519,note_on,119,0,11,,,,,,,,6,,,67,0
14520,note_on,1,0,14,,,,,,,,10,,,71,60
14520,note_on,1,0,10,,,,,,,,5,,,62,48
14520,note_on,1,0,9,,,,,,,,4,,,71,48
14520,note_on,1,0,15,,,,,,,,11,,,62,60
14520,note_on,1,0,13,,,,,,,,8,,,43,48
14579,note_on,59,0,9,,,,,,,,4,,,71,0
14579,note_on,59,0,10,,,,,,,,5,,,62,0
14579,note_on,59,0,13,,,,,,,,8,,,43,0
14580,note_on,1,0,9,,,,,,,,4,,,71,48
14580,note_on,1,0,13,,,,,,,,8,,,41,48
14580,note_on,61,0,11,,,,,,,,6,,,67,48
14580,note_on,1,0,10,,,,,,,,5,,,62,48
14639,note_on,119,0,15,,,,,,,,11,,,62,0
14639,note_on,59,0,9,,,,,,,,4,,,71,0
14639,note_on,119,0,14,,,,,,,,10,,,71,0
14639,note_on,59,0,10,,,,,,,,5,,,62,0
14639,note_on,59,0,11,,,,,,,,6,,,67,0
14639,note_on,59,0,13,,,,,,,,8,,,41,0
14640,note_on,1,0,11,,,,,,,,6,,,69,48
14640,note_on,1,0,9,,,,,,,,4,,,73,48
14640,note_on,1,0,13,,,,,,,,8,,,40,48
14640,note_on,1,0,10,,,,,,,,5,,,64,48
14699,note_on,59,0,11,,,,,,,,6,,,69,0
14699,note_on,59,0,13,,,,,,,,8,,,40,0
14699,note_on,59,0,9,,,,,,,,4,,,73,0
14699,note_on,59,0,10,,,,,,,,5,,,64,0
14700,note_on,1,0,13,,,,,,,,8,,,45,48
14700,note_on,1,0,9,,,,,,,,4,,,73,48
14700,note_on,1,0,10,,,,,,,,5,,,64,48
14700,note_on,1,0,11,,,,,,,,6,,,67,48
14759,note_on,59,0,9,,,,,,,,4,,,73,0
14759,note_on,59,0,10,,,,,,,,5,,,64,0
14759,note_on,59,0,13,,,,,,,,8,,,45,0
14759,note_on,59,0,11,,,,,,,,6,,,67,0
14760,note_on,1,0,10,,,,,,,,5,,,65,48
14760,note_on,601,0,16,,,,,,,,12,,,62,60
14760,note_on,1,0,11,,,,,,,,6,,,65,48
14760,note_on,1,0,13,,,,,,,,8,,,38,48
14760,note_on,1,0,9,,,,,,,,4,,,74,48
14819,note_on,59,0,13,,,,,,,,8,,,38,0
14819,note_on,59,0,11,,,,,,,,6,,,65,0
14819,note_on,59,0,9,,,,,,,,4,,,74,0
14819,note_on,59,0,10,,,,,,,,5,,,65,0
14820,note_on,1,0,13,,,,,,,,8,,,38,48
14820,note_on,1,0,11,,,,,,,,6,,,65,48
14820,note_on,1,0,9,,,,,,,,4,,,74,48
14820,note_on,1,0,10,,,,,,,,5,,,69,48
14849,note_on,29,0,13,,,,,,,,8,,,38,0
14850,note_on,1,0,13,,,,,,,,8,,,40,48
14879,note_on,59,0,10,,,,,,,,5,,,69,0
14879,note_on,29,0,13,,,,,,,,8,,,40,0
14879,note_on,59,0,11,,,,,,,,6,,,65,0
14879,note_on,59,0,9,,,,,,,,4,,,74,0
14880,note_on,1,0,10,,,,,,,,5,,,69,48
14880,note_on,1,0,9,,,,,,,,4,,,74,48
14880,note_on,1,0,11,,,,,,,,6,,,65,48
14880,note_on,1,0,13,,,,,,,,8,,,41,48
14939,note_on,59,0,9,,,,,,,,4,,,74,0
14939,note_on,59,0,11,,,,,,,,6,,,65,0
14939,note_on,59,0,10,,,,,,,,5,,,69,0
14939,note_on,59,0,13,,,,,,,,8,,,41,0
14940,note_on,1,0,10,,,,,,,,5,,,69,48
14940,note_on,1,0,11,,,,,,,,6,,,65,48
14940,note_on,1,0,13,,,,,,,,8,,,45,48
14940,note_on,1,0,9,,,,,,,,4,,,74,48
14999,note_on,59,0,11,,,,,,,,6,,,65,0
14999,note_on,59,0,9,,,,,,,,4,,,74,0
14999,note_on,59,0,13,,,,,,,,8,,,45,0
14999,note_on,239,0,16,,,,,,,,12,,,62,0
14999,note_on,59,0,10,,,,,,,,5,,,69,0
15000,note_on,1,0,9,,,,,,,,4,,,74,48
15000,note_on,1,0,11,,,,,,,,6,,,65,48
15000,note_on,1,0,16,,,,,,,,12,,,62,60
15000,note_on,1,0,10,,,,,,,,5,,,69,48
15000,note_on,1,0,13,,,,,,,,8,,,41,48
15059,note_on,59,0,11,,,,,,,,6,,,65,0
15059,note_on,59,0,9,,,,,,,,4,,,74,0
15059,note_on,59,0,10,,,,,,,,5,,,69,0
15059,note_on,59,0,13,,,,,,,,8,,,41,0
15060,note_on,1,0,13,,,,,,,,8,,,38,48
15060,note_on,1,0,9,,,,,,,,4,,,74,48
15060,note_on,1,0,11,,,,,,,,6,,,65,48
15060,note_on,1,0,10,,,,,,,,5,,,69,48
15119,note_on,59,0,13,,,,,,,,8,,,38,0
15119,note_on,59,0,10,,,,,,,,5,,,69,0
15119,note_on,119,0,16,,,,,,,,12,,,62,0
15119,note_on,59,0,9,,,,,,,,4,,,74,0
15119,note_on,59,0,11,,,,,,,,6,,,65,0
15120,note_on,1,0,10,,,,,,,,5,,,69,48
15120,note_on,1,0,11,,,,,,,,6,,,64,48
15120,note_on,1,0,16,,,,,,,,12,,,61,60
15120,note_on,1,0,9,,,,,,,,4,,,73,48
15120,note_on,1321,0,17,,,,,,,,13,,,57,60
15179,note_on,59,0,10,,,,,,,,5,,,69,0
15179,note_on,59,0,9,,,,,,,,4,,,73,0
15179,note_on,59,0,11,,,,,,,,6,,,64,0
15180,note_on,61,0,13,,,,,,,,8,,,33,48
15180,note_on,1,0,10,,,,,,,,5,,,69,48
15180,note_on,1,0,11,,,,,,,,6,,,67,48
15180,note_on,1,0,9,,,,,,,,4,,,76,48
15209,note_on,29,0,13,,,,,,,,8,,,33,0
15210,note_on,1,0,13,,,,,,,,8,,,35,48
15239,note_on,119,0,16,,,,,,,,12,,,61,0
15239,note_on,59,0,11,,,,,,,,6,,,67,0
15239,note_on,59,0,10,,,,,,,,5,,,69,0
15239,note_on,59,0,9,,,,,,,,4,,,76,0
15239,note_on,29,0,13,,,,,,,,8,,,35,0
15240,note_on,1,0,11,,,,,,,,6,,,67,48
15240,note_on,1,0,16,,,,,,,,12,,,57,60
15240,note_on,1,0,13,,,,,,,,8,,,37,48
15240,note_on,1,0,10,,,,,,,,5,,,69,48
15240,note_on,1,0,9,,,,,,,,4,,,76,48
15299,note_on,59,0,13,,,,,,,,8,,,37,0
15299,note_on,59,0,9,,,,,,,,4,,,76,0
15299,note_on,59,0,11,,,,,,,,6,,,67,0
15299,note_on,59,0,10,,,,,,,,5,,,69,0
15300,note_on,1,0,13,,,,,,,,8,,,40,48
15300,note_on,1,0,10,,,,,,,,5,,,69,48
15300,note_on,1,0,9,,,,,,,,4,,,76,48
15300,note_on,1,0,11,,,,,,,,6,,,67,48
15359,note_on,239,0,17,,,,,,,,13,,,57,0
15359,note_on,119,0,16,,,,,,,,12,,,57,0
15359,note_on,59,0,9,,,,,,,,4,,,76,0
15359,note_on,59,0,10,,,,,,,,5,,,69,0
15359,note_on,59,0,13,,,,,,,,8,,,40,0
15359,note_on,59,0,11,,,,,,,,6,,,67,0
15360,note_on,1,0,13,,,,,,,,8,,,37,48
15360,note_on,1,0,17,,,,,,,,13,,,57,60
15360,note_on,1,0,9,,,,,,,,4,,,76,48
15360,note_on,1,0,11,,,,,,,,6,,,67,48
15360,note_on,1,0,10,,,,,,,,5,,,69,48
15419,note_on,59,0,9,,,,,,,,4,,,76,0
15419,note_on,59,0,13,,,,,,,,8,,,37,0
15419,note_on,59,0,11,,,,,,,,6,,,67,0
15419,note_on,59,0,10,,,,,,,,5,,,69,0
15420,note_on,1,0,13,,,,,,,,8,,,33,48
15420,note_on,1,0,9,,,,,,,,4,,,76,48
15420,note_on,1,0,10,,,,,,,,5,,,69,48
15420,note_on,1,0,11,,,,,,,,6,,,67,48
15479,note_on,119,0,17,,,,,,,,13,,,57,0
15479,note_on,59,0,13,,,,,,,,8,,,33,0
15479,note_on,59,0,10,,,,,,,,5,,,69,0
15479,note_on,59,0,9,,,,,,,,4,,,76,0
15479,note_on,59,0,11,,,,,,,,6,,,67,0
15480,note_on,1,0,17,,,,,,,,13,,,53,60
15480,note_on,1,0,11,,,,,,,,6,,,65,48
15480,note_on,1,0,9,,,,,,,,4,,,74,48
15480,note_on,1,0,10,,,,,,,,5,,,65,48
15539,note_on,59,0,10,,,,,,,,5,,,65,0
15539,note_on,59,0,9,,,,,,,,4,,,74,0
15539,note_on,59,0,11,,,,,,,,6,,,65,0
15540,note_on,1,0,11,,,,,,,,6,,,53,48
15540,note_on,61,0,13,,,,,,,,8,,,38,48
15540,note_on,1,0,9,,,,,,,,4,,,77,48
15540,note_on,1,0,10,,,,,,,,5,,,69,48
15569,note_on,29,0,13,,,,,,,,8,,,38,0
15569,note_on,29,0,11,,,,,,,,6,,,53,0
15570,note_on,1,0,11,,,,,,,,6,,,52,48
15570,note_on,1,0,13,,,,,,,,8,,,37,48
15599,note_on,59,0,9,,,,,,,,4,,,77,0
15599,note_on,59,0,10,,,,,,,,5,,,69,0
15599,note_on,29,0,11,,,,,,,,6,,,52,0
15599,note_on,29,0,13,,,,,,,,8,,,37,0
15599,note_on,119,0,17,,,,,,,,13,,,53,0
15600,note_on,1,0,9,,,,,,,,4,,,77,48
15600,note_on,961,0,14,,,,,,,,10,,,77,60
15600,note_on,1,0,13,,,,,,,,8,,,38,48
15600,note_on,1,0,17,,,,,,,,13,,,50,60
15600,note_on,961,0,15,,,,,,,,11,,,69,60
15600,note_on,1,0,11,,,,,,,,6,,,53,48
15600,note_on,1,0,10,,,,,,,,5,,,69,48
15629,note_on,29,0,9,,,,,,,,4,,,77,0
15629,note_on,29,0,10,,,,,,,,5,,,69,0
15659,note_on,59,0,13,,,,,,,,8,,,38,0
15659,note_on,59,0,11,,,,,,,,6,,,53,0
15660,note_on,1,0,13,,,,,,,,8,,,40,48
15660,note_on,1,0,11,,,,,,,,6,,,55,48
15660,note_on,31,0,9,,,,,,,,4,,,77,48
15660,note_on,31,0,10,,,,,,,,5,,,69,48
15719,note_on,119,0,14,,,,,,,,10,,,77,0
15719,note_on,119,0,15,,,,,,,,11,,,69,0
15719,note_on,119,0,17,,,,,,,,13,,,50,0
15719,note_on,59,0,10,,,,,,,,5,,,69,0
15719,note_on,59,0,11,,,,,,,,6,,,55,0
15719,note_on,59,0,13,,,,,,,,8,,,40,0
15719,note_on,59,0,9,,,,,,,,4,,,77,0
15720,note_on,1,0,15,,,,,,,,11,,,67,60
15720,note_on,1,0,14,,,,,,,,10,,,76,60
15720,note_on,1,0,10,,,,,,,,5,,,67,48
15720,note_on,1,0,11,,,,,,,,6,,,57,48
15720,note_on,1,0,9,,,,,,,,4,,,76,48
15720,note_on,1,0,13,,,,,,,,8,,,41,48
15779,note_on,59,0,9,,,,,,,,4,,,76,0
15779,note_on,59,0,14,,,,,,,,10,,,76,0
15779,note_on,59,0,10,,,,,,,,5,,,67,0
15779,note_on,59,0,15,,,,,,,,11,,,67,0
15779,note_on,59,0,13,,,,,,,,8,,,41,0
15779,note_on,59,0,11,,,,,,,,6,,,57,0
15780,note_on,1,0,10,,,,,,,,5,,,65,48
15780,note_on,1,0,11,,,,,,,,6,,,58,48
15780,note_on,1,0,14,,,,,,,,10,,,74,60
15780,note_on,1,0,15,,,,,,,,11,,,65,60
15780,note_on,1,0,9,,,,,,,,4,,,74,48
15780,note_on,1,0,13,,,,,,,,8,,,43,48
15839,note_on,59,0,9,,,,,,,,4,,,74,0
15839,note_on,59,0,13,,,,,,,,8,,,43,0
15839,note_on,59,0,11,,,,,,,,6,,,58,0
15839,note_on,59,0,14,,,,,,,,10,,,74,0
15839,note_on,59,0,10,,,,,,,,5,,,65,0
15839,note_on,59,0,15,,,,,,,,11,,,65,0
15840,note_on,1,0,13,,,,,,,,8,,,45,48
15840,note_on,1,0,14,,,,,,,,10,,,74,60
15840,note_on,1,0,9,,,,,,,,4,,,74,48
15840,note_on,1,0,15,,,,,,,,11,,,65,60
15840,note_on,1,0,10,,,,,,,,5,,,65,48
15840,note_on,1,0,11,,,,,,,,6,,,57,48
15899,note_on,59,0,9,,,,,,,,4,,,74,0
15899,note_on,59,0,13,,,,,,,,8,,,45,0
15899,note_on,59,0,11,,,,,,,,6,,,57,0
15900,note_on,1,0,9,,,,,,,,4,,,76,48
15900,note_on,1,0,13,,,,,,,,8,,,33,48
15900,note_on,1,0,11,,,,,,,,6,,,57,48
15929,note_on,29,0,9,,,,,,,,4,,,76,0
15930,note_on,1,0,9,,,,,,,,4,,,74,48
15959,note_on,119,0,14,,,,,,,,10,,,74,0
15959,note_on,119,0,15,,,,,,,,11,,,65,0
15959,note_on,59,0,13,,,,,,,,8,,,33,0
15959,note_on,119,0,10,,,,,,,,5,,,65,0
15959,note_on,29,0,9,,,,,,,,4,,,74,0
15959,note_on,59,0,11,,,,,,,,6,,,57,0
15960,note_on,1,0,10,,,,,,,,5,,,64,48
15960,note_on,1,0,15,,,,,,,,11,,,64,60
15960,note_on,1,0,9,,,,,,,,4,,,73,48
15960,note_on,1,0,13,,,,,,,,8,,,45,48
15960,note_on,1,0,14,,,,,,,,10,,,73,60
15960,note_on,1,0,11,,,,,,,,6,,,69,48
16019,note_on,59,0,10,,,,,,,,5,,,64,0
16019,note_on,59,0,13,,,,,,,,8,,,45,0
16019,note_on,59,0,11,,,,,,,,6,,,69,0
16020,note_on,1,0,10,,,,,,,,5,,,61,48
16020,note_on,1,0,11,,,,,,,,6,,,64,48
16020,note_on,1,0,13,,,,,,,,8,,,43,48
16079,note_on,59,0,11,,,,,,,,6,,,64,0
16079,note_on,119,0,14,,,,,,,,10,,,73,0
16079,note_on,119,0,15,,,,,,,,11,,,64,0
16079,note_on,119,0,9,,,,,,,,4,,,73,0
16079,note_on,59,0,13,,,,,,,,8,,,43,0
16079,note_on,59,0,10,,,,,,,,5,,,61,0
16080,note_on,1,0,11,,,,,,,,6,,,62,48
16080,note_on,1,0,13,,,,,,,,8,,,41,48
16080,note_on,1,0,10,,,,,,,,5,,,62,48
16139,note_on,59,0,11,,,,,,,,6,,,62,0
16139,note_on,59,0,13,,,,,,,,8,,,41,0
16139,note_on,59,0,10,,,,,,,,5,,,62,0
16140,note_on,1,0,11,,,,,,,,6,,,61,48
16140,note_on,1,0,10,,,,,,,,5,,,67,48
16140,note_on,1,0,13,,,,,,,,8,,,40,48
16199,note_on,59,0,10,,,,,,,,5,,,67,0
16199,note_on,59,0,13,,,,,,,,8,,,40,0
16199,note_on,59,0,11,,,,,,,,6,,,61,0
16200,note_on,1,0,13,,,,,,,,8,,,38,48
16200,note_on,1,0,10,,,,,,,,5,,,65,48
16200,note_on,4201,0,5,,,,,,,,0,,,74,48
16200,note_on,4201,0,8,,,,,,,,1,,,50,48
16200,note_on,4201,0,6,,,,,,,,0,,,69,48
16200,note_on,121,0,9,,,,,,,,4,,,74,48
16200,note_on,121,0,15,,,,,,,,11,,,69,60
16200,note_on,481,0,17,,,,,,,,13,,,62,60
16200,note_on,1,0,11,,,,,,,,6,,,62,48
16259,note_on,59,0,13,,,,,,,,8,,,38,0
16259,note_on,59,0,8,,,,,,,,1,,,50,0
16259,note_on,59,0,11,,,,,,,,6,,,62,0
16259,note_on,59,0,9,,,,,,,,4,,,74,0
16260,note_on,1,0,13,,,,,,,,8,,,50,48
16260,note_on,1,0,9,,,,,,,,4,,,78,48
16260,note_on,1,0,11,,,,,,,,6,,,66,48
16260,note_on,1,0,8,,,,,,,,1,,,62,48
16289,note_on,29,0,13,,,,,,,,8,,,50,0
16289,note_on,29,0,8,,,,,,,,1,,,62,0
16289,note_on,29,0,11,,,,,,,,6,,,66,0
16290,note_on,1,0,11,,,,,,,,6,,,64,48
16290,note_on,1,0,13,,,,,,,,8,,,48,48
16290,note_on,1,0,8,,,,,,,,1,,,60,48
16319,note_on,119,0,15,,,,,,,,11,,,69,0
16319,note_on,119,0,6,,,,,,,,0,,,69,0
16319,note_on,29,0,11,,,,,,,,6,,,64,0
16319,note_on,119,0,10,,,,,,,,5,,,65,0
16319,note_on,29,0,8,,,,,,,,1,,,60,0
16319,note_on,119,0,17,,,,,,,,13,,,62,0
16319,note_on,59,0,9,,,,,,,,4,,,78,0
16319,note_on,29,0,13,,,,,,,,8,,,48,0
16320,note_on,1,0,11,,,,,,,,6,,,62,48
16320,note_on,1,0,15,,,,,,,,11,,,70,60
16320,note_on,1,0,8,,,,,,,,1,,,58,48
16320,note_on,961,0,16,,,,,,,,12,,,67,60
16320,note_on,241,0,14,,,,,,,,10,,,74,60
16320,note_on,1,0,9,,,,,,,,4,,,79,48
16320,note_on,1,0,6,,,,,,,,0,,,70,48
16320,note_on,1,0,17,,,,,,,,13,,,55,60
16320,note_on,1,0,13,,,,,,,,8,,,46,48
16349,note_on,29,0,9,,,,,,,,4,,,79,0
16379,note_on,59,0,13,,,,,,,,8,,,46,0
16379,note_on,59,0,11,,,,,,,,6,,,62,0
16379,note_on,59,0,8,,,,,,,,1,,,58,0
16380,note_on,4381,0,7,,,,,,,,1,,,67,48
16380,note_on,1,0,13,,,,,,,,8,,,45,48
16380,note_on,61,0,10,,,,,,,,5,,,67,48
16380,note_on,31,0,9,,,,,,,,4,,,70,48
16380,note_on,1,0,11,,,,,,,,6,,,60,48
16380,note_on,1,0,8,,,,,,,,1,,,57,48
16409,note_on,29,0,9,,,,,,,,4,,,70,0
16409,note_on,29,0,10,,,,,,,,5,,,67,0
16409,note_on,29,0,7,,,,,,,,1,,,67,0
16410,note_on,1,0,7,,,,,,,,1,,,65,48
16410,note_on,1,0,10,,,,,,,,5,,,65,48
16439,note_on,59,0,8,,,,,,,,1,,,57,0
16439,note_on,29,0,10,,,,,,,,5,,,65,0
16439,note_on,119,0,16,,,,,,,,12,,,67,0
16439,note_on,119,0,15,,,,,,,,11,,,70,0
16439,note_on,239,0,5,,,,,,,,0,,,74,0
16439,note_on,119,0,14,,,,,,,,10,,,74,0
16439,note_on,119,0,17,,,,,,,,13,,,55,0
16439,note_on,59,0,13,,,,,,,,8,,,45,0
16439,note_on,29,0,7,,,,,,,,1,,,65,0
16439,note_on,59,0,11,,,,,,,,6,,,60,0
16440,note_on,1,0,10,,,,,,,,5,,,64,48
16440,note_on,1,0,7,,,,,,,,1,,,64,48
16440,note_on,1,0,11,,,,,,,,6,,,58,48
16440,note_on,1,0,13,,,,,,,,8,,,43,48
16440,note_on,31,0,9,,,,,,,,4,,,70,48
16440,note_on,1,0,14,,,,,,,,10,,,79,60
16440,note_on,1,0,16,,,,,,,,12,,,58,60
16440,note_on,1,0,5,,,,,,,,0,,,79,48
16440,note_on,1,0,8,,,,,,,,1,,,55,48
16454,note_on,14,0,9,,,,,,,,4,,,70,0
16455,note_on,1,0,9,,,,,,,,4,,,72,48
16469,note_on,14,0,9,,,,,,,,4,,,72,0
16470,note_on,1,0,9,,,,,,,,4,,,70,48
16484,note_on,14,0,9,,,,,,,,4,,,70,0
16485,note_on,1,0,9,,,,,,,,4,,,72,48
16499,note_on,14,0,9,,,,,,,,4,,,72,0
16499,note_on,59,0,8,,,,,,,,1,,,55,0
16499,note_on,59,0,7,,,,,,,,1,,,64,0
16499,note_on,59,0,11,,,,,,,,6,,,58,0
16499,note_on,59,0,13,,,,,,,,8,,,43,0
16499,note_on,59,0,10,,,,,,,,5,,,64,0
16500,note_on,1,0,10,,,,,,,,5,,,62,48
16500,note_on,1,0,8,,,,,,,,1,,,53,48
16500,note_on,1,0,11,,,,,,,,6,,,57,48
16500,note_on,1,0,7,,,,,,,,1,,,62,48
16500,note_on,1,0,13,,,,,,,,8,,,41,48
16500,note_on,1,0,9,,,,,,,,4,,,70,48
16514,note_on,14,0,9,,,,,,,,4,,,70,0
16515,note_on,1,0,9,,,,,,,,4,,,72,48
16529,note_on,14,0,9,,,,,,,,4,,,72,0
16530,note_on,1,0,9,,,,,,,,4,,,69,48
16544,note_on,14,0,9,,,,,,,,4,,,69,0
16545,note_on,1,0,9,,,,,,,,4,,,70,48
16559,note_on,119,0,5,,,,,,,,0,,,79,0
16559,note_on,119,0,16,,,,,,,,12,,,58,0
16559,note_on,239,0,6,,,,,,,,0,,,70,0
16559,note_on,59,0,13,,,,,,,,8,,,41,0
16559,note_on,59,0,8,,,,,,,,1,,,53,0
16559,note_on,59,0,10,,,,,,,,5,,,62,0
16559,note_on,59,0,7,,,,,,,,1,,,62,0
16559,note_on,14,0,9,,,,,,,,4,,,70,0
16559,note_on,119,0,14,,,,,,,,10,,,79,0
16559,note_on,59,0,11,,,,,,,,6,,,57,0
16560,note_on,1,0,5,,,,,,,,0,,,72,48
16560,note_on,121,0,17,,,,,,,,13,,,60,60
16560,note_on,1,0,8,,,,,,,,1,,,52,48
16560,note_on,1,0,11,,,,,,,,6,,,55,48
16560,note_on,1,0,13,,,,,,,,8,,,40,48
16560,note_on,1,0,6,,,,,,,,0,,,67,48
16560,note_on,1,0,10,,,,,,,,5,,,60,48
16560,note_on,121,0,15,,,,,,,,11,,,67,60
16560,note_on,1,0,9,,,,,,,,4,,,72,48
16560,note_on,1,0,7,,,,,,,,1,,,60,48
16619,note_on,59,0,9,,,,,,,,4,,,72,0
16619,note_on,59,0,13,,,,,,,,8,,,40,0
16619,note_on,59,0,8,,,,,,,,1,,,52,0
16619,note_on,59,0,11,,,,,,,,6,,,55,0
16620,note_on,1,0,13,,,,,,,,8,,,48,48
16620,note_on,1,0,11,,,,,,,,6,,,64,48
16620,note_on,1,0,9,,,,,,,,4,,,76,48
16620,note_on,1,0,8,,,,,,,,1,,,60,48
16649,note_on,29,0,8,,,,,,,,1,,,60,0
16649,note_on,29,0,11,,,,,,,,6,,,64,0
16649,note_on,29,0,13,,,,,,,,8,,,48,0
16650,note_on,1,0,11,,,,,,,,6,,,62,48
16650,note_on,1,0,8,,,,,,,,1,,,58,48
16650,note_on,1,0,13,,,,,,,,8,,,46,48
16679,note_on,119,0,15,,,,,,,,11,,,67,0
16679,note_on,29,0,13,,,,,,,,8,,,46,0
16679,note_on,29,0,8,,,,,,,,1,,,58,0
16679,note_on,119,0,17,,,,,,,,13,,,60,0
16679,note_on,119,0,7,,,,,,,,1,,,60,0
16679,note_on,119,0,6,,,,,,,,0,,,67,0
16679,note_on,29,0,11,,,,,,,,6,,,62,0
16679,note_on,119,0,10,,,,,,,,5,,,60,0
16679,note_on,59,0,9,,,,,,,,4,,,76,0
16680,note_on,1,0,13,,,,,,,,8,,,45,48
16680,note_on,1,0,11,,,,,,,,6,,,60,48
16680,note_on,121,0,16,,,,,,,,12,,,65,60
16680,note_on,1,0,6,,,,,,,,0,,,69,48
16680,note_on,121,0,14,,,,,,,,10,,,72,60
16680,note_on,1,0,9,,,,,,,,4,,,77,48
16680,note_on,1,0,15,,,,,,,,11,,,69,60
16680,note_on,1,0,8,,,,,,,,1,,,57,48
16680,note_on,1,0,17,,,,,,,,13,,,53,60
16709,note_on,29,0,9,,,,,,,,4,,,77,0
16739,note_on,59,0,13,,,,,,,,8,,,45,0
16739,note_on,59,0,8,,,,,,,,1,,,57,0
16739,note_on,59,0,11,,,,,,,,6,,,60,0
16740,note_on,61,0,10,,,,,,,,5,,,65,48
16740,note_on,61,0,7,,,,,,,,1,,,65,48
16740,note_on,1,0,13,,,,,,,,8,,,43,48
16740,note_on,31,0,9,,,,,,,,4,,,69,48
16740,note_on,1,0,11,,,,,,,,6,,,58,48
16740,note_on,1,0,8,,,,,,,,1,,,55,48
16769,note_on,29,0,10,,,,,,,,5,,,65,0
16769,note_on,29,0,9,,,,,,,,4,,,69,0
16769,note_on,29,0,7,,,,,,,,1,,,65,0
16770,note_on,1,0,7,,,,,,,,1,,,64,48
16770,note_on,1,0,10,,,,,,,,5,,,64,48
16799,note_on,59,0,8,,,,,,,,1,,,55,0
16799,note_on,119,0,17,,,,,,,,13,,,53,0
16799,note_on,119,0,16,,,,,,,,12,,,65,0
16799,note_on,119,0,15,,,,,,,,11,,,69,0
16799,note_on,59,0,13,,,,,,,,8,,,43,0
16799,note_on,29,0,10,,,,,,,,5,,,64,0
16799,note_on,59,0,11,,,,,,,,6,,,58,0
16799,note_on,29,0,7,,,,,,,,1,,,64,0
16799,note_on,239,0,5,,,,,,,,0,,,72,0
16799,note_on,119,0,14,,,,,,,,10,,,72,0
16800,note_on,1,0,13,,,,,,,,8,,,41,48
16800,note_on,31,0,9,,,,,,,,4,,,69,48
16800,note_on,1,0,7,,,,,,,,1,,,62,48
16800,note_on,1,0,5,,,,,,,,0,,,77,48
16800,note_on,1,0,16,,,,,,,,12,,,57,60
16800,note_on,1,0,10,,,,,,,,5,,,62,48
16800,note_on,1,0,11,,,,,,,,6,,,57,48
16800,note_on,1,0,8,,,,,,,,1,,,53,48
16800,note_on,1,0,14,,,,,,,,10,,,77,60
16814,note_on,14,0,9,,,,,,,,4,,,69,0
16815,note_on,1,0,9,,,,,,,,4,,,70,48
16829,note_on,14,0,9,,,,,,,,4,,,70,0
16830,note_on,1,0,9,,,,,,,,4,,,69,48
16844,note_on,14,0,9,,,,,,,,4,,,69,0
16845,note_on,1,0,9,,,,,,,,4,,,70,48
16859,note_on,59,0,8,,,,,,,,1,,,53,0
16859,note_on,14,0,9,,,,,,,,4,,,70,0
16859,note_on,59,0,7,,,,,,,,1,,,62,0
16859,note_on,59,0,13,,,,,,,,8,,,41,0
16859,note_on,59,0,11,,,,,,,,6,,,57,0
16859,note_on,59,0,10,,,,,,,,5,,,62,0
16860,note_on,1,0,10,,,,,,,,5,,,60,48
16860,note_on,1,0,7,,,,,,,,1,,,60,48
16860,note_on,1,0,13,,,,,,,,8,,,40,48
16860,note_on,1,0,11,,,,,,,,6,,,55,48
16860,note_on,1,0,8,,,,,,,,1,,,52,48
16860,note_on,1,0,9,,,,,,,,4,,,69,48
16874,note_on,14,0,9,,,,,,,,4,,,69,0
16875,note_on,1,0,9,,,,,,,,4,,,70,48
16889,note_on,14,0,9,,,,,,,,4,,,70,0
16890,note_on,1,0,9,,,,,,,,4,,,67,48
16904,note_on,14,0,9,,,,,,,,4,,,67,0
16905,note_on,1,0,9,,,,,,,,4,,,69,48
16919,note_on,59,0,10,,,,,,,,5,,,60,0
16919,note_on,59,0,8,,,,,,,,1,,,52,0
16919,note_on,119,0,14,,,,,,,,10,,,77,0
16919,note_on,59,0,13,,,,,,,,8,,,40,0
16919,note_on,119,0,16,,,,,,,,12,,,57,0
16919,note_on,239,0,6,,,,,,,,0,,,69,0
16919,note_on,59,0,7,,,,,,,,1,,,60,0
16919,note_on,59,0,11,,,,,,,,6,,,55,0
16919,note_on,119,0,5,,,,,,,,0,,,77,0
16919,note_on,14,0,9,,,,,,,,4,,,69,0
16920,note_on,1,0,13,,,,,,,,8,,,38,48
16920,note_on,1,0,11,,,,,,,,6,,,53,48
16920,note_on,121,0,17,,,,,,,,13,,,58,60
16920,note_on,1,0,9,,,,,,,,4,,,70,48
16920,note_on,121,0,15,,,,,,,,11,,,65,60
16920,note_on,1,0,8,,,,,,,,1,,,50,48
16920,note_on,1,0,7,,,,,,,,1,,,58,48
16920,note_on,1,0,5,,,,,,,,0,,,70,48
16920,note_on,1,0,6,,,,,,,,0,,,65,48
16920,note_on,1,0,10,,,,,,,,5,,,58,48
16979,note_on,59,0,13,,,,,,,,8,,,38,0
16979,note_on,59,0,8,,,,,,,,1,,,50,0
16979,note_on,59,0,11,,,,,,,,6,,,53,0
16979,note_on,59,0,9,,,,,,,,4,,,70,0
16980,note_on,1,0,8,,,,,,,,1,,,58,48
16980,note_on,1,0,11,,,,,,,,6,,,62,48
16980,note_on,1,0,13,,,,,,,,8,,,46,48
16980,note_on,1,0,9,,,,,,,,4,,,74,48
17009,note_on,29,0,11,,,,,,,,6,,,62,0
17009,note_on,29,0,13,,,,,,,,8,,,46,0
17009,note_on,29,0,8,,,,,,,,1,,,58,0
17010,note_on,1,0,13,,,,,,,,8,,,45,48
17010,note_on,1,0,8,,,,,,,,1,,,57,48
17010,note_on,1,0,11,,,,,,,,6,,,60,48
17039,note_on,119,0,10,,,,,,,,5,,,58,0
17039,note_on,29,0,11,,,,,,,,6,,,60,0
17039,note_on,119,0,15,,,,,,,,11,,,65,0
17039,note_on,59,0,9,,,,,,,,4,,,74,0
17039,note_on,29,0,8,,,,,,,,1,,,57,0
17039,note_on,29,0,13,,,,,,,,8,,,45,0
17039,note_on,119,0,6,,,,,,,,0,,,65,0
17039,note_on,119,0,17,,,,,,,,13,,,58,0
17039,note_on,119,0,7,,,,,,,,1,,,58,0
17040,note_on,1,0,6,,,,,,,,0,,,67,48
17040,note_on,1,0,15,,,,,,,,11,,,67,60
17040,note_on,1,0,17,,,,,,,,13,,,52,60
17040,note_on,121,0,16,,,,,,,,12,,,64,60
17040,note_on,1,0,13,,,,,,,,8,,,43,48
17040,note_on,121,0,14,,,,,,,,10,,,70,60
17040,note_on,1,0,9,,,,,,,,4,,,76,48
17040,note_on,1,0,8,,,,,,,,1,,,55,48
17040,note_on,1,0,11,,,,,,,,6,,,58,48
17069,note_on,29,0,9,,,,,,,,4,,,76,0
17099,note_on,59,0,8,,,,,,,,1,,,55,0
17099,note_on,59,0,13,,,,,,,,8,,,43,0
17099,note_on,59,0,11,,,,,,,,6,,,58,0
17100,note_on,61,0,10,,,,,,,,5,,,64,48
17100,note_on,1,0,13,,,,,,,,8,,,41,48
17100,note_on,1,0,8,,,,,,,,1,,,53,48
17100,note_on,61,0,7,,,,,,,,1,,,64,48
17100,note_on,1,0,11,,,,,,,,6,,,57,48
17100,note_on,31,0,9,,,,,,,,4,,,67,48
17129,note_on,29,0,7,,,,,,,,1,,,64,0
17129,note_on,29,0,10,,,,,,,,5,,,64,0
17129,note_on,29,0,9,,,,,,,,4,,,67,0
17130,note_on,1,0,7,,,,,,,,1,,,62,48
17130,note_on,1,0,10,,,,,,,,5,,,62,48
17159,note_on,119,0,15,,,,,,,,11,,,67,0
17159,note_on,239,0,5,,,,,,,,0,,,70,0
17159,note_on,59,0,13,,,,,,,,8,,,41,0
17159,note_on,119,0,17,,,,,,,,13,,,52,0
17159,note_on,119,0,16,,,,,,,,12,,,64,0
17159,note_on,59,0,8,,,,,,,,1,,,53,0
17159,note_on,29,0,7,,,,,,,,1,,,62,0
17159,note_on,59,0,11,,,,,,,,6,,,57,0
17159,note_on,29,0,10,,,,,,,,5,,,62,0
17159,note_on,119,0,14,,,,,,,,10,,,70,0
17160,note_on,1,0,16,,,,,,,,12,,,55,60
17160,note_on,1,0,5,,,,,,,,0,,,76,48
17160,note_on,31,0,9,,,,,,,,4,,,67,48
17160,note_on,1,0,8,,,,,,,,1,,,52,48
17160,note_on,1,0,7,,,,,,,,1,,,61,48
17160,note_on,1,0,14,,,,,,,,10,,,76,60
17160,note_on,1,0,13,,,,,,,,8,,,40,48
17160,note_on,1,0,11,,,,,,,,6,,,55,48
17160,note_on,1,0,10,,,,,,,,5,,,61,48
17174,note_on,14,0,9,,,,,,,,4,,,67,0
17175,note_on,1,0,9,,,,,,,,4,,,69,48
17189,note_on,14,0,9,,,,,,,,4,,,69,0
17190,note_on,1,0,9,,,,,,,,4,,,67,48
17204,note_on,14,0,9,,,,,,,,4,,,67,0
17205,note_on,1,0,9,,,,,,,,4,,,69,48
17219,note_on,59,0,11,,,,,,,,6,,,55,0
17219,note_on,59,0,8,,,,,,,,1,,,52,0
17219,note_on,59,0,10,,,,,,,,5,,,61,0
17219,note_on,14,0,9,,,,,,,,4,,,69,0
17219,note_on,59,0,7,,,,,,,,1,,,61,0
17219,note_on,59,0,13,,,,,,,,8,,,40,0
17220,note_on,1,0,10,,,,,,,,5,,,59,48
17220,note_on,1,0,8,,,,,,,,1,,,50,48
17220,note_on,1,0,7,,,,,,,,1,,,59,48
17220,note_on,1,0,11,,,,,,,,6,,,53,48
17220,note_on,1,0,13,,,,,,,,8,,,38,48
17220,note_on,1,0,9,,,,,,,,4,,,67,48
17234,note_on,14,0,9,,,,,,,,4,,,67,0
17235,note_on,1,0,9,,,,,,,,4,,,69,48
17249,note_on,14,0,9,,,,,,,,4,,,69,0
17250,note_on,1,0,9,,,,,,,,4,,,65,48
17264,note_on,14,0,9,,,,,,,,4,,,65,0
17265,note_on,1,0,9,,,,,,,,4,,,67,48
17279,note_on,59,0,13,,,,,,,,8,,,38,0
17279,note_on,59,0,11,,,,,,,,6,,,53,0
17279,note_on,119,0,16,,,,,,,,12,,,55,0
17279,note_on,14,0,9,,,,,,,,4,,,67,0
17279,note_on,59,0,8,,,,,,,,1,,,50,0
17279,note_on,119,0,5,,,,,,,,0,,,76,0
17279,note_on,59,0,7,,,,,,,,1,,,59,0
17279,note_on,59,0,10,,,,,,,,5,,,59,0
17279,note_on,119,0,14,,,,,,,,10,,,76,0
17279,note_on,239,0,6,,,,,,,,0,,,67,0
17280,note_on,1,0,13,,,,,,,,8,,,37,48
17280,note_on,1,0,5,,,,,,,,0,,,69,48
17280,note_on,1,0,9,,,,,,,,4,,,69,48
17280,note_on,1,0,6,,,,,,,,0,,,64,48
17280,note_on,1,0,7,,,,,,,,1,,,57,48
17280,note_on,121,0,17,,,,,,,,13,,,57,60
17280,note_on,1,0,11,,,,,,,,6,,,52,48
17280,note_on,121,0,15,,,,,,,,11,,,64,60
17280,note_on,1,0,10,,,,,,,,5,,,57,48
17280,note_on,1,0,8,,,,,,,,1,,,49,48
17339,note_on,59,0,13,,,,,,,,8,,,37,0
17339,note_on,59,0,9,,,,,,,,4,,,69,0
17339,note_on,59,0,11,,,,,,,,6,,,52,0
17339,note_on,59,0,8,,,,,,,,1,,,49,0
17340,note_on,1,0,11,,,,,,,,6,,,61,48
17340,note_on,1,0,13,,,,,,,,8,,,45,48
17340,note_on,1,0,8,,,,,,,,1,,,57,48
17340,note_on,1,0,9,,,,,,,,4,,,73,48
17369,note_on,29,0,13,,,,,,,,8,,,45,0
17369,note_on,29,0,11,,,,,,,,6,,,61,0
17369,note_on,29,0,8,,,,,,,,1,,,57,0
17370,note_on,1,0,8,,,,,,,,1,,,55,48
17370,note_on,1,0,13,,,,,,,,8,,,43,48
17370,note_on,1,0,11,,,,,,,,6,,,59,48
17399,note_on,119,0,15,,,,,,,,11,,,64,0
17399,note_on,29,0,13,,,,,,,,8,,,43,0
17399,note_on,29,0,8,,,,,,,,1,,,55,0
17399,note_on,59,0,9,,,,,,,,4,,,73,0
17399,note_on,29,0,11,,,,,,,,6,,,59,0
17399,note_on,119,0,17,,,,,,,,13,,,57,0
17399,note_on,119,0,7,,,,,,,,1,,,57,0
17399,note_on,119,0,6,,,,,,,,0,,,64,0
17399,note_on,119,0,10,,,,,,,,5,,,57,0
17400,note_on,1,0,6,,,,,,,,0,,,65,48
17400,note_on,121,0,14,,,,,,,,10,,,67,60
17400,note_on,1,0,11,,,,,,,,6,,,57,48
17400,note_on,1,0,17,,,,,,,,13,,,50,60
17400,note_on,121,0,16,,,,,,,,12,,,62,60
17400,note_on,1,0,9,,,,,,,,4,,,74,48
17400,note_on,1,0,8,,,,,,,,1,,,53,48
17400,note_on,1,0,15,,,,,,,,11,,,65,60
17400,note_on,1,0,13,,,,,,,,8,,,41,48
17429,note_on,29,0,9,,,,,,,,4,,,74,0
17459,note_on,59,0,8,,,,,,,,1,,,53,0
17459,note_on,59,0,11,,,,,,,,6,,,57,0
17459,note_on,59,0,13,,,,,,,,8,,,41,0
17460,note_on,1,0,8,,,,,,,,1,,,52,48
17460,note_on,1,0,13,,,,,,,,8,,,40,48
17460,note_on,1,0,11,,,,,,,,6,,,55,48
17460,note_on,61,0,7,,,,,,,,1,,,62,48
17460,note_on,61,0,10,,,,,,,,5,,,62,48
17460,note_on,31,0,9,,,,,,,,4,,,65,48
17489,note_on,29,0,9,,,,,,,,4,,,65,0
17489,note_on,29,0,7,,,,,,,,1,,,62,0
17489,note_on,29,0,10,,,,,,,,5,,,62,0
17490,note_on,1,0,7,,,,,,,,1,,,60,48
17490,note_on,1,0,10,,,,,,,,5,,,60,48
17519,note_on,119,0,15,,,,,,,,11,,,65,0
17519,note_on,59,0,11,,,,,,,,6,,,55,0
17519,note_on,119,0,16,,,,,,,,12,,,62,0
17519,note_on,59,0,8,,,,,,,,1,,,52,0
17519,note_on,29,0,10,,,,,,,,5,,,60,0
17519,note_on,119,0,17,,,,,,,,13,,,50,0
17519,note_on,29,0,7,,,,,,,,1,,,60,0
17519,note_on,59,0,13,,,,,,,,8,,,40,0
17519,note_on,119,0,14,,,,,,,,10,,,67,0
17519,note_on,239,0,5,,,,,,,,0,,,69,0
17520,note_on,1,0,5,,,,,,,,0,,,74,48
17520,note_on,1,0,8,,,,,,,,1,,,50,48
17520,note_on,1,0,7,,,,,,,,1,,,58,48
17520,note_on,1,0,13,,,,,,,,8,,,38,48
17520,note_on,1,0,11,,,,,,,,6,,,53,48
17520,note_on,1,0,14,,,,,,,,10,,,74,60
17520,note_on,1,0,10,,,,,,,,5,,,58,48
17520,note_on,31,0,9,,,,,,,,4,,,65,48
17520,note_on,1,0,16,,,,,,,,12,,,53,60
17534,note_on,14,0,9,,,,,,,,4,,,65,0
17535,note_on,1,0,9,,,,,,,,4,,,67,48
17549,note_on,14,0,9,,,,,,,,4,,,67,0
17550,note_on,1,0,9,,,,,,,,4,,,65,48
17564,note_on,14,0,9,,,,,,,,4,,,65,0
17565,note_on,1,0,9,,,,,,,,4,,,67,48
17579,note_on,14,0,9,,,,,,,,4,,,67,0
17579,note_on,59,0,11,,,,,,,,6,,,53,0
17579,note_on,59,0,13,,,,,,,,8,,,38,0
17579,note_on,59,0,10,,,,,,,,5,,,58,0
17579,note_on,59,0,7,,,,,,,,1,,,58,0
17579,note_on,59,0,8,,,,,,,,1,,,50,0
17580,note_on,1,0,10,,,,,,,,5,,,57,48
17580,note_on,1,0,7,,,,,,,,1,,,57,48
17580,note_on,1,0,9,,,,,,,,4,,,65,48
17580,note_on,1,0,11,,,,,,,,6,,,52,48
17580,note_on,1,0,8,,,,,,,,1,,,48,48
17580,note_on,1,0,13,,,,,,,,8,,,36,48
17594,note_on,14,0,9,,,,,,,,4,,,65,0
17595,note_on,1,0,9,,,,,,,,4,,,67,48
17609,note_on,14,0,9,,,,,,,,4,,,67,0
17610,note_on,1,0,9,,,,,,,,4,,,64,48
17624,note_on,14,0,9,,,,,,,,4,,,64,0
17625,note_on,1,0,9,,,,,,,,4,,,65,48
17639,note_on,239,0,6,,,,,,,,0,,,65,0
17639,note_on,59,0,10,,,,,,,,5,,,57,0
17639,note_on,59,0,13,,,,,,,,8,,,36,0
17639,note_on,14,0,9,,,,,,,,4,,,65,0
17639,note_on,59,0,7,,,,,,,,1,,,57,0
17639,note_on,119,0,14,,,,,,,,10,,,74,0
17639,note_on,119,0,5,,,,,,,,0,,,74,0
17639,note_on,59,0,8,,,,,,,,1,,,48,0
17639,note_on,59,0,11,,,,,,,,6,,,52,0
17639,note_on,119,0,16,,,,,,,,12,,,53,0
17640,note_on,1,0,10,,,,,,,,5,,,55,48
17640,note_on,1,0,14,,,,,,,,10,,,77,60
17640,note_on,1,0,7,,,,,,,,1,,,62,48
17640,note_on,121,0,17,,,,,,,,13,,,58,60
17640,note_on,1,0,6,,,,,,,,0,,,65,48
17640,note_on,1,0,16,,,,,,,,12,,,62,60
17640,note_on,121,0,15,,,,,,,,11,,,65,60
17640,note_on,1,0,9,,,,,,,,4,,,77,48
17640,note_on,1,0,5,,,,,,,,0,,,77,48
17640,note_on,1,0,8,,,,,,,,1,,,46,48
17640,note_on,1,0,11,,,,,,,,6,,,50,48
17640,note_on,1,0,13,,,,,,,,8,,,34,48
17699,note_on,59,0,11,,,,,,,,6,,,50,0
17699,note_on,59,0,13,,,,,,,,8,,,34,0
17699,note_on,59,0,10,,,,,,,,5,,,55,0
17699,note_on,59,0,8,,,,,,,,1,,,46,0
17700,note_on,1,0,11,,,,,,,,6,,,65,48
17700,note_on,1,0,10,,,,,,,,5,,,62,48
17700,note_on,1,0,13,,,,,,,,8,,,46,48
17700,note_on,1,0,8,,,,,,,,1,,,58,48
17729,note_on,29,0,10,,,,,,,,5,,,62,0
17729,note_on,29,0,11,,,,,,,,6,,,65,0
17729,note_on,29,0,8,,,,,,,,1,,,58,0
17759,note_on,59,0,13,,,,,,,,8,,,46,0
17760,note_on,31,0,11,,,,,,,,6,,,65,48
17760,note_on,31,0,8,,,,,,,,1,,,58,48
17760,note_on,31,0,10,,,,,,,,5,,,62,48
17760,note_on,1,0,13,,,,,,,,8,,,46,48
17789,note_on,29,0,11,,,,,,,,6,,,65,0
17789,note_on,29,0,8,,,,,,,,1,,,58,0
17789,note_on,29,0,10,,,,,,,,5,,,62,0
17819,note_on,179,0,5,,,,,,,,0,,,77,0
17819,note_on,179,0,9,,,,,,,,4,,,77,0
17819,note_on,179,0,15,,,,,,,,11,,,65,0
17819,note_on,179,0,16,,,,,,,,12,,,62,0
17819,note_on,179,0,6,,,,,,,,0,,,65,0
17819,note_on,59,0,13,,,,,,,,8,,,46,0
17819,note_on,179,0,17,,,,,,,,13,,,58,0
17819,note_on,179,0,7,,,,,,,,1,,,62,0
17819,note_on,179,0,14,,,,,,,,10,,,77,0
17820,note_on,31,0,11,,,,,,,,6,,,67,48
17820,note_on,1,0,13,,,,,,,,8,,,46,48
17820,note_on,31,0,8,,,,,,,,1,,,58,48
17820,note_on,1,0,7,,,,,,,,1,,,64,48
17820,note_on,1,0,16,,,,,,,,12,,,64,60
17820,note_on,1,0,6,,,,,,,,0,,,67,48
17820,note_on,1,0,15,,,,,,,,11,,,67,60
17820,note_on,1,0,17,,,,,,,,13,,,58,60
17820,note_on,1,0,9,,,,,,,,4,,,73,48
17820,note_on,1,0,14,,,,,,,,10,,,73,60
17820,note_on,31,0,10,,,,,,,,5,,,64,48
17820,note_on,1,0,5,,,,,,,,0,,,73,48
17849,note_on,29,0,10,,,,,,,,5,,,64,0
17849,note_on,29,0,8,,,,,,,,1,,,58,0
17849,note_on,29,0,11,,,,,,,,6,,,67,0
17849,note_on,29,0,9,,,,,,,,4,,,73,0
17879,note_on,59,0,6,,,,,,,,0,,,67,0
17879,note_on,59,0,7,,,,,,,,1,,,64,0
17879,note_on,59,0,14,,,,,,,,10,,,73,0
17879,note_on,59,0,13,,,,,,,,8,,,46,0
17879,note_on,59,0,17,,,,,,,,13,,,58,0
17879,note_on,59,0,5,,,,,,,,0,,,73,0
17879,note_on,59,0,16,,,,,,,,12,,,64,0
17879,note_on,59,0,15,,,,,,,,11,,,67,0
17880,note_on,31,0,8,,,,,,,,1,,,58,48
17880,note_on,1,0,7,,,,,,,,1,,,65,48
17880,note_on,31,0,9,,,,,,,,4,,,74,48
17880,note_on,1,0,15,,,,,,,,11,,,68,60
17880,note_on,1,0,17,,,,,,,,13,,,58,60
17880,note_on,1,0,14,,,,,,,,10,,,74,60
17880,note_on,1,0,16,,,,,,,,12,,,65,60
17880,note_on,31,0,11,,,,,,,,6,,,68,48
17880,note_on,1,0,13,,,,,,,,8,,,46,48
17880,note_on,1,0,5,,,,,,,,0,,,74,48
17880,note_on,31,0,10,,,,,,,,5,,,65,48
17880,note_on,1,0,6,,,,,,,,0,,,68,48
17909,note_on,29,0,10,,,,,,,,5,,,65,0
17909,note_on,29,0,9,,,,,,,,4,,,74,0
17909,note_on,29,0,11,,,,,,,,6,,,68,0
17939,note_on,59,0,14,,,,,,,,10,,,74,0
17939,note_on,59,0,16,,,,,,,,12,,,65,0
17939,note_on,59,0,7,,,,,,,,1,,,65,0
17939,note_on,59,0,17,,,,,,,,13,,,58,0
17939,note_on,59,0,5,,,,,,,,0,,,74,0
17939,note_on,59,0,15,,,,,,,,11,,,68,0
17939,note_on,59,0,13,,,,,,,,8,,,46,0
17939,note_on,59,0,8,,,,,,,,1,,,58,0
17939,note_on,59,0,6,,,,,,,,0,,,68,0
17940,note_on,1,0,13,,,,,,,,8,,,45,48
17940,note_on,31,0,10,,,,,,,,5,,,65,48
17940,note_on,1,0,5,,,,,,,,0,,,73,48
17940,note_on,1,0,14,,,,,,,,10,,,73,60
17940,note_on,1,0,15,,,,,,,,11,,,69,60
17940,note_on,1,0,16,,,,,,,,12,,,65,60
17940,note_on,1,0,6,,,,,,,,0,,,69,48
17940,note_on,1,0,17,,,,,,,,13,,,57,60
17940,note_on,1,0,7,,,,,,,,1,,,65,48
17940,note_on,1,0,8,,,,,,,,1,,,57,48
17940,note_on,31,0,11,,,,,,,,6,,,69,48
17940,note_on,31,0,9,,,,,,,,4,,,73,48
17969,note_on,29,0,9,,,,,,,,4,,,73,0
17969,note_on,29,0,10,,,,,,,,5,,,65,0
17969,note_on,29,0,11,,,,,,,,6,,,69,0
17999,note_on,59,0,17,,,,,,,,13,,,57,0
17999,note_on,59,0,7,,,,,,,,1,,,65,0
17999,note_on,59,0,8,,,,,,,,1,,,57,0
17999,note_on,59,0,13,,,,,,,,8,,,45,0
17999,note_on,59,0,6,,,,,,,,0,,,69,0
17999,note_on,59,0,5,,,,,,,,0,,,73,0
17999,note_on,59,0,14,,,,,,,,10,,,73,0
17999,note_on,59,0,16,,,,,,,,12,,,65,0
17999,note_on,59,0,15,,,,,,,,11,,,69,0
18000,note_on,1,0,6,,,,,,,,0,,,70,48
18000,note_on,31,0,11,,,,,,,,6,,,70,48
18000,note_on,1,0,16,,,,,,,,12,,,65,60
18000,note_on,1,0,15,,,,,,,,11,,,70,60
18000,note_on,1,0,13,,,,,,,,8,,,43,48
18000,note_on,1,0,14,,,,,,,,10,,,74,60
18000,note_on,1,0,8,,,,,,,,1,,,55,48
18000,note_on,31,0,9,,,,,,,,4,,,74,48
18000,note_on,1,0,17,,,,,,,,13,,,55,60
18000,note_on,1,0,5,,,,,,,,0,,,74,48
18000,note_on,1,0,7,,,,,,,,1,,,65,48
18000,note_on,31,0,10,,,,,,,,5,,,65,48
18059,note_on,59,0,13,,,,,,,,8,,,43,0
18059,note_on,59,0,11,,,,,,,,6,,,70,0
18059,note_on,59,0,14,,,,,,,,10,,,74,0
18059,note_on,59,0,9,,,,,,,,4,,,74,0
18059,note_on,59,0,10,,,,,,,,5,,,65,0
18059,note_on,59,0,16,,,,,,,,12,,,65,0
18059,note_on,59,0,5,,,,,,,,0,,,74,0
18059,note_on,59,0,17,,,,,,,,13,,,55,0
18059,note_on,59,0,7,,,,,,,,1,,,65,0
18059,note_on,59,0,15,,,,,,,,11,,,70,0
18060,note_on,1,0,13,,,,,,,,8,,,43,48
18060,note_on,1,0,16,,,,,,,,12,,,67,60
18060,note_on,1,0,5,,,,,,,,0,,,76,48
18060,note_on,1,0,7,,,,,,,,1,,,67,48
18060,note_on,1,0,9,,,,,,,,4,,,76,48
18060,note_on,1,0,17,,,,,,,,13,,,55,60
18060,note_on,1,0,15,,,,,,,,11,,,70,60
18060,note_on,1,0,11,,,,,,,,6,,,70,48
18060,note_on,1,0,14,,,,,,,,10,,,76,60
18060,note_on,1,0,10,,,,,,,,5,,,67,48
18119,note_on,59,0,9,,,,,,,,4,,,76,0
18119,note_on,59,0,14,,,,,,,,10,,,76,0
18119,note_on,59,0,10,,,,,,,,5,,,67,0
18119,note_on,119,0,8,,,,,,,,1,,,55,0
18119,note_on,59,0,13,,,,,,,,8,,,43,0
18119,note_on,59,0,17,,,,,,,,13,,,55,0
18119,note_on,59,0,16,,,,,,,,12,,,67,0
18119,note_on,59,0,15,,,,,,,,11,,,70,0
18119,note_on,59,0,5,,,,,,,,0,,,76,0
18119,note_on,59,0,11,,,,,,,,6,,,70,0
18119,note_on,59,0,7,,,,,,,,1,,,67,0
18119,note_on,119,0,6,,,,,,,,0,,,70,0
18120,note_on,1,0,9,,,,,,,,4,,,74,48
18120,note_on,1,0,13,,,,,,,,8,,,45,48
18120,note_on,1,0,5,,,,,,,,0,,,74,48
18120,note_on,1,0,7,,,,,,,,1,,,65,48
18120,note_on,1,0,8,,,,,,,,1,,,57,48
18120,note_on,1,0,15,,,,,,,,11,,,69,60
18120,note_on,1,0,17,,,,,,,,13,,,57,60
18120,note_on,1,0,11,,,,,,,,6,,,69,48
18120,note_on,1,0,14,,,,,,,,10,,,74,60
18120,note_on,1,0,6,,,,,,,,0,,,69,48
18120,note_on,1,0,16,,,,,,,,12,,,65,60
18120,note_on,1,0,10,,,,,,,,5,,,65,48
18179,note_on,59,0,9,,,,,,,,4,,,74,0
18179,note_on,59,0,11,,,,,,,,6,,,69,0
18179,note_on,59,0,10,,,,,,,,5,,,65,0
18179,note_on,59,0,13,,,,,,,,8,,,45,0
18180,note_on,1,0,11,,,,,,,,6,,,69,48
18180,note_on,1,0,10,,,,,,,,5,,,65,48
18180,note_on,1,0,9,,,,,,,,4,,,74,48
18180,note_on,1,0,13,,,,,,,,8,,,45,48
18239,note_on,59,0,13,,,,,,,,8,,,45,0
18239,note_on,119,0,8,,,,,,,,1,,,57,0
18239,note_on,119,0,7,,,,,,,,1,,,65,0
18239,note_on,119,0,14,,,,,,,,10,,,74,0
18239,note_on,59,0,10,,,,,,,,5,,,65,0
18239,note_on,119,0,5,,,,,,,,0,,,74,0
18239,note_on,119,0,16,,,,,,,,12,,,65,0
18239,note_on,59,0,11,,,,,,,,6,,,69,0
18239,note_on,59,0,9,,,,,,,,4,,,74,0
18240,note_on,1,0,10,,,,,,,,5,,,64,48
18240,note_on,1,0,5,,,,,,,,0,,,73,48
18240,note_on,1,0,7,,,,,,,,1,,,64,48
18240,note_on,1,0,11,,,,,,,,6,,,69,48
18240,note_on,1,0,13,,,,,,,,8,,,33,48
18240,note_on,1,0,16,,,,,,,,12,,,64,60
18240,note_on,1,0,9,,,,,,,,4,,,73,48
18240,note_on,1,0,14,,,,,,,,10,,,73,60
18240,note_on,1,0,8,,,,,,,,1,,,45,48
18299,note_on,59,0,11,,,,,,,,6,,,69,0
18299,note_on,59,0,9,,,,,,,,4,,,73,0
18299,note_on,59,0,10,,,,,,,,5,,,64,0
18299,note_on,59,0,13,,,,,,,,8,,,33,0
18300,note_on,1,0,13,,,,,,,,8,,,33,48
18300,note_on,1,0,11,,,,,,,,6,,,69,48
18300,note_on,1,0,10,,,,,,,,5,,,64,48
18300,note_on,1,0,9,,,,,,,,4,,,73,48
18359,note_on,59,0,10,,,,,,,,5,,,64,0
18359,note_on,119,0,8,,,,,,,,1,,,45,0
18359,note_on,119,0,7,,,,,,,,1,,,64,0
18359,note_on,239,0,6,,,,,,,,0,,,69,0
18359,note_on,59,0,13,,,,,,,,8,,,33,0
18359,note_on,119,0,14,,,,,,,,10,,,73,0
18359,note_on,119,0,16,,,,,,,,12,,,64,0
18359,note_on,59,0,11,,,,,,,,6,,,69,0
18359,note_on,119,0,5,,,,,,,,0,,,73,0
18359,note_on,239,0,15,,,,,,,,11,,,69,0
18359,note_on,239,0,17,,,,,,,,13,,,57,0
18359,note_on,59,0,9,,,,,,,,4,,,73,0
18360,note_on,1,0,6,,,,,,,,0,,,69,66
18360,note_on,1,0,5,,,,,,,,0,,,74,66
18360,note_on,1,0,17,,,,,,,,13,,,50,60
18360,note_on,1,0,15,,,,,,,,11,,,69,60
18360,note_on,1,0,13,,,,,,,,8,,,38,48
18360,note_on,1,0,10,,,,,,,,5,,,62,48
18360,note_on,1,0,14,,,,,,,,10,,,74,60
18360,note_on,1,0,9,,,,,,,,4,,,74,48
18360,note_on,1,0,7,,,,,,,,1,,,62,48
18360,note_on,1,0,16,,,,,,,,12,,,62,60
18360,note_on,1,0,11,,,,,,,,6,,,69,48
18360,note_on,1,0,8,,,,,,,,1,,,50,48
18419,note_on,59,0,7,,,,,,,,1,,,62,0
18419,note_on,59,0,11,,,,,,,,6,,,69,0
18420,note_on,1,0,7,,,,,,,,1,,,53,66
18420,note_on,1,0,11,,,,,,,,6,,,53,66
18449,note_on,29,0,11,,,,,,,,6,,,53,0
18449,note_on,29,0,7,,,,,,,,1,,,53,0
18450,note_on,1,0,7,,,,,,,,1,,,55,66
18450,note_on,1,0,11,,,,,,,,6,,,55,66
18479,note_on,119,0,16,,,,,,,,12,,,62,0
18479,note_on,29,0,11,,,,,,,,6,,,55,0
18479,note_on,119,0,14,,,,,,,,10,,,74,0
18479,note_on,119,0,10,,,,,,,,5,,,62,0
18479,note_on,119,0,8,,,,,,,,1,,,50,0
18479,note_on,119,0,13,,,,,,,,8,,,38,0
18479,note_on,29,0,7,,,,,,,,1,,,55,0
18479,note_on,119,0,15,,,,,,,,11,,,69,0
18479,note_on,119,0,6,,,,,,,,0,,,69,0
18479,note_on,119,0,17,,,,,,,,13,,,50,0
18480,note_on,1,0,11,,,,,,,,6,,,57,66
18480,note_on,1,0,7,,,,,,,,1,,,57,66
18539,note_on,59,0,11,,,,,,,,6,,,57,0
18539,note_on,59,0,7,,,,,,,,1,,,57,0
18540,note_on,1,0,11,,,,,,,,6,,,59,66
18540,note_on,1,0,7,,,,,,,,1,,,59,66
18599,note_on,59,0,7,,,,,,,,1,,,59,0
18599,note_on,59,0,11,,,,,,,,6,,,59,0
18600,note_on,1,0,7,,,,,,,,1,,,61,66
18600,note_on,1,0,11,,,,,,,,6,,,61,66
18659,note_on,59,0,7,,,,,,,,1,,,61,0
18659,note_on,59,0,11,,,,,,,,6,,,61,0
18660,note_on,1,0,7,,,,,,,,1,,,62,66
18660,note_on,1,0,11,,,,,,,,6,,,62,66
18719,note_on,359,0,5,,,,,,,,0,,,74,0
18719,note_on,359,0,9,,,,,,,,4,,,74,0
18719,note_on,59,0,11,,,,,,,,6,,,62,0
18719,note_on,59,0,7,,,,,,,,1,,,62,0
18720,note_on,1,0,7,,,,,,,,1,,,60,66
18720,note_on,1,0,9,,,,,,,,4,,,75,48
18720,note_on,1,0,11,,,,,,,,6,,,60,66
18720,note_on,1,0,5,,,,,,,,0,,,75,66
18780,note_on,301,0,13,,,,,,,,8,,,45,66
18780,note_on,301,0,10,,,,,,,,5,,,72,66
18780,note_on,301,0,6,,,,,,,,0,,,72,66
18780,note_on,301,0,8,,,,,,,,1,,,57,66
18809,note_on,29,0,13,,,,,,,,8,,,45,0
18809,note_on,29,0,10,,,,,,,,5,,,72,0
18809,note_on,29,0,8,,,,,,,,1,,,57,0
18809,note_on,29,0,6,,,,,,,,0,,,72,0
18810,note_on,1,0,8,,,,,,,,1,,,55,66
18810,note_on,1,0,10,,,,,,,,5,,,70,66
18810,note_on,1,0,6,,,,,,,,0,,,70,66
18810,note_on,1,0,13,,,,,,,,8,,,43,66
18839,note_on,29,0,6,,,,,,,,0,,,70,0
18839,note_on,29,0,13,,,,,,,,8,,,43,0
18839,note_on,29,0,10,,,,,,,,5,,,70,0
18839,note_on,29,0,8,,,,,,,,1,,,55,0
18840,note_on,1,0,8,,,,,,,,1,,,53,66
18840,note_on,1,0,13,,,,,,,,8,,,41,66
18840,note_on,1,0,6,,,,,,,,0,,,69,66
18840,note_on,1,0,10,,,,,,,,5,,,69,66
18899,note_on,59,0,8,,,,,,,,1,,,53,0
18899,note_on,59,0,13,,,,,,,,8,,,41,0
18899,note_on,59,0,6,,,,,,,,0,,,69,0
18899,note_on,59,0,10,,,,,,,,5,,,69,0
18900,note_on,1,0,6,,,,,,,,0,,,67,66
18900,note_on,1,0,13,,,,,,,,8,,,39,66
18900,note_on,1,0,8,,,,,,,,1,,,51,66
18900,note_on,1,0,10,,,,,,,,5,,,67,66
18959,note_on,59,0,13,,,,,,,,8,,,39,0
18959,note_on,59,0,8,,,,,,,,1,,,51,0
18959,note_on,239,0,11,,,,,,,,6,,,60,0
18959,note_on,239,0,5,,,,,,,,0,,,75,0
18959,note_on,59,0,10,,,,,,,,5,,,67,0
18959,note_on,239,0,9,,,,,,,,4,,,75,0
18959,note_on,239,0,7,,,,,,,,1,,,60,0
18959,note_on,59,0,6,,,,,,,,0,,,67,0
18960,note_on,1,0,10,,,,,,,,5,,,65,66
18960,note_on,1,0,13,,,,,,,,8,,,38,66
18960,note_on,1,0,11,,,,,,,,6,,,53,66
18960,note_on,1,0,9,,,,,,,,4,,,69,48
18960,note_on,1,0,7,,,,,,,,1,,,53,66
18960,note_on,1,0,6,,,,,,,,0,,,65,66
18960,note_on,1,0,8,,,,,,,,1,,,50,66
18960,note_on,1,0,5,,,,,,,,0,,,69,66
19019,note_on,59,0,6,,,,,,,,0,,,65,0
19019,note_on,59,0,13,,,,,,,,8,,,38,0
19019,note_on,59,0,10,,,,,,,,5,,,65,0
19019,note_on,59,0,8,,,,,,,,1,,,50,0
19020,note_on,1,0,10,,,,,,,,5,,,63,66
19020,note_on,1,0,6,,,,,,,,0,,,63,66
19020,note_on,1,0,8,,,,,,,,1,,,48,66
19020,note_on,1,0,13,,,,,,,,8,,,36,66
19079,note_on,119,0,5,,,,,,,,0,,,69,0
19079,note_on,119,0,11,,,,,,,,6,,,53,0
19079,note_on,59,0,8,,,,,,,,1,,,48,0
19079,note_on,59,0,10,,,,,,,,5,,,63,0
19079,note_on,119,0,9,,,,,,,,4,,,69,0
19079,note_on,59,0,6,,,,,,,,0,,,63,0
19079,note_on,119,0,7,,,,,,,,1,,,53,0
19079,note_on,59,0,13,,,,,,,,8,,,36,0
19080,note_on,1,0,11,,,,,,,,6,,,53,66
19080,note_on,1,0,10,,,,,,,,5,,,62,66
19080,note_on,1,0,13,,,,,,,,8,,,34,66
19080,note_on,1,0,9,,,,,,,,4,,,70,48
19080,note_on,601,0,14,,,,,,,,10,,,70,60
19080,note_on,1,0,8,,,,,,,,1,,,46,66
19080,note_on,1,0,7,,,,,,,,1,,,53,66
19080,note_on,1,0,6,,,,,,,,0,,,62,66
19080,note_on,1,0,5,,,,,,,,0,,,70,66
19139,note_on,59,0,13,,,,,,,,8,,,34,0
19139,note_on,59,0,11,,,,,,,,6,,,53,0
19139,note_on,59,0,6,,,,,,,,0,,,62,0
19139,note_on,59,0,5,,,,,,,,0,,,70,0
19139,note_on,59,0,8,,,,,,,,1,,,46,0
19139,note_on,59,0,7,,,,,,,,1,,,53,0
19140,note_on,6181,0,12,,,,,,,,7,,,58,48
19140,note_on,1,0,11,,,,,,,,6,,,58,48
19169,note_on,29,0,11,,,,,,,,6,,,58,0
19169,note_on,29,0,12,,,,,,,,7,,,58,0
19170,note_on,1,0,11,,,,,,,,6,,,60,48
19170,note_on,1,0,12,,,,,,,,7,,,60,48
19199,note_on,29,0,11,,,,,,,,6,,,60,0
19199,note_on,29,0,12,,,,,,,,7,,,60,0
19199,note_on,119,0,10,,,,,,,,5,,,62,0
19200,note_on,1,0,11,,,,,,,,6,,,62,48
19200,note_on,1,0,12,,,,,,,,7,,,62,48
19259,note_on,59,0,12,,,,,,,,7,,,62,0
19259,note_on,59,0,11,,,,,,,,6,,,62,0
19260,note_on,1,0,11,,,,,,,,6,,,63,48
19260,note_on,1,0,12,,,,,,,,7,,,63,48
19319,note_on,239,0,14,,,,,,,,10,,,70,0
19319,note_on,59,0,11,,,,,,,,6,,,63,0
19319,note_on,59,0,12,,,,,,,,7,,,63,0
19320,note_on,1,0,12,,,,,,,,7,,,65,48
19320,note_on,1,0,11,,,,,,,,6,,,65,48
19320,note_on,1,0,14,,,,,,,,10,,,70,60
19379,note_on,59,0,12,,,,,,,,7,,,65,0
19379,note_on,59,0,11,,,,,,,,6,,,65,0
19380,note_on,1,0,11,,,,,,,,6,,,67,48
19380,note_on,1,0,12,,,,,,,,7,,,67,48
19439,note_on,59,0,11,,,,,,,,6,,,67,0
19439,note_on,59,0,12,,,,,,,,7,,,67,0
19439,note_on,119,0,14,,,,,,,,10,,,70,0
19440,note_on,1,0,11,,,,,,,,6,,,63,48
19440,note_on,1,0,12,,,,,,,,7,,,63,48
19440,note_on,1,0,14,,,,,,,,10,,,70,60
19440,note_on,961,0,16,,,,,,,,12,,,60,60
19440,note_on,241,0,10,,,,,,,,5,,,72,48
19499,note_on,59,0,12,,,,,,,,7,,,63,0
19499,note_on,59,0,11,,,,,,,,6,,,63,0
19500,note_on,1,0,12,,,,,,,,7,,,64,48
19500,note_on,1,0,11,,,,,,,,6,,,64,48
19559,note_on,59,0,12,,,,,,,,7,,,64,0
19559,note_on,119,0,14,,,,,,,,10,,,70,0
19559,note_on,479,0,9,,,,,,,,4,,,70,0
19559,note_on,59,0,11,,,,,,,,6,,,64,0
19560,note_on,1,0,11,,,,,,,,6,,,65,48
19560,note_on,1,0,9,,,,,,,,4,,,69,48
19560,note_on,1,0,12,,,,,,,,7,,,65,48
19560,note_on,1,0,14,,,,,,,,10,,,69,60
19619,note_on,59,0,12,,,,,,,,7,,,65,0
19619,note_on,179,0,16,,,,,,,,12,,,60,0
19619,note_on,59,0,11,,,,,,,,6,,,65,0
19620,note_on,1,0,12,,,,,,,,7,,,63,48
19620,note_on,1,0,16,,,,,,,,12,,,60,60
19620,note_on,1,0,11,,,,,,,,6,,,63,48
19679,note_on,59,0,11,,,,,,,,6,,,63,0
19679,note_on,119,0,9,,,,,,,,4,,,69,0
19679,note_on,59,0,16,,,,,,,,12,,,60,0
19679,note_on,119,0,14,,,,,,,,10,,,69,0
19679,note_on,59,0,12,,,,,,,,7,,,63,0
19680,note_on,1,0,9,,,,,,,,4,,,75,48
19680,note_on,1,0,16,,,,,,,,12,,,60,60
19680,note_on,1,0,14,,,,,,,,10,,,75,60
19680,note_on,1,0,11,,,,,,,,6,,,60,48
19680,note_on,1,0,12,,,,,,,,7,,,60,48
19739,note_on,59,0,11,,,,,,,,6,,,60,0
19739,note_on,59,0,12,,,,,,,,7,,,60,0
19740,note_on,1,0,11,,,,,,,,6,,,57,48
19740,note_on,1,0,12,,,,,,,,7,,,57,48
19799,note_on,59,0,12,,,,,,,,7,,,57,0
19799,note_on,59,0,11,,,,,,,,6,,,57,0
19799,note_on,119,0,9,,,,,,,,4,,,75,0
19799,note_on,119,0,14,,,,,,,,10,,,75,0
19800,note_on,1,0,12,,,,,,,,7,,,58,48
19800,note_on,1,0,14,,,,,,,,10,,,74,60
19800,note_on,1,0,9,,,,,,,,4,,,74,48
19800,note_on,1,0,11,,,,,,,,6,,,58,48
19859,note_on,59,0,11,,,,,,,,6,,,58,0
19859,note_on,59,0,12,,,,,,,,7,,,58,0
19860,note_on,1,0,11,,,,,,,,6,,,54,48
19860,note_on,1,0,12,,,,,,,,7,,,54,48
19919,note_on,59,0,12,,,,,,,,7,,,54,0
19919,note_on,59,0,11,,,,,,,,6,,,54,0
19919,note_on,479,0,10,,,,,,,,5,,,72,0
19919,note_on,239,0,16,,,,,,,,12,,,60,0
19920,note_on,1,0,16,,,,,,,,12,,,58,60
19920,note_on,1,0,12,,,,,,,,7,,,55,48
19920,note_on,1,0,10,,,,,,,,5,,,70,48
19920,note_on,1,0,11,,,,,,,,6,,,55,48
19979,note_on,59,0,12,,,,,,,,7,,,55,0
19979,note_on,59,0,11,,,,,,,,6,,,55,0
19980,note_on,1,0,11,,,,,,,,6,,,53,48
19980,note_on,1,0,12,,,,,,,,7,,,53,48
20039,note_on,59,0,11,,,,,,,,6,,,53,0
20039,note_on,119,0,16,,,,,,,,12,,,58,0
20039,note_on,119,0,10,,,,,,,,5,,,70,0
20039,note_on,59,0,12,,,,,,,,7,,,53,0
20039,note_on,239,0,14,,,,,,,,10,,,74,0
20040,note_on,1,0,11,,,,,,,,6,,,51,48
20040,note_on,1,0,16,,,,,,,,12,,,65,60
20040,note_on,1,0,10,,,,,,,,5,,,77,48
20040,note_on,1,0,12,,,,,,,,7,,,51,48
20040,note_on,1,0,14,,,,,,,,10,,,74,60
20099,note_on,59,0,12,,,,,,,,7,,,51,0
20099,note_on,59,0,11,,,,,,,,6,,,51,0
20099,note_on,59,0,16,,,,,,,,12,,,65,0
20100,note_on,1,0,11,,,,,,,,6,,,50,48
20100,note_on,1,0,12,,,,,,,,7,,,50,48
20100,note_on,1,0,16,,,,,,,,12,,,65,60
20159,note_on,59,0,16,,,,,,,,12,,,65,0
20159,note_on,59,0,11,,,,,,,,6,,,50,0
20159,note_on,119,0,10,,,,,,,,5,,,77,0
20159,note_on,59,0,12,,,,,,,,7,,,50,0
20159,note_on,119,0,14,,,,,,,,10,,,74,0
20160,note_on,1,0,12,,,,,,,,7,,,48,48
20160,note_on,1,0,16,,,,,,,,12,,,63,60
20160,note_on,1,0,10,,,,,,,,5,,,75,48
20160,note_on,1,0,11,,,,,,,,6,,,48,48
20160,note_on,1,0,14,,,,,,,,10,,,74,60
20219,note_on,59,0,12,,,,,,,,7,,,48,0
20219,note_on,59,0,11,,,,,,,,6,,,48,0
20220,note_on,1,0,12,,,,,,,,7,,,59,48
20220,note_on,1,0,11,,,,,,,,6,,,59,48
20279,note_on,119,0,14,,,,,,,,10,,,74,0
20279,note_on,479,0,9,,,,,,,,4,,,74,0
20279,note_on,59,0,11,,,,,,,,6,,,59,0
20279,note_on,59,0,12,,,,,,,,7,,,59,0
20280,note_on,1,0,11,,,,,,,,6,,,60,48
20280,note_on,1,0,9,,,,,,,,4,,,72,48
20280,note_on,1,0,12,,,,,,,,7,,,60,48
20280,note_on,1,0,14,,,,,,,,10,,,72,60
20339,note_on,59,0,11,,,,,,,,6,,,60,0
20339,note_on,59,0,12,,,,,,,,7,,,60,0
20339,note_on,179,0,16,,,,,,,,12,,,63,0
20340,note_on,1,0,16,,,,,,,,12,,,63,60
20340,note_on,1,0,12,,,,,,,,7,,,55,48
20340,note_on,1,0,11,,,,,,,,6,,,55,48
20399,note_on,59,0,12,,,,,,,,7,,,55,0
20399,note_on,59,0,16,,,,,,,,12,,,63,0
20399,note_on,59,0,11,,,,,,,,6,,,55,0
20399,note_on,119,0,9,,,,,,,,4,,,72,0
20399,note_on,119,0,14,,,,,,,,10,,,72,0
20400,note_on,1,0,14,,,,,,,,10,,,79,60
20400,note_on,1,0,12,,,,,,,,7,,,57,48
20400,note_on,1,0,9,,,,,,,,4,,,79,48
20400,note_on,1,0,11,,,,,,,,6,,,57,48
20400,note_on,1,0,16,,,,,,,,12,,,63,60
20459,note_on,59,0,11,,,,,,,,6,,,57,0
20459,note_on,59,0,12,,,,,,,,7,,,57,0
20460,note_on,1,0,11,,,,,,,,6,,,51,48
20460,note_on,1,0,12,,,,,,,,7,,,51,48
20519,note_on,59,0,11,,,,,,,,6,,,51,0
20519,note_on,119,0,14,,,,,,,,10,,,79,0
20519,note_on,59,0,12,,,,,,,,7,,,51,0
20519,note_on,119,0,9,,,,,,,,4,,,79,0
20520,note_on,1,0,11,,,,,,,,6,,,50,48
20520,note_on,1,0,14,,,,,,,,10,,,77,60
20520,note_on,1,0,9,,,,,,,,4,,,77,48
20520,note_on,1,0,12,,,,,,,,7,,,50,48
20579,note_on,59,0,11,,,,,,,,6,,,50,0
20579,note_on,59,0,12,,,,,,,,7,,,50,0
20579,note_on,179,0,16,,,,,,,,12,,,63,0
20580,note_on,1,0,12,,,,,,,,7,,,57,48
20580,note_on,1,0,16,,,,,,,,12,,,63,60
20580,note_on,1,0,11,,,,,,,,6,,,57,48
20639,note_on,59,0,12,,,,,,,,7,,,57,0
20639,note_on,479,0,10,,,,,,,,5,,,75,0
20639,note_on,59,0,11,,,,,,,,6,,,57,0
20639,note_on,59,0,16,,,,,,,,12,,,63,0
20640,note_on,1,0,12,,,,,,,,7,,,58,48
20640,note_on,1,0,11,,,,,,,,6,,,58,48
20640,note_on,1,0,10,,,,,,,,5,,,74,48
20640,note_on,1,0,16,,,,,,,,12,,,62,60
20699,note_on,59,0,11,,,,,,,,6,,,58,0
20699,note_on,179,0,14,,,,,,,,10,,,77,0
20699,note_on,59,0,12,,,,,,,,7,,,58,0
20700,note_on,1,0,14,,,,,,,,10,,,77,60
20700,note_on,1,0,11,,,,,,,,6,,,59,48
20700,note_on,1,0,12,,,,,,,,7,,,59,48
20759,note_on,59,0,14,,,,,,,,10,,,77,0
20759,note_on,59,0,11,,,,,,,,6,,,59,0
20759,note_on,239,0,9,,,,,,,,4,,,77,0
20759,note_on,59,0,12,,,,,,,,7,,,59,0
20760,note_on,1,0,14,,,,,,,,10,,,75,60
20760,note_on,1,0,9,,,,,,,,4,,,75,48
20760,note_on,1,0,11,,,,,,,,6,,,60,48
20760,note_on,1,0,12,,,,,,,,7,,,60,48
20819,note_on,59,0,14,,,,,,,,10,,,75,0
20819,note_on,59,0,11,,,,,,,,6,,,60,0
20819,note_on,179,0,16,,,,,,,,12,,,62,0
20819,note_on,59,0,12,,,,,,,,7,,,60,0
20820,note_on,1,0,14,,,,,,,,10,,,75,60
20820,note_on,1,0,16,,,,,,,,12,,,62,60
20820,note_on,1,0,12,,,,,,,,7,,,55,48
20820,note_on,1,0,11,,,,,,,,6,,,55,48
20879,note_on,59,0,12,,,,,,,,7,,,55,0
20879,note_on,239,0,10,,,,,,,,5,,,74,0
20879,note_on,59,0,16,,,,,,,,12,,,62,0
20879,note_on,59,0,11,,,,,,,,6,,,55,0
20879,note_on,59,0,14,,,,,,,,10,,,75,0
20880,note_on,1,0,11,,,,,,,,6,,,56,48
20880,note_on,1,0,14,,,,,,,,10,,,75,60
20880,note_on,1,0,10,,,,,,,,5,,,72,48
20880,note_on,1,0,16,,,,,,,,12,,,60,60
20880,note_on,1,0,12,,,,,,,,7,,,56,48
20939,note_on,59,0,14,,,,,,,,10,,,75,0
20939,note_on,59,0,12,,,,,,,,7,,,56,0
20939,note_on,59,0,16,,,,,,,,12,,,60,0
20939,note_on,59,0,11,,,,,,,,6,,,56,0
20939,note_on,179,0,9,,,,,,,,4,,,75,0
20940,note_on,1,0,9,,,,,,,,4,,,77,48
20940,note_on,1,0,14,,,,,,,,10,,,77,60
20940,note_on,1,0,12,,,,,,,,7,,,57,48
20940,note_on,1,0,11,,,,,,,,6,,,57,48
20940,note_on,1,0,16,,,,,,,,12,,,60,60
20999,note_on,59,0,16,,,,,,,,12,,,60,0
20999,note_on,59,0,9,,,,,,,,4,,,77,0
20999,note_on,59,0,14,,,,,,,,10,,,77,0
20999,note_on,59,0,12,,,,,,,,7,,,57,0
20999,note_on,59,0,11,,,,,,,,6,,,57,0
21000,note_on,1,0,9,,,,,,,,4,,,75,48
21000,note_on,1,0,11,,,,,,,,6,,,58,48
21000,note_on,1,0,12,,,,,,,,7,,,58,48
21000,note_on,1,0,14,,,,,,,,10,,,75,60
21000,note_on,1,0,16,,,,,,,,12,,,60,60
21059,note_on,59,0,11,,,,,,,,6,,,58,0
21059,note_on,59,0,12,,,,,,,,7,,,58,0
21060,note_on,1,0,11,,,,,,,,6,,,55,48
21060,note_on,1,0,12,,,,,,,,7,,,55,48
21119,note_on,59,0,12,,,,,,,,7,,,55,0
21119,note_on,59,0,11,,,,,,,,6,,,55,0
21120,note_on,1,0,11,,,,,,,,6,,,50,48
21120,note_on,1,0,12,,,,,,,,7,,,50,48
21149,note_on,149,0,16,,,,,,,,12,,,60,0
21149,note_on,149,0,9,,,,,,,,4,,,75,0
21149,note_on,149,0,14,,,,,,,,10,,,75,0
21149,note_on,269,0,10,,,,,,,,5,,,72,0
21150,note_on,1,0,14,,,,,,,,10,,,74,60
21150,note_on,1,0,16,,,,,,,,12,,,58,60
21150,note_on,1,0,9,,,,,,,,4,,,74,48
21150,note_on,1,0,10,,,,,,,,5,,,70,48
21179,note_on,29,0,14,,,,,,,,10,,,74,0
21179,note_on,29,0,9,,,,,,,,4,,,74,0
21179,note_on,59,0,11,,,,,,,,6,,,50,0
21179,note_on,29,0,16,,,,,,,,12,,,58,0
21179,note_on,59,0,12,,,,,,,,7,,,50,0
21179,note_on,29,0,10,,,,,,,,5,,,70,0
21180,note_on,1,0,12,,,,,,,,7,,,52,48
21180,note_on,1,0,14,,,,,,,,10,,,72,60
21180,note_on,1,0,9,,,,,,,,4,,,72,48
21180,note_on,1,0,11,,,,,,,,6,,,52,48
21180,note_on,1,0,16,,,,,,,,12,,,57,60
21180,note_on,1,0,10,,,,,,,,5,,,69,48
21209,note_on,29,0,16,,,,,,,,12,,,57,0
21209,note_on,29,0,9,,,,,,,,4,,,72,0
21209,note_on,29,0,10,,,,,,,,5,,,69,0
21209,note_on,29,0,14,,,,,,,,10,,,72,0
21210,note_on,1,0,9,,,,,,,,4,,,74,48
21210,note_on,1,0,10,,,,,,,,5,,,70,48
21210,note_on,1,0,14,,,,,,,,10,,,74,60
21210,note_on,1,0,16,,,,,,,,12,,,58,60
21239,note_on,29,0,16,,,,,,,,12,,,58,0
21239,note_on,29,0,14,,,,,,,,10,,,74,0
21239,note_on,59,0,12,,,,,,,,7,,,52,0
21239,note_on,59,0,11,,,,,,,,6,,,52,0
21239,note_on,29,0,9,,,,,,,,4,,,74,0
21239,note_on,29,0,10,,,,,,,,5,,,70,0
21240,note_on,1,0,12,,,,,,,,7,,,53,48
21240,note_on,1,0,11,,,,,,,,6,,,53,48
21240,note_on,1,0,16,,,,,,,,12,,,57,60
21240,note_on,1,0,14,,,,,,,,10,,,72,60
21240,note_on,1,0,9,,,,,,,,4,,,72,48
21240,note_on,1,0,10,,,,,,,,5,,,69,48
21299,note_on,59,0,11,,,,,,,,6,,,53,0
21299,note_on,59,0,12,,,,,,,,7,,,53,0
21300,note_on,2161,0,13,,,,,,,,8,,,41,48
21300,note_on,1,0,11,,,,,,,,6,,,53,48
21359,note_on,59,0,11,,,,,,,,6,,,53,0
21359,note_on,119,0,14,,,,,,,,10,,,72,0
21359,note_on,119,0,16,,,,,,,,12,,,57,0
21359,note_on,119,0,10,,,,,,,,5,,,69,0
21359,note_on,59,0,13,,,,,,,,8,,,41,0
21359,note_on,119,0,9,,,,,,,,4,,,72,0
21360,note_on,2221,0,8,,,,,,,,1,,,53,48
21360,note_on,1,0,13,,,,,,,,8,,,41,48
21360,note_on,1,0,11,,,,,,,,6,,,53,48
21360,note_on,2881,0,17,,,,,,,,13,,,53,60
21360,note_on,2221,0,7,,,,,,,,1,,,53,48
21419,note_on,59,0,13,,,,,,,,8,,,41,0
21419,note_on,59,0,11,,,,,,,,6,,,53,0
21420,note_on,1,0,13,,,,,,,,8,,,41,48
21420,note_on,1,0,11,,,,,,,,6,,,53,48
21479,note_on,119,0,8,,,,,,,,1,,,53,0
21479,note_on,119,0,7,,,,,,,,1,,,53,0
21479,note_on,119,0,17,,,,,,,,13,,,53,0
21479,note_on,59,0,11,,,,,,,,6,,,53,0
21479,note_on,59,0,13,,,,,,,,8,,,41,0
21480,note_on,1,0,17,,,,,,,,13,,,53,60
21480,note_on,1,0,11,,,,,,,,6,,,53,48
21480,note_on,1,0,7,,,,,,,,1,,,53,48
21480,note_on,1,0,13,,,,,,,,8,,,41,48
21480,note_on,1,0,8,,,,,,,,1,,,53,48
21539,note_on,59,0,11,,,,,,,,6,,,53,0
21539,note_on,59,0,13,,,,,,,,8,,,41,0
21540,note_on,1,0,11,,,,,,,,6,,,53,48
21540,note_on,1,0,13,,,,,,,,8,,,41,48
21599,note_on,59,0,13,,,,,,,,8,,,41,0
21599,note_on,59,0,11,,,,,,,,6,,,53,0
21599,note_on,119,0,17,,,,,,,,13,,,53,0
21599,note_on,119,0,8,,,,,,,,1,,,53,0
21599,note_on,119,0,7,,,,,,,,1,,,53,0
21600,note_on,1,0,8,,,,,,,,1,,,54,48
21600,note_on,1,0,11,,,,,,,,6,,,54,48
21600,note_on,1,0,13,,,,,,,,8,,,42,48
21600,note_on,1,0,17,,,,,,,,13,,,54,60
21600,note_on,1,0,7,,,,,,,,1,,,54,48
21659,note_on,59,0,11,,,,,,,,6,,,54,0
21659,note_on,59,0,13,,,,,,,,8,,,42,0
21660,note_on,1,0,11,,,,,,,,6,,,54,48
21660,note_on,1,0,13,,,,,,,,8,,,42,48
21719,note_on,59,0,13,,,,,,,,8,,,42,0
21719,note_on,59,0,11,,,,,,,,6,,,54,0
21720,note_on,361,0,10,,,,,,,,5,,,57,48
21720,note_on,361,0,9,,,,,,,,4,,,72,48
21720,note_on,2581,0,5,,,,,,,,0,,,72,48
21720,note_on,2581,0,6,,,,,,,,0,,,69,48
21720,note_on,361,0,14,,,,,,,,10,,,72,60
21720,note_on,361,0,16,,,,,,,,12,,,57,60
21720,note_on,1,0,13,,,,,,,,8,,,42,48
21720,note_on,1,0,11,,,,,,,,6,,,54,48
21779,note_on,59,0,13,,,,,,,,8,,,42,0
21779,note_on,59,0,11,,,,,,,,6,,,54,0
21780,note_on,1,0,13,,,,,,,,8,,,42,48
21780,note_on,1,0,11,,,,,,,,6,,,54,48
21839,note_on,59,0,11,,,,,,,,6,,,54,0
21839,note_on,239,0,7,,,,,,,,1,,,54,0
21839,note_on,119,0,16,,,,,,,,12,,,57,0
21839,note_on,119,0,10,,,,,,,,5,,,57,0
21839,note_on,119,0,5,,,,,,,,0,,,72,0
21839,note_on,239,0,17,,,,,,,,13,,,54,0
21839,note_on,119,0,6,,,,,,,,0,,,69,0
21839,note_on,119,0,14,,,,,,,,10,,,72,0
21839,note_on,239,0,8,,,,,,,,1,,,54,0
21839,note_on,119,0,9,,,,,,,,4,,,72,0
21839,note_on,59,0,13,,,,,,,,8,,,42,0
21840,note_on,1,0,5,,,,,,,,0,,,72,48
21840,note_on,1,0,8,,,,,,,,1,,,53,48
21840,note_on,1,0,16,,,,,,,,12,,,57,60
21840,note_on,1,0,7,,,,,,,,1,,,53,48
21840,note_on,1,0,14,,,,,,,,10,,,72,60
21840,note_on,1,0,11,,,,,,,,6,,,53,48
21840,note_on,1,0,13,,,,,,,,8,,,41,48
21840,note_on,1,0,10,,,,,,,,5,,,57,48
21840,note_on,1,0,17,,,,,,,,13,,,53,60
21840,note_on,1,0,9,,,,,,,,4,,,72,48
21840,note_on,1,0,6,,,,,,,,0,,,69,48
21899,note_on,59,0,13,,,,,,,,8,,,41,0
21899,note_on,59,0,11,,,,,,,,6,,,53,0
21900,note_on,1,0,13,,,,,,,,8,,,41,48
21900,note_on,1,0,11,,,,,,,,6,,,53,48
21959,note_on,119,0,6,,,,,,,,0,,,69,0
21959,note_on,119,0,5,,,,,,,,0,,,72,0
21959,note_on,119,0,16,,,,,,,,12,,,57,0
21959,note_on,119,0,7,,,,,,,,1,,,53,0
21959,note_on,119,0,9,,,,,,,,4,,,72,0
21959,note_on,119,0,14,,,,,,,,10,,,72,0
21959,note_on,119,0,10,,,,,,,,5,,,57,0
21959,note_on,119,0,8,,,,,,,,1,,,53,0
21959,note_on,59,0,13,,,,,,,,8,,,41,0
21959,note_on,119,0,17,,,,,,,,13,,,53,0
21959,note_on,59,0,11,,,,,,,,6,,,53,0
21960,note_on,1,0,10,,,,,,,,5,,,57,48
21960,note_on,1,0,14,,,,,,,,10,,,72,60
21960,note_on,1,0,6,,,,,,,,0,,,69,48
21960,note_on,1,0,11,,,,,,,,6,,,51,48
21960,note_on,1,0,7,,,,,,,,1,,,51,48
21960,note_on,1,0,5,,,,,,,,0,,,72,48
21960,note_on,1,0,16,,,,,,,,12,,,57,60
21960,note_on,1,0,8,,,,,,,,1,,,51,48
21960,note_on,1,0,13,,,,,,,,8,,,39,48
21960,note_on,1,0,9,,,,,,,,4,,,72,48
22019,note_on,59,0,13,,,,,,,,8,,,39,0
22019,note_on,59,0,11,,,,,,,,6,,,51,0
22020,note_on,1,0,13,,,,,,,,8,,,39,48
22020,note_on,1,0,11,,,,,,,,6,,,51,48
22079,note_on,59,0,13,,,,,,,,8,,,39,0
22079,note_on,59,0,11,,,,,,,,6,,,51,0
22080,note_on,121,0,17,,,,,,,,13,,,51,60
22080,note_on,1,0,13,,,,,,,,8,,,39,48
22080,note_on,1,0,11,,,,,,,,6,,,51,48
22139,note_on,59,0,11,,,,,,,,6,,,51,0
22139,note_on,179,0,5,,,,,,,,0,,,72,0
22139,note_on,179,0,16,,,,,,,,12,,,57,0
22139,note_on,179,0,14,,,,,,,,10,,,72,0
22139,note_on,179,0,10,,,,,,,,5,,,57,0
22139,note_on,179,0,6,,,,,,,,0,,,69,0
22139,note_on,59,0,13,,,,,,,,8,,,39,0
22139,note_on,179,0,9,,,,,,,,4,,,72,0
22140,note_on,1,0,5,,,,,,,,0,,,75,48
22140,note_on,1,0,16,,,,,,,,12,,,60,60
22140,note_on,1,0,10,,,,,,,,5,,,60,48
22140,note_on,1,0,14,,,,,,,,10,,,75,60
22140,note_on,1,0,13,,,,,,,,8,,,39,48
22140,note_on,1,0,11,,,,,,,,6,,,51,48
22140,note_on,1,0,9,,,,,,,,4,,,75,48
22140,note_on,1,0,6,,,,,,,,0,,,72,48
22169,note_on,29,0,14,,,,,,,,10,,,75,0
22169,note_on,29,0,16,,,,,,,,12,,,60,0
22169,note_on,29,0,9,,,,,,,,4,,,75,0
22169,note_on,29,0,10,,,,,,,,5,,,60,0
22169,note_on,29,0,5,,,,,,,,0,,,75,0
22169,note_on,29,0,6,,,,,,,,0,,,72,0
22170,note_on,1,0,9,,,,,,,,4,,,73,48
22170,note_on,1,0,5,,,,,,,,0,,,73,48
22170,note_on,1,0,16,,,,,,,,12,,,58,60
22170,note_on,1,0,6,,,,,,,,0,,,70,48
22170,note_on,1,0,10,,,,,,,,5,,,58,48
22170,note_on,1,0,14,,,,,,,,10,,,73,60
22199,note_on,59,0,11,,,,,,,,6,,,51,0
22199,note_on,29,0,5,,,,,,,,0,,,73,0
22199,note_on,29,0,14,,,,,,,,10,,,73,0
22199,note_on,239,0,8,,,,,,,,1,,,51,0
22199,note_on,29,0,6,,,,,,,,0,,,70,0
22199,note_on,119,0,17,,,,,,,,13,,,51,0
22199,note_on,239,0,7,,,,,,,,1,,,51,0
22199,note_on,59,0,13,,,,,,,,8,,,39,0
22199,note_on,29,0,9,,,,,,,,4,,,73,0
22199,note_on,29,0,16,,,,,,,,12,,,58,0
22199,note_on,29,0,10,,,,,,,,5,,,58,0
22200,note_on,1,0,9,,,,,,,,4,,,72,48
22200,note_on,1,0,5,,,,,,,,0,,,72,48
22200,note_on,1,0,17,,,,,,,,13,,,53,60
22200,note_on,1,0,14,,,,,,,,10,,,72,60
22200,note_on,1,0,6,,,,,,,,0,,,69,48
22200,note_on,1,0,10,,,,,,,,5,,,57,48
22200,note_on,1,0,7,,,,,,,,1,,,53,48
22200,note_on,1,0,16,,,,,,,,12,,,57,60
22200,note_on,1,0,11,,,,,,,,6,,,53,48
22200,note_on,1,0,8,,,,,,,,1,,,53,48
22200,note_on,1,0,13,,,,,,,,8,,,41,48
22259,note_on,59,0,11,,,,,,,,6,,,53,0
22259,note_on,59,0,13,,,,,,,,8,,,41,0
22260,note_on,1,0,11,,,,,,,,6,,,53,48
22260,note_on,1,0,13,,,,,,,,8,,,41,48
22319,note_on,119,0,16,,,,,,,,12,,,57,0
22319,note_on,59,0,13,,,,,,,,8,,,41,0
22319,note_on,119,0,9,,,,,,,,4,,,72,0
22319,note_on,119,0,8,,,,,,,,1,,,53,0
22319,note_on,119,0,5,,,,,,,,0,,,72,0
22319,note_on,119,0,6,,,,,,,,0,,,69,0
22319,note_on,119,0,14,,,,,,,,10,,,72,0
22319,note_on,119,0,10,,,,,,,,5,,,57,0
22319,note_on,119,0,7,,,,,,,,1,,,53,0
22319,note_on,119,0,17,,,,,,,,13,,,53,0
22319,note_on,59,0,11,,,,,,,,6,,,53,0
22320,note_on,1,0,11,,,,,,,,6,,,54,48
22320,note_on,1,0,8,,,,,,,,1,,,54,48
22320,note_on,1,0,17,,,,,,,,13,,,54,60
22320,note_on,1,0,13,,,,,,,,8,,,42,48
22320,note_on,1,0,16,,,,,,,,12,,,57,60
22320,note_on,1,0,7,,,,,,,,1,,,57,48
22379,note_on,59,0,11,,,,,,,,6,,,54,0
22379,note_on,59,0,13,,,,,,,,8,,,42,0
22380,note_on,1,0,11,,,,,,,,6,,,54,48
22380,note_on,1,0,13,,,,,,,,8,,,42,48
22439,note_on,119,0,7,,,,,,,,1,,,57,0
22439,note_on,59,0,11,,,,,,,,6,,,54,0
22439,note_on,59,0,13,,,,,,,,8,,,42,0
22439,note_on,119,0,16,,,,,,,,12,,,57,0
22440,note_on,121,0,5,,,,,,,,0,,,72,48
22440,note_on,121,0,6,,,,,,,,0,,,63,48
22440,note_on,1,0,13,,,,,,,,8,,,42,48
22440,note_on,121,0,14,,,,,,,,10,,,72,60
22440,note_on,121,0,10,,,,,,,,5,,,63,48
22440,note_on,1,0,11,,,,,,,,6,,,54,48
22440,note_on,1,0,16,,,,,,,,12,,,58,60
22440,note_on,121,0,9,,,,,,,,4,,,72,48
22440,note_on,1,0,7,,,,,,,,1,,,58,48
22440,note_on,3961,0,15,,,,,,,,11,,,63,60
22499,note_on,59,0,13,,,,,,,,8,,,42,0
22499,note_on,59,0,11,,,,,,,,6,,,54,0
22500,note_on,1,0,13,,,,,,,,8,,,42,48
22500,note_on,1,0,11,,,,,,,,6,,,54,48
22559,note_on,119,0,10,,,,,,,,5,,,63,0
22559,note_on,239,0,8,,,,,,,,1,,,54,0
22559,note_on,59,0,11,,,,,,,,6,,,54,0
22559,note_on,119,0,5,,,,,,,,0,,,72,0
22559,note_on,119,0,7,,,,,,,,1,,,58,0
22559,note_on,119,0,9,,,,,,,,4,,,72,0
22559,note_on,59,0,13,,,,,,,,8,,,42,0
22559,note_on,119,0,14,,,,,,,,10,,,72,0
22559,note_on,239,0,17,,,,,,,,13,,,54,0
22559,note_on,119,0,16,,,,,,,,12,,,58,0
22559,note_on,119,0,6,,,,,,,,0,,,63,0
22559,note_on,119,0,15,,,,,,,,11,,,63,0
22560,note_on,1,0,7,,,,,,,,1,,,58,48
22560,note_on,1,0,9,,,,,,,,4,,,72,48
22560,note_on,1,0,8,,,,,,,,1,,,53,48
22560,note_on,1,0,14,,,,,,,,10,,,72,60
22560,note_on,1,0,6,,,,,,,,0,,,65,48
22560,note_on,1,0,10,,,,,,,,5,,,65,48
22560,note_on,1,0,17,,,,,,,,13,,,53,60
22560,note_on,1,0,5,,,,,,,,0,,,72,48
22560,note_on,1,0,16,,,,,,,,12,,,58,60
22560,note_on,1,0,13,,,,,,,,8,,,41,48
22560,note_on,1,0,11,,,,,,,,6,,,58,48
22560,note_on,1,0,15,,,,,,,,11,,,65,60
22619,note_on,59,0,11,,,,,,,,6,,,58,0
22619,note_on,59,0,13,,,,,,,,8,,,41,0
22619,note_on,59,0,7,,,,,,,,1,,,58,0
22620,note_on,1,0,13,,,,,,,,8,,,41,48
22620,note_on,1,0,11,,,,,,,,6,,,58,48
22679,note_on,59,0,13,,,,,,,,8,,,41,0
22679,note_on,119,0,14,,,,,,,,10,,,72,0
22679,note_on,119,0,10,,,,,,,,5,,,65,0
22679,note_on,119,0,9,,,,,,,,4,,,72,0
22679,note_on,59,0,11,,,,,,,,6,,,58,0
22679,note_on,119,0,6,,,,,,,,0,,,65,0
22679,note_on,119,0,8,,,,,,,,1,,,53,0
22679,note_on,119,0,17,,,,,,,,13,,,53,0
22679,note_on,119,0,5,,,,,,,,0,,,72,0
22679,note_on,119,0,16,,,,,,,,12,,,58,0
22679,note_on,119,0,15,,,,,,,,11,,,65,0
22680,note_on,1,0,6,,,,,,,,0,,,67,48
22680,note_on,1,0,15,,,,,,,,11,,,67,60
22680,note_on,1,0,16,,,,,,,,12,,,58,60
22680,note_on,1,0,14,,,,,,,,10,,,72,60
22680,note_on,61,0,7,,,,,,,,1,,,58,48
22680,note_on,1,0,8,,,,,,,,1,,,52,48
22680,note_on,1,0,9,,,,,,,,4,,,72,48
22680,note_on,1,0,13,,,,,,,,8,,,40,48
22680,note_on,1,0,10,,,,,,,,5,,,67,48
22680,note_on,1,0,5,,,,,,,,0,,,72,48
22680,note_on,1,0,11,,,,,,,,6,,,58,48
22739,note_on,59,0,11,,,,,,,,6,,,58,0
22739,note_on,59,0,13,,,,,,,,8,,,40,0
22739,note_on,59,0,10,,,,,,,,5,,,67,0
22740,note_on,1,0,11,,,,,,,,6,,,58,48
22740,note_on,1,0,10,,,,,,,,5,,,67,48
22740,note_on,1,0,13,,,,,,,,8,,,40,48
22799,note_on,59,0,10,,,,,,,,5,,,67,0
22799,note_on,59,0,13,,,,,,,,8,,,40,0
22799,note_on,59,0,11,,,,,,,,6,,,58,0
22800,note_on,1,0,10,,,,,,,,5,,,67,48
22800,note_on,1,0,13,,,,,,,,8,,,40,48
22800,note_on,1,0,11,,,,,,,,6,,,58,48
22800,note_on,121,0,17,,,,,,,,13,,,52,60
22859,note_on,179,0,9,,,,,,,,4,,,72,0
22859,note_on,179,0,14,,,,,,,,10,,,72,0
22859,note_on,59,0,11,,,,,,,,6,,,58,0
22859,note_on,179,0,5,,,,,,,,0,,,72,0
22859,note_on,59,0,13,,,,,,,,8,,,40,0
22859,note_on,59,0,10,,,,,,,,5,,,67,0
22860,note_on,1,0,14,,,,,,,,10,,,75,60
22860,note_on,1,0,11,,,,,,,,6,,,58,48
22860,note_on,1,0,5,,,,,,,,0,,,75,48
22860,note_on,1,0,13,,,,,,,,8,,,40,48
22860,note_on,1,0,10,,,,,,,,5,,,67,48
22860,note_on,1,0,9,,,,,,,,4,,,75,48
22889,note_on,29,0,14,,,,,,,,10,,,75,0
22889,note_on,29,0,9,,,,,,,,4,,,75,0
22889,note_on,29,0,5,,,,,,,,0,,,75,0
22890,note_on,1,0,5,,,,,,,,0,,,73,48
22890,note_on,1,0,14,,,,,,,,10,,,73,60
22890,note_on,1,0,9,,,,,,,,4,,,73,48
22919,note_on,239,0,7,,,,,,,,1,,,58,0
22919,note_on,59,0,10,,,,,,,,5,,,67,0
22919,note_on,239,0,15,,,,,,,,11,,,67,0
22919,note_on,239,0,16,,,,,,,,12,,,58,0
22919,note_on,239,0,8,,,,,,,,1,,,52,0
22919,note_on,59,0,13,,,,,,,,8,,,40,0
22919,note_on,29,0,9,,,,,,,,4,,,73,0
22919,note_on,239,0,6,,,,,,,,0,,,67,0
22919,note_on,119,0,17,,,,,,,,13,,,52,0
22919,note_on,29,0,14,,,,,,,,10,,,73,0
22919,note_on,29,0,5,,,,,,,,0,,,73,0
22919,note_on,59,0,11,,,,,,,,6,,,58,0
22920,note_on,1,0,10,,,,,,,,5,,,60,48
22920,note_on,1,0,8,,,,,,,,1,,,53,48
22920,note_on,1,0,5,,,,,,,,0,,,72,48
22920,note_on,1,0,7,,,,,,,,1,,,58,48
22920,note_on,1,0,16,,,,,,,,12,,,58,60
22920,note_on,1,0,13,,,,,,,,8,,,41,48
22920,note_on,1,0,6,,,,,,,,0,,,60,48
22920,note_on,1,0,14,,,,,,,,10,,,72,60
22920,note_on,1,0,15,,,,,,,,11,,,60,60
22920,note_on,1,0,11,,,,,,,,6,,,58,48
22920,note_on,1,0,17,,,,,,,,13,,,53,60
22920,note_on,1,0,9,,,,,,,,4,,,72,48
22979,note_on,59,0,10,,,,,,,,5,,,60,0
22979,note_on,59,0,13,,,,,,,,8,,,41,0
22979,note_on,59,0,11,,,,,,,,6,,,58,0
22980,note_on,1,0,10,,,,,,,,5,,,60,48
22980,note_on,1,0,13,,,,,,,,8,,,41,48
22980,note_on,1,0,11,,,,,,,,6,,,58,48
23039,note_on,119,0,7,,,,,,,,1,,,58,0
23039,note_on,119,0,15,,,,,,,,11,,,60,0
23039,note_on,59,0,10,,,,,,,,5,,,60,0
23039,note_on,119,0,16,,,,,,,,12,,,58,0
23039,note_on,119,0,17,,,,,,,,13,,,53,0
23039,note_on,59,0,11,,,,,,,,6,,,58,0
23039,note_on,119,0,6,,,,,,,,0,,,60,0
23039,note_on,119,0,8,,,,,,,,1,,,53,0
23039,note_on,119,0,5,,,,,,,,0,,,72,0
23039,note_on,59,0,13,,,,,,,,8,,,41,0
23039,note_on,119,0,9,,,,,,,,4,,,72,0
23039,note_on,119,0,14,,,,,,,,10,,,72,0
23040,note_on,1,0,15,,,,,,,,11,,,63,60
23040,note_on,1,0,10,,,,,,,,5,,,63,48
23040,note_on,1,0,13,,,,,,,,8,,,42,48
23040,note_on,1,0,17,,,,,,,,13,,,54,60
23040,note_on,1,0,16,,,,,,,,12,,,58,60
23040,note_on,1,0,6,,,,,,,,0,,,63,48
23040,note_on,1,0,8,,,,,,,,1,,,54,48
23040,note_on,1,0,7,,,,,,,,1,,,58,48
23040,note_on,1,0,11,,,,,,,,6,,,58,48
23099,note_on,59,0,13,,,,,,,,8,,,42,0
23099,note_on,59,0,10,,,,,,,,5,,,63,0
23099,note_on,59,0,11,,,,,,,,6,,,58,0
23100,note_on,1,0,11,,,,,,,,6,,,58,48
23100,note_on,1,0,10,,,,,,,,5,,,63,48
23100,note_on,1,0,13,,,,,,,,8,,,42,48
23159,note_on,59,0,11,,,,,,,,6,,,58,0
23159,note_on,119,0,15,,,,,,,,11,,,63,0
23159,note_on,119,0,16,,,,,,,,12,,,58,0
23159,note_on,59,0,13,,,,,,,,8,,,42,0
23159,note_on,119,0,17,,,,,,,,13,,,54,0
23159,note_on,119,0,7,,,,,,,,1,,,58,0
23159,note_on,119,0,6,,,,,,,,0,,,63,0
23159,note_on,119,0,8,,,,,,,,1,,,54,0
23159,note_on,59,0,10,,,,,,,,5,,,63,0
23160,note_on,1,0,15,,,,,,,,11,,,65,60
23160,note_on,1,0,8,,,,,,,,1,,,53,48
23160,note_on,1,0,6,,,,,,,,0,,,65,48
23160,note_on,1,0,7,,,,,,,,1,,,57,48
23160,note_on,1,0,17,,,,,,,,13,,,53,60
23160,note_on,121,0,5,,,,,,,,0,,,72,48
23160,note_on,1,0,11,,,,,,,,6,,,57,48
23160,note_on,1,0,16,,,,,,,,12,,,57,60
23160,note_on,1,0,10,,,,,,,,5,,,65,48
23160,note_on,121,0,14,,,,,,,,10,,,72,60
23160,note_on,1,0,13,,,,,,,,8,,,41,48
23160,note_on,121,0,9,,,,,,,,4,,,72,48
23219,note_on,59,0,10,,,,,,,,5,,,65,0
23219,note_on,59,0,13,,,,,,,,8,,,41,0
23219,note_on,59,0,11,,,,,,,,6,,,57,0
23220,note_on,1,0,11,,,,,,,,6,,,57,48
23220,note_on,1,0,10,,,,,,,,5,,,65,48
23220,note_on,1,0,13,,,,,,,,8,,,41,48
23279,note_on,119,0,9,,,,,,,,4,,,72,0
23279,note_on,59,0,13,,,,,,,,8,,,41,0
23279,note_on,59,0,10,,,,,,,,5,,,65,0
23279,note_on,59,0,11,,,,,,,,6,,,57,0
23279,note_on,119,0,6,,,,,,,,0,,,65,0
23279,note_on,119,0,7,,,,,,,,1,,,57,0
23279,note_on,119,0,15,,,,,,,,11,,,65,0
23279,note_on,119,0,17,,,,,,,,13,,,53,0
23279,note_on,119,0,5,,,,,,,,0,,,72,0
23279,note_on,119,0,16,,,,,,,,12,,,57,0
23279,note_on,119,0,8,,,,,,,,1,,,53,0
23279,note_on,119,0,14,,,,,,,,10,,,72,0
23280,note_on,1,0,11,,,,,,,,6,,,57,48
23280,note_on,1,0,8,,,,,,,,1,,,51,48
23280,note_on,1,0,7,,,,,,,,1,,,57,48
23280,note_on,1,0,10,,,,,,,,5,,,66,48
23280,note_on,1,0,14,,,,,,,,10,,,72,60
23280,note_on,1,0,16,,,,,,,,12,,,57,60
23280,note_on,1,0,15,,,,,,,,11,,,66,60
23280,note_on,1,0,17,,,,,,,,13,,,51,60
23280,note_on,1,0,13,,,,,,,,8,,,39,48
23280,note_on,1,0,6,,,,,,,,0,,,66,48
23280,note_on,1,0,9,,,,,,,,4,,,72,48
23280,note_on,1,0,5,,,,,,,,0,,,72,48
23339,note_on,59,0,13,,,,,,,,8,,,39,0
23339,note_on,59,0,10,,,,,,,,5,,,66,0
23339,note_on,59,0,11,,,,,,,,6,,,57,0
23340,note_on,1,0,11,,,,,,,,6,,,57,48
23340,note_on,1,0,13,,,,,,,,8,,,39,48
23340,note_on,1,0,10,,,,,,,,5,,,66,48
23399,note_on,119,0,16,,,,,,,,12,,,57,0
23399,note_on,59,0,11,,,,,,,,6,,,57,0
23399,note_on,119,0,8,,,,,,,,1,,,51,0
23399,note_on,119,0,5,,,,,,,,0,,,72,0
23399,note_on,119,0,14,,,,,,,,10,,,72,0
23399,note_on,59,0,10,,,,,,,,5,,,66,0
23399,note_on,59,0,13,,,,,,,,8,,,39,0
23399,note_on,119,0,17,,,,,,,,13,,,51,0
23399,note_on,119,0,6,,,,,,,,0,,,66,0
23399,note_on,119,0,9,,,,,,,,4,,,72,0
23399,note_on,119,0,15,,,,,,,,11,,,66,0
23399,note_on,119,0,7,,,,,,,,1,,,57,0
23400,note_on,1,0,14,,,,,,,,10,,,77,60
23400,note_on,1,0,17,,,,,,,,13,,,50,60
23400,note_on,1,0,6,,,,,,,,0,,,65,48
23400,note_on,1,0,5,,,,,,,,0,,,77,48
23400,note_on,1,0,9,,,,,,,,4,,,77,48
23400,note_on,1,0,15,,,,,,,,11,,,65,60
23400,note_on,1,0,16,,,,,,,,12,,,58,60
23400,note_on,1,0,11,,,,,,,,6,,,58,48
23400,note_on,1,0,8,,,,,,,,1,,,50,48
23400,note_on,1,0,10,,,,,,,,5,,,65,48
23400,note_on,1,0,13,,,,,,,,8,,,38,48
23400,note_on,1,0,7,,,,,,,,1,,,58,48
23459,note_on,59,0,9,,,,,,,,4,,,77,0
23459,note_on,59,0,11,,,,,,,,6,,,58,0
23459,note_on,59,0,13,,,,,,,,8,,,38,0
23459,note_on,59,0,10,,,,,,,,5,,,65,0
23460,note_on,1,0,11,,,,,,,,6,,,58,48
23460,note_on,1,0,13,,,,,,,,8,,,38,48
23460,note_on,1,0,10,,,,,,,,5,,,65,48
23460,note_on,1,0,9,,,,,,,,4,,,77,48
23519,note_on,119,0,17,,,,,,,,13,,,50,0
23519,note_on,119,0,16,,,,,,,,12,,,58,0
23519,note_on,119,0,15,,,,,,,,11,,,65,0
23519,note_on,59,0,11,,,,,,,,6,,,58,0
23519,note_on,119,0,8,,,,,,,,1,,,50,0
23519,note_on,59,0,9,,,,,,,,4,,,77,0
23519,note_on,59,0,10,,,,,,,,5,,,65,0
23519,note_on,59,0,13,,,,,,,,8,,,38,0
23519,note_on,119,0,7,,,,,,,,1,,,58,0
23519,note_on,119,0,6,,,,,,,,0,,,65,0
23519,note_on,119,0,5,,,,,,,,0,,,77,0
23519,note_on,119,0,14,,,,,,,,10,,,77,0
23520,note_on,1,0,7,,,,,,,,1,,,60,48
23520,note_on,1,0,17,,,,,,,,13,,,54,60
23520,note_on,1,0,10,,,,,,,,5,,,63,48
23520,note_on,1,0,8,,,,,,,,1,,,54,48
23520,note_on,1,0,11,,,,,,,,6,,,60,48
23520,note_on,1,0,16,,,,,,,,12,,,60,60
23520,note_on,1,0,6,,,,,,,,0,,,63,48
23520,note_on,1,0,13,,,,,,,,8,,,42,48
23520,note_on,1,0,5,,,,,,,,0,,,69,48
23520,note_on,1,0,15,,,,,,,,11,,,63,60
23520,note_on,1,0,14,,,,,,,,10,,,69,60
23520,note_on,1,0,9,,,,,,,,4,,,69,48
23579,note_on,59,0,11,,,,,,,,6,,,60,0
23579,note_on,59,0,13,,,,,,,,8,,,42,0
23579,note_on,59,0,10,,,,,,,,5,,,63,0
23579,note_on,59,0,9,,,,,,,,4,,,69,0
23580,note_on,1,0,11,,,,,,,,6,,,60,48
23580,note_on,1,0,13,,,,,,,,8,,,42,48
23580,note_on,1,0,9,,,,,,,,4,,,69,48
23580,note_on,1,0,10,,,,,,,,5,,,63,48
23639,note_on,119,0,6,,,,,,,,0,,,63,0
23639,note_on,59,0,9,,,,,,,,4,,,69,0
23639,note_on,119,0,5,,,,,,,,0,,,69,0
23639,note_on,119,0,8,,,,,,,,1,,,54,0
23639,note_on,59,0,11,,,,,,,,6,,,60,0
23639,note_on,119,0,7,,,,,,,,1,,,60,0
23639,note_on,119,0,16,,,,,,,,12,,,60,0
23639,note_on,59,0,10,,,,,,,,5,,,63,0
23639,note_on,119,0,14,,,,,,,,10,,,69,0
23639,note_on,59,0,13,,,,,,,,8,,,42,0
23639,note_on,119,0,15,,,,,,,,11,,,63,0
23639,note_on,119,0,17,,,,,,,,13,,,54,0
23640,note_on,1,0,17,,,,,,,,13,,,55,60
23640,note_on,1,0,15,,,,,,,,11,,,62,60
23640,note_on,1,0,10,,,,,,,,5,,,62,48
23640,note_on,1,0,11,,,,,,,,6,,,58,48
23640,note_on,1,0,8,,,,,,,,1,,,55,48
23640,note_on,1,0,9,,,,,,,,4,,,70,48
23640,note_on,1,0,6,,,,,,,,0,,,62,48
23640,note_on,1,0,5,,,,,,,,0,,,70,48
23640,note_on,1,0,7,,,,,,,,1,,,58,48
23640,note_on,1,0,16,,,,,,,,12,,,58,60
23640,note_on,1,0,14,,,,,,,,10,,,70,60
23640,note_on,1,0,13,,,,,,,,8,,,43,48
23699,note_on,59,0,10,,,,,,,,5,,,62,0
23699,note_on,59,0,11,,,,,,,,6,,,58,0
23699,note_on,59,0,9,,,,,,,,4,,,70,0
23699,note_on,59,0,13,,,,,,,,8,,,43,0
23700,note_on,1,0,13,,,,,,,,8,,,43,48
23700,note_on,1,0,11,,,,,,,,6,,,58,48
23700,note_on,1,0,9,,,,,,,,4,,,70,48
23700,note_on,1,0,10,,,,,,,,5,,,62,48
23759,note_on,59,0,10,,,,,,,,5,,,62,0
23759,note_on,59,0,11,,,,,,,,6,,,58,0
23759,note_on,59,0,9,,,,,,,,4,,,70,0
23759,note_on,119,0,16,,,,,,,,12,,,58,0
23759,note_on,59,0,13,,,,,,,,8,,,43,0
23759,note_on,119,0,15,,,,,,,,11,,,62,0
23759,note_on,119,0,17,,,,,,,,13,,,55,0
23759,note_on,119,0,7,,,,,,,,1,,,58,0
23759,note_on,119,0,6,,,,,,,,0,,,62,0
23759,note_on,119,0,8,,,,,,,,1,,,55,0
23760,note_on,1,0,15,,,,,,,,11,,,67,60
23760,note_on,1,0,13,,,,,,,,8,,,39,48
23760,note_on,1,0,11,,,,,,,,6,,,63,48
23760,note_on,1,0,10,,,,,,,,5,,,67,48
23760,note_on,1,0,16,,,,,,,,12,,,63,60
23760,note_on,1,0,6,,,,,,,,0,,,67,48
23760,note_on,1,0,7,,,,,,,,1,,,63,48
23760,note_on,1,0,9,,,,,,,,4,,,70,48
23760,note_on,1,0,8,,,,,,,,1,,,51,48
23760,note_on,1,0,17,,,,,,,,13,,,51,60
23819,note_on,59,0,10,,,,,,,,5,,,67,0
23819,note_on,59,0,9,,,,,,,,4,,,70,0
23819,note_on,59,0,11,,,,,,,,6,,,63,0
23819,note_on,179,0,5,,,,,,,,0,,,70,0
23819,note_on,59,0,13,,,,,,,,8,,,39,0
23819,note_on,179,0,14,,,,,,,,10,,,70,0
23820,note_on,1,0,11,,,,,,,,6,,,63,48
23820,note_on,1,0,9,,,,,,,,4,,,74,48
23820,note_on,1,0,10,,,,,,,,5,,,67,48
23820,note_on,1,0,5,,,,,,,,0,,,74,48
23820,note_on,1,0,13,,,,,,,,8,,,39,48
23820,note_on,1,0,14,,,,,,,,10,,,74,60
23849,note_on,29,0,14,,,,,,,,10,,,74,0
23849,note_on,29,0,5,,,,,,,,0,,,74,0
23849,note_on,29,0,9,,,,,,,,4,,,74,0
23850,note_on,1,0,14,,,,,,,,10,,,72,60
23850,note_on,1,0,5,,,,,,,,0,,,72,48
23850,note_on,1,0,9,,,,,,,,4,,,72,48
23879,note_on,119,0,7,,,,,,,,1,,,63,0
23879,note_on,59,0,10,,,,,,,,5,,,67,0
23879,note_on,119,0,6,,,,,,,,0,,,67,0
23879,note_on,119,0,15,,,,,,,,11,,,67,0
23879,note_on,59,0,13,,,,,,,,8,,,39,0
23879,note_on,59,0,11,,,,,,,,6,,,63,0
23879,note_on,29,0,9,,,,,,,,4,,,72,0
23879,note_on,119,0,16,,,,,,,,12,,,63,0
23879,note_on,119,0,8,,,,,,,,1,,,51,0
23879,note_on,29,0,5,,,,,,,,0,,,72,0
23879,note_on,29,0,14,,,,,,,,10,,,72,0
23879,note_on,119,0,17,,,,,,,,13,,,51,0
23880,note_on,1,0,17,,,,,,,,13,,,53,60
23880,note_on,1,0,7,,,,,,,,1,,,62,48
23880,note_on,1,0,16,,,,,,,,12,,,62,60
23880,note_on,1,0,8,,,,,,,,1,,,53,48
23880,note_on,1,0,13,,,,,,,,8,,,41,48
23880,note_on,1,0,5,,,,,,,,0,,,70,48
23880,note_on,1,0,6,,,,,,,,0,,,65,48
23880,note_on,1,0,10,,,,,,,,5,,,65,48
23880,note_on,1,0,15,,,,,,,,11,,,65,60
23880,note_on,1,0,14,,,,,,,,10,,,70,60
23880,note_on,1,0,11,,,,,,,,6,,,62,48
23880,note_on,1,0,9,,,,,,,,4,,,70,48
23909,note_on,29,0,9,,,,,,,,4,,,70,0
23939,note_on,59,0,13,,,,,,,,8,,,41,0
23939,note_on,59,0,11,,,,,,,,6,,,62,0
23939,note_on,59,0,10,,,,,,,,5,,,65,0
23940,note_on,31,0,9,,,,,,,,4,,,70,48
23940,note_on,1,0,11,,,,,,,,6,,,62,48
23940,note_on,1,0,13,,,,,,,,8,,,41,48
23940,note_on,1,0,10,,,,,,,,5,,,65,48
23969,note_on,29,0,9,,,,,,,,4,,,70,0
23999,note_on,59,0,13,,,,,,,,8,,,41,0
23999,note_on,119,0,8,,,,,,,,1,,,53,0
23999,note_on,119,0,15,,,,,,,,11,,,65,0
23999,note_on,119,0,7,,,,,,,,1,,,62,0
23999,note_on,119,0,6,,,,,,,,0,,,65,0
23999,note_on,119,0,14,,,,,,,,10,,,70,0
23999,note_on,59,0,10,,,,,,,,5,,,65,0
23999,note_on,59,0,11,,,,,,,,6,,,62,0
23999,note_on,119,0,5,,,,,,,,0,,,70,0
23999,note_on,119,0,16,,,,,,,,12,,,62,0
24000,note_on,1,0,5,,,,,,,,0,,,69,48
24000,note_on,1,0,14,,,,,,,,10,,,69,60
24000,note_on,1,0,11,,,,,,,,6,,,60,48
24000,note_on,31,0,9,,,,,,,,4,,,69,48
24000,note_on,1,0,16,,,,,,,,12,,,60,60
24000,note_on,1,0,7,,,,,,,,1,,,60,48
24000,note_on,1,0,6,,,,,,,,0,,,63,48
24000,note_on,1,0,13,,,,,,,,8,,,29,48
24000,note_on,1,0,10,,,,,,,,5,,,63,48
24000,note_on,1,0,15,,,,,,,,11,,,63,60
24000,note_on,1,0,8,,,,,,,,1,,,41,48
24029,note_on,29,0,9,,,,,,,,4,,,69,0
24059,note_on,59,0,10,,,,,,,,5,,,63,0
24059,note_on,59,0,11,,,,,,,,6,,,60,0
24059,note_on,59,0,13,,,,,,,,8,,,29,0
24060,note_on,1,0,11,,,,,,,,6,,,60,48
24060,note_on,31,0,9,,,,,,,,4,,,69,48
24060,note_on,1,0,10,,,,,,,,5,,,63,48
24060,note_on,1,0,13,,,,,,,,8,,,29,48
24089,note_on,29,0,9,,,,,,,,4,,,69,0
24119,note_on,119,0,8,,,,,,,,1,,,41,0
24119,note_on,119,0,15,,,,,,,,11,,,63,0
24119,note_on,119,0,7,,,,,,,,1,,,60,0
24119,note_on,239,0,17,,,,,,,,13,,,53,0
24119,note_on,59,0,11,,,,,,,,6,,,60,0
24119,note_on,119,0,14,,,,,,,,10,,,69,0
24119,note_on,119,0,16,,,,,,,,12,,,60,0
24119,note_on,119,0,5,,,,,,,,0,,,69,0
24119,note_on,59,0,13,,,,,,,,8,,,29,0
24119,note_on,59,0,10,,,,,,,,5,,,63,0
24119,note_on,119,0,6,,,,,,,,0,,,63,0
24120,note_on,1,0,15,,,,,,,,11,,,62,60
24120,note_on,1,0,7,,,,,,,,1,,,58,48
24120,note_on,1,0,16,,,,,,,,12,,,58,60
24120,note_on,1,0,10,,,,,,,,5,,,62,48
24120,note_on,1,0,13,,,,,,,,8,,,34,48
24120,note_on,1,0,8,,,,,,,,1,,,46,48
24120,note_on,1,0,5,,,,,,,,0,,,70,48
24120,note_on,1,0,6,,,,,,,,0,,,62,48
24120,note_on,1,0,14,,,,,,,,10,,,70,60
24120,note_on,31,0,9,,,,,,,,4,,,70,48
24120,note_on,1,0,11,,,,,,,,6,,,58,48
24120,note_on,1,0,17,,,,,,,,13,,,46,60
24179,note_on,59,0,9,,,,,,,,4,,,70,0
24180,note_on,1,0,9,,,,,,,,4,,,77,66
24209,note_on,29,0,9,,,,,,,,4,,,77,0
24210,note_on,1,0,9,,,,,,,,4,,,75,66
24239,note_on,119,0,10,,,,,,,,5,,,62,0
24239,note_on,119,0,11,,,,,,,,6,,,58,0
24239,note_on,119,0,14,,,,,,,,10,,,70,0
24239,note_on,119,0,15,,,,,,,,11,,,62,0
24239,note_on,119,0,16,,,,,,,,12,,,58,0
24239,note_on,119,0,7,,,,,,,,1,,,58,0
24239,note_on,119,0,5,,,,,,,,0,,,70,0
24239,note_on,119,0,13,,,,,,,,8,,,34,0
24239,note_on,119,0,8,,,,,,,,1,,,46,0
24239,note_on,119,0,6,,,,,,,,0,,,62,0
24239,note_on,29,0,9,,,,,,,,4,,,75,0
24239,note_on,119,0,17,,,,,,,,13,,,46,0
24240,note_on,1,0,9,,,,,,,,4,,,74,66
24299,note_on,59,0,9,,,,,,,,4,,,74,0
24300,note_on,1,0,9,,,,,,,,4,,,72,66
24300,note_on,61,0,10,,,,,,,,5,,,77,66
24329,note_on,29,0,10,,,,,,,,5,,,77,0
24330,note_on,1,0,10,,,,,,,,5,,,75,66
24359,note_on,29,0,10,,,,,,,,5,,,75,0
24359,note_on,59,0,9,,,,,,,,4,,,72,0
24360,note_on,1,0,10,,,,,,,,5,,,74,66
24360,note_on,1,0,9,,,,,,,,4,,,70,66
24419,note_on,59,0,10,,,,,,,,5,,,74,0
24419,note_on,59,0,9,,,,,,,,4,,,70,0
24420,note_on,1,0,10,,,,,,,,5,,,72,66
24420,note_on,1,0,9,,,,,,,,4,,,69,66
24479,note_on,59,0,9,,,,,,,,4,,,69,0
24479,note_on,59,0,10,,,,,,,,5,,,72,0
24480,note_on,1,0,9,,,,,,,,4,,,67,66
24480,note_on,1,0,10,,,,,,,,5,,,70,66
24539,note_on,59,0,10,,,,,,,,5,,,70,0
24540,note_on,1,0,10,,,,,,,,5,,,79,66
24540,note_on,3241,0,12,,,,,,,,7,,,63,66
24569,note_on,29,0,12,,,,,,,,7,,,63,0
24569,note_on,29,0,10,,,,,,,,5,,,79,0
24570,note_on,1,0,10,,,,,,,,5,,,77,66
24570,note_on,1,0,12,,,,,,,,7,,,62,66
24599,note_on,119,0,9,,,,,,,,4,,,67,0
24599,note_on,29,0,10,,,,,,,,5,,,77,0
24599,note_on,29,0,12,,,,,,,,7,,,62,0
24600,note_on,1,0,10,,,,,,,,5,,,75,66
24600,note_on,1,0,12,,,,,,,,7,,,60,66
24600,note_on,1,0,9,,,,,,,,4,,,79,66
24659,note_on,59,0,10,,,,,,,,5,,,75,0
24659,note_on,59,0,12,,,,,,,,7,,,60,0
24660,note_on,1,0,12,,,,,,,,7,,,58,66
24660,note_on,1,0,10,,,,,,,,5,,,74,66
24719,note_on,59,0,10,,,,,,,,5,,,74,0
24719,note_on,59,0,12,,,,,,,,7,,,58,0
24720,note_on,1,0,12,,,,,,,,7,,,57,66
24720,note_on,1,0,10,,,,,,,,5,,,72,66
24779,note_on,59,0,10,,,,,,,,5,,,72,0
24779,note_on,59,0,12,,,,,,,,7,,,57,0
24780,note_on,1,0,10,,,,,,,,5,,,70,66
24780,note_on,1,0,12,,,,,,,,7,,,55,66
24839,note_on,59,0,12,,,,,,,,7,,,55,0
24839,note_on,59,0,10,,,,,,,,5,,,70,0
24840,note_on,1,0,10,,,,,,,,5,,,69,66
24840,note_on,1,0,12,,,,,,,,7,,,53,66
24899,note_on,59,0,10,,,,,,,,5,,,69,0
24899,note_on,299,0,9,,,,,,,,4,,,79,0
24900,note_on,1,0,10,,,,,,,,5,,,57,66
24900,note_on,1,0,9,,,,,,,,4,,,77,66
24929,note_on,29,0,9,,,,,,,,4,,,77,0
24930,note_on,1,0,9,,,,,,,,4,,,75,66
24959,note_on,29,0,9,,,,,,,,4,,,75,0
24959,note_on,59,0,10,,,,,,,,5,,,57,0
24960,note_on,1,0,10,,,,,,,,5,,,57,66
24960,note_on,1,0,9,,,,,,,,4,,,74,66
24974,note_on,14,0,10,,,,,,,,5,,,57,0
24975,note_on,1,0,10,,,,,,,,5,,,58,66
24989,note_on,14,0,10,,,,,,,,5,,,58,0
24990,note_on,1,0,10,,,,,,,,5,,,57,66
25004,note_on,14,0,10,,,,,,,,5,,,57,0
25005,note_on,1,0,10,,,,,,,,5,,,58,66
25019,note_on,14,0,10,,,,,,,,5,,,58,0
25019,note_on,59,0,9,,,,,,,,4,,,74,0
25020,note_on,1,0,9,,,,,,,,4,,,72,66
25020,note_on,781,0,11,,,,,,,,6,,,65,66
25020,note_on,1,0,10,,,,,,,,5,,,57,66
25034,note_on,14,0,10,,,,,,,,5,,,57,0
25035,note_on,1,0,10,,,,,,,,5,,,58,66
25049,note_on,29,0,11,,,,,,,,6,,,65,0
25049,note_on,14,0,10,,,,,,,,5,,,58,0
25050,note_on,1,0,11,,,,,,,,6,,,63,66
25050,note_on,1,0,10,,,,,,,,5,,,55,66
25064,note_on,14,0,10,,,,,,,,5,,,55,0
25065,note_on,1,0,10,,,,,,,,5,,,57,66
25079,note_on,29,0,11,,,,,,,,6,,,63,0
25079,note_on,59,0,9,,,,,,,,4,,,72,0
25079,note_on,14,0,10,,,,,,,,5,,,57,0
25080,note_on,1,0,11,,,,,,,,6,,,62,66
25080,note_on,1,0,10,,,,,,,,5,,,58,66
25080,note_on,1,0,9,,,,,,,,4,,,70,66
25139,note_on,59,0,11,,,,,,,,6,,,62,0
25139,note_on,59,0,10,,,,,,,,5,,,58,0
25139,note_on,299,0,12,,,,,,,,7,,,53,0
25139,note_on,59,0,9,,,,,,,,4,,,70,0
25140,note_on,1,0,12,,,,,,,,7,,,54,66
25140,note_on,1,0,11,,,,,,,,6,,,60,66
25140,note_on,901,0,13,,,,,,,,8,,,42,66
25140,note_on,1,0,10,,,,,,,,5,,,63,66
25140,note_on,1,0,9,,,,,,,,4,,,69,66
25199,note_on,59,0,11,,,,,,,,6,,,60,0
25199,note_on,59,0,10,,,,,,,,5,,,63,0
25199,note_on,59,0,13,,,,,,,,8,,,42,0
25199,note_on,59,0,9,,,,,,,,4,,,69,0
25199,note_on,59,0,12,,,,,,,,7,,,54,0
25200,note_on,1,0,11,,,,,,,,6,,,58,66
25200,note_on,1,0,10,,,,,,,,5,,,62,66
25200,note_on,1,0,9,,,,,,,,4,,,70,66
25200,note_on,1,0,13,,,,,,,,8,,,43,66
25259,note_on,59,0,13,,,,,,,,8,,,43,0
25259,note_on,59,0,10,,,,,,,,5,,,62,0
25259,note_on,59,0,11,,,,,,,,6,,,58,0
25260,note_on,1,0,13,,,,,,,,8,,,38,66
25260,note_on,1,0,10,,,,,,,,5,,,70,66
25260,note_on,1,0,11,,,,,,,,6,,,65,66
25289,note_on,89,0,9,,,,,,,,4,,,70,0
25290,note_on,1,0,9,,,,,,,,4,,,72,66
25319,note_on,59,0,11,,,,,,,,6,,,65,0
25319,note_on,59,0,13,,,,,,,,8,,,38,0
25319,note_on,29,0,9,,,,,,,,4,,,72,0
25320,note_on,1,0,13,,,,,,,,8,,,39,66
25320,note_on,1,0,11,,,,,,,,6,,,67,66
25320,note_on,1,0,9,,,,,,,,4,,,72,66
25334,note_on,14,0,9,,,,,,,,4,,,72,0
25335,note_on,1,0,9,,,,,,,,4,,,74,66
25349,note_on,14,0,9,,,,,,,,4,,,74,0
25350,note_on,1,0,9,,,,,,,,4,,,72,66
25364,note_on,14,0,9,,,,,,,,4,,,72,0
25365,note_on,1,0,9,,,,,,,,4,,,74,66
25379,note_on,14,0,9,,,,,,,,4,,,74,0
25379,note_on,59,0,11,,,,,,,,6,,,67,0
25379,note_on,119,0,10,,,,,,,,5,,,70,0
25379,note_on,59,0,13,,,,,,,,8,,,39,0
25380,note_on,1,0,13,,,,,,,,8,,,36,66
25380,note_on,1,0,9,,,,,,,,4,,,72,66
25380,note_on,1,0,11,,,,,,,,6,,,63,66
25380,note_on,1,0,10,,,,,,,,5,,,69,66
25394,note_on,14,0,9,,,,,,,,4,,,72,0
25395,note_on,1,0,9,,,,,,,,4,,,74,66
25409,note_on,29,0,10,,,,,,,,5,,,69,0
25409,note_on,14,0,9,,,,,,,,4,,,74,0
25410,note_on,1,0,9,,,,,,,,4,,,72,66
25410,note_on,1,0,10,,,,,,,,5,,,67,66
25424,note_on,14,0,9,,,,,,,,4,,,72,0
25425,note_on,1,0,9,,,,,,,,4,,,74,66
25439,note_on,14,0,9,,,,,,,,4,,,74,0
25439,note_on,59,0,11,,,,,,,,6,,,63,0
25439,note_on,29,0,10,,,,,,,,5,,,67,0
25439,note_on,59,0,13,,,,,,,,8,,,36,0
25440,note_on,1,0,9,,,,,,,,4,,,72,66
25440,note_on,1,0,11,,,,,,,,6,,,60,66
25440,note_on,1,0,10,,,,,,,,5,,,69,66
25440,note_on,1,0,13,,,,,,,,8,,,41,66
25454,note_on,14,0,9,,,,,,,,4,,,72,0
25455,note_on,1,0,9,,,,,,,,4,,,74,66
25469,note_on,14,0,9,,,,,,,,4,,,74,0
25470,note_on,1,0,9,,,,,,,,4,,,72,66
25484,note_on,14,0,9,,,,,,,,4,,,72,0
25485,note_on,1,0,9,,,,,,,,4,,,74,66
25499,note_on,59,0,11,,,,,,,,6,,,60,0
25499,note_on,59,0,13,,,,,,,,8,,,41,0
25499,note_on,14,0,9,,,,,,,,4,,,74,0
25500,note_on,1,0,11,,,,,,,,6,,,65,66
25500,note_on,1,0,13,,,,,,,,8,,,29,66
25500,note_on,1,0,9,,,,,,,,4,,,70,66
25529,note_on,29,0,9,,,,,,,,4,,,70,0
25530,note_on,1,0,9,,,,,,,,4,,,72,66
25559,note_on,59,0,11,,,,,,,,6,,,65,0
25559,note_on,59,0,13,,,,,,,,8,,,29,0
25559,note_on,119,0,10,,,,,,,,5,,,69,0
25559,note_on,29,0,9,,,,,,,,4,,,72,0
25560,note_on,1,0,9,,,,,,,,4,,,70,66
25560,note_on,1,0,10,,,,,,,,5,,,70,66
25560,note_on,1,0,11,,,,,,,,6,,,62,66
25560,note_on,1,0,13,,,,,,,,8,,,34,66
25619,note_on,59,0,11,,,,,,,,6,,,62,0
25619,note_on,59,0,13,,,,,,,,8,,,34,0
25619,note_on,59,0,10,,,,,,,,5,,,70,0
25619,note_on,59,0,9,,,,,,,,4,,,70,0
25620,note_on,1,0,11,,,,,,,,6,,,65,48
25620,note_on,1,0,10,,,,,,,,5,,,70,48
25620,note_on,1,0,9,,,,,,,,4,,,74,36
25679,note_on,59,0,10,,,,,,,,5,,,70,0
25679,note_on,59,0,11,,,,,,,,6,,,65,0
25679,note_on,59,0,9,,,,,,,,4,,,74,0
25680,note_on,1441,0,15,,,,,,,,11,,,65,60
25680,note_on,1441,0,14,,,,,,,,10,,,74,60
25680,note_on,1441,0,6,,,,,,,,0,,,65,48
25680,note_on,1441,0,7,,,,,,,,1,,,58,48
25680,note_on,1441,0,8,,,,,,,,1,,,58,48
25680,note_on,61,0,13,,,,,,,,8,,,46,48
25680,note_on,1441,0,17,,,,,,,,13,,,58,60
25680,note_on,1441,0,5,,,,,,,,0,,,74,48
25680,note_on,1441,0,16,,,,,,,,12,,,62,60
25739,note_on,59,0,13,,,,,,,,8,,,46,0
25740,note_on,61,0,11,,,,,,,,6,,,65,48
25740,note_on,61,0,10,,,,,,,,5,,,70,48
25740,note_on,61,0,9,,,,,,,,4,,,74,48
25799,note_on,59,0,9,,,,,,,,4,,,74,0
25799,note_on,119,0,17,,,,,,,,13,,,58,0
25799,note_on,119,0,5,,,,,,,,0,,,74,0
25799,note_on,119,0,6,,,,,,,,0,,,65,0
25799,note_on,119,0,16,,,,,,,,12,,,62,0
25799,note_on,59,0,11,,,,,,,,6,,,65,0
25799,note_on,119,0,15,,,,,,,,11,,,65,0
25799,note_on,59,0,10,,,,,,,,5,,,70,0
25799,note_on,119,0,14,,,,,,,,10,,,74,0
25799,note_on,119,0,8,,,,,,,,1,,,58,0
25799,note_on,119,0,7,,,,,,,,1,,,58,0
25800,note_on,1,0,5,,,,,,,,0,,,74,48
25800,note_on,1,0,17,,,,,,,,13,,,58,60
25800,note_on,1,0,16,,,,,,,,12,,,62,60
25800,note_on,1,0,14,,,,,,,,10,,,74,60
25800,note_on,1,0,6,,,,,,,,0,,,65,48
25800,note_on,1,0,8,,,,,,,,1,,,58,48
25800,note_on,1,0,15,,,,,,,,11,,,65,60
25800,note_on,61,0,13,,,,,,,,8,,,46,48
25800,note_on,1,0,7,,,,,,,,1,,,58,48
25859,note_on,59,0,13,,,,,,,,8,,,46,0
25860,note_on,61,0,10,,,,,,,,5,,,70,48
25860,note_on,61,0,9,,,,,,,,4,,,74,48
25860,note_on,61,0,11,,,,,,,,6,,,65,48
25919,note_on,119,0,5,,,,,,,,0,,,74,0
25919,note_on,59,0,10,,,,,,,,5,,,70,0
25919,note_on,119,0,16,,,,,,,,12,,,62,0
25919,note_on,119,0,8,,,,,,,,1,,,58,0
25919,note_on,119,0,17,,,,,,,,13,,,58,0
25919,note_on,59,0,11,,,,,,,,6,,,65,0
25919,note_on,119,0,14,,,,,,,,10,,,74,0
25919,note_on,119,0,6,,,,,,,,0,,,65,0
25919,note_on,59,0,9,,,,,,,,4,,,74,0
25919,note_on,119,0,7,,,,,,,,1,,,58,0
25919,note_on,119,0,15,,,,,,,,11,,,65,0
25920,note_on,1,0,15,,,,,,,,11,,,66,60
25920,note_on,1,0,16,,,,,,,,12,,,60,60
25920,note_on,1,0,14,,,,,,,,10,,,75,60
25920,note_on,1,0,6,,,,,,,,0,,,66,48
25920,note_on,1,0,7,,,,,,,,1,,,60,48
25920,note_on,1,0,8,,,,,,,,1,,,58,48
25920,note_on,1,0,5,,,,,,,,0,,,75,48
25920,note_on,1,0,17,,,,,,,,13,,,58,60
25920,note_on,61,0,13,,,,,,,,8,,,46,48
25979,note_on,59,0,13,,,,,,,,8,,,46,0
25980,note_on,61,0,10,,,,,,,,5,,,72,48
25980,note_on,61,0,11,,,,,,,,6,,,66,48
25980,note_on,61,0,9,,,,,,,,4,,,75,48
26039,note_on,59,0,10,,,,,,,,5,,,72,0
26039,note_on,59,0,9,,,,,,,,4,,,75,0
26039,note_on,59,0,11,,,,,,,,6,,,66,0
26040,note_on,61,0,13,,,,,,,,8,,,46,48
26099,note_on,59,0,13,,,,,,,,8,,,46,0
26100,note_on,61,0,9,,,,,,,,4,,,75,48
26100,note_on,61,0,10,,,,,,,,5,,,72,48
26100,note_on,61,0,11,,,,,,,,6,,,66,48
26159,note_on,59,0,9,,,,,,,,4,,,75,0
26159,note_on,239,0,14,,,,,,,,10,,,75,0
26159,note_on,59,0,10,,,,,,,,5,,,72,0
26159,note_on,239,0,16,,,,,,,,12,,,60,0
26159,note_on,239,0,15,,,,,,,,11,,,66,0
26159,note_on,239,0,5,,,,,,,,0,,,75,0
26159,note_on,239,0,17,,,,,,,,13,,,58,0
26159,note_on,59,0,11,,,,,,,,6,,,66,0
26160,note_on,1,0,17,,,,,,,,13,,,58,60
26160,note_on,1,0,16,,,,,,,,12,,,60,60
26160,note_on,1,0,14,,,,,,,,10,,,75,60
26160,note_on,61,0,13,,,,,,,,8,,,46,48
26160,note_on,1,0,15,,,,,,,,11,,,66,60
26219,note_on,59,0,13,,,,,,,,8,,,46,0
26220,note_on,61,0,10,,,,,,,,5,,,72,48
26220,note_on,61,0,9,,,,,,,,4,,,75,48
26220,note_on,61,0,11,,,,,,,,6,,,66,48
26279,note_on,359,0,6,,,,,,,,0,,,66,0
26279,note_on,359,0,7,,,,,,,,1,,,60,0
26279,note_on,59,0,10,,,,,,,,5,,,72,0
26279,note_on,119,0,14,,,,,,,,10,,,75,0
26279,note_on,59,0,9,,,,,,,,4,,,75,0
26279,note_on,119,0,15,,,,,,,,11,,,66,0
26279,note_on,119,0,17,,,,,,,,13,,,58,0
26279,note_on,59,0,11,,,,,,,,6,,,66,0
26279,note_on,119,0,16,,,,,,,,12,,,60,0
26279,note_on,359,0,8,,,,,,,,1,,,58,0
26280,note_on,61,0,13,,,,,,,,8,,,33,48
26339,note_on,59,0,13,,,,,,,,8,,,33,0
26340,note_on,61,0,9,,,,,,,,4,,,63,48
26340,note_on,61,0,10,,,,,,,,5,,,60,48
26340,note_on,61,0,11,,,,,,,,6,,,54,48
26399,note_on,59,0,10,,,,,,,,5,,,60,0
26399,note_on,59,0,11,,,,,,,,6,,,54,0
26399,note_on,59,0,9,,,,,,,,4,,,63,0
26400,note_on,121,0,17,,,,,,,,13,,,45,60
26400,note_on,121,0,15,,,,,,,,11,,,60,60
26400,note_on,121,0,16,,,,,,,,12,,,54,60
26400,note_on,121,0,14,,,,,,,,10,,,63,60
26400,note_on,61,0,13,,,,,,,,8,,,33,48
26459,note_on,59,0,13,,,,,,,,8,,,33,0
26460,note_on,61,0,11,,,,,,,,6,,,54,48
26460,note_on,61,0,10,,,,,,,,5,,,60,48
26460,note_on,61,0,9,,,,,,,,4,,,63,48
26519,note_on,119,0,16,,,,,,,,12,,,54,0
26519,note_on,59,0,11,,,,,,,,6,,,54,0
26519,note_on,119,0,15,,,,,,,,11,,,60,0
26519,note_on,59,0,9,,,,,,,,4,,,63,0
26519,note_on,59,0,10,,,,,,,,5,,,60,0
26519,note_on,119,0,14,,,,,,,,10,,,63,0
26519,note_on,119,0,17,,,,,,,,13,,,45,0
26520,note_on,1,0,16,,,,,,,,12,,,53,60
26520,note_on,1,0,14,,,,,,,,10,,,63,60
26520,note_on,1,0,17,,,,,,,,13,,,45,60
26520,note_on,61,0,13,,,,,,,,8,,,33,48
26520,note_on,1,0,15,,,,,,,,11,,,60,60
26579,note_on,59,0,13,,,,,,,,8,,,33,0
26580,note_on,61,0,10,,,,,,,,5,,,60,48
26580,note_on,61,0,9,,,,,,,,4,,,63,48
26580,note_on,61,0,11,,,,,,,,6,,,53,48
26639,note_on,119,0,16,,,,,,,,12,,,53,0
26639,note_on,119,0,14,,,,,,,,10,,,63,0
26639,note_on,59,0,11,,,,,,,,6,,,53,0
26639,note_on,59,0,9,,,,,,,,4,,,63,0
26639,note_on,119,0,17,,,,,,,,13,,,45,0
26639,note_on,59,0,10,,,,,,,,5,,,60,0
26639,note_on,119,0,15,,,,,,,,11,,,60,0
26640,note_on,1,0,14,,,,,,,,10,,,63,60
26640,note_on,1,0,15,,,,,,,,11,,,60,60
26640,note_on,1,0,17,,,,,,,,13,,,46,60
26640,note_on,61,0,13,,,,,,,,8,,,34,48
26640,note_on,1,0,16,,,,,,,,12,,,53,60
26699,note_on,59,0,13,,,,,,,,8,,,34,0
26700,note_on,61,0,11,,,,,,,,6,,,53,48
26700,note_on,61,0,10,,,,,,,,5,,,60,48
26700,note_on,61,0,9,,,,,,,,4,,,63,48
26759,note_on,59,0,10,,,,,,,,5,,,60,0
26759,note_on,59,0,9,,,,,,,,4,,,63,0
26759,note_on,119,0,17,,,,,,,,13,,,46,0
26759,note_on,59,0,11,,,,,,,,6,,,53,0
26759,note_on,119,0,16,,,,,,,,12,,,53,0
26759,note_on,119,0,14,,,,,,,,10,,,63,0
26759,note_on,119,0,15,,,,,,,,11,,,60,0
26760,note_on,1,0,16,,,,,,,,12,,,53,60
26760,note_on,1,0,14,,,,,,,,10,,,62,60
26760,note_on,1,0,15,,,,,,,,11,,,58,60
26760,note_on,1,0,17,,,,,,,,13,,,46,60
26760,note_on,61,0,13,,,,,,,,8,,,34,48
26819,note_on,59,0,13,,,,,,,,8,,,34,0
26820,note_on,61,0,9,,,,,,,,4,,,62,48
26820,note_on,61,0,11,,,,,,,,6,,,53,48
26820,note_on,61,0,10,,,,,,,,5,,,58,48
26879,note_on,59,0,11,,,,,,,,6,,,53,0
26879,note_on,59,0,10,,,,,,,,5,,,58,0
26879,note_on,119,0,17,,,,,,,,13,,,46,0
26879,note_on,119,0,14,,,,,,,,10,,,62,0
26879,note_on,119,0,15,,,,,,,,11,,,58,0
26879,note_on,119,0,16,,,,,,,,12,,,53,0
26879,note_on,59,0,9,,,,,,,,4,,,62,0
26880,note_on,61,0,13,,,,,,,,8,,,31,72
26880,note_on,721,0,5,,,,,,,,0,,,74,75
26880,note_on,601,0,6,,,,,,,,0,,,71,75
26880,note_on,601,0,7,,,,,,,,1,,,65,75
26880,note_on,601,0,8,,,,,,,,1,,,55,75
26939,note_on,59,0,13,,,,,,,,8,,,31,0
26940,note_on,61,0,11,,,,,,,,6,,,53,72
26940,note_on,61,0,10,,,,,,,,5,,,59,72
26940,note_on,61,0,9,,,,,,,,4,,,62,72
26999,note_on,119,0,8,,,,,,,,1,,,55,0
26999,note_on,119,0,7,,,,,,,,1,,,65,0
26999,note_on,119,0,5,,,,,,,,0,,,74,0
26999,note_on,59,0,9,,,,,,,,4,,,62,0
26999,note_on,59,0,10,,,,,,,,5,,,59,0
26999,note_on,119,0,6,,,,,,,,0,,,71,0
26999,note_on,59,0,11,,,,,,,,6,,,53,0
27000,note_on,1,0,5,,,,,,,,0,,,75,72
27000,note_on,1,0,6,,,,,,,,0,,,72,72
27000,note_on,61,0,13,,,,,,,,8,,,36,72
27000,note_on,1,0,8,,,,,,,,1,,,60,72
27000,note_on,1,0,7,,,,,,,,1,,,63,72
27059,note_on,59,0,6,,,,,,,,0,,,72,0
27059,note_on,59,0,13,,,,,,,,8,,,36,0
27059,note_on,59,0,7,,,,,,,,1,,,63,0
27059,note_on,59,0,5,,,,,,,,0,,,75,0
27059,note_on,59,0,8,,,,,,,,1,,,60,0
27060,note_on,61,0,10,,,,,,,,5,,,60,72
27060,note_on,61,0,9,,,,,,,,4,,,63,72
27060,note_on,61,0,11,,,,,,,,6,,,51,72
27119,note_on,59,0,9,,,,,,,,4,,,63,0
27119,note_on,59,0,11,,,,,,,,6,,,51,0
27119,note_on,59,0,10,,,,,,,,5,,,60,0
27120,note_on,241,0,14,,,,,,,,10,,,75,60
27120,note_on,61,0,5,,,,,,,,0,,,75,48
27120,note_on,241,0,16,,,,,,,,12,,,63,60
27120,note_on,61,0,13,,,,,,,,8,,,48,48
27120,note_on,241,0,17,,,,,,,,13,,,60,60
27120,note_on,61,0,7,,,,,,,,1,,,63,48
27120,note_on,61,0,8,,,,,,,,1,,,60,48
27120,note_on,61,0,6,,,,,,,,0,,,67,48
27120,note_on,241,0,15,,,,,,,,11,,,67,60
27179,note_on,59,0,13,,,,,,,,8,,,48,0
27180,note_on,61,0,10,,,,,,,,5,,,72,48
27180,note_on,61,0,11,,,,,,,,6,,,67,48
27180,note_on,61,0,9,,,,,,,,4,,,75,48
27239,note_on,59,0,10,,,,,,,,5,,,72,0
27239,note_on,119,0,14,,,,,,,,10,,,75,0
27239,note_on,119,0,6,,,,,,,,0,,,67,0
27239,note_on,119,0,15,,,,,,,,11,,,67,0
27239,note_on,119,0,8,,,,,,,,1,,,60,0
27239,note_on,119,0,16,,,,,,,,12,,,63,0
27239,note_on,119,0,5,,,,,,,,0,,,75,0
27239,note_on,119,0,17,,,,,,,,13,,,60,0
27239,note_on,59,0,9,,,,,,,,4,,,75,0
27239,note_on,59,0,11,,,,,,,,6,,,67,0
27239,note_on,119,0,7,,,,,,,,1,,,63,0
27240,note_on,1,0,8,,,,,,,,1,,,60,48
27240,note_on,61,0,13,,,,,,,,8,,,48,48
27240,note_on,1,0,6,,,,,,,,0,,,67,48
27240,note_on,1,0,17,,,,,,,,13,,,60,60
27240,note_on,1,0,15,,,,,,,,11,,,67,60
27240,note_on,1,0,7,,,,,,,,1,,,63,48
27240,note_on,1,0,14,,,,,,,,10,,,75,60
27240,note_on,1,0,5,,,,,,,,0,,,75,48
27240,note_on,1,0,16,,,,,,,,12,,,63,60
27299,note_on,59,0,13,,,,,,,,8,,,48,0
27300,note_on,61,0,10,,,,,,,,5,,,72,48
27300,note_on,61,0,11,,,,,,,,6,,,67,48
27300,note_on,61,0,9,,,,,,,,4,,,75,48
27359,note_on,59,0,11,,,,,,,,6,,,67,0
27359,note_on,59,0,9,,,,,,,,4,,,75,0
27359,note_on,119,0,6,,,,,,,,0,,,67,0
27359,note_on,119,0,16,,,,,,,,12,,,63,0
27359,note_on,119,0,17,,,,,,,,13,,,60,0
27359,note_on,119,0,8,,,,,,,,1,,,60,0
27359,note_on,119,0,14,,,,,,,,10,,,75,0
27359,note_on,119,0,5,,,,,,,,0,,,75,0
27359,note_on,119,0,15,,,,,,,,11,,,67,0
27359,note_on,119,0,7,,,,,,,,1,,,63,0
27359,note_on,59,0,10,,,,,,,,5,,,72,0
27360,note_on,1,0,6,,,,,,,,0,,,68,48
27360,note_on,1,0,7,,,,,,,,1,,,62,48
27360,note_on,61,0,13,,,,,,,,8,,,48,48
27360,note_on,1,0,8,,,,,,,,1,,,60,48
27360,note_on,1,0,16,,,,,,,,12,,,62,60
27360,note_on,1,0,5,,,,,,,,0,,,77,48
27360,note_on,1,0,17,,,,,,,,13,,,60,60
27360,note_on,1,0,14,,,,,,,,10,,,77,60
27360,note_on,1,0,15,,,,,,,,11,,,68,60
27419,note_on,59,0,13,,,,,,,,8,,,48,0
27420,note_on,61,0,11,,,,,,,,6,,,68,48
27420,note_on,61,0,9,,,,,,,,4,,,77,48
27420,note_on,61,0,10,,,,,,,,5,,,74,48
27479,note_on,59,0,11,,,,,,,,6,,,68,0
27479,note_on,59,0,10,,,,,,,,5,,,74,0
27479,note_on,59,0,9,,,,,,,,4,,,77,0
27480,note_on,61,0,13,,,,,,,,8,,,48,48
27539,note_on,59,0,13,,,,,,,,8,,,48,0
27540,note_on,61,0,11,,,,,,,,6,,,68,48
27540,note_on,61,0,9,,,,,,,,4,,,77,48
27540,note_on,61,0,10,,,,,,,,5,,,74,48
27599,note_on,239,0,16,,,,,,,,12,,,62,0
27599,note_on,59,0,11,,,,,,,,6,,,68,0
27599,note_on,239,0,17,,,,,,,,13,,,60,0
27599,note_on,59,0,10,,,,,,,,5,,,74,0
27599,note_on,239,0,14,,,,,,,,10,,,77,0
27599,note_on,59,0,9,,,,,,,,4,,,77,0
27599,note_on,239,0,15,,,,,,,,11,,,68,0
27600,note_on,1,0,17,,,,,,,,13,,,60,60
27600,note_on,61,0,13,,,,,,,,8,,,48,48
27600,note_on,1,0,16,,,,,,,,12,,,62,60
27600,note_on,1,0,14,,,,,,,,10,,,77,60
27600,note_on,1,0,15,,,,,,,,11,,,68,60
27659,note_on,59,0,13,,,,,,,,8,,,48,0
27660,note_on,61,0,10,,,,,,,,5,,,74,48
27660,note_on,61,0,9,,,,,,,,4,,,77,48
27660,note_on,61,0,11,,,,,,,,6,,,68,48
27719,note_on,359,0,5,,,,,,,,0,,,77,0
27719,note_on,359,0,8,,,,,,,,1,,,60,0
27719,note_on,119,0,16,,,,,,,,12,,,62,0
27719,note_on,119,0,17,,,,,,,,13,,,60,0
27719,note_on,119,0,15,,,,,,,,11,,,68,0
27719,note_on,59,0,11,,,,,,,,6,,,68,0
27719,note_on,119,0,14,,,,,,,,10,,,77,0
27719,note_on,59,0,10,,,,,,,,5,,,74,0
27719,note_on,59,0,9,,,,,,,,4,,,77,0
27719,note_on,359,0,6,,,,,,,,0,,,68,0
27719,note_on,359,0,7,,,,,,,,1,,,62,0
27720,note_on,61,0,13,,,,,,,,8,,,35,48
27779,note_on,59,0,13,,,,,,,,8,,,35,0
27780,note_on,61,0,10,,,,,,,,5,,,62,48
27780,note_on,61,0,9,,,,,,,,4,,,65,48
27780,note_on,61,0,11,,,,,,,,6,,,56,48
27839,note_on,59,0,10,,,,,,,,5,,,62,0
27839,note_on,59,0,9,,,,,,,,4,,,65,0
27839,note_on,59,0,11,,,,,,,,6,,,56,0
27840,note_on,61,0,13,,,,,,,,8,,,35,48
27840,note_on,121,0,15,,,,,,,,11,,,62,60
27840,note_on,121,0,17,,,,,,,,13,,,47,60
27840,note_on,121,0,16,,,,,,,,12,,,56,60
27840,note_on,121,0,14,,,,,,,,10,,,65,60
27899,note_on,59,0,13,,,,,,,,8,,,35,0
27900,note_on,61,0,9,,,,,,,,4,,,65,48
27900,note_on,61,0,11,,,,,,,,6,,,56,48
27900,note_on,61,0,10,,,,,,,,5,,,62,48
27959,note_on,59,0,11,,,,,,,,6,,,56,0
27959,note_on,119,0,16,,,,,,,,12,,,56,0
27959,note_on,119,0,15,,,,,,,,11,,,62,0
27959,note_on,59,0,9,,,,,,,,4,,,65,0
27959,note_on,59,0,10,,,,,,,,5,,,62,0
27959,note_on,119,0,17,,,,,,,,13,,,47,0
27959,note_on,119,0,14,,,,,,,,10,,,65,0
27960,note_on,1,0,16,,,,,,,,12,,,53,60
27960,note_on,1,0,14,,,,,,,,10,,,65,60
27960,note_on,61,0,13,,,,,,,,8,,,35,48
27960,note_on,1,0,15,,,,,,,,11,,,62,60
27960,note_on,1,0,17,,,,,,,,13,,,47,60
28019,note_on,59,0,13,,,,,,,,8,,,35,0
28020,note_on,61,0,9,,,,,,,,4,,,65,48
28020,note_on,61,0,11,,,,,,,,6,,,55,48
28020,note_on,61,0,10,,,,,,,,5,,,62,48
28079,note_on,59,0,9,,,,,,,,4,,,65,0
28079,note_on,119,0,14,,,,,,,,10,,,65,0
28079,note_on,119,0,17,,,,,,,,13,,,47,0
28079,note_on,119,0,15,,,,,,,,11,,,62,0
28079,note_on,119,0,16,,,,,,,,12,,,53,0
28079,note_on,59,0,11,,,,,,,,6,,,55,0
28079,note_on,59,0,10,,,,,,,,5,,,62,0
28080,note_on,1,0,17,,,,,,,,13,,,48,60
28080,note_on,1,0,14,,,,,,,,10,,,65,60
28080,note_on,61,0,13,,,,,,,,8,,,36,48
28080,note_on,1,0,15,,,,,,,,11,,,62,60
28080,note_on,1,0,16,,,,,,,,12,,,53,60
28139,note_on,59,0,13,,,,,,,,8,,,36,0
28140,note_on,61,0,11,,,,,,,,6,,,55,48
28140,note_on,61,0,10,,,,,,,,5,,,62,48
28140,note_on,61,0,9,,,,,,,,4,,,65,48
28199,note_on,59,0,10,,,,,,,,5,,,62,0
28199,note_on,119,0,16,,,,,,,,12,,,53,0
28199,note_on,59,0,11,,,,,,,,6,,,55,0
28199,note_on,119,0,15,,,,,,,,11,,,62,0
28199,note_on,59,0,9,,,,,,,,4,,,65,0
28199,note_on,119,0,17,,,,,,,,13,,,48,0
28199,note_on,119,0,14,,,,,,,,10,,,65,0
28200,note_on,61,0,13,,,,,,,,8,,,36,48
28200,note_on,1,0,16,,,,,,,,12,,,53,60
28200,note_on,1,0,14,,,,,,,,10,,,63,60
28200,note_on,1,0,15,,,,,,,,11,,,60,60
28200,note_on,1,0,17,,,,,,,,13,,,48,60
28259,note_on,59,0,13,,,,,,,,8,,,36,0
28260,note_on,61,0,11,,,,,,,,6,,,55,48
28260,note_on,61,0,9,,,,,,,,4,,,63,48
28260,note_on,61,0,10,,,,,,,,5,,,60,48
28319,note_on,119,0,15,,,,,,,,11,,,60,0
28319,note_on,59,0,9,,,,,,,,4,,,63,0
28319,note_on,119,0,14,,,,,,,,10,,,63,0
28319,note_on,119,0,17,,,,,,,,13,,,48,0
28319,note_on,59,0,11,,,,,,,,6,,,55,0
28319,note_on,119,0,16,,,,,,,,12,,,53,0
28319,note_on,59,0,10,,,,,,,,5,,,60,0
28320,note_on,601,0,7,,,,,,,,1,,,67,75
28320,note_on,61,0,13,,,,,,,,8,,,33,72
28320,note_on,601,0,8,,,,,,,,1,,,57,75
28320,note_on,601,0,5,,,,,,,,0,,,76,75
28320,note_on,601,0,6,,,,,,,,0,,,73,75
28379,note_on,59,0,13,,,,,,,,8,,,33,0
28380,note_on,61,0,11,,,,,,,,6,,,55,72
28380,note_on,61,0,10,,,,,,,,5,,,61,72
28380,note_on,61,0,9,,,,,,,,4,,,64,72
28439,note_on,119,0,6,,,,,,,,0,,,73,0
28439,note_on,119,0,8,,,,,,,,1,,,57,0
28439,note_on,59,0,11,,,,,,,,6,,,55,0
28439,note_on,59,0,10,,,,,,,,5,,,61,0
28439,note_on,119,0,5,,,,,,,,0,,,76,0
28439,note_on,59,0,9,,,,,,,,4,,,64,0
28439,note_on,119,0,7,,,,,,,,1,,,67,0
28440,note_on,1,0,8,,,,,,,,1,,,62,72
28440,note_on,1,0,5,,,,,,,,0,,,77,72
28440,note_on,1,0,6,,,,,,,,0,,,74,72
28440,note_on,1,0,7,,,,,,,,1,,,65,72
28440,note_on,61,0,13,,,,,,,,8,,,38,72
28499,note_on,59,0,8,,,,,,,,1,,,62,0
28499,note_on,59,0,5,,,,,,,,0,,,77,0
28499,note_on,59,0,6,,,,,,,,0,,,74,0
28499,note_on,59,0,7,,,,,,,,1,,,65,0
28499,note_on,59,0,13,,,,,,,,8,,,38,0
28500,note_on,61,0,10,,,,,,,,5,,,62,72
28500,note_on,61,0,11,,,,,,,,6,,,53,72
28500,note_on,61,0,9,,,,,,,,4,,,65,72
28559,note_on,59,0,11,,,,,,,,6,,,53,0
28559,note_on,59,0,10,,,,,,,,5,,,62,0
28559,note_on,59,0,9,,,,,,,,4,,,65,0
28560,note_on,61,0,5,,,,,,,,0,,,77,48
28560,note_on,241,0,15,,,,,,,,11,,,69,60
28560,note_on,61,0,13,,,,,,,,8,,,50,48
28560,note_on,61,0,6,,,,,,,,0,,,69,48
28560,note_on,241,0,14,,,,,,,,10,,,77,60
28560,note_on,61,0,8,,,,,,,,1,,,62,48
28560,note_on,241,0,17,,,,,,,,13,,,62,60
28560,note_on,61,0,7,,,,,,,,1,,,65,48
28560,note_on,241,0,16,,,,,,,,12,,,65,60
28619,note_on,59,0,13,,,,,,,,8,,,50,0
28620,note_on,61,0,11,,,,,,,,6,,,69,48
28620,note_on,61,0,10,,,,,,,,5,,,74,48
28620,note_on,61,0,9,,,,,,,,4,,,77,48
28679,note_on,119,0,5,,,,,,,,0,,,77,0
28679,note_on,59,0,11,,,,,,,,6,,,69,0
28679,note_on,59,0,10,,,,,,,,5,,,74,0
28679,note_on,119,0,16,,,,,,,,12,,,65,0
28679,note_on,119,0,17,,,,,,,,13,,,62,0
28679,note_on,119,0,15,,,,,,,,11,,,69,0
28679,note_on,119,0,6,,,,,,,,0,,,69,0
28679,note_on,59,0,9,,,,,,,,4,,,77,0
28679,note_on,119,0,7,,,,,,,,1,,,65,0
28679,note_on,119,0,8,,,,,,,,1,,,62,0
28679,note_on,119,0,14,,,,,,,,10,,,77,0
28680,note_on,1,0,5,,,,,,,,0,,,77,48
28680,note_on,1,0,8,,,,,,,,1,,,62,48
28680,note_on,1,0,17,,,,,,,,13,,,62,60
28680,note_on,1,0,6,,,,,,,,0,,,69,48
28680,note_on,1,0,16,,,,,,,,12,,,65,60
28680,note_on,1,0,7,,,,,,,,1,,,65,48
28680,note_on,61,0,13,,,,,,,,8,,,50,48
28680,note_on,1,0,14,,,,,,,,10,,,77,60
28680,note_on,1,0,15,,,,,,,,11,,,69,60
28739,note_on,59,0,13,,,,,,,,8,,,50,0
28740,note_on,61,0,9,,,,,,,,4,,,77,48
28740,note_on,61,0,11,,,,,,,,6,,,69,48
28740,note_on,61,0,10,,,,,,,,5,,,74,48
28799,note_on,59,0,9,,,,,,,,4,,,77,0
28799,note_on,59,0,10,,,,,,,,5,,,74,0
28799,note_on,119,0,15,,,,,,,,11,,,69,0
28799,note_on,119,0,7,,,,,,,,1,,,65,0
28799,note_on,59,0,11,,,,,,,,6,,,69,0
28799,note_on,119,0,5,,,,,,,,0,,,77,0
28799,note_on,119,0,6,,,,,,,,0,,,69,0
28799,note_on,119,0,8,,,,,,,,1,,,62,0
28799,note_on,119,0,16,,,,,,,,12,,,65,0
28799,note_on,119,0,17,,,,,,,,13,,,62,0
28799,note_on,119,0,14,,,,,,,,10,,,77,0
28800,note_on,1,0,7,,,,,,,,1,,,64,48
28800,note_on,1,0,5,,,,,,,,0,,,79,48
28800,note_on,1,0,6,,,,,,,,0,,,70,48
28800,note_on,1,0,17,,,,,,,,13,,,62,60
28800,note_on,1,0,14,,,,,,,,10,,,79,60
28800,note_on,1,0,16,,,,,,,,12,,,64,60
28800,note_on,61,0,13,,,,,,,,8,,,50,48
28800,note_on,1,0,15,,,,,,,,11,,,70,60
28800,note_on,1,0,8,,,,,,,,1,,,62,48
28859,note_on,59,0,13,,,,,,,,8,,,50,0
28860,note_on,61,0,10,,,,,,,,5,,,76,48
28860,note_on,61,0,11,,,,,,,,6,,,70,48
28860,note_on,61,0,9,,,,,,,,4,,,79,48
28919,note_on,59,0,9,,,,,,,,4,,,79,0
28919,note_on,59,0,11,,,,,,,,6,,,70,0
28919,note_on,59,0,10,,,,,,,,5,,,76,0
28920,note_on,61,0,13,,,,,,,,8,,,50,48
28979,note_on,59,0,13,,,,,,,,8,,,50,0
28980,note_on,61,0,11,,,,,,,,6,,,70,48
28980,note_on,61,0,9,,,,,,,,4,,,79,48
28980,note_on,61,0,10,,,,,,,,5,,,76,48
29039,note_on,59,0,9,,,,,,,,4,,,79,0
29039,note_on,239,0,16,,,,,,,,12,,,64,0
29039,note_on,239,0,17,,,,,,,,13,,,62,0
29039,note_on,239,0,15,,,,,,,,11,,,70,0
29039,note_on,239,0,14,,,,,,,,10,,,79,0
29039,note_on,59,0,11,,,,,,,,6,,,70,0
29039,note_on,59,0,10,,,,,,,,5,,,76,0
29040,note_on,1,0,15,,,,,,,,11,,,70,60
29040,note_on,61,0,13,,,,,,,,8,,,50,48
29040,note_on,1,0,17,,,,,,,,13,,,62,60
29040,note_on,1,0,14,,,,,,,,10,,,79,60
29040,note_on,1,0,16,,,,,,,,12,,,64,60
29099,note_on,59,0,13,,,,,,,,8,,,50,0
29100,note_on,61,0,9,,,,,,,,4,,,79,48
29100,note_on,61,0,10,,,,,,,,5,,,76,48
29100,note_on,61,0,11,,,,,,,,6,,,70,48
29159,note_on,119,0,16,,,,,,,,12,,,64,0
29159,note_on,59,0,10,,,,,,,,5,,,76,0
29159,note_on,359,0,5,,,,,,,,0,,,79,0
29159,note_on,359,0,7,,,,,,,,1,,,64,0
29159,note_on,359,0,8,,,,,,,,1,,,62,0
29159,note_on,359,0,6,,,,,,,,0,,,70,0
29159,note_on,119,0,14,,,,,,,,10,,,79,0
29159,note_on,59,0,11,,,,,,,,6,,,70,0
29159,note_on,119,0,17,,,,,,,,13,,,62,0
29159,note_on,119,0,15,,,,,,,,11,,,70,0
29159,note_on,59,0,9,,,,,,,,4,,,79,0
29160,note_on,61,0,13,,,,,,,,8,,,37,48
29219,note_on,59,0,13,,,,,,,,8,,,37,0
29220,note_on,61,0,9,,,,,,,,4,,,67,48
29220,note_on,61,0,11,,,,,,,,6,,,58,48
29220,note_on,61,0,10,,,,,,,,5,,,64,48
29279,note_on,59,0,9,,,,,,,,4,,,67,0
29279,note_on,59,0,11,,,,,,,,6,,,58,0
29279,note_on,59,0,10,,,,,,,,5,,,64,0
29280,note_on,121,0,14,,,,,,,,10,,,67,60
29280,note_on,121,0,17,,,,,,,,13,,,49,60
29280,note_on,121,0,16,,,,,,,,12,,,58,60
29280,note_on,61,0,13,,,,,,,,8,,,37,48
29280,note_on,121,0,15,,,,,,,,11,,,64,60
29339,note_on,59,0,13,,,,,,,,8,,,37,0
29340,note_on,61,0,10,,,,,,,,5,,,64,48
29340,note_on,61,0,11,,,,,,,,6,,,58,48
29340,note_on,61,0,9,,,,,,,,4,,,67,48
29399,note_on,119,0,17,,,,,,,,13,,,49,0
29399,note_on,119,0,15,,,,,,,,11,,,64,0
29399,note_on,59,0,11,,,,,,,,6,,,58,0
29399,note_on,119,0,16,,,,,,,,12,,,58,0
29399,note_on,119,0,14,,,,,,,,10,,,67,0
29399,note_on,59,0,10,,,,,,,,5,,,64,0
29399,note_on,59,0,9,,,,,,,,4,,,67,0
29400,note_on,1,0,16,,,,,,,,12,,,57,60
29400,note_on,1,0,15,,,,,,,,11,,,64,60
29400,note_on,1,0,14,,,,,,,,10,,,67,60
29400,note_on,1,0,17,,,,,,,,13,,,49,60
29400,note_on,61,0,13,,,,,,,,8,,,37,48
29459,note_on,59,0,13,,,,,,,,8,,,37,0
29460,note_on,61,0,9,,,,,,,,4,,,67,48
29460,note_on,61,0,11,,,,,,,,6,,,57,48
29460,note_on,61,0,10,,,,,,,,5,,,64,48
29519,note_on,59,0,10,,,,,,,,5,,,64,0
29519,note_on,119,0,14,,,,,,,,10,,,67,0
29519,note_on,59,0,11,,,,,,,,6,,,57,0
29519,note_on,119,0,17,,,,,,,,13,,,49,0
29519,note_on,119,0,16,,,,,,,,12,,,57,0
29519,note_on,119,0,15,,,,,,,,11,,,64,0
29519,note_on,59,0,9,,,,,,,,4,,,67,0
29520,note_on,61,0,13,,,,,,,,8,,,38,48
29520,note_on,1,0,14,,,,,,,,10,,,67,60
29520,note_on,1,0,15,,,,,,,,11,,,64,60
29520,note_on,1,0,16,,,,,,,,12,,,57,60
29520,note_on,1,0,17,,,,,,,,13,,,50,60
29579,note_on,59,0,13,,,,,,,,8,,,38,0
29580,note_on,61,0,11,,,,,,,,6,,,57,48
29580,note_on,61,0,10,,,,,,,,5,,,64,48
29580,note_on,61,0,9,,,,,,,,4,,,67,48
29639,note_on,119,0,14,,,,,,,,10,,,67,0
29639,note_on,59,0,9,,,,,,,,4,,,67,0
29639,note_on,59,0,11,,,,,,,,6,,,57,0
29639,note_on,119,0,16,,,,,,,,12,,,57,0
29639,note_on,119,0,15,,,,,,,,11,,,64,0
29639,note_on,119,0,17,,,,,,,,13,,,50,0
29639,note_on,59,0,10,,,,,,,,5,,,64,0
29640,note_on,1,0,16,,,,,,,,12,,,57,60
29640,note_on,1,0,14,,,,,,,,10,,,65,60
29640,note_on,1,0,15,,,,,,,,11,,,62,60
29640,note_on,61,0,13,,,,,,,,8,,,38,48
29640,note_on,1,0,17,,,,,,,,13,,,50,60
29699,note_on,59,0,13,,,,,,,,8,,,38,0
29700,note_on,61,0,11,,,,,,,,6,,,57,48
29700,note_on,61,0,9,,,,,,,,4,,,65,48
29700,note_on,61,0,10,,,,,,,,5,,,62,48
29759,note_on,59,0,10,,,,,,,,5,,,62,0
29759,note_on,59,0,11,,,,,,,,6,,,57,0
29759,note_on,119,0,15,,,,,,,,11,,,62,0
29759,note_on,119,0,17,,,,,,,,13,,,50,0
29759,note_on,119,0,14,,,,,,,,10,,,65,0
29759,note_on,59,0,9,,,,,,,,4,,,65,0
29759,note_on,119,0,16,,,,,,,,12,,,57,0
29760,note_on,1,0,14,,,,,,,,10,,,77,60
29760,note_on,1,0,9,,,,,,,,4,,,77,48
29819,note_on,59,0,14,,,,,,,,10,,,77,0
29819,note_on,59,0,9,,,,,,,,4,,,77,0
29820,note_on,1,0,9,,,,,,,,4,,,76,48
29820,note_on,1,0,14,,,,,,,,10,,,76,60
29879,note_on,59,0,14,,,,,,,,10,,,76,0
29879,note_on,59,0,9,,,,,,,,4,,,76,0
29880,note_on,1,0,9,,,,,,,,4,,,74,48
29880,note_on,121,0,10,,,,,,,,5,,,69,48
29880,note_on,121,0,11,,,,,,,,6,,,62,48
29880,note_on,1,0,14,,,,,,,,10,,,74,60
29880,note_on,181,0,13,,,,,,,,8,,,41,48
30059,note_on,179,0,14,,,,,,,,10,,,74,0
30059,note_on,179,0,9,,,,,,,,4,,,74,0
30060,note_on,1,0,9,,,,,,,,4,,,72,48
30060,note_on,1,0,14,,,,,,,,10,,,72,60
30119,note_on,239,0,10,,,,,,,,5,,,69,0
30119,note_on,59,0,9,,,,,,,,4,,,72,0
30119,note_on,59,0,14,,,,,,,,10,,,72,0
30119,note_on,239,0,13,,,,,,,,8,,,41,0
30120,note_on,1,0,13,,,,,,,,8,,,38,48
30120,note_on,1,0,9,,,,,,,,4,,,70,48
30120,note_on,1,0,14,,,,,,,,10,,,70,60
30120,note_on,1,0,10,,,,,,,,5,,,65,48
30179,note_on,59,0,9,,,,,,,,4,,,70,0
30179,note_on,59,0,14,,,,,,,,10,,,70,0
30180,note_on,1,0,9,,,,,,,,4,,,69,48
30180,note_on,1,0,14,,,,,,,,10,,,69,60
30239,note_on,119,0,10,,,,,,,,5,,,65,0
30239,note_on,359,0,11,,,,,,,,6,,,62,0
30239,note_on,59,0,14,,,,,,,,10,,,69,0
30239,note_on,59,0,9,,,,,,,,4,,,69,0
30239,note_on,119,0,13,,,,,,,,8,,,38,0
30240,note_on,1,0,13,,,,,,,,8,,,40,48
30240,note_on,1,0,11,,,,,,,,6,,,62,48
30240,note_on,1,0,14,,,,,,,,10,,,68,60
30240,note_on,1,0,10,,,,,,,,5,,,65,48
30240,note_on,1,0,9,,,,,,,,4,,,68,48
30299,note_on,59,0,9,,,,,,,,4,,,68,0
30299,note_on,59,0,11,,,,,,,,6,,,62,0
30299,note_on,59,0,10,,,,,,,,5,,,65,0
30359,note_on,119,0,14,,,,,,,,10,,,68,0
30359,note_on,119,0,13,,,,,,,,8,,,40,0
30360,note_on,1,0,14,,,,,,,,10,,,69,60
30360,note_on,61,0,11,,,,,,,,6,,,60,48
30360,note_on,61,0,9,,,,,,,,4,,,69,48
30360,note_on,61,0,10,,,,,,,,5,,,64,48
30360,note_on,1,0,13,,,,,,,,8,,,33,48
30419,note_on,59,0,11,,,,,,,,6,,,60,0
30419,note_on,59,0,10,,,,,,,,5,,,64,0
30419,note_on,59,0,9,,,,,,,,4,,,69,0
30479,note_on,119,0,14,,,,,,,,10,,,69,0
30479,note_on,119,0,13,,,,,,,,8,,,33,0
30480,note_on,61,0,9,,,,,,,,4,,,76,48
30480,note_on,721,0,16,,,,,,,,12,,,64,60
30539,note_on,59,0,16,,,,,,,,12,,,64,0
30539,note_on,59,0,9,,,,,,,,4,,,76,0
30540,note_on,1,0,16,,,,,,,,12,,,62,60
30540,note_on,1,0,9,,,,,,,,4,,,74,48
30599,note_on,59,0,16,,,,,,,,12,,,62,0
30599,note_on,59,0,9,,,,,,,,4,,,74,0
30600,note_on,181,0,10,,,,,,,,5,,,67,48
30600,note_on,1,0,9,,,,,,,,4,,,72,48
30600,note_on,1,0,16,,,,,,,,12,,,60,60
30600,note_on,181,0,11,,,,,,,,6,,,60,48
30600,note_on,121,0,13,,,,,,,,8,,,39,48
30779,note_on,179,0,16,,,,,,,,12,,,60,0
30779,note_on,179,0,9,,,,,,,,4,,,72,0
30780,note_on,1,0,9,,,,,,,,4,,,70,48
30780,note_on,1,0,16,,,,,,,,12,,,58,60
30839,note_on,59,0,9,,,,,,,,4,,,70,0
30839,note_on,59,0,16,,,,,,,,12,,,58,0
30839,note_on,239,0,13,,,,,,,,8,,,39,0
30839,note_on,239,0,10,,,,,,,,5,,,67,0
30840,note_on,1,0,10,,,,,,,,5,,,63,48
30840,note_on,1,0,13,,,,,,,,8,,,36,48
30840,note_on,1,0,16,,,,,,,,12,,,57,60
30840,note_on,1,0,9,,,,,,,,4,,,69,48
30899,note_on,59,0,9,,,,,,,,4,,,69,0
30899,note_on,59,0,16,,,,,,,,12,,,57,0
30900,note_on,1,0,9,,,,,,,,4,,,67,48
30900,note_on,1,0,16,,,,,,,,12,,,55,60
30959,note_on,59,0,9,,,,,,,,4,,,67,0
30959,note_on,119,0,10,,,,,,,,5,,,63,0
30959,note_on,359,0,11,,,,,,,,6,,,60,0
30959,note_on,119,0,13,,,,,,,,8,,,36,0
30959,note_on,59,0,16,,,,,,,,12,,,55,0
30960,note_on,1,0,9,,,,,,,,4,,,66,48
30960,note_on,1,0,13,,,,,,,,8,,,38,48
30960,note_on,1,0,11,,,,,,,,6,,,60,48
30960,note_on,1,0,10,,,,,,,,5,,,63,48
30960,note_on,1,0,16,,,,,,,,12,,,54,60
31019,note_on,59,0,10,,,,,,,,5,,,63,0
31019,note_on,59,0,9,,,,,,,,4,,,66,0
31019,note_on,59,0,11,,,,,,,,6,,,60,0
31079,note_on,119,0,13,,,,,,,,8,,,38,0
31079,note_on,119,0,16,,,,,,,,12,,,54,0
31080,note_on,61,0,9,,,,,,,,4,,,67,48
31080,note_on,1,0,13,,,,,,,,8,,,31,48
31080,note_on,61,0,11,,,,,,,,6,,,58,48
31080,note_on,1,0,16,,,,,,,,12,,,55,60
31080,note_on,61,0,10,,,,,,,,5,,,62,48
31139,note_on,59,0,10,,,,,,,,5,,,62,0
31139,note_on,59,0,9,,,,,,,,4,,,67,0
31139,note_on,59,0,11,,,,,,,,6,,,58,0
31199,note_on,119,0,16,,,,,,,,12,,,55,0
31199,note_on,119,0,13,,,,,,,,8,,,31,0
31200,note_on,721,0,14,,,,,,,,10,,,74,60
31200,note_on,61,0,10,,,,,,,,5,,,70,48
31200,note_on,61,0,9,,,,,,,,4,,,74,48
31200,note_on,1441,0,15,,,,,,,,11,,,70,60
31259,note_on,59,0,15,,,,,,,,11,,,70,0
31259,note_on,59,0,9,,,,,,,,4,,,74,0
31259,note_on,59,0,14,,,,,,,,10,,,74,0
31259,note_on,59,0,10,,,,,,,,5,,,70,0
31260,note_on,1,0,15,,,,,,,,11,,,69,60
31260,note_on,1,0,14,,,,,,,,10,,,72,60
31260,note_on,1,0,10,,,,,,,,5,,,69,48
31260,note_on,1,0,9,,,,,,,,4,,,72,48
31319,note_on,59,0,14,,,,,,,,10,,,72,0
31319,note_on,59,0,10,,,,,,,,5,,,69,0
31319,note_on,59,0,9,,,,,,,,4,,,72,0
31319,note_on,59,0,15,,,,,,,,11,,,69,0
31320,note_on,1,0,10,,,,,,,,5,,,67,48
31320,note_on,1,0,9,,,,,,,,4,,,70,48
31320,note_on,1,0,15,,,,,,,,11,,,67,60
31320,note_on,1,0,14,,,,,,,,10,,,70,60
31499,note_on,179,0,10,,,,,,,,5,,,67,0
31499,note_on,179,0,14,,,,,,,,10,,,70,0
31499,note_on,179,0,9,,,,,,,,4,,,70,0
31499,note_on,179,0,15,,,,,,,,11,,,67,0
31500,note_on,1,0,14,,,,,,,,10,,,69,60
31500,note_on,1,0,15,,,,,,,,11,,,66,60
31500,note_on,1,0,10,,,,,,,,5,,,66,48
31500,note_on,1,0,9,,,,,,,,4,,,69,48
31559,note_on,59,0,10,,,,,,,,5,,,66,0
31559,note_on,59,0,9,,,,,,,,4,,,69,0
31559,note_on,59,0,15,,,,,,,,11,,,66,0
31559,note_on,59,0,14,,,,,,,,10,,,69,0
31560,note_on,1,0,14,,,,,,,,10,,,70,60
31560,note_on,1,0,9,,,,,,,,4,,,70,48
31560,note_on,421,0,11,,,,,,,,6,,,62,48
31560,note_on,1,0,10,,,,,,,,5,,,67,48
31560,note_on,361,0,16,,,,,,,,12,,,62,60
31560,note_on,1,0,15,,,,,,,,11,,,67,60
31619,note_on,59,0,15,,,,,,,,11,,,67,0
31619,note_on,59,0,14,,,,,,,,10,,,70,0
31619,note_on,59,0,9,,,,,,,,4,,,70,0
31619,note_on,59,0,10,,,,,,,,5,,,67,0
31619,note_on,59,0,16,,,,,,,,12,,,62,0
31619,note_on,59,0,11,,,,,,,,6,,,62,0
31620,note_on,1,0,15,,,,,,,,11,,,65,60
31620,note_on,1,0,11,,,,,,,,6,,,61,48
31620,note_on,1,0,10,,,,,,,,5,,,65,48
31620,note_on,1,0,9,,,,,,,,4,,,70,48
31620,note_on,1,0,16,,,,,,,,12,,,61,60
31620,note_on,1,0,14,,,,,,,,10,,,70,60
31679,note_on,59,0,11,,,,,,,,6,,,61,0
31679,note_on,59,0,15,,,,,,,,11,,,65,0
31679,note_on,59,0,14,,,,,,,,10,,,70,0
31679,note_on,59,0,9,,,,,,,,4,,,70,0
31679,note_on,59,0,16,,,,,,,,12,,,61,0
31679,note_on,59,0,10,,,,,,,,5,,,65,0
31680,note_on,1,0,10,,,,,,,,5,,,64,48
31680,note_on,1,0,14,,,,,,,,10,,,72,60
31680,note_on,1,0,9,,,,,,,,4,,,72,48
31680,note_on,1,0,16,,,,,,,,12,,,60,60
31680,note_on,1,0,11,,,,,,,,6,,,60,48
31680,note_on,1,0,15,,,,,,,,11,,,64,60
31739,note_on,59,0,14,,,,,,,,10,,,72,0
31739,note_on,59,0,9,,,,,,,,4,,,72,0
31740,note_on,1,0,14,,,,,,,,10,,,70,60
31740,note_on,1,0,9,,,,,,,,4,,,70,48
31799,note_on,59,0,9,,,,,,,,4,,,70,0
31799,note_on,59,0,14,,,,,,,,10,,,70,0
31800,note_on,1,0,14,,,,,,,,10,,,70,60
31800,note_on,1,0,9,,,,,,,,4,,,70,48
31859,note_on,179,0,11,,,,,,,,6,,,60,0
31859,note_on,179,0,16,,,,,,,,12,,,60,0
31859,note_on,179,0,10,,,,,,,,5,,,64,0
31859,note_on,179,0,15,,,,,,,,11,,,64,0
31860,note_on,1,0,15,,,,,,,,11,,,65,60
31860,note_on,1,0,11,,,,,,,,6,,,61,48
31860,note_on,1,0,16,,,,,,,,12,,,61,60
31860,note_on,1,0,10,,,,,,,,5,,,65,48
31919,note_on,59,0,15,,,,,,,,11,,,65,0
31919,note_on,59,0,11,,,,,,,,6,,,61,0
31919,note_on,59,0,10,,,,,,,,5,,,65,0
31919,note_on,119,0,9,,,,,,,,4,,,70,0
31919,note_on,59,0,16,,,,,,,,12,,,61,0
31919,note_on,119,0,14,,,,,,,,10,,,70,0
31920,note_on,1,0,9,,,,,,,,4,,,70,48
31920,note_on,721,0,13,,,,,,,,8,,,43,48
31920,note_on,1,0,10,,,,,,,,5,,,64,48
31920,note_on,1,0,11,,,,,,,,6,,,60,48
31920,note_on,1,0,16,,,,,,,,12,,,60,60
31920,note_on,1,0,14,,,,,,,,10,,,70,60
31920,note_on,1,0,15,,,,,,,,11,,,64,60
31920,note_on,2161,0,17,,,,,,,,13,,,55,60
31949,note_on,29,0,9,,,,,,,,4,,,70,0
31979,note_on,59,0,17,,,,,,,,13,,,55,0
31979,note_on,59,0,13,,,,,,,,8,,,43,0
31979,note_on,59,0,11,,,,,,,,6,,,60,0
31979,note_on,59,0,15,,,,,,,,11,,,64,0
31979,note_on,59,0,16,,,,,,,,12,,,60,0
31979,note_on,59,0,10,,,,,,,,5,,,64,0
31979,note_on,59,0,14,,,,,,,,10,,,70,0
31980,note_on,1,0,13,,,,,,,,8,,,41,48
31980,note_on,1,0,15,,,,,,,,11,,,65,60
31980,note_on,1,0,10,,,,,,,,5,,,65,48
31980,note_on,31,0,9,,,,,,,,4,,,70,48
31980,note_on,1,0,11,,,,,,,,6,,,61,48
31980,note_on,1,0,16,,,,,,,,12,,,61,60
31980,note_on,1,0,17,,,,,,,,13,,,53,60
31980,note_on,1,0,14,,,,,,,,10,,,70,60
32009,note_on,29,0,9,,,,,,,,4,,,70,0
32039,note_on,59,0,17,,,,,,,,13,,,53,0
32039,note_on,59,0,11,,,,,,,,6,,,61,0
32039,note_on,59,0,10,,,,,,,,5,,,65,0
32039,note_on,59,0,16,,,,,,,,12,,,61,0
32039,note_on,59,0,15,,,,,,,,11,,,65,0
32039,note_on,59,0,13,,,,,,,,8,,,41,0
32039,note_on,59,0,14,,,,,,,,10,,,70,0
32040,note_on,1,0,10,,,,,,,,5,,,67,48
32040,note_on,1,0,11,,,,,,,,6,,,60,48
32040,note_on,31,0,9,,,,,,,,4,,,70,48
32040,note_on,1,0,13,,,,,,,,8,,,40,48
32040,note_on,1,0,16,,,,,,,,12,,,60,60
32040,note_on,1,0,14,,,,,,,,10,,,70,60
32040,note_on,1,0,15,,,,,,,,11,,,67,60
32040,note_on,1,0,17,,,,,,,,13,,,52,60
32159,note_on,119,0,11,,,,,,,,6,,,60,0
32159,note_on,119,0,14,,,,,,,,10,,,70,0
32159,note_on,119,0,16,,,,,,,,12,,,60,0
32159,note_on,119,0,17,,,,,,,,13,,,52,0
32159,note_on,119,0,9,,,,,,,,4,,,70,0
32159,note_on,119,0,13,,,,,,,,8,,,40,0
32160,note_on,1,0,14,,,,,,,,10,,,76,60
32160,note_on,1,0,17,,,,,,,,13,,,48,60
32160,note_on,1,0,13,,,,,,,,8,,,36,48
32160,note_on,1,0,9,,,,,,,,4,,,76,48
32160,note_on,1,0,16,,,,,,,,12,,,58,60
32160,note_on,1,0,11,,,,,,,,6,,,58,48
32279,note_on,119,0,9,,,,,,,,4,,,76,0
32279,note_on,119,0,16,,,,,,,,12,,,58,0
32279,note_on,119,0,17,,,,,,,,13,,,48,0
32279,note_on,119,0,14,,,,,,,,10,,,76,0
32279,note_on,239,0,15,,,,,,,,11,,,67,0
32279,note_on,119,0,13,,,,,,,,8,,,36,0
32279,note_on,119,0,11,,,,,,,,6,,,58,0
32279,note_on,239,0,10,,,,,,,,5,,,67,0
32280,note_on,1,0,17,,,,,,,,13,,,50,60
32280,note_on,1,0,13,,,,,,,,8,,,38,48
32280,note_on,1,0,9,,,,,,,,4,,,77,48
32280,note_on,1,0,11,,,,,,,,6,,,57,48
32280,note_on,1,0,14,,,,,,,,10,,,77,60
32280,note_on,1,0,15,,,,,,,,11,,,65,60
32280,note_on,1,0,10,,,,,,,,5,,,65,48
32280,note_on,1,0,16,,,,,,,,12,,,57,60
32399,note_on,119,0,14,,,,,,,,10,,,77,0
32399,note_on,119,0,9,,,,,,,,4,,,77,0
32399,note_on,119,0,17,,,,,,,,13,,,50,0
32399,note_on,119,0,15,,,,,,,,11,,,65,0
32399,note_on,119,0,13,,,,,,,,8,,,38,0
32399,note_on,119,0,10,,,,,,,,5,,,65,0
32399,note_on,119,0,16,,,,,,,,12,,,57,0
32399,note_on,119,0,11,,,,,,,,6,,,57,0
32400,note_on,1,0,14,,,,,,,,10,,,77,60
32400,note_on,1,0,11,,,,,,,,6,,,59,72
32400,note_on,1,0,16,,,,,,,,12,,,59,60
32400,note_on,1,0,9,,,,,,,,4,,,77,72
32400,note_on,1,0,17,,,,,,,,13,,,55,60
32400,note_on,1,0,10,,,,,,,,5,,,62,72
32400,note_on,1,0,13,,,,,,,,8,,,31,72
32400,note_on,1,0,15,,,,,,,,11,,,62,60
32459,note_on,59,0,9,,,,,,,,4,,,77,0
32459,note_on,59,0,11,,,,,,,,6,,,59,0
32459,note_on,59,0,10,,,,,,,,5,,,62,0
32460,note_on,1,0,11,,,,,,,,6,,,59,48
32460,note_on,1,0,9,,,,,,,,4,,,77,48
32460,note_on,1,0,10,,,,,,,,5,,,62,48
32519,note_on,119,0,16,,,,,,,,12,,,59,0
32519,note_on,59,0,11,,,,,,,,6,,,59,0
32519,note_on,119,0,15,,,,,,,,11,,,62,0
32519,note_on,59,0,9,,,,,,,,4,,,77,0
32519,note_on,119,0,13,,,,,,,,8,,,31,0
32519,note_on,59,0,10,,,,,,,,5,,,62,0
32520,note_on,1,0,10,,,,,,,,5,,,59,48
32520,note_on,1,0,9,,,,,,,,4,,,77,48
32520,note_on,1,0,13,,,,,,,,8,,,43,48
32520,note_on,1,0,11,,,,,,,,6,,,62,48
32520,note_on,1,0,15,,,,,,,,11,,,67,60
32520,note_on,1,0,16,,,,,,,,12,,,62,60
32579,note_on,59,0,9,,,,,,,,4,,,77,0
32579,note_on,59,0,11,,,,,,,,6,,,62,0
32579,note_on,59,0,10,,,,,,,,5,,,59,0
32580,note_on,1,0,10,,,,,,,,5,,,59,48
32580,note_on,1,0,9,,,,,,,,4,,,77,48
32580,note_on,1,0,11,,,,,,,,6,,,62,48
32639,note_on,119,0,15,,,,,,,,11,,,67,0
32639,note_on,119,0,16,,,,,,,,12,,,62,0
32639,note_on,239,0,17,,,,,,,,13,,,55,0
32639,note_on,239,0,14,,,,,,,,10,,,77,0
32639,note_on,59,0,9,,,,,,,,4,,,77,0
32639,note_on,59,0,11,,,,,,,,6,,,62,0
32639,note_on,119,0,13,,,,,,,,8,,,43,0
32639,note_on,59,0,10,,,,,,,,5,,,59,0
32640,note_on,1,0,17,,,,,,,,13,,,55,60
32640,note_on,1,0,16,,,,,,,,12,,,65,60
32640,note_on,1,0,10,,,,,,,,5,,,65,48
32640,note_on,1,0,13,,,,,,,,8,,,43,48
32640,note_on,1,0,15,,,,,,,,11,,,67,60
32640,note_on,1,0,11,,,,,,,,6,,,67,48
32640,note_on,1,0,9,,,,,,,,4,,,71,48
32640,note_on,1,0,14,,,,,,,,10,,,71,60
32699,note_on,59,0,11,,,,,,,,6,,,67,0
32699,note_on,59,0,9,,,,,,,,4,,,71,0
32699,note_on,59,0,10,,,,,,,,5,,,65,0
32700,note_on,1,0,9,,,,,,,,4,,,71,48
32700,note_on,1,0,11,,,,,,,,6,,,67,48
32700,note_on,1,0,10,,,,,,,,5,,,65,48
32759,note_on,59,0,9,,,,,,,,4,,,71,0
32759,note_on,59,0,11,,,,,,,,6,,,67,0
32759,note_on,59,0,10,,,,,,,,5,,,65,0
32759,note_on,119,0,17,,,,,,,,13,,,55,0
32759,note_on,119,0,16,,,,,,,,12,,,65,0
32759,note_on,119,0,14,,,,,,,,10,,,71,0
32759,note_on,119,0,15,,,,,,,,11,,,67,0
32759,note_on,119,0,13,,,,,,,,8,,,43,0
32760,note_on,1,0,13,,,,,,,,8,,,36,48
32760,note_on,1,0,9,,,,,,,,4,,,72,48
32760,note_on,1,0,14,,,,,,,,10,,,74,60
32760,note_on,1,0,11,,,,,,,,6,,,67,48
32760,note_on,1,0,17,,,,,,,,13,,,60,60
32760,note_on,1,0,15,,,,,,,,11,,,67,60
32760,note_on,1,0,10,,,,,,,,5,,,65,48
32760,note_on,1,0,16,,,,,,,,12,,,65,60
32819,note_on,59,0,11,,,,,,,,6,,,67,0
32819,note_on,59,0,10,,,,,,,,5,,,65,0
32820,note_on,1,0,11,,,,,,,,6,,,64,48
32820,note_on,1,0,10,,,,,,,,5,,,67,48
32849,note_on,29,0,11,,,,,,,,6,,,64,0
32849,note_on,29,0,10,,,,,,,,5,,,67,0
32850,note_on,1,0,11,,,,,,,,6,,,62,48
32850,note_on,1,0,10,,,,,,,,5,,,65,48
32879,note_on,119,0,16,,,,,,,,12,,,65,0
32879,note_on,119,0,17,,,,,,,,13,,,60,0
32879,note_on,29,0,10,,,,,,,,5,,,65,0
32879,note_on,119,0,14,,,,,,,,10,,,74,0
32879,note_on,29,0,11,,,,,,,,6,,,62,0
32879,note_on,119,0,9,,,,,,,,4,,,72,0
32879,note_on,119,0,13,,,,,,,,8,,,36,0
32879,note_on,119,0,15,,,,,,,,11,,,67,0
32880,note_on,1,0,11,,,,,,,,6,,,60,48
32880,note_on,1,0,15,,,,,,,,11,,,67,60
32880,note_on,1,0,17,,,,,,,,13,,,48,60
32880,note_on,1,0,16,,,,,,,,12,,,64,60
32880,note_on,1,0,14,,,,,,,,10,,,72,60
32880,note_on,1,0,10,,,,,,,,5,,,64,48
32939,note_on,59,0,11,,,,,,,,6,,,60,0
32939,note_on,59,0,10,,,,,,,,5,,,64,0
32940,note_on,1,0,11,,,,,,,,6,,,58,48
32940,note_on,1,0,10,,,,,,,,5,,,62,48
32999,note_on,59,0,11,,,,,,,,6,,,58,0
32999,note_on,119,0,14,,,,,,,,10,,,72,0
32999,note_on,119,0,16,,,,,,,,12,,,64,0
32999,note_on,59,0,10,,,,,,,,5,,,62,0
32999,note_on,119,0,15,,,,,,,,11,,,67,0
32999,note_on,119,0,17,,,,,,,,13,,,48,0
33000,note_on,1,0,10,,,,,,,,5,,,60,48
33000,note_on,1,0,11,,,,,,,,6,,,57,48
33059,note_on,59,0,11,,,,,,,,6,,,57,0
33059,note_on,59,0,10,,,,,,,,5,,,60,0
33060,note_on,1,0,11,,,,,,,,6,,,55,48
33060,note_on,1,0,10,,,,,,,,5,,,58,48
33119,note_on,59,0,10,,,,,,,,5,,,58,0
33119,note_on,59,0,11,,,,,,,,6,,,55,0
33120,note_on,1,0,10,,,,,,,,5,,,57,48
33120,note_on,121,0,15,,,,,,,,11,,,65,60
33120,note_on,3961,0,5,,,,,,,,0,,,65,48
33120,note_on,1,0,11,,,,,,,,6,,,53,48
33180,note_on,301,0,13,,,,,,,,8,,,41,48
33209,note_on,29,0,13,,,,,,,,8,,,41,0
33210,note_on,1,0,13,,,,,,,,8,,,40,48
33239,note_on,29,0,13,,,,,,,,8,,,40,0
33239,note_on,119,0,10,,,,,,,,5,,,57,0
33239,note_on,119,0,11,,,,,,,,6,,,53,0
33240,note_on,1,0,13,,,,,,,,8,,,38,48
33299,note_on,59,0,13,,,,,,,,8,,,38,0
33300,note_on,1,0,13,,,,,,,,8,,,36,48
33359,note_on,59,0,13,,,,,,,,8,,,36,0
33360,note_on,1,0,13,,,,,,,,8,,,34,48
33419,note_on,59,0,13,,,,,,,,8,,,34,0
33420,note_on,1,0,13,,,,,,,,8,,,33,48
33479,note_on,59,0,13,,,,,,,,8,,,33,0
33480,note_on,481,0,17,,,,,,,,13,,,55,60
33480,note_on,4321,0,6,,,,,,,,0,,,67,48
33480,note_on,1,0,13,,,,,,,,8,,,34,48
33539,note_on,59,0,13,,,,,,,,8,,,34,0
33540,note_on,1,0,13,,,,,,,,8,,,38,48
33599,note_on,59,0,13,,,,,,,,8,,,38,0
33599,note_on,479,0,15,,,,,,,,11,,,65,0
33599,note_on,479,0,5,,,,,,,,0,,,65,0
33600,note_on,1,0,5,,,,,,,,0,,,64,48
33600,note_on,1,0,15,,,,,,,,11,,,64,60
33600,note_on,1,0,13,,,,,,,,8,,,36,48
33659,note_on,59,0,13,,,,,,,,8,,,36,0
33660,note_on,1,0,13,,,,,,,,8,,,34,48
33719,note_on,119,0,5,,,,,,,,0,,,64,0
33719,note_on,59,0,13,,,,,,,,8,,,34,0
33719,note_on,119,0,15,,,,,,,,11,,,64,0
33720,note_on,1,0,5,,,,,,,,0,,,70,48
33720,note_on,1,0,15,,,,,,,,11,,,70,60
33720,note_on,1,0,13,,,,,,,,8,,,33,48
33779,note_on,59,0,13,,,,,,,,8,,,33,0
33780,note_on,1,0,13,,,,,,,,8,,,31,48
33839,note_on,119,0,5,,,,,,,,0,,,70,0
33839,note_on,59,0,13,,,,,,,,8,,,31,0
33839,note_on,119,0,15,,,,,,,,11,,,70,0
33840,note_on,1,0,15,,,,,,,,11,,,69,60
33840,note_on,1,0,13,,,,,,,,8,,,29,48
33840,note_on,1,0,5,,,,,,,,0,,,69,48
33899,note_on,59,0,13,,,,,,,,8,,,29,0
33900,note_on,1,0,13,,,,,,,,8,,,41,48
33929,note_on,29,0,13,,,,,,,,8,,,41,0
33930,note_on,1,0,13,,,,,,,,8,,,40,48
33959,note_on,29,0,13,,,,,,,,8,,,40,0
33959,note_on,479,0,17,,,,,,,,13,,,55,0
33959,note_on,479,0,6,,,,,,,,0,,,67,0
33960,note_on,1,0,17,,,,,,,,13,,,53,60
33960,note_on,1,0,6,,,,,,,,0,,,65,48
33960,note_on,1,0,13,,,,,,,,8,,,38,48
34019,note_on,59,0,13,,,,,,,,8,,,38,0
34020,note_on,1,0,13,,,,,,,,8,,,36,48
34079,note_on,59,0,13,,,,,,,,8,,,36,0
34079,note_on,119,0,6,,,,,,,,0,,,65,0
34079,note_on,119,0,17,,,,,,,,13,,,53,0
34080,note_on,1,0,13,,,,,,,,8,,,34,48
34080,note_on,1,0,6,,,,,,,,0,,,72,48
34080,note_on,1,0,17,,,,,,,,13,,,60,60
34139,note_on,59,0,13,,,,,,,,8,,,34,0
34140,note_on,1,0,13,,,,,,,,8,,,33,48
34199,note_on,119,0,6,,,,,,,,0,,,72,0
34199,note_on,119,0,17,,,,,,,,13,,,60,0
34199,note_on,59,0,13,,,,,,,,8,,,33,0
34200,note_on,1,0,13,,,,,,,,8,,,31,48
34200,note_on,1,0,6,,,,,,,,0,,,70,48
34200,note_on,1,0,17,,,,,,,,13,,,58,60
34259,note_on,59,0,13,,,,,,,,8,,,31,0
34260,note_on,1,0,13,,,,,,,,8,,,50,48
34289,note_on,29,0,13,,,,,,,,8,,,50,0
34290,note_on,1,0,13,,,,,,,,8,,,48,48
34319,note_on,479,0,15,,,,,,,,11,,,69,0
34319,note_on,29,0,13,,,,,,,,8,,,48,0
34319,note_on,479,0,5,,,,,,,,0,,,69,0
34320,note_on,1,0,13,,,,,,,,8,,,46,48
34320,note_on,1,0,15,,,,,,,,11,,,67,60
34320,note_on,1,0,5,,,,,,,,0,,,67,48
34379,note_on,59,0,13,,,,,,,,8,,,46,0
34380,note_on,1,0,13,,,,,,,,8,,,45,48
34439,note_on,239,0,17,,,,,,,,13,,,58,0
34439,note_on,119,0,5,,,,,,,,0,,,67,0
34439,note_on,59,0,13,,,,,,,,8,,,45,0
34439,note_on,119,0,15,,,,,,,,11,,,67,0
34439,note_on,239,0,6,,,,,,,,0,,,70,0
34440,note_on,1,0,17,,,,,,,,13,,,58,60
34440,note_on,1,0,5,,,,,,,,0,,,74,48
34440,note_on,1,0,6,,,,,,,,0,,,70,48
34440,note_on,1,0,15,,,,,,,,11,,,74,60
34440,note_on,1,0,13,,,,,,,,8,,,43,48
34499,note_on,59,0,13,,,,,,,,8,,,43,0
34500,note_on,1,0,13,,,,,,,,8,,,41,48
34559,note_on,59,0,13,,,,,,,,8,,,41,0
34559,note_on,119,0,5,,,,,,,,0,,,74,0
34559,note_on,119,0,15,,,,,,,,11,,,74,0
34560,note_on,1,0,15,,,,,,,,11,,,72,60
34560,note_on,1,0,5,,,,,,,,0,,,72,48
34560,note_on,1,0,13,,,,,,,,8,,,40,48
34619,note_on,59,0,13,,,,,,,,8,,,40,0
34620,note_on,1,0,13,,,,,,,,8,,,41,48
34649,note_on,29,0,13,,,,,,,,8,,,41,0
34650,note_on,1,0,13,,,,,,,,8,,,43,48
34679,note_on,239,0,6,,,,,,,,0,,,70,0
34679,note_on,29,0,13,,,,,,,,8,,,43,0
34679,note_on,239,0,17,,,,,,,,13,,,58,0
34680,note_on,1,0,13,,,,,,,,8,,,45,48
34680,note_on,1,0,17,,,,,,,,13,,,57,60
34680,note_on,1,0,6,,,,,,,,0,,,69,48
34739,note_on,59,0,13,,,,,,,,8,,,45,0
34740,note_on,1,0,13,,,,,,,,8,,,41,48
34799,note_on,239,0,15,,,,,,,,11,,,72,0
34799,note_on,239,0,5,,,,,,,,0,,,72,0
34799,note_on,59,0,13,,,,,,,,8,,,41,0
34800,note_on,1,0,15,,,,,,,,11,,,70,60
34800,note_on,1,0,13,,,,,,,,8,,,38,48
34800,note_on,1,0,5,,,,,,,,0,,,70,48
34859,note_on,59,0,13,,,,,,,,8,,,38,0
34860,note_on,1,0,13,,,,,,,,8,,,40,48
34889,note_on,29,0,13,,,,,,,,8,,,40,0
34890,note_on,1,0,13,,,,,,,,8,,,41,48
34919,note_on,239,0,17,,,,,,,,13,,,57,0
34919,note_on,29,0,13,,,,,,,,8,,,41,0
34919,note_on,239,0,6,,,,,,,,0,,,69,0
34920,note_on,1,0,13,,,,,,,,8,,,43,48
34920,note_on,1,0,6,,,,,,,,0,,,67,48
34920,note_on,1,0,17,,,,,,,,13,,,55,60
34979,note_on,59,0,13,,,,,,,,8,,,43,0
34980,note_on,1,0,13,,,,,,,,8,,,40,48
35039,note_on,59,0,13,,,,,,,,8,,,40,0
35039,note_on,119,0,6,,,,,,,,0,,,67,0
35039,note_on,239,0,5,,,,,,,,0,,,70,0
35039,note_on,239,0,15,,,,,,,,11,,,70,0
35039,note_on,119,0,17,,,,,,,,13,,,55,0
35040,note_on,1,0,17,,,,,,,,13,,,55,60
35040,note_on,1,0,6,,,,,,,,0,,,67,48
35040,note_on,1,0,15,,,,,,,,11,,,70,60
35040,note_on,1,0,5,,,,,,,,0,,,70,48
35040,note_on,1,0,13,,,,,,,,8,,,41,48
35099,note_on,59,0,13,,,,,,,,8,,,41,0
35100,note_on,1,0,13,,,,,,,,8,,,38,48
35159,note_on,59,0,13,,,,,,,,8,,,38,0
35160,note_on,1,0,13,,,,,,,,8,,,33,48
35189,note_on,149,0,17,,,,,,,,13,,,55,0
35189,note_on,149,0,15,,,,,,,,11,,,70,0
35189,note_on,149,0,5,,,,,,,,0,,,70,0
35189,note_on,149,0,6,,,,,,,,0,,,67,0
35190,note_on,1,0,15,,,,,,,,11,,,69,60
35190,note_on,1,0,6,,,,,,,,0,,,65,48
35190,note_on,1,0,5,,,,,,,,0,,,69,48
35190,note_on,1,0,17,,,,,,,,13,,,53,60
35219,note_on,59,0,13,,,,,,,,8,,,33,0
35219,note_on,29,0,6,,,,,,,,0,,,65,0
35219,note_on,29,0,15,,,,,,,,11,,,69,0
35219,note_on,29,0,5,,,,,,,,0,,,69,0
35219,note_on,29,0,17,,,,,,,,13,,,53,0
35220,note_on,1,0,5,,,,,,,,0,,,67,48
35220,note_on,1,0,6,,,,,,,,0,,,64,48
35220,note_on,1,0,13,,,,,,,,8,,,35,48
35220,note_on,1,0,17,,,,,,,,13,,,52,60
35220,note_on,1,0,15,,,,,,,,11,,,67,60
35249,note_on,29,0,6,,,,,,,,0,,,64,0
35249,note_on,29,0,15,,,,,,,,11,,,67,0
35249,note_on,29,0,5,,,,,,,,0,,,67,0
35249,note_on,29,0,17,,,,,,,,13,,,52,0
35250,note_on,1,0,15,,,,,,,,11,,,69,60
35250,note_on,1,0,5,,,,,,,,0,,,69,48
35250,note_on,1,0,6,,,,,,,,0,,,65,48
35250,note_on,1,0,17,,,,,,,,13,,,53,60
35279,note_on,29,0,5,,,,,,,,0,,,69,0
35279,note_on,29,0,17,,,,,,,,13,,,53,0
35279,note_on,29,0,15,,,,,,,,11,,,69,0
35279,note_on,59,0,13,,,,,,,,8,,,35,0
35279,note_on,29,0,6,,,,,,,,0,,,65,0
35280,note_on,1,0,15,,,,,,,,11,,,67,60
35280,note_on,1,0,5,,,,,,,,0,,,67,48
35280,note_on,1,0,6,,,,,,,,0,,,64,48
35280,note_on,1,0,13,,,,,,,,8,,,33,48
35280,note_on,2281,0,14,,,,,,,,10,,,72,60
35280,note_on,1,0,17,,,,,,,,13,,,52,60
35280,note_on,2041,0,10,,,,,,,,5,,,72,48
35339,note_on,59,0,13,,,,,,,,8,,,33,0
35340,note_on,2101,0,11,,,,,,,,6,,,52,48
35340,note_on,10141,0,12,,,,,,,,7,,,48,48
35369,note_on,29,0,12,,,,,,,,7,,,48,0
35369,note_on,29,0,11,,,,,,,,6,,,52,0
35370,note_on,1,0,12,,,,,,,,7,,,50,48
35370,note_on,1,0,11,,,,,,,,6,,,53,48
35399,note_on,119,0,6,,,,,,,,0,,,64,0
35399,note_on,29,0,12,,,,,,,,7,,,50,0
35399,note_on,119,0,17,,,,,,,,13,,,52,0
35399,note_on,119,0,5,,,,,,,,0,,,67,0
35399,note_on,119,0,15,,,,,,,,11,,,67,0
35399,note_on,29,0,11,,,,,,,,6,,,53,0
35400,note_on,1,0,12,,,,,,,,7,,,52,48
35400,note_on,1,0,11,,,,,,,,6,,,55,48
35459,note_on,59,0,12,,,,,,,,7,,,52,0
35459,note_on,59,0,11,,,,,,,,6,,,55,0
35460,note_on,1,0,11,,,,,,,,6,,,57,48
35460,note_on,1,0,12,,,,,,,,7,,,53,48
35519,note_on,59,0,12,,,,,,,,7,,,53,0
35519,note_on,59,0,11,,,,,,,,6,,,57,0
35520,note_on,1,0,11,,,,,,,,6,,,59,48
35520,note_on,1,0,12,,,,,,,,7,,,55,48
35579,note_on,59,0,12,,,,,,,,7,,,55,0
35579,note_on,59,0,11,,,,,,,,6,,,59,0
35580,note_on,1,0,12,,,,,,,,7,,,57,48
35580,note_on,1,0,11,,,,,,,,6,,,60,48
35639,note_on,59,0,12,,,,,,,,7,,,57,0
35639,note_on,59,0,11,,,,,,,,6,,,60,0
35640,note_on,2641,0,16,,,,,,,,12,,,62,60
35640,note_on,1,0,11,,,,,,,,6,,,57,48
35640,note_on,2761,0,9,,,,,,,,4,,,74,48
35640,note_on,1,0,12,,,,,,,,7,,,53,48
35699,note_on,59,0,12,,,,,,,,7,,,53,0
35700,note_on,1,0,12,,,,,,,,7,,,54,48
35759,note_on,119,0,11,,,,,,,,6,,,57,0
35759,note_on,59,0,12,,,,,,,,7,,,54,0
35759,note_on,479,0,10,,,,,,,,5,,,72,0
35759,note_on,479,0,14,,,,,,,,10,,,72,0
35760,note_on,1,0,12,,,,,,,,7,,,55,48
35760,note_on,1,0,10,,,,,,,,5,,,71,48
35760,note_on,1,0,11,,,,,,,,6,,,55,48
35760,note_on,1,0,14,,,,,,,,10,,,71,60
35819,note_on,59,0,12,,,,,,,,7,,,55,0
35820,note_on,1,0,12,,,,,,,,7,,,53,48
35879,note_on,59,0,12,,,,,,,,7,,,53,0
35879,note_on,119,0,10,,,,,,,,5,,,71,0
35879,note_on,119,0,14,,,,,,,,10,,,71,0
35879,note_on,119,0,11,,,,,,,,6,,,55,0
35880,note_on,1,0,11,,,,,,,,6,,,59,48
35880,note_on,1,0,10,,,,,,,,5,,,77,48
35880,note_on,1,0,14,,,,,,,,10,,,77,60
35880,note_on,1,0,12,,,,,,,,7,,,52,48
35939,note_on,59,0,12,,,,,,,,7,,,52,0
35940,note_on,1,0,12,,,,,,,,7,,,50,48
35999,note_on,119,0,11,,,,,,,,6,,,59,0
35999,note_on,119,0,10,,,,,,,,5,,,77,0
35999,note_on,119,0,14,,,,,,,,10,,,77,0
35999,note_on,59,0,12,,,,,,,,7,,,50,0
36000,note_on,1,0,11,,,,,,,,6,,,60,48
36000,note_on,1,0,14,,,,,,,,10,,,76,60
36000,note_on,1,0,12,,,,,,,,7,,,48,48
36000,note_on,1,0,10,,,,,,,,5,,,76,48
36059,note_on,59,0,12,,,,,,,,7,,,48,0
36059,note_on,419,0,9,,,,,,,,4,,,74,0
36060,note_on,1,0,12,,,,,,,,7,,,56,48
36060,note_on,1,0,9,,,,,,,,4,,,76,48
36089,note_on,29,0,9,,,,,,,,4,,,76,0
36090,note_on,1,0,9,,,,,,,,4,,,74,48
36119,note_on,59,0,12,,,,,,,,7,,,56,0
36119,note_on,479,0,16,,,,,,,,12,,,62,0
36119,note_on,119,0,11,,,,,,,,6,,,60,0
36119,note_on,29,0,9,,,,,,,,4,,,74,0
36120,note_on,1,0,12,,,,,,,,7,,,57,48
36120,note_on,1,0,16,,,,,,,,12,,,60,60
36120,note_on,1,0,9,,,,,,,,4,,,72,48
36149,note_on,29,0,12,,,,,,,,7,,,57,0
36179,note_on,179,0,10,,,,,,,,5,,,76,0
36179,note_on,59,0,9,,,,,,,,4,,,72,0
36180,note_on,1,0,9,,,,,,,,4,,,71,48
36180,note_on,1,0,10,,,,,,,,5,,,76,48
36180,note_on,31,0,12,,,,,,,,7,,,48,48
36209,note_on,29,0,12,,,,,,,,7,,,48,0
36209,note_on,29,0,10,,,,,,,,5,,,76,0
36210,note_on,1,0,10,,,,,,,,5,,,74,48
36239,note_on,119,0,16,,,,,,,,12,,,60,0
36239,note_on,29,0,10,,,,,,,,5,,,74,0
36239,note_on,59,0,9,,,,,,,,4,,,71,0
36240,note_on,1,0,9,,,,,,,,4,,,69,48
36240,note_on,31,0,12,,,,,,,,7,,,48,48
36240,note_on,1,0,10,,,,,,,,5,,,72,48
36240,note_on,1,0,16,,,,,,,,12,,,67,60
36254,note_on,14,0,12,,,,,,,,7,,,48,0
36255,note_on,1,0,12,,,,,,,,7,,,50,48
36269,note_on,14,0,12,,,,,,,,7,,,50,0
36270,note_on,1,0,12,,,,,,,,7,,,48,48
36284,note_on,14,0,12,,,,,,,,7,,,48,0
36285,note_on,1,0,12,,,,,,,,7,,,50,48
36299,note_on,59,0,9,,,,,,,,4,,,69,0
36299,note_on,14,0,12,,,,,,,,7,,,50,0
36299,note_on,59,0,10,,,,,,,,5,,,72,0
36300,note_on,1,0,10,,,,,,,,5,,,71,48
36300,note_on,1,0,9,,,,,,,,4,,,67,48
36300,note_on,1,0,12,,,,,,,,7,,,48,48
36314,note_on,14,0,12,,,,,,,,7,,,48,0
36315,note_on,1,0,12,,,,,,,,7,,,50,48
36329,note_on,14,0,12,,,,,,,,7,,,50,0
36330,note_on,1,0,12,,,,,,,,7,,,47,48
36344,note_on,14,0,12,,,,,,,,7,,,47,0
36345,note_on,1,0,12,,,,,,,,7,,,48,48
36359,note_on,14,0,12,,,,,,,,7,,,48,0
36359,note_on,59,0,9,,,,,,,,4,,,67,0
36359,note_on,59,0,10,,,,,,,,5,,,71,0
36359,note_on,119,0,16,,,,,,,,12,,,67,0
36360,note_on,1,0,12,,,,,,,,7,,,50,48
36360,note_on,1,0,16,,,,,,,,12,,,65,60
36360,note_on,1,0,10,,,,,,,,5,,,69,48
36360,note_on,1,0,9,,,,,,,,4,,,65,48
36419,note_on,59,0,9,,,,,,,,4,,,65,0
36419,note_on,59,0,12,,,,,,,,7,,,50,0
36419,note_on,59,0,10,,,,,,,,5,,,69,0
36420,note_on,1,0,9,,,,,,,,4,,,77,48
36420,note_on,1,0,12,,,,,,,,7,,,57,48
36420,note_on,1,0,10,,,,,,,,5,,,67,48
36449,note_on,29,0,9,,,,,,,,4,,,77,0
36450,note_on,1,0,9,,,,,,,,4,,,76,48
36479,note_on,479,0,14,,,,,,,,10,,,76,0
36479,note_on,29,0,9,,,,,,,,4,,,76,0
36479,note_on,59,0,10,,,,,,,,5,,,67,0
36479,note_on,59,0,12,,,,,,,,7,,,57,0
36480,note_on,1,0,10,,,,,,,,5,,,65,48
36480,note_on,1,0,12,,,,,,,,7,,,59,48
36480,note_on,1,0,14,,,,,,,,10,,,74,60
36480,note_on,1,0,9,,,,,,,,4,,,74,48
36509,note_on,29,0,12,,,,,,,,7,,,59,0
36539,note_on,59,0,9,,,,,,,,4,,,74,0
36539,note_on,59,0,10,,,,,,,,5,,,65,0
36540,note_on,1,0,9,,,,,,,,4,,,72,48
36540,note_on,1,0,10,,,,,,,,5,,,77,48
36540,note_on,31,0,12,,,,,,,,7,,,50,48
36569,note_on,29,0,10,,,,,,,,5,,,77,0
36569,note_on,29,0,12,,,,,,,,7,,,50,0
36570,note_on,1,0,10,,,,,,,,5,,,76,48
36599,note_on,29,0,10,,,,,,,,5,,,76,0
36599,note_on,119,0,14,,,,,,,,10,,,74,0
36599,note_on,59,0,9,,,,,,,,4,,,72,0
36600,note_on,1,0,14,,,,,,,,10,,,81,60
36600,note_on,1,0,10,,,,,,,,5,,,74,48
36600,note_on,1,0,9,,,,,,,,4,,,71,48
36600,note_on,31,0,12,,,,,,,,7,,,50,48
36614,note_on,14,0,12,,,,,,,,7,,,50,0
36615,note_on,1,0,12,,,,,,,,7,,,52,48
36629,note_on,14,0,12,,,,,,,,7,,,52,0
36630,note_on,1,0,12,,,,,,,,7,,,50,48
36644,note_on,14,0,12,,,,,,,,7,,,50,0
36645,note_on,1,0,12,,,,,,,,7,,,52,48
36659,note_on,59,0,9,,,,,,,,4,,,71,0
36659,note_on,14,0,12,,,,,,,,7,,,52,0
36659,note_on,59,0,10,,,,,,,,5,,,74,0
36660,note_on,1,0,9,,,,,,,,4,,,69,48
36660,note_on,1,0,12,,,,,,,,7,,,50,48
36660,note_on,1,0,10,,,,,,,,5,,,72,48
36674,note_on,14,0,12,,,,,,,,7,,,50,0
36675,note_on,1,0,12,,,,,,,,7,,,52,48
36689,note_on,14,0,12,,,,,,,,7,,,52,0
36690,note_on,1,0,12,,,,,,,,7,,,48,48
36704,note_on,14,0,12,,,,,,,,7,,,48,0
36705,note_on,1,0,12,,,,,,,,7,,,50,48
36719,note_on,59,0,10,,,,,,,,5,,,72,0
36719,note_on,14,0,12,,,,,,,,7,,,50,0
36719,note_on,59,0,9,,,,,,,,4,,,69,0
36719,note_on,119,0,14,,,,,,,,10,,,81,0
36720,note_on,1,0,9,,,,,,,,4,,,67,48
36720,note_on,1,0,12,,,,,,,,7,,,52,48
36720,note_on,1,0,14,,,,,,,,10,,,79,60
36720,note_on,601,0,11,,,,,,,,6,,,52,48
36720,note_on,1,0,10,,,,,,,,5,,,71,48
36779,note_on,59,0,12,,,,,,,,7,,,52,0
36779,note_on,59,0,9,,,,,,,,4,,,67,0
36779,note_on,59,0,11,,,,,,,,6,,,52,0
36779,note_on,59,0,10,,,,,,,,5,,,71,0
36780,note_on,1,0,9,,,,,,,,4,,,79,48
36780,note_on,1,0,10,,,,,,,,5,,,69,48
36780,note_on,1,0,11,,,,,,,,6,,,53,48
36780,note_on,1,0,12,,,,,,,,7,,,53,48
36809,note_on,29,0,9,,,,,,,,4,,,79,0
36810,note_on,1,0,9,,,,,,,,4,,,77,48
36839,note_on,59,0,10,,,,,,,,5,,,69,0
36839,note_on,59,0,12,,,,,,,,7,,,53,0
36839,note_on,59,0,11,,,,,,,,6,,,53,0
36839,note_on,29,0,9,,,,,,,,4,,,77,0
36840,note_on,1,0,9,,,,,,,,4,,,76,48
36840,note_on,1,0,10,,,,,,,,5,,,67,48
36840,note_on,1,0,12,,,,,,,,7,,,55,48
36840,note_on,1,0,11,,,,,,,,6,,,55,48
36899,note_on,59,0,10,,,,,,,,5,,,67,0
36899,note_on,59,0,11,,,,,,,,6,,,55,0
36899,note_on,59,0,12,,,,,,,,7,,,55,0
36899,note_on,59,0,9,,,,,,,,4,,,76,0
36899,note_on,539,0,16,,,,,,,,12,,,65,0
36900,note_on,1,0,11,,,,,,,,6,,,57,48
36900,note_on,1,0,12,,,,,,,,7,,,57,48
36900,note_on,1,0,9,,,,,,,,4,,,74,48
36900,note_on,1,0,16,,,,,,,,12,,,64,60
36900,note_on,1,0,10,,,,,,,,5,,,65,48
36929,note_on,29,0,12,,,,,,,,7,,,57,0
36929,note_on,29,0,16,,,,,,,,12,,,64,0
36929,note_on,29,0,11,,,,,,,,6,,,57,0
36930,note_on,1,0,12,,,,,,,,7,,,59,48
36930,note_on,1,0,11,,,,,,,,6,,,59,48
36930,note_on,1,0,16,,,,,,,,12,,,62,60
36959,note_on,29,0,16,,,,,,,,12,,,62,0
36959,note_on,29,0,12,,,,,,,,7,,,59,0
36959,note_on,29,0,11,,,,,,,,6,,,59,0
36959,note_on,59,0,10,,,,,,,,5,,,65,0
36959,note_on,59,0,9,,,,,,,,4,,,74,0
36960,note_on,1,0,10,,,,,,,,5,,,64,48
36960,note_on,1,0,9,,,,,,,,4,,,72,48
36960,note_on,1,0,12,,,,,,,,7,,,60,48
36960,note_on,1,0,11,,,,,,,,6,,,60,48
36960,note_on,1,0,16,,,,,,,,12,,,64,60
37019,note_on,299,0,14,,,,,,,,10,,,79,0
37019,note_on,59,0,10,,,,,,,,5,,,64,0
37019,note_on,59,0,9,,,,,,,,4,,,72,0
37019,note_on,59,0,16,,,,,,,,12,,,64,0
37020,note_on,1,0,14,,,,,,,,10,,,77,60
37020,note_on,1,0,9,,,,,,,,4,,,74,48
37020,note_on,1,0,10,,,,,,,,5,,,62,48
37020,note_on,1,0,16,,,,,,,,12,,,62,60
37049,note_on,29,0,9,,,,,,,,4,,,74,0
37049,note_on,29,0,14,,,,,,,,10,,,77,0
37049,note_on,29,0,10,,,,,,,,5,,,62,0
37049,note_on,29,0,16,,,,,,,,12,,,62,0
37050,note_on,1,0,16,,,,,,,,12,,,60,60
37050,note_on,1,0,9,,,,,,,,4,,,76,48
37050,note_on,1,0,14,,,,,,,,10,,,76,60
37050,note_on,1,0,10,,,,,,,,5,,,60,48
37079,note_on,29,0,10,,,,,,,,5,,,60,0
37079,note_on,29,0,9,,,,,,,,4,,,76,0
37079,note_on,29,0,14,,,,,,,,10,,,76,0
37079,note_on,29,0,16,,,,,,,,12,,,60,0
37080,note_on,1,0,14,,,,,,,,10,,,77,60
37080,note_on,1,0,16,,,,,,,,12,,,62,60
37080,note_on,1,0,9,,,,,,,,4,,,79,48
37080,note_on,1,0,10,,,,,,,,5,,,62,48
37109,note_on,29,0,9,,,,,,,,4,,,79,0
37110,note_on,1,0,9,,,,,,,,4,,,77,48
37139,note_on,179,0,11,,,,,,,,6,,,60,0
37139,note_on,179,0,12,,,,,,,,7,,,60,0
37140,note_on,1,0,11,,,,,,,,6,,,62,48
37140,note_on,1,0,12,,,,,,,,7,,,62,48
37169,note_on,29,0,11,,,,,,,,6,,,62,0
37169,note_on,29,0,12,,,,,,,,7,,,62,0
37170,note_on,1,0,12,,,,,,,,7,,,60,48
37170,note_on,1,0,11,,,,,,,,6,,,60,48
37199,note_on,29,0,11,,,,,,,,6,,,60,0
37199,note_on,29,0,12,,,,,,,,7,,,60,0
37200,note_on,1,0,12,,,,,,,,7,,,59,48
37200,note_on,1,0,11,,,,,,,,6,,,59,48
37259,note_on,59,0,11,,,,,,,,6,,,59,0
37259,note_on,59,0,12,,,,,,,,7,,,59,0
37260,note_on,1,0,12,,,,,,,,7,,,60,48
37260,note_on,1,0,11,,,,,,,,6,,,60,48
37289,note_on,29,0,12,,,,,,,,7,,,60,0
37289,note_on,29,0,11,,,,,,,,6,,,60,0
37290,note_on,1,0,11,,,,,,,,6,,,62,48
37290,note_on,1,0,12,,,,,,,,7,,,62,48
37319,note_on,29,0,12,,,,,,,,7,,,62,0
37319,note_on,29,0,11,,,,,,,,6,,,62,0
37320,note_on,1,0,12,,,,,,,,7,,,55,48
37320,note_on,1,0,11,,,,,,,,6,,,55,48
37379,note_on,59,0,12,,,,,,,,7,,,55,0
37379,note_on,59,0,11,,,,,,,,6,,,55,0
37380,note_on,1,0,12,,,,,,,,7,,,57,48
37380,note_on,1,0,11,,,,,,,,6,,,57,48
37409,note_on,29,0,11,,,,,,,,6,,,57,0
37409,note_on,29,0,12,,,,,,,,7,,,57,0
37410,note_on,1,0,11,,,,,,,,6,,,59,48
37410,note_on,1,0,12,,,,,,,,7,,,59,48
37439,note_on,29,0,12,,,,,,,,7,,,59,0
37439,note_on,29,0,11,,,,,,,,6,,,59,0
37439,note_on,359,0,14,,,,,,,,10,,,77,0
37439,note_on,359,0,10,,,,,,,,5,,,62,0
37439,note_on,329,0,9,,,,,,,,4,,,77,0
37439,note_on,359,0,16,,,,,,,,12,,,62,0
37440,note_on,1,0,9,,,,,,,,4,,,76,48
37440,note_on,1,0,14,,,,,,,,10,,,76,60
37440,note_on,1,0,16,,,,,,,,12,,,60,60
37440,note_on,1,0,11,,,,,,,,6,,,60,48
37440,note_on,1,0,10,,,,,,,,5,,,60,48
37440,note_on,1,0,12,,,,,,,,7,,,60,48
37559,note_on,119,0,11,,,,,,,,6,,,60,0
37559,note_on,119,0,12,,,,,,,,7,,,60,0
37559,end_of_track,0,1,12,,,,,,,,,,,,
37559,note_on,119,0,14,,,,,,,,10,,,76,0
37559,note_on,119,0,9,,,,,,,,4,,,76,0
37559,note_on,119,0,16,,,,,,,,12,,,60,0
37559,note_on,119,0,10,,,,,,,,5,,,60,0
37560,note_on,2221,0,13,,,,,,,,8,,,36,72
37560,note_on,1,0,9,,,,,,,,4,,,60,72
37560,note_on,1,0,10,,,,,,,,5,,,60,72
37560,note_on,1,0,11,,,,,,,,6,,,48,72
37619,note_on,59,0,11,,,,,,,,6,,,48,0
37619,note_on,59,0,13,,,,,,,,8,,,36,0
37619,note_on,59,0,10,,,,,,,,5,,,60,0
37619,note_on,59,0,9,,,,,,,,4,,,60,0
37620,note_on,1,0,11,,,,,,,,6,,,52,72
37620,note_on,1,0,13,,,,,,,,8,,,40,72
37620,note_on,1,0,10,,,,,,,,5,,,64,72
37620,note_on,1,0,9,,,,,,,,4,,,64,72
37649,note_on,29,0,9,,,,,,,,4,,,64,0
37649,note_on,29,0,13,,,,,,,,8,,,40,0
37649,note_on,29,0,10,,,,,,,,5,,,64,0
37649,note_on,29,0,11,,,,,,,,6,,,52,0
37650,note_on,1,0,11,,,,,,,,6,,,55,72
37650,note_on,1,0,10,,,,,,,,5,,,67,72
37650,note_on,1,0,13,,,,,,,,8,,,43,72
37650,note_on,1,0,9,,,,,,,,4,,,67,72
37679,note_on,29,0,11,,,,,,,,6,,,55,0
37679,note_on,29,0,9,,,,,,,,4,,,67,0
37679,note_on,29,0,13,,,,,,,,8,,,43,0
37679,note_on,29,0,10,,,,,,,,5,,,67,0
37680,note_on,1,0,11,,,,,,,,6,,,60,72
37680,note_on,1,0,13,,,,,,,,8,,,48,72
37680,note_on,1,0,9,,,,,,,,4,,,72,72
37680,note_on,1,0,10,,,,,,,,5,,,72,72
37739,note_on,59,0,11,,,,,,,,6,,,60,0
37739,note_on,59,0,10,,,,,,,,5,,,72,0
37739,note_on,59,0,9,,,,,,,,4,,,72,0
37739,note_on,59,0,13,,,,,,,,8,,,48,0
37740,note_on,1,0,9,,,,,,,,4,,,72,72
37740,note_on,1,0,11,,,,,,,,6,,,60,72
37740,note_on,1,0,13,,,,,,,,8,,,48,72
37740,note_on,1,0,10,,,,,,,,5,,,72,72
37799,note_on,59,0,10,,,,,,,,5,,,72,0
37799,note_on,59,0,9,,,,,,,,4,,,72,0
37799,note_on,59,0,11,,,,,,,,6,,,60,0
37799,note_on,59,0,13,,,,,,,,8,,,48,0
37800,note_on,1,0,9,,,,,,,,4,,,59,72
37800,note_on,1,0,13,,,,,,,,8,,,35,72
37800,note_on,1,0,11,,,,,,,,6,,,59,72
37800,note_on,1,0,10,,,,,,,,5,,,59,72
37919,note_on,119,0,11,,,,,,,,6,,,59,0
37919,note_on,119,0,13,,,,,,,,8,,,35,0
37919,note_on,119,0,10,,,,,,,,5,,,59,0
37919,note_on,119,0,9,,,,,,,,4,,,59,0
37920,note_on,361,0,14,,,,,,,,10,,,74,60
37920,note_on,2521,0,15,,,,,,,,11,,,68,60
37920,note_on,8761,0,8,,,,,,,,1,,,59,75
37920,note_on,2521,0,5,,,,,,,,0,,,74,75
37920,note_on,2521,0,6,,,,,,,,0,,,68,75
37920,note_on,8761,0,7,,,,,,,,1,,,65,75
37920,note_on,361,0,16,,,,,,,,12,,,65,60
37920,note_on,2521,0,17,,,,,,,,13,,,59,60
38099,note_on,179,0,16,,,,,,,,12,,,65,0
38099,note_on,179,0,14,,,,,,,,10,,,74,0
38099,note_on,179,0,15,,,,,,,,11,,,68,0
38099,note_on,179,0,17,,,,,,,,13,,,59,0
38100,note_on,1,0,14,,,,,,,,10,,,74,60
38100,note_on,1,0,15,,,,,,,,11,,,68,60
38100,note_on,1,0,16,,,,,,,,12,,,65,60
38100,note_on,1,0,17,,,,,,,,13,,,59,60
38159,note_on,59,0,17,,,,,,,,13,,,59,0
38159,note_on,59,0,15,,,,,,,,11,,,68,0
38159,note_on,239,0,7,,,,,,,,1,,,65,0
38159,note_on,239,0,5,,,,,,,,0,,,74,0
38159,note_on,239,0,6,,,,,,,,0,,,68,0
38159,note_on,59,0,14,,,,,,,,10,,,74,0
38159,note_on,59,0,16,,,,,,,,12,,,65,0
38159,note_on,239,0,8,,,,,,,,1,,,59,0
38160,note_on,1,0,7,,,,,,,,1,,,65,72
38160,note_on,1,0,17,,,,,,,,13,,,60,60
38160,note_on,1,0,14,,,,,,,,10,,,72,60
38160,note_on,1,0,8,,,,,,,,1,,,60,72
38160,note_on,1,0,15,,,,,,,,11,,,67,60
38160,note_on,1,0,16,,,,,,,,12,,,65,60
38160,note_on,1,0,5,,,,,,,,0,,,72,72
38160,note_on,1,0,6,,,,,,,,0,,,67,72
38279,note_on,119,0,8,,,,,,,,1,,,60,0
38279,note_on,119,0,17,,,,,,,,13,,,60,0
38279,note_on,119,0,15,,,,,,,,11,,,67,0
38279,note_on,119,0,14,,,,,,,,10,,,72,0
38279,note_on,119,0,16,,,,,,,,12,,,65,0
38279,note_on,119,0,6,,,,,,,,0,,,67,0
38279,note_on,119,0,5,,,,,,,,0,,,72,0
38279,note_on,119,0,7,,,,,,,,1,,,65,0
38280,note_on,1,0,6,,,,,,,,0,,,67,72
38280,note_on,1,0,5,,,,,,,,0,,,72,72
38280,note_on,361,0,10,,,,,,,,5,,,60,72
38280,note_on,1,0,16,,,,,,,,12,,,64,60
38280,note_on,1,0,17,,,,,,,,13,,,48,60
38280,note_on,361,0,13,,,,,,,,8,,,36,72
38280,note_on,361,0,11,,,,,,,,6,,,48,72
38280,note_on,1,0,15,,,,,,,,11,,,67,60
38280,note_on,361,0,9,,,,,,,,4,,,60,72
38280,note_on,1,0,14,,,,,,,,10,,,72,60
38280,note_on,1,0,8,,,,,,,,1,,,48,72
38280,note_on,1,0,7,,,,,,,,1,,,64,72
38339,note_on,59,0,9,,,,,,,,4,,,60,0
38339,note_on,59,0,10,,,,,,,,5,,,60,0
38339,note_on,59,0,11,,,,,,,,6,,,48,0
38339,note_on,59,0,13,,,,,,,,8,,,36,0
38340,note_on,1,0,13,,,,,,,,8,,,40,72
38340,note_on,1,0,11,,,,,,,,6,,,52,72
38340,note_on,1,0,9,,,,,,,,4,,,64,72
38340,note_on,1,0,10,,,,,,,,5,,,64,72
38369,note_on,29,0,11,,,,,,,,6,,,52,0
38369,note_on,29,0,9,,,,,,,,4,,,64,0
38369,note_on,29,0,13,,,,,,,,8,,,40,0
38369,note_on,29,0,10,,,,,,,,5,,,64,0
38370,note_on,1,0,11,,,,,,,,6,,,55,72
38370,note_on,1,0,10,,,,,,,,5,,,67,72
38370,note_on,1,0,13,,,,,,,,8,,,43,72
38370,note_on,1,0,9,,,,,,,,4,,,67,72
38399,note_on,119,0,8,,,,,,,,1,,,48,0
38399,note_on,119,0,17,,,,,,,,13,,,48,0
38399,note_on,119,0,14,,,,,,,,10,,,72,0
38399,note_on,29,0,9,,,,,,,,4,,,67,0
38399,note_on,119,0,16,,,,,,,,12,,,64,0
38399,note_on,119,0,15,,,,,,,,11,,,67,0
38399,note_on,29,0,11,,,,,,,,6,,,55,0
38399,note_on,119,0,5,,,,,,,,0,,,72,0
38399,note_on,29,0,13,,,,,,,,8,,,43,0
38399,note_on,119,0,7,,,,,,,,1,,,64,0
38399,note_on,29,0,10,,,,,,,,5,,,67,0
38399,note_on,119,0,6,,,,,,,,0,,,67,0
38400,note_on,1,0,11,,,,,,,,6,,,60,72
38400,note_on,1,0,9,,,,,,,,4,,,72,72
38400,note_on,1,0,13,,,,,,,,8,,,48,72
38400,note_on,1,0,10,,,,,,,,5,,,72,72
38459,note_on,59,0,11,,,,,,,,6,,,60,0
38459,note_on,59,0,9,,,,,,,,4,,,72,0
38459,note_on,59,0,13,,,,,,,,8,,,48,0
38459,note_on,59,0,10,,,,,,,,5,,,72,0
38460,note_on,1,0,9,,,,,,,,4,,,72,72
38460,note_on,1,0,10,,,,,,,,5,,,72,72
38460,note_on,1,0,11,,,,,,,,6,,,60,72
38460,note_on,1,0,13,,,,,,,,8,,,48,72
38519,note_on,59,0,11,,,,,,,,6,,,60,0
38519,note_on,59,0,13,,,,,,,,8,,,48,0
38519,note_on,59,0,10,,,,,,,,5,,,72,0
38519,note_on,59,0,9,,,,,,,,4,,,72,0
38520,note_on,1,0,11,,,,,,,,6,,,49,72
38520,note_on,1,0,10,,,,,,,,5,,,61,72
38520,note_on,1,0,13,,,,,,,,8,,,37,72
38520,note_on,1,0,9,,,,,,,,4,,,61,72
38639,note_on,119,0,11,,,,,,,,6,,,49,0
38639,note_on,119,0,10,,,,,,,,5,,,61,0
38639,note_on,119,0,13,,,,,,,,8,,,37,0
38639,note_on,119,0,9,,,,,,,,4,,,61,0
38640,note_on,241,0,14,,,,,,,,10,,,80,60
38640,note_on,241,0,7,,,,,,,,1,,,65,75
38640,note_on,241,0,15,,,,,,,,11,,,71,60
38640,note_on,241,0,8,,,,,,,,1,,,61,75
38640,note_on,241,0,5,,,,,,,,0,,,77,75
38640,note_on,241,0,6,,,,,,,,0,,,71,75
38640,note_on,241,0,16,,,,,,,,12,,,65,60
38640,note_on,241,0,17,,,,,,,,13,,,61,60
38819,note_on,179,0,17,,,,,,,,13,,,61,0
38819,note_on,179,0,14,,,,,,,,10,,,80,0
38819,note_on,179,0,15,,,,,,,,11,,,71,0
38819,note_on,179,0,16,,,,,,,,12,,,65,0
38820,note_on,1,0,15,,,,,,,,11,,,71,60
38820,note_on,1,0,17,,,,,,,,13,,,61,60
38820,note_on,1,0,14,,,,,,,,10,,,77,60
38820,note_on,1,0,16,,,,,,,,12,,,65,60
38879,note_on,59,0,15,,,,,,,,11,,,71,0
38879,note_on,239,0,6,,,,,,,,0,,,71,0
38879,note_on,239,0,5,,,,,,,,0,,,77,0
38879,note_on,59,0,16,,,,,,,,12,,,65,0
38879,note_on,239,0,8,,,,,,,,1,,,61,0
38879,note_on,59,0,17,,,,,,,,13,,,61,0
38879,note_on,239,0,7,,,,,,,,1,,,65,0
38879,note_on,59,0,14,,,,,,,,10,,,77,0
38880,note_on,1,0,8,,,,,,,,1,,,60,72
38880,note_on,1,0,15,,,,,,,,11,,,72,60
38880,note_on,1,0,6,,,,,,,,0,,,72,72
38880,note_on,1,0,7,,,,,,,,1,,,67,72
38880,note_on,1,0,5,,,,,,,,0,,,76,72
38880,note_on,1,0,16,,,,,,,,12,,,67,60
38880,note_on,1,0,17,,,,,,,,13,,,60,60
38880,note_on,1,0,14,,,,,,,,10,,,76,60
38999,note_on,119,0,17,,,,,,,,13,,,60,0
38999,note_on,119,0,8,,,,,,,,1,,,60,0
38999,note_on,119,0,14,,,,,,,,10,,,76,0
38999,note_on,119,0,15,,,,,,,,11,,,72,0
38999,note_on,119,0,6,,,,,,,,0,,,72,0
38999,note_on,119,0,16,,,,,,,,12,,,67,0
38999,note_on,119,0,5,,,,,,,,0,,,76,0
38999,note_on,119,0,7,,,,,,,,1,,,67,0
39000,note_on,1,0,5,,,,,,,,0,,,72,72
39000,note_on,1,0,8,,,,,,,,1,,,48,72
39000,note_on,1,0,7,,,,,,,,1,,,64,72
39000,note_on,1,0,14,,,,,,,,10,,,72,60
39000,note_on,1,0,6,,,,,,,,0,,,67,72
39000,note_on,361,0,10,,,,,,,,5,,,60,48
39000,note_on,1,0,15,,,,,,,,11,,,67,60
39000,note_on,1,0,16,,,,,,,,12,,,64,60
39000,note_on,361,0,9,,,,,,,,4,,,72,48
39000,note_on,1,0,17,,,,,,,,13,,,48,60
39059,note_on,59,0,9,,,,,,,,4,,,72,0
39059,note_on,59,0,10,,,,,,,,5,,,60,0
39060,note_on,1,0,9,,,,,,,,4,,,76,48
39060,note_on,1,0,10,,,,,,,,5,,,64,48
39089,note_on,29,0,9,,,,,,,,4,,,76,0
39089,note_on,29,0,10,,,,,,,,5,,,64,0
39090,note_on,1,0,9,,,,,,,,4,,,79,48
39090,note_on,1,0,10,,,,,,,,5,,,67,48
39119,note_on,29,0,9,,,,,,,,4,,,79,0
39119,note_on,119,0,14,,,,,,,,10,,,72,0
39119,note_on,29,0,10,,,,,,,,5,,,67,0
39119,note_on,119,0,16,,,,,,,,12,,,64,0
39119,note_on,119,0,5,,,,,,,,0,,,72,0
39119,note_on,119,0,7,,,,,,,,1,,,64,0
39119,note_on,119,0,15,,,,,,,,11,,,67,0
39119,note_on,119,0,8,,,,,,,,1,,,48,0
39119,note_on,119,0,17,,,,,,,,13,,,48,0
39119,note_on,119,0,6,,,,,,,,0,,,67,0
39120,note_on,1,0,10,,,,,,,,5,,,72,48
39120,note_on,1,0,9,,,,,,,,4,,,84,48
39179,note_on,59,0,9,,,,,,,,4,,,84,0
39179,note_on,59,0,10,,,,,,,,5,,,72,0
39180,note_on,1,0,10,,,,,,,,5,,,72,48
39180,note_on,1,0,9,,,,,,,,4,,,84,48
39239,note_on,59,0,9,,,,,,,,4,,,84,0
39239,note_on,59,0,10,,,,,,,,5,,,72,0
39240,note_on,601,0,13,,,,,,,,8,,,36,48
39240,note_on,1,0,9,,,,,,,,4,,,84,48
39240,note_on,1,0,10,,,,,,,,5,,,72,48
39299,note_on,59,0,13,,,,,,,,8,,,36,0
39300,note_on,1,0,13,,,,,,,,8,,,36,48
39359,note_on,59,0,13,,,,,,,,8,,,36,0
39359,note_on,119,0,10,,,,,,,,5,,,72,0
39359,note_on,119,0,9,,,,,,,,4,,,84,0
39360,note_on,241,0,17,,,,,,,,13,,,48,60
39360,note_on,1,0,13,,,,,,,,8,,,36,48
39419,note_on,59,0,13,,,,,,,,8,,,36,0
39420,note_on,1,0,13,,,,,,,,8,,,36,48
39479,note_on,119,0,17,,,,,,,,13,,,48,0
39479,note_on,59,0,13,,,,,,,,8,,,36,0
39480,note_on,1,0,17,,,,,,,,13,,,48,60
39480,note_on,1,0,13,,,,,,,,8,,,36,48
39539,note_on,59,0,13,,,,,,,,8,,,36,0
39540,note_on,1,0,13,,,,,,,,8,,,36,48
39599,note_on,119,0,17,,,,,,,,13,,,48,0
39599,note_on,59,0,13,,,,,,,,8,,,36,0
39600,note_on,1,0,17,,,,,,,,13,,,49,60
39600,note_on,1,0,13,,,,,,,,8,,,37,48
39659,note_on,59,0,13,,,,,,,,8,,,37,0
39660,note_on,1,0,13,,,,,,,,8,,,37,48
39719,note_on,59,0,13,,,,,,,,8,,,37,0
39720,note_on,601,0,15,,,,,,,,11,,,64,60
39720,note_on,1081,0,11,,,,,,,,6,,,58,48
39720,note_on,361,0,10,,,,,,,,5,,,64,48
39720,note_on,1,0,13,,,,,,,,8,,,37,48
39720,note_on,601,0,16,,,,,,,,12,,,58,60
39720,note_on,361,0,9,,,,,,,,4,,,67,48
39720,note_on,601,0,14,,,,,,,,10,,,67,60
39779,note_on,59,0,13,,,,,,,,8,,,37,0
39780,note_on,1,0,13,,,,,,,,8,,,37,48
39839,note_on,119,0,16,,,,,,,,12,,,58,0
39839,note_on,59,0,13,,,,,,,,8,,,37,0
39839,note_on,119,0,15,,,,,,,,11,,,64,0
39839,note_on,119,0,14,,,,,,,,10,,,67,0
39839,note_on,119,0,11,,,,,,,,6,,,58,0
39839,note_on,119,0,10,,,,,,,,5,,,64,0
39839,note_on,119,0,9,,,,,,,,4,,,67,0
39839,note_on,239,0,17,,,,,,,,13,,,49,0
39840,note_on,1,0,11,,,,,,,,6,,,60,48
39840,note_on,1,0,16,,,,,,,,12,,,60,60
39840,note_on,1,0,14,,,,,,,,10,,,67,60
39840,note_on,1,0,15,,,,,,,,11,,,64,60
39840,note_on,1,0,10,,,,,,,,5,,,64,48
39840,note_on,1,0,17,,,,,,,,13,,,48,60
39840,note_on,1,0,13,,,,,,,,8,,,36,48
39840,note_on,1,0,9,,,,,,,,4,,,67,48
39899,note_on,59,0,13,,,,,,,,8,,,36,0
39900,note_on,1,0,13,,,,,,,,8,,,36,48
39959,note_on,119,0,15,,,,,,,,11,,,64,0
39959,note_on,119,0,10,,,,,,,,5,,,64,0
39959,note_on,119,0,11,,,,,,,,6,,,60,0
39959,note_on,119,0,17,,,,,,,,13,,,48,0
39959,note_on,119,0,14,,,,,,,,10,,,67,0
39959,note_on,119,0,16,,,,,,,,12,,,60,0
39959,note_on,119,0,9,,,,,,,,4,,,67,0
39959,note_on,59,0,13,,,,,,,,8,,,36,0
39960,note_on,1,0,10,,,,,,,,5,,,64,48
39960,note_on,1,0,16,,,,,,,,12,,,61,60
39960,note_on,1,0,15,,,,,,,,11,,,64,60
39960,note_on,1,0,11,,,,,,,,6,,,61,48
39960,note_on,1,0,9,,,,,,,,4,,,67,48
39960,note_on,1,0,14,,,,,,,,10,,,67,60
39960,note_on,1,0,13,,,,,,,,8,,,34,48
40019,note_on,59,0,13,,,,,,,,8,,,34,0
40020,note_on,1,0,13,,,,,,,,8,,,34,48
40079,note_on,59,0,13,,,,,,,,8,,,34,0
40080,note_on,1,0,13,,,,,,,,8,,,34,48
40080,note_on,121,0,17,,,,,,,,13,,,46,60
40139,note_on,179,0,14,,,,,,,,10,,,67,0
40139,note_on,59,0,13,,,,,,,,8,,,34,0
40139,note_on,179,0,10,,,,,,,,5,,,64,0
40139,note_on,179,0,15,,,,,,,,11,,,64,0
40139,note_on,179,0,9,,,,,,,,4,,,67,0
40140,note_on,1,0,14,,,,,,,,10,,,70,60
40140,note_on,1,0,15,,,,,,,,11,,,67,60
40140,note_on,1,0,10,,,,,,,,5,,,67,48
40140,note_on,1,0,13,,,,,,,,8,,,34,48
40140,note_on,1,0,9,,,,,,,,4,,,70,48
40169,note_on,29,0,15,,,,,,,,11,,,67,0
40169,note_on,29,0,10,,,,,,,,5,,,67,0
40169,note_on,29,0,14,,,,,,,,10,,,70,0
40169,note_on,29,0,9,,,,,,,,4,,,70,0
40170,note_on,1,0,9,,,,,,,,4,,,68,48
40170,note_on,1,0,15,,,,,,,,11,,,65,60
40170,note_on,1,0,14,,,,,,,,10,,,68,60
40170,note_on,1,0,10,,,,,,,,5,,,65,48
40199,note_on,29,0,9,,,,,,,,4,,,68,0
40199,note_on,29,0,14,,,,,,,,10,,,68,0
40199,note_on,59,0,13,,,,,,,,8,,,34,0
40199,note_on,119,0,17,,,,,,,,13,,,46,0
40199,note_on,239,0,11,,,,,,,,6,,,61,0
40199,note_on,29,0,15,,,,,,,,11,,,65,0
40199,note_on,29,0,10,,,,,,,,5,,,65,0
40199,note_on,239,0,16,,,,,,,,12,,,61,0
40200,note_on,1,0,16,,,,,,,,12,,,55,60
40200,note_on,1,0,14,,,,,,,,10,,,67,60
40200,note_on,1,0,15,,,,,,,,11,,,64,60
40200,note_on,1,0,10,,,,,,,,5,,,64,48
40200,note_on,1,0,11,,,,,,,,6,,,55,48
40200,note_on,1,0,13,,,,,,,,8,,,36,48
40200,note_on,1,0,17,,,,,,,,13,,,48,60
40200,note_on,1,0,9,,,,,,,,4,,,67,48
40259,note_on,59,0,13,,,,,,,,8,,,36,0
40260,note_on,1,0,13,,,,,,,,8,,,36,48
40319,note_on,119,0,9,,,,,,,,4,,,67,0
40319,note_on,119,0,15,,,,,,,,11,,,64,0
40319,note_on,59,0,13,,,,,,,,8,,,36,0
40319,note_on,119,0,17,,,,,,,,13,,,48,0
40319,note_on,119,0,10,,,,,,,,5,,,64,0
40319,note_on,119,0,16,,,,,,,,12,,,55,0
40319,note_on,119,0,14,,,,,,,,10,,,67,0
40319,note_on,119,0,11,,,,,,,,6,,,55,0
40320,note_on,1,0,13,,,,,,,,8,,,37,48
40320,note_on,1,0,17,,,,,,,,13,,,49,60
40379,note_on,59,0,13,,,,,,,,8,,,37,0
40380,note_on,1,0,13,,,,,,,,8,,,37,48
40439,note_on,59,0,13,,,,,,,,8,,,37,0
40440,note_on,121,0,11,,,,,,,,6,,,58,48
40440,note_on,1,0,13,,,,,,,,8,,,37,48
40440,note_on,121,0,10,,,,,,,,5,,,64,48
40440,note_on,121,0,9,,,,,,,,4,,,67,48
40440,note_on,121,0,16,,,,,,,,12,,,58,60
40440,note_on,121,0,14,,,,,,,,10,,,67,60
40440,note_on,121,0,15,,,,,,,,11,,,64,60
40499,note_on,59,0,13,,,,,,,,8,,,37,0
40500,note_on,1,0,13,,,,,,,,8,,,37,48
40559,note_on,59,0,13,,,,,,,,8,,,37,0
40559,note_on,119,0,11,,,,,,,,6,,,58,0
40559,note_on,119,0,10,,,,,,,,5,,,64,0
40559,note_on,119,0,15,,,,,,,,11,,,64,0
40559,note_on,239,0,17,,,,,,,,13,,,49,0
40559,note_on,119,0,9,,,,,,,,4,,,67,0
40559,note_on,119,0,14,,,,,,,,10,,,67,0
40559,note_on,119,0,16,,,,,,,,12,,,58,0
40560,note_on,1,0,11,,,,,,,,6,,,60,48
40560,note_on,1,0,9,,,,,,,,4,,,67,48
40560,note_on,1,0,15,,,,,,,,11,,,64,60
40560,note_on,1,0,13,,,,,,,,8,,,36,48
40560,note_on,1,0,14,,,,,,,,10,,,67,60
40560,note_on,1,0,16,,,,,,,,12,,,60,60
40560,note_on,1,0,17,,,,,,,,13,,,48,60
40560,note_on,1,0,10,,,,,,,,5,,,64,48
40619,note_on,59,0,13,,,,,,,,8,,,36,0
40620,note_on,1,0,13,,,,,,,,8,,,36,48
40679,note_on,119,0,11,,,,,,,,6,,,60,0
40679,note_on,119,0,17,,,,,,,,13,,,48,0
40679,note_on,59,0,13,,,,,,,,8,,,36,0
40679,note_on,119,0,16,,,,,,,,12,,,60,0
40679,note_on,119,0,14,,,,,,,,10,,,67,0
40679,note_on,119,0,9,,,,,,,,4,,,67,0
40679,note_on,119,0,10,,,,,,,,5,,,64,0
40679,note_on,119,0,15,,,,,,,,11,,,64,0
40680,note_on,1,0,11,,,,,,,,6,,,62,48
40680,note_on,1,0,16,,,,,,,,12,,,62,60
40680,note_on,1,0,14,,,,,,,,10,,,67,60
40680,note_on,1,0,13,,,,,,,,8,,,35,48
40680,note_on,1,0,9,,,,,,,,4,,,67,48
40680,note_on,1,0,15,,,,,,,,11,,,65,60
40680,note_on,1,0,10,,,,,,,,5,,,65,48
40739,note_on,59,0,13,,,,,,,,8,,,35,0
40740,note_on,1,0,13,,,,,,,,8,,,35,48
40799,note_on,59,0,13,,,,,,,,8,,,35,0
40800,note_on,1,0,13,,,,,,,,8,,,35,48
40800,note_on,121,0,17,,,,,,,,13,,,47,60
40859,note_on,179,0,14,,,,,,,,10,,,67,0
40859,note_on,59,0,13,,,,,,,,8,,,35,0
40859,note_on,179,0,9,,,,,,,,4,,,67,0
40860,note_on,1,0,13,,,,,,,,8,,,35,48
40860,note_on,1,0,9,,,,,,,,4,,,70,48
40860,note_on,1,0,14,,,,,,,,10,,,70,60
40889,note_on,29,0,14,,,,,,,,10,,,70,0
40889,note_on,29,0,9,,,,,,,,4,,,70,0
40890,note_on,1,0,14,,,,,,,,10,,,68,60
40890,note_on,1,0,9,,,,,,,,4,,,68,48
40919,note_on,239,0,15,,,,,,,,11,,,65,0
40919,note_on,239,0,16,,,,,,,,12,,,62,0
40919,note_on,59,0,13,,,,,,,,8,,,35,0
40919,note_on,29,0,14,,,,,,,,10,,,68,0
40919,note_on,119,0,17,,,,,,,,13,,,47,0
40919,note_on,239,0,10,,,,,,,,5,,,65,0
40919,note_on,239,0,11,,,,,,,,6,,,62,0
40919,note_on,29,0,9,,,,,,,,4,,,68,0
40920,note_on,1,0,9,,,,,,,,4,,,67,48
40920,note_on,1,0,13,,,,,,,,8,,,36,48
40920,note_on,1,0,14,,,,,,,,10,,,67,60
40920,note_on,1,0,11,,,,,,,,6,,,55,48
40920,note_on,1,0,10,,,,,,,,5,,,65,48
40920,note_on,1,0,17,,,,,,,,13,,,48,60
40920,note_on,1,0,16,,,,,,,,12,,,55,60
40920,note_on,1,0,15,,,,,,,,11,,,65,60
40979,note_on,59,0,13,,,,,,,,8,,,36,0
40980,note_on,1,0,13,,,,,,,,8,,,36,48
41039,note_on,119,0,17,,,,,,,,13,,,48,0
41039,note_on,119,0,11,,,,,,,,6,,,55,0
41039,note_on,119,0,9,,,,,,,,4,,,67,0
41039,note_on,119,0,10,,,,,,,,5,,,65,0
41039,note_on,59,0,13,,,,,,,,8,,,36,0
41039,note_on,119,0,14,,,,,,,,10,,,67,0
41039,note_on,119,0,15,,,,,,,,11,,,65,0
41039,note_on,119,0,16,,,,,,,,12,,,55,0
41040,note_on,1921,0,7,,,,,,,,1,,,58,48
41040,note_on,1,0,15,,,,,,,,11,,,65,60
41040,note_on,1921,0,8,,,,,,,,1,,,49,48
41040,note_on,1,0,10,,,,,,,,5,,,65,48
41040,note_on,1,0,11,,,,,,,,6,,,58,48
41040,note_on,1,0,17,,,,,,,,13,,,49,60
41040,note_on,1,0,13,,,,,,,,8,,,37,48
41040,note_on,1,0,16,,,,,,,,12,,,58,60
41099,note_on,59,0,13,,,,,,,,8,,,37,0
41100,note_on,1,0,13,,,,,,,,8,,,37,48
41159,note_on,119,0,17,,,,,,,,13,,,49,0
41159,note_on,119,0,15,,,,,,,,11,,,65,0
41159,note_on,59,0,13,,,,,,,,8,,,37,0
41159,note_on,119,0,10,,,,,,,,5,,,65,0
41159,note_on,119,0,8,,,,,,,,1,,,49,0
41160,note_on,2041,0,5,,,,,,,,0,,,67,48
41160,note_on,121,0,9,,,,,,,,4,,,67,48
41160,note_on,1,0,15,,,,,,,,11,,,64,60
41160,note_on,2041,0,6,,,,,,,,0,,,64,48
41160,note_on,1,0,17,,,,,,,,13,,,48,60
41160,note_on,1,0,13,,,,,,,,8,,,36,48
41160,note_on,121,0,14,,,,,,,,10,,,67,60
41160,note_on,1,0,10,,,,,,,,5,,,64,48
41160,note_on,1,0,8,,,,,,,,1,,,48,48
41219,note_on,59,0,13,,,,,,,,8,,,36,0
41219,note_on,179,0,7,,,,,,,,1,,,58,0
41219,note_on,179,0,11,,,,,,,,6,,,58,0
41219,note_on,179,0,16,,,,,,,,12,,,58,0
41220,note_on,1,0,16,,,,,,,,12,,,60,60
41220,note_on,1,0,7,,,,,,,,1,,,60,48
41220,note_on,1,0,13,,,,,,,,8,,,36,48
41220,note_on,1,0,11,,,,,,,,6,,,60,48
41279,note_on,119,0,8,,,,,,,,1,,,48,0
41279,note_on,59,0,11,,,,,,,,6,,,60,0
41279,note_on,119,0,5,,,,,,,,0,,,67,0
41279,note_on,59,0,7,,,,,,,,1,,,60,0
41279,note_on,119,0,9,,,,,,,,4,,,67,0
41279,note_on,119,0,15,,,,,,,,11,,,64,0
41279,note_on,119,0,10,,,,,,,,5,,,64,0
41279,note_on,119,0,14,,,,,,,,10,,,67,0
41279,note_on,119,0,17,,,,,,,,13,,,48,0
41279,note_on,59,0,13,,,,,,,,8,,,36,0
41279,note_on,59,0,16,,,,,,,,12,,,60,0
41279,note_on,119,0,6,,,,,,,,0,,,64,0
41280,note_on,1,0,16,,,,,,,,12,,,61,60
41280,note_on,1,0,8,,,,,,,,1,,,46,48
41280,note_on,1,0,5,,,,,,,,0,,,67,48
41280,note_on,1,0,11,,,,,,,,6,,,61,48
41280,note_on,1,0,17,,,,,,,,13,,,46,60
41280,note_on,1,0,7,,,,,,,,1,,,61,48
41280,note_on,1,0,6,,,,,,,,0,,,64,48
41280,note_on,1,0,15,,,,,,,,11,,,64,60
41280,note_on,1,0,9,,,,,,,,4,,,67,48
41280,note_on,1,0,14,,,,,,,,10,,,67,60
41280,note_on,1,0,10,,,,,,,,5,,,64,48
41280,note_on,1,0,13,,,,,,,,8,,,34,48
41339,note_on,59,0,13,,,,,,,,8,,,34,0
41340,note_on,1,0,13,,,,,,,,8,,,34,48
41399,note_on,119,0,14,,,,,,,,10,,,67,0
41399,note_on,119,0,17,,,,,,,,13,,,46,0
41399,note_on,119,0,8,,,,,,,,1,,,46,0
41399,note_on,119,0,10,,,,,,,,5,,,64,0
41399,note_on,119,0,15,,,,,,,,11,,,64,0
41399,note_on,119,0,7,,,,,,,,1,,,61,0
41399,note_on,119,0,5,,,,,,,,0,,,67,0
41399,note_on,119,0,6,,,,,,,,0,,,64,0
41399,note_on,119,0,11,,,,,,,,6,,,61,0
41399,note_on,119,0,9,,,,,,,,4,,,67,0
41399,note_on,59,0,13,,,,,,,,8,,,34,0
41399,note_on,119,0,16,,,,,,,,12,,,61,0
41400,note_on,1,0,11,,,,,,,,6,,,60,48
41400,note_on,1,0,15,,,,,,,,11,,,65,60
41400,note_on,1,0,16,,,,,,,,12,,,60,60
41400,note_on,1,0,9,,,,,,,,4,,,72,48
41400,note_on,1,0,7,,,,,,,,1,,,60,48
41400,note_on,1,0,10,,,,,,,,5,,,65,48
41400,note_on,1,0,6,,,,,,,,0,,,65,48
41400,note_on,1,0,14,,,,,,,,10,,,72,60
41400,note_on,1,0,5,,,,,,,,0,,,72,48
41400,note_on,1,0,17,,,,,,,,13,,,45,60
41400,note_on,1,0,8,,,,,,,,1,,,45,48
41400,note_on,1,0,13,,,,,,,,8,,,33,48
41459,note_on,59,0,13,,,,,,,,8,,,33,0
41459,note_on,59,0,10,,,,,,,,5,,,65,0
41459,note_on,59,0,11,,,,,,,,6,,,60,0
41459,note_on,59,0,9,,,,,,,,4,,,72,0
41460,note_on,1,0,9,,,,,,,,4,,,72,48
41460,note_on,1,0,13,,,,,,,,8,,,33,48
41460,note_on,1,0,10,,,,,,,,5,,,65,48
41460,note_on,1,0,11,,,,,,,,6,,,60,48
41519,note_on,119,0,8,,,,,,,,1,,,45,0
41519,note_on,59,0,9,,,,,,,,4,,,72,0
41519,note_on,119,0,15,,,,,,,,11,,,65,0
41519,note_on,119,0,17,,,,,,,,13,,,45,0
41519,note_on,119,0,14,,,,,,,,10,,,72,0
41519,note_on,119,0,7,,,,,,,,1,,,60,0
41519,note_on,59,0,11,,,,,,,,6,,,60,0
41519,note_on,119,0,6,,,,,,,,0,,,65,0
41519,note_on,119,0,16,,,,,,,,12,,,60,0
41519,note_on,59,0,13,,,,,,,,8,,,33,0
41519,note_on,119,0,5,,,,,,,,0,,,72,0
41519,note_on,59,0,10,,,,,,,,5,,,65,0
41520,note_on,1,0,16,,,,,,,,12,,,55,60
41520,note_on,1,0,13,,,,,,,,8,,,37,48
41520,note_on,1,0,17,,,,,,,,13,,,49,60
41520,note_on,1,0,9,,,,,,,,4,,,64,48
41520,note_on,1,0,5,,,,,,,,0,,,64,48
41520,note_on,1,0,6,,,,,,,,0,,,58,48
41520,note_on,1,0,15,,,,,,,,11,,,58,60
41520,note_on,1,0,11,,,,,,,,6,,,55,48
41520,note_on,1,0,14,,,,,,,,10,,,64,60
41520,note_on,1,0,7,,,,,,,,1,,,55,48
41520,note_on,1,0,8,,,,,,,,1,,,49,48
41520,note_on,1,0,10,,,,,,,,5,,,58,48
41579,note_on,59,0,11,,,,,,,,6,,,55,0
41579,note_on,59,0,10,,,,,,,,5,,,58,0
41579,note_on,59,0,13,,,,,,,,8,,,37,0
41579,note_on,59,0,9,,,,,,,,4,,,64,0
41580,note_on,1,0,11,,,,,,,,6,,,55,48
41580,note_on,1,0,10,,,,,,,,5,,,58,48
41580,note_on,1,0,13,,,,,,,,8,,,37,48
41580,note_on,1,0,9,,,,,,,,4,,,64,48
41639,note_on,119,0,17,,,,,,,,13,,,49,0
41639,note_on,59,0,9,,,,,,,,4,,,64,0
41639,note_on,119,0,7,,,,,,,,1,,,55,0
41639,note_on,59,0,10,,,,,,,,5,,,58,0
41639,note_on,59,0,13,,,,,,,,8,,,37,0
41639,note_on,119,0,14,,,,,,,,10,,,64,0
41639,note_on,119,0,5,,,,,,,,0,,,64,0
41639,note_on,59,0,11,,,,,,,,6,,,55,0
41639,note_on,119,0,8,,,,,,,,1,,,49,0
41639,note_on,119,0,6,,,,,,,,0,,,58,0
41639,note_on,119,0,15,,,,,,,,11,,,58,0
41639,note_on,119,0,16,,,,,,,,12,,,55,0
41640,note_on,1,0,14,,,,,,,,10,,,65,60
41640,note_on,1,0,10,,,,,,,,5,,,57,48
41640,note_on,1,0,6,,,,,,,,0,,,57,48
41640,note_on,1,0,15,,,,,,,,11,,,57,60
41640,note_on,1,0,9,,,,,,,,4,,,65,48
41640,note_on,1,0,7,,,,,,,,1,,,53,48
41640,note_on,1,0,8,,,,,,,,1,,,50,48
41640,note_on,1,0,11,,,,,,,,6,,,53,48
41640,note_on,1,0,5,,,,,,,,0,,,65,48
41640,note_on,1,0,16,,,,,,,,12,,,53,60
41640,note_on,1,0,13,,,,,,,,8,,,38,48
41640,note_on,1,0,17,,,,,,,,13,,,50,60
41699,note_on,59,0,13,,,,,,,,8,,,38,0
41699,note_on,59,0,10,,,,,,,,5,,,57,0
41699,note_on,59,0,11,,,,,,,,6,,,53,0
41699,note_on,59,0,9,,,,,,,,4,,,65,0
41700,note_on,1,0,13,,,,,,,,8,,,38,48
41700,note_on,1,0,9,,,,,,,,4,,,65,48
41700,note_on,1,0,11,,,,,,,,6,,,53,48
41700,note_on,1,0,10,,,,,,,,5,,,57,48
41759,note_on,59,0,13,,,,,,,,8,,,38,0
41759,note_on,119,0,17,,,,,,,,13,,,50,0
41759,note_on,119,0,8,,,,,,,,1,,,50,0
41759,note_on,119,0,6,,,,,,,,0,,,57,0
41759,note_on,59,0,9,,,,,,,,4,,,65,0
41759,note_on,119,0,16,,,,,,,,12,,,53,0
41759,note_on,119,0,15,,,,,,,,11,,,57,0
41759,note_on,59,0,11,,,,,,,,6,,,53,0
41759,note_on,59,0,10,,,,,,,,5,,,57,0
41759,note_on,119,0,7,,,,,,,,1,,,53,0
41760,note_on,1,0,15,,,,,,,,11,,,62,60
41760,note_on,1,0,13,,,,,,,,8,,,34,48
41760,note_on,1,0,16,,,,,,,,12,,,58,60
41760,note_on,1,0,11,,,,,,,,6,,,58,48
41760,note_on,1,0,7,,,,,,,,1,,,58,48
41760,note_on,1,0,9,,,,,,,,4,,,65,48
41760,note_on,1,0,17,,,,,,,,13,,,46,60
41760,note_on,1,0,8,,,,,,,,1,,,46,48
41760,note_on,1,0,6,,,,,,,,0,,,62,48
41760,note_on,1,0,10,,,,,,,,5,,,62,48
41805,note_on,45,0,13,,,,,,,,8,,,34,48
41819,note_on,59,0,9,,,,,,,,4,,,65,0
41819,note_on,59,0,11,,,,,,,,6,,,58,0
41819,note_on,179,0,5,,,,,,,,0,,,65,0
41819,note_on,179,0,14,,,,,,,,10,,,65,0
41819,note_on,14,0,13,,,,,,,,8,,,34,0
41819,note_on,59,0,10,,,,,,,,5,,,62,0
41820,note_on,1,0,9,,,,,,,,4,,,69,48
41820,note_on,1,0,10,,,,,,,,5,,,62,48
41820,note_on,1,0,5,,,,,,,,0,,,69,48
41820,note_on,1,0,14,,,,,,,,10,,,69,60
41820,note_on,1,0,11,,,,,,,,6,,,58,48
41849,note_on,29,0,9,,,,,,,,4,,,69,0
41849,note_on,29,0,5,,,,,,,,0,,,69,0
41849,note_on,29,0,14,,,,,,,,10,,,69,0
41850,note_on,1,0,5,,,,,,,,0,,,67,48
41850,note_on,1,0,14,,,,,,,,10,,,67,60
41850,note_on,1,0,9,,,,,,,,4,,,67,48
41864,note_on,45,0,13,,,,,,,,8,,,34,0
41879,note_on,119,0,15,,,,,,,,11,,,62,0
41879,note_on,29,0,5,,,,,,,,0,,,67,0
41879,note_on,119,0,7,,,,,,,,1,,,58,0
41879,note_on,119,0,16,,,,,,,,12,,,58,0
41879,note_on,29,0,14,,,,,,,,10,,,67,0
41879,note_on,29,0,9,,,,,,,,4,,,67,0
41879,note_on,119,0,17,,,,,,,,13,,,46,0
41879,note_on,59,0,10,,,,,,,,5,,,62,0
41879,note_on,119,0,6,,,,,,,,0,,,62,0
41879,note_on,119,0,8,,,,,,,,1,,,46,0
41879,note_on,59,0,11,,,,,,,,6,,,58,0
41880,note_on,1,0,11,,,,,,,,6,,,57,48
41880,note_on,1,0,15,,,,,,,,11,,,60,60
41880,note_on,1,0,7,,,,,,,,1,,,57,48
41880,note_on,1,0,6,,,,,,,,0,,,60,48
41880,note_on,1,0,5,,,,,,,,0,,,65,48
41880,note_on,16,0,13,,,,,,,,8,,,36,48
41880,note_on,1,0,16,,,,,,,,12,,,57,60
41880,note_on,1,0,14,,,,,,,,10,,,65,60
41880,note_on,1,0,9,,,,,,,,4,,,65,48
41880,note_on,1,0,17,,,,,,,,13,,,48,60
41880,note_on,1,0,10,,,,,,,,5,,,60,48
41880,note_on,1,0,8,,,,,,,,1,,,48,48
41939,note_on,59,0,9,,,,,,,,4,,,65,0
41939,note_on,59,0,10,,,,,,,,5,,,60,0
41939,note_on,59,0,13,,,,,,,,8,,,36,0
41939,note_on,59,0,11,,,,,,,,6,,,57,0
41940,note_on,1,0,9,,,,,,,,4,,,65,48
41940,note_on,1,0,11,,,,,,,,6,,,57,48
41940,note_on,1,0,13,,,,,,,,8,,,36,48
41940,note_on,1,0,10,,,,,,,,5,,,60,48
41999,note_on,59,0,11,,,,,,,,6,,,57,0
41999,note_on,119,0,15,,,,,,,,11,,,60,0
41999,note_on,119,0,14,,,,,,,,10,,,65,0
41999,note_on,119,0,7,,,,,,,,1,,,57,0
41999,note_on,59,0,9,,,,,,,,4,,,65,0
41999,note_on,59,0,10,,,,,,,,5,,,60,0
41999,note_on,119,0,5,,,,,,,,0,,,65,0
41999,note_on,119,0,8,,,,,,,,1,,,48,0
41999,note_on,119,0,16,,,,,,,,12,,,57,0
41999,note_on,119,0,6,,,,,,,,0,,,60,0
41999,note_on,59,0,13,,,,,,,,8,,,36,0
42000,note_on,1,0,11,,,,,,,,6,,,55,48
42000,note_on,1,0,8,,,,,,,,1,,,36,48
42000,note_on,1,0,16,,,,,,,,12,,,55,60
42000,note_on,1,0,6,,,,,,,,0,,,58,48
42000,note_on,1,0,10,,,,,,,,5,,,58,48
42000,note_on,1,0,5,,,,,,,,0,,,64,48
42000,note_on,1,0,9,,,,,,,,4,,,64,48
42000,note_on,1,0,7,,,,,,,,1,,,55,48
42000,note_on,1,0,14,,,,,,,,10,,,64,60
42000,note_on,1,0,13,,,,,,,,8,,,36,48
42000,note_on,1,0,15,,,,,,,,11,,,58,60
42059,note_on,59,0,9,,,,,,,,4,,,64,0
42059,note_on,59,0,11,,,,,,,,6,,,55,0
42059,note_on,59,0,10,,,,,,,,5,,,58,0
42059,note_on,59,0,13,,,,,,,,8,,,36,0
42060,note_on,1,0,9,,,,,,,,4,,,64,48
42060,note_on,1,0,10,,,,,,,,5,,,58,48
42060,note_on,1,0,11,,,,,,,,6,,,55,48
42060,note_on,1,0,13,,,,,,,,8,,,36,48
42119,note_on,119,0,5,,,,,,,,0,,,64,0
42119,note_on,119,0,15,,,,,,,,11,,,58,0
42119,note_on,119,0,7,,,,,,,,1,,,55,0
42119,note_on,59,0,9,,,,,,,,4,,,64,0
42119,note_on,59,0,11,,,,,,,,6,,,55,0
42119,note_on,119,0,16,,,,,,,,12,,,55,0
42119,note_on,119,0,14,,,,,,,,10,,,64,0
42119,note_on,119,0,8,,,,,,,,1,,,36,0
42119,note_on,119,0,6,,,,,,,,0,,,58,0
42119,note_on,59,0,10,,,,,,,,5,,,58,0
42119,note_on,239,0,17,,,,,,,,13,,,48,0
42119,note_on,59,0,13,,,,,,,,8,,,36,0
42120,note_on,1,0,8,,,,,,,,1,,,41,48
42120,note_on,1,0,14,,,,,,,,10,,,65,60
42120,note_on,1,0,17,,,,,,,,13,,,41,60
42120,note_on,1,0,10,,,,,,,,5,,,57,48
42120,note_on,1,0,13,,,,,,,,8,,,29,48
42120,note_on,1,0,11,,,,,,,,6,,,53,48
42120,note_on,1,0,15,,,,,,,,11,,,57,60
42120,note_on,1,0,7,,,,,,,,1,,,53,48
42120,note_on,1,0,9,,,,,,,,4,,,65,48
42120,note_on,1,0,16,,,,,,,,12,,,53,60
42120,note_on,1,0,6,,,,,,,,0,,,57,48
42120,note_on,1,0,5,,,,,,,,0,,,65,48
42179,note_on,59,0,9,,,,,,,,4,,,65,0
42180,note_on,1,0,9,,,,,,,,4,,,69,48
42209,note_on,29,0,9,,,,,,,,4,,,69,0
42210,note_on,1,0,9,,,,,,,,4,,,72,48
42239,note_on,119,0,10,,,,,,,,5,,,57,0
42239,note_on,119,0,13,,,,,,,,8,,,29,0
42239,note_on,119,0,15,,,,,,,,11,,,57,0
42239,note_on,119,0,7,,,,,,,,1,,,53,0
42239,note_on,119,0,17,,,,,,,,13,,,41,0
42239,note_on,119,0,8,,,,,,,,1,,,41,0
42239,note_on,119,0,6,,,,,,,,0,,,57,0
42239,note_on,119,0,14,,,,,,,,10,,,65,0
42239,note_on,119,0,16,,,,,,,,12,,,53,0
42239,note_on,119,0,11,,,,,,,,6,,,53,0
42239,note_on,29,0,9,,,,,,,,4,,,72,0
42239,note_on,119,0,5,,,,,,,,0,,,65,0
42240,note_on,1,0,9,,,,,,,,4,,,77,48
42299,note_on,59,0,9,,,,,,,,4,,,77,0
42300,note_on,1,0,9,,,,,,,,4,,,77,48
42359,note_on,59,0,9,,,,,,,,4,,,77,0
42360,note_on,1,0,9,,,,,,,,4,,,77,48
42360,note_on,121,0,14,,,,,,,,10,,,77,60
42360,note_on,121,0,5,,,,,,,,0,,,77,48
42480,note_on,241,0,16,,,,,,,,12,,,65,60
42480,note_on,241,0,10,,,,,,,,5,,,69,48
42480,note_on,241,0,11,,,,,,,,6,,,65,48
42480,note_on,241,0,15,,,,,,,,11,,,69,60
42480,note_on,241,0,7,,,,,,,,1,,,65,48
42480,note_on,241,0,6,,,,,,,,0,,,69,48
42539,note_on,179,0,9,,,,,,,,4,,,77,0
42539,note_on,179,0,5,,,,,,,,0,,,77,0
42539,note_on,179,0,14,,,,,,,,10,,,77,0
42540,note_on,1,0,5,,,,,,,,0,,,76,48
42540,note_on,1,0,9,,,,,,,,4,,,76,48
42540,note_on,1,0,14,,,,,,,,10,,,76,60
42599,note_on,59,0,9,,,,,,,,4,,,76,0
42599,note_on,59,0,14,,,,,,,,10,,,76,0
42599,note_on,59,0,5,,,,,,,,0,,,76,0
42600,note_on,1,0,9,,,,,,,,4,,,74,48
42600,note_on,1,0,5,,,,,,,,0,,,74,48
42600,note_on,1,0,14,,,,,,,,10,,,74,60
42659,note_on,59,0,5,,,,,,,,0,,,74,0
42659,note_on,179,0,10,,,,,,,,5,,,69,0
42659,note_on,179,0,6,,,,,,,,0,,,69,0
42659,note_on,179,0,16,,,,,,,,12,,,65,0
42659,note_on,179,0,15,,,,,,,,11,,,69,0
42659,note_on,59,0,14,,,,,,,,10,,,74,0
42659,note_on,179,0,7,,,,,,,,1,,,65,0
42659,note_on,179,0,11,,,,,,,,6,,,65,0
42659,note_on,59,0,9,,,,,,,,4,,,74,0
42660,note_on,1,0,16,,,,,,,,12,,,64,60
42660,note_on,1,0,5,,,,,,,,0,,,72,48
42660,note_on,1,0,11,,,,,,,,6,,,64,48
42660,note_on,1,0,14,,,,,,,,10,,,72,60
42660,note_on,1,0,6,,,,,,,,0,,,67,48
42660,note_on,1,0,10,,,,,,,,5,,,67,48
42660,note_on,1,0,15,,,,,,,,11,,,67,60
42660,note_on,1,0,7,,,,,,,,1,,,64,48
42660,note_on,1,0,9,,,,,,,,4,,,72,48
42719,note_on,59,0,9,,,,,,,,4,,,72,0
42719,note_on,59,0,10,,,,,,,,5,,,67,0
42719,note_on,59,0,15,,,,,,,,11,,,67,0
42719,note_on,59,0,11,,,,,,,,6,,,64,0
42719,note_on,59,0,5,,,,,,,,0,,,72,0
42719,note_on,59,0,6,,,,,,,,0,,,67,0
42719,note_on,59,0,14,,,,,,,,10,,,72,0
42719,note_on,59,0,7,,,,,,,,1,,,64,0
42719,note_on,59,0,16,,,,,,,,12,,,64,0
42720,note_on,1,0,10,,,,,,,,5,,,65,48
42720,note_on,1,0,9,,,,,,,,4,,,70,48
42720,note_on,481,0,13,,,,,,,,8,,,34,48
42720,note_on,1,0,16,,,,,,,,12,,,62,60
42720,note_on,1,0,15,,,,,,,,11,,,65,60
42720,note_on,481,0,17,,,,,,,,13,,,46,60
42720,note_on,1,0,5,,,,,,,,0,,,70,48
42720,note_on,481,0,8,,,,,,,,1,,,46,48
42720,note_on,1,0,7,,,,,,,,1,,,62,48
42720,note_on,1,0,14,,,,,,,,10,,,70,60
42720,note_on,1,0,11,,,,,,,,6,,,62,48
42720,note_on,1,0,6,,,,,,,,0,,,65,48
42779,note_on,59,0,9,,,,,,,,4,,,70,0
42779,note_on,59,0,7,,,,,,,,1,,,62,0
42779,note_on,59,0,16,,,,,,,,12,,,62,0
42779,note_on,59,0,6,,,,,,,,0,,,65,0
42779,note_on,59,0,5,,,,,,,,0,,,70,0
42779,note_on,59,0,14,,,,,,,,10,,,70,0
42779,note_on,59,0,15,,,,,,,,11,,,65,0
42779,note_on,59,0,11,,,,,,,,6,,,62,0
42779,note_on,59,0,10,,,,,,,,5,,,65,0
42780,note_on,1,0,6,,,,,,,,0,,,64,48
42780,note_on,1,0,10,,,,,,,,5,,,64,48
42780,note_on,1,0,11,,,,,,,,6,,,60,48
42780,note_on,1,0,7,,,,,,,,1,,,60,48
42780,note_on,1,0,9,,,,,,,,4,,,69,48
42780,note_on,1,0,5,,,,,,,,0,,,69,48
42780,note_on,1,0,16,,,,,,,,12,,,60,60
42780,note_on,1,0,15,,,,,,,,11,,,64,60
42780,note_on,1,0,14,,,,,,,,10,,,69,60
42839,note_on,59,0,14,,,,,,,,10,,,69,0
42839,note_on,59,0,5,,,,,,,,0,,,69,0
42839,note_on,59,0,15,,,,,,,,11,,,64,0
42839,note_on,59,0,7,,,,,,,,1,,,60,0
42839,note_on,59,0,9,,,,,,,,4,,,69,0
42839,note_on,59,0,16,,,,,,,,12,,,60,0
42839,note_on,59,0,6,,,,,,,,0,,,64,0
42839,note_on,59,0,11,,,,,,,,6,,,60,0
42839,note_on,59,0,10,,,,,,,,5,,,64,0
42840,note_on,1,0,10,,,,,,,,5,,,62,48
42840,note_on,1,0,16,,,,,,,,12,,,58,60
42840,note_on,1,0,9,,,,,,,,4,,,74,48
42840,note_on,1,0,5,,,,,,,,0,,,74,48
42840,note_on,1,0,15,,,,,,,,11,,,62,60
42840,note_on,1,0,14,,,,,,,,10,,,74,60
42840,note_on,1,0,6,,,,,,,,0,,,62,48
42840,note_on,1,0,11,,,,,,,,6,,,58,48
42840,note_on,1,0,7,,,,,,,,1,,,58,48
42899,note_on,59,0,6,,,,,,,,0,,,62,0
42899,note_on,179,0,8,,,,,,,,1,,,46,0
42899,note_on,179,0,13,,,,,,,,8,,,34,0
42899,note_on,59,0,10,,,,,,,,5,,,62,0
42899,note_on,179,0,17,,,,,,,,13,,,46,0
42899,note_on,59,0,15,,,,,,,,11,,,62,0
42900,note_on,1,0,8,,,,,,,,1,,,48,48
42900,note_on,1,0,13,,,,,,,,8,,,36,48
42900,note_on,1,0,6,,,,,,,,0,,,64,48
42900,note_on,1,0,17,,,,,,,,13,,,48,60
42900,note_on,1,0,15,,,,,,,,11,,,64,60
42900,note_on,1,0,10,,,,,,,,5,,,64,48
42959,note_on,59,0,15,,,,,,,,11,,,64,0
42959,note_on,59,0,10,,,,,,,,5,,,64,0
42959,note_on,59,0,13,,,,,,,,8,,,36,0
42959,note_on,59,0,8,,,,,,,,1,,,48,0
42959,note_on,59,0,17,,,,,,,,13,,,48,0
42959,note_on,59,0,6,,,,,,,,0,,,64,0
42960,note_on,1,0,10,,,,,,,,5,,,65,48
42960,note_on,1,0,17,,,,,,,,13,,,50,60
42960,note_on,1,0,15,,,,,,,,11,,,65,60
42960,note_on,1,0,6,,,,,,,,0,,,65,48
42960,note_on,1,0,8,,,,,,,,1,,,50,48
42960,note_on,1,0,13,,,,,,,,8,,,38,48
43019,note_on,59,0,15,,,,,,,,11,,,65,0
43019,note_on,59,0,10,,,,,,,,5,,,65,0
43019,note_on,59,0,17,,,,,,,,13,,,50,0
43019,note_on,59,0,13,,,,,,,,8,,,38,0
43019,note_on,59,0,6,,,,,,,,0,,,65,0
43019,note_on,59,0,8,,,,,,,,1,,,50,0
43020,note_on,1,0,6,,,,,,,,0,,,67,48
43020,note_on,1,0,8,,,,,,,,1,,,52,48
43020,note_on,1,0,17,,,,,,,,13,,,52,60
43020,note_on,1,0,13,,,,,,,,8,,,40,48
43020,note_on,1,0,15,,,,,,,,11,,,67,60
43020,note_on,1,0,10,,,,,,,,5,,,67,48
43079,note_on,59,0,8,,,,,,,,1,,,52,0
43079,note_on,59,0,13,,,,,,,,8,,,40,0
43079,note_on,239,0,11,,,,,,,,6,,,58,0
43079,note_on,59,0,6,,,,,,,,0,,,67,0
43079,note_on,59,0,10,,,,,,,,5,,,67,0
43079,note_on,239,0,7,,,,,,,,1,,,58,0
43079,note_on,59,0,15,,,,,,,,11,,,67,0
43079,note_on,59,0,17,,,,,,,,13,,,52,0
43079,note_on,239,0,16,,,,,,,,12,,,58,0
43079,note_on,239,0,5,,,,,,,,0,,,74,0
43079,note_on,239,0,9,,,,,,,,4,,,74,0
43079,note_on,239,0,14,,,,,,,,10,,,74,0
43080,note_on,1,0,10,,,,,,,,5,,,69,48
43080,note_on,1,0,8,,,,,,,,1,,,53,48
43080,note_on,1,0,5,,,,,,,,0,,,72,48
43080,note_on,1,0,6,,,,,,,,0,,,69,48
43080,note_on,1,0,11,,,,,,,,6,,,57,48
43080,note_on,1,0,16,,,,,,,,12,,,57,60
43080,note_on,1,0,15,,,,,,,,11,,,69,60
43080,note_on,1,0,14,,,,,,,,10,,,72,60
43080,note_on,1,0,9,,,,,,,,4,,,72,48
43080,note_on,1,0,7,,,,,,,,1,,,57,48
43080,note_on,1,0,13,,,,,,,,8,,,41,48
43080,note_on,1,0,17,,,,,,,,13,,,53,60
43139,note_on,59,0,13,,,,,,,,8,,,41,0
43139,note_on,59,0,16,,,,,,,,12,,,57,0
43139,note_on,59,0,10,,,,,,,,5,,,69,0
43139,note_on,59,0,17,,,,,,,,13,,,53,0
43139,note_on,59,0,8,,,,,,,,1,,,53,0
43139,note_on,59,0,7,,,,,,,,1,,,57,0
43139,note_on,59,0,11,,,,,,,,6,,,57,0
43139,note_on,59,0,6,,,,,,,,0,,,69,0
43139,note_on,59,0,15,,,,,,,,11,,,69,0
43140,note_on,1,0,15,,,,,,,,11,,,64,60
43140,note_on,1,0,7,,,,,,,,1,,,58,48
43140,note_on,1,0,8,,,,,,,,1,,,55,48
43140,note_on,1,0,16,,,,,,,,12,,,58,60
43140,note_on,1,0,13,,,,,,,,8,,,43,48
43140,note_on,1,0,10,,,,,,,,5,,,64,48
43140,note_on,1,0,11,,,,,,,,6,,,58,48
43140,note_on,1,0,17,,,,,,,,13,,,55,60
43140,note_on,1,0,6,,,,,,,,0,,,64,48
43199,note_on,59,0,6,,,,,,,,0,,,64,0
43199,note_on,59,0,16,,,,,,,,12,,,58,0
43199,note_on,59,0,17,,,,,,,,13,,,55,0
43199,note_on,59,0,11,,,,,,,,6,,,58,0
43199,note_on,59,0,7,,,,,,,,1,,,58,0
43199,note_on,59,0,8,,,,,,,,1,,,55,0
43199,note_on,59,0,10,,,,,,,,5,,,64,0
43199,note_on,59,0,15,,,,,,,,11,,,64,0
43199,note_on,59,0,13,,,,,,,,8,,,43,0
43200,note_on,1,0,16,,,,,,,,12,,,60,60
43200,note_on,1,0,7,,,,,,,,1,,,60,48
43200,note_on,1,0,8,,,,,,,,1,,,57,48
43200,note_on,1,0,6,,,,,,,,0,,,65,48
43200,note_on,1,0,11,,,,,,,,6,,,60,48
43200,note_on,1,0,13,,,,,,,,8,,,45,48
43200,note_on,1,0,17,,,,,,,,13,,,57,60
43200,note_on,1,0,10,,,,,,,,5,,,65,48
43200,note_on,1,0,15,,,,,,,,11,,,65,60
43259,note_on,59,0,6,,,,,,,,0,,,65,0
43259,note_on,59,0,17,,,,,,,,13,,,57,0
43259,note_on,179,0,9,,,,,,,,4,,,72,0
43259,note_on,59,0,16,,,,,,,,12,,,60,0
43259,note_on,59,0,11,,,,,,,,6,,,60,0
43259,note_on,179,0,5,,,,,,,,0,,,72,0
43259,note_on,59,0,8,,,,,,,,1,,,57,0
43259,note_on,59,0,13,,,,,,,,8,,,45,0
43259,note_on,59,0,15,,,,,,,,11,,,65,0
43259,note_on,59,0,7,,,,,,,,1,,,60,0
43259,note_on,59,0,10,,,,,,,,5,,,65,0
43259,note_on,179,0,14,,,,,,,,10,,,72,0
43260,note_on,1,0,13,,,,,,,,8,,,46,48
43260,note_on,1,0,17,,,,,,,,13,,,58,60
43260,note_on,1,0,9,,,,,,,,4,,,70,48
43260,note_on,1,0,6,,,,,,,,0,,,67,48
43260,note_on,1,0,15,,,,,,,,11,,,67,60
43260,note_on,1,0,8,,,,,,,,1,,,58,48
43260,note_on,1,0,16,,,,,,,,12,,,62,60
43260,note_on,1,0,14,,,,,,,,10,,,70,60
43260,note_on,1,0,5,,,,,,,,0,,,70,48
43260,note_on,1,0,11,,,,,,,,6,,,62,48
43260,note_on,1,0,10,,,,,,,,5,,,67,48
43260,note_on,1,0,7,,,,,,,,1,,,62,48
43319,note_on,59,0,17,,,,,,,,13,,,58,0
43319,note_on,59,0,10,,,,,,,,5,,,67,0
43319,note_on,59,0,15,,,,,,,,11,,,67,0
43319,note_on,59,0,14,,,,,,,,10,,,70,0
43319,note_on,59,0,13,,,,,,,,8,,,46,0
43319,note_on,59,0,6,,,,,,,,0,,,67,0
43319,note_on,59,0,7,,,,,,,,1,,,62,0
43319,note_on,59,0,8,,,,,,,,1,,,58,0
43319,note_on,59,0,9,,,,,,,,4,,,70,0
43319,note_on,59,0,16,,,,,,,,12,,,62,0
43319,note_on,59,0,5,,,,,,,,0,,,70,0
43319,note_on,59,0,11,,,,,,,,6,,,62,0
43320,note_on,1,0,13,,,,,,,,8,,,48,48
43320,note_on,1,0,9,,,,,,,,4,,,69,48
43320,note_on,1,0,10,,,,,,,,5,,,65,48
43320,note_on,1,0,14,,,,,,,,10,,,69,60
43320,note_on,1,0,17,,,,,,,,13,,,60,60
43320,note_on,1,0,11,,,,,,,,6,,,60,48
43320,note_on,1,0,5,,,,,,,,0,,,69,48
43320,note_on,1,0,15,,,,,,,,11,,,65,60
43320,note_on,1,0,6,,,,,,,,0,,,65,48
43320,note_on,1,0,7,,,,,,,,1,,,60,48
43320,note_on,1,0,8,,,,,,,,1,,,60,48
43320,note_on,1,0,16,,,,,,,,12,,,60,60
43379,note_on,59,0,11,,,,,,,,6,,,60,0
43379,note_on,59,0,9,,,,,,,,4,,,69,0
43379,note_on,59,0,10,,,,,,,,5,,,65,0
43380,note_on,1,0,9,,,,,,,,4,,,69,48
43380,note_on,1,0,11,,,,,,,,6,,,60,48
43380,note_on,1,0,10,,,,,,,,5,,,65,48
43439,note_on,119,0,5,,,,,,,,0,,,69,0
43439,note_on,59,0,11,,,,,,,,6,,,60,0
43439,note_on,119,0,14,,,,,,,,10,,,69,0
43439,note_on,119,0,15,,,,,,,,11,,,65,0
43439,note_on,59,0,9,,,,,,,,4,,,69,0
43439,note_on,119,0,13,,,,,,,,8,,,48,0
43439,note_on,119,0,6,,,,,,,,0,,,65,0
43439,note_on,59,0,10,,,,,,,,5,,,65,0
43439,note_on,119,0,8,,,,,,,,1,,,60,0
43440,note_on,1,0,6,,,,,,,,0,,,64,48
43440,note_on,1,0,13,,,,,,,,8,,,36,48
43440,note_on,1,0,10,,,,,,,,5,,,64,48
43440,note_on,1,0,8,,,,,,,,1,,,48,48
43440,note_on,1,0,11,,,,,,,,6,,,60,48
43440,note_on,1,0,15,,,,,,,,11,,,64,60
43440,note_on,1,0,5,,,,,,,,0,,,67,48
43440,note_on,1,0,9,,,,,,,,4,,,67,48
43440,note_on,1,0,14,,,,,,,,10,,,67,60
43499,note_on,59,0,9,,,,,,,,4,,,67,0
43499,note_on,59,0,10,,,,,,,,5,,,64,0
43499,note_on,59,0,11,,,,,,,,6,,,60,0
43500,note_on,1,0,11,,,,,,,,6,,,60,48
43500,note_on,1,0,9,,,,,,,,4,,,67,48
43500,note_on,1,0,10,,,,,,,,5,,,64,48
43559,note_on,119,0,6,,,,,,,,0,,,64,0
43559,note_on,119,0,15,,,,,,,,11,,,64,0
43559,note_on,59,0,11,,,,,,,,6,,,60,0
43559,note_on,239,0,7,,,,,,,,1,,,60,0
43559,note_on,59,0,9,,,,,,,,4,,,67,0
43559,note_on,119,0,14,,,,,,,,10,,,67,0
43559,note_on,119,0,8,,,,,,,,1,,,48,0
43559,note_on,119,0,13,,,,,,,,8,,,36,0
43559,note_on,239,0,17,,,,,,,,13,,,60,0
43559,note_on,239,0,16,,,,,,,,12,,,60,0
43559,note_on,119,0,5,,,,,,,,0,,,67,0
43559,note_on,59,0,10,,,,,,,,5,,,64,0
43560,note_on,1,0,8,,,,,,,,1,,,53,48
43560,note_on,1,0,16,,,,,,,,12,,,60,60
43560,note_on,1,0,9,,,,,,,,4,,,65,48
43560,note_on,1,0,6,,,,,,,,0,,,65,48
43560,note_on,1,0,17,,,,,,,,13,,,53,60
43560,note_on,1,0,7,,,,,,,,1,,,60,48
43560,note_on,1,0,10,,,,,,,,5,,,65,48
43560,note_on,1,0,15,,,,,,,,11,,,65,60
43560,note_on,1,0,5,,,,,,,,0,,,69,48
43560,note_on,1,0,11,,,,,,,,6,,,57,48
43560,note_on,1,0,13,,,,,,,,8,,,41,48
43560,note_on,1,0,14,,,,,,,,10,,,69,60
43619,note_on,59,0,9,,,,,,,,4,,,65,0
43620,note_on,1,0,9,,,,,,,,4,,,69,48
43649,note_on,29,0,9,,,,,,,,4,,,69,0
43650,note_on,1,0,9,,,,,,,,4,,,72,48
43679,note_on,119,0,14,,,,,,,,10,,,69,0
43679,note_on,119,0,15,,,,,,,,11,,,65,0
43679,note_on,119,0,7,,,,,,,,1,,,60,0
43679,note_on,119,0,17,,,,,,,,13,,,53,0
43679,note_on,119,0,13,,,,,,,,8,,,41,0
43679,note_on,119,0,5,,,,,,,,0,,,69,0
43679,note_on,119,0,16,,,,,,,,12,,,60,0
43679,note_on,119,0,10,,,,,,,,5,,,65,0
43679,note_on,119,0,8,,,,,,,,1,,,53,0
43679,note_on,119,0,6,,,,,,,,0,,,65,0
43679,note_on,29,0,9,,,,,,,,4,,,72,0
43679,note_on,119,0,11,,,,,,,,6,,,57,0
43680,note_on,1,0,9,,,,,,,,4,,,77,48
43739,note_on,59,0,9,,,,,,,,4,,,77,0
43740,note_on,1,0,9,,,,,,,,4,,,77,48
43799,note_on,59,0,9,,,,,,,,4,,,77,0
43800,note_on,1,0,9,,,,,,,,4,,,77,48
43800,note_on,121,0,14,,,,,,,,10,,,77,60
43800,note_on,121,0,5,,,,,,,,0,,,77,48
43920,note_on,241,0,7,,,,,,,,1,,,65,48
43920,note_on,241,0,15,,,,,,,,11,,,69,60
43920,note_on,241,0,6,,,,,,,,0,,,69,48
43920,note_on,241,0,11,,,,,,,,6,,,65,48
43920,note_on,241,0,16,,,,,,,,12,,,65,60
43920,note_on,241,0,10,,,,,,,,5,,,69,48
43979,note_on,179,0,14,,,,,,,,10,,,77,0
43979,note_on,179,0,9,,,,,,,,4,,,77,0
43979,note_on,179,0,5,,,,,,,,0,,,77,0
43980,note_on,1,0,14,,,,,,,,10,,,76,60
43980,note_on,1,0,9,,,,,,,,4,,,76,48
43980,note_on,1,0,5,,,,,,,,0,,,76,48
44039,note_on,59,0,9,,,,,,,,4,,,76,0
44039,note_on,59,0,5,,,,,,,,0,,,76,0
44039,note_on,59,0,14,,,,,,,,10,,,76,0
44040,note_on,1,0,5,,,,,,,,0,,,74,48
44040,note_on,1,0,9,,,,,,,,4,,,74,48
44040,note_on,1,0,14,,,,,,,,10,,,74,60
44099,note_on,179,0,7,,,,,,,,1,,,65,0
44099,note_on,59,0,14,,,,,,,,10,,,74,0
44099,note_on,179,0,15,,,,,,,,11,,,69,0
44099,note_on,59,0,9,,,,,,,,4,,,74,0
44099,note_on,179,0,10,,,,,,,,5,,,69,0
44099,note_on,179,0,16,,,,,,,,12,,,65,0
44099,note_on,59,0,5,,,,,,,,0,,,74,0
44099,note_on,179,0,11,,,,,,,,6,,,65,0
44099,note_on,179,0,6,,,,,,,,0,,,69,0
44100,note_on,1,0,10,,,,,,,,5,,,67,48
44100,note_on,1,0,11,,,,,,,,6,,,64,48
44100,note_on,1,0,9,,,,,,,,4,,,72,48
44100,note_on,1,0,16,,,,,,,,12,,,64,60
44100,note_on,1,0,15,,,,,,,,11,,,67,60
44100,note_on,1,0,6,,,,,,,,0,,,67,48
44100,note_on,1,0,5,,,,,,,,0,,,72,48
44100,note_on,1,0,7,,,,,,,,1,,,64,48
44100,note_on,1,0,14,,,,,,,,10,,,72,60
44159,note_on,59,0,15,,,,,,,,11,,,67,0
44159,note_on,59,0,14,,,,,,,,10,,,72,0
44159,note_on,59,0,6,,,,,,,,0,,,67,0
44159,note_on,59,0,9,,,,,,,,4,,,72,0
44159,note_on,59,0,5,,,,,,,,0,,,72,0
44159,note_on,59,0,16,,,,,,,,12,,,64,0
44159,note_on,59,0,10,,,,,,,,5,,,67,0
44159,note_on,59,0,11,,,,,,,,6,,,64,0
44159,note_on,59,0,7,,,,,,,,1,,,64,0
44160,note_on,1,0,7,,,,,,,,1,,,62,48
44160,note_on,481,0,17,,,,,,,,13,,,46,60
44160,note_on,1,0,6,,,,,,,,0,,,65,48
44160,note_on,1,0,16,,,,,,,,12,,,62,60
44160,note_on,1,0,11,,,,,,,,6,,,62,48
44160,note_on,1,0,5,,,,,,,,0,,,70,48
44160,note_on,481,0,8,,,,,,,,1,,,46,48
44160,note_on,1,0,10,,,,,,,,5,,,65,48
44160,note_on,481,0,13,,,,,,,,8,,,34,48
44160,note_on,1,0,15,,,,,,,,11,,,65,60
44160,note_on,1,0,14,,,,,,,,10,,,70,60
44160,note_on,1,0,9,,,,,,,,4,,,70,48
44219,note_on,59,0,14,,,,,,,,10,,,70,0
44219,note_on,59,0,6,,,,,,,,0,,,65,0
44219,note_on,59,0,10,,,,,,,,5,,,65,0
44219,note_on,59,0,16,,,,,,,,12,,,62,0
44219,note_on,59,0,5,,,,,,,,0,,,70,0
44219,note_on,59,0,15,,,,,,,,11,,,65,0
44219,note_on,59,0,9,,,,,,,,4,,,70,0
44219,note_on,59,0,11,,,,,,,,6,,,62,0
44219,note_on,59,0,7,,,,,,,,1,,,62,0
44220,note_on,1,0,15,,,,,,,,11,,,64,60
44220,note_on,1,0,6,,,,,,,,0,,,64,48
44220,note_on,1,0,14,,,,,,,,10,,,69,60
44220,note_on,1,0,16,,,,,,,,12,,,60,60
44220,note_on,1,0,10,,,,,,,,5,,,64,48
44220,note_on,1,0,11,,,,,,,,6,,,60,48
44220,note_on,1,0,5,,,,,,,,0,,,69,48
44220,note_on,1,0,7,,,,,,,,1,,,60,48
44220,note_on,1,0,9,,,,,,,,4,,,69,48
44279,note_on,59,0,9,,,,,,,,4,,,69,0
44279,note_on,59,0,11,,,,,,,,6,,,60,0
44279,note_on,59,0,15,,,,,,,,11,,,64,0
44279,note_on,59,0,6,,,,,,,,0,,,64,0
44279,note_on,59,0,14,,,,,,,,10,,,69,0
44279,note_on,59,0,10,,,,,,,,5,,,64,0
44279,note_on,59,0,5,,,,,,,,0,,,69,0
44279,note_on,59,0,7,,,,,,,,1,,,60,0
44279,note_on,59,0,16,,,,,,,,12,,,60,0
44280,note_on,1,0,10,,,,,,,,5,,,70,48
44280,note_on,1,0,5,,,,,,,,0,,,74,48
44280,note_on,1,0,9,,,,,,,,4,,,74,48
44280,note_on,1,0,14,,,,,,,,10,,,74,60
44280,note_on,1,0,11,,,,,,,,6,,,62,48
44280,note_on,1,0,16,,,,,,,,12,,,62,60
44280,note_on,1,0,7,,,,,,,,1,,,62,48
44280,note_on,1,0,15,,,,,,,,11,,,70,60
44280,note_on,1,0,6,,,,,,,,0,,,70,48
44339,note_on,59,0,11,,,,,,,,6,,,62,0
44339,note_on,179,0,17,,,,,,,,13,,,46,0
44339,note_on,179,0,13,,,,,,,,8,,,34,0
44339,note_on,179,0,8,,,,,,,,1,,,46,0
44339,note_on,59,0,7,,,,,,,,1,,,62,0
44339,note_on,59,0,16,,,,,,,,12,,,62,0
44340,note_on,1,0,16,,,,,,,,12,,,64,60
44340,note_on,1,0,11,,,,,,,,6,,,64,48
44340,note_on,1,0,8,,,,,,,,1,,,48,48
44340,note_on,1,0,17,,,,,,,,13,,,48,60
44340,note_on,1,0,7,,,,,,,,1,,,64,48
44340,note_on,1,0,13,,,,,,,,8,,,36,48
44399,note_on,59,0,16,,,,,,,,12,,,64,0
44399,note_on,59,0,17,,,,,,,,13,,,48,0
44399,note_on,59,0,7,,,,,,,,1,,,64,0
44399,note_on,59,0,13,,,,,,,,8,,,36,0
44399,note_on,59,0,11,,,,,,,,6,,,64,0
44399,note_on,59,0,8,,,,,,,,1,,,48,0
44400,note_on,1,0,17,,,,,,,,13,,,50,60
44400,note_on,1,0,13,,,,,,,,8,,,38,48
44400,note_on,1,0,8,,,,,,,,1,,,50,48
44400,note_on,1,0,16,,,,,,,,12,,,65,60
44400,note_on,1,0,11,,,,,,,,6,,,65,48
44400,note_on,1,0,7,,,,,,,,1,,,65,48
44459,note_on,59,0,16,,,,,,,,12,,,65,0
44459,note_on,59,0,13,,,,,,,,8,,,38,0
44459,note_on,59,0,11,,,,,,,,6,,,65,0
44459,note_on,59,0,8,,,,,,,,1,,,50,0
44459,note_on,59,0,7,,,,,,,,1,,,65,0
44459,note_on,59,0,17,,,,,,,,13,,,50,0
44460,note_on,1,0,13,,,,,,,,8,,,40,48
44460,note_on,1,0,7,,,,,,,,1,,,67,48
44460,note_on,1,0,16,,,,,,,,12,,,67,60
44460,note_on,1,0,11,,,,,,,,6,,,67,48
44460,note_on,1,0,8,,,,,,,,1,,,52,48
44460,note_on,1,0,17,,,,,,,,13,,,52,60
44519,note_on,239,0,5,,,,,,,,0,,,74,0
44519,note_on,59,0,11,,,,,,,,6,,,67,0
44519,note_on,239,0,14,,,,,,,,10,,,74,0
44519,note_on,59,0,7,,,,,,,,1,,,67,0
44519,note_on,239,0,10,,,,,,,,5,,,70,0
44519,note_on,59,0,16,,,,,,,,12,,,67,0
44519,note_on,239,0,15,,,,,,,,11,,,70,0
44519,note_on,59,0,17,,,,,,,,13,,,52,0
44519,note_on,59,0,8,,,,,,,,1,,,52,0
44519,note_on,59,0,13,,,,,,,,8,,,40,0
44519,note_on,239,0,9,,,,,,,,4,,,74,0
44519,note_on,239,0,6,,,,,,,,0,,,70,0
44520,note_on,1,0,11,,,,,,,,6,,,60,48
44520,note_on,1,0,10,,,,,,,,5,,,69,48
44520,note_on,1,0,9,,,,,,,,4,,,72,48
44520,note_on,1,0,15,,,,,,,,11,,,69,60
44520,note_on,1,0,17,,,,,,,,13,,,53,60
44520,note_on,1,0,6,,,,,,,,0,,,69,48
44520,note_on,1,0,14,,,,,,,,10,,,72,60
44520,note_on,1,0,13,,,,,,,,8,,,41,48
44520,note_on,1,0,8,,,,,,,,1,,,53,48
44520,note_on,1,0,16,,,,,,,,12,,,60,60
44520,note_on,1,0,7,,,,,,,,1,,,60,48
44520,note_on,1,0,5,,,,,,,,0,,,72,48
44579,note_on,59,0,13,,,,,,,,8,,,41,0
44579,note_on,59,0,8,,,,,,,,1,,,53,0
44579,note_on,59,0,15,,,,,,,,11,,,69,0
44579,note_on,59,0,17,,,,,,,,13,,,53,0
44579,note_on,59,0,10,,,,,,,,5,,,69,0
44579,note_on,59,0,6,,,,,,,,0,,,69,0
44580,note_on,1,0,13,,,,,,,,8,,,43,48
44580,note_on,1,0,8,,,,,,,,1,,,55,48
44580,note_on,1,0,17,,,,,,,,13,,,55,60
44580,note_on,1,0,15,,,,,,,,11,,,64,60
44580,note_on,1,0,10,,,,,,,,5,,,64,48
44580,note_on,1,0,6,,,,,,,,0,,,64,48
44639,note_on,59,0,10,,,,,,,,5,,,64,0
44639,note_on,59,0,8,,,,,,,,1,,,55,0
44639,note_on,59,0,6,,,,,,,,0,,,64,0
44639,note_on,59,0,15,,,,,,,,11,,,64,0
44639,note_on,59,0,17,,,,,,,,13,,,55,0
44639,note_on,59,0,13,,,,,,,,8,,,43,0
44640,note_on,1,0,8,,,,,,,,1,,,57,48
44640,note_on,1,0,13,,,,,,,,8,,,45,48
44640,note_on,1,0,17,,,,,,,,13,,,57,60
44640,note_on,1,0,10,,,,,,,,5,,,65,48
44640,note_on,1,0,6,,,,,,,,0,,,65,48
44640,note_on,1,0,15,,,,,,,,11,,,65,60
44699,note_on,179,0,7,,,,,,,,1,,,60,0
44699,note_on,59,0,6,,,,,,,,0,,,65,0
44699,note_on,179,0,9,,,,,,,,4,,,72,0
44699,note_on,179,0,14,,,,,,,,10,,,72,0
44699,note_on,59,0,15,,,,,,,,11,,,65,0
44699,note_on,59,0,17,,,,,,,,13,,,57,0
44699,note_on,59,0,8,,,,,,,,1,,,57,0
44699,note_on,179,0,16,,,,,,,,12,,,60,0
44699,note_on,179,0,11,,,,,,,,6,,,60,0
44699,note_on,59,0,13,,,,,,,,8,,,45,0
44699,note_on,179,0,5,,,,,,,,0,,,72,0
44699,note_on,59,0,10,,,,,,,,5,,,65,0
44700,note_on,1,0,8,,,,,,,,1,,,58,48
44700,note_on,1,0,11,,,,,,,,6,,,62,48
44700,note_on,1,0,17,,,,,,,,13,,,58,60
44700,note_on,1,0,10,,,,,,,,5,,,67,48
44700,note_on,1,0,7,,,,,,,,1,,,62,48
44700,note_on,1,0,6,,,,,,,,0,,,67,48
44700,note_on,1,0,5,,,,,,,,0,,,70,48
44700,note_on,1,0,15,,,,,,,,11,,,67,60
44700,note_on,1,0,9,,,,,,,,4,,,70,48
44700,note_on,1,0,13,,,,,,,,8,,,46,48
44700,note_on,1,0,16,,,,,,,,12,,,62,60
44700,note_on,1,0,14,,,,,,,,10,,,70,60
44759,note_on,59,0,11,,,,,,,,6,,,62,0
44759,note_on,59,0,14,,,,,,,,10,,,70,0
44759,note_on,59,0,17,,,,,,,,13,,,58,0
44759,note_on,59,0,6,,,,,,,,0,,,67,0
44759,note_on,59,0,16,,,,,,,,12,,,62,0
44759,note_on,59,0,7,,,,,,,,1,,,62,0
44759,note_on,59,0,15,,,,,,,,11,,,67,0
44759,note_on,59,0,10,,,,,,,,5,,,67,0
44759,note_on,59,0,9,,,,,,,,4,,,70,0
44759,note_on,59,0,13,,,,,,,,8,,,46,0
44759,note_on,59,0,5,,,,,,,,0,,,70,0
44759,note_on,59,0,8,,,,,,,,1,,,58,0
44760,note_on,1,0,7,,,,,,,,1,,,60,48
44760,note_on,1,0,15,,,,,,,,11,,,65,60
44760,note_on,1,0,13,,,,,,,,8,,,48,48
44760,note_on,1,0,5,,,,,,,,0,,,69,48
44760,note_on,1,0,9,,,,,,,,4,,,69,48
44760,note_on,1,0,10,,,,,,,,5,,,65,48
44760,note_on,1,0,14,,,,,,,,10,,,69,60
44760,note_on,1,0,16,,,,,,,,12,,,60,60
44760,note_on,1,0,8,,,,,,,,1,,,60,48
44760,note_on,1,0,17,,,,,,,,13,,,60,60
44760,note_on,1,0,6,,,,,,,,0,,,65,48
44760,note_on,1,0,11,,,,,,,,6,,,60,48
44819,note_on,59,0,11,,,,,,,,6,,,60,0
44819,note_on,59,0,10,,,,,,,,5,,,65,0
44819,note_on,59,0,9,,,,,,,,4,,,69,0
44820,note_on,1,0,11,,,,,,,,6,,,60,48
44820,note_on,1,0,9,,,,,,,,4,,,69,48
44820,note_on,1,0,10,,,,,,,,5,,,65,48
44879,note_on,119,0,8,,,,,,,,1,,,60,0
44879,note_on,59,0,9,,,,,,,,4,,,69,0
44879,note_on,119,0,6,,,,,,,,0,,,65,0
44879,note_on,119,0,15,,,,,,,,11,,,65,0
44879,note_on,59,0,10,,,,,,,,5,,,65,0
44879,note_on,119,0,14,,,,,,,,10,,,69,0
44879,note_on,119,0,7,,,,,,,,1,,,60,0
44879,note_on,59,0,11,,,,,,,,6,,,60,0
44879,note_on,119,0,17,,,,,,,,13,,,60,0
44879,note_on,119,0,5,,,,,,,,0,,,69,0
44879,note_on,119,0,13,,,,,,,,8,,,48,0
44879,note_on,119,0,16,,,,,,,,12,,,60,0
44880,note_on,1,0,11,,,,,,,,6,,,58,48
44880,note_on,1,0,6,,,,,,,,0,,,64,48
44880,note_on,1,0,16,,,,,,,,12,,,58,60
44880,note_on,1,0,13,,,,,,,,8,,,36,48
44880,note_on,1,0,7,,,,,,,,1,,,58,48
44880,note_on,1,0,8,,,,,,,,1,,,48,48
44880,note_on,1,0,10,,,,,,,,5,,,64,48
44880,note_on,1,0,5,,,,,,,,0,,,67,48
44880,note_on,1,0,17,,,,,,,,13,,,48,60
44880,note_on,1,0,14,,,,,,,,10,,,67,60
44880,note_on,1,0,15,,,,,,,,11,,,64,60
44880,note_on,1,0,9,,,,,,,,4,,,67,48
44939,note_on,59,0,10,,,,,,,,5,,,64,0
44939,note_on,59,0,11,,,,,,,,6,,,58,0
44939,note_on,59,0,9,,,,,,,,4,,,67,0
44940,note_on,1,0,11,,,,,,,,6,,,58,48
44940,note_on,1,0,10,,,,,,,,5,,,64,48
44940,note_on,1,0,9,,,,,,,,4,,,67,48
44999,note_on,59,0,11,,,,,,,,6,,,58,0
44999,note_on,119,0,7,,,,,,,,1,,,58,0
44999,note_on,119,0,15,,,,,,,,11,,,64,0
44999,note_on,119,0,17,,,,,,,,13,,,48,0
44999,note_on,119,0,14,,,,,,,,10,,,67,0
44999,note_on,119,0,5,,,,,,,,0,,,67,0
44999,note_on,59,0,10,,,,,,,,5,,,64,0
44999,note_on,59,0,9,,,,,,,,4,,,67,0
44999,note_on,119,0,13,,,,,,,,8,,,36,0
44999,note_on,119,0,8,,,,,,,,1,,,48,0
44999,note_on,119,0,6,,,,,,,,0,,,64,0
44999,note_on,119,0,16,,,,,,,,12,,,58,0
45000,note_on,1,0,15,,,,,,,,11,,,65,60
45000,note_on,1,0,7,,,,,,,,1,,,57,48
45000,note_on,1,0,14,,,,,,,,10,,,65,60
45000,note_on,1,0,5,,,,,,,,0,,,65,48
45000,note_on,1,0,17,,,,,,,,13,,,53,60
45000,note_on,1,0,16,,,,,,,,12,,,57,60
45000,note_on,1,0,11,,,,,,,,6,,,57,48
45000,note_on,1,0,13,,,,,,,,8,,,41,48
45000,note_on,1,0,6,,,,,,,,0,,,65,48
45000,note_on,1,0,9,,,,,,,,4,,,65,48
45000,note_on,1,0,8,,,,,,,,1,,,53,48
45000,note_on,1,0,10,,,,,,,,5,,,65,48
45029,note_on,29,0,9,,,,,,,,4,,,65,0
45060,note_on,31,0,9,,,,,,,,4,,,84,48
45089,note_on,29,0,9,,,,,,,,4,,,84,0
45090,note_on,1,0,9,,,,,,,,4,,,82,48
45119,note_on,119,0,17,,,,,,,,13,,,53,0
45119,note_on,29,0,9,,,,,,,,4,,,82,0
45119,end_of_track,0,1,16,,,,,,,,,,,,
45119,note_on,119,0,5,,,,,,,,0,,,65,0
45119,end_of_track,0,1,5,,,,,,,,,,,,
45119,end_of_track,0,1,14,,,,,,,,,,,,
45119,note_on,119,0,14,,,,,,,,10,,,65,0
45119,note_on,119,0,11,,,,,,,,6,,,57,0
45119,end_of_track,0,1,15,,,,,,,,,,,,
45119,note_on,119,0,8,,,,,,,,1,,,53,0
45119,end_of_track,0,1,8,,,,,,,,,,,,
45119,end_of_track,0,1,7,,,,,,,,,,,,
45119,end_of_track,0,1,17,,,,,,,,,,,,
45119,note_on,119,0,7,,,,,,,,1,,,57,0
45119,end_of_track,0,1,6,,,,,,,,,,,,
45119,note_on,119,0,10,,,,,,,,5,,,65,0
45119,note_on,119,0,13,,,,,,,,8,,,41,0
45119,note_on,119,0,16,,,,,,,,12,,,57,0
45119,note_on,119,0,6,,,,,,,,0,,,65,0
45119,note_on,119,0,15,,,,,,,,11,,,65,0
45120,note_on,1,0,9,,,,,,,,4,,,81,48
45179,note_on,59,0,9,,,,,,,,4,,,81,0
45180,note_on,1,0,9,,,,,,,,4,,,79,48
45180,note_on,61,0,11,,,,,,,,6,,,53,48
45180,note_on,61,0,10,,,,,,,,5,,,72,48
45209,note_on,29,0,10,,,,,,,,5,,,72,0
45210,note_on,1,0,10,,,,,,,,5,,,70,48
45239,note_on,59,0,9,,,,,,,,4,,,79,0
45239,note_on,59,0,11,,,,,,,,6,,,53,0
45239,note_on,29,0,10,,,,,,,,5,,,70,0
45240,note_on,1,0,11,,,,,,,,6,,,55,48
45240,note_on,1,0,10,,,,,,,,5,,,69,48
45240,note_on,1,0,9,,,,,,,,4,,,77,48
45299,note_on,59,0,11,,,,,,,,6,,,55,0
45299,note_on,59,0,10,,,,,,,,5,,,69,0
45299,note_on,59,0,9,,,,,,,,4,,,77,0
45300,note_on,1,0,11,,,,,,,,6,,,57,48
45300,note_on,1,0,9,,,,,,,,4,,,76,48
45300,note_on,1,0,10,,,,,,,,5,,,67,48
45359,note_on,59,0,10,,,,,,,,5,,,67,0
45359,note_on,59,0,11,,,,,,,,6,,,57,0
45359,note_on,59,0,9,,,,,,,,4,,,76,0
45360,note_on,1,0,11,,,,,,,,6,,,58,48
45360,note_on,1,0,10,,,,,,,,5,,,65,48
45360,note_on,1,0,9,,,,,,,,4,,,74,48
45419,note_on,59,0,9,,,,,,,,4,,,74,0
45419,note_on,59,0,10,,,,,,,,5,,,65,0
45420,note_on,1,0,10,,,,,,,,5,,,64,48
45420,note_on,1,0,9,,,,,,,,4,,,86,48
45449,note_on,29,0,9,,,,,,,,4,,,86,0
45450,note_on,1,0,9,,,,,,,,4,,,84,48
45479,note_on,119,0,11,,,,,,,,6,,,58,0
45479,note_on,29,0,9,,,,,,,,4,,,84,0
45479,note_on,59,0,10,,,,,,,,5,,,64,0
45480,note_on,1,0,10,,,,,,,,5,,,62,48
45480,note_on,1,0,9,,,,,,,,4,,,82,48
45539,note_on,59,0,10,,,,,,,,5,,,62,0
45539,note_on,59,0,9,,,,,,,,4,,,82,0
45540,note_on,1,0,10,,,,,,,,5,,,74,48
45540,note_on,1,0,9,,,,,,,,4,,,81,48
45540,note_on,61,0,11,,,,,,,,6,,,55,48
45569,note_on,29,0,10,,,,,,,,5,,,74,0
45570,note_on,1,0,10,,,,,,,,5,,,72,48
45599,note_on,59,0,9,,,,,,,,4,,,81,0
45599,note_on,29,0,10,,,,,,,,5,,,72,0
45599,note_on,59,0,11,,,,,,,,6,,,55,0
45600,note_on,1,0,11,,,,,,,,6,,,57,48
45600,note_on,1,0,9,,,,,,,,4,,,79,48
45600,note_on,1,0,10,,,,,,,,5,,,70,48
45659,note_on,59,0,9,,,,,,,,4,,,79,0
45659,note_on,59,0,10,,,,,,,,5,,,70,0
45659,note_on,59,0,11,,,,,,,,6,,,57,0
45660,note_on,1,0,9,,,,,,,,4,,,77,48
45660,note_on,1,0,10,,,,,,,,5,,,69,48
45660,note_on,1,0,11,,,,,,,,6,,,58,48
45719,note_on,59,0,9,,,,,,,,4,,,77,0
45719,note_on,59,0,11,,,,,,,,6,,,58,0
45719,note_on,59,0,10,,,,,,,,5,,,69,0
45720,note_on,1,0,11,,,,,,,,6,,,60,48
45720,note_on,1,0,10,,,,,,,,5,,,67,48
45720,note_on,1,0,9,,,,,,,,4,,,76,48
45779,note_on,59,0,9,,,,,,,,4,,,76,0
45779,note_on,59,0,10,,,,,,,,5,,,67,0
45780,note_on,1,0,9,,,,,,,,4,,,74,48
45780,note_on,1,0,10,,,,,,,,5,,,65,48
45839,note_on,59,0,10,,,,,,,,5,,,65,0
45839,note_on,119,0,11,,,,,,,,6,,,60,0
45839,note_on,59,0,9,,,,,,,,4,,,74,0
45840,note_on,1,0,10,,,,,,,,5,,,64,48
45840,note_on,1,0,9,,,,,,,,4,,,72,48
45899,note_on,59,0,10,,,,,,,,5,,,64,0
45899,note_on,59,0,9,,,,,,,,4,,,72,0
45900,note_on,1,0,10,,,,,,,,5,,,64,48
45900,note_on,781,0,13,,,,,,,,8,,,33,48
45900,note_on,61,0,11,,,,,,,,6,,,48,48
45900,note_on,1,0,9,,,,,,,,4,,,70,48
45929,note_on,29,0,10,,,,,,,,5,,,64,0
45930,note_on,1,0,10,,,,,,,,5,,,62,48
45959,note_on,59,0,13,,,,,,,,8,,,33,0
45959,note_on,29,0,10,,,,,,,,5,,,62,0
45959,note_on,59,0,11,,,,,,,,6,,,48,0
45959,note_on,59,0,9,,,,,,,,4,,,70,0
45960,note_on,1,0,9,,,,,,,,4,,,69,48
45960,note_on,1,0,10,,,,,,,,5,,,60,48
45960,note_on,1,0,11,,,,,,,,6,,,50,48
45960,note_on,1,0,13,,,,,,,,8,,,34,48
46019,note_on,59,0,13,,,,,,,,8,,,34,0
46019,note_on,59,0,11,,,,,,,,6,,,50,0
46019,note_on,59,0,10,,,,,,,,5,,,60,0
46019,note_on,59,0,9,,,,,,,,4,,,69,0
46020,note_on,1,0,11,,,,,,,,6,,,52,48
46020,note_on,1,0,10,,,,,,,,5,,,58,48
46020,note_on,1,0,13,,,,,,,,8,,,36,48
46020,note_on,1,0,9,,,,,,,,4,,,67,48
46079,note_on,59,0,10,,,,,,,,5,,,58,0
46079,note_on,59,0,13,,,,,,,,8,,,36,0
46079,note_on,59,0,9,,,,,,,,4,,,67,0
46079,note_on,59,0,11,,,,,,,,6,,,52,0
46080,note_on,1,0,10,,,,,,,,5,,,57,48
46080,note_on,1,0,11,,,,,,,,6,,,53,48
46080,note_on,1,0,13,,,,,,,,8,,,38,48
46080,note_on,1,0,9,,,,,,,,4,,,65,48
46139,note_on,59,0,10,,,,,,,,5,,,57,0
46139,note_on,59,0,11,,,,,,,,6,,,53,0
46139,note_on,59,0,13,,,,,,,,8,,,38,0
46140,note_on,1,0,11,,,,,,,,6,,,60,48
46140,note_on,1,0,13,,,,,,,,8,,,33,48
46140,note_on,1,0,10,,,,,,,,5,,,65,48
46169,note_on,89,0,9,,,,,,,,4,,,65,0
46170,note_on,1,0,9,,,,,,,,4,,,67,48
46199,note_on,59,0,11,,,,,,,,6,,,60,0
46199,note_on,29,0,9,,,,,,,,4,,,67,0
46199,note_on,59,0,13,,,,,,,,8,,,33,0
46200,note_on,1,0,9,,,,,,,,4,,,67,48
46200,note_on,1,0,13,,,,,,,,8,,,34,48
46200,note_on,1,0,11,,,,,,,,6,,,62,48
46214,note_on,14,0,9,,,,,,,,4,,,67,0
46215,note_on,1,0,9,,,,,,,,4,,,69,48
46229,note_on,14,0,9,,,,,,,,4,,,69,0
46230,note_on,1,0,9,,,,,,,,4,,,67,48
46244,note_on,14,0,9,,,,,,,,4,,,67,0
46245,note_on,1,0,9,,,,,,,,4,,,69,48
46259,note_on,59,0,11,,,,,,,,6,,,62,0
46259,note_on,119,0,10,,,,,,,,5,,,65,0
46259,note_on,14,0,9,,,,,,,,4,,,69,0
46259,note_on,59,0,13,,,,,,,,8,,,34,0
46260,note_on,1,0,10,,,,,,,,5,,,64,48
46260,note_on,1,0,9,,,,,,,,4,,,67,48
46260,note_on,1,0,13,,,,,,,,8,,,31,48
46260,note_on,1,0,11,,,,,,,,6,,,58,48
46274,note_on,14,0,9,,,,,,,,4,,,67,0
46275,note_on,1,0,9,,,,,,,,4,,,69,48
46289,note_on,14,0,9,,,,,,,,4,,,69,0
46289,note_on,29,0,10,,,,,,,,5,,,64,0
46290,note_on,1,0,9,,,,,,,,4,,,67,48
46290,note_on,1,0,10,,,,,,,,5,,,62,48
46304,note_on,14,0,9,,,,,,,,4,,,67,0
46305,note_on,1,0,9,,,,,,,,4,,,69,48
46319,note_on,29,0,10,,,,,,,,5,,,62,0
46319,note_on,14,0,9,,,,,,,,4,,,69,0
46319,note_on,59,0,11,,,,,,,,6,,,58,0
46319,note_on,59,0,13,,,,,,,,8,,,31,0
46320,note_on,1,0,9,,,,,,,,4,,,67,48
46320,note_on,1,0,11,,,,,,,,6,,,55,48
46320,note_on,1,0,13,,,,,,,,8,,,36,48
46320,note_on,1,0,10,,,,,,,,5,,,64,48
46334,note_on,14,0,9,,,,,,,,4,,,67,0
46335,note_on,1,0,9,,,,,,,,4,,,69,48
46349,note_on,14,0,9,,,,,,,,4,,,69,0
46350,note_on,1,0,9,,,,,,,,4,,,67,48
46364,note_on,14,0,9,,,,,,,,4,,,67,0
46365,note_on,1,0,9,,,,,,,,4,,,69,48
46379,note_on,59,0,13,,,,,,,,8,,,36,0
46379,note_on,14,0,9,,,,,,,,4,,,69,0
46379,note_on,59,0,11,,,,,,,,6,,,55,0
46380,note_on,1,0,9,,,,,,,,4,,,65,48
46380,note_on,1,0,13,,,,,,,,8,,,36,48
46380,note_on,1,0,11,,,,,,,,6,,,60,48
46409,note_on,29,0,9,,,,,,,,4,,,65,0
46410,note_on,1,0,9,,,,,,,,4,,,67,48
46439,note_on,59,0,11,,,,,,,,6,,,60,0
46439,note_on,119,0,10,,,,,,,,5,,,64,0
46439,note_on,59,0,13,,,,,,,,8,,,36,0
46439,note_on,29,0,9,,,,,,,,4,,,67,0
46440,note_on,1,0,9,,,,,,,,4,,,65,48
46440,note_on,1,0,11,,,,,,,,6,,,57,48
46440,note_on,1,0,10,,,,,,,,5,,,65,48
46440,note_on,1,0,13,,,,,,,,8,,,29,48
46529,note_on,89,0,9,,,,,,,,4,,,65,0
46529,note_on,89,0,10,,,,,,,,5,,,65,0
46530,note_on,1,0,9,,,,,,,,4,,,60,48
46530,note_on,1,0,10,,,,,,,,5,,,60,48
46559,note_on,29,0,9,,,,,,,,4,,,60,0
46559,note_on,119,0,11,,,,,,,,6,,,57,0
46559,note_on,29,0,10,,,,,,,,5,,,60,0
46559,note_on,119,0,13,,,,,,,,8,,,29,0
46560,note_on,1,0,13,,,,,,,,8,,,29,48
46560,note_on,1,0,11,,,,,,,,6,,,53,48
46560,note_on,1,0,9,,,,,,,,4,,,65,48
46560,note_on,1,0,10,,,,,,,,5,,,57,48
46679,note_on,119,0,10,,,,,,,,5,,,57,0
46679,end_of_track,0,1,10,,,,,,,,,,,,
46679,note_on,119,0,13,,,,,,,,8,,,29,0
46679,note_on,119,0,11,,,,,,,,6,,,53,0
46679,end_of_track,0,1,11,,,,,,,,,,,,
46679,note_on,119,0,9,,,,,,,,4,,,65,0
46679,end_of_track,0,1,9,,,,,,,,,,,,
46679,end_of_track,0,1,13,,,,,,,,,,,,
47040,end_of_track,0,1,0,,,,,,,,,,,,
47040,set_tempo,47040,1,0,,,,,,857143,,,,,,
