tick,type,time,meta,track,numerator,denominator,clocks_per_click,notated_32nd_notes_per_beat,key,tempo,program,channel,control,value,pitch,note,velocity
0,track_name,0,1,0,,,,,,,,,,,,,
0,pitchwheel,0,0,4,,,,,,,,1,,,0,,
0,track_name,0,1,5,,,,,,,,,,,,,
0,program_change,0,0,5,,,,,,,0,2,,,,,
0,control_change,0,0,5,,,,,,,,2,7,127,,,
0,control_change,0,0,5,,,,,,,,2,10,64,,,
0,control_change,0,0,5,,,,,,,,2,93,0,,,
0,control_change,0,0,5,,,,,,,,2,64,0,,,
0,control_change,0,0,4,,,,,,,,1,91,120,,,
0,control_change,0,0,5,,,,,,,,2,91,120,,,
0,track_name,0,1,6,,,,,,,,,,,,,
0,program_change,0,0,6,,,,,,,0,2,,,,,
0,control_change,0,0,6,,,,,,,,2,7,127,,,
0,control_change,0,0,6,,,,,,,,2,10,64,,,
0,control_change,0,0,6,,,,,,,,2,93,0,,,
0,control_change,0,0,6,,,,,,,,2,64,0,,,
0,control_change,0,0,6,,,,,,,,2,91,120,,,
0,pitchwheel,0,0,5,,,,,,,,2,,,0,,
0,control_change,0,0,4,,,,,,,,1,64,0,,,
0,control_change,0,0,4,,,,,,,,1,93,0,,,
0,control_change,0,0,4,,,,,,,,1,10,64,,,
0,control_change,0,0,2,,,,,,,,0,7,127,,,
0,control_change,0,0,2,,,,,,,,0,10,64,,,
0,control_change,0,0,2,,,,,,,,0,93,0,,,
0,control_change,0,0,2,,,,,,,,0,64,0,,,
0,control_change,0,0,2,,,,,,,,0,91,120,,,
0,pitchwheel,0,0,2,,,,,,,,0,,,0,,
0,track_name,0,1,3,,,,,,,,,,,,,
0,program_change,0,0,3,,,,,,,60,1,,,,,
0,control_change,0,0,3,,,,,,,,1,7,127,,,
0,control_change,0,0,3,,,,,,,,1,10,64,,,
0,control_change,0,0,3,,,,,,,,1,93,0,,,
0,control_change,0,0,3,,,,,,,,1,64,0,,,
0,control_change,0,0,3,,,,,,,,1,91,120,,,
0,pitchwheel,0,0,3,,,,,,,,1,,,0,,
0,track_name,0,1,4,,,,,,,,,,,,,
0,program_change,0,0,4,,,,,,,60,1,,,,,
0,control_change,0,0,4,,,,,,,,1,7,127,,,
0,pitchwheel,0,0,6,,,,,,,,2,,,0,,
0,track_name,0,1,12,,,,,,,,,,,,,
0,track_name,0,1,7,,,,,,,,,,,,,
0,program_change,0,0,7,,,,,,,0,2,,,,,
0,pitchwheel,0,0,9,,,,,,,,3,,,0,,
0,track_name,0,1,10,,,,,,,,,,,,,
0,program_change,0,0,10,,,,,,,48,3,,,,,
0,control_change,0,0,10,,,,,,,,3,7,127,,,
0,control_change,0,0,10,,,,,,,,3,10,64,,,
0,control_change,0,0,10,,,,,,,,3,93,0,,,
0,control_change,0,0,10,,,,,,,,3,64,0,,,
0,control_change,0,0,10,,,,,,,,3,91,120,,,
0,pitchwheel,0,0,10,,,,,,,,3,,,0,,
0,track_name,0,1,11,,,,,,,,,,,,,
0,program_change,0,0,11,,,,,,,48,3,,,,,
0,control_change,0,0,11,,,,,,,,3,7,127,,,
0,control_change,0,0,11,,,,,,,,3,10,64,,,
0,control_change,0,0,11,,,,,,,,3,93,0,,,
0,control_change,0,0,11,,,,,,,,3,64,0,,,
0,control_change,0,0,11,,,,,,,,3,91,120,,,
0,pitchwheel,0,0,11,,,,,,,,3,,,0,,
0,control_change,0,0,9,,,,,,,,3,91,120,,,
0,program_change,0,0,2,,,,,,,68,0,,,,,
0,control_change,0,0,9,,,,,,,,3,64,0,,,
0,control_change,0,0,9,,,,,,,,3,10,64,,,
0,control_change,0,0,7,,,,,,,,2,7,127,,,
0,control_change,0,0,7,,,,,,,,2,10,64,,,
0,control_change,0,0,7,,,,,,,,2,93,0,,,
0,control_change,0,0,7,,,,,,,,2,64,0,,,
0,control_change,0,0,7,,,,,,,,2,91,120,,,
0,pitchwheel,0,0,7,,,,,,,,2,,,0,,
0,track_name,0,1,8,,,,,,,,,,,,,
0,program_change,0,0,8,,,,,,,48,3,,,,,
0,control_change,0,0,8,,,,,,,,3,7,127,,,
0,control_change,0,0,8,,,,,,,,3,10,64,,,
0,control_change,0,0,8,,,,,,,,3,93,0,,,
0,control_change,0,0,8,,,,,,,,3,64,0,,,
0,control_change,0,0,8,,,,,,,,3,91,120,,,
0,pitchwheel,0,0,8,,,,,,,,3,,,0,,
0,track_name,0,1,9,,,,,,,,,,,,,
0,program_change,0,0,9,,,,,,,48,3,,,,,
0,control_change,0,0,9,,,,,,,,3,7,127,,,
0,control_change,0,0,9,,,,,,,,3,93,0,,,
0,track_name,0,1,2,,,,,,,,,,,,,
0,end_of_track,0,1,12,,,,,,,,,,,,,
0,set_tempo,0,1,0,,,,,,545455,,,,,,,
0,control_change,0,0,1,,,,,,,,0,93,0,,,
0,program_change,0,0,1,,,,,,,68,0,,,,,
0,track_name,0,1,1,,,,,,,,,,,,,
0,end_of_track,0,1,0,,,,,,,,,,,,,
0,key_signature,0,1,0,,,,,Bb,,,,,,,,
0,time_signature,0,1,0,4,4,24,8,,,,,,,,,
0,text,0,1,0,,,,,,,,,,,,,
0,track_name,0,1,0,,,,,,,,,,,,,
0,control_change,0,0,1,,,,,,,,0,10,64,,,
0,control_change,0,0,1,,,,,,,,0,64,0,,,
0,pitchwheel,0,0,1,,,,,,,,0,,,0,,
0,control_change,0,0,1,,,,,,,,0,91,120,,,
0,control_change,0,0,1,,,,,,,,0,7,127,,,
192,note_on,192,0,6,,,,,,,,2,,,,62,85
192,note_on,192,0,5,,,,,,,,2,,,,77,85
237,note_on,45,0,6,,,,,,,,2,,,,62,0
237,note_on,45,0,5,,,,,,,,2,,,,77,0
240,note_on,3,0,6,,,,,,,,2,,,,63,85
240,note_on,3,0,5,,,,,,,,2,,,,79,85
285,note_on,45,0,6,,,,,,,,2,,,,63,0
285,note_on,45,0,5,,,,,,,,2,,,,79,0
288,note_on,3,0,5,,,,,,,,2,,,,75,85
288,note_on,3,0,6,,,,,,,,2,,,,60,85
333,note_on,45,0,5,,,,,,,,2,,,,75,0
333,note_on,45,0,6,,,,,,,,2,,,,60,0
336,note_on,3,0,6,,,,,,,,2,,,,62,85
336,note_on,3,0,5,,,,,,,,2,,,,77,85
381,note_on,45,0,6,,,,,,,,2,,,,62,0
381,note_on,45,0,5,,,,,,,,2,,,,77,0
384,note_on,384,0,10,,,,,,,,3,,,,58,49
384,note_on,3,0,6,,,,,,,,2,,,,58,85
384,note_on,384,0,11,,,,,,,,3,,,,46,49
384,note_on,3,0,5,,,,,,,,2,,,,74,85
473,note_on,89,0,5,,,,,,,,2,,,,74,0
473,note_on,89,0,11,,,,,,,,3,,,,46,0
473,note_on,89,0,6,,,,,,,,2,,,,58,0
480,note_on,480,0,8,,,,,,,,3,,,,65,49
480,note_on,480,0,9,,,,,,,,3,,,,62,49
519,note_on,39,0,9,,,,,,,,3,,,,62,0
569,note_on,89,0,8,,,,,,,,3,,,,65,0
576,note_on,7,0,8,,,,,,,,3,,,,65,49
576,note_on,57,0,9,,,,,,,,3,,,,62,49
576,note_on,103,0,6,,,,,,,,2,,,,65,85
576,note_on,103,0,5,,,,,,,,2,,,,74,85
621,note_on,45,0,6,,,,,,,,2,,,,65,0
621,note_on,45,0,5,,,,,,,,2,,,,74,0
624,note_on,3,0,5,,,,,,,,2,,,,75,85
624,note_on,3,0,6,,,,,,,,2,,,,67,85
665,note_on,89,0,8,,,,,,,,3,,,,65,0
665,note_on,89,0,9,,,,,,,,3,,,,62,0
669,note_on,45,0,5,,,,,,,,2,,,,75,0
669,note_on,45,0,6,,,,,,,,2,,,,67,0
672,note_on,3,0,5,,,,,,,,2,,,,72,85
672,note_on,3,0,6,,,,,,,,2,,,,63,85
672,note_on,7,0,8,,,,,,,,3,,,,70,49
672,note_on,7,0,9,,,,,,,,3,,,,65,49
717,note_on,45,0,6,,,,,,,,2,,,,63,0
717,note_on,45,0,5,,,,,,,,2,,,,72,0
720,note_on,3,0,6,,,,,,,,2,,,,65,85
720,note_on,3,0,5,,,,,,,,2,,,,74,85
738,note_on,354,0,10,,,,,,,,3,,,,58,0
761,note_on,89,0,8,,,,,,,,3,,,,70,0
761,note_on,89,0,9,,,,,,,,3,,,,65,0
765,note_on,45,0,6,,,,,,,,2,,,,65,0
765,note_on,45,0,5,,,,,,,,2,,,,74,0
768,note_on,3,0,6,,,,,,,,2,,,,62,85
768,note_on,295,0,11,,,,,,,,3,,,,34,49
768,note_on,3,0,5,,,,,,,,2,,,,70,85
768,note_on,30,0,10,,,,,,,,3,,,,70,49
857,note_on,89,0,6,,,,,,,,2,,,,62,0
857,note_on,89,0,11,,,,,,,,3,,,,34,0
857,note_on,89,0,5,,,,,,,,2,,,,70,0
864,note_on,103,0,9,,,,,,,,3,,,,62,49
864,note_on,103,0,8,,,,,,,,3,,,,70,49
903,note_on,39,0,8,,,,,,,,3,,,,70,0
903,note_on,39,0,9,,,,,,,,3,,,,62,0
960,note_on,57,0,9,,,,,,,,3,,,,62,49
960,note_on,103,0,5,,,,,,,,2,,,,70,85
960,note_on,57,0,8,,,,,,,,3,,,,70,49
1005,note_on,45,0,5,,,,,,,,2,,,,70,0
1008,note_on,3,0,5,,,,,,,,2,,,,72,85
1049,note_on,89,0,9,,,,,,,,3,,,,62,0
1049,note_on,89,0,8,,,,,,,,3,,,,70,0
1053,note_on,45,0,5,,,,,,,,2,,,,72,0
1056,note_on,3,0,5,,,,,,,,2,,,,69,85
1056,note_on,7,0,8,,,,,,,,3,,,,74,49
1056,note_on,199,0,6,,,,,,,,2,,,,58,85
1056,note_on,7,0,9,,,,,,,,3,,,,65,49
1056,note_on,1056,0,7,,,,,,,,2,,,,46,85
1101,note_on,45,0,5,,,,,,,,2,,,,69,0
1104,note_on,3,0,5,,,,,,,,2,,,,70,85
1122,note_on,354,0,10,,,,,,,,3,,,,70,0
1145,note_on,89,0,7,,,,,,,,2,,,,46,0
1145,note_on,89,0,8,,,,,,,,3,,,,74,0
1145,note_on,89,0,9,,,,,,,,3,,,,65,0
1149,note_on,45,0,5,,,,,,,,2,,,,70,0
1152,note_on,295,0,11,,,,,,,,3,,,,39,49
1152,note_on,7,0,7,,,,,,,,2,,,,51,85
1152,note_on,3,0,5,,,,,,,,2,,,,67,85
1152,note_on,30,0,10,,,,,,,,3,,,,58,49
1241,note_on,185,0,6,,,,,,,,2,,,,58,0
1241,note_on,89,0,5,,,,,,,,2,,,,67,0
1241,note_on,89,0,10,,,,,,,,3,,,,58,0
1241,note_on,89,0,11,,,,,,,,3,,,,39,0
1248,note_on,7,0,6,,,,,,,,2,,,,55,85
1248,note_on,7,0,5,,,,,,,,2,,,,75,85
1248,note_on,103,0,8,,,,,,,,3,,,,63,49
1248,note_on,103,0,9,,,,,,,,3,,,,55,49
1287,note_on,39,0,9,,,,,,,,3,,,,55,0
1287,note_on,39,0,8,,,,,,,,3,,,,63,0
1329,note_on,177,0,7,,,,,,,,2,,,,51,0
1344,note_on,15,0,7,,,,,,,,2,,,,48,85
1344,note_on,57,0,8,,,,,,,,3,,,,63,49
1344,note_on,57,0,9,,,,,,,,3,,,,55,49
1344,note_on,103,0,10,,,,,,,,3,,,,60,49
1344,note_on,103,0,11,,,,,,,,3,,,,36,49
1425,note_on,177,0,5,,,,,,,,2,,,,75,0
1425,note_on,177,0,6,,,,,,,,2,,,,55,0
1433,note_on,89,0,10,,,,,,,,3,,,,60,0
1433,note_on,89,0,7,,,,,,,,2,,,,48,0
1433,note_on,89,0,9,,,,,,,,3,,,,55,0
1433,note_on,89,0,11,,,,,,,,3,,,,36,0
1433,note_on,89,0,8,,,,,,,,3,,,,63,0
1440,note_on,7,0,7,,,,,,,,2,,,,51,85
1440,note_on,15,0,5,,,,,,,,2,,,,72,85
1440,note_on,15,0,6,,,,,,,,2,,,,60,85
1440,note_on,7,0,8,,,,,,,,3,,,,67,49
1440,note_on,7,0,9,,,,,,,,3,,,,63,49
1529,note_on,89,0,6,,,,,,,,2,,,,60,0
1529,note_on,89,0,8,,,,,,,,3,,,,67,0
1529,note_on,89,0,5,,,,,,,,2,,,,72,0
1529,note_on,89,0,9,,,,,,,,3,,,,63,0
1529,note_on,89,0,7,,,,,,,,2,,,,51,0
1536,note_on,7,0,6,,,,,,,,2,,,,60,85
1536,note_on,7,0,5,,,,,,,,2,,,,70,85
1536,note_on,7,0,7,,,,,,,,2,,,,53,85
1536,note_on,103,0,10,,,,,,,,3,,,,60,49
1536,note_on,103,0,11,,,,,,,,3,,,,41,49
1542,note_on,0,0,5,,,,,,,,2,,,,69,85
1542,note_on,6,0,5,,,,,,,,2,,,,70,0
1625,note_on,89,0,11,,,,,,,,3,,,,41,0
1625,note_on,83,0,5,,,,,,,,2,,,,69,0
1625,note_on,89,0,6,,,,,,,,2,,,,60,0
1625,note_on,89,0,7,,,,,,,,2,,,,53,0
1632,note_on,7,0,5,,,,,,,,2,,,,72,85
1632,note_on,103,0,9,,,,,,,,3,,,,57,49
1632,note_on,103,0,8,,,,,,,,3,,,,60,49
1671,note_on,39,0,9,,,,,,,,3,,,,57,0
1671,note_on,39,0,8,,,,,,,,3,,,,60,0
1677,note_on,45,0,5,,,,,,,,2,,,,72,0
1680,note_on,3,0,5,,,,,,,,2,,,,69,85
1713,note_on,177,0,10,,,,,,,,3,,,,60,0
1725,note_on,45,0,5,,,,,,,,2,,,,69,0
1728,note_on,57,0,8,,,,,,,,3,,,,60,49
1728,note_on,103,0,6,,,,,,,,2,,,,57,85
1728,note_on,57,0,9,,,,,,,,3,,,,57,49
1728,note_on,3,0,5,,,,,,,,2,,,,77,85
1773,note_on,45,0,6,,,,,,,,2,,,,57,0
1773,note_on,45,0,5,,,,,,,,2,,,,77,0
1776,note_on,3,0,6,,,,,,,,2,,,,58,85
1776,note_on,3,0,5,,,,,,,,2,,,,79,85
1817,note_on,89,0,9,,,,,,,,3,,,,57,0
1817,note_on,89,0,8,,,,,,,,3,,,,60,0
1821,note_on,45,0,5,,,,,,,,2,,,,79,0
1821,note_on,45,0,6,,,,,,,,2,,,,58,0
1824,note_on,3,0,6,,,,,,,,2,,,,60,85
1824,note_on,7,0,8,,,,,,,,3,,,,69,49
1824,note_on,3,0,5,,,,,,,,2,,,,75,85
1824,note_on,7,0,9,,,,,,,,3,,,,60,49
1869,note_on,45,0,6,,,,,,,,2,,,,60,0
1869,note_on,45,0,5,,,,,,,,2,,,,75,0
1872,note_on,3,0,6,,,,,,,,2,,,,62,85
1872,note_on,3,0,5,,,,,,,,2,,,,77,85
1913,note_on,89,0,8,,,,,,,,3,,,,69,0
1913,note_on,89,0,9,,,,,,,,3,,,,60,0
1917,note_on,45,0,6,,,,,,,,2,,,,62,0
1917,note_on,45,0,5,,,,,,,,2,,,,77,0
1920,note_on,3,0,5,,,,,,,,2,,,,74,85
1920,note_on,3,0,6,,,,,,,,2,,,,58,85
1920,note_on,295,0,11,,,,,,,,3,,,,46,49
1920,note_on,207,0,10,,,,,,,,3,,,,58,49
2009,note_on,89,0,6,,,,,,,,2,,,,58,0
2009,note_on,89,0,11,,,,,,,,3,,,,46,0
2009,note_on,89,0,5,,,,,,,,2,,,,74,0
2016,note_on,103,0,8,,,,,,,,3,,,,65,49
2016,note_on,103,0,9,,,,,,,,3,,,,62,49
2055,note_on,39,0,8,,,,,,,,3,,,,65,0
2055,note_on,39,0,9,,,,,,,,3,,,,62,0
2112,note_on,57,0,9,,,,,,,,3,,,,62,49
2112,note_on,57,0,8,,,,,,,,3,,,,65,49
2112,note_on,103,0,5,,,,,,,,2,,,,74,85
2112,note_on,103,0,6,,,,,,,,2,,,,65,85
2157,note_on,45,0,6,,,,,,,,2,,,,65,0
2157,note_on,45,0,5,,,,,,,,2,,,,74,0
2160,note_on,3,0,6,,,,,,,,2,,,,67,85
2160,note_on,3,0,5,,,,,,,,2,,,,75,85
2201,note_on,89,0,8,,,,,,,,3,,,,65,0
2201,note_on,89,0,9,,,,,,,,3,,,,62,0
2205,note_on,45,0,5,,,,,,,,2,,,,75,0
2205,note_on,45,0,6,,,,,,,,2,,,,67,0
2208,note_on,3,0,6,,,,,,,,2,,,,63,85
2208,note_on,3,0,5,,,,,,,,2,,,,72,85
2208,note_on,7,0,9,,,,,,,,3,,,,65,49
2208,note_on,7,0,8,,,,,,,,3,,,,70,49
2253,note_on,45,0,6,,,,,,,,2,,,,63,0
2253,note_on,45,0,5,,,,,,,,2,,,,72,0
2256,note_on,3,0,6,,,,,,,,2,,,,65,85
2256,note_on,3,0,5,,,,,,,,2,,,,74,85
2274,note_on,354,0,10,,,,,,,,3,,,,58,0
2297,note_on,89,0,8,,,,,,,,3,,,,70,0
2297,note_on,89,0,9,,,,,,,,3,,,,65,0
2301,note_on,45,0,6,,,,,,,,2,,,,65,0
2301,note_on,45,0,5,,,,,,,,2,,,,74,0
2304,note_on,295,0,11,,,,,,,,3,,,,34,49
2304,note_on,3,0,6,,,,,,,,2,,,,62,85
2304,note_on,3,0,5,,,,,,,,2,,,,70,85
2304,note_on,30,0,10,,,,,,,,3,,,,70,49
2393,note_on,89,0,6,,,,,,,,2,,,,62,0
2393,note_on,89,0,5,,,,,,,,2,,,,70,0
2393,note_on,89,0,11,,,,,,,,3,,,,34,0
2400,note_on,103,0,8,,,,,,,,3,,,,70,49
2400,note_on,103,0,9,,,,,,,,3,,,,62,49
2439,note_on,39,0,8,,,,,,,,3,,,,70,0
2439,note_on,39,0,9,,,,,,,,3,,,,62,0
2496,note_on,103,0,5,,,,,,,,2,,,,70,85
2496,note_on,57,0,8,,,,,,,,3,,,,70,49
2496,note_on,57,0,9,,,,,,,,3,,,,62,49
2541,note_on,45,0,5,,,,,,,,2,,,,70,0
2544,note_on,3,0,5,,,,,,,,2,,,,72,85
2585,note_on,89,0,8,,,,,,,,3,,,,70,0
2585,note_on,89,0,9,,,,,,,,3,,,,62,0
2589,note_on,45,0,5,,,,,,,,2,,,,72,0
2592,note_on,3,0,5,,,,,,,,2,,,,69,85
2592,note_on,967,0,7,,,,,,,,2,,,,46,85
2592,note_on,7,0,8,,,,,,,,3,,,,74,49
2592,note_on,199,0,6,,,,,,,,2,,,,58,85
2592,note_on,7,0,9,,,,,,,,3,,,,65,49
2637,note_on,45,0,5,,,,,,,,2,,,,69,0
2640,note_on,3,0,5,,,,,,,,2,,,,70,85
2658,note_on,354,0,10,,,,,,,,3,,,,70,0
2681,note_on,89,0,9,,,,,,,,3,,,,65,0
2681,note_on,89,0,7,,,,,,,,2,,,,46,0
2681,note_on,89,0,8,,,,,,,,3,,,,74,0
2685,note_on,45,0,5,,,,,,,,2,,,,70,0
2688,note_on,295,0,11,,,,,,,,3,,,,39,49
2688,note_on,3,0,5,,,,,,,,2,,,,67,85
2688,note_on,30,0,10,,,,,,,,3,,,,58,49
2688,note_on,7,0,7,,,,,,,,2,,,,51,85
2733,note_on,45,0,5,,,,,,,,2,,,,67,0
2736,note_on,3,0,5,,,,,,,,2,,,,72,85
2777,note_on,89,0,10,,,,,,,,3,,,,58,0
2777,note_on,185,0,6,,,,,,,,2,,,,58,0
2781,note_on,45,0,5,,,,,,,,2,,,,72,0
2784,note_on,3,0,5,,,,,,,,2,,,,75,85
2784,note_on,7,0,6,,,,,,,,2,,,,60,85
2784,note_on,103,0,9,,,,,,,,3,,,,67,49
2784,note_on,103,0,8,,,,,,,,3,,,,75,49
2784,note_on,7,0,10,,,,,,,,3,,,,60,49
2829,note_on,45,0,5,,,,,,,,2,,,,75,0
2832,note_on,3,0,5,,,,,,,,2,,,,72,85
2865,note_on,177,0,11,,,,,,,,3,,,,39,0
2865,note_on,177,0,7,,,,,,,,2,,,,51,0
2873,note_on,89,0,8,,,,,,,,3,,,,75,0
2873,note_on,89,0,9,,,,,,,,3,,,,67,0
2877,note_on,45,0,5,,,,,,,,2,,,,72,0
2880,note_on,15,0,11,,,,,,,,3,,,,41,49
2880,note_on,15,0,7,,,,,,,,2,,,,53,85
2880,note_on,3,0,5,,,,,,,,2,,,,70,85
2886,note_on,0,0,5,,,,,,,,2,,,,69,85
2886,note_on,6,0,5,,,,,,,,2,,,,70,0
2961,note_on,177,0,10,,,,,,,,3,,,,60,0
2961,note_on,177,0,6,,,,,,,,2,,,,60,0
2969,note_on,83,0,5,,,,,,,,2,,,,69,0
2976,note_on,103,0,9,,,,,,,,3,,,,63,49
2976,note_on,15,0,10,,,,,,,,3,,,,60,49
2976,note_on,15,0,6,,,,,,,,2,,,,63,85
2976,note_on,7,0,5,,,,,,,,2,,,,67,85
2976,note_on,103,0,8,,,,,,,,3,,,,69,49
3021,note_on,45,0,5,,,,,,,,2,,,,67,0
3024,note_on,3,0,5,,,,,,,,2,,,,69,85
3057,note_on,177,0,7,,,,,,,,2,,,,53,0
3057,note_on,177,0,11,,,,,,,,3,,,,41,0
3065,note_on,89,0,10,,,,,,,,3,,,,60,0
3065,note_on,89,0,9,,,,,,,,3,,,,63,0
3065,note_on,89,0,8,,,,,,,,3,,,,69,0
3065,note_on,89,0,6,,,,,,,,2,,,,63,0
3069,note_on,45,0,5,,,,,,,,2,,,,69,0
3072,note_on,7,0,10,,,,,,,,3,,,,58,49
3072,note_on,7,0,9,,,,,,,,3,,,,62,49
3072,note_on,7,0,8,,,,,,,,3,,,,70,49
3072,note_on,15,0,11,,,,,,,,3,,,,34,49
3072,note_on,15,0,7,,,,,,,,2,,,,58,85
3072,note_on,3,0,5,,,,,,,,2,,,,70,85
3072,note_on,7,0,6,,,,,,,,2,,,,62,85
3161,note_on,89,0,9,,,,,,,,3,,,,62,0
3161,note_on,89,0,5,,,,,,,,2,,,,70,0
3161,note_on,89,0,6,,,,,,,,2,,,,62,0
3161,note_on,89,0,8,,,,,,,,3,,,,70,0
3161,note_on,89,0,7,,,,,,,,2,,,,58,0
3161,note_on,89,0,10,,,,,,,,3,,,,58,0
3161,note_on,89,0,11,,,,,,,,3,,,,34,0
3168,note_on,7,0,8,,,,,,,,3,,,,58,49
3168,note_on,7,0,6,,,,,,,,2,,,,46,85
3257,note_on,89,0,6,,,,,,,,2,,,,46,0
3257,note_on,89,0,8,,,,,,,,3,,,,58,0
3264,note_on,3264,0,1,,,,,,,,0,,,,77,64
3264,note_on,0,0,1,,,,,,,,0,,,,74,64
3264,note_on,7,0,8,,,,,,,,3,,,,77,85
3264,note_on,103,0,9,,,,,,,,3,,,,62,85
3309,note_on,45,0,9,,,,,,,,3,,,,62,0
3309,note_on,45,0,8,,,,,,,,3,,,,77,0
3312,note_on,3,0,8,,,,,,,,3,,,,79,85
3312,note_on,3,0,9,,,,,,,,3,,,,63,85
3353,note_on,0,0,1,,,,,,,,0,,,,77,0
3353,note_on,89,0,1,,,,,,,,0,,,,74,0
3357,note_on,45,0,8,,,,,,,,3,,,,79,0
3357,note_on,45,0,9,,,,,,,,3,,,,63,0
3360,note_on,0,0,1,,,,,,,,0,,,,72,64
3360,note_on,7,0,1,,,,,,,,0,,,,75,64
3360,note_on,3,0,8,,,,,,,,3,,,,75,85
3360,note_on,3,0,9,,,,,,,,3,,,,60,85
3405,note_on,45,0,8,,,,,,,,3,,,,75,0
3405,note_on,45,0,9,,,,,,,,3,,,,60,0
3408,note_on,3,0,9,,,,,,,,3,,,,62,85
3408,note_on,3,0,8,,,,,,,,3,,,,77,85
3449,note_on,89,0,1,,,,,,,,0,,,,72,0
3449,note_on,0,0,1,,,,,,,,0,,,,75,0
3453,note_on,45,0,8,,,,,,,,3,,,,77,0
3453,note_on,45,0,9,,,,,,,,3,,,,62,0
3456,note_on,3456,0,4,,,,,,,,1,,,,58,64
3456,note_on,7,0,1,,,,,,,,0,,,,74,64
3456,note_on,295,0,10,,,,,,,,3,,,,58,85
3456,note_on,295,0,11,,,,,,,,3,,,,34,85
3456,note_on,3456,0,3,,,,,,,,1,,,,70,64
3456,note_on,0,0,1,,,,,,,,0,,,,70,64
3456,note_on,3,0,8,,,,,,,,3,,,,74,85
3456,note_on,3,0,9,,,,,,,,3,,,,58,85
3545,note_on,0,0,1,,,,,,,,0,,,,74,0
3545,note_on,89,0,10,,,,,,,,3,,,,58,0
3545,note_on,89,0,8,,,,,,,,3,,,,74,0
3545,note_on,89,0,1,,,,,,,,0,,,,70,0
3545,note_on,89,0,9,,,,,,,,3,,,,58,0
3545,note_on,89,0,11,,,,,,,,3,,,,34,0
3552,note_on,7,0,11,,,,,,,,3,,,,46,85
3552,note_on,7,0,10,,,,,,,,3,,,,70,85
3641,note_on,89,0,10,,,,,,,,3,,,,70,0
3641,note_on,89,0,11,,,,,,,,3,,,,46,0
3648,note_on,103,0,1,,,,,,,,0,,,,74,64
3648,note_on,0,0,1,,,,,,,,0,,,,65,64
3648,note_on,7,0,10,,,,,,,,3,,,,70,85
3648,note_on,7,0,11,,,,,,,,3,,,,46,85
3648,note_on,103,0,9,,,,,,,,3,,,,65,85
3648,note_on,103,0,8,,,,,,,,3,,,,74,85
3693,note_on,45,0,8,,,,,,,,3,,,,74,0
3693,note_on,45,0,9,,,,,,,,3,,,,65,0
3696,note_on,3,0,9,,,,,,,,3,,,,67,85
3696,note_on,3,0,8,,,,,,,,3,,,,75,85
3737,note_on,89,0,10,,,,,,,,3,,,,70,0
3737,note_on,89,0,11,,,,,,,,3,,,,46,0
3737,note_on,89,0,1,,,,,,,,0,,,,65,0
3737,note_on,0,0,1,,,,,,,,0,,,,74,0
3741,note_on,45,0,8,,,,,,,,3,,,,75,0
3741,note_on,45,0,9,,,,,,,,3,,,,67,0
3744,note_on,7,0,10,,,,,,,,3,,,,70,85
3744,note_on,7,0,11,,,,,,,,3,,,,46,85
3744,note_on,3,0,8,,,,,,,,3,,,,72,85
3744,note_on,7,0,1,,,,,,,,0,,,,72,64
3744,note_on,0,0,1,,,,,,,,0,,,,63,64
3744,note_on,3,0,9,,,,,,,,3,,,,63,85
3789,note_on,45,0,9,,,,,,,,3,,,,63,0
3789,note_on,45,0,8,,,,,,,,3,,,,72,0
3792,note_on,3,0,9,,,,,,,,3,,,,65,85
3792,note_on,3,0,8,,,,,,,,3,,,,74,85
3833,note_on,89,0,10,,,,,,,,3,,,,70,0
3833,note_on,89,0,11,,,,,,,,3,,,,46,0
3833,note_on,89,0,1,,,,,,,,0,,,,63,0
3833,note_on,0,0,1,,,,,,,,0,,,,72,0
3837,note_on,45,0,8,,,,,,,,3,,,,74,0
3837,note_on,45,0,9,,,,,,,,3,,,,65,0
3840,note_on,7,0,1,,,,,,,,0,,,,70,64
3840,note_on,7,0,11,,,,,,,,3,,,,34,85
3840,note_on,3,0,8,,,,,,,,3,,,,70,85
3840,note_on,3,0,9,,,,,,,,3,,,,62,85
3840,note_on,0,0,1,,,,,,,,0,,,,62,64
3840,note_on,7,0,10,,,,,,,,3,,,,58,85
3929,note_on,89,0,8,,,,,,,,3,,,,70,0
3929,note_on,89,0,1,,,,,,,,0,,,,62,0
3929,note_on,89,0,10,,,,,,,,3,,,,58,0
3929,note_on,89,0,9,,,,,,,,3,,,,62,0
3929,note_on,89,0,11,,,,,,,,3,,,,34,0
3929,note_on,0,0,1,,,,,,,,0,,,,70,0
3936,note_on,7,0,11,,,,,,,,3,,,,46,85
3936,note_on,7,0,10,,,,,,,,3,,,,70,85
4025,note_on,89,0,11,,,,,,,,3,,,,46,0
4025,note_on,89,0,10,,,,,,,,3,,,,70,0
4032,note_on,7,0,11,,,,,,,,3,,,,46,85
4032,note_on,103,0,1,,,,,,,,0,,,,82,64
4032,note_on,0,0,1,,,,,,,,0,,,,74,64
4032,note_on,103,0,9,,,,,,,,3,,,,62,85
4032,note_on,103,0,8,,,,,,,,3,,,,70,85
4032,note_on,7,0,10,,,,,,,,3,,,,70,85
4077,note_on,45,0,9,,,,,,,,3,,,,62,0
4077,note_on,45,0,8,,,,,,,,3,,,,70,0
4080,note_on,3,0,8,,,,,,,,3,,,,72,85
4080,note_on,3,0,9,,,,,,,,3,,,,63,85
4121,note_on,89,0,1,,,,,,,,0,,,,74,0
4121,note_on,89,0,10,,,,,,,,3,,,,70,0
4121,note_on,0,0,1,,,,,,,,0,,,,82,0
4121,note_on,89,0,11,,,,,,,,3,,,,46,0
4125,note_on,45,0,8,,,,,,,,3,,,,72,0
4125,note_on,45,0,9,,,,,,,,3,,,,63,0
4128,note_on,0,0,1,,,,,,,,0,,,,77,64
4128,note_on,7,0,1,,,,,,,,0,,,,81,64
4128,note_on,3,0,9,,,,,,,,3,,,,65,85
4128,note_on,7,0,10,,,,,,,,3,,,,58,85
4128,note_on,3,0,8,,,,,,,,3,,,,69,85
4128,note_on,7,0,11,,,,,,,,3,,,,46,85
4173,note_on,45,0,8,,,,,,,,3,,,,69,0
4173,note_on,45,0,9,,,,,,,,3,,,,65,0
4176,note_on,3,0,8,,,,,,,,3,,,,70,85
4176,note_on,3,0,9,,,,,,,,3,,,,67,85
4194,note_on,738,0,4,,,,,,,,1,,,,58,0
4194,note_on,738,0,3,,,,,,,,1,,,,70,0
4217,note_on,0,0,1,,,,,,,,0,,,,81,0
4217,note_on,89,0,10,,,,,,,,3,,,,58,0
4217,note_on,89,0,11,,,,,,,,3,,,,46,0
4217,note_on,89,0,1,,,,,,,,0,,,,77,0
4221,note_on,45,0,9,,,,,,,,3,,,,67,0
4221,note_on,45,0,8,,,,,,,,3,,,,70,0
4224,note_on,3,0,8,,,,,,,,3,,,,67,85
4224,note_on,3,0,9,,,,,,,,3,,,,63,85
4224,note_on,0,0,1,,,,,,,,0,,,,75,64
4224,note_on,7,0,1,,,,,,,,0,,,,79,64
4224,note_on,7,0,11,,,,,,,,3,,,,39,85
4224,note_on,7,0,10,,,,,,,,3,,,,58,85
4313,note_on,0,0,1,,,,,,,,0,,,,79,0
4313,note_on,89,0,8,,,,,,,,3,,,,67,0
4313,note_on,89,0,10,,,,,,,,3,,,,58,0
4313,note_on,89,0,1,,,,,,,,0,,,,75,0
4313,note_on,89,0,9,,,,,,,,3,,,,63,0
4320,note_on,7,0,10,,,,,,,,3,,,,60,85
4320,note_on,7,0,9,,,,,,,,3,,,,67,85
4320,note_on,7,0,1,,,,,,,,0,,,,75,64
4320,note_on,7,0,8,,,,,,,,3,,,,75,85
4320,note_on,0,0,1,,,,,,,,0,,,,67,64
4401,note_on,177,0,11,,,,,,,,3,,,,39,0
4416,note_on,15,0,11,,,,,,,,3,,,,36,85
4497,note_on,177,0,9,,,,,,,,3,,,,67,0
4497,note_on,177,0,10,,,,,,,,3,,,,60,0
4497,note_on,177,0,8,,,,,,,,3,,,,75,0
4497,note_on,177,0,1,,,,,,,,0,,,,67,0
4497,note_on,0,0,1,,,,,,,,0,,,,75,0
4512,note_on,15,0,10,,,,,,,,3,,,,60,85
4512,note_on,15,0,1,,,,,,,,0,,,,72,64
4512,note_on,15,0,9,,,,,,,,3,,,,63,85
4512,note_on,0,0,1,,,,,,,,0,,,,63,64
4512,note_on,15,0,8,,,,,,,,3,,,,72,85
4593,note_on,177,0,11,,,,,,,,3,,,,36,0
4601,note_on,89,0,8,,,,,,,,3,,,,72,0
4601,note_on,89,0,9,,,,,,,,3,,,,63,0
4601,note_on,89,0,10,,,,,,,,3,,,,60,0
4601,note_on,89,0,1,,,,,,,,0,,,,63,0
4601,note_on,0,0,1,,,,,,,,0,,,,72,0
4608,note_on,15,0,11,,,,,,,,3,,,,41,85
4608,note_on,0,0,1,,,,,,,,0,,,,65,64
4608,note_on,7,0,1,,,,,,,,0,,,,69,64
4608,note_on,7,0,9,,,,,,,,3,,,,62,85
4608,note_on,7,0,8,,,,,,,,3,,,,70,85
4608,note_on,7,0,10,,,,,,,,3,,,,65,85
4614,note_on,6,0,8,,,,,,,,3,,,,70,0
4614,note_on,0,0,9,,,,,,,,3,,,,60,85
4614,note_on,6,0,9,,,,,,,,3,,,,62,0
4614,note_on,0,0,8,,,,,,,,3,,,,69,85
4697,note_on,83,0,9,,,,,,,,3,,,,60,0
4697,note_on,83,0,8,,,,,,,,3,,,,69,0
4697,note_on,89,0,1,,,,,,,,0,,,,65,0
4697,note_on,0,0,1,,,,,,,,0,,,,69,0
4697,note_on,89,0,10,,,,,,,,3,,,,65,0
4704,note_on,7,0,10,,,,,,,,3,,,,53,85
4704,note_on,7,0,9,,,,,,,,3,,,,57,85
4704,note_on,510,0,4,,,,,,,,1,,,,65,64
4704,note_on,510,0,3,,,,,,,,1,,,,65,64
4704,note_on,7,0,8,,,,,,,,3,,,,72,85
4749,note_on,45,0,8,,,,,,,,3,,,,72,0
4752,note_on,3,0,8,,,,,,,,3,,,,69,85
4785,note_on,177,0,11,,,,,,,,3,,,,41,0
4793,note_on,89,0,3,,,,,,,,1,,,,65,0
4793,note_on,89,0,4,,,,,,,,1,,,,65,0
4793,note_on,89,0,10,,,,,,,,3,,,,53,0
4793,note_on,89,0,9,,,,,,,,3,,,,57,0
4797,note_on,45,0,8,,,,,,,,3,,,,69,0
4800,note_on,7,0,10,,,,,,,,3,,,,65,85
4800,note_on,103,0,1,,,,,,,,0,,,,77,64
4800,note_on,3,0,8,,,,,,,,3,,,,77,85
4800,note_on,7,0,4,,,,,,,,1,,,,65,64
4800,note_on,7,0,9,,,,,,,,3,,,,69,85
4800,note_on,0,0,1,,,,,,,,0,,,,69,64
4800,note_on,7,0,3,,,,,,,,1,,,,65,64
4845,note_on,45,0,8,,,,,,,,3,,,,77,0
4845,note_on,45,0,9,,,,,,,,3,,,,69,0
4848,note_on,3,0,9,,,,,,,,3,,,,70,85
4848,note_on,3,0,8,,,,,,,,3,,,,79,85
4889,note_on,89,0,3,,,,,,,,1,,,,65,0
4889,note_on,89,0,1,,,,,,,,0,,,,69,0
4889,note_on,0,0,1,,,,,,,,0,,,,77,0
4889,note_on,89,0,10,,,,,,,,3,,,,65,0
4889,note_on,89,0,4,,,,,,,,1,,,,65,0
4893,note_on,45,0,9,,,,,,,,3,,,,70,0
4893,note_on,45,0,8,,,,,,,,3,,,,79,0
4896,note_on,7,0,4,,,,,,,,1,,,,65,64
4896,note_on,7,0,3,,,,,,,,1,,,,65,64
4896,note_on,7,0,1,,,,,,,,0,,,,81,64
4896,note_on,0,0,1,,,,,,,,0,,,,75,64
4896,note_on,3,0,8,,,,,,,,3,,,,75,85
4896,note_on,7,0,10,,,,,,,,3,,,,65,85
4896,note_on,111,0,11,,,,,,,,3,,,,41,85
4896,note_on,3,0,9,,,,,,,,3,,,,72,85
4941,note_on,45,0,9,,,,,,,,3,,,,72,0
4941,note_on,45,0,8,,,,,,,,3,,,,75,0
4944,note_on,3,0,9,,,,,,,,3,,,,69,85
4944,note_on,3,0,8,,,,,,,,3,,,,77,85
4985,note_on,0,0,1,,,,,,,,0,,,,81,0
4985,note_on,89,0,11,,,,,,,,3,,,,41,0
4985,note_on,89,0,3,,,,,,,,1,,,,65,0
4985,note_on,89,0,4,,,,,,,,1,,,,65,0
4985,note_on,89,0,1,,,,,,,,0,,,,75,0
4989,note_on,45,0,9,,,,,,,,3,,,,69,0
4989,note_on,45,0,8,,,,,,,,3,,,,77,0
4992,note_on,3,0,9,,,,,,,,3,,,,70,85
4992,note_on,0,0,1,,,,,,,,0,,,,74,64
4992,note_on,7,0,1,,,,,,,,0,,,,82,64
4992,note_on,7,0,11,,,,,,,,3,,,,46,85
4992,note_on,3,0,8,,,,,,,,3,,,,74,85
4992,note_on,7,0,4,,,,,,,,1,,,,70,64
4992,note_on,7,0,3,,,,,,,,1,,,,70,64
5081,note_on,89,0,8,,,,,,,,3,,,,74,0
5081,note_on,89,0,11,,,,,,,,3,,,,46,0
5081,note_on,89,0,1,,,,,,,,0,,,,74,0
5081,note_on,89,0,3,,,,,,,,1,,,,70,0
5081,note_on,89,0,4,,,,,,,,1,,,,70,0
5081,note_on,185,0,10,,,,,,,,3,,,,65,0
5081,note_on,0,0,1,,,,,,,,0,,,,82,0
5081,note_on,89,0,9,,,,,,,,3,,,,70,0
5088,note_on,7,0,11,,,,,,,,3,,,,41,85
5088,note_on,7,0,4,,,,,,,,1,,,,65,64
5088,note_on,7,0,10,,,,,,,,3,,,,65,85
5088,note_on,7,0,3,,,,,,,,1,,,,65,64
5177,note_on,89,0,3,,,,,,,,1,,,,65,0
5177,note_on,89,0,4,,,,,,,,1,,,,65,0
5177,note_on,89,0,11,,,,,,,,3,,,,41,0
5184,note_on,7,0,4,,,,,,,,1,,,,62,64
5184,note_on,103,0,8,,,,,,,,3,,,,74,85
5184,note_on,7,0,3,,,,,,,,1,,,,62,64
5184,note_on,0,0,1,,,,,,,,0,,,,77,64
5184,note_on,7,0,11,,,,,,,,3,,,,38,85
5184,note_on,103,0,1,,,,,,,,0,,,,82,64
5184,note_on,103,0,9,,,,,,,,3,,,,65,85
5229,note_on,45,0,8,,,,,,,,3,,,,74,0
5229,note_on,45,0,9,,,,,,,,3,,,,65,0
5232,note_on,3,0,9,,,,,,,,3,,,,67,85
5232,note_on,3,0,8,,,,,,,,3,,,,75,85
5265,note_on,177,0,10,,,,,,,,3,,,,65,0
5273,note_on,0,0,1,,,,,,,,0,,,,82,0
5273,note_on,89,0,1,,,,,,,,0,,,,77,0
5273,note_on,89,0,3,,,,,,,,1,,,,62,0
5273,note_on,89,0,4,,,,,,,,1,,,,62,0
5273,note_on,89,0,11,,,,,,,,3,,,,38,0
5277,note_on,45,0,9,,,,,,,,3,,,,67,0
5277,note_on,45,0,8,,,,,,,,3,,,,75,0
5280,note_on,15,0,10,,,,,,,,3,,,,65,85
5280,note_on,3,0,8,,,,,,,,3,,,,72,85
5280,note_on,7,0,11,,,,,,,,3,,,,41,85
5280,note_on,0,0,1,,,,,,,,0,,,,81,64
5280,note_on,3,0,9,,,,,,,,3,,,,63,85
5280,note_on,7,0,3,,,,,,,,1,,,,65,64
5280,note_on,7,0,4,,,,,,,,1,,,,65,64
5280,note_on,7,0,1,,,,,,,,0,,,,84,64
5325,note_on,45,0,9,,,,,,,,3,,,,63,0
5325,note_on,45,0,8,,,,,,,,3,,,,72,0
5328,note_on,3,0,8,,,,,,,,3,,,,74,85
5328,note_on,3,0,9,,,,,,,,3,,,,65,85
5369,note_on,89,0,11,,,,,,,,3,,,,41,0
5369,note_on,89,0,3,,,,,,,,1,,,,65,0
5369,note_on,89,0,4,,,,,,,,1,,,,65,0
5369,note_on,0,0,1,,,,,,,,0,,,,84,0
5369,note_on,89,0,1,,,,,,,,0,,,,81,0
5373,note_on,45,0,8,,,,,,,,3,,,,74,0
5373,note_on,45,0,9,,,,,,,,3,,,,65,0
5376,note_on,7,0,3,,,,,,,,1,,,,70,64
5376,note_on,7,0,11,,,,,,,,3,,,,34,85
5376,note_on,7,0,4,,,,,,,,1,,,,58,64
5376,note_on,3,0,8,,,,,,,,3,,,,70,85
5376,note_on,3,0,9,,,,,,,,3,,,,62,85
5376,note_on,7,0,1,,,,,,,,0,,,,86,64
5376,note_on,0,0,1,,,,,,,,0,,,,82,64
5465,note_on,89,0,4,,,,,,,,1,,,,58,0
5465,note_on,89,0,1,,,,,,,,0,,,,82,0
5465,note_on,0,0,1,,,,,,,,0,,,,86,0
5465,note_on,185,0,10,,,,,,,,3,,,,65,0
5465,note_on,89,0,11,,,,,,,,3,,,,34,0
5465,note_on,89,0,3,,,,,,,,1,,,,70,0
5465,note_on,89,0,9,,,,,,,,3,,,,62,0
5465,note_on,89,0,8,,,,,,,,3,,,,70,0
5472,note_on,7,0,10,,,,,,,,3,,,,58,85
5472,note_on,7,0,11,,,,,,,,3,,,,46,85
5561,note_on,89,0,11,,,,,,,,3,,,,46,0
5561,note_on,89,0,10,,,,,,,,3,,,,58,0
5568,note_on,103,0,9,,,,,,,,3,,,,70,85
5568,note_on,103,0,8,,,,,,,,3,,,,70,85
5568,note_on,103,0,3,,,,,,,,1,,,,70,64
5568,note_on,103,0,4,,,,,,,,1,,,,58,64
5568,note_on,7,0,10,,,,,,,,3,,,,62,85
5568,note_on,7,0,11,,,,,,,,3,,,,38,85
5568,note_on,103,0,1,,,,,,,,0,,,,82,64
5568,note_on,0,0,1,,,,,,,,0,,,,74,64
5588,note_on,20,0,8,,,,,,,,3,,,,70,0
5588,note_on,20,0,9,,,,,,,,3,,,,70,0
5616,note_on,28,0,8,,,,,,,,3,,,,74,85
5616,note_on,28,0,9,,,,,,,,3,,,,74,85
5636,note_on,20,0,9,,,,,,,,3,,,,74,0
5636,note_on,20,0,8,,,,,,,,3,,,,74,0
5657,note_on,89,0,10,,,,,,,,3,,,,62,0
5657,note_on,89,0,11,,,,,,,,3,,,,38,0
5664,note_on,7,0,10,,,,,,,,3,,,,62,85
5664,note_on,28,0,9,,,,,,,,3,,,,77,85
5664,note_on,28,0,8,,,,,,,,3,,,,77,85
5664,note_on,7,0,11,,,,,,,,3,,,,38,85
5684,note_on,20,0,9,,,,,,,,3,,,,77,0
5684,note_on,20,0,8,,,,,,,,3,,,,77,0
5712,note_on,28,0,8,,,,,,,,3,,,,82,85
5712,note_on,28,0,9,,,,,,,,3,,,,82,85
5732,note_on,20,0,9,,,,,,,,3,,,,82,0
5732,note_on,20,0,8,,,,,,,,3,,,,82,0
5745,note_on,177,0,1,,,,,,,,0,,,,74,0
5745,note_on,0,0,1,,,,,,,,0,,,,82,0
5753,note_on,89,0,11,,,,,,,,3,,,,38,0
5753,note_on,89,0,10,,,,,,,,3,,,,62,0
5760,note_on,28,0,9,,,,,,,,3,,,,78,85
5760,note_on,28,0,8,,,,,,,,3,,,,78,85
5760,note_on,0,0,1,,,,,,,,0,,,,75,64
5760,note_on,7,0,10,,,,,,,,3,,,,63,85
5760,note_on,15,0,1,,,,,,,,0,,,,79,64
5760,note_on,7,0,11,,,,,,,,3,,,,39,85
5805,note_on,45,0,8,,,,,,,,3,,,,78,0
5805,note_on,45,0,9,,,,,,,,3,,,,78,0
5808,note_on,3,0,8,,,,,,,,3,,,,79,85
5808,note_on,3,0,9,,,,,,,,3,,,,79,85
5849,note_on,89,0,10,,,,,,,,3,,,,63,0
5849,note_on,89,0,11,,,,,,,,3,,,,39,0
5853,note_on,45,0,9,,,,,,,,3,,,,79,0
5853,note_on,45,0,8,,,,,,,,3,,,,79,0
5856,note_on,3,0,9,,,,,,,,3,,,,75,85
5856,note_on,7,0,11,,,,,,,,3,,,,39,85
5856,note_on,3,0,8,,,,,,,,3,,,,75,85
5856,note_on,7,0,10,,,,,,,,3,,,,63,85
5876,note_on,20,0,8,,,,,,,,3,,,,75,0
5876,note_on,20,0,9,,,,,,,,3,,,,75,0
5904,note_on,28,0,9,,,,,,,,3,,,,72,85
5904,note_on,28,0,8,,,,,,,,3,,,,72,85
5924,note_on,20,0,9,,,,,,,,3,,,,72,0
5924,note_on,20,0,8,,,,,,,,3,,,,72,0
5937,note_on,177,0,1,,,,,,,,0,,,,75,0
5937,note_on,0,0,1,,,,,,,,0,,,,79,0
5937,note_on,369,0,3,,,,,,,,1,,,,70,0
5937,note_on,369,0,4,,,,,,,,1,,,,58,0
5945,note_on,89,0,10,,,,,,,,3,,,,63,0
5945,note_on,89,0,11,,,,,,,,3,,,,39,0
5952,note_on,15,0,4,,,,,,,,1,,,,65,64
5952,note_on,15,0,3,,,,,,,,1,,,,65,64
5952,note_on,28,0,8,,,,,,,,3,,,,74,85
5952,note_on,7,0,10,,,,,,,,3,,,,65,85
5952,note_on,0,0,1,,,,,,,,0,,,,63,64
5952,note_on,15,0,1,,,,,,,,0,,,,69,64
5952,note_on,7,0,11,,,,,,,,3,,,,41,85
5952,note_on,28,0,9,,,,,,,,3,,,,74,85
5972,note_on,20,0,8,,,,,,,,3,,,,74,0
5972,note_on,20,0,9,,,,,,,,3,,,,74,0
6000,note_on,28,0,9,,,,,,,,3,,,,75,85
6000,note_on,28,0,8,,,,,,,,3,,,,75,85
6020,note_on,20,0,9,,,,,,,,3,,,,75,0
6020,note_on,20,0,8,,,,,,,,3,,,,75,0
6041,note_on,89,0,10,,,,,,,,3,,,,65,0
6041,note_on,89,0,11,,,,,,,,3,,,,41,0
6048,note_on,28,0,8,,,,,,,,3,,,,72,85
6048,note_on,28,0,9,,,,,,,,3,,,,72,85
6048,note_on,7,0,10,,,,,,,,3,,,,65,85
6048,note_on,7,0,11,,,,,,,,3,,,,41,85
6068,note_on,20,0,8,,,,,,,,3,,,,72,0
6068,note_on,20,0,9,,,,,,,,3,,,,72,0
6096,note_on,28,0,8,,,,,,,,3,,,,69,85
6096,note_on,28,0,9,,,,,,,,3,,,,69,85
6116,note_on,20,0,9,,,,,,,,3,,,,69,0
6116,note_on,20,0,8,,,,,,,,3,,,,69,0
6129,note_on,177,0,1,,,,,,,,0,,,,63,0
6129,note_on,0,0,1,,,,,,,,0,,,,69,0
6129,note_on,177,0,3,,,,,,,,1,,,,65,0
6129,note_on,177,0,4,,,,,,,,1,,,,65,0
6137,note_on,89,0,10,,,,,,,,3,,,,65,0
6137,note_on,89,0,11,,,,,,,,3,,,,41,0
6144,note_on,0,0,1,,,,,,,,0,,,,62,64
6144,note_on,15,0,3,,,,,,,,1,,,,65,64
6144,note_on,28,0,8,,,,,,,,3,,,,70,85
6144,note_on,15,0,1,,,,,,,,0,,,,70,64
6144,note_on,15,0,4,,,,,,,,1,,,,58,64
6144,note_on,28,0,9,,,,,,,,3,,,,70,85
6144,note_on,7,0,10,,,,,,,,3,,,,58,85
6144,note_on,7,0,11,,,,,,,,3,,,,34,85
6164,note_on,20,0,9,,,,,,,,3,,,,70,0
6192,note_on,28,0,9,,,,,,,,3,,,,69,85
6212,note_on,20,0,9,,,,,,,,3,,,,69,0
6233,note_on,89,0,1,,,,,,,,0,,,,62,0
6233,note_on,89,0,3,,,,,,,,1,,,,65,0
6233,note_on,89,0,8,,,,,,,,3,,,,70,0
6233,note_on,89,0,4,,,,,,,,1,,,,58,0
6233,note_on,0,0,1,,,,,,,,0,,,,70,0
6240,note_on,28,0,9,,,,,,,,3,,,,70,85
6260,note_on,20,0,9,,,,,,,,3,,,,70,0
6288,note_on,28,0,9,,,,,,,,3,,,,65,85
6308,note_on,20,0,9,,,,,,,,3,,,,65,0
6321,note_on,177,0,10,,,,,,,,3,,,,58,0
6321,note_on,177,0,11,,,,,,,,3,,,,34,0
6336,note_on,103,0,8,,,,,,,,3,,,,70,49
6336,note_on,28,0,9,,,,,,,,3,,,,62,49
6356,note_on,20,0,9,,,,,,,,3,,,,62,0
6384,note_on,28,0,9,,,,,,,,3,,,,60,49
6404,note_on,20,0,9,,,,,,,,3,,,,60,0
6425,note_on,89,0,8,,,,,,,,3,,,,70,0
6432,note_on,28,0,9,,,,,,,,3,,,,62,49
6432,note_on,7,0,8,,,,,,,,3,,,,70,49
6452,note_on,20,0,9,,,,,,,,3,,,,62,0
6480,note_on,28,0,9,,,,,,,,3,,,,58,49
6500,note_on,20,0,9,,,,,,,,3,,,,58,0
6521,note_on,89,0,8,,,,,,,,3,,,,70,0
6528,note_on,207,0,10,,,,,,,,3,,,,65,49
6528,note_on,207,0,11,,,,,,,,3,,,,41,49
6528,note_on,7,0,8,,,,,,,,3,,,,72,49
6528,note_on,0,0,1,,,,,,,,0,,,,69,49
6528,note_on,295,0,1,,,,,,,,0,,,,75,49
6528,note_on,28,0,9,,,,,,,,3,,,,63,49
6548,note_on,20,0,9,,,,,,,,3,,,,63,0
6576,note_on,28,0,9,,,,,,,,3,,,,62,49
6596,note_on,20,0,9,,,,,,,,3,,,,62,0
6624,note_on,28,0,9,,,,,,,,3,,,,63,49
6644,note_on,20,0,9,,,,,,,,3,,,,63,0
6672,note_on,28,0,9,,,,,,,,3,,,,60,49
6692,note_on,20,0,9,,,,,,,,3,,,,60,0
6705,note_on,177,0,8,,,,,,,,3,,,,72,0
6705,note_on,177,0,11,,,,,,,,3,,,,41,0
6705,note_on,177,0,10,,,,,,,,3,,,,65,0
6720,note_on,15,0,8,,,,,,,,3,,,,77,49
6720,note_on,28,0,9,,,,,,,,3,,,,69,49
6740,note_on,20,0,9,,,,,,,,3,,,,69,0
6768,note_on,28,0,9,,,,,,,,3,,,,67,49
6788,note_on,20,0,9,,,,,,,,3,,,,67,0
6816,note_on,28,0,9,,,,,,,,3,,,,69,49
6836,note_on,20,0,9,,,,,,,,3,,,,69,0
6864,note_on,28,0,9,,,,,,,,3,,,,65,49
6884,note_on,20,0,9,,,,,,,,3,,,,65,0
6897,note_on,177,0,8,,,,,,,,3,,,,77,0
6912,note_on,15,0,8,,,,,,,,3,,,,74,49
6912,note_on,207,0,11,,,,,,,,3,,,,34,49
6912,note_on,207,0,10,,,,,,,,3,,,,58,49
6912,note_on,28,0,9,,,,,,,,3,,,,70,49
6912,note_on,384,0,1,,,,,,,,0,,,,69,0
6912,note_on,0,0,1,,,,,,,,0,,,,75,0
6912,note_on,0,0,1,,,,,,,,0,,,,74,49
6912,note_on,0,0,1,,,,,,,,0,,,,70,49
6932,note_on,20,0,9,,,,,,,,3,,,,70,0
6960,note_on,28,0,9,,,,,,,,3,,,,69,49
6980,note_on,20,0,9,,,,,,,,3,,,,69,0
7001,note_on,89,0,8,,,,,,,,3,,,,74,0
7001,note_on,89,0,1,,,,,,,,0,,,,70,0
7001,note_on,89,0,10,,,,,,,,3,,,,58,0
7001,note_on,0,0,1,,,,,,,,0,,,,74,0
7008,note_on,28,0,9,,,,,,,,3,,,,70,49
7028,note_on,20,0,9,,,,,,,,3,,,,70,0
7056,note_on,28,0,9,,,,,,,,3,,,,65,49
7076,note_on,20,0,9,,,,,,,,3,,,,65,0
7089,note_on,177,0,11,,,,,,,,3,,,,34,0
7104,note_on,103,0,8,,,,,,,,3,,,,70,49
7104,note_on,28,0,9,,,,,,,,3,,,,62,49
7124,note_on,20,0,9,,,,,,,,3,,,,62,0
7143,note_on,39,0,8,,,,,,,,3,,,,70,0
7152,note_on,28,0,9,,,,,,,,3,,,,60,49
7172,note_on,20,0,9,,,,,,,,3,,,,60,0
7200,note_on,57,0,8,,,,,,,,3,,,,70,49
7200,note_on,28,0,9,,,,,,,,3,,,,62,49
7220,note_on,20,0,9,,,,,,,,3,,,,62,0
7239,note_on,39,0,8,,,,,,,,3,,,,70,0
7248,note_on,28,0,9,,,,,,,,3,,,,58,49
7268,note_on,20,0,9,,,,,,,,3,,,,58,0
7296,note_on,28,0,9,,,,,,,,3,,,,70,49
7296,note_on,207,0,11,,,,,,,,3,,,,36,49
7296,note_on,57,0,8,,,,,,,,3,,,,79,49
7296,note_on,295,0,10,,,,,,,,3,,,,60,49
7296,note_on,0,0,1,,,,,,,,0,,,,76,49
7296,note_on,295,0,1,,,,,,,,0,,,,82,49
7316,note_on,20,0,9,,,,,,,,3,,,,70,0
7344,note_on,28,0,9,,,,,,,,3,,,,69,49
7364,note_on,20,0,9,,,,,,,,3,,,,69,0
7392,note_on,28,0,9,,,,,,,,3,,,,70,49
7412,note_on,20,0,9,,,,,,,,3,,,,70,0
7440,note_on,28,0,9,,,,,,,,3,,,,67,49
7460,note_on,20,0,9,,,,,,,,3,,,,67,0
7473,note_on,177,0,8,,,,,,,,3,,,,79,0
7473,note_on,177,0,11,,,,,,,,3,,,,36,0
7473,note_on,177,0,10,,,,,,,,3,,,,60,0
7488,note_on,28,0,9,,,,,,,,3,,,,64,49
7488,note_on,15,0,8,,,,,,,,3,,,,84,49
7508,note_on,20,0,9,,,,,,,,3,,,,64,0
7536,note_on,28,0,9,,,,,,,,3,,,,62,49
7556,note_on,20,0,9,,,,,,,,3,,,,62,0
7584,note_on,28,0,9,,,,,,,,3,,,,64,49
7604,note_on,20,0,9,,,,,,,,3,,,,64,0
7632,note_on,28,0,9,,,,,,,,3,,,,60,49
7652,note_on,20,0,9,,,,,,,,3,,,,60,0
7665,note_on,177,0,8,,,,,,,,3,,,,84,0
7680,note_on,28,0,9,,,,,,,,3,,,,65,49
7680,note_on,207,0,10,,,,,,,,3,,,,53,49
7680,note_on,207,0,11,,,,,,,,3,,,,41,49
7680,note_on,384,0,1,,,,,,,,0,,,,76,0
7680,note_on,0,0,1,,,,,,,,0,,,,82,0
7680,note_on,0,0,1,,,,,,,,0,,,,81,49
7680,note_on,0,0,1,,,,,,,,0,,,,77,49
7680,note_on,15,0,8,,,,,,,,3,,,,81,49
7700,note_on,20,0,9,,,,,,,,3,,,,65,0
7728,note_on,28,0,9,,,,,,,,3,,,,64,49
7748,note_on,20,0,9,,,,,,,,3,,,,64,0
7769,note_on,0,0,1,,,,,,,,0,,,,81,0
7769,note_on,89,0,8,,,,,,,,3,,,,81,0
7769,note_on,89,0,1,,,,,,,,0,,,,77,0
7776,note_on,28,0,9,,,,,,,,3,,,,65,49
7796,note_on,20,0,9,,,,,,,,3,,,,65,0
7824,note_on,28,0,9,,,,,,,,3,,,,57,49
7844,note_on,20,0,9,,,,,,,,3,,,,57,0
7857,note_on,177,0,10,,,,,,,,3,,,,53,0
7857,note_on,177,0,11,,,,,,,,3,,,,41,0
7872,note_on,1639,0,3,,,,,,,,1,,,,70,64
7872,note_on,103,0,1,,,,,,,,0,,,,82,64
7872,note_on,0,0,1,,,,,,,,0,,,,70,64
7872,note_on,15,0,10,,,,,,,,3,,,,62,85
7872,note_on,15,0,11,,,,,,,,3,,,,50,85
7872,note_on,28,0,9,,,,,,,,3,,,,58,85
7872,note_on,103,0,8,,,,,,,,3,,,,70,85
7872,note_on,1639,0,4,,,,,,,,1,,,,70,64
7892,note_on,20,0,11,,,,,,,,3,,,,50,0
7892,note_on,20,0,10,,,,,,,,3,,,,62,0
7911,note_on,39,0,9,,,,,,,,3,,,,58,0
7911,note_on,39,0,3,,,,,,,,1,,,,70,0
7911,note_on,39,0,4,,,,,,,,1,,,,70,0
7911,note_on,39,0,8,,,,,,,,3,,,,70,0
7911,note_on,0,0,1,,,,,,,,0,,,,82,0
7911,note_on,39,0,1,,,,,,,,0,,,,70,0
7920,note_on,28,0,10,,,,,,,,3,,,,60,85
7920,note_on,28,0,11,,,,,,,,3,,,,48,85
7940,note_on,20,0,10,,,,,,,,3,,,,60,0
7940,note_on,20,0,11,,,,,,,,3,,,,48,0
7968,note_on,57,0,1,,,,,,,,0,,,,82,64
7968,note_on,57,0,8,,,,,,,,3,,,,70,85
7968,note_on,57,0,3,,,,,,,,1,,,,70,64
7968,note_on,57,0,9,,,,,,,,3,,,,58,85
7968,note_on,0,0,1,,,,,,,,0,,,,70,64
7968,note_on,28,0,11,,,,,,,,3,,,,50,85
7968,note_on,57,0,4,,,,,,,,1,,,,70,64
7968,note_on,28,0,10,,,,,,,,3,,,,62,85
7988,note_on,20,0,10,,,,,,,,3,,,,62,0
7988,note_on,20,0,11,,,,,,,,3,,,,50,0
8007,note_on,39,0,1,,,,,,,,0,,,,70,0
8007,note_on,39,0,3,,,,,,,,1,,,,70,0
8007,note_on,39,0,4,,,,,,,,1,,,,70,0
8007,note_on,39,0,8,,,,,,,,3,,,,70,0
8007,note_on,0,0,1,,,,,,,,0,,,,82,0
8016,note_on,28,0,11,,,,,,,,3,,,,46,85
8016,note_on,28,0,10,,,,,,,,3,,,,58,85
8036,note_on,20,0,10,,,,,,,,3,,,,58,0
8036,note_on,20,0,11,,,,,,,,3,,,,46,0
8057,note_on,89,0,9,,,,,,,,3,,,,58,0
8064,note_on,57,0,4,,,,,,,,1,,,,75,64
8064,note_on,57,0,8,,,,,,,,3,,,,72,85
8064,note_on,57,0,3,,,,,,,,1,,,,75,64
8064,note_on,57,0,1,,,,,,,,0,,,,84,64
8064,note_on,28,0,11,,,,,,,,3,,,,51,85
8064,note_on,28,0,10,,,,,,,,3,,,,63,85
8064,note_on,8064,0,2,,,,,,,,0,,,,72,64
8064,note_on,7,0,9,,,,,,,,3,,,,60,85
8084,note_on,20,0,10,,,,,,,,3,,,,63,0
8084,note_on,20,0,11,,,,,,,,3,,,,51,0
8112,note_on,28,0,10,,,,,,,,3,,,,62,85
8112,note_on,28,0,11,,,,,,,,3,,,,50,85
8132,note_on,20,0,10,,,,,,,,3,,,,62,0
8132,note_on,20,0,11,,,,,,,,3,,,,50,0
8153,note_on,89,0,3,,,,,,,,1,,,,75,0
8153,note_on,89,0,4,,,,,,,,1,,,,75,0
8160,note_on,28,0,10,,,,,,,,3,,,,63,85
8160,note_on,7,0,3,,,,,,,,1,,,,72,64
8160,note_on,28,0,11,,,,,,,,3,,,,51,85
8160,note_on,7,0,4,,,,,,,,1,,,,72,64
8180,note_on,20,0,11,,,,,,,,3,,,,51,0
8180,note_on,20,0,10,,,,,,,,3,,,,63,0
8208,note_on,28,0,11,,,,,,,,3,,,,48,85
8208,note_on,28,0,10,,,,,,,,3,,,,60,85
8228,note_on,20,0,10,,,,,,,,3,,,,60,0
8228,note_on,20,0,11,,,,,,,,3,,,,48,0
8241,note_on,177,0,9,,,,,,,,3,,,,60,0
8241,note_on,177,0,8,,,,,,,,3,,,,72,0
8241,note_on,177,0,2,,,,,,,,0,,,,72,0
8249,note_on,89,0,4,,,,,,,,1,,,,72,0
8249,note_on,89,0,3,,,,,,,,1,,,,72,0
8256,note_on,15,0,8,,,,,,,,3,,,,77,85
8256,note_on,28,0,11,,,,,,,,3,,,,45,85
8256,note_on,15,0,2,,,,,,,,0,,,,77,64
8256,note_on,7,0,3,,,,,,,,1,,,,65,64
8256,note_on,15,0,9,,,,,,,,3,,,,65,85
8256,note_on,7,0,4,,,,,,,,1,,,,65,64
8256,note_on,28,0,10,,,,,,,,3,,,,57,85
8276,note_on,20,0,10,,,,,,,,3,,,,57,0
8276,note_on,20,0,11,,,,,,,,3,,,,45,0
8304,note_on,28,0,11,,,,,,,,3,,,,43,85
8304,note_on,28,0,10,,,,,,,,3,,,,55,85
8324,note_on,20,0,10,,,,,,,,3,,,,55,0
8324,note_on,20,0,11,,,,,,,,3,,,,43,0
8352,note_on,28,0,10,,,,,,,,3,,,,57,85
8352,note_on,28,0,11,,,,,,,,3,,,,45,85
8372,note_on,20,0,10,,,,,,,,3,,,,57,0
8372,note_on,20,0,11,,,,,,,,3,,,,45,0
8400,note_on,28,0,11,,,,,,,,3,,,,41,85
8400,note_on,28,0,10,,,,,,,,3,,,,53,85
8418,note_on,354,0,1,,,,,,,,0,,,,84,0
8420,note_on,20,0,10,,,,,,,,3,,,,53,0
8420,note_on,20,0,11,,,,,,,,3,,,,41,0
8433,note_on,177,0,8,,,,,,,,3,,,,77,0
8433,note_on,177,0,2,,,,,,,,0,,,,77,0
8433,note_on,177,0,4,,,,,,,,1,,,,65,0
8433,note_on,177,0,3,,,,,,,,1,,,,65,0
8433,note_on,177,0,9,,,,,,,,3,,,,65,0
8448,note_on,15,0,9,,,,,,,,3,,,,62,85
8448,note_on,15,0,4,,,,,,,,1,,,,62,64
8448,note_on,15,0,3,,,,,,,,1,,,,70,64
8448,note_on,15,0,2,,,,,,,,0,,,,82,64
8448,note_on,28,0,11,,,,,,,,3,,,,46,85
8448,note_on,30,0,1,,,,,,,,0,,,,86,64
8448,note_on,15,0,8,,,,,,,,3,,,,74,85
8448,note_on,28,0,10,,,,,,,,3,,,,58,85
8468,note_on,20,0,11,,,,,,,,3,,,,46,0
8468,note_on,20,0,10,,,,,,,,3,,,,58,0
8496,note_on,28,0,10,,,,,,,,3,,,,57,85
8496,note_on,28,0,11,,,,,,,,3,,,,45,85
8516,note_on,20,0,10,,,,,,,,3,,,,57,0
8516,note_on,20,0,11,,,,,,,,3,,,,45,0
8544,note_on,28,0,10,,,,,,,,3,,,,58,85
8544,note_on,28,0,11,,,,,,,,3,,,,46,85
8564,note_on,20,0,10,,,,,,,,3,,,,58,0
8564,note_on,20,0,11,,,,,,,,3,,,,46,0
8592,note_on,28,0,10,,,,,,,,3,,,,66,85
8592,note_on,28,0,11,,,,,,,,3,,,,42,85
8612,note_on,20,0,11,,,,,,,,3,,,,42,0
8612,note_on,20,0,10,,,,,,,,3,,,,66,0
8625,note_on,177,0,4,,,,,,,,1,,,,62,0
8625,note_on,177,0,3,,,,,,,,1,,,,70,0
8625,note_on,177,0,9,,,,,,,,3,,,,62,0
8625,note_on,177,0,8,,,,,,,,3,,,,74,0
8640,note_on,28,0,10,,,,,,,,3,,,,67,85
8640,note_on,15,0,4,,,,,,,,1,,,,70,64
8640,note_on,15,0,8,,,,,,,,3,,,,82,85
8640,note_on,15,0,9,,,,,,,,3,,,,70,85
8640,note_on,15,0,3,,,,,,,,1,,,,74,64
8640,note_on,28,0,11,,,,,,,,3,,,,43,85
8660,note_on,20,0,10,,,,,,,,3,,,,67,0
8660,note_on,20,0,11,,,,,,,,3,,,,43,0
8688,note_on,28,0,11,,,,,,,,3,,,,42,85
8688,note_on,28,0,10,,,,,,,,3,,,,66,85
8708,note_on,20,0,11,,,,,,,,3,,,,42,0
8708,note_on,20,0,10,,,,,,,,3,,,,66,0
8736,note_on,28,0,11,,,,,,,,3,,,,43,85
8736,note_on,28,0,10,,,,,,,,3,,,,67,85
8756,note_on,20,0,11,,,,,,,,3,,,,43,0
8756,note_on,20,0,10,,,,,,,,3,,,,67,0
8784,note_on,28,0,11,,,,,,,,3,,,,38,85
8784,note_on,28,0,10,,,,,,,,3,,,,62,85
8802,note_on,354,0,1,,,,,,,,0,,,,86,0
8804,note_on,20,0,10,,,,,,,,3,,,,62,0
8804,note_on,20,0,11,,,,,,,,3,,,,38,0
8817,note_on,177,0,8,,,,,,,,3,,,,82,0
8817,note_on,177,0,9,,,,,,,,3,,,,70,0
8817,note_on,177,0,3,,,,,,,,1,,,,74,0
8832,note_on,28,0,10,,,,,,,,3,,,,63,85
8832,note_on,15,0,3,,,,,,,,1,,,,72,64
8832,note_on,28,0,11,,,,,,,,3,,,,39,85
8832,note_on,30,0,1,,,,,,,,0,,,,84,64
8832,note_on,15,0,8,,,,,,,,3,,,,72,85
8832,note_on,15,0,9,,,,,,,,3,,,,60,85
8852,note_on,20,0,11,,,,,,,,3,,,,39,0
8852,note_on,20,0,10,,,,,,,,3,,,,63,0
8880,note_on,28,0,10,,,,,,,,3,,,,62,85
8880,note_on,28,0,11,,,,,,,,3,,,,38,85
8900,note_on,20,0,10,,,,,,,,3,,,,62,0
8900,note_on,20,0,11,,,,,,,,3,,,,38,0
8928,note_on,28,0,11,,,,,,,,3,,,,39,85
8928,note_on,28,0,10,,,,,,,,3,,,,63,85
8948,note_on,20,0,11,,,,,,,,3,,,,39,0
8948,note_on,20,0,10,,,,,,,,3,,,,63,0
8976,note_on,28,0,10,,,,,,,,3,,,,60,85
8976,note_on,28,0,11,,,,,,,,3,,,,36,85
8996,note_on,20,0,11,,,,,,,,3,,,,36,0
8996,note_on,20,0,10,,,,,,,,3,,,,60,0
9009,note_on,369,0,4,,,,,,,,1,,,,70,0
9009,note_on,177,0,9,,,,,,,,3,,,,60,0
9009,note_on,561,0,2,,,,,,,,0,,,,82,0
9009,note_on,177,0,8,,,,,,,,3,,,,72,0
9024,note_on,15,0,4,,,,,,,,1,,,,65,64
9024,note_on,28,0,11,,,,,,,,3,,,,41,85
9024,note_on,28,0,10,,,,,,,,3,,,,65,85
9024,note_on,15,0,9,,,,,,,,3,,,,69,85
9024,note_on,15,0,8,,,,,,,,3,,,,81,85
9024,note_on,15,0,2,,,,,,,,0,,,,81,64
9044,note_on,20,0,11,,,,,,,,3,,,,41,0
9044,note_on,20,0,10,,,,,,,,3,,,,65,0
9072,note_on,28,0,11,,,,,,,,3,,,,40,85
9072,note_on,28,0,10,,,,,,,,3,,,,64,85
9092,note_on,20,0,10,,,,,,,,3,,,,64,0
9092,note_on,20,0,11,,,,,,,,3,,,,40,0
9120,note_on,28,0,10,,,,,,,,3,,,,65,85
9120,note_on,28,0,11,,,,,,,,3,,,,41,85
9140,note_on,20,0,11,,,,,,,,3,,,,41,0
9140,note_on,20,0,10,,,,,,,,3,,,,65,0
9168,note_on,28,0,10,,,,,,,,3,,,,65,85
9168,note_on,28,0,11,,,,,,,,3,,,,41,85
9186,note_on,354,0,1,,,,,,,,0,,,,84,0
9186,note_on,354,0,3,,,,,,,,1,,,,72,0
9188,note_on,20,0,11,,,,,,,,3,,,,41,0
9188,note_on,20,0,10,,,,,,,,3,,,,65,0
9201,note_on,177,0,4,,,,,,,,1,,,,65,0
9201,note_on,177,0,9,,,,,,,,3,,,,69,0
9201,note_on,177,0,2,,,,,,,,0,,,,81,0
9201,note_on,177,0,8,,,,,,,,3,,,,81,0
9216,note_on,15,0,2,,,,,,,,0,,,,82,64
9216,note_on,28,0,11,,,,,,,,3,,,,34,85
9216,note_on,30,0,1,,,,,,,,0,,,,82,64
9216,note_on,15,0,9,,,,,,,,3,,,,70,85
9216,note_on,28,0,10,,,,,,,,3,,,,58,85
9216,note_on,15,0,8,,,,,,,,3,,,,82,85
9216,note_on,30,0,3,,,,,,,,1,,,,70,64
9216,note_on,15,0,4,,,,,,,,1,,,,62,64
9236,note_on,20,0,9,,,,,,,,3,,,,70,0
9261,note_on,45,0,8,,,,,,,,3,,,,82,0
9264,note_on,3,0,8,,,,,,,,3,,,,77,85
9264,note_on,28,0,9,,,,,,,,3,,,,65,85
9284,note_on,20,0,9,,,,,,,,3,,,,65,0
9309,note_on,45,0,8,,,,,,,,3,,,,77,0
9312,note_on,28,0,9,,,,,,,,3,,,,62,85
9312,note_on,3,0,8,,,,,,,,3,,,,74,85
9332,note_on,20,0,9,,,,,,,,3,,,,62,0
9357,note_on,45,0,8,,,,,,,,3,,,,74,0
9360,note_on,3,0,8,,,,,,,,3,,,,70,85
9360,note_on,28,0,9,,,,,,,,3,,,,65,85
9380,note_on,20,0,9,,,,,,,,3,,,,65,0
9393,note_on,177,0,3,,,,,,,,1,,,,70,0
9393,note_on,177,0,11,,,,,,,,3,,,,34,0
9393,note_on,177,0,10,,,,,,,,3,,,,58,0
9393,note_on,177,0,2,,,,,,,,0,,,,82,0
9393,note_on,177,0,4,,,,,,,,1,,,,62,0
9393,note_on,177,0,1,,,,,,,,0,,,,82,0
9405,note_on,45,0,8,,,,,,,,3,,,,70,0
9408,note_on,28,0,9,,,,,,,,3,,,,62,49
9408,note_on,3,0,8,,,,,,,,3,,,,70,49
9428,note_on,20,0,9,,,,,,,,3,,,,62,0
9456,note_on,28,0,9,,,,,,,,3,,,,60,49
9476,note_on,20,0,9,,,,,,,,3,,,,60,0
9497,note_on,89,0,8,,,,,,,,3,,,,70,0
9504,note_on,28,0,9,,,,,,,,3,,,,58,49
9504,note_on,7,0,8,,,,,,,,3,,,,70,49
9516,note_on,0,0,8,,,,,,,,3,,,,72,49
9516,note_on,12,0,8,,,,,,,,3,,,,70,0
9524,note_on,20,0,9,,,,,,,,3,,,,58,0
9528,note_on,12,0,8,,,,,,,,3,,,,72,0
9528,note_on,0,0,8,,,,,,,,3,,,,70,49
9540,note_on,0,0,8,,,,,,,,3,,,,72,49
9540,note_on,12,0,8,,,,,,,,3,,,,70,0
9552,note_on,0,0,8,,,,,,,,3,,,,70,49
9552,note_on,12,0,8,,,,,,,,3,,,,72,0
9552,note_on,28,0,9,,,,,,,,3,,,,62,49
9564,note_on,0,0,8,,,,,,,,3,,,,72,49
9564,note_on,12,0,8,,,,,,,,3,,,,70,0
9572,note_on,20,0,9,,,,,,,,3,,,,62,0
9576,note_on,12,0,8,,,,,,,,3,,,,72,0
9576,note_on,0,0,8,,,,,,,,3,,,,70,49
9588,note_on,12,0,8,,,,,,,,3,,,,70,0
9588,note_on,0,0,8,,,,,,,,3,,,,72,49
9593,note_on,5,0,8,,,,,,,,3,,,,72,0
9600,note_on,28,0,9,,,,,,,,3,,,,63,49
9600,note_on,207,0,10,,,,,,,,3,,,,51,49
9600,note_on,7,0,8,,,,,,,,3,,,,79,49
9600,note_on,207,0,11,,,,,,,,3,,,,39,49
9620,note_on,20,0,9,,,,,,,,3,,,,63,0
9648,note_on,28,0,9,,,,,,,,3,,,,62,49
9668,note_on,20,0,9,,,,,,,,3,,,,62,0
9689,note_on,89,0,8,,,,,,,,3,,,,79,0
9696,note_on,7,0,8,,,,,,,,3,,,,75,49
9696,note_on,28,0,9,,,,,,,,3,,,,60,49
9716,note_on,20,0,9,,,,,,,,3,,,,60,0
9744,note_on,28,0,9,,,,,,,,3,,,,62,49
9764,note_on,20,0,9,,,,,,,,3,,,,62,0
9777,note_on,177,0,10,,,,,,,,3,,,,51,0
9777,note_on,177,0,11,,,,,,,,3,,,,39,0
9785,note_on,89,0,8,,,,,,,,3,,,,75,0
9792,note_on,28,0,9,,,,,,,,3,,,,63,49
9792,note_on,15,0,10,,,,,,,,3,,,,53,49
9792,note_on,7,0,8,,,,,,,,3,,,,72,49
9792,note_on,15,0,11,,,,,,,,3,,,,41,49
9812,note_on,20,0,9,,,,,,,,3,,,,63,0
9840,note_on,28,0,9,,,,,,,,3,,,,62,49
9860,note_on,20,0,9,,,,,,,,3,,,,62,0
9881,note_on,89,0,8,,,,,,,,3,,,,72,0
9888,note_on,28,0,9,,,,,,,,3,,,,63,49
9888,note_on,7,0,8,,,,,,,,3,,,,69,49
9908,note_on,20,0,9,,,,,,,,3,,,,63,0
9936,note_on,28,0,9,,,,,,,,3,,,,60,49
9956,note_on,20,0,9,,,,,,,,3,,,,60,0
9969,note_on,177,0,10,,,,,,,,3,,,,53,0
9969,note_on,177,0,11,,,,,,,,3,,,,41,0
9977,note_on,89,0,8,,,,,,,,3,,,,69,0
9984,note_on,7,0,8,,,,,,,,3,,,,82,85
9984,note_on,0,0,1,,,,,,,,0,,,,74,64
9984,note_on,591,0,1,,,,,,,,0,,,,82,64
9984,note_on,591,0,3,,,,,,,,1,,,,70,64
9984,note_on,0,0,3,,,,,,,,1,,,,62,64
9984,note_on,15,0,10,,,,,,,,3,,,,58,85
9984,note_on,15,0,11,,,,,,,,3,,,,46,85
9984,note_on,28,0,9,,,,,,,,3,,,,62,85
10004,note_on,20,0,9,,,,,,,,3,,,,62,0
10029,note_on,45,0,8,,,,,,,,3,,,,82,0
10032,note_on,28,0,9,,,,,,,,3,,,,65,85
10032,note_on,3,0,8,,,,,,,,3,,,,77,85
10052,note_on,20,0,9,,,,,,,,3,,,,65,0
10077,note_on,45,0,8,,,,,,,,3,,,,77,0
10080,note_on,3,0,8,,,,,,,,3,,,,74,85
10080,note_on,28,0,9,,,,,,,,3,,,,70,85
10100,note_on,20,0,8,,,,,,,,3,,,,74,0
10100,note_on,20,0,9,,,,,,,,3,,,,70,0
10128,note_on,28,0,9,,,,,,,,3,,,,65,85
10128,note_on,28,0,8,,,,,,,,3,,,,70,85
10148,note_on,20,0,9,,,,,,,,3,,,,65,0
10148,note_on,20,0,8,,,,,,,,3,,,,70,0
10161,note_on,177,0,1,,,,,,,,0,,,,74,0
10161,note_on,177,0,3,,,,,,,,1,,,,62,0
10161,note_on,0,0,3,,,,,,,,1,,,,70,0
10161,note_on,177,0,11,,,,,,,,3,,,,46,0
10161,note_on,0,0,1,,,,,,,,0,,,,82,0
10161,note_on,177,0,10,,,,,,,,3,,,,58,0
10176,note_on,28,0,9,,,,,,,,3,,,,62,49
10176,note_on,28,0,8,,,,,,,,3,,,,70,49
10196,note_on,20,0,9,,,,,,,,3,,,,62,0
10224,note_on,28,0,9,,,,,,,,3,,,,60,49
10244,note_on,20,0,9,,,,,,,,3,,,,60,0
10265,note_on,89,0,8,,,,,,,,3,,,,70,0
10272,note_on,28,0,9,,,,,,,,3,,,,58,49
10272,note_on,7,0,8,,,,,,,,3,,,,70,49
10284,note_on,12,0,8,,,,,,,,3,,,,70,0
10284,note_on,0,0,8,,,,,,,,3,,,,72,49
10292,note_on,20,0,9,,,,,,,,3,,,,58,0
10296,note_on,12,0,8,,,,,,,,3,,,,72,0
10296,note_on,0,0,8,,,,,,,,3,,,,70,49
10308,note_on,0,0,8,,,,,,,,3,,,,72,49
10308,note_on,12,0,8,,,,,,,,3,,,,70,0
10320,note_on,28,0,9,,,,,,,,3,,,,62,49
10320,note_on,12,0,8,,,,,,,,3,,,,72,0
10320,note_on,0,0,8,,,,,,,,3,,,,70,49
10332,note_on,12,0,8,,,,,,,,3,,,,70,0
10332,note_on,0,0,8,,,,,,,,3,,,,72,49
10340,note_on,20,0,9,,,,,,,,3,,,,62,0
10344,note_on,12,0,8,,,,,,,,3,,,,72,0
10344,note_on,0,0,8,,,,,,,,3,,,,70,49
10356,note_on,12,0,8,,,,,,,,3,,,,70,0
10356,note_on,0,0,8,,,,,,,,3,,,,72,49
10361,note_on,5,0,8,,,,,,,,3,,,,72,0
10368,note_on,7,0,8,,,,,,,,3,,,,79,49
10368,note_on,207,0,11,,,,,,,,3,,,,39,49
10368,note_on,207,0,10,,,,,,,,3,,,,51,49
10368,note_on,28,0,9,,,,,,,,3,,,,63,49
10388,note_on,20,0,9,,,,,,,,3,,,,63,0
10416,note_on,28,0,9,,,,,,,,3,,,,62,49
10436,note_on,20,0,9,,,,,,,,3,,,,62,0
10457,note_on,89,0,8,,,,,,,,3,,,,79,0
10464,note_on,28,0,9,,,,,,,,3,,,,60,49
10464,note_on,7,0,8,,,,,,,,3,,,,75,49
10484,note_on,20,0,9,,,,,,,,3,,,,60,0
10512,note_on,28,0,9,,,,,,,,3,,,,62,49
10532,note_on,20,0,9,,,,,,,,3,,,,62,0
10545,note_on,177,0,10,,,,,,,,3,,,,51,0
10545,note_on,177,0,11,,,,,,,,3,,,,39,0
10553,note_on,89,0,8,,,,,,,,3,,,,75,0
10560,note_on,7,0,8,,,,,,,,3,,,,72,49
10560,note_on,15,0,10,,,,,,,,3,,,,53,49
10560,note_on,28,0,9,,,,,,,,3,,,,63,49
10560,note_on,15,0,11,,,,,,,,3,,,,41,49
10580,note_on,20,0,9,,,,,,,,3,,,,63,0
10608,note_on,28,0,9,,,,,,,,3,,,,62,49
10628,note_on,20,0,9,,,,,,,,3,,,,62,0
10649,note_on,89,0,8,,,,,,,,3,,,,72,0
10656,note_on,7,0,8,,,,,,,,3,,,,69,49
10656,note_on,28,0,9,,,,,,,,3,,,,63,49
10676,note_on,20,0,9,,,,,,,,3,,,,63,0
10704,note_on,28,0,9,,,,,,,,3,,,,60,49
10724,note_on,20,0,9,,,,,,,,3,,,,60,0
10737,note_on,177,0,10,,,,,,,,3,,,,53,0
10737,note_on,177,0,11,,,,,,,,3,,,,41,0
10745,note_on,89,0,8,,,,,,,,3,,,,69,0
10752,note_on,15,0,11,,,,,,,,3,,,,34,49
10752,note_on,591,0,1,,,,,,,,0,,,,77,49
10752,note_on,7,0,8,,,,,,,,3,,,,70,49
10752,note_on,15,0,10,,,,,,,,3,,,,53,49
10752,note_on,28,0,9,,,,,,,,3,,,,62,49
10841,note_on,89,0,8,,,,,,,,3,,,,70,0
10841,note_on,89,0,11,,,,,,,,3,,,,34,0
10841,note_on,89,0,10,,,,,,,,3,,,,53,0
10841,note_on,89,0,9,,,,,,,,3,,,,62,0
10848,note_on,7,0,8,,,,,,,,3,,,,76,49
10893,note_on,45,0,8,,,,,,,,3,,,,76,0
10896,note_on,3,0,8,,,,,,,,3,,,,77,49
10941,note_on,45,0,8,,,,,,,,3,,,,77,0
10944,note_on,103,0,11,,,,,,,,3,,,,41,49
11033,note_on,89,0,11,,,,,,,,3,,,,41,0
11040,note_on,99,0,8,,,,,,,,3,,,,74,49
11085,note_on,45,0,8,,,,,,,,3,,,,74,0
11088,note_on,3,0,8,,,,,,,,3,,,,75,49
11133,note_on,45,0,8,,,,,,,,3,,,,75,0
11136,note_on,103,0,11,,,,,,,,3,,,,46,49
11225,note_on,89,0,11,,,,,,,,3,,,,46,0
11232,note_on,391,0,9,,,,,,,,3,,,,64,49
11232,note_on,99,0,8,,,,,,,,3,,,,73,49
11277,note_on,45,0,9,,,,,,,,3,,,,64,0
11277,note_on,45,0,8,,,,,,,,3,,,,73,0
11280,note_on,3,0,9,,,,,,,,3,,,,65,49
11280,note_on,3,0,8,,,,,,,,3,,,,74,49
11325,note_on,45,0,9,,,,,,,,3,,,,65,0
11325,note_on,45,0,8,,,,,,,,3,,,,74,0
11328,note_on,103,0,11,,,,,,,,3,,,,41,49
11417,note_on,89,0,11,,,,,,,,3,,,,41,0
11424,note_on,99,0,9,,,,,,,,3,,,,62,49
11424,note_on,99,0,8,,,,,,,,3,,,,71,49
11469,note_on,45,0,9,,,,,,,,3,,,,62,0
11469,note_on,45,0,8,,,,,,,,3,,,,71,0
11472,note_on,3,0,8,,,,,,,,3,,,,72,49
11472,note_on,3,0,9,,,,,,,,3,,,,63,49
11517,note_on,45,0,8,,,,,,,,3,,,,72,0
11517,note_on,45,0,9,,,,,,,,3,,,,63,0
11520,note_on,679,0,10,,,,,,,,3,,,,65,49
11520,note_on,103,0,11,,,,,,,,3,,,,34,49
11609,note_on,89,0,11,,,,,,,,3,,,,34,0
11616,note_on,99,0,9,,,,,,,,3,,,,61,49
11616,note_on,99,0,8,,,,,,,,3,,,,69,49
11661,note_on,45,0,9,,,,,,,,3,,,,61,0
11661,note_on,45,0,8,,,,,,,,3,,,,69,0
11664,note_on,3,0,9,,,,,,,,3,,,,62,49
11664,note_on,3,0,8,,,,,,,,3,,,,70,49
11697,note_on,945,0,1,,,,,,,,0,,,,77,0
11697,note_on,177,0,10,,,,,,,,3,,,,65,0
11709,note_on,45,0,8,,,,,,,,3,,,,70,0
11709,note_on,45,0,9,,,,,,,,3,,,,62,0
11712,note_on,0,0,1,,,,,,,,0,,,,75,49
11712,note_on,2319,0,4,,,,,,,,1,,,,65,49
11712,note_on,15,0,1,,,,,,,,0,,,,81,49
11712,note_on,1551,0,3,,,,,,,,1,,,,65,49
11712,note_on,103,0,11,,,,,,,,3,,,,41,49
11712,note_on,15,0,10,,,,,,,,3,,,,57,49
11801,note_on,89,0,11,,,,,,,,3,,,,41,0
11808,note_on,99,0,8,,,,,,,,3,,,,71,49
11808,note_on,99,0,9,,,,,,,,3,,,,62,49
11853,note_on,45,0,9,,,,,,,,3,,,,62,0
11853,note_on,45,0,8,,,,,,,,3,,,,71,0
11856,note_on,3,0,9,,,,,,,,3,,,,63,49
11856,note_on,3,0,8,,,,,,,,3,,,,72,49
11889,note_on,177,0,1,,,,,,,,0,,,,75,0
11889,note_on,177,0,10,,,,,,,,3,,,,57,0
11889,note_on,0,0,1,,,,,,,,0,,,,81,0
11889,note_on,177,0,3,,,,,,,,1,,,,65,0
11889,note_on,177,0,4,,,,,,,,1,,,,65,0
11901,note_on,45,0,9,,,,,,,,3,,,,63,0
11901,note_on,45,0,8,,,,,,,,3,,,,72,0
11904,note_on,0,0,1,,,,,,,,0,,,,75,49
11904,note_on,15,0,1,,,,,,,,0,,,,81,49
11904,note_on,3,0,9,,,,,,,,3,,,,63,49
11904,note_on,15,0,4,,,,,,,,1,,,,58,49
11904,note_on,15,0,10,,,,,,,,3,,,,57,49
11904,note_on,103,0,11,,,,,,,,3,,,,34,49
11904,note_on,3,0,8,,,,,,,,3,,,,72,49
11904,note_on,15,0,3,,,,,,,,1,,,,65,49
12081,note_on,177,0,1,,,,,,,,0,,,,75,0
12081,note_on,177,0,9,,,,,,,,3,,,,63,0
12081,note_on,0,0,1,,,,,,,,0,,,,81,0
12081,note_on,177,0,8,,,,,,,,3,,,,72,0
12081,note_on,177,0,10,,,,,,,,3,,,,57,0
12096,note_on,15,0,1,,,,,,,,0,,,,82,49
12096,note_on,0,0,1,,,,,,,,0,,,,74,49
12096,note_on,15,0,8,,,,,,,,3,,,,70,49
12096,note_on,15,0,10,,,,,,,,3,,,,58,49
12096,note_on,15,0,9,,,,,,,,3,,,,62,49
12169,note_on,265,0,11,,,,,,,,3,,,,34,0
12169,note_on,265,0,3,,,,,,,,1,,,,65,0
12169,note_on,265,0,4,,,,,,,,1,,,,58,0
12185,note_on,0,0,1,,,,,,,,0,,,,82,0
12185,note_on,89,0,10,,,,,,,,3,,,,58,0
12185,note_on,89,0,9,,,,,,,,3,,,,62,0
12185,note_on,89,0,8,,,,,,,,3,,,,70,0
12185,note_on,89,0,1,,,,,,,,0,,,,74,0
12288,note_on,103,0,9,,,,,,,,3,,,,74,49
12288,note_on,9031,0,6,,,,,,,,2,,,,58,85
12288,note_on,119,0,11,,,,,,,,3,,,,46,49
12288,note_on,103,0,10,,,,,,,,3,,,,58,49
12288,note_on,9127,0,5,,,,,,,,2,,,,77,85
12288,note_on,103,0,8,,,,,,,,3,,,,77,49
12300,note_on,12,0,5,,,,,,,,2,,,,77,0
12300,note_on,0,0,5,,,,,,,,2,,,,79,85
12312,note_on,0,0,5,,,,,,,,2,,,,77,85
12312,note_on,12,0,5,,,,,,,,2,,,,79,0
12324,note_on,0,0,5,,,,,,,,2,,,,79,85
12324,note_on,12,0,5,,,,,,,,2,,,,77,0
12333,note_on,45,0,6,,,,,,,,2,,,,58,0
12336,note_on,3,0,6,,,,,,,,2,,,,65,85
12336,note_on,12,0,5,,,,,,,,2,,,,79,0
12336,note_on,0,0,5,,,,,,,,2,,,,77,85
12348,note_on,12,0,5,,,,,,,,2,,,,77,0
12348,note_on,0,0,5,,,,,,,,2,,,,79,85
12355,note_on,7,0,5,,,,,,,,2,,,,79,0
12360,note_on,5,0,5,,,,,,,,2,,,,76,85
12372,note_on,12,0,5,,,,,,,,2,,,,76,0
12372,note_on,0,0,5,,,,,,,,2,,,,77,85
12377,note_on,89,0,8,,,,,,,,3,,,,77,0
12377,note_on,89,0,10,,,,,,,,3,,,,58,0
12377,note_on,89,0,11,,,,,,,,3,,,,46,0
12377,note_on,89,0,9,,,,,,,,3,,,,74,0
12381,note_on,45,0,6,,,,,,,,2,,,,65,0
12384,note_on,0,0,5,,,,,,,,2,,,,82,85
12384,note_on,12,0,5,,,,,,,,2,,,,77,0
12384,note_on,3,0,6,,,,,,,,2,,,,62,85
12429,note_on,45,0,5,,,,,,,,2,,,,82,0
12429,note_on,45,0,6,,,,,,,,2,,,,62,0
12432,note_on,3,0,6,,,,,,,,2,,,,65,85
12432,note_on,3,0,5,,,,,,,,2,,,,77,85
12477,note_on,45,0,6,,,,,,,,2,,,,65,0
12477,note_on,45,0,5,,,,,,,,2,,,,77,0
12480,note_on,3,0,6,,,,,,,,2,,,,58,85
12480,note_on,3,0,5,,,,,,,,2,,,,86,85
12525,note_on,45,0,6,,,,,,,,2,,,,58,0
12528,note_on,3,0,6,,,,,,,,2,,,,65,85
12569,note_on,89,0,5,,,,,,,,2,,,,86,0
12573,note_on,45,0,6,,,,,,,,2,,,,65,0
12576,note_on,3,0,6,,,,,,,,2,,,,62,85
12621,note_on,45,0,6,,,,,,,,2,,,,62,0
12624,note_on,3,0,6,,,,,,,,2,,,,65,85
12669,note_on,45,0,6,,,,,,,,2,,,,65,0
12672,note_on,295,0,10,,,,,,,,3,,,,58,49
12672,note_on,295,0,9,,,,,,,,3,,,,74,49
12672,note_on,103,0,5,,,,,,,,2,,,,77,85
12672,note_on,295,0,11,,,,,,,,3,,,,46,49
12672,note_on,3,0,6,,,,,,,,2,,,,58,85
12672,note_on,295,0,8,,,,,,,,3,,,,77,49
12684,note_on,12,0,5,,,,,,,,2,,,,77,0
12684,note_on,0,0,5,,,,,,,,2,,,,79,85
12696,note_on,12,0,5,,,,,,,,2,,,,79,0
12696,note_on,0,0,5,,,,,,,,2,,,,77,85
12708,note_on,12,0,5,,,,,,,,2,,,,77,0
12708,note_on,0,0,5,,,,,,,,2,,,,79,85
12717,note_on,45,0,6,,,,,,,,2,,,,58,0
12720,note_on,12,0,5,,,,,,,,2,,,,79,0
12720,note_on,0,0,5,,,,,,,,2,,,,77,85
12720,note_on,3,0,6,,,,,,,,2,,,,65,85
12732,note_on,0,0,5,,,,,,,,2,,,,79,85
12732,note_on,12,0,5,,,,,,,,2,,,,77,0
12739,note_on,7,0,5,,,,,,,,2,,,,79,0
12744,note_on,5,0,5,,,,,,,,2,,,,76,85
12756,note_on,12,0,5,,,,,,,,2,,,,76,0
12756,note_on,0,0,5,,,,,,,,2,,,,77,85
12761,note_on,89,0,10,,,,,,,,3,,,,58,0
12761,note_on,89,0,11,,,,,,,,3,,,,46,0
12761,note_on,89,0,8,,,,,,,,3,,,,77,0
12761,note_on,89,0,9,,,,,,,,3,,,,74,0
12765,note_on,45,0,6,,,,,,,,2,,,,65,0
12768,note_on,12,0,5,,,,,,,,2,,,,77,0
12768,note_on,0,0,5,,,,,,,,2,,,,82,85
12768,note_on,3,0,6,,,,,,,,2,,,,62,85
12813,note_on,45,0,6,,,,,,,,2,,,,62,0
12813,note_on,45,0,5,,,,,,,,2,,,,82,0
12816,note_on,3,0,5,,,,,,,,2,,,,77,85
12816,note_on,3,0,6,,,,,,,,2,,,,65,85
12861,note_on,45,0,6,,,,,,,,2,,,,65,0
12861,note_on,45,0,5,,,,,,,,2,,,,77,0
12864,note_on,3,0,6,,,,,,,,2,,,,58,85
12864,note_on,3,0,5,,,,,,,,2,,,,86,85
12909,note_on,45,0,6,,,,,,,,2,,,,58,0
12912,note_on,3,0,6,,,,,,,,2,,,,65,85
12953,note_on,89,0,5,,,,,,,,2,,,,86,0
12957,note_on,45,0,6,,,,,,,,2,,,,65,0
12960,note_on,3,0,6,,,,,,,,2,,,,62,85
13005,note_on,45,0,6,,,,,,,,2,,,,62,0
13008,note_on,3,0,6,,,,,,,,2,,,,65,85
13053,note_on,45,0,6,,,,,,,,2,,,,65,0
13056,note_on,295,0,9,,,,,,,,3,,,,69,49
13056,note_on,0,0,9,,,,,,,,3,,,,60,49
13056,note_on,295,0,8,,,,,,,,3,,,,75,49
13056,note_on,0,0,8,,,,,,,,3,,,,65,49
13056,note_on,103,0,5,,,,,,,,2,,,,87,85
13056,note_on,295,0,11,,,,,,,,3,,,,41,49
13056,note_on,295,0,10,,,,,,,,3,,,,65,49
13056,note_on,3,0,6,,,,,,,,2,,,,53,85
13101,note_on,45,0,6,,,,,,,,2,,,,53,0
13101,note_on,45,0,5,,,,,,,,2,,,,87,0
13104,note_on,3,0,6,,,,,,,,2,,,,63,85
13104,note_on,3,0,5,,,,,,,,2,,,,84,85
13149,note_on,45,0,6,,,,,,,,2,,,,63,0
13149,note_on,45,0,5,,,,,,,,2,,,,84,0
13152,note_on,3,0,6,,,,,,,,2,,,,60,85
13152,note_on,3,0,5,,,,,,,,2,,,,81,85
13172,note_on,20,0,5,,,,,,,,2,,,,81,0
13197,note_on,45,0,6,,,,,,,,2,,,,60,0
13200,note_on,3,0,6,,,,,,,,2,,,,63,85
13200,note_on,28,0,5,,,,,,,,2,,,,77,85
13220,note_on,20,0,5,,,,,,,,2,,,,77,0
13233,note_on,177,0,10,,,,,,,,3,,,,65,0
13233,note_on,177,0,9,,,,,,,,3,,,,60,0
13233,note_on,177,0,11,,,,,,,,3,,,,41,0
13233,note_on,177,0,8,,,,,,,,3,,,,65,0
13233,note_on,0,0,8,,,,,,,,3,,,,75,0
13233,note_on,0,0,9,,,,,,,,3,,,,69,0
13245,note_on,45,0,6,,,,,,,,2,,,,63,0
13248,note_on,0,0,8,,,,,,,,3,,,,65,49
13248,note_on,15,0,8,,,,,,,,3,,,,75,49
13248,note_on,28,0,5,,,,,,,,2,,,,84,85
13248,note_on,15,0,9,,,,,,,,3,,,,69,49
13248,note_on,15,0,10,,,,,,,,3,,,,65,49
13248,note_on,15,0,11,,,,,,,,3,,,,41,49
13248,note_on,3,0,6,,,,,,,,2,,,,53,85
13248,note_on,0,0,9,,,,,,,,3,,,,60,49
13293,note_on,45,0,5,,,,,,,,2,,,,84,0
13293,note_on,45,0,6,,,,,,,,2,,,,53,0
13296,note_on,3,0,6,,,,,,,,2,,,,63,85
13296,note_on,3,0,5,,,,,,,,2,,,,81,85
13341,note_on,45,0,5,,,,,,,,2,,,,81,0
13341,note_on,45,0,6,,,,,,,,2,,,,63,0
13344,note_on,3,0,6,,,,,,,,2,,,,60,85
13344,note_on,3,0,5,,,,,,,,2,,,,77,85
13364,note_on,20,0,5,,,,,,,,2,,,,77,0
13389,note_on,45,0,6,,,,,,,,2,,,,60,0
13392,note_on,28,0,5,,,,,,,,2,,,,75,85
13392,note_on,3,0,6,,,,,,,,2,,,,63,85
13412,note_on,20,0,5,,,,,,,,2,,,,75,0
13425,note_on,0,0,9,,,,,,,,3,,,,69,0
13425,note_on,177,0,8,,,,,,,,3,,,,65,0
13425,note_on,177,0,9,,,,,,,,3,,,,60,0
13425,note_on,0,0,8,,,,,,,,3,,,,75,0
13425,note_on,177,0,11,,,,,,,,3,,,,41,0
13425,note_on,177,0,10,,,,,,,,3,,,,65,0
13437,note_on,45,0,6,,,,,,,,2,,,,63,0
13440,note_on,15,0,10,,,,,,,,3,,,,65,49
13440,note_on,3,0,6,,,,,,,,2,,,,53,85
13440,note_on,15,0,11,,,,,,,,3,,,,41,49
13440,note_on,28,0,5,,,,,,,,2,,,,81,85
13440,note_on,0,0,9,,,,,,,,3,,,,60,49
13440,note_on,0,0,8,,,,,,,,3,,,,65,49
13440,note_on,15,0,8,,,,,,,,3,,,,75,49
13440,note_on,15,0,9,,,,,,,,3,,,,69,49
13485,note_on,45,0,6,,,,,,,,2,,,,53,0
13485,note_on,45,0,5,,,,,,,,2,,,,81,0
13488,note_on,3,0,5,,,,,,,,2,,,,77,85
13488,note_on,3,0,6,,,,,,,,2,,,,63,85
13533,note_on,45,0,5,,,,,,,,2,,,,77,0
13533,note_on,45,0,6,,,,,,,,2,,,,63,0
13536,note_on,3,0,6,,,,,,,,2,,,,60,85
13536,note_on,3,0,5,,,,,,,,2,,,,75,85
13556,note_on,20,0,5,,,,,,,,2,,,,75,0
13581,note_on,45,0,6,,,,,,,,2,,,,60,0
13584,note_on,3,0,6,,,,,,,,2,,,,63,85
13584,note_on,28,0,5,,,,,,,,2,,,,72,85
13604,note_on,20,0,5,,,,,,,,2,,,,72,0
13617,note_on,177,0,8,,,,,,,,3,,,,65,0
13617,note_on,177,0,10,,,,,,,,3,,,,65,0
13617,note_on,177,0,9,,,,,,,,3,,,,60,0
13617,note_on,177,0,11,,,,,,,,3,,,,41,0
13617,note_on,0,0,8,,,,,,,,3,,,,75,0
13617,note_on,0,0,9,,,,,,,,3,,,,69,0
13629,note_on,45,0,6,,,,,,,,2,,,,63,0
13632,note_on,0,0,9,,,,,,,,3,,,,60,49
13632,note_on,15,0,10,,,,,,,,3,,,,65,49
13632,note_on,0,0,8,,,,,,,,3,,,,65,49
13632,note_on,15,0,8,,,,,,,,3,,,,75,49
13632,note_on,28,0,5,,,,,,,,2,,,,77,85
13632,note_on,15,0,9,,,,,,,,3,,,,69,49
13632,note_on,3,0,6,,,,,,,,2,,,,53,85
13632,note_on,15,0,11,,,,,,,,3,,,,41,49
13677,note_on,45,0,5,,,,,,,,2,,,,77,0
13677,note_on,45,0,6,,,,,,,,2,,,,53,0
13680,note_on,3,0,5,,,,,,,,2,,,,75,85
13680,note_on,3,0,6,,,,,,,,2,,,,63,85
13725,note_on,45,0,5,,,,,,,,2,,,,75,0
13725,note_on,45,0,6,,,,,,,,2,,,,63,0
13728,note_on,3,0,5,,,,,,,,2,,,,72,85
13728,note_on,3,0,6,,,,,,,,2,,,,60,85
13748,note_on,20,0,5,,,,,,,,2,,,,72,0
13773,note_on,45,0,6,,,,,,,,2,,,,60,0
13776,note_on,3,0,6,,,,,,,,2,,,,63,85
13776,note_on,28,0,5,,,,,,,,2,,,,69,85
13796,note_on,20,0,5,,,,,,,,2,,,,69,0
13809,note_on,177,0,9,,,,,,,,3,,,,60,0
13809,note_on,0,0,9,,,,,,,,3,,,,69,0
13809,note_on,177,0,8,,,,,,,,3,,,,65,0
13809,note_on,177,0,10,,,,,,,,3,,,,65,0
13809,note_on,177,0,11,,,,,,,,3,,,,41,0
13809,note_on,0,0,8,,,,,,,,3,,,,75,0
13821,note_on,45,0,6,,,,,,,,2,,,,63,0
13824,note_on,15,0,8,,,,,,,,3,,,,74,49
13824,note_on,15,0,9,,,,,,,,3,,,,70,49
13824,note_on,15,0,11,,,,,,,,3,,,,46,49
13824,note_on,3,0,6,,,,,,,,2,,,,58,85
13824,note_on,0,0,9,,,,,,,,3,,,,62,49
13824,note_on,15,0,10,,,,,,,,3,,,,58,49
13824,note_on,28,0,5,,,,,,,,2,,,,77,85
13836,note_on,0,0,5,,,,,,,,2,,,,79,85
13836,note_on,12,0,5,,,,,,,,2,,,,77,0
13848,note_on,0,0,5,,,,,,,,2,,,,77,85
13848,note_on,12,0,5,,,,,,,,2,,,,79,0
13860,note_on,0,0,5,,,,,,,,2,,,,79,85
13860,note_on,12,0,5,,,,,,,,2,,,,77,0
13869,note_on,45,0,6,,,,,,,,2,,,,58,0
13872,note_on,12,0,5,,,,,,,,2,,,,79,0
13872,note_on,0,0,5,,,,,,,,2,,,,77,85
13872,note_on,3,0,6,,,,,,,,2,,,,65,85
13884,note_on,12,0,5,,,,,,,,2,,,,77,0
13884,note_on,0,0,5,,,,,,,,2,,,,79,85
13891,note_on,7,0,5,,,,,,,,2,,,,79,0
13896,note_on,5,0,5,,,,,,,,2,,,,76,85
13908,note_on,12,0,5,,,,,,,,2,,,,76,0
13908,note_on,0,0,5,,,,,,,,2,,,,77,85
13913,note_on,89,0,11,,,,,,,,3,,,,46,0
13913,note_on,89,0,10,,,,,,,,3,,,,58,0
13913,note_on,89,0,9,,,,,,,,3,,,,62,0
13913,note_on,0,0,9,,,,,,,,3,,,,70,0
13913,note_on,89,0,8,,,,,,,,3,,,,74,0
13917,note_on,45,0,6,,,,,,,,2,,,,65,0
13920,note_on,12,0,5,,,,,,,,2,,,,77,0
13920,note_on,0,0,5,,,,,,,,2,,,,82,85
13920,note_on,3,0,6,,,,,,,,2,,,,62,85
13965,note_on,45,0,5,,,,,,,,2,,,,82,0
13965,note_on,45,0,6,,,,,,,,2,,,,62,0
13968,note_on,3,0,5,,,,,,,,2,,,,77,85
13968,note_on,3,0,6,,,,,,,,2,,,,65,85
14013,note_on,45,0,5,,,,,,,,2,,,,77,0
14013,note_on,45,0,6,,,,,,,,2,,,,65,0
14016,note_on,3,0,5,,,,,,,,2,,,,86,85
14016,note_on,3,0,6,,,,,,,,2,,,,58,85
14061,note_on,45,0,6,,,,,,,,2,,,,58,0
14064,note_on,3,0,6,,,,,,,,2,,,,65,85
14105,note_on,89,0,5,,,,,,,,2,,,,86,0
14109,note_on,45,0,6,,,,,,,,2,,,,65,0
14112,note_on,3,0,6,,,,,,,,2,,,,62,85
14157,note_on,45,0,6,,,,,,,,2,,,,62,0
14160,note_on,3,0,6,,,,,,,,2,,,,65,85
14205,note_on,45,0,6,,,,,,,,2,,,,65,0
14208,note_on,295,0,9,,,,,,,,3,,,,74,49
14208,note_on,295,0,11,,,,,,,,3,,,,46,49
14208,note_on,103,0,5,,,,,,,,2,,,,77,85
14208,note_on,3,0,6,,,,,,,,2,,,,58,85
14208,note_on,295,0,10,,,,,,,,3,,,,58,49
14208,note_on,295,0,8,,,,,,,,3,,,,77,49
14220,note_on,0,0,5,,,,,,,,2,,,,79,85
14220,note_on,12,0,5,,,,,,,,2,,,,77,0
14232,note_on,12,0,5,,,,,,,,2,,,,79,0
14232,note_on,0,0,5,,,,,,,,2,,,,77,85
14244,note_on,12,0,5,,,,,,,,2,,,,77,0
14244,note_on,0,0,5,,,,,,,,2,,,,79,85
14253,note_on,45,0,6,,,,,,,,2,,,,58,0
14256,note_on,3,0,6,,,,,,,,2,,,,65,85
14256,note_on,0,0,5,,,,,,,,2,,,,77,85
14256,note_on,12,0,5,,,,,,,,2,,,,79,0
14268,note_on,12,0,5,,,,,,,,2,,,,77,0
14268,note_on,0,0,5,,,,,,,,2,,,,79,85
14275,note_on,7,0,5,,,,,,,,2,,,,79,0
14280,note_on,5,0,5,,,,,,,,2,,,,76,85
14292,note_on,12,0,5,,,,,,,,2,,,,76,0
14292,note_on,0,0,5,,,,,,,,2,,,,77,85
14297,note_on,89,0,9,,,,,,,,3,,,,74,0
14297,note_on,89,0,8,,,,,,,,3,,,,77,0
14297,note_on,89,0,11,,,,,,,,3,,,,46,0
14297,note_on,89,0,10,,,,,,,,3,,,,58,0
14301,note_on,45,0,6,,,,,,,,2,,,,65,0
14304,note_on,0,0,5,,,,,,,,2,,,,82,85
14304,note_on,12,0,5,,,,,,,,2,,,,77,0
14304,note_on,3,0,6,,,,,,,,2,,,,62,85
14349,note_on,45,0,6,,,,,,,,2,,,,62,0
14349,note_on,45,0,5,,,,,,,,2,,,,82,0
14352,note_on,3,0,5,,,,,,,,2,,,,77,85
14352,note_on,3,0,6,,,,,,,,2,,,,65,85
14397,note_on,45,0,6,,,,,,,,2,,,,65,0
14397,note_on,45,0,5,,,,,,,,2,,,,77,0
14400,note_on,3,0,6,,,,,,,,2,,,,58,85
14400,note_on,3,0,5,,,,,,,,2,,,,86,85
14445,note_on,45,0,6,,,,,,,,2,,,,58,0
14448,note_on,3,0,6,,,,,,,,2,,,,65,85
14489,note_on,89,0,5,,,,,,,,2,,,,86,0
14493,note_on,45,0,6,,,,,,,,2,,,,65,0
14496,note_on,3,0,6,,,,,,,,2,,,,62,85
14541,note_on,45,0,6,,,,,,,,2,,,,62,0
14544,note_on,3,0,6,,,,,,,,2,,,,65,85
14589,note_on,45,0,6,,,,,,,,2,,,,65,0
14592,note_on,0,0,6,,,,,,,,2,,,,51,85
14592,note_on,295,0,9,,,,,,,,3,,,,67,49
14592,note_on,295,0,10,,,,,,,,3,,,,60,49
14592,note_on,3,0,6,,,,,,,,2,,,,60,85
14592,note_on,295,0,8,,,,,,,,3,,,,75,49
14592,note_on,295,0,11,,,,,,,,3,,,,39,49
14592,note_on,103,0,5,,,,,,,,2,,,,78,85
14637,note_on,45,0,5,,,,,,,,2,,,,78,0
14640,note_on,3,0,5,,,,,,,,2,,,,79,85
14681,note_on,89,0,8,,,,,,,,3,,,,75,0
14681,note_on,89,0,10,,,,,,,,3,,,,60,0
14681,note_on,89,0,6,,,,,,,,2,,,,51,0
14681,note_on,0,0,6,,,,,,,,2,,,,60,0
14681,note_on,89,0,9,,,,,,,,3,,,,67,0
14681,note_on,89,0,11,,,,,,,,3,,,,39,0
14685,note_on,45,0,5,,,,,,,,2,,,,79,0
14688,note_on,3,0,5,,,,,,,,2,,,,75,85
14708,note_on,20,0,5,,,,,,,,2,,,,75,0
14736,note_on,28,0,5,,,,,,,,2,,,,72,85
14756,note_on,20,0,5,,,,,,,,2,,,,72,0
14784,note_on,103,0,6,,,,,,,,2,,,,57,85
14784,note_on,0,0,6,,,,,,,,2,,,,53,85
14784,note_on,103,0,9,,,,,,,,3,,,,63,49
14784,note_on,28,0,5,,,,,,,,2,,,,74,85
14784,note_on,103,0,8,,,,,,,,3,,,,69,49
14784,note_on,103,0,10,,,,,,,,3,,,,60,49
14784,note_on,103,0,11,,,,,,,,3,,,,41,49
14829,note_on,45,0,5,,,,,,,,2,,,,74,0
14832,note_on,3,0,5,,,,,,,,2,,,,75,85
14873,note_on,0,0,6,,,,,,,,2,,,,57,0
14873,note_on,89,0,9,,,,,,,,3,,,,63,0
14873,note_on,89,0,8,,,,,,,,3,,,,69,0
14873,note_on,89,0,10,,,,,,,,3,,,,60,0
14873,note_on,89,0,11,,,,,,,,3,,,,41,0
14873,note_on,89,0,6,,,,,,,,2,,,,53,0
14877,note_on,45,0,5,,,,,,,,2,,,,75,0
14880,note_on,3,0,5,,,,,,,,2,,,,72,85
14880,note_on,7,0,6,,,,,,,,2,,,,63,85
14900,note_on,20,0,5,,,,,,,,2,,,,72,0
14928,note_on,28,0,5,,,,,,,,2,,,,69,85
14948,note_on,20,0,5,,,,,,,,2,,,,69,0
14969,note_on,89,0,6,,,,,,,,2,,,,63,0
14976,note_on,103,0,11,,,,,,,,3,,,,46,49
14976,note_on,103,0,10,,,,,,,,3,,,,58,49
14976,note_on,0,0,5,,,,,,,,2,,,,62,85
14976,note_on,0,0,5,,,,,,,,2,,,,65,85
14976,note_on,28,0,5,,,,,,,,2,,,,70,85
14976,note_on,7,0,6,,,,,,,,2,,,,58,85
14976,note_on,0,0,6,,,,,,,,2,,,,46,85
14976,note_on,103,0,8,,,,,,,,3,,,,70,49
14976,note_on,103,0,9,,,,,,,,3,,,,62,49
15015,note_on,39,0,10,,,,,,,,3,,,,58,0
15015,note_on,39,0,11,,,,,,,,3,,,,46,0
15015,note_on,39,0,9,,,,,,,,3,,,,62,0
15015,note_on,39,0,8,,,,,,,,3,,,,70,0
15065,note_on,89,0,6,,,,,,,,2,,,,46,0
15065,note_on,89,0,5,,,,,,,,2,,,,62,0
15065,note_on,0,0,5,,,,,,,,2,,,,65,0
15065,note_on,0,0,5,,,,,,,,2,,,,70,0
15065,note_on,0,0,6,,,,,,,,2,,,,58,0
15072,note_on,7,0,5,,,,,,,,2,,,,72,85
15072,note_on,0,0,5,,,,,,,,2,,,,65,85
15072,note_on,57,0,8,,,,,,,,3,,,,72,49
15072,note_on,7,0,6,,,,,,,,2,,,,53,85
15072,note_on,0,0,6,,,,,,,,2,,,,41,85
15072,note_on,57,0,11,,,,,,,,3,,,,41,49
15072,note_on,57,0,9,,,,,,,,3,,,,69,49
15072,note_on,57,0,10,,,,,,,,3,,,,65,49
15072,note_on,0,0,5,,,,,,,,2,,,,69,85
15111,note_on,39,0,11,,,,,,,,3,,,,41,0
15111,note_on,39,0,8,,,,,,,,3,,,,72,0
15111,note_on,39,0,9,,,,,,,,3,,,,69,0
15111,note_on,39,0,10,,,,,,,,3,,,,65,0
15161,note_on,89,0,5,,,,,,,,2,,,,65,0
15161,note_on,89,0,6,,,,,,,,2,,,,41,0
15161,note_on,0,0,5,,,,,,,,2,,,,69,0
15161,note_on,0,0,5,,,,,,,,2,,,,72,0
15161,note_on,0,0,6,,,,,,,,2,,,,53,0
15168,note_on,57,0,8,,,,,,,,3,,,,74,49
15168,note_on,0,0,6,,,,,,,,2,,,,34,85
15168,note_on,7,0,6,,,,,,,,2,,,,46,85
15168,note_on,0,0,5,,,,,,,,2,,,,70,85
15168,note_on,57,0,11,,,,,,,,3,,,,34,49
15168,note_on,57,0,9,,,,,,,,3,,,,70,49
15168,note_on,0,0,5,,,,,,,,2,,,,65,85
15168,note_on,7,0,5,,,,,,,,2,,,,74,85
15168,note_on,57,0,10,,,,,,,,3,,,,65,49
15207,note_on,39,0,11,,,,,,,,3,,,,34,0
15207,note_on,39,0,10,,,,,,,,3,,,,65,0
15207,note_on,39,0,9,,,,,,,,3,,,,70,0
15207,note_on,39,0,8,,,,,,,,3,,,,74,0
15257,note_on,89,0,6,,,,,,,,2,,,,34,0
15257,note_on,0,0,6,,,,,,,,2,,,,46,0
15257,note_on,89,0,5,,,,,,,,2,,,,65,0
15257,note_on,0,0,5,,,,,,,,2,,,,70,0
15257,note_on,0,0,5,,,,,,,,2,,,,74,0
15264,note_on,3095,0,4,,,,,,,,1,,,,58,64
15309,note_on,45,0,4,,,,,,,,1,,,,58,0
15312,note_on,3,0,4,,,,,,,,1,,,,58,64
15335,note_on,23,0,4,,,,,,,,1,,,,58,0
15336,note_on,1,0,4,,,,,,,,1,,,,58,64
15359,note_on,23,0,4,,,,,,,,1,,,,58,0
15360,note_on,153,0,8,,,,,,,,3,,,,58,34
15360,note_on,153,0,9,,,,,,,,3,,,,58,34
15360,note_on,1,0,4,,,,,,,,1,,,,58,64
15360,note_on,153,0,11,,,,,,,,3,,,,34,34
15360,note_on,3175,0,1,,,,,,,,0,,,,82,34
15360,note_on,0,0,1,,,,,,,,0,,,,70,34
15360,note_on,153,0,10,,,,,,,,3,,,,58,34
15405,note_on,45,0,9,,,,,,,,3,,,,58,0
15405,note_on,45,0,8,,,,,,,,3,,,,58,0
15408,note_on,3,0,9,,,,,,,,3,,,,57,34
15408,note_on,3,0,8,,,,,,,,3,,,,57,34
15449,note_on,89,0,10,,,,,,,,3,,,,58,0
15449,note_on,89,0,4,,,,,,,,1,,,,58,0
15449,note_on,89,0,11,,,,,,,,3,,,,34,0
15453,note_on,45,0,8,,,,,,,,3,,,,57,0
15453,note_on,45,0,9,,,,,,,,3,,,,57,0
15456,note_on,199,0,5,,,,,,,,2,,,,74,85
15456,note_on,3,0,9,,,,,,,,3,,,,58,34
15456,note_on,0,0,6,,,,,,,,2,,,,58,85
15456,note_on,0,0,5,,,,,,,,2,,,,70,85
15456,note_on,3,0,8,,,,,,,,3,,,,58,34
15456,note_on,199,0,6,,,,,,,,2,,,,62,85
15501,note_on,45,0,9,,,,,,,,3,,,,58,0
15501,note_on,45,0,8,,,,,,,,3,,,,58,0
15504,note_on,3,0,9,,,,,,,,3,,,,57,34
15504,note_on,3,0,8,,,,,,,,3,,,,57,34
15545,note_on,89,0,6,,,,,,,,2,,,,58,0
15545,note_on,0,0,6,,,,,,,,2,,,,62,0
15545,note_on,0,0,5,,,,,,,,2,,,,74,0
15545,note_on,89,0,5,,,,,,,,2,,,,70,0
15549,note_on,45,0,9,,,,,,,,3,,,,57,0
15549,note_on,45,0,8,,,,,,,,3,,,,57,0
15552,note_on,3,0,9,,,,,,,,3,,,,58,34
15552,note_on,0,0,5,,,,,,,,2,,,,70,85
15552,note_on,7,0,5,,,,,,,,2,,,,74,85
15552,note_on,7,0,6,,,,,,,,2,,,,62,85
15552,note_on,0,0,6,,,,,,,,2,,,,58,85
15552,note_on,3,0,8,,,,,,,,3,,,,58,34
15597,note_on,45,0,9,,,,,,,,3,,,,58,0
15597,note_on,45,0,8,,,,,,,,3,,,,58,0
15600,note_on,3,0,8,,,,,,,,3,,,,57,34
15600,note_on,3,0,9,,,,,,,,3,,,,57,34
15641,note_on,0,0,5,,,,,,,,2,,,,74,0
15641,note_on,0,0,6,,,,,,,,2,,,,62,0
15641,note_on,89,0,6,,,,,,,,2,,,,58,0
15641,note_on,89,0,5,,,,,,,,2,,,,70,0
15645,note_on,45,0,9,,,,,,,,3,,,,57,0
15645,note_on,45,0,8,,,,,,,,3,,,,57,0
15648,note_on,0,0,5,,,,,,,,2,,,,70,85
15648,note_on,3,0,9,,,,,,,,3,,,,58,34
15648,note_on,0,0,6,,,,,,,,2,,,,58,85
15648,note_on,7,0,6,,,,,,,,2,,,,62,85
15648,note_on,3,0,8,,,,,,,,3,,,,58,34
15648,note_on,7,0,5,,,,,,,,2,,,,74,85
15693,note_on,45,0,9,,,,,,,,3,,,,58,0
15693,note_on,45,0,8,,,,,,,,3,,,,58,0
15696,note_on,3,0,9,,,,,,,,3,,,,57,34
15696,note_on,3,0,8,,,,,,,,3,,,,57,34
15737,note_on,89,0,5,,,,,,,,2,,,,70,0
15737,note_on,0,0,5,,,,,,,,2,,,,74,0
15737,note_on,0,0,6,,,,,,,,2,,,,62,0
15737,note_on,89,0,6,,,,,,,,2,,,,58,0
15741,note_on,45,0,9,,,,,,,,3,,,,57,0
15741,note_on,45,0,8,,,,,,,,3,,,,57,0
15744,note_on,7,0,6,,,,,,,,2,,,,62,85
15744,note_on,295,0,11,,,,,,,,3,,,,34,34
15744,note_on,0,0,6,,,,,,,,2,,,,58,85
15744,note_on,295,0,10,,,,,,,,3,,,,58,34
15744,note_on,7,0,5,,,,,,,,2,,,,74,85
15744,note_on,3,0,9,,,,,,,,3,,,,58,34
15744,note_on,3,0,8,,,,,,,,3,,,,58,34
15744,note_on,0,0,5,,,,,,,,2,,,,70,85
15789,note_on,45,0,8,,,,,,,,3,,,,58,0
15789,note_on,45,0,9,,,,,,,,3,,,,58,0
15792,note_on,3,0,9,,,,,,,,3,,,,57,34
15792,note_on,3,0,8,,,,,,,,3,,,,57,34
15833,note_on,89,0,11,,,,,,,,3,,,,34,0
15833,note_on,89,0,10,,,,,,,,3,,,,58,0
15837,note_on,45,0,9,,,,,,,,3,,,,57,0
15837,note_on,45,0,8,,,,,,,,3,,,,57,0
15840,note_on,3,0,9,,,,,,,,3,,,,58,34
15840,note_on,3,0,8,,,,,,,,3,,,,58,34
15877,note_on,0,0,5,,,,,,,,2,,,,74,0
15877,note_on,133,0,6,,,,,,,,2,,,,58,0
15877,note_on,133,0,5,,,,,,,,2,,,,70,0
15877,note_on,0,0,6,,,,,,,,2,,,,62,0
15885,note_on,45,0,8,,,,,,,,3,,,,58,0
15885,note_on,45,0,9,,,,,,,,3,,,,58,0
15888,note_on,0,0,5,,,,,,,,2,,,,72,85
15888,note_on,11,0,6,,,,,,,,2,,,,63,85
15888,note_on,0,0,6,,,,,,,,2,,,,60,85
15888,note_on,3,0,9,,,,,,,,3,,,,57,34
15888,note_on,11,0,5,,,,,,,,2,,,,75,85
15888,note_on,3,0,8,,,,,,,,3,,,,57,34
15933,note_on,0,0,5,,,,,,,,2,,,,75,0
15933,note_on,45,0,5,,,,,,,,2,,,,72,0
15933,note_on,45,0,9,,,,,,,,3,,,,57,0
15933,note_on,45,0,6,,,,,,,,2,,,,60,0
15933,note_on,0,0,6,,,,,,,,2,,,,63,0
15933,note_on,45,0,8,,,,,,,,3,,,,57,0
15936,note_on,3,0,9,,,,,,,,3,,,,58,34
15936,note_on,3,0,6,,,,,,,,2,,,,65,85
15936,note_on,0,0,6,,,,,,,,2,,,,62,85
15936,note_on,3,0,8,,,,,,,,3,,,,58,34
15936,note_on,3,0,5,,,,,,,,2,,,,77,85
15936,note_on,0,0,5,,,,,,,,2,,,,74,85
15981,note_on,45,0,8,,,,,,,,3,,,,58,0
15981,note_on,45,0,9,,,,,,,,3,,,,58,0
15984,note_on,3,0,8,,,,,,,,3,,,,57,34
15984,note_on,3,0,9,,,,,,,,3,,,,57,34
16029,note_on,45,0,8,,,,,,,,3,,,,57,0
16029,note_on,45,0,9,,,,,,,,3,,,,57,0
16032,note_on,3,0,9,,,,,,,,3,,,,58,34
16032,note_on,3,0,8,,,,,,,,3,,,,58,34
16032,note_on,583,0,4,,,,,,,,1,,,,58,49
16077,note_on,45,0,8,,,,,,,,3,,,,58,0
16077,note_on,45,0,9,,,,,,,,3,,,,58,0
16077,note_on,45,0,4,,,,,,,,1,,,,58,0
16080,note_on,3,0,9,,,,,,,,3,,,,57,34
16080,note_on,3,0,4,,,,,,,,1,,,,58,49
16080,note_on,3,0,8,,,,,,,,3,,,,57,34
16103,note_on,23,0,4,,,,,,,,1,,,,58,0
16104,note_on,1,0,4,,,,,,,,1,,,,58,49
16113,note_on,0,0,5,,,,,,,,2,,,,77,0
16113,note_on,0,0,6,,,,,,,,2,,,,65,0
16113,note_on,177,0,6,,,,,,,,2,,,,62,0
16113,note_on,177,0,5,,,,,,,,2,,,,74,0
16125,note_on,45,0,9,,,,,,,,3,,,,57,0
16125,note_on,45,0,8,,,,,,,,3,,,,57,0
16127,note_on,23,0,4,,,,,,,,1,,,,58,0
16128,note_on,15,0,5,,,,,,,,2,,,,79,85
16128,note_on,3,0,9,,,,,,,,3,,,,58,34
16128,note_on,0,0,6,,,,,,,,2,,,,63,85
16128,note_on,15,0,6,,,,,,,,2,,,,67,85
16128,note_on,295,0,10,,,,,,,,3,,,,58,34
16128,note_on,0,0,5,,,,,,,,2,,,,74,85
16128,note_on,295,0,11,,,,,,,,3,,,,34,34
16128,note_on,3,0,8,,,,,,,,3,,,,58,34
16128,note_on,1,0,4,,,,,,,,1,,,,58,49
16173,note_on,45,0,8,,,,,,,,3,,,,58,0
16173,note_on,45,0,9,,,,,,,,3,,,,58,0
16176,note_on,3,0,9,,,,,,,,3,,,,57,34
16176,note_on,3,0,8,,,,,,,,3,,,,57,34
16217,note_on,0,0,6,,,,,,,,2,,,,67,0
16217,note_on,89,0,4,,,,,,,,1,,,,58,0
16217,note_on,89,0,6,,,,,,,,2,,,,63,0
16217,note_on,89,0,11,,,,,,,,3,,,,34,0
16217,note_on,89,0,10,,,,,,,,3,,,,58,0
16217,note_on,0,0,5,,,,,,,,2,,,,79,0
16217,note_on,89,0,5,,,,,,,,2,,,,74,0
16221,note_on,45,0,9,,,,,,,,3,,,,57,0
16221,note_on,45,0,8,,,,,,,,3,,,,57,0
16224,note_on,3,0,9,,,,,,,,3,,,,58,34
16224,note_on,0,0,5,,,,,,,,2,,,,79,85
16224,note_on,7,0,5,,,,,,,,2,,,,82,85
16224,note_on,7,0,6,,,,,,,,2,,,,70,85
16224,note_on,0,0,6,,,,,,,,2,,,,67,85
16224,note_on,3,0,8,,,,,,,,3,,,,58,34
16269,note_on,45,0,9,,,,,,,,3,,,,58,0
16269,note_on,45,0,8,,,,,,,,3,,,,58,0
16272,note_on,3,0,9,,,,,,,,3,,,,57,34
16272,note_on,3,0,8,,,,,,,,3,,,,57,34
16313,note_on,0,0,5,,,,,,,,2,,,,82,0
16313,note_on,89,0,6,,,,,,,,2,,,,67,0
16313,note_on,89,0,5,,,,,,,,2,,,,79,0
16313,note_on,0,0,6,,,,,,,,2,,,,70,0
16317,note_on,45,0,9,,,,,,,,3,,,,57,0
16317,note_on,45,0,8,,,,,,,,3,,,,57,0
16320,note_on,7,0,6,,,,,,,,2,,,,69,85
16320,note_on,3,0,9,,,,,,,,3,,,,58,34
16320,note_on,3,0,8,,,,,,,,3,,,,58,34
16320,note_on,0,0,6,,,,,,,,2,,,,65,85
16320,note_on,0,0,5,,,,,,,,2,,,,77,85
16320,note_on,7,0,5,,,,,,,,2,,,,81,85
16365,note_on,45,0,8,,,,,,,,3,,,,58,0
16365,note_on,45,0,9,,,,,,,,3,,,,58,0
16368,note_on,3,0,8,,,,,,,,3,,,,57,34
16368,note_on,3,0,9,,,,,,,,3,,,,57,34
16409,note_on,89,0,5,,,,,,,,2,,,,77,0
16409,note_on,89,0,6,,,,,,,,2,,,,65,0
16409,note_on,0,0,6,,,,,,,,2,,,,69,0
16409,note_on,0,0,5,,,,,,,,2,,,,81,0
16413,note_on,45,0,8,,,,,,,,3,,,,57,0
16413,note_on,45,0,9,,,,,,,,3,,,,57,0
16416,note_on,7,0,6,,,,,,,,2,,,,67,85
16416,note_on,7,0,5,,,,,,,,2,,,,79,85
16416,note_on,0,0,5,,,,,,,,2,,,,75,85
16416,note_on,3,0,8,,,,,,,,3,,,,58,34
16416,note_on,0,0,6,,,,,,,,2,,,,63,85
16416,note_on,3,0,9,,,,,,,,3,,,,58,34
16416,note_on,199,0,4,,,,,,,,1,,,,58,49
16461,note_on,45,0,9,,,,,,,,3,,,,58,0
16461,note_on,45,0,4,,,,,,,,1,,,,58,0
16461,note_on,45,0,8,,,,,,,,3,,,,58,0
16464,note_on,3,0,4,,,,,,,,1,,,,58,49
16464,note_on,3,0,9,,,,,,,,3,,,,57,34
16464,note_on,3,0,8,,,,,,,,3,,,,57,34
16487,note_on,23,0,4,,,,,,,,1,,,,58,0
16488,note_on,1,0,4,,,,,,,,1,,,,58,49
16505,note_on,89,0,6,,,,,,,,2,,,,63,0
16505,note_on,0,0,6,,,,,,,,2,,,,67,0
16505,note_on,89,0,5,,,,,,,,2,,,,75,0
16505,note_on,0,0,5,,,,,,,,2,,,,79,0
16509,note_on,45,0,8,,,,,,,,3,,,,57,0
16509,note_on,45,0,9,,,,,,,,3,,,,57,0
16511,note_on,23,0,4,,,,,,,,1,,,,58,0
16512,note_on,3,0,9,,,,,,,,3,,,,58,34
16512,note_on,3,0,8,,,,,,,,3,,,,58,34
16512,note_on,7,0,5,,,,,,,,2,,,,77,85
16512,note_on,1,0,4,,,,,,,,1,,,,62,49
16512,note_on,295,0,10,,,,,,,,3,,,,58,34
16512,note_on,7,0,6,,,,,,,,2,,,,65,85
16512,note_on,0,0,6,,,,,,,,2,,,,62,85
16512,note_on,295,0,11,,,,,,,,3,,,,34,34
16512,note_on,0,0,5,,,,,,,,2,,,,74,85
16557,note_on,45,0,8,,,,,,,,3,,,,58,0
16557,note_on,45,0,9,,,,,,,,3,,,,58,0
16560,note_on,3,0,8,,,,,,,,3,,,,57,34
16560,note_on,3,0,9,,,,,,,,3,,,,57,34
16601,note_on,89,0,11,,,,,,,,3,,,,34,0
16601,note_on,89,0,4,,,,,,,,1,,,,62,0
16601,note_on,89,0,10,,,,,,,,3,,,,58,0
16605,note_on,45,0,9,,,,,,,,3,,,,57,0
16605,note_on,45,0,8,,,,,,,,3,,,,57,0
16608,note_on,3,0,8,,,,,,,,3,,,,58,34
16608,note_on,3,0,9,,,,,,,,3,,,,58,34
16645,note_on,0,0,5,,,,,,,,2,,,,77,0
16645,note_on,133,0,6,,,,,,,,2,,,,62,0
16645,note_on,0,0,6,,,,,,,,2,,,,65,0
16645,note_on,133,0,5,,,,,,,,2,,,,74,0
16653,note_on,45,0,9,,,,,,,,3,,,,58,0
16653,note_on,45,0,8,,,,,,,,3,,,,58,0
16656,note_on,11,0,6,,,,,,,,2,,,,63,85
16656,note_on,3,0,9,,,,,,,,3,,,,57,34
16656,note_on,11,0,5,,,,,,,,2,,,,75,85
16656,note_on,0,0,5,,,,,,,,2,,,,72,85
16656,note_on,0,0,6,,,,,,,,2,,,,60,85
16656,note_on,3,0,8,,,,,,,,3,,,,57,34
16701,note_on,45,0,8,,,,,,,,3,,,,57,0
16701,note_on,0,0,6,,,,,,,,2,,,,63,0
16701,note_on,45,0,6,,,,,,,,2,,,,60,0
16701,note_on,45,0,5,,,,,,,,2,,,,72,0
16701,note_on,0,0,5,,,,,,,,2,,,,75,0
16701,note_on,45,0,9,,,,,,,,3,,,,57,0
16704,note_on,0,0,6,,,,,,,,2,,,,58,85
16704,note_on,3,0,6,,,,,,,,2,,,,62,85
16704,note_on,3,0,9,,,,,,,,3,,,,58,34
16704,note_on,3,0,8,,,,,,,,3,,,,58,34
16704,note_on,0,0,5,,,,,,,,2,,,,70,85
16704,note_on,3,0,5,,,,,,,,2,,,,74,85
16749,note_on,45,0,9,,,,,,,,3,,,,58,0
16749,note_on,45,0,8,,,,,,,,3,,,,58,0
16752,note_on,3,0,9,,,,,,,,3,,,,57,34
16752,note_on,3,0,8,,,,,,,,3,,,,57,34
16797,note_on,45,0,8,,,,,,,,3,,,,57,0
16797,note_on,45,0,9,,,,,,,,3,,,,57,0
16800,note_on,199,0,4,,,,,,,,1,,,,62,49
16800,note_on,3,0,8,,,,,,,,3,,,,58,34
16800,note_on,3,0,9,,,,,,,,3,,,,58,34
16845,note_on,45,0,9,,,,,,,,3,,,,58,0
16845,note_on,45,0,8,,,,,,,,3,,,,58,0
16845,note_on,45,0,4,,,,,,,,1,,,,62,0
16848,note_on,3,0,8,,,,,,,,3,,,,57,34
16848,note_on,3,0,9,,,,,,,,3,,,,57,34
16848,note_on,3,0,4,,,,,,,,1,,,,62,49
16871,note_on,23,0,4,,,,,,,,1,,,,62,0
16872,note_on,1,0,4,,,,,,,,1,,,,62,49
16881,note_on,177,0,5,,,,,,,,2,,,,70,0
16881,note_on,0,0,5,,,,,,,,2,,,,74,0
16881,note_on,177,0,6,,,,,,,,2,,,,58,0
16881,note_on,0,0,6,,,,,,,,2,,,,62,0
16893,note_on,45,0,8,,,,,,,,3,,,,57,0
16893,note_on,45,0,9,,,,,,,,3,,,,57,0
16895,note_on,23,0,4,,,,,,,,1,,,,62,0
16896,note_on,0,0,5,,,,,,,,2,,,,75,85
16896,note_on,15,0,5,,,,,,,,2,,,,79,85
16896,note_on,3,0,8,,,,,,,,3,,,,58,34
16896,note_on,1,0,4,,,,,,,,1,,,,58,49
16896,note_on,3,0,9,,,,,,,,3,,,,58,34
16896,note_on,295,0,10,,,,,,,,3,,,,58,34
16896,note_on,295,0,11,,,,,,,,3,,,,34,34
16896,note_on,0,0,6,,,,,,,,2,,,,63,85
16896,note_on,15,0,6,,,,,,,,2,,,,67,85
16941,note_on,45,0,8,,,,,,,,3,,,,58,0
16941,note_on,45,0,9,,,,,,,,3,,,,58,0
16944,note_on,3,0,8,,,,,,,,3,,,,57,34
16944,note_on,3,0,9,,,,,,,,3,,,,57,34
16985,note_on,89,0,4,,,,,,,,1,,,,58,0
16985,note_on,89,0,5,,,,,,,,2,,,,75,0
16985,note_on,0,0,5,,,,,,,,2,,,,79,0
16985,note_on,89,0,6,,,,,,,,2,,,,63,0
16985,note_on,89,0,10,,,,,,,,3,,,,58,0
16985,note_on,89,0,11,,,,,,,,3,,,,34,0
16985,note_on,0,0,6,,,,,,,,2,,,,67,0
16989,note_on,45,0,8,,,,,,,,3,,,,57,0
16989,note_on,45,0,9,,,,,,,,3,,,,57,0
16992,note_on,3,0,8,,,,,,,,3,,,,58,34
16992,note_on,7,0,5,,,,,,,,2,,,,82,85
16992,note_on,0,0,5,,,,,,,,2,,,,79,85
16992,note_on,3,0,9,,,,,,,,3,,,,58,34
16992,note_on,0,0,6,,,,,,,,2,,,,67,85
16992,note_on,7,0,6,,,,,,,,2,,,,70,85
17037,note_on,45,0,9,,,,,,,,3,,,,58,0
17037,note_on,45,0,8,,,,,,,,3,,,,58,0
17040,note_on,3,0,9,,,,,,,,3,,,,57,34
17040,note_on,3,0,8,,,,,,,,3,,,,57,34
17081,note_on,89,0,6,,,,,,,,2,,,,67,0
17081,note_on,0,0,6,,,,,,,,2,,,,70,0
17081,note_on,0,0,5,,,,,,,,2,,,,82,0
17081,note_on,89,0,5,,,,,,,,2,,,,79,0
17085,note_on,45,0,8,,,,,,,,3,,,,57,0
17085,note_on,45,0,9,,,,,,,,3,,,,57,0
17088,note_on,3,0,9,,,,,,,,3,,,,58,34
17088,note_on,3,0,8,,,,,,,,3,,,,58,34
17088,note_on,7,0,6,,,,,,,,2,,,,69,85
17088,note_on,0,0,6,,,,,,,,2,,,,65,85
17088,note_on,0,0,5,,,,,,,,2,,,,77,85
17088,note_on,7,0,5,,,,,,,,2,,,,81,85
17133,note_on,45,0,8,,,,,,,,3,,,,58,0
17133,note_on,45,0,9,,,,,,,,3,,,,58,0
17136,note_on,3,0,9,,,,,,,,3,,,,57,34
17136,note_on,3,0,8,,,,,,,,3,,,,57,34
17177,note_on,0,0,5,,,,,,,,2,,,,81,0
17177,note_on,89,0,5,,,,,,,,2,,,,77,0
17177,note_on,89,0,6,,,,,,,,2,,,,65,0
17177,note_on,0,0,6,,,,,,,,2,,,,69,0
17181,note_on,45,0,9,,,,,,,,3,,,,57,0
17181,note_on,45,0,8,,,,,,,,3,,,,57,0
17184,note_on,0,0,5,,,,,,,,2,,,,75,85
17184,note_on,7,0,5,,,,,,,,2,,,,79,85
17184,note_on,3,0,8,,,,,,,,3,,,,58,34
17184,note_on,7,0,6,,,,,,,,2,,,,67,85
17184,note_on,0,0,6,,,,,,,,2,,,,63,85
17184,note_on,199,0,4,,,,,,,,1,,,,58,85
17184,note_on,3,0,9,,,,,,,,3,,,,58,34
17229,note_on,45,0,9,,,,,,,,3,,,,58,0
17229,note_on,45,0,4,,,,,,,,1,,,,58,0
17229,note_on,45,0,8,,,,,,,,3,,,,58,0
17232,note_on,3,0,8,,,,,,,,3,,,,57,34
17232,note_on,3,0,4,,,,,,,,1,,,,58,85
17232,note_on,3,0,9,,,,,,,,3,,,,57,34
17255,note_on,23,0,4,,,,,,,,1,,,,58,0
17256,note_on,1,0,4,,,,,,,,1,,,,58,85
17273,note_on,0,0,5,,,,,,,,2,,,,79,0
17273,note_on,89,0,6,,,,,,,,2,,,,63,0
17273,note_on,0,0,6,,,,,,,,2,,,,67,0
17273,note_on,89,0,5,,,,,,,,2,,,,75,0
17277,note_on,45,0,9,,,,,,,,3,,,,57,0
17277,note_on,45,0,8,,,,,,,,3,,,,57,0
17279,note_on,23,0,4,,,,,,,,1,,,,58,0
17280,note_on,295,0,10,,,,,,,,3,,,,58,34
17280,note_on,295,0,11,,,,,,,,3,,,,34,34
17280,note_on,3,0,8,,,,,,,,3,,,,58,34
17280,note_on,3,0,9,,,,,,,,3,,,,58,34
17280,note_on,7,0,5,,,,,,,,2,,,,77,85
17280,note_on,1,0,4,,,,,,,,1,,,,58,85
17280,note_on,7,0,6,,,,,,,,2,,,,65,85
17280,note_on,0,0,6,,,,,,,,2,,,,62,85
17280,note_on,0,0,5,,,,,,,,2,,,,74,85
17325,note_on,45,0,9,,,,,,,,3,,,,58,0
17325,note_on,45,0,8,,,,,,,,3,,,,58,0
17328,note_on,3,0,8,,,,,,,,3,,,,57,34
17328,note_on,3,0,9,,,,,,,,3,,,,57,34
17369,note_on,89,0,11,,,,,,,,3,,,,34,0
17369,note_on,89,0,4,,,,,,,,1,,,,58,0
17369,note_on,89,0,10,,,,,,,,3,,,,58,0
17373,note_on,45,0,8,,,,,,,,3,,,,57,0
17373,note_on,45,0,9,,,,,,,,3,,,,57,0
17376,note_on,3,0,8,,,,,,,,3,,,,58,34
17376,note_on,3,0,9,,,,,,,,3,,,,58,34
17376,note_on,7,0,4,,,,,,,,1,,,,58,85
17413,note_on,133,0,6,,,,,,,,2,,,,62,0
17413,note_on,0,0,5,,,,,,,,2,,,,77,0
17413,note_on,133,0,5,,,,,,,,2,,,,74,0
17413,note_on,0,0,6,,,,,,,,2,,,,65,0
17421,note_on,45,0,9,,,,,,,,3,,,,58,0
17421,note_on,45,0,8,,,,,,,,3,,,,58,0
17424,note_on,3,0,8,,,,,,,,3,,,,57,34
17424,note_on,11,0,5,,,,,,,,2,,,,75,85
17424,note_on,3,0,9,,,,,,,,3,,,,57,34
17424,note_on,0,0,5,,,,,,,,2,,,,72,85
17424,note_on,11,0,6,,,,,,,,2,,,,63,85
17424,note_on,0,0,6,,,,,,,,2,,,,60,85
17465,note_on,89,0,4,,,,,,,,1,,,,58,0
17469,note_on,45,0,6,,,,,,,,2,,,,60,0
17469,note_on,0,0,6,,,,,,,,2,,,,63,0
17469,note_on,0,0,5,,,,,,,,2,,,,75,0
17469,note_on,45,0,5,,,,,,,,2,,,,72,0
17469,note_on,45,0,8,,,,,,,,3,,,,57,0
17469,note_on,45,0,9,,,,,,,,3,,,,57,0
17472,note_on,3,0,6,,,,,,,,2,,,,62,85
17472,note_on,3,0,5,,,,,,,,2,,,,74,85
17472,note_on,7,0,4,,,,,,,,1,,,,62,85
17472,note_on,0,0,6,,,,,,,,2,,,,58,85
17472,note_on,0,0,5,,,,,,,,2,,,,70,85
17472,note_on,3,0,9,,,,,,,,3,,,,58,34
17472,note_on,3,0,8,,,,,,,,3,,,,58,34
17517,note_on,45,0,8,,,,,,,,3,,,,58,0
17517,note_on,45,0,9,,,,,,,,3,,,,58,0
17520,note_on,3,0,9,,,,,,,,3,,,,57,34
17520,note_on,3,0,8,,,,,,,,3,,,,57,34
17561,note_on,89,0,4,,,,,,,,1,,,,62,0
17565,note_on,45,0,8,,,,,,,,3,,,,57,0
17565,note_on,45,0,9,,,,,,,,3,,,,57,0
17568,note_on,7,0,4,,,,,,,,1,,,,58,85
17568,note_on,3,0,8,,,,,,,,3,,,,58,34
17568,note_on,3,0,9,,,,,,,,3,,,,58,34
17613,note_on,45,0,9,,,,,,,,3,,,,58,0
17613,note_on,45,0,8,,,,,,,,3,,,,58,0
17616,note_on,3,0,8,,,,,,,,3,,,,62,34
17616,note_on,3,0,9,,,,,,,,3,,,,62,34
17634,note_on,0,0,1,,,,,,,,0,,,,82,0
17634,note_on,2274,0,1,,,,,,,,0,,,,70,0
17649,note_on,177,0,6,,,,,,,,2,,,,58,0
17649,note_on,177,0,5,,,,,,,,2,,,,70,0
17649,note_on,0,0,5,,,,,,,,2,,,,74,0
17649,note_on,0,0,6,,,,,,,,2,,,,62,0
17657,note_on,89,0,4,,,,,,,,1,,,,58,0
17661,note_on,45,0,9,,,,,,,,3,,,,62,0
17661,note_on,45,0,8,,,,,,,,3,,,,62,0
17664,note_on,3,0,9,,,,,,,,3,,,,65,34
17664,note_on,3,0,8,,,,,,,,3,,,,65,34
17664,note_on,295,0,11,,,,,,,,3,,,,33,34
17664,note_on,15,0,5,,,,,,,,2,,,,75,85
17664,note_on,295,0,10,,,,,,,,3,,,,57,34
17664,note_on,7,0,4,,,,,,,,1,,,,65,85
17753,note_on,89,0,11,,,,,,,,3,,,,33,0
17753,note_on,89,0,10,,,,,,,,3,,,,57,0
17753,note_on,89,0,9,,,,,,,,3,,,,65,0
17753,note_on,89,0,8,,,,,,,,3,,,,65,0
17753,note_on,89,0,4,,,,,,,,1,,,,65,0
17760,note_on,7,0,9,,,,,,,,3,,,,72,34
17760,note_on,7,0,8,,,,,,,,3,,,,75,34
17760,note_on,111,0,6,,,,,,,,2,,,,57,85
17760,note_on,7,0,10,,,,,,,,3,,,,65,34
17760,note_on,7,0,11,,,,,,,,3,,,,45,34
17841,note_on,177,0,5,,,,,,,,2,,,,75,0
17849,note_on,89,0,6,,,,,,,,2,,,,57,0
17849,note_on,89,0,11,,,,,,,,3,,,,45,0
17849,note_on,89,0,9,,,,,,,,3,,,,72,0
17849,note_on,89,0,8,,,,,,,,3,,,,75,0
17856,note_on,7,0,8,,,,,,,,3,,,,74,34
17856,note_on,7,0,11,,,,,,,,3,,,,46,34
17856,note_on,7,0,6,,,,,,,,2,,,,58,85
17856,note_on,15,0,5,,,,,,,,2,,,,74,85
17856,note_on,7,0,9,,,,,,,,3,,,,70,34
17901,note_on,45,0,5,,,,,,,,2,,,,74,0
17904,note_on,3,0,5,,,,,,,,2,,,,70,85
17937,note_on,177,0,10,,,,,,,,3,,,,65,0
17945,note_on,89,0,9,,,,,,,,3,,,,70,0
17945,note_on,89,0,11,,,,,,,,3,,,,46,0
17945,note_on,89,0,8,,,,,,,,3,,,,74,0
17945,note_on,89,0,6,,,,,,,,2,,,,58,0
17949,note_on,45,0,5,,,,,,,,2,,,,70,0
17952,note_on,3,0,5,,,,,,,,2,,,,79,85
17952,note_on,7,0,8,,,,,,,,3,,,,72,34
17952,note_on,15,0,10,,,,,,,,3,,,,63,34
17952,note_on,0,0,6,,,,,,,,2,,,,51,85
17952,note_on,7,0,6,,,,,,,,2,,,,60,85
17952,note_on,7,0,9,,,,,,,,3,,,,67,34
17952,note_on,7,0,11,,,,,,,,3,,,,39,34
17997,note_on,45,0,5,,,,,,,,2,,,,79,0
18000,note_on,3,0,5,,,,,,,,2,,,,75,85
18041,note_on,89,0,11,,,,,,,,3,,,,39,0
18041,note_on,89,0,8,,,,,,,,3,,,,72,0
18041,note_on,0,0,6,,,,,,,,2,,,,60,0
18041,note_on,89,0,9,,,,,,,,3,,,,67,0
18041,note_on,89,0,10,,,,,,,,3,,,,63,0
18041,note_on,89,0,6,,,,,,,,2,,,,51,0
18045,note_on,45,0,5,,,,,,,,2,,,,75,0
18048,note_on,3,0,5,,,,,,,,2,,,,74,85
18048,note_on,7,0,8,,,,,,,,3,,,,70,34
18048,note_on,7,0,11,,,,,,,,3,,,,41,34
18048,note_on,7,0,9,,,,,,,,3,,,,62,34
18048,note_on,7,0,10,,,,,,,,3,,,,65,34
18048,note_on,7,0,6,,,,,,,,2,,,,58,85
18137,note_on,89,0,5,,,,,,,,2,,,,74,0
18137,note_on,89,0,8,,,,,,,,3,,,,70,0
18137,note_on,89,0,6,,,,,,,,2,,,,58,0
18137,note_on,89,0,10,,,,,,,,3,,,,65,0
18137,note_on,89,0,9,,,,,,,,3,,,,62,0
18144,note_on,7,0,9,,,,,,,,3,,,,60,34
18144,note_on,7,0,8,,,,,,,,3,,,,69,34
18144,note_on,7,0,10,,,,,,,,3,,,,53,34
18144,note_on,7,0,6,,,,,,,,2,,,,57,85
18144,note_on,7,0,5,,,,,,,,2,,,,72,85
18225,note_on,177,0,11,,,,,,,,3,,,,41,0
18233,note_on,89,0,9,,,,,,,,3,,,,60,0
18233,note_on,89,0,6,,,,,,,,2,,,,57,0
18233,note_on,89,0,8,,,,,,,,3,,,,69,0
18233,note_on,89,0,5,,,,,,,,2,,,,72,0
18233,note_on,89,0,10,,,,,,,,3,,,,53,0
18240,note_on,7,0,6,,,,,,,,2,,,,53,64
18270,note_on,30,0,6,,,,,,,,2,,,,53,0
18272,note_on,2,0,6,,,,,,,,2,,,,55,64
18302,note_on,30,0,6,,,,,,,,2,,,,55,0
18304,note_on,2,0,6,,,,,,,,2,,,,53,64
18334,note_on,30,0,6,,,,,,,,2,,,,53,0
18336,note_on,2,0,6,,,,,,,,2,,,,51,64
18366,note_on,30,0,6,,,,,,,,2,,,,51,0
18368,note_on,2,0,6,,,,,,,,2,,,,50,64
18398,note_on,30,0,6,,,,,,,,2,,,,50,0
18400,note_on,2,0,6,,,,,,,,2,,,,48,64
18430,note_on,30,0,6,,,,,,,,2,,,,48,0
18432,note_on,199,0,10,,,,,,,,3,,,,58,34
18432,note_on,2,0,6,,,,,,,,2,,,,46,64
18432,note_on,679,0,4,,,,,,,,1,,,,58,49
18432,note_on,199,0,5,,,,,,,,2,,,,82,49
18432,note_on,207,0,11,,,,,,,,3,,,,34,34
18444,note_on,12,0,5,,,,,,,,2,,,,82,0
18444,note_on,0,0,5,,,,,,,,2,,,,84,49
18456,note_on,12,0,5,,,,,,,,2,,,,84,0
18456,note_on,0,0,5,,,,,,,,2,,,,82,49
18462,note_on,30,0,6,,,,,,,,2,,,,46,0
18464,note_on,2,0,6,,,,,,,,2,,,,58,64
18468,note_on,12,0,5,,,,,,,,2,,,,82,0
18468,note_on,0,0,5,,,,,,,,2,,,,84,49
18477,note_on,45,0,10,,,,,,,,3,,,,58,0
18477,note_on,45,0,11,,,,,,,,3,,,,34,0
18480,note_on,3,0,11,,,,,,,,3,,,,33,34
18480,note_on,12,0,5,,,,,,,,2,,,,84,0
18480,note_on,0,0,5,,,,,,,,2,,,,82,49
18480,note_on,3,0,10,,,,,,,,3,,,,57,34
18492,note_on,0,0,5,,,,,,,,2,,,,84,49
18492,note_on,12,0,5,,,,,,,,2,,,,82,0
18494,note_on,30,0,6,,,,,,,,2,,,,58,0
18496,note_on,2,0,6,,,,,,,,2,,,,57,64
18504,note_on,12,0,5,,,,,,,,2,,,,84,0
18504,note_on,0,0,5,,,,,,,,2,,,,82,49
18516,note_on,12,0,5,,,,,,,,2,,,,82,0
18516,note_on,0,0,5,,,,,,,,2,,,,84,49
18521,note_on,89,0,4,,,,,,,,1,,,,58,0
18525,note_on,45,0,11,,,,,,,,3,,,,33,0
18525,note_on,45,0,10,,,,,,,,3,,,,57,0
18526,note_on,30,0,6,,,,,,,,2,,,,57,0
18528,note_on,3,0,10,,,,,,,,3,,,,58,34
18528,note_on,894,0,1,,,,,,,,0,,,,74,34
18528,note_on,0,0,1,,,,,,,,0,,,,70,34
18528,note_on,295,0,9,,,,,,,,3,,,,58,49
18528,note_on,3,0,11,,,,,,,,3,,,,34,34
18528,note_on,2,0,6,,,,,,,,2,,,,58,64
18528,note_on,12,0,5,,,,,,,,2,,,,84,0
18528,note_on,295,0,8,,,,,,,,3,,,,62,49
18528,note_on,0,0,5,,,,,,,,2,,,,82,49
18540,note_on,12,0,5,,,,,,,,2,,,,82,0
18540,note_on,0,0,5,,,,,,,,2,,,,84,49
18552,note_on,0,0,5,,,,,,,,2,,,,82,49
18552,note_on,12,0,5,,,,,,,,2,,,,84,0
18558,note_on,30,0,6,,,,,,,,2,,,,58,0
18560,note_on,2,0,6,,,,,,,,2,,,,57,64
18564,note_on,0,0,5,,,,,,,,2,,,,84,49
18564,note_on,12,0,5,,,,,,,,2,,,,82,0
18573,note_on,45,0,11,,,,,,,,3,,,,34,0
18573,note_on,45,0,10,,,,,,,,3,,,,58,0
18576,note_on,12,0,5,,,,,,,,2,,,,84,0
18576,note_on,3,0,11,,,,,,,,3,,,,33,34
18576,note_on,3,0,10,,,,,,,,3,,,,57,34
18576,note_on,0,0,5,,,,,,,,2,,,,82,49
18588,note_on,12,0,5,,,,,,,,2,,,,82,0
18588,note_on,0,0,5,,,,,,,,2,,,,84,49
18590,note_on,30,0,6,,,,,,,,2,,,,57,0
18592,note_on,2,0,6,,,,,,,,2,,,,58,64
18600,note_on,0,0,5,,,,,,,,2,,,,82,49
18600,note_on,12,0,5,,,,,,,,2,,,,84,0
18612,note_on,12,0,5,,,,,,,,2,,,,82,0
18612,note_on,0,0,5,,,,,,,,2,,,,84,49
18617,note_on,89,0,8,,,,,,,,3,,,,62,0
18617,note_on,89,0,9,,,,,,,,3,,,,58,0
18617,note_on,0,0,1,,,,,,,,0,,,,74,0
18617,note_on,89,0,1,,,,,,,,0,,,,70,0
18621,note_on,45,0,11,,,,,,,,3,,,,33,0
18621,note_on,45,0,10,,,,,,,,3,,,,57,0
18622,note_on,30,0,6,,,,,,,,2,,,,58,0
18624,note_on,7,0,9,,,,,,,,3,,,,58,49
18624,note_on,0,0,5,,,,,,,,2,,,,82,49
18624,note_on,12,0,5,,,,,,,,2,,,,84,0
18624,note_on,7,0,1,,,,,,,,0,,,,74,34
18624,note_on,0,0,1,,,,,,,,0,,,,70,34
18624,note_on,7,0,8,,,,,,,,3,,,,62,49
18624,note_on,3,0,10,,,,,,,,3,,,,58,34
18624,note_on,3,0,11,,,,,,,,3,,,,34,34
18624,note_on,2,0,6,,,,,,,,2,,,,46,64
18636,note_on,12,0,5,,,,,,,,2,,,,82,0
18636,note_on,0,0,5,,,,,,,,2,,,,84,49
18648,note_on,12,0,5,,,,,,,,2,,,,84,0
18648,note_on,0,0,5,,,,,,,,2,,,,82,49
18654,note_on,30,0,6,,,,,,,,2,,,,46,0
18656,note_on,2,0,6,,,,,,,,2,,,,58,64
18660,note_on,12,0,5,,,,,,,,2,,,,82,0
18660,note_on,0,0,5,,,,,,,,2,,,,84,49
18669,note_on,45,0,10,,,,,,,,3,,,,58,0
18669,note_on,45,0,11,,,,,,,,3,,,,34,0
18672,note_on,12,0,5,,,,,,,,2,,,,84,0
18672,note_on,0,0,5,,,,,,,,2,,,,82,49
18672,note_on,3,0,11,,,,,,,,3,,,,33,34
18672,note_on,3,0,10,,,,,,,,3,,,,57,34
18684,note_on,0,0,5,,,,,,,,2,,,,84,49
18684,note_on,12,0,5,,,,,,,,2,,,,82,0
18686,note_on,30,0,6,,,,,,,,2,,,,58,0
18688,note_on,2,0,6,,,,,,,,2,,,,57,64
18696,note_on,12,0,5,,,,,,,,2,,,,84,0
18696,note_on,0,0,5,,,,,,,,2,,,,82,49
18708,note_on,12,0,5,,,,,,,,2,,,,82,0
18708,note_on,0,0,5,,,,,,,,2,,,,84,49
18713,note_on,89,0,9,,,,,,,,3,,,,58,0
18713,note_on,0,0,1,,,,,,,,0,,,,74,0
18713,note_on,89,0,8,,,,,,,,3,,,,62,0
18713,note_on,89,0,1,,,,,,,,0,,,,70,0
18717,note_on,45,0,10,,,,,,,,3,,,,57,0
18717,note_on,45,0,11,,,,,,,,3,,,,33,0
18718,note_on,30,0,6,,,,,,,,2,,,,57,0
18720,note_on,12,0,5,,,,,,,,2,,,,84,0
18720,note_on,0,0,5,,,,,,,,2,,,,82,49
18720,note_on,3,0,11,,,,,,,,3,,,,34,34
18720,note_on,2,0,6,,,,,,,,2,,,,58,64
18720,note_on,7,0,9,,,,,,,,3,,,,58,49
18720,note_on,199,0,4,,,,,,,,1,,,,58,49
18720,note_on,7,0,1,,,,,,,,0,,,,74,34
18720,note_on,0,0,1,,,,,,,,0,,,,70,34
18720,note_on,3,0,10,,,,,,,,3,,,,58,34
18720,note_on,7,0,8,,,,,,,,3,,,,62,49
18732,note_on,0,0,5,,,,,,,,2,,,,84,49
18732,note_on,12,0,5,,,,,,,,2,,,,82,0
18744,note_on,0,0,5,,,,,,,,2,,,,82,49
18744,note_on,12,0,5,,,,,,,,2,,,,84,0
18750,note_on,30,0,6,,,,,,,,2,,,,58,0
18752,note_on,2,0,6,,,,,,,,2,,,,57,64
18756,note_on,0,0,5,,,,,,,,2,,,,84,49
18756,note_on,12,0,5,,,,,,,,2,,,,82,0
18765,note_on,45,0,10,,,,,,,,3,,,,58,0
18765,note_on,45,0,4,,,,,,,,1,,,,58,0
18765,note_on,45,0,11,,,,,,,,3,,,,34,0
18768,note_on,3,0,11,,,,,,,,3,,,,33,34
18768,note_on,3,0,10,,,,,,,,3,,,,57,34
18768,note_on,12,0,5,,,,,,,,2,,,,84,0
18768,note_on,0,0,5,,,,,,,,2,,,,82,49
18768,note_on,3,0,4,,,,,,,,1,,,,58,49
18780,note_on,0,0,5,,,,,,,,2,,,,84,49
18780,note_on,12,0,5,,,,,,,,2,,,,82,0
18782,note_on,30,0,6,,,,,,,,2,,,,57,0
18784,note_on,2,0,6,,,,,,,,2,,,,58,64
18791,note_on,23,0,4,,,,,,,,1,,,,58,0
18792,note_on,12,0,5,,,,,,,,2,,,,84,0
18792,note_on,0,0,5,,,,,,,,2,,,,82,49
18792,note_on,1,0,4,,,,,,,,1,,,,58,49
18804,note_on,0,0,5,,,,,,,,2,,,,84,49
18804,note_on,12,0,5,,,,,,,,2,,,,82,0
18809,note_on,89,0,1,,,,,,,,0,,,,70,0
18809,note_on,0,0,1,,,,,,,,0,,,,74,0
18809,note_on,89,0,9,,,,,,,,3,,,,58,0
18809,note_on,89,0,8,,,,,,,,3,,,,62,0
18813,note_on,45,0,10,,,,,,,,3,,,,57,0
18813,note_on,45,0,11,,,,,,,,3,,,,33,0
18814,note_on,30,0,6,,,,,,,,2,,,,58,0
18815,note_on,23,0,4,,,,,,,,1,,,,58,0
18816,note_on,12,0,5,,,,,,,,2,,,,84,0
18816,note_on,0,0,5,,,,,,,,2,,,,82,49
18816,note_on,2,0,6,,,,,,,,2,,,,46,64
18816,note_on,7,0,1,,,,,,,,0,,,,74,34
18816,note_on,7,0,8,,,,,,,,3,,,,62,49
18816,note_on,3,0,10,,,,,,,,3,,,,58,34
18816,note_on,1,0,4,,,,,,,,1,,,,58,49
18816,note_on,7,0,9,,,,,,,,3,,,,58,49
18816,note_on,3,0,11,,,,,,,,3,,,,34,34
18816,note_on,0,0,1,,,,,,,,0,,,,70,34
18828,note_on,12,0,5,,,,,,,,2,,,,82,0
18828,note_on,0,0,5,,,,,,,,2,,,,84,49
18840,note_on,12,0,5,,,,,,,,2,,,,84,0
18840,note_on,0,0,5,,,,,,,,2,,,,82,49
18846,note_on,30,0,6,,,,,,,,2,,,,46,0
18848,note_on,2,0,6,,,,,,,,2,,,,58,64
18852,note_on,0,0,5,,,,,,,,2,,,,84,49
18852,note_on,12,0,5,,,,,,,,2,,,,82,0
18861,note_on,45,0,10,,,,,,,,3,,,,58,0
18861,note_on,45,0,11,,,,,,,,3,,,,34,0
18864,note_on,3,0,10,,,,,,,,3,,,,57,34
18864,note_on,3,0,11,,,,,,,,3,,,,33,34
18864,note_on,12,0,5,,,,,,,,2,,,,84,0
18864,note_on,0,0,5,,,,,,,,2,,,,82,49
18876,note_on,12,0,5,,,,,,,,2,,,,82,0
18876,note_on,0,0,5,,,,,,,,2,,,,84,49
18878,note_on,30,0,6,,,,,,,,2,,,,58,0
18880,note_on,2,0,6,,,,,,,,2,,,,57,64
18888,note_on,12,0,5,,,,,,,,2,,,,84,0
18888,note_on,0,0,5,,,,,,,,2,,,,82,49
18900,note_on,0,0,5,,,,,,,,2,,,,84,49
18900,note_on,12,0,5,,,,,,,,2,,,,82,0
18905,note_on,89,0,4,,,,,,,,1,,,,58,0
18909,note_on,45,0,10,,,,,,,,3,,,,57,0
18909,note_on,45,0,11,,,,,,,,3,,,,33,0
18910,note_on,30,0,6,,,,,,,,2,,,,57,0
18912,note_on,3,0,10,,,,,,,,3,,,,58,34
18912,note_on,2,0,6,,,,,,,,2,,,,58,64
18912,note_on,12,0,5,,,,,,,,2,,,,84,0
18912,note_on,3,0,11,,,,,,,,3,,,,34,34
18912,note_on,0,0,5,,,,,,,,2,,,,82,49
18924,note_on,12,0,5,,,,,,,,2,,,,82,0
18924,note_on,0,0,5,,,,,,,,2,,,,84,49
18936,note_on,12,0,5,,,,,,,,2,,,,84,0
18936,note_on,0,0,5,,,,,,,,2,,,,82,49
18942,note_on,30,0,6,,,,,,,,2,,,,58,0
18944,note_on,2,0,6,,,,,,,,2,,,,57,64
18948,note_on,12,0,5,,,,,,,,2,,,,82,0
18948,note_on,0,0,5,,,,,,,,2,,,,84,49
18949,note_on,133,0,8,,,,,,,,3,,,,62,0
18949,note_on,0,0,1,,,,,,,,0,,,,74,0
18949,note_on,133,0,1,,,,,,,,0,,,,70,0
18949,note_on,133,0,9,,,,,,,,3,,,,58,0
18957,note_on,45,0,10,,,,,,,,3,,,,58,0
18957,note_on,45,0,11,,,,,,,,3,,,,34,0
18960,note_on,3,0,11,,,,,,,,3,,,,33,34
18960,note_on,11,0,9,,,,,,,,3,,,,60,49
18960,note_on,0,0,5,,,,,,,,2,,,,82,49
18960,note_on,11,0,1,,,,,,,,0,,,,75,34
18960,note_on,12,0,5,,,,,,,,2,,,,84,0
18960,note_on,11,0,8,,,,,,,,3,,,,63,49
18960,note_on,3,0,10,,,,,,,,3,,,,57,34
18960,note_on,0,0,1,,,,,,,,0,,,,72,34
18972,note_on,12,0,5,,,,,,,,2,,,,82,0
18972,note_on,0,0,5,,,,,,,,2,,,,84,49
18974,note_on,30,0,6,,,,,,,,2,,,,57,0
18976,note_on,2,0,6,,,,,,,,2,,,,58,64
18984,note_on,0,0,5,,,,,,,,2,,,,82,49
18984,note_on,12,0,5,,,,,,,,2,,,,84,0
18996,note_on,0,0,5,,,,,,,,2,,,,84,49
18996,note_on,12,0,5,,,,,,,,2,,,,82,0
19005,note_on,0,0,1,,,,,,,,0,,,,75,0
19005,note_on,45,0,9,,,,,,,,3,,,,60,0
19005,note_on,45,0,8,,,,,,,,3,,,,63,0
19005,note_on,45,0,11,,,,,,,,3,,,,33,0
19005,note_on,45,0,10,,,,,,,,3,,,,57,0
19005,note_on,45,0,1,,,,,,,,0,,,,72,0
19006,note_on,30,0,6,,,,,,,,2,,,,58,0
19008,note_on,3,0,8,,,,,,,,3,,,,65,49
19008,note_on,2,0,6,,,,,,,,2,,,,46,64
19008,note_on,3,0,11,,,,,,,,3,,,,34,34
19008,note_on,0,0,1,,,,,,,,0,,,,74,34
19008,note_on,3,0,1,,,,,,,,0,,,,77,34
19008,note_on,12,0,5,,,,,,,,2,,,,84,0
19008,note_on,0,0,5,,,,,,,,2,,,,82,49
19008,note_on,3,0,9,,,,,,,,3,,,,62,49
19008,note_on,3,0,10,,,,,,,,3,,,,58,34
19020,note_on,12,0,5,,,,,,,,2,,,,82,0
19020,note_on,0,0,5,,,,,,,,2,,,,84,49
19032,note_on,12,0,5,,,,,,,,2,,,,84,0
19032,note_on,0,0,5,,,,,,,,2,,,,82,49
19038,note_on,30,0,6,,,,,,,,2,,,,46,0
19040,note_on,2,0,6,,,,,,,,2,,,,58,64
19044,note_on,12,0,5,,,,,,,,2,,,,82,0
19044,note_on,0,0,5,,,,,,,,2,,,,84,49
19053,note_on,45,0,10,,,,,,,,3,,,,58,0
19053,note_on,45,0,11,,,,,,,,3,,,,34,0
19056,note_on,3,0,11,,,,,,,,3,,,,33,34
19056,note_on,3,0,10,,,,,,,,3,,,,57,34
19056,note_on,0,0,5,,,,,,,,2,,,,82,49
19056,note_on,12,0,5,,,,,,,,2,,,,84,0
19068,note_on,12,0,5,,,,,,,,2,,,,82,0
19068,note_on,0,0,5,,,,,,,,2,,,,84,49
19070,note_on,30,0,6,,,,,,,,2,,,,58,0
19072,note_on,2,0,6,,,,,,,,2,,,,57,64
19080,note_on,0,0,5,,,,,,,,2,,,,82,49
19080,note_on,12,0,5,,,,,,,,2,,,,84,0
19092,note_on,12,0,5,,,,,,,,2,,,,82,0
19092,note_on,0,0,5,,,,,,,,2,,,,84,49
19101,note_on,45,0,10,,,,,,,,3,,,,57,0
19101,note_on,45,0,11,,,,,,,,3,,,,33,0
19102,note_on,30,0,6,,,,,,,,2,,,,57,0
19104,note_on,3,0,10,,,,,,,,3,,,,58,34
19104,note_on,199,0,4,,,,,,,,1,,,,58,49
19104,note_on,2,0,6,,,,,,,,2,,,,58,64
19104,note_on,12,0,5,,,,,,,,2,,,,84,0
19104,note_on,0,0,5,,,,,,,,2,,,,82,49
19104,note_on,3,0,11,,,,,,,,3,,,,34,34
19116,note_on,12,0,5,,,,,,,,2,,,,82,0
19116,note_on,0,0,5,,,,,,,,2,,,,84,49
19128,note_on,12,0,5,,,,,,,,2,,,,84,0
19128,note_on,0,0,5,,,,,,,,2,,,,82,49
19134,note_on,30,0,6,,,,,,,,2,,,,58,0
19136,note_on,2,0,6,,,,,,,,2,,,,57,64
19140,note_on,12,0,5,,,,,,,,2,,,,82,0
19140,note_on,0,0,5,,,,,,,,2,,,,84,49
19149,note_on,45,0,11,,,,,,,,3,,,,34,0
19149,note_on,45,0,10,,,,,,,,3,,,,58,0
19149,note_on,45,0,4,,,,,,,,1,,,,58,0
19152,note_on,3,0,4,,,,,,,,1,,,,58,49
19152,note_on,12,0,5,,,,,,,,2,,,,84,0
19152,note_on,3,0,10,,,,,,,,3,,,,57,34
19152,note_on,0,0,5,,,,,,,,2,,,,82,49
19152,note_on,3,0,11,,,,,,,,3,,,,33,34
19164,note_on,0,0,5,,,,,,,,2,,,,84,49
19164,note_on,12,0,5,,,,,,,,2,,,,82,0
19166,note_on,30,0,6,,,,,,,,2,,,,57,0
19168,note_on,2,0,6,,,,,,,,2,,,,58,64
19175,note_on,23,0,4,,,,,,,,1,,,,58,0
19176,note_on,1,0,4,,,,,,,,1,,,,58,49
19176,note_on,0,0,5,,,,,,,,2,,,,82,49
19176,note_on,12,0,5,,,,,,,,2,,,,84,0
19185,note_on,177,0,1,,,,,,,,0,,,,74,0
19185,note_on,0,0,1,,,,,,,,0,,,,77,0
19185,note_on,177,0,8,,,,,,,,3,,,,65,0
19185,note_on,177,0,9,,,,,,,,3,,,,62,0
19188,note_on,12,0,5,,,,,,,,2,,,,82,0
19188,note_on,0,0,5,,,,,,,,2,,,,84,49
19197,note_on,45,0,11,,,,,,,,3,,,,33,0
19197,note_on,45,0,10,,,,,,,,3,,,,57,0
19198,note_on,30,0,6,,,,,,,,2,,,,58,0
19199,note_on,23,0,4,,,,,,,,1,,,,58,0
19200,note_on,7031,0,3,,,,,,,,1,,,,58,49
19200,note_on,3,0,11,,,,,,,,3,,,,34,34
19200,note_on,2,0,6,,,,,,,,2,,,,46,64
19200,note_on,1,0,4,,,,,,,,1,,,,58,49
19200,note_on,12,0,5,,,,,,,,2,,,,84,0
19200,note_on,0,0,1,,,,,,,,0,,,,75,34
19200,note_on,15,0,8,,,,,,,,3,,,,67,49
19200,note_on,3,0,10,,,,,,,,3,,,,58,34
19200,note_on,15,0,9,,,,,,,,3,,,,63,49
19200,note_on,15,0,1,,,,,,,,0,,,,79,34
19212,note_on,0,0,5,,,,,,,,2,,,,82,0
19212,note_on,0,0,5,,,,,,,,2,,,,82,0
19212,note_on,0,0,5,,,,,,,,2,,,,82,0
19212,note_on,0,0,5,,,,,,,,2,,,,82,0
19212,note_on,0,0,5,,,,,,,,2,,,,82,0
19212,note_on,0,0,5,,,,,,,,2,,,,82,0
19212,note_on,0,0,5,,,,,,,,2,,,,82,0
19212,note_on,0,0,5,,,,,,,,2,,,,82,0
19212,note_on,0,0,5,,,,,,,,2,,,,82,0
19212,note_on,0,0,5,,,,,,,,2,,,,82,0
19212,note_on,0,0,5,,,,,,,,2,,,,82,0
19212,note_on,0,0,5,,,,,,,,2,,,,82,0
19212,note_on,0,0,5,,,,,,,,2,,,,82,0
19212,note_on,0,0,5,,,,,,,,2,,,,82,0
19212,note_on,0,0,5,,,,,,,,2,,,,82,0
19212,note_on,0,0,5,,,,,,,,2,,,,84,49
19212,note_on,12,0,5,,,,,,,,2,,,,82,0
19224,note_on,12,0,5,,,,,,,,2,,,,84,0
19224,note_on,0,0,5,,,,,,,,2,,,,82,49
19230,note_on,30,0,6,,,,,,,,2,,,,46,0
19232,note_on,2,0,6,,,,,,,,2,,,,58,64
19236,note_on,12,0,5,,,,,,,,2,,,,82,0
19236,note_on,0,0,5,,,,,,,,2,,,,84,49
19245,note_on,45,0,11,,,,,,,,3,,,,34,0
19245,note_on,45,0,10,,,,,,,,3,,,,58,0
19248,note_on,0,0,5,,,,,,,,2,,,,82,49
19248,note_on,12,0,5,,,,,,,,2,,,,84,0
19248,note_on,3,0,10,,,,,,,,3,,,,57,34
19248,note_on,3,0,11,,,,,,,,3,,,,33,34
19260,note_on,0,0,5,,,,,,,,2,,,,84,49
19260,note_on,12,0,5,,,,,,,,2,,,,82,0
19262,note_on,30,0,6,,,,,,,,2,,,,58,0
19264,note_on,2,0,6,,,,,,,,2,,,,57,64
19272,note_on,12,0,5,,,,,,,,2,,,,84,0
19272,note_on,0,0,5,,,,,,,,2,,,,82,49
19284,note_on,12,0,5,,,,,,,,2,,,,82,0
19284,note_on,0,0,5,,,,,,,,2,,,,84,49
19289,note_on,89,0,9,,,,,,,,3,,,,63,0
19289,note_on,89,0,1,,,,,,,,0,,,,75,0
19289,note_on,0,0,1,,,,,,,,0,,,,79,0
19289,note_on,89,0,8,,,,,,,,3,,,,67,0
19293,note_on,45,0,11,,,,,,,,3,,,,33,0
19293,note_on,45,0,10,,,,,,,,3,,,,57,0
19294,note_on,30,0,6,,,,,,,,2,,,,57,0
19296,note_on,7,0,1,,,,,,,,0,,,,82,34
19296,note_on,2,0,6,,,,,,,,2,,,,58,64
19296,note_on,7,0,9,,,,,,,,3,,,,67,49
19296,note_on,12,0,5,,,,,,,,2,,,,84,0
19296,note_on,0,0,1,,,,,,,,0,,,,79,34
19296,note_on,0,0,5,,,,,,,,2,,,,82,49
19296,note_on,3,0,10,,,,,,,,3,,,,58,34
19296,note_on,3,0,11,,,,,,,,3,,,,34,34
19296,note_on,7,0,8,,,,,,,,3,,,,70,49
19308,note_on,12,0,5,,,,,,,,2,,,,82,0
19308,note_on,0,0,5,,,,,,,,2,,,,84,49
19320,note_on,12,0,5,,,,,,,,2,,,,84,0
19320,note_on,0,0,5,,,,,,,,2,,,,82,49
19326,note_on,30,0,6,,,,,,,,2,,,,58,0
19328,note_on,2,0,6,,,,,,,,2,,,,57,64
19332,note_on,12,0,5,,,,,,,,2,,,,82,0
19332,note_on,0,0,5,,,,,,,,2,,,,84,49
19341,note_on,45,0,10,,,,,,,,3,,,,58,0
19341,note_on,45,0,11,,,,,,,,3,,,,34,0
19344,note_on,0,0,5,,,,,,,,2,,,,82,49
19344,note_on,3,0,10,,,,,,,,3,,,,57,34
19344,note_on,12,0,5,,,,,,,,2,,,,84,0
19344,note_on,3,0,11,,,,,,,,3,,,,33,34
19356,note_on,12,0,5,,,,,,,,2,,,,82,0
19356,note_on,0,0,5,,,,,,,,2,,,,84,49
19358,note_on,30,0,6,,,,,,,,2,,,,57,0
19360,note_on,2,0,6,,,,,,,,2,,,,58,64
19368,note_on,12,0,5,,,,,,,,2,,,,84,0
19368,note_on,0,0,5,,,,,,,,2,,,,82,49
19377,note_on,177,0,3,,,,,,,,1,,,,58,0
19377,note_on,177,0,4,,,,,,,,1,,,,58,0
19380,note_on,12,0,5,,,,,,,,2,,,,82,0
19380,note_on,0,0,5,,,,,,,,2,,,,84,49
19385,note_on,89,0,9,,,,,,,,3,,,,67,0
19385,note_on,89,0,8,,,,,,,,3,,,,70,0
19385,note_on,89,0,1,,,,,,,,0,,,,79,0
19385,note_on,0,0,1,,,,,,,,0,,,,82,0
19389,note_on,45,0,10,,,,,,,,3,,,,57,0
19389,note_on,45,0,11,,,,,,,,3,,,,33,0
19390,note_on,30,0,6,,,,,,,,2,,,,58,0
19392,note_on,7,0,1,,,,,,,,0,,,,81,34
19392,note_on,15,0,3,,,,,,,,1,,,,58,49
19392,note_on,0,0,1,,,,,,,,0,,,,77,34
19392,note_on,12,0,5,,,,,,,,2,,,,84,0
19392,note_on,0,0,5,,,,,,,,2,,,,82,49
19392,note_on,7,0,9,,,,,,,,3,,,,65,49
19392,note_on,2,0,6,,,,,,,,2,,,,46,64
19392,note_on,7,0,8,,,,,,,,3,,,,69,49
19392,note_on,3,0,11,,,,,,,,3,,,,34,34
19392,note_on,3,0,10,,,,,,,,3,,,,58,34
19404,note_on,0,0,5,,,,,,,,2,,,,84,49
19404,note_on,12,0,5,,,,,,,,2,,,,82,0
19416,note_on,12,0,5,,,,,,,,2,,,,84,0
19416,note_on,0,0,5,,,,,,,,2,,,,82,49
19422,note_on,30,0,6,,,,,,,,2,,,,46,0
19424,note_on,2,0,6,,,,,,,,2,,,,58,64
19428,note_on,0,0,5,,,,,,,,2,,,,84,49
19428,note_on,12,0,5,,,,,,,,2,,,,82,0
19437,note_on,45,0,11,,,,,,,,3,,,,34,0
19437,note_on,45,0,10,,,,,,,,3,,,,58,0
19440,note_on,3,0,10,,,,,,,,3,,,,57,34
19440,note_on,12,0,5,,,,,,,,2,,,,84,0
19440,note_on,0,0,5,,,,,,,,2,,,,82,49
19440,note_on,3,0,11,,,,,,,,3,,,,33,34
19452,note_on,12,0,5,,,,,,,,2,,,,82,0
19452,note_on,0,0,5,,,,,,,,2,,,,84,49
19454,note_on,30,0,6,,,,,,,,2,,,,58,0
19456,note_on,2,0,6,,,,,,,,2,,,,57,64
19464,note_on,0,0,5,,,,,,,,2,,,,82,49
19464,note_on,12,0,5,,,,,,,,2,,,,84,0
19476,note_on,12,0,5,,,,,,,,2,,,,82,0
19476,note_on,0,0,5,,,,,,,,2,,,,84,49
19481,note_on,89,0,1,,,,,,,,0,,,,77,0
19481,note_on,0,0,1,,,,,,,,0,,,,81,0
19481,note_on,89,0,8,,,,,,,,3,,,,69,0
19481,note_on,89,0,9,,,,,,,,3,,,,65,0
19481,note_on,89,0,3,,,,,,,,1,,,,58,0
19485,note_on,45,0,11,,,,,,,,3,,,,33,0
19485,note_on,45,0,10,,,,,,,,3,,,,57,0
19486,note_on,30,0,6,,,,,,,,2,,,,57,0
19488,note_on,0,0,1,,,,,,,,0,,,,75,34
19488,note_on,7,0,1,,,,,,,,0,,,,79,34
19488,note_on,0,0,5,,,,,,,,2,,,,82,49
19488,note_on,12,0,5,,,,,,,,2,,,,84,0
19488,note_on,7,0,8,,,,,,,,3,,,,67,49
19488,note_on,3,0,10,,,,,,,,3,,,,58,34
19488,note_on,3,0,11,,,,,,,,3,,,,34,34
19488,note_on,7,0,3,,,,,,,,1,,,,58,49
19488,note_on,7,0,9,,,,,,,,3,,,,63,49
19488,note_on,2,0,6,,,,,,,,2,,,,58,64
19500,note_on,0,0,5,,,,,,,,2,,,,84,49
19500,note_on,12,0,5,,,,,,,,2,,,,82,0
19512,note_on,0,0,5,,,,,,,,2,,,,82,49
19512,note_on,12,0,5,,,,,,,,2,,,,84,0
19518,note_on,30,0,6,,,,,,,,2,,,,58,0
19520,note_on,2,0,6,,,,,,,,2,,,,57,64
19524,note_on,12,0,5,,,,,,,,2,,,,82,0
19524,note_on,0,0,5,,,,,,,,2,,,,84,49
19533,note_on,45,0,10,,,,,,,,3,,,,58,0
19533,note_on,45,0,3,,,,,,,,1,,,,58,0
19533,note_on,45,0,11,,,,,,,,3,,,,34,0
19536,note_on,12,0,5,,,,,,,,2,,,,84,0
19536,note_on,3,0,11,,,,,,,,3,,,,33,34
19536,note_on,3,0,10,,,,,,,,3,,,,57,34
19536,note_on,0,0,5,,,,,,,,2,,,,82,49
19536,note_on,3,0,3,,,,,,,,1,,,,58,49
19548,note_on,12,0,5,,,,,,,,2,,,,82,0
19548,note_on,0,0,5,,,,,,,,2,,,,84,49
19550,note_on,30,0,6,,,,,,,,2,,,,57,0
19552,note_on,2,0,6,,,,,,,,2,,,,58,64
19559,note_on,23,0,3,,,,,,,,1,,,,58,0
19560,note_on,12,0,5,,,,,,,,2,,,,84,0
19560,note_on,0,0,5,,,,,,,,2,,,,82,49
19560,note_on,1,0,3,,,,,,,,1,,,,58,49
19572,note_on,0,0,5,,,,,,,,2,,,,84,49
19572,note_on,12,0,5,,,,,,,,2,,,,82,0
19577,note_on,89,0,8,,,,,,,,3,,,,67,0
19577,note_on,0,0,1,,,,,,,,0,,,,79,0
19577,note_on,89,0,1,,,,,,,,0,,,,75,0
19577,note_on,89,0,9,,,,,,,,3,,,,63,0
19581,note_on,45,0,10,,,,,,,,3,,,,57,0
19581,note_on,45,0,11,,,,,,,,3,,,,33,0
19582,note_on,30,0,6,,,,,,,,2,,,,58,0
19583,note_on,23,0,3,,,,,,,,1,,,,58,0
19584,note_on,7,0,8,,,,,,,,3,,,,65,49
19584,note_on,7,0,9,,,,,,,,3,,,,62,49
19584,note_on,0,0,5,,,,,,,,2,,,,82,49
19584,note_on,7,0,1,,,,,,,,0,,,,77,34
19584,note_on,1,0,3,,,,,,,,1,,,,62,49
19584,note_on,12,0,5,,,,,,,,2,,,,84,0
19584,note_on,0,0,1,,,,,,,,0,,,,74,34
19584,note_on,3,0,11,,,,,,,,3,,,,34,34
19584,note_on,2,0,6,,,,,,,,2,,,,46,64
19584,note_on,3,0,10,,,,,,,,3,,,,58,34
19596,note_on,12,0,5,,,,,,,,2,,,,82,0
19596,note_on,0,0,5,,,,,,,,2,,,,84,49
19608,note_on,12,0,5,,,,,,,,2,,,,84,0
19608,note_on,0,0,5,,,,,,,,2,,,,82,49
19614,note_on,30,0,6,,,,,,,,2,,,,46,0
19616,note_on,2,0,6,,,,,,,,2,,,,58,64
19620,note_on,12,0,5,,,,,,,,2,,,,82,0
19620,note_on,0,0,5,,,,,,,,2,,,,84,49
19629,note_on,45,0,11,,,,,,,,3,,,,34,0
19629,note_on,45,0,10,,,,,,,,3,,,,58,0
19632,note_on,3,0,10,,,,,,,,3,,,,57,34
19632,note_on,3,0,11,,,,,,,,3,,,,33,34
19632,note_on,0,0,5,,,,,,,,2,,,,82,49
19632,note_on,12,0,5,,,,,,,,2,,,,84,0
19644,note_on,12,0,5,,,,,,,,2,,,,82,0
19644,note_on,0,0,5,,,,,,,,2,,,,84,49
19646,note_on,30,0,6,,,,,,,,2,,,,58,0
19648,note_on,2,0,6,,,,,,,,2,,,,57,64
19656,note_on,12,0,5,,,,,,,,2,,,,84,0
19656,note_on,0,0,5,,,,,,,,2,,,,82,49
19668,note_on,12,0,5,,,,,,,,2,,,,82,0
19668,note_on,0,0,5,,,,,,,,2,,,,84,49
19673,note_on,89,0,3,,,,,,,,1,,,,62,0
19677,note_on,45,0,11,,,,,,,,3,,,,33,0
19677,note_on,45,0,10,,,,,,,,3,,,,57,0
19678,note_on,30,0,6,,,,,,,,2,,,,57,0
19680,note_on,3,0,10,,,,,,,,3,,,,58,34
19680,note_on,3,0,11,,,,,,,,3,,,,34,34
19680,note_on,2,0,6,,,,,,,,2,,,,58,64
19680,note_on,0,0,5,,,,,,,,2,,,,82,49
19680,note_on,12,0,5,,,,,,,,2,,,,84,0
19692,note_on,12,0,5,,,,,,,,2,,,,82,0
19692,note_on,0,0,5,,,,,,,,2,,,,84,49
19704,note_on,12,0,5,,,,,,,,2,,,,84,0
19704,note_on,0,0,5,,,,,,,,2,,,,82,49
19710,note_on,30,0,6,,,,,,,,2,,,,58,0
19712,note_on,2,0,6,,,,,,,,2,,,,57,64
19716,note_on,0,0,5,,,,,,,,2,,,,84,49
19716,note_on,12,0,5,,,,,,,,2,,,,82,0
19717,note_on,133,0,9,,,,,,,,3,,,,62,0
19717,note_on,133,0,8,,,,,,,,3,,,,65,0
19717,note_on,0,0,1,,,,,,,,0,,,,77,0
19717,note_on,133,0,1,,,,,,,,0,,,,74,0
19725,note_on,45,0,11,,,,,,,,3,,,,34,0
19725,note_on,45,0,10,,,,,,,,3,,,,58,0
19728,note_on,3,0,10,,,,,,,,3,,,,57,34
19728,note_on,12,0,5,,,,,,,,2,,,,84,0
19728,note_on,3,0,11,,,,,,,,3,,,,33,34
19728,note_on,11,0,9,,,,,,,,3,,,,60,49
19728,note_on,11,0,1,,,,,,,,0,,,,75,34
19728,note_on,11,0,8,,,,,,,,3,,,,63,49
19728,note_on,0,0,1,,,,,,,,0,,,,72,34
19728,note_on,0,0,5,,,,,,,,2,,,,82,49
19740,note_on,0,0,5,,,,,,,,2,,,,84,49
19740,note_on,12,0,5,,,,,,,,2,,,,82,0
19742,note_on,30,0,6,,,,,,,,2,,,,57,0
19744,note_on,2,0,6,,,,,,,,2,,,,58,64
19752,note_on,0,0,5,,,,,,,,2,,,,82,49
19752,note_on,12,0,5,,,,,,,,2,,,,84,0
19764,note_on,12,0,5,,,,,,,,2,,,,82,0
19764,note_on,0,0,5,,,,,,,,2,,,,84,49
19773,note_on,45,0,11,,,,,,,,3,,,,33,0
19773,note_on,45,0,9,,,,,,,,3,,,,60,0
19773,note_on,45,0,10,,,,,,,,3,,,,57,0
19773,note_on,45,0,8,,,,,,,,3,,,,63,0
19773,note_on,45,0,1,,,,,,,,0,,,,72,0
19773,note_on,0,0,1,,,,,,,,0,,,,75,0
19774,note_on,30,0,6,,,,,,,,2,,,,58,0
19776,note_on,2,0,6,,,,,,,,2,,,,46,64
19776,note_on,3,0,11,,,,,,,,3,,,,34,34
19776,note_on,0,0,5,,,,,,,,2,,,,82,49
19776,note_on,3,0,1,,,,,,,,0,,,,74,34
19776,note_on,0,0,1,,,,,,,,0,,,,70,34
19776,note_on,12,0,5,,,,,,,,2,,,,84,0
19776,note_on,3,0,8,,,,,,,,3,,,,62,49
19776,note_on,3,0,9,,,,,,,,3,,,,58,49
19776,note_on,3,0,10,,,,,,,,3,,,,58,34
19788,note_on,12,0,5,,,,,,,,2,,,,82,0
19788,note_on,0,0,5,,,,,,,,2,,,,84,49
19800,note_on,12,0,5,,,,,,,,2,,,,84,0
19800,note_on,0,0,5,,,,,,,,2,,,,82,49
19806,note_on,30,0,6,,,,,,,,2,,,,46,0
19808,note_on,2,0,6,,,,,,,,2,,,,58,64
19812,note_on,12,0,5,,,,,,,,2,,,,82,0
19812,note_on,0,0,5,,,,,,,,2,,,,84,49
19821,note_on,45,0,10,,,,,,,,3,,,,58,0
19821,note_on,45,0,11,,,,,,,,3,,,,34,0
19824,note_on,0,0,5,,,,,,,,2,,,,82,49
19824,note_on,12,0,5,,,,,,,,2,,,,84,0
19824,note_on,3,0,10,,,,,,,,3,,,,57,34
19824,note_on,3,0,11,,,,,,,,3,,,,33,34
19836,note_on,12,0,5,,,,,,,,2,,,,82,0
19836,note_on,0,0,5,,,,,,,,2,,,,84,49
19838,note_on,30,0,6,,,,,,,,2,,,,58,0
19840,note_on,2,0,6,,,,,,,,2,,,,57,64
19848,note_on,0,0,5,,,,,,,,2,,,,82,49
19848,note_on,12,0,5,,,,,,,,2,,,,84,0
19860,note_on,12,0,5,,,,,,,,2,,,,82,0
19860,note_on,0,0,5,,,,,,,,2,,,,84,49
19869,note_on,45,0,10,,,,,,,,3,,,,57,0
19869,note_on,45,0,11,,,,,,,,3,,,,33,0
19870,note_on,30,0,6,,,,,,,,2,,,,57,0
19872,note_on,0,0,5,,,,,,,,2,,,,82,49
19872,note_on,3,0,10,,,,,,,,3,,,,58,34
19872,note_on,199,0,3,,,,,,,,1,,,,62,49
19872,note_on,2,0,6,,,,,,,,2,,,,58,64
19872,note_on,3,0,11,,,,,,,,3,,,,34,34
19872,note_on,12,0,5,,,,,,,,2,,,,84,0
19884,note_on,0,0,5,,,,,,,,2,,,,84,49
19884,note_on,12,0,5,,,,,,,,2,,,,82,0
19896,note_on,0,0,5,,,,,,,,2,,,,82,49
19896,note_on,12,0,5,,,,,,,,2,,,,84,0
19902,note_on,30,0,6,,,,,,,,2,,,,58,0
19904,note_on,2,0,6,,,,,,,,2,,,,57,64
19908,note_on,12,0,5,,,,,,,,2,,,,82,0
19908,note_on,0,0,5,,,,,,,,2,,,,84,49
19917,note_on,45,0,10,,,,,,,,3,,,,58,0
19917,note_on,45,0,3,,,,,,,,1,,,,62,0
19917,note_on,45,0,11,,,,,,,,3,,,,34,0
19920,note_on,0,0,5,,,,,,,,2,,,,82,49
19920,note_on,3,0,10,,,,,,,,3,,,,57,34
19920,note_on,3,0,3,,,,,,,,1,,,,62,49
19920,note_on,3,0,11,,,,,,,,3,,,,33,34
19920,note_on,12,0,5,,,,,,,,2,,,,84,0
19932,note_on,0,0,5,,,,,,,,2,,,,84,49
19932,note_on,12,0,5,,,,,,,,2,,,,82,0
19934,note_on,30,0,6,,,,,,,,2,,,,57,0
19936,note_on,2,0,6,,,,,,,,2,,,,58,64
19943,note_on,23,0,3,,,,,,,,1,,,,62,0
19944,note_on,12,0,5,,,,,,,,2,,,,84,0
19944,note_on,0,0,5,,,,,,,,2,,,,82,49
19944,note_on,1,0,3,,,,,,,,1,,,,62,49
19953,note_on,177,0,8,,,,,,,,3,,,,62,0
19953,note_on,177,0,9,,,,,,,,3,,,,58,0
19953,note_on,0,0,1,,,,,,,,0,,,,74,0
19953,note_on,177,0,1,,,,,,,,0,,,,70,0
19956,note_on,12,0,5,,,,,,,,2,,,,82,0
19956,note_on,0,0,5,,,,,,,,2,,,,84,49
19965,note_on,45,0,10,,,,,,,,3,,,,57,0
19965,note_on,45,0,11,,,,,,,,3,,,,33,0
19966,note_on,30,0,6,,,,,,,,2,,,,58,0
19967,note_on,23,0,3,,,,,,,,1,,,,62,0
19968,note_on,2,0,6,,,,,,,,2,,,,46,64
19968,note_on,0,0,1,,,,,,,,0,,,,75,34
19968,note_on,3,0,11,,,,,,,,3,,,,34,34
19968,note_on,3,0,10,,,,,,,,3,,,,58,34
19968,note_on,1,0,3,,,,,,,,1,,,,58,49
19968,note_on,15,0,8,,,,,,,,3,,,,67,49
19968,note_on,15,0,9,,,,,,,,3,,,,63,49
19968,note_on,12,0,5,,,,,,,,2,,,,84,0
19968,note_on,15,0,1,,,,,,,,0,,,,79,34
19980,note_on,12,0,5,,,,,,,,2,,,,82,0
19980,note_on,0,0,5,,,,,,,,2,,,,84,49
19980,note_on,0,0,5,,,,,,,,2,,,,82,0
19980,note_on,0,0,5,,,,,,,,2,,,,82,0
19980,note_on,0,0,5,,,,,,,,2,,,,82,0
19980,note_on,0,0,5,,,,,,,,2,,,,82,0
19980,note_on,0,0,5,,,,,,,,2,,,,82,0
19980,note_on,0,0,5,,,,,,,,2,,,,82,0
19980,note_on,0,0,5,,,,,,,,2,,,,82,0
19980,note_on,0,0,5,,,,,,,,2,,,,82,0
19980,note_on,0,0,5,,,,,,,,2,,,,82,0
19980,note_on,0,0,5,,,,,,,,2,,,,82,0
19980,note_on,0,0,5,,,,,,,,2,,,,82,0
19980,note_on,0,0,5,,,,,,,,2,,,,82,0
19980,note_on,0,0,5,,,,,,,,2,,,,82,0
19980,note_on,0,0,5,,,,,,,,2,,,,82,0
19980,note_on,0,0,5,,,,,,,,2,,,,82,0
19992,note_on,12,0,5,,,,,,,,2,,,,84,0
19992,note_on,0,0,5,,,,,,,,2,,,,82,49
19998,note_on,30,0,6,,,,,,,,2,,,,46,0
20000,note_on,2,0,6,,,,,,,,2,,,,58,64
20004,note_on,12,0,5,,,,,,,,2,,,,82,0
20004,note_on,0,0,5,,,,,,,,2,,,,84,49
20013,note_on,45,0,10,,,,,,,,3,,,,58,0
20013,note_on,45,0,11,,,,,,,,3,,,,34,0
20016,note_on,3,0,10,,,,,,,,3,,,,57,34
20016,note_on,3,0,11,,,,,,,,3,,,,33,34
20016,note_on,0,0,5,,,,,,,,2,,,,82,49
20016,note_on,12,0,5,,,,,,,,2,,,,84,0
20028,note_on,12,0,5,,,,,,,,2,,,,82,0
20028,note_on,0,0,5,,,,,,,,2,,,,84,49
20030,note_on,30,0,6,,,,,,,,2,,,,58,0
20032,note_on,2,0,6,,,,,,,,2,,,,57,64
20040,note_on,12,0,5,,,,,,,,2,,,,84,0
20040,note_on,0,0,5,,,,,,,,2,,,,82,49
20052,note_on,0,0,5,,,,,,,,2,,,,84,49
20052,note_on,12,0,5,,,,,,,,2,,,,82,0
20057,note_on,0,0,1,,,,,,,,0,,,,79,0
20057,note_on,89,0,9,,,,,,,,3,,,,63,0
20057,note_on,89,0,1,,,,,,,,0,,,,75,0
20057,note_on,89,0,8,,,,,,,,3,,,,67,0
20061,note_on,45,0,10,,,,,,,,3,,,,57,0
20061,note_on,45,0,11,,,,,,,,3,,,,33,0
20062,note_on,30,0,6,,,,,,,,2,,,,57,0
20064,note_on,12,0,5,,,,,,,,2,,,,84,0
20064,note_on,7,0,9,,,,,,,,3,,,,67,49
20064,note_on,7,0,8,,,,,,,,3,,,,70,49
20064,note_on,3,0,10,,,,,,,,3,,,,58,34
20064,note_on,3,0,11,,,,,,,,3,,,,34,34
20064,note_on,0,0,5,,,,,,,,2,,,,82,49
20064,note_on,2,0,6,,,,,,,,2,,,,58,64
20064,note_on,0,0,1,,,,,,,,0,,,,79,34
20064,note_on,7,0,1,,,,,,,,0,,,,82,34
20076,note_on,12,0,5,,,,,,,,2,,,,82,0
20076,note_on,0,0,5,,,,,,,,2,,,,84,49
20088,note_on,0,0,5,,,,,,,,2,,,,82,49
20088,note_on,12,0,5,,,,,,,,2,,,,84,0
20094,note_on,30,0,6,,,,,,,,2,,,,58,0
20096,note_on,2,0,6,,,,,,,,2,,,,57,64
20100,note_on,0,0,5,,,,,,,,2,,,,84,49
20100,note_on,12,0,5,,,,,,,,2,,,,82,0
20109,note_on,45,0,11,,,,,,,,3,,,,34,0
20109,note_on,45,0,10,,,,,,,,3,,,,58,0
20112,note_on,0,0,5,,,,,,,,2,,,,82,49
20112,note_on,12,0,5,,,,,,,,2,,,,84,0
20112,note_on,3,0,10,,,,,,,,3,,,,57,34
20112,note_on,3,0,11,,,,,,,,3,,,,33,34
20124,note_on,0,0,5,,,,,,,,2,,,,84,49
20124,note_on,12,0,5,,,,,,,,2,,,,82,0
20126,note_on,30,0,6,,,,,,,,2,,,,57,0
20128,note_on,2,0,6,,,,,,,,2,,,,58,64
20136,note_on,12,0,5,,,,,,,,2,,,,84,0
20136,note_on,0,0,5,,,,,,,,2,,,,82,49
20145,note_on,177,0,3,,,,,,,,1,,,,58,0
20148,note_on,0,0,5,,,,,,,,2,,,,84,49
20148,note_on,12,0,5,,,,,,,,2,,,,82,0
20153,note_on,89,0,1,,,,,,,,0,,,,79,0
20153,note_on,89,0,8,,,,,,,,3,,,,70,0
20153,note_on,0,0,1,,,,,,,,0,,,,82,0
20153,note_on,89,0,9,,,,,,,,3,,,,67,0
20157,note_on,45,0,10,,,,,,,,3,,,,57,0
20157,note_on,45,0,11,,,,,,,,3,,,,33,0
20158,note_on,30,0,6,,,,,,,,2,,,,58,0
20160,note_on,7,0,9,,,,,,,,3,,,,65,49
20160,note_on,7,0,8,,,,,,,,3,,,,69,49
20160,note_on,15,0,3,,,,,,,,1,,,,58,85
20160,note_on,2,0,6,,,,,,,,2,,,,46,64
20160,note_on,12,0,5,,,,,,,,2,,,,84,0
20160,note_on,3,0,10,,,,,,,,3,,,,58,34
20160,note_on,0,0,5,,,,,,,,2,,,,82,49
20160,note_on,0,0,1,,,,,,,,0,,,,77,34
20160,note_on,3,0,11,,,,,,,,3,,,,34,34
20160,note_on,7,0,1,,,,,,,,0,,,,81,34
20172,note_on,12,0,5,,,,,,,,2,,,,82,0
20172,note_on,0,0,5,,,,,,,,2,,,,84,49
20184,note_on,12,0,5,,,,,,,,2,,,,84,0
20184,note_on,0,0,5,,,,,,,,2,,,,82,49
20190,note_on,30,0,6,,,,,,,,2,,,,46,0
20192,note_on,2,0,6,,,,,,,,2,,,,58,64
20196,note_on,12,0,5,,,,,,,,2,,,,82,0
20196,note_on,0,0,5,,,,,,,,2,,,,84,49
20205,note_on,45,0,10,,,,,,,,3,,,,58,0
20205,note_on,45,0,11,,,,,,,,3,,,,34,0
20208,note_on,3,0,11,,,,,,,,3,,,,33,34
20208,note_on,12,0,5,,,,,,,,2,,,,84,0
20208,note_on,3,0,10,,,,,,,,3,,,,57,34
20208,note_on,0,0,5,,,,,,,,2,,,,82,49
20220,note_on,0,0,5,,,,,,,,2,,,,84,49
20220,note_on,12,0,5,,,,,,,,2,,,,82,0
20222,note_on,30,0,6,,,,,,,,2,,,,58,0
20224,note_on,2,0,6,,,,,,,,2,,,,57,64
20232,note_on,0,0,5,,,,,,,,2,,,,82,49
20232,note_on,12,0,5,,,,,,,,2,,,,84,0
20244,note_on,0,0,5,,,,,,,,2,,,,84,49
20244,note_on,12,0,5,,,,,,,,2,,,,82,0
20249,note_on,89,0,3,,,,,,,,1,,,,58,0
20249,note_on,89,0,1,,,,,,,,0,,,,77,0
20249,note_on,89,0,8,,,,,,,,3,,,,69,0
20249,note_on,0,0,1,,,,,,,,0,,,,81,0
20249,note_on,89,0,9,,,,,,,,3,,,,65,0
20253,note_on,45,0,11,,,,,,,,3,,,,33,0
20253,note_on,45,0,10,,,,,,,,3,,,,57,0
20254,note_on,30,0,6,,,,,,,,2,,,,57,0
20256,note_on,2,0,6,,,,,,,,2,,,,58,64
20256,note_on,7,0,1,,,,,,,,0,,,,79,34
20256,note_on,12,0,5,,,,,,,,2,,,,84,0
20256,note_on,0,0,5,,,,,,,,2,,,,82,49
20256,note_on,0,0,1,,,,,,,,0,,,,75,34
20256,note_on,7,0,9,,,,,,,,3,,,,63,49
20256,note_on,7,0,3,,,,,,,,1,,,,58,85
20256,note_on,3,0,10,,,,,,,,3,,,,58,34
20256,note_on,3,0,11,,,,,,,,3,,,,34,34
20256,note_on,7,0,8,,,,,,,,3,,,,67,49
20268,note_on,12,0,5,,,,,,,,2,,,,82,0
20268,note_on,0,0,5,,,,,,,,2,,,,84,49
20280,note_on,12,0,5,,,,,,,,2,,,,84,0
20280,note_on,0,0,5,,,,,,,,2,,,,82,49
20286,note_on,30,0,6,,,,,,,,2,,,,58,0
20288,note_on,2,0,6,,,,,,,,2,,,,57,64
20292,note_on,12,0,5,,,,,,,,2,,,,82,0
20292,note_on,0,0,5,,,,,,,,2,,,,84,49
20301,note_on,45,0,11,,,,,,,,3,,,,34,0
20301,note_on,45,0,10,,,,,,,,3,,,,58,0
20301,note_on,45,0,3,,,,,,,,1,,,,58,0
20304,note_on,3,0,11,,,,,,,,3,,,,33,34
20304,note_on,3,0,10,,,,,,,,3,,,,57,34
20304,note_on,3,0,3,,,,,,,,1,,,,58,85
20304,note_on,0,0,5,,,,,,,,2,,,,82,49
20304,note_on,12,0,5,,,,,,,,2,,,,84,0
20316,note_on,0,0,5,,,,,,,,2,,,,84,49
20316,note_on,12,0,5,,,,,,,,2,,,,82,0
20318,note_on,30,0,6,,,,,,,,2,,,,57,0
20320,note_on,2,0,6,,,,,,,,2,,,,58,64
20327,note_on,23,0,3,,,,,,,,1,,,,58,0
20328,note_on,0,0,5,,,,,,,,2,,,,82,49
20328,note_on,1,0,3,,,,,,,,1,,,,58,85
20328,note_on,12,0,5,,,,,,,,2,,,,84,0
20340,note_on,12,0,5,,,,,,,,2,,,,82,0
20340,note_on,0,0,5,,,,,,,,2,,,,84,49
20345,note_on,89,0,9,,,,,,,,3,,,,63,0
20345,note_on,89,0,8,,,,,,,,3,,,,67,0
20345,note_on,89,0,1,,,,,,,,0,,,,75,0
20345,note_on,0,0,1,,,,,,,,0,,,,79,0
20349,note_on,45,0,11,,,,,,,,3,,,,33,0
20349,note_on,45,0,10,,,,,,,,3,,,,57,0
20350,note_on,30,0,6,,,,,,,,2,,,,58,0
20351,note_on,23,0,3,,,,,,,,1,,,,58,0
20352,note_on,0,0,1,,,,,,,,0,,,,74,34
20352,note_on,7,0,8,,,,,,,,3,,,,65,49
20352,note_on,2,0,6,,,,,,,,2,,,,46,64
20352,note_on,12,0,5,,,,,,,,2,,,,84,0
20352,note_on,0,0,5,,,,,,,,2,,,,82,64
20352,note_on,1,0,3,,,,,,,,1,,,,58,85
20352,note_on,7,0,1,,,,,,,,0,,,,77,34
20352,note_on,7,0,9,,,,,,,,3,,,,62,49
20352,note_on,3,0,10,,,,,,,,3,,,,58,34
20352,note_on,3,0,11,,,,,,,,3,,,,34,34
20364,note_on,0,0,5,,,,,,,,2,,,,84,64
20364,note_on,12,0,5,,,,,,,,2,,,,82,0
20376,note_on,0,0,5,,,,,,,,2,,,,82,64
20376,note_on,12,0,5,,,,,,,,2,,,,84,0
20382,note_on,6,0,5,,,,,,,,2,,,,82,0
20384,note_on,2,0,5,,,,,,,,2,,,,86,64
20414,note_on,30,0,5,,,,,,,,2,,,,86,0
20416,note_on,2,0,5,,,,,,,,2,,,,84,64
20441,note_on,89,0,9,,,,,,,,3,,,,62,0
20441,note_on,89,0,6,,,,,,,,2,,,,46,0
20441,note_on,89,0,3,,,,,,,,1,,,,58,0
20441,note_on,0,0,1,,,,,,,,0,,,,77,0
20441,note_on,89,0,10,,,,,,,,3,,,,58,0
20441,note_on,89,0,11,,,,,,,,3,,,,34,0
20441,note_on,89,0,1,,,,,,,,0,,,,74,0
20441,note_on,89,0,8,,,,,,,,3,,,,65,0
20446,note_on,30,0,5,,,,,,,,2,,,,84,0
20448,note_on,7,0,8,,,,,,,,3,,,,74,49
20448,note_on,7,0,11,,,,,,,,3,,,,46,34
20448,note_on,7,0,10,,,,,,,,3,,,,58,34
20448,note_on,7,0,6,,,,,,,,2,,,,58,85
20448,note_on,2,0,5,,,,,,,,2,,,,82,85
20448,note_on,7,0,9,,,,,,,,3,,,,65,49
20478,note_on,30,0,5,,,,,,,,2,,,,82,0
20480,note_on,2,0,5,,,,,,,,2,,,,81,85
20510,note_on,30,0,5,,,,,,,,2,,,,81,0
20512,note_on,2,0,5,,,,,,,,2,,,,79,85
20537,note_on,89,0,10,,,,,,,,3,,,,58,0
20537,note_on,89,0,6,,,,,,,,2,,,,58,0
20537,note_on,89,0,8,,,,,,,,3,,,,74,0
20537,note_on,89,0,11,,,,,,,,3,,,,46,0
20542,note_on,30,0,5,,,,,,,,2,,,,79,0
20544,note_on,7,0,8,,,,,,,,3,,,,75,49
20544,note_on,7,0,11,,,,,,,,3,,,,45,34
20544,note_on,7,0,6,,,,,,,,2,,,,57,85
20544,note_on,7,0,10,,,,,,,,3,,,,60,34
20544,note_on,2,0,5,,,,,,,,2,,,,77,85
20574,note_on,30,0,5,,,,,,,,2,,,,77,0
20576,note_on,2,0,5,,,,,,,,2,,,,79,85
20606,note_on,30,0,5,,,,,,,,2,,,,79,0
20608,note_on,2,0,5,,,,,,,,2,,,,77,85
20625,note_on,177,0,9,,,,,,,,3,,,,65,0
20633,note_on,89,0,6,,,,,,,,2,,,,57,0
20633,note_on,89,0,8,,,,,,,,3,,,,75,0
20633,note_on,89,0,11,,,,,,,,3,,,,45,0
20638,note_on,30,0,5,,,,,,,,2,,,,77,0
20640,note_on,7,0,8,,,,,,,,3,,,,69,49
20640,note_on,2,0,5,,,,,,,,2,,,,75,85
20640,note_on,7,0,6,,,,,,,,2,,,,53,85
20640,note_on,7,0,11,,,,,,,,3,,,,41,34
20640,note_on,15,0,9,,,,,,,,3,,,,63,49
20670,note_on,30,0,5,,,,,,,,2,,,,75,0
20672,note_on,2,0,5,,,,,,,,2,,,,74,85
20702,note_on,30,0,5,,,,,,,,2,,,,74,0
20704,note_on,2,0,5,,,,,,,,2,,,,72,85
20721,note_on,177,0,10,,,,,,,,3,,,,60,0
20729,note_on,89,0,11,,,,,,,,3,,,,41,0
20729,note_on,89,0,9,,,,,,,,3,,,,63,0
20729,note_on,89,0,8,,,,,,,,3,,,,69,0
20729,note_on,89,0,6,,,,,,,,2,,,,53,0
20734,note_on,30,0,5,,,,,,,,2,,,,72,0
20736,note_on,15,0,10,,,,,,,,3,,,,58,34
20736,note_on,7,0,11,,,,,,,,3,,,,43,34
20736,note_on,7,0,9,,,,,,,,3,,,,62,49
20736,note_on,7,0,6,,,,,,,,2,,,,50,85
20736,note_on,2,0,5,,,,,,,,2,,,,70,85
20736,note_on,7,0,8,,,,,,,,3,,,,70,49
20766,note_on,30,0,5,,,,,,,,2,,,,70,0
20768,note_on,2,0,5,,,,,,,,2,,,,67,85
20798,note_on,30,0,5,,,,,,,,2,,,,67,0
20800,note_on,2,0,5,,,,,,,,2,,,,62,85
20825,note_on,89,0,6,,,,,,,,2,,,,50,0
20825,note_on,89,0,9,,,,,,,,3,,,,62,0
20825,note_on,89,0,10,,,,,,,,3,,,,58,0
20825,note_on,89,0,11,,,,,,,,3,,,,43,0
20825,note_on,89,0,8,,,,,,,,3,,,,70,0
20830,note_on,30,0,5,,,,,,,,2,,,,62,0
20832,note_on,2,0,5,,,,,,,,2,,,,60,85
20832,note_on,7,0,9,,,,,,,,3,,,,60,49
20832,note_on,391,0,1,,,,,,,,0,,,,75,34
20832,note_on,7,0,6,,,,,,,,2,,,,43,85
20832,note_on,7,0,11,,,,,,,,3,,,,39,34
20832,note_on,7,0,10,,,,,,,,3,,,,55,34
20832,note_on,7,0,8,,,,,,,,3,,,,63,49
20832,note_on,0,0,1,,,,,,,,0,,,,72,34
20862,note_on,30,0,5,,,,,,,,2,,,,60,0
20864,note_on,2,0,5,,,,,,,,2,,,,63,85
20894,note_on,30,0,5,,,,,,,,2,,,,63,0
20896,note_on,2,0,5,,,,,,,,2,,,,67,85
20921,note_on,0,0,1,,,,,,,,0,,,,75,0
20921,note_on,89,0,1,,,,,,,,0,,,,72,0
20921,note_on,89,0,9,,,,,,,,3,,,,60,0
20921,note_on,89,0,10,,,,,,,,3,,,,55,0
20921,note_on,89,0,8,,,,,,,,3,,,,63,0
20921,note_on,89,0,6,,,,,,,,2,,,,43,0
20921,note_on,89,0,11,,,,,,,,3,,,,39,0
20926,note_on,30,0,5,,,,,,,,2,,,,67,0
20928,note_on,7,0,10,,,,,,,,3,,,,53,34
20928,note_on,7,0,8,,,,,,,,3,,,,62,49
20928,note_on,0,0,1,,,,,,,,0,,,,70,34
20928,note_on,7,0,6,,,,,,,,2,,,,41,85
20928,note_on,7,0,1,,,,,,,,0,,,,74,34
20928,note_on,7,0,9,,,,,,,,3,,,,58,49
20928,note_on,2,0,5,,,,,,,,2,,,,65,85
20928,note_on,7,0,11,,,,,,,,3,,,,41,34
20958,note_on,30,0,5,,,,,,,,2,,,,65,0
20960,note_on,2,0,5,,,,,,,,2,,,,62,85
20990,note_on,30,0,5,,,,,,,,2,,,,62,0
20992,note_on,2,0,5,,,,,,,,2,,,,58,85
21017,note_on,89,0,6,,,,,,,,2,,,,41,0
21017,note_on,89,0,9,,,,,,,,3,,,,58,0
21017,note_on,0,0,1,,,,,,,,0,,,,74,0
21017,note_on,89,0,8,,,,,,,,3,,,,62,0
21017,note_on,89,0,10,,,,,,,,3,,,,53,0
21017,note_on,89,0,1,,,,,,,,0,,,,70,0
21017,note_on,89,0,11,,,,,,,,3,,,,41,0
21022,note_on,30,0,5,,,,,,,,2,,,,58,0
21024,note_on,7,0,11,,,,,,,,3,,,,29,34
21024,note_on,0,0,1,,,,,,,,0,,,,69,34
21024,note_on,7,0,1,,,,,,,,0,,,,72,34
21024,note_on,7,0,8,,,,,,,,3,,,,60,49
21024,note_on,7,0,6,,,,,,,,2,,,,39,85
21024,note_on,7,0,9,,,,,,,,3,,,,57,49
21024,note_on,2,0,5,,,,,,,,2,,,,63,85
21024,note_on,7,0,10,,,,,,,,3,,,,51,34
21054,note_on,30,0,5,,,,,,,,2,,,,63,0
21056,note_on,2,0,5,,,,,,,,2,,,,60,85
21086,note_on,30,0,5,,,,,,,,2,,,,60,0
21088,note_on,2,0,5,,,,,,,,2,,,,57,85
21113,note_on,89,0,6,,,,,,,,2,,,,39,0
21113,note_on,89,0,9,,,,,,,,3,,,,57,0
21113,note_on,89,0,10,,,,,,,,3,,,,51,0
21113,note_on,0,0,1,,,,,,,,0,,,,72,0
21113,note_on,89,0,1,,,,,,,,0,,,,69,0
21113,note_on,89,0,11,,,,,,,,3,,,,29,0
21113,note_on,89,0,8,,,,,,,,3,,,,60,0
21118,note_on,30,0,5,,,,,,,,2,,,,57,0
21120,note_on,7,0,6,,,,,,,,2,,,,38,85
21120,note_on,7,0,1,,,,,,,,0,,,,70,34
21120,note_on,11727,0,2,,,,,,,,0,,,,70,64
21120,note_on,2,0,5,,,,,,,,2,,,,58,85
21120,note_on,7,0,11,,,,,,,,3,,,,34,34
21120,note_on,7,0,8,,,,,,,,3,,,,58,49
21120,note_on,7,0,10,,,,,,,,3,,,,50,34
21120,note_on,7,0,9,,,,,,,,3,,,,58,49
21165,note_on,45,0,5,,,,,,,,2,,,,58,0
21168,note_on,3,0,5,,,,,,,,2,,,,53,85
21213,note_on,45,0,5,,,,,,,,2,,,,53,0
21216,note_on,3,0,5,,,,,,,,2,,,,50,85
21261,note_on,45,0,5,,,,,,,,2,,,,50,0
21264,note_on,3,0,5,,,,,,,,2,,,,53,85
21297,note_on,177,0,1,,,,,,,,0,,,,70,0
21297,note_on,177,0,9,,,,,,,,3,,,,58,0
21297,note_on,177,0,10,,,,,,,,3,,,,50,0
21297,note_on,177,0,6,,,,,,,,2,,,,38,0
21297,note_on,177,0,8,,,,,,,,3,,,,58,0
21297,note_on,177,0,11,,,,,,,,3,,,,34,0
21297,note_on,177,0,2,,,,,,,,0,,,,70,0
21309,note_on,45,0,5,,,,,,,,2,,,,53,0
21312,note_on,0,0,3,,,,,,,,1,,,,62,49
21312,note_on,871,0,3,,,,,,,,1,,,,70,49
21312,note_on,3,0,5,,,,,,,,2,,,,58,85
21357,note_on,45,0,5,,,,,,,,2,,,,58,0
21360,note_on,3,0,5,,,,,,,,2,,,,53,85
21401,note_on,89,0,3,,,,,,,,1,,,,62,0
21401,note_on,0,0,3,,,,,,,,1,,,,70,0
21405,note_on,45,0,5,,,,,,,,2,,,,53,0
21408,note_on,3,0,5,,,,,,,,2,,,,60,85
21408,note_on,7,0,3,,,,,,,,1,,,,72,49
21408,note_on,0,0,3,,,,,,,,1,,,,65,49
21408,note_on,0,0,5,,,,,,,,2,,,,57,85
21453,note_on,45,0,5,,,,,,,,2,,,,57,0
21453,note_on,0,0,5,,,,,,,,2,,,,60,0
21456,note_on,3,0,5,,,,,,,,2,,,,53,85
21497,note_on,0,0,3,,,,,,,,1,,,,72,0
21497,note_on,89,0,3,,,,,,,,1,,,,65,0
21501,note_on,45,0,5,,,,,,,,2,,,,53,0
21504,note_on,7,0,3,,,,,,,,1,,,,74,49
21504,note_on,0,0,3,,,,,,,,1,,,,70,49
21504,note_on,207,0,11,,,,,,,,3,,,,34,34
21504,note_on,207,0,6,,,,,,,,2,,,,46,85
21504,note_on,3,0,5,,,,,,,,2,,,,62,85
21504,note_on,0,0,5,,,,,,,,2,,,,58,85
21549,note_on,45,0,5,,,,,,,,2,,,,58,0
21549,note_on,0,0,5,,,,,,,,2,,,,62,0
21552,note_on,3,0,5,,,,,,,,2,,,,53,85
21593,note_on,89,0,3,,,,,,,,1,,,,70,0
21593,note_on,0,0,3,,,,,,,,1,,,,74,0
21597,note_on,45,0,5,,,,,,,,2,,,,53,0
21600,note_on,7,0,3,,,,,,,,1,,,,72,49
21600,note_on,0,0,5,,,,,,,,2,,,,57,85
21600,note_on,3,0,5,,,,,,,,2,,,,60,85
21600,note_on,0,0,3,,,,,,,,1,,,,65,49
21645,note_on,45,0,5,,,,,,,,2,,,,57,0
21645,note_on,0,0,5,,,,,,,,2,,,,60,0
21648,note_on,3,0,5,,,,,,,,2,,,,53,85
21681,note_on,177,0,6,,,,,,,,2,,,,46,0
21681,note_on,177,0,11,,,,,,,,3,,,,34,0
21689,note_on,0,0,3,,,,,,,,1,,,,72,0
21689,note_on,89,0,3,,,,,,,,1,,,,65,0
21693,note_on,45,0,5,,,,,,,,2,,,,53,0
21696,note_on,0,0,3,,,,,,,,1,,,,70,49
21696,note_on,15,0,6,,,,,,,,2,,,,34,85
21696,note_on,3,0,5,,,,,,,,2,,,,62,85
21696,note_on,0,0,5,,,,,,,,2,,,,58,85
21696,note_on,7,0,3,,,,,,,,1,,,,74,49
21741,note_on,45,0,5,,,,,,,,2,,,,58,0
21741,note_on,0,0,5,,,,,,,,2,,,,62,0
21744,note_on,3,0,5,,,,,,,,2,,,,53,85
21785,note_on,89,0,3,,,,,,,,1,,,,70,0
21785,note_on,0,0,3,,,,,,,,1,,,,74,0
21789,note_on,45,0,5,,,,,,,,2,,,,53,0
21792,note_on,0,0,5,,,,,,,,2,,,,60,85
21792,note_on,7,0,3,,,,,,,,1,,,,75,49
21792,note_on,3,0,5,,,,,,,,2,,,,63,85
21792,note_on,0,0,3,,,,,,,,1,,,,72,49
21837,note_on,0,0,5,,,,,,,,2,,,,63,0
21837,note_on,45,0,5,,,,,,,,2,,,,60,0
21840,note_on,3,0,5,,,,,,,,2,,,,53,85
21873,note_on,177,0,6,,,,,,,,2,,,,34,0
21881,note_on,0,0,3,,,,,,,,1,,,,75,0
21881,note_on,89,0,3,,,,,,,,1,,,,72,0
21885,note_on,45,0,5,,,,,,,,2,,,,53,0
21888,note_on,0,0,3,,,,,,,,1,,,,70,49
21888,note_on,15,0,6,,,,,,,,2,,,,41,85
21888,note_on,3,0,5,,,,,,,,2,,,,62,85
21888,note_on,0,0,5,,,,,,,,2,,,,58,85
21888,note_on,7,0,3,,,,,,,,1,,,,74,49
21933,note_on,0,0,5,,,,,,,,2,,,,62,0
21933,note_on,45,0,5,,,,,,,,2,,,,58,0
21936,note_on,3,0,5,,,,,,,,2,,,,53,85
21977,note_on,89,0,3,,,,,,,,1,,,,70,0
21977,note_on,0,0,3,,,,,,,,1,,,,74,0
21981,note_on,45,0,5,,,,,,,,2,,,,53,0
21984,note_on,3,0,5,,,,,,,,2,,,,60,85
21984,note_on,7,0,3,,,,,,,,1,,,,72,49
21984,note_on,0,0,3,,,,,,,,1,,,,65,49
21984,note_on,0,0,5,,,,,,,,2,,,,57,85
22029,note_on,0,0,5,,,,,,,,2,,,,60,0
22029,note_on,45,0,5,,,,,,,,2,,,,57,0
22032,note_on,3,0,5,,,,,,,,2,,,,53,85
22065,note_on,177,0,6,,,,,,,,2,,,,41,0
22073,note_on,0,0,3,,,,,,,,1,,,,72,0
22073,note_on,89,0,3,,,,,,,,1,,,,65,0
22077,note_on,45,0,5,,,,,,,,2,,,,53,0
22080,note_on,0,0,1,,,,,,,,0,,,,65,34
22080,note_on,3,0,5,,,,,,,,2,,,,57,85
22080,note_on,783,0,1,,,,,,,,0,,,,69,34
22125,note_on,45,0,5,,,,,,,,2,,,,57,0
22128,note_on,3,0,5,,,,,,,,2,,,,53,85
22169,note_on,0,0,1,,,,,,,,0,,,,69,0
22169,note_on,89,0,1,,,,,,,,0,,,,65,0
22173,note_on,45,0,5,,,,,,,,2,,,,53,0
22176,note_on,7,0,1,,,,,,,,0,,,,70,34
22176,note_on,0,0,1,,,,,,,,0,,,,67,34
22176,note_on,3,0,5,,,,,,,,2,,,,58,85
22176,note_on,0,0,5,,,,,,,,2,,,,55,85
22221,note_on,45,0,5,,,,,,,,2,,,,55,0
22221,note_on,0,0,5,,,,,,,,2,,,,58,0
22224,note_on,3,0,5,,,,,,,,2,,,,53,85
22265,note_on,0,0,1,,,,,,,,0,,,,70,0
22265,note_on,89,0,1,,,,,,,,0,,,,67,0
22269,note_on,45,0,5,,,,,,,,2,,,,53,0
22272,note_on,207,0,6,,,,,,,,2,,,,41,85
22272,note_on,0,0,5,,,,,,,,2,,,,57,85
22272,note_on,3,0,5,,,,,,,,2,,,,60,85
22272,note_on,0,0,1,,,,,,,,0,,,,69,34
22272,note_on,7,0,1,,,,,,,,0,,,,72,34
22317,note_on,45,0,5,,,,,,,,2,,,,57,0
22317,note_on,0,0,5,,,,,,,,2,,,,60,0
22320,note_on,3,0,5,,,,,,,,2,,,,53,85
22361,note_on,0,0,1,,,,,,,,0,,,,72,0
22361,note_on,89,0,1,,,,,,,,0,,,,69,0
22365,note_on,45,0,5,,,,,,,,2,,,,53,0
22368,note_on,3,0,5,,,,,,,,2,,,,62,85
22368,note_on,0,0,5,,,,,,,,2,,,,58,85
22368,note_on,7,0,1,,,,,,,,0,,,,74,34
22368,note_on,0,0,1,,,,,,,,0,,,,70,34
22413,note_on,45,0,5,,,,,,,,2,,,,58,0
22413,note_on,0,0,5,,,,,,,,2,,,,62,0
22416,note_on,3,0,5,,,,,,,,2,,,,53,85
22449,note_on,177,0,6,,,,,,,,2,,,,41,0
22457,note_on,0,0,1,,,,,,,,0,,,,74,0
22457,note_on,89,0,1,,,,,,,,0,,,,70,0
22461,note_on,45,0,5,,,,,,,,2,,,,53,0
22464,note_on,3,0,5,,,,,,,,2,,,,63,85
22464,note_on,0,0,5,,,,,,,,2,,,,60,85
22464,note_on,15,0,6,,,,,,,,2,,,,29,85
22464,note_on,7,0,1,,,,,,,,0,,,,75,34
22464,note_on,0,0,1,,,,,,,,0,,,,72,34
22509,note_on,0,0,5,,,,,,,,2,,,,63,0
22509,note_on,45,0,5,,,,,,,,2,,,,60,0
22512,note_on,3,0,5,,,,,,,,2,,,,53,85
22553,note_on,89,0,1,,,,,,,,0,,,,72,0
22553,note_on,0,0,1,,,,,,,,0,,,,75,0
22557,note_on,45,0,5,,,,,,,,2,,,,53,0
22560,note_on,0,0,1,,,,,,,,0,,,,74,34
22560,note_on,7,0,1,,,,,,,,0,,,,77,34
22560,note_on,3,0,5,,,,,,,,2,,,,65,85
22560,note_on,0,0,5,,,,,,,,2,,,,62,85
22605,note_on,0,0,5,,,,,,,,2,,,,65,0
22605,note_on,45,0,5,,,,,,,,2,,,,62,0
22608,note_on,3,0,5,,,,,,,,2,,,,53,85
22641,note_on,177,0,6,,,,,,,,2,,,,29,0
22649,note_on,0,0,1,,,,,,,,0,,,,77,0
22649,note_on,89,0,1,,,,,,,,0,,,,74,0
22653,note_on,45,0,5,,,,,,,,2,,,,53,0
22656,note_on,7,0,1,,,,,,,,0,,,,75,34
22656,note_on,3,0,5,,,,,,,,2,,,,63,85
22656,note_on,0,0,5,,,,,,,,2,,,,60,85
22656,note_on,0,0,1,,,,,,,,0,,,,72,34
22656,note_on,15,0,6,,,,,,,,2,,,,75,85
22701,note_on,0,0,5,,,,,,,,2,,,,63,0
22701,note_on,45,0,5,,,,,,,,2,,,,60,0
22704,note_on,3,0,5,,,,,,,,2,,,,53,85
22745,note_on,0,0,1,,,,,,,,0,,,,75,0
22745,note_on,89,0,1,,,,,,,,0,,,,72,0
22749,note_on,45,0,5,,,,,,,,2,,,,53,0
22752,note_on,0,0,5,,,,,,,,2,,,,58,85
22752,note_on,3,0,5,,,,,,,,2,,,,62,85
22752,note_on,0,0,1,,,,,,,,0,,,,70,34
22752,note_on,7,0,1,,,,,,,,0,,,,74,34
22797,note_on,45,0,5,,,,,,,,2,,,,58,0
22797,note_on,0,0,5,,,,,,,,2,,,,62,0
22800,note_on,3,0,5,,,,,,,,2,,,,53,85
22833,note_on,177,0,6,,,,,,,,2,,,,75,0
22841,note_on,89,0,1,,,,,,,,0,,,,70,0
22841,note_on,0,0,1,,,,,,,,0,,,,74,0
22845,note_on,45,0,5,,,,,,,,2,,,,53,0
22848,note_on,3,0,5,,,,,,,,2,,,,82,85
22878,note_on,30,0,5,,,,,,,,2,,,,82,0
22880,note_on,2,0,5,,,,,,,,2,,,,84,85
22910,note_on,30,0,5,,,,,,,,2,,,,84,0
22912,note_on,2,0,5,,,,,,,,2,,,,82,85
22942,note_on,30,0,5,,,,,,,,2,,,,82,0
22944,note_on,0,0,6,,,,,,,,2,,,,62,85
22944,note_on,2,0,5,,,,,,,,2,,,,80,85
22944,note_on,111,0,6,,,,,,,,2,,,,70,85
22974,note_on,30,0,5,,,,,,,,2,,,,80,0
22976,note_on,2,0,5,,,,,,,,2,,,,79,85
23006,note_on,30,0,5,,,,,,,,2,,,,79,0
23008,note_on,2,0,5,,,,,,,,2,,,,78,85
23033,note_on,0,0,6,,,,,,,,2,,,,70,0
23033,note_on,89,0,6,,,,,,,,2,,,,62,0
23038,note_on,30,0,5,,,,,,,,2,,,,78,0
23040,note_on,2,0,5,,,,,,,,2,,,,79,85
23040,note_on,0,0,6,,,,,,,,2,,,,63,85
23040,note_on,7,0,6,,,,,,,,2,,,,70,85
23070,note_on,30,0,5,,,,,,,,2,,,,79,0
23072,note_on,2,0,5,,,,,,,,2,,,,80,85
23102,note_on,30,0,5,,,,,,,,2,,,,80,0
23104,note_on,2,0,5,,,,,,,,2,,,,79,85
23129,note_on,0,0,6,,,,,,,,2,,,,70,0
23129,note_on,89,0,6,,,,,,,,2,,,,63,0
23134,note_on,30,0,5,,,,,,,,2,,,,79,0
23136,note_on,0,0,6,,,,,,,,2,,,,65,85
23136,note_on,7,0,6,,,,,,,,2,,,,68,85
23136,note_on,2,0,5,,,,,,,,2,,,,77,85
23166,note_on,30,0,5,,,,,,,,2,,,,77,0
23168,note_on,2,0,5,,,,,,,,2,,,,75,85
23198,note_on,30,0,5,,,,,,,,2,,,,75,0
23200,note_on,2,0,5,,,,,,,,2,,,,74,85
23225,note_on,89,0,6,,,,,,,,2,,,,65,0
23225,note_on,0,0,6,,,,,,,,2,,,,68,0
23230,note_on,30,0,5,,,,,,,,2,,,,74,0
23232,note_on,2,0,5,,,,,,,,2,,,,75,85
23232,note_on,7,0,6,,,,,,,,2,,,,70,85
23232,note_on,0,0,6,,,,,,,,2,,,,67,85
23262,note_on,30,0,5,,,,,,,,2,,,,75,0
23264,note_on,2,0,5,,,,,,,,2,,,,77,85
23294,note_on,30,0,5,,,,,,,,2,,,,77,0
23296,note_on,2,0,5,,,,,,,,2,,,,75,85
23321,note_on,0,0,6,,,,,,,,2,,,,70,0
23321,note_on,89,0,6,,,,,,,,2,,,,67,0
23326,note_on,30,0,5,,,,,,,,2,,,,75,0
23328,note_on,7,0,6,,,,,,,,2,,,,68,85
23328,note_on,0,0,6,,,,,,,,2,,,,65,85
23328,note_on,2,0,5,,,,,,,,2,,,,74,85
23358,note_on,30,0,5,,,,,,,,2,,,,74,0
23360,note_on,2,0,5,,,,,,,,2,,,,72,85
23390,note_on,30,0,5,,,,,,,,2,,,,72,0
23392,note_on,2,0,5,,,,,,,,2,,,,71,85
23417,note_on,89,0,6,,,,,,,,2,,,,65,0
23417,note_on,0,0,6,,,,,,,,2,,,,68,0
23422,note_on,30,0,5,,,,,,,,2,,,,71,0
23424,note_on,2,0,5,,,,,,,,2,,,,72,85
23424,note_on,0,0,6,,,,,,,,2,,,,63,85
23424,note_on,7,0,6,,,,,,,,2,,,,67,85
23454,note_on,30,0,5,,,,,,,,2,,,,72,0
23456,note_on,2,0,5,,,,,,,,2,,,,67,85
23486,note_on,30,0,5,,,,,,,,2,,,,67,0
23488,note_on,2,0,5,,,,,,,,2,,,,63,85
23513,note_on,89,0,6,,,,,,,,2,,,,63,0
23513,note_on,0,0,6,,,,,,,,2,,,,67,0
23518,note_on,30,0,5,,,,,,,,2,,,,63,0
23520,note_on,0,0,6,,,,,,,,2,,,,41,85
23520,note_on,1839,0,11,,,,,,,,3,,,,41,34
23520,note_on,7,0,6,,,,,,,,2,,,,53,85
23520,note_on,2223,0,10,,,,,,,,3,,,,62,34
23520,note_on,2223,0,9,,,,,,,,3,,,,68,49
23520,note_on,2,0,5,,,,,,,,2,,,,71,85
23520,note_on,2223,0,8,,,,,,,,3,,,,71,49
23550,note_on,30,0,5,,,,,,,,2,,,,71,0
23552,note_on,2,0,5,,,,,,,,2,,,,68,85
23582,note_on,30,0,5,,,,,,,,2,,,,68,0
23584,note_on,2,0,5,,,,,,,,2,,,,62,85
23609,note_on,89,0,11,,,,,,,,3,,,,41,0
23609,note_on,89,0,10,,,,,,,,3,,,,62,0
23609,note_on,89,0,9,,,,,,,,3,,,,68,0
23609,note_on,0,0,6,,,,,,,,2,,,,53,0
23609,note_on,89,0,8,,,,,,,,3,,,,71,0
23609,note_on,89,0,6,,,,,,,,2,,,,41,0
23614,note_on,30,0,5,,,,,,,,2,,,,62,0
23616,note_on,7,0,11,,,,,,,,3,,,,39,34
23616,note_on,7,0,6,,,,,,,,2,,,,51,85
23616,note_on,0,0,6,,,,,,,,2,,,,39,85
23616,note_on,7,0,10,,,,,,,,3,,,,63,34
23616,note_on,7,0,8,,,,,,,,3,,,,72,49
23616,note_on,2,0,5,,,,,,,,2,,,,72,85
23616,note_on,7,0,9,,,,,,,,3,,,,67,49
23646,note_on,30,0,5,,,,,,,,2,,,,72,0
23648,note_on,2,0,5,,,,,,,,2,,,,67,85
23678,note_on,30,0,5,,,,,,,,2,,,,67,0
23680,note_on,2,0,5,,,,,,,,2,,,,63,85
23705,note_on,89,0,8,,,,,,,,3,,,,72,0
23705,note_on,89,0,10,,,,,,,,3,,,,63,0
23705,note_on,0,0,6,,,,,,,,2,,,,51,0
23705,note_on,89,0,6,,,,,,,,2,,,,39,0
23705,note_on,89,0,9,,,,,,,,3,,,,67,0
23705,note_on,89,0,11,,,,,,,,3,,,,39,0
23710,note_on,30,0,5,,,,,,,,2,,,,63,0
23712,note_on,7,0,6,,,,,,,,2,,,,38,85
23712,note_on,2,0,5,,,,,,,,2,,,,74,85
23712,note_on,7,0,8,,,,,,,,3,,,,74,49
23712,note_on,7,0,9,,,,,,,,3,,,,71,49
23712,note_on,7,0,11,,,,,,,,3,,,,38,34
23712,note_on,7,0,10,,,,,,,,3,,,,65,34
23742,note_on,30,0,5,,,,,,,,2,,,,74,0
23744,note_on,2,0,5,,,,,,,,2,,,,71,85
23774,note_on,30,0,5,,,,,,,,2,,,,71,0
23776,note_on,2,0,5,,,,,,,,2,,,,65,85
23801,note_on,89,0,11,,,,,,,,3,,,,38,0
23801,note_on,89,0,9,,,,,,,,3,,,,71,0
23801,note_on,89,0,8,,,,,,,,3,,,,74,0
23801,note_on,89,0,6,,,,,,,,2,,,,38,0
23801,note_on,89,0,10,,,,,,,,3,,,,65,0
23806,note_on,30,0,5,,,,,,,,2,,,,65,0
23808,note_on,7,0,9,,,,,,,,3,,,,72,49
23808,note_on,7,0,8,,,,,,,,3,,,,75,49
23808,note_on,7,0,10,,,,,,,,3,,,,67,34
23808,note_on,2,0,5,,,,,,,,2,,,,75,85
23808,note_on,7,0,11,,,,,,,,3,,,,36,34
23808,note_on,7,0,6,,,,,,,,2,,,,48,85
23808,note_on,0,0,6,,,,,,,,2,,,,36,85
23838,note_on,30,0,5,,,,,,,,2,,,,75,0
23840,note_on,2,0,5,,,,,,,,2,,,,72,85
23870,note_on,30,0,5,,,,,,,,2,,,,72,0
23872,note_on,2,0,5,,,,,,,,2,,,,67,85
23897,note_on,89,0,11,,,,,,,,3,,,,36,0
23897,note_on,89,0,9,,,,,,,,3,,,,72,0
23897,note_on,89,0,8,,,,,,,,3,,,,75,0
23897,note_on,89,0,10,,,,,,,,3,,,,67,0
23897,note_on,0,0,6,,,,,,,,2,,,,48,0
23897,note_on,89,0,6,,,,,,,,2,,,,36,0
23902,note_on,30,0,5,,,,,,,,2,,,,67,0
23904,note_on,0,0,6,,,,,,,,2,,,,38,85
23904,note_on,7,0,6,,,,,,,,2,,,,50,85
23904,note_on,2,0,5,,,,,,,,2,,,,77,85
23904,note_on,7,0,8,,,,,,,,3,,,,74,49
23904,note_on,7,0,10,,,,,,,,3,,,,65,34
23904,note_on,7,0,9,,,,,,,,3,,,,71,49
23904,note_on,7,0,11,,,,,,,,3,,,,38,34
23934,note_on,30,0,5,,,,,,,,2,,,,77,0
23936,note_on,2,0,5,,,,,,,,2,,,,74,85
23966,note_on,30,0,5,,,,,,,,2,,,,74,0
23968,note_on,2,0,5,,,,,,,,2,,,,71,85
23993,note_on,89,0,9,,,,,,,,3,,,,71,0
23993,note_on,89,0,6,,,,,,,,2,,,,38,0
23993,note_on,89,0,10,,,,,,,,3,,,,65,0
23993,note_on,89,0,11,,,,,,,,3,,,,38,0
23993,note_on,89,0,8,,,,,,,,3,,,,74,0
23993,note_on,0,0,6,,,,,,,,2,,,,50,0
23998,note_on,30,0,5,,,,,,,,2,,,,71,0
24000,note_on,7,0,10,,,,,,,,3,,,,63,34
24000,note_on,2,0,5,,,,,,,,2,,,,79,85
24000,note_on,7,0,6,,,,,,,,2,,,,51,85
24000,note_on,0,0,6,,,,,,,,2,,,,39,85
24000,note_on,7,0,8,,,,,,,,3,,,,72,49
24000,note_on,7,0,9,,,,,,,,3,,,,72,49
24000,note_on,7,0,11,,,,,,,,3,,,,39,34
24030,note_on,30,0,5,,,,,,,,2,,,,79,0
24032,note_on,2,0,5,,,,,,,,2,,,,75,85
24062,note_on,30,0,5,,,,,,,,2,,,,75,0
24064,note_on,2,0,5,,,,,,,,2,,,,74,85
24089,note_on,0,0,6,,,,,,,,2,,,,51,0
24089,note_on,89,0,10,,,,,,,,3,,,,63,0
24089,note_on,89,0,8,,,,,,,,3,,,,72,0
24089,note_on,89,0,9,,,,,,,,3,,,,72,0
24089,note_on,89,0,6,,,,,,,,2,,,,39,0
24094,note_on,30,0,5,,,,,,,,2,,,,74,0
24096,note_on,7,0,6,,,,,,,,2,,,,63,85
24096,note_on,0,0,6,,,,,,,,2,,,,51,85
24096,note_on,7,0,9,,,,,,,,3,,,,63,49
24096,note_on,7,0,10,,,,,,,,3,,,,60,34
24096,note_on,7,0,8,,,,,,,,3,,,,79,49
24096,note_on,2,0,5,,,,,,,,2,,,,72,85
24126,note_on,30,0,5,,,,,,,,2,,,,72,0
24128,note_on,2,0,5,,,,,,,,2,,,,75,85
24158,note_on,30,0,5,,,,,,,,2,,,,75,0
24160,note_on,2,0,5,,,,,,,,2,,,,67,85
24177,note_on,177,0,11,,,,,,,,3,,,,39,0
24185,note_on,89,0,9,,,,,,,,3,,,,63,0
24185,note_on,89,0,6,,,,,,,,2,,,,51,0
24185,note_on,89,0,10,,,,,,,,3,,,,60,0
24185,note_on,89,0,8,,,,,,,,3,,,,79,0
24185,note_on,0,0,6,,,,,,,,2,,,,63,0
24190,note_on,30,0,5,,,,,,,,2,,,,67,0
24192,note_on,7,0,8,,,,,,,,3,,,,70,49
24192,note_on,2,0,5,,,,,,,,2,,,,70,85
24192,note_on,7,0,10,,,,,,,,3,,,,65,34
24192,note_on,15,0,11,,,,,,,,3,,,,41,34
24192,note_on,7,0,9,,,,,,,,3,,,,62,49
24192,note_on,21031,0,7,,,,,,,,2,,,,53,85
24192,note_on,7,0,6,,,,,,,,2,,,,62,85
24281,note_on,89,0,5,,,,,,,,2,,,,70,0
24281,note_on,89,0,8,,,,,,,,3,,,,70,0
24281,note_on,89,0,9,,,,,,,,3,,,,62,0
24281,note_on,89,0,6,,,,,,,,2,,,,62,0
24288,note_on,7,0,6,,,,,,,,2,,,,60,85
24288,note_on,7,0,9,,,,,,,,3,,,,60,49
24288,note_on,7,0,5,,,,,,,,2,,,,69,85
24288,note_on,7,0,8,,,,,,,,3,,,,69,49
24369,note_on,177,0,7,,,,,,,,2,,,,53,0
24369,note_on,177,0,10,,,,,,,,3,,,,65,0
24369,note_on,177,0,11,,,,,,,,3,,,,41,0
24377,note_on,89,0,8,,,,,,,,3,,,,69,0
24377,note_on,89,0,5,,,,,,,,2,,,,69,0
24377,note_on,89,0,9,,,,,,,,3,,,,60,0
24377,note_on,89,0,6,,,,,,,,2,,,,60,0
24384,note_on,1543,0,1,,,,,,,,0,,,,77,64
24384,note_on,0,0,3,,,,,,,,1,,,,65,64
24384,note_on,15,0,10,,,,,,,,3,,,,65,85
24384,note_on,7,0,8,,,,,,,,3,,,,77,85
24384,note_on,7,0,9,,,,,,,,3,,,,77,85
24384,note_on,2311,0,3,,,,,,,,1,,,,77,64
24384,note_on,15,0,11,,,,,,,,3,,,,53,85
24473,note_on,89,0,3,,,,,,,,1,,,,65,0
24473,note_on,0,0,3,,,,,,,,1,,,,77,0
24473,note_on,89,0,1,,,,,,,,0,,,,77,0
24473,note_on,89,0,10,,,,,,,,3,,,,65,0
24473,note_on,89,0,9,,,,,,,,3,,,,77,0
24473,note_on,89,0,11,,,,,,,,3,,,,53,0
24473,note_on,89,0,8,,,,,,,,3,,,,77,0
24480,note_on,7,0,11,,,,,,,,3,,,,53,85
24480,note_on,7,0,10,,,,,,,,3,,,,65,85
24480,note_on,0,0,3,,,,,,,,1,,,,65,64
24480,note_on,7,0,1,,,,,,,,0,,,,77,64
24480,note_on,7,0,9,,,,,,,,3,,,,77,85
24480,note_on,7,0,8,,,,,,,,3,,,,77,85
24480,note_on,7,0,3,,,,,,,,1,,,,77,64
24547,note_on,67,0,8,,,,,,,,3,,,,77,0
24547,note_on,67,0,1,,,,,,,,0,,,,77,0
24547,note_on,0,0,3,,,,,,,,1,,,,77,0
24547,note_on,67,0,11,,,,,,,,3,,,,53,0
24547,note_on,67,0,10,,,,,,,,3,,,,65,0
24547,note_on,67,0,3,,,,,,,,1,,,,65,0
24547,note_on,67,0,9,,,,,,,,3,,,,77,0
24552,note_on,5,0,10,,,,,,,,3,,,,65,85
24552,note_on,5,0,3,,,,,,,,1,,,,77,64
24552,note_on,0,0,3,,,,,,,,1,,,,65,64
24552,note_on,5,0,1,,,,,,,,0,,,,77,64
24552,note_on,5,0,8,,,,,,,,3,,,,77,85
24552,note_on,5,0,9,,,,,,,,3,,,,77,85
24552,note_on,5,0,11,,,,,,,,3,,,,53,85
24575,note_on,23,0,1,,,,,,,,0,,,,77,0
24575,note_on,23,0,10,,,,,,,,3,,,,65,0
24575,note_on,23,0,11,,,,,,,,3,,,,53,0
24575,note_on,23,0,8,,,,,,,,3,,,,77,0
24575,note_on,0,0,3,,,,,,,,1,,,,77,0
24575,note_on,23,0,3,,,,,,,,1,,,,65,0
24575,note_on,23,0,9,,,,,,,,3,,,,77,0
24576,note_on,1,0,10,,,,,,,,3,,,,62,85
24576,note_on,1,0,8,,,,,,,,3,,,,74,85
24576,note_on,1,0,1,,,,,,,,0,,,,74,64
24576,note_on,1,0,11,,,,,,,,3,,,,50,85
24576,note_on,0,0,3,,,,,,,,1,,,,62,64
24576,note_on,1,0,3,,,,,,,,1,,,,74,64
24576,note_on,1,0,9,,,,,,,,3,,,,74,85
24665,note_on,89,0,11,,,,,,,,3,,,,50,0
24665,note_on,89,0,3,,,,,,,,1,,,,62,0
24665,note_on,89,0,9,,,,,,,,3,,,,74,0
24665,note_on,89,0,10,,,,,,,,3,,,,62,0
24665,note_on,89,0,1,,,,,,,,0,,,,74,0
24665,note_on,89,0,8,,,,,,,,3,,,,74,0
24665,note_on,0,0,3,,,,,,,,1,,,,74,0
24672,note_on,7,0,1,,,,,,,,0,,,,74,64
24672,note_on,7,0,3,,,,,,,,1,,,,74,64
24672,note_on,7,0,11,,,,,,,,3,,,,50,85
24672,note_on,0,0,3,,,,,,,,1,,,,62,64
24672,note_on,7,0,10,,,,,,,,3,,,,62,85
24672,note_on,7,0,8,,,,,,,,3,,,,74,85
24672,note_on,7,0,9,,,,,,,,3,,,,74,85
24739,note_on,67,0,11,,,,,,,,3,,,,50,0
24739,note_on,67,0,10,,,,,,,,3,,,,62,0
24739,note_on,67,0,1,,,,,,,,0,,,,74,0
24739,note_on,67,0,9,,,,,,,,3,,,,74,0
24739,note_on,0,0,3,,,,,,,,1,,,,74,0
24739,note_on,67,0,3,,,,,,,,1,,,,62,0
24739,note_on,67,0,8,,,,,,,,3,,,,74,0
24744,note_on,0,0,3,,,,,,,,1,,,,62,64
24744,note_on,5,0,11,,,,,,,,3,,,,50,85
24744,note_on,5,0,9,,,,,,,,3,,,,74,85
24744,note_on,5,0,1,,,,,,,,0,,,,74,64
24744,note_on,5,0,3,,,,,,,,1,,,,74,64
24744,note_on,5,0,10,,,,,,,,3,,,,62,85
24744,note_on,5,0,8,,,,,,,,3,,,,74,85
24767,note_on,23,0,11,,,,,,,,3,,,,50,0
24767,note_on,23,0,9,,,,,,,,3,,,,74,0
24767,note_on,0,0,3,,,,,,,,1,,,,74,0
24767,note_on,23,0,3,,,,,,,,1,,,,62,0
24767,note_on,23,0,1,,,,,,,,0,,,,74,0
24767,note_on,23,0,10,,,,,,,,3,,,,62,0
24767,note_on,23,0,8,,,,,,,,3,,,,74,0
24768,note_on,1,0,8,,,,,,,,3,,,,70,85
24768,note_on,1,0,11,,,,,,,,3,,,,46,85
24768,note_on,1,0,1,,,,,,,,0,,,,70,64
24768,note_on,1,0,9,,,,,,,,3,,,,70,85
24768,note_on,1,0,10,,,,,,,,3,,,,58,85
24768,note_on,1,0,3,,,,,,,,1,,,,70,64
24768,note_on,0,0,3,,,,,,,,1,,,,58,64
24857,note_on,89,0,11,,,,,,,,3,,,,46,0
24857,note_on,89,0,1,,,,,,,,0,,,,70,0
24857,note_on,89,0,9,,,,,,,,3,,,,70,0
24857,note_on,89,0,8,,,,,,,,3,,,,70,0
24857,note_on,0,0,3,,,,,,,,1,,,,70,0
24857,note_on,89,0,3,,,,,,,,1,,,,58,0
24857,note_on,89,0,10,,,,,,,,3,,,,58,0
24864,note_on,7,0,9,,,,,,,,3,,,,70,85
24864,note_on,7,0,1,,,,,,,,0,,,,70,64
24864,note_on,7,0,11,,,,,,,,3,,,,46,85
24864,note_on,7,0,10,,,,,,,,3,,,,58,85
24864,note_on,7,0,8,,,,,,,,3,,,,70,85
24864,note_on,7,0,3,,,,,,,,1,,,,70,64
24864,note_on,0,0,3,,,,,,,,1,,,,58,64
24931,note_on,67,0,9,,,,,,,,3,,,,70,0
24931,note_on,67,0,1,,,,,,,,0,,,,70,0
24931,note_on,67,0,10,,,,,,,,3,,,,58,0
24931,note_on,67,0,8,,,,,,,,3,,,,70,0
24931,note_on,67,0,11,,,,,,,,3,,,,46,0
24931,note_on,67,0,3,,,,,,,,1,,,,58,0
24931,note_on,0,0,3,,,,,,,,1,,,,70,0
24936,note_on,5,0,1,,,,,,,,0,,,,70,64
24936,note_on,5,0,10,,,,,,,,3,,,,58,85
24936,note_on,5,0,8,,,,,,,,3,,,,70,85
24936,note_on,5,0,3,,,,,,,,1,,,,70,64
24936,note_on,0,0,3,,,,,,,,1,,,,58,64
24936,note_on,5,0,11,,,,,,,,3,,,,46,85
24936,note_on,5,0,9,,,,,,,,3,,,,70,85
24959,note_on,23,0,8,,,,,,,,3,,,,70,0
24959,note_on,23,0,10,,,,,,,,3,,,,58,0
24959,note_on,23,0,11,,,,,,,,3,,,,46,0
24959,note_on,23,0,9,,,,,,,,3,,,,70,0
24959,note_on,23,0,3,,,,,,,,1,,,,58,0
24959,note_on,0,0,3,,,,,,,,1,,,,70,0
24959,note_on,23,0,1,,,,,,,,0,,,,70,0
24960,note_on,0,0,3,,,,,,,,1,,,,65,64
24960,note_on,1,0,9,,,,,,,,3,,,,77,85
24960,note_on,1,0,10,,,,,,,,3,,,,65,85
24960,note_on,1,0,8,,,,,,,,3,,,,77,85
24960,note_on,1,0,3,,,,,,,,1,,,,77,64
24960,note_on,1,0,1,,,,,,,,0,,,,77,64
24960,note_on,1,0,11,,,,,,,,3,,,,53,85
24999,note_on,39,0,3,,,,,,,,1,,,,65,0
24999,note_on,0,0,3,,,,,,,,1,,,,77,0
24999,note_on,39,0,9,,,,,,,,3,,,,77,0
24999,note_on,39,0,8,,,,,,,,3,,,,77,0
24999,note_on,39,0,10,,,,,,,,3,,,,65,0
24999,note_on,39,0,1,,,,,,,,0,,,,77,0
24999,note_on,39,0,11,,,,,,,,3,,,,53,0
25056,note_on,0,0,3,,,,,,,,1,,,,53,64
25056,note_on,57,0,10,,,,,,,,3,,,,53,85
25056,note_on,57,0,3,,,,,,,,1,,,,65,64
25056,note_on,57,0,8,,,,,,,,3,,,,65,85
25056,note_on,57,0,11,,,,,,,,3,,,,41,85
25056,note_on,57,0,9,,,,,,,,3,,,,65,85
25056,note_on,57,0,1,,,,,,,,0,,,,65,64
25095,note_on,39,0,11,,,,,,,,3,,,,41,0
25095,note_on,39,0,3,,,,,,,,1,,,,53,0
25095,note_on,39,0,9,,,,,,,,3,,,,65,0
25095,note_on,39,0,10,,,,,,,,3,,,,53,0
25095,note_on,39,0,1,,,,,,,,0,,,,65,0
25095,note_on,0,0,3,,,,,,,,1,,,,65,0
25095,note_on,39,0,8,,,,,,,,3,,,,65,0
25152,note_on,775,0,5,,,,,,,,2,,,,72,85
25197,note_on,45,0,5,,,,,,,,2,,,,72,0
25200,note_on,3,0,5,,,,,,,,2,,,,77,85
25245,note_on,45,0,5,,,,,,,,2,,,,77,0
25248,note_on,3,0,5,,,,,,,,2,,,,81,85
25293,note_on,45,0,5,,,,,,,,2,,,,81,0
25296,note_on,3,0,5,,,,,,,,2,,,,84,85
25341,note_on,45,0,5,,,,,,,,2,,,,84,0
25344,note_on,3,0,5,,,,,,,,2,,,,84,85
25344,note_on,967,0,6,,,,,,,,2,,,,69,85
25383,note_on,39,0,5,,,,,,,,2,,,,84,0
25389,note_on,45,0,6,,,,,,,,2,,,,69,0
25392,note_on,3,0,6,,,,,,,,2,,,,72,85
25437,note_on,45,0,6,,,,,,,,2,,,,72,0
25440,note_on,3,0,6,,,,,,,,2,,,,69,85
25485,note_on,45,0,6,,,,,,,,2,,,,69,0
25488,note_on,3,0,6,,,,,,,,2,,,,72,85
25533,note_on,45,0,6,,,,,,,,2,,,,72,0
25536,note_on,153,0,5,,,,,,,,2,,,,81,85
25536,note_on,3,0,6,,,,,,,,2,,,,65,85
25575,note_on,39,0,5,,,,,,,,2,,,,81,0
25581,note_on,45,0,6,,,,,,,,2,,,,65,0
25584,note_on,3,0,6,,,,,,,,2,,,,72,85
25629,note_on,45,0,6,,,,,,,,2,,,,72,0
25632,note_on,3,0,6,,,,,,,,2,,,,65,85
25677,note_on,45,0,6,,,,,,,,2,,,,65,0
25680,note_on,3,0,6,,,,,,,,2,,,,72,85
25725,note_on,45,0,6,,,,,,,,2,,,,72,0
25728,note_on,3,0,6,,,,,,,,2,,,,67,85
25728,note_on,153,0,5,,,,,,,,2,,,,82,85
25767,note_on,39,0,5,,,,,,,,2,,,,82,0
25773,note_on,45,0,6,,,,,,,,2,,,,67,0
25776,note_on,3,0,6,,,,,,,,2,,,,72,85
25821,note_on,45,0,6,,,,,,,,2,,,,72,0
25824,note_on,3,0,6,,,,,,,,2,,,,67,85
25869,note_on,45,0,6,,,,,,,,2,,,,67,0
25872,note_on,3,0,6,,,,,,,,2,,,,72,85
25917,note_on,45,0,6,,,,,,,,2,,,,72,0
25920,note_on,3,0,6,,,,,,,,2,,,,64,85
25920,note_on,153,0,5,,,,,,,,2,,,,79,85
25959,note_on,39,0,5,,,,,,,,2,,,,79,0
25965,note_on,45,0,6,,,,,,,,2,,,,64,0
25968,note_on,3,0,6,,,,,,,,2,,,,72,85
26013,note_on,45,0,6,,,,,,,,2,,,,72,0
26016,note_on,3,0,6,,,,,,,,2,,,,64,85
26061,note_on,45,0,6,,,,,,,,2,,,,64,0
26064,note_on,3,0,6,,,,,,,,2,,,,72,85
26109,note_on,45,0,6,,,,,,,,2,,,,72,0
26112,note_on,153,0,5,,,,,,,,2,,,,81,85
26112,note_on,3,0,6,,,,,,,,2,,,,65,85
26157,note_on,45,0,6,,,,,,,,2,,,,65,0
26160,note_on,3,0,6,,,,,,,,2,,,,72,85
26201,note_on,89,0,5,,,,,,,,2,,,,81,0
26205,note_on,45,0,6,,,,,,,,2,,,,72,0
26208,note_on,7,0,5,,,,,,,,2,,,,77,85
26208,note_on,3,0,6,,,,,,,,2,,,,69,85
26253,note_on,45,0,6,,,,,,,,2,,,,69,0
26256,note_on,3,0,6,,,,,,,,2,,,,72,85
26297,note_on,89,0,5,,,,,,,,2,,,,77,0
26301,note_on,45,0,6,,,,,,,,2,,,,72,0
26304,note_on,3,0,6,,,,,,,,2,,,,70,85
26304,note_on,7,0,5,,,,,,,,2,,,,76,85
26349,note_on,45,0,6,,,,,,,,2,,,,70,0
26352,note_on,3,0,6,,,,,,,,2,,,,72,85
26393,note_on,89,0,5,,,,,,,,2,,,,76,0
26397,note_on,45,0,6,,,,,,,,2,,,,72,0
26400,note_on,7,0,5,,,,,,,,2,,,,77,85
26400,note_on,3,0,6,,,,,,,,2,,,,69,85
26445,note_on,45,0,6,,,,,,,,2,,,,69,0
26448,note_on,3,0,6,,,,,,,,2,,,,65,85
26489,note_on,89,0,5,,,,,,,,2,,,,77,0
26493,note_on,45,0,6,,,,,,,,2,,,,65,0
26496,note_on,3,0,6,,,,,,,,2,,,,72,85
26496,note_on,7,0,5,,,,,,,,2,,,,81,85
26496,note_on,0,0,5,,,,,,,,2,,,,77,85
26585,note_on,89,0,5,,,,,,,,2,,,,77,0
26585,note_on,0,0,5,,,,,,,,2,,,,81,0
26592,note_on,0,0,5,,,,,,,,2,,,,76,85
26592,note_on,7,0,5,,,,,,,,2,,,,79,85
26673,note_on,177,0,6,,,,,,,,2,,,,72,0
26681,note_on,0,0,5,,,,,,,,2,,,,79,0
26681,note_on,89,0,5,,,,,,,,2,,,,76,0
26688,note_on,7,0,5,,,,,,,,2,,,,60,85
26733,note_on,45,0,5,,,,,,,,2,,,,60,0
26736,note_on,3,0,5,,,,,,,,2,,,,65,85
26781,note_on,45,0,5,,,,,,,,2,,,,65,0
26784,note_on,3,0,5,,,,,,,,2,,,,69,85
26829,note_on,45,0,5,,,,,,,,2,,,,69,0
26832,note_on,3,0,5,,,,,,,,2,,,,72,85
26877,note_on,45,0,5,,,,,,,,2,,,,72,0
26880,note_on,1785,0,8,,,,,,,,3,,,,84,49
26880,note_on,1785,0,9,,,,,,,,3,,,,72,49
26880,note_on,3,0,5,,,,,,,,2,,,,72,85
26880,note_on,1785,0,10,,,,,,,,3,,,,60,49
26880,note_on,0,0,10,,,,,,,,3,,,,48,49
26880,note_on,1785,0,11,,,,,,,,3,,,,45,49
26880,note_on,207,0,6,,,,,,,,2,,,,57,85
26919,note_on,39,0,11,,,,,,,,3,,,,45,0
26919,note_on,39,0,8,,,,,,,,3,,,,84,0
26919,note_on,39,0,9,,,,,,,,3,,,,72,0
26925,note_on,45,0,5,,,,,,,,2,,,,72,0
26925,note_on,45,0,6,,,,,,,,2,,,,57,0
26928,note_on,3,0,5,,,,,,,,2,,,,84,85
26928,note_on,3,0,6,,,,,,,,2,,,,60,85
26973,note_on,45,0,5,,,,,,,,2,,,,84,0
26973,note_on,45,0,6,,,,,,,,2,,,,60,0
26976,note_on,3,0,6,,,,,,,,2,,,,57,85
27021,note_on,45,0,6,,,,,,,,2,,,,57,0
27024,note_on,3,0,6,,,,,,,,2,,,,60,85
27069,note_on,45,0,6,,,,,,,,2,,,,60,0
27072,note_on,153,0,8,,,,,,,,3,,,,81,49
27072,note_on,3,0,6,,,,,,,,2,,,,54,85
27072,note_on,153,0,9,,,,,,,,3,,,,69,49
27072,note_on,99,0,5,,,,,,,,2,,,,69,85
27072,note_on,153,0,11,,,,,,,,3,,,,42,49
27111,note_on,39,0,8,,,,,,,,3,,,,81,0
27111,note_on,39,0,9,,,,,,,,3,,,,69,0
27111,note_on,39,0,11,,,,,,,,3,,,,42,0
27117,note_on,45,0,6,,,,,,,,2,,,,54,0
27117,note_on,45,0,5,,,,,,,,2,,,,69,0
27120,note_on,3,0,6,,,,,,,,2,,,,60,85
27120,note_on,3,0,5,,,,,,,,2,,,,81,85
27165,note_on,45,0,6,,,,,,,,2,,,,60,0
27165,note_on,45,0,5,,,,,,,,2,,,,81,0
27168,note_on,3,0,6,,,,,,,,2,,,,54,85
27213,note_on,45,0,6,,,,,,,,2,,,,54,0
27216,note_on,3,0,6,,,,,,,,2,,,,60,85
27261,note_on,45,0,6,,,,,,,,2,,,,60,0
27264,note_on,153,0,8,,,,,,,,3,,,,82,49
27264,note_on,153,0,11,,,,,,,,3,,,,43,49
27264,note_on,153,0,9,,,,,,,,3,,,,70,49
27264,note_on,3,0,6,,,,,,,,2,,,,55,85
27264,note_on,99,0,5,,,,,,,,2,,,,70,85
27303,note_on,39,0,11,,,,,,,,3,,,,43,0
27303,note_on,39,0,9,,,,,,,,3,,,,70,0
27303,note_on,39,0,8,,,,,,,,3,,,,82,0
27309,note_on,45,0,6,,,,,,,,2,,,,55,0
27309,note_on,45,0,5,,,,,,,,2,,,,70,0
27312,note_on,3,0,5,,,,,,,,2,,,,82,85
27312,note_on,3,0,6,,,,,,,,2,,,,60,85
27357,note_on,45,0,6,,,,,,,,2,,,,60,0
27357,note_on,45,0,5,,,,,,,,2,,,,82,0
27360,note_on,3,0,6,,,,,,,,2,,,,55,85
27405,note_on,45,0,6,,,,,,,,2,,,,55,0
27408,note_on,3,0,6,,,,,,,,2,,,,60,85
27453,note_on,45,0,6,,,,,,,,2,,,,60,0
27456,note_on,153,0,8,,,,,,,,3,,,,79,49
27456,note_on,153,0,11,,,,,,,,3,,,,40,49
27456,note_on,3,0,6,,,,,,,,2,,,,52,85
27456,note_on,153,0,9,,,,,,,,3,,,,67,49
27456,note_on,99,0,5,,,,,,,,2,,,,67,85
27495,note_on,39,0,9,,,,,,,,3,,,,67,0
27495,note_on,39,0,11,,,,,,,,3,,,,40,0
27495,note_on,39,0,8,,,,,,,,3,,,,79,0
27501,note_on,45,0,6,,,,,,,,2,,,,52,0
27501,note_on,45,0,5,,,,,,,,2,,,,67,0
27504,note_on,3,0,6,,,,,,,,2,,,,60,85
27504,note_on,3,0,5,,,,,,,,2,,,,79,85
27549,note_on,45,0,6,,,,,,,,2,,,,60,0
27549,note_on,45,0,5,,,,,,,,2,,,,79,0
27552,note_on,3,0,6,,,,,,,,2,,,,52,85
27597,note_on,45,0,6,,,,,,,,2,,,,52,0
27600,note_on,3,0,6,,,,,,,,2,,,,60,85
27645,note_on,45,0,6,,,,,,,,2,,,,60,0
27648,note_on,153,0,11,,,,,,,,3,,,,41,49
27648,note_on,3,0,6,,,,,,,,2,,,,53,85
27648,note_on,99,0,5,,,,,,,,2,,,,69,85
27648,note_on,153,0,8,,,,,,,,3,,,,81,49
27648,note_on,153,0,9,,,,,,,,3,,,,69,49
27693,note_on,45,0,5,,,,,,,,2,,,,69,0
27696,note_on,3,0,5,,,,,,,,2,,,,81,85
27737,note_on,89,0,8,,,,,,,,3,,,,81,0
27737,note_on,857,0,10,,,,,,,,3,,,,48,0
27737,note_on,89,0,9,,,,,,,,3,,,,69,0
27737,note_on,89,0,6,,,,,,,,2,,,,53,0
27737,note_on,0,0,10,,,,,,,,3,,,,60,0
27737,note_on,89,0,11,,,,,,,,3,,,,41,0
27741,note_on,45,0,5,,,,,,,,2,,,,81,0
27744,note_on,7,0,6,,,,,,,,2,,,,60,85
27744,note_on,7,0,9,,,,,,,,3,,,,65,49
27744,note_on,0,0,6,,,,,,,,2,,,,57,85
27744,note_on,7,0,11,,,,,,,,3,,,,45,49
27744,note_on,7,0,10,,,,,,,,3,,,,60,49
27744,note_on,7,0,8,,,,,,,,3,,,,77,49
27744,note_on,3,0,5,,,,,,,,2,,,,65,85
27789,note_on,45,0,5,,,,,,,,2,,,,65,0
27792,note_on,3,0,5,,,,,,,,2,,,,77,85
27833,note_on,89,0,11,,,,,,,,3,,,,45,0
27833,note_on,0,0,6,,,,,,,,2,,,,60,0
27833,note_on,89,0,10,,,,,,,,3,,,,60,0
27833,note_on,89,0,6,,,,,,,,2,,,,57,0
27833,note_on,89,0,9,,,,,,,,3,,,,65,0
27833,note_on,89,0,8,,,,,,,,3,,,,77,0
27837,note_on,45,0,5,,,,,,,,2,,,,77,0
27840,note_on,0,0,6,,,,,,,,2,,,,53,85
27840,note_on,7,0,8,,,,,,,,3,,,,74,49
27840,note_on,3,0,5,,,,,,,,2,,,,62,85
27840,note_on,7,0,9,,,,,,,,3,,,,62,49
27840,note_on,7,0,6,,,,,,,,2,,,,57,85
27840,note_on,7,0,10,,,,,,,,3,,,,57,49
27840,note_on,7,0,11,,,,,,,,3,,,,41,49
27885,note_on,45,0,5,,,,,,,,2,,,,62,0
27888,note_on,3,0,5,,,,,,,,2,,,,74,85
27929,note_on,89,0,8,,,,,,,,3,,,,74,0
27929,note_on,89,0,11,,,,,,,,3,,,,41,0
27929,note_on,89,0,9,,,,,,,,3,,,,62,0
27929,note_on,0,0,6,,,,,,,,2,,,,57,0
27929,note_on,89,0,10,,,,,,,,3,,,,57,0
27929,note_on,89,0,6,,,,,,,,2,,,,53,0
27933,note_on,45,0,5,,,,,,,,2,,,,74,0
27936,note_on,7,0,8,,,,,,,,3,,,,71,49
27936,note_on,3,0,5,,,,,,,,2,,,,59,85
27936,note_on,7,0,9,,,,,,,,3,,,,59,49
27936,note_on,7,0,11,,,,,,,,3,,,,38,49
27936,note_on,0,0,6,,,,,,,,2,,,,50,85
27936,note_on,7,0,10,,,,,,,,3,,,,53,49
27936,note_on,7,0,6,,,,,,,,2,,,,53,85
27981,note_on,45,0,5,,,,,,,,2,,,,59,0
27984,note_on,3,0,5,,,,,,,,2,,,,71,85
28025,note_on,0,0,6,,,,,,,,2,,,,53,0
28025,note_on,89,0,6,,,,,,,,2,,,,50,0
28025,note_on,89,0,10,,,,,,,,3,,,,53,0
28025,note_on,89,0,9,,,,,,,,3,,,,59,0
28025,note_on,89,0,11,,,,,,,,3,,,,38,0
28025,note_on,89,0,8,,,,,,,,3,,,,71,0
28029,note_on,45,0,5,,,,,,,,2,,,,71,0
28032,note_on,3,0,5,,,,,,,,2,,,,60,85
28032,note_on,0,0,6,,,,,,,,2,,,,48,85
28032,note_on,7,0,11,,,,,,,,3,,,,36,49
28032,note_on,7,0,10,,,,,,,,3,,,,52,49
28032,note_on,7,0,6,,,,,,,,2,,,,52,85
28032,note_on,7,0,8,,,,,,,,3,,,,72,49
28032,note_on,7,0,9,,,,,,,,3,,,,60,49
28071,note_on,39,0,10,,,,,,,,3,,,,52,0
28071,note_on,39,0,11,,,,,,,,3,,,,36,0
28077,note_on,45,0,5,,,,,,,,2,,,,60,0
28080,note_on,3,0,5,,,,,,,,2,,,,72,85
28121,note_on,89,0,9,,,,,,,,3,,,,60,0
28121,note_on,89,0,8,,,,,,,,3,,,,72,0
28121,note_on,89,0,6,,,,,,,,2,,,,48,0
28121,note_on,0,0,6,,,,,,,,2,,,,52,0
28125,note_on,45,0,5,,,,,,,,2,,,,72,0
28128,note_on,57,0,10,,,,,,,,3,,,,48,49
28128,note_on,57,0,11,,,,,,,,3,,,,48,49
28128,note_on,7,0,6,,,,,,,,2,,,,60,85
28167,note_on,39,0,10,,,,,,,,3,,,,48,0
28167,note_on,39,0,11,,,,,,,,3,,,,48,0
28217,note_on,89,0,6,,,,,,,,2,,,,60,0
28224,note_on,99,0,5,,,,,,,,2,,,,72,85
28269,note_on,45,0,5,,,,,,,,2,,,,72,0
28272,note_on,3,0,5,,,,,,,,2,,,,74,85
28317,note_on,45,0,5,,,,,,,,2,,,,74,0
28320,note_on,103,0,6,,,,,,,,2,,,,57,85
28320,note_on,3,0,5,,,,,,,,2,,,,76,85
28365,note_on,45,0,5,,,,,,,,2,,,,76,0
28365,note_on,45,0,6,,,,,,,,2,,,,57,0
28368,note_on,3,0,6,,,,,,,,2,,,,60,85
28368,note_on,3,0,5,,,,,,,,2,,,,77,85
28413,note_on,45,0,6,,,,,,,,2,,,,60,0
28413,note_on,45,0,5,,,,,,,,2,,,,77,0
28416,note_on,295,0,8,,,,,,,,3,,,,84,64
28416,note_on,295,0,9,,,,,,,,3,,,,72,64
28416,note_on,249,0,11,,,,,,,,3,,,,46,64
28416,note_on,249,0,10,,,,,,,,3,,,,67,64
28416,note_on,3,0,5,,,,,,,,2,,,,77,85
28416,note_on,3,0,6,,,,,,,,2,,,,58,85
28461,note_on,45,0,6,,,,,,,,2,,,,58,0
28461,note_on,45,0,5,,,,,,,,2,,,,77,0
28464,note_on,3,0,6,,,,,,,,2,,,,60,85
28464,note_on,3,0,5,,,,,,,,2,,,,76,85
28505,note_on,89,0,11,,,,,,,,3,,,,46,0
28505,note_on,89,0,10,,,,,,,,3,,,,67,0
28509,note_on,45,0,6,,,,,,,,2,,,,60,0
28509,note_on,45,0,5,,,,,,,,2,,,,76,0
28512,note_on,3,0,5,,,,,,,,2,,,,74,85
28512,note_on,7,0,11,,,,,,,,3,,,,43,49
28512,note_on,7,0,10,,,,,,,,3,,,,64,64
28512,note_on,3,0,6,,,,,,,,2,,,,55,85
28557,note_on,45,0,6,,,,,,,,2,,,,55,0
28557,note_on,45,0,5,,,,,,,,2,,,,74,0
28560,note_on,3,0,5,,,,,,,,2,,,,72,85
28560,note_on,3,0,6,,,,,,,,2,,,,60,85
28601,note_on,89,0,11,,,,,,,,3,,,,43,0
28601,note_on,89,0,10,,,,,,,,3,,,,64,0
28605,note_on,45,0,6,,,,,,,,2,,,,60,0
28605,note_on,45,0,5,,,,,,,,2,,,,72,0
28608,note_on,3,0,5,,,,,,,,2,,,,72,85
28608,note_on,3,0,6,,,,,,,,2,,,,57,85
28608,note_on,7,0,11,,,,,,,,3,,,,45,49
28608,note_on,7,0,10,,,,,,,,3,,,,65,64
28647,note_on,39,0,10,,,,,,,,3,,,,65,0
28653,note_on,45,0,6,,,,,,,,2,,,,57,0
28653,note_on,45,0,5,,,,,,,,2,,,,72,0
28656,note_on,3,0,6,,,,,,,,2,,,,60,85
28656,note_on,3,0,5,,,,,,,,2,,,,74,85
28697,note_on,89,0,11,,,,,,,,3,,,,45,0
28701,note_on,45,0,5,,,,,,,,2,,,,74,0
28701,note_on,45,0,6,,,,,,,,2,,,,60,0
28704,note_on,7,0,11,,,,,,,,3,,,,41,49
28704,note_on,3,0,6,,,,,,,,2,,,,53,85
28704,note_on,3,0,5,,,,,,,,2,,,,76,85
28749,note_on,45,0,6,,,,,,,,2,,,,53,0
28749,note_on,45,0,5,,,,,,,,2,,,,76,0
28752,note_on,3,0,6,,,,,,,,2,,,,60,85
28752,note_on,3,0,5,,,,,,,,2,,,,77,85
28770,note_on,354,0,9,,,,,,,,3,,,,72,0
28770,note_on,354,0,8,,,,,,,,3,,,,84,0
28793,note_on,89,0,11,,,,,,,,3,,,,41,0
28797,note_on,45,0,5,,,,,,,,2,,,,77,0
28797,note_on,45,0,6,,,,,,,,2,,,,60,0
28800,note_on,30,0,8,,,,,,,,3,,,,84,64
28800,note_on,7,0,11,,,,,,,,3,,,,46,64
28800,note_on,153,0,10,,,,,,,,3,,,,67,64
28800,note_on,3,0,5,,,,,,,,2,,,,77,85
28800,note_on,30,0,9,,,,,,,,3,,,,72,64
28800,note_on,3,0,6,,,,,,,,2,,,,58,85
28845,note_on,45,0,5,,,,,,,,2,,,,77,0
28845,note_on,45,0,6,,,,,,,,2,,,,58,0
28848,note_on,3,0,6,,,,,,,,2,,,,60,85
28848,note_on,3,0,5,,,,,,,,2,,,,76,85
28889,note_on,89,0,10,,,,,,,,3,,,,67,0
28889,note_on,89,0,11,,,,,,,,3,,,,46,0
28893,note_on,45,0,5,,,,,,,,2,,,,76,0
28893,note_on,45,0,6,,,,,,,,2,,,,60,0
28896,note_on,3,0,6,,,,,,,,2,,,,55,85
28896,note_on,3,0,5,,,,,,,,2,,,,74,85
28896,note_on,7,0,10,,,,,,,,3,,,,64,64
28896,note_on,7,0,11,,,,,,,,3,,,,43,49
28941,note_on,45,0,6,,,,,,,,2,,,,55,0
28941,note_on,45,0,5,,,,,,,,2,,,,74,0
28944,note_on,3,0,6,,,,,,,,2,,,,60,85
28944,note_on,3,0,5,,,,,,,,2,,,,72,85
28985,note_on,89,0,11,,,,,,,,3,,,,43,0
28985,note_on,89,0,10,,,,,,,,3,,,,64,0
28989,note_on,45,0,6,,,,,,,,2,,,,60,0
28989,note_on,45,0,5,,,,,,,,2,,,,72,0
28992,note_on,3,0,6,,,,,,,,2,,,,57,85
28992,note_on,7,0,11,,,,,,,,3,,,,45,49
28992,note_on,3,0,5,,,,,,,,2,,,,72,85
28992,note_on,7,0,10,,,,,,,,3,,,,65,64
29031,note_on,39,0,10,,,,,,,,3,,,,65,0
29037,note_on,45,0,5,,,,,,,,2,,,,72,0
29037,note_on,45,0,6,,,,,,,,2,,,,57,0
29040,note_on,3,0,5,,,,,,,,2,,,,74,85
29040,note_on,3,0,6,,,,,,,,2,,,,60,85
29081,note_on,89,0,11,,,,,,,,3,,,,45,0
29085,note_on,45,0,5,,,,,,,,2,,,,74,0
29085,note_on,45,0,6,,,,,,,,2,,,,60,0
29088,note_on,3,0,6,,,,,,,,2,,,,53,85
29088,note_on,3,0,5,,,,,,,,2,,,,76,85
29088,note_on,7,0,11,,,,,,,,3,,,,41,49
29133,note_on,45,0,6,,,,,,,,2,,,,53,0
29133,note_on,45,0,5,,,,,,,,2,,,,76,0
29136,note_on,3,0,5,,,,,,,,2,,,,77,85
29136,note_on,3,0,6,,,,,,,,2,,,,60,85
29154,note_on,354,0,9,,,,,,,,3,,,,72,0
29154,note_on,354,0,8,,,,,,,,3,,,,84,0
29177,note_on,89,0,11,,,,,,,,3,,,,41,0
29181,note_on,45,0,6,,,,,,,,2,,,,60,0
29181,note_on,45,0,5,,,,,,,,2,,,,77,0
29184,note_on,3,0,6,,,,,,,,2,,,,58,85
29184,note_on,153,0,10,,,,,,,,3,,,,67,64
29184,note_on,7,0,11,,,,,,,,3,,,,46,64
29184,note_on,30,0,8,,,,,,,,3,,,,84,64
29184,note_on,3,0,5,,,,,,,,2,,,,77,85
29184,note_on,30,0,9,,,,,,,,3,,,,72,64
29229,note_on,45,0,5,,,,,,,,2,,,,77,0
29229,note_on,45,0,6,,,,,,,,2,,,,58,0
29232,note_on,3,0,5,,,,,,,,2,,,,76,85
29232,note_on,3,0,6,,,,,,,,2,,,,60,85
29273,note_on,89,0,11,,,,,,,,3,,,,46,0
29273,note_on,89,0,10,,,,,,,,3,,,,67,0
29277,note_on,45,0,6,,,,,,,,2,,,,60,0
29277,note_on,45,0,5,,,,,,,,2,,,,76,0
29280,note_on,7,0,10,,,,,,,,3,,,,64,64
29280,note_on,3,0,6,,,,,,,,2,,,,55,85
29280,note_on,3,0,5,,,,,,,,2,,,,74,85
29280,note_on,7,0,11,,,,,,,,3,,,,43,49
29325,note_on,45,0,5,,,,,,,,2,,,,74,0
29325,note_on,45,0,6,,,,,,,,2,,,,55,0
29328,note_on,3,0,6,,,,,,,,2,,,,60,85
29328,note_on,3,0,5,,,,,,,,2,,,,72,85
29369,note_on,89,0,10,,,,,,,,3,,,,64,0
29369,note_on,89,0,11,,,,,,,,3,,,,43,0
29373,note_on,45,0,6,,,,,,,,2,,,,60,0
29373,note_on,45,0,5,,,,,,,,2,,,,72,0
29376,note_on,3,0,6,,,,,,,,2,,,,57,85
29376,note_on,7,0,10,,,,,,,,3,,,,65,64
29376,note_on,7,0,11,,,,,,,,3,,,,45,49
29376,note_on,3,0,5,,,,,,,,2,,,,77,85
29415,note_on,39,0,10,,,,,,,,3,,,,65,0
29421,note_on,45,0,6,,,,,,,,2,,,,57,0
29421,note_on,45,0,5,,,,,,,,2,,,,77,0
29424,note_on,3,0,6,,,,,,,,2,,,,60,85
29424,note_on,3,0,5,,,,,,,,2,,,,79,85
29465,note_on,89,0,11,,,,,,,,3,,,,45,0
29469,note_on,45,0,5,,,,,,,,2,,,,79,0
29469,note_on,45,0,6,,,,,,,,2,,,,60,0
29472,note_on,3,0,5,,,,,,,,2,,,,81,85
29472,note_on,3,0,6,,,,,,,,2,,,,53,85
29472,note_on,7,0,11,,,,,,,,3,,,,41,49
29517,note_on,45,0,6,,,,,,,,2,,,,53,0
29517,note_on,45,0,5,,,,,,,,2,,,,81,0
29520,note_on,3,0,6,,,,,,,,2,,,,60,85
29520,note_on,3,0,5,,,,,,,,2,,,,77,85
29538,note_on,354,0,8,,,,,,,,3,,,,84,0
29538,note_on,354,0,9,,,,,,,,3,,,,72,0
29561,note_on,89,0,11,,,,,,,,3,,,,41,0
29565,note_on,45,0,5,,,,,,,,2,,,,77,0
29565,note_on,45,0,6,,,,,,,,2,,,,60,0
29568,note_on,3,0,6,,,,,,,,2,,,,55,85
29568,note_on,7,0,11,,,,,,,,3,,,,43,49
29568,note_on,3,0,5,,,,,,,,2,,,,82,85
29568,note_on,30,0,8,,,,,,,,3,,,,76,64
29568,note_on,30,0,9,,,,,,,,3,,,,70,64
29568,note_on,153,0,10,,,,,,,,3,,,,67,64
29657,note_on,89,0,10,,,,,,,,3,,,,67,0
29657,note_on,89,0,6,,,,,,,,2,,,,55,0
29657,note_on,89,0,5,,,,,,,,2,,,,82,0
29657,note_on,89,0,8,,,,,,,,3,,,,76,0
29657,note_on,89,0,9,,,,,,,,3,,,,70,0
29657,note_on,89,0,11,,,,,,,,3,,,,43,0
29760,note_on,103,0,6,,,,,,,,2,,,,76,85
29790,note_on,30,0,6,,,,,,,,2,,,,76,0
29792,note_on,135,0,5,,,,,,,,2,,,,79,85
29822,note_on,30,0,5,,,,,,,,2,,,,79,0
29824,note_on,2,0,5,,,,,,,,2,,,,82,85
29854,note_on,30,0,5,,,,,,,,2,,,,82,0
29856,note_on,66,0,6,,,,,,,,2,,,,78,85
29886,note_on,30,0,6,,,,,,,,2,,,,78,0
29888,note_on,34,0,5,,,,,,,,2,,,,81,85
29918,note_on,30,0,5,,,,,,,,2,,,,81,0
29920,note_on,2,0,5,,,,,,,,2,,,,84,85
29950,note_on,30,0,5,,,,,,,,2,,,,84,0
29952,note_on,66,0,6,,,,,,,,2,,,,79,85
29984,note_on,34,0,5,,,,,,,,2,,,,82,85
30014,note_on,30,0,5,,,,,,,,2,,,,82,0
30016,note_on,2,0,5,,,,,,,,2,,,,84,85
30041,note_on,89,0,6,,,,,,,,2,,,,79,0
30046,note_on,30,0,5,,,,,,,,2,,,,84,0
30048,note_on,2,0,5,,,,,,,,2,,,,86,85
30078,note_on,30,0,5,,,,,,,,2,,,,86,0
30080,note_on,2,0,5,,,,,,,,2,,,,84,85
30110,note_on,30,0,5,,,,,,,,2,,,,84,0
30112,note_on,2,0,5,,,,,,,,2,,,,82,85
30142,note_on,30,0,5,,,,,,,,2,,,,82,0
30144,note_on,103,0,6,,,,,,,,2,,,,74,85
30174,note_on,30,0,6,,,,,,,,2,,,,74,0
30176,note_on,34,0,5,,,,,,,,2,,,,77,85
30206,note_on,30,0,5,,,,,,,,2,,,,77,0
30208,note_on,2,0,5,,,,,,,,2,,,,81,85
30238,note_on,30,0,5,,,,,,,,2,,,,81,0
30240,note_on,66,0,6,,,,,,,,2,,,,76,85
30270,note_on,30,0,6,,,,,,,,2,,,,76,0
30272,note_on,34,0,5,,,,,,,,2,,,,79,85
30302,note_on,30,0,5,,,,,,,,2,,,,79,0
30304,note_on,2,0,5,,,,,,,,2,,,,82,85
30334,note_on,30,0,5,,,,,,,,2,,,,82,0
30336,note_on,66,0,6,,,,,,,,2,,,,77,85
30368,note_on,34,0,5,,,,,,,,2,,,,81,85
30398,note_on,30,0,5,,,,,,,,2,,,,81,0
30400,note_on,2,0,5,,,,,,,,2,,,,82,85
30425,note_on,89,0,6,,,,,,,,2,,,,77,0
30430,note_on,30,0,5,,,,,,,,2,,,,82,0
30432,note_on,2,0,5,,,,,,,,2,,,,84,85
30462,note_on,30,0,5,,,,,,,,2,,,,84,0
30464,note_on,2,0,5,,,,,,,,2,,,,82,85
30494,note_on,30,0,5,,,,,,,,2,,,,82,0
30496,note_on,2,0,5,,,,,,,,2,,,,81,85
30526,note_on,30,0,5,,,,,,,,2,,,,81,0
30528,note_on,103,0,6,,,,,,,,2,,,,67,85
30558,note_on,30,0,6,,,,,,,,2,,,,67,0
30560,note_on,34,0,5,,,,,,,,2,,,,76,85
30590,note_on,30,0,5,,,,,,,,2,,,,76,0
30592,note_on,2,0,5,,,,,,,,2,,,,79,85
30622,note_on,30,0,5,,,,,,,,2,,,,79,0
30624,note_on,66,0,6,,,,,,,,2,,,,69,85
30654,note_on,30,0,6,,,,,,,,2,,,,69,0
30656,note_on,34,0,5,,,,,,,,2,,,,77,85
30686,note_on,30,0,5,,,,,,,,2,,,,77,0
30688,note_on,2,0,5,,,,,,,,2,,,,81,85
30718,note_on,30,0,5,,,,,,,,2,,,,81,0
30720,note_on,66,0,6,,,,,,,,2,,,,70,85
30752,note_on,34,0,5,,,,,,,,2,,,,79,85
30782,note_on,30,0,5,,,,,,,,2,,,,79,0
30784,note_on,2,0,5,,,,,,,,2,,,,81,85
30809,note_on,89,0,6,,,,,,,,2,,,,70,0
30814,note_on,30,0,5,,,,,,,,2,,,,81,0
30816,note_on,2,0,5,,,,,,,,2,,,,82,85
30846,note_on,30,0,5,,,,,,,,2,,,,82,0
30848,note_on,2,0,5,,,,,,,,2,,,,81,85
30878,note_on,30,0,5,,,,,,,,2,,,,81,0
30880,note_on,2,0,5,,,,,,,,2,,,,79,85
30910,note_on,30,0,5,,,,,,,,2,,,,79,0
30912,note_on,103,0,6,,,,,,,,2,,,,67,85
30942,note_on,30,0,6,,,,,,,,2,,,,67,0
30944,note_on,34,0,5,,,,,,,,2,,,,74,85
30974,note_on,30,0,5,,,,,,,,2,,,,74,0
30976,note_on,2,0,5,,,,,,,,2,,,,77,85
31006,note_on,30,0,5,,,,,,,,2,,,,77,0
31008,note_on,66,0,6,,,,,,,,2,,,,72,85
31038,note_on,30,0,6,,,,,,,,2,,,,72,0
31040,note_on,34,0,5,,,,,,,,2,,,,76,85
31070,note_on,30,0,5,,,,,,,,2,,,,76,0
31072,note_on,2,0,5,,,,,,,,2,,,,79,85
31102,note_on,30,0,5,,,,,,,,2,,,,79,0
31104,note_on,2,0,5,,,,,,,,2,,,,77,85
31104,note_on,66,0,6,,,,,,,,2,,,,65,85
31193,note_on,89,0,5,,,,,,,,2,,,,77,0
31193,note_on,89,0,6,,,,,,,,2,,,,65,0
31200,note_on,7,0,6,,,,,,,,2,,,,53,85
31289,note_on,89,0,6,,,,,,,,2,,,,53,0
31296,note_on,103,0,5,,,,,,,,2,,,,72,85
31296,note_on,1639,0,9,,,,,,,,3,,,,60,49
31296,note_on,1639,0,8,,,,,,,,3,,,,72,49
31319,note_on,23,0,5,,,,,,,,2,,,,72,0
31320,note_on,1,0,5,,,,,,,,2,,,,84,85
31341,note_on,45,0,9,,,,,,,,3,,,,60,0
31341,note_on,45,0,8,,,,,,,,3,,,,72,0
31343,note_on,23,0,5,,,,,,,,2,,,,84,0
31344,note_on,3,0,8,,,,,,,,3,,,,74,49
31344,note_on,1,0,5,,,,,,,,2,,,,72,85
31344,note_on,3,0,9,,,,,,,,3,,,,62,49
31367,note_on,23,0,5,,,,,,,,2,,,,72,0
31368,note_on,1,0,5,,,,,,,,2,,,,84,85
31389,note_on,45,0,9,,,,,,,,3,,,,62,0
31389,note_on,45,0,8,,,,,,,,3,,,,74,0
31391,note_on,23,0,5,,,,,,,,2,,,,84,0
31392,note_on,3,0,9,,,,,,,,3,,,,64,49
31392,note_on,1,0,5,,,,,,,,2,,,,72,85
31392,note_on,3,0,8,,,,,,,,3,,,,76,49
31392,note_on,103,0,6,,,,,,,,2,,,,57,85
31415,note_on,23,0,5,,,,,,,,2,,,,72,0
31416,note_on,1,0,5,,,,,,,,2,,,,84,85
31437,note_on,45,0,8,,,,,,,,3,,,,76,0
31437,note_on,45,0,9,,,,,,,,3,,,,64,0
31437,note_on,45,0,6,,,,,,,,2,,,,57,0
31439,note_on,23,0,5,,,,,,,,2,,,,84,0
31440,note_on,3,0,8,,,,,,,,3,,,,77,49
31440,note_on,1,0,5,,,,,,,,2,,,,72,85
31440,note_on,3,0,9,,,,,,,,3,,,,65,49
31440,note_on,3,0,6,,,,,,,,2,,,,60,85
31463,note_on,23,0,5,,,,,,,,2,,,,72,0
31464,note_on,1,0,5,,,,,,,,2,,,,84,85
31485,note_on,45,0,8,,,,,,,,3,,,,77,0
31485,note_on,45,0,9,,,,,,,,3,,,,65,0
31485,note_on,45,0,6,,,,,,,,2,,,,60,0
31487,note_on,23,0,5,,,,,,,,2,,,,84,0
31488,note_on,1,0,5,,,,,,,,2,,,,72,85
31488,note_on,1831,0,11,,,,,,,,3,,,,46,64
31488,note_on,3,0,8,,,,,,,,3,,,,77,64
31488,note_on,3,0,6,,,,,,,,2,,,,58,85
31488,note_on,3,0,9,,,,,,,,3,,,,65,64
31488,note_on,0,0,1,,,,,,,,0,,,,72,64
31488,note_on,6393,0,3,,,,,,,,1,,,,72,64
31488,note_on,1831,0,10,,,,,,,,3,,,,55,64
31488,note_on,6393,0,1,,,,,,,,0,,,,84,64
31511,note_on,23,0,5,,,,,,,,2,,,,72,0
31512,note_on,1,0,5,,,,,,,,2,,,,84,76
31533,note_on,45,0,6,,,,,,,,2,,,,58,0
31533,note_on,45,0,9,,,,,,,,3,,,,65,0
31533,note_on,45,0,8,,,,,,,,3,,,,77,0
31535,note_on,23,0,5,,,,,,,,2,,,,84,0
31536,note_on,1,0,5,,,,,,,,2,,,,72,67
31536,note_on,3,0,6,,,,,,,,2,,,,60,85
31536,note_on,3,0,8,,,,,,,,3,,,,76,49
31536,note_on,3,0,9,,,,,,,,3,,,,64,49
31559,note_on,23,0,5,,,,,,,,2,,,,72,0
31560,note_on,1,0,5,,,,,,,,2,,,,84,58
31577,note_on,0,0,1,,,,,,,,0,,,,84,0
31577,note_on,89,0,11,,,,,,,,3,,,,46,0
31577,note_on,89,0,1,,,,,,,,0,,,,72,0
31577,note_on,89,0,10,,,,,,,,3,,,,55,0
31581,note_on,45,0,9,,,,,,,,3,,,,64,0
31581,note_on,45,0,6,,,,,,,,2,,,,60,0
31581,note_on,45,0,8,,,,,,,,3,,,,76,0
31583,note_on,23,0,5,,,,,,,,2,,,,84,0
31584,note_on,3,0,9,,,,,,,,3,,,,62,49
31584,note_on,7,0,10,,,,,,,,3,,,,52,49
31584,note_on,0,0,1,,,,,,,,0,,,,70,49
31584,note_on,7,0,1,,,,,,,,0,,,,76,49
31584,note_on,7,0,11,,,,,,,,3,,,,43,49
31584,note_on,3,0,6,,,,,,,,2,,,,55,85
31584,note_on,3,0,8,,,,,,,,3,,,,74,49
31584,note_on,1,0,5,,,,,,,,2,,,,72,49
31607,note_on,23,0,5,,,,,,,,2,,,,72,0
31608,note_on,1,0,5,,,,,,,,2,,,,84,49
31629,note_on,45,0,6,,,,,,,,2,,,,55,0
31629,note_on,45,0,8,,,,,,,,3,,,,74,0
31629,note_on,45,0,9,,,,,,,,3,,,,62,0
31631,note_on,23,0,5,,,,,,,,2,,,,84,0
31632,note_on,3,0,6,,,,,,,,2,,,,60,85
31632,note_on,3,0,8,,,,,,,,3,,,,72,49
31632,note_on,1,0,5,,,,,,,,2,,,,72,49
31632,note_on,3,0,9,,,,,,,,3,,,,60,49
31655,note_on,23,0,5,,,,,,,,2,,,,72,0
31656,note_on,1,0,5,,,,,,,,2,,,,84,49
31673,note_on,0,0,1,,,,,,,,0,,,,76,0
31673,note_on,89,0,1,,,,,,,,0,,,,70,0
31673,note_on,89,0,11,,,,,,,,3,,,,43,0
31673,note_on,89,0,10,,,,,,,,3,,,,52,0
31677,note_on,45,0,8,,,,,,,,3,,,,72,0
31677,note_on,45,0,9,,,,,,,,3,,,,60,0
31677,note_on,45,0,6,,,,,,,,2,,,,60,0
31679,note_on,23,0,5,,,,,,,,2,,,,84,0
31680,note_on,7,0,1,,,,,,,,0,,,,77,49
31680,note_on,3,0,6,,,,,,,,2,,,,57,85
31680,note_on,7,0,11,,,,,,,,3,,,,45,49
31680,note_on,7,0,10,,,,,,,,3,,,,53,49
31680,note_on,3,0,9,,,,,,,,3,,,,60,49
31680,note_on,1,0,5,,,,,,,,2,,,,72,49
31680,note_on,3,0,8,,,,,,,,3,,,,72,49
31680,note_on,0,0,1,,,,,,,,0,,,,69,49
31703,note_on,23,0,5,,,,,,,,2,,,,72,0
31704,note_on,1,0,5,,,,,,,,2,,,,84,49
31719,note_on,39,0,1,,,,,,,,0,,,,69,0
31719,note_on,39,0,10,,,,,,,,3,,,,53,0
31719,note_on,0,0,1,,,,,,,,0,,,,77,0
31725,note_on,45,0,9,,,,,,,,3,,,,60,0
31725,note_on,45,0,6,,,,,,,,2,,,,57,0
31725,note_on,45,0,8,,,,,,,,3,,,,72,0
31727,note_on,23,0,5,,,,,,,,2,,,,84,0
31728,note_on,3,0,8,,,,,,,,3,,,,74,49
31728,note_on,3,0,9,,,,,,,,3,,,,62,49
31728,note_on,3,0,6,,,,,,,,2,,,,60,85
31728,note_on,1,0,5,,,,,,,,2,,,,72,49
31751,note_on,23,0,5,,,,,,,,2,,,,72,0
31752,note_on,1,0,5,,,,,,,,2,,,,84,49
31753,note_on,265,0,3,,,,,,,,1,,,,72,0
31769,note_on,89,0,11,,,,,,,,3,,,,45,0
31773,note_on,45,0,9,,,,,,,,3,,,,62,0
31773,note_on,45,0,6,,,,,,,,2,,,,60,0
31773,note_on,45,0,8,,,,,,,,3,,,,74,0
31775,note_on,23,0,5,,,,,,,,2,,,,84,0
31776,note_on,7,0,11,,,,,,,,3,,,,41,49
31776,note_on,3,0,9,,,,,,,,3,,,,64,49
31776,note_on,3,0,6,,,,,,,,2,,,,53,85
31776,note_on,3,0,8,,,,,,,,3,,,,76,49
31776,note_on,1,0,5,,,,,,,,2,,,,72,49
31799,note_on,23,0,5,,,,,,,,2,,,,72,0
31800,note_on,1,0,5,,,,,,,,2,,,,84,49
31821,note_on,45,0,9,,,,,,,,3,,,,64,0
31821,note_on,45,0,6,,,,,,,,2,,,,53,0
31821,note_on,45,0,8,,,,,,,,3,,,,76,0
31823,note_on,23,0,5,,,,,,,,2,,,,84,0
31824,note_on,3,0,6,,,,,,,,2,,,,60,85
31824,note_on,1,0,5,,,,,,,,2,,,,72,49
31824,note_on,3,0,9,,,,,,,,3,,,,65,49
31824,note_on,3,0,8,,,,,,,,3,,,,77,49
31847,note_on,23,0,5,,,,,,,,2,,,,72,0
31848,note_on,1,0,5,,,,,,,,2,,,,84,49
31865,note_on,89,0,11,,,,,,,,3,,,,41,0
31869,note_on,45,0,8,,,,,,,,3,,,,77,0
31869,note_on,45,0,6,,,,,,,,2,,,,60,0
31869,note_on,45,0,9,,,,,,,,3,,,,65,0
31871,note_on,23,0,5,,,,,,,,2,,,,84,0
31872,note_on,3,0,6,,,,,,,,2,,,,58,85
31872,note_on,7,0,11,,,,,,,,3,,,,46,64
31872,note_on,3,0,9,,,,,,,,3,,,,65,64
31872,note_on,119,0,3,,,,,,,,1,,,,72,64
31872,note_on,1,0,5,,,,,,,,2,,,,72,85
31872,note_on,153,0,1,,,,,,,,0,,,,84,64
31872,note_on,0,0,1,,,,,,,,0,,,,72,64
31872,note_on,153,0,10,,,,,,,,3,,,,55,64
31872,note_on,3,0,8,,,,,,,,3,,,,77,64
31895,note_on,23,0,5,,,,,,,,2,,,,72,0
31896,note_on,1,0,5,,,,,,,,2,,,,84,76
31917,note_on,45,0,9,,,,,,,,3,,,,65,0
31917,note_on,45,0,6,,,,,,,,2,,,,58,0
31917,note_on,45,0,8,,,,,,,,3,,,,77,0
31919,note_on,23,0,5,,,,,,,,2,,,,84,0
31920,note_on,1,0,5,,,,,,,,2,,,,72,67
31920,note_on,3,0,6,,,,,,,,2,,,,60,85
31920,note_on,3,0,8,,,,,,,,3,,,,76,49
31920,note_on,3,0,9,,,,,,,,3,,,,64,49
31943,note_on,23,0,5,,,,,,,,2,,,,72,0
31944,note_on,1,0,5,,,,,,,,2,,,,84,58
31961,note_on,0,0,1,,,,,,,,0,,,,84,0
31961,note_on,89,0,1,,,,,,,,0,,,,72,0
31961,note_on,89,0,10,,,,,,,,3,,,,55,0
31961,note_on,89,0,11,,,,,,,,3,,,,46,0
31965,note_on,45,0,8,,,,,,,,3,,,,76,0
31965,note_on,45,0,6,,,,,,,,2,,,,60,0
31965,note_on,45,0,9,,,,,,,,3,,,,64,0
31967,note_on,23,0,5,,,,,,,,2,,,,84,0
31968,note_on,3,0,6,,,,,,,,2,,,,55,85
31968,note_on,7,0,1,,,,,,,,0,,,,76,49
31968,note_on,7,0,10,,,,,,,,3,,,,52,49
31968,note_on,3,0,9,,,,,,,,3,,,,62,49
31968,note_on,0,0,1,,,,,,,,0,,,,70,49
31968,note_on,1,0,5,,,,,,,,2,,,,72,49
31968,note_on,7,0,11,,,,,,,,3,,,,43,49
31968,note_on,3,0,8,,,,,,,,3,,,,74,49
31991,note_on,23,0,5,,,,,,,,2,,,,72,0
31992,note_on,1,0,5,,,,,,,,2,,,,84,49
32013,note_on,45,0,6,,,,,,,,2,,,,55,0
32013,note_on,45,0,8,,,,,,,,3,,,,74,0
32013,note_on,45,0,9,,,,,,,,3,,,,62,0
32015,note_on,23,0,5,,,,,,,,2,,,,84,0
32016,note_on,3,0,9,,,,,,,,3,,,,60,49
32016,note_on,3,0,6,,,,,,,,2,,,,60,85
32016,note_on,3,0,8,,,,,,,,3,,,,72,49
32016,note_on,1,0,5,,,,,,,,2,,,,72,49
32039,note_on,23,0,5,,,,,,,,2,,,,72,0
32040,note_on,1,0,5,,,,,,,,2,,,,84,49
32057,note_on,0,0,1,,,,,,,,0,,,,76,0
32057,note_on,89,0,1,,,,,,,,0,,,,70,0
32057,note_on,89,0,10,,,,,,,,3,,,,52,0
32057,note_on,89,0,11,,,,,,,,3,,,,43,0
32061,note_on,45,0,9,,,,,,,,3,,,,60,0
32061,note_on,45,0,6,,,,,,,,2,,,,60,0
32061,note_on,45,0,8,,,,,,,,3,,,,72,0
32063,note_on,23,0,5,,,,,,,,2,,,,84,0
32064,note_on,3,0,9,,,,,,,,3,,,,60,49
32064,note_on,7,0,11,,,,,,,,3,,,,45,49
32064,note_on,1,0,5,,,,,,,,2,,,,72,49
32064,note_on,7,0,1,,,,,,,,0,,,,77,49
32064,note_on,7,0,10,,,,,,,,3,,,,53,49
32064,note_on,3,0,8,,,,,,,,3,,,,72,49
32064,note_on,3,0,6,,,,,,,,2,,,,57,85
32064,note_on,0,0,1,,,,,,,,0,,,,69,49
32087,note_on,23,0,5,,,,,,,,2,,,,72,0
32088,note_on,1,0,5,,,,,,,,2,,,,84,49
32103,note_on,0,0,1,,,,,,,,0,,,,77,0
32103,note_on,39,0,10,,,,,,,,3,,,,53,0
32103,note_on,39,0,1,,,,,,,,0,,,,69,0
32109,note_on,45,0,8,,,,,,,,3,,,,72,0
32109,note_on,45,0,6,,,,,,,,2,,,,57,0
32109,note_on,45,0,9,,,,,,,,3,,,,60,0
32111,note_on,23,0,5,,,,,,,,2,,,,84,0
32112,note_on,1,0,5,,,,,,,,2,,,,72,49
32112,note_on,3,0,9,,,,,,,,3,,,,62,49
32112,note_on,3,0,8,,,,,,,,3,,,,74,49
32112,note_on,3,0,6,,,,,,,,2,,,,60,85
32135,note_on,23,0,5,,,,,,,,2,,,,72,0
32136,note_on,1,0,5,,,,,,,,2,,,,84,49
32137,note_on,265,0,3,,,,,,,,1,,,,72,0
32153,note_on,89,0,11,,,,,,,,3,,,,45,0
32157,note_on,45,0,6,,,,,,,,2,,,,60,0
32157,note_on,45,0,8,,,,,,,,3,,,,74,0
32157,note_on,45,0,9,,,,,,,,3,,,,62,0
32159,note_on,23,0,5,,,,,,,,2,,,,84,0
32160,note_on,3,0,9,,,,,,,,3,,,,64,49
32160,note_on,3,0,8,,,,,,,,3,,,,76,49
32160,note_on,1,0,5,,,,,,,,2,,,,72,49
32160,note_on,7,0,11,,,,,,,,3,,,,41,49
32160,note_on,3,0,6,,,,,,,,2,,,,53,85
32183,note_on,23,0,5,,,,,,,,2,,,,72,0
32184,note_on,1,0,5,,,,,,,,2,,,,84,49
32205,note_on,45,0,8,,,,,,,,3,,,,76,0
32205,note_on,45,0,9,,,,,,,,3,,,,64,0
32205,note_on,45,0,6,,,,,,,,2,,,,53,0
32207,note_on,23,0,5,,,,,,,,2,,,,84,0
32208,note_on,1,0,5,,,,,,,,2,,,,72,49
32208,note_on,3,0,8,,,,,,,,3,,,,77,49
32208,note_on,3,0,9,,,,,,,,3,,,,65,49
32208,note_on,3,0,6,,,,,,,,2,,,,60,85
32231,note_on,23,0,5,,,,,,,,2,,,,72,0
32232,note_on,1,0,5,,,,,,,,2,,,,84,49
32249,note_on,89,0,11,,,,,,,,3,,,,41,0
32253,note_on,45,0,9,,,,,,,,3,,,,65,0
32253,note_on,45,0,6,,,,,,,,2,,,,60,0
32253,note_on,45,0,8,,,,,,,,3,,,,77,0
32255,note_on,23,0,5,,,,,,,,2,,,,84,0
32256,note_on,3,0,6,,,,,,,,2,,,,58,85
32256,note_on,119,0,3,,,,,,,,1,,,,72,64
32256,note_on,1,0,5,,,,,,,,2,,,,72,85
32256,note_on,3,0,8,,,,,,,,3,,,,77,64
32256,note_on,153,0,10,,,,,,,,3,,,,55,64
32256,note_on,7,0,11,,,,,,,,3,,,,46,64
32256,note_on,153,0,1,,,,,,,,0,,,,84,64
32256,note_on,0,0,1,,,,,,,,0,,,,72,64
32256,note_on,3,0,9,,,,,,,,3,,,,65,64
32279,note_on,23,0,5,,,,,,,,2,,,,72,0
32280,note_on,1,0,5,,,,,,,,2,,,,84,76
32301,note_on,45,0,8,,,,,,,,3,,,,77,0
32301,note_on,45,0,6,,,,,,,,2,,,,58,0
32301,note_on,45,0,9,,,,,,,,3,,,,65,0
32303,note_on,23,0,5,,,,,,,,2,,,,84,0
32304,note_on,3,0,6,,,,,,,,2,,,,60,85
32304,note_on,1,0,5,,,,,,,,2,,,,72,67
32304,note_on,3,0,8,,,,,,,,3,,,,76,49
32304,note_on,3,0,9,,,,,,,,3,,,,64,49
32327,note_on,23,0,5,,,,,,,,2,,,,72,0
32328,note_on,1,0,5,,,,,,,,2,,,,84,58
32345,note_on,89,0,11,,,,,,,,3,,,,46,0
32345,note_on,89,0,10,,,,,,,,3,,,,55,0
32345,note_on,89,0,1,,,,,,,,0,,,,72,0
32345,note_on,0,0,1,,,,,,,,0,,,,84,0
32349,note_on,45,0,6,,,,,,,,2,,,,60,0
32349,note_on,45,0,8,,,,,,,,3,,,,76,0
32349,note_on,45,0,9,,,,,,,,3,,,,64,0
32351,note_on,23,0,5,,,,,,,,2,,,,84,0
32352,note_on,7,0,1,,,,,,,,0,,,,76,49
32352,note_on,7,0,10,,,,,,,,3,,,,52,49
32352,note_on,3,0,9,,,,,,,,3,,,,62,49
32352,note_on,7,0,11,,,,,,,,3,,,,43,49
32352,note_on,3,0,8,,,,,,,,3,,,,74,49
32352,note_on,0,0,1,,,,,,,,0,,,,70,49
32352,note_on,1,0,5,,,,,,,,2,,,,72,49
32352,note_on,3,0,6,,,,,,,,2,,,,55,85
32375,note_on,23,0,5,,,,,,,,2,,,,72,0
32376,note_on,1,0,5,,,,,,,,2,,,,84,49
32397,note_on,45,0,8,,,,,,,,3,,,,74,0
32397,note_on,45,0,6,,,,,,,,2,,,,55,0
32397,note_on,45,0,9,,,,,,,,3,,,,62,0
32399,note_on,23,0,5,,,,,,,,2,,,,84,0
32400,note_on,3,0,9,,,,,,,,3,,,,60,49
32400,note_on,3,0,6,,,,,,,,2,,,,60,85
32400,note_on,3,0,8,,,,,,,,3,,,,72,49
32400,note_on,1,0,5,,,,,,,,2,,,,72,49
32423,note_on,23,0,5,,,,,,,,2,,,,72,0
32424,note_on,1,0,5,,,,,,,,2,,,,84,49
32441,note_on,0,0,1,,,,,,,,0,,,,76,0
32441,note_on,89,0,10,,,,,,,,3,,,,52,0
32441,note_on,89,0,11,,,,,,,,3,,,,43,0
32441,note_on,89,0,1,,,,,,,,0,,,,70,0
32445,note_on,45,0,6,,,,,,,,2,,,,60,0
32445,note_on,45,0,8,,,,,,,,3,,,,72,0
32445,note_on,45,0,9,,,,,,,,3,,,,60,0
32447,note_on,23,0,5,,,,,,,,2,,,,84,0
32448,note_on,3,0,6,,,,,,,,2,,,,57,85
32448,note_on,7,0,1,,,,,,,,0,,,,77,49
32448,note_on,0,0,1,,,,,,,,0,,,,69,49
32448,note_on,1,0,5,,,,,,,,2,,,,72,49
32448,note_on,7,0,11,,,,,,,,3,,,,45,49
32448,note_on,7,0,10,,,,,,,,3,,,,60,49
32448,note_on,3,0,9,,,,,,,,3,,,,65,49
32448,note_on,3,0,8,,,,,,,,3,,,,77,49
32471,note_on,23,0,5,,,,,,,,2,,,,72,0
32472,note_on,1,0,5,,,,,,,,2,,,,84,49
32487,note_on,39,0,1,,,,,,,,0,,,,69,0
32487,note_on,39,0,10,,,,,,,,3,,,,60,0
32487,note_on,0,0,1,,,,,,,,0,,,,77,0
32493,note_on,45,0,6,,,,,,,,2,,,,57,0
32493,note_on,45,0,8,,,,,,,,3,,,,77,0
32493,note_on,45,0,9,,,,,,,,3,,,,65,0
32495,note_on,23,0,5,,,,,,,,2,,,,84,0
32496,note_on,3,0,8,,,,,,,,3,,,,79,49
32496,note_on,3,0,9,,,,,,,,3,,,,67,49
32496,note_on,1,0,5,,,,,,,,2,,,,72,49
32496,note_on,3,0,6,,,,,,,,2,,,,60,85
32519,note_on,23,0,5,,,,,,,,2,,,,72,0
32520,note_on,1,0,5,,,,,,,,2,,,,84,49
32521,note_on,265,0,3,,,,,,,,1,,,,72,0
32537,note_on,89,0,11,,,,,,,,3,,,,45,0
32541,note_on,45,0,8,,,,,,,,3,,,,79,0
32541,note_on,45,0,9,,,,,,,,3,,,,67,0
32541,note_on,45,0,6,,,,,,,,2,,,,60,0
32543,note_on,23,0,5,,,,,,,,2,,,,84,0
32544,note_on,57,0,1,,,,,,,,0,,,,81,49
32544,note_on,3,0,8,,,,,,,,3,,,,81,49
32544,note_on,1,0,5,,,,,,,,2,,,,72,49
32544,note_on,0,0,1,,,,,,,,0,,,,72,49
32544,note_on,57,0,10,,,,,,,,3,,,,65,49
32544,note_on,7,0,11,,,,,,,,3,,,,41,49
32544,note_on,3,0,6,,,,,,,,2,,,,53,85
32544,note_on,3,0,9,,,,,,,,3,,,,69,49
32567,note_on,23,0,5,,,,,,,,2,,,,72,0
32568,note_on,1,0,5,,,,,,,,2,,,,84,49
32583,note_on,39,0,10,,,,,,,,3,,,,65,0
32583,note_on,39,0,1,,,,,,,,0,,,,72,0
32583,note_on,0,0,1,,,,,,,,0,,,,81,0
32589,note_on,45,0,6,,,,,,,,2,,,,53,0
32589,note_on,45,0,8,,,,,,,,3,,,,81,0
32589,note_on,45,0,9,,,,,,,,3,,,,69,0
32591,note_on,23,0,5,,,,,,,,2,,,,84,0
32592,note_on,3,0,8,,,,,,,,3,,,,77,49
32592,note_on,3,0,6,,,,,,,,2,,,,60,85
32592,note_on,3,0,9,,,,,,,,3,,,,65,49
32592,note_on,1,0,5,,,,,,,,2,,,,72,49
32615,note_on,23,0,5,,,,,,,,2,,,,72,0
32616,note_on,1,0,5,,,,,,,,2,,,,84,49
32633,note_on,89,0,11,,,,,,,,3,,,,41,0
32637,note_on,45,0,6,,,,,,,,2,,,,60,0
32637,note_on,45,0,9,,,,,,,,3,,,,65,0
32637,note_on,45,0,8,,,,,,,,3,,,,77,0
32639,note_on,23,0,5,,,,,,,,2,,,,84,0
32640,note_on,0,0,1,,,,,,,,0,,,,76,49
32640,note_on,57,0,1,,,,,,,,0,,,,82,49
32640,note_on,57,0,10,,,,,,,,3,,,,64,49
32640,note_on,3,0,6,,,,,,,,2,,,,55,85
32640,note_on,3,0,9,,,,,,,,3,,,,70,49
32640,note_on,1,0,5,,,,,,,,2,,,,76,85
32640,note_on,7,0,11,,,,,,,,3,,,,43,49
32640,note_on,3,0,8,,,,,,,,3,,,,82,49
32729,note_on,0,0,1,,,,,,,,0,,,,82,0
32729,note_on,89,0,8,,,,,,,,3,,,,82,0
32729,note_on,89,0,9,,,,,,,,3,,,,70,0
32729,note_on,89,0,10,,,,,,,,3,,,,64,0
32729,note_on,89,0,11,,,,,,,,3,,,,43,0
32729,note_on,89,0,1,,,,,,,,0,,,,76,0
32729,note_on,89,0,6,,,,,,,,2,,,,55,0
32729,note_on,89,0,5,,,,,,,,2,,,,76,0
32832,note_on,103,0,6,,,,,,,,2,,,,76,85
32832,note_on,103,0,5,,,,,,,,2,,,,79,85
32845,note_on,13,0,5,,,,,,,,2,,,,79,0
32864,note_on,19,0,5,,,,,,,,2,,,,82,85
32877,note_on,13,0,5,,,,,,,,2,,,,82,0
32896,note_on,19,0,5,,,,,,,,2,,,,79,85
32909,note_on,13,0,5,,,,,,,,2,,,,79,0
32921,note_on,89,0,6,,,,,,,,2,,,,76,0
32928,note_on,19,0,5,,,,,,,,2,,,,81,85
32928,note_on,7,0,6,,,,,,,,2,,,,78,85
32941,note_on,13,0,5,,,,,,,,2,,,,81,0
32960,note_on,19,0,5,,,,,,,,2,,,,84,85
32973,note_on,13,0,5,,,,,,,,2,,,,84,0
32992,note_on,19,0,5,,,,,,,,2,,,,81,85
33005,note_on,13,0,5,,,,,,,,2,,,,81,0
33017,note_on,89,0,6,,,,,,,,2,,,,78,0
33024,note_on,19,0,5,,,,,,,,2,,,,82,85
33024,note_on,7,0,6,,,,,,,,2,,,,79,85
33054,note_on,30,0,5,,,,,,,,2,,,,82,0
33056,note_on,2,0,5,,,,,,,,2,,,,86,85
33086,note_on,30,0,5,,,,,,,,2,,,,86,0
33088,note_on,2,0,5,,,,,,,,2,,,,84,85
33113,note_on,89,0,6,,,,,,,,2,,,,79,0
33118,note_on,30,0,5,,,,,,,,2,,,,84,0
33120,note_on,2,0,5,,,,,,,,2,,,,82,85
33150,note_on,30,0,5,,,,,,,,2,,,,82,0
33152,note_on,2,0,5,,,,,,,,2,,,,84,85
33182,note_on,30,0,5,,,,,,,,2,,,,84,0
33184,note_on,2,0,5,,,,,,,,2,,,,86,85
33214,note_on,30,0,5,,,,,,,,2,,,,86,0
33216,note_on,103,0,6,,,,,,,,2,,,,74,85
33216,note_on,2,0,5,,,,,,,,2,,,,77,85
33229,note_on,13,0,5,,,,,,,,2,,,,77,0
33248,note_on,19,0,5,,,,,,,,2,,,,81,85
33261,note_on,13,0,5,,,,,,,,2,,,,81,0
33280,note_on,19,0,5,,,,,,,,2,,,,77,85
33293,note_on,13,0,5,,,,,,,,2,,,,77,0
33305,note_on,89,0,6,,,,,,,,2,,,,74,0
33312,note_on,7,0,6,,,,,,,,2,,,,76,85
33312,note_on,19,0,5,,,,,,,,2,,,,79,85
33325,note_on,13,0,5,,,,,,,,2,,,,79,0
33344,note_on,19,0,5,,,,,,,,2,,,,82,85
33357,note_on,13,0,5,,,,,,,,2,,,,82,0
33376,note_on,19,0,5,,,,,,,,2,,,,79,85
33389,note_on,13,0,5,,,,,,,,2,,,,79,0
33401,note_on,89,0,6,,,,,,,,2,,,,76,0
33408,note_on,19,0,5,,,,,,,,2,,,,81,85
33408,note_on,7,0,6,,,,,,,,2,,,,77,85
33438,note_on,30,0,5,,,,,,,,2,,,,81,0
33440,note_on,2,0,5,,,,,,,,2,,,,84,85
33470,note_on,30,0,5,,,,,,,,2,,,,84,0
33472,note_on,2,0,5,,,,,,,,2,,,,82,85
33497,note_on,89,0,6,,,,,,,,2,,,,77,0
33502,note_on,30,0,5,,,,,,,,2,,,,82,0
33504,note_on,2,0,5,,,,,,,,2,,,,81,85
33534,note_on,30,0,5,,,,,,,,2,,,,81,0
33536,note_on,2,0,5,,,,,,,,2,,,,82,85
33566,note_on,30,0,5,,,,,,,,2,,,,82,0
33568,note_on,2,0,5,,,,,,,,2,,,,84,85
33598,note_on,30,0,5,,,,,,,,2,,,,84,0
33600,note_on,103,0,6,,,,,,,,2,,,,67,85
33600,note_on,2,0,5,,,,,,,,2,,,,76,85
33613,note_on,13,0,5,,,,,,,,2,,,,76,0
33632,note_on,19,0,5,,,,,,,,2,,,,79,85
33645,note_on,13,0,5,,,,,,,,2,,,,79,0
33664,note_on,19,0,5,,,,,,,,2,,,,76,85
33677,note_on,13,0,5,,,,,,,,2,,,,76,0
33689,note_on,89,0,6,,,,,,,,2,,,,67,0
33696,note_on,19,0,5,,,,,,,,2,,,,77,85
33696,note_on,7,0,6,,,,,,,,2,,,,69,85
33709,note_on,13,0,5,,,,,,,,2,,,,77,0
33728,note_on,19,0,5,,,,,,,,2,,,,81,85
33741,note_on,13,0,5,,,,,,,,2,,,,81,0
33760,note_on,19,0,5,,,,,,,,2,,,,78,85
33773,note_on,13,0,5,,,,,,,,2,,,,78,0
33785,note_on,89,0,6,,,,,,,,2,,,,69,0
33792,note_on,7,0,6,,,,,,,,2,,,,70,85
33792,note_on,19,0,5,,,,,,,,2,,,,79,85
33822,note_on,30,0,5,,,,,,,,2,,,,79,0
33824,note_on,2,0,5,,,,,,,,2,,,,82,85
33854,note_on,30,0,5,,,,,,,,2,,,,82,0
33856,note_on,2,0,5,,,,,,,,2,,,,81,85
33881,note_on,89,0,6,,,,,,,,2,,,,70,0
33886,note_on,30,0,5,,,,,,,,2,,,,81,0
33888,note_on,2,0,5,,,,,,,,2,,,,79,85
33918,note_on,30,0,5,,,,,,,,2,,,,79,0
33920,note_on,2,0,5,,,,,,,,2,,,,81,85
33950,note_on,30,0,5,,,,,,,,2,,,,81,0
33952,note_on,2,0,5,,,,,,,,2,,,,82,85
33982,note_on,30,0,5,,,,,,,,2,,,,82,0
33984,note_on,103,0,6,,,,,,,,2,,,,65,85
33984,note_on,0,0,6,,,,,,,,2,,,,58,85
33984,note_on,2,0,5,,,,,,,,2,,,,74,85
33997,note_on,13,0,5,,,,,,,,2,,,,74,0
34016,note_on,19,0,5,,,,,,,,2,,,,77,85
34029,note_on,13,0,5,,,,,,,,2,,,,77,0
34048,note_on,19,0,5,,,,,,,,2,,,,74,85
34061,note_on,13,0,5,,,,,,,,2,,,,74,0
34073,note_on,0,0,6,,,,,,,,2,,,,65,0
34073,note_on,89,0,6,,,,,,,,2,,,,58,0
34080,note_on,0,0,6,,,,,,,,2,,,,60,85
34080,note_on,7,0,6,,,,,,,,2,,,,70,85
34080,note_on,19,0,5,,,,,,,,2,,,,76,85
34093,note_on,13,0,5,,,,,,,,2,,,,76,0
34112,note_on,19,0,5,,,,,,,,2,,,,79,85
34125,note_on,13,0,5,,,,,,,,2,,,,79,0
34144,note_on,19,0,5,,,,,,,,2,,,,76,85
34157,note_on,13,0,5,,,,,,,,2,,,,76,0
34169,note_on,0,0,6,,,,,,,,2,,,,70,0
34169,note_on,89,0,6,,,,,,,,2,,,,60,0
34176,note_on,7,0,6,,,,,,,,2,,,,65,85
34176,note_on,19,0,5,,,,,,,,2,,,,77,85
34196,note_on,20,0,6,,,,,,,,2,,,,65,0
34224,note_on,28,0,6,,,,,,,,2,,,,69,85
34244,note_on,20,0,6,,,,,,,,2,,,,69,0
34265,note_on,89,0,5,,,,,,,,2,,,,77,0
34272,note_on,28,0,6,,,,,,,,2,,,,65,85
34292,note_on,20,0,6,,,,,,,,2,,,,65,0
34320,note_on,28,0,6,,,,,,,,2,,,,69,85
34340,note_on,20,0,6,,,,,,,,2,,,,69,0
34368,note_on,28,0,6,,,,,,,,2,,,,65,85
34368,note_on,103,0,5,,,,,,,,2,,,,77,85
34388,note_on,20,0,6,,,,,,,,2,,,,65,0
34413,note_on,45,0,5,,,,,,,,2,,,,77,0
34416,note_on,3,0,5,,,,,,,,2,,,,79,85
34416,note_on,28,0,6,,,,,,,,2,,,,69,85
34436,note_on,20,0,6,,,,,,,,2,,,,69,0
34461,note_on,45,0,5,,,,,,,,2,,,,79,0
34464,note_on,3,0,5,,,,,,,,2,,,,77,85
34464,note_on,28,0,6,,,,,,,,2,,,,65,85
34484,note_on,20,0,6,,,,,,,,2,,,,65,0
34509,note_on,45,0,5,,,,,,,,2,,,,77,0
34512,note_on,28,0,6,,,,,,,,2,,,,69,85
34512,note_on,3,0,5,,,,,,,,2,,,,79,85
34532,note_on,20,0,6,,,,,,,,2,,,,69,0
34557,note_on,45,0,5,,,,,,,,2,,,,79,0
34560,note_on,3,0,5,,,,,,,,2,,,,76,85
34560,note_on,28,0,6,,,,,,,,2,,,,65,85
34580,note_on,20,0,6,,,,,,,,2,,,,65,0
34608,note_on,28,0,6,,,,,,,,2,,,,67,85
34628,note_on,20,0,6,,,,,,,,2,,,,67,0
34649,note_on,89,0,5,,,,,,,,2,,,,76,0
34656,note_on,28,0,6,,,,,,,,2,,,,65,85
34676,note_on,20,0,6,,,,,,,,2,,,,65,0
34704,note_on,28,0,6,,,,,,,,2,,,,67,85
34724,note_on,20,0,6,,,,,,,,2,,,,67,0
34752,note_on,28,0,6,,,,,,,,2,,,,65,85
34752,note_on,103,0,5,,,,,,,,2,,,,76,85
34772,note_on,20,0,6,,,,,,,,2,,,,65,0
34797,note_on,45,0,5,,,,,,,,2,,,,76,0
34800,note_on,3,0,5,,,,,,,,2,,,,77,85
34800,note_on,28,0,6,,,,,,,,2,,,,70,85
34820,note_on,20,0,6,,,,,,,,2,,,,70,0
34845,note_on,45,0,5,,,,,,,,2,,,,77,0
34848,note_on,28,0,6,,,,,,,,2,,,,65,85
34848,note_on,3,0,5,,,,,,,,2,,,,76,85
34868,note_on,20,0,6,,,,,,,,2,,,,65,0
34893,note_on,45,0,5,,,,,,,,2,,,,76,0
34896,note_on,3,0,5,,,,,,,,2,,,,77,85
34896,note_on,28,0,6,,,,,,,,2,,,,70,85
34916,note_on,20,0,6,,,,,,,,2,,,,70,0
34941,note_on,45,0,5,,,,,,,,2,,,,77,0
34944,note_on,3,0,5,,,,,,,,2,,,,75,85
34944,note_on,28,0,6,,,,,,,,2,,,,65,85
34964,note_on,20,0,6,,,,,,,,2,,,,65,0
34992,note_on,28,0,6,,,,,,,,2,,,,69,85
35012,note_on,20,0,6,,,,,,,,2,,,,69,0
35033,note_on,89,0,5,,,,,,,,2,,,,75,0
35040,note_on,28,0,6,,,,,,,,2,,,,65,85
35060,note_on,20,0,6,,,,,,,,2,,,,65,0
35088,note_on,28,0,6,,,,,,,,2,,,,69,85
35108,note_on,20,0,6,,,,,,,,2,,,,69,0
35136,note_on,103,0,5,,,,,,,,2,,,,75,85
35136,note_on,28,0,6,,,,,,,,2,,,,65,85
35156,note_on,20,0,6,,,,,,,,2,,,,65,0
35181,note_on,45,0,5,,,,,,,,2,,,,75,0
35184,note_on,28,0,6,,,,,,,,2,,,,72,85
35184,note_on,3,0,5,,,,,,,,2,,,,77,85
35204,note_on,20,0,6,,,,,,,,2,,,,72,0
35229,note_on,45,0,5,,,,,,,,2,,,,77,0
35232,note_on,28,0,6,,,,,,,,2,,,,65,85
35232,note_on,3,0,5,,,,,,,,2,,,,75,85
35252,note_on,20,0,6,,,,,,,,2,,,,65,0
35277,note_on,45,0,5,,,,,,,,2,,,,75,0
35280,note_on,3,0,5,,,,,,,,2,,,,77,85
35280,note_on,28,0,6,,,,,,,,2,,,,72,85
35300,note_on,20,0,6,,,,,,,,2,,,,72,0
35325,note_on,45,0,5,,,,,,,,2,,,,77,0
35328,note_on,28,0,6,,,,,,,,2,,,,70,85
35328,note_on,3,0,5,,,,,,,,2,,,,74,85
35358,note_on,30,0,5,,,,,,,,2,,,,74,0
35360,note_on,2,0,5,,,,,,,,2,,,,77,85
35373,note_on,45,0,6,,,,,,,,2,,,,70,0
35376,note_on,3,0,6,,,,,,,,2,,,,65,85
35390,note_on,30,0,5,,,,,,,,2,,,,77,0
35392,note_on,2,0,5,,,,,,,,2,,,,82,85
35421,note_on,45,0,6,,,,,,,,2,,,,65,0
35422,note_on,30,0,5,,,,,,,,2,,,,82,0
35424,note_on,2,0,5,,,,,,,,2,,,,86,85
35424,note_on,3,0,6,,,,,,,,2,,,,70,85
35454,note_on,30,0,5,,,,,,,,2,,,,86,0
35456,note_on,2,0,5,,,,,,,,2,,,,82,85
35469,note_on,45,0,6,,,,,,,,2,,,,70,0
35472,note_on,3,0,6,,,,,,,,2,,,,65,85
35486,note_on,30,0,5,,,,,,,,2,,,,82,0
35488,note_on,2,0,5,,,,,,,,2,,,,77,85
35517,note_on,45,0,6,,,,,,,,2,,,,65,0
35518,note_on,30,0,5,,,,,,,,2,,,,77,0
35520,note_on,3,0,6,,,,,,,,2,,,,70,85
35520,note_on,2,0,5,,,,,,,,2,,,,74,85
35550,note_on,30,0,5,,,,,,,,2,,,,74,0
35552,note_on,2,0,5,,,,,,,,2,,,,77,85
35565,note_on,45,0,6,,,,,,,,2,,,,70,0
35568,note_on,3,0,6,,,,,,,,2,,,,65,85
35582,note_on,30,0,5,,,,,,,,2,,,,77,0
35584,note_on,2,0,5,,,,,,,,2,,,,74,85
35613,note_on,45,0,6,,,,,,,,2,,,,65,0
35614,note_on,30,0,5,,,,,,,,2,,,,74,0
35616,note_on,3,0,6,,,,,,,,2,,,,67,85
35616,note_on,2,0,5,,,,,,,,2,,,,76,85
35646,note_on,30,0,5,,,,,,,,2,,,,76,0
35648,note_on,2,0,5,,,,,,,,2,,,,79,85
35661,note_on,45,0,6,,,,,,,,2,,,,67,0
35664,note_on,3,0,6,,,,,,,,2,,,,65,85
35678,note_on,30,0,5,,,,,,,,2,,,,79,0
35680,note_on,2,0,5,,,,,,,,2,,,,76,85
35709,note_on,45,0,6,,,,,,,,2,,,,65,0
35710,note_on,30,0,5,,,,,,,,2,,,,76,0
35712,note_on,2983,0,11,,,,,,,,3,,,,41,49
35712,note_on,2983,0,9,,,,,,,,3,,,,65,49
35712,note_on,2983,0,8,,,,,,,,3,,,,77,49
35712,note_on,2983,0,10,,,,,,,,3,,,,57,49
35712,note_on,3,0,6,,,,,,,,2,,,,53,85
35712,note_on,2,0,5,,,,,,,,2,,,,77,85
35742,note_on,30,0,6,,,,,,,,2,,,,53,0
35744,note_on,2,0,6,,,,,,,,2,,,,57,85
35774,note_on,30,0,6,,,,,,,,2,,,,57,0
35776,note_on,2,0,6,,,,,,,,2,,,,60,85
35801,note_on,89,0,5,,,,,,,,2,,,,77,0
35806,note_on,30,0,6,,,,,,,,2,,,,60,0
35808,note_on,2,0,6,,,,,,,,2,,,,53,85
35838,note_on,30,0,6,,,,,,,,2,,,,53,0
35840,note_on,2,0,6,,,,,,,,2,,,,57,85
35870,note_on,30,0,6,,,,,,,,2,,,,57,0
35872,note_on,2,0,6,,,,,,,,2,,,,60,85
35902,note_on,30,0,6,,,,,,,,2,,,,60,0
35904,note_on,103,0,5,,,,,,,,2,,,,77,85
35904,note_on,2,0,6,,,,,,,,2,,,,53,85
35934,note_on,30,0,6,,,,,,,,2,,,,53,0
35936,note_on,2,0,6,,,,,,,,2,,,,57,85
35949,note_on,45,0,5,,,,,,,,2,,,,77,0
35952,note_on,3,0,5,,,,,,,,2,,,,79,85
35966,note_on,30,0,6,,,,,,,,2,,,,57,0
35968,note_on,2,0,6,,,,,,,,2,,,,60,85
35997,note_on,45,0,5,,,,,,,,2,,,,79,0
35998,note_on,30,0,6,,,,,,,,2,,,,60,0
36000,note_on,3,0,5,,,,,,,,2,,,,77,85
36000,note_on,2,0,6,,,,,,,,2,,,,53,85
36030,note_on,30,0,6,,,,,,,,2,,,,53,0
36032,note_on,2,0,6,,,,,,,,2,,,,57,85
36045,note_on,45,0,5,,,,,,,,2,,,,77,0
36048,note_on,3,0,5,,,,,,,,2,,,,79,85
36062,note_on,30,0,6,,,,,,,,2,,,,57,0
36064,note_on,2,0,6,,,,,,,,2,,,,60,85
36066,note_on,354,0,9,,,,,,,,3,,,,65,0
36066,note_on,354,0,8,,,,,,,,3,,,,77,0
36066,note_on,354,0,10,,,,,,,,3,,,,57,0
36093,note_on,45,0,5,,,,,,,,2,,,,79,0
36094,note_on,30,0,6,,,,,,,,2,,,,60,0
36096,note_on,3,0,5,,,,,,,,2,,,,76,85
36096,note_on,30,0,10,,,,,,,,3,,,,58,49
36096,note_on,2,0,6,,,,,,,,2,,,,53,85
36096,note_on,30,0,8,,,,,,,,3,,,,76,49
36096,note_on,30,0,9,,,,,,,,3,,,,67,49
36126,note_on,30,0,6,,,,,,,,2,,,,53,0
36128,note_on,2,0,6,,,,,,,,2,,,,55,85
36158,note_on,30,0,6,,,,,,,,2,,,,55,0
36160,note_on,2,0,6,,,,,,,,2,,,,58,85
36185,note_on,89,0,5,,,,,,,,2,,,,76,0
36190,note_on,30,0,6,,,,,,,,2,,,,58,0
36192,note_on,2,0,6,,,,,,,,2,,,,53,85
36222,note_on,30,0,6,,,,,,,,2,,,,53,0
36224,note_on,2,0,6,,,,,,,,2,,,,55,85
36254,note_on,30,0,6,,,,,,,,2,,,,55,0
36256,note_on,2,0,6,,,,,,,,2,,,,58,85
36286,note_on,30,0,6,,,,,,,,2,,,,58,0
36288,note_on,103,0,5,,,,,,,,2,,,,76,85
36288,note_on,2,0,6,,,,,,,,2,,,,53,85
36318,note_on,30,0,6,,,,,,,,2,,,,53,0
36320,note_on,2,0,6,,,,,,,,2,,,,55,85
36333,note_on,45,0,5,,,,,,,,2,,,,76,0
36336,note_on,3,0,5,,,,,,,,2,,,,77,85
36350,note_on,30,0,6,,,,,,,,2,,,,55,0
36352,note_on,2,0,6,,,,,,,,2,,,,58,85
36381,note_on,45,0,5,,,,,,,,2,,,,77,0
36382,note_on,30,0,6,,,,,,,,2,,,,58,0
36384,note_on,2,0,6,,,,,,,,2,,,,53,85
36384,note_on,3,0,5,,,,,,,,2,,,,76,85
36414,note_on,30,0,6,,,,,,,,2,,,,53,0
36416,note_on,2,0,6,,,,,,,,2,,,,55,85
36429,note_on,45,0,5,,,,,,,,2,,,,76,0
36432,note_on,3,0,5,,,,,,,,2,,,,77,85
36446,note_on,30,0,6,,,,,,,,2,,,,55,0
36448,note_on,2,0,6,,,,,,,,2,,,,58,85
36450,note_on,354,0,10,,,,,,,,3,,,,58,0
36450,note_on,354,0,9,,,,,,,,3,,,,67,0
36450,note_on,354,0,8,,,,,,,,3,,,,76,0
36477,note_on,45,0,5,,,,,,,,2,,,,77,0
36478,note_on,30,0,6,,,,,,,,2,,,,58,0
36480,note_on,30,0,10,,,,,,,,3,,,,60,49
36480,note_on,2,0,6,,,,,,,,2,,,,53,85
36480,note_on,3,0,5,,,,,,,,2,,,,75,85
36480,note_on,30,0,9,,,,,,,,3,,,,69,49
36480,note_on,30,0,8,,,,,,,,3,,,,75,49
36510,note_on,30,0,6,,,,,,,,2,,,,53,0
36512,note_on,2,0,6,,,,,,,,2,,,,57,85
36542,note_on,30,0,6,,,,,,,,2,,,,57,0
36544,note_on,2,0,6,,,,,,,,2,,,,60,85
36569,note_on,89,0,5,,,,,,,,2,,,,75,0
36574,note_on,30,0,6,,,,,,,,2,,,,60,0
36576,note_on,2,0,6,,,,,,,,2,,,,53,85
36606,note_on,30,0,6,,,,,,,,2,,,,53,0
36608,note_on,2,0,6,,,,,,,,2,,,,57,85
36638,note_on,30,0,6,,,,,,,,2,,,,57,0
36640,note_on,2,0,6,,,,,,,,2,,,,60,85
36670,note_on,30,0,6,,,,,,,,2,,,,60,0
36672,note_on,2,0,6,,,,,,,,2,,,,53,85
36672,note_on,103,0,5,,,,,,,,2,,,,75,85
36702,note_on,30,0,6,,,,,,,,2,,,,53,0
36704,note_on,2,0,6,,,,,,,,2,,,,57,85
36717,note_on,45,0,5,,,,,,,,2,,,,75,0
36720,note_on,3,0,5,,,,,,,,2,,,,77,85
36734,note_on,30,0,6,,,,,,,,2,,,,57,0
36736,note_on,2,0,6,,,,,,,,2,,,,60,85
36765,note_on,45,0,5,,,,,,,,2,,,,77,0
36766,note_on,30,0,6,,,,,,,,2,,,,60,0
36768,note_on,3,0,5,,,,,,,,2,,,,75,85
36768,note_on,2,0,6,,,,,,,,2,,,,53,85
36798,note_on,30,0,6,,,,,,,,2,,,,53,0
36800,note_on,2,0,6,,,,,,,,2,,,,57,85
36813,note_on,45,0,5,,,,,,,,2,,,,75,0
36816,note_on,3,0,5,,,,,,,,2,,,,77,85
36830,note_on,30,0,6,,,,,,,,2,,,,57,0
36832,note_on,2,0,6,,,,,,,,2,,,,60,85
36834,note_on,354,0,10,,,,,,,,3,,,,60,0
36834,note_on,354,0,9,,,,,,,,3,,,,69,0
36834,note_on,354,0,8,,,,,,,,3,,,,75,0
36861,note_on,45,0,5,,,,,,,,2,,,,77,0
36862,note_on,30,0,6,,,,,,,,2,,,,60,0
36864,note_on,30,0,10,,,,,,,,3,,,,65,49
36864,note_on,2,0,6,,,,,,,,2,,,,53,85
36864,note_on,30,0,9,,,,,,,,3,,,,70,49
36864,note_on,30,0,8,,,,,,,,3,,,,74,49
36864,note_on,3,0,5,,,,,,,,2,,,,74,85
36887,note_on,23,0,5,,,,,,,,2,,,,74,0
36888,note_on,1,0,5,,,,,,,,2,,,,86,85
36894,note_on,30,0,6,,,,,,,,2,,,,53,0
36896,note_on,2,0,6,,,,,,,,2,,,,58,85
36926,note_on,30,0,6,,,,,,,,2,,,,58,0
36928,note_on,2,0,6,,,,,,,,2,,,,62,85
36955,note_on,67,0,5,,,,,,,,2,,,,86,0
36958,note_on,30,0,6,,,,,,,,2,,,,62,0
36960,note_on,5,0,5,,,,,,,,2,,,,84,85
36960,note_on,2,0,6,,,,,,,,2,,,,53,85
36983,note_on,23,0,5,,,,,,,,2,,,,84,0
36984,note_on,1,0,5,,,,,,,,2,,,,82,85
36990,note_on,30,0,6,,,,,,,,2,,,,53,0
36992,note_on,2,0,6,,,,,,,,2,,,,58,85
37022,note_on,30,0,6,,,,,,,,2,,,,58,0
37024,note_on,2,0,6,,,,,,,,2,,,,62,85
37041,note_on,177,0,9,,,,,,,,3,,,,70,0
37041,note_on,177,0,10,,,,,,,,3,,,,65,0
37041,note_on,177,0,8,,,,,,,,3,,,,74,0
37051,note_on,67,0,5,,,,,,,,2,,,,82,0
37054,note_on,30,0,6,,,,,,,,2,,,,62,0
37056,note_on,2,0,6,,,,,,,,2,,,,53,85
37056,note_on,5,0,5,,,,,,,,2,,,,84,85
37056,note_on,15,0,9,,,,,,,,3,,,,58,49
37056,note_on,15,0,10,,,,,,,,3,,,,67,49
37056,note_on,15,0,8,,,,,,,,3,,,,76,49
37079,note_on,23,0,5,,,,,,,,2,,,,84,0
37080,note_on,1,0,5,,,,,,,,2,,,,82,85
37086,note_on,30,0,6,,,,,,,,2,,,,53,0
37088,note_on,2,0,6,,,,,,,,2,,,,55,85
37118,note_on,30,0,6,,,,,,,,2,,,,55,0
37120,note_on,2,0,6,,,,,,,,2,,,,64,85
37147,note_on,67,0,5,,,,,,,,2,,,,82,0
37150,note_on,30,0,6,,,,,,,,2,,,,64,0
37152,note_on,5,0,5,,,,,,,,2,,,,81,85
37152,note_on,2,0,6,,,,,,,,2,,,,53,85
37175,note_on,23,0,5,,,,,,,,2,,,,81,0
37176,note_on,1,0,5,,,,,,,,2,,,,79,85
37182,note_on,30,0,6,,,,,,,,2,,,,53,0
37184,note_on,2,0,6,,,,,,,,2,,,,58,85
37214,note_on,30,0,6,,,,,,,,2,,,,58,0
37216,note_on,2,0,6,,,,,,,,2,,,,63,85
37233,note_on,177,0,9,,,,,,,,3,,,,58,0
37233,note_on,177,0,10,,,,,,,,3,,,,67,0
37233,note_on,177,0,8,,,,,,,,3,,,,76,0
37243,note_on,67,0,5,,,,,,,,2,,,,79,0
37246,note_on,30,0,6,,,,,,,,2,,,,63,0
37248,note_on,15,0,10,,,,,,,,3,,,,60,49
37248,note_on,15,0,8,,,,,,,,3,,,,77,49
37248,note_on,5,0,5,,,,,,,,2,,,,77,85
37248,note_on,0,0,6,,,,,,,,2,,,,57,85
37248,note_on,2,0,6,,,,,,,,2,,,,65,85
37248,note_on,0,0,6,,,,,,,,2,,,,53,85
37248,note_on,15,0,9,,,,,,,,3,,,,57,49
37278,note_on,30,0,5,,,,,,,,2,,,,77,0
37280,note_on,2,0,5,,,,,,,,2,,,,84,85
37310,note_on,30,0,5,,,,,,,,2,,,,84,0
37312,note_on,2,0,5,,,,,,,,2,,,,82,85
37337,note_on,0,0,6,,,,,,,,2,,,,65,0
37337,note_on,1625,0,11,,,,,,,,3,,,,41,0
37337,note_on,89,0,6,,,,,,,,2,,,,53,0
37337,note_on,89,0,8,,,,,,,,3,,,,77,0
37337,note_on,89,0,9,,,,,,,,3,,,,57,0
37337,note_on,89,0,10,,,,,,,,3,,,,60,0
37337,note_on,0,0,6,,,,,,,,2,,,,57,0
37342,note_on,30,0,5,,,,,,,,2,,,,82,0
37344,note_on,2,0,5,,,,,,,,2,,,,81,85
37374,note_on,30,0,5,,,,,,,,2,,,,81,0
37376,note_on,2,0,5,,,,,,,,2,,,,79,85
37406,note_on,30,0,5,,,,,,,,2,,,,79,0
37408,note_on,2,0,5,,,,,,,,2,,,,77,85
37438,note_on,30,0,5,,,,,,,,2,,,,77,0
37440,note_on,2,0,5,,,,,,,,2,,,,76,85
37470,note_on,30,0,5,,,,,,,,2,,,,76,0
37472,note_on,2,0,5,,,,,,,,2,,,,74,85
37502,note_on,30,0,5,,,,,,,,2,,,,74,0
37504,note_on,2,0,5,,,,,,,,2,,,,72,85
37534,note_on,30,0,5,,,,,,,,2,,,,72,0
37536,note_on,199,0,8,,,,,,,,3,,,,70,49
37536,note_on,0,0,6,,,,,,,,2,,,,48,85
37536,note_on,199,0,9,,,,,,,,3,,,,64,49
37536,note_on,199,0,11,,,,,,,,3,,,,48,49
37536,note_on,199,0,6,,,,,,,,2,,,,58,85
37536,note_on,199,0,10,,,,,,,,3,,,,60,49
37536,note_on,0,0,6,,,,,,,,2,,,,52,85
37536,note_on,2,0,5,,,,,,,,2,,,,70,85
37566,note_on,30,0,5,,,,,,,,2,,,,70,0
37568,note_on,2,0,5,,,,,,,,2,,,,69,85
37598,note_on,30,0,5,,,,,,,,2,,,,69,0
37600,note_on,2,0,5,,,,,,,,2,,,,67,85
37625,note_on,89,0,9,,,,,,,,3,,,,64,0
37625,note_on,89,0,10,,,,,,,,3,,,,60,0
37625,note_on,89,0,6,,,,,,,,2,,,,48,0
37625,note_on,0,0,6,,,,,,,,2,,,,52,0
37625,note_on,0,0,6,,,,,,,,2,,,,58,0
37625,note_on,89,0,8,,,,,,,,3,,,,70,0
37625,note_on,89,0,11,,,,,,,,3,,,,48,0
37630,note_on,30,0,5,,,,,,,,2,,,,67,0
37632,note_on,7,0,6,,,,,,,,2,,,,57,85
37632,note_on,7,0,8,,,,,,,,3,,,,69,49
37632,note_on,7,0,9,,,,,,,,3,,,,65,49
37632,note_on,0,0,6,,,,,,,,2,,,,53,85
37632,note_on,7,0,11,,,,,,,,3,,,,41,49
37632,note_on,2,0,5,,,,,,,,2,,,,65,85
37632,note_on,7,0,10,,,,,,,,3,,,,60,49
37662,note_on,30,0,5,,,,,,,,2,,,,65,0
37664,note_on,2,0,5,,,,,,,,2,,,,72,85
37694,note_on,30,0,5,,,,,,,,2,,,,72,0
37696,note_on,2,0,5,,,,,,,,2,,,,70,85
37721,note_on,89,0,8,,,,,,,,3,,,,69,0
37721,note_on,89,0,11,,,,,,,,3,,,,41,0
37721,note_on,89,0,10,,,,,,,,3,,,,60,0
37721,note_on,89,0,6,,,,,,,,2,,,,53,0
37721,note_on,0,0,6,,,,,,,,2,,,,57,0
37721,note_on,89,0,9,,,,,,,,3,,,,65,0
37726,note_on,30,0,5,,,,,,,,2,,,,70,0
37728,note_on,2,0,5,,,,,,,,2,,,,69,85
37758,note_on,30,0,5,,,,,,,,2,,,,69,0
37760,note_on,2,0,5,,,,,,,,2,,,,67,85
37790,note_on,30,0,5,,,,,,,,2,,,,67,0
37792,note_on,2,0,5,,,,,,,,2,,,,65,85
37822,note_on,30,0,5,,,,,,,,2,,,,65,0
37824,note_on,2,0,5,,,,,,,,2,,,,64,85
37854,note_on,30,0,5,,,,,,,,2,,,,64,0
37856,note_on,2,0,5,,,,,,,,2,,,,62,85
37886,note_on,30,0,5,,,,,,,,2,,,,62,0
37888,note_on,2,0,5,,,,,,,,2,,,,60,85
37918,note_on,30,0,5,,,,,,,,2,,,,60,0
37920,note_on,199,0,9,,,,,,,,3,,,,58,49
37920,note_on,199,0,11,,,,,,,,3,,,,36,49
37920,note_on,199,0,10,,,,,,,,3,,,,48,49
37920,note_on,2,0,5,,,,,,,,2,,,,58,85
37920,note_on,199,0,6,,,,,,,,2,,,,46,85
37920,note_on,0,0,6,,,,,,,,2,,,,40,85
37920,note_on,0,0,6,,,,,,,,2,,,,36,85
37920,note_on,199,0,8,,,,,,,,3,,,,64,49
37950,note_on,30,0,5,,,,,,,,2,,,,58,0
37952,note_on,2,0,5,,,,,,,,2,,,,57,85
37982,note_on,30,0,5,,,,,,,,2,,,,57,0
37984,note_on,2,0,5,,,,,,,,2,,,,55,85
38009,note_on,0,0,6,,,,,,,,2,,,,46,0
38009,note_on,0,0,6,,,,,,,,2,,,,40,0
38009,note_on,89,0,6,,,,,,,,2,,,,36,0
38009,note_on,89,0,8,,,,,,,,3,,,,64,0
38009,note_on,89,0,10,,,,,,,,3,,,,48,0
38009,note_on,89,0,9,,,,,,,,3,,,,58,0
38009,note_on,89,0,11,,,,,,,,3,,,,36,0
38014,note_on,30,0,5,,,,,,,,2,,,,55,0
38016,note_on,7,0,8,,,,,,,,3,,,,65,49
38016,note_on,0,0,6,,,,,,,,2,,,,41,85
38016,note_on,7,0,11,,,,,,,,3,,,,41,49
38016,note_on,7,0,10,,,,,,,,3,,,,46,49
38016,note_on,7,0,9,,,,,,,,3,,,,57,49
38016,note_on,7,0,6,,,,,,,,2,,,,45,85
38016,note_on,2,0,5,,,,,,,,2,,,,53,85
38193,note_on,177,0,8,,,,,,,,3,,,,65,0
38193,note_on,0,0,6,,,,,,,,2,,,,45,0
38193,note_on,177,0,6,,,,,,,,2,,,,41,0
38193,note_on,177,0,5,,,,,,,,2,,,,53,0
38193,note_on,177,0,11,,,,,,,,3,,,,41,0
38193,note_on,177,0,10,,,,,,,,3,,,,46,0
38193,note_on,177,0,9,,,,,,,,3,,,,57,0
38208,note_on,15,0,6,,,,,,,,2,,,,62,85
38208,note_on,15,0,5,,,,,,,,2,,,,77,85
38253,note_on,45,0,5,,,,,,,,2,,,,77,0
38253,note_on,45,0,6,,,,,,,,2,,,,62,0
38256,note_on,3,0,6,,,,,,,,2,,,,63,85
38256,note_on,3,0,5,,,,,,,,2,,,,79,85
38301,note_on,45,0,6,,,,,,,,2,,,,63,0
38301,note_on,45,0,5,,,,,,,,2,,,,79,0
38304,note_on,3,0,6,,,,,,,,2,,,,60,85
38304,note_on,3,0,5,,,,,,,,2,,,,75,85
38349,note_on,45,0,6,,,,,,,,2,,,,60,0
38349,note_on,45,0,5,,,,,,,,2,,,,75,0
38352,note_on,3,0,6,,,,,,,,2,,,,62,85
38352,note_on,3,0,5,,,,,,,,2,,,,77,85
38397,note_on,45,0,6,,,,,,,,2,,,,62,0
38397,note_on,45,0,5,,,,,,,,2,,,,77,0
38400,note_on,207,0,11,,,,,,,,3,,,,46,49
38400,note_on,207,0,10,,,,,,,,3,,,,58,49
38400,note_on,3,0,6,,,,,,,,2,,,,58,85
38400,note_on,3,0,5,,,,,,,,2,,,,74,85
38489,note_on,89,0,11,,,,,,,,3,,,,46,0
38489,note_on,89,0,5,,,,,,,,2,,,,74,0
38489,note_on,89,0,6,,,,,,,,2,,,,58,0
38496,note_on,303,0,9,,,,,,,,3,,,,62,49
38496,note_on,303,0,8,,,,,,,,3,,,,65,49
38535,note_on,39,0,9,,,,,,,,3,,,,62,0
38535,note_on,39,0,8,,,,,,,,3,,,,65,0
38592,note_on,103,0,6,,,,,,,,2,,,,65,85
38592,note_on,103,0,5,,,,,,,,2,,,,74,85
38592,note_on,57,0,9,,,,,,,,3,,,,62,49
38592,note_on,57,0,8,,,,,,,,3,,,,65,49
38637,note_on,45,0,5,,,,,,,,2,,,,74,0
38637,note_on,45,0,6,,,,,,,,2,,,,65,0
38640,note_on,3,0,5,,,,,,,,2,,,,75,85
38640,note_on,3,0,6,,,,,,,,2,,,,67,85
38681,note_on,89,0,8,,,,,,,,3,,,,65,0
38681,note_on,89,0,9,,,,,,,,3,,,,62,0
38685,note_on,45,0,5,,,,,,,,2,,,,75,0
38685,note_on,45,0,6,,,,,,,,2,,,,67,0
38688,note_on,3,0,6,,,,,,,,2,,,,63,85
38688,note_on,7,0,8,,,,,,,,3,,,,70,49
38688,note_on,3,0,5,,,,,,,,2,,,,72,85
38688,note_on,7,0,9,,,,,,,,3,,,,65,49
38733,note_on,45,0,6,,,,,,,,2,,,,63,0
38733,note_on,45,0,5,,,,,,,,2,,,,72,0
38736,note_on,3,0,5,,,,,,,,2,,,,74,85
38736,note_on,3,0,6,,,,,,,,2,,,,65,85
38754,note_on,354,0,10,,,,,,,,3,,,,58,0
38777,note_on,89,0,9,,,,,,,,3,,,,65,0
38777,note_on,89,0,8,,,,,,,,3,,,,70,0
38781,note_on,45,0,5,,,,,,,,2,,,,74,0
38781,note_on,45,0,6,,,,,,,,2,,,,65,0
38784,note_on,3,0,6,,,,,,,,2,,,,62,85
38784,note_on,30,0,10,,,,,,,,3,,,,70,49
38784,note_on,295,0,11,,,,,,,,3,,,,34,49
38784,note_on,3,0,5,,,,,,,,2,,,,70,85
38873,note_on,89,0,11,,,,,,,,3,,,,34,0
38873,note_on,89,0,5,,,,,,,,2,,,,70,0
38873,note_on,89,0,6,,,,,,,,2,,,,62,0
38880,note_on,103,0,9,,,,,,,,3,,,,62,49
38880,note_on,103,0,8,,,,,,,,3,,,,70,49
38919,note_on,39,0,9,,,,,,,,3,,,,62,0
38919,note_on,39,0,8,,,,,,,,3,,,,70,0
38976,note_on,103,0,5,,,,,,,,2,,,,70,85
38976,note_on,57,0,9,,,,,,,,3,,,,62,49
38976,note_on,57,0,8,,,,,,,,3,,,,70,49
39021,note_on,45,0,5,,,,,,,,2,,,,70,0
39024,note_on,3,0,5,,,,,,,,2,,,,72,85
39065,note_on,89,0,9,,,,,,,,3,,,,62,0
39065,note_on,89,0,8,,,,,,,,3,,,,70,0
39069,note_on,45,0,5,,,,,,,,2,,,,72,0
39072,note_on,0,0,6,,,,,,,,2,,,,46,85
39072,note_on,199,0,6,,,,,,,,2,,,,58,85
39072,note_on,3,0,5,,,,,,,,2,,,,69,85
39072,note_on,7,0,9,,,,,,,,3,,,,65,49
39072,note_on,7,0,8,,,,,,,,3,,,,74,49
39117,note_on,45,0,5,,,,,,,,2,,,,69,0
39120,note_on,3,0,5,,,,,,,,2,,,,70,85
39138,note_on,354,0,10,,,,,,,,3,,,,70,0
39161,note_on,89,0,9,,,,,,,,3,,,,65,0
39161,note_on,89,0,8,,,,,,,,3,,,,74,0
39165,note_on,45,0,5,,,,,,,,2,,,,70,0
39168,note_on,96,0,6,,,,,,,,2,,,,46,0
39168,note_on,3,0,5,,,,,,,,2,,,,67,85
39168,note_on,14799,0,7,,,,,,,,2,,,,51,85
39168,note_on,295,0,11,,,,,,,,3,,,,39,49
39168,note_on,30,0,10,,,,,,,,3,,,,58,49
39257,note_on,89,0,5,,,,,,,,2,,,,67,0
39257,note_on,89,0,6,,,,,,,,2,,,,58,0
39257,note_on,89,0,10,,,,,,,,3,,,,58,0
39257,note_on,89,0,11,,,,,,,,3,,,,39,0
39264,note_on,7,0,5,,,,,,,,2,,,,75,85
39264,note_on,7,0,6,,,,,,,,2,,,,55,85
39264,note_on,103,0,9,,,,,,,,3,,,,55,49
39264,note_on,103,0,8,,,,,,,,3,,,,63,49
39303,note_on,39,0,9,,,,,,,,3,,,,55,0
39303,note_on,39,0,8,,,,,,,,3,,,,63,0
39345,note_on,177,0,7,,,,,,,,2,,,,51,0
39360,note_on,103,0,10,,,,,,,,3,,,,60,49
39360,note_on,57,0,9,,,,,,,,3,,,,55,49
39360,note_on,57,0,8,,,,,,,,3,,,,63,49
39360,note_on,15,0,7,,,,,,,,2,,,,48,85
39360,note_on,103,0,11,,,,,,,,3,,,,36,49
39441,note_on,177,0,6,,,,,,,,2,,,,55,0
39441,note_on,177,0,5,,,,,,,,2,,,,75,0
39449,note_on,89,0,11,,,,,,,,3,,,,36,0
39449,note_on,89,0,10,,,,,,,,3,,,,60,0
39449,note_on,89,0,8,,,,,,,,3,,,,63,0
39449,note_on,89,0,7,,,,,,,,2,,,,48,0
39449,note_on,89,0,9,,,,,,,,3,,,,55,0
39456,note_on,7,0,8,,,,,,,,3,,,,67,49
39456,note_on,7,0,9,,,,,,,,3,,,,63,49
39456,note_on,7,0,7,,,,,,,,2,,,,51,85
39456,note_on,15,0,5,,,,,,,,2,,,,72,85
39456,note_on,15,0,6,,,,,,,,2,,,,60,85
39545,note_on,89,0,8,,,,,,,,3,,,,67,0
39545,note_on,89,0,5,,,,,,,,2,,,,72,0
39545,note_on,89,0,9,,,,,,,,3,,,,63,0
39545,note_on,89,0,7,,,,,,,,2,,,,51,0
39545,note_on,89,0,6,,,,,,,,2,,,,60,0
39552,note_on,7,0,6,,,,,,,,2,,,,60,85
39552,note_on,7,0,5,,,,,,,,2,,,,70,85
39552,note_on,103,0,11,,,,,,,,3,,,,41,49
39552,note_on,103,0,10,,,,,,,,3,,,,60,49
39552,note_on,0,0,6,,,,,,,,2,,,,53,85
39558,note_on,6,0,5,,,,,,,,2,,,,70,0
39558,note_on,0,0,5,,,,,,,,2,,,,69,85
39641,note_on,0,0,6,,,,,,,,2,,,,60,0
39641,note_on,89,0,6,,,,,,,,2,,,,53,0
39641,note_on,89,0,11,,,,,,,,3,,,,41,0
39641,note_on,83,0,5,,,,,,,,2,,,,69,0
39648,note_on,103,0,8,,,,,,,,3,,,,60,49
39648,note_on,7,0,5,,,,,,,,2,,,,72,85
39648,note_on,103,0,9,,,,,,,,3,,,,57,49
39687,note_on,39,0,8,,,,,,,,3,,,,60,0
39687,note_on,39,0,9,,,,,,,,3,,,,57,0
39693,note_on,45,0,5,,,,,,,,2,,,,72,0
39696,note_on,3,0,5,,,,,,,,2,,,,69,85
39729,note_on,177,0,10,,,,,,,,3,,,,60,0
39741,note_on,45,0,5,,,,,,,,2,,,,69,0
39744,note_on,3,0,5,,,,,,,,2,,,,77,85
39744,note_on,57,0,8,,,,,,,,3,,,,60,49
39744,note_on,103,0,6,,,,,,,,2,,,,57,85
39744,note_on,57,0,9,,,,,,,,3,,,,57,49
39789,note_on,45,0,5,,,,,,,,2,,,,77,0
39789,note_on,45,0,6,,,,,,,,2,,,,57,0
39792,note_on,3,0,5,,,,,,,,2,,,,79,85
39792,note_on,3,0,6,,,,,,,,2,,,,58,85
39833,note_on,89,0,8,,,,,,,,3,,,,60,0
39833,note_on,89,0,9,,,,,,,,3,,,,57,0
39837,note_on,45,0,5,,,,,,,,2,,,,79,0
39837,note_on,45,0,6,,,,,,,,2,,,,58,0
39840,note_on,7,0,9,,,,,,,,3,,,,60,49
39840,note_on,3,0,5,,,,,,,,2,,,,75,85
39840,note_on,3,0,6,,,,,,,,2,,,,60,85
39840,note_on,7,0,8,,,,,,,,3,,,,69,49
39885,note_on,45,0,5,,,,,,,,2,,,,75,0
39885,note_on,45,0,6,,,,,,,,2,,,,60,0
39888,note_on,3,0,6,,,,,,,,2,,,,62,85
39888,note_on,3,0,5,,,,,,,,2,,,,77,85
39929,note_on,89,0,8,,,,,,,,3,,,,69,0
39929,note_on,89,0,9,,,,,,,,3,,,,60,0
39933,note_on,45,0,6,,,,,,,,2,,,,62,0
39933,note_on,45,0,5,,,,,,,,2,,,,77,0
39936,note_on,207,0,10,,,,,,,,3,,,,58,49
39936,note_on,295,0,11,,,,,,,,3,,,,46,49
39936,note_on,3,0,6,,,,,,,,2,,,,58,85
39936,note_on,3,0,5,,,,,,,,2,,,,74,85
40025,note_on,89,0,5,,,,,,,,2,,,,74,0
40025,note_on,89,0,11,,,,,,,,3,,,,46,0
40025,note_on,89,0,6,,,,,,,,2,,,,58,0
40032,note_on,103,0,9,,,,,,,,3,,,,62,49
40032,note_on,103,0,8,,,,,,,,3,,,,65,49
40071,note_on,39,0,9,,,,,,,,3,,,,62,0
40071,note_on,39,0,8,,,,,,,,3,,,,65,0
40128,note_on,57,0,9,,,,,,,,3,,,,62,49
40128,note_on,57,0,8,,,,,,,,3,,,,65,49
40128,note_on,103,0,5,,,,,,,,2,,,,74,85
40128,note_on,103,0,6,,,,,,,,2,,,,65,85
40173,note_on,45,0,5,,,,,,,,2,,,,74,0
40173,note_on,45,0,6,,,,,,,,2,,,,65,0
40176,note_on,3,0,5,,,,,,,,2,,,,75,85
40176,note_on,3,0,6,,,,,,,,2,,,,67,85
40217,note_on,89,0,9,,,,,,,,3,,,,62,0
40217,note_on,89,0,8,,,,,,,,3,,,,65,0
40221,note_on,45,0,6,,,,,,,,2,,,,67,0
40221,note_on,45,0,5,,,,,,,,2,,,,75,0
40224,note_on,7,0,8,,,,,,,,3,,,,70,49
40224,note_on,3,0,6,,,,,,,,2,,,,63,85
40224,note_on,7,0,9,,,,,,,,3,,,,65,49
40224,note_on,3,0,5,,,,,,,,2,,,,72,85
40269,note_on,45,0,6,,,,,,,,2,,,,63,0
40269,note_on,45,0,5,,,,,,,,2,,,,72,0
40272,note_on,3,0,5,,,,,,,,2,,,,74,85
40272,note_on,3,0,6,,,,,,,,2,,,,65,85
40290,note_on,354,0,10,,,,,,,,3,,,,58,0
40313,note_on,89,0,9,,,,,,,,3,,,,65,0
40313,note_on,89,0,8,,,,,,,,3,,,,70,0
40317,note_on,45,0,5,,,,,,,,2,,,,74,0
40317,note_on,45,0,6,,,,,,,,2,,,,65,0
40320,note_on,295,0,11,,,,,,,,3,,,,34,49
40320,note_on,3,0,5,,,,,,,,2,,,,70,85
40320,note_on,3,0,6,,,,,,,,2,,,,62,85
40320,note_on,30,0,10,,,,,,,,3,,,,70,49
40409,note_on,89,0,11,,,,,,,,3,,,,34,0
40409,note_on,89,0,6,,,,,,,,2,,,,62,0
40409,note_on,89,0,5,,,,,,,,2,,,,70,0
40416,note_on,103,0,9,,,,,,,,3,,,,62,49
40416,note_on,103,0,8,,,,,,,,3,,,,70,49
40455,note_on,39,0,8,,,,,,,,3,,,,70,0
40455,note_on,39,0,9,,,,,,,,3,,,,62,0
40512,note_on,57,0,9,,,,,,,,3,,,,62,49
40512,note_on,103,0,5,,,,,,,,2,,,,70,85
40512,note_on,57,0,8,,,,,,,,3,,,,70,49
40557,note_on,45,0,5,,,,,,,,2,,,,70,0
40560,note_on,3,0,5,,,,,,,,2,,,,72,85
40601,note_on,89,0,9,,,,,,,,3,,,,62,0
40601,note_on,89,0,8,,,,,,,,3,,,,70,0
40605,note_on,45,0,5,,,,,,,,2,,,,72,0
40608,note_on,3,0,5,,,,,,,,2,,,,69,85
40608,note_on,7,0,8,,,,,,,,3,,,,74,49
40608,note_on,0,0,6,,,,,,,,2,,,,46,85
40608,note_on,7,0,9,,,,,,,,3,,,,65,49
40608,note_on,199,0,6,,,,,,,,2,,,,58,85
40653,note_on,45,0,5,,,,,,,,2,,,,69,0
40656,note_on,3,0,5,,,,,,,,2,,,,70,85
40674,note_on,354,0,10,,,,,,,,3,,,,70,0
40697,note_on,89,0,8,,,,,,,,3,,,,74,0
40697,note_on,89,0,9,,,,,,,,3,,,,65,0
40701,note_on,45,0,5,,,,,,,,2,,,,70,0
40704,note_on,96,0,6,,,,,,,,2,,,,46,0
40704,note_on,30,0,10,,,,,,,,3,,,,58,49
40704,note_on,1159,0,7,,,,,,,,2,,,,51,85
40704,note_on,3,0,5,,,,,,,,2,,,,67,85
40704,note_on,295,0,11,,,,,,,,3,,,,39,49
40749,note_on,45,0,5,,,,,,,,2,,,,67,0
40752,note_on,3,0,5,,,,,,,,2,,,,72,85
40793,note_on,89,0,6,,,,,,,,2,,,,58,0
40793,note_on,89,0,10,,,,,,,,3,,,,58,0
40797,note_on,45,0,5,,,,,,,,2,,,,72,0
40800,note_on,7,0,10,,,,,,,,3,,,,60,49
40800,note_on,3,0,5,,,,,,,,2,,,,75,85
40800,note_on,103,0,9,,,,,,,,3,,,,67,49
40800,note_on,103,0,8,,,,,,,,3,,,,75,49
40800,note_on,7,0,6,,,,,,,,2,,,,60,85
40845,note_on,45,0,5,,,,,,,,2,,,,75,0
40848,note_on,3,0,5,,,,,,,,2,,,,72,85
40881,note_on,177,0,11,,,,,,,,3,,,,39,0
40881,note_on,177,0,7,,,,,,,,2,,,,51,0
40889,note_on,89,0,8,,,,,,,,3,,,,75,0
40889,note_on,89,0,9,,,,,,,,3,,,,67,0
40893,note_on,45,0,5,,,,,,,,2,,,,72,0
40896,note_on,15,0,11,,,,,,,,3,,,,41,49
40896,note_on,15,0,7,,,,,,,,2,,,,53,85
40896,note_on,3,0,5,,,,,,,,2,,,,70,85
40902,note_on,6,0,5,,,,,,,,2,,,,70,0
40902,note_on,0,0,5,,,,,,,,2,,,,69,85
40977,note_on,177,0,6,,,,,,,,2,,,,60,0
40977,note_on,177,0,10,,,,,,,,3,,,,60,0
40985,note_on,83,0,5,,,,,,,,2,,,,69,0
40992,note_on,15,0,6,,,,,,,,2,,,,63,85
40992,note_on,15,0,10,,,,,,,,3,,,,60,49
40992,note_on,103,0,8,,,,,,,,3,,,,69,49
40992,note_on,7,0,5,,,,,,,,2,,,,67,85
40992,note_on,103,0,9,,,,,,,,3,,,,63,49
41037,note_on,45,0,5,,,,,,,,2,,,,67,0
41040,note_on,3,0,5,,,,,,,,2,,,,69,85
41073,note_on,177,0,11,,,,,,,,3,,,,41,0
41073,note_on,177,0,7,,,,,,,,2,,,,53,0
41081,note_on,89,0,8,,,,,,,,3,,,,69,0
41081,note_on,89,0,9,,,,,,,,3,,,,63,0
41081,note_on,89,0,10,,,,,,,,3,,,,60,0
41081,note_on,89,0,6,,,,,,,,2,,,,63,0
41085,note_on,45,0,5,,,,,,,,2,,,,69,0
41088,note_on,7,0,10,,,,,,,,3,,,,58,49
41088,note_on,7,0,8,,,,,,,,3,,,,70,49
41088,note_on,3,0,5,,,,,,,,2,,,,70,85
41088,note_on,15,0,11,,,,,,,,3,,,,34,49
41088,note_on,7,0,9,,,,,,,,3,,,,62,49
41088,note_on,0,0,6,,,,,,,,2,,,,58,85
41088,note_on,7,0,6,,,,,,,,2,,,,62,85
41177,note_on,89,0,10,,,,,,,,3,,,,58,0
41177,note_on,89,0,8,,,,,,,,3,,,,70,0
41177,note_on,0,0,6,,,,,,,,2,,,,62,0
41177,note_on,89,0,6,,,,,,,,2,,,,58,0
41177,note_on,89,0,5,,,,,,,,2,,,,70,0
41177,note_on,89,0,9,,,,,,,,3,,,,62,0
41184,note_on,7,0,8,,,,,,,,3,,,,58,49
41184,note_on,7,0,6,,,,,,,,2,,,,46,85
41265,note_on,177,0,11,,,,,,,,3,,,,34,0
41273,note_on,89,0,8,,,,,,,,3,,,,58,0
41273,note_on,89,0,6,,,,,,,,2,,,,46,0
41280,note_on,8551,0,1,,,,,,,,0,,,,77,64
41280,note_on,19983,0,2,,,,,,,,0,,,,74,64
41280,note_on,7,0,8,,,,,,,,3,,,,77,64
41280,note_on,103,0,9,,,,,,,,3,,,,62,64
41325,note_on,45,0,9,,,,,,,,3,,,,62,0
41325,note_on,45,0,8,,,,,,,,3,,,,77,0
41328,note_on,3,0,9,,,,,,,,3,,,,63,64
41328,note_on,3,0,8,,,,,,,,3,,,,79,64
41369,note_on,89,0,1,,,,,,,,0,,,,77,0
41369,note_on,89,0,2,,,,,,,,0,,,,74,0
41373,note_on,45,0,8,,,,,,,,3,,,,79,0
41373,note_on,45,0,9,,,,,,,,3,,,,63,0
41376,note_on,7,0,2,,,,,,,,0,,,,72,64
41376,note_on,3,0,8,,,,,,,,3,,,,75,64
41376,note_on,7,0,1,,,,,,,,0,,,,75,64
41376,note_on,3,0,9,,,,,,,,3,,,,60,64
41421,note_on,45,0,8,,,,,,,,3,,,,75,0
41421,note_on,45,0,9,,,,,,,,3,,,,60,0
41424,note_on,3,0,8,,,,,,,,3,,,,77,64
41424,note_on,3,0,9,,,,,,,,3,,,,62,64
41465,note_on,89,0,2,,,,,,,,0,,,,72,0
41465,note_on,89,0,1,,,,,,,,0,,,,75,0
41469,note_on,45,0,9,,,,,,,,3,,,,62,0
41469,note_on,45,0,8,,,,,,,,3,,,,77,0
41472,note_on,3,0,9,,,,,,,,3,,,,58,64
41472,note_on,7,0,1,,,,,,,,0,,,,74,64
41472,note_on,3,0,8,,,,,,,,3,,,,74,64
41472,note_on,295,0,10,,,,,,,,3,,,,58,64
41472,note_on,207,0,11,,,,,,,,3,,,,34,64
41472,note_on,7,0,2,,,,,,,,0,,,,70,64
41472,note_on,8951,0,3,,,,,,,,1,,,,70,64
41472,note_on,22095,0,4,,,,,,,,1,,,,58,64
41561,note_on,89,0,8,,,,,,,,3,,,,74,0
41561,note_on,89,0,11,,,,,,,,3,,,,34,0
41561,note_on,89,0,2,,,,,,,,0,,,,70,0
41561,note_on,89,0,10,,,,,,,,3,,,,58,0
41561,note_on,89,0,9,,,,,,,,3,,,,58,0
41561,note_on,89,0,1,,,,,,,,0,,,,74,0
41568,note_on,7,0,10,,,,,,,,3,,,,70,64
41568,note_on,7,0,11,,,,,,,,3,,,,46,64
41657,note_on,89,0,11,,,,,,,,3,,,,46,0
41657,note_on,89,0,10,,,,,,,,3,,,,70,0
41664,note_on,7,0,11,,,,,,,,3,,,,46,64
41664,note_on,7,0,10,,,,,,,,3,,,,70,64
41664,note_on,103,0,2,,,,,,,,0,,,,65,64
41664,note_on,103,0,8,,,,,,,,3,,,,74,64
41664,note_on,103,0,1,,,,,,,,0,,,,74,64
41664,note_on,103,0,9,,,,,,,,3,,,,65,64
41709,note_on,45,0,8,,,,,,,,3,,,,74,0
41709,note_on,45,0,9,,,,,,,,3,,,,65,0
41712,note_on,3,0,9,,,,,,,,3,,,,67,64
41712,note_on,3,0,8,,,,,,,,3,,,,75,64
41753,note_on,89,0,1,,,,,,,,0,,,,74,0
41753,note_on,89,0,11,,,,,,,,3,,,,46,0
41753,note_on,89,0,2,,,,,,,,0,,,,65,0
41753,note_on,89,0,10,,,,,,,,3,,,,70,0
41757,note_on,45,0,9,,,,,,,,3,,,,67,0
41757,note_on,45,0,8,,,,,,,,3,,,,75,0
41760,note_on,7,0,11,,,,,,,,3,,,,46,64
41760,note_on,7,0,2,,,,,,,,0,,,,63,64
41760,note_on,7,0,1,,,,,,,,0,,,,72,64
41760,note_on,3,0,9,,,,,,,,3,,,,63,64
41760,note_on,3,0,8,,,,,,,,3,,,,72,64
41760,note_on,7,0,10,,,,,,,,3,,,,70,64
41805,note_on,45,0,9,,,,,,,,3,,,,63,0
41805,note_on,45,0,8,,,,,,,,3,,,,72,0
41808,note_on,3,0,8,,,,,,,,3,,,,74,64
41808,note_on,3,0,9,,,,,,,,3,,,,65,64
41849,note_on,89,0,10,,,,,,,,3,,,,70,0
41849,note_on,89,0,1,,,,,,,,0,,,,72,0
41849,note_on,89,0,11,,,,,,,,3,,,,46,0
41849,note_on,89,0,2,,,,,,,,0,,,,63,0
41853,note_on,45,0,8,,,,,,,,3,,,,74,0
41853,note_on,45,0,9,,,,,,,,3,,,,65,0
41856,note_on,3,0,8,,,,,,,,3,,,,70,64
41856,note_on,7,0,10,,,,,,,,3,,,,58,64
41856,note_on,7,0,1,,,,,,,,0,,,,70,64
41856,note_on,7,0,2,,,,,,,,0,,,,62,64
41856,note_on,3,0,9,,,,,,,,3,,,,62,64
41856,note_on,7,0,11,,,,,,,,3,,,,34,64
41945,note_on,89,0,10,,,,,,,,3,,,,58,0
41945,note_on,89,0,11,,,,,,,,3,,,,34,0
41945,note_on,89,0,9,,,,,,,,3,,,,62,0
41945,note_on,89,0,2,,,,,,,,0,,,,62,0
41945,note_on,89,0,1,,,,,,,,0,,,,70,0
41945,note_on,89,0,8,,,,,,,,3,,,,70,0
41952,note_on,7,0,10,,,,,,,,3,,,,70,64
41952,note_on,7,0,11,,,,,,,,3,,,,46,64
42041,note_on,89,0,11,,,,,,,,3,,,,46,0
42041,note_on,89,0,10,,,,,,,,3,,,,70,0
42048,note_on,7,0,10,,,,,,,,3,,,,70,64
42048,note_on,7,0,11,,,,,,,,3,,,,46,64
42048,note_on,103,0,9,,,,,,,,3,,,,62,64
42048,note_on,103,0,8,,,,,,,,3,,,,70,64
42048,note_on,103,0,1,,,,,,,,0,,,,82,64
42048,note_on,103,0,2,,,,,,,,0,,,,74,64
42093,note_on,45,0,9,,,,,,,,3,,,,62,0
42093,note_on,45,0,8,,,,,,,,3,,,,70,0
42096,note_on,3,0,9,,,,,,,,3,,,,63,64
42096,note_on,3,0,8,,,,,,,,3,,,,72,64
42137,note_on,89,0,2,,,,,,,,0,,,,74,0
42137,note_on,89,0,11,,,,,,,,3,,,,46,0
42137,note_on,89,0,10,,,,,,,,3,,,,70,0
42137,note_on,89,0,1,,,,,,,,0,,,,82,0
42141,note_on,45,0,9,,,,,,,,3,,,,63,0
42141,note_on,45,0,8,,,,,,,,3,,,,72,0
42144,note_on,3,0,8,,,,,,,,3,,,,69,64
42144,note_on,7,0,2,,,,,,,,0,,,,77,64
42144,note_on,7,0,10,,,,,,,,3,,,,58,64
42144,note_on,3,0,9,,,,,,,,3,,,,65,64
42144,note_on,7,0,1,,,,,,,,0,,,,81,64
42144,note_on,7,0,11,,,,,,,,3,,,,46,64
42189,note_on,45,0,8,,,,,,,,3,,,,69,0
42189,note_on,45,0,9,,,,,,,,3,,,,65,0
42192,note_on,3,0,8,,,,,,,,3,,,,70,64
42192,note_on,3,0,9,,,,,,,,3,,,,67,64
42210,note_on,738,0,4,,,,,,,,1,,,,58,0
42210,note_on,738,0,3,,,,,,,,1,,,,70,0
42233,note_on,89,0,10,,,,,,,,3,,,,58,0
42233,note_on,89,0,1,,,,,,,,0,,,,81,0
42233,note_on,89,0,11,,,,,,,,3,,,,46,0
42233,note_on,89,0,2,,,,,,,,0,,,,77,0
42237,note_on,45,0,8,,,,,,,,3,,,,70,0
42237,note_on,45,0,9,,,,,,,,3,,,,67,0
42240,note_on,7,0,10,,,,,,,,3,,,,58,64
42240,note_on,3,0,8,,,,,,,,3,,,,67,64
42240,note_on,7,0,11,,,,,,,,3,,,,39,64
42240,note_on,7,0,2,,,,,,,,0,,,,75,64
42240,note_on,7,0,1,,,,,,,,0,,,,79,64
42240,note_on,3,0,9,,,,,,,,3,,,,63,64
42329,note_on,89,0,9,,,,,,,,3,,,,63,0
42329,note_on,89,0,10,,,,,,,,3,,,,58,0
42329,note_on,89,0,2,,,,,,,,0,,,,75,0
42329,note_on,89,0,8,,,,,,,,3,,,,67,0
42329,note_on,89,0,1,,,,,,,,0,,,,79,0
42336,note_on,7,0,10,,,,,,,,3,,,,60,64
42336,note_on,7,0,8,,,,,,,,3,,,,75,64
42336,note_on,7,0,9,,,,,,,,3,,,,67,64
42417,note_on,177,0,11,,,,,,,,3,,,,39,0
42432,note_on,15,0,11,,,,,,,,3,,,,36,64
42432,note_on,103,0,1,,,,,,,,0,,,,79,64
42432,note_on,103,0,2,,,,,,,,0,,,,75,64
42513,note_on,177,0,9,,,,,,,,3,,,,67,0
42513,note_on,177,0,8,,,,,,,,3,,,,75,0
42513,note_on,177,0,10,,,,,,,,3,,,,60,0
42521,note_on,89,0,1,,,,,,,,0,,,,79,0
42528,note_on,15,0,9,,,,,,,,3,,,,63,64
42528,note_on,15,0,10,,,,,,,,3,,,,60,64
42528,note_on,15,0,8,,,,,,,,3,,,,72,64
42528,note_on,7,0,1,,,,,,,,0,,,,84,64
42609,note_on,177,0,2,,,,,,,,0,,,,75,0
42609,note_on,177,0,11,,,,,,,,3,,,,36,0
42617,note_on,89,0,10,,,,,,,,3,,,,60,0
42617,note_on,89,0,9,,,,,,,,3,,,,63,0
42617,note_on,89,0,8,,,,,,,,3,,,,72,0
42617,note_on,89,0,1,,,,,,,,0,,,,84,0
42624,note_on,7,0,10,,,,,,,,3,,,,65,64
42624,note_on,15,0,2,,,,,,,,0,,,,74,64
42624,note_on,7,0,9,,,,,,,,3,,,,62,64
42624,note_on,7,0,1,,,,,,,,0,,,,82,64
42624,note_on,7,0,8,,,,,,,,3,,,,70,64
42624,note_on,15,0,11,,,,,,,,3,,,,41,64
42630,note_on,0,0,9,,,,,,,,3,,,,60,64
42630,note_on,0,0,8,,,,,,,,3,,,,69,64
42630,note_on,0,0,2,,,,,,,,0,,,,72,64
42630,note_on,6,0,2,,,,,,,,0,,,,74,0
42630,note_on,6,0,9,,,,,,,,3,,,,62,0
42630,note_on,6,0,8,,,,,,,,3,,,,70,0
42630,note_on,6,0,1,,,,,,,,0,,,,82,0
42630,note_on,0,0,1,,,,,,,,0,,,,81,64
42713,note_on,83,0,8,,,,,,,,3,,,,69,0
42713,note_on,89,0,10,,,,,,,,3,,,,65,0
42713,note_on,83,0,9,,,,,,,,3,,,,60,0
42713,note_on,83,0,2,,,,,,,,0,,,,72,0
42713,note_on,83,0,1,,,,,,,,0,,,,81,0
42720,note_on,510,0,4,,,,,,,,1,,,,65,64
42720,note_on,510,0,3,,,,,,,,1,,,,65,64
42720,note_on,7,0,10,,,,,,,,3,,,,53,64
42720,note_on,7,0,2,,,,,,,,0,,,,69,64
42720,note_on,7,0,1,,,,,,,,0,,,,77,64
42720,note_on,7,0,9,,,,,,,,3,,,,57,64
42720,note_on,7,0,8,,,,,,,,3,,,,72,64
42765,note_on,45,0,8,,,,,,,,3,,,,72,0
42768,note_on,3,0,8,,,,,,,,3,,,,69,64
42801,note_on,177,0,11,,,,,,,,3,,,,41,0
42809,note_on,89,0,2,,,,,,,,0,,,,69,0
42809,note_on,89,0,9,,,,,,,,3,,,,57,0
42809,note_on,89,0,10,,,,,,,,3,,,,53,0
42809,note_on,89,0,1,,,,,,,,0,,,,77,0
42809,note_on,89,0,4,,,,,,,,1,,,,65,0
42809,note_on,89,0,3,,,,,,,,1,,,,65,0
42813,note_on,45,0,8,,,,,,,,3,,,,69,0
42816,note_on,7,0,3,,,,,,,,1,,,,65,64
42816,note_on,7,0,4,,,,,,,,1,,,,65,64
42816,note_on,7,0,10,,,,,,,,3,,,,65,64
42816,note_on,3,0,8,,,,,,,,3,,,,77,64
42816,note_on,7,0,9,,,,,,,,3,,,,69,64
42861,note_on,45,0,8,,,,,,,,3,,,,77,0
42861,note_on,45,0,9,,,,,,,,3,,,,69,0
42864,note_on,3,0,9,,,,,,,,3,,,,70,64
42864,note_on,3,0,8,,,,,,,,3,,,,79,64
42905,note_on,89,0,3,,,,,,,,1,,,,65,0
42905,note_on,89,0,4,,,,,,,,1,,,,65,0
42905,note_on,89,0,10,,,,,,,,3,,,,65,0
42909,note_on,45,0,9,,,,,,,,3,,,,70,0
42909,note_on,45,0,8,,,,,,,,3,,,,79,0
42912,note_on,7,0,4,,,,,,,,1,,,,65,64
42912,note_on,7,0,3,,,,,,,,1,,,,65,64
42912,note_on,3,0,8,,,,,,,,3,,,,75,64
42912,note_on,7,0,10,,,,,,,,3,,,,65,64
42912,note_on,3,0,9,,,,,,,,3,,,,72,64
42957,note_on,45,0,8,,,,,,,,3,,,,75,0
42957,note_on,45,0,9,,,,,,,,3,,,,72,0
42960,note_on,3,0,8,,,,,,,,3,,,,77,64
42960,note_on,3,0,9,,,,,,,,3,,,,69,64
43001,note_on,89,0,3,,,,,,,,1,,,,65,0
43001,note_on,89,0,4,,,,,,,,1,,,,65,0
43005,note_on,45,0,8,,,,,,,,3,,,,77,0
43005,note_on,45,0,9,,,,,,,,3,,,,69,0
43008,note_on,199,0,2,,,,,,,,0,,,,74,64
43008,note_on,7,0,3,,,,,,,,1,,,,70,64
43008,note_on,3,0,9,,,,,,,,3,,,,70,64
43008,note_on,199,0,1,,,,,,,,0,,,,77,64
43008,note_on,3,0,8,,,,,,,,3,,,,74,64
43008,note_on,7,0,4,,,,,,,,1,,,,70,64
43053,note_on,45,0,1,,,,,,,,0,,,,77,0
43053,note_on,45,0,2,,,,,,,,0,,,,74,0
43056,note_on,3,0,2,,,,,,,,0,,,,75,64
43056,note_on,3,0,1,,,,,,,,0,,,,79,64
43097,note_on,185,0,10,,,,,,,,3,,,,65,0
43097,note_on,89,0,8,,,,,,,,3,,,,74,0
43097,note_on,89,0,3,,,,,,,,1,,,,70,0
43097,note_on,89,0,9,,,,,,,,3,,,,70,0
43097,note_on,89,0,4,,,,,,,,1,,,,70,0
43101,note_on,45,0,2,,,,,,,,0,,,,75,0
43101,note_on,45,0,1,,,,,,,,0,,,,79,0
43104,note_on,3,0,1,,,,,,,,0,,,,75,64
43104,note_on,7,0,10,,,,,,,,3,,,,65,64
43104,note_on,3,0,2,,,,,,,,0,,,,72,64
43104,note_on,303,0,11,,,,,,,,3,,,,41,64
43149,note_on,45,0,2,,,,,,,,0,,,,72,0
43149,note_on,45,0,1,,,,,,,,0,,,,75,0
43152,note_on,3,0,2,,,,,,,,0,,,,74,64
43152,note_on,3,0,1,,,,,,,,0,,,,77,64
43193,note_on,89,0,11,,,,,,,,3,,,,41,0
43197,note_on,45,0,1,,,,,,,,0,,,,77,0
43197,note_on,45,0,2,,,,,,,,0,,,,74,0
43200,note_on,3,0,2,,,,,,,,0,,,,70,64
43200,note_on,3,0,1,,,,,,,,0,,,,74,64
43200,note_on,103,0,8,,,,,,,,3,,,,74,64
43200,note_on,7,0,11,,,,,,,,3,,,,46,64
43200,note_on,103,0,9,,,,,,,,3,,,,65,64
43245,note_on,45,0,9,,,,,,,,3,,,,65,0
43245,note_on,45,0,8,,,,,,,,3,,,,74,0
43248,note_on,3,0,9,,,,,,,,3,,,,67,64
43248,note_on,3,0,8,,,,,,,,3,,,,75,64
43281,note_on,177,0,10,,,,,,,,3,,,,65,0
43289,note_on,89,0,2,,,,,,,,0,,,,70,0
43289,note_on,89,0,11,,,,,,,,3,,,,46,0
43289,note_on,89,0,1,,,,,,,,0,,,,74,0
43293,note_on,45,0,8,,,,,,,,3,,,,75,0
43293,note_on,45,0,9,,,,,,,,3,,,,67,0
43296,note_on,199,0,3,,,,,,,,1,,,,65,64
43296,note_on,15,0,10,,,,,,,,3,,,,65,64
43296,note_on,3,0,8,,,,,,,,3,,,,72,64
43296,note_on,3,0,9,,,,,,,,3,,,,63,64
43296,note_on,199,0,4,,,,,,,,1,,,,65,64
43341,note_on,45,0,9,,,,,,,,3,,,,63,0
43341,note_on,45,0,8,,,,,,,,3,,,,72,0
43344,note_on,3,0,8,,,,,,,,3,,,,74,64
43344,note_on,3,0,9,,,,,,,,3,,,,65,64
43385,note_on,89,0,4,,,,,,,,1,,,,65,0
43385,note_on,89,0,3,,,,,,,,1,,,,65,0
43389,note_on,45,0,9,,,,,,,,3,,,,65,0
43389,note_on,45,0,8,,,,,,,,3,,,,74,0
43392,note_on,7,0,4,,,,,,,,1,,,,58,64
43392,note_on,7,0,3,,,,,,,,1,,,,58,64
43392,note_on,3,0,9,,,,,,,,3,,,,62,64
43392,note_on,3,0,8,,,,,,,,3,,,,70,64
43392,note_on,103,0,2,,,,,,,,0,,,,65,64
43392,note_on,103,0,1,,,,,,,,0,,,,74,64
43437,note_on,45,0,1,,,,,,,,0,,,,74,0
43437,note_on,45,0,2,,,,,,,,0,,,,65,0
43440,note_on,3,0,1,,,,,,,,0,,,,75,64
43440,note_on,3,0,2,,,,,,,,0,,,,67,64
43481,note_on,89,0,4,,,,,,,,1,,,,58,0
43481,note_on,89,0,9,,,,,,,,3,,,,62,0
43481,note_on,89,0,3,,,,,,,,1,,,,58,0
43481,note_on,89,0,8,,,,,,,,3,,,,70,0
43481,note_on,185,0,10,,,,,,,,3,,,,65,0
43485,note_on,45,0,1,,,,,,,,0,,,,75,0
43485,note_on,45,0,2,,,,,,,,0,,,,67,0
43488,note_on,199,0,11,,,,,,,,3,,,,41,64
43488,note_on,3,0,1,,,,,,,,0,,,,72,64
43488,note_on,3,0,2,,,,,,,,0,,,,63,64
43488,note_on,7,0,10,,,,,,,,3,,,,58,64
43533,note_on,45,0,1,,,,,,,,0,,,,72,0
43533,note_on,45,0,2,,,,,,,,0,,,,63,0
43536,note_on,3,0,1,,,,,,,,0,,,,74,64
43536,note_on,3,0,2,,,,,,,,0,,,,65,64
43577,note_on,89,0,10,,,,,,,,3,,,,58,0
43577,note_on,89,0,11,,,,,,,,3,,,,41,0
43581,note_on,45,0,1,,,,,,,,0,,,,74,0
43581,note_on,45,0,2,,,,,,,,0,,,,65,0
43584,note_on,103,0,8,,,,,,,,3,,,,70,64
43584,note_on,103,0,9,,,,,,,,3,,,,70,64
43584,note_on,3,0,2,,,,,,,,0,,,,62,64
43584,note_on,7,0,11,,,,,,,,3,,,,34,64
43584,note_on,7,0,10,,,,,,,,3,,,,62,64
43584,note_on,3,0,1,,,,,,,,0,,,,70,64
43604,note_on,20,0,8,,,,,,,,3,,,,70,0
43604,note_on,20,0,9,,,,,,,,3,,,,70,0
43632,note_on,28,0,8,,,,,,,,3,,,,74,64
43632,note_on,28,0,9,,,,,,,,3,,,,74,64
43652,note_on,20,0,8,,,,,,,,3,,,,74,0
43652,note_on,20,0,9,,,,,,,,3,,,,74,0
43673,note_on,89,0,11,,,,,,,,3,,,,34,0
43673,note_on,89,0,1,,,,,,,,0,,,,70,0
43673,note_on,89,0,2,,,,,,,,0,,,,62,0
43673,note_on,89,0,10,,,,,,,,3,,,,62,0
43680,note_on,28,0,9,,,,,,,,3,,,,77,64
43680,note_on,7,0,1,,,,,,,,0,,,,82,64
43680,note_on,7,0,11,,,,,,,,3,,,,38,64
43680,note_on,7,0,10,,,,,,,,3,,,,62,64
43680,note_on,7,0,2,,,,,,,,0,,,,77,64
43680,note_on,199,0,3,,,,,,,,1,,,,70,64
43680,note_on,28,0,8,,,,,,,,3,,,,77,64
43680,note_on,199,0,4,,,,,,,,1,,,,58,64
43700,note_on,20,0,9,,,,,,,,3,,,,77,0
43700,note_on,20,0,8,,,,,,,,3,,,,77,0
43728,note_on,28,0,8,,,,,,,,3,,,,82,64
43728,note_on,28,0,9,,,,,,,,3,,,,82,64
43748,note_on,20,0,8,,,,,,,,3,,,,82,0
43769,note_on,89,0,10,,,,,,,,3,,,,62,0
43769,note_on,89,0,3,,,,,,,,1,,,,70,0
43769,note_on,89,0,11,,,,,,,,3,,,,38,0
43769,note_on,89,0,1,,,,,,,,0,,,,82,0
43769,note_on,89,0,2,,,,,,,,0,,,,77,0
43769,note_on,89,0,4,,,,,,,,1,,,,58,0
43773,note_on,45,0,9,,,,,,,,3,,,,82,0
43776,note_on,28,0,8,,,,,,,,3,,,,78,64
43776,note_on,7,0,2,,,,,,,,0,,,,75,64
43776,note_on,3,0,9,,,,,,,,3,,,,78,64
43776,note_on,7,0,3,,,,,,,,1,,,,70,64
43776,note_on,7,0,11,,,,,,,,3,,,,39,64
43776,note_on,7,0,1,,,,,,,,0,,,,79,64
43776,note_on,7,0,4,,,,,,,,1,,,,58,64
43776,note_on,7,0,10,,,,,,,,3,,,,63,64
43821,note_on,45,0,9,,,,,,,,3,,,,78,0
43821,note_on,45,0,8,,,,,,,,3,,,,78,0
43824,note_on,3,0,8,,,,,,,,3,,,,79,64
43824,note_on,3,0,9,,,,,,,,3,,,,79,64
43865,note_on,89,0,3,,,,,,,,1,,,,70,0
43865,note_on,89,0,10,,,,,,,,3,,,,63,0
43865,note_on,89,0,11,,,,,,,,3,,,,39,0
43869,note_on,45,0,8,,,,,,,,3,,,,79,0
43869,note_on,45,0,9,,,,,,,,3,,,,79,0
43872,note_on,3,0,8,,,,,,,,3,,,,75,64
43872,note_on,3,0,9,,,,,,,,3,,,,75,64
43872,note_on,7,0,3,,,,,,,,1,,,,65,64
43872,note_on,7,0,10,,,,,,,,3,,,,63,64
43872,note_on,7,0,11,,,,,,,,3,,,,39,64
43892,note_on,20,0,8,,,,,,,,3,,,,75,0
43892,note_on,20,0,9,,,,,,,,3,,,,75,0
43920,note_on,28,0,9,,,,,,,,3,,,,72,64
43920,note_on,28,0,8,,,,,,,,3,,,,72,64
43940,note_on,20,0,9,,,,,,,,3,,,,72,0
43940,note_on,20,0,8,,,,,,,,3,,,,72,0
43953,note_on,177,0,4,,,,,,,,1,,,,58,0
43953,note_on,177,0,2,,,,,,,,0,,,,75,0
43953,note_on,177,0,1,,,,,,,,0,,,,79,0
43961,note_on,89,0,10,,,,,,,,3,,,,63,0
43961,note_on,89,0,3,,,,,,,,1,,,,65,0
43961,note_on,89,0,11,,,,,,,,3,,,,39,0
43968,note_on,28,0,9,,,,,,,,3,,,,74,64
43968,note_on,15,0,2,,,,,,,,0,,,,63,64
43968,note_on,7,0,10,,,,,,,,3,,,,65,64
43968,note_on,7,0,11,,,,,,,,3,,,,41,64
43968,note_on,7,0,3,,,,,,,,1,,,,65,64
43968,note_on,15,0,4,,,,,,,,1,,,,65,64
43968,note_on,15,0,1,,,,,,,,0,,,,69,64
43968,note_on,28,0,8,,,,,,,,3,,,,74,64
44013,note_on,45,0,8,,,,,,,,3,,,,74,0
44013,note_on,45,0,9,,,,,,,,3,,,,74,0
44016,note_on,3,0,9,,,,,,,,3,,,,75,64
44016,note_on,3,0,8,,,,,,,,3,,,,75,64
44057,note_on,89,0,11,,,,,,,,3,,,,41,0
44057,note_on,89,0,10,,,,,,,,3,,,,65,0
44061,note_on,45,0,9,,,,,,,,3,,,,75,0
44061,note_on,45,0,8,,,,,,,,3,,,,75,0
44064,note_on,7,0,11,,,,,,,,3,,,,41,64
44064,note_on,3,0,9,,,,,,,,3,,,,72,64
44064,note_on,3,0,8,,,,,,,,3,,,,72,64
44064,note_on,7,0,10,,,,,,,,3,,,,65,64
44084,note_on,20,0,9,,,,,,,,3,,,,72,0
44084,note_on,20,0,8,,,,,,,,3,,,,72,0
44112,note_on,28,0,8,,,,,,,,3,,,,69,64
44112,note_on,28,0,9,,,,,,,,3,,,,69,64
44132,note_on,20,0,8,,,,,,,,3,,,,69,0
44132,note_on,20,0,9,,,,,,,,3,,,,69,0
44145,note_on,177,0,2,,,,,,,,0,,,,63,0
44145,note_on,177,0,4,,,,,,,,1,,,,65,0
44145,note_on,177,0,3,,,,,,,,1,,,,65,0
44145,note_on,177,0,1,,,,,,,,0,,,,69,0
44153,note_on,89,0,10,,,,,,,,3,,,,65,0
44153,note_on,89,0,11,,,,,,,,3,,,,41,0
44160,note_on,15,0,4,,,,,,,,1,,,,58,64
44160,note_on,15,0,1,,,,,,,,0,,,,70,64
44160,note_on,7,0,11,,,,,,,,3,,,,34,64
44160,note_on,28,0,8,,,,,,,,3,,,,70,64
44160,note_on,15,0,2,,,,,,,,0,,,,62,64
44160,note_on,28,0,9,,,,,,,,3,,,,70,64
44160,note_on,7,0,10,,,,,,,,3,,,,58,64
44160,note_on,15,0,3,,,,,,,,1,,,,65,64
44180,note_on,20,0,9,,,,,,,,3,,,,70,0
44208,note_on,28,0,9,,,,,,,,3,,,,69,64
44228,note_on,20,0,9,,,,,,,,3,,,,69,0
44249,note_on,89,0,8,,,,,,,,3,,,,70,0
44249,note_on,89,0,4,,,,,,,,1,,,,58,0
44249,note_on,89,0,2,,,,,,,,0,,,,62,0
44249,note_on,89,0,1,,,,,,,,0,,,,70,0
44249,note_on,89,0,3,,,,,,,,1,,,,65,0
44256,note_on,28,0,9,,,,,,,,3,,,,70,64
44276,note_on,20,0,9,,,,,,,,3,,,,70,0
44304,note_on,28,0,9,,,,,,,,3,,,,65,64
44324,note_on,20,0,9,,,,,,,,3,,,,65,0
44337,note_on,177,0,11,,,,,,,,3,,,,34,0
44337,note_on,177,0,10,,,,,,,,3,,,,58,0
44352,note_on,103,0,8,,,,,,,,3,,,,70,49
44352,note_on,28,0,9,,,,,,,,3,,,,62,49
44372,note_on,20,0,9,,,,,,,,3,,,,62,0
44400,note_on,28,0,9,,,,,,,,3,,,,60,49
44420,note_on,20,0,9,,,,,,,,3,,,,60,0
44441,note_on,89,0,8,,,,,,,,3,,,,70,0
44448,note_on,7,0,8,,,,,,,,3,,,,70,49
44448,note_on,28,0,9,,,,,,,,3,,,,62,49
44468,note_on,20,0,9,,,,,,,,3,,,,62,0
44496,note_on,28,0,9,,,,,,,,3,,,,58,49
44516,note_on,20,0,9,,,,,,,,3,,,,58,0
44537,note_on,89,0,8,,,,,,,,3,,,,70,0
44544,note_on,295,0,1,,,,,,,,0,,,,75,49
44544,note_on,295,0,2,,,,,,,,0,,,,69,49
44544,note_on,207,0,10,,,,,,,,3,,,,65,49
44544,note_on,28,0,9,,,,,,,,3,,,,63,49
44544,note_on,7,0,8,,,,,,,,3,,,,72,49
44544,note_on,207,0,11,,,,,,,,3,,,,41,49
44564,note_on,20,0,9,,,,,,,,3,,,,63,0
44592,note_on,28,0,9,,,,,,,,3,,,,62,49
44612,note_on,20,0,9,,,,,,,,3,,,,62,0
44640,note_on,28,0,9,,,,,,,,3,,,,63,49
44660,note_on,20,0,9,,,,,,,,3,,,,63,0
44688,note_on,28,0,9,,,,,,,,3,,,,60,49
44708,note_on,20,0,9,,,,,,,,3,,,,60,0
44721,note_on,177,0,11,,,,,,,,3,,,,41,0
44721,note_on,177,0,8,,,,,,,,3,,,,72,0
44721,note_on,177,0,10,,,,,,,,3,,,,65,0
44736,note_on,15,0,8,,,,,,,,3,,,,77,49
44736,note_on,28,0,9,,,,,,,,3,,,,69,49
44756,note_on,20,0,9,,,,,,,,3,,,,69,0
44784,note_on,28,0,9,,,,,,,,3,,,,67,49
44804,note_on,20,0,9,,,,,,,,3,,,,67,0
44832,note_on,28,0,9,,,,,,,,3,,,,69,49
44852,note_on,20,0,9,,,,,,,,3,,,,69,0
44880,note_on,28,0,9,,,,,,,,3,,,,65,49
44898,note_on,354,0,1,,,,,,,,0,,,,75,0
44898,note_on,354,0,2,,,,,,,,0,,,,69,0
44900,note_on,20,0,9,,,,,,,,3,,,,65,0
44913,note_on,177,0,8,,,,,,,,3,,,,77,0
44928,note_on,30,0,2,,,,,,,,0,,,,70,49
44928,note_on,30,0,1,,,,,,,,0,,,,74,49
44928,note_on,207,0,11,,,,,,,,3,,,,34,49
44928,note_on,28,0,9,,,,,,,,3,,,,70,49
44928,note_on,15,0,8,,,,,,,,3,,,,74,49
44928,note_on,207,0,10,,,,,,,,3,,,,58,49
44973,note_on,45,0,9,,,,,,,,3,,,,70,0
44976,note_on,3,0,9,,,,,,,,3,,,,69,49
45017,note_on,89,0,8,,,,,,,,3,,,,74,0
45017,note_on,89,0,1,,,,,,,,0,,,,74,0
45017,note_on,89,0,2,,,,,,,,0,,,,70,0
45021,note_on,45,0,9,,,,,,,,3,,,,69,0
45024,note_on,3,0,9,,,,,,,,3,,,,70,49
45069,note_on,45,0,9,,,,,,,,3,,,,70,0
45072,note_on,3,0,9,,,,,,,,3,,,,65,49
45105,note_on,177,0,10,,,,,,,,3,,,,58,0
45105,note_on,177,0,11,,,,,,,,3,,,,34,0
45117,note_on,45,0,9,,,,,,,,3,,,,65,0
45120,note_on,3,0,9,,,,,,,,3,,,,62,49
45120,note_on,103,0,8,,,,,,,,3,,,,70,49
45159,note_on,39,0,8,,,,,,,,3,,,,70,0
45165,note_on,45,0,9,,,,,,,,3,,,,62,0
45168,note_on,3,0,9,,,,,,,,3,,,,60,49
45213,note_on,45,0,9,,,,,,,,3,,,,60,0
45216,note_on,3,0,9,,,,,,,,3,,,,62,49
45216,note_on,57,0,8,,,,,,,,3,,,,70,49
45255,note_on,39,0,8,,,,,,,,3,,,,70,0
45261,note_on,45,0,9,,,,,,,,3,,,,62,0
45264,note_on,3,0,9,,,,,,,,3,,,,58,49
45309,note_on,45,0,9,,,,,,,,3,,,,58,0
45312,note_on,3,0,9,,,,,,,,3,,,,70,49
45312,note_on,207,0,11,,,,,,,,3,,,,36,49
45312,note_on,295,0,2,,,,,,,,0,,,,76,49
45312,note_on,57,0,8,,,,,,,,3,,,,79,49
45312,note_on,207,0,10,,,,,,,,3,,,,60,49
45312,note_on,295,0,1,,,,,,,,0,,,,82,49
45357,note_on,45,0,9,,,,,,,,3,,,,70,0
45360,note_on,3,0,9,,,,,,,,3,,,,69,49
45405,note_on,45,0,9,,,,,,,,3,,,,69,0
45408,note_on,3,0,9,,,,,,,,3,,,,70,49
45453,note_on,45,0,9,,,,,,,,3,,,,70,0
45456,note_on,3,0,9,,,,,,,,3,,,,67,49
45489,note_on,177,0,8,,,,,,,,3,,,,79,0
45489,note_on,177,0,11,,,,,,,,3,,,,36,0
45489,note_on,177,0,10,,,,,,,,3,,,,60,0
45501,note_on,45,0,9,,,,,,,,3,,,,67,0
45504,note_on,3,0,9,,,,,,,,3,,,,63,49
45504,note_on,15,0,8,,,,,,,,3,,,,84,49
45549,note_on,45,0,9,,,,,,,,3,,,,63,0
45552,note_on,3,0,9,,,,,,,,3,,,,62,49
45597,note_on,45,0,9,,,,,,,,3,,,,62,0
45600,note_on,3,0,9,,,,,,,,3,,,,63,49
45645,note_on,45,0,9,,,,,,,,3,,,,63,0
45648,note_on,3,0,9,,,,,,,,3,,,,60,49
45666,note_on,354,0,1,,,,,,,,0,,,,82,0
45666,note_on,354,0,2,,,,,,,,0,,,,76,0
45681,note_on,177,0,8,,,,,,,,3,,,,84,0
45693,note_on,45,0,9,,,,,,,,3,,,,60,0
45696,note_on,3,0,9,,,,,,,,3,,,,65,49
45696,note_on,15,0,8,,,,,,,,3,,,,81,49
45696,note_on,30,0,2,,,,,,,,0,,,,77,49
45696,note_on,207,0,10,,,,,,,,3,,,,53,49
45696,note_on,207,0,11,,,,,,,,3,,,,41,49
45696,note_on,30,0,1,,,,,,,,0,,,,81,49
45741,note_on,45,0,9,,,,,,,,3,,,,65,0
45744,note_on,3,0,9,,,,,,,,3,,,,63,49
45785,note_on,89,0,1,,,,,,,,0,,,,81,0
45785,note_on,89,0,2,,,,,,,,0,,,,77,0
45785,note_on,89,0,8,,,,,,,,3,,,,81,0
45789,note_on,45,0,9,,,,,,,,3,,,,63,0
45792,note_on,3,0,9,,,,,,,,3,,,,65,49
45837,note_on,45,0,9,,,,,,,,3,,,,65,0
45840,note_on,3,0,9,,,,,,,,3,,,,57,49
45873,note_on,177,0,10,,,,,,,,3,,,,53,0
45873,note_on,177,0,11,,,,,,,,3,,,,41,0
45885,note_on,45,0,9,,,,,,,,3,,,,57,0
45888,note_on,1639,0,4,,,,,,,,1,,,,70,64
45888,note_on,1639,0,3,,,,,,,,1,,,,70,64
45888,note_on,15,0,11,,,,,,,,3,,,,50,64
45888,note_on,15,0,10,,,,,,,,3,,,,62,64
45888,note_on,103,0,1,,,,,,,,0,,,,82,64
45888,note_on,103,0,8,,,,,,,,3,,,,70,64
45888,note_on,3,0,9,,,,,,,,3,,,,58,64
45888,note_on,103,0,2,,,,,,,,0,,,,70,64
45908,note_on,20,0,11,,,,,,,,3,,,,50,0
45908,note_on,20,0,10,,,,,,,,3,,,,62,0
45927,note_on,39,0,8,,,,,,,,3,,,,70,0
45927,note_on,39,0,1,,,,,,,,0,,,,82,0
45927,note_on,39,0,4,,,,,,,,1,,,,70,0
45927,note_on,39,0,2,,,,,,,,0,,,,70,0
45927,note_on,39,0,9,,,,,,,,3,,,,58,0
45927,note_on,39,0,3,,,,,,,,1,,,,70,0
45936,note_on,28,0,11,,,,,,,,3,,,,48,64
45936,note_on,28,0,10,,,,,,,,3,,,,60,64
45956,note_on,20,0,11,,,,,,,,3,,,,48,0
45956,note_on,20,0,10,,,,,,,,3,,,,60,0
45984,note_on,28,0,11,,,,,,,,3,,,,50,64
45984,note_on,57,0,3,,,,,,,,1,,,,70,64
45984,note_on,28,0,10,,,,,,,,3,,,,62,64
45984,note_on,57,0,2,,,,,,,,0,,,,70,64
45984,note_on,57,0,1,,,,,,,,0,,,,82,64
45984,note_on,57,0,9,,,,,,,,3,,,,58,64
45984,note_on,57,0,8,,,,,,,,3,,,,70,64
45984,note_on,57,0,4,,,,,,,,1,,,,70,64
46004,note_on,20,0,11,,,,,,,,3,,,,50,0
46004,note_on,20,0,10,,,,,,,,3,,,,62,0
46023,note_on,39,0,2,,,,,,,,0,,,,70,0
46023,note_on,39,0,3,,,,,,,,1,,,,70,0
46023,note_on,39,0,4,,,,,,,,1,,,,70,0
46023,note_on,39,0,8,,,,,,,,3,,,,70,0
46023,note_on,39,0,1,,,,,,,,0,,,,82,0
46032,note_on,28,0,11,,,,,,,,3,,,,46,64
46032,note_on,28,0,10,,,,,,,,3,,,,58,64
46052,note_on,20,0,10,,,,,,,,3,,,,58,0
46052,note_on,20,0,11,,,,,,,,3,,,,46,0
46073,note_on,89,0,9,,,,,,,,3,,,,58,0
46080,note_on,57,0,8,,,,,,,,3,,,,72,64
46080,note_on,57,0,3,,,,,,,,1,,,,75,64
46080,note_on,7,0,9,,,,,,,,3,,,,60,64
46080,note_on,28,0,10,,,,,,,,3,,,,63,64
46080,note_on,57,0,4,,,,,,,,1,,,,75,64
46080,note_on,28,0,11,,,,,,,,3,,,,51,64
46080,note_on,57,0,2,,,,,,,,0,,,,72,64
46080,note_on,57,0,1,,,,,,,,0,,,,84,64
46100,note_on,20,0,10,,,,,,,,3,,,,63,0
46100,note_on,20,0,11,,,,,,,,3,,,,51,0
46128,note_on,28,0,11,,,,,,,,3,,,,50,64
46128,note_on,28,0,10,,,,,,,,3,,,,62,64
46148,note_on,20,0,10,,,,,,,,3,,,,62,0
46148,note_on,20,0,11,,,,,,,,3,,,,50,0
46169,note_on,89,0,4,,,,,,,,1,,,,75,0
46169,note_on,89,0,3,,,,,,,,1,,,,75,0
46176,note_on,28,0,11,,,,,,,,3,,,,51,64
46176,note_on,7,0,4,,,,,,,,1,,,,72,64
46176,note_on,7,0,3,,,,,,,,1,,,,72,64
46176,note_on,28,0,10,,,,,,,,3,,,,63,64
46196,note_on,20,0,11,,,,,,,,3,,,,51,0
46196,note_on,20,0,10,,,,,,,,3,,,,63,0
46224,note_on,28,0,11,,,,,,,,3,,,,48,64
46224,note_on,28,0,10,,,,,,,,3,,,,60,64
46244,note_on,20,0,10,,,,,,,,3,,,,60,0
46244,note_on,20,0,11,,,,,,,,3,,,,48,0
46257,note_on,177,0,2,,,,,,,,0,,,,72,0
46257,note_on,177,0,8,,,,,,,,3,,,,72,0
46257,note_on,177,0,9,,,,,,,,3,,,,60,0
46265,note_on,89,0,4,,,,,,,,1,,,,72,0
46265,note_on,89,0,3,,,,,,,,1,,,,72,0
46272,note_on,7,0,4,,,,,,,,1,,,,65,64
46272,note_on,28,0,11,,,,,,,,3,,,,45,64
46272,note_on,15,0,9,,,,,,,,3,,,,65,64
46272,note_on,28,0,10,,,,,,,,3,,,,57,64
46272,note_on,15,0,8,,,,,,,,3,,,,77,64
46272,note_on,15,0,2,,,,,,,,0,,,,77,64
46272,note_on,7,0,3,,,,,,,,1,,,,65,64
46292,note_on,20,0,10,,,,,,,,3,,,,57,0
46292,note_on,20,0,11,,,,,,,,3,,,,45,0
46320,note_on,28,0,10,,,,,,,,3,,,,55,64
46320,note_on,28,0,11,,,,,,,,3,,,,43,64
46340,note_on,20,0,10,,,,,,,,3,,,,55,0
46340,note_on,20,0,11,,,,,,,,3,,,,43,0
46368,note_on,28,0,10,,,,,,,,3,,,,57,64
46368,note_on,28,0,11,,,,,,,,3,,,,45,64
46388,note_on,20,0,10,,,,,,,,3,,,,57,0
46388,note_on,20,0,11,,,,,,,,3,,,,45,0
46416,note_on,28,0,11,,,,,,,,3,,,,41,64
46416,note_on,28,0,10,,,,,,,,3,,,,53,64
46434,note_on,354,0,1,,,,,,,,0,,,,84,0
46436,note_on,20,0,10,,,,,,,,3,,,,53,0
46436,note_on,20,0,11,,,,,,,,3,,,,41,0
46449,note_on,177,0,8,,,,,,,,3,,,,77,0
46449,note_on,177,0,9,,,,,,,,3,,,,65,0
46449,note_on,177,0,3,,,,,,,,1,,,,65,0
46449,note_on,177,0,2,,,,,,,,0,,,,77,0
46449,note_on,177,0,4,,,,,,,,1,,,,65,0
46464,note_on,15,0,3,,,,,,,,1,,,,70,64
46464,note_on,15,0,9,,,,,,,,3,,,,62,64
46464,note_on,15,0,2,,,,,,,,0,,,,82,64
46464,note_on,28,0,10,,,,,,,,3,,,,58,64
46464,note_on,15,0,8,,,,,,,,3,,,,74,64
46464,note_on,30,0,1,,,,,,,,0,,,,86,64
46464,note_on,28,0,11,,,,,,,,3,,,,46,64
46464,note_on,15,0,4,,,,,,,,1,,,,62,64
46484,note_on,20,0,10,,,,,,,,3,,,,58,0
46484,note_on,20,0,11,,,,,,,,3,,,,46,0
46512,note_on,28,0,11,,,,,,,,3,,,,45,64
46512,note_on,28,0,10,,,,,,,,3,,,,57,64
46532,note_on,20,0,11,,,,,,,,3,,,,45,0
46532,note_on,20,0,10,,,,,,,,3,,,,57,0
46560,note_on,28,0,11,,,,,,,,3,,,,46,64
46560,note_on,28,0,10,,,,,,,,3,,,,58,64
46580,note_on,20,0,10,,,,,,,,3,,,,58,0
46580,note_on,20,0,11,,,,,,,,3,,,,46,0
46608,note_on,28,0,10,,,,,,,,3,,,,66,64
46608,note_on,28,0,11,,,,,,,,3,,,,42,64
46628,note_on,20,0,10,,,,,,,,3,,,,66,0
46628,note_on,20,0,11,,,,,,,,3,,,,42,0
46641,note_on,177,0,4,,,,,,,,1,,,,62,0
46641,note_on,177,0,8,,,,,,,,3,,,,74,0
46641,note_on,177,0,3,,,,,,,,1,,,,70,0
46641,note_on,177,0,9,,,,,,,,3,,,,62,0
46656,note_on,15,0,9,,,,,,,,3,,,,70,64
46656,note_on,28,0,11,,,,,,,,3,,,,43,64
46656,note_on,15,0,8,,,,,,,,3,,,,82,64
46656,note_on,28,0,10,,,,,,,,3,,,,67,64
46656,note_on,15,0,4,,,,,,,,1,,,,70,64
46656,note_on,15,0,3,,,,,,,,1,,,,74,64
46676,note_on,20,0,10,,,,,,,,3,,,,67,0
46676,note_on,20,0,11,,,,,,,,3,,,,43,0
46704,note_on,28,0,10,,,,,,,,3,,,,66,64
46704,note_on,28,0,11,,,,,,,,3,,,,42,64
46724,note_on,20,0,11,,,,,,,,3,,,,42,0
46724,note_on,20,0,10,,,,,,,,3,,,,66,0
46752,note_on,28,0,10,,,,,,,,3,,,,67,64
46752,note_on,28,0,11,,,,,,,,3,,,,43,64
46772,note_on,20,0,10,,,,,,,,3,,,,67,0
46772,note_on,20,0,11,,,,,,,,3,,,,43,0
46800,note_on,28,0,11,,,,,,,,3,,,,50,64
46800,note_on,28,0,10,,,,,,,,3,,,,62,64
46818,note_on,354,0,1,,,,,,,,0,,,,86,0
46818,note_on,354,0,2,,,,,,,,0,,,,82,0
46820,note_on,20,0,10,,,,,,,,3,,,,62,0
46820,note_on,20,0,11,,,,,,,,3,,,,50,0
46833,note_on,177,0,9,,,,,,,,3,,,,70,0
46833,note_on,177,0,8,,,,,,,,3,,,,82,0
46833,note_on,177,0,3,,,,,,,,1,,,,74,0
46848,note_on,28,0,10,,,,,,,,3,,,,63,64
46848,note_on,15,0,9,,,,,,,,3,,,,60,64
46848,note_on,15,0,8,,,,,,,,3,,,,72,64
46848,note_on,30,0,1,,,,,,,,0,,,,84,64
46848,note_on,15,0,3,,,,,,,,1,,,,72,64
46848,note_on,30,0,2,,,,,,,,0,,,,82,64
46848,note_on,28,0,11,,,,,,,,3,,,,51,64
46868,note_on,20,0,10,,,,,,,,3,,,,63,0
46868,note_on,20,0,11,,,,,,,,3,,,,51,0
46896,note_on,28,0,11,,,,,,,,3,,,,50,64
46896,note_on,28,0,10,,,,,,,,3,,,,62,64
46916,note_on,20,0,10,,,,,,,,3,,,,62,0
46916,note_on,20,0,11,,,,,,,,3,,,,50,0
46944,note_on,28,0,11,,,,,,,,3,,,,51,64
46944,note_on,28,0,10,,,,,,,,3,,,,63,64
46964,note_on,20,0,11,,,,,,,,3,,,,51,0
46964,note_on,20,0,10,,,,,,,,3,,,,63,0
46992,note_on,28,0,10,,,,,,,,3,,,,60,64
46992,note_on,28,0,11,,,,,,,,3,,,,48,64
47012,note_on,20,0,10,,,,,,,,3,,,,60,0
47012,note_on,20,0,11,,,,,,,,3,,,,48,0
47025,note_on,177,0,2,,,,,,,,0,,,,82,0
47025,note_on,177,0,9,,,,,,,,3,,,,60,0
47025,note_on,369,0,4,,,,,,,,1,,,,70,0
47025,note_on,177,0,8,,,,,,,,3,,,,72,0
47040,note_on,28,0,10,,,,,,,,3,,,,65,64
47040,note_on,15,0,8,,,,,,,,3,,,,81,64
47040,note_on,15,0,2,,,,,,,,0,,,,81,64
47040,note_on,15,0,4,,,,,,,,1,,,,65,64
47040,note_on,15,0,9,,,,,,,,3,,,,69,64
47040,note_on,28,0,11,,,,,,,,3,,,,53,64
47060,note_on,20,0,10,,,,,,,,3,,,,65,0
47060,note_on,20,0,11,,,,,,,,3,,,,53,0
47088,note_on,28,0,10,,,,,,,,3,,,,64,64
47088,note_on,28,0,11,,,,,,,,3,,,,52,64
47108,note_on,20,0,10,,,,,,,,3,,,,64,0
47108,note_on,20,0,11,,,,,,,,3,,,,52,0
47136,note_on,28,0,10,,,,,,,,3,,,,65,64
47136,note_on,28,0,11,,,,,,,,3,,,,53,64
47156,note_on,20,0,10,,,,,,,,3,,,,65,0
47156,note_on,20,0,11,,,,,,,,3,,,,53,0
47184,note_on,28,0,11,,,,,,,,3,,,,48,64
47184,note_on,28,0,10,,,,,,,,3,,,,60,64
47202,note_on,354,0,1,,,,,,,,0,,,,84,0
47202,note_on,354,0,3,,,,,,,,1,,,,72,0
47204,note_on,20,0,11,,,,,,,,3,,,,48,0
47204,note_on,20,0,10,,,,,,,,3,,,,60,0
47217,note_on,177,0,4,,,,,,,,1,,,,65,0
47217,note_on,177,0,8,,,,,,,,3,,,,81,0
47217,note_on,177,0,9,,,,,,,,3,,,,69,0
47232,note_on,15,0,8,,,,,,,,3,,,,70,64
47232,note_on,28,0,11,,,,,,,,3,,,,50,64
47232,note_on,15,0,4,,,,,,,,1,,,,58,64
47232,note_on,15,0,9,,,,,,,,3,,,,58,64
47232,note_on,30,0,3,,,,,,,,1,,,,70,64
47232,note_on,30,0,1,,,,,,,,0,,,,82,64
47232,note_on,28,0,10,,,,,,,,3,,,,62,64
47252,note_on,20,0,10,,,,,,,,3,,,,62,0
47252,note_on,20,0,11,,,,,,,,3,,,,50,0
47280,note_on,28,0,11,,,,,,,,3,,,,48,64
47280,note_on,28,0,10,,,,,,,,3,,,,60,64
47300,note_on,20,0,11,,,,,,,,3,,,,48,0
47300,note_on,20,0,10,,,,,,,,3,,,,60,0
47328,note_on,28,0,10,,,,,,,,3,,,,62,64
47328,note_on,28,0,11,,,,,,,,3,,,,50,64
47348,note_on,20,0,11,,,,,,,,3,,,,50,0
47348,note_on,20,0,10,,,,,,,,3,,,,62,0
47376,note_on,28,0,10,,,,,,,,3,,,,58,64
47376,note_on,28,0,11,,,,,,,,3,,,,46,64
47396,note_on,20,0,11,,,,,,,,3,,,,46,0
47396,note_on,20,0,10,,,,,,,,3,,,,58,0
47409,note_on,177,0,4,,,,,,,,1,,,,58,0
47409,note_on,177,0,8,,,,,,,,3,,,,70,0
47409,note_on,177,0,9,,,,,,,,3,,,,58,0
47409,note_on,177,0,3,,,,,,,,1,,,,70,0
47409,note_on,369,0,2,,,,,,,,0,,,,81,0
47424,note_on,28,0,10,,,,,,,,3,,,,63,64
47424,note_on,15,0,9,,,,,,,,3,,,,67,64
47424,note_on,15,0,3,,,,,,,,1,,,,70,64
47424,note_on,28,0,11,,,,,,,,3,,,,51,64
47424,note_on,15,0,8,,,,,,,,3,,,,79,64
47424,note_on,15,0,4,,,,,,,,1,,,,70,64
47424,note_on,15,0,2,,,,,,,,0,,,,79,64
47444,note_on,20,0,11,,,,,,,,3,,,,51,0
47444,note_on,20,0,10,,,,,,,,3,,,,63,0
47472,note_on,28,0,10,,,,,,,,3,,,,62,64
47472,note_on,28,0,11,,,,,,,,3,,,,50,64
47492,note_on,20,0,10,,,,,,,,3,,,,62,0
47492,note_on,20,0,11,,,,,,,,3,,,,50,0
47520,note_on,28,0,10,,,,,,,,3,,,,63,64
47520,note_on,28,0,11,,,,,,,,3,,,,51,64
47540,note_on,20,0,10,,,,,,,,3,,,,63,0
47540,note_on,20,0,11,,,,,,,,3,,,,51,0
47568,note_on,28,0,10,,,,,,,,3,,,,58,64
47568,note_on,28,0,11,,,,,,,,3,,,,46,64
47586,note_on,354,0,1,,,,,,,,0,,,,82,0
47588,note_on,20,0,11,,,,,,,,3,,,,46,0
47588,note_on,20,0,10,,,,,,,,3,,,,58,0
47601,note_on,177,0,3,,,,,,,,1,,,,70,0
47601,note_on,177,0,4,,,,,,,,1,,,,70,0
47601,note_on,177,0,8,,,,,,,,3,,,,79,0
47601,note_on,177,0,9,,,,,,,,3,,,,67,0
47616,note_on,15,0,4,,,,,,,,1,,,,72,64
47616,note_on,28,0,10,,,,,,,,3,,,,60,64
47616,note_on,15,0,9,,,,,,,,3,,,,57,64
47616,note_on,15,0,8,,,,,,,,3,,,,69,64
47616,note_on,30,0,1,,,,,,,,0,,,,81,64
47616,note_on,15,0,3,,,,,,,,1,,,,72,64
47616,note_on,28,0,11,,,,,,,,3,,,,48,64
47636,note_on,20,0,10,,,,,,,,3,,,,60,0
47636,note_on,20,0,11,,,,,,,,3,,,,48,0
47664,note_on,28,0,10,,,,,,,,3,,,,58,64
47664,note_on,28,0,11,,,,,,,,3,,,,46,64
47684,note_on,20,0,10,,,,,,,,3,,,,58,0
47684,note_on,20,0,11,,,,,,,,3,,,,46,0
47712,note_on,28,0,10,,,,,,,,3,,,,60,64
47712,note_on,28,0,11,,,,,,,,3,,,,48,64
47732,note_on,20,0,10,,,,,,,,3,,,,60,0
47732,note_on,20,0,11,,,,,,,,3,,,,48,0
47760,note_on,28,0,11,,,,,,,,3,,,,45,64
47760,note_on,28,0,10,,,,,,,,3,,,,57,64
47780,note_on,20,0,11,,,,,,,,3,,,,45,0
47780,note_on,20,0,10,,,,,,,,3,,,,57,0
47793,note_on,177,0,3,,,,,,,,1,,,,72,0
47793,note_on,369,0,2,,,,,,,,0,,,,79,0
47793,note_on,177,0,4,,,,,,,,1,,,,72,0
47793,note_on,177,0,9,,,,,,,,3,,,,57,0
47793,note_on,177,0,8,,,,,,,,3,,,,69,0
47808,note_on,15,0,4,,,,,,,,1,,,,62,64
47808,note_on,15,0,8,,,,,,,,3,,,,78,64
47808,note_on,28,0,11,,,,,,,,3,,,,50,64
47808,note_on,15,0,2,,,,,,,,0,,,,78,64
47808,note_on,28,0,10,,,,,,,,3,,,,62,64
47808,note_on,15,0,3,,,,,,,,1,,,,74,64
47808,note_on,15,0,9,,,,,,,,3,,,,66,64
47828,note_on,20,0,11,,,,,,,,3,,,,50,0
47828,note_on,20,0,10,,,,,,,,3,,,,62,0
47856,note_on,28,0,10,,,,,,,,3,,,,61,64
47856,note_on,28,0,11,,,,,,,,3,,,,49,64
47876,note_on,20,0,11,,,,,,,,3,,,,49,0
47876,note_on,20,0,10,,,,,,,,3,,,,61,0
47904,note_on,28,0,11,,,,,,,,3,,,,50,64
47904,note_on,28,0,10,,,,,,,,3,,,,62,64
47924,note_on,20,0,11,,,,,,,,3,,,,50,0
47924,note_on,20,0,10,,,,,,,,3,,,,62,0
47952,note_on,28,0,11,,,,,,,,3,,,,38,64
47952,note_on,28,0,10,,,,,,,,3,,,,50,64
47970,note_on,354,0,1,,,,,,,,0,,,,81,0
47972,note_on,20,0,10,,,,,,,,3,,,,50,0
47972,note_on,20,0,11,,,,,,,,3,,,,38,0
47985,note_on,177,0,2,,,,,,,,0,,,,78,0
47985,note_on,177,0,8,,,,,,,,3,,,,78,0
47985,note_on,177,0,4,,,,,,,,1,,,,62,0
47985,note_on,177,0,9,,,,,,,,3,,,,66,0
47985,note_on,177,0,3,,,,,,,,1,,,,74,0
48000,note_on,28,0,11,,,,,,,,3,,,,43,64
48000,note_on,6823,0,5,,,,,,,,2,,,,67,85
48000,note_on,15,0,3,,,,,,,,1,,,,70,64
48000,note_on,15,0,8,,,,,,,,3,,,,79,64
48000,note_on,15,0,4,,,,,,,,1,,,,62,64
48000,note_on,0,0,6,,,,,,,,2,,,,43,85
48000,note_on,6727,0,6,,,,,,,,2,,,,55,85
48000,note_on,15,0,2,,,,,,,,0,,,,79,64
48000,note_on,30,0,1,,,,,,,,0,,,,79,64
48000,note_on,28,0,10,,,,,,,,3,,,,55,64
48000,note_on,15,0,9,,,,,,,,3,,,,67,64
48030,note_on,30,0,5,,,,,,,,2,,,,67,0
48032,note_on,2,0,5,,,,,,,,2,,,,70,85
48062,note_on,30,0,5,,,,,,,,2,,,,70,0
48064,note_on,2,0,5,,,,,,,,2,,,,69,85
48089,note_on,89,0,8,,,,,,,,3,,,,79,0
48089,note_on,89,0,11,,,,,,,,3,,,,43,0
48089,note_on,89,0,2,,,,,,,,0,,,,79,0
48089,note_on,89,0,9,,,,,,,,3,,,,67,0
48089,note_on,89,0,10,,,,,,,,3,,,,55,0
48089,note_on,89,0,3,,,,,,,,1,,,,70,0
48089,note_on,89,0,6,,,,,,,,2,,,,43,0
48089,note_on,0,0,6,,,,,,,,2,,,,55,0
48089,note_on,89,0,1,,,,,,,,0,,,,79,0
48089,note_on,89,0,4,,,,,,,,1,,,,62,0
48094,note_on,30,0,5,,,,,,,,2,,,,69,0
48096,note_on,2,0,5,,,,,,,,2,,,,70,85
48126,note_on,30,0,5,,,,,,,,2,,,,70,0
48128,note_on,2,0,5,,,,,,,,2,,,,74,85
48158,note_on,30,0,5,,,,,,,,2,,,,74,0
48160,note_on,2,0,5,,,,,,,,2,,,,73,85
48190,note_on,30,0,5,,,,,,,,2,,,,73,0
48192,note_on,103,0,6,,,,,,,,2,,,,58,85
48192,note_on,0,0,6,,,,,,,,2,,,,55,85
48192,note_on,2,0,5,,,,,,,,2,,,,74,85
48222,note_on,30,0,5,,,,,,,,2,,,,74,0
48224,note_on,2,0,5,,,,,,,,2,,,,79,85
48254,note_on,30,0,5,,,,,,,,2,,,,79,0
48256,note_on,2,0,5,,,,,,,,2,,,,78,85
48281,note_on,0,0,6,,,,,,,,2,,,,58,0
48281,note_on,89,0,6,,,,,,,,2,,,,55,0
48286,note_on,30,0,5,,,,,,,,2,,,,78,0
48288,note_on,2,0,5,,,,,,,,2,,,,79,85
48318,note_on,30,0,5,,,,,,,,2,,,,79,0
48320,note_on,2,0,5,,,,,,,,2,,,,82,85
48350,note_on,30,0,5,,,,,,,,2,,,,82,0
48352,note_on,2,0,5,,,,,,,,2,,,,79,85
48382,note_on,30,0,5,,,,,,,,2,,,,79,0
48384,note_on,295,0,2,,,,,,,,0,,,,62,64
48384,note_on,2,0,5,,,,,,,,2,,,,74,85
48384,note_on,0,0,6,,,,,,,,2,,,,54,85
48384,note_on,295,0,3,,,,,,,,1,,,,62,64
48384,note_on,295,0,9,,,,,,,,3,,,,57,64
48384,note_on,103,0,6,,,,,,,,2,,,,57,85
48384,note_on,295,0,8,,,,,,,,3,,,,62,64
48384,note_on,295,0,10,,,,,,,,3,,,,54,64
48384,note_on,295,0,1,,,,,,,,0,,,,86,34
48384,note_on,295,0,11,,,,,,,,3,,,,42,64
48384,note_on,295,0,4,,,,,,,,1,,,,62,64
48407,note_on,23,0,5,,,,,,,,2,,,,74,0
48408,note_on,1,0,5,,,,,,,,2,,,,86,85
48431,note_on,23,0,5,,,,,,,,2,,,,86,0
48432,note_on,1,0,5,,,,,,,,2,,,,74,85
48455,note_on,23,0,5,,,,,,,,2,,,,74,0
48456,note_on,1,0,5,,,,,,,,2,,,,86,85
48473,note_on,0,0,6,,,,,,,,2,,,,57,0
48473,note_on,89,0,2,,,,,,,,0,,,,62,0
48473,note_on,89,0,3,,,,,,,,1,,,,62,0
48473,note_on,89,0,10,,,,,,,,3,,,,54,0
48473,note_on,89,0,11,,,,,,,,3,,,,42,0
48473,note_on,89,0,6,,,,,,,,2,,,,54,0
48473,note_on,89,0,4,,,,,,,,1,,,,62,0
48473,note_on,89,0,8,,,,,,,,3,,,,62,0
48473,note_on,89,0,9,,,,,,,,3,,,,57,0
48479,note_on,23,0,5,,,,,,,,2,,,,86,0
48480,note_on,1,0,5,,,,,,,,2,,,,74,85
48525,note_on,45,0,5,,,,,,,,2,,,,74,0
48576,note_on,51,0,5,,,,,,,,2,,,,74,85
48576,note_on,103,0,3,,,,,,,,1,,,,62,64
48576,note_on,103,0,10,,,,,,,,3,,,,54,64
48576,note_on,103,0,2,,,,,,,,0,,,,62,64
48576,note_on,103,0,9,,,,,,,,3,,,,57,64
48576,note_on,103,0,6,,,,,,,,2,,,,57,85
48576,note_on,0,0,6,,,,,,,,2,,,,54,85
48576,note_on,103,0,11,,,,,,,,3,,,,42,64
48576,note_on,103,0,4,,,,,,,,1,,,,62,64
48576,note_on,103,0,8,,,,,,,,3,,,,62,64
48599,note_on,23,0,5,,,,,,,,2,,,,74,0
48600,note_on,1,0,5,,,,,,,,2,,,,86,85
48623,note_on,23,0,5,,,,,,,,2,,,,86,0
48624,note_on,1,0,5,,,,,,,,2,,,,74,85
48647,note_on,23,0,5,,,,,,,,2,,,,74,0
48648,note_on,1,0,5,,,,,,,,2,,,,86,85
48665,note_on,0,0,6,,,,,,,,2,,,,57,0
48665,note_on,89,0,6,,,,,,,,2,,,,54,0
48665,note_on,89,0,9,,,,,,,,3,,,,57,0
48665,note_on,89,0,10,,,,,,,,3,,,,54,0
48665,note_on,89,0,4,,,,,,,,1,,,,62,0
48665,note_on,89,0,3,,,,,,,,1,,,,62,0
48665,note_on,89,0,11,,,,,,,,3,,,,42,0
48665,note_on,89,0,8,,,,,,,,3,,,,62,0
48665,note_on,89,0,2,,,,,,,,0,,,,62,0
48671,note_on,23,0,5,,,,,,,,2,,,,86,0
48672,note_on,1,0,5,,,,,,,,2,,,,74,85
48717,note_on,45,0,5,,,,,,,,2,,,,74,0
48738,note_on,354,0,1,,,,,,,,0,,,,86,0
48768,note_on,0,0,6,,,,,,,,2,,,,55,85
48768,note_on,103,0,6,,,,,,,,2,,,,58,85
48768,note_on,51,0,5,,,,,,,,2,,,,67,85
48768,note_on,103,0,9,,,,,,,,3,,,,58,49
48768,note_on,103,0,8,,,,,,,,3,,,,62,49
48768,note_on,103,0,11,,,,,,,,3,,,,43,49
48768,note_on,103,0,10,,,,,,,,3,,,,55,49
48798,note_on,30,0,5,,,,,,,,2,,,,67,0
48800,note_on,2,0,5,,,,,,,,2,,,,70,85
48830,note_on,30,0,5,,,,,,,,2,,,,70,0
48832,note_on,2,0,5,,,,,,,,2,,,,69,85
48857,note_on,89,0,6,,,,,,,,2,,,,55,0
48857,note_on,0,0,6,,,,,,,,2,,,,58,0
48857,note_on,89,0,9,,,,,,,,3,,,,58,0
48857,note_on,89,0,8,,,,,,,,3,,,,62,0
48857,note_on,89,0,11,,,,,,,,3,,,,43,0
48857,note_on,89,0,10,,,,,,,,3,,,,55,0
48862,note_on,30,0,5,,,,,,,,2,,,,69,0
48864,note_on,2,0,5,,,,,,,,2,,,,70,85
48894,note_on,30,0,5,,,,,,,,2,,,,70,0
48896,note_on,2,0,5,,,,,,,,2,,,,74,85
48926,note_on,30,0,5,,,,,,,,2,,,,74,0
48928,note_on,2,0,5,,,,,,,,2,,,,73,85
48958,note_on,30,0,5,,,,,,,,2,,,,73,0
48960,note_on,2,0,5,,,,,,,,2,,,,74,85
48960,note_on,103,0,6,,,,,,,,2,,,,58,85
48960,note_on,0,0,6,,,,,,,,2,,,,55,85
48990,note_on,30,0,5,,,,,,,,2,,,,74,0
48992,note_on,2,0,5,,,,,,,,2,,,,79,85
49022,note_on,30,0,5,,,,,,,,2,,,,79,0
49024,note_on,2,0,5,,,,,,,,2,,,,78,85
49049,note_on,0,0,6,,,,,,,,2,,,,58,0
49049,note_on,89,0,6,,,,,,,,2,,,,55,0
49054,note_on,30,0,5,,,,,,,,2,,,,78,0
49056,note_on,2,0,5,,,,,,,,2,,,,79,85
49086,note_on,30,0,5,,,,,,,,2,,,,79,0
49088,note_on,2,0,5,,,,,,,,2,,,,82,85
49118,note_on,30,0,5,,,,,,,,2,,,,82,0
49120,note_on,2,0,5,,,,,,,,2,,,,79,85
49150,note_on,30,0,5,,,,,,,,2,,,,79,0
49152,note_on,487,0,2,,,,,,,,0,,,,62,64
49152,note_on,2,0,5,,,,,,,,2,,,,74,85
49152,note_on,414,0,1,,,,,,,,0,,,,86,34
49152,note_on,295,0,8,,,,,,,,3,,,,62,64
49152,note_on,295,0,11,,,,,,,,3,,,,38,64
49152,note_on,487,0,3,,,,,,,,1,,,,62,64
49152,note_on,295,0,10,,,,,,,,3,,,,54,64
49152,note_on,0,0,6,,,,,,,,2,,,,54,85
49152,note_on,295,0,9,,,,,,,,3,,,,57,64
49152,note_on,103,0,6,,,,,,,,2,,,,57,85
49152,note_on,487,0,4,,,,,,,,1,,,,62,64
49152,note_on,0,0,6,,,,,,,,2,,,,50,85
49175,note_on,23,0,5,,,,,,,,2,,,,74,0
49176,note_on,1,0,5,,,,,,,,2,,,,86,85
49199,note_on,23,0,5,,,,,,,,2,,,,86,0
49200,note_on,1,0,5,,,,,,,,2,,,,74,85
49223,note_on,23,0,5,,,,,,,,2,,,,74,0
49224,note_on,1,0,5,,,,,,,,2,,,,86,85
49241,note_on,89,0,9,,,,,,,,3,,,,57,0
49241,note_on,0,0,6,,,,,,,,2,,,,54,0
49241,note_on,89,0,3,,,,,,,,1,,,,62,0
49241,note_on,0,0,6,,,,,,,,2,,,,57,0
49241,note_on,89,0,11,,,,,,,,3,,,,38,0
49241,note_on,89,0,4,,,,,,,,1,,,,62,0
49241,note_on,89,0,2,,,,,,,,0,,,,62,0
49241,note_on,89,0,10,,,,,,,,3,,,,54,0
49241,note_on,89,0,8,,,,,,,,3,,,,62,0
49241,note_on,89,0,6,,,,,,,,2,,,,50,0
49247,note_on,23,0,5,,,,,,,,2,,,,86,0
49248,note_on,1,0,5,,,,,,,,2,,,,74,85
49293,note_on,45,0,5,,,,,,,,2,,,,74,0
49344,note_on,0,0,6,,,,,,,,2,,,,54,85
49344,note_on,103,0,6,,,,,,,,2,,,,57,85
49344,note_on,0,0,6,,,,,,,,2,,,,50,85
49344,note_on,103,0,10,,,,,,,,3,,,,54,64
49344,note_on,103,0,8,,,,,,,,3,,,,62,64
49344,note_on,103,0,3,,,,,,,,1,,,,62,64
49344,note_on,51,0,5,,,,,,,,2,,,,74,85
49344,note_on,103,0,11,,,,,,,,3,,,,38,64
49344,note_on,103,0,4,,,,,,,,1,,,,62,64
49344,note_on,103,0,2,,,,,,,,0,,,,62,64
49344,note_on,103,0,9,,,,,,,,3,,,,57,64
49367,note_on,23,0,5,,,,,,,,2,,,,74,0
49368,note_on,1,0,5,,,,,,,,2,,,,86,85
49391,note_on,23,0,5,,,,,,,,2,,,,86,0
49392,note_on,1,0,5,,,,,,,,2,,,,74,85
49415,note_on,23,0,5,,,,,,,,2,,,,74,0
49416,note_on,1,0,5,,,,,,,,2,,,,86,85
49433,note_on,89,0,9,,,,,,,,3,,,,57,0
49433,note_on,89,0,4,,,,,,,,1,,,,62,0
49433,note_on,89,0,10,,,,,,,,3,,,,54,0
49433,note_on,89,0,2,,,,,,,,0,,,,62,0
49433,note_on,89,0,11,,,,,,,,3,,,,38,0
49433,note_on,89,0,6,,,,,,,,2,,,,50,0
49433,note_on,0,0,6,,,,,,,,2,,,,54,0
49433,note_on,89,0,3,,,,,,,,1,,,,62,0
49433,note_on,89,0,8,,,,,,,,3,,,,62,0
49433,note_on,0,0,6,,,,,,,,2,,,,57,0
49439,note_on,23,0,5,,,,,,,,2,,,,86,0
49440,note_on,1,0,5,,,,,,,,2,,,,74,85
49485,note_on,45,0,5,,,,,,,,2,,,,74,0
49506,note_on,354,0,1,,,,,,,,0,,,,86,0
49536,note_on,51,0,5,,,,,,,,2,,,,79,85
49536,note_on,103,0,10,,,,,,,,3,,,,58,49
49536,note_on,103,0,6,,,,,,,,2,,,,58,85
49566,note_on,30,0,6,,,,,,,,2,,,,58,0
49568,note_on,2,0,6,,,,,,,,2,,,,62,85
49598,note_on,30,0,6,,,,,,,,2,,,,62,0
49600,note_on,2,0,6,,,,,,,,2,,,,67,85
49625,note_on,89,0,5,,,,,,,,2,,,,79,0
49630,note_on,30,0,6,,,,,,,,2,,,,67,0
49632,note_on,7,0,5,,,,,,,,2,,,,82,85
49632,note_on,199,0,8,,,,,,,,3,,,,67,49
49632,note_on,2,0,6,,,,,,,,2,,,,58,85
49632,note_on,199,0,9,,,,,,,,3,,,,62,49
49662,note_on,30,0,6,,,,,,,,2,,,,58,0
49664,note_on,2,0,6,,,,,,,,2,,,,62,85
49671,note_on,39,0,9,,,,,,,,3,,,,62,0
49671,note_on,39,0,8,,,,,,,,3,,,,67,0
49694,note_on,30,0,6,,,,,,,,2,,,,62,0
49696,note_on,2,0,6,,,,,,,,2,,,,67,85
49699,note_on,67,0,5,,,,,,,,2,,,,82,0
49704,note_on,5,0,5,,,,,,,,2,,,,81,85
49726,note_on,30,0,6,,,,,,,,2,,,,67,0
49727,note_on,23,0,5,,,,,,,,2,,,,81,0
49728,note_on,57,0,8,,,,,,,,3,,,,70,49
49728,note_on,1,0,5,,,,,,,,2,,,,79,85
49728,note_on,2,0,6,,,,,,,,2,,,,58,85
49728,note_on,57,0,9,,,,,,,,3,,,,67,49
49758,note_on,30,0,6,,,,,,,,2,,,,58,0
49760,note_on,2,0,6,,,,,,,,2,,,,62,85
49790,note_on,30,0,6,,,,,,,,2,,,,62,0
49792,note_on,2,0,6,,,,,,,,2,,,,67,85
49817,note_on,89,0,9,,,,,,,,3,,,,67,0
49817,note_on,89,0,5,,,,,,,,2,,,,79,0
49817,note_on,89,0,8,,,,,,,,3,,,,70,0
49822,note_on,30,0,6,,,,,,,,2,,,,67,0
49824,note_on,2,0,6,,,,,,,,2,,,,58,85
49824,note_on,7,0,8,,,,,,,,3,,,,74,49
49824,note_on,7,0,9,,,,,,,,3,,,,70,49
49824,note_on,7,0,5,,,,,,,,2,,,,79,85
49854,note_on,30,0,6,,,,,,,,2,,,,58,0
49856,note_on,2,0,6,,,,,,,,2,,,,62,85
49886,note_on,30,0,6,,,,,,,,2,,,,62,0
49888,note_on,2,0,6,,,,,,,,2,,,,67,85
49890,note_on,354,0,10,,,,,,,,3,,,,58,0
49913,note_on,89,0,8,,,,,,,,3,,,,74,0
49913,note_on,89,0,9,,,,,,,,3,,,,70,0
49913,note_on,89,0,5,,,,,,,,2,,,,79,0
49918,note_on,30,0,6,,,,,,,,2,,,,67,0
49920,note_on,2,0,6,,,,,,,,2,,,,60,85
49920,note_on,7,0,5,,,,,,,,2,,,,79,85
49920,note_on,30,0,10,,,,,,,,3,,,,60,49
49950,note_on,30,0,6,,,,,,,,2,,,,60,0
49952,note_on,2,0,6,,,,,,,,2,,,,63,85
49982,note_on,30,0,6,,,,,,,,2,,,,63,0
49984,note_on,2,0,6,,,,,,,,2,,,,67,85
50014,note_on,30,0,6,,,,,,,,2,,,,67,0
50016,note_on,103,0,9,,,,,,,,3,,,,63,49
50016,note_on,103,0,8,,,,,,,,3,,,,72,49
50016,note_on,2,0,6,,,,,,,,2,,,,60,85
50046,note_on,30,0,6,,,,,,,,2,,,,60,0
50048,note_on,2,0,6,,,,,,,,2,,,,63,85
50055,note_on,39,0,9,,,,,,,,3,,,,63,0
50055,note_on,39,0,8,,,,,,,,3,,,,72,0
50078,note_on,30,0,6,,,,,,,,2,,,,63,0
50080,note_on,2,0,6,,,,,,,,2,,,,67,85
50097,note_on,177,0,10,,,,,,,,3,,,,60,0
50097,note_on,177,0,5,,,,,,,,2,,,,79,0
50110,note_on,30,0,6,,,,,,,,2,,,,67,0
50112,note_on,15,0,10,,,,,,,,3,,,,48,49
50112,note_on,57,0,9,,,,,,,,3,,,,75,49
50112,note_on,15,0,5,,,,,,,,2,,,,75,85
50112,note_on,57,0,8,,,,,,,,3,,,,79,49
50112,note_on,2,0,6,,,,,,,,2,,,,60,85
50142,note_on,30,0,6,,,,,,,,2,,,,60,0
50144,note_on,2,0,6,,,,,,,,2,,,,63,85
50174,note_on,30,0,6,,,,,,,,2,,,,63,0
50176,note_on,2,0,6,,,,,,,,2,,,,67,85
50201,note_on,89,0,9,,,,,,,,3,,,,75,0
50201,note_on,89,0,5,,,,,,,,2,,,,75,0
50201,note_on,89,0,8,,,,,,,,3,,,,79,0
50206,note_on,30,0,6,,,,,,,,2,,,,67,0
50208,note_on,2,0,6,,,,,,,,2,,,,60,85
50208,note_on,7,0,9,,,,,,,,3,,,,72,49
50208,note_on,7,0,8,,,,,,,,3,,,,75,49
50238,note_on,30,0,6,,,,,,,,2,,,,60,0
50240,note_on,2,0,6,,,,,,,,2,,,,63,85
50270,note_on,30,0,6,,,,,,,,2,,,,63,0
50272,note_on,2,0,6,,,,,,,,2,,,,67,85
50289,note_on,177,0,10,,,,,,,,3,,,,48,0
50297,note_on,89,0,9,,,,,,,,3,,,,72,0
50297,note_on,89,0,8,,,,,,,,3,,,,75,0
50302,note_on,30,0,6,,,,,,,,2,,,,67,0
50304,note_on,103,0,5,,,,,,,,2,,,,74,85
50304,note_on,15,0,10,,,,,,,,3,,,,50,49
50304,note_on,2,0,6,,,,,,,,2,,,,50,85
50334,note_on,30,0,6,,,,,,,,2,,,,50,0
50336,note_on,2,0,6,,,,,,,,2,,,,55,85
50366,note_on,30,0,6,,,,,,,,2,,,,55,0
50368,note_on,2,0,6,,,,,,,,2,,,,58,85
50398,note_on,30,0,6,,,,,,,,2,,,,58,0
50400,note_on,103,0,8,,,,,,,,3,,,,70,49
50400,note_on,103,0,9,,,,,,,,3,,,,67,49
50400,note_on,2,0,6,,,,,,,,2,,,,50,85
50430,note_on,30,0,6,,,,,,,,2,,,,50,0
50432,note_on,2,0,6,,,,,,,,2,,,,55,85
50439,note_on,39,0,8,,,,,,,,3,,,,70,0
50439,note_on,39,0,9,,,,,,,,3,,,,67,0
50462,note_on,30,0,6,,,,,,,,2,,,,55,0
50464,note_on,2,0,6,,,,,,,,2,,,,58,85
50481,note_on,177,0,5,,,,,,,,2,,,,74,0
50494,note_on,30,0,6,,,,,,,,2,,,,58,0
50496,note_on,2,0,6,,,,,,,,2,,,,50,85
50496,note_on,57,0,9,,,,,,,,3,,,,66,49
50496,note_on,57,0,8,,,,,,,,3,,,,74,49
50496,note_on,15,0,5,,,,,,,,2,,,,66,85
50526,note_on,30,0,6,,,,,,,,2,,,,50,0
50528,note_on,2,0,6,,,,,,,,2,,,,57,85
50558,note_on,30,0,6,,,,,,,,2,,,,57,0
50560,note_on,2,0,6,,,,,,,,2,,,,60,85
50585,note_on,89,0,8,,,,,,,,3,,,,74,0
50585,note_on,89,0,9,,,,,,,,3,,,,66,0
50585,note_on,89,0,5,,,,,,,,2,,,,66,0
50590,note_on,30,0,6,,,,,,,,2,,,,60,0
50592,note_on,7,0,9,,,,,,,,3,,,,57,49
50592,note_on,7,0,8,,,,,,,,3,,,,66,49
50592,note_on,2,0,6,,,,,,,,2,,,,50,85
50622,note_on,30,0,6,,,,,,,,2,,,,50,0
50624,note_on,2,0,6,,,,,,,,2,,,,57,85
50654,note_on,30,0,6,,,,,,,,2,,,,57,0
50656,note_on,2,0,6,,,,,,,,2,,,,60,85
50658,note_on,354,0,10,,,,,,,,3,,,,50,0
50681,note_on,89,0,9,,,,,,,,3,,,,57,0
50681,note_on,89,0,8,,,,,,,,3,,,,66,0
50686,note_on,30,0,6,,,,,,,,2,,,,60,0
50688,note_on,2,0,6,,,,,,,,2,,,,55,85
50688,note_on,7,0,8,,,,,,,,3,,,,67,49
50688,note_on,30,0,10,,,,,,,,3,,,,55,49
50688,note_on,7,0,9,,,,,,,,3,,,,58,49
50718,note_on,30,0,6,,,,,,,,2,,,,55,0
50720,note_on,135,0,5,,,,,,,,2,,,,67,85
50733,note_on,45,0,8,,,,,,,,3,,,,67,0
50733,note_on,45,0,10,,,,,,,,3,,,,55,0
50733,note_on,45,0,9,,,,,,,,3,,,,58,0
50750,note_on,30,0,5,,,,,,,,2,,,,67,0
50752,note_on,2,0,5,,,,,,,,2,,,,70,85
50782,note_on,30,0,5,,,,,,,,2,,,,70,0
50784,note_on,51,0,8,,,,,,,,3,,,,62,49
50784,note_on,66,0,6,,,,,,,,2,,,,62,85
50784,note_on,51,0,10,,,,,,,,3,,,,62,49
50784,note_on,51,0,9,,,,,,,,3,,,,62,49
50804,note_on,20,0,8,,,,,,,,3,,,,62,0
50804,note_on,20,0,9,,,,,,,,3,,,,62,0
50804,note_on,20,0,10,,,,,,,,3,,,,62,0
50814,note_on,30,0,6,,,,,,,,2,,,,62,0
50816,note_on,34,0,5,,,,,,,,2,,,,62,85
50846,note_on,30,0,5,,,,,,,,2,,,,62,0
50848,note_on,2,0,5,,,,,,,,2,,,,67,85
50878,note_on,30,0,5,,,,,,,,2,,,,67,0
50880,note_on,76,0,8,,,,,,,,3,,,,58,49
50880,note_on,76,0,10,,,,,,,,3,,,,58,49
50880,note_on,76,0,9,,,,,,,,3,,,,58,49
50880,note_on,66,0,6,,,,,,,,2,,,,58,85
50900,note_on,20,0,10,,,,,,,,3,,,,58,0
50900,note_on,20,0,8,,,,,,,,3,,,,58,0
50900,note_on,20,0,9,,,,,,,,3,,,,58,0
50910,note_on,30,0,6,,,,,,,,2,,,,58,0
50912,note_on,34,0,5,,,,,,,,2,,,,58,85
50942,note_on,30,0,5,,,,,,,,2,,,,58,0
50944,note_on,2,0,5,,,,,,,,2,,,,62,85
50974,note_on,30,0,5,,,,,,,,2,,,,62,0
50976,note_on,76,0,8,,,,,,,,3,,,,55,49
50976,note_on,76,0,9,,,,,,,,3,,,,55,49
50976,note_on,76,0,10,,,,,,,,3,,,,55,49
50976,note_on,66,0,6,,,,,,,,2,,,,55,85
50996,note_on,20,0,9,,,,,,,,3,,,,55,0
50996,note_on,20,0,8,,,,,,,,3,,,,55,0
50996,note_on,20,0,10,,,,,,,,3,,,,55,0
51006,note_on,30,0,6,,,,,,,,2,,,,55,0
51008,note_on,34,0,5,,,,,,,,2,,,,55,85
51038,note_on,30,0,5,,,,,,,,2,,,,55,0
51040,note_on,2,0,5,,,,,,,,2,,,,58,85
51070,note_on,30,0,5,,,,,,,,2,,,,58,0
51072,note_on,2,0,5,,,,,,,,2,,,,67,85
51072,note_on,76,0,8,,,,,,,,3,,,,70,49
51072,note_on,66,0,6,,,,,,,,2,,,,55,85
51072,note_on,0,0,6,,,,,,,,2,,,,43,85
51072,note_on,76,0,9,,,,,,,,3,,,,62,49
51072,note_on,1639,0,11,,,,,,,,3,,,,43,49
51072,note_on,76,0,10,,,,,,,,3,,,,55,49
51102,note_on,30,0,5,,,,,,,,2,,,,67,0
51104,note_on,2,0,5,,,,,,,,2,,,,70,85
51134,note_on,30,0,5,,,,,,,,2,,,,70,0
51136,note_on,2,0,5,,,,,,,,2,,,,69,85
51161,note_on,89,0,8,,,,,,,,3,,,,70,0
51161,note_on,89,0,9,,,,,,,,3,,,,62,0
51161,note_on,0,0,6,,,,,,,,2,,,,55,0
51161,note_on,89,0,6,,,,,,,,2,,,,43,0
51161,note_on,89,0,10,,,,,,,,3,,,,55,0
51161,note_on,89,0,11,,,,,,,,3,,,,43,0
51166,note_on,30,0,5,,,,,,,,2,,,,69,0
51168,note_on,2,0,5,,,,,,,,2,,,,70,85
51198,note_on,30,0,5,,,,,,,,2,,,,70,0
51200,note_on,2,0,5,,,,,,,,2,,,,74,85
51230,note_on,30,0,5,,,,,,,,2,,,,74,0
51232,note_on,2,0,5,,,,,,,,2,,,,73,85
51262,note_on,30,0,5,,,,,,,,2,,,,73,0
51264,note_on,103,0,6,,,,,,,,2,,,,58,85
51264,note_on,0,0,6,,,,,,,,2,,,,55,85
51264,note_on,2,0,5,,,,,,,,2,,,,74,85
51294,note_on,30,0,5,,,,,,,,2,,,,74,0
51296,note_on,2,0,5,,,,,,,,2,,,,79,85
51326,note_on,30,0,5,,,,,,,,2,,,,79,0
51328,note_on,2,0,5,,,,,,,,2,,,,78,85
51353,note_on,89,0,6,,,,,,,,2,,,,55,0
51353,note_on,0,0,6,,,,,,,,2,,,,58,0
51358,note_on,30,0,5,,,,,,,,2,,,,78,0
51360,note_on,2,0,5,,,,,,,,2,,,,79,85
51390,note_on,30,0,5,,,,,,,,2,,,,79,0
51392,note_on,2,0,5,,,,,,,,2,,,,82,85
51422,note_on,30,0,5,,,,,,,,2,,,,82,0
51424,note_on,2,0,5,,,,,,,,2,,,,79,85
51454,note_on,30,0,5,,,,,,,,2,,,,79,0
51456,note_on,295,0,9,,,,,,,,3,,,,57,64
51456,note_on,2,0,5,,,,,,,,2,,,,74,85
51456,note_on,0,0,6,,,,,,,,2,,,,54,85
51456,note_on,103,0,6,,,,,,,,2,,,,57,85
51456,note_on,1950,0,1,,,,,,,,0,,,,86,34
51456,note_on,2023,0,2,,,,,,,,0,,,,62,64
51456,note_on,295,0,8,,,,,,,,3,,,,62,64
51456,note_on,295,0,10,,,,,,,,3,,,,54,64
51456,note_on,295,0,11,,,,,,,,3,,,,42,64
51479,note_on,23,0,5,,,,,,,,2,,,,74,0
51480,note_on,1,0,5,,,,,,,,2,,,,86,85
51503,note_on,23,0,5,,,,,,,,2,,,,86,0
51504,note_on,1,0,5,,,,,,,,2,,,,74,85
51527,note_on,23,0,5,,,,,,,,2,,,,74,0
51528,note_on,1,0,5,,,,,,,,2,,,,86,85
51545,note_on,89,0,6,,,,,,,,2,,,,54,0
51545,note_on,89,0,8,,,,,,,,3,,,,62,0
51545,note_on,89,0,9,,,,,,,,3,,,,57,0
51545,note_on,89,0,11,,,,,,,,3,,,,42,0
51545,note_on,0,0,6,,,,,,,,2,,,,57,0
51545,note_on,89,0,10,,,,,,,,3,,,,54,0
51545,note_on,89,0,2,,,,,,,,0,,,,62,0
51551,note_on,23,0,5,,,,,,,,2,,,,86,0
51552,note_on,1,0,5,,,,,,,,2,,,,74,85
51597,note_on,45,0,5,,,,,,,,2,,,,74,0
51648,note_on,0,0,6,,,,,,,,2,,,,54,85
51648,note_on,103,0,2,,,,,,,,0,,,,62,64
51648,note_on,103,0,11,,,,,,,,3,,,,42,64
51648,note_on,51,0,5,,,,,,,,2,,,,74,85
51648,note_on,103,0,8,,,,,,,,3,,,,62,64
51648,note_on,103,0,6,,,,,,,,2,,,,57,85
51648,note_on,103,0,10,,,,,,,,3,,,,54,64
51648,note_on,103,0,9,,,,,,,,3,,,,57,64
51671,note_on,23,0,5,,,,,,,,2,,,,74,0
51672,note_on,1,0,5,,,,,,,,2,,,,86,85
51695,note_on,23,0,5,,,,,,,,2,,,,86,0
51696,note_on,1,0,5,,,,,,,,2,,,,74,85
51719,note_on,23,0,5,,,,,,,,2,,,,74,0
51720,note_on,1,0,5,,,,,,,,2,,,,86,85
51737,note_on,0,0,6,,,,,,,,2,,,,57,0
51737,note_on,89,0,6,,,,,,,,2,,,,54,0
51737,note_on,89,0,11,,,,,,,,3,,,,42,0
51737,note_on,89,0,2,,,,,,,,0,,,,62,0
51737,note_on,89,0,10,,,,,,,,3,,,,54,0
51737,note_on,89,0,9,,,,,,,,3,,,,57,0
51737,note_on,89,0,8,,,,,,,,3,,,,62,0
51743,note_on,23,0,5,,,,,,,,2,,,,86,0
51744,note_on,1,0,5,,,,,,,,2,,,,74,85
51789,note_on,45,0,5,,,,,,,,2,,,,74,0
51810,note_on,354,0,1,,,,,,,,0,,,,86,0
51840,note_on,51,0,5,,,,,,,,2,,,,67,85
51840,note_on,103,0,11,,,,,,,,3,,,,43,49
51840,note_on,103,0,10,,,,,,,,3,,,,55,49
51840,note_on,103,0,9,,,,,,,,3,,,,58,49
51840,note_on,103,0,8,,,,,,,,3,,,,74,49
51840,note_on,0,0,6,,,,,,,,2,,,,55,85
51840,note_on,103,0,6,,,,,,,,2,,,,58,85
51870,note_on,30,0,5,,,,,,,,2,,,,67,0
51872,note_on,2,0,5,,,,,,,,2,,,,70,85
51902,note_on,30,0,5,,,,,,,,2,,,,70,0
51904,note_on,2,0,5,,,,,,,,2,,,,69,85
51929,note_on,89,0,8,,,,,,,,3,,,,74,0
51929,note_on,89,0,9,,,,,,,,3,,,,58,0
51929,note_on,89,0,6,,,,,,,,2,,,,55,0
51929,note_on,0,0,6,,,,,,,,2,,,,58,0
51929,note_on,89,0,10,,,,,,,,3,,,,55,0
51929,note_on,89,0,11,,,,,,,,3,,,,43,0
51934,note_on,30,0,5,,,,,,,,2,,,,69,0
51936,note_on,2,0,5,,,,,,,,2,,,,70,85
51966,note_on,30,0,5,,,,,,,,2,,,,70,0
51968,note_on,2,0,5,,,,,,,,2,,,,74,85
51998,note_on,30,0,5,,,,,,,,2,,,,74,0
52000,note_on,2,0,5,,,,,,,,2,,,,73,85
52030,note_on,30,0,5,,,,,,,,2,,,,73,0
52032,note_on,0,0,6,,,,,,,,2,,,,55,85
52032,note_on,103,0,6,,,,,,,,2,,,,58,85
52032,note_on,2,0,5,,,,,,,,2,,,,74,85
52062,note_on,30,0,5,,,,,,,,2,,,,74,0
52064,note_on,2,0,5,,,,,,,,2,,,,79,85
52094,note_on,30,0,5,,,,,,,,2,,,,79,0
52096,note_on,2,0,5,,,,,,,,2,,,,78,85
52121,note_on,89,0,6,,,,,,,,2,,,,55,0
52121,note_on,0,0,6,,,,,,,,2,,,,58,0
52126,note_on,30,0,5,,,,,,,,2,,,,78,0
52128,note_on,2,0,5,,,,,,,,2,,,,79,85
52158,note_on,30,0,5,,,,,,,,2,,,,79,0
52160,note_on,2,0,5,,,,,,,,2,,,,82,85
52190,note_on,30,0,5,,,,,,,,2,,,,82,0
52192,note_on,2,0,5,,,,,,,,2,,,,79,85
52222,note_on,30,0,5,,,,,,,,2,,,,79,0
52224,note_on,2,0,5,,,,,,,,2,,,,74,85
52224,note_on,0,0,6,,,,,,,,2,,,,53,85
52224,note_on,0,0,6,,,,,,,,2,,,,56,85
52224,note_on,2791,0,4,,,,,,,,1,,,,62,64
52224,note_on,295,0,10,,,,,,,,3,,,,59,64
52224,note_on,414,0,1,,,,,,,,0,,,,86,34
52224,note_on,295,0,9,,,,,,,,3,,,,56,64
52224,note_on,487,0,2,,,,,,,,0,,,,62,64
52224,note_on,295,0,11,,,,,,,,3,,,,41,64
52224,note_on,295,0,8,,,,,,,,3,,,,62,64
52224,note_on,2791,0,3,,,,,,,,1,,,,62,64
52224,note_on,103,0,6,,,,,,,,2,,,,59,85
52247,note_on,23,0,5,,,,,,,,2,,,,74,0
52248,note_on,1,0,5,,,,,,,,2,,,,86,85
52271,note_on,23,0,5,,,,,,,,2,,,,86,0
52272,note_on,1,0,5,,,,,,,,2,,,,74,85
52295,note_on,23,0,5,,,,,,,,2,,,,74,0
52296,note_on,1,0,5,,,,,,,,2,,,,86,85
52313,note_on,89,0,6,,,,,,,,2,,,,53,0
52313,note_on,0,0,6,,,,,,,,2,,,,59,0
52313,note_on,89,0,2,,,,,,,,0,,,,62,0
52313,note_on,89,0,9,,,,,,,,3,,,,56,0
52313,note_on,89,0,8,,,,,,,,3,,,,62,0
52313,note_on,89,0,3,,,,,,,,1,,,,62,0
52313,note_on,0,0,6,,,,,,,,2,,,,56,0
52313,note_on,89,0,10,,,,,,,,3,,,,59,0
52313,note_on,89,0,4,,,,,,,,1,,,,62,0
52313,note_on,89,0,11,,,,,,,,3,,,,41,0
52319,note_on,23,0,5,,,,,,,,2,,,,86,0
52320,note_on,1,0,5,,,,,,,,2,,,,74,85
52365,note_on,45,0,5,,,,,,,,2,,,,74,0
52416,note_on,51,0,5,,,,,,,,2,,,,74,85
52416,note_on,103,0,2,,,,,,,,0,,,,62,64
52416,note_on,103,0,9,,,,,,,,3,,,,56,64
52416,note_on,103,0,8,,,,,,,,3,,,,62,64
52416,note_on,103,0,10,,,,,,,,3,,,,59,64
52416,note_on,103,0,3,,,,,,,,1,,,,62,64
52416,note_on,103,0,11,,,,,,,,3,,,,41,64
52416,note_on,103,0,6,,,,,,,,2,,,,58,85
52416,note_on,0,0,6,,,,,,,,2,,,,57,85
52416,note_on,0,0,6,,,,,,,,2,,,,53,85
52416,note_on,103,0,4,,,,,,,,1,,,,62,64
52439,note_on,23,0,5,,,,,,,,2,,,,74,0
52440,note_on,1,0,5,,,,,,,,2,,,,86,85
52463,note_on,23,0,5,,,,,,,,2,,,,86,0
52464,note_on,1,0,5,,,,,,,,2,,,,74,85
52487,note_on,23,0,5,,,,,,,,2,,,,74,0
52488,note_on,1,0,5,,,,,,,,2,,,,86,85
52505,note_on,89,0,10,,,,,,,,3,,,,59,0
52505,note_on,89,0,9,,,,,,,,3,,,,56,0
52505,note_on,89,0,2,,,,,,,,0,,,,62,0
52505,note_on,89,0,4,,,,,,,,1,,,,62,0
52505,note_on,89,0,11,,,,,,,,3,,,,41,0
52505,note_on,0,0,6,,,,,,,,2,,,,58,0
52505,note_on,89,0,6,,,,,,,,2,,,,53,0
52505,note_on,89,0,3,,,,,,,,1,,,,62,0
52505,note_on,0,0,6,,,,,,,,2,,,,57,0
52505,note_on,89,0,8,,,,,,,,3,,,,62,0
52511,note_on,23,0,5,,,,,,,,2,,,,86,0
52512,note_on,1,0,5,,,,,,,,2,,,,74,85
52557,note_on,45,0,5,,,,,,,,2,,,,74,0
52578,note_on,354,0,1,,,,,,,,0,,,,86,0
52608,note_on,103,0,6,,,,,,,,2,,,,51,85
52608,note_on,103,0,11,,,,,,,,3,,,,39,49
52608,note_on,103,0,8,,,,,,,,3,,,,60,49
52608,note_on,11535,0,7,,,,,,,,2,,,,79,85
52608,note_on,103,0,9,,,,,,,,3,,,,55,49
52608,note_on,103,0,10,,,,,,,,3,,,,60,49
52631,note_on,23,0,6,,,,,,,,2,,,,51,0
52632,note_on,1,0,6,,,,,,,,2,,,,63,85
52655,note_on,23,0,6,,,,,,,,2,,,,63,0
52656,note_on,1,0,6,,,,,,,,2,,,,51,85
52679,note_on,23,0,6,,,,,,,,2,,,,51,0
52680,note_on,1,0,6,,,,,,,,2,,,,63,85
52697,note_on,89,0,10,,,,,,,,3,,,,60,0
52697,note_on,89,0,8,,,,,,,,3,,,,60,0
52697,note_on,89,0,9,,,,,,,,3,,,,55,0
52703,note_on,23,0,6,,,,,,,,2,,,,63,0
52704,note_on,7,0,10,,,,,,,,3,,,,63,49
52704,note_on,7,0,9,,,,,,,,3,,,,67,49
52704,note_on,7,0,8,,,,,,,,3,,,,72,49
52704,note_on,1,0,6,,,,,,,,2,,,,51,85
52704,note_on,147,0,5,,,,,,,,2,,,,84,85
52749,note_on,45,0,6,,,,,,,,2,,,,51,0
52785,note_on,177,0,11,,,,,,,,3,,,,39,0
52785,note_on,177,0,7,,,,,,,,2,,,,79,0
52793,note_on,89,0,10,,,,,,,,3,,,,63,0
52793,note_on,89,0,9,,,,,,,,3,,,,67,0
52800,note_on,15,0,7,,,,,,,,2,,,,77,85
52800,note_on,15,0,11,,,,,,,,3,,,,38,49
52800,note_on,7,0,9,,,,,,,,3,,,,65,49
52800,note_on,51,0,6,,,,,,,,2,,,,50,85
52800,note_on,7,0,10,,,,,,,,3,,,,62,49
52823,note_on,23,0,6,,,,,,,,2,,,,50,0
52824,note_on,1,0,6,,,,,,,,2,,,,62,85
52847,note_on,23,0,6,,,,,,,,2,,,,62,0
52848,note_on,1,0,6,,,,,,,,2,,,,50,85
52871,note_on,23,0,6,,,,,,,,2,,,,50,0
52872,note_on,1,0,6,,,,,,,,2,,,,62,85
52881,note_on,177,0,5,,,,,,,,2,,,,84,0
52881,note_on,177,0,8,,,,,,,,3,,,,72,0
52895,note_on,23,0,6,,,,,,,,2,,,,62,0
52896,note_on,1,0,6,,,,,,,,2,,,,50,85
52896,note_on,15,0,8,,,,,,,,3,,,,70,49
52896,note_on,15,0,5,,,,,,,,2,,,,82,85
52941,note_on,45,0,6,,,,,,,,2,,,,50,0
52977,note_on,177,0,7,,,,,,,,2,,,,77,0
52977,note_on,177,0,10,,,,,,,,3,,,,62,0
52977,note_on,177,0,11,,,,,,,,3,,,,38,0
52977,note_on,177,0,9,,,,,,,,3,,,,65,0
52992,note_on,15,0,7,,,,,,,,2,,,,75,85
52992,note_on,15,0,11,,,,,,,,3,,,,36,49
52992,note_on,15,0,10,,,,,,,,3,,,,60,49
52992,note_on,15,0,9,,,,,,,,3,,,,63,49
52992,note_on,51,0,6,,,,,,,,2,,,,48,85
53015,note_on,23,0,6,,,,,,,,2,,,,48,0
53016,note_on,1,0,6,,,,,,,,2,,,,60,85
53039,note_on,23,0,6,,,,,,,,2,,,,60,0
53040,note_on,1,0,6,,,,,,,,2,,,,48,85
53063,note_on,23,0,6,,,,,,,,2,,,,48,0
53064,note_on,1,0,6,,,,,,,,2,,,,60,85
53081,note_on,185,0,8,,,,,,,,3,,,,70,0
53081,note_on,185,0,5,,,,,,,,2,,,,82,0
53087,note_on,23,0,6,,,,,,,,2,,,,60,0
53088,note_on,7,0,8,,,,,,,,3,,,,69,49
53088,note_on,1,0,6,,,,,,,,2,,,,48,85
53088,note_on,7,0,5,,,,,,,,2,,,,80,85
53133,note_on,45,0,6,,,,,,,,2,,,,48,0
53169,note_on,177,0,10,,,,,,,,3,,,,60,0
53169,note_on,177,0,11,,,,,,,,3,,,,36,0
53169,note_on,177,0,7,,,,,,,,2,,,,75,0
53169,note_on,177,0,9,,,,,,,,3,,,,63,0
53184,note_on,51,0,6,,,,,,,,2,,,,46,85
53184,note_on,15,0,11,,,,,,,,3,,,,34,49
53184,note_on,15,0,9,,,,,,,,3,,,,62,49
53184,note_on,15,0,10,,,,,,,,3,,,,58,49
53184,note_on,15,0,7,,,,,,,,2,,,,74,85
53207,note_on,23,0,6,,,,,,,,2,,,,46,0
53208,note_on,1,0,6,,,,,,,,2,,,,58,85
53231,note_on,23,0,6,,,,,,,,2,,,,58,0
53232,note_on,1,0,6,,,,,,,,2,,,,46,85
53255,note_on,23,0,6,,,,,,,,2,,,,46,0
53256,note_on,1,0,6,,,,,,,,2,,,,58,85
53265,note_on,177,0,5,,,,,,,,2,,,,80,0
53265,note_on,177,0,8,,,,,,,,3,,,,69,0
53279,note_on,23,0,6,,,,,,,,2,,,,58,0
53280,note_on,15,0,8,,,,,,,,3,,,,67,49
53280,note_on,1,0,6,,,,,,,,2,,,,46,85
53280,note_on,15,0,5,,,,,,,,2,,,,79,85
53325,note_on,45,0,6,,,,,,,,2,,,,46,0
53361,note_on,177,0,11,,,,,,,,3,,,,34,0
53361,note_on,177,0,10,,,,,,,,3,,,,58,0
53361,note_on,177,0,9,,,,,,,,3,,,,62,0
53361,note_on,177,0,7,,,,,,,,2,,,,74,0
53369,note_on,89,0,8,,,,,,,,3,,,,67,0
53369,note_on,89,0,5,,,,,,,,2,,,,79,0
53376,note_on,15,0,11,,,,,,,,3,,,,33,49
53376,note_on,0,0,6,,,,,,,,2,,,,57,85
53376,note_on,51,0,6,,,,,,,,2,,,,60,85
53376,note_on,15,0,10,,,,,,,,3,,,,57,49
53376,note_on,15,0,9,,,,,,,,3,,,,60,49
53376,note_on,7,0,8,,,,,,,,3,,,,66,49
53376,note_on,7,0,5,,,,,,,,2,,,,78,85
53465,note_on,89,0,8,,,,,,,,3,,,,66,0
53465,note_on,89,0,5,,,,,,,,2,,,,78,0
53465,note_on,89,0,11,,,,,,,,3,,,,33,0
53465,note_on,89,0,10,,,,,,,,3,,,,57,0
53465,note_on,89,0,6,,,,,,,,2,,,,57,0
53465,note_on,0,0,6,,,,,,,,2,,,,60,0
53465,note_on,89,0,9,,,,,,,,3,,,,60,0
53472,note_on,7,0,9,,,,,,,,3,,,,58,49
53472,note_on,7,0,5,,,,,,,,2,,,,79,85
53472,note_on,7,0,6,,,,,,,,2,,,,58,85
53472,note_on,7,0,11,,,,,,,,3,,,,31,49
53472,note_on,7,0,8,,,,,,,,3,,,,67,49
53472,note_on,0,0,6,,,,,,,,2,,,,55,85
53472,note_on,7,0,10,,,,,,,,3,,,,55,49
53561,note_on,89,0,9,,,,,,,,3,,,,58,0
53561,note_on,89,0,6,,,,,,,,2,,,,55,0
53561,note_on,0,0,6,,,,,,,,2,,,,58,0
53561,note_on,89,0,5,,,,,,,,2,,,,79,0
53561,note_on,89,0,8,,,,,,,,3,,,,67,0
53561,note_on,89,0,10,,,,,,,,3,,,,55,0
53561,note_on,89,0,11,,,,,,,,3,,,,31,0
53568,note_on,7,0,10,,,,,,,,3,,,,55,49
53568,note_on,7,0,9,,,,,,,,3,,,,67,49
53568,note_on,7,0,11,,,,,,,,3,,,,39,49
53568,note_on,7,0,5,,,,,,,,2,,,,70,85
53568,note_on,0,0,6,,,,,,,,2,,,,51,85
53568,note_on,7,0,6,,,,,,,,2,,,,55,85
53568,note_on,7,0,8,,,,,,,,3,,,,70,49
53657,note_on,89,0,8,,,,,,,,3,,,,70,0
53657,note_on,89,0,5,,,,,,,,2,,,,70,0
53664,note_on,7,0,8,,,,,,,,3,,,,72,49
53664,note_on,7,0,5,,,,,,,,2,,,,72,85
53676,note_on,0,0,5,,,,,,,,2,,,,74,85
53676,note_on,12,0,5,,,,,,,,2,,,,72,0
53676,note_on,0,0,8,,,,,,,,3,,,,74,49
53676,note_on,12,0,8,,,,,,,,3,,,,72,0
53688,note_on,0,0,5,,,,,,,,2,,,,72,85
53688,note_on,12,0,5,,,,,,,,2,,,,74,0
53688,note_on,12,0,8,,,,,,,,3,,,,74,0
53688,note_on,0,0,8,,,,,,,,3,,,,72,49
53700,note_on,12,0,8,,,,,,,,3,,,,72,0
53700,note_on,0,0,8,,,,,,,,3,,,,74,49
53700,note_on,12,0,5,,,,,,,,2,,,,72,0
53700,note_on,0,0,5,,,,,,,,2,,,,74,85
53712,note_on,12,0,8,,,,,,,,3,,,,74,0
53712,note_on,0,0,8,,,,,,,,3,,,,72,49
53712,note_on,0,0,5,,,,,,,,2,,,,72,85
53712,note_on,12,0,5,,,,,,,,2,,,,74,0
53724,note_on,12,0,5,,,,,,,,2,,,,72,0
53724,note_on,0,0,8,,,,,,,,3,,,,74,49
53724,note_on,0,0,5,,,,,,,,2,,,,74,85
53724,note_on,12,0,8,,,,,,,,3,,,,72,0
53736,note_on,0,0,5,,,,,,,,2,,,,72,85
53736,note_on,0,0,8,,,,,,,,3,,,,72,49
53736,note_on,12,0,8,,,,,,,,3,,,,74,0
53736,note_on,12,0,5,,,,,,,,2,,,,74,0
53745,note_on,0,0,6,,,,,,,,2,,,,55,0
53745,note_on,177,0,9,,,,,,,,3,,,,67,0
53745,note_on,177,0,10,,,,,,,,3,,,,55,0
53745,note_on,177,0,6,,,,,,,,2,,,,51,0
53745,note_on,177,0,11,,,,,,,,3,,,,39,0
53748,note_on,0,0,5,,,,,,,,2,,,,74,85
53748,note_on,12,0,8,,,,,,,,3,,,,72,0
53748,note_on,0,0,8,,,,,,,,3,,,,74,49
53748,note_on,12,0,5,,,,,,,,2,,,,72,0
53753,note_on,5,0,8,,,,,,,,3,,,,74,0
53753,note_on,5,0,5,,,,,,,,2,,,,74,0
53760,note_on,0,0,6,,,,,,,,2,,,,50,85
53760,note_on,7,0,5,,,,,,,,2,,,,74,85
53760,note_on,15,0,6,,,,,,,,2,,,,54,85
53760,note_on,7,0,8,,,,,,,,3,,,,74,49
53760,note_on,15,0,9,,,,,,,,3,,,,66,49
53760,note_on,15,0,11,,,,,,,,3,,,,38,49
53760,note_on,15,0,10,,,,,,,,3,,,,57,49
53849,note_on,89,0,11,,,,,,,,3,,,,38,0
53849,note_on,89,0,9,,,,,,,,3,,,,66,0
53849,note_on,89,0,5,,,,,,,,2,,,,74,0
53849,note_on,89,0,6,,,,,,,,2,,,,50,0
53849,note_on,0,0,6,,,,,,,,2,,,,54,0
53849,note_on,89,0,10,,,,,,,,3,,,,57,0
53849,note_on,89,0,8,,,,,,,,3,,,,74,0
53856,note_on,7,0,11,,,,,,,,3,,,,38,64
53856,note_on,7,0,9,,,,,,,,3,,,,62,64
53856,note_on,7,0,8,,,,,,,,3,,,,62,64
53856,note_on,7,0,10,,,,,,,,3,,,,50,64
53923,note_on,67,0,11,,,,,,,,3,,,,38,0
53923,note_on,67,0,8,,,,,,,,3,,,,62,0
53923,note_on,67,0,10,,,,,,,,3,,,,50,0
53923,note_on,67,0,9,,,,,,,,3,,,,62,0
53928,note_on,5,0,9,,,,,,,,3,,,,62,64
53928,note_on,5,0,11,,,,,,,,3,,,,38,64
53928,note_on,5,0,8,,,,,,,,3,,,,62,64
53928,note_on,5,0,10,,,,,,,,3,,,,50,64
53951,note_on,23,0,9,,,,,,,,3,,,,62,0
53951,note_on,23,0,10,,,,,,,,3,,,,50,0
53951,note_on,23,0,8,,,,,,,,3,,,,62,0
53951,note_on,23,0,11,,,,,,,,3,,,,38,0
53952,note_on,1,0,8,,,,,,,,3,,,,62,64
53952,note_on,1,0,11,,,,,,,,3,,,,38,64
53952,note_on,1,0,10,,,,,,,,3,,,,50,64
53952,note_on,1,0,9,,,,,,,,3,,,,62,64
54041,note_on,89,0,11,,,,,,,,3,,,,38,0
54041,note_on,89,0,9,,,,,,,,3,,,,62,0
54041,note_on,89,0,10,,,,,,,,3,,,,50,0
54041,note_on,89,0,8,,,,,,,,3,,,,62,0
54048,note_on,7,0,8,,,,,,,,3,,,,62,64
54048,note_on,7,0,9,,,,,,,,3,,,,62,64
54048,note_on,7,0,10,,,,,,,,3,,,,50,64
54048,note_on,7,0,11,,,,,,,,3,,,,38,64
54137,note_on,89,0,10,,,,,,,,3,,,,50,0
54137,note_on,89,0,9,,,,,,,,3,,,,62,0
54137,note_on,89,0,8,,,,,,,,3,,,,62,0
54137,note_on,89,0,11,,,,,,,,3,,,,38,0
54144,note_on,7,0,8,,,,,,,,3,,,,62,64
54144,note_on,7,0,10,,,,,,,,3,,,,50,64
54144,note_on,7,0,11,,,,,,,,3,,,,38,64
54144,note_on,295,0,5,,,,,,,,2,,,,81,85
54144,note_on,295,0,6,,,,,,,,2,,,,50,85
54144,note_on,7,0,9,,,,,,,,3,,,,62,64
54174,note_on,30,0,5,,,,,,,,2,,,,81,0
54176,note_on,2,0,5,,,,,,,,2,,,,77,85
54206,note_on,30,0,5,,,,,,,,2,,,,77,0
54208,note_on,2,0,5,,,,,,,,2,,,,74,85
54233,note_on,89,0,11,,,,,,,,3,,,,38,0
54233,note_on,89,0,10,,,,,,,,3,,,,50,0
54233,note_on,89,0,9,,,,,,,,3,,,,62,0
54233,note_on,89,0,8,,,,,,,,3,,,,62,0
54238,note_on,30,0,5,,,,,,,,2,,,,74,0
54240,note_on,2,0,5,,,,,,,,2,,,,77,85
54270,note_on,30,0,5,,,,,,,,2,,,,77,0
54272,note_on,2,0,5,,,,,,,,2,,,,74,85
54302,note_on,30,0,5,,,,,,,,2,,,,74,0
54304,note_on,2,0,5,,,,,,,,2,,,,69,85
54321,note_on,177,0,6,,,,,,,,2,,,,50,0
54334,note_on,30,0,5,,,,,,,,2,,,,69,0
54336,note_on,2,0,5,,,,,,,,2,,,,74,85
54366,note_on,30,0,5,,,,,,,,2,,,,74,0
54368,note_on,2,0,5,,,,,,,,2,,,,69,85
54398,note_on,30,0,5,,,,,,,,2,,,,69,0
54400,note_on,2,0,5,,,,,,,,2,,,,65,85
54430,note_on,30,0,5,,,,,,,,2,,,,65,0
54432,note_on,2,0,5,,,,,,,,2,,,,69,85
54462,note_on,30,0,5,,,,,,,,2,,,,69,0
54464,note_on,2,0,5,,,,,,,,2,,,,65,85
54494,note_on,30,0,5,,,,,,,,2,,,,65,0
54496,note_on,2,0,5,,,,,,,,2,,,,62,85
54526,note_on,30,0,5,,,,,,,,2,,,,62,0
54528,note_on,295,0,10,,,,,,,,3,,,,69,49
54528,note_on,295,0,9,,,,,,,,3,,,,61,49
54528,note_on,295,0,8,,,,,,,,3,,,,76,49
54560,note_on,34,0,5,,,,,,,,2,,,,69,85
54590,note_on,30,0,5,,,,,,,,2,,,,69,0
54592,note_on,2,0,5,,,,,,,,2,,,,60,85
54617,note_on,89,0,8,,,,,,,,3,,,,76,0
54617,note_on,89,0,9,,,,,,,,3,,,,61,0
54622,note_on,30,0,5,,,,,,,,2,,,,60,0
54624,note_on,7,0,9,,,,,,,,3,,,,64,49
54624,note_on,7,0,8,,,,,,,,3,,,,73,49
54656,note_on,34,0,5,,,,,,,,2,,,,64,85
54686,note_on,30,0,5,,,,,,,,2,,,,64,0
54688,note_on,2,0,5,,,,,,,,2,,,,57,85
54713,note_on,89,0,9,,,,,,,,3,,,,64,0
54713,note_on,89,0,8,,,,,,,,3,,,,73,0
54718,note_on,30,0,5,,,,,,,,2,,,,57,0
54720,note_on,7,0,9,,,,,,,,3,,,,61,49
54720,note_on,7,0,8,,,,,,,,3,,,,76,49
54752,note_on,34,0,5,,,,,,,,2,,,,69,85
54782,note_on,30,0,5,,,,,,,,2,,,,69,0
54784,note_on,2,0,5,,,,,,,,2,,,,60,85
54809,note_on,89,0,8,,,,,,,,3,,,,76,0
54809,note_on,89,0,9,,,,,,,,3,,,,61,0
54814,note_on,30,0,5,,,,,,,,2,,,,60,0
54816,note_on,7,0,9,,,,,,,,3,,,,64,49
54816,note_on,7,0,8,,,,,,,,3,,,,73,49
54848,note_on,34,0,5,,,,,,,,2,,,,64,85
54878,note_on,30,0,5,,,,,,,,2,,,,64,0
54880,note_on,2,0,5,,,,,,,,2,,,,57,85
54882,note_on,354,0,10,,,,,,,,3,,,,69,0
54905,note_on,89,0,8,,,,,,,,3,,,,73,0
54905,note_on,89,0,9,,,,,,,,3,,,,64,0
54910,note_on,30,0,5,,,,,,,,2,,,,57,0
54912,note_on,2,0,5,,,,,,,,2,,,,82,85
54912,note_on,7,0,8,,,,,,,,3,,,,61,64
54912,note_on,0,0,6,,,,,,,,2,,,,37,85
54912,note_on,679,0,11,,,,,,,,3,,,,37,64
54912,note_on,591,0,6,,,,,,,,2,,,,49,85
54912,note_on,30,0,10,,,,,,,,3,,,,61,64
54912,note_on,7,0,9,,,,,,,,3,,,,61,64
54942,note_on,30,0,5,,,,,,,,2,,,,82,0
54944,note_on,2,0,5,,,,,,,,2,,,,79,85
54974,note_on,30,0,5,,,,,,,,2,,,,79,0
54976,note_on,2,0,5,,,,,,,,2,,,,76,85
55001,note_on,89,0,8,,,,,,,,3,,,,61,0
55001,note_on,89,0,10,,,,,,,,3,,,,61,0
55001,note_on,89,0,9,,,,,,,,3,,,,61,0
55001,note_on,89,0,11,,,,,,,,3,,,,37,0
55006,note_on,30,0,5,,,,,,,,2,,,,76,0
55008,note_on,2,0,5,,,,,,,,2,,,,79,85
55038,note_on,30,0,5,,,,,,,,2,,,,79,0
55040,note_on,2,0,5,,,,,,,,2,,,,76,85
55070,note_on,30,0,5,,,,,,,,2,,,,76,0
55072,note_on,2,0,5,,,,,,,,2,,,,73,85
55089,note_on,0,0,6,,,,,,,,2,,,,49,0
55089,note_on,177,0,6,,,,,,,,2,,,,37,0
55102,note_on,30,0,5,,,,,,,,2,,,,73,0
55104,note_on,2,0,5,,,,,,,,2,,,,76,85
55134,note_on,30,0,5,,,,,,,,2,,,,76,0
55136,note_on,2,0,5,,,,,,,,2,,,,70,85
55166,note_on,30,0,5,,,,,,,,2,,,,70,0
55168,note_on,2,0,5,,,,,,,,2,,,,67,85
55198,note_on,30,0,5,,,,,,,,2,,,,67,0
55200,note_on,2,0,5,,,,,,,,2,,,,70,85
55230,note_on,30,0,5,,,,,,,,2,,,,70,0
55232,note_on,2,0,5,,,,,,,,2,,,,67,85
55262,note_on,30,0,5,,,,,,,,2,,,,67,0
55264,note_on,2,0,5,,,,,,,,2,,,,64,85
55294,note_on,30,0,5,,,,,,,,2,,,,64,0
55296,note_on,295,0,10,,,,,,,,3,,,,69,49
55296,note_on,295,0,8,,,,,,,,3,,,,77,49
55296,note_on,295,0,9,,,,,,,,3,,,,62,49
55328,note_on,34,0,5,,,,,,,,2,,,,69,85
55358,note_on,30,0,5,,,,,,,,2,,,,69,0
55360,note_on,2,0,5,,,,,,,,2,,,,62,85
55385,note_on,89,0,9,,,,,,,,3,,,,62,0
55385,note_on,89,0,8,,,,,,,,3,,,,77,0
55390,note_on,30,0,5,,,,,,,,2,,,,62,0
55392,note_on,7,0,9,,,,,,,,3,,,,65,49
55392,note_on,7,0,8,,,,,,,,3,,,,74,49
55424,note_on,34,0,5,,,,,,,,2,,,,65,85
55454,note_on,30,0,5,,,,,,,,2,,,,65,0
55456,note_on,2,0,5,,,,,,,,2,,,,57,85
55481,note_on,89,0,8,,,,,,,,3,,,,74,0
55481,note_on,89,0,9,,,,,,,,3,,,,65,0
55486,note_on,30,0,5,,,,,,,,2,,,,57,0
55488,note_on,7,0,9,,,,,,,,3,,,,62,49
55488,note_on,7,0,8,,,,,,,,3,,,,77,49
55520,note_on,34,0,5,,,,,,,,2,,,,69,85
55550,note_on,30,0,5,,,,,,,,2,,,,69,0
55552,note_on,2,0,5,,,,,,,,2,,,,62,85
55577,note_on,89,0,9,,,,,,,,3,,,,62,0
55577,note_on,89,0,8,,,,,,,,3,,,,77,0
55582,note_on,30,0,5,,,,,,,,2,,,,62,0
55584,note_on,7,0,9,,,,,,,,3,,,,65,49
55584,note_on,7,0,8,,,,,,,,3,,,,74,49
55616,note_on,34,0,5,,,,,,,,2,,,,65,85
55646,note_on,30,0,5,,,,,,,,2,,,,65,0
55648,note_on,2,0,5,,,,,,,,2,,,,57,85
55650,note_on,354,0,10,,,,,,,,3,,,,69,0
55673,note_on,89,0,9,,,,,,,,3,,,,65,0
55673,note_on,89,0,8,,,,,,,,3,,,,74,0
55678,note_on,30,0,5,,,,,,,,2,,,,57,0
55680,note_on,7,0,8,,,,,,,,3,,,,62,64
55680,note_on,591,0,6,,,,,,,,2,,,,50,85
55680,note_on,30,0,10,,,,,,,,3,,,,62,64
55680,note_on,0,0,6,,,,,,,,2,,,,38,85
55680,note_on,7,0,9,,,,,,,,3,,,,62,64
55680,note_on,2,0,5,,,,,,,,2,,,,62,85
55680,note_on,679,0,11,,,,,,,,3,,,,38,64
55710,note_on,30,0,5,,,,,,,,2,,,,62,0
55712,note_on,2,0,5,,,,,,,,2,,,,66,85
55742,note_on,30,0,5,,,,,,,,2,,,,66,0
55744,note_on,2,0,5,,,,,,,,2,,,,69,85
55774,note_on,30,0,5,,,,,,,,2,,,,69,0
55776,note_on,2,0,5,,,,,,,,2,,,,74,85
55806,note_on,30,0,5,,,,,,,,2,,,,74,0
55808,note_on,2,0,5,,,,,,,,2,,,,78,85
55838,note_on,30,0,5,,,,,,,,2,,,,78,0
55840,note_on,2,0,5,,,,,,,,2,,,,81,85
55857,note_on,177,0,10,,,,,,,,3,,,,62,0
55857,note_on,177,0,6,,,,,,,,2,,,,38,0
55857,note_on,0,0,6,,,,,,,,2,,,,50,0
55857,note_on,177,0,8,,,,,,,,3,,,,62,0
55857,note_on,177,0,9,,,,,,,,3,,,,62,0
55857,note_on,177,0,11,,,,,,,,3,,,,38,0
55870,note_on,30,0,5,,,,,,,,2,,,,81,0
55872,note_on,15,0,10,,,,,,,,3,,,,66,49
55872,note_on,15,0,8,,,,,,,,3,,,,86,49
55872,note_on,15,0,9,,,,,,,,3,,,,69,49
55872,note_on,2,0,5,,,,,,,,2,,,,86,85
55892,note_on,20,0,10,,,,,,,,3,,,,66,0
55892,note_on,20,0,9,,,,,,,,3,,,,69,0
55892,note_on,20,0,8,,,,,,,,3,,,,86,0
55902,note_on,30,0,5,,,,,,,,2,,,,86,0
55904,note_on,2,0,5,,,,,,,,2,,,,74,85
55934,note_on,30,0,5,,,,,,,,2,,,,74,0
55936,note_on,2,0,5,,,,,,,,2,,,,86,85
55966,note_on,30,0,5,,,,,,,,2,,,,86,0
55968,note_on,111,0,11,,,,,,,,3,,,,42,49
55968,note_on,76,0,9,,,,,,,,3,,,,74,49
55968,note_on,2,0,5,,,,,,,,2,,,,84,85
55968,note_on,111,0,6,,,,,,,,2,,,,54,85
55968,note_on,76,0,10,,,,,,,,3,,,,69,49
55968,note_on,76,0,8,,,,,,,,3,,,,84,49
55988,note_on,20,0,8,,,,,,,,3,,,,84,0
55988,note_on,20,0,9,,,,,,,,3,,,,74,0
55988,note_on,20,0,10,,,,,,,,3,,,,69,0
55998,note_on,30,0,5,,,,,,,,2,,,,84,0
56000,note_on,2,0,5,,,,,,,,2,,,,74,85
56030,note_on,30,0,5,,,,,,,,2,,,,74,0
56032,note_on,2,0,5,,,,,,,,2,,,,84,85
56057,note_on,89,0,11,,,,,,,,3,,,,42,0
56057,note_on,89,0,6,,,,,,,,2,,,,54,0
56062,note_on,30,0,5,,,,,,,,2,,,,84,0
56064,note_on,76,0,10,,,,,,,,3,,,,67,49
56064,note_on,7,0,11,,,,,,,,3,,,,43,49
56064,note_on,76,0,8,,,,,,,,3,,,,82,49
56064,note_on,7,0,6,,,,,,,,2,,,,55,85
56064,note_on,76,0,9,,,,,,,,3,,,,74,49
56096,note_on,34,0,5,,,,,,,,2,,,,82,85
56126,note_on,30,0,5,,,,,,,,2,,,,82,0
56128,note_on,2,0,5,,,,,,,,2,,,,74,85
56153,note_on,89,0,9,,,,,,,,3,,,,74,0
56153,note_on,89,0,6,,,,,,,,2,,,,55,0
56153,note_on,89,0,8,,,,,,,,3,,,,82,0
56153,note_on,89,0,11,,,,,,,,3,,,,43,0
56153,note_on,89,0,10,,,,,,,,3,,,,67,0
56158,note_on,30,0,5,,,,,,,,2,,,,74,0
56192,note_on,34,0,5,,,,,,,,2,,,,79,85
56222,note_on,30,0,5,,,,,,,,2,,,,79,0
56224,note_on,2,0,5,,,,,,,,2,,,,70,85
56254,note_on,30,0,5,,,,,,,,2,,,,70,0
56288,note_on,34,0,5,,,,,,,,2,,,,74,85
56318,note_on,30,0,5,,,,,,,,2,,,,74,0
56320,note_on,2,0,5,,,,,,,,2,,,,67,85
56350,note_on,30,0,5,,,,,,,,2,,,,67,0
56384,note_on,34,0,5,,,,,,,,2,,,,70,85
56414,note_on,30,0,5,,,,,,,,2,,,,70,0
56416,note_on,2,0,5,,,,,,,,2,,,,62,85
56446,note_on,30,0,5,,,,,,,,2,,,,62,0
56448,note_on,295,0,9,,,,,,,,3,,,,60,64
56448,note_on,0,0,6,,,,,,,,2,,,,36,85
56448,note_on,2,0,5,,,,,,,,2,,,,60,85
56448,note_on,295,0,8,,,,,,,,3,,,,60,64
56448,note_on,295,0,6,,,,,,,,2,,,,48,85
56448,note_on,295,0,10,,,,,,,,3,,,,60,64
56448,note_on,295,0,11,,,,,,,,3,,,,36,64
56478,note_on,30,0,5,,,,,,,,2,,,,60,0
56480,note_on,2,0,5,,,,,,,,2,,,,64,85
56510,note_on,30,0,5,,,,,,,,2,,,,64,0
56512,note_on,2,0,5,,,,,,,,2,,,,67,85
56542,note_on,30,0,5,,,,,,,,2,,,,67,0
56544,note_on,2,0,5,,,,,,,,2,,,,72,85
56574,note_on,30,0,5,,,,,,,,2,,,,72,0
56576,note_on,2,0,5,,,,,,,,2,,,,76,85
56606,note_on,30,0,5,,,,,,,,2,,,,76,0
56608,note_on,2,0,5,,,,,,,,2,,,,79,85
56625,note_on,177,0,10,,,,,,,,3,,,,60,0
56625,note_on,177,0,11,,,,,,,,3,,,,36,0
56625,note_on,177,0,8,,,,,,,,3,,,,60,0
56625,note_on,177,0,6,,,,,,,,2,,,,36,0
56625,note_on,0,0,6,,,,,,,,2,,,,48,0
56625,note_on,177,0,9,,,,,,,,3,,,,60,0
56638,note_on,30,0,5,,,,,,,,2,,,,79,0
56640,note_on,15,0,10,,,,,,,,3,,,,64,49
56640,note_on,2,0,5,,,,,,,,2,,,,84,85
56640,note_on,15,0,8,,,,,,,,3,,,,81,49
56640,note_on,15,0,9,,,,,,,,3,,,,67,49
56670,note_on,30,0,5,,,,,,,,2,,,,84,0
56672,note_on,2,0,5,,,,,,,,2,,,,76,85
56685,note_on,45,0,8,,,,,,,,3,,,,81,0
56685,note_on,45,0,10,,,,,,,,3,,,,64,0
56685,note_on,45,0,9,,,,,,,,3,,,,67,0
56702,note_on,30,0,5,,,,,,,,2,,,,76,0
56704,note_on,2,0,5,,,,,,,,2,,,,84,85
56734,note_on,30,0,5,,,,,,,,2,,,,84,0
56736,note_on,51,0,10,,,,,,,,3,,,,67,49
56736,note_on,51,0,8,,,,,,,,3,,,,79,49
56736,note_on,111,0,6,,,,,,,,2,,,,52,85
56736,note_on,51,0,9,,,,,,,,3,,,,72,49
56736,note_on,111,0,11,,,,,,,,3,,,,40,49
56736,note_on,2,0,5,,,,,,,,2,,,,82,85
56766,note_on,30,0,5,,,,,,,,2,,,,82,0
56768,note_on,2,0,5,,,,,,,,2,,,,76,85
56781,note_on,45,0,9,,,,,,,,3,,,,72,0
56781,note_on,45,0,8,,,,,,,,3,,,,79,0
56781,note_on,45,0,10,,,,,,,,3,,,,67,0
56798,note_on,30,0,5,,,,,,,,2,,,,76,0
56800,note_on,2,0,5,,,,,,,,2,,,,82,85
56825,note_on,89,0,11,,,,,,,,3,,,,40,0
56825,note_on,89,0,6,,,,,,,,2,,,,52,0
56830,note_on,30,0,5,,,,,,,,2,,,,82,0
56832,note_on,7,0,11,,,,,,,,3,,,,41,49
56832,note_on,51,0,10,,,,,,,,3,,,,65,49
56832,note_on,51,0,9,,,,,,,,3,,,,72,49
56832,note_on,51,0,8,,,,,,,,3,,,,77,49
56832,note_on,7,0,6,,,,,,,,2,,,,53,85
56864,note_on,34,0,5,,,,,,,,2,,,,81,85
56894,note_on,30,0,5,,,,,,,,2,,,,81,0
56896,note_on,2,0,5,,,,,,,,2,,,,72,85
56921,note_on,89,0,11,,,,,,,,3,,,,41,0
56921,note_on,89,0,8,,,,,,,,3,,,,77,0
56921,note_on,89,0,10,,,,,,,,3,,,,65,0
56921,note_on,89,0,9,,,,,,,,3,,,,72,0
56921,note_on,89,0,6,,,,,,,,2,,,,53,0
56926,note_on,30,0,5,,,,,,,,2,,,,72,0
56960,note_on,34,0,5,,,,,,,,2,,,,77,85
56990,note_on,30,0,5,,,,,,,,2,,,,77,0
56992,note_on,2,0,5,,,,,,,,2,,,,69,85
57022,note_on,30,0,5,,,,,,,,2,,,,69,0
57056,note_on,34,0,5,,,,,,,,2,,,,72,85
57086,note_on,30,0,5,,,,,,,,2,,,,72,0
57088,note_on,2,0,5,,,,,,,,2,,,,65,85
57118,note_on,30,0,5,,,,,,,,2,,,,65,0
57152,note_on,34,0,5,,,,,,,,2,,,,69,85
57182,note_on,30,0,5,,,,,,,,2,,,,69,0
57184,note_on,2,0,5,,,,,,,,2,,,,60,85
57214,note_on,30,0,5,,,,,,,,2,,,,60,0
57216,note_on,295,0,11,,,,,,,,3,,,,34,64
57216,note_on,2,0,5,,,,,,,,2,,,,58,85
57216,note_on,0,0,6,,,,,,,,2,,,,34,85
57216,note_on,295,0,6,,,,,,,,2,,,,46,85
57216,note_on,295,0,8,,,,,,,,3,,,,58,64
57216,note_on,295,0,9,,,,,,,,3,,,,58,64
57216,note_on,295,0,10,,,,,,,,3,,,,58,64
57246,note_on,30,0,5,,,,,,,,2,,,,58,0
57248,note_on,2,0,5,,,,,,,,2,,,,62,85
57278,note_on,30,0,5,,,,,,,,2,,,,62,0
57280,note_on,2,0,5,,,,,,,,2,,,,65,85
57310,note_on,30,0,5,,,,,,,,2,,,,65,0
57312,note_on,2,0,5,,,,,,,,2,,,,70,85
57342,note_on,30,0,5,,,,,,,,2,,,,70,0
57344,note_on,2,0,5,,,,,,,,2,,,,74,85
57374,note_on,30,0,5,,,,,,,,2,,,,74,0
57376,note_on,2,0,5,,,,,,,,2,,,,77,85
57393,note_on,177,0,11,,,,,,,,3,,,,34,0
57393,note_on,177,0,8,,,,,,,,3,,,,58,0
57393,note_on,177,0,10,,,,,,,,3,,,,58,0
57393,note_on,177,0,9,,,,,,,,3,,,,58,0
57393,note_on,177,0,6,,,,,,,,2,,,,34,0
57393,note_on,0,0,6,,,,,,,,2,,,,46,0
57406,note_on,30,0,5,,,,,,,,2,,,,77,0
57408,note_on,15,0,8,,,,,,,,3,,,,82,49
57408,note_on,15,0,10,,,,,,,,3,,,,62,49
57408,note_on,2,0,5,,,,,,,,2,,,,82,85
57408,note_on,15,0,9,,,,,,,,3,,,,65,49
57438,note_on,30,0,5,,,,,,,,2,,,,82,0
57440,note_on,2,0,5,,,,,,,,2,,,,70,85
57453,note_on,45,0,8,,,,,,,,3,,,,82,0
57453,note_on,45,0,9,,,,,,,,3,,,,65,0
57453,note_on,45,0,10,,,,,,,,3,,,,62,0
57470,note_on,30,0,5,,,,,,,,2,,,,70,0
57472,note_on,2,0,5,,,,,,,,2,,,,82,85
57502,note_on,30,0,5,,,,,,,,2,,,,82,0
57504,note_on,2,0,5,,,,,,,,2,,,,81,85
57504,note_on,51,0,9,,,,,,,,3,,,,70,49
57504,note_on,111,0,11,,,,,,,,3,,,,38,49
57504,note_on,51,0,10,,,,,,,,3,,,,65,49
57504,note_on,111,0,6,,,,,,,,2,,,,50,85
57504,note_on,51,0,8,,,,,,,,3,,,,81,49
57534,note_on,30,0,5,,,,,,,,2,,,,81,0
57536,note_on,2,0,5,,,,,,,,2,,,,70,85
57549,note_on,45,0,9,,,,,,,,3,,,,70,0
57549,note_on,45,0,8,,,,,,,,3,,,,81,0
57549,note_on,45,0,10,,,,,,,,3,,,,65,0
57566,note_on,30,0,5,,,,,,,,2,,,,70,0
57568,note_on,2,0,5,,,,,,,,2,,,,81,85
57593,note_on,89,0,6,,,,,,,,2,,,,50,0
57593,note_on,89,0,11,,,,,,,,3,,,,38,0
57598,note_on,30,0,5,,,,,,,,2,,,,81,0
57600,note_on,7,0,6,,,,,,,,2,,,,52,85
57600,note_on,51,0,8,,,,,,,,3,,,,79,49
57600,note_on,51,0,9,,,,,,,,3,,,,70,49
57600,note_on,51,0,10,,,,,,,,3,,,,64,49
57600,note_on,7,0,11,,,,,,,,3,,,,40,49
57632,note_on,34,0,5,,,,,,,,2,,,,79,85
57662,note_on,30,0,5,,,,,,,,2,,,,79,0
57664,note_on,2,0,5,,,,,,,,2,,,,70,85
57689,note_on,89,0,10,,,,,,,,3,,,,64,0
57689,note_on,89,0,6,,,,,,,,2,,,,52,0
57689,note_on,89,0,9,,,,,,,,3,,,,70,0
57689,note_on,89,0,11,,,,,,,,3,,,,40,0
57689,note_on,89,0,8,,,,,,,,3,,,,79,0
57694,note_on,30,0,5,,,,,,,,2,,,,70,0
57728,note_on,34,0,5,,,,,,,,2,,,,76,85
57758,note_on,30,0,5,,,,,,,,2,,,,76,0
57760,note_on,2,0,5,,,,,,,,2,,,,67,85
57790,note_on,30,0,5,,,,,,,,2,,,,67,0
57824,note_on,34,0,5,,,,,,,,2,,,,70,85
57854,note_on,30,0,5,,,,,,,,2,,,,70,0
57856,note_on,2,0,5,,,,,,,,2,,,,64,85
57886,note_on,30,0,5,,,,,,,,2,,,,64,0
57920,note_on,34,0,5,,,,,,,,2,,,,67,85
57950,note_on,30,0,5,,,,,,,,2,,,,67,0
57952,note_on,2,0,5,,,,,,,,2,,,,58,85
57982,note_on,30,0,5,,,,,,,,2,,,,58,0
57984,note_on,295,0,11,,,,,,,,3,,,,33,64
57984,note_on,295,0,6,,,,,,,,2,,,,45,85
57984,note_on,0,0,6,,,,,,,,2,,,,33,85
57984,note_on,295,0,10,,,,,,,,3,,,,57,64
57984,note_on,295,0,9,,,,,,,,3,,,,57,64
57984,note_on,2,0,5,,,,,,,,2,,,,57,85
57984,note_on,295,0,8,,,,,,,,3,,,,57,64
58014,note_on,30,0,5,,,,,,,,2,,,,57,0
58016,note_on,2,0,5,,,,,,,,2,,,,61,85
58046,note_on,30,0,5,,,,,,,,2,,,,61,0
58048,note_on,2,0,5,,,,,,,,2,,,,64,85
58078,note_on,30,0,5,,,,,,,,2,,,,64,0
58080,note_on,2,0,5,,,,,,,,2,,,,69,85
58110,note_on,30,0,5,,,,,,,,2,,,,69,0
58112,note_on,2,0,5,,,,,,,,2,,,,73,85
58142,note_on,30,0,5,,,,,,,,2,,,,73,0
58144,note_on,2,0,5,,,,,,,,2,,,,76,85
58161,note_on,177,0,6,,,,,,,,2,,,,33,0
58161,note_on,177,0,11,,,,,,,,3,,,,33,0
58161,note_on,0,0,6,,,,,,,,2,,,,45,0
58161,note_on,177,0,10,,,,,,,,3,,,,57,0
58161,note_on,177,0,8,,,,,,,,3,,,,57,0
58161,note_on,177,0,9,,,,,,,,3,,,,57,0
58174,note_on,30,0,5,,,,,,,,2,,,,76,0
58176,note_on,15,0,9,,,,,,,,3,,,,63,49
58176,note_on,15,0,8,,,,,,,,3,,,,81,49
58176,note_on,2,0,5,,,,,,,,2,,,,81,85
58176,note_on,15,0,10,,,,,,,,3,,,,61,64
58196,note_on,20,0,9,,,,,,,,3,,,,63,0
58196,note_on,20,0,8,,,,,,,,3,,,,81,0
58196,note_on,20,0,10,,,,,,,,3,,,,61,0
58206,note_on,30,0,5,,,,,,,,2,,,,81,0
58208,note_on,2,0,5,,,,,,,,2,,,,69,85
58238,note_on,30,0,5,,,,,,,,2,,,,69,0
58240,note_on,2,0,5,,,,,,,,2,,,,81,85
58270,note_on,30,0,5,,,,,,,,2,,,,81,0
58272,note_on,76,0,8,,,,,,,,3,,,,79,49
58272,note_on,76,0,10,,,,,,,,3,,,,64,64
58272,note_on,111,0,11,,,,,,,,3,,,,37,49
58272,note_on,2,0,5,,,,,,,,2,,,,79,85
58272,note_on,76,0,9,,,,,,,,3,,,,69,49
58272,note_on,111,0,6,,,,,,,,2,,,,49,85
58292,note_on,20,0,9,,,,,,,,3,,,,69,0
58292,note_on,20,0,10,,,,,,,,3,,,,64,0
58292,note_on,20,0,8,,,,,,,,3,,,,79,0
58302,note_on,30,0,5,,,,,,,,2,,,,79,0
58304,note_on,2,0,5,,,,,,,,2,,,,69,85
58334,note_on,30,0,5,,,,,,,,2,,,,69,0
58336,note_on,2,0,5,,,,,,,,2,,,,79,85
58361,note_on,89,0,11,,,,,,,,3,,,,37,0
58361,note_on,89,0,6,,,,,,,,2,,,,49,0
58366,note_on,30,0,5,,,,,,,,2,,,,79,0
58368,note_on,76,0,9,,,,,,,,3,,,,69,49
58368,note_on,7,0,11,,,,,,,,3,,,,38,49
58368,note_on,76,0,8,,,,,,,,3,,,,77,49
58368,note_on,7,0,6,,,,,,,,2,,,,50,85
58368,note_on,76,0,10,,,,,,,,3,,,,62,64
58368,note_on,2,0,5,,,,,,,,2,,,,77,85
58413,note_on,45,0,6,,,,,,,,2,,,,50,0
58416,note_on,3,0,6,,,,,,,,2,,,,62,85
58457,note_on,89,0,10,,,,,,,,3,,,,62,0
58457,note_on,89,0,9,,,,,,,,3,,,,69,0
58457,note_on,89,0,5,,,,,,,,2,,,,77,0
58457,note_on,89,0,11,,,,,,,,3,,,,38,0
58457,note_on,89,0,8,,,,,,,,3,,,,77,0
58461,note_on,45,0,6,,,,,,,,2,,,,62,0
58464,note_on,3,0,6,,,,,,,,2,,,,61,85
58509,note_on,45,0,6,,,,,,,,2,,,,61,0
58512,note_on,3,0,6,,,,,,,,2,,,,62,85
58557,note_on,45,0,6,,,,,,,,2,,,,62,0
58560,note_on,3,0,6,,,,,,,,2,,,,53,85
58605,note_on,45,0,6,,,,,,,,2,,,,53,0
58608,note_on,3,0,6,,,,,,,,2,,,,62,85
58653,note_on,45,0,6,,,,,,,,2,,,,62,0
58656,note_on,3,0,6,,,,,,,,2,,,,61,85
58656,note_on,199,0,5,,,,,,,,2,,,,81,85
58701,note_on,45,0,6,,,,,,,,2,,,,61,0
58704,note_on,3,0,6,,,,,,,,2,,,,62,85
58745,note_on,89,0,5,,,,,,,,2,,,,81,0
58749,note_on,45,0,6,,,,,,,,2,,,,62,0
58752,note_on,3,0,6,,,,,,,,2,,,,55,85
58752,note_on,7,0,5,,,,,,,,2,,,,82,85
58797,note_on,45,0,6,,,,,,,,2,,,,55,0
58800,note_on,3,0,6,,,,,,,,2,,,,62,85
58841,note_on,89,0,5,,,,,,,,2,,,,82,0
58845,note_on,45,0,6,,,,,,,,2,,,,62,0
58848,note_on,7,0,5,,,,,,,,2,,,,83,85
58848,note_on,3,0,6,,,,,,,,2,,,,55,85
58893,note_on,45,0,6,,,,,,,,2,,,,55,0
58896,note_on,3,0,6,,,,,,,,2,,,,62,85
58937,note_on,89,0,5,,,,,,,,2,,,,83,0
58941,note_on,45,0,6,,,,,,,,2,,,,62,0
58944,note_on,7,0,5,,,,,,,,2,,,,84,85
58944,note_on,3,0,6,,,,,,,,2,,,,57,85
58989,note_on,45,0,6,,,,,,,,2,,,,57,0
58992,note_on,3,0,6,,,,,,,,2,,,,62,85
59033,note_on,89,0,5,,,,,,,,2,,,,84,0
59037,note_on,45,0,6,,,,,,,,2,,,,62,0
59040,note_on,3,0,6,,,,,,,,2,,,,57,85
59040,note_on,7,0,5,,,,,,,,2,,,,85,85
59085,note_on,45,0,6,,,,,,,,2,,,,57,0
59088,note_on,3,0,6,,,,,,,,2,,,,62,85
59129,note_on,89,0,5,,,,,,,,2,,,,85,0
59133,note_on,45,0,6,,,,,,,,2,,,,62,0
59136,note_on,3,0,6,,,,,,,,2,,,,58,85
59136,note_on,7,0,5,,,,,,,,2,,,,88,85
59181,note_on,45,0,5,,,,,,,,2,,,,88,0
59181,note_on,45,0,6,,,,,,,,2,,,,58,0
59184,note_on,3,0,5,,,,,,,,2,,,,86,85
59184,note_on,3,0,6,,,,,,,,2,,,,62,85
59229,note_on,45,0,5,,,,,,,,2,,,,86,0
59229,note_on,45,0,6,,,,,,,,2,,,,62,0
59232,note_on,3,0,5,,,,,,,,2,,,,86,85
59232,note_on,3,0,6,,,,,,,,2,,,,61,85
59277,note_on,45,0,6,,,,,,,,2,,,,61,0
59280,note_on,3,0,6,,,,,,,,2,,,,62,85
59321,note_on,89,0,5,,,,,,,,2,,,,86,0
59325,note_on,45,0,6,,,,,,,,2,,,,62,0
59328,note_on,3,0,6,,,,,,,,2,,,,53,85
59373,note_on,45,0,6,,,,,,,,2,,,,53,0
59376,note_on,3,0,6,,,,,,,,2,,,,62,85
59421,note_on,45,0,6,,,,,,,,2,,,,62,0
59424,note_on,103,0,5,,,,,,,,2,,,,81,85
59424,note_on,3,0,6,,,,,,,,2,,,,61,85
59469,note_on,45,0,6,,,,,,,,2,,,,61,0
59472,note_on,3,0,6,,,,,,,,2,,,,62,85
59513,note_on,89,0,5,,,,,,,,2,,,,81,0
59517,note_on,45,0,6,,,,,,,,2,,,,62,0
59520,note_on,3,0,6,,,,,,,,2,,,,55,85
59520,note_on,7,0,5,,,,,,,,2,,,,82,85
59565,note_on,45,0,6,,,,,,,,2,,,,55,0
59565,note_on,45,0,5,,,,,,,,2,,,,82,0
59568,note_on,3,0,6,,,,,,,,2,,,,62,85
59568,note_on,3,0,5,,,,,,,,2,,,,81,85
59613,note_on,45,0,5,,,,,,,,2,,,,81,0
59613,note_on,45,0,6,,,,,,,,2,,,,62,0
59616,note_on,3,0,5,,,,,,,,2,,,,82,85
59616,note_on,3,0,6,,,,,,,,2,,,,55,85
59661,note_on,45,0,6,,,,,,,,2,,,,55,0
59661,note_on,45,0,5,,,,,,,,2,,,,82,0
59664,note_on,3,0,6,,,,,,,,2,,,,62,85
59664,note_on,3,0,5,,,,,,,,2,,,,83,85
59709,note_on,45,0,6,,,,,,,,2,,,,62,0
59709,note_on,45,0,5,,,,,,,,2,,,,83,0
59712,note_on,3,0,5,,,,,,,,2,,,,84,85
59712,note_on,3,0,6,,,,,,,,2,,,,57,85
59757,note_on,45,0,6,,,,,,,,2,,,,57,0
59757,note_on,45,0,5,,,,,,,,2,,,,84,0
59760,note_on,3,0,5,,,,,,,,2,,,,83,85
59760,note_on,3,0,6,,,,,,,,2,,,,62,85
59805,note_on,45,0,5,,,,,,,,2,,,,83,0
59805,note_on,45,0,6,,,,,,,,2,,,,62,0
59808,note_on,3,0,5,,,,,,,,2,,,,84,85
59808,note_on,3,0,6,,,,,,,,2,,,,57,85
59853,note_on,45,0,6,,,,,,,,2,,,,57,0
59853,note_on,45,0,5,,,,,,,,2,,,,84,0
59856,note_on,3,0,6,,,,,,,,2,,,,62,85
59856,note_on,3,0,5,,,,,,,,2,,,,85,85
59901,note_on,45,0,5,,,,,,,,2,,,,85,0
59901,note_on,45,0,6,,,,,,,,2,,,,62,0
59904,note_on,3,0,5,,,,,,,,2,,,,88,85
59904,note_on,3,0,6,,,,,,,,2,,,,58,85
59949,note_on,45,0,5,,,,,,,,2,,,,88,0
59949,note_on,45,0,6,,,,,,,,2,,,,58,0
59952,note_on,3,0,5,,,,,,,,2,,,,86,85
59952,note_on,3,0,6,,,,,,,,2,,,,62,85
59997,note_on,45,0,5,,,,,,,,2,,,,86,0
59997,note_on,45,0,6,,,,,,,,2,,,,62,0
60000,note_on,3,0,5,,,,,,,,2,,,,86,85
60000,note_on,3,0,6,,,,,,,,2,,,,61,85
60045,note_on,45,0,6,,,,,,,,2,,,,61,0
60048,note_on,3,0,6,,,,,,,,2,,,,62,85
60089,note_on,89,0,5,,,,,,,,2,,,,86,0
60093,note_on,45,0,6,,,,,,,,2,,,,62,0
60096,note_on,3,0,6,,,,,,,,2,,,,53,85
60141,note_on,45,0,6,,,,,,,,2,,,,53,0
60144,note_on,3,0,6,,,,,,,,2,,,,62,85
60189,note_on,45,0,6,,,,,,,,2,,,,62,0
60192,note_on,103,0,5,,,,,,,,2,,,,81,85
60192,note_on,3,0,6,,,,,,,,2,,,,61,85
60237,note_on,45,0,6,,,,,,,,2,,,,61,0
60240,note_on,3,0,6,,,,,,,,2,,,,62,85
60281,note_on,89,0,5,,,,,,,,2,,,,81,0
60285,note_on,45,0,6,,,,,,,,2,,,,62,0
60288,note_on,3,0,6,,,,,,,,2,,,,55,85
60288,note_on,7,0,5,,,,,,,,2,,,,84,85
60333,note_on,45,0,6,,,,,,,,2,,,,55,0
60336,note_on,3,0,6,,,,,,,,2,,,,62,85
60377,note_on,89,0,5,,,,,,,,2,,,,84,0
60381,note_on,45,0,6,,,,,,,,2,,,,62,0
60384,note_on,7,0,5,,,,,,,,2,,,,82,85
60384,note_on,3,0,6,,,,,,,,2,,,,61,85
60429,note_on,45,0,6,,,,,,,,2,,,,61,0
60432,note_on,3,0,6,,,,,,,,2,,,,62,85
60473,note_on,89,0,5,,,,,,,,2,,,,82,0
60477,note_on,45,0,6,,,,,,,,2,,,,62,0
60480,note_on,3,0,6,,,,,,,,2,,,,55,85
60525,note_on,45,0,6,,,,,,,,2,,,,55,0
60528,note_on,3,0,6,,,,,,,,2,,,,64,85
60573,note_on,45,0,6,,,,,,,,2,,,,64,0
60576,note_on,3,0,6,,,,,,,,2,,,,58,85
60576,note_on,103,0,5,,,,,,,,2,,,,79,85
60621,note_on,45,0,6,,,,,,,,2,,,,58,0
60624,note_on,3,0,6,,,,,,,,2,,,,64,85
60665,note_on,89,0,5,,,,,,,,2,,,,79,0
60669,note_on,45,0,6,,,,,,,,2,,,,64,0
60672,note_on,3,0,6,,,,,,,,2,,,,57,85
60672,note_on,7,0,5,,,,,,,,2,,,,77,85
60717,note_on,45,0,6,,,,,,,,2,,,,57,0
60720,note_on,3,0,6,,,,,,,,2,,,,65,85
60761,note_on,89,0,5,,,,,,,,2,,,,77,0
60765,note_on,45,0,6,,,,,,,,2,,,,65,0
60768,note_on,3,0,6,,,,,,,,2,,,,62,85
60768,note_on,7,0,5,,,,,,,,2,,,,81,85
60813,note_on,45,0,6,,,,,,,,2,,,,62,0
60816,note_on,3,0,6,,,,,,,,2,,,,65,85
60857,note_on,89,0,5,,,,,,,,2,,,,81,0
60861,note_on,45,0,6,,,,,,,,2,,,,65,0
60864,note_on,3,0,6,,,,,,,,2,,,,57,85
60909,note_on,45,0,6,,,,,,,,2,,,,57,0
60912,note_on,3,0,6,,,,,,,,2,,,,67,85
60957,note_on,45,0,6,,,,,,,,2,,,,67,0
60960,note_on,103,0,5,,,,,,,,2,,,,73,85
60960,note_on,3,0,6,,,,,,,,2,,,,64,85
61005,note_on,45,0,6,,,,,,,,2,,,,64,0
61008,note_on,3,0,6,,,,,,,,2,,,,67,85
61049,note_on,89,0,5,,,,,,,,2,,,,73,0
61053,note_on,45,0,6,,,,,,,,2,,,,67,0
61056,note_on,3,0,6,,,,,,,,2,,,,46,85
61056,note_on,7,0,5,,,,,,,,2,,,,76,85
61086,note_on,30,0,6,,,,,,,,2,,,,46,0
61088,note_on,2,0,6,,,,,,,,2,,,,62,85
61101,note_on,45,0,5,,,,,,,,2,,,,76,0
61104,note_on,3,0,5,,,,,,,,2,,,,74,85
61118,note_on,30,0,6,,,,,,,,2,,,,62,0
61120,note_on,2,0,6,,,,,,,,2,,,,61,85
61149,note_on,45,0,5,,,,,,,,2,,,,74,0
61150,note_on,30,0,6,,,,,,,,2,,,,61,0
61152,note_on,3,0,5,,,,,,,,2,,,,74,85
61152,note_on,2,0,6,,,,,,,,2,,,,62,85
61182,note_on,30,0,6,,,,,,,,2,,,,62,0
61184,note_on,2,0,6,,,,,,,,2,,,,60,85
61214,note_on,30,0,6,,,,,,,,2,,,,60,0
61216,note_on,2,0,6,,,,,,,,2,,,,62,85
61241,note_on,89,0,5,,,,,,,,2,,,,74,0
61246,note_on,30,0,6,,,,,,,,2,,,,62,0
61248,note_on,2791,0,11,,,,,,,,3,,,,41,49
61248,note_on,2791,0,10,,,,,,,,3,,,,62,49
61248,note_on,2,0,6,,,,,,,,2,,,,53,85
61278,note_on,30,0,6,,,,,,,,2,,,,53,0
61280,note_on,2,0,6,,,,,,,,2,,,,62,85
61310,note_on,30,0,6,,,,,,,,2,,,,62,0
61312,note_on,2,0,6,,,,,,,,2,,,,60,85
61342,note_on,30,0,6,,,,,,,,2,,,,60,0
61344,note_on,103,0,5,,,,,,,,2,,,,81,85
61344,note_on,0,0,5,,,,,,,,2,,,,69,85
61344,note_on,2887,0,8,,,,,,,,3,,,,69,49
61344,note_on,2887,0,9,,,,,,,,3,,,,60,49
61344,note_on,2,0,6,,,,,,,,2,,,,62,85
61374,note_on,30,0,6,,,,,,,,2,,,,62,0
61376,note_on,2,0,6,,,,,,,,2,,,,60,85
61406,note_on,30,0,6,,,,,,,,2,,,,60,0
61408,note_on,2,0,6,,,,,,,,2,,,,62,85
61425,note_on,177,0,11,,,,,,,,3,,,,41,0
61433,note_on,89,0,5,,,,,,,,2,,,,69,0
61433,note_on,0,0,5,,,,,,,,2,,,,81,0
61433,note_on,89,0,8,,,,,,,,3,,,,69,0
61433,note_on,89,0,9,,,,,,,,3,,,,60,0
61438,note_on,30,0,6,,,,,,,,2,,,,62,0
61440,note_on,15,0,11,,,,,,,,3,,,,43,49
61440,note_on,7,0,5,,,,,,,,2,,,,82,85
61440,note_on,7,0,9,,,,,,,,3,,,,58,49
61440,note_on,0,0,5,,,,,,,,2,,,,70,85
61440,note_on,2,0,6,,,,,,,,2,,,,55,85
61440,note_on,7,0,8,,,,,,,,3,,,,70,49
61470,note_on,30,0,6,,,,,,,,2,,,,55,0
61472,note_on,2,0,6,,,,,,,,2,,,,62,85
61502,note_on,30,0,6,,,,,,,,2,,,,62,0
61504,note_on,2,0,6,,,,,,,,2,,,,61,85
61529,note_on,89,0,9,,,,,,,,3,,,,58,0
61529,note_on,89,0,5,,,,,,,,2,,,,70,0
61529,note_on,89,0,8,,,,,,,,3,,,,70,0
61529,note_on,0,0,5,,,,,,,,2,,,,82,0
61534,note_on,30,0,6,,,,,,,,2,,,,61,0
61536,note_on,7,0,8,,,,,,,,3,,,,71,49
61536,note_on,7,0,5,,,,,,,,2,,,,83,85
61536,note_on,7,0,9,,,,,,,,3,,,,59,49
61536,note_on,0,0,5,,,,,,,,2,,,,71,85
61536,note_on,2,0,6,,,,,,,,2,,,,62,85
61566,note_on,30,0,6,,,,,,,,2,,,,62,0
61568,note_on,2,0,6,,,,,,,,2,,,,61,85
61598,note_on,30,0,6,,,,,,,,2,,,,61,0
61600,note_on,2,0,6,,,,,,,,2,,,,62,85
61617,note_on,369,0,10,,,,,,,,3,,,,62,0
61617,note_on,177,0,11,,,,,,,,3,,,,43,0
61625,note_on,89,0,9,,,,,,,,3,,,,59,0
61625,note_on,89,0,8,,,,,,,,3,,,,71,0
61625,note_on,0,0,5,,,,,,,,2,,,,83,0
61625,note_on,89,0,5,,,,,,,,2,,,,71,0
61630,note_on,30,0,6,,,,,,,,2,,,,62,0
61632,note_on,7,0,9,,,,,,,,3,,,,60,49
61632,note_on,0,0,5,,,,,,,,2,,,,72,85
61632,note_on,15,0,11,,,,,,,,3,,,,45,49
61632,note_on,15,0,10,,,,,,,,3,,,,57,49
61632,note_on,2,0,6,,,,,,,,2,,,,57,85
61632,note_on,7,0,8,,,,,,,,3,,,,72,49
61632,note_on,7,0,5,,,,,,,,2,,,,84,85
61662,note_on,30,0,6,,,,,,,,2,,,,57,0
61664,note_on,2,0,6,,,,,,,,2,,,,62,85
61694,note_on,30,0,6,,,,,,,,2,,,,62,0
61696,note_on,2,0,6,,,,,,,,2,,,,61,85
61721,note_on,89,0,5,,,,,,,,2,,,,72,0
61721,note_on,0,0,5,,,,,,,,2,,,,84,0
61721,note_on,89,0,9,,,,,,,,3,,,,60,0
61721,note_on,89,0,8,,,,,,,,3,,,,72,0
61726,note_on,30,0,6,,,,,,,,2,,,,61,0
61728,note_on,7,0,8,,,,,,,,3,,,,73,49
61728,note_on,7,0,9,,,,,,,,3,,,,61,49
61728,note_on,2,0,6,,,,,,,,2,,,,62,85
61728,note_on,0,0,5,,,,,,,,2,,,,73,85
61728,note_on,7,0,5,,,,,,,,2,,,,85,85
61758,note_on,30,0,6,,,,,,,,2,,,,62,0
61760,note_on,2,0,6,,,,,,,,2,,,,61,85
61790,note_on,30,0,6,,,,,,,,2,,,,61,0
61792,note_on,2,0,6,,,,,,,,2,,,,62,85
61809,note_on,177,0,10,,,,,,,,3,,,,57,0
61809,note_on,177,0,11,,,,,,,,3,,,,45,0
61817,note_on,89,0,9,,,,,,,,3,,,,61,0
61817,note_on,89,0,8,,,,,,,,3,,,,73,0
61817,note_on,0,0,5,,,,,,,,2,,,,85,0
61817,note_on,89,0,5,,,,,,,,2,,,,73,0
61822,note_on,30,0,6,,,,,,,,2,,,,62,0
61824,note_on,15,0,11,,,,,,,,3,,,,46,49
61824,note_on,0,0,5,,,,,,,,2,,,,76,85
61824,note_on,7,0,5,,,,,,,,2,,,,88,85
61824,note_on,15,0,10,,,,,,,,3,,,,53,49
61824,note_on,7,0,9,,,,,,,,3,,,,63,49
61824,note_on,2,0,6,,,,,,,,2,,,,58,85
61824,note_on,7,0,8,,,,,,,,3,,,,76,49
61854,note_on,30,0,6,,,,,,,,2,,,,58,0
61856,note_on,2,0,6,,,,,,,,2,,,,62,85
61869,note_on,45,0,9,,,,,,,,3,,,,63,0
61869,note_on,0,0,5,,,,,,,,2,,,,88,0
61869,note_on,45,0,8,,,,,,,,3,,,,76,0
61869,note_on,45,0,5,,,,,,,,2,,,,76,0
61872,note_on,3,0,9,,,,,,,,3,,,,62,49
61872,note_on,3,0,5,,,,,,,,2,,,,86,85
61872,note_on,0,0,5,,,,,,,,2,,,,74,85
61872,note_on,3,0,8,,,,,,,,3,,,,74,49
61886,note_on,30,0,6,,,,,,,,2,,,,62,0
61888,note_on,2,0,6,,,,,,,,2,,,,61,85
61917,note_on,0,0,5,,,,,,,,2,,,,86,0
61917,note_on,45,0,5,,,,,,,,2,,,,74,0
61917,note_on,45,0,8,,,,,,,,3,,,,74,0
61917,note_on,45,0,9,,,,,,,,3,,,,62,0
61918,note_on,30,0,6,,,,,,,,2,,,,61,0
61920,note_on,2,0,6,,,,,,,,2,,,,62,85
61920,note_on,3,0,8,,,,,,,,3,,,,74,49
61920,note_on,3,0,5,,,,,,,,2,,,,86,85
61920,note_on,0,0,5,,,,,,,,2,,,,74,85
61920,note_on,3,0,9,,,,,,,,3,,,,62,49
61950,note_on,30,0,6,,,,,,,,2,,,,62,0
61952,note_on,2,0,6,,,,,,,,2,,,,61,85
61982,note_on,30,0,6,,,,,,,,2,,,,61,0
61984,note_on,2,0,6,,,,,,,,2,,,,62,85
62001,note_on,177,0,10,,,,,,,,3,,,,53,0
62001,note_on,177,0,11,,,,,,,,3,,,,46,0
62009,note_on,89,0,9,,,,,,,,3,,,,62,0
62009,note_on,89,0,5,,,,,,,,2,,,,74,0
62009,note_on,89,0,8,,,,,,,,3,,,,74,0
62009,note_on,0,0,5,,,,,,,,2,,,,86,0
62014,note_on,30,0,6,,,,,,,,2,,,,62,0
62016,note_on,15,0,10,,,,,,,,3,,,,62,49
62016,note_on,15,0,11,,,,,,,,3,,,,41,49
62016,note_on,2,0,6,,,,,,,,2,,,,50,85
62046,note_on,30,0,6,,,,,,,,2,,,,50,0
62048,note_on,2,0,6,,,,,,,,2,,,,62,85
62078,note_on,30,0,6,,,,,,,,2,,,,62,0
62080,note_on,2,0,6,,,,,,,,2,,,,61,85
62110,note_on,30,0,6,,,,,,,,2,,,,61,0
62112,note_on,103,0,5,,,,,,,,2,,,,81,85
62112,note_on,103,0,8,,,,,,,,3,,,,69,49
62112,note_on,103,0,9,,,,,,,,3,,,,57,49
62112,note_on,0,0,5,,,,,,,,2,,,,69,85
62112,note_on,2,0,6,,,,,,,,2,,,,62,85
62142,note_on,30,0,6,,,,,,,,2,,,,62,0
62144,note_on,2,0,6,,,,,,,,2,,,,61,85
62174,note_on,30,0,6,,,,,,,,2,,,,61,0
62176,note_on,2,0,6,,,,,,,,2,,,,62,85
62193,note_on,177,0,11,,,,,,,,3,,,,41,0
62201,note_on,89,0,9,,,,,,,,3,,,,57,0
62201,note_on,89,0,5,,,,,,,,2,,,,69,0
62201,note_on,0,0,5,,,,,,,,2,,,,81,0
62201,note_on,89,0,8,,,,,,,,3,,,,69,0
62206,note_on,30,0,6,,,,,,,,2,,,,62,0
62208,note_on,2,0,6,,,,,,,,2,,,,55,85
62208,note_on,7,0,9,,,,,,,,3,,,,58,49
62208,note_on,7,0,5,,,,,,,,2,,,,82,85
62208,note_on,0,0,5,,,,,,,,2,,,,70,85
62208,note_on,7,0,8,,,,,,,,3,,,,70,49
62208,note_on,15,0,11,,,,,,,,3,,,,43,49
62238,note_on,30,0,6,,,,,,,,2,,,,55,0
62240,note_on,2,0,6,,,,,,,,2,,,,62,85
62253,note_on,45,0,9,,,,,,,,3,,,,58,0
62253,note_on,0,0,5,,,,,,,,2,,,,82,0
62253,note_on,45,0,5,,,,,,,,2,,,,70,0
62253,note_on,45,0,8,,,,,,,,3,,,,70,0
62256,note_on,3,0,5,,,,,,,,2,,,,81,85
62256,note_on,3,0,8,,,,,,,,3,,,,69,49
62256,note_on,0,0,5,,,,,,,,2,,,,69,85
62256,note_on,3,0,9,,,,,,,,3,,,,57,49
62270,note_on,30,0,6,,,,,,,,2,,,,62,0
62272,note_on,2,0,6,,,,,,,,2,,,,61,85
62301,note_on,0,0,5,,,,,,,,2,,,,81,0
62301,note_on,45,0,9,,,,,,,,3,,,,57,0
62301,note_on,45,0,8,,,,,,,,3,,,,69,0
62301,note_on,45,0,5,,,,,,,,2,,,,69,0
62302,note_on,30,0,6,,,,,,,,2,,,,61,0
62304,note_on,3,0,8,,,,,,,,3,,,,70,49
62304,note_on,0,0,5,,,,,,,,2,,,,70,85
62304,note_on,2,0,6,,,,,,,,2,,,,62,85
62304,note_on,3,0,9,,,,,,,,3,,,,58,49
62304,note_on,3,0,5,,,,,,,,2,,,,82,85
62334,note_on,30,0,6,,,,,,,,2,,,,62,0
62336,note_on,2,0,6,,,,,,,,2,,,,61,85
62349,note_on,45,0,9,,,,,,,,3,,,,58,0
62349,note_on,45,0,5,,,,,,,,2,,,,70,0
62349,note_on,0,0,5,,,,,,,,2,,,,82,0
62349,note_on,45,0,8,,,,,,,,3,,,,70,0
62352,note_on,3,0,5,,,,,,,,2,,,,83,85
62352,note_on,0,0,5,,,,,,,,2,,,,71,85
62352,note_on,3,0,8,,,,,,,,3,,,,71,49
62352,note_on,3,0,9,,,,,,,,3,,,,58,49
62366,note_on,30,0,6,,,,,,,,2,,,,61,0
62368,note_on,2,0,6,,,,,,,,2,,,,62,85
62385,note_on,177,0,11,,,,,,,,3,,,,43,0
62385,note_on,369,0,10,,,,,,,,3,,,,62,0
62397,note_on,45,0,5,,,,,,,,2,,,,71,0
62397,note_on,0,0,5,,,,,,,,2,,,,83,0
62397,note_on,45,0,8,,,,,,,,3,,,,71,0
62397,note_on,45,0,9,,,,,,,,3,,,,58,0
62398,note_on,30,0,6,,,,,,,,2,,,,62,0
62400,note_on,15,0,10,,,,,,,,3,,,,57,49
62400,note_on,0,0,5,,,,,,,,2,,,,72,85
62400,note_on,3,0,8,,,,,,,,3,,,,72,49
62400,note_on,15,0,11,,,,,,,,3,,,,45,49
62400,note_on,3,0,9,,,,,,,,3,,,,60,49
62400,note_on,3,0,5,,,,,,,,2,,,,84,85
62400,note_on,2,0,6,,,,,,,,2,,,,57,85
62430,note_on,30,0,6,,,,,,,,2,,,,57,0
62432,note_on,2,0,6,,,,,,,,2,,,,62,85
62445,note_on,45,0,5,,,,,,,,2,,,,72,0
62445,note_on,0,0,5,,,,,,,,2,,,,84,0
62445,note_on,45,0,8,,,,,,,,3,,,,72,0
62445,note_on,45,0,9,,,,,,,,3,,,,60,0
62448,note_on,3,0,8,,,,,,,,3,,,,71,49
62448,note_on,3,0,9,,,,,,,,3,,,,58,49
62448,note_on,3,0,5,,,,,,,,2,,,,83,85
62448,note_on,0,0,5,,,,,,,,2,,,,71,85
62462,note_on,30,0,6,,,,,,,,2,,,,62,0
62464,note_on,2,0,6,,,,,,,,2,,,,61,85
62493,note_on,45,0,9,,,,,,,,3,,,,58,0
62493,note_on,45,0,8,,,,,,,,3,,,,71,0
62493,note_on,45,0,5,,,,,,,,2,,,,71,0
62493,note_on,0,0,5,,,,,,,,2,,,,83,0
62494,note_on,30,0,6,,,,,,,,2,,,,61,0
62496,note_on,3,0,8,,,,,,,,3,,,,72,49
62496,note_on,2,0,6,,,,,,,,2,,,,62,85
62496,note_on,3,0,5,,,,,,,,2,,,,84,85
62496,note_on,0,0,5,,,,,,,,2,,,,72,85
62496,note_on,3,0,9,,,,,,,,3,,,,60,49
62526,note_on,30,0,6,,,,,,,,2,,,,62,0
62528,note_on,2,0,6,,,,,,,,2,,,,61,85
62541,note_on,0,0,5,,,,,,,,2,,,,84,0
62541,note_on,45,0,5,,,,,,,,2,,,,72,0
62541,note_on,45,0,8,,,,,,,,3,,,,72,0
62541,note_on,45,0,9,,,,,,,,3,,,,60,0
62544,note_on,3,0,8,,,,,,,,3,,,,73,49
62544,note_on,0,0,5,,,,,,,,2,,,,73,85
62544,note_on,3,0,5,,,,,,,,2,,,,85,85
62544,note_on,3,0,9,,,,,,,,3,,,,60,49
62558,note_on,30,0,6,,,,,,,,2,,,,61,0
62560,note_on,2,0,6,,,,,,,,2,,,,62,85
62577,note_on,177,0,10,,,,,,,,3,,,,57,0
62577,note_on,177,0,11,,,,,,,,3,,,,45,0
62589,note_on,45,0,9,,,,,,,,3,,,,60,0
62589,note_on,0,0,5,,,,,,,,2,,,,85,0
62589,note_on,45,0,8,,,,,,,,3,,,,73,0
62589,note_on,45,0,5,,,,,,,,2,,,,73,0
62590,note_on,30,0,6,,,,,,,,2,,,,62,0
62592,note_on,15,0,11,,,,,,,,3,,,,46,49
62592,note_on,15,0,10,,,,,,,,3,,,,53,49
62592,note_on,2,0,6,,,,,,,,2,,,,58,85
62592,note_on,3,0,5,,,,,,,,2,,,,88,85
62592,note_on,0,0,5,,,,,,,,2,,,,76,85
62592,note_on,3,0,9,,,,,,,,3,,,,63,49
62592,note_on,3,0,8,,,,,,,,3,,,,76,49
62622,note_on,30,0,6,,,,,,,,2,,,,58,0
62624,note_on,2,0,6,,,,,,,,2,,,,62,85
62637,note_on,45,0,5,,,,,,,,2,,,,76,0
62637,note_on,0,0,5,,,,,,,,2,,,,88,0
62637,note_on,45,0,8,,,,,,,,3,,,,76,0
62637,note_on,45,0,9,,,,,,,,3,,,,63,0
62640,note_on,3,0,8,,,,,,,,3,,,,74,49
62640,note_on,3,0,9,,,,,,,,3,,,,62,49
62640,note_on,0,0,5,,,,,,,,2,,,,74,85
62640,note_on,3,0,5,,,,,,,,2,,,,86,85
62654,note_on,30,0,6,,,,,,,,2,,,,62,0
62656,note_on,2,0,6,,,,,,,,2,,,,61,85
62685,note_on,0,0,5,,,,,,,,2,,,,86,0
62685,note_on,45,0,5,,,,,,,,2,,,,74,0
62685,note_on,45,0,8,,,,,,,,3,,,,74,0
62685,note_on,45,0,9,,,,,,,,3,,,,62,0
62686,note_on,30,0,6,,,,,,,,2,,,,61,0
62688,note_on,3,0,5,,,,,,,,2,,,,86,85
62688,note_on,3,0,9,,,,,,,,3,,,,62,49
62688,note_on,3,0,8,,,,,,,,3,,,,72,49
62688,note_on,0,0,5,,,,,,,,2,,,,74,85
62688,note_on,2,0,6,,,,,,,,2,,,,62,85
62718,note_on,30,0,6,,,,,,,,2,,,,62,0
62720,note_on,2,0,6,,,,,,,,2,,,,61,85
62727,note_on,39,0,8,,,,,,,,3,,,,72,0
62727,note_on,39,0,9,,,,,,,,3,,,,62,0
62750,note_on,30,0,6,,,,,,,,2,,,,61,0
62752,note_on,2,0,6,,,,,,,,2,,,,62,85
62769,note_on,177,0,11,,,,,,,,3,,,,46,0
62769,note_on,177,0,10,,,,,,,,3,,,,53,0
62777,note_on,0,0,5,,,,,,,,2,,,,86,0
62777,note_on,89,0,5,,,,,,,,2,,,,74,0
62782,note_on,30,0,6,,,,,,,,2,,,,62,0
62784,note_on,15,0,11,,,,,,,,3,,,,41,49
62784,note_on,15,0,10,,,,,,,,3,,,,50,49
62784,note_on,2,0,6,,,,,,,,2,,,,53,85
62814,note_on,30,0,6,,,,,,,,2,,,,53,0
62816,note_on,2,0,6,,,,,,,,2,,,,62,85
62846,note_on,30,0,6,,,,,,,,2,,,,62,0
62848,note_on,2,0,6,,,,,,,,2,,,,61,85
62878,note_on,30,0,6,,,,,,,,2,,,,61,0
62880,note_on,153,0,8,,,,,,,,3,,,,69,49
62880,note_on,103,0,5,,,,,,,,2,,,,81,85
62880,note_on,0,0,5,,,,,,,,2,,,,69,85
62880,note_on,153,0,9,,,,,,,,3,,,,57,49
62880,note_on,2,0,6,,,,,,,,2,,,,62,85
62910,note_on,30,0,6,,,,,,,,2,,,,62,0
62912,note_on,2,0,6,,,,,,,,2,,,,61,85
62942,note_on,30,0,6,,,,,,,,2,,,,61,0
62944,note_on,2,0,6,,,,,,,,2,,,,62,85
62961,note_on,177,0,11,,,,,,,,3,,,,41,0
62969,note_on,89,0,8,,,,,,,,3,,,,69,0
62969,note_on,0,0,5,,,,,,,,2,,,,81,0
62969,note_on,89,0,5,,,,,,,,2,,,,69,0
62969,note_on,89,0,9,,,,,,,,3,,,,57,0
62974,note_on,30,0,6,,,,,,,,2,,,,62,0
62976,note_on,15,0,11,,,,,,,,3,,,,43,49
62976,note_on,0,0,5,,,,,,,,2,,,,72,85
62976,note_on,2,0,6,,,,,,,,2,,,,55,85
62976,note_on,7,0,9,,,,,,,,3,,,,60,49
62976,note_on,7,0,8,,,,,,,,3,,,,72,49
62976,note_on,7,0,5,,,,,,,,2,,,,84,85
63006,note_on,30,0,6,,,,,,,,2,,,,55,0
63008,note_on,2,0,6,,,,,,,,2,,,,62,85
63021,note_on,45,0,9,,,,,,,,3,,,,60,0
63021,note_on,45,0,5,,,,,,,,2,,,,72,0
63021,note_on,0,0,5,,,,,,,,2,,,,84,0
63021,note_on,45,0,8,,,,,,,,3,,,,72,0
63024,note_on,3,0,5,,,,,,,,2,,,,82,85
63024,note_on,0,0,5,,,,,,,,2,,,,70,85
63024,note_on,3,0,9,,,,,,,,3,,,,58,49
63024,note_on,3,0,8,,,,,,,,3,,,,70,49
63038,note_on,30,0,6,,,,,,,,2,,,,62,0
63040,note_on,2,0,6,,,,,,,,2,,,,61,85
63069,note_on,45,0,8,,,,,,,,3,,,,70,0
63069,note_on,45,0,5,,,,,,,,2,,,,70,0
63069,note_on,0,0,5,,,,,,,,2,,,,82,0
63069,note_on,45,0,9,,,,,,,,3,,,,58,0
63070,note_on,30,0,6,,,,,,,,2,,,,61,0
63072,note_on,3,0,5,,,,,,,,2,,,,82,85
63072,note_on,3,0,9,,,,,,,,3,,,,58,49
63072,note_on,3,0,8,,,,,,,,3,,,,70,49
63072,note_on,2,0,6,,,,,,,,2,,,,62,85
63072,note_on,0,0,5,,,,,,,,2,,,,70,85
63102,note_on,30,0,6,,,,,,,,2,,,,62,0
63104,note_on,2,0,6,,,,,,,,2,,,,61,85
63111,note_on,39,0,8,,,,,,,,3,,,,70,0
63134,note_on,30,0,6,,,,,,,,2,,,,61,0
63136,note_on,2,0,6,,,,,,,,2,,,,62,85
63153,note_on,369,0,10,,,,,,,,3,,,,50,0
63161,note_on,89,0,9,,,,,,,,3,,,,58,0
63161,note_on,0,0,5,,,,,,,,2,,,,82,0
63161,note_on,89,0,5,,,,,,,,2,,,,70,0
63166,note_on,30,0,6,,,,,,,,2,,,,62,0
63168,note_on,2,0,6,,,,,,,,2,,,,55,85
63168,note_on,15,0,10,,,,,,,,3,,,,62,49
63198,note_on,30,0,6,,,,,,,,2,,,,55,0
63200,note_on,2,0,6,,,,,,,,2,,,,62,85
63230,note_on,30,0,6,,,,,,,,2,,,,62,0
63232,note_on,2,0,6,,,,,,,,2,,,,61,85
63262,note_on,30,0,6,,,,,,,,2,,,,61,0
63264,note_on,153,0,8,,,,,,,,3,,,,79,49
63264,note_on,103,0,9,,,,,,,,3,,,,70,49
63264,note_on,103,0,5,,,,,,,,2,,,,79,85
63264,note_on,2,0,6,,,,,,,,2,,,,62,85
63264,note_on,0,0,5,,,,,,,,2,,,,76,85
63294,note_on,30,0,6,,,,,,,,2,,,,62,0
63296,note_on,2,0,6,,,,,,,,2,,,,61,85
63303,note_on,39,0,9,,,,,,,,3,,,,70,0
63303,note_on,39,0,8,,,,,,,,3,,,,79,0
63326,note_on,30,0,6,,,,,,,,2,,,,61,0
63328,note_on,2,0,6,,,,,,,,2,,,,62,85
63330,note_on,354,0,11,,,,,,,,3,,,,43,0
63345,note_on,177,0,10,,,,,,,,3,,,,62,0
63353,note_on,89,0,5,,,,,,,,2,,,,76,0
63353,note_on,0,0,5,,,,,,,,2,,,,79,0
63358,note_on,30,0,6,,,,,,,,2,,,,62,0
63360,note_on,15,0,10,,,,,,,,3,,,,57,49
63360,note_on,7,0,5,,,,,,,,2,,,,77,85
63360,note_on,57,0,8,,,,,,,,3,,,,77,49
63360,note_on,57,0,9,,,,,,,,3,,,,74,49
63360,note_on,30,0,11,,,,,,,,3,,,,45,49
63360,note_on,2,0,6,,,,,,,,2,,,,57,85
63390,note_on,30,0,6,,,,,,,,2,,,,57,0
63390,note_on,30,0,5,,,,,,,,2,,,,77,0
63392,note_on,2,0,6,,,,,,,,2,,,,65,85
63392,note_on,2,0,5,,,,,,,,2,,,,81,85
63399,note_on,39,0,10,,,,,,,,3,,,,57,0
63399,note_on,39,0,8,,,,,,,,3,,,,77,0
63399,note_on,39,0,9,,,,,,,,3,,,,74,0
63422,note_on,30,0,6,,,,,,,,2,,,,65,0
63422,note_on,30,0,5,,,,,,,,2,,,,81,0
63424,note_on,2,0,6,,,,,,,,2,,,,64,85
63424,note_on,2,0,5,,,,,,,,2,,,,80,85
63449,note_on,89,0,11,,,,,,,,3,,,,45,0
63454,note_on,30,0,5,,,,,,,,2,,,,80,0
63454,note_on,30,0,6,,,,,,,,2,,,,64,0
63456,note_on,2,0,5,,,,,,,,2,,,,81,85
63456,note_on,2,0,6,,,,,,,,2,,,,65,85
63486,note_on,30,0,5,,,,,,,,2,,,,81,0
63486,note_on,30,0,6,,,,,,,,2,,,,65,0
63488,note_on,2,0,6,,,,,,,,2,,,,64,85
63488,note_on,2,0,5,,,,,,,,2,,,,80,85
63518,note_on,30,0,6,,,,,,,,2,,,,64,0
63518,note_on,30,0,5,,,,,,,,2,,,,80,0
63520,note_on,2,0,6,,,,,,,,2,,,,65,85
63520,note_on,2,0,5,,,,,,,,2,,,,81,85
63550,note_on,30,0,6,,,,,,,,2,,,,65,0
63550,note_on,30,0,5,,,,,,,,2,,,,81,0
63552,note_on,153,0,10,,,,,,,,3,,,,64,49
63552,note_on,153,0,8,,,,,,,,3,,,,73,49
63552,note_on,103,0,11,,,,,,,,3,,,,45,49
63552,note_on,153,0,9,,,,,,,,3,,,,67,49
63552,note_on,2,0,5,,,,,,,,2,,,,69,85
63552,note_on,2,0,6,,,,,,,,2,,,,57,85
63582,note_on,30,0,5,,,,,,,,2,,,,69,0
63582,note_on,30,0,6,,,,,,,,2,,,,57,0
63584,note_on,2,0,6,,,,,,,,2,,,,64,85
63584,note_on,2,0,5,,,,,,,,2,,,,73,85
63591,note_on,39,0,9,,,,,,,,3,,,,67,0
63591,note_on,39,0,8,,,,,,,,3,,,,73,0
63591,note_on,39,0,10,,,,,,,,3,,,,64,0
63614,note_on,30,0,5,,,,,,,,2,,,,73,0
63614,note_on,30,0,6,,,,,,,,2,,,,64,0
63616,note_on,2,0,5,,,,,,,,2,,,,71,85
63616,note_on,2,0,6,,,,,,,,2,,,,62,85
63641,note_on,89,0,11,,,,,,,,3,,,,45,0
63646,note_on,30,0,5,,,,,,,,2,,,,71,0
63646,note_on,30,0,6,,,,,,,,2,,,,62,0
63648,note_on,2,0,5,,,,,,,,2,,,,73,85
63648,note_on,2,0,6,,,,,,,,2,,,,64,85
63678,note_on,30,0,5,,,,,,,,2,,,,73,0
63678,note_on,30,0,6,,,,,,,,2,,,,64,0
63680,note_on,2,0,6,,,,,,,,2,,,,62,85
63680,note_on,2,0,5,,,,,,,,2,,,,71,85
63710,note_on,30,0,5,,,,,,,,2,,,,71,0
63710,note_on,30,0,6,,,,,,,,2,,,,62,0
63712,note_on,2,0,6,,,,,,,,2,,,,64,85
63712,note_on,2,0,5,,,,,,,,2,,,,73,85
63742,note_on,30,0,6,,,,,,,,2,,,,64,0
63742,note_on,30,0,5,,,,,,,,2,,,,73,0
63744,note_on,153,0,8,,,,,,,,3,,,,74,49
63744,note_on,103,0,11,,,,,,,,3,,,,38,49
63744,note_on,153,0,9,,,,,,,,3,,,,65,49
63744,note_on,2,0,5,,,,,,,,2,,,,74,85
63744,note_on,2,0,6,,,,,,,,2,,,,62,85
63744,note_on,153,0,10,,,,,,,,3,,,,62,49
63774,note_on,30,0,5,,,,,,,,2,,,,74,0
63776,note_on,2,0,5,,,,,,,,2,,,,69,85
63806,note_on,30,0,5,,,,,,,,2,,,,69,0
63808,note_on,2,0,5,,,,,,,,2,,,,65,85
63833,note_on,89,0,10,,,,,,,,3,,,,62,0
63833,note_on,89,0,8,,,,,,,,3,,,,74,0
63833,note_on,89,0,9,,,,,,,,3,,,,65,0
63833,note_on,89,0,11,,,,,,,,3,,,,38,0
63833,note_on,89,0,6,,,,,,,,2,,,,62,0
63838,note_on,30,0,5,,,,,,,,2,,,,65,0
63840,note_on,7,0,8,,,,,,,,3,,,,77,49
63840,note_on,7,0,11,,,,,,,,3,,,,41,49
63840,note_on,2,0,5,,,,,,,,2,,,,77,85
63840,note_on,7,0,10,,,,,,,,3,,,,69,49
63840,note_on,0,0,6,,,,,,,,2,,,,41,85
63840,note_on,7,0,6,,,,,,,,2,,,,53,85
63840,note_on,7,0,9,,,,,,,,3,,,,74,49
63870,note_on,30,0,5,,,,,,,,2,,,,77,0
63872,note_on,2,0,5,,,,,,,,2,,,,74,85
63902,note_on,30,0,5,,,,,,,,2,,,,74,0
63904,note_on,2,0,5,,,,,,,,2,,,,69,85
63929,note_on,0,0,6,,,,,,,,2,,,,53,0
63929,note_on,89,0,6,,,,,,,,2,,,,41,0
63929,note_on,89,0,8,,,,,,,,3,,,,77,0
63929,note_on,89,0,10,,,,,,,,3,,,,69,0
63929,note_on,89,0,11,,,,,,,,3,,,,41,0
63934,note_on,30,0,5,,,,,,,,2,,,,69,0
63936,note_on,7,0,6,,,,,,,,2,,,,55,85
63936,note_on,7,0,11,,,,,,,,3,,,,43,49
63936,note_on,7,0,10,,,,,,,,3,,,,70,49
63936,note_on,0,0,6,,,,,,,,2,,,,43,85
63936,note_on,2,0,5,,,,,,,,2,,,,76,85
63936,note_on,7,0,8,,,,,,,,3,,,,76,49
63966,note_on,30,0,5,,,,,,,,2,,,,76,0
63968,note_on,2,0,5,,,,,,,,2,,,,74,85
63998,note_on,30,0,5,,,,,,,,2,,,,74,0
64000,note_on,2,0,5,,,,,,,,2,,,,70,85
64017,note_on,177,0,9,,,,,,,,3,,,,74,0
64025,note_on,89,0,6,,,,,,,,2,,,,43,0
64025,note_on,0,0,6,,,,,,,,2,,,,55,0
64025,note_on,89,0,11,,,,,,,,3,,,,43,0
64025,note_on,89,0,10,,,,,,,,3,,,,70,0
64030,note_on,30,0,5,,,,,,,,2,,,,70,0
64032,note_on,15,0,9,,,,,,,,3,,,,73,49
64032,note_on,0,0,6,,,,,,,,2,,,,45,85
64032,note_on,7,0,6,,,,,,,,2,,,,57,85
64032,note_on,2,0,5,,,,,,,,2,,,,81,85
64032,note_on,7,0,10,,,,,,,,3,,,,67,49
64032,note_on,7,0,11,,,,,,,,3,,,,45,49
64062,note_on,30,0,5,,,,,,,,2,,,,81,0
64064,note_on,2,0,5,,,,,,,,2,,,,76,85
64094,note_on,30,0,5,,,,,,,,2,,,,76,0
64096,note_on,2,0,5,,,,,,,,2,,,,73,85
64113,note_on,177,0,8,,,,,,,,3,,,,76,0
64121,note_on,89,0,9,,,,,,,,3,,,,73,0
64121,note_on,89,0,11,,,,,,,,3,,,,45,0
64121,note_on,89,0,10,,,,,,,,3,,,,67,0
64121,note_on,0,0,6,,,,,,,,2,,,,57,0
64121,note_on,89,0,6,,,,,,,,2,,,,45,0
64126,note_on,30,0,5,,,,,,,,2,,,,73,0
64128,note_on,7,0,10,,,,,,,,3,,,,65,49
64128,note_on,7,0,9,,,,,,,,3,,,,74,49
64128,note_on,15,0,8,,,,,,,,3,,,,74,49
64128,note_on,0,0,6,,,,,,,,2,,,,46,85
64128,note_on,2,0,5,,,,,,,,2,,,,77,85
64128,note_on,7,0,11,,,,,,,,3,,,,46,49
64128,note_on,7,0,6,,,,,,,,2,,,,58,85
64158,note_on,30,0,5,,,,,,,,2,,,,77,0
64160,note_on,2,0,5,,,,,,,,2,,,,74,85
64190,note_on,30,0,5,,,,,,,,2,,,,74,0
64192,note_on,2,0,5,,,,,,,,2,,,,70,85
64217,note_on,89,0,6,,,,,,,,2,,,,46,0
64217,note_on,89,0,11,,,,,,,,3,,,,46,0
64217,note_on,89,0,10,,,,,,,,3,,,,65,0
64217,note_on,0,0,6,,,,,,,,2,,,,58,0
64217,note_on,89,0,9,,,,,,,,3,,,,74,0
64217,note_on,89,0,8,,,,,,,,3,,,,74,0
64222,note_on,30,0,5,,,,,,,,2,,,,70,0
64224,note_on,0,0,1,,,,,,,,0,,,,74,49
64224,note_on,7,0,8,,,,,,,,3,,,,65,49
64224,note_on,7,0,11,,,,,,,,3,,,,41,49
64224,note_on,11646,0,1,,,,,,,,0,,,,77,49
64224,note_on,7,0,6,,,,,,,,2,,,,53,85
64224,note_on,7,0,10,,,,,,,,3,,,,57,49
64224,note_on,7,0,9,,,,,,,,3,,,,62,49
64224,note_on,0,0,6,,,,,,,,2,,,,41,85
64224,note_on,2,0,5,,,,,,,,2,,,,77,85
64254,note_on,30,0,5,,,,,,,,2,,,,77,0
64256,note_on,2,0,5,,,,,,,,2,,,,81,85
64286,note_on,30,0,5,,,,,,,,2,,,,81,0
64288,note_on,2,0,5,,,,,,,,2,,,,86,85
64313,note_on,89,0,10,,,,,,,,3,,,,57,0
64313,note_on,89,0,8,,,,,,,,3,,,,65,0
64313,note_on,89,0,6,,,,,,,,2,,,,41,0
64313,note_on,0,0,6,,,,,,,,2,,,,53,0
64313,note_on,89,0,11,,,,,,,,3,,,,41,0
64318,note_on,30,0,5,,,,,,,,2,,,,86,0
64320,note_on,0,0,6,,,,,,,,2,,,,43,85
64320,note_on,7,0,6,,,,,,,,2,,,,55,85
64320,note_on,7,0,11,,,,,,,,3,,,,43,49
64320,note_on,7,0,10,,,,,,,,3,,,,58,49
64320,note_on,2,0,5,,,,,,,,2,,,,76,85
64320,note_on,7,0,8,,,,,,,,3,,,,64,49
64350,note_on,30,0,5,,,,,,,,2,,,,76,0
64352,note_on,2,0,5,,,,,,,,2,,,,82,85
64382,note_on,30,0,5,,,,,,,,2,,,,82,0
64384,note_on,2,0,5,,,,,,,,2,,,,86,85
64401,note_on,177,0,9,,,,,,,,3,,,,62,0
64401,note_on,177,0,1,,,,,,,,0,,,,74,0
64401,note_on,0,0,1,,,,,,,,0,,,,77,0
64409,note_on,89,0,11,,,,,,,,3,,,,43,0
64409,note_on,89,0,6,,,,,,,,2,,,,43,0
64409,note_on,89,0,10,,,,,,,,3,,,,58,0
64409,note_on,0,0,6,,,,,,,,2,,,,55,0
64414,note_on,30,0,5,,,,,,,,2,,,,86,0
64416,note_on,2,0,5,,,,,,,,2,,,,76,85
64416,note_on,7,0,11,,,,,,,,3,,,,45,49
64416,note_on,15,0,9,,,,,,,,3,,,,61,49
64416,note_on,0,0,1,,,,,,,,0,,,,73,49
64416,note_on,7,0,10,,,,,,,,3,,,,57,49
64416,note_on,7,0,6,,,,,,,,2,,,,57,85
64416,note_on,0,0,6,,,,,,,,2,,,,45,85
64416,note_on,15,0,1,,,,,,,,0,,,,76,49
64446,note_on,30,0,5,,,,,,,,2,,,,76,0
64448,note_on,2,0,5,,,,,,,,2,,,,81,85
64478,note_on,30,0,5,,,,,,,,2,,,,81,0
64480,note_on,2,0,5,,,,,,,,2,,,,85,85
64497,note_on,177,0,8,,,,,,,,3,,,,64,0
64505,note_on,89,0,9,,,,,,,,3,,,,61,0
64505,note_on,89,0,6,,,,,,,,2,,,,45,0
64505,note_on,89,0,11,,,,,,,,3,,,,45,0
64505,note_on,89,0,10,,,,,,,,3,,,,57,0
64505,note_on,0,0,1,,,,,,,,0,,,,76,0
64505,note_on,89,0,1,,,,,,,,0,,,,73,0
64505,note_on,0,0,6,,,,,,,,2,,,,57,0
64510,note_on,30,0,5,,,,,,,,2,,,,85,0
64512,note_on,7,0,10,,,,,,,,3,,,,57,49
64512,note_on,0,0,5,,,,,,,,2,,,,81,85
64512,note_on,0,0,5,,,,,,,,2,,,,77,85
64512,note_on,0,0,5,,,,,,,,2,,,,74,85
64512,note_on,2,0,5,,,,,,,,2,,,,86,85
64512,note_on,15,0,8,,,,,,,,3,,,,62,49
64512,note_on,7,0,9,,,,,,,,3,,,,62,49
64512,note_on,7,0,1,,,,,,,,0,,,,74,49
64512,note_on,12007,0,2,,,,,,,,0,,,,74,64
64512,note_on,7,0,6,,,,,,,,2,,,,50,85
64512,note_on,0,0,6,,,,,,,,2,,,,38,85
64512,note_on,7,0,11,,,,,,,,3,,,,38,49
64601,note_on,89,0,5,,,,,,,,2,,,,74,0
64601,note_on,89,0,6,,,,,,,,2,,,,38,0
64601,note_on,0,0,6,,,,,,,,2,,,,50,0
64601,note_on,0,0,5,,,,,,,,2,,,,86,0
64601,note_on,89,0,10,,,,,,,,3,,,,57,0
64601,note_on,0,0,5,,,,,,,,2,,,,77,0
64601,note_on,89,0,8,,,,,,,,3,,,,62,0
64601,note_on,89,0,2,,,,,,,,0,,,,74,0
64601,note_on,89,0,1,,,,,,,,0,,,,74,0
64601,note_on,0,0,5,,,,,,,,2,,,,81,0
64601,note_on,89,0,9,,,,,,,,3,,,,62,0
64601,note_on,89,0,11,,,,,,,,3,,,,38,0
64704,note_on,103,0,5,,,,,,,,2,,,,77,85
64704,note_on,103,0,6,,,,,,,,2,,,,62,85
64749,note_on,45,0,6,,,,,,,,2,,,,62,0
64749,note_on,45,0,5,,,,,,,,2,,,,77,0
64752,note_on,3,0,6,,,,,,,,2,,,,63,85
64752,note_on,3,0,5,,,,,,,,2,,,,79,85
64797,note_on,45,0,5,,,,,,,,2,,,,79,0
64797,note_on,45,0,6,,,,,,,,2,,,,63,0
64800,note_on,3,0,5,,,,,,,,2,,,,75,85
64800,note_on,3,0,6,,,,,,,,2,,,,60,85
64845,note_on,45,0,5,,,,,,,,2,,,,75,0
64845,note_on,45,0,6,,,,,,,,2,,,,60,0
64848,note_on,3,0,5,,,,,,,,2,,,,77,85
64848,note_on,3,0,6,,,,,,,,2,,,,62,85
64893,note_on,45,0,6,,,,,,,,2,,,,62,0
64893,note_on,45,0,5,,,,,,,,2,,,,77,0
64896,note_on,3,0,5,,,,,,,,2,,,,74,85
64896,note_on,3,0,6,,,,,,,,2,,,,58,85
64896,note_on,295,0,10,,,,,,,,3,,,,58,49
64896,note_on,295,0,11,,,,,,,,3,,,,46,49
64985,note_on,89,0,6,,,,,,,,2,,,,58,0
64985,note_on,89,0,11,,,,,,,,3,,,,46,0
64985,note_on,89,0,5,,,,,,,,2,,,,74,0
64992,note_on,391,0,9,,,,,,,,3,,,,62,49
64992,note_on,391,0,8,,,,,,,,3,,,,65,49
65031,note_on,39,0,8,,,,,,,,3,,,,65,0
65031,note_on,39,0,9,,,,,,,,3,,,,62,0
65088,note_on,103,0,5,,,,,,,,2,,,,74,85
65088,note_on,103,0,6,,,,,,,,2,,,,65,85
65088,note_on,57,0,8,,,,,,,,3,,,,65,49
65088,note_on,57,0,9,,,,,,,,3,,,,62,49
65133,note_on,45,0,6,,,,,,,,2,,,,65,0
65133,note_on,45,0,5,,,,,,,,2,,,,74,0
65136,note_on,3,0,6,,,,,,,,2,,,,67,85
65136,note_on,3,0,5,,,,,,,,2,,,,75,85
65177,note_on,89,0,9,,,,,,,,3,,,,62,0
65177,note_on,89,0,8,,,,,,,,3,,,,65,0
65181,note_on,45,0,6,,,,,,,,2,,,,67,0
65181,note_on,45,0,5,,,,,,,,2,,,,75,0
65184,note_on,7,0,9,,,,,,,,3,,,,65,49
65184,note_on,3,0,5,,,,,,,,2,,,,72,85
65184,note_on,7,0,8,,,,,,,,3,,,,70,49
65184,note_on,3,0,6,,,,,,,,2,,,,63,85
65229,note_on,45,0,6,,,,,,,,2,,,,63,0
65229,note_on,45,0,5,,,,,,,,2,,,,72,0
65232,note_on,3,0,6,,,,,,,,2,,,,65,85
65232,note_on,3,0,5,,,,,,,,2,,,,74,85
65250,note_on,354,0,10,,,,,,,,3,,,,58,0
65273,note_on,89,0,8,,,,,,,,3,,,,70,0
65273,note_on,89,0,9,,,,,,,,3,,,,65,0
65277,note_on,45,0,6,,,,,,,,2,,,,65,0
65277,note_on,45,0,5,,,,,,,,2,,,,74,0
65280,note_on,295,0,11,,,,,,,,3,,,,34,49
65280,note_on,30,0,10,,,,,,,,3,,,,70,49
65280,note_on,3,0,5,,,,,,,,2,,,,70,85
65280,note_on,3,0,6,,,,,,,,2,,,,62,85
65369,note_on,89,0,6,,,,,,,,2,,,,62,0
65369,note_on,89,0,11,,,,,,,,3,,,,34,0
65369,note_on,89,0,5,,,,,,,,2,,,,70,0
65376,note_on,103,0,8,,,,,,,,3,,,,70,49
65376,note_on,103,0,9,,,,,,,,3,,,,62,49
65415,note_on,39,0,8,,,,,,,,3,,,,70,0
65415,note_on,39,0,9,,,,,,,,3,,,,62,0
65472,note_on,57,0,8,,,,,,,,3,,,,70,49
65472,note_on,103,0,5,,,,,,,,2,,,,70,85
65472,note_on,57,0,9,,,,,,,,3,,,,62,49
65517,note_on,45,0,5,,,,,,,,2,,,,70,0
65520,note_on,3,0,5,,,,,,,,2,,,,72,85
65561,note_on,89,0,8,,,,,,,,3,,,,70,0
65561,note_on,89,0,9,,,,,,,,3,,,,62,0
65565,note_on,45,0,5,,,,,,,,2,,,,72,0
65568,note_on,7,0,9,,,,,,,,3,,,,65,49
65568,note_on,199,0,6,,,,,,,,2,,,,57,85
65568,note_on,3,0,5,,,,,,,,2,,,,69,85
65568,note_on,0,0,6,,,,,,,,2,,,,46,85
65568,note_on,7,0,8,,,,,,,,3,,,,74,49
65613,note_on,45,0,5,,,,,,,,2,,,,69,0
65616,note_on,3,0,5,,,,,,,,2,,,,70,85
65634,note_on,354,0,10,,,,,,,,3,,,,70,0
65657,note_on,89,0,9,,,,,,,,3,,,,65,0
65657,note_on,89,0,6,,,,,,,,2,,,,46,0
65657,note_on,89,0,8,,,,,,,,3,,,,74,0
65657,note_on,0,0,6,,,,,,,,2,,,,57,0
65661,note_on,45,0,5,,,,,,,,2,,,,70,0
65664,note_on,30,0,10,,,,,,,,3,,,,58,49
65664,note_on,295,0,11,,,,,,,,3,,,,39,49
65664,note_on,3,0,5,,,,,,,,2,,,,67,85
65664,note_on,12303,0,7,,,,,,,,2,,,,51,85
65664,note_on,7,0,6,,,,,,,,2,,,,58,85
65753,note_on,89,0,6,,,,,,,,2,,,,58,0
65753,note_on,89,0,10,,,,,,,,3,,,,58,0
65753,note_on,89,0,11,,,,,,,,3,,,,39,0
65753,note_on,89,0,5,,,,,,,,2,,,,67,0
65760,note_on,103,0,8,,,,,,,,3,,,,63,49
65760,note_on,7,0,5,,,,,,,,2,,,,75,85
65760,note_on,103,0,9,,,,,,,,3,,,,55,49
65760,note_on,7,0,6,,,,,,,,2,,,,55,85
65799,note_on,39,0,8,,,,,,,,3,,,,63,0
65799,note_on,39,0,9,,,,,,,,3,,,,55,0
65841,note_on,177,0,7,,,,,,,,2,,,,51,0
65856,note_on,103,0,11,,,,,,,,3,,,,36,49
65856,note_on,15,0,7,,,,,,,,2,,,,48,85
65856,note_on,57,0,9,,,,,,,,3,,,,55,49
65856,note_on,103,0,10,,,,,,,,3,,,,60,49
65856,note_on,57,0,8,,,,,,,,3,,,,63,49
65937,note_on,177,0,5,,,,,,,,2,,,,75,0
65937,note_on,177,0,6,,,,,,,,2,,,,55,0
65945,note_on,89,0,11,,,,,,,,3,,,,36,0
65945,note_on,89,0,8,,,,,,,,3,,,,63,0
65945,note_on,89,0,9,,,,,,,,3,,,,55,0
65945,note_on,89,0,10,,,,,,,,3,,,,60,0
65945,note_on,89,0,7,,,,,,,,2,,,,48,0
65952,note_on,7,0,9,,,,,,,,3,,,,63,49
65952,note_on,15,0,6,,,,,,,,2,,,,60,85
65952,note_on,7,0,8,,,,,,,,3,,,,67,49
65952,note_on,7,0,7,,,,,,,,2,,,,51,85
65952,note_on,15,0,5,,,,,,,,2,,,,72,85
66041,note_on,89,0,5,,,,,,,,2,,,,72,0
66041,note_on,89,0,8,,,,,,,,3,,,,67,0
66041,note_on,89,0,6,,,,,,,,2,,,,60,0
66041,note_on,89,0,7,,,,,,,,2,,,,51,0
66041,note_on,89,0,9,,,,,,,,3,,,,63,0
66048,note_on,7,0,6,,,,,,,,2,,,,60,85
66048,note_on,7,0,7,,,,,,,,2,,,,53,85
66048,note_on,103,0,10,,,,,,,,3,,,,60,49
66048,note_on,103,0,11,,,,,,,,3,,,,41,49
66048,note_on,7,0,5,,,,,,,,2,,,,70,85
66054,note_on,0,0,5,,,,,,,,2,,,,69,85
66054,note_on,6,0,5,,,,,,,,2,,,,70,0
66137,note_on,89,0,7,,,,,,,,2,,,,53,0
66137,note_on,89,0,6,,,,,,,,2,,,,60,0
66137,note_on,89,0,11,,,,,,,,3,,,,41,0
66137,note_on,83,0,5,,,,,,,,2,,,,69,0
66144,note_on,103,0,9,,,,,,,,3,,,,57,49
66144,note_on,7,0,5,,,,,,,,2,,,,72,85
66144,note_on,103,0,8,,,,,,,,3,,,,60,49
66183,note_on,39,0,8,,,,,,,,3,,,,60,0
66183,note_on,39,0,9,,,,,,,,3,,,,57,0
66189,note_on,45,0,5,,,,,,,,2,,,,72,0
66192,note_on,3,0,5,,,,,,,,2,,,,69,85
66225,note_on,177,0,10,,,,,,,,3,,,,60,0
66237,note_on,45,0,5,,,,,,,,2,,,,69,0
66240,note_on,3,0,5,,,,,,,,2,,,,77,85
66240,note_on,103,0,6,,,,,,,,2,,,,57,85
66240,note_on,57,0,9,,,,,,,,3,,,,57,49
66240,note_on,57,0,8,,,,,,,,3,,,,60,49
66285,note_on,45,0,6,,,,,,,,2,,,,57,0
66285,note_on,45,0,5,,,,,,,,2,,,,77,0
66288,note_on,3,0,6,,,,,,,,2,,,,58,85
66288,note_on,3,0,5,,,,,,,,2,,,,79,85
66329,note_on,89,0,8,,,,,,,,3,,,,60,0
66329,note_on,89,0,9,,,,,,,,3,,,,57,0
66333,note_on,45,0,5,,,,,,,,2,,,,79,0
66333,note_on,45,0,6,,,,,,,,2,,,,58,0
66336,note_on,3,0,5,,,,,,,,2,,,,75,85
66336,note_on,3,0,6,,,,,,,,2,,,,60,85
66336,note_on,7,0,8,,,,,,,,3,,,,69,49
66336,note_on,7,0,9,,,,,,,,3,,,,60,49
66381,note_on,45,0,5,,,,,,,,2,,,,75,0
66381,note_on,45,0,6,,,,,,,,2,,,,60,0
66384,note_on,3,0,5,,,,,,,,2,,,,77,85
66384,note_on,3,0,6,,,,,,,,2,,,,62,85
66425,note_on,89,0,8,,,,,,,,3,,,,69,0
66425,note_on,89,0,9,,,,,,,,3,,,,60,0
66429,note_on,45,0,5,,,,,,,,2,,,,77,0
66429,note_on,45,0,6,,,,,,,,2,,,,62,0
66432,note_on,295,0,11,,,,,,,,3,,,,46,49
66432,note_on,207,0,10,,,,,,,,3,,,,58,49
66432,note_on,3,0,6,,,,,,,,2,,,,58,85
66432,note_on,3,0,5,,,,,,,,2,,,,74,85
66521,note_on,89,0,11,,,,,,,,3,,,,46,0
66521,note_on,89,0,6,,,,,,,,2,,,,58,0
66521,note_on,89,0,5,,,,,,,,2,,,,74,0
66528,note_on,103,0,8,,,,,,,,3,,,,65,49
66528,note_on,103,0,9,,,,,,,,3,,,,62,49
66567,note_on,39,0,9,,,,,,,,3,,,,62,0
66567,note_on,39,0,8,,,,,,,,3,,,,65,0
66624,note_on,103,0,6,,,,,,,,2,,,,65,85
66624,note_on,57,0,9,,,,,,,,3,,,,62,49
66624,note_on,57,0,8,,,,,,,,3,,,,65,49
66624,note_on,103,0,5,,,,,,,,2,,,,74,85
66669,note_on,45,0,5,,,,,,,,2,,,,74,0
66669,note_on,45,0,6,,,,,,,,2,,,,65,0
66672,note_on,3,0,6,,,,,,,,2,,,,67,85
66672,note_on,3,0,5,,,,,,,,2,,,,75,85
66713,note_on,89,0,9,,,,,,,,3,,,,62,0
66713,note_on,89,0,8,,,,,,,,3,,,,65,0
66717,note_on,45,0,5,,,,,,,,2,,,,75,0
66717,note_on,45,0,6,,,,,,,,2,,,,67,0
66720,note_on,3,0,5,,,,,,,,2,,,,72,85
66720,note_on,3,0,6,,,,,,,,2,,,,63,85
66720,note_on,7,0,9,,,,,,,,3,,,,65,49
66720,note_on,7,0,8,,,,,,,,3,,,,70,49
66765,note_on,45,0,6,,,,,,,,2,,,,63,0
66765,note_on,45,0,5,,,,,,,,2,,,,72,0
66768,note_on,3,0,6,,,,,,,,2,,,,65,85
66768,note_on,3,0,5,,,,,,,,2,,,,74,85
66786,note_on,354,0,10,,,,,,,,3,,,,58,0
66809,note_on,89,0,8,,,,,,,,3,,,,70,0
66809,note_on,89,0,9,,,,,,,,3,,,,65,0
66813,note_on,45,0,6,,,,,,,,2,,,,65,0
66813,note_on,45,0,5,,,,,,,,2,,,,74,0
66816,note_on,3,0,5,,,,,,,,2,,,,70,85
66816,note_on,3,0,6,,,,,,,,2,,,,62,85
66816,note_on,295,0,11,,,,,,,,3,,,,34,49
66816,note_on,30,0,10,,,,,,,,3,,,,70,49
66905,note_on,89,0,6,,,,,,,,2,,,,62,0
66905,note_on,89,0,5,,,,,,,,2,,,,70,0
66905,note_on,89,0,11,,,,,,,,3,,,,34,0
66912,note_on,103,0,9,,,,,,,,3,,,,62,49
66912,note_on,103,0,8,,,,,,,,3,,,,70,49
66951,note_on,39,0,9,,,,,,,,3,,,,62,0
66951,note_on,39,0,8,,,,,,,,3,,,,70,0
67008,note_on,57,0,8,,,,,,,,3,,,,70,49
67008,note_on,103,0,5,,,,,,,,2,,,,70,85
67008,note_on,57,0,9,,,,,,,,3,,,,62,49
67053,note_on,45,0,5,,,,,,,,2,,,,70,0
67056,note_on,3,0,5,,,,,,,,2,,,,72,85
67097,note_on,89,0,8,,,,,,,,3,,,,70,0
67097,note_on,89,0,9,,,,,,,,3,,,,62,0
67101,note_on,45,0,5,,,,,,,,2,,,,72,0
67104,note_on,3,0,5,,,,,,,,2,,,,69,85
67104,note_on,7,0,9,,,,,,,,3,,,,65,49
67104,note_on,7,0,8,,,,,,,,3,,,,74,49
67104,note_on,199,0,6,,,,,,,,2,,,,58,85
67104,note_on,967,0,7,,,,,,,,2,,,,46,85
67149,note_on,45,0,5,,,,,,,,2,,,,69,0
67152,note_on,3,0,5,,,,,,,,2,,,,70,85
67170,note_on,354,0,10,,,,,,,,3,,,,70,0
67193,note_on,89,0,7,,,,,,,,2,,,,46,0
67193,note_on,89,0,8,,,,,,,,3,,,,74,0
67193,note_on,89,0,9,,,,,,,,3,,,,65,0
67197,note_on,45,0,5,,,,,,,,2,,,,70,0
67200,note_on,7,0,7,,,,,,,,2,,,,51,85
67200,note_on,30,0,10,,,,,,,,3,,,,58,49
67200,note_on,295,0,11,,,,,,,,3,,,,39,49
67200,note_on,3,0,5,,,,,,,,2,,,,67,85
67245,note_on,45,0,5,,,,,,,,2,,,,67,0
67248,note_on,3,0,5,,,,,,,,2,,,,72,85
67289,note_on,185,0,6,,,,,,,,2,,,,58,0
67289,note_on,89,0,10,,,,,,,,3,,,,58,0
67293,note_on,45,0,5,,,,,,,,2,,,,72,0
67296,note_on,7,0,10,,,,,,,,3,,,,60,49
67296,note_on,103,0,8,,,,,,,,3,,,,75,49
67296,note_on,103,0,9,,,,,,,,3,,,,67,49
67296,note_on,3,0,5,,,,,,,,2,,,,75,85
67296,note_on,7,0,6,,,,,,,,2,,,,60,85
67341,note_on,45,0,5,,,,,,,,2,,,,75,0
67344,note_on,3,0,5,,,,,,,,2,,,,72,85
67377,note_on,177,0,11,,,,,,,,3,,,,39,0
67377,note_on,177,0,7,,,,,,,,2,,,,51,0
67385,note_on,89,0,8,,,,,,,,3,,,,75,0
67385,note_on,89,0,9,,,,,,,,3,,,,67,0
67389,note_on,45,0,5,,,,,,,,2,,,,72,0
67392,note_on,15,0,11,,,,,,,,3,,,,41,49
67392,note_on,15,0,7,,,,,,,,2,,,,53,85
67392,note_on,3,0,5,,,,,,,,2,,,,70,85
67398,note_on,0,0,5,,,,,,,,2,,,,69,85
67398,note_on,6,0,5,,,,,,,,2,,,,70,0
67473,note_on,177,0,6,,,,,,,,2,,,,60,0
67473,note_on,177,0,10,,,,,,,,3,,,,60,0
67481,note_on,83,0,5,,,,,,,,2,,,,69,0
67488,note_on,103,0,9,,,,,,,,3,,,,63,49
67488,note_on,15,0,10,,,,,,,,3,,,,60,49
67488,note_on,15,0,6,,,,,,,,2,,,,63,85
67488,note_on,103,0,8,,,,,,,,3,,,,65,49
67488,note_on,7,0,5,,,,,,,,2,,,,67,85
67533,note_on,45,0,5,,,,,,,,2,,,,67,0
67536,note_on,3,0,5,,,,,,,,2,,,,69,85
67569,note_on,177,0,7,,,,,,,,2,,,,53,0
67569,note_on,177,0,11,,,,,,,,3,,,,41,0
67577,note_on,89,0,6,,,,,,,,2,,,,63,0
67577,note_on,89,0,9,,,,,,,,3,,,,63,0
67577,note_on,89,0,8,,,,,,,,3,,,,65,0
67577,note_on,89,0,10,,,,,,,,3,,,,60,0
67581,note_on,45,0,5,,,,,,,,2,,,,69,0
67584,note_on,7,0,10,,,,,,,,3,,,,58,49
67584,note_on,3,0,5,,,,,,,,2,,,,70,85
67584,note_on,7,0,9,,,,,,,,3,,,,62,49
67584,note_on,0,0,6,,,,,,,,2,,,,58,85
67584,note_on,7,0,6,,,,,,,,2,,,,62,85
67584,note_on,15,0,11,,,,,,,,3,,,,34,49
67584,note_on,7,0,8,,,,,,,,3,,,,67,49
67673,note_on,89,0,10,,,,,,,,3,,,,58,0
67673,note_on,89,0,9,,,,,,,,3,,,,62,0
67673,note_on,0,0,6,,,,,,,,2,,,,62,0
67673,note_on,89,0,6,,,,,,,,2,,,,58,0
67673,note_on,89,0,11,,,,,,,,3,,,,34,0
67673,note_on,89,0,5,,,,,,,,2,,,,70,0
67673,note_on,89,0,8,,,,,,,,3,,,,67,0
67680,note_on,7,0,8,,,,,,,,3,,,,58,49
67680,note_on,7,0,6,,,,,,,,2,,,,46,85
67769,note_on,89,0,8,,,,,,,,3,,,,58,0
67769,note_on,89,0,6,,,,,,,,2,,,,46,0
67776,note_on,7,0,8,,,,,,,,3,,,,77,64
67776,note_on,103,0,9,,,,,,,,3,,,,74,64
67821,note_on,45,0,9,,,,,,,,3,,,,74,0
67821,note_on,45,0,8,,,,,,,,3,,,,77,0
67824,note_on,3,0,8,,,,,,,,3,,,,79,64
67824,note_on,3,0,9,,,,,,,,3,,,,75,64
67869,note_on,45,0,9,,,,,,,,3,,,,75,0
67869,note_on,45,0,8,,,,,,,,3,,,,79,0
67872,note_on,3,0,8,,,,,,,,3,,,,75,64
67872,note_on,3,0,9,,,,,,,,3,,,,72,64
67917,note_on,45,0,8,,,,,,,,3,,,,75,0
67917,note_on,45,0,9,,,,,,,,3,,,,72,0
67920,note_on,3,0,9,,,,,,,,3,,,,74,64
67920,note_on,3,0,8,,,,,,,,3,,,,77,64
67965,note_on,45,0,9,,,,,,,,3,,,,74,0
67965,note_on,45,0,8,,,,,,,,3,,,,77,0
67968,note_on,3,0,9,,,,,,,,3,,,,70,64
67968,note_on,0,0,3,,,,,,,,1,,,,58,64
67968,note_on,3367,0,2,,,,,,,,0,,,,74,64
67968,note_on,3,0,8,,,,,,,,3,,,,74,64
67968,note_on,295,0,11,,,,,,,,3,,,,34,64
67968,note_on,15463,0,3,,,,,,,,1,,,,70,64
67968,note_on,3367,0,1,,,,,,,,0,,,,77,49
67968,note_on,295,0,10,,,,,,,,3,,,,58,64
68013,note_on,45,0,1,,,,,,,,0,,,,77,0
68013,note_on,45,0,2,,,,,,,,0,,,,74,0
68016,note_on,3,0,1,,,,,,,,0,,,,79,49
68016,note_on,3,0,2,,,,,,,,0,,,,75,64
68057,note_on,89,0,11,,,,,,,,3,,,,34,0
68057,note_on,89,0,9,,,,,,,,3,,,,70,0
68057,note_on,89,0,8,,,,,,,,3,,,,74,0
68057,note_on,89,0,10,,,,,,,,3,,,,58,0
68061,note_on,45,0,2,,,,,,,,0,,,,75,0
68061,note_on,45,0,1,,,,,,,,0,,,,79,0
68064,note_on,7,0,10,,,,,,,,3,,,,70,64
68064,note_on,3,0,2,,,,,,,,0,,,,72,64
68064,note_on,7,0,11,,,,,,,,3,,,,46,64
68064,note_on,3,0,1,,,,,,,,0,,,,75,49
68109,note_on,45,0,1,,,,,,,,0,,,,75,0
68109,note_on,45,0,2,,,,,,,,0,,,,72,0
68112,note_on,3,0,1,,,,,,,,0,,,,77,49
68112,note_on,3,0,2,,,,,,,,0,,,,74,64
68153,note_on,89,0,11,,,,,,,,3,,,,46,0
68153,note_on,89,0,10,,,,,,,,3,,,,70,0
68157,note_on,45,0,1,,,,,,,,0,,,,77,0
68157,note_on,45,0,2,,,,,,,,0,,,,74,0
68160,note_on,103,0,9,,,,,,,,3,,,,65,64
68160,note_on,3,0,1,,,,,,,,0,,,,74,49
68160,note_on,103,0,8,,,,,,,,3,,,,74,64
68160,note_on,7,0,11,,,,,,,,3,,,,46,64
68160,note_on,3,0,2,,,,,,,,0,,,,70,64
68160,note_on,7,0,10,,,,,,,,3,,,,70,64
68205,note_on,45,0,8,,,,,,,,3,,,,74,0
68205,note_on,45,0,9,,,,,,,,3,,,,65,0
68208,note_on,3,0,8,,,,,,,,3,,,,75,64
68208,note_on,3,0,9,,,,,,,,3,,,,67,64
68249,note_on,89,0,10,,,,,,,,3,,,,70,0
68249,note_on,89,0,1,,,,,,,,0,,,,74,0
68249,note_on,89,0,11,,,,,,,,3,,,,46,0
68249,note_on,89,0,2,,,,,,,,0,,,,70,0
68253,note_on,45,0,8,,,,,,,,3,,,,75,0
68253,note_on,45,0,9,,,,,,,,3,,,,67,0
68256,note_on,7,0,10,,,,,,,,3,,,,70,64
68256,note_on,3,0,8,,,,,,,,3,,,,72,64
68256,note_on,3,0,9,,,,,,,,3,,,,63,64
68256,note_on,7,0,11,,,,,,,,3,,,,46,64
68301,note_on,45,0,8,,,,,,,,3,,,,72,0
68301,note_on,45,0,9,,,,,,,,3,,,,63,0
68304,note_on,3,0,8,,,,,,,,3,,,,74,64
68304,note_on,3,0,9,,,,,,,,3,,,,65,64
68345,note_on,89,0,11,,,,,,,,3,,,,46,0
68345,note_on,89,0,10,,,,,,,,3,,,,70,0
68349,note_on,45,0,8,,,,,,,,3,,,,74,0
68349,note_on,45,0,9,,,,,,,,3,,,,65,0
68352,note_on,103,0,1,,,,,,,,0,,,,74,49
68352,note_on,3,0,8,,,,,,,,3,,,,70,64
68352,note_on,103,0,2,,,,,,,,0,,,,65,64
68352,note_on,3,0,9,,,,,,,,3,,,,62,64
68352,note_on,7,0,10,,,,,,,,3,,,,58,64
68352,note_on,7,0,11,,,,,,,,3,,,,34,64
68397,note_on,45,0,2,,,,,,,,0,,,,65,0
68397,note_on,45,0,1,,,,,,,,0,,,,74,0
68400,note_on,3,0,2,,,,,,,,0,,,,67,64
68400,note_on,3,0,1,,,,,,,,0,,,,75,49
68441,note_on,89,0,10,,,,,,,,3,,,,58,0
68441,note_on,89,0,9,,,,,,,,3,,,,62,0
68441,note_on,89,0,11,,,,,,,,3,,,,34,0
68441,note_on,89,0,8,,,,,,,,3,,,,70,0
68445,note_on,45,0,2,,,,,,,,0,,,,67,0
68445,note_on,45,0,1,,,,,,,,0,,,,75,0
68448,note_on,3,0,2,,,,,,,,0,,,,63,64
68448,note_on,3,0,1,,,,,,,,0,,,,72,49
68448,note_on,7,0,10,,,,,,,,3,,,,70,64
68448,note_on,7,0,11,,,,,,,,3,,,,46,64
68493,note_on,45,0,1,,,,,,,,0,,,,72,0
68493,note_on,45,0,2,,,,,,,,0,,,,63,0
68496,note_on,3,0,1,,,,,,,,0,,,,74,49
68496,note_on,3,0,2,,,,,,,,0,,,,65,64
68537,note_on,89,0,10,,,,,,,,3,,,,70,0
68537,note_on,89,0,11,,,,,,,,3,,,,46,0
68541,note_on,45,0,1,,,,,,,,0,,,,74,0
68541,note_on,45,0,2,,,,,,,,0,,,,65,0
68544,note_on,3,0,2,,,,,,,,0,,,,62,64
68544,note_on,3,0,1,,,,,,,,0,,,,70,49
68544,note_on,103,0,9,,,,,,,,3,,,,62,64
68544,note_on,7,0,11,,,,,,,,3,,,,46,64
68544,note_on,103,0,8,,,,,,,,3,,,,70,64
68544,note_on,7,0,10,,,,,,,,3,,,,70,64
68589,note_on,45,0,8,,,,,,,,3,,,,70,0
68589,note_on,45,0,9,,,,,,,,3,,,,62,0
68592,note_on,3,0,8,,,,,,,,3,,,,72,64
68592,note_on,3,0,9,,,,,,,,3,,,,63,64
68633,note_on,89,0,2,,,,,,,,0,,,,62,0
68633,note_on,89,0,11,,,,,,,,3,,,,46,0
68633,note_on,89,0,10,,,,,,,,3,,,,70,0
68633,note_on,89,0,1,,,,,,,,0,,,,70,0
68637,note_on,45,0,8,,,,,,,,3,,,,72,0
68637,note_on,45,0,9,,,,,,,,3,,,,63,0
68640,note_on,3,0,8,,,,,,,,3,,,,69,64
68640,note_on,3,0,9,,,,,,,,3,,,,65,64
68640,note_on,7,0,11,,,,,,,,3,,,,46,64
68640,note_on,7,0,10,,,,,,,,3,,,,58,64
68685,note_on,45,0,9,,,,,,,,3,,,,65,0
68685,note_on,45,0,8,,,,,,,,3,,,,69,0
68688,note_on,3,0,9,,,,,,,,3,,,,67,64
68688,note_on,3,0,8,,,,,,,,3,,,,70,64
68706,note_on,738,0,3,,,,,,,,1,,,,58,0
68706,note_on,0,0,3,,,,,,,,1,,,,70,0
68729,note_on,89,0,10,,,,,,,,3,,,,58,0
68729,note_on,89,0,11,,,,,,,,3,,,,46,0
68733,note_on,45,0,9,,,,,,,,3,,,,67,0
68733,note_on,45,0,8,,,,,,,,3,,,,70,0
68736,note_on,3,0,9,,,,,,,,3,,,,63,64
68736,note_on,3,0,8,,,,,,,,3,,,,67,64
68736,note_on,7,0,11,,,,,,,,3,,,,39,64
68736,note_on,7,0,10,,,,,,,,3,,,,58,64
68825,note_on,89,0,10,,,,,,,,3,,,,58,0
68825,note_on,89,0,9,,,,,,,,3,,,,63,0
68825,note_on,89,0,8,,,,,,,,3,,,,67,0
68832,note_on,7,0,9,,,,,,,,3,,,,65,64
68832,note_on,199,0,1,,,,,,,,0,,,,72,49
68832,note_on,199,0,2,,,,,,,,0,,,,67,64
68832,note_on,7,0,8,,,,,,,,3,,,,75,64
68832,note_on,7,0,10,,,,,,,,3,,,,60,64
68913,note_on,177,0,11,,,,,,,,3,,,,39,0
68921,note_on,89,0,2,,,,,,,,0,,,,67,0
68921,note_on,89,0,1,,,,,,,,0,,,,72,0
68928,note_on,15,0,11,,,,,,,,3,,,,36,64
68928,note_on,7,0,2,,,,,,,,0,,,,75,64
68928,note_on,7,0,1,,,,,,,,0,,,,79,49
69009,note_on,177,0,8,,,,,,,,3,,,,75,0
69009,note_on,177,0,9,,,,,,,,3,,,,65,0
69009,note_on,177,0,10,,,,,,,,3,,,,60,0
69017,note_on,89,0,1,,,,,,,,0,,,,79,0
69024,note_on,7,0,1,,,,,,,,0,,,,84,49
69024,note_on,15,0,8,,,,,,,,3,,,,72,64
69024,note_on,15,0,9,,,,,,,,3,,,,65,64
69024,note_on,15,0,10,,,,,,,,3,,,,60,64
69105,note_on,177,0,2,,,,,,,,0,,,,75,0
69105,note_on,177,0,11,,,,,,,,3,,,,36,0
69113,note_on,89,0,10,,,,,,,,3,,,,60,0
69113,note_on,89,0,9,,,,,,,,3,,,,65,0
69113,note_on,89,0,8,,,,,,,,3,,,,72,0
69113,note_on,89,0,1,,,,,,,,0,,,,84,0
69120,note_on,7,0,9,,,,,,,,3,,,,70,64
69120,note_on,15,0,2,,,,,,,,0,,,,74,64
69120,note_on,7,0,10,,,,,,,,3,,,,65,64
69120,note_on,7,0,8,,,,,,,,3,,,,70,64
69120,note_on,7,0,1,,,,,,,,0,,,,82,49
69120,note_on,15,0,11,,,,,,,,3,,,,41,64
69126,note_on,6,0,1,,,,,,,,0,,,,82,0
69126,note_on,0,0,2,,,,,,,,0,,,,72,64
69126,note_on,0,0,1,,,,,,,,0,,,,81,49
69126,note_on,6,0,2,,,,,,,,0,,,,74,0
69126,note_on,0,0,8,,,,,,,,3,,,,69,64
69126,note_on,6,0,8,,,,,,,,3,,,,70,0
69159,note_on,33,0,2,,,,,,,,0,,,,72,0
69159,note_on,33,0,1,,,,,,,,0,,,,81,0
69209,note_on,89,0,9,,,,,,,,3,,,,70,0
69209,note_on,83,0,8,,,,,,,,3,,,,69,0
69209,note_on,89,0,10,,,,,,,,3,,,,65,0
69216,note_on,57,0,1,,,,,,,,0,,,,77,49
69216,note_on,16711,0,4,,,,,,,,1,,,,65,64
69216,note_on,7,0,9,,,,,,,,3,,,,58,64
69216,note_on,7,0,8,,,,,,,,3,,,,72,64
69216,note_on,510,0,3,,,,,,,,1,,,,65,64
69216,note_on,57,0,2,,,,,,,,0,,,,69,64
69216,note_on,7,0,10,,,,,,,,3,,,,53,64
69255,note_on,39,0,2,,,,,,,,0,,,,69,0
69255,note_on,39,0,1,,,,,,,,0,,,,77,0
69261,note_on,45,0,8,,,,,,,,3,,,,72,0
69264,note_on,3,0,8,,,,,,,,3,,,,69,64
69297,note_on,177,0,11,,,,,,,,3,,,,41,0
69305,note_on,89,0,9,,,,,,,,3,,,,58,0
69305,note_on,89,0,10,,,,,,,,3,,,,53,0
69305,note_on,89,0,4,,,,,,,,1,,,,65,0
69305,note_on,89,0,3,,,,,,,,1,,,,65,0
69309,note_on,45,0,8,,,,,,,,3,,,,69,0
69312,note_on,7,0,3,,,,,,,,1,,,,65,64
69312,note_on,3,0,8,,,,,,,,3,,,,77,64
69312,note_on,7,0,4,,,,,,,,1,,,,65,64
69357,note_on,45,0,8,,,,,,,,3,,,,77,0
69360,note_on,3,0,8,,,,,,,,3,,,,79,64
69401,note_on,89,0,4,,,,,,,,1,,,,65,0
69401,note_on,89,0,3,,,,,,,,1,,,,65,0
69405,note_on,45,0,8,,,,,,,,3,,,,79,0
69408,note_on,7,0,4,,,,,,,,1,,,,65,64
69408,note_on,3,0,8,,,,,,,,3,,,,75,64
69408,note_on,7,0,3,,,,,,,,1,,,,72,64
69453,note_on,45,0,8,,,,,,,,3,,,,75,0
69453,note_on,45,0,3,,,,,,,,1,,,,72,0
69453,note_on,45,0,4,,,,,,,,1,,,,65,0
69456,note_on,3,0,4,,,,,,,,1,,,,65,64
69456,note_on,3,0,8,,,,,,,,3,,,,77,64
69456,note_on,3,0,3,,,,,,,,1,,,,72,64
69501,note_on,45,0,4,,,,,,,,1,,,,65,0
69501,note_on,45,0,3,,,,,,,,1,,,,72,0
69501,note_on,45,0,8,,,,,,,,3,,,,77,0
69504,note_on,3,0,8,,,,,,,,3,,,,74,64
69504,note_on,199,0,10,,,,,,,,3,,,,58,64
69504,note_on,207,0,11,,,,,,,,3,,,,46,64
69504,note_on,249,0,2,,,,,,,,0,,,,70,64
69504,note_on,249,0,1,,,,,,,,0,,,,82,49
69504,note_on,199,0,9,,,,,,,,3,,,,58,64
69549,note_on,45,0,1,,,,,,,,0,,,,82,0
69549,note_on,45,0,10,,,,,,,,3,,,,58,0
69549,note_on,45,0,2,,,,,,,,0,,,,70,0
69549,note_on,45,0,11,,,,,,,,3,,,,46,0
69552,note_on,3,0,10,,,,,,,,3,,,,57,64
69552,note_on,3,0,2,,,,,,,,0,,,,69,64
69552,note_on,3,0,1,,,,,,,,0,,,,81,49
69552,note_on,3,0,11,,,,,,,,3,,,,45,64
69593,note_on,89,0,9,,,,,,,,3,,,,58,0
69593,note_on,89,0,8,,,,,,,,3,,,,74,0
69597,note_on,45,0,11,,,,,,,,3,,,,45,0
69597,note_on,45,0,10,,,,,,,,3,,,,57,0
69597,note_on,45,0,1,,,,,,,,0,,,,81,0
69597,note_on,45,0,2,,,,,,,,0,,,,69,0
69600,note_on,3,0,10,,,,,,,,3,,,,58,64
69600,note_on,3,0,1,,,,,,,,0,,,,82,49
69600,note_on,3,0,2,,,,,,,,0,,,,70,64
69600,note_on,3,0,11,,,,,,,,3,,,,46,64
69645,note_on,45,0,11,,,,,,,,3,,,,46,0
69645,note_on,45,0,2,,,,,,,,0,,,,70,0
69645,note_on,45,0,1,,,,,,,,0,,,,82,0
69645,note_on,45,0,10,,,,,,,,3,,,,58,0
69648,note_on,3,0,1,,,,,,,,0,,,,81,49
69648,note_on,3,0,11,,,,,,,,3,,,,45,64
69648,note_on,3,0,2,,,,,,,,0,,,,69,64
69648,note_on,3,0,10,,,,,,,,3,,,,57,64
69693,note_on,45,0,10,,,,,,,,3,,,,57,0
69693,note_on,45,0,11,,,,,,,,3,,,,45,0
69693,note_on,45,0,2,,,,,,,,0,,,,69,0
69693,note_on,45,0,1,,,,,,,,0,,,,81,0
69696,note_on,103,0,8,,,,,,,,3,,,,74,64
69696,note_on,3,0,10,,,,,,,,3,,,,58,64
69696,note_on,3,0,1,,,,,,,,0,,,,82,49
69696,note_on,3,0,11,,,,,,,,3,,,,46,64
69696,note_on,3,0,2,,,,,,,,0,,,,70,64
69696,note_on,103,0,9,,,,,,,,3,,,,65,64
69735,note_on,39,0,2,,,,,,,,0,,,,70,0
69735,note_on,39,0,1,,,,,,,,0,,,,82,0
69741,note_on,45,0,9,,,,,,,,3,,,,65,0
69741,note_on,45,0,8,,,,,,,,3,,,,74,0
69744,note_on,3,0,9,,,,,,,,3,,,,67,64
69744,note_on,3,0,8,,,,,,,,3,,,,75,64
69785,note_on,89,0,11,,,,,,,,3,,,,46,0
69785,note_on,89,0,10,,,,,,,,3,,,,58,0
69789,note_on,45,0,9,,,,,,,,3,,,,67,0
69789,note_on,45,0,8,,,,,,,,3,,,,75,0
69792,note_on,3,0,9,,,,,,,,3,,,,63,64
69792,note_on,3,0,8,,,,,,,,3,,,,72,64
69837,note_on,45,0,8,,,,,,,,3,,,,72,0
69837,note_on,45,0,9,,,,,,,,3,,,,63,0
69840,note_on,3,0,9,,,,,,,,3,,,,65,64
69840,note_on,3,0,8,,,,,,,,3,,,,74,64
69885,note_on,45,0,9,,,,,,,,3,,,,65,0
69885,note_on,45,0,8,,,,,,,,3,,,,74,0
69888,note_on,153,0,2,,,,,,,,0,,,,70,64
69888,note_on,3,0,9,,,,,,,,3,,,,62,64
69888,note_on,103,0,10,,,,,,,,3,,,,58,64
69888,note_on,103,0,11,,,,,,,,3,,,,46,64
69888,note_on,153,0,1,,,,,,,,0,,,,82,49
69888,note_on,3,0,8,,,,,,,,3,,,,70,64
69933,note_on,45,0,11,,,,,,,,3,,,,46,0
69933,note_on,45,0,1,,,,,,,,0,,,,82,0
69933,note_on,45,0,2,,,,,,,,0,,,,70,0
69933,note_on,45,0,10,,,,,,,,3,,,,58,0
69936,note_on,3,0,10,,,,,,,,3,,,,57,64
69936,note_on,3,0,1,,,,,,,,0,,,,81,49
69936,note_on,3,0,2,,,,,,,,0,,,,69,64
69936,note_on,3,0,11,,,,,,,,3,,,,45,64
69977,note_on,89,0,9,,,,,,,,3,,,,62,0
69977,note_on,89,0,8,,,,,,,,3,,,,70,0
69981,note_on,45,0,2,,,,,,,,0,,,,69,0
69981,note_on,45,0,10,,,,,,,,3,,,,57,0
69981,note_on,45,0,1,,,,,,,,0,,,,81,0
69981,note_on,45,0,11,,,,,,,,3,,,,45,0
69984,note_on,3,0,11,,,,,,,,3,,,,46,64
69984,note_on,3,0,2,,,,,,,,0,,,,70,64
69984,note_on,3,0,1,,,,,,,,0,,,,82,49
69984,note_on,3,0,10,,,,,,,,3,,,,58,64
70029,note_on,45,0,1,,,,,,,,0,,,,82,0
70029,note_on,45,0,2,,,,,,,,0,,,,70,0
70029,note_on,45,0,11,,,,,,,,3,,,,46,0
70029,note_on,45,0,10,,,,,,,,3,,,,58,0
70032,note_on,3,0,10,,,,,,,,3,,,,57,64
70032,note_on,3,0,1,,,,,,,,0,,,,81,49
70032,note_on,3,0,11,,,,,,,,3,,,,45,64
70032,note_on,3,0,2,,,,,,,,0,,,,69,64
70077,note_on,45,0,11,,,,,,,,3,,,,45,0
70077,note_on,45,0,2,,,,,,,,0,,,,69,0
70077,note_on,45,0,1,,,,,,,,0,,,,81,0
70077,note_on,45,0,10,,,,,,,,3,,,,57,0
70080,note_on,3,0,1,,,,,,,,0,,,,82,49
70080,note_on,3,0,11,,,,,,,,3,,,,46,64
70080,note_on,103,0,9,,,,,,,,3,,,,67,64
70080,note_on,3,0,2,,,,,,,,0,,,,70,64
70080,note_on,3,0,10,,,,,,,,3,,,,58,64
70080,note_on,103,0,8,,,,,,,,3,,,,70,64
70100,note_on,20,0,8,,,,,,,,3,,,,70,0
70100,note_on,20,0,9,,,,,,,,3,,,,67,0
70119,note_on,39,0,1,,,,,,,,0,,,,82,0
70119,note_on,39,0,2,,,,,,,,0,,,,70,0
70128,note_on,28,0,9,,,,,,,,3,,,,70,64
70128,note_on,28,0,8,,,,,,,,3,,,,74,64
70148,note_on,20,0,8,,,,,,,,3,,,,74,0
70148,note_on,20,0,9,,,,,,,,3,,,,70,0
70169,note_on,89,0,10,,,,,,,,3,,,,58,0
70169,note_on,89,0,11,,,,,,,,3,,,,46,0
70176,note_on,7,0,11,,,,,,,,3,,,,38,64
70176,note_on,7,0,10,,,,,,,,3,,,,62,64
70176,note_on,28,0,8,,,,,,,,3,,,,77,64
70176,note_on,28,0,9,,,,,,,,3,,,,74,64
70196,note_on,20,0,8,,,,,,,,3,,,,77,0
70196,note_on,20,0,9,,,,,,,,3,,,,74,0
70224,note_on,28,0,8,,,,,,,,3,,,,82,64
70224,note_on,28,0,9,,,,,,,,3,,,,79,64
70244,note_on,20,0,8,,,,,,,,3,,,,82,0
70244,note_on,20,0,9,,,,,,,,3,,,,79,0
70265,note_on,89,0,11,,,,,,,,3,,,,38,0
70265,note_on,89,0,10,,,,,,,,3,,,,62,0
70272,note_on,153,0,2,,,,,,,,0,,,,75,64
70272,note_on,28,0,9,,,,,,,,3,,,,78,64
70272,note_on,153,0,1,,,,,,,,0,,,,79,49
70272,note_on,7,0,10,,,,,,,,3,,,,63,64
70272,note_on,28,0,8,,,,,,,,3,,,,78,64
70272,note_on,7,0,11,,,,,,,,3,,,,39,64
70317,note_on,45,0,9,,,,,,,,3,,,,78,0
70317,note_on,45,0,8,,,,,,,,3,,,,78,0
70320,note_on,3,0,8,,,,,,,,3,,,,79,64
70320,note_on,3,0,9,,,,,,,,3,,,,79,64
70361,note_on,89,0,10,,,,,,,,3,,,,63,0
70361,note_on,89,0,11,,,,,,,,3,,,,39,0
70365,note_on,45,0,8,,,,,,,,3,,,,79,0
70365,note_on,45,0,9,,,,,,,,3,,,,79,0
70368,note_on,3,0,9,,,,,,,,3,,,,75,64
70368,note_on,3,0,8,,,,,,,,3,,,,75,64
70368,note_on,7,0,10,,,,,,,,3,,,,63,64
70368,note_on,7,0,11,,,,,,,,3,,,,39,64
70388,note_on,20,0,8,,,,,,,,3,,,,75,0
70388,note_on,20,0,9,,,,,,,,3,,,,75,0
70416,note_on,28,0,8,,,,,,,,3,,,,72,64
70416,note_on,28,0,9,,,,,,,,3,,,,72,64
70436,note_on,20,0,8,,,,,,,,3,,,,72,0
70436,note_on,20,0,9,,,,,,,,3,,,,72,0
70449,note_on,177,0,2,,,,,,,,0,,,,75,0
70449,note_on,177,0,1,,,,,,,,0,,,,79,0
70457,note_on,89,0,11,,,,,,,,3,,,,39,0
70457,note_on,89,0,10,,,,,,,,3,,,,63,0
70464,note_on,7,0,11,,,,,,,,3,,,,41,64
70464,note_on,7,0,10,,,,,,,,3,,,,65,64
70464,note_on,28,0,9,,,,,,,,3,,,,74,64
70464,note_on,15,0,2,,,,,,,,0,,,,63,64
70464,note_on,15,0,1,,,,,,,,0,,,,69,49
70464,note_on,28,0,8,,,,,,,,3,,,,74,64
70509,note_on,45,0,8,,,,,,,,3,,,,74,0
70509,note_on,45,0,9,,,,,,,,3,,,,74,0
70512,note_on,3,0,8,,,,,,,,3,,,,75,64
70512,note_on,3,0,9,,,,,,,,3,,,,75,64
70553,note_on,89,0,10,,,,,,,,3,,,,65,0
70553,note_on,89,0,11,,,,,,,,3,,,,41,0
70557,note_on,45,0,8,,,,,,,,3,,,,75,0
70557,note_on,45,0,9,,,,,,,,3,,,,75,0
70560,note_on,3,0,8,,,,,,,,3,,,,72,64
70560,note_on,3,0,9,,,,,,,,3,,,,72,64
70560,note_on,7,0,10,,,,,,,,3,,,,65,64
70560,note_on,7,0,11,,,,,,,,3,,,,41,64
70580,note_on,20,0,8,,,,,,,,3,,,,72,0
70580,note_on,20,0,9,,,,,,,,3,,,,72,0
70608,note_on,28,0,8,,,,,,,,3,,,,69,64
70608,note_on,28,0,9,,,,,,,,3,,,,69,64
70628,note_on,20,0,9,,,,,,,,3,,,,69,0
70628,note_on,20,0,8,,,,,,,,3,,,,69,0
70641,note_on,177,0,2,,,,,,,,0,,,,63,0
70641,note_on,177,0,1,,,,,,,,0,,,,69,0
70649,note_on,89,0,11,,,,,,,,3,,,,41,0
70649,note_on,89,0,10,,,,,,,,3,,,,65,0
70656,note_on,15,0,1,,,,,,,,0,,,,70,49
70656,note_on,7,0,11,,,,,,,,3,,,,34,64
70656,note_on,15,0,2,,,,,,,,0,,,,62,64
70656,note_on,7,0,10,,,,,,,,3,,,,58,64
70656,note_on,28,0,9,,,,,,,,3,,,,70,64
70656,note_on,28,0,8,,,,,,,,3,,,,70,64
70676,note_on,20,0,9,,,,,,,,3,,,,70,0
70704,note_on,28,0,9,,,,,,,,3,,,,69,64
70724,note_on,20,0,9,,,,,,,,3,,,,69,0
70745,note_on,89,0,2,,,,,,,,0,,,,62,0
70745,note_on,89,0,1,,,,,,,,0,,,,70,0
70745,note_on,89,0,8,,,,,,,,3,,,,70,0
70752,note_on,28,0,9,,,,,,,,3,,,,70,64
70772,note_on,20,0,9,,,,,,,,3,,,,70,0
70800,note_on,28,0,9,,,,,,,,3,,,,65,64
70820,note_on,20,0,9,,,,,,,,3,,,,65,0
70833,note_on,177,0,10,,,,,,,,3,,,,58,0
70833,note_on,177,0,11,,,,,,,,3,,,,34,0
70848,note_on,28,0,9,,,,,,,,3,,,,62,49
70848,note_on,103,0,8,,,,,,,,3,,,,70,49
70868,note_on,20,0,9,,,,,,,,3,,,,62,0
70896,note_on,28,0,9,,,,,,,,3,,,,60,49
70916,note_on,20,0,9,,,,,,,,3,,,,60,0
70937,note_on,89,0,8,,,,,,,,3,,,,70,0
70944,note_on,28,0,9,,,,,,,,3,,,,62,49
70944,note_on,7,0,8,,,,,,,,3,,,,70,49
70964,note_on,20,0,9,,,,,,,,3,,,,62,0
70992,note_on,28,0,9,,,,,,,,3,,,,58,49
71012,note_on,20,0,9,,,,,,,,3,,,,58,0
71033,note_on,89,0,8,,,,,,,,3,,,,70,0
71040,note_on,295,0,1,,,,,,,,0,,,,75,49
71040,note_on,7,0,8,,,,,,,,3,,,,72,49
71040,note_on,207,0,10,,,,,,,,3,,,,65,49
71040,note_on,207,0,11,,,,,,,,3,,,,41,49
71040,note_on,28,0,9,,,,,,,,3,,,,63,49
71040,note_on,295,0,2,,,,,,,,0,,,,69,49
71060,note_on,20,0,9,,,,,,,,3,,,,63,0
71088,note_on,28,0,9,,,,,,,,3,,,,62,49
71108,note_on,20,0,9,,,,,,,,3,,,,62,0
71136,note_on,28,0,9,,,,,,,,3,,,,63,49
71156,note_on,20,0,9,,,,,,,,3,,,,63,0
71184,note_on,28,0,9,,,,,,,,3,,,,60,49
71204,note_on,20,0,9,,,,,,,,3,,,,60,0
71217,note_on,177,0,10,,,,,,,,3,,,,65,0
71217,note_on,177,0,11,,,,,,,,3,,,,41,0
71217,note_on,177,0,8,,,,,,,,3,,,,72,0
71232,note_on,28,0,9,,,,,,,,3,,,,69,49
71232,note_on,15,0,8,,,,,,,,3,,,,77,49
71252,note_on,20,0,9,,,,,,,,3,,,,69,0
71280,note_on,28,0,9,,,,,,,,3,,,,67,49
71300,note_on,20,0,9,,,,,,,,3,,,,67,0
71328,note_on,28,0,9,,,,,,,,3,,,,69,49
71348,note_on,20,0,9,,,,,,,,3,,,,69,0
71376,note_on,28,0,9,,,,,,,,3,,,,65,49
71394,note_on,354,0,2,,,,,,,,0,,,,69,0
71394,note_on,354,0,1,,,,,,,,0,,,,75,0
71396,note_on,20,0,9,,,,,,,,3,,,,65,0
71409,note_on,177,0,8,,,,,,,,3,,,,77,0
71424,note_on,207,0,11,,,,,,,,3,,,,34,49
71424,note_on,28,0,9,,,,,,,,3,,,,70,49
71424,note_on,30,0,1,,,,,,,,0,,,,74,49
71424,note_on,30,0,2,,,,,,,,0,,,,70,49
71424,note_on,207,0,10,,,,,,,,3,,,,58,49
71424,note_on,15,0,8,,,,,,,,3,,,,74,49
71444,note_on,20,0,9,,,,,,,,3,,,,70,0
71472,note_on,28,0,9,,,,,,,,3,,,,69,49
71492,note_on,20,0,9,,,,,,,,3,,,,69,0
71513,note_on,89,0,1,,,,,,,,0,,,,74,0
71513,note_on,89,0,2,,,,,,,,0,,,,70,0
71513,note_on,89,0,8,,,,,,,,3,,,,74,0
71520,note_on,28,0,9,,,,,,,,3,,,,70,49
71540,note_on,20,0,9,,,,,,,,3,,,,70,0
71568,note_on,28,0,9,,,,,,,,3,,,,65,49
71588,note_on,20,0,9,,,,,,,,3,,,,65,0
71601,note_on,177,0,10,,,,,,,,3,,,,58,0
71601,note_on,177,0,11,,,,,,,,3,,,,34,0
71616,note_on,103,0,8,,,,,,,,3,,,,70,49
71616,note_on,28,0,9,,,,,,,,3,,,,62,49
71636,note_on,20,0,9,,,,,,,,3,,,,62,0
71655,note_on,39,0,8,,,,,,,,3,,,,70,0
71664,note_on,28,0,9,,,,,,,,3,,,,60,49
71684,note_on,20,0,9,,,,,,,,3,,,,60,0
71712,note_on,57,0,8,,,,,,,,3,,,,70,49
71712,note_on,28,0,9,,,,,,,,3,,,,62,49
71732,note_on,20,0,9,,,,,,,,3,,,,62,0
71751,note_on,39,0,8,,,,,,,,3,,,,70,0
71760,note_on,28,0,9,,,,,,,,3,,,,58,49
71780,note_on,20,0,9,,,,,,,,3,,,,58,0
71808,note_on,295,0,1,,,,,,,,0,,,,82,49
71808,note_on,28,0,9,,,,,,,,3,,,,70,49
71808,note_on,57,0,8,,,,,,,,3,,,,79,49
71808,note_on,207,0,10,,,,,,,,3,,,,60,49
71808,note_on,295,0,2,,,,,,,,0,,,,76,49
71808,note_on,207,0,11,,,,,,,,3,,,,36,49
71828,note_on,20,0,9,,,,,,,,3,,,,70,0
71856,note_on,28,0,9,,,,,,,,3,,,,69,49
71876,note_on,20,0,9,,,,,,,,3,,,,69,0
71904,note_on,28,0,9,,,,,,,,3,,,,70,49
71924,note_on,20,0,9,,,,,,,,3,,,,70,0
71952,note_on,28,0,9,,,,,,,,3,,,,67,49
71972,note_on,20,0,9,,,,,,,,3,,,,67,0
71985,note_on,177,0,11,,,,,,,,3,,,,36,0
71985,note_on,177,0,8,,,,,,,,3,,,,79,0
71985,note_on,177,0,10,,,,,,,,3,,,,60,0
72000,note_on,28,0,9,,,,,,,,3,,,,64,49
72000,note_on,15,0,8,,,,,,,,3,,,,84,49
72020,note_on,20,0,9,,,,,,,,3,,,,64,0
72048,note_on,28,0,9,,,,,,,,3,,,,62,49
72068,note_on,20,0,9,,,,,,,,3,,,,62,0
72096,note_on,28,0,9,,,,,,,,3,,,,64,49
72116,note_on,20,0,9,,,,,,,,3,,,,64,0
72144,note_on,28,0,9,,,,,,,,3,,,,60,49
72162,note_on,354,0,1,,,,,,,,0,,,,82,0
72162,note_on,354,0,2,,,,,,,,0,,,,76,0
72164,note_on,20,0,9,,,,,,,,3,,,,60,0
72177,note_on,177,0,8,,,,,,,,3,,,,84,0
72192,note_on,30,0,2,,,,,,,,0,,,,77,49
72192,note_on,207,0,11,,,,,,,,3,,,,41,49
72192,note_on,15,0,8,,,,,,,,3,,,,81,49
72192,note_on,207,0,10,,,,,,,,3,,,,53,49
72192,note_on,30,0,1,,,,,,,,0,,,,81,49
72192,note_on,28,0,9,,,,,,,,3,,,,65,49
72237,note_on,45,0,9,,,,,,,,3,,,,65,0
72240,note_on,3,0,9,,,,,,,,3,,,,64,49
72281,note_on,89,0,8,,,,,,,,3,,,,81,0
72281,note_on,89,0,1,,,,,,,,0,,,,81,0
72281,note_on,89,0,2,,,,,,,,0,,,,77,0
72285,note_on,45,0,9,,,,,,,,3,,,,64,0
72288,note_on,3,0,9,,,,,,,,3,,,,65,49
72333,note_on,45,0,9,,,,,,,,3,,,,65,0
72336,note_on,3,0,9,,,,,,,,3,,,,57,49
72369,note_on,177,0,11,,,,,,,,3,,,,41,0
72369,note_on,177,0,10,,,,,,,,3,,,,53,0
72381,note_on,45,0,9,,,,,,,,3,,,,57,0
72384,note_on,15,0,11,,,,,,,,3,,,,50,64
72384,note_on,103,0,2,,,,,,,,0,,,,70,64
72384,note_on,103,0,1,,,,,,,,0,,,,82,64
72384,note_on,15,0,10,,,,,,,,3,,,,62,64
72384,note_on,103,0,8,,,,,,,,3,,,,70,64
72384,note_on,2883,0,3,,,,,,,,1,,,,70,64
72384,note_on,2883,0,4,,,,,,,,1,,,,70,64
72384,note_on,3,0,9,,,,,,,,3,,,,58,64
72404,note_on,20,0,11,,,,,,,,3,,,,50,0
72404,note_on,20,0,10,,,,,,,,3,,,,62,0
72423,note_on,39,0,4,,,,,,,,1,,,,70,0
72423,note_on,39,0,1,,,,,,,,0,,,,82,0
72423,note_on,39,0,3,,,,,,,,1,,,,70,0
72423,note_on,39,0,2,,,,,,,,0,,,,70,0
72423,note_on,39,0,8,,,,,,,,3,,,,70,0
72423,note_on,39,0,9,,,,,,,,3,,,,58,0
72432,note_on,28,0,11,,,,,,,,3,,,,48,64
72432,note_on,28,0,10,,,,,,,,3,,,,60,64
72452,note_on,20,0,11,,,,,,,,3,,,,48,0
72452,note_on,20,0,10,,,,,,,,3,,,,60,0
72480,note_on,57,0,1,,,,,,,,0,,,,82,64
72480,note_on,57,0,4,,,,,,,,1,,,,70,64
72480,note_on,28,0,11,,,,,,,,3,,,,50,64
72480,note_on,57,0,2,,,,,,,,0,,,,70,64
72480,note_on,57,0,8,,,,,,,,3,,,,70,64
72480,note_on,57,0,9,,,,,,,,3,,,,58,64
72480,note_on,28,0,10,,,,,,,,3,,,,62,64
72480,note_on,57,0,3,,,,,,,,1,,,,70,64
72500,note_on,20,0,10,,,,,,,,3,,,,62,0
72500,note_on,20,0,11,,,,,,,,3,,,,50,0
72519,note_on,39,0,2,,,,,,,,0,,,,70,0
72519,note_on,39,0,8,,,,,,,,3,,,,70,0
72519,note_on,39,0,1,,,,,,,,0,,,,82,0
72519,note_on,39,0,4,,,,,,,,1,,,,70,0
72519,note_on,39,0,3,,,,,,,,1,,,,70,0
72519,note_on,39,0,9,,,,,,,,3,,,,58,0
72528,note_on,28,0,11,,,,,,,,3,,,,46,64
72528,note_on,28,0,10,,,,,,,,3,,,,58,64
72548,note_on,20,0,10,,,,,,,,3,,,,58,0
72548,note_on,20,0,11,,,,,,,,3,,,,46,0
72576,note_on,57,0,3,,,,,,,,1,,,,75,64
72576,note_on,28,0,10,,,,,,,,3,,,,63,64
72576,note_on,57,0,4,,,,,,,,1,,,,75,64
72576,note_on,57,0,9,,,,,,,,3,,,,60,64
72576,note_on,57,0,8,,,,,,,,3,,,,72,64
72576,note_on,57,0,2,,,,,,,,0,,,,72,64
72576,note_on,28,0,11,,,,,,,,3,,,,51,64
72576,note_on,57,0,1,,,,,,,,0,,,,84,64
72596,note_on,20,0,11,,,,,,,,3,,,,51,0
72596,note_on,20,0,10,,,,,,,,3,,,,63,0
72624,note_on,28,0,10,,,,,,,,3,,,,62,64
72624,note_on,28,0,11,,,,,,,,3,,,,50,64
72644,note_on,20,0,10,,,,,,,,3,,,,62,0
72644,note_on,20,0,11,,,,,,,,3,,,,50,0
72665,note_on,89,0,4,,,,,,,,1,,,,75,0
72665,note_on,89,0,3,,,,,,,,1,,,,75,0
72672,note_on,28,0,10,,,,,,,,3,,,,63,64
72672,note_on,28,0,11,,,,,,,,3,,,,51,64
72672,note_on,7,0,4,,,,,,,,1,,,,72,64
72672,note_on,7,0,3,,,,,,,,1,,,,72,64
72692,note_on,20,0,11,,,,,,,,3,,,,51,0
72692,note_on,20,0,10,,,,,,,,3,,,,63,0
72720,note_on,28,0,11,,,,,,,,3,,,,48,64
72720,note_on,28,0,10,,,,,,,,3,,,,60,64
72740,note_on,20,0,11,,,,,,,,3,,,,48,0
72740,note_on,20,0,10,,,,,,,,3,,,,60,0
72753,note_on,177,0,9,,,,,,,,3,,,,60,0
72753,note_on,177,0,8,,,,,,,,3,,,,72,0
72753,note_on,177,0,2,,,,,,,,0,,,,72,0
72761,note_on,89,0,3,,,,,,,,1,,,,72,0
72761,note_on,89,0,4,,,,,,,,1,,,,72,0
72768,note_on,15,0,9,,,,,,,,3,,,,65,64
72768,note_on,28,0,10,,,,,,,,3,,,,57,64
72768,note_on,28,0,11,,,,,,,,3,,,,45,64
72768,note_on,15,0,8,,,,,,,,3,,,,77,64
72768,note_on,7,0,4,,,,,,,,1,,,,65,64
72768,note_on,7,0,3,,,,,,,,1,,,,65,64
72768,note_on,15,0,2,,,,,,,,0,,,,77,64
72788,note_on,20,0,10,,,,,,,,3,,,,57,0
72788,note_on,20,0,11,,,,,,,,3,,,,45,0
72816,note_on,28,0,11,,,,,,,,3,,,,43,64
72816,note_on,28,0,10,,,,,,,,3,,,,55,64
72836,note_on,20,0,11,,,,,,,,3,,,,43,0
72836,note_on,20,0,10,,,,,,,,3,,,,55,0
72864,note_on,28,0,10,,,,,,,,3,,,,57,64
72864,note_on,28,0,11,,,,,,,,3,,,,45,64
72884,note_on,20,0,11,,,,,,,,3,,,,45,0
72884,note_on,20,0,10,,,,,,,,3,,,,57,0
72912,note_on,28,0,11,,,,,,,,3,,,,41,64
72912,note_on,28,0,10,,,,,,,,3,,,,53,64
72930,note_on,354,0,1,,,,,,,,0,,,,84,0
72932,note_on,20,0,11,,,,,,,,3,,,,41,0
72932,note_on,20,0,10,,,,,,,,3,,,,53,0
72945,note_on,177,0,9,,,,,,,,3,,,,65,0
72945,note_on,177,0,3,,,,,,,,1,,,,65,0
72945,note_on,177,0,2,,,,,,,,0,,,,77,0
72945,note_on,177,0,8,,,,,,,,3,,,,77,0
72945,note_on,177,0,4,,,,,,,,1,,,,65,0
72960,note_on,28,0,10,,,,,,,,3,,,,58,64
72960,note_on,15,0,9,,,,,,,,3,,,,62,64
72960,note_on,28,0,11,,,,,,,,3,,,,46,64
72960,note_on,15,0,3,,,,,,,,1,,,,70,64
72960,note_on,15,0,2,,,,,,,,0,,,,82,64
72960,note_on,15,0,8,,,,,,,,3,,,,74,64
72960,note_on,15,0,4,,,,,,,,1,,,,62,64
72960,note_on,30,0,1,,,,,,,,0,,,,86,64
72980,note_on,20,0,11,,,,,,,,3,,,,46,0
72980,note_on,20,0,10,,,,,,,,3,,,,58,0
73008,note_on,28,0,11,,,,,,,,3,,,,45,64
73008,note_on,28,0,10,,,,,,,,3,,,,57,64
73028,note_on,20,0,10,,,,,,,,3,,,,57,0
73028,note_on,20,0,11,,,,,,,,3,,,,45,0
73056,note_on,28,0,11,,,,,,,,3,,,,46,64
73056,note_on,28,0,10,,,,,,,,3,,,,58,64
73076,note_on,20,0,10,,,,,,,,3,,,,58,0
73076,note_on,20,0,11,,,,,,,,3,,,,46,0
73104,note_on,28,0,10,,,,,,,,3,,,,66,64
73104,note_on,28,0,11,,,,,,,,3,,,,42,64
73124,note_on,20,0,10,,,,,,,,3,,,,66,0
73124,note_on,20,0,11,,,,,,,,3,,,,42,0
73137,note_on,177,0,9,,,,,,,,3,,,,62,0
73137,note_on,177,0,4,,,,,,,,1,,,,62,0
73137,note_on,177,0,8,,,,,,,,3,,,,74,0
73137,note_on,177,0,3,,,,,,,,1,,,,70,0
73152,note_on,15,0,4,,,,,,,,1,,,,70,64
73152,note_on,28,0,11,,,,,,,,3,,,,43,64
73152,note_on,15,0,9,,,,,,,,3,,,,70,64
73152,note_on,15,0,3,,,,,,,,1,,,,74,64
73152,note_on,28,0,10,,,,,,,,3,,,,67,64
73152,note_on,15,0,8,,,,,,,,3,,,,82,64
73172,note_on,20,0,11,,,,,,,,3,,,,43,0
73172,note_on,20,0,10,,,,,,,,3,,,,67,0
73200,note_on,28,0,11,,,,,,,,3,,,,42,64
73200,note_on,28,0,10,,,,,,,,3,,,,66,64
73220,note_on,20,0,11,,,,,,,,3,,,,42,0
73220,note_on,20,0,10,,,,,,,,3,,,,66,0
73248,note_on,28,0,11,,,,,,,,3,,,,43,64
73248,note_on,28,0,10,,,,,,,,3,,,,67,64
73268,note_on,20,0,10,,,,,,,,3,,,,67,0
73268,note_on,20,0,11,,,,,,,,3,,,,43,0
73296,note_on,28,0,10,,,,,,,,3,,,,62,64
73296,note_on,28,0,11,,,,,,,,3,,,,38,64
73314,note_on,354,0,1,,,,,,,,0,,,,86,0
73316,note_on,20,0,11,,,,,,,,3,,,,38,0
73316,note_on,20,0,10,,,,,,,,3,,,,62,0
73329,note_on,177,0,9,,,,,,,,3,,,,70,0
73329,note_on,177,0,3,,,,,,,,1,,,,74,0
73329,note_on,177,0,8,,,,,,,,3,,,,82,0
73344,note_on,28,0,11,,,,,,,,3,,,,39,64
73344,note_on,30,0,1,,,,,,,,0,,,,84,64
73344,note_on,28,0,10,,,,,,,,3,,,,63,64
73344,note_on,15,0,8,,,,,,,,3,,,,72,64
73344,note_on,15,0,9,,,,,,,,3,,,,60,64
73344,note_on,15,0,3,,,,,,,,1,,,,72,64
73364,note_on,20,0,11,,,,,,,,3,,,,39,0
73364,note_on,20,0,10,,,,,,,,3,,,,63,0
73392,note_on,28,0,11,,,,,,,,3,,,,38,64
73392,note_on,28,0,10,,,,,,,,3,,,,62,64
73412,note_on,20,0,11,,,,,,,,3,,,,38,0
73412,note_on,20,0,10,,,,,,,,3,,,,62,0
73440,note_on,28,0,11,,,,,,,,3,,,,39,64
73440,note_on,28,0,10,,,,,,,,3,,,,63,64
73460,note_on,20,0,10,,,,,,,,3,,,,63,0
73460,note_on,20,0,11,,,,,,,,3,,,,39,0
73488,note_on,28,0,11,,,,,,,,3,,,,36,64
73488,note_on,28,0,10,,,,,,,,3,,,,60,64
73508,note_on,20,0,11,,,,,,,,3,,,,36,0
73508,note_on,20,0,10,,,,,,,,3,,,,60,0
73521,note_on,177,0,8,,,,,,,,3,,,,72,0
73521,note_on,561,0,2,,,,,,,,0,,,,82,0
73521,note_on,369,0,4,,,,,,,,1,,,,70,0
73521,note_on,177,0,9,,,,,,,,3,,,,60,0
73536,note_on,15,0,4,,,,,,,,1,,,,65,64
73536,note_on,15,0,8,,,,,,,,3,,,,81,64
73536,note_on,15,0,2,,,,,,,,0,,,,81,64
73536,note_on,15,0,9,,,,,,,,3,,,,69,64
73536,note_on,28,0,10,,,,,,,,3,,,,65,64
73536,note_on,28,0,11,,,,,,,,3,,,,41,64
73556,note_on,20,0,11,,,,,,,,3,,,,41,0
73556,note_on,20,0,10,,,,,,,,3,,,,65,0
73584,note_on,28,0,11,,,,,,,,3,,,,40,64
73584,note_on,28,0,10,,,,,,,,3,,,,64,64
73604,note_on,20,0,10,,,,,,,,3,,,,64,0
73604,note_on,20,0,11,,,,,,,,3,,,,40,0
73632,note_on,28,0,10,,,,,,,,3,,,,65,64
73632,note_on,28,0,11,,,,,,,,3,,,,41,64
73652,note_on,20,0,11,,,,,,,,3,,,,41,0
73652,note_on,20,0,10,,,,,,,,3,,,,65,0
73680,note_on,28,0,10,,,,,,,,3,,,,65,64
73680,note_on,28,0,11,,,,,,,,3,,,,41,64
73698,note_on,354,0,3,,,,,,,,1,,,,72,0
73698,note_on,354,0,1,,,,,,,,0,,,,84,0
73700,note_on,20,0,10,,,,,,,,3,,,,65,0
73700,note_on,20,0,11,,,,,,,,3,,,,41,0
73713,note_on,177,0,2,,,,,,,,0,,,,81,0
73713,note_on,177,0,8,,,,,,,,3,,,,81,0
73713,note_on,177,0,9,,,,,,,,3,,,,69,0
73713,note_on,177,0,4,,,,,,,,1,,,,65,0
73728,note_on,30,0,1,,,,,,,,0,,,,82,49
73728,note_on,15,0,8,,,,,,,,3,,,,82,64
73728,note_on,28,0,10,,,,,,,,3,,,,58,64
73728,note_on,28,0,11,,,,,,,,3,,,,34,64
73728,note_on,15,0,4,,,,,,,,1,,,,62,64
73728,note_on,15,0,9,,,,,,,,3,,,,70,64
73728,note_on,15,0,2,,,,,,,,0,,,,82,49
73728,note_on,30,0,3,,,,,,,,1,,,,70,64
73817,note_on,89,0,2,,,,,,,,0,,,,82,0
73817,note_on,89,0,9,,,,,,,,3,,,,70,0
73817,note_on,89,0,11,,,,,,,,3,,,,34,0
73817,note_on,89,0,10,,,,,,,,3,,,,58,0
73817,note_on,89,0,4,,,,,,,,1,,,,62,0
73817,note_on,89,0,8,,,,,,,,3,,,,82,0
73817,note_on,89,0,3,,,,,,,,1,,,,70,0
73824,note_on,0,0,5,,,,,,,,2,,,,70,85
73824,note_on,0,0,6,,,,,,,,2,,,,58,85
73824,note_on,6055,0,6,,,,,,,,2,,,,62,85
73824,note_on,7,0,9,,,,,,,,3,,,,58,34
73824,note_on,7,0,8,,,,,,,,3,,,,58,34
73824,note_on,6151,0,5,,,,,,,,2,,,,74,85
73869,note_on,45,0,9,,,,,,,,3,,,,58,0
73869,note_on,45,0,8,,,,,,,,3,,,,58,0
73872,note_on,3,0,8,,,,,,,,3,,,,57,34
73872,note_on,3,0,9,,,,,,,,3,,,,57,34
73913,note_on,0,0,5,,,,,,,,2,,,,74,0
73913,note_on,89,0,5,,,,,,,,2,,,,70,0
73913,note_on,0,0,6,,,,,,,,2,,,,62,0
73913,note_on,89,0,6,,,,,,,,2,,,,58,0
73917,note_on,45,0,9,,,,,,,,3,,,,57,0
73917,note_on,45,0,8,,,,,,,,3,,,,57,0
73920,note_on,7,0,6,,,,,,,,2,,,,62,85
73920,note_on,0,0,5,,,,,,,,2,,,,70,85
73920,note_on,3,0,9,,,,,,,,3,,,,58,34
73920,note_on,7,0,5,,,,,,,,2,,,,74,85
73920,note_on,0,0,6,,,,,,,,2,,,,58,85
73920,note_on,3,0,8,,,,,,,,3,,,,58,34
73965,note_on,45,0,8,,,,,,,,3,,,,58,0
73965,note_on,45,0,9,,,,,,,,3,,,,58,0
73968,note_on,3,0,9,,,,,,,,3,,,,57,34
73968,note_on,3,0,8,,,,,,,,3,,,,57,34
74009,note_on,89,0,5,,,,,,,,2,,,,70,0
74009,note_on,0,0,5,,,,,,,,2,,,,74,0
74009,note_on,0,0,6,,,,,,,,2,,,,62,0
74009,note_on,89,0,6,,,,,,,,2,,,,58,0
74013,note_on,45,0,8,,,,,,,,3,,,,57,0
74013,note_on,45,0,9,,,,,,,,3,,,,57,0
74016,note_on,0,0,6,,,,,,,,2,,,,58,85
74016,note_on,7,0,6,,,,,,,,2,,,,62,85
74016,note_on,7,0,5,,,,,,,,2,,,,74,85
74016,note_on,0,0,5,,,,,,,,2,,,,70,85
74016,note_on,3,0,9,,,,,,,,3,,,,58,34
74016,note_on,3,0,8,,,,,,,,3,,,,58,34
74016,note_on,199,0,3,,,,,,,,1,,,,58,64
74061,note_on,45,0,3,,,,,,,,1,,,,58,0
74061,note_on,45,0,9,,,,,,,,3,,,,58,0
74061,note_on,45,0,8,,,,,,,,3,,,,58,0
74064,note_on,3,0,8,,,,,,,,3,,,,57,34
74064,note_on,3,0,3,,,,,,,,1,,,,58,64
74064,note_on,3,0,9,,,,,,,,3,,,,57,34
74087,note_on,23,0,3,,,,,,,,1,,,,58,0
74088,note_on,1,0,3,,,,,,,,1,,,,58,64
74105,note_on,0,0,5,,,,,,,,2,,,,74,0
74105,note_on,89,0,6,,,,,,,,2,,,,58,0
74105,note_on,0,0,6,,,,,,,,2,,,,62,0
74105,note_on,89,0,5,,,,,,,,2,,,,70,0
74109,note_on,45,0,9,,,,,,,,3,,,,57,0
74109,note_on,45,0,8,,,,,,,,3,,,,57,0
74111,note_on,23,0,3,,,,,,,,1,,,,58,0
74112,note_on,3,0,9,,,,,,,,3,,,,58,34
74112,note_on,0,0,5,,,,,,,,2,,,,70,85
74112,note_on,7,0,5,,,,,,,,2,,,,74,85
74112,note_on,295,0,11,,,,,,,,3,,,,34,49
74112,note_on,0,0,6,,,,,,,,2,,,,58,85
74112,note_on,295,0,10,,,,,,,,3,,,,58,49
74112,note_on,1,0,3,,,,,,,,1,,,,58,64
74112,note_on,3,0,8,,,,,,,,3,,,,58,34
74112,note_on,7,0,6,,,,,,,,2,,,,62,85
74112,note_on,295,0,2,,,,,,,,0,,,,70,49
74157,note_on,45,0,9,,,,,,,,3,,,,58,0
74157,note_on,45,0,8,,,,,,,,3,,,,58,0
74160,note_on,3,0,9,,,,,,,,3,,,,57,34
74160,note_on,3,0,8,,,,,,,,3,,,,57,34
74201,note_on,89,0,10,,,,,,,,3,,,,58,0
74201,note_on,89,0,11,,,,,,,,3,,,,34,0
74201,note_on,89,0,3,,,,,,,,1,,,,58,0
74205,note_on,45,0,9,,,,,,,,3,,,,57,0
74205,note_on,45,0,8,,,,,,,,3,,,,57,0
74208,note_on,3,0,9,,,,,,,,3,,,,58,34
74208,note_on,3,0,8,,,,,,,,3,,,,58,34
74245,note_on,133,0,6,,,,,,,,2,,,,58,0
74245,note_on,0,0,5,,,,,,,,2,,,,74,0
74245,note_on,0,0,6,,,,,,,,2,,,,62,0
74245,note_on,133,0,5,,,,,,,,2,,,,70,0
74253,note_on,45,0,8,,,,,,,,3,,,,58,0
74253,note_on,45,0,9,,,,,,,,3,,,,58,0
74256,note_on,0,0,6,,,,,,,,2,,,,60,85
74256,note_on,3,0,9,,,,,,,,3,,,,57,34
74256,note_on,3,0,8,,,,,,,,3,,,,57,34
74256,note_on,0,0,5,,,,,,,,2,,,,72,85
74256,note_on,11,0,5,,,,,,,,2,,,,75,85
74256,note_on,11,0,6,,,,,,,,2,,,,63,85
74301,note_on,45,0,6,,,,,,,,2,,,,60,0
74301,note_on,0,0,6,,,,,,,,2,,,,63,0
74301,note_on,45,0,9,,,,,,,,3,,,,57,0
74301,note_on,45,0,8,,,,,,,,3,,,,57,0
74301,note_on,0,0,5,,,,,,,,2,,,,75,0
74301,note_on,45,0,5,,,,,,,,2,,,,72,0
74304,note_on,0,0,6,,,,,,,,2,,,,62,85
74304,note_on,3,0,9,,,,,,,,3,,,,58,34
74304,note_on,3,0,6,,,,,,,,2,,,,65,85
74304,note_on,3,0,8,,,,,,,,3,,,,58,34
74304,note_on,3,0,5,,,,,,,,2,,,,77,85
74304,note_on,0,0,5,,,,,,,,2,,,,74,85
74349,note_on,45,0,8,,,,,,,,3,,,,58,0
74349,note_on,45,0,9,,,,,,,,3,,,,58,0
74352,note_on,3,0,8,,,,,,,,3,,,,57,34
74352,note_on,3,0,9,,,,,,,,3,,,,57,34
74397,note_on,45,0,8,,,,,,,,3,,,,57,0
74397,note_on,45,0,9,,,,,,,,3,,,,57,0
74400,note_on,199,0,3,,,,,,,,1,,,,58,64
74400,note_on,3,0,9,,,,,,,,3,,,,58,34
74400,note_on,3,0,8,,,,,,,,3,,,,58,34
74445,note_on,45,0,9,,,,,,,,3,,,,58,0
74445,note_on,45,0,8,,,,,,,,3,,,,58,0
74445,note_on,45,0,3,,,,,,,,1,,,,58,0
74448,note_on,3,0,9,,,,,,,,3,,,,57,34
74448,note_on,3,0,8,,,,,,,,3,,,,57,34
74448,note_on,3,0,3,,,,,,,,1,,,,58,64
74471,note_on,23,0,3,,,,,,,,1,,,,58,0
74472,note_on,1,0,3,,,,,,,,1,,,,58,64
74481,note_on,0,0,6,,,,,,,,2,,,,65,0
74481,note_on,177,0,5,,,,,,,,2,,,,74,0
74481,note_on,0,0,5,,,,,,,,2,,,,77,0
74481,note_on,177,0,6,,,,,,,,2,,,,62,0
74493,note_on,45,0,9,,,,,,,,3,,,,57,0
74493,note_on,45,0,8,,,,,,,,3,,,,57,0
74495,note_on,23,0,3,,,,,,,,1,,,,58,0
74496,note_on,0,0,6,,,,,,,,2,,,,63,85
74496,note_on,15,0,6,,,,,,,,2,,,,67,85
74496,note_on,0,0,5,,,,,,,,2,,,,75,85
74496,note_on,3,0,8,,,,,,,,3,,,,58,34
74496,note_on,15,0,5,,,,,,,,2,,,,79,85
74496,note_on,295,0,11,,,,,,,,3,,,,34,49
74496,note_on,1,0,3,,,,,,,,1,,,,58,64
74496,note_on,295,0,10,,,,,,,,3,,,,58,49
74496,note_on,3,0,9,,,,,,,,3,,,,58,34
74541,note_on,45,0,9,,,,,,,,3,,,,58,0
74541,note_on,45,0,8,,,,,,,,3,,,,58,0
74544,note_on,3,0,9,,,,,,,,3,,,,57,34
74544,note_on,3,0,8,,,,,,,,3,,,,57,34
74585,note_on,89,0,3,,,,,,,,1,,,,58,0
74585,note_on,89,0,10,,,,,,,,3,,,,58,0
74585,note_on,89,0,11,,,,,,,,3,,,,34,0
74585,note_on,0,0,6,,,,,,,,2,,,,67,0
74585,note_on,89,0,6,,,,,,,,2,,,,63,0
74585,note_on,89,0,5,,,,,,,,2,,,,75,0
74585,note_on,0,0,5,,,,,,,,2,,,,79,0
74589,note_on,45,0,8,,,,,,,,3,,,,57,0
74589,note_on,45,0,9,,,,,,,,3,,,,57,0
74592,note_on,7,0,5,,,,,,,,2,,,,82,85
74592,note_on,3,0,8,,,,,,,,3,,,,58,34
74592,note_on,0,0,6,,,,,,,,2,,,,67,85
74592,note_on,7,0,6,,,,,,,,2,,,,70,85
74592,note_on,3,0,9,,,,,,,,3,,,,58,34
74592,note_on,0,0,5,,,,,,,,2,,,,79,85
74637,note_on,45,0,8,,,,,,,,3,,,,58,0
74637,note_on,45,0,9,,,,,,,,3,,,,58,0
74640,note_on,3,0,8,,,,,,,,3,,,,57,34
74640,note_on,3,0,9,,,,,,,,3,,,,57,34
74681,note_on,0,0,6,,,,,,,,2,,,,70,0
74681,note_on,89,0,6,,,,,,,,2,,,,67,0
74681,note_on,0,0,5,,,,,,,,2,,,,82,0
74681,note_on,89,0,5,,,,,,,,2,,,,79,0
74685,note_on,45,0,8,,,,,,,,3,,,,57,0
74685,note_on,45,0,9,,,,,,,,3,,,,57,0
74688,note_on,3,0,9,,,,,,,,3,,,,58,34
74688,note_on,7,0,5,,,,,,,,2,,,,81,85
74688,note_on,0,0,5,,,,,,,,2,,,,77,85
74688,note_on,3,0,8,,,,,,,,3,,,,58,34
74688,note_on,0,0,6,,,,,,,,2,,,,65,85
74688,note_on,7,0,6,,,,,,,,2,,,,69,85
74733,note_on,45,0,9,,,,,,,,3,,,,58,0
74733,note_on,45,0,8,,,,,,,,3,,,,58,0
74736,note_on,3,0,9,,,,,,,,3,,,,57,34
74736,note_on,3,0,8,,,,,,,,3,,,,57,34
74777,note_on,89,0,5,,,,,,,,2,,,,77,0
74777,note_on,0,0,5,,,,,,,,2,,,,81,0
74777,note_on,89,0,6,,,,,,,,2,,,,65,0
74777,note_on,0,0,6,,,,,,,,2,,,,69,0
74781,note_on,45,0,9,,,,,,,,3,,,,57,0
74781,note_on,45,0,8,,,,,,,,3,,,,57,0
74784,note_on,3,0,8,,,,,,,,3,,,,58,34
74784,note_on,7,0,6,,,,,,,,2,,,,67,85
74784,note_on,0,0,6,,,,,,,,2,,,,63,85
74784,note_on,0,0,5,,,,,,,,2,,,,75,85
74784,note_on,7,0,5,,,,,,,,2,,,,79,85
74784,note_on,199,0,3,,,,,,,,1,,,,58,64
74784,note_on,3,0,9,,,,,,,,3,,,,58,34
74829,note_on,45,0,3,,,,,,,,1,,,,58,0
74829,note_on,45,0,8,,,,,,,,3,,,,58,0
74829,note_on,45,0,9,,,,,,,,3,,,,58,0
74832,note_on,3,0,9,,,,,,,,3,,,,57,34
74832,note_on,3,0,8,,,,,,,,3,,,,57,34
74832,note_on,3,0,3,,,,,,,,1,,,,58,64
74855,note_on,23,0,3,,,,,,,,1,,,,58,0
74856,note_on,1,0,3,,,,,,,,1,,,,58,64
74873,note_on,89,0,5,,,,,,,,2,,,,75,0
74873,note_on,0,0,5,,,,,,,,2,,,,79,0
74873,note_on,89,0,6,,,,,,,,2,,,,63,0
74873,note_on,0,0,6,,,,,,,,2,,,,67,0
74877,note_on,45,0,9,,,,,,,,3,,,,57,0
74877,note_on,45,0,8,,,,,,,,3,,,,57,0
74879,note_on,23,0,3,,,,,,,,1,,,,58,0
74880,note_on,295,0,11,,,,,,,,3,,,,34,49
74880,note_on,3,0,9,,,,,,,,3,,,,58,34
74880,note_on,295,0,10,,,,,,,,3,,,,58,49
74880,note_on,0,0,6,,,,,,,,2,,,,62,85
74880,note_on,7,0,6,,,,,,,,2,,,,65,85
74880,note_on,1,0,3,,,,,,,,1,,,,62,64
74880,note_on,3,0,8,,,,,,,,3,,,,58,34
74880,note_on,7,0,5,,,,,,,,2,,,,77,85
74880,note_on,0,0,5,,,,,,,,2,,,,74,85
74925,note_on,45,0,8,,,,,,,,3,,,,58,0
74925,note_on,45,0,9,,,,,,,,3,,,,58,0
74928,note_on,3,0,8,,,,,,,,3,,,,57,34
74928,note_on,3,0,9,,,,,,,,3,,,,57,34
74969,note_on,89,0,10,,,,,,,,3,,,,58,0
74969,note_on,89,0,3,,,,,,,,1,,,,62,0
74969,note_on,89,0,11,,,,,,,,3,,,,34,0
74973,note_on,45,0,9,,,,,,,,3,,,,57,0
74973,note_on,45,0,8,,,,,,,,3,,,,57,0
74976,note_on,3,0,9,,,,,,,,3,,,,58,34
74976,note_on,3,0,8,,,,,,,,3,,,,58,34
75013,note_on,0,0,5,,,,,,,,2,,,,77,0
75013,note_on,133,0,6,,,,,,,,2,,,,62,0
75013,note_on,0,0,6,,,,,,,,2,,,,65,0
75013,note_on,133,0,5,,,,,,,,2,,,,74,0
75021,note_on,45,0,8,,,,,,,,3,,,,58,0
75021,note_on,45,0,9,,,,,,,,3,,,,58,0
75024,note_on,11,0,5,,,,,,,,2,,,,75,85
75024,note_on,0,0,5,,,,,,,,2,,,,72,85
75024,note_on,11,0,6,,,,,,,,2,,,,63,85
75024,note_on,0,0,6,,,,,,,,2,,,,60,85
75024,note_on,3,0,8,,,,,,,,3,,,,57,34
75024,note_on,3,0,9,,,,,,,,3,,,,57,34
75069,note_on,0,0,6,,,,,,,,2,,,,63,0
75069,note_on,45,0,6,,,,,,,,2,,,,60,0
75069,note_on,45,0,5,,,,,,,,2,,,,72,0
75069,note_on,45,0,9,,,,,,,,3,,,,57,0
75069,note_on,45,0,8,,,,,,,,3,,,,57,0
75069,note_on,0,0,5,,,,,,,,2,,,,75,0
75072,note_on,3,0,5,,,,,,,,2,,,,74,85
75072,note_on,0,0,6,,,,,,,,2,,,,58,85
75072,note_on,3,0,9,,,,,,,,3,,,,58,34
75072,note_on,0,0,5,,,,,,,,2,,,,70,85
75072,note_on,3,0,8,,,,,,,,3,,,,58,34
75072,note_on,3,0,6,,,,,,,,2,,,,62,85
75117,note_on,45,0,8,,,,,,,,3,,,,58,0
75117,note_on,45,0,9,,,,,,,,3,,,,58,0
75120,note_on,3,0,8,,,,,,,,3,,,,57,34
75120,note_on,3,0,9,,,,,,,,3,,,,57,34
75165,note_on,45,0,8,,,,,,,,3,,,,57,0
75165,note_on,45,0,9,,,,,,,,3,,,,57,0
75168,note_on,3,0,9,,,,,,,,3,,,,58,34
75168,note_on,3,0,8,,,,,,,,3,,,,58,34
75168,note_on,199,0,3,,,,,,,,1,,,,62,64
75213,note_on,45,0,3,,,,,,,,1,,,,62,0
75213,note_on,45,0,9,,,,,,,,3,,,,58,0
75213,note_on,45,0,8,,,,,,,,3,,,,58,0
75216,note_on,3,0,9,,,,,,,,3,,,,57,34
75216,note_on,3,0,3,,,,,,,,1,,,,62,64
75216,note_on,3,0,8,,,,,,,,3,,,,57,34
75239,note_on,23,0,3,,,,,,,,1,,,,62,0
75240,note_on,1,0,3,,,,,,,,1,,,,62,64
75249,note_on,177,0,5,,,,,,,,2,,,,70,0
75249,note_on,0,0,5,,,,,,,,2,,,,74,0
75249,note_on,0,0,6,,,,,,,,2,,,,62,0
75249,note_on,177,0,6,,,,,,,,2,,,,58,0
75261,note_on,45,0,9,,,,,,,,3,,,,57,0
75261,note_on,45,0,8,,,,,,,,3,,,,57,0
75263,note_on,23,0,3,,,,,,,,1,,,,62,0
75264,note_on,295,0,11,,,,,,,,3,,,,34,49
75264,note_on,3,0,9,,,,,,,,3,,,,58,34
75264,note_on,0,0,6,,,,,,,,2,,,,63,85
75264,note_on,295,0,10,,,,,,,,3,,,,58,49
75264,note_on,15,0,6,,,,,,,,2,,,,67,85
75264,note_on,3,0,8,,,,,,,,3,,,,58,34
75264,note_on,0,0,5,,,,,,,,2,,,,75,85
75264,note_on,15,0,5,,,,,,,,2,,,,79,85
75264,note_on,1,0,3,,,,,,,,1,,,,58,64
75309,note_on,45,0,9,,,,,,,,3,,,,58,0
75309,note_on,45,0,8,,,,,,,,3,,,,58,0
75312,note_on,3,0,9,,,,,,,,3,,,,57,34
75312,note_on,3,0,8,,,,,,,,3,,,,57,34
75353,note_on,0,0,5,,,,,,,,2,,,,79,0
75353,note_on,89,0,5,,,,,,,,2,,,,75,0
75353,note_on,89,0,3,,,,,,,,1,,,,58,0
75353,note_on,89,0,10,,,,,,,,3,,,,58,0
75353,note_on,89,0,11,,,,,,,,3,,,,34,0
75353,note_on,0,0,6,,,,,,,,2,,,,67,0
75353,note_on,89,0,6,,,,,,,,2,,,,63,0
75357,note_on,45,0,9,,,,,,,,3,,,,57,0
75357,note_on,45,0,8,,,,,,,,3,,,,57,0
75360,note_on,3,0,8,,,,,,,,3,,,,58,34
75360,note_on,0,0,6,,,,,,,,2,,,,67,85
75360,note_on,3,0,9,,,,,,,,3,,,,58,34
75360,note_on,7,0,5,,,,,,,,2,,,,82,85
75360,note_on,0,0,5,,,,,,,,2,,,,79,85
75360,note_on,7,0,6,,,,,,,,2,,,,70,85
75405,note_on,45,0,8,,,,,,,,3,,,,58,0
75405,note_on,45,0,9,,,,,,,,3,,,,58,0
75408,note_on,3,0,8,,,,,,,,3,,,,57,34
75408,note_on,3,0,9,,,,,,,,3,,,,57,34
75449,note_on,89,0,5,,,,,,,,2,,,,79,0
75449,note_on,0,0,5,,,,,,,,2,,,,82,0
75449,note_on,0,0,6,,,,,,,,2,,,,70,0
75449,note_on,89,0,6,,,,,,,,2,,,,67,0
75453,note_on,45,0,8,,,,,,,,3,,,,57,0
75453,note_on,45,0,9,,,,,,,,3,,,,57,0
75456,note_on,0,0,6,,,,,,,,2,,,,65,85
75456,note_on,7,0,6,,,,,,,,2,,,,69,85
75456,note_on,0,0,5,,,,,,,,2,,,,77,85
75456,note_on,7,0,5,,,,,,,,2,,,,81,85
75456,note_on,3,0,8,,,,,,,,3,,,,58,34
75456,note_on,3,0,9,,,,,,,,3,,,,58,34
75501,note_on,45,0,8,,,,,,,,3,,,,58,0
75501,note_on,45,0,9,,,,,,,,3,,,,58,0
75504,note_on,3,0,9,,,,,,,,3,,,,57,34
75504,note_on,3,0,8,,,,,,,,3,,,,57,34
75545,note_on,0,0,5,,,,,,,,2,,,,81,0
75545,note_on,89,0,5,,,,,,,,2,,,,77,0
75545,note_on,0,0,6,,,,,,,,2,,,,69,0
75545,note_on,89,0,6,,,,,,,,2,,,,65,0
75549,note_on,45,0,9,,,,,,,,3,,,,57,0
75549,note_on,45,0,8,,,,,,,,3,,,,57,0
75552,note_on,7,0,6,,,,,,,,2,,,,67,85
75552,note_on,0,0,6,,,,,,,,2,,,,63,85
75552,note_on,3,0,8,,,,,,,,3,,,,58,34
75552,note_on,3,0,9,,,,,,,,3,,,,58,34
75552,note_on,7,0,5,,,,,,,,2,,,,79,85
75552,note_on,199,0,3,,,,,,,,1,,,,58,64
75552,note_on,0,0,5,,,,,,,,2,,,,75,85
75597,note_on,45,0,8,,,,,,,,3,,,,58,0
75597,note_on,45,0,9,,,,,,,,3,,,,58,0
75597,note_on,45,0,3,,,,,,,,1,,,,58,0
75600,note_on,3,0,3,,,,,,,,1,,,,58,64
75600,note_on,3,0,9,,,,,,,,3,,,,57,34
75600,note_on,3,0,8,,,,,,,,3,,,,57,34
75623,note_on,23,0,3,,,,,,,,1,,,,58,0
75624,note_on,1,0,3,,,,,,,,1,,,,58,64
75641,note_on,89,0,5,,,,,,,,2,,,,75,0
75641,note_on,89,0,6,,,,,,,,2,,,,63,0
75641,note_on,0,0,5,,,,,,,,2,,,,79,0
75641,note_on,0,0,6,,,,,,,,2,,,,67,0
75645,note_on,45,0,8,,,,,,,,3,,,,57,0
75645,note_on,45,0,9,,,,,,,,3,,,,57,0
75647,note_on,23,0,3,,,,,,,,1,,,,58,0
75648,note_on,7,0,6,,,,,,,,2,,,,65,85
75648,note_on,0,0,6,,,,,,,,2,,,,62,85
75648,note_on,3,0,8,,,,,,,,3,,,,58,34
75648,note_on,3,0,9,,,,,,,,3,,,,58,34
75648,note_on,295,0,11,,,,,,,,3,,,,34,49
75648,note_on,7,0,5,,,,,,,,2,,,,77,85
75648,note_on,295,0,10,,,,,,,,3,,,,58,49
75648,note_on,0,0,5,,,,,,,,2,,,,74,85
75648,note_on,1,0,3,,,,,,,,1,,,,58,64
75693,note_on,45,0,8,,,,,,,,3,,,,58,0
75693,note_on,45,0,9,,,,,,,,3,,,,58,0
75696,note_on,3,0,8,,,,,,,,3,,,,57,34
75696,note_on,3,0,9,,,,,,,,3,,,,57,34
75737,note_on,89,0,3,,,,,,,,1,,,,58,0
75737,note_on,89,0,11,,,,,,,,3,,,,34,0
75737,note_on,89,0,10,,,,,,,,3,,,,58,0
75741,note_on,45,0,9,,,,,,,,3,,,,57,0
75741,note_on,45,0,8,,,,,,,,3,,,,57,0
75744,note_on,7,0,3,,,,,,,,1,,,,58,64
75744,note_on,3,0,8,,,,,,,,3,,,,58,34
75744,note_on,3,0,9,,,,,,,,3,,,,58,34
75781,note_on,133,0,6,,,,,,,,2,,,,62,0
75781,note_on,0,0,5,,,,,,,,2,,,,77,0
75781,note_on,133,0,5,,,,,,,,2,,,,74,0
75781,note_on,0,0,6,,,,,,,,2,,,,65,0
75789,note_on,45,0,8,,,,,,,,3,,,,58,0
75789,note_on,45,0,9,,,,,,,,3,,,,58,0
75792,note_on,3,0,8,,,,,,,,3,,,,57,34
75792,note_on,11,0,6,,,,,,,,2,,,,63,85
75792,note_on,0,0,6,,,,,,,,2,,,,60,85
75792,note_on,11,0,5,,,,,,,,2,,,,75,85
75792,note_on,0,0,5,,,,,,,,2,,,,72,85
75792,note_on,3,0,9,,,,,,,,3,,,,57,34
75833,note_on,89,0,3,,,,,,,,1,,,,58,0
75837,note_on,0,0,5,,,,,,,,2,,,,75,0
75837,note_on,45,0,5,,,,,,,,2,,,,72,0
75837,note_on,45,0,6,,,,,,,,2,,,,60,0
75837,note_on,45,0,8,,,,,,,,3,,,,57,0
75837,note_on,45,0,9,,,,,,,,3,,,,57,0
75837,note_on,0,0,6,,,,,,,,2,,,,63,0
75840,note_on,0,0,5,,,,,,,,2,,,,70,85
75840,note_on,7,0,3,,,,,,,,1,,,,62,64
75840,note_on,3,0,6,,,,,,,,2,,,,62,85
75840,note_on,0,0,6,,,,,,,,2,,,,58,85
75840,note_on,3,0,8,,,,,,,,3,,,,58,34
75840,note_on,3,0,9,,,,,,,,3,,,,58,34
75840,note_on,3,0,5,,,,,,,,2,,,,74,85
75885,note_on,45,0,9,,,,,,,,3,,,,58,0
75885,note_on,45,0,8,,,,,,,,3,,,,58,0
75888,note_on,3,0,9,,,,,,,,3,,,,57,34
75888,note_on,3,0,8,,,,,,,,3,,,,57,34
75929,note_on,89,0,3,,,,,,,,1,,,,62,0
75933,note_on,45,0,9,,,,,,,,3,,,,57,0
75933,note_on,45,0,8,,,,,,,,3,,,,57,0
75936,note_on,3,0,8,,,,,,,,3,,,,58,34
75936,note_on,3,0,9,,,,,,,,3,,,,58,34
75936,note_on,7,0,3,,,,,,,,1,,,,58,64
75981,note_on,45,0,8,,,,,,,,3,,,,58,0
75981,note_on,45,0,9,,,,,,,,3,,,,58,0
75984,note_on,3,0,8,,,,,,,,3,,,,62,34
75984,note_on,3,0,9,,,,,,,,3,,,,62,34
76002,note_on,1890,0,2,,,,,,,,0,,,,70,0
76002,note_on,2274,0,1,,,,,,,,0,,,,82,0
76017,note_on,177,0,6,,,,,,,,2,,,,58,0
76017,note_on,0,0,6,,,,,,,,2,,,,62,0
76017,note_on,0,0,5,,,,,,,,2,,,,74,0
76017,note_on,177,0,5,,,,,,,,2,,,,70,0
76025,note_on,89,0,3,,,,,,,,1,,,,58,0
76029,note_on,45,0,8,,,,,,,,3,,,,62,0
76029,note_on,45,0,9,,,,,,,,3,,,,62,0
76032,note_on,295,0,10,,,,,,,,3,,,,57,49
76032,note_on,3,0,8,,,,,,,,3,,,,65,34
76032,note_on,3,0,9,,,,,,,,3,,,,65,34
76032,note_on,295,0,11,,,,,,,,3,,,,33,49
76032,note_on,8463,0,7,,,,,,,,2,,,,53,85
76032,note_on,15,0,5,,,,,,,,2,,,,75,85
76032,note_on,7,0,3,,,,,,,,1,,,,65,64
76121,note_on,89,0,8,,,,,,,,3,,,,65,0
76121,note_on,89,0,11,,,,,,,,3,,,,33,0
76121,note_on,89,0,9,,,,,,,,3,,,,65,0
76121,note_on,89,0,3,,,,,,,,1,,,,65,0
76121,note_on,89,0,10,,,,,,,,3,,,,57,0
76128,note_on,7,0,10,,,,,,,,3,,,,65,49
76128,note_on,7,0,11,,,,,,,,3,,,,45,49
76128,note_on,7,0,8,,,,,,,,3,,,,75,34
76128,note_on,111,0,6,,,,,,,,2,,,,57,85
76128,note_on,7,0,9,,,,,,,,3,,,,72,34
76209,note_on,177,0,5,,,,,,,,2,,,,75,0
76217,note_on,89,0,6,,,,,,,,2,,,,57,0
76217,note_on,89,0,9,,,,,,,,3,,,,72,0
76217,note_on,89,0,11,,,,,,,,3,,,,45,0
76217,note_on,89,0,8,,,,,,,,3,,,,75,0
76224,note_on,15,0,5,,,,,,,,2,,,,74,85
76224,note_on,7,0,9,,,,,,,,3,,,,70,34
76224,note_on,7,0,11,,,,,,,,3,,,,46,49
76224,note_on,7,0,8,,,,,,,,3,,,,74,34
76224,note_on,7,0,6,,,,,,,,2,,,,58,85
76269,note_on,45,0,5,,,,,,,,2,,,,74,0
76272,note_on,3,0,5,,,,,,,,2,,,,70,85
76297,note_on,265,0,7,,,,,,,,2,,,,53,0
76305,note_on,177,0,10,,,,,,,,3,,,,65,0
76313,note_on,89,0,6,,,,,,,,2,,,,58,0
76313,note_on,89,0,9,,,,,,,,3,,,,70,0
76313,note_on,89,0,8,,,,,,,,3,,,,74,0
76313,note_on,89,0,11,,,,,,,,3,,,,46,0
76317,note_on,45,0,5,,,,,,,,2,,,,70,0
76320,note_on,7,0,9,,,,,,,,3,,,,67,34
76320,note_on,15,0,10,,,,,,,,3,,,,63,49
76320,note_on,3,0,5,,,,,,,,2,,,,79,85
76320,note_on,7,0,8,,,,,,,,3,,,,72,34
76320,note_on,7,0,6,,,,,,,,2,,,,60,85
76320,note_on,23,0,7,,,,,,,,2,,,,51,85
76320,note_on,7,0,11,,,,,,,,3,,,,39,49
76365,note_on,45,0,5,,,,,,,,2,,,,79,0
76368,note_on,3,0,5,,,,,,,,2,,,,75,85
76409,note_on,89,0,6,,,,,,,,2,,,,60,0
76409,note_on,89,0,8,,,,,,,,3,,,,72,0
76409,note_on,89,0,9,,,,,,,,3,,,,67,0
76409,note_on,89,0,10,,,,,,,,3,,,,63,0
76409,note_on,89,0,11,,,,,,,,3,,,,39,0
76409,note_on,89,0,7,,,,,,,,2,,,,51,0
76413,note_on,45,0,5,,,,,,,,2,,,,75,0
76416,note_on,7,0,8,,,,,,,,3,,,,70,34
76416,note_on,7,0,10,,,,,,,,3,,,,65,49
76416,note_on,7,0,9,,,,,,,,3,,,,62,34
76416,note_on,7,0,7,,,,,,,,2,,,,53,85
76416,note_on,7,0,6,,,,,,,,2,,,,58,85
76416,note_on,7,0,11,,,,,,,,3,,,,41,49
76416,note_on,3,0,5,,,,,,,,2,,,,74,85
76505,note_on,89,0,10,,,,,,,,3,,,,65,0
76505,note_on,89,0,6,,,,,,,,2,,,,58,0
76505,note_on,89,0,5,,,,,,,,2,,,,74,0
76505,note_on,89,0,8,,,,,,,,3,,,,70,0
76505,note_on,89,0,9,,,,,,,,3,,,,62,0
76512,note_on,7,0,10,,,,,,,,3,,,,53,49
76512,note_on,7,0,5,,,,,,,,2,,,,72,85
76512,note_on,7,0,6,,,,,,,,2,,,,57,85
76512,note_on,7,0,9,,,,,,,,3,,,,60,34
76512,note_on,7,0,8,,,,,,,,3,,,,69,34
76593,note_on,177,0,11,,,,,,,,3,,,,41,0
76593,note_on,177,0,7,,,,,,,,2,,,,53,0
76601,note_on,89,0,8,,,,,,,,3,,,,69,0
76601,note_on,89,0,6,,,,,,,,2,,,,57,0
76601,note_on,89,0,5,,,,,,,,2,,,,72,0
76601,note_on,89,0,9,,,,,,,,3,,,,60,0
76601,note_on,89,0,10,,,,,,,,3,,,,53,0
76608,note_on,7,0,6,,,,,,,,2,,,,53,85
76638,note_on,30,0,6,,,,,,,,2,,,,53,0
76640,note_on,2,0,6,,,,,,,,2,,,,55,85
76670,note_on,30,0,6,,,,,,,,2,,,,55,0
76672,note_on,2,0,6,,,,,,,,2,,,,53,85
76702,note_on,30,0,6,,,,,,,,2,,,,53,0
76704,note_on,2,0,6,,,,,,,,2,,,,51,85
76734,note_on,30,0,6,,,,,,,,2,,,,51,0
76736,note_on,2,0,6,,,,,,,,2,,,,50,85
76766,note_on,30,0,6,,,,,,,,2,,,,50,0
76768,note_on,2,0,6,,,,,,,,2,,,,48,85
76798,note_on,30,0,6,,,,,,,,2,,,,48,0
76800,note_on,2,0,6,,,,,,,,2,,,,46,85
76800,note_on,199,0,10,,,,,,,,3,,,,58,49
76800,note_on,679,0,3,,,,,,,,1,,,,58,49
76800,note_on,199,0,5,,,,,,,,2,,,,82,64
76800,note_on,207,0,11,,,,,,,,3,,,,34,49
76812,note_on,0,0,5,,,,,,,,2,,,,84,64
76812,note_on,12,0,5,,,,,,,,2,,,,82,0
76824,note_on,0,0,5,,,,,,,,2,,,,82,64
76824,note_on,12,0,5,,,,,,,,2,,,,84,0
76830,note_on,30,0,6,,,,,,,,2,,,,46,0
76832,note_on,2,0,6,,,,,,,,2,,,,58,85
76836,note_on,0,0,5,,,,,,,,2,,,,84,64
76836,note_on,12,0,5,,,,,,,,2,,,,82,0
76845,note_on,45,0,10,,,,,,,,3,,,,58,0
76845,note_on,45,0,11,,,,,,,,3,,,,34,0
76848,note_on,0,0,5,,,,,,,,2,,,,82,64
76848,note_on,3,0,11,,,,,,,,3,,,,33,49
76848,note_on,12,0,5,,,,,,,,2,,,,84,0
76848,note_on,3,0,10,,,,,,,,3,,,,57,49
76860,note_on,0,0,5,,,,,,,,2,,,,84,64
76860,note_on,12,0,5,,,,,,,,2,,,,82,0
76862,note_on,30,0,6,,,,,,,,2,,,,58,0
76864,note_on,2,0,6,,,,,,,,2,,,,57,85
76872,note_on,0,0,5,,,,,,,,2,,,,82,64
76872,note_on,12,0,5,,,,,,,,2,,,,84,0
76884,note_on,0,0,5,,,,,,,,2,,,,84,64
76884,note_on,12,0,5,,,,,,,,2,,,,82,0
76889,note_on,89,0,3,,,,,,,,1,,,,58,0
76893,note_on,45,0,11,,,,,,,,3,,,,33,0
76893,note_on,45,0,10,,,,,,,,3,,,,57,0
76894,note_on,30,0,6,,,,,,,,2,,,,57,0
76896,note_on,12,0,5,,,,,,,,2,,,,84,0
76896,note_on,295,0,8,,,,,,,,3,,,,62,34
76896,note_on,0,0,5,,,,,,,,2,,,,82,64
76896,note_on,2,0,6,,,,,,,,2,,,,58,85
76896,note_on,3,0,10,,,,,,,,3,,,,58,49
76896,note_on,3,0,11,,,,,,,,3,,,,34,49
76896,note_on,295,0,9,,,,,,,,3,,,,58,34
76896,note_on,894,0,1,,,,,,,,0,,,,74,49
76896,note_on,0,0,1,,,,,,,,0,,,,70,49
76908,note_on,0,0,5,,,,,,,,2,,,,84,64
76908,note_on,12,0,5,,,,,,,,2,,,,82,0
76920,note_on,12,0,5,,,,,,,,2,,,,84,0
76920,note_on,0,0,5,,,,,,,,2,,,,82,64
76926,note_on,30,0,6,,,,,,,,2,,,,58,0
76928,note_on,2,0,6,,,,,,,,2,,,,57,85
76932,note_on,0,0,5,,,,,,,,2,,,,84,64
76932,note_on,12,0,5,,,,,,,,2,,,,82,0
76941,note_on,45,0,10,,,,,,,,3,,,,58,0
76941,note_on,45,0,11,,,,,,,,3,,,,34,0
76944,note_on,3,0,11,,,,,,,,3,,,,33,49
76944,note_on,3,0,10,,,,,,,,3,,,,57,49
76944,note_on,12,0,5,,,,,,,,2,,,,84,0
76944,note_on,0,0,5,,,,,,,,2,,,,82,64
76956,note_on,0,0,5,,,,,,,,2,,,,84,64
76956,note_on,12,0,5,,,,,,,,2,,,,82,0
76958,note_on,30,0,6,,,,,,,,2,,,,57,0
76960,note_on,2,0,6,,,,,,,,2,,,,58,85
76968,note_on,12,0,5,,,,,,,,2,,,,84,0
76968,note_on,0,0,5,,,,,,,,2,,,,82,64
76980,note_on,0,0,5,,,,,,,,2,,,,84,64
76980,note_on,12,0,5,,,,,,,,2,,,,82,0
76985,note_on,89,0,9,,,,,,,,3,,,,58,0
76985,note_on,89,0,8,,,,,,,,3,,,,62,0
76985,note_on,89,0,1,,,,,,,,0,,,,70,0
76985,note_on,0,0,1,,,,,,,,0,,,,74,0
76989,note_on,45,0,10,,,,,,,,3,,,,57,0
76989,note_on,45,0,11,,,,,,,,3,,,,33,0
76990,note_on,30,0,6,,,,,,,,2,,,,58,0
76992,note_on,3,0,11,,,,,,,,3,,,,34,49
76992,note_on,7,0,1,,,,,,,,0,,,,74,49
76992,note_on,2,0,6,,,,,,,,2,,,,46,85
76992,note_on,12,0,5,,,,,,,,2,,,,84,0
76992,note_on,7,0,8,,,,,,,,3,,,,62,34
76992,note_on,0,0,5,,,,,,,,2,,,,82,64
76992,note_on,7,0,9,,,,,,,,3,,,,58,34
76992,note_on,0,0,1,,,,,,,,0,,,,70,49
76992,note_on,3,0,10,,,,,,,,3,,,,58,49
77004,note_on,12,0,5,,,,,,,,2,,,,82,0
77004,note_on,0,0,5,,,,,,,,2,,,,84,64
77016,note_on,12,0,5,,,,,,,,2,,,,84,0
77016,note_on,0,0,5,,,,,,,,2,,,,82,64
77022,note_on,30,0,6,,,,,,,,2,,,,46,0
77024,note_on,2,0,6,,,,,,,,2,,,,58,85
77028,note_on,12,0,5,,,,,,,,2,,,,82,0
77028,note_on,0,0,5,,,,,,,,2,,,,84,64
77037,note_on,45,0,11,,,,,,,,3,,,,34,0
77037,note_on,45,0,10,,,,,,,,3,,,,58,0
77040,note_on,3,0,11,,,,,,,,3,,,,33,49
77040,note_on,0,0,5,,,,,,,,2,,,,82,64
77040,note_on,3,0,10,,,,,,,,3,,,,57,49
77040,note_on,12,0,5,,,,,,,,2,,,,84,0
77052,note_on,12,0,5,,,,,,,,2,,,,82,0
77052,note_on,0,0,5,,,,,,,,2,,,,84,64
77054,note_on,30,0,6,,,,,,,,2,,,,58,0
77056,note_on,2,0,6,,,,,,,,2,,,,57,85
77064,note_on,12,0,5,,,,,,,,2,,,,84,0
77064,note_on,0,0,5,,,,,,,,2,,,,82,64
77076,note_on,12,0,5,,,,,,,,2,,,,82,0
77076,note_on,0,0,5,,,,,,,,2,,,,84,64
77081,note_on,89,0,8,,,,,,,,3,,,,62,0
77081,note_on,0,0,1,,,,,,,,0,,,,74,0
77081,note_on,89,0,9,,,,,,,,3,,,,58,0
77081,note_on,89,0,1,,,,,,,,0,,,,70,0
77085,note_on,45,0,11,,,,,,,,3,,,,33,0
77085,note_on,45,0,10,,,,,,,,3,,,,57,0
77086,note_on,30,0,6,,,,,,,,2,,,,57,0
77088,note_on,7,0,8,,,,,,,,3,,,,62,34
77088,note_on,7,0,1,,,,,,,,0,,,,74,49
77088,note_on,0,0,1,,,,,,,,0,,,,70,49
77088,note_on,3,0,11,,,,,,,,3,,,,34,49
77088,note_on,12,0,5,,,,,,,,2,,,,84,0
77088,note_on,0,0,5,,,,,,,,2,,,,82,64
77088,note_on,3,0,10,,,,,,,,3,,,,58,49
77088,note_on,199,0,3,,,,,,,,1,,,,58,49
77088,note_on,2,0,6,,,,,,,,2,,,,58,85
77088,note_on,7,0,9,,,,,,,,3,,,,58,34
77100,note_on,12,0,5,,,,,,,,2,,,,82,0
77100,note_on,0,0,5,,,,,,,,2,,,,84,64
77112,note_on,0,0,5,,,,,,,,2,,,,82,64
77112,note_on,12,0,5,,,,,,,,2,,,,84,0
77118,note_on,30,0,6,,,,,,,,2,,,,58,0
77120,note_on,2,0,6,,,,,,,,2,,,,57,85
77124,note_on,0,0,5,,,,,,,,2,,,,84,64
77124,note_on,12,0,5,,,,,,,,2,,,,82,0
77133,note_on,45,0,11,,,,,,,,3,,,,34,0
77133,note_on,45,0,10,,,,,,,,3,,,,58,0
77133,note_on,45,0,3,,,,,,,,1,,,,58,0
77136,note_on,12,0,5,,,,,,,,2,,,,84,0
77136,note_on,3,0,11,,,,,,,,3,,,,33,49
77136,note_on,3,0,10,,,,,,,,3,,,,57,49
77136,note_on,3,0,3,,,,,,,,1,,,,58,49
77136,note_on,0,0,5,,,,,,,,2,,,,82,64
77148,note_on,12,0,5,,,,,,,,2,,,,82,0
77148,note_on,0,0,5,,,,,,,,2,,,,84,64
77150,note_on,30,0,6,,,,,,,,2,,,,57,0
77152,note_on,2,0,6,,,,,,,,2,,,,58,85
77159,note_on,23,0,3,,,,,,,,1,,,,58,0
77160,note_on,0,0,5,,,,,,,,2,,,,82,64
77160,note_on,12,0,5,,,,,,,,2,,,,84,0
77160,note_on,1,0,3,,,,,,,,1,,,,58,49
77172,note_on,12,0,5,,,,,,,,2,,,,82,0
77172,note_on,0,0,5,,,,,,,,2,,,,84,64
77177,note_on,89,0,9,,,,,,,,3,,,,58,0
77177,note_on,89,0,8,,,,,,,,3,,,,62,0
77177,note_on,89,0,1,,,,,,,,0,,,,70,0
77177,note_on,0,0,1,,,,,,,,0,,,,74,0
77181,note_on,45,0,11,,,,,,,,3,,,,33,0
77181,note_on,45,0,10,,,,,,,,3,,,,57,0
77182,note_on,30,0,6,,,,,,,,2,,,,58,0
77183,note_on,23,0,3,,,,,,,,1,,,,58,0
77184,note_on,7,0,9,,,,,,,,3,,,,58,34
77184,note_on,12,0,5,,,,,,,,2,,,,84,0
77184,note_on,3,0,10,,,,,,,,3,,,,58,49
77184,note_on,2,0,6,,,,,,,,2,,,,46,85
77184,note_on,3,0,11,,,,,,,,3,,,,34,49
77184,note_on,7,0,1,,,,,,,,0,,,,74,49
77184,note_on,1,0,3,,,,,,,,1,,,,58,49
77184,note_on,0,0,1,,,,,,,,0,,,,70,49
77184,note_on,7,0,8,,,,,,,,3,,,,62,34
77184,note_on,0,0,5,,,,,,,,2,,,,82,64
77196,note_on,12,0,5,,,,,,,,2,,,,82,0
77196,note_on,0,0,5,,,,,,,,2,,,,84,64
77208,note_on,0,0,5,,,,,,,,2,,,,82,64
77208,note_on,12,0,5,,,,,,,,2,,,,84,0
77214,note_on,30,0,6,,,,,,,,2,,,,46,0
77216,note_on,2,0,6,,,,,,,,2,,,,58,85
77220,note_on,0,0,5,,,,,,,,2,,,,84,64
77220,note_on,12,0,5,,,,,,,,2,,,,82,0
77229,note_on,45,0,11,,,,,,,,3,,,,34,0
77229,note_on,45,0,10,,,,,,,,3,,,,58,0
77232,note_on,0,0,5,,,,,,,,2,,,,82,64
77232,note_on,3,0,10,,,,,,,,3,,,,57,49
77232,note_on,12,0,5,,,,,,,,2,,,,84,0
77232,note_on,3,0,11,,,,,,,,3,,,,33,49
77244,note_on,0,0,5,,,,,,,,2,,,,84,64
77244,note_on,12,0,5,,,,,,,,2,,,,82,0
77246,note_on,30,0,6,,,,,,,,2,,,,58,0
77248,note_on,2,0,6,,,,,,,,2,,,,57,85
77256,note_on,0,0,5,,,,,,,,2,,,,82,64
77256,note_on,12,0,5,,,,,,,,2,,,,84,0
77268,note_on,0,0,5,,,,,,,,2,,,,84,64
77268,note_on,12,0,5,,,,,,,,2,,,,82,0
77273,note_on,89,0,3,,,,,,,,1,,,,58,0
77277,note_on,45,0,11,,,,,,,,3,,,,33,0
77277,note_on,45,0,10,,,,,,,,3,,,,57,0
77278,note_on,30,0,6,,,,,,,,2,,,,57,0
77280,note_on,0,0,5,,,,,,,,2,,,,82,64
77280,note_on,12,0,5,,,,,,,,2,,,,84,0
77280,note_on,3,0,11,,,,,,,,3,,,,34,49
77280,note_on,3,0,10,,,,,,,,3,,,,58,49
77280,note_on,2,0,6,,,,,,,,2,,,,58,85
77292,note_on,12,0,5,,,,,,,,2,,,,82,0
77292,note_on,0,0,5,,,,,,,,2,,,,84,64
77304,note_on,12,0,5,,,,,,,,2,,,,84,0
77304,note_on,0,0,5,,,,,,,,2,,,,82,64
77310,note_on,30,0,6,,,,,,,,2,,,,58,0
77312,note_on,2,0,6,,,,,,,,2,,,,57,85
77316,note_on,12,0,5,,,,,,,,2,,,,82,0
77316,note_on,0,0,5,,,,,,,,2,,,,84,64
77317,note_on,0,0,1,,,,,,,,0,,,,74,0
77317,note_on,133,0,1,,,,,,,,0,,,,70,0
77317,note_on,133,0,9,,,,,,,,3,,,,58,0
77317,note_on,133,0,8,,,,,,,,3,,,,62,0
77325,note_on,45,0,11,,,,,,,,3,,,,34,0
77325,note_on,45,0,10,,,,,,,,3,,,,58,0
77328,note_on,0,0,5,,,,,,,,2,,,,82,64
77328,note_on,11,0,1,,,,,,,,0,,,,75,49
77328,note_on,12,0,5,,,,,,,,2,,,,84,0
77328,note_on,0,0,1,,,,,,,,0,,,,72,49
77328,note_on,11,0,8,,,,,,,,3,,,,63,34
77328,note_on,11,0,9,,,,,,,,3,,,,60,34
77328,note_on,3,0,11,,,,,,,,3,,,,33,49
77328,note_on,3,0,10,,,,,,,,3,,,,57,49
77340,note_on,12,0,5,,,,,,,,2,,,,82,0
77340,note_on,0,0,5,,,,,,,,2,,,,84,64
77342,note_on,30,0,6,,,,,,,,2,,,,57,0
77344,note_on,2,0,6,,,,,,,,2,,,,58,85
77352,note_on,0,0,5,,,,,,,,2,,,,82,64
77352,note_on,12,0,5,,,,,,,,2,,,,84,0
77364,note_on,12,0,5,,,,,,,,2,,,,82,0
77364,note_on,0,0,5,,,,,,,,2,,,,84,64
77373,note_on,0,0,1,,,,,,,,0,,,,75,0
77373,note_on,45,0,1,,,,,,,,0,,,,72,0
77373,note_on,45,0,9,,,,,,,,3,,,,60,0
77373,note_on,45,0,8,,,,,,,,3,,,,63,0
77373,note_on,45,0,10,,,,,,,,3,,,,57,0
77373,note_on,45,0,11,,,,,,,,3,,,,33,0
77374,note_on,30,0,6,,,,,,,,2,,,,58,0
77376,note_on,0,0,1,,,,,,,,0,,,,74,49
77376,note_on,3,0,11,,,,,,,,3,,,,34,49
77376,note_on,3,0,1,,,,,,,,0,,,,77,49
77376,note_on,2,0,6,,,,,,,,2,,,,46,85
77376,note_on,12,0,5,,,,,,,,2,,,,84,0
77376,note_on,0,0,5,,,,,,,,2,,,,82,64
77376,note_on,3,0,9,,,,,,,,3,,,,62,34
77376,note_on,3,0,8,,,,,,,,3,,,,65,34
77376,note_on,3,0,10,,,,,,,,3,,,,58,49
77388,note_on,0,0,5,,,,,,,,2,,,,84,64
77388,note_on,12,0,5,,,,,,,,2,,,,82,0
77400,note_on,12,0,5,,,,,,,,2,,,,84,0
77400,note_on,0,0,5,,,,,,,,2,,,,82,64
77406,note_on,30,0,6,,,,,,,,2,,,,46,0
77408,note_on,2,0,6,,,,,,,,2,,,,58,85
77412,note_on,0,0,5,,,,,,,,2,,,,84,64
77412,note_on,12,0,5,,,,,,,,2,,,,82,0
77421,note_on,45,0,10,,,,,,,,3,,,,58,0
77421,note_on,45,0,11,,,,,,,,3,,,,34,0
77424,note_on,3,0,10,,,,,,,,3,,,,57,49
77424,note_on,3,0,11,,,,,,,,3,,,,33,49
77424,note_on,0,0,5,,,,,,,,2,,,,82,64
77424,note_on,12,0,5,,,,,,,,2,,,,84,0
77436,note_on,0,0,5,,,,,,,,2,,,,84,64
77436,note_on,12,0,5,,,,,,,,2,,,,82,0
77438,note_on,30,0,6,,,,,,,,2,,,,58,0
77440,note_on,2,0,6,,,,,,,,2,,,,57,85
77448,note_on,12,0,5,,,,,,,,2,,,,84,0
77448,note_on,0,0,5,,,,,,,,2,,,,82,64
77460,note_on,0,0,5,,,,,,,,2,,,,84,64
77460,note_on,12,0,5,,,,,,,,2,,,,82,0
77469,note_on,45,0,10,,,,,,,,3,,,,57,0
77469,note_on,45,0,11,,,,,,,,3,,,,33,0
77470,note_on,30,0,6,,,,,,,,2,,,,57,0
77472,note_on,12,0,5,,,,,,,,2,,,,84,0
77472,note_on,199,0,3,,,,,,,,1,,,,58,49
77472,note_on,2,0,6,,,,,,,,2,,,,58,85
77472,note_on,3,0,10,,,,,,,,3,,,,58,49
77472,note_on,3,0,11,,,,,,,,3,,,,34,49
77472,note_on,0,0,5,,,,,,,,2,,,,82,64
77484,note_on,12,0,5,,,,,,,,2,,,,82,0
77484,note_on,0,0,5,,,,,,,,2,,,,84,64
77496,note_on,12,0,5,,,,,,,,2,,,,84,0
77496,note_on,0,0,5,,,,,,,,2,,,,82,64
77502,note_on,30,0,6,,,,,,,,2,,,,58,0
77504,note_on,2,0,6,,,,,,,,2,,,,57,85
77508,note_on,12,0,5,,,,,,,,2,,,,82,0
77508,note_on,0,0,5,,,,,,,,2,,,,84,64
77517,note_on,45,0,3,,,,,,,,1,,,,58,0
77517,note_on,45,0,11,,,,,,,,3,,,,34,0
77517,note_on,45,0,10,,,,,,,,3,,,,58,0
77520,note_on,3,0,3,,,,,,,,1,,,,58,49
77520,note_on,3,0,11,,,,,,,,3,,,,33,49
77520,note_on,3,0,10,,,,,,,,3,,,,57,49
77520,note_on,12,0,5,,,,,,,,2,,,,84,0
77520,note_on,0,0,5,,,,,,,,2,,,,82,64
77532,note_on,0,0,5,,,,,,,,2,,,,84,64
77532,note_on,12,0,5,,,,,,,,2,,,,82,0
77534,note_on,30,0,6,,,,,,,,2,,,,57,0
77536,note_on,2,0,6,,,,,,,,2,,,,58,85
77543,note_on,23,0,3,,,,,,,,1,,,,58,0
77544,note_on,1,0,3,,,,,,,,1,,,,58,49
77544,note_on,12,0,5,,,,,,,,2,,,,84,0
77544,note_on,0,0,5,,,,,,,,2,,,,82,64
77553,note_on,177,0,9,,,,,,,,3,,,,62,0
77553,note_on,177,0,1,,,,,,,,0,,,,74,0
77553,note_on,0,0,1,,,,,,,,0,,,,77,0
77553,note_on,177,0,8,,,,,,,,3,,,,65,0
77556,note_on,0,0,5,,,,,,,,2,,,,84,64
77556,note_on,12,0,5,,,,,,,,2,,,,82,0
77565,note_on,45,0,10,,,,,,,,3,,,,57,0
77565,note_on,45,0,11,,,,,,,,3,,,,33,0
77566,note_on,30,0,6,,,,,,,,2,,,,58,0
77567,note_on,23,0,3,,,,,,,,1,,,,58,0
77568,note_on,15,0,8,,,,,,,,3,,,,67,34
77568,note_on,1,0,3,,,,,,,,1,,,,58,49
77568,note_on,3,0,11,,,,,,,,3,,,,34,49
77568,note_on,15,0,9,,,,,,,,3,,,,63,34
77568,note_on,3,0,10,,,,,,,,3,,,,58,49
77568,note_on,0,0,1,,,,,,,,0,,,,75,49
77568,note_on,15,0,1,,,,,,,,0,,,,79,49
77568,note_on,2,0,6,,,,,,,,2,,,,46,85
77568,note_on,12,0,5,,,,,,,,2,,,,84,0
77568,note_on,0,0,5,,,,,,,,2,,,,82,64
77580,note_on,12,0,5,,,,,,,,2,,,,82,0
77580,note_on,0,0,5,,,,,,,,2,,,,84,64
77592,note_on,12,0,5,,,,,,,,2,,,,84,0
77592,note_on,0,0,5,,,,,,,,2,,,,82,64
77598,note_on,30,0,6,,,,,,,,2,,,,46,0
77600,note_on,2,0,6,,,,,,,,2,,,,58,85
77604,note_on,12,0,5,,,,,,,,2,,,,82,0
77604,note_on,0,0,5,,,,,,,,2,,,,84,64
77613,note_on,45,0,11,,,,,,,,3,,,,34,0
77613,note_on,45,0,10,,,,,,,,3,,,,58,0
77616,note_on,3,0,11,,,,,,,,3,,,,33,49
77616,note_on,12,0,5,,,,,,,,2,,,,84,0
77616,note_on,0,0,5,,,,,,,,2,,,,82,64
77616,note_on,3,0,10,,,,,,,,3,,,,57,49
77628,note_on,12,0,5,,,,,,,,2,,,,82,0
77628,note_on,0,0,5,,,,,,,,2,,,,84,64
77630,note_on,30,0,6,,,,,,,,2,,,,58,0
77632,note_on,2,0,6,,,,,,,,2,,,,57,85
77640,note_on,12,0,5,,,,,,,,2,,,,84,0
77640,note_on,0,0,5,,,,,,,,2,,,,82,64
77652,note_on,0,0,5,,,,,,,,2,,,,84,64
77652,note_on,12,0,5,,,,,,,,2,,,,82,0
77657,note_on,89,0,1,,,,,,,,0,,,,75,0
77657,note_on,89,0,8,,,,,,,,3,,,,67,0
77657,note_on,89,0,9,,,,,,,,3,,,,63,0
77657,note_on,0,0,1,,,,,,,,0,,,,79,0
77661,note_on,45,0,10,,,,,,,,3,,,,57,0
77661,note_on,45,0,11,,,,,,,,3,,,,33,0
77662,note_on,30,0,6,,,,,,,,2,,,,57,0
77664,note_on,0,0,5,,,,,,,,2,,,,82,64
77664,note_on,3,0,10,,,,,,,,3,,,,58,49
77664,note_on,3,0,11,,,,,,,,3,,,,34,49
77664,note_on,7,0,1,,,,,,,,0,,,,82,49
77664,note_on,0,0,1,,,,,,,,0,,,,79,49
77664,note_on,7,0,9,,,,,,,,3,,,,67,34
77664,note_on,12,0,5,,,,,,,,2,,,,84,0
77664,note_on,2,0,6,,,,,,,,2,,,,58,85
77664,note_on,7,0,8,,,,,,,,3,,,,70,34
77676,note_on,0,0,5,,,,,,,,2,,,,84,64
77676,note_on,12,0,5,,,,,,,,2,,,,82,0
77688,note_on,12,0,5,,,,,,,,2,,,,84,0
77688,note_on,0,0,5,,,,,,,,2,,,,82,64
77694,note_on,30,0,6,,,,,,,,2,,,,58,0
77696,note_on,2,0,6,,,,,,,,2,,,,57,85
77700,note_on,0,0,5,,,,,,,,2,,,,84,64
77700,note_on,12,0,5,,,,,,,,2,,,,82,0
77709,note_on,45,0,11,,,,,,,,3,,,,34,0
77709,note_on,45,0,10,,,,,,,,3,,,,58,0
77712,note_on,12,0,5,,,,,,,,2,,,,84,0
77712,note_on,0,0,5,,,,,,,,2,,,,82,64
77712,note_on,3,0,10,,,,,,,,3,,,,57,49
77712,note_on,3,0,11,,,,,,,,3,,,,33,49
77724,note_on,12,0,5,,,,,,,,2,,,,82,0
77724,note_on,0,0,5,,,,,,,,2,,,,84,64
77726,note_on,30,0,6,,,,,,,,2,,,,57,0
77728,note_on,2,0,6,,,,,,,,2,,,,58,85
77736,note_on,12,0,5,,,,,,,,2,,,,84,0
77736,note_on,0,0,5,,,,,,,,2,,,,82,64
77745,note_on,177,0,3,,,,,,,,1,,,,58,0
77748,note_on,0,0,5,,,,,,,,2,,,,84,64
77748,note_on,12,0,5,,,,,,,,2,,,,82,0
77753,note_on,89,0,9,,,,,,,,3,,,,67,0
77753,note_on,89,0,1,,,,,,,,0,,,,79,0
77753,note_on,89,0,8,,,,,,,,3,,,,70,0
77753,note_on,0,0,1,,,,,,,,0,,,,82,0
77757,note_on,45,0,11,,,,,,,,3,,,,33,0
77757,note_on,45,0,10,,,,,,,,3,,,,57,0
77758,note_on,30,0,6,,,,,,,,2,,,,58,0
77760,note_on,7,0,9,,,,,,,,3,,,,65,34
77760,note_on,3,0,10,,,,,,,,3,,,,58,49
77760,note_on,2,0,6,,,,,,,,2,,,,46,85
77760,note_on,0,0,5,,,,,,,,2,,,,82,64
77760,note_on,12,0,5,,,,,,,,2,,,,84,0
77760,note_on,0,0,1,,,,,,,,0,,,,77,49
77760,note_on,3,0,11,,,,,,,,3,,,,34,49
77760,note_on,15,0,3,,,,,,,,1,,,,58,49
77760,note_on,7,0,1,,,,,,,,0,,,,81,49
77760,note_on,7,0,8,,,,,,,,3,,,,69,34
77772,note_on,0,0,5,,,,,,,,2,,,,84,64
77772,note_on,12,0,5,,,,,,,,2,,,,82,0
77784,note_on,0,0,5,,,,,,,,2,,,,82,64
77784,note_on,12,0,5,,,,,,,,2,,,,84,0
77790,note_on,30,0,6,,,,,,,,2,,,,46,0
77792,note_on,2,0,6,,,,,,,,2,,,,58,85
77796,note_on,12,0,5,,,,,,,,2,,,,82,0
77796,note_on,0,0,5,,,,,,,,2,,,,84,64
77805,note_on,45,0,11,,,,,,,,3,,,,34,0
77805,note_on,45,0,10,,,,,,,,3,,,,58,0
77808,note_on,0,0,5,,,,,,,,2,,,,82,64
77808,note_on,3,0,10,,,,,,,,3,,,,57,49
77808,note_on,12,0,5,,,,,,,,2,,,,84,0
77808,note_on,3,0,11,,,,,,,,3,,,,33,49
77820,note_on,0,0,5,,,,,,,,2,,,,84,64
77820,note_on,12,0,5,,,,,,,,2,,,,82,0
77822,note_on,30,0,6,,,,,,,,2,,,,58,0
77824,note_on,2,0,6,,,,,,,,2,,,,57,85
77832,note_on,0,0,5,,,,,,,,2,,,,82,64
77832,note_on,12,0,5,,,,,,,,2,,,,84,0
77844,note_on,0,0,5,,,,,,,,2,,,,84,64
77844,note_on,12,0,5,,,,,,,,2,,,,82,0
77849,note_on,89,0,8,,,,,,,,3,,,,69,0
77849,note_on,0,0,1,,,,,,,,0,,,,81,0
77849,note_on,89,0,9,,,,,,,,3,,,,65,0
77849,note_on,89,0,1,,,,,,,,0,,,,77,0
77849,note_on,89,0,3,,,,,,,,1,,,,58,0
77853,note_on,45,0,10,,,,,,,,3,,,,57,0
77853,note_on,45,0,11,,,,,,,,3,,,,33,0
77854,note_on,30,0,6,,,,,,,,2,,,,57,0
77856,note_on,2,0,6,,,,,,,,2,,,,58,85
77856,note_on,0,0,1,,,,,,,,0,,,,75,49
77856,note_on,7,0,1,,,,,,,,0,,,,79,49
77856,note_on,7,0,9,,,,,,,,3,,,,63,34
77856,note_on,3,0,11,,,,,,,,3,,,,34,49
77856,note_on,7,0,8,,,,,,,,3,,,,67,34
77856,note_on,3,0,10,,,,,,,,3,,,,58,49
77856,note_on,7,0,3,,,,,,,,1,,,,58,49
77856,note_on,0,0,5,,,,,,,,2,,,,82,64
77856,note_on,12,0,5,,,,,,,,2,,,,84,0
77868,note_on,12,0,5,,,,,,,,2,,,,82,0
77868,note_on,0,0,5,,,,,,,,2,,,,84,64
77880,note_on,12,0,5,,,,,,,,2,,,,84,0
77880,note_on,0,0,5,,,,,,,,2,,,,82,64
77886,note_on,30,0,6,,,,,,,,2,,,,58,0
77888,note_on,2,0,6,,,,,,,,2,,,,57,85
77892,note_on,0,0,5,,,,,,,,2,,,,84,64
77892,note_on,12,0,5,,,,,,,,2,,,,82,0
77901,note_on,45,0,11,,,,,,,,3,,,,34,0
77901,note_on,45,0,10,,,,,,,,3,,,,58,0
77901,note_on,45,0,3,,,,,,,,1,,,,58,0
77904,note_on,12,0,5,,,,,,,,2,,,,84,0
77904,note_on,0,0,5,,,,,,,,2,,,,82,64
77904,note_on,3,0,3,,,,,,,,1,,,,58,49
77904,note_on,3,0,11,,,,,,,,3,,,,33,49
77904,note_on,3,0,10,,,,,,,,3,,,,57,49
77916,note_on,12,0,5,,,,,,,,2,,,,82,0
77916,note_on,0,0,5,,,,,,,,2,,,,84,64
77918,note_on,30,0,6,,,,,,,,2,,,,57,0
77920,note_on,2,0,6,,,,,,,,2,,,,58,85
77927,note_on,23,0,3,,,,,,,,1,,,,58,0
77928,note_on,0,0,5,,,,,,,,2,,,,82,64
77928,note_on,12,0,5,,,,,,,,2,,,,84,0
77928,note_on,1,0,3,,,,,,,,1,,,,58,49
77940,note_on,0,0,5,,,,,,,,2,,,,84,64
77940,note_on,12,0,5,,,,,,,,2,,,,82,0
77945,note_on,0,0,1,,,,,,,,0,,,,79,0
77945,note_on,89,0,8,,,,,,,,3,,,,67,0
77945,note_on,89,0,1,,,,,,,,0,,,,75,0
77945,note_on,89,0,9,,,,,,,,3,,,,63,0
77949,note_on,45,0,11,,,,,,,,3,,,,33,0
77949,note_on,45,0,10,,,,,,,,3,,,,57,0
77950,note_on,30,0,6,,,,,,,,2,,,,58,0
77951,note_on,23,0,3,,,,,,,,1,,,,58,0
77952,note_on,7,0,1,,,,,,,,0,,,,77,49
77952,note_on,2,0,6,,,,,,,,2,,,,46,85
77952,note_on,12,0,5,,,,,,,,2,,,,84,0
77952,note_on,0,0,5,,,,,,,,2,,,,82,64
77952,note_on,7,0,8,,,,,,,,3,,,,65,34
77952,note_on,1,0,3,,,,,,,,1,,,,62,49
77952,note_on,7,0,9,,,,,,,,3,,,,62,34
77952,note_on,3,0,11,,,,,,,,3,,,,34,49
77952,note_on,3,0,10,,,,,,,,3,,,,58,49
77952,note_on,0,0,1,,,,,,,,0,,,,74,49
77964,note_on,12,0,5,,,,,,,,2,,,,82,0
77964,note_on,0,0,5,,,,,,,,2,,,,84,64
77976,note_on,0,0,5,,,,,,,,2,,,,82,64
77976,note_on,12,0,5,,,,,,,,2,,,,84,0
77982,note_on,30,0,6,,,,,,,,2,,,,46,0
77984,note_on,2,0,6,,,,,,,,2,,,,58,85
77988,note_on,0,0,5,,,,,,,,2,,,,84,64
77988,note_on,12,0,5,,,,,,,,2,,,,82,0
77997,note_on,45,0,11,,,,,,,,3,,,,34,0
77997,note_on,45,0,10,,,,,,,,3,,,,58,0
78000,note_on,3,0,10,,,,,,,,3,,,,57,49
78000,note_on,12,0,5,,,,,,,,2,,,,84,0
78000,note_on,3,0,11,,,,,,,,3,,,,33,49
78000,note_on,0,0,5,,,,,,,,2,,,,82,64
78012,note_on,0,0,5,,,,,,,,2,,,,84,64
78012,note_on,12,0,5,,,,,,,,2,,,,82,0
78014,note_on,30,0,6,,,,,,,,2,,,,58,0
78016,note_on,2,0,6,,,,,,,,2,,,,57,85
78024,note_on,12,0,5,,,,,,,,2,,,,84,0
78024,note_on,0,0,5,,,,,,,,2,,,,82,64
78036,note_on,12,0,5,,,,,,,,2,,,,82,0
78036,note_on,0,0,5,,,,,,,,2,,,,84,64
78041,note_on,89,0,3,,,,,,,,1,,,,62,0
78045,note_on,45,0,10,,,,,,,,3,,,,57,0
78045,note_on,45,0,11,,,,,,,,3,,,,33,0
78046,note_on,30,0,6,,,,,,,,2,,,,57,0
78048,note_on,2,0,6,,,,,,,,2,,,,58,85
78048,note_on,3,0,10,,,,,,,,3,,,,58,49
78048,note_on,3,0,11,,,,,,,,3,,,,34,49
78048,note_on,12,0,5,,,,,,,,2,,,,84,0
78048,note_on,0,0,5,,,,,,,,2,,,,82,64
78060,note_on,12,0,5,,,,,,,,2,,,,82,0
78060,note_on,0,0,5,,,,,,,,2,,,,84,64
78072,note_on,12,0,5,,,,,,,,2,,,,84,0
78072,note_on,0,0,5,,,,,,,,2,,,,82,64
78078,note_on,30,0,6,,,,,,,,2,,,,58,0
78080,note_on,2,0,6,,,,,,,,2,,,,57,85
78084,note_on,12,0,5,,,,,,,,2,,,,82,0
78084,note_on,0,0,5,,,,,,,,2,,,,84,64
78085,note_on,133,0,8,,,,,,,,3,,,,65,0
78085,note_on,133,0,9,,,,,,,,3,,,,62,0
78085,note_on,133,0,1,,,,,,,,0,,,,74,0
78085,note_on,0,0,1,,,,,,,,0,,,,77,0
78093,note_on,45,0,11,,,,,,,,3,,,,34,0
78093,note_on,45,0,10,,,,,,,,3,,,,58,0
78096,note_on,12,0,5,,,,,,,,2,,,,84,0
78096,note_on,3,0,11,,,,,,,,3,,,,33,49
78096,note_on,0,0,1,,,,,,,,0,,,,72,49
78096,note_on,11,0,1,,,,,,,,0,,,,75,49
78096,note_on,11,0,8,,,,,,,,3,,,,63,34
78096,note_on,0,0,5,,,,,,,,2,,,,82,64
78096,note_on,3,0,10,,,,,,,,3,,,,57,49
78096,note_on,11,0,9,,,,,,,,3,,,,60,34
78108,note_on,0,0,5,,,,,,,,2,,,,84,64
78108,note_on,12,0,5,,,,,,,,2,,,,82,0
78110,note_on,30,0,6,,,,,,,,2,,,,57,0
78112,note_on,2,0,6,,,,,,,,2,,,,58,85
78120,note_on,12,0,5,,,,,,,,2,,,,84,0
78120,note_on,0,0,5,,,,,,,,2,,,,82,64
78132,note_on,12,0,5,,,,,,,,2,,,,82,0
78132,note_on,0,0,5,,,,,,,,2,,,,84,64
78141,note_on,0,0,1,,,,,,,,0,,,,75,0
78141,note_on,45,0,1,,,,,,,,0,,,,72,0
78141,note_on,45,0,9,,,,,,,,3,,,,60,0
78141,note_on,45,0,10,,,,,,,,3,,,,57,0
78141,note_on,45,0,8,,,,,,,,3,,,,63,0
78141,note_on,45,0,11,,,,,,,,3,,,,33,0
78142,note_on,30,0,6,,,,,,,,2,,,,58,0
78144,note_on,0,0,1,,,,,,,,0,,,,70,49
78144,note_on,3,0,1,,,,,,,,0,,,,74,49
78144,note_on,3,0,11,,,,,,,,3,,,,34,49
78144,note_on,0,0,5,,,,,,,,2,,,,82,64
78144,note_on,3,0,8,,,,,,,,3,,,,62,34
78144,note_on,3,0,10,,,,,,,,3,,,,58,49
78144,note_on,3,0,9,,,,,,,,3,,,,58,34
78144,note_on,2,0,6,,,,,,,,2,,,,46,85
78144,note_on,12,0,5,,,,,,,,2,,,,84,0
78156,note_on,12,0,5,,,,,,,,2,,,,82,0
78156,note_on,0,0,5,,,,,,,,2,,,,84,64
78168,note_on,12,0,5,,,,,,,,2,,,,84,0
78168,note_on,0,0,5,,,,,,,,2,,,,82,64
78174,note_on,30,0,6,,,,,,,,2,,,,46,0
78176,note_on,2,0,6,,,,,,,,2,,,,58,85
78180,note_on,12,0,5,,,,,,,,2,,,,82,0
78180,note_on,0,0,5,,,,,,,,2,,,,84,64
78189,note_on,45,0,11,,,,,,,,3,,,,34,0
78189,note_on,45,0,10,,,,,,,,3,,,,58,0
78192,note_on,3,0,11,,,,,,,,3,,,,33,49
78192,note_on,12,0,5,,,,,,,,2,,,,84,0
78192,note_on,0,0,5,,,,,,,,2,,,,82,64
78192,note_on,3,0,10,,,,,,,,3,,,,57,49
78204,note_on,0,0,5,,,,,,,,2,,,,84,64
78204,note_on,12,0,5,,,,,,,,2,,,,82,0
78206,note_on,30,0,6,,,,,,,,2,,,,58,0
78208,note_on,2,0,6,,,,,,,,2,,,,57,85
78216,note_on,0,0,5,,,,,,,,2,,,,82,64
78216,note_on,12,0,5,,,,,,,,2,,,,84,0
78228,note_on,0,0,5,,,,,,,,2,,,,84,64
78228,note_on,12,0,5,,,,,,,,2,,,,82,0
78237,note_on,45,0,10,,,,,,,,3,,,,57,0
78237,note_on,45,0,11,,,,,,,,3,,,,33,0
78238,note_on,30,0,6,,,,,,,,2,,,,57,0
78240,note_on,199,0,3,,,,,,,,1,,,,62,49
78240,note_on,2,0,6,,,,,,,,2,,,,58,85
78240,note_on,12,0,5,,,,,,,,2,,,,84,0
78240,note_on,0,0,5,,,,,,,,2,,,,82,64
78240,note_on,3,0,11,,,,,,,,3,,,,34,49
78240,note_on,3,0,10,,,,,,,,3,,,,58,49
78252,note_on,12,0,5,,,,,,,,2,,,,82,0
78252,note_on,0,0,5,,,,,,,,2,,,,84,64
78264,note_on,12,0,5,,,,,,,,2,,,,84,0
78264,note_on,0,0,5,,,,,,,,2,,,,82,64
78270,note_on,30,0,6,,,,,,,,2,,,,58,0
78272,note_on,2,0,6,,,,,,,,2,,,,57,85
78276,note_on,12,0,5,,,,,,,,2,,,,82,0
78276,note_on,0,0,5,,,,,,,,2,,,,84,64
78285,note_on,45,0,3,,,,,,,,1,,,,62,0
78285,note_on,45,0,11,,,,,,,,3,,,,34,0
78285,note_on,45,0,10,,,,,,,,3,,,,58,0
78288,note_on,3,0,11,,,,,,,,3,,,,33,49
78288,note_on,3,0,3,,,,,,,,1,,,,62,49
78288,note_on,3,0,10,,,,,,,,3,,,,57,49
78288,note_on,0,0,5,,,,,,,,2,,,,82,64
78288,note_on,12,0,5,,,,,,,,2,,,,84,0
78300,note_on,0,0,5,,,,,,,,2,,,,84,64
78300,note_on,12,0,5,,,,,,,,2,,,,82,0
78302,note_on,30,0,6,,,,,,,,2,,,,57,0
78304,note_on,2,0,6,,,,,,,,2,,,,58,85
78311,note_on,23,0,3,,,,,,,,1,,,,62,0
78312,note_on,12,0,5,,,,,,,,2,,,,84,0
78312,note_on,0,0,5,,,,,,,,2,,,,82,64
78312,note_on,1,0,3,,,,,,,,1,,,,62,49
78321,note_on,0,0,1,,,,,,,,0,,,,74,0
78321,note_on,177,0,1,,,,,,,,0,,,,70,0
78321,note_on,177,0,9,,,,,,,,3,,,,58,0
78321,note_on,177,0,8,,,,,,,,3,,,,62,0
78324,note_on,12,0,5,,,,,,,,2,,,,82,0
78324,note_on,0,0,5,,,,,,,,2,,,,84,64
78333,note_on,45,0,10,,,,,,,,3,,,,57,0
78333,note_on,45,0,11,,,,,,,,3,,,,33,0
78334,note_on,30,0,6,,,,,,,,2,,,,58,0
78335,note_on,23,0,3,,,,,,,,1,,,,62,0
78336,note_on,15,0,1,,,,,,,,0,,,,79,49
78336,note_on,0,0,1,,,,,,,,0,,,,75,49
78336,note_on,15,0,9,,,,,,,,3,,,,63,34
78336,note_on,12,0,5,,,,,,,,2,,,,84,0
78336,note_on,0,0,5,,,,,,,,2,,,,82,64
78336,note_on,3,0,11,,,,,,,,3,,,,34,49
78336,note_on,15,0,8,,,,,,,,3,,,,67,34
78336,note_on,3,0,10,,,,,,,,3,,,,58,49
78336,note_on,2,0,6,,,,,,,,2,,,,46,85
78336,note_on,1,0,3,,,,,,,,1,,,,58,49
78348,note_on,12,0,5,,,,,,,,2,,,,82,0
78348,note_on,0,0,5,,,,,,,,2,,,,84,64
78360,note_on,12,0,5,,,,,,,,2,,,,84,0
78360,note_on,0,0,5,,,,,,,,2,,,,82,64
78366,note_on,30,0,6,,,,,,,,2,,,,46,0
78368,note_on,2,0,6,,,,,,,,2,,,,58,85
78372,note_on,12,0,5,,,,,,,,2,,,,82,0
78372,note_on,0,0,5,,,,,,,,2,,,,84,64
78381,note_on,45,0,10,,,,,,,,3,,,,58,0
78381,note_on,45,0,11,,,,,,,,3,,,,34,0
78384,note_on,3,0,10,,,,,,,,3,,,,57,49
78384,note_on,0,0,5,,,,,,,,2,,,,82,64
78384,note_on,12,0,5,,,,,,,,2,,,,84,0
78384,note_on,3,0,11,,,,,,,,3,,,,33,49
78396,note_on,0,0,5,,,,,,,,2,,,,84,64
78396,note_on,12,0,5,,,,,,,,2,,,,82,0
78398,note_on,30,0,6,,,,,,,,2,,,,58,0
78400,note_on,2,0,6,,,,,,,,2,,,,57,85
78408,note_on,0,0,5,,,,,,,,2,,,,82,64
78408,note_on,12,0,5,,,,,,,,2,,,,84,0
78420,note_on,0,0,5,,,,,,,,2,,,,84,64
78420,note_on,12,0,5,,,,,,,,2,,,,82,0
78425,note_on,0,0,1,,,,,,,,0,,,,79,0
78425,note_on,89,0,8,,,,,,,,3,,,,67,0
78425,note_on,89,0,1,,,,,,,,0,,,,75,0
78425,note_on,89,0,9,,,,,,,,3,,,,63,0
78429,note_on,45,0,10,,,,,,,,3,,,,57,0
78429,note_on,45,0,11,,,,,,,,3,,,,33,0
78430,note_on,30,0,6,,,,,,,,2,,,,57,0
78432,note_on,7,0,1,,,,,,,,0,,,,82,49
78432,note_on,12,0,5,,,,,,,,2,,,,84,0
78432,note_on,0,0,5,,,,,,,,2,,,,82,64
78432,note_on,7,0,8,,,,,,,,3,,,,70,34
78432,note_on,0,0,1,,,,,,,,0,,,,79,49
78432,note_on,3,0,10,,,,,,,,3,,,,58,49
78432,note_on,2,0,6,,,,,,,,2,,,,58,85
78432,note_on,7,0,9,,,,,,,,3,,,,67,34
78432,note_on,3,0,11,,,,,,,,3,,,,34,49
78444,note_on,0,0,5,,,,,,,,2,,,,84,64
78444,note_on,12,0,5,,,,,,,,2,,,,82,0
78456,note_on,12,0,5,,,,,,,,2,,,,84,0
78456,note_on,0,0,5,,,,,,,,2,,,,82,64
78462,note_on,30,0,6,,,,,,,,2,,,,58,0
78464,note_on,2,0,6,,,,,,,,2,,,,57,85
78468,note_on,12,0,5,,,,,,,,2,,,,82,0
78468,note_on,0,0,5,,,,,,,,2,,,,84,64
78477,note_on,45,0,11,,,,,,,,3,,,,34,0
78477,note_on,45,0,10,,,,,,,,3,,,,58,0
78480,note_on,3,0,10,,,,,,,,3,,,,57,49
78480,note_on,0,0,5,,,,,,,,2,,,,82,64
78480,note_on,3,0,11,,,,,,,,3,,,,33,49
78480,note_on,12,0,5,,,,,,,,2,,,,84,0
78492,note_on,0,0,5,,,,,,,,2,,,,84,64
78492,note_on,12,0,5,,,,,,,,2,,,,82,0
78494,note_on,30,0,6,,,,,,,,2,,,,57,0
78496,note_on,2,0,6,,,,,,,,2,,,,58,85
78504,note_on,0,0,5,,,,,,,,2,,,,82,64
78504,note_on,12,0,5,,,,,,,,2,,,,84,0
78513,note_on,177,0,3,,,,,,,,1,,,,58,0
78516,note_on,0,0,5,,,,,,,,2,,,,84,64
78516,note_on,12,0,5,,,,,,,,2,,,,82,0
78521,note_on,89,0,8,,,,,,,,3,,,,70,0
78521,note_on,89,0,9,,,,,,,,3,,,,67,0
78521,note_on,89,0,1,,,,,,,,0,,,,79,0
78521,note_on,0,0,1,,,,,,,,0,,,,82,0
78525,note_on,45,0,10,,,,,,,,3,,,,57,0
78525,note_on,45,0,11,,,,,,,,3,,,,33,0
78526,note_on,30,0,6,,,,,,,,2,,,,58,0
78528,note_on,0,0,5,,,,,,,,2,,,,82,64
78528,note_on,12,0,5,,,,,,,,2,,,,84,0
78528,note_on,0,0,1,,,,,,,,0,,,,77,49
78528,note_on,2,0,6,,,,,,,,2,,,,46,85
78528,note_on,15,0,3,,,,,,,,1,,,,58,49
78528,note_on,7,0,1,,,,,,,,0,,,,81,49
78528,note_on,7,0,9,,,,,,,,3,,,,65,34
78528,note_on,3,0,11,,,,,,,,3,,,,34,49
78528,note_on,7,0,8,,,,,,,,3,,,,69,34
78528,note_on,3,0,10,,,,,,,,3,,,,58,49
78540,note_on,0,0,5,,,,,,,,2,,,,84,64
78540,note_on,12,0,5,,,,,,,,2,,,,82,0
78552,note_on,12,0,5,,,,,,,,2,,,,84,0
78552,note_on,0,0,5,,,,,,,,2,,,,82,64
78558,note_on,30,0,6,,,,,,,,2,,,,46,0
78560,note_on,2,0,6,,,,,,,,2,,,,58,85
78564,note_on,12,0,5,,,,,,,,2,,,,82,0
78564,note_on,0,0,5,,,,,,,,2,,,,84,64
78573,note_on,45,0,11,,,,,,,,3,,,,34,0
78573,note_on,45,0,10,,,,,,,,3,,,,58,0
78576,note_on,3,0,11,,,,,,,,3,,,,33,49
78576,note_on,12,0,5,,,,,,,,2,,,,84,0
78576,note_on,3,0,10,,,,,,,,3,,,,57,49
78576,note_on,0,0,5,,,,,,,,2,,,,82,64
78588,note_on,12,0,5,,,,,,,,2,,,,82,0
78588,note_on,0,0,5,,,,,,,,2,,,,84,64
78590,note_on,30,0,6,,,,,,,,2,,,,58,0
78592,note_on,2,0,6,,,,,,,,2,,,,57,85
78600,note_on,12,0,5,,,,,,,,2,,,,84,0
78600,note_on,0,0,5,,,,,,,,2,,,,82,64
78612,note_on,12,0,5,,,,,,,,2,,,,82,0
78612,note_on,0,0,5,,,,,,,,2,,,,84,64
78617,note_on,89,0,9,,,,,,,,3,,,,65,0
78617,note_on,0,0,1,,,,,,,,0,,,,81,0
78617,note_on,89,0,8,,,,,,,,3,,,,69,0
78617,note_on,89,0,3,,,,,,,,1,,,,58,0
78617,note_on,89,0,1,,,,,,,,0,,,,77,0
78621,note_on,45,0,11,,,,,,,,3,,,,33,0
78621,note_on,45,0,10,,,,,,,,3,,,,57,0
78622,note_on,30,0,6,,,,,,,,2,,,,57,0
78624,note_on,12,0,5,,,,,,,,2,,,,84,0
78624,note_on,0,0,5,,,,,,,,2,,,,82,64
78624,note_on,2,0,6,,,,,,,,2,,,,58,85
78624,note_on,7,0,1,,,,,,,,0,,,,79,49
78624,note_on,0,0,1,,,,,,,,0,,,,75,49
78624,note_on,7,0,3,,,,,,,,1,,,,58,64
78624,note_on,3,0,11,,,,,,,,3,,,,34,49
78624,note_on,3,0,10,,,,,,,,3,,,,58,49
78624,note_on,7,0,9,,,,,,,,3,,,,63,34
78624,note_on,7,0,8,,,,,,,,3,,,,67,34
78636,note_on,0,0,5,,,,,,,,2,,,,84,64
78636,note_on,12,0,5,,,,,,,,2,,,,82,0
78648,note_on,12,0,5,,,,,,,,2,,,,84,0
78648,note_on,0,0,5,,,,,,,,2,,,,82,64
78654,note_on,30,0,6,,,,,,,,2,,,,58,0
78656,note_on,2,0,6,,,,,,,,2,,,,57,85
78660,note_on,12,0,5,,,,,,,,2,,,,82,0
78660,note_on,0,0,5,,,,,,,,2,,,,84,64
78669,note_on,45,0,11,,,,,,,,3,,,,34,0
78669,note_on,45,0,3,,,,,,,,1,,,,58,0
78669,note_on,45,0,10,,,,,,,,3,,,,58,0
78672,note_on,3,0,11,,,,,,,,3,,,,33,49
78672,note_on,3,0,10,,,,,,,,3,,,,57,49
78672,note_on,3,0,3,,,,,,,,1,,,,58,64
78672,note_on,0,0,5,,,,,,,,2,,,,82,64
78672,note_on,12,0,5,,,,,,,,2,,,,84,0
78684,note_on,0,0,5,,,,,,,,2,,,,84,64
78684,note_on,12,0,5,,,,,,,,2,,,,82,0
78686,note_on,30,0,6,,,,,,,,2,,,,57,0
78688,note_on,2,0,6,,,,,,,,2,,,,58,85
78695,note_on,23,0,3,,,,,,,,1,,,,58,0
78696,note_on,12,0,5,,,,,,,,2,,,,84,0
78696,note_on,1,0,3,,,,,,,,1,,,,58,64
78696,note_on,0,0,5,,,,,,,,2,,,,82,64
78708,note_on,0,0,5,,,,,,,,2,,,,84,64
78708,note_on,12,0,5,,,,,,,,2,,,,82,0
78713,note_on,89,0,1,,,,,,,,0,,,,75,0
78713,note_on,0,0,1,,,,,,,,0,,,,79,0
78713,note_on,89,0,9,,,,,,,,3,,,,63,0
78713,note_on,89,0,8,,,,,,,,3,,,,67,0
78717,note_on,45,0,10,,,,,,,,3,,,,57,0
78717,note_on,45,0,11,,,,,,,,3,,,,33,0
78718,note_on,30,0,6,,,,,,,,2,,,,58,0
78719,note_on,23,0,3,,,,,,,,1,,,,58,0
78720,note_on,12,0,5,,,,,,,,2,,,,84,0
78720,note_on,0,0,5,,,,,,,,2,,,,82,64
78720,note_on,3,0,11,,,,,,,,3,,,,34,49
78720,note_on,3,0,10,,,,,,,,3,,,,58,49
78720,note_on,7,0,9,,,,,,,,3,,,,62,34
78720,note_on,1,0,3,,,,,,,,1,,,,58,64
78720,note_on,7,0,8,,,,,,,,3,,,,65,34
78720,note_on,2,0,6,,,,,,,,2,,,,46,85
78720,note_on,7,0,1,,,,,,,,0,,,,77,49
78720,note_on,0,0,1,,,,,,,,0,,,,74,49
78732,note_on,0,0,5,,,,,,,,2,,,,84,64
78732,note_on,12,0,5,,,,,,,,2,,,,82,0
78744,note_on,12,0,5,,,,,,,,2,,,,84,0
78744,note_on,0,0,5,,,,,,,,2,,,,82,64
78750,note_on,6,0,5,,,,,,,,2,,,,82,0
78752,note_on,2,0,5,,,,,,,,2,,,,86,64
78782,note_on,30,0,5,,,,,,,,2,,,,86,0
78784,note_on,2,0,5,,,,,,,,2,,,,84,64
78809,note_on,89,0,8,,,,,,,,3,,,,65,0
78809,note_on,89,0,6,,,,,,,,2,,,,46,0
78809,note_on,89,0,11,,,,,,,,3,,,,34,0
78809,note_on,89,0,10,,,,,,,,3,,,,58,0
78809,note_on,0,0,1,,,,,,,,0,,,,77,0
78809,note_on,89,0,3,,,,,,,,1,,,,58,0
78809,note_on,89,0,1,,,,,,,,0,,,,74,0
78809,note_on,89,0,9,,,,,,,,3,,,,62,0
78814,note_on,30,0,5,,,,,,,,2,,,,84,0
78816,note_on,7,0,9,,,,,,,,3,,,,65,34
78816,note_on,7,0,10,,,,,,,,3,,,,58,49
78816,note_on,7,0,6,,,,,,,,2,,,,58,85
78816,note_on,7,0,11,,,,,,,,3,,,,46,49
78816,note_on,7,0,8,,,,,,,,3,,,,74,34
78816,note_on,2,0,5,,,,,,,,2,,,,82,85
78846,note_on,30,0,5,,,,,,,,2,,,,82,0
78848,note_on,2,0,5,,,,,,,,2,,,,81,85
78878,note_on,30,0,5,,,,,,,,2,,,,81,0
78880,note_on,2,0,5,,,,,,,,2,,,,79,85
78905,note_on,89,0,10,,,,,,,,3,,,,58,0
78905,note_on,89,0,8,,,,,,,,3,,,,74,0
78905,note_on,89,0,11,,,,,,,,3,,,,46,0
78905,note_on,89,0,6,,,,,,,,2,,,,58,0
78910,note_on,30,0,5,,,,,,,,2,,,,79,0
78912,note_on,7,0,8,,,,,,,,3,,,,75,34
78912,note_on,7,0,10,,,,,,,,3,,,,60,49
78912,note_on,7,0,6,,,,,,,,2,,,,57,85
78912,note_on,7,0,11,,,,,,,,3,,,,45,49
78912,note_on,2,0,5,,,,,,,,2,,,,77,85
78942,note_on,30,0,5,,,,,,,,2,,,,77,0
78944,note_on,2,0,5,,,,,,,,2,,,,79,85
78974,note_on,30,0,5,,,,,,,,2,,,,79,0
78976,note_on,2,0,5,,,,,,,,2,,,,77,85
78993,note_on,177,0,9,,,,,,,,3,,,,65,0
79001,note_on,89,0,11,,,,,,,,3,,,,45,0
79001,note_on,89,0,6,,,,,,,,2,,,,57,0
79001,note_on,89,0,8,,,,,,,,3,,,,75,0
79006,note_on,30,0,5,,,,,,,,2,,,,77,0
79008,note_on,7,0,6,,,,,,,,2,,,,53,85
79008,note_on,7,0,8,,,,,,,,3,,,,69,34
79008,note_on,2,0,5,,,,,,,,2,,,,75,85
79008,note_on,7,0,11,,,,,,,,3,,,,41,49
79008,note_on,15,0,9,,,,,,,,3,,,,63,34
79038,note_on,30,0,5,,,,,,,,2,,,,75,0
79040,note_on,2,0,5,,,,,,,,2,,,,74,85
79070,note_on,30,0,5,,,,,,,,2,,,,74,0
79072,note_on,2,0,5,,,,,,,,2,,,,72,85
79089,note_on,177,0,10,,,,,,,,3,,,,60,0
79097,note_on,89,0,8,,,,,,,,3,,,,69,0
79097,note_on,89,0,6,,,,,,,,2,,,,53,0
79097,note_on,89,0,11,,,,,,,,3,,,,41,0
79097,note_on,89,0,9,,,,,,,,3,,,,63,0
79102,note_on,30,0,5,,,,,,,,2,,,,72,0
79104,note_on,7,0,11,,,,,,,,3,,,,43,49
79104,note_on,7,0,6,,,,,,,,2,,,,55,85
79104,note_on,7,0,8,,,,,,,,3,,,,70,34
79104,note_on,15,0,10,,,,,,,,3,,,,58,49
79104,note_on,7,0,9,,,,,,,,3,,,,62,34
79104,note_on,2,0,5,,,,,,,,2,,,,70,85
79134,note_on,30,0,5,,,,,,,,2,,,,70,0
79136,note_on,2,0,5,,,,,,,,2,,,,67,85
79166,note_on,30,0,5,,,,,,,,2,,,,67,0
79168,note_on,2,0,5,,,,,,,,2,,,,62,85
79193,note_on,89,0,11,,,,,,,,3,,,,43,0
79193,note_on,89,0,10,,,,,,,,3,,,,58,0
79193,note_on,89,0,8,,,,,,,,3,,,,70,0
79193,note_on,89,0,6,,,,,,,,2,,,,55,0
79193,note_on,89,0,9,,,,,,,,3,,,,62,0
79198,note_on,30,0,5,,,,,,,,2,,,,62,0
79200,note_on,7,0,11,,,,,,,,3,,,,39,49
79200,note_on,7,0,6,,,,,,,,2,,,,51,85
79200,note_on,7,0,9,,,,,,,,3,,,,60,34
79200,note_on,0,0,1,,,,,,,,0,,,,72,49
79200,note_on,391,0,1,,,,,,,,0,,,,75,49
79200,note_on,7,0,8,,,,,,,,3,,,,63,34
79200,note_on,7,0,10,,,,,,,,3,,,,55,49
79200,note_on,2,0,5,,,,,,,,2,,,,60,85
79230,note_on,30,0,5,,,,,,,,2,,,,60,0
79232,note_on,2,0,5,,,,,,,,2,,,,63,85
79262,note_on,30,0,5,,,,,,,,2,,,,63,0
79264,note_on,2,0,5,,,,,,,,2,,,,67,85
79289,note_on,89,0,8,,,,,,,,3,,,,63,0
79289,note_on,89,0,9,,,,,,,,3,,,,60,0
79289,note_on,0,0,1,,,,,,,,0,,,,75,0
79289,note_on,89,0,1,,,,,,,,0,,,,72,0
79289,note_on,89,0,11,,,,,,,,3,,,,39,0
79289,note_on,89,0,10,,,,,,,,3,,,,55,0
79289,note_on,89,0,6,,,,,,,,2,,,,51,0
79294,note_on,30,0,5,,,,,,,,2,,,,67,0
79296,note_on,7,0,10,,,,,,,,3,,,,53,49
79296,note_on,2,0,5,,,,,,,,2,,,,65,85
79296,note_on,7,0,8,,,,,,,,3,,,,62,34
79296,note_on,7,0,9,,,,,,,,3,,,,58,34
79296,note_on,0,0,1,,,,,,,,0,,,,70,49
79296,note_on,7,0,1,,,,,,,,0,,,,74,49
79296,note_on,7,0,11,,,,,,,,3,,,,41,49
79296,note_on,7,0,6,,,,,,,,2,,,,53,85
79326,note_on,30,0,5,,,,,,,,2,,,,65,0
79328,note_on,2,0,5,,,,,,,,2,,,,62,85
79358,note_on,30,0,5,,,,,,,,2,,,,62,0
79360,note_on,2,0,5,,,,,,,,2,,,,58,85
79385,note_on,89,0,6,,,,,,,,2,,,,53,0
79385,note_on,89,0,11,,,,,,,,3,,,,41,0
79385,note_on,89,0,8,,,,,,,,3,,,,62,0
79385,note_on,89,0,1,,,,,,,,0,,,,70,0
79385,note_on,89,0,10,,,,,,,,3,,,,53,0
79385,note_on,89,0,9,,,,,,,,3,,,,58,0
79385,note_on,0,0,1,,,,,,,,0,,,,74,0
79390,note_on,30,0,5,,,,,,,,2,,,,58,0
79392,note_on,7,0,10,,,,,,,,3,,,,51,49
79392,note_on,7,0,9,,,,,,,,3,,,,57,34
79392,note_on,7,0,8,,,,,,,,3,,,,60,34
79392,note_on,0,0,1,,,,,,,,0,,,,69,49
79392,note_on,2,0,5,,,,,,,,2,,,,63,85
79392,note_on,7,0,11,,,,,,,,3,,,,29,49
79392,note_on,7,0,1,,,,,,,,0,,,,72,49
79392,note_on,7,0,6,,,,,,,,2,,,,41,85
79422,note_on,30,0,5,,,,,,,,2,,,,63,0
79424,note_on,2,0,5,,,,,,,,2,,,,60,85
79454,note_on,30,0,5,,,,,,,,2,,,,60,0
79456,note_on,2,0,5,,,,,,,,2,,,,57,85
79481,note_on,89,0,1,,,,,,,,0,,,,69,0
79481,note_on,0,0,1,,,,,,,,0,,,,72,0
79481,note_on,89,0,8,,,,,,,,3,,,,60,0
79481,note_on,89,0,11,,,,,,,,3,,,,29,0
79481,note_on,89,0,10,,,,,,,,3,,,,51,0
79481,note_on,89,0,6,,,,,,,,2,,,,41,0
79481,note_on,89,0,9,,,,,,,,3,,,,57,0
79486,note_on,30,0,5,,,,,,,,2,,,,57,0
79488,note_on,7,0,8,,,,,,,,3,,,,58,34
79488,note_on,7,0,11,,,,,,,,3,,,,34,49
79488,note_on,7,0,9,,,,,,,,3,,,,58,34
79488,note_on,3486,0,2,,,,,,,,0,,,,70,49
79488,note_on,2,0,5,,,,,,,,2,,,,58,85
79488,note_on,7,0,1,,,,,,,,0,,,,70,49
79488,note_on,7,0,10,,,,,,,,3,,,,50,49
79488,note_on,7,0,6,,,,,,,,2,,,,46,85
79533,note_on,45,0,5,,,,,,,,2,,,,58,0
79536,note_on,3,0,5,,,,,,,,2,,,,53,85
79581,note_on,45,0,5,,,,,,,,2,,,,53,0
79584,note_on,3,0,5,,,,,,,,2,,,,50,85
79629,note_on,45,0,5,,,,,,,,2,,,,50,0
79632,note_on,3,0,5,,,,,,,,2,,,,53,85
79665,note_on,177,0,8,,,,,,,,3,,,,58,0
79665,note_on,177,0,11,,,,,,,,3,,,,34,0
79665,note_on,177,0,2,,,,,,,,0,,,,70,0
79665,note_on,177,0,9,,,,,,,,3,,,,58,0
79665,note_on,177,0,10,,,,,,,,3,,,,50,0
79665,note_on,177,0,1,,,,,,,,0,,,,70,0
79665,note_on,177,0,6,,,,,,,,2,,,,46,0
79677,note_on,45,0,5,,,,,,,,2,,,,53,0
79680,note_on,5863,0,4,,,,,,,,1,,,,62,49
79680,note_on,871,0,3,,,,,,,,1,,,,70,49
79680,note_on,3,0,5,,,,,,,,2,,,,58,85
79725,note_on,45,0,5,,,,,,,,2,,,,58,0
79728,note_on,3,0,5,,,,,,,,2,,,,53,85
79769,note_on,89,0,3,,,,,,,,1,,,,70,0
79769,note_on,89,0,4,,,,,,,,1,,,,62,0
79773,note_on,45,0,5,,,,,,,,2,,,,53,0
79776,note_on,7,0,3,,,,,,,,1,,,,72,49
79776,note_on,0,0,5,,,,,,,,2,,,,57,85
79776,note_on,3,0,5,,,,,,,,2,,,,60,85
79776,note_on,7,0,4,,,,,,,,1,,,,65,49
79821,note_on,45,0,5,,,,,,,,2,,,,57,0
79821,note_on,0,0,5,,,,,,,,2,,,,60,0
79824,note_on,3,0,5,,,,,,,,2,,,,53,85
79865,note_on,89,0,3,,,,,,,,1,,,,72,0
79865,note_on,89,0,4,,,,,,,,1,,,,65,0
79869,note_on,45,0,5,,,,,,,,2,,,,53,0
79872,note_on,3,0,5,,,,,,,,2,,,,62,85
79872,note_on,7,0,4,,,,,,,,1,,,,70,49
79872,note_on,7,0,3,,,,,,,,1,,,,74,49
79872,note_on,207,0,6,,,,,,,,2,,,,46,85
79872,note_on,0,0,5,,,,,,,,2,,,,58,85
79917,note_on,45,0,5,,,,,,,,2,,,,58,0
79917,note_on,0,0,5,,,,,,,,2,,,,62,0
79920,note_on,3,0,5,,,,,,,,2,,,,53,85
79961,note_on,89,0,4,,,,,,,,1,,,,70,0
79961,note_on,89,0,3,,,,,,,,1,,,,74,0
79965,note_on,45,0,5,,,,,,,,2,,,,53,0
79968,note_on,7,0,3,,,,,,,,1,,,,72,49
79968,note_on,7,0,4,,,,,,,,1,,,,65,49
79968,note_on,3,0,5,,,,,,,,2,,,,60,85
79968,note_on,0,0,5,,,,,,,,2,,,,57,85
80013,note_on,45,0,5,,,,,,,,2,,,,57,0
80013,note_on,0,0,5,,,,,,,,2,,,,60,0
80016,note_on,3,0,5,,,,,,,,2,,,,53,85
80049,note_on,177,0,6,,,,,,,,2,,,,46,0
80057,note_on,89,0,3,,,,,,,,1,,,,72,0
80057,note_on,89,0,4,,,,,,,,1,,,,65,0
80061,note_on,45,0,5,,,,,,,,2,,,,53,0
80064,note_on,7,0,3,,,,,,,,1,,,,74,49
80064,note_on,3,0,5,,,,,,,,2,,,,62,85
80064,note_on,7,0,4,,,,,,,,1,,,,70,49
80064,note_on,0,0,5,,,,,,,,2,,,,58,85
80064,note_on,15,0,6,,,,,,,,2,,,,34,85
80109,note_on,45,0,5,,,,,,,,2,,,,58,0
80109,note_on,0,0,5,,,,,,,,2,,,,62,0
80112,note_on,3,0,5,,,,,,,,2,,,,53,85
80153,note_on,89,0,4,,,,,,,,1,,,,70,0
80153,note_on,89,0,3,,,,,,,,1,,,,74,0
80157,note_on,45,0,5,,,,,,,,2,,,,53,0
80160,note_on,3,0,5,,,,,,,,2,,,,63,85
80160,note_on,7,0,4,,,,,,,,1,,,,72,49
80160,note_on,7,0,3,,,,,,,,1,,,,75,49
80160,note_on,0,0,5,,,,,,,,2,,,,60,85
80205,note_on,45,0,5,,,,,,,,2,,,,60,0
80205,note_on,0,0,5,,,,,,,,2,,,,63,0
80208,note_on,3,0,5,,,,,,,,2,,,,53,85
80241,note_on,177,0,6,,,,,,,,2,,,,34,0
80249,note_on,89,0,4,,,,,,,,1,,,,72,0
80249,note_on,89,0,3,,,,,,,,1,,,,75,0
80253,note_on,45,0,5,,,,,,,,2,,,,53,0
80256,note_on,3,0,5,,,,,,,,2,,,,62,85
80256,note_on,15,0,6,,,,,,,,2,,,,41,85
80256,note_on,7,0,4,,,,,,,,1,,,,70,49
80256,note_on,7,0,3,,,,,,,,1,,,,74,49
80256,note_on,0,0,5,,,,,,,,2,,,,58,85
80301,note_on,0,0,5,,,,,,,,2,,,,62,0
80301,note_on,45,0,5,,,,,,,,2,,,,58,0
80304,note_on,3,0,5,,,,,,,,2,,,,53,85
80345,note_on,89,0,4,,,,,,,,1,,,,70,0
80345,note_on,89,0,3,,,,,,,,1,,,,74,0
80349,note_on,45,0,5,,,,,,,,2,,,,53,0
80352,note_on,7,0,3,,,,,,,,1,,,,72,49
80352,note_on,7,0,4,,,,,,,,1,,,,65,49
80352,note_on,3,0,5,,,,,,,,2,,,,60,85
80352,note_on,0,0,5,,,,,,,,2,,,,57,85
80397,note_on,45,0,5,,,,,,,,2,,,,57,0
80397,note_on,0,0,5,,,,,,,,2,,,,60,0
80400,note_on,3,0,5,,,,,,,,2,,,,53,85
80433,note_on,177,0,6,,,,,,,,2,,,,41,0
80441,note_on,89,0,3,,,,,,,,1,,,,72,0
80441,note_on,89,0,4,,,,,,,,1,,,,65,0
80445,note_on,45,0,5,,,,,,,,2,,,,53,0
80448,note_on,3,0,5,,,,,,,,2,,,,57,85
80448,note_on,0,0,1,,,,,,,,0,,,,65,49
80448,note_on,783,0,1,,,,,,,,0,,,,69,49
80493,note_on,45,0,5,,,,,,,,2,,,,57,0
80496,note_on,3,0,5,,,,,,,,2,,,,53,85
80537,note_on,0,0,1,,,,,,,,0,,,,69,0
80537,note_on,89,0,1,,,,,,,,0,,,,65,0
80541,note_on,45,0,5,,,,,,,,2,,,,53,0
80544,note_on,0,0,1,,,,,,,,0,,,,67,49
80544,note_on,0,0,5,,,,,,,,2,,,,55,85
80544,note_on,7,0,1,,,,,,,,0,,,,70,49
80544,note_on,3,0,5,,,,,,,,2,,,,58,85
80589,note_on,45,0,5,,,,,,,,2,,,,55,0
80589,note_on,0,0,5,,,,,,,,2,,,,58,0
80592,note_on,3,0,5,,,,,,,,2,,,,53,85
80633,note_on,0,0,1,,,,,,,,0,,,,70,0
80633,note_on,89,0,1,,,,,,,,0,,,,67,0
80637,note_on,45,0,5,,,,,,,,2,,,,53,0
80640,note_on,207,0,6,,,,,,,,2,,,,41,85
80640,note_on,0,0,1,,,,,,,,0,,,,69,49
80640,note_on,7,0,1,,,,,,,,0,,,,72,49
80640,note_on,0,0,5,,,,,,,,2,,,,57,85
80640,note_on,3,0,5,,,,,,,,2,,,,60,85
80685,note_on,0,0,5,,,,,,,,2,,,,60,0
80685,note_on,45,0,5,,,,,,,,2,,,,57,0
80688,note_on,3,0,5,,,,,,,,2,,,,53,85
80729,note_on,89,0,1,,,,,,,,0,,,,69,0
80729,note_on,0,0,1,,,,,,,,0,,,,72,0
80733,note_on,45,0,5,,,,,,,,2,,,,53,0
80736,note_on,0,0,1,,,,,,,,0,,,,70,49
80736,note_on,7,0,1,,,,,,,,0,,,,74,49
80736,note_on,0,0,5,,,,,,,,2,,,,58,85
80736,note_on,3,0,5,,,,,,,,2,,,,62,85
80781,note_on,45,0,5,,,,,,,,2,,,,58,0
80781,note_on,0,0,5,,,,,,,,2,,,,62,0
80784,note_on,3,0,5,,,,,,,,2,,,,53,85
80817,note_on,177,0,6,,,,,,,,2,,,,41,0
80825,note_on,89,0,1,,,,,,,,0,,,,70,0
80825,note_on,0,0,1,,,,,,,,0,,,,74,0
80829,note_on,45,0,5,,,,,,,,2,,,,53,0
80832,note_on,15,0,6,,,,,,,,2,,,,29,85
80832,note_on,3,0,5,,,,,,,,2,,,,63,85
80832,note_on,7,0,1,,,,,,,,0,,,,75,49
80832,note_on,0,0,1,,,,,,,,0,,,,72,49
80832,note_on,0,0,5,,,,,,,,2,,,,60,85
80877,note_on,0,0,5,,,,,,,,2,,,,63,0
80877,note_on,45,0,5,,,,,,,,2,,,,60,0
80880,note_on,3,0,5,,,,,,,,2,,,,53,85
80921,note_on,0,0,1,,,,,,,,0,,,,75,0
80921,note_on,89,0,1,,,,,,,,0,,,,72,0
80925,note_on,45,0,5,,,,,,,,2,,,,53,0
80928,note_on,3,0,5,,,,,,,,2,,,,65,85
80928,note_on,0,0,1,,,,,,,,0,,,,74,49
80928,note_on,0,0,5,,,,,,,,2,,,,62,85
80928,note_on,7,0,1,,,,,,,,0,,,,77,49
80973,note_on,45,0,5,,,,,,,,2,,,,62,0
80973,note_on,0,0,5,,,,,,,,2,,,,65,0
80976,note_on,3,0,5,,,,,,,,2,,,,53,85
81009,note_on,177,0,6,,,,,,,,2,,,,29,0
81017,note_on,0,0,1,,,,,,,,0,,,,77,0
81017,note_on,89,0,1,,,,,,,,0,,,,74,0
81021,note_on,45,0,5,,,,,,,,2,,,,53,0
81024,note_on,0,0,5,,,,,,,,2,,,,60,85
81024,note_on,15,0,6,,,,,,,,2,,,,45,85
81024,note_on,3,0,5,,,,,,,,2,,,,63,85
81024,note_on,7,0,1,,,,,,,,0,,,,75,49
81024,note_on,0,0,1,,,,,,,,0,,,,72,49
81069,note_on,45,0,5,,,,,,,,2,,,,60,0
81069,note_on,0,0,5,,,,,,,,2,,,,63,0
81072,note_on,3,0,5,,,,,,,,2,,,,53,85
81113,note_on,0,0,1,,,,,,,,0,,,,75,0
81113,note_on,89,0,1,,,,,,,,0,,,,72,0
81117,note_on,45,0,5,,,,,,,,2,,,,53,0
81120,note_on,3,0,5,,,,,,,,2,,,,62,85
81120,note_on,7,0,1,,,,,,,,0,,,,74,49
81120,note_on,0,0,1,,,,,,,,0,,,,70,49
81120,note_on,0,0,5,,,,,,,,2,,,,58,85
81165,note_on,0,0,5,,,,,,,,2,,,,62,0
81165,note_on,45,0,5,,,,,,,,2,,,,58,0
81168,note_on,3,0,5,,,,,,,,2,,,,53,85
81201,note_on,177,0,6,,,,,,,,2,,,,45,0
81209,note_on,89,0,1,,,,,,,,0,,,,70,0
81209,note_on,0,0,1,,,,,,,,0,,,,74,0
81213,note_on,45,0,5,,,,,,,,2,,,,53,0
81216,note_on,3,0,5,,,,,,,,2,,,,82,85
81246,note_on,30,0,5,,,,,,,,2,,,,82,0
81248,note_on,2,0,5,,,,,,,,2,,,,84,85
81278,note_on,30,0,5,,,,,,,,2,,,,84,0
81280,note_on,2,0,5,,,,,,,,2,,,,82,85
81310,note_on,30,0,5,,,,,,,,2,,,,82,0
81312,note_on,2,0,5,,,,,,,,2,,,,80,85
81312,note_on,111,0,6,,,,,,,,2,,,,70,85
81312,note_on,0,0,6,,,,,,,,2,,,,62,85
81342,note_on,30,0,5,,,,,,,,2,,,,80,0
81344,note_on,2,0,5,,,,,,,,2,,,,79,85
81374,note_on,30,0,5,,,,,,,,2,,,,79,0
81376,note_on,2,0,5,,,,,,,,2,,,,78,85
81401,note_on,0,0,6,,,,,,,,2,,,,70,0
81401,note_on,89,0,6,,,,,,,,2,,,,62,0
81406,note_on,30,0,5,,,,,,,,2,,,,78,0
81408,note_on,0,0,6,,,,,,,,2,,,,63,85
81408,note_on,7,0,6,,,,,,,,2,,,,70,85
81408,note_on,2,0,5,,,,,,,,2,,,,79,85
81438,note_on,30,0,5,,,,,,,,2,,,,79,0
81440,note_on,2,0,5,,,,,,,,2,,,,80,85
81470,note_on,30,0,5,,,,,,,,2,,,,80,0
81472,note_on,2,0,5,,,,,,,,2,,,,79,85
81497,note_on,89,0,6,,,,,,,,2,,,,63,0
81497,note_on,0,0,6,,,,,,,,2,,,,70,0
81502,note_on,30,0,5,,,,,,,,2,,,,79,0
81504,note_on,7,0,6,,,,,,,,2,,,,68,85
81504,note_on,0,0,6,,,,,,,,2,,,,65,85
81504,note_on,2,0,5,,,,,,,,2,,,,77,85
81534,note_on,30,0,5,,,,,,,,2,,,,77,0
81536,note_on,2,0,5,,,,,,,,2,,,,75,85
81566,note_on,30,0,5,,,,,,,,2,,,,75,0
81568,note_on,2,0,5,,,,,,,,2,,,,74,85
81593,note_on,89,0,6,,,,,,,,2,,,,65,0
81593,note_on,0,0,6,,,,,,,,2,,,,68,0
81598,note_on,30,0,5,,,,,,,,2,,,,74,0
81600,note_on,2,0,5,,,,,,,,2,,,,75,85
81600,note_on,7,0,6,,,,,,,,2,,,,70,85
81600,note_on,0,0,6,,,,,,,,2,,,,67,85
81630,note_on,30,0,5,,,,,,,,2,,,,75,0
81632,note_on,2,0,5,,,,,,,,2,,,,77,85
81662,note_on,30,0,5,,,,,,,,2,,,,77,0
81664,note_on,2,0,5,,,,,,,,2,,,,75,85
81689,note_on,89,0,6,,,,,,,,2,,,,67,0
81689,note_on,0,0,6,,,,,,,,2,,,,70,0
81694,note_on,30,0,5,,,,,,,,2,,,,75,0
81696,note_on,7,0,6,,,,,,,,2,,,,68,85
81696,note_on,0,0,6,,,,,,,,2,,,,65,85
81696,note_on,2,0,5,,,,,,,,2,,,,74,85
81726,note_on,30,0,5,,,,,,,,2,,,,74,0
81728,note_on,2,0,5,,,,,,,,2,,,,72,85
81758,note_on,30,0,5,,,,,,,,2,,,,72,0
81760,note_on,2,0,5,,,,,,,,2,,,,71,85
81785,note_on,89,0,6,,,,,,,,2,,,,65,0
81785,note_on,0,0,6,,,,,,,,2,,,,68,0
81790,note_on,30,0,5,,,,,,,,2,,,,71,0
81792,note_on,2,0,5,,,,,,,,2,,,,72,85
81792,note_on,7,0,6,,,,,,,,2,,,,67,85
81792,note_on,0,0,6,,,,,,,,2,,,,63,85
81822,note_on,30,0,5,,,,,,,,2,,,,72,0
81824,note_on,2,0,5,,,,,,,,2,,,,67,85
81854,note_on,30,0,5,,,,,,,,2,,,,67,0
81856,note_on,2,0,5,,,,,,,,2,,,,63,85
81881,note_on,0,0,6,,,,,,,,2,,,,67,0
81881,note_on,89,0,6,,,,,,,,2,,,,63,0
81886,note_on,30,0,5,,,,,,,,2,,,,63,0
81888,note_on,2223,0,9,,,,,,,,3,,,,68,34
81888,note_on,2223,0,8,,,,,,,,3,,,,71,34
81888,note_on,0,0,6,,,,,,,,2,,,,41,85
81888,note_on,7,0,6,,,,,,,,2,,,,53,85
81888,note_on,2223,0,10,,,,,,,,3,,,,62,49
81888,note_on,2,0,5,,,,,,,,2,,,,71,85
81888,note_on,2223,0,11,,,,,,,,3,,,,41,49
81918,note_on,30,0,5,,,,,,,,2,,,,71,0
81920,note_on,2,0,5,,,,,,,,2,,,,68,85
81927,note_on,39,0,9,,,,,,,,3,,,,68,0
81927,note_on,39,0,8,,,,,,,,3,,,,71,0
81927,note_on,39,0,11,,,,,,,,3,,,,41,0
81927,note_on,39,0,10,,,,,,,,3,,,,62,0
81950,note_on,30,0,5,,,,,,,,2,,,,68,0
81952,note_on,2,0,5,,,,,,,,2,,,,62,85
81977,note_on,0,0,6,,,,,,,,2,,,,53,0
81977,note_on,89,0,6,,,,,,,,2,,,,41,0
81982,note_on,30,0,5,,,,,,,,2,,,,62,0
81984,note_on,2,0,5,,,,,,,,2,,,,72,85
81984,note_on,7,0,6,,,,,,,,2,,,,51,85
81984,note_on,0,0,6,,,,,,,,2,,,,39,85
81984,note_on,57,0,11,,,,,,,,3,,,,39,49
81984,note_on,57,0,10,,,,,,,,3,,,,63,49
81984,note_on,57,0,9,,,,,,,,3,,,,67,34
81984,note_on,57,0,8,,,,,,,,3,,,,72,34
82014,note_on,30,0,5,,,,,,,,2,,,,72,0
82016,note_on,2,0,5,,,,,,,,2,,,,67,85
82046,note_on,30,0,5,,,,,,,,2,,,,67,0
82048,note_on,2,0,5,,,,,,,,2,,,,63,85
82073,note_on,89,0,8,,,,,,,,3,,,,72,0
82073,note_on,89,0,6,,,,,,,,2,,,,39,0
82073,note_on,0,0,6,,,,,,,,2,,,,51,0
82073,note_on,89,0,9,,,,,,,,3,,,,67,0
82073,note_on,89,0,10,,,,,,,,3,,,,63,0
82073,note_on,89,0,11,,,,,,,,3,,,,39,0
82078,note_on,30,0,5,,,,,,,,2,,,,63,0
82080,note_on,7,0,9,,,,,,,,3,,,,71,34
82080,note_on,7,0,10,,,,,,,,3,,,,65,49
82080,note_on,0,0,6,,,,,,,,2,,,,38,85
82080,note_on,7,0,6,,,,,,,,2,,,,50,85
82080,note_on,7,0,8,,,,,,,,3,,,,74,34
82080,note_on,7,0,11,,,,,,,,3,,,,38,49
82080,note_on,2,0,5,,,,,,,,2,,,,74,85
82110,note_on,30,0,5,,,,,,,,2,,,,74,0
82112,note_on,2,0,5,,,,,,,,2,,,,71,85
82142,note_on,30,0,5,,,,,,,,2,,,,71,0
82144,note_on,2,0,5,,,,,,,,2,,,,65,85
82169,note_on,89,0,8,,,,,,,,3,,,,74,0
82169,note_on,0,0,6,,,,,,,,2,,,,50,0
82169,note_on,89,0,6,,,,,,,,2,,,,38,0
82169,note_on,89,0,10,,,,,,,,3,,,,65,0
82169,note_on,89,0,9,,,,,,,,3,,,,71,0
82169,note_on,89,0,11,,,,,,,,3,,,,38,0
82174,note_on,30,0,5,,,,,,,,2,,,,65,0
82176,note_on,7,0,9,,,,,,,,3,,,,72,34
82176,note_on,7,0,6,,,,,,,,2,,,,48,85
82176,note_on,0,0,6,,,,,,,,2,,,,36,85
82176,note_on,7,0,11,,,,,,,,3,,,,36,49
82176,note_on,7,0,8,,,,,,,,3,,,,75,34
82176,note_on,7,0,10,,,,,,,,3,,,,67,49
82176,note_on,2,0,5,,,,,,,,2,,,,75,85
82206,note_on,30,0,5,,,,,,,,2,,,,75,0
82208,note_on,2,0,5,,,,,,,,2,,,,72,85
82238,note_on,30,0,5,,,,,,,,2,,,,72,0
82240,note_on,2,0,5,,,,,,,,2,,,,67,85
82265,note_on,89,0,11,,,,,,,,3,,,,36,0
82265,note_on,89,0,8,,,,,,,,3,,,,75,0
82265,note_on,89,0,9,,,,,,,,3,,,,72,0
82265,note_on,89,0,6,,,,,,,,2,,,,36,0
82265,note_on,89,0,10,,,,,,,,3,,,,67,0
82265,note_on,0,0,6,,,,,,,,2,,,,48,0
82270,note_on,30,0,5,,,,,,,,2,,,,67,0
82272,note_on,2,0,5,,,,,,,,2,,,,77,85
82272,note_on,7,0,8,,,,,,,,3,,,,74,34
82272,note_on,7,0,6,,,,,,,,2,,,,50,85
82272,note_on,0,0,6,,,,,,,,2,,,,38,85
82272,note_on,7,0,9,,,,,,,,3,,,,71,34
82272,note_on,7,0,11,,,,,,,,3,,,,38,49
82272,note_on,7,0,10,,,,,,,,3,,,,65,49
82302,note_on,30,0,5,,,,,,,,2,,,,77,0
82304,note_on,2,0,5,,,,,,,,2,,,,74,85
82334,note_on,30,0,5,,,,,,,,2,,,,74,0
82336,note_on,2,0,5,,,,,,,,2,,,,71,85
82361,note_on,89,0,9,,,,,,,,3,,,,71,0
82361,note_on,89,0,6,,,,,,,,2,,,,38,0
82361,note_on,0,0,6,,,,,,,,2,,,,50,0
82361,note_on,89,0,8,,,,,,,,3,,,,74,0
82361,note_on,89,0,11,,,,,,,,3,,,,38,0
82361,note_on,89,0,10,,,,,,,,3,,,,65,0
82366,note_on,30,0,5,,,,,,,,2,,,,71,0
82368,note_on,7,0,10,,,,,,,,3,,,,63,49
82368,note_on,7,0,8,,,,,,,,3,,,,72,34
82368,note_on,7,0,6,,,,,,,,2,,,,51,85
82368,note_on,0,0,6,,,,,,,,2,,,,39,85
82368,note_on,7,0,11,,,,,,,,3,,,,39,49
82368,note_on,7,0,9,,,,,,,,3,,,,72,34
82368,note_on,2,0,5,,,,,,,,2,,,,79,85
82398,note_on,30,0,5,,,,,,,,2,,,,79,0
82400,note_on,2,0,5,,,,,,,,2,,,,75,85
82430,note_on,30,0,5,,,,,,,,2,,,,75,0
82432,note_on,2,0,5,,,,,,,,2,,,,71,85
82457,note_on,89,0,8,,,,,,,,3,,,,72,0
82457,note_on,89,0,9,,,,,,,,3,,,,72,0
82457,note_on,89,0,6,,,,,,,,2,,,,39,0
82457,note_on,0,0,6,,,,,,,,2,,,,51,0
82457,note_on,89,0,10,,,,,,,,3,,,,63,0
82462,note_on,30,0,5,,,,,,,,2,,,,71,0
82464,note_on,2,0,5,,,,,,,,2,,,,72,85
82464,note_on,7,0,8,,,,,,,,3,,,,79,34
82464,note_on,7,0,6,,,,,,,,2,,,,63,85
82464,note_on,0,0,6,,,,,,,,2,,,,51,85
82464,note_on,7,0,10,,,,,,,,3,,,,60,49
82464,note_on,7,0,9,,,,,,,,3,,,,63,34
82494,note_on,30,0,5,,,,,,,,2,,,,72,0
82496,note_on,2,0,5,,,,,,,,2,,,,75,85
82526,note_on,30,0,5,,,,,,,,2,,,,75,0
82528,note_on,2,0,5,,,,,,,,2,,,,67,85
82545,note_on,177,0,11,,,,,,,,3,,,,39,0
82553,note_on,89,0,8,,,,,,,,3,,,,79,0
82553,note_on,89,0,6,,,,,,,,2,,,,51,0
82553,note_on,0,0,6,,,,,,,,2,,,,63,0
82553,note_on,89,0,10,,,,,,,,3,,,,60,0
82553,note_on,89,0,9,,,,,,,,3,,,,63,0
82558,note_on,30,0,5,,,,,,,,2,,,,67,0
82560,note_on,7,0,9,,,,,,,,3,,,,62,34
82560,note_on,2,0,5,,,,,,,,2,,,,70,85
82560,note_on,7,0,10,,,,,,,,3,,,,65,49
82560,note_on,5967,0,7,,,,,,,,2,,,,53,85
82560,note_on,7,0,8,,,,,,,,3,,,,70,34
82560,note_on,7,0,6,,,,,,,,2,,,,62,85
82560,note_on,15,0,11,,,,,,,,3,,,,41,49
82649,note_on,89,0,5,,,,,,,,2,,,,70,0
82649,note_on,89,0,6,,,,,,,,2,,,,62,0
82649,note_on,89,0,9,,,,,,,,3,,,,62,0
82649,note_on,89,0,8,,,,,,,,3,,,,70,0
82656,note_on,7,0,9,,,,,,,,3,,,,60,34
82656,note_on,7,0,8,,,,,,,,3,,,,69,34
82656,note_on,7,0,6,,,,,,,,2,,,,60,85
82656,note_on,7,0,5,,,,,,,,2,,,,69,85
82737,note_on,177,0,7,,,,,,,,2,,,,53,0
82737,note_on,177,0,10,,,,,,,,3,,,,65,0
82737,note_on,177,0,11,,,,,,,,3,,,,41,0
82745,note_on,89,0,9,,,,,,,,3,,,,60,0
82745,note_on,89,0,8,,,,,,,,3,,,,69,0
82745,note_on,89,0,6,,,,,,,,2,,,,60,0
82745,note_on,89,0,5,,,,,,,,2,,,,69,0
82752,note_on,2311,0,3,,,,,,,,1,,,,77,64
82752,note_on,15,0,10,,,,,,,,3,,,,65,64
82752,note_on,7,0,8,,,,,,,,3,,,,77,64
82752,note_on,7,0,9,,,,,,,,3,,,,77,64
82752,note_on,15,0,11,,,,,,,,3,,,,53,64
82752,note_on,2311,0,4,,,,,,,,1,,,,65,64
82752,note_on,1543,0,1,,,,,,,,0,,,,77,64
82841,note_on,89,0,9,,,,,,,,3,,,,77,0
82841,note_on,89,0,3,,,,,,,,1,,,,77,0
82841,note_on,89,0,8,,,,,,,,3,,,,77,0
82841,note_on,89,0,11,,,,,,,,3,,,,53,0
82841,note_on,89,0,10,,,,,,,,3,,,,65,0
82841,note_on,89,0,1,,,,,,,,0,,,,77,0
82841,note_on,89,0,4,,,,,,,,1,,,,65,0
82848,note_on,7,0,1,,,,,,,,0,,,,77,64
82848,note_on,7,0,11,,,,,,,,3,,,,53,64
82848,note_on,7,0,10,,,,,,,,3,,,,65,64
82848,note_on,7,0,9,,,,,,,,3,,,,77,64
82848,note_on,7,0,8,,,,,,,,3,,,,77,64
82848,note_on,7,0,3,,,,,,,,1,,,,77,64
82848,note_on,7,0,4,,,,,,,,1,,,,65,64
82915,note_on,67,0,4,,,,,,,,1,,,,65,0
82915,note_on,67,0,1,,,,,,,,0,,,,77,0
82915,note_on,67,0,3,,,,,,,,1,,,,77,0
82915,note_on,67,0,10,,,,,,,,3,,,,65,0
82915,note_on,67,0,9,,,,,,,,3,,,,77,0
82915,note_on,67,0,8,,,,,,,,3,,,,77,0
82915,note_on,67,0,11,,,,,,,,3,,,,53,0
82920,note_on,5,0,10,,,,,,,,3,,,,65,64
82920,note_on,5,0,9,,,,,,,,3,,,,77,64
82920,note_on,5,0,3,,,,,,,,1,,,,77,64
82920,note_on,5,0,8,,,,,,,,3,,,,77,64
82920,note_on,5,0,4,,,,,,,,1,,,,65,64
82920,note_on,5,0,1,,,,,,,,0,,,,77,64
82920,note_on,5,0,11,,,,,,,,3,,,,53,64
82943,note_on,23,0,11,,,,,,,,3,,,,53,0
82943,note_on,23,0,10,,,,,,,,3,,,,65,0
82943,note_on,23,0,8,,,,,,,,3,,,,77,0
82943,note_on,23,0,9,,,,,,,,3,,,,77,0
82943,note_on,23,0,1,,,,,,,,0,,,,77,0
82943,note_on,23,0,3,,,,,,,,1,,,,77,0
82943,note_on,23,0,4,,,,,,,,1,,,,65,0
82944,note_on,1,0,10,,,,,,,,3,,,,62,64
82944,note_on,1,0,3,,,,,,,,1,,,,74,64
82944,note_on,1,0,9,,,,,,,,3,,,,74,64
82944,note_on,1,0,8,,,,,,,,3,,,,74,64
82944,note_on,1,0,11,,,,,,,,3,,,,50,64
82944,note_on,1,0,4,,,,,,,,1,,,,62,64
82944,note_on,1,0,1,,,,,,,,0,,,,74,64
83033,note_on,89,0,10,,,,,,,,3,,,,62,0
83033,note_on,89,0,8,,,,,,,,3,,,,74,0
83033,note_on,89,0,9,,,,,,,,3,,,,74,0
83033,note_on,89,0,4,,,,,,,,1,,,,62,0
83033,note_on,89,0,11,,,,,,,,3,,,,50,0
83033,note_on,89,0,1,,,,,,,,0,,,,74,0
83033,note_on,89,0,3,,,,,,,,1,,,,74,0
83040,note_on,7,0,9,,,,,,,,3,,,,74,64
83040,note_on,7,0,10,,,,,,,,3,,,,62,64
83040,note_on,7,0,8,,,,,,,,3,,,,74,64
83040,note_on,7,0,3,,,,,,,,1,,,,74,64
83040,note_on,7,0,1,,,,,,,,0,,,,74,64
83040,note_on,7,0,4,,,,,,,,1,,,,62,64
83040,note_on,7,0,11,,,,,,,,3,,,,50,64
83107,note_on,67,0,1,,,,,,,,0,,,,74,0
83107,note_on,67,0,11,,,,,,,,3,,,,50,0
83107,note_on,67,0,8,,,,,,,,3,,,,74,0
83107,note_on,67,0,9,,,,,,,,3,,,,74,0
83107,note_on,67,0,4,,,,,,,,1,,,,62,0
83107,note_on,67,0,10,,,,,,,,3,,,,62,0
83107,note_on,67,0,3,,,,,,,,1,,,,74,0
83112,note_on,5,0,8,,,,,,,,3,,,,74,64
83112,note_on,5,0,4,,,,,,,,1,,,,62,64
83112,note_on,5,0,10,,,,,,,,3,,,,62,64
83112,note_on,5,0,3,,,,,,,,1,,,,74,64
83112,note_on,5,0,9,,,,,,,,3,,,,74,64
83112,note_on,5,0,1,,,,,,,,0,,,,74,64
83112,note_on,5,0,11,,,,,,,,3,,,,50,64
83135,note_on,23,0,3,,,,,,,,1,,,,74,0
83135,note_on,23,0,11,,,,,,,,3,,,,50,0
83135,note_on,23,0,9,,,,,,,,3,,,,74,0
83135,note_on,23,0,4,,,,,,,,1,,,,62,0
83135,note_on,23,0,8,,,,,,,,3,,,,74,0
83135,note_on,23,0,1,,,,,,,,0,,,,74,0
83135,note_on,23,0,10,,,,,,,,3,,,,62,0
83136,note_on,1,0,4,,,,,,,,1,,,,58,64
83136,note_on,1,0,1,,,,,,,,0,,,,70,64
83136,note_on,1,0,11,,,,,,,,3,,,,46,64
83136,note_on,1,0,9,,,,,,,,3,,,,70,64
83136,note_on,1,0,3,,,,,,,,1,,,,70,64
83136,note_on,1,0,10,,,,,,,,3,,,,58,64
83136,note_on,1,0,8,,,,,,,,3,,,,70,64
83225,note_on,89,0,3,,,,,,,,1,,,,70,0
83225,note_on,89,0,8,,,,,,,,3,,,,70,0
83225,note_on,89,0,4,,,,,,,,1,,,,58,0
83225,note_on,89,0,9,,,,,,,,3,,,,70,0
83225,note_on,89,0,1,,,,,,,,0,,,,70,0
83225,note_on,89,0,10,,,,,,,,3,,,,58,0
83225,note_on,89,0,11,,,,,,,,3,,,,46,0
83232,note_on,7,0,8,,,,,,,,3,,,,70,64
83232,note_on,7,0,4,,,,,,,,1,,,,58,64
83232,note_on,7,0,9,,,,,,,,3,,,,70,64
83232,note_on,7,0,10,,,,,,,,3,,,,58,64
83232,note_on,7,0,3,,,,,,,,1,,,,70,64
83232,note_on,7,0,1,,,,,,,,0,,,,70,64
83232,note_on,7,0,11,,,,,,,,3,,,,46,64
83299,note_on,67,0,4,,,,,,,,1,,,,58,0
83299,note_on,67,0,10,,,,,,,,3,,,,58,0
83299,note_on,67,0,11,,,,,,,,3,,,,46,0
83299,note_on,67,0,1,,,,,,,,0,,,,70,0
83299,note_on,67,0,3,,,,,,,,1,,,,70,0
83299,note_on,67,0,9,,,,,,,,3,,,,70,0
83299,note_on,67,0,8,,,,,,,,3,,,,70,0
83304,note_on,5,0,1,,,,,,,,0,,,,70,64
83304,note_on,5,0,3,,,,,,,,1,,,,70,64
83304,note_on,5,0,11,,,,,,,,3,,,,46,64
83304,note_on,5,0,8,,,,,,,,3,,,,70,64
83304,note_on,5,0,9,,,,,,,,3,,,,70,64
83304,note_on,5,0,4,,,,,,,,1,,,,58,64
83304,note_on,5,0,10,,,,,,,,3,,,,58,64
83327,note_on,23,0,11,,,,,,,,3,,,,46,0
83327,note_on,23,0,9,,,,,,,,3,,,,70,0
83327,note_on,23,0,10,,,,,,,,3,,,,58,0
83327,note_on,23,0,8,,,,,,,,3,,,,70,0
83327,note_on,23,0,1,,,,,,,,0,,,,70,0
83327,note_on,23,0,3,,,,,,,,1,,,,70,0
83327,note_on,23,0,4,,,,,,,,1,,,,58,0
83328,note_on,1,0,11,,,,,,,,3,,,,53,64
83328,note_on,1,0,9,,,,,,,,3,,,,77,64
83328,note_on,1,0,8,,,,,,,,3,,,,77,64
83328,note_on,1,0,10,,,,,,,,3,,,,65,64
83328,note_on,1,0,3,,,,,,,,1,,,,77,64
83328,note_on,1,0,1,,,,,,,,0,,,,77,64
83328,note_on,1,0,4,,,,,,,,1,,,,65,64
83367,note_on,39,0,9,,,,,,,,3,,,,77,0
83367,note_on,39,0,10,,,,,,,,3,,,,65,0
83367,note_on,39,0,3,,,,,,,,1,,,,77,0
83367,note_on,39,0,11,,,,,,,,3,,,,53,0
83367,note_on,39,0,1,,,,,,,,0,,,,77,0
83367,note_on,39,0,8,,,,,,,,3,,,,77,0
83367,note_on,39,0,4,,,,,,,,1,,,,65,0
83424,note_on,57,0,9,,,,,,,,3,,,,65,64
83424,note_on,57,0,1,,,,,,,,0,,,,65,64
83424,note_on,57,0,8,,,,,,,,3,,,,65,64
83424,note_on,57,0,3,,,,,,,,1,,,,65,64
83424,note_on,57,0,10,,,,,,,,3,,,,53,64
83424,note_on,57,0,4,,,,,,,,1,,,,53,64
83424,note_on,57,0,11,,,,,,,,3,,,,41,64
83463,note_on,39,0,9,,,,,,,,3,,,,65,0
83463,note_on,39,0,3,,,,,,,,1,,,,65,0
83463,note_on,39,0,8,,,,,,,,3,,,,65,0
83463,note_on,39,0,11,,,,,,,,3,,,,41,0
83463,note_on,39,0,1,,,,,,,,0,,,,65,0
83463,note_on,39,0,4,,,,,,,,1,,,,53,0
83463,note_on,39,0,10,,,,,,,,3,,,,53,0
83520,note_on,775,0,5,,,,,,,,2,,,,65,85
83565,note_on,45,0,5,,,,,,,,2,,,,65,0
83568,note_on,3,0,5,,,,,,,,2,,,,70,85
83613,note_on,45,0,5,,,,,,,,2,,,,70,0
83616,note_on,3,0,5,,,,,,,,2,,,,74,85
83661,note_on,45,0,5,,,,,,,,2,,,,74,0
83664,note_on,3,0,5,,,,,,,,2,,,,77,85
83709,note_on,45,0,5,,,,,,,,2,,,,77,0
83712,note_on,967,0,6,,,,,,,,2,,,,62,85
83712,note_on,3,0,5,,,,,,,,2,,,,77,85
83751,note_on,39,0,5,,,,,,,,2,,,,77,0
83757,note_on,45,0,6,,,,,,,,2,,,,62,0
83760,note_on,3,0,6,,,,,,,,2,,,,65,85
83805,note_on,45,0,6,,,,,,,,2,,,,65,0
83808,note_on,3,0,6,,,,,,,,2,,,,62,85
83853,note_on,45,0,6,,,,,,,,2,,,,62,0
83856,note_on,3,0,6,,,,,,,,2,,,,65,85
83901,note_on,45,0,6,,,,,,,,2,,,,65,0
83904,note_on,153,0,5,,,,,,,,2,,,,74,85
83904,note_on,3,0,6,,,,,,,,2,,,,58,85
83943,note_on,39,0,5,,,,,,,,2,,,,74,0
83949,note_on,45,0,6,,,,,,,,2,,,,58,0
83952,note_on,3,0,6,,,,,,,,2,,,,65,85
83997,note_on,45,0,6,,,,,,,,2,,,,65,0
84000,note_on,3,0,6,,,,,,,,2,,,,58,85
84045,note_on,45,0,6,,,,,,,,2,,,,58,0
84048,note_on,3,0,6,,,,,,,,2,,,,65,85
84093,note_on,45,0,6,,,,,,,,2,,,,65,0
84096,note_on,153,0,5,,,,,,,,2,,,,75,85
84096,note_on,3,0,6,,,,,,,,2,,,,60,85
84135,note_on,39,0,5,,,,,,,,2,,,,75,0
84141,note_on,45,0,6,,,,,,,,2,,,,60,0
84144,note_on,3,0,6,,,,,,,,2,,,,65,85
84189,note_on,45,0,6,,,,,,,,2,,,,65,0
84192,note_on,3,0,6,,,,,,,,2,,,,60,85
84237,note_on,45,0,6,,,,,,,,2,,,,60,0
84240,note_on,3,0,6,,,,,,,,2,,,,65,85
84285,note_on,45,0,6,,,,,,,,2,,,,65,0
84288,note_on,3,0,6,,,,,,,,2,,,,57,85
84288,note_on,153,0,5,,,,,,,,2,,,,72,85
84327,note_on,39,0,5,,,,,,,,2,,,,72,0
84333,note_on,45,0,6,,,,,,,,2,,,,57,0
84336,note_on,3,0,6,,,,,,,,2,,,,65,85
84381,note_on,45,0,6,,,,,,,,2,,,,65,0
84384,note_on,3,0,6,,,,,,,,2,,,,57,85
84429,note_on,45,0,6,,,,,,,,2,,,,57,0
84432,note_on,3,0,6,,,,,,,,2,,,,65,85
84477,note_on,45,0,6,,,,,,,,2,,,,65,0
84480,note_on,3,0,6,,,,,,,,2,,,,58,85
84480,note_on,153,0,5,,,,,,,,2,,,,74,85
84525,note_on,45,0,6,,,,,,,,2,,,,58,0
84528,note_on,3,0,6,,,,,,,,2,,,,65,85
84569,note_on,89,0,5,,,,,,,,2,,,,74,0
84573,note_on,45,0,6,,,,,,,,2,,,,65,0
84576,note_on,3,0,6,,,,,,,,2,,,,62,85
84576,note_on,7,0,5,,,,,,,,2,,,,70,85
84621,note_on,45,0,6,,,,,,,,2,,,,62,0
84624,note_on,3,0,6,,,,,,,,2,,,,65,85
84665,note_on,89,0,5,,,,,,,,2,,,,70,0
84669,note_on,45,0,6,,,,,,,,2,,,,65,0
84672,note_on,3,0,6,,,,,,,,2,,,,63,85
84672,note_on,7,0,5,,,,,,,,2,,,,69,85
84717,note_on,45,0,6,,,,,,,,2,,,,63,0
84720,note_on,3,0,6,,,,,,,,2,,,,65,85
84761,note_on,89,0,5,,,,,,,,2,,,,69,0
84765,note_on,45,0,6,,,,,,,,2,,,,65,0
84768,note_on,7,0,5,,,,,,,,2,,,,70,85
84768,note_on,3,0,6,,,,,,,,2,,,,62,85
84813,note_on,45,0,6,,,,,,,,2,,,,62,0
84816,note_on,3,0,6,,,,,,,,2,,,,58,85
84857,note_on,89,0,5,,,,,,,,2,,,,70,0
84861,note_on,45,0,6,,,,,,,,2,,,,58,0
84864,note_on,0,0,5,,,,,,,,2,,,,70,85
84864,note_on,3,0,6,,,,,,,,2,,,,65,85
84864,note_on,7,0,5,,,,,,,,2,,,,74,85
84953,note_on,89,0,5,,,,,,,,2,,,,70,0
84953,note_on,0,0,5,,,,,,,,2,,,,74,0
84960,note_on,7,0,5,,,,,,,,2,,,,72,85
84960,note_on,0,0,5,,,,,,,,2,,,,69,85
85041,note_on,177,0,6,,,,,,,,2,,,,65,0
85049,note_on,89,0,5,,,,,,,,2,,,,69,0
85049,note_on,0,0,5,,,,,,,,2,,,,72,0
85056,note_on,7,0,5,,,,,,,,2,,,,65,85
85101,note_on,45,0,5,,,,,,,,2,,,,65,0
85104,note_on,3,0,5,,,,,,,,2,,,,70,85
85149,note_on,45,0,5,,,,,,,,2,,,,70,0
85152,note_on,3,0,5,,,,,,,,2,,,,74,85
85197,note_on,45,0,5,,,,,,,,2,,,,74,0
85200,note_on,3,0,5,,,,,,,,2,,,,77,85
85245,note_on,45,0,5,,,,,,,,2,,,,77,0
85248,note_on,207,0,6,,,,,,,,2,,,,62,85
85248,note_on,1785,0,9,,,,,,,,3,,,,65,49
85248,note_on,3,0,5,,,,,,,,2,,,,77,85
85248,note_on,1785,0,8,,,,,,,,3,,,,77,49
85248,note_on,1785,0,10,,,,,,,,3,,,,65,49
85287,note_on,39,0,9,,,,,,,,3,,,,65,0
85287,note_on,39,0,8,,,,,,,,3,,,,77,0
85293,note_on,45,0,5,,,,,,,,2,,,,77,0
85293,note_on,45,0,6,,,,,,,,2,,,,62,0
85296,note_on,3,0,5,,,,,,,,2,,,,89,85
85296,note_on,3,0,6,,,,,,,,2,,,,65,85
85341,note_on,45,0,5,,,,,,,,2,,,,89,0
85341,note_on,45,0,6,,,,,,,,2,,,,65,0
85344,note_on,3,0,6,,,,,,,,2,,,,62,85
85389,note_on,45,0,6,,,,,,,,2,,,,62,0
85392,note_on,3,0,6,,,,,,,,2,,,,65,85
85437,note_on,45,0,6,,,,,,,,2,,,,65,0
85440,note_on,99,0,5,,,,,,,,2,,,,74,85
85440,note_on,3,0,6,,,,,,,,2,,,,59,85
85440,note_on,153,0,9,,,,,,,,3,,,,62,49
85440,note_on,153,0,8,,,,,,,,3,,,,74,49
85479,note_on,39,0,9,,,,,,,,3,,,,62,0
85479,note_on,39,0,8,,,,,,,,3,,,,74,0
85485,note_on,45,0,6,,,,,,,,2,,,,59,0
85485,note_on,45,0,5,,,,,,,,2,,,,74,0
85488,note_on,3,0,6,,,,,,,,2,,,,65,85
85488,note_on,3,0,5,,,,,,,,2,,,,86,85
85533,note_on,45,0,5,,,,,,,,2,,,,86,0
85533,note_on,45,0,6,,,,,,,,2,,,,65,0
85536,note_on,3,0,6,,,,,,,,2,,,,59,85
85581,note_on,45,0,6,,,,,,,,2,,,,59,0
85584,note_on,3,0,6,,,,,,,,2,,,,65,85
85629,note_on,45,0,6,,,,,,,,2,,,,65,0
85632,note_on,3,0,6,,,,,,,,2,,,,60,85
85632,note_on,153,0,8,,,,,,,,3,,,,75,49
85632,note_on,99,0,5,,,,,,,,2,,,,75,85
85632,note_on,153,0,9,,,,,,,,3,,,,63,49
85671,note_on,39,0,8,,,,,,,,3,,,,75,0
85671,note_on,39,0,9,,,,,,,,3,,,,63,0
85677,note_on,45,0,5,,,,,,,,2,,,,75,0
85677,note_on,45,0,6,,,,,,,,2,,,,60,0
85680,note_on,3,0,5,,,,,,,,2,,,,87,85
85680,note_on,3,0,6,,,,,,,,2,,,,65,85
85725,note_on,45,0,5,,,,,,,,2,,,,87,0
85725,note_on,45,0,6,,,,,,,,2,,,,65,0
85728,note_on,3,0,6,,,,,,,,2,,,,60,85
85773,note_on,45,0,6,,,,,,,,2,,,,60,0
85776,note_on,3,0,6,,,,,,,,2,,,,65,85
85821,note_on,45,0,6,,,,,,,,2,,,,65,0
85824,note_on,99,0,5,,,,,,,,2,,,,72,85
85824,note_on,153,0,8,,,,,,,,3,,,,72,49
85824,note_on,153,0,9,,,,,,,,3,,,,60,49
85824,note_on,3,0,6,,,,,,,,2,,,,57,85
85863,note_on,39,0,9,,,,,,,,3,,,,60,0
85863,note_on,39,0,8,,,,,,,,3,,,,72,0
85869,note_on,45,0,5,,,,,,,,2,,,,72,0
85869,note_on,45,0,6,,,,,,,,2,,,,57,0
85872,note_on,3,0,6,,,,,,,,2,,,,65,85
85872,note_on,3,0,5,,,,,,,,2,,,,84,85
85917,note_on,45,0,5,,,,,,,,2,,,,84,0
85917,note_on,45,0,6,,,,,,,,2,,,,65,0
85920,note_on,3,0,6,,,,,,,,2,,,,57,85
85965,note_on,45,0,6,,,,,,,,2,,,,57,0
85968,note_on,3,0,6,,,,,,,,2,,,,65,85
85986,note_on,738,0,10,,,,,,,,3,,,,65,0
86013,note_on,45,0,6,,,,,,,,2,,,,65,0
86016,note_on,153,0,8,,,,,,,,3,,,,74,49
86016,note_on,30,0,10,,,,,,,,3,,,,65,49
86016,note_on,153,0,9,,,,,,,,3,,,,62,49
86016,note_on,3,0,6,,,,,,,,2,,,,58,85
86016,note_on,99,0,5,,,,,,,,2,,,,74,85
86061,note_on,45,0,5,,,,,,,,2,,,,74,0
86064,note_on,3,0,5,,,,,,,,2,,,,86,85
86105,note_on,89,0,8,,,,,,,,3,,,,74,0
86105,note_on,89,0,9,,,,,,,,3,,,,62,0
86105,note_on,89,0,6,,,,,,,,2,,,,58,0
86109,note_on,45,0,5,,,,,,,,2,,,,86,0
86112,note_on,7,0,9,,,,,,,,3,,,,70,49
86112,note_on,3,0,5,,,,,,,,2,,,,70,85
86112,note_on,7,0,6,,,,,,,,2,,,,65,85
86112,note_on,0,0,6,,,,,,,,2,,,,62,85
86112,note_on,7,0,8,,,,,,,,3,,,,82,49
86157,note_on,45,0,5,,,,,,,,2,,,,70,0
86160,note_on,3,0,5,,,,,,,,2,,,,82,85
86193,note_on,177,0,10,,,,,,,,3,,,,65,0
86201,note_on,89,0,9,,,,,,,,3,,,,70,0
86201,note_on,89,0,6,,,,,,,,2,,,,62,0
86201,note_on,89,0,8,,,,,,,,3,,,,82,0
86201,note_on,0,0,6,,,,,,,,2,,,,65,0
86205,note_on,45,0,5,,,,,,,,2,,,,82,0
86208,note_on,3,0,5,,,,,,,,2,,,,67,85
86208,note_on,7,0,8,,,,,,,,3,,,,79,49
86208,note_on,15,0,10,,,,,,,,3,,,,62,49
86208,note_on,7,0,9,,,,,,,,3,,,,67,49
86208,note_on,7,0,6,,,,,,,,2,,,,62,85
86208,note_on,0,0,6,,,,,,,,2,,,,58,85
86253,note_on,45,0,5,,,,,,,,2,,,,67,0
86256,note_on,3,0,5,,,,,,,,2,,,,79,85
86297,note_on,89,0,10,,,,,,,,3,,,,62,0
86297,note_on,89,0,6,,,,,,,,2,,,,58,0
86297,note_on,0,0,6,,,,,,,,2,,,,62,0
86297,note_on,89,0,8,,,,,,,,3,,,,79,0
86297,note_on,89,0,9,,,,,,,,3,,,,67,0
86301,note_on,45,0,5,,,,,,,,2,,,,79,0
86304,note_on,7,0,9,,,,,,,,3,,,,64,49
86304,note_on,3,0,5,,,,,,,,2,,,,64,85
86304,note_on,0,0,6,,,,,,,,2,,,,55,85
86304,note_on,7,0,10,,,,,,,,3,,,,58,49
86304,note_on,7,0,6,,,,,,,,2,,,,58,85
86304,note_on,7,0,8,,,,,,,,3,,,,76,49
86349,note_on,45,0,5,,,,,,,,2,,,,64,0
86352,note_on,3,0,5,,,,,,,,2,,,,76,85
86393,note_on,0,0,6,,,,,,,,2,,,,58,0
86393,note_on,89,0,10,,,,,,,,3,,,,58,0
86393,note_on,89,0,9,,,,,,,,3,,,,64,0
86393,note_on,89,0,6,,,,,,,,2,,,,55,0
86393,note_on,89,0,8,,,,,,,,3,,,,76,0
86397,note_on,45,0,5,,,,,,,,2,,,,76,0
86400,note_on,7,0,9,,,,,,,,3,,,,65,49
86400,note_on,0,0,6,,,,,,,,2,,,,53,85
86400,note_on,7,0,8,,,,,,,,3,,,,77,49
86400,note_on,3,0,5,,,,,,,,2,,,,65,85
86400,note_on,7,0,6,,,,,,,,2,,,,57,85
86400,note_on,7,0,10,,,,,,,,3,,,,57,49
86439,note_on,39,0,10,,,,,,,,3,,,,57,0
86445,note_on,45,0,5,,,,,,,,2,,,,65,0
86448,note_on,3,0,5,,,,,,,,2,,,,77,85
86489,note_on,89,0,8,,,,,,,,3,,,,77,0
86489,note_on,89,0,6,,,,,,,,2,,,,53,0
86489,note_on,0,0,6,,,,,,,,2,,,,57,0
86489,note_on,89,0,9,,,,,,,,3,,,,65,0
86493,note_on,45,0,5,,,,,,,,2,,,,77,0
86496,note_on,57,0,10,,,,,,,,3,,,,53,49
86496,note_on,7,0,6,,,,,,,,2,,,,65,85
86535,note_on,39,0,10,,,,,,,,3,,,,53,0
86585,note_on,89,0,6,,,,,,,,2,,,,65,0
86592,note_on,99,0,5,,,,,,,,2,,,,77,85
86637,note_on,45,0,5,,,,,,,,2,,,,77,0
86640,note_on,3,0,5,,,,,,,,2,,,,79,85
86685,note_on,45,0,5,,,,,,,,2,,,,79,0
86688,note_on,103,0,6,,,,,,,,2,,,,62,85
86688,note_on,3,0,5,,,,,,,,2,,,,81,85
86733,note_on,45,0,6,,,,,,,,2,,,,62,0
86733,note_on,45,0,5,,,,,,,,2,,,,81,0
86736,note_on,3,0,5,,,,,,,,2,,,,82,85
86736,note_on,3,0,6,,,,,,,,2,,,,65,85
86781,note_on,45,0,5,,,,,,,,2,,,,82,0
86781,note_on,45,0,6,,,,,,,,2,,,,65,0
86784,note_on,3,0,5,,,,,,,,2,,,,82,85
86784,note_on,3321,0,11,,,,,,,,3,,,,51,64
86784,note_on,295,0,8,,,,,,,,3,,,,77,64
86784,note_on,3,0,6,,,,,,,,2,,,,63,85
86784,note_on,295,0,9,,,,,,,,3,,,,65,64
86784,note_on,249,0,10,,,,,,,,3,,,,72,64
86829,note_on,45,0,5,,,,,,,,2,,,,82,0
86829,note_on,45,0,6,,,,,,,,2,,,,63,0
86832,note_on,3,0,5,,,,,,,,2,,,,81,85
86832,note_on,3,0,6,,,,,,,,2,,,,65,85
86873,note_on,89,0,11,,,,,,,,3,,,,51,0
86873,note_on,89,0,10,,,,,,,,3,,,,72,0
86877,note_on,45,0,6,,,,,,,,2,,,,65,0
86877,note_on,45,0,5,,,,,,,,2,,,,81,0
86880,note_on,3,0,5,,,,,,,,2,,,,79,85
86880,note_on,7,0,10,,,,,,,,3,,,,69,64
86880,note_on,7,0,11,,,,,,,,3,,,,48,64
86880,note_on,3,0,6,,,,,,,,2,,,,60,85
86925,note_on,45,0,6,,,,,,,,2,,,,60,0
86925,note_on,45,0,5,,,,,,,,2,,,,79,0
86928,note_on,3,0,6,,,,,,,,2,,,,65,85
86928,note_on,3,0,5,,,,,,,,2,,,,77,85
86969,note_on,89,0,10,,,,,,,,3,,,,69,0
86969,note_on,89,0,11,,,,,,,,3,,,,48,0
86973,note_on,45,0,6,,,,,,,,2,,,,65,0
86973,note_on,45,0,5,,,,,,,,2,,,,77,0
86976,note_on,3,0,6,,,,,,,,2,,,,62,64
86976,note_on,7,0,10,,,,,,,,3,,,,70,64
86976,note_on,7,0,11,,,,,,,,3,,,,50,64
86976,note_on,3,0,5,,,,,,,,2,,,,77,64
87015,note_on,39,0,10,,,,,,,,3,,,,70,0
87021,note_on,45,0,5,,,,,,,,2,,,,77,0
87021,note_on,45,0,6,,,,,,,,2,,,,62,0
87024,note_on,3,0,5,,,,,,,,2,,,,79,64
87024,note_on,3,0,6,,,,,,,,2,,,,65,64
87065,note_on,89,0,11,,,,,,,,3,,,,50,0
87069,note_on,45,0,5,,,,,,,,2,,,,79,0
87069,note_on,45,0,6,,,,,,,,2,,,,65,0
87072,note_on,3,0,5,,,,,,,,2,,,,81,64
87072,note_on,3,0,6,,,,,,,,2,,,,58,64
87072,note_on,7,0,11,,,,,,,,3,,,,46,64
87117,note_on,45,0,5,,,,,,,,2,,,,81,0
87117,note_on,45,0,6,,,,,,,,2,,,,58,0
87120,note_on,3,0,5,,,,,,,,2,,,,82,64
87120,note_on,3,0,6,,,,,,,,2,,,,65,64
87138,note_on,354,0,8,,,,,,,,3,,,,77,0
87138,note_on,354,0,9,,,,,,,,3,,,,65,0
87161,note_on,89,0,11,,,,,,,,3,,,,46,0
87165,note_on,45,0,6,,,,,,,,2,,,,65,0
87165,note_on,45,0,5,,,,,,,,2,,,,82,0
87168,note_on,30,0,8,,,,,,,,3,,,,77,64
87168,note_on,3,0,5,,,,,,,,2,,,,82,85
87168,note_on,3,0,6,,,,,,,,2,,,,63,85
87168,note_on,30,0,9,,,,,,,,3,,,,65,64
87168,note_on,7,0,11,,,,,,,,3,,,,51,64
87168,note_on,153,0,10,,,,,,,,3,,,,72,64
87213,note_on,45,0,5,,,,,,,,2,,,,82,0
87213,note_on,45,0,6,,,,,,,,2,,,,63,0
87216,note_on,3,0,5,,,,,,,,2,,,,81,85
87216,note_on,3,0,6,,,,,,,,2,,,,65,85
87257,note_on,89,0,10,,,,,,,,3,,,,72,0
87257,note_on,89,0,11,,,,,,,,3,,,,51,0
87261,note_on,45,0,6,,,,,,,,2,,,,65,0
87261,note_on,45,0,5,,,,,,,,2,,,,81,0
87264,note_on,3,0,6,,,,,,,,2,,,,60,85
87264,note_on,3,0,5,,,,,,,,2,,,,79,85
87264,note_on,7,0,10,,,,,,,,3,,,,69,64
87264,note_on,7,0,11,,,,,,,,3,,,,48,64
87309,note_on,45,0,6,,,,,,,,2,,,,60,0
87309,note_on,45,0,5,,,,,,,,2,,,,79,0
87312,note_on,3,0,5,,,,,,,,2,,,,77,85
87312,note_on,3,0,6,,,,,,,,2,,,,65,85
87353,note_on,89,0,10,,,,,,,,3,,,,69,0
87353,note_on,89,0,11,,,,,,,,3,,,,48,0
87357,note_on,45,0,6,,,,,,,,2,,,,65,0
87357,note_on,45,0,5,,,,,,,,2,,,,77,0
87360,note_on,7,0,10,,,,,,,,3,,,,70,64
87360,note_on,3,0,5,,,,,,,,2,,,,77,64
87360,note_on,7,0,11,,,,,,,,3,,,,50,64
87360,note_on,3,0,6,,,,,,,,2,,,,62,64
87399,note_on,39,0,10,,,,,,,,3,,,,70,0
87405,note_on,45,0,6,,,,,,,,2,,,,62,0
87405,note_on,45,0,5,,,,,,,,2,,,,77,0
87408,note_on,3,0,5,,,,,,,,2,,,,79,64
87408,note_on,3,0,6,,,,,,,,2,,,,65,64
87449,note_on,89,0,11,,,,,,,,3,,,,50,0
87453,note_on,45,0,5,,,,,,,,2,,,,79,0
87453,note_on,45,0,6,,,,,,,,2,,,,65,0
87456,note_on,7,0,11,,,,,,,,3,,,,46,64
87456,note_on,3,0,6,,,,,,,,2,,,,58,64
87456,note_on,3,0,5,,,,,,,,2,,,,81,64
87501,note_on,45,0,5,,,,,,,,2,,,,81,0
87501,note_on,45,0,6,,,,,,,,2,,,,58,0
87504,note_on,3,0,6,,,,,,,,2,,,,65,64
87504,note_on,3,0,5,,,,,,,,2,,,,82,64
87522,note_on,354,0,8,,,,,,,,3,,,,77,0
87522,note_on,354,0,9,,,,,,,,3,,,,65,0
87545,note_on,89,0,11,,,,,,,,3,,,,46,0
87549,note_on,45,0,5,,,,,,,,2,,,,82,0
87549,note_on,45,0,6,,,,,,,,2,,,,65,0
87552,note_on,153,0,10,,,,,,,,3,,,,72,64
87552,note_on,30,0,9,,,,,,,,3,,,,65,64
87552,note_on,30,0,8,,,,,,,,3,,,,77,64
87552,note_on,7,0,11,,,,,,,,3,,,,51,64
87552,note_on,3,0,5,,,,,,,,2,,,,82,85
87552,note_on,3,0,6,,,,,,,,2,,,,63,85
87597,note_on,45,0,6,,,,,,,,2,,,,63,0
87597,note_on,45,0,5,,,,,,,,2,,,,82,0
87600,note_on,3,0,6,,,,,,,,2,,,,65,85
87600,note_on,3,0,5,,,,,,,,2,,,,81,85
87641,note_on,89,0,11,,,,,,,,3,,,,51,0
87641,note_on,89,0,10,,,,,,,,3,,,,72,0
87645,note_on,45,0,5,,,,,,,,2,,,,81,0
87645,note_on,45,0,6,,,,,,,,2,,,,65,0
87648,note_on,3,0,5,,,,,,,,2,,,,79,85
87648,note_on,7,0,11,,,,,,,,3,,,,48,64
87648,note_on,3,0,6,,,,,,,,2,,,,60,85
87648,note_on,7,0,10,,,,,,,,3,,,,69,64
87693,note_on,45,0,6,,,,,,,,2,,,,60,0
87693,note_on,45,0,5,,,,,,,,2,,,,79,0
87696,note_on,3,0,5,,,,,,,,2,,,,77,85
87696,note_on,3,0,6,,,,,,,,2,,,,65,85
87737,note_on,89,0,10,,,,,,,,3,,,,69,0
87737,note_on,89,0,11,,,,,,,,3,,,,48,0
87741,note_on,45,0,6,,,,,,,,2,,,,65,0
87741,note_on,45,0,5,,,,,,,,2,,,,77,0
87744,note_on,3,0,5,,,,,,,,2,,,,82,64
87744,note_on,7,0,10,,,,,,,,3,,,,70,64
87744,note_on,7,0,11,,,,,,,,3,,,,50,64
87744,note_on,3,0,6,,,,,,,,2,,,,62,64
87783,note_on,39,0,10,,,,,,,,3,,,,70,0
87789,note_on,45,0,6,,,,,,,,2,,,,62,0
87789,note_on,45,0,5,,,,,,,,2,,,,82,0
87792,note_on,3,0,5,,,,,,,,2,,,,84,64
87792,note_on,3,0,6,,,,,,,,2,,,,65,64
87833,note_on,89,0,11,,,,,,,,3,,,,50,0
87837,note_on,45,0,6,,,,,,,,2,,,,65,0
87837,note_on,45,0,5,,,,,,,,2,,,,84,0
87840,note_on,3,0,6,,,,,,,,2,,,,58,64
87840,note_on,3,0,5,,,,,,,,2,,,,86,64
87840,note_on,7,0,11,,,,,,,,3,,,,46,64
87885,note_on,45,0,6,,,,,,,,2,,,,58,0
87885,note_on,45,0,5,,,,,,,,2,,,,86,0
87888,note_on,3,0,6,,,,,,,,2,,,,65,64
87888,note_on,3,0,5,,,,,,,,2,,,,82,64
87906,note_on,354,0,8,,,,,,,,3,,,,77,0
87906,note_on,354,0,9,,,,,,,,3,,,,65,0
87929,note_on,89,0,11,,,,,,,,3,,,,46,0
87933,note_on,45,0,5,,,,,,,,2,,,,82,0
87933,note_on,45,0,6,,,,,,,,2,,,,65,0
87936,note_on,3,0,5,,,,,,,,2,,,,87,64
87936,note_on,30,0,8,,,,,,,,3,,,,69,49
87936,note_on,3,0,6,,,,,,,,2,,,,60,64
87936,note_on,153,0,10,,,,,,,,3,,,,60,49
87936,note_on,30,0,9,,,,,,,,3,,,,63,49
87936,note_on,7,0,11,,,,,,,,3,,,,48,49
88025,note_on,89,0,9,,,,,,,,3,,,,63,0
88025,note_on,89,0,5,,,,,,,,2,,,,87,0
88025,note_on,89,0,10,,,,,,,,3,,,,60,0
88025,note_on,89,0,11,,,,,,,,3,,,,48,0
88025,note_on,89,0,6,,,,,,,,2,,,,60,0
88025,note_on,89,0,8,,,,,,,,3,,,,69,0
88128,note_on,103,0,6,,,,,,,,2,,,,69,64
88158,note_on,30,0,6,,,,,,,,2,,,,69,0
88160,note_on,135,0,5,,,,,,,,2,,,,72,64
88190,note_on,30,0,5,,,,,,,,2,,,,72,0
88192,note_on,2,0,5,,,,,,,,2,,,,75,64
88222,note_on,30,0,5,,,,,,,,2,,,,75,0
88224,note_on,66,0,6,,,,,,,,2,,,,71,64
88254,note_on,30,0,6,,,,,,,,2,,,,71,0
88256,note_on,34,0,5,,,,,,,,2,,,,74,64
88286,note_on,30,0,5,,,,,,,,2,,,,74,0
88288,note_on,2,0,5,,,,,,,,2,,,,77,64
88318,note_on,30,0,5,,,,,,,,2,,,,77,0
88320,note_on,66,0,6,,,,,,,,2,,,,72,64
88352,note_on,34,0,5,,,,,,,,2,,,,75,64
88382,note_on,30,0,5,,,,,,,,2,,,,75,0
88384,note_on,2,0,5,,,,,,,,2,,,,77,64
88409,note_on,89,0,6,,,,,,,,2,,,,72,0
88414,note_on,30,0,5,,,,,,,,2,,,,77,0
88416,note_on,2,0,5,,,,,,,,2,,,,79,64
88446,note_on,30,0,5,,,,,,,,2,,,,79,0
88448,note_on,2,0,5,,,,,,,,2,,,,77,64
88478,note_on,30,0,5,,,,,,,,2,,,,77,0
88480,note_on,2,0,5,,,,,,,,2,,,,75,64
88510,note_on,30,0,5,,,,,,,,2,,,,75,0
88512,note_on,103,0,6,,,,,,,,2,,,,67,64
88542,note_on,30,0,6,,,,,,,,2,,,,67,0
88544,note_on,34,0,5,,,,,,,,2,,,,70,64
88574,note_on,30,0,5,,,,,,,,2,,,,70,0
88576,note_on,2,0,5,,,,,,,,2,,,,74,64
88606,note_on,30,0,5,,,,,,,,2,,,,74,0
88608,note_on,66,0,6,,,,,,,,2,,,,69,64
88638,note_on,30,0,6,,,,,,,,2,,,,69,0
88640,note_on,34,0,5,,,,,,,,2,,,,72,64
88670,note_on,30,0,5,,,,,,,,2,,,,72,0
88672,note_on,2,0,5,,,,,,,,2,,,,75,64
88702,note_on,30,0,5,,,,,,,,2,,,,75,0
88704,note_on,66,0,6,,,,,,,,2,,,,70,64
88736,note_on,34,0,5,,,,,,,,2,,,,74,64
88766,note_on,30,0,5,,,,,,,,2,,,,74,0
88768,note_on,2,0,5,,,,,,,,2,,,,75,64
88793,note_on,89,0,6,,,,,,,,2,,,,70,0
88798,note_on,30,0,5,,,,,,,,2,,,,75,0
88800,note_on,2,0,5,,,,,,,,2,,,,77,64
88830,note_on,30,0,5,,,,,,,,2,,,,77,0
88832,note_on,2,0,5,,,,,,,,2,,,,75,64
88862,note_on,30,0,5,,,,,,,,2,,,,75,0
88864,note_on,2,0,5,,,,,,,,2,,,,74,64
88894,note_on,30,0,5,,,,,,,,2,,,,74,0
88896,note_on,103,0,6,,,,,,,,2,,,,60,64
88926,note_on,30,0,6,,,,,,,,2,,,,60,0
88928,note_on,34,0,5,,,,,,,,2,,,,69,64
88958,note_on,30,0,5,,,,,,,,2,,,,69,0
88960,note_on,2,0,5,,,,,,,,2,,,,72,64
88990,note_on,30,0,5,,,,,,,,2,,,,72,0
88992,note_on,66,0,6,,,,,,,,2,,,,62,64
89022,note_on,30,0,6,,,,,,,,2,,,,62,0
89024,note_on,34,0,5,,,,,,,,2,,,,70,64
89054,note_on,30,0,5,,,,,,,,2,,,,70,0
89056,note_on,2,0,5,,,,,,,,2,,,,74,64
89086,note_on,30,0,5,,,,,,,,2,,,,74,0
89088,note_on,66,0,6,,,,,,,,2,,,,63,64
89120,note_on,34,0,5,,,,,,,,2,,,,72,64
89150,note_on,30,0,5,,,,,,,,2,,,,72,0
89152,note_on,2,0,5,,,,,,,,2,,,,74,64
89177,note_on,89,0,6,,,,,,,,2,,,,63,0
89182,note_on,30,0,5,,,,,,,,2,,,,74,0
89184,note_on,2,0,5,,,,,,,,2,,,,75,64
89214,note_on,30,0,5,,,,,,,,2,,,,75,0
89216,note_on,2,0,5,,,,,,,,2,,,,74,64
89246,note_on,30,0,5,,,,,,,,2,,,,74,0
89248,note_on,2,0,5,,,,,,,,2,,,,72,64
89278,note_on,30,0,5,,,,,,,,2,,,,72,0
89280,note_on,103,0,6,,,,,,,,2,,,,63,64
89310,note_on,30,0,6,,,,,,,,2,,,,63,0
89312,note_on,34,0,5,,,,,,,,2,,,,67,85
89342,note_on,30,0,5,,,,,,,,2,,,,67,0
89344,note_on,2,0,5,,,,,,,,2,,,,70,85
89374,note_on,30,0,5,,,,,,,,2,,,,70,0
89376,note_on,66,0,6,,,,,,,,2,,,,65,64
89406,note_on,30,0,6,,,,,,,,2,,,,65,0
89408,note_on,34,0,5,,,,,,,,2,,,,69,85
89438,note_on,30,0,5,,,,,,,,2,,,,69,0
89440,note_on,2,0,5,,,,,,,,2,,,,72,85
89470,note_on,30,0,5,,,,,,,,2,,,,72,0
89472,note_on,66,0,6,,,,,,,,2,,,,58,64
89472,note_on,2,0,5,,,,,,,,2,,,,70,85
89561,note_on,89,0,5,,,,,,,,2,,,,70,0
89561,note_on,89,0,6,,,,,,,,2,,,,58,0
89568,note_on,7,0,6,,,,,,,,2,,,,46,64
89657,note_on,89,0,6,,,,,,,,2,,,,46,0
89664,note_on,1639,0,8,,,,,,,,3,,,,77,49
89664,note_on,1639,0,9,,,,,,,,3,,,,65,49
89664,note_on,103,0,5,,,,,,,,2,,,,77,64
89687,note_on,23,0,5,,,,,,,,2,,,,77,0
89688,note_on,1,0,5,,,,,,,,2,,,,89,64
89709,note_on,45,0,9,,,,,,,,3,,,,65,0
89709,note_on,45,0,8,,,,,,,,3,,,,77,0
89711,note_on,23,0,5,,,,,,,,2,,,,89,0
89712,note_on,3,0,8,,,,,,,,3,,,,79,49
89712,note_on,3,0,9,,,,,,,,3,,,,67,49
89712,note_on,1,0,5,,,,,,,,2,,,,77,64
89735,note_on,23,0,5,,,,,,,,2,,,,77,0
89736,note_on,1,0,5,,,,,,,,2,,,,89,64
89757,note_on,45,0,9,,,,,,,,3,,,,67,0
89757,note_on,45,0,8,,,,,,,,3,,,,79,0
89759,note_on,23,0,5,,,,,,,,2,,,,89,0
89760,note_on,3,0,8,,,,,,,,3,,,,81,49
89760,note_on,3,0,9,,,,,,,,3,,,,69,49
89760,note_on,103,0,6,,,,,,,,2,,,,50,64
89760,note_on,1,0,5,,,,,,,,2,,,,77,64
89783,note_on,23,0,5,,,,,,,,2,,,,77,0
89784,note_on,1,0,5,,,,,,,,2,,,,89,64
89805,note_on,45,0,9,,,,,,,,3,,,,69,0
89805,note_on,45,0,6,,,,,,,,2,,,,50,0
89805,note_on,45,0,8,,,,,,,,3,,,,81,0
89807,note_on,23,0,5,,,,,,,,2,,,,89,0
89808,note_on,3,0,8,,,,,,,,3,,,,82,49
89808,note_on,3,0,6,,,,,,,,2,,,,53,64
89808,note_on,1,0,5,,,,,,,,2,,,,77,64
89808,note_on,3,0,9,,,,,,,,3,,,,70,49
89831,note_on,23,0,5,,,,,,,,2,,,,77,0
89832,note_on,1,0,5,,,,,,,,2,,,,89,64
89853,note_on,45,0,8,,,,,,,,3,,,,82,0
89853,note_on,45,0,9,,,,,,,,3,,,,70,0
89853,note_on,45,0,6,,,,,,,,2,,,,53,0
89855,note_on,23,0,5,,,,,,,,2,,,,89,0
89856,note_on,1831,0,10,,,,,,,,3,,,,60,64
89856,note_on,3,0,6,,,,,,,,2,,,,51,85
89856,note_on,3,0,8,,,,,,,,3,,,,82,64
89856,note_on,10191,0,2,,,,,,,,0,,,,77,64
89856,note_on,6393,0,3,,,,,,,,1,,,,65,49
89856,note_on,1,0,5,,,,,,,,2,,,,77,85
89856,note_on,3,0,9,,,,,,,,3,,,,70,64
89856,note_on,6393,0,1,,,,,,,,0,,,,77,64
89856,note_on,1831,0,11,,,,,,,,3,,,,39,64
89879,note_on,23,0,5,,,,,,,,2,,,,77,0
89880,note_on,1,0,5,,,,,,,,2,,,,89,49
89901,note_on,45,0,8,,,,,,,,3,,,,82,0
89901,note_on,45,0,9,,,,,,,,3,,,,70,0
89901,note_on,45,0,6,,,,,,,,2,,,,51,0
89903,note_on,23,0,5,,,,,,,,2,,,,89,0
89904,note_on,3,0,8,,,,,,,,3,,,,81,49
89904,note_on,1,0,5,,,,,,,,2,,,,77,49
89904,note_on,3,0,9,,,,,,,,3,,,,69,49
89904,note_on,3,0,6,,,,,,,,2,,,,53,49
89927,note_on,23,0,5,,,,,,,,2,,,,77,0
89928,note_on,1,0,5,,,,,,,,2,,,,89,49
89945,note_on,89,0,10,,,,,,,,3,,,,60,0
89945,note_on,89,0,11,,,,,,,,3,,,,39,0
89945,note_on,89,0,1,,,,,,,,0,,,,77,0
89945,note_on,89,0,2,,,,,,,,0,,,,77,0
89949,note_on,45,0,8,,,,,,,,3,,,,81,0
89949,note_on,45,0,6,,,,,,,,2,,,,53,0
89949,note_on,45,0,9,,,,,,,,3,,,,69,0
89951,note_on,23,0,5,,,,,,,,2,,,,89,0
89952,note_on,7,0,1,,,,,,,,0,,,,81,49
89952,note_on,3,0,9,,,,,,,,3,,,,67,49
89952,note_on,3,0,6,,,,,,,,2,,,,48,49
89952,note_on,3,0,8,,,,,,,,3,,,,79,49
89952,note_on,7,0,2,,,,,,,,0,,,,75,49
89952,note_on,7,0,11,,,,,,,,3,,,,36,49
89952,note_on,7,0,10,,,,,,,,3,,,,57,49
89952,note_on,1,0,5,,,,,,,,2,,,,77,49
89975,note_on,23,0,5,,,,,,,,2,,,,77,0
89976,note_on,1,0,5,,,,,,,,2,,,,89,49
89997,note_on,45,0,9,,,,,,,,3,,,,67,0
89997,note_on,45,0,6,,,,,,,,2,,,,48,0
89997,note_on,45,0,8,,,,,,,,3,,,,79,0
89999,note_on,23,0,5,,,,,,,,2,,,,89,0
90000,note_on,3,0,6,,,,,,,,2,,,,53,49
90000,note_on,3,0,8,,,,,,,,3,,,,77,49
90000,note_on,3,0,9,,,,,,,,3,,,,65,49
90000,note_on,1,0,5,,,,,,,,2,,,,77,49
90023,note_on,23,0,5,,,,,,,,2,,,,77,0
90024,note_on,1,0,5,,,,,,,,2,,,,89,49
90041,note_on,89,0,11,,,,,,,,3,,,,36,0
90041,note_on,89,0,10,,,,,,,,3,,,,57,0
90041,note_on,89,0,1,,,,,,,,0,,,,81,0
90041,note_on,89,0,2,,,,,,,,0,,,,75,0
90045,note_on,45,0,6,,,,,,,,2,,,,53,0
90045,note_on,45,0,8,,,,,,,,3,,,,77,0
90045,note_on,45,0,9,,,,,,,,3,,,,65,0
90047,note_on,23,0,5,,,,,,,,2,,,,89,0
90048,note_on,7,0,11,,,,,,,,3,,,,38,49
90048,note_on,3,0,8,,,,,,,,3,,,,77,49
90048,note_on,3,0,9,,,,,,,,3,,,,65,49
90048,note_on,7,0,2,,,,,,,,0,,,,74,49
90048,note_on,1,0,5,,,,,,,,2,,,,77,49
90048,note_on,3,0,6,,,,,,,,2,,,,50,49
90048,note_on,7,0,1,,,,,,,,0,,,,82,49
90048,note_on,7,0,10,,,,,,,,3,,,,58,49
90071,note_on,23,0,5,,,,,,,,2,,,,77,0
90072,note_on,1,0,5,,,,,,,,2,,,,89,49
90087,note_on,39,0,10,,,,,,,,3,,,,58,0
90093,note_on,45,0,9,,,,,,,,3,,,,65,0
90093,note_on,45,0,6,,,,,,,,2,,,,50,0
90093,note_on,45,0,8,,,,,,,,3,,,,77,0
90095,note_on,23,0,5,,,,,,,,2,,,,89,0
90096,note_on,3,0,6,,,,,,,,2,,,,53,49
90096,note_on,3,0,8,,,,,,,,3,,,,79,49
90096,note_on,3,0,9,,,,,,,,3,,,,67,49
90096,note_on,1,0,5,,,,,,,,2,,,,77,49
90119,note_on,23,0,5,,,,,,,,2,,,,77,0
90120,note_on,1,0,5,,,,,,,,2,,,,89,49
90121,note_on,265,0,3,,,,,,,,1,,,,65,0
90137,note_on,89,0,2,,,,,,,,0,,,,74,0
90137,note_on,89,0,1,,,,,,,,0,,,,82,0
90137,note_on,89,0,11,,,,,,,,3,,,,38,0
90141,note_on,45,0,8,,,,,,,,3,,,,79,0
90141,note_on,45,0,6,,,,,,,,2,,,,53,0
90141,note_on,45,0,9,,,,,,,,3,,,,67,0
90143,note_on,23,0,5,,,,,,,,2,,,,89,0
90144,note_on,3,0,6,,,,,,,,2,,,,46,49
90144,note_on,3,0,8,,,,,,,,3,,,,81,49
90144,note_on,3,0,9,,,,,,,,3,,,,69,49
90144,note_on,1,0,5,,,,,,,,2,,,,77,49
90144,note_on,7,0,11,,,,,,,,3,,,,34,49
90167,note_on,23,0,5,,,,,,,,2,,,,77,0
90168,note_on,1,0,5,,,,,,,,2,,,,89,49
90189,note_on,45,0,8,,,,,,,,3,,,,81,0
90189,note_on,45,0,9,,,,,,,,3,,,,69,0
90189,note_on,45,0,6,,,,,,,,2,,,,46,0
90191,note_on,23,0,5,,,,,,,,2,,,,89,0
90192,note_on,3,0,8,,,,,,,,3,,,,82,49
90192,note_on,1,0,5,,,,,,,,2,,,,77,49
90192,note_on,3,0,9,,,,,,,,3,,,,70,49
90192,note_on,3,0,6,,,,,,,,2,,,,53,49
90215,note_on,23,0,5,,,,,,,,2,,,,77,0
90216,note_on,1,0,5,,,,,,,,2,,,,89,49
90233,note_on,89,0,11,,,,,,,,3,,,,34,0
90237,note_on,45,0,9,,,,,,,,3,,,,70,0
90237,note_on,45,0,6,,,,,,,,2,,,,53,0
90237,note_on,45,0,8,,,,,,,,3,,,,82,0
90239,note_on,23,0,5,,,,,,,,2,,,,89,0
90240,note_on,103,0,2,,,,,,,,0,,,,77,49
90240,note_on,3,0,6,,,,,,,,2,,,,51,85
90240,note_on,153,0,10,,,,,,,,3,,,,60,64
90240,note_on,7,0,11,,,,,,,,3,,,,39,64
90240,note_on,103,0,1,,,,,,,,0,,,,77,49
90240,note_on,1,0,5,,,,,,,,2,,,,77,85
90240,note_on,119,0,3,,,,,,,,1,,,,65,49
90240,note_on,3,0,9,,,,,,,,3,,,,70,64
90240,note_on,3,0,8,,,,,,,,3,,,,82,64
90263,note_on,23,0,5,,,,,,,,2,,,,77,0
90264,note_on,1,0,5,,,,,,,,2,,,,89,49
90285,note_on,45,0,6,,,,,,,,2,,,,51,0
90285,note_on,45,0,9,,,,,,,,3,,,,70,0
90285,note_on,45,0,8,,,,,,,,3,,,,82,0
90287,note_on,23,0,5,,,,,,,,2,,,,89,0
90288,note_on,1,0,5,,,,,,,,2,,,,77,49
90288,note_on,3,0,9,,,,,,,,3,,,,69,49
90288,note_on,3,0,6,,,,,,,,2,,,,53,49
90288,note_on,3,0,8,,,,,,,,3,,,,81,49
90311,note_on,23,0,5,,,,,,,,2,,,,77,0
90312,note_on,1,0,5,,,,,,,,2,,,,89,49
90329,note_on,89,0,2,,,,,,,,0,,,,77,0
90329,note_on,89,0,10,,,,,,,,3,,,,60,0
90329,note_on,89,0,11,,,,,,,,3,,,,39,0
90329,note_on,89,0,1,,,,,,,,0,,,,77,0
90333,note_on,45,0,6,,,,,,,,2,,,,53,0
90333,note_on,45,0,8,,,,,,,,3,,,,81,0
90333,note_on,45,0,9,,,,,,,,3,,,,69,0
90335,note_on,23,0,5,,,,,,,,2,,,,89,0
90336,note_on,3,0,8,,,,,,,,3,,,,79,49
90336,note_on,7,0,10,,,,,,,,3,,,,57,49
90336,note_on,3,0,9,,,,,,,,3,,,,67,49
90336,note_on,7,0,2,,,,,,,,0,,,,75,49
90336,note_on,7,0,11,,,,,,,,3,,,,36,49
90336,note_on,1,0,5,,,,,,,,2,,,,77,49
90336,note_on,7,0,1,,,,,,,,0,,,,81,49
90336,note_on,3,0,6,,,,,,,,2,,,,48,49
90359,note_on,23,0,5,,,,,,,,2,,,,77,0
90360,note_on,1,0,5,,,,,,,,2,,,,89,49
90381,note_on,45,0,9,,,,,,,,3,,,,67,0
90381,note_on,45,0,6,,,,,,,,2,,,,48,0
90381,note_on,45,0,8,,,,,,,,3,,,,79,0
90383,note_on,23,0,5,,,,,,,,2,,,,89,0
90384,note_on,1,0,5,,,,,,,,2,,,,77,49
90384,note_on,3,0,9,,,,,,,,3,,,,65,49
90384,note_on,3,0,6,,,,,,,,2,,,,53,49
90384,note_on,3,0,8,,,,,,,,3,,,,77,49
90407,note_on,23,0,5,,,,,,,,2,,,,77,0
90408,note_on,1,0,5,,,,,,,,2,,,,89,49
90425,note_on,89,0,10,,,,,,,,3,,,,57,0
90425,note_on,89,0,2,,,,,,,,0,,,,75,0
90425,note_on,89,0,11,,,,,,,,3,,,,36,0
90425,note_on,89,0,1,,,,,,,,0,,,,81,0
90429,note_on,45,0,6,,,,,,,,2,,,,53,0
90429,note_on,45,0,9,,,,,,,,3,,,,65,0
90429,note_on,45,0,8,,,,,,,,3,,,,77,0
90431,note_on,23,0,5,,,,,,,,2,,,,89,0
90432,note_on,7,0,10,,,,,,,,3,,,,58,49
90432,note_on,1,0,5,,,,,,,,2,,,,77,49
90432,note_on,7,0,2,,,,,,,,0,,,,74,49
90432,note_on,3,0,6,,,,,,,,2,,,,50,49
90432,note_on,3,0,9,,,,,,,,3,,,,65,49
90432,note_on,7,0,1,,,,,,,,0,,,,82,49
90432,note_on,3,0,8,,,,,,,,3,,,,77,49
90432,note_on,7,0,11,,,,,,,,3,,,,38,49
90455,note_on,23,0,5,,,,,,,,2,,,,77,0
90456,note_on,1,0,5,,,,,,,,2,,,,89,49
90471,note_on,39,0,10,,,,,,,,3,,,,58,0
90477,note_on,45,0,8,,,,,,,,3,,,,77,0
90477,note_on,45,0,6,,,,,,,,2,,,,50,0
90477,note_on,45,0,9,,,,,,,,3,,,,65,0
90479,note_on,23,0,5,,,,,,,,2,,,,89,0
90480,note_on,3,0,8,,,,,,,,3,,,,79,49
90480,note_on,3,0,6,,,,,,,,2,,,,53,49
90480,note_on,1,0,5,,,,,,,,2,,,,77,49
90480,note_on,3,0,9,,,,,,,,3,,,,67,49
90503,note_on,23,0,5,,,,,,,,2,,,,77,0
90504,note_on,1,0,5,,,,,,,,2,,,,89,49
90505,note_on,265,0,3,,,,,,,,1,,,,65,0
90521,note_on,89,0,1,,,,,,,,0,,,,82,0
90521,note_on,89,0,2,,,,,,,,0,,,,74,0
90521,note_on,89,0,11,,,,,,,,3,,,,38,0
90525,note_on,45,0,6,,,,,,,,2,,,,53,0
90525,note_on,45,0,9,,,,,,,,3,,,,67,0
90525,note_on,45,0,8,,,,,,,,3,,,,79,0
90527,note_on,23,0,5,,,,,,,,2,,,,89,0
90528,note_on,1,0,5,,,,,,,,2,,,,77,49
90528,note_on,3,0,6,,,,,,,,2,,,,46,49
90528,note_on,3,0,9,,,,,,,,3,,,,69,49
90528,note_on,3,0,8,,,,,,,,3,,,,81,49
90528,note_on,7,0,11,,,,,,,,3,,,,34,49
90551,note_on,23,0,5,,,,,,,,2,,,,77,0
90552,note_on,1,0,5,,,,,,,,2,,,,89,49
90573,note_on,45,0,9,,,,,,,,3,,,,69,0
90573,note_on,45,0,8,,,,,,,,3,,,,81,0
90573,note_on,45,0,6,,,,,,,,2,,,,46,0
90575,note_on,23,0,5,,,,,,,,2,,,,89,0
90576,note_on,3,0,9,,,,,,,,3,,,,70,49
90576,note_on,3,0,6,,,,,,,,2,,,,53,49
90576,note_on,1,0,5,,,,,,,,2,,,,77,49
90576,note_on,3,0,8,,,,,,,,3,,,,82,49
90599,note_on,23,0,5,,,,,,,,2,,,,77,0
90600,note_on,1,0,5,,,,,,,,2,,,,89,49
90617,note_on,89,0,11,,,,,,,,3,,,,34,0
90621,note_on,45,0,6,,,,,,,,2,,,,53,0
90621,note_on,45,0,8,,,,,,,,3,,,,82,0
90621,note_on,45,0,9,,,,,,,,3,,,,70,0
90623,note_on,23,0,5,,,,,,,,2,,,,89,0
90624,note_on,3,0,8,,,,,,,,3,,,,82,64
90624,note_on,103,0,2,,,,,,,,0,,,,77,49
90624,note_on,119,0,3,,,,,,,,1,,,,65,49
90624,note_on,7,0,11,,,,,,,,3,,,,39,64
90624,note_on,153,0,10,,,,,,,,3,,,,60,64
90624,note_on,103,0,1,,,,,,,,0,,,,77,49
90624,note_on,1,0,5,,,,,,,,2,,,,77,85
90624,note_on,3,0,6,,,,,,,,2,,,,51,85
90624,note_on,3,0,9,,,,,,,,3,,,,70,64
90647,note_on,23,0,5,,,,,,,,2,,,,77,0
90648,note_on,1,0,5,,,,,,,,2,,,,89,49
90669,note_on,45,0,8,,,,,,,,3,,,,82,0
90669,note_on,45,0,9,,,,,,,,3,,,,70,0
90669,note_on,45,0,6,,,,,,,,2,,,,51,0
90671,note_on,23,0,5,,,,,,,,2,,,,89,0
90672,note_on,3,0,9,,,,,,,,3,,,,69,49
90672,note_on,3,0,8,,,,,,,,3,,,,81,49
90672,note_on,3,0,6,,,,,,,,2,,,,53,49
90672,note_on,1,0,5,,,,,,,,2,,,,77,49
90695,note_on,23,0,5,,,,,,,,2,,,,77,0
90696,note_on,1,0,5,,,,,,,,2,,,,89,49
90713,note_on,89,0,10,,,,,,,,3,,,,60,0
90713,note_on,89,0,11,,,,,,,,3,,,,39,0
90713,note_on,89,0,2,,,,,,,,0,,,,77,0
90713,note_on,89,0,1,,,,,,,,0,,,,77,0
90717,note_on,45,0,6,,,,,,,,2,,,,53,0
90717,note_on,45,0,9,,,,,,,,3,,,,69,0
90717,note_on,45,0,8,,,,,,,,3,,,,81,0
90719,note_on,23,0,5,,,,,,,,2,,,,89,0
90720,note_on,3,0,9,,,,,,,,3,,,,67,49
90720,note_on,7,0,11,,,,,,,,3,,,,36,49
90720,note_on,3,0,8,,,,,,,,3,,,,79,49
90720,note_on,7,0,10,,,,,,,,3,,,,57,49
90720,note_on,7,0,2,,,,,,,,0,,,,75,49
90720,note_on,7,0,1,,,,,,,,0,,,,81,49
90720,note_on,3,0,6,,,,,,,,2,,,,48,49
90720,note_on,1,0,5,,,,,,,,2,,,,77,49
90743,note_on,23,0,5,,,,,,,,2,,,,77,0
90744,note_on,1,0,5,,,,,,,,2,,,,89,49
90765,note_on,45,0,8,,,,,,,,3,,,,79,0
90765,note_on,45,0,9,,,,,,,,3,,,,67,0
90765,note_on,45,0,6,,,,,,,,2,,,,48,0
90767,note_on,23,0,5,,,,,,,,2,,,,89,0
90768,note_on,1,0,5,,,,,,,,2,,,,77,49
90768,note_on,3,0,8,,,,,,,,3,,,,77,49
90768,note_on,3,0,9,,,,,,,,3,,,,65,49
90768,note_on,3,0,6,,,,,,,,2,,,,53,49
90791,note_on,23,0,5,,,,,,,,2,,,,77,0
90792,note_on,1,0,5,,,,,,,,2,,,,89,49
90809,note_on,89,0,2,,,,,,,,0,,,,75,0
90809,note_on,89,0,1,,,,,,,,0,,,,81,0
90809,note_on,89,0,10,,,,,,,,3,,,,57,0
90809,note_on,89,0,11,,,,,,,,3,,,,36,0
90813,note_on,45,0,9,,,,,,,,3,,,,65,0
90813,note_on,45,0,6,,,,,,,,2,,,,53,0
90813,note_on,45,0,8,,,,,,,,3,,,,77,0
90815,note_on,23,0,5,,,,,,,,2,,,,89,0
90816,note_on,7,0,1,,,,,,,,0,,,,82,49
90816,note_on,3,0,6,,,,,,,,2,,,,50,49
90816,note_on,7,0,10,,,,,,,,3,,,,58,49
90816,note_on,3,0,9,,,,,,,,3,,,,70,49
90816,note_on,1,0,5,,,,,,,,2,,,,77,49
90816,note_on,7,0,2,,,,,,,,0,,,,74,49
90816,note_on,7,0,11,,,,,,,,3,,,,38,49
90816,note_on,3,0,8,,,,,,,,3,,,,82,49
90839,note_on,23,0,5,,,,,,,,2,,,,77,0
90840,note_on,1,0,5,,,,,,,,2,,,,89,49
90855,note_on,39,0,10,,,,,,,,3,,,,58,0
90861,note_on,45,0,8,,,,,,,,3,,,,82,0
90861,note_on,45,0,9,,,,,,,,3,,,,70,0
90861,note_on,45,0,6,,,,,,,,2,,,,50,0
90863,note_on,23,0,5,,,,,,,,2,,,,89,0
90864,note_on,3,0,6,,,,,,,,2,,,,53,49
90864,note_on,3,0,8,,,,,,,,3,,,,77,49
90864,note_on,1,0,5,,,,,,,,2,,,,77,49
90864,note_on,3,0,9,,,,,,,,3,,,,65,49
90887,note_on,23,0,5,,,,,,,,2,,,,77,0
90888,note_on,1,0,5,,,,,,,,2,,,,89,49
90889,note_on,265,0,3,,,,,,,,1,,,,65,0
90905,note_on,89,0,11,,,,,,,,3,,,,38,0
90905,note_on,89,0,1,,,,,,,,0,,,,82,0
90905,note_on,89,0,2,,,,,,,,0,,,,74,0
90909,note_on,45,0,8,,,,,,,,3,,,,77,0
90909,note_on,45,0,6,,,,,,,,2,,,,53,0
90909,note_on,45,0,9,,,,,,,,3,,,,65,0
90911,note_on,23,0,5,,,,,,,,2,,,,89,0
90912,note_on,7,0,2,,,,,,,,0,,,,74,49
90912,note_on,7,0,11,,,,,,,,3,,,,34,49
90912,note_on,3,0,6,,,,,,,,2,,,,46,49
90912,note_on,57,0,10,,,,,,,,3,,,,70,49
90912,note_on,1,0,5,,,,,,,,2,,,,77,49
90912,note_on,7,0,1,,,,,,,,0,,,,77,49
90912,note_on,3,0,8,,,,,,,,3,,,,74,49
90912,note_on,3,0,9,,,,,,,,3,,,,62,49
90935,note_on,23,0,5,,,,,,,,2,,,,77,0
90936,note_on,1,0,5,,,,,,,,2,,,,89,49
90951,note_on,39,0,10,,,,,,,,3,,,,70,0
90957,note_on,45,0,9,,,,,,,,3,,,,62,0
90957,note_on,45,0,6,,,,,,,,2,,,,46,0
90957,note_on,45,0,8,,,,,,,,3,,,,74,0
90959,note_on,23,0,5,,,,,,,,2,,,,89,0
90960,note_on,3,0,9,,,,,,,,3,,,,65,49
90960,note_on,3,0,8,,,,,,,,3,,,,77,49
90960,note_on,3,0,6,,,,,,,,2,,,,53,49
90960,note_on,1,0,5,,,,,,,,2,,,,77,49
90983,note_on,23,0,5,,,,,,,,2,,,,77,0
90984,note_on,1,0,5,,,,,,,,2,,,,89,49
91001,note_on,89,0,1,,,,,,,,0,,,,77,0
91001,note_on,89,0,2,,,,,,,,0,,,,74,0
91001,note_on,89,0,11,,,,,,,,3,,,,34,0
91005,note_on,45,0,6,,,,,,,,2,,,,53,0
91005,note_on,45,0,9,,,,,,,,3,,,,65,0
91005,note_on,45,0,8,,,,,,,,3,,,,77,0
91007,note_on,23,0,5,,,,,,,,2,,,,89,0
91008,note_on,1,0,5,,,,,,,,2,,,,81,49
91008,note_on,7,0,2,,,,,,,,0,,,,69,49
91008,note_on,7,0,11,,,,,,,,3,,,,36,49
91008,note_on,57,0,10,,,,,,,,3,,,,69,49
91008,note_on,3,0,6,,,,,,,,2,,,,48,49
91008,note_on,7,0,1,,,,,,,,0,,,,75,49
91008,note_on,3,0,8,,,,,,,,3,,,,75,49
91008,note_on,3,0,9,,,,,,,,3,,,,63,49
91097,note_on,89,0,1,,,,,,,,0,,,,75,0
91097,note_on,89,0,5,,,,,,,,2,,,,81,0
91097,note_on,89,0,8,,,,,,,,3,,,,75,0
91097,note_on,89,0,6,,,,,,,,2,,,,48,0
91097,note_on,89,0,10,,,,,,,,3,,,,69,0
91097,note_on,89,0,11,,,,,,,,3,,,,36,0
91097,note_on,89,0,2,,,,,,,,0,,,,69,0
91097,note_on,89,0,9,,,,,,,,3,,,,63,0
91200,note_on,103,0,6,,,,,,,,2,,,,69,49
91200,note_on,103,0,5,,,,,,,,2,,,,72,49
91213,note_on,13,0,5,,,,,,,,2,,,,72,0
91232,note_on,19,0,5,,,,,,,,2,,,,75,49
91245,note_on,13,0,5,,,,,,,,2,,,,75,0
91264,note_on,19,0,5,,,,,,,,2,,,,72,49
91277,note_on,13,0,5,,,,,,,,2,,,,72,0
91289,note_on,89,0,6,,,,,,,,2,,,,69,0
91296,note_on,7,0,6,,,,,,,,2,,,,71,49
91296,note_on,19,0,5,,,,,,,,2,,,,74,49
91309,note_on,13,0,5,,,,,,,,2,,,,74,0
91328,note_on,19,0,5,,,,,,,,2,,,,77,49
91341,note_on,13,0,5,,,,,,,,2,,,,77,0
91360,note_on,19,0,5,,,,,,,,2,,,,74,49
91373,note_on,13,0,5,,,,,,,,2,,,,74,0
91385,note_on,89,0,6,,,,,,,,2,,,,71,0
91392,note_on,19,0,5,,,,,,,,2,,,,75,49
91392,note_on,7,0,6,,,,,,,,2,,,,72,49
91422,note_on,30,0,5,,,,,,,,2,,,,75,0
91424,note_on,2,0,5,,,,,,,,2,,,,79,49
91454,note_on,30,0,5,,,,,,,,2,,,,79,0
91456,note_on,2,0,5,,,,,,,,2,,,,77,49
91481,note_on,89,0,6,,,,,,,,2,,,,72,0
91486,note_on,30,0,5,,,,,,,,2,,,,77,0
91488,note_on,2,0,5,,,,,,,,2,,,,75,49
91518,note_on,30,0,5,,,,,,,,2,,,,75,0
91520,note_on,2,0,5,,,,,,,,2,,,,77,49
91550,note_on,30,0,5,,,,,,,,2,,,,77,0
91552,note_on,2,0,5,,,,,,,,2,,,,79,49
91582,note_on,30,0,5,,,,,,,,2,,,,79,0
91584,note_on,103,0,6,,,,,,,,2,,,,67,49
91584,note_on,2,0,5,,,,,,,,2,,,,70,49
91597,note_on,13,0,5,,,,,,,,2,,,,70,0
91616,note_on,19,0,5,,,,,,,,2,,,,74,49
91629,note_on,13,0,5,,,,,,,,2,,,,74,0
91648,note_on,19,0,5,,,,,,,,2,,,,70,49
91661,note_on,13,0,5,,,,,,,,2,,,,70,0
91673,note_on,89,0,6,,,,,,,,2,,,,67,0
91680,note_on,19,0,5,,,,,,,,2,,,,72,49
91680,note_on,7,0,6,,,,,,,,2,,,,69,49
91693,note_on,13,0,5,,,,,,,,2,,,,72,0
91712,note_on,19,0,5,,,,,,,,2,,,,75,49
91725,note_on,13,0,5,,,,,,,,2,,,,75,0
91744,note_on,19,0,5,,,,,,,,2,,,,72,49
91757,note_on,13,0,5,,,,,,,,2,,,,72,0
91769,note_on,89,0,6,,,,,,,,2,,,,69,0
91776,note_on,7,0,6,,,,,,,,2,,,,70,49
91776,note_on,19,0,5,,,,,,,,2,,,,74,49
91806,note_on,30,0,5,,,,,,,,2,,,,74,0
91808,note_on,2,0,5,,,,,,,,2,,,,77,49
91838,note_on,30,0,5,,,,,,,,2,,,,77,0
91840,note_on,2,0,5,,,,,,,,2,,,,75,49
91865,note_on,89,0,6,,,,,,,,2,,,,70,0
91870,note_on,30,0,5,,,,,,,,2,,,,75,0
91872,note_on,2,0,5,,,,,,,,2,,,,74,49
91902,note_on,30,0,5,,,,,,,,2,,,,74,0
91904,note_on,2,0,5,,,,,,,,2,,,,75,49
91934,note_on,30,0,5,,,,,,,,2,,,,75,0
91936,note_on,2,0,5,,,,,,,,2,,,,77,49
91966,note_on,30,0,5,,,,,,,,2,,,,77,0
91968,note_on,2,0,5,,,,,,,,2,,,,69,49
91968,note_on,103,0,6,,,,,,,,2,,,,60,49
91981,note_on,13,0,5,,,,,,,,2,,,,69,0
92000,note_on,19,0,5,,,,,,,,2,,,,72,49
92013,note_on,13,0,5,,,,,,,,2,,,,72,0
92032,note_on,19,0,5,,,,,,,,2,,,,69,49
92045,note_on,13,0,5,,,,,,,,2,,,,69,0
92057,note_on,89,0,6,,,,,,,,2,,,,60,0
92064,note_on,7,0,6,,,,,,,,2,,,,62,49
92064,note_on,19,0,5,,,,,,,,2,,,,70,49
92077,note_on,13,0,5,,,,,,,,2,,,,70,0
92096,note_on,19,0,5,,,,,,,,2,,,,74,49
92109,note_on,13,0,5,,,,,,,,2,,,,74,0
92128,note_on,19,0,5,,,,,,,,2,,,,70,49
92141,note_on,13,0,5,,,,,,,,2,,,,70,0
92153,note_on,89,0,6,,,,,,,,2,,,,62,0
92160,note_on,7,0,6,,,,,,,,2,,,,63,49
92160,note_on,19,0,5,,,,,,,,2,,,,72,49
92190,note_on,30,0,5,,,,,,,,2,,,,72,0
92192,note_on,2,0,5,,,,,,,,2,,,,75,49
92222,note_on,30,0,5,,,,,,,,2,,,,75,0
92224,note_on,2,0,5,,,,,,,,2,,,,74,49
92249,note_on,89,0,6,,,,,,,,2,,,,63,0
92254,note_on,30,0,5,,,,,,,,2,,,,74,0
92256,note_on,2,0,5,,,,,,,,2,,,,72,49
92286,note_on,30,0,5,,,,,,,,2,,,,72,0
92288,note_on,2,0,5,,,,,,,,2,,,,74,49
92318,note_on,30,0,5,,,,,,,,2,,,,74,0
92320,note_on,2,0,5,,,,,,,,2,,,,75,49
92350,note_on,30,0,5,,,,,,,,2,,,,75,0
92352,note_on,2,0,5,,,,,,,,2,,,,67,49
92352,note_on,0,0,6,,,,,,,,2,,,,51,49
92352,note_on,103,0,6,,,,,,,,2,,,,58,49
92365,note_on,13,0,5,,,,,,,,2,,,,67,0
92384,note_on,19,0,5,,,,,,,,2,,,,70,49
92397,note_on,13,0,5,,,,,,,,2,,,,70,0
92416,note_on,19,0,5,,,,,,,,2,,,,67,49
92429,note_on,13,0,5,,,,,,,,2,,,,67,0
92441,note_on,89,0,6,,,,,,,,2,,,,51,0
92441,note_on,0,0,6,,,,,,,,2,,,,58,0
92448,note_on,19,0,5,,,,,,,,2,,,,69,49
92448,note_on,0,0,6,,,,,,,,2,,,,53,49
92448,note_on,7,0,6,,,,,,,,2,,,,63,49
92461,note_on,13,0,5,,,,,,,,2,,,,69,0
92480,note_on,19,0,5,,,,,,,,2,,,,72,49
92493,note_on,13,0,5,,,,,,,,2,,,,72,0
92512,note_on,19,0,5,,,,,,,,2,,,,69,49
92525,note_on,13,0,5,,,,,,,,2,,,,69,0
92537,note_on,0,0,6,,,,,,,,2,,,,63,0
92537,note_on,89,0,6,,,,,,,,2,,,,53,0
92544,note_on,19,0,5,,,,,,,,2,,,,70,49
92544,note_on,7,0,6,,,,,,,,2,,,,58,49
92564,note_on,20,0,6,,,,,,,,2,,,,58,0
92592,note_on,28,0,6,,,,,,,,2,,,,62,49
92612,note_on,20,0,6,,,,,,,,2,,,,62,0
92633,note_on,89,0,5,,,,,,,,2,,,,70,0
92640,note_on,28,0,6,,,,,,,,2,,,,58,49
92660,note_on,20,0,6,,,,,,,,2,,,,58,0
92688,note_on,28,0,6,,,,,,,,2,,,,62,49
92708,note_on,20,0,6,,,,,,,,2,,,,62,0
92736,note_on,103,0,5,,,,,,,,2,,,,70,49
92736,note_on,28,0,6,,,,,,,,2,,,,58,49
92756,note_on,20,0,6,,,,,,,,2,,,,58,0
92781,note_on,45,0,5,,,,,,,,2,,,,70,0
92784,note_on,3,0,5,,,,,,,,2,,,,72,49
92784,note_on,28,0,6,,,,,,,,2,,,,62,49
92804,note_on,20,0,6,,,,,,,,2,,,,62,0
92829,note_on,45,0,5,,,,,,,,2,,,,72,0
92832,note_on,28,0,6,,,,,,,,2,,,,58,49
92832,note_on,3,0,5,,,,,,,,2,,,,70,49
92852,note_on,20,0,6,,,,,,,,2,,,,58,0
92877,note_on,45,0,5,,,,,,,,2,,,,70,0
92880,note_on,28,0,6,,,,,,,,2,,,,62,49
92880,note_on,3,0,5,,,,,,,,2,,,,72,49
92900,note_on,20,0,6,,,,,,,,2,,,,62,0
92925,note_on,45,0,5,,,,,,,,2,,,,72,0
92928,note_on,28,0,6,,,,,,,,2,,,,58,49
92928,note_on,3,0,5,,,,,,,,2,,,,69,49
92948,note_on,20,0,6,,,,,,,,2,,,,58,0
92976,note_on,28,0,6,,,,,,,,2,,,,60,49
92996,note_on,20,0,6,,,,,,,,2,,,,60,0
93017,note_on,89,0,5,,,,,,,,2,,,,69,0
93024,note_on,28,0,6,,,,,,,,2,,,,58,49
93044,note_on,20,0,6,,,,,,,,2,,,,58,0
93072,note_on,28,0,6,,,,,,,,2,,,,60,49
93092,note_on,20,0,6,,,,,,,,2,,,,60,0
93120,note_on,103,0,5,,,,,,,,2,,,,69,49
93120,note_on,28,0,6,,,,,,,,2,,,,58,49
93140,note_on,20,0,6,,,,,,,,2,,,,58,0
93165,note_on,45,0,5,,,,,,,,2,,,,69,0
93168,note_on,3,0,5,,,,,,,,2,,,,70,49
93168,note_on,28,0,6,,,,,,,,2,,,,63,49
93188,note_on,20,0,6,,,,,,,,2,,,,63,0
93213,note_on,45,0,5,,,,,,,,2,,,,70,0
93216,note_on,28,0,6,,,,,,,,2,,,,58,49
93216,note_on,3,0,5,,,,,,,,2,,,,69,49
93236,note_on,20,0,6,,,,,,,,2,,,,58,0
93261,note_on,45,0,5,,,,,,,,2,,,,69,0
93264,note_on,28,0,6,,,,,,,,2,,,,63,49
93264,note_on,3,0,5,,,,,,,,2,,,,70,49
93284,note_on,20,0,6,,,,,,,,2,,,,63,0
93309,note_on,45,0,5,,,,,,,,2,,,,70,0
93312,note_on,28,0,6,,,,,,,,2,,,,58,49
93312,note_on,3,0,5,,,,,,,,2,,,,68,49
93332,note_on,20,0,6,,,,,,,,2,,,,58,0
93360,note_on,28,0,6,,,,,,,,2,,,,62,49
93380,note_on,20,0,6,,,,,,,,2,,,,62,0
93401,note_on,89,0,5,,,,,,,,2,,,,68,0
93408,note_on,28,0,6,,,,,,,,2,,,,58,49
93428,note_on,20,0,6,,,,,,,,2,,,,58,0
93456,note_on,28,0,6,,,,,,,,2,,,,62,49
93476,note_on,20,0,6,,,,,,,,2,,,,62,0
93504,note_on,28,0,6,,,,,,,,2,,,,58,49
93504,note_on,103,0,5,,,,,,,,2,,,,68,49
93524,note_on,20,0,6,,,,,,,,2,,,,58,0
93549,note_on,45,0,5,,,,,,,,2,,,,68,0
93552,note_on,3,0,5,,,,,,,,2,,,,70,49
93552,note_on,28,0,6,,,,,,,,2,,,,65,49
93572,note_on,20,0,6,,,,,,,,2,,,,65,0
93597,note_on,45,0,5,,,,,,,,2,,,,70,0
93600,note_on,3,0,5,,,,,,,,2,,,,68,49
93600,note_on,28,0,6,,,,,,,,2,,,,58,49
93620,note_on,20,0,6,,,,,,,,2,,,,58,0
93645,note_on,45,0,5,,,,,,,,2,,,,68,0
93648,note_on,28,0,6,,,,,,,,2,,,,65,49
93648,note_on,3,0,5,,,,,,,,2,,,,70,49
93668,note_on,20,0,6,,,,,,,,2,,,,65,0
93693,note_on,45,0,5,,,,,,,,2,,,,70,0
93696,note_on,28,0,6,,,,,,,,2,,,,63,49
93696,note_on,3,0,5,,,,,,,,2,,,,67,49
93716,note_on,20,0,6,,,,,,,,2,,,,63,0
93726,note_on,30,0,5,,,,,,,,2,,,,67,0
93728,note_on,2,0,5,,,,,,,,2,,,,70,49
93744,note_on,28,0,6,,,,,,,,2,,,,58,49
93758,note_on,30,0,5,,,,,,,,2,,,,70,0
93760,note_on,2,0,5,,,,,,,,2,,,,75,49
93764,note_on,20,0,6,,,,,,,,2,,,,58,0
93790,note_on,30,0,5,,,,,,,,2,,,,75,0
93792,note_on,28,0,6,,,,,,,,2,,,,63,49
93792,note_on,2,0,5,,,,,,,,2,,,,79,49
93812,note_on,20,0,6,,,,,,,,2,,,,63,0
93822,note_on,30,0,5,,,,,,,,2,,,,79,0
93824,note_on,2,0,5,,,,,,,,2,,,,75,49
93840,note_on,28,0,6,,,,,,,,2,,,,58,49
93854,note_on,30,0,5,,,,,,,,2,,,,75,0
93856,note_on,2,0,5,,,,,,,,2,,,,70,49
93860,note_on,20,0,6,,,,,,,,2,,,,58,0
93886,note_on,30,0,5,,,,,,,,2,,,,70,0
93888,note_on,2,0,5,,,,,,,,2,,,,67,49
93888,note_on,28,0,6,,,,,,,,2,,,,63,49
93908,note_on,20,0,6,,,,,,,,2,,,,63,0
93918,note_on,30,0,5,,,,,,,,2,,,,67,0
93920,note_on,2,0,5,,,,,,,,2,,,,70,49
93936,note_on,28,0,6,,,,,,,,2,,,,58,49
93950,note_on,30,0,5,,,,,,,,2,,,,70,0
93952,note_on,2,0,5,,,,,,,,2,,,,67,49
93956,note_on,20,0,6,,,,,,,,2,,,,58,0
93982,note_on,30,0,5,,,,,,,,2,,,,67,0
93984,note_on,2,0,5,,,,,,,,2,,,,69,49
93984,note_on,28,0,6,,,,,,,,2,,,,60,49
94004,note_on,20,0,6,,,,,,,,2,,,,60,0
94014,note_on,30,0,5,,,,,,,,2,,,,69,0
94016,note_on,2,0,5,,,,,,,,2,,,,72,49
94032,note_on,28,0,6,,,,,,,,2,,,,58,49
94046,note_on,30,0,5,,,,,,,,2,,,,72,0
94048,note_on,2,0,5,,,,,,,,2,,,,69,49
94052,note_on,20,0,6,,,,,,,,2,,,,58,0
94078,note_on,30,0,5,,,,,,,,2,,,,69,0
94080,note_on,2983,0,9,,,,,,,,3,,,,70,49
94080,note_on,2983,0,11,,,,,,,,3,,,,46,49
94080,note_on,2,0,5,,,,,,,,2,,,,70,49
94080,note_on,2983,0,10,,,,,,,,3,,,,62,49
94080,note_on,28,0,6,,,,,,,,2,,,,58,49
94080,note_on,2983,0,8,,,,,,,,3,,,,82,49
94110,note_on,30,0,6,,,,,,,,2,,,,58,0
94112,note_on,2,0,6,,,,,,,,2,,,,62,49
94142,note_on,30,0,6,,,,,,,,2,,,,62,0
94144,note_on,2,0,6,,,,,,,,2,,,,65,49
94169,note_on,89,0,5,,,,,,,,2,,,,70,0
94174,note_on,30,0,6,,,,,,,,2,,,,65,0
94176,note_on,2,0,6,,,,,,,,2,,,,58,49
94206,note_on,30,0,6,,,,,,,,2,,,,58,0
94208,note_on,2,0,6,,,,,,,,2,,,,62,49
94238,note_on,30,0,6,,,,,,,,2,,,,62,0
94240,note_on,2,0,6,,,,,,,,2,,,,65,49
94270,note_on,30,0,6,,,,,,,,2,,,,65,0
94272,note_on,2,0,6,,,,,,,,2,,,,58,49
94272,note_on,103,0,5,,,,,,,,2,,,,82,49
94302,note_on,30,0,6,,,,,,,,2,,,,58,0
94304,note_on,2,0,6,,,,,,,,2,,,,62,49
94317,note_on,45,0,5,,,,,,,,2,,,,82,0
94320,note_on,3,0,5,,,,,,,,2,,,,84,49
94334,note_on,30,0,6,,,,,,,,2,,,,62,0
94336,note_on,2,0,6,,,,,,,,2,,,,65,49
94365,note_on,45,0,5,,,,,,,,2,,,,84,0
94366,note_on,30,0,6,,,,,,,,2,,,,65,0
94368,note_on,2,0,6,,,,,,,,2,,,,58,49
94368,note_on,3,0,5,,,,,,,,2,,,,82,49
94398,note_on,30,0,6,,,,,,,,2,,,,58,0
94400,note_on,2,0,6,,,,,,,,2,,,,62,49
94413,note_on,45,0,5,,,,,,,,2,,,,82,0
94416,note_on,3,0,5,,,,,,,,2,,,,84,49
94430,note_on,30,0,6,,,,,,,,2,,,,62,0
94432,note_on,2,0,6,,,,,,,,2,,,,65,49
94434,note_on,354,0,8,,,,,,,,3,,,,82,0
94434,note_on,354,0,10,,,,,,,,3,,,,62,0
94434,note_on,354,0,9,,,,,,,,3,,,,70,0
94461,note_on,45,0,5,,,,,,,,2,,,,84,0
94462,note_on,30,0,6,,,,,,,,2,,,,65,0
94464,note_on,30,0,9,,,,,,,,3,,,,72,49
94464,note_on,3,0,5,,,,,,,,2,,,,81,49
94464,note_on,30,0,8,,,,,,,,3,,,,81,49
94464,note_on,2,0,6,,,,,,,,2,,,,58,49
94464,note_on,30,0,10,,,,,,,,3,,,,63,49
94494,note_on,30,0,6,,,,,,,,2,,,,58,0
94496,note_on,2,0,6,,,,,,,,2,,,,60,49
94526,note_on,30,0,6,,,,,,,,2,,,,60,0
94528,note_on,2,0,6,,,,,,,,2,,,,63,49
94553,note_on,89,0,5,,,,,,,,2,,,,81,0
94558,note_on,30,0,6,,,,,,,,2,,,,63,0
94560,note_on,2,0,6,,,,,,,,2,,,,58,49
94590,note_on,30,0,6,,,,,,,,2,,,,58,0
94592,note_on,2,0,6,,,,,,,,2,,,,60,49
94622,note_on,30,0,6,,,,,,,,2,,,,60,0
94624,note_on,2,0,6,,,,,,,,2,,,,63,49
94654,note_on,30,0,6,,,,,,,,2,,,,63,0
94656,note_on,103,0,5,,,,,,,,2,,,,81,49
94656,note_on,2,0,6,,,,,,,,2,,,,58,49
94686,note_on,30,0,6,,,,,,,,2,,,,58,0
94688,note_on,2,0,6,,,,,,,,2,,,,60,49
94701,note_on,45,0,5,,,,,,,,2,,,,81,0
94704,note_on,3,0,5,,,,,,,,2,,,,82,49
94718,note_on,30,0,6,,,,,,,,2,,,,60,0
94720,note_on,2,0,6,,,,,,,,2,,,,58,49
94749,note_on,45,0,5,,,,,,,,2,,,,82,0
94750,note_on,30,0,6,,,,,,,,2,,,,58,0
94752,note_on,2,0,6,,,,,,,,2,,,,58,49
94752,note_on,3,0,5,,,,,,,,2,,,,81,49
94782,note_on,30,0,6,,,,,,,,2,,,,58,0
94784,note_on,2,0,6,,,,,,,,2,,,,60,49
94797,note_on,45,0,5,,,,,,,,2,,,,81,0
94800,note_on,3,0,5,,,,,,,,2,,,,82,49
94814,note_on,30,0,6,,,,,,,,2,,,,60,0
94816,note_on,2,0,6,,,,,,,,2,,,,63,49
94818,note_on,354,0,8,,,,,,,,3,,,,81,0
94818,note_on,354,0,9,,,,,,,,3,,,,72,0
94818,note_on,354,0,10,,,,,,,,3,,,,63,0
94845,note_on,45,0,5,,,,,,,,2,,,,82,0
94846,note_on,30,0,6,,,,,,,,2,,,,63,0
94848,note_on,30,0,8,,,,,,,,3,,,,80,49
94848,note_on,30,0,9,,,,,,,,3,,,,74,49
94848,note_on,2,0,6,,,,,,,,2,,,,58,49
94848,note_on,30,0,10,,,,,,,,3,,,,65,49
94848,note_on,3,0,5,,,,,,,,2,,,,80,49
94878,note_on,30,0,6,,,,,,,,2,,,,58,0
94880,note_on,2,0,6,,,,,,,,2,,,,62,49
94910,note_on,30,0,6,,,,,,,,2,,,,62,0
94912,note_on,2,0,6,,,,,,,,2,,,,65,49
94937,note_on,89,0,5,,,,,,,,2,,,,80,0
94942,note_on,30,0,6,,,,,,,,2,,,,65,0
94944,note_on,2,0,6,,,,,,,,2,,,,58,49
94974,note_on,30,0,6,,,,,,,,2,,,,58,0
94976,note_on,2,0,6,,,,,,,,2,,,,62,49
95006,note_on,30,0,6,,,,,,,,2,,,,62,0
95008,note_on,2,0,6,,,,,,,,2,,,,65,49
95038,note_on,30,0,6,,,,,,,,2,,,,65,0
95040,note_on,103,0,5,,,,,,,,2,,,,80,49
95040,note_on,2,0,6,,,,,,,,2,,,,58,49
95070,note_on,30,0,6,,,,,,,,2,,,,58,0
95072,note_on,2,0,6,,,,,,,,2,,,,62,49
95085,note_on,45,0,5,,,,,,,,2,,,,80,0
95088,note_on,3,0,5,,,,,,,,2,,,,82,49
95102,note_on,30,0,6,,,,,,,,2,,,,62,0
95104,note_on,2,0,6,,,,,,,,2,,,,65,49
95133,note_on,45,0,5,,,,,,,,2,,,,82,0
95134,note_on,30,0,6,,,,,,,,2,,,,65,0
95136,note_on,2,0,6,,,,,,,,2,,,,58,49
95136,note_on,3,0,5,,,,,,,,2,,,,80,49
95166,note_on,30,0,6,,,,,,,,2,,,,58,0
95168,note_on,2,0,6,,,,,,,,2,,,,62,49
95181,note_on,45,0,5,,,,,,,,2,,,,80,0
95184,note_on,3,0,5,,,,,,,,2,,,,82,49
95198,note_on,30,0,6,,,,,,,,2,,,,62,0
95200,note_on,2,0,6,,,,,,,,2,,,,65,49
95202,note_on,354,0,8,,,,,,,,3,,,,80,0
95202,note_on,354,0,9,,,,,,,,3,,,,74,0
95202,note_on,354,0,10,,,,,,,,3,,,,65,0
95229,note_on,45,0,5,,,,,,,,2,,,,82,0
95230,note_on,30,0,6,,,,,,,,2,,,,65,0
95232,note_on,30,0,9,,,,,,,,3,,,,75,49
95232,note_on,30,0,10,,,,,,,,3,,,,58,49
95232,note_on,30,0,8,,,,,,,,3,,,,79,49
95232,note_on,3,0,5,,,,,,,,2,,,,79,49
95232,note_on,2,0,6,,,,,,,,2,,,,58,49
95255,note_on,23,0,5,,,,,,,,2,,,,79,0
95256,note_on,1,0,5,,,,,,,,2,,,,87,49
95262,note_on,30,0,6,,,,,,,,2,,,,58,0
95264,note_on,2,0,6,,,,,,,,2,,,,63,49
95294,note_on,30,0,6,,,,,,,,2,,,,63,0
95296,note_on,2,0,6,,,,,,,,2,,,,67,49
95323,note_on,67,0,5,,,,,,,,2,,,,87,0
95326,note_on,30,0,6,,,,,,,,2,,,,67,0
95328,note_on,5,0,5,,,,,,,,2,,,,86,49
95328,note_on,2,0,6,,,,,,,,2,,,,58,49
95351,note_on,23,0,5,,,,,,,,2,,,,86,0
95352,note_on,1,0,5,,,,,,,,2,,,,84,49
95358,note_on,30,0,6,,,,,,,,2,,,,58,0
95360,note_on,2,0,6,,,,,,,,2,,,,63,49
95390,note_on,30,0,6,,,,,,,,2,,,,63,0
95392,note_on,2,0,6,,,,,,,,2,,,,67,49
95409,note_on,177,0,9,,,,,,,,3,,,,75,0
95409,note_on,177,0,8,,,,,,,,3,,,,79,0
95409,note_on,177,0,10,,,,,,,,3,,,,58,0
95419,note_on,67,0,5,,,,,,,,2,,,,84,0
95422,note_on,30,0,6,,,,,,,,2,,,,67,0
95424,note_on,2,0,6,,,,,,,,2,,,,58,49
95424,note_on,5,0,5,,,,,,,,2,,,,86,49
95424,note_on,15,0,9,,,,,,,,3,,,,63,49
95424,note_on,15,0,8,,,,,,,,3,,,,81,49
95424,note_on,15,0,10,,,,,,,,3,,,,60,49
95447,note_on,23,0,5,,,,,,,,2,,,,86,0
95448,note_on,1,0,5,,,,,,,,2,,,,84,49
95454,note_on,30,0,6,,,,,,,,2,,,,58,0
95456,note_on,2,0,6,,,,,,,,2,,,,60,49
95486,note_on,30,0,6,,,,,,,,2,,,,60,0
95488,note_on,2,0,6,,,,,,,,2,,,,63,49
95515,note_on,67,0,5,,,,,,,,2,,,,84,0
95518,note_on,30,0,6,,,,,,,,2,,,,63,0
95520,note_on,5,0,5,,,,,,,,2,,,,82,49
95520,note_on,2,0,6,,,,,,,,2,,,,58,49
95543,note_on,23,0,5,,,,,,,,2,,,,82,0
95544,note_on,1,0,5,,,,,,,,2,,,,81,49
95550,note_on,30,0,6,,,,,,,,2,,,,58,0
95552,note_on,2,0,6,,,,,,,,2,,,,60,49
95582,note_on,30,0,6,,,,,,,,2,,,,60,0
95584,note_on,2,0,6,,,,,,,,2,,,,63,49
95586,note_on,1506,0,11,,,,,,,,3,,,,46,0
95601,note_on,177,0,10,,,,,,,,3,,,,60,0
95601,note_on,177,0,8,,,,,,,,3,,,,81,0
95601,note_on,177,0,9,,,,,,,,3,,,,63,0
95611,note_on,67,0,5,,,,,,,,2,,,,81,0
95614,note_on,30,0,6,,,,,,,,2,,,,63,0
95616,note_on,15,0,10,,,,,,,,3,,,,62,49
95616,note_on,15,0,9,,,,,,,,3,,,,62,49
95616,note_on,5,0,5,,,,,,,,2,,,,82,49
95616,note_on,2,0,6,,,,,,,,2,,,,58,49
95616,note_on,0,0,6,,,,,,,,2,,,,55,49
95616,note_on,30,0,11,,,,,,,,3,,,,34,49
95616,note_on,15,0,8,,,,,,,,3,,,,82,49
95646,note_on,30,0,5,,,,,,,,2,,,,82,0
95648,note_on,2,0,5,,,,,,,,2,,,,86,49
95678,note_on,30,0,5,,,,,,,,2,,,,86,0
95680,note_on,2,0,5,,,,,,,,2,,,,84,49
95705,note_on,89,0,8,,,,,,,,3,,,,82,0
95705,note_on,0,0,6,,,,,,,,2,,,,58,0
95705,note_on,89,0,6,,,,,,,,2,,,,55,0
95705,note_on,89,0,11,,,,,,,,3,,,,34,0
95705,note_on,89,0,9,,,,,,,,3,,,,62,0
95705,note_on,89,0,10,,,,,,,,3,,,,62,0
95710,note_on,30,0,5,,,,,,,,2,,,,84,0
95712,note_on,2,0,5,,,,,,,,2,,,,82,49
95742,note_on,30,0,5,,,,,,,,2,,,,82,0
95744,note_on,2,0,5,,,,,,,,2,,,,81,49
95774,note_on,30,0,5,,,,,,,,2,,,,81,0
95776,note_on,2,0,5,,,,,,,,2,,,,79,49
95806,note_on,30,0,5,,,,,,,,2,,,,79,0
95808,note_on,2,0,5,,,,,,,,2,,,,77,49
95838,note_on,30,0,5,,,,,,,,2,,,,77,0
95840,note_on,2,0,5,,,,,,,,2,,,,79,49
95870,note_on,30,0,5,,,,,,,,2,,,,79,0
95872,note_on,2,0,5,,,,,,,,2,,,,77,49
95902,note_on,30,0,5,,,,,,,,2,,,,77,0
95904,note_on,199,0,11,,,,,,,,3,,,,45,49
95904,note_on,199,0,10,,,,,,,,3,,,,65,49
95904,note_on,2,0,5,,,,,,,,2,,,,75,49
95904,note_on,199,0,9,,,,,,,,3,,,,72,49
95904,note_on,199,0,6,,,,,,,,2,,,,57,49
95904,note_on,199,0,8,,,,,,,,3,,,,75,49
95934,note_on,30,0,5,,,,,,,,2,,,,75,0
95936,note_on,2,0,5,,,,,,,,2,,,,74,49
95966,note_on,30,0,5,,,,,,,,2,,,,74,0
95968,note_on,2,0,5,,,,,,,,2,,,,72,49
95993,note_on,89,0,9,,,,,,,,3,,,,72,0
95993,note_on,89,0,8,,,,,,,,3,,,,75,0
95993,note_on,89,0,6,,,,,,,,2,,,,57,0
95993,note_on,89,0,11,,,,,,,,3,,,,45,0
95998,note_on,30,0,5,,,,,,,,2,,,,72,0
96000,note_on,7,0,8,,,,,,,,3,,,,74,49
96000,note_on,7,0,6,,,,,,,,2,,,,58,49
96000,note_on,7,0,11,,,,,,,,3,,,,46,49
96000,note_on,2,0,5,,,,,,,,2,,,,74,49
96000,note_on,7,0,9,,,,,,,,3,,,,70,49
96030,note_on,30,0,5,,,,,,,,2,,,,74,0
96032,note_on,2,0,5,,,,,,,,2,,,,70,49
96062,note_on,30,0,5,,,,,,,,2,,,,70,0
96064,note_on,2,0,5,,,,,,,,2,,,,65,49
96089,note_on,89,0,6,,,,,,,,2,,,,58,0
96089,note_on,89,0,11,,,,,,,,3,,,,46,0
96089,note_on,89,0,9,,,,,,,,3,,,,70,0
96089,note_on,185,0,10,,,,,,,,3,,,,65,0
96089,note_on,89,0,8,,,,,,,,3,,,,74,0
96094,note_on,30,0,5,,,,,,,,2,,,,65,0
96096,note_on,2,0,5,,,,,,,,2,,,,63,49
96096,note_on,7,0,9,,,,,,,,3,,,,67,49
96096,note_on,7,0,8,,,,,,,,3,,,,72,49
96096,note_on,7,0,11,,,,,,,,3,,,,39,49
96096,note_on,7,0,10,,,,,,,,3,,,,63,49
96096,note_on,7,0,6,,,,,,,,2,,,,51,49
96126,note_on,30,0,5,,,,,,,,2,,,,63,0
96128,note_on,2,0,5,,,,,,,,2,,,,67,49
96158,note_on,30,0,5,,,,,,,,2,,,,67,0
96160,note_on,2,0,5,,,,,,,,2,,,,72,49
96185,note_on,89,0,11,,,,,,,,3,,,,39,0
96185,note_on,89,0,9,,,,,,,,3,,,,67,0
96185,note_on,89,0,10,,,,,,,,3,,,,63,0
96185,note_on,89,0,8,,,,,,,,3,,,,72,0
96185,note_on,89,0,6,,,,,,,,2,,,,51,0
96190,note_on,30,0,5,,,,,,,,2,,,,72,0
96192,note_on,7,0,9,,,,,,,,3,,,,62,49
96192,note_on,2,0,5,,,,,,,,2,,,,70,49
96192,note_on,7,0,8,,,,,,,,3,,,,70,49
96192,note_on,7,0,10,,,,,,,,3,,,,65,49
96192,note_on,7,0,6,,,,,,,,2,,,,53,49
96192,note_on,7,0,11,,,,,,,,3,,,,41,49
96222,note_on,30,0,5,,,,,,,,2,,,,70,0
96224,note_on,2,0,5,,,,,,,,2,,,,65,49
96254,note_on,30,0,5,,,,,,,,2,,,,65,0
96256,note_on,2,0,5,,,,,,,,2,,,,62,49
96281,note_on,89,0,6,,,,,,,,2,,,,53,0
96281,note_on,89,0,9,,,,,,,,3,,,,62,0
96281,note_on,89,0,8,,,,,,,,3,,,,70,0
96286,note_on,30,0,5,,,,,,,,2,,,,62,0
96288,note_on,7,0,6,,,,,,,,2,,,,41,49
96288,note_on,7,0,8,,,,,,,,3,,,,69,49
96288,note_on,2,0,5,,,,,,,,2,,,,60,49
96288,note_on,7,0,9,,,,,,,,3,,,,60,49
96318,note_on,30,0,5,,,,,,,,2,,,,60,0
96320,note_on,2,0,5,,,,,,,,2,,,,62,49
96350,note_on,30,0,5,,,,,,,,2,,,,62,0
96352,note_on,2,0,5,,,,,,,,2,,,,69,49
96369,note_on,177,0,11,,,,,,,,3,,,,41,0
96377,note_on,89,0,6,,,,,,,,2,,,,41,0
96377,note_on,89,0,8,,,,,,,,3,,,,69,0
96377,note_on,89,0,9,,,,,,,,3,,,,60,0
96382,note_on,30,0,5,,,,,,,,2,,,,69,0
96384,note_on,7,0,8,,,,,,,,3,,,,70,49
96384,note_on,15,0,11,,,,,,,,3,,,,34,49
96384,note_on,7,0,9,,,,,,,,3,,,,62,49
96384,note_on,2,0,5,,,,,,,,2,,,,70,49
96384,note_on,7,0,6,,,,,,,,2,,,,46,49
96414,note_on,30,0,5,,,,,,,,2,,,,70,0
96416,note_on,2,0,5,,,,,,,,2,,,,74,49
96446,note_on,30,0,5,,,,,,,,2,,,,74,0
96448,note_on,2,0,5,,,,,,,,2,,,,72,49
96473,note_on,89,0,11,,,,,,,,3,,,,34,0
96473,note_on,89,0,8,,,,,,,,3,,,,70,0
96473,note_on,89,0,9,,,,,,,,3,,,,62,0
96473,note_on,281,0,10,,,,,,,,3,,,,65,0
96473,note_on,89,0,6,,,,,,,,2,,,,46,0
96478,note_on,30,0,5,,,,,,,,2,,,,72,0
96480,note_on,2,0,5,,,,,,,,2,,,,70,49
96510,note_on,30,0,5,,,,,,,,2,,,,70,0
96512,note_on,2,0,5,,,,,,,,2,,,,69,49
96542,note_on,30,0,5,,,,,,,,2,,,,69,0
96544,note_on,2,0,5,,,,,,,,2,,,,67,49
96574,note_on,30,0,5,,,,,,,,2,,,,67,0
96576,note_on,2,0,5,,,,,,,,2,,,,65,49
96606,note_on,30,0,5,,,,,,,,2,,,,65,0
96608,note_on,2,0,5,,,,,,,,2,,,,67,49
96638,note_on,30,0,5,,,,,,,,2,,,,67,0
96640,note_on,2,0,5,,,,,,,,2,,,,65,49
96670,note_on,30,0,5,,,,,,,,2,,,,65,0
96672,note_on,5575,0,1,,,,,,,,0,,,,75,49
96672,note_on,13209,0,4,,,,,,,,1,,,,65,49
96672,note_on,199,0,11,,,,,,,,3,,,,33,49
96672,note_on,5783,0,3,,,,,,,,1,,,,72,49
96672,note_on,2,0,5,,,,,,,,2,,,,63,49
96672,note_on,199,0,9,,,,,,,,3,,,,60,49
96672,note_on,5575,0,2,,,,,,,,0,,,,72,49
96672,note_on,199,0,8,,,,,,,,3,,,,63,49
96672,note_on,199,0,6,,,,,,,,2,,,,45,49
96672,note_on,199,0,10,,,,,,,,3,,,,53,49
96702,note_on,30,0,5,,,,,,,,2,,,,63,0
96704,note_on,2,0,5,,,,,,,,2,,,,62,49
96734,note_on,30,0,5,,,,,,,,2,,,,62,0
96736,note_on,2,0,5,,,,,,,,2,,,,60,49
96761,note_on,89,0,1,,,,,,,,0,,,,75,0
96761,note_on,89,0,8,,,,,,,,3,,,,63,0
96761,note_on,89,0,6,,,,,,,,2,,,,45,0
96761,note_on,89,0,9,,,,,,,,3,,,,60,0
96761,note_on,89,0,11,,,,,,,,3,,,,33,0
96761,note_on,89,0,4,,,,,,,,1,,,,65,0
96761,note_on,89,0,2,,,,,,,,0,,,,72,0
96761,note_on,89,0,3,,,,,,,,1,,,,72,0
96766,note_on,30,0,5,,,,,,,,2,,,,60,0
96768,note_on,7,0,3,,,,,,,,1,,,,74,49
96768,note_on,7,0,11,,,,,,,,3,,,,34,49
96768,note_on,7,0,8,,,,,,,,3,,,,62,49
96768,note_on,7,0,1,,,,,,,,0,,,,74,49
96768,note_on,7,0,6,,,,,,,,2,,,,46,49
96768,note_on,7,0,4,,,,,,,,1,,,,70,49
96768,note_on,7,0,9,,,,,,,,3,,,,58,49
96768,note_on,7,0,2,,,,,,,,0,,,,70,49
96768,note_on,2,0,5,,,,,,,,2,,,,62,49
96798,note_on,30,0,5,,,,,,,,2,,,,62,0
96800,note_on,2,0,5,,,,,,,,2,,,,58,49
96830,note_on,30,0,5,,,,,,,,2,,,,58,0
96832,note_on,2,0,5,,,,,,,,2,,,,53,49
96857,note_on,89,0,11,,,,,,,,3,,,,34,0
96857,note_on,89,0,3,,,,,,,,1,,,,74,0
96857,note_on,89,0,8,,,,,,,,3,,,,62,0
96857,note_on,185,0,10,,,,,,,,3,,,,53,0
96857,note_on,89,0,1,,,,,,,,0,,,,74,0
96857,note_on,89,0,6,,,,,,,,2,,,,46,0
96857,note_on,89,0,9,,,,,,,,3,,,,58,0
96862,note_on,30,0,5,,,,,,,,2,,,,53,0
96864,note_on,7,0,6,,,,,,,,2,,,,39,49
96864,note_on,2,0,5,,,,,,,,2,,,,51,49
96864,note_on,7,0,1,,,,,,,,0,,,,79,49
96864,note_on,7,0,9,,,,,,,,3,,,,58,49
96864,note_on,7,0,10,,,,,,,,3,,,,51,49
96864,note_on,7,0,8,,,,,,,,3,,,,67,49
96864,note_on,7,0,3,,,,,,,,1,,,,75,49
96864,note_on,7,0,11,,,,,,,,3,,,,39,49
96894,note_on,30,0,5,,,,,,,,2,,,,51,0
96896,note_on,2,0,5,,,,,,,,2,,,,55,49
96926,note_on,30,0,5,,,,,,,,2,,,,55,0
96928,note_on,2,0,5,,,,,,,,2,,,,60,49
96945,note_on,177,0,4,,,,,,,,1,,,,70,0
96945,note_on,177,0,2,,,,,,,,0,,,,70,0
96953,note_on,89,0,11,,,,,,,,3,,,,39,0
96953,note_on,89,0,6,,,,,,,,2,,,,39,0
96953,note_on,89,0,9,,,,,,,,3,,,,58,0
96953,note_on,89,0,1,,,,,,,,0,,,,79,0
96953,note_on,89,0,3,,,,,,,,1,,,,75,0
96953,note_on,89,0,10,,,,,,,,3,,,,51,0
96953,note_on,89,0,8,,,,,,,,3,,,,67,0
96958,note_on,30,0,5,,,,,,,,2,,,,60,0
96960,note_on,15,0,2,,,,,,,,0,,,,74,49
96960,note_on,7,0,10,,,,,,,,3,,,,53,49
96960,note_on,7,0,8,,,,,,,,3,,,,65,49
96960,note_on,7,0,1,,,,,,,,0,,,,77,49
96960,note_on,15,0,4,,,,,,,,1,,,,70,49
96960,note_on,7,0,3,,,,,,,,1,,,,74,49
96960,note_on,2,0,5,,,,,,,,2,,,,58,49
96960,note_on,7,0,6,,,,,,,,2,,,,41,49
96960,note_on,7,0,11,,,,,,,,3,,,,41,49
96960,note_on,7,0,9,,,,,,,,3,,,,62,49
96990,note_on,30,0,5,,,,,,,,2,,,,58,0
96992,note_on,2,0,5,,,,,,,,2,,,,53,49
97022,note_on,30,0,5,,,,,,,,2,,,,53,0
97024,note_on,2,0,5,,,,,,,,2,,,,50,49
97049,note_on,89,0,1,,,,,,,,0,,,,77,0
97049,note_on,89,0,8,,,,,,,,3,,,,65,0
97049,note_on,89,0,6,,,,,,,,2,,,,41,0
97049,note_on,89,0,2,,,,,,,,0,,,,74,0
97049,note_on,89,0,4,,,,,,,,1,,,,70,0
97049,note_on,89,0,9,,,,,,,,3,,,,62,0
97049,note_on,89,0,3,,,,,,,,1,,,,74,0
97049,note_on,89,0,11,,,,,,,,3,,,,41,0
97054,note_on,30,0,5,,,,,,,,2,,,,50,0
97056,note_on,7,0,8,,,,,,,,3,,,,69,49
97056,note_on,7,0,4,,,,,,,,1,,,,65,49
97056,note_on,7,0,3,,,,,,,,1,,,,72,49
97056,note_on,7,0,6,,,,,,,,2,,,,29,49
97056,note_on,7,0,9,,,,,,,,3,,,,60,49
97056,note_on,2,0,5,,,,,,,,2,,,,48,49
97056,note_on,7,0,2,,,,,,,,0,,,,72,49
97056,note_on,7,0,1,,,,,,,,0,,,,81,49
97056,note_on,7,0,11,,,,,,,,3,,,,41,49
97086,note_on,30,0,5,,,,,,,,2,,,,48,0
97088,note_on,2,0,5,,,,,,,,2,,,,51,49
97118,note_on,30,0,5,,,,,,,,2,,,,51,0
97120,note_on,2,0,5,,,,,,,,2,,,,53,49
97137,note_on,177,0,10,,,,,,,,3,,,,53,0
97145,note_on,89,0,11,,,,,,,,3,,,,41,0
97145,note_on,89,0,8,,,,,,,,3,,,,69,0
97145,note_on,89,0,2,,,,,,,,0,,,,72,0
97145,note_on,89,0,4,,,,,,,,1,,,,65,0
97145,note_on,89,0,9,,,,,,,,3,,,,60,0
97145,note_on,89,0,6,,,,,,,,2,,,,29,0
97145,note_on,89,0,3,,,,,,,,1,,,,72,0
97145,note_on,89,0,1,,,,,,,,0,,,,81,0
97150,note_on,30,0,5,,,,,,,,2,,,,53,0
97152,note_on,7,0,6,,,,,,,,2,,,,34,49
97152,note_on,7,0,4,,,,,,,,1,,,,58,64
97152,note_on,7,0,9,,,,,,,,3,,,,62,64
97152,note_on,7,0,3,,,,,,,,1,,,,70,64
97152,note_on,2,0,5,,,,,,,,2,,,,79,49
97152,note_on,7,0,11,,,,,,,,3,,,,46,64
97152,note_on,7,0,2,,,,,,,,0,,,,70,64
97152,note_on,15,0,10,,,,,,,,3,,,,58,64
97152,note_on,7,0,1,,,,,,,,0,,,,82,64
97152,note_on,7,0,8,,,,,,,,3,,,,70,64
97172,note_on,20,0,11,,,,,,,,3,,,,46,0
97172,note_on,20,0,10,,,,,,,,3,,,,58,0
97200,note_on,28,0,10,,,,,,,,3,,,,57,64
97200,note_on,28,0,11,,,,,,,,3,,,,45,64
97220,note_on,20,0,10,,,,,,,,3,,,,57,0
97220,note_on,20,0,11,,,,,,,,3,,,,45,0
97241,note_on,89,0,5,,,,,,,,2,,,,79,0
97241,note_on,89,0,6,,,,,,,,2,,,,34,0
97248,note_on,28,0,11,,,,,,,,3,,,,46,64
97248,note_on,28,0,10,,,,,,,,3,,,,58,64
97268,note_on,20,0,10,,,,,,,,3,,,,58,0
97268,note_on,20,0,11,,,,,,,,3,,,,46,0
97296,note_on,28,0,11,,,,,,,,3,,,,48,64
97296,note_on,28,0,10,,,,,,,,3,,,,60,64
97316,note_on,20,0,10,,,,,,,,3,,,,60,0
97316,note_on,20,0,11,,,,,,,,3,,,,48,0
97329,note_on,177,0,4,,,,,,,,1,,,,58,0
97329,note_on,177,0,1,,,,,,,,0,,,,82,0
97329,note_on,177,0,9,,,,,,,,3,,,,62,0
97329,note_on,177,0,2,,,,,,,,0,,,,70,0
97329,note_on,177,0,3,,,,,,,,1,,,,70,0
97329,note_on,177,0,8,,,,,,,,3,,,,70,0
97344,note_on,15,0,4,,,,,,,,1,,,,70,64
97344,note_on,15,0,3,,,,,,,,1,,,,74,64
97344,note_on,28,0,11,,,,,,,,3,,,,50,64
97344,note_on,28,0,10,,,,,,,,3,,,,62,64
97344,note_on,15,0,8,,,,,,,,3,,,,82,64
97344,note_on,15,0,2,,,,,,,,0,,,,82,64
97344,note_on,15,0,1,,,,,,,,0,,,,86,64
97344,note_on,15,0,9,,,,,,,,3,,,,70,64
97364,note_on,20,0,10,,,,,,,,3,,,,62,0
97364,note_on,20,0,11,,,,,,,,3,,,,50,0
97392,note_on,28,0,11,,,,,,,,3,,,,48,64
97392,note_on,28,0,10,,,,,,,,3,,,,60,64
97412,note_on,20,0,11,,,,,,,,3,,,,48,0
97412,note_on,20,0,10,,,,,,,,3,,,,60,0
97440,note_on,28,0,10,,,,,,,,3,,,,62,64
97440,note_on,28,0,11,,,,,,,,3,,,,50,64
97460,note_on,20,0,11,,,,,,,,3,,,,50,0
97460,note_on,20,0,10,,,,,,,,3,,,,62,0
97488,note_on,28,0,11,,,,,,,,3,,,,46,64
97488,note_on,28,0,10,,,,,,,,3,,,,58,64
97508,note_on,20,0,11,,,,,,,,3,,,,46,0
97508,note_on,20,0,10,,,,,,,,3,,,,58,0
97521,note_on,177,0,9,,,,,,,,3,,,,70,0
97521,note_on,177,0,8,,,,,,,,3,,,,82,0
97521,note_on,177,0,1,,,,,,,,0,,,,86,0
97521,note_on,177,0,3,,,,,,,,1,,,,74,0
97536,note_on,28,0,11,,,,,,,,3,,,,51,64
97536,note_on,15,0,8,,,,,,,,3,,,,72,64
97536,note_on,15,0,1,,,,,,,,0,,,,84,64
97536,note_on,15,0,3,,,,,,,,1,,,,72,64
97536,note_on,28,0,10,,,,,,,,3,,,,63,64
97536,note_on,15,0,9,,,,,,,,3,,,,60,64
97556,note_on,20,0,10,,,,,,,,3,,,,63,0
97556,note_on,20,0,11,,,,,,,,3,,,,51,0
97584,note_on,28,0,11,,,,,,,,3,,,,50,64
97584,note_on,28,0,10,,,,,,,,3,,,,62,64
97604,note_on,20,0,10,,,,,,,,3,,,,62,0
97604,note_on,20,0,11,,,,,,,,3,,,,50,0
97632,note_on,28,0,10,,,,,,,,3,,,,63,64
97632,note_on,28,0,11,,,,,,,,3,,,,51,64
97652,note_on,20,0,11,,,,,,,,3,,,,51,0
97652,note_on,20,0,10,,,,,,,,3,,,,63,0
97680,note_on,28,0,11,,,,,,,,3,,,,48,64
97680,note_on,28,0,10,,,,,,,,3,,,,60,64
97700,note_on,20,0,10,,,,,,,,3,,,,60,0
97700,note_on,20,0,11,,,,,,,,3,,,,48,0
97713,note_on,177,0,3,,,,,,,,1,,,,72,0
97713,note_on,369,0,2,,,,,,,,0,,,,82,0
97713,note_on,177,0,9,,,,,,,,3,,,,60,0
97713,note_on,369,0,4,,,,,,,,1,,,,70,0
97713,note_on,177,0,8,,,,,,,,3,,,,72,0
97728,note_on,28,0,11,,,,,,,,3,,,,53,64
97728,note_on,15,0,8,,,,,,,,3,,,,81,64
97728,note_on,28,0,10,,,,,,,,3,,,,65,64
97728,note_on,15,0,3,,,,,,,,1,,,,72,64
97728,note_on,15,0,9,,,,,,,,3,,,,69,64
97728,note_on,15,0,2,,,,,,,,0,,,,81,64
97728,note_on,15,0,4,,,,,,,,1,,,,65,64
97748,note_on,20,0,10,,,,,,,,3,,,,65,0
97748,note_on,20,0,11,,,,,,,,3,,,,53,0
97776,note_on,28,0,11,,,,,,,,3,,,,52,64
97776,note_on,28,0,10,,,,,,,,3,,,,64,64
97796,note_on,20,0,11,,,,,,,,3,,,,52,0
97796,note_on,20,0,10,,,,,,,,3,,,,64,0
97824,note_on,28,0,11,,,,,,,,3,,,,53,64
97824,note_on,28,0,10,,,,,,,,3,,,,65,64
97844,note_on,20,0,11,,,,,,,,3,,,,53,0
97844,note_on,20,0,10,,,,,,,,3,,,,65,0
97872,note_on,28,0,11,,,,,,,,3,,,,48,64
97872,note_on,28,0,10,,,,,,,,3,,,,60,64
97890,note_on,354,0,1,,,,,,,,0,,,,84,0
97892,note_on,20,0,11,,,,,,,,3,,,,48,0
97892,note_on,20,0,10,,,,,,,,3,,,,60,0
97905,note_on,177,0,3,,,,,,,,1,,,,72,0
97905,note_on,177,0,8,,,,,,,,3,,,,81,0
97905,note_on,177,0,4,,,,,,,,1,,,,65,0
97905,note_on,177,0,9,,,,,,,,3,,,,69,0
97920,note_on,28,0,11,,,,,,,,3,,,,50,64
97920,note_on,30,0,1,,,,,,,,0,,,,82,64
97920,note_on,15,0,3,,,,,,,,1,,,,70,64
97920,note_on,15,0,8,,,,,,,,3,,,,70,64
97920,note_on,15,0,9,,,,,,,,3,,,,58,64
97920,note_on,15,0,4,,,,,,,,1,,,,58,64
97920,note_on,28,0,10,,,,,,,,3,,,,62,64
97940,note_on,20,0,10,,,,,,,,3,,,,62,0
97940,note_on,20,0,11,,,,,,,,3,,,,50,0
97968,note_on,28,0,11,,,,,,,,3,,,,48,64
97968,note_on,28,0,10,,,,,,,,3,,,,60,64
97988,note_on,20,0,10,,,,,,,,3,,,,60,0
97988,note_on,20,0,11,,,,,,,,3,,,,48,0
98016,note_on,28,0,10,,,,,,,,3,,,,62,64
98016,note_on,28,0,11,,,,,,,,3,,,,50,64
98036,note_on,20,0,10,,,,,,,,3,,,,62,0
98036,note_on,20,0,11,,,,,,,,3,,,,50,0
98064,note_on,28,0,11,,,,,,,,3,,,,46,64
98064,note_on,28,0,10,,,,,,,,3,,,,58,64
98084,note_on,20,0,11,,,,,,,,3,,,,46,0
98084,note_on,20,0,10,,,,,,,,3,,,,58,0
98097,note_on,369,0,2,,,,,,,,0,,,,81,0
98097,note_on,177,0,8,,,,,,,,3,,,,70,0
98097,note_on,177,0,9,,,,,,,,3,,,,58,0
98112,note_on,28,0,11,,,,,,,,3,,,,51,64
98112,note_on,15,0,8,,,,,,,,3,,,,79,64
98112,note_on,15,0,2,,,,,,,,0,,,,79,64
98112,note_on,28,0,10,,,,,,,,3,,,,63,64
98112,note_on,15,0,9,,,,,,,,3,,,,67,64
98132,note_on,20,0,11,,,,,,,,3,,,,51,0
98132,note_on,20,0,10,,,,,,,,3,,,,63,0
98160,note_on,28,0,10,,,,,,,,3,,,,62,64
98160,note_on,28,0,11,,,,,,,,3,,,,50,64
98180,note_on,20,0,10,,,,,,,,3,,,,62,0
98180,note_on,20,0,11,,,,,,,,3,,,,50,0
98208,note_on,28,0,11,,,,,,,,3,,,,51,64
98208,note_on,28,0,10,,,,,,,,3,,,,63,64
98228,note_on,20,0,11,,,,,,,,3,,,,51,0
98228,note_on,20,0,10,,,,,,,,3,,,,63,0
98256,note_on,28,0,11,,,,,,,,3,,,,46,64
98256,note_on,28,0,10,,,,,,,,3,,,,58,64
98274,note_on,354,0,3,,,,,,,,1,,,,70,0
98274,note_on,354,0,1,,,,,,,,0,,,,82,0
98274,note_on,354,0,4,,,,,,,,1,,,,58,0
98276,note_on,20,0,10,,,,,,,,3,,,,58,0
98276,note_on,20,0,11,,,,,,,,3,,,,46,0
98289,note_on,177,0,8,,,,,,,,3,,,,79,0
98289,note_on,177,0,9,,,,,,,,3,,,,67,0
98304,note_on,15,0,8,,,,,,,,3,,,,69,64
98304,note_on,28,0,11,,,,,,,,3,,,,48,64
98304,note_on,30,0,3,,,,,,,,1,,,,72,64
98304,note_on,15,0,9,,,,,,,,3,,,,57,64
98304,note_on,30,0,4,,,,,,,,1,,,,72,64
98304,note_on,28,0,10,,,,,,,,3,,,,60,64
98304,note_on,30,0,1,,,,,,,,0,,,,81,64
98324,note_on,20,0,10,,,,,,,,3,,,,60,0
98324,note_on,20,0,11,,,,,,,,3,,,,48,0
98352,note_on,28,0,10,,,,,,,,3,,,,58,64
98352,note_on,28,0,11,,,,,,,,3,,,,46,64
98372,note_on,20,0,11,,,,,,,,3,,,,46,0
98372,note_on,20,0,10,,,,,,,,3,,,,58,0
98400,note_on,28,0,10,,,,,,,,3,,,,60,64
98400,note_on,28,0,11,,,,,,,,3,,,,48,64
98420,note_on,20,0,11,,,,,,,,3,,,,48,0
98420,note_on,20,0,10,,,,,,,,3,,,,60,0
98448,note_on,28,0,10,,,,,,,,3,,,,57,64
98448,note_on,28,0,11,,,,,,,,3,,,,45,64
98468,note_on,20,0,11,,,,,,,,3,,,,45,0
98468,note_on,20,0,10,,,,,,,,3,,,,57,0
98481,note_on,177,0,4,,,,,,,,1,,,,72,0
98481,note_on,369,0,2,,,,,,,,0,,,,79,0
98481,note_on,177,0,8,,,,,,,,3,,,,69,0
98481,note_on,177,0,9,,,,,,,,3,,,,57,0
98481,note_on,177,0,3,,,,,,,,1,,,,72,0
98496,note_on,15,0,2,,,,,,,,0,,,,77,64
98496,note_on,15,0,8,,,,,,,,3,,,,77,64
98496,note_on,28,0,11,,,,,,,,3,,,,50,64
98496,note_on,15,0,9,,,,,,,,3,,,,65,64
98496,note_on,15,0,3,,,,,,,,1,,,,74,64
98496,note_on,15,0,4,,,,,,,,1,,,,74,64
98496,note_on,28,0,10,,,,,,,,3,,,,62,64
98516,note_on,20,0,11,,,,,,,,3,,,,50,0
98516,note_on,20,0,10,,,,,,,,3,,,,62,0
98544,note_on,28,0,11,,,,,,,,3,,,,48,64
98544,note_on,28,0,10,,,,,,,,3,,,,60,64
98564,note_on,20,0,11,,,,,,,,3,,,,48,0
98564,note_on,20,0,10,,,,,,,,3,,,,60,0
98592,note_on,28,0,11,,,,,,,,3,,,,50,64
98592,note_on,28,0,10,,,,,,,,3,,,,62,64
98612,note_on,20,0,10,,,,,,,,3,,,,62,0
98612,note_on,20,0,11,,,,,,,,3,,,,50,0
98640,note_on,28,0,10,,,,,,,,3,,,,57,64
98640,note_on,28,0,11,,,,,,,,3,,,,45,64
98658,note_on,354,0,1,,,,,,,,0,,,,81,0
98660,note_on,20,0,11,,,,,,,,3,,,,45,0
98660,note_on,20,0,10,,,,,,,,3,,,,57,0
98673,note_on,177,0,8,,,,,,,,3,,,,77,0
98673,note_on,177,0,9,,,,,,,,3,,,,65,0
98688,note_on,15,0,8,,,,,,,,3,,,,67,64
98688,note_on,28,0,11,,,,,,,,3,,,,47,64
98688,note_on,30,0,1,,,,,,,,0,,,,79,64
98688,note_on,15,0,9,,,,,,,,3,,,,55,64
98688,note_on,28,0,10,,,,,,,,3,,,,59,64
98708,note_on,20,0,11,,,,,,,,3,,,,47,0
98708,note_on,20,0,10,,,,,,,,3,,,,59,0
98736,note_on,28,0,11,,,,,,,,3,,,,45,64
98736,note_on,28,0,10,,,,,,,,3,,,,57,64
98756,note_on,20,0,10,,,,,,,,3,,,,57,0
98756,note_on,20,0,11,,,,,,,,3,,,,45,0
98784,note_on,28,0,10,,,,,,,,3,,,,59,64
98784,note_on,28,0,11,,,,,,,,3,,,,47,64
98804,note_on,20,0,10,,,,,,,,3,,,,59,0
98804,note_on,20,0,11,,,,,,,,3,,,,47,0
98832,note_on,28,0,10,,,,,,,,3,,,,55,64
98832,note_on,28,0,11,,,,,,,,3,,,,43,64
98852,note_on,20,0,11,,,,,,,,3,,,,43,0
98852,note_on,20,0,10,,,,,,,,3,,,,55,0
98865,note_on,177,0,9,,,,,,,,3,,,,55,0
98865,note_on,369,0,2,,,,,,,,0,,,,77,0
98865,note_on,177,0,8,,,,,,,,3,,,,67,0
98865,note_on,369,0,3,,,,,,,,1,,,,74,0
98865,note_on,369,0,4,,,,,,,,1,,,,74,0
98880,note_on,28,0,11,,,,,,,,3,,,,48,64
98880,note_on,15,0,2,,,,,,,,0,,,,75,64
98880,note_on,15,0,4,,,,,,,,1,,,,72,64
98880,note_on,15,0,9,,,,,,,,3,,,,63,64
98880,note_on,15,0,8,,,,,,,,3,,,,75,64
98880,note_on,15,0,3,,,,,,,,1,,,,72,64
98880,note_on,28,0,10,,,,,,,,3,,,,60,64
98900,note_on,20,0,10,,,,,,,,3,,,,60,0
98900,note_on,20,0,11,,,,,,,,3,,,,48,0
98928,note_on,28,0,10,,,,,,,,3,,,,58,64
98928,note_on,28,0,11,,,,,,,,3,,,,47,64
98948,note_on,20,0,10,,,,,,,,3,,,,58,0
98948,note_on,20,0,11,,,,,,,,3,,,,47,0
98976,note_on,28,0,10,,,,,,,,3,,,,57,64
98976,note_on,28,0,11,,,,,,,,3,,,,45,64
98996,note_on,20,0,10,,,,,,,,3,,,,57,0
98996,note_on,20,0,11,,,,,,,,3,,,,45,0
99024,note_on,28,0,11,,,,,,,,3,,,,43,64
99024,note_on,28,0,10,,,,,,,,3,,,,55,64
99042,note_on,354,0,1,,,,,,,,0,,,,79,0
99044,note_on,20,0,10,,,,,,,,3,,,,55,0
99044,note_on,20,0,11,,,,,,,,3,,,,43,0
99057,note_on,177,0,8,,,,,,,,3,,,,75,0
99057,note_on,177,0,9,,,,,,,,3,,,,63,0
99057,note_on,177,0,4,,,,,,,,1,,,,72,0
99057,note_on,177,0,3,,,,,,,,1,,,,72,0
99072,note_on,30,0,1,,,,,,,,0,,,,81,64
99072,note_on,15,0,9,,,,,,,,3,,,,75,64
99072,note_on,15,0,3,,,,,,,,1,,,,72,64
99072,note_on,15,0,4,,,,,,,,1,,,,65,64
99072,note_on,0,0,9,,,,,,,,3,,,,67,64
99072,note_on,28,0,11,,,,,,,,3,,,,41,64
99072,note_on,0,0,8,,,,,,,,3,,,,72,64
99072,note_on,15,0,8,,,,,,,,3,,,,81,64
99072,note_on,0,0,8,,,,,,,,3,,,,65,64
99072,note_on,28,0,10,,,,,,,,3,,,,53,64
99092,note_on,20,0,11,,,,,,,,3,,,,41,0
99092,note_on,20,0,10,,,,,,,,3,,,,53,0
99120,note_on,28,0,10,,,,,,,,3,,,,63,64
99120,note_on,28,0,11,,,,,,,,3,,,,39,64
99140,note_on,20,0,10,,,,,,,,3,,,,63,0
99140,note_on,20,0,11,,,,,,,,3,,,,39,0
99161,note_on,89,0,4,,,,,,,,1,,,,65,0
99161,note_on,0,0,8,,,,,,,,3,,,,81,0
99161,note_on,281,0,2,,,,,,,,0,,,,75,0
99161,note_on,0,0,8,,,,,,,,3,,,,72,0
99161,note_on,0,0,9,,,,,,,,3,,,,75,0
99161,note_on,89,0,1,,,,,,,,0,,,,81,0
99161,note_on,89,0,8,,,,,,,,3,,,,65,0
99161,note_on,89,0,9,,,,,,,,3,,,,67,0
99161,note_on,89,0,3,,,,,,,,1,,,,72,0
99168,note_on,28,0,10,,,,,,,,3,,,,62,64
99168,note_on,28,0,11,,,,,,,,3,,,,38,64
99188,note_on,20,0,10,,,,,,,,3,,,,62,0
99188,note_on,20,0,11,,,,,,,,3,,,,38,0
99216,note_on,28,0,10,,,,,,,,3,,,,60,64
99216,note_on,28,0,11,,,,,,,,3,,,,36,64
99236,note_on,20,0,10,,,,,,,,3,,,,60,0
99236,note_on,20,0,11,,,,,,,,3,,,,36,0
99264,note_on,103,0,4,,,,,,,,1,,,,62,64
99264,note_on,28,0,10,,,,,,,,3,,,,58,64
99264,note_on,103,0,1,,,,,,,,0,,,,82,64
99264,note_on,103,0,3,,,,,,,,1,,,,70,64
99264,note_on,0,0,9,,,,,,,,3,,,,63,64
99264,note_on,103,0,9,,,,,,,,3,,,,74,64
99264,note_on,28,0,11,,,,,,,,3,,,,34,64
99264,note_on,103,0,2,,,,,,,,0,,,,74,64
99264,note_on,0,0,8,,,,,,,,3,,,,74,64
99264,note_on,103,0,8,,,,,,,,3,,,,82,64
99264,note_on,0,0,8,,,,,,,,3,,,,65,64
99284,note_on,20,0,11,,,,,,,,3,,,,34,0
99284,note_on,20,0,10,,,,,,,,3,,,,58,0
99312,note_on,28,0,11,,,,,,,,3,,,,36,64
99312,note_on,28,0,10,,,,,,,,3,,,,60,64
99332,note_on,20,0,10,,,,,,,,3,,,,60,0
99332,note_on,20,0,11,,,,,,,,3,,,,36,0
99353,note_on,89,0,8,,,,,,,,3,,,,65,0
99353,note_on,0,0,8,,,,,,,,3,,,,74,0
99353,note_on,89,0,3,,,,,,,,1,,,,70,0
99353,note_on,89,0,2,,,,,,,,0,,,,74,0
99353,note_on,0,0,8,,,,,,,,3,,,,82,0
99353,note_on,89,0,1,,,,,,,,0,,,,82,0
99353,note_on,89,0,9,,,,,,,,3,,,,63,0
99353,note_on,89,0,4,,,,,,,,1,,,,62,0
99353,note_on,0,0,9,,,,,,,,3,,,,74,0
99360,note_on,28,0,11,,,,,,,,3,,,,38,64
99360,note_on,28,0,10,,,,,,,,3,,,,62,64
99380,note_on,20,0,11,,,,,,,,3,,,,38,0
99380,note_on,20,0,10,,,,,,,,3,,,,62,0
99408,note_on,28,0,11,,,,,,,,3,,,,34,64
99408,note_on,28,0,10,,,,,,,,3,,,,58,64
99428,note_on,20,0,10,,,,,,,,3,,,,58,0
99428,note_on,20,0,11,,,,,,,,3,,,,34,0
99456,note_on,103,0,4,,,,,,,,1,,,,58,64
99456,note_on,28,0,10,,,,,,,,3,,,,63,64
99456,note_on,28,0,11,,,,,,,,3,,,,39,64
99456,note_on,103,0,3,,,,,,,,1,,,,70,64
99456,note_on,103,0,1,,,,,,,,0,,,,79,64
99456,note_on,103,0,8,,,,,,,,3,,,,63,64
99456,note_on,103,0,2,,,,,,,,0,,,,70,64
99456,note_on,103,0,9,,,,,,,,3,,,,63,64
99545,note_on,89,0,11,,,,,,,,3,,,,39,0
99545,note_on,89,0,8,,,,,,,,3,,,,63,0
99545,note_on,89,0,10,,,,,,,,3,,,,63,0
99545,note_on,89,0,9,,,,,,,,3,,,,63,0
99552,note_on,7,0,9,,,,,,,,3,,,,79,64
99552,note_on,7,0,8,,,,,,,,3,,,,79,64
99641,note_on,89,0,9,,,,,,,,3,,,,79,0
99641,note_on,89,0,8,,,,,,,,3,,,,79,0
99648,note_on,7,0,9,,,,,,,,3,,,,64,64
99648,note_on,103,0,10,,,,,,,,3,,,,64,64
99648,note_on,7,0,8,,,,,,,,3,,,,64,64
99648,note_on,103,0,11,,,,,,,,3,,,,40,64
99737,note_on,89,0,9,,,,,,,,3,,,,64,0
99737,note_on,89,0,11,,,,,,,,3,,,,40,0
99737,note_on,89,0,10,,,,,,,,3,,,,64,0
99737,note_on,89,0,8,,,,,,,,3,,,,64,0
99744,note_on,7,0,8,,,,,,,,3,,,,82,64
99744,note_on,7,0,9,,,,,,,,3,,,,82,64
99810,note_on,354,0,3,,,,,,,,1,,,,70,0
99810,note_on,354,0,1,,,,,,,,0,,,,79,0
99810,note_on,354,0,4,,,,,,,,1,,,,58,0
99810,note_on,354,0,2,,,,,,,,0,,,,70,0
99833,note_on,89,0,8,,,,,,,,3,,,,82,0
99833,note_on,89,0,9,,,,,,,,3,,,,82,0
99840,note_on,103,0,10,,,,,,,,3,,,,65,64
99840,note_on,2599,0,6,,,,,,,,2,,,,53,49
99840,note_on,7,0,9,,,,,,,,3,,,,63,64
99840,note_on,0,0,5,,,,,,,,2,,,,74,49
99840,note_on,2599,0,5,,,,,,,,2,,,,77,49
99840,note_on,30,0,1,,,,,,,,0,,,,74,64
99840,note_on,30,0,4,,,,,,,,1,,,,65,64
99840,note_on,30,0,2,,,,,,,,0,,,,70,64
99840,note_on,7,0,8,,,,,,,,3,,,,65,64
99840,note_on,103,0,11,,,,,,,,3,,,,41,64
99840,note_on,30,0,3,,,,,,,,1,,,,65,64
100017,note_on,177,0,11,,,,,,,,3,,,,41,0
100017,note_on,177,0,10,,,,,,,,3,,,,65,0
100017,note_on,177,0,6,,,,,,,,2,,,,53,0
100017,note_on,177,0,9,,,,,,,,3,,,,63,0
100017,note_on,177,0,3,,,,,,,,1,,,,65,0
100017,note_on,177,0,8,,,,,,,,3,,,,65,0
100017,note_on,177,0,2,,,,,,,,0,,,,70,0
100017,note_on,177,0,4,,,,,,,,1,,,,65,0
100017,note_on,177,0,1,,,,,,,,0,,,,74,0
100017,note_on,177,0,5,,,,,,,,2,,,,74,0
100017,note_on,0,0,5,,,,,,,,2,,,,77,0
100032,note_on,15,0,5,,,,,,,,2,,,,76,49
100032,note_on,15,0,6,,,,,,,,2,,,,62,49
100038,note_on,6,0,5,,,,,,,,2,,,,76,0
100038,note_on,0,0,5,,,,,,,,2,,,,77,49
100077,note_on,39,0,5,,,,,,,,2,,,,77,0
100077,note_on,45,0,6,,,,,,,,2,,,,62,0
100080,note_on,3,0,5,,,,,,,,2,,,,79,49
100080,note_on,3,0,6,,,,,,,,2,,,,63,49
100125,note_on,45,0,5,,,,,,,,2,,,,79,0
100125,note_on,45,0,6,,,,,,,,2,,,,63,0
100128,note_on,3,0,6,,,,,,,,2,,,,60,49
100128,note_on,3,0,5,,,,,,,,2,,,,75,49
100173,note_on,45,0,6,,,,,,,,2,,,,60,0
100173,note_on,45,0,5,,,,,,,,2,,,,75,0
100176,note_on,3,0,6,,,,,,,,2,,,,62,49
100176,note_on,3,0,5,,,,,,,,2,,,,77,49
100221,note_on,45,0,6,,,,,,,,2,,,,62,0
100221,note_on,45,0,5,,,,,,,,2,,,,77,0
100224,note_on,3,0,5,,,,,,,,2,,,,74,49
100224,note_on,207,0,10,,,,,,,,3,,,,58,49
100224,note_on,3,0,6,,,,,,,,2,,,,58,49
100224,note_on,207,0,11,,,,,,,,3,,,,46,49
100313,note_on,89,0,11,,,,,,,,3,,,,46,0
100313,note_on,89,0,5,,,,,,,,2,,,,74,0
100313,note_on,89,0,6,,,,,,,,2,,,,58,0
100320,note_on,303,0,8,,,,,,,,3,,,,65,49
100320,note_on,303,0,9,,,,,,,,3,,,,62,49
100359,note_on,39,0,9,,,,,,,,3,,,,62,0
100359,note_on,39,0,8,,,,,,,,3,,,,65,0
100416,note_on,57,0,8,,,,,,,,3,,,,65,49
100416,note_on,103,0,5,,,,,,,,2,,,,74,49
100416,note_on,57,0,9,,,,,,,,3,,,,62,49
100416,note_on,103,0,6,,,,,,,,2,,,,65,49
100461,note_on,45,0,5,,,,,,,,2,,,,74,0
100461,note_on,45,0,6,,,,,,,,2,,,,65,0
100464,note_on,3,0,5,,,,,,,,2,,,,75,49
100464,note_on,3,0,6,,,,,,,,2,,,,67,49
100505,note_on,89,0,8,,,,,,,,3,,,,65,0
100505,note_on,89,0,9,,,,,,,,3,,,,62,0
100509,note_on,45,0,6,,,,,,,,2,,,,67,0
100509,note_on,45,0,5,,,,,,,,2,,,,75,0
100512,note_on,7,0,8,,,,,,,,3,,,,70,49
100512,note_on,3,0,5,,,,,,,,2,,,,72,49
100512,note_on,3,0,6,,,,,,,,2,,,,63,49
100512,note_on,7,0,9,,,,,,,,3,,,,65,49
100557,note_on,45,0,5,,,,,,,,2,,,,72,0
100557,note_on,45,0,6,,,,,,,,2,,,,63,0
100560,note_on,3,0,6,,,,,,,,2,,,,65,49
100560,note_on,3,0,5,,,,,,,,2,,,,74,49
100578,note_on,354,0,10,,,,,,,,3,,,,58,0
100601,note_on,89,0,9,,,,,,,,3,,,,65,0
100601,note_on,89,0,8,,,,,,,,3,,,,70,0
100605,note_on,45,0,5,,,,,,,,2,,,,74,0
100605,note_on,45,0,6,,,,,,,,2,,,,65,0
100608,note_on,3,0,6,,,,,,,,2,,,,62,49
100608,note_on,295,0,11,,,,,,,,3,,,,34,49
100608,note_on,3,0,5,,,,,,,,2,,,,70,49
100608,note_on,30,0,10,,,,,,,,3,,,,70,49
100697,note_on,89,0,11,,,,,,,,3,,,,34,0
100697,note_on,89,0,6,,,,,,,,2,,,,62,0
100697,note_on,89,0,5,,,,,,,,2,,,,70,0
100704,note_on,103,0,8,,,,,,,,3,,,,70,49
100704,note_on,103,0,9,,,,,,,,3,,,,62,49
100743,note_on,39,0,8,,,,,,,,3,,,,70,0
100743,note_on,39,0,9,,,,,,,,3,,,,62,0
100800,note_on,57,0,9,,,,,,,,3,,,,62,49
100800,note_on,57,0,8,,,,,,,,3,,,,70,49
100800,note_on,103,0,5,,,,,,,,2,,,,70,49
100845,note_on,45,0,5,,,,,,,,2,,,,70,0
100848,note_on,3,0,5,,,,,,,,2,,,,72,49
100889,note_on,89,0,9,,,,,,,,3,,,,62,0
100889,note_on,89,0,8,,,,,,,,3,,,,70,0
100893,note_on,45,0,5,,,,,,,,2,,,,72,0
100896,note_on,3,0,5,,,,,,,,2,,,,69,49
100896,note_on,7,0,8,,,,,,,,3,,,,74,49
100896,note_on,0,0,6,,,,,,,,2,,,,46,49
100896,note_on,7,0,9,,,,,,,,3,,,,65,49
100896,note_on,199,0,6,,,,,,,,2,,,,58,49
100941,note_on,45,0,5,,,,,,,,2,,,,69,0
100944,note_on,3,0,5,,,,,,,,2,,,,70,49
100962,note_on,354,0,10,,,,,,,,3,,,,70,0
100985,note_on,89,0,9,,,,,,,,3,,,,65,0
100985,note_on,89,0,8,,,,,,,,3,,,,74,0
100989,note_on,45,0,5,,,,,,,,2,,,,70,0
100992,note_on,96,0,6,,,,,,,,2,,,,46,0
100992,note_on,30,0,10,,,,,,,,3,,,,58,49
100992,note_on,295,0,11,,,,,,,,3,,,,39,49
100992,note_on,18255,0,7,,,,,,,,2,,,,51,49
100992,note_on,3,0,5,,,,,,,,2,,,,67,49
101081,note_on,89,0,11,,,,,,,,3,,,,39,0
101081,note_on,89,0,6,,,,,,,,2,,,,58,0
101081,note_on,89,0,5,,,,,,,,2,,,,67,0
101081,note_on,89,0,10,,,,,,,,3,,,,58,0
101088,note_on,7,0,6,,,,,,,,2,,,,55,49
101088,note_on,7,0,5,,,,,,,,2,,,,75,49
101088,note_on,103,0,9,,,,,,,,3,,,,55,49
101088,note_on,103,0,8,,,,,,,,3,,,,63,49
101127,note_on,39,0,9,,,,,,,,3,,,,55,0
101127,note_on,39,0,8,,,,,,,,3,,,,63,0
101169,note_on,177,0,7,,,,,,,,2,,,,51,0
101184,note_on,15,0,7,,,,,,,,2,,,,48,49
101184,note_on,57,0,9,,,,,,,,3,,,,55,49
101184,note_on,103,0,11,,,,,,,,3,,,,36,49
101184,note_on,103,0,10,,,,,,,,3,,,,60,49
101184,note_on,57,0,8,,,,,,,,3,,,,63,49
101265,note_on,177,0,5,,,,,,,,2,,,,75,0
101265,note_on,177,0,6,,,,,,,,2,,,,55,0
101273,note_on,89,0,8,,,,,,,,3,,,,63,0
101273,note_on,89,0,11,,,,,,,,3,,,,36,0
101273,note_on,89,0,10,,,,,,,,3,,,,60,0
101273,note_on,89,0,9,,,,,,,,3,,,,55,0
101273,note_on,89,0,7,,,,,,,,2,,,,48,0
101280,note_on,7,0,8,,,,,,,,3,,,,67,49
101280,note_on,15,0,6,,,,,,,,2,,,,60,49
101280,note_on,15,0,5,,,,,,,,2,,,,72,49
101280,note_on,7,0,9,,,,,,,,3,,,,63,49
101280,note_on,7,0,7,,,,,,,,2,,,,51,49
101369,note_on,89,0,7,,,,,,,,2,,,,51,0
101369,note_on,89,0,5,,,,,,,,2,,,,72,0
101369,note_on,89,0,8,,,,,,,,3,,,,67,0
101369,note_on,89,0,9,,,,,,,,3,,,,63,0
101369,note_on,89,0,6,,,,,,,,2,,,,60,0
101376,note_on,103,0,10,,,,,,,,3,,,,60,49
101376,note_on,7,0,7,,,,,,,,2,,,,53,49
101376,note_on,103,0,11,,,,,,,,3,,,,41,49
101376,note_on,7,0,5,,,,,,,,2,,,,70,49
101376,note_on,7,0,6,,,,,,,,2,,,,60,49
101382,note_on,6,0,5,,,,,,,,2,,,,70,0
101382,note_on,0,0,5,,,,,,,,2,,,,69,49
101465,note_on,89,0,11,,,,,,,,3,,,,41,0
101465,end_of_track,0,1,7,,,,,,,,,,,,,
101465,note_on,83,0,5,,,,,,,,2,,,,69,0
101465,note_on,89,0,6,,,,,,,,2,,,,60,0
101465,note_on,89,0,7,,,,,,,,2,,,,53,0
101472,note_on,103,0,9,,,,,,,,3,,,,57,49
101472,note_on,7,0,5,,,,,,,,2,,,,72,49
101472,note_on,103,0,8,,,,,,,,3,,,,60,49
101511,note_on,39,0,9,,,,,,,,3,,,,57,0
101511,note_on,39,0,8,,,,,,,,3,,,,60,0
101517,note_on,45,0,5,,,,,,,,2,,,,72,0
101520,note_on,3,0,5,,,,,,,,2,,,,69,49
101553,note_on,177,0,10,,,,,,,,3,,,,60,0
101565,note_on,45,0,5,,,,,,,,2,,,,69,0
101568,note_on,3,0,5,,,,,,,,2,,,,77,49
101568,note_on,103,0,6,,,,,,,,2,,,,57,49
101568,note_on,57,0,8,,,,,,,,3,,,,60,49
101568,note_on,57,0,9,,,,,,,,3,,,,57,49
101613,note_on,45,0,6,,,,,,,,2,,,,57,0
101613,note_on,45,0,5,,,,,,,,2,,,,77,0
101616,note_on,3,0,6,,,,,,,,2,,,,58,49
101616,note_on,3,0,5,,,,,,,,2,,,,79,49
101657,note_on,89,0,9,,,,,,,,3,,,,57,0
101657,note_on,89,0,8,,,,,,,,3,,,,60,0
101661,note_on,45,0,6,,,,,,,,2,,,,58,0
101661,note_on,45,0,5,,,,,,,,2,,,,79,0
101664,note_on,3,0,6,,,,,,,,2,,,,60,49
101664,note_on,7,0,8,,,,,,,,3,,,,69,49
101664,note_on,3,0,5,,,,,,,,2,,,,75,49
101664,note_on,7,0,9,,,,,,,,3,,,,60,49
101709,note_on,45,0,5,,,,,,,,2,,,,75,0
101709,note_on,45,0,6,,,,,,,,2,,,,60,0
101712,note_on,3,0,5,,,,,,,,2,,,,77,49
101712,note_on,3,0,6,,,,,,,,2,,,,62,49
101753,note_on,89,0,8,,,,,,,,3,,,,69,0
101753,note_on,89,0,9,,,,,,,,3,,,,60,0
101757,note_on,45,0,6,,,,,,,,2,,,,62,0
101757,note_on,45,0,5,,,,,,,,2,,,,77,0
101760,note_on,3,0,6,,,,,,,,2,,,,58,49
101760,note_on,295,0,11,,,,,,,,3,,,,46,49
101760,note_on,207,0,10,,,,,,,,3,,,,58,49
101760,note_on,3,0,5,,,,,,,,2,,,,74,49
101849,note_on,89,0,6,,,,,,,,2,,,,58,0
101849,note_on,89,0,5,,,,,,,,2,,,,74,0
101849,note_on,89,0,11,,,,,,,,3,,,,46,0
101856,note_on,103,0,8,,,,,,,,3,,,,65,49
101856,note_on,103,0,9,,,,,,,,3,,,,62,49
101895,note_on,39,0,9,,,,,,,,3,,,,62,0
101895,note_on,39,0,8,,,,,,,,3,,,,65,0
101952,note_on,103,0,6,,,,,,,,2,,,,65,49
101952,note_on,57,0,9,,,,,,,,3,,,,62,49
101952,note_on,103,0,5,,,,,,,,2,,,,74,49
101952,note_on,57,0,8,,,,,,,,3,,,,65,49
101997,note_on,45,0,6,,,,,,,,2,,,,65,0
101997,note_on,45,0,5,,,,,,,,2,,,,74,0
102000,note_on,3,0,5,,,,,,,,2,,,,75,49
102000,note_on,3,0,6,,,,,,,,2,,,,67,49
102041,note_on,89,0,9,,,,,,,,3,,,,62,0
102041,note_on,89,0,8,,,,,,,,3,,,,65,0
102045,note_on,45,0,5,,,,,,,,2,,,,75,0
102045,note_on,45,0,6,,,,,,,,2,,,,67,0
102048,note_on,3,0,5,,,,,,,,2,,,,72,49
102048,note_on,3,0,6,,,,,,,,2,,,,63,49
102048,note_on,7,0,8,,,,,,,,3,,,,70,49
102048,note_on,7,0,9,,,,,,,,3,,,,65,49
102093,note_on,45,0,5,,,,,,,,2,,,,72,0
102093,note_on,45,0,6,,,,,,,,2,,,,63,0
102096,note_on,3,0,6,,,,,,,,2,,,,65,49
102096,note_on,3,0,5,,,,,,,,2,,,,74,49
102114,note_on,354,0,10,,,,,,,,3,,,,58,0
102137,note_on,89,0,9,,,,,,,,3,,,,65,0
102137,note_on,89,0,8,,,,,,,,3,,,,70,0
102141,note_on,45,0,5,,,,,,,,2,,,,74,0
102141,note_on,45,0,6,,,,,,,,2,,,,65,0
102144,note_on,3,0,5,,,,,,,,2,,,,70,49
102144,note_on,30,0,10,,,,,,,,3,,,,70,49
102144,note_on,295,0,11,,,,,,,,3,,,,34,49
102144,note_on,3,0,6,,,,,,,,2,,,,62,49
102233,note_on,89,0,6,,,,,,,,2,,,,62,0
102233,note_on,89,0,11,,,,,,,,3,,,,34,0
102233,note_on,89,0,5,,,,,,,,2,,,,70,0
102240,note_on,103,0,8,,,,,,,,3,,,,70,49
102240,note_on,103,0,9,,,,,,,,3,,,,62,49
102279,note_on,39,0,8,,,,,,,,3,,,,70,0
102279,note_on,39,0,9,,,,,,,,3,,,,62,0
102336,note_on,57,0,8,,,,,,,,3,,,,70,49
102336,note_on,103,0,5,,,,,,,,2,,,,70,49
102336,note_on,57,0,9,,,,,,,,3,,,,62,49
102381,note_on,45,0,5,,,,,,,,2,,,,70,0
102384,note_on,3,0,5,,,,,,,,2,,,,72,49
102425,note_on,89,0,8,,,,,,,,3,,,,70,0
102425,note_on,89,0,9,,,,,,,,3,,,,62,0
102429,note_on,45,0,5,,,,,,,,2,,,,72,0
102432,note_on,199,0,6,,,,,,,,2,,,,58,49
102432,note_on,7,0,8,,,,,,,,3,,,,74,49
102432,note_on,3,0,5,,,,,,,,2,,,,69,49
102432,note_on,7,0,9,,,,,,,,3,,,,65,49
102477,note_on,45,0,5,,,,,,,,2,,,,69,0
102480,note_on,3,0,5,,,,,,,,2,,,,70,49
102498,note_on,354,0,10,,,,,,,,3,,,,70,0
102521,note_on,89,0,9,,,,,,,,3,,,,65,0
102521,note_on,89,0,8,,,,,,,,3,,,,74,0
102525,note_on,45,0,5,,,,,,,,2,,,,70,0
102528,note_on,30,0,10,,,,,,,,3,,,,58,49
102528,note_on,3,0,5,,,,,,,,2,,,,67,49
102528,note_on,295,0,11,,,,,,,,3,,,,39,49
102573,note_on,45,0,5,,,,,,,,2,,,,67,0
102576,note_on,3,0,5,,,,,,,,2,,,,72,49
102617,note_on,185,0,6,,,,,,,,2,,,,58,0
102617,note_on,89,0,10,,,,,,,,3,,,,58,0
102621,note_on,45,0,5,,,,,,,,2,,,,72,0
102624,note_on,7,0,6,,,,,,,,2,,,,60,49
102624,note_on,103,0,9,,,,,,,,3,,,,67,49
102624,note_on,103,0,8,,,,,,,,3,,,,75,49
102624,note_on,3,0,5,,,,,,,,2,,,,75,49
102624,note_on,7,0,10,,,,,,,,3,,,,60,49
102669,note_on,45,0,5,,,,,,,,2,,,,75,0
102672,note_on,3,0,5,,,,,,,,2,,,,72,49
102705,note_on,177,0,11,,,,,,,,3,,,,39,0
102713,note_on,89,0,8,,,,,,,,3,,,,75,0
102713,note_on,89,0,9,,,,,,,,3,,,,67,0
102717,note_on,45,0,5,,,,,,,,2,,,,72,0
102720,note_on,3,0,5,,,,,,,,2,,,,70,49
102720,note_on,15,0,11,,,,,,,,3,,,,41,49
102726,note_on,6,0,5,,,,,,,,2,,,,70,0
102726,note_on,0,0,5,,,,,,,,2,,,,69,49
102801,note_on,177,0,6,,,,,,,,2,,,,60,0
102801,note_on,177,0,10,,,,,,,,3,,,,60,0
102809,note_on,83,0,5,,,,,,,,2,,,,69,0
102816,note_on,15,0,6,,,,,,,,2,,,,62,49
102816,note_on,15,0,10,,,,,,,,3,,,,60,49
102816,note_on,7,0,5,,,,,,,,2,,,,67,49
102816,note_on,103,0,8,,,,,,,,3,,,,69,49
102816,note_on,103,0,9,,,,,,,,3,,,,63,49
102861,note_on,45,0,5,,,,,,,,2,,,,67,0
102864,note_on,3,0,5,,,,,,,,2,,,,69,49
102897,note_on,177,0,11,,,,,,,,3,,,,41,0
102905,note_on,89,0,10,,,,,,,,3,,,,60,0
102905,note_on,89,0,9,,,,,,,,3,,,,63,0
102905,note_on,89,0,8,,,,,,,,3,,,,69,0
102905,note_on,89,0,6,,,,,,,,2,,,,62,0
102909,note_on,45,0,5,,,,,,,,2,,,,69,0
102912,note_on,7,0,10,,,,,,,,3,,,,58,49
102912,note_on,0,0,6,,,,,,,,2,,,,58,49
102912,note_on,7,0,6,,,,,,,,2,,,,62,49
102912,note_on,7,0,8,,,,,,,,3,,,,70,49
102912,note_on,7,0,9,,,,,,,,3,,,,62,49
102912,note_on,3,0,5,,,,,,,,2,,,,70,49
102912,note_on,15,0,11,,,,,,,,3,,,,34,49
103001,note_on,89,0,6,,,,,,,,2,,,,58,0
103001,note_on,0,0,6,,,,,,,,2,,,,62,0
103001,note_on,89,0,8,,,,,,,,3,,,,70,0
103001,end_of_track,0,1,5,,,,,,,,,,,,,
103001,note_on,89,0,11,,,,,,,,3,,,,34,0
103001,note_on,89,0,5,,,,,,,,2,,,,70,0
103001,note_on,89,0,9,,,,,,,,3,,,,62,0
103001,note_on,89,0,10,,,,,,,,3,,,,58,0
103008,note_on,7,0,6,,,,,,,,2,,,,46,49
103008,note_on,7,0,8,,,,,,,,3,,,,58,49
103097,end_of_track,0,1,6,,,,,,,,,,,,,
103097,note_on,89,0,6,,,,,,,,2,,,,46,0
103097,note_on,89,0,8,,,,,,,,3,,,,58,0
103104,note_on,3087,0,2,,,,,,,,0,,,,74,64
103104,note_on,3087,0,1,,,,,,,,0,,,,77,64
103104,note_on,7,0,8,,,,,,,,3,,,,77,64
103104,note_on,103,0,9,,,,,,,,3,,,,62,64
103149,note_on,45,0,9,,,,,,,,3,,,,62,0
103149,note_on,45,0,8,,,,,,,,3,,,,77,0
103152,note_on,3,0,9,,,,,,,,3,,,,63,64
103152,note_on,3,0,8,,,,,,,,3,,,,79,64
103193,note_on,89,0,1,,,,,,,,0,,,,77,0
103193,note_on,89,0,2,,,,,,,,0,,,,74,0
103197,note_on,45,0,8,,,,,,,,3,,,,79,0
103197,note_on,45,0,9,,,,,,,,3,,,,63,0
103200,note_on,7,0,1,,,,,,,,0,,,,75,64
103200,note_on,3,0,9,,,,,,,,3,,,,60,64
103200,note_on,3,0,8,,,,,,,,3,,,,75,64
103200,note_on,7,0,2,,,,,,,,0,,,,72,64
103245,note_on,45,0,8,,,,,,,,3,,,,75,0
103245,note_on,45,0,9,,,,,,,,3,,,,60,0
103248,note_on,3,0,8,,,,,,,,3,,,,77,64
103248,note_on,3,0,9,,,,,,,,3,,,,62,64
103289,note_on,89,0,1,,,,,,,,0,,,,75,0
103289,note_on,89,0,2,,,,,,,,0,,,,72,0
103293,note_on,45,0,8,,,,,,,,3,,,,77,0
103293,note_on,45,0,9,,,,,,,,3,,,,62,0
103296,note_on,3,0,9,,,,,,,,3,,,,58,64
103296,note_on,3279,0,4,,,,,,,,1,,,,58,64
103296,note_on,3,0,8,,,,,,,,3,,,,74,64
103296,note_on,7,0,2,,,,,,,,0,,,,70,64
103296,note_on,295,0,10,,,,,,,,3,,,,58,64
103296,note_on,3279,0,3,,,,,,,,1,,,,70,64
103296,note_on,7,0,1,,,,,,,,0,,,,74,64
103296,note_on,295,0,11,,,,,,,,3,,,,34,64
103385,note_on,89,0,10,,,,,,,,3,,,,58,0
103385,note_on,89,0,9,,,,,,,,3,,,,58,0
103385,note_on,89,0,1,,,,,,,,0,,,,74,0
103385,note_on,89,0,11,,,,,,,,3,,,,34,0
103385,note_on,89,0,2,,,,,,,,0,,,,70,0
103385,note_on,89,0,8,,,,,,,,3,,,,74,0
103392,note_on,7,0,10,,,,,,,,3,,,,70,64
103392,note_on,7,0,11,,,,,,,,3,,,,46,64
103481,note_on,89,0,10,,,,,,,,3,,,,70,0
103481,note_on,89,0,11,,,,,,,,3,,,,46,0
103488,note_on,7,0,11,,,,,,,,3,,,,46,64
103488,note_on,103,0,1,,,,,,,,0,,,,74,64
103488,note_on,103,0,2,,,,,,,,0,,,,65,64
103488,note_on,103,0,9,,,,,,,,3,,,,65,64
103488,note_on,103,0,8,,,,,,,,3,,,,74,64
103488,note_on,7,0,10,,,,,,,,3,,,,70,64
103533,note_on,45,0,8,,,,,,,,3,,,,74,0
103533,note_on,45,0,9,,,,,,,,3,,,,65,0
103536,note_on,3,0,8,,,,,,,,3,,,,75,64
103536,note_on,3,0,9,,,,,,,,3,,,,67,64
103577,note_on,89,0,1,,,,,,,,0,,,,74,0
103577,note_on,89,0,10,,,,,,,,3,,,,70,0
103577,note_on,89,0,11,,,,,,,,3,,,,46,0
103577,note_on,89,0,2,,,,,,,,0,,,,65,0
103581,note_on,45,0,8,,,,,,,,3,,,,75,0
103581,note_on,45,0,9,,,,,,,,3,,,,67,0
103584,note_on,3,0,9,,,,,,,,3,,,,63,64
103584,note_on,7,0,2,,,,,,,,0,,,,63,64
103584,note_on,7,0,11,,,,,,,,3,,,,46,64
103584,note_on,7,0,1,,,,,,,,0,,,,72,64
103584,note_on,7,0,10,,,,,,,,3,,,,70,64
103584,note_on,3,0,8,,,,,,,,3,,,,72,64
103629,note_on,45,0,8,,,,,,,,3,,,,72,0
103629,note_on,45,0,9,,,,,,,,3,,,,63,0
103632,note_on,3,0,9,,,,,,,,3,,,,65,64
103632,note_on,3,0,8,,,,,,,,3,,,,74,64
103673,note_on,89,0,2,,,,,,,,0,,,,63,0
103673,note_on,89,0,11,,,,,,,,3,,,,46,0
103673,note_on,89,0,1,,,,,,,,0,,,,72,0
103673,note_on,89,0,10,,,,,,,,3,,,,70,0
103677,note_on,45,0,8,,,,,,,,3,,,,74,0
103677,note_on,45,0,9,,,,,,,,3,,,,65,0
103680,note_on,7,0,1,,,,,,,,0,,,,70,64
103680,note_on,3,0,8,,,,,,,,3,,,,70,64
103680,note_on,3,0,9,,,,,,,,3,,,,62,64
103680,note_on,7,0,11,,,,,,,,3,,,,34,64
103680,note_on,7,0,2,,,,,,,,0,,,,62,64
103680,note_on,7,0,10,,,,,,,,3,,,,58,64
103769,note_on,89,0,11,,,,,,,,3,,,,34,0
103769,note_on,89,0,10,,,,,,,,3,,,,58,0
103769,note_on,89,0,1,,,,,,,,0,,,,70,0
103769,note_on,89,0,8,,,,,,,,3,,,,70,0
103769,note_on,89,0,9,,,,,,,,3,,,,62,0
103769,note_on,89,0,2,,,,,,,,0,,,,62,0
103776,note_on,7,0,10,,,,,,,,3,,,,70,64
103776,note_on,7,0,11,,,,,,,,3,,,,46,64
103865,note_on,89,0,11,,,,,,,,3,,,,46,0
103865,note_on,89,0,10,,,,,,,,3,,,,70,0
103872,note_on,103,0,9,,,,,,,,3,,,,62,64
103872,note_on,103,0,1,,,,,,,,0,,,,82,64
103872,note_on,7,0,10,,,,,,,,3,,,,70,64
103872,note_on,7,0,11,,,,,,,,3,,,,46,64
103872,note_on,103,0,8,,,,,,,,3,,,,70,64
103872,note_on,103,0,2,,,,,,,,0,,,,74,64
103917,note_on,45,0,8,,,,,,,,3,,,,70,0
103917,note_on,45,0,9,,,,,,,,3,,,,62,0
103920,note_on,3,0,8,,,,,,,,3,,,,72,64
103920,note_on,3,0,9,,,,,,,,3,,,,63,64
103961,note_on,89,0,1,,,,,,,,0,,,,82,0
103961,note_on,89,0,2,,,,,,,,0,,,,74,0
103961,note_on,89,0,11,,,,,,,,3,,,,46,0
103961,note_on,89,0,10,,,,,,,,3,,,,70,0
103965,note_on,45,0,8,,,,,,,,3,,,,72,0
103965,note_on,45,0,9,,,,,,,,3,,,,63,0
103968,note_on,3,0,8,,,,,,,,3,,,,69,64
103968,note_on,7,0,10,,,,,,,,3,,,,58,64
103968,note_on,7,0,1,,,,,,,,0,,,,81,64
103968,note_on,7,0,2,,,,,,,,0,,,,77,64
103968,note_on,3,0,9,,,,,,,,3,,,,65,64
103968,note_on,7,0,11,,,,,,,,3,,,,46,64
104013,note_on,45,0,8,,,,,,,,3,,,,69,0
104013,note_on,45,0,9,,,,,,,,3,,,,65,0
104016,note_on,3,0,9,,,,,,,,3,,,,67,64
104016,note_on,3,0,8,,,,,,,,3,,,,70,64
104034,note_on,738,0,4,,,,,,,,1,,,,58,0
104034,note_on,738,0,3,,,,,,,,1,,,,70,0
104057,note_on,89,0,2,,,,,,,,0,,,,77,0
104057,note_on,89,0,11,,,,,,,,3,,,,46,0
104057,note_on,89,0,10,,,,,,,,3,,,,58,0
104057,note_on,89,0,1,,,,,,,,0,,,,81,0
104061,note_on,45,0,9,,,,,,,,3,,,,67,0
104061,note_on,45,0,8,,,,,,,,3,,,,70,0
104064,note_on,7,0,10,,,,,,,,3,,,,58,64
104064,note_on,7,0,11,,,,,,,,3,,,,39,64
104064,note_on,3,0,9,,,,,,,,3,,,,63,64
104064,note_on,3,0,8,,,,,,,,3,,,,67,64
104064,note_on,7,0,1,,,,,,,,0,,,,79,64
104064,note_on,7,0,2,,,,,,,,0,,,,75,64
104153,note_on,89,0,1,,,,,,,,0,,,,79,0
104153,note_on,89,0,10,,,,,,,,3,,,,58,0
104153,note_on,89,0,9,,,,,,,,3,,,,63,0
104153,note_on,89,0,2,,,,,,,,0,,,,75,0
104153,note_on,89,0,8,,,,,,,,3,,,,67,0
104160,note_on,7,0,1,,,,,,,,0,,,,75,64
104160,note_on,7,0,2,,,,,,,,0,,,,67,64
104160,note_on,7,0,8,,,,,,,,3,,,,75,64
104160,note_on,7,0,9,,,,,,,,3,,,,67,64
104160,note_on,7,0,10,,,,,,,,3,,,,60,64
104241,note_on,177,0,11,,,,,,,,3,,,,39,0
104256,note_on,15,0,11,,,,,,,,3,,,,36,64
104337,note_on,177,0,9,,,,,,,,3,,,,67,0
104337,note_on,177,0,8,,,,,,,,3,,,,75,0
104337,note_on,177,0,2,,,,,,,,0,,,,67,0
104337,note_on,177,0,1,,,,,,,,0,,,,75,0
104337,note_on,177,0,10,,,,,,,,3,,,,60,0
104352,note_on,15,0,9,,,,,,,,3,,,,63,64
104352,note_on,15,0,2,,,,,,,,0,,,,63,64
104352,note_on,15,0,10,,,,,,,,3,,,,60,64
104352,note_on,15,0,8,,,,,,,,3,,,,72,64
104352,note_on,15,0,1,,,,,,,,0,,,,72,64
104433,note_on,177,0,11,,,,,,,,3,,,,36,0
104441,note_on,89,0,8,,,,,,,,3,,,,72,0
104441,note_on,89,0,2,,,,,,,,0,,,,63,0
104441,note_on,89,0,9,,,,,,,,3,,,,63,0
104441,note_on,89,0,10,,,,,,,,3,,,,60,0
104441,note_on,89,0,1,,,,,,,,0,,,,72,0
104448,note_on,7,0,1,,,,,,,,0,,,,69,64
104448,note_on,7,0,2,,,,,,,,0,,,,65,64
104448,note_on,7,0,8,,,,,,,,3,,,,70,64
104448,note_on,15,0,11,,,,,,,,3,,,,41,64
104448,note_on,7,0,10,,,,,,,,3,,,,65,64
104448,note_on,7,0,9,,,,,,,,3,,,,62,64
104454,note_on,0,0,9,,,,,,,,3,,,,60,64
104454,note_on,6,0,9,,,,,,,,3,,,,62,0
104454,note_on,0,0,8,,,,,,,,3,,,,69,64
104454,note_on,6,0,8,,,,,,,,3,,,,70,0
104537,note_on,89,0,1,,,,,,,,0,,,,69,0
104537,note_on,83,0,9,,,,,,,,3,,,,60,0
104537,note_on,83,0,8,,,,,,,,3,,,,69,0
104537,note_on,89,0,10,,,,,,,,3,,,,65,0
104537,note_on,89,0,2,,,,,,,,0,,,,65,0
104544,note_on,7,0,8,,,,,,,,3,,,,72,64
104544,note_on,510,0,4,,,,,,,,1,,,,65,64
104544,note_on,7,0,10,,,,,,,,3,,,,53,64
104544,note_on,7,0,9,,,,,,,,3,,,,57,64
104544,note_on,510,0,3,,,,,,,,1,,,,65,64
104589,note_on,45,0,8,,,,,,,,3,,,,72,0
104592,note_on,3,0,8,,,,,,,,3,,,,69,64
104625,note_on,177,0,11,,,,,,,,3,,,,41,0
104633,note_on,89,0,3,,,,,,,,1,,,,65,0
104633,note_on,89,0,10,,,,,,,,3,,,,53,0
104633,note_on,89,0,9,,,,,,,,3,,,,57,0
104633,note_on,89,0,4,,,,,,,,1,,,,65,0
104637,note_on,45,0,8,,,,,,,,3,,,,69,0
104640,note_on,7,0,9,,,,,,,,3,,,,69,64
104640,note_on,103,0,1,,,,,,,,0,,,,77,64
104640,note_on,7,0,4,,,,,,,,1,,,,65,64
104640,note_on,7,0,3,,,,,,,,1,,,,65,64
104640,note_on,7,0,10,,,,,,,,3,,,,65,64
104640,note_on,103,0,2,,,,,,,,0,,,,69,64
104640,note_on,3,0,8,,,,,,,,3,,,,77,64
104685,note_on,45,0,9,,,,,,,,3,,,,69,0
104685,note_on,45,0,8,,,,,,,,3,,,,77,0
104688,note_on,3,0,9,,,,,,,,3,,,,70,64
104688,note_on,3,0,8,,,,,,,,3,,,,79,64
104729,note_on,89,0,10,,,,,,,,3,,,,65,0
104729,note_on,89,0,1,,,,,,,,0,,,,77,0
104729,note_on,89,0,3,,,,,,,,1,,,,65,0
104729,note_on,89,0,2,,,,,,,,0,,,,69,0
104729,note_on,89,0,4,,,,,,,,1,,,,65,0
104733,note_on,45,0,9,,,,,,,,3,,,,70,0
104733,note_on,45,0,8,,,,,,,,3,,,,79,0
104736,note_on,7,0,1,,,,,,,,0,,,,81,64
104736,note_on,3,0,9,,,,,,,,3,,,,72,64
104736,note_on,7,0,4,,,,,,,,1,,,,65,64
104736,note_on,7,0,10,,,,,,,,3,,,,65,64
104736,note_on,7,0,3,,,,,,,,1,,,,65,64
104736,note_on,7,0,2,,,,,,,,0,,,,75,64
104736,note_on,111,0,11,,,,,,,,3,,,,41,64
104736,note_on,3,0,8,,,,,,,,3,,,,75,64
104781,note_on,45,0,8,,,,,,,,3,,,,75,0
104781,note_on,45,0,9,,,,,,,,3,,,,72,0
104784,note_on,3,0,9,,,,,,,,3,,,,69,64
104784,note_on,3,0,8,,,,,,,,3,,,,77,64
104825,note_on,89,0,2,,,,,,,,0,,,,75,0
104825,note_on,89,0,11,,,,,,,,3,,,,41,0
104825,note_on,89,0,3,,,,,,,,1,,,,65,0
104825,note_on,89,0,1,,,,,,,,0,,,,81,0
104825,note_on,89,0,4,,,,,,,,1,,,,65,0
104829,note_on,45,0,9,,,,,,,,3,,,,69,0
104829,note_on,45,0,8,,,,,,,,3,,,,77,0
104832,note_on,7,0,1,,,,,,,,0,,,,82,64
104832,note_on,7,0,11,,,,,,,,3,,,,46,64
104832,note_on,3,0,9,,,,,,,,3,,,,70,64
104832,note_on,7,0,4,,,,,,,,1,,,,70,64
104832,note_on,7,0,3,,,,,,,,1,,,,70,64
104832,note_on,3,0,8,,,,,,,,3,,,,74,64
104832,note_on,7,0,2,,,,,,,,0,,,,74,64
104921,note_on,89,0,1,,,,,,,,0,,,,82,0
104921,note_on,89,0,4,,,,,,,,1,,,,70,0
104921,note_on,89,0,3,,,,,,,,1,,,,70,0
104921,note_on,185,0,10,,,,,,,,3,,,,65,0
104921,note_on,89,0,8,,,,,,,,3,,,,74,0
104921,note_on,89,0,2,,,,,,,,0,,,,74,0
104921,note_on,89,0,9,,,,,,,,3,,,,70,0
104921,note_on,89,0,11,,,,,,,,3,,,,46,0
104928,note_on,7,0,4,,,,,,,,1,,,,65,64
104928,note_on,7,0,11,,,,,,,,3,,,,41,64
104928,note_on,7,0,10,,,,,,,,3,,,,65,64
104928,note_on,7,0,3,,,,,,,,1,,,,65,64
105017,note_on,89,0,4,,,,,,,,1,,,,65,0
105017,note_on,89,0,11,,,,,,,,3,,,,41,0
105017,note_on,89,0,3,,,,,,,,1,,,,65,0
105024,note_on,103,0,2,,,,,,,,0,,,,77,64
105024,note_on,7,0,11,,,,,,,,3,,,,38,64
105024,note_on,103,0,8,,,,,,,,3,,,,74,64
105024,note_on,7,0,4,,,,,,,,1,,,,62,64
105024,note_on,103,0,1,,,,,,,,0,,,,82,64
105024,note_on,7,0,3,,,,,,,,1,,,,62,64
105024,note_on,103,0,9,,,,,,,,3,,,,65,64
105069,note_on,45,0,8,,,,,,,,3,,,,74,0
105069,note_on,45,0,9,,,,,,,,3,,,,65,0
105072,note_on,3,0,9,,,,,,,,3,,,,67,64
105072,note_on,3,0,8,,,,,,,,3,,,,75,64
105105,note_on,177,0,10,,,,,,,,3,,,,65,0
105113,note_on,89,0,4,,,,,,,,1,,,,62,0
105113,note_on,89,0,11,,,,,,,,3,,,,38,0
105113,note_on,89,0,3,,,,,,,,1,,,,62,0
105113,note_on,89,0,1,,,,,,,,0,,,,82,0
105113,note_on,89,0,2,,,,,,,,0,,,,77,0
105117,note_on,45,0,9,,,,,,,,3,,,,67,0
105117,note_on,45,0,8,,,,,,,,3,,,,75,0
105120,note_on,15,0,10,,,,,,,,3,,,,65,64
105120,note_on,7,0,2,,,,,,,,0,,,,81,64
105120,note_on,3,0,9,,,,,,,,3,,,,63,64
105120,note_on,3,0,8,,,,,,,,3,,,,72,64
105120,note_on,7,0,3,,,,,,,,1,,,,65,64
105120,note_on,7,0,4,,,,,,,,1,,,,65,64
105120,note_on,7,0,1,,,,,,,,0,,,,84,64
105120,note_on,7,0,11,,,,,,,,3,,,,41,64
105165,note_on,45,0,8,,,,,,,,3,,,,72,0
105165,note_on,45,0,9,,,,,,,,3,,,,63,0
105168,note_on,3,0,9,,,,,,,,3,,,,65,64
105168,note_on,3,0,8,,,,,,,,3,,,,74,64
105209,note_on,89,0,3,,,,,,,,1,,,,65,0
105209,note_on,89,0,4,,,,,,,,1,,,,65,0
105209,note_on,89,0,2,,,,,,,,0,,,,81,0
105209,note_on,89,0,1,,,,,,,,0,,,,84,0
105209,note_on,89,0,11,,,,,,,,3,,,,41,0
105213,note_on,45,0,9,,,,,,,,3,,,,65,0
105213,note_on,45,0,8,,,,,,,,3,,,,74,0
105216,note_on,7,0,1,,,,,,,,0,,,,86,64
105216,note_on,7,0,3,,,,,,,,1,,,,70,64
105216,note_on,3,0,9,,,,,,,,3,,,,62,64
105216,note_on,3,0,8,,,,,,,,3,,,,70,64
105216,note_on,7,0,4,,,,,,,,1,,,,58,64
105216,note_on,7,0,11,,,,,,,,3,,,,34,64
105216,note_on,7,0,2,,,,,,,,0,,,,82,64
105305,note_on,89,0,9,,,,,,,,3,,,,62,0
105305,note_on,89,0,3,,,,,,,,1,,,,70,0
105305,note_on,89,0,1,,,,,,,,0,,,,86,0
105305,note_on,89,0,4,,,,,,,,1,,,,58,0
105305,note_on,89,0,8,,,,,,,,3,,,,70,0
105305,note_on,89,0,11,,,,,,,,3,,,,34,0
105305,note_on,89,0,2,,,,,,,,0,,,,82,0
105305,note_on,185,0,10,,,,,,,,3,,,,65,0
105312,note_on,7,0,10,,,,,,,,3,,,,58,64
105312,note_on,7,0,11,,,,,,,,3,,,,46,64
105401,note_on,89,0,11,,,,,,,,3,,,,46,0
105401,note_on,89,0,10,,,,,,,,3,,,,58,0
105408,note_on,103,0,3,,,,,,,,1,,,,70,64
105408,note_on,103,0,4,,,,,,,,1,,,,58,64
105408,note_on,103,0,2,,,,,,,,0,,,,74,64
105408,note_on,103,0,1,,,,,,,,0,,,,82,64
105408,note_on,7,0,11,,,,,,,,3,,,,38,64
105408,note_on,7,0,10,,,,,,,,3,,,,62,64
105408,note_on,103,0,8,,,,,,,,3,,,,70,64
105408,note_on,103,0,9,,,,,,,,3,,,,70,64
105428,note_on,20,0,8,,,,,,,,3,,,,70,0
105428,note_on,20,0,9,,,,,,,,3,,,,70,0
105456,note_on,28,0,8,,,,,,,,3,,,,74,64
105456,note_on,28,0,9,,,,,,,,3,,,,74,64
105476,note_on,20,0,9,,,,,,,,3,,,,74,0
105476,note_on,20,0,8,,,,,,,,3,,,,74,0
105497,note_on,89,0,11,,,,,,,,3,,,,38,0
105497,note_on,89,0,10,,,,,,,,3,,,,62,0
105504,note_on,28,0,8,,,,,,,,3,,,,77,64
105504,note_on,28,0,9,,,,,,,,3,,,,77,64
105504,note_on,7,0,10,,,,,,,,3,,,,62,64
105504,note_on,7,0,11,,,,,,,,3,,,,38,64
105524,note_on,20,0,9,,,,,,,,3,,,,77,0
105524,note_on,20,0,8,,,,,,,,3,,,,77,0
105552,note_on,28,0,9,,,,,,,,3,,,,82,64
105552,note_on,28,0,8,,,,,,,,3,,,,82,64
105572,note_on,20,0,9,,,,,,,,3,,,,82,0
105572,note_on,20,0,8,,,,,,,,3,,,,82,0
105585,note_on,177,0,2,,,,,,,,0,,,,74,0
105585,note_on,177,0,1,,,,,,,,0,,,,82,0
105593,note_on,89,0,11,,,,,,,,3,,,,38,0
105593,note_on,89,0,10,,,,,,,,3,,,,62,0
105600,note_on,28,0,9,,,,,,,,3,,,,78,64
105600,note_on,7,0,10,,,,,,,,3,,,,63,64
105600,note_on,15,0,2,,,,,,,,0,,,,75,64
105600,note_on,15,0,1,,,,,,,,0,,,,79,64
105600,note_on,7,0,11,,,,,,,,3,,,,39,64
105600,note_on,28,0,8,,,,,,,,3,,,,78,64
105645,note_on,45,0,8,,,,,,,,3,,,,78,0
105645,note_on,45,0,9,,,,,,,,3,,,,78,0
105648,note_on,3,0,8,,,,,,,,3,,,,79,64
105648,note_on,3,0,9,,,,,,,,3,,,,79,64
105689,note_on,89,0,11,,,,,,,,3,,,,39,0
105689,note_on,89,0,10,,,,,,,,3,,,,63,0
105693,note_on,45,0,9,,,,,,,,3,,,,79,0
105693,note_on,45,0,8,,,,,,,,3,,,,79,0
105696,note_on,3,0,8,,,,,,,,3,,,,75,64
105696,note_on,3,0,9,,,,,,,,3,,,,75,64
105696,note_on,7,0,11,,,,,,,,3,,,,39,64
105696,note_on,7,0,10,,,,,,,,3,,,,63,64
105716,note_on,20,0,9,,,,,,,,3,,,,75,0
105716,note_on,20,0,8,,,,,,,,3,,,,75,0
105744,note_on,28,0,8,,,,,,,,3,,,,72,64
105744,note_on,28,0,9,,,,,,,,3,,,,72,64
105764,note_on,20,0,8,,,,,,,,3,,,,72,0
105764,note_on,20,0,9,,,,,,,,3,,,,72,0
105777,note_on,177,0,2,,,,,,,,0,,,,75,0
105777,note_on,369,0,4,,,,,,,,1,,,,58,0
105777,note_on,177,0,1,,,,,,,,0,,,,79,0
105777,note_on,369,0,3,,,,,,,,1,,,,70,0
105785,note_on,89,0,11,,,,,,,,3,,,,39,0
105785,note_on,89,0,10,,,,,,,,3,,,,63,0
105792,note_on,15,0,1,,,,,,,,0,,,,69,64
105792,note_on,15,0,4,,,,,,,,1,,,,65,64
105792,note_on,7,0,10,,,,,,,,3,,,,65,64
105792,note_on,28,0,9,,,,,,,,3,,,,74,64
105792,note_on,15,0,3,,,,,,,,1,,,,65,64
105792,note_on,15,0,2,,,,,,,,0,,,,63,64
105792,note_on,7,0,11,,,,,,,,3,,,,41,64
105792,note_on,28,0,8,,,,,,,,3,,,,74,64
105837,note_on,45,0,9,,,,,,,,3,,,,74,0
105837,note_on,45,0,8,,,,,,,,3,,,,74,0
105840,note_on,3,0,8,,,,,,,,3,,,,75,64
105840,note_on,3,0,9,,,,,,,,3,,,,75,64
105881,note_on,89,0,11,,,,,,,,3,,,,41,0
105881,note_on,89,0,10,,,,,,,,3,,,,65,0
105885,note_on,45,0,8,,,,,,,,3,,,,75,0
105885,note_on,45,0,9,,,,,,,,3,,,,75,0
105888,note_on,3,0,9,,,,,,,,3,,,,72,64
105888,note_on,7,0,10,,,,,,,,3,,,,65,64
105888,note_on,7,0,11,,,,,,,,3,,,,41,64
105888,note_on,3,0,8,,,,,,,,3,,,,72,64
105908,note_on,20,0,9,,,,,,,,3,,,,72,0
105908,note_on,20,0,8,,,,,,,,3,,,,72,0
105936,note_on,28,0,9,,,,,,,,3,,,,69,64
105936,note_on,28,0,8,,,,,,,,3,,,,69,64
105956,note_on,20,0,9,,,,,,,,3,,,,69,0
105956,note_on,20,0,8,,,,,,,,3,,,,69,0
105969,note_on,177,0,4,,,,,,,,1,,,,65,0
105969,note_on,177,0,3,,,,,,,,1,,,,65,0
105969,note_on,177,0,2,,,,,,,,0,,,,63,0
105969,note_on,177,0,1,,,,,,,,0,,,,69,0
105977,note_on,89,0,11,,,,,,,,3,,,,41,0
105977,note_on,89,0,10,,,,,,,,3,,,,65,0
105984,note_on,7,0,11,,,,,,,,3,,,,34,64
105984,note_on,15,0,4,,,,,,,,1,,,,58,64
105984,note_on,15,0,1,,,,,,,,0,,,,70,64
105984,note_on,7,0,10,,,,,,,,3,,,,58,64
105984,note_on,28,0,9,,,,,,,,3,,,,70,64
105984,note_on,28,0,8,,,,,,,,3,,,,70,64
105984,note_on,15,0,3,,,,,,,,1,,,,65,64
105984,note_on,15,0,2,,,,,,,,0,,,,62,64
106004,note_on,20,0,9,,,,,,,,3,,,,70,0
106032,note_on,28,0,9,,,,,,,,3,,,,69,64
106052,note_on,20,0,9,,,,,,,,3,,,,69,0
106073,note_on,89,0,8,,,,,,,,3,,,,70,0
106073,note_on,89,0,1,,,,,,,,0,,,,70,0
106073,note_on,89,0,4,,,,,,,,1,,,,58,0
106073,note_on,89,0,3,,,,,,,,1,,,,65,0
106073,note_on,89,0,2,,,,,,,,0,,,,62,0
106080,note_on,28,0,9,,,,,,,,3,,,,70,64
106100,note_on,20,0,9,,,,,,,,3,,,,70,0
106128,note_on,28,0,9,,,,,,,,3,,,,65,64
106148,note_on,20,0,9,,,,,,,,3,,,,65,0
106161,note_on,177,0,11,,,,,,,,3,,,,34,0
106161,note_on,177,0,10,,,,,,,,3,,,,58,0
106176,note_on,103,0,8,,,,,,,,3,,,,70,49
106176,note_on,28,0,9,,,,,,,,3,,,,62,49
106196,note_on,20,0,9,,,,,,,,3,,,,62,0
106224,note_on,28,0,9,,,,,,,,3,,,,60,49
106244,note_on,20,0,9,,,,,,,,3,,,,60,0
106265,note_on,89,0,8,,,,,,,,3,,,,70,0
106272,note_on,7,0,8,,,,,,,,3,,,,70,49
106272,note_on,28,0,9,,,,,,,,3,,,,62,49
106292,note_on,20,0,9,,,,,,,,3,,,,62,0
106320,note_on,28,0,9,,,,,,,,3,,,,58,49
106340,note_on,20,0,9,,,,,,,,3,,,,58,0
106361,note_on,89,0,8,,,,,,,,3,,,,70,0
106368,note_on,28,0,9,,,,,,,,3,,,,63,49
106368,note_on,7,0,8,,,,,,,,3,,,,72,49
106368,note_on,295,0,2,,,,,,,,0,,,,69,49
106368,note_on,207,0,10,,,,,,,,3,,,,65,49
106368,note_on,207,0,11,,,,,,,,3,,,,41,49
106368,note_on,295,0,1,,,,,,,,0,,,,75,49
106388,note_on,20,0,9,,,,,,,,3,,,,63,0
106416,note_on,28,0,9,,,,,,,,3,,,,62,49
106436,note_on,20,0,9,,,,,,,,3,,,,62,0
106464,note_on,28,0,9,,,,,,,,3,,,,63,49
106484,note_on,20,0,9,,,,,,,,3,,,,63,0
106512,note_on,28,0,9,,,,,,,,3,,,,60,49
106532,note_on,20,0,9,,,,,,,,3,,,,60,0
106545,note_on,177,0,11,,,,,,,,3,,,,41,0
106545,note_on,177,0,10,,,,,,,,3,,,,65,0
106545,note_on,177,0,8,,,,,,,,3,,,,72,0
106560,note_on,28,0,9,,,,,,,,3,,,,69,49
106560,note_on,15,0,8,,,,,,,,3,,,,77,49
106580,note_on,20,0,9,,,,,,,,3,,,,69,0
106608,note_on,28,0,9,,,,,,,,3,,,,67,49
106628,note_on,20,0,9,,,,,,,,3,,,,67,0
106656,note_on,28,0,9,,,,,,,,3,,,,69,49
106676,note_on,20,0,9,,,,,,,,3,,,,69,0
106704,note_on,28,0,9,,,,,,,,3,,,,65,49
106722,note_on,354,0,1,,,,,,,,0,,,,75,0
106722,note_on,354,0,2,,,,,,,,0,,,,69,0
106724,note_on,20,0,9,,,,,,,,3,,,,65,0
106737,note_on,177,0,8,,,,,,,,3,,,,77,0
106752,note_on,207,0,10,,,,,,,,3,,,,58,49
106752,note_on,28,0,9,,,,,,,,3,,,,70,49
106752,note_on,15,0,8,,,,,,,,3,,,,74,49
106752,note_on,30,0,2,,,,,,,,0,,,,70,49
106752,note_on,207,0,11,,,,,,,,3,,,,34,49
106752,note_on,30,0,1,,,,,,,,0,,,,74,49
106772,note_on,20,0,9,,,,,,,,3,,,,70,0
106800,note_on,28,0,9,,,,,,,,3,,,,69,49
106820,note_on,20,0,9,,,,,,,,3,,,,69,0
106841,note_on,89,0,1,,,,,,,,0,,,,74,0
106841,note_on,89,0,2,,,,,,,,0,,,,70,0
106841,note_on,89,0,8,,,,,,,,3,,,,74,0
106848,note_on,28,0,9,,,,,,,,3,,,,70,49
106868,note_on,20,0,9,,,,,,,,3,,,,70,0
106896,note_on,28,0,9,,,,,,,,3,,,,65,49
106916,note_on,20,0,9,,,,,,,,3,,,,65,0
106929,note_on,177,0,11,,,,,,,,3,,,,34,0
106929,note_on,177,0,10,,,,,,,,3,,,,58,0
106944,note_on,28,0,9,,,,,,,,3,,,,62,49
106944,note_on,103,0,8,,,,,,,,3,,,,70,49
106964,note_on,20,0,9,,,,,,,,3,,,,62,0
106983,note_on,39,0,8,,,,,,,,3,,,,70,0
106992,note_on,28,0,9,,,,,,,,3,,,,60,49
107012,note_on,20,0,9,,,,,,,,3,,,,60,0
107040,note_on,57,0,8,,,,,,,,3,,,,70,49
107040,note_on,28,0,9,,,,,,,,3,,,,62,49
107060,note_on,20,0,9,,,,,,,,3,,,,62,0
107079,note_on,39,0,8,,,,,,,,3,,,,70,0
107088,note_on,28,0,9,,,,,,,,3,,,,58,49
107108,note_on,20,0,9,,,,,,,,3,,,,58,0
107136,note_on,28,0,9,,,,,,,,3,,,,70,49
107136,note_on,57,0,8,,,,,,,,3,,,,79,49
107136,note_on,207,0,11,,,,,,,,3,,,,36,49
107136,note_on,295,0,2,,,,,,,,0,,,,76,49
107136,note_on,207,0,10,,,,,,,,3,,,,60,49
107136,note_on,295,0,1,,,,,,,,0,,,,82,49
107156,note_on,20,0,9,,,,,,,,3,,,,70,0
107184,note_on,28,0,9,,,,,,,,3,,,,69,49
107204,note_on,20,0,9,,,,,,,,3,,,,69,0
107232,note_on,28,0,9,,,,,,,,3,,,,70,49
107252,note_on,20,0,9,,,,,,,,3,,,,70,0
107280,note_on,28,0,9,,,,,,,,3,,,,67,49
107300,note_on,20,0,9,,,,,,,,3,,,,67,0
107313,note_on,177,0,10,,,,,,,,3,,,,60,0
107313,note_on,177,0,11,,,,,,,,3,,,,36,0
107313,note_on,177,0,8,,,,,,,,3,,,,79,0
107328,note_on,15,0,8,,,,,,,,3,,,,84,49
107328,note_on,28,0,9,,,,,,,,3,,,,64,49
107348,note_on,20,0,9,,,,,,,,3,,,,64,0
107376,note_on,28,0,9,,,,,,,,3,,,,62,49
107396,note_on,20,0,9,,,,,,,,3,,,,62,0
107424,note_on,28,0,9,,,,,,,,3,,,,64,49
107444,note_on,20,0,9,,,,,,,,3,,,,64,0
107472,note_on,28,0,9,,,,,,,,3,,,,60,49
107490,note_on,354,0,1,,,,,,,,0,,,,82,0
107490,note_on,354,0,2,,,,,,,,0,,,,76,0
107492,note_on,20,0,9,,,,,,,,3,,,,60,0
107505,note_on,177,0,8,,,,,,,,3,,,,84,0
107520,note_on,30,0,1,,,,,,,,0,,,,81,49
107520,note_on,15,0,8,,,,,,,,3,,,,81,49
107520,note_on,207,0,11,,,,,,,,3,,,,41,49
107520,note_on,30,0,2,,,,,,,,0,,,,77,49
107520,note_on,207,0,10,,,,,,,,3,,,,53,49
107520,note_on,28,0,9,,,,,,,,3,,,,65,49
107540,note_on,20,0,9,,,,,,,,3,,,,65,0
107568,note_on,28,0,9,,,,,,,,3,,,,64,49
107588,note_on,20,0,9,,,,,,,,3,,,,64,0
107609,note_on,89,0,1,,,,,,,,0,,,,81,0
107609,note_on,89,0,2,,,,,,,,0,,,,77,0
107609,note_on,89,0,8,,,,,,,,3,,,,81,0
107616,note_on,28,0,9,,,,,,,,3,,,,65,49
107636,note_on,20,0,9,,,,,,,,3,,,,65,0
107664,note_on,28,0,9,,,,,,,,3,,,,57,49
107684,note_on,20,0,9,,,,,,,,3,,,,57,0
107697,note_on,177,0,11,,,,,,,,3,,,,41,0
107697,note_on,177,0,10,,,,,,,,3,,,,53,0
107712,note_on,15,0,10,,,,,,,,3,,,,62,64
107712,note_on,1639,0,4,,,,,,,,1,,,,70,64
107712,note_on,103,0,1,,,,,,,,0,,,,82,64
107712,note_on,1639,0,3,,,,,,,,1,,,,70,64
107712,note_on,103,0,2,,,,,,,,0,,,,67,64
107712,note_on,15,0,11,,,,,,,,3,,,,50,64
107712,note_on,103,0,8,,,,,,,,3,,,,70,64
107712,note_on,28,0,9,,,,,,,,3,,,,58,49
107732,note_on,20,0,11,,,,,,,,3,,,,50,0
107732,note_on,20,0,10,,,,,,,,3,,,,62,0
107751,note_on,39,0,2,,,,,,,,0,,,,67,0
107751,note_on,39,0,1,,,,,,,,0,,,,82,0
107751,note_on,39,0,9,,,,,,,,3,,,,58,0
107751,note_on,39,0,8,,,,,,,,3,,,,70,0
107760,note_on,28,0,11,,,,,,,,3,,,,48,64
107760,note_on,28,0,10,,,,,,,,3,,,,60,64
107780,note_on,20,0,10,,,,,,,,3,,,,60,0
107780,note_on,20,0,11,,,,,,,,3,,,,48,0
107801,note_on,89,0,3,,,,,,,,1,,,,70,0
107801,note_on,89,0,4,,,,,,,,1,,,,70,0
107808,note_on,7,0,3,,,,,,,,1,,,,70,64
107808,note_on,28,0,10,,,,,,,,3,,,,62,64
107808,note_on,57,0,1,,,,,,,,0,,,,82,64
107808,note_on,7,0,4,,,,,,,,1,,,,70,64
107808,note_on,28,0,11,,,,,,,,3,,,,50,64
107808,note_on,57,0,8,,,,,,,,3,,,,70,64
107808,note_on,57,0,9,,,,,,,,3,,,,58,49
107808,note_on,57,0,2,,,,,,,,0,,,,67,64
107828,note_on,20,0,10,,,,,,,,3,,,,62,0
107828,note_on,20,0,11,,,,,,,,3,,,,50,0
107847,note_on,39,0,2,,,,,,,,0,,,,67,0
107847,note_on,39,0,1,,,,,,,,0,,,,82,0
107847,note_on,39,0,9,,,,,,,,3,,,,58,0
107847,note_on,39,0,8,,,,,,,,3,,,,70,0
107856,note_on,28,0,11,,,,,,,,3,,,,46,64
107856,note_on,28,0,10,,,,,,,,3,,,,58,64
107876,note_on,20,0,11,,,,,,,,3,,,,46,0
107876,note_on,20,0,10,,,,,,,,3,,,,58,0
107897,note_on,89,0,3,,,,,,,,1,,,,70,0
107897,note_on,89,0,4,,,,,,,,1,,,,70,0
107904,note_on,28,0,10,,,,,,,,3,,,,63,64
107904,note_on,28,0,11,,,,,,,,3,,,,51,64
107904,note_on,7,0,3,,,,,,,,1,,,,75,64
107904,note_on,57,0,8,,,,,,,,3,,,,72,64
107904,note_on,57,0,2,,,,,,,,0,,,,72,64
107904,note_on,7,0,4,,,,,,,,1,,,,75,64
107904,note_on,57,0,1,,,,,,,,0,,,,84,64
107904,note_on,57,0,9,,,,,,,,3,,,,60,49
107924,note_on,20,0,11,,,,,,,,3,,,,51,0
107924,note_on,20,0,10,,,,,,,,3,,,,63,0
107952,note_on,28,0,10,,,,,,,,3,,,,62,64
107952,note_on,28,0,11,,,,,,,,3,,,,50,64
107972,note_on,20,0,10,,,,,,,,3,,,,62,0
107972,note_on,20,0,11,,,,,,,,3,,,,50,0
107993,note_on,89,0,4,,,,,,,,1,,,,75,0
107993,note_on,89,0,3,,,,,,,,1,,,,75,0
108000,note_on,28,0,10,,,,,,,,3,,,,63,64
108000,note_on,28,0,11,,,,,,,,3,,,,51,64
108000,note_on,7,0,3,,,,,,,,1,,,,72,64
108000,note_on,7,0,4,,,,,,,,1,,,,72,64
108020,note_on,20,0,11,,,,,,,,3,,,,51,0
108020,note_on,20,0,10,,,,,,,,3,,,,63,0
108048,note_on,28,0,11,,,,,,,,3,,,,48,64
108048,note_on,28,0,10,,,,,,,,3,,,,60,64
108068,note_on,20,0,11,,,,,,,,3,,,,48,0
108068,note_on,20,0,10,,,,,,,,3,,,,60,0
108081,note_on,177,0,9,,,,,,,,3,,,,60,0
108081,note_on,177,0,2,,,,,,,,0,,,,72,0
108081,note_on,177,0,8,,,,,,,,3,,,,72,0
108089,note_on,89,0,4,,,,,,,,1,,,,72,0
108089,note_on,89,0,3,,,,,,,,1,,,,72,0
108096,note_on,28,0,11,,,,,,,,3,,,,45,64
108096,note_on,15,0,9,,,,,,,,3,,,,65,49
108096,note_on,7,0,3,,,,,,,,1,,,,65,64
108096,note_on,15,0,2,,,,,,,,0,,,,77,64
108096,note_on,15,0,8,,,,,,,,3,,,,77,64
108096,note_on,28,0,10,,,,,,,,3,,,,57,64
108096,note_on,7,0,4,,,,,,,,1,,,,65,64
108116,note_on,20,0,10,,,,,,,,3,,,,57,0
108116,note_on,20,0,11,,,,,,,,3,,,,45,0
108144,note_on,28,0,11,,,,,,,,3,,,,43,64
108144,note_on,28,0,10,,,,,,,,3,,,,55,64
108164,note_on,20,0,10,,,,,,,,3,,,,55,0
108164,note_on,20,0,11,,,,,,,,3,,,,43,0
108192,note_on,28,0,10,,,,,,,,3,,,,57,64
108192,note_on,28,0,11,,,,,,,,3,,,,45,64
108212,note_on,20,0,10,,,,,,,,3,,,,57,0
108212,note_on,20,0,11,,,,,,,,3,,,,45,0
108240,note_on,28,0,10,,,,,,,,3,,,,53,64
108240,note_on,28,0,11,,,,,,,,3,,,,41,64
108258,note_on,354,0,1,,,,,,,,0,,,,84,0
108260,note_on,20,0,10,,,,,,,,3,,,,53,0
108260,note_on,20,0,11,,,,,,,,3,,,,41,0
108273,note_on,177,0,8,,,,,,,,3,,,,77,0
108273,note_on,177,0,9,,,,,,,,3,,,,65,0
108273,note_on,177,0,4,,,,,,,,1,,,,65,0
108273,note_on,177,0,2,,,,,,,,0,,,,77,0
108273,note_on,177,0,3,,,,,,,,1,,,,65,0
108288,note_on,15,0,9,,,,,,,,3,,,,62,49
108288,note_on,30,0,1,,,,,,,,0,,,,86,64
108288,note_on,15,0,4,,,,,,,,1,,,,62,64
108288,note_on,15,0,8,,,,,,,,3,,,,74,64
108288,note_on,28,0,10,,,,,,,,3,,,,58,64
108288,note_on,28,0,11,,,,,,,,3,,,,46,64
108288,note_on,15,0,3,,,,,,,,1,,,,70,64
108288,note_on,15,0,2,,,,,,,,0,,,,82,64
108308,note_on,20,0,10,,,,,,,,3,,,,58,0
108308,note_on,20,0,11,,,,,,,,3,,,,46,0
108336,note_on,28,0,10,,,,,,,,3,,,,57,64
108336,note_on,28,0,11,,,,,,,,3,,,,45,64
108356,note_on,20,0,10,,,,,,,,3,,,,57,0
108356,note_on,20,0,11,,,,,,,,3,,,,45,0
108384,note_on,28,0,11,,,,,,,,3,,,,46,64
108384,note_on,28,0,10,,,,,,,,3,,,,58,64
108404,note_on,20,0,10,,,,,,,,3,,,,58,0
108404,note_on,20,0,11,,,,,,,,3,,,,46,0
108432,note_on,28,0,11,,,,,,,,3,,,,42,64
108432,note_on,28,0,10,,,,,,,,3,,,,66,64
108452,note_on,20,0,11,,,,,,,,3,,,,42,0
108452,note_on,20,0,10,,,,,,,,3,,,,66,0
108465,note_on,177,0,4,,,,,,,,1,,,,62,0
108465,note_on,177,0,9,,,,,,,,3,,,,62,0
108465,note_on,177,0,8,,,,,,,,3,,,,74,0
108465,note_on,177,0,3,,,,,,,,1,,,,70,0
108480,note_on,15,0,9,,,,,,,,3,,,,70,49
108480,note_on,28,0,10,,,,,,,,3,,,,67,64
108480,note_on,15,0,8,,,,,,,,3,,,,82,64
108480,note_on,28,0,11,,,,,,,,3,,,,43,64
108480,note_on,15,0,3,,,,,,,,1,,,,74,64
108480,note_on,15,0,4,,,,,,,,1,,,,70,64
108500,note_on,20,0,11,,,,,,,,3,,,,43,0
108500,note_on,20,0,10,,,,,,,,3,,,,67,0
108528,note_on,28,0,10,,,,,,,,3,,,,66,64
108528,note_on,28,0,11,,,,,,,,3,,,,42,64
108548,note_on,20,0,10,,,,,,,,3,,,,66,0
108548,note_on,20,0,11,,,,,,,,3,,,,42,0
108576,note_on,28,0,10,,,,,,,,3,,,,67,64
108576,note_on,28,0,11,,,,,,,,3,,,,43,64
108596,note_on,20,0,10,,,,,,,,3,,,,67,0
108596,note_on,20,0,11,,,,,,,,3,,,,43,0
108624,note_on,28,0,11,,,,,,,,3,,,,38,64
108624,note_on,28,0,10,,,,,,,,3,,,,62,64
108642,note_on,354,0,1,,,,,,,,0,,,,86,0
108644,note_on,20,0,11,,,,,,,,3,,,,38,0
108644,note_on,20,0,10,,,,,,,,3,,,,62,0
108657,note_on,177,0,3,,,,,,,,1,,,,74,0
108657,note_on,177,0,8,,,,,,,,3,,,,82,0
108657,note_on,177,0,9,,,,,,,,3,,,,70,0
108672,note_on,28,0,11,,,,,,,,3,,,,39,64
108672,note_on,15,0,9,,,,,,,,3,,,,60,49
108672,note_on,15,0,3,,,,,,,,1,,,,72,64
108672,note_on,15,0,8,,,,,,,,3,,,,72,64
108672,note_on,28,0,10,,,,,,,,3,,,,63,64
108672,note_on,30,0,1,,,,,,,,0,,,,84,64
108692,note_on,20,0,10,,,,,,,,3,,,,63,0
108692,note_on,20,0,11,,,,,,,,3,,,,39,0
108720,note_on,28,0,10,,,,,,,,3,,,,62,64
108720,note_on,28,0,11,,,,,,,,3,,,,38,64
108740,note_on,20,0,11,,,,,,,,3,,,,38,0
108740,note_on,20,0,10,,,,,,,,3,,,,62,0
108768,note_on,28,0,10,,,,,,,,3,,,,63,64
108768,note_on,28,0,11,,,,,,,,3,,,,39,64
108788,note_on,20,0,10,,,,,,,,3,,,,63,0
108788,note_on,20,0,11,,,,,,,,3,,,,39,0
108816,note_on,28,0,10,,,,,,,,3,,,,60,64
108816,note_on,28,0,11,,,,,,,,3,,,,36,64
108836,note_on,20,0,11,,,,,,,,3,,,,36,0
108836,note_on,20,0,10,,,,,,,,3,,,,60,0
108849,note_on,177,0,8,,,,,,,,3,,,,72,0
108849,note_on,561,0,2,,,,,,,,0,,,,82,0
108849,note_on,369,0,4,,,,,,,,1,,,,70,0
108849,note_on,177,0,9,,,,,,,,3,,,,60,0
108864,note_on,15,0,8,,,,,,,,3,,,,81,64
108864,note_on,15,0,9,,,,,,,,3,,,,69,49
108864,note_on,15,0,4,,,,,,,,1,,,,65,64
108864,note_on,28,0,11,,,,,,,,3,,,,41,64
108864,note_on,28,0,10,,,,,,,,3,,,,65,64
108864,note_on,15,0,2,,,,,,,,0,,,,81,64
108884,note_on,20,0,11,,,,,,,,3,,,,41,0
108884,note_on,20,0,10,,,,,,,,3,,,,65,0
108912,note_on,28,0,11,,,,,,,,3,,,,40,64
108912,note_on,28,0,10,,,,,,,,3,,,,64,64
108932,note_on,20,0,11,,,,,,,,3,,,,40,0
108932,note_on,20,0,10,,,,,,,,3,,,,64,0
108960,note_on,28,0,10,,,,,,,,3,,,,65,64
108960,note_on,28,0,11,,,,,,,,3,,,,41,64
108980,note_on,20,0,11,,,,,,,,3,,,,41,0
108980,note_on,20,0,10,,,,,,,,3,,,,65,0
109008,note_on,28,0,11,,,,,,,,3,,,,41,64
109008,note_on,28,0,10,,,,,,,,3,,,,65,64
109026,note_on,354,0,1,,,,,,,,0,,,,84,0
109026,note_on,354,0,3,,,,,,,,1,,,,72,0
109028,note_on,20,0,11,,,,,,,,3,,,,41,0
109028,note_on,20,0,10,,,,,,,,3,,,,65,0
109041,note_on,177,0,2,,,,,,,,0,,,,81,0
109041,note_on,177,0,9,,,,,,,,3,,,,69,0
109041,note_on,177,0,8,,,,,,,,3,,,,81,0
109041,note_on,177,0,4,,,,,,,,1,,,,65,0
109056,note_on,28,0,11,,,,,,,,3,,,,34,64
109056,note_on,15,0,8,,,,,,,,3,,,,82,64
109056,note_on,30,0,3,,,,,,,,1,,,,70,64
109056,note_on,15,0,2,,,,,,,,0,,,,82,64
109056,note_on,30,0,1,,,,,,,,0,,,,82,64
109056,note_on,15,0,4,,,,,,,,1,,,,62,64
109056,note_on,28,0,10,,,,,,,,3,,,,58,64
109056,note_on,15,0,9,,,,,,,,3,,,,70,49
109076,note_on,20,0,9,,,,,,,,3,,,,70,0
109101,note_on,45,0,8,,,,,,,,3,,,,82,0
109104,note_on,3,0,8,,,,,,,,3,,,,77,64
109104,note_on,28,0,9,,,,,,,,3,,,,65,49
109124,note_on,20,0,9,,,,,,,,3,,,,65,0
109149,note_on,45,0,8,,,,,,,,3,,,,77,0
109152,note_on,28,0,9,,,,,,,,3,,,,62,49
109152,note_on,3,0,8,,,,,,,,3,,,,74,64
109172,note_on,20,0,9,,,,,,,,3,,,,62,0
109197,note_on,45,0,8,,,,,,,,3,,,,74,0
109200,note_on,28,0,9,,,,,,,,3,,,,65,49
109200,note_on,3,0,8,,,,,,,,3,,,,70,64
109220,note_on,20,0,9,,,,,,,,3,,,,65,0
109233,note_on,177,0,2,,,,,,,,0,,,,82,0
109233,note_on,177,0,10,,,,,,,,3,,,,58,0
109233,note_on,177,0,4,,,,,,,,1,,,,62,0
109233,note_on,177,0,11,,,,,,,,3,,,,34,0
109233,note_on,177,0,3,,,,,,,,1,,,,70,0
109233,note_on,177,0,1,,,,,,,,0,,,,82,0
109245,note_on,45,0,8,,,,,,,,3,,,,70,0
109248,note_on,3,0,8,,,,,,,,3,,,,70,49
109248,note_on,28,0,9,,,,,,,,3,,,,62,49
109268,note_on,20,0,9,,,,,,,,3,,,,62,0
109296,note_on,28,0,9,,,,,,,,3,,,,60,49
109316,note_on,20,0,9,,,,,,,,3,,,,60,0
109337,note_on,89,0,8,,,,,,,,3,,,,70,0
109344,note_on,28,0,9,,,,,,,,3,,,,58,49
109344,note_on,7,0,8,,,,,,,,3,,,,70,49
109356,note_on,12,0,8,,,,,,,,3,,,,70,0
109356,note_on,0,0,8,,,,,,,,3,,,,72,49
109364,note_on,20,0,9,,,,,,,,3,,,,58,0
109368,note_on,12,0,8,,,,,,,,3,,,,72,0
109368,note_on,0,0,8,,,,,,,,3,,,,70,49
109380,note_on,12,0,8,,,,,,,,3,,,,70,0
109380,note_on,0,0,8,,,,,,,,3,,,,72,49
109392,note_on,12,0,8,,,,,,,,3,,,,72,0
109392,note_on,0,0,8,,,,,,,,3,,,,70,49
109392,note_on,28,0,9,,,,,,,,3,,,,62,49
109404,note_on,0,0,8,,,,,,,,3,,,,72,49
109404,note_on,12,0,8,,,,,,,,3,,,,70,0
109412,note_on,20,0,9,,,,,,,,3,,,,62,0
109416,note_on,0,0,8,,,,,,,,3,,,,70,49
109416,note_on,12,0,8,,,,,,,,3,,,,72,0
109428,note_on,0,0,8,,,,,,,,3,,,,72,49
109428,note_on,12,0,8,,,,,,,,3,,,,70,0
109433,note_on,5,0,8,,,,,,,,3,,,,72,0
109440,note_on,207,0,11,,,,,,,,3,,,,39,49
109440,note_on,28,0,9,,,,,,,,3,,,,63,49
109440,note_on,207,0,10,,,,,,,,3,,,,51,49
109440,note_on,7,0,8,,,,,,,,3,,,,79,49
109460,note_on,20,0,9,,,,,,,,3,,,,63,0
109488,note_on,28,0,9,,,,,,,,3,,,,62,49
109508,note_on,20,0,9,,,,,,,,3,,,,62,0
109529,note_on,89,0,8,,,,,,,,3,,,,79,0
109536,note_on,7,0,8,,,,,,,,3,,,,75,49
109536,note_on,28,0,9,,,,,,,,3,,,,60,49
109556,note_on,20,0,9,,,,,,,,3,,,,60,0
109584,note_on,28,0,9,,,,,,,,3,,,,62,49
109604,note_on,20,0,9,,,,,,,,3,,,,62,0
109617,note_on,177,0,10,,,,,,,,3,,,,51,0
109617,note_on,177,0,11,,,,,,,,3,,,,39,0
109625,note_on,89,0,8,,,,,,,,3,,,,75,0
109632,note_on,15,0,11,,,,,,,,3,,,,41,49
109632,note_on,15,0,10,,,,,,,,3,,,,53,49
109632,note_on,7,0,8,,,,,,,,3,,,,72,49
109632,note_on,28,0,9,,,,,,,,3,,,,63,49
109652,note_on,20,0,9,,,,,,,,3,,,,63,0
109680,note_on,28,0,9,,,,,,,,3,,,,62,49
109700,note_on,20,0,9,,,,,,,,3,,,,62,0
109721,note_on,89,0,8,,,,,,,,3,,,,72,0
109728,note_on,7,0,8,,,,,,,,3,,,,69,49
109728,note_on,28,0,9,,,,,,,,3,,,,63,49
109748,note_on,20,0,9,,,,,,,,3,,,,63,0
109776,note_on,28,0,9,,,,,,,,3,,,,60,49
109796,note_on,20,0,9,,,,,,,,3,,,,60,0
109809,note_on,177,0,11,,,,,,,,3,,,,41,0
109809,note_on,177,0,10,,,,,,,,3,,,,53,0
109817,note_on,89,0,8,,,,,,,,3,,,,69,0
109824,note_on,591,0,2,,,,,,,,0,,,,74,64
109824,note_on,28,0,9,,,,,,,,3,,,,62,64
109824,note_on,591,0,4,,,,,,,,1,,,,62,64
109824,note_on,591,0,3,,,,,,,,1,,,,70,64
109824,note_on,15,0,11,,,,,,,,3,,,,46,64
109824,note_on,591,0,1,,,,,,,,0,,,,82,64
109824,note_on,15,0,10,,,,,,,,3,,,,58,64
109824,note_on,7,0,8,,,,,,,,3,,,,82,64
109844,note_on,20,0,8,,,,,,,,3,,,,82,0
109844,note_on,20,0,9,,,,,,,,3,,,,62,0
109872,note_on,28,0,9,,,,,,,,3,,,,65,64
109872,note_on,28,0,8,,,,,,,,3,,,,77,64
109892,note_on,20,0,8,,,,,,,,3,,,,77,0
109892,note_on,20,0,9,,,,,,,,3,,,,65,0
109920,note_on,28,0,8,,,,,,,,3,,,,74,64
109920,note_on,28,0,9,,,,,,,,3,,,,70,64
109940,note_on,20,0,8,,,,,,,,3,,,,74,0
109940,note_on,20,0,9,,,,,,,,3,,,,70,0
109968,note_on,28,0,9,,,,,,,,3,,,,65,64
109968,note_on,28,0,8,,,,,,,,3,,,,70,64
109988,note_on,20,0,8,,,,,,,,3,,,,70,0
109988,note_on,20,0,9,,,,,,,,3,,,,65,0
110001,note_on,177,0,11,,,,,,,,3,,,,46,0
110001,note_on,177,0,10,,,,,,,,3,,,,58,0
110001,note_on,177,0,3,,,,,,,,1,,,,70,0
110001,note_on,177,0,1,,,,,,,,0,,,,82,0
110001,note_on,177,0,2,,,,,,,,0,,,,74,0
110001,note_on,177,0,4,,,,,,,,1,,,,62,0
110016,note_on,28,0,9,,,,,,,,3,,,,62,49
110016,note_on,28,0,8,,,,,,,,3,,,,70,49
110036,note_on,20,0,9,,,,,,,,3,,,,62,0
110064,note_on,28,0,9,,,,,,,,3,,,,60,49
110084,note_on,20,0,9,,,,,,,,3,,,,60,0
110105,note_on,89,0,8,,,,,,,,3,,,,70,0
110112,note_on,28,0,9,,,,,,,,3,,,,58,49
110112,note_on,7,0,8,,,,,,,,3,,,,70,49
110124,note_on,12,0,8,,,,,,,,3,,,,70,0
110124,note_on,0,0,8,,,,,,,,3,,,,72,49
110132,note_on,20,0,9,,,,,,,,3,,,,58,0
110136,note_on,0,0,8,,,,,,,,3,,,,70,49
110136,note_on,12,0,8,,,,,,,,3,,,,72,0
110148,note_on,0,0,8,,,,,,,,3,,,,72,49
110148,note_on,12,0,8,,,,,,,,3,,,,70,0
110160,note_on,28,0,9,,,,,,,,3,,,,62,49
110160,note_on,12,0,8,,,,,,,,3,,,,72,0
110160,note_on,0,0,8,,,,,,,,3,,,,70,49
110172,note_on,12,0,8,,,,,,,,3,,,,70,0
110172,note_on,0,0,8,,,,,,,,3,,,,72,49
110180,note_on,20,0,9,,,,,,,,3,,,,62,0
110184,note_on,12,0,8,,,,,,,,3,,,,72,0
110184,note_on,0,0,8,,,,,,,,3,,,,70,49
110196,note_on,12,0,8,,,,,,,,3,,,,70,0
110196,note_on,0,0,8,,,,,,,,3,,,,72,49
110201,note_on,5,0,8,,,,,,,,3,,,,72,0
110208,note_on,28,0,9,,,,,,,,3,,,,63,49
110208,note_on,207,0,11,,,,,,,,3,,,,39,49
110208,note_on,7,0,8,,,,,,,,3,,,,79,49
110208,note_on,207,0,10,,,,,,,,3,,,,51,49
110228,note_on,20,0,9,,,,,,,,3,,,,63,0
110256,note_on,28,0,9,,,,,,,,3,,,,62,49
110276,note_on,20,0,9,,,,,,,,3,,,,62,0
110297,note_on,89,0,8,,,,,,,,3,,,,79,0
110304,note_on,7,0,8,,,,,,,,3,,,,75,49
110304,note_on,28,0,9,,,,,,,,3,,,,60,49
110324,note_on,20,0,9,,,,,,,,3,,,,60,0
110352,note_on,28,0,9,,,,,,,,3,,,,62,49
110372,note_on,20,0,9,,,,,,,,3,,,,62,0
110385,note_on,177,0,10,,,,,,,,3,,,,51,0
110385,note_on,177,0,11,,,,,,,,3,,,,39,0
110393,note_on,89,0,8,,,,,,,,3,,,,75,0
110400,note_on,15,0,10,,,,,,,,3,,,,53,49
110400,note_on,7,0,8,,,,,,,,3,,,,72,49
110400,note_on,28,0,9,,,,,,,,3,,,,63,49
110400,note_on,15,0,11,,,,,,,,3,,,,41,49
110420,note_on,20,0,9,,,,,,,,3,,,,63,0
110448,note_on,28,0,9,,,,,,,,3,,,,62,49
110468,note_on,20,0,9,,,,,,,,3,,,,62,0
110489,note_on,89,0,8,,,,,,,,3,,,,72,0
110496,note_on,28,0,9,,,,,,,,3,,,,63,49
110496,note_on,7,0,8,,,,,,,,3,,,,69,49
110516,note_on,20,0,9,,,,,,,,3,,,,63,0
110544,note_on,28,0,9,,,,,,,,3,,,,60,49
110564,note_on,20,0,9,,,,,,,,3,,,,60,0
110577,note_on,177,0,11,,,,,,,,3,,,,41,0
110577,note_on,177,0,10,,,,,,,,3,,,,53,0
110585,note_on,89,0,8,,,,,,,,3,,,,69,0
110592,note_on,15,0,10,,,,,,,,3,,,,53,49
110592,note_on,7,0,8,,,,,,,,3,,,,70,49
110592,note_on,28,0,9,,,,,,,,3,,,,62,49
110592,note_on,15,0,11,,,,,,,,3,,,,34,49
110592,note_on,591,0,1,,,,,,,,0,,,,77,49
110681,note_on,89,0,8,,,,,,,,3,,,,70,0
110681,note_on,89,0,9,,,,,,,,3,,,,62,0
110681,note_on,89,0,10,,,,,,,,3,,,,53,0
110681,note_on,89,0,11,,,,,,,,3,,,,34,0
110688,note_on,7,0,8,,,,,,,,3,,,,76,49
110733,note_on,45,0,8,,,,,,,,3,,,,76,0
110736,note_on,3,0,8,,,,,,,,3,,,,77,49
110781,note_on,45,0,8,,,,,,,,3,,,,77,0
110784,note_on,103,0,11,,,,,,,,3,,,,41,49
110873,note_on,89,0,11,,,,,,,,3,,,,41,0
110880,note_on,99,0,8,,,,,,,,3,,,,74,49
110925,note_on,45,0,8,,,,,,,,3,,,,74,0
110928,note_on,3,0,8,,,,,,,,3,,,,76,49
110973,note_on,45,0,8,,,,,,,,3,,,,76,0
110976,note_on,103,0,11,,,,,,,,3,,,,46,49
111065,note_on,89,0,11,,,,,,,,3,,,,46,0
111072,note_on,391,0,9,,,,,,,,3,,,,64,49
111072,note_on,99,0,8,,,,,,,,3,,,,73,49
111117,note_on,45,0,9,,,,,,,,3,,,,64,0
111117,note_on,45,0,8,,,,,,,,3,,,,73,0
111120,note_on,3,0,8,,,,,,,,3,,,,74,49
111120,note_on,3,0,9,,,,,,,,3,,,,65,49
111165,note_on,45,0,8,,,,,,,,3,,,,74,0
111165,note_on,45,0,9,,,,,,,,3,,,,65,0
111168,note_on,103,0,11,,,,,,,,3,,,,41,49
111257,note_on,89,0,11,,,,,,,,3,,,,41,0
111264,note_on,99,0,9,,,,,,,,3,,,,62,49
111264,note_on,99,0,8,,,,,,,,3,,,,71,49
111309,note_on,45,0,9,,,,,,,,3,,,,62,0
111309,note_on,45,0,8,,,,,,,,3,,,,71,0
111312,note_on,3,0,9,,,,,,,,3,,,,63,49
111312,note_on,3,0,8,,,,,,,,3,,,,72,49
111357,note_on,45,0,9,,,,,,,,3,,,,63,0
111357,note_on,45,0,8,,,,,,,,3,,,,72,0
111360,note_on,679,0,10,,,,,,,,3,,,,65,49
111360,note_on,1359,0,2,,,,,,,,0,,,,77,49
111360,note_on,103,0,11,,,,,,,,3,,,,34,49
111449,note_on,89,0,11,,,,,,,,3,,,,34,0
111456,note_on,99,0,9,,,,,,,,3,,,,61,49
111456,note_on,99,0,8,,,,,,,,3,,,,69,49
111501,note_on,45,0,8,,,,,,,,3,,,,69,0
111501,note_on,45,0,9,,,,,,,,3,,,,61,0
111504,note_on,3,0,8,,,,,,,,3,,,,70,49
111504,note_on,3,0,9,,,,,,,,3,,,,62,49
111537,note_on,177,0,2,,,,,,,,0,,,,77,0
111537,note_on,177,0,10,,,,,,,,3,,,,65,0
111537,note_on,945,0,1,,,,,,,,0,,,,77,0
111549,note_on,45,0,9,,,,,,,,3,,,,62,0
111549,note_on,45,0,8,,,,,,,,3,,,,70,0
111552,note_on,15,0,10,,,,,,,,3,,,,57,49
111552,note_on,15,0,1,,,,,,,,0,,,,81,49
111552,note_on,15,0,2,,,,,,,,0,,,,75,49
111552,note_on,1551,0,3,,,,,,,,1,,,,65,49
111552,note_on,103,0,11,,,,,,,,3,,,,41,49
111552,note_on,1551,0,4,,,,,,,,1,,,,65,49
111641,note_on,89,0,11,,,,,,,,3,,,,41,0
111641,note_on,89,0,4,,,,,,,,1,,,,65,0
111648,note_on,99,0,9,,,,,,,,3,,,,62,49
111648,note_on,99,0,8,,,,,,,,3,,,,71,49
111693,note_on,45,0,9,,,,,,,,3,,,,62,0
111693,note_on,45,0,8,,,,,,,,3,,,,71,0
111696,note_on,3,0,9,,,,,,,,3,,,,63,49
111696,note_on,3,0,8,,,,,,,,3,,,,72,49
111729,note_on,177,0,1,,,,,,,,0,,,,81,0
111729,note_on,177,0,2,,,,,,,,0,,,,75,0
111729,note_on,177,0,3,,,,,,,,1,,,,65,0
111729,note_on,177,0,10,,,,,,,,3,,,,57,0
111741,note_on,45,0,8,,,,,,,,3,,,,72,0
111741,note_on,45,0,9,,,,,,,,3,,,,63,0
111744,note_on,15,0,10,,,,,,,,3,,,,57,49
111744,note_on,103,0,11,,,,,,,,3,,,,34,49
111744,note_on,15,0,1,,,,,,,,0,,,,81,49
111744,note_on,15,0,2,,,,,,,,0,,,,75,49
111744,note_on,103,0,4,,,,,,,,1,,,,62,49
111744,note_on,15,0,3,,,,,,,,1,,,,65,49
111744,note_on,3,0,8,,,,,,,,3,,,,72,49
111744,note_on,3,0,9,,,,,,,,3,,,,63,49
111877,end_of_track,0,1,4,,,,,,,,,,,,,
111877,note_on,133,0,4,,,,,,,,1,,,,62,0
111921,note_on,177,0,10,,,,,,,,3,,,,57,0
111921,note_on,177,0,1,,,,,,,,0,,,,81,0
111921,note_on,177,0,9,,,,,,,,3,,,,63,0
111921,note_on,177,0,2,,,,,,,,0,,,,75,0
111921,note_on,177,0,8,,,,,,,,3,,,,72,0
111936,note_on,15,0,9,,,,,,,,3,,,,62,49
111936,note_on,15,0,10,,,,,,,,3,,,,58,49
111936,note_on,15,0,2,,,,,,,,0,,,,74,49
111936,note_on,15,0,1,,,,,,,,0,,,,82,49
111936,note_on,15,0,8,,,,,,,,3,,,,70,49
112009,end_of_track,0,1,11,,,,,,,,,,,,,
112009,note_on,265,0,11,,,,,,,,3,,,,34,0
112009,note_on,265,0,3,,,,,,,,1,,,,65,0
112009,end_of_track,0,1,3,,,,,,,,,,,,,
112025,end_of_track,0,1,1,,,,,,,,,,,,,
112025,end_of_track,0,1,9,,,,,,,,,,,,,
112025,note_on,89,0,9,,,,,,,,3,,,,62,0
112025,note_on,89,0,8,,,,,,,,3,,,,70,0
112025,note_on,89,0,10,,,,,,,,3,,,,58,0
112025,note_on,89,0,2,,,,,,,,0,,,,74,0
112025,end_of_track,0,1,8,,,,,,,,,,,,,
112025,end_of_track,0,1,2,,,,,,,,,,,,,
112025,end_of_track,0,1,10,,,,,,,,,,,,,
112025,note_on,89,0,1,,,,,,,,0,,,,82,0
