tick,type,time,meta,track,numerator,denominator,clocks_per_click,notated_32nd_notes_per_beat,key,tempo,control,value,channel,program,pitch,note,velocity
0,track_name,0,1,0,,,,,,,,,,,,,
0,control_change,0,0,5,,,,,,,93,19,5,,,,
0,control_change,0,0,5,,,,,,,91,100,5,,,,
0,control_change,0,0,5,,,,,,,10,55,5,,,,
0,control_change,0,0,5,,,,,,,7,125,5,,,,
0,control_change,0,0,2,,,,,,,7,122,2,,,,
0,control_change,0,0,2,,,,,,,10,73,2,,,,
0,control_change,0,0,2,,,,,,,91,100,2,,,,
0,control_change,0,0,2,,,,,,,93,19,2,,,,
0,control_change,0,0,2,,,,,,,1,0,2,,,,
0,pitchwheel,0,0,2,,,,,,,,,2,,0,,
0,control_change,0,0,2,,,,,,,64,0,2,,,,
0,control_change,0,0,2,,,,,,,64,0,2,,,,
0,control_change,0,0,2,,,,,,,64,0,2,,,,
0,program_change,0,0,2,,,,,,,,,2,0,,,
0,control_change,0,0,2,,,,,,,32,0,2,,,,
0,control_change,0,0,2,,,,,,,0,0,2,,,,
0,track_name,0,1,2,,,,,,,,,,,,,
0,control_change,0,0,4,,,,,,,0,0,4,,,,
0,pitchwheel,0,0,1,,,,,,,,,1,,0,,
0,program_change,0,0,1,,,,,,,,,1,0,,,
0,control_change,0,0,1,,,,,,,1,0,1,,,,
0,control_change,0,0,1,,,,,,,93,19,1,,,,
0,control_change,0,0,1,,,,,,,91,100,1,,,,
0,control_change,0,0,1,,,,,,,10,73,1,,,,
0,control_change,0,0,1,,,,,,,7,127,1,,,,
0,control_change,0,0,1,,,,,,,64,0,1,,,,
0,control_change,0,0,1,,,,,,,32,0,1,,,,
0,control_change,0,0,5,,,,,,,1,0,5,,,,
0,pitchwheel,0,0,5,,,,,,,,,5,,0,,
0,control_change,0,0,5,,,,,,,64,0,5,,,,
0,control_change,0,0,5,,,,,,,64,0,5,,,,
0,control_change,0,0,4,,,,,,,32,0,4,,,,
0,program_change,0,0,4,,,,,,,,,4,0,,,
0,control_change,0,0,4,,,,,,,64,0,4,,,,
0,control_change,0,0,4,,,,,,,64,0,4,,,,
0,control_change,0,0,4,,,,,,,64,0,4,,,,
0,pitchwheel,0,0,4,,,,,,,,,4,,0,,
0,control_change,0,0,4,,,,,,,1,0,4,,,,
0,control_change,0,0,4,,,,,,,93,19,4,,,,
0,control_change,0,0,4,,,,,,,91,100,4,,,,
0,control_change,0,0,4,,,,,,,10,55,4,,,,
0,control_change,0,0,4,,,,,,,7,120,4,,,,
0,control_change,0,0,3,,,,,,,7,112,3,,,,
0,control_change,0,0,3,,,,,,,10,64,3,,,,
0,control_change,0,0,1,,,,,,,0,0,1,,,,
0,control_change,0,0,3,,,,,,,91,100,3,,,,
0,control_change,0,0,3,,,,,,,1,0,3,,,,
0,pitchwheel,0,0,3,,,,,,,,,3,,0,,
0,control_change,0,0,3,,,,,,,64,0,3,,,,
0,control_change,0,0,3,,,,,,,64,0,3,,,,
0,control_change,0,0,3,,,,,,,64,0,3,,,,
0,program_change,0,0,3,,,,,,,,,3,0,,,
0,control_change,0,0,3,,,,,,,32,0,3,,,,
0,control_change,0,0,3,,,,,,,0,0,3,,,,
0,track_name,0,1,3,,,,,,,,,,,,,
0,track_name,0,1,5,,,,,,,,,,,,,
0,control_change,0,0,5,,,,,,,0,0,5,,,,
0,control_change,0,0,5,,,,,,,32,0,5,,,,
0,program_change,0,0,5,,,,,,,,,5,0,,,
0,control_change,0,0,3,,,,,,,93,19,3,,,,
0,track_name,0,1,1,,,,,,,,,,,,,
0,track_name,0,1,4,,,,,,,,,,,,,
0,marker,0,1,0,,,,,,,,,,,,,
0,set_tempo,0,1,0,,,,,,500000,,,,,,,
0,set_tempo,0,1,0,,,,,,500000,,,,,,,
0,key_signature,0,1,0,,,,,C,,,,,,,,
0,time_signature,0,1,0,4,4,24,8,,,,,,,,,
1320,set_tempo,1320,1,0,,,,,,264317,,,,,,,
1920,note_on,0,0,5,,,,,,,,,5,,,36,87
1920,set_tempo,600,1,0,,,,,,263157,,,,,,,
1920,control_change,1920,0,2,,,,,,,64,0,2,,,,
1920,control_change,1920,0,1,,,,,,,64,0,1,,,,
1920,note_on,0,0,1,,,,,,,,,1,,,60,87
1920,control_change,1920,0,3,,,,,,,64,0,3,,,,
1920,control_change,1920,0,5,,,,,,,64,0,5,,,,
1920,marker,0,1,0,,,,,,,,,,,,,
1920,note_on,0,0,5,,,,,,,,,5,,,48,87
1920,control_change,1920,0,4,,,,,,,64,0,4,,,,
2545,note_off,0,0,5,,,,,,,,,5,,,36,0
2545,note_off,625,0,1,,,,,,,,,1,,,60,0
2545,note_off,625,0,5,,,,,,,,,5,,,48,0
2880,note_on,335,0,5,,,,,,,,,5,,,51,81
2880,note_on,0,0,5,,,,,,,,,5,,,39,81
2880,note_on,335,0,1,,,,,,,,,1,,,63,81
3120,note_off,240,0,5,,,,,,,,,5,,,39,0
3120,note_off,0,0,5,,,,,,,,,5,,,51,0
3120,note_off,240,0,1,,,,,,,,,1,,,63,0
3360,note_on,240,0,5,,,,,,,,,5,,,55,77
3360,note_on,240,0,1,,,,,,,,,1,,,67,77
3360,note_on,0,0,5,,,,,,,,,5,,,43,77
3600,note_off,0,0,5,,,,,,,,,5,,,55,0
3600,note_off,240,0,1,,,,,,,,,1,,,67,0
3600,note_off,240,0,5,,,,,,,,,5,,,43,0
3840,note_on,240,0,5,,,,,,,,,5,,,60,74
3840,note_on,0,0,5,,,,,,,,,5,,,48,74
3840,marker,1920,1,0,,,,,,,,,,,,,
3840,note_on,240,0,1,,,,,,,,,1,,,72,74
4080,note_off,0,0,5,,,,,,,,,5,,,60,0
4080,note_off,240,0,5,,,,,,,,,5,,,48,0
4080,note_off,240,0,1,,,,,,,,,1,,,72,0
4320,note_on,240,0,5,,,,,,,,,5,,,63,71
4320,note_on,240,0,1,,,,,,,,,1,,,75,71
4320,note_on,0,0,5,,,,,,,,,5,,,51,71
4560,note_off,240,0,5,,,,,,,,,5,,,51,0
4560,note_off,0,0,5,,,,,,,,,5,,,63,0
4560,note_off,240,0,1,,,,,,,,,1,,,75,0
4780,set_tempo,940,1,0,,,,,,265486,,,,,,,
5160,note_on,600,0,1,,,,,,,,,1,,,75,53
5240,note_off,80,0,1,,,,,,,,,1,,,75,0
5280,note_on,40,0,1,,,,,,,,,1,,,75,55
5360,note_on,0,0,1,,,,,,,,,1,,,77,57
5360,note_off,80,0,1,,,,,,,,,1,,,75,0
5440,note_on,0,0,1,,,,,,,,,1,,,75,58
5440,note_off,80,0,1,,,,,,,,,1,,,77,0
5520,note_on,0,0,1,,,,,,,,,1,,,74,59
5520,note_off,80,0,1,,,,,,,,,1,,,75,0
5640,note_off,120,0,1,,,,,,,,,1,,,74,0
5640,note_on,0,0,1,,,,,,,,,1,,,75,61
5720,set_tempo,940,1,0,,,,,,266666,,,,,,,
5736,note_off,96,0,1,,,,,,,,,1,,,75,0
5760,note_on,24,0,1,,,,,,,,,1,,,79,62
5760,set_tempo,40,1,0,,,,,,265486,,,,,,,
5760,marker,0,1,0,,,,,,,,,,,,,
6240,note_off,480,0,1,,,,,,,,,1,,,79,0
6240,note_on,0,0,4,,,,,,,,,4,,,67,59
6240,note_on,1680,0,5,,,,,,,,,5,,,63,59
6240,note_on,4320,0,4,,,,,,,,,4,,,72,59
6396,note_off,156,0,5,,,,,,,,,5,,,63,0
6396,note_off,0,0,4,,,,,,,,,4,,,72,0
6396,note_off,156,0,4,,,,,,,,,4,,,67,0
6720,note_on,324,0,4,,,,,,,,,4,,,67,54
6720,note_on,324,0,5,,,,,,,,,5,,,63,54
6720,note_on,0,0,4,,,,,,,,,4,,,72,54
6876,note_off,0,0,4,,,,,,,,,4,,,67,0
6876,note_off,156,0,4,,,,,,,,,4,,,72,0
6876,note_off,156,0,5,,,,,,,,,5,,,63,0
7200,note_on,324,0,4,,,,,,,,,4,,,67,49
7200,note_on,324,0,5,,,,,,,,,5,,,63,49
7200,note_on,0,0,4,,,,,,,,,4,,,72,49
7356,note_off,156,0,5,,,,,,,,,5,,,63,0
7356,note_off,156,0,4,,,,,,,,,4,,,72,0
7356,note_off,0,0,4,,,,,,,,,4,,,67,0
7560,set_tempo,1800,1,0,,,,,,266666,,,,,,,
7680,note_on,1440,0,1,,,,,,,,,1,,,80,54
8160,note_off,480,0,1,,,,,,,,,1,,,80,0
8160,note_on,804,0,5,,,,,,,,,5,,,62,48
8160,note_on,0,0,4,,,,,,,,,4,,,68,48
8160,note_on,804,0,4,,,,,,,,,4,,,71,48
8160,note_on,0,0,4,,,,,,,,,4,,,65,48
8316,note_off,0,0,4,,,,,,,,,4,,,71,0
8316,note_off,0,0,4,,,,,,,,,4,,,65,0
8316,note_off,156,0,4,,,,,,,,,4,,,68,0
8316,note_off,156,0,5,,,,,,,,,5,,,62,0
8640,note_on,324,0,5,,,,,,,,,5,,,62,41
8640,note_on,324,0,4,,,,,,,,,4,,,71,41
8640,note_on,0,0,4,,,,,,,,,4,,,65,41
8640,note_on,0,0,4,,,,,,,,,4,,,68,41
8796,note_off,156,0,5,,,,,,,,,5,,,62,0
8796,note_off,156,0,4,,,,,,,,,4,,,68,0
8796,note_off,0,0,4,,,,,,,,,4,,,71,0
8796,note_off,0,0,4,,,,,,,,,4,,,65,0
9135,set_tempo,1575,1,0,,,,,,269058,,,,,,,
9600,note_on,804,0,5,,,,,,,,,5,,,43,85
9600,note_on,1440,0,1,,,,,,,,,1,,,55,85
9600,note_on,0,0,5,,,,,,,,,5,,,31,85
9600,set_tempo,465,1,0,,,,,,263157,,,,,,,
10225,note_off,625,0,1,,,,,,,,,1,,,55,0
10225,note_off,625,0,5,,,,,,,,,5,,,31,0
10225,note_off,0,0,5,,,,,,,,,5,,,43,0
10560,note_on,335,0,1,,,,,,,,,1,,,59,78
10560,note_on,335,0,5,,,,,,,,,5,,,47,78
10560,note_on,0,0,5,,,,,,,,,5,,,35,78
10800,note_off,240,0,5,,,,,,,,,5,,,35,0
10800,note_off,240,0,1,,,,,,,,,1,,,59,0
10800,note_off,0,0,5,,,,,,,,,5,,,47,0
11040,note_on,240,0,5,,,,,,,,,5,,,50,74
11040,note_on,0,0,5,,,,,,,,,5,,,38,74
11040,note_on,240,0,1,,,,,,,,,1,,,62,74
11280,note_off,240,0,5,,,,,,,,,5,,,38,0
11280,note_off,0,0,5,,,,,,,,,5,,,50,0
11280,note_off,240,0,1,,,,,,,,,1,,,62,0
11520,note_on,240,0,5,,,,,,,,,5,,,55,70
11520,note_on,0,0,5,,,,,,,,,5,,,43,70
11520,note_on,240,0,1,,,,,,,,,1,,,67,70
11760,note_off,240,0,1,,,,,,,,,1,,,67,0
11760,note_off,240,0,5,,,,,,,,,5,,,43,0
11760,note_off,0,0,5,,,,,,,,,5,,,55,0
12000,note_on,240,0,1,,,,,,,,,1,,,71,67
12000,note_on,240,0,5,,,,,,,,,5,,,59,67
12000,note_on,0,0,5,,,,,,,,,5,,,47,67
12240,note_off,240,0,1,,,,,,,,,1,,,71,0
12240,note_off,240,0,5,,,,,,,,,5,,,47,0
12240,note_off,0,0,5,,,,,,,,,5,,,59,0
12480,set_tempo,2880,1,0,,,,,,265486,,,,,,,
12840,note_on,600,0,1,,,,,,,,,1,,,74,48
12935,note_off,95,0,1,,,,,,,,,1,,,74,0
12960,note_on,25,0,1,,,,,,,,,1,,,74,49
13040,note_off,80,0,1,,,,,,,,,1,,,74,0
13040,note_on,0,0,1,,,,,,,,,1,,,75,51
13120,note_off,80,0,1,,,,,,,,,1,,,75,0
13120,note_on,0,0,1,,,,,,,,,1,,,74,52
13200,note_off,80,0,1,,,,,,,,,1,,,74,0
13200,note_on,0,0,1,,,,,,,,,1,,,72,53
13320,note_off,120,0,1,,,,,,,,,1,,,72,0
13320,note_on,0,0,1,,,,,,,,,1,,,74,55
13400,set_tempo,920,1,0,,,,,,266666,,,,,,,
13416,note_off,96,0,1,,,,,,,,,1,,,74,0
13440,note_on,24,0,1,,,,,,,,,1,,,77,58
13440,set_tempo,40,1,0,,,,,,265486,,,,,,,
13920,note_on,0,0,4,,,,,,,,,4,,,65,54
13920,note_off,480,0,1,,,,,,,,,1,,,77,0
13920,note_on,5124,0,4,,,,,,,,,4,,,71,54
13920,note_on,0,0,4,,,,,,,,,4,,,68,54
13920,note_on,1680,0,5,,,,,,,,,5,,,62,54
14076,note_off,0,0,4,,,,,,,,,4,,,65,0
14076,note_off,156,0,4,,,,,,,,,4,,,68,0
14076,note_off,156,0,5,,,,,,,,,5,,,62,0
14076,note_off,0,0,4,,,,,,,,,4,,,71,0
14400,note_on,0,0,4,,,,,,,,,4,,,65,49
14400,note_on,324,0,4,,,,,,,,,4,,,71,49
14400,note_on,0,0,4,,,,,,,,,4,,,68,49
14400,note_on,324,0,5,,,,,,,,,5,,,62,49
14556,note_off,156,0,5,,,,,,,,,5,,,62,0
14556,note_off,0,0,4,,,,,,,,,4,,,65,0
14556,note_off,156,0,4,,,,,,,,,4,,,68,0
14556,note_off,0,0,4,,,,,,,,,4,,,71,0
14880,note_on,0,0,4,,,,,,,,,4,,,65,45
14880,note_on,0,0,4,,,,,,,,,4,,,68,45
14880,note_on,324,0,5,,,,,,,,,5,,,62,45
14880,note_on,324,0,4,,,,,,,,,4,,,71,45
15036,note_off,156,0,5,,,,,,,,,5,,,62,0
15036,note_off,0,0,4,,,,,,,,,4,,,65,0
15036,note_off,156,0,4,,,,,,,,,4,,,68,0
15036,note_off,0,0,4,,,,,,,,,4,,,71,0
15255,set_tempo,1815,1,0,,,,,,266666,,,,,,,
15360,note_on,1440,0,1,,,,,,,,,1,,,79,50
15840,note_on,0,0,4,,,,,,,,,4,,,67,43
15840,note_off,480,0,1,,,,,,,,,1,,,79,0
15840,note_on,804,0,5,,,,,,,,,5,,,63,43
15840,note_on,804,0,4,,,,,,,,,4,,,72,43
15996,note_off,156,0,4,,,,,,,,,4,,,67,0
15996,note_off,156,0,5,,,,,,,,,5,,,63,0
15996,note_off,0,0,4,,,,,,,,,4,,,72,0
16320,note_on,0,0,4,,,,,,,,,4,,,67,37
16320,note_on,324,0,4,,,,,,,,,4,,,72,37
16320,note_on,324,0,5,,,,,,,,,5,,,63,37
16476,note_off,156,0,4,,,,,,,,,4,,,67,0
16476,note_off,156,0,5,,,,,,,,,5,,,63,0
16476,note_off,0,0,4,,,,,,,,,4,,,72,0
16785,set_tempo,1530,1,0,,,,,,273972,,,,,,,
17280,set_tempo,495,1,0,,,,,,256410,,,,,,,
17280,note_on,1440,0,1,,,,,,,,,1,,,67,53
17280,note_on,804,0,5,,,,,,,,,5,,,43,53
17520,note_on,15600,0,3,,,,,,,,,3,,,55,49
17640,note_off,360,0,5,,,,,,,,,5,,,43,0
17710,note_off,190,0,3,,,,,,,,,3,,,55,0
17760,note_on,120,0,5,,,,,,,,,5,,,43,46
18000,note_on,290,0,3,,,,,,,,,3,,,55,42
18120,note_off,360,0,5,,,,,,,,,5,,,43,0
18190,note_off,190,0,3,,,,,,,,,3,,,55,0
18240,note_on,120,0,5,,,,,,,,,5,,,43,43
18480,note_on,290,0,3,,,,,,,,,3,,,55,45
18600,note_off,360,0,5,,,,,,,,,5,,,43,0
18660,note_off,1380,0,1,,,,,,,,,1,,,67,0
18670,note_off,190,0,3,,,,,,,,,3,,,55,0
18720,note_on,16800,0,2,,,,,,,,,2,,,67,47
18720,note_on,120,0,5,,,,,,,,,5,,,43,47
18720,note_on,60,0,1,,,,,,,,,1,,,75,47
18960,note_on,290,0,3,,,,,,,,,3,,,55,49
19080,note_off,360,0,5,,,,,,,,,5,,,43,0
19150,note_off,190,0,3,,,,,,,,,3,,,55,0
19200,note_on,0,0,2,,,,,,,,,2,,,66,51
19200,note_off,480,0,2,,,,,,,,,2,,,67,0
19200,note_on,120,0,5,,,,,,,,,5,,,43,51
19440,note_on,290,0,3,,,,,,,,,3,,,55,54
19560,note_off,360,0,5,,,,,,,,,5,,,43,0
19630,note_off,190,0,3,,,,,,,,,3,,,55,0
19680,note_off,480,0,2,,,,,,,,,2,,,66,0
19680,note_on,0,0,2,,,,,,,,,2,,,65,56
19680,note_off,960,0,1,,,,,,,,,1,,,75,0
19680,note_on,120,0,5,,,,,,,,,5,,,43,56
19680,note_on,0,0,1,,,,,,,,,1,,,74,56
19920,note_on,290,0,3,,,,,,,,,3,,,55,58
20040,note_off,360,0,5,,,,,,,,,5,,,43,0
20110,note_off,190,0,3,,,,,,,,,3,,,55,0
20160,note_off,480,0,2,,,,,,,,,2,,,65,0
20160,note_on,0,0,2,,,,,,,,,2,,,64,60
20160,note_on,120,0,5,,,,,,,,,5,,,43,60
20400,note_on,290,0,3,,,,,,,,,3,,,55,63
20520,note_off,360,0,5,,,,,,,,,5,,,43,0
20590,note_off,190,0,3,,,,,,,,,3,,,55,0
20640,note_off,960,0,1,,,,,,,,,1,,,74,0
20640,note_on,0,0,1,,,,,,,,,1,,,72,65
20640,note_off,480,0,2,,,,,,,,,2,,,64,0
20640,note_on,0,0,2,,,,,,,,,2,,,63,65
20640,note_on,120,0,5,,,,,,,,,5,,,43,65
20880,note_on,290,0,3,,,,,,,,,3,,,55,67
21000,note_off,360,0,5,,,,,,,,,5,,,43,0
21070,note_off,190,0,3,,,,,,,,,3,,,55,0
21120,note_off,480,0,2,,,,,,,,,2,,,63,0
21120,note_on,0,0,2,,,,,,,,,2,,,62,71
21120,note_on,120,0,5,,,,,,,,,5,,,43,71
21360,note_on,290,0,3,,,,,,,,,3,,,55,60
21480,note_off,360,0,5,,,,,,,,,5,,,43,0
21550,note_off,190,0,3,,,,,,,,,3,,,55,0
21600,note_on,0,0,1,,,,,,,,,1,,,71,52
21600,note_on,120,0,5,,,,,,,,,5,,,43,52
21600,note_off,960,0,1,,,,,,,,,1,,,72,0
21840,note_on,290,0,3,,,,,,,,,3,,,55,46
21960,note_off,360,0,1,,,,,,,,,1,,,71,0
21960,note_off,360,0,5,,,,,,,,,5,,,43,0
21967,note_off,847,0,2,,,,,,,,,2,,,62,0
22030,note_off,190,0,3,,,,,,,,,3,,,55,0
22080,note_on,120,0,5,,,,,,,,,5,,,43,48
22320,note_on,290,0,3,,,,,,,,,3,,,55,50
22440,note_off,360,0,5,,,,,,,,,5,,,43,0
22510,note_off,190,0,3,,,,,,,,,3,,,55,0
22560,note_on,120,0,5,,,,,,,,,5,,,43,52
22560,note_on,600,0,1,,,,,,,,,1,,,79,52
22560,note_on,593,0,2,,,,,,,,,2,,,75,52
22800,note_on,290,0,3,,,,,,,,,3,,,55,54
22920,note_off,360,0,5,,,,,,,,,5,,,43,0
22990,note_off,190,0,3,,,,,,,,,3,,,55,0
23040,note_on,120,0,5,,,,,,,,,5,,,43,57
23040,note_on,0,0,1,,,,,,,,,1,,,78,57
23040,note_off,480,0,1,,,,,,,,,1,,,79,0
23280,note_on,290,0,3,,,,,,,,,3,,,55,59
23400,note_off,360,0,5,,,,,,,,,5,,,43,0
23470,note_off,190,0,3,,,,,,,,,3,,,55,0
23520,note_off,960,0,2,,,,,,,,,2,,,75,0
23520,note_on,0,0,2,,,,,,,,,2,,,74,61
23520,note_on,120,0,5,,,,,,,,,5,,,43,61
23520,note_off,480,0,1,,,,,,,,,1,,,78,0
23520,note_on,0,0,1,,,,,,,,,1,,,77,61
23760,note_on,290,0,3,,,,,,,,,3,,,55,63
23880,note_off,360,0,5,,,,,,,,,5,,,43,0
23950,note_off,190,0,3,,,,,,,,,3,,,55,0
24000,note_on,0,0,1,,,,,,,,,1,,,76,66
24000,note_off,480,0,1,,,,,,,,,1,,,77,0
24000,note_on,120,0,5,,,,,,,,,5,,,43,66
24240,note_on,290,0,3,,,,,,,,,3,,,55,68
24360,note_off,360,0,5,,,,,,,,,5,,,43,0
24430,note_off,190,0,3,,,,,,,,,3,,,55,0
24480,note_on,0,0,1,,,,,,,,,1,,,75,70
24480,note_off,960,0,2,,,,,,,,,2,,,74,0
24480,note_off,480,0,1,,,,,,,,,1,,,76,0
24480,note_on,120,0,5,,,,,,,,,5,,,43,70
24480,note_on,0,0,2,,,,,,,,,2,,,72,70
24720,note_on,290,0,3,,,,,,,,,3,,,55,72
24840,note_off,360,0,5,,,,,,,,,5,,,43,0
24910,note_off,190,0,3,,,,,,,,,3,,,55,0
24960,note_off,480,0,1,,,,,,,,,1,,,75,0
24960,note_on,120,0,5,,,,,,,,,5,,,43,77
24960,note_on,0,0,1,,,,,,,,,1,,,74,77
25200,note_on,290,0,3,,,,,,,,,3,,,55,66
25390,note_off,190,0,3,,,,,,,,,3,,,55,0
25440,note_on,0,0,2,,,,,,,,,2,,,71,59
25440,note_off,960,0,2,,,,,,,,,2,,,72,0
25440,note_on,50,0,3,,,,,,,,,3,,,55,59
25630,note_off,190,0,3,,,,,,,,,3,,,55,0
25680,note_off,720,0,5,,,,,,,,,5,,,43,0
25680,note_on,50,0,3,,,,,,,,,3,,,55,52
25800,note_off,360,0,2,,,,,,,,,2,,,71,0
25800,note_off,840,0,1,,,,,,,,,1,,,74,0
25870,note_off,190,0,3,,,,,,,,,3,,,55,0
25920,note_on,240,0,5,,,,,,,,,5,,,41,54
26160,note_on,290,0,3,,,,,,,,,3,,,53,56
26350,note_off,190,0,3,,,,,,,,,3,,,53,0
26400,note_on,50,0,3,,,,,,,,,3,,,53,57
26400,note_on,0,0,2,,,,,,,,,2,,,74,57
26400,note_on,600,0,2,,,,,,,,,2,,,71,57
26400,note_on,600,0,1,,,,,,,,,1,,,80,57
26590,note_off,190,0,3,,,,,,,,,3,,,53,0
26640,note_on,50,0,3,,,,,,,,,3,,,53,59
26640,note_off,720,0,5,,,,,,,,,5,,,41,0
26830,note_off,190,0,3,,,,,,,,,3,,,53,0
26880,note_on,240,0,5,,,,,,,,,5,,,39,60
27120,note_on,290,0,3,,,,,,,,,3,,,51,62
27310,note_off,190,0,3,,,,,,,,,3,,,51,0
27360,note_on,0,0,1,,,,,,,,,1,,,79,63
27360,note_off,960,0,1,,,,,,,,,1,,,80,0
27360,note_off,960,0,2,,,,,,,,,2,,,74,0
27360,note_on,0,0,2,,,,,,,,,2,,,75,63
27360,note_on,0,0,2,,,,,,,,,2,,,72,63
27360,note_on,50,0,3,,,,,,,,,3,,,51,63
27360,note_off,0,0,2,,,,,,,,,2,,,71,0
27550,note_off,190,0,3,,,,,,,,,3,,,51,0
27600,note_off,720,0,5,,,,,,,,,5,,,39,0
27600,note_on,50,0,3,,,,,,,,,3,,,51,65
27720,note_off,360,0,1,,,,,,,,,1,,,79,0
27720,note_off,360,0,2,,,,,,,,,2,,,75,0
27720,note_off,0,0,2,,,,,,,,,2,,,72,0
27790,note_off,190,0,3,,,,,,,,,3,,,51,0
27840,note_on,240,0,5,,,,,,,,,5,,,35,66
28080,note_on,290,0,3,,,,,,,,,3,,,47,68
28200,note_on,480,0,1,,,,,,,,,1,,,67,69
28270,note_off,190,0,3,,,,,,,,,3,,,47,0
28320,note_off,120,0,1,,,,,,,,,1,,,67,0
28320,note_on,0,0,1,,,,,,,,,1,,,74,69
28320,note_on,50,0,3,,,,,,,,,3,,,47,69
28510,note_off,190,0,3,,,,,,,,,3,,,47,0
28560,note_on,50,0,3,,,,,,,,,3,,,47,71
28560,note_off,720,0,5,,,,,,,,,5,,,35,0
28680,note_off,360,0,1,,,,,,,,,1,,,74,0
28680,note_on,0,0,1,,,,,,,,,1,,,77,72
28750,note_off,190,0,3,,,,,,,,,3,,,47,0
28800,note_off,120,0,1,,,,,,,,,1,,,77,0
28800,note_on,0,0,1,,,,,,,,,1,,,75,64
28800,note_on,240,0,5,,,,,,,,,5,,,36,72
28860,note_off,60,0,1,,,,,,,,,1,,,75,0
28860,note_on,0,0,1,,,,,,,,,1,,,77,65
28920,note_on,0,0,1,,,,,,,,,1,,,75,67
28920,note_off,60,0,1,,,,,,,,,1,,,77,0
28980,note_on,0,0,1,,,,,,,,,1,,,74,69
28980,note_off,60,0,1,,,,,,,,,1,,,75,0
29040,note_off,60,0,1,,,,,,,,,1,,,74,0
29040,note_on,0,0,1,,,,,,,,,1,,,75,71
29040,note_on,290,0,3,,,,,,,,,3,,,48,74
29160,note_off,120,0,1,,,,,,,,,1,,,75,0
29160,note_on,0,0,1,,,,,,,,,1,,,77,74
29230,note_off,190,0,3,,,,,,,,,3,,,48,0
29280,note_on,0,0,1,,,,,,,,,1,,,79,78
29280,note_off,120,0,1,,,,,,,,,1,,,77,0
29280,note_on,50,0,3,,,,,,,,,3,,,48,76
29470,note_off,190,0,3,,,,,,,,,3,,,48,0
29520,note_off,720,0,5,,,,,,,,,5,,,36,0
29520,note_on,50,0,3,,,,,,,,,3,,,48,77
29710,note_off,190,0,3,,,,,,,,,3,,,48,0
29760,note_off,480,0,1,,,,,,,,,1,,,79,0
29760,note_on,240,0,5,,,,,,,,,5,,,41,79
30000,note_on,290,0,3,,,,,,,,,3,,,53,80
30190,note_off,190,0,3,,,,,,,,,3,,,53,0
30240,note_on,50,0,3,,,,,,,,,3,,,53,82
30240,note_on,480,0,1,,,,,,,,,1,,,80,82
30240,note_on,0,0,2,,,,,,,,,2,,,74,82
30240,note_on,2520,0,2,,,,,,,,,2,,,71,82
30430,note_off,190,0,3,,,,,,,,,3,,,53,0
30480,note_off,720,0,5,,,,,,,,,5,,,41,0
30480,note_on,50,0,3,,,,,,,,,3,,,53,83
30670,note_off,190,0,3,,,,,,,,,3,,,53,0
30720,note_on,240,0,5,,,,,,,,,5,,,39,85
30960,note_on,290,0,3,,,,,,,,,3,,,51,86
31150,note_off,190,0,3,,,,,,,,,3,,,51,0
31200,note_off,960,0,1,,,,,,,,,1,,,80,0
31200,note_on,0,0,1,,,,,,,,,1,,,79,88
31200,note_on,50,0,3,,,,,,,,,3,,,51,88
31200,note_off,960,0,2,,,,,,,,,2,,,74,0
31200,note_on,0,0,2,,,,,,,,,2,,,75,88
31200,note_on,0,0,2,,,,,,,,,2,,,72,88
31200,note_off,0,0,2,,,,,,,,,2,,,71,0
31390,note_off,190,0,3,,,,,,,,,3,,,51,0
31440,note_off,720,0,5,,,,,,,,,5,,,39,0
31440,note_on,50,0,3,,,,,,,,,3,,,51,89
31560,note_off,360,0,2,,,,,,,,,2,,,72,0
31560,note_off,360,0,1,,,,,,,,,1,,,79,0
31560,note_off,0,0,2,,,,,,,,,2,,,75,0
31620,set_tempo,14340,1,0,,,,,,258620,,,,,,,
31630,note_off,190,0,3,,,,,,,,,3,,,51,0
31680,note_on,240,0,5,,,,,,,,,5,,,38,91
31920,note_on,290,0,3,,,,,,,,,3,,,50,92
32040,note_on,480,0,1,,,,,,,,,1,,,77,93
32110,note_off,190,0,3,,,,,,,,,3,,,50,0
32160,note_off,120,0,1,,,,,,,,,1,,,77,0
32160,note_on,50,0,3,,,,,,,,,3,,,50,94
32160,note_on,0,0,1,,,,,,,,,1,,,86,94
32350,note_off,190,0,3,,,,,,,,,3,,,50,0
32400,note_off,720,0,5,,,,,,,,,5,,,38,0
32400,note_on,50,0,3,,,,,,,,,3,,,50,95
32520,note_on,0,0,1,,,,,,,,,1,,,89,96
32520,note_off,360,0,1,,,,,,,,,1,,,86,0
32535,set_tempo,915,1,0,,,,,,260869,,,,,,,
32590,note_off,190,0,3,,,,,,,,,3,,,50,0
32640,note_on,240,0,5,,,,,,,,,5,,,48,97
32640,note_on,0,0,1,,,,,,,,,1,,,87,97
32640,note_off,120,0,1,,,,,,,,,1,,,89,0
32830,note_off,190,0,1,,,,,,,,,1,,,87,0
32880,note_on,1320,0,2,,,,,,,,,2,,,79,94
33000,note_off,360,0,5,,,,,,,,,5,,,48,0
33120,note_on,0,0,2,,,,,,,,,2,,,84,92
33120,note_off,240,0,2,,,,,,,,,2,,,79,0
33360,note_off,240,0,2,,,,,,,,,2,,,84,0
33360,note_on,0,0,2,,,,,,,,,2,,,75,90
33552,note_off,192,0,2,,,,,,,,,2,,,75,0
33600,note_on,600,0,5,,,,,,,,,5,,,53,88
33840,note_on,288,0,2,,,,,,,,,2,,,77,86
33960,note_off,360,0,5,,,,,,,,,5,,,53,0
34080,note_off,240,0,2,,,,,,,,,2,,,77,0
34080,note_on,0,0,2,,,,,,,,,2,,,80,84
34320,note_off,240,0,2,,,,,,,,,2,,,80,0
34320,note_on,0,0,2,,,,,,,,,2,,,74,83
34512,note_off,192,0,2,,,,,,,,,2,,,74,0
34560,note_on,600,0,5,,,,,,,,,5,,,55,81
34800,note_on,288,0,2,,,,,,,,,2,,,75,79
34920,note_off,360,0,5,,,,,,,,,5,,,55,0
35040,note_off,240,0,2,,,,,,,,,2,,,75,0
35040,note_on,0,0,2,,,,,,,,,2,,,79,77
35280,note_off,240,0,2,,,,,,,,,2,,,79,0
35280,note_on,0,0,2,,,,,,,,,2,,,72,76
35460,set_tempo,2925,1,0,,,,,,263157,,,,,,,
35472,note_off,192,0,2,,,,,,,,,2,,,72,0
35520,note_on,600,0,5,,,,,,,,,5,,,43,74
35760,note_on,288,0,2,,,,,,,,,2,,,74,72
35880,note_off,360,0,5,,,,,,,,,5,,,43,0
36000,note_off,240,0,2,,,,,,,,,2,,,74,0
36000,note_on,0,0,2,,,,,,,,,2,,,77,70
36240,note_off,240,0,2,,,,,,,,,2,,,77,0
36240,note_on,0,0,2,,,,,,,,,2,,,71,68
36375,set_tempo,915,1,0,,,,,,319148,,,,,,,
36432,note_off,192,0,2,,,,,,,,,2,,,71,0
36480,control_change,20004,0,4,,,,,,,64,0,4,,,,
36480,note_on,0,0,1,,,,,,,,,1,,,72,95
36480,control_change,3890,0,3,,,,,,,64,0,3,,,,
36480,set_tempo,105,1,0,,,,,,263157,,,,,,,
36480,control_change,48,0,2,,,,,,,64,0,2,,,,
36480,control_change,600,0,5,,,,,,,64,0,5,,,,
36480,control_change,3650,0,1,,,,,,,64,0,1,,,,
36480,note_on,0,0,1,,,,,,,,,1,,,60,95
37105,note_off,0,0,1,,,,,,,,,1,,,72,0
37105,note_off,625,0,1,,,,,,,,,1,,,60,0
37440,note_on,335,0,1,,,,,,,,,1,,,75,86
37440,note_on,0,0,1,,,,,,,,,1,,,63,86
37680,note_off,240,0,1,,,,,,,,,1,,,63,0
37680,note_off,0,0,1,,,,,,,,,1,,,75,0
37920,note_on,0,0,1,,,,,,,,,1,,,67,82
37920,note_on,240,0,1,,,,,,,,,1,,,79,82
38160,note_off,240,0,1,,,,,,,,,1,,,67,0
38160,note_off,0,0,1,,,,,,,,,1,,,79,0
38400,note_on,0,0,1,,,,,,,,,1,,,72,78
38400,note_on,240,0,1,,,,,,,,,1,,,84,78
38640,note_off,0,0,1,,,,,,,,,1,,,84,0
38640,note_off,240,0,1,,,,,,,,,1,,,72,0
38880,note_on,240,0,1,,,,,,,,,1,,,87,73
38880,note_on,0,0,1,,,,,,,,,1,,,75,73
39120,note_off,0,0,1,,,,,,,,,1,,,87,0
39120,note_off,240,0,1,,,,,,,,,1,,,75,0
39240,set_tempo,2760,1,0,,,,,,265486,,,,,,,
39360,set_tempo,120,1,0,,,,,,263157,,,,,,,
39720,note_on,600,0,1,,,,,,,,,1,,,75,66
39815,note_off,95,0,1,,,,,,,,,1,,,75,0
39840,note_on,25,0,1,,,,,,,,,1,,,75,70
39920,note_off,80,0,1,,,,,,,,,1,,,75,0
39920,note_on,0,0,1,,,,,,,,,1,,,77,73
40000,note_off,80,0,1,,,,,,,,,1,,,77,0
40000,note_on,0,0,1,,,,,,,,,1,,,75,75
40080,note_on,0,0,1,,,,,,,,,1,,,74,78
40080,note_off,80,0,1,,,,,,,,,1,,,75,0
40200,note_on,0,0,1,,,,,,,,,1,,,75,82
40200,note_off,120,0,1,,,,,,,,,1,,,74,0
40280,set_tempo,920,1,0,,,,,,265486,,,,,,,
40296,note_off,96,0,1,,,,,,,,,1,,,75,0
40320,note_on,0,0,5,,,,,,,,,5,,,34,92
40320,set_tempo,40,1,0,,,,,,263157,,,,,,,
40320,note_on,24,0,1,,,,,,,,,1,,,80,87
40320,note_on,3840,0,5,,,,,,,,,5,,,46,92
40450,note_off,130,0,1,,,,,,,,,1,,,80,0
40480,note_on,30,0,1,,,,,,,,,1,,,82,85
40610,note_off,130,0,1,,,,,,,,,1,,,82,0
40640,note_on,30,0,1,,,,,,,,,1,,,84,83
40770,note_off,130,0,1,,,,,,,,,1,,,84,0
40800,note_on,30,0,1,,,,,,,,,1,,,82,82
40930,note_off,130,0,1,,,,,,,,,1,,,82,0
40945,note_off,625,0,5,,,,,,,,,5,,,34,0
40945,note_off,0,0,5,,,,,,,,,5,,,46,0
40960,note_on,30,0,1,,,,,,,,,1,,,80,80
41090,note_off,130,0,1,,,,,,,,,1,,,80,0
41120,note_on,30,0,1,,,,,,,,,1,,,79,78
41250,note_off,130,0,1,,,,,,,,,1,,,79,0
41280,note_on,30,0,1,,,,,,,,,1,,,77,76
41280,note_on,335,0,5,,,,,,,,,5,,,50,80
41280,note_on,0,0,5,,,,,,,,,5,,,38,80
41410,note_off,130,0,1,,,,,,,,,1,,,77,0
41440,note_on,30,0,1,,,,,,,,,1,,,79,74
41520,note_off,240,0,5,,,,,,,,,5,,,38,0
41520,note_off,0,0,5,,,,,,,,,5,,,50,0
41570,note_off,130,0,1,,,,,,,,,1,,,79,0
41600,note_on,30,0,1,,,,,,,,,1,,,80,72
41730,note_off,130,0,1,,,,,,,,,1,,,80,0
41760,note_on,240,0,5,,,,,,,,,5,,,53,74
41760,note_on,30,0,1,,,,,,,,,1,,,79,71
41760,note_on,0,0,5,,,,,,,,,5,,,41,74
41890,note_off,130,0,1,,,,,,,,,1,,,79,0
41920,note_on,30,0,1,,,,,,,,,1,,,77,69
42000,note_off,0,0,5,,,,,,,,,5,,,53,0
42000,note_off,240,0,5,,,,,,,,,5,,,41,0
42050,note_off,130,0,1,,,,,,,,,1,,,77,0
42080,note_on,30,0,1,,,,,,,,,1,,,75,67
42210,note_off,130,0,1,,,,,,,,,1,,,75,0
42240,note_on,240,0,5,,,,,,,,,5,,,46,68
42240,note_on,0,0,5,,,,,,,,,5,,,58,68
42240,note_on,30,0,1,,,,,,,,,1,,,74,65
42370,note_off,130,0,1,,,,,,,,,1,,,74,0
42400,note_on,30,0,1,,,,,,,,,1,,,75,63
42480,note_off,240,0,5,,,,,,,,,5,,,58,0
42480,note_off,0,0,5,,,,,,,,,5,,,46,0
42530,note_off,130,0,1,,,,,,,,,1,,,75,0
42560,note_on,30,0,1,,,,,,,,,1,,,77,61
42690,note_off,130,0,1,,,,,,,,,1,,,77,0
42720,note_on,0,0,5,,,,,,,,,5,,,50,62
42720,note_on,240,0,5,,,,,,,,,5,,,62,62
42720,note_on,30,0,1,,,,,,,,,1,,,75,59
42850,note_off,130,0,1,,,,,,,,,1,,,75,0
42880,note_on,30,0,1,,,,,,,,,1,,,74,58
42960,note_off,240,0,5,,,,,,,,,5,,,50,0
42960,note_off,0,0,5,,,,,,,,,5,,,62,0
43010,note_off,130,0,1,,,,,,,,,1,,,74,0
43040,note_on,30,0,1,,,,,,,,,1,,,72,56
43170,note_off,130,0,1,,,,,,,,,1,,,72,0
43200,note_on,30,0,1,,,,,,,,,1,,,70,54
43330,note_off,130,0,1,,,,,,,,,1,,,70,0
43360,note_on,30,0,1,,,,,,,,,1,,,72,52
43490,note_off,130,0,1,,,,,,,,,1,,,72,0
43520,note_on,30,0,1,,,,,,,,,1,,,70,50
43650,note_off,130,0,1,,,,,,,,,1,,,70,0
43680,note_on,30,0,1,,,,,,,,,1,,,68,49
43810,note_off,130,0,1,,,,,,,,,1,,,68,0
43840,note_on,30,0,1,,,,,,,,,1,,,70,45
43970,note_off,130,0,1,,,,,,,,,1,,,70,0
44000,note_on,30,0,1,,,,,,,,,1,,,68,41
44070,set_tempo,3750,1,0,,,,,,265486,,,,,,,
44130,note_off,130,0,1,,,,,,,,,1,,,68,0
44160,note_on,30,0,1,,,,,,,,,1,,,67,38
44160,note_on,1200,0,5,,,,,,,,,5,,,51,38
44160,set_tempo,90,1,0,,,,,,256410,,,,,,,
44400,note_on,7920,0,3,,,,,,,,,3,,,58,39
44640,note_off,240,0,3,,,,,,,,,3,,,58,0
44640,note_on,0,0,3,,,,,,,,,3,,,55,41
44880,note_on,240,0,3,,,,,,,,,3,,,58,42
44880,note_on,8400,0,2,,,,,,,,,2,,,68,32
44880,note_off,720,0,1,,,,,,,,,1,,,67,0
44880,note_off,720,0,5,,,,,,,,,5,,,51,0
44940,note_off,60,0,2,,,,,,,,,2,,,68,0
44940,note_on,0,0,2,,,,,,,,,2,,,67,34
45000,note_off,120,0,3,,,,,,,,,3,,,55,0
45000,note_on,0,0,2,,,,,,,,,2,,,65,37
45000,note_off,60,0,2,,,,,,,,,2,,,67,0
45060,note_off,60,0,2,,,,,,,,,2,,,65,0
45060,note_on,0,0,2,,,,,,,,,2,,,67,39
45120,note_off,60,0,2,,,,,,,,,2,,,67,0
45120,note_on,240,0,1,,,,,,,,,1,,,68,42
45120,note_off,120,0,3,,,,,,,,,3,,,58,0
45120,note_on,240,0,5,,,,,,,,,5,,,53,43
45360,note_on,240,0,3,,,,,,,,,3,,,58,45
45600,note_on,0,0,3,,,,,,,,,3,,,56,46
45600,note_off,240,0,3,,,,,,,,,3,,,58,0
45600,note_on,0,0,1,,,,,,,,,1,,,62,46
45600,note_off,480,0,1,,,,,,,,,1,,,68,0
45840,note_off,720,0,5,,,,,,,,,5,,,53,0
45840,note_on,240,0,3,,,,,,,,,3,,,58,47
45960,note_off,120,0,3,,,,,,,,,3,,,56,0
46080,note_off,120,0,3,,,,,,,,,3,,,58,0
46080,note_on,240,0,5,,,,,,,,,5,,,55,49
46080,note_off,480,0,1,,,,,,,,,1,,,62,0
46080,note_on,0,0,1,,,,,,,,,1,,,63,48
46235,note_off,155,0,1,,,,,,,,,1,,,63,0
46320,note_on,240,0,3,,,,,,,,,3,,,58,50
46320,note_on,85,0,1,,,,,,,,,1,,,67,53
46440,note_off,360,0,5,,,,,,,,,5,,,55,0
46475,note_off,155,0,1,,,,,,,,,1,,,67,0
46560,note_off,240,0,3,,,,,,,,,3,,,58,0
46560,note_on,85,0,1,,,,,,,,,1,,,70,57
46560,note_on,120,0,5,,,,,,,,,5,,,51,52
46800,note_on,240,0,3,,,,,,,,,3,,,58,53
46920,note_off,360,0,5,,,,,,,,,5,,,51,0
47040,note_off,240,0,3,,,,,,,,,3,,,58,0
47040,note_on,120,0,5,,,,,,,,,5,,,50,54
47280,note_on,240,0,3,,,,,,,,,3,,,58,56
47280,note_on,0,0,1,,,,,,,,,1,,,69,56
47280,note_off,720,0,1,,,,,,,,,1,,,70,0
47400,note_off,360,0,5,,,,,,,,,5,,,50,0
47520,note_on,120,0,5,,,,,,,,,5,,,46,57
47520,note_off,240,0,3,,,,,,,,,3,,,58,0
47520,note_off,240,0,1,,,,,,,,,1,,,69,0
47520,note_on,0,0,1,,,,,,,,,1,,,68,57
47760,note_on,0,0,1,,,,,,,,,1,,,66,58
47760,note_off,240,0,1,,,,,,,,,1,,,68,0
47760,note_on,240,0,3,,,,,,,,,3,,,58,58
47880,note_off,360,0,5,,,,,,,,,5,,,46,0
47940,set_tempo,3780,1,0,,,,,,257510,,,,,,,
47947,note_off,187,0,1,,,,,,,,,1,,,66,0
47952,note_off,192,0,3,,,,,,,,,3,,,58,0
48000,set_tempo,60,1,0,,,,,,256410,,,,,,,
48000,note_on,120,0,5,,,,,,,,,5,,,51,60
48000,note_on,53,0,1,,,,,,,,,1,,,67,60
48240,note_on,288,0,3,,,,,,,,,3,,,58,61
48480,note_off,240,0,3,,,,,,,,,3,,,58,0
48480,note_on,0,0,3,,,,,,,,,3,,,55,63
48720,note_on,3600,0,2,,,,,,,,,2,,,68,50
48720,note_off,720,0,1,,,,,,,,,1,,,67,0
48720,note_on,240,0,3,,,,,,,,,3,,,58,64
48720,note_off,720,0,5,,,,,,,,,5,,,51,0
48780,note_on,0,0,2,,,,,,,,,2,,,67,54
48780,note_off,60,0,2,,,,,,,,,2,,,68,0
48840,note_on,0,0,2,,,,,,,,,2,,,65,57
48840,note_off,120,0,3,,,,,,,,,3,,,55,0
48840,note_off,60,0,2,,,,,,,,,2,,,67,0
48900,note_off,60,0,2,,,,,,,,,2,,,65,0
48900,note_on,0,0,2,,,,,,,,,2,,,67,61
48960,note_on,240,0,1,,,,,,,,,1,,,68,63
48960,note_off,120,0,3,,,,,,,,,3,,,58,0
48960,note_on,240,0,5,,,,,,,,,5,,,53,65
48960,note_off,60,0,2,,,,,,,,,2,,,67,0
49200,note_on,240,0,3,,,,,,,,,3,,,58,67
49440,note_off,480,0,1,,,,,,,,,1,,,68,0
49440,note_on,0,0,1,,,,,,,,,1,,,62,68
49440,note_off,240,0,3,,,,,,,,,3,,,58,0
49440,note_on,0,0,3,,,,,,,,,3,,,56,68
49680,note_off,720,0,5,,,,,,,,,5,,,53,0
49680,note_on,240,0,3,,,,,,,,,3,,,58,70
49800,note_off,120,0,3,,,,,,,,,3,,,56,0
49920,note_on,0,0,1,,,,,,,,,1,,,63,73
49920,note_off,480,0,1,,,,,,,,,1,,,62,0
49920,note_on,240,0,5,,,,,,,,,5,,,55,73
49920,note_off,120,0,3,,,,,,,,,3,,,58,0
50110,note_off,190,0,1,,,,,,,,,1,,,63,0
50160,note_on,240,0,3,,,,,,,,,3,,,58,69
50160,note_on,50,0,1,,,,,,,,,1,,,75,75
50280,note_off,360,0,5,,,,,,,,,5,,,55,0
50400,note_off,240,0,3,,,,,,,,,3,,,58,0
50400,note_on,120,0,5,,,,,,,,,5,,,51,65
50400,note_on,0,0,1,,,,,,,,,1,,,74,71
50400,note_off,240,0,1,,,,,,,,,1,,,75,0
50640,note_on,240,0,3,,,,,,,,,3,,,58,62
50640,note_off,240,0,1,,,,,,,,,1,,,74,0
50640,note_on,0,0,1,,,,,,,,,1,,,72,67
50760,note_off,360,0,5,,,,,,,,,5,,,51,0
50880,note_on,120,0,5,,,,,,,,,5,,,50,59
50880,note_off,240,0,3,,,,,,,,,3,,,58,0
50880,note_on,0,0,1,,,,,,,,,1,,,70,63
50880,note_off,240,0,1,,,,,,,,,1,,,72,0
51120,note_on,240,0,3,,,,,,,,,3,,,58,55
51120,note_on,0,0,1,,,,,,,,,1,,,69,59
51120,note_off,240,0,1,,,,,,,,,1,,,70,0
51240,note_off,360,0,5,,,,,,,,,5,,,50,0
51360,note_off,240,0,1,,,,,,,,,1,,,69,0
51360,note_off,240,0,3,,,,,,,,,3,,,58,0
51360,note_on,0,0,1,,,,,,,,,1,,,68,56
51360,note_on,120,0,5,,,,,,,,,5,,,46,52
51600,note_on,0,0,1,,,,,,,,,1,,,66,52
51600,note_on,240,0,3,,,,,,,,,3,,,58,49
51600,note_off,240,0,1,,,,,,,,,1,,,68,0
51720,note_off,360,0,5,,,,,,,,,5,,,46,0
51780,set_tempo,3780,1,0,,,,,,257510,,,,,,,
51792,note_off,192,0,1,,,,,,,,,1,,,66,0
51792,note_off,192,0,3,,,,,,,,,3,,,58,0
51840,note_on,48,0,1,,,,,,,,,1,,,67,52
51840,note_on,120,0,5,,,,,,,,,5,,,51,52
51840,set_tempo,60,1,0,,,,,,256410,,,,,,,
52080,note_on,288,0,3,,,,,,,,,3,,,58,54
52320,note_on,0,0,1,,,,,,,,,1,,,70,56
52320,note_on,0,0,3,,,,,,,,,3,,,55,56
52320,note_off,240,0,3,,,,,,,,,3,,,58,0
52320,note_off,480,0,1,,,,,,,,,1,,,67,0
52560,note_off,720,0,5,,,,,,,,,5,,,51,0
52560,note_on,240,0,3,,,,,,,,,3,,,58,58
52680,note_off,120,0,3,,,,,,,,,3,,,55,0
52705,note_off,385,0,1,,,,,,,,,1,,,70,0
52800,note_off,120,0,3,,,,,,,,,3,,,58,0
52800,note_on,240,0,5,,,,,,,,,5,,,50,60
53040,note_on,335,0,1,,,,,,,,,1,,,70,64
53040,note_on,240,0,3,,,,,,,,,3,,,58,62
53160,note_off,360,0,5,,,,,,,,,5,,,50,0
53230,note_off,190,0,1,,,,,,,,,1,,,70,0
53280,note_off,240,0,3,,,,,,,,,3,,,58,0
53280,note_on,50,0,1,,,,,,,,,1,,,70,67
53280,note_on,120,0,5,,,,,,,,,5,,,53,64
53470,note_off,190,0,1,,,,,,,,,1,,,70,0
53520,note_on,50,0,1,,,,,,,,,1,,,70,71
53520,note_on,240,0,3,,,,,,,,,3,,,58,66
53640,note_off,360,0,5,,,,,,,,,5,,,53,0
53710,note_off,190,0,1,,,,,,,,,1,,,70,0
53760,note_on,50,0,1,,,,,,,,,1,,,77,77
53760,note_off,240,0,3,,,,,,,,,3,,,58,0
53760,note_on,120,0,5,,,,,,,,,5,,,48,67
54000,note_on,240,0,3,,,,,,,,,3,,,58,69
54000,note_on,0,0,1,,,,,,,,,1,,,75,73
54000,note_off,240,0,1,,,,,,,,,1,,,77,0
54190,note_off,190,0,1,,,,,,,,,1,,,75,0
54240,note_on,50,0,1,,,,,,,,,1,,,75,70
54240,note_off,240,0,3,,,,,,,,,3,,,58,0
54240,note_on,0,0,3,,,,,,,,,3,,,55,71
54480,note_off,720,0,5,,,,,,,,,5,,,48,0
54480,note_on,240,0,3,,,,,,,,,3,,,58,73
54600,note_off,120,0,3,,,,,,,,,3,,,55,0
54625,note_off,385,0,1,,,,,,,,,1,,,75,0
54720,note_on,240,0,5,,,,,,,,,5,,,48,75
54720,note_off,120,0,3,,,,,,,,,3,,,58,0
54960,note_on,335,0,1,,,,,,,,,1,,,75,77
54960,note_on,240,0,3,,,,,,,,,3,,,58,77
55150,note_off,190,0,1,,,,,,,,,1,,,75,0
55200,note_off,240,0,3,,,,,,,,,3,,,58,0
55200,note_on,50,0,1,,,,,,,,,1,,,75,79
55200,note_on,0,0,3,,,,,,,,,3,,,55,79
55390,note_off,190,0,1,,,,,,,,,1,,,75,0
55440,note_on,240,0,3,,,,,,,,,3,,,58,81
55440,note_on,50,0,1,,,,,,,,,1,,,75,82
55440,note_off,720,0,5,,,,,,,,,5,,,48,0
55440,set_tempo,3600,1,0,,,,,,257510,,,,,,,
55560,note_off,120,0,3,,,,,,,,,3,,,55,0
55630,note_off,190,0,1,,,,,,,,,1,,,75,0
55632,note_off,72,0,3,,,,,,,,,3,,,58,0
55680,note_on,0,0,3,,,,,,,,,3,,,57,83
55680,note_on,50,0,1,,,,,,,,,1,,,75,89
55680,note_on,240,0,5,,,,,,,,,5,,,48,83
55680,note_on,48,0,3,,,,,,,,,3,,,53,83
55920,note_off,240,0,1,,,,,,,,,1,,,75,0
55920,note_on,0,0,1,,,,,,,,,1,,,77,86
56040,note_on,0,0,1,,,,,,,,,1,,,79,85
56040,note_off,120,0,1,,,,,,,,,1,,,77,0
56160,note_on,0,0,1,,,,,,,,,1,,,77,84
56160,note_off,120,0,1,,,,,,,,,1,,,79,0
56315,note_off,155,0,1,,,,,,,,,1,,,77,0
56400,note_on,85,0,1,,,,,,,,,1,,,75,81
56555,note_off,155,0,1,,,,,,,,,1,,,75,0
56640,note_on,85,0,1,,,,,,,,,1,,,74,78
56795,note_off,155,0,1,,,,,,,,,1,,,74,0
56880,note_on,85,0,1,,,,,,,,,1,,,72,76
57035,note_off,155,0,1,,,,,,,,,1,,,72,0
57120,note_on,85,0,1,,,,,,,,,1,,,70,73
57275,note_off,155,0,1,,,,,,,,,1,,,70,0
57360,note_on,85,0,1,,,,,,,,,1,,,69,71
57515,note_off,155,0,1,,,,,,,,,1,,,69,0
57570,set_tempo,2130,1,0,,,,,,258620,,,,,,,
57600,note_off,1920,0,5,,,,,,,,,5,,,48,0
57600,note_off,1920,0,3,,,,,,,,,3,,,57,0
57600,set_tempo,30,1,0,,,,,,257510,,,,,,,
57600,note_off,0,0,3,,,,,,,,,3,,,53,0
57600,note_on,85,0,1,,,,,,,,,1,,,72,68
58080,note_on,480,0,5,,,,,,,,,5,,,58,66
58080,note_on,0,0,1,,,,,,,,,1,,,70,66
58080,note_off,480,0,1,,,,,,,,,1,,,72,0
58080,note_on,21600,0,4,,,,,,,,,4,,,62,66
58465,note_off,385,0,1,,,,,,,,,1,,,70,0
58545,set_tempo,945,1,0,,,,,,258620,,,,,,,
58560,note_on,0,0,5,,,,,,,,,5,,,59,63
58560,note_on,0,0,4,,,,,,,,,4,,,63,63
58560,note_off,480,0,5,,,,,,,,,5,,,58,0
58560,note_off,480,0,4,,,,,,,,,4,,,62,0
58927,note_off,367,0,4,,,,,,,,,4,,,63,0
58927,note_off,367,0,5,,,,,,,,,5,,,59,0
59040,note_on,575,0,1,,,,,,,,,1,,,75,62
59230,note_off,190,0,1,,,,,,,,,1,,,75,0
59280,note_on,50,0,1,,,,,,,,,1,,,75,62
59520,set_tempo,975,1,0,,,,,,258620,,,,,,,
59520,note_on,0,0,1,,,,,,,,,1,,,82,61
59520,note_off,240,0,1,,,,,,,,,1,,,75,0
59905,note_off,385,0,1,,,,,,,,,1,,,82,0
60000,note_on,1073,0,4,,,,,,,,,4,,,62,60
60000,note_on,1073,0,5,,,,,,,,,5,,,58,60
60480,note_off,480,0,5,,,,,,,,,5,,,58,0
60480,note_on,0,0,5,,,,,,,,,5,,,59,58
60480,note_on,0,0,4,,,,,,,,,4,,,63,58
60480,note_off,480,0,4,,,,,,,,,4,,,62,0
60480,set_tempo,960,1,0,,,,,,259740,,,,,,,
60840,note_off,360,0,4,,,,,,,,,4,,,63,0
60847,note_off,367,0,5,,,,,,,,,5,,,59,0
60960,note_on,1055,0,1,,,,,,,,,1,,,75,57
61150,note_off,190,0,1,,,,,,,,,1,,,75,0
61200,note_on,50,0,1,,,,,,,,,1,,,75,56
61440,note_on,240,0,1,,,,,,,,,1,,,82,56
61447,note_off,7,0,1,,,,,,,,,1,,,75,0
61825,note_off,378,0,1,,,,,,,,,1,,,82,0
61920,note_on,1073,0,5,,,,,,,,,5,,,58,55
61920,note_on,1080,0,4,,,,,,,,,4,,,62,55
62400,set_tempo,1920,1,0,,,,,,260869,,,,,,,
62400,note_on,0,0,4,,,,,,,,,4,,,63,53
62400,note_off,480,0,4,,,,,,,,,4,,,62,0
62400,note_on,0,0,5,,,,,,,,,5,,,59,53
62400,note_off,480,0,5,,,,,,,,,5,,,58,0
62767,note_off,367,0,4,,,,,,,,,4,,,63,0
62767,note_off,367,0,5,,,,,,,,,5,,,59,0
62880,note_on,1055,0,1,,,,,,,,,1,,,75,52
63070,note_off,190,0,1,,,,,,,,,1,,,75,0
63120,note_on,50,0,1,,,,,,,,,1,,,75,51
63360,note_off,240,0,1,,,,,,,,,1,,,75,0
63360,note_on,0,0,1,,,,,,,,,1,,,82,51
63360,note_on,593,0,4,,,,,,,,,4,,,62,51
63360,note_on,593,0,5,,,,,,,,,5,,,58,51
63745,note_off,385,0,1,,,,,,,,,1,,,82,0
63840,note_off,480,0,5,,,,,,,,,5,,,58,0
63840,note_on,0,0,5,,,,,,,,,5,,,59,49
63840,note_on,95,0,1,,,,,,,,,1,,,75,49
63840,note_on,0,0,4,,,,,,,,,4,,,63,49
63840,note_off,480,0,4,,,,,,,,,4,,,62,0
64030,note_off,190,0,1,,,,,,,,,1,,,75,0
64080,note_on,50,0,1,,,,,,,,,1,,,75,49
64320,note_on,0,0,1,,,,,,,,,1,,,82,48
64320,note_off,240,0,1,,,,,,,,,1,,,75,0
64320,note_on,0,0,5,,,,,,,,,5,,,58,48
64320,note_off,480,0,5,,,,,,,,,5,,,59,0
64320,note_off,480,0,4,,,,,,,,,4,,,63,0
64320,note_on,0,0,4,,,,,,,,,4,,,62,48
64705,note_off,385,0,1,,,,,,,,,1,,,82,0
64800,note_on,0,0,5,,,,,,,,,5,,,59,47
64800,note_on,95,0,1,,,,,,,,,1,,,75,47
64800,note_off,480,0,5,,,,,,,,,5,,,58,0
64800,note_on,0,0,4,,,,,,,,,4,,,63,47
64800,note_off,480,0,4,,,,,,,,,4,,,62,0
64990,note_off,190,0,1,,,,,,,,,1,,,75,0
65040,note_on,50,0,1,,,,,,,,,1,,,75,46
65220,set_tempo,2820,1,0,,,,,,262008,,,,,,,
65280,note_off,480,0,5,,,,,,,,,5,,,59,0
65280,note_off,480,0,4,,,,,,,,,4,,,63,0
65280,note_on,0,0,4,,,,,,,,,4,,,62,46
65280,set_tempo,60,1,0,,,,,,263157,,,,,,,
65280,note_off,240,0,1,,,,,,,,,1,,,75,0
65280,note_on,0,0,1,,,,,,,,,1,,,82,46
65280,note_on,0,0,5,,,,,,,,,5,,,58,46
65640,note_off,360,0,5,,,,,,,,,5,,,58,0
65647,note_off,367,0,4,,,,,,,,,4,,,62,0
65665,note_off,385,0,1,,,,,,,,,1,,,82,0
65760,note_on,95,0,1,,,,,,,,,1,,,82,44
66145,note_off,385,0,1,,,,,,,,,1,,,82,0
66240,note_on,95,0,1,,,,,,,,,1,,,82,43
66625,note_off,385,0,1,,,,,,,,,1,,,82,0
66720,note_on,95,0,1,,,,,,,,,1,,,82,42
66720,set_tempo,1440,1,0,,,,,,269058,,,,,,,
67105,note_off,385,0,1,,,,,,,,,1,,,82,0
67200,set_tempo,480,1,0,,,,,,264317,,,,,,,
67200,note_on,95,0,1,,,,,,,,,1,,,82,41
67440,note_off,240,0,1,,,,,,,,,1,,,82,0
67440,note_on,0,0,1,,,,,,,,,1,,,81,40
67680,note_on,0,0,1,,,,,,,,,1,,,80,39
67680,note_off,240,0,1,,,,,,,,,1,,,81,0
67920,note_on,0,0,1,,,,,,,,,1,,,77,39
67920,note_off,240,0,1,,,,,,,,,1,,,80,0
68112,note_off,192,0,1,,,,,,,,,1,,,77,0
68145,set_tempo,945,1,0,,,,,,265486,,,,,,,
68160,note_on,48,0,1,,,,,,,,,1,,,82,38
68400,note_on,0,0,1,,,,,,,,,1,,,81,37
68400,note_off,240,0,1,,,,,,,,,1,,,82,0
68640,note_on,0,0,1,,,,,,,,,1,,,80,37
68640,note_off,240,0,1,,,,,,,,,1,,,81,0
68880,note_off,240,0,1,,,,,,,,,1,,,80,0
68880,note_on,0,0,1,,,,,,,,,1,,,77,36
69045,set_tempo,900,1,0,,,,,,285714,,,,,,,
69072,note_off,192,0,1,,,,,,,,,1,,,77,0
69120,set_tempo,75,1,0,,,,,,263157,,,,,,,
69120,note_on,3473,0,4,,,,,,,,,4,,,67,36
69120,note_on,48,0,1,,,,,,,,,1,,,75,37
69360,note_on,11760,0,3,,,,,,,,,3,,,70,37
69480,note_off,360,0,4,,,,,,,,,4,,,67,0
69600,note_off,240,0,3,,,,,,,,,3,,,70,0
69600,note_on,120,0,4,,,,,,,,,4,,,67,38
69840,note_on,0,0,1,,,,,,,,,1,,,77,41
69840,note_off,720,0,1,,,,,,,,,1,,,75,0
69840,note_on,240,0,3,,,,,,,,,3,,,70,38
69960,note_off,360,0,4,,,,,,,,,4,,,67,0
69960,note_on,0,0,1,,,,,,,,,1,,,75,42
69960,note_off,120,0,1,,,,,,,,,1,,,77,0
70080,note_on,120,0,4,,,,,,,,,4,,,65,39
70080,note_on,0,0,1,,,,,,,,,1,,,74,43
70080,note_off,120,0,1,,,,,,,,,1,,,75,0
70080,note_off,240,0,3,,,,,,,,,3,,,70,0
70320,note_on,240,0,3,,,,,,,,,3,,,70,40
70440,note_off,360,0,4,,,,,,,,,4,,,65,0
70560,note_on,120,0,4,,,,,,,,,4,,,67,40
70560,note_on,0,0,1,,,,,,,,,1,,,75,46
70560,note_off,480,0,1,,,,,,,,,1,,,74,0
70560,note_off,240,0,3,,,,,,,,,3,,,70,0
70800,note_on,240,0,3,,,,,,,,,3,,,70,41
70920,note_off,360,0,4,,,,,,,,,4,,,67,0
70920,note_off,360,0,1,,,,,,,,,1,,,75,0
71040,note_on,120,0,4,,,,,,,,,4,,,67,42
71040,note_off,240,0,3,,,,,,,,,3,,,70,0
71040,note_on,120,0,1,,,,,,,,,1,,,76,50
71280,note_on,240,0,3,,,,,,,,,3,,,70,42
71400,note_off,360,0,4,,,,,,,,,4,,,67,0
71520,note_on,120,0,4,,,,,,,,,4,,,67,43
71520,note_off,240,0,3,,,,,,,,,3,,,70,0
71760,note_on,240,0,3,,,,,,,,,3,,,70,44
71880,note_off,360,0,4,,,,,,,,,4,,,67,0
72000,note_off,240,0,3,,,,,,,,,3,,,70,0
72000,note_on,120,0,4,,,,,,,,,4,,,68,44
72000,note_off,960,0,1,,,,,,,,,1,,,76,0
72000,note_on,0,0,1,,,,,,,,,1,,,77,44
72240,note_on,240,0,3,,,,,,,,,3,,,70,45
72360,note_off,360,0,4,,,,,,,,,4,,,68,0
72367,note_off,367,0,1,,,,,,,,,1,,,77,0
72480,note_on,120,0,4,,,,,,,,,4,,,68,46
72480,note_off,240,0,3,,,,,,,,,3,,,70,0
72720,note_on,240,0,3,,,,,,,,,3,,,70,46
72840,note_off,360,0,4,,,,,,,,,4,,,68,0
72912,note_off,192,0,3,,,,,,,,,3,,,70,0
72920,set_tempo,3800,1,0,,,,,,265486,,,,,,,
72960,set_tempo,40,1,0,,,,,,263157,,,,,,,
72960,control_change,593,0,1,,,,,,,10,55,1,,,,
72960,note_on,0,0,1,,,,,,,,,1,,,56,47
72960,note_on,120,0,4,,,,,,,,,4,,,65,47
73200,note_on,288,0,3,,,,,,,,,3,,,70,48
73320,note_off,360,0,4,,,,,,,,,4,,,65,0
73440,note_off,240,0,3,,,,,,,,,3,,,70,0
73440,note_on,120,0,4,,,,,,,,,4,,,65,48
73680,note_off,720,0,1,,,,,,,,,1,,,56,0
73680,note_on,0,0,1,,,,,,,,,1,,,55,51
73680,note_on,240,0,3,,,,,,,,,3,,,70,49
73800,note_off,360,0,4,,,,,,,,,4,,,65,0
73800,note_off,120,0,1,,,,,,,,,1,,,55,0
73800,note_on,0,0,1,,,,,,,,,1,,,56,52
73920,note_off,240,0,3,,,,,,,,,3,,,70,0
73920,note_on,120,0,4,,,,,,,,,4,,,65,50
73920,note_off,120,0,1,,,,,,,,,1,,,56,0
73920,note_on,0,0,1,,,,,,,,,1,,,58,53
74160,note_on,240,0,3,,,,,,,,,3,,,70,50
74160,note_on,0,0,1,,,,,,,,,1,,,56,55
74160,note_off,240,0,1,,,,,,,,,1,,,58,0
74280,note_off,360,0,4,,,,,,,,,4,,,65,0
74400,note_off,240,0,3,,,,,,,,,3,,,70,0
74400,note_off,240,0,1,,,,,,,,,1,,,56,0
74400,note_on,0,0,1,,,,,,,,,1,,,55,57
74400,note_on,120,0,4,,,,,,,,,4,,,67,51
74640,note_on,240,0,3,,,,,,,,,3,,,70,52
74640,note_off,240,0,1,,,,,,,,,1,,,55,0
74640,note_on,0,0,1,,,,,,,,,1,,,53,59
74760,note_off,360,0,4,,,,,,,,,4,,,67,0
74832,note_off,192,0,1,,,,,,,,,1,,,53,0
74880,note_on,48,0,1,,,,,,,,,1,,,51,62
74880,note_on,120,0,4,,,,,,,,,4,,,68,52
74880,note_off,240,0,3,,,,,,,,,3,,,70,0
75120,note_on,240,0,3,,,,,,,,,3,,,70,53
75240,note_off,360,0,4,,,,,,,,,4,,,68,0
75360,note_on,120,0,4,,,,,,,,,4,,,65,54
75360,note_off,240,0,3,,,,,,,,,3,,,70,0
75600,note_on,240,0,3,,,,,,,,,3,,,70,54
75720,note_off,360,0,4,,,,,,,,,4,,,65,0
75840,note_off,240,0,3,,,,,,,,,3,,,70,0
75840,note_on,120,0,4,,,,,,,,,4,,,68,55
75840,note_off,960,0,1,,,,,,,,,1,,,51,0
75840,note_on,0,0,1,,,,,,,,,1,,,50,55
76080,note_on,240,0,3,,,,,,,,,3,,,70,56
76200,note_off,360,0,4,,,,,,,,,4,,,68,0
76320,note_on,120,0,4,,,,,,,,,4,,,65,56
76320,note_off,480,0,1,,,,,,,,,1,,,50,0
76320,note_off,240,0,3,,,,,,,,,3,,,70,0
76560,note_on,240,0,3,,,,,,,,,3,,,70,57
76680,note_off,360,0,4,,,,,,,,,4,,,65,0
76752,note_off,192,0,3,,,,,,,,,3,,,70,0
76760,set_tempo,3800,1,0,,,,,,265486,,,,,,,
76800,control_change,480,0,1,,,,,,,10,73,1,,,,
76800,set_tempo,40,1,0,,,,,,263157,,,,,,,
76800,note_on,120,0,4,,,,,,,,,4,,,62,58
76800,note_on,0,0,1,,,,,,,,,1,,,77,60
77040,note_on,288,0,3,,,,,,,,,3,,,70,59
77160,note_off,360,0,4,,,,,,,,,4,,,62,0
77280,note_on,120,0,4,,,,,,,,,4,,,62,59
77280,note_off,240,0,3,,,,,,,,,3,,,70,0
77520,note_off,720,0,1,,,,,,,,,1,,,77,0
77520,note_on,0,0,1,,,,,,,,,1,,,79,65
77520,note_on,240,0,3,,,,,,,,,3,,,70,60
77640,note_on,0,0,1,,,,,,,,,1,,,77,66
77640,note_off,360,0,4,,,,,,,,,4,,,62,0
77640,note_off,120,0,1,,,,,,,,,1,,,79,0
77760,note_on,120,0,4,,,,,,,,,4,,,60,61
77760,note_off,240,0,3,,,,,,,,,3,,,70,0
77760,note_on,0,0,1,,,,,,,,,1,,,75,67
77760,note_off,120,0,1,,,,,,,,,1,,,77,0
78000,note_on,240,0,3,,,,,,,,,3,,,70,61
78120,note_off,360,0,4,,,,,,,,,4,,,60,0
78240,note_on,0,0,1,,,,,,,,,1,,,77,70
78240,note_off,240,0,3,,,,,,,,,3,,,70,0
78240,note_off,480,0,1,,,,,,,,,1,,,75,0
78240,note_on,120,0,4,,,,,,,,,4,,,62,62
78480,note_on,240,0,3,,,,,,,,,3,,,70,63
78600,note_off,360,0,4,,,,,,,,,4,,,62,0
78607,note_off,367,0,1,,,,,,,,,1,,,77,0
78720,note_on,113,0,1,,,,,,,,,1,,,78,75
78720,note_on,120,0,4,,,,,,,,,4,,,62,63
78720,note_off,240,0,3,,,,,,,,,3,,,70,0
78960,note_on,240,0,3,,,,,,,,,3,,,70,64
79080,note_off,360,0,4,,,,,,,,,4,,,62,0
79200,note_on,120,0,4,,,,,,,,,4,,,62,65
79200,note_off,240,0,3,,,,,,,,,3,,,70,0
79440,note_on,240,0,3,,,,,,,,,3,,,70,65
79560,note_off,360,0,4,,,,,,,,,4,,,62,0
79680,note_on,120,0,4,,,,,,,,,4,,,63,66
79680,note_on,0,0,1,,,,,,,,,1,,,79,66
79680,note_off,960,0,1,,,,,,,,,1,,,78,0
79680,note_off,240,0,3,,,,,,,,,3,,,70,0
79920,note_on,240,0,3,,,,,,,,,3,,,70,67
80040,note_off,360,0,1,,,,,,,,,1,,,79,0
80040,note_off,360,0,4,,,,,,,,,4,,,63,0
80160,note_on,120,0,4,,,,,,,,,4,,,63,67
80160,note_off,240,0,3,,,,,,,,,3,,,70,0
80400,note_on,240,0,3,,,,,,,,,3,,,70,68
80520,note_off,360,0,4,,,,,,,,,4,,,63,0
80592,note_off,192,0,3,,,,,,,,,3,,,70,0
80600,set_tempo,3800,1,0,,,,,,265486,,,,,,,
80640,set_tempo,40,1,0,,,,,,263157,,,,,,,
80640,control_change,600,0,1,,,,,,,10,55,1,,,,
80640,note_on,0,0,1,,,,,,,,,1,,,58,69
80640,note_on,120,0,4,,,,,,,,,4,,,67,69
80880,note_on,288,0,3,,,,,,,,,3,,,70,69
81000,note_off,360,0,4,,,,,,,,,4,,,67,0
81120,note_on,120,0,4,,,,,,,,,4,,,63,70
81120,note_off,240,0,3,,,,,,,,,3,,,70,0
81360,note_on,240,0,3,,,,,,,,,3,,,70,71
81360,note_off,720,0,1,,,,,,,,,1,,,58,0
81360,note_on,0,0,1,,,,,,,,,1,,,57,73
81480,note_off,360,0,4,,,,,,,,,4,,,63,0
81480,note_off,120,0,1,,,,,,,,,1,,,57,0
81480,note_on,0,0,1,,,,,,,,,1,,,58,74
81600,note_on,0,0,1,,,,,,,,,1,,,60,74
81600,note_off,240,0,3,,,,,,,,,3,,,70,0
81600,note_on,120,0,4,,,,,,,,,4,,,67,71
81600,note_off,120,0,1,,,,,,,,,1,,,58,0
81840,note_off,240,0,1,,,,,,,,,1,,,60,0
81840,note_on,0,0,1,,,,,,,,,1,,,58,76
81840,note_on,240,0,3,,,,,,,,,3,,,70,72
81960,note_off,360,0,4,,,,,,,,,4,,,67,0
82080,note_off,240,0,3,,,,,,,,,3,,,70,0
82080,note_on,120,0,4,,,,,,,,,4,,,63,73
82080,note_off,240,0,1,,,,,,,,,1,,,58,0
82080,note_on,0,0,1,,,,,,,,,1,,,56,78
82320,note_on,240,0,3,,,,,,,,,3,,,70,73
82320,note_on,0,0,1,,,,,,,,,1,,,55,80
82320,note_off,240,0,1,,,,,,,,,1,,,56,0
82440,note_off,360,0,4,,,,,,,,,4,,,63,0
82512,note_off,192,0,1,,,,,,,,,1,,,55,0
82560,note_on,48,0,1,,,,,,,,,1,,,53,83
82560,note_on,120,0,4,,,,,,,,,4,,,68,74
82560,note_off,240,0,3,,,,,,,,,3,,,70,0
82800,note_on,240,0,3,,,,,,,,,3,,,70,75
82920,note_off,360,0,4,,,,,,,,,4,,,68,0
83040,note_off,240,0,3,,,,,,,,,3,,,70,0
83040,note_on,120,0,4,,,,,,,,,4,,,65,75
83280,note_on,240,0,3,,,,,,,,,3,,,70,76
83400,note_off,360,0,4,,,,,,,,,4,,,65,0
83520,note_on,0,0,1,,,,,,,,,1,,,51,77
83520,note_on,120,0,4,,,,,,,,,4,,,67,77
83520,note_off,240,0,3,,,,,,,,,3,,,70,0
83520,note_off,960,0,1,,,,,,,,,1,,,53,0
83760,note_on,240,0,3,,,,,,,,,3,,,70,77
83880,note_off,360,0,4,,,,,,,,,4,,,67,0
84000,note_off,240,0,3,,,,,,,,,3,,,70,0
84000,note_off,480,0,1,,,,,,,,,1,,,51,0
84000,note_on,120,0,4,,,,,,,,,4,,,63,78
84240,note_on,240,0,3,,,,,,,,,3,,,70,79
84360,note_off,360,0,4,,,,,,,,,4,,,63,0
84432,note_off,192,0,3,,,,,,,,,3,,,70,0
84440,set_tempo,3800,1,0,,,,,,265486,,,,,,,
84480,control_change,480,0,1,,,,,,,10,73,1,,,,
84480,set_tempo,40,1,0,,,,,,266666,,,,,,,
84480,note_on,35520,0,2,,,,,,,,,2,,,70,81
84480,note_on,120,0,4,,,,,,,,,4,,,63,80
84480,note_on,0,0,1,,,,,,,,,1,,,82,81
84720,note_on,288,0,3,,,,,,,,,3,,,67,81
84840,note_off,360,0,4,,,,,,,,,4,,,63,0
84960,note_off,240,0,3,,,,,,,,,3,,,67,0
84960,note_on,120,0,4,,,,,,,,,4,,,63,83
85200,note_on,240,0,3,,,,,,,,,3,,,67,85
85320,note_off,360,0,4,,,,,,,,,4,,,63,0
85380,note_off,900,0,2,,,,,,,,,2,,,70,0
85387,note_off,907,0,1,,,,,,,,,1,,,82,0
85392,note_off,192,0,3,,,,,,,,,3,,,67,0
85440,note_on,120,0,4,,,,,,,,,4,,,61,86
85440,note_on,60,0,2,,,,,,,,,2,,,71,88
85440,note_on,53,0,1,,,,,,,,,1,,,83,88
85680,note_on,288,0,3,,,,,,,,,3,,,65,88
85800,note_off,360,0,4,,,,,,,,,4,,,61,0
85920,note_off,240,0,3,,,,,,,,,3,,,65,0
85920,note_on,120,0,4,,,,,,,,,4,,,61,89
86160,note_on,240,0,3,,,,,,,,,3,,,65,91
86280,note_off,360,0,4,,,,,,,,,4,,,61,0
86347,note_off,907,0,1,,,,,,,,,1,,,83,0
86347,note_off,907,0,2,,,,,,,,,2,,,71,0
86352,note_off,192,0,3,,,,,,,,,3,,,65,0
86385,set_tempo,1905,1,0,,,,,,269058,,,,,,,
86400,note_on,53,0,1,,,,,,,,,1,,,84,96
86400,note_on,53,0,2,,,,,,,,,2,,,72,96
86400,note_on,120,0,4,,,,,,,,,4,,,60,95
86640,note_on,288,0,3,,,,,,,,,3,,,64,93
86760,note_off,360,0,4,,,,,,,,,4,,,60,0
86760,note_off,360,0,1,,,,,,,,,1,,,84,0
86760,note_off,360,0,2,,,,,,,,,2,,,72,0
86775,note_off,135,0,3,,,,,,,,,3,,,64,0
86880,note_on,120,0,2,,,,,,,,,2,,,73,90
86880,note_on,120,0,1,,,,,,,,,1,,,85,90
86880,note_on,105,0,3,,,,,,,,,3,,,64,90
86880,note_on,120,0,4,,,,,,,,,4,,,58,90
87240,note_off,360,0,4,,,,,,,,,4,,,58,0
87240,note_off,360,0,2,,,,,,,,,2,,,73,0
87240,note_off,360,0,3,,,,,,,,,3,,,64,0
87240,note_off,360,0,1,,,,,,,,,1,,,85,0
88280,set_tempo,1895,1,0,,,,,,271493,,,,,,,
88320,set_tempo,40,1,0,,,,,,265486,,,,,,,
88320,note_on,1080,0,4,,,,,,,,,4,,,65,62
88320,note_on,22680,0,5,,,,,,,,,5,,,56,62
88560,note_on,1320,0,1,,,,,,,,,1,,,84,61
88680,note_off,360,0,4,,,,,,,,,4,,,65,0
88680,note_off,360,0,5,,,,,,,,,5,,,56,0
88800,note_on,0,0,1,,,,,,,,,1,,,82,60
88800,note_off,240,0,1,,,,,,,,,1,,,84,0
89040,note_on,0,0,1,,,,,,,,,1,,,80,59
89040,note_off,240,0,1,,,,,,,,,1,,,82,0
89280,note_on,0,0,1,,,,,,,,,1,,,79,57
89280,note_off,240,0,1,,,,,,,,,1,,,80,0
89520,note_off,240,0,1,,,,,,,,,1,,,79,0
89520,note_on,0,0,1,,,,,,,,,1,,,77,56
89760,note_off,240,0,1,,,,,,,,,1,,,77,0
89760,note_on,0,0,1,,,,,,,,,1,,,79,55
90000,note_on,0,0,1,,,,,,,,,1,,,80,53
90000,note_off,240,0,1,,,,,,,,,1,,,79,0
90192,note_off,192,0,1,,,,,,,,,1,,,80,0
90200,set_tempo,1880,1,0,,,,,,269058,,,,,,,
90240,set_tempo,40,1,0,,,,,,266666,,,,,,,
90240,note_on,48,0,1,,,,,,,,,1,,,75,52
90720,note_on,2040,0,4,,,,,,,,,4,,,67,50
90720,note_on,2040,0,5,,,,,,,,,5,,,58,50
91200,note_on,0,0,4,,,,,,,,,4,,,68,47
91200,note_off,480,0,4,,,,,,,,,4,,,67,0
91680,note_off,1440,0,1,,,,,,,,,1,,,75,0
91680,note_on,0,0,5,,,,,,,,,5,,,65,44
91680,note_on,0,0,1,,,,,,,,,1,,,79,44
91680,note_off,960,0,5,,,,,,,,,5,,,58,0
91680,note_on,4440,0,2,,,,,,,,,2,,,74,44
91920,note_off,240,0,1,,,,,,,,,1,,,79,0
91920,note_on,0,0,1,,,,,,,,,1,,,77,43
92120,set_tempo,1880,1,0,,,,,,271493,,,,,,,
92160,note_off,240,0,1,,,,,,,,,1,,,77,0
92160,note_off,480,0,5,,,,,,,,,5,,,65,0
92160,note_on,0,0,5,,,,,,,,,5,,,60,42
92160,set_tempo,40,1,0,,,,,,263157,,,,,,,
92160,note_off,960,0,4,,,,,,,,,4,,,68,0
92160,note_on,0,0,4,,,,,,,,,4,,,67,42
92160,note_off,480,0,2,,,,,,,,,2,,,74,0
92160,note_on,0,0,1,,,,,,,,,1,,,75,42
92520,note_off,360,0,1,,,,,,,,,1,,,75,0
92520,note_off,360,0,4,,,,,,,,,4,,,67,0
92520,note_off,360,0,5,,,,,,,,,5,,,60,0
92880,note_on,360,0,1,,,,,,,,,1,,,75,47
93120,note_off,240,0,1,,,,,,,,,1,,,75,0
93120,note_on,0,0,1,,,,,,,,,1,,,74,50
93360,note_off,240,0,1,,,,,,,,,1,,,74,0
93360,note_on,0,0,1,,,,,,,,,1,,,73,52
93600,note_on,0,0,1,,,,,,,,,1,,,72,54
93600,note_off,240,0,1,,,,,,,,,1,,,73,0
93840,note_off,240,0,1,,,,,,,,,1,,,72,0
93840,note_on,0,0,1,,,,,,,,,1,,,71,57
94032,note_off,192,0,1,,,,,,,,,1,,,71,0
94040,set_tempo,1880,1,0,,,,,,265486,,,,,,,
94080,set_tempo,40,1,0,,,,,,266666,,,,,,,
94080,note_on,1560,0,5,,,,,,,,,5,,,51,59
94080,note_on,48,0,1,,,,,,,,,1,,,70,61
94320,note_on,7080,0,3,,,,,,,,,3,,,55,61
94440,note_off,360,0,5,,,,,,,,,5,,,51,0
94560,note_on,120,0,5,,,,,,,,,5,,,51,63
94560,note_off,240,0,3,,,,,,,,,3,,,55,0
94800,note_on,240,0,3,,,,,,,,,3,,,55,66
94920,note_off,360,0,5,,,,,,,,,5,,,51,0
94987,note_off,907,0,1,,,,,,,,,1,,,70,0
94992,note_off,192,0,3,,,,,,,,,3,,,55,0
95040,note_on,53,0,1,,,,,,,,,1,,,71,70
95040,note_on,120,0,5,,,,,,,,,5,,,49,68
95040,note_on,2880,0,2,,,,,,,,,2,,,59,70
95280,note_on,288,0,3,,,,,,,,,3,,,53,70
95400,note_off,360,0,5,,,,,,,,,5,,,49,0
95520,note_off,240,0,3,,,,,,,,,3,,,53,0
95520,note_on,120,0,5,,,,,,,,,5,,,49,73
95760,note_on,240,0,3,,,,,,,,,3,,,53,75
95880,note_off,360,0,5,,,,,,,,,5,,,49,0
95940,note_off,900,0,1,,,,,,,,,1,,,71,0
95940,note_off,900,0,2,,,,,,,,,2,,,59,0
95952,note_off,192,0,3,,,,,,,,,3,,,53,0
95985,set_tempo,1905,1,0,,,,,,269058,,,,,,,
96000,note_on,60,0,1,,,,,,,,,1,,,72,80
96000,note_on,120,0,5,,,,,,,,,5,,,48,80
96000,note_on,60,0,2,,,,,,,,,2,,,60,80
96240,note_on,3720,0,4,,,,,,,,,4,,,52,78
96360,note_off,360,0,5,,,,,,,,,5,,,48,0
96480,note_off,480,0,1,,,,,,,,,1,,,72,0
96480,note_on,0,0,1,,,,,,,,,1,,,73,75
96480,note_on,120,0,5,,,,,,,,,5,,,46,75
96480,note_off,480,0,2,,,,,,,,,2,,,60,0
96480,note_on,0,0,2,,,,,,,,,2,,,61,75
96487,note_off,247,0,4,,,,,,,,,4,,,52,0
96840,note_off,360,0,5,,,,,,,,,5,,,46,0
96840,note_off,360,0,1,,,,,,,,,1,,,73,0
96840,note_off,360,0,2,,,,,,,,,2,,,61,0
97880,set_tempo,1895,1,0,,,,,,271493,,,,,,,
97920,note_on,1080,0,5,,,,,,,,,5,,,44,76
97920,set_tempo,40,1,0,,,,,,263157,,,,,,,
97920,note_on,1433,0,4,,,,,,,,,4,,,48,76
97920,note_on,0,0,4,,,,,,,,,4,,,53,76
97920,note_on,1080,0,1,,,,,,,,,1,,,72,76
98076,note_off,156,0,1,,,,,,,,,1,,,72,0
98080,note_on,4,0,1,,,,,,,,,1,,,77,77
98236,note_off,156,0,1,,,,,,,,,1,,,77,0
98240,note_on,4,0,1,,,,,,,,,1,,,67,78
98396,note_off,156,0,1,,,,,,,,,1,,,67,0
98400,note_on,4,0,1,,,,,,,,,1,,,68,79
98556,note_off,156,0,1,,,,,,,,,1,,,68,0
98560,note_on,4,0,1,,,,,,,,,1,,,72,80
98716,note_off,156,0,1,,,,,,,,,1,,,72,0
98720,note_on,4,0,1,,,,,,,,,1,,,64,81
98876,note_off,156,0,1,,,,,,,,,1,,,64,0
98880,note_on,4,0,1,,,,,,,,,1,,,65,81
99036,note_off,156,0,1,,,,,,,,,1,,,65,0
99040,note_on,4,0,1,,,,,,,,,1,,,68,82
99196,note_off,156,0,1,,,,,,,,,1,,,68,0
99200,note_on,4,0,1,,,,,,,,,1,,,59,83
99356,note_off,156,0,1,,,,,,,,,1,,,59,0
99360,note_on,4,0,1,,,,,,,,,1,,,60,84
99516,note_off,156,0,1,,,,,,,,,1,,,60,0
99520,note_on,4,0,1,,,,,,,,,1,,,65,85
99676,note_off,156,0,1,,,,,,,,,1,,,65,0
99680,note_on,4,0,1,,,,,,,,,1,,,55,86
99836,note_off,156,0,1,,,,,,,,,1,,,55,0
99840,note_on,4,0,1,,,,,,,,,1,,,56,87
99840,note_off,1920,0,5,,,,,,,,,5,,,44,0
99840,note_on,0,0,5,,,,,,,,,5,,,41,87
99840,note_on,0,0,5,,,,,,,,,5,,,29,87
99840,note_off,0,0,4,,,,,,,,,4,,,48,0
99840,note_off,1920,0,4,,,,,,,,,4,,,53,0
99996,note_off,156,0,1,,,,,,,,,1,,,56,0
100000,note_on,4,0,1,,,,,,,,,1,,,60,87
100156,note_off,156,0,1,,,,,,,,,1,,,60,0
100160,note_on,4,0,1,,,,,,,,,1,,,52,88
100316,note_off,156,0,1,,,,,,,,,1,,,52,0
100320,note_on,4,0,1,,,,,,,,,1,,,53,89
100476,note_off,156,0,1,,,,,,,,,1,,,53,0
100480,note_on,4,0,1,,,,,,,,,1,,,56,90
100636,note_off,156,0,1,,,,,,,,,1,,,56,0
100640,note_on,4,0,1,,,,,,,,,1,,,47,91
100796,note_off,156,0,1,,,,,,,,,1,,,47,0
100800,note_on,4,0,1,,,,,,,,,1,,,48,92
100956,note_off,156,0,1,,,,,,,,,1,,,48,0
100960,note_on,4,0,1,,,,,,,,,1,,,51,93
101116,note_off,156,0,1,,,,,,,,,1,,,51,0
101120,note_on,4,0,1,,,,,,,,,1,,,43,93
101276,note_off,156,0,1,,,,,,,,,1,,,43,0
101280,note_on,4,0,1,,,,,,,,,1,,,44,94
101436,note_off,156,0,1,,,,,,,,,1,,,44,0
101440,note_on,4,0,1,,,,,,,,,1,,,48,95
101596,note_off,156,0,1,,,,,,,,,1,,,48,0
101600,note_on,4,0,1,,,,,,,,,1,,,40,96
101720,set_tempo,3800,1,0,,,,,,269058,,,,,,,
101756,note_off,156,0,1,,,,,,,,,1,,,40,0
101760,note_on,4,0,1,,,,,,,,,1,,,41,97
101865,set_tempo,145,1,0,,,,,,263157,,,,,,,
102480,note_off,720,0,1,,,,,,,,,1,,,41,0
102480,note_on,0,0,1,,,,,,,,,1,,,36,94
102720,note_on,0,0,1,,,,,,,,,1,,,44,93
102720,note_off,240,0,1,,,,,,,,,1,,,36,0
102960,note_off,240,0,1,,,,,,,,,1,,,44,0
102960,note_on,0,0,1,,,,,,,,,1,,,41,91
103200,note_on,0,0,1,,,,,,,,,1,,,48,90
103200,note_off,240,0,1,,,,,,,,,1,,,41,0
103440,note_off,240,0,1,,,,,,,,,1,,,48,0
103440,note_on,0,0,1,,,,,,,,,1,,,44,89
103680,note_off,240,0,1,,,,,,,,,1,,,44,0
103680,note_on,0,0,1,,,,,,,,,1,,,53,88
103920,note_off,240,0,1,,,,,,,,,1,,,53,0
103920,note_on,0,0,1,,,,,,,,,1,,,48,87
104160,note_off,240,0,1,,,,,,,,,1,,,48,0
104160,note_on,0,0,1,,,,,,,,,1,,,56,85
104400,note_on,0,0,1,,,,,,,,,1,,,53,84
104400,note_off,240,0,1,,,,,,,,,1,,,56,0
104640,note_off,240,0,1,,,,,,,,,1,,,53,0
104640,note_on,0,0,1,,,,,,,,,1,,,60,83
104880,note_on,0,0,1,,,,,,,,,1,,,56,82
104880,note_off,240,0,1,,,,,,,,,1,,,60,0
105120,note_on,0,0,1,,,,,,,,,1,,,65,81
105120,note_off,240,0,1,,,,,,,,,1,,,56,0
105360,note_off,240,0,1,,,,,,,,,1,,,65,0
105360,note_on,0,0,1,,,,,,,,,1,,,60,80
105600,note_on,0,0,1,,,,,,,,,1,,,68,78
105600,note_off,240,0,1,,,,,,,,,1,,,60,0
105840,note_off,240,0,1,,,,,,,,,1,,,68,0
105840,note_on,0,0,1,,,,,,,,,1,,,65,77
106080,note_on,0,0,1,,,,,,,,,1,,,72,76
106080,note_off,240,0,1,,,,,,,,,1,,,65,0
106320,note_off,240,0,1,,,,,,,,,1,,,72,0
106320,note_on,0,0,1,,,,,,,,,1,,,68,75
106560,note_on,0,0,1,,,,,,,,,1,,,77,74
106560,note_off,240,0,1,,,,,,,,,1,,,68,0
106800,note_on,0,0,1,,,,,,,,,1,,,72,73
106800,note_off,240,0,1,,,,,,,,,1,,,77,0
107040,note_on,0,0,1,,,,,,,,,1,,,80,71
107040,note_off,240,0,1,,,,,,,,,1,,,72,0
107280,note_off,240,0,1,,,,,,,,,1,,,80,0
107280,note_on,0,0,1,,,,,,,,,1,,,77,70
107460,note_off,7620,0,5,,,,,,,,,5,,,41,0
107480,set_tempo,5615,1,0,,,,,,269058,,,,,,,
107490,note_off,30,0,5,,,,,,,,,5,,,29,0
107520,set_tempo,40,1,0,,,,,,269058,,,,,,,
107520,note_on,0,0,1,,,,,,,,,1,,,84,69
107520,note_off,240,0,1,,,,,,,,,1,,,77,0
107880,note_off,360,0,1,,,,,,,,,1,,,84,0
108000,note_on,0,0,4,,,,,,,,,4,,,65,67
108000,note_on,8160,0,4,,,,,,,,,4,,,60,67
108000,note_on,510,0,5,,,,,,,,,5,,,56,67
108360,note_off,360,0,4,,,,,,,,,4,,,65,0
108360,note_off,360,0,5,,,,,,,,,5,,,56,0
108360,note_off,0,0,4,,,,,,,,,4,,,60,0
108480,note_on,600,0,1,,,,,,,,,1,,,87,64
108847,note_off,367,0,1,,,,,,,,,1,,,87,0
108960,note_on,0,0,4,,,,,,,,,4,,,66,62
108960,note_on,600,0,4,,,,,,,,,4,,,60,62
108960,note_on,600,0,5,,,,,,,,,5,,,57,62
109320,note_off,360,0,5,,,,,,,,,5,,,57,0
109327,note_off,367,0,4,,,,,,,,,4,,,66,0
109327,note_off,0,0,4,,,,,,,,,4,,,60,0
109400,set_tempo,1880,1,0,,,,,,276497,,,,,,,
109440,note_on,113,0,4,,,,,,,,,4,,,63,60
109440,note_on,0,0,4,,,,,,,,,4,,,67,60
109440,set_tempo,40,1,0,,,,,,266666,,,,,,,
109440,note_on,120,0,5,,,,,,,,,5,,,58,60
109680,note_on,833,0,1,,,,,,,,,1,,,70,58
109800,note_off,360,0,5,,,,,,,,,5,,,58,0
109807,note_off,367,0,4,,,,,,,,,4,,,67,0
109807,note_off,0,0,4,,,,,,,,,4,,,63,0
109920,note_off,240,0,1,,,,,,,,,1,,,70,0
109920,note_on,0,0,1,,,,,,,,,1,,,82,57
110160,note_off,240,0,1,,,,,,,,,1,,,82,0
110160,note_on,0,0,1,,,,,,,,,1,,,81,56
110400,note_off,240,0,1,,,,,,,,,1,,,81,0
110400,note_on,0,0,1,,,,,,,,,1,,,80,55
110640,note_on,0,0,1,,,,,,,,,1,,,79,54
110640,note_off,240,0,1,,,,,,,,,1,,,80,0
110880,note_on,0,0,1,,,,,,,,,1,,,78,53
110880,note_off,240,0,1,,,,,,,,,1,,,79,0
111120,note_off,240,0,1,,,,,,,,,1,,,78,0
111120,note_on,0,0,1,,,,,,,,,1,,,77,52
111312,note_off,192,0,1,,,,,,,,,1,,,77,0
111330,set_tempo,1890,1,0,,,,,,269058,,,,,,,
111360,note_on,48,0,1,,,,,,,,,1,,,77,50
111600,note_off,240,0,1,,,,,,,,,1,,,77,0
111600,note_on,0,0,1,,,,,,,,,1,,,75,49
111792,note_off,192,0,1,,,,,,,,,1,,,75,0
111840,note_on,2040,0,5,,,,,,,,,5,,,58,47
111840,note_on,15888,0,3,,,,,,,,,3,,,67,47
111840,note_on,48,0,1,,,,,,,,,1,,,75,47
112200,set_tempo,870,1,0,,,,,,271493,,,,,,,
112320,note_off,480,0,3,,,,,,,,,3,,,67,0
112320,note_on,0,0,3,,,,,,,,,3,,,68,44
112800,note_on,15960,0,2,,,,,,,,,2,,,74,42
112800,note_off,960,0,1,,,,,,,,,1,,,75,0
112800,note_on,0,0,1,,,,,,,,,1,,,79,42
113040,note_on,0,0,1,,,,,,,,,1,,,77,40
113040,note_off,240,0,1,,,,,,,,,1,,,79,0
113145,set_tempo,945,1,0,,,,,,273972,,,,,,,
113220,note_off,1380,0,5,,,,,,,,,5,,,58,0
113220,note_off,420,0,2,,,,,,,,,2,,,74,0
113227,note_off,907,0,3,,,,,,,,,3,,,68,0
113232,note_off,192,0,1,,,,,,,,,1,,,77,0
113280,note_on,48,0,1,,,,,,,,,1,,,75,44
113280,note_on,60,0,5,,,,,,,,,5,,,63,44
113280,set_tempo,135,1,0,,,,,,263157,,,,,,,
113520,note_on,293,0,3,,,,,,,,,3,,,70,45
113640,note_off,360,0,1,,,,,,,,,1,,,75,0
113712,note_off,192,0,3,,,,,,,,,3,,,70,0
113760,note_on,48,0,3,,,,,,,,,3,,,67,46
114000,note_on,240,0,3,,,,,,,,,3,,,70,46
114000,note_on,360,0,1,,,,,,,,,1,,,75,46
114000,note_off,720,0,5,,,,,,,,,5,,,63,0
114048,note_off,48,0,3,,,,,,,,,3,,,67,0
114192,note_off,144,0,3,,,,,,,,,3,,,70,0
114240,note_on,240,0,5,,,,,,,,,5,,,62,47
114240,note_on,0,0,1,,,,,,,,,1,,,76,50
114240,note_off,240,0,1,,,,,,,,,1,,,75,0
114480,note_on,288,0,3,,,,,,,,,3,,,70,48
114480,note_off,240,0,1,,,,,,,,,1,,,76,0
114480,note_on,0,0,1,,,,,,,,,1,,,77,48
114672,note_off,192,0,3,,,,,,,,,3,,,70,0
114672,note_off,192,0,1,,,,,,,,,1,,,77,0
114720,note_on,48,0,3,,,,,,,,,3,,,67,49
114960,note_on,240,0,3,,,,,,,,,3,,,70,49
114960,note_off,720,0,5,,,,,,,,,5,,,62,0
114960,note_on,288,0,1,,,,,,,,,1,,,77,49
115008,note_off,48,0,3,,,,,,,,,3,,,67,0
115152,note_off,144,0,3,,,,,,,,,3,,,70,0
115200,note_off,240,0,1,,,,,,,,,1,,,77,0
115200,note_on,240,0,5,,,,,,,,,5,,,63,50
115200,note_on,0,0,1,,,,,,,,,1,,,78,54
115440,note_on,0,0,1,,,,,,,,,1,,,79,51
115440,note_on,288,0,3,,,,,,,,,3,,,70,51
115440,note_off,240,0,1,,,,,,,,,1,,,78,0
115632,note_off,192,0,3,,,,,,,,,3,,,70,0
115632,note_off,192,0,1,,,,,,,,,1,,,79,0
115680,note_on,48,0,3,,,,,,,,,3,,,67,51
115920,note_on,240,0,3,,,,,,,,,3,,,70,52
115920,note_on,288,0,1,,,,,,,,,1,,,79,52
115920,note_off,720,0,5,,,,,,,,,5,,,63,0
115968,note_off,48,0,3,,,,,,,,,3,,,67,0
116112,note_off,144,0,3,,,,,,,,,3,,,70,0
116160,note_on,0,0,1,,,,,,,,,1,,,82,56
116160,note_off,240,0,1,,,,,,,,,1,,,79,0
116160,note_on,240,0,5,,,,,,,,,5,,,53,53
116400,note_on,288,0,3,,,,,,,,,3,,,62,54
116400,note_off,240,0,1,,,,,,,,,1,,,82,0
116400,note_on,0,0,1,,,,,,,,,1,,,80,54
116592,note_off,192,0,1,,,,,,,,,1,,,80,0
116640,note_on,240,0,3,,,,,,,,,3,,,56,54
116688,note_off,48,0,3,,,,,,,,,3,,,62,0
116880,note_off,720,0,5,,,,,,,,,5,,,53,0
116880,note_on,192,0,3,,,,,,,,,3,,,62,55
116880,note_on,288,0,1,,,,,,,,,1,,,80,55
116928,note_off,48,0,3,,,,,,,,,3,,,56,0
117120,note_on,240,0,5,,,,,,,,,5,,,55,56
117120,note_off,240,0,1,,,,,,,,,1,,,80,0
117120,note_on,0,0,1,,,,,,,,,1,,,81,62
117168,note_off,240,0,3,,,,,,,,,3,,,62,0
117360,note_off,240,0,1,,,,,,,,,1,,,81,0
117360,note_on,0,0,1,,,,,,,,,1,,,82,57
117360,note_on,192,0,3,,,,,,,,,3,,,63,57
117552,note_off,192,0,1,,,,,,,,,1,,,82,0
117552,note_off,192,0,3,,,,,,,,,3,,,63,0
117600,note_on,48,0,3,,,,,,,,,3,,,58,57
117840,note_off,720,0,5,,,,,,,,,5,,,55,0
117840,note_on,288,0,1,,,,,,,,,1,,,82,58
117840,note_on,240,0,3,,,,,,,,,3,,,63,58
117888,note_off,48,0,3,,,,,,,,,3,,,58,0
118032,note_off,144,0,3,,,,,,,,,3,,,63,0
118080,note_on,240,0,5,,,,,,,,,5,,,56,59
118080,note_off,240,0,1,,,,,,,,,1,,,82,0
118080,note_on,0,0,1,,,,,,,,,1,,,83,62
118320,note_on,288,0,3,,,,,,,,,3,,,63,60
118320,note_off,240,0,1,,,,,,,,,1,,,83,0
118320,note_on,0,0,1,,,,,,,,,1,,,84,60
118512,note_off,192,0,3,,,,,,,,,3,,,63,0
118512,note_off,192,0,1,,,,,,,,,1,,,84,0
118560,note_on,48,0,3,,,,,,,,,3,,,60,60
118800,note_on,288,0,1,,,,,,,,,1,,,87,61
118800,note_on,240,0,3,,,,,,,,,3,,,63,61
118800,note_off,720,0,5,,,,,,,,,5,,,56,0
118848,note_off,48,0,3,,,,,,,,,3,,,60,0
118992,note_off,192,0,1,,,,,,,,,1,,,87,0
118992,note_off,144,0,3,,,,,,,,,3,,,63,0
119040,note_on,48,0,1,,,,,,,,,1,,,87,68
119040,set_tempo,5760,1,0,,,,,,265486,,,,,,,
119040,note_on,240,0,5,,,,,,,,,5,,,58,65
119280,note_on,288,0,3,,,,,,,,,3,,,67,64
119280,note_off,240,0,1,,,,,,,,,1,,,87,0
119280,note_on,0,0,1,,,,,,,,,1,,,75,64
119472,note_off,192,0,3,,,,,,,,,3,,,67,0
119472,note_off,192,0,1,,,,,,,,,1,,,75,0
119520,note_on,48,0,3,,,,,,,,,3,,,63,63
119520,note_on,48,0,1,,,,,,,,,1,,,75,70
119760,note_on,240,0,3,,,,,,,,,3,,,67,61
119760,note_off,720,0,5,,,,,,,,,5,,,58,0
119808,note_off,48,0,3,,,,,,,,,3,,,63,0
119880,set_tempo,840,1,0,,,,,,266666,,,,,,,
119952,note_off,144,0,3,,,,,,,,,3,,,67,0
120000,note_on,240,0,5,,,,,,,,,5,,,58,60
120240,note_on,288,0,3,,,,,,,,,3,,,68,59
120432,note_off,192,0,3,,,,,,,,,3,,,68,0
120480,note_on,48,0,3,,,,,,,,,3,,,62,57
120480,note_on,0,0,1,,,,,,,,,1,,,79,58
120480,note_off,960,0,1,,,,,,,,,1,,,75,0
120720,note_on,240,0,3,,,,,,,,,3,,,68,56
120720,note_off,240,0,1,,,,,,,,,1,,,79,0
120720,note_on,0,0,1,,,,,,,,,1,,,77,54
120720,note_off,720,0,5,,,,,,,,,5,,,58,0
120768,note_off,48,0,3,,,,,,,,,3,,,62,0
120840,set_tempo,960,1,0,,,,,,269058,,,,,,,
120912,note_off,144,0,3,,,,,,,,,3,,,68,0
120912,note_off,192,0,1,,,,,,,,,1,,,77,0
120960,note_on,48,0,1,,,,,,,,,1,,,75,56
120960,set_tempo,120,1,0,,,,,,263157,,,,,,,
120960,note_on,240,0,5,,,,,,,,,5,,,51,56
121115,note_off,155,0,1,,,,,,,,,1,,,75,0
121200,note_on,288,0,3,,,,,,,,,3,,,58,57
121200,note_on,85,0,1,,,,,,,,,1,,,75,57
121355,note_off,155,0,1,,,,,,,,,1,,,75,0
121392,note_off,192,0,3,,,,,,,,,3,,,58,0
121440,note_on,48,0,3,,,,,,,,,3,,,55,58
121440,note_on,85,0,1,,,,,,,,,1,,,75,53
121520,note_on,80,0,1,,,,,,,,,1,,,77,54
121530,note_off,10,0,1,,,,,,,,,1,,,75,0
121600,note_on,70,0,1,,,,,,,,,1,,,75,56
121610,note_off,10,0,1,,,,,,,,,1,,,77,0
121680,note_on,70,0,1,,,,,,,,,1,,,74,57
121680,note_off,720,0,5,,,,,,,,,5,,,51,0
121680,note_on,240,0,3,,,,,,,,,3,,,58,58
121685,note_off,5,0,1,,,,,,,,,1,,,75,0
121728,note_off,48,0,3,,,,,,,,,3,,,55,0
121800,note_on,115,0,1,,,,,,,,,1,,,75,59
121805,note_off,5,0,1,,,,,,,,,1,,,74,0
121872,note_off,144,0,3,,,,,,,,,3,,,58,0
121875,note_off,70,0,1,,,,,,,,,1,,,75,0
121920,note_on,240,0,5,,,,,,,,,5,,,50,59
121920,note_on,45,0,1,,,,,,,,,1,,,77,61
122075,note_off,155,0,1,,,,,,,,,1,,,77,0
122160,note_on,85,0,1,,,,,,,,,1,,,77,60
122160,note_on,288,0,3,,,,,,,,,3,,,58,60
122315,note_off,155,0,1,,,,,,,,,1,,,77,0
122352,note_off,192,0,3,,,,,,,,,3,,,58,0
122400,note_on,85,0,1,,,,,,,,,1,,,77,55
122400,note_on,48,0,3,,,,,,,,,3,,,56,60
122480,note_on,80,0,1,,,,,,,,,1,,,79,57
122485,note_off,5,0,1,,,,,,,,,1,,,77,0
122560,note_off,75,0,1,,,,,,,,,1,,,79,0
122560,note_on,0,0,1,,,,,,,,,1,,,77,58
122592,note_off,192,0,3,,,,,,,,,3,,,56,0
122640,note_off,720,0,5,,,,,,,,,5,,,50,0
122640,note_off,80,0,1,,,,,,,,,1,,,77,0
122640,note_on,48,0,3,,,,,,,,,3,,,58,61
122640,note_on,0,0,1,,,,,,,,,1,,,75,60
122760,note_on,0,0,1,,,,,,,,,1,,,77,62
122760,note_off,120,0,1,,,,,,,,,1,,,75,0
122830,note_off,190,0,3,,,,,,,,,3,,,58,0
122835,note_off,75,0,1,,,,,,,,,1,,,77,0
122880,note_on,45,0,1,,,,,,,,,1,,,79,64
122880,note_on,240,0,5,,,,,,,,,5,,,51,62
123035,note_off,155,0,1,,,,,,,,,1,,,79,0
123120,note_on,85,0,1,,,,,,,,,1,,,79,62
123120,note_on,290,0,3,,,,,,,,,3,,,58,62
123275,note_off,155,0,1,,,,,,,,,1,,,79,0
123310,note_off,190,0,3,,,,,,,,,3,,,58,0
123360,note_on,85,0,1,,,,,,,,,1,,,79,57
123360,note_on,50,0,3,,,,,,,,,3,,,55,63
123440,note_off,80,0,1,,,,,,,,,1,,,79,0
123440,note_on,0,0,1,,,,,,,,,1,,,80,58
123520,note_on,80,0,1,,,,,,,,,1,,,79,59
123525,note_off,5,0,1,,,,,,,,,1,,,80,0
123600,note_on,240,0,3,,,,,,,,,3,,,58,64
123600,note_on,0,0,1,,,,,,,,,1,,,77,61
123600,note_off,75,0,1,,,,,,,,,1,,,79,0
123600,note_off,720,0,5,,,,,,,,,5,,,51,0
123644,note_off,44,0,3,,,,,,,,,3,,,55,0
123720,note_on,0,0,1,,,,,,,,,1,,,79,62
123720,note_off,120,0,1,,,,,,,,,1,,,77,0
123790,note_off,146,0,3,,,,,,,,,3,,,58,0
123795,note_off,75,0,1,,,,,,,,,1,,,79,0
123840,note_on,45,0,1,,,,,,,,,1,,,80,64
123840,note_on,240,0,5,,,,,,,,,5,,,53,64
123995,note_off,155,0,1,,,,,,,,,1,,,80,0
124080,note_on,290,0,3,,,,,,,,,3,,,62,65
124080,note_on,85,0,1,,,,,,,,,1,,,80,65
124235,note_off,155,0,1,,,,,,,,,1,,,80,0
124270,note_off,190,0,3,,,,,,,,,3,,,62,0
124320,note_on,50,0,3,,,,,,,,,3,,,58,66
124320,note_on,85,0,1,,,,,,,,,1,,,80,59
124400,note_on,80,0,1,,,,,,,,,1,,,82,60
124405,note_off,5,0,1,,,,,,,,,1,,,80,0
124475,note_off,70,0,1,,,,,,,,,1,,,82,0
124480,note_on,5,0,1,,,,,,,,,1,,,80,62
124560,note_on,80,0,1,,,,,,,,,1,,,79,63
124560,note_off,720,0,5,,,,,,,,,5,,,53,0
124560,note_on,240,0,3,,,,,,,,,3,,,62,67
124565,note_off,5,0,1,,,,,,,,,1,,,80,0
124604,note_off,44,0,3,,,,,,,,,3,,,58,0
124680,note_on,0,0,1,,,,,,,,,1,,,80,65
124680,note_off,115,0,1,,,,,,,,,1,,,79,0
124750,note_off,146,0,3,,,,,,,,,3,,,62,0
124755,note_off,75,0,1,,,,,,,,,1,,,80,0
124760,set_tempo,3800,1,0,,,,,,269058,,,,,,,
124800,note_on,240,0,5,,,,,,,,,5,,,55,67
124800,note_on,14993,0,4,,,,,,,,,4,,,58,67
124800,set_tempo,40,1,0,,,,,,263157,,,,,,,
124800,note_on,0,0,4,,,,,,,,,4,,,63,67
124800,note_on,45,0,1,,,,,,,,,1,,,82,68
124930,note_off,130,0,1,,,,,,,,,1,,,82,0
124960,note_on,30,0,1,,,,,,,,,1,,,84,68
125090,note_off,130,0,1,,,,,,,,,1,,,84,0
125120,note_on,30,0,1,,,,,,,,,1,,,86,68
125160,note_off,360,0,4,,,,,,,,,4,,,63,0
125160,note_off,0,0,4,,,,,,,,,4,,,58,0
125160,note_off,360,0,5,,,,,,,,,5,,,55,0
125250,note_off,130,0,1,,,,,,,,,1,,,86,0
125280,note_on,30,0,1,,,,,,,,,1,,,87,69
125410,note_off,130,0,1,,,,,,,,,1,,,87,0
125440,note_on,30,0,1,,,,,,,,,1,,,86,69
125570,note_off,130,0,1,,,,,,,,,1,,,86,0
125600,note_on,30,0,1,,,,,,,,,1,,,84,70
125730,note_off,130,0,1,,,,,,,,,1,,,84,0
125760,note_on,30,0,1,,,,,,,,,1,,,82,70
125890,note_off,130,0,1,,,,,,,,,1,,,82,0
125920,note_on,30,0,1,,,,,,,,,1,,,80,71
126050,note_off,130,0,1,,,,,,,,,1,,,80,0
126080,note_on,30,0,1,,,,,,,,,1,,,79,71
126210,note_off,130,0,1,,,,,,,,,1,,,79,0
126240,note_on,30,0,1,,,,,,,,,1,,,77,71
126370,note_off,130,0,1,,,,,,,,,1,,,77,0
126400,note_on,30,0,1,,,,,,,,,1,,,75,72
126530,note_off,130,0,1,,,,,,,,,1,,,75,0
126560,note_on,30,0,1,,,,,,,,,1,,,74,72
126680,set_tempo,1880,1,0,,,,,,277777,,,,,,,
126690,note_off,130,0,1,,,,,,,,,1,,,74,0
126720,note_on,30,0,1,,,,,,,,,1,,,72,73
126720,set_tempo,40,1,0,,,,,,280373,,,,,,,
127030,note_off,310,0,1,,,,,,,,,1,,,72,0
127200,note_on,13980,0,2,,,,,,,,,2,,,80,74
127200,note_on,170,0,1,,,,,,,,,1,,,84,74
127200,note_on,0,0,2,,,,,,,,,2,,,75,74
127200,note_on,2040,0,5,,,,,,,,,5,,,56,74
127510,note_off,310,0,5,,,,,,,,,5,,,56,0
127510,note_off,310,0,2,,,,,,,,,2,,,75,0
127510,note_off,0,0,2,,,,,,,,,2,,,80,0
127510,note_off,310,0,1,,,,,,,,,1,,,84,0
127680,note_on,170,0,2,,,,,,,,,2,,,79,76
127680,note_on,0,0,2,,,,,,,,,2,,,75,76
127680,note_on,170,0,5,,,,,,,,,5,,,58,76
127680,note_on,170,0,1,,,,,,,,,1,,,82,76
127990,note_off,310,0,2,,,,,,,,,2,,,75,0
127990,note_off,0,0,2,,,,,,,,,2,,,79,0
127990,note_off,310,0,5,,,,,,,,,5,,,58,0
127990,note_off,310,0,1,,,,,,,,,1,,,82,0
128160,note_on,170,0,5,,,,,,,,,5,,,46,77
128160,note_on,170,0,1,,,,,,,,,1,,,74,77
128160,note_on,0,0,2,,,,,,,,,2,,,65,77
128160,note_on,170,0,2,,,,,,,,,2,,,68,77
128470,note_off,0,0,2,,,,,,,,,2,,,68,0
128470,note_off,310,0,5,,,,,,,,,5,,,46,0
128470,note_off,310,0,2,,,,,,,,,2,,,65,0
128470,note_off,310,0,1,,,,,,,,,1,,,74,0
128535,set_tempo,1815,1,0,,,,,,288461,,,,,,,
128640,set_tempo,105,1,0,,,,,,263157,,,,,,,
128640,note_on,170,0,1,,,,,,,,,1,,,75,78
128640,note_on,170,0,2,,,,,,,,,2,,,67,78
128640,note_on,170,0,5,,,,,,,,,5,,,51,78
129025,note_off,385,0,2,,,,,,,,,2,,,67,0
129025,note_off,385,0,5,,,,,,,,,5,,,51,0
129025,note_off,385,0,1,,,,,,,,,1,,,75,0
129120,note_on,95,0,1,,,,,,,,,1,,,82,80
129280,note_off,160,0,1,,,,,,,,,1,,,82,0
129280,note_on,0,0,1,,,,,,,,,1,,,80,80
129440,note_off,160,0,1,,,,,,,,,1,,,80,0
129440,note_on,0,0,1,,,,,,,,,1,,,79,81
129600,note_on,0,0,1,,,,,,,,,1,,,77,81
129600,note_off,160,0,1,,,,,,,,,1,,,79,0
129760,note_on,0,0,1,,,,,,,,,1,,,75,82
129760,note_off,160,0,1,,,,,,,,,1,,,77,0
129920,note_on,0,0,1,,,,,,,,,1,,,74,82
129920,note_off,160,0,1,,,,,,,,,1,,,75,0
130080,note_on,1055,0,5,,,,,,,,,5,,,63,83
130080,note_on,4920,0,4,,,,,,,,,4,,,67,83
130080,note_off,160,0,1,,,,,,,,,1,,,74,0
130080,note_on,0,0,1,,,,,,,,,1,,,75,83
130240,note_off,160,0,1,,,,,,,,,1,,,75,0
130240,note_on,0,0,1,,,,,,,,,1,,,73,83
130400,note_on,0,0,1,,,,,,,,,1,,,71,84
130400,note_off,160,0,1,,,,,,,,,1,,,73,0
130465,note_off,385,0,4,,,,,,,,,4,,,67,0
130465,note_off,385,0,5,,,,,,,,,5,,,63,0
130520,set_tempo,1880,1,0,,,,,,265486,,,,,,,
130560,note_on,95,0,4,,,,,,,,,4,,,68,84
130560,set_tempo,40,1,0,,,,,,263157,,,,,,,
130560,note_on,95,0,5,,,,,,,,,5,,,63,84
130560,note_off,160,0,1,,,,,,,,,1,,,71,0
130560,note_on,0,0,1,,,,,,,,,1,,,72,84
130945,note_off,385,0,1,,,,,,,,,1,,,72,0
130945,note_off,385,0,5,,,,,,,,,5,,,63,0
130945,note_off,385,0,4,,,,,,,,,4,,,68,0
131040,note_on,95,0,1,,,,,,,,,1,,,84,85
131200,note_off,160,0,1,,,,,,,,,1,,,84,0
131200,note_on,0,0,1,,,,,,,,,1,,,82,86
131360,note_off,160,0,1,,,,,,,,,1,,,82,0
131360,note_on,0,0,1,,,,,,,,,1,,,80,86
131520,note_off,160,0,1,,,,,,,,,1,,,80,0
131520,note_on,0,0,1,,,,,,,,,1,,,79,87
131680,note_off,160,0,1,,,,,,,,,1,,,79,0
131680,note_on,0,0,1,,,,,,,,,1,,,77,87
131840,note_on,0,0,1,,,,,,,,,1,,,75,88
131840,note_off,160,0,1,,,,,,,,,1,,,77,0
132000,note_on,0,0,1,,,,,,,,,1,,,74,88
132000,note_off,160,0,1,,,,,,,,,1,,,75,0
132000,note_on,0,0,4,,,,,,,,,4,,,68,88
132000,note_on,1055,0,5,,,,,,,,,5,,,58,88
132000,note_on,1055,0,4,,,,,,,,,4,,,65,88
132160,note_off,160,0,1,,,,,,,,,1,,,74,0
132160,note_on,0,0,1,,,,,,,,,1,,,80,89
132320,note_off,160,0,1,,,,,,,,,1,,,80,0
132320,note_on,0,0,1,,,,,,,,,1,,,77,89
132385,note_off,385,0,5,,,,,,,,,5,,,58,0
132385,note_off,385,0,4,,,,,,,,,4,,,68,0
132385,note_off,0,0,4,,,,,,,,,4,,,65,0
132440,set_tempo,1880,1,0,,,,,,265486,,,,,,,
132480,note_on,0,0,1,,,,,,,,,1,,,75,90
132480,note_on,95,0,5,,,,,,,,,5,,,63,90
132480,note_on,95,0,4,,,,,,,,,4,,,67,90
132480,note_off,160,0,1,,,,,,,,,1,,,77,0
132480,set_tempo,40,1,0,,,,,,263157,,,,,,,
132865,note_off,385,0,5,,,,,,,,,5,,,63,0
132865,note_off,385,0,4,,,,,,,,,4,,,67,0
132865,note_off,385,0,1,,,,,,,,,1,,,75,0
132960,note_on,95,0,1,,,,,,,,,1,,,70,91
133120,note_on,0,0,1,,,,,,,,,1,,,68,91
133120,note_off,160,0,1,,,,,,,,,1,,,70,0
133280,note_on,0,0,1,,,,,,,,,1,,,67,92
133280,note_off,160,0,1,,,,,,,,,1,,,68,0
133440,note_on,0,0,1,,,,,,,,,1,,,65,92
133440,note_off,160,0,1,,,,,,,,,1,,,67,0
133600,note_off,160,0,1,,,,,,,,,1,,,65,0
133600,note_on,0,0,1,,,,,,,,,1,,,63,93
133760,note_off,160,0,1,,,,,,,,,1,,,63,0
133760,note_on,0,0,1,,,,,,,,,1,,,62,93
133920,note_on,0,0,1,,,,,,,,,1,,,63,94
133920,note_on,1055,0,4,,,,,,,,,4,,,55,94
133920,note_on,1055,0,5,,,,,,,,,5,,,51,94
133920,note_off,160,0,1,,,,,,,,,1,,,62,0
134080,note_off,160,0,1,,,,,,,,,1,,,63,0
134080,note_on,0,0,1,,,,,,,,,1,,,61,94
134240,note_off,160,0,1,,,,,,,,,1,,,61,0
134240,note_on,0,0,1,,,,,,,,,1,,,59,95
134305,note_off,385,0,4,,,,,,,,,4,,,55,0
134305,note_off,385,0,5,,,,,,,,,5,,,51,0
134360,set_tempo,1880,1,0,,,,,,265486,,,,,,,
134400,note_off,160,0,1,,,,,,,,,1,,,59,0
134400,note_on,95,0,4,,,,,,,,,4,,,56,95
134400,note_on,0,0,1,,,,,,,,,1,,,60,95
134400,set_tempo,40,1,0,,,,,,263157,,,,,,,
134400,note_on,95,0,5,,,,,,,,,5,,,51,95
134785,note_off,385,0,1,,,,,,,,,1,,,60,0
134785,note_off,385,0,4,,,,,,,,,4,,,56,0
134785,note_off,385,0,5,,,,,,,,,5,,,51,0
134880,note_on,95,0,1,,,,,,,,,1,,,72,97
135040,note_off,160,0,1,,,,,,,,,1,,,72,0
135040,note_on,0,0,1,,,,,,,,,1,,,70,98
135200,note_on,0,0,1,,,,,,,,,1,,,68,98
135200,note_off,160,0,1,,,,,,,,,1,,,70,0
135360,note_off,160,0,1,,,,,,,,,1,,,68,0
135360,note_on,0,0,1,,,,,,,,,1,,,67,98
135520,note_off,160,0,1,,,,,,,,,1,,,67,0
135520,note_on,0,0,1,,,,,,,,,1,,,65,99
135680,note_off,160,0,1,,,,,,,,,1,,,65,0
135680,note_on,0,0,1,,,,,,,,,1,,,63,99
135840,note_on,1055,0,5,,,,,,,,,5,,,46,100
135840,note_on,1055,0,4,,,,,,,,,4,,,53,100
135840,note_on,0,0,1,,,,,,,,,1,,,62,100
135840,note_off,160,0,1,,,,,,,,,1,,,63,0
135840,note_on,0,0,4,,,,,,,,,4,,,56,100
136000,note_on,0,0,1,,,,,,,,,1,,,68,100
136000,note_off,160,0,1,,,,,,,,,1,,,62,0
136160,note_on,0,0,1,,,,,,,,,1,,,65,101
136160,note_off,160,0,1,,,,,,,,,1,,,68,0
136215,set_tempo,1815,1,0,,,,,,315789,,,,,,,
136225,note_off,0,0,4,,,,,,,,,4,,,53,0
136225,note_off,385,0,4,,,,,,,,,4,,,56,0
136225,note_off,385,0,5,,,,,,,,,5,,,46,0
136320,note_on,95,0,5,,,,,,,,,5,,,51,100
136320,note_off,160,0,1,,,,,,,,,1,,,65,0
136320,set_tempo,105,1,0,,,,,,263157,,,,,,,
136320,note_on,95,0,4,,,,,,,,,4,,,55,100
136320,note_on,0,0,1,,,,,,,,,1,,,63,100
136945,note_off,625,0,1,,,,,,,,,1,,,63,0
137280,note_off,960,0,5,,,,,,,,,5,,,51,0
137280,note_on,335,0,1,,,,,,,,,1,,,67,92
137280,note_off,960,0,4,,,,,,,,,4,,,55,0
137520,note_off,240,0,1,,,,,,,,,1,,,67,0
137760,note_on,240,0,1,,,,,,,,,1,,,70,88
138000,note_off,240,0,1,,,,,,,,,1,,,70,0
138240,set_tempo,1920,1,0,,,,,,265486,,,,,,,
138240,note_on,240,0,1,,,,,,,,,1,,,75,84
138240,note_on,0,0,5,,,,,,,,,5,,,51,98
138240,note_on,960,0,5,,,,,,,,,5,,,39,98
138480,note_off,240,0,1,,,,,,,,,1,,,75,0
138720,note_on,240,0,1,,,,,,,,,1,,,79,80
138865,note_off,0,0,5,,,,,,,,,5,,,39,0
138865,note_off,625,0,5,,,,,,,,,5,,,51,0
138960,note_off,240,0,1,,,,,,,,,1,,,79,0
139200,note_on,335,0,5,,,,,,,,,5,,,55,88
139200,note_on,0,0,5,,,,,,,,,5,,,43,88
139440,note_off,240,0,5,,,,,,,,,5,,,43,0
139440,note_off,0,0,5,,,,,,,,,5,,,55,0
139560,note_on,600,0,1,,,,,,,,,1,,,79,57
139655,note_off,95,0,1,,,,,,,,,1,,,79,0
139680,note_on,240,0,5,,,,,,,,,5,,,46,84
139680,note_on,0,0,5,,,,,,,,,5,,,58,84
139680,note_on,25,0,1,,,,,,,,,1,,,79,59
139760,note_off,80,0,1,,,,,,,,,1,,,79,0
139760,note_on,0,0,1,,,,,,,,,1,,,80,60
139840,note_on,0,0,1,,,,,,,,,1,,,79,62
139840,note_off,80,0,1,,,,,,,,,1,,,80,0
139920,note_on,0,0,1,,,,,,,,,1,,,77,63
139920,note_off,80,0,1,,,,,,,,,1,,,79,0
139920,note_off,0,0,5,,,,,,,,,5,,,46,0
139920,note_off,240,0,5,,,,,,,,,5,,,58,0
140040,note_on,0,0,1,,,,,,,,,1,,,79,65
140040,note_off,120,0,1,,,,,,,,,1,,,77,0
140130,set_tempo,1890,1,0,,,,,,266666,,,,,,,
140160,note_off,120,0,1,,,,,,,,,1,,,79,0
140160,note_on,0,0,1,,,,,,,,,1,,,82,69
140160,note_on,240,0,5,,,,,,,,,5,,,63,79
140160,note_on,0,0,5,,,,,,,,,5,,,51,79
140400,note_off,240,0,5,,,,,,,,,5,,,51,0
140400,note_off,0,0,5,,,,,,,,,5,,,63,0
140640,note_on,240,0,5,,,,,,,,,5,,,67,74
140640,note_on,0,0,5,,,,,,,,,5,,,55,74
140640,note_off,480,0,1,,,,,,,,,1,,,82,0
140640,note_on,0,0,1,,,,,,,,,1,,,75,64
140880,note_off,240,0,5,,,,,,,,,5,,,55,0
140880,note_off,0,0,5,,,,,,,,,5,,,67,0
140880,note_off,240,0,1,,,,,,,,,1,,,75,0
141120,note_on,240,0,1,,,,,,,,,1,,,75,59
141360,note_off,240,0,1,,,,,,,,,1,,,75,0
141600,note_on,240,0,1,,,,,,,,,1,,,75,54
141840,note_off,240,0,1,,,,,,,,,1,,,75,0
141960,set_tempo,1830,1,0,,,,,,269058,,,,,,,
142080,note_on,0,0,4,,,,,,,,,4,,,65,60
142080,note_on,4800,0,4,,,,,,,,,4,,,62,60
142080,note_on,240,0,1,,,,,,,,,1,,,80,56
142080,note_on,1200,0,5,,,,,,,,,5,,,55,60
142560,note_off,480,0,1,,,,,,,,,1,,,80,0
142560,note_on,0,0,1,,,,,,,,,1,,,71,51
142800,note_off,240,0,1,,,,,,,,,1,,,71,0
142980,set_tempo,1020,1,0,,,,,,271493,,,,,,,
143040,note_on,240,0,1,,,,,,,,,1,,,71,45
143040,set_tempo,60,1,0,,,,,,277777,,,,,,,
143280,note_off,0,0,4,,,,,,,,,4,,,62,0
143280,note_off,240,0,1,,,,,,,,,1,,,71,0
143280,note_off,1200,0,5,,,,,,,,,5,,,55,0
143280,note_off,1200,0,4,,,,,,,,,4,,,65,0
143520,set_tempo,480,1,0,,,,,,517241,,,,,,,
144000,note_on,0,0,1,,,,,,,,,1,,,60,98
144000,control_change,720,0,5,,,,,,,64,0,5,,,,
144000,note_on,0,0,5,,,,,,,,,5,,,36,98
144000,note_on,0,0,5,,,,,,,,,5,,,48,98
144000,control_change,720,0,4,,,,,,,64,0,4,,,,
144000,control_change,19250,0,3,,,,,,,64,0,3,,,,
144000,set_tempo,480,1,0,,,,,,263157,,,,,,,
144000,control_change,720,0,1,,,,,,,64,0,1,,,,
144000,control_change,14975,0,2,,,,,,,64,0,2,,,,
144625,note_off,625,0,1,,,,,,,,,1,,,60,0
144625,note_off,0,0,5,,,,,,,,,5,,,36,0
144625,note_off,625,0,5,,,,,,,,,5,,,48,0
144960,note_on,0,0,5,,,,,,,,,5,,,40,88
144960,note_on,335,0,5,,,,,,,,,5,,,52,88
144960,note_on,335,0,1,,,,,,,,,1,,,64,88
145200,note_off,0,0,5,,,,,,,,,5,,,52,0
145200,note_off,240,0,5,,,,,,,,,5,,,40,0
145200,note_off,240,0,1,,,,,,,,,1,,,64,0
145440,note_on,240,0,1,,,,,,,,,1,,,67,83
145440,note_on,0,0,5,,,,,,,,,5,,,43,83
145440,note_on,240,0,5,,,,,,,,,5,,,55,83
145680,note_off,240,0,1,,,,,,,,,1,,,67,0
145680,note_off,0,0,5,,,,,,,,,5,,,55,0
145680,note_off,240,0,5,,,,,,,,,5,,,43,0
145920,note_on,240,0,1,,,,,,,,,1,,,72,78
145920,note_on,240,0,5,,,,,,,,,5,,,60,78
145920,note_on,0,0,5,,,,,,,,,5,,,48,78
146160,note_off,240,0,1,,,,,,,,,1,,,72,0
146160,note_off,240,0,5,,,,,,,,,5,,,48,0
146160,note_off,0,0,5,,,,,,,,,5,,,60,0
146400,note_on,240,0,1,,,,,,,,,1,,,76,73
146400,note_on,240,0,5,,,,,,,,,5,,,64,73
146400,note_on,0,0,5,,,,,,,,,5,,,52,73
146640,note_off,240,0,5,,,,,,,,,5,,,52,0
146640,note_off,0,0,5,,,,,,,,,5,,,64,0
146640,note_off,240,0,1,,,,,,,,,1,,,76,0
146760,set_tempo,2760,1,0,,,,,,265486,,,,,,,
147240,note_on,600,0,1,,,,,,,,,1,,,79,71
147336,note_off,96,0,1,,,,,,,,,1,,,79,0
147360,note_on,24,0,1,,,,,,,,,1,,,79,76
147440,note_on,0,0,1,,,,,,,,,1,,,80,79
147440,note_off,80,0,1,,,,,,,,,1,,,79,0
147520,note_off,80,0,1,,,,,,,,,1,,,80,0
147520,note_on,0,0,1,,,,,,,,,1,,,79,82
147600,note_on,0,0,1,,,,,,,,,1,,,77,86
147600,note_off,80,0,1,,,,,,,,,1,,,79,0
147720,note_off,120,0,1,,,,,,,,,1,,,77,0
147720,note_on,0,0,1,,,,,,,,,1,,,79,91
147800,set_tempo,1040,1,0,,,,,,265486,,,,,,,
147816,note_off,96,0,1,,,,,,,,,1,,,79,0
147840,note_on,0,0,5,,,,,,,,,5,,,46,97
147840,note_on,24,0,1,,,,,,,,,1,,,82,90
147840,note_on,1200,0,5,,,,,,,,,5,,,34,97
147920,set_tempo,120,1,0,,,,,,263157,,,,,,,
147984,note_off,144,0,1,,,,,,,,,1,,,82,0
148000,note_on,16,0,1,,,,,,,,,1,,,84,88
148144,note_off,144,0,1,,,,,,,,,1,,,84,0
148160,note_on,16,0,1,,,,,,,,,1,,,85,87
148304,note_off,144,0,1,,,,,,,,,1,,,85,0
148320,note_on,16,0,1,,,,,,,,,1,,,84,85
148464,note_off,144,0,1,,,,,,,,,1,,,84,0
148465,note_off,0,0,5,,,,,,,,,5,,,34,0
148465,note_off,625,0,5,,,,,,,,,5,,,46,0
148480,note_on,16,0,1,,,,,,,,,1,,,82,83
148624,note_off,144,0,1,,,,,,,,,1,,,82,0
148640,note_on,16,0,1,,,,,,,,,1,,,80,82
148784,note_off,144,0,1,,,,,,,,,1,,,80,0
148800,note_on,16,0,1,,,,,,,,,1,,,79,80
148800,note_on,335,0,5,,,,,,,,,5,,,40,84
148800,note_on,0,0,5,,,,,,,,,5,,,52,84
148944,note_off,144,0,1,,,,,,,,,1,,,79,0
148960,note_on,16,0,1,,,,,,,,,1,,,80,78
149040,note_off,0,0,5,,,,,,,,,5,,,40,0
149040,note_off,240,0,5,,,,,,,,,5,,,52,0
149104,note_off,144,0,1,,,,,,,,,1,,,80,0
149120,note_on,16,0,1,,,,,,,,,1,,,82,77
149264,note_off,144,0,1,,,,,,,,,1,,,82,0
149280,note_on,0,0,5,,,,,,,,,5,,,55,78
149280,note_on,16,0,1,,,,,,,,,1,,,80,75
149280,note_on,240,0,5,,,,,,,,,5,,,43,78
149424,note_off,144,0,1,,,,,,,,,1,,,80,0
149440,note_on,16,0,1,,,,,,,,,1,,,79,73
149520,note_off,0,0,5,,,,,,,,,5,,,43,0
149520,note_off,240,0,5,,,,,,,,,5,,,55,0
149584,note_off,144,0,1,,,,,,,,,1,,,79,0
149600,note_on,16,0,1,,,,,,,,,1,,,77,72
149744,note_off,144,0,1,,,,,,,,,1,,,77,0
149760,note_on,240,0,5,,,,,,,,,5,,,58,72
149760,note_on,16,0,1,,,,,,,,,1,,,76,70
149760,note_on,0,0,5,,,,,,,,,5,,,46,72
149904,note_off,144,0,1,,,,,,,,,1,,,76,0
149920,note_on,16,0,1,,,,,,,,,1,,,79,69
150000,note_off,240,0,5,,,,,,,,,5,,,46,0
150000,note_off,0,0,5,,,,,,,,,5,,,58,0
150064,note_off,144,0,1,,,,,,,,,1,,,79,0
150080,note_on,16,0,1,,,,,,,,,1,,,76,67
150224,note_off,144,0,1,,,,,,,,,1,,,76,0
150240,note_on,0,0,5,,,,,,,,,5,,,49,66
150240,note_on,240,0,5,,,,,,,,,5,,,61,66
150240,note_on,16,0,1,,,,,,,,,1,,,73,65
150384,note_off,144,0,1,,,,,,,,,1,,,73,0
150400,note_on,16,0,1,,,,,,,,,1,,,77,64
150480,note_off,240,0,5,,,,,,,,,5,,,49,0
150480,note_off,0,0,5,,,,,,,,,5,,,61,0
150544,note_off,144,0,1,,,,,,,,,1,,,77,0
150560,note_on,16,0,1,,,,,,,,,1,,,73,62
150704,note_off,144,0,1,,,,,,,,,1,,,73,0
150720,note_on,16,0,1,,,,,,,,,1,,,70,63
150864,note_off,144,0,1,,,,,,,,,1,,,70,0
150880,note_on,16,0,1,,,,,,,,,1,,,73,61
151024,note_off,144,0,1,,,,,,,,,1,,,73,0
151040,note_on,16,0,1,,,,,,,,,1,,,70,58
151184,note_off,144,0,1,,,,,,,,,1,,,70,0
151200,note_on,16,0,1,,,,,,,,,1,,,67,55
151344,note_off,144,0,1,,,,,,,,,1,,,67,0
151360,note_on,16,0,1,,,,,,,,,1,,,70,51
151504,note_off,144,0,1,,,,,,,,,1,,,70,0
151520,note_on,16,0,1,,,,,,,,,1,,,67,47
151640,set_tempo,3720,1,0,,,,,,265486,,,,,,,
151664,note_off,144,0,1,,,,,,,,,1,,,67,0
151680,set_tempo,40,1,0,,,,,,256410,,,,,,,
151680,note_on,16,0,1,,,,,,,,,1,,,68,40
151680,note_on,1200,0,5,,,,,,,,,5,,,53,40
151920,note_on,7920,0,3,,,,,,,,,3,,,60,40
152160,note_off,240,0,3,,,,,,,,,3,,,60,0
152160,note_on,0,0,3,,,,,,,,,3,,,56,41
152400,note_off,720,0,1,,,,,,,,,1,,,68,0
152400,note_off,720,0,5,,,,,,,,,5,,,53,0
152400,note_on,8400,0,2,,,,,,,,,2,,,70,35
152400,note_on,240,0,3,,,,,,,,,3,,,60,41
152460,note_on,0,0,2,,,,,,,,,2,,,68,36
152460,note_off,60,0,2,,,,,,,,,2,,,70,0
152520,note_on,0,0,2,,,,,,,,,2,,,67,37
152520,note_off,60,0,2,,,,,,,,,2,,,68,0
152520,note_off,120,0,3,,,,,,,,,3,,,56,0
152580,note_on,0,0,2,,,,,,,,,2,,,68,38
152580,note_off,60,0,2,,,,,,,,,2,,,67,0
152640,note_off,120,0,3,,,,,,,,,3,,,60,0
152640,note_off,60,0,2,,,,,,,,,2,,,68,0
152640,note_on,240,0,1,,,,,,,,,1,,,70,40
152640,note_on,240,0,5,,,,,,,,,5,,,55,41
152880,note_on,240,0,3,,,,,,,,,3,,,60,42
153120,note_off,240,0,3,,,,,,,,,3,,,60,0
153120,note_on,0,0,3,,,,,,,,,3,,,58,42
153120,note_off,480,0,1,,,,,,,,,1,,,70,0
153120,note_on,0,0,1,,,,,,,,,1,,,64,42
153360,note_off,720,0,5,,,,,,,,,5,,,55,0
153360,note_on,240,0,3,,,,,,,,,3,,,60,43
153480,note_off,120,0,3,,,,,,,,,3,,,58,0
153600,note_off,120,0,3,,,,,,,,,3,,,60,0
153600,note_off,480,0,1,,,,,,,,,1,,,64,0
153600,note_on,0,0,1,,,,,,,,,1,,,65,46
153600,note_on,240,0,5,,,,,,,,,5,,,56,43
153755,note_off,155,0,1,,,,,,,,,1,,,65,0
153840,note_on,85,0,1,,,,,,,,,1,,,68,49
153840,note_on,240,0,3,,,,,,,,,3,,,60,44
153960,note_off,360,0,5,,,,,,,,,5,,,56,0
153995,note_off,155,0,1,,,,,,,,,1,,,68,0
154080,note_off,240,0,3,,,,,,,,,3,,,60,0
154080,note_on,85,0,1,,,,,,,,,1,,,72,53
154080,note_on,120,0,5,,,,,,,,,5,,,53,44
154320,note_on,240,0,3,,,,,,,,,3,,,60,44
154440,note_off,360,0,5,,,,,,,,,5,,,53,0
154560,note_off,240,0,3,,,,,,,,,3,,,60,0
154560,note_on,120,0,5,,,,,,,,,5,,,52,45
154800,note_on,0,0,1,,,,,,,,,1,,,71,48
154800,note_off,720,0,1,,,,,,,,,1,,,72,0
154800,note_on,240,0,3,,,,,,,,,3,,,60,45
154920,note_off,360,0,5,,,,,,,,,5,,,52,0
155040,note_on,0,0,1,,,,,,,,,1,,,70,46
155040,note_off,240,0,1,,,,,,,,,1,,,71,0
155040,note_on,120,0,5,,,,,,,,,5,,,48,46
155040,note_off,240,0,3,,,,,,,,,3,,,60,0
155280,note_on,240,0,3,,,,,,,,,3,,,60,46
155280,note_off,240,0,1,,,,,,,,,1,,,70,0
155280,note_on,0,0,1,,,,,,,,,1,,,67,44
155400,note_off,360,0,5,,,,,,,,,5,,,48,0
155460,note_off,180,0,3,,,,,,,,,3,,,60,0
155460,set_tempo,3780,1,0,,,,,,269058,,,,,,,
155472,note_off,192,0,1,,,,,,,,,1,,,67,0
155520,note_on,120,0,5,,,,,,,,,5,,,53,47
155520,set_tempo,60,1,0,,,,,,256410,,,,,,,
155520,note_on,48,0,1,,,,,,,,,1,,,68,47
155760,note_on,300,0,3,,,,,,,,,3,,,60,47
156000,note_off,240,0,3,,,,,,,,,3,,,60,0
156000,note_on,0,0,3,,,,,,,,,3,,,56,47
156240,note_on,3600,0,2,,,,,,,,,2,,,70,42
156240,note_off,720,0,1,,,,,,,,,1,,,68,0
156240,note_on,240,0,3,,,,,,,,,3,,,60,48
156240,note_off,720,0,5,,,,,,,,,5,,,53,0
156300,note_off,60,0,2,,,,,,,,,2,,,70,0
156300,note_on,0,0,2,,,,,,,,,2,,,68,44
156360,note_off,60,0,2,,,,,,,,,2,,,68,0
156360,note_off,120,0,3,,,,,,,,,3,,,56,0
156360,note_on,0,0,2,,,,,,,,,2,,,67,47
156420,note_on,0,0,2,,,,,,,,,2,,,68,49
156420,note_off,60,0,2,,,,,,,,,2,,,67,0
156480,note_off,60,0,2,,,,,,,,,2,,,68,0
156480,note_on,240,0,1,,,,,,,,,1,,,70,51
156480,note_off,120,0,3,,,,,,,,,3,,,60,0
156480,note_on,240,0,5,,,,,,,,,5,,,55,48
156720,note_on,240,0,3,,,,,,,,,3,,,60,49
156960,note_off,480,0,1,,,,,,,,,1,,,70,0
156960,note_on,0,0,1,,,,,,,,,1,,,64,51
156960,note_on,0,0,3,,,,,,,,,3,,,58,49
156960,note_off,240,0,3,,,,,,,,,3,,,60,0
157200,note_on,240,0,3,,,,,,,,,3,,,60,50
157200,note_off,720,0,5,,,,,,,,,5,,,55,0
157320,note_off,120,0,3,,,,,,,,,3,,,58,0
157440,note_off,480,0,1,,,,,,,,,1,,,64,0
157440,note_on,0,0,1,,,,,,,,,1,,,65,55
157440,note_on,240,0,5,,,,,,,,,5,,,56,50
157440,note_off,120,0,3,,,,,,,,,3,,,60,0
157595,note_off,155,0,1,,,,,,,,,1,,,65,0
157680,note_on,85,0,1,,,,,,,,,1,,,77,59
157680,note_on,240,0,3,,,,,,,,,3,,,60,50
157800,note_off,360,0,5,,,,,,,,,5,,,56,0
157920,note_on,0,0,1,,,,,,,,,1,,,75,57
157920,note_off,240,0,1,,,,,,,,,1,,,77,0
157920,note_off,240,0,3,,,,,,,,,3,,,60,0
157920,note_on,120,0,5,,,,,,,,,5,,,53,51
158160,note_on,0,0,1,,,,,,,,,1,,,73,55
158160,note_off,240,0,1,,,,,,,,,1,,,75,0
158160,note_on,240,0,3,,,,,,,,,3,,,60,51
158280,note_off,360,0,5,,,,,,,,,5,,,53,0
158400,note_on,120,0,5,,,,,,,,,5,,,52,52
158400,note_off,240,0,1,,,,,,,,,1,,,73,0
158400,note_off,240,0,3,,,,,,,,,3,,,60,0
158400,note_on,0,0,1,,,,,,,,,1,,,72,54
158640,note_off,240,0,1,,,,,,,,,1,,,72,0
158640,note_on,240,0,3,,,,,,,,,3,,,60,52
158640,note_on,0,0,1,,,,,,,,,1,,,71,52
158760,note_off,360,0,5,,,,,,,,,5,,,52,0
158880,note_on,120,0,5,,,,,,,,,5,,,48,53
158880,note_off,240,0,3,,,,,,,,,3,,,60,0
158880,note_off,240,0,1,,,,,,,,,1,,,71,0
158880,note_on,0,0,1,,,,,,,,,1,,,70,51
159120,note_on,240,0,3,,,,,,,,,3,,,60,53
159120,note_off,240,0,1,,,,,,,,,1,,,70,0
159120,note_on,0,0,1,,,,,,,,,1,,,67,49
159240,note_off,360,0,5,,,,,,,,,5,,,48,0
159300,set_tempo,3780,1,0,,,,,,269058,,,,,,,
159307,note_off,187,0,3,,,,,,,,,3,,,60,0
159312,note_off,192,0,1,,,,,,,,,1,,,67,0
159360,note_on,120,0,5,,,,,,,,,5,,,53,64
159360,note_on,48,0,1,,,,,,,,,1,,,68,71
159360,set_tempo,60,1,0,,,,,,256410,,,,,,,
159520,note_on,213,0,3,,,,,,,,,3,,,56,64
159664,note_off,144,0,3,,,,,,,,,3,,,56,0
159680,note_on,16,0,3,,,,,,,,,3,,,60,64
159824,note_off,144,0,3,,,,,,,,,3,,,60,0
159840,note_on,16,0,3,,,,,,,,,3,,,58,65
159984,note_off,144,0,3,,,,,,,,,3,,,58,0
159985,note_off,625,0,1,,,,,,,,,1,,,68,0
160000,note_on,16,0,3,,,,,,,,,3,,,56,65
160080,note_off,720,0,5,,,,,,,,,5,,,53,0
160144,note_off,144,0,3,,,,,,,,,3,,,56,0
160160,note_on,16,0,3,,,,,,,,,3,,,55,65
160304,note_off,144,0,3,,,,,,,,,3,,,55,0
160320,note_on,240,0,5,,,,,,,,,5,,,53,65
160320,note_on,335,0,1,,,,,,,,,1,,,72,65
160480,note_on,176,0,3,,,,,,,,,3,,,56,66
160560,note_off,240,0,1,,,,,,,,,1,,,72,0
160624,note_off,144,0,3,,,,,,,,,3,,,56,0
160640,note_on,16,0,3,,,,,,,,,3,,,60,66
160784,note_off,144,0,3,,,,,,,,,3,,,60,0
160800,note_on,16,0,3,,,,,,,,,3,,,58,66
160800,note_on,240,0,1,,,,,,,,,1,,,77,66
160944,note_off,144,0,3,,,,,,,,,3,,,58,0
160960,note_on,16,0,3,,,,,,,,,3,,,56,67
161040,note_off,240,0,1,,,,,,,,,1,,,77,0
161040,note_off,720,0,5,,,,,,,,,5,,,53,0
161104,note_off,144,0,3,,,,,,,,,3,,,56,0
161120,note_on,16,0,3,,,,,,,,,3,,,55,67
161272,note_off,152,0,3,,,,,,,,,3,,,55,0
161280,note_on,240,0,5,,,,,,,,,5,,,53,67
161280,note_on,240,0,1,,,,,,,,,1,,,80,67
161440,note_on,168,0,3,,,,,,,,,3,,,56,67
161520,note_off,240,0,1,,,,,,,,,1,,,80,0
161584,note_off,144,0,3,,,,,,,,,3,,,56,0
161600,note_on,16,0,3,,,,,,,,,3,,,60,68
161744,note_off,144,0,3,,,,,,,,,3,,,60,0
161760,note_on,16,0,3,,,,,,,,,3,,,58,68
161760,note_on,240,0,1,,,,,,,,,1,,,84,68
161904,note_off,144,0,3,,,,,,,,,3,,,58,0
161920,note_on,16,0,3,,,,,,,,,3,,,56,68
162000,note_off,720,0,5,,,,,,,,,5,,,53,0
162000,note_off,240,0,1,,,,,,,,,1,,,84,0
162064,note_off,144,0,3,,,,,,,,,3,,,56,0
162080,note_on,16,0,3,,,,,,,,,3,,,55,69
162224,note_off,144,0,3,,,,,,,,,3,,,55,0
162240,note_on,240,0,5,,,,,,,,,5,,,53,69
162400,note_on,176,0,3,,,,,,,,,3,,,55,69
162544,note_off,144,0,3,,,,,,,,,3,,,55,0
162560,note_on,16,0,3,,,,,,,,,3,,,53,70
162704,note_off,144,0,3,,,,,,,,,3,,,53,0
162720,note_off,480,0,5,,,,,,,,,5,,,53,0
162720,note_on,16,0,3,,,,,,,,,3,,,51,70
162864,note_off,144,0,3,,,,,,,,,3,,,51,0
162880,note_on,16,0,3,,,,,,,,,3,,,53,70
163024,note_off,144,0,3,,,,,,,,,3,,,53,0
163040,note_on,16,0,3,,,,,,,,,3,,,51,70
163140,set_tempo,3780,1,0,,,,,,269058,,,,,,,
163185,note_off,145,0,3,,,,,,,,,3,,,51,0
163200,note_on,480,0,5,,,,,,,,,5,,,38,76
163200,note_on,0,0,5,,,,,,,,,5,,,50,76
163200,note_on,6720,0,2,,,,,,,,,2,,,84,71
163200,set_tempo,60,1,0,,,,,,256410,,,,,,,
163344,note_off,144,0,2,,,,,,,,,2,,,84,0
163360,note_on,16,0,2,,,,,,,,,2,,,86,71
163504,note_off,144,0,2,,,,,,,,,2,,,86,0
163520,note_on,16,0,2,,,,,,,,,2,,,87,71
163664,note_off,144,0,2,,,,,,,,,2,,,87,0
163680,note_on,16,0,2,,,,,,,,,2,,,86,72
163824,note_off,144,0,2,,,,,,,,,2,,,86,0
163825,note_off,0,0,5,,,,,,,,,5,,,38,0
163825,note_off,625,0,5,,,,,,,,,5,,,50,0
163840,note_on,16,0,2,,,,,,,,,2,,,84,72
163984,note_off,144,0,2,,,,,,,,,2,,,84,0
164000,note_on,16,0,2,,,,,,,,,2,,,82,72
164144,note_off,144,0,2,,,,,,,,,2,,,82,0
164160,note_on,335,0,5,,,,,,,,,5,,,42,79
164160,note_on,0,0,5,,,,,,,,,5,,,54,79
164160,note_on,16,0,2,,,,,,,,,2,,,81,72
164304,note_off,144,0,2,,,,,,,,,2,,,81,0
164320,note_on,16,0,2,,,,,,,,,2,,,82,73
164400,note_off,0,0,5,,,,,,,,,5,,,42,0
164400,note_off,240,0,5,,,,,,,,,5,,,54,0
164464,note_off,144,0,2,,,,,,,,,2,,,82,0
164480,note_on,16,0,2,,,,,,,,,2,,,84,73
164624,note_off,144,0,2,,,,,,,,,2,,,84,0
164640,note_on,16,0,2,,,,,,,,,2,,,82,73
164640,note_on,240,0,5,,,,,,,,,5,,,57,80
164640,note_on,0,0,5,,,,,,,,,5,,,45,80
164784,note_off,144,0,2,,,,,,,,,2,,,82,0
164800,note_on,16,0,2,,,,,,,,,2,,,81,74
164880,note_off,240,0,5,,,,,,,,,5,,,45,0
164880,note_off,0,0,5,,,,,,,,,5,,,57,0
164944,note_off,144,0,2,,,,,,,,,2,,,81,0
164960,note_on,16,0,2,,,,,,,,,2,,,79,74
165105,note_off,145,0,2,,,,,,,,,2,,,79,0
165120,note_on,240,0,5,,,,,,,,,5,,,62,82
165120,note_on,0,0,5,,,,,,,,,5,,,50,82
165120,note_on,15,0,2,,,,,,,,,2,,,78,74
165264,note_off,144,0,2,,,,,,,,,2,,,78,0
165280,note_on,16,0,2,,,,,,,,,2,,,81,74
165360,note_off,240,0,5,,,,,,,,,5,,,50,0
165360,note_off,0,0,5,,,,,,,,,5,,,62,0
165424,note_off,144,0,2,,,,,,,,,2,,,81,0
165440,note_on,16,0,2,,,,,,,,,2,,,78,75
165584,note_off,144,0,2,,,,,,,,,2,,,78,0
165600,note_on,16,0,2,,,,,,,,,2,,,75,75
165600,note_on,240,0,5,,,,,,,,,5,,,66,83
165600,note_on,0,0,5,,,,,,,,,5,,,54,83
165744,note_off,144,0,2,,,,,,,,,2,,,75,0
165760,note_on,16,0,2,,,,,,,,,2,,,81,75
165840,note_off,240,0,5,,,,,,,,,5,,,54,0
165840,note_off,0,0,5,,,,,,,,,5,,,66,0
165904,note_off,144,0,2,,,,,,,,,2,,,81,0
165920,note_on,16,0,2,,,,,,,,,2,,,75,76
166064,note_off,144,0,2,,,,,,,,,2,,,75,0
166080,note_on,16,0,2,,,,,,,,,2,,,74,76
166224,note_off,144,0,2,,,,,,,,,2,,,74,0
166240,note_on,16,0,2,,,,,,,,,2,,,81,76
166384,note_off,144,0,2,,,,,,,,,2,,,81,0
166400,note_on,16,0,2,,,,,,,,,2,,,74,77
166544,note_off,144,0,2,,,,,,,,,2,,,74,0
166560,note_on,16,0,2,,,,,,,,,2,,,72,77
166704,note_off,144,0,2,,,,,,,,,2,,,72,0
166720,note_on,16,0,2,,,,,,,,,2,,,81,77
166864,note_off,144,0,2,,,,,,,,,2,,,81,0
166880,note_on,16,0,2,,,,,,,,,2,,,72,77
166980,set_tempo,3780,1,0,,,,,,269058,,,,,,,
167032,note_off,152,0,2,,,,,,,,,2,,,72,0
167040,set_tempo,60,1,0,,,,,,256410,,,,,,,
167040,note_on,5040,0,1,,,,,,,,,1,,,70,84
167040,note_on,1200,0,5,,,,,,,,,5,,,55,78
167200,note_on,4015,0,3,,,,,,,,,3,,,58,78
167344,note_off,144,0,3,,,,,,,,,3,,,58,0
167360,note_on,16,0,3,,,,,,,,,3,,,62,78
167504,note_off,144,0,3,,,,,,,,,3,,,62,0
167520,note_on,16,0,3,,,,,,,,,3,,,60,79
167664,note_off,144,0,3,,,,,,,,,3,,,60,0
167665,note_off,625,0,1,,,,,,,,,1,,,70,0
167680,note_on,16,0,3,,,,,,,,,3,,,58,79
167760,note_off,720,0,5,,,,,,,,,5,,,55,0
167824,note_off,144,0,3,,,,,,,,,3,,,58,0
167840,note_on,16,0,3,,,,,,,,,3,,,57,79
167984,note_off,144,0,3,,,,,,,,,3,,,57,0
168000,note_on,335,0,1,,,,,,,,,1,,,74,79
168000,note_on,240,0,5,,,,,,,,,5,,,55,79
168160,note_on,176,0,3,,,,,,,,,3,,,58,80
168240,note_off,240,0,1,,,,,,,,,1,,,74,0
168304,note_off,144,0,3,,,,,,,,,3,,,58,0
168320,note_on,16,0,3,,,,,,,,,3,,,62,80
168464,note_off,144,0,3,,,,,,,,,3,,,62,0
168480,note_on,16,0,3,,,,,,,,,3,,,60,80
168480,note_on,240,0,1,,,,,,,,,1,,,79,80
168624,note_off,144,0,3,,,,,,,,,3,,,60,0
168640,note_on,16,0,3,,,,,,,,,3,,,58,81
168720,note_off,720,0,5,,,,,,,,,5,,,55,0
168720,note_off,240,0,1,,,,,,,,,1,,,79,0
168784,note_off,144,0,3,,,,,,,,,3,,,58,0
168800,note_on,16,0,3,,,,,,,,,3,,,57,81
168945,note_off,145,0,3,,,,,,,,,3,,,57,0
168960,note_on,240,0,5,,,,,,,,,5,,,55,81
168960,note_on,240,0,1,,,,,,,,,1,,,82,81
169120,note_on,175,0,3,,,,,,,,,3,,,58,82
169200,note_off,240,0,1,,,,,,,,,1,,,82,0
169264,note_off,144,0,3,,,,,,,,,3,,,58,0
169280,note_on,16,0,3,,,,,,,,,3,,,62,82
169424,note_off,144,0,3,,,,,,,,,3,,,62,0
169440,note_on,16,0,3,,,,,,,,,3,,,60,82
169440,note_on,240,0,1,,,,,,,,,1,,,86,82
169584,note_off,144,0,3,,,,,,,,,3,,,60,0
169600,note_on,16,0,3,,,,,,,,,3,,,58,82
169680,note_off,240,0,1,,,,,,,,,1,,,86,0
169680,note_off,720,0,5,,,,,,,,,5,,,55,0
169744,note_off,144,0,3,,,,,,,,,3,,,58,0
169760,note_on,16,0,3,,,,,,,,,3,,,57,83
169904,note_off,144,0,3,,,,,,,,,3,,,57,0
169920,note_on,240,0,5,,,,,,,,,5,,,55,83
170080,note_on,176,0,3,,,,,,,,,3,,,58,83
170224,note_off,144,0,3,,,,,,,,,3,,,58,0
170240,note_on,16,0,3,,,,,,,,,3,,,62,84
170280,note_off,360,0,5,,,,,,,,,5,,,55,0
170384,note_off,144,0,3,,,,,,,,,3,,,62,0
170400,note_on,120,0,5,,,,,,,,,5,,,55,84
170560,note_on,176,0,3,,,,,,,,,3,,,58,84
170704,note_off,144,0,3,,,,,,,,,3,,,58,0
170720,note_on,16,0,3,,,,,,,,,3,,,62,84
170760,note_off,360,0,5,,,,,,,,,5,,,55,0
170820,set_tempo,3780,1,0,,,,,,269058,,,,,,,
170857,note_off,137,0,3,,,,,,,,,3,,,62,0
170880,note_on,1200,0,1,,,,,,,,,1,,,71,91
170880,note_on,120,0,5,,,,,,,,,5,,,53,85
170880,set_tempo,60,1,0,,,,,,256410,,,,,,,
171040,note_on,183,0,3,,,,,,,,,3,,,59,85
171184,note_off,144,0,3,,,,,,,,,3,,,59,0
171200,note_on,16,0,3,,,,,,,,,3,,,62,85
171240,note_off,360,0,5,,,,,,,,,5,,,53,0
171344,note_off,144,0,3,,,,,,,,,3,,,62,0
171360,note_on,120,0,5,,,,,,,,,5,,,55,86
171505,note_off,625,0,1,,,,,,,,,1,,,71,0
171520,note_on,176,0,3,,,,,,,,,3,,,59,86
171664,note_off,144,0,3,,,,,,,,,3,,,59,0
171680,note_on,16,0,3,,,,,,,,,3,,,62,86
171720,note_off,360,0,5,,,,,,,,,5,,,55,0
171824,note_off,144,0,3,,,,,,,,,3,,,62,0
171840,note_on,335,0,1,,,,,,,,,1,,,74,87
171840,note_on,120,0,5,,,,,,,,,5,,,56,87
172000,note_on,176,0,3,,,,,,,,,3,,,59,87
172080,note_off,240,0,1,,,,,,,,,1,,,74,0
172144,note_off,144,0,3,,,,,,,,,3,,,59,0
172160,note_on,16,0,3,,,,,,,,,3,,,62,87
172200,note_off,360,0,5,,,,,,,,,5,,,56,0
172304,note_off,144,0,3,,,,,,,,,3,,,62,0
172320,note_on,240,0,1,,,,,,,,,1,,,77,87
172320,note_on,120,0,5,,,,,,,,,5,,,55,87
172480,note_on,176,0,3,,,,,,,,,3,,,59,88
172560,note_off,240,0,1,,,,,,,,,1,,,77,0
172624,note_off,144,0,3,,,,,,,,,3,,,59,0
172640,note_on,16,0,3,,,,,,,,,3,,,62,88
172680,note_off,360,0,5,,,,,,,,,5,,,55,0
172792,note_off,152,0,3,,,,,,,,,3,,,62,0
172800,note_on,240,0,1,,,,,,,,,1,,,83,88
172800,note_on,120,0,5,,,,,,,,,5,,,53,88
172960,note_on,168,0,3,,,,,,,,,3,,,59,89
173040,note_off,240,0,1,,,,,,,,,1,,,83,0
173104,note_off,144,0,3,,,,,,,,,3,,,59,0
173120,note_on,16,0,3,,,,,,,,,3,,,62,89
173160,note_off,360,0,5,,,,,,,,,5,,,53,0
173264,note_off,144,0,3,,,,,,,,,3,,,62,0
173280,note_on,240,0,1,,,,,,,,,1,,,86,89
173280,note_on,120,0,5,,,,,,,,,5,,,55,89
173440,note_on,176,0,3,,,,,,,,,3,,,59,89
173520,note_off,240,0,1,,,,,,,,,1,,,86,0
173584,note_off,144,0,3,,,,,,,,,3,,,59,0
173600,note_on,16,0,3,,,,,,,,,3,,,62,90
173640,note_off,360,0,5,,,,,,,,,5,,,55,0
173744,note_off,144,0,3,,,,,,,,,3,,,62,0
173760,note_on,120,0,5,,,,,,,,,5,,,56,90
173920,note_on,176,0,3,,,,,,,,,3,,,59,90
174064,note_off,144,0,3,,,,,,,,,3,,,59,0
174080,note_on,16,0,3,,,,,,,,,3,,,62,91
174120,note_off,360,0,5,,,,,,,,,5,,,56,0
174224,note_off,144,0,3,,,,,,,,,3,,,62,0
174240,note_on,120,0,5,,,,,,,,,5,,,53,91
174400,note_on,176,0,3,,,,,,,,,3,,,59,91
174544,note_off,144,0,3,,,,,,,,,3,,,59,0
174560,note_on,16,0,3,,,,,,,,,3,,,62,92
174600,note_off,360,0,5,,,,,,,,,5,,,53,0
174660,set_tempo,3780,1,0,,,,,,269058,,,,,,,
174712,note_off,152,0,3,,,,,,,,,3,,,62,0
174720,note_on,1200,0,1,,,,,,,,,1,,,72,99
174720,note_on,120,0,5,,,,,,,,,5,,,51,92
174720,set_tempo,60,1,0,,,,,,256410,,,,,,,
174880,note_on,168,0,3,,,,,,,,,3,,,55,92
175024,note_off,144,0,3,,,,,,,,,3,,,55,0
175040,note_on,16,0,3,,,,,,,,,3,,,60,92
175080,note_off,360,0,5,,,,,,,,,5,,,51,0
175184,note_off,144,0,3,,,,,,,,,3,,,60,0
175200,note_on,120,0,5,,,,,,,,,5,,,53,93
175345,note_off,625,0,1,,,,,,,,,1,,,72,0
175360,note_on,176,0,3,,,,,,,,,3,,,56,93
175504,note_off,144,0,3,,,,,,,,,3,,,56,0
175520,note_on,16,0,3,,,,,,,,,3,,,60,93
175560,note_off,360,0,5,,,,,,,,,5,,,53,0
175664,note_off,144,0,3,,,,,,,,,3,,,60,0
175680,note_on,120,0,5,,,,,,,,,5,,,51,94
175680,note_on,335,0,1,,,,,,,,,1,,,75,94
175840,note_on,176,0,3,,,,,,,,,3,,,55,94
175920,note_off,240,0,1,,,,,,,,,1,,,75,0
175984,note_off,144,0,3,,,,,,,,,3,,,55,0
176000,note_on,16,0,3,,,,,,,,,3,,,60,94
176040,note_off,360,0,5,,,,,,,,,5,,,51,0
176144,note_off,144,0,3,,,,,,,,,3,,,60,0
176160,note_on,120,0,5,,,,,,,,,5,,,50,94
176160,note_on,240,0,1,,,,,,,,,1,,,79,94
176320,note_on,176,0,3,,,,,,,,,3,,,53,95
176400,note_off,240,0,1,,,,,,,,,1,,,79,0
176464,note_off,144,0,3,,,,,,,,,3,,,53,0
176480,note_on,16,0,3,,,,,,,,,3,,,60,95
176520,note_off,360,0,5,,,,,,,,,5,,,50,0
176625,note_off,145,0,3,,,,,,,,,3,,,60,0
176640,note_on,120,0,5,,,,,,,,,5,,,51,95
176640,note_on,240,0,1,,,,,,,,,1,,,84,95
176800,note_on,175,0,3,,,,,,,,,3,,,55,96
176880,note_off,240,0,1,,,,,,,,,1,,,84,0
176944,note_off,144,0,3,,,,,,,,,3,,,55,0
176960,note_on,16,0,3,,,,,,,,,3,,,60,96
177000,note_off,360,0,5,,,,,,,,,5,,,51,0
177104,note_off,144,0,3,,,,,,,,,3,,,60,0
177120,note_on,120,0,5,,,,,,,,,5,,,50,96
177120,note_on,240,0,1,,,,,,,,,1,,,87,96
177280,note_on,176,0,3,,,,,,,,,3,,,53,97
177360,note_off,240,0,1,,,,,,,,,1,,,87,0
177424,note_off,144,0,3,,,,,,,,,3,,,53,0
177440,note_on,16,0,3,,,,,,,,,3,,,60,97
177480,note_off,360,0,5,,,,,,,,,5,,,50,0
177584,note_off,144,0,3,,,,,,,,,3,,,60,0
177600,note_on,120,0,5,,,,,,,,,5,,,51,97
177760,note_on,176,0,3,,,,,,,,,3,,,55,97
177904,note_off,144,0,3,,,,,,,,,3,,,55,0
177920,note_on,16,0,3,,,,,,,,,3,,,60,98
177960,note_off,360,0,5,,,,,,,,,5,,,51,0
178064,note_off,144,0,3,,,,,,,,,3,,,60,0
178080,note_on,120,0,5,,,,,,,,,5,,,48,98
178240,note_on,176,0,3,,,,,,,,,3,,,51,98
178384,note_off,144,0,3,,,,,,,,,3,,,51,0
178400,note_on,16,0,3,,,,,,,,,3,,,55,99
178440,note_off,360,0,5,,,,,,,,,5,,,48,0
178500,set_tempo,3780,1,0,,,,,,269058,,,,,,,
178537,note_off,137,0,3,,,,,,,,,3,,,55,0
178560,note_on,120,0,5,,,,,,,,,5,,,47,99
178560,note_on,0,0,1,,,,,,,,,1,,,74,106
178560,note_on,1200,0,1,,,,,,,,,1,,,62,106
178560,set_tempo,60,1,0,,,,,,256410,,,,,,,
178720,note_on,183,0,3,,,,,,,,,3,,,50,99
178864,note_off,144,0,3,,,,,,,,,3,,,50,0
178880,note_on,16,0,3,,,,,,,,,3,,,55,99
178920,note_off,360,0,5,,,,,,,,,5,,,47,0
179024,note_off,144,0,3,,,,,,,,,3,,,55,0
179040,note_on,120,0,5,,,,,,,,,5,,,48,100
179185,note_off,0,0,1,,,,,,,,,1,,,62,0
179185,note_off,625,0,1,,,,,,,,,1,,,74,0
179200,note_on,176,0,3,,,,,,,,,3,,,50,100
179344,note_off,144,0,3,,,,,,,,,3,,,50,0
179360,note_on,16,0,3,,,,,,,,,3,,,55,100
179400,note_off,360,0,5,,,,,,,,,5,,,48,0
179504,note_off,144,0,3,,,,,,,,,3,,,55,0
179520,note_on,335,0,1,,,,,,,,,1,,,65,101
179520,note_on,120,0,5,,,,,,,,,5,,,47,101
179520,note_on,0,0,1,,,,,,,,,1,,,77,101
179680,note_on,176,0,3,,,,,,,,,3,,,50,101
179760,note_off,240,0,1,,,,,,,,,1,,,77,0
179760,note_off,0,0,1,,,,,,,,,1,,,65,0
179824,note_off,144,0,3,,,,,,,,,3,,,50,0
179840,note_on,16,0,3,,,,,,,,,3,,,55,101
179880,note_off,360,0,5,,,,,,,,,5,,,47,0
179984,note_off,144,0,3,,,,,,,,,3,,,55,0
180000,note_on,120,0,5,,,,,,,,,5,,,45,102
180000,note_on,0,0,1,,,,,,,,,1,,,79,102
180000,note_on,240,0,1,,,,,,,,,1,,,67,102
180160,note_on,176,0,3,,,,,,,,,3,,,50,102
180240,note_off,0,0,1,,,,,,,,,1,,,67,0
180240,note_off,240,0,1,,,,,,,,,1,,,79,0
180304,note_off,144,0,3,,,,,,,,,3,,,50,0
180320,note_on,16,0,3,,,,,,,,,3,,,55,102
180360,note_off,360,0,5,,,,,,,,,5,,,45,0
180465,note_off,145,0,3,,,,,,,,,3,,,55,0
180480,note_on,120,0,5,,,,,,,,,5,,,47,105
180480,note_on,240,0,1,,,,,,,,,1,,,74,105
180480,set_tempo,1920,1,0,,,,,,269058,,,,,,,
180480,note_on,0,0,1,,,,,,,,,1,,,86,105
180640,note_on,175,0,3,,,,,,,,,3,,,50,103
180720,note_off,0,0,1,,,,,,,,,1,,,74,0
180720,note_off,240,0,1,,,,,,,,,1,,,86,0
180784,note_off,144,0,3,,,,,,,,,3,,,50,0
180800,note_on,16,0,3,,,,,,,,,3,,,55,101
180840,note_off,360,0,5,,,,,,,,,5,,,47,0
180944,note_off,144,0,3,,,,,,,,,3,,,55,0
180960,note_on,120,0,5,,,,,,,,,5,,,43,100
180960,note_on,240,0,1,,,,,,,,,1,,,77,100
180960,note_on,0,0,1,,,,,,,,,1,,,89,100
181194,note_off,0,0,1,,,,,,,,,1,,,77,0
181194,note_off,234,0,5,,,,,,,,,5,,,43,0
181194,note_off,234,0,1,,,,,,,,,1,,,89,0
181905,set_tempo,1425,1,0,,,,,,304568,,,,,,,
182400,set_tempo,495,1,0,,,,,,265486,,,,,,,
182400,note_on,1206,0,1,,,,,,,,,1,,,77,66
182592,note_off,192,0,1,,,,,,,,,1,,,77,0
182880,note_on,288,0,1,,,,,,,,,1,,,80,71
183072,note_off,192,0,1,,,,,,,,,1,,,80,0
183360,note_on,288,0,1,,,,,,,,,1,,,71,76
183360,note_on,2166,0,5,,,,,,,,,5,,,62,76
184200,note_off,840,0,1,,,,,,,,,1,,,71,0
184200,note_off,840,0,5,,,,,,,,,5,,,62,0
184260,set_tempo,1860,1,0,,,,,,266666,,,,,,,
184320,note_on,120,0,1,,,,,,,,,1,,,74,55
184320,set_tempo,60,1,0,,,,,,265486,,,,,,,
184512,note_off,192,0,1,,,,,,,,,1,,,74,0
184800,note_on,288,0,1,,,,,,,,,1,,,77,60
184992,note_off,192,0,1,,,,,,,,,1,,,77,0
185280,note_on,288,0,1,,,,,,,,,1,,,68,68
185280,note_on,1080,0,5,,,,,,,,,5,,,59,65
186120,note_off,840,0,5,,,,,,,,,5,,,59,0
186120,note_off,840,0,1,,,,,,,,,1,,,68,0
186200,set_tempo,1880,1,0,,,,,,266666,,,,,,,
186240,set_tempo,40,1,0,,,,,,265486,,,,,,,
186240,note_on,120,0,1,,,,,,,,,1,,,71,50
186432,note_off,192,0,1,,,,,,,,,1,,,71,0
186720,note_on,288,0,1,,,,,,,,,1,,,74,53
186912,note_off,192,0,1,,,,,,,,,1,,,74,0
187200,note_on,288,0,1,,,,,,,,,1,,,62,57
187200,set_tempo,960,1,0,,,,,,266666,,,,,,,
187392,note_off,192,0,1,,,,,,,,,1,,,62,0
187680,note_on,288,0,1,,,,,,,,,1,,,65,61
187680,set_tempo,480,1,0,,,,,,295566,,,,,,,
187872,note_off,192,0,1,,,,,,,,,1,,,65,0
188160,note_on,0,0,5,,,,,,,,,5,,,35,65
188160,note_on,2040,0,5,,,,,,,,,5,,,47,65
188160,set_tempo,480,1,0,,,,,,419580,,,,,,,
188160,note_on,0,0,2,,,,,,,,,2,,,50,65
188160,note_on,21128,0,2,,,,,,,,,2,,,53,65
188160,note_on,288,0,1,,,,,,,,,1,,,56,65
190080,set_tempo,1920,1,0,,,,,,625000,,,,,,,
190080,note_on,0,0,1,,,,,,,,,1,,,55,36
190080,note_off,1920,0,1,,,,,,,,,1,,,56,0
190560,note_off,480,0,1,,,,,,,,,1,,,55,0
190560,note_off,2400,0,2,,,,,,,,,2,,,53,0
190560,note_off,2400,0,5,,,,,,,,,5,,,35,0
190567,note_off,7,0,2,,,,,,,,,2,,,50,0
190567,note_off,7,0,5,,,,,,,,,5,,,47,0
191055,set_tempo,975,1,0,,,,,,480000,,,,,,,
192000,control_change,1440,0,1,,,,,,,64,0,1,,,,
192000,note_on,0,0,1,,,,,,,,,1,,,60,87
192000,set_tempo,945,1,0,,,,,,263157,,,,,,,
192000,control_change,48000,0,4,,,,,,,64,0,4,,,,
192000,control_change,1433,0,2,,,,,,,64,0,2,,,,
192000,control_change,11056,0,3,,,,,,,64,0,3,,,,
192000,note_on,0,0,5,,,,,,,,,5,,,48,87
192000,note_on,0,0,5,,,,,,,,,5,,,36,87
192000,control_change,1433,0,5,,,,,,,64,0,5,,,,
192625,note_off,0,0,5,,,,,,,,,5,,,36,0
192625,note_off,625,0,5,,,,,,,,,5,,,48,0
192625,note_off,625,0,1,,,,,,,,,1,,,60,0
192960,note_on,335,0,5,,,,,,,,,5,,,39,81
192960,note_on,0,0,5,,,,,,,,,5,,,51,81
192960,note_on,335,0,1,,,,,,,,,1,,,63,81
193200,note_off,240,0,1,,,,,,,,,1,,,63,0
193200,note_off,0,0,5,,,,,,,,,5,,,39,0
193200,note_off,240,0,5,,,,,,,,,5,,,51,0
193440,note_on,240,0,1,,,,,,,,,1,,,67,77
193440,note_on,240,0,5,,,,,,,,,5,,,43,77
193440,note_on,0,0,5,,,,,,,,,5,,,55,77
193680,note_off,0,0,5,,,,,,,,,5,,,43,0
193680,note_off,240,0,5,,,,,,,,,5,,,55,0
193680,note_off,240,0,1,,,,,,,,,1,,,67,0
193920,note_on,0,0,5,,,,,,,,,5,,,48,74
193920,note_on,240,0,5,,,,,,,,,5,,,60,74
193920,note_on,240,0,1,,,,,,,,,1,,,72,74
194160,note_off,0,0,5,,,,,,,,,5,,,60,0
194160,note_off,240,0,1,,,,,,,,,1,,,72,0
194160,note_off,240,0,5,,,,,,,,,5,,,48,0
194400,note_on,240,0,1,,,,,,,,,1,,,75,71
194400,note_on,240,0,5,,,,,,,,,5,,,63,71
194400,note_on,0,0,5,,,,,,,,,5,,,51,71
194640,note_off,240,0,1,,,,,,,,,1,,,75,0
194640,note_off,240,0,5,,,,,,,,,5,,,51,0
194640,note_off,0,0,5,,,,,,,,,5,,,63,0
194880,set_tempo,2880,1,0,,,,,,265486,,,,,,,
195240,note_on,600,0,1,,,,,,,,,1,,,75,53
195320,note_off,80,0,1,,,,,,,,,1,,,75,0
195360,note_on,40,0,1,,,,,,,,,1,,,75,55
195440,note_off,80,0,1,,,,,,,,,1,,,75,0
195440,note_on,0,0,1,,,,,,,,,1,,,77,57
195520,note_on,0,0,1,,,,,,,,,1,,,75,58
195520,note_off,80,0,1,,,,,,,,,1,,,77,0
195600,note_on,0,0,1,,,,,,,,,1,,,74,59
195600,note_off,80,0,1,,,,,,,,,1,,,75,0
195720,note_on,0,0,1,,,,,,,,,1,,,75,61
195720,note_off,120,0,1,,,,,,,,,1,,,74,0
195800,set_tempo,920,1,0,,,,,,266666,,,,,,,
195816,note_off,96,0,1,,,,,,,,,1,,,75,0
195840,note_on,24,0,1,,,,,,,,,1,,,79,62
195840,set_tempo,40,1,0,,,,,,265486,,,,,,,
196320,note_on,1680,0,5,,,,,,,,,5,,,63,59
196320,note_off,480,0,1,,,,,,,,,1,,,79,0
196320,note_on,4320,0,4,,,,,,,,,4,,,67,59
196320,note_on,0,0,4,,,,,,,,,4,,,72,59
196476,note_off,156,0,5,,,,,,,,,5,,,63,0
196476,note_off,0,0,4,,,,,,,,,4,,,67,0
196476,note_off,156,0,4,,,,,,,,,4,,,72,0
196800,note_on,324,0,5,,,,,,,,,5,,,63,54
196800,note_on,0,0,4,,,,,,,,,4,,,72,54
196800,note_on,324,0,4,,,,,,,,,4,,,67,54
196956,note_off,156,0,4,,,,,,,,,4,,,72,0
196956,note_off,156,0,5,,,,,,,,,5,,,63,0
196956,note_off,0,0,4,,,,,,,,,4,,,67,0
197280,note_on,324,0,5,,,,,,,,,5,,,63,49
197280,note_on,0,0,4,,,,,,,,,4,,,72,49
197280,note_on,324,0,4,,,,,,,,,4,,,67,49
197436,note_off,156,0,5,,,,,,,,,5,,,63,0
197436,note_off,156,0,4,,,,,,,,,4,,,72,0
197436,note_off,0,0,4,,,,,,,,,4,,,67,0
197625,set_tempo,1785,1,0,,,,,,266666,,,,,,,
197760,note_on,1440,0,1,,,,,,,,,1,,,80,54
198240,note_off,480,0,1,,,,,,,,,1,,,80,0
198240,note_on,804,0,5,,,,,,,,,5,,,62,48
198240,note_on,804,0,4,,,,,,,,,4,,,68,48
198240,note_on,0,0,4,,,,,,,,,4,,,65,48
198240,note_on,0,0,4,,,,,,,,,4,,,71,48
198396,note_off,156,0,4,,,,,,,,,4,,,71,0
198396,note_off,156,0,5,,,,,,,,,5,,,62,0
198396,note_off,0,0,4,,,,,,,,,4,,,68,0
198396,note_off,0,0,4,,,,,,,,,4,,,65,0
198720,note_on,324,0,4,,,,,,,,,4,,,68,41
198720,note_on,0,0,4,,,,,,,,,4,,,65,41
198720,note_on,0,0,4,,,,,,,,,4,,,71,41
198720,note_on,324,0,5,,,,,,,,,5,,,62,41
198876,note_off,156,0,4,,,,,,,,,4,,,71,0
198876,note_off,0,0,4,,,,,,,,,4,,,68,0
198876,note_off,0,0,4,,,,,,,,,4,,,65,0
198876,note_off,156,0,5,,,,,,,,,5,,,62,0
199215,set_tempo,1590,1,0,,,,,,269058,,,,,,,
199680,set_tempo,465,1,0,,,,,,263157,,,,,,,
199680,note_on,804,0,5,,,,,,,,,5,,,31,80
199680,note_on,1440,0,1,,,,,,,,,1,,,55,80
199680,note_on,0,0,5,,,,,,,,,5,,,43,80
200305,note_off,625,0,1,,,,,,,,,1,,,55,0
200305,note_off,0,0,5,,,,,,,,,5,,,31,0
200305,note_off,625,0,5,,,,,,,,,5,,,43,0
200640,note_on,335,0,1,,,,,,,,,1,,,59,74
200640,note_on,335,0,5,,,,,,,,,5,,,35,74
200640,note_on,0,0,5,,,,,,,,,5,,,47,74
200880,note_off,0,0,5,,,,,,,,,5,,,35,0
200880,note_off,240,0,5,,,,,,,,,5,,,47,0
200880,note_off,240,0,1,,,,,,,,,1,,,59,0
201120,note_on,240,0,5,,,,,,,,,5,,,38,71
201120,note_on,0,0,5,,,,,,,,,5,,,50,71
201120,note_on,240,0,1,,,,,,,,,1,,,62,71
201360,note_off,240,0,1,,,,,,,,,1,,,62,0
201360,note_off,0,0,5,,,,,,,,,5,,,38,0
201360,note_off,240,0,5,,,,,,,,,5,,,50,0
201600,note_on,240,0,1,,,,,,,,,1,,,67,68
201600,note_on,0,0,5,,,,,,,,,5,,,43,68
201600,note_on,240,0,5,,,,,,,,,5,,,55,68
201840,note_off,0,0,5,,,,,,,,,5,,,55,0
201840,note_off,240,0,1,,,,,,,,,1,,,67,0
201840,note_off,240,0,5,,,,,,,,,5,,,43,0
202080,note_on,240,0,5,,,,,,,,,5,,,59,66
202080,note_on,0,0,5,,,,,,,,,5,,,47,66
202080,note_on,240,0,1,,,,,,,,,1,,,71,66
202320,note_off,240,0,1,,,,,,,,,1,,,71,0
202320,note_off,240,0,5,,,,,,,,,5,,,47,0
202320,note_off,0,0,5,,,,,,,,,5,,,59,0
202560,set_tempo,2880,1,0,,,,,,265486,,,,,,,
202920,note_on,600,0,1,,,,,,,,,1,,,74,48
203015,note_off,95,0,1,,,,,,,,,1,,,74,0
203040,note_on,25,0,1,,,,,,,,,1,,,74,49
203120,note_on,0,0,1,,,,,,,,,1,,,75,51
203120,note_off,80,0,1,,,,,,,,,1,,,74,0
203200,note_off,80,0,1,,,,,,,,,1,,,75,0
203200,note_on,0,0,1,,,,,,,,,1,,,74,52
203280,note_off,80,0,1,,,,,,,,,1,,,74,0
203280,note_on,0,0,1,,,,,,,,,1,,,72,53
203400,note_off,120,0,1,,,,,,,,,1,,,72,0
203400,note_on,0,0,1,,,,,,,,,1,,,74,55
203480,set_tempo,920,1,0,,,,,,266666,,,,,,,
203496,note_off,96,0,1,,,,,,,,,1,,,74,0
203520,set_tempo,40,1,0,,,,,,265486,,,,,,,
203520,note_on,24,0,1,,,,,,,,,1,,,77,58
204000,note_on,5124,0,4,,,,,,,,,4,,,68,54
204000,note_on,1680,0,5,,,,,,,,,5,,,62,54
204000,note_off,480,0,1,,,,,,,,,1,,,77,0
204000,note_on,0,0,4,,,,,,,,,4,,,65,54
204000,note_on,0,0,4,,,,,,,,,4,,,71,54
204156,note_off,0,0,4,,,,,,,,,4,,,68,0
204156,note_off,0,0,4,,,,,,,,,4,,,65,0
204156,note_off,156,0,5,,,,,,,,,5,,,62,0
204156,note_off,156,0,4,,,,,,,,,4,,,71,0
204480,note_on,324,0,4,,,,,,,,,4,,,68,49
204480,note_on,324,0,5,,,,,,,,,5,,,62,49
204480,note_on,0,0,4,,,,,,,,,4,,,71,49
204480,note_on,0,0,4,,,,,,,,,4,,,65,49
204636,note_off,156,0,4,,,,,,,,,4,,,71,0
204636,note_off,0,0,4,,,,,,,,,4,,,65,0
204636,note_off,156,0,5,,,,,,,,,5,,,62,0
204636,note_off,0,0,4,,,,,,,,,4,,,68,0
204960,note_on,324,0,5,,,,,,,,,5,,,62,45
204960,note_on,324,0,4,,,,,,,,,4,,,68,45
204960,note_on,0,0,4,,,,,,,,,4,,,65,45
204960,note_on,0,0,4,,,,,,,,,4,,,71,45
205116,note_off,0,0,4,,,,,,,,,4,,,65,0
205116,note_off,0,0,4,,,,,,,,,4,,,68,0
205116,note_off,156,0,5,,,,,,,,,5,,,62,0
205116,note_off,156,0,4,,,,,,,,,4,,,71,0
205335,set_tempo,1815,1,0,,,,,,266666,,,,,,,
205440,note_on,1440,0,1,,,,,,,,,1,,,79,50
205920,note_off,480,0,1,,,,,,,,,1,,,79,0
205920,note_on,804,0,5,,,,,,,,,5,,,63,43
205920,note_on,0,0,4,,,,,,,,,4,,,72,43
205920,note_on,804,0,4,,,,,,,,,4,,,67,43
206076,note_off,156,0,4,,,,,,,,,4,,,72,0
206076,note_off,156,0,5,,,,,,,,,5,,,63,0
206076,note_off,0,0,4,,,,,,,,,4,,,67,0
206400,note_on,0,0,4,,,,,,,,,4,,,72,37
206400,note_on,324,0,5,,,,,,,,,5,,,63,37
206400,note_on,324,0,4,,,,,,,,,4,,,67,37
206556,note_off,0,0,4,,,,,,,,,4,,,67,0
206556,note_off,156,0,5,,,,,,,,,5,,,63,0
206556,note_off,156,0,4,,,,,,,,,4,,,72,0
206865,set_tempo,1530,1,0,,,,,,273972,,,,,,,
207360,note_on,1440,0,1,,,,,,,,,1,,,67,53
207360,note_on,804,0,5,,,,,,,,,5,,,43,53
207360,set_tempo,495,1,0,,,,,,256410,,,,,,,
207600,note_on,15600,0,3,,,,,,,,,3,,,55,49
207720,note_off,360,0,5,,,,,,,,,5,,,43,0
207790,note_off,190,0,3,,,,,,,,,3,,,55,0
207840,note_on,120,0,5,,,,,,,,,5,,,43,46
208080,note_on,290,0,3,,,,,,,,,3,,,55,42
208200,note_off,360,0,5,,,,,,,,,5,,,43,0
208270,note_off,190,0,3,,,,,,,,,3,,,55,0
208320,note_on,120,0,5,,,,,,,,,5,,,43,43
208560,note_on,290,0,3,,,,,,,,,3,,,55,45
208680,note_off,360,0,5,,,,,,,,,5,,,43,0
208740,note_off,1380,0,1,,,,,,,,,1,,,67,0
208750,note_off,190,0,3,,,,,,,,,3,,,55,0
208800,note_on,120,0,5,,,,,,,,,5,,,43,47
208800,note_on,16800,0,2,,,,,,,,,2,,,67,47
208800,note_on,60,0,1,,,,,,,,,1,,,75,47
209040,note_on,290,0,3,,,,,,,,,3,,,55,49
209160,note_off,360,0,5,,,,,,,,,5,,,43,0
209230,note_off,190,0,3,,,,,,,,,3,,,55,0
209280,note_off,480,0,2,,,,,,,,,2,,,67,0
209280,note_on,0,0,2,,,,,,,,,2,,,66,51
209280,note_on,120,0,5,,,,,,,,,5,,,43,51
209520,note_on,290,0,3,,,,,,,,,3,,,55,54
209640,note_off,360,0,5,,,,,,,,,5,,,43,0
209710,note_off,190,0,3,,,,,,,,,3,,,55,0
209760,note_on,0,0,1,,,,,,,,,1,,,74,56
209760,note_off,960,0,1,,,,,,,,,1,,,75,0
209760,note_on,120,0,5,,,,,,,,,5,,,43,56
209760,note_on,0,0,2,,,,,,,,,2,,,65,56
209760,note_off,480,0,2,,,,,,,,,2,,,66,0
210000,note_on,290,0,3,,,,,,,,,3,,,55,58
210120,note_off,360,0,5,,,,,,,,,5,,,43,0
210190,note_off,190,0,3,,,,,,,,,3,,,55,0
210240,note_off,480,0,2,,,,,,,,,2,,,65,0
210240,note_on,120,0,5,,,,,,,,,5,,,43,60
210240,note_on,0,0,2,,,,,,,,,2,,,64,60
210480,note_on,290,0,3,,,,,,,,,3,,,55,63
210600,note_off,360,0,5,,,,,,,,,5,,,43,0
210670,note_off,190,0,3,,,,,,,,,3,,,55,0
210720,note_on,0,0,1,,,,,,,,,1,,,72,65
210720,note_off,960,0,1,,,,,,,,,1,,,74,0
210720,note_off,480,0,2,,,,,,,,,2,,,64,0
210720,note_on,0,0,2,,,,,,,,,2,,,63,65
210720,note_on,120,0,5,,,,,,,,,5,,,43,65
210960,note_on,290,0,3,,,,,,,,,3,,,55,67
211080,note_off,360,0,5,,,,,,,,,5,,,43,0
211150,note_off,190,0,3,,,,,,,,,3,,,55,0
211200,note_off,480,0,2,,,,,,,,,2,,,63,0
211200,note_on,0,0,2,,,,,,,,,2,,,62,68
211200,note_on,120,0,5,,,,,,,,,5,,,43,68
211440,note_on,290,0,3,,,,,,,,,3,,,55,60
211560,note_off,360,0,5,,,,,,,,,5,,,43,0
211630,note_off,190,0,3,,,,,,,,,3,,,55,0
211680,note_on,0,0,1,,,,,,,,,1,,,71,52
211680,note_off,960,0,1,,,,,,,,,1,,,72,0
211680,note_on,120,0,5,,,,,,,,,5,,,43,52
211920,note_on,290,0,3,,,,,,,,,3,,,55,46
212040,note_off,360,0,5,,,,,,,,,5,,,43,0
212040,note_off,840,0,2,,,,,,,,,2,,,62,0
212040,note_off,360,0,1,,,,,,,,,1,,,71,0
212110,note_off,190,0,3,,,,,,,,,3,,,55,0
212160,note_on,120,0,5,,,,,,,,,5,,,43,48
212400,note_on,290,0,3,,,,,,,,,3,,,55,50
212520,note_off,360,0,5,,,,,,,,,5,,,43,0
212590,note_off,190,0,3,,,,,,,,,3,,,55,0
212640,note_on,600,0,1,,,,,,,,,1,,,79,52
212640,note_on,120,0,5,,,,,,,,,5,,,43,52
212640,note_on,600,0,2,,,,,,,,,2,,,75,52
212880,note_on,290,0,3,,,,,,,,,3,,,55,54
213000,note_off,360,0,5,,,,,,,,,5,,,43,0
213070,note_off,190,0,3,,,,,,,,,3,,,55,0
213120,note_off,480,0,1,,,,,,,,,1,,,79,0
213120,note_on,0,0,1,,,,,,,,,1,,,78,57
213120,note_on,120,0,5,,,,,,,,,5,,,43,57
213360,note_on,290,0,3,,,,,,,,,3,,,55,59
213480,note_off,360,0,5,,,,,,,,,5,,,43,0
213550,note_off,190,0,3,,,,,,,,,3,,,55,0
213600,note_on,120,0,5,,,,,,,,,5,,,43,61
213600,note_off,480,0,1,,,,,,,,,1,,,78,0
213600,note_on,0,0,1,,,,,,,,,1,,,77,61
213600,note_off,960,0,2,,,,,,,,,2,,,75,0
213600,note_on,0,0,2,,,,,,,,,2,,,74,61
213840,note_on,290,0,3,,,,,,,,,3,,,55,63
213960,note_off,360,0,5,,,,,,,,,5,,,43,0
214030,note_off,190,0,3,,,,,,,,,3,,,55,0
214080,note_on,0,0,1,,,,,,,,,1,,,76,66
214080,note_off,480,0,1,,,,,,,,,1,,,77,0
214080,note_on,120,0,5,,,,,,,,,5,,,43,66
214320,note_on,290,0,3,,,,,,,,,3,,,55,68
214440,note_off,360,0,5,,,,,,,,,5,,,43,0
214510,note_off,190,0,3,,,,,,,,,3,,,55,0
214560,note_on,120,0,5,,,,,,,,,5,,,43,70
214560,note_off,960,0,2,,,,,,,,,2,,,74,0
214560,note_on,0,0,1,,,,,,,,,1,,,75,70
214560,note_on,0,0,2,,,,,,,,,2,,,72,70
214560,note_off,480,0,1,,,,,,,,,1,,,76,0
214800,note_on,290,0,3,,,,,,,,,3,,,55,72
214920,note_off,360,0,5,,,,,,,,,5,,,43,0
214990,note_off,190,0,3,,,,,,,,,3,,,55,0
215040,note_on,120,0,5,,,,,,,,,5,,,43,74
215040,note_on,0,0,1,,,,,,,,,1,,,74,74
215040,note_off,480,0,1,,,,,,,,,1,,,75,0
215280,note_on,290,0,3,,,,,,,,,3,,,55,66
215470,note_off,190,0,3,,,,,,,,,3,,,55,0
215520,note_on,50,0,3,,,,,,,,,3,,,55,59
215520,note_off,960,0,2,,,,,,,,,2,,,72,0
215520,note_on,0,0,2,,,,,,,,,2,,,71,59
215710,note_off,190,0,3,,,,,,,,,3,,,55,0
215760,note_on,50,0,3,,,,,,,,,3,,,55,52
215760,note_off,720,0,5,,,,,,,,,5,,,43,0
215880,note_off,840,0,1,,,,,,,,,1,,,74,0
215887,note_off,367,0,2,,,,,,,,,2,,,71,0
215950,note_off,190,0,3,,,,,,,,,3,,,55,0
216000,note_on,240,0,5,,,,,,,,,5,,,41,54
216240,note_on,290,0,3,,,,,,,,,3,,,53,56
216430,note_off,190,0,3,,,,,,,,,3,,,53,0
216480,note_on,0,0,2,,,,,,,,,2,,,74,57
216480,note_on,50,0,3,,,,,,,,,3,,,53,57
216480,note_on,600,0,1,,,,,,,,,1,,,80,57
216480,note_on,593,0,2,,,,,,,,,2,,,71,57
216670,note_off,190,0,3,,,,,,,,,3,,,53,0
216720,note_on,50,0,3,,,,,,,,,3,,,53,59
216720,note_off,720,0,5,,,,,,,,,5,,,41,0
216910,note_off,190,0,3,,,,,,,,,3,,,53,0
216960,note_on,240,0,5,,,,,,,,,5,,,39,60
217200,note_on,290,0,3,,,,,,,,,3,,,51,62
217390,note_off,190,0,3,,,,,,,,,3,,,51,0
217440,note_off,960,0,2,,,,,,,,,2,,,74,0
217440,note_off,0,0,2,,,,,,,,,2,,,71,0
217440,note_on,0,0,2,,,,,,,,,2,,,75,63
217440,note_on,0,0,2,,,,,,,,,2,,,72,63
217440,note_off,960,0,1,,,,,,,,,1,,,80,0
217440,note_on,50,0,3,,,,,,,,,3,,,51,63
217440,note_on,0,0,1,,,,,,,,,1,,,79,63
217630,note_off,190,0,3,,,,,,,,,3,,,51,0
217680,note_on,50,0,3,,,,,,,,,3,,,51,65
217680,note_off,720,0,5,,,,,,,,,5,,,39,0
217800,note_off,360,0,1,,,,,,,,,1,,,79,0
217800,note_off,0,0,2,,,,,,,,,2,,,75,0
217800,note_off,360,0,2,,,,,,,,,2,,,72,0
217870,note_off,190,0,3,,,,,,,,,3,,,51,0
217920,note_on,240,0,5,,,,,,,,,5,,,35,66
218160,note_on,290,0,3,,,,,,,,,3,,,47,68
218280,note_on,480,0,1,,,,,,,,,1,,,67,69
218350,note_off,190,0,3,,,,,,,,,3,,,47,0
218400,note_on,50,0,3,,,,,,,,,3,,,47,69
218400,note_off,120,0,1,,,,,,,,,1,,,67,0
218400,note_on,0,0,1,,,,,,,,,1,,,74,69
218590,note_off,190,0,3,,,,,,,,,3,,,47,0
218640,note_on,50,0,3,,,,,,,,,3,,,47,71
218640,note_off,720,0,5,,,,,,,,,5,,,35,0
218760,note_off,360,0,1,,,,,,,,,1,,,74,0
218760,note_on,0,0,1,,,,,,,,,1,,,77,72
218830,note_off,190,0,3,,,,,,,,,3,,,47,0
218856,note_off,96,0,1,,,,,,,,,1,,,77,0
218880,note_on,240,0,5,,,,,,,,,5,,,36,72
218880,note_on,24,0,1,,,,,,,,,1,,,75,67
218940,note_on,0,0,1,,,,,,,,,1,,,77,68
218940,note_off,60,0,1,,,,,,,,,1,,,75,0
219000,note_on,0,0,1,,,,,,,,,1,,,75,69
219000,note_off,60,0,1,,,,,,,,,1,,,77,0
219060,note_on,0,0,1,,,,,,,,,1,,,74,71
219060,note_off,60,0,1,,,,,,,,,1,,,75,0
219120,note_on,0,0,1,,,,,,,,,1,,,75,72
219120,note_off,60,0,1,,,,,,,,,1,,,74,0
219120,note_on,290,0,3,,,,,,,,,3,,,48,74
219240,note_off,120,0,1,,,,,,,,,1,,,75,0
219240,note_on,0,0,1,,,,,,,,,1,,,77,74
219310,note_off,190,0,3,,,,,,,,,3,,,48,0
219360,note_on,0,0,1,,,,,,,,,1,,,79,77
219360,note_off,120,0,1,,,,,,,,,1,,,77,0
219360,note_on,50,0,3,,,,,,,,,3,,,48,76
219550,note_off,190,0,3,,,,,,,,,3,,,48,0
219600,note_on,50,0,3,,,,,,,,,3,,,48,77
219600,note_off,720,0,5,,,,,,,,,5,,,36,0
219790,note_off,190,0,3,,,,,,,,,3,,,48,0
219840,note_off,480,0,1,,,,,,,,,1,,,79,0
219840,note_on,240,0,5,,,,,,,,,5,,,41,79
220080,note_on,290,0,3,,,,,,,,,3,,,53,80
220270,note_off,190,0,3,,,,,,,,,3,,,53,0
220320,note_on,50,0,3,,,,,,,,,3,,,53,82
220320,note_on,0,0,2,,,,,,,,,2,,,71,82
220320,note_on,2520,0,2,,,,,,,,,2,,,74,82
220320,note_on,480,0,1,,,,,,,,,1,,,80,82
220510,note_off,190,0,3,,,,,,,,,3,,,53,0
220560,note_off,720,0,5,,,,,,,,,5,,,41,0
220560,note_on,50,0,3,,,,,,,,,3,,,53,83
220750,note_off,190,0,3,,,,,,,,,3,,,53,0
220800,note_on,240,0,5,,,,,,,,,5,,,39,85
221040,note_on,290,0,3,,,,,,,,,3,,,51,86
221230,note_off,190,0,3,,,,,,,,,3,,,51,0
221280,note_on,50,0,3,,,,,,,,,3,,,51,88
221280,note_on,0,0,1,,,,,,,,,1,,,79,88
221280,note_on,0,0,2,,,,,,,,,2,,,75,88
221280,note_on,0,0,2,,,,,,,,,2,,,72,88
221280,note_off,0,0,2,,,,,,,,,2,,,74,0
221280,note_off,960,0,2,,,,,,,,,2,,,71,0
221280,note_off,960,0,1,,,,,,,,,1,,,80,0
221470,note_off,190,0,3,,,,,,,,,3,,,51,0
221520,note_on,50,0,3,,,,,,,,,3,,,51,89
221520,note_off,720,0,5,,,,,,,,,5,,,39,0
221640,set_tempo,14280,1,0,,,,,,258620,,,,,,,
221640,note_off,360,0,1,,,,,,,,,1,,,79,0
221640,note_off,0,0,2,,,,,,,,,2,,,72,0
221640,note_off,360,0,2,,,,,,,,,2,,,75,0
221710,note_off,190,0,3,,,,,,,,,3,,,51,0
221760,note_on,240,0,5,,,,,,,,,5,,,38,91
222000,note_on,290,0,3,,,,,,,,,3,,,50,92
222120,note_on,480,0,1,,,,,,,,,1,,,77,93
222190,note_off,190,0,3,,,,,,,,,3,,,50,0
222240,note_off,120,0,1,,,,,,,,,1,,,77,0
222240,note_on,0,0,1,,,,,,,,,1,,,86,94
222240,note_on,50,0,3,,,,,,,,,3,,,50,94
222430,note_off,190,0,3,,,,,,,,,3,,,50,0
222480,note_off,720,0,5,,,,,,,,,5,,,38,0
222480,note_on,50,0,3,,,,,,,,,3,,,50,96
222600,note_off,360,0,1,,,,,,,,,1,,,86,0
222600,note_on,0,0,1,,,,,,,,,1,,,89,96
222645,set_tempo,1005,1,0,,,,,,260869,,,,,,,
222670,note_off,190,0,3,,,,,,,,,3,,,50,0
222720,note_on,240,0,5,,,,,,,,,5,,,48,97
222720,note_off,120,0,1,,,,,,,,,1,,,89,0
222720,note_on,0,0,1,,,,,,,,,1,,,87,97
222910,note_off,190,0,1,,,,,,,,,1,,,87,0
222960,note_on,1320,0,2,,,,,,,,,2,,,79,93
223080,note_off,360,0,5,,,,,,,,,5,,,48,0
223200,note_off,240,0,2,,,,,,,,,2,,,79,0
223200,note_on,0,0,2,,,,,,,,,2,,,84,92
223440,note_off,240,0,2,,,,,,,,,2,,,84,0
223440,note_on,0,0,2,,,,,,,,,2,,,75,90
223632,note_off,192,0,2,,,,,,,,,2,,,75,0
223680,note_on,600,0,5,,,,,,,,,5,,,53,88
223920,note_on,288,0,2,,,,,,,,,2,,,77,86
224040,note_off,360,0,5,,,,,,,,,5,,,53,0
224160,note_off,240,0,2,,,,,,,,,2,,,77,0
224160,note_on,0,0,2,,,,,,,,,2,,,80,84
224400,note_on,0,0,2,,,,,,,,,2,,,74,83
224400,note_off,240,0,2,,,,,,,,,2,,,80,0
224592,note_off,192,0,2,,,,,,,,,2,,,74,0
224640,note_on,600,0,5,,,,,,,,,5,,,55,81
224880,note_on,288,0,2,,,,,,,,,2,,,75,79
225000,note_off,360,0,5,,,,,,,,,5,,,55,0
225120,note_on,0,0,2,,,,,,,,,2,,,79,77
225120,note_off,240,0,2,,,,,,,,,2,,,75,0
225360,note_off,240,0,2,,,,,,,,,2,,,79,0
225360,note_on,0,0,2,,,,,,,,,2,,,72,76
225510,set_tempo,2865,1,0,,,,,,263157,,,,,,,
225552,note_off,192,0,2,,,,,,,,,2,,,72,0
225600,note_on,600,0,5,,,,,,,,,5,,,43,74
225840,note_on,288,0,2,,,,,,,,,2,,,74,72
225960,note_off,360,0,5,,,,,,,,,5,,,43,0
226080,note_off,240,0,2,,,,,,,,,2,,,74,0
226080,note_on,0,0,2,,,,,,,,,2,,,77,70
226320,note_off,240,0,2,,,,,,,,,2,,,77,0
226320,note_on,0,0,2,,,,,,,,,2,,,71,68
226440,set_tempo,930,1,0,,,,,,344827,,,,,,,
226512,note_off,192,0,2,,,,,,,,,2,,,71,0
226560,control_change,20004,0,4,,,,,,,64,0,4,,,,
226560,control_change,600,0,5,,,,,,,64,0,5,,,,
226560,note_on,0,0,1,,,,,,,,,1,,,72,97
226560,control_change,3890,0,3,,,,,,,64,0,3,,,,
226560,control_change,48,0,2,,,,,,,64,0,2,,,,
226560,control_change,3650,0,1,,,,,,,64,0,1,,,,
226560,set_tempo,120,1,0,,,,,,263157,,,,,,,
227185,note_off,625,0,1,,,,,,,,,1,,,72,0
227520,note_on,960,0,5,,,,,,,,,5,,,60,100
227520,note_on,335,0,1,,,,,,,,,1,,,75,93
227760,note_off,240,0,1,,,,,,,,,1,,,75,0
228000,note_on,240,0,1,,,,,,,,,1,,,79,91
228145,note_off,625,0,5,,,,,,,,,5,,,60,0
228240,note_off,240,0,1,,,,,,,,,1,,,79,0
228480,note_on,335,0,5,,,,,,,,,5,,,63,93
228480,note_on,240,0,1,,,,,,,,,1,,,84,89
228720,note_off,240,0,5,,,,,,,,,5,,,63,0
228720,note_off,240,0,1,,,,,,,,,1,,,84,0
228960,note_on,240,0,5,,,,,,,,,5,,,67,89
228960,note_on,240,0,1,,,,,,,,,1,,,87,87
229200,note_off,240,0,5,,,,,,,,,5,,,67,0
229200,note_off,240,0,1,,,,,,,,,1,,,87,0
229440,note_on,0,0,5,,,,,,,,,5,,,44,92
229440,note_on,240,0,1,,,,,,,,,1,,,80,88
229440,note_on,2880,0,2,,,,,,,,,2,,,72,88
229440,note_on,240,0,5,,,,,,,,,5,,,32,92
229680,note_off,240,0,2,,,,,,,,,2,,,72,0
229680,note_off,240,0,1,,,,,,,,,1,,,80,0
229920,note_on,240,0,2,,,,,,,,,2,,,75,86
229920,note_on,240,0,1,,,,,,,,,1,,,84,86
230065,note_off,625,0,5,,,,,,,,,5,,,44,0
230065,note_off,0,0,5,,,,,,,,,5,,,32,0
230160,note_off,240,0,2,,,,,,,,,2,,,75,0
230160,note_off,240,0,1,,,,,,,,,1,,,84,0
230400,note_on,335,0,5,,,,,,,,,5,,,36,86
230400,note_on,0,0,5,,,,,,,,,5,,,48,86
230400,note_on,240,0,1,,,,,,,,,1,,,77,84
230400,note_on,240,0,2,,,,,,,,,2,,,68,84
230640,note_off,240,0,2,,,,,,,,,2,,,68,0
230640,note_off,0,0,5,,,,,,,,,5,,,36,0
230640,note_off,240,0,5,,,,,,,,,5,,,48,0
230640,note_off,240,0,1,,,,,,,,,1,,,77,0
230880,note_on,240,0,5,,,,,,,,,5,,,53,82
230880,note_on,240,0,2,,,,,,,,,2,,,72,82
230880,note_on,0,0,5,,,,,,,,,5,,,41,82
230880,note_on,240,0,1,,,,,,,,,1,,,80,82
231120,note_off,240,0,2,,,,,,,,,2,,,72,0
231120,note_off,240,0,1,,,,,,,,,1,,,80,0
231120,note_off,240,0,5,,,,,,,,,5,,,41,0
231120,note_off,0,0,5,,,,,,,,,5,,,53,0
231360,note_on,240,0,1,,,,,,,,,1,,,73,80
231360,note_on,240,0,2,,,,,,,,,2,,,65,80
231360,note_on,0,0,5,,,,,,,,,5,,,44,79
231360,note_on,240,0,5,,,,,,,,,5,,,56,79
231600,note_off,240,0,1,,,,,,,,,1,,,73,0
231600,note_off,240,0,2,,,,,,,,,2,,,65,0
231840,note_on,240,0,2,,,,,,,,,2,,,68,78
231840,note_on,240,0,1,,,,,,,,,1,,,77,78
231985,note_off,0,0,5,,,,,,,,,5,,,56,0
231985,note_off,625,0,5,,,,,,,,,5,,,44,0
232080,note_off,240,0,1,,,,,,,,,1,,,77,0
232080,note_off,240,0,2,,,,,,,,,2,,,68,0
232260,set_tempo,5700,1,0,,,,,,269058,,,,,,,
232320,note_on,240,0,1,,,,,,,,,1,,,72,65
232320,set_tempo,60,1,0,,,,,,256410,,,,,,,
232560,note_on,6000,0,3,,,,,,,,,3,,,66,65
232800,note_on,0,0,3,,,,,,,,,3,,,63,64
232800,note_off,240,0,3,,,,,,,,,3,,,66,0
233040,note_off,240,0,3,,,,,,,,,3,,,63,0
233040,note_on,0,0,3,,,,,,,,,3,,,66,64
233280,note_on,1295,0,5,,,,,,,,,5,,,56,63
233280,note_off,240,0,3,,,,,,,,,3,,,66,0
233520,note_on,240,0,3,,,,,,,,,3,,,66,63
233760,note_off,240,0,3,,,,,,,,,3,,,66,0
233760,note_on,0,0,3,,,,,,,,,3,,,63,63
233760,note_off,1440,0,1,,,,,,,,,1,,,72,0
233760,note_on,0,0,1,,,,,,,,,1,,,80,68
234000,note_off,720,0,5,,,,,,,,,5,,,56,0
234000,note_on,0,0,3,,,,,,,,,3,,,66,62
234000,note_off,240,0,3,,,,,,,,,3,,,63,0
234120,note_off,360,0,1,,,,,,,,,1,,,80,0
234192,note_off,192,0,3,,,,,,,,,3,,,66,0
234240,note_on,240,0,5,,,,,,,,,5,,,56,62
234240,note_on,120,0,1,,,,,,,,,1,,,80,75
234480,note_on,288,0,3,,,,,,,,,3,,,65,61
234720,note_off,240,0,3,,,,,,,,,3,,,65,0
234720,note_on,0,0,3,,,,,,,,,3,,,61,61
234960,note_off,720,0,5,,,,,,,,,5,,,56,0
234960,note_on,0,0,1,,,,,,,,,1,,,77,65
234960,note_off,720,0,1,,,,,,,,,1,,,80,0
234960,note_off,240,0,3,,,,,,,,,3,,,61,0
234960,note_on,0,0,3,,,,,,,,,3,,,65,61
235200,note_off,240,0,1,,,,,,,,,1,,,77,0
235200,note_on,240,0,5,,,,,,,,,5,,,56,60
235200,note_on,0,0,1,,,,,,,,,1,,,73,62
235200,note_off,240,0,3,,,,,,,,,3,,,65,0
235440,note_on,240,0,3,,,,,,,,,3,,,65,60
235560,note_off,360,0,1,,,,,,,,,1,,,73,0
235680,note_off,240,0,3,,,,,,,,,3,,,65,0
235680,note_on,0,0,3,,,,,,,,,3,,,61,59
235920,note_off,240,0,3,,,,,,,,,3,,,61,0
235920,note_on,0,0,3,,,,,,,,,3,,,65,59
235920,note_off,720,0,5,,,,,,,,,5,,,56,0
236112,note_off,192,0,3,,,,,,,,,3,,,65,0
236120,set_tempo,3800,1,0,,,,,,258620,,,,,,,
236160,note_on,240,0,5,,,,,,,,,5,,,56,58
236160,note_on,600,0,1,,,,,,,,,1,,,72,58
236160,set_tempo,40,1,0,,,,,,256410,,,,,,,
236400,note_on,288,0,3,,,,,,,,,3,,,66,58
236640,note_off,240,0,3,,,,,,,,,3,,,66,0
236640,note_on,0,0,3,,,,,,,,,3,,,63,58
236880,note_off,720,0,5,,,,,,,,,5,,,56,0
236880,note_off,240,0,3,,,,,,,,,3,,,63,0
236880,note_on,0,0,3,,,,,,,,,3,,,66,57
237120,note_on,240,0,5,,,,,,,,,5,,,56,57
237120,note_off,240,0,3,,,,,,,,,3,,,66,0
237360,note_on,0,0,1,,,,,,,,,1,,,80,62
237360,note_on,240,0,3,,,,,,,,,3,,,66,56
237360,note_off,1200,0,1,,,,,,,,,1,,,72,0
237600,note_off,240,0,1,,,,,,,,,1,,,80,0
237600,note_off,240,0,3,,,,,,,,,3,,,66,0
237600,note_on,0,0,1,,,,,,,,,1,,,82,63
237600,note_on,0,0,3,,,,,,,,,3,,,63,56
237840,note_on,0,0,3,,,,,,,,,3,,,66,55
237840,note_off,720,0,5,,,,,,,,,5,,,56,0
237840,note_off,240,0,3,,,,,,,,,3,,,63,0
237840,note_on,0,0,1,,,,,,,,,1,,,80,64
237840,note_off,240,0,1,,,,,,,,,1,,,82,0
238032,note_off,192,0,3,,,,,,,,,3,,,66,0
238032,note_off,192,0,1,,,,,,,,,1,,,80,0
238080,note_on,240,0,5,,,,,,,,,5,,,56,55
238080,note_on,48,0,1,,,,,,,,,1,,,80,67
238320,note_on,288,0,3,,,,,,,,,3,,,65,55
238560,note_on,0,0,3,,,,,,,,,3,,,61,54
238560,note_off,240,0,3,,,,,,,,,3,,,65,0
238800,note_on,0,0,3,,,,,,,,,3,,,65,54
238800,note_off,720,0,5,,,,,,,,,5,,,56,0
238800,note_off,720,0,1,,,,,,,,,1,,,80,0
238800,note_on,0,0,1,,,,,,,,,1,,,77,58
238800,note_off,240,0,3,,,,,,,,,3,,,61,0
239040,note_off,240,0,3,,,,,,,,,3,,,65,0
239040,note_off,240,0,1,,,,,,,,,1,,,77,0
239040,note_on,0,0,1,,,,,,,,,1,,,73,56
239040,note_on,240,0,5,,,,,,,,,5,,,56,53
239280,note_on,240,0,3,,,,,,,,,3,,,65,53
239407,note_off,367,0,1,,,,,,,,,1,,,73,0
239520,note_on,113,0,1,,,,,,,,,1,,,73,52
239520,note_off,240,0,3,,,,,,,,,3,,,65,0
239520,note_on,0,0,3,,,,,,,,,3,,,61,52
239760,note_off,720,0,5,,,,,,,,,5,,,56,0
239760,note_on,0,0,3,,,,,,,,,3,,,65,52
239760,note_off,240,0,3,,,,,,,,,3,,,61,0
239952,note_off,192,0,3,,,,,,,,,3,,,65,0
239960,set_tempo,3800,1,0,,,,,,258620,,,,,,,
240000,note_on,240,0,5,,,,,,,,,5,,,57,52
240000,note_on,0,0,3,,,,,,,,,3,,,66,52
240000,note_on,0,0,3,,,,,,,,,3,,,63,52
240000,set_tempo,40,1,0,,,,,,256410,,,,,,,
240000,note_on,48,0,3,,,,,,,,,3,,,60,52
240240,note_on,720,0,1,,,,,,,,,1,,,71,51
240247,note_off,7,0,1,,,,,,,,,1,,,73,0
240480,note_off,233,0,1,,,,,,,,,1,,,71,0
240480,note_on,0,0,1,,,,,,,,,1,,,72,51
240720,note_on,0,0,1,,,,,,,,,1,,,74,50
240720,note_off,240,0,1,,,,,,,,,1,,,72,0
240960,note_on,0,0,1,,,,,,,,,1,,,77,50
240960,note_off,240,0,1,,,,,,,,,1,,,74,0
241200,note_off,240,0,1,,,,,,,,,1,,,77,0
241200,note_on,0,0,1,,,,,,,,,1,,,75,50
241440,note_on,0,0,1,,,,,,,,,1,,,74,49
241440,note_off,240,0,1,,,,,,,,,1,,,75,0
241680,note_on,0,0,1,,,,,,,,,1,,,72,49
241680,note_off,240,0,1,,,,,,,,,1,,,74,0
241880,set_tempo,1880,1,0,,,,,,258620,,,,,,,
241920,note_off,1920,0,5,,,,,,,,,5,,,57,0
241920,note_off,0,0,3,,,,,,,,,3,,,60,0
241920,note_off,0,0,3,,,,,,,,,3,,,63,0
241920,note_on,0,0,1,,,,,,,,,1,,,79,48
241920,note_off,240,0,1,,,,,,,,,1,,,72,0
241920,note_off,1920,0,3,,,,,,,,,3,,,66,0
242280,note_off,360,0,1,,,,,,,,,1,,,79,0
242400,note_on,15840,0,4,,,,,,,,,4,,,59,47
242400,note_on,480,0,5,,,,,,,,,5,,,55,47
242880,note_off,480,0,5,,,,,,,,,5,,,55,0
242880,note_off,480,0,4,,,,,,,,,4,,,59,0
242880,note_on,0,0,4,,,,,,,,,4,,,60,47
242880,note_on,0,0,5,,,,,,,,,5,,,56,47
242880,set_tempo,1000,1,0,,,,,,259740,,,,,,,
243240,note_off,360,0,4,,,,,,,,,4,,,60,0
243240,note_off,360,0,5,,,,,,,,,5,,,56,0
243360,note_on,1080,0,1,,,,,,,,,1,,,72,46
243552,note_off,192,0,1,,,,,,,,,1,,,72,0
243600,note_on,48,0,1,,,,,,,,,1,,,72,45
243840,note_on,0,0,1,,,,,,,,,1,,,79,45
243840,note_off,240,0,1,,,,,,,,,1,,,72,0
244200,note_off,360,0,1,,,,,,,,,1,,,79,0
244320,note_on,1080,0,4,,,,,,,,,4,,,59,44
244320,note_on,1080,0,5,,,,,,,,,5,,,55,44
244800,note_on,0,0,5,,,,,,,,,5,,,56,43
244800,note_off,480,0,4,,,,,,,,,4,,,59,0
244800,note_on,0,0,4,,,,,,,,,4,,,60,43
244800,note_off,480,0,5,,,,,,,,,5,,,55,0
244800,set_tempo,1920,1,0,,,,,,260869,,,,,,,
245160,note_off,360,0,4,,,,,,,,,4,,,60,0
245167,note_off,367,0,5,,,,,,,,,5,,,56,0
245280,note_on,1080,0,1,,,,,,,,,1,,,72,42
245472,note_off,192,0,1,,,,,,,,,1,,,72,0
245520,note_on,48,0,1,,,,,,,,,1,,,72,42
245760,note_on,593,0,5,,,,,,,,,5,,,55,42
245760,note_on,0,0,1,,,,,,,,,1,,,79,42
245760,note_on,600,0,4,,,,,,,,,4,,,59,42
245760,note_off,240,0,1,,,,,,,,,1,,,72,0
246145,note_off,385,0,1,,,,,,,,,1,,,79,0
246240,note_on,95,0,1,,,,,,,,,1,,,72,41
246240,note_on,0,0,4,,,,,,,,,4,,,60,41
246240,note_off,480,0,4,,,,,,,,,4,,,59,0
246240,note_on,0,0,5,,,,,,,,,5,,,56,41
246240,note_off,480,0,5,,,,,,,,,5,,,55,0
246432,note_off,192,0,1,,,,,,,,,1,,,72,0
246480,note_on,48,0,1,,,,,,,,,1,,,72,40
246720,note_on,0,0,1,,,,,,,,,1,,,79,40
246720,note_off,480,0,4,,,,,,,,,4,,,60,0
246720,note_off,480,0,5,,,,,,,,,5,,,56,0
246720,note_off,240,0,1,,,,,,,,,1,,,72,0
246720,note_on,0,0,5,,,,,,,,,5,,,55,40
246720,note_on,0,0,4,,,,,,,,,4,,,59,40
247105,note_off,385,0,1,,,,,,,,,1,,,79,0
247200,note_on,0,0,5,,,,,,,,,5,,,56,39
247200,note_on,95,0,1,,,,,,,,,1,,,72,39
247200,note_on,0,0,4,,,,,,,,,4,,,60,39
247200,note_off,480,0,4,,,,,,,,,4,,,59,0
247200,note_off,480,0,5,,,,,,,,,5,,,55,0
247392,note_off,192,0,1,,,,,,,,,1,,,72,0
247440,note_on,48,0,1,,,,,,,,,1,,,72,39
247575,set_tempo,2775,1,0,,,,,,262008,,,,,,,
247680,note_off,480,0,5,,,,,,,,,5,,,56,0
247680,set_tempo,105,1,0,,,,,,263157,,,,,,,
247680,note_on,0,0,4,,,,,,,,,4,,,59,38
247680,note_off,480,0,4,,,,,,,,,4,,,60,0
247680,note_on,0,0,1,,,,,,,,,1,,,79,38
247680,note_off,240,0,1,,,,,,,,,1,,,72,0
247680,note_on,0,0,5,,,,,,,,,5,,,55,38
248047,note_off,367,0,5,,,,,,,,,5,,,55,0
248047,note_off,367,0,4,,,,,,,,,4,,,59,0
248065,note_off,385,0,1,,,,,,,,,1,,,79,0
248160,note_on,95,0,1,,,,,,,,,1,,,79,37
248545,note_off,385,0,1,,,,,,,,,1,,,79,0
248640,note_on,95,0,1,,,,,,,,,1,,,79,36
249025,note_off,385,0,1,,,,,,,,,1,,,79,0
249090,set_tempo,1410,1,0,,,,,,269058,,,,,,,
249120,note_on,95,0,1,,,,,,,,,1,,,79,36
249505,note_off,385,0,1,,,,,,,,,1,,,79,0
249600,note_on,95,0,1,,,,,,,,,1,,,79,35
249600,set_tempo,510,1,0,,,,,,264317,,,,,,,
249840,note_on,0,0,1,,,,,,,,,1,,,78,34
249840,note_off,240,0,1,,,,,,,,,1,,,79,0
250080,note_off,240,0,1,,,,,,,,,1,,,78,0
250080,note_on,0,0,1,,,,,,,,,1,,,77,34
250320,note_off,240,0,1,,,,,,,,,1,,,77,0
250320,note_on,0,0,1,,,,,,,,,1,,,74,33
250440,set_tempo,840,1,0,,,,,,265486,,,,,,,
250512,note_off,192,0,1,,,,,,,,,1,,,74,0
250560,note_on,48,0,1,,,,,,,,,1,,,79,33
250800,note_off,240,0,1,,,,,,,,,1,,,79,0
250800,note_on,0,0,1,,,,,,,,,1,,,78,33
251040,note_on,0,0,1,,,,,,,,,1,,,77,32
251040,note_off,240,0,1,,,,,,,,,1,,,78,0
251280,note_off,240,0,1,,,,,,,,,1,,,77,0
251280,note_on,0,0,1,,,,,,,,,1,,,74,32
251445,set_tempo,1005,1,0,,,,,,283018,,,,,,,
251472,note_off,192,0,1,,,,,,,,,1,,,74,0
251520,set_tempo,75,1,0,,,,,,263157,,,,,,,
251520,note_on,48,0,1,,,,,,,,,1,,,72,38
251520,note_on,3473,0,4,,,,,,,,,4,,,63,36
251760,note_on,9840,0,3,,,,,,,,,3,,,67,36
251880,note_off,360,0,4,,,,,,,,,4,,,63,0
252000,note_on,120,0,4,,,,,,,,,4,,,63,37
252000,note_off,240,0,3,,,,,,,,,3,,,67,0
252240,note_off,720,0,1,,,,,,,,,1,,,72,0
252240,note_on,0,0,1,,,,,,,,,1,,,74,42
252240,note_on,240,0,3,,,,,,,,,3,,,67,38
252360,note_off,120,0,1,,,,,,,,,1,,,74,0
252360,note_on,0,0,1,,,,,,,,,1,,,72,42
252360,note_off,360,0,4,,,,,,,,,4,,,63,0
252480,note_on,0,0,1,,,,,,,,,1,,,71,43
252480,note_off,120,0,1,,,,,,,,,1,,,72,0
252480,note_on,120,0,4,,,,,,,,,4,,,62,38
252480,note_off,240,0,3,,,,,,,,,3,,,67,0
252720,note_on,240,0,3,,,,,,,,,3,,,67,39
252840,note_off,360,0,4,,,,,,,,,4,,,62,0
252960,note_on,0,0,1,,,,,,,,,1,,,72,46
252960,note_off,480,0,1,,,,,,,,,1,,,71,0
252960,note_on,120,0,4,,,,,,,,,4,,,63,39
252960,note_off,240,0,3,,,,,,,,,3,,,67,0
253200,note_on,240,0,3,,,,,,,,,3,,,67,40
253320,note_off,360,0,4,,,,,,,,,4,,,63,0
253320,note_off,360,0,1,,,,,,,,,1,,,72,0
253440,note_on,120,0,4,,,,,,,,,4,,,64,40
253440,note_off,240,0,3,,,,,,,,,3,,,67,0
253440,note_on,120,0,1,,,,,,,,,1,,,73,50
253680,note_on,240,0,3,,,,,,,,,3,,,67,41
253800,note_off,360,0,4,,,,,,,,,4,,,64,0
253920,note_on,120,0,4,,,,,,,,,4,,,64,42
253920,note_off,240,0,3,,,,,,,,,3,,,67,0
254160,note_on,240,0,3,,,,,,,,,3,,,67,42
254280,note_off,360,0,4,,,,,,,,,4,,,64,0
254400,note_on,0,0,1,,,,,,,,,1,,,74,43
254400,note_on,120,0,4,,,,,,,,,4,,,65,43
254400,note_off,240,0,3,,,,,,,,,3,,,67,0
254400,note_off,960,0,1,,,,,,,,,1,,,73,0
254640,note_on,240,0,3,,,,,,,,,3,,,67,43
254752,note_off,352,0,1,,,,,,,,,1,,,74,0
254760,note_off,360,0,4,,,,,,,,,4,,,65,0
254880,note_off,240,0,3,,,,,,,,,3,,,67,0
254880,note_on,120,0,4,,,,,,,,,4,,,65,44
255120,note_on,240,0,3,,,,,,,,,3,,,67,44
255240,note_off,360,0,4,,,,,,,,,4,,,65,0
255312,note_off,192,0,3,,,,,,,,,3,,,67,0
255320,set_tempo,3800,1,0,,,,,,265486,,,,,,,
255360,control_change,608,0,1,,,,,,,10,55,1,,,,
255360,note_on,120,0,4,,,,,,,,,4,,,62,45
255360,note_on,0,0,1,,,,,,,,,1,,,53,45
255360,set_tempo,40,1,0,,,,,,263157,,,,,,,
255600,note_on,288,0,3,,,,,,,,,3,,,67,46
255720,note_off,360,0,4,,,,,,,,,4,,,62,0
255840,note_on,120,0,4,,,,,,,,,4,,,62,46
255840,note_off,240,0,3,,,,,,,,,3,,,67,0
256080,note_off,720,0,1,,,,,,,,,1,,,53,0
256080,note_on,0,0,1,,,,,,,,,1,,,52,48
256080,note_on,240,0,3,,,,,,,,,3,,,67,47
256200,note_off,360,0,4,,,,,,,,,4,,,62,0
256200,note_on,0,0,1,,,,,,,,,1,,,53,49
256200,note_off,120,0,1,,,,,,,,,1,,,52,0
256320,note_off,240,0,3,,,,,,,,,3,,,67,0
256320,note_on,120,0,4,,,,,,,,,4,,,62,47
256320,note_on,0,0,1,,,,,,,,,1,,,55,50
256320,note_off,120,0,1,,,,,,,,,1,,,53,0
256560,note_on,240,0,3,,,,,,,,,3,,,67,48
256560,note_off,240,0,1,,,,,,,,,1,,,55,0
256560,note_on,0,0,1,,,,,,,,,1,,,53,51
256680,note_off,360,0,4,,,,,,,,,4,,,62,0
256800,note_off,240,0,1,,,,,,,,,1,,,53,0
256800,note_off,240,0,3,,,,,,,,,3,,,67,0
256800,note_on,120,0,4,,,,,,,,,4,,,63,48
256800,note_on,0,0,1,,,,,,,,,1,,,51,53
257040,note_off,240,0,1,,,,,,,,,1,,,51,0
257040,note_on,0,0,1,,,,,,,,,1,,,50,55
257040,note_on,240,0,3,,,,,,,,,3,,,67,49
257160,note_off,360,0,4,,,,,,,,,4,,,63,0
257232,note_off,192,0,1,,,,,,,,,1,,,50,0
257280,note_off,240,0,3,,,,,,,,,3,,,67,0
257280,note_on,48,0,1,,,,,,,,,1,,,48,60
257280,note_on,120,0,4,,,,,,,,,4,,,65,50
257520,note_on,240,0,3,,,,,,,,,3,,,67,50
257640,note_off,360,0,4,,,,,,,,,4,,,65,0
257760,note_off,240,0,3,,,,,,,,,3,,,67,0
257760,note_on,120,0,4,,,,,,,,,4,,,62,51
258000,note_on,240,0,3,,,,,,,,,3,,,67,51
258120,note_off,360,0,4,,,,,,,,,4,,,62,0
258240,note_on,120,0,4,,,,,,,,,4,,,65,52
258240,note_off,960,0,1,,,,,,,,,1,,,48,0
258240,note_on,0,0,1,,,,,,,,,1,,,47,52
258240,note_off,240,0,3,,,,,,,,,3,,,67,0
258480,note_on,240,0,3,,,,,,,,,3,,,67,52
258600,note_off,360,0,4,,,,,,,,,4,,,65,0
258720,note_off,240,0,3,,,,,,,,,3,,,67,0
258720,note_on,120,0,4,,,,,,,,,4,,,62,53
258720,note_off,480,0,1,,,,,,,,,1,,,47,0
258960,note_on,240,0,3,,,,,,,,,3,,,67,54
259080,note_off,360,0,4,,,,,,,,,4,,,62,0
259152,note_off,192,0,3,,,,,,,,,3,,,67,0
259160,set_tempo,3800,1,0,,,,,,265486,,,,,,,
259200,control_change,480,0,1,,,,,,,10,73,1,,,,
259200,note_on,0,0,1,,,,,,,,,1,,,74,54
259200,set_tempo,40,1,0,,,,,,263157,,,,,,,
259200,note_on,120,0,4,,,,,,,,,4,,,59,54
259440,note_on,288,0,3,,,,,,,,,3,,,67,55
259560,note_off,360,0,4,,,,,,,,,4,,,59,0
259680,note_on,120,0,4,,,,,,,,,4,,,59,55
259680,note_off,240,0,3,,,,,,,,,3,,,67,0
259920,note_on,240,0,3,,,,,,,,,3,,,67,56
259920,note_off,720,0,1,,,,,,,,,1,,,74,0
259920,note_on,27840,0,2,,,,,,,,,2,,,75,52
259980,note_on,0,0,2,,,,,,,,,2,,,74,54
259980,note_off,60,0,2,,,,,,,,,2,,,75,0
260040,note_off,360,0,4,,,,,,,,,4,,,59,0
260040,note_on,0,0,2,,,,,,,,,2,,,72,56
260040,note_off,60,0,2,,,,,,,,,2,,,74,0
260100,note_off,60,0,2,,,,,,,,,2,,,72,0
260100,note_on,0,0,2,,,,,,,,,2,,,74,58
260160,note_on,120,0,4,,,,,,,,,4,,,60,57
260160,note_off,60,0,2,,,,,,,,,2,,,74,0
260160,note_on,240,0,1,,,,,,,,,1,,,75,60
260160,note_off,240,0,3,,,,,,,,,3,,,67,0
260400,note_on,240,0,3,,,,,,,,,3,,,67,57
260520,note_off,360,0,4,,,,,,,,,4,,,60,0
260640,note_off,240,0,3,,,,,,,,,3,,,67,0
260640,note_on,120,0,4,,,,,,,,,4,,,62,58
260640,note_on,0,0,1,,,,,,,,,1,,,77,63
260640,note_off,480,0,1,,,,,,,,,1,,,75,0
260880,note_on,240,0,3,,,,,,,,,3,,,67,58
261000,note_off,360,0,4,,,,,,,,,4,,,62,0
261007,note_off,367,0,1,,,,,,,,,1,,,77,0
261120,note_on,113,0,1,,,,,,,,,1,,,78,68
261120,note_off,240,0,3,,,,,,,,,3,,,67,0
261120,note_on,120,0,4,,,,,,,,,4,,,62,59
261360,note_on,240,0,3,,,,,,,,,3,,,67,59
261480,note_off,360,0,4,,,,,,,,,4,,,62,0
261600,note_off,240,0,3,,,,,,,,,3,,,67,0
261600,note_on,120,0,4,,,,,,,,,4,,,62,60
261840,note_on,240,0,3,,,,,,,,,3,,,67,61
261960,note_off,360,0,4,,,,,,,,,4,,,62,0
262080,note_off,240,0,3,,,,,,,,,3,,,67,0
262080,note_off,960,0,1,,,,,,,,,1,,,78,0
262080,note_on,120,0,4,,,,,,,,,4,,,63,61
262080,note_on,0,0,1,,,,,,,,,1,,,79,61
262320,note_on,240,0,3,,,,,,,,,3,,,67,62
262440,note_off,360,0,4,,,,,,,,,4,,,63,0
262440,note_off,360,0,1,,,,,,,,,1,,,79,0
262560,note_off,240,0,3,,,,,,,,,3,,,67,0
262560,note_on,120,0,4,,,,,,,,,4,,,63,62
262800,note_on,240,0,3,,,,,,,,,3,,,67,63
262920,note_off,360,0,4,,,,,,,,,4,,,63,0
262992,note_off,192,0,3,,,,,,,,,3,,,67,0
263000,set_tempo,3800,1,0,,,,,,265486,,,,,,,
263040,control_change,600,0,1,,,,,,,10,55,1,,,,
263040,note_on,0,0,1,,,,,,,,,1,,,55,62
263040,set_tempo,40,1,0,,,,,,263157,,,,,,,
263040,note_on,120,0,4,,,,,,,,,4,,,63,63
263280,note_on,288,0,3,,,,,,,,,3,,,67,64
263400,note_off,360,0,4,,,,,,,,,4,,,63,0
263520,note_on,120,0,4,,,,,,,,,4,,,60,65
263520,note_off,240,0,3,,,,,,,,,3,,,67,0
263760,note_on,240,0,3,,,,,,,,,3,,,67,65
263760,note_off,720,0,1,,,,,,,,,1,,,55,0
263760,note_on,0,0,1,,,,,,,,,1,,,54,66
263880,note_off,360,0,4,,,,,,,,,4,,,60,0
263880,note_off,120,0,1,,,,,,,,,1,,,54,0
263880,note_on,0,0,1,,,,,,,,,1,,,55,67
264000,note_off,120,0,1,,,,,,,,,1,,,55,0
264000,note_on,120,0,4,,,,,,,,,4,,,63,66
264000,note_on,0,0,1,,,,,,,,,1,,,56,68
264000,note_off,240,0,3,,,,,,,,,3,,,67,0
264240,note_on,240,0,3,,,,,,,,,3,,,67,66
264240,note_off,240,0,1,,,,,,,,,1,,,56,0
264240,note_on,0,0,1,,,,,,,,,1,,,55,70
264360,note_off,360,0,4,,,,,,,,,4,,,63,0
264480,note_off,240,0,1,,,,,,,,,1,,,55,0
264480,note_off,240,0,3,,,,,,,,,3,,,67,0
264480,note_on,0,0,1,,,,,,,,,1,,,53,71
264480,note_on,120,0,4,,,,,,,,,4,,,60,67
264720,note_on,0,0,1,,,,,,,,,1,,,51,73
264720,note_on,240,0,3,,,,,,,,,3,,,67,67
264720,note_off,240,0,1,,,,,,,,,1,,,53,0
264840,note_off,360,0,4,,,,,,,,,4,,,60,0
264912,note_off,192,0,1,,,,,,,,,1,,,51,0
264960,note_on,48,0,1,,,,,,,,,1,,,50,76
264960,note_off,240,0,3,,,,,,,,,3,,,67,0
264960,note_on,120,0,4,,,,,,,,,4,,,65,68
265200,note_on,240,0,3,,,,,,,,,3,,,67,69
265320,note_off,360,0,4,,,,,,,,,4,,,65,0
265440,note_on,120,0,4,,,,,,,,,4,,,62,69
265440,note_off,240,0,3,,,,,,,,,3,,,67,0
265680,note_on,240,0,3,,,,,,,,,3,,,67,70
265800,note_off,360,0,4,,,,,,,,,4,,,62,0
265920,note_on,120,0,4,,,,,,,,,4,,,63,70
265920,note_off,240,0,3,,,,,,,,,3,,,67,0
265920,note_off,960,0,1,,,,,,,,,1,,,50,0
265920,note_on,0,0,1,,,,,,,,,1,,,48,70
266160,note_on,240,0,3,,,,,,,,,3,,,67,71
266280,note_off,360,0,4,,,,,,,,,4,,,63,0
266400,note_off,240,0,3,,,,,,,,,3,,,67,0
266400,note_off,480,0,1,,,,,,,,,1,,,48,0
266400,note_on,120,0,4,,,,,,,,,4,,,60,71
266640,note_on,240,0,3,,,,,,,,,3,,,67,72
266760,note_off,360,0,4,,,,,,,,,4,,,60,0
266832,note_off,192,0,3,,,,,,,,,3,,,67,0
266840,set_tempo,3800,1,0,,,,,,265486,,,,,,,
266880,note_on,6720,0,2,,,,,,,,,2,,,72,72
266880,note_on,120,0,4,,,,,,,,,4,,,63,73
266880,note_on,0,0,1,,,,,,,,,1,,,84,72
266880,set_tempo,40,1,0,,,,,,266666,,,,,,,
266880,control_change,480,0,1,,,,,,,10,73,1,,,,
266880,note_on,18833,0,5,,,,,,,,,5,,,60,73
266880,control_change,0,0,1,,,,,,,64,0,1,,,,
267120,note_on,288,0,3,,,,,,,,,3,,,67,73
267195,note_off,315,0,4,,,,,,,,,4,,,63,0
267360,note_on,165,0,4,,,,,,,,,4,,,63,74
267360,note_off,240,0,3,,,,,,,,,3,,,67,0
267360,note_off,480,0,5,,,,,,,,,5,,,60,0
267360,note_on,0,0,5,,,,,,,,,5,,,60,74
267600,note_on,240,0,3,,,,,,,,,3,,,67,74
267682,note_off,322,0,4,,,,,,,,,4,,,63,0
267780,note_off,900,0,1,,,,,,,,,1,,,84,0
267780,note_off,900,0,2,,,,,,,,,2,,,72,0
267787,note_off,427,0,5,,,,,,,,,5,,,60,0
267792,note_off,192,0,3,,,,,,,,,3,,,67,0
267840,note_on,158,0,4,,,,,,,,,4,,,64,75
267840,note_on,60,0,1,,,,,,,,,1,,,85,77
267840,note_on,53,0,5,,,,,,,,,5,,,58,75
267840,note_on,60,0,2,,,,,,,,,2,,,73,77
268080,note_on,288,0,3,,,,,,,,,3,,,67,75
268162,note_off,322,0,4,,,,,,,,,4,,,64,0
268320,note_off,480,0,5,,,,,,,,,5,,,58,0
268320,note_off,240,0,3,,,,,,,,,3,,,67,0
268320,note_on,0,0,5,,,,,,,,,5,,,58,76
268320,note_on,158,0,4,,,,,,,,,4,,,64,76
268560,note_on,240,0,3,,,,,,,,,3,,,67,77
268642,note_off,322,0,4,,,,,,,,,4,,,64,0
268740,note_off,900,0,2,,,,,,,,,2,,,73,0
268747,note_off,427,0,5,,,,,,,,,5,,,58,0
268747,note_off,907,0,1,,,,,,,,,1,,,85,0
268752,note_off,192,0,3,,,,,,,,,3,,,67,0
268760,set_tempo,1880,1,0,,,,,,269058,,,,,,,
268800,note_on,53,0,5,,,,,,,,,5,,,57,78
268800,note_on,60,0,2,,,,,,,,,2,,,72,83
268800,note_on,158,0,4,,,,,,,,,4,,,60,78
268800,note_on,53,0,1,,,,,,,,,1,,,84,83
269040,note_off,240,0,4,,,,,,,,,4,,,60,0
269040,note_on,288,0,3,,,,,,,,,3,,,65,74
269160,note_off,360,0,1,,,,,,,,,1,,,84,0
269160,note_off,360,0,2,,,,,,,,,2,,,72,0
269167,note_off,367,0,5,,,,,,,,,5,,,57,0
269220,note_off,180,0,3,,,,,,,,,3,,,65,0
269280,note_on,120,0,1,,,,,,,,,1,,,87,71
269280,note_on,240,0,4,,,,,,,,,4,,,60,71
269280,note_on,120,0,2,,,,,,,,,2,,,75,71
269280,note_on,60,0,3,,,,,,,,,3,,,66,71
269280,note_on,113,0,5,,,,,,,,,5,,,56,71
269640,note_off,360,0,3,,,,,,,,,3,,,66,0
269640,note_off,360,0,2,,,,,,,,,2,,,75,0
269640,note_off,360,0,4,,,,,,,,,4,,,60,0
269640,note_off,360,0,1,,,,,,,,,1,,,87,0
269640,note_off,360,0,5,,,,,,,,,5,,,56,0
269930,set_tempo,1170,1,0,,,,,,271493,,,,,,,
270000,set_tempo,70,1,0,,,,,,263157,,,,,,,
270000,note_on,360,0,1,,,,,,,,,1,,,87,58
270240,note_off,240,0,1,,,,,,,,,1,,,87,0
270240,note_on,0,0,1,,,,,,,,,1,,,86,57
270480,note_off,240,0,1,,,,,,,,,1,,,86,0
270480,note_on,0,0,1,,,,,,,,,1,,,84,57
270720,note_on,0,0,1,,,,,,,,,1,,,83,56
270720,note_off,240,0,1,,,,,,,,,1,,,84,0
270960,note_on,0,0,1,,,,,,,,,1,,,86,55
270960,note_off,240,0,1,,,,,,,,,1,,,83,0
271200,note_off,240,0,1,,,,,,,,,1,,,86,0
271200,note_on,1560,0,4,,,,,,,,,4,,,59,55
271200,note_on,1560,0,5,,,,,,,,,5,,,55,55
271200,note_on,0,0,1,,,,,,,,,1,,,77,55
271567,note_off,367,0,1,,,,,,,,,1,,,77,0
271680,note_on,0,0,4,,,,,,,,,4,,,62,53
271680,note_on,0,0,5,,,,,,,,,5,,,59,53
271680,note_off,480,0,5,,,,,,,,,5,,,55,0
271680,note_off,480,0,4,,,,,,,,,4,,,59,0
271920,note_on,353,0,1,,,,,,,,,1,,,80,53
272047,note_off,367,0,4,,,,,,,,,4,,,62,0
272047,note_off,367,0,5,,,,,,,,,5,,,59,0
272160,note_off,240,0,1,,,,,,,,,1,,,80,0
272160,note_on,0,0,1,,,,,,,,,1,,,79,52
272400,note_off,240,0,1,,,,,,,,,1,,,79,0
272400,note_on,0,0,1,,,,,,,,,1,,,77,52
272640,note_on,0,0,1,,,,,,,,,1,,,76,51
272640,note_off,240,0,1,,,,,,,,,1,,,77,0
272880,note_off,240,0,1,,,,,,,,,1,,,76,0
272880,note_on,0,0,1,,,,,,,,,1,,,79,50
273120,note_off,240,0,1,,,,,,,,,1,,,79,0
273120,note_on,0,0,1,,,,,,,,,1,,,70,50
273120,note_on,1073,0,4,,,,,,,,,4,,,52,50
273120,note_on,1073,0,5,,,,,,,,,5,,,48,50
273487,note_off,367,0,1,,,,,,,,,1,,,70,0
273600,note_on,0,0,4,,,,,,,,,4,,,55,48
273600,note_off,480,0,4,,,,,,,,,4,,,52,0
273600,note_on,0,0,5,,,,,,,,,5,,,52,48
273600,note_off,480,0,5,,,,,,,,,5,,,48,0
273840,note_on,353,0,1,,,,,,,,,1,,,73,48
273960,note_off,360,0,4,,,,,,,,,4,,,55,0
273960,note_off,360,0,5,,,,,,,,,5,,,52,0
274080,note_on,0,0,1,,,,,,,,,1,,,72,47
274080,note_off,240,0,1,,,,,,,,,1,,,73,0
274320,note_off,240,0,1,,,,,,,,,1,,,72,0
274320,note_on,0,0,1,,,,,,,,,1,,,70,46
274520,set_tempo,4520,1,0,,,,,,266666,,,,,,,
274560,note_on,600,0,5,,,,,,,,,5,,,53,46
274560,note_on,0,0,1,,,,,,,,,1,,,68,46
274560,note_off,240,0,1,,,,,,,,,1,,,70,0
274560,set_tempo,40,1,0,,,,,,265486,,,,,,,
274800,note_on,0,0,1,,,,,,,,,1,,,80,45
274800,note_off,240,0,1,,,,,,,,,1,,,68,0
274927,note_off,367,0,5,,,,,,,,,5,,,53,0
275040,note_on,0,0,1,,,,,,,,,1,,,79,44
275040,note_off,240,0,1,,,,,,,,,1,,,80,0
275280,note_off,240,0,1,,,,,,,,,1,,,79,0
275280,note_on,0,0,1,,,,,,,,,1,,,77,44
275520,note_off,240,0,1,,,,,,,,,1,,,77,0
275520,note_on,0,0,1,,,,,,,,,1,,,75,43
275760,note_off,240,0,1,,,,,,,,,1,,,75,0
275760,note_on,0,0,1,,,,,,,,,1,,,74,42
276000,note_on,0,0,1,,,,,,,,,1,,,75,42
276000,note_off,240,0,1,,,,,,,,,1,,,74,0
276240,note_on,0,0,1,,,,,,,,,1,,,77,41
276240,note_off,240,0,1,,,,,,,,,1,,,75,0
276432,note_off,192,0,1,,,,,,,,,1,,,77,0
276440,set_tempo,1880,1,0,,,,,,269058,,,,,,,
276480,set_tempo,40,1,0,,,,,,266666,,,,,,,
276480,note_on,1553,0,5,,,,,,,,,5,,,55,40
276480,note_on,48,0,1,,,,,,,,,1,,,72,40
276960,note_on,3000,0,4,,,,,,,,,4,,,67,39
276960,note_on,0,0,4,,,,,,,,,4,,,63,39
277320,set_tempo,840,1,0,,,,,,269058,,,,,,,
277440,note_off,0,0,4,,,,,,,,,4,,,67,0
277440,note_on,0,0,4,,,,,,,,,4,,,62,38
277440,note_on,0,0,4,,,,,,,,,4,,,65,38
277440,note_off,480,0,4,,,,,,,,,4,,,63,0
277920,note_off,1440,0,1,,,,,,,,,1,,,72,0
277920,note_on,0,0,1,,,,,,,,,1,,,75,36
277920,note_on,8280,0,2,,,,,,,,,2,,,71,36
278160,note_off,240,0,1,,,,,,,,,1,,,75,0
278160,note_on,0,0,1,,,,,,,,,1,,,74,36
278265,set_tempo,945,1,0,,,,,,271493,,,,,,,
278332,note_off,892,0,4,,,,,,,,,4,,,62,0
278340,note_off,420,0,2,,,,,,,,,2,,,71,0
278340,note_off,8,0,4,,,,,,,,,4,,,65,0
278347,note_off,187,0,1,,,,,,,,,1,,,74,0
278347,note_off,1867,0,5,,,,,,,,,5,,,55,0
278400,note_on,60,0,2,,,,,,,,,2,,,60,62
278400,set_tempo,135,1,0,,,,,,266666,,,,,,,
278400,note_on,60,0,4,,,,,,,,,4,,,51,60
278400,note_on,53,0,1,,,,,,,,,1,,,72,62
278400,note_on,53,0,5,,,,,,,,,5,,,48,60
278640,note_on,9000,0,3,,,,,,,,,3,,,55,62
278760,note_off,360,0,4,,,,,,,,,4,,,51,0
278880,note_off,240,0,3,,,,,,,,,3,,,55,0
278880,note_on,120,0,4,,,,,,,,,4,,,51,63
278880,note_on,0,0,5,,,,,,,,,5,,,48,63
278880,note_off,480,0,5,,,,,,,,,5,,,48,0
279120,note_on,240,0,3,,,,,,,,,3,,,55,64
279240,note_off,360,0,4,,,,,,,,,4,,,51,0
279292,note_off,892,0,1,,,,,,,,,1,,,72,0
279300,note_off,900,0,2,,,,,,,,,2,,,60,0
279307,note_off,427,0,5,,,,,,,,,5,,,48,0
279312,note_off,192,0,3,,,,,,,,,3,,,55,0
279360,note_on,60,0,2,,,,,,,,,2,,,61,69
279360,note_on,120,0,4,,,,,,,,,4,,,52,66
279360,note_on,68,0,1,,,,,,,,,1,,,73,69
279360,note_on,53,0,5,,,,,,,,,5,,,46,66
279600,note_on,288,0,3,,,,,,,,,3,,,55,67
279720,note_off,360,0,4,,,,,,,,,4,,,52,0
279840,note_on,0,0,5,,,,,,,,,5,,,46,68
279840,note_off,480,0,5,,,,,,,,,5,,,46,0
279840,note_off,240,0,3,,,,,,,,,3,,,55,0
279840,note_on,120,0,4,,,,,,,,,4,,,52,68
280080,note_on,240,0,3,,,,,,,,,3,,,55,70
280200,note_off,360,0,4,,,,,,,,,4,,,52,0
280260,note_off,420,0,5,,,,,,,,,5,,,46,0
280260,note_off,900,0,1,,,,,,,,,1,,,73,0
280260,note_off,900,0,2,,,,,,,,,2,,,61,0
280272,note_off,192,0,3,,,,,,,,,3,,,55,0
280280,set_tempo,1880,1,0,,,,,,269058,,,,,,,
280320,note_on,60,0,1,,,,,,,,,1,,,72,77
280320,note_on,60,0,2,,,,,,,,,2,,,60,77
280320,note_on,120,0,4,,,,,,,,,4,,,48,72
280320,note_on,60,0,5,,,,,,,,,5,,,45,72
280560,note_on,288,0,3,,,,,,,,,3,,,53,68
280680,note_off,360,0,4,,,,,,,,,4,,,48,0
280740,note_off,180,0,3,,,,,,,,,3,,,53,0
280747,note_off,427,0,5,,,,,,,,,5,,,45,0
280800,note_on,120,0,4,,,,,,,,,4,,,48,64
280800,note_on,0,0,2,,,,,,,,,2,,,63,64
280800,note_off,480,0,2,,,,,,,,,2,,,60,0
280800,note_on,53,0,5,,,,,,,,,5,,,44,64
280800,note_off,480,0,1,,,,,,,,,1,,,72,0
280800,note_on,0,0,1,,,,,,,,,1,,,75,64
280800,note_on,60,0,3,,,,,,,,,3,,,54,64
281160,note_off,360,0,5,,,,,,,,,5,,,44,0
281160,note_off,360,0,3,,,,,,,,,3,,,54,0
281160,note_off,360,0,4,,,,,,,,,4,,,48,0
281160,note_off,360,0,1,,,,,,,,,1,,,75,0
281175,note_off,375,0,2,,,,,,,,,2,,,63,0
281440,set_tempo,1160,1,0,,,,,,271493,,,,,,,
281520,note_on,360,0,1,,,,,,,,,1,,,75,56
281520,set_tempo,80,1,0,,,,,,263157,,,,,,,
281760,note_off,240,0,1,,,,,,,,,1,,,75,0
281760,note_on,0,0,1,,,,,,,,,1,,,74,55
282000,note_off,240,0,1,,,,,,,,,1,,,74,0
282000,note_on,0,0,1,,,,,,,,,1,,,72,54
282240,note_off,240,0,1,,,,,,,,,1,,,72,0
282240,note_on,0,0,1,,,,,,,,,1,,,71,53
282480,note_off,240,0,1,,,,,,,,,1,,,71,0
282480,note_on,0,0,1,,,,,,,,,1,,,74,52
282720,note_on,0,0,1,,,,,,,,,1,,,65,51
282720,note_on,1560,0,5,,,,,,,,,5,,,43,51
282720,note_on,1560,0,4,,,,,,,,,4,,,47,51
282720,note_off,240,0,1,,,,,,,,,1,,,74,0
283087,note_off,367,0,1,,,,,,,,,1,,,65,0
283200,note_on,0,0,5,,,,,,,,,5,,,47,49
283200,note_off,480,0,5,,,,,,,,,5,,,43,0
283200,note_on,0,0,4,,,,,,,,,4,,,50,49
283200,note_off,480,0,4,,,,,,,,,4,,,47,0
283440,note_on,353,0,1,,,,,,,,,1,,,68,48
283560,note_off,360,0,5,,,,,,,,,5,,,47,0
283567,note_off,367,0,4,,,,,,,,,4,,,50,0
283680,note_on,0,0,1,,,,,,,,,1,,,67,47
283680,note_off,240,0,1,,,,,,,,,1,,,68,0
283920,note_off,240,0,1,,,,,,,,,1,,,67,0
283920,note_on,0,0,1,,,,,,,,,1,,,65,46
284160,note_on,0,0,1,,,,,,,,,1,,,64,45
284160,note_off,240,0,1,,,,,,,,,1,,,65,0
284400,note_off,240,0,1,,,,,,,,,1,,,64,0
284400,note_on,0,0,1,,,,,,,,,1,,,67,44
284640,note_on,0,0,1,,,,,,,,,1,,,58,43
284640,note_off,240,0,1,,,,,,,,,1,,,67,0
284640,note_on,1073,0,4,,,,,,,,,4,,,40,43
284640,note_on,1080,0,5,,,,,,,,,5,,,36,43
285000,note_off,360,0,1,,,,,,,,,1,,,58,0
285120,note_off,480,0,5,,,,,,,,,5,,,36,0
285120,note_on,0,0,4,,,,,,,,,4,,,43,42
285120,note_off,480,0,4,,,,,,,,,4,,,40,0
285120,note_on,0,0,5,,,,,,,,,5,,,40,42
285360,note_on,360,0,1,,,,,,,,,1,,,61,41
285487,note_off,367,0,4,,,,,,,,,4,,,43,0
285487,note_off,367,0,5,,,,,,,,,5,,,40,0
285600,note_off,240,0,1,,,,,,,,,1,,,61,0
285600,note_on,0,0,1,,,,,,,,,1,,,60,40
285840,note_off,240,0,1,,,,,,,,,1,,,60,0
285840,note_on,0,0,1,,,,,,,,,1,,,58,39
286027,note_off,187,0,1,,,,,,,,,1,,,58,0
286040,set_tempo,4520,1,0,,,,,,271493,,,,,,,
286080,note_on,593,0,5,,,,,,,,,5,,,41,85
286080,note_on,0,0,5,,,,,,,,,5,,,29,85
286080,note_on,53,0,1,,,,,,,,,1,,,56,85
286080,set_tempo,40,1,0,,,,,,260869,,,,,,,
286236,note_off,156,0,1,,,,,,,,,1,,,56,0
286240,note_on,4,0,1,,,,,,,,,1,,,60,83
286396,note_off,156,0,1,,,,,,,,,1,,,60,0
286400,note_on,4,0,1,,,,,,,,,1,,,52,83
286556,note_off,156,0,1,,,,,,,,,1,,,52,0
286560,note_on,4,0,1,,,,,,,,,1,,,53,82
286716,note_off,156,0,1,,,,,,,,,1,,,53,0
286720,note_on,4,0,1,,,,,,,,,1,,,56,81
286876,note_off,156,0,1,,,,,,,,,1,,,56,0
286880,note_on,4,0,1,,,,,,,,,1,,,47,81
287036,note_off,156,0,1,,,,,,,,,1,,,47,0
287040,note_on,4,0,1,,,,,,,,,1,,,48,80
287196,note_off,156,0,1,,,,,,,,,1,,,48,0
287200,note_on,4,0,1,,,,,,,,,1,,,51,80
287356,note_off,156,0,1,,,,,,,,,1,,,51,0
287360,note_on,4,0,1,,,,,,,,,1,,,43,79
287516,note_off,156,0,1,,,,,,,,,1,,,43,0
287520,note_on,4,0,1,,,,,,,,,1,,,44,78
287676,note_off,156,0,1,,,,,,,,,1,,,44,0
287680,note_on,4,0,1,,,,,,,,,1,,,48,78
287836,note_off,156,0,1,,,,,,,,,1,,,48,0
287840,note_on,4,0,1,,,,,,,,,1,,,40,77
287960,set_tempo,1880,1,0,,,,,,265486,,,,,,,
287984,note_off,144,0,1,,,,,,,,,1,,,40,0
288000,note_on,16,0,1,,,,,,,,,1,,,41,77
288000,set_tempo,40,1,0,,,,,,260869,,,,,,,
288150,note_off,150,0,1,,,,,,,,,1,,,41,0
288160,note_on,10,0,1,,,,,,,,,1,,,36,76
288304,note_off,144,0,1,,,,,,,,,1,,,36,0
288320,note_on,16,0,1,,,,,,,,,1,,,41,75
288464,note_off,144,0,1,,,,,,,,,1,,,41,0
288480,note_on,16,0,1,,,,,,,,,1,,,44,75
288624,note_off,144,0,1,,,,,,,,,1,,,44,0
288640,note_on,16,0,1,,,,,,,,,1,,,41,74
288784,note_off,144,0,1,,,,,,,,,1,,,41,0
288800,note_on,16,0,1,,,,,,,,,1,,,44,74
288944,note_off,144,0,1,,,,,,,,,1,,,44,0
288960,note_on,16,0,1,,,,,,,,,1,,,48,73
289104,note_off,144,0,1,,,,,,,,,1,,,48,0
289120,note_on,16,0,1,,,,,,,,,1,,,44,72
289264,note_off,144,0,1,,,,,,,,,1,,,44,0
289280,note_on,16,0,1,,,,,,,,,1,,,48,72
289424,note_off,144,0,1,,,,,,,,,1,,,48,0
289440,note_on,16,0,1,,,,,,,,,1,,,53,71
289584,note_off,144,0,1,,,,,,,,,1,,,53,0
289600,note_on,16,0,1,,,,,,,,,1,,,48,71
289744,note_off,144,0,1,,,,,,,,,1,,,48,0
289760,note_on,16,0,1,,,,,,,,,1,,,53,70
289904,note_off,144,0,1,,,,,,,,,1,,,53,0
289920,note_on,16,0,1,,,,,,,,,1,,,56,69
290064,note_off,144,0,1,,,,,,,,,1,,,56,0
290080,note_on,16,0,1,,,,,,,,,1,,,53,69
290224,note_off,144,0,1,,,,,,,,,1,,,53,0
290240,note_on,16,0,1,,,,,,,,,1,,,56,68
290384,note_off,144,0,1,,,,,,,,,1,,,56,0
290400,note_on,16,0,1,,,,,,,,,1,,,60,67
290544,note_off,144,0,1,,,,,,,,,1,,,60,0
290560,note_on,16,0,1,,,,,,,,,1,,,56,67
290704,note_off,144,0,1,,,,,,,,,1,,,56,0
290720,note_on,16,0,1,,,,,,,,,1,,,60,66
290864,note_off,144,0,1,,,,,,,,,1,,,60,0
290880,note_on,16,0,1,,,,,,,,,1,,,65,66
291024,note_off,144,0,1,,,,,,,,,1,,,65,0
291040,note_on,16,0,1,,,,,,,,,1,,,60,65
291184,note_off,144,0,1,,,,,,,,,1,,,60,0
291200,note_on,16,0,1,,,,,,,,,1,,,65,64
291344,note_off,144,0,1,,,,,,,,,1,,,65,0
291360,note_on,16,0,1,,,,,,,,,1,,,68,64
291504,note_off,144,0,1,,,,,,,,,1,,,68,0
291520,note_on,16,0,1,,,,,,,,,1,,,65,63
291664,note_off,144,0,1,,,,,,,,,1,,,65,0
291680,note_on,16,0,1,,,,,,,,,1,,,68,63
291824,note_off,144,0,1,,,,,,,,,1,,,68,0
291840,note_on,16,0,1,,,,,,,,,1,,,72,62
291984,note_off,144,0,1,,,,,,,,,1,,,72,0
292000,note_on,16,0,1,,,,,,,,,1,,,68,61
292144,note_off,144,0,1,,,,,,,,,1,,,68,0
292160,note_on,16,0,1,,,,,,,,,1,,,72,61
292304,note_off,144,0,1,,,,,,,,,1,,,72,0
292320,note_on,16,0,1,,,,,,,,,1,,,77,60
292464,note_off,144,0,1,,,,,,,,,1,,,77,0
292480,note_on,16,0,1,,,,,,,,,1,,,72,60
292624,note_off,144,0,1,,,,,,,,,1,,,72,0
292640,note_on,16,0,1,,,,,,,,,1,,,77,59
292784,note_off,144,0,1,,,,,,,,,1,,,77,0
292800,note_on,16,0,1,,,,,,,,,1,,,80,58
292944,note_off,144,0,1,,,,,,,,,1,,,80,0
292960,note_on,16,0,1,,,,,,,,,1,,,77,58
293104,note_off,144,0,1,,,,,,,,,1,,,77,0
293120,note_on,16,0,1,,,,,,,,,1,,,80,57
293160,set_tempo,5160,1,0,,,,,,271493,,,,,,,
293264,note_off,144,0,1,,,,,,,,,1,,,80,0
293280,note_on,16,0,1,,,,,,,,,1,,,84,57
293280,set_tempo,120,1,0,,,,,,263157,,,,,,,
293490,note_off,210,0,1,,,,,,,,,1,,,84,0
293520,note_on,30,0,1,,,,,,,,,1,,,79,56
293715,note_off,7635,0,5,,,,,,,,,5,,,29,0
293718,note_off,3,0,5,,,,,,,,,5,,,41,0
293760,note_on,0,0,1,,,,,,,,,1,,,80,55
293760,note_off,240,0,1,,,,,,,,,1,,,79,0
294000,note_off,240,0,1,,,,,,,,,1,,,80,0
294000,note_on,0,0,1,,,,,,,,,1,,,76,54
294240,note_off,240,0,1,,,,,,,,,1,,,76,0
294240,note_on,0,0,1,,,,,,,,,1,,,77,53
294480,note_on,0,0,1,,,,,,,,,1,,,73,52
294480,note_off,240,0,1,,,,,,,,,1,,,77,0
294720,note_on,0,0,1,,,,,,,,,1,,,74,51
294720,note_off,240,0,1,,,,,,,,,1,,,73,0
294960,note_off,240,0,1,,,,,,,,,1,,,74,0
294960,note_on,0,0,1,,,,,,,,,1,,,80,50
295200,note_off,240,0,1,,,,,,,,,1,,,80,0
295200,note_on,0,0,1,,,,,,,,,1,,,77,49
295440,note_off,240,0,1,,,,,,,,,1,,,77,0
295440,note_on,0,0,1,,,,,,,,,1,,,74,48
295632,note_off,192,0,1,,,,,,,,,1,,,74,0
295640,set_tempo,2360,1,0,,,,,,269058,,,,,,,
295680,note_on,0,0,4,,,,,,,,,4,,,63,48
295680,note_on,10193,0,4,,,,,,,,,4,,,60,48
295680,set_tempo,40,1,0,,,,,,266666,,,,,,,
295680,note_on,1962,0,5,,,,,,,,,5,,,55,48
295920,note_on,288,0,1,,,,,,,,,1,,,67,47
296047,note_off,367,0,5,,,,,,,,,5,,,55,0
296047,note_off,0,0,4,,,,,,,,,4,,,60,0
296047,note_off,367,0,4,,,,,,,,,4,,,63,0
296160,note_off,240,0,1,,,,,,,,,1,,,67,0
296160,note_on,0,0,1,,,,,,,,,1,,,79,46
296400,note_on,0,0,1,,,,,,,,,1,,,78,45
296400,note_off,240,0,1,,,,,,,,,1,,,79,0
296640,note_on,0,0,1,,,,,,,,,1,,,77,44
296640,note_off,240,0,1,,,,,,,,,1,,,78,0
296880,note_on,0,0,1,,,,,,,,,1,,,76,43
296880,note_off,240,0,1,,,,,,,,,1,,,77,0
297120,note_on,0,0,1,,,,,,,,,1,,,75,42
297120,note_off,240,0,1,,,,,,,,,1,,,76,0
297360,note_off,240,0,1,,,,,,,,,1,,,75,0
297360,note_on,0,0,1,,,,,,,,,1,,,74,41
297552,note_off,192,0,1,,,,,,,,,1,,,74,0
297560,set_tempo,1880,1,0,,,,,,273972,,,,,,,
297600,note_on,1553,0,5,,,,,,,,,5,,,55,40
297600,note_on,48,0,1,,,,,,,,,1,,,74,40
297600,set_tempo,40,1,0,,,,,,269058,,,,,,,
297600,note_on,1553,0,4,,,,,,,,,4,,,63,40
297840,note_on,16680,0,3,,,,,,,,,3,,,67,39
297840,note_on,0,0,1,,,,,,,,,1,,,72,39
297840,note_off,240,0,1,,,,,,,,,1,,,74,0
297960,note_off,360,0,4,,,,,,,,,4,,,63,0
298030,note_off,190,0,3,,,,,,,,,3,,,67,0
298032,note_off,192,0,1,,,,,,,,,1,,,72,0
298080,note_on,48,0,1,,,,,,,,,1,,,72,39
298080,note_on,120,0,4,,,,,,,,,4,,,63,39
298320,note_on,290,0,3,,,,,,,,,3,,,67,38
298440,set_tempo,840,1,0,,,,,,271493,,,,,,,
298440,note_off,360,0,4,,,,,,,,,4,,,63,0
298510,note_off,190,0,3,,,,,,,,,3,,,67,0
298560,note_on,120,0,4,,,,,,,,,4,,,65,37
298800,note_on,290,0,3,,,,,,,,,3,,,67,36
298920,note_off,360,0,4,,,,,,,,,4,,,65,0
298990,note_off,190,0,3,,,,,,,,,3,,,67,0
299040,note_on,17865,0,2,,,,,,,,,2,,,71,35
299040,note_on,120,0,4,,,,,,,,,4,,,65,35
299040,note_off,960,0,1,,,,,,,,,1,,,72,0
299040,note_on,0,0,1,,,,,,,,,1,,,75,35
299280,note_on,0,0,1,,,,,,,,,1,,,74,34
299280,note_on,290,0,3,,,,,,,,,3,,,67,34
299280,note_off,240,0,1,,,,,,,,,1,,,75,0
299385,set_tempo,945,1,0,,,,,,273972,,,,,,,
299400,note_off,360,0,4,,,,,,,,,4,,,65,0
299467,note_off,1867,0,5,,,,,,,,,5,,,55,0
299470,note_off,190,0,3,,,,,,,,,3,,,67,0
299472,note_off,192,0,1,,,,,,,,,1,,,74,0
299482,note_off,442,0,2,,,,,,,,,2,,,71,0
299520,note_on,48,0,1,,,,,,,,,1,,,72,34
299520,note_on,53,0,5,,,,,,,,,5,,,60,34
299520,set_tempo,135,1,0,,,,,,260869,,,,,,,
299760,note_on,290,0,3,,,,,,,,,3,,,67,35
299880,note_off,360,0,1,,,,,,,,,1,,,72,0
299950,note_off,190,0,3,,,,,,,,,3,,,67,0
300000,note_on,50,0,3,,,,,,,,,3,,,63,36
300240,note_on,360,0,1,,,,,,,,,1,,,72,37
300240,note_off,720,0,5,,,,,,,,,5,,,60,0
300240,note_on,240,0,3,,,,,,,,,3,,,67,37
300360,note_off,120,0,3,,,,,,,,,3,,,63,0
300430,note_off,70,0,3,,,,,,,,,3,,,67,0
300480,note_on,240,0,5,,,,,,,,,5,,,59,38
300480,note_off,240,0,1,,,,,,,,,1,,,72,0
300480,note_on,0,0,1,,,,,,,,,1,,,73,42
300720,note_on,0,0,1,,,,,,,,,1,,,74,39
300720,note_on,290,0,3,,,,,,,,,3,,,67,39
300720,note_off,240,0,1,,,,,,,,,1,,,73,0
300910,note_off,190,0,3,,,,,,,,,3,,,67,0
300912,note_off,192,0,1,,,,,,,,,1,,,74,0
300960,note_on,50,0,3,,,,,,,,,3,,,65,41
301200,note_on,240,0,3,,,,,,,,,3,,,67,42
301200,note_on,288,0,1,,,,,,,,,1,,,74,42
301200,note_off,720,0,5,,,,,,,,,5,,,59,0
301320,note_off,120,0,3,,,,,,,,,3,,,65,0
301390,note_off,70,0,3,,,,,,,,,3,,,67,0
301440,note_on,0,0,1,,,,,,,,,1,,,77,46
301440,note_on,240,0,5,,,,,,,,,5,,,60,43
301440,note_off,240,0,1,,,,,,,,,1,,,74,0
301680,note_on,290,0,3,,,,,,,,,3,,,67,44
301680,note_on,0,0,1,,,,,,,,,1,,,75,44
301680,note_off,240,0,1,,,,,,,,,1,,,77,0
301870,note_off,190,0,3,,,,,,,,,3,,,67,0
301872,note_off,192,0,1,,,,,,,,,1,,,75,0
301920,note_on,50,0,3,,,,,,,,,3,,,63,45
302160,note_on,240,0,3,,,,,,,,,3,,,67,46
302160,note_off,720,0,5,,,,,,,,,5,,,60,0
302160,note_on,288,0,1,,,,,,,,,1,,,75,46
302280,note_off,120,0,3,,,,,,,,,3,,,63,0
302350,note_off,70,0,3,,,,,,,,,3,,,67,0
302400,note_off,240,0,1,,,,,,,,,1,,,75,0
302400,note_on,240,0,5,,,,,,,,,5,,,50,47
302400,note_on,0,0,1,,,,,,,,,1,,,76,50
302640,note_off,240,0,1,,,,,,,,,1,,,76,0
302640,note_on,0,0,1,,,,,,,,,1,,,77,49
302640,note_on,290,0,3,,,,,,,,,3,,,59,49
302830,note_off,190,0,3,,,,,,,,,3,,,59,0
302832,note_off,192,0,1,,,,,,,,,1,,,77,0
302880,note_on,50,0,3,,,,,,,,,3,,,53,50
303120,note_off,720,0,5,,,,,,,,,5,,,50,0
303120,note_on,288,0,1,,,,,,,,,1,,,77,51
303120,note_on,240,0,3,,,,,,,,,3,,,59,51
303240,note_off,120,0,3,,,,,,,,,3,,,53,0
303310,note_off,70,0,3,,,,,,,,,3,,,59,0
303360,note_on,240,0,5,,,,,,,,,5,,,51,52
303360,note_on,0,0,1,,,,,,,,,1,,,78,56
303360,note_off,240,0,1,,,,,,,,,1,,,77,0
303600,note_on,290,0,3,,,,,,,,,3,,,60,53
303600,note_on,0,0,1,,,,,,,,,1,,,79,53
303600,note_off,240,0,1,,,,,,,,,1,,,78,0
303720,note_off,360,0,5,,,,,,,,,5,,,51,0
303792,note_off,192,0,1,,,,,,,,,1,,,79,0
303840,note_on,120,0,5,,,,,,,,,5,,,52,54
303840,note_off,240,0,3,,,,,,,,,3,,,60,0
304080,note_on,288,0,1,,,,,,,,,1,,,79,55
304080,note_on,240,0,3,,,,,,,,,3,,,60,55
304200,note_off,360,0,5,,,,,,,,,5,,,52,0
304320,note_on,120,0,5,,,,,,,,,5,,,53,57
304320,note_off,240,0,3,,,,,,,,,3,,,60,0
304320,note_on,0,0,1,,,,,,,,,1,,,82,60
304320,note_off,240,0,1,,,,,,,,,1,,,79,0
304560,note_on,240,0,3,,,,,,,,,3,,,60,58
304560,note_on,0,0,1,,,,,,,,,1,,,80,58
304560,note_off,240,0,1,,,,,,,,,1,,,82,0
304680,note_off,360,0,5,,,,,,,,,5,,,53,0
304752,note_off,192,0,1,,,,,,,,,1,,,80,0
304800,note_on,120,0,5,,,,,,,,,5,,,54,59
304800,note_off,240,0,3,,,,,,,,,3,,,60,0
305040,note_on,240,0,3,,,,,,,,,3,,,63,60
305040,note_on,288,0,1,,,,,,,,,1,,,84,60
305160,note_off,360,0,5,,,,,,,,,5,,,54,0
305232,note_off,192,0,3,,,,,,,,,3,,,63,0
305240,set_tempo,5720,1,0,,,,,,263157,,,,,,,
305280,note_off,240,0,1,,,,,,,,,1,,,84,0
305280,note_on,0,0,1,,,,,,,,,1,,,84,61
305280,note_on,120,0,5,,,,,,,,,5,,,55,61
305280,set_tempo,40,1,0,,,,,,263157,,,,,,,
305520,note_on,288,0,3,,,,,,,,,3,,,63,57
305520,note_off,240,0,1,,,,,,,,,1,,,84,0
305520,note_on,0,0,1,,,,,,,,,1,,,72,57
305710,note_off,190,0,3,,,,,,,,,3,,,63,0
305712,note_off,192,0,1,,,,,,,,,1,,,72,0
305760,note_on,48,0,1,,,,,,,,,1,,,72,61
305760,note_on,50,0,3,,,,,,,,,3,,,60,56
306000,note_on,240,0,3,,,,,,,,,3,,,63,55
306000,note_off,720,0,5,,,,,,,,,5,,,55,0
306120,note_off,120,0,3,,,,,,,,,3,,,60,0
306120,set_tempo,840,1,0,,,,,,265486,,,,,,,
306190,note_off,70,0,3,,,,,,,,,3,,,63,0
306240,note_on,240,0,5,,,,,,,,,5,,,55,53
306480,note_on,290,0,3,,,,,,,,,3,,,65,52
306670,note_off,190,0,3,,,,,,,,,3,,,65,0
306720,note_off,960,0,1,,,,,,,,,1,,,72,0
306720,note_on,0,0,1,,,,,,,,,1,,,75,53
306720,note_on,50,0,3,,,,,,,,,3,,,62,50
306960,note_off,240,0,1,,,,,,,,,1,,,75,0
306960,note_off,720,0,5,,,,,,,,,5,,,55,0
306960,note_on,0,0,1,,,,,,,,,1,,,74,51
306960,note_on,240,0,3,,,,,,,,,3,,,65,49
307080,note_off,120,0,3,,,,,,,,,3,,,62,0
307095,set_tempo,975,1,0,,,,,,269058,,,,,,,
307150,note_off,70,0,3,,,,,,,,,3,,,65,0
307152,note_off,192,0,1,,,,,,,,,1,,,74,0
307200,set_tempo,105,1,0,,,,,,260869,,,,,,,
307200,note_on,240,0,5,,,,,,,,,5,,,48,50
307200,note_on,48,0,1,,,,,,,,,1,,,72,50
307355,note_off,155,0,1,,,,,,,,,1,,,72,0
307440,note_on,290,0,3,,,,,,,,,3,,,55,51
307440,note_on,85,0,1,,,,,,,,,1,,,72,51
307595,note_off,155,0,1,,,,,,,,,1,,,72,0
307630,note_off,190,0,3,,,,,,,,,3,,,55,0
307680,note_on,50,0,3,,,,,,,,,3,,,51,51
307680,note_on,85,0,1,,,,,,,,,1,,,72,45
307760,note_off,80,0,1,,,,,,,,,1,,,72,0
307760,note_on,0,0,1,,,,,,,,,1,,,74,46
307840,note_off,80,0,1,,,,,,,,,1,,,74,0
307840,note_on,0,0,1,,,,,,,,,1,,,72,47
307920,note_on,0,0,1,,,,,,,,,1,,,71,48
307920,note_off,720,0,5,,,,,,,,,5,,,48,0
307920,note_on,240,0,3,,,,,,,,,3,,,55,52
307920,note_off,80,0,1,,,,,,,,,1,,,72,0
308040,note_on,0,0,1,,,,,,,,,1,,,72,50
308040,note_off,120,0,1,,,,,,,,,1,,,71,0
308040,note_off,120,0,3,,,,,,,,,3,,,51,0
308110,note_off,70,0,3,,,,,,,,,3,,,55,0
308136,note_off,96,0,1,,,,,,,,,1,,,72,0
308160,note_on,240,0,5,,,,,,,,,5,,,47,53
308160,note_on,24,0,1,,,,,,,,,1,,,74,52
308315,note_off,155,0,1,,,,,,,,,1,,,74,0
308400,note_on,85,0,1,,,,,,,,,1,,,74,53
308400,note_on,290,0,3,,,,,,,,,3,,,55,53
308555,note_off,155,0,1,,,,,,,,,1,,,74,0
308590,note_off,190,0,3,,,,,,,,,3,,,55,0
308640,note_on,85,0,1,,,,,,,,,1,,,74,49
308640,note_on,50,0,3,,,,,,,,,3,,,53,54
308720,note_on,0,0,1,,,,,,,,,1,,,75,51
308720,note_off,80,0,1,,,,,,,,,1,,,74,0
308800,note_off,80,0,1,,,,,,,,,1,,,75,0
308800,note_on,0,0,1,,,,,,,,,1,,,74,52
308830,note_off,190,0,3,,,,,,,,,3,,,53,0
308880,note_off,80,0,1,,,,,,,,,1,,,74,0
308880,note_on,0,0,1,,,,,,,,,1,,,72,53
308880,note_on,50,0,3,,,,,,,,,3,,,55,55
308880,note_off,720,0,5,,,,,,,,,5,,,47,0
309000,note_on,0,0,1,,,,,,,,,1,,,74,56
309000,note_off,120,0,1,,,,,,,,,1,,,72,0
309070,note_off,190,0,3,,,,,,,,,3,,,55,0
309096,note_off,96,0,1,,,,,,,,,1,,,74,0
309120,note_on,240,0,5,,,,,,,,,5,,,48,56
309120,note_on,24,0,1,,,,,,,,,1,,,75,58
309275,note_off,155,0,1,,,,,,,,,1,,,75,0
309360,note_on,290,0,3,,,,,,,,,3,,,55,56
309360,note_on,85,0,1,,,,,,,,,1,,,75,56
309515,note_off,155,0,1,,,,,,,,,1,,,75,0
309550,note_off,190,0,3,,,,,,,,,3,,,55,0
309600,note_on,50,0,3,,,,,,,,,3,,,51,57
309600,note_on,85,0,1,,,,,,,,,1,,,75,51
309680,note_off,80,0,1,,,,,,,,,1,,,75,0
309680,note_on,0,0,1,,,,,,,,,1,,,77,52
309760,note_on,0,0,1,,,,,,,,,1,,,75,54
309760,note_off,80,0,1,,,,,,,,,1,,,77,0
309840,note_off,720,0,5,,,,,,,,,5,,,48,0
309840,note_on,240,0,3,,,,,,,,,3,,,55,58
309840,note_on,0,0,1,,,,,,,,,1,,,74,55
309840,note_off,80,0,1,,,,,,,,,1,,,75,0
309960,note_off,120,0,3,,,,,,,,,3,,,51,0
309960,note_off,120,0,1,,,,,,,,,1,,,74,0
309960,note_on,0,0,1,,,,,,,,,1,,,75,58
310030,note_off,70,0,3,,,,,,,,,3,,,55,0
310056,note_off,96,0,1,,,,,,,,,1,,,75,0
310080,note_on,24,0,1,,,,,,,,,1,,,77,60
310080,note_on,240,0,5,,,,,,,,,5,,,50,58
310235,note_off,155,0,1,,,,,,,,,1,,,77,0
310320,note_on,290,0,3,,,,,,,,,3,,,59,59
310320,note_on,85,0,1,,,,,,,,,1,,,77,59
310475,note_off,155,0,1,,,,,,,,,1,,,77,0
310510,note_off,190,0,3,,,,,,,,,3,,,59,0
310560,note_on,85,0,1,,,,,,,,,1,,,77,55
310560,note_on,50,0,3,,,,,,,,,3,,,55,60
310640,note_off,80,0,1,,,,,,,,,1,,,77,0
310640,note_on,0,0,1,,,,,,,,,1,,,79,56
310720,note_on,0,0,1,,,,,,,,,1,,,77,58
310720,note_off,80,0,1,,,,,,,,,1,,,79,0
310800,note_on,0,0,1,,,,,,,,,1,,,75,59
310800,note_on,240,0,3,,,,,,,,,3,,,59,61
310800,note_off,80,0,1,,,,,,,,,1,,,77,0
310800,note_off,720,0,5,,,,,,,,,5,,,50,0
310920,note_on,0,0,1,,,,,,,,,1,,,77,61
310920,note_off,120,0,1,,,,,,,,,1,,,75,0
310920,note_off,120,0,3,,,,,,,,,3,,,55,0
310990,note_off,70,0,3,,,,,,,,,3,,,59,0
311000,set_tempo,3800,1,0,,,,,,263157,,,,,,,
311016,note_off,96,0,1,,,,,,,,,1,,,77,0
311040,note_on,24,0,1,,,,,,,,,1,,,79,63
311040,note_on,240,0,5,,,,,,,,,5,,,51,61
311040,set_tempo,40,1,0,,,,,,260869,,,,,,,
311040,note_on,50,0,3,,,,,,,,,3,,,60,61
311182,note_off,142,0,1,,,,,,,,,1,,,79,0
311200,note_on,18,0,1,,,,,,,,,1,,,84,62
311342,note_off,142,0,1,,,,,,,,,1,,,84,0
311360,note_on,18,0,1,,,,,,,,,1,,,82,62
311400,note_off,360,0,5,,,,,,,,,5,,,51,0
311502,note_off,142,0,1,,,,,,,,,1,,,82,0
311520,note_on,18,0,1,,,,,,,,,1,,,80,63
311662,note_off,142,0,1,,,,,,,,,1,,,80,0
311680,note_on,18,0,1,,,,,,,,,1,,,79,63
311822,note_off,142,0,1,,,,,,,,,1,,,79,0
311840,note_on,18,0,1,,,,,,,,,1,,,77,64
311982,note_off,142,0,1,,,,,,,,,1,,,77,0
312000,note_on,18,0,1,,,,,,,,,1,,,75,64
312142,note_off,142,0,1,,,,,,,,,1,,,75,0
312160,note_on,18,0,1,,,,,,,,,1,,,74,65
312302,note_off,142,0,1,,,,,,,,,1,,,74,0
312320,note_on,18,0,1,,,,,,,,,1,,,72,65
312462,note_off,142,0,1,,,,,,,,,1,,,72,0
312480,note_on,1080,0,5,,,,,,,,,5,,,52,66
312480,note_on,18,0,1,,,,,,,,,1,,,70,66
312622,note_off,142,0,1,,,,,,,,,1,,,70,0
312640,note_on,18,0,1,,,,,,,,,1,,,68,66
312782,note_off,142,0,1,,,,,,,,,1,,,68,0
312800,note_on,18,0,1,,,,,,,,,1,,,67,67
312920,set_tempo,1880,1,0,,,,,,277777,,,,,,,
312945,note_off,145,0,1,,,,,,,,,1,,,67,0
312960,note_on,15,0,1,,,,,,,,,1,,,68,67
312960,note_off,480,0,5,,,,,,,,,5,,,52,0
312960,note_on,0,0,5,,,,,,,,,5,,,53,67
312960,note_off,1920,0,3,,,,,,,,,3,,,60,0
312960,set_tempo,40,1,0,,,,,,277777,,,,,,,
312960,note_on,13478,0,2,,,,,,,,,2,,,60,67
313270,note_off,310,0,1,,,,,,,,,1,,,68,0
313270,note_off,310,0,2,,,,,,,,,2,,,60,0
313270,note_off,310,0,5,,,,,,,,,5,,,53,0
313440,note_on,170,0,5,,,,,,,,,5,,,53,68
313440,note_on,170,0,1,,,,,,,,,1,,,80,68
313440,note_on,0,0,2,,,,,,,,,2,,,72,68
313440,note_on,170,0,2,,,,,,,,,2,,,77,68
313750,note_off,0,0,2,,,,,,,,,2,,,77,0
313750,note_off,310,0,2,,,,,,,,,2,,,72,0
313750,note_off,310,0,5,,,,,,,,,5,,,53,0
313750,note_off,310,0,1,,,,,,,,,1,,,80,0
313920,note_on,170,0,5,,,,,,,,,5,,,55,70
313920,note_on,170,0,2,,,,,,,,,2,,,72,70
313920,note_on,0,0,2,,,,,,,,,2,,,75,70
313920,note_on,170,0,1,,,,,,,,,1,,,79,70
314230,note_off,310,0,2,,,,,,,,,2,,,75,0
314230,note_off,310,0,1,,,,,,,,,1,,,79,0
314230,note_off,0,0,2,,,,,,,,,2,,,72,0
314230,note_off,310,0,5,,,,,,,,,5,,,55,0
314400,note_on,0,0,2,,,,,,,,,2,,,62,71
314400,note_on,170,0,5,,,,,,,,,5,,,43,71
314400,note_on,170,0,2,,,,,,,,,2,,,65,71
314400,note_on,170,0,1,,,,,,,,,1,,,71,71
314710,note_off,0,0,2,,,,,,,,,2,,,65,0
314710,note_off,310,0,1,,,,,,,,,1,,,71,0
314710,note_off,310,0,5,,,,,,,,,5,,,43,0
314710,note_off,310,0,2,,,,,,,,,2,,,62,0
314840,set_tempo,1880,1,0,,,,,,285714,,,,,,,
314880,note_on,170,0,1,,,,,,,,,1,,,72,73
314880,note_on,170,0,2,,,,,,,,,2,,,63,73
314880,set_tempo,40,1,0,,,,,,260869,,,,,,,
314880,note_on,170,0,5,,,,,,,,,5,,,48,73
315265,note_off,385,0,5,,,,,,,,,5,,,48,0
315265,note_off,385,0,2,,,,,,,,,2,,,63,0
315265,note_off,385,0,1,,,,,,,,,1,,,72,0
315360,note_on,95,0,1,,,,,,,,,1,,,79,74
315520,note_on,0,0,1,,,,,,,,,1,,,78,75
315520,note_off,160,0,1,,,,,,,,,1,,,79,0
315680,note_on,0,0,1,,,,,,,,,1,,,80,75
315680,note_off,160,0,1,,,,,,,,,1,,,78,0
315840,note_on,0,0,1,,,,,,,,,1,,,79,76
315840,note_off,160,0,1,,,,,,,,,1,,,80,0
316000,note_on,0,0,1,,,,,,,,,1,,,77,76
316000,note_off,160,0,1,,,,,,,,,1,,,79,0
316160,note_off,160,0,1,,,,,,,,,1,,,77,0
316160,note_on,0,0,1,,,,,,,,,1,,,75,76
316320,note_off,160,0,1,,,,,,,,,1,,,75,0
316320,note_on,0,0,1,,,,,,,,,1,,,74,77
316320,note_on,1055,0,5,,,,,,,,,5,,,60,77
316320,note_on,16920,0,4,,,,,,,,,4,,,63,77
316480,note_on,0,0,1,,,,,,,,,1,,,75,77
316480,note_off,160,0,1,,,,,,,,,1,,,74,0
316640,note_off,160,0,1,,,,,,,,,1,,,75,0
316640,note_on,0,0,1,,,,,,,,,1,,,72,78
316705,note_off,385,0,4,,,,,,,,,4,,,63,0
316705,note_off,385,0,5,,,,,,,,,5,,,60,0
316760,set_tempo,1880,1,0,,,,,,263157,,,,,,,
316800,note_on,95,0,5,,,,,,,,,5,,,55,78
316800,set_tempo,40,1,0,,,,,,260869,,,,,,,
316800,note_on,95,0,4,,,,,,,,,4,,,62,78
316800,note_off,160,0,1,,,,,,,,,1,,,72,0
316800,note_on,0,0,1,,,,,,,,,1,,,71,78
316800,note_on,0,0,4,,,,,,,,,4,,,65,78
317185,note_off,385,0,4,,,,,,,,,4,,,65,0
317185,note_off,385,0,5,,,,,,,,,5,,,55,0
317185,note_off,385,0,1,,,,,,,,,1,,,71,0
317185,note_off,0,0,4,,,,,,,,,4,,,62,0
317280,note_on,95,0,1,,,,,,,,,1,,,77,80
317440,note_off,160,0,1,,,,,,,,,1,,,77,0
317440,note_on,0,0,1,,,,,,,,,1,,,76,80
317600,note_on,0,0,1,,,,,,,,,1,,,79,81
317600,note_off,160,0,1,,,,,,,,,1,,,76,0
317760,note_on,0,0,1,,,,,,,,,1,,,77,81
317760,note_off,160,0,1,,,,,,,,,1,,,79,0
317920,note_off,160,0,1,,,,,,,,,1,,,77,0
317920,note_on,0,0,1,,,,,,,,,1,,,75,82
318080,note_off,160,0,1,,,,,,,,,1,,,75,0
318080,note_on,0,0,1,,,,,,,,,1,,,74,82
318240,note_off,160,0,1,,,,,,,,,1,,,74,0
318240,note_on,1055,0,4,,,,,,,,,4,,,62,83
318240,note_on,0,0,4,,,,,,,,,4,,,65,83
318240,note_on,0,0,1,,,,,,,,,1,,,72,83
318240,note_on,1055,0,5,,,,,,,,,5,,,55,83
318400,note_off,160,0,1,,,,,,,,,1,,,72,0
318400,note_on,0,0,1,,,,,,,,,1,,,71,83
318560,note_off,160,0,1,,,,,,,,,1,,,71,0
318560,note_on,0,0,1,,,,,,,,,1,,,74,84
318625,note_off,385,0,4,,,,,,,,,4,,,65,0
318625,note_off,0,0,4,,,,,,,,,4,,,62,0
318625,note_off,385,0,5,,,,,,,,,5,,,55,0
318680,set_tempo,1880,1,0,,,,,,263157,,,,,,,
318720,note_on,0,0,1,,,,,,,,,1,,,72,84
318720,note_off,160,0,1,,,,,,,,,1,,,74,0
318720,note_on,95,0,5,,,,,,,,,5,,,60,84
318720,note_on,95,0,4,,,,,,,,,4,,,63,84
318720,set_tempo,40,1,0,,,,,,260869,,,,,,,
319105,note_off,385,0,5,,,,,,,,,5,,,60,0
319105,note_off,385,0,4,,,,,,,,,4,,,63,0
319105,note_off,385,0,1,,,,,,,,,1,,,72,0
319200,note_on,95,0,1,,,,,,,,,1,,,79,85
319360,note_off,160,0,1,,,,,,,,,1,,,79,0
319360,note_on,0,0,1,,,,,,,,,1,,,78,86
319520,note_off,160,0,1,,,,,,,,,1,,,78,0
319520,note_on,0,0,1,,,,,,,,,1,,,80,86
319680,note_off,160,0,1,,,,,,,,,1,,,80,0
319680,note_on,0,0,1,,,,,,,,,1,,,79,87
319840,note_on,0,0,1,,,,,,,,,1,,,77,87
319840,note_off,160,0,1,,,,,,,,,1,,,79,0
320000,note_on,0,0,1,,,,,,,,,1,,,75,88
320000,note_off,160,0,1,,,,,,,,,1,,,77,0
320160,note_on,1055,0,5,,,,,,,,,5,,,48,88
320160,note_on,0,0,1,,,,,,,,,1,,,74,88
320160,note_on,1055,0,4,,,,,,,,,4,,,51,88
320160,note_off,160,0,1,,,,,,,,,1,,,75,0
320320,note_off,160,0,1,,,,,,,,,1,,,74,0
320320,note_on,0,0,1,,,,,,,,,1,,,75,89
320480,note_on,0,0,1,,,,,,,,,1,,,72,89
320480,note_off,160,0,1,,,,,,,,,1,,,75,0
320545,note_off,385,0,4,,,,,,,,,4,,,51,0
320545,note_off,385,0,5,,,,,,,,,5,,,48,0
320600,set_tempo,1880,1,0,,,,,,266666,,,,,,,
320640,note_off,160,0,1,,,,,,,,,1,,,72,0
320640,note_on,0,0,1,,,,,,,,,1,,,80,90
320640,note_on,95,0,5,,,,,,,,,5,,,43,90
320640,set_tempo,40,1,0,,,,,,260869,,,,,,,
320640,note_on,0,0,4,,,,,,,,,4,,,53,90
320640,note_on,0,0,4,,,,,,,,,4,,,50,90
320640,note_on,95,0,4,,,,,,,,,4,,,47,90
320800,note_on,160,0,1,,,,,,,,,1,,,79,90
320827,note_off,27,0,1,,,,,,,,,1,,,80,0
320951,note_off,124,0,1,,,,,,,,,1,,,79,0
320960,note_on,9,0,1,,,,,,,,,1,,,77,91
321113,note_off,153,0,1,,,,,,,,,1,,,77,0
321120,note_on,7,0,1,,,,,,,,,1,,,75,91
321276,note_off,156,0,1,,,,,,,,,1,,,75,0
321280,note_on,4,0,1,,,,,,,,,1,,,74,92
321439,note_off,159,0,1,,,,,,,,,1,,,74,0
321440,note_on,1,0,1,,,,,,,,,1,,,72,92
321600,note_on,160,0,1,,,,,,,,,1,,,71,93
321602,note_off,2,0,1,,,,,,,,,1,,,72,0
321760,note_on,158,0,1,,,,,,,,,1,,,68,93
321764,note_off,4,0,1,,,,,,,,,1,,,71,0
321920,note_on,156,0,1,,,,,,,,,1,,,67,94
321927,note_off,7,0,1,,,,,,,,,1,,,68,0
322080,note_on,153,0,1,,,,,,,,,1,,,65,94
322090,note_off,10,0,1,,,,,,,,,1,,,67,0
322240,note_on,150,0,1,,,,,,,,,1,,,63,94
322253,note_off,13,0,1,,,,,,,,,1,,,65,0
322400,note_on,147,0,1,,,,,,,,,1,,,62,95
322415,note_off,15,0,1,,,,,,,,,1,,,63,0
322520,set_tempo,1880,1,0,,,,,,265486,,,,,,,
322560,set_tempo,40,1,0,,,,,,263157,,,,,,,
322560,note_on,0,0,5,,,,,,,,,5,,,36,101
322560,note_off,1920,0,5,,,,,,,,,5,,,43,0
322560,note_off,1920,0,4,,,,,,,,,4,,,53,0
322560,note_off,0,0,4,,,,,,,,,4,,,50,0
322560,note_off,0,0,4,,,,,,,,,4,,,47,0
322560,note_on,145,0,1,,,,,,,,,1,,,60,95
322560,note_on,0,0,5,,,,,,,,,5,,,48,101
322578,note_off,18,0,1,,,,,,,,,1,,,62,0
323185,note_off,0,0,5,,,,,,,,,5,,,36,0
323185,note_off,625,0,5,,,,,,,,,5,,,48,0
323520,note_on,0,0,5,,,,,,,,,5,,,39,96
323520,note_on,335,0,5,,,,,,,,,5,,,51,96
323527,note_off,949,0,1,,,,,,,,,1,,,60,0
323760,note_off,240,0,5,,,,,,,,,5,,,39,0
323760,note_off,0,0,5,,,,,,,,,5,,,51,0
324000,note_on,240,0,5,,,,,,,,,5,,,55,94
324000,note_on,0,0,5,,,,,,,,,5,,,43,94
324240,note_off,0,0,5,,,,,,,,,5,,,55,0
324240,note_off,240,0,5,,,,,,,,,5,,,43,0
324480,note_on,0,0,5,,,,,,,,,5,,,48,91
324480,note_on,953,0,1,,,,,,,,,1,,,72,99
324480,note_on,240,0,5,,,,,,,,,5,,,60,91
324720,note_off,240,0,5,,,,,,,,,5,,,48,0
324720,note_off,0,0,5,,,,,,,,,5,,,60,0
324960,note_on,0,0,5,,,,,,,,,5,,,51,89
324960,note_on,240,0,5,,,,,,,,,5,,,63,89
325105,note_off,625,0,1,,,,,,,,,1,,,72,0
325200,note_off,240,0,5,,,,,,,,,5,,,51,0
325200,note_off,0,0,5,,,,,,,,,5,,,63,0
325440,note_on,335,0,1,,,,,,,,,1,,,75,93
325680,note_off,240,0,1,,,,,,,,,1,,,75,0
325920,note_on,240,0,1,,,,,,,,,1,,,79,90
326160,note_off,240,0,1,,,,,,,,,1,,,79,0
326400,note_on,0,0,5,,,,,,,,,5,,,44,93
326400,note_on,1200,0,5,,,,,,,,,5,,,32,93
326400,note_on,240,0,1,,,,,,,,,1,,,84,87
326640,note_off,240,0,1,,,,,,,,,1,,,84,0
326880,note_on,240,0,1,,,,,,,,,1,,,87,84
327025,note_off,0,0,5,,,,,,,,,5,,,32,0
327025,note_off,625,0,5,,,,,,,,,5,,,44,0
327120,note_off,240,0,1,,,,,,,,,1,,,87,0
327360,note_on,335,0,5,,,,,,,,,5,,,36,88
327360,note_on,0,0,5,,,,,,,,,5,,,48,88
327600,note_off,240,0,5,,,,,,,,,5,,,48,0
327600,note_off,0,0,5,,,,,,,,,5,,,36,0
327840,note_on,240,0,5,,,,,,,,,5,,,39,86
327840,note_on,0,0,5,,,,,,,,,5,,,51,86
328080,note_off,240,0,5,,,,,,,,,5,,,51,0
328080,note_off,0,0,5,,,,,,,,,5,,,39,0
328320,note_on,240,0,5,,,,,,,,,5,,,56,84
328320,note_on,0,0,5,,,,,,,,,5,,,44,84
328320,note_on,1200,0,1,,,,,,,,,1,,,68,89
328560,note_off,240,0,5,,,,,,,,,5,,,44,0
328560,note_off,0,0,5,,,,,,,,,5,,,56,0
328800,note_on,240,0,5,,,,,,,,,5,,,60,82
328800,note_on,0,0,5,,,,,,,,,5,,,48,82
328945,note_off,625,0,1,,,,,,,,,1,,,68,0
329040,note_off,0,0,5,,,,,,,,,5,,,60,0
329040,note_off,240,0,5,,,,,,,,,5,,,48,0
329280,note_on,335,0,1,,,,,,,,,1,,,72,83
329520,note_off,240,0,1,,,,,,,,,1,,,72,0
329760,note_on,240,0,1,,,,,,,,,1,,,75,80
330000,note_off,240,0,1,,,,,,,,,1,,,75,0
330240,note_on,240,0,1,,,,,,,,,1,,,81,77
330240,note_on,1200,0,5,,,,,,,,,5,,,42,85
330240,note_on,0,0,5,,,,,,,,,5,,,30,85
330480,note_off,240,0,1,,,,,,,,,1,,,81,0
330720,note_on,240,0,1,,,,,,,,,1,,,84,74
330865,note_off,0,0,5,,,,,,,,,5,,,42,0
330865,note_off,625,0,5,,,,,,,,,5,,,30,0
330960,note_off,240,0,1,,,,,,,,,1,,,84,0
331200,note_on,0,0,5,,,,,,,,,5,,,45,80
331200,note_on,335,0,5,,,,,,,,,5,,,33,80
331440,note_off,240,0,5,,,,,,,,,5,,,45,0
331440,note_off,0,0,5,,,,,,,,,5,,,33,0
331680,note_on,720,0,1,,,,,,,,,1,,,84,75
331680,note_on,0,0,5,,,,,,,,,5,,,48,78
331680,note_on,240,0,5,,,,,,,,,5,,,36,78
331824,note_off,144,0,1,,,,,,,,,1,,,84,0
331840,note_on,16,0,1,,,,,,,,,1,,,87,75
331920,note_off,240,0,5,,,,,,,,,5,,,48,0
331920,note_off,0,0,5,,,,,,,,,5,,,36,0
331984,note_off,144,0,1,,,,,,,,,1,,,87,0
332000,note_on,16,0,1,,,,,,,,,1,,,84,74
332145,note_off,145,0,1,,,,,,,,,1,,,84,0
332160,note_on,0,0,5,,,,,,,,,5,,,42,75
332160,note_on,240,0,5,,,,,,,,,5,,,54,75
332160,note_on,15,0,1,,,,,,,,,1,,,81,74
332304,note_off,144,0,1,,,,,,,,,1,,,81,0
332320,note_on,16,0,1,,,,,,,,,1,,,84,74
332400,note_off,240,0,5,,,,,,,,,5,,,42,0
332400,note_off,0,0,5,,,,,,,,,5,,,54,0
332464,note_off,144,0,1,,,,,,,,,1,,,84,0
332480,note_on,16,0,1,,,,,,,,,1,,,81,73
332624,note_off,144,0,1,,,,,,,,,1,,,81,0
332640,note_on,16,0,1,,,,,,,,,1,,,78,73
332640,note_on,240,0,5,,,,,,,,,5,,,57,73
332640,note_on,0,0,5,,,,,,,,,5,,,45,73
332784,note_off,144,0,1,,,,,,,,,1,,,78,0
332800,note_on,16,0,1,,,,,,,,,1,,,81,72
332880,note_off,240,0,5,,,,,,,,,5,,,45,0
332880,note_off,0,0,5,,,,,,,,,5,,,57,0
332944,note_off,144,0,1,,,,,,,,,1,,,81,0
332960,note_on,16,0,1,,,,,,,,,1,,,78,72
333104,note_off,144,0,1,,,,,,,,,1,,,78,0
333120,note_on,16,0,1,,,,,,,,,1,,,75,72
333120,note_on,240,0,5,,,,,,,,,5,,,60,71
333120,note_on,0,0,5,,,,,,,,,5,,,48,71
333264,note_off,144,0,1,,,,,,,,,1,,,75,0
333280,note_on,16,0,1,,,,,,,,,1,,,78,71
333360,note_off,0,0,5,,,,,,,,,5,,,60,0
333360,note_off,240,0,5,,,,,,,,,5,,,48,0
333424,note_off,144,0,1,,,,,,,,,1,,,78,0
333440,note_on,16,0,1,,,,,,,,,1,,,75,71
333584,note_off,144,0,1,,,,,,,,,1,,,75,0
333600,note_on,240,0,5,,,,,,,,,5,,,51,68
333600,note_on,16,0,1,,,,,,,,,1,,,72,71
333600,note_on,0,0,5,,,,,,,,,5,,,63,68
333744,note_off,144,0,1,,,,,,,,,1,,,72,0
333760,note_on,16,0,1,,,,,,,,,1,,,75,70
333840,note_off,0,0,5,,,,,,,,,5,,,51,0
333840,note_off,240,0,5,,,,,,,,,5,,,63,0
333904,note_off,144,0,1,,,,,,,,,1,,,75,0
333920,note_on,16,0,1,,,,,,,,,1,,,72,70
334040,set_tempo,11480,1,0,,,,,,271493,,,,,,,
334057,note_off,137,0,1,,,,,,,,,1,,,72,0
334080,note_on,23,0,1,,,,,,,,,1,,,67,70
334080,note_on,240,0,5,,,,,,,,,5,,,55,70
334080,set_tempo,40,1,0,,,,,,263157,,,,,,,
334240,note_on,21280,0,3,,,,,,,,,3,,,60,69
334384,note_off,144,0,3,,,,,,,,,3,,,60,0
334400,note_on,16,0,3,,,,,,,,,3,,,63,69
334440,note_off,360,0,1,,,,,,,,,1,,,67,0
334440,note_off,360,0,5,,,,,,,,,5,,,55,0
334544,note_off,144,0,3,,,,,,,,,3,,,63,0
334560,note_on,120,0,1,,,,,,,,,1,,,79,69
334560,note_on,120,0,5,,,,,,,,,5,,,55,69
334720,note_on,176,0,3,,,,,,,,,3,,,60,68
334864,note_off,144,0,3,,,,,,,,,3,,,60,0
334880,note_on,16,0,3,,,,,,,,,3,,,63,68
334920,note_off,360,0,5,,,,,,,,,5,,,55,0
335024,note_off,144,0,3,,,,,,,,,3,,,63,0
335040,note_on,120,0,5,,,,,,,,,5,,,55,68
335200,note_on,176,0,3,,,,,,,,,3,,,60,67
335344,note_off,144,0,3,,,,,,,,,3,,,60,0
335360,note_on,16,0,3,,,,,,,,,3,,,63,67
335400,note_off,360,0,5,,,,,,,,,5,,,55,0
335504,note_off,144,0,3,,,,,,,,,3,,,63,0
335520,note_off,960,0,1,,,,,,,,,1,,,79,0
335520,note_on,120,0,5,,,,,,,,,5,,,55,66
335520,note_on,0,0,1,,,,,,,,,1,,,77,66
335640,note_on,0,0,1,,,,,,,,,1,,,75,66
335640,note_off,120,0,1,,,,,,,,,1,,,77,0
335680,note_on,176,0,3,,,,,,,,,3,,,60,66
335760,note_off,120,0,1,,,,,,,,,1,,,75,0
335760,note_on,0,0,1,,,,,,,,,1,,,74,66
335824,note_off,144,0,3,,,,,,,,,3,,,60,0
335840,note_on,16,0,3,,,,,,,,,3,,,63,66
335880,note_off,360,0,5,,,,,,,,,5,,,55,0
335880,note_on,0,0,1,,,,,,,,,1,,,72,66
335880,note_off,120,0,1,,,,,,,,,1,,,74,0
335960,set_tempo,1880,1,0,,,,,,269058,,,,,,,
335976,note_off,96,0,1,,,,,,,,,1,,,72,0
335977,note_off,137,0,3,,,,,,,,,3,,,63,0
336000,note_on,120,0,5,,,,,,,,,5,,,55,65
336000,note_on,24,0,1,,,,,,,,,1,,,74,65
336000,set_tempo,40,1,0,,,,,,269058,,,,,,,
336060,set_tempo,60,1,0,,,,,,266666,,,,,,,
336078,note_off,78,0,1,,,,,,,,,1,,,74,0
336080,note_on,20815,0,2,,,,,,,,,2,,,75,65
336158,note_off,78,0,2,,,,,,,,,2,,,75,0
336160,note_on,183,0,3,,,,,,,,,3,,,59,65
336160,note_on,2,0,2,,,,,,,,,2,,,74,65
336238,note_off,78,0,2,,,,,,,,,2,,,74,0
336240,note_on,2,0,2,,,,,,,,,2,,,75,65
336304,note_off,144,0,3,,,,,,,,,3,,,59,0
336318,note_off,78,0,2,,,,,,,,,2,,,75,0
336320,note_on,2,0,2,,,,,,,,,2,,,74,65
336320,note_on,16,0,3,,,,,,,,,3,,,65,65
336360,note_off,360,0,5,,,,,,,,,5,,,55,0
336398,note_off,78,0,2,,,,,,,,,2,,,74,0
336400,note_on,2,0,2,,,,,,,,,2,,,75,64
336464,note_off,144,0,3,,,,,,,,,3,,,65,0
336478,note_off,78,0,2,,,,,,,,,2,,,75,0
336480,note_on,120,0,5,,,,,,,,,5,,,55,64
336480,note_on,2,0,2,,,,,,,,,2,,,74,64
336558,note_off,78,0,2,,,,,,,,,2,,,74,0
336560,note_on,2,0,2,,,,,,,,,2,,,75,64
336638,note_off,78,0,2,,,,,,,,,2,,,75,0
336640,note_on,176,0,3,,,,,,,,,3,,,59,64
336640,note_on,2,0,2,,,,,,,,,2,,,74,64
336718,note_off,78,0,2,,,,,,,,,2,,,74,0
336720,note_on,2,0,2,,,,,,,,,2,,,75,64
336784,note_off,144,0,3,,,,,,,,,3,,,59,0
336798,note_off,78,0,2,,,,,,,,,2,,,75,0
336800,note_on,16,0,3,,,,,,,,,3,,,65,64
336800,note_on,2,0,2,,,,,,,,,2,,,74,64
336840,note_off,360,0,5,,,,,,,,,5,,,55,0
336878,note_off,78,0,2,,,,,,,,,2,,,74,0
336880,note_on,2,0,2,,,,,,,,,2,,,75,63
336944,note_off,144,0,3,,,,,,,,,3,,,65,0
336958,note_off,78,0,2,,,,,,,,,2,,,75,0
336960,note_on,120,0,5,,,,,,,,,5,,,55,63
336960,note_on,2,0,2,,,,,,,,,2,,,74,63
337038,note_off,78,0,2,,,,,,,,,2,,,74,0
337040,note_on,2,0,2,,,,,,,,,2,,,75,63
337118,note_off,78,0,2,,,,,,,,,2,,,75,0
337120,note_on,2,0,2,,,,,,,,,2,,,74,63
337120,note_on,176,0,3,,,,,,,,,3,,,59,63
337198,note_off,78,0,2,,,,,,,,,2,,,74,0
337200,note_on,2,0,2,,,,,,,,,2,,,75,63
337264,note_off,144,0,3,,,,,,,,,3,,,59,0
337278,note_off,78,0,2,,,,,,,,,2,,,75,0
337280,note_on,2,0,2,,,,,,,,,2,,,74,63
337280,note_on,16,0,3,,,,,,,,,3,,,65,63
337320,note_off,360,0,5,,,,,,,,,5,,,55,0
337358,note_off,78,0,2,,,,,,,,,2,,,74,0
337360,note_on,2,0,2,,,,,,,,,2,,,75,62
337424,note_off,144,0,3,,,,,,,,,3,,,65,0
337438,note_off,78,0,2,,,,,,,,,2,,,75,0
337440,note_on,2,0,2,,,,,,,,,2,,,74,62
337440,note_on,120,0,5,,,,,,,,,5,,,55,62
337518,note_off,78,0,2,,,,,,,,,2,,,74,0
337520,note_on,2,0,2,,,,,,,,,2,,,75,62
337598,note_off,78,0,2,,,,,,,,,2,,,75,0
337600,note_on,176,0,3,,,,,,,,,3,,,59,62
337600,note_on,2,0,2,,,,,,,,,2,,,74,62
337678,note_off,78,0,2,,,,,,,,,2,,,74,0
337680,note_on,2,0,2,,,,,,,,,2,,,72,62
337744,note_off,144,0,3,,,,,,,,,3,,,59,0
337760,note_on,16,0,3,,,,,,,,,3,,,65,61
337800,note_off,360,0,5,,,,,,,,,5,,,55,0
337800,note_on,120,0,2,,,,,,,,,2,,,74,61
337815,note_off,15,0,2,,,,,,,,,2,,,72,0
337880,set_tempo,1820,1,0,,,,,,269058,,,,,,,
337905,note_off,145,0,3,,,,,,,,,3,,,65,0
337912,note_off,97,0,2,,,,,,,,,2,,,74,0
337920,set_tempo,40,1,0,,,,,,269058,,,,,,,
337920,note_on,120,0,5,,,,,,,,,5,,,60,61
337921,note_off,1,0,5,,,,,,,,,5,,,60,0
338080,note_on,168,0,2,,,,,,,,,2,,,72,61
338240,note_off,160,0,2,,,,,,,,,2,,,72,0
338240,note_on,0,0,2,,,,,,,,,2,,,84,60
338370,note_off,130,0,2,,,,,,,,,2,,,84,0
338400,note_on,479,0,5,,,,,,,,,5,,,59,60
338560,note_on,190,0,2,,,,,,,,,2,,,71,60
338720,note_off,160,0,2,,,,,,,,,2,,,71,0
338720,note_on,0,0,2,,,,,,,,,2,,,83,59
338864,note_off,144,0,2,,,,,,,,,2,,,83,0
338880,note_off,480,0,5,,,,,,,,,5,,,59,0
338880,note_on,0,0,5,,,,,,,,,5,,,60,59
339040,note_on,176,0,2,,,,,,,,,2,,,72,59
339200,note_on,0,0,2,,,,,,,,,2,,,84,58
339200,note_off,160,0,2,,,,,,,,,2,,,72,0
339265,note_off,385,0,5,,,,,,,,,5,,,60,0
339344,note_off,144,0,2,,,,,,,,,2,,,84,0
339360,note_on,95,0,5,,,,,,,,,5,,,55,78
339520,note_on,176,0,2,,,,,,,,,2,,,67,70
339680,note_off,160,0,2,,,,,,,,,2,,,67,0
339680,note_on,0,0,2,,,,,,,,,2,,,79,62
339810,note_off,130,0,2,,,,,,,,,2,,,79,0
339840,note_off,480,0,5,,,,,,,,,5,,,55,0
339840,note_on,0,0,5,,,,,,,,,5,,,56,57
340000,note_on,190,0,2,,,,,,,,,2,,,68,56
340160,note_on,0,0,2,,,,,,,,,2,,,80,56
340160,note_off,160,0,2,,,,,,,,,2,,,68,0
340304,note_off,144,0,2,,,,,,,,,2,,,80,0
340320,note_off,480,0,5,,,,,,,,,5,,,56,0
340320,note_on,0,0,5,,,,,,,,,5,,,55,56
340480,note_on,176,0,2,,,,,,,,,2,,,67,55
340640,note_on,0,0,2,,,,,,,,,2,,,79,55
340640,note_off,160,0,2,,,,,,,,,2,,,67,0
340784,note_off,144,0,2,,,,,,,,,2,,,79,0
340800,note_off,480,0,5,,,,,,,,,5,,,55,0
340800,note_on,0,0,5,,,,,,,,,5,,,56,55
340960,note_on,176,0,2,,,,,,,,,2,,,68,54
341120,note_off,160,0,2,,,,,,,,,2,,,68,0
341120,note_on,0,0,2,,,,,,,,,2,,,80,54
341185,note_off,385,0,5,,,,,,,,,5,,,56,0
341264,note_off,144,0,2,,,,,,,,,2,,,80,0
341280,note_on,95,0,5,,,,,,,,,5,,,51,70
341440,note_on,176,0,2,,,,,,,,,2,,,63,64
341600,note_off,160,0,2,,,,,,,,,2,,,63,0
341600,note_on,0,0,2,,,,,,,,,2,,,75,58
341737,note_off,137,0,2,,,,,,,,,2,,,75,0
341760,note_on,0,0,5,,,,,,,,,5,,,53,53
341760,note_off,480,0,5,,,,,,,,,5,,,51,0
341920,note_on,183,0,2,,,,,,,,,2,,,65,52
342080,note_off,160,0,2,,,,,,,,,2,,,65,0
342080,note_on,0,0,2,,,,,,,,,2,,,77,52
342217,note_off,137,0,2,,,,,,,,,2,,,77,0
342240,note_off,480,0,5,,,,,,,,,5,,,53,0
342240,note_on,0,0,5,,,,,,,,,5,,,54,52
342400,note_on,183,0,2,,,,,,,,,2,,,66,51
342560,note_off,160,0,2,,,,,,,,,2,,,66,0
342560,note_on,0,0,2,,,,,,,,,2,,,78,51
342705,note_off,145,0,2,,,,,,,,,2,,,78,0
342720,note_off,480,0,5,,,,,,,,,5,,,54,0
342720,note_on,0,0,5,,,,,,,,,5,,,55,50
342880,note_on,175,0,2,,,,,,,,,2,,,67,50
343040,note_off,160,0,2,,,,,,,,,2,,,67,0
343040,note_on,0,0,2,,,,,,,,,2,,,79,50
343105,note_off,385,0,5,,,,,,,,,5,,,55,0
343177,note_off,137,0,2,,,,,,,,,2,,,79,0
343200,note_on,95,0,5,,,,,,,,,5,,,43,66
343360,note_on,183,0,2,,,,,,,,,2,,,55,60
343520,note_on,0,0,2,,,,,,,,,2,,,67,55
343520,note_off,160,0,2,,,,,,,,,2,,,55,0
343657,note_off,137,0,2,,,,,,,,,2,,,67,0
343680,note_on,0,0,5,,,,,,,,,5,,,48,48
343680,note_off,480,0,5,,,,,,,,,5,,,43,0
343840,note_on,183,0,2,,,,,,,,,2,,,60,48
344000,note_off,160,0,2,,,,,,,,,2,,,60,0
344000,note_on,0,0,2,,,,,,,,,2,,,72,48
344144,note_off,144,0,2,,,,,,,,,2,,,72,0
344160,note_off,480,0,5,,,,,,,,,5,,,48,0
344160,note_on,0,0,5,,,,,,,,,5,,,47,47
344320,note_on,176,0,2,,,,,,,,,2,,,59,47
344480,note_off,160,0,2,,,,,,,,,2,,,59,0
344480,note_on,0,0,2,,,,,,,,,2,,,71,47
344624,note_off,144,0,2,,,,,,,,,2,,,71,0
344640,note_on,0,0,5,,,,,,,,,5,,,48,46
344640,note_off,480,0,5,,,,,,,,,5,,,47,0
344800,note_on,176,0,2,,,,,,,,,2,,,60,46
344960,note_on,0,0,2,,,,,,,,,2,,,72,45
344960,note_off,160,0,2,,,,,,,,,2,,,60,0
345025,note_off,385,0,5,,,,,,,,,5,,,48,0
345104,note_off,144,0,2,,,,,,,,,2,,,72,0
345120,note_on,95,0,5,,,,,,,,,5,,,43,61
345280,note_on,176,0,2,,,,,,,,,2,,,55,55
345440,note_off,160,0,2,,,,,,,,,2,,,55,0
345440,note_on,0,0,2,,,,,,,,,2,,,67,50
345577,note_off,137,0,2,,,,,,,,,2,,,67,0
345600,note_on,0,0,5,,,,,,,,,5,,,44,44
345600,note_off,480,0,5,,,,,,,,,5,,,43,0
345760,note_on,183,0,2,,,,,,,,,2,,,56,44
345920,note_off,160,0,2,,,,,,,,,2,,,56,0
345920,note_on,0,0,2,,,,,,,,,2,,,68,43
346064,note_off,144,0,2,,,,,,,,,2,,,68,0
346080,note_on,0,0,5,,,,,,,,,5,,,43,43
346080,note_off,480,0,5,,,,,,,,,5,,,44,0
346240,note_on,176,0,2,,,,,,,,,2,,,55,43
346400,note_on,0,0,2,,,,,,,,,2,,,67,42
346400,note_off,160,0,2,,,,,,,,,2,,,55,0
346544,note_off,144,0,2,,,,,,,,,2,,,67,0
346560,note_on,0,0,5,,,,,,,,,5,,,44,42
346560,note_off,480,0,5,,,,,,,,,5,,,43,0
346720,note_on,176,0,2,,,,,,,,,2,,,56,42
346880,note_off,160,0,2,,,,,,,,,2,,,56,0
346880,note_on,0,0,2,,,,,,,,,2,,,68,41
346945,note_off,385,0,5,,,,,,,,,5,,,44,0
347024,note_off,144,0,2,,,,,,,,,2,,,68,0
347040,note_on,95,0,5,,,,,,,,,5,,,39,54
347200,note_on,176,0,2,,,,,,,,,2,,,51,49
347360,note_off,160,0,2,,,,,,,,,2,,,51,0
347360,note_on,0,0,2,,,,,,,,,2,,,63,44
347512,note_off,152,0,2,,,,,,,,,2,,,63,0
347520,note_on,0,0,5,,,,,,,,,5,,,41,40
347520,note_off,480,0,5,,,,,,,,,5,,,39,0
347680,note_on,168,0,2,,,,,,,,,2,,,53,39
347840,note_off,160,0,2,,,,,,,,,2,,,53,0
347840,note_on,0,0,2,,,,,,,,,2,,,65,39
347984,note_off,144,0,2,,,,,,,,,2,,,65,0
348000,note_off,480,0,5,,,,,,,,,5,,,41,0
348000,note_on,0,0,5,,,,,,,,,5,,,42,39
348160,note_on,176,0,2,,,,,,,,,2,,,54,38
348320,note_on,0,0,2,,,,,,,,,2,,,66,38
348320,note_off,160,0,2,,,,,,,,,2,,,54,0
348464,note_off,144,0,2,,,,,,,,,2,,,66,0
348480,note_off,480,0,5,,,,,,,,,5,,,42,0
348480,note_on,0,0,5,,,,,,,,,5,,,43,38
348640,note_on,176,0,2,,,,,,,,,2,,,55,37
348800,note_on,0,0,2,,,,,,,,,2,,,67,37
348800,note_off,160,0,2,,,,,,,,,2,,,55,0
348865,note_off,385,0,5,,,,,,,,,5,,,43,0
348944,note_off,144,0,2,,,,,,,,,2,,,67,0
348960,note_on,95,0,5,,,,,,,,,5,,,31,48
348960,set_tempo,11040,1,0,,,,,,271493,,,,,,,
349120,note_on,176,0,2,,,,,,,,,2,,,43,43
349120,set_tempo,160,1,0,,,,,,273972,,,,,,,
349275,note_off,155,0,2,,,,,,,,,2,,,43,0
349280,note_on,5,0,2,,,,,,,,,2,,,55,39
349280,set_tempo,160,1,0,,,,,,263157,,,,,,,
349400,set_tempo,120,1,0,,,,,,271493,,,,,,,
349410,note_off,130,0,2,,,,,,,,,2,,,55,0
349440,note_on,0,0,5,,,,,,,,,5,,,36,36
349440,note_off,480,0,5,,,,,,,,,5,,,31,0
349760,note_on,350,0,2,,,,,,,,,2,,,51,35
349800,note_off,360,0,5,,,,,,,,,5,,,36,0
349920,note_off,160,0,2,,,,,,,,,2,,,51,0
349920,note_on,0,0,2,,,,,,,,,2,,,55,34
350080,note_off,160,0,2,,,,,,,,,2,,,55,0
350080,note_on,0,0,2,,,,,,,,,2,,,51,34
350240,note_on,0,0,2,,,,,,,,,2,,,48,34
350240,note_off,160,0,2,,,,,,,,,2,,,51,0
350400,note_on,0,0,2,,,,,,,,,2,,,55,33
350400,note_off,160,0,2,,,,,,,,,2,,,48,0
350560,note_off,160,0,2,,,,,,,,,2,,,55,0
350560,note_on,0,0,2,,,,,,,,,2,,,51,33
350720,note_on,0,0,2,,,,,,,,,2,,,48,33
350720,note_off,160,0,2,,,,,,,,,2,,,51,0
350880,note_on,1080,0,5,,,,,,,,,5,,,31,43
350880,note_off,160,0,2,,,,,,,,,2,,,48,0
350880,note_on,0,0,2,,,,,,,,,2,,,53,43
351040,note_off,160,0,2,,,,,,,,,2,,,53,0
351040,note_on,0,0,2,,,,,,,,,2,,,50,39
351200,note_off,160,0,2,,,,,,,,,2,,,50,0
351200,note_on,0,0,2,,,,,,,,,2,,,47,35
351200,set_tempo,1800,1,0,,,,,,273972,,,,,,,
351337,note_off,137,0,2,,,,,,,,,2,,,47,0
351360,set_tempo,160,1,0,,,,,,272727,,,,,,,
351360,note_on,0,0,5,,,,,,,,,5,,,36,31
351360,note_off,480,0,5,,,,,,,,,5,,,31,0
351520,note_on,183,0,2,,,,,,,,,2,,,43,31
351680,note_off,160,0,2,,,,,,,,,2,,,43,0
351840,note_off,480,0,5,,,,,,,,,5,,,36,0
351840,note_on,160,0,2,,,,,,,,,2,,,51,30
352000,note_on,0,0,2,,,,,,,,,2,,,48,30
352000,note_off,160,0,2,,,,,,,,,2,,,51,0
352160,note_on,0,0,2,,,,,,,,,2,,,43,29
352160,note_off,160,0,2,,,,,,,,,2,,,48,0
352320,note_on,0,0,2,,,,,,,,,2,,,51,29
352320,note_off,160,0,2,,,,,,,,,2,,,43,0
352480,note_off,160,0,2,,,,,,,,,2,,,51,0
352480,note_on,0,0,2,,,,,,,,,2,,,48,29
352640,note_off,160,0,2,,,,,,,,,2,,,48,0
352640,note_on,0,0,2,,,,,,,,,2,,,43,28
352800,note_off,160,0,2,,,,,,,,,2,,,43,0
352800,note_on,0,0,2,,,,,,,,,2,,,50,39
352800,note_on,960,0,5,,,,,,,,,5,,,31,39
352800,set_tempo,1440,1,0,,,,,,273972,,,,,,,
352960,set_tempo,160,1,0,,,,,,276497,,,,,,,
352960,note_off,160,0,2,,,,,,,,,2,,,50,0
352960,note_on,0,0,2,,,,,,,,,2,,,47,35
353120,set_tempo,160,1,0,,,,,,298507,,,,,,,
353120,note_on,0,0,2,,,,,,,,,2,,,43,31
353120,note_off,160,0,2,,,,,,,,,2,,,47,0
353280,note_off,160,0,2,,,,,,,,,2,,,43,0
353280,note_on,0,0,2,,,,,,,,,2,,,48,27
353280,note_off,480,0,5,,,,,,,,,5,,,31,0
353280,note_on,0,0,5,,,,,,,,,5,,,36,27
353280,set_tempo,160,1,0,,,,,,301507,,,,,,,
353760,note_off,480,0,5,,,,,,,,,5,,,36,0
353760,note_off,480,0,2,,,,,,,,,2,,,48,0
354240,note_on,480,0,2,,,,,,,,,2,,,48,30
354240,note_on,480,0,5,,,,,,,,,5,,,36,30
354240,note_on,16335,0,3,,,,,,,,,3,,,43,30
354240,note_on,0,0,3,,,,,,,,,3,,,39,30
354720,note_off,480,0,3,,,,,,,,,3,,,39,0
354720,note_off,0,0,3,,,,,,,,,3,,,43,0
354720,note_off,480,0,2,,,,,,,,,2,,,48,0
354720,set_tempo,1440,1,0,,,,,,344827,,,,,,,
354720,note_off,480,0,5,,,,,,,,,5,,,36,0
355080,set_tempo,360,1,0,,,,,,500000,,,,,,,
355200,note_on,480,0,5,,,,,,,,,5,,,36,20
355200,note_on,0,0,3,,,,,,,,,3,,,43,20
355200,set_tempo,120,1,0,,,,,,402684,,,,,,,
355200,note_on,19122,0,1,,,,,,,,,1,,,48,20
355200,note_on,480,0,3,,,,,,,,,3,,,39,20
356160,note_off,960,0,5,,,,,,,,,5,,,36,0
356160,note_off,0,0,3,,,,,,,,,3,,,39,0
356160,note_off,960,0,3,,,,,,,,,3,,,43,0
356160,set_tempo,960,1,0,,,,,,750000,,,,,,,
356160,note_off,960,0,1,,,,,,,,,1,,,48,0
359040,control_change,2880,0,5,,,,,,,64,127,5,,,,
359040,note_on,0,0,5,,,,,,,,,5,,,51,48
359040,control_change,36480,0,4,,,,,,,64,127,4,,,,
359040,control_change,2880,0,1,,,,,,,64,0,1,,,,
359040,marker,0,1,0,,,,,,,,,,,,,
359040,set_tempo,2880,1,0,,,,,,1176470,,,,,,,
359040,note_on,0,0,1,,,,,,,,,1,,,70,48
359040,control_change,2880,0,3,,,,,,,64,127,3,,,,
359040,control_change,4320,0,2,,,,,,,64,0,2,,,,
359280,note_off,240,0,5,,,,,,,,,5,,,51,0
359280,note_on,240,0,3,,,,,,,,,3,,,55,49
359520,note_on,0,0,3,,,,,,,,,3,,,58,50
359520,note_off,240,0,3,,,,,,,,,3,,,55,0
359760,note_off,240,0,3,,,,,,,,,3,,,58,0
359760,note_on,0,0,3,,,,,,,,,3,,,55,51
359940,control_change,900,0,4,,,,,,,64,0,4,,,,
359940,control_change,180,0,3,,,,,,,64,0,3,,,,
359940,control_change,660,0,5,,,,,,,64,0,5,,,,
360000,control_change,60,0,4,,,,,,,64,127,4,,,,
360000,note_on,0,0,1,,,,,,,,,1,,,67,52
360000,note_off,960,0,1,,,,,,,,,1,,,70,0
360000,note_off,0,0,3,,,,,,,,,3,,,55,0
360000,control_change,60,0,3,,,,,,,64,127,3,,,,
360000,note_on,0,0,5,,,,,,,,,5,,,51,52
360000,control_change,60,0,5,,,,,,,64,127,5,,,,
360240,note_off,240,0,5,,,,,,,,,5,,,51,0
360240,note_on,240,0,3,,,,,,,,,3,,,55,53
360480,note_on,0,0,3,,,,,,,,,3,,,58,54
360480,note_off,480,0,1,,,,,,,,,1,,,67,0
360480,note_on,0,0,1,,,,,,,,,1,,,67,54
360480,note_off,240,0,3,,,,,,,,,3,,,55,0
360720,note_on,0,0,3,,,,,,,,,3,,,55,55
360720,note_off,240,0,3,,,,,,,,,3,,,58,0
360900,control_change,900,0,4,,,,,,,64,0,4,,,,
360900,control_change,660,0,5,,,,,,,64,0,5,,,,
360900,control_change,180,0,3,,,,,,,64,0,3,,,,
360960,note_off,480,0,1,,,,,,,,,1,,,67,0
360960,note_on,1920,0,2,,,,,,,,,2,,,63,58
360960,control_change,60,0,4,,,,,,,64,127,4,,,,
360960,control_change,60,0,5,,,,,,,64,127,5,,,,
360960,note_on,0,0,5,,,,,,,,,5,,,46,57
360960,control_change,60,0,3,,,,,,,64,127,3,,,,
360960,note_off,0,0,3,,,,,,,,,3,,,55,0
360960,note_on,0,0,1,,,,,,,,,1,,,67,58
361200,note_off,240,0,5,,,,,,,,,5,,,46,0
361200,note_on,240,0,3,,,,,,,,,3,,,51,56
361440,note_on,0,0,3,,,,,,,,,3,,,55,55
361440,note_off,240,0,3,,,,,,,,,3,,,51,0
361680,note_on,0,0,3,,,,,,,,,3,,,51,54
361680,note_off,240,0,3,,,,,,,,,3,,,55,0
361800,note_off,840,0,1,,,,,,,,,1,,,67,0
361800,note_on,0,0,1,,,,,,,,,1,,,68,53
361860,control_change,900,0,4,,,,,,,64,0,4,,,,
361860,control_change,180,0,3,,,,,,,64,0,3,,,,
361860,control_change,660,0,5,,,,,,,64,0,5,,,,
361920,note_off,0,0,3,,,,,,,,,3,,,51,0
361920,control_change,60,0,3,,,,,,,64,127,3,,,,
361920,note_off,120,0,1,,,,,,,,,1,,,68,0
361920,note_on,0,0,1,,,,,,,,,1,,,65,52
361920,note_on,0,0,5,,,,,,,,,5,,,46,52
361920,control_change,60,0,5,,,,,,,64,127,5,,,,
361920,control_change,60,0,4,,,,,,,64,127,4,,,,
361920,note_on,0,0,2,,,,,,,,,2,,,62,52
361920,note_off,960,0,2,,,,,,,,,2,,,63,0
362160,note_on,240,0,3,,,,,,,,,3,,,50,51
362160,note_off,240,0,5,,,,,,,,,5,,,46,0
362400,note_off,240,0,3,,,,,,,,,3,,,50,0
362400,note_off,480,0,2,,,,,,,,,2,,,62,0
362400,note_off,480,0,1,,,,,,,,,1,,,65,0
362400,note_on,0,0,3,,,,,,,,,3,,,53,50
362640,note_on,0,0,3,,,,,,,,,3,,,50,48
362640,note_off,240,0,3,,,,,,,,,3,,,53,0
362820,control_change,900,0,4,,,,,,,64,0,4,,,,
362820,control_change,180,0,3,,,,,,,64,0,3,,,,
362820,control_change,660,0,5,,,,,,,64,0,5,,,,
362832,note_off,12,0,3,,,,,,,,,3,,,50,0
362840,set_tempo,3800,1,0,,,,,,1276595,,,,,,,
362880,note_on,0,0,3,,,,,,,,,3,,,55,55
362880,control_change,48,0,3,,,,,,,64,127,3,,,,
362880,control_change,60,0,5,,,,,,,64,127,5,,,,
362880,control_change,60,0,4,,,,,,,64,127,4,,,,
362880,note_on,0,0,5,,,,,,,,,5,,,51,55
362880,note_on,480,0,1,,,,,,,,,1,,,63,55
362880,set_tempo,40,1,0,,,,,,1176470,,,,,,,
363120,note_off,240,0,3,,,,,,,,,3,,,55,0
363120,note_on,0,0,3,,,,,,,,,3,,,58,56
363360,note_off,240,0,3,,,,,,,,,3,,,58,0
363360,note_on,0,0,3,,,,,,,,,3,,,55,58
363600,note_off,240,0,3,,,,,,,,,3,,,55,0
363600,note_on,0,0,3,,,,,,,,,3,,,58,60
363780,control_change,180,0,3,,,,,,,64,0,3,,,,
363780,control_change,900,0,4,,,,,,,64,0,4,,,,
363780,control_change,900,0,5,,,,,,,64,0,5,,,,
363840,control_change,60,0,5,,,,,,,64,127,5,,,,
363840,control_change,60,0,3,,,,,,,64,127,3,,,,
363840,note_on,0,0,1,,,,,,,,,1,,,65,62
363840,note_off,0,0,3,,,,,,,,,3,,,58,0
363840,note_on,0,0,3,,,,,,,,,3,,,62,62
363840,note_off,960,0,1,,,,,,,,,1,,,63,0
363840,control_change,0,0,4,,,,,,,64,127,4,,,,
363840,control_change,60,0,4,,,,,,,64,127,4,,,,
363840,note_on,0,0,5,,,,,,,,,5,,,46,62
363840,note_off,0,0,5,,,,,,,,,5,,,51,0
363840,control_change,0,0,5,,,,,,,64,127,5,,,,
363840,control_change,0,0,3,,,,,,,64,127,3,,,,
364080,note_off,240,0,3,,,,,,,,,3,,,62,0
364080,note_on,0,0,3,,,,,,,,,3,,,58,64
364320,note_on,0,0,3,,,,,,,,,3,,,62,65
364320,note_off,240,0,3,,,,,,,,,3,,,58,0
364560,note_off,240,0,3,,,,,,,,,3,,,62,0
364560,note_on,0,0,3,,,,,,,,,3,,,58,67
364740,control_change,180,0,3,,,,,,,64,0,3,,,,
364740,control_change,0,0,3,,,,,,,64,0,3,,,,
364740,control_change,0,0,5,,,,,,,64,0,5,,,,
364740,control_change,900,0,5,,,,,,,64,0,5,,,,
364740,control_change,0,0,4,,,,,,,64,0,4,,,,
364740,control_change,900,0,4,,,,,,,64,0,4,,,,
364800,note_off,60,0,3,,,,,,,,,3,,,58,0
364800,note_on,0,0,3,,,,,,,,,3,,,63,69
364800,note_on,0,0,5,,,,,,,,,5,,,39,69
364800,note_off,60,0,5,,,,,,,,,5,,,46,0
364800,note_off,960,0,1,,,,,,,,,1,,,65,0
364800,note_on,0,0,1,,,,,,,,,1,,,67,69
364920,note_off,120,0,1,,,,,,,,,1,,,67,0
364920,note_on,0,0,1,,,,,,,,,1,,,68,66
364960,note_off,40,0,1,,,,,,,,,1,,,68,0
364960,note_on,0,0,1,,,,,,,,,1,,,67,65
365000,note_off,40,0,1,,,,,,,,,1,,,67,0
365000,note_on,0,0,1,,,,,,,,,1,,,65,64
365040,note_off,40,0,1,,,,,,,,,1,,,65,0
365040,note_on,0,0,1,,,,,,,,,1,,,67,63
365160,note_on,0,0,1,,,,,,,,,1,,,68,60
365160,note_off,120,0,1,,,,,,,,,1,,,67,0
365280,note_off,480,0,3,,,,,,,,,3,,,63,0
365280,note_off,120,0,1,,,,,,,,,1,,,68,0
365280,note_on,0,0,1,,,,,,,,,1,,,70,57
365400,note_off,120,0,1,,,,,,,,,1,,,70,0
365400,note_on,0,0,1,,,,,,,,,1,,,72,55
365520,note_off,120,0,1,,,,,,,,,1,,,72,0
365520,note_on,0,0,1,,,,,,,,,1,,,74,52
365640,note_on,0,0,1,,,,,,,,,1,,,75,49
365640,note_off,120,0,1,,,,,,,,,1,,,74,0
365720,set_tempo,2840,1,0,,,,,,1224489,,,,,,,
365760,note_on,0,0,1,,,,,,,,,1,,,70,46
365760,set_tempo,40,1,0,,,,,,1276595,,,,,,,
365760,note_off,960,0,5,,,,,,,,,5,,,39,0
365760,note_off,120,0,1,,,,,,,,,1,,,75,0
366000,note_off,240,0,1,,,,,,,,,1,,,70,0
366240,note_on,240,0,1,,,,,,,,,1,,,79,48
366240,note_on,3840,0,2,,,,,,,,,2,,,75,48
366240,set_tempo,480,1,0,,,,,,1200000,,,,,,,
366480,note_on,0,0,1,,,,,,,,,1,,,77,50
366480,note_on,0,0,2,,,,,,,,,2,,,74,50
366480,note_off,240,0,2,,,,,,,,,2,,,75,0
366480,note_off,240,0,1,,,,,,,,,1,,,79,0
366720,note_on,0,0,1,,,,,,,,,1,,,75,51
366720,note_off,240,0,2,,,,,,,,,2,,,74,0
366720,note_on,0,0,2,,,,,,,,,2,,,72,51
366720,note_off,240,0,1,,,,,,,,,1,,,77,0
366960,note_off,240,0,1,,,,,,,,,1,,,75,0
366960,note_on,0,0,1,,,,,,,,,1,,,74,52
366960,note_off,240,0,2,,,,,,,,,2,,,72,0
366960,note_on,0,0,2,,,,,,,,,2,,,70,52
367200,note_off,240,0,1,,,,,,,,,1,,,74,0
367200,note_on,0,0,1,,,,,,,,,1,,,72,54
367200,note_off,240,0,2,,,,,,,,,2,,,70,0
367200,note_on,0,0,2,,,,,,,,,2,,,68,54
367200,note_on,1440,0,5,,,,,,,,,5,,,50,54
367440,note_off,240,0,2,,,,,,,,,2,,,68,0
367440,note_on,0,0,1,,,,,,,,,1,,,70,55
367440,note_off,240,0,1,,,,,,,,,1,,,72,0
367440,note_on,0,0,2,,,,,,,,,2,,,67,55
367440,note_off,240,0,5,,,,,,,,,5,,,50,0
367440,note_on,0,0,5,,,,,,,,,5,,,51,55
367680,note_on,0,0,1,,,,,,,,,1,,,68,57
367680,note_off,240,0,5,,,,,,,,,5,,,51,0
367680,note_on,0,0,5,,,,,,,,,5,,,53,57
367680,note_off,240,0,1,,,,,,,,,1,,,70,0
367680,note_on,0,0,2,,,,,,,,,2,,,65,57
367680,note_off,240,0,2,,,,,,,,,2,,,67,0
367920,note_on,0,0,5,,,,,,,,,5,,,55,58
367920,note_off,240,0,5,,,,,,,,,5,,,53,0
367920,note_off,240,0,2,,,,,,,,,2,,,65,0
367920,note_on,0,0,2,,,,,,,,,2,,,63,58
367920,note_off,240,0,1,,,,,,,,,1,,,68,0
367920,note_on,0,0,1,,,,,,,,,1,,,67,58
368160,note_on,0,0,1,,,,,,,,,1,,,72,60
368160,note_on,0,0,5,,,,,,,,,5,,,56,60
368160,note_off,240,0,5,,,,,,,,,5,,,55,0
368160,note_off,240,0,2,,,,,,,,,2,,,63,0
368160,note_off,240,0,1,,,,,,,,,1,,,67,0
368160,note_on,0,0,2,,,,,,,,,2,,,60,60
368400,note_on,0,0,1,,,,,,,,,1,,,68,61
368400,note_off,240,0,5,,,,,,,,,5,,,56,0
368400,note_on,0,0,5,,,,,,,,,5,,,53,61
368400,note_on,0,0,2,,,,,,,,,2,,,65,61
368400,note_off,240,0,1,,,,,,,,,1,,,72,0
368400,note_off,240,0,2,,,,,,,,,2,,,60,0
368535,set_tempo,2295,1,0,,,,,,1224489,,,,,,,
368592,note_off,192,0,2,,,,,,,,,2,,,65,0
368592,note_off,192,0,1,,,,,,,,,1,,,68,0
368592,note_off,192,0,5,,,,,,,,,5,,,53,0
368640,note_on,48,0,1,,,,,,,,,1,,,67,62
368640,note_on,48,0,5,,,,,,,,,5,,,57,64
368640,note_on,48,0,2,,,,,,,,,2,,,63,62
368880,note_off,240,0,5,,,,,,,,,5,,,57,0
368880,note_on,0,0,5,,,,,,,,,5,,,58,60
369120,note_on,0,0,5,,,,,,,,,5,,,55,58
369120,note_off,240,0,5,,,,,,,,,5,,,58,0
369360,note_on,0,0,5,,,,,,,,,5,,,51,56
369360,note_off,240,0,5,,,,,,,,,5,,,55,0
369600,note_on,0,0,2,,,,,,,,,2,,,62,54
369600,note_off,240,0,5,,,,,,,,,5,,,51,0
369600,note_on,0,0,1,,,,,,,,,1,,,65,54
369600,set_tempo,1065,1,0,,,,,,1333333,,,,,,,
369600,note_off,960,0,2,,,,,,,,,2,,,63,0
369600,note_off,960,0,1,,,,,,,,,1,,,67,0
369600,note_on,0,0,5,,,,,,,,,5,,,46,54
369720,set_tempo,120,1,0,,,,,,1224489,,,,,,,
369790,note_off,190,0,1,,,,,,,,,1,,,65,0
369840,note_on,50,0,1,,,,,,,,,1,,,67,52
370030,note_off,190,0,1,,,,,,,,,1,,,67,0
370080,note_off,480,0,5,,,,,,,,,5,,,46,0
370080,note_off,480,0,2,,,,,,,,,2,,,62,0
370080,note_on,50,0,1,,,,,,,,,1,,,68,50
370270,note_off,190,0,1,,,,,,,,,1,,,68,0
370320,note_on,50,0,1,,,,,,,,,1,,,69,48
370440,set_tempo,720,1,0,,,,,,1578947,,,,,,,
370510,note_off,190,0,1,,,,,,,,,1,,,69,0
370560,note_on,0,0,5,,,,,,,,,5,,,51,50
370560,note_on,50,0,1,,,,,,,,,1,,,70,50
370560,control_change,5280,0,3,,,,,,,64,127,3,,,,
370560,control_change,5820,0,4,,,,,,,64,127,4,,,,
370560,set_tempo,120,1,0,,,,,,1176470,,,,,,,
370560,control_change,480,0,5,,,,,,,64,127,5,,,,
370800,note_on,240,0,3,,,,,,,,,3,,,55,51
370800,note_off,240,0,5,,,,,,,,,5,,,51,0
371040,note_off,240,0,3,,,,,,,,,3,,,55,0
371040,note_on,0,0,3,,,,,,,,,3,,,58,52
371160,note_off,600,0,1,,,,,,,,,1,,,70,0
371160,note_on,0,0,1,,,,,,,,,1,,,74,53
371280,note_on,0,0,3,,,,,,,,,3,,,55,53
371280,note_off,240,0,3,,,,,,,,,3,,,58,0
371280,note_on,0,0,1,,,,,,,,,1,,,75,53
371280,note_off,120,0,1,,,,,,,,,1,,,74,0
371400,note_on,0,0,1,,,,,,,,,1,,,70,54
371400,note_off,120,0,1,,,,,,,,,1,,,75,0
371460,control_change,900,0,4,,,,,,,64,0,4,,,,
371460,control_change,180,0,3,,,,,,,64,0,3,,,,
371460,control_change,660,0,5,,,,,,,64,0,5,,,,
371520,control_change,60,0,4,,,,,,,64,127,4,,,,
371520,note_off,0,0,3,,,,,,,,,3,,,55,0
371520,control_change,60,0,3,,,,,,,64,127,3,,,,
371520,note_on,0,0,1,,,,,,,,,1,,,67,54
371520,note_off,120,0,1,,,,,,,,,1,,,70,0
371520,control_change,60,0,5,,,,,,,64,127,5,,,,
371520,note_on,0,0,5,,,,,,,,,5,,,51,54
371710,note_off,190,0,1,,,,,,,,,1,,,67,0
371760,note_off,240,0,5,,,,,,,,,5,,,51,0
371760,note_on,50,0,1,,,,,,,,,1,,,67,55
371760,note_on,240,0,3,,,,,,,,,3,,,55,55
371950,note_off,190,0,1,,,,,,,,,1,,,67,0
372000,note_off,240,0,3,,,,,,,,,3,,,55,0
372000,note_on,0,0,3,,,,,,,,,3,,,58,56
372000,note_on,50,0,1,,,,,,,,,1,,,67,56
372190,note_off,190,0,1,,,,,,,,,1,,,67,0
372240,note_off,240,0,3,,,,,,,,,3,,,58,0
372240,note_on,0,0,3,,,,,,,,,3,,,55,57
372240,note_on,50,0,1,,,,,,,,,1,,,67,57
372420,control_change,180,0,3,,,,,,,64,0,3,,,,
372420,control_change,660,0,5,,,,,,,64,0,5,,,,
372420,control_change,900,0,4,,,,,,,64,0,4,,,,
372430,note_off,190,0,1,,,,,,,,,1,,,67,0
372480,note_off,0,0,3,,,,,,,,,3,,,55,0
372480,note_on,50,0,1,,,,,,,,,1,,,67,59
372480,control_change,60,0,3,,,,,,,64,127,3,,,,
372480,note_on,2400,0,2,,,,,,,,,2,,,63,59
372480,note_on,0,0,5,,,,,,,,,5,,,46,59
372480,control_change,60,0,5,,,,,,,64,127,5,,,,
372480,control_change,60,0,4,,,,,,,64,127,4,,,,
372720,note_on,240,0,3,,,,,,,,,3,,,51,57
372720,note_off,240,0,5,,,,,,,,,5,,,46,0
372960,note_on,0,0,3,,,,,,,,,3,,,55,56
372960,note_off,240,0,3,,,,,,,,,3,,,51,0
373020,note_off,540,0,1,,,,,,,,,1,,,67,0
373020,note_on,0,0,1,,,,,,,,,1,,,68,55
373080,note_off,60,0,1,,,,,,,,,1,,,68,0
373080,note_on,0,0,1,,,,,,,,,1,,,67,55
373140,note_off,60,0,1,,,,,,,,,1,,,67,0
373140,note_on,0,0,1,,,,,,,,,1,,,65,55
373200,note_on,0,0,1,,,,,,,,,1,,,67,54
373200,note_off,240,0,3,,,,,,,,,3,,,55,0
373200,note_off,60,0,1,,,,,,,,,1,,,65,0
373200,note_on,0,0,3,,,,,,,,,3,,,51,54
373320,note_off,120,0,1,,,,,,,,,1,,,67,0
373320,note_on,0,0,1,,,,,,,,,1,,,68,54
373380,control_change,900,0,4,,,,,,,64,0,4,,,,
373380,control_change,180,0,3,,,,,,,64,0,3,,,,
373380,control_change,660,0,5,,,,,,,64,0,5,,,,
373440,note_on,0,0,2,,,,,,,,,2,,,62,53
373440,control_change,60,0,3,,,,,,,64,127,3,,,,
373440,control_change,60,0,4,,,,,,,64,127,4,,,,
373440,control_change,60,0,5,,,,,,,64,127,5,,,,
373440,note_on,0,0,5,,,,,,,,,5,,,46,53
373440,note_off,120,0,1,,,,,,,,,1,,,68,0
373440,note_on,0,0,1,,,,,,,,,1,,,65,53
373440,note_off,0,0,3,,,,,,,,,3,,,51,0
373440,note_off,960,0,2,,,,,,,,,2,,,63,0
373680,note_off,240,0,5,,,,,,,,,5,,,46,0
373680,note_on,240,0,3,,,,,,,,,3,,,50,51
373920,note_off,480,0,1,,,,,,,,,1,,,65,0
373920,note_off,480,0,2,,,,,,,,,2,,,62,0
373920,note_on,0,0,3,,,,,,,,,3,,,53,50
373920,note_off,240,0,3,,,,,,,,,3,,,50,0
374040,note_on,120,0,1,,,,,,,,,1,,,70,49
374160,note_off,240,0,3,,,,,,,,,3,,,53,0
374160,note_on,0,0,1,,,,,,,,,1,,,68,48
374160,note_off,120,0,1,,,,,,,,,1,,,70,0
374160,note_on,0,0,3,,,,,,,,,3,,,50,48
374280,note_on,0,0,1,,,,,,,,,1,,,65,48
374280,note_off,120,0,1,,,,,,,,,1,,,68,0
374340,control_change,180,0,3,,,,,,,64,0,3,,,,
374340,control_change,660,0,5,,,,,,,64,0,5,,,,
374340,control_change,900,0,4,,,,,,,64,0,4,,,,
374352,note_off,12,0,3,,,,,,,,,3,,,50,0
374360,set_tempo,3800,1,0,,,,,,1428571,,,,,,,
374376,note_off,96,0,1,,,,,,,,,1,,,65,0
374400,note_on,24,0,1,,,,,,,,,1,,,63,52
374400,control_change,60,0,5,,,,,,,64,127,5,,,,
374400,note_on,0,0,5,,,,,,,,,5,,,51,52
374400,control_change,60,0,4,,,,,,,64,127,4,,,,
374400,set_tempo,40,1,0,,,,,,1176470,,,,,,,
374400,control_change,48,0,3,,,,,,,64,127,3,,,,
374640,note_on,240,0,3,,,,,,,,,3,,,58,54
374880,note_on,0,0,3,,,,,,,,,3,,,55,56
374880,note_off,240,0,3,,,,,,,,,3,,,58,0
375120,note_off,240,0,3,,,,,,,,,3,,,55,0
375120,note_on,0,0,3,,,,,,,,,3,,,58,58
375300,control_change,900,0,5,,,,,,,64,0,5,,,,
375300,control_change,900,0,4,,,,,,,64,0,4,,,,
375300,control_change,180,0,3,,,,,,,64,0,3,,,,
375360,note_on,0,0,1,,,,,,,,,1,,,65,59
375360,control_change,60,0,5,,,,,,,64,127,5,,,,
375360,note_off,0,0,5,,,,,,,,,5,,,51,0
375360,note_on,0,0,5,,,,,,,,,5,,,46,59
375360,control_change,60,0,3,,,,,,,64,127,3,,,,
375360,note_off,0,0,3,,,,,,,,,3,,,58,0
375360,note_on,0,0,3,,,,,,,,,3,,,62,59
375360,note_off,960,0,1,,,,,,,,,1,,,63,0
375360,control_change,60,0,4,,,,,,,64,127,4,,,,
375600,note_off,240,0,3,,,,,,,,,3,,,62,0
375600,note_on,0,0,3,,,,,,,,,3,,,58,61
375840,note_on,0,0,3,,,,,,,,,3,,,62,63
375840,note_off,240,0,3,,,,,,,,,3,,,58,0
376080,note_on,0,0,3,,,,,,,,,3,,,58,65
376080,note_off,240,0,3,,,,,,,,,3,,,62,0
376260,control_change,900,0,4,,,,,,,64,0,4,,,,
376260,control_change,180,0,3,,,,,,,64,0,3,,,,
376260,control_change,900,0,5,,,,,,,64,0,5,,,,
376320,note_off,960,0,1,,,,,,,,,1,,,65,0
376320,note_on,0,0,1,,,,,,,,,1,,,67,69
376320,note_on,0,0,5,,,,,,,,,5,,,39,69
376320,note_off,60,0,3,,,,,,,,,3,,,58,0
376320,note_on,0,0,3,,,,,,,,,3,,,63,69
376320,note_off,60,0,5,,,,,,,,,5,,,46,0
376440,note_off,120,0,1,,,,,,,,,1,,,67,0
376440,note_on,0,0,1,,,,,,,,,1,,,68,66
376480,note_off,40,0,1,,,,,,,,,1,,,68,0
376480,note_on,0,0,1,,,,,,,,,1,,,67,65
376520,note_off,40,0,1,,,,,,,,,1,,,67,0
376520,note_on,0,0,1,,,,,,,,,1,,,65,64
376560,note_off,40,0,1,,,,,,,,,1,,,65,0
376560,note_on,0,0,1,,,,,,,,,1,,,67,63
376680,note_off,120,0,1,,,,,,,,,1,,,67,0
376680,note_on,0,0,1,,,,,,,,,1,,,68,61
376800,note_off,480,0,3,,,,,,,,,3,,,63,0
376800,note_off,120,0,1,,,,,,,,,1,,,68,0
376800,note_on,0,0,1,,,,,,,,,1,,,70,58
376920,note_off,120,0,1,,,,,,,,,1,,,70,0
376920,note_on,0,0,1,,,,,,,,,1,,,72,56
377040,note_on,0,0,1,,,,,,,,,1,,,74,53
377040,note_off,120,0,1,,,,,,,,,1,,,72,0
377160,note_off,120,0,1,,,,,,,,,1,,,74,0
377160,note_on,0,0,1,,,,,,,,,1,,,75,50
377240,set_tempo,2840,1,0,,,,,,1276595,,,,,,,
377280,note_on,0,0,1,,,,,,,,,1,,,70,47
377280,note_off,960,0,5,,,,,,,,,5,,,39,0
377280,note_off,120,0,1,,,,,,,,,1,,,75,0
377280,set_tempo,40,1,0,,,,,,1276595,,,,,,,
377472,note_off,192,0,1,,,,,,,,,1,,,70,0
377760,note_on,288,0,1,,,,,,,,,1,,,75,51
377760,set_tempo,480,1,0,,,,,,1200000,,,,,,,
377855,note_off,95,0,1,,,,,,,,,1,,,75,0
377880,note_on,25,0,1,,,,,,,,,1,,,74,53
377975,note_off,95,0,1,,,,,,,,,1,,,74,0
378000,note_on,25,0,1,,,,,,,,,1,,,73,55
378095,note_off,95,0,1,,,,,,,,,1,,,73,0
378120,note_on,25,0,1,,,,,,,,,1,,,72,57
378215,note_off,95,0,1,,,,,,,,,1,,,72,0
378240,note_on,25,0,1,,,,,,,,,1,,,71,60
378432,note_off,192,0,1,,,,,,,,,1,,,71,0
378480,note_on,2220,0,4,,,,,,,,,4,,,63,57
378480,note_on,1200,0,5,,,,,,,,,5,,,55,57
378672,note_off,192,0,5,,,,,,,,,5,,,55,0
378672,note_off,192,0,4,,,,,,,,,4,,,63,0
378720,note_on,288,0,1,,,,,,,,,1,,,75,56
378815,note_off,95,0,1,,,,,,,,,1,,,75,0
378840,note_on,25,0,1,,,,,,,,,1,,,74,59
378935,note_off,95,0,1,,,,,,,,,1,,,74,0
378960,note_on,25,0,1,,,,,,,,,1,,,73,61
379055,note_off,95,0,1,,,,,,,,,1,,,73,0
379080,note_on,25,0,1,,,,,,,,,1,,,72,63
379175,note_off,95,0,1,,,,,,,,,1,,,72,0
379200,note_on,25,0,1,,,,,,,,,1,,,71,66
379392,note_off,192,0,1,,,,,,,,,1,,,71,0
379440,note_on,768,0,5,,,,,,,,,5,,,55,61
379440,note_on,768,0,4,,,,,,,,,4,,,63,61
379632,note_off,192,0,5,,,,,,,,,5,,,55,0
379632,note_off,192,0,4,,,,,,,,,4,,,63,0
379680,note_on,288,0,1,,,,,,,,,1,,,75,60
379775,note_off,95,0,1,,,,,,,,,1,,,75,0
379800,note_on,25,0,1,,,,,,,,,1,,,74,63
379895,note_off,95,0,1,,,,,,,,,1,,,74,0
379920,note_on,25,0,1,,,,,,,,,1,,,73,65
380015,note_off,95,0,1,,,,,,,,,1,,,73,0
380040,note_on,25,0,1,,,,,,,,,1,,,72,67
380120,set_tempo,2360,1,0,,,,,,1818181,,,,,,,
380135,note_off,95,0,1,,,,,,,,,1,,,72,0
380160,note_on,528,0,5,,,,,,,,,5,,,55,71
380160,note_on,25,0,1,,,,,,,,,1,,,71,69
380160,note_on,528,0,4,,,,,,,,,4,,,63,71
380160,set_tempo,40,1,0,,,,,,1224489,,,,,,,
381120,note_on,0,0,5,,,,,,,,,5,,,56,50
381120,note_off,960,0,1,,,,,,,,,1,,,71,0
381120,note_off,960,0,5,,,,,,,,,5,,,55,0
381120,note_on,0,0,1,,,,,,,,,1,,,72,50
381360,note_off,1200,0,4,,,,,,,,,4,,,63,0
381360,note_off,240,0,5,,,,,,,,,5,,,56,0
381360,note_off,240,0,1,,,,,,,,,1,,,72,0
381480,set_tempo,1320,1,0,,,,,,1276595,,,,,,,
381600,set_tempo,120,1,0,,,,,,1224489,,,,,,,
381600,note_on,240,0,1,,,,,,,,,1,,,65,54
381695,note_off,95,0,1,,,,,,,,,1,,,65,0
381720,note_on,25,0,1,,,,,,,,,1,,,67,56
381815,note_off,95,0,1,,,,,,,,,1,,,67,0
381840,note_on,25,0,1,,,,,,,,,1,,,68,58
381935,note_off,95,0,1,,,,,,,,,1,,,68,0
381960,note_on,25,0,1,,,,,,,,,1,,,69,60
382040,set_tempo,440,1,0,,,,,,1276595,,,,,,,
382055,note_off,95,0,1,,,,,,,,,1,,,69,0
382080,set_tempo,40,1,0,,,,,,1224489,,,,,,,
382080,note_on,25,0,1,,,,,,,,,1,,,70,62
382560,note_on,1200,0,4,,,,,,,,,4,,,51,60
382560,note_on,1200,0,5,,,,,,,,,5,,,43,60
382680,note_on,0,0,1,,,,,,,,,1,,,72,59
382680,note_off,600,0,1,,,,,,,,,1,,,70,0
382800,note_off,120,0,1,,,,,,,,,1,,,72,0
382800,note_on,0,0,1,,,,,,,,,1,,,74,62
382920,note_on,0,0,1,,,,,,,,,1,,,75,66
382920,note_off,120,0,1,,,,,,,,,1,,,74,0
382980,note_off,420,0,4,,,,,,,,,4,,,51,0
382980,note_off,420,0,5,,,,,,,,,5,,,43,0
383000,set_tempo,920,1,0,,,,,,1276595,,,,,,,
383016,note_off,96,0,1,,,,,,,,,1,,,75,0
383040,note_on,60,0,5,,,,,,,,,5,,,46,69
383040,note_on,9120,0,2,,,,,,,,,2,,,58,69
383040,note_on,24,0,1,,,,,,,,,1,,,63,69
383040,note_on,60,0,4,,,,,,,,,4,,,55,69
383520,note_off,480,0,4,,,,,,,,,4,,,55,0
383520,note_on,0,0,4,,,,,,,,,4,,,56,60
383760,note_off,720,0,1,,,,,,,,,1,,,63,0
383760,note_on,0,0,1,,,,,,,,,1,,,67,57
383760,note_off,720,0,2,,,,,,,,,2,,,58,0
383760,note_on,0,0,2,,,,,,,,,2,,,62,57
383880,note_off,120,0,1,,,,,,,,,1,,,67,0
383880,note_on,0,0,1,,,,,,,,,1,,,65,55
383940,note_off,900,0,5,,,,,,,,,5,,,46,0
383940,note_off,420,0,4,,,,,,,,,4,,,56,0
383947,note_off,187,0,2,,,,,,,,,2,,,62,0
383960,set_tempo,960,1,0,,,,,,1333333,,,,,,,
383976,note_off,96,0,1,,,,,,,,,1,,,65,0
384000,note_on,60,0,5,,,,,,,,,5,,,51,53
384000,note_on,24,0,1,,,,,,,,,1,,,63,53
384000,note_on,60,0,4,,,,,,,,,4,,,55,53
384000,set_tempo,40,1,0,,,,,,1276595,,,,,,,
384307,note_off,307,0,1,,,,,,,,,1,,,63,0
384310,note_off,310,0,5,,,,,,,,,5,,,51,0
384310,note_off,310,0,4,,,,,,,,,4,,,55,0
384480,note_on,170,0,5,,,,,,,,,5,,,51,45
384480,note_on,170,0,4,,,,,,,,,4,,,55,45
384480,note_on,173,0,1,,,,,,,,,1,,,63,45
384780,note_off,300,0,1,,,,,,,,,1,,,63,0
384790,note_off,310,0,5,,,,,,,,,5,,,51,0
384790,note_off,310,0,4,,,,,,,,,4,,,55,0
385920,set_tempo,1920,1,0,,,,,,1176470,,,,,,,
385920,control_change,1130,0,4,,,,,,,64,127,4,,,,
385920,note_on,1140,0,1,,,,,,,,,1,,,77,47
385920,control_change,9120,0,3,,,,,,,64,127,3,,,,
385920,control_change,1130,0,5,,,,,,,64,127,5,,,,
385920,note_on,0,0,5,,,,,,,,,5,,,58,47
385920,note_on,0,0,4,,,,,,,,,4,,,74,47
386160,note_off,240,0,4,,,,,,,,,4,,,74,0
386160,note_on,240,0,3,,,,,,,,,3,,,65,48
386400,note_off,240,0,3,,,,,,,,,3,,,65,0
386400,note_on,240,0,4,,,,,,,,,4,,,74,49
386640,note_off,240,0,4,,,,,,,,,4,,,74,0
386640,note_on,240,0,3,,,,,,,,,3,,,65,50
386820,control_change,180,0,4,,,,,,,64,0,4,,,,
386820,control_change,180,0,3,,,,,,,64,0,3,,,,
386820,control_change,900,0,5,,,,,,,64,0,5,,,,
386880,control_change,60,0,3,,,,,,,64,127,3,,,,
386880,control_change,60,0,4,,,,,,,64,127,4,,,,
386880,note_on,0,0,4,,,,,,,,,4,,,70,51
386880,control_change,60,0,5,,,,,,,64,127,5,,,,
386880,note_off,960,0,1,,,,,,,,,1,,,77,0
386880,note_on,0,0,1,,,,,,,,,1,,,74,51
386880,note_off,0,0,3,,,,,,,,,3,,,65,0
387120,note_on,240,0,3,,,,,,,,,3,,,65,52
387120,note_off,240,0,4,,,,,,,,,4,,,70,0
387360,note_on,240,0,4,,,,,,,,,4,,,70,53
387360,note_off,240,0,3,,,,,,,,,3,,,65,0
387600,note_off,240,0,4,,,,,,,,,4,,,70,0
387600,note_on,240,0,3,,,,,,,,,3,,,65,54
387780,control_change,900,0,5,,,,,,,64,0,5,,,,
387780,control_change,180,0,3,,,,,,,64,0,3,,,,
387780,note_off,0,0,5,,,,,,,,,5,,,58,0
387780,control_change,180,0,4,,,,,,,64,0,4,,,,
387787,note_off,907,0,1,,,,,,,,,1,,,74,0
387792,note_off,12,0,3,,,,,,,,,3,,,65,0
387800,set_tempo,1880,1,0,,,,,,1224489,,,,,,,
387840,note_on,3893,0,2,,,,,,,,,2,,,74,57
387840,set_tempo,40,1,0,,,,,,1176470,,,,,,,
387840,note_on,60,0,5,,,,,,,,,5,,,53,57
387840,note_on,0,0,5,,,,,,,,,5,,,41,57
387840,note_on,53,0,1,,,,,,,,,1,,,77,57
388440,note_on,0,0,2,,,,,,,,,2,,,73,48
388440,note_off,600,0,2,,,,,,,,,2,,,74,0
388440,note_off,600,0,1,,,,,,,,,1,,,77,0
388440,note_on,0,0,1,,,,,,,,,1,,,76,48
388560,note_on,0,0,2,,,,,,,,,2,,,72,47
388560,note_off,120,0,1,,,,,,,,,1,,,76,0
388560,note_off,120,0,2,,,,,,,,,2,,,73,0
388560,note_on,0,0,1,,,,,,,,,1,,,75,47
388680,note_off,120,0,1,,,,,,,,,1,,,75,0
388680,note_off,120,0,2,,,,,,,,,2,,,72,0
388680,note_on,0,0,2,,,,,,,,,2,,,70,45
388680,note_on,0,0,1,,,,,,,,,1,,,74,45
388760,set_tempo,920,1,0,,,,,,1224489,,,,,,,
388800,note_on,0,0,1,,,,,,,,,1,,,72,43
388800,note_off,120,0,1,,,,,,,,,1,,,74,0
388800,note_off,120,0,2,,,,,,,,,2,,,70,0
388800,note_on,0,0,2,,,,,,,,,2,,,69,43
389040,note_off,240,0,1,,,,,,,,,1,,,72,0
389040,note_off,240,0,2,,,,,,,,,2,,,69,0
389040,note_off,1200,0,5,,,,,,,,,5,,,41,0
389040,note_off,0,0,5,,,,,,,,,5,,,53,0
389280,set_tempo,520,1,0,,,,,,1200000,,,,,,,
389280,note_on,240,0,1,,,,,,,,,1,,,78,46
389280,note_on,240,0,2,,,,,,,,,2,,,74,46
389400,note_on,0,0,2,,,,,,,,,2,,,75,47
389400,note_off,120,0,1,,,,,,,,,1,,,78,0
389400,note_on,0,0,1,,,,,,,,,1,,,79,47
389400,note_off,120,0,2,,,,,,,,,2,,,74,0
389520,note_off,120,0,1,,,,,,,,,1,,,79,0
389520,note_on,0,0,1,,,,,,,,,1,,,78,49
389520,note_on,0,0,2,,,,,,,,,2,,,74,49
389520,note_off,120,0,2,,,,,,,,,2,,,75,0
389640,note_off,120,0,1,,,,,,,,,1,,,78,0
389640,note_on,0,0,1,,,,,,,,,1,,,79,50
389640,note_off,120,0,2,,,,,,,,,2,,,74,0
389640,note_on,0,0,2,,,,,,,,,2,,,75,50
389760,note_on,720,0,5,,,,,,,,,5,,,66,51
389760,note_on,0,0,1,,,,,,,,,1,,,72,51
389760,note_off,120,0,1,,,,,,,,,1,,,79,0
389760,note_off,120,0,2,,,,,,,,,2,,,75,0
389760,note_on,0,0,2,,,,,,,,,2,,,69,51
389880,note_on,0,0,5,,,,,,,,,5,,,65,52
389880,note_off,120,0,5,,,,,,,,,5,,,66,0
390000,note_off,240,0,2,,,,,,,,,2,,,69,0
390000,note_on,0,0,5,,,,,,,,,5,,,66,53
390000,note_off,120,0,5,,,,,,,,,5,,,65,0
390000,note_off,240,0,1,,,,,,,,,1,,,72,0
390120,note_on,0,0,5,,,,,,,,,5,,,65,54
390120,note_off,120,0,5,,,,,,,,,5,,,66,0
390216,note_off,96,0,5,,,,,,,,,5,,,65,0
390240,note_on,240,0,1,,,,,,,,,1,,,78,55
390240,note_on,240,0,2,,,,,,,,,2,,,74,55
390360,note_on,0,0,2,,,,,,,,,2,,,75,56
390360,note_off,120,0,1,,,,,,,,,1,,,78,0
390360,note_on,0,0,1,,,,,,,,,1,,,79,56
390360,note_off,120,0,2,,,,,,,,,2,,,74,0
390480,note_off,120,0,1,,,,,,,,,1,,,79,0
390480,note_off,120,0,2,,,,,,,,,2,,,75,0
390480,note_on,0,0,2,,,,,,,,,2,,,74,57
390480,note_on,0,0,1,,,,,,,,,1,,,78,57
390600,note_on,0,0,1,,,,,,,,,1,,,79,58
390600,note_off,120,0,2,,,,,,,,,2,,,74,0
390600,note_on,0,0,2,,,,,,,,,2,,,75,58
390600,note_off,120,0,1,,,,,,,,,1,,,78,0
390720,note_off,120,0,1,,,,,,,,,1,,,79,0
390720,note_on,0,0,2,,,,,,,,,2,,,69,60
390720,note_off,120,0,2,,,,,,,,,2,,,75,0
390720,note_on,0,0,1,,,,,,,,,1,,,72,60
390720,note_on,504,0,5,,,,,,,,,5,,,66,60
390840,note_on,0,0,5,,,,,,,,,5,,,65,61
390840,note_off,120,0,5,,,,,,,,,5,,,66,0
390960,note_off,120,0,5,,,,,,,,,5,,,65,0
390960,note_off,240,0,2,,,,,,,,,2,,,69,0
390960,note_on,0,0,5,,,,,,,,,5,,,66,62
390960,note_off,240,0,1,,,,,,,,,1,,,72,0
391080,note_on,0,0,5,,,,,,,,,5,,,65,63
391080,note_off,120,0,5,,,,,,,,,5,,,66,0
391176,note_off,96,0,5,,,,,,,,,5,,,65,0
391200,note_on,240,0,1,,,,,,,,,1,,,71,64
391320,note_off,120,0,1,,,,,,,,,1,,,71,0
391320,note_on,0,0,1,,,,,,,,,1,,,72,65
391440,note_off,120,0,1,,,,,,,,,1,,,72,0
391440,note_on,0,0,1,,,,,,,,,1,,,74,66
391560,note_off,120,0,1,,,,,,,,,1,,,74,0
391560,note_on,0,0,1,,,,,,,,,1,,,75,67
391640,set_tempo,2360,1,0,,,,,,1333333,,,,,,,
391656,note_off,96,0,1,,,,,,,,,1,,,75,0
391680,control_change,504,0,5,,,,,,,64,127,5,,,,
391680,note_on,24,0,1,,,,,,,,,1,,,77,68
391680,note_on,0,0,5,,,,,,,,,5,,,58,73
391680,control_change,3900,0,4,,,,,,,64,127,4,,,,
391680,set_tempo,40,1,0,,,,,,1224489,,,,,,,
391680,control_change,3888,0,3,,,,,,,64,127,3,,,,
391920,note_on,240,0,3,,,,,,,,,3,,,60,63
392160,note_on,0,0,3,,,,,,,,,3,,,63,57
392160,note_off,240,0,3,,,,,,,,,3,,,60,0
392240,note_on,560,0,1,,,,,,,,,1,,,79,57
392242,note_off,2,0,1,,,,,,,,,1,,,77,0
392280,note_on,38,0,1,,,,,,,,,1,,,77,56
392300,note_off,20,0,1,,,,,,,,,1,,,79,0
392320,note_on,20,0,1,,,,,,,,,1,,,76,54
392340,note_off,20,0,1,,,,,,,,,1,,,77,0
392360,note_on,20,0,1,,,,,,,,,1,,,77,53
392380,note_off,20,0,1,,,,,,,,,1,,,76,0
392400,note_on,20,0,1,,,,,,,,,1,,,79,52
392400,note_on,0,0,3,,,,,,,,,3,,,69,52
392400,note_off,240,0,3,,,,,,,,,3,,,63,0
392420,note_off,20,0,1,,,,,,,,,1,,,77,0
392520,note_on,0,0,1,,,,,,,,,1,,,75,49
392520,note_off,100,0,1,,,,,,,,,1,,,79,0
392580,control_change,180,0,3,,,,,,,64,0,3,,,,
392580,control_change,900,0,4,,,,,,,64,0,4,,,,
392580,control_change,900,0,5,,,,,,,64,0,5,,,,
392600,set_tempo,920,1,0,,,,,,1276595,,,,,,,
392640,note_on,0,0,1,,,,,,,,,1,,,74,46
392640,note_on,0,0,3,,,,,,,,,3,,,70,46
392640,note_off,60,0,3,,,,,,,,,3,,,69,0
392640,note_off,120,0,1,,,,,,,,,1,,,75,0
392880,note_off,240,0,1,,,,,,,,,1,,,74,0
392880,note_off,300,0,5,,,,,,,,,5,,,58,0
392880,note_off,240,0,3,,,,,,,,,3,,,70,0
393120,set_tempo,520,1,0,,,,,,1224489,,,,,,,
393120,note_on,240,0,1,,,,,,,,,1,,,77,41
393300,note_off,180,0,1,,,,,,,,,1,,,77,0
393300,note_on,0,0,1,,,,,,,,,1,,,74,42
393345,note_off,45,0,1,,,,,,,,,1,,,74,0
393360,note_on,15,0,1,,,,,,,,,1,,,77,42
393540,note_off,180,0,1,,,,,,,,,1,,,77,0
393540,note_on,0,0,1,,,,,,,,,1,,,74,44
393560,set_tempo,440,1,0,,,,,,1276595,,,,,,,
393588,note_off,48,0,1,,,,,,,,,1,,,74,0
393600,control_change,720,0,5,,,,,,,64,127,5,,,,
393600,note_on,0,0,5,,,,,,,,,5,,,50,45
393600,control_change,1020,0,4,,,,,,,64,127,4,,,,
393600,control_change,720,0,3,,,,,,,64,127,3,,,,
393600,note_on,12,0,1,,,,,,,,,1,,,82,44
393600,set_tempo,40,1,0,,,,,,1176470,,,,,,,
393840,note_on,240,0,3,,,,,,,,,3,,,53,45
393840,note_off,240,0,5,,,,,,,,,5,,,50,0
394027,note_off,427,0,1,,,,,,,,,1,,,82,0
394080,note_off,240,0,3,,,,,,,,,3,,,53,0
394080,note_on,0,0,3,,,,,,,,,3,,,58,46
394080,note_on,53,0,1,,,,,,,,,1,,,82,47
394320,note_off,240,0,3,,,,,,,,,3,,,58,0
394320,note_on,0,0,3,,,,,,,,,3,,,53,47
394500,control_change,180,0,3,,,,,,,64,0,3,,,,
394500,control_change,660,0,5,,,,,,,64,0,5,,,,
394500,control_change,900,0,4,,,,,,,64,0,4,,,,
394560,control_change,60,0,5,,,,,,,64,127,5,,,,
394560,note_on,0,0,5,,,,,,,,,5,,,50,47
394560,control_change,60,0,4,,,,,,,64,127,4,,,,
394560,control_change,60,0,3,,,,,,,64,127,3,,,,
394560,note_off,0,0,3,,,,,,,,,3,,,53,0
394800,note_off,240,0,5,,,,,,,,,5,,,50,0
394800,note_on,240,0,3,,,,,,,,,3,,,53,48
395040,note_off,240,0,3,,,,,,,,,3,,,53,0
395040,note_on,0,0,3,,,,,,,,,3,,,58,49
395160,note_on,0,0,1,,,,,,,,,1,,,84,47
395160,note_off,1080,0,1,,,,,,,,,1,,,82,0
395280,note_on,0,0,1,,,,,,,,,1,,,86,47
395280,note_off,120,0,1,,,,,,,,,1,,,84,0
395280,note_on,0,0,3,,,,,,,,,3,,,53,49
395280,note_off,240,0,3,,,,,,,,,3,,,58,0
395400,note_off,120,0,1,,,,,,,,,1,,,86,0
395400,note_on,0,0,1,,,,,,,,,1,,,82,48
395460,control_change,660,0,5,,,,,,,64,0,5,,,,
395460,control_change,180,0,3,,,,,,,64,0,3,,,,
395460,control_change,900,0,4,,,,,,,64,0,4,,,,
395472,note_off,12,0,3,,,,,,,,,3,,,53,0
395480,set_tempo,1880,1,0,,,,,,1224489,,,,,,,
395496,note_off,96,0,1,,,,,,,,,1,,,82,0
395520,control_change,60,0,5,,,,,,,64,127,5,,,,
395520,note_on,0,0,5,,,,,,,,,5,,,51,50
395520,note_on,24,0,1,,,,,,,,,1,,,81,49
395520,set_tempo,40,1,0,,,,,,1176470,,,,,,,
395520,control_change,60,0,4,,,,,,,64,127,4,,,,
395520,control_change,48,0,3,,,,,,,64,127,3,,,,
395760,note_off,240,0,5,,,,,,,,,5,,,51,0
395760,note_on,240,0,3,,,,,,,,,3,,,55,50
395760,note_off,240,0,1,,,,,,,,,1,,,81,0
395760,note_on,0,0,1,,,,,,,,,1,,,79,51
395952,note_off,192,0,1,,,,,,,,,1,,,79,0
396000,note_off,240,0,3,,,,,,,,,3,,,55,0
396000,note_on,0,0,3,,,,,,,,,3,,,58,51
396000,note_on,48,0,1,,,,,,,,,1,,,79,52
396240,note_off,240,0,3,,,,,,,,,3,,,58,0
396240,note_on,0,0,3,,,,,,,,,3,,,55,52
396420,control_change,660,0,5,,,,,,,64,0,5,,,,
396420,control_change,900,0,4,,,,,,,64,0,4,,,,
396420,control_change,180,0,3,,,,,,,64,0,3,,,,
396480,control_change,60,0,4,,,,,,,64,127,4,,,,
396480,note_on,0,0,5,,,,,,,,,5,,,51,52
396480,control_change,60,0,5,,,,,,,64,127,5,,,,
396480,control_change,60,0,3,,,,,,,64,127,3,,,,
396480,note_off,0,0,3,,,,,,,,,3,,,55,0
396720,note_off,240,0,5,,,,,,,,,5,,,51,0
396720,note_on,240,0,3,,,,,,,,,3,,,55,53
396960,note_off,240,0,3,,,,,,,,,3,,,55,0
396960,note_on,0,0,3,,,,,,,,,3,,,58,53
397080,note_on,0,0,1,,,,,,,,,1,,,81,53
397080,note_off,1080,0,1,,,,,,,,,1,,,79,0
397200,note_on,0,0,1,,,,,,,,,1,,,82,54
397200,note_off,240,0,3,,,,,,,,,3,,,58,0
397200,note_on,0,0,3,,,,,,,,,3,,,55,54
397200,note_off,120,0,1,,,,,,,,,1,,,81,0
397320,note_off,120,0,1,,,,,,,,,1,,,82,0
397320,note_on,0,0,1,,,,,,,,,1,,,79,54
397380,control_change,900,0,4,,,,,,,64,0,4,,,,
397380,control_change,180,0,3,,,,,,,64,0,3,,,,
397380,control_change,660,0,5,,,,,,,64,0,5,,,,
397392,note_off,12,0,3,,,,,,,,,3,,,55,0
397400,set_tempo,1880,1,0,,,,,,1224489,,,,,,,
397416,note_off,96,0,1,,,,,,,,,1,,,79,0
397440,control_change,48,0,3,,,,,,,64,127,3,,,,
397440,note_on,24,0,1,,,,,,,,,1,,,77,55
397440,note_on,0,0,5,,,,,,,,,5,,,53,55
397440,control_change,60,0,5,,,,,,,64,127,5,,,,
397440,control_change,60,0,4,,,,,,,64,127,4,,,,
397440,set_tempo,40,1,0,,,,,,1176470,,,,,,,
397680,note_off,240,0,1,,,,,,,,,1,,,77,0
397680,note_off,240,0,5,,,,,,,,,5,,,53,0
397680,note_on,0,0,1,,,,,,,,,1,,,75,56
397680,note_on,240,0,3,,,,,,,,,3,,,57,55
397872,note_off,192,0,1,,,,,,,,,1,,,75,0
397920,note_on,48,0,1,,,,,,,,,1,,,75,58
397920,note_off,240,0,3,,,,,,,,,3,,,57,0
397920,note_on,0,0,3,,,,,,,,,3,,,60,56
398160,note_on,0,0,3,,,,,,,,,3,,,57,56
398160,note_off,240,0,3,,,,,,,,,3,,,60,0
398340,control_change,180,0,3,,,,,,,64,0,3,,,,
398340,control_change,660,0,5,,,,,,,64,0,5,,,,
398340,control_change,900,0,4,,,,,,,64,0,4,,,,
398400,note_on,0,0,5,,,,,,,,,5,,,53,57
398400,control_change,60,0,3,,,,,,,64,127,3,,,,
398400,note_off,0,0,3,,,,,,,,,3,,,57,0
398400,control_change,60,0,5,,,,,,,64,127,5,,,,
398400,control_change,60,0,4,,,,,,,64,127,4,,,,
398602,note_off,682,0,1,,,,,,,,,1,,,75,0
398640,note_on,38,0,1,,,,,,,,,1,,,75,58
398640,note_off,240,0,5,,,,,,,,,5,,,53,0
398640,note_on,240,0,3,,,,,,,,,3,,,57,58
398830,note_off,190,0,1,,,,,,,,,1,,,75,0
398880,note_on,50,0,1,,,,,,,,,1,,,75,59
398880,note_on,0,0,3,,,,,,,,,3,,,60,58
398880,note_off,240,0,3,,,,,,,,,3,,,57,0
399070,note_off,190,0,1,,,,,,,,,1,,,75,0
399120,note_on,0,0,3,,,,,,,,,3,,,57,59
399120,note_off,240,0,3,,,,,,,,,3,,,60,0
399120,note_on,50,0,1,,,,,,,,,1,,,75,61
399300,control_change,180,0,3,,,,,,,64,0,3,,,,
399300,control_change,660,0,5,,,,,,,64,0,5,,,,
399300,control_change,900,0,4,,,,,,,64,0,4,,,,
399310,note_off,190,0,1,,,,,,,,,1,,,75,0
399312,note_off,12,0,3,,,,,,,,,3,,,57,0
399320,set_tempo,1880,1,0,,,,,,1224489,,,,,,,
399360,note_on,0,0,5,,,,,,,,,5,,,55,60
399360,control_change,48,0,3,,,,,,,64,127,3,,,,
399360,set_tempo,40,1,0,,,,,,1176470,,,,,,,
399360,note_on,50,0,1,,,,,,,,,1,,,73,63
399360,control_change,60,0,5,,,,,,,64,127,5,,,,
399360,control_change,60,0,4,,,,,,,64,127,4,,,,
399600,note_on,240,0,3,,,,,,,,,3,,,58,58
399600,note_off,240,0,5,,,,,,,,,5,,,55,0
399840,note_on,0,0,1,,,,,,,,,1,,,74,55
399840,note_off,480,0,1,,,,,,,,,1,,,73,0
399840,note_off,240,0,3,,,,,,,,,3,,,58,0
399840,note_on,0,0,3,,,,,,,,,3,,,62,55
400080,note_off,240,0,3,,,,,,,,,3,,,62,0
400080,note_on,0,0,3,,,,,,,,,3,,,58,53
400225,note_off,385,0,1,,,,,,,,,1,,,74,0
400260,control_change,900,0,4,,,,,,,64,0,4,,,,
400260,control_change,180,0,3,,,,,,,64,0,3,,,,
400260,control_change,660,0,5,,,,,,,64,0,5,,,,
400320,note_on,0,0,5,,,,,,,,,5,,,55,55
400320,control_change,60,0,3,,,,,,,64,127,3,,,,
400320,note_off,0,0,3,,,,,,,,,3,,,58,0
400320,control_change,60,0,4,,,,,,,64,127,4,,,,
400320,control_change,60,0,5,,,,,,,64,127,5,,,,
400400,set_tempo,1040,1,0,,,,,,1224489,,,,,,,
400440,set_tempo,40,1,0,,,,,,1176470,,,,,,,
400440,note_on,215,0,1,,,,,,,,,1,,,70,56
400520,note_off,80,0,1,,,,,,,,,1,,,70,0
400560,note_off,240,0,5,,,,,,,,,5,,,55,0
400560,note_on,240,0,3,,,,,,,,,3,,,58,58
400560,note_on,40,0,1,,,,,,,,,1,,,72,58
400640,note_off,80,0,1,,,,,,,,,1,,,72,0
400680,note_on,40,0,1,,,,,,,,,1,,,74,60
400760,note_off,80,0,1,,,,,,,,,1,,,74,0
400800,note_off,240,0,3,,,,,,,,,3,,,58,0
400800,note_on,0,0,3,,,,,,,,,3,,,62,62
400800,note_on,40,0,1,,,,,,,,,1,,,75,62
400880,note_off,80,0,1,,,,,,,,,1,,,75,0
400920,note_on,40,0,1,,,,,,,,,1,,,77,64
401000,note_off,80,0,1,,,,,,,,,1,,,77,0
401040,note_on,40,0,1,,,,,,,,,1,,,79,65
401040,note_off,240,0,3,,,,,,,,,3,,,62,0
401040,note_on,0,0,3,,,,,,,,,3,,,58,65
401120,note_off,80,0,1,,,,,,,,,1,,,79,0
401160,note_on,40,0,1,,,,,,,,,1,,,81,67
401220,control_change,900,0,4,,,,,,,64,0,4,,,,
401220,control_change,660,0,5,,,,,,,64,0,5,,,,
401220,control_change,180,0,3,,,,,,,64,0,3,,,,
401232,note_off,12,0,3,,,,,,,,,3,,,58,0
401240,note_off,80,0,1,,,,,,,,,1,,,81,0
401240,set_tempo,800,1,0,,,,,,1276595,,,,,,,
401280,set_tempo,40,1,0,,,,,,1176470,,,,,,,
401280,control_change,60,0,4,,,,,,,64,127,4,,,,
401280,control_change,60,0,5,,,,,,,64,127,5,,,,
401280,note_on,0,0,5,,,,,,,,,5,,,50,69
401280,control_change,48,0,3,,,,,,,64,127,3,,,,
401280,note_on,40,0,1,,,,,,,,,1,,,82,69
401460,note_on,0,0,1,,,,,,,,,1,,,77,72
401460,note_off,180,0,1,,,,,,,,,1,,,82,0
401520,note_off,240,0,5,,,,,,,,,5,,,50,0
401520,note_on,240,0,3,,,,,,,,,3,,,53,72
401520,note_off,60,0,1,,,,,,,,,1,,,77,0
401520,note_on,0,0,1,,,,,,,,,1,,,86,72
401700,note_off,180,0,1,,,,,,,,,1,,,86,0
401700,note_on,0,0,1,,,,,,,,,1,,,82,75
401760,note_off,60,0,1,,,,,,,,,1,,,82,0
401760,note_on,0,0,1,,,,,,,,,1,,,89,76
401760,note_off,240,0,3,,,,,,,,,3,,,53,0
401760,note_on,0,0,3,,,,,,,,,3,,,58,74
402000,note_on,0,0,3,,,,,,,,,3,,,53,71
402000,note_off,240,0,3,,,,,,,,,3,,,58,0
402180,control_change,900,0,4,,,,,,,64,0,4,,,,
402180,control_change,180,0,3,,,,,,,64,0,3,,,,
402180,control_change,660,0,5,,,,,,,64,0,5,,,,
402192,note_off,12,0,3,,,,,,,,,3,,,53,0
402240,note_on,0,0,5,,,,,,,,,5,,,50,67
402240,control_change,60,0,4,,,,,,,64,127,4,,,,
402240,control_change,60,0,5,,,,,,,64,127,5,,,,
402240,control_change,48,0,3,,,,,,,64,127,3,,,,
402360,note_off,600,0,1,,,,,,,,,1,,,89,0
402360,note_on,0,0,1,,,,,,,,,1,,,86,73
402480,note_on,0,0,1,,,,,,,,,1,,,83,70
402480,note_on,240,0,3,,,,,,,,,3,,,53,64
402480,note_off,120,0,1,,,,,,,,,1,,,86,0
402480,note_off,240,0,5,,,,,,,,,5,,,50,0
402600,note_off,120,0,1,,,,,,,,,1,,,83,0
402600,note_on,0,0,1,,,,,,,,,1,,,80,68
402720,note_on,0,0,1,,,,,,,,,1,,,77,65
402720,note_on,0,0,3,,,,,,,,,3,,,56,60
402720,note_off,240,0,3,,,,,,,,,3,,,53,0
402720,note_off,120,0,1,,,,,,,,,1,,,80,0
402840,note_on,0,0,1,,,,,,,,,1,,,74,63
402840,note_off,120,0,1,,,,,,,,,1,,,77,0
402960,note_on,0,0,3,,,,,,,,,3,,,53,56
402960,note_on,0,0,1,,,,,,,,,1,,,71,61
402960,note_off,120,0,1,,,,,,,,,1,,,74,0
402960,note_off,240,0,3,,,,,,,,,3,,,56,0
403080,note_off,120,0,1,,,,,,,,,1,,,71,0
403080,note_on,0,0,1,,,,,,,,,1,,,68,58
403140,control_change,660,0,5,,,,,,,64,0,5,,,,
403140,control_change,900,0,4,,,,,,,64,0,4,,,,
403140,control_change,180,0,3,,,,,,,64,0,3,,,,
403152,note_off,12,0,3,,,,,,,,,3,,,53,0
403160,set_tempo,1880,1,0,,,,,,1224489,,,,,,,
403200,control_change,60,0,4,,,,,,,64,127,4,,,,
403200,control_change,48,0,3,,,,,,,64,127,3,,,,
403200,note_on,0,0,1,,,,,,,,,1,,,67,56
403200,note_off,120,0,1,,,,,,,,,1,,,68,0
403200,control_change,60,0,5,,,,,,,64,127,5,,,,
403200,note_on,0,0,5,,,,,,,,,5,,,51,56
403230,set_tempo,70,1,0,,,,,,1176470,,,,,,,
403440,note_off,240,0,1,,,,,,,,,1,,,67,0
403440,note_on,0,0,1,,,,,,,,,1,,,78,59
403440,note_on,240,0,3,,,,,,,,,3,,,55,59
403440,note_off,240,0,5,,,,,,,,,5,,,51,0
403680,note_off,240,0,3,,,,,,,,,3,,,55,0
403680,note_on,0,0,3,,,,,,,,,3,,,60,61
403760,note_on,320,0,1,,,,,,,,,1,,,79,59
403770,note_off,10,0,1,,,,,,,,,1,,,78,0
403800,note_on,30,0,1,,,,,,,,,1,,,78,60
403820,note_off,20,0,1,,,,,,,,,1,,,79,0
403840,note_on,20,0,1,,,,,,,,,1,,,76,61
403860,note_off,20,0,1,,,,,,,,,1,,,78,0
403880,note_on,20,0,1,,,,,,,,,1,,,78,62
403900,note_off,20,0,1,,,,,,,,,1,,,76,0
403920,note_on,20,0,1,,,,,,,,,1,,,79,63
403920,note_off,240,0,3,,,,,,,,,3,,,60,0
403920,note_on,0,0,3,,,,,,,,,3,,,55,64
403940,note_off,20,0,1,,,,,,,,,1,,,78,0
404100,control_change,900,0,4,,,,,,,64,0,4,,,,
404100,control_change,660,0,5,,,,,,,64,0,5,,,,
404100,control_change,180,0,3,,,,,,,64,0,3,,,,
404112,note_off,12,0,3,,,,,,,,,3,,,55,0
404160,control_change,48,0,3,,,,,,,64,127,3,,,,
404160,control_change,60,0,4,,,,,,,64,127,4,,,,
404160,control_change,60,0,5,,,,,,,64,127,5,,,,
404160,note_on,0,0,5,,,,,,,,,5,,,52,66
404240,note_on,300,0,1,,,,,,,,,1,,,81,61
404245,note_off,5,0,1,,,,,,,,,1,,,79,0
404280,note_on,35,0,1,,,,,,,,,1,,,79,62
404300,note_off,20,0,1,,,,,,,,,1,,,81,0
404320,note_on,20,0,1,,,,,,,,,1,,,78,64
404340,note_off,20,0,1,,,,,,,,,1,,,79,0
404360,note_on,20,0,1,,,,,,,,,1,,,79,66
404380,note_off,20,0,1,,,,,,,,,1,,,78,0
404400,note_off,240,0,5,,,,,,,,,5,,,52,0
404400,note_on,240,0,3,,,,,,,,,3,,,55,68
404400,note_on,20,0,1,,,,,,,,,1,,,81,67
404420,note_off,20,0,1,,,,,,,,,1,,,79,0
404640,note_off,240,0,3,,,,,,,,,3,,,55,0
404640,note_on,0,0,3,,,,,,,,,3,,,61,71
404715,note_off,295,0,1,,,,,,,,,1,,,81,0
404720,note_on,5,0,1,,,,,,,,,1,,,82,67
404760,note_on,40,0,1,,,,,,,,,1,,,81,68
404780,note_off,20,0,1,,,,,,,,,1,,,82,0
404800,note_on,20,0,1,,,,,,,,,1,,,79,70
404820,note_off,20,0,1,,,,,,,,,1,,,81,0
404840,note_on,20,0,1,,,,,,,,,1,,,81,71
404860,note_off,20,0,1,,,,,,,,,1,,,79,0
404880,note_on,20,0,1,,,,,,,,,1,,,82,73
404880,note_off,240,0,3,,,,,,,,,3,,,61,0
404880,note_on,0,0,3,,,,,,,,,3,,,55,73
404900,note_off,20,0,1,,,,,,,,,1,,,81,0
405060,control_change,180,0,3,,,,,,,64,0,3,,,,
405060,control_change,660,0,5,,,,,,,64,0,5,,,,
405060,control_change,900,0,4,,,,,,,64,0,4,,,,
405072,note_off,12,0,3,,,,,,,,,3,,,55,0
405120,note_on,0,0,5,,,,,,,,,5,,,53,76
405120,control_change,60,0,5,,,,,,,64,127,5,,,,
405120,control_change,60,0,4,,,,,,,64,127,4,,,,
405120,control_change,48,0,3,,,,,,,64,127,3,,,,
405195,note_off,295,0,1,,,,,,,,,1,,,82,0
405200,note_on,5,0,1,,,,,,,,,1,,,84,71
405240,note_on,40,0,1,,,,,,,,,1,,,82,72
405260,note_off,20,0,1,,,,,,,,,1,,,84,0
405280,note_on,20,0,1,,,,,,,,,1,,,81,74
405300,note_off,20,0,1,,,,,,,,,1,,,82,0
405320,note_on,20,0,1,,,,,,,,,1,,,82,75
405340,note_off,20,0,1,,,,,,,,,1,,,81,0
405360,note_on,20,0,1,,,,,,,,,1,,,86,77
405360,note_on,240,0,3,,,,,,,,,3,,,58,78
405360,note_off,240,0,5,,,,,,,,,5,,,53,0
405380,note_off,20,0,1,,,,,,,,,1,,,82,0
405480,note_on,0,0,1,,,,,,,,,1,,,89,81
405480,note_off,100,0,1,,,,,,,,,1,,,86,0
405600,note_off,120,0,1,,,,,,,,,1,,,89,0
405600,note_off,240,0,3,,,,,,,,,3,,,58,0
405600,note_on,0,0,3,,,,,,,,,3,,,62,77
405600,note_on,0,0,1,,,,,,,,,1,,,77,78
405840,note_off,240,0,3,,,,,,,,,3,,,62,0
405840,note_on,0,0,3,,,,,,,,,3,,,58,72
406020,control_change,180,0,3,,,,,,,64,0,3,,,,
406020,control_change,900,0,4,,,,,,,64,0,4,,,,
406020,control_change,660,0,5,,,,,,,64,0,5,,,,
406032,note_off,12,0,3,,,,,,,,,3,,,58,0
406080,control_change,60,0,5,,,,,,,64,127,5,,,,
406080,note_on,0,0,5,,,,,,,,,5,,,53,69
406080,control_change,60,0,4,,,,,,,64,127,4,,,,
406080,control_change,48,0,3,,,,,,,64,127,3,,,,
406200,note_on,600,0,1,,,,,,,,,1,,,78,70
406205,note_off,5,0,1,,,,,,,,,1,,,77,0
406320,note_on,0,0,1,,,,,,,,,1,,,79,66
406320,note_off,115,0,1,,,,,,,,,1,,,78,0
406320,note_off,240,0,5,,,,,,,,,5,,,53,0
406320,note_on,240,0,3,,,,,,,,,3,,,57,64
406440,note_on,0,0,1,,,,,,,,,1,,,77,63
406440,note_off,120,0,1,,,,,,,,,1,,,79,0
406536,note_off,96,0,1,,,,,,,,,1,,,77,0
406560,note_on,24,0,1,,,,,,,,,1,,,77,59
406560,note_off,240,0,3,,,,,,,,,3,,,57,0
406560,note_on,0,0,3,,,,,,,,,3,,,60,59
406680,note_off,120,0,1,,,,,,,,,1,,,77,0
406680,note_on,0,0,1,,,,,,,,,1,,,75,55
406800,note_off,120,0,1,,,,,,,,,1,,,75,0
406800,note_on,0,0,1,,,,,,,,,1,,,74,51
406800,note_on,0,0,3,,,,,,,,,3,,,57,53
406800,note_off,240,0,3,,,,,,,,,3,,,60,0
406920,note_off,120,0,1,,,,,,,,,1,,,74,0
406920,note_on,0,0,1,,,,,,,,,1,,,72,47
406980,control_change,660,0,5,,,,,,,64,0,5,,,,
406980,control_change,900,0,4,,,,,,,64,0,4,,,,
406980,control_change,180,0,3,,,,,,,64,0,3,,,,
406992,note_off,12,0,3,,,,,,,,,3,,,57,0
407000,set_tempo,3770,1,0,,,,,,1276595,,,,,,,
407016,note_off,96,0,1,,,,,,,,,1,,,72,0
407040,note_on,60,0,4,,,,,,,,,4,,,58,43
407040,note_on,24,0,1,,,,,,,,,1,,,70,44
407040,set_tempo,40,1,0,,,,,,1200000,,,,,,,
407160,note_off,120,0,4,,,,,,,,,4,,,58,0
407160,note_on,0,0,4,,,,,,,,,4,,,62,45
407280,note_on,0,0,4,,,,,,,,,4,,,65,47
407280,note_off,120,0,4,,,,,,,,,4,,,62,0
407400,note_on,0,0,4,,,,,,,,,4,,,62,48
407400,note_off,120,0,4,,,,,,,,,4,,,65,0
407520,note_off,120,0,4,,,,,,,,,4,,,62,0
407520,note_off,480,0,1,,,,,,,,,1,,,70,0
407520,note_on,0,0,4,,,,,,,,,4,,,65,50
407640,note_off,120,0,4,,,,,,,,,4,,,65,0
407640,note_on,0,0,4,,,,,,,,,4,,,62,51
407760,note_off,120,0,4,,,,,,,,,4,,,62,0
407760,note_on,0,0,4,,,,,,,,,4,,,65,53
407880,note_off,120,0,4,,,,,,,,,4,,,65,0
407880,note_on,0,0,4,,,,,,,,,4,,,62,54
407976,note_off,96,0,4,,,,,,,,,4,,,62,0
408000,note_on,1020,0,5,,,,,,,,,5,,,53,56
408000,note_on,480,0,1,,,,,,,,,1,,,69,52
408000,note_on,24,0,4,,,,,,,,,4,,,63,56
408120,note_on,0,0,1,,,,,,,,,1,,,72,54
408120,note_off,120,0,1,,,,,,,,,1,,,69,0
408240,note_on,0,0,1,,,,,,,,,1,,,79,56
408240,note_off,120,0,1,,,,,,,,,1,,,72,0
408360,note_on,0,0,1,,,,,,,,,1,,,77,58
408360,note_off,120,0,1,,,,,,,,,1,,,79,0
408480,note_off,480,0,5,,,,,,,,,5,,,53,0
408480,note_on,0,0,1,,,,,,,,,1,,,79,60
408480,note_off,120,0,1,,,,,,,,,1,,,77,0
408480,note_off,480,0,4,,,,,,,,,4,,,63,0
408600,note_off,120,0,1,,,,,,,,,1,,,79,0
408600,note_on,0,0,1,,,,,,,,,1,,,77,62
408720,note_on,0,0,1,,,,,,,,,1,,,79,64
408720,note_off,120,0,1,,,,,,,,,1,,,77,0
408840,note_off,120,0,1,,,,,,,,,1,,,79,0
408840,note_on,0,0,1,,,,,,,,,1,,,77,66
408936,note_off,96,0,1,,,,,,,,,1,,,77,0
408960,note_on,480,0,4,,,,,,,,,4,,,58,51
408960,note_on,24,0,1,,,,,,,,,1,,,77,68
409080,note_off,120,0,4,,,,,,,,,4,,,58,0
409080,note_on,0,0,4,,,,,,,,,4,,,62,53
409200,note_off,120,0,4,,,,,,,,,4,,,62,0
409200,note_on,0,0,4,,,,,,,,,4,,,65,55
409320,note_off,120,0,4,,,,,,,,,4,,,65,0
409320,note_on,0,0,4,,,,,,,,,4,,,62,56
409440,note_off,120,0,4,,,,,,,,,4,,,62,0
409440,note_on,0,0,4,,,,,,,,,4,,,65,58
409440,note_on,0,0,1,,,,,,,,,1,,,82,59
409440,note_off,480,0,1,,,,,,,,,1,,,77,0
409560,note_on,0,0,4,,,,,,,,,4,,,62,60
409560,note_off,120,0,4,,,,,,,,,4,,,65,0
409680,note_on,0,0,4,,,,,,,,,4,,,65,62
409680,note_off,240,0,1,,,,,,,,,1,,,82,0
409680,note_off,120,0,4,,,,,,,,,4,,,62,0
409800,note_on,0,0,4,,,,,,,,,4,,,62,64
409800,note_off,120,0,4,,,,,,,,,4,,,65,0
409896,note_off,96,0,4,,,,,,,,,4,,,62,0
409920,note_on,1440,0,5,,,,,,,,,5,,,53,66
409920,note_on,240,0,1,,,,,,,,,1,,,69,65
409920,note_on,24,0,4,,,,,,,,,4,,,63,66
410040,note_on,0,0,1,,,,,,,,,1,,,72,67
410040,note_off,120,0,1,,,,,,,,,1,,,69,0
410160,note_on,0,0,1,,,,,,,,,1,,,79,68
410160,note_off,120,0,1,,,,,,,,,1,,,72,0
410280,note_on,0,0,1,,,,,,,,,1,,,77,70
410280,note_off,120,0,1,,,,,,,,,1,,,79,0
410400,note_off,480,0,5,,,,,,,,,5,,,53,0
410400,note_on,0,0,1,,,,,,,,,1,,,79,72
410400,note_off,120,0,1,,,,,,,,,1,,,77,0
410400,note_off,480,0,4,,,,,,,,,4,,,63,0
410520,note_on,0,0,1,,,,,,,,,1,,,77,74
410520,note_off,120,0,1,,,,,,,,,1,,,79,0
410640,note_on,0,0,1,,,,,,,,,1,,,79,75
410640,note_off,120,0,1,,,,,,,,,1,,,77,0
410760,note_off,120,0,1,,,,,,,,,1,,,79,0
410760,note_on,0,0,1,,,,,,,,,1,,,77,77
410856,note_off,96,0,1,,,,,,,,,1,,,77,0
410880,note_on,480,0,4,,,,,,,,,4,,,58,67
410880,note_on,24,0,1,,,,,,,,,1,,,77,79
411000,note_on,0,0,4,,,,,,,,,4,,,62,69
411000,note_off,120,0,4,,,,,,,,,4,,,58,0
411120,note_off,120,0,4,,,,,,,,,4,,,62,0
411120,note_on,0,0,4,,,,,,,,,4,,,65,71
411240,note_off,120,0,4,,,,,,,,,4,,,65,0
411240,note_on,0,0,4,,,,,,,,,4,,,62,72
411360,note_off,480,0,1,,,,,,,,,1,,,77,0
411360,note_off,120,0,4,,,,,,,,,4,,,62,0
411360,note_on,0,0,4,,,,,,,,,4,,,65,74
411360,note_on,0,0,1,,,,,,,,,1,,,70,70
411480,note_off,120,0,4,,,,,,,,,4,,,65,0
411480,note_on,0,0,4,,,,,,,,,4,,,62,75
411600,note_off,240,0,1,,,,,,,,,1,,,70,0
411600,note_off,120,0,4,,,,,,,,,4,,,62,0
411600,note_on,0,0,4,,,,,,,,,4,,,65,77
411720,note_on,0,0,4,,,,,,,,,4,,,62,78
411720,note_off,120,0,4,,,,,,,,,4,,,65,0
411816,note_off,96,0,4,,,,,,,,,4,,,62,0
411840,note_on,240,0,1,,,,,,,,,1,,,69,78
411840,note_on,24,0,4,,,,,,,,,4,,,63,80
411840,note_on,1440,0,5,,,,,,,,,5,,,53,80
411960,note_on,0,0,1,,,,,,,,,1,,,72,77
411960,note_off,120,0,1,,,,,,,,,1,,,69,0
412080,note_off,120,0,1,,,,,,,,,1,,,72,0
412080,note_on,0,0,1,,,,,,,,,1,,,79,76
412200,note_off,120,0,1,,,,,,,,,1,,,79,0
412200,note_on,0,0,1,,,,,,,,,1,,,77,75
412320,note_on,0,0,1,,,,,,,,,1,,,79,73
412320,note_off,120,0,1,,,,,,,,,1,,,77,0
412440,note_on,0,0,1,,,,,,,,,1,,,77,72
412440,note_off,120,0,1,,,,,,,,,1,,,79,0
412560,note_on,0,0,1,,,,,,,,,1,,,79,71
412560,note_off,120,0,1,,,,,,,,,1,,,77,0
412680,note_on,0,0,1,,,,,,,,,1,,,77,69
412680,note_off,120,0,1,,,,,,,,,1,,,79,0
412725,set_tempo,5685,1,0,,,,,,1276595,,,,,,,
412776,note_off,96,0,1,,,,,,,,,1,,,77,0
412800,note_off,960,0,4,,,,,,,,,4,,,63,0
412800,note_on,5808,0,3,,,,,,,,,3,,,62,68
412800,note_on,0,0,5,,,,,,,,,5,,,58,68
412800,note_off,960,0,5,,,,,,,,,5,,,53,0
412800,note_on,24,0,1,,,,,,,,,1,,,77,68
412800,set_tempo,75,1,0,,,,,,1224489,,,,,,,
412920,note_off,120,0,1,,,,,,,,,1,,,77,0
412920,note_on,0,0,1,,,,,,,,,1,,,70,67
413040,note_off,120,0,1,,,,,,,,,1,,,70,0
413040,note_on,0,0,1,,,,,,,,,1,,,82,65
413120,note_off,80,0,1,,,,,,,,,1,,,82,0
413160,note_on,40,0,1,,,,,,,,,1,,,82,64
413240,note_off,80,0,1,,,,,,,,,1,,,82,0
413280,note_off,480,0,5,,,,,,,,,5,,,58,0
413280,note_off,480,0,3,,,,,,,,,3,,,62,0
413280,note_on,40,0,1,,,,,,,,,1,,,82,63
413400,note_off,120,0,1,,,,,,,,,1,,,82,0
413400,note_on,0,0,1,,,,,,,,,1,,,74,62
413520,note_off,120,0,1,,,,,,,,,1,,,74,0
413520,note_on,0,0,1,,,,,,,,,1,,,86,60
413600,note_off,80,0,1,,,,,,,,,1,,,86,0
413640,note_on,40,0,1,,,,,,,,,1,,,86,59
413720,note_off,80,0,1,,,,,,,,,1,,,86,0
413760,note_on,40,0,1,,,,,,,,,1,,,86,58
413880,note_off,120,0,1,,,,,,,,,1,,,86,0
413880,note_on,0,0,1,,,,,,,,,1,,,77,56
413960,set_tempo,1160,1,0,,,,,,1276595,,,,,,,
414000,note_off,120,0,1,,,,,,,,,1,,,77,0
414000,note_on,0,0,1,,,,,,,,,1,,,89,55
414080,note_off,80,0,1,,,,,,,,,1,,,89,0
414120,note_on,40,0,1,,,,,,,,,1,,,89,54
414200,note_off,80,0,1,,,,,,,,,1,,,89,0
414240,note_on,960,0,5,,,,,,,,,5,,,65,52
414240,note_on,40,0,1,,,,,,,,,1,,,89,52
414240,note_on,1440,0,4,,,,,,,,,4,,,75,52
414240,note_on,0,0,4,,,,,,,,,4,,,69,52
414320,note_off,80,0,1,,,,,,,,,1,,,89,0
414360,note_on,40,0,1,,,,,,,,,1,,,89,51
414440,note_off,80,0,1,,,,,,,,,1,,,89,0
414480,note_on,40,0,1,,,,,,,,,1,,,89,50
414560,note_off,80,0,1,,,,,,,,,1,,,89,0
414585,set_tempo,625,1,0,,,,,,1333333,,,,,,,
414600,note_on,40,0,1,,,,,,,,,1,,,89,49
414680,note_off,80,0,1,,,,,,,,,1,,,89,0
414720,note_on,40,0,1,,,,,,,,,1,,,82,47
414720,note_off,0,0,4,,,,,,,,,4,,,75,0
414720,note_on,0,0,4,,,,,,,,,4,,,74,47
414720,note_off,480,0,4,,,,,,,,,4,,,69,0
414720,note_on,0,0,5,,,,,,,,,5,,,70,47
414720,note_off,480,0,5,,,,,,,,,5,,,65,0
414960,note_off,240,0,4,,,,,,,,,4,,,74,0
414960,note_off,240,0,5,,,,,,,,,5,,,70,0
414967,note_off,247,0,1,,,,,,,,,1,,,82,0
415200,note_on,0,0,4,,,,,,,,,4,,,69,42
415200,note_on,240,0,4,,,,,,,,,4,,,75,42
415200,note_on,240,0,5,,,,,,,,,5,,,65,42
415200,note_on,233,0,1,,,,,,,,,1,,,89,42
415280,note_off,80,0,1,,,,,,,,,1,,,89,0
415320,note_on,40,0,1,,,,,,,,,1,,,89,41
415400,note_off,80,0,1,,,,,,,,,1,,,89,0
415440,note_on,40,0,1,,,,,,,,,1,,,89,39
415520,note_off,80,0,1,,,,,,,,,1,,,89,0
415560,note_on,40,0,1,,,,,,,,,1,,,89,38
415640,note_off,80,0,1,,,,,,,,,1,,,89,0
415680,note_off,480,0,4,,,,,,,,,4,,,69,0
415680,note_on,40,0,1,,,,,,,,,1,,,82,37
415680,note_off,0,0,4,,,,,,,,,4,,,75,0
415680,note_on,0,0,4,,,,,,,,,4,,,74,37
415680,note_off,480,0,5,,,,,,,,,5,,,65,0
415680,note_on,0,0,5,,,,,,,,,5,,,70,37
415920,note_off,240,0,1,,,,,,,,,1,,,82,0
415920,note_off,240,0,5,,,,,,,,,5,,,70,0
415920,note_off,240,0,4,,,,,,,,,4,,,74,0
416070,set_tempo,1485,1,0,,,,,,1363636,,,,,,,
416160,note_on,0,0,4,,,,,,,,,4,,,69,32
416160,note_on,240,0,4,,,,,,,,,4,,,75,32
416160,note_on,240,0,5,,,,,,,,,5,,,65,32
416160,note_on,240,0,1,,,,,,,,,1,,,89,32
416240,note_off,80,0,1,,,,,,,,,1,,,89,0
416280,note_on,40,0,1,,,,,,,,,1,,,89,30
416360,note_off,80,0,1,,,,,,,,,1,,,89,0
416400,note_on,40,0,1,,,,,,,,,1,,,89,29
416480,note_off,80,0,1,,,,,,,,,1,,,89,0
416520,note_on,40,0,1,,,,,,,,,1,,,89,28
416600,set_tempo,530,1,0,,,,,,1500000,,,,,,,
416600,note_off,80,0,1,,,,,,,,,1,,,89,0
416640,note_on,0,0,4,,,,,,,,,4,,,74,26
416640,note_off,0,0,4,,,,,,,,,4,,,75,0
416640,note_off,480,0,4,,,,,,,,,4,,,69,0
416640,note_on,0,0,5,,,,,,,,,5,,,70,26
416640,note_off,480,0,5,,,,,,,,,5,,,65,0
416640,set_tempo,40,1,0,,,,,,1363636,,,,,,,
416640,note_on,40,0,1,,,,,,,,,1,,,82,26
416880,note_off,240,0,4,,,,,,,,,4,,,74,0
416880,note_off,240,0,1,,,,,,,,,1,,,82,0
416880,note_off,240,0,5,,,,,,,,,5,,,70,0
417120,note_on,0,0,5,,,,,,,,,5,,,36,76
417120,note_on,240,0,5,,,,,,,,,5,,,48,76
417600,note_on,720,0,1,,,,,,,,,1,,,56,69
417600,note_on,26640,0,2,,,,,,,,,2,,,51,69
417600,note_on,0,0,2,,,,,,,,,2,,,53,69
418080,note_off,0,0,5,,,,,,,,,5,,,48,0
418080,note_on,0,0,5,,,,,,,,,5,,,35,61
418080,note_on,0,0,5,,,,,,,,,5,,,47,61
418080,note_off,960,0,5,,,,,,,,,5,,,36,0
418500,set_tempo,1860,1,0,,,,,,1428571,,,,,,,
418560,note_on,0,0,5,,,,,,,,,5,,,34,54
418560,note_on,0,0,5,,,,,,,,,5,,,46,54
418560,note_off,0,0,5,,,,,,,,,5,,,47,0
418560,note_off,480,0,5,,,,,,,,,5,,,35,0
418560,note_off,960,0,2,,,,,,,,,2,,,51,0
418560,note_on,0,0,2,,,,,,,,,2,,,50,54
418560,set_tempo,60,1,0,,,,,,2500000,,,,,,,
418940,note_off,1340,0,1,,,,,,,,,1,,,56,0
418945,note_off,385,0,2,,,,,,,,,2,,,50,0
418950,note_off,5,0,2,,,,,,,,,2,,,53,0
419040,set_tempo,480,1,0,,,,,,1276595,,,,,,,
419040,note_on,100,0,1,,,,,,,,,1,,,51,48
419160,note_off,120,0,1,,,,,,,,,1,,,51,0
419160,note_on,0,0,1,,,,,,,,,1,,,50,46
419280,note_off,120,0,1,,,,,,,,,1,,,50,0
419280,note_on,0,0,1,,,,,,,,,1,,,53,45
419400,note_off,120,0,1,,,,,,,,,1,,,53,0
419400,note_on,0,0,1,,,,,,,,,1,,,56,44
419520,note_on,0,0,1,,,,,,,,,1,,,62,42
419520,note_off,960,0,5,,,,,,,,,5,,,34,0
419520,note_off,0,0,5,,,,,,,,,5,,,46,0
419520,note_off,120,0,1,,,,,,,,,1,,,56,0
419640,note_on,0,0,1,,,,,,,,,1,,,65,41
419640,note_off,120,0,1,,,,,,,,,1,,,62,0
419760,note_off,120,0,1,,,,,,,,,1,,,65,0
419760,note_on,0,0,1,,,,,,,,,1,,,68,39
419880,note_off,120,0,1,,,,,,,,,1,,,68,0
419880,note_on,0,0,1,,,,,,,,,1,,,74,38
419960,set_tempo,920,1,0,,,,,,1333333,,,,,,,
420000,set_tempo,40,1,0,,,,,,2727272,,,,,,,
420000,note_on,0,0,1,,,,,,,,,1,,,77,36
420000,note_off,120,0,1,,,,,,,,,1,,,74,0
420060,note_on,60,0,1,,,,,,,,,1,,,80,36
420082,note_off,22,0,1,,,,,,,,,1,,,77,0
420120,set_tempo,120,1,0,,,,,,2727272,,,,,,,
420240,note_off,158,0,1,,,,,,,,,1,,,80,0
420480,note_on,0,0,5,,,,,,,,,5,,,51,44
420480,control_change,960,0,5,,,,,,,64,127,5,,,,
420480,set_tempo,360,1,0,,,,,,1176470,,,,,,,
420480,control_change,3600,0,4,,,,,,,64,127,4,,,,
420480,note_on,240,0,1,,,,,,,,,1,,,70,44
420480,control_change,7200,0,3,,,,,,,64,127,3,,,,
420720,note_on,240,0,3,,,,,,,,,3,,,55,45
420720,note_off,240,0,5,,,,,,,,,5,,,51,0
420960,note_off,240,0,3,,,,,,,,,3,,,55,0
420960,note_on,0,0,3,,,,,,,,,3,,,58,45
421080,note_off,600,0,1,,,,,,,,,1,,,70,0
421080,note_on,0,0,1,,,,,,,,,1,,,69,41
421140,note_off,60,0,1,,,,,,,,,1,,,69,0
421140,note_on,0,0,1,,,,,,,,,1,,,70,42
421200,note_off,60,0,1,,,,,,,,,1,,,70,0
421200,note_on,0,0,1,,,,,,,,,1,,,72,43
421200,note_off,240,0,3,,,,,,,,,3,,,58,0
421200,note_on,0,0,3,,,,,,,,,3,,,55,46
421260,note_off,60,0,1,,,,,,,,,1,,,72,0
421260,note_on,0,0,1,,,,,,,,,1,,,70,44
421320,note_on,0,0,1,,,,,,,,,1,,,69,45
421320,note_off,60,0,1,,,,,,,,,1,,,70,0
421380,note_on,0,0,1,,,,,,,,,1,,,70,46
421380,control_change,660,0,5,,,,,,,64,0,5,,,,
421380,note_off,60,0,1,,,,,,,,,1,,,69,0
421380,control_change,180,0,3,,,,,,,64,0,3,,,,
421380,control_change,900,0,4,,,,,,,64,0,4,,,,
421440,control_change,60,0,3,,,,,,,64,127,3,,,,
421440,note_on,0,0,1,,,,,,,,,1,,,67,47
421440,note_off,0,0,3,,,,,,,,,3,,,55,0
421440,note_off,60,0,1,,,,,,,,,1,,,70,0
421440,note_on,0,0,5,,,,,,,,,5,,,51,47
421440,control_change,60,0,5,,,,,,,64,127,5,,,,
421440,control_change,60,0,4,,,,,,,64,127,4,,,,
421680,note_off,240,0,5,,,,,,,,,5,,,51,0
421680,note_on,240,0,3,,,,,,,,,3,,,55,48
421920,note_on,0,0,1,,,,,,,,,1,,,67,48
421920,note_on,0,0,3,,,,,,,,,3,,,58,48
421920,note_off,480,0,1,,,,,,,,,1,,,67,0
421920,note_off,240,0,3,,,,,,,,,3,,,55,0
422160,note_on,0,0,3,,,,,,,,,3,,,55,49
422160,note_off,240,0,3,,,,,,,,,3,,,58,0
422340,control_change,180,0,3,,,,,,,64,0,3,,,,
422340,control_change,660,0,5,,,,,,,64,0,5,,,,
422340,control_change,900,0,4,,,,,,,64,0,4,,,,
422400,note_off,480,0,1,,,,,,,,,1,,,67,0
422400,note_on,3450,0,2,,,,,,,,,2,,,63,51
422400,control_change,60,0,3,,,,,,,64,127,3,,,,
422400,note_on,0,0,1,,,,,,,,,1,,,67,51
422400,note_on,0,0,5,,,,,,,,,5,,,46,51
422400,control_change,60,0,5,,,,,,,64,127,5,,,,
422400,note_off,0,0,3,,,,,,,,,3,,,55,0
422400,control_change,60,0,4,,,,,,,64,127,4,,,,
422640,note_off,240,0,5,,,,,,,,,5,,,46,0
422640,note_on,240,0,3,,,,,,,,,3,,,51,49
422880,note_off,240,0,3,,,,,,,,,3,,,51,0
422880,note_on,0,0,3,,,,,,,,,3,,,55,48
423000,note_on,600,0,1,,,,,,,,,1,,,68,42
423010,note_off,10,0,1,,,,,,,,,1,,,67,0
423040,note_on,30,0,1,,,,,,,,,1,,,67,43
423060,note_off,20,0,1,,,,,,,,,1,,,68,0
423080,note_on,20,0,1,,,,,,,,,1,,,65,44
423100,note_off,20,0,1,,,,,,,,,1,,,67,0
423120,note_on,20,0,1,,,,,,,,,1,,,67,44
423120,note_off,240,0,3,,,,,,,,,3,,,55,0
423120,note_on,0,0,3,,,,,,,,,3,,,51,47
423140,note_off,20,0,1,,,,,,,,,1,,,65,0
423240,note_on,0,0,1,,,,,,,,,1,,,68,46
423240,note_off,100,0,1,,,,,,,,,1,,,67,0
423300,control_change,180,0,3,,,,,,,64,0,3,,,,
423300,control_change,900,0,4,,,,,,,64,0,4,,,,
423300,control_change,660,0,5,,,,,,,64,0,5,,,,
423360,note_on,0,0,1,,,,,,,,,1,,,65,48
423360,note_off,0,0,3,,,,,,,,,3,,,51,0
423360,control_change,60,0,3,,,,,,,64,127,3,,,,
423360,note_off,120,0,1,,,,,,,,,1,,,68,0
423360,control_change,60,0,4,,,,,,,64,127,4,,,,
423360,note_on,0,0,5,,,,,,,,,5,,,46,47
423360,note_on,0,0,2,,,,,,,,,2,,,62,48
423360,note_off,960,0,2,,,,,,,,,2,,,63,0
423360,control_change,60,0,5,,,,,,,64,127,5,,,,
423600,note_off,240,0,5,,,,,,,,,5,,,46,0
423600,note_on,240,0,3,,,,,,,,,3,,,50,46
423840,note_off,480,0,1,,,,,,,,,1,,,65,0
423840,note_off,480,0,2,,,,,,,,,2,,,62,0
423840,note_off,240,0,3,,,,,,,,,3,,,50,0
423840,note_on,0,0,3,,,,,,,,,3,,,53,45
423960,note_on,120,0,1,,,,,,,,,1,,,70,44
424080,note_off,120,0,1,,,,,,,,,1,,,70,0
424080,note_on,0,0,3,,,,,,,,,3,,,50,44
424080,note_on,0,0,1,,,,,,,,,1,,,68,44
424080,note_off,240,0,3,,,,,,,,,3,,,53,0
424200,note_off,120,0,1,,,,,,,,,1,,,68,0
424200,note_on,0,0,1,,,,,,,,,1,,,65,44
424260,control_change,180,0,3,,,,,,,64,0,3,,,,
424260,control_change,660,0,5,,,,,,,64,0,5,,,,
424260,control_change,900,0,4,,,,,,,64,0,4,,,,
424272,note_off,12,0,3,,,,,,,,,3,,,50,0
424280,set_tempo,3800,1,0,,,,,,1500000,,,,,,,
424296,note_off,96,0,1,,,,,,,,,1,,,65,0
424320,control_change,60,0,4,,,,,,,64,127,4,,,,
424320,note_on,24,0,1,,,,,,,,,1,,,63,50
424320,set_tempo,40,1,0,,,,,,1176470,,,,,,,
424320,control_change,48,0,3,,,,,,,64,127,3,,,,
424320,note_on,0,0,3,,,,,,,,,3,,,55,50
424320,control_change,60,0,5,,,,,,,64,127,5,,,,
424320,note_on,0,0,5,,,,,,,,,5,,,51,50
424560,note_on,0,0,3,,,,,,,,,3,,,58,52
424560,note_off,240,0,3,,,,,,,,,3,,,55,0
424800,note_on,0,0,3,,,,,,,,,3,,,55,54
424800,note_off,240,0,3,,,,,,,,,3,,,58,0
425040,note_off,240,0,3,,,,,,,,,3,,,55,0
425040,note_on,0,0,3,,,,,,,,,3,,,58,56
425220,control_change,900,0,5,,,,,,,64,0,5,,,,
425220,control_change,900,0,4,,,,,,,64,0,4,,,,
425220,control_change,180,0,3,,,,,,,64,0,3,,,,
425280,control_change,60,0,4,,,,,,,64,127,4,,,,
425280,note_on,0,0,3,,,,,,,,,3,,,62,58
425280,note_off,960,0,1,,,,,,,,,1,,,63,0
425280,control_change,60,0,3,,,,,,,64,127,3,,,,
425280,note_on,0,0,1,,,,,,,,,1,,,65,58
425280,control_change,60,0,5,,,,,,,64,127,5,,,,
425280,note_off,0,0,5,,,,,,,,,5,,,51,0
425280,note_off,0,0,3,,,,,,,,,3,,,58,0
425280,note_on,0,0,5,,,,,,,,,5,,,46,58
425520,note_on,0,0,3,,,,,,,,,3,,,58,61
425520,note_off,240,0,3,,,,,,,,,3,,,62,0
425760,note_off,240,0,3,,,,,,,,,3,,,58,0
425760,note_on,0,0,3,,,,,,,,,3,,,62,63
426000,note_off,240,0,3,,,,,,,,,3,,,62,0
426000,note_on,0,0,3,,,,,,,,,3,,,58,65
426180,control_change,900,0,5,,,,,,,64,0,5,,,,
426180,control_change,900,0,4,,,,,,,64,0,4,,,,
426180,control_change,180,0,3,,,,,,,64,0,3,,,,
426240,note_on,0,0,5,,,,,,,,,5,,,39,66
426240,note_on,0,0,3,,,,,,,,,3,,,63,66
426240,note_on,0,0,1,,,,,,,,,1,,,67,66
426240,note_off,960,0,1,,,,,,,,,1,,,65,0
426240,note_off,60,0,5,,,,,,,,,5,,,46,0
426240,note_off,60,0,3,,,,,,,,,3,,,58,0
426360,note_on,0,0,1,,,,,,,,,1,,,68,64
426360,note_off,120,0,1,,,,,,,,,1,,,67,0
426400,note_on,0,0,1,,,,,,,,,1,,,67,63
426400,note_off,40,0,1,,,,,,,,,1,,,68,0
426440,note_on,0,0,1,,,,,,,,,1,,,65,62
426440,note_off,40,0,1,,,,,,,,,1,,,67,0
426480,note_on,40,0,1,,,,,,,,,1,,,67,62
426485,note_off,5,0,1,,,,,,,,,1,,,65,0
426600,note_on,115,0,1,,,,,,,,,1,,,68,60
426605,note_off,5,0,1,,,,,,,,,1,,,67,0
426720,note_on,0,0,1,,,,,,,,,1,,,70,57
426720,note_off,115,0,1,,,,,,,,,1,,,68,0
426720,note_off,480,0,3,,,,,,,,,3,,,63,0
426840,note_on,0,0,1,,,,,,,,,1,,,72,55
426840,note_off,120,0,1,,,,,,,,,1,,,70,0
426960,note_off,120,0,1,,,,,,,,,1,,,72,0
426960,note_on,0,0,1,,,,,,,,,1,,,74,53
427080,note_on,0,0,1,,,,,,,,,1,,,75,51
427080,note_off,120,0,1,,,,,,,,,1,,,74,0
427160,set_tempo,2840,1,0,,,,,,1224489,,,,,,,
427200,set_tempo,40,1,0,,,,,,1276595,,,,,,,
427200,note_off,120,0,1,,,,,,,,,1,,,75,0
427200,note_on,0,0,1,,,,,,,,,1,,,70,49
427200,note_off,960,0,5,,,,,,,,,5,,,39,0
427440,note_off,240,0,1,,,,,,,,,1,,,70,0
427680,note_on,3840,0,2,,,,,,,,,2,,,75,46
427680,note_on,240,0,1,,,,,,,,,1,,,79,46
427680,set_tempo,480,1,0,,,,,,1200000,,,,,,,
427920,note_off,240,0,1,,,,,,,,,1,,,79,0
427920,note_off,240,0,2,,,,,,,,,2,,,75,0
427920,note_on,0,0,2,,,,,,,,,2,,,74,48
427920,note_on,0,0,1,,,,,,,,,1,,,77,48
428160,note_off,240,0,2,,,,,,,,,2,,,74,0
428160,note_off,240,0,1,,,,,,,,,1,,,77,0
428160,note_on,0,0,1,,,,,,,,,1,,,75,50
428160,note_on,0,0,2,,,,,,,,,2,,,72,50
428400,note_off,240,0,1,,,,,,,,,1,,,75,0
428400,note_on,0,0,1,,,,,,,,,1,,,74,52
428400,note_off,240,0,2,,,,,,,,,2,,,72,0
428400,note_on,0,0,2,,,,,,,,,2,,,70,52
428640,note_on,1440,0,5,,,,,,,,,5,,,50,54
428640,note_on,0,0,5,,,,,,,,,5,,,38,54
428760,note_on,0,0,2,,,,,,,,,2,,,68,55
428760,note_off,360,0,2,,,,,,,,,2,,,70,0
428760,note_on,360,0,1,,,,,,,,,1,,,72,55
428765,note_off,5,0,1,,,,,,,,,1,,,74,0
428880,note_on,0,0,5,,,,,,,,,5,,,39,56
428880,note_off,240,0,5,,,,,,,,,5,,,38,0
428880,note_off,0,0,5,,,,,,,,,5,,,50,0
428880,note_on,0,0,5,,,,,,,,,5,,,51,56
429000,note_off,235,0,1,,,,,,,,,1,,,72,0
429000,note_off,240,0,2,,,,,,,,,2,,,68,0
429000,note_on,0,0,2,,,,,,,,,2,,,67,57
429000,note_on,0,0,1,,,,,,,,,1,,,70,57
429120,note_off,240,0,5,,,,,,,,,5,,,39,0
429120,note_on,0,0,5,,,,,,,,,5,,,53,58
429120,note_on,0,0,5,,,,,,,,,5,,,41,58
429120,note_off,0,0,5,,,,,,,,,5,,,51,0
429240,note_off,240,0,2,,,,,,,,,2,,,67,0
429240,note_on,0,0,2,,,,,,,,,2,,,65,59
429240,note_off,240,0,1,,,,,,,,,1,,,70,0
429240,note_on,0,0,1,,,,,,,,,1,,,68,59
429360,note_off,240,0,5,,,,,,,,,5,,,53,0
429360,note_on,0,0,5,,,,,,,,,5,,,55,59
429360,note_on,0,0,5,,,,,,,,,5,,,43,59
429360,note_off,0,0,5,,,,,,,,,5,,,41,0
429480,note_on,0,0,1,,,,,,,,,1,,,67,60
429480,note_on,0,0,2,,,,,,,,,2,,,63,60
429480,note_off,240,0,2,,,,,,,,,2,,,65,0
429480,note_off,240,0,1,,,,,,,,,1,,,68,0
429600,note_on,0,0,5,,,,,,,,,5,,,56,61
429600,note_on,0,0,5,,,,,,,,,5,,,44,61
429600,note_off,0,0,5,,,,,,,,,5,,,43,0
429600,note_off,240,0,5,,,,,,,,,5,,,55,0
429720,note_off,240,0,1,,,,,,,,,1,,,67,0
429720,note_on,0,0,1,,,,,,,,,1,,,72,62
429720,note_off,240,0,2,,,,,,,,,2,,,63,0
429720,note_on,0,0,2,,,,,,,,,2,,,60,62
429840,note_on,0,0,5,,,,,,,,,5,,,53,63
429840,note_off,240,0,5,,,,,,,,,5,,,44,0
429840,note_on,0,0,5,,,,,,,,,5,,,41,63
429840,note_off,0,0,5,,,,,,,,,5,,,56,0
429960,note_off,240,0,1,,,,,,,,,1,,,72,0
429960,note_on,0,0,1,,,,,,,,,1,,,68,64
429960,note_on,0,0,2,,,,,,,,,2,,,65,64
429960,set_tempo,2280,1,0,,,,,,1224489,,,,,,,
429960,note_off,240,0,2,,,,,,,,,2,,,60,0
430032,note_off,192,0,5,,,,,,,,,5,,,41,0
430032,note_off,0,0,5,,,,,,,,,5,,,53,0
430065,note_off,105,0,2,,,,,,,,,2,,,65,0
430072,note_off,112,0,1,,,,,,,,,1,,,68,0
430080,note_on,8,0,1,,,,,,,,,1,,,67,66
430080,note_on,48,0,5,,,,,,,,,5,,,57,66
430080,note_on,15,0,2,,,,,,,,,2,,,63,66
430320,note_off,240,0,5,,,,,,,,,5,,,57,0
430320,note_on,0,0,5,,,,,,,,,5,,,58,64
430560,note_on,0,0,5,,,,,,,,,5,,,55,61
430560,note_off,240,0,5,,,,,,,,,5,,,58,0
430800,note_on,0,0,5,,,,,,,,,5,,,51,59
430800,note_off,240,0,5,,,,,,,,,5,,,55,0
431040,note_off,960,0,2,,,,,,,,,2,,,63,0
431040,note_on,0,0,2,,,,,,,,,2,,,62,55
431040,note_on,0,0,5,,,,,,,,,5,,,46,55
431040,note_off,960,0,1,,,,,,,,,1,,,67,0
431040,note_on,0,0,1,,,,,,,,,1,,,65,55
431040,note_off,240,0,5,,,,,,,,,5,,,51,0
431040,set_tempo,1080,1,0,,,,,,1333333,,,,,,,
431175,set_tempo,135,1,0,,,,,,1224489,,,,,,,
431230,note_off,190,0,1,,,,,,,,,1,,,65,0
431230,note_off,190,0,2,,,,,,,,,2,,,62,0
431280,note_on,50,0,1,,,,,,,,,1,,,67,52
431470,note_off,190,0,1,,,,,,,,,1,,,67,0
431520,note_off,480,0,5,,,,,,,,,5,,,46,0
431520,note_on,50,0,1,,,,,,,,,1,,,68,49
431710,note_off,190,0,1,,,,,,,,,1,,,68,0
431760,note_on,50,0,1,,,,,,,,,1,,,69,47
431895,set_tempo,720,1,0,,,,,,1666666,,,,,,,
431950,note_off,190,0,1,,,,,,,,,1,,,69,0
432000,control_change,5280,0,3,,,,,,,64,127,3,,,,
432000,control_change,480,0,5,,,,,,,64,127,5,,,,
432000,note_on,0,0,5,,,,,,,,,5,,,51,50
432000,control_change,5820,0,4,,,,,,,64,127,4,,,,
432000,note_on,50,0,1,,,,,,,,,1,,,70,50
432000,set_tempo,105,1,0,,,,,,1176470,,,,,,,
432240,note_off,240,0,5,,,,,,,,,5,,,51,0
432240,note_on,240,0,3,,,,,,,,,3,,,55,51
432480,note_off,240,0,3,,,,,,,,,3,,,55,0
432480,note_on,0,0,3,,,,,,,,,3,,,58,51
432600,note_off,600,0,1,,,,,,,,,1,,,70,0
432600,note_on,0,0,1,,,,,,,,,1,,,74,52
432720,note_on,0,0,1,,,,,,,,,1,,,75,52
432720,note_off,240,0,3,,,,,,,,,3,,,58,0
432720,note_on,0,0,3,,,,,,,,,3,,,55,52
432720,note_off,120,0,1,,,,,,,,,1,,,74,0
432840,note_off,120,0,1,,,,,,,,,1,,,75,0
432840,note_on,0,0,1,,,,,,,,,1,,,70,52
432900,control_change,900,0,4,,,,,,,64,0,4,,,,
432900,control_change,660,0,5,,,,,,,64,0,5,,,,
432900,control_change,180,0,3,,,,,,,64,0,3,,,,
432960,note_on,0,0,1,,,,,,,,,1,,,67,53
432960,note_on,0,0,5,,,,,,,,,5,,,51,53
432960,control_change,60,0,3,,,,,,,64,127,3,,,,
432960,control_change,60,0,4,,,,,,,64,127,4,,,,
432960,control_change,60,0,5,,,,,,,64,127,5,,,,
432960,note_off,120,0,1,,,,,,,,,1,,,70,0
432960,note_off,0,0,3,,,,,,,,,3,,,55,0
433150,note_off,190,0,1,,,,,,,,,1,,,67,0
433200,note_on,50,0,1,,,,,,,,,1,,,67,53
433200,note_off,240,0,5,,,,,,,,,5,,,51,0
433200,note_on,240,0,3,,,,,,,,,3,,,55,53
433390,note_off,190,0,1,,,,,,,,,1,,,67,0
433440,note_on,50,0,1,,,,,,,,,1,,,67,54
433440,note_off,240,0,3,,,,,,,,,3,,,55,0
433440,note_on,0,0,3,,,,,,,,,3,,,58,54
433630,note_off,190,0,1,,,,,,,,,1,,,67,0
433680,note_off,240,0,3,,,,,,,,,3,,,58,0
433680,note_on,0,0,3,,,,,,,,,3,,,55,55
433680,note_on,50,0,1,,,,,,,,,1,,,67,55
433860,control_change,660,0,5,,,,,,,64,0,5,,,,
433860,control_change,180,0,3,,,,,,,64,0,3,,,,
433860,control_change,900,0,4,,,,,,,64,0,4,,,,
433870,note_off,190,0,1,,,,,,,,,1,,,67,0
433920,control_change,60,0,3,,,,,,,64,127,3,,,,
433920,note_on,50,0,1,,,,,,,,,1,,,67,56
433920,control_change,60,0,4,,,,,,,64,127,4,,,,
433920,note_on,0,0,5,,,,,,,,,5,,,46,56
433920,control_change,60,0,5,,,,,,,64,127,5,,,,
433920,note_on,2690,0,2,,,,,,,,,2,,,63,56
433920,note_off,0,0,3,,,,,,,,,3,,,55,0
434160,note_off,240,0,5,,,,,,,,,5,,,46,0
434160,note_on,240,0,3,,,,,,,,,3,,,51,54
434400,note_on,0,0,3,,,,,,,,,3,,,55,53
434400,note_off,240,0,3,,,,,,,,,3,,,51,0
434520,note_on,0,0,1,,,,,,,,,1,,,68,47
434520,note_off,600,0,1,,,,,,,,,1,,,67,0
434560,note_on,40,0,1,,,,,,,,,1,,,67,47
434580,note_off,20,0,1,,,,,,,,,1,,,68,0
434600,note_on,20,0,1,,,,,,,,,1,,,65,48
434620,note_off,20,0,1,,,,,,,,,1,,,67,0
434640,note_on,20,0,1,,,,,,,,,1,,,67,48
434640,note_on,0,0,3,,,,,,,,,3,,,51,51
434640,note_off,240,0,3,,,,,,,,,3,,,55,0
434660,note_off,20,0,1,,,,,,,,,1,,,65,0
434760,note_on,0,0,1,,,,,,,,,1,,,68,50
434760,note_off,100,0,1,,,,,,,,,1,,,67,0
434820,control_change,900,0,4,,,,,,,64,0,4,,,,
434820,control_change,660,0,5,,,,,,,64,0,5,,,,
434820,control_change,180,0,3,,,,,,,64,0,3,,,,
434880,note_off,120,0,1,,,,,,,,,1,,,68,0
434880,control_change,60,0,4,,,,,,,64,127,4,,,,
434880,control_change,60,0,5,,,,,,,64,127,5,,,,
434880,control_change,60,0,3,,,,,,,64,127,3,,,,
434880,note_off,0,0,3,,,,,,,,,3,,,51,0
434880,note_on,0,0,2,,,,,,,,,2,,,62,52
434880,note_off,960,0,2,,,,,,,,,2,,,63,0
434880,note_on,0,0,5,,,,,,,,,5,,,46,50
434880,note_on,0,0,1,,,,,,,,,1,,,65,52
435120,note_on,240,0,3,,,,,,,,,3,,,50,49
435120,note_off,240,0,5,,,,,,,,,5,,,46,0
435360,note_off,480,0,1,,,,,,,,,1,,,65,0
435360,note_off,480,0,2,,,,,,,,,2,,,62,0
435360,note_off,240,0,3,,,,,,,,,3,,,50,0
435360,note_on,0,0,3,,,,,,,,,3,,,53,47
435480,note_on,120,0,1,,,,,,,,,1,,,58,47
435600,note_off,120,0,1,,,,,,,,,1,,,58,0
435600,note_off,240,0,3,,,,,,,,,3,,,53,0
435600,note_on,0,0,3,,,,,,,,,3,,,50,46
435600,note_on,0,0,1,,,,,,,,,1,,,60,46
435720,note_off,120,0,1,,,,,,,,,1,,,60,0
435720,note_on,0,0,1,,,,,,,,,1,,,62,46
435780,control_change,900,0,4,,,,,,,64,0,4,,,,
435780,control_change,180,0,3,,,,,,,64,0,3,,,,
435780,control_change,660,0,5,,,,,,,64,0,5,,,,
435792,note_off,12,0,3,,,,,,,,,3,,,50,0
435800,set_tempo,3800,1,0,,,,,,1363636,,,,,,,
435816,note_off,96,0,1,,,,,,,,,1,,,62,0
435840,control_change,60,0,4,,,,,,,64,127,4,,,,
435840,control_change,48,0,3,,,,,,,64,127,3,,,,
435840,note_on,0,0,5,,,,,,,,,5,,,51,54
435840,control_change,60,0,5,,,,,,,64,127,5,,,,
435840,note_on,0,0,3,,,,,,,,,3,,,55,54
435840,set_tempo,40,1,0,,,,,,1176470,,,,,,,
435840,note_on,24,0,1,,,,,,,,,1,,,63,54
436080,note_on,0,0,3,,,,,,,,,3,,,58,56
436080,note_off,240,0,3,,,,,,,,,3,,,55,0
436320,note_off,240,0,3,,,,,,,,,3,,,58,0
436320,note_on,0,0,3,,,,,,,,,3,,,55,58
436560,note_off,240,0,3,,,,,,,,,3,,,55,0
436560,note_on,0,0,3,,,,,,,,,3,,,58,60
436740,control_change,900,0,5,,,,,,,64,0,5,,,,
436740,control_change,900,0,4,,,,,,,64,0,4,,,,
436740,control_change,180,0,3,,,,,,,64,0,3,,,,
436800,note_off,0,0,5,,,,,,,,,5,,,51,0
436800,note_on,0,0,5,,,,,,,,,5,,,46,62
436800,control_change,60,0,4,,,,,,,64,127,4,,,,
436800,note_on,0,0,1,,,,,,,,,1,,,65,62
436800,note_off,960,0,1,,,,,,,,,1,,,63,0
436800,control_change,60,0,5,,,,,,,64,127,5,,,,
436800,control_change,60,0,3,,,,,,,64,127,3,,,,
436800,note_off,0,0,3,,,,,,,,,3,,,58,0
436800,note_on,0,0,3,,,,,,,,,3,,,62,62
437040,note_off,240,0,3,,,,,,,,,3,,,62,0
437040,note_on,0,0,3,,,,,,,,,3,,,58,63
437280,note_off,240,0,3,,,,,,,,,3,,,58,0
437280,note_on,0,0,3,,,,,,,,,3,,,62,65
437520,note_off,240,0,3,,,,,,,,,3,,,62,0
437520,note_on,0,0,3,,,,,,,,,3,,,58,67
437700,control_change,900,0,5,,,,,,,64,0,5,,,,
437700,control_change,900,0,4,,,,,,,64,0,4,,,,
437700,control_change,180,0,3,,,,,,,64,0,3,,,,
437760,note_on,0,0,5,,,,,,,,,5,,,39,68
437760,note_off,60,0,5,,,,,,,,,5,,,46,0
437760,note_off,960,0,1,,,,,,,,,1,,,65,0
437760,note_on,0,0,3,,,,,,,,,3,,,63,68
437760,note_off,60,0,3,,,,,,,,,3,,,58,0
437760,note_on,0,0,1,,,,,,,,,1,,,67,68
437880,note_off,120,0,1,,,,,,,,,1,,,67,0
437880,note_on,0,0,1,,,,,,,,,1,,,68,58
437920,note_on,0,0,1,,,,,,,,,1,,,67,60
437920,note_off,40,0,1,,,,,,,,,1,,,68,0
437960,note_on,0,0,1,,,,,,,,,1,,,65,63
437960,note_off,40,0,1,,,,,,,,,1,,,67,0
438000,note_on,0,0,1,,,,,,,,,1,,,67,65
438000,note_off,40,0,1,,,,,,,,,1,,,65,0
438120,note_on,0,0,1,,,,,,,,,1,,,68,57
438120,note_off,120,0,1,,,,,,,,,1,,,67,0
438240,note_off,120,0,1,,,,,,,,,1,,,68,0
438240,note_on,0,0,1,,,,,,,,,1,,,70,62
438240,note_off,480,0,3,,,,,,,,,3,,,63,0
438360,note_off,120,0,1,,,,,,,,,1,,,70,0
438360,note_on,0,0,1,,,,,,,,,1,,,72,52
438480,note_off,120,0,1,,,,,,,,,1,,,72,0
438480,note_on,0,0,1,,,,,,,,,1,,,74,56
438600,note_off,120,0,1,,,,,,,,,1,,,74,0
438600,note_on,0,0,1,,,,,,,,,1,,,75,46
438680,set_tempo,2840,1,0,,,,,,1224489,,,,,,,
438720,note_off,960,0,5,,,,,,,,,5,,,39,0
438720,note_off,120,0,1,,,,,,,,,1,,,75,0
438720,note_on,0,0,1,,,,,,,,,1,,,70,43
438720,set_tempo,40,1,0,,,,,,1276595,,,,,,,
438960,note_off,240,0,1,,,,,,,,,1,,,70,0
439200,note_on,240,0,1,,,,,,,,,1,,,75,54
439200,set_tempo,480,1,0,,,,,,1200000,,,,,,,
439295,note_off,95,0,1,,,,,,,,,1,,,75,0
439320,note_on,25,0,1,,,,,,,,,1,,,74,56
439415,note_off,95,0,1,,,,,,,,,1,,,74,0
439440,note_on,25,0,1,,,,,,,,,1,,,73,59
439535,note_off,95,0,1,,,,,,,,,1,,,73,0
439560,note_on,25,0,1,,,,,,,,,1,,,72,61
439655,note_off,95,0,1,,,,,,,,,1,,,72,0
439680,note_on,25,0,1,,,,,,,,,1,,,71,63
439872,note_off,192,0,1,,,,,,,,,1,,,71,0
439920,note_on,2220,0,4,,,,,,,,,4,,,63,60
439920,note_on,1200,0,5,,,,,,,,,5,,,55,60
440112,note_off,192,0,5,,,,,,,,,5,,,55,0
440112,note_off,192,0,4,,,,,,,,,4,,,63,0
440160,note_on,288,0,1,,,,,,,,,1,,,75,58
440255,note_off,95,0,1,,,,,,,,,1,,,75,0
440280,note_on,25,0,1,,,,,,,,,1,,,74,60
440375,note_off,95,0,1,,,,,,,,,1,,,74,0
440400,note_on,25,0,1,,,,,,,,,1,,,73,63
440495,note_off,95,0,1,,,,,,,,,1,,,73,0
440520,note_on,25,0,1,,,,,,,,,1,,,72,66
440615,note_off,95,0,1,,,,,,,,,1,,,72,0
440640,note_on,25,0,1,,,,,,,,,1,,,71,68
440832,note_off,192,0,1,,,,,,,,,1,,,71,0
440880,note_on,768,0,5,,,,,,,,,5,,,55,66
440880,note_on,768,0,4,,,,,,,,,4,,,63,66
441072,note_off,192,0,4,,,,,,,,,4,,,63,0
441072,note_off,192,0,5,,,,,,,,,5,,,55,0
441120,note_on,288,0,1,,,,,,,,,1,,,75,66
441215,note_off,95,0,1,,,,,,,,,1,,,75,0
441240,note_on,25,0,1,,,,,,,,,1,,,74,68
441335,note_off,95,0,1,,,,,,,,,1,,,74,0
441360,note_on,25,0,1,,,,,,,,,1,,,73,70
441455,note_off,95,0,1,,,,,,,,,1,,,73,0
441480,note_on,25,0,1,,,,,,,,,1,,,72,72
441560,set_tempo,2360,1,0,,,,,,1818181,,,,,,,
441575,note_off,95,0,1,,,,,,,,,1,,,72,0
441600,note_on,528,0,4,,,,,,,,,4,,,63,74
441600,set_tempo,40,1,0,,,,,,1276595,,,,,,,
441600,note_on,528,0,5,,,,,,,,,5,,,55,74
441600,note_on,0,0,4,,,,,,,,,4,,,61,74
441600,note_on,25,0,1,,,,,,,,,1,,,71,74
442560,note_on,0,0,1,,,,,,,,,1,,,72,49
442560,note_off,960,0,1,,,,,,,,,1,,,71,0
442560,set_tempo,960,1,0,,,,,,1333333,,,,,,,
442560,note_on,0,0,4,,,,,,,,,4,,,60,49
442560,note_off,960,0,4,,,,,,,,,4,,,61,0
442560,note_off,960,0,5,,,,,,,,,5,,,55,0
442560,note_on,0,0,5,,,,,,,,,5,,,56,49
442800,note_off,240,0,5,,,,,,,,,5,,,56,0
442800,note_off,240,0,1,,,,,,,,,1,,,72,0
442800,note_off,0,0,4,,,,,,,,,4,,,63,0
442800,note_off,240,0,4,,,,,,,,,4,,,60,0
443040,note_on,240,0,1,,,,,,,,,1,,,65,48
443040,set_tempo,480,1,0,,,,,,1224489,,,,,,,
443135,note_off,95,0,1,,,,,,,,,1,,,65,0
443160,note_on,25,0,1,,,,,,,,,1,,,67,51
443255,note_off,95,0,1,,,,,,,,,1,,,67,0
443280,note_on,25,0,1,,,,,,,,,1,,,68,53
443375,note_off,95,0,1,,,,,,,,,1,,,68,0
443400,note_on,25,0,1,,,,,,,,,1,,,69,55
443480,set_tempo,440,1,0,,,,,,1276595,,,,,,,
443495,note_off,95,0,1,,,,,,,,,1,,,69,0
443520,set_tempo,40,1,0,,,,,,1176470,,,,,,,
443520,note_on,25,0,1,,,,,,,,,1,,,70,58
444000,note_on,1200,0,4,,,,,,,,,4,,,51,56
444000,note_on,1200,0,5,,,,,,,,,5,,,43,56
444120,note_off,600,0,1,,,,,,,,,1,,,70,0
444120,note_on,0,0,1,,,,,,,,,1,,,74,56
444180,note_on,0,0,1,,,,,,,,,1,,,72,57
444180,note_off,60,0,1,,,,,,,,,1,,,74,0
444240,note_on,0,0,1,,,,,,,,,1,,,75,59
444240,note_off,60,0,1,,,,,,,,,1,,,72,0
444300,note_on,0,0,1,,,,,,,,,1,,,74,60
444300,note_off,60,0,1,,,,,,,,,1,,,75,0
444360,note_off,60,0,1,,,,,,,,,1,,,74,0
444360,note_on,0,0,1,,,,,,,,,1,,,77,61
444420,note_off,60,0,1,,,,,,,,,1,,,77,0
444420,set_tempo,900,1,0,,,,,,1200000,,,,,,,
444420,note_on,0,0,1,,,,,,,,,1,,,75,63
444427,note_off,427,0,4,,,,,,,,,4,,,51,0
444427,note_off,427,0,5,,,,,,,,,5,,,43,0
444480,note_off,60,0,1,,,,,,,,,1,,,75,0
444480,note_on,0,0,1,,,,,,,,,1,,,63,63
444480,note_on,9120,0,2,,,,,,,,,2,,,58,63
444480,note_on,53,0,4,,,,,,,,,4,,,55,64
444480,note_on,53,0,5,,,,,,,,,5,,,46,64
444960,note_off,480,0,4,,,,,,,,,4,,,55,0
444960,note_on,0,0,4,,,,,,,,,4,,,56,57
445040,note_on,560,0,1,,,,,,,,,1,,,65,58
445045,note_off,5,0,1,,,,,,,,,1,,,63,0
445080,note_on,35,0,1,,,,,,,,,1,,,63,58
445100,note_off,20,0,1,,,,,,,,,1,,,65,0
445120,note_on,20,0,1,,,,,,,,,1,,,62,57
445140,note_off,20,0,1,,,,,,,,,1,,,63,0
445160,note_on,20,0,1,,,,,,,,,1,,,63,57
445180,note_off,20,0,1,,,,,,,,,1,,,62,0
445200,note_on,0,0,1,,,,,,,,,1,,,62,57
445200,note_on,20,0,1,,,,,,,,,1,,,67,57
445207,note_off,727,0,2,,,,,,,,,2,,,58,0
445220,note_off,20,0,1,,,,,,,,,1,,,63,0
445320,note_off,100,0,1,,,,,,,,,1,,,67,0
445320,note_on,0,0,1,,,,,,,,,1,,,65,55
445380,note_off,420,0,4,,,,,,,,,4,,,56,0
445387,note_off,907,0,5,,,,,,,,,5,,,46,0
445395,note_off,75,0,1,,,,,,,,,1,,,62,0
445400,set_tempo,980,1,0,,,,,,1276595,,,,,,,
445416,note_off,21,0,1,,,,,,,,,1,,,65,0
445440,note_on,53,0,5,,,,,,,,,5,,,51,53
445440,note_on,24,0,1,,,,,,,,,1,,,63,54
445440,note_on,60,0,4,,,,,,,,,4,,,55,53
445750,note_off,310,0,1,,,,,,,,,1,,,63,0
445750,note_off,310,0,5,,,,,,,,,5,,,51,0
445750,note_off,310,0,4,,,,,,,,,4,,,55,0
445920,note_on,170,0,1,,,,,,,,,1,,,63,46
445920,note_on,170,0,4,,,,,,,,,4,,,55,47
445920,note_on,170,0,5,,,,,,,,,5,,,51,47
446230,note_off,310,0,1,,,,,,,,,1,,,63,0
446230,note_off,310,0,5,,,,,,,,,5,,,51,0
446230,note_off,310,0,4,,,,,,,,,4,,,55,0
447360,set_tempo,1960,1,0,,,,,,1176470,,,,,,,
447360,note_on,1130,0,5,,,,,,,,,5,,,32,47
447360,note_on,1130,0,1,,,,,,,,,1,,,60,47
447360,note_on,2153,0,2,,,,,,,,,2,,,51,47
447600,note_on,9360,0,3,,,,,,,,,3,,,44,46
447840,note_off,240,0,3,,,,,,,,,3,,,44,0
447840,note_on,0,0,3,,,,,,,,,3,,,44,46
448080,note_off,240,0,3,,,,,,,,,3,,,44,0
448080,note_on,0,0,3,,,,,,,,,3,,,44,45
448320,note_off,240,0,3,,,,,,,,,3,,,44,0
448320,note_on,0,0,3,,,,,,,,,3,,,44,44
448320,note_off,960,0,1,,,,,,,,,1,,,60,0
448320,note_on,0,0,1,,,,,,,,,1,,,58,44
448320,note_on,0,0,2,,,,,,,,,2,,,49,44
448320,note_off,960,0,2,,,,,,,,,2,,,51,0
448560,note_off,240,0,3,,,,,,,,,3,,,44,0
448560,note_on,0,0,3,,,,,,,,,3,,,44,44
448800,note_on,0,0,3,,,,,,,,,3,,,44,43
448800,note_off,240,0,3,,,,,,,,,3,,,44,0
449040,note_on,0,0,3,,,,,,,,,3,,,44,43
449040,note_off,240,0,3,,,,,,,,,3,,,44,0
449280,note_off,240,0,3,,,,,,,,,3,,,44,0
449280,note_on,0,0,1,,,,,,,,,1,,,63,42
449280,note_on,0,0,2,,,,,,,,,2,,,56,42
449280,note_on,0,0,2,,,,,,,,,2,,,48,42
449280,note_off,960,0,2,,,,,,,,,2,,,49,0
449280,note_off,960,0,1,,,,,,,,,1,,,58,0
449280,note_on,0,0,3,,,,,,,,,3,,,44,42
449520,note_on,0,0,3,,,,,,,,,3,,,44,44
449520,note_off,240,0,3,,,,,,,,,3,,,44,0
449760,note_on,0,0,3,,,,,,,,,3,,,44,47
449760,note_off,240,0,3,,,,,,,,,3,,,44,0
450000,note_off,240,0,3,,,,,,,,,3,,,44,0
450000,note_on,0,0,3,,,,,,,,,3,,,44,49
450232,note_off,2872,0,5,,,,,,,,,5,,,32,0
450240,note_on,0,0,2,,,,,,,,,2,,,55,51
450240,note_off,240,0,3,,,,,,,,,3,,,44,0
450240,note_on,0,0,3,,,,,,,,,3,,,39,51
450240,note_off,0,0,2,,,,,,,,,2,,,48,0
450240,note_off,960,0,2,,,,,,,,,2,,,56,0
450240,note_on,0,0,2,,,,,,,,,2,,,46,51
450360,note_off,1080,0,1,,,,,,,,,1,,,63,0
450360,note_on,0,0,1,,,,,,,,,1,,,65,52
450480,note_off,120,0,1,,,,,,,,,1,,,65,0
450480,note_on,0,0,1,,,,,,,,,1,,,63,53
450480,note_off,240,0,3,,,,,,,,,3,,,39,0
450480,note_on,0,0,3,,,,,,,,,3,,,39,53
450600,note_on,0,0,1,,,,,,,,,1,,,65,54
450600,note_off,120,0,1,,,,,,,,,1,,,63,0
450720,note_off,240,0,3,,,,,,,,,3,,,39,0
450720,note_on,0,0,3,,,,,,,,,3,,,39,55
450720,note_on,0,0,1,,,,,,,,,1,,,61,55
450720,note_off,120,0,1,,,,,,,,,1,,,65,0
450840,note_on,0,0,1,,,,,,,,,1,,,63,56
450840,note_off,120,0,1,,,,,,,,,1,,,61,0
450960,note_off,240,0,3,,,,,,,,,3,,,39,0
450960,note_on,0,0,3,,,,,,,,,3,,,39,57
450960,note_off,120,0,1,,,,,,,,,1,,,63,0
450960,note_on,0,0,1,,,,,,,,,1,,,61,57
451080,note_off,120,0,1,,,,,,,,,1,,,61,0
451080,note_on,0,0,1,,,,,,,,,1,,,63,58
451160,set_tempo,3800,1,0,,,,,,1276595,,,,,,,
451162,note_off,922,0,2,,,,,,,,,2,,,55,0
451170,note_off,210,0,3,,,,,,,,,3,,,39,0
451170,note_off,8,0,2,,,,,,,,,2,,,46,0
451176,note_off,96,0,1,,,,,,,,,1,,,63,0
451200,set_tempo,40,1,0,,,,,,1176470,,,,,,,
451200,note_on,24,0,1,,,,,,,,,1,,,60,59
451200,note_on,30,0,2,,,,,,,,,2,,,51,59
451200,note_on,968,0,5,,,,,,,,,5,,,32,57
451440,note_on,270,0,3,,,,,,,,,3,,,44,55
451680,note_on,0,0,3,,,,,,,,,3,,,44,53
451680,note_off,240,0,3,,,,,,,,,3,,,44,0
451920,note_off,240,0,3,,,,,,,,,3,,,44,0
451920,note_on,0,0,3,,,,,,,,,3,,,44,52
452160,note_off,240,0,3,,,,,,,,,3,,,44,0
452160,note_on,0,0,3,,,,,,,,,3,,,44,50
452160,note_off,960,0,1,,,,,,,,,1,,,60,0
452160,note_on,0,0,2,,,,,,,,,2,,,49,50
452160,note_off,960,0,2,,,,,,,,,2,,,51,0
452160,note_on,0,0,1,,,,,,,,,1,,,58,50
452400,note_off,240,0,3,,,,,,,,,3,,,44,0
452400,note_on,0,0,3,,,,,,,,,3,,,44,48
452640,note_off,240,0,3,,,,,,,,,3,,,44,0
452640,note_on,0,0,3,,,,,,,,,3,,,44,46
452880,note_off,240,0,3,,,,,,,,,3,,,44,0
452880,note_on,0,0,3,,,,,,,,,3,,,44,45
453120,note_off,240,0,3,,,,,,,,,3,,,44,0
453120,note_off,960,0,1,,,,,,,,,1,,,58,0
453120,note_on,0,0,1,,,,,,,,,1,,,63,46
453120,note_on,0,0,2,,,,,,,,,2,,,48,46
453120,note_on,0,0,2,,,,,,,,,2,,,56,46
453120,note_off,960,0,2,,,,,,,,,2,,,49,0
453120,note_on,0,0,3,,,,,,,,,3,,,44,46
453360,note_off,240,0,3,,,,,,,,,3,,,44,0
453360,note_on,0,0,3,,,,,,,,,3,,,44,48
453600,note_on,0,0,3,,,,,,,,,3,,,44,51
453600,note_off,240,0,3,,,,,,,,,3,,,44,0
453840,note_on,0,0,3,,,,,,,,,3,,,44,53
453840,note_off,240,0,3,,,,,,,,,3,,,44,0
454072,note_off,2872,0,5,,,,,,,,,5,,,32,0
454080,note_on,0,0,2,,,,,,,,,2,,,46,55
454080,note_off,960,0,2,,,,,,,,,2,,,56,0
454080,note_off,0,0,2,,,,,,,,,2,,,48,0
454080,note_on,0,0,3,,,,,,,,,3,,,39,55
454080,note_off,240,0,3,,,,,,,,,3,,,44,0
454080,note_on,0,0,2,,,,,,,,,2,,,55,55
454200,note_off,1080,0,1,,,,,,,,,1,,,63,0
454200,note_on,0,0,1,,,,,,,,,1,,,65,56
454320,note_on,0,0,3,,,,,,,,,3,,,39,57
454320,note_off,240,0,3,,,,,,,,,3,,,39,0
454320,note_on,0,0,1,,,,,,,,,1,,,63,57
454320,note_off,120,0,1,,,,,,,,,1,,,65,0
454440,note_on,0,0,1,,,,,,,,,1,,,65,58
454440,note_off,120,0,1,,,,,,,,,1,,,63,0
454560,note_off,240,0,3,,,,,,,,,3,,,39,0
454560,note_off,120,0,1,,,,,,,,,1,,,65,0
454560,note_on,0,0,1,,,,,,,,,1,,,61,60
454560,note_on,0,0,3,,,,,,,,,3,,,39,60
454680,note_off,120,0,1,,,,,,,,,1,,,61,0
454680,note_on,0,0,1,,,,,,,,,1,,,63,61
454800,note_off,240,0,3,,,,,,,,,3,,,39,0
454800,note_on,0,0,1,,,,,,,,,1,,,61,62
454800,note_on,0,0,3,,,,,,,,,3,,,39,62
454800,note_off,120,0,1,,,,,,,,,1,,,63,0
454920,note_on,0,0,1,,,,,,,,,1,,,63,63
454920,note_off,120,0,1,,,,,,,,,1,,,61,0
455000,set_tempo,3800,1,0,,,,,,1276595,,,,,,,
455010,note_off,930,0,2,,,,,,,,,2,,,55,0
455016,note_off,96,0,1,,,,,,,,,1,,,63,0
455017,note_off,7,0,2,,,,,,,,,2,,,46,0
455017,note_off,217,0,3,,,,,,,,,3,,,39,0
455040,note_on,968,0,5,,,,,,,,,5,,,44,64
455040,note_on,23,0,2,,,,,,,,,2,,,56,64
455040,note_on,24,0,1,,,,,,,,,1,,,60,64
455040,set_tempo,40,1,0,,,,,,1176470,,,,,,,
455280,note_on,263,0,3,,,,,,,,,3,,,56,67
455460,note_off,420,0,2,,,,,,,,,2,,,56,0
455460,note_off,420,0,1,,,,,,,,,1,,,60,0
455520,note_on,60,0,2,,,,,,,,,2,,,60,69
455520,note_on,60,0,1,,,,,,,,,1,,,68,69
455520,note_on,0,0,3,,,,,,,,,3,,,56,69
455520,note_off,240,0,3,,,,,,,,,3,,,56,0
455760,note_on,0,0,3,,,,,,,,,3,,,56,67
455760,note_off,240,0,3,,,,,,,,,3,,,56,0
456000,note_on,0,0,3,,,,,,,,,3,,,56,64
456000,note_off,240,0,3,,,,,,,,,3,,,56,0
456240,note_off,240,0,3,,,,,,,,,3,,,56,0
456240,note_on,0,0,3,,,,,,,,,3,,,56,62
456480,note_on,0,0,1,,,,,,,,,1,,,67,59
456480,note_off,960,0,1,,,,,,,,,1,,,68,0
456480,note_off,240,0,3,,,,,,,,,3,,,56,0
456480,note_off,960,0,2,,,,,,,,,2,,,60,0
456480,note_on,0,0,3,,,,,,,,,3,,,56,59
456480,note_on,0,0,2,,,,,,,,,2,,,63,59
456720,note_off,240,0,3,,,,,,,,,3,,,56,0
456720,note_on,0,0,3,,,,,,,,,3,,,56,57
456900,note_off,420,0,1,,,,,,,,,1,,,67,0
456900,note_off,420,0,2,,,,,,,,,2,,,63,0
456960,note_on,60,0,1,,,,,,,,,1,,,67,55
456960,note_on,60,0,2,,,,,,,,,2,,,63,55
456960,note_off,240,0,3,,,,,,,,,3,,,56,0
456960,note_on,0,0,3,,,,,,,,,3,,,56,55
457200,note_on,0,0,2,,,,,,,,,2,,,61,50
457200,note_off,240,0,1,,,,,,,,,1,,,67,0
457200,note_on,0,0,1,,,,,,,,,1,,,65,50
457200,note_off,240,0,2,,,,,,,,,2,,,63,0
457440,note_off,240,0,2,,,,,,,,,2,,,61,0
457440,note_on,0,0,1,,,,,,,,,1,,,63,44
457440,note_off,240,0,1,,,,,,,,,1,,,65,0
457440,note_on,0,0,2,,,,,,,,,2,,,60,44
457815,note_off,2775,0,5,,,,,,,,,5,,,44,0
457822,note_off,862,0,3,,,,,,,,,3,,,56,0
457825,note_off,385,0,2,,,,,,,,,2,,,60,0
457825,note_off,385,0,1,,,,,,,,,1,,,63,0
457880,set_tempo,2840,1,0,,,,,,1276595,,,,,,,
457920,note_on,95,0,1,,,,,,,,,1,,,74,51
457920,set_tempo,40,1,0,,,,,,1176470,,,,,,,
458160,note_off,240,0,1,,,,,,,,,1,,,74,0
458160,note_on,0,0,1,,,,,,,,,1,,,75,53
458400,note_on,0,0,1,,,,,,,,,1,,,77,56
458400,note_off,240,0,1,,,,,,,,,1,,,75,0
458640,note_on,0,0,1,,,,,,,,,1,,,75,58
458640,note_off,240,0,1,,,,,,,,,1,,,77,0
458832,note_off,192,0,1,,,,,,,,,1,,,75,0
458840,set_tempo,920,1,0,,,,,,1276595,,,,,,,
458880,control_change,1058,0,3,,,,,,,64,127,3,,,,
458880,set_tempo,40,1,0,,,,,,1176470,,,,,,,
458880,control_change,12650,0,4,,,,,,,64,127,4,,,,
458880,note_on,0,0,5,,,,,,,,,5,,,51,61
458880,control_change,1065,0,5,,,,,,,64,127,5,,,,
458880,note_on,48,0,1,,,,,,,,,1,,,75,61
459120,note_on,0,0,1,,,,,,,,,1,,,67,59
459120,note_off,240,0,1,,,,,,,,,1,,,75,0
459120,note_on,240,0,3,,,,,,,,,3,,,58,60
459120,note_off,240,0,5,,,,,,,,,5,,,51,0
459312,note_off,192,0,1,,,,,,,,,1,,,67,0
459360,note_off,240,0,3,,,,,,,,,3,,,58,0
459360,note_on,0,0,3,,,,,,,,,3,,,61,59
459360,note_on,48,0,1,,,,,,,,,1,,,67,56
459600,note_off,240,0,3,,,,,,,,,3,,,61,0
459600,note_on,0,0,3,,,,,,,,,3,,,58,58
459780,control_change,180,0,3,,,,,,,64,0,3,,,,
459780,control_change,900,0,4,,,,,,,64,0,4,,,,
459780,control_change,660,0,5,,,,,,,64,0,5,,,,
459840,control_change,60,0,4,,,,,,,64,127,4,,,,
459840,note_off,0,0,3,,,,,,,,,3,,,58,0
459840,control_change,60,0,3,,,,,,,64,127,3,,,,
459840,note_on,0,0,5,,,,,,,,,5,,,51,57
459840,control_change,60,0,5,,,,,,,64,127,5,,,,
460080,note_on,240,0,3,,,,,,,,,3,,,58,56
460080,note_off,240,0,5,,,,,,,,,5,,,51,0
460080,note_on,720,0,1,,,,,,,,,1,,,68,51
460095,note_off,15,0,1,,,,,,,,,1,,,67,0
460140,note_on,0,0,1,,,,,,,,,1,,,67,52
460140,note_off,45,0,1,,,,,,,,,1,,,68,0
460200,note_on,0,0,1,,,,,,,,,1,,,65,54
460200,note_off,60,0,1,,,,,,,,,1,,,67,0
460260,note_off,60,0,1,,,,,,,,,1,,,65,0
460260,note_on,0,0,1,,,,,,,,,1,,,67,55
460320,note_off,240,0,3,,,,,,,,,3,,,58,0
460320,note_off,60,0,1,,,,,,,,,1,,,67,0
460320,note_on,0,0,1,,,,,,,,,1,,,68,57
460320,note_on,0,0,3,,,,,,,,,3,,,61,54
460560,note_on,0,0,3,,,,,,,,,3,,,58,53
460560,note_off,240,0,1,,,,,,,,,1,,,68,0
460560,note_on,0,0,1,,,,,,,,,1,,,70,53
460560,note_off,240,0,3,,,,,,,,,3,,,61,0
460740,control_change,900,0,4,,,,,,,64,0,4,,,,
460740,control_change,660,0,5,,,,,,,64,0,5,,,,
460740,control_change,180,0,3,,,,,,,64,0,3,,,,
460752,note_off,192,0,1,,,,,,,,,1,,,70,0
460752,note_off,12,0,3,,,,,,,,,3,,,58,0
460760,set_tempo,1880,1,0,,,,,,1224489,,,,,,,
460800,control_change,60,0,4,,,,,,,64,127,4,,,,
460800,control_change,60,0,5,,,,,,,64,127,5,,,,
460800,note_on,0,0,5,,,,,,,,,5,,,51,52
460800,control_change,48,0,3,,,,,,,64,127,3,,,,
460800,note_on,48,0,1,,,,,,,,,1,,,70,52
460800,set_tempo,40,1,0,,,,,,1176470,,,,,,,
461040,note_off,240,0,5,,,,,,,,,5,,,51,0
461040,note_on,240,0,3,,,,,,,,,3,,,56,51
461160,note_on,0,0,1,,,,,,,,,1,,,72,51
461160,note_off,360,0,1,,,,,,,,,1,,,70,0
461280,note_off,120,0,1,,,,,,,,,1,,,72,0
461280,note_on,0,0,1,,,,,,,,,1,,,68,50
461280,note_off,240,0,3,,,,,,,,,3,,,56,0
461280,note_on,0,0,3,,,,,,,,,3,,,60,50
461520,note_on,0,0,3,,,,,,,,,3,,,56,49
461520,note_off,240,0,3,,,,,,,,,3,,,60,0
461665,note_off,385,0,1,,,,,,,,,1,,,68,0
461700,control_change,660,0,5,,,,,,,64,0,5,,,,
461700,control_change,900,0,4,,,,,,,64,0,4,,,,
461700,control_change,180,0,3,,,,,,,64,0,3,,,,
461720,set_tempo,920,1,0,,,,,,1276595,,,,,,,
461760,control_change,60,0,4,,,,,,,64,127,4,,,,
461760,set_tempo,40,1,0,,,,,,1176470,,,,,,,
461760,note_on,95,0,1,,,,,,,,,1,,,74,49
461760,control_change,60,0,5,,,,,,,64,127,5,,,,
461760,note_on,0,0,5,,,,,,,,,5,,,51,49
461760,note_off,0,0,3,,,,,,,,,3,,,56,0
461760,control_change,60,0,3,,,,,,,64,127,3,,,,
461880,note_off,120,0,1,,,,,,,,,1,,,74,0
461880,note_on,0,0,1,,,,,,,,,1,,,75,50
462000,note_on,0,0,1,,,,,,,,,1,,,74,52
462000,note_off,240,0,5,,,,,,,,,5,,,51,0
462000,note_off,120,0,1,,,,,,,,,1,,,75,0
462000,note_on,240,0,3,,,,,,,,,3,,,56,52
462120,note_on,0,0,1,,,,,,,,,1,,,75,54
462120,note_off,120,0,1,,,,,,,,,1,,,74,0
462240,note_off,240,0,3,,,,,,,,,3,,,56,0
462240,note_off,120,0,1,,,,,,,,,1,,,75,0
462240,note_on,0,0,1,,,,,,,,,1,,,74,55
462240,note_on,0,0,3,,,,,,,,,3,,,60,55
462360,note_off,120,0,1,,,,,,,,,1,,,74,0
462360,note_on,0,0,1,,,,,,,,,1,,,75,57
462480,note_off,120,0,1,,,,,,,,,1,,,75,0
462480,note_on,0,0,1,,,,,,,,,1,,,77,59
462480,note_off,240,0,3,,,,,,,,,3,,,60,0
462480,note_on,0,0,3,,,,,,,,,3,,,56,59
462600,note_off,120,0,1,,,,,,,,,1,,,77,0
462600,note_on,0,0,1,,,,,,,,,1,,,75,61
462660,control_change,180,0,3,,,,,,,64,0,3,,,,
462660,control_change,900,0,4,,,,,,,64,0,4,,,,
462660,control_change,660,0,5,,,,,,,64,0,5,,,,
462672,note_off,12,0,3,,,,,,,,,3,,,56,0
462680,set_tempo,920,1,0,,,,,,1276595,,,,,,,
462696,note_off,96,0,1,,,,,,,,,1,,,75,0
462720,control_change,60,0,5,,,,,,,64,127,5,,,,
462720,note_on,0,0,5,,,,,,,,,5,,,51,62
462720,control_change,60,0,4,,,,,,,64,127,4,,,,
462720,set_tempo,40,1,0,,,,,,1176470,,,,,,,
462720,control_change,48,0,3,,,,,,,64,127,3,,,,
462720,note_on,24,0,1,,,,,,,,,1,,,75,62
462960,note_off,240,0,1,,,,,,,,,1,,,75,0
462960,note_on,0,0,1,,,,,,,,,1,,,70,61
462960,note_on,240,0,3,,,,,,,,,3,,,55,61
462960,note_off,240,0,5,,,,,,,,,5,,,51,0
463152,note_off,192,0,1,,,,,,,,,1,,,70,0
463200,note_on,48,0,1,,,,,,,,,1,,,70,60
463200,note_off,240,0,3,,,,,,,,,3,,,55,0
463200,note_on,0,0,3,,,,,,,,,3,,,58,60
463440,note_off,240,0,3,,,,,,,,,3,,,58,0
463440,note_on,0,0,3,,,,,,,,,3,,,55,59
463620,control_change,660,0,5,,,,,,,64,0,5,,,,
463620,control_change,900,0,4,,,,,,,64,0,4,,,,
463620,control_change,180,0,3,,,,,,,64,0,3,,,,
463680,control_change,60,0,3,,,,,,,64,127,3,,,,
463680,control_change,60,0,5,,,,,,,64,127,5,,,,
463680,note_on,0,0,5,,,,,,,,,5,,,51,58
463680,note_off,0,0,3,,,,,,,,,3,,,55,0
463680,control_change,60,0,4,,,,,,,64,127,4,,,,
463920,note_on,240,0,3,,,,,,,,,3,,,55,57
463920,note_on,720,0,1,,,,,,,,,1,,,72,52
463920,note_off,240,0,5,,,,,,,,,5,,,51,0
463925,note_off,5,0,1,,,,,,,,,1,,,70,0
463980,note_off,55,0,1,,,,,,,,,1,,,72,0
463980,note_on,0,0,1,,,,,,,,,1,,,70,54
464040,note_off,60,0,1,,,,,,,,,1,,,70,0
464040,note_on,0,0,1,,,,,,,,,1,,,69,55
464100,note_off,60,0,1,,,,,,,,,1,,,69,0
464100,note_on,0,0,1,,,,,,,,,1,,,70,57
464160,note_on,0,0,1,,,,,,,,,1,,,72,58
464160,note_off,60,0,1,,,,,,,,,1,,,70,0
464160,note_off,240,0,3,,,,,,,,,3,,,55,0
464160,note_on,0,0,3,,,,,,,,,3,,,58,57
464400,note_off,240,0,3,,,,,,,,,3,,,58,0
464400,note_on,0,0,3,,,,,,,,,3,,,55,56
464400,note_off,240,0,1,,,,,,,,,1,,,72,0
464400,note_on,0,0,1,,,,,,,,,1,,,73,56
464580,control_change,660,0,5,,,,,,,64,0,5,,,,
464580,control_change,900,0,4,,,,,,,64,0,4,,,,
464580,control_change,180,0,3,,,,,,,64,0,3,,,,
464592,note_off,192,0,1,,,,,,,,,1,,,73,0
464592,note_off,12,0,3,,,,,,,,,3,,,55,0
464600,set_tempo,1880,1,0,,,,,,1224489,,,,,,,
464640,control_change,48,0,3,,,,,,,64,127,3,,,,
464640,note_on,48,0,1,,,,,,,,,1,,,71,55
464640,control_change,60,0,4,,,,,,,64,127,4,,,,
464640,set_tempo,40,1,0,,,,,,1176470,,,,,,,
464640,control_change,60,0,5,,,,,,,64,127,5,,,,
464640,note_on,0,0,5,,,,,,,,,5,,,51,55
464880,note_on,240,0,3,,,,,,,,,3,,,56,54
464880,note_off,240,0,5,,,,,,,,,5,,,51,0
465120,note_off,480,0,1,,,,,,,,,1,,,71,0
465120,note_on,0,0,1,,,,,,,,,1,,,72,53
465120,note_off,240,0,3,,,,,,,,,3,,,56,0
465120,note_on,0,0,3,,,,,,,,,3,,,60,53
465360,note_off,240,0,1,,,,,,,,,1,,,72,0
465360,note_on,0,0,3,,,,,,,,,3,,,56,53
465360,note_off,240,0,3,,,,,,,,,3,,,60,0
465540,control_change,180,0,3,,,,,,,64,0,3,,,,
465540,control_change,900,0,4,,,,,,,64,0,4,,,,
465540,control_change,660,0,5,,,,,,,64,0,5,,,,
465560,set_tempo,920,1,0,,,,,,1276595,,,,,,,
465600,note_off,60,0,3,,,,,,,,,3,,,56,0
465600,note_on,240,0,1,,,,,,,,,1,,,71,56
465600,set_tempo,40,1,0,,,,,,1224489,,,,,,,
465600,note_on,60,0,5,,,,,,,,,5,,,51,56
465720,note_off,120,0,1,,,,,,,,,1,,,71,0
465720,note_on,0,0,1,,,,,,,,,1,,,72,59
465840,note_off,120,0,1,,,,,,,,,1,,,72,0
465840,note_on,0,0,1,,,,,,,,,1,,,71,61
465960,note_off,120,0,1,,,,,,,,,1,,,71,0
465960,note_on,0,0,1,,,,,,,,,1,,,72,63
466080,note_off,120,0,1,,,,,,,,,1,,,72,0
466080,note_on,0,0,1,,,,,,,,,1,,,71,65
466080,note_off,480,0,5,,,,,,,,,5,,,51,0
466200,note_on,0,0,1,,,,,,,,,1,,,72,67
466200,note_off,120,0,1,,,,,,,,,1,,,71,0
466320,note_on,0,0,1,,,,,,,,,1,,,73,69
466320,note_off,120,0,1,,,,,,,,,1,,,72,0
466440,note_off,120,0,1,,,,,,,,,1,,,73,0
466440,note_on,0,0,1,,,,,,,,,1,,,72,71
466520,set_tempo,920,1,0,,,,,,1428571,,,,,,,
466536,note_off,96,0,1,,,,,,,,,1,,,72,0
466560,note_on,0,0,2,,,,,,,,,2,,,70,75
466560,note_on,8735,0,2,,,,,,,,,2,,,77,75
466560,control_change,1020,0,4,,,,,,,64,127,4,,,,
466560,control_change,960,0,3,,,,,,,64,127,3,,,,
466560,control_change,480,0,5,,,,,,,64,127,5,,,,
466560,set_tempo,40,1,0,,,,,,1176470,,,,,,,
466560,note_on,24,0,1,,,,,,,,,1,,,80,75
466560,note_on,0,0,5,,,,,,,,,5,,,50,75
466560,note_on,0,0,2,,,,,,,,,2,,,74,75
466800,note_on,240,0,3,,,,,,,,,3,,,53,71
466800,note_off,240,0,5,,,,,,,,,5,,,50,0
467040,note_off,0,0,2,,,,,,,,,2,,,77,0
467040,note_off,480,0,1,,,,,,,,,1,,,80,0
467040,note_off,240,0,3,,,,,,,,,3,,,53,0
467040,note_off,480,0,2,,,,,,,,,2,,,74,0
467040,note_off,0,0,2,,,,,,,,,2,,,70,0
467040,note_on,0,0,1,,,,,,,,,1,,,80,72
467040,note_on,0,0,3,,,,,,,,,3,,,58,68
467280,note_on,0,0,3,,,,,,,,,3,,,53,65
467280,note_off,240,0,3,,,,,,,,,3,,,58,0
467460,control_change,900,0,4,,,,,,,64,0,4,,,,
467460,control_change,660,0,5,,,,,,,64,0,5,,,,
467460,control_change,180,0,3,,,,,,,64,0,3,,,,
467520,control_change,60,0,4,,,,,,,64,127,4,,,,
467520,note_off,0,0,3,,,,,,,,,3,,,53,0
467520,note_on,0,0,5,,,,,,,,,5,,,50,63
467520,control_change,60,0,3,,,,,,,64,127,3,,,,
467520,control_change,60,0,5,,,,,,,64,127,5,,,,
467760,set_tempo,1200,1,0,,,,,,240963,,,,,,,
467880,set_tempo,120,1,0,,,,,,789473,,,,,,,
467880,note_on,0,0,1,,,,,,,,,1,,,79,69
467880,note_off,840,0,1,,,,,,,,,1,,,80,0
467940,note_on,0,0,1,,,,,,,,,1,,,80,68
467940,note_off,60,0,1,,,,,,,,,1,,,79,0
467940,set_tempo,60,1,0,,,,,,750000,,,,,,,
468000,note_off,60,0,1,,,,,,,,,1,,,80,0
468000,note_on,0,0,1,,,,,,,,,1,,,82,68
468000,set_tempo,60,1,0,,,,,,750000,,,,,,,
468060,note_off,60,0,1,,,,,,,,,1,,,82,0
468060,note_on,0,0,1,,,,,,,,,1,,,80,68
468120,note_off,60,0,1,,,,,,,,,1,,,80,0
468120,note_on,0,0,1,,,,,,,,,1,,,79,67
468180,note_on,0,0,1,,,,,,,,,1,,,77,67
468180,note_off,60,0,1,,,,,,,,,1,,,79,0
468240,note_off,60,0,1,,,,,,,,,1,,,77,0
468240,note_on,0,0,1,,,,,,,,,1,,,75,67
468300,note_on,0,0,1,,,,,,,,,1,,,74,67
468300,note_off,60,0,1,,,,,,,,,1,,,75,0
468360,note_on,0,0,1,,,,,,,,,1,,,72,66
468360,note_off,60,0,1,,,,,,,,,1,,,74,0
468420,control_change,900,0,3,,,,,,,64,0,3,,,,
468420,control_change,900,0,4,,,,,,,64,0,4,,,,
468420,note_on,0,0,1,,,,,,,,,1,,,70,66
468420,note_off,60,0,1,,,,,,,,,1,,,72,0
468420,control_change,900,0,5,,,,,,,64,0,5,,,,
468480,note_off,60,0,1,,,,,,,,,1,,,70,0
468480,note_on,0,0,1,,,,,,,,,1,,,68,66
468540,note_off,60,0,1,,,,,,,,,1,,,68,0
468540,note_on,0,0,1,,,,,,,,,1,,,67,65
468600,note_off,60,0,1,,,,,,,,,1,,,67,0
468600,note_on,0,0,1,,,,,,,,,1,,,65,65
468660,note_on,0,0,1,,,,,,,,,1,,,63,65
468660,note_off,60,0,1,,,,,,,,,1,,,65,0
468720,note_on,0,0,1,,,,,,,,,1,,,62,64
468720,note_off,60,0,1,,,,,,,,,1,,,63,0
468780,note_on,0,0,1,,,,,,,,,1,,,60,64
468780,note_off,60,0,1,,,,,,,,,1,,,62,0
468840,note_off,60,0,1,,,,,,,,,1,,,60,0
468840,note_on,0,0,1,,,,,,,,,1,,,58,64
468890,set_tempo,890,1,0,,,,,,1276595,,,,,,,
468900,note_on,0,0,1,,,,,,,,,1,,,56,64
468900,note_off,60,0,1,,,,,,,,,1,,,58,0
468945,note_off,525,0,5,,,,,,,,,5,,,50,0
468960,note_off,60,0,1,,,,,,,,,1,,,56,0
468960,note_on,0,0,1,,,,,,,,,1,,,55,63
468960,control_change,540,0,4,,,,,,,64,127,4,,,,
468960,set_tempo,70,1,0,,,,,,1176470,,,,,,,
468960,control_change,15,0,5,,,,,,,64,127,5,,,,
468960,note_on,0,0,5,,,,,,,,,5,,,39,63
468960,control_change,540,0,3,,,,,,,64,127,3,,,,
469200,note_on,240,0,3,,,,,,,,,3,,,43,60
469200,note_off,240,0,5,,,,,,,,,5,,,39,0
469440,note_off,240,0,3,,,,,,,,,3,,,43,0
469440,note_off,480,0,1,,,,,,,,,1,,,55,0
469440,note_on,0,0,1,,,,,,,,,1,,,51,60
469440,note_on,0,0,3,,,,,,,,,3,,,46,58
469680,note_off,240,0,3,,,,,,,,,3,,,46,0
469680,note_on,0,0,3,,,,,,,,,3,,,43,56
469860,control_change,900,0,4,,,,,,,64,0,4,,,,
469860,control_change,660,0,5,,,,,,,64,0,5,,,,
469860,control_change,180,0,3,,,,,,,64,0,3,,,,
469920,note_off,60,0,3,,,,,,,,,3,,,43,0
469920,set_tempo,960,1,0,,,,,,600000,,,,,,,
469920,note_on,60,0,5,,,,,,,,,5,,,39,53
470400,note_on,0,0,1,,,,,,,,,1,,,53,61
470400,set_tempo,480,1,0,,,,,,810810,,,,,,,
470400,note_off,960,0,1,,,,,,,,,1,,,51,0
470460,note_off,60,0,1,,,,,,,,,1,,,53,0
470460,note_on,0,0,1,,,,,,,,,1,,,51,61
470460,set_tempo,60,1,0,,,,,,769230,,,,,,,
470520,set_tempo,60,1,0,,,,,,750000,,,,,,,
470520,note_off,60,0,1,,,,,,,,,1,,,51,0
470520,note_on,0,0,1,,,,,,,,,1,,,50,62
470580,note_off,60,0,1,,,,,,,,,1,,,50,0
470580,note_on,0,0,1,,,,,,,,,1,,,51,62
470640,note_off,60,0,1,,,,,,,,,1,,,51,0
470640,note_on,0,0,1,,,,,,,,,1,,,53,63
470700,note_on,0,0,1,,,,,,,,,1,,,55,63
470700,note_off,60,0,1,,,,,,,,,1,,,53,0
470760,note_on,0,0,1,,,,,,,,,1,,,56,64
470760,note_off,60,0,1,,,,,,,,,1,,,55,0
470820,note_off,60,0,1,,,,,,,,,1,,,56,0
470820,note_on,0,0,1,,,,,,,,,1,,,58,64
470880,note_off,60,0,1,,,,,,,,,1,,,58,0
470880,note_on,0,0,1,,,,,,,,,1,,,60,65
470940,note_on,0,0,1,,,,,,,,,1,,,62,66
470940,note_off,60,0,1,,,,,,,,,1,,,60,0
471000,note_off,60,0,1,,,,,,,,,1,,,62,0
471000,note_on,0,0,1,,,,,,,,,1,,,63,66
471060,note_off,60,0,1,,,,,,,,,1,,,63,0
471060,note_on,0,0,1,,,,,,,,,1,,,65,67
471120,note_off,60,0,1,,,,,,,,,1,,,65,0
471120,note_on,0,0,1,,,,,,,,,1,,,67,67
471180,note_off,60,0,1,,,,,,,,,1,,,67,0
471180,note_on,0,0,1,,,,,,,,,1,,,68,68
471240,note_off,60,0,1,,,,,,,,,1,,,68,0
471240,note_on,0,0,1,,,,,,,,,1,,,70,68
471300,note_on,0,0,1,,,,,,,,,1,,,72,69
471300,note_off,60,0,1,,,,,,,,,1,,,70,0
471360,note_on,0,0,1,,,,,,,,,1,,,74,69
471360,note_off,60,0,1,,,,,,,,,1,,,72,0
471420,note_on,0,0,1,,,,,,,,,1,,,75,70
471420,note_off,60,0,1,,,,,,,,,1,,,74,0
471480,note_on,0,0,1,,,,,,,,,1,,,77,71
471480,note_off,60,0,1,,,,,,,,,1,,,75,0
471540,note_on,0,0,1,,,,,,,,,1,,,79,71
471540,note_off,60,0,1,,,,,,,,,1,,,77,0
471600,note_on,0,0,1,,,,,,,,,1,,,80,72
471600,note_off,60,0,1,,,,,,,,,1,,,79,0
471660,note_on,0,0,1,,,,,,,,,1,,,82,72
471660,note_off,60,0,1,,,,,,,,,1,,,80,0
471720,note_off,60,0,1,,,,,,,,,1,,,82,0
471720,note_on,0,0,1,,,,,,,,,1,,,84,73
471780,note_off,60,0,1,,,,,,,,,1,,,84,0
471780,note_on,0,0,1,,,,,,,,,1,,,86,73
471780,set_tempo,1260,1,0,,,,,,1276595,,,,,,,
471840,note_off,60,0,1,,,,,,,,,1,,,86,0
471840,note_on,0,0,1,,,,,,,,,1,,,87,75
471840,set_tempo,60,1,0,,,,,,600000,,,,,,,
471840,control_change,1920,0,5,,,,,,,64,127,5,,,,
471840,note_off,0,0,5,,,,,,,,,5,,,39,0
471840,note_on,0,0,5,,,,,,,,,5,,,48,75
471840,control_change,1920,0,3,,,,,,,64,127,3,,,,
471840,control_change,1980,0,4,,,,,,,64,127,4,,,,
472320,note_off,480,0,5,,,,,,,,,5,,,48,0
472320,note_on,480,0,3,,,,,,,,,3,,,51,71
472785,note_off,945,0,1,,,,,,,,,1,,,87,0
472800,note_on,480,0,3,,,,,,,,,3,,,57,68
472800,note_on,15,0,1,,,,,,,,,1,,,87,76
472807,note_off,7,0,3,,,,,,,,,3,,,51,0
473280,note_off,473,0,3,,,,,,,,,3,,,57,0
473280,note_on,0,0,3,,,,,,,,,3,,,51,65
473760,control_change,480,0,3,,,,,,,64,0,3,,,,
473760,note_on,0,0,5,,,,,,,,,5,,,48,62
473760,control_change,1440,0,5,,,,,,,64,0,5,,,,
473760,set_tempo,1920,1,0,,,,,,248962,,,,,,,
473760,note_off,0,0,3,,,,,,,,,3,,,51,0
473760,control_change,1920,0,4,,,,,,,64,0,4,,,,
475080,note_on,2280,0,1,,,,,,,,,1,,,86,66
475080,set_tempo,1320,1,0,,,,,,810810,,,,,,,
475087,note_off,7,0,1,,,,,,,,,1,,,87,0
475140,note_on,0,0,1,,,,,,,,,1,,,87,66
475140,note_off,53,0,1,,,,,,,,,1,,,86,0
475140,set_tempo,60,1,0,,,,,,769230,,,,,,,
475200,set_tempo,60,1,0,,,,,,750000,,,,,,,
475200,note_off,60,0,1,,,,,,,,,1,,,87,0
475200,note_on,0,0,1,,,,,,,,,1,,,89,66
475260,note_off,60,0,1,,,,,,,,,1,,,89,0
475260,note_on,0,0,1,,,,,,,,,1,,,87,66
475320,note_off,60,0,1,,,,,,,,,1,,,87,0
475320,note_on,0,0,1,,,,,,,,,1,,,86,66
475380,note_off,60,0,1,,,,,,,,,1,,,86,0
475380,note_on,0,0,1,,,,,,,,,1,,,84,66
475440,note_off,60,0,1,,,,,,,,,1,,,84,0
475440,note_on,0,0,1,,,,,,,,,1,,,82,65
475500,note_off,60,0,1,,,,,,,,,1,,,82,0
475500,note_on,0,0,1,,,,,,,,,1,,,81,65
475560,note_off,60,0,1,,,,,,,,,1,,,81,0
475560,note_on,0,0,1,,,,,,,,,1,,,79,65
475620,note_off,60,0,1,,,,,,,,,1,,,79,0
475620,note_on,0,0,1,,,,,,,,,1,,,77,65
475680,note_on,0,0,1,,,,,,,,,1,,,75,65
475680,note_off,60,0,1,,,,,,,,,1,,,77,0
475740,note_off,60,0,1,,,,,,,,,1,,,75,0
475740,note_on,0,0,1,,,,,,,,,1,,,74,65
475800,note_off,60,0,1,,,,,,,,,1,,,74,0
475800,note_on,0,0,1,,,,,,,,,1,,,72,64
475860,note_on,0,0,1,,,,,,,,,1,,,70,64
475860,note_off,60,0,1,,,,,,,,,1,,,72,0
475920,note_on,0,0,1,,,,,,,,,1,,,69,64
475920,note_off,60,0,1,,,,,,,,,1,,,70,0
475980,note_off,60,0,1,,,,,,,,,1,,,69,0
475980,note_on,0,0,1,,,,,,,,,1,,,67,64
476040,note_off,60,0,1,,,,,,,,,1,,,67,0
476040,note_on,0,0,1,,,,,,,,,1,,,65,64
476077,note_off,2317,0,5,,,,,,,,,5,,,48,0
476100,note_off,60,0,1,,,,,,,,,1,,,65,0
476100,note_on,0,0,1,,,,,,,,,1,,,63,64
476100,set_tempo,900,1,0,,,,,,1276595,,,,,,,
476160,note_on,0,0,1,,,,,,,,,1,,,62,63
476160,set_tempo,60,1,0,,,,,,1176470,,,,,,,
476160,note_off,60,0,1,,,,,,,,,1,,,63,0
476160,note_on,83,0,5,,,,,,,,,5,,,46,63
476280,note_on,0,0,1,,,,,,,,,1,,,65,63
476280,note_off,120,0,1,,,,,,,,,1,,,62,0
476400,note_on,0,0,1,,,,,,,,,1,,,70,62
476400,note_off,120,0,1,,,,,,,,,1,,,65,0
476640,note_on,0,0,5,,,,,,,,,5,,,62,61
476640,note_off,480,0,5,,,,,,,,,5,,,46,0
476640,note_on,2880,0,4,,,,,,,,,4,,,68,61
476827,note_off,427,0,1,,,,,,,,,1,,,70,0
476880,note_on,53,0,1,,,,,,,,,1,,,70,60
477120,note_on,0,0,5,,,,,,,,,5,,,63,59
477120,note_off,480,0,5,,,,,,,,,5,,,62,0
477120,note_on,0,0,4,,,,,,,,,4,,,66,59
477120,note_off,480,0,4,,,,,,,,,4,,,68,0
477360,note_on,0,0,1,,,,,,,,,1,,,75,62
477360,note_off,480,0,1,,,,,,,,,1,,,70,0
477600,note_off,240,0,1,,,,,,,,,1,,,75,0
477600,note_on,0,0,1,,,,,,,,,1,,,71,57
477840,note_off,240,0,1,,,,,,,,,1,,,71,0
477840,note_on,0,0,1,,,,,,,,,1,,,69,55
478080,note_on,0,0,4,,,,,,,,,4,,,65,53
478080,note_on,0,0,5,,,,,,,,,5,,,62,53
478080,note_off,240,0,1,,,,,,,,,1,,,69,0
478080,note_on,0,0,1,,,,,,,,,1,,,70,53
478080,note_off,960,0,4,,,,,,,,,4,,,66,0
478080,note_off,960,0,5,,,,,,,,,5,,,63,0
478270,note_off,190,0,1,,,,,,,,,1,,,70,0
478320,note_off,240,0,4,,,,,,,,,4,,,65,0
478320,note_off,240,0,5,,,,,,,,,5,,,62,0
478320,note_on,50,0,1,,,,,,,,,1,,,75,57
478560,note_on,240,0,5,,,,,,,,,5,,,63,55
478560,note_on,240,0,4,,,,,,,,,4,,,66,55
478560,note_off,240,0,1,,,,,,,,,1,,,75,0
478560,note_on,0,0,1,,,,,,,,,1,,,71,55
478800,note_on,0,0,1,,,,,,,,,1,,,69,52
478800,note_off,240,0,1,,,,,,,,,1,,,71,0
479040,note_on,0,0,1,,,,,,,,,1,,,70,49
479040,note_off,480,0,4,,,,,,,,,4,,,66,0
479040,note_off,240,0,1,,,,,,,,,1,,,69,0
479040,note_on,0,0,5,,,,,,,,,5,,,62,49
479040,note_off,480,0,5,,,,,,,,,5,,,63,0
479040,note_on,0,0,4,,,,,,,,,4,,,65,49
479230,note_off,190,0,1,,,,,,,,,1,,,70,0
479280,note_off,240,0,5,,,,,,,,,5,,,62,0
479280,note_on,50,0,1,,,,,,,,,1,,,75,56
479280,note_off,240,0,4,,,,,,,,,4,,,65,0
479520,note_off,240,0,1,,,,,,,,,1,,,75,0
479520,note_on,0,0,1,,,,,,,,,1,,,71,52
479520,note_on,240,0,5,,,,,,,,,5,,,63,52
479520,note_on,240,0,4,,,,,,,,,4,,,66,52
479760,note_on,0,0,1,,,,,,,,,1,,,69,48
479760,note_off,240,0,1,,,,,,,,,1,,,71,0
479960,set_tempo,3800,1,0,,,,,,1363636,,,,,,,
480000,note_off,480,0,4,,,,,,,,,4,,,66,0
480000,note_off,480,0,5,,,,,,,,,5,,,63,0
480000,note_on,0,0,5,,,,,,,,,5,,,62,44
480000,set_tempo,40,1,0,,,,,,1224489,,,,,,,
480000,note_on,0,0,1,,,,,,,,,1,,,70,44
480000,note_off,240,0,1,,,,,,,,,1,,,69,0
480000,note_on,0,0,4,,,,,,,,,4,,,65,44
480190,note_off,190,0,1,,,,,,,,,1,,,70,0
480240,note_off,240,0,4,,,,,,,,,4,,,65,0
480240,note_off,240,0,5,,,,,,,,,5,,,62,0
480240,note_on,50,0,1,,,,,,,,,1,,,70,46
480480,note_on,0,0,1,,,,,,,,,1,,,69,49
480480,note_off,240,0,1,,,,,,,,,1,,,70,0
480720,note_on,0,0,1,,,,,,,,,1,,,70,52
480720,note_off,240,0,1,,,,,,,,,1,,,69,0
480960,note_off,240,0,1,,,,,,,,,1,,,70,0
480960,note_on,0,0,1,,,,,,,,,1,,,69,54
481200,note_off,240,0,1,,,,,,,,,1,,,69,0
481200,note_on,0,0,1,,,,,,,,,1,,,70,57
481440,note_on,0,0,1,,,,,,,,,1,,,71,59
481440,note_off,240,0,1,,,,,,,,,1,,,70,0
481680,note_on,0,0,1,,,,,,,,,1,,,70,62
481680,note_off,240,0,1,,,,,,,,,1,,,71,0
481760,set_tempo,1760,1,0,,,,,,1276595,,,,,,,
481872,note_off,192,0,1,,,,,,,,,1,,,70,0
481880,set_tempo,120,1,0,,,,,,1818181,,,,,,,
481920,note_on,1680,0,5,,,,,,,,,5,,,42,65
481920,note_on,14880,0,2,,,,,,,,,2,,,61,65
481920,note_on,48,0,1,,,,,,,,,1,,,70,65
481920,set_tempo,40,1,0,,,,,,1176470,,,,,,,
482160,note_on,8400,0,3,,,,,,,,,3,,,54,63
482400,note_on,0,0,3,,,,,,,,,3,,,54,61
482400,note_off,240,0,3,,,,,,,,,3,,,54,0
482640,note_on,0,0,3,,,,,,,,,3,,,54,59
482640,note_off,240,0,3,,,,,,,,,3,,,54,0
482880,note_off,240,0,3,,,,,,,,,3,,,54,0
482880,note_on,0,0,3,,,,,,,,,3,,,54,58
482880,note_off,960,0,2,,,,,,,,,2,,,61,0
482880,note_off,960,0,1,,,,,,,,,1,,,70,0
482880,note_on,0,0,1,,,,,,,,,1,,,68,58
482880,note_on,0,0,2,,,,,,,,,2,,,59,58
483120,note_off,240,0,3,,,,,,,,,3,,,54,0
483120,note_on,0,0,3,,,,,,,,,3,,,54,56
483360,note_on,0,0,3,,,,,,,,,3,,,54,54
483360,note_off,240,0,3,,,,,,,,,3,,,54,0
483600,note_off,240,0,3,,,,,,,,,3,,,54,0
483600,note_on,0,0,3,,,,,,,,,3,,,54,52
483840,note_off,960,0,2,,,,,,,,,2,,,59,0
483840,note_on,0,0,2,,,,,,,,,2,,,58,52
483840,note_on,0,0,1,,,,,,,,,1,,,73,52
483840,note_off,960,0,1,,,,,,,,,1,,,68,0
483840,note_on,0,0,2,,,,,,,,,2,,,66,52
483840,note_off,240,0,3,,,,,,,,,3,,,54,0
483840,note_on,0,0,3,,,,,,,,,3,,,54,52
484080,note_on,0,0,3,,,,,,,,,3,,,54,54
484080,note_off,240,0,3,,,,,,,,,3,,,54,0
484320,note_on,0,0,3,,,,,,,,,3,,,54,56
484320,note_off,240,0,3,,,,,,,,,3,,,54,0
484560,note_on,0,0,3,,,,,,,,,3,,,54,58
484560,note_off,240,0,3,,,,,,,,,3,,,54,0
484800,note_off,240,0,3,,,,,,,,,3,,,54,0
484800,note_on,0,0,3,,,,,,,,,3,,,49,60
484800,note_off,960,0,2,,,,,,,,,2,,,66,0
484800,note_off,0,0,2,,,,,,,,,2,,,58,0
484800,note_on,0,0,2,,,,,,,,,2,,,56,60
484800,note_on,0,0,2,,,,,,,,,2,,,65,60
484807,note_off,2887,0,5,,,,,,,,,5,,,42,0
484920,note_on,0,0,1,,,,,,,,,1,,,75,61
484920,note_off,1080,0,1,,,,,,,,,1,,,73,0
485040,note_on,0,0,1,,,,,,,,,1,,,73,62
485040,note_off,120,0,1,,,,,,,,,1,,,75,0
485040,note_off,240,0,3,,,,,,,,,3,,,49,0
485040,note_on,0,0,3,,,,,,,,,3,,,49,62
485160,note_off,120,0,1,,,,,,,,,1,,,73,0
485160,note_on,0,0,1,,,,,,,,,1,,,75,62
485280,note_off,240,0,3,,,,,,,,,3,,,49,0
485280,note_off,120,0,1,,,,,,,,,1,,,75,0
485280,note_on,0,0,1,,,,,,,,,1,,,71,63
485280,note_on,0,0,3,,,,,,,,,3,,,49,63
485400,note_off,120,0,1,,,,,,,,,1,,,71,0
485400,note_on,0,0,1,,,,,,,,,1,,,73,64
485520,note_off,120,0,1,,,,,,,,,1,,,73,0
485520,note_off,240,0,3,,,,,,,,,3,,,49,0
485520,note_on,0,0,3,,,,,,,,,3,,,49,65
485520,note_on,0,0,1,,,,,,,,,1,,,71,65
485640,note_on,0,0,1,,,,,,,,,1,,,73,66
485640,note_off,120,0,1,,,,,,,,,1,,,71,0
485715,note_off,915,0,2,,,,,,,,,2,,,56,0
485720,set_tempo,3800,1,0,,,,,,1276595,,,,,,,
485730,note_off,210,0,3,,,,,,,,,3,,,49,0
485730,note_off,15,0,2,,,,,,,,,2,,,65,0
485736,note_off,96,0,1,,,,,,,,,1,,,73,0
485760,note_on,30,0,2,,,,,,,,,2,,,61,67
485760,note_on,24,0,1,,,,,,,,,1,,,70,67
485760,set_tempo,40,1,0,,,,,,1176470,,,,,,,
485760,note_on,953,0,5,,,,,,,,,5,,,42,67
486000,note_on,270,0,3,,,,,,,,,3,,,54,64
486240,note_off,240,0,3,,,,,,,,,3,,,54,0
486240,note_on,0,0,3,,,,,,,,,3,,,54,63
486480,note_on,0,0,3,,,,,,,,,3,,,54,62
486480,note_off,240,0,3,,,,,,,,,3,,,54,0
486720,note_on,0,0,1,,,,,,,,,1,,,68,61
486720,note_off,240,0,3,,,,,,,,,3,,,54,0
486720,note_off,960,0,1,,,,,,,,,1,,,70,0
486720,note_on,0,0,2,,,,,,,,,2,,,59,61
486720,note_off,960,0,2,,,,,,,,,2,,,61,0
486720,note_on,0,0,3,,,,,,,,,3,,,54,61
486960,note_on,0,0,3,,,,,,,,,3,,,54,60
486960,note_off,240,0,3,,,,,,,,,3,,,54,0
487200,note_on,0,0,3,,,,,,,,,3,,,54,58
487200,note_off,240,0,3,,,,,,,,,3,,,54,0
487440,note_on,0,0,3,,,,,,,,,3,,,54,57
487440,note_off,240,0,3,,,,,,,,,3,,,54,0
487680,note_off,960,0,2,,,,,,,,,2,,,59,0
487680,note_on,0,0,2,,,,,,,,,2,,,58,57
487680,note_off,960,0,1,,,,,,,,,1,,,68,0
487680,note_on,0,0,2,,,,,,,,,2,,,66,57
487680,note_off,240,0,3,,,,,,,,,3,,,54,0
487680,note_on,0,0,3,,,,,,,,,3,,,54,57
487680,note_on,0,0,1,,,,,,,,,1,,,73,57
487920,note_off,240,0,3,,,,,,,,,3,,,54,0
487920,note_on,0,0,3,,,,,,,,,3,,,54,58
488160,note_off,240,0,3,,,,,,,,,3,,,54,0
488160,note_on,0,0,3,,,,,,,,,3,,,54,59
488400,note_off,240,0,3,,,,,,,,,3,,,54,0
488400,note_on,0,0,3,,,,,,,,,3,,,54,60
488640,note_on,0,0,2,,,,,,,,,2,,,65,62
488640,note_on,0,0,2,,,,,,,,,2,,,56,62
488640,note_on,0,0,3,,,,,,,,,3,,,49,62
488640,note_off,960,0,2,,,,,,,,,2,,,66,0
488640,note_off,240,0,3,,,,,,,,,3,,,54,0
488640,note_off,0,0,2,,,,,,,,,2,,,58,0
488640,note_off,2880,0,5,,,,,,,,,5,,,42,0
488760,note_on,0,0,1,,,,,,,,,1,,,75,62
488760,note_off,1080,0,1,,,,,,,,,1,,,73,0
488880,note_off,240,0,3,,,,,,,,,3,,,49,0
488880,note_on,0,0,3,,,,,,,,,3,,,49,63
488880,note_on,0,0,1,,,,,,,,,1,,,73,63
488880,note_off,120,0,1,,,,,,,,,1,,,75,0
489000,note_on,0,0,1,,,,,,,,,1,,,75,64
489000,note_off,120,0,1,,,,,,,,,1,,,73,0
489120,note_off,120,0,1,,,,,,,,,1,,,75,0
489120,note_on,0,0,3,,,,,,,,,3,,,49,64
489120,note_off,240,0,3,,,,,,,,,3,,,49,0
489120,note_on,0,0,1,,,,,,,,,1,,,71,64
489240,note_off,120,0,1,,,,,,,,,1,,,71,0
489240,note_on,0,0,1,,,,,,,,,1,,,73,65
489360,note_off,120,0,1,,,,,,,,,1,,,73,0
489360,note_on,0,0,1,,,,,,,,,1,,,71,66
489360,note_on,0,0,3,,,,,,,,,3,,,49,66
489360,note_off,240,0,3,,,,,,,,,3,,,49,0
489480,note_on,0,0,1,,,,,,,,,1,,,73,66
489480,note_off,120,0,1,,,,,,,,,1,,,71,0
489560,set_tempo,3800,1,0,,,,,,1276595,,,,,,,
489562,note_off,202,0,3,,,,,,,,,3,,,49,0
489562,note_off,922,0,2,,,,,,,,,2,,,65,0
489562,note_off,0,0,2,,,,,,,,,2,,,56,0
489576,note_off,96,0,1,,,,,,,,,1,,,73,0
489600,control_change,38,0,3,,,,,,,64,127,3,,,,
489600,control_change,9360,0,4,,,,,,,64,127,4,,,,
489600,note_on,24,0,1,,,,,,,,,1,,,70,67
489600,note_on,0,0,5,,,,,,,,,5,,,54,67
489600,set_tempo,40,1,0,,,,,,1176470,,,,,,,
489600,control_change,960,0,5,,,,,,,64,127,5,,,,
489840,note_on,240,0,3,,,,,,,,,3,,,61,68
489840,note_on,0,0,1,,,,,,,,,1,,,71,63
489840,note_off,240,0,5,,,,,,,,,5,,,54,0
489840,note_off,240,0,1,,,,,,,,,1,,,70,0
489900,note_off,60,0,1,,,,,,,,,1,,,71,0
489900,note_on,0,0,1,,,,,,,,,1,,,70,65
489960,note_off,60,0,1,,,,,,,,,1,,,70,0
489960,note_on,0,0,1,,,,,,,,,1,,,68,66
490020,control_change,420,0,4,,,,,,,64,0,4,,,,
490020,control_change,180,0,3,,,,,,,64,0,3,,,,
490020,note_off,60,0,1,,,,,,,,,1,,,68,0
490020,note_on,0,0,1,,,,,,,,,1,,,70,67
490020,control_change,180,0,5,,,,,,,64,0,5,,,,
490080,control_change,60,0,3,,,,,,,64,127,3,,,,
490080,note_on,0,0,5,,,,,,,,,5,,,58,69
490080,control_change,60,0,5,,,,,,,64,127,5,,,,
490080,control_change,60,0,4,,,,,,,64,127,4,,,,
490080,note_off,60,0,1,,,,,,,,,1,,,70,0
490080,note_on,0,0,1,,,,,,,,,1,,,73,68
490080,note_off,0,0,3,,,,,,,,,3,,,61,0
490320,note_on,240,0,3,,,,,,,,,3,,,61,71
490320,note_off,240,0,5,,,,,,,,,5,,,58,0
490500,control_change,180,0,5,,,,,,,64,0,5,,,,
490500,control_change,180,0,3,,,,,,,64,0,3,,,,
490500,control_change,420,0,4,,,,,,,64,0,4,,,,
490560,control_change,60,0,4,,,,,,,64,127,4,,,,
490560,note_on,0,0,5,,,,,,,,,5,,,53,72
490560,control_change,60,0,3,,,,,,,64,127,3,,,,
490560,note_off,0,0,3,,,,,,,,,3,,,61,0
490560,control_change,60,0,5,,,,,,,64,127,5,,,,
490800,note_off,240,0,5,,,,,,,,,5,,,53,0
490800,note_on,240,0,3,,,,,,,,,3,,,61,73
490980,control_change,180,0,5,,,,,,,64,0,5,,,,
490980,control_change,180,0,3,,,,,,,64,0,3,,,,
490980,control_change,420,0,4,,,,,,,64,0,4,,,,
491040,note_off,960,0,1,,,,,,,,,1,,,73,0
491040,note_on,0,0,1,,,,,,,,,1,,,71,75
491040,note_off,0,0,3,,,,,,,,,3,,,61,0
491040,control_change,60,0,3,,,,,,,64,127,3,,,,
491040,note_on,0,0,5,,,,,,,,,5,,,52,75
491040,control_change,60,0,5,,,,,,,64,127,5,,,,
491040,control_change,60,0,4,,,,,,,64,127,4,,,,
491280,note_off,240,0,5,,,,,,,,,5,,,52,0
491280,note_on,240,0,3,,,,,,,,,3,,,61,76
491280,note_on,0,0,1,,,,,,,,,1,,,70,76
491280,note_off,240,0,1,,,,,,,,,1,,,71,0
491460,control_change,180,0,5,,,,,,,64,0,5,,,,
491460,control_change,420,0,4,,,,,,,64,0,4,,,,
491460,control_change,180,0,3,,,,,,,64,0,3,,,,
491480,set_tempo,1880,1,0,,,,,,1276595,,,,,,,
491520,control_change,60,0,3,,,,,,,64,127,3,,,,
491520,set_tempo,40,1,0,,,,,,1176470,,,,,,,
491520,note_off,0,0,3,,,,,,,,,3,,,61,0
491520,control_change,60,0,4,,,,,,,64,127,4,,,,
491520,note_off,240,0,1,,,,,,,,,1,,,70,0
491520,note_on,0,0,1,,,,,,,,,1,,,68,78
491520,note_on,0,0,5,,,,,,,,,5,,,51,77
491520,control_change,60,0,5,,,,,,,64,127,5,,,,
491760,note_on,240,0,3,,,,,,,,,3,,,61,70
491760,note_off,240,0,1,,,,,,,,,1,,,68,0
491760,note_on,0,0,1,,,,,,,,,1,,,67,70
491760,note_off,240,0,5,,,,,,,,,5,,,51,0
491940,control_change,420,0,4,,,,,,,64,0,4,,,,
491940,control_change,180,0,3,,,,,,,64,0,3,,,,
491940,control_change,180,0,5,,,,,,,64,0,5,,,,
491952,note_off,192,0,1,,,,,,,,,1,,,67,0
492000,note_off,0,0,3,,,,,,,,,3,,,61,0
492000,control_change,60,0,5,,,,,,,64,127,5,,,,
492000,note_on,0,0,5,,,,,,,,,5,,,51,63
492000,control_change,60,0,3,,,,,,,64,127,3,,,,
492000,control_change,60,0,4,,,,,,,64,127,4,,,,
492240,note_off,240,0,5,,,,,,,,,5,,,51,0
492240,note_on,240,0,3,,,,,,,,,3,,,61,64
492360,note_on,408,0,1,,,,,,,,,1,,,67,62
492420,control_change,180,0,5,,,,,,,64,0,5,,,,
492420,control_change,420,0,4,,,,,,,64,0,4,,,,
492420,control_change,180,0,3,,,,,,,64,0,3,,,,
492456,note_off,96,0,1,,,,,,,,,1,,,67,0
492480,note_on,0,0,5,,,,,,,,,5,,,51,63
492480,note_on,24,0,1,,,,,,,,,1,,,70,63
492480,control_change,60,0,5,,,,,,,64,127,5,,,,
492480,control_change,60,0,4,,,,,,,64,127,4,,,,
492480,control_change,60,0,3,,,,,,,64,127,3,,,,
492480,note_off,0,0,3,,,,,,,,,3,,,61,0
492720,note_off,240,0,5,,,,,,,,,5,,,51,0
492720,note_on,240,0,3,,,,,,,,,3,,,59,64
492840,note_on,0,0,1,,,,,,,,,1,,,68,65
492840,note_off,360,0,1,,,,,,,,,1,,,70,0
492900,control_change,420,0,4,,,,,,,64,0,4,,,,
492900,control_change,180,0,3,,,,,,,64,0,3,,,,
492900,control_change,180,0,5,,,,,,,64,0,5,,,,
492936,note_off,96,0,1,,,,,,,,,1,,,68,0
492960,note_off,0,0,3,,,,,,,,,3,,,59,0
492960,control_change,60,0,3,,,,,,,64,127,3,,,,
492960,note_on,0,0,5,,,,,,,,,5,,,51,66
492960,control_change,60,0,4,,,,,,,64,127,4,,,,
492960,control_change,60,0,5,,,,,,,64,127,5,,,,
492960,note_on,24,0,1,,,,,,,,,1,,,71,66
493200,note_on,240,0,3,,,,,,,,,3,,,55,67
493200,note_off,240,0,5,,,,,,,,,5,,,51,0
493320,note_on,0,0,1,,,,,,,,,1,,,70,68
493320,note_off,360,0,1,,,,,,,,,1,,,71,0
493380,control_change,420,0,4,,,,,,,64,0,4,,,,
493380,control_change,180,0,3,,,,,,,64,0,3,,,,
493380,control_change,180,0,5,,,,,,,64,0,5,,,,
493392,note_off,12,0,3,,,,,,,,,3,,,55,0
493400,set_tempo,1880,1,0,,,,,,1224489,,,,,,,
493416,note_off,96,0,1,,,,,,,,,1,,,70,0
493440,set_tempo,40,1,0,,,,,,1176470,,,,,,,
493440,control_change,48,0,3,,,,,,,64,127,3,,,,
493440,note_on,0,0,5,,,,,,,,,5,,,56,69
493440,control_change,60,0,4,,,,,,,64,127,4,,,,
493440,note_on,24,0,1,,,,,,,,,1,,,73,69
493440,control_change,60,0,5,,,,,,,64,127,5,,,,
493680,note_off,240,0,5,,,,,,,,,5,,,56,0
493680,note_on,240,0,3,,,,,,,,,3,,,63,70
493800,note_off,360,0,1,,,,,,,,,1,,,73,0
493800,note_on,0,0,1,,,,,,,,,1,,,71,71
493860,control_change,420,0,4,,,,,,,64,0,4,,,,
493860,control_change,180,0,3,,,,,,,64,0,3,,,,
493860,control_change,180,0,5,,,,,,,64,0,5,,,,
493896,note_off,96,0,1,,,,,,,,,1,,,71,0
493920,control_change,60,0,4,,,,,,,64,127,4,,,,
493920,note_on,24,0,1,,,,,,,,,1,,,75,72
493920,note_on,0,0,5,,,,,,,,,5,,,59,72
493920,control_change,60,0,3,,,,,,,64,127,3,,,,
493920,note_off,0,0,3,,,,,,,,,3,,,63,0
493920,control_change,60,0,5,,,,,,,64,127,5,,,,
494160,note_off,240,0,5,,,,,,,,,5,,,59,0
494160,note_on,240,0,3,,,,,,,,,3,,,63,73
494340,control_change,180,0,5,,,,,,,64,0,5,,,,
494340,control_change,180,0,3,,,,,,,64,0,3,,,,
494340,control_change,420,0,4,,,,,,,64,0,4,,,,
494400,note_on,0,0,5,,,,,,,,,5,,,55,75
494400,control_change,60,0,4,,,,,,,64,127,4,,,,
494400,note_off,0,0,3,,,,,,,,,3,,,63,0
494400,control_change,60,0,3,,,,,,,64,127,3,,,,
494400,control_change,60,0,5,,,,,,,64,127,5,,,,
494640,note_off,720,0,1,,,,,,,,,1,,,75,0
494640,note_on,240,0,3,,,,,,,,,3,,,63,76
494640,note_off,240,0,5,,,,,,,,,5,,,55,0
494640,note_on,0,0,1,,,,,,,,,1,,,74,76
494760,note_off,120,0,1,,,,,,,,,1,,,74,0
494760,note_on,0,0,1,,,,,,,,,1,,,75,77
494820,control_change,180,0,3,,,,,,,64,0,3,,,,
494820,control_change,420,0,4,,,,,,,64,0,4,,,,
494820,control_change,180,0,5,,,,,,,64,0,5,,,,
494880,note_off,120,0,1,,,,,,,,,1,,,75,0
494880,control_change,60,0,5,,,,,,,64,127,5,,,,
494880,control_change,60,0,4,,,,,,,64,127,4,,,,
494880,control_change,60,0,3,,,,,,,64,127,3,,,,
494880,note_on,0,0,1,,,,,,,,,1,,,77,78
494880,note_off,0,0,3,,,,,,,,,3,,,63,0
494880,note_on,0,0,5,,,,,,,,,5,,,54,78
495000,note_on,0,0,1,,,,,,,,,1,,,75,79
495000,note_off,120,0,1,,,,,,,,,1,,,77,0
495120,note_off,240,0,5,,,,,,,,,5,,,54,0
495120,note_on,0,0,1,,,,,,,,,1,,,73,80
495120,note_off,120,0,1,,,,,,,,,1,,,75,0
495120,note_on,240,0,3,,,,,,,,,3,,,63,80
495240,note_on,0,0,1,,,,,,,,,1,,,72,80
495240,note_off,120,0,1,,,,,,,,,1,,,73,0
495300,control_change,180,0,5,,,,,,,64,0,5,,,,
495300,control_change,180,0,3,,,,,,,64,0,3,,,,
495300,control_change,420,0,4,,,,,,,64,0,4,,,,
495320,set_tempo,1880,1,0,,,,,,1276595,,,,,,,
495336,note_off,96,0,1,,,,,,,,,1,,,72,0
495360,control_change,60,0,4,,,,,,,64,127,4,,,,
495360,control_change,60,0,5,,,,,,,64,127,5,,,,
495360,note_on,24,0,1,,,,,,,,,1,,,70,83
495360,set_tempo,40,1,0,,,,,,1176470,,,,,,,
495360,note_on,0,0,5,,,,,,,,,5,,,53,81
495360,control_change,60,0,3,,,,,,,64,127,3,,,,
495360,note_off,0,0,3,,,,,,,,,3,,,63,0
495600,note_on,240,0,3,,,,,,,,,3,,,63,74
495600,note_off,240,0,5,,,,,,,,,5,,,53,0
495600,note_on,0,0,1,,,,,,,,,1,,,69,74
495600,note_off,240,0,1,,,,,,,,,1,,,70,0
495780,control_change,180,0,3,,,,,,,64,0,3,,,,
495780,control_change,180,0,5,,,,,,,64,0,5,,,,
495780,control_change,420,0,4,,,,,,,64,0,4,,,,
495792,note_off,192,0,1,,,,,,,,,1,,,69,0
495840,control_change,60,0,3,,,,,,,64,127,3,,,,
495840,note_off,0,0,3,,,,,,,,,3,,,63,0
495840,control_change,60,0,4,,,,,,,64,127,4,,,,
495840,note_on,0,0,5,,,,,,,,,5,,,53,67
495840,control_change,60,0,5,,,,,,,64,127,5,,,,
496080,note_off,240,0,5,,,,,,,,,5,,,53,0
496080,note_on,240,0,3,,,,,,,,,3,,,63,66
496200,note_on,408,0,1,,,,,,,,,1,,,69,67
496260,control_change,180,0,5,,,,,,,64,0,5,,,,
496260,control_change,180,0,3,,,,,,,64,0,3,,,,
496260,control_change,420,0,4,,,,,,,64,0,4,,,,
496296,note_off,96,0,1,,,,,,,,,1,,,69,0
496320,note_on,0,0,5,,,,,,,,,5,,,53,68
496320,control_change,60,0,4,,,,,,,64,127,4,,,,
496320,note_on,24,0,1,,,,,,,,,1,,,72,68
496320,control_change,60,0,5,,,,,,,64,127,5,,,,
496320,note_off,0,0,3,,,,,,,,,3,,,63,0
496320,control_change,60,0,3,,,,,,,64,127,3,,,,
496560,note_off,240,0,5,,,,,,,,,5,,,53,0
496560,note_on,240,0,3,,,,,,,,,3,,,61,69
496680,note_off,360,0,1,,,,,,,,,1,,,72,0
496680,note_on,0,0,1,,,,,,,,,1,,,70,70
496740,control_change,180,0,5,,,,,,,64,0,5,,,,
496740,control_change,180,0,3,,,,,,,64,0,3,,,,
496740,control_change,420,0,4,,,,,,,64,0,4,,,,
496776,note_off,96,0,1,,,,,,,,,1,,,70,0
496800,control_change,60,0,4,,,,,,,64,127,4,,,,
496800,control_change,60,0,3,,,,,,,64,127,3,,,,
496800,note_off,0,0,3,,,,,,,,,3,,,61,0
496800,note_on,24,0,1,,,,,,,,,1,,,73,70
496800,note_on,0,0,5,,,,,,,,,5,,,53,70
496800,control_change,60,0,5,,,,,,,64,127,5,,,,
497040,note_on,240,0,3,,,,,,,,,3,,,57,72
497040,note_off,240,0,5,,,,,,,,,5,,,53,0
497160,note_off,360,0,1,,,,,,,,,1,,,73,0
497160,note_on,0,0,1,,,,,,,,,1,,,72,72
497220,control_change,180,0,3,,,,,,,64,0,3,,,,
497220,control_change,420,0,4,,,,,,,64,0,4,,,,
497220,control_change,180,0,5,,,,,,,64,0,5,,,,
497232,note_off,12,0,3,,,,,,,,,3,,,57,0
497240,set_tempo,1880,1,0,,,,,,1224489,,,,,,,
497256,note_off,96,0,1,,,,,,,,,1,,,72,0
497280,control_change,48,0,3,,,,,,,64,127,3,,,,
497280,note_on,0,0,5,,,,,,,,,5,,,58,73
497280,control_change,60,0,5,,,,,,,64,127,5,,,,
497280,note_on,24,0,1,,,,,,,,,1,,,75,73
497280,set_tempo,40,1,0,,,,,,1176470,,,,,,,
497280,control_change,60,0,4,,,,,,,64,127,4,,,,
497520,note_off,240,0,5,,,,,,,,,5,,,58,0
497520,note_on,240,0,3,,,,,,,,,3,,,65,74
497640,note_on,0,0,1,,,,,,,,,1,,,73,75
497640,note_off,360,0,1,,,,,,,,,1,,,75,0
497700,control_change,180,0,5,,,,,,,64,0,5,,,,
497700,control_change,180,0,3,,,,,,,64,0,3,,,,
497700,control_change,420,0,4,,,,,,,64,0,4,,,,
497736,note_off,96,0,1,,,,,,,,,1,,,73,0
497760,control_change,60,0,3,,,,,,,64,127,3,,,,
497760,note_on,24,0,1,,,,,,,,,1,,,77,75
497760,note_off,0,0,3,,,,,,,,,3,,,65,0
497760,control_change,60,0,5,,,,,,,64,127,5,,,,
497760,control_change,60,0,4,,,,,,,64,127,4,,,,
497760,note_on,0,0,5,,,,,,,,,5,,,61,75
498000,note_on,240,0,3,,,,,,,,,3,,,65,77
498000,note_off,240,0,5,,,,,,,,,5,,,61,0
498180,control_change,180,0,5,,,,,,,64,0,5,,,,
498180,control_change,420,0,4,,,,,,,64,0,4,,,,
498180,control_change,180,0,3,,,,,,,64,0,3,,,,
498240,control_change,60,0,3,,,,,,,64,127,3,,,,
498240,control_change,60,0,5,,,,,,,64,127,5,,,,
498240,note_off,0,0,3,,,,,,,,,3,,,65,0
498240,note_on,0,0,5,,,,,,,,,5,,,57,78
498240,control_change,60,0,4,,,,,,,64,127,4,,,,
498480,note_off,240,0,5,,,,,,,,,5,,,57,0
498480,note_on,240,0,3,,,,,,,,,3,,,65,79
498480,note_on,0,0,1,,,,,,,,,1,,,76,79
498480,note_off,720,0,1,,,,,,,,,1,,,77,0
498600,note_on,0,0,1,,,,,,,,,1,,,77,80
498600,note_off,120,0,1,,,,,,,,,1,,,76,0
498660,control_change,180,0,5,,,,,,,64,0,5,,,,
498660,control_change,180,0,3,,,,,,,64,0,3,,,,
498660,control_change,420,0,4,,,,,,,64,0,4,,,,
498720,control_change,60,0,4,,,,,,,64,127,4,,,,
498720,note_on,0,0,5,,,,,,,,,5,,,56,81
498720,control_change,60,0,5,,,,,,,64,127,5,,,,
498720,control_change,60,0,3,,,,,,,64,127,3,,,,
498720,note_off,0,0,3,,,,,,,,,3,,,65,0
498720,note_on,0,0,1,,,,,,,,,1,,,79,81
498720,note_off,120,0,1,,,,,,,,,1,,,77,0
498840,note_off,120,0,1,,,,,,,,,1,,,79,0
498840,note_on,0,0,1,,,,,,,,,1,,,77,81
498960,note_off,120,0,1,,,,,,,,,1,,,77,0
498960,note_on,0,0,1,,,,,,,,,1,,,75,82
498960,note_off,240,0,5,,,,,,,,,5,,,56,0
498960,note_on,240,0,3,,,,,,,,,3,,,65,82
499080,note_off,120,0,1,,,,,,,,,1,,,75,0
499080,note_on,0,0,1,,,,,,,,,1,,,74,82
499140,control_change,420,0,4,,,,,,,64,0,4,,,,
499140,control_change,180,0,5,,,,,,,64,0,5,,,,
499140,control_change,180,0,3,,,,,,,64,0,3,,,,
499160,set_tempo,1880,1,0,,,,,,1276595,,,,,,,
499176,note_off,96,0,1,,,,,,,,,1,,,74,0
499200,control_change,60,0,5,,,,,,,64,127,5,,,,
499200,note_on,0,0,5,,,,,,,,,5,,,55,83
499200,note_on,24,0,1,,,,,,,,,1,,,72,84
499200,control_change,60,0,3,,,,,,,64,127,3,,,,
499200,note_off,0,0,3,,,,,,,,,3,,,65,0
499200,control_change,60,0,4,,,,,,,64,127,4,,,,
499200,set_tempo,40,1,0,,,,,,1176470,,,,,,,
499440,note_off,240,0,1,,,,,,,,,1,,,72,0
499440,note_on,0,0,1,,,,,,,,,1,,,71,77
499440,note_off,240,0,5,,,,,,,,,5,,,55,0
499440,note_on,240,0,3,,,,,,,,,3,,,67,77
499620,control_change,180,0,5,,,,,,,64,0,5,,,,
499620,control_change,420,0,4,,,,,,,64,0,4,,,,
499620,control_change,180,0,3,,,,,,,64,0,3,,,,
499632,note_off,192,0,1,,,,,,,,,1,,,71,0
499680,note_off,0,0,3,,,,,,,,,3,,,67,0
499680,note_on,0,0,5,,,,,,,,,5,,,65,71
499680,control_change,60,0,5,,,,,,,64,127,5,,,,
499680,control_change,60,0,3,,,,,,,64,127,3,,,,
499680,control_change,60,0,4,,,,,,,64,127,4,,,,
499920,note_on,240,0,3,,,,,,,,,3,,,67,68
499920,note_off,240,0,5,,,,,,,,,5,,,65,0
500040,note_on,408,0,1,,,,,,,,,1,,,71,69
500100,control_change,180,0,3,,,,,,,64,0,3,,,,
500100,control_change,420,0,4,,,,,,,64,0,4,,,,
500100,control_change,180,0,5,,,,,,,64,0,5,,,,
500136,note_off,96,0,1,,,,,,,,,1,,,71,0
500160,control_change,60,0,4,,,,,,,64,127,4,,,,
500160,note_off,0,0,3,,,,,,,,,3,,,67,0
500160,control_change,60,0,3,,,,,,,64,127,3,,,,
500160,note_on,24,0,1,,,,,,,,,1,,,74,69
500160,control_change,60,0,5,,,,,,,64,127,5,,,,
500160,note_on,0,0,5,,,,,,,,,5,,,63,69
500400,note_off,240,0,5,,,,,,,,,5,,,63,0
500400,note_on,240,0,3,,,,,,,,,3,,,67,71
500520,note_off,360,0,1,,,,,,,,,1,,,74,0
500520,note_on,0,0,1,,,,,,,,,1,,,72,71
500580,control_change,180,0,5,,,,,,,64,0,5,,,,
500580,control_change,180,0,3,,,,,,,64,0,3,,,,
500580,control_change,420,0,4,,,,,,,64,0,4,,,,
500616,note_off,96,0,1,,,,,,,,,1,,,72,0
500640,control_change,60,0,5,,,,,,,64,127,5,,,,
500640,note_on,0,0,5,,,,,,,,,5,,,59,72
500640,note_off,0,0,3,,,,,,,,,3,,,67,0
500640,control_change,60,0,3,,,,,,,64,127,3,,,,
500640,control_change,60,0,4,,,,,,,64,127,4,,,,
500640,note_on,24,0,1,,,,,,,,,1,,,75,72
500880,note_off,240,0,5,,,,,,,,,5,,,59,0
500880,note_on,240,0,3,,,,,,,,,3,,,67,73
501000,note_on,0,0,1,,,,,,,,,1,,,74,74
501000,note_off,360,0,1,,,,,,,,,1,,,75,0
501060,control_change,180,0,3,,,,,,,64,0,3,,,,
501060,control_change,180,0,5,,,,,,,64,0,5,,,,
501060,control_change,420,0,4,,,,,,,64,0,4,,,,
501080,set_tempo,1880,1,0,,,,,,1224489,,,,,,,
501096,note_off,96,0,1,,,,,,,,,1,,,74,0
501120,control_change,60,0,3,,,,,,,64,127,3,,,,
501120,note_on,24,0,1,,,,,,,,,1,,,77,74
501120,control_change,60,0,5,,,,,,,64,127,5,,,,
501120,set_tempo,40,1,0,,,,,,1176470,,,,,,,
501120,note_on,0,0,5,,,,,,,,,5,,,60,74
501120,control_change,60,0,4,,,,,,,64,127,4,,,,
501120,note_off,0,0,3,,,,,,,,,3,,,67,0
501360,note_off,240,0,5,,,,,,,,,5,,,60,0
501360,note_on,240,0,3,,,,,,,,,3,,,67,75
501480,note_on,0,0,1,,,,,,,,,1,,,75,76
501480,note_off,360,0,1,,,,,,,,,1,,,77,0
501540,control_change,180,0,5,,,,,,,64,0,5,,,,
501540,control_change,420,0,4,,,,,,,64,0,4,,,,
501540,control_change,180,0,3,,,,,,,64,0,3,,,,
501576,note_off,96,0,1,,,,,,,,,1,,,75,0
501600,control_change,60,0,3,,,,,,,64,127,3,,,,
501600,note_on,24,0,1,,,,,,,,,1,,,79,77
501600,note_off,0,0,3,,,,,,,,,3,,,67,0
501600,note_on,0,0,5,,,,,,,,,5,,,63,77
501600,control_change,60,0,5,,,,,,,64,127,5,,,,
501600,control_change,60,0,4,,,,,,,64,127,4,,,,
501840,note_off,240,0,5,,,,,,,,,5,,,63,0
501840,note_on,240,0,3,,,,,,,,,3,,,67,78
502020,control_change,180,0,5,,,,,,,64,0,5,,,,
502020,control_change,420,0,4,,,,,,,64,0,4,,,,
502020,control_change,180,0,3,,,,,,,64,0,3,,,,
502080,control_change,60,0,4,,,,,,,64,127,4,,,,
502080,note_off,0,0,3,,,,,,,,,3,,,67,0
502080,note_on,0,0,5,,,,,,,,,5,,,59,79
502080,control_change,60,0,5,,,,,,,64,127,5,,,,
502080,control_change,60,0,3,,,,,,,64,127,3,,,,
502320,note_on,240,0,3,,,,,,,,,3,,,67,80
502320,note_off,240,0,5,,,,,,,,,5,,,59,0
502320,note_on,0,0,1,,,,,,,,,1,,,78,80
502320,note_off,720,0,1,,,,,,,,,1,,,79,0
502440,note_on,0,0,1,,,,,,,,,1,,,79,81
502440,note_off,120,0,1,,,,,,,,,1,,,78,0
502500,control_change,180,0,5,,,,,,,64,0,5,,,,
502500,control_change,180,0,3,,,,,,,64,0,3,,,,
502500,control_change,420,0,4,,,,,,,64,0,4,,,,
502560,control_change,60,0,4,,,,,,,64,127,4,,,,
502560,note_off,120,0,1,,,,,,,,,1,,,79,0
502560,note_on,0,0,5,,,,,,,,,5,,,58,81
502560,control_change,60,0,3,,,,,,,64,127,3,,,,
502560,note_on,0,0,1,,,,,,,,,1,,,80,81
502560,control_change,60,0,5,,,,,,,64,127,5,,,,
502560,note_off,0,0,3,,,,,,,,,3,,,67,0
502680,note_on,0,0,1,,,,,,,,,1,,,79,82
502680,note_off,120,0,1,,,,,,,,,1,,,80,0
502800,note_off,240,0,5,,,,,,,,,5,,,58,0
502800,note_on,240,0,3,,,,,,,,,3,,,67,83
502800,note_on,0,0,1,,,,,,,,,1,,,77,83
502800,note_off,120,0,1,,,,,,,,,1,,,79,0
502920,note_on,0,0,1,,,,,,,,,1,,,75,83
502920,note_off,120,0,1,,,,,,,,,1,,,77,0
502980,control_change,180,0,5,,,,,,,64,0,5,,,,
502980,control_change,420,0,4,,,,,,,64,0,4,,,,
502980,control_change,180,0,3,,,,,,,64,0,3,,,,
503000,set_tempo,1880,1,0,,,,,,1224489,,,,,,,
503016,note_off,96,0,1,,,,,,,,,1,,,75,0
503040,set_tempo,40,1,0,,,,,,1176470,,,,,,,
503040,control_change,60,0,5,,,,,,,64,127,5,,,,
503040,note_on,0,0,5,,,,,,,,,5,,,57,84
503040,note_on,24,0,1,,,,,,,,,1,,,74,84
503040,control_change,60,0,3,,,,,,,64,127,3,,,,
503040,control_change,60,0,4,,,,,,,64,127,4,,,,
503040,note_off,0,0,3,,,,,,,,,3,,,67,0
503280,note_off,240,0,5,,,,,,,,,5,,,57,0
503280,note_on,240,0,3,,,,,,,,,3,,,67,85
503400,note_off,360,0,1,,,,,,,,,1,,,74,0
503400,note_on,0,0,1,,,,,,,,,1,,,72,86
503460,control_change,180,0,3,,,,,,,64,0,3,,,,
503460,control_change,180,0,5,,,,,,,64,0,5,,,,
503460,control_change,420,0,4,,,,,,,64,0,4,,,,
503520,control_change,60,0,3,,,,,,,64,127,3,,,,
503520,note_off,0,0,3,,,,,,,,,3,,,67,0
503520,note_off,120,0,1,,,,,,,,,1,,,72,0
503520,note_on,0,0,1,,,,,,,,,1,,,84,86
503520,note_on,0,0,5,,,,,,,,,5,,,63,86
503520,control_change,60,0,5,,,,,,,64,127,5,,,,
503520,control_change,60,0,4,,,,,,,64,127,4,,,,
503760,note_on,240,0,3,,,,,,,,,3,,,67,88
503760,note_off,240,0,5,,,,,,,,,5,,,63,0
503940,control_change,180,0,5,,,,,,,64,0,5,,,,
503940,control_change,420,0,4,,,,,,,64,0,4,,,,
503940,control_change,180,0,3,,,,,,,64,0,3,,,,
504000,control_change,60,0,4,,,,,,,64,127,4,,,,
504000,control_change,60,0,5,,,,,,,64,127,5,,,,
504000,note_on,0,0,5,,,,,,,,,5,,,56,89
504000,control_change,60,0,3,,,,,,,64,127,3,,,,
504000,note_off,0,0,3,,,,,,,,,3,,,67,0
504097,note_off,577,0,1,,,,,,,,,1,,,84,0
504120,note_on,23,0,1,,,,,,,,,1,,,86,87
504160,note_on,0,0,1,,,,,,,,,1,,,84,88
504160,note_off,40,0,1,,,,,,,,,1,,,86,0
504200,note_off,40,0,1,,,,,,,,,1,,,84,0
504200,note_on,0,0,1,,,,,,,,,1,,,83,89
504240,note_on,0,0,1,,,,,,,,,1,,,84,90
504240,note_off,240,0,5,,,,,,,,,5,,,56,0
504240,note_off,40,0,1,,,,,,,,,1,,,83,0
504240,note_on,240,0,3,,,,,,,,,3,,,66,90
504360,note_on,0,0,1,,,,,,,,,1,,,86,93
504360,note_off,120,0,1,,,,,,,,,1,,,84,0
504420,control_change,180,0,3,,,,,,,64,0,3,,,,
504420,control_change,180,0,5,,,,,,,64,0,5,,,,
504420,control_change,420,0,4,,,,,,,64,0,4,,,,
504480,note_on,0,0,1,,,,,,,,,1,,,87,89
504480,note_off,120,0,1,,,,,,,,,1,,,86,0
504480,control_change,60,0,4,,,,,,,64,127,4,,,,
504480,control_change,60,0,5,,,,,,,64,127,5,,,,
504480,note_off,0,0,3,,,,,,,,,3,,,66,0
504480,control_change,60,0,3,,,,,,,64,127,3,,,,
504480,note_on,0,0,5,,,,,,,,,5,,,63,85
504720,note_on,240,0,3,,,,,,,,,3,,,60,80
504720,note_off,240,0,5,,,,,,,,,5,,,63,0
504840,note_off,360,0,1,,,,,,,,,1,,,87,0
504840,note_on,0,0,1,,,,,,,,,1,,,78,77
504870,set_tempo,1830,1,0,,,,,,1363636,,,,,,,
504900,control_change,420,0,4,,,,,,,64,0,4,,,,
504900,control_change,180,0,3,,,,,,,64,0,3,,,,
504900,control_change,180,0,5,,,,,,,64,0,5,,,,
504912,note_off,12,0,3,,,,,,,,,3,,,60,0
504960,control_change,48,0,3,,,,,,,64,0,3,,,,
504960,control_change,60,0,4,,,,,,,64,0,4,,,,
504960,control_change,60,0,5,,,,,,,64,0,5,,,,
504960,set_tempo,90,1,0,,,,,,1176470,,,,,,,
504960,note_on,0,0,1,,,,,,,,,1,,,79,73
504960,note_off,0,0,1,,,,,,,,,1,,,78,0
504960,control_change,120,0,1,,,,,,,64,0,1,,,,
505000,control_change,40,0,4,,,,,,,64,127,4,,,,
505000,control_change,40,0,1,,,,,,,64,127,1,,,,
505000,control_change,40,0,5,,,,,,,64,127,5,,,,
505000,control_change,40,0,3,,,,,,,64,127,3,,,,
505080,note_off,80,0,1,,,,,,,,,1,,,79,0
505080,note_on,80,0,5,,,,,,,,,5,,,55,70
505200,note_off,120,0,5,,,,,,,,,5,,,55,0
505200,note_on,200,0,3,,,,,,,,,3,,,59,70
505320,note_off,120,0,3,,,,,,,,,3,,,59,0
505320,note_on,0,0,3,,,,,,,,,3,,,62,71
505440,note_on,0,0,3,,,,,,,,,3,,,67,71
505440,note_off,120,0,3,,,,,,,,,3,,,62,0
505560,note_on,0,0,3,,,,,,,,,3,,,71,71
505560,note_off,120,0,3,,,,,,,,,3,,,67,0
505680,note_on,0,0,3,,,,,,,,,3,,,74,72
505680,note_off,120,0,3,,,,,,,,,3,,,71,0
505800,note_off,120,0,3,,,,,,,,,3,,,74,0
505800,note_on,720,0,1,,,,,,,,,1,,,79,72
505920,control_change,120,0,1,,,,,,,64,0,1,,,,
505920,control_change,720,0,5,,,,,,,64,0,5,,,,
505920,control_change,120,0,3,,,,,,,64,0,3,,,,
505920,note_off,0,0,1,,,,,,,,,1,,,79,0
505920,note_on,0,0,1,,,,,,,,,1,,,78,72
505920,control_change,920,0,4,,,,,,,64,0,4,,,,
505960,control_change,40,0,1,,,,,,,64,127,1,,,,
505960,control_change,40,0,5,,,,,,,64,127,5,,,,
505960,control_change,40,0,4,,,,,,,64,127,4,,,,
505960,control_change,40,0,3,,,,,,,64,127,3,,,,
506040,note_on,80,0,5,,,,,,,,,5,,,55,73
506040,note_off,80,0,1,,,,,,,,,1,,,78,0
506160,note_off,120,0,5,,,,,,,,,5,,,55,0
506160,note_on,200,0,3,,,,,,,,,3,,,60,73
506280,note_on,0,0,3,,,,,,,,,3,,,63,73
506280,note_off,120,0,3,,,,,,,,,3,,,60,0
506400,note_on,0,0,3,,,,,,,,,3,,,66,74
506400,note_off,120,0,3,,,,,,,,,3,,,63,0
506520,note_off,120,0,3,,,,,,,,,3,,,66,0
506520,note_on,0,0,3,,,,,,,,,3,,,69,74
506640,note_off,120,0,3,,,,,,,,,3,,,69,0
506640,note_on,0,0,3,,,,,,,,,3,,,72,74
506760,note_on,720,0,1,,,,,,,,,1,,,78,75
506760,note_off,120,0,3,,,,,,,,,3,,,72,0
506840,set_tempo,1880,1,0,,,,,,1224489,,,,,,,
506880,control_change,720,0,5,,,,,,,64,0,5,,,,
506880,set_tempo,40,1,0,,,,,,1176470,,,,,,,
506880,control_change,920,0,4,,,,,,,64,0,4,,,,
506880,control_change,120,0,3,,,,,,,64,0,3,,,,
506880,note_off,0,0,1,,,,,,,,,1,,,78,0
506880,note_on,0,0,1,,,,,,,,,1,,,79,75
506880,control_change,120,0,1,,,,,,,64,0,1,,,,
506920,control_change,40,0,3,,,,,,,64,127,3,,,,
506920,control_change,40,0,4,,,,,,,64,127,4,,,,
506920,control_change,40,0,1,,,,,,,64,127,1,,,,
506920,control_change,40,0,5,,,,,,,64,127,5,,,,
507000,note_off,80,0,1,,,,,,,,,1,,,79,0
507000,note_on,80,0,5,,,,,,,,,5,,,55,75
507120,note_on,200,0,3,,,,,,,,,3,,,59,76
507120,note_off,120,0,5,,,,,,,,,5,,,55,0
507240,note_on,0,0,3,,,,,,,,,3,,,62,76
507240,note_off,120,0,3,,,,,,,,,3,,,59,0
507360,note_on,0,0,3,,,,,,,,,3,,,67,76
507360,note_off,120,0,3,,,,,,,,,3,,,62,0
507480,note_off,120,0,3,,,,,,,,,3,,,67,0
507480,note_on,0,0,3,,,,,,,,,3,,,71,77
507600,note_on,0,0,3,,,,,,,,,3,,,74,77
507600,note_off,120,0,3,,,,,,,,,3,,,71,0
507720,note_off,120,0,3,,,,,,,,,3,,,74,0
507720,note_on,720,0,1,,,,,,,,,1,,,79,77
507840,control_change,920,0,4,,,,,,,64,0,4,,,,
507840,control_change,720,0,5,,,,,,,64,0,5,,,,
507840,control_change,120,0,3,,,,,,,64,0,3,,,,
507840,control_change,120,0,1,,,,,,,64,0,1,,,,
507840,note_off,0,0,1,,,,,,,,,1,,,79,0
507840,note_on,0,0,1,,,,,,,,,1,,,78,78
507880,control_change,40,0,5,,,,,,,64,127,5,,,,
507880,control_change,40,0,3,,,,,,,64,127,3,,,,
507880,control_change,40,0,4,,,,,,,64,127,4,,,,
507880,control_change,40,0,1,,,,,,,64,127,1,,,,
507960,note_off,80,0,1,,,,,,,,,1,,,78,0
507960,note_on,80,0,5,,,,,,,,,5,,,55,78
508080,note_on,200,0,3,,,,,,,,,3,,,60,78
508080,note_off,120,0,5,,,,,,,,,5,,,55,0
508200,note_off,120,0,3,,,,,,,,,3,,,60,0
508200,note_on,0,0,3,,,,,,,,,3,,,63,79
508320,note_off,120,0,3,,,,,,,,,3,,,63,0
508320,note_on,0,0,3,,,,,,,,,3,,,66,79
508440,note_off,120,0,3,,,,,,,,,3,,,66,0
508440,note_on,0,0,3,,,,,,,,,3,,,69,79
508560,note_off,120,0,3,,,,,,,,,3,,,69,0
508560,note_on,0,0,3,,,,,,,,,3,,,72,80
508680,note_off,120,0,3,,,,,,,,,3,,,72,0
508680,note_on,720,0,1,,,,,,,,,1,,,78,80
508800,control_change,720,0,5,,,,,,,64,0,5,,,,
508800,control_change,120,0,3,,,,,,,64,0,3,,,,
508800,control_change,920,0,4,,,,,,,64,0,4,,,,
508800,control_change,120,0,1,,,,,,,64,0,1,,,,
508800,note_off,0,0,1,,,,,,,,,1,,,78,0
508800,note_on,0,0,1,,,,,,,,,1,,,79,80
508840,control_change,40,0,5,,,,,,,64,127,5,,,,
508840,control_change,40,0,3,,,,,,,64,127,3,,,,
508840,control_change,40,0,4,,,,,,,64,127,4,,,,
508840,control_change,40,0,1,,,,,,,64,127,1,,,,
508920,note_on,80,0,5,,,,,,,,,5,,,55,81
508920,note_off,80,0,1,,,,,,,,,1,,,79,0
509040,note_on,200,0,3,,,,,,,,,3,,,59,81
509040,note_off,120,0,5,,,,,,,,,5,,,55,0
509160,note_on,0,0,3,,,,,,,,,3,,,62,81
509160,note_off,120,0,3,,,,,,,,,3,,,59,0
509280,note_on,0,0,3,,,,,,,,,3,,,67,82
509280,note_off,120,0,3,,,,,,,,,3,,,62,0
509400,note_off,120,0,3,,,,,,,,,3,,,67,0
509400,note_on,0,0,3,,,,,,,,,3,,,71,82
509520,note_on,0,0,3,,,,,,,,,3,,,74,82
509520,note_off,120,0,3,,,,,,,,,3,,,71,0
509640,note_off,120,0,3,,,,,,,,,3,,,74,0
509640,note_on,720,0,1,,,,,,,,,1,,,78,83
509760,control_change,120,0,3,,,,,,,64,0,3,,,,
509760,control_change,120,0,1,,,,,,,64,0,1,,,,
509760,note_off,0,0,1,,,,,,,,,1,,,78,0
509760,control_change,920,0,4,,,,,,,64,0,4,,,,
509760,note_on,0,0,1,,,,,,,,,1,,,79,83
509760,control_change,720,0,5,,,,,,,64,0,5,,,,
509800,control_change,40,0,3,,,,,,,64,127,3,,,,
509800,control_change,40,0,1,,,,,,,64,127,1,,,,
509800,control_change,40,0,5,,,,,,,64,127,5,,,,
509800,control_change,40,0,4,,,,,,,64,127,4,,,,
509880,note_off,80,0,1,,,,,,,,,1,,,79,0
509880,note_on,80,0,5,,,,,,,,,5,,,55,83
510000,note_on,200,0,3,,,,,,,,,3,,,59,84
510000,note_off,120,0,5,,,,,,,,,5,,,55,0
510120,note_on,0,0,3,,,,,,,,,3,,,62,84
510120,note_off,120,0,3,,,,,,,,,3,,,59,0
510240,note_off,120,0,3,,,,,,,,,3,,,62,0
510240,note_on,0,0,3,,,,,,,,,3,,,67,84
510360,note_on,0,0,3,,,,,,,,,3,,,71,85
510360,note_off,120,0,3,,,,,,,,,3,,,67,0
510480,note_off,120,0,3,,,,,,,,,3,,,71,0
510480,note_on,0,0,3,,,,,,,,,3,,,74,85
510600,note_on,720,0,1,,,,,,,,,1,,,79,85
510600,note_off,120,0,3,,,,,,,,,3,,,74,0
510720,control_change,120,0,3,,,,,,,64,0,3,,,,
510720,control_change,720,0,5,,,,,,,64,0,5,,,,
510720,control_change,920,0,4,,,,,,,64,0,4,,,,
510720,control_change,120,0,1,,,,,,,64,0,1,,,,
510720,note_off,0,0,1,,,,,,,,,1,,,79,0
510720,note_on,0,0,1,,,,,,,,,1,,,80,86
510760,control_change,40,0,4,,,,,,,64,127,4,,,,
510760,control_change,40,0,3,,,,,,,64,127,3,,,,
510760,control_change,40,0,1,,,,,,,64,127,1,,,,
510760,control_change,40,0,5,,,,,,,64,127,5,,,,
510840,note_on,80,0,5,,,,,,,,,5,,,53,86
510840,note_off,80,0,1,,,,,,,,,1,,,80,0
510960,note_off,120,0,5,,,,,,,,,5,,,53,0
510960,note_on,200,0,3,,,,,,,,,3,,,59,87
511080,note_on,0,0,3,,,,,,,,,3,,,62,87
511080,note_off,120,0,3,,,,,,,,,3,,,59,0
511200,note_off,120,0,3,,,,,,,,,3,,,62,0
511200,note_on,0,0,3,,,,,,,,,3,,,65,87
511320,note_off,120,0,3,,,,,,,,,3,,,65,0
511320,note_on,0,0,3,,,,,,,,,3,,,71,88
511440,note_off,120,0,3,,,,,,,,,3,,,71,0
511440,note_on,0,0,3,,,,,,,,,3,,,74,88
511560,note_on,720,0,1,,,,,,,,,1,,,80,88
511560,note_off,120,0,3,,,,,,,,,3,,,74,0
511680,control_change,920,0,4,,,,,,,64,0,4,,,,
511680,note_off,0,0,1,,,,,,,,,1,,,80,0
511680,control_change,720,0,5,,,,,,,64,0,5,,,,
511680,control_change,120,0,1,,,,,,,64,0,1,,,,
511680,control_change,120,0,3,,,,,,,64,0,3,,,,
511680,note_on,0,0,1,,,,,,,,,1,,,81,89
511720,control_change,40,0,1,,,,,,,64,127,1,,,,
511720,control_change,40,0,5,,,,,,,64,127,5,,,,
511720,control_change,40,0,4,,,,,,,64,127,4,,,,
511720,control_change,40,0,3,,,,,,,64,127,3,,,,
511800,note_off,80,0,1,,,,,,,,,1,,,81,0
511800,note_on,80,0,5,,,,,,,,,5,,,51,89
511920,note_off,120,0,5,,,,,,,,,5,,,51,0
511920,note_on,200,0,3,,,,,,,,,3,,,57,89
512040,note_on,0,0,3,,,,,,,,,3,,,60,90
512040,note_off,120,0,3,,,,,,,,,3,,,57,0
512160,note_off,120,0,3,,,,,,,,,3,,,60,0
512160,note_on,0,0,3,,,,,,,,,3,,,63,90
512240,set_tempo,5360,1,0,,,,,,1224489,,,,,,,
512280,note_on,0,0,3,,,,,,,,,3,,,72,90
512280,note_off,120,0,3,,,,,,,,,3,,,63,0
512400,note_on,0,0,3,,,,,,,,,3,,,77,91
512400,note_off,120,0,3,,,,,,,,,3,,,72,0
512480,set_tempo,240,1,0,,,,,,1276595,,,,,,,
512520,note_off,120,0,3,,,,,,,,,3,,,77,0
512520,note_on,720,0,1,,,,,,,,,1,,,81,91
512600,set_tempo,120,1,0,,,,,,2500000,,,,,,,
512616,note_off,96,0,1,,,,,,,,,1,,,81,0
512640,note_on,0,0,5,,,,,,,,,5,,,50,89
512640,control_change,120,0,3,,,,,,,64,0,3,,,,
512640,control_change,920,0,4,,,,,,,64,0,4,,,,
512640,control_change,720,0,5,,,,,,,64,0,5,,,,
512640,set_tempo,40,1,0,,,,,,1276595,,,,,,,
512640,control_change,24,0,1,,,,,,,64,0,1,,,,
512640,note_on,0,0,1,,,,,,,,,1,,,82,89
512685,set_tempo,45,1,0,,,,,,1200000,,,,,,,
512760,note_off,120,0,1,,,,,,,,,1,,,82,0
512760,note_on,0,0,1,,,,,,,,,1,,,83,87
512880,note_on,0,0,1,,,,,,,,,1,,,84,86
512880,note_off,120,0,1,,,,,,,,,1,,,83,0
513000,note_off,120,0,1,,,,,,,,,1,,,84,0
513000,note_on,0,0,1,,,,,,,,,1,,,82,84
513120,note_on,0,0,1,,,,,,,,,1,,,80,82
513120,note_off,120,0,1,,,,,,,,,1,,,82,0
513240,note_on,0,0,1,,,,,,,,,1,,,79,80
513240,note_off,120,0,1,,,,,,,,,1,,,80,0
513360,note_on,0,0,1,,,,,,,,,1,,,77,78
513360,note_off,120,0,1,,,,,,,,,1,,,79,0
513480,note_off,120,0,1,,,,,,,,,1,,,77,0
513480,note_on,0,0,1,,,,,,,,,1,,,75,77
513600,note_on,0,0,1,,,,,,,,,1,,,74,75
513600,note_off,120,0,1,,,,,,,,,1,,,75,0
513720,note_off,120,0,1,,,,,,,,,1,,,74,0
513720,note_on,0,0,1,,,,,,,,,1,,,72,73
513840,note_off,120,0,1,,,,,,,,,1,,,72,0
513840,note_on,0,0,1,,,,,,,,,1,,,70,71
513960,note_off,120,0,1,,,,,,,,,1,,,70,0
513960,note_on,0,0,1,,,,,,,,,1,,,69,69
514080,note_off,120,0,1,,,,,,,,,1,,,69,0
514080,note_on,0,0,1,,,,,,,,,1,,,68,67
514200,note_off,120,0,1,,,,,,,,,1,,,68,0
514200,note_on,0,0,1,,,,,,,,,1,,,67,66
514320,note_off,120,0,1,,,,,,,,,1,,,67,0
514320,note_on,0,0,1,,,,,,,,,1,,,65,64
514440,note_on,0,0,1,,,,,,,,,1,,,63,62
514440,note_off,120,0,1,,,,,,,,,1,,,65,0
514520,set_tempo,1835,1,0,,,,,,1333333,,,,,,,
514560,note_off,120,0,1,,,,,,,,,1,,,63,0
514560,note_on,0,0,1,,,,,,,,,1,,,62,60
514560,note_on,0,0,5,,,,,,,,,5,,,46,60
514560,note_on,1920,0,4,,,,,,,,,4,,,56,60
514560,set_tempo,40,1,0,,,,,,1224489,,,,,,,
514560,note_off,1920,0,5,,,,,,,,,5,,,50,0
514560,note_on,0,0,4,,,,,,,,,4,,,53,60
514680,note_off,120,0,1,,,,,,,,,1,,,62,0
514680,note_on,0,0,1,,,,,,,,,1,,,60,58
514800,note_off,120,0,1,,,,,,,,,1,,,60,0
514800,note_on,0,0,1,,,,,,,,,1,,,58,57
514920,note_off,120,0,1,,,,,,,,,1,,,58,0
514920,note_on,0,0,1,,,,,,,,,1,,,60,55
515040,note_off,120,0,1,,,,,,,,,1,,,60,0
515040,note_on,0,0,1,,,,,,,,,1,,,62,53
515160,note_off,120,0,1,,,,,,,,,1,,,62,0
515160,note_on,0,0,1,,,,,,,,,1,,,63,51
515280,note_off,120,0,1,,,,,,,,,1,,,63,0
515280,note_on,0,0,1,,,,,,,,,1,,,65,49
515400,note_on,0,0,1,,,,,,,,,1,,,67,47
515400,note_off,120,0,1,,,,,,,,,1,,,65,0
515480,set_tempo,920,1,0,,,,,,1276595,,,,,,,
515520,note_off,120,0,1,,,,,,,,,1,,,67,0
515520,note_on,0,0,1,,,,,,,,,1,,,68,46
515640,note_on,0,0,1,,,,,,,,,1,,,67,44
515640,note_off,120,0,1,,,,,,,,,1,,,68,0
515760,note_off,120,0,1,,,,,,,,,1,,,67,0
515760,note_on,0,0,1,,,,,,,,,1,,,65,42
515880,note_off,120,0,1,,,,,,,,,1,,,65,0
515880,note_on,0,0,1,,,,,,,,,1,,,64,40
515960,set_tempo,480,1,0,,,,,,1333333,,,,,,,
516000,note_on,0,0,1,,,,,,,,,1,,,65,38
516000,note_off,120,0,1,,,,,,,,,1,,,64,0
516120,note_off,120,0,1,,,,,,,,,1,,,65,0
516120,note_on,0,0,1,,,,,,,,,1,,,67,36
516240,set_tempo,280,1,0,,,,,,2727272,,,,,,,
516240,note_on,0,0,1,,,,,,,,,1,,,68,35
516240,note_off,120,0,1,,,,,,,,,1,,,67,0
516300,note_on,60,0,1,,,,,,,,,1,,,69,34
516307,note_off,7,0,1,,,,,,,,,1,,,68,0
516360,set_tempo,120,1,0,,,,,,750000,,,,,,,
516435,note_off,1875,0,5,,,,,,,,,5,,,46,0
516435,note_off,1875,0,4,,,,,,,,,4,,,53,0
516435,note_off,0,0,4,,,,,,,,,4,,,56,0
516442,note_off,135,0,1,,,,,,,,,1,,,69,0
516480,control_change,3840,0,3,,,,,,,64,127,3,,,,
516480,note_on,38,0,1,,,,,,,,,1,,,70,36
516480,note_on,0,0,5,,,,,,,,,5,,,51,36
516480,control_change,45,0,5,,,,,,,64,127,5,,,,
516480,control_change,45,0,4,,,,,,,64,127,4,,,,
516480,set_tempo,120,1,0,,,,,,1176470,,,,,,,
516720,note_off,240,0,5,,,,,,,,,5,,,51,0
516720,note_on,240,0,3,,,,,,,,,3,,,55,37
516960,note_off,240,0,3,,,,,,,,,3,,,55,0
516960,note_on,0,0,3,,,,,,,,,3,,,58,38
517080,note_on,0,0,1,,,,,,,,,1,,,72,39
517080,note_off,600,0,1,,,,,,,,,1,,,70,0
517200,note_on,0,0,3,,,,,,,,,3,,,55,39
517200,note_on,0,0,1,,,,,,,,,1,,,74,39
517200,note_off,120,0,1,,,,,,,,,1,,,72,0
517200,note_off,240,0,3,,,,,,,,,3,,,58,0
517320,note_off,120,0,1,,,,,,,,,1,,,74,0
517320,note_on,0,0,1,,,,,,,,,1,,,75,40
517380,control_change,660,0,5,,,,,,,64,0,5,,,,
517380,control_change,900,0,4,,,,,,,64,0,4,,,,
517380,control_change,180,0,3,,,,,,,64,0,3,,,,
517416,note_off,96,0,1,,,,,,,,,1,,,75,0
517440,control_change,60,0,4,,,,,,,64,127,4,,,,
517440,note_on,0,0,5,,,,,,,,,5,,,51,40
517440,control_change,60,0,5,,,,,,,64,127,5,,,,
517440,note_off,0,0,3,,,,,,,,,3,,,55,0
517440,control_change,60,0,3,,,,,,,64,127,3,,,,
517440,note_on,24,0,1,,,,,,,,,1,,,75,40
517680,note_on,0,0,1,,,,,,,,,1,,,67,42
517680,note_off,240,0,1,,,,,,,,,1,,,75,0
517680,note_off,240,0,5,,,,,,,,,5,,,51,0
517680,note_on,240,0,3,,,,,,,,,3,,,55,42
517870,note_off,190,0,1,,,,,,,,,1,,,67,0
517920,note_off,240,0,3,,,,,,,,,3,,,55,0
517920,note_on,0,0,3,,,,,,,,,3,,,58,43
517920,note_on,50,0,1,,,,,,,,,1,,,67,43
518110,note_off,190,0,1,,,,,,,,,1,,,67,0
518160,note_on,50,0,1,,,,,,,,,1,,,67,44
518160,note_on,0,0,3,,,,,,,,,3,,,55,44
518160,note_off,240,0,3,,,,,,,,,3,,,58,0
518340,control_change,660,0,5,,,,,,,64,0,5,,,,
518340,control_change,180,0,3,,,,,,,64,0,3,,,,
518340,control_change,900,0,4,,,,,,,64,0,4,,,,
518350,note_off,190,0,1,,,,,,,,,1,,,67,0
518400,control_change,60,0,5,,,,,,,64,127,5,,,,
518400,note_on,28838,0,2,,,,,,,,,2,,,63,46
518400,note_on,50,0,1,,,,,,,,,1,,,67,46
518400,control_change,60,0,3,,,,,,,64,127,3,,,,
518400,note_off,0,0,3,,,,,,,,,3,,,55,0
518400,control_change,60,0,4,,,,,,,64,127,4,,,,
518400,note_on,0,0,5,,,,,,,,,5,,,46,46
518640,note_on,240,0,3,,,,,,,,,3,,,51,44
518640,note_off,240,0,5,,,,,,,,,5,,,46,0
518880,note_on,0,0,3,,,,,,,,,3,,,55,43
518880,note_off,240,0,3,,,,,,,,,3,,,51,0
519000,note_on,0,0,1,,,,,,,,,1,,,68,36
519000,note_off,600,0,1,,,,,,,,,1,,,67,0
519040,note_on,40,0,1,,,,,,,,,1,,,67,37
519060,note_off,20,0,1,,,,,,,,,1,,,68,0
519080,note_on,20,0,1,,,,,,,,,1,,,65,38
519100,note_off,20,0,1,,,,,,,,,1,,,67,0
519120,note_off,240,0,3,,,,,,,,,3,,,55,0
519120,note_on,0,0,3,,,,,,,,,3,,,51,41
519120,note_on,20,0,1,,,,,,,,,1,,,67,38
519140,note_off,20,0,1,,,,,,,,,1,,,65,0
519240,note_off,100,0,1,,,,,,,,,1,,,67,0
519240,note_on,0,0,1,,,,,,,,,1,,,68,41
519300,control_change,180,0,3,,,,,,,64,0,3,,,,
519300,control_change,900,0,4,,,,,,,64,0,4,,,,
519300,control_change,660,0,5,,,,,,,64,0,5,,,,
519360,note_off,120,0,1,,,,,,,,,1,,,68,0
519360,note_on,0,0,1,,,,,,,,,1,,,65,43
519360,note_on,0,0,5,,,,,,,,,5,,,46,40
519360,control_change,60,0,5,,,,,,,64,127,5,,,,
519360,note_off,960,0,2,,,,,,,,,2,,,63,0
519360,note_on,0,0,2,,,,,,,,,2,,,62,43
519360,note_off,0,0,3,,,,,,,,,3,,,51,0
519360,control_change,60,0,3,,,,,,,64,127,3,,,,
519360,control_change,60,0,4,,,,,,,64,127,4,,,,
519600,note_on,240,0,3,,,,,,,,,3,,,50,39
519600,note_off,240,0,5,,,,,,,,,5,,,46,0
519840,note_on,0,0,3,,,,,,,,,3,,,53,38
519840,note_off,240,0,3,,,,,,,,,3,,,50,0
519840,note_off,480,0,2,,,,,,,,,2,,,62,0
519840,note_off,480,0,1,,,,,,,,,1,,,65,0
519920,note_on,80,0,1,,,,,,,,,1,,,70,37
520000,note_on,0,0,1,,,,,,,,,1,,,69,37
520000,note_off,80,0,1,,,,,,,,,1,,,70,0
520080,note_on,0,0,3,,,,,,,,,3,,,50,37
520080,note_off,80,0,1,,,,,,,,,1,,,69,0
520080,note_on,0,0,1,,,,,,,,,1,,,68,37
520080,note_off,240,0,3,,,,,,,,,3,,,53,0
520160,note_off,80,0,1,,,,,,,,,1,,,68,0
520160,note_on,0,0,1,,,,,,,,,1,,,67,36
520240,note_on,0,0,1,,,,,,,,,1,,,65,36
520240,note_off,80,0,1,,,,,,,,,1,,,67,0
520260,control_change,180,0,3,,,,,,,64,0,3,,,,
520260,control_change,660,0,5,,,,,,,64,0,5,,,,
520260,control_change,900,0,4,,,,,,,64,0,4,,,,
520272,note_off,12,0,3,,,,,,,,,3,,,50,0
520280,set_tempo,3800,1,0,,,,,,1428571,,,,,,,
520312,note_off,72,0,1,,,,,,,,,1,,,65,0
520320,control_change,48,0,3,,,,,,,64,127,3,,,,
520320,control_change,60,0,4,,,,,,,64,127,4,,,,
520320,note_on,0,0,3,,,,,,,,,3,,,55,44
520320,note_on,0,0,5,,,,,,,,,5,,,51,44
520320,set_tempo,40,1,0,,,,,,1176470,,,,,,,
520320,note_on,8,0,1,,,,,,,,,1,,,63,44
520320,control_change,60,0,5,,,,,,,64,127,5,,,,
520560,note_on,0,0,3,,,,,,,,,3,,,58,46
520560,note_off,240,0,3,,,,,,,,,3,,,55,0
520800,note_off,240,0,3,,,,,,,,,3,,,58,0
520800,note_on,0,0,3,,,,,,,,,3,,,55,47
521040,note_off,240,0,3,,,,,,,,,3,,,55,0
521040,note_on,0,0,3,,,,,,,,,3,,,58,49
521220,control_change,900,0,4,,,,,,,64,0,4,,,,
521220,control_change,180,0,3,,,,,,,64,0,3,,,,
521220,control_change,900,0,5,,,,,,,64,0,5,,,,
521280,note_off,960,0,1,,,,,,,,,1,,,63,0
521280,note_on,0,0,1,,,,,,,,,1,,,65,51
521280,control_change,60,0,3,,,,,,,64,127,3,,,,
521280,note_on,0,0,3,,,,,,,,,3,,,62,51
521280,control_change,60,0,4,,,,,,,64,127,4,,,,
521280,control_change,60,0,5,,,,,,,64,127,5,,,,
521280,note_off,0,0,3,,,,,,,,,3,,,58,0
521280,note_off,0,0,5,,,,,,,,,5,,,51,0
521280,note_on,0,0,5,,,,,,,,,5,,,46,51
521520,note_on,0,0,3,,,,,,,,,3,,,58,52
521520,note_off,240,0,3,,,,,,,,,3,,,62,0
521760,note_on,0,0,3,,,,,,,,,3,,,62,54
521760,note_off,240,0,3,,,,,,,,,3,,,58,0
522000,note_off,240,0,3,,,,,,,,,3,,,62,0
522000,note_on,0,0,3,,,,,,,,,3,,,58,56
522180,control_change,900,0,5,,,,,,,64,0,5,,,,
522180,control_change,180,0,3,,,,,,,64,0,3,,,,
522180,control_change,900,0,4,,,,,,,64,0,4,,,,
522240,note_on,0,0,3,,,,,,,,,3,,,63,59
522240,note_on,0,0,1,,,,,,,,,1,,,67,59
522240,note_off,960,0,1,,,,,,,,,1,,,65,0
522240,note_off,60,0,5,,,,,,,,,5,,,46,0
522240,note_on,0,0,5,,,,,,,,,5,,,39,59
522240,note_off,60,0,3,,,,,,,,,3,,,58,0
522360,note_on,120,0,1,,,,,,,,,1,,,68,53
522365,note_off,5,0,1,,,,,,,,,1,,,67,0
522400,note_on,35,0,1,,,,,,,,,1,,,67,53
522420,note_off,20,0,1,,,,,,,,,1,,,68,0
522440,note_on,20,0,1,,,,,,,,,1,,,65,54
522460,note_off,20,0,1,,,,,,,,,1,,,67,0
522480,note_on,20,0,1,,,,,,,,,1,,,67,55
522500,note_off,20,0,1,,,,,,,,,1,,,65,0
522600,note_on,100,0,1,,,,,,,,,1,,,68,53
522622,note_off,22,0,1,,,,,,,,,1,,,67,0
522720,note_off,98,0,1,,,,,,,,,1,,,68,0
522720,note_off,480,0,3,,,,,,,,,3,,,63,0
522720,note_on,0,0,1,,,,,,,,,1,,,70,51
522840,note_off,120,0,1,,,,,,,,,1,,,70,0
522840,note_on,0,0,1,,,,,,,,,1,,,72,49
522960,note_off,120,0,1,,,,,,,,,1,,,72,0
522960,note_on,0,0,1,,,,,,,,,1,,,74,47
523080,note_on,0,0,1,,,,,,,,,1,,,75,45
523080,note_off,120,0,1,,,,,,,,,1,,,74,0
523160,set_tempo,2840,1,0,,,,,,1224489,,,,,,,
523200,set_tempo,40,1,0,,,,,,1276595,,,,,,,
523200,note_off,120,0,1,,,,,,,,,1,,,75,0
523200,note_off,960,0,5,,,,,,,,,5,,,39,0
523200,note_on,0,0,1,,,,,,,,,1,,,70,43
523440,note_off,240,0,1,,,,,,,,,1,,,70,0
523680,set_tempo,480,1,0,,,,,,1200000,,,,,,,
523680,note_on,240,0,1,,,,,,,,,1,,,75,39
523800,note_on,3960,0,2,,,,,,,,,2,,,79,40
523860,note_off,180,0,1,,,,,,,,,1,,,75,0
523920,note_off,120,0,2,,,,,,,,,2,,,79,0
523920,note_on,60,0,1,,,,,,,,,1,,,74,41
524040,note_on,120,0,2,,,,,,,,,2,,,77,42
524100,note_off,180,0,1,,,,,,,,,1,,,74,0
524160,note_on,60,0,1,,,,,,,,,1,,,72,43
524160,note_off,120,0,2,,,,,,,,,2,,,77,0
524280,note_on,120,0,2,,,,,,,,,2,,,75,45
524340,note_off,180,0,1,,,,,,,,,1,,,72,0
524400,note_on,60,0,1,,,,,,,,,1,,,70,46
524400,note_off,120,0,2,,,,,,,,,2,,,75,0
524520,note_on,120,0,2,,,,,,,,,2,,,74,47
524616,note_off,216,0,1,,,,,,,,,1,,,70,0
524640,note_on,1440,0,5,,,,,,,,,5,,,38,48
524640,note_off,120,0,2,,,,,,,,,2,,,74,0
524640,note_on,24,0,1,,,,,,,,,1,,,68,48
524760,note_on,120,0,2,,,,,,,,,2,,,72,49
524760,note_on,2040,0,3,,,,,,,,,3,,,50,49
524820,note_off,180,0,1,,,,,,,,,1,,,68,0
524820,note_off,180,0,5,,,,,,,,,5,,,38,0
524880,note_off,120,0,3,,,,,,,,,3,,,50,0
524880,note_on,60,0,1,,,,,,,,,1,,,67,50
524880,note_on,60,0,5,,,,,,,,,5,,,39,50
524880,note_off,120,0,2,,,,,,,,,2,,,72,0
525000,note_on,120,0,3,,,,,,,,,3,,,51,51
525000,note_on,120,0,2,,,,,,,,,2,,,70,51
525060,note_off,180,0,1,,,,,,,,,1,,,67,0
525060,note_off,180,0,5,,,,,,,,,5,,,39,0
525120,note_on,60,0,5,,,,,,,,,5,,,41,53
525120,note_off,120,0,2,,,,,,,,,2,,,70,0
525120,note_on,60,0,1,,,,,,,,,1,,,65,53
525120,note_off,120,0,3,,,,,,,,,3,,,51,0
525240,note_on,120,0,3,,,,,,,,,3,,,53,54
525240,note_on,120,0,2,,,,,,,,,2,,,68,54
525300,note_off,180,0,5,,,,,,,,,5,,,41,0
525300,note_off,180,0,1,,,,,,,,,1,,,65,0
525360,note_on,60,0,1,,,,,,,,,1,,,63,55
525360,note_off,120,0,2,,,,,,,,,2,,,68,0
525360,note_off,120,0,3,,,,,,,,,3,,,53,0
525360,note_on,60,0,5,,,,,,,,,5,,,43,55
525480,note_on,120,0,2,,,,,,,,,2,,,67,56
525480,note_on,120,0,3,,,,,,,,,3,,,55,56
525540,note_off,180,0,5,,,,,,,,,5,,,43,0
525540,note_off,180,0,1,,,,,,,,,1,,,63,0
525600,note_off,120,0,3,,,,,,,,,3,,,55,0
525600,note_on,60,0,5,,,,,,,,,5,,,44,57
525600,note_on,60,0,1,,,,,,,,,1,,,60,57
525600,note_off,120,0,2,,,,,,,,,2,,,67,0
525720,note_on,120,0,2,,,,,,,,,2,,,72,58
525720,note_on,120,0,3,,,,,,,,,3,,,56,58
525780,note_off,180,0,1,,,,,,,,,1,,,60,0
525780,note_off,180,0,5,,,,,,,,,5,,,44,0
525840,note_on,60,0,5,,,,,,,,,5,,,41,59
525840,note_off,120,0,2,,,,,,,,,2,,,72,0
525840,note_off,120,0,3,,,,,,,,,3,,,56,0
525840,note_on,60,0,1,,,,,,,,,1,,,65,59
525960,note_on,120,0,3,,,,,,,,,3,,,53,61
525960,note_on,120,0,2,,,,,,,,,2,,,68,61
526020,note_off,180,0,1,,,,,,,,,1,,,65,0
526020,note_off,180,0,5,,,,,,,,,5,,,41,0
526040,set_tempo,2360,1,0,,,,,,1276595,,,,,,,
526056,note_off,96,0,2,,,,,,,,,2,,,68,0
526057,note_off,97,0,3,,,,,,,,,3,,,53,0
526080,note_on,24,0,2,,,,,,,,,2,,,63,63
526080,note_on,60,0,1,,,,,,,,,1,,,67,63
526080,note_on,60,0,5,,,,,,,,,5,,,57,63
526200,note_on,0,0,5,,,,,,,,,5,,,58,61
526200,note_off,120,0,5,,,,,,,,,5,,,57,0
526320,note_off,120,0,5,,,,,,,,,5,,,58,0
526320,note_on,0,0,5,,,,,,,,,5,,,60,59
526440,note_off,120,0,5,,,,,,,,,5,,,60,0
526440,note_on,0,0,5,,,,,,,,,5,,,58,57
526560,note_off,120,0,5,,,,,,,,,5,,,58,0
526560,note_on,0,0,5,,,,,,,,,5,,,57,56
526680,note_off,120,0,5,,,,,,,,,5,,,57,0
526680,note_on,0,0,5,,,,,,,,,5,,,58,54
526800,note_off,120,0,5,,,,,,,,,5,,,58,0
526800,note_on,0,0,5,,,,,,,,,5,,,55,52
526920,note_on,0,0,5,,,,,,,,,5,,,51,51
526920,note_off,120,0,5,,,,,,,,,5,,,55,0
527000,set_tempo,960,1,0,,,,,,1363636,,,,,,,
527040,note_off,960,0,1,,,,,,,,,1,,,67,0
527040,note_on,0,0,1,,,,,,,,,1,,,65,49
527040,note_on,0,0,5,,,,,,,,,5,,,46,49
527040,note_on,0,0,2,,,,,,,,,2,,,62,49
527040,note_off,120,0,5,,,,,,,,,5,,,51,0
527040,note_off,960,0,2,,,,,,,,,2,,,63,0
527135,note_off,95,0,1,,,,,,,,,1,,,65,0
527135,note_off,95,0,2,,,,,,,,,2,,,62,0
527160,note_on,25,0,1,,,,,,,,,1,,,63,47
527160,set_tempo,160,1,0,,,,,,1224489,,,,,,,
527255,note_off,95,0,1,,,,,,,,,1,,,63,0
527280,note_on,25,0,1,,,,,,,,,1,,,62,45
527375,note_off,95,0,1,,,,,,,,,1,,,62,0
527400,note_on,25,0,1,,,,,,,,,1,,,63,44
527495,note_off,95,0,1,,,,,,,,,1,,,63,0
527520,note_on,25,0,1,,,,,,,,,1,,,65,42
527520,note_off,480,0,5,,,,,,,,,5,,,46,0
527615,note_off,95,0,1,,,,,,,,,1,,,65,0
527640,note_on,25,0,1,,,,,,,,,1,,,67,40
527735,note_off,95,0,1,,,,,,,,,1,,,67,0
527760,note_on,25,0,1,,,,,,,,,1,,,68,38
527855,note_off,95,0,1,,,,,,,,,1,,,68,0
527880,note_on,25,0,1,,,,,,,,,1,,,69,37
527925,set_tempo,765,1,0,,,,,,2068965,,,,,,,
527975,note_off,95,0,1,,,,,,,,,1,,,69,0
528000,control_change,5820,0,4,,,,,,,64,127,4,,,,
528000,set_tempo,75,1,0,,,,,,1176470,,,,,,,
528000,control_change,1943,0,3,,,,,,,64,127,3,,,,
528000,note_on,25,0,1,,,,,,,,,1,,,70,40
528000,note_on,0,0,5,,,,,,,,,5,,,51,40
528000,control_change,480,0,5,,,,,,,64,127,5,,,,
528240,note_on,240,0,3,,,,,,,,,3,,,55,41
528240,note_off,240,0,5,,,,,,,,,5,,,51,0
528480,note_on,0,0,3,,,,,,,,,3,,,58,42
528480,note_off,240,0,3,,,,,,,,,3,,,55,0
528600,note_off,600,0,1,,,,,,,,,1,,,70,0
528600,note_on,0,0,1,,,,,,,,,1,,,74,38
528660,note_on,0,0,1,,,,,,,,,1,,,72,39
528660,note_off,60,0,1,,,,,,,,,1,,,74,0
528720,note_off,60,0,1,,,,,,,,,1,,,72,0
528720,note_on,0,0,1,,,,,,,,,1,,,75,40
528720,note_on,0,0,3,,,,,,,,,3,,,55,43
528720,note_off,240,0,3,,,,,,,,,3,,,58,0
528780,note_on,0,0,1,,,,,,,,,1,,,74,40
528780,note_off,60,0,1,,,,,,,,,1,,,75,0
528840,note_off,60,0,1,,,,,,,,,1,,,74,0
528840,note_on,0,0,1,,,,,,,,,1,,,77,41
528900,note_on,0,0,1,,,,,,,,,1,,,75,42
528900,note_off,60,0,1,,,,,,,,,1,,,77,0
528900,control_change,180,0,3,,,,,,,64,0,3,,,,
528900,control_change,660,0,5,,,,,,,64,0,5,,,,
528900,control_change,900,0,4,,,,,,,64,0,4,,,,
528960,control_change,60,0,3,,,,,,,64,127,3,,,,
528960,note_on,0,0,5,,,,,,,,,5,,,51,45
528960,control_change,60,0,5,,,,,,,64,127,5,,,,
528960,control_change,60,0,4,,,,,,,64,127,4,,,,
528960,note_off,60,0,1,,,,,,,,,1,,,75,0
528960,note_on,0,0,1,,,,,,,,,1,,,75,43
528960,note_off,0,0,3,,,,,,,,,3,,,55,0
529150,note_off,190,0,1,,,,,,,,,1,,,75,0
529200,note_off,240,0,5,,,,,,,,,5,,,51,0
529200,note_on,240,0,3,,,,,,,,,3,,,55,46
529200,note_on,50,0,1,,,,,,,,,1,,,67,46
529390,note_off,190,0,1,,,,,,,,,1,,,67,0
529440,note_on,0,0,3,,,,,,,,,3,,,58,47
529440,note_on,50,0,1,,,,,,,,,1,,,67,47
529440,note_off,240,0,3,,,,,,,,,3,,,55,0
529630,note_off,190,0,1,,,,,,,,,1,,,67,0
529680,note_on,0,0,3,,,,,,,,,3,,,55,48
529680,note_on,50,0,1,,,,,,,,,1,,,67,48
529680,note_off,240,0,3,,,,,,,,,3,,,58,0
529860,control_change,660,0,5,,,,,,,64,0,5,,,,
529860,control_change,900,0,4,,,,,,,64,0,4,,,,
529860,control_change,180,0,3,,,,,,,64,0,3,,,,
529870,note_off,190,0,1,,,,,,,,,1,,,67,0
529920,note_off,0,0,3,,,,,,,,,3,,,55,0
529920,control_change,60,0,3,,,,,,,64,127,3,,,,
529920,note_on,2785,0,2,,,,,,,,,2,,,63,50
529920,control_change,60,0,5,,,,,,,64,127,5,,,,
529920,note_on,0,0,5,,,,,,,,,5,,,46,50
529920,control_change,60,0,4,,,,,,,64,127,4,,,,
529920,note_on,50,0,1,,,,,,,,,1,,,67,50
530160,note_on,240,0,3,,,,,,,,,3,,,51,47
530160,note_off,240,0,5,,,,,,,,,5,,,46,0
530240,note_on,0,0,1,,,,,,,,,1,,,68,46
530240,note_off,320,0,1,,,,,,,,,1,,,67,0
530280,note_on,40,0,1,,,,,,,,,1,,,67,48
530300,note_off,20,0,1,,,,,,,,,1,,,68,0
530320,note_on,20,0,1,,,,,,,,,1,,,65,49
530340,note_off,20,0,1,,,,,,,,,1,,,67,0
530360,note_on,20,0,1,,,,,,,,,1,,,67,50
530380,note_off,20,0,1,,,,,,,,,1,,,65,0
530400,note_on,20,0,1,,,,,,,,,1,,,70,52
530400,note_off,240,0,3,,,,,,,,,3,,,51,0
530400,note_on,0,0,3,,,,,,,,,3,,,55,53
530420,note_off,20,0,1,,,,,,,,,1,,,67,0
530640,note_off,240,0,3,,,,,,,,,3,,,55,0
530640,note_on,0,0,3,,,,,,,,,3,,,51,51
530820,control_change,180,0,3,,,,,,,64,0,3,,,,
530820,control_change,660,0,5,,,,,,,64,0,5,,,,
530820,control_change,900,0,4,,,,,,,64,0,4,,,,
530880,control_change,60,0,3,,,,,,,64,127,3,,,,
530880,note_on,0,0,2,,,,,,,,,2,,,62,48
530880,note_off,960,0,2,,,,,,,,,2,,,63,0
530880,control_change,60,0,5,,,,,,,64,127,5,,,,
530880,note_off,0,0,3,,,,,,,,,3,,,51,0
530880,control_change,60,0,4,,,,,,,64,127,4,,,,
530880,note_on,0,0,5,,,,,,,,,5,,,46,48
530975,note_off,555,0,1,,,,,,,,,1,,,70,0
531000,note_on,25,0,1,,,,,,,,,1,,,69,46
531095,note_off,95,0,1,,,,,,,,,1,,,69,0
531120,note_off,240,0,5,,,,,,,,,5,,,46,0
531120,note_on,240,0,3,,,,,,,,,3,,,50,45
531120,note_on,25,0,1,,,,,,,,,1,,,68,45
531215,note_off,95,0,1,,,,,,,,,1,,,68,0
531240,note_on,25,0,1,,,,,,,,,1,,,67,44
531335,note_off,95,0,1,,,,,,,,,1,,,67,0
531360,note_off,480,0,2,,,,,,,,,2,,,62,0
531360,note_on,0,0,3,,,,,,,,,3,,,53,42
531360,note_on,25,0,1,,,,,,,,,1,,,70,42
531360,note_off,240,0,3,,,,,,,,,3,,,50,0
531455,note_off,95,0,1,,,,,,,,,1,,,70,0
531480,note_on,25,0,1,,,,,,,,,1,,,68,41
531575,note_off,95,0,1,,,,,,,,,1,,,68,0
531600,note_on,25,0,1,,,,,,,,,1,,,67,39
531600,note_on,0,0,3,,,,,,,,,3,,,50,39
531600,note_off,240,0,3,,,,,,,,,3,,,53,0
531695,note_off,95,0,1,,,,,,,,,1,,,67,0
531720,note_on,25,0,1,,,,,,,,,1,,,65,38
531780,control_change,900,0,4,,,,,,,64,0,4,,,,
531780,control_change,660,0,5,,,,,,,64,0,5,,,,
531780,control_change,180,0,3,,,,,,,64,0,3,,,,
531792,note_off,12,0,3,,,,,,,,,3,,,50,0
531800,set_tempo,3800,1,0,,,,,,1428571,,,,,,,
531815,note_off,95,0,1,,,,,,,,,1,,,65,0
531840,control_change,60,0,5,,,,,,,64,127,5,,,,
531840,note_on,0,0,5,,,,,,,,,5,,,51,46
531840,note_on,0,0,5,,,,,,,,,5,,,39,46
531840,set_tempo,40,1,0,,,,,,1176470,,,,,,,
531840,control_change,60,0,4,,,,,,,64,127,4,,,,
531840,note_on,25,0,1,,,,,,,,,1,,,63,46
531840,control_change,48,0,3,,,,,,,64,127,3,,,,
532080,note_on,240,0,3,,,,,,,,,3,,,58,49
532291,note_off,211,0,3,,,,,,,,,3,,,58,0
532320,note_on,29,0,3,,,,,,,,,3,,,55,51
532531,note_off,211,0,3,,,,,,,,,3,,,55,0
532560,note_on,29,0,3,,,,,,,,,3,,,58,54
532680,note_on,840,0,1,,,,,,,,,1,,,64,55
532685,note_off,5,0,1,,,,,,,,,1,,,63,0
532740,control_change,900,0,4,,,,,,,64,0,4,,,,
532740,control_change,180,0,3,,,,,,,64,0,3,,,,
532740,control_change,900,0,5,,,,,,,64,0,5,,,,
532771,note_off,31,0,3,,,,,,,,,3,,,58,0
532800,control_change,29,0,3,,,,,,,64,127,3,,,,
532800,note_on,0,0,1,,,,,,,,,1,,,65,56
532800,control_change,60,0,4,,,,,,,64,127,4,,,,
532800,note_off,115,0,1,,,,,,,,,1,,,64,0
532800,control_change,60,0,5,,,,,,,64,127,5,,,,
532800,note_off,0,0,5,,,,,,,,,5,,,51,0
532800,note_on,0,0,5,,,,,,,,,5,,,34,56
532800,note_off,0,0,5,,,,,,,,,5,,,39,0
532800,note_on,0,0,5,,,,,,,,,5,,,46,56
533040,note_on,240,0,3,,,,,,,,,3,,,62,58
533251,note_off,211,0,3,,,,,,,,,3,,,62,0
533280,note_on,29,0,3,,,,,,,,,3,,,58,61
533491,note_off,211,0,3,,,,,,,,,3,,,58,0
533520,note_on,29,0,3,,,,,,,,,3,,,62,63
533640,note_on,840,0,1,,,,,,,,,1,,,66,65
533655,note_off,15,0,1,,,,,,,,,1,,,65,0
533700,control_change,180,0,3,,,,,,,64,0,3,,,,
533700,control_change,900,0,4,,,,,,,64,0,4,,,,
533700,control_change,900,0,5,,,,,,,64,0,5,,,,
533731,note_off,31,0,3,,,,,,,,,3,,,62,0
533760,note_on,0,0,1,,,,,,,,,1,,,67,67
533760,note_off,0,0,5,,,,,,,,,5,,,46,0
533760,note_on,0,0,5,,,,,,,,,5,,,39,67
533760,note_on,0,0,5,,,,,,,,,5,,,51,67
533760,note_off,60,0,5,,,,,,,,,5,,,34,0
533760,note_off,105,0,1,,,,,,,,,1,,,66,0
533880,note_on,0,0,1,,,,,,,,,1,,,68,60
533880,note_off,120,0,1,,,,,,,,,1,,,67,0
533920,note_on,40,0,1,,,,,,,,,1,,,67,59
533935,note_off,15,0,1,,,,,,,,,1,,,68,0
533960,note_on,25,0,1,,,,,,,,,1,,,65,58
533985,note_off,25,0,1,,,,,,,,,1,,,67,0
534000,note_on,15,0,1,,,,,,,,,1,,,67,57
534020,note_off,20,0,1,,,,,,,,,1,,,65,0
534120,note_off,100,0,1,,,,,,,,,1,,,67,0
534120,note_on,0,0,1,,,,,,,,,1,,,68,55
534240,note_off,120,0,1,,,,,,,,,1,,,68,0
534240,note_on,0,0,1,,,,,,,,,1,,,69,52
534320,note_off,80,0,1,,,,,,,,,1,,,69,0
534320,note_on,0,0,1,,,,,,,,,1,,,70,51
534400,note_on,0,0,1,,,,,,,,,1,,,71,47
534400,note_off,80,0,1,,,,,,,,,1,,,70,0
534480,note_on,0,0,1,,,,,,,,,1,,,72,45
534480,note_off,80,0,1,,,,,,,,,1,,,71,0
534540,note_on,0,0,1,,,,,,,,,1,,,73,44
534540,note_off,60,0,1,,,,,,,,,1,,,72,0
534600,note_on,0,0,1,,,,,,,,,1,,,74,42
534600,note_off,60,0,1,,,,,,,,,1,,,73,0
534660,note_on,0,0,1,,,,,,,,,1,,,75,41
534660,note_off,60,0,1,,,,,,,,,1,,,74,0
534680,set_tempo,2840,1,0,,,,,,1276595,,,,,,,
534720,set_tempo,40,1,0,,,,,,1276595,,,,,,,
534720,note_on,0,0,1,,,,,,,,,1,,,70,39
534720,note_off,960,0,5,,,,,,,,,5,,,39,0
534720,note_off,0,0,5,,,,,,,,,5,,,51,0
534720,note_off,60,0,1,,,,,,,,,1,,,75,0
534960,note_off,240,0,1,,,,,,,,,1,,,70,0
535200,set_tempo,480,1,0,,,,,,1200000,,,,,,,
535200,note_on,240,0,1,,,,,,,,,1,,,75,45
535320,note_on,0,0,1,,,,,,,,,1,,,74,47
535320,note_off,120,0,1,,,,,,,,,1,,,75,0
535440,note_on,0,0,1,,,,,,,,,1,,,73,48
535440,note_off,120,0,1,,,,,,,,,1,,,74,0
535560,note_off,120,0,1,,,,,,,,,1,,,73,0
535560,note_on,0,0,1,,,,,,,,,1,,,72,49
535680,note_off,120,0,1,,,,,,,,,1,,,72,0
535680,note_on,0,0,1,,,,,,,,,1,,,71,50
535680,note_on,1980,0,4,,,,,,,,,4,,,63,50
535775,note_off,95,0,4,,,,,,,,,4,,,63,0
535800,note_on,25,0,4,,,,,,,,,4,,,62,51
535895,note_off,95,0,4,,,,,,,,,4,,,62,0
535920,note_off,240,0,1,,,,,,,,,1,,,71,0
535920,note_on,25,0,4,,,,,,,,,4,,,61,52
536015,note_off,95,0,4,,,,,,,,,4,,,61,0
536040,note_on,25,0,4,,,,,,,,,4,,,60,54
536135,note_off,95,0,4,,,,,,,,,4,,,60,0
536160,note_on,25,0,4,,,,,,,,,4,,,59,55
536160,note_on,1440,0,5,,,,,,,,,5,,,55,55
536160,note_on,240,0,1,,,,,,,,,1,,,75,55
536280,note_off,120,0,1,,,,,,,,,1,,,75,0
536280,note_on,0,0,1,,,,,,,,,1,,,74,56
536400,note_off,240,0,4,,,,,,,,,4,,,59,0
536400,note_off,240,0,5,,,,,,,,,5,,,55,0
536400,note_off,120,0,1,,,,,,,,,1,,,74,0
536400,note_on,0,0,1,,,,,,,,,1,,,73,57
536520,note_off,120,0,1,,,,,,,,,1,,,73,0
536520,note_on,0,0,1,,,,,,,,,1,,,72,58
536640,note_on,240,0,4,,,,,,,,,4,,,63,59
536640,note_on,0,0,1,,,,,,,,,1,,,71,59
536640,note_off,120,0,1,,,,,,,,,1,,,72,0
536735,note_off,95,0,4,,,,,,,,,4,,,63,0
536760,note_on,25,0,4,,,,,,,,,4,,,62,61
536855,note_off,95,0,4,,,,,,,,,4,,,62,0
536880,note_off,240,0,1,,,,,,,,,1,,,71,0
536880,note_on,25,0,4,,,,,,,,,4,,,61,62
536975,note_off,95,0,4,,,,,,,,,4,,,61,0
537000,note_on,25,0,4,,,,,,,,,4,,,60,63
537095,note_off,95,0,4,,,,,,,,,4,,,60,0
537120,note_on,25,0,4,,,,,,,,,4,,,59,64
537120,note_on,720,0,5,,,,,,,,,5,,,55,64
537120,note_on,240,0,1,,,,,,,,,1,,,75,64
537240,note_on,0,0,1,,,,,,,,,1,,,74,65
537240,note_off,120,0,1,,,,,,,,,1,,,75,0
537360,note_off,240,0,5,,,,,,,,,5,,,55,0
537360,note_off,240,0,4,,,,,,,,,4,,,59,0
537360,note_on,0,0,1,,,,,,,,,1,,,73,66
537360,note_off,120,0,1,,,,,,,,,1,,,74,0
537480,note_on,0,0,1,,,,,,,,,1,,,72,68
537480,note_off,120,0,1,,,,,,,,,1,,,73,0
537510,set_tempo,2310,1,0,,,,,,1276595,,,,,,,
537600,note_on,0,0,1,,,,,,,,,1,,,71,68
537600,note_off,120,0,1,,,,,,,,,1,,,72,0
537600,note_on,240,0,4,,,,,,,,,4,,,63,68
537600,note_on,240,0,5,,,,,,,,,5,,,55,68
538080,note_off,480,0,1,,,,,,,,,1,,,71,0
538080,note_on,0,0,1,,,,,,,,,1,,,72,62
538140,note_on,0,0,1,,,,,,,,,1,,,71,60
538140,note_off,60,0,1,,,,,,,,,1,,,72,0
538200,note_on,0,0,1,,,,,,,,,1,,,69,59
538200,note_off,60,0,1,,,,,,,,,1,,,71,0
538260,note_on,0,0,1,,,,,,,,,1,,,71,57
538260,note_off,60,0,1,,,,,,,,,1,,,69,0
538320,note_off,60,0,1,,,,,,,,,1,,,71,0
538320,note_on,0,0,1,,,,,,,,,1,,,74,55
538500,note_off,180,0,1,,,,,,,,,1,,,74,0
538500,note_on,0,0,1,,,,,,,,,1,,,72,51
538520,set_tempo,1010,1,0,,,,,,1276595,,,,,,,
538560,note_off,960,0,4,,,,,,,,,4,,,63,0
538560,note_off,60,0,1,,,,,,,,,1,,,72,0
538560,note_on,0,0,5,,,,,,,,,5,,,56,49
538560,note_off,960,0,5,,,,,,,,,5,,,55,0
538560,set_tempo,40,1,0,,,,,,1276595,,,,,,,
538560,note_on,0,0,1,,,,,,,,,1,,,72,49
538560,note_on,0,0,4,,,,,,,,,4,,,63,49
538800,note_off,240,0,5,,,,,,,,,5,,,56,0
538800,note_off,240,0,4,,,,,,,,,4,,,63,0
538800,note_off,240,0,1,,,,,,,,,1,,,72,0
539040,set_tempo,480,1,0,,,,,,1224489,,,,,,,
539040,note_on,240,0,1,,,,,,,,,1,,,65,51
539135,note_off,95,0,1,,,,,,,,,1,,,65,0
539160,note_on,25,0,1,,,,,,,,,1,,,67,52
539255,note_off,95,0,1,,,,,,,,,1,,,67,0
539280,note_on,25,0,1,,,,,,,,,1,,,68,53
539375,note_off,95,0,1,,,,,,,,,1,,,68,0
539400,note_on,25,0,1,,,,,,,,,1,,,69,53
539480,set_tempo,440,1,0,,,,,,1276595,,,,,,,
539495,note_off,95,0,1,,,,,,,,,1,,,69,0
539520,note_on,25,0,1,,,,,,,,,1,,,70,54
539520,set_tempo,40,1,0,,,,,,1200000,,,,,,,
540000,note_on,1200,0,5,,,,,,,,,5,,,43,57
540000,note_on,1200,0,4,,,,,,,,,4,,,51,57
540080,note_off,560,0,1,,,,,,,,,1,,,70,0
540080,note_on,0,0,1,,,,,,,,,1,,,71,57
540145,note_off,65,0,1,,,,,,,,,1,,,71,0
540160,note_on,15,0,1,,,,,,,,,1,,,72,58
540225,note_off,65,0,1,,,,,,,,,1,,,72,0
540240,note_on,15,0,1,,,,,,,,,1,,,73,58
540305,note_off,65,0,1,,,,,,,,,1,,,73,0
540320,note_on,15,0,1,,,,,,,,,1,,,74,59
540385,note_off,65,0,1,,,,,,,,,1,,,74,0
540400,note_on,15,0,1,,,,,,,,,1,,,75,59
540420,note_off,420,0,4,,,,,,,,,4,,,51,0
540427,note_off,427,0,5,,,,,,,,,5,,,43,0
540440,set_tempo,920,1,0,,,,,,1224489,,,,,,,
540465,note_off,65,0,1,,,,,,,,,1,,,75,0
540480,note_on,53,0,5,,,,,,,,,5,,,46,61
540480,note_on,60,0,4,,,,,,,,,4,,,55,61
540480,note_on,15,0,1,,,,,,,,,1,,,63,61
540960,note_on,0,0,4,,,,,,,,,4,,,56,49
540960,note_off,480,0,4,,,,,,,,,4,,,55,0
541040,note_off,560,0,1,,,,,,,,,1,,,63,0
541040,note_on,0,0,1,,,,,,,,,1,,,65,47
541080,note_on,40,0,1,,,,,,,,,1,,,63,46
541100,note_off,20,0,1,,,,,,,,,1,,,65,0
541120,note_on,20,0,1,,,,,,,,,1,,,62,45
541140,note_off,20,0,1,,,,,,,,,1,,,63,0
541160,note_on,20,0,1,,,,,,,,,1,,,63,44
541180,note_off,20,0,1,,,,,,,,,1,,,62,0
541200,note_on,20,0,1,,,,,,,,,1,,,67,43
541200,note_on,0,0,1,,,,,,,,,1,,,62,43
541220,note_off,20,0,1,,,,,,,,,1,,,63,0
541320,note_off,100,0,1,,,,,,,,,1,,,67,0
541320,note_on,0,0,1,,,,,,,,,1,,,65,40
541387,note_off,427,0,4,,,,,,,,,4,,,56,0
541387,note_off,907,0,5,,,,,,,,,5,,,46,0
541400,set_tempo,960,1,0,,,,,,1276595,,,,,,,
541402,note_off,82,0,1,,,,,,,,,1,,,65,0
541410,note_off,8,0,1,,,,,,,,,1,,,62,0
541440,note_on,30,0,1,,,,,,,,,1,,,63,40
541440,control_change,7709,0,3,,,,,,,64,127,3,,,,
541440,set_tempo,40,1,0,,,,,,1224489,,,,,,,
541440,control_change,53,0,4,,,,,,,64,127,4,,,,
541440,note_on,0,0,5,,,,,,,,,5,,,51,40
541440,control_change,53,0,5,,,,,,,64,127,5,,,,
541680,note_on,240,0,3,,,,,,,,,3,,,55,41
541680,note_off,240,0,5,,,,,,,,,5,,,51,0
541920,note_off,480,0,1,,,,,,,,,1,,,63,0
541920,note_off,240,0,3,,,,,,,,,3,,,55,0
541920,note_on,0,0,3,,,,,,,,,3,,,58,42
542160,note_on,0,0,3,,,,,,,,,3,,,55,43
542160,note_off,240,0,3,,,,,,,,,3,,,58,0
542340,control_change,900,0,4,,,,,,,64,0,4,,,,
542340,control_change,660,0,5,,,,,,,64,0,5,,,,
542340,control_change,180,0,3,,,,,,,64,0,3,,,,
542400,control_change,60,0,4,,,,,,,64,127,4,,,,
542400,control_change,60,0,3,,,,,,,64,127,3,,,,
542400,control_change,60,0,5,,,,,,,64,127,5,,,,
542400,note_on,0,0,5,,,,,,,,,5,,,51,45
542400,note_off,0,0,3,,,,,,,,,3,,,55,0
542400,note_on,480,0,1,,,,,,,,,1,,,72,45
542640,note_off,240,0,5,,,,,,,,,5,,,51,0
542640,note_on,240,0,3,,,,,,,,,3,,,56,46
542880,note_off,240,0,3,,,,,,,,,3,,,56,0
542880,note_on,0,0,3,,,,,,,,,3,,,60,47
542960,note_on,560,0,1,,,,,,,,,1,,,74,45
542970,note_off,10,0,1,,,,,,,,,1,,,72,0
543000,note_on,30,0,1,,,,,,,,,1,,,72,46
543020,note_off,20,0,1,,,,,,,,,1,,,74,0
543040,note_on,20,0,1,,,,,,,,,1,,,71,47
543060,note_off,20,0,1,,,,,,,,,1,,,72,0
543080,note_on,20,0,1,,,,,,,,,1,,,72,48
543100,note_off,20,0,1,,,,,,,,,1,,,71,0
543120,note_off,240,0,3,,,,,,,,,3,,,60,0
543120,note_on,20,0,1,,,,,,,,,1,,,75,49
543120,note_on,0,0,3,,,,,,,,,3,,,56,48
543140,note_off,20,0,1,,,,,,,,,1,,,72,0
543240,note_on,0,0,1,,,,,,,,,1,,,72,49
543240,note_off,100,0,1,,,,,,,,,1,,,75,0
543300,control_change,660,0,5,,,,,,,64,0,5,,,,
543300,control_change,900,0,4,,,,,,,64,0,4,,,,
543300,control_change,180,0,3,,,,,,,64,0,3,,,,
543312,note_off,12,0,3,,,,,,,,,3,,,56,0
543320,set_tempo,1880,1,0,,,,,,1276595,,,,,,,
543336,note_off,96,0,1,,,,,,,,,1,,,72,0
543360,control_change,60,0,5,,,,,,,64,127,5,,,,
543360,note_on,0,0,5,,,,,,,,,5,,,51,49
543360,note_on,24,0,1,,,,,,,,,1,,,70,49
543360,set_tempo,40,1,0,,,,,,1224489,,,,,,,
543360,control_change,60,0,4,,,,,,,64,127,4,,,,
543360,control_change,48,0,3,,,,,,,64,127,3,,,,
543480,note_on,0,0,1,,,,,,,,,1,,,79,50
543480,note_off,120,0,1,,,,,,,,,1,,,70,0
543600,note_on,0,0,1,,,,,,,,,1,,,77,50
543600,note_off,120,0,1,,,,,,,,,1,,,79,0
543600,note_off,240,0,5,,,,,,,,,5,,,51,0
543600,note_on,240,0,3,,,,,,,,,3,,,55,50
543720,note_on,0,0,1,,,,,,,,,1,,,75,51
543720,note_off,120,0,1,,,,,,,,,1,,,77,0
543840,note_off,240,0,3,,,,,,,,,3,,,55,0
543840,note_off,120,0,1,,,,,,,,,1,,,75,0
543840,note_on,0,0,1,,,,,,,,,1,,,74,52
543840,note_on,0,0,3,,,,,,,,,3,,,58,52
543960,note_off,120,0,1,,,,,,,,,1,,,74,0
543960,note_on,0,0,1,,,,,,,,,1,,,75,52
544080,note_on,0,0,3,,,,,,,,,3,,,55,53
544080,note_off,240,0,3,,,,,,,,,3,,,58,0
544080,note_off,120,0,1,,,,,,,,,1,,,75,0
544080,note_on,0,0,1,,,,,,,,,1,,,77,53
544200,note_off,120,0,1,,,,,,,,,1,,,77,0
544200,note_on,0,0,1,,,,,,,,,1,,,75,53
544260,control_change,180,0,3,,,,,,,64,0,3,,,,
544260,control_change,900,0,4,,,,,,,64,0,4,,,,
544260,control_change,660,0,5,,,,,,,64,0,5,,,,
544280,set_tempo,920,1,0,,,,,,1276595,,,,,,,
544296,note_off,96,0,1,,,,,,,,,1,,,75,0
544320,control_change,60,0,5,,,,,,,64,127,5,,,,
544320,control_change,60,0,4,,,,,,,64,127,4,,,,
544320,note_on,0,0,5,,,,,,,,,5,,,51,54
544320,note_off,0,0,3,,,,,,,,,3,,,55,0
544320,control_change,60,0,3,,,,,,,64,127,3,,,,
544320,set_tempo,40,1,0,,,,,,1224489,,,,,,,
544320,note_on,24,0,1,,,,,,,,,1,,,74,54
544440,note_on,0,0,1,,,,,,,,,1,,,72,54
544440,note_off,120,0,1,,,,,,,,,1,,,74,0
544560,note_on,240,0,3,,,,,,,,,3,,,56,55
544560,note_off,240,0,5,,,,,,,,,5,,,51,0
544800,note_off,240,0,3,,,,,,,,,3,,,56,0
544800,note_on,0,0,3,,,,,,,,,3,,,60,56
544880,note_on,0,0,1,,,,,,,,,1,,,74,53
544880,note_off,440,0,1,,,,,,,,,1,,,72,0
544920,note_on,40,0,1,,,,,,,,,1,,,72,54
544940,note_off,20,0,1,,,,,,,,,1,,,74,0
544960,note_on,20,0,1,,,,,,,,,1,,,71,55
544980,note_off,20,0,1,,,,,,,,,1,,,72,0
545000,note_on,20,0,1,,,,,,,,,1,,,72,57
545020,note_off,20,0,1,,,,,,,,,1,,,71,0
545040,note_on,20,0,1,,,,,,,,,1,,,75,58
545040,note_on,0,0,3,,,,,,,,,3,,,56,57
545040,note_off,240,0,3,,,,,,,,,3,,,60,0
545060,note_off,20,0,1,,,,,,,,,1,,,72,0
545160,note_off,100,0,1,,,,,,,,,1,,,75,0
545160,note_on,0,0,1,,,,,,,,,1,,,72,58
545220,control_change,180,0,3,,,,,,,64,0,3,,,,
545220,control_change,900,0,4,,,,,,,64,0,4,,,,
545220,control_change,660,0,5,,,,,,,64,0,5,,,,
545232,note_off,12,0,3,,,,,,,,,3,,,56,0
545240,set_tempo,920,1,0,,,,,,1333333,,,,,,,
545256,note_off,96,0,1,,,,,,,,,1,,,72,0
545280,note_on,24,0,1,,,,,,,,,1,,,70,71
545280,set_tempo,40,1,0,,,,,,1276595,,,,,,,
545280,note_on,0,0,3,,,,,,,,,3,,,55,71
545280,note_on,60,0,4,,,,,,,,,4,,,51,71
545280,note_on,48,0,3,,,,,,,,,3,,,58,71
545400,note_on,0,0,1,,,,,,,,,1,,,79,69
545400,note_off,120,0,1,,,,,,,,,1,,,70,0
545520,note_off,120,0,1,,,,,,,,,1,,,79,0
545520,note_on,0,0,1,,,,,,,,,1,,,77,67
545640,note_on,0,0,1,,,,,,,,,1,,,75,65
545640,note_off,120,0,1,,,,,,,,,1,,,77,0
545760,note_off,480,0,4,,,,,,,,,4,,,51,0
545760,note_off,480,0,3,,,,,,,,,3,,,55,0
545760,note_off,120,0,1,,,,,,,,,1,,,75,0
545760,note_on,0,0,1,,,,,,,,,1,,,74,63
545760,note_off,0,0,3,,,,,,,,,3,,,58,0
545880,note_off,120,0,1,,,,,,,,,1,,,74,0
545880,note_on,0,0,1,,,,,,,,,1,,,75,61
546000,note_off,120,0,1,,,,,,,,,1,,,75,0
546000,note_on,0,0,1,,,,,,,,,1,,,77,59
546120,note_off,120,0,1,,,,,,,,,1,,,77,0
546120,note_on,0,0,1,,,,,,,,,1,,,75,56
546200,set_tempo,920,1,0,,,,,,1333333,,,,,,,
546216,note_off,96,0,1,,,,,,,,,1,,,75,0
546240,note_on,480,0,3,,,,,,,,,3,,,48,77
546240,set_tempo,40,1,0,,,,,,1276595,,,,,,,
546240,note_on,0,0,3,,,,,,,,,3,,,53,77
546240,note_on,480,0,4,,,,,,,,,4,,,44,77
546360,note_on,144,0,1,,,,,,,,,1,,,75,74
546480,note_on,0,0,1,,,,,,,,,1,,,74,71
546480,note_off,120,0,1,,,,,,,,,1,,,75,0
546600,note_off,120,0,1,,,,,,,,,1,,,74,0
546600,note_on,0,0,1,,,,,,,,,1,,,72,68
546720,note_off,120,0,1,,,,,,,,,1,,,72,0
546720,note_on,0,0,1,,,,,,,,,1,,,71,65
546720,note_off,480,0,3,,,,,,,,,3,,,53,0
546720,note_off,0,0,3,,,,,,,,,3,,,48,0
546720,note_off,480,0,4,,,,,,,,,4,,,44,0
546840,note_off,120,0,1,,,,,,,,,1,,,71,0
546840,note_on,0,0,1,,,,,,,,,1,,,72,62
546960,note_off,120,0,1,,,,,,,,,1,,,72,0
546960,note_on,0,0,1,,,,,,,,,1,,,74,59
547080,note_off,120,0,1,,,,,,,,,1,,,74,0
547080,note_on,0,0,1,,,,,,,,,1,,,72,56
547160,set_tempo,920,1,0,,,,,,1333333,,,,,,,
547176,note_off,96,0,1,,,,,,,,,1,,,72,0
547200,note_on,1980,0,5,,,,,,,,,5,,,46,67
547200,note_on,480,0,4,,,,,,,,,4,,,55,67
547200,set_tempo,40,1,0,,,,,,638297,,,,,,,
547440,note_on,264,0,1,,,,,,,,,1,,,72,60
547500,note_on,0,0,1,,,,,,,,,1,,,70,61
547500,note_off,60,0,1,,,,,,,,,1,,,72,0
547560,note_off,60,0,1,,,,,,,,,1,,,70,0
547560,note_on,0,0,1,,,,,,,,,1,,,69,63
547620,note_off,60,0,1,,,,,,,,,1,,,69,0
547620,note_on,0,0,1,,,,,,,,,1,,,70,65
547620,note_off,420,0,4,,,,,,,,,4,,,55,0
547627,note_off,427,0,5,,,,,,,,,5,,,46,0
547680,note_off,60,0,1,,,,,,,,,1,,,70,0
547680,note_on,0,0,1,,,,,,,,,1,,,75,67
547920,note_off,240,0,1,,,,,,,,,1,,,75,0
547920,note_on,0,0,1,,,,,,,,,1,,,70,63
548112,note_off,192,0,1,,,,,,,,,1,,,70,0
548120,set_tempo,920,1,0,,,,,,652173,,,,,,,
548160,note_on,533,0,5,,,,,,,,,5,,,46,61
548160,note_on,540,0,4,,,,,,,,,4,,,51,61
548160,set_tempo,40,1,0,,,,,,638297,,,,,,,
548400,note_on,288,0,1,,,,,,,,,1,,,68,53
548460,note_on,0,0,1,,,,,,,,,1,,,67,55
548460,note_off,60,0,1,,,,,,,,,1,,,68,0
548520,note_off,60,0,1,,,,,,,,,1,,,67,0
548520,note_on,0,0,1,,,,,,,,,1,,,66,56
548580,note_off,60,0,1,,,,,,,,,1,,,66,0
548580,note_on,0,0,1,,,,,,,,,1,,,67,57
548587,note_off,427,0,5,,,,,,,,,5,,,46,0
548587,note_off,427,0,4,,,,,,,,,4,,,51,0
548640,note_on,0,0,1,,,,,,,,,1,,,70,58
548640,note_off,60,0,1,,,,,,,,,1,,,67,0
548880,note_on,0,0,1,,,,,,,,,1,,,67,57
548880,note_off,240,0,1,,,,,,,,,1,,,70,0
549072,note_off,192,0,1,,,,,,,,,1,,,67,0
549080,set_tempo,920,1,0,,,,,,652173,,,,,,,
549120,note_on,533,0,5,,,,,,,,,5,,,46,55
549120,set_tempo,40,1,0,,,,,,638297,,,,,,,
549120,note_on,533,0,4,,,,,,,,,4,,,53,55
549360,note_on,288,0,1,,,,,,,,,1,,,70,48
549420,note_on,0,0,1,,,,,,,,,1,,,68,50
549420,note_off,60,0,1,,,,,,,,,1,,,70,0
549480,note_on,0,0,1,,,,,,,,,1,,,67,51
549480,note_off,60,0,1,,,,,,,,,1,,,68,0
549532,note_off,412,0,5,,,,,,,,,5,,,46,0
549540,note_on,0,0,1,,,,,,,,,1,,,68,53
549540,note_off,60,0,1,,,,,,,,,1,,,67,0
549547,note_off,427,0,4,,,,,,,,,4,,,53,0
549600,note_on,0,0,1,,,,,,,,,1,,,72,55
549600,note_off,60,0,1,,,,,,,,,1,,,68,0
549840,note_on,0,0,1,,,,,,,,,1,,,68,51
549840,note_off,240,0,1,,,,,,,,,1,,,72,0
550040,set_tempo,920,1,0,,,,,,652173,,,,,,,
550080,note_off,240,0,1,,,,,,,,,1,,,68,0
550080,set_tempo,40,1,0,,,,,,638297,,,,,,,
550080,note_on,533,0,4,,,,,,,,,4,,,56,49
550080,note_on,548,0,5,,,,,,,,,5,,,46,49
550320,note_on,240,0,1,,,,,,,,,1,,,63,43
550380,note_on,0,0,1,,,,,,,,,1,,,62,44
550380,note_off,60,0,1,,,,,,,,,1,,,63,0
550440,note_on,0,0,1,,,,,,,,,1,,,60,45
550440,note_off,60,0,1,,,,,,,,,1,,,62,0
550500,note_off,60,0,1,,,,,,,,,1,,,60,0
550500,note_off,420,0,4,,,,,,,,,4,,,56,0
550500,note_off,420,0,5,,,,,,,,,5,,,46,0
550500,note_on,0,0,1,,,,,,,,,1,,,62,47
550560,note_off,60,0,1,,,,,,,,,1,,,62,0
550560,note_on,0,0,1,,,,,,,,,1,,,65,48
550800,note_off,240,0,1,,,,,,,,,1,,,65,0
550800,note_on,0,0,1,,,,,,,,,1,,,62,44
550992,note_off,192,0,1,,,,,,,,,1,,,62,0
551000,set_tempo,920,1,0,,,,,,674157,,,,,,,
551040,note_on,48,0,1,,,,,,,,,1,,,63,50
551040,control_change,4320,0,3,,,,,,,64,127,3,,,,
551040,set_tempo,40,1,0,,,,,,1224489,,,,,,,
551040,control_change,540,0,5,,,,,,,64,127,5,,,,
551040,note_on,0,0,5,,,,,,,,,5,,,51,50
551040,control_change,540,0,4,,,,,,,64,127,4,,,,
551280,note_off,240,0,5,,,,,,,,,5,,,51,0
551280,note_on,240,0,3,,,,,,,,,3,,,55,51
551520,note_on,0,0,3,,,,,,,,,3,,,58,53
551520,note_off,240,0,3,,,,,,,,,3,,,55,0
551520,note_off,480,0,1,,,,,,,,,1,,,63,0
551640,note_on,120,0,1,,,,,,,,,1,,,75,54
551735,note_off,95,0,1,,,,,,,,,1,,,75,0
551760,note_on,25,0,1,,,,,,,,,1,,,74,55
551760,note_off,240,0,3,,,,,,,,,3,,,58,0
551760,note_on,0,0,3,,,,,,,,,3,,,55,55
551855,note_off,95,0,1,,,,,,,,,1,,,74,0
551880,note_on,25,0,1,,,,,,,,,1,,,73,56
551940,control_change,900,0,4,,,,,,,64,0,4,,,,
551940,control_change,180,0,3,,,,,,,64,0,3,,,,
551940,control_change,660,0,5,,,,,,,64,0,5,,,,
551960,set_tempo,920,1,0,,,,,,1276595,,,,,,,
551975,note_off,95,0,1,,,,,,,,,1,,,73,0
552000,control_change,60,0,3,,,,,,,64,127,3,,,,
552000,control_change,60,0,4,,,,,,,64,127,4,,,,
552000,note_off,0,0,3,,,,,,,,,3,,,55,0
552000,note_on,25,0,1,,,,,,,,,1,,,71,57
552000,note_on,0,0,5,,,,,,,,,5,,,51,57
552000,set_tempo,40,1,0,,,,,,1224489,,,,,,,
552000,control_change,60,0,5,,,,,,,64,127,5,,,,
552240,note_off,240,0,5,,,,,,,,,5,,,51,0
552240,note_off,240,0,1,,,,,,,,,1,,,71,0
552240,note_on,0,0,1,,,,,,,,,1,,,72,59
552240,note_on,240,0,3,,,,,,,,,3,,,56,59
552480,note_off,240,0,3,,,,,,,,,3,,,56,0
552480,note_on,0,0,3,,,,,,,,,3,,,60,60
552600,note_on,0,0,1,,,,,,,,,1,,,75,55
552600,note_off,360,0,1,,,,,,,,,1,,,72,0
552660,note_off,60,0,1,,,,,,,,,1,,,75,0
552660,note_on,0,0,1,,,,,,,,,1,,,74,57
552720,note_off,240,0,3,,,,,,,,,3,,,60,0
552720,note_off,60,0,1,,,,,,,,,1,,,74,0
552720,note_on,0,0,1,,,,,,,,,1,,,77,59
552720,note_on,0,0,3,,,,,,,,,3,,,56,62
552780,note_off,60,0,1,,,,,,,,,1,,,77,0
552780,note_on,0,0,1,,,,,,,,,1,,,75,61
552840,note_on,0,0,1,,,,,,,,,1,,,74,62
552840,note_off,60,0,1,,,,,,,,,1,,,75,0
552900,note_on,0,0,1,,,,,,,,,1,,,72,64
552900,note_off,60,0,1,,,,,,,,,1,,,74,0
552900,control_change,660,0,5,,,,,,,64,0,5,,,,
552900,control_change,180,0,3,,,,,,,64,0,3,,,,
552900,control_change,900,0,4,,,,,,,64,0,4,,,,
552912,note_off,12,0,3,,,,,,,,,3,,,56,0
552920,set_tempo,920,1,0,,,,,,1276595,,,,,,,
552960,note_on,0,0,5,,,,,,,,,5,,,51,64
552960,note_off,60,0,1,,,,,,,,,1,,,72,0
552960,control_change,60,0,4,,,,,,,64,127,4,,,,
552960,control_change,48,0,3,,,,,,,64,127,3,,,,
552960,set_tempo,40,1,0,,,,,,1276595,,,,,,,
552960,control_change,60,0,5,,,,,,,64,127,5,,,,
552960,note_on,0,0,1,,,,,,,,,1,,,70,66
553080,note_off,120,0,1,,,,,,,,,1,,,70,0
553080,note_on,0,0,1,,,,,,,,,1,,,79,65
553200,note_off,120,0,1,,,,,,,,,1,,,79,0
553200,note_on,0,0,1,,,,,,,,,1,,,77,66
553200,note_off,240,0,5,,,,,,,,,5,,,51,0
553200,note_on,240,0,3,,,,,,,,,3,,,55,66
553320,note_off,120,0,1,,,,,,,,,1,,,77,0
553320,note_on,0,0,1,,,,,,,,,1,,,75,67
553440,note_off,240,0,3,,,,,,,,,3,,,55,0
553440,note_on,0,0,3,,,,,,,,,3,,,58,68
553440,note_off,120,0,1,,,,,,,,,1,,,75,0
553440,note_on,0,0,1,,,,,,,,,1,,,74,68
553560,note_on,0,0,1,,,,,,,,,1,,,75,69
553560,note_off,120,0,1,,,,,,,,,1,,,74,0
553680,note_off,240,0,3,,,,,,,,,3,,,58,0
553680,note_on,0,0,1,,,,,,,,,1,,,77,69
553680,note_off,120,0,1,,,,,,,,,1,,,75,0
553680,note_on,0,0,3,,,,,,,,,3,,,55,69
553800,note_off,120,0,1,,,,,,,,,1,,,77,0
553800,note_on,0,0,1,,,,,,,,,1,,,75,70
553860,control_change,180,0,3,,,,,,,64,0,3,,,,
553860,control_change,660,0,5,,,,,,,64,0,5,,,,
553860,control_change,900,0,4,,,,,,,64,0,4,,,,
553880,set_tempo,920,1,0,,,,,,1333333,,,,,,,
553896,note_off,96,0,1,,,,,,,,,1,,,75,0
553920,note_on,0,0,5,,,,,,,,,5,,,51,73
553920,control_change,60,0,4,,,,,,,64,127,4,,,,
553920,note_off,0,0,3,,,,,,,,,3,,,55,0
553920,note_on,24,0,1,,,,,,,,,1,,,74,73
553920,set_tempo,40,1,0,,,,,,1224489,,,,,,,
553920,control_change,60,0,3,,,,,,,64,127,3,,,,
553920,control_change,60,0,5,,,,,,,64,127,5,,,,
554100,note_on,0,0,1,,,,,,,,,1,,,72,75
554100,note_off,180,0,1,,,,,,,,,1,,,74,0
554160,note_on,240,0,3,,,,,,,,,3,,,56,76
554160,note_off,240,0,5,,,,,,,,,5,,,51,0
554160,set_tempo,240,1,0,,,,,,1276595,,,,,,,
554160,note_on,0,0,1,,,,,,,,,1,,,84,76
554160,note_off,60,0,1,,,,,,,,,1,,,72,0
554400,note_off,240,0,3,,,,,,,,,3,,,56,0
554400,note_on,0,0,3,,,,,,,,,3,,,60,72
554450,note_off,290,0,1,,,,,,,,,1,,,84,0
554460,note_on,10,0,1,,,,,,,,,1,,,82,69
554510,note_off,50,0,1,,,,,,,,,1,,,82,0
554520,note_on,10,0,1,,,,,,,,,1,,,80,67
554570,note_off,50,0,1,,,,,,,,,1,,,80,0
554580,note_on,10,0,1,,,,,,,,,1,,,79,64
554630,note_off,50,0,1,,,,,,,,,1,,,79,0
554640,note_on,10,0,1,,,,,,,,,1,,,77,61
554640,note_on,0,0,3,,,,,,,,,3,,,56,61
554640,note_off,240,0,3,,,,,,,,,3,,,60,0
554690,note_off,50,0,1,,,,,,,,,1,,,77,0
554700,note_on,10,0,1,,,,,,,,,1,,,75,58
554750,note_off,50,0,1,,,,,,,,,1,,,75,0
554760,note_on,10,0,1,,,,,,,,,1,,,74,56
554810,note_off,50,0,1,,,,,,,,,1,,,74,0
554820,control_change,180,0,3,,,,,,,64,0,3,,,,
554820,control_change,660,0,5,,,,,,,64,0,5,,,,
554820,control_change,900,0,4,,,,,,,64,0,4,,,,
554820,note_on,10,0,1,,,,,,,,,1,,,72,53
554832,note_off,12,0,3,,,,,,,,,3,,,56,0
554840,set_tempo,680,1,0,,,,,,1333333,,,,,,,
554870,note_off,50,0,1,,,,,,,,,1,,,72,0
554880,note_on,60,0,5,,,,,,,,,5,,,51,50
554880,set_tempo,40,1,0,,,,,,1276595,,,,,,,
554880,note_on,60,0,4,,,,,,,,,4,,,55,50
554880,note_on,10,0,1,,,,,,,,,1,,,70,50
554975,note_off,95,0,1,,,,,,,,,1,,,70,0
555000,note_on,25,0,1,,,,,,,,,1,,,79,51
555120,note_on,0,0,1,,,,,,,,,1,,,77,53
555120,note_off,120,0,1,,,,,,,,,1,,,79,0
555240,note_on,0,0,1,,,,,,,,,1,,,75,54
555240,note_off,120,0,1,,,,,,,,,1,,,77,0
555360,note_off,480,0,4,,,,,,,,,4,,,55,0
555360,note_on,0,0,1,,,,,,,,,1,,,74,56
555360,note_off,480,0,5,,,,,,,,,5,,,51,0
555360,note_off,120,0,1,,,,,,,,,1,,,75,0
555480,note_on,0,0,1,,,,,,,,,1,,,75,57
555480,note_off,120,0,1,,,,,,,,,1,,,74,0
555600,note_off,120,0,1,,,,,,,,,1,,,75,0
555600,note_on,0,0,1,,,,,,,,,1,,,77,59
555720,note_on,0,0,1,,,,,,,,,1,,,75,60
555720,note_off,120,0,1,,,,,,,,,1,,,77,0
555800,set_tempo,920,1,0,,,,,,1333333,,,,,,,
555816,note_off,96,0,1,,,,,,,,,1,,,75,0
555840,note_on,480,0,5,,,,,,,,,5,,,53,62
555840,note_on,0,0,4,,,,,,,,,4,,,56,62
555840,set_tempo,40,1,0,,,,,,1276595,,,,,,,
555840,note_on,480,0,4,,,,,,,,,4,,,62,62
555960,note_on,144,0,1,,,,,,,,,1,,,80,64
556080,note_off,120,0,1,,,,,,,,,1,,,80,0
556080,note_on,0,0,1,,,,,,,,,1,,,79,65
556200,note_on,0,0,1,,,,,,,,,1,,,77,67
556200,note_off,120,0,1,,,,,,,,,1,,,79,0
556320,note_on,0,0,1,,,,,,,,,1,,,76,68
556320,note_off,120,0,1,,,,,,,,,1,,,77,0
556320,note_off,0,0,4,,,,,,,,,4,,,62,0
556320,note_off,480,0,4,,,,,,,,,4,,,56,0
556320,note_off,480,0,5,,,,,,,,,5,,,53,0
556440,note_off,120,0,1,,,,,,,,,1,,,76,0
556440,note_on,0,0,1,,,,,,,,,1,,,77,70
556560,note_on,0,0,1,,,,,,,,,1,,,79,71
556560,note_off,120,0,1,,,,,,,,,1,,,77,0
556680,note_on,0,0,1,,,,,,,,,1,,,77,73
556680,note_off,120,0,1,,,,,,,,,1,,,79,0
556760,set_tempo,920,1,0,,,,,,1578947,,,,,,,
556776,note_off,96,0,1,,,,,,,,,1,,,77,0
556800,note_on,24,0,1,,,,,,,,,1,,,82,79
556800,set_tempo,40,1,0,,,,,,600000,,,,,,,
557280,control_change,960,0,4,,,,,,,64,127,4,,,,
557280,control_change,2448,0,3,,,,,,,64,127,3,,,,
557280,note_on,0,0,4,,,,,,,,,4,,,55,77
557280,control_change,960,0,5,,,,,,,64,127,5,,,,
557760,note_on,480,0,3,,,,,,,,,3,,,58,74
557760,note_off,480,0,4,,,,,,,,,4,,,55,0
558240,set_tempo,1440,1,0,,,,,,240000,,,,,,,
558240,note_off,480,0,3,,,,,,,,,3,,,58,0
558240,note_on,0,0,3,,,,,,,,,3,,,63,72
558660,control_change,420,0,3,,,,,,,64,0,3,,,,
558660,control_change,1380,0,5,,,,,,,64,0,5,,,,
558660,control_change,900,0,4,,,,,,,64,0,4,,,,
558720,note_off,60,0,3,,,,,,,,,3,,,63,0
558780,note_on,1980,0,1,,,,,,,,,1,,,80,75
558780,set_tempo,540,1,0,,,,,,625000,,,,,,,
558795,note_off,15,0,1,,,,,,,,,1,,,82,0
558840,set_tempo,60,1,0,,,,,,612244,,,,,,,
558840,note_on,45,0,1,,,,,,,,,1,,,79,75
558900,note_off,60,0,1,,,,,,,,,1,,,80,0
558900,note_on,0,0,1,,,,,,,,,1,,,77,74
558960,note_off,60,0,1,,,,,,,,,1,,,79,0
558960,note_on,0,0,1,,,,,,,,,1,,,75,74
559020,note_on,0,0,1,,,,,,,,,1,,,74,73
559020,note_off,60,0,1,,,,,,,,,1,,,77,0
559080,note_on,0,0,1,,,,,,,,,1,,,72,73
559080,note_off,60,0,1,,,,,,,,,1,,,75,0
559140,note_off,60,0,1,,,,,,,,,1,,,74,0
559140,note_on,0,0,1,,,,,,,,,1,,,70,72
559200,note_off,60,0,1,,,,,,,,,1,,,72,0
559200,note_on,0,0,1,,,,,,,,,1,,,68,71
559260,note_off,60,0,1,,,,,,,,,1,,,70,0
559260,note_on,0,0,1,,,,,,,,,1,,,67,71
559320,note_off,60,0,1,,,,,,,,,1,,,68,0
559320,note_on,0,0,1,,,,,,,,,1,,,65,70
559380,note_off,60,0,1,,,,,,,,,1,,,67,0
559380,note_on,0,0,1,,,,,,,,,1,,,63,70
559440,note_off,60,0,1,,,,,,,,,1,,,65,0
559440,note_on,0,0,1,,,,,,,,,1,,,62,69
559500,note_on,0,0,1,,,,,,,,,1,,,60,69
559500,note_off,60,0,1,,,,,,,,,1,,,63,0
559560,note_on,0,0,1,,,,,,,,,1,,,58,68
559560,note_off,60,0,1,,,,,,,,,1,,,62,0
559620,note_on,0,0,1,,,,,,,,,1,,,56,67
559620,note_off,60,0,1,,,,,,,,,1,,,60,0
559640,set_tempo,800,1,0,,,,,,638297,,,,,,,
559680,note_off,60,0,1,,,,,,,,,1,,,58,0
559680,control_change,1020,0,4,,,,,,,64,127,4,,,,
559680,note_on,0,0,1,,,,,,,,,1,,,55,65
559680,control_change,960,0,3,,,,,,,64,127,3,,,,
559680,control_change,1020,0,5,,,,,,,64,127,5,,,,
559680,set_tempo,40,1,0,,,,,,638297,,,,,,,
559740,note_off,60,0,1,,,,,,,,,1,,,56,0
559920,note_on,240,0,5,,,,,,,,,5,,,36,64
560160,note_on,480,0,3,,,,,,,,,3,,,39,63
560160,note_off,240,0,5,,,,,,,,,5,,,36,0
560400,note_on,0,0,3,,,,,,,,,3,,,48,61
560400,note_off,240,0,3,,,,,,,,,3,,,39,0
560580,note_off,0,0,3,,,,,,,,,3,,,48,0
560580,control_change,420,0,5,,,,,,,64,0,5,,,,
560580,control_change,180,0,3,,,,,,,64,0,3,,,,
560580,control_change,900,0,4,,,,,,,64,0,4,,,,
560587,note_off,847,0,1,,,,,,,,,1,,,55,0
560640,control_change,60,0,4,,,,,,,64,127,4,,,,
560640,control_change,60,0,5,,,,,,,64,127,5,,,,
560640,note_on,53,0,1,,,,,,,,,1,,,53,60
560640,control_change,60,0,3,,,,,,,64,127,3,,,,
560880,note_on,240,0,5,,,,,,,,,5,,,32,59
561120,note_off,240,0,5,,,,,,,,,5,,,32,0
561120,note_on,480,0,3,,,,,,,,,3,,,36,57
561360,note_on,0,0,3,,,,,,,,,3,,,41,56
561360,note_off,240,0,3,,,,,,,,,3,,,36,0
561532,note_off,892,0,1,,,,,,,,,1,,,53,0
561540,control_change,180,0,3,,,,,,,64,0,3,,,,
561540,control_change,420,0,5,,,,,,,64,0,5,,,,
561540,control_change,900,0,4,,,,,,,64,0,4,,,,
561547,note_off,7,0,3,,,,,,,,,3,,,41,0
561600,control_change,60,0,4,,,,,,,64,127,4,,,,
561600,control_change,60,0,5,,,,,,,64,127,5,,,,
561600,note_on,68,0,1,,,,,,,,,1,,,51,55
561600,control_change,53,0,3,,,,,,,64,127,3,,,,
561840,note_on,240,0,5,,,,,,,,,5,,,33,53
562080,note_off,240,0,5,,,,,,,,,5,,,33,0
562080,note_on,480,0,3,,,,,,,,,3,,,36,52
562320,note_off,240,0,3,,,,,,,,,3,,,36,0
562320,note_on,0,0,3,,,,,,,,,3,,,41,50
562500,control_change,180,0,3,,,,,,,64,0,3,,,,
562500,control_change,420,0,5,,,,,,,64,0,5,,,,
562500,control_change,900,0,4,,,,,,,64,0,4,,,,
562500,set_tempo,2820,1,0,,,,,,652173,,,,,,,
562507,note_off,7,0,3,,,,,,,,,3,,,41,0
562560,note_on,60,0,5,,,,,,,,,5,,,32,49
562800,note_off,1200,0,1,,,,,,,,,1,,,51,0
562800,note_on,0,0,1,,,,,,,,,1,,,50,48
563040,note_on,0,0,5,,,,,,,,,5,,,39,46
563040,note_off,480,0,5,,,,,,,,,5,,,32,0
563280,note_on,0,0,1,,,,,,,,,1,,,48,45
563280,note_off,480,0,1,,,,,,,,,1,,,50,0
563520,note_on,0,0,5,,,,,,,,,5,,,38,44
563520,note_off,480,0,5,,,,,,,,,5,,,39,0
563760,note_off,480,0,1,,,,,,,,,1,,,48,0
563760,note_on,0,0,1,,,,,,,,,1,,,46,42
564000,note_on,0,0,5,,,,,,,,,5,,,36,41
564000,note_off,480,0,5,,,,,,,,,5,,,38,0
564240,note_off,480,0,1,,,,,,,,,1,,,46,0
564240,note_on,0,0,1,,,,,,,,,1,,,45,40
564240,set_tempo,1740,1,0,,,,,,895522,,,,,,,
564442,note_off,202,0,1,,,,,,,,,1,,,45,0
564442,note_off,442,0,5,,,,,,,,,5,,,36,0
564480,control_change,1973,0,3,,,,,,,64,127,3,,,,
564480,note_on,0,0,4,,,,,,,,,4,,,38,39
564480,note_on,0,0,4,,,,,,,,,4,,,41,39
564480,note_on,38,0,1,,,,,,,,,1,,,44,39
564480,control_change,1980,0,4,,,,,,,64,127,4,,,,
564480,note_on,0,0,5,,,,,,,,,5,,,34,39
564480,control_change,38,0,5,,,,,,,64,127,5,,,,
564480,set_tempo,240,1,0,,,,,,1071428,,,,,,,
565620,note_on,1140,0,1,,,,,,,,,1,,,46,35
565620,set_tempo,1140,1,0,,,,,,652173,,,,,,,
565657,note_off,37,0,1,,,,,,,,,1,,,44,0
565680,note_on,0,0,1,,,,,,,,,1,,,44,35
565680,note_off,23,0,1,,,,,,,,,1,,,46,0
565680,set_tempo,60,1,0,,,,,,625000,,,,,,,
565740,set_tempo,60,1,0,,,,,,612244,,,,,,,
565740,note_on,0,0,1,,,,,,,,,1,,,43,35
565740,note_off,60,0,1,,,,,,,,,1,,,44,0
565800,note_on,0,0,1,,,,,,,,,1,,,44,34
565800,note_off,60,0,1,,,,,,,,,1,,,43,0
565800,set_tempo,60,1,0,,,,,,600000,,,,,,,
565860,note_on,0,0,1,,,,,,,,,1,,,46,34
565860,note_off,60,0,1,,,,,,,,,1,,,44,0
565920,note_on,0,0,1,,,,,,,,,1,,,48,34
565920,note_off,60,0,1,,,,,,,,,1,,,46,0
565980,note_off,60,0,1,,,,,,,,,1,,,48,0
565980,note_on,0,0,1,,,,,,,,,1,,,50,34
566040,note_off,60,0,1,,,,,,,,,1,,,50,0
566040,note_on,0,0,1,,,,,,,,,1,,,51,33
566100,note_off,60,0,1,,,,,,,,,1,,,51,0
566100,note_on,0,0,1,,,,,,,,,1,,,53,33
566160,note_off,60,0,1,,,,,,,,,1,,,53,0
566160,note_on,0,0,1,,,,,,,,,1,,,55,33
566220,note_off,60,0,1,,,,,,,,,1,,,55,0
566220,note_on,0,0,1,,,,,,,,,1,,,56,33
566280,note_on,0,0,1,,,,,,,,,1,,,58,33
566280,note_off,60,0,1,,,,,,,,,1,,,56,0
566340,note_off,60,0,1,,,,,,,,,1,,,58,0
566340,note_on,0,0,1,,,,,,,,,1,,,60,32
566400,note_off,0,0,4,,,,,,,,,4,,,41,0
566400,note_off,60,0,1,,,,,,,,,1,,,60,0
566400,note_off,1920,0,5,,,,,,,,,5,,,34,0
566400,note_on,0,0,1,,,,,,,,,1,,,62,32
566400,note_off,1920,0,4,,,,,,,,,4,,,38,0
566460,note_off,60,0,1,,,,,,,,,1,,,62,0
566460,note_on,0,0,1,,,,,,,,,1,,,63,32
566520,note_on,0,0,1,,,,,,,,,1,,,65,32
566520,note_off,60,0,1,,,,,,,,,1,,,63,0
566580,note_off,60,0,1,,,,,,,,,1,,,65,0
566580,note_on,0,0,1,,,,,,,,,1,,,67,31
566640,note_off,60,0,1,,,,,,,,,1,,,67,0
566640,note_on,0,0,1,,,,,,,,,1,,,68,31
566700,note_off,60,0,1,,,,,,,,,1,,,68,0
566700,note_on,0,0,1,,,,,,,,,1,,,70,31
566760,note_off,60,0,1,,,,,,,,,1,,,70,0
566760,note_on,0,0,1,,,,,,,,,1,,,72,31
566820,note_on,0,0,1,,,,,,,,,1,,,74,31
566820,note_off,60,0,1,,,,,,,,,1,,,72,0
566880,note_off,60,0,1,,,,,,,,,1,,,74,0
566880,note_on,0,0,1,,,,,,,,,1,,,75,30
566940,note_off,60,0,1,,,,,,,,,1,,,75,0
566940,note_on,0,0,1,,,,,,,,,1,,,77,30
567000,note_off,60,0,1,,,,,,,,,1,,,77,0
567000,note_on,0,0,1,,,,,,,,,1,,,79,30
567060,note_off,60,0,1,,,,,,,,,1,,,79,0
567060,note_on,0,0,1,,,,,,,,,1,,,80,30
567120,note_on,0,0,1,,,,,,,,,1,,,82,29
567120,note_off,60,0,1,,,,,,,,,1,,,80,0
567180,note_on,0,0,1,,,,,,,,,1,,,84,29
567180,note_off,60,0,1,,,,,,,,,1,,,82,0
567240,note_off,60,0,1,,,,,,,,,1,,,84,0
567240,set_tempo,1440,1,0,,,,,,612244,,,,,,,
567240,note_on,0,0,1,,,,,,,,,1,,,86,29
567300,note_on,0,0,1,,,,,,,,,1,,,87,29
567300,set_tempo,60,1,0,,,,,,625000,,,,,,,
567300,note_off,60,0,1,,,,,,,,,1,,,86,0
567360,note_on,0,0,1,,,,,,,,,1,,,89,29
567360,note_off,60,0,1,,,,,,,,,1,,,87,0
567360,set_tempo,60,1,0,,,,,,895522,,,,,,,
567490,note_off,130,0,1,,,,,,,,,1,,,89,0
567520,note_on,30,0,1,,,,,,,,,1,,,86,28
567650,note_off,130,0,1,,,,,,,,,1,,,86,0
567660,set_tempo,300,1,0,,,,,,967741,,,,,,,
567680,note_on,30,0,1,,,,,,,,,1,,,82,27
567810,note_off,130,0,1,,,,,,,,,1,,,82,0
567840,note_on,30,0,1,,,,,,,,,1,,,81,27
567840,set_tempo,180,1,0,,,,,,2068965,,,,,,,
568080,note_off,240,0,1,,,,,,,,,1,,,81,0
568080,set_tempo,240,1,0,,,,,,2727272,,,,,,,
568080,note_on,0,0,1,,,,,,,,,1,,,80,26
568272,note_off,192,0,1,,,,,,,,,1,,,80,0
568320,control_change,1920,0,5,,,,,,,64,0,5,,,,
568320,note_on,0,0,5,,,,,,,,,5,,,51,45
568320,set_tempo,240,1,0,,,,,,612244,,,,,,,
568320,control_change,1920,0,4,,,,,,,64,0,4,,,,
568320,control_change,48,0,1,,,,,,,64,0,1,,,,
568320,control_change,3840,0,3,,,,,,,64,0,3,,,,
568560,note_on,240,0,1,,,,,,,,,1,,,80,43
568620,note_on,0,0,1,,,,,,,,,1,,,79,44
568620,note_off,60,0,1,,,,,,,,,1,,,80,0
568680,note_off,60,0,1,,,,,,,,,1,,,79,0
568680,note_on,0,0,1,,,,,,,,,1,,,77,45
568740,note_off,60,0,1,,,,,,,,,1,,,77,0
568740,note_on,0,0,1,,,,,,,,,1,,,79,47
568747,note_off,427,0,5,,,,,,,,,5,,,51,0
568800,note_off,60,0,1,,,,,,,,,1,,,79,0
568800,note_on,0,0,1,,,,,,,,,1,,,82,48
569040,note_on,0,0,1,,,,,,,,,1,,,79,48
569040,note_off,240,0,1,,,,,,,,,1,,,82,0
569232,note_off,192,0,1,,,,,,,,,1,,,79,0
569240,set_tempo,920,1,0,,,,,,625000,,,,,,,
569280,note_on,533,0,5,,,,,,,,,5,,,55,47
569280,set_tempo,40,1,0,,,,,,612244,,,,,,,
569520,note_on,288,0,1,,,,,,,,,1,,,77,42
569580,note_on,0,0,1,,,,,,,,,1,,,75,43
569580,note_off,60,0,1,,,,,,,,,1,,,77,0
569640,note_off,60,0,1,,,,,,,,,1,,,75,0
569640,note_on,0,0,1,,,,,,,,,1,,,74,44
569700,note_off,60,0,1,,,,,,,,,1,,,74,0
569700,note_on,0,0,1,,,,,,,,,1,,,75,45
569707,note_off,427,0,5,,,,,,,,,5,,,55,0
569760,note_on,0,0,1,,,,,,,,,1,,,79,46
569760,note_off,60,0,1,,,,,,,,,1,,,75,0
570000,note_off,240,0,1,,,,,,,,,1,,,79,0
570000,note_on,0,0,1,,,,,,,,,1,,,75,45
570200,set_tempo,920,1,0,,,,,,625000,,,,,,,
570240,note_off,240,0,1,,,,,,,,,1,,,75,0
570240,note_on,533,0,5,,,,,,,,,5,,,56,44
570240,set_tempo,40,1,0,,,,,,612244,,,,,,,
570480,note_on,240,0,1,,,,,,,,,1,,,74,38
570540,note_off,60,0,1,,,,,,,,,1,,,74,0
570540,note_on,0,0,1,,,,,,,,,1,,,72,39
570600,note_off,60,0,1,,,,,,,,,1,,,72,0
570600,note_on,0,0,1,,,,,,,,,1,,,71,40
570660,note_off,60,0,1,,,,,,,,,1,,,71,0
570660,note_on,0,0,1,,,,,,,,,1,,,72,41
570667,note_off,427,0,5,,,,,,,,,5,,,56,0
570720,note_off,60,0,1,,,,,,,,,1,,,72,0
570720,note_on,0,0,1,,,,,,,,,1,,,75,43
570960,note_on,0,0,1,,,,,,,,,1,,,72,42
570960,note_off,240,0,1,,,,,,,,,1,,,75,0
571152,note_off,192,0,1,,,,,,,,,1,,,72,0
571160,set_tempo,920,1,0,,,,,,625000,,,,,,,
571200,set_tempo,40,1,0,,,,,,612244,,,,,,,
571200,note_on,533,0,5,,,,,,,,,5,,,60,42
571440,note_on,288,0,1,,,,,,,,,1,,,70,34
571500,note_off,60,0,1,,,,,,,,,1,,,70,0
571500,note_on,0,0,1,,,,,,,,,1,,,68,36
571560,note_off,60,0,1,,,,,,,,,1,,,68,0
571560,note_on,0,0,1,,,,,,,,,1,,,67,37
571620,note_off,60,0,1,,,,,,,,,1,,,67,0
571620,note_on,0,0,1,,,,,,,,,1,,,68,39
571627,note_off,427,0,5,,,,,,,,,5,,,60,0
571680,note_off,60,0,1,,,,,,,,,1,,,68,0
571680,note_on,0,0,1,,,,,,,,,1,,,72,41
571920,note_off,240,0,1,,,,,,,,,1,,,72,0
571920,note_on,0,0,1,,,,,,,,,1,,,68,40
572112,note_off,192,0,1,,,,,,,,,1,,,68,0
572120,set_tempo,920,1,0,,,,,,638297,,,,,,,
572160,control_change,3840,0,3,,,,,,,64,127,3,,,,
572160,note_on,48,0,1,,,,,,,,,1,,,67,39
572160,set_tempo,40,1,0,,,,,,1224489,,,,,,,
572160,note_on,0,0,5,,,,,,,,,5,,,46,39
572160,control_change,533,0,5,,,,,,,64,127,5,,,,
572160,control_change,3840,0,4,,,,,,,64,127,4,,,,
572280,note_off,120,0,1,,,,,,,,,1,,,67,0
572280,note_on,0,0,1,,,,,,,,,1,,,70,39
572400,note_on,240,0,3,,,,,,,,,3,,,55,38
572400,note_off,240,0,5,,,,,,,,,5,,,46,0
572520,note_off,240,0,1,,,,,,,,,1,,,70,0
572520,note_on,0,0,1,,,,,,,,,1,,,69,38
572640,note_off,240,0,3,,,,,,,,,3,,,55,0
572640,note_on,0,0,3,,,,,,,,,3,,,51,38
572760,note_off,240,0,1,,,,,,,,,1,,,69,0
572760,note_on,0,0,1,,,,,,,,,1,,,68,37
572880,note_off,240,0,3,,,,,,,,,3,,,51,0
572880,note_on,0,0,3,,,,,,,,,3,,,55,37
573000,note_off,240,0,1,,,,,,,,,1,,,68,0
573000,note_on,0,0,1,,,,,,,,,1,,,67,37
573060,control_change,900,0,4,,,,,,,64,0,4,,,,
573060,control_change,180,0,3,,,,,,,64,0,3,,,,
573060,control_change,660,0,5,,,,,,,64,0,5,,,,
573080,set_tempo,920,1,0,,,,,,1333333,,,,,,,
573120,control_change,60,0,5,,,,,,,64,127,5,,,,
573120,note_on,0,0,5,,,,,,,,,5,,,46,36
573120,control_change,60,0,3,,,,,,,64,127,3,,,,
573120,note_off,120,0,1,,,,,,,,,1,,,67,0
573120,note_on,0,0,1,,,,,,,,,1,,,65,36
573120,note_off,0,0,3,,,,,,,,,3,,,55,0
573120,control_change,60,0,4,,,,,,,64,127,4,,,,
573150,set_tempo,70,1,0,,,,,,1276595,,,,,,,
573160,note_off,40,0,1,,,,,,,,,1,,,65,0
573160,note_on,0,0,1,,,,,,,,,1,,,67,36
573200,note_on,0,0,1,,,,,,,,,1,,,65,36
573200,note_off,40,0,1,,,,,,,,,1,,,67,0
573240,note_off,40,0,1,,,,,,,,,1,,,65,0
573240,note_on,0,0,1,,,,,,,,,1,,,67,36
573280,note_off,40,0,1,,,,,,,,,1,,,67,0
573280,note_on,0,0,1,,,,,,,,,1,,,65,36
573320,note_on,0,0,1,,,,,,,,,1,,,67,36
573320,note_off,40,0,1,,,,,,,,,1,,,65,0
573360,note_on,0,0,1,,,,,,,,,1,,,65,36
573360,note_on,240,0,3,,,,,,,,,3,,,56,36
573360,note_off,240,0,5,,,,,,,,,5,,,46,0
573360,note_off,40,0,1,,,,,,,,,1,,,67,0
573400,note_on,0,0,1,,,,,,,,,1,,,67,36
573400,note_off,40,0,1,,,,,,,,,1,,,65,0
573440,note_on,0,0,1,,,,,,,,,1,,,65,35
573440,note_off,40,0,1,,,,,,,,,1,,,67,0
573480,note_on,0,0,1,,,,,,,,,1,,,67,35
573480,note_off,40,0,1,,,,,,,,,1,,,65,0
573520,note_off,40,0,1,,,,,,,,,1,,,67,0
573520,note_on,0,0,1,,,,,,,,,1,,,65,35
573560,note_off,40,0,1,,,,,,,,,1,,,65,0
573560,note_on,0,0,1,,,,,,,,,1,,,67,35
573600,note_on,0,0,1,,,,,,,,,1,,,65,35
573600,note_off,40,0,1,,,,,,,,,1,,,67,0
573600,note_off,240,0,3,,,,,,,,,3,,,56,0
573600,note_on,0,0,3,,,,,,,,,3,,,50,35
573640,note_on,0,0,1,,,,,,,,,1,,,67,35
573640,note_off,40,0,1,,,,,,,,,1,,,65,0
573680,note_off,40,0,1,,,,,,,,,1,,,67,0
573680,note_on,0,0,1,,,,,,,,,1,,,65,35
573720,note_off,40,0,1,,,,,,,,,1,,,65,0
573720,note_on,0,0,1,,,,,,,,,1,,,67,35
573760,note_off,40,0,1,,,,,,,,,1,,,67,0
573760,note_on,0,0,1,,,,,,,,,1,,,65,35
573800,note_off,40,0,1,,,,,,,,,1,,,65,0
573800,note_on,0,0,1,,,,,,,,,1,,,67,35
573840,note_off,240,0,3,,,,,,,,,3,,,50,0
573840,note_on,0,0,3,,,,,,,,,3,,,56,34
573840,note_on,0,0,1,,,,,,,,,1,,,65,34
573840,note_off,40,0,1,,,,,,,,,1,,,67,0
573880,note_on,0,0,1,,,,,,,,,1,,,67,34
573880,note_off,40,0,1,,,,,,,,,1,,,65,0
573920,note_off,40,0,1,,,,,,,,,1,,,67,0
573920,note_on,0,0,1,,,,,,,,,1,,,65,34
573960,note_on,0,0,1,,,,,,,,,1,,,63,34
573960,note_off,40,0,1,,,,,,,,,1,,,65,0
574020,note_off,60,0,1,,,,,,,,,1,,,63,0
574020,control_change,660,0,5,,,,,,,64,0,5,,,,
574020,note_on,0,0,1,,,,,,,,,1,,,65,34
574020,control_change,900,0,4,,,,,,,64,0,4,,,,
574020,control_change,180,0,3,,,,,,,64,0,3,,,,
574032,note_off,12,0,3,,,,,,,,,3,,,56,0
574040,set_tempo,890,1,0,,,,,,1333333,,,,,,,
574080,note_on,0,0,1,,,,,,,,,1,,,63,34
574080,note_off,60,0,1,,,,,,,,,1,,,65,0
574080,note_on,60,0,4,,,,,,,,,4,,,51,34
574080,set_tempo,40,1,0,,,,,,1200000,,,,,,,
574200,note_off,120,0,4,,,,,,,,,4,,,51,0
574200,note_on,0,0,4,,,,,,,,,4,,,55,34
574320,note_on,0,0,4,,,,,,,,,4,,,58,35
574320,note_off,120,0,4,,,,,,,,,4,,,55,0
574440,note_on,0,0,4,,,,,,,,,4,,,55,36
574440,note_off,120,0,4,,,,,,,,,4,,,58,0
574560,note_off,120,0,4,,,,,,,,,4,,,55,0
574560,note_off,480,0,1,,,,,,,,,1,,,63,0
574560,note_on,0,0,4,,,,,,,,,4,,,58,37
574680,note_on,0,0,4,,,,,,,,,4,,,55,38
574680,note_off,120,0,4,,,,,,,,,4,,,58,0
574800,note_on,0,0,4,,,,,,,,,4,,,58,39
574800,note_off,120,0,4,,,,,,,,,4,,,55,0
574920,note_off,120,0,4,,,,,,,,,4,,,58,0
574920,note_on,0,0,4,,,,,,,,,4,,,55,40
575016,note_off,96,0,4,,,,,,,,,4,,,55,0
575040,note_on,480,0,1,,,,,,,,,1,,,62,41
575040,note_on,24,0,4,,,,,,,,,4,,,56,41
575040,note_on,1020,0,5,,,,,,,,,5,,,46,41
575160,note_off,120,0,1,,,,,,,,,1,,,62,0
575160,note_on,0,0,1,,,,,,,,,1,,,65,42
575280,note_off,120,0,1,,,,,,,,,1,,,65,0
575280,note_on,0,0,1,,,,,,,,,1,,,72,43
575400,note_off,120,0,1,,,,,,,,,1,,,72,0
575400,note_on,0,0,1,,,,,,,,,1,,,70,44
575520,note_off,480,0,5,,,,,,,,,5,,,46,0
575520,note_on,0,0,1,,,,,,,,,1,,,72,45
575520,note_off,120,0,1,,,,,,,,,1,,,70,0
575520,note_off,480,0,4,,,,,,,,,4,,,56,0
575640,note_off,120,0,1,,,,,,,,,1,,,72,0
575640,note_on,0,0,1,,,,,,,,,1,,,70,46
575760,note_off,120,0,1,,,,,,,,,1,,,70,0
575760,note_on,0,0,1,,,,,,,,,1,,,72,47
575880,note_off,120,0,1,,,,,,,,,1,,,72,0
575880,note_on,0,0,1,,,,,,,,,1,,,70,48
575976,note_off,96,0,1,,,,,,,,,1,,,70,0
576000,note_on,24,0,1,,,,,,,,,1,,,70,49
576000,note_on,480,0,4,,,,,,,,,4,,,51,49
576120,note_off,120,0,4,,,,,,,,,4,,,51,0
576120,note_on,0,0,4,,,,,,,,,4,,,55,50
576240,note_on,0,0,4,,,,,,,,,4,,,58,51
576240,note_off,120,0,4,,,,,,,,,4,,,55,0
576360,note_on,0,0,4,,,,,,,,,4,,,55,52
576360,note_off,120,0,4,,,,,,,,,4,,,58,0
576480,note_on,0,0,4,,,,,,,,,4,,,58,53
576480,note_off,120,0,4,,,,,,,,,4,,,55,0
576480,note_off,480,0,1,,,,,,,,,1,,,70,0
576480,note_on,0,0,1,,,,,,,,,1,,,75,53
576600,note_off,120,0,4,,,,,,,,,4,,,58,0
576600,note_on,0,0,4,,,,,,,,,4,,,55,54
576720,note_on,0,0,4,,,,,,,,,4,,,58,55
576720,note_off,120,0,4,,,,,,,,,4,,,55,0
576720,note_off,240,0,1,,,,,,,,,1,,,75,0
576840,note_on,0,0,4,,,,,,,,,4,,,55,56
576840,note_off,120,0,4,,,,,,,,,4,,,58,0
576936,note_off,96,0,4,,,,,,,,,4,,,55,0
576960,note_on,240,0,1,,,,,,,,,1,,,62,57
576960,note_on,1440,0,5,,,,,,,,,5,,,46,57
576960,note_on,24,0,4,,,,,,,,,4,,,56,57
577080,note_on,0,0,1,,,,,,,,,1,,,65,58
577080,note_off,120,0,1,,,,,,,,,1,,,62,0
577200,note_off,120,0,1,,,,,,,,,1,,,65,0
577200,note_on,0,0,1,,,,,,,,,1,,,72,59
577320,note_off,120,0,1,,,,,,,,,1,,,72,0
577320,note_on,0,0,1,,,,,,,,,1,,,70,60
577440,note_off,120,0,1,,,,,,,,,1,,,70,0
577440,note_off,480,0,5,,,,,,,,,5,,,46,0
577440,note_off,480,0,4,,,,,,,,,4,,,56,0
577440,note_on,0,0,1,,,,,,,,,1,,,72,61
577560,note_on,0,0,1,,,,,,,,,1,,,70,62
577560,note_off,120,0,1,,,,,,,,,1,,,72,0
577680,note_on,0,0,1,,,,,,,,,1,,,72,63
577680,note_off,120,0,1,,,,,,,,,1,,,70,0
577800,note_on,0,0,1,,,,,,,,,1,,,70,64
577800,note_off,120,0,1,,,,,,,,,1,,,72,0
577896,note_off,96,0,1,,,,,,,,,1,,,70,0
577920,note_on,24,0,1,,,,,,,,,1,,,70,65
577920,note_on,480,0,4,,,,,,,,,4,,,51,65
578040,note_off,120,0,4,,,,,,,,,4,,,51,0
578040,note_on,0,0,4,,,,,,,,,4,,,55,66
578160,note_off,120,0,4,,,,,,,,,4,,,55,0
578160,note_on,0,0,4,,,,,,,,,4,,,58,67
578280,note_off,120,0,4,,,,,,,,,4,,,58,0
578280,note_on,0,0,4,,,,,,,,,4,,,55,68
578400,note_on,0,0,4,,,,,,,,,4,,,58,69
578400,note_on,0,0,1,,,,,,,,,1,,,63,69
578400,note_off,480,0,1,,,,,,,,,1,,,70,0
578400,note_off,120,0,4,,,,,,,,,4,,,55,0
578520,note_on,0,0,4,,,,,,,,,4,,,55,70
578520,note_off,120,0,4,,,,,,,,,4,,,58,0
578640,note_on,0,0,4,,,,,,,,,4,,,58,71
578640,note_off,120,0,4,,,,,,,,,4,,,55,0
578640,note_off,240,0,1,,,,,,,,,1,,,63,0
578760,note_off,120,0,4,,,,,,,,,4,,,58,0
578760,note_on,0,0,4,,,,,,,,,4,,,55,72
578856,note_off,96,0,4,,,,,,,,,4,,,55,0
578880,note_on,24,0,4,,,,,,,,,4,,,56,77
578880,note_on,1440,0,5,,,,,,,,,5,,,46,77
578880,note_on,240,0,1,,,,,,,,,1,,,62,77
579000,note_off,120,0,1,,,,,,,,,1,,,62,0
579000,note_on,0,0,1,,,,,,,,,1,,,65,76
579120,note_off,120,0,1,,,,,,,,,1,,,65,0
579120,note_on,0,0,1,,,,,,,,,1,,,72,74
579240,note_off,120,0,1,,,,,,,,,1,,,72,0
579240,note_on,0,0,1,,,,,,,,,1,,,70,73
579360,note_on,0,0,1,,,,,,,,,1,,,72,72
579360,note_off,120,0,1,,,,,,,,,1,,,70,0
579480,note_on,0,0,1,,,,,,,,,1,,,70,70
579480,note_off,120,0,1,,,,,,,,,1,,,72,0
579600,note_on,0,0,1,,,,,,,,,1,,,72,69
579600,note_off,120,0,1,,,,,,,,,1,,,70,0
579720,note_on,0,0,1,,,,,,,,,1,,,70,68
579720,note_off,120,0,1,,,,,,,,,1,,,72,0
579765,set_tempo,5685,1,0,,,,,,1276595,,,,,,,
579816,note_off,96,0,1,,,,,,,,,1,,,70,0
579840,note_on,0,0,5,,,,,,,,,5,,,51,66
579840,note_on,24,0,1,,,,,,,,,1,,,70,66
579840,note_off,960,0,5,,,,,,,,,5,,,46,0
579840,note_off,960,0,4,,,,,,,,,4,,,56,0
579840,note_on,0,0,4,,,,,,,,,4,,,55,66
579870,set_tempo,105,1,0,,,,,,1224489,,,,,,,
579960,note_off,120,0,1,,,,,,,,,1,,,70,0
579960,note_on,0,0,1,,,,,,,,,1,,,63,65
580080,note_off,120,0,1,,,,,,,,,1,,,63,0
580080,note_on,0,0,1,,,,,,,,,1,,,75,64
580160,note_off,80,0,1,,,,,,,,,1,,,75,0
580200,note_on,40,0,1,,,,,,,,,1,,,75,62
580207,note_off,367,0,4,,,,,,,,,4,,,55,0
580207,note_off,367,0,5,,,,,,,,,5,,,51,0
580280,note_off,80,0,1,,,,,,,,,1,,,75,0
580320,note_on,40,0,1,,,,,,,,,1,,,75,61
580440,note_on,0,0,1,,,,,,,,,1,,,67,60
580440,note_off,120,0,1,,,,,,,,,1,,,75,0
580560,note_on,0,0,1,,,,,,,,,1,,,79,58
580560,note_off,120,0,1,,,,,,,,,1,,,67,0
580640,note_off,80,0,1,,,,,,,,,1,,,79,0
580680,note_on,40,0,1,,,,,,,,,1,,,79,57
580760,note_off,80,0,1,,,,,,,,,1,,,79,0
580800,note_on,40,0,1,,,,,,,,,1,,,79,55
580920,note_on,0,0,1,,,,,,,,,1,,,70,54
580920,note_off,120,0,1,,,,,,,,,1,,,79,0
581040,note_off,120,0,1,,,,,,,,,1,,,70,0
581040,note_on,0,0,1,,,,,,,,,1,,,82,53
581120,note_off,80,0,1,,,,,,,,,1,,,82,0
581160,note_on,40,0,1,,,,,,,,,1,,,82,51
581240,set_tempo,1370,1,0,,,,,,1276595,,,,,,,
581240,note_off,80,0,1,,,,,,,,,1,,,82,0
581280,note_on,40,0,1,,,,,,,,,1,,,82,50
581280,note_on,0,0,4,,,,,,,,,4,,,68,50
581280,note_on,1073,0,5,,,,,,,,,5,,,58,50
581280,set_tempo,40,1,0,,,,,,1224489,,,,,,,
581280,note_on,1073,0,4,,,,,,,,,4,,,62,50
581360,note_off,80,0,1,,,,,,,,,1,,,82,0
581400,note_on,40,0,1,,,,,,,,,1,,,82,49
581480,note_off,80,0,1,,,,,,,,,1,,,82,0
581520,note_on,40,0,1,,,,,,,,,1,,,82,47
581600,note_off,80,0,1,,,,,,,,,1,,,82,0
581640,note_on,40,0,1,,,,,,,,,1,,,82,46
581720,note_off,80,0,1,,,,,,,,,1,,,82,0
581720,set_tempo,440,1,0,,,,,,1276595,,,,,,,
581760,note_off,0,0,4,,,,,,,,,4,,,62,0
581760,note_off,480,0,5,,,,,,,,,5,,,58,0
581760,note_on,40,0,1,,,,,,,,,1,,,75,45
581760,note_on,0,0,4,,,,,,,,,4,,,67,45
581760,note_on,0,0,5,,,,,,,,,5,,,63,45
581760,note_off,480,0,4,,,,,,,,,4,,,68,0
582000,note_off,240,0,1,,,,,,,,,1,,,75,0
582000,note_off,240,0,4,,,,,,,,,4,,,67,0
582000,note_off,240,0,5,,,,,,,,,5,,,63,0
582240,note_on,240,0,5,,,,,,,,,5,,,58,39
582240,note_on,240,0,1,,,,,,,,,1,,,82,39
582240,note_on,0,0,4,,,,,,,,,4,,,68,39
582240,note_on,240,0,4,,,,,,,,,4,,,62,39
582320,note_off,80,0,1,,,,,,,,,1,,,82,0
582360,note_on,40,0,1,,,,,,,,,1,,,82,38
582440,note_off,80,0,1,,,,,,,,,1,,,82,0
582480,note_on,40,0,1,,,,,,,,,1,,,82,37
582560,note_off,80,0,1,,,,,,,,,1,,,82,0
582600,note_on,40,0,1,,,,,,,,,1,,,82,35
582680,set_tempo,960,1,0,,,,,,1333333,,,,,,,
582680,note_off,80,0,1,,,,,,,,,1,,,82,0
582720,note_off,0,0,4,,,,,,,,,4,,,62,0
582720,note_on,0,0,4,,,,,,,,,4,,,67,34
582720,note_on,0,0,5,,,,,,,,,5,,,63,34
582720,note_off,480,0,4,,,,,,,,,4,,,68,0
582720,note_off,480,0,5,,,,,,,,,5,,,58,0
582720,note_on,40,0,1,,,,,,,,,1,,,75,34
582960,note_off,240,0,1,,,,,,,,,1,,,75,0
582960,note_off,240,0,5,,,,,,,,,5,,,63,0
582960,note_off,240,0,4,,,,,,,,,4,,,67,0
583160,set_tempo,480,1,0,,,,,,1363636,,,,,,,
583200,note_on,240,0,5,,,,,,,,,5,,,58,29
583200,note_on,0,0,4,,,,,,,,,4,,,68,29
583200,note_on,240,0,1,,,,,,,,,1,,,82,29
583200,note_on,240,0,4,,,,,,,,,4,,,62,29
583280,note_off,80,0,1,,,,,,,,,1,,,82,0
583320,note_on,40,0,1,,,,,,,,,1,,,82,27
583400,note_off,80,0,1,,,,,,,,,1,,,82,0
583440,note_on,40,0,1,,,,,,,,,1,,,82,26
583520,note_off,80,0,1,,,,,,,,,1,,,82,0
583560,note_on,40,0,1,,,,,,,,,1,,,82,24
583640,set_tempo,480,1,0,,,,,,1818181,,,,,,,
583640,note_off,80,0,1,,,,,,,,,1,,,82,0
583680,note_on,0,0,5,,,,,,,,,5,,,63,23
583680,set_tempo,40,1,0,,,,,,1333333,,,,,,,
583680,note_off,480,0,5,,,,,,,,,5,,,58,0
583680,note_off,0,0,4,,,,,,,,,4,,,62,0
583680,note_on,40,0,1,,,,,,,,,1,,,87,23
583680,note_off,480,0,4,,,,,,,,,4,,,68,0
583680,note_on,0,0,4,,,,,,,,,4,,,67,23
583920,note_off,240,0,4,,,,,,,,,4,,,67,0
583920,note_off,240,0,5,,,,,,,,,5,,,63,0
583920,note_off,240,0,1,,,,,,,,,1,,,87,0
584640,note_on,720,0,5,,,,,,,,,5,,,46,83
584640,note_on,53280,0,2,,,,,,,,,2,,,58,83
584640,note_on,0,0,2,,,,,,,,,2,,,56,83
584640,note_on,720,0,1,,,,,,,,,1,,,62,83
584720,note_off,80,0,5,,,,,,,,,5,,,46,0
584760,note_on,40,0,5,,,,,,,,,5,,,46,72
584840,note_off,80,0,5,,,,,,,,,5,,,46,0
584880,note_on,40,0,5,,,,,,,,,5,,,46,69
584960,note_off,80,0,5,,,,,,,,,5,,,46,0
585000,note_on,40,0,5,,,,,,,,,5,,,46,66
585080,note_off,80,0,5,,,,,,,,,5,,,46,0
585120,note_on,40,0,5,,,,,,,,,5,,,46,62
585200,note_off,80,0,5,,,,,,,,,5,,,46,0
585240,note_on,40,0,5,,,,,,,,,5,,,46,59
585320,note_off,80,0,5,,,,,,,,,5,,,46,0
585360,note_on,40,0,5,,,,,,,,,5,,,46,56
585420,set_tempo,1740,1,0,,,,,,1428571,,,,,,,
585440,note_off,80,0,5,,,,,,,,,5,,,46,0
585480,note_on,40,0,5,,,,,,,,,5,,,46,52
585560,note_off,80,0,5,,,,,,,,,5,,,46,0
585560,set_tempo,140,1,0,,,,,,1818181,,,,,,,
585600,note_off,960,0,2,,,,,,,,,2,,,56,0
585600,note_off,0,0,2,,,,,,,,,2,,,58,0
585600,note_on,0,0,2,,,,,,,,,2,,,58,49
585600,note_on,0,0,2,,,,,,,,,2,,,55,49
585600,set_tempo,40,1,0,,,,,,1333333,,,,,,,
585600,note_on,0,0,1,,,,,,,,,1,,,63,49
585600,note_on,40,0,5,,,,,,,,,5,,,39,49
585600,note_off,960,0,1,,,,,,,,,1,,,62,0
585840,note_off,240,0,2,,,,,,,,,2,,,55,0
585840,note_off,0,0,2,,,,,,,,,2,,,58,0
585840,note_off,240,0,5,,,,,,,,,5,,,39,0
585840,note_off,240,0,1,,,,,,,,,1,,,63,0
586080,note_on,240,0,5,,,,,,,,,5,,,46,41
586080,note_on,240,0,1,,,,,,,,,1,,,65,41
586080,note_on,240,0,2,,,,,,,,,2,,,58,41
586080,note_on,0,0,2,,,,,,,,,2,,,62,41
586160,note_off,80,0,5,,,,,,,,,5,,,46,0
586200,note_on,40,0,5,,,,,,,,,5,,,46,39
586280,note_off,80,0,5,,,,,,,,,5,,,46,0
586320,note_on,40,0,5,,,,,,,,,5,,,46,36
586400,note_off,80,0,5,,,,,,,,,5,,,46,0
586440,note_on,40,0,5,,,,,,,,,5,,,46,34
586520,note_off,80,0,5,,,,,,,,,5,,,46,0
586520,set_tempo,920,1,0,,,,,,1363636,,,,,,,
586560,note_off,480,0,2,,,,,,,,,2,,,62,0
586560,note_off,0,0,2,,,,,,,,,2,,,58,0
586560,note_on,0,0,2,,,,,,,,,2,,,55,31
586560,note_on,0,0,2,,,,,,,,,2,,,58,31
586560,note_off,480,0,1,,,,,,,,,1,,,65,0
586560,note_on,40,0,5,,,,,,,,,5,,,39,31
586560,note_on,0,0,1,,,,,,,,,1,,,63,31
586800,note_off,240,0,1,,,,,,,,,1,,,63,0
586800,note_off,240,0,5,,,,,,,,,5,,,39,0
586800,note_off,240,0,2,,,,,,,,,2,,,58,0
586800,note_off,0,0,2,,,,,,,,,2,,,55,0
587000,set_tempo,480,1,0,,,,,,1428571,,,,,,,
587040,note_on,240,0,1,,,,,,,,,1,,,65,27
587040,note_on,240,0,2,,,,,,,,,2,,,58,27
587040,note_on,0,0,2,,,,,,,,,2,,,56,27
587040,note_on,0,0,2,,,,,,,,,2,,,62,27
587040,note_on,240,0,5,,,,,,,,,5,,,34,27
587120,note_off,80,0,5,,,,,,,,,5,,,34,0
587160,note_on,40,0,5,,,,,,,,,5,,,34,25
587240,note_off,80,0,5,,,,,,,,,5,,,34,0
587280,note_on,40,0,5,,,,,,,,,5,,,34,23
587360,note_off,80,0,5,,,,,,,,,5,,,34,0
587400,note_on,40,0,5,,,,,,,,,5,,,34,21
587430,set_tempo,430,1,0,,,,,,2727272,,,,,,,
587480,note_off,80,0,5,,,,,,,,,5,,,34,0
587520,note_off,0,0,2,,,,,,,,,2,,,56,0
587520,note_off,480,0,2,,,,,,,,,2,,,62,0
587520,note_off,480,0,1,,,,,,,,,1,,,65,0
587520,note_on,0,0,2,,,,,,,,,2,,,55,20
587520,note_on,0,0,2,,,,,,,,,2,,,58,20
587520,note_on,0,0,1,,,,,,,,,1,,,63,20
587520,set_tempo,90,1,0,,,,,,1818181,,,,,,,
587520,note_off,0,0,2,,,,,,,,,2,,,58,0
587520,note_on,40,0,5,,,,,,,,,5,,,39,20
587760,note_off,240,0,1,,,,,,,,,1,,,63,0
587760,note_off,240,0,5,,,,,,,,,5,,,39,0
587760,note_off,240,0,2,,,,,,,,,2,,,58,0
587760,note_off,0,0,2,,,,,,,,,2,,,55,0
588480,set_tempo,960,1,0,,,,,,652173,,,,,,,
589440,control_change,15408,0,3,,,,,,,64,0,3,,,,
589440,control_change,1680,0,1,,,,,,,64,0,1,,,,
589440,control_change,5520,0,4,,,,,,,64,0,4,,,,
589440,control_change,1680,0,2,,,,,,,64,0,2,,,,
589440,control_change,1680,0,5,,,,,,,64,0,5,,,,
589440,time_signature,960,1,0,3,4,24,8,,,,,,,,,
589440,set_tempo,0,1,0,,,,,,240000,,,,,,,
589440,marker,0,1,0,,,,,,,,,,,,,
590400,note_on,960,0,1,,,,,,,,,1,,,79,44
590880,note_on,1440,0,5,,,,,,,,,5,,,60,42
590880,note_on,1440,0,4,,,,,,,,,4,,,63,42
591360,note_on,0,0,1,,,,,,,,,1,,,75,42
591360,note_off,960,0,1,,,,,,,,,1,,,79,0
591745,note_off,385,0,1,,,,,,,,,1,,,75,0
591840,note_on,95,0,1,,,,,,,,,1,,,72,43
592200,note_off,1320,0,5,,,,,,,,,5,,,60,0
592200,note_off,1320,0,4,,,,,,,,,4,,,63,0
592320,note_on,120,0,5,,,,,,,,,5,,,62,43
592320,note_on,120,0,4,,,,,,,,,4,,,65,43
592800,note_off,960,0,1,,,,,,,,,1,,,72,0
592800,note_on,0,0,1,,,,,,,,,1,,,71,44
593185,note_off,385,0,1,,,,,,,,,1,,,71,0
593280,note_on,95,0,1,,,,,,,,,1,,,80,44
593640,note_off,1320,0,5,,,,,,,,,5,,,62,0
593647,note_off,1327,0,4,,,,,,,,,4,,,65,0
593760,note_on,120,0,5,,,,,,,,,5,,,59,45
593760,note_on,113,0,4,,,,,,,,,4,,,62,45
594240,note_off,960,0,1,,,,,,,,,1,,,80,0
594240,note_on,0,0,1,,,,,,,,,1,,,79,45
594625,note_off,385,0,1,,,,,,,,,1,,,79,0
594720,note_on,95,0,1,,,,,,,,,1,,,77,46
595087,note_off,1327,0,5,,,,,,,,,5,,,59,0
595087,note_off,1327,0,4,,,,,,,,,4,,,62,0
595200,note_on,113,0,5,,,,,,,,,5,,,60,46
595200,note_on,113,0,4,,,,,,,,,4,,,67,46
595680,note_on,0,0,1,,,,,,,,,1,,,75,46
595680,note_off,960,0,1,,,,,,,,,1,,,77,0
596065,note_off,385,0,1,,,,,,,,,1,,,75,0
596160,note_on,95,0,1,,,,,,,,,1,,,79,47
596520,note_off,1320,0,4,,,,,,,,,4,,,67,0
596527,note_off,1327,0,5,,,,,,,,,5,,,60,0
596640,note_on,113,0,5,,,,,,,,,5,,,63,47
596640,note_on,120,0,4,,,,,,,,,4,,,67,47
597120,note_off,960,0,1,,,,,,,,,1,,,79,0
597120,note_on,0,0,1,,,,,,,,,1,,,84,48
597505,note_off,385,0,1,,,,,,,,,1,,,84,0
597600,note_off,960,0,5,,,,,,,,,5,,,63,0
597600,note_on,95,0,1,,,,,,,,,1,,,82,50
597600,note_on,0,0,5,,,,,,,,,5,,,64,50
598080,note_on,0,0,4,,,,,,,,,4,,,68,51
598080,note_off,1440,0,4,,,,,,,,,4,,,67,0
598080,note_on,0,0,5,,,,,,,,,5,,,65,51
598080,note_off,480,0,5,,,,,,,,,5,,,64,0
598560,note_on,0,0,1,,,,,,,,,1,,,80,53
598560,note_off,960,0,1,,,,,,,,,1,,,82,0
598927,note_off,847,0,4,,,,,,,,,4,,,68,0
598927,note_off,847,0,5,,,,,,,,,5,,,65,0
598945,note_off,385,0,1,,,,,,,,,1,,,80,0
599040,note_on,95,0,1,,,,,,,,,1,,,79,54
599040,note_on,113,0,5,,,,,,,,,5,,,67,54
599040,note_on,113,0,4,,,,,,,,,4,,,70,54
599400,note_off,360,0,5,,,,,,,,,5,,,67,0
599400,note_off,360,0,4,,,,,,,,,4,,,70,0
599520,note_on,120,0,5,,,,,,,,,5,,,68,56
599520,note_on,120,0,4,,,,,,,,,4,,,72,56
600000,note_on,0,0,1,,,,,,,,,1,,,77,58
600000,note_off,960,0,1,,,,,,,,,1,,,79,0
600385,note_off,385,0,1,,,,,,,,,1,,,77,0
600480,note_on,95,0,1,,,,,,,,,1,,,78,60
600480,note_off,960,0,5,,,,,,,,,5,,,68,0
600480,note_on,0,0,5,,,,,,,,,5,,,69,59
600960,note_on,0,0,5,,,,,,,,,5,,,67,57
600960,note_off,480,0,5,,,,,,,,,5,,,69,0
601440,note_off,960,0,1,,,,,,,,,1,,,78,0
601440,note_on,0,0,4,,,,,,,,,4,,,71,45
601440,note_on,0,0,1,,,,,,,,,1,,,79,50
601440,note_off,1920,0,4,,,,,,,,,4,,,72,0
601807,note_off,367,0,4,,,,,,,,,4,,,71,0
601807,note_off,847,0,5,,,,,,,,,5,,,67,0
601825,note_off,385,0,1,,,,,,,,,1,,,79,0
601880,set_tempo,12440,1,0,,,,,,241935,,,,,,,
601920,set_tempo,40,1,0,,,,,,240000,,,,,,,
601920,note_on,95,0,1,,,,,,,,,1,,,67,43
602400,note_on,593,0,4,,,,,,,,,4,,,51,41
602400,note_on,593,0,5,,,,,,,,,5,,,48,41
602880,note_off,960,0,1,,,,,,,,,1,,,67,0
602880,note_on,0,0,1,,,,,,,,,1,,,63,42
603265,note_off,385,0,1,,,,,,,,,1,,,63,0
603360,note_on,95,0,1,,,,,,,,,1,,,60,43
603720,note_off,1320,0,5,,,,,,,,,5,,,48,0
603727,note_off,1327,0,4,,,,,,,,,4,,,51,0
603840,note_on,113,0,4,,,,,,,,,4,,,53,44
603840,note_on,120,0,5,,,,,,,,,5,,,50,44
604320,note_on,0,0,1,,,,,,,,,1,,,59,44
604320,note_off,960,0,1,,,,,,,,,1,,,60,0
604705,note_off,385,0,1,,,,,,,,,1,,,59,0
604800,note_on,95,0,1,,,,,,,,,1,,,68,45
605160,note_off,1320,0,4,,,,,,,,,4,,,53,0
605167,note_off,1327,0,5,,,,,,,,,5,,,50,0
605280,note_on,113,0,5,,,,,,,,,5,,,47,46
605280,note_on,120,0,4,,,,,,,,,4,,,50,46
605760,note_on,0,0,1,,,,,,,,,1,,,67,47
605760,note_off,960,0,1,,,,,,,,,1,,,68,0
606145,note_off,385,0,1,,,,,,,,,1,,,67,0
606240,note_on,95,0,1,,,,,,,,,1,,,65,48
606600,note_off,1320,0,5,,,,,,,,,5,,,47,0
606600,note_off,1320,0,4,,,,,,,,,4,,,50,0
606720,note_on,120,0,5,,,,,,,,,5,,,46,49
606720,note_on,120,0,4,,,,,,,,,4,,,49,49
607200,note_on,0,0,1,,,,,,,,,1,,,64,50
607200,note_off,960,0,1,,,,,,,,,1,,,65,0
607585,note_off,385,0,1,,,,,,,,,1,,,64,0
607680,note_on,95,0,1,,,,,,,,,1,,,73,51
608040,note_off,1320,0,4,,,,,,,,,4,,,49,0
608047,note_off,1327,0,5,,,,,,,,,5,,,46,0
608160,note_on,113,0,5,,,,,,,,,5,,,52,51
608160,note_on,120,0,4,,,,,,,,,4,,,55,51
608640,note_on,0,0,1,,,,,,,,,1,,,72,54
608640,note_off,960,0,1,,,,,,,,,1,,,73,0
609025,note_off,385,0,1,,,,,,,,,1,,,72,0
609120,note_on,0,0,4,,,,,,,,,4,,,60,57
609120,note_on,95,0,1,,,,,,,,,1,,,70,57
609120,note_off,960,0,4,,,,,,,,,4,,,55,0
609600,note_on,0,0,5,,,,,,,,,5,,,53,59
609600,note_off,1440,0,5,,,,,,,,,5,,,52,0
609600,note_off,480,0,1,,,,,,,,,1,,,70,0
609600,note_on,0,0,1,,,,,,,,,1,,,68,59
610080,note_off,480,0,5,,,,,,,,,5,,,53,0
610080,note_on,0,0,1,,,,,,,,,1,,,67,62
610080,note_off,480,0,1,,,,,,,,,1,,,68,0
610080,note_on,0,0,5,,,,,,,,,5,,,55,62
610560,note_off,480,0,5,,,,,,,,,5,,,55,0
610560,note_on,0,0,5,,,,,,,,,5,,,56,66
610560,note_off,480,0,1,,,,,,,,,1,,,67,0
610560,note_on,0,0,1,,,,,,,,,1,,,66,66
610920,note_off,360,0,5,,,,,,,,,5,,,56,0
610920,note_off,1800,0,4,,,,,,,,,4,,,60,0
610927,note_off,367,0,1,,,,,,,,,1,,,66,0
611040,note_on,120,0,5,,,,,,,,,5,,,55,70
611040,set_tempo,9120,1,0,,,,,,240000,,,,,,,
611040,note_on,21600,0,2,,,,,,,,,2,,,63,70
611040,note_on,113,0,1,,,,,,,,,1,,,67,70
611520,note_off,480,0,2,,,,,,,,,2,,,63,0
611520,note_on,0,0,1,,,,,,,,,1,,,63,67
611520,note_off,480,0,1,,,,,,,,,1,,,67,0
611520,note_on,0,0,2,,,,,,,,,2,,,60,67
611520,note_off,480,0,5,,,,,,,,,5,,,55,0
612000,note_on,1080,0,4,,,,,,,,,4,,,53,62
612000,note_on,480,0,5,,,,,,,,,5,,,43,62
612000,note_off,480,0,1,,,,,,,,,1,,,63,0
612000,note_on,0,0,1,,,,,,,,,1,,,62,62
612000,note_off,480,0,2,,,,,,,,,2,,,60,0
612000,note_on,0,0,2,,,,,,,,,2,,,59,62
612360,note_off,360,0,4,,,,,,,,,4,,,53,0
612360,note_off,360,0,1,,,,,,,,,1,,,62,0
612360,note_off,360,0,2,,,,,,,,,2,,,59,0
612367,note_off,367,0,5,,,,,,,,,5,,,43,0
612440,set_tempo,1400,1,0,,,,,,241935,,,,,,,
612480,note_on,113,0,5,,,,,,,,,5,,,48,57
612480,set_tempo,40,1,0,,,,,,241935,,,,,,,
612480,note_on,120,0,1,,,,,,,,,1,,,60,57
612480,note_on,120,0,4,,,,,,,,,4,,,51,57
612840,note_off,360,0,4,,,,,,,,,4,,,51,0
612840,note_off,360,0,5,,,,,,,,,5,,,48,0
612847,note_off,367,0,1,,,,,,,,,1,,,60,0
613440,set_tempo,960,1,0,,,,,,240000,,,,,,,
613440,note_on,593,0,1,,,,,,,,,1,,,77,68
613560,note_on,0,0,1,,,,,,,,,1,,,75,68
613560,note_off,120,0,1,,,,,,,,,1,,,77,0
613680,note_off,120,0,1,,,,,,,,,1,,,75,0
613680,note_on,0,0,1,,,,,,,,,1,,,74,68
613800,note_off,120,0,1,,,,,,,,,1,,,74,0
613800,note_on,0,0,1,,,,,,,,,1,,,72,68
613896,note_off,96,0,1,,,,,,,,,1,,,72,0
613920,note_on,24,0,1,,,,,,,,,1,,,79,69
613920,note_on,0,0,5,,,,,,,,,5,,,59,69
613920,note_on,1080,0,5,,,,,,,,,5,,,62,69
614160,note_on,24720,0,3,,,,,,,,,3,,,55,69
614280,note_off,360,0,5,,,,,,,,,5,,,62,0
614287,note_off,7,0,5,,,,,,,,,5,,,59,0
614287,note_off,367,0,1,,,,,,,,,1,,,79,0
614352,note_off,192,0,3,,,,,,,,,3,,,55,0
614400,note_on,2040,0,2,,,,,,,,,2,,,67,69
614400,note_on,0,0,5,,,,,,,,,5,,,60,69
614400,note_on,113,0,5,,,,,,,,,5,,,63,69
614400,note_on,113,0,1,,,,,,,,,1,,,79,69
614640,note_on,288,0,3,,,,,,,,,3,,,55,70
614760,note_off,360,0,1,,,,,,,,,1,,,79,0
614760,note_off,0,0,5,,,,,,,,,5,,,63,0
614760,note_off,360,0,5,,,,,,,,,5,,,60,0
614760,note_off,360,0,2,,,,,,,,,2,,,67,0
614832,note_off,192,0,3,,,,,,,,,3,,,55,0
614880,note_on,120,0,5,,,,,,,,,5,,,65,70
614880,note_on,120,0,1,,,,,,,,,1,,,79,70
614880,note_on,120,0,2,,,,,,,,,2,,,67,70
614880,note_on,0,0,5,,,,,,,,,5,,,62,70
615120,note_on,288,0,3,,,,,,,,,3,,,55,70
615240,note_off,360,0,5,,,,,,,,,5,,,62,0
615247,note_off,367,0,2,,,,,,,,,2,,,67,0
615247,note_off,367,0,1,,,,,,,,,1,,,79,0
615247,note_off,7,0,5,,,,,,,,,5,,,65,0
615312,note_off,192,0,3,,,,,,,,,3,,,55,0
615360,note_on,113,0,2,,,,,,,,,2,,,67,71
615360,note_on,113,0,5,,,,,,,,,5,,,60,71
615360,note_on,0,0,5,,,,,,,,,5,,,63,71
615360,note_on,113,0,1,,,,,,,,,1,,,79,71
615600,note_on,288,0,3,,,,,,,,,3,,,55,71
615720,note_off,360,0,5,,,,,,,,,5,,,63,0
615727,note_off,7,0,5,,,,,,,,,5,,,60,0
615792,note_off,192,0,3,,,,,,,,,3,,,55,0
615840,note_on,0,0,5,,,,,,,,,5,,,60,72
615840,note_on,113,0,5,,,,,,,,,5,,,63,72
616080,note_on,288,0,3,,,,,,,,,3,,,55,72
616200,note_off,840,0,2,,,,,,,,,2,,,67,0
616200,note_off,840,0,1,,,,,,,,,1,,,79,0
616200,note_off,360,0,5,,,,,,,,,5,,,60,0
616207,note_off,7,0,5,,,,,,,,,5,,,63,0
616272,note_off,192,0,3,,,,,,,,,3,,,55,0
616320,note_on,113,0,5,,,,,,,,,5,,,60,72
616320,note_on,0,0,5,,,,,,,,,5,,,63,72
616320,note_on,120,0,1,,,,,,,,,1,,,77,72
616440,note_off,120,0,1,,,,,,,,,1,,,77,0
616440,note_on,0,0,1,,,,,,,,,1,,,75,73
616560,note_on,288,0,3,,,,,,,,,3,,,55,73
616560,note_off,120,0,1,,,,,,,,,1,,,75,0
616560,note_on,0,0,1,,,,,,,,,1,,,74,73
616680,note_off,120,0,1,,,,,,,,,1,,,74,0
616680,note_on,0,0,1,,,,,,,,,1,,,72,73
616680,note_off,360,0,5,,,,,,,,,5,,,63,0
616687,note_off,7,0,5,,,,,,,,,5,,,60,0
616752,note_off,192,0,3,,,,,,,,,3,,,55,0
616776,note_off,96,0,1,,,,,,,,,1,,,72,0
616800,note_on,113,0,5,,,,,,,,,5,,,62,73
616800,note_on,24,0,1,,,,,,,,,1,,,79,73
616800,note_on,0,0,5,,,,,,,,,5,,,59,73
617040,note_on,288,0,3,,,,,,,,,3,,,55,74
617160,note_off,360,0,5,,,,,,,,,5,,,59,0
617160,note_off,360,0,1,,,,,,,,,1,,,79,0
617167,note_off,7,0,5,,,,,,,,,5,,,62,0
617232,note_off,192,0,3,,,,,,,,,3,,,55,0
617280,note_on,1080,0,2,,,,,,,,,2,,,67,74
617280,note_on,120,0,1,,,,,,,,,1,,,79,74
617280,note_on,113,0,5,,,,,,,,,5,,,63,74
617280,note_on,0,0,5,,,,,,,,,5,,,60,74
617520,note_on,288,0,3,,,,,,,,,3,,,55,74
617640,note_off,360,0,5,,,,,,,,,5,,,60,0
617647,note_off,367,0,2,,,,,,,,,2,,,67,0
617647,note_off,7,0,5,,,,,,,,,5,,,63,0
617647,note_off,367,0,1,,,,,,,,,1,,,79,0
617712,note_off,192,0,3,,,,,,,,,3,,,55,0
617760,note_on,113,0,2,,,,,,,,,2,,,67,75
617760,note_on,113,0,1,,,,,,,,,1,,,79,75
617760,note_on,113,0,5,,,,,,,,,5,,,65,75
617760,note_on,0,0,5,,,,,,,,,5,,,62,75
618000,note_on,288,0,3,,,,,,,,,3,,,55,75
618120,note_off,360,0,1,,,,,,,,,1,,,79,0
618127,note_off,367,0,5,,,,,,,,,5,,,62,0
618127,note_off,0,0,5,,,,,,,,,5,,,65,0
618127,note_off,367,0,2,,,,,,,,,2,,,67,0
618192,note_off,192,0,3,,,,,,,,,3,,,55,0
618240,note_on,113,0,5,,,,,,,,,5,,,60,75
618240,note_on,0,0,5,,,,,,,,,5,,,63,75
618240,note_on,113,0,2,,,,,,,,,2,,,67,75
618240,note_on,120,0,1,,,,,,,,,1,,,79,75
618480,note_on,288,0,3,,,,,,,,,3,,,55,76
618600,note_off,360,0,5,,,,,,,,,5,,,60,0
618607,note_off,7,0,5,,,,,,,,,5,,,63,0
618672,note_off,192,0,3,,,,,,,,,3,,,55,0
618720,note_on,0,0,5,,,,,,,,,5,,,63,76
618720,note_on,113,0,5,,,,,,,,,5,,,60,76
618960,note_on,288,0,3,,,,,,,,,3,,,55,77
619072,note_off,352,0,5,,,,,,,,,5,,,63,0
619080,note_off,8,0,5,,,,,,,,,5,,,60,0
619080,note_off,840,0,1,,,,,,,,,1,,,79,0
619087,note_off,847,0,2,,,,,,,,,2,,,67,0
619152,note_off,192,0,3,,,,,,,,,3,,,55,0
619200,note_on,120,0,5,,,,,,,,,5,,,60,77
619200,note_on,0,0,5,,,,,,,,,5,,,63,77
619200,note_on,120,0,1,,,,,,,,,1,,,77,77
619320,note_off,120,0,1,,,,,,,,,1,,,77,0
619320,note_on,0,0,1,,,,,,,,,1,,,75,77
619440,note_on,0,0,1,,,,,,,,,1,,,74,77
619440,note_on,288,0,3,,,,,,,,,3,,,55,77
619440,note_off,120,0,1,,,,,,,,,1,,,75,0
619552,note_off,352,0,5,,,,,,,,,5,,,63,0
619560,note_on,0,0,1,,,,,,,,,1,,,72,78
619560,note_off,120,0,1,,,,,,,,,1,,,74,0
619567,note_off,15,0,5,,,,,,,,,5,,,60,0
619632,note_off,192,0,3,,,,,,,,,3,,,55,0
619656,note_off,96,0,1,,,,,,,,,1,,,72,0
619680,control_change,24,0,1,,,,,,,64,127,1,,,,
619680,control_change,113,0,5,,,,,,,64,127,5,,,,
619680,control_change,6840,0,4,,,,,,,64,127,4,,,,
619680,control_change,48,0,3,,,,,,,64,127,3,,,,
619680,control_change,593,0,2,,,,,,,64,127,2,,,,
619680,note_on,0,0,2,,,,,,,,,2,,,71,78
619705,note_off,25,0,2,,,,,,,,,2,,,71,0
619720,note_on,15,0,2,,,,,,,,,2,,,74,78
619745,note_off,25,0,2,,,,,,,,,2,,,74,0
619760,note_on,80,0,1,,,,,,,,,1,,,80,78
619785,note_off,25,0,1,,,,,,,,,1,,,80,0
620040,control_change,360,0,3,,,,,,,64,0,3,,,,
620040,control_change,360,0,5,,,,,,,64,0,5,,,,
620040,control_change,295,0,2,,,,,,,64,0,2,,,,
620040,control_change,360,0,4,,,,,,,64,0,4,,,,
620040,control_change,255,0,1,,,,,,,64,0,1,,,,
620160,note_on,0,0,5,,,,,,,,,5,,,41,79
620160,note_on,120,0,5,,,,,,,,,5,,,53,79
620470,note_off,0,0,5,,,,,,,,,5,,,53,0
620470,note_off,310,0,5,,,,,,,,,5,,,41,0
620640,note_on,0,0,5,,,,,,,,,5,,,53,79
620640,note_on,170,0,5,,,,,,,,,5,,,65,79
620950,note_off,0,0,5,,,,,,,,,5,,,65,0
620950,note_off,310,0,5,,,,,,,,,5,,,53,0
621120,control_change,1080,0,4,,,,,,,64,127,4,,,,
621120,control_change,1080,0,2,,,,,,,64,127,2,,,,
621120,note_on,0,0,2,,,,,,,,,2,,,72,80
621120,control_change,170,0,5,,,,,,,64,127,5,,,,
621120,control_change,1080,0,1,,,,,,,64,127,1,,,,
621120,control_change,1080,0,3,,,,,,,64,127,3,,,,
621145,note_off,25,0,2,,,,,,,,,2,,,72,0
621160,note_on,15,0,2,,,,,,,,,2,,,75,80
621185,note_off,25,0,2,,,,,,,,,2,,,75,0
621200,note_on,80,0,1,,,,,,,,,1,,,79,80
621225,note_off,25,0,1,,,,,,,,,1,,,79,0
621480,control_change,295,0,2,,,,,,,64,0,2,,,,
621480,control_change,255,0,1,,,,,,,64,0,1,,,,
621480,control_change,360,0,3,,,,,,,64,0,3,,,,
621480,control_change,360,0,4,,,,,,,64,0,4,,,,
621480,control_change,360,0,5,,,,,,,64,0,5,,,,
621600,note_on,120,0,5,,,,,,,,,5,,,51,81
621600,note_on,0,0,5,,,,,,,,,5,,,39,81
621910,note_off,0,0,5,,,,,,,,,5,,,51,0
621910,note_off,310,0,5,,,,,,,,,5,,,39,0
622080,note_on,0,0,5,,,,,,,,,5,,,51,82
622080,note_on,170,0,5,,,,,,,,,5,,,63,82
622390,note_off,310,0,5,,,,,,,,,5,,,51,0
622390,note_off,0,0,5,,,,,,,,,5,,,63,0
622560,note_on,0,0,5,,,,,,,,,5,,,62,84
622560,note_on,170,0,5,,,,,,,,,5,,,50,84
622870,note_off,0,0,5,,,,,,,,,5,,,50,0
622870,note_off,310,0,5,,,,,,,,,5,,,62,0
623040,note_on,0,0,2,,,,,,,,,2,,,74,86
623040,control_change,170,0,5,,,,,,,64,127,5,,,,
623040,control_change,1560,0,1,,,,,,,64,127,1,,,,
623040,control_change,1560,0,2,,,,,,,64,127,2,,,,
623040,control_change,1560,0,3,,,,,,,64,127,3,,,,
623040,control_change,1560,0,4,,,,,,,64,127,4,,,,
623065,note_off,25,0,2,,,,,,,,,2,,,74,0
623080,note_on,15,0,2,,,,,,,,,2,,,77,87
623105,note_off,25,0,2,,,,,,,,,2,,,77,0
623120,note_on,80,0,1,,,,,,,,,1,,,83,87
623145,note_off,25,0,1,,,,,,,,,1,,,83,0
623400,control_change,255,0,1,,,,,,,64,0,1,,,,
623400,control_change,360,0,5,,,,,,,64,0,5,,,,
623400,control_change,360,0,4,,,,,,,64,0,4,,,,
623400,control_change,360,0,3,,,,,,,64,0,3,,,,
623400,control_change,295,0,2,,,,,,,64,0,2,,,,
623520,control_change,120,0,1,,,,,,,64,127,1,,,,
623520,control_change,120,0,5,,,,,,,64,127,5,,,,
623520,control_change,120,0,4,,,,,,,64,127,4,,,,
623520,control_change,120,0,2,,,,,,,64,127,2,,,,
623520,note_on,0,0,2,,,,,,,,,2,,,77,89
623520,control_change,120,0,3,,,,,,,64,127,3,,,,
623545,note_off,25,0,2,,,,,,,,,2,,,77,0
623560,note_on,15,0,2,,,,,,,,,2,,,83,89
623585,note_off,25,0,2,,,,,,,,,2,,,83,0
623600,note_on,80,0,1,,,,,,,,,1,,,86,90
623625,note_off,25,0,1,,,,,,,,,1,,,86,0
623880,control_change,360,0,5,,,,,,,64,0,5,,,,
623880,control_change,360,0,4,,,,,,,64,0,4,,,,
623880,control_change,255,0,1,,,,,,,64,0,1,,,,
623880,control_change,295,0,2,,,,,,,64,0,2,,,,
623880,control_change,360,0,3,,,,,,,64,0,3,,,,
623940,set_tempo,10500,1,0,,,,,,244897,,,,,,,
624000,note_on,120,0,5,,,,,,,,,5,,,59,92
624000,set_tempo,60,1,0,,,,,,372670,,,,,,,
624000,note_on,0,0,5,,,,,,,,,5,,,47,92
624000,note_on,120,0,1,,,,,,,,,1,,,89,92
624000,note_on,0,0,2,,,,,,,,,2,,,79,92
624000,note_on,120,0,2,,,,,,,,,2,,,86,92
624385,note_off,385,0,5,,,,,,,,,5,,,47,0
624385,note_off,0,0,5,,,,,,,,,5,,,59,0
624385,note_off,385,0,1,,,,,,,,,1,,,89,0
624385,note_off,0,0,2,,,,,,,,,2,,,86,0
624385,note_off,385,0,2,,,,,,,,,2,,,79,0
624480,set_tempo,480,1,0,,,,,,845070,,,,,,,
625440,note_on,1055,0,1,,,,,,,,,1,,,75,60
625440,set_tempo,960,1,0,,,,,,240000,,,,,,,
626880,note_on,0,0,1,,,,,,,,,1,,,66,55
626880,note_on,2495,0,5,,,,,,,,,5,,,60,55
626880,note_off,1440,0,1,,,,,,,,,1,,,75,0
626880,note_on,3000,0,4,,,,,,,,,4,,,63,55
628200,note_off,1320,0,1,,,,,,,,,1,,,66,0
628200,note_off,1320,0,4,,,,,,,,,4,,,63,0
628200,note_off,1320,0,5,,,,,,,,,5,,,60,0
628320,note_on,120,0,4,,,,,,,,,4,,,62,55
628320,note_on,0,0,4,,,,,,,,,4,,,65,55
628320,note_on,120,0,1,,,,,,,,,1,,,67,55
628320,note_on,120,0,5,,,,,,,,,5,,,59,55
629040,note_off,720,0,1,,,,,,,,,1,,,67,0
629040,note_on,0,0,1,,,,,,,,,1,,,68,51
629280,note_off,960,0,5,,,,,,,,,5,,,59,0
629280,note_on,0,0,5,,,,,,,,,5,,,60,49
629280,note_off,960,0,4,,,,,,,,,4,,,65,0
629280,note_off,240,0,1,,,,,,,,,1,,,68,0
629280,note_on,0,0,4,,,,,,,,,4,,,63,49
629280,note_off,0,0,4,,,,,,,,,4,,,62,0
629280,note_on,0,0,1,,,,,,,,,1,,,67,49
629640,note_off,360,0,5,,,,,,,,,5,,,60,0
629640,note_off,360,0,4,,,,,,,,,4,,,63,0
629647,note_off,367,0,1,,,,,,,,,1,,,67,0
629760,note_on,113,0,1,,,,,,,,,1,,,67,52
629760,note_on,5375,0,2,,,,,,,,,2,,,63,52
629760,note_on,120,0,5,,,,,,,,,5,,,53,51
630000,note_on,0,0,2,,,,,,,,,2,,,62,50
630000,note_off,240,0,2,,,,,,,,,2,,,63,0
630000,note_on,0,0,1,,,,,,,,,1,,,65,50
630000,note_off,240,0,1,,,,,,,,,1,,,67,0
630145,note_off,385,0,5,,,,,,,,,5,,,53,0
630180,note_off,180,0,1,,,,,,,,,1,,,65,0
630192,note_off,192,0,2,,,,,,,,,2,,,62,0
630240,note_on,95,0,5,,,,,,,,,5,,,55,48
630240,note_on,60,0,1,,,,,,,,,1,,,63,48
630240,note_on,48,0,2,,,,,,,,,2,,,60,48
630600,note_off,360,0,1,,,,,,,,,1,,,63,0
630607,note_off,367,0,2,,,,,,,,,2,,,60,0
630625,note_off,385,0,5,,,,,,,,,5,,,55,0
630720,note_on,95,0,5,,,,,,,,,5,,,43,46
630720,note_on,113,0,2,,,,,,,,,2,,,59,46
630720,note_on,120,0,1,,,,,,,,,1,,,62,46
631080,note_off,360,0,2,,,,,,,,,2,,,59,0
631087,note_off,367,0,1,,,,,,,,,1,,,62,0
631105,note_off,385,0,5,,,,,,,,,5,,,43,0
631160,set_tempo,5720,1,0,,,,,,241935,,,,,,,
631200,note_on,113,0,1,,,,,,,,,1,,,60,43
631200,note_on,95,0,5,,,,,,,,,5,,,48,43
631567,note_off,367,0,1,,,,,,,,,1,,,60,0
631585,note_off,385,0,5,,,,,,,,,5,,,48,0
632160,note_on,593,0,1,,,,,,,,,1,,,77,68
632160,set_tempo,1000,1,0,,,,,,240000,,,,,,,
632280,note_on,0,0,1,,,,,,,,,1,,,75,68
632280,note_off,120,0,1,,,,,,,,,1,,,77,0
632400,note_off,120,0,1,,,,,,,,,1,,,75,0
632400,note_on,0,0,1,,,,,,,,,1,,,74,68
632520,note_off,120,0,1,,,,,,,,,1,,,74,0
632520,note_on,0,0,1,,,,,,,,,1,,,72,68
632616,note_off,96,0,1,,,,,,,,,1,,,72,0
632640,note_on,0,0,5,,,,,,,,,5,,,62,69
632640,note_on,24,0,1,,,,,,,,,1,,,79,69
632640,note_on,1055,0,5,,,,,,,,,5,,,59,69
632880,note_on,3240,0,4,,,,,,,,,4,,,55,69
633000,note_off,360,0,5,,,,,,,,,5,,,62,0
633007,note_off,367,0,1,,,,,,,,,1,,,79,0
633007,note_off,7,0,5,,,,,,,,,5,,,59,0
633072,note_off,192,0,4,,,,,,,,,4,,,55,0
633120,note_on,113,0,5,,,,,,,,,5,,,60,69
633120,note_on,113,0,1,,,,,,,,,1,,,79,69
633120,note_on,0,0,5,,,,,,,,,5,,,63,69
633120,note_on,2040,0,2,,,,,,,,,2,,,67,69
633360,note_on,288,0,4,,,,,,,,,4,,,55,70
633480,note_off,360,0,2,,,,,,,,,2,,,67,0
633480,note_off,360,0,1,,,,,,,,,1,,,79,0
633480,note_off,360,0,5,,,,,,,,,5,,,63,0
633480,note_off,0,0,5,,,,,,,,,5,,,60,0
633552,note_off,192,0,4,,,,,,,,,4,,,55,0
633600,note_on,120,0,5,,,,,,,,,5,,,62,70
633600,note_on,0,0,5,,,,,,,,,5,,,65,70
633600,note_on,120,0,2,,,,,,,,,2,,,67,70
633600,note_on,120,0,1,,,,,,,,,1,,,79,70
633840,note_on,288,0,4,,,,,,,,,4,,,55,71
633960,note_off,360,0,5,,,,,,,,,5,,,62,0
633967,note_off,367,0,2,,,,,,,,,2,,,67,0
633967,note_off,367,0,1,,,,,,,,,1,,,79,0
633967,note_off,7,0,5,,,,,,,,,5,,,65,0
634032,note_off,192,0,4,,,,,,,,,4,,,55,0
634080,note_on,0,0,5,,,,,,,,,5,,,60,71
634080,note_on,113,0,2,,,,,,,,,2,,,67,71
634080,note_on,113,0,1,,,,,,,,,1,,,79,71
634080,note_on,113,0,5,,,,,,,,,5,,,63,71
634320,note_on,288,0,4,,,,,,,,,4,,,55,71
634440,note_off,360,0,5,,,,,,,,,5,,,63,0
634447,note_off,7,0,5,,,,,,,,,5,,,60,0
634512,note_off,192,0,4,,,,,,,,,4,,,55,0
634560,note_on,113,0,5,,,,,,,,,5,,,60,72
634560,note_on,0,0,5,,,,,,,,,5,,,63,72
634800,note_on,288,0,4,,,,,,,,,4,,,55,72
634920,note_off,840,0,1,,,,,,,,,1,,,79,0
634920,note_off,360,0,5,,,,,,,,,5,,,60,0
634920,note_off,840,0,2,,,,,,,,,2,,,67,0
634927,note_off,7,0,5,,,,,,,,,5,,,63,0
634992,note_off,192,0,4,,,,,,,,,4,,,55,0
635040,note_on,113,0,5,,,,,,,,,5,,,63,73
635040,note_on,0,0,5,,,,,,,,,5,,,60,73
635040,note_on,120,0,1,,,,,,,,,1,,,77,73
635160,note_on,0,0,1,,,,,,,,,1,,,75,73
635160,note_off,120,0,1,,,,,,,,,1,,,77,0
635280,note_off,120,0,1,,,,,,,,,1,,,75,0
635280,note_on,0,0,1,,,,,,,,,1,,,74,73
635280,note_on,288,0,4,,,,,,,,,4,,,55,73
635400,note_on,0,0,1,,,,,,,,,1,,,72,73
635400,note_off,120,0,1,,,,,,,,,1,,,74,0
635400,note_off,360,0,5,,,,,,,,,5,,,63,0
635407,note_off,7,0,5,,,,,,,,,5,,,60,0
635472,note_off,192,0,4,,,,,,,,,4,,,55,0
635496,note_off,96,0,1,,,,,,,,,1,,,72,0
635520,note_on,24,0,1,,,,,,,,,1,,,79,73
635520,note_on,0,0,5,,,,,,,,,5,,,62,73
635520,note_on,113,0,5,,,,,,,,,5,,,59,73
635760,note_on,288,0,4,,,,,,,,,4,,,55,74
635880,note_off,360,0,5,,,,,,,,,5,,,59,0
635880,note_off,360,0,1,,,,,,,,,1,,,79,0
635887,note_off,7,0,5,,,,,,,,,5,,,62,0
635952,note_off,192,0,4,,,,,,,,,4,,,55,0
636000,note_on,120,0,1,,,,,,,,,1,,,79,74
636000,note_on,113,0,5,,,,,,,,,5,,,60,74
636000,note_on,1080,0,2,,,,,,,,,2,,,67,74
636000,note_on,0,0,5,,,,,,,,,5,,,63,74
636240,note_on,288,0,4,,,,,,,,,4,,,55,74
636360,note_off,360,0,5,,,,,,,,,5,,,60,0
636367,note_off,7,0,5,,,,,,,,,5,,,63,0
636367,note_off,367,0,2,,,,,,,,,2,,,67,0
636367,note_off,367,0,1,,,,,,,,,1,,,79,0
636432,note_off,192,0,4,,,,,,,,,4,,,55,0
636480,note_on,113,0,2,,,,,,,,,2,,,67,75
636480,note_on,113,0,5,,,,,,,,,5,,,62,75
636480,note_on,113,0,1,,,,,,,,,1,,,79,75
636480,note_on,0,0,5,,,,,,,,,5,,,65,75
636720,note_on,288,0,4,,,,,,,,,4,,,55,75
636840,note_off,360,0,1,,,,,,,,,1,,,79,0
636847,note_off,0,0,5,,,,,,,,,5,,,62,0
636847,note_off,367,0,5,,,,,,,,,5,,,65,0
636847,note_off,367,0,2,,,,,,,,,2,,,67,0
636912,note_off,192,0,4,,,,,,,,,4,,,55,0
636960,note_on,120,0,1,,,,,,,,,1,,,79,76
636960,note_on,0,0,5,,,,,,,,,5,,,60,76
636960,note_on,113,0,2,,,,,,,,,2,,,67,76
636960,note_on,113,0,5,,,,,,,,,5,,,63,76
637200,note_on,288,0,4,,,,,,,,,4,,,55,76
637320,note_off,360,0,5,,,,,,,,,5,,,60,0
637327,note_off,7,0,5,,,,,,,,,5,,,63,0
637392,note_off,192,0,4,,,,,,,,,4,,,55,0
637440,note_on,113,0,5,,,,,,,,,5,,,63,76
637440,note_on,0,0,5,,,,,,,,,5,,,60,76
637680,note_on,288,0,4,,,,,,,,,4,,,55,77
637792,note_off,352,0,5,,,,,,,,,5,,,63,0
637800,note_off,840,0,1,,,,,,,,,1,,,79,0
637800,note_off,8,0,5,,,,,,,,,5,,,60,0
637807,note_off,847,0,2,,,,,,,,,2,,,67,0
637872,note_off,192,0,4,,,,,,,,,4,,,55,0
637920,note_on,120,0,1,,,,,,,,,1,,,77,77
637920,note_on,0,0,5,,,,,,,,,5,,,60,77
637920,note_on,120,0,5,,,,,,,,,5,,,63,77
638040,note_off,120,0,1,,,,,,,,,1,,,77,0
638040,note_on,0,0,1,,,,,,,,,1,,,75,77
638160,note_on,288,0,4,,,,,,,,,4,,,55,78
638160,note_off,120,0,1,,,,,,,,,1,,,75,0
638160,note_on,0,0,1,,,,,,,,,1,,,74,78
638272,note_off,352,0,5,,,,,,,,,5,,,63,0
638280,note_on,0,0,1,,,,,,,,,1,,,72,78
638280,note_off,120,0,1,,,,,,,,,1,,,74,0
638287,note_off,15,0,5,,,,,,,,,5,,,60,0
638352,note_off,192,0,4,,,,,,,,,4,,,55,0
638376,note_off,96,0,1,,,,,,,,,1,,,72,0
638400,control_change,593,0,2,,,,,,,64,127,2,,,,
638400,control_change,24,0,1,,,,,,,64,127,1,,,,
638400,control_change,14520,0,3,,,,,,,64,127,3,,,,
638400,control_change,48,0,4,,,,,,,64,127,4,,,,
638400,note_on,0,0,2,,,,,,,,,2,,,71,78
638400,control_change,113,0,5,,,,,,,64,127,5,,,,
638425,note_off,25,0,2,,,,,,,,,2,,,71,0
638440,note_on,15,0,2,,,,,,,,,2,,,74,78
638465,note_off,25,0,2,,,,,,,,,2,,,74,0
638480,note_on,80,0,1,,,,,,,,,1,,,80,78
638505,note_off,25,0,1,,,,,,,,,1,,,80,0
638760,control_change,295,0,2,,,,,,,64,0,2,,,,
638760,control_change,360,0,3,,,,,,,64,0,3,,,,
638760,control_change,360,0,4,,,,,,,64,0,4,,,,
638760,control_change,360,0,5,,,,,,,64,0,5,,,,
638760,control_change,255,0,1,,,,,,,64,0,1,,,,
638880,note_on,0,0,5,,,,,,,,,5,,,53,79
638880,note_on,120,0,5,,,,,,,,,5,,,41,79
639190,note_off,0,0,5,,,,,,,,,5,,,41,0
639190,note_off,310,0,5,,,,,,,,,5,,,53,0
639360,note_on,0,0,5,,,,,,,,,5,,,65,80
639360,note_on,170,0,5,,,,,,,,,5,,,53,80
639670,note_off,310,0,5,,,,,,,,,5,,,65,0
639670,note_off,0,0,5,,,,,,,,,5,,,53,0
639840,control_change,1080,0,3,,,,,,,64,127,3,,,,
639840,control_change,1080,0,2,,,,,,,64,127,2,,,,
639840,note_on,0,0,2,,,,,,,,,2,,,72,80
639840,control_change,1080,0,4,,,,,,,64,127,4,,,,
639840,control_change,1080,0,1,,,,,,,64,127,1,,,,
639840,control_change,170,0,5,,,,,,,64,127,5,,,,
639865,note_off,25,0,2,,,,,,,,,2,,,72,0
639880,note_on,15,0,2,,,,,,,,,2,,,75,80
639905,note_off,25,0,2,,,,,,,,,2,,,75,0
639920,note_on,80,0,1,,,,,,,,,1,,,79,80
639945,note_off,25,0,1,,,,,,,,,1,,,79,0
640200,control_change,360,0,4,,,,,,,64,0,4,,,,
640200,control_change,360,0,5,,,,,,,64,0,5,,,,
640200,control_change,255,0,1,,,,,,,64,0,1,,,,
640200,control_change,295,0,2,,,,,,,64,0,2,,,,
640200,control_change,360,0,3,,,,,,,64,0,3,,,,
640320,note_on,120,0,5,,,,,,,,,5,,,39,81
640320,note_on,0,0,5,,,,,,,,,5,,,51,81
640630,note_off,310,0,5,,,,,,,,,5,,,51,0
640630,note_off,0,0,5,,,,,,,,,5,,,39,0
640800,note_on,0,0,5,,,,,,,,,5,,,63,82
640800,note_on,170,0,5,,,,,,,,,5,,,51,82
641110,note_off,0,0,5,,,,,,,,,5,,,51,0
641110,note_off,310,0,5,,,,,,,,,5,,,63,0
641280,note_on,0,0,5,,,,,,,,,5,,,50,86
641280,note_on,170,0,5,,,,,,,,,5,,,62,86
641590,note_off,310,0,5,,,,,,,,,5,,,50,0
641590,note_off,0,0,5,,,,,,,,,5,,,62,0
641760,control_change,1560,0,1,,,,,,,64,127,1,,,,
641760,control_change,1560,0,4,,,,,,,64,127,4,,,,
641760,note_on,0,0,2,,,,,,,,,2,,,74,89
641760,control_change,1560,0,3,,,,,,,64,127,3,,,,
641760,control_change,170,0,5,,,,,,,64,127,5,,,,
641760,control_change,1560,0,2,,,,,,,64,127,2,,,,
641785,note_off,25,0,2,,,,,,,,,2,,,74,0
641800,note_on,15,0,2,,,,,,,,,2,,,77,89
641825,note_off,25,0,2,,,,,,,,,2,,,77,0
641840,note_on,80,0,1,,,,,,,,,1,,,83,89
641865,note_off,25,0,1,,,,,,,,,1,,,83,0
642120,control_change,360,0,5,,,,,,,64,0,5,,,,
642120,control_change,295,0,2,,,,,,,64,0,2,,,,
642120,control_change,360,0,4,,,,,,,64,0,4,,,,
642120,control_change,255,0,1,,,,,,,64,0,1,,,,
642120,control_change,360,0,3,,,,,,,64,0,3,,,,
642240,control_change,120,0,1,,,,,,,64,127,1,,,,
642240,control_change,120,0,5,,,,,,,64,127,5,,,,
642240,control_change,120,0,2,,,,,,,64,127,2,,,,
642240,note_on,0,0,2,,,,,,,,,2,,,77,92
642240,control_change,120,0,4,,,,,,,64,127,4,,,,
642240,control_change,120,0,3,,,,,,,64,127,3,,,,
642265,note_off,25,0,2,,,,,,,,,2,,,77,0
642280,note_on,15,0,2,,,,,,,,,2,,,83,92
642305,note_off,25,0,2,,,,,,,,,2,,,83,0
642320,note_on,80,0,1,,,,,,,,,1,,,86,92
642345,note_off,25,0,1,,,,,,,,,1,,,86,0
642600,control_change,360,0,3,,,,,,,64,0,3,,,,
642600,control_change,360,0,5,,,,,,,64,0,5,,,,
642600,control_change,255,0,1,,,,,,,64,0,1,,,,
642600,control_change,360,0,4,,,,,,,64,0,4,,,,
642600,control_change,295,0,2,,,,,,,64,0,2,,,,
642660,set_tempo,10500,1,0,,,,,,244897,,,,,,,
642720,note_on,120,0,1,,,,,,,,,1,,,89,95
642720,note_on,0,0,5,,,,,,,,,5,,,59,95
642720,note_on,120,0,2,,,,,,,,,2,,,86,95
642720,note_on,0,0,2,,,,,,,,,2,,,79,95
642720,note_on,120,0,5,,,,,,,,,5,,,47,95
642720,set_tempo,60,1,0,,,,,,372670,,,,,,,
643105,note_off,385,0,5,,,,,,,,,5,,,59,0
643105,note_off,385,0,2,,,,,,,,,2,,,79,0
643105,note_off,0,0,2,,,,,,,,,2,,,86,0
643105,note_off,0,0,5,,,,,,,,,5,,,47,0
643105,note_off,385,0,1,,,,,,,,,1,,,89,0
643200,set_tempo,480,1,0,,,,,,845070,,,,,,,
644160,set_tempo,960,1,0,,,,,,240000,,,,,,,
644160,note_on,1055,0,1,,,,,,,,,1,,,75,64
645600,note_off,1440,0,1,,,,,,,,,1,,,75,0
645600,note_on,2495,0,5,,,,,,,,,5,,,60,59
645600,note_on,3000,0,4,,,,,,,,,4,,,63,59
645600,note_on,0,0,1,,,,,,,,,1,,,66,59
646920,note_off,1320,0,4,,,,,,,,,4,,,63,0
646920,note_off,1320,0,1,,,,,,,,,1,,,66,0
646920,note_off,1320,0,5,,,,,,,,,5,,,60,0
647040,note_on,120,0,4,,,,,,,,,4,,,65,61
647040,note_on,120,0,1,,,,,,,,,1,,,67,61
647040,note_on,120,0,5,,,,,,,,,5,,,59,61
647040,note_on,0,0,4,,,,,,,,,4,,,62,61
647760,note_off,720,0,1,,,,,,,,,1,,,67,0
647760,note_on,0,0,1,,,,,,,,,1,,,68,54
648000,note_on,0,0,4,,,,,,,,,4,,,63,53
648000,note_off,0,0,4,,,,,,,,,4,,,65,0
648000,note_off,960,0,4,,,,,,,,,4,,,62,0
648000,note_on,0,0,5,,,,,,,,,5,,,60,53
648000,note_off,960,0,5,,,,,,,,,5,,,59,0
648000,note_on,0,0,1,,,,,,,,,1,,,67,53
648000,note_off,240,0,1,,,,,,,,,1,,,68,0
648360,note_off,360,0,5,,,,,,,,,5,,,60,0
648360,note_off,360,0,4,,,,,,,,,4,,,63,0
648367,note_off,367,0,1,,,,,,,,,1,,,67,0
648480,note_on,113,0,1,,,,,,,,,1,,,67,55
648480,note_on,120,0,5,,,,,,,,,5,,,53,53
648480,note_on,5375,0,2,,,,,,,,,2,,,63,55
648720,note_on,0,0,2,,,,,,,,,2,,,62,53
648720,note_on,0,0,1,,,,,,,,,1,,,65,53
648720,note_off,240,0,1,,,,,,,,,1,,,67,0
648720,note_off,240,0,2,,,,,,,,,2,,,63,0
648865,note_off,385,0,5,,,,,,,,,5,,,53,0
648900,note_off,180,0,1,,,,,,,,,1,,,65,0
648912,note_off,192,0,2,,,,,,,,,2,,,62,0
648960,note_on,48,0,2,,,,,,,,,2,,,60,52
648960,note_on,95,0,5,,,,,,,,,5,,,55,49
648960,note_on,60,0,1,,,,,,,,,1,,,63,52
649320,note_off,360,0,1,,,,,,,,,1,,,63,0
649327,note_off,367,0,2,,,,,,,,,2,,,60,0
649345,note_off,385,0,5,,,,,,,,,5,,,55,0
649440,note_on,120,0,1,,,,,,,,,1,,,62,48
649440,note_on,95,0,5,,,,,,,,,5,,,43,46
649440,note_on,113,0,2,,,,,,,,,2,,,59,48
649800,note_off,360,0,2,,,,,,,,,2,,,59,0
649807,note_off,367,0,1,,,,,,,,,1,,,62,0
649825,note_off,385,0,5,,,,,,,,,5,,,43,0
649880,set_tempo,5720,1,0,,,,,,241935,,,,,,,
649920,note_on,113,0,1,,,,,,,,,1,,,60,45
649920,note_on,95,0,5,,,,,,,,,5,,,48,42
650287,note_off,367,0,1,,,,,,,,,1,,,60,0
650305,note_off,385,0,5,,,,,,,,,5,,,48,0
651360,note_on,0,0,5,,,,,,,,,5,,,34,73
651360,note_on,1055,0,5,,,,,,,,,5,,,46,73
651360,note_on,1560,0,2,,,,,,,,,2,,,58,68
651360,note_on,0,0,2,,,,,,,,,2,,,56,68
651360,set_tempo,1480,1,0,,,,,,1034482,,,,,,,
651360,note_on,1073,0,1,,,,,,,,,1,,,62,68
651360,note_on,0,0,2,,,,,,,,,2,,,53,68
652680,note_off,1320,0,2,,,,,,,,,2,,,58,0
652687,note_off,0,0,2,,,,,,,,,2,,,56,0
652687,note_off,1327,0,1,,,,,,,,,1,,,62,0
652687,note_off,1327,0,5,,,,,,,,,5,,,34,0
652687,note_off,0,0,5,,,,,,,,,5,,,46,0
652687,note_off,7,0,2,,,,,,,,,2,,,53,0
652800,note_on,113,0,5,,,,,,,,,5,,,51,34
652800,set_tempo,1440,1,0,,,,,,240000,,,,,,,
653040,note_on,10440,0,3,,,,,,,,,3,,,55,34
653280,note_on,0,0,3,,,,,,,,,3,,,58,35
653280,note_off,240,0,3,,,,,,,,,3,,,55,0
653520,note_on,0,0,3,,,,,,,,,3,,,55,35
653520,note_off,240,0,3,,,,,,,,,3,,,58,0
653760,note_on,0,0,3,,,,,,,,,3,,,58,36
653760,note_off,240,0,3,,,,,,,,,3,,,55,0
653760,note_off,960,0,5,,,,,,,,,5,,,51,0
654000,note_on,0,0,3,,,,,,,,,3,,,55,37
654000,note_off,240,0,3,,,,,,,,,3,,,58,0
654192,note_off,192,0,3,,,,,,,,,3,,,55,0
654240,note_on,480,0,5,,,,,,,,,5,,,51,37
654480,note_on,288,0,3,,,,,,,,,3,,,55,38
654720,note_off,240,0,3,,,,,,,,,3,,,55,0
654720,note_on,0,0,3,,,,,,,,,3,,,58,38
654720,note_on,2033,0,1,,,,,,,,,1,,,70,38
654960,note_on,0,0,3,,,,,,,,,3,,,55,39
654960,note_off,240,0,3,,,,,,,,,3,,,58,0
655105,note_off,385,0,1,,,,,,,,,1,,,70,0
655200,note_on,0,0,3,,,,,,,,,3,,,58,39
655200,note_off,960,0,5,,,,,,,,,5,,,51,0
655200,note_off,240,0,3,,,,,,,,,3,,,55,0
655200,note_on,95,0,1,,,,,,,,,1,,,70,39
655440,note_on,0,0,3,,,,,,,,,3,,,55,40
655440,note_off,240,0,3,,,,,,,,,3,,,58,0
655585,note_off,385,0,1,,,,,,,,,1,,,70,0
655632,note_off,192,0,3,,,,,,,,,3,,,55,0
655680,note_on,95,0,1,,,,,,,,,1,,,70,40
655680,note_on,480,0,5,,,,,,,,,5,,,51,40
655920,note_off,240,0,1,,,,,,,,,1,,,70,0
655920,note_on,0,0,1,,,,,,,,,1,,,72,41
655920,note_on,288,0,3,,,,,,,,,3,,,53,41
656000,note_off,80,0,1,,,,,,,,,1,,,72,0
656000,note_on,0,0,1,,,,,,,,,1,,,70,41
656080,note_off,80,0,1,,,,,,,,,1,,,70,0
656080,note_on,0,0,1,,,,,,,,,1,,,69,41
656160,note_off,80,0,1,,,,,,,,,1,,,69,0
656160,note_on,0,0,1,,,,,,,,,1,,,70,41
656160,note_off,240,0,3,,,,,,,,,3,,,53,0
656160,note_on,0,0,3,,,,,,,,,3,,,56,41
656400,note_off,240,0,3,,,,,,,,,3,,,56,0
656400,note_on,0,0,3,,,,,,,,,3,,,53,42
656400,note_on,0,0,1,,,,,,,,,1,,,72,42
656400,note_off,240,0,1,,,,,,,,,1,,,70,0
656640,note_off,240,0,3,,,,,,,,,3,,,53,0
656640,note_on,0,0,3,,,,,,,,,3,,,56,43
656640,note_off,960,0,5,,,,,,,,,5,,,51,0
656640,note_on,0,0,1,,,,,,,,,1,,,70,43
656640,note_off,240,0,1,,,,,,,,,1,,,72,0
656880,note_off,240,0,3,,,,,,,,,3,,,56,0
656880,note_on,0,0,3,,,,,,,,,3,,,53,43
657015,note_off,375,0,1,,,,,,,,,1,,,70,0
657072,note_off,192,0,3,,,,,,,,,3,,,53,0
657120,note_on,480,0,5,,,,,,,,,5,,,51,44
657120,note_on,105,0,1,,,,,,,,,1,,,80,44
657120,set_tempo,4320,1,0,,,,,,240000,,,,,,,
657360,note_on,288,0,3,,,,,,,,,3,,,53,44
657600,note_on,0,0,3,,,,,,,,,3,,,56,45
657600,note_off,240,0,3,,,,,,,,,3,,,53,0
657840,note_on,0,0,3,,,,,,,,,3,,,53,45
657840,note_off,240,0,3,,,,,,,,,3,,,56,0
658080,note_on,0,0,1,,,,,,,,,1,,,74,46
658080,note_off,960,0,1,,,,,,,,,1,,,80,0
658080,note_off,960,0,5,,,,,,,,,5,,,51,0
658080,note_off,240,0,3,,,,,,,,,3,,,53,0
658080,note_on,0,0,3,,,,,,,,,3,,,56,46
658320,note_on,0,0,3,,,,,,,,,3,,,53,48
658320,note_off,240,0,3,,,,,,,,,3,,,56,0
658440,note_off,360,0,1,,,,,,,,,1,,,74,0
658512,note_off,192,0,3,,,,,,,,,3,,,53,0
658560,note_on,120,0,1,,,,,,,,,1,,,77,48
658560,note_on,480,0,5,,,,,,,,,5,,,51,47
658800,note_on,288,0,3,,,,,,,,,3,,,55,45
659040,note_off,240,0,3,,,,,,,,,3,,,55,0
659040,note_on,0,0,3,,,,,,,,,3,,,58,43
659280,note_on,0,0,3,,,,,,,,,3,,,55,42
659280,note_off,240,0,3,,,,,,,,,3,,,58,0
659520,note_on,0,0,3,,,,,,,,,3,,,58,40
659520,note_off,960,0,5,,,,,,,,,5,,,51,0
659520,note_off,240,0,3,,,,,,,,,3,,,55,0
659520,note_off,960,0,1,,,,,,,,,1,,,77,0
659520,note_on,0,0,1,,,,,,,,,1,,,75,40
659760,note_on,0,0,3,,,,,,,,,3,,,55,38
659760,note_off,240,0,3,,,,,,,,,3,,,58,0
659880,note_off,360,0,1,,,,,,,,,1,,,75,0
659952,note_off,192,0,3,,,,,,,,,3,,,55,0
660000,note_on,480,0,5,,,,,,,,,5,,,51,38
660000,set_tempo,2880,1,0,,,,,,240000,,,,,,,
660240,note_on,288,0,3,,,,,,,,,3,,,55,39
660480,note_on,600,0,1,,,,,,,,,1,,,70,40
660480,note_off,240,0,3,,,,,,,,,3,,,55,0
660480,note_on,0,0,3,,,,,,,,,3,,,58,40
660720,note_on,0,0,3,,,,,,,,,3,,,55,41
660720,note_off,240,0,3,,,,,,,,,3,,,58,0
660865,note_off,385,0,1,,,,,,,,,1,,,70,0
660960,note_on,95,0,1,,,,,,,,,1,,,70,42
660960,note_off,960,0,5,,,,,,,,,5,,,51,0
660960,note_off,240,0,3,,,,,,,,,3,,,55,0
660960,note_on,0,0,3,,,,,,,,,3,,,58,42
661200,note_on,0,0,3,,,,,,,,,3,,,55,43
661200,note_off,240,0,3,,,,,,,,,3,,,58,0
661345,note_off,385,0,1,,,,,,,,,1,,,70,0
661392,note_off,192,0,3,,,,,,,,,3,,,55,0
661440,note_on,480,0,5,,,,,,,,,5,,,51,44
661440,note_on,95,0,1,,,,,,,,,1,,,69,44
661680,note_on,288,0,3,,,,,,,,,3,,,53,45
661680,note_off,240,0,1,,,,,,,,,1,,,69,0
661680,note_on,0,0,1,,,,,,,,,1,,,70,45
661920,note_off,240,0,3,,,,,,,,,3,,,53,0
661920,note_on,0,0,1,,,,,,,,,1,,,72,46
661920,note_off,240,0,1,,,,,,,,,1,,,70,0
661920,note_on,0,0,3,,,,,,,,,3,,,56,46
662160,note_off,240,0,3,,,,,,,,,3,,,56,0
662160,note_on,0,0,1,,,,,,,,,1,,,73,48
662160,note_on,0,0,3,,,,,,,,,3,,,53,48
662160,note_off,240,0,1,,,,,,,,,1,,,72,0
662400,note_on,0,0,1,,,,,,,,,1,,,74,49
662400,note_off,240,0,1,,,,,,,,,1,,,73,0
662400,note_off,240,0,3,,,,,,,,,3,,,53,0
662400,note_off,960,0,5,,,,,,,,,5,,,51,0
662400,note_on,0,0,3,,,,,,,,,3,,,56,49
662640,note_off,240,0,1,,,,,,,,,1,,,74,0
662640,note_on,0,0,1,,,,,,,,,1,,,75,50
662640,note_on,0,0,3,,,,,,,,,3,,,53,50
662640,note_off,240,0,3,,,,,,,,,3,,,56,0
662832,note_off,192,0,3,,,,,,,,,3,,,53,0
662880,note_on,480,0,5,,,,,,,,,5,,,51,51
662880,note_off,240,0,1,,,,,,,,,1,,,75,0
662880,note_on,0,0,1,,,,,,,,,1,,,76,51
663120,note_off,240,0,1,,,,,,,,,1,,,76,0
663120,note_on,0,0,1,,,,,,,,,1,,,77,52
663120,note_on,288,0,3,,,,,,,,,3,,,53,52
663360,note_on,0,0,1,,,,,,,,,1,,,78,53
663360,note_off,240,0,1,,,,,,,,,1,,,77,0
663360,note_on,0,0,3,,,,,,,,,3,,,56,53
663360,note_off,240,0,3,,,,,,,,,3,,,53,0
663600,note_off,240,0,3,,,,,,,,,3,,,56,0
663600,note_on,0,0,3,,,,,,,,,3,,,53,54
663600,note_on,0,0,1,,,,,,,,,1,,,79,54
663600,note_off,240,0,1,,,,,,,,,1,,,78,0
663840,note_on,0,0,3,,,,,,,,,3,,,56,55
663840,note_off,240,0,3,,,,,,,,,3,,,53,0
663840,note_off,960,0,5,,,,,,,,,5,,,51,0
663840,note_on,0,0,1,,,,,,,,,1,,,80,55
663840,note_off,240,0,1,,,,,,,,,1,,,79,0
664080,note_off,240,0,1,,,,,,,,,1,,,80,0
664080,note_on,0,0,3,,,,,,,,,3,,,53,56
664080,note_off,240,0,3,,,,,,,,,3,,,56,0
664080,note_on,0,0,1,,,,,,,,,1,,,74,56
664272,note_off,192,0,1,,,,,,,,,1,,,74,0
664272,note_off,192,0,3,,,,,,,,,3,,,53,0
664320,note_on,48,0,1,,,,,,,,,1,,,77,58
664320,set_tempo,4320,1,0,,,,,,240000,,,,,,,
664320,note_on,480,0,5,,,,,,,,,5,,,51,57
664560,note_on,288,0,3,,,,,,,,,3,,,55,53
664800,note_on,0,0,3,,,,,,,,,3,,,58,51
664800,note_off,240,0,3,,,,,,,,,3,,,55,0
665040,note_off,240,0,3,,,,,,,,,3,,,58,0
665040,note_on,0,0,3,,,,,,,,,3,,,55,48
665280,note_off,960,0,5,,,,,,,,,5,,,51,0
665280,note_on,0,0,1,,,,,,,,,1,,,75,46
665280,note_off,960,0,1,,,,,,,,,1,,,77,0
665280,note_off,240,0,3,,,,,,,,,3,,,55,0
665280,note_on,0,0,3,,,,,,,,,3,,,58,46
665520,note_on,0,0,3,,,,,,,,,3,,,55,43
665520,note_off,240,0,3,,,,,,,,,3,,,58,0
665640,note_off,360,0,1,,,,,,,,,1,,,75,0
665712,note_off,192,0,3,,,,,,,,,3,,,55,0
665760,set_tempo,1440,1,0,,,,,,240000,,,,,,,
665760,note_on,480,0,5,,,,,,,,,5,,,51,45
666000,note_on,288,0,3,,,,,,,,,3,,,55,46
666240,note_on,600,0,1,,,,,,,,,1,,,75,48
666240,note_off,240,0,3,,,,,,,,,3,,,55,0
666240,note_on,0,0,3,,,,,,,,,3,,,58,48
666480,note_off,240,0,3,,,,,,,,,3,,,58,0
666480,note_on,0,0,3,,,,,,,,,3,,,55,50
666625,note_off,385,0,1,,,,,,,,,1,,,75,0
666720,note_off,240,0,3,,,,,,,,,3,,,55,0
666720,note_on,0,0,3,,,,,,,,,3,,,58,51
666720,note_on,95,0,1,,,,,,,,,1,,,75,51
666720,note_off,960,0,5,,,,,,,,,5,,,51,0
666960,note_on,0,0,3,,,,,,,,,3,,,55,53
666960,note_off,240,0,3,,,,,,,,,3,,,58,0
667105,note_off,385,0,1,,,,,,,,,1,,,75,0
667152,note_off,192,0,3,,,,,,,,,3,,,55,0
667200,note_on,480,0,5,,,,,,,,,5,,,47,55
667200,note_on,95,0,1,,,,,,,,,1,,,75,55
667440,note_on,288,0,3,,,,,,,,,3,,,51,56
667680,note_off,240,0,3,,,,,,,,,3,,,51,0
667680,note_on,0,0,3,,,,,,,,,3,,,57,58
667920,note_off,240,0,3,,,,,,,,,3,,,57,0
667920,note_on,0,0,3,,,,,,,,,3,,,51,60
667920,note_on,0,0,1,,,,,,,,,1,,,77,60
667920,note_off,720,0,1,,,,,,,,,1,,,75,0
668000,note_on,0,0,1,,,,,,,,,1,,,75,60
668000,note_off,80,0,1,,,,,,,,,1,,,77,0
668080,note_on,0,0,1,,,,,,,,,1,,,74,61
668080,note_off,80,0,1,,,,,,,,,1,,,75,0
668160,note_off,240,0,3,,,,,,,,,3,,,51,0
668160,note_on,0,0,3,,,,,,,,,3,,,57,61
668160,note_off,80,0,1,,,,,,,,,1,,,74,0
668160,note_on,0,0,1,,,,,,,,,1,,,75,61
668160,note_off,960,0,5,,,,,,,,,5,,,47,0
668315,note_off,155,0,1,,,,,,,,,1,,,75,0
668400,note_on,85,0,1,,,,,,,,,1,,,77,63
668400,note_on,0,0,3,,,,,,,,,3,,,51,63
668400,note_off,240,0,3,,,,,,,,,3,,,57,0
668555,note_off,155,0,1,,,,,,,,,1,,,77,0
668592,note_off,192,0,3,,,,,,,,,3,,,51,0
668640,note_on,480,0,5,,,,,,,,,5,,,47,68
668640,note_on,85,0,1,,,,,,,,,1,,,78,68
668880,note_on,288,0,3,,,,,,,,,3,,,51,65
669120,note_on,0,0,3,,,,,,,,,3,,,54,62
669120,note_off,240,0,3,,,,,,,,,3,,,51,0
669360,note_on,0,0,3,,,,,,,,,3,,,51,59
669360,note_off,240,0,3,,,,,,,,,3,,,54,0
669600,note_off,240,0,3,,,,,,,,,3,,,51,0
669600,note_on,0,0,3,,,,,,,,,3,,,54,57
669600,note_on,0,0,1,,,,,,,,,1,,,69,57
669600,note_off,960,0,1,,,,,,,,,1,,,78,0
669600,note_off,960,0,5,,,,,,,,,5,,,47,0
669840,note_off,240,0,3,,,,,,,,,3,,,54,0
669840,note_on,0,0,3,,,,,,,,,3,,,51,54
669960,note_off,360,0,1,,,,,,,,,1,,,69,0
670032,note_off,192,0,3,,,,,,,,,3,,,51,0
670040,set_tempo,4280,1,0,,,,,,241935,,,,,,,
670080,note_on,120,0,1,,,,,,,,,1,,,70,51
670080,note_on,480,0,5,,,,,,,,,5,,,46,51
670080,set_tempo,40,1,0,,,,,,240000,,,,,,,
670080,note_on,21720,0,4,,,,,,,,,4,,,50,51
670425,note_off,345,0,5,,,,,,,,,5,,,46,0
670425,note_off,345,0,4,,,,,,,,,4,,,50,0
670440,note_off,360,0,1,,,,,,,,,1,,,70,0
670560,note_on,135,0,5,,,,,,,,,5,,,58,46
670800,note_on,360,0,1,,,,,,,,,1,,,70,47
670870,note_off,310,0,5,,,,,,,,,5,,,58,0
671040,note_off,240,0,1,,,,,,,,,1,,,70,0
671040,note_on,0,0,1,,,,,,,,,1,,,69,48
671280,note_off,240,0,1,,,,,,,,,1,,,69,0
671280,note_on,0,0,1,,,,,,,,,1,,,70,49
671520,note_on,0,0,1,,,,,,,,,1,,,71,50
671520,note_off,240,0,1,,,,,,,,,1,,,70,0
671760,note_on,0,0,1,,,,,,,,,1,,,72,50
671760,note_off,240,0,1,,,,,,,,,1,,,71,0
672000,note_off,240,0,1,,,,,,,,,1,,,72,0
672000,note_on,0,0,1,,,,,,,,,1,,,73,51
672240,note_on,0,0,1,,,,,,,,,1,,,74,52
672240,note_off,240,0,1,,,,,,,,,1,,,73,0
672480,note_on,2055,0,4,,,,,,,,,4,,,63,53
672480,note_on,0,0,1,,,,,,,,,1,,,75,53
672480,note_on,1610,0,5,,,,,,,,,5,,,59,53
672480,note_off,240,0,1,,,,,,,,,1,,,74,0
672720,note_off,240,0,1,,,,,,,,,1,,,75,0
672720,note_on,0,0,1,,,,,,,,,1,,,69,54
672920,set_tempo,2840,1,0,,,,,,241935,,,,,,,
672960,note_on,0,0,5,,,,,,,,,5,,,58,55
672960,note_off,480,0,4,,,,,,,,,4,,,63,0
672960,note_on,0,0,4,,,,,,,,,4,,,62,55
672960,note_off,480,0,5,,,,,,,,,5,,,59,0
672960,set_tempo,40,1,0,,,,,,240000,,,,,,,
672960,note_on,0,0,1,,,,,,,,,1,,,70,55
672960,note_off,240,0,1,,,,,,,,,1,,,69,0
673320,note_off,360,0,1,,,,,,,,,1,,,70,0
673345,note_off,385,0,4,,,,,,,,,4,,,62,0
673345,note_off,385,0,5,,,,,,,,,5,,,58,0
673440,note_on,95,0,5,,,,,,,,,5,,,46,57
673680,note_on,360,0,1,,,,,,,,,1,,,58,58
673825,note_off,385,0,5,,,,,,,,,5,,,46,0
673920,note_on,0,0,1,,,,,,,,,1,,,57,58
673920,note_off,240,0,1,,,,,,,,,1,,,58,0
674160,note_on,0,0,1,,,,,,,,,1,,,58,59
674160,note_off,240,0,1,,,,,,,,,1,,,57,0
674400,note_on,0,0,1,,,,,,,,,1,,,59,60
674400,note_off,240,0,1,,,,,,,,,1,,,58,0
674640,note_on,0,0,1,,,,,,,,,1,,,60,61
674640,note_off,240,0,1,,,,,,,,,1,,,59,0
674880,note_off,240,0,1,,,,,,,,,1,,,60,0
674880,note_on,0,0,1,,,,,,,,,1,,,61,62
675120,note_off,240,0,1,,,,,,,,,1,,,61,0
675120,note_on,0,0,1,,,,,,,,,1,,,62,63
675360,note_on,0,0,1,,,,,,,,,1,,,63,64
675360,note_off,240,0,1,,,,,,,,,1,,,62,0
675360,note_on,1535,0,5,,,,,,,,,5,,,47,64
675360,note_on,2015,0,4,,,,,,,,,4,,,51,64
675600,note_on,0,0,1,,,,,,,,,1,,,57,65
675600,note_off,240,0,1,,,,,,,,,1,,,63,0
675800,set_tempo,2840,1,0,,,,,,241935,,,,,,,
675840,set_tempo,40,1,0,,,,,,240000,,,,,,,
675840,note_on,0,0,1,,,,,,,,,1,,,58,65
675840,note_off,240,0,1,,,,,,,,,1,,,57,0
675840,note_on,0,0,4,,,,,,,,,4,,,50,65
675840,note_off,480,0,4,,,,,,,,,4,,,51,0
675840,note_on,0,0,5,,,,,,,,,5,,,46,65
675840,note_off,480,0,5,,,,,,,,,5,,,47,0
676215,note_off,375,0,1,,,,,,,,,1,,,58,0
676225,note_off,385,0,4,,,,,,,,,4,,,50,0
676225,note_off,385,0,5,,,,,,,,,5,,,46,0
676320,note_on,95,0,5,,,,,,,,,5,,,34,67
676560,note_on,345,0,1,,,,,,,,,1,,,81,68
676705,note_off,385,0,5,,,,,,,,,5,,,34,0
676800,note_on,0,0,1,,,,,,,,,1,,,82,69
676800,note_off,240,0,1,,,,,,,,,1,,,81,0
677040,note_on,0,0,1,,,,,,,,,1,,,81,70
677040,note_off,240,0,1,,,,,,,,,1,,,82,0
677280,set_tempo,1440,1,0,,,,,,240000,,,,,,,
677280,note_off,240,0,1,,,,,,,,,1,,,81,0
677280,note_on,0,0,1,,,,,,,,,1,,,82,71
677640,note_off,360,0,1,,,,,,,,,1,,,82,0
677760,note_on,1055,0,5,,,,,,,,,5,,,58,72
678000,note_on,360,0,1,,,,,,,,,1,,,69,73
678135,note_off,375,0,5,,,,,,,,,5,,,58,0
678240,note_on,0,0,1,,,,,,,,,1,,,70,74
678240,note_off,240,0,1,,,,,,,,,1,,,69,0
678480,note_on,0,0,1,,,,,,,,,1,,,69,75
678480,note_off,240,0,1,,,,,,,,,1,,,70,0
678720,note_on,0,0,1,,,,,,,,,1,,,70,76
678720,set_tempo,1440,1,0,,,,,,240000,,,,,,,
678720,note_off,240,0,1,,,,,,,,,1,,,69,0
679200,note_off,480,0,1,,,,,,,,,1,,,70,0
679200,note_on,1065,0,5,,,,,,,,,5,,,46,78
679440,note_on,240,0,1,,,,,,,,,1,,,57,79
679680,note_off,480,0,5,,,,,,,,,5,,,46,0
679680,note_off,240,0,1,,,,,,,,,1,,,57,0
679680,note_on,0,0,1,,,,,,,,,1,,,58,79
679920,note_off,240,0,1,,,,,,,,,1,,,58,0
679920,note_on,0,0,1,,,,,,,,,1,,,57,80
680160,set_tempo,1440,1,0,,,,,,240000,,,,,,,
680160,note_off,240,0,1,,,,,,,,,1,,,57,0
680160,note_on,0,0,1,,,,,,,,,1,,,58,81
680535,note_off,375,0,1,,,,,,,,,1,,,58,0
680640,note_on,960,0,5,,,,,,,,,5,,,34,83
680880,note_on,345,0,1,,,,,,,,,1,,,45,84
681015,note_off,375,0,5,,,,,,,,,5,,,34,0
681120,note_on,0,0,1,,,,,,,,,1,,,46,85
681120,note_off,240,0,1,,,,,,,,,1,,,45,0
681360,note_off,240,0,1,,,,,,,,,1,,,46,0
681360,note_on,0,0,1,,,,,,,,,1,,,45,86
681600,note_off,240,0,1,,,,,,,,,1,,,45,0
681600,note_on,0,0,1,,,,,,,,,1,,,46,84
681840,note_off,240,0,1,,,,,,,,,1,,,46,0
681840,note_on,0,0,1,,,,,,,,,1,,,47,85
682080,note_on,0,0,1,,,,,,,,,1,,,48,87
682080,note_off,240,0,1,,,,,,,,,1,,,47,0
682235,note_off,155,0,1,,,,,,,,,1,,,48,0
682320,note_on,85,0,1,,,,,,,,,1,,,46,88
682475,note_off,155,0,1,,,,,,,,,1,,,46,0
682560,note_on,85,0,1,,,,,,,,,1,,,44,89
682715,note_off,155,0,1,,,,,,,,,1,,,44,0
682800,note_on,85,0,1,,,,,,,,,1,,,43,90
682955,note_off,155,0,1,,,,,,,,,1,,,43,0
683040,note_on,85,0,1,,,,,,,,,1,,,41,92
683195,note_off,155,0,1,,,,,,,,,1,,,41,0
683280,note_on,85,0,1,,,,,,,,,1,,,39,93
683435,note_off,155,0,1,,,,,,,,,1,,,39,0
683520,note_on,85,0,1,,,,,,,,,1,,,38,94
683675,note_off,155,0,1,,,,,,,,,1,,,38,0
683760,note_on,85,0,1,,,,,,,,,1,,,36,95
683915,note_off,155,0,1,,,,,,,,,1,,,36,0
684000,note_on,85,0,1,,,,,,,,,1,,,34,96
684155,note_off,155,0,1,,,,,,,,,1,,,34,0
684240,note_on,85,0,1,,,,,,,,,1,,,32,98
684395,note_off,155,0,1,,,,,,,,,1,,,32,0
684440,set_tempo,4280,1,0,,,,,,241935,,,,,,,
684480,set_tempo,40,1,0,,,,,,260869,,,,,,,
684480,note_on,85,0,1,,,,,,,,,1,,,31,108
685815,note_off,1335,0,1,,,,,,,,,1,,,31,0
685880,set_tempo,1400,1,0,,,,,,241935,,,,,,,
685920,note_on,105,0,1,,,,,,,,,1,,,75,102
685920,note_on,0,0,1,,,,,,,,,1,,,63,102
685920,set_tempo,40,1,0,,,,,,240000,,,,,,,
685920,note_on,4905,0,5,,,,,,,,,5,,,43,102
687255,note_off,1335,0,5,,,,,,,,,5,,,43,0
687360,note_on,105,0,5,,,,,,,,,5,,,44,90
687840,note_on,0,0,1,,,,,,,,,1,,,59,86
687840,note_on,0,0,1,,,,,,,,,1,,,71,86
687840,note_off,0,0,1,,,,,,,,,1,,,75,0
687840,note_off,1920,0,1,,,,,,,,,1,,,63,0
688320,note_on,0,0,1,,,,,,,,,1,,,60,81
688320,note_on,0,0,1,,,,,,,,,1,,,72,81
688320,note_off,0,0,1,,,,,,,,,1,,,71,0
688320,note_off,480,0,1,,,,,,,,,1,,,59,0
688680,note_off,1320,0,5,,,,,,,,,5,,,44,0
688695,note_off,0,0,1,,,,,,,,,1,,,60,0
688695,note_off,375,0,1,,,,,,,,,1,,,72,0
688800,note_on,12575,0,4,,,,,,,,,4,,,60,77
688800,note_on,105,0,1,,,,,,,,,1,,,76,77
688800,note_on,120,0,5,,,,,,,,,5,,,56,77
688800,note_on,0,0,1,,,,,,,,,1,,,64,77
689280,note_on,0,0,1,,,,,,,,,1,,,65,73
689280,note_on,0,0,1,,,,,,,,,1,,,77,73
689280,note_off,0,0,1,,,,,,,,,1,,,76,0
689280,note_off,480,0,1,,,,,,,,,1,,,64,0
689760,note_off,0,0,1,,,,,,,,,1,,,77,0
689760,note_off,480,0,1,,,,,,,,,1,,,65,0
689760,note_on,0,0,1,,,,,,,,,1,,,80,69
689760,note_on,0,0,1,,,,,,,,,1,,,68,69
690120,note_off,0,0,1,,,,,,,,,1,,,68,0
690120,note_off,360,0,1,,,,,,,,,1,,,80,0
690135,note_off,1335,0,4,,,,,,,,,4,,,60,0
690135,note_off,1335,0,5,,,,,,,,,5,,,56,0
690200,set_tempo,4280,1,0,,,,,,241935,,,,,,,
690240,note_on,120,0,1,,,,,,,,,1,,,75,65
690240,set_tempo,40,1,0,,,,,,240000,,,,,,,
691200,note_on,1065,0,4,,,,,,,,,4,,,66,57
691200,note_on,1065,0,5,,,,,,,,,5,,,57,57
691560,note_off,360,0,5,,,,,,,,,5,,,57,0
691560,note_off,360,0,4,,,,,,,,,4,,,66,0
691640,set_tempo,1400,1,0,,,,,,241935,,,,,,,
691680,set_tempo,40,1,0,,,,,,241935,,,,,,,
691680,note_on,120,0,4,,,,,,,,,4,,,67,53
691680,note_on,120,0,5,,,,,,,,,5,,,58,53
692640,note_on,39953,0,2,,,,,,,,,2,,,74,46
692640,note_on,0,0,4,,,,,,,,,4,,,68,45
692640,note_on,0,0,1,,,,,,,,,1,,,79,46
692640,note_off,2400,0,1,,,,,,,,,1,,,75,0
692640,note_off,960,0,4,,,,,,,,,4,,,67,0
692880,note_on,0,0,1,,,,,,,,,1,,,77,45
692880,note_off,240,0,1,,,,,,,,,1,,,79,0
692985,note_off,1305,0,5,,,,,,,,,5,,,58,0
693000,note_off,360,0,4,,,,,,,,,4,,,68,0
693000,note_off,360,0,2,,,,,,,,,2,,,74,0
693072,note_off,192,0,1,,,,,,,,,1,,,77,0
693080,set_tempo,1400,1,0,,,,,,243902,,,,,,,
693120,note_on,48,0,1,,,,,,,,,1,,,75,43
693120,note_on,135,0,5,,,,,,,,,5,,,51,44
693120,set_tempo,40,1,0,,,,,,240000,,,,,,,
693360,note_on,23328,0,3,,,,,,,,,3,,,58,45
693550,note_off,190,0,3,,,,,,,,,3,,,58,0
693600,note_on,50,0,3,,,,,,,,,3,,,55,46
693600,note_off,480,0,1,,,,,,,,,1,,,75,0
693840,note_on,240,0,1,,,,,,,,,1,,,75,47
693840,note_on,240,0,3,,,,,,,,,3,,,58,47
693960,note_off,120,0,3,,,,,,,,,3,,,55,0
693995,note_off,155,0,1,,,,,,,,,1,,,75,0
694030,note_off,70,0,3,,,,,,,,,3,,,58,0
694080,note_on,50,0,3,,,,,,,,,3,,,51,48
694080,note_on,85,0,1,,,,,,,,,1,,,74,48
694080,note_off,960,0,5,,,,,,,,,5,,,51,0
694235,note_off,155,0,1,,,,,,,,,1,,,74,0
694320,note_on,85,0,1,,,,,,,,,1,,,75,49
694320,note_on,240,0,3,,,,,,,,,3,,,58,49
694440,note_off,120,0,3,,,,,,,,,3,,,51,0
694475,note_off,155,0,1,,,,,,,,,1,,,75,0
694510,note_off,70,0,3,,,,,,,,,3,,,58,0
694560,note_on,480,0,5,,,,,,,,,5,,,50,50
694560,note_on,85,0,1,,,,,,,,,1,,,76,50
694800,note_on,290,0,3,,,,,,,,,3,,,58,51
694800,note_off,240,0,1,,,,,,,,,1,,,76,0
694800,note_on,0,0,1,,,,,,,,,1,,,77,51
694955,note_off,155,0,1,,,,,,,,,1,,,77,0
694990,note_off,190,0,3,,,,,,,,,3,,,58,0
695040,note_on,50,0,3,,,,,,,,,3,,,56,52
695280,note_on,240,0,3,,,,,,,,,3,,,58,53
695280,note_on,325,0,1,,,,,,,,,1,,,77,53
695400,note_off,120,0,3,,,,,,,,,3,,,56,0
695435,note_off,155,0,1,,,,,,,,,1,,,77,0
695470,note_off,70,0,3,,,,,,,,,3,,,58,0
695520,note_on,85,0,1,,,,,,,,,1,,,76,54
695520,note_off,960,0,5,,,,,,,,,5,,,50,0
695520,note_on,50,0,3,,,,,,,,,3,,,50,54
695675,note_off,155,0,1,,,,,,,,,1,,,76,0
695760,note_on,85,0,1,,,,,,,,,1,,,77,55
695760,note_on,240,0,3,,,,,,,,,3,,,58,55
695880,note_off,120,0,3,,,,,,,,,3,,,50,0
695915,note_off,155,0,1,,,,,,,,,1,,,77,0
695950,note_off,70,0,3,,,,,,,,,3,,,58,0
696000,note_on,85,0,1,,,,,,,,,1,,,78,56
696000,note_on,480,0,5,,,,,,,,,5,,,49,56
696240,note_off,240,0,1,,,,,,,,,1,,,78,0
696240,note_on,290,0,3,,,,,,,,,3,,,58,57
696240,note_on,0,0,1,,,,,,,,,1,,,79,57
696395,note_off,155,0,1,,,,,,,,,1,,,79,0
696430,note_off,190,0,3,,,,,,,,,3,,,58,0
696480,note_on,50,0,3,,,,,,,,,3,,,51,58
696720,note_on,325,0,1,,,,,,,,,1,,,79,59
696720,note_on,240,0,3,,,,,,,,,3,,,58,59
696840,note_off,120,0,3,,,,,,,,,3,,,51,0
696875,note_off,155,0,1,,,,,,,,,1,,,79,0
696910,note_off,70,0,3,,,,,,,,,3,,,58,0
696960,note_on,85,0,1,,,,,,,,,1,,,77,60
696960,note_off,960,0,5,,,,,,,,,5,,,49,0
696960,note_on,50,0,3,,,,,,,,,3,,,49,60
697115,note_off,155,0,1,,,,,,,,,1,,,77,0
697200,note_on,85,0,1,,,,,,,,,1,,,79,62
697200,note_on,240,0,3,,,,,,,,,3,,,58,62
697320,note_off,120,0,3,,,,,,,,,3,,,49,0
697355,note_off,155,0,1,,,,,,,,,1,,,79,0
697390,note_off,70,0,3,,,,,,,,,3,,,58,0
697440,note_on,480,0,5,,,,,,,,,5,,,48,63
697440,note_on,85,0,1,,,,,,,,,1,,,79,63
697680,note_off,240,0,1,,,,,,,,,1,,,79,0
697680,note_on,290,0,3,,,,,,,,,3,,,58,64
697680,note_on,0,0,1,,,,,,,,,1,,,80,64
697835,note_off,155,0,1,,,,,,,,,1,,,80,0
697870,note_off,190,0,3,,,,,,,,,3,,,58,0
697920,note_on,50,0,3,,,,,,,,,3,,,51,65
698160,note_on,325,0,1,,,,,,,,,1,,,80,66
698160,note_on,240,0,3,,,,,,,,,3,,,58,66
698280,note_off,120,0,3,,,,,,,,,3,,,51,0
698315,note_off,155,0,1,,,,,,,,,1,,,80,0
698350,note_off,70,0,3,,,,,,,,,3,,,58,0
698400,note_on,50,0,3,,,,,,,,,3,,,48,67
698400,note_on,85,0,1,,,,,,,,,1,,,79,67
698400,note_off,960,0,5,,,,,,,,,5,,,48,0
698555,note_off,155,0,1,,,,,,,,,1,,,79,0
698640,note_on,85,0,1,,,,,,,,,1,,,80,68
698640,note_on,240,0,3,,,,,,,,,3,,,58,68
698760,note_off,120,0,3,,,,,,,,,3,,,48,0
698795,note_off,155,0,1,,,,,,,,,1,,,80,0
698830,note_off,70,0,3,,,,,,,,,3,,,58,0
698880,note_on,85,0,1,,,,,,,,,1,,,82,65
698880,note_on,480,0,5,,,,,,,,,5,,,43,65
699120,note_off,240,0,1,,,,,,,,,1,,,82,0
699120,note_on,0,0,1,,,,,,,,,1,,,79,64
699360,note_off,240,0,1,,,,,,,,,1,,,79,0
699360,note_off,480,0,5,,,,,,,,,5,,,43,0
699360,note_on,0,0,1,,,,,,,,,1,,,87,63
699515,note_off,155,0,1,,,,,,,,,1,,,87,0
699600,note_on,85,0,1,,,,,,,,,1,,,87,62
699755,note_off,155,0,1,,,,,,,,,1,,,87,0
699840,note_on,85,0,1,,,,,,,,,1,,,87,61
699995,note_off,155,0,1,,,,,,,,,1,,,87,0
700080,note_on,85,0,1,,,,,,,,,1,,,87,60
700235,note_off,155,0,1,,,,,,,,,1,,,87,0
700320,note_on,960,0,5,,,,,,,,,5,,,56,58
700320,note_on,7320,0,4,,,,,,,,,4,,,65,58
700560,note_on,325,0,1,,,,,,,,,1,,,77,57
700800,note_off,480,0,5,,,,,,,,,5,,,56,0
700800,note_off,480,0,4,,,,,,,,,4,,,65,0
700800,note_off,240,0,1,,,,,,,,,1,,,77,0
700800,note_on,0,0,1,,,,,,,,,1,,,84,56
700955,note_off,155,0,1,,,,,,,,,1,,,84,0
701040,note_on,85,0,1,,,,,,,,,1,,,84,55
701195,note_off,155,0,1,,,,,,,,,1,,,84,0
701280,note_on,85,0,1,,,,,,,,,1,,,84,54
701435,note_off,155,0,1,,,,,,,,,1,,,84,0
701520,note_on,85,0,1,,,,,,,,,1,,,84,53
701675,note_off,155,0,1,,,,,,,,,1,,,84,0
701760,note_on,960,0,4,,,,,,,,,4,,,67,52
701760,note_on,960,0,5,,,,,,,,,5,,,58,52
702000,note_on,325,0,1,,,,,,,,,1,,,75,51
702240,note_off,240,0,1,,,,,,,,,1,,,75,0
702240,note_on,0,0,1,,,,,,,,,1,,,82,50
702240,note_off,480,0,4,,,,,,,,,4,,,67,0
702240,note_off,480,0,5,,,,,,,,,5,,,58,0
702395,note_off,155,0,1,,,,,,,,,1,,,82,0
702480,note_on,85,0,1,,,,,,,,,1,,,82,49
702635,note_off,155,0,1,,,,,,,,,1,,,82,0
702720,note_on,85,0,1,,,,,,,,,1,,,82,48
702875,note_off,155,0,1,,,,,,,,,1,,,82,0
702960,note_on,85,0,1,,,,,,,,,1,,,82,46
703115,note_off,155,0,1,,,,,,,,,1,,,82,0
703200,note_on,960,0,4,,,,,,,,,4,,,65,46
703200,note_on,960,0,5,,,,,,,,,5,,,58,46
703440,note_on,325,0,1,,,,,,,,,1,,,68,44
703680,note_off,480,0,5,,,,,,,,,5,,,58,0
703680,note_off,480,0,4,,,,,,,,,4,,,65,0
703680,note_off,240,0,1,,,,,,,,,1,,,68,0
703680,note_on,0,0,1,,,,,,,,,1,,,74,43
703835,note_off,155,0,1,,,,,,,,,1,,,74,0
703920,note_on,85,0,1,,,,,,,,,1,,,74,42
704075,note_off,155,0,1,,,,,,,,,1,,,74,0
704160,note_on,85,0,1,,,,,,,,,1,,,74,41
704315,note_off,155,0,1,,,,,,,,,1,,,74,0
704400,note_on,85,0,1,,,,,,,,,1,,,74,40
704555,note_off,155,0,1,,,,,,,,,1,,,74,0
704600,set_tempo,11480,1,0,,,,,,241935,,,,,,,
704640,note_on,960,0,5,,,,,,,,,5,,,51,49
704640,note_on,85,0,1,,,,,,,,,1,,,75,49
704640,set_tempo,40,1,0,,,,,,240000,,,,,,,
704640,note_on,0,0,2,,,,,,,,,2,,,67,49
704640,note_on,11640,0,2,,,,,,,,,2,,,70,49
704880,note_on,6050,0,3,,,,,,,,,3,,,58,50
705070,note_off,190,0,3,,,,,,,,,3,,,58,0
705120,note_off,480,0,1,,,,,,,,,1,,,75,0
705120,note_off,480,0,2,,,,,,,,,2,,,67,0
705120,note_on,50,0,3,,,,,,,,,3,,,55,51
705120,note_off,0,0,2,,,,,,,,,2,,,70,0
705360,note_on,240,0,3,,,,,,,,,3,,,58,52
705360,note_on,240,0,1,,,,,,,,,1,,,63,52
705480,note_off,120,0,3,,,,,,,,,3,,,55,0
705515,note_off,155,0,1,,,,,,,,,1,,,63,0
705550,note_off,70,0,3,,,,,,,,,3,,,58,0
705600,note_on,50,0,3,,,,,,,,,3,,,51,53
705600,note_off,960,0,5,,,,,,,,,5,,,51,0
705600,note_on,85,0,1,,,,,,,,,1,,,62,53
705755,note_off,155,0,1,,,,,,,,,1,,,62,0
705840,note_on,85,0,1,,,,,,,,,1,,,63,54
705840,note_on,240,0,3,,,,,,,,,3,,,58,54
705960,note_off,120,0,3,,,,,,,,,3,,,51,0
705995,note_off,155,0,1,,,,,,,,,1,,,63,0
706030,note_off,70,0,3,,,,,,,,,3,,,58,0
706080,note_on,85,0,1,,,,,,,,,1,,,64,56
706080,note_on,480,0,5,,,,,,,,,5,,,50,56
706320,note_on,0,0,1,,,,,,,,,1,,,65,57
706320,note_off,240,0,1,,,,,,,,,1,,,64,0
706320,note_on,290,0,3,,,,,,,,,3,,,58,57
706475,note_off,155,0,1,,,,,,,,,1,,,65,0
706510,note_off,190,0,3,,,,,,,,,3,,,58,0
706560,note_on,50,0,3,,,,,,,,,3,,,56,58
706800,note_on,325,0,1,,,,,,,,,1,,,65,59
706800,note_on,240,0,3,,,,,,,,,3,,,58,59
706920,note_off,120,0,3,,,,,,,,,3,,,56,0
706955,note_off,155,0,1,,,,,,,,,1,,,65,0
706990,note_off,70,0,3,,,,,,,,,3,,,58,0
707040,note_off,960,0,5,,,,,,,,,5,,,50,0
707040,note_on,85,0,1,,,,,,,,,1,,,64,60
707040,note_on,50,0,3,,,,,,,,,3,,,50,60
707195,note_off,155,0,1,,,,,,,,,1,,,64,0
707280,note_on,240,0,3,,,,,,,,,3,,,58,62
707280,note_on,85,0,1,,,,,,,,,1,,,65,62
707400,note_off,120,0,3,,,,,,,,,3,,,50,0
707435,note_off,155,0,1,,,,,,,,,1,,,65,0
707470,note_off,70,0,3,,,,,,,,,3,,,58,0
707520,note_on,480,0,5,,,,,,,,,5,,,49,63
707520,note_on,85,0,1,,,,,,,,,1,,,66,63
707760,note_off,240,0,1,,,,,,,,,1,,,66,0
707760,note_on,0,0,1,,,,,,,,,1,,,67,64
707760,note_on,290,0,3,,,,,,,,,3,,,58,64
707915,note_off,155,0,1,,,,,,,,,1,,,67,0
707950,note_off,190,0,3,,,,,,,,,3,,,58,0
708000,note_on,50,0,3,,,,,,,,,3,,,51,65
708240,note_on,240,0,3,,,,,,,,,3,,,58,66
708240,note_on,325,0,1,,,,,,,,,1,,,67,66
708360,note_off,120,0,3,,,,,,,,,3,,,51,0
708395,note_off,155,0,1,,,,,,,,,1,,,67,0
708430,note_off,70,0,3,,,,,,,,,3,,,58,0
708480,note_on,85,0,1,,,,,,,,,1,,,66,68
708480,note_off,960,0,5,,,,,,,,,5,,,49,0
708480,note_on,50,0,3,,,,,,,,,3,,,49,68
708635,note_off,155,0,1,,,,,,,,,1,,,66,0
708720,note_on,240,0,3,,,,,,,,,3,,,58,69
708720,note_on,85,0,1,,,,,,,,,1,,,67,69
708840,note_off,120,0,3,,,,,,,,,3,,,49,0
708875,note_off,155,0,1,,,,,,,,,1,,,67,0
708910,note_off,70,0,3,,,,,,,,,3,,,58,0
708960,note_on,480,0,5,,,,,,,,,5,,,48,70
708960,note_on,85,0,1,,,,,,,,,1,,,67,70
709200,note_on,290,0,3,,,,,,,,,3,,,58,71
709200,note_on,0,0,1,,,,,,,,,1,,,68,71
709200,note_off,240,0,1,,,,,,,,,1,,,67,0
709355,note_off,155,0,1,,,,,,,,,1,,,68,0
709390,note_off,190,0,3,,,,,,,,,3,,,58,0
709440,note_on,50,0,3,,,,,,,,,3,,,51,72
709680,note_on,240,0,3,,,,,,,,,3,,,58,73
709680,note_on,325,0,1,,,,,,,,,1,,,68,73
709800,note_off,120,0,3,,,,,,,,,3,,,51,0
709835,note_off,155,0,1,,,,,,,,,1,,,68,0
709870,note_off,70,0,3,,,,,,,,,3,,,58,0
709920,note_off,960,0,5,,,,,,,,,5,,,48,0
709920,note_on,85,0,1,,,,,,,,,1,,,67,75
709920,note_on,50,0,3,,,,,,,,,3,,,48,75
710075,note_off,155,0,1,,,,,,,,,1,,,67,0
710160,note_on,85,0,1,,,,,,,,,1,,,68,76
710160,note_on,240,0,3,,,,,,,,,3,,,58,76
710280,note_off,120,0,3,,,,,,,,,3,,,48,0
710315,note_off,155,0,1,,,,,,,,,1,,,68,0
710350,note_off,70,0,3,,,,,,,,,3,,,58,0
710400,note_on,85,0,1,,,,,,,,,1,,,70,75
710400,note_on,480,0,5,,,,,,,,,5,,,43,74
710640,note_on,0,0,1,,,,,,,,,1,,,67,74
710640,note_off,240,0,1,,,,,,,,,1,,,70,0
710880,note_off,480,0,5,,,,,,,,,5,,,43,0
710880,note_off,240,0,1,,,,,,,,,1,,,67,0
710880,note_on,0,0,1,,,,,,,,,1,,,75,73
711045,note_off,165,0,1,,,,,,,,,1,,,75,0
711120,note_on,75,0,1,,,,,,,,,1,,,75,71
711275,note_off,155,0,1,,,,,,,,,1,,,75,0
711360,note_on,85,0,1,,,,,,,,,1,,,75,70
711515,note_off,155,0,1,,,,,,,,,1,,,75,0
711600,note_on,85,0,1,,,,,,,,,1,,,75,69
711755,note_off,155,0,1,,,,,,,,,1,,,75,0
711840,note_on,8160,0,4,,,,,,,,,4,,,53,67
711840,note_on,960,0,5,,,,,,,,,5,,,44,67
712080,note_on,325,0,1,,,,,,,,,1,,,65,66
712320,note_on,0,0,1,,,,,,,,,1,,,72,64
712320,note_off,480,0,4,,,,,,,,,4,,,53,0
712320,note_off,240,0,1,,,,,,,,,1,,,65,0
712320,note_off,480,0,5,,,,,,,,,5,,,44,0
712475,note_off,155,0,1,,,,,,,,,1,,,72,0
712560,note_on,85,0,1,,,,,,,,,1,,,72,63
712715,note_off,155,0,1,,,,,,,,,1,,,72,0
712800,note_on,85,0,1,,,,,,,,,1,,,72,62
712955,note_off,155,0,1,,,,,,,,,1,,,72,0
713040,note_on,85,0,1,,,,,,,,,1,,,72,60
713195,note_off,155,0,1,,,,,,,,,1,,,72,0
713280,note_on,960,0,4,,,,,,,,,4,,,55,60
713280,note_on,960,0,5,,,,,,,,,5,,,46,60
713520,note_on,325,0,1,,,,,,,,,1,,,63,58
713760,note_off,240,0,1,,,,,,,,,1,,,63,0
713760,note_on,0,0,1,,,,,,,,,1,,,70,56
713760,note_off,480,0,5,,,,,,,,,5,,,46,0
713760,note_off,480,0,4,,,,,,,,,4,,,55,0
713915,note_off,155,0,1,,,,,,,,,1,,,70,0
714000,note_on,85,0,1,,,,,,,,,1,,,70,55
714155,note_off,155,0,1,,,,,,,,,1,,,70,0
714240,note_on,85,0,1,,,,,,,,,1,,,70,54
714395,note_off,155,0,1,,,,,,,,,1,,,70,0
714480,note_on,85,0,1,,,,,,,,,1,,,70,52
714635,note_off,155,0,1,,,,,,,,,1,,,70,0
714720,note_on,960,0,4,,,,,,,,,4,,,53,52
714720,note_on,960,0,5,,,,,,,,,5,,,46,52
714960,note_on,325,0,1,,,,,,,,,1,,,56,49
715200,note_off,480,0,4,,,,,,,,,4,,,53,0
715200,note_off,480,0,5,,,,,,,,,5,,,46,0
715200,note_on,0,0,1,,,,,,,,,1,,,62,48
715200,note_off,240,0,1,,,,,,,,,1,,,56,0
715355,note_off,155,0,1,,,,,,,,,1,,,62,0
715440,note_on,85,0,1,,,,,,,,,1,,,62,47
715595,note_off,155,0,1,,,,,,,,,1,,,62,0
715680,note_on,85,0,1,,,,,,,,,1,,,62,45
715835,note_off,155,0,1,,,,,,,,,1,,,62,0
715920,note_on,85,0,1,,,,,,,,,1,,,62,44
716075,note_off,155,0,1,,,,,,,,,1,,,62,0
716120,set_tempo,11480,1,0,,,,,,241935,,,,,,,
716160,set_tempo,40,1,0,,,,,,240000,,,,,,,
716160,note_on,11040,0,2,,,,,,,,,2,,,51,43
716160,note_on,85,0,1,,,,,,,,,1,,,63,43
716400,note_on,1200,0,4,,,,,,,,,4,,,58,47
716640,note_off,240,0,4,,,,,,,,,4,,,58,0
716640,note_off,480,0,1,,,,,,,,,1,,,63,0
716640,note_on,1440,0,5,,,,,,,,,5,,,55,48
716640,note_off,480,0,2,,,,,,,,,2,,,51,0
716880,note_on,240,0,4,,,,,,,,,4,,,58,48
717000,note_off,360,0,5,,,,,,,,,5,,,55,0
717120,note_on,120,0,5,,,,,,,,,5,,,55,49
717120,note_off,240,0,4,,,,,,,,,4,,,58,0
717360,note_on,240,0,4,,,,,,,,,4,,,58,50
717480,note_off,360,0,5,,,,,,,,,5,,,55,0
717560,set_tempo,1400,1,0,,,,,,241935,,,,,,,
717600,note_on,960,0,1,,,,,,,,,1,,,46,50
717600,note_on,120,0,5,,,,,,,,,5,,,56,50
717600,set_tempo,40,1,0,,,,,,240000,,,,,,,
717600,note_off,240,0,4,,,,,,,,,4,,,58,0
717840,note_on,240,0,4,,,,,,,,,4,,,58,51
717960,note_off,360,0,5,,,,,,,,,5,,,56,0
718080,note_off,240,0,4,,,,,,,,,4,,,58,0
718080,note_on,120,0,5,,,,,,,,,5,,,56,52
718080,note_off,480,0,1,,,,,,,,,1,,,46,0
718080,note_on,0,0,1,,,,,,,,,1,,,48,52
718320,note_on,240,0,4,,,,,,,,,4,,,58,52
718440,note_off,360,0,5,,,,,,,,,5,,,56,0
718560,note_on,0,0,1,,,,,,,,,1,,,50,53
718560,note_off,240,0,4,,,,,,,,,4,,,58,0
718560,note_on,120,0,5,,,,,,,,,5,,,56,53
718560,note_off,480,0,1,,,,,,,,,1,,,48,0
718800,note_on,240,0,4,,,,,,,,,4,,,58,54
718920,note_off,360,0,5,,,,,,,,,5,,,56,0
718992,note_off,192,0,4,,,,,,,,,4,,,58,0
719040,note_off,480,0,1,,,,,,,,,1,,,50,0
719040,note_on,0,0,1,,,,,,,,,1,,,51,55
719040,note_on,120,0,5,,,,,,,,,5,,,55,55
719280,note_on,288,0,4,,,,,,,,,4,,,51,55
719400,note_off,360,0,5,,,,,,,,,5,,,55,0
719520,note_off,240,0,4,,,,,,,,,4,,,51,0
719520,note_on,120,0,5,,,,,,,,,5,,,46,56
719520,note_off,480,0,1,,,,,,,,,1,,,51,0
719760,note_on,240,0,4,,,,,,,,,4,,,51,57
719880,note_off,360,0,5,,,,,,,,,5,,,46,0
720000,note_on,120,0,5,,,,,,,,,5,,,43,57
720000,note_off,240,0,4,,,,,,,,,4,,,51,0
720240,note_on,240,0,4,,,,,,,,,4,,,46,58
720360,note_off,360,0,5,,,,,,,,,5,,,43,0
720440,set_tempo,2840,1,0,,,,,,241935,,,,,,,
720480,note_off,240,0,4,,,,,,,,,4,,,46,0
720480,note_on,120,0,5,,,,,,,,,5,,,44,59
720480,note_on,960,0,1,,,,,,,,,1,,,70,59
720480,set_tempo,40,1,0,,,,,,240000,,,,,,,
720720,note_on,240,0,4,,,,,,,,,4,,,46,60
720840,note_off,360,0,5,,,,,,,,,5,,,44,0
720960,note_on,120,0,5,,,,,,,,,5,,,44,60
720960,note_on,0,0,1,,,,,,,,,1,,,72,60
720960,note_off,240,0,4,,,,,,,,,4,,,46,0
720960,note_off,480,0,1,,,,,,,,,1,,,70,0
721200,note_on,240,0,4,,,,,,,,,4,,,46,61
721320,note_off,360,0,5,,,,,,,,,5,,,44,0
721440,note_off,240,0,4,,,,,,,,,4,,,46,0
721440,note_on,120,0,5,,,,,,,,,5,,,44,62
721440,note_off,480,0,1,,,,,,,,,1,,,72,0
721440,note_on,0,0,1,,,,,,,,,1,,,74,62
721680,note_on,240,0,4,,,,,,,,,4,,,46,62
721800,note_off,360,0,5,,,,,,,,,5,,,44,0
721872,note_off,192,0,4,,,,,,,,,4,,,46,0
721920,note_off,480,0,1,,,,,,,,,1,,,74,0
721920,note_on,0,0,1,,,,,,,,,1,,,75,63
721920,note_on,120,0,5,,,,,,,,,5,,,43,63
722160,note_on,288,0,4,,,,,,,,,4,,,39,64
722280,note_off,360,0,5,,,,,,,,,5,,,43,0
722400,note_off,240,0,4,,,,,,,,,4,,,39,0
722400,note_on,120,0,5,,,,,,,,,5,,,34,64
722400,note_off,480,0,1,,,,,,,,,1,,,75,0
722640,note_on,240,0,4,,,,,,,,,4,,,39,65
722760,note_off,360,0,5,,,,,,,,,5,,,34,0
722880,note_off,240,0,4,,,,,,,,,4,,,39,0
722880,note_on,120,0,5,,,,,,,,,5,,,31,66
723120,note_on,240,0,4,,,,,,,,,4,,,34,67
723240,note_off,360,0,5,,,,,,,,,5,,,31,0
723320,set_tempo,2840,1,0,,,,,,241935,,,,,,,
723360,note_on,960,0,1,,,,,,,,,1,,,82,67
723360,set_tempo,40,1,0,,,,,,240000,,,,,,,
723360,note_off,240,0,4,,,,,,,,,4,,,34,0
723360,note_on,120,0,5,,,,,,,,,5,,,32,67
723600,note_on,240,0,4,,,,,,,,,4,,,34,68
723720,note_off,360,0,5,,,,,,,,,5,,,32,0
723840,note_off,480,0,1,,,,,,,,,1,,,82,0
723840,note_on,0,0,1,,,,,,,,,1,,,84,69
723840,note_on,120,0,5,,,,,,,,,5,,,32,69
723840,note_off,240,0,4,,,,,,,,,4,,,34,0
724080,note_on,240,0,4,,,,,,,,,4,,,34,69
724200,note_off,360,0,5,,,,,,,,,5,,,32,0
724320,note_on,120,0,5,,,,,,,,,5,,,32,70
724320,note_off,240,0,4,,,,,,,,,4,,,34,0
724320,note_on,0,0,1,,,,,,,,,1,,,86,70
724320,note_off,480,0,1,,,,,,,,,1,,,84,0
724560,note_on,240,0,4,,,,,,,,,4,,,34,71
724680,note_off,360,0,5,,,,,,,,,5,,,32,0
724752,note_off,192,0,4,,,,,,,,,4,,,34,0
724760,set_tempo,1400,1,0,,,,,,241935,,,,,,,
724800,note_on,120,0,5,,,,,,,,,5,,,31,72
724800,set_tempo,40,1,0,,,,,,241935,,,,,,,
724800,note_on,0,0,1,,,,,,,,,1,,,87,72
724800,note_off,480,0,1,,,,,,,,,1,,,86,0
725280,note_off,480,0,1,,,,,,,,,1,,,87,0
725480,set_tempo,680,1,0,,,,,,241935,,,,,,,
725520,note_off,720,0,5,,,,,,,,,5,,,31,0
725520,note_on,240,0,1,,,,,,,,,1,,,34,75
725520,set_tempo,40,1,0,,,,,,240000,,,,,,,
725760,note_on,0,0,1,,,,,,,,,1,,,39,76
725760,note_off,240,0,1,,,,,,,,,1,,,34,0
726000,note_on,0,0,1,,,,,,,,,1,,,34,77
726000,note_off,240,0,1,,,,,,,,,1,,,39,0
726240,note_off,240,0,1,,,,,,,,,1,,,34,0
726240,note_on,0,0,1,,,,,,,,,1,,,43,77
726480,note_on,0,0,1,,,,,,,,,1,,,39,78
726480,note_off,240,0,1,,,,,,,,,1,,,43,0
726720,note_off,240,0,1,,,,,,,,,1,,,39,0
726720,note_on,0,0,1,,,,,,,,,1,,,46,79
726960,note_off,240,0,1,,,,,,,,,1,,,46,0
726960,note_on,0,0,1,,,,,,,,,1,,,43,80
727200,note_on,0,0,1,,,,,,,,,1,,,51,80
727200,note_off,240,0,1,,,,,,,,,1,,,43,0
727440,note_off,240,0,1,,,,,,,,,1,,,51,0
727440,note_on,0,0,1,,,,,,,,,1,,,46,81
727632,note_off,192,0,1,,,,,,,,,1,,,46,0
727640,set_tempo,2120,1,0,,,,,,241935,,,,,,,
727680,note_on,2160,0,5,,,,,,,,,5,,,39,82
727680,note_on,2928,0,4,,,,,,,,,4,,,41,82
727680,note_on,0,0,4,,,,,,,,,4,,,45,82
727680,note_on,48,0,1,,,,,,,,,1,,,51,82
727680,set_tempo,40,1,0,,,,,,240000,,,,,,,
727920,note_on,0,0,1,,,,,,,,,1,,,48,83
727920,note_off,240,0,1,,,,,,,,,1,,,51,0
728160,note_on,0,0,1,,,,,,,,,1,,,57,83
728160,note_off,240,0,1,,,,,,,,,1,,,48,0
728400,note_on,0,0,1,,,,,,,,,1,,,51,84
728400,note_off,240,0,1,,,,,,,,,1,,,57,0
728640,note_on,0,0,1,,,,,,,,,1,,,60,85
728640,note_off,240,0,1,,,,,,,,,1,,,51,0
728880,note_on,0,0,1,,,,,,,,,1,,,57,86
728880,note_off,240,0,1,,,,,,,,,1,,,60,0
728985,note_off,1305,0,4,,,,,,,,,4,,,45,0
729000,note_off,1320,0,5,,,,,,,,,5,,,39,0
729000,note_off,15,0,4,,,,,,,,,4,,,41,0
729120,note_on,120,0,4,,,,,,,,,4,,,53,86
729120,note_on,0,0,4,,,,,,,,,4,,,57,86
729120,note_on,120,0,5,,,,,,,,,5,,,51,86
729120,note_on,0,0,1,,,,,,,,,1,,,65,86
729120,note_off,240,0,1,,,,,,,,,1,,,57,0
729360,note_off,240,0,1,,,,,,,,,1,,,65,0
729360,note_on,0,0,1,,,,,,,,,1,,,60,87
729600,note_off,240,0,1,,,,,,,,,1,,,60,0
729600,note_on,0,0,1,,,,,,,,,1,,,69,88
729840,note_off,240,0,1,,,,,,,,,1,,,69,0
729840,note_on,0,0,1,,,,,,,,,1,,,65,89
730080,note_on,0,0,1,,,,,,,,,1,,,72,89
730080,note_off,240,0,1,,,,,,,,,1,,,65,0
730320,note_off,240,0,1,,,,,,,,,1,,,72,0
730320,note_on,0,0,1,,,,,,,,,1,,,69,90
730440,note_off,1320,0,4,,,,,,,,,4,,,57,0
730440,note_off,0,0,4,,,,,,,,,4,,,53,0
730455,note_off,1335,0,5,,,,,,,,,5,,,51,0
730512,note_off,192,0,1,,,,,,,,,1,,,69,0
730560,note_on,105,0,5,,,,,,,,,5,,,50,91
730560,note_on,48,0,1,,,,,,,,,1,,,68,91
730560,note_on,0,0,4,,,,,,,,,4,,,59,91
730560,note_on,120,0,4,,,,,,,,,4,,,53,91
730800,note_off,240,0,1,,,,,,,,,1,,,68,0
730800,note_on,0,0,1,,,,,,,,,1,,,65,92
731040,note_on,0,0,1,,,,,,,,,1,,,71,92
731040,note_off,240,0,1,,,,,,,,,1,,,65,0
731280,note_on,0,0,1,,,,,,,,,1,,,68,93
731280,note_off,240,0,1,,,,,,,,,1,,,71,0
731520,note_off,240,0,1,,,,,,,,,1,,,68,0
731520,note_on,0,0,1,,,,,,,,,1,,,74,94
731760,note_off,240,0,1,,,,,,,,,1,,,74,0
731760,note_on,0,0,1,,,,,,,,,1,,,71,95
731865,note_off,1305,0,5,,,,,,,,,5,,,50,0
731880,note_off,1320,0,4,,,,,,,,,4,,,59,0
731895,note_off,15,0,4,,,,,,,,,4,,,53,0
732000,note_on,0,0,4,,,,,,,,,4,,,56,95
732000,note_on,105,0,4,,,,,,,,,4,,,50,95
732000,note_on,0,0,1,,,,,,,,,1,,,77,95
732000,note_off,240,0,1,,,,,,,,,1,,,71,0
732000,note_on,135,0,5,,,,,,,,,5,,,48,95
732240,note_off,240,0,1,,,,,,,,,1,,,77,0
732240,note_on,0,0,1,,,,,,,,,1,,,74,96
732480,note_on,0,0,1,,,,,,,,,1,,,80,97
732480,note_off,240,0,1,,,,,,,,,1,,,74,0
732720,note_off,240,0,1,,,,,,,,,1,,,80,0
732720,note_on,0,0,1,,,,,,,,,1,,,77,98
732960,note_off,240,0,1,,,,,,,,,1,,,77,0
732960,note_on,0,0,1,,,,,,,,,1,,,86,98
733160,set_tempo,5480,1,0,,,,,,241935,,,,,,,
733200,note_off,240,0,1,,,,,,,,,1,,,86,0
733200,set_tempo,40,1,0,,,,,,243902,,,,,,,
733200,note_on,0,0,1,,,,,,,,,1,,,80,99
733305,note_off,1305,0,4,,,,,,,,,4,,,56,0
733320,note_off,1320,0,5,,,,,,,,,5,,,48,0
733320,note_off,15,0,4,,,,,,,,,4,,,50,0
733440,set_tempo,240,1,0,,,,,,517241,,,,,,,
733440,note_on,120,0,5,,,,,,,,,5,,,47,100
733440,note_on,120,0,4,,,,,,,,,4,,,50,100
733440,note_on,0,0,4,,,,,,,,,4,,,55,100
733440,note_on,0,0,1,,,,,,,,,1,,,89,102
733440,note_off,240,0,1,,,,,,,,,1,,,80,0
733920,note_off,480,0,1,,,,,,,,,1,,,89,0
733920,note_off,480,0,5,,,,,,,,,5,,,47,0
733920,note_off,0,0,4,,,,,,,,,4,,,50,0
733920,note_off,480,0,4,,,,,,,,,4,,,55,0
734880,control_change,960,0,1,,,,,,,64,0,1,,,,
734880,control_change,960,0,5,,,,,,,64,0,5,,,,
734880,control_change,24530,0,3,,,,,,,64,0,3,,,,
734880,control_change,960,0,4,,,,,,,64,0,4,,,,
734880,set_tempo,1440,1,0,,,,,,441176,,,,,,,
734880,control_change,18240,0,2,,,,,,,64,0,2,,,,
735800,set_tempo,920,1,0,,,,,,241935,,,,,,,
735840,note_on,960,0,1,,,,,,,,,1,,,79,45
736320,note_on,1440,0,5,,,,,,,,,5,,,60,42
736320,note_on,1440,0,4,,,,,,,,,4,,,63,42
736800,note_on,0,0,1,,,,,,,,,1,,,75,43
736800,note_off,960,0,1,,,,,,,,,1,,,79,0
737185,note_off,385,0,1,,,,,,,,,1,,,75,0
737280,note_on,95,0,1,,,,,,,,,1,,,72,43
737640,note_off,1320,0,5,,,,,,,,,5,,,60,0
737640,note_off,1320,0,4,,,,,,,,,4,,,63,0
737760,note_on,120,0,5,,,,,,,,,5,,,62,43
737760,note_on,120,0,4,,,,,,,,,4,,,65,43
738240,note_off,960,0,1,,,,,,,,,1,,,72,0
738240,note_on,0,0,1,,,,,,,,,1,,,71,44
738625,note_off,385,0,1,,,,,,,,,1,,,71,0
738720,note_on,95,0,1,,,,,,,,,1,,,80,44
739080,note_off,1320,0,5,,,,,,,,,5,,,62,0
739087,note_off,1327,0,4,,,,,,,,,4,,,65,0
739200,note_on,120,0,5,,,,,,,,,5,,,59,45
739200,note_on,113,0,4,,,,,,,,,4,,,62,45
739680,note_on,0,0,1,,,,,,,,,1,,,79,45
739680,note_off,960,0,1,,,,,,,,,1,,,80,0
740065,note_off,385,0,1,,,,,,,,,1,,,79,0
740160,note_on,95,0,1,,,,,,,,,1,,,77,46
740527,note_off,1327,0,5,,,,,,,,,5,,,59,0
740527,note_off,1327,0,4,,,,,,,,,4,,,62,0
740640,note_on,113,0,4,,,,,,,,,4,,,67,46
740640,note_on,113,0,5,,,,,,,,,5,,,60,46
741120,note_on,0,0,1,,,,,,,,,1,,,75,46
741120,note_off,960,0,1,,,,,,,,,1,,,77,0
741505,note_off,385,0,1,,,,,,,,,1,,,75,0
741600,note_on,95,0,1,,,,,,,,,1,,,79,47
741960,note_off,1320,0,4,,,,,,,,,4,,,67,0
741967,note_off,1327,0,5,,,,,,,,,5,,,60,0
742080,note_on,113,0,5,,,,,,,,,5,,,63,46
742080,note_on,120,0,4,,,,,,,,,4,,,67,46
742560,note_off,960,0,1,,,,,,,,,1,,,79,0
742560,note_on,0,0,1,,,,,,,,,1,,,84,48
742945,note_off,385,0,1,,,,,,,,,1,,,84,0
743040,note_on,0,0,5,,,,,,,,,5,,,64,50
743040,note_off,960,0,5,,,,,,,,,5,,,63,0
743040,note_on,95,0,1,,,,,,,,,1,,,82,50
743520,note_on,0,0,5,,,,,,,,,5,,,65,51
743520,note_off,480,0,5,,,,,,,,,5,,,64,0
743520,note_off,1440,0,4,,,,,,,,,4,,,67,0
743520,note_on,0,0,4,,,,,,,,,4,,,68,51
744000,note_off,960,0,1,,,,,,,,,1,,,82,0
744000,note_on,0,0,1,,,,,,,,,1,,,80,53
744367,note_off,847,0,4,,,,,,,,,4,,,68,0
744367,note_off,847,0,5,,,,,,,,,5,,,65,0
744385,note_off,385,0,1,,,,,,,,,1,,,80,0
744480,note_on,95,0,1,,,,,,,,,1,,,79,54
744480,note_on,113,0,5,,,,,,,,,5,,,67,54
744480,note_on,113,0,4,,,,,,,,,4,,,70,54
744840,note_off,360,0,4,,,,,,,,,4,,,70,0
744840,note_off,360,0,5,,,,,,,,,5,,,67,0
744960,note_on,120,0,5,,,,,,,,,5,,,68,56
744960,note_on,120,0,4,,,,,,,,,4,,,72,56
745440,note_on,0,0,1,,,,,,,,,1,,,77,58
745440,note_off,960,0,1,,,,,,,,,1,,,79,0
745825,note_off,385,0,1,,,,,,,,,1,,,77,0
745920,note_on,0,0,5,,,,,,,,,5,,,69,57
745920,note_on,95,0,1,,,,,,,,,1,,,78,59
745920,note_off,960,0,5,,,,,,,,,5,,,68,0
746400,note_off,480,0,5,,,,,,,,,5,,,69,0
746400,note_on,0,0,5,,,,,,,,,5,,,67,54
746880,note_off,960,0,1,,,,,,,,,1,,,78,0
746880,note_off,1920,0,4,,,,,,,,,4,,,72,0
746880,note_on,0,0,1,,,,,,,,,1,,,79,50
746880,note_on,0,0,4,,,,,,,,,4,,,71,51
747247,note_off,847,0,5,,,,,,,,,5,,,67,0
747247,note_off,367,0,4,,,,,,,,,4,,,71,0
747265,note_off,385,0,1,,,,,,,,,1,,,79,0
747320,set_tempo,11520,1,0,,,,,,241935,,,,,,,
747360,set_tempo,40,1,0,,,,,,240000,,,,,,,
747360,note_on,95,0,1,,,,,,,,,1,,,67,45
747840,note_on,593,0,4,,,,,,,,,4,,,51,42
747840,note_on,593,0,5,,,,,,,,,5,,,48,42
748320,note_on,0,0,1,,,,,,,,,1,,,63,43
748320,note_off,960,0,1,,,,,,,,,1,,,67,0
748705,note_off,385,0,1,,,,,,,,,1,,,63,0
748800,note_on,95,0,1,,,,,,,,,1,,,60,44
749160,note_off,1320,0,5,,,,,,,,,5,,,48,0
749167,note_off,1327,0,4,,,,,,,,,4,,,51,0
749280,note_on,113,0,4,,,,,,,,,4,,,53,44
749280,note_on,120,0,5,,,,,,,,,5,,,50,44
749760,note_off,960,0,1,,,,,,,,,1,,,60,0
749760,note_on,0,0,1,,,,,,,,,1,,,59,45
750145,note_off,385,0,1,,,,,,,,,1,,,59,0
750240,note_on,95,0,1,,,,,,,,,1,,,68,45
750600,note_off,1320,0,4,,,,,,,,,4,,,53,0
750607,note_off,1327,0,5,,,,,,,,,5,,,50,0
750720,note_on,120,0,4,,,,,,,,,4,,,50,46
750720,note_on,113,0,5,,,,,,,,,5,,,47,46
751200,note_off,960,0,1,,,,,,,,,1,,,68,0
751200,note_on,0,0,1,,,,,,,,,1,,,67,47
751585,note_off,385,0,1,,,,,,,,,1,,,67,0
751680,note_on,95,0,1,,,,,,,,,1,,,65,47
752040,note_off,1320,0,4,,,,,,,,,4,,,50,0
752040,note_off,1320,0,5,,,,,,,,,5,,,47,0
752160,note_on,120,0,4,,,,,,,,,4,,,49,48
752160,note_on,120,0,5,,,,,,,,,5,,,46,48
752640,note_on,0,0,1,,,,,,,,,1,,,64,48
752640,note_off,960,0,1,,,,,,,,,1,,,65,0
753025,note_off,385,0,1,,,,,,,,,1,,,64,0
753120,note_on,95,0,1,,,,,,,,,1,,,73,49
753480,note_off,1320,0,4,,,,,,,,,4,,,49,0
753487,note_off,1327,0,5,,,,,,,,,5,,,46,0
753600,note_on,120,0,4,,,,,,,,,4,,,55,51
753600,note_on,113,0,5,,,,,,,,,5,,,52,51
754080,note_off,960,0,1,,,,,,,,,1,,,73,0
754080,note_on,0,0,1,,,,,,,,,1,,,72,54
754465,note_off,385,0,1,,,,,,,,,1,,,72,0
754560,note_on,0,0,4,,,,,,,,,4,,,60,57
754560,note_off,960,0,4,,,,,,,,,4,,,55,0
754560,note_on,95,0,1,,,,,,,,,1,,,70,57
755040,note_off,1440,0,5,,,,,,,,,5,,,52,0
755040,note_on,0,0,5,,,,,,,,,5,,,53,59
755040,note_off,480,0,1,,,,,,,,,1,,,70,0
755040,note_on,0,0,1,,,,,,,,,1,,,68,59
755520,note_off,480,0,5,,,,,,,,,5,,,53,0
755520,note_on,0,0,5,,,,,,,,,5,,,55,62
755520,note_off,480,0,1,,,,,,,,,1,,,68,0
755520,note_on,0,0,1,,,,,,,,,1,,,67,62
756000,note_off,480,0,1,,,,,,,,,1,,,67,0
756000,note_off,480,0,5,,,,,,,,,5,,,55,0
756000,note_on,0,0,5,,,,,,,,,5,,,56,66
756000,note_on,0,0,1,,,,,,,,,1,,,66,66
756360,note_off,1800,0,4,,,,,,,,,4,,,60,0
756360,note_off,360,0,5,,,,,,,,,5,,,56,0
756367,note_off,367,0,1,,,,,,,,,1,,,66,0
756480,note_on,120,0,5,,,,,,,,,5,,,55,70
756480,set_tempo,9120,1,0,,,,,,240000,,,,,,,
756480,note_on,113,0,1,,,,,,,,,1,,,67,70
756480,note_on,21600,0,2,,,,,,,,,2,,,63,70
756960,note_on,0,0,2,,,,,,,,,2,,,60,67
756960,note_off,480,0,2,,,,,,,,,2,,,63,0
756960,note_on,0,0,1,,,,,,,,,1,,,63,67
756960,note_off,480,0,1,,,,,,,,,1,,,67,0
756960,note_off,480,0,5,,,,,,,,,5,,,55,0
757440,note_on,0,0,1,,,,,,,,,1,,,62,62
757440,note_off,480,0,1,,,,,,,,,1,,,63,0
757440,note_on,1080,0,4,,,,,,,,,4,,,53,62
757440,note_off,480,0,2,,,,,,,,,2,,,60,0
757440,note_on,0,0,2,,,,,,,,,2,,,59,62
757440,note_on,480,0,5,,,,,,,,,5,,,43,62
757800,note_off,360,0,2,,,,,,,,,2,,,59,0
757800,note_off,360,0,1,,,,,,,,,1,,,62,0
757800,note_off,360,0,4,,,,,,,,,4,,,53,0
757807,note_off,367,0,5,,,,,,,,,5,,,43,0
757880,set_tempo,1400,1,0,,,,,,241935,,,,,,,
757920,set_tempo,40,1,0,,,,,,241935,,,,,,,
757920,note_on,120,0,1,,,,,,,,,1,,,60,57
757920,note_on,113,0,5,,,,,,,,,5,,,48,57
757920,note_on,120,0,4,,,,,,,,,4,,,51,57
758280,note_off,360,0,5,,,,,,,,,5,,,48,0
758280,note_off,360,0,4,,,,,,,,,4,,,51,0
758287,note_off,367,0,1,,,,,,,,,1,,,60,0
758880,set_tempo,960,1,0,,,,,,240000,,,,,,,
758880,note_on,593,0,1,,,,,,,,,1,,,77,68
759000,note_off,120,0,1,,,,,,,,,1,,,77,0
759000,note_on,0,0,1,,,,,,,,,1,,,75,68
759120,note_on,0,0,1,,,,,,,,,1,,,74,68
759120,note_off,120,0,1,,,,,,,,,1,,,75,0
759240,note_off,120,0,1,,,,,,,,,1,,,74,0
759240,note_on,0,0,1,,,,,,,,,1,,,72,68
759336,note_off,96,0,1,,,,,,,,,1,,,72,0
759360,note_on,1080,0,5,,,,,,,,,5,,,59,69
759360,note_on,0,0,5,,,,,,,,,5,,,62,69
759360,note_on,24,0,1,,,,,,,,,1,,,79,69
759600,note_on,1320,0,4,,,,,,,,,4,,,55,69
759720,note_off,360,0,5,,,,,,,,,5,,,62,0
759727,note_off,7,0,5,,,,,,,,,5,,,59,0
759727,note_off,367,0,1,,,,,,,,,1,,,79,0
759792,note_off,192,0,4,,,,,,,,,4,,,55,0
759840,note_on,2040,0,2,,,,,,,,,2,,,67,69
759840,note_on,113,0,1,,,,,,,,,1,,,79,69
759840,note_on,0,0,5,,,,,,,,,5,,,63,69
759840,note_on,113,0,5,,,,,,,,,5,,,60,69
760080,note_on,288,0,4,,,,,,,,,4,,,55,70
760200,note_off,360,0,5,,,,,,,,,5,,,63,0
760200,note_off,0,0,5,,,,,,,,,5,,,60,0
760200,note_off,360,0,2,,,,,,,,,2,,,67,0
760200,note_off,360,0,1,,,,,,,,,1,,,79,0
760272,note_off,192,0,4,,,,,,,,,4,,,55,0
760320,note_on,120,0,1,,,,,,,,,1,,,79,70
760320,note_on,0,0,5,,,,,,,,,5,,,65,70
760320,note_on,120,0,5,,,,,,,,,5,,,62,70
760320,note_on,120,0,2,,,,,,,,,2,,,67,70
760560,note_on,288,0,4,,,,,,,,,4,,,55,70
760680,note_off,360,0,5,,,,,,,,,5,,,62,0
760687,note_off,367,0,1,,,,,,,,,1,,,79,0
760687,note_off,367,0,2,,,,,,,,,2,,,67,0
760687,note_off,7,0,5,,,,,,,,,5,,,65,0
760752,note_off,192,0,4,,,,,,,,,4,,,55,0
760800,note_on,113,0,5,,,,,,,,,5,,,63,71
760800,note_on,0,0,5,,,,,,,,,5,,,60,71
760800,note_on,113,0,2,,,,,,,,,2,,,67,71
760800,note_on,113,0,1,,,,,,,,,1,,,79,71
761040,note_on,288,0,4,,,,,,,,,4,,,55,71
761160,note_off,360,0,5,,,,,,,,,5,,,63,0
761167,note_off,7,0,5,,,,,,,,,5,,,60,0
761232,note_off,192,0,4,,,,,,,,,4,,,55,0
761280,note_on,0,0,5,,,,,,,,,5,,,63,72
761280,note_on,113,0,5,,,,,,,,,5,,,60,72
761520,note_on,288,0,4,,,,,,,,,4,,,55,72
761640,note_off,840,0,1,,,,,,,,,1,,,79,0
761640,note_off,360,0,5,,,,,,,,,5,,,60,0
761640,note_off,840,0,2,,,,,,,,,2,,,67,0
761647,note_off,7,0,5,,,,,,,,,5,,,63,0
761712,note_off,192,0,4,,,,,,,,,4,,,55,0
761760,note_on,120,0,1,,,,,,,,,1,,,77,72
761760,note_on,0,0,5,,,,,,,,,5,,,60,72
761760,note_on,113,0,5,,,,,,,,,5,,,63,72
761880,note_off,120,0,1,,,,,,,,,1,,,77,0
761880,note_on,0,0,1,,,,,,,,,1,,,75,73
762000,note_off,120,0,1,,,,,,,,,1,,,75,0
762000,note_on,0,0,1,,,,,,,,,1,,,74,73
762000,note_on,288,0,4,,,,,,,,,4,,,55,73
762120,note_off,120,0,1,,,,,,,,,1,,,74,0
762120,note_off,360,0,5,,,,,,,,,5,,,63,0
762120,note_on,0,0,1,,,,,,,,,1,,,72,73
762127,note_off,7,0,5,,,,,,,,,5,,,60,0
762192,note_off,192,0,4,,,,,,,,,4,,,55,0
762216,note_off,96,0,1,,,,,,,,,1,,,72,0
762240,note_on,24,0,1,,,,,,,,,1,,,79,73
762240,note_on,0,0,5,,,,,,,,,5,,,62,73
762240,note_on,113,0,5,,,,,,,,,5,,,59,73
762480,note_on,288,0,4,,,,,,,,,4,,,55,74
762600,note_off,360,0,1,,,,,,,,,1,,,79,0
762600,note_off,360,0,5,,,,,,,,,5,,,59,0
762607,note_off,7,0,5,,,,,,,,,5,,,62,0
762672,note_off,192,0,4,,,,,,,,,4,,,55,0
762720,note_on,0,0,5,,,,,,,,,5,,,63,74
762720,note_on,120,0,1,,,,,,,,,1,,,79,74
762720,note_on,1080,0,2,,,,,,,,,2,,,67,74
762720,note_on,113,0,5,,,,,,,,,5,,,60,74
762960,note_on,288,0,4,,,,,,,,,4,,,55,74
763080,note_off,360,0,5,,,,,,,,,5,,,60,0
763087,note_off,7,0,5,,,,,,,,,5,,,63,0
763087,note_off,367,0,1,,,,,,,,,1,,,79,0
763087,note_off,367,0,2,,,,,,,,,2,,,67,0
763152,note_off,192,0,4,,,,,,,,,4,,,55,0
763200,note_on,0,0,5,,,,,,,,,5,,,65,75
763200,note_on,113,0,5,,,,,,,,,5,,,62,75
763200,note_on,113,0,2,,,,,,,,,2,,,67,75
763200,note_on,113,0,1,,,,,,,,,1,,,79,75
763440,note_on,288,0,4,,,,,,,,,4,,,55,75
763560,note_off,360,0,1,,,,,,,,,1,,,79,0
763567,note_off,367,0,2,,,,,,,,,2,,,67,0
763567,note_off,367,0,5,,,,,,,,,5,,,65,0
763567,note_off,0,0,5,,,,,,,,,5,,,62,0
763632,note_off,192,0,4,,,,,,,,,4,,,55,0
763680,note_on,120,0,1,,,,,,,,,1,,,79,75
763680,note_on,113,0,2,,,,,,,,,2,,,67,75
763680,note_on,113,0,5,,,,,,,,,5,,,63,75
763680,note_on,0,0,5,,,,,,,,,5,,,60,75
763920,note_on,288,0,4,,,,,,,,,4,,,55,76
764040,note_off,360,0,5,,,,,,,,,5,,,60,0
764047,note_off,7,0,5,,,,,,,,,5,,,63,0
764112,note_off,192,0,4,,,,,,,,,4,,,55,0
764160,note_on,0,0,5,,,,,,,,,5,,,60,76
764160,note_on,113,0,5,,,,,,,,,5,,,63,76
764400,note_on,288,0,4,,,,,,,,,4,,,55,77
764512,note_off,352,0,5,,,,,,,,,5,,,63,0
764520,note_off,8,0,5,,,,,,,,,5,,,60,0
764520,note_off,840,0,1,,,,,,,,,1,,,79,0
764527,note_off,847,0,2,,,,,,,,,2,,,67,0
764592,note_off,192,0,4,,,,,,,,,4,,,55,0
764640,note_on,120,0,5,,,,,,,,,5,,,63,77
764640,note_on,0,0,5,,,,,,,,,5,,,60,77
764640,note_on,120,0,1,,,,,,,,,1,,,77,77
764760,note_off,120,0,1,,,,,,,,,1,,,77,0
764760,note_on,0,0,1,,,,,,,,,1,,,75,77
764880,note_off,120,0,1,,,,,,,,,1,,,75,0
764880,note_on,0,0,1,,,,,,,,,1,,,74,77
764880,note_on,288,0,4,,,,,,,,,4,,,55,77
764992,note_off,352,0,5,,,,,,,,,5,,,63,0
765000,note_on,0,0,1,,,,,,,,,1,,,72,78
765000,note_off,120,0,1,,,,,,,,,1,,,74,0
765007,note_off,15,0,5,,,,,,,,,5,,,60,0
765072,note_off,192,0,4,,,,,,,,,4,,,55,0
765096,note_off,96,0,1,,,,,,,,,1,,,72,0
765120,note_on,0,0,2,,,,,,,,,2,,,71,78
765120,control_change,593,0,2,,,,,,,64,127,2,,,,
765120,control_change,113,0,5,,,,,,,64,127,5,,,,
765120,control_change,30240,0,3,,,,,,,64,127,3,,,,
765120,control_change,48,0,4,,,,,,,64,127,4,,,,
765120,control_change,24,0,1,,,,,,,64,127,1,,,,
765145,note_off,25,0,2,,,,,,,,,2,,,71,0
765160,note_on,15,0,2,,,,,,,,,2,,,74,78
765185,note_off,25,0,2,,,,,,,,,2,,,74,0
765200,note_on,80,0,1,,,,,,,,,1,,,80,78
765225,note_off,25,0,1,,,,,,,,,1,,,80,0
765480,control_change,360,0,3,,,,,,,64,0,3,,,,
765480,control_change,360,0,4,,,,,,,64,0,4,,,,
765480,control_change,360,0,5,,,,,,,64,0,5,,,,
765480,control_change,295,0,2,,,,,,,64,0,2,,,,
765480,control_change,255,0,1,,,,,,,64,0,1,,,,
765600,note_on,120,0,5,,,,,,,,,5,,,41,79
765600,note_on,0,0,5,,,,,,,,,5,,,53,79
765910,note_off,310,0,5,,,,,,,,,5,,,53,0
765910,note_off,0,0,5,,,,,,,,,5,,,41,0
766080,note_on,0,0,5,,,,,,,,,5,,,65,79
766080,note_on,170,0,5,,,,,,,,,5,,,53,79
766390,note_off,310,0,5,,,,,,,,,5,,,65,0
766390,note_off,0,0,5,,,,,,,,,5,,,53,0
766560,control_change,1080,0,1,,,,,,,64,127,1,,,,
766560,control_change,1080,0,4,,,,,,,64,127,4,,,,
766560,control_change,1080,0,2,,,,,,,64,127,2,,,,
766560,note_on,0,0,2,,,,,,,,,2,,,72,80
766560,control_change,1080,0,3,,,,,,,64,127,3,,,,
766560,control_change,170,0,5,,,,,,,64,127,5,,,,
766585,note_off,25,0,2,,,,,,,,,2,,,72,0
766600,note_on,15,0,2,,,,,,,,,2,,,75,80
766625,note_off,25,0,2,,,,,,,,,2,,,75,0
766640,note_on,80,0,1,,,,,,,,,1,,,79,80
766665,note_off,25,0,1,,,,,,,,,1,,,79,0
766920,control_change,360,0,4,,,,,,,64,0,4,,,,
766920,control_change,360,0,3,,,,,,,64,0,3,,,,
766920,control_change,255,0,1,,,,,,,64,0,1,,,,
766920,control_change,360,0,5,,,,,,,64,0,5,,,,
766920,control_change,295,0,2,,,,,,,64,0,2,,,,
767040,note_on,120,0,5,,,,,,,,,5,,,39,81
767040,note_on,0,0,5,,,,,,,,,5,,,51,81
767350,note_off,310,0,5,,,,,,,,,5,,,51,0
767350,note_off,0,0,5,,,,,,,,,5,,,39,0
767520,note_on,0,0,5,,,,,,,,,5,,,63,82
767520,note_on,170,0,5,,,,,,,,,5,,,51,82
767830,note_off,0,0,5,,,,,,,,,5,,,51,0
767830,note_off,310,0,5,,,,,,,,,5,,,63,0
768000,note_on,170,0,5,,,,,,,,,5,,,62,84
768000,note_on,0,0,5,,,,,,,,,5,,,50,84
768310,note_off,310,0,5,,,,,,,,,5,,,50,0
768310,note_off,0,0,5,,,,,,,,,5,,,62,0
768480,control_change,1560,0,2,,,,,,,64,127,2,,,,
768480,note_on,0,0,2,,,,,,,,,2,,,74,88
768480,control_change,170,0,5,,,,,,,64,127,5,,,,
768480,control_change,1560,0,3,,,,,,,64,127,3,,,,
768480,control_change,1560,0,4,,,,,,,64,127,4,,,,
768480,control_change,1560,0,1,,,,,,,64,127,1,,,,
768505,note_off,25,0,2,,,,,,,,,2,,,74,0
768520,note_on,15,0,2,,,,,,,,,2,,,77,88
768545,note_off,25,0,2,,,,,,,,,2,,,77,0
768560,note_on,80,0,1,,,,,,,,,1,,,83,88
768585,note_off,25,0,1,,,,,,,,,1,,,83,0
768840,control_change,360,0,5,,,,,,,64,0,5,,,,
768840,control_change,295,0,2,,,,,,,64,0,2,,,,
768840,control_change,360,0,4,,,,,,,64,0,4,,,,
768840,control_change,360,0,3,,,,,,,64,0,3,,,,
768840,control_change,255,0,1,,,,,,,64,0,1,,,,
768960,control_change,120,0,2,,,,,,,64,127,2,,,,
768960,control_change,120,0,5,,,,,,,64,127,5,,,,
768960,control_change,120,0,3,,,,,,,64,127,3,,,,
768960,control_change,120,0,1,,,,,,,64,127,1,,,,
768960,note_on,0,0,2,,,,,,,,,2,,,77,91
768960,control_change,120,0,4,,,,,,,64,127,4,,,,
768985,note_off,25,0,2,,,,,,,,,2,,,77,0
769000,note_on,15,0,2,,,,,,,,,2,,,83,92
769025,note_off,25,0,2,,,,,,,,,2,,,83,0
769040,note_on,80,0,1,,,,,,,,,1,,,86,92
769065,note_off,25,0,1,,,,,,,,,1,,,86,0
769320,control_change,255,0,1,,,,,,,64,0,1,,,,
769320,control_change,360,0,3,,,,,,,64,0,3,,,,
769320,control_change,360,0,4,,,,,,,64,0,4,,,,
769320,control_change,295,0,2,,,,,,,64,0,2,,,,
769320,control_change,360,0,5,,,,,,,64,0,5,,,,
769380,set_tempo,10500,1,0,,,,,,244897,,,,,,,
769440,note_on,120,0,1,,,,,,,,,1,,,89,95
769440,note_on,120,0,2,,,,,,,,,2,,,86,95
769440,note_on,0,0,2,,,,,,,,,2,,,79,95
769440,note_on,120,0,5,,,,,,,,,5,,,47,95
769440,note_on,0,0,5,,,,,,,,,5,,,59,95
769440,set_tempo,60,1,0,,,,,,372670,,,,,,,
769825,note_off,385,0,1,,,,,,,,,1,,,89,0
769825,note_off,385,0,2,,,,,,,,,2,,,79,0
769825,note_off,0,0,2,,,,,,,,,2,,,86,0
769825,note_off,385,0,5,,,,,,,,,5,,,59,0
769825,note_off,0,0,5,,,,,,,,,5,,,47,0
769920,set_tempo,480,1,0,,,,,,845070,,,,,,,
770880,set_tempo,960,1,0,,,,,,240000,,,,,,,
770880,note_on,1055,0,1,,,,,,,,,1,,,75,60
772320,note_on,2495,0,5,,,,,,,,,5,,,60,55
772320,note_off,1440,0,1,,,,,,,,,1,,,75,0
772320,note_on,3000,0,4,,,,,,,,,4,,,63,55
772320,note_on,0,0,1,,,,,,,,,1,,,66,55
773640,note_off,1320,0,5,,,,,,,,,5,,,60,0
773640,note_off,1320,0,1,,,,,,,,,1,,,66,0
773640,note_off,1320,0,4,,,,,,,,,4,,,63,0
773760,note_on,120,0,4,,,,,,,,,4,,,62,57
773760,note_on,120,0,5,,,,,,,,,5,,,59,57
773760,note_on,120,0,1,,,,,,,,,1,,,67,57
773760,note_on,0,0,4,,,,,,,,,4,,,65,57
774480,note_off,720,0,1,,,,,,,,,1,,,67,0
774480,note_on,0,0,1,,,,,,,,,1,,,68,52
774720,note_off,960,0,5,,,,,,,,,5,,,59,0
774720,note_on,0,0,4,,,,,,,,,4,,,63,50
774720,note_off,0,0,4,,,,,,,,,4,,,62,0
774720,note_off,240,0,1,,,,,,,,,1,,,68,0
774720,note_off,960,0,4,,,,,,,,,4,,,65,0
774720,note_on,0,0,5,,,,,,,,,5,,,60,50
774720,note_on,0,0,1,,,,,,,,,1,,,67,50
775080,note_off,360,0,4,,,,,,,,,4,,,63,0
775080,note_off,360,0,5,,,,,,,,,5,,,60,0
775087,note_off,367,0,1,,,,,,,,,1,,,67,0
775200,note_on,113,0,1,,,,,,,,,1,,,67,53
775200,note_on,5375,0,2,,,,,,,,,2,,,63,53
775200,note_on,120,0,5,,,,,,,,,5,,,53,53
775440,note_on,0,0,2,,,,,,,,,2,,,62,51
775440,note_off,240,0,2,,,,,,,,,2,,,63,0
775440,note_off,240,0,1,,,,,,,,,1,,,67,0
775440,note_on,0,0,1,,,,,,,,,1,,,65,51
775585,note_off,385,0,5,,,,,,,,,5,,,53,0
775620,note_off,180,0,1,,,,,,,,,1,,,65,0
775632,note_off,192,0,2,,,,,,,,,2,,,62,0
775680,note_on,48,0,2,,,,,,,,,2,,,60,50
775680,note_on,95,0,5,,,,,,,,,5,,,55,50
775680,note_on,60,0,1,,,,,,,,,1,,,63,50
776040,note_off,360,0,1,,,,,,,,,1,,,63,0
776047,note_off,367,0,2,,,,,,,,,2,,,60,0
776065,note_off,385,0,5,,,,,,,,,5,,,55,0
776160,note_on,113,0,2,,,,,,,,,2,,,59,46
776160,note_on,95,0,5,,,,,,,,,5,,,43,46
776160,note_on,120,0,1,,,,,,,,,1,,,62,46
776520,note_off,360,0,2,,,,,,,,,2,,,59,0
776527,note_off,367,0,1,,,,,,,,,1,,,62,0
776545,note_off,385,0,5,,,,,,,,,5,,,43,0
776600,set_tempo,5720,1,0,,,,,,241935,,,,,,,
776640,note_on,95,0,5,,,,,,,,,5,,,48,43
776640,note_on,113,0,1,,,,,,,,,1,,,60,43
777007,note_off,367,0,1,,,,,,,,,1,,,60,0
777025,note_off,385,0,5,,,,,,,,,5,,,48,0
777600,set_tempo,1000,1,0,,,,,,240000,,,,,,,
777600,note_on,593,0,1,,,,,,,,,1,,,77,68
777720,note_on,0,0,1,,,,,,,,,1,,,75,68
777720,note_off,120,0,1,,,,,,,,,1,,,77,0
777840,note_on,0,0,1,,,,,,,,,1,,,74,68
777840,note_off,120,0,1,,,,,,,,,1,,,75,0
777960,note_off,120,0,1,,,,,,,,,1,,,74,0
777960,note_on,0,0,1,,,,,,,,,1,,,72,68
778056,note_off,96,0,1,,,,,,,,,1,,,72,0
778080,note_on,24,0,1,,,,,,,,,1,,,79,69
778080,note_on,1055,0,5,,,,,,,,,5,,,62,69
778080,note_on,0,0,5,,,,,,,,,5,,,59,69
778320,note_on,9000,0,3,,,,,,,,,3,,,55,69
778440,note_off,360,0,5,,,,,,,,,5,,,62,0
778447,note_off,367,0,1,,,,,,,,,1,,,79,0
778447,note_off,7,0,5,,,,,,,,,5,,,59,0
778512,note_off,192,0,3,,,,,,,,,3,,,55,0
778560,note_on,113,0,1,,,,,,,,,1,,,79,69
778560,note_on,2040,0,2,,,,,,,,,2,,,67,69
778560,note_on,0,0,5,,,,,,,,,5,,,60,69
778560,note_on,113,0,5,,,,,,,,,5,,,63,69
778800,note_on,288,0,3,,,,,,,,,3,,,55,70
778920,note_off,360,0,2,,,,,,,,,2,,,67,0
778920,note_off,360,0,5,,,,,,,,,5,,,60,0
778920,note_off,360,0,1,,,,,,,,,1,,,79,0
778920,note_off,0,0,5,,,,,,,,,5,,,63,0
778992,note_off,192,0,3,,,,,,,,,3,,,55,0
779040,note_on,120,0,5,,,,,,,,,5,,,65,70
779040,note_on,120,0,2,,,,,,,,,2,,,67,70
779040,note_on,0,0,5,,,,,,,,,5,,,62,70
779040,note_on,120,0,1,,,,,,,,,1,,,79,70
779280,note_on,288,0,3,,,,,,,,,3,,,55,71
779400,note_off,360,0,5,,,,,,,,,5,,,62,0
779407,note_off,367,0,1,,,,,,,,,1,,,79,0
779407,note_off,7,0,5,,,,,,,,,5,,,65,0
779407,note_off,367,0,2,,,,,,,,,2,,,67,0
779472,note_off,192,0,3,,,,,,,,,3,,,55,0
779520,note_on,113,0,5,,,,,,,,,5,,,60,71
779520,note_on,113,0,2,,,,,,,,,2,,,67,71
779520,note_on,0,0,5,,,,,,,,,5,,,63,71
779520,note_on,113,0,1,,,,,,,,,1,,,79,71
779760,note_on,288,0,3,,,,,,,,,3,,,55,71
779880,note_off,360,0,5,,,,,,,,,5,,,63,0
779887,note_off,7,0,5,,,,,,,,,5,,,60,0
779952,note_off,192,0,3,,,,,,,,,3,,,55,0
780000,note_on,113,0,5,,,,,,,,,5,,,63,72
780000,note_on,0,0,5,,,,,,,,,5,,,60,72
780240,note_on,288,0,3,,,,,,,,,3,,,55,72
780360,note_off,840,0,1,,,,,,,,,1,,,79,0
780360,note_off,840,0,2,,,,,,,,,2,,,67,0
780360,note_off,360,0,5,,,,,,,,,5,,,60,0
780367,note_off,7,0,5,,,,,,,,,5,,,63,0
780432,note_off,192,0,3,,,,,,,,,3,,,55,0
780480,note_on,0,0,5,,,,,,,,,5,,,63,73
780480,note_on,113,0,5,,,,,,,,,5,,,60,73
780480,note_on,120,0,1,,,,,,,,,1,,,77,73
780600,note_on,0,0,1,,,,,,,,,1,,,75,73
780600,note_off,120,0,1,,,,,,,,,1,,,77,0
780720,note_on,288,0,3,,,,,,,,,3,,,55,73
780720,note_on,0,0,1,,,,,,,,,1,,,74,73
780720,note_off,120,0,1,,,,,,,,,1,,,75,0
780840,note_off,360,0,5,,,,,,,,,5,,,63,0
780840,note_off,120,0,1,,,,,,,,,1,,,74,0
780840,note_on,0,0,1,,,,,,,,,1,,,72,73
780847,note_off,7,0,5,,,,,,,,,5,,,60,0
780912,note_off,192,0,3,,,,,,,,,3,,,55,0
780936,note_off,96,0,1,,,,,,,,,1,,,72,0
780960,note_on,113,0,5,,,,,,,,,5,,,62,73
780960,note_on,0,0,5,,,,,,,,,5,,,59,73
780960,note_on,24,0,1,,,,,,,,,1,,,79,73
781200,note_on,288,0,3,,,,,,,,,3,,,55,74
781320,note_off,360,0,1,,,,,,,,,1,,,79,0
781320,note_off,360,0,5,,,,,,,,,5,,,59,0
781327,note_off,7,0,5,,,,,,,,,5,,,62,0
781392,note_off,192,0,3,,,,,,,,,3,,,55,0
781440,note_on,113,0,5,,,,,,,,,5,,,63,74
781440,note_on,0,0,5,,,,,,,,,5,,,60,74
781440,note_on,1080,0,2,,,,,,,,,2,,,67,74
781440,note_on,120,0,1,,,,,,,,,1,,,79,74
781680,note_on,288,0,3,,,,,,,,,3,,,55,74
781800,note_off,360,0,5,,,,,,,,,5,,,60,0
781807,note_off,7,0,5,,,,,,,,,5,,,63,0
781807,note_off,367,0,1,,,,,,,,,1,,,79,0
781807,note_off,367,0,2,,,,,,,,,2,,,67,0
781872,note_off,192,0,3,,,,,,,,,3,,,55,0
781920,note_on,113,0,2,,,,,,,,,2,,,67,75
781920,note_on,113,0,5,,,,,,,,,5,,,65,75
781920,note_on,0,0,5,,,,,,,,,5,,,62,75
781920,note_on,113,0,1,,,,,,,,,1,,,79,75
782160,note_on,288,0,3,,,,,,,,,3,,,55,75
782280,note_off,360,0,1,,,,,,,,,1,,,79,0
782287,note_off,367,0,2,,,,,,,,,2,,,67,0
782287,note_off,367,0,5,,,,,,,,,5,,,62,0
782287,note_off,0,0,5,,,,,,,,,5,,,65,0
782352,note_off,192,0,3,,,,,,,,,3,,,55,0
782400,note_on,113,0,5,,,,,,,,,5,,,60,76
782400,note_on,0,0,5,,,,,,,,,5,,,63,76
782400,note_on,113,0,2,,,,,,,,,2,,,67,76
782400,note_on,120,0,1,,,,,,,,,1,,,79,76
782640,note_on,288,0,3,,,,,,,,,3,,,55,76
782760,note_off,360,0,5,,,,,,,,,5,,,60,0
782767,note_off,7,0,5,,,,,,,,,5,,,63,0
782832,note_off,192,0,3,,,,,,,,,3,,,55,0
782880,note_on,0,0,5,,,,,,,,,5,,,63,76
782880,note_on,113,0,5,,,,,,,,,5,,,60,76
783120,note_on,288,0,3,,,,,,,,,3,,,55,77
783232,note_off,352,0,5,,,,,,,,,5,,,63,0
783240,note_off,8,0,5,,,,,,,,,5,,,60,0
783240,note_off,840,0,1,,,,,,,,,1,,,79,0
783247,note_off,847,0,2,,,,,,,,,2,,,67,0
783312,note_off,192,0,3,,,,,,,,,3,,,55,0
783360,note_on,0,0,5,,,,,,,,,5,,,63,77
783360,note_on,120,0,1,,,,,,,,,1,,,77,77
783360,note_on,120,0,5,,,,,,,,,5,,,60,77
783480,note_off,120,0,1,,,,,,,,,1,,,77,0
783480,note_on,0,0,1,,,,,,,,,1,,,75,77
783600,note_off,120,0,1,,,,,,,,,1,,,75,0
783600,note_on,0,0,1,,,,,,,,,1,,,74,78
783600,note_on,288,0,3,,,,,,,,,3,,,55,78
783712,note_off,352,0,5,,,,,,,,,5,,,63,0
783720,note_off,120,0,1,,,,,,,,,1,,,74,0
783720,note_on,0,0,1,,,,,,,,,1,,,72,78
783727,note_off,15,0,5,,,,,,,,,5,,,60,0
783792,note_off,192,0,3,,,,,,,,,3,,,55,0
783816,note_off,96,0,1,,,,,,,,,1,,,72,0
783840,control_change,24,0,1,,,,,,,64,127,1,,,,
783840,control_change,48,0,3,,,,,,,64,127,3,,,,
783840,note_on,0,0,2,,,,,,,,,2,,,71,78
783840,control_change,113,0,5,,,,,,,64,127,5,,,,
783840,control_change,8760,0,4,,,,,,,64,127,4,,,,
783840,control_change,593,0,2,,,,,,,64,127,2,,,,
783865,note_off,25,0,2,,,,,,,,,2,,,71,0
783880,note_on,15,0,2,,,,,,,,,2,,,74,78
783905,note_off,25,0,2,,,,,,,,,2,,,74,0
783920,note_on,80,0,1,,,,,,,,,1,,,80,78
783945,note_off,25,0,1,,,,,,,,,1,,,80,0
784200,control_change,255,0,1,,,,,,,64,0,1,,,,
784200,control_change,360,0,3,,,,,,,64,0,3,,,,
784200,control_change,295,0,2,,,,,,,64,0,2,,,,
784200,control_change,360,0,5,,,,,,,64,0,5,,,,
784200,control_change,360,0,4,,,,,,,64,0,4,,,,
784320,note_on,120,0,5,,,,,,,,,5,,,53,79
784320,note_on,0,0,5,,,,,,,,,5,,,41,79
784630,note_off,310,0,5,,,,,,,,,5,,,41,0
784630,note_off,0,0,5,,,,,,,,,5,,,53,0
784800,note_on,170,0,5,,,,,,,,,5,,,65,80
784800,note_on,0,0,5,,,,,,,,,5,,,53,80
785110,note_off,310,0,5,,,,,,,,,5,,,53,0
785110,note_off,0,0,5,,,,,,,,,5,,,65,0
785280,control_change,1080,0,3,,,,,,,64,127,3,,,,
785280,control_change,170,0,5,,,,,,,64,127,5,,,,
785280,control_change,1080,0,2,,,,,,,64,127,2,,,,
785280,note_on,0,0,2,,,,,,,,,2,,,72,80
785280,control_change,1080,0,4,,,,,,,64,127,4,,,,
785280,control_change,1080,0,1,,,,,,,64,127,1,,,,
785305,note_off,25,0,2,,,,,,,,,2,,,72,0
785320,note_on,15,0,2,,,,,,,,,2,,,75,80
785345,note_off,25,0,2,,,,,,,,,2,,,75,0
785360,note_on,80,0,1,,,,,,,,,1,,,79,80
785385,note_off,25,0,1,,,,,,,,,1,,,79,0
785640,control_change,360,0,3,,,,,,,64,0,3,,,,
785640,control_change,360,0,5,,,,,,,64,0,5,,,,
785640,control_change,360,0,4,,,,,,,64,0,4,,,,
785640,control_change,255,0,1,,,,,,,64,0,1,,,,
785640,control_change,295,0,2,,,,,,,64,0,2,,,,
785760,note_on,0,0,5,,,,,,,,,5,,,39,81
785760,note_on,120,0,5,,,,,,,,,5,,,51,81
786070,note_off,310,0,5,,,,,,,,,5,,,39,0
786070,note_off,0,0,5,,,,,,,,,5,,,51,0
786240,note_on,0,0,5,,,,,,,,,5,,,51,82
786240,note_on,170,0,5,,,,,,,,,5,,,63,82
786550,note_off,310,0,5,,,,,,,,,5,,,51,0
786550,note_off,0,0,5,,,,,,,,,5,,,63,0
786720,note_on,0,0,5,,,,,,,,,5,,,62,84
786720,note_on,170,0,5,,,,,,,,,5,,,50,84
787030,note_off,0,0,5,,,,,,,,,5,,,50,0
787030,note_off,310,0,5,,,,,,,,,5,,,62,0
787200,control_change,1560,0,2,,,,,,,64,127,2,,,,
787200,note_on,0,0,2,,,,,,,,,2,,,74,87
787200,control_change,170,0,5,,,,,,,64,127,5,,,,
787200,control_change,1560,0,1,,,,,,,64,127,1,,,,
787200,control_change,1560,0,4,,,,,,,64,127,4,,,,
787200,control_change,1560,0,3,,,,,,,64,127,3,,,,
787225,note_off,25,0,2,,,,,,,,,2,,,74,0
787240,note_on,15,0,2,,,,,,,,,2,,,77,87
787265,note_off,25,0,2,,,,,,,,,2,,,77,0
787280,note_on,80,0,1,,,,,,,,,1,,,83,88
787305,note_off,25,0,1,,,,,,,,,1,,,83,0
787560,control_change,360,0,5,,,,,,,64,0,5,,,,
787560,control_change,360,0,4,,,,,,,64,0,4,,,,
787560,control_change,360,0,3,,,,,,,64,0,3,,,,
787560,control_change,255,0,1,,,,,,,64,0,1,,,,
787560,control_change,295,0,2,,,,,,,64,0,2,,,,
787680,control_change,120,0,4,,,,,,,64,127,4,,,,
787680,note_on,0,0,2,,,,,,,,,2,,,77,90
787680,control_change,120,0,5,,,,,,,64,127,5,,,,
787680,control_change,120,0,3,,,,,,,64,127,3,,,,
787680,control_change,120,0,1,,,,,,,64,127,1,,,,
787680,control_change,120,0,2,,,,,,,64,127,2,,,,
787705,note_off,25,0,2,,,,,,,,,2,,,77,0
787720,note_on,15,0,2,,,,,,,,,2,,,83,91
787745,note_off,25,0,2,,,,,,,,,2,,,83,0
787760,note_on,80,0,1,,,,,,,,,1,,,86,91
787785,note_off,25,0,1,,,,,,,,,1,,,86,0
788040,control_change,360,0,3,,,,,,,64,0,3,,,,
788040,control_change,360,0,4,,,,,,,64,0,4,,,,
788040,control_change,360,0,5,,,,,,,64,0,5,,,,
788040,control_change,255,0,1,,,,,,,64,0,1,,,,
788040,control_change,295,0,2,,,,,,,64,0,2,,,,
788100,set_tempo,10500,1,0,,,,,,244897,,,,,,,
788160,note_on,0,0,5,,,,,,,,,5,,,47,94
788160,set_tempo,60,1,0,,,,,,372670,,,,,,,
788160,note_on,0,0,2,,,,,,,,,2,,,79,94
788160,note_on,120,0,2,,,,,,,,,2,,,86,94
788160,note_on,120,0,1,,,,,,,,,1,,,89,94
788160,note_on,120,0,5,,,,,,,,,5,,,59,94
788545,note_off,0,0,2,,,,,,,,,2,,,86,0
788545,note_off,385,0,2,,,,,,,,,2,,,79,0
788545,note_off,385,0,5,,,,,,,,,5,,,47,0
788545,note_off,0,0,5,,,,,,,,,5,,,59,0
788545,note_off,385,0,1,,,,,,,,,1,,,89,0
789600,set_tempo,1440,1,0,,,,,,487804,,,,,,,
791000,set_tempo,1400,1,0,,,,,,241935,,,,,,,
791040,control_change,2495,0,5,,,,,,,64,0,5,,,,
791040,set_tempo,40,1,0,,,,,,240000,,,,,,,
791040,note_on,0,0,1,,,,,,,,,1,,,61,82
791040,control_change,3000,0,3,,,,,,,64,0,3,,,,
791040,control_change,2495,0,1,,,,,,,64,0,1,,,,
791040,note_on,0,0,5,,,,,,,,,5,,,49,82
791040,control_change,2495,0,2,,,,,,,64,0,2,,,,
791040,control_change,3000,0,4,,,,,,,64,0,4,,,,
791350,note_off,310,0,5,,,,,,,,,5,,,49,0
791350,note_off,310,0,1,,,,,,,,,1,,,61,0
791520,note_on,170,0,1,,,,,,,,,1,,,76,86
791520,note_on,170,0,5,,,,,,,,,5,,,46,86
791520,note_on,0,0,5,,,,,,,,,5,,,58,86
791520,note_on,480,0,2,,,,,,,,,2,,,70,86
791520,note_on,0,0,2,,,,,,,,,2,,,67,86
791830,note_off,310,0,2,,,,,,,,,2,,,67,0
791830,note_off,0,0,5,,,,,,,,,5,,,46,0
791830,note_off,310,0,1,,,,,,,,,1,,,76,0
791830,note_off,0,0,2,,,,,,,,,2,,,70,0
791830,note_off,310,0,5,,,,,,,,,5,,,58,0
792000,note_on,170,0,2,,,,,,,,,2,,,76,91
792000,note_on,0,0,2,,,,,,,,,2,,,70,91
792000,note_on,170,0,5,,,,,,,,,5,,,55,91
792000,note_on,0,0,5,,,,,,,,,5,,,43,91
792000,note_on,170,0,1,,,,,,,,,1,,,79,91
792310,note_off,310,0,5,,,,,,,,,5,,,43,0
792310,note_off,0,0,2,,,,,,,,,2,,,76,0
792310,note_off,310,0,2,,,,,,,,,2,,,70,0
792310,note_off,0,0,5,,,,,,,,,5,,,55,0
792310,note_off,310,0,1,,,,,,,,,1,,,79,0
792420,set_tempo,1380,1,0,,,,,,244897,,,,,,,
792480,note_on,170,0,5,,,,,,,,,5,,,52,95
792480,note_on,0,0,5,,,,,,,,,5,,,40,95
792480,set_tempo,60,1,0,,,,,,372670,,,,,,,
792480,note_on,170,0,2,,,,,,,,,2,,,79,95
792480,note_on,0,0,2,,,,,,,,,2,,,73,95
792480,note_on,170,0,1,,,,,,,,,1,,,82,95
792790,note_off,310,0,5,,,,,,,,,5,,,40,0
792790,note_off,0,0,5,,,,,,,,,5,,,52,0
792790,note_off,0,0,2,,,,,,,,,2,,,79,0
792790,note_off,310,0,2,,,,,,,,,2,,,73,0
792790,note_off,310,0,1,,,,,,,,,1,,,82,0
793920,set_tempo,1440,1,0,,,,,,487804,,,,,,,
795320,set_tempo,1400,1,0,,,,,,241935,,,,,,,
795360,set_tempo,40,1,0,,,,,,240000,,,,,,,
795360,control_change,4320,0,4,,,,,,,64,0,4,,,,
795360,control_change,2570,0,5,,,,,,,64,0,5,,,,
795360,note_on,0,0,5,,,,,,,,,5,,,53,38
795360,control_change,2570,0,1,,,,,,,64,0,1,,,,
795360,control_change,2570,0,2,,,,,,,64,0,2,,,,
795360,control_change,4320,0,3,,,,,,,64,0,3,,,,
795840,note_on,480,0,3,,,,,,,,,3,,,56,38
796320,note_off,480,0,3,,,,,,,,,3,,,56,0
796320,note_on,0,0,3,,,,,,,,,3,,,60,39
796320,note_off,960,0,5,,,,,,,,,5,,,53,0
796800,note_off,480,0,3,,,,,,,,,3,,,60,0
796800,note_on,480,0,5,,,,,,,,,5,,,52,39
797280,note_on,480,0,3,,,,,,,,,3,,,55,40
797760,note_off,480,0,3,,,,,,,,,3,,,55,0
797760,note_on,0,0,3,,,,,,,,,3,,,58,40
797760,note_off,960,0,5,,,,,,,,,5,,,52,0
798135,note_off,375,0,3,,,,,,,,,3,,,58,0
798240,note_on,2880,0,1,,,,,,,,,1,,,72,40
798240,note_on,480,0,5,,,,,,,,,5,,,53,41
798600,note_off,360,0,1,,,,,,,,,1,,,72,0
798720,note_on,585,0,3,,,,,,,,,3,,,56,41
799200,note_off,960,0,5,,,,,,,,,5,,,53,0
799200,note_on,0,0,3,,,,,,,,,3,,,60,42
799200,note_off,480,0,3,,,,,,,,,3,,,56,0
799680,note_on,480,0,5,,,,,,,,,5,,,52,42
799680,note_on,1080,0,1,,,,,,,,,1,,,72,44
799680,note_off,480,0,3,,,,,,,,,3,,,60,0
800025,note_off,345,0,1,,,,,,,,,1,,,72,0
800160,note_on,480,0,3,,,,,,,,,3,,,55,43
800640,note_on,0,0,3,,,,,,,,,3,,,58,43
800640,note_off,480,0,3,,,,,,,,,3,,,55,0
800640,note_off,960,0,5,,,,,,,,,5,,,52,0
800880,note_on,855,0,1,,,,,,,,,1,,,72,47
801015,note_off,375,0,3,,,,,,,,,3,,,58,0
801090,note_off,210,0,1,,,,,,,,,1,,,72,0
801120,note_on,30,0,1,,,,,,,,,1,,,73,50
801120,note_on,480,0,5,,,,,,,,,5,,,53,44
801600,note_on,585,0,3,,,,,,,,,3,,,56,44
802080,note_on,0,0,3,,,,,,,,,3,,,60,45
802080,note_off,960,0,5,,,,,,,,,5,,,53,0
802080,note_on,960,0,1,,,,,,,,,1,,,72,45
802080,note_off,480,0,3,,,,,,,,,3,,,56,0
802095,note_off,15,0,1,,,,,,,,,1,,,73,0
802455,note_off,360,0,1,,,,,,,,,1,,,72,0
802560,note_on,480,0,5,,,,,,,,,5,,,52,45
802560,note_off,480,0,3,,,,,,,,,3,,,60,0
803040,note_on,480,0,3,,,,,,,,,3,,,55,46
803520,note_off,480,0,3,,,,,,,,,3,,,55,0
803520,note_on,0,0,3,,,,,,,,,3,,,58,46
803520,note_off,960,0,5,,,,,,,,,5,,,52,0
803760,note_on,1305,0,1,,,,,,,,,1,,,84,46
803895,note_off,375,0,3,,,,,,,,,3,,,58,0
803955,note_off,195,0,1,,,,,,,,,1,,,84,0
804000,note_on,480,0,5,,,,,,,,,5,,,53,47
804000,note_on,45,0,1,,,,,,,,,1,,,85,53
804480,note_on,585,0,3,,,,,,,,,3,,,56,47
804960,note_off,960,0,1,,,,,,,,,1,,,85,0
804960,note_on,0,0,1,,,,,,,,,1,,,84,49
804960,note_off,480,0,3,,,,,,,,,3,,,56,0
804960,note_on,0,0,3,,,,,,,,,3,,,60,47
804960,note_off,960,0,5,,,,,,,,,5,,,53,0
805305,note_off,345,0,1,,,,,,,,,1,,,84,0
805440,note_on,480,0,5,,,,,,,,,5,,,51,48
805440,note_off,480,0,3,,,,,,,,,3,,,60,0
805920,note_on,480,0,3,,,,,,,,,3,,,55,48
806400,note_off,480,0,3,,,,,,,,,3,,,55,0
806400,note_on,0,0,3,,,,,,,,,3,,,60,51
806400,note_off,960,0,5,,,,,,,,,5,,,51,0
806760,note_off,360,0,3,,,,,,,,,3,,,60,0
806880,note_on,480,0,5,,,,,,,,,5,,,50,54
806880,note_on,1575,0,1,,,,,,,,,1,,,62,54
807168,note_off,288,0,1,,,,,,,,,1,,,62,0
807168,note_off,288,0,5,,,,,,,,,5,,,50,0
807360,note_on,192,0,1,,,,,,,,,1,,,78,61
807360,note_on,0,0,2,,,,,,,,,2,,,69,61
807360,note_on,12000,0,2,,,,,,,,,2,,,72,61
807360,note_on,192,0,5,,,,,,,,,5,,,60,61
807360,note_on,0,0,5,,,,,,,,,5,,,48,61
807648,note_off,288,0,1,,,,,,,,,1,,,78,0
807648,note_off,0,0,5,,,,,,,,,5,,,60,0
807648,note_off,288,0,2,,,,,,,,,2,,,69,0
807648,note_off,288,0,5,,,,,,,,,5,,,48,0
807648,note_off,0,0,2,,,,,,,,,2,,,72,0
807840,note_on,0,0,2,,,,,,,,,2,,,72,67
807840,note_on,192,0,1,,,,,,,,,1,,,81,67
807840,note_on,0,0,5,,,,,,,,,5,,,45,67
807840,note_on,192,0,5,,,,,,,,,5,,,57,67
807840,note_on,192,0,2,,,,,,,,,2,,,78,67
808128,note_off,0,0,5,,,,,,,,,5,,,57,0
808128,note_off,288,0,1,,,,,,,,,1,,,81,0
808128,note_off,0,0,2,,,,,,,,,2,,,78,0
808128,note_off,288,0,5,,,,,,,,,5,,,45,0
808128,note_off,288,0,2,,,,,,,,,2,,,72,0
808260,set_tempo,12900,1,0,,,,,,244897,,,,,,,
808320,note_on,192,0,5,,,,,,,,,5,,,54,74
808320,note_on,192,0,1,,,,,,,,,1,,,84,74
808320,note_on,0,0,2,,,,,,,,,2,,,75,74
808320,note_on,192,0,2,,,,,,,,,2,,,81,74
808320,note_on,0,0,5,,,,,,,,,5,,,42,74
808320,set_tempo,60,1,0,,,,,,372670,,,,,,,
808608,note_off,0,0,5,,,,,,,,,5,,,54,0
808608,note_off,288,0,2,,,,,,,,,2,,,75,0
808608,note_off,0,0,2,,,,,,,,,2,,,81,0
808608,note_off,288,0,1,,,,,,,,,1,,,84,0
808608,note_off,288,0,5,,,,,,,,,5,,,42,0
809760,set_tempo,1440,1,0,,,,,,487804,,,,,,,
811160,set_tempo,1400,1,0,,,,,,241935,,,,,,,
811200,note_on,2592,0,5,,,,,,,,,5,,,55,44
811200,set_tempo,40,1,0,,,,,,240000,,,,,,,
811680,note_on,4920,0,3,,,,,,,,,3,,,58,45
812160,note_off,960,0,5,,,,,,,,,5,,,55,0
812160,note_off,480,0,3,,,,,,,,,3,,,58,0
812160,note_on,0,0,3,,,,,,,,,3,,,62,46
812640,note_on,480,0,5,,,,,,,,,5,,,54,47
812640,note_off,480,0,3,,,,,,,,,3,,,62,0
813120,note_on,480,0,3,,,,,,,,,3,,,57,48
813600,note_on,0,0,3,,,,,,,,,3,,,60,49
813600,note_off,480,0,3,,,,,,,,,3,,,57,0
813600,note_off,960,0,5,,,,,,,,,5,,,54,0
813960,note_off,360,0,3,,,,,,,,,3,,,60,0
814080,note_on,480,0,5,,,,,,,,,5,,,55,50
814080,note_on,5472,0,1,,,,,,,,,1,,,74,50
814455,note_off,375,0,1,,,,,,,,,1,,,74,0
814560,note_on,600,0,3,,,,,,,,,3,,,58,51
815040,note_off,480,0,3,,,,,,,,,3,,,58,0
815040,note_on,0,0,3,,,,,,,,,3,,,62,51
815040,note_off,960,0,5,,,,,,,,,5,,,55,0
815520,note_on,480,0,5,,,,,,,,,5,,,54,52
815520,note_on,1065,0,1,,,,,,,,,1,,,74,54
815520,note_off,480,0,3,,,,,,,,,3,,,62,0
815895,note_off,375,0,1,,,,,,,,,1,,,74,0
816000,note_on,480,0,3,,,,,,,,,3,,,57,53
816480,note_off,960,0,5,,,,,,,,,5,,,54,0
816480,note_on,0,0,3,,,,,,,,,3,,,60,54
816480,note_off,480,0,3,,,,,,,,,3,,,57,0
816720,note_on,825,0,1,,,,,,,,,1,,,74,60
816840,note_off,360,0,3,,,,,,,,,3,,,60,0
816930,note_off,210,0,1,,,,,,,,,1,,,74,0
816960,note_on,480,0,5,,,,,,,,,5,,,55,55
816960,note_on,30,0,1,,,,,,,,,1,,,75,62
817440,note_on,600,0,3,,,,,,,,,3,,,58,56
817920,note_on,0,0,1,,,,,,,,,1,,,74,57
817920,note_off,960,0,5,,,,,,,,,5,,,55,0
817920,note_off,480,0,3,,,,,,,,,3,,,58,0
817920,note_on,0,0,3,,,,,,,,,3,,,62,57
817920,note_off,960,0,1,,,,,,,,,1,,,75,0
818280,note_off,360,0,1,,,,,,,,,1,,,74,0
818400,note_off,480,0,3,,,,,,,,,3,,,62,0
818400,note_on,480,0,5,,,,,,,,,5,,,54,58
818880,note_on,480,0,3,,,,,,,,,3,,,57,59
819360,note_on,0,0,3,,,,,,,,,3,,,60,62
819360,note_off,960,0,5,,,,,,,,,5,,,54,0
819360,note_off,480,0,3,,,,,,,,,3,,,57,0
819600,note_on,1320,0,1,,,,,,,,,1,,,86,70
819720,note_off,360,0,3,,,,,,,,,3,,,60,0
819780,note_off,180,0,1,,,,,,,,,1,,,86,0
819840,note_on,60,0,1,,,,,,,,,1,,,87,75
819840,note_on,480,0,5,,,,,,,,,5,,,55,64
820320,note_on,600,0,3,,,,,,,,,3,,,58,68
820800,note_on,0,0,3,,,,,,,,,3,,,62,72
820800,note_off,480,0,3,,,,,,,,,3,,,58,0
820800,note_off,960,0,1,,,,,,,,,1,,,87,0
820800,note_on,0,0,1,,,,,,,,,1,,,86,72
820800,note_off,960,0,5,,,,,,,,,5,,,55,0
821145,note_off,345,0,1,,,,,,,,,1,,,86,0
821280,note_on,480,0,5,,,,,,,,,5,,,55,75
821280,note_off,480,0,3,,,,,,,,,3,,,62,0
821760,note_on,480,0,3,,,,,,,,,3,,,59,79
822240,note_off,480,0,3,,,,,,,,,3,,,59,0
822240,note_off,960,0,5,,,,,,,,,5,,,55,0
822240,note_on,0,0,3,,,,,,,,,3,,,62,83
822480,note_on,13872,0,2,,,,,,,,,2,,,67,85
822480,note_on,1335,0,1,,,,,,,,,1,,,79,85
822600,note_off,360,0,3,,,,,,,,,3,,,62,0
822680,set_tempo,11480,1,0,,,,,,243902,,,,,,,
822690,note_off,210,0,2,,,,,,,,,2,,,67,0
822705,note_off,225,0,1,,,,,,,,,1,,,79,0
822720,note_on,15,0,1,,,,,,,,,1,,,80,87
822720,set_tempo,40,1,0,,,,,,331491,,,,,,,
822720,note_on,480,0,5,,,,,,,,,5,,,60,87
822720,note_on,0,0,4,,,,,,,,,4,,,65,87
822720,note_on,27360,0,4,,,,,,,,,4,,,62,87
822720,note_on,30,0,2,,,,,,,,,2,,,68,87
824160,set_tempo,1440,1,0,,,,,,535714,,,,,,,
824160,note_on,1440,0,2,,,,,,,,,2,,,67,52
824160,note_off,1440,0,1,,,,,,,,,1,,,80,0
824160,note_on,0,0,1,,,,,,,,,1,,,79,52
824175,note_off,15,0,2,,,,,,,,,2,,,68,0
824505,note_off,1785,0,5,,,,,,,,,5,,,60,0
824520,note_off,360,0,1,,,,,,,,,1,,,79,0
824520,note_off,0,0,4,,,,,,,,,4,,,62,0
824520,note_off,1800,0,4,,,,,,,,,4,,,65,0
824535,note_off,360,0,2,,,,,,,,,2,,,67,0
824640,set_tempo,480,1,0,,,,,,280373,,,,,,,
825560,set_tempo,920,1,0,,,,,,241935,,,,,,,
825600,set_tempo,40,1,0,,,,,,240000,,,,,,,
825600,note_on,1095,0,5,,,,,,,,,5,,,48,36
825840,note_on,3240,0,3,,,,,,,,,3,,,51,37
826080,note_off,240,0,3,,,,,,,,,3,,,51,0
826080,note_on,0,0,3,,,,,,,,,3,,,55,38
826320,note_off,240,0,3,,,,,,,,,3,,,55,0
826320,note_on,0,0,3,,,,,,,,,3,,,51,38
826560,note_off,960,0,5,,,,,,,,,5,,,48,0
826560,note_off,240,0,3,,,,,,,,,3,,,51,0
826560,note_on,0,0,3,,,,,,,,,3,,,55,39
826800,note_on,0,0,3,,,,,,,,,3,,,51,40
826800,note_off,240,0,3,,,,,,,,,3,,,55,0
826992,note_off,192,0,3,,,,,,,,,3,,,51,0
827040,note_on,480,0,5,,,,,,,,,5,,,48,40
827280,note_on,288,0,3,,,,,,,,,3,,,51,41
827520,note_on,0,0,3,,,,,,,,,3,,,55,42
827520,note_off,240,0,3,,,,,,,,,3,,,51,0
827520,note_on,3000,0,1,,,,,,,,,1,,,67,42
827760,note_on,0,0,3,,,,,,,,,3,,,51,43
827760,note_off,240,0,3,,,,,,,,,3,,,55,0
827865,note_off,345,0,1,,,,,,,,,1,,,67,0
828000,note_on,0,0,3,,,,,,,,,3,,,55,43
828000,note_off,960,0,5,,,,,,,,,5,,,48,0
828000,note_on,135,0,1,,,,,,,,,1,,,67,43
828000,note_off,240,0,3,,,,,,,,,3,,,51,0
828240,note_on,0,0,3,,,,,,,,,3,,,51,44
828240,note_off,240,0,3,,,,,,,,,3,,,55,0
828345,note_off,345,0,1,,,,,,,,,1,,,67,0
828432,note_off,192,0,3,,,,,,,,,3,,,51,0
828480,note_on,135,0,1,,,,,,,,,1,,,67,45
828480,note_on,480,0,5,,,,,,,,,5,,,48,45
828600,note_off,120,0,1,,,,,,,,,1,,,67,0
828600,note_on,0,0,1,,,,,,,,,1,,,68,45
828720,note_off,120,0,1,,,,,,,,,1,,,68,0
828720,note_on,0,0,1,,,,,,,,,1,,,67,45
828720,note_on,288,0,3,,,,,,,,,3,,,50,45
828840,note_on,0,0,1,,,,,,,,,1,,,65,46
828840,note_off,120,0,1,,,,,,,,,1,,,67,0
828960,note_on,0,0,3,,,,,,,,,3,,,53,46
828960,note_on,120,0,1,,,,,,,,,1,,,67,46
828960,note_off,240,0,3,,,,,,,,,3,,,50,0
828967,note_off,7,0,1,,,,,,,,,1,,,65,0
829200,note_on,0,0,3,,,,,,,,,3,,,50,47
829200,note_off,240,0,3,,,,,,,,,3,,,53,0
829200,note_on,0,0,1,,,,,,,,,1,,,68,47
829200,note_off,233,0,1,,,,,,,,,1,,,67,0
829440,note_on,0,0,3,,,,,,,,,3,,,53,47
829440,note_on,0,0,1,,,,,,,,,1,,,67,47
829440,note_off,960,0,5,,,,,,,,,5,,,48,0
829440,note_off,240,0,1,,,,,,,,,1,,,68,0
829440,note_off,240,0,3,,,,,,,,,3,,,50,0
829680,note_off,240,0,3,,,,,,,,,3,,,53,0
829680,note_off,240,0,1,,,,,,,,,1,,,67,0
829680,note_on,0,0,3,,,,,,,,,3,,,50,48
829872,note_off,192,0,3,,,,,,,,,3,,,50,0
829920,note_on,480,0,5,,,,,,,,,5,,,48,49
829920,note_on,240,0,1,,,,,,,,,1,,,77,49
830160,note_on,288,0,3,,,,,,,,,3,,,50,50
830400,note_off,240,0,3,,,,,,,,,3,,,50,0
830400,note_on,0,0,3,,,,,,,,,3,,,53,50
830640,note_off,240,0,3,,,,,,,,,3,,,53,0
830640,note_on,0,0,3,,,,,,,,,3,,,50,51
830880,note_off,240,0,3,,,,,,,,,3,,,50,0
830880,note_off,960,0,1,,,,,,,,,1,,,77,0
830880,note_on,0,0,1,,,,,,,,,1,,,71,52
830880,note_on,0,0,3,,,,,,,,,3,,,53,52
830880,note_off,960,0,5,,,,,,,,,5,,,48,0
831120,note_on,0,0,3,,,,,,,,,3,,,50,52
831120,note_off,240,0,3,,,,,,,,,3,,,53,0
831240,note_off,360,0,1,,,,,,,,,1,,,71,0
831312,note_off,192,0,3,,,,,,,,,3,,,50,0
831360,note_on,120,0,1,,,,,,,,,1,,,74,54
831360,note_on,480,0,5,,,,,,,,,5,,,48,54
831600,note_on,288,0,3,,,,,,,,,3,,,51,52
831840,note_on,0,0,3,,,,,,,,,3,,,55,50
831840,note_off,240,0,3,,,,,,,,,3,,,51,0
832080,note_on,0,0,3,,,,,,,,,3,,,51,48
832080,note_off,240,0,3,,,,,,,,,3,,,55,0
832320,note_on,0,0,3,,,,,,,,,3,,,55,46
832320,note_on,0,0,1,,,,,,,,,1,,,72,46
832320,note_off,960,0,1,,,,,,,,,1,,,74,0
832320,note_off,960,0,5,,,,,,,,,5,,,48,0
832320,note_off,240,0,3,,,,,,,,,3,,,51,0
832560,note_on,0,0,3,,,,,,,,,3,,,51,44
832560,note_off,240,0,3,,,,,,,,,3,,,55,0
832687,note_off,367,0,1,,,,,,,,,1,,,72,0
832747,note_off,187,0,3,,,,,,,,,3,,,51,0
832800,note_on,480,0,5,,,,,,,,,5,,,48,42
833040,note_on,293,0,3,,,,,,,,,3,,,51,43
833280,note_on,0,0,3,,,,,,,,,3,,,55,44
833280,note_on,593,0,1,,,,,,,,,1,,,79,44
833280,note_off,240,0,3,,,,,,,,,3,,,51,0
833520,note_off,240,0,3,,,,,,,,,3,,,55,0
833520,note_on,0,0,3,,,,,,,,,3,,,51,45
833625,note_off,345,0,1,,,,,,,,,1,,,79,0
833760,note_on,135,0,1,,,,,,,,,1,,,79,46
833760,note_off,960,0,5,,,,,,,,,5,,,48,0
833760,note_off,240,0,3,,,,,,,,,3,,,51,0
833760,note_on,0,0,3,,,,,,,,,3,,,55,46
834000,note_on,0,0,3,,,,,,,,,3,,,51,47
834000,note_off,240,0,3,,,,,,,,,3,,,55,0
834120,note_off,360,0,1,,,,,,,,,1,,,79,0
834192,note_off,192,0,3,,,,,,,,,3,,,51,0
834240,note_on,120,0,1,,,,,,,,,1,,,78,48
834240,note_on,480,0,5,,,,,,,,,5,,,48,48
834480,note_on,288,0,3,,,,,,,,,3,,,50,49
834480,note_off,240,0,1,,,,,,,,,1,,,78,0
834480,note_on,0,0,1,,,,,,,,,1,,,79,49
834720,note_off,240,0,3,,,,,,,,,3,,,50,0
834720,note_on,0,0,3,,,,,,,,,3,,,53,50
834720,note_on,0,0,1,,,,,,,,,1,,,80,50
834720,note_off,240,0,1,,,,,,,,,1,,,79,0
834960,note_on,0,0,1,,,,,,,,,1,,,79,51
834960,note_off,240,0,1,,,,,,,,,1,,,80,0
834960,note_off,240,0,3,,,,,,,,,3,,,53,0
834960,note_on,0,0,3,,,,,,,,,3,,,50,51
835200,note_on,0,0,1,,,,,,,,,1,,,77,53
835200,note_off,960,0,5,,,,,,,,,5,,,48,0
835200,note_on,0,0,3,,,,,,,,,3,,,53,53
835200,note_off,240,0,3,,,,,,,,,3,,,50,0
835200,note_off,240,0,1,,,,,,,,,1,,,79,0
835440,note_on,0,0,3,,,,,,,,,3,,,50,54
835440,note_off,240,0,3,,,,,,,,,3,,,53,0
835440,note_off,240,0,1,,,,,,,,,1,,,77,0
835440,note_on,0,0,1,,,,,,,,,1,,,75,54
835632,note_off,192,0,3,,,,,,,,,3,,,50,0
835680,note_on,0,0,1,,,,,,,,,1,,,74,55
835680,note_off,240,0,1,,,,,,,,,1,,,75,0
835680,note_on,480,0,5,,,,,,,,,5,,,48,55
835920,note_on,288,0,3,,,,,,,,,3,,,50,56
835920,note_off,240,0,1,,,,,,,,,1,,,74,0
835920,note_on,0,0,1,,,,,,,,,1,,,72,56
836160,note_off,240,0,3,,,,,,,,,3,,,50,0
836160,note_off,240,0,1,,,,,,,,,1,,,72,0
836160,note_on,0,0,1,,,,,,,,,1,,,71,57
836160,note_on,0,0,3,,,,,,,,,3,,,53,57
836400,note_off,240,0,1,,,,,,,,,1,,,71,0
836400,note_on,0,0,3,,,,,,,,,3,,,50,58
836400,note_off,240,0,3,,,,,,,,,3,,,53,0
836400,note_on,0,0,1,,,,,,,,,1,,,74,58
836640,note_on,0,0,3,,,,,,,,,3,,,53,59
836640,note_on,0,0,1,,,,,,,,,1,,,77,59
836640,note_off,960,0,5,,,,,,,,,5,,,48,0
836640,note_off,240,0,1,,,,,,,,,1,,,74,0
836640,note_off,240,0,3,,,,,,,,,3,,,50,0
836880,note_on,0,0,1,,,,,,,,,1,,,71,60
836880,note_off,240,0,1,,,,,,,,,1,,,77,0
836880,note_on,0,0,3,,,,,,,,,3,,,50,60
836880,note_off,240,0,3,,,,,,,,,3,,,53,0
837072,note_off,192,0,3,,,,,,,,,3,,,50,0
837120,note_off,240,0,1,,,,,,,,,1,,,71,0
837120,note_on,480,0,5,,,,,,,,,5,,,48,62
837120,note_on,0,0,1,,,,,,,,,1,,,74,62
837360,note_on,288,0,3,,,,,,,,,3,,,51,61
837600,note_off,240,0,3,,,,,,,,,3,,,51,0
837600,note_on,0,0,3,,,,,,,,,3,,,55,59
837840,note_off,240,0,3,,,,,,,,,3,,,55,0
837840,note_on,0,0,3,,,,,,,,,3,,,51,57
838080,note_on,0,0,1,,,,,,,,,1,,,72,55
838080,note_off,960,0,5,,,,,,,,,5,,,48,0
838080,note_off,960,0,1,,,,,,,,,1,,,74,0
838080,note_off,240,0,3,,,,,,,,,3,,,51,0
838080,note_on,0,0,3,,,,,,,,,3,,,55,55
838320,note_off,240,0,3,,,,,,,,,3,,,55,0
838320,note_on,0,0,3,,,,,,,,,3,,,51,53
838440,note_off,360,0,1,,,,,,,,,1,,,72,0
838512,note_off,192,0,3,,,,,,,,,3,,,51,0
838560,note_on,480,0,5,,,,,,,,,5,,,46,51
838800,note_on,288,0,3,,,,,,,,,3,,,52,50
839040,note_on,600,0,1,,,,,,,,,1,,,72,52
839040,note_off,240,0,3,,,,,,,,,3,,,52,0
839040,note_on,0,0,3,,,,,,,,,3,,,55,52
839280,note_off,240,0,3,,,,,,,,,3,,,55,0
839280,note_on,0,0,3,,,,,,,,,3,,,52,54
839280,note_off,240,0,1,,,,,,,,,1,,,72,0
839520,note_off,960,0,5,,,,,,,,,5,,,46,0
839520,note_off,240,0,3,,,,,,,,,3,,,52,0
839520,note_on,0,0,3,,,,,,,,,3,,,55,56
839520,note_on,240,0,1,,,,,,,,,1,,,72,56
839760,note_on,0,0,3,,,,,,,,,3,,,52,59
839760,note_off,240,0,3,,,,,,,,,3,,,55,0
839760,note_off,240,0,1,,,,,,,,,1,,,72,0
839952,note_off,192,0,3,,,,,,,,,3,,,52,0
840000,note_on,480,0,5,,,,,,,,,5,,,45,61
840000,note_on,240,0,1,,,,,,,,,1,,,72,61
840240,note_off,240,0,1,,,,,,,,,1,,,72,0
840240,note_on,288,0,3,,,,,,,,,3,,,48,63
840480,note_on,240,0,1,,,,,,,,,1,,,74,65
840480,note_off,240,0,3,,,,,,,,,3,,,48,0
840480,note_on,0,0,3,,,,,,,,,3,,,53,65
840640,note_on,160,0,1,,,,,,,,,1,,,72,67
840645,note_off,5,0,1,,,,,,,,,1,,,74,0
840720,note_off,240,0,3,,,,,,,,,3,,,53,0
840720,note_on,0,0,3,,,,,,,,,3,,,48,68
840795,note_off,150,0,1,,,,,,,,,1,,,72,0
840800,note_on,5,0,1,,,,,,,,,1,,,71,68
840960,note_off,960,0,5,,,,,,,,,5,,,45,0
840960,note_on,160,0,1,,,,,,,,,1,,,72,70
840960,note_on,0,0,3,,,,,,,,,3,,,53,70
840960,note_off,240,0,3,,,,,,,,,3,,,48,0
840975,note_off,15,0,1,,,,,,,,,1,,,71,0
841140,note_off,165,0,1,,,,,,,,,1,,,72,0
841200,note_off,240,0,3,,,,,,,,,3,,,53,0
841200,note_on,0,0,3,,,,,,,,,3,,,48,72
841200,note_on,60,0,1,,,,,,,,,1,,,74,72
841365,note_off,165,0,1,,,,,,,,,1,,,74,0
841380,set_tempo,15780,1,0,,,,,,241935,,,,,,,
841392,note_off,192,0,3,,,,,,,,,3,,,48,0
841440,note_on,75,0,1,,,,,,,,,1,,,75,75
841440,set_tempo,60,1,0,,,,,,240000,,,,,,,
841440,note_on,480,0,5,,,,,,,,,5,,,44,72
841680,note_on,288,0,3,,,,,,,,,3,,,48,68
841920,note_off,240,0,3,,,,,,,,,3,,,48,0
841920,note_on,0,0,3,,,,,,,,,3,,,51,65
842160,note_off,240,0,3,,,,,,,,,3,,,51,0
842160,note_on,0,0,3,,,,,,,,,3,,,48,61
842400,note_off,960,0,5,,,,,,,,,5,,,44,0
842400,note_on,960,0,1,,,,,,,,,1,,,66,58
842400,note_on,0,0,3,,,,,,,,,3,,,51,58
842400,note_off,240,0,3,,,,,,,,,3,,,48,0
842415,note_off,15,0,1,,,,,,,,,1,,,75,0
842640,note_on,0,0,3,,,,,,,,,3,,,48,54
842640,note_off,240,0,3,,,,,,,,,3,,,51,0
842790,note_off,375,0,1,,,,,,,,,1,,,66,0
842832,note_off,192,0,3,,,,,,,,,3,,,48,0
842880,note_on,90,0,1,,,,,,,,,1,,,67,50
842880,note_on,480,0,5,,,,,,,,,5,,,43,50
842880,note_on,18360,0,4,,,,,,,,,4,,,47,50
843225,note_off,345,0,4,,,,,,,,,4,,,47,0
843240,note_off,360,0,1,,,,,,,,,1,,,67,0
843240,note_off,360,0,5,,,,,,,,,5,,,43,0
843360,note_on,120,0,5,,,,,,,,,5,,,55,43
843600,note_on,360,0,1,,,,,,,,,1,,,67,40
843735,note_off,375,0,5,,,,,,,,,5,,,55,0
843840,note_off,240,0,1,,,,,,,,,1,,,67,0
843840,note_on,0,0,1,,,,,,,,,1,,,66,41
844080,note_off,240,0,1,,,,,,,,,1,,,66,0
844080,note_on,0,0,1,,,,,,,,,1,,,67,42
844320,note_off,240,0,1,,,,,,,,,1,,,67,0
844320,note_on,0,0,1,,,,,,,,,1,,,68,43
844560,note_off,240,0,1,,,,,,,,,1,,,68,0
844560,note_on,0,0,1,,,,,,,,,1,,,69,44
844800,note_off,240,0,1,,,,,,,,,1,,,69,0
844800,note_on,0,0,1,,,,,,,,,1,,,70,45
845040,note_off,240,0,1,,,,,,,,,1,,,70,0
845040,note_on,0,0,1,,,,,,,,,1,,,71,46
845280,note_on,1545,0,5,,,,,,,,,5,,,56,47
845280,note_on,2055,0,4,,,,,,,,,4,,,60,47
845280,note_off,240,0,1,,,,,,,,,1,,,71,0
845280,note_on,0,0,1,,,,,,,,,1,,,72,47
845520,note_off,240,0,1,,,,,,,,,1,,,72,0
845520,note_on,0,0,1,,,,,,,,,1,,,66,48
845700,set_tempo,4260,1,0,,,,,,241935,,,,,,,
845745,note_off,465,0,4,,,,,,,,,4,,,60,0
845745,note_off,465,0,5,,,,,,,,,5,,,56,0
845760,note_on,0,0,1,,,,,,,,,1,,,67,49
845760,note_off,240,0,1,,,,,,,,,1,,,66,0
845760,note_on,15,0,5,,,,,,,,,5,,,55,49
845760,set_tempo,60,1,0,,,,,,240000,,,,,,,
845760,note_on,15,0,4,,,,,,,,,4,,,59,49
846105,note_off,345,0,4,,,,,,,,,4,,,59,0
846105,note_off,345,0,1,,,,,,,,,1,,,67,0
846120,note_off,360,0,5,,,,,,,,,5,,,55,0
846240,note_on,120,0,5,,,,,,,,,5,,,43,51
846480,note_on,375,0,1,,,,,,,,,1,,,55,52
846585,note_off,345,0,5,,,,,,,,,5,,,43,0
846720,note_off,240,0,1,,,,,,,,,1,,,55,0
846720,note_on,0,0,1,,,,,,,,,1,,,54,53
846960,note_off,240,0,1,,,,,,,,,1,,,54,0
846960,note_on,0,0,1,,,,,,,,,1,,,55,54
847200,note_on,0,0,1,,,,,,,,,1,,,56,54
847200,note_off,240,0,1,,,,,,,,,1,,,55,0
847440,note_on,0,0,1,,,,,,,,,1,,,57,55
847440,note_off,240,0,1,,,,,,,,,1,,,56,0
847680,note_on,0,0,1,,,,,,,,,1,,,58,56
847680,note_off,240,0,1,,,,,,,,,1,,,57,0
847920,note_off,240,0,1,,,,,,,,,1,,,58,0
847920,note_on,0,0,1,,,,,,,,,1,,,59,57
848160,note_on,2055,0,4,,,,,,,,,4,,,48,58
848160,note_off,240,0,1,,,,,,,,,1,,,59,0
848160,note_on,0,0,1,,,,,,,,,1,,,60,58
848160,note_on,1575,0,5,,,,,,,,,5,,,44,58
848400,note_on,0,0,1,,,,,,,,,1,,,54,59
848400,note_off,240,0,1,,,,,,,,,1,,,60,0
848580,set_tempo,2820,1,0,,,,,,241935,,,,,,,
848640,note_off,240,0,1,,,,,,,,,1,,,54,0
848640,note_on,0,0,1,,,,,,,,,1,,,55,60
848640,note_off,480,0,5,,,,,,,,,5,,,44,0
848640,note_on,0,0,4,,,,,,,,,4,,,47,60
848640,set_tempo,60,1,0,,,,,,240000,,,,,,,
848640,note_on,0,0,5,,,,,,,,,5,,,43,60
848640,note_off,480,0,4,,,,,,,,,4,,,48,0
849000,note_off,360,0,4,,,,,,,,,4,,,47,0
849000,note_off,360,0,5,,,,,,,,,5,,,43,0
849015,note_off,375,0,1,,,,,,,,,1,,,55,0
849120,note_on,120,0,5,,,,,,,,,5,,,31,62
849360,note_on,345,0,1,,,,,,,,,1,,,78,63
849480,note_off,360,0,5,,,,,,,,,5,,,31,0
849600,note_off,240,0,1,,,,,,,,,1,,,78,0
849600,note_on,0,0,1,,,,,,,,,1,,,79,64
849840,note_on,240,0,1,,,,,,,,,1,,,78,65
849855,note_off,15,0,1,,,,,,,,,1,,,79,0
850020,set_tempo,1380,1,0,,,,,,241935,,,,,,,
850080,note_off,225,0,1,,,,,,,,,1,,,78,0
850080,note_on,0,0,1,,,,,,,,,1,,,79,66
850080,set_tempo,60,1,0,,,,,,240000,,,,,,,
850440,note_off,360,0,1,,,,,,,,,1,,,79,0
850560,note_on,1080,0,5,,,,,,,,,5,,,55,68
850800,note_on,360,0,1,,,,,,,,,1,,,66,69
850935,note_off,375,0,5,,,,,,,,,5,,,55,0
851040,note_off,240,0,1,,,,,,,,,1,,,66,0
851040,note_on,0,0,1,,,,,,,,,1,,,67,70
851280,note_off,240,0,1,,,,,,,,,1,,,67,0
851280,note_on,0,0,1,,,,,,,,,1,,,66,71
851460,set_tempo,1380,1,0,,,,,,241935,,,,,,,
851520,note_on,0,0,1,,,,,,,,,1,,,67,72
851520,note_off,240,0,1,,,,,,,,,1,,,66,0
851520,set_tempo,60,1,0,,,,,,240000,,,,,,,
851895,note_off,375,0,1,,,,,,,,,1,,,67,0
852000,note_on,1065,0,5,,,,,,,,,5,,,43,74
852240,note_on,345,0,1,,,,,,,,,1,,,54,75
852375,note_off,375,0,5,,,,,,,,,5,,,43,0
852480,note_off,240,0,1,,,,,,,,,1,,,54,0
852480,note_on,0,0,1,,,,,,,,,1,,,55,75
852720,note_off,240,0,1,,,,,,,,,1,,,55,0
852720,note_on,0,0,1,,,,,,,,,1,,,54,76
852900,set_tempo,1380,1,0,,,,,,241935,,,,,,,
852960,set_tempo,60,1,0,,,,,,240000,,,,,,,
852960,note_off,240,0,1,,,,,,,,,1,,,54,0
852960,note_on,0,0,1,,,,,,,,,1,,,55,77
853335,note_off,375,0,1,,,,,,,,,1,,,55,0
853440,note_on,1065,0,5,,,,,,,,,5,,,31,79
853680,note_on,345,0,1,,,,,,,,,1,,,42,80
853800,note_off,360,0,5,,,,,,,,,5,,,31,0
853920,note_off,240,0,1,,,,,,,,,1,,,42,0
853920,note_on,0,0,1,,,,,,,,,1,,,43,81
854160,note_off,240,0,1,,,,,,,,,1,,,43,0
854160,note_on,0,0,1,,,,,,,,,1,,,42,82
854400,note_on,0,0,1,,,,,,,,,1,,,43,83
854400,note_off,240,0,1,,,,,,,,,1,,,42,0
854640,note_off,240,0,1,,,,,,,,,1,,,43,0
854640,note_on,0,0,1,,,,,,,,,1,,,38,84
854880,note_off,240,0,1,,,,,,,,,1,,,38,0
854880,note_on,0,0,1,,,,,,,,,1,,,39,85
855120,note_off,240,0,1,,,,,,,,,1,,,39,0
855120,note_on,0,0,1,,,,,,,,,1,,,35,86
855360,note_off,240,0,1,,,,,,,,,1,,,35,0
855360,note_on,0,0,1,,,,,,,,,1,,,36,87
855600,note_off,240,0,1,,,,,,,,,1,,,36,0
855600,note_on,0,0,1,,,,,,,,,1,,,30,88
855840,note_off,240,0,1,,,,,,,,,1,,,30,0
855840,note_on,0,0,1,,,,,,,,,1,,,31,89
856080,note_off,240,0,1,,,,,,,,,1,,,31,0
856080,note_on,0,0,1,,,,,,,,,1,,,30,90
856320,note_off,240,0,1,,,,,,,,,1,,,30,0
856320,note_on,0,0,1,,,,,,,,,1,,,31,91
856560,note_off,240,0,1,,,,,,,,,1,,,31,0
856560,note_on,0,0,1,,,,,,,,,1,,,30,92
856800,note_off,240,0,1,,,,,,,,,1,,,30,0
856800,note_on,0,0,1,,,,,,,,,1,,,31,93
857040,note_off,240,0,1,,,,,,,,,1,,,31,0
857040,note_on,0,0,1,,,,,,,,,1,,,30,94
857220,set_tempo,4260,1,0,,,,,,241935,,,,,,,
857280,set_tempo,60,1,0,,,,,,240000,,,,,,,
857280,note_off,240,0,1,,,,,,,,,1,,,30,0
857280,note_on,0,0,1,,,,,,,,,1,,,31,95
857472,note_off,192,0,1,,,,,,,,,1,,,31,0
857520,note_on,48,0,1,,,,,,,,,1,,,35,96
857712,note_off,192,0,1,,,,,,,,,1,,,35,0
857760,note_on,48,0,1,,,,,,,,,1,,,38,97
857952,note_off,192,0,1,,,,,,,,,1,,,38,0
858000,note_on,48,0,1,,,,,,,,,1,,,43,97
858192,note_off,192,0,1,,,,,,,,,1,,,43,0
858240,note_on,48,0,1,,,,,,,,,1,,,47,98
858432,note_off,192,0,1,,,,,,,,,1,,,47,0
858480,note_on,48,0,1,,,,,,,,,1,,,50,99
858672,note_off,192,0,1,,,,,,,,,1,,,50,0
858720,note_on,48,0,1,,,,,,,,,1,,,55,100
858912,note_off,192,0,1,,,,,,,,,1,,,55,0
858960,note_on,48,0,1,,,,,,,,,1,,,59,101
859152,note_off,192,0,1,,,,,,,,,1,,,59,0
859200,note_on,48,0,1,,,,,,,,,1,,,62,102
859392,note_off,192,0,1,,,,,,,,,1,,,62,0
859440,note_on,48,0,1,,,,,,,,,1,,,67,103
859632,note_off,192,0,1,,,,,,,,,1,,,67,0
859680,note_on,48,0,1,,,,,,,,,1,,,71,104
859872,note_off,192,0,1,,,,,,,,,1,,,71,0
859920,note_on,48,0,1,,,,,,,,,1,,,74,105
860112,note_off,192,0,1,,,,,,,,,1,,,74,0
860120,set_tempo,2840,1,0,,,,,,244897,,,,,,,
860160,note_on,48,0,1,,,,,,,,,1,,,77,107
860160,note_on,0,0,1,,,,,,,,,1,,,89,107
860160,set_tempo,40,1,0,,,,,,253164,,,,,,,
860640,note_on,0,0,5,,,,,,,,,5,,,32,107
860640,note_on,6840,0,5,,,,,,,,,5,,,44,107
860985,note_off,345,0,5,,,,,,,,,5,,,44,0
861000,note_off,15,0,5,,,,,,,,,5,,,32,0
861120,set_tempo,960,1,0,,,,,,243902,,,,,,,
861120,note_on,120,0,5,,,,,,,,,5,,,56,102
861120,note_on,0,0,5,,,,,,,,,5,,,44,102
861480,note_off,1320,0,1,,,,,,,,,1,,,89,0
861480,note_off,0,0,1,,,,,,,,,1,,,77,0
861560,set_tempo,440,1,0,,,,,,241935,,,,,,,
861600,set_tempo,40,1,0,,,,,,240000,,,,,,,
861600,note_on,0,0,1,,,,,,,,,1,,,83,98
861600,note_on,120,0,1,,,,,,,,,1,,,71,98
862080,note_on,0,0,5,,,,,,,,,5,,,43,93
862080,note_on,0,0,5,,,,,,,,,5,,,55,93
862080,note_off,960,0,5,,,,,,,,,5,,,56,0
862095,note_off,15,0,5,,,,,,,,,5,,,44,0
862425,note_off,330,0,5,,,,,,,,,5,,,43,0
862455,note_off,30,0,5,,,,,,,,,5,,,55,0
862560,note_on,0,0,5,,,,,,,,,5,,,41,89
862560,note_on,105,0,5,,,,,,,,,5,,,53,89
862920,note_off,360,0,5,,,,,,,,,5,,,53,0
862935,note_off,15,0,5,,,,,,,,,5,,,41,0
863000,set_tempo,1400,1,0,,,,,,241935,,,,,,,
863040,note_on,105,0,5,,,,,,,,,5,,,52,84
863040,note_on,0,0,5,,,,,,,,,5,,,40,84
863040,set_tempo,40,1,0,,,,,,240000,,,,,,,
863505,note_off,1905,0,1,,,,,,,,,1,,,83,0
863505,note_off,0,0,1,,,,,,,,,1,,,71,0
863520,note_on,0,0,1,,,,,,,,,1,,,72,80
863520,note_on,15,0,1,,,,,,,,,1,,,84,80
863865,note_off,825,0,5,,,,,,,,,5,,,52,0
863865,note_off,345,0,1,,,,,,,,,1,,,72,0
863880,note_off,15,0,5,,,,,,,,,5,,,40,0
863895,note_off,30,0,1,,,,,,,,,1,,,84,0
864000,note_on,120,0,5,,,,,,,,,5,,,58,75
864000,note_on,0,0,1,,,,,,,,,1,,,76,75
864000,note_on,105,0,1,,,,,,,,,1,,,64,75
864000,note_on,0,0,5,,,,,,,,,5,,,46,75
864360,note_off,360,0,5,,,,,,,,,5,,,46,0
864360,note_off,0,0,5,,,,,,,,,5,,,58,0
864480,note_on,120,0,5,,,,,,,,,5,,,45,70
864480,note_on,0,0,5,,,,,,,,,5,,,57,70
864945,note_off,945,0,1,,,,,,,,,1,,,76,0
864960,note_on,0,0,1,,,,,,,,,1,,,77,66
864960,note_on,0,0,1,,,,,,,,,1,,,65,66
864960,note_off,15,0,1,,,,,,,,,1,,,64,0
865305,note_off,345,0,1,,,,,,,,,1,,,65,0
865320,note_off,840,0,5,,,,,,,,,5,,,57,0
865335,note_off,30,0,1,,,,,,,,,1,,,77,0
865335,note_off,15,0,5,,,,,,,,,5,,,45,0
865400,set_tempo,2360,1,0,,,,,,241935,,,,,,,
865440,note_on,105,0,5,,,,,,,,,5,,,56,61
865440,set_tempo,40,1,0,,,,,,240000,,,,,,,
865440,note_on,105,0,1,,,,,,,,,1,,,78,61
865920,note_off,480,0,5,,,,,,,,,5,,,56,0
865920,note_on,0,0,5,,,,,,,,,5,,,55,57
866400,note_on,960,0,1,,,,,,,,,1,,,79,52
866415,note_off,15,0,1,,,,,,,,,1,,,78,0
866775,note_off,855,0,5,,,,,,,,,5,,,55,0
866880,note_on,17880,0,4,,,,,,,,,4,,,63,48
866880,note_on,105,0,5,,,,,,,,,5,,,54,48
866880,note_on,42345,0,2,,,,,,,,,2,,,72,48
866880,note_on,0,0,1,,,,,,,,,1,,,81,48
866880,note_off,465,0,1,,,,,,,,,1,,,79,0
867225,note_off,345,0,2,,,,,,,,,2,,,72,0
867240,note_off,360,0,1,,,,,,,,,1,,,81,0
867255,note_off,375,0,4,,,,,,,,,4,,,63,0
867255,note_off,375,0,5,,,,,,,,,5,,,54,0
867320,set_tempo,1880,1,0,,,,,,241935,,,,,,,
867360,note_on,135,0,2,,,,,,,,,2,,,67,49
867360,set_tempo,40,1,0,,,,,,241935,,,,,,,
867360,note_on,120,0,1,,,,,,,,,1,,,72,49
867360,note_on,105,0,4,,,,,,,,,4,,,63,47
867360,note_on,105,0,5,,,,,,,,,5,,,55,47
868320,note_on,0,0,2,,,,,,,,,2,,,71,42
868320,note_off,960,0,2,,,,,,,,,2,,,67,0
868320,note_on,0,0,4,,,,,,,,,4,,,65,40
868320,note_on,0,0,1,,,,,,,,,1,,,75,42
868320,note_off,960,0,1,,,,,,,,,1,,,72,0
868320,note_off,960,0,4,,,,,,,,,4,,,63,0
868545,note_off,225,0,1,,,,,,,,,1,,,75,0
868560,note_on,15,0,1,,,,,,,,,1,,,74,40
868680,note_off,1320,0,5,,,,,,,,,5,,,55,0
868695,note_off,375,0,4,,,,,,,,,4,,,65,0
868725,note_off,405,0,2,,,,,,,,,2,,,71,0
868755,note_off,195,0,1,,,,,,,,,1,,,74,0
868760,set_tempo,1400,1,0,,,,,,243902,,,,,,,
868800,set_tempo,40,1,0,,,,,,240000,,,,,,,
868800,note_on,45,0,1,,,,,,,,,1,,,72,38
868800,note_on,120,0,5,,,,,,,,,5,,,48,44
869040,note_on,26208,0,3,,,,,,,,,3,,,55,45
869160,note_off,360,0,1,,,,,,,,,1,,,72,0
869232,note_off,192,0,3,,,,,,,,,3,,,55,0
869280,note_on,48,0,3,,,,,,,,,3,,,51,46
869520,note_on,360,0,1,,,,,,,,,1,,,72,47
869520,note_on,240,0,3,,,,,,,,,3,,,55,47
869640,note_off,120,0,3,,,,,,,,,3,,,51,0
869712,note_off,72,0,3,,,,,,,,,3,,,55,0
869712,note_off,192,0,1,,,,,,,,,1,,,72,0
869760,note_off,960,0,5,,,,,,,,,5,,,48,0
869760,note_on,48,0,3,,,,,,,,,3,,,48,47
869760,note_on,48,0,1,,,,,,,,,1,,,71,47
869952,note_off,192,0,1,,,,,,,,,1,,,71,0
870000,note_on,240,0,3,,,,,,,,,3,,,55,48
870000,note_on,48,0,1,,,,,,,,,1,,,72,48
870120,note_off,120,0,3,,,,,,,,,3,,,48,0
870192,note_off,72,0,3,,,,,,,,,3,,,55,0
870192,note_off,192,0,1,,,,,,,,,1,,,72,0
870240,note_on,480,0,5,,,,,,,,,5,,,47,49
870240,note_on,48,0,1,,,,,,,,,1,,,73,49
870480,note_on,288,0,3,,,,,,,,,3,,,55,50
870480,note_on,240,0,1,,,,,,,,,1,,,74,50
870495,note_off,15,0,1,,,,,,,,,1,,,73,0
870672,note_off,177,0,1,,,,,,,,,1,,,74,0
870672,note_off,192,0,3,,,,,,,,,3,,,55,0
870720,note_on,48,0,3,,,,,,,,,3,,,53,51
870960,note_on,240,0,3,,,,,,,,,3,,,55,51
870960,note_on,288,0,1,,,,,,,,,1,,,74,51
871080,note_off,120,0,3,,,,,,,,,3,,,53,0
871152,note_off,192,0,1,,,,,,,,,1,,,74,0
871152,note_off,72,0,3,,,,,,,,,3,,,55,0
871200,note_on,48,0,3,,,,,,,,,3,,,47,52
871200,note_off,960,0,5,,,,,,,,,5,,,47,0
871200,note_on,48,0,1,,,,,,,,,1,,,73,52
871392,note_off,192,0,1,,,,,,,,,1,,,73,0
871440,note_on,240,0,3,,,,,,,,,3,,,55,53
871440,note_on,48,0,1,,,,,,,,,1,,,74,53
871560,note_off,120,0,3,,,,,,,,,3,,,47,0
871632,note_off,192,0,1,,,,,,,,,1,,,74,0
871632,note_off,72,0,3,,,,,,,,,3,,,55,0
871680,note_on,48,0,1,,,,,,,,,1,,,75,54
871680,note_on,480,0,5,,,,,,,,,5,,,46,54
871920,note_on,240,0,1,,,,,,,,,1,,,76,55
871920,note_on,288,0,3,,,,,,,,,3,,,55,55
871950,note_off,30,0,1,,,,,,,,,1,,,75,0
872112,note_off,192,0,3,,,,,,,,,3,,,55,0
872112,note_off,162,0,1,,,,,,,,,1,,,76,0
872160,note_on,48,0,3,,,,,,,,,3,,,48,55
872400,note_on,288,0,1,,,,,,,,,1,,,76,56
872400,note_on,240,0,3,,,,,,,,,3,,,55,56
872520,note_off,120,0,3,,,,,,,,,3,,,48,0
872592,note_off,72,0,3,,,,,,,,,3,,,55,0
872592,note_off,192,0,1,,,,,,,,,1,,,76,0
872640,note_on,48,0,1,,,,,,,,,1,,,75,57
872640,note_off,960,0,5,,,,,,,,,5,,,46,0
872640,note_on,48,0,3,,,,,,,,,3,,,46,57
872832,note_off,192,0,1,,,,,,,,,1,,,75,0
872880,note_on,48,0,1,,,,,,,,,1,,,76,58
872880,note_on,240,0,3,,,,,,,,,3,,,55,58
873000,note_off,120,0,3,,,,,,,,,3,,,46,0
873072,note_off,72,0,3,,,,,,,,,3,,,55,0
873072,note_off,192,0,1,,,,,,,,,1,,,76,0
873120,note_on,480,0,5,,,,,,,,,5,,,44,59
873120,note_on,48,0,1,,,,,,,,,1,,,76,59
873360,note_on,288,0,3,,,,,,,,,3,,,53,59
873360,note_on,240,0,1,,,,,,,,,1,,,77,59
873375,note_off,15,0,1,,,,,,,,,1,,,76,0
873552,note_off,177,0,1,,,,,,,,,1,,,77,0
873600,note_on,240,0,3,,,,,,,,,3,,,48,60
873720,note_off,120,0,3,,,,,,,,,3,,,53,0
873840,note_on,288,0,1,,,,,,,,,1,,,77,61
873840,note_on,120,0,3,,,,,,,,,3,,,53,61
873960,note_off,120,0,3,,,,,,,,,3,,,48,0
874032,note_off,192,0,1,,,,,,,,,1,,,77,0
874080,note_off,960,0,5,,,,,,,,,5,,,44,0
874080,note_on,120,0,3,,,,,,,,,3,,,44,62
874080,note_on,48,0,1,,,,,,,,,1,,,76,62
874200,note_off,120,0,3,,,,,,,,,3,,,53,0
874272,note_off,192,0,1,,,,,,,,,1,,,76,0
874320,note_on,48,0,1,,,,,,,,,1,,,77,63
874320,note_on,120,0,3,,,,,,,,,3,,,53,63
874440,note_off,120,0,3,,,,,,,,,3,,,44,0
874512,note_off,192,0,1,,,,,,,,,1,,,77,0
874560,note_on,48,0,1,,,,,,,,,1,,,79,63
874560,note_on,480,0,5,,,,,,,,,5,,,39,63
874560,note_off,120,0,3,,,,,,,,,3,,,53,0
874800,note_off,240,0,1,,,,,,,,,1,,,79,0
874800,note_on,0,0,1,,,,,,,,,1,,,72,61
874905,note_off,345,0,5,,,,,,,,,5,,,39,0
875040,note_off,240,0,1,,,,,,,,,1,,,72,0
875040,note_on,0,0,1,,,,,,,,,1,,,84,60
875232,note_off,192,0,1,,,,,,,,,1,,,84,0
875280,note_on,48,0,1,,,,,,,,,1,,,84,59
875472,note_off,192,0,1,,,,,,,,,1,,,84,0
875520,note_on,48,0,1,,,,,,,,,1,,,84,58
875712,note_off,192,0,1,,,,,,,,,1,,,84,0
875760,note_on,48,0,1,,,,,,,,,1,,,84,56
875952,note_off,192,0,1,,,,,,,,,1,,,84,0
876000,note_on,1095,0,5,,,,,,,,,5,,,53,55
876000,note_on,7305,0,4,,,,,,,,,4,,,62,55
876240,note_on,288,0,1,,,,,,,,,1,,,74,54
876345,note_off,345,0,4,,,,,,,,,4,,,62,0
876360,note_off,360,0,5,,,,,,,,,5,,,53,0
876480,note_off,240,0,1,,,,,,,,,1,,,74,0
876480,note_on,0,0,1,,,,,,,,,1,,,80,53
876672,note_off,192,0,1,,,,,,,,,1,,,80,0
876720,note_on,48,0,1,,,,,,,,,1,,,80,52
876912,note_off,192,0,1,,,,,,,,,1,,,80,0
876960,note_on,48,0,1,,,,,,,,,1,,,80,51
877152,note_off,192,0,1,,,,,,,,,1,,,80,0
877200,note_on,48,0,1,,,,,,,,,1,,,80,50
877392,note_off,192,0,1,,,,,,,,,1,,,80,0
877440,note_on,1095,0,4,,,,,,,,,4,,,63,49
877440,note_on,1080,0,5,,,,,,,,,5,,,55,49
877680,note_on,288,0,1,,,,,,,,,1,,,72,48
877800,note_off,360,0,5,,,,,,,,,5,,,55,0
877800,note_off,360,0,4,,,,,,,,,4,,,63,0
877920,note_on,0,0,1,,,,,,,,,1,,,79,47
877920,note_off,240,0,1,,,,,,,,,1,,,72,0
878112,note_off,192,0,1,,,,,,,,,1,,,79,0
878160,note_on,48,0,1,,,,,,,,,1,,,79,46
878352,note_off,192,0,1,,,,,,,,,1,,,79,0
878400,note_on,48,0,1,,,,,,,,,1,,,79,45
878592,note_off,192,0,1,,,,,,,,,1,,,79,0
878640,note_on,48,0,1,,,,,,,,,1,,,79,44
878832,note_off,192,0,1,,,,,,,,,1,,,79,0
878880,note_on,1080,0,5,,,,,,,,,5,,,55,43
878880,note_on,1080,0,4,,,,,,,,,4,,,62,43
879120,note_on,288,0,1,,,,,,,,,1,,,65,42
879225,note_off,345,0,5,,,,,,,,,5,,,55,0
879240,note_off,360,0,4,,,,,,,,,4,,,62,0
879360,note_off,240,0,1,,,,,,,,,1,,,65,0
879360,note_on,0,0,1,,,,,,,,,1,,,71,41
879552,note_off,192,0,1,,,,,,,,,1,,,71,0
879600,note_on,48,0,1,,,,,,,,,1,,,71,40
879792,note_off,192,0,1,,,,,,,,,1,,,71,0
879840,note_on,48,0,1,,,,,,,,,1,,,71,39
880032,note_off,192,0,1,,,,,,,,,1,,,71,0
880080,note_on,48,0,1,,,,,,,,,1,,,71,38
880272,note_off,192,0,1,,,,,,,,,1,,,71,0
880280,set_tempo,11480,1,0,,,,,,241935,,,,,,,
880320,set_tempo,40,1,0,,,,,,240000,,,,,,,
880320,note_on,1095,0,5,,,,,,,,,5,,,48,40
880320,note_on,11595,0,2,,,,,,,,,2,,,63,40
880320,note_on,48,0,1,,,,,,,,,1,,,72,40
880560,note_on,6000,0,3,,,,,,,,,3,,,55,41
880665,note_off,345,0,1,,,,,,,,,1,,,72,0
880680,note_off,360,0,2,,,,,,,,,2,,,63,0
880752,note_off,192,0,3,,,,,,,,,3,,,55,0
880800,note_on,48,0,3,,,,,,,,,3,,,51,42
881040,note_on,240,0,3,,,,,,,,,3,,,55,43
881040,note_on,375,0,1,,,,,,,,,1,,,60,43
881160,note_off,120,0,3,,,,,,,,,3,,,51,0
881232,note_off,192,0,1,,,,,,,,,1,,,60,0
881232,note_off,72,0,3,,,,,,,,,3,,,55,0
881280,note_on,48,0,3,,,,,,,,,3,,,48,44
881280,note_off,960,0,5,,,,,,,,,5,,,48,0
881280,note_on,48,0,1,,,,,,,,,1,,,59,44
881472,note_off,192,0,1,,,,,,,,,1,,,59,0
881520,note_on,240,0,3,,,,,,,,,3,,,55,45
881520,note_on,48,0,1,,,,,,,,,1,,,60,45
881640,note_off,120,0,3,,,,,,,,,3,,,48,0
881712,note_off,72,0,3,,,,,,,,,3,,,55,0
881712,note_off,192,0,1,,,,,,,,,1,,,60,0
881760,note_on,48,0,1,,,,,,,,,1,,,61,46
881760,note_on,480,0,5,,,,,,,,,5,,,47,46
882000,note_on,0,0,1,,,,,,,,,1,,,62,47
882000,note_off,240,0,1,,,,,,,,,1,,,61,0
882000,note_on,288,0,3,,,,,,,,,3,,,55,47
882192,note_off,192,0,3,,,,,,,,,3,,,55,0
882192,note_off,192,0,1,,,,,,,,,1,,,62,0
882240,note_on,48,0,3,,,,,,,,,3,,,53,48
882480,note_on,240,0,3,,,,,,,,,3,,,55,49
882480,note_on,288,0,1,,,,,,,,,1,,,62,49
882600,note_off,120,0,3,,,,,,,,,3,,,53,0
882672,note_off,72,0,3,,,,,,,,,3,,,55,0
882672,note_off,192,0,1,,,,,,,,,1,,,62,0
882720,note_on,48,0,1,,,,,,,,,1,,,61,50
882720,note_on,48,0,3,,,,,,,,,3,,,47,50
882720,note_off,960,0,5,,,,,,,,,5,,,47,0
882912,note_off,192,0,1,,,,,,,,,1,,,61,0
882960,note_on,240,0,3,,,,,,,,,3,,,55,51
882960,note_on,48,0,1,,,,,,,,,1,,,62,51
883080,note_off,120,0,3,,,,,,,,,3,,,47,0
883152,note_off,72,0,3,,,,,,,,,3,,,55,0
883152,note_off,192,0,1,,,,,,,,,1,,,62,0
883200,note_on,480,0,5,,,,,,,,,5,,,46,52
883200,note_on,48,0,1,,,,,,,,,1,,,63,52
883440,note_off,240,0,1,,,,,,,,,1,,,63,0
883440,note_on,288,0,3,,,,,,,,,3,,,55,53
883440,note_on,0,0,1,,,,,,,,,1,,,64,53
883632,note_off,192,0,1,,,,,,,,,1,,,64,0
883632,note_off,192,0,3,,,,,,,,,3,,,55,0
883680,note_on,48,0,3,,,,,,,,,3,,,48,54
883920,note_on,288,0,1,,,,,,,,,1,,,64,55
883920,note_on,240,0,3,,,,,,,,,3,,,55,55
884040,note_off,120,0,3,,,,,,,,,3,,,48,0
884112,note_off,192,0,1,,,,,,,,,1,,,64,0
884112,note_off,72,0,3,,,,,,,,,3,,,55,0
884160,note_on,48,0,3,,,,,,,,,3,,,46,56
884160,note_on,48,0,1,,,,,,,,,1,,,63,56
884160,note_off,960,0,5,,,,,,,,,5,,,46,0
884352,note_off,192,0,1,,,,,,,,,1,,,63,0
884400,note_on,240,0,3,,,,,,,,,3,,,55,57
884400,note_on,48,0,1,,,,,,,,,1,,,64,57
884520,note_off,120,0,3,,,,,,,,,3,,,46,0
884592,note_off,192,0,1,,,,,,,,,1,,,64,0
884592,note_off,72,0,3,,,,,,,,,3,,,55,0
884640,note_on,480,0,5,,,,,,,,,5,,,45,57
884640,note_on,48,0,1,,,,,,,,,1,,,64,57
884880,note_on,288,0,3,,,,,,,,,3,,,53,58
884880,note_on,0,0,1,,,,,,,,,1,,,65,58
884880,note_off,240,0,1,,,,,,,,,1,,,64,0
885072,note_off,192,0,1,,,,,,,,,1,,,65,0
885120,note_on,240,0,3,,,,,,,,,3,,,48,59
885240,note_off,120,0,3,,,,,,,,,3,,,53,0
885360,note_on,120,0,3,,,,,,,,,3,,,53,60
885360,note_on,288,0,1,,,,,,,,,1,,,65,60
885480,note_off,120,0,3,,,,,,,,,3,,,48,0
885552,note_off,192,0,1,,,,,,,,,1,,,65,0
885600,note_on,48,0,1,,,,,,,,,1,,,64,61
885600,note_off,960,0,5,,,,,,,,,5,,,45,0
885600,note_on,120,0,3,,,,,,,,,3,,,45,61
885720,note_off,120,0,3,,,,,,,,,3,,,53,0
885792,note_off,192,0,1,,,,,,,,,1,,,64,0
885840,note_on,120,0,3,,,,,,,,,3,,,53,62
885840,note_on,48,0,1,,,,,,,,,1,,,65,62
885960,note_off,120,0,3,,,,,,,,,3,,,45,0
886032,note_off,192,0,1,,,,,,,,,1,,,65,0
886080,note_on,48,0,1,,,,,,,,,1,,,65,63
886080,note_on,480,0,5,,,,,,,,,5,,,44,63
886080,note_off,120,0,3,,,,,,,,,3,,,53,0
886320,note_off,240,0,1,,,,,,,,,1,,,65,0
886320,note_on,240,0,3,,,,,,,,,3,,,51,64
886320,note_on,0,0,1,,,,,,,,,1,,,66,64
886512,note_off,192,0,3,,,,,,,,,3,,,51,0
886512,note_off,192,0,1,,,,,,,,,1,,,66,0
886560,note_on,48,0,3,,,,,,,,,3,,,48,65
886800,note_on,288,0,1,,,,,,,,,1,,,66,66
886800,note_on,240,0,3,,,,,,,,,3,,,51,66
886920,note_off,120,0,3,,,,,,,,,3,,,48,0
886992,note_off,72,0,3,,,,,,,,,3,,,51,0
886992,note_off,192,0,1,,,,,,,,,1,,,66,0
887040,note_on,48,0,1,,,,,,,,,1,,,65,67
887040,note_off,960,0,5,,,,,,,,,5,,,44,0
887040,note_on,48,0,3,,,,,,,,,3,,,44,67
887232,note_off,192,0,1,,,,,,,,,1,,,65,0
887280,note_on,48,0,1,,,,,,,,,1,,,66,68
887280,note_on,240,0,3,,,,,,,,,3,,,51,68
887400,note_off,120,0,3,,,,,,,,,3,,,44,0
887472,note_off,192,0,1,,,,,,,,,1,,,66,0
887472,note_off,72,0,3,,,,,,,,,3,,,51,0
887520,note_on,480,0,5,,,,,,,,,5,,,43,69
887520,note_on,48,0,1,,,,,,,,,1,,,66,69
887760,note_on,288,0,3,,,,,,,,,3,,,51,70
887760,note_on,240,0,1,,,,,,,,,1,,,67,70
887790,note_off,30,0,1,,,,,,,,,1,,,66,0
887952,note_off,162,0,1,,,,,,,,,1,,,67,0
887952,note_off,192,0,3,,,,,,,,,3,,,51,0
888000,note_on,48,0,3,,,,,,,,,3,,,48,71
888240,note_on,288,0,1,,,,,,,,,1,,,67,72
888240,note_on,240,0,3,,,,,,,,,3,,,51,72
888360,note_off,120,0,3,,,,,,,,,3,,,48,0
888432,note_off,192,0,1,,,,,,,,,1,,,67,0
888432,note_off,72,0,3,,,,,,,,,3,,,51,0
888480,note_on,48,0,3,,,,,,,,,3,,,43,73
888480,note_off,960,0,5,,,,,,,,,5,,,43,0
888480,note_on,48,0,1,,,,,,,,,1,,,66,73
888672,note_off,192,0,1,,,,,,,,,1,,,66,0
888720,note_on,48,0,1,,,,,,,,,1,,,67,74
888720,note_on,240,0,3,,,,,,,,,3,,,51,74
888840,note_off,120,0,3,,,,,,,,,3,,,43,0
888912,note_off,72,0,3,,,,,,,,,3,,,51,0
888912,note_off,192,0,1,,,,,,,,,1,,,67,0
888920,set_tempo,8600,1,0,,,,,,241935,,,,,,,
888960,note_on,48,0,1,,,,,,,,,1,,,69,75
888960,set_tempo,40,1,0,,,,,,240000,,,,,,,
888960,note_on,480,0,5,,,,,,,,,5,,,42,75
889440,note_off,480,0,1,,,,,,,,,1,,,69,0
889440,note_on,0,0,1,,,,,,,,,1,,,72,77
889920,note_off,480,0,1,,,,,,,,,1,,,72,0
889920,note_on,0,0,1,,,,,,,,,1,,,75,78
890280,note_off,1320,0,5,,,,,,,,,5,,,42,0
890400,note_on,120,0,5,,,,,,,,,5,,,54,80
890775,note_off,855,0,1,,,,,,,,,1,,,75,0
890880,note_on,105,0,1,,,,,,,,,1,,,74,82
891240,note_off,360,0,1,,,,,,,,,1,,,74,0
891360,note_on,120,0,1,,,,,,,,,1,,,72,84
891720,note_off,1320,0,5,,,,,,,,,5,,,54,0
891840,note_on,0,0,4,,,,,,,,,4,,,62,86
891840,note_on,12600,0,4,,,,,,,,,4,,,65,86
891840,note_on,120,0,5,,,,,,,,,5,,,55,86
892320,note_on,960,0,1,,,,,,,,,1,,,71,88
892335,note_off,15,0,1,,,,,,,,,1,,,72,0
892680,note_off,345,0,1,,,,,,,,,1,,,71,0
892800,note_on,120,0,1,,,,,,,,,1,,,77,90
893160,note_off,1320,0,5,,,,,,,,,5,,,55,0
893160,note_off,1320,0,4,,,,,,,,,4,,,62,0
893160,note_off,0,0,4,,,,,,,,,4,,,65,0
893280,note_on,120,0,5,,,,,,,,,5,,,56,92
893280,note_on,0,0,4,,,,,,,,,4,,,65,92
893280,note_on,120,0,4,,,,,,,,,4,,,62,92
893640,note_off,840,0,1,,,,,,,,,1,,,77,0
893760,note_on,120,0,1,,,,,,,,,1,,,74,94
894135,note_off,375,0,1,,,,,,,,,1,,,74,0
894240,note_on,105,0,1,,,,,,,,,1,,,83,96
894600,note_off,1320,0,5,,,,,,,,,5,,,56,0
894600,note_off,1320,0,4,,,,,,,,,4,,,62,0
894615,note_off,15,0,4,,,,,,,,,4,,,65,0
894720,note_on,0,0,4,,,,,,,,,4,,,62,98
894720,note_on,120,0,5,,,,,,,,,5,,,55,98
894720,note_on,105,0,4,,,,,,,,,4,,,65,98
895080,note_off,840,0,1,,,,,,,,,1,,,83,0
895200,note_on,120,0,1,,,,,,,,,1,,,77,100
895575,note_off,375,0,1,,,,,,,,,1,,,77,0
895680,note_on,105,0,1,,,,,,,,,1,,,86,101
896040,note_off,0,0,4,,,,,,,,,4,,,65,0
896040,note_off,1320,0,4,,,,,,,,,4,,,62,0
896040,note_off,1320,0,5,,,,,,,,,5,,,55,0
896160,note_on,120,0,4,,,,,,,,,4,,,65,103
896160,note_on,120,0,5,,,,,,,,,5,,,56,103
896160,note_on,0,0,4,,,,,,,,,4,,,62,103
896640,note_off,960,0,1,,,,,,,,,1,,,86,0
896640,note_on,0,0,1,,,,,,,,,1,,,83,105
897120,note_off,480,0,1,,,,,,,,,1,,,83,0
897120,note_on,0,0,1,,,,,,,,,1,,,89,107
897465,note_off,1305,0,4,,,,,,,,,4,,,62,0
897480,note_off,1320,0,5,,,,,,,,,5,,,56,0
897495,note_off,30,0,4,,,,,,,,,4,,,65,0
897560,set_tempo,8600,1,0,,,,,,241935,,,,,,,
897600,note_on,0,0,4,,,,,,,,,4,,,65,109
897600,note_on,105,0,4,,,,,,,,,4,,,62,109
897600,note_on,120,0,5,,,,,,,,,5,,,55,109
897600,set_tempo,40,1,0,,,,,,240000,,,,,,,
897840,note_on,720,0,1,,,,,,,,,1,,,86,107
897855,note_off,15,0,1,,,,,,,,,1,,,89,0
898080,note_off,225,0,1,,,,,,,,,1,,,86,0
898080,note_on,0,0,1,,,,,,,,,1,,,83,105
898320,note_on,0,0,1,,,,,,,,,1,,,80,104
898320,note_off,240,0,1,,,,,,,,,1,,,83,0
898425,note_off,825,0,5,,,,,,,,,5,,,55,0
898440,note_off,840,0,4,,,,,,,,,4,,,65,0
898455,note_off,15,0,4,,,,,,,,,4,,,62,0
898560,note_on,0,0,1,,,,,,,,,1,,,77,102
898560,note_off,240,0,1,,,,,,,,,1,,,80,0
898800,note_off,240,0,1,,,,,,,,,1,,,77,0
898800,note_on,0,0,1,,,,,,,,,1,,,74,100
899040,note_off,240,0,1,,,,,,,,,1,,,74,0
899040,note_on,0,0,1,,,,,,,,,1,,,71,98
899280,note_off,240,0,1,,,,,,,,,1,,,71,0
899280,note_on,0,0,1,,,,,,,,,1,,,68,97
899520,note_off,240,0,1,,,,,,,,,1,,,68,0
899520,note_on,0,0,1,,,,,,,,,1,,,65,95
899760,note_off,240,0,1,,,,,,,,,1,,,65,0
899760,note_on,0,0,1,,,,,,,,,1,,,62,93
900000,note_off,240,0,1,,,,,,,,,1,,,62,0
900000,note_on,0,0,1,,,,,,,,,1,,,59,92
900240,note_off,240,0,1,,,,,,,,,1,,,59,0
900240,note_on,0,0,1,,,,,,,,,1,,,56,90
900440,set_tempo,2840,1,0,,,,,,241935,,,,,,,
900480,note_on,0,0,1,,,,,,,,,1,,,55,88
900480,set_tempo,40,1,0,,,,,,240000,,,,,,,
900480,note_off,240,0,1,,,,,,,,,1,,,56,0
900720,note_on,240,0,1,,,,,,,,,1,,,67,86
900960,note_off,240,0,1,,,,,,,,,1,,,67,0
900960,note_on,0,0,1,,,,,,,,,1,,,68,82
901200,note_off,240,0,1,,,,,,,,,1,,,68,0
901200,note_on,0,0,1,,,,,,,,,1,,,69,78
901290,note_off,90,0,1,,,,,,,,,1,,,55,0
901440,note_off,150,0,1,,,,,,,,,1,,,69,0
901440,note_on,0,0,1,,,,,,,,,1,,,70,73
901680,note_on,0,0,1,,,,,,,,,1,,,71,69
901680,note_off,240,0,1,,,,,,,,,1,,,70,0
901920,note_off,240,0,1,,,,,,,,,1,,,71,0
901920,note_on,0,0,1,,,,,,,,,1,,,72,65
902160,note_off,240,0,1,,,,,,,,,1,,,72,0
902160,note_on,0,0,1,,,,,,,,,1,,,74,60
902400,note_off,240,0,1,,,,,,,,,1,,,74,0
902400,note_on,0,0,1,,,,,,,,,1,,,75,56
902640,note_off,240,0,1,,,,,,,,,1,,,75,0
902640,note_on,0,0,1,,,,,,,,,1,,,76,52
902880,note_off,240,0,1,,,,,,,,,1,,,76,0
902880,note_on,0,0,1,,,,,,,,,1,,,77,47
903060,set_tempo,2580,1,0,,,,,,241935,,,,,,,
903120,note_off,240,0,1,,,,,,,,,1,,,77,0
903120,note_on,0,0,1,,,,,,,,,1,,,78,43
903135,set_tempo,75,1,0,,,,,,402684,,,,,,,
903312,note_off,192,0,1,,,,,,,,,1,,,78,0
903360,note_on,48,0,1,,,,,,,,,1,,,79,44
903360,note_on,4905,0,4,,,,,,,,,4,,,63,42
903360,set_tempo,225,1,0,,,,,,240000,,,,,,,
903360,note_on,4935,0,5,,,,,,,,,5,,,60,42
903840,note_on,480,0,1,,,,,,,,,1,,,75,42
903855,note_off,15,0,1,,,,,,,,,1,,,79,0
904225,note_off,370,0,1,,,,,,,,,1,,,75,0
904320,note_on,95,0,1,,,,,,,,,1,,,72,43
904680,note_off,1320,0,4,,,,,,,,,4,,,63,0
904680,note_off,1320,0,5,,,,,,,,,5,,,60,0
904800,note_on,120,0,4,,,,,,,,,4,,,65,43
904800,note_on,120,0,5,,,,,,,,,5,,,62,43
905280,note_off,960,0,1,,,,,,,,,1,,,72,0
905280,note_on,0,0,1,,,,,,,,,1,,,71,44
905665,note_off,385,0,1,,,,,,,,,1,,,71,0
905760,note_on,95,0,1,,,,,,,,,1,,,80,44
906120,note_off,1320,0,5,,,,,,,,,5,,,62,0
906127,note_off,1327,0,4,,,,,,,,,4,,,65,0
906240,note_on,113,0,4,,,,,,,,,4,,,62,45
906240,note_on,120,0,5,,,,,,,,,5,,,59,45
906720,note_off,960,0,1,,,,,,,,,1,,,80,0
906720,note_on,0,0,1,,,,,,,,,1,,,79,45
907105,note_off,385,0,1,,,,,,,,,1,,,79,0
907200,note_on,95,0,1,,,,,,,,,1,,,77,45
907567,note_off,1327,0,4,,,,,,,,,4,,,62,0
907567,note_off,1327,0,5,,,,,,,,,5,,,59,0
907680,note_on,113,0,5,,,,,,,,,5,,,60,46
907680,note_on,113,0,4,,,,,,,,,4,,,67,46
908160,note_off,960,0,1,,,,,,,,,1,,,77,0
908160,note_on,0,0,1,,,,,,,,,1,,,75,46
908545,note_off,385,0,1,,,,,,,,,1,,,75,0
908640,note_on,95,0,1,,,,,,,,,1,,,79,47
909000,note_off,1320,0,4,,,,,,,,,4,,,67,0
909007,note_off,1327,0,5,,,,,,,,,5,,,60,0
909120,note_on,113,0,5,,,,,,,,,5,,,63,48
909120,note_on,120,0,4,,,,,,,,,4,,,67,48
909600,note_off,960,0,1,,,,,,,,,1,,,79,0
909600,note_on,0,0,1,,,,,,,,,1,,,84,49
909985,note_off,385,0,1,,,,,,,,,1,,,84,0
910080,note_off,960,0,5,,,,,,,,,5,,,63,0
910080,note_on,95,0,1,,,,,,,,,1,,,82,50
910080,note_on,0,0,5,,,,,,,,,5,,,64,50
910560,note_on,0,0,4,,,,,,,,,4,,,68,51
910560,note_off,1440,0,4,,,,,,,,,4,,,67,0
910560,note_off,480,0,5,,,,,,,,,5,,,64,0
910560,note_on,0,0,5,,,,,,,,,5,,,65,51
911040,note_on,0,0,1,,,,,,,,,1,,,80,52
911040,note_off,960,0,1,,,,,,,,,1,,,82,0
911407,note_off,847,0,4,,,,,,,,,4,,,68,0
911407,note_off,847,0,5,,,,,,,,,5,,,65,0
911425,note_off,385,0,1,,,,,,,,,1,,,80,0
911520,note_on,113,0,4,,,,,,,,,4,,,70,53
911520,note_on,113,0,5,,,,,,,,,5,,,67,53
911520,note_on,95,0,1,,,,,,,,,1,,,79,53
911880,note_off,360,0,5,,,,,,,,,5,,,67,0
911880,note_off,360,0,4,,,,,,,,,4,,,70,0
912000,note_on,120,0,4,,,,,,,,,4,,,72,54
912000,note_on,120,0,5,,,,,,,,,5,,,68,54
912480,note_off,960,0,1,,,,,,,,,1,,,79,0
912480,note_on,0,0,1,,,,,,,,,1,,,77,55
912865,note_off,385,0,1,,,,,,,,,1,,,77,0
912960,note_on,95,0,1,,,,,,,,,1,,,78,56
912960,note_on,0,0,5,,,,,,,,,5,,,69,57
912960,note_off,960,0,5,,,,,,,,,5,,,68,0
913440,note_on,0,0,5,,,,,,,,,5,,,67,54
913440,note_off,480,0,5,,,,,,,,,5,,,69,0
913920,note_off,960,0,1,,,,,,,,,1,,,78,0
913920,note_on,0,0,4,,,,,,,,,4,,,71,48
913920,note_off,1920,0,4,,,,,,,,,4,,,72,0
913920,note_on,0,0,1,,,,,,,,,1,,,79,54
914287,note_off,847,0,5,,,,,,,,,5,,,67,0
914287,note_off,367,0,4,,,,,,,,,4,,,71,0
914305,note_off,385,0,1,,,,,,,,,1,,,79,0
914360,set_tempo,11000,1,0,,,,,,241935,,,,,,,
914400,note_on,95,0,1,,,,,,,,,1,,,67,61
914400,set_tempo,40,1,0,,,,,,240000,,,,,,,
914880,note_on,593,0,4,,,,,,,,,4,,,51,60
914880,note_on,593,0,5,,,,,,,,,5,,,48,60
915360,note_off,960,0,1,,,,,,,,,1,,,67,0
915360,note_on,0,0,1,,,,,,,,,1,,,63,61
915840,note_on,0,0,1,,,,,,,,,1,,,60,62
915840,note_off,480,0,1,,,,,,,,,1,,,63,0
916185,note_off,345,0,1,,,,,,,,,1,,,60,0
916200,note_off,1320,0,5,,,,,,,,,5,,,48,0
916207,note_off,1327,0,4,,,,,,,,,4,,,51,0
916320,note_on,113,0,4,,,,,,,,,4,,,53,63
916320,note_on,135,0,1,,,,,,,,,1,,,60,66
916320,note_on,0,0,4,,,,,,,,,4,,,56,63
916320,set_tempo,1920,1,0,,,,,,500000,,,,,,,
916320,note_on,120,0,5,,,,,,,,,5,,,50,63
917760,set_tempo,1440,1,0,,,,,,500000,,,,,,,
917760,note_on,1440,0,1,,,,,,,,,1,,,59,48
917775,note_off,15,0,1,,,,,,,,,1,,,60,0
918240,set_tempo,480,1,0,,,,,,243902,,,,,,,
918600,note_off,0,0,4,,,,,,,,,4,,,53,0
918600,note_off,2280,0,4,,,,,,,,,4,,,56,0
918600,note_off,825,0,1,,,,,,,,,1,,,59,0
918615,note_off,2295,0,5,,,,,,,,,5,,,50,0
920120,set_tempo,1880,1,0,,,,,,241935,,,,,,,
920160,note_on,1560,0,1,,,,,,,,,1,,,68,57
920160,set_tempo,40,1,0,,,,,,240000,,,,,,,
920640,note_on,2025,0,5,,,,,,,,,5,,,47,60
920640,note_on,2040,0,4,,,,,,,,,4,,,50,60
921120,note_on,960,0,1,,,,,,,,,1,,,67,63
921135,note_off,15,0,1,,,,,,,,,1,,,68,0
921600,note_off,465,0,1,,,,,,,,,1,,,67,0
921600,note_on,0,0,1,,,,,,,,,1,,,65,66
921960,note_off,360,0,1,,,,,,,,,1,,,65,0
921960,note_off,1320,0,5,,,,,,,,,5,,,47,0
921960,note_off,1320,0,4,,,,,,,,,4,,,50,0
922040,set_tempo,1880,1,0,,,,,,241935,,,,,,,
922080,set_tempo,40,1,0,,,,,,500000,,,,,,,
922080,note_on,120,0,5,,,,,,,,,5,,,46,69
922080,note_on,0,0,4,,,,,,,,,4,,,55,69
922080,note_on,120,0,4,,,,,,,,,4,,,49,69
922080,note_on,120,0,1,,,,,,,,,1,,,65,69
923520,note_on,0,0,1,,,,,,,,,1,,,64,50
923520,note_off,1440,0,1,,,,,,,,,1,,,65,0
923520,set_tempo,1440,1,0,,,,,,500000,,,,,,,
924000,set_tempo,480,1,0,,,,,,243902,,,,,,,
924360,note_off,2280,0,4,,,,,,,,,4,,,49,0
924360,note_off,840,0,1,,,,,,,,,1,,,64,0
924360,note_off,2280,0,5,,,,,,,,,5,,,46,0
924375,note_off,15,0,4,,,,,,,,,4,,,55,0
925920,note_on,1560,0,1,,,,,,,,,1,,,70,62
926400,note_on,2025,0,4,,,,,,,,,4,,,60,65
926400,note_on,2040,0,5,,,,,,,,,5,,,52,65
926865,note_off,945,0,1,,,,,,,,,1,,,70,0
926880,note_on,15,0,1,,,,,,,,,1,,,68,68
927360,note_off,480,0,1,,,,,,,,,1,,,68,0
927360,note_on,0,0,1,,,,,,,,,1,,,67,71
927720,note_off,1320,0,5,,,,,,,,,5,,,52,0
927735,note_off,1335,0,4,,,,,,,,,4,,,60,0
927735,note_off,375,0,1,,,,,,,,,1,,,67,0
927800,set_tempo,3800,1,0,,,,,,241935,,,,,,,
927840,note_on,105,0,4,,,,,,,,,4,,,60,74
927840,note_on,120,0,5,,,,,,,,,5,,,53,74
927840,set_tempo,40,1,0,,,,,,500000,,,,,,,
927840,note_on,105,0,1,,,,,,,,,1,,,67,74
929280,set_tempo,1440,1,0,,,,,,500000,,,,,,,
929280,note_on,1440,0,1,,,,,,,,,1,,,68,54
929295,note_off,15,0,1,,,,,,,,,1,,,67,0
929760,set_tempo,480,1,0,,,,,,243902,,,,,,,
930120,note_off,2280,0,4,,,,,,,,,4,,,60,0
930135,note_off,840,0,1,,,,,,,,,1,,,68,0
930135,note_off,2295,0,5,,,,,,,,,5,,,53,0
931640,set_tempo,1880,1,0,,,,,,241935,,,,,,,
931680,set_tempo,40,1,0,,,,,,240000,,,,,,,
931680,note_on,1545,0,1,,,,,,,,,1,,,71,67
932160,note_on,2040,0,4,,,,,,,,,4,,,56,69
932160,note_on,2025,0,5,,,,,,,,,5,,,53,69
932640,note_on,0,0,1,,,,,,,,,1,,,72,70
932640,note_off,960,0,1,,,,,,,,,1,,,71,0
933120,note_on,0,0,1,,,,,,,,,1,,,74,72
933120,note_off,480,0,1,,,,,,,,,1,,,72,0
933465,note_off,1305,0,5,,,,,,,,,5,,,53,0
933480,note_off,360,0,1,,,,,,,,,1,,,74,0
933480,note_off,1320,0,4,,,,,,,,,4,,,56,0
933560,set_tempo,1880,1,0,,,,,,241935,,,,,,,
933600,note_on,135,0,5,,,,,,,,,5,,,54,76
933600,note_on,120,0,1,,,,,,,,,1,,,74,76
933600,note_on,120,0,4,,,,,,,,,4,,,57,76
933600,set_tempo,40,1,0,,,,,,500000,,,,,,,
935040,note_on,0,0,1,,,,,,,,,1,,,77,59
935040,note_off,1440,0,1,,,,,,,,,1,,,74,0
935040,set_tempo,1440,1,0,,,,,,331491,,,,,,,
935280,note_off,240,0,1,,,,,,,,,1,,,77,0
935280,note_on,0,0,1,,,,,,,,,1,,,75,55
935865,note_off,585,0,1,,,,,,,,,1,,,75,0
935880,note_off,2280,0,4,,,,,,,,,4,,,57,0
935895,note_off,2295,0,5,,,,,,,,,5,,,54,0
937400,set_tempo,2360,1,0,,,,,,241935,,,,,,,
937440,set_tempo,40,1,0,,,,,,248962,,,,,,,
937440,note_on,1575,0,1,,,,,,,,,1,,,72,59
937800,note_off,360,0,1,,,,,,,,,1,,,72,0
937920,note_on,2025,0,5,,,,,,,,,5,,,57,57
937920,note_on,2040,0,4,,,,,,,,,4,,,66,57
937920,note_on,0,0,4,,,,,,,,,4,,,63,57
937920,note_on,120,0,1,,,,,,,,,1,,,74,57
938160,note_on,240,0,1,,,,,,,,,1,,,72,56
938175,note_off,15,0,1,,,,,,,,,1,,,74,0
938400,note_on,0,0,1,,,,,,,,,1,,,71,55
938400,note_off,225,0,1,,,,,,,,,1,,,72,0
938880,note_off,480,0,1,,,,,,,,,1,,,71,0
938880,note_on,0,0,1,,,,,,,,,1,,,72,53
939225,note_off,1305,0,5,,,,,,,,,5,,,57,0
939240,note_off,0,0,4,,,,,,,,,4,,,66,0
939240,note_off,1320,0,4,,,,,,,,,4,,,63,0
939255,note_off,375,0,1,,,,,,,,,1,,,72,0
939360,note_on,135,0,5,,,,,,,,,5,,,55,50
939360,note_on,120,0,4,,,,,,,,,4,,,63,50
939360,note_on,105,0,1,,,,,,,,,1,,,67,50
939840,note_off,480,0,1,,,,,,,,,1,,,67,0
939840,note_off,480,0,4,,,,,,,,,4,,,63,0
939840,note_off,480,0,5,,,,,,,,,5,,,55,0
940800,note_on,0,0,4,,,,,,,,,4,,,53,44
940800,note_on,960,0,4,,,,,,,,,4,,,50,44
940800,note_on,960,0,1,,,,,,,,,1,,,59,44
940800,note_on,960,0,5,,,,,,,,,5,,,43,44
941280,note_off,480,0,5,,,,,,,,,5,,,43,0
941280,note_off,480,0,4,,,,,,,,,4,,,53,0
941280,note_off,0,0,4,,,,,,,,,4,,,50,0
941280,note_off,480,0,1,,,,,,,,,1,,,59,0
942240,set_tempo,4800,1,0,,,,,,241935,,,,,,,
942240,note_on,960,0,5,,,,,,,,,5,,,36,37
942240,note_on,960,0,4,,,,,,,,,4,,,51,37
942240,note_on,0,0,4,,,,,,,,,4,,,48,37
942240,note_on,960,0,1,,,,,,,,,1,,,60,37
942720,note_off,0,0,4,,,,,,,,,4,,,51,0
942720,note_off,480,0,4,,,,,,,,,4,,,48,0
942720,note_off,480,0,5,,,,,,,,,5,,,36,0
942720,note_off,480,0,1,,,,,,,,,1,,,60,0
943200,set_tempo,960,1,0,,,,,,240000,,,,,,,
943200,note_on,480,0,1,,,,,,,,,1,,,77,72
943320,note_on,0,0,1,,,,,,,,,1,,,75,72
943320,note_off,120,0,1,,,,,,,,,1,,,77,0
943440,note_on,0,0,1,,,,,,,,,1,,,74,72
943440,note_off,120,0,1,,,,,,,,,1,,,75,0
943560,note_on,0,0,1,,,,,,,,,1,,,72,72
943560,note_off,120,0,1,,,,,,,,,1,,,74,0
943656,note_off,96,0,1,,,,,,,,,1,,,72,0
943680,note_on,24,0,1,,,,,,,,,1,,,79,72
943680,note_on,0,0,5,,,,,,,,,5,,,62,72
943680,note_on,960,0,5,,,,,,,,,5,,,59,72
943920,note_on,55008,0,3,,,,,,,,,3,,,55,72
944040,note_off,360,0,5,,,,,,,,,5,,,62,0
944047,note_off,7,0,5,,,,,,,,,5,,,59,0
944047,note_off,367,0,1,,,,,,,,,1,,,79,0
944112,note_off,192,0,3,,,,,,,,,3,,,55,0
944160,note_on,113,0,5,,,,,,,,,5,,,60,72
944160,note_on,63480,0,2,,,,,,,,,2,,,67,72
944160,note_on,113,0,1,,,,,,,,,1,,,79,72
944160,note_on,0,0,5,,,,,,,,,5,,,63,72
944400,note_on,288,0,3,,,,,,,,,3,,,55,72
944520,note_off,360,0,5,,,,,,,,,5,,,63,0
944520,note_off,360,0,1,,,,,,,,,1,,,79,0
944520,note_off,0,0,5,,,,,,,,,5,,,60,0
944520,note_off,360,0,2,,,,,,,,,2,,,67,0
944592,note_off,192,0,3,,,,,,,,,3,,,55,0
944640,note_on,120,0,1,,,,,,,,,1,,,79,73
944640,note_on,120,0,2,,,,,,,,,2,,,67,73
944640,note_on,0,0,5,,,,,,,,,5,,,65,73
944640,note_on,120,0,5,,,,,,,,,5,,,62,73
944880,note_on,288,0,3,,,,,,,,,3,,,55,73
945000,note_off,360,0,5,,,,,,,,,5,,,62,0
945007,note_off,7,0,5,,,,,,,,,5,,,65,0
945007,note_off,367,0,2,,,,,,,,,2,,,67,0
945007,note_off,367,0,1,,,,,,,,,1,,,79,0
945072,note_off,192,0,3,,,,,,,,,3,,,55,0
945120,note_on,113,0,5,,,,,,,,,5,,,63,73
945120,note_on,0,0,5,,,,,,,,,5,,,60,73
945120,note_on,113,0,1,,,,,,,,,1,,,79,73
945120,note_on,113,0,2,,,,,,,,,2,,,67,73
945360,note_on,288,0,3,,,,,,,,,3,,,55,73
945480,note_off,360,0,5,,,,,,,,,5,,,63,0
945487,note_off,7,0,5,,,,,,,,,5,,,60,0
945552,note_off,192,0,3,,,,,,,,,3,,,55,0
945600,note_on,113,0,5,,,,,,,,,5,,,60,73
945600,note_on,0,0,5,,,,,,,,,5,,,63,73
945840,note_on,288,0,3,,,,,,,,,3,,,55,73
945960,note_off,840,0,1,,,,,,,,,1,,,79,0
945960,note_off,840,0,2,,,,,,,,,2,,,67,0
945960,note_off,360,0,5,,,,,,,,,5,,,60,0
945967,note_off,7,0,5,,,,,,,,,5,,,63,0
946032,note_off,192,0,3,,,,,,,,,3,,,55,0
946080,note_on,0,0,5,,,,,,,,,5,,,60,73
946080,note_on,120,0,1,,,,,,,,,1,,,77,73
946080,note_on,113,0,5,,,,,,,,,5,,,63,73
946200,note_off,120,0,1,,,,,,,,,1,,,77,0
946200,note_on,0,0,1,,,,,,,,,1,,,75,74
946320,note_off,120,0,1,,,,,,,,,1,,,75,0
946320,note_on,0,0,1,,,,,,,,,1,,,74,74
946320,note_on,288,0,3,,,,,,,,,3,,,55,74
946440,note_on,0,0,1,,,,,,,,,1,,,72,74
946440,note_off,120,0,1,,,,,,,,,1,,,74,0
946440,note_off,360,0,5,,,,,,,,,5,,,63,0
946447,note_off,7,0,5,,,,,,,,,5,,,60,0
946512,note_off,192,0,3,,,,,,,,,3,,,55,0
946536,note_off,96,0,1,,,,,,,,,1,,,72,0
946560,note_on,113,0,5,,,,,,,,,5,,,59,74
946560,note_on,0,0,5,,,,,,,,,5,,,62,74
946560,note_on,24,0,1,,,,,,,,,1,,,79,74
946800,note_on,288,0,3,,,,,,,,,3,,,55,74
946920,note_off,360,0,5,,,,,,,,,5,,,59,0
946920,note_off,360,0,1,,,,,,,,,1,,,79,0
946927,note_off,7,0,5,,,,,,,,,5,,,62,0
946992,note_off,192,0,3,,,,,,,,,3,,,55,0
947040,note_on,0,0,5,,,,,,,,,5,,,63,74
947040,note_on,120,0,1,,,,,,,,,1,,,79,74
947040,note_on,113,0,5,,,,,,,,,5,,,60,74
947040,note_on,1080,0,2,,,,,,,,,2,,,67,74
947280,note_on,288,0,3,,,,,,,,,3,,,55,74
947400,note_off,360,0,5,,,,,,,,,5,,,60,0
947407,note_off,7,0,5,,,,,,,,,5,,,63,0
947407,note_off,367,0,2,,,,,,,,,2,,,67,0
947407,note_off,367,0,1,,,,,,,,,1,,,79,0
947472,note_off,192,0,3,,,,,,,,,3,,,55,0
947520,note_on,113,0,2,,,,,,,,,2,,,67,74
947520,note_on,113,0,1,,,,,,,,,1,,,79,74
947520,note_on,113,0,5,,,,,,,,,5,,,62,74
947520,note_on,0,0,5,,,,,,,,,5,,,65,74
947760,note_on,288,0,3,,,,,,,,,3,,,55,75
947880,note_off,360,0,1,,,,,,,,,1,,,79,0
947887,note_off,367,0,2,,,,,,,,,2,,,67,0
947887,note_off,367,0,5,,,,,,,,,5,,,65,0
947887,note_off,0,0,5,,,,,,,,,5,,,62,0
947952,note_off,192,0,3,,,,,,,,,3,,,55,0
948000,note_on,113,0,5,,,,,,,,,5,,,63,75
948000,note_on,0,0,5,,,,,,,,,5,,,60,75
948000,note_on,113,0,2,,,,,,,,,2,,,67,75
948000,note_on,120,0,1,,,,,,,,,1,,,79,75
948240,note_on,288,0,3,,,,,,,,,3,,,55,75
948360,note_off,360,0,5,,,,,,,,,5,,,60,0
948367,note_off,7,0,5,,,,,,,,,5,,,63,0
948432,note_off,192,0,3,,,,,,,,,3,,,55,0
948480,note_on,113,0,5,,,,,,,,,5,,,63,75
948480,note_on,0,0,5,,,,,,,,,5,,,60,75
948720,note_on,288,0,3,,,,,,,,,3,,,55,75
948832,note_off,352,0,5,,,,,,,,,5,,,63,0
948840,note_off,840,0,1,,,,,,,,,1,,,79,0
948840,note_off,8,0,5,,,,,,,,,5,,,60,0
948847,note_off,847,0,2,,,,,,,,,2,,,67,0
948912,note_off,192,0,3,,,,,,,,,3,,,55,0
948960,note_on,0,0,5,,,,,,,,,5,,,60,75
948960,note_on,120,0,5,,,,,,,,,5,,,63,75
948960,note_on,120,0,1,,,,,,,,,1,,,77,75
949080,note_on,0,0,1,,,,,,,,,1,,,75,75
949080,note_off,120,0,1,,,,,,,,,1,,,77,0
949200,note_on,288,0,3,,,,,,,,,3,,,55,76
949200,note_on,0,0,1,,,,,,,,,1,,,74,76
949200,note_off,120,0,1,,,,,,,,,1,,,75,0
949312,note_off,352,0,5,,,,,,,,,5,,,63,0
949320,note_off,120,0,1,,,,,,,,,1,,,74,0
949320,note_on,0,0,1,,,,,,,,,1,,,72,76
949327,note_off,15,0,5,,,,,,,,,5,,,60,0
949392,note_off,192,0,3,,,,,,,,,3,,,55,0
949416,note_off,96,0,1,,,,,,,,,1,,,72,0
949440,note_on,0,0,2,,,,,,,,,2,,,71,76
949440,control_change,113,0,5,,,,,,,64,127,5,,,,
949440,control_change,24,0,1,,,,,,,64,127,1,,,,
949440,control_change,593,0,2,,,,,,,64,127,2,,,,
949440,control_change,48,0,3,,,,,,,64,127,3,,,,
949440,control_change,6720,0,4,,,,,,,64,127,4,,,,
949465,note_off,25,0,2,,,,,,,,,2,,,71,0
949480,note_on,15,0,2,,,,,,,,,2,,,74,76
949505,note_off,25,0,2,,,,,,,,,2,,,74,0
949520,note_on,80,0,1,,,,,,,,,1,,,80,76
949545,note_off,25,0,1,,,,,,,,,1,,,80,0
949800,control_change,360,0,3,,,,,,,64,0,3,,,,
949800,control_change,295,0,2,,,,,,,64,0,2,,,,
949800,control_change,360,0,5,,,,,,,64,0,5,,,,
949800,control_change,255,0,1,,,,,,,64,0,1,,,,
949800,control_change,360,0,4,,,,,,,64,0,4,,,,
949920,note_on,0,0,5,,,,,,,,,5,,,53,76
949920,note_on,120,0,5,,,,,,,,,5,,,41,76
950230,note_off,0,0,5,,,,,,,,,5,,,41,0
950230,note_off,310,0,5,,,,,,,,,5,,,53,0
950400,note_on,0,0,5,,,,,,,,,5,,,65,76
950400,note_on,170,0,5,,,,,,,,,5,,,53,76
950710,note_off,310,0,5,,,,,,,,,5,,,65,0
950710,note_off,0,0,5,,,,,,,,,5,,,53,0
950880,control_change,1080,0,3,,,,,,,64,127,3,,,,
950880,control_change,1080,0,4,,,,,,,64,127,4,,,,
950880,control_change,1080,0,2,,,,,,,64,127,2,,,,
950880,note_on,0,0,2,,,,,,,,,2,,,72,77
950880,control_change,170,0,5,,,,,,,64,127,5,,,,
950880,control_change,1080,0,1,,,,,,,64,127,1,,,,
950905,note_off,25,0,2,,,,,,,,,2,,,72,0
950920,note_on,15,0,2,,,,,,,,,2,,,75,77
950945,note_off,25,0,2,,,,,,,,,2,,,75,0
950960,note_on,80,0,1,,,,,,,,,1,,,79,77
950985,note_off,25,0,1,,,,,,,,,1,,,79,0
951240,control_change,360,0,5,,,,,,,64,0,5,,,,
951240,control_change,255,0,1,,,,,,,64,0,1,,,,
951240,control_change,360,0,3,,,,,,,64,0,3,,,,
951240,control_change,360,0,4,,,,,,,64,0,4,,,,
951240,control_change,295,0,2,,,,,,,64,0,2,,,,
951360,note_on,120,0,5,,,,,,,,,5,,,39,77
951360,note_on,0,0,5,,,,,,,,,5,,,51,77
951670,note_off,0,0,5,,,,,,,,,5,,,39,0
951670,note_off,310,0,5,,,,,,,,,5,,,51,0
951840,note_on,0,0,5,,,,,,,,,5,,,63,77
951840,note_on,170,0,5,,,,,,,,,5,,,51,77
952150,note_off,310,0,5,,,,,,,,,5,,,63,0
952150,note_off,0,0,5,,,,,,,,,5,,,51,0
952320,note_on,0,0,5,,,,,,,,,5,,,50,78
952320,note_on,170,0,5,,,,,,,,,5,,,62,78
952630,note_off,310,0,5,,,,,,,,,5,,,50,0
952630,note_off,0,0,5,,,,,,,,,5,,,62,0
952800,control_change,170,0,5,,,,,,,64,127,5,,,,
952800,control_change,1560,0,4,,,,,,,64,127,4,,,,
952800,control_change,1560,0,1,,,,,,,64,127,1,,,,
952800,control_change,1560,0,3,,,,,,,64,127,3,,,,
952800,note_on,0,0,2,,,,,,,,,2,,,74,81
952800,control_change,1560,0,2,,,,,,,64,127,2,,,,
952825,note_off,25,0,2,,,,,,,,,2,,,74,0
952840,note_on,15,0,2,,,,,,,,,2,,,77,81
952865,note_off,25,0,2,,,,,,,,,2,,,77,0
952880,note_on,80,0,1,,,,,,,,,1,,,83,81
952905,note_off,25,0,1,,,,,,,,,1,,,83,0
953160,control_change,360,0,3,,,,,,,64,0,3,,,,
953160,control_change,360,0,4,,,,,,,64,0,4,,,,
953160,control_change,360,0,5,,,,,,,64,0,5,,,,
953160,control_change,295,0,2,,,,,,,64,0,2,,,,
953160,control_change,255,0,1,,,,,,,64,0,1,,,,
953280,control_change,120,0,1,,,,,,,64,127,1,,,,
953280,control_change,120,0,3,,,,,,,64,127,3,,,,
953280,control_change,120,0,4,,,,,,,64,127,4,,,,
953280,control_change,120,0,5,,,,,,,64,127,5,,,,
953280,control_change,120,0,2,,,,,,,64,127,2,,,,
953280,note_on,0,0,2,,,,,,,,,2,,,77,84
953305,note_off,25,0,2,,,,,,,,,2,,,77,0
953320,note_on,15,0,2,,,,,,,,,2,,,83,84
953345,note_off,25,0,2,,,,,,,,,2,,,83,0
953360,note_on,80,0,1,,,,,,,,,1,,,86,85
953385,note_off,25,0,1,,,,,,,,,1,,,86,0
953640,control_change,360,0,4,,,,,,,64,0,4,,,,
953640,control_change,360,0,3,,,,,,,64,0,3,,,,
953640,control_change,255,0,1,,,,,,,64,0,1,,,,
953640,control_change,295,0,2,,,,,,,64,0,2,,,,
953640,control_change,360,0,5,,,,,,,64,0,5,,,,
953700,set_tempo,10500,1,0,,,,,,244897,,,,,,,
953760,note_on,0,0,2,,,,,,,,,2,,,79,87
953760,note_on,120,0,1,,,,,,,,,1,,,89,87
953760,note_on,120,0,5,,,,,,,,,5,,,47,87
953760,note_on,120,0,2,,,,,,,,,2,,,86,87
953760,set_tempo,60,1,0,,,,,,372670,,,,,,,
953760,note_on,0,0,5,,,,,,,,,5,,,59,87
954145,note_off,385,0,1,,,,,,,,,1,,,89,0
954145,note_off,0,0,5,,,,,,,,,5,,,47,0
954145,note_off,0,0,2,,,,,,,,,2,,,86,0
954145,note_off,385,0,2,,,,,,,,,2,,,79,0
954145,note_off,385,0,5,,,,,,,,,5,,,59,0
954240,set_tempo,480,1,0,,,,,,845070,,,,,,,
955200,set_tempo,960,1,0,,,,,,240000,,,,,,,
955200,note_on,1055,0,1,,,,,,,,,1,,,75,61
956640,note_on,2495,0,5,,,,,,,,,5,,,60,56
956640,note_on,0,0,1,,,,,,,,,1,,,66,56
956640,note_on,3000,0,4,,,,,,,,,4,,,63,56
956640,note_off,1440,0,1,,,,,,,,,1,,,75,0
957960,note_off,1320,0,1,,,,,,,,,1,,,66,0
957960,note_off,1320,0,4,,,,,,,,,4,,,63,0
957960,note_off,1320,0,5,,,,,,,,,5,,,60,0
958080,note_on,120,0,1,,,,,,,,,1,,,67,56
958080,note_on,120,0,4,,,,,,,,,4,,,65,56
958080,note_on,0,0,4,,,,,,,,,4,,,62,56
958080,note_on,120,0,5,,,,,,,,,5,,,59,56
958800,note_off,720,0,1,,,,,,,,,1,,,67,0
958800,note_on,0,0,1,,,,,,,,,1,,,68,51
959040,note_off,960,0,4,,,,,,,,,4,,,62,0
959040,note_off,0,0,4,,,,,,,,,4,,,65,0
959040,note_on,0,0,4,,,,,,,,,4,,,63,49
959040,note_on,0,0,1,,,,,,,,,1,,,67,49
959040,note_off,960,0,5,,,,,,,,,5,,,59,0
959040,note_on,0,0,5,,,,,,,,,5,,,60,49
959040,note_off,240,0,1,,,,,,,,,1,,,68,0
959400,note_off,360,0,5,,,,,,,,,5,,,60,0
959400,note_off,360,0,4,,,,,,,,,4,,,63,0
959407,note_off,367,0,1,,,,,,,,,1,,,67,0
959520,note_on,113,0,1,,,,,,,,,1,,,67,49
959520,note_on,5375,0,2,,,,,,,,,2,,,63,49
959520,note_on,120,0,5,,,,,,,,,5,,,53,49
959760,note_off,240,0,2,,,,,,,,,2,,,63,0
959760,note_on,0,0,2,,,,,,,,,2,,,62,47
959760,note_off,240,0,1,,,,,,,,,1,,,67,0
959760,note_on,0,0,1,,,,,,,,,1,,,65,47
959905,note_off,385,0,5,,,,,,,,,5,,,53,0
959940,note_off,180,0,1,,,,,,,,,1,,,65,0
959952,note_off,192,0,2,,,,,,,,,2,,,62,0
960000,note_on,48,0,2,,,,,,,,,2,,,60,45
960000,note_on,95,0,5,,,,,,,,,5,,,55,45
960000,note_on,60,0,1,,,,,,,,,1,,,63,45
960360,note_off,360,0,1,,,,,,,,,1,,,63,0
960367,note_off,367,0,2,,,,,,,,,2,,,60,0
960385,note_off,385,0,5,,,,,,,,,5,,,55,0
960480,note_on,95,0,5,,,,,,,,,5,,,43,42
960480,note_on,113,0,2,,,,,,,,,2,,,59,42
960480,note_on,120,0,1,,,,,,,,,1,,,62,42
960840,note_off,360,0,2,,,,,,,,,2,,,59,0
960847,note_off,367,0,1,,,,,,,,,1,,,62,0
960865,note_off,385,0,5,,,,,,,,,5,,,43,0
960920,set_tempo,5720,1,0,,,,,,241935,,,,,,,
960960,note_on,113,0,1,,,,,,,,,1,,,60,38
960960,note_on,95,0,5,,,,,,,,,5,,,48,38
961327,note_off,367,0,1,,,,,,,,,1,,,60,0
961345,note_off,385,0,5,,,,,,,,,5,,,48,0
961920,set_tempo,1000,1,0,,,,,,240000,,,,,,,
961920,note_on,593,0,1,,,,,,,,,1,,,77,68
962040,note_off,120,0,1,,,,,,,,,1,,,77,0
962040,note_on,0,0,1,,,,,,,,,1,,,75,68
962160,note_off,120,0,1,,,,,,,,,1,,,75,0
962160,note_on,0,0,1,,,,,,,,,1,,,74,68
962280,note_on,0,0,1,,,,,,,,,1,,,72,68
962280,note_off,120,0,1,,,,,,,,,1,,,74,0
962376,note_off,96,0,1,,,,,,,,,1,,,72,0
962400,note_on,24,0,1,,,,,,,,,1,,,79,68
962400,note_on,0,0,5,,,,,,,,,5,,,59,68
962400,note_on,1055,0,5,,,,,,,,,5,,,62,68
962640,note_on,9000,0,3,,,,,,,,,3,,,55,69
962760,note_off,360,0,5,,,,,,,,,5,,,62,0
962767,note_off,7,0,5,,,,,,,,,5,,,59,0
962767,note_off,367,0,1,,,,,,,,,1,,,79,0
962832,note_off,192,0,3,,,,,,,,,3,,,55,0
962880,note_on,2040,0,2,,,,,,,,,2,,,67,69
962880,note_on,113,0,5,,,,,,,,,5,,,63,69
962880,note_on,113,0,1,,,,,,,,,1,,,79,69
962880,note_on,0,0,5,,,,,,,,,5,,,60,69
963120,note_on,288,0,3,,,,,,,,,3,,,55,69
963240,note_off,360,0,2,,,,,,,,,2,,,67,0
963240,note_off,0,0,5,,,,,,,,,5,,,63,0
963240,note_off,360,0,1,,,,,,,,,1,,,79,0
963240,note_off,360,0,5,,,,,,,,,5,,,60,0
963312,note_off,192,0,3,,,,,,,,,3,,,55,0
963360,note_on,120,0,1,,,,,,,,,1,,,79,69
963360,note_on,120,0,5,,,,,,,,,5,,,65,69
963360,note_on,120,0,2,,,,,,,,,2,,,67,69
963360,note_on,0,0,5,,,,,,,,,5,,,62,69
963600,note_on,288,0,3,,,,,,,,,3,,,55,69
963720,note_off,360,0,5,,,,,,,,,5,,,62,0
963727,note_off,7,0,5,,,,,,,,,5,,,65,0
963727,note_off,367,0,1,,,,,,,,,1,,,79,0
963727,note_off,367,0,2,,,,,,,,,2,,,67,0
963792,note_off,192,0,3,,,,,,,,,3,,,55,0
963840,note_on,113,0,2,,,,,,,,,2,,,67,70
963840,note_on,113,0,1,,,,,,,,,1,,,79,70
963840,note_on,0,0,5,,,,,,,,,5,,,63,70
963840,note_on,113,0,5,,,,,,,,,5,,,60,70
964080,note_on,288,0,3,,,,,,,,,3,,,55,70
964200,note_off,360,0,5,,,,,,,,,5,,,63,0
964207,note_off,7,0,5,,,,,,,,,5,,,60,0
964272,note_off,192,0,3,,,,,,,,,3,,,55,0
964320,note_on,113,0,5,,,,,,,,,5,,,63,70
964320,note_on,0,0,5,,,,,,,,,5,,,60,70
964560,note_on,288,0,3,,,,,,,,,3,,,55,70
964680,note_off,840,0,2,,,,,,,,,2,,,67,0
964680,note_off,360,0,5,,,,,,,,,5,,,60,0
964680,note_off,840,0,1,,,,,,,,,1,,,79,0
964687,note_off,7,0,5,,,,,,,,,5,,,63,0
964752,note_off,192,0,3,,,,,,,,,3,,,55,0
964800,note_on,113,0,5,,,,,,,,,5,,,60,71
964800,note_on,0,0,5,,,,,,,,,5,,,63,71
964800,note_on,120,0,1,,,,,,,,,1,,,77,71
964920,note_on,0,0,1,,,,,,,,,1,,,75,71
964920,note_off,120,0,1,,,,,,,,,1,,,77,0
965040,note_off,120,0,1,,,,,,,,,1,,,75,0
965040,note_on,0,0,1,,,,,,,,,1,,,74,71
965040,note_on,288,0,3,,,,,,,,,3,,,55,71
965160,note_off,120,0,1,,,,,,,,,1,,,74,0
965160,note_on,0,0,1,,,,,,,,,1,,,72,71
965160,note_off,360,0,5,,,,,,,,,5,,,63,0
965167,note_off,7,0,5,,,,,,,,,5,,,60,0
965232,note_off,192,0,3,,,,,,,,,3,,,55,0
965256,note_off,96,0,1,,,,,,,,,1,,,72,0
965280,note_on,113,0,5,,,,,,,,,5,,,62,71
965280,note_on,24,0,1,,,,,,,,,1,,,79,71
965280,note_on,0,0,5,,,,,,,,,5,,,59,71
965520,note_on,288,0,3,,,,,,,,,3,,,55,71
965640,note_off,360,0,5,,,,,,,,,5,,,59,0
965640,note_off,360,0,1,,,,,,,,,1,,,79,0
965647,note_off,7,0,5,,,,,,,,,5,,,62,0
965712,note_off,192,0,3,,,,,,,,,3,,,55,0
965760,note_on,0,0,5,,,,,,,,,5,,,60,72
965760,note_on,1080,0,2,,,,,,,,,2,,,67,72
965760,note_on,113,0,5,,,,,,,,,5,,,63,72
965760,note_on,120,0,1,,,,,,,,,1,,,79,72
966000,note_on,288,0,3,,,,,,,,,3,,,55,72
966120,note_off,360,0,5,,,,,,,,,5,,,60,0
966127,note_off,367,0,2,,,,,,,,,2,,,67,0
966127,note_off,7,0,5,,,,,,,,,5,,,63,0
966127,note_off,367,0,1,,,,,,,,,1,,,79,0
966192,note_off,192,0,3,,,,,,,,,3,,,55,0
966240,note_on,0,0,5,,,,,,,,,5,,,62,72
966240,note_on,113,0,5,,,,,,,,,5,,,65,72
966240,note_on,113,0,1,,,,,,,,,1,,,79,72
966240,note_on,113,0,2,,,,,,,,,2,,,67,72
966480,note_on,288,0,3,,,,,,,,,3,,,55,72
966600,note_off,360,0,1,,,,,,,,,1,,,79,0
966607,note_off,367,0,2,,,,,,,,,2,,,67,0
966607,note_off,367,0,5,,,,,,,,,5,,,62,0
966607,note_off,0,0,5,,,,,,,,,5,,,65,0
966672,note_off,192,0,3,,,,,,,,,3,,,55,0
966720,note_on,113,0,5,,,,,,,,,5,,,60,72
966720,note_on,0,0,5,,,,,,,,,5,,,63,72
966720,note_on,113,0,2,,,,,,,,,2,,,67,72
966720,note_on,120,0,1,,,,,,,,,1,,,79,72
966960,note_on,288,0,3,,,,,,,,,3,,,55,73
967080,note_off,360,0,5,,,,,,,,,5,,,60,0
967087,note_off,7,0,5,,,,,,,,,5,,,63,0
967152,note_off,192,0,3,,,,,,,,,3,,,55,0
967200,note_on,113,0,5,,,,,,,,,5,,,60,73
967200,note_on,0,0,5,,,,,,,,,5,,,63,73
967440,note_on,288,0,3,,,,,,,,,3,,,55,73
967552,note_off,352,0,5,,,,,,,,,5,,,63,0
967560,note_off,8,0,5,,,,,,,,,5,,,60,0
967560,note_off,840,0,1,,,,,,,,,1,,,79,0
967567,note_off,847,0,2,,,,,,,,,2,,,67,0
967632,note_off,192,0,3,,,,,,,,,3,,,55,0
967680,note_on,0,0,5,,,,,,,,,5,,,63,73
967680,note_on,120,0,5,,,,,,,,,5,,,60,73
967680,note_on,120,0,1,,,,,,,,,1,,,77,73
967800,note_on,0,0,1,,,,,,,,,1,,,75,74
967800,note_off,120,0,1,,,,,,,,,1,,,77,0
967920,note_on,288,0,3,,,,,,,,,3,,,55,74
967920,note_on,0,0,1,,,,,,,,,1,,,74,74
967920,note_off,120,0,1,,,,,,,,,1,,,75,0
968032,note_off,352,0,5,,,,,,,,,5,,,63,0
968040,note_on,0,0,1,,,,,,,,,1,,,72,74
968040,note_off,120,0,1,,,,,,,,,1,,,74,0
968047,note_off,15,0,5,,,,,,,,,5,,,60,0
968112,note_off,192,0,3,,,,,,,,,3,,,55,0
968136,note_off,96,0,1,,,,,,,,,1,,,72,0
968160,note_on,0,0,2,,,,,,,,,2,,,71,74
968160,control_change,48,0,3,,,,,,,64,127,3,,,,
968160,control_change,8760,0,4,,,,,,,64,127,4,,,,
968160,control_change,593,0,2,,,,,,,64,127,2,,,,
968160,control_change,24,0,1,,,,,,,64,127,1,,,,
968160,control_change,113,0,5,,,,,,,64,127,5,,,,
968185,note_off,25,0,2,,,,,,,,,2,,,71,0
968200,note_on,15,0,2,,,,,,,,,2,,,74,74
968225,note_off,25,0,2,,,,,,,,,2,,,74,0
968240,note_on,80,0,1,,,,,,,,,1,,,80,74
968265,note_off,25,0,1,,,,,,,,,1,,,80,0
968520,control_change,295,0,2,,,,,,,64,0,2,,,,
968520,control_change,360,0,4,,,,,,,64,0,4,,,,
968520,control_change,360,0,3,,,,,,,64,0,3,,,,
968520,control_change,255,0,1,,,,,,,64,0,1,,,,
968520,control_change,360,0,5,,,,,,,64,0,5,,,,
968640,note_on,120,0,5,,,,,,,,,5,,,53,74
968640,note_on,0,0,5,,,,,,,,,5,,,41,74
968950,note_off,310,0,5,,,,,,,,,5,,,41,0
968950,note_off,0,0,5,,,,,,,,,5,,,53,0
969120,note_on,170,0,5,,,,,,,,,5,,,65,75
969120,note_on,0,0,5,,,,,,,,,5,,,53,75
969430,note_off,0,0,5,,,,,,,,,5,,,65,0
969430,note_off,310,0,5,,,,,,,,,5,,,53,0
969600,note_on,0,0,2,,,,,,,,,2,,,72,75
969600,control_change,1080,0,3,,,,,,,64,127,3,,,,
969600,control_change,1080,0,2,,,,,,,64,127,2,,,,
969600,control_change,170,0,5,,,,,,,64,127,5,,,,
969600,control_change,1080,0,1,,,,,,,64,127,1,,,,
969600,control_change,1080,0,4,,,,,,,64,127,4,,,,
969625,note_off,25,0,2,,,,,,,,,2,,,72,0
969640,note_on,15,0,2,,,,,,,,,2,,,75,75
969665,note_off,25,0,2,,,,,,,,,2,,,75,0
969680,note_on,80,0,1,,,,,,,,,1,,,79,75
969705,note_off,25,0,1,,,,,,,,,1,,,79,0
969960,control_change,360,0,4,,,,,,,64,0,4,,,,
969960,control_change,360,0,5,,,,,,,64,0,5,,,,
969960,control_change,360,0,3,,,,,,,64,0,3,,,,
969960,control_change,255,0,1,,,,,,,64,0,1,,,,
969960,control_change,295,0,2,,,,,,,64,0,2,,,,
970080,note_on,120,0,5,,,,,,,,,5,,,51,76
970080,note_on,0,0,5,,,,,,,,,5,,,39,76
970390,note_off,310,0,5,,,,,,,,,5,,,39,0
970390,note_off,0,0,5,,,,,,,,,5,,,51,0
970560,note_on,170,0,5,,,,,,,,,5,,,63,76
970560,note_on,0,0,5,,,,,,,,,5,,,51,76
970870,note_off,310,0,5,,,,,,,,,5,,,51,0
970870,note_off,0,0,5,,,,,,,,,5,,,63,0
971040,note_on,170,0,5,,,,,,,,,5,,,50,76
971040,note_on,0,0,5,,,,,,,,,5,,,62,76
971350,note_off,310,0,5,,,,,,,,,5,,,62,0
971350,note_off,0,0,5,,,,,,,,,5,,,50,0
971520,control_change,1560,0,1,,,,,,,64,127,1,,,,
971520,control_change,1560,0,3,,,,,,,64,127,3,,,,
971520,control_change,1560,0,4,,,,,,,64,127,4,,,,
971520,control_change,1560,0,2,,,,,,,64,127,2,,,,
971520,note_on,0,0,2,,,,,,,,,2,,,74,81
971520,control_change,170,0,5,,,,,,,64,127,5,,,,
971545,note_off,25,0,2,,,,,,,,,2,,,74,0
971560,note_on,15,0,2,,,,,,,,,2,,,77,81
971585,note_off,25,0,2,,,,,,,,,2,,,77,0
971600,note_on,80,0,1,,,,,,,,,1,,,83,82
971625,note_off,25,0,1,,,,,,,,,1,,,83,0
971880,control_change,360,0,4,,,,,,,64,0,4,,,,
971880,control_change,360,0,5,,,,,,,64,0,5,,,,
971880,control_change,255,0,1,,,,,,,64,0,1,,,,
971880,control_change,295,0,2,,,,,,,64,0,2,,,,
971880,control_change,360,0,3,,,,,,,64,0,3,,,,
972000,control_change,120,0,5,,,,,,,64,127,5,,,,
972000,control_change,120,0,3,,,,,,,64,127,3,,,,
972000,control_change,120,0,4,,,,,,,64,127,4,,,,
972000,note_on,0,0,2,,,,,,,,,2,,,77,86
972000,control_change,120,0,2,,,,,,,64,127,2,,,,
972000,control_change,120,0,1,,,,,,,64,127,1,,,,
972025,note_off,25,0,2,,,,,,,,,2,,,77,0
972040,note_on,15,0,2,,,,,,,,,2,,,83,87
972065,note_off,25,0,2,,,,,,,,,2,,,83,0
972080,note_on,80,0,1,,,,,,,,,1,,,86,87
972105,note_off,25,0,1,,,,,,,,,1,,,86,0
972360,control_change,295,0,2,,,,,,,64,0,2,,,,
972360,control_change,360,0,4,,,,,,,64,0,4,,,,
972360,control_change,255,0,1,,,,,,,64,0,1,,,,
972360,control_change,360,0,3,,,,,,,64,0,3,,,,
972360,control_change,360,0,5,,,,,,,64,0,5,,,,
972420,set_tempo,10500,1,0,,,,,,244897,,,,,,,
972480,note_on,0,0,5,,,,,,,,,5,,,47,91
972480,note_on,120,0,5,,,,,,,,,5,,,59,91
972480,note_on,120,0,2,,,,,,,,,2,,,86,91
972480,set_tempo,60,1,0,,,,,,372670,,,,,,,
972480,note_on,0,0,2,,,,,,,,,2,,,79,91
972480,note_on,120,0,1,,,,,,,,,1,,,89,91
972865,note_off,0,0,5,,,,,,,,,5,,,59,0
972865,note_off,385,0,2,,,,,,,,,2,,,79,0
972865,note_off,0,0,2,,,,,,,,,2,,,86,0
972865,note_off,385,0,1,,,,,,,,,1,,,89,0
972865,note_off,385,0,5,,,,,,,,,5,,,47,0
972960,set_tempo,480,1,0,,,,,,845070,,,,,,,
973920,control_change,1055,0,1,,,,,,,64,0,1,,,,
973920,control_change,1560,0,4,,,,,,,64,0,4,,,,
973920,control_change,1055,0,5,,,,,,,64,0,5,,,,
973920,note_on,0,0,1,,,,,,,,,1,,,61,80
973920,note_on,0,0,5,,,,,,,,,5,,,49,80
973920,set_tempo,960,1,0,,,,,,240000,,,,,,,
973920,control_change,1055,0,2,,,,,,,64,0,2,,,,
973920,control_change,1560,0,3,,,,,,,64,0,3,,,,
974230,note_off,310,0,1,,,,,,,,,1,,,61,0
974263,note_off,343,0,5,,,,,,,,,5,,,49,0
974400,note_on,170,0,1,,,,,,,,,1,,,76,85
974400,note_on,137,0,5,,,,,,,,,5,,,58,85
974400,note_on,0,0,5,,,,,,,,,5,,,46,85
974400,note_on,0,0,2,,,,,,,,,2,,,70,85
974400,note_on,480,0,2,,,,,,,,,2,,,67,85
974710,note_off,0,0,2,,,,,,,,,2,,,67,0
974710,note_off,310,0,1,,,,,,,,,1,,,76,0
974710,note_off,310,0,5,,,,,,,,,5,,,46,0
974710,note_off,0,0,5,,,,,,,,,5,,,58,0
974710,note_off,310,0,2,,,,,,,,,2,,,70,0
974880,note_on,170,0,1,,,,,,,,,1,,,79,90
974880,note_on,170,0,5,,,,,,,,,5,,,43,90
974880,note_on,0,0,2,,,,,,,,,2,,,70,90
974880,note_on,170,0,2,,,,,,,,,2,,,76,90
974880,note_on,0,0,5,,,,,,,,,5,,,55,90
975190,note_off,310,0,1,,,,,,,,,1,,,79,0
975190,note_off,0,0,2,,,,,,,,,2,,,76,0
975190,note_off,310,0,2,,,,,,,,,2,,,70,0
975190,note_off,310,0,5,,,,,,,,,5,,,55,0
975190,note_off,0,0,5,,,,,,,,,5,,,43,0
975300,set_tempo,1380,1,0,,,,,,244897,,,,,,,
975360,note_on,0,0,5,,,,,,,,,5,,,52,95
975360,note_on,170,0,2,,,,,,,,,2,,,79,95
975360,note_on,170,0,5,,,,,,,,,5,,,40,95
975360,note_on,170,0,1,,,,,,,,,1,,,82,95
975360,note_on,0,0,2,,,,,,,,,2,,,73,95
975360,set_tempo,60,1,0,,,,,,372670,,,,,,,
975670,note_off,0,0,5,,,,,,,,,5,,,40,0
975670,note_off,310,0,5,,,,,,,,,5,,,52,0
975670,note_off,0,0,2,,,,,,,,,2,,,79,0
975670,note_off,310,0,2,,,,,,,,,2,,,73,0
975670,note_off,310,0,1,,,,,,,,,1,,,82,0
976800,set_tempo,1440,1,0,,,,,,487804,,,,,,,
978200,set_tempo,1400,1,0,,,,,,241935,,,,,,,
978240,note_on,0,0,5,,,,,,,,,5,,,53,38
978240,control_change,2570,0,5,,,,,,,64,0,5,,,,
978240,set_tempo,40,1,0,,,,,,240000,,,,,,,
978240,control_change,2570,0,2,,,,,,,64,0,2,,,,
978240,control_change,4320,0,4,,,,,,,64,0,4,,,,
978240,control_change,2570,0,1,,,,,,,64,0,1,,,,
978240,control_change,4320,0,3,,,,,,,64,0,3,,,,
978720,note_on,480,0,3,,,,,,,,,3,,,56,38
979200,note_off,960,0,5,,,,,,,,,5,,,53,0
979200,note_on,0,0,3,,,,,,,,,3,,,60,39
979200,note_off,480,0,3,,,,,,,,,3,,,56,0
979680,note_off,480,0,3,,,,,,,,,3,,,60,0
979680,note_on,480,0,5,,,,,,,,,5,,,52,39
980160,note_on,480,0,3,,,,,,,,,3,,,55,39
980640,note_off,480,0,3,,,,,,,,,3,,,55,0
980640,note_off,960,0,5,,,,,,,,,5,,,52,0
980640,note_on,0,0,3,,,,,,,,,3,,,58,40
981015,note_off,375,0,3,,,,,,,,,3,,,58,0
981120,note_on,2880,0,1,,,,,,,,,1,,,72,40
981120,note_on,480,0,5,,,,,,,,,5,,,53,40
981480,note_off,360,0,1,,,,,,,,,1,,,72,0
981600,note_on,585,0,3,,,,,,,,,3,,,56,41
982080,note_off,960,0,5,,,,,,,,,5,,,53,0
982080,note_on,0,0,3,,,,,,,,,3,,,60,41
982080,note_off,480,0,3,,,,,,,,,3,,,56,0
982560,note_off,480,0,3,,,,,,,,,3,,,60,0
982560,note_on,1080,0,1,,,,,,,,,1,,,72,43
982560,note_on,480,0,5,,,,,,,,,5,,,52,42
982905,note_off,345,0,1,,,,,,,,,1,,,72,0
983040,note_on,480,0,3,,,,,,,,,3,,,55,42
983520,note_off,960,0,5,,,,,,,,,5,,,52,0
983520,note_on,0,0,3,,,,,,,,,3,,,58,42
983520,note_off,480,0,3,,,,,,,,,3,,,55,0
983760,note_on,855,0,1,,,,,,,,,1,,,72,46
983895,note_off,375,0,3,,,,,,,,,3,,,58,0
983970,note_off,210,0,1,,,,,,,,,1,,,72,0
984000,note_on,30,0,1,,,,,,,,,1,,,73,52
984000,note_on,480,0,5,,,,,,,,,5,,,53,43
984480,note_on,585,0,3,,,,,,,,,3,,,56,43
984960,note_on,0,0,3,,,,,,,,,3,,,60,44
984960,note_off,960,0,5,,,,,,,,,5,,,53,0
984960,note_on,960,0,1,,,,,,,,,1,,,72,44
984960,note_off,480,0,3,,,,,,,,,3,,,56,0
984975,note_off,15,0,1,,,,,,,,,1,,,73,0
985335,note_off,360,0,1,,,,,,,,,1,,,72,0
985440,note_on,480,0,5,,,,,,,,,5,,,52,44
985440,note_off,480,0,3,,,,,,,,,3,,,60,0
985920,note_on,480,0,3,,,,,,,,,3,,,55,45
986400,note_off,480,0,3,,,,,,,,,3,,,55,0
986400,note_on,0,0,3,,,,,,,,,3,,,58,45
986400,note_off,960,0,5,,,,,,,,,5,,,52,0
986640,note_on,1305,0,1,,,,,,,,,1,,,84,50
986775,note_off,375,0,3,,,,,,,,,3,,,58,0
986835,note_off,195,0,1,,,,,,,,,1,,,84,0
986880,note_on,45,0,1,,,,,,,,,1,,,85,55
986880,note_on,480,0,5,,,,,,,,,5,,,53,45
987360,note_on,585,0,3,,,,,,,,,3,,,56,46
987840,note_off,960,0,1,,,,,,,,,1,,,85,0
987840,note_off,960,0,5,,,,,,,,,5,,,53,0
987840,note_on,0,0,1,,,,,,,,,1,,,84,46
987840,note_on,0,0,3,,,,,,,,,3,,,60,46
987840,note_off,480,0,3,,,,,,,,,3,,,56,0
988185,note_off,345,0,1,,,,,,,,,1,,,84,0
988320,note_on,480,0,5,,,,,,,,,5,,,52,47
988320,note_off,480,0,3,,,,,,,,,3,,,60,0
988800,note_on,480,0,3,,,,,,,,,3,,,55,47
989280,note_off,480,0,3,,,,,,,,,3,,,55,0
989280,note_off,960,0,5,,,,,,,,,5,,,52,0
989280,note_on,0,0,3,,,,,,,,,3,,,58,48
989520,note_on,1335,0,1,,,,,,,,,1,,,60,54
989655,note_off,375,0,3,,,,,,,,,3,,,58,0
989700,note_off,180,0,1,,,,,,,,,1,,,60,0
989760,note_on,480,0,5,,,,,,,,,5,,,53,48
989760,note_on,60,0,1,,,,,,,,,1,,,61,58
990240,note_on,585,0,3,,,,,,,,,3,,,56,48
990720,note_off,960,0,5,,,,,,,,,5,,,53,0
990720,note_off,480,0,3,,,,,,,,,3,,,56,0
990720,note_on,0,0,1,,,,,,,,,1,,,60,49
990720,note_on,0,0,3,,,,,,,,,3,,,53,49
990720,note_off,960,0,1,,,,,,,,,1,,,61,0
991095,note_off,375,0,3,,,,,,,,,3,,,53,0
991095,note_off,375,0,1,,,,,,,,,1,,,60,0
991200,note_on,480,0,5,,,,,,,,,5,,,54,51
991680,note_on,585,0,3,,,,,,,,,3,,,57,54
992160,note_off,960,0,5,,,,,,,,,5,,,54,0
992160,note_on,0,0,3,,,,,,,,,3,,,63,56
992160,note_off,480,0,3,,,,,,,,,3,,,57,0
992400,note_on,1305,0,1,,,,,,,,,1,,,84,58
992535,note_off,375,0,3,,,,,,,,,3,,,63,0
992600,set_tempo,14360,1,0,,,,,,241935,,,,,,,
992610,note_off,210,0,1,,,,,,,,,1,,,84,0
992640,set_tempo,40,1,0,,,,,,240000,,,,,,,
992640,note_on,30,0,1,,,,,,,,,1,,,72,65
992640,note_on,480,0,5,,,,,,,,,5,,,55,59
993120,note_on,585,0,3,,,,,,,,,3,,,60,62
993600,note_off,960,0,5,,,,,,,,,5,,,55,0
993600,note_off,480,0,3,,,,,,,,,3,,,60,0
993600,note_on,0,0,3,,,,,,,,,3,,,63,65
993975,note_off,375,0,3,,,,,,,,,3,,,63,0
994040,set_tempo,1400,1,0,,,,,,241935,,,,,,,
994080,set_tempo,40,1,0,,,,,,243902,,,,,,,
994080,note_on,480,0,5,,,,,,,,,5,,,55,65
994080,note_off,1440,0,1,,,,,,,,,1,,,72,0
994080,note_on,0,0,1,,,,,,,,,1,,,74,61
994140,set_tempo,60,1,0,,,,,,241935,,,,,,,
994160,note_on,15920,0,2,,,,,,,,,2,,,75,60
994174,note_off,94,0,1,,,,,,,,,1,,,74,0
994240,note_on,80,0,2,,,,,,,,,2,,,74,61
994254,note_off,14,0,2,,,,,,,,,2,,,75,0
994320,note_on,66,0,2,,,,,,,,,2,,,75,60
994334,note_off,14,0,2,,,,,,,,,2,,,74,0
994400,note_on,66,0,2,,,,,,,,,2,,,74,60
994414,note_off,14,0,2,,,,,,,,,2,,,75,0
994480,note_on,66,0,2,,,,,,,,,2,,,75,59
994494,note_off,14,0,2,,,,,,,,,2,,,74,0
994560,note_on,66,0,2,,,,,,,,,2,,,74,59
994560,note_on,585,0,3,,,,,,,,,3,,,59,61
994574,note_off,14,0,2,,,,,,,,,2,,,75,0
994640,note_on,66,0,2,,,,,,,,,2,,,75,58
994654,note_off,14,0,2,,,,,,,,,2,,,74,0
994720,note_on,66,0,2,,,,,,,,,2,,,74,58
994734,note_off,14,0,2,,,,,,,,,2,,,75,0
994800,note_on,66,0,2,,,,,,,,,2,,,75,57
994814,note_off,14,0,2,,,,,,,,,2,,,74,0
994880,note_on,66,0,2,,,,,,,,,2,,,74,57
994894,note_off,14,0,2,,,,,,,,,2,,,75,0
994960,note_on,66,0,2,,,,,,,,,2,,,75,56
994974,note_off,14,0,2,,,,,,,,,2,,,74,0
995040,note_on,0,0,3,,,,,,,,,3,,,65,58
995040,note_off,480,0,3,,,,,,,,,3,,,59,0
995040,note_on,66,0,2,,,,,,,,,2,,,74,56
995040,note_off,960,0,5,,,,,,,,,5,,,55,0
995054,note_off,14,0,2,,,,,,,,,2,,,75,0
995120,note_on,66,0,2,,,,,,,,,2,,,75,55
995134,note_off,14,0,2,,,,,,,,,2,,,74,0
995200,note_on,66,0,2,,,,,,,,,2,,,74,55
995214,note_off,14,0,2,,,,,,,,,2,,,75,0
995280,note_on,66,0,2,,,,,,,,,2,,,72,54
995294,note_off,14,0,2,,,,,,,,,2,,,74,0
995400,note_on,0,0,2,,,,,,,,,2,,,74,53
995400,note_off,106,0,2,,,,,,,,,2,,,72,0
995407,note_off,367,0,3,,,,,,,,,3,,,65,0
995480,set_tempo,1340,1,0,,,,,,243902,,,,,,,
995512,note_off,112,0,2,,,,,,,,,2,,,74,0
995520,note_on,1346,0,1,,,,,,,,,1,,,72,53
995520,set_tempo,40,1,0,,,,,,240000,,,,,,,
995520,note_on,480,0,5,,,,,,,,,5,,,60,54
995520,note_on,17280,0,4,,,,,,,,,4,,,63,54
995760,note_on,353,0,3,,,,,,,,,3,,,67,49
996000,note_off,240,0,3,,,,,,,,,3,,,67,0
996000,note_on,0,0,3,,,,,,,,,3,,,63,40
996000,note_off,480,0,1,,,,,,,,,1,,,72,0
996000,note_off,480,0,4,,,,,,,,,4,,,63,0
996240,note_on,240,0,3,,,,,,,,,3,,,67,34
996360,note_off,120,0,3,,,,,,,,,3,,,63,0
996480,note_off,120,0,3,,,,,,,,,3,,,67,0
996480,note_on,0,0,3,,,,,,,,,3,,,63,34
996480,note_off,960,0,5,,,,,,,,,5,,,60,0
996720,note_on,240,0,3,,,,,,,,,3,,,67,34
996840,note_off,120,0,3,,,,,,,,,3,,,63,0
996915,note_off,75,0,3,,,,,,,,,3,,,67,0
996960,note_on,960,0,1,,,,,,,,,1,,,55,45
996960,note_on,480,0,5,,,,,,,,,5,,,65,35
997200,note_on,285,0,3,,,,,,,,,3,,,67,35
997440,note_off,480,0,1,,,,,,,,,1,,,55,0
997440,note_on,0,0,1,,,,,,,,,1,,,57,46
997440,note_off,240,0,3,,,,,,,,,3,,,67,0
997440,note_on,0,0,3,,,,,,,,,3,,,65,35
997680,note_on,240,0,3,,,,,,,,,3,,,67,36
997800,note_off,120,0,3,,,,,,,,,3,,,65,0
997920,note_off,120,0,3,,,,,,,,,3,,,67,0
997920,note_on,0,0,3,,,,,,,,,3,,,65,36
997920,note_off,960,0,5,,,,,,,,,5,,,65,0
997920,note_off,480,0,1,,,,,,,,,1,,,57,0
997920,note_on,0,0,1,,,,,,,,,1,,,59,46
998160,note_on,240,0,3,,,,,,,,,3,,,67,36
998280,note_off,120,0,3,,,,,,,,,3,,,65,0
998340,note_off,60,0,3,,,,,,,,,3,,,67,0
998400,note_on,480,0,5,,,,,,,,,5,,,63,37
998400,note_off,480,0,1,,,,,,,,,1,,,59,0
998400,note_on,0,0,1,,,,,,,,,1,,,60,47
998640,note_on,300,0,3,,,,,,,,,3,,,60,37
998872,note_off,232,0,3,,,,,,,,,3,,,60,0
998880,note_off,480,0,1,,,,,,,,,1,,,60,0
998880,note_on,8,0,3,,,,,,,,,3,,,55,37
999120,note_on,240,0,3,,,,,,,,,3,,,60,37
999240,note_off,120,0,3,,,,,,,,,3,,,55,0
999360,note_off,960,0,5,,,,,,,,,5,,,63,0
999360,note_off,120,0,3,,,,,,,,,3,,,60,0
999360,note_on,0,0,3,,,,,,,,,3,,,51,38
999600,note_on,240,0,3,,,,,,,,,3,,,55,38
999720,note_off,120,0,3,,,,,,,,,3,,,51,0
999792,note_off,72,0,3,,,,,,,,,3,,,55,0
999840,note_on,480,0,5,,,,,,,,,5,,,53,38
999840,note_on,960,0,1,,,,,,,,,1,,,67,49
1000080,note_on,288,0,3,,,,,,,,,3,,,55,39
1000320,note_on,0,0,1,,,,,,,,,1,,,69,49
1000320,note_on,0,0,3,,,,,,,,,3,,,53,39
1000320,note_off,480,0,1,,,,,,,,,1,,,67,0
1000320,note_off,240,0,3,,,,,,,,,3,,,55,0
1000560,note_on,240,0,3,,,,,,,,,3,,,55,39
1000680,note_off,120,0,3,,,,,,,,,3,,,53,0
1000800,note_off,960,0,5,,,,,,,,,5,,,53,0
1000800,note_off,480,0,1,,,,,,,,,1,,,69,0
1000800,note_off,120,0,3,,,,,,,,,3,,,55,0
1000800,note_on,0,0,1,,,,,,,,,1,,,71,50
1000800,note_on,0,0,3,,,,,,,,,3,,,53,40
1001040,note_on,240,0,3,,,,,,,,,3,,,55,40
1001160,note_off,120,0,3,,,,,,,,,3,,,53,0
1001232,note_off,72,0,3,,,,,,,,,3,,,55,0
1001280,note_on,480,0,5,,,,,,,,,5,,,51,40
1001280,note_off,480,0,1,,,,,,,,,1,,,71,0
1001280,note_on,0,0,1,,,,,,,,,1,,,72,50
1001520,note_on,288,0,3,,,,,,,,,3,,,55,40
1001760,note_off,240,0,3,,,,,,,,,3,,,55,0
1001760,note_on,0,0,3,,,,,,,,,3,,,51,41
1001760,note_off,480,0,1,,,,,,,,,1,,,72,0
1002000,note_on,240,0,3,,,,,,,,,3,,,55,41
1002120,note_off,120,0,3,,,,,,,,,3,,,51,0
1002240,note_off,120,0,3,,,,,,,,,3,,,55,0
1002240,note_on,0,0,3,,,,,,,,,3,,,51,41
1002240,note_off,960,0,5,,,,,,,,,5,,,51,0
1002480,note_on,240,0,3,,,,,,,,,3,,,55,42
1002600,note_off,120,0,3,,,,,,,,,3,,,51,0
1002672,note_off,72,0,3,,,,,,,,,3,,,55,0
1002720,note_on,960,0,1,,,,,,,,,1,,,79,52
1002720,note_on,480,0,5,,,,,,,,,5,,,53,42
1002960,note_on,288,0,3,,,,,,,,,3,,,55,42
1003200,note_off,480,0,1,,,,,,,,,1,,,79,0
1003200,note_on,0,0,1,,,,,,,,,1,,,81,53
1003200,note_off,240,0,3,,,,,,,,,3,,,55,0
1003200,note_on,0,0,3,,,,,,,,,3,,,53,43
1003440,note_on,240,0,3,,,,,,,,,3,,,55,43
1003560,note_off,120,0,3,,,,,,,,,3,,,53,0
1003680,note_on,0,0,1,,,,,,,,,1,,,83,54
1003680,note_off,960,0,5,,,,,,,,,5,,,53,0
1003680,note_off,480,0,1,,,,,,,,,1,,,81,0
1003680,note_off,120,0,3,,,,,,,,,3,,,55,0
1003680,note_on,0,0,3,,,,,,,,,3,,,53,43
1003920,note_on,240,0,3,,,,,,,,,3,,,55,44
1004040,note_off,120,0,3,,,,,,,,,3,,,53,0
1004112,note_off,72,0,3,,,,,,,,,3,,,55,0
1004120,set_tempo,8600,1,0,,,,,,241935,,,,,,,
1004160,note_on,0,0,1,,,,,,,,,1,,,84,54
1004160,note_off,480,0,1,,,,,,,,,1,,,83,0
1004160,note_on,480,0,5,,,,,,,,,5,,,51,44
1004160,set_tempo,40,1,0,,,,,,240000,,,,,,,
1004400,note_on,288,0,3,,,,,,,,,3,,,55,44
1004640,note_on,0,0,3,,,,,,,,,3,,,51,44
1004640,note_off,240,0,3,,,,,,,,,3,,,55,0
1004880,note_on,240,0,3,,,,,,,,,3,,,55,45
1005000,note_off,120,0,3,,,,,,,,,3,,,51,0
1005120,note_off,960,0,5,,,,,,,,,5,,,51,0
1005120,note_on,0,0,3,,,,,,,,,3,,,51,45
1005120,note_off,120,0,3,,,,,,,,,3,,,55,0
1005360,note_on,240,0,3,,,,,,,,,3,,,55,45
1005465,note_off,1305,0,1,,,,,,,,,1,,,84,0
1005480,note_off,120,0,3,,,,,,,,,3,,,51,0
1005552,note_off,72,0,3,,,,,,,,,3,,,55,0
1005600,note_on,135,0,1,,,,,,,,,1,,,82,56
1005600,note_on,480,0,5,,,,,,,,,5,,,52,46
1005840,note_on,288,0,3,,,,,,,,,3,,,60,46
1006080,note_on,0,0,3,,,,,,,,,3,,,52,46
1006080,note_off,240,0,3,,,,,,,,,3,,,60,0
1006320,note_on,240,0,3,,,,,,,,,3,,,60,47
1006440,note_off,120,0,3,,,,,,,,,3,,,52,0
1006560,note_on,0,0,3,,,,,,,,,3,,,52,47
1006560,note_off,120,0,3,,,,,,,,,3,,,60,0
1006560,note_off,960,0,5,,,,,,,,,5,,,52,0
1006800,note_on,240,0,3,,,,,,,,,3,,,60,47
1006905,note_off,1305,0,1,,,,,,,,,1,,,82,0
1006920,note_off,120,0,3,,,,,,,,,3,,,52,0
1006992,note_off,72,0,3,,,,,,,,,3,,,60,0
1007040,note_on,480,0,5,,,,,,,,,5,,,53,47
1007040,note_on,135,0,1,,,,,,,,,1,,,80,58
1007280,note_on,288,0,3,,,,,,,,,3,,,60,48
1007520,note_off,240,0,3,,,,,,,,,3,,,60,0
1007520,note_on,0,0,3,,,,,,,,,3,,,53,48
1007760,note_on,240,0,3,,,,,,,,,3,,,60,48
1007880,note_off,120,0,3,,,,,,,,,3,,,53,0
1008000,note_off,120,0,3,,,,,,,,,3,,,60,0
1008000,note_on,0,0,3,,,,,,,,,3,,,53,49
1008000,note_off,960,0,5,,,,,,,,,5,,,53,0
1008240,note_on,240,0,3,,,,,,,,,3,,,60,49
1008345,note_off,1305,0,1,,,,,,,,,1,,,80,0
1008360,note_off,120,0,3,,,,,,,,,3,,,53,0
1008432,note_off,72,0,3,,,,,,,,,3,,,60,0
1008480,note_on,135,0,1,,,,,,,,,1,,,77,60
1008480,note_on,480,0,5,,,,,,,,,5,,,55,49
1008720,note_on,288,0,3,,,,,,,,,3,,,59,50
1008960,note_off,240,0,3,,,,,,,,,3,,,59,0
1008960,note_on,0,0,3,,,,,,,,,3,,,55,50
1009200,note_on,240,0,3,,,,,,,,,3,,,59,50
1009320,note_off,120,0,3,,,,,,,,,3,,,55,0
1009440,note_off,960,0,5,,,,,,,,,5,,,55,0
1009440,note_off,120,0,3,,,,,,,,,3,,,59,0
1009440,note_on,0,0,3,,,,,,,,,3,,,55,51
1009680,note_on,240,0,3,,,,,,,,,3,,,59,51
1009800,note_off,120,0,3,,,,,,,,,3,,,55,0
1009800,note_off,1320,0,1,,,,,,,,,1,,,77,0
1009872,note_off,72,0,3,,,,,,,,,3,,,59,0
1009920,note_on,480,0,5,,,,,,,,,5,,,56,51
1009920,note_on,120,0,1,,,,,,,,,1,,,75,62
1010160,note_on,288,0,3,,,,,,,,,3,,,60,51
1010400,note_on,0,0,3,,,,,,,,,3,,,56,52
1010400,note_off,240,0,3,,,,,,,,,3,,,60,0
1010640,note_on,240,0,3,,,,,,,,,3,,,60,52
1010760,note_off,120,0,3,,,,,,,,,3,,,56,0
1010880,note_off,120,0,3,,,,,,,,,3,,,60,0
1010880,note_on,0,0,3,,,,,,,,,3,,,56,52
1010880,note_off,960,0,5,,,,,,,,,5,,,56,0
1011120,note_on,240,0,3,,,,,,,,,3,,,60,53
1011225,note_off,1305,0,1,,,,,,,,,1,,,75,0
1011240,note_off,120,0,3,,,,,,,,,3,,,56,0
1011312,note_off,72,0,3,,,,,,,,,3,,,60,0
1011360,note_on,135,0,1,,,,,,,,,1,,,73,63
1011360,note_on,480,0,5,,,,,,,,,5,,,53,53
1011600,note_on,288,0,3,,,,,,,,,3,,,56,53
1011840,note_off,240,0,3,,,,,,,,,3,,,56,0
1011840,note_on,0,0,3,,,,,,,,,3,,,53,54
1012080,note_on,240,0,3,,,,,,,,,3,,,56,54
1012200,note_off,120,0,3,,,,,,,,,3,,,53,0
1012320,note_off,960,0,5,,,,,,,,,5,,,53,0
1012320,note_off,120,0,3,,,,,,,,,3,,,56,0
1012320,note_on,0,0,3,,,,,,,,,3,,,53,54
1012560,note_on,240,0,3,,,,,,,,,3,,,56,54
1012650,note_off,1290,0,1,,,,,,,,,1,,,73,0
1012680,note_off,120,0,3,,,,,,,,,3,,,53,0
1012752,note_off,72,0,3,,,,,,,,,3,,,56,0
1012800,note_on,150,0,1,,,,,,,,,1,,,72,65
1012800,note_on,480,0,5,,,,,,,,,5,,,55,55
1013040,note_on,288,0,3,,,,,,,,,3,,,63,55
1013280,note_off,240,0,3,,,,,,,,,3,,,63,0
1013280,note_on,0,0,3,,,,,,,,,3,,,55,55
1013520,note_on,240,0,3,,,,,,,,,3,,,63,56
1013640,note_off,120,0,3,,,,,,,,,3,,,55,0
1013760,note_on,0,0,3,,,,,,,,,3,,,55,56
1013760,note_off,120,0,3,,,,,,,,,3,,,63,0
1013760,note_off,960,0,5,,,,,,,,,5,,,55,0
1014000,note_on,240,0,3,,,,,,,,,3,,,63,56
1014120,note_off,120,0,3,,,,,,,,,3,,,55,0
1014135,note_off,1335,0,1,,,,,,,,,1,,,72,0
1014192,note_off,72,0,3,,,,,,,,,3,,,63,0
1014240,note_on,105,0,1,,,,,,,,,1,,,71,67
1014240,note_on,480,0,5,,,,,,,,,5,,,55,57
1014480,note_on,288,0,3,,,,,,,,,3,,,62,57
1014720,note_on,0,0,3,,,,,,,,,3,,,55,57
1014720,note_off,240,0,3,,,,,,,,,3,,,62,0
1014960,note_on,240,0,3,,,,,,,,,3,,,62,58
1015080,note_off,120,0,3,,,,,,,,,3,,,55,0
1015200,note_off,120,0,3,,,,,,,,,3,,,62,0
1015200,note_on,0,0,3,,,,,,,,,3,,,55,58
1015200,note_off,960,0,5,,,,,,,,,5,,,55,0
1015440,note_on,240,0,3,,,,,,,,,3,,,62,58
1015530,note_off,1290,0,1,,,,,,,,,1,,,71,0
1015560,note_off,120,0,3,,,,,,,,,3,,,55,0
1015632,note_off,72,0,3,,,,,,,,,3,,,62,0
1015640,set_tempo,11480,1,0,,,,,,241935,,,,,,,
1015680,control_change,150,0,1,,,,,,,10,55,1,,,,
1015680,note_on,0,0,1,,,,,,,,,1,,,56,70
1015680,set_tempo,40,1,0,,,,,,240000,,,,,,,
1015680,note_on,48,0,3,,,,,,,,,3,,,63,58
1015920,note_on,240,0,3,,,,,,,,,3,,,72,59
1016040,note_off,120,0,3,,,,,,,,,3,,,63,0
1016160,note_on,0,0,3,,,,,,,,,3,,,63,59
1016160,note_off,120,0,3,,,,,,,,,3,,,72,0
1016400,note_on,240,0,3,,,,,,,,,3,,,72,59
1016520,note_off,120,0,3,,,,,,,,,3,,,63,0
1016640,note_on,0,0,3,,,,,,,,,3,,,63,60
1016640,note_off,120,0,3,,,,,,,,,3,,,72,0
1016880,note_on,240,0,3,,,,,,,,,3,,,72,60
1017000,note_off,120,0,3,,,,,,,,,3,,,63,0
1017052,note_off,1372,0,1,,,,,,,,,1,,,56,0
1017072,note_off,72,0,3,,,,,,,,,3,,,72,0
1017120,note_on,0,0,1,,,,,,,,,1,,,84,76
1017120,control_change,68,0,1,,,,,,,10,73,1,,,,
1017120,note_on,1920,0,5,,,,,,,,,5,,,63,60
1017360,note_on,288,0,3,,,,,,,,,3,,,72,61
1017600,note_off,240,0,3,,,,,,,,,3,,,72,0
1017600,note_on,0,0,3,,,,,,,,,3,,,63,61
1017840,note_on,240,0,3,,,,,,,,,3,,,72,61
1017960,note_off,120,0,3,,,,,,,,,3,,,63,0
1018080,note_off,960,0,5,,,,,,,,,5,,,63,0
1018080,note_off,120,0,3,,,,,,,,,3,,,72,0
1018080,note_on,0,0,3,,,,,,,,,3,,,63,62
1018320,note_on,240,0,3,,,,,,,,,3,,,72,62
1018440,note_off,120,0,3,,,,,,,,,3,,,63,0
1018455,note_off,1335,0,1,,,,,,,,,1,,,84,0
1018512,note_off,72,0,3,,,,,,,,,3,,,72,0
1018560,note_on,480,0,5,,,,,,,,,5,,,63,62
1018560,note_on,105,0,1,,,,,,,,,1,,,87,73
1018800,note_on,288,0,3,,,,,,,,,3,,,72,62
1019040,note_off,240,0,3,,,,,,,,,3,,,72,0
1019040,note_on,0,0,3,,,,,,,,,3,,,63,63
1019280,note_on,240,0,3,,,,,,,,,3,,,72,63
1019400,note_off,120,0,3,,,,,,,,,3,,,63,0
1019520,note_off,120,0,3,,,,,,,,,3,,,72,0
1019520,note_off,960,0,5,,,,,,,,,5,,,63,0
1019520,note_on,0,0,3,,,,,,,,,3,,,63,63
1019760,note_on,240,0,3,,,,,,,,,3,,,72,64
1019880,note_off,120,0,3,,,,,,,,,3,,,63,0
1019880,note_off,1320,0,1,,,,,,,,,1,,,87,0
1019952,note_off,72,0,3,,,,,,,,,3,,,72,0
1019960,set_tempo,4280,1,0,,,,,,241935,,,,,,,
1020000,set_tempo,40,1,0,,,,,,240000,,,,,,,
1020000,control_change,120,0,1,,,,,,,10,55,1,,,,
1020000,note_on,0,0,1,,,,,,,,,1,,,42,73
1020000,note_on,480,0,5,,,,,,,,,5,,,63,64
1020240,note_on,288,0,3,,,,,,,,,3,,,72,64
1020480,note_off,240,0,3,,,,,,,,,3,,,72,0
1020480,note_on,0,0,3,,,,,,,,,3,,,63,65
1020720,note_on,240,0,3,,,,,,,,,3,,,72,65
1020840,note_off,120,0,3,,,,,,,,,3,,,63,0
1020960,note_off,120,0,3,,,,,,,,,3,,,72,0
1020960,note_on,0,0,3,,,,,,,,,3,,,63,65
1020960,note_off,960,0,5,,,,,,,,,5,,,63,0
1021200,note_on,240,0,3,,,,,,,,,3,,,72,65
1021320,note_off,120,0,3,,,,,,,,,3,,,63,0
1021320,note_off,1320,0,1,,,,,,,,,1,,,42,0
1021392,note_off,72,0,3,,,,,,,,,3,,,72,0
1021440,note_on,120,0,1,,,,,,,,,1,,,43,76
1021440,note_on,480,0,5,,,,,,,,,5,,,63,66
1021680,note_on,288,0,3,,,,,,,,,3,,,72,66
1021920,note_off,240,0,3,,,,,,,,,3,,,72,0
1021920,note_on,0,0,3,,,,,,,,,3,,,63,66
1022160,note_on,240,0,3,,,,,,,,,3,,,72,67
1022280,note_off,120,0,3,,,,,,,,,3,,,63,0
1022400,note_off,120,0,3,,,,,,,,,3,,,72,0
1022400,note_off,960,0,5,,,,,,,,,5,,,63,0
1022400,note_on,0,0,3,,,,,,,,,3,,,63,67
1022640,note_on,240,0,3,,,,,,,,,3,,,72,67
1022745,note_off,1305,0,1,,,,,,,,,1,,,43,0
1022760,note_off,120,0,3,,,,,,,,,3,,,63,0
1022832,note_off,72,0,3,,,,,,,,,3,,,72,0
1022880,note_on,480,0,5,,,,,,,,,5,,,63,68
1022880,note_on,135,0,1,,,,,,,,,1,,,44,79
1023120,note_on,288,0,3,,,,,,,,,3,,,72,68
1023360,note_on,0,0,3,,,,,,,,,3,,,63,68
1023360,note_off,240,0,3,,,,,,,,,3,,,72,0
1023600,note_on,240,0,3,,,,,,,,,3,,,72,69
1023720,note_off,120,0,3,,,,,,,,,3,,,63,0
1023840,note_off,960,0,5,,,,,,,,,5,,,63,0
1023840,note_on,0,0,3,,,,,,,,,3,,,63,69
1023840,note_off,120,0,3,,,,,,,,,3,,,72,0
1024080,note_on,240,0,3,,,,,,,,,3,,,72,69
1024185,note_off,1305,0,1,,,,,,,,,1,,,44,0
1024200,note_off,120,0,3,,,,,,,,,3,,,63,0
1024272,note_off,72,0,3,,,,,,,,,3,,,72,0
1024320,note_on,480,0,5,,,,,,,,,5,,,62,69
1024320,note_on,135,0,1,,,,,,,,,1,,,41,82
1024560,note_on,288,0,3,,,,,,,,,3,,,72,70
1024800,note_on,0,0,3,,,,,,,,,3,,,62,70
1024800,note_off,240,0,3,,,,,,,,,3,,,72,0
1025040,note_on,240,0,3,,,,,,,,,3,,,72,70
1025160,note_off,120,0,3,,,,,,,,,3,,,62,0
1025280,note_off,960,0,5,,,,,,,,,5,,,62,0
1025280,note_off,120,0,3,,,,,,,,,3,,,72,0
1025280,note_on,0,0,3,,,,,,,,,3,,,62,71
1025520,note_on,240,0,3,,,,,,,,,3,,,72,71
1025640,note_off,120,0,3,,,,,,,,,3,,,62,0
1025670,note_off,1350,0,1,,,,,,,,,1,,,41,0
1025712,note_off,72,0,3,,,,,,,,,3,,,72,0
1025760,note_on,480,0,5,,,,,,,,,5,,,62,71
1025760,note_on,90,0,1,,,,,,,,,1,,,43,86
1026000,note_on,288,0,3,,,,,,,,,3,,,71,72
1026240,note_off,240,0,3,,,,,,,,,3,,,71,0
1026240,note_on,0,0,3,,,,,,,,,3,,,62,72
1026480,note_on,240,0,3,,,,,,,,,3,,,71,72
1026600,note_off,120,0,3,,,,,,,,,3,,,62,0
1026720,note_off,960,0,5,,,,,,,,,5,,,62,0
1026720,note_off,120,0,3,,,,,,,,,3,,,71,0
1026720,note_on,0,0,3,,,,,,,,,3,,,62,72
1026960,note_on,240,0,3,,,,,,,,,3,,,71,73
1027050,note_off,1290,0,1,,,,,,,,,1,,,43,0
1027080,note_off,120,0,3,,,,,,,,,3,,,62,0
1027152,note_off,72,0,3,,,,,,,,,3,,,71,0
1027200,note_on,150,0,1,,,,,,,,,1,,,36,84
1027200,note_on,480,0,5,,,,,,,,,5,,,63,73
1027440,note_on,288,0,3,,,,,,,,,3,,,72,73
1027680,note_on,0,0,3,,,,,,,,,3,,,67,74
1027680,note_off,480,0,1,,,,,,,,,1,,,36,0
1027680,note_off,240,0,3,,,,,,,,,3,,,72,0
1027920,note_off,240,0,3,,,,,,,,,3,,,67,0
1027920,note_on,0,0,3,,,,,,,,,3,,,63,74
1028160,note_off,240,0,3,,,,,,,,,3,,,63,0
1028160,note_on,0,0,3,,,,,,,,,3,,,67,74
1028160,note_off,960,0,5,,,,,,,,,5,,,63,0
1028400,note_off,240,0,3,,,,,,,,,3,,,67,0
1028400,note_on,0,0,3,,,,,,,,,3,,,63,75
1028640,note_off,240,0,3,,,,,,,,,3,,,63,0
1028640,control_change,960,0,1,,,,,,,10,73,1,,,,
1028640,note_on,480,0,5,,,,,,,,,5,,,62,75
1028880,note_on,240,0,3,,,,,,,,,3,,,65,75
1029120,note_on,0,0,3,,,,,,,,,3,,,67,76
1029120,note_off,240,0,3,,,,,,,,,3,,,65,0
1029120,note_on,480,0,1,,,,,,,,,1,,,79,77
1029360,note_on,0,0,1,,,,,,,,,1,,,81,79
1029360,note_off,240,0,1,,,,,,,,,1,,,79,0
1029360,note_on,0,0,3,,,,,,,,,3,,,65,76
1029360,note_off,240,0,3,,,,,,,,,3,,,67,0
1029600,note_off,960,0,5,,,,,,,,,5,,,62,0
1029600,note_off,240,0,1,,,,,,,,,1,,,81,0
1029600,note_off,240,0,3,,,,,,,,,3,,,65,0
1029600,note_on,0,0,3,,,,,,,,,3,,,67,76
1029600,note_on,0,0,1,,,,,,,,,1,,,83,80
1029840,note_off,240,0,1,,,,,,,,,1,,,83,0
1029840,note_on,0,0,1,,,,,,,,,1,,,79,82
1029840,note_on,0,0,3,,,,,,,,,3,,,65,76
1029840,note_off,240,0,3,,,,,,,,,3,,,67,0
1030032,note_off,192,0,3,,,,,,,,,3,,,65,0
1030080,note_on,0,0,1,,,,,,,,,1,,,84,83
1030080,note_on,480,0,5,,,,,,,,,5,,,60,77
1030080,note_off,240,0,1,,,,,,,,,1,,,79,0
1030320,note_on,288,0,3,,,,,,,,,3,,,63,77
1030455,note_off,375,0,1,,,,,,,,,1,,,84,0
1030560,note_on,105,0,1,,,,,,,,,1,,,72,79
1030560,note_off,240,0,3,,,,,,,,,3,,,63,0
1030560,note_on,0,0,3,,,,,,,,,3,,,67,77
1030800,note_off,240,0,1,,,,,,,,,1,,,72,0
1030800,note_on,0,0,1,,,,,,,,,1,,,74,81
1030800,note_on,0,0,3,,,,,,,,,3,,,63,78
1030800,note_off,240,0,3,,,,,,,,,3,,,67,0
1031040,note_on,0,0,3,,,,,,,,,3,,,67,78
1031040,note_off,240,0,3,,,,,,,,,3,,,63,0
1031040,note_off,960,0,5,,,,,,,,,5,,,60,0
1031040,note_on,0,0,1,,,,,,,,,1,,,75,82
1031040,note_off,240,0,1,,,,,,,,,1,,,74,0
1031280,note_off,240,0,1,,,,,,,,,1,,,75,0
1031280,note_on,0,0,1,,,,,,,,,1,,,72,83
1031280,note_on,0,0,3,,,,,,,,,3,,,63,78
1031280,note_off,240,0,3,,,,,,,,,3,,,67,0
1031520,note_on,0,0,1,,,,,,,,,1,,,79,84
1031520,note_on,480,0,5,,,,,,,,,5,,,62,79
1031520,note_off,240,0,3,,,,,,,,,3,,,63,0
1031520,note_off,240,0,1,,,,,,,,,1,,,72,0
1031760,note_on,240,0,3,,,,,,,,,3,,,65,79
1031895,note_off,375,0,1,,,,,,,,,1,,,79,0
1032000,note_off,240,0,3,,,,,,,,,3,,,65,0
1032000,note_on,0,0,3,,,,,,,,,3,,,67,79
1032000,note_on,105,0,1,,,,,,,,,1,,,71,82
1032240,note_on,0,0,1,,,,,,,,,1,,,72,83
1032240,note_off,240,0,1,,,,,,,,,1,,,71,0
1032240,note_off,240,0,3,,,,,,,,,3,,,67,0
1032240,note_on,0,0,3,,,,,,,,,3,,,65,79
1032480,note_on,0,0,1,,,,,,,,,1,,,74,85
1032480,note_off,240,0,1,,,,,,,,,1,,,72,0
1032480,note_on,0,0,3,,,,,,,,,3,,,67,80
1032480,note_off,960,0,5,,,,,,,,,5,,,62,0
1032480,note_off,240,0,3,,,,,,,,,3,,,65,0
1032720,note_on,0,0,3,,,,,,,,,3,,,65,80
1032720,note_off,240,0,1,,,,,,,,,1,,,74,0
1032720,note_on,0,0,1,,,,,,,,,1,,,71,87
1032720,note_off,240,0,3,,,,,,,,,3,,,67,0
1032912,note_off,192,0,3,,,,,,,,,3,,,65,0
1032960,note_off,240,0,1,,,,,,,,,1,,,71,0
1032960,note_on,0,0,1,,,,,,,,,1,,,72,89
1032960,note_on,480,0,5,,,,,,,,,5,,,60,80
1033200,note_on,288,0,3,,,,,,,,,3,,,63,81
1033305,note_off,345,0,1,,,,,,,,,1,,,72,0
1033440,note_off,240,0,3,,,,,,,,,3,,,63,0
1033440,note_on,0,0,3,,,,,,,,,3,,,67,81
1033680,note_on,0,0,3,,,,,,,,,3,,,63,81
1033680,note_off,240,0,3,,,,,,,,,3,,,67,0
1033920,note_off,960,0,5,,,,,,,,,5,,,60,0
1033920,note_on,0,0,3,,,,,,,,,3,,,67,82
1033920,note_off,240,0,3,,,,,,,,,3,,,63,0
1034160,note_off,240,0,3,,,,,,,,,3,,,67,0
1034160,note_on,0,0,3,,,,,,,,,3,,,63,82
1034400,note_off,240,0,3,,,,,,,,,3,,,63,0
1034400,note_on,480,0,5,,,,,,,,,5,,,62,82
1034400,control_change,1095,0,1,,,,,,,10,55,1,,,,
1034640,note_on,240,0,3,,,,,,,,,3,,,65,83
1034880,note_on,0,0,3,,,,,,,,,3,,,67,83
1034880,note_on,480,0,1,,,,,,,,,1,,,43,84
1034880,note_off,240,0,3,,,,,,,,,3,,,65,0
1035120,note_on,0,0,1,,,,,,,,,1,,,45,85
1035120,note_off,240,0,3,,,,,,,,,3,,,67,0
1035120,note_on,0,0,3,,,,,,,,,3,,,65,83
1035120,note_off,240,0,1,,,,,,,,,1,,,43,0
1035360,note_off,960,0,5,,,,,,,,,5,,,62,0
1035360,note_on,0,0,1,,,,,,,,,1,,,47,87
1035360,note_off,240,0,1,,,,,,,,,1,,,45,0
1035360,note_off,240,0,3,,,,,,,,,3,,,65,0
1035360,note_on,0,0,3,,,,,,,,,3,,,67,83
1035600,note_off,240,0,1,,,,,,,,,1,,,47,0
1035600,note_on,0,0,1,,,,,,,,,1,,,43,89
1035600,note_on,0,0,3,,,,,,,,,3,,,65,84
1035600,note_off,240,0,3,,,,,,,,,3,,,67,0
1035792,note_off,192,0,3,,,,,,,,,3,,,65,0
1035840,note_on,480,0,5,,,,,,,,,5,,,60,84
1035840,note_on,0,0,1,,,,,,,,,1,,,48,91
1035840,note_off,240,0,1,,,,,,,,,1,,,43,0
1036080,note_on,288,0,3,,,,,,,,,3,,,63,84
1036200,note_off,360,0,1,,,,,,,,,1,,,48,0
1036320,note_on,120,0,1,,,,,,,,,1,,,36,85
1036320,note_off,240,0,3,,,,,,,,,3,,,63,0
1036320,note_on,0,0,3,,,,,,,,,3,,,67,85
1036560,note_off,240,0,1,,,,,,,,,1,,,36,0
1036560,note_on,0,0,1,,,,,,,,,1,,,38,87
1036560,note_off,240,0,3,,,,,,,,,3,,,67,0
1036560,note_on,0,0,3,,,,,,,,,3,,,63,85
1036800,note_on,0,0,3,,,,,,,,,3,,,67,85
1036800,note_off,240,0,3,,,,,,,,,3,,,63,0
1036800,note_off,240,0,1,,,,,,,,,1,,,38,0
1036800,note_on,0,0,1,,,,,,,,,1,,,39,89
1036800,note_off,960,0,5,,,,,,,,,5,,,60,0
1037040,note_on,0,0,3,,,,,,,,,3,,,63,86
1037040,note_off,240,0,3,,,,,,,,,3,,,67,0
1037040,note_on,0,0,1,,,,,,,,,1,,,36,91
1037040,note_off,240,0,1,,,,,,,,,1,,,39,0
1037280,note_off,240,0,3,,,,,,,,,3,,,63,0
1037280,note_off,240,0,1,,,,,,,,,1,,,36,0
1037280,note_on,480,0,5,,,,,,,,,5,,,62,86
1037280,note_on,0,0,1,,,,,,,,,1,,,43,93
1037520,note_on,240,0,3,,,,,,,,,3,,,65,86
1037655,note_off,375,0,1,,,,,,,,,1,,,43,0
1037760,note_off,240,0,3,,,,,,,,,3,,,65,0
1037760,note_on,0,0,3,,,,,,,,,3,,,67,87
1037760,note_on,105,0,1,,,,,,,,,1,,,31,88
1038000,note_off,240,0,3,,,,,,,,,3,,,67,0
1038000,note_on,0,0,3,,,,,,,,,3,,,65,87
1038000,note_off,240,0,1,,,,,,,,,1,,,31,0
1038000,note_on,0,0,1,,,,,,,,,1,,,33,90
1038240,note_off,240,0,1,,,,,,,,,1,,,33,0
1038240,note_on,0,0,1,,,,,,,,,1,,,35,91
1038240,note_off,960,0,5,,,,,,,,,5,,,62,0
1038240,note_on,0,0,3,,,,,,,,,3,,,67,86
1038240,note_off,240,0,3,,,,,,,,,3,,,65,0
1038480,note_on,0,0,1,,,,,,,,,1,,,31,93
1038480,note_off,240,0,1,,,,,,,,,1,,,35,0
1038480,note_on,0,0,3,,,,,,,,,3,,,65,86
1038480,note_off,240,0,3,,,,,,,,,3,,,67,0
1038672,note_off,192,0,3,,,,,,,,,3,,,65,0
1038680,set_tempo,18680,1,0,,,,,,244897,,,,,,,
1038720,note_on,480,0,5,,,,,,,,,5,,,60,94
1038720,set_tempo,40,1,0,,,,,,266666,,,,,,,
1038720,note_off,240,0,1,,,,,,,,,1,,,31,0
1038720,note_on,0,0,1,,,,,,,,,1,,,36,95
1038720,note_on,48,0,3,,,,,,,,,3,,,63,94
1039065,note_off,345,0,3,,,,,,,,,3,,,63,0
1039065,end_of_track,0,1,3,,,,,,,,,,,,,
1039080,note_off,360,0,1,,,,,,,,,1,,,36,0
1039080,note_off,360,0,5,,,,,,,,,5,,,60,0
1040160,set_tempo,1440,1,0,,,,,,292682,,,,,,,
1040160,note_on,0,0,4,,,,,,,,,4,,,55,96
1040160,note_on,44160,0,4,,,,,,,,,4,,,51,96
1040160,note_on,0,0,2,,,,,,,,,2,,,72,96
1040160,note_on,1080,0,5,,,,,,,,,5,,,48,96
1040160,note_on,0,0,1,,,,,,,,,1,,,79,96
1040160,note_on,0,0,1,,,,,,,,,1,,,67,96
1040160,control_change,1080,0,1,,,,,,,10,73,1,,,,
1040160,note_on,44648,0,2,,,,,,,,,2,,,75,96
1040160,note_on,0,0,5,,,,,,,,,5,,,60,96
1040640,note_off,480,0,1,,,,,,,,,1,,,79,0
1040640,note_off,0,0,1,,,,,,,,,1,,,67,0
1040640,note_off,0,0,5,,,,,,,,,5,,,48,0
1040640,note_off,0,0,4,,,,,,,,,4,,,51,0
1040640,note_off,480,0,4,,,,,,,,,4,,,55,0
1040640,note_off,480,0,2,,,,,,,,,2,,,72,0
1040640,note_off,0,0,2,,,,,,,,,2,,,75,0
1040640,note_off,480,0,5,,,,,,,,,5,,,60,0
1041600,end_of_track,0,1,0,,,,,,,,,,,,,
1041600,note_on,0,0,4,,,,,,,,,4,,,39,97
1041600,note_on,960,0,4,,,,,,,,,4,,,43,97
1041600,note_on,0,0,1,,,,,,,,,1,,,84,97
1041600,note_on,960,0,1,,,,,,,,,1,,,72,97
1041600,note_on,960,0,2,,,,,,,,,2,,,75,97
1041600,note_on,0,0,2,,,,,,,,,2,,,79,97
1041600,note_on,960,0,5,,,,,,,,,5,,,48,97
1041600,note_on,0,0,5,,,,,,,,,5,,,36,97
1041600,set_tempo,1440,1,0,,,,,,461538,,,,,,,
1042080,note_off,480,0,5,,,,,,,,,5,,,36,0
1042080,note_off,480,0,1,,,,,,,,,1,,,84,0
1042080,end_of_track,0,1,1,,,,,,,,,,,,,
1042080,note_off,0,0,5,,,,,,,,,5,,,48,0
1042080,end_of_track,0,1,4,,,,,,,,,,,,,
1042080,note_off,0,0,4,,,,,,,,,4,,,43,0
1042080,note_off,480,0,4,,,,,,,,,4,,,39,0
1042080,note_off,480,0,2,,,,,,,,,2,,,79,0
1042080,note_off,0,0,2,,,,,,,,,2,,,75,0
1042080,end_of_track,0,1,2,,,,,,,,,,,,,
1042080,note_off,0,0,1,,,,,,,,,1,,,72,0
1042080,end_of_track,0,1,5,,,,,,,,,,,,,
