tick,type,numerator,denominator,clocks_per_click,notated_32nd_notes_per_beat,time,meta,track,key,tempo,port,program,channel,control,value,pitch,note,velocity
0,time_signature,2,2,48,8,0,1,0,,,,,,,,,,
0,track_name,,,,,0,1,4,,,,,,,,,,
0,midi_port,,,,,0,1,7,,,0,,,,,,,
0,track_name,,,,,0,1,7,,,,,,,,,,
0,program_change,,,,,0,0,7,,,,48,6,,,,,
0,control_change,,,,,0,0,7,,,,,6,7,120,,,
0,control_change,,,,,0,0,7,,,,,6,10,32,,,
0,control_change,,,,,0,0,1,,,,,0,10,48,,,
0,control_change,,,,,0,0,1,,,,,0,7,120,,,
0,program_change,,,,,0,0,1,,,,68,0,,,,,
0,track_name,,,,,0,1,1,,,,,,,,,,
0,midi_port,,,,,0,1,1,,,0,,,,,,,
0,midi_port,,,,,0,1,8,,,0,,,,,,,
0,track_name,,,,,0,1,8,,,,,,,,,,
0,program_change,,,,,0,0,8,,,,48,7,,,,,
0,control_change,,,,,0,0,8,,,,,7,7,120,,,
0,control_change,,,,,0,0,8,,,,,7,10,96,,,
0,midi_port,,,,,0,1,9,,,0,,,,,,,
0,track_name,,,,,0,1,9,,,,,,,,,,
0,program_change,,,,,0,0,9,,,,43,8,,,,,
0,midi_port,,,,,0,1,2,,,0,,,,,,,
0,track_name,,,,,0,1,2,,,,,,,,,,
0,program_change,,,,,0,0,2,,,,60,1,,,,,
0,control_change,,,,,0,0,2,,,,,1,7,120,,,
0,program_change,,,,,0,0,4,,,,0,3,,,,,
0,control_change,,,,,0,0,4,,,,,3,7,120,,,
0,control_change,,,,,0,0,4,,,,,3,10,32,,,
0,midi_port,,,,,0,1,5,,,0,,,,,,,
0,track_name,,,,,0,1,5,,,,,,,,,,
0,program_change,,,,,0,0,5,,,,48,4,,,,,
0,control_change,,,,,0,0,5,,,,,4,7,120,,,
0,control_change,,,,,0,0,5,,,,,4,10,0,,,
0,pitchwheel,,,,,0,0,5,,,,,4,,,0,,
0,control_change,,,,,0,0,9,,,,,8,7,120,,,
0,midi_port,,,,,0,1,6,,,0,,,,,,,
0,program_change,,,,,0,0,6,,,,48,5,,,,,
0,control_change,,,,,0,0,6,,,,,5,7,120,,,
0,control_change,,,,,0,0,6,,,,,5,10,127,,,
0,control_change,,,,,0,0,3,,,,,2,10,96,,,
0,control_change,,,,,0,0,3,,,,,2,7,120,,,
0,program_change,,,,,0,0,3,,,,0,2,,,,,
0,track_name,,,,,0,1,3,,,,,,,,,,
0,midi_port,,,,,0,1,3,,,0,,,,,,,
0,control_change,,,,,0,0,2,,,,,1,10,80,,,
0,track_name,,,,,0,1,6,,,,,,,,,,
0,control_change,,,,,0,0,9,,,,,8,10,64,,,
0,midi_port,,,,,0,1,4,,,0,,,,,,,
0,marker,,,,,0,1,0,,,,,,,,,,
0,key_signature,,,,,0,1,0,Eb,,,,,,,,,
0,set_tempo,,,,,0,1,0,,279070,,,,,,,,
0,marker,,,,,0,1,0,,,,,,,,,,
0,marker,,,,,0,1,0,,,,,,,,,,
0,marker,,,,,0,1,0,,,,,,,,,,
0,marker,,,,,0,1,0,,,,,,,,,,
2,pitchwheel,,,,,2,0,7,,,,,6,,,0,,
2,pitchwheel,,,,,2,0,3,,,,,2,,,0,,
4,pitchwheel,,,,,4,0,1,,,,,0,,,0,,
6,pitchwheel,,,,,6,0,9,,,,,8,,,0,,
6,pitchwheel,,,,,6,0,4,,,,,3,,,0,,
7,pitchwheel,,,,,7,0,2,,,,,1,,,0,,
8,pitchwheel,,,,,8,0,8,,,,,7,,,0,,
10,pitchwheel,,,,,10,0,6,,,,,5,,,0,,
384,pitchwheel,,,,,384,0,5,,,,,4,,,100,,
386,pitchwheel,,,,,384,0,7,,,,,6,,,0,,
386,pitchwheel,,,,,384,0,3,,,,,2,,,0,,
388,pitchwheel,,,,,384,0,1,,,,,0,,,100,,
390,pitchwheel,,,,,384,0,4,,,,,3,,,100,,
390,pitchwheel,,,,,384,0,9,,,,,8,,,-100,,
391,pitchwheel,,,,,384,0,2,,,,,1,,,-100,,
392,pitchwheel,,,,,384,0,8,,,,,7,,,100,,
394,pitchwheel,,,,,384,0,6,,,,,5,,,-100,,
484,control_change,,,,,100,0,5,,,,,4,91,64,,,
486,control_change,,,,,100,0,3,,,,,2,91,64,,,
486,control_change,,,,,100,0,7,,,,,6,91,42,,,
488,control_change,,,,,100,0,1,,,,,0,91,73,,,
490,control_change,,,,,100,0,4,,,,,3,91,96,,,
490,control_change,,,,,100,0,9,,,,,8,91,112,,,
491,control_change,,,,,100,0,2,,,,,1,91,106,,,
492,control_change,,,,,100,0,8,,,,,7,91,68,,,
494,control_change,,,,,100,0,6,,,,,5,91,64,,,
534,control_change,,,,,50,0,5,,,,,4,93,8,,,
536,control_change,,,,,50,0,7,,,,,6,93,6,,,
536,control_change,,,,,50,0,3,,,,,2,93,2,,,
538,control_change,,,,,50,0,1,,,,,0,93,8,,,
540,control_change,,,,,50,0,4,,,,,3,93,2,,,
540,control_change,,,,,50,0,9,,,,,8,93,64,,,
541,control_change,,,,,50,0,2,,,,,1,93,16,,,
542,control_change,,,,,50,0,8,,,,,7,93,6,,,
544,control_change,,,,,50,0,6,,,,,5,93,8,,,
576,note_on,,,,,42,0,5,,,,,4,,,,70,45
624,note_on,,,,,48,0,5,,,,,4,,,,70,0
768,note_on,,,,,144,0,5,,,,,4,,,,75,45
816,note_on,,,,,48,0,5,,,,,4,,,,75,0
960,note_on,,,,,144,0,5,,,,,4,,,,70,45
1008,note_on,,,,,48,0,5,,,,,4,,,,70,0
1152,note_on,,,,,144,0,5,,,,,4,,,,72,45
1162,note_on,,,,,618,0,6,,,,,5,,,,63,37
1200,note_on,,,,,48,0,5,,,,,4,,,,72,0
1344,note_on,,,,,144,0,5,,,,,4,,,,67,45
1392,note_on,,,,,48,0,5,,,,,4,,,,67,0
1536,note_on,,,,,144,0,5,,,,,4,,,,68,45
1536,set_tempo,,,,,1536,1,0,,266667,,,,,,,,
1584,note_on,,,,,48,0,5,,,,,4,,,,68,0
1728,note_on,,,,,144,0,5,,,,,4,,,,65,45
1776,note_on,,,,,48,0,5,,,,,4,,,,65,0
1920,note_on,,,,,144,0,5,,,,,4,,,,58,45
1930,note_on,,,,,0,0,6,,,,,5,,,,62,37
1930,note_on,,,,,768,0,6,,,,,5,,,,63,0
1968,note_on,,,,,48,0,5,,,,,4,,,,58,0
2112,note_on,,,,,144,0,5,,,,,4,,,,70,45
2160,note_on,,,,,48,0,5,,,,,4,,,,70,0
2266,note_on,,,,,336,0,6,,,,,5,,,,62,0
2304,note_on,,,,,144,0,5,,,,,4,,,,67,45
2314,note_on,,,,,48,0,6,,,,,5,,,,63,37
2352,note_on,,,,,48,0,5,,,,,4,,,,67,0
2496,note_on,,,,,144,0,5,,,,,4,,,,63,45
2544,note_on,,,,,48,0,5,,,,,4,,,,63,0
2650,note_on,,,,,336,0,6,,,,,5,,,,63,0
2688,note_on,,,,,144,0,5,,,,,4,,,,56,45
2698,note_on,,,,,48,0,6,,,,,5,,,,60,37
2736,note_on,,,,,48,0,5,,,,,4,,,,56,0
2858,note_on,,,,,160,0,6,,,,,5,,,,60,0
2880,note_on,,,,,144,0,5,,,,,4,,,,72,45
2890,note_on,,,,,32,0,6,,,,,5,,,,56,37
2928,note_on,,,,,48,0,5,,,,,4,,,,72,0
3050,note_on,,,,,160,0,6,,,,,5,,,,56,0
3072,note_on,,,,,144,0,5,,,,,4,,,,63,45
3072,set_tempo,,,,,1536,1,0,,292683,,,,,,,,
3264,note_on,,,,,192,0,5,,,,,4,,,,63,0
3264,note_on,,,,,0,0,5,,,,,4,,,,62,45
3274,note_on,,,,,224,0,6,,,,,5,,,,58,37
3424,note_on,,,,,160,0,5,,,,,4,,,,62,0
3466,note_on,,,,,0,0,6,,,,,5,,,,56,37
3466,note_on,,,,,192,0,6,,,,,5,,,,58,0
3648,note_on,,,,,224,0,5,,,,,4,,,,63,60
3648,set_tempo,,,,,576,1,0,,266667,,,,,,,,
3658,note_on,,,,,0,0,6,,,,,5,,,,55,37
3658,note_on,,,,,192,0,6,,,,,5,,,,56,0
3696,note_on,,,,,48,0,5,,,,,4,,,,63,0
3818,note_on,,,,,160,0,6,,,,,5,,,,55,0
3840,note_on,,,,,144,0,5,,,,,4,,,,60,60
3850,note_on,,,,,32,0,6,,,,,5,,,,56,45
3888,note_on,,,,,48,0,5,,,,,4,,,,60,0
3993,set_tempo,,,,,345,1,0,,265487,,,,,,,,
4032,note_on,,,,,144,0,5,,,,,4,,,,65,60
4080,note_on,,,,,48,0,5,,,,,4,,,,65,0
4147,set_tempo,,,,,154,1,0,,264317,,,,,,,,
4186,note_on,,,,,336,0,6,,,,,5,,,,56,0
4224,note_on,,,,,144,0,5,,,,,4,,,,62,60
4234,note_on,,,,,48,0,6,,,,,5,,,,58,45
4272,note_on,,,,,48,0,5,,,,,4,,,,62,0
4300,set_tempo,,,,,153,1,0,,263158,,,,,,,,
4416,note_on,,,,,144,0,5,,,,,4,,,,67,60
4454,set_tempo,,,,,154,1,0,,262009,,,,,,,,
4464,note_on,,,,,48,0,5,,,,,4,,,,67,0
4570,note_on,,,,,336,0,6,,,,,5,,,,58,0
4608,set_tempo,,,,,154,1,0,,260870,,,,,,,,
4608,note_on,,,,,144,0,5,,,,,4,,,,63,60
4618,note_on,,,,,48,0,6,,,,,5,,,,60,45
4656,note_on,,,,,48,0,5,,,,,4,,,,63,0
4761,set_tempo,,,,,153,1,0,,259740,,,,,,,,
4800,note_on,,,,,144,0,5,,,,,4,,,,68,60
4848,note_on,,,,,48,0,5,,,,,4,,,,68,0
4915,set_tempo,,,,,154,1,0,,258621,,,,,,,,
4954,note_on,,,,,336,0,6,,,,,5,,,,60,0
4992,note_on,,,,,144,0,5,,,,,4,,,,65,60
5002,note_on,,,,,48,0,6,,,,,5,,,,62,45
5040,note_on,,,,,48,0,5,,,,,4,,,,65,0
5068,set_tempo,,,,,153,1,0,,257511,,,,,,,,
5184,note_on,,,,,144,0,5,,,,,4,,,,70,60
5222,set_tempo,,,,,154,1,0,,256410,,,,,,,,
5232,note_on,,,,,48,0,5,,,,,4,,,,70,0
5338,note_on,,,,,336,0,6,,,,,5,,,,62,0
5376,note_on,,,,,144,0,5,,,,,4,,,,67,60
5376,set_tempo,,,,,154,1,0,,255319,,,,,,,,
5386,note_on,,,,,48,0,6,,,,,5,,,,63,60
5424,note_on,,,,,48,0,5,,,,,4,,,,67,0
5568,note_on,,,,,144,0,5,,,,,4,,,,72,75
5760,note_on,,,,,0,0,5,,,,,4,,,,70,75
5760,note_on,,,,,192,0,5,,,,,4,,,,72,0
5770,note_on,,,,,0,0,6,,,,,5,,,,65,60
5770,note_on,,,,,384,0,6,,,,,5,,,,63,0
5952,note_on,,,,,192,0,5,,,,,4,,,,70,0
5952,note_on,,,,,0,0,5,,,,,4,,,,69,75
6106,note_on,,,,,336,0,6,,,,,5,,,,65,0
6112,note_on,,,,,160,0,5,,,,,4,,,,69,0
6144,note_on,,,,,32,0,5,,,,,4,,,,69,75
6144,set_tempo,,,,,768,1,0,,292683,,,,,,,,
6336,note_on,,,,,0,0,5,,,,,4,,,,70,75
6336,note_on,,,,,192,0,5,,,,,4,,,,69,0
6338,note_on,,,,,5802,0,7,,,,,6,,,,58,108
6346,note_on,,,,,240,0,6,,,,,5,,,,58,108
6496,note_on,,,,,160,0,5,,,,,4,,,,70,0
6498,note_on,,,,,160,0,7,,,,,6,,,,58,0
6506,note_on,,,,,160,0,6,,,,,5,,,,58,0
6528,set_tempo,,,,,384,1,0,,266667,,,,,,,,
6530,note_on,,,,,32,0,7,,,,,6,,,,60,108
6538,note_on,,,,,32,0,6,,,,,5,,,,70,108
6690,note_on,,,,,160,0,7,,,,,6,,,,60,0
6720,note_on,,,,,224,0,5,,,,,4,,,,72,108
6722,note_on,,,,,32,0,7,,,,,6,,,,62,108
6724,note_on,,,,,6186,0,1,,,,,0,,,,70,108
6730,note_on,,,,,0,0,6,,,,,5,,,,68,108
6730,note_on,,,,,192,0,6,,,,,5,,,,70,0
6768,note_on,,,,,48,0,5,,,,,4,,,,72,0
6768,note_on,,,,,0,0,5,,,,,4,,,,70,108
6772,note_on,,,,,48,0,1,,,,,0,,,,70,0
6816,note_on,,,,,0,0,5,,,,,4,,,,69,108
6816,note_on,,,,,48,0,5,,,,,4,,,,70,0
6864,note_on,,,,,0,0,5,,,,,4,,,,70,108
6864,note_on,,,,,48,0,5,,,,,4,,,,69,0
6882,note_on,,,,,160,0,7,,,,,6,,,,62,0
6890,note_on,,,,,160,0,6,,,,,5,,,,68,0
6910,note_on,,,,,46,0,5,,,,,4,,,,70,0
6912,note_on,,,,,2,0,5,,,,,4,,,,75,108
6914,note_on,,,,,32,0,7,,,,,6,,,,63,108
6916,note_on,,,,,144,0,1,,,,,0,,,,75,108
6919,note_on,,,,,6378,0,2,,,,,1,,,,63,108
6919,note_on,,,,,0,0,2,,,,,1,,,,67,108
6922,note_on,,,,,32,0,6,,,,,5,,,,67,108
6960,note_on,,,,,48,0,5,,,,,4,,,,75,0
6964,note_on,,,,,48,0,1,,,,,0,,,,75,0
7104,note_on,,,,,144,0,5,,,,,4,,,,70,108
7108,note_on,,,,,144,0,1,,,,,0,,,,82,108
7152,note_on,,,,,48,0,5,,,,,4,,,,70,0
7156,note_on,,,,,48,0,1,,,,,0,,,,82,0
7296,note_on,,,,,144,0,5,,,,,4,,,,72,108
7300,note_on,,,,,144,0,1,,,,,0,,,,84,108
7302,note_on,,,,,6762,0,9,,,,,8,,,,39,108
7304,note_on,,,,,6762,0,8,,,,,7,,,,51,108
7344,note_on,,,,,48,0,5,,,,,4,,,,72,0
7348,note_on,,,,,48,0,1,,,,,0,,,,84,0
7488,note_on,,,,,144,0,5,,,,,4,,,,67,108
7492,note_on,,,,,144,0,1,,,,,0,,,,79,108
7536,note_on,,,,,48,0,5,,,,,4,,,,67,0
7540,note_on,,,,,48,0,1,,,,,0,,,,79,0
7634,note_on,,,,,720,0,7,,,,,6,,,,63,0
7639,note_on,,,,,0,0,2,,,,,1,,,,63,0
7639,note_on,,,,,720,0,2,,,,,1,,,,67,0
7642,note_on,,,,,720,0,6,,,,,5,,,,67,0
7680,note_on,,,,,144,0,5,,,,,4,,,,68,108
7682,note_on,,,,,48,0,7,,,,,6,,,,60,108
7684,note_on,,,,,144,0,1,,,,,0,,,,80,108
7687,note_on,,,,,0,0,2,,,,,1,,,,65,108
7687,note_on,,,,,48,0,2,,,,,1,,,,63,108
7690,note_on,,,,,48,0,6,,,,,5,,,,65,108
7728,note_on,,,,,48,0,5,,,,,4,,,,68,0
7732,note_on,,,,,48,0,1,,,,,0,,,,80,0
7872,note_on,,,,,144,0,5,,,,,4,,,,65,108
7876,note_on,,,,,144,0,1,,,,,0,,,,77,108
7920,note_on,,,,,48,0,5,,,,,4,,,,65,0
7924,note_on,,,,,48,0,1,,,,,0,,,,77,0
8018,note_on,,,,,336,0,7,,,,,6,,,,60,0
8022,note_on,,,,,720,0,9,,,,,8,,,,39,0
8023,note_on,,,,,336,0,2,,,,,1,,,,63,0
8024,note_on,,,,,720,0,8,,,,,7,,,,51,0
8064,note_on,,,,,144,0,5,,,,,4,,,,58,108
8066,note_on,,,,,48,0,7,,,,,6,,,,58,108
8068,note_on,,,,,144,0,1,,,,,0,,,,70,108
8070,note_on,,,,,48,0,9,,,,,8,,,,38,108
8071,note_on,,,,,48,0,2,,,,,1,,,,58,108
8072,note_on,,,,,48,0,8,,,,,7,,,,50,108
8112,note_on,,,,,48,0,5,,,,,4,,,,58,0
8116,note_on,,,,,48,0,1,,,,,0,,,,70,0
8256,note_on,,,,,144,0,5,,,,,4,,,,70,108
8260,note_on,,,,,144,0,1,,,,,0,,,,82,108
8304,note_on,,,,,48,0,5,,,,,4,,,,70,0
8308,note_on,,,,,48,0,1,,,,,0,,,,82,0
8406,note_on,,,,,336,0,9,,,,,8,,,,38,0
8407,note_on,,,,,0,0,2,,,,,1,,,,65,0
8407,note_on,,,,,336,0,2,,,,,1,,,,58,0
8408,note_on,,,,,336,0,8,,,,,7,,,,50,0
8410,note_on,,,,,720,0,6,,,,,5,,,,65,0
8448,note_on,,,,,144,0,5,,,,,4,,,,67,108
8452,note_on,,,,,144,0,1,,,,,0,,,,79,108
8454,note_on,,,,,48,0,9,,,,,8,,,,37,108
8455,note_on,,,,,48,0,2,,,,,1,,,,51,108
8455,note_on,,,,,0,0,2,,,,,1,,,,63,108
8456,note_on,,,,,48,0,8,,,,,7,,,,49,108
8458,note_on,,,,,48,0,6,,,,,5,,,,63,108
8496,note_on,,,,,48,0,5,,,,,4,,,,67,0
8500,note_on,,,,,48,0,1,,,,,0,,,,79,0
8610,note_on,,,,,544,0,7,,,,,6,,,,58,0
8618,note_on,,,,,160,0,6,,,,,5,,,,63,0
8640,note_on,,,,,144,0,5,,,,,4,,,,63,108
8642,note_on,,,,,32,0,7,,,,,6,,,,55,108
8644,note_on,,,,,144,0,1,,,,,0,,,,75,108
8650,note_on,,,,,32,0,6,,,,,5,,,,58,108
8688,note_on,,,,,48,0,5,,,,,4,,,,63,0
8692,note_on,,,,,48,0,1,,,,,0,,,,75,0
8790,note_on,,,,,336,0,9,,,,,8,,,,37,0
8792,note_on,,,,,336,0,8,,,,,7,,,,49,0
8832,note_on,,,,,144,0,5,,,,,4,,,,56,108
8834,note_on,,,,,0,0,7,,,,,6,,,,51,108
8834,note_on,,,,,192,0,7,,,,,6,,,,55,0
8836,note_on,,,,,144,0,1,,,,,0,,,,68,108
8838,note_on,,,,,48,0,9,,,,,8,,,,36,108
8840,note_on,,,,,48,0,8,,,,,7,,,,48,108
8842,note_on,,,,,0,0,6,,,,,5,,,,60,108
8842,note_on,,,,,192,0,6,,,,,5,,,,58,0
8880,note_on,,,,,48,0,5,,,,,4,,,,56,0
8884,note_on,,,,,48,0,1,,,,,0,,,,68,0
8994,note_on,,,,,160,0,7,,,,,6,,,,51,0
8998,note_on,,,,,160,0,9,,,,,8,,,,36,0
9000,note_on,,,,,160,0,8,,,,,7,,,,48,0
9002,note_on,,,,,160,0,6,,,,,5,,,,60,0
9024,note_on,,,,,144,0,5,,,,,4,,,,72,108
9026,note_on,,,,,32,0,7,,,,,6,,,,56,108
9028,note_on,,,,,144,0,1,,,,,0,,,,84,108
9030,note_on,,,,,32,0,9,,,,,8,,,,32,108
9032,note_on,,,,,32,0,8,,,,,7,,,,44,108
9034,note_on,,,,,32,0,6,,,,,5,,,,63,108
9072,note_on,,,,,48,0,5,,,,,4,,,,72,0
9076,note_on,,,,,48,0,1,,,,,0,,,,84,0
9175,note_on,,,,,720,0,2,,,,,1,,,,63,0
9175,note_on,,,,,0,0,2,,,,,1,,,,51,0
9186,note_on,,,,,160,0,7,,,,,6,,,,56,0
9190,note_on,,,,,160,0,9,,,,,8,,,,32,0
9192,note_on,,,,,160,0,8,,,,,7,,,,44,0
9194,note_on,,,,,160,0,6,,,,,5,,,,63,0
9216,set_tempo,,,,,2688,1,0,,292683,,,,,,,,
9216,note_on,,,,,144,0,5,,,,,4,,,,63,108
9218,note_on,,,,,32,0,7,,,,,6,,,,55,108
9220,note_on,,,,,144,0,1,,,,,0,,,,75,108
9223,note_on,,,,,48,0,2,,,,,1,,,,46,108
9223,note_on,,,,,0,0,2,,,,,1,,,,58,108
9226,note_on,,,,,32,0,6,,,,,5,,,,58,108
9408,note_on,,,,,192,0,5,,,,,4,,,,63,0
9408,note_on,,,,,0,0,5,,,,,4,,,,62,108
9410,note_on,,,,,192,0,7,,,,,6,,,,55,0
9410,note_on,,,,,0,0,7,,,,,6,,,,53,108
9412,note_on,,,,,0,0,1,,,,,0,,,,74,108
9412,note_on,,,,,192,0,1,,,,,0,,,,75,0
9414,note_on,,,,,224,0,9,,,,,8,,,,34,108
9416,note_on,,,,,224,0,8,,,,,7,,,,46,108
9462,note_on,,,,,48,0,9,,,,,8,,,,34,0
9464,note_on,,,,,48,0,8,,,,,7,,,,46,0
9559,note_on,,,,,336,0,2,,,,,1,,,,58,0
9559,note_on,,,,,0,0,2,,,,,1,,,,46,0
9562,note_on,,,,,336,0,6,,,,,5,,,,58,0
9568,note_on,,,,,160,0,5,,,,,4,,,,62,0
9570,note_on,,,,,160,0,7,,,,,6,,,,53,0
9572,note_on,,,,,160,0,1,,,,,0,,,,74,0
9600,set_tempo,,,,,384,1,0,,266667,,,,,,,,
9606,note_on,,,,,144,0,9,,,,,8,,,,32,108
9608,note_on,,,,,144,0,8,,,,,7,,,,44,108
9792,note_on,,,,,224,0,5,,,,,4,,,,75,108
9794,note_on,,,,,224,0,7,,,,,6,,,,58,108
9796,note_on,,,,,224,0,1,,,,,0,,,,75,108
9798,note_on,,,,,0,0,9,,,,,8,,,,31,108
9798,note_on,,,,,192,0,9,,,,,8,,,,32,0
9799,note_on,,,,,0,0,2,,,,,1,,,,63,108
9799,note_on,,,,,240,0,2,,,,,1,,,,51,108
9800,note_on,,,,,0,0,8,,,,,7,,,,43,108
9800,note_on,,,,,192,0,8,,,,,7,,,,44,0
9802,note_on,,,,,240,0,6,,,,,5,,,,63,108
9952,note_on,,,,,160,0,5,,,,,4,,,,75,0
9954,note_on,,,,,160,0,7,,,,,6,,,,58,0
9956,note_on,,,,,160,0,1,,,,,0,,,,75,0
9958,note_on,,,,,160,0,9,,,,,8,,,,31,0
9959,note_on,,,,,0,0,2,,,,,1,,,,51,0
9959,note_on,,,,,160,0,2,,,,,1,,,,63,0
9960,note_on,,,,,160,0,8,,,,,7,,,,43,0
9962,note_on,,,,,160,0,6,,,,,5,,,,63,0
9984,note_on,,,,,32,0,5,,,,,4,,,,75,108
9986,note_on,,,,,32,0,7,,,,,6,,,,60,108
9988,note_on,,,,,0,0,1,,,,,0,,,,77,108
9988,note_on,,,,,32,0,1,,,,,0,,,,75,108
9990,note_on,,,,,32,0,9,,,,,8,,,,32,108
9991,note_on,,,,,0,0,2,,,,,1,,,,63,108
9991,note_on,,,,,32,0,2,,,,,1,,,,51,108
9992,note_on,,,,,32,0,8,,,,,7,,,,44,108
9994,note_on,,,,,32,0,6,,,,,5,,,,63,108
10080,note_on,,,,,0,0,5,,,,,4,,,,65,108
10080,note_on,,,,,96,0,5,,,,,4,,,,75,0
10088,note_on,,,,,94,0,6,,,,,5,,,,63,0
10090,note_on,,,,,2,0,6,,,,,5,,,,63,108
10150,note_on,,,,,160,0,9,,,,,8,,,,32,0
10152,note_on,,,,,160,0,8,,,,,7,,,,44,0
10174,note_on,,,,,94,0,5,,,,,4,,,,65,0
10176,note_on,,,,,2,0,5,,,,,4,,,,65,108
10182,note_on,,,,,32,0,9,,,,,8,,,,44,108
10184,note_on,,,,,32,0,8,,,,,7,,,,56,108
10184,note_on,,,,,94,0,6,,,,,5,,,,63,0
10186,note_on,,,,,2,0,6,,,,,5,,,,63,108
10208,note_on,,,,,32,0,5,,,,,4,,,,65,0
10272,note_on,,,,,64,0,5,,,,,4,,,,65,108
10280,note_on,,,,,94,0,6,,,,,5,,,,63,0
10282,note_on,,,,,2,0,6,,,,,5,,,,63,108
10304,note_on,,,,,32,0,5,,,,,4,,,,65,0
10322,note_on,,,,,336,0,7,,,,,6,,,,60,0
10342,note_on,,,,,160,0,9,,,,,8,,,,44,0
10344,note_on,,,,,160,0,8,,,,,7,,,,56,0
10368,note_on,,,,,64,0,5,,,,,4,,,,65,108
10370,note_on,,,,,48,0,7,,,,,6,,,,61,108
10372,note_on,,,,,384,0,1,,,,,0,,,,77,0
10372,note_on,,,,,0,0,1,,,,,0,,,,79,108
10374,note_on,,,,,32,0,9,,,,,8,,,,46,108
10376,note_on,,,,,94,0,6,,,,,5,,,,63,0
10376,note_on,,,,,32,0,8,,,,,7,,,,58,108
10378,note_on,,,,,2,0,6,,,,,5,,,,63,108
10464,note_on,,,,,0,0,5,,,,,4,,,,67,108
10464,note_on,,,,,96,0,5,,,,,4,,,,65,0
10472,note_on,,,,,94,0,6,,,,,5,,,,63,0
10474,note_on,,,,,2,0,6,,,,,5,,,,63,108
10534,note_on,,,,,160,0,9,,,,,8,,,,46,0
10536,note_on,,,,,160,0,8,,,,,7,,,,58,0
10558,note_on,,,,,94,0,5,,,,,4,,,,67,0
10560,note_on,,,,,2,0,5,,,,,4,,,,67,108
10566,note_on,,,,,32,0,9,,,,,8,,,,34,108
10568,note_on,,,,,32,0,8,,,,,7,,,,46,108
10568,note_on,,,,,94,0,6,,,,,5,,,,63,0
10570,note_on,,,,,2,0,6,,,,,5,,,,63,108
10592,note_on,,,,,32,0,5,,,,,4,,,,67,0
10656,note_on,,,,,64,0,5,,,,,4,,,,67,108
10664,note_on,,,,,94,0,6,,,,,5,,,,63,0
10666,note_on,,,,,2,0,6,,,,,5,,,,63,108
10688,note_on,,,,,32,0,5,,,,,4,,,,67,0
10706,note_on,,,,,336,0,7,,,,,6,,,,61,0
10708,note_on,,,,,336,0,1,,,,,0,,,,79,0
10726,note_on,,,,,160,0,9,,,,,8,,,,34,0
10728,note_on,,,,,160,0,8,,,,,7,,,,46,0
10752,note_on,,,,,64,0,5,,,,,4,,,,67,108
10754,note_on,,,,,48,0,7,,,,,6,,,,60,108
10756,note_on,,,,,48,0,1,,,,,0,,,,80,108
10758,note_on,,,,,32,0,9,,,,,8,,,,36,108
10760,note_on,,,,,32,0,8,,,,,7,,,,48,108
10760,note_on,,,,,94,0,6,,,,,5,,,,63,0
10762,note_on,,,,,2,0,6,,,,,5,,,,63,108
10848,note_on,,,,,96,0,5,,,,,4,,,,67,0
10848,note_on,,,,,0,0,5,,,,,4,,,,68,108
10856,note_on,,,,,94,0,6,,,,,5,,,,63,0
10858,note_on,,,,,2,0,6,,,,,5,,,,63,108
10918,note_on,,,,,160,0,9,,,,,8,,,,36,0
10920,note_on,,,,,160,0,8,,,,,7,,,,48,0
10942,note_on,,,,,94,0,5,,,,,4,,,,68,0
10944,note_on,,,,,2,0,5,,,,,4,,,,68,108
10950,note_on,,,,,32,0,9,,,,,8,,,,48,108
10952,note_on,,,,,94,0,6,,,,,5,,,,63,0
10952,note_on,,,,,32,0,8,,,,,7,,,,60,108
10954,note_on,,,,,2,0,6,,,,,5,,,,63,108
10976,note_on,,,,,32,0,5,,,,,4,,,,68,0
11040,note_on,,,,,64,0,5,,,,,4,,,,68,108
11048,note_on,,,,,94,0,6,,,,,5,,,,63,0
11050,note_on,,,,,2,0,6,,,,,5,,,,63,108
11072,note_on,,,,,32,0,5,,,,,4,,,,68,0
11090,note_on,,,,,336,0,7,,,,,6,,,,60,0
11110,note_on,,,,,160,0,9,,,,,8,,,,48,0
11112,note_on,,,,,160,0,8,,,,,7,,,,60,0
11136,note_on,,,,,64,0,5,,,,,4,,,,68,108
11138,note_on,,,,,48,0,7,,,,,6,,,,63,108
11140,note_on,,,,,384,0,1,,,,,0,,,,80,0
11140,note_on,,,,,0,0,1,,,,,0,,,,75,0
11140,note_on,,,,,0,0,1,,,,,0,,,,78,108
11140,note_on,,,,,0,0,1,,,,,0,,,,81,108
11142,note_on,,,,,32,0,9,,,,,8,,,,47,108
11144,note_on,,,,,94,0,6,,,,,5,,,,63,0
11144,note_on,,,,,32,0,8,,,,,7,,,,59,108
11146,note_on,,,,,2,0,6,,,,,5,,,,63,108
11232,note_on,,,,,0,0,5,,,,,4,,,,69,108
11232,note_on,,,,,96,0,5,,,,,4,,,,68,0
11242,note_on,,,,,96,0,6,,,,,5,,,,63,0
11242,note_on,,,,,0,0,6,,,,,5,,,,66,108
11302,note_on,,,,,160,0,9,,,,,8,,,,47,0
11304,note_on,,,,,160,0,8,,,,,7,,,,59,0
11326,note_on,,,,,94,0,5,,,,,4,,,,69,0
11328,note_on,,,,,2,0,5,,,,,4,,,,69,108
11334,note_on,,,,,32,0,9,,,,,8,,,,35,108
11336,note_on,,,,,94,0,6,,,,,5,,,,66,0
11336,note_on,,,,,32,0,8,,,,,7,,,,47,108
11338,note_on,,,,,2,0,6,,,,,5,,,,66,108
11360,note_on,,,,,32,0,5,,,,,4,,,,69,0
11370,note_on,,,,,32,0,6,,,,,5,,,,66,0
11424,note_on,,,,,64,0,5,,,,,4,,,,69,108
11434,note_on,,,,,64,0,6,,,,,5,,,,66,108
11456,note_on,,,,,32,0,5,,,,,4,,,,69,0
11466,note_on,,,,,32,0,6,,,,,5,,,,66,0
11474,note_on,,,,,336,0,7,,,,,6,,,,63,0
11476,note_on,,,,,0,0,1,,,,,0,,,,78,0
11476,note_on,,,,,336,0,1,,,,,0,,,,81,0
11479,note_on,,,,,1488,0,2,,,,,1,,,,63,0
11479,note_on,,,,,0,0,2,,,,,1,,,,51,0
11494,note_on,,,,,160,0,9,,,,,8,,,,35,0
11496,note_on,,,,,160,0,8,,,,,7,,,,47,0
11520,note_on,,,,,64,0,5,,,,,4,,,,70,108
11522,note_on,,,,,48,0,7,,,,,6,,,,63,108
11524,note_on,,,,,0,0,1,,,,,0,,,,82,108
11524,note_on,,,,,48,0,1,,,,,0,,,,79,108
11526,note_on,,,,,32,0,9,,,,,8,,,,34,108
11527,note_on,,,,,48,0,2,,,,,1,,,,58,108
11528,note_on,,,,,32,0,8,,,,,7,,,,46,108
11530,note_on,,,,,64,0,6,,,,,5,,,,67,108
11614,note_on,,,,,94,0,5,,,,,4,,,,70,0
11616,note_on,,,,,2,0,5,,,,,4,,,,75,108
11624,note_on,,,,,94,0,6,,,,,5,,,,67,0
11626,note_on,,,,,2,0,6,,,,,5,,,,70,108
11682,note_on,,,,,160,0,7,,,,,6,,,,63,0
11686,note_on,,,,,160,0,9,,,,,8,,,,34,0
11687,note_on,,,,,160,0,2,,,,,1,,,,58,0
11688,note_on,,,,,160,0,8,,,,,7,,,,46,0
11710,note_on,,,,,94,0,5,,,,,4,,,,75,0
11712,note_on,,,,,2,0,5,,,,,4,,,,79,108
11714,note_on,,,,,32,0,7,,,,,6,,,,58,108
11718,note_on,,,,,32,0,9,,,,,8,,,,34,108
11719,note_on,,,,,32,0,2,,,,,1,,,,58,108
11720,note_on,,,,,32,0,8,,,,,7,,,,46,108
11720,note_on,,,,,94,0,6,,,,,5,,,,70,0
11722,note_on,,,,,2,0,6,,,,,5,,,,75,108
11806,note_on,,,,,94,0,5,,,,,4,,,,79,0
11808,note_on,,,,,2,0,5,,,,,4,,,,82,108
11816,note_on,,,,,94,0,6,,,,,5,,,,75,0
11818,note_on,,,,,2,0,6,,,,,5,,,,79,108
11878,note_on,,,,,70,0,5,,,,,4,,,,82,0
11878,note_on,,,,,160,0,9,,,,,8,,,,34,0
11879,note_on,,,,,160,0,2,,,,,1,,,,58,0
11880,note_on,,,,,160,0,8,,,,,7,,,,46,0
11880,note_on,,,,,2,0,5,,,,,4,,,,82,108
11882,note_on,,,,,358,0,1,,,,,0,,,,82,0
11882,note_on,,,,,0,0,1,,,,,0,,,,79,0
11884,note_on,,,,,2,0,1,,,,,0,,,,79,108
11884,note_on,,,,,0,0,1,,,,,0,,,,82,108
11888,note_on,,,,,70,0,6,,,,,5,,,,79,0
11890,note_on,,,,,2,0,6,,,,,5,,,,79,108
11904,note_on,,,,,24,0,5,,,,,4,,,,82,0
11904,note_on,,,,,0,0,5,,,,,4,,,,80,108
11908,note_on,,,,,0,0,1,,,,,0,,,,79,0
11908,note_on,,,,,0,0,1,,,,,0,,,,80,108
11908,note_on,,,,,0,0,1,,,,,0,,,,77,108
11908,note_on,,,,,24,0,1,,,,,0,,,,82,0
11910,note_on,,,,,32,0,9,,,,,8,,,,34,108
11911,note_on,,,,,32,0,2,,,,,1,,,,58,108
11912,note_on,,,,,32,0,8,,,,,7,,,,46,108
11914,note_on,,,,,24,0,6,,,,,5,,,,79,0
11914,note_on,,,,,0,0,6,,,,,5,,,,77,108
12050,note_on,,,,,336,0,7,,,,,6,,,,58,0
12064,note_on,,,,,160,0,5,,,,,4,,,,80,0
12068,note_on,,,,,0,0,1,,,,,0,,,,77,0
12068,note_on,,,,,160,0,1,,,,,0,,,,80,0
12070,note_on,,,,,160,0,9,,,,,8,,,,34,0
12071,note_on,,,,,160,0,2,,,,,1,,,,58,0
12072,note_on,,,,,160,0,8,,,,,7,,,,46,0
12074,note_on,,,,,160,0,6,,,,,5,,,,77,0
12096,note_on,,,,,32,0,5,,,,,4,,,,79,92
12098,note_on,,,,,48,0,7,,,,,6,,,,70,92
12100,note_on,,,,,0,0,1,,,,,0,,,,79,92
12100,note_on,,,,,32,0,1,,,,,0,,,,75,92
12102,note_on,,,,,32,0,9,,,,,8,,,,34,92
12103,note_on,,,,,32,0,2,,,,,1,,,,58,92
12104,note_on,,,,,32,0,8,,,,,7,,,,46,92
12106,note_on,,,,,32,0,6,,,,,5,,,,75,92
12192,note_on,,,,,96,0,5,,,,,4,,,,79,0
12192,note_on,,,,,0,0,5,,,,,4,,,,77,92
12194,note_on,,,,,0,0,7,,,,,6,,,,68,92
12194,note_on,,,,,96,0,7,,,,,6,,,,70,0
12196,note_on,,,,,0,0,1,,,,,0,,,,75,0
12196,note_on,,,,,96,0,1,,,,,0,,,,79,0
12196,note_on,,,,,0,0,1,,,,,0,,,,77,92
12196,note_on,,,,,0,0,1,,,,,0,,,,74,92
12202,note_on,,,,,0,0,6,,,,,5,,,,74,92
12202,note_on,,,,,96,0,6,,,,,5,,,,75,0
12262,note_on,,,,,160,0,9,,,,,8,,,,34,0
12263,note_on,,,,,160,0,2,,,,,1,,,,58,0
12264,note_on,,,,,160,0,8,,,,,7,,,,46,0
12286,note_on,,,,,94,0,5,,,,,4,,,,77,0
12288,note_on,,,,,2,0,5,,,,,4,,,,75,75
12288,note_on,,,,,94,0,7,,,,,6,,,,68,0
12290,note_on,,,,,0,0,1,,,,,0,,,,74,0
12290,note_on,,,,,94,0,1,,,,,0,,,,77,0
12290,note_on,,,,,2,0,7,,,,,6,,,,67,75
12292,note_on,,,,,2,0,1,,,,,0,,,,75,75
12294,note_on,,,,,32,0,9,,,,,8,,,,39,75
12295,note_on,,,,,0,0,2,,,,,1,,,,63,75
12295,note_on,,,,,32,0,2,,,,,1,,,,55,75
12296,note_on,,,,,32,0,8,,,,,7,,,,51,75
12296,note_on,,,,,94,0,6,,,,,5,,,,74,0
12298,note_on,,,,,2,0,6,,,,,5,,,,75,75
12384,note_on,,,,,94,0,7,,,,,6,,,,67,0
12386,note_on,,,,,2,0,7,,,,,6,,,,70,45
12480,note_on,,,,,94,0,7,,,,,6,,,,70,0
12482,note_on,,,,,2,0,7,,,,,6,,,,70,45
12576,note_on,,,,,94,0,7,,,,,6,,,,70,0
12578,note_on,,,,,2,0,7,,,,,6,,,,70,45
12624,note_on,,,,,336,0,5,,,,,4,,,,75,0
12628,note_on,,,,,336,0,1,,,,,0,,,,75,0
12630,note_on,,,,,336,0,9,,,,,8,,,,39,0
12631,note_on,,,,,0,0,2,,,,,1,,,,55,0
12631,note_on,,,,,336,0,2,,,,,1,,,,63,0
12632,note_on,,,,,336,0,8,,,,,7,,,,51,0
12634,note_on,,,,,336,0,6,,,,,5,,,,75,0
12672,note_on,,,,,94,0,7,,,,,6,,,,70,0
12672,set_tempo,,,,,3072,1,0,,272727,,,,,,,,
12674,note_on,,,,,2,0,7,,,,,6,,,,70,45
12768,note_on,,,,,94,0,7,,,,,6,,,,70,0
12770,note_on,,,,,2,0,7,,,,,6,,,,70,45
12864,note_on,,,,,94,0,7,,,,,6,,,,70,0
12864,note_on,,,,,240,0,5,,,,,4,,,,75,45
12866,note_on,,,,,2,0,7,,,,,6,,,,70,45
12874,note_on,,,,,240,0,6,,,,,5,,,,67,45
12960,note_on,,,,,94,0,7,,,,,6,,,,70,0
12962,note_on,,,,,2,0,7,,,,,6,,,,70,45
13024,note_on,,,,,160,0,5,,,,,4,,,,75,0
13034,note_on,,,,,160,0,6,,,,,5,,,,67,0
13056,note_on,,,,,94,0,7,,,,,6,,,,70,0
13056,note_on,,,,,32,0,5,,,,,4,,,,75,45
13058,note_on,,,,,2,0,7,,,,,6,,,,70,45
13066,note_on,,,,,32,0,6,,,,,5,,,,67,45
13152,note_on,,,,,94,0,7,,,,,6,,,,70,0
13154,note_on,,,,,2,0,7,,,,,6,,,,70,45
13248,note_on,,,,,94,0,7,,,,,6,,,,70,0
13250,note_on,,,,,2,0,7,,,,,6,,,,70,45
13344,note_on,,,,,0,0,5,,,,,4,,,,77,45
13344,note_on,,,,,94,0,7,,,,,6,,,,70,0
13344,note_on,,,,,288,0,5,,,,,4,,,,75,0
13346,note_on,,,,,2,0,7,,,,,6,,,,70,45
13354,note_on,,,,,0,0,6,,,,,5,,,,68,45
13354,note_on,,,,,288,0,6,,,,,5,,,,67,0
13392,note_on,,,,,0,0,5,,,,,4,,,,75,45
13392,note_on,,,,,48,0,5,,,,,4,,,,77,0
13402,note_on,,,,,0,0,6,,,,,5,,,,67,45
13402,note_on,,,,,48,0,6,,,,,5,,,,68,0
13440,note_on,,,,,94,0,7,,,,,6,,,,70,0
13440,note_on,,,,,0,0,5,,,,,4,,,,74,45
13440,note_on,,,,,48,0,5,,,,,4,,,,75,0
13442,note_on,,,,,2,0,7,,,,,6,,,,70,45
13450,note_on,,,,,48,0,6,,,,,5,,,,67,0
13450,note_on,,,,,0,0,6,,,,,5,,,,65,45
13536,note_on,,,,,94,0,7,,,,,6,,,,70,0
13538,note_on,,,,,2,0,7,,,,,6,,,,70,45
13600,note_on,,,,,160,0,5,,,,,4,,,,74,0
13610,note_on,,,,,160,0,6,,,,,5,,,,65,0
13632,note_on,,,,,32,0,5,,,,,4,,,,75,45
13632,note_on,,,,,94,0,7,,,,,6,,,,70,0
13634,note_on,,,,,2,0,7,,,,,6,,,,70,45
13642,note_on,,,,,32,0,6,,,,,5,,,,63,45
13728,note_on,,,,,94,0,7,,,,,6,,,,70,0
13730,note_on,,,,,2,0,7,,,,,6,,,,70,45
13792,note_on,,,,,160,0,5,,,,,4,,,,75,0
13802,note_on,,,,,160,0,6,,,,,5,,,,63,0
13824,note_on,,,,,94,0,7,,,,,6,,,,70,0
13824,note_on,,,,,32,0,5,,,,,4,,,,76,45
13826,note_on,,,,,2,0,7,,,,,6,,,,70,45
13830,note_on,,,,,1200,0,9,,,,,8,,,,46,45
13832,note_on,,,,,1200,0,8,,,,,7,,,,58,45
13834,note_on,,,,,32,0,6,,,,,5,,,,61,45
13920,note_on,,,,,94,0,7,,,,,6,,,,70,0
13922,note_on,,,,,2,0,7,,,,,6,,,,70,45
14016,note_on,,,,,94,0,7,,,,,6,,,,70,0
14016,note_on,,,,,192,0,5,,,,,4,,,,76,0
14016,note_on,,,,,0,0,5,,,,,4,,,,77,45
14018,note_on,,,,,2,0,7,,,,,6,,,,70,45
14026,note_on,,,,,192,0,6,,,,,5,,,,61,0
14026,note_on,,,,,0,0,6,,,,,5,,,,62,45
14112,note_on,,,,,94,0,7,,,,,6,,,,70,0
14114,note_on,,,,,2,0,7,,,,,6,,,,70,45
14166,note_on,,,,,336,0,9,,,,,8,,,,46,0
14168,note_on,,,,,336,0,8,,,,,7,,,,58,0
14176,note_on,,,,,160,0,5,,,,,4,,,,77,0
14186,note_on,,,,,160,0,6,,,,,5,,,,62,0
14208,note_on,,,,,94,0,7,,,,,6,,,,70,0
14208,note_on,,,,,32,0,5,,,,,4,,,,77,45
14210,note_on,,,,,2,0,7,,,,,6,,,,70,45
14218,note_on,,,,,32,0,6,,,,,5,,,,62,45
14256,note_on,,,,,48,0,5,,,,,4,,,,77,0
14266,note_on,,,,,48,0,6,,,,,5,,,,62,0
14304,note_on,,,,,94,0,7,,,,,6,,,,70,0
14306,note_on,,,,,2,0,7,,,,,6,,,,70,45
14400,note_on,,,,,94,0,7,,,,,6,,,,70,0
14400,note_on,,,,,144,0,5,,,,,4,,,,77,45
14402,note_on,,,,,2,0,7,,,,,6,,,,70,45
14410,note_on,,,,,144,0,6,,,,,5,,,,62,45
14448,note_on,,,,,48,0,5,,,,,4,,,,77,0
14458,note_on,,,,,48,0,6,,,,,5,,,,62,0
14496,note_on,,,,,94,0,7,,,,,6,,,,70,0
14498,note_on,,,,,2,0,7,,,,,6,,,,70,45
14592,note_on,,,,,94,0,7,,,,,6,,,,70,0
14592,note_on,,,,,144,0,5,,,,,4,,,,77,45
14594,note_on,,,,,2,0,7,,,,,6,,,,70,45
14602,note_on,,,,,144,0,6,,,,,5,,,,62,45
14688,note_on,,,,,94,0,7,,,,,6,,,,70,0
14690,note_on,,,,,2,0,7,,,,,6,,,,70,45
14784,note_on,,,,,94,0,7,,,,,6,,,,70,0
14786,note_on,,,,,2,0,7,,,,,6,,,,70,45
14880,note_on,,,,,94,0,7,,,,,6,,,,70,0
14880,note_on,,,,,288,0,5,,,,,4,,,,77,0
14880,note_on,,,,,0,0,5,,,,,4,,,,79,45
14882,note_on,,,,,2,0,7,,,,,6,,,,70,45
14890,note_on,,,,,288,0,6,,,,,5,,,,62,0
14890,note_on,,,,,0,0,6,,,,,5,,,,63,45
14928,note_on,,,,,0,0,5,,,,,4,,,,77,45
14928,note_on,,,,,48,0,5,,,,,4,,,,79,0
14938,note_on,,,,,48,0,6,,,,,5,,,,63,0
14938,note_on,,,,,0,0,6,,,,,5,,,,62,45
14976,note_on,,,,,0,0,5,,,,,4,,,,75,45
14976,note_on,,,,,48,0,5,,,,,4,,,,77,0
14976,note_on,,,,,94,0,7,,,,,6,,,,70,0
14978,note_on,,,,,2,0,7,,,,,6,,,,70,45
14986,note_on,,,,,48,0,6,,,,,5,,,,62,0
14986,note_on,,,,,0,0,6,,,,,5,,,,60,45
15072,note_on,,,,,94,0,7,,,,,6,,,,70,0
15074,note_on,,,,,2,0,7,,,,,6,,,,70,45
15136,note_on,,,,,160,0,5,,,,,4,,,,75,0
15146,note_on,,,,,160,0,6,,,,,5,,,,60,0
15168,note_on,,,,,94,0,7,,,,,6,,,,70,0
15168,note_on,,,,,32,0,5,,,,,4,,,,77,45
15170,note_on,,,,,2,0,7,,,,,6,,,,70,45
15178,note_on,,,,,32,0,6,,,,,5,,,,62,45
15264,note_on,,,,,94,0,7,,,,,6,,,,70,0
15266,note_on,,,,,2,0,7,,,,,6,,,,70,45
15328,note_on,,,,,160,0,5,,,,,4,,,,77,0
15338,note_on,,,,,160,0,6,,,,,5,,,,62,0
15360,note_on,,,,,32,0,5,,,,,4,,,,78,45
15360,note_on,,,,,94,0,7,,,,,6,,,,70,0
15362,note_on,,,,,2,0,7,,,,,6,,,,70,45
15366,note_on,,,,,1200,0,9,,,,,8,,,,39,45
15368,note_on,,,,,1200,0,8,,,,,7,,,,51,45
15370,note_on,,,,,32,0,6,,,,,5,,,,62,45
15456,note_on,,,,,94,0,7,,,,,6,,,,70,0
15458,note_on,,,,,2,0,7,,,,,6,,,,70,45
15552,note_on,,,,,0,0,5,,,,,4,,,,79,45
15552,note_on,,,,,94,0,7,,,,,6,,,,70,0
15552,note_on,,,,,192,0,5,,,,,4,,,,78,0
15554,note_on,,,,,2,0,7,,,,,6,,,,70,45
15562,note_on,,,,,192,0,6,,,,,5,,,,62,0
15562,note_on,,,,,0,0,6,,,,,5,,,,63,45
15648,note_on,,,,,94,0,7,,,,,6,,,,70,0
15650,note_on,,,,,2,0,7,,,,,6,,,,70,45
15702,note_on,,,,,336,0,9,,,,,8,,,,39,0
15704,note_on,,,,,336,0,8,,,,,7,,,,51,0
15712,note_on,,,,,160,0,5,,,,,4,,,,79,0
15722,note_on,,,,,160,0,6,,,,,5,,,,63,0
15744,note_on,,,,,32,0,5,,,,,4,,,,79,45
15744,note_on,,,,,94,0,7,,,,,6,,,,70,0
15746,note_on,,,,,2,0,7,,,,,6,,,,70,45
15754,note_on,,,,,32,0,6,,,,,5,,,,63,45
15792,note_on,,,,,48,0,5,,,,,4,,,,79,0
15906,note_on,,,,,160,0,7,,,,,6,,,,70,0
15914,note_on,,,,,160,0,6,,,,,5,,,,63,0
15936,note_on,,,,,144,0,5,,,,,4,,,,79,108
15936,set_tempo,,,,,3264,1,0,,266667,,,,,,,,
15938,note_on,,,,,32,0,7,,,,,6,,,,67,108
15940,note_on,,,,,0,0,1,,,,,0,,,,82,108
15940,note_on,,,,,3312,0,1,,,,,0,,,,79,108
15942,note_on,,,,,240,0,9,,,,,8,,,,51,108
15943,note_on,,,,,3312,0,2,,,,,1,,,,58,108
15943,note_on,,,,,0,0,2,,,,,1,,,,67,108
15944,note_on,,,,,240,0,8,,,,,7,,,,63,108
15946,note_on,,,,,32,0,6,,,,,5,,,,70,108
15946,note_on,,,,,0,0,6,,,,,5,,,,82,108
15984,note_on,,,,,48,0,5,,,,,4,,,,79,0
16040,note_on,,,,,94,0,6,,,,,5,,,,82,0
16040,note_on,,,,,0,0,6,,,,,5,,,,70,0
16042,note_on,,,,,2,0,6,,,,,5,,,,70,108
16042,note_on,,,,,0,0,6,,,,,5,,,,82,108
16098,note_on,,,,,160,0,7,,,,,6,,,,67,0
16100,note_on,,,,,160,0,1,,,,,0,,,,79,0
16102,note_on,,,,,160,0,9,,,,,8,,,,51,0
16103,note_on,,,,,160,0,2,,,,,1,,,,67,0
16103,note_on,,,,,0,0,2,,,,,1,,,,58,0
16104,note_on,,,,,160,0,8,,,,,7,,,,63,0
16128,note_on,,,,,144,0,5,,,,,4,,,,79,108
16130,note_on,,,,,32,0,7,,,,,6,,,,67,108
16132,note_on,,,,,32,0,1,,,,,0,,,,79,108
16134,note_on,,,,,32,0,9,,,,,8,,,,51,108
16135,note_on,,,,,32,0,2,,,,,1,,,,58,108
16135,note_on,,,,,0,0,2,,,,,1,,,,67,108
16136,note_on,,,,,32,0,8,,,,,7,,,,63,108
16136,note_on,,,,,94,0,6,,,,,5,,,,82,0
16136,note_on,,,,,0,0,6,,,,,5,,,,70,0
16138,note_on,,,,,0,0,6,,,,,5,,,,82,108
16138,note_on,,,,,2,0,6,,,,,5,,,,70,108
16232,note_on,,,,,0,0,6,,,,,5,,,,70,0
16232,note_on,,,,,94,0,6,,,,,5,,,,82,0
16234,note_on,,,,,0,0,6,,,,,5,,,,82,108
16234,note_on,,,,,2,0,6,,,,,5,,,,70,108
16328,note_on,,,,,0,0,6,,,,,5,,,,70,0
16328,note_on,,,,,94,0,6,,,,,5,,,,82,0
16330,note_on,,,,,0,0,6,,,,,5,,,,82,108
16330,note_on,,,,,2,0,6,,,,,5,,,,70,108
16416,note_on,,,,,0,0,5,,,,,4,,,,80,108
16416,note_on,,,,,288,0,5,,,,,4,,,,79,0
16418,note_on,,,,,0,0,7,,,,,6,,,,68,108
16418,note_on,,,,,288,0,7,,,,,6,,,,67,0
16422,note_on,,,,,288,0,9,,,,,8,,,,51,0
16422,note_on,,,,,0,0,9,,,,,8,,,,53,108
16424,note_on,,,,,288,0,8,,,,,7,,,,63,0
16424,note_on,,,,,0,0,6,,,,,5,,,,70,0
16424,note_on,,,,,94,0,6,,,,,5,,,,82,0
16424,note_on,,,,,0,0,8,,,,,7,,,,65,108
16426,note_on,,,,,0,0,6,,,,,5,,,,82,108
16426,note_on,,,,,2,0,6,,,,,5,,,,70,108
16464,note_on,,,,,0,0,5,,,,,4,,,,79,108
16464,note_on,,,,,48,0,5,,,,,4,,,,80,0
16466,note_on,,,,,0,0,7,,,,,6,,,,67,108
16466,note_on,,,,,48,0,7,,,,,6,,,,68,0
16470,note_on,,,,,0,0,9,,,,,8,,,,51,108
16470,note_on,,,,,48,0,9,,,,,8,,,,53,0
16471,note_on,,,,,0,0,2,,,,,1,,,,58,0
16471,note_on,,,,,336,0,2,,,,,1,,,,67,0
16472,note_on,,,,,48,0,8,,,,,7,,,,65,0
16472,note_on,,,,,0,0,8,,,,,7,,,,63,108
16512,note_on,,,,,48,0,5,,,,,4,,,,79,0
16512,note_on,,,,,0,0,5,,,,,4,,,,77,108
16514,note_on,,,,,0,0,7,,,,,6,,,,65,108
16514,note_on,,,,,48,0,7,,,,,6,,,,67,0
16516,note_on,,,,,0,0,1,,,,,0,,,,77,108
16516,note_on,,,,,384,0,1,,,,,0,,,,79,0
16518,note_on,,,,,0,0,9,,,,,8,,,,50,108
16518,note_on,,,,,48,0,9,,,,,8,,,,51,0
16519,note_on,,,,,0,0,2,,,,,1,,,,65,108
16519,note_on,,,,,48,0,2,,,,,1,,,,58,108
16520,note_on,,,,,48,0,8,,,,,7,,,,63,0
16520,note_on,,,,,0,0,6,,,,,5,,,,70,0
16520,note_on,,,,,94,0,6,,,,,5,,,,82,0
16520,note_on,,,,,0,0,8,,,,,7,,,,62,108
16522,note_on,,,,,2,0,6,,,,,5,,,,70,108
16522,note_on,,,,,0,0,6,,,,,5,,,,82,108
16616,note_on,,,,,0,0,6,,,,,5,,,,70,0
16616,note_on,,,,,94,0,6,,,,,5,,,,82,0
16618,note_on,,,,,0,0,6,,,,,5,,,,82,108
16618,note_on,,,,,2,0,6,,,,,5,,,,70,108
16672,note_on,,,,,160,0,5,,,,,4,,,,77,0
16674,note_on,,,,,160,0,7,,,,,6,,,,65,0
16676,note_on,,,,,160,0,1,,,,,0,,,,77,0
16678,note_on,,,,,160,0,9,,,,,8,,,,50,0
16679,note_on,,,,,160,0,2,,,,,1,,,,65,0
16679,note_on,,,,,0,0,2,,,,,1,,,,58,0
16680,note_on,,,,,160,0,8,,,,,7,,,,62,0
16704,note_on,,,,,32,0,5,,,,,4,,,,79,108
16706,note_on,,,,,32,0,7,,,,,6,,,,67,108
16708,note_on,,,,,32,0,1,,,,,0,,,,79,108
16710,note_on,,,,,32,0,9,,,,,8,,,,51,108
16711,note_on,,,,,32,0,2,,,,,1,,,,58,108
16711,note_on,,,,,0,0,2,,,,,1,,,,67,108
16712,note_on,,,,,94,0,6,,,,,5,,,,82,0
16712,note_on,,,,,0,0,6,,,,,5,,,,70,0
16712,note_on,,,,,32,0,8,,,,,7,,,,63,108
16714,note_on,,,,,2,0,6,,,,,5,,,,70,108
16714,note_on,,,,,0,0,6,,,,,5,,,,82,108
16752,note_on,,,,,48,0,5,,,,,4,,,,79,0
16754,note_on,,,,,48,0,7,,,,,6,,,,67,0
16758,note_on,,,,,48,0,9,,,,,8,,,,51,0
16760,note_on,,,,,48,0,8,,,,,7,,,,63,0
16808,note_on,,,,,94,0,6,,,,,5,,,,82,0
16808,note_on,,,,,0,0,6,,,,,5,,,,70,0
16810,note_on,,,,,2,0,6,,,,,5,,,,70,108
16810,note_on,,,,,0,0,6,,,,,5,,,,82,108
16868,note_on,,,,,160,0,1,,,,,0,,,,79,0
16871,note_on,,,,,160,0,2,,,,,1,,,,67,0
16871,note_on,,,,,0,0,2,,,,,1,,,,58,0
16896,note_on,,,,,144,0,5,,,,,4,,,,79,108
16898,note_on,,,,,144,0,7,,,,,6,,,,67,108
16900,note_on,,,,,32,0,1,,,,,0,,,,79,108
16902,note_on,,,,,144,0,9,,,,,8,,,,52,108
16903,note_on,,,,,0,0,2,,,,,1,,,,67,108
16903,note_on,,,,,32,0,2,,,,,1,,,,58,108
16904,note_on,,,,,94,0,6,,,,,5,,,,82,0
16904,note_on,,,,,0,0,6,,,,,5,,,,70,0
16904,note_on,,,,,144,0,8,,,,,7,,,,64,108
16906,note_on,,,,,0,0,6,,,,,5,,,,82,108
16906,note_on,,,,,2,0,6,,,,,5,,,,70,108
17000,note_on,,,,,0,0,6,,,,,5,,,,70,0
17000,note_on,,,,,94,0,6,,,,,5,,,,82,0
17002,note_on,,,,,0,0,6,,,,,5,,,,82,108
17002,note_on,,,,,2,0,6,,,,,5,,,,70,108
17088,note_on,,,,,0,0,5,,,,,4,,,,80,108
17088,note_on,,,,,192,0,5,,,,,4,,,,79,0
17090,note_on,,,,,0,0,7,,,,,6,,,,68,108
17090,note_on,,,,,192,0,7,,,,,6,,,,67,0
17092,note_on,,,,,0,0,1,,,,,0,,,,80,108
17092,note_on,,,,,192,0,1,,,,,0,,,,79,0
17094,note_on,,,,,192,0,9,,,,,8,,,,52,0
17094,note_on,,,,,0,0,9,,,,,8,,,,53,108
17095,note_on,,,,,0,0,2,,,,,1,,,,68,108
17095,note_on,,,,,192,0,2,,,,,1,,,,67,0
17096,note_on,,,,,0,0,8,,,,,7,,,,65,108
17096,note_on,,,,,94,0,6,,,,,5,,,,82,0
17096,note_on,,,,,192,0,8,,,,,7,,,,64,0
17096,note_on,,,,,0,0,6,,,,,5,,,,70,0
17098,note_on,,,,,2,0,6,,,,,5,,,,70,108
17098,note_on,,,,,0,0,6,,,,,5,,,,82,108
17192,note_on,,,,,94,0,6,,,,,5,,,,82,0
17192,note_on,,,,,0,0,6,,,,,5,,,,70,0
17194,note_on,,,,,2,0,6,,,,,5,,,,70,108
17194,note_on,,,,,0,0,6,,,,,5,,,,82,108
17239,note_on,,,,,144,0,2,,,,,1,,,,58,0
17248,note_on,,,,,160,0,5,,,,,4,,,,80,0
17250,note_on,,,,,160,0,7,,,,,6,,,,68,0
17252,note_on,,,,,160,0,1,,,,,0,,,,80,0
17254,note_on,,,,,160,0,9,,,,,8,,,,53,0
17255,note_on,,,,,16,0,2,,,,,1,,,,68,0
17256,note_on,,,,,160,0,8,,,,,7,,,,65,0
17280,note_on,,,,,32,0,5,,,,,4,,,,80,108
17282,note_on,,,,,32,0,7,,,,,6,,,,68,108
17284,note_on,,,,,32,0,1,,,,,0,,,,80,108
17286,note_on,,,,,32,0,9,,,,,8,,,,53,108
17287,note_on,,,,,32,0,2,,,,,1,,,,58,108
17287,note_on,,,,,0,0,2,,,,,1,,,,68,108
17288,note_on,,,,,0,0,6,,,,,5,,,,70,0
17288,note_on,,,,,32,0,8,,,,,7,,,,65,108
17288,note_on,,,,,94,0,6,,,,,5,,,,82,0
17290,note_on,,,,,0,0,6,,,,,5,,,,82,108
17290,note_on,,,,,2,0,6,,,,,5,,,,70,108
17384,note_on,,,,,0,0,6,,,,,5,,,,70,0
17384,note_on,,,,,94,0,6,,,,,5,,,,82,0
17386,note_on,,,,,0,0,6,,,,,5,,,,82,108
17386,note_on,,,,,2,0,6,,,,,5,,,,70,108
17480,note_on,,,,,0,0,6,,,,,5,,,,70,0
17480,note_on,,,,,94,0,6,,,,,5,,,,82,0
17482,note_on,,,,,2,0,6,,,,,5,,,,70,108
17482,note_on,,,,,0,0,6,,,,,5,,,,82,108
17576,note_on,,,,,0,0,6,,,,,5,,,,70,0
17576,note_on,,,,,94,0,6,,,,,5,,,,82,0
17578,note_on,,,,,2,0,6,,,,,5,,,,70,108
17578,note_on,,,,,0,0,6,,,,,5,,,,82,108
17672,note_on,,,,,94,0,6,,,,,5,,,,82,0
17672,note_on,,,,,0,0,6,,,,,5,,,,70,0
17674,note_on,,,,,2,0,6,,,,,5,,,,70,108
17674,note_on,,,,,0,0,6,,,,,5,,,,82,108
17758,note_on,,,,,478,0,5,,,,,4,,,,80,0
17760,note_on,,,,,2,0,5,,,,,4,,,,79,108
17760,note_on,,,,,478,0,7,,,,,6,,,,68,0
17762,note_on,,,,,2,0,7,,,,,6,,,,67,108
17762,note_on,,,,,478,0,1,,,,,0,,,,80,0
17764,note_on,,,,,478,0,9,,,,,8,,,,53,0
17764,note_on,,,,,2,0,1,,,,,0,,,,79,108
17766,note_on,,,,,478,0,8,,,,,7,,,,65,0
17766,note_on,,,,,2,0,9,,,,,8,,,,52,108
17768,note_on,,,,,0,0,6,,,,,5,,,,70,0
17768,note_on,,,,,94,0,6,,,,,5,,,,82,0
17768,note_on,,,,,2,0,8,,,,,7,,,,64,108
17770,note_on,,,,,0,0,6,,,,,5,,,,82,108
17770,note_on,,,,,2,0,6,,,,,5,,,,70,108
17792,note_on,,,,,32,0,5,,,,,4,,,,79,0
17794,note_on,,,,,32,0,7,,,,,6,,,,67,0
17798,note_on,,,,,32,0,9,,,,,8,,,,52,0
17800,note_on,,,,,32,0,8,,,,,7,,,,64,0
17831,note_on,,,,,0,0,2,,,,,1,,,,58,0
17831,note_on,,,,,544,0,2,,,,,1,,,,68,0
17856,note_on,,,,,64,0,5,,,,,4,,,,80,108
17858,note_on,,,,,94,0,1,,,,,0,,,,79,0
17858,note_on,,,,,64,0,7,,,,,6,,,,68,108
17860,note_on,,,,,2,0,1,,,,,0,,,,80,108
17862,note_on,,,,,64,0,9,,,,,8,,,,53,108
17863,note_on,,,,,32,0,2,,,,,1,,,,58,108
17863,note_on,,,,,0,0,2,,,,,1,,,,68,108
17864,note_on,,,,,0,0,6,,,,,5,,,,70,0
17864,note_on,,,,,94,0,6,,,,,5,,,,82,0
17864,note_on,,,,,64,0,8,,,,,7,,,,65,108
17866,note_on,,,,,0,0,6,,,,,5,,,,82,108
17866,note_on,,,,,2,0,6,,,,,5,,,,70,108
17888,note_on,,,,,32,0,5,,,,,4,,,,80,0
17890,note_on,,,,,32,0,7,,,,,6,,,,68,0
17894,note_on,,,,,32,0,9,,,,,8,,,,53,0
17896,note_on,,,,,32,0,8,,,,,7,,,,65,0
17952,note_on,,,,,64,0,5,,,,,4,,,,79,108
17954,note_on,,,,,64,0,7,,,,,6,,,,67,108
17954,note_on,,,,,94,0,1,,,,,0,,,,80,0
17956,note_on,,,,,2,0,1,,,,,0,,,,79,108
17958,note_on,,,,,64,0,9,,,,,8,,,,52,108
17960,note_on,,,,,94,0,6,,,,,5,,,,82,0
17960,note_on,,,,,0,0,6,,,,,5,,,,70,0
17960,note_on,,,,,64,0,8,,,,,7,,,,64,108
17962,note_on,,,,,0,0,6,,,,,5,,,,82,108
17962,note_on,,,,,2,0,6,,,,,5,,,,70,108
17984,note_on,,,,,32,0,5,,,,,4,,,,79,0
17986,note_on,,,,,32,0,7,,,,,6,,,,67,0
17990,note_on,,,,,32,0,9,,,,,8,,,,52,0
17992,note_on,,,,,32,0,8,,,,,7,,,,64,0
18023,note_on,,,,,160,0,2,,,,,1,,,,68,0
18023,note_on,,,,,0,0,2,,,,,1,,,,58,0
18048,note_on,,,,,64,0,5,,,,,4,,,,80,108
18050,note_on,,,,,64,0,7,,,,,6,,,,68,108
18050,note_on,,,,,94,0,1,,,,,0,,,,79,0
18052,note_on,,,,,2,0,1,,,,,0,,,,80,108
18054,note_on,,,,,64,0,9,,,,,8,,,,53,108
18055,note_on,,,,,32,0,2,,,,,1,,,,58,108
18055,note_on,,,,,0,0,2,,,,,1,,,,68,108
18056,note_on,,,,,64,0,8,,,,,7,,,,65,108
18056,note_on,,,,,0,0,6,,,,,5,,,,70,0
18056,note_on,,,,,94,0,6,,,,,5,,,,82,0
18058,note_on,,,,,2,0,6,,,,,5,,,,70,108
18058,note_on,,,,,0,0,6,,,,,5,,,,82,108
18080,note_on,,,,,32,0,5,,,,,4,,,,80,0
18082,note_on,,,,,32,0,7,,,,,6,,,,68,0
18086,note_on,,,,,32,0,9,,,,,8,,,,53,0
18088,note_on,,,,,32,0,8,,,,,7,,,,65,0
18144,note_on,,,,,64,0,5,,,,,4,,,,79,108
18146,note_on,,,,,64,0,7,,,,,6,,,,67,108
18146,note_on,,,,,94,0,1,,,,,0,,,,80,0
18148,note_on,,,,,2,0,1,,,,,0,,,,79,108
18150,note_on,,,,,64,0,9,,,,,8,,,,52,108
18152,note_on,,,,,64,0,8,,,,,7,,,,64,108
18152,note_on,,,,,0,0,6,,,,,5,,,,70,0
18152,note_on,,,,,94,0,6,,,,,5,,,,82,0
18154,note_on,,,,,2,0,6,,,,,5,,,,70,108
18154,note_on,,,,,0,0,6,,,,,5,,,,82,108
18176,note_on,,,,,32,0,5,,,,,4,,,,79,0
18178,note_on,,,,,32,0,7,,,,,6,,,,67,0
18182,note_on,,,,,32,0,9,,,,,8,,,,52,0
18184,note_on,,,,,32,0,8,,,,,7,,,,64,0
18215,note_on,,,,,160,0,2,,,,,1,,,,68,0
18215,note_on,,,,,0,0,2,,,,,1,,,,58,0
18240,note_on,,,,,64,0,5,,,,,4,,,,80,108
18242,note_on,,,,,94,0,1,,,,,0,,,,79,0
18242,note_on,,,,,64,0,7,,,,,6,,,,68,108
18244,note_on,,,,,2,0,1,,,,,0,,,,80,108
18246,note_on,,,,,64,0,9,,,,,8,,,,53,108
18247,note_on,,,,,32,0,2,,,,,1,,,,58,108
18247,note_on,,,,,0,0,2,,,,,1,,,,68,108
18248,note_on,,,,,94,0,6,,,,,5,,,,82,0
18248,note_on,,,,,0,0,6,,,,,5,,,,70,0
18248,note_on,,,,,64,0,8,,,,,7,,,,65,108
18250,note_on,,,,,0,0,6,,,,,5,,,,82,108
18250,note_on,,,,,2,0,6,,,,,5,,,,70,108
18272,note_on,,,,,32,0,5,,,,,4,,,,80,0
18274,note_on,,,,,32,0,7,,,,,6,,,,68,0
18278,note_on,,,,,32,0,9,,,,,8,,,,53,0
18280,note_on,,,,,32,0,8,,,,,7,,,,65,0
18336,note_on,,,,,64,0,5,,,,,4,,,,79,108
18338,note_on,,,,,94,0,1,,,,,0,,,,80,0
18338,note_on,,,,,64,0,7,,,,,6,,,,67,108
18340,note_on,,,,,2,0,1,,,,,0,,,,79,108
18342,note_on,,,,,64,0,9,,,,,8,,,,52,108
18344,note_on,,,,,94,0,6,,,,,5,,,,82,0
18344,note_on,,,,,0,0,6,,,,,5,,,,70,0
18344,note_on,,,,,64,0,8,,,,,7,,,,64,108
18346,note_on,,,,,2,0,6,,,,,5,,,,70,108
18346,note_on,,,,,0,0,6,,,,,5,,,,82,108
18368,note_on,,,,,32,0,5,,,,,4,,,,79,0
18370,note_on,,,,,32,0,7,,,,,6,,,,67,0
18374,note_on,,,,,32,0,9,,,,,8,,,,52,0
18376,note_on,,,,,32,0,8,,,,,7,,,,64,0
18407,note_on,,,,,0,0,2,,,,,1,,,,58,0
18407,note_on,,,,,160,0,2,,,,,1,,,,68,0
18432,note_on,,,,,64,0,5,,,,,4,,,,80,108
18434,note_on,,,,,94,0,1,,,,,0,,,,79,0
18434,note_on,,,,,64,0,7,,,,,6,,,,68,108
18436,note_on,,,,,2,0,1,,,,,0,,,,80,108
18438,note_on,,,,,64,0,9,,,,,8,,,,53,108
18439,note_on,,,,,0,0,2,,,,,1,,,,68,108
18439,note_on,,,,,32,0,2,,,,,1,,,,58,108
18440,note_on,,,,,0,0,6,,,,,5,,,,70,0
18440,note_on,,,,,64,0,8,,,,,7,,,,65,108
18440,note_on,,,,,94,0,6,,,,,5,,,,82,0
18442,note_on,,,,,0,0,6,,,,,5,,,,82,108
18442,note_on,,,,,2,0,6,,,,,5,,,,70,108
18536,note_on,,,,,94,0,6,,,,,5,,,,82,0
18536,note_on,,,,,0,0,6,,,,,5,,,,70,0
18538,note_on,,,,,0,0,6,,,,,5,,,,82,108
18538,note_on,,,,,2,0,6,,,,,5,,,,70,108
18632,note_on,,,,,0,0,6,,,,,5,,,,70,0
18632,note_on,,,,,94,0,6,,,,,5,,,,82,0
18634,note_on,,,,,0,0,6,,,,,5,,,,82,108
18634,note_on,,,,,2,0,6,,,,,5,,,,70,108
18728,note_on,,,,,94,0,6,,,,,5,,,,82,0
18728,note_on,,,,,0,0,6,,,,,5,,,,70,0
18730,note_on,,,,,2,0,6,,,,,5,,,,70,108
18730,note_on,,,,,0,0,6,,,,,5,,,,82,108
18768,note_on,,,,,336,0,5,,,,,4,,,,80,0
18770,note_on,,,,,336,0,7,,,,,6,,,,68,0
18772,note_on,,,,,336,0,1,,,,,0,,,,80,0
18774,note_on,,,,,336,0,9,,,,,8,,,,53,0
18775,note_on,,,,,0,0,2,,,,,1,,,,58,0
18775,note_on,,,,,336,0,2,,,,,1,,,,68,0
18776,note_on,,,,,336,0,8,,,,,7,,,,65,0
18816,note_on,,,,,48,0,5,,,,,4,,,,78,108
18818,note_on,,,,,48,0,7,,,,,6,,,,66,108
18820,note_on,,,,,48,0,1,,,,,0,,,,78,108
18822,note_on,,,,,48,0,9,,,,,8,,,,50,108
18823,note_on,,,,,48,0,2,,,,,1,,,,46,108
18823,note_on,,,,,0,0,2,,,,,1,,,,66,108
18824,note_on,,,,,94,0,6,,,,,5,,,,82,0
18824,note_on,,,,,48,0,8,,,,,7,,,,62,108
18824,note_on,,,,,0,0,6,,,,,5,,,,70,0
18826,note_on,,,,,0,0,6,,,,,5,,,,82,108
18826,note_on,,,,,2,0,6,,,,,5,,,,70,108
18920,note_on,,,,,0,0,6,,,,,5,,,,70,0
18920,note_on,,,,,94,0,6,,,,,5,,,,82,0
18922,note_on,,,,,0,0,6,,,,,5,,,,82,108
18922,note_on,,,,,2,0,6,,,,,5,,,,70,108
19016,note_on,,,,,0,0,6,,,,,5,,,,70,0
19016,note_on,,,,,94,0,6,,,,,5,,,,82,0
19018,note_on,,,,,0,0,6,,,,,5,,,,82,108
19018,note_on,,,,,2,0,6,,,,,5,,,,70,108
19112,note_on,,,,,0,0,6,,,,,5,,,,70,0
19112,note_on,,,,,94,0,6,,,,,5,,,,82,0
19114,note_on,,,,,2,0,6,,,,,5,,,,70,108
19114,note_on,,,,,0,0,6,,,,,5,,,,82,108
19152,note_on,,,,,336,0,5,,,,,4,,,,78,0
19154,note_on,,,,,336,0,7,,,,,6,,,,66,0
19156,note_on,,,,,336,0,1,,,,,0,,,,78,0
19158,note_on,,,,,336,0,9,,,,,8,,,,50,0
19159,note_on,,,,,0,0,2,,,,,1,,,,46,0
19159,note_on,,,,,336,0,2,,,,,1,,,,66,0
19160,note_on,,,,,336,0,8,,,,,7,,,,62,0
19200,note_on,,,,,48,0,5,,,,,4,,,,79,108
19202,note_on,,,,,48,0,7,,,,,6,,,,67,108
19204,note_on,,,,,48,0,1,,,,,0,,,,79,108
19206,note_on,,,,,48,0,9,,,,,8,,,,51,108
19207,note_on,,,,,0,0,2,,,,,1,,,,67,108
19207,note_on,,,,,48,0,2,,,,,1,,,,51,108
19208,note_on,,,,,94,0,6,,,,,5,,,,82,0
19208,note_on,,,,,48,0,8,,,,,7,,,,63,108
19208,note_on,,,,,0,0,6,,,,,5,,,,70,0
19210,note_on,,,,,0,0,6,,,,,5,,,,82,108
19210,note_on,,,,,2,0,6,,,,,5,,,,70,108
19304,note_on,,,,,94,0,6,,,,,5,,,,82,0
19304,note_on,,,,,0,0,6,,,,,5,,,,70,0
19306,note_on,,,,,2,0,6,,,,,5,,,,70,108
19306,note_on,,,,,0,0,6,,,,,5,,,,82,108
19400,note_on,,,,,0,0,6,,,,,5,,,,70,0
19400,note_on,,,,,94,0,6,,,,,5,,,,82,0
19402,note_on,,,,,0,0,6,,,,,5,,,,82,108
19402,note_on,,,,,2,0,6,,,,,5,,,,70,108
19496,note_on,,,,,0,0,6,,,,,5,,,,70,0
19496,note_on,,,,,94,0,6,,,,,5,,,,82,0
19498,note_on,,,,,0,0,6,,,,,5,,,,82,108
19498,note_on,,,,,2,0,6,,,,,5,,,,70,108
19536,note_on,,,,,336,0,5,,,,,4,,,,79,0
19538,note_on,,,,,336,0,7,,,,,6,,,,67,0
19540,note_on,,,,,336,0,1,,,,,0,,,,79,0
19540,note_on,,,,,0,0,1,,,,,0,,,,82,0
19542,note_on,,,,,336,0,9,,,,,8,,,,51,0
19543,note_on,,,,,0,0,2,,,,,1,,,,51,0
19543,note_on,,,,,336,0,2,,,,,1,,,,67,0
19544,note_on,,,,,336,0,8,,,,,7,,,,63,0
19584,note_on,,,,,48,0,5,,,,,4,,,,60,108
19586,note_on,,,,,48,0,7,,,,,6,,,,72,108
19590,note_on,,,,,48,0,9,,,,,8,,,,48,108
19592,note_on,,,,,94,0,6,,,,,5,,,,82,0
19592,note_on,,,,,0,0,6,,,,,5,,,,70,0
19592,note_on,,,,,48,0,8,,,,,7,,,,60,108
19594,note_on,,,,,0,0,6,,,,,5,,,,75,108
19594,note_on,,,,,2,0,6,,,,,5,,,,67,108
19680,note_on,,,,,94,0,7,,,,,6,,,,72,0
19682,note_on,,,,,2,0,7,,,,,6,,,,72,108
19688,note_on,,,,,0,0,6,,,,,5,,,,67,0
19688,note_on,,,,,94,0,6,,,,,5,,,,75,0
19690,note_on,,,,,0,0,6,,,,,5,,,,75,108
19690,note_on,,,,,2,0,6,,,,,5,,,,67,108
19744,note_on,,,,,160,0,5,,,,,4,,,,60,0
19750,note_on,,,,,160,0,9,,,,,8,,,,48,0
19752,note_on,,,,,160,0,8,,,,,7,,,,60,0
19776,note_on,,,,,32,0,5,,,,,4,,,,75,108
19776,note_on,,,,,94,0,7,,,,,6,,,,72,0
19778,note_on,,,,,2,0,7,,,,,6,,,,72,108
19780,note_on,,,,,0,0,1,,,,,0,,,,79,108
19780,note_on,,,,,240,0,1,,,,,0,,,,75,108
19782,note_on,,,,,32,0,9,,,,,8,,,,48,108
19783,note_on,,,,,0,0,2,,,,,1,,,,67,108
19783,note_on,,,,,240,0,2,,,,,1,,,,63,108
19784,note_on,,,,,0,0,6,,,,,5,,,,67,0
19784,note_on,,,,,32,0,8,,,,,7,,,,60,108
19784,note_on,,,,,94,0,6,,,,,5,,,,75,0
19786,note_on,,,,,0,0,6,,,,,5,,,,75,108
19786,note_on,,,,,2,0,6,,,,,5,,,,67,108
19872,note_on,,,,,94,0,7,,,,,6,,,,72,0
19874,note_on,,,,,2,0,7,,,,,6,,,,72,108
19880,note_on,,,,,0,0,6,,,,,5,,,,67,0
19880,note_on,,,,,94,0,6,,,,,5,,,,75,0
19882,note_on,,,,,0,0,6,,,,,5,,,,75,108
19882,note_on,,,,,2,0,6,,,,,5,,,,67,108
19936,note_on,,,,,160,0,5,,,,,4,,,,75,0
19940,note_on,,,,,0,0,1,,,,,0,,,,75,0
19940,note_on,,,,,160,0,1,,,,,0,,,,79,0
19942,note_on,,,,,160,0,9,,,,,8,,,,48,0
19943,note_on,,,,,160,0,2,,,,,1,,,,67,0
19943,note_on,,,,,0,0,2,,,,,1,,,,63,0
19944,note_on,,,,,160,0,8,,,,,7,,,,60,0
19968,note_on,,,,,32,0,5,,,,,4,,,,56,108
19968,note_on,,,,,94,0,7,,,,,6,,,,72,0
19970,note_on,,,,,2,0,7,,,,,6,,,,72,108
19974,note_on,,,,,32,0,9,,,,,8,,,,44,108
19976,note_on,,,,,94,0,6,,,,,5,,,,75,0
19976,note_on,,,,,0,0,6,,,,,5,,,,67,0
19976,note_on,,,,,32,0,8,,,,,7,,,,56,108
19978,note_on,,,,,2,0,6,,,,,5,,,,65,108
19978,note_on,,,,,0,0,6,,,,,5,,,,75,108
20064,note_on,,,,,94,0,7,,,,,6,,,,72,0
20066,note_on,,,,,2,0,7,,,,,6,,,,72,108
20072,note_on,,,,,94,0,6,,,,,5,,,,75,0
20072,note_on,,,,,0,0,6,,,,,5,,,,65,0
20074,note_on,,,,,2,0,6,,,,,5,,,,65,108
20074,note_on,,,,,0,0,6,,,,,5,,,,75,108
20128,note_on,,,,,160,0,5,,,,,4,,,,56,0
20134,note_on,,,,,160,0,9,,,,,8,,,,44,0
20136,note_on,,,,,160,0,8,,,,,7,,,,56,0
20160,note_on,,,,,94,0,7,,,,,6,,,,72,0
20160,note_on,,,,,32,0,5,,,,,4,,,,77,108
20162,note_on,,,,,2,0,7,,,,,6,,,,72,108
20164,note_on,,,,,0,0,1,,,,,0,,,,80,108
20164,note_on,,,,,224,0,1,,,,,0,,,,77,108
20166,note_on,,,,,32,0,9,,,,,8,,,,44,108
20167,note_on,,,,,224,0,2,,,,,1,,,,65,108
20167,note_on,,,,,0,0,2,,,,,1,,,,68,108
20168,note_on,,,,,94,0,6,,,,,5,,,,75,0
20168,note_on,,,,,32,0,8,,,,,7,,,,56,108
20168,note_on,,,,,0,0,6,,,,,5,,,,65,0
20170,note_on,,,,,0,0,6,,,,,5,,,,75,108
20170,note_on,,,,,2,0,6,,,,,5,,,,65,108
20256,note_on,,,,,94,0,7,,,,,6,,,,72,0
20258,note_on,,,,,2,0,7,,,,,6,,,,72,108
20264,note_on,,,,,0,0,6,,,,,5,,,,65,0
20264,note_on,,,,,94,0,6,,,,,5,,,,75,0
20266,note_on,,,,,0,0,6,,,,,5,,,,75,108
20266,note_on,,,,,2,0,6,,,,,5,,,,65,108
20320,note_on,,,,,160,0,5,,,,,4,,,,77,0
20324,note_on,,,,,0,0,1,,,,,0,,,,77,0
20324,note_on,,,,,160,0,1,,,,,0,,,,80,0
20326,note_on,,,,,160,0,9,,,,,8,,,,44,0
20327,note_on,,,,,160,0,2,,,,,1,,,,68,0
20327,note_on,,,,,0,0,2,,,,,1,,,,65,0
20328,note_on,,,,,160,0,8,,,,,7,,,,56,0
20352,note_on,,,,,94,0,7,,,,,6,,,,72,0
20352,note_on,,,,,32,0,5,,,,,4,,,,58,108
20354,note_on,,,,,0,0,7,,,,,6,,,,70,108
20354,note_on,,,,,2,0,7,,,,,6,,,,68,108
20358,note_on,,,,,32,0,9,,,,,8,,,,46,108
20360,note_on,,,,,0,0,6,,,,,5,,,,65,0
20360,note_on,,,,,94,0,6,,,,,5,,,,75,0
20360,note_on,,,,,32,0,8,,,,,7,,,,58,108
20362,note_on,,,,,2,0,6,,,,,5,,,,65,108
20362,note_on,,,,,0,0,6,,,,,5,,,,74,108
20448,note_on,,,,,0,0,7,,,,,6,,,,68,0
20448,note_on,,,,,94,0,7,,,,,6,,,,70,0
20450,note_on,,,,,2,0,7,,,,,6,,,,68,108
20450,note_on,,,,,0,0,7,,,,,6,,,,70,108
20456,note_on,,,,,0,0,6,,,,,5,,,,65,0
20456,note_on,,,,,94,0,6,,,,,5,,,,74,0
20458,note_on,,,,,0,0,6,,,,,5,,,,74,108
20458,note_on,,,,,2,0,6,,,,,5,,,,65,108
20512,note_on,,,,,160,0,5,,,,,4,,,,58,0
20518,note_on,,,,,160,0,9,,,,,8,,,,46,0
20520,note_on,,,,,160,0,8,,,,,7,,,,58,0
20544,note_on,,,,,94,0,7,,,,,6,,,,70,0
20544,note_on,,,,,0,0,7,,,,,6,,,,68,0
20544,note_on,,,,,32,0,5,,,,,4,,,,74,108
20546,note_on,,,,,2,0,7,,,,,6,,,,68,108
20546,note_on,,,,,0,0,7,,,,,6,,,,70,108
20548,note_on,,,,,0,0,1,,,,,0,,,,77,108
20548,note_on,,,,,224,0,1,,,,,0,,,,74,108
20550,note_on,,,,,32,0,9,,,,,8,,,,46,108
20551,note_on,,,,,0,0,2,,,,,1,,,,65,108
20551,note_on,,,,,224,0,2,,,,,1,,,,58,108
20552,note_on,,,,,0,0,6,,,,,5,,,,65,0
20552,note_on,,,,,32,0,8,,,,,7,,,,58,108
20552,note_on,,,,,94,0,6,,,,,5,,,,74,0
20554,note_on,,,,,0,0,6,,,,,5,,,,74,108
20554,note_on,,,,,2,0,6,,,,,5,,,,65,108
20640,note_on,,,,,0,0,7,,,,,6,,,,68,0
20640,note_on,,,,,94,0,7,,,,,6,,,,70,0
20642,note_on,,,,,2,0,7,,,,,6,,,,68,108
20642,note_on,,,,,0,0,7,,,,,6,,,,70,108
20648,note_on,,,,,0,0,6,,,,,5,,,,65,0
20648,note_on,,,,,94,0,6,,,,,5,,,,74,0
20650,note_on,,,,,0,0,6,,,,,5,,,,74,108
20650,note_on,,,,,2,0,6,,,,,5,,,,65,108
20704,note_on,,,,,160,0,5,,,,,4,,,,74,0
20708,note_on,,,,,0,0,1,,,,,0,,,,74,0
20708,note_on,,,,,160,0,1,,,,,0,,,,77,0
20710,note_on,,,,,160,0,9,,,,,8,,,,46,0
20711,note_on,,,,,0,0,2,,,,,1,,,,58,0
20711,note_on,,,,,160,0,2,,,,,1,,,,65,0
20712,note_on,,,,,160,0,8,,,,,7,,,,58,0
20736,set_tempo,,,,,4800,1,0,,272727,,,,,,,,
20736,note_on,,,,,94,0,7,,,,,6,,,,70,0
20736,note_on,,,,,0,0,7,,,,,6,,,,68,0
20736,note_on,,,,,32,0,5,,,,,4,,,,75,92
20738,note_on,,,,,2,0,7,,,,,6,,,,67,92
20738,note_on,,,,,0,0,7,,,,,6,,,,70,92
20740,note_on,,,,,32,0,1,,,,,0,,,,75,92
20742,note_on,,,,,32,0,9,,,,,8,,,,39,92
20743,note_on,,,,,0,0,2,,,,,1,,,,63,92
20743,note_on,,,,,32,0,2,,,,,1,,,,55,92
20744,note_on,,,,,0,0,6,,,,,5,,,,65,0
20744,note_on,,,,,94,0,6,,,,,5,,,,74,0
20744,note_on,,,,,32,0,8,,,,,7,,,,51,92
20746,note_on,,,,,0,0,6,,,,,5,,,,75,92
20746,note_on,,,,,2,0,6,,,,,5,,,,63,92
20788,note_on,,,,,48,0,1,,,,,0,,,,75,0
20830,note_on,,,,,94,0,5,,,,,4,,,,75,0
20832,note_on,,,,,2,0,5,,,,,4,,,,75,92
20898,note_on,,,,,0,0,7,,,,,6,,,,67,0
20898,note_on,,,,,160,0,7,,,,,6,,,,70,0
20906,note_on,,,,,0,0,6,,,,,5,,,,63,0
20906,note_on,,,,,160,0,6,,,,,5,,,,75,0
20926,note_on,,,,,94,0,5,,,,,4,,,,75,0
20928,note_on,,,,,2,0,5,,,,,4,,,,70,92
20932,note_on,,,,,144,0,1,,,,,0,,,,82,92
20980,note_on,,,,,48,0,1,,,,,0,,,,82,0
21022,note_on,,,,,94,0,5,,,,,4,,,,70,0
21024,note_on,,,,,2,0,5,,,,,4,,,,70,92
21078,note_on,,,,,336,0,9,,,,,8,,,,39,0
21079,note_on,,,,,336,0,2,,,,,1,,,,63,0
21079,note_on,,,,,0,0,2,,,,,1,,,,55,0
21080,note_on,,,,,336,0,8,,,,,7,,,,51,0
21118,note_on,,,,,94,0,5,,,,,4,,,,70,0
21120,note_on,,,,,2,0,5,,,,,4,,,,72,92
21122,note_on,,,,,224,0,7,,,,,6,,,,63,92
21124,note_on,,,,,144,0,1,,,,,0,,,,84,92
21127,note_on,,,,,48,0,2,,,,,1,,,,63,92
21127,note_on,,,,,0,0,2,,,,,1,,,,67,92
21130,note_on,,,,,224,0,6,,,,,5,,,,67,92
21172,note_on,,,,,48,0,1,,,,,0,,,,84,0
21214,note_on,,,,,94,0,5,,,,,4,,,,72,0
21216,note_on,,,,,2,0,5,,,,,4,,,,72,92
21310,note_on,,,,,94,0,5,,,,,4,,,,72,0
21312,note_on,,,,,2,0,5,,,,,4,,,,67,92
21316,note_on,,,,,144,0,1,,,,,0,,,,79,92
21364,note_on,,,,,48,0,1,,,,,0,,,,79,0
21406,note_on,,,,,94,0,5,,,,,4,,,,67,0
21408,note_on,,,,,2,0,5,,,,,4,,,,67,92
21463,note_on,,,,,336,0,2,,,,,1,,,,67,0
21463,note_on,,,,,0,0,2,,,,,1,,,,63,0
21466,note_on,,,,,336,0,6,,,,,5,,,,67,0
21502,note_on,,,,,94,0,5,,,,,4,,,,67,0
21504,note_on,,,,,2,0,5,,,,,4,,,,68,92
21508,note_on,,,,,144,0,1,,,,,0,,,,80,92
21511,note_on,,,,,0,0,2,,,,,1,,,,65,92
21511,note_on,,,,,48,0,2,,,,,1,,,,63,92
21514,note_on,,,,,48,0,6,,,,,5,,,,65,92
21556,note_on,,,,,48,0,1,,,,,0,,,,80,0
21598,note_on,,,,,94,0,5,,,,,4,,,,68,0
21600,note_on,,,,,2,0,5,,,,,4,,,,68,92
21694,note_on,,,,,94,0,5,,,,,4,,,,68,0
21696,note_on,,,,,2,0,5,,,,,4,,,,65,92
21700,note_on,,,,,144,0,1,,,,,0,,,,77,92
21748,note_on,,,,,48,0,1,,,,,0,,,,77,0
21790,note_on,,,,,94,0,5,,,,,4,,,,65,0
21792,note_on,,,,,2,0,5,,,,,4,,,,65,92
21842,note_on,,,,,720,0,7,,,,,6,,,,63,0
21847,note_on,,,,,336,0,2,,,,,1,,,,63,0
21886,note_on,,,,,94,0,5,,,,,4,,,,65,0
21888,note_on,,,,,2,0,5,,,,,4,,,,70,92
21890,note_on,,,,,48,0,7,,,,,6,,,,62,92
21892,note_on,,,,,144,0,1,,,,,0,,,,82,92
21895,note_on,,,,,48,0,2,,,,,1,,,,58,92
21940,note_on,,,,,48,0,1,,,,,0,,,,82,0
21982,note_on,,,,,94,0,5,,,,,4,,,,70,0
21984,note_on,,,,,2,0,5,,,,,4,,,,70,92
22078,note_on,,,,,94,0,5,,,,,4,,,,70,0
22080,note_on,,,,,2,0,5,,,,,4,,,,58,92
22084,note_on,,,,,144,0,1,,,,,0,,,,70,92
22086,note_on,,,,,1008,0,9,,,,,8,,,,46,92
22088,note_on,,,,,1008,0,8,,,,,7,,,,58,92
22132,note_on,,,,,48,0,1,,,,,0,,,,70,0
22174,note_on,,,,,94,0,5,,,,,4,,,,58,0
22176,note_on,,,,,2,0,5,,,,,4,,,,58,92
22226,note_on,,,,,336,0,7,,,,,6,,,,62,0
22231,note_on,,,,,336,0,2,,,,,1,,,,58,0
22231,note_on,,,,,0,0,2,,,,,1,,,,65,0
22234,note_on,,,,,720,0,6,,,,,5,,,,65,0
22246,note_on,,,,,160,0,9,,,,,8,,,,46,0
22248,note_on,,,,,160,0,8,,,,,7,,,,58,0
22270,note_on,,,,,94,0,5,,,,,4,,,,58,0
22272,note_on,,,,,2,0,5,,,,,4,,,,79,108
22272,set_tempo,,,,,1536,1,0,,266667,,,,,,,,
22274,note_on,,,,,48,0,7,,,,,6,,,,70,108
22276,note_on,,,,,144,0,1,,,,,0,,,,75,108
22276,note_on,,,,,0,0,1,,,,,0,,,,79,108
22278,note_on,,,,,32,0,9,,,,,8,,,,51,108
22279,note_on,,,,,48,0,2,,,,,1,,,,63,108
22279,note_on,,,,,0,0,2,,,,,1,,,,67,108
22280,note_on,,,,,32,0,8,,,,,7,,,,63,108
22282,note_on,,,,,48,0,6,,,,,5,,,,75,108
22366,note_on,,,,,94,0,5,,,,,4,,,,79,0
22368,note_on,,,,,2,0,5,,,,,4,,,,79,108
22368,note_on,,,,,94,0,7,,,,,6,,,,70,0
22370,note_on,,,,,2,0,7,,,,,6,,,,70,108
22372,note_on,,,,,94,0,9,,,,,8,,,,51,0
22374,note_on,,,,,94,0,8,,,,,7,,,,63,0
22374,note_on,,,,,2,0,9,,,,,8,,,,51,108
22376,note_on,,,,,2,0,8,,,,,7,,,,63,108
22376,note_on,,,,,94,0,6,,,,,5,,,,75,0
22378,note_on,,,,,2,0,6,,,,,5,,,,75,108
22462,note_on,,,,,94,0,5,,,,,4,,,,79,0
22464,note_on,,,,,94,0,7,,,,,6,,,,70,0
22464,note_on,,,,,2,0,5,,,,,4,,,,79,108
22466,note_on,,,,,2,0,7,,,,,6,,,,70,108
22468,note_on,,,,,94,0,9,,,,,8,,,,51,0
22470,note_on,,,,,2,0,9,,,,,8,,,,46,108
22470,note_on,,,,,94,0,8,,,,,7,,,,63,0
22472,note_on,,,,,94,0,6,,,,,5,,,,75,0
22472,note_on,,,,,2,0,8,,,,,7,,,,58,108
22474,note_on,,,,,2,0,6,,,,,5,,,,75,108
22558,note_on,,,,,94,0,5,,,,,4,,,,79,0
22560,note_on,,,,,2,0,5,,,,,4,,,,79,108
22560,note_on,,,,,94,0,7,,,,,6,,,,70,0
22562,note_on,,,,,2,0,7,,,,,6,,,,70,108
22564,note_on,,,,,94,0,9,,,,,8,,,,46,0
22566,note_on,,,,,2,0,9,,,,,8,,,,46,108
22566,note_on,,,,,94,0,8,,,,,7,,,,58,0
22568,note_on,,,,,2,0,8,,,,,7,,,,58,108
22568,note_on,,,,,94,0,6,,,,,5,,,,75,0
22570,note_on,,,,,2,0,6,,,,,5,,,,75,108
22654,note_on,,,,,94,0,5,,,,,4,,,,79,0
22656,note_on,,,,,2,0,5,,,,,4,,,,79,108
22656,note_on,,,,,94,0,7,,,,,6,,,,70,0
22658,note_on,,,,,2,0,7,,,,,6,,,,67,108
22660,note_on,,,,,94,0,9,,,,,8,,,,46,0
22662,note_on,,,,,2,0,9,,,,,8,,,,48,108
22662,note_on,,,,,94,0,8,,,,,7,,,,58,0
22664,note_on,,,,,2,0,8,,,,,7,,,,60,108
22664,note_on,,,,,94,0,6,,,,,5,,,,75,0
22666,note_on,,,,,2,0,6,,,,,5,,,,75,108
22750,note_on,,,,,94,0,5,,,,,4,,,,79,0
22752,note_on,,,,,94,0,7,,,,,6,,,,67,0
22752,note_on,,,,,2,0,5,,,,,4,,,,79,108
22754,note_on,,,,,2,0,7,,,,,6,,,,67,108
22756,note_on,,,,,94,0,9,,,,,8,,,,48,0
22758,note_on,,,,,94,0,8,,,,,7,,,,60,0
22758,note_on,,,,,2,0,9,,,,,8,,,,48,108
22760,note_on,,,,,94,0,6,,,,,5,,,,75,0
22760,note_on,,,,,2,0,8,,,,,7,,,,60,108
22762,note_on,,,,,2,0,6,,,,,5,,,,75,108
22846,note_on,,,,,94,0,5,,,,,4,,,,79,0
22848,note_on,,,,,2,0,5,,,,,4,,,,79,108
22848,note_on,,,,,94,0,7,,,,,6,,,,67,0
22850,note_on,,,,,2,0,7,,,,,6,,,,70,108
22852,note_on,,,,,94,0,9,,,,,8,,,,48,0
22854,note_on,,,,,94,0,8,,,,,7,,,,60,0
22854,note_on,,,,,2,0,9,,,,,8,,,,43,108
22856,note_on,,,,,94,0,6,,,,,5,,,,75,0
22856,note_on,,,,,2,0,8,,,,,7,,,,55,108
22858,note_on,,,,,2,0,6,,,,,5,,,,75,108
22942,note_on,,,,,94,0,5,,,,,4,,,,79,0
22944,note_on,,,,,2,0,5,,,,,4,,,,79,108
22944,note_on,,,,,94,0,7,,,,,6,,,,70,0
22946,note_on,,,,,2,0,7,,,,,6,,,,70,108
22948,note_on,,,,,94,0,9,,,,,8,,,,43,0
22950,note_on,,,,,94,0,8,,,,,7,,,,55,0
22950,note_on,,,,,2,0,9,,,,,8,,,,43,108
22952,note_on,,,,,2,0,8,,,,,7,,,,55,108
22952,note_on,,,,,94,0,6,,,,,5,,,,75,0
22954,note_on,,,,,2,0,6,,,,,5,,,,75,108
22999,note_on,,,,,720,0,2,,,,,1,,,,67,0
23038,note_on,,,,,94,0,5,,,,,4,,,,79,0
23040,note_on,,,,,2,0,5,,,,,4,,,,77,108
23040,note_on,,,,,94,0,7,,,,,6,,,,70,0
23042,note_on,,,,,2,0,7,,,,,6,,,,72,108
23044,note_on,,,,,94,0,9,,,,,8,,,,43,0
23044,note_on,,,,,768,0,1,,,,,0,,,,79,0
23044,note_on,,,,,0,0,1,,,,,0,,,,77,108
23046,note_on,,,,,94,0,8,,,,,7,,,,55,0
23046,note_on,,,,,2,0,9,,,,,8,,,,44,108
23047,note_on,,,,,48,0,2,,,,,1,,,,65,108
23048,note_on,,,,,94,0,6,,,,,5,,,,75,0
23048,note_on,,,,,2,0,8,,,,,7,,,,56,108
23050,note_on,,,,,2,0,6,,,,,5,,,,75,108
23134,note_on,,,,,94,0,5,,,,,4,,,,77,0
23136,note_on,,,,,94,0,7,,,,,6,,,,72,0
23136,note_on,,,,,2,0,5,,,,,4,,,,77,108
23138,note_on,,,,,2,0,7,,,,,6,,,,72,108
23140,note_on,,,,,94,0,9,,,,,8,,,,44,0
23142,note_on,,,,,2,0,9,,,,,8,,,,44,108
23142,note_on,,,,,94,0,8,,,,,7,,,,56,0
23144,note_on,,,,,94,0,6,,,,,5,,,,75,0
23144,note_on,,,,,2,0,8,,,,,7,,,,56,108
23146,note_on,,,,,2,0,6,,,,,5,,,,75,108
23230,note_on,,,,,94,0,5,,,,,4,,,,77,0
23232,note_on,,,,,94,0,7,,,,,6,,,,72,0
23232,note_on,,,,,2,0,5,,,,,4,,,,77,108
23234,note_on,,,,,2,0,7,,,,,6,,,,72,108
23236,note_on,,,,,94,0,9,,,,,8,,,,44,0
23238,note_on,,,,,2,0,9,,,,,8,,,,41,108
23238,note_on,,,,,94,0,8,,,,,7,,,,56,0
23240,note_on,,,,,94,0,6,,,,,5,,,,75,0
23240,note_on,,,,,2,0,8,,,,,7,,,,53,108
23242,note_on,,,,,2,0,6,,,,,5,,,,75,108
23326,note_on,,,,,94,0,5,,,,,4,,,,77,0
23328,note_on,,,,,2,0,5,,,,,4,,,,77,108
23328,note_on,,,,,94,0,7,,,,,6,,,,72,0
23330,note_on,,,,,2,0,7,,,,,6,,,,72,108
23332,note_on,,,,,94,0,9,,,,,8,,,,41,0
23334,note_on,,,,,2,0,9,,,,,8,,,,41,108
23334,note_on,,,,,94,0,8,,,,,7,,,,53,0
23336,note_on,,,,,94,0,6,,,,,5,,,,75,0
23336,note_on,,,,,2,0,8,,,,,7,,,,53,108
23338,note_on,,,,,2,0,6,,,,,5,,,,75,108
23383,note_on,,,,,336,0,2,,,,,1,,,,63,0
23422,note_on,,,,,94,0,5,,,,,4,,,,77,0
23424,note_on,,,,,2,0,5,,,,,4,,,,77,108
23424,note_on,,,,,94,0,7,,,,,6,,,,72,0
23426,note_on,,,,,2,0,7,,,,,6,,,,70,108
23428,note_on,,,,,0,0,1,,,,,0,,,,74,108
23428,note_on,,,,,384,0,1,,,,,0,,,,75,0
23428,note_on,,,,,94,0,9,,,,,8,,,,41,0
23430,note_on,,,,,94,0,8,,,,,7,,,,53,0
23430,note_on,,,,,2,0,9,,,,,8,,,,46,108
23431,note_on,,,,,48,0,2,,,,,1,,,,58,108
23432,note_on,,,,,94,0,6,,,,,5,,,,75,0
23432,note_on,,,,,2,0,8,,,,,7,,,,58,108
23434,note_on,,,,,2,0,6,,,,,5,,,,74,108
23518,note_on,,,,,94,0,5,,,,,4,,,,77,0
23520,note_on,,,,,94,0,7,,,,,6,,,,70,0
23520,note_on,,,,,2,0,5,,,,,4,,,,77,108
23522,note_on,,,,,2,0,7,,,,,6,,,,70,108
23524,note_on,,,,,94,0,9,,,,,8,,,,46,0
23526,note_on,,,,,94,0,8,,,,,7,,,,58,0
23526,note_on,,,,,2,0,9,,,,,8,,,,46,108
23528,note_on,,,,,2,0,8,,,,,7,,,,58,108
23528,note_on,,,,,94,0,6,,,,,5,,,,74,0
23530,note_on,,,,,2,0,6,,,,,5,,,,74,108
23614,note_on,,,,,94,0,5,,,,,4,,,,77,0
23616,note_on,,,,,2,0,5,,,,,4,,,,77,108
23616,note_on,,,,,94,0,7,,,,,6,,,,70,0
23618,note_on,,,,,2,0,7,,,,,6,,,,70,108
23620,note_on,,,,,94,0,9,,,,,8,,,,46,0
23622,note_on,,,,,94,0,8,,,,,7,,,,58,0
23622,note_on,,,,,2,0,9,,,,,8,,,,34,108
23624,note_on,,,,,94,0,6,,,,,5,,,,74,0
23624,note_on,,,,,2,0,8,,,,,7,,,,46,108
23626,note_on,,,,,2,0,6,,,,,5,,,,74,108
23710,note_on,,,,,94,0,5,,,,,4,,,,77,0
23712,note_on,,,,,2,0,5,,,,,4,,,,77,108
23712,note_on,,,,,94,0,7,,,,,6,,,,70,0
23714,note_on,,,,,2,0,7,,,,,6,,,,70,108
23716,note_on,,,,,94,0,9,,,,,8,,,,34,0
23718,note_on,,,,,2,0,9,,,,,8,,,,34,108
23718,note_on,,,,,94,0,8,,,,,7,,,,46,0
23720,note_on,,,,,94,0,6,,,,,5,,,,74,0
23720,note_on,,,,,2,0,8,,,,,7,,,,46,108
23722,note_on,,,,,2,0,6,,,,,5,,,,74,108
23764,note_on,,,,,336,0,1,,,,,0,,,,74,0
23764,note_on,,,,,0,0,1,,,,,0,,,,77,0
23767,note_on,,,,,336,0,2,,,,,1,,,,58,0
23767,note_on,,,,,0,0,2,,,,,1,,,,65,0
23806,note_on,,,,,94,0,5,,,,,4,,,,77,0
23808,note_on,,,,,2,0,5,,,,,4,,,,75,108
23808,note_on,,,,,94,0,7,,,,,6,,,,70,0
23810,note_on,,,,,2,0,7,,,,,6,,,,67,108
23812,note_on,,,,,48,0,1,,,,,0,,,,75,108
23812,note_on,,,,,94,0,9,,,,,8,,,,34,0
23814,note_on,,,,,2,0,9,,,,,8,,,,39,108
23814,note_on,,,,,94,0,8,,,,,7,,,,46,0
23815,note_on,,,,,0,0,2,,,,,1,,,,63,108
23815,note_on,,,,,48,0,2,,,,,1,,,,55,108
23816,note_on,,,,,2,0,8,,,,,7,,,,51,108
23816,note_on,,,,,94,0,6,,,,,5,,,,74,0
23818,note_on,,,,,2,0,6,,,,,5,,,,75,108
24144,note_on,,,,,336,0,5,,,,,4,,,,75,0
24146,note_on,,,,,336,0,7,,,,,6,,,,67,0
24148,note_on,,,,,336,0,1,,,,,0,,,,75,0
24150,note_on,,,,,336,0,9,,,,,8,,,,39,0
24151,note_on,,,,,0,0,2,,,,,1,,,,55,0
24151,note_on,,,,,336,0,2,,,,,1,,,,63,0
24152,note_on,,,,,336,0,8,,,,,7,,,,51,0
24154,note_on,,,,,336,0,6,,,,,5,,,,75,0
24192,note_on,,,,,0,0,5,,,,,4,,,,63,92
24192,set_tempo,,,,,1920,1,0,,292683,,,,,,,,
24192,note_on,,,,,48,0,5,,,,,4,,,,55,92
24194,note_on,,,,,48,0,7,,,,,6,,,,58,92
24196,note_on,,,,,48,0,1,,,,,0,,,,75,92
24198,note_on,,,,,48,0,9,,,,,8,,,,39,92
24199,note_on,,,,,48,0,2,,,,,1,,,,51,92
24200,note_on,,,,,48,0,8,,,,,7,,,,51,92
24202,note_on,,,,,0,0,6,,,,,5,,,,63,92
24202,note_on,,,,,48,0,6,,,,,5,,,,55,92
24448,note_on,,,,,0,0,5,,,,,4,,,,55,0
24448,note_on,,,,,256,0,5,,,,,4,,,,63,0
24450,note_on,,,,,256,0,7,,,,,6,,,,58,0
24452,note_on,,,,,256,0,1,,,,,0,,,,75,0
24454,note_on,,,,,256,0,9,,,,,8,,,,39,0
24455,note_on,,,,,256,0,2,,,,,1,,,,51,0
24456,note_on,,,,,256,0,8,,,,,7,,,,51,0
24458,note_on,,,,,0,0,6,,,,,5,,,,55,0
24458,note_on,,,,,256,0,6,,,,,5,,,,63,0
24480,note_on,,,,,32,0,5,,,,,4,,,,63,92
24482,note_on,,,,,32,0,7,,,,,6,,,,58,92
24484,note_on,,,,,32,0,1,,,,,0,,,,75,92
24486,note_on,,,,,32,0,9,,,,,8,,,,39,92
24487,note_on,,,,,32,0,2,,,,,1,,,,51,92
24488,note_on,,,,,32,0,8,,,,,7,,,,51,92
24490,note_on,,,,,32,0,6,,,,,5,,,,63,92
24574,note_on,,,,,94,0,5,,,,,4,,,,63,0
24576,note_on,,,,,2,0,5,,,,,4,,,,55,92
24576,set_tempo,,,,,384,1,0,,315789,,,,,,,,
24576,note_on,,,,,94,0,7,,,,,6,,,,58,0
24576,note_on,,,,,0,0,5,,,,,4,,,,63,92
24578,note_on,,,,,2,0,7,,,,,6,,,,58,92
24578,note_on,,,,,94,0,1,,,,,0,,,,75,0
24580,note_on,,,,,94,0,9,,,,,8,,,,39,0
24580,note_on,,,,,2,0,1,,,,,0,,,,75,92
24581,note_on,,,,,94,0,2,,,,,1,,,,51,0
24582,note_on,,,,,94,0,8,,,,,7,,,,51,0
24582,note_on,,,,,2,0,9,,,,,8,,,,39,92
24583,note_on,,,,,2,0,2,,,,,1,,,,51,92
24584,note_on,,,,,2,0,8,,,,,7,,,,51,92
24584,note_on,,,,,94,0,6,,,,,5,,,,63,0
24586,note_on,,,,,2,0,6,,,,,5,,,,55,92
24586,note_on,,,,,0,0,6,,,,,5,,,,63,92
24912,note_on,,,,,0,0,5,,,,,4,,,,55,0
24912,note_on,,,,,336,0,5,,,,,4,,,,63,0
24914,note_on,,,,,336,0,7,,,,,6,,,,58,0
24916,note_on,,,,,336,0,1,,,,,0,,,,75,0
24918,note_on,,,,,336,0,9,,,,,8,,,,39,0
24919,note_on,,,,,336,0,2,,,,,1,,,,51,0
24920,note_on,,,,,336,0,8,,,,,7,,,,51,0
24922,note_on,,,,,0,0,6,,,,,5,,,,55,0
24922,note_on,,,,,336,0,6,,,,,5,,,,63,0
25152,set_tempo,,,,,576,1,0,,244898,,,,,,,,
25154,note_on,,,,,24618,0,3,,,,,2,,,,72,92
25202,note_on,,,,,48,0,3,,,,,2,,,,72,0
25202,note_on,,,,,0,0,3,,,,,2,,,,70,92
25250,note_on,,,,,48,0,3,,,,,2,,,,70,0
25250,note_on,,,,,0,0,3,,,,,2,,,,69,92
25298,note_on,,,,,48,0,3,,,,,2,,,,69,0
25298,note_on,,,,,0,0,3,,,,,2,,,,70,92
25344,set_tempo,,,,,192,1,0,,272727,,,,,,,,
25344,note_on,,,,,46,0,3,,,,,2,,,,70,0
25346,note_on,,,,,2,0,3,,,,,2,,,,75,108
25506,note_on,,,,,160,0,3,,,,,2,,,,75,0
25538,note_on,,,,,32,0,3,,,,,2,,,,70,108
25698,note_on,,,,,160,0,3,,,,,2,,,,70,0
25730,note_on,,,,,32,0,3,,,,,2,,,,72,108
25734,note_on,,,,,25194,0,4,,,,,3,,,,51,75
25734,note_on,,,,,0,0,4,,,,,3,,,,55,75
25890,note_on,,,,,160,0,3,,,,,2,,,,72,0
25920,set_tempo,,,,,576,1,0,,244898,,,,,,,,
25922,note_on,,,,,32,0,3,,,,,2,,,,68,92
25970,note_on,,,,,48,0,3,,,,,2,,,,68,0
25970,note_on,,,,,0,0,3,,,,,2,,,,67,92
26018,note_on,,,,,0,0,3,,,,,2,,,,65,92
26018,note_on,,,,,48,0,3,,,,,2,,,,67,0
26066,note_on,,,,,0,0,3,,,,,2,,,,67,92
26066,note_on,,,,,48,0,3,,,,,2,,,,65,0
26070,note_on,,,,,336,0,4,,,,,3,,,,55,0
26112,set_tempo,,,,,192,1,0,,272727,,,,,,,,
26112,note_on,,,,,46,0,3,,,,,2,,,,67,0
26114,note_on,,,,,2,0,3,,,,,2,,,,68,127
26118,note_on,,,,,48,0,4,,,,,3,,,,60,75
26274,note_on,,,,,160,0,3,,,,,2,,,,68,0
26306,note_on,,,,,32,0,3,,,,,2,,,,65,92
26454,note_on,,,,,336,0,4,,,,,3,,,,60,0
26454,note_on,,,,,0,0,4,,,,,3,,,,51,0
26466,note_on,,,,,160,0,3,,,,,2,,,,65,0
26498,note_on,,,,,32,0,3,,,,,2,,,,58,92
26502,note_on,,,,,48,0,4,,,,,3,,,,50,75
26502,note_on,,,,,0,0,4,,,,,3,,,,53,75
26658,note_on,,,,,160,0,3,,,,,2,,,,58,0
26688,set_tempo,,,,,576,1,0,,255319,,,,,,,,
26690,note_on,,,,,32,0,3,,,,,2,,,,72,108
26738,note_on,,,,,48,0,3,,,,,2,,,,72,0
26738,note_on,,,,,0,0,3,,,,,2,,,,70,108
26786,note_on,,,,,0,0,3,,,,,2,,,,69,108
26786,note_on,,,,,48,0,3,,,,,2,,,,70,0
26834,note_on,,,,,0,0,3,,,,,2,,,,70,108
26834,note_on,,,,,48,0,3,,,,,2,,,,69,0
26838,note_on,,,,,0,0,4,,,,,3,,,,50,0
26838,note_on,,,,,336,0,4,,,,,3,,,,53,0
26880,note_on,,,,,46,0,3,,,,,2,,,,70,0
26880,set_tempo,,,,,192,1,0,,279070,,,,,,,,
26882,note_on,,,,,2,0,3,,,,,2,,,,67,127
26886,note_on,,,,,48,0,4,,,,,3,,,,51,75
27042,note_on,,,,,160,0,3,,,,,2,,,,67,0
27046,note_on,,,,,160,0,4,,,,,3,,,,51,0
27074,note_on,,,,,32,0,3,,,,,2,,,,63,108
27078,note_on,,,,,32,0,4,,,,,3,,,,48,75
27234,note_on,,,,,160,0,3,,,,,2,,,,63,0
27238,note_on,,,,,160,0,4,,,,,3,,,,48,0
27266,note_on,,,,,32,0,3,,,,,2,,,,60,108
27270,note_on,,,,,32,0,4,,,,,3,,,,44,75
27426,note_on,,,,,160,0,3,,,,,2,,,,60,0
27430,note_on,,,,,160,0,4,,,,,3,,,,44,0
27458,note_on,,,,,32,0,3,,,,,2,,,,72,108
27462,note_on,,,,,32,0,4,,,,,3,,,,41,75
27618,note_on,,,,,160,0,3,,,,,2,,,,72,0
27622,note_on,,,,,160,0,4,,,,,3,,,,41,0
27648,set_tempo,,,,,768,1,0,,292683,,,,,,,,
27650,note_on,,,,,32,0,3,,,,,2,,,,63,75
27842,note_on,,,,,192,0,3,,,,,2,,,,63,0
27842,note_on,,,,,0,0,3,,,,,2,,,,62,75
27846,note_on,,,,,224,0,4,,,,,3,,,,46,75
28002,note_on,,,,,160,0,3,,,,,2,,,,62,0
28006,note_on,,,,,160,0,4,,,,,3,,,,46,0
28038,note_on,,,,,32,0,4,,,,,3,,,,44,75
28198,note_on,,,,,160,0,4,,,,,3,,,,44,0
28224,set_tempo,,,,,576,1,0,,244898,,,,,,,,
28226,note_on,,,,,224,0,3,,,,,2,,,,65,108
28230,note_on,,,,,32,0,4,,,,,3,,,,43,78
28274,note_on,,,,,48,0,3,,,,,2,,,,65,0
28274,note_on,,,,,0,0,3,,,,,2,,,,63,108
28322,note_on,,,,,0,0,3,,,,,2,,,,62,108
28322,note_on,,,,,48,0,3,,,,,2,,,,63,0
28370,note_on,,,,,0,0,3,,,,,2,,,,63,108
28370,note_on,,,,,48,0,3,,,,,2,,,,62,0
28390,note_on,,,,,160,0,4,,,,,3,,,,43,0
28416,note_on,,,,,46,0,3,,,,,2,,,,63,0
28416,set_tempo,,,,,192,1,0,,272727,,,,,,,,
28418,note_on,,,,,2,0,3,,,,,2,,,,60,127
28422,note_on,,,,,32,0,4,,,,,3,,,,44,81
28578,note_on,,,,,160,0,3,,,,,2,,,,60,0
28582,note_on,,,,,160,0,4,,,,,3,,,,44,0
28610,note_on,,,,,32,0,3,,,,,2,,,,65,108
28614,note_on,,,,,32,0,4,,,,,3,,,,45,84
28770,note_on,,,,,160,0,3,,,,,2,,,,65,0
28774,note_on,,,,,160,0,4,,,,,3,,,,45,0
28802,note_on,,,,,32,0,3,,,,,2,,,,62,108
28806,note_on,,,,,32,0,4,,,,,3,,,,46,87
28962,note_on,,,,,160,0,3,,,,,2,,,,62,0
28966,note_on,,,,,160,0,4,,,,,3,,,,46,0
28992,set_tempo,,,,,576,1,0,,244898,,,,,,,,
28994,note_on,,,,,32,0,3,,,,,2,,,,68,92
28998,note_on,,,,,32,0,4,,,,,3,,,,47,90
29042,note_on,,,,,0,0,3,,,,,2,,,,67,92
29042,note_on,,,,,48,0,3,,,,,2,,,,68,0
29090,note_on,,,,,48,0,3,,,,,2,,,,67,0
29090,note_on,,,,,0,0,3,,,,,2,,,,65,92
29138,note_on,,,,,48,0,3,,,,,2,,,,65,0
29138,note_on,,,,,0,0,3,,,,,2,,,,67,92
29158,note_on,,,,,160,0,4,,,,,3,,,,47,0
29184,set_tempo,,,,,192,1,0,,272727,,,,,,,,
29184,note_on,,,,,46,0,3,,,,,2,,,,67,0
29186,note_on,,,,,2,0,3,,,,,2,,,,63,127
29190,note_on,,,,,32,0,4,,,,,3,,,,48,93
29346,note_on,,,,,160,0,3,,,,,2,,,,63,0
29378,note_on,,,,,32,0,3,,,,,2,,,,68,92
29526,note_on,,,,,336,0,4,,,,,3,,,,48,0
29538,note_on,,,,,160,0,3,,,,,2,,,,68,0
29570,note_on,,,,,32,0,3,,,,,2,,,,65,92
29574,note_on,,,,,48,0,4,,,,,3,,,,50,100
29730,note_on,,,,,160,0,3,,,,,2,,,,65,0
29760,set_tempo,,,,,576,1,0,,255319,,,,,,,,
29762,note_on,,,,,32,0,3,,,,,2,,,,72,92
29810,note_on,,,,,48,0,3,,,,,2,,,,72,0
29810,note_on,,,,,0,0,3,,,,,2,,,,70,92
29858,note_on,,,,,0,0,3,,,,,2,,,,69,92
29858,note_on,,,,,48,0,3,,,,,2,,,,70,0
29906,note_on,,,,,48,0,3,,,,,2,,,,69,0
29906,note_on,,,,,0,0,3,,,,,2,,,,70,92
29910,note_on,,,,,336,0,4,,,,,3,,,,50,0
29952,set_tempo,,,,,192,1,0,,272727,,,,,,,,
29952,note_on,,,,,46,0,3,,,,,2,,,,70,0
29954,note_on,,,,,2,0,3,,,,,2,,,,67,108
29958,note_on,,,,,48,0,4,,,,,3,,,,51,108
30146,note_on,,,,,192,0,3,,,,,2,,,,72,108
30150,note_on,,,,,192,0,4,,,,,3,,,,63,108
30338,note_on,,,,,0,0,3,,,,,2,,,,70,108
30338,note_on,,,,,192,0,3,,,,,2,,,,72,0
30338,note_on,,,,,0,0,3,,,,,2,,,,65,108
30338,note_on,,,,,0,0,3,,,,,2,,,,67,0
30342,note_on,,,,,0,0,4,,,,,3,,,,62,108
30342,note_on,,,,,0,0,4,,,,,3,,,,53,108
30342,note_on,,,,,192,0,4,,,,,3,,,,63,0
30342,note_on,,,,,0,0,4,,,,,3,,,,51,0
30530,note_on,,,,,0,0,3,,,,,2,,,,69,108
30530,note_on,,,,,192,0,3,,,,,2,,,,70,0
30530,note_on,,,,,0,0,3,,,,,2,,,,65,0
30530,note_on,,,,,0,0,3,,,,,2,,,,63,108
30534,note_on,,,,,0,0,4,,,,,3,,,,60,108
30534,note_on,,,,,192,0,4,,,,,3,,,,62,0
30690,note_on,,,,,160,0,3,,,,,2,,,,69,0
30690,note_on,,,,,0,0,3,,,,,2,,,,63,0
30694,note_on,,,,,0,0,4,,,,,3,,,,53,0
30694,note_on,,,,,160,0,4,,,,,3,,,,60,0
30720,set_tempo,,,,,768,1,0,,300000,,,,,,,,
30722,note_on,,,,,32,0,3,,,,,2,,,,63,92
30722,note_on,,,,,0,0,3,,,,,2,,,,69,92
30914,note_on,,,,,192,0,3,,,,,2,,,,69,0
30914,note_on,,,,,0,0,3,,,,,2,,,,62,92
30914,note_on,,,,,0,0,3,,,,,2,,,,70,92
30914,note_on,,,,,0,0,3,,,,,2,,,,63,0
30918,note_on,,,,,224,0,4,,,,,3,,,,58,92
31074,note_on,,,,,0,0,3,,,,,2,,,,62,0
31074,note_on,,,,,160,0,3,,,,,2,,,,70,0
31078,note_on,,,,,160,0,4,,,,,3,,,,58,0
31110,note_on,,,,,32,0,4,,,,,3,,,,46,92
31200,set_tempo,,,,,480,1,0,,279070,,,,,,,,
31202,note_on,,,,,128,0,3,,,,,2,,,,70,60
31270,note_on,,,,,160,0,4,,,,,3,,,,46,0
31296,note_on,,,,,6384,0,5,,,,,4,,,,70,53
31298,note_on,,,,,96,0,3,,,,,2,,,,70,0
31298,note_on,,,,,0,0,3,,,,,2,,,,72,60
31321,set_tempo,,,,,121,1,0,,277778,,,,,,,,
31344,note_on,,,,,48,0,5,,,,,4,,,,70,0
31394,note_on,,,,,96,0,3,,,,,2,,,,72,0
31394,note_on,,,,,0,0,3,,,,,2,,,,74,60
31443,set_tempo,,,,,122,1,0,,276498,,,,,,,,
31488,note_on,,,,,144,0,5,,,,,4,,,,75,53
31490,note_on,,,,,0,0,3,,,,,2,,,,75,75
31490,note_on,,,,,96,0,3,,,,,2,,,,74,0
31536,note_on,,,,,48,0,5,,,,,4,,,,75,0
31564,set_tempo,,,,,121,1,0,,275229,,,,,,,,
31586,note_on,,,,,0,0,3,,,,,2,,,,77,75
31586,note_on,,,,,96,0,3,,,,,2,,,,75,0
31680,note_on,,,,,144,0,5,,,,,4,,,,70,53
31682,note_on,,,,,96,0,3,,,,,2,,,,77,0
31682,note_on,,,,,0,0,3,,,,,2,,,,79,75
31686,set_tempo,,,,,122,1,0,,273973,,,,,,,,
31728,note_on,,,,,48,0,5,,,,,4,,,,70,0
31778,note_on,,,,,0,0,3,,,,,2,,,,74,75
31778,note_on,,,,,96,0,3,,,,,2,,,,79,0
31807,set_tempo,,,,,121,1,0,,272727,,,,,,,,
31872,note_on,,,,,144,0,5,,,,,4,,,,72,53
31874,note_on,,,,,0,0,3,,,,,2,,,,75,75
31874,note_on,,,,,96,0,3,,,,,2,,,,74,0
31878,note_on,,,,,608,0,4,,,,,3,,,,51,92
31920,note_on,,,,,48,0,5,,,,,4,,,,72,0
31929,set_tempo,,,,,122,1,0,,271493,,,,,,,,
31970,note_on,,,,,96,0,3,,,,,2,,,,75,0
31970,note_on,,,,,0,0,3,,,,,2,,,,70,75
32051,set_tempo,,,,,122,1,0,,270270,,,,,,,,
32064,note_on,,,,,144,0,5,,,,,4,,,,67,53
32066,note_on,,,,,96,0,3,,,,,2,,,,70,0
32066,note_on,,,,,0,0,3,,,,,2,,,,72,75
32112,note_on,,,,,48,0,5,,,,,4,,,,67,0
32162,note_on,,,,,0,0,3,,,,,2,,,,67,75
32162,note_on,,,,,96,0,3,,,,,2,,,,72,0
32172,set_tempo,,,,,121,1,0,,269058,,,,,,,,
32214,note_on,,,,,336,0,4,,,,,3,,,,51,0
32256,note_on,,,,,144,0,5,,,,,4,,,,68,53
32258,note_on,,,,,0,0,3,,,,,2,,,,68,75
32258,note_on,,,,,96,0,3,,,,,2,,,,67,0
32262,note_on,,,,,48,0,4,,,,,3,,,,53,92
32294,set_tempo,,,,,122,1,0,,267857,,,,,,,,
32304,note_on,,,,,48,0,5,,,,,4,,,,68,0
32354,note_on,,,,,96,0,3,,,,,2,,,,68,0
32354,note_on,,,,,0,0,3,,,,,2,,,,63,75
32415,set_tempo,,,,,121,1,0,,266667,,,,,,,,
32448,note_on,,,,,144,0,5,,,,,4,,,,60,53
32450,note_on,,,,,96,0,3,,,,,2,,,,63,0
32450,note_on,,,,,0,0,3,,,,,2,,,,65,75
32496,note_on,,,,,48,0,5,,,,,4,,,,60,0
32537,set_tempo,,,,,122,1,0,,265487,,,,,,,,
32546,note_on,,,,,96,0,3,,,,,2,,,,65,0
32546,note_on,,,,,0,0,3,,,,,2,,,,60,75
32598,note_on,,,,,336,0,4,,,,,3,,,,53,0
32640,note_on,,,,,144,0,5,,,,,4,,,,62,53
32642,note_on,,,,,96,0,3,,,,,2,,,,60,0
32642,note_on,,,,,0,0,3,,,,,2,,,,62,75
32646,note_on,,,,,48,0,4,,,,,3,,,,46,92
32659,set_tempo,,,,,122,1,0,,264317,,,,,,,,
32688,note_on,,,,,48,0,5,,,,,4,,,,62,0
32738,note_on,,,,,0,0,3,,,,,2,,,,72,75
32738,note_on,,,,,96,0,3,,,,,2,,,,62,0
32780,set_tempo,,,,,121,1,0,,263158,,,,,,,,
32832,note_on,,,,,144,0,5,,,,,4,,,,70,53
32834,note_on,,,,,0,0,3,,,,,2,,,,70,75
32834,note_on,,,,,96,0,3,,,,,2,,,,72,0
32880,note_on,,,,,48,0,5,,,,,4,,,,70,0
32902,set_tempo,,,,,122,1,0,,262009,,,,,,,,
32930,note_on,,,,,96,0,3,,,,,2,,,,70,0
32930,note_on,,,,,0,0,3,,,,,2,,,,68,75
32982,note_on,,,,,336,0,4,,,,,3,,,,46,0
33024,note_on,,,,,144,0,5,,,,,4,,,,67,53
33024,set_tempo,,,,,122,1,0,,260870,,,,,,,,
33026,note_on,,,,,0,0,3,,,,,2,,,,67,75
33026,note_on,,,,,96,0,3,,,,,2,,,,68,0
33030,note_on,,,,,48,0,4,,,,,3,,,,51,92
33072,note_on,,,,,48,0,5,,,,,4,,,,67,0
33122,note_on,,,,,0,0,3,,,,,2,,,,62,75
33122,note_on,,,,,96,0,3,,,,,2,,,,67,0
33216,note_on,,,,,144,0,5,,,,,4,,,,58,53
33218,note_on,,,,,0,0,3,,,,,2,,,,63,75
33218,note_on,,,,,96,0,3,,,,,2,,,,62,0
33264,note_on,,,,,48,0,5,,,,,4,,,,58,0
33314,note_on,,,,,0,0,3,,,,,2,,,,58,75
33314,note_on,,,,,96,0,3,,,,,2,,,,63,0
33366,note_on,,,,,336,0,4,,,,,3,,,,51,0
33408,note_on,,,,,144,0,5,,,,,4,,,,60,53
33410,note_on,,,,,0,0,3,,,,,2,,,,60,75
33410,note_on,,,,,96,0,3,,,,,2,,,,58,0
33414,note_on,,,,,48,0,4,,,,,3,,,,44,92
33456,note_on,,,,,48,0,5,,,,,4,,,,60,0
33506,note_on,,,,,96,0,3,,,,,2,,,,60,0
33506,note_on,,,,,0,0,3,,,,,2,,,,72,75
33574,note_on,,,,,160,0,4,,,,,3,,,,44,0
33600,note_on,,,,,144,0,5,,,,,4,,,,72,53
33602,note_on,,,,,0,0,3,,,,,2,,,,68,75
33602,note_on,,,,,96,0,3,,,,,2,,,,72,0
33606,note_on,,,,,32,0,4,,,,,3,,,,41,92
33648,note_on,,,,,48,0,5,,,,,4,,,,72,0
33698,note_on,,,,,0,0,3,,,,,2,,,,65,75
33698,note_on,,,,,96,0,3,,,,,2,,,,68,0
33766,note_on,,,,,160,0,4,,,,,3,,,,41,0
33792,note_on,,,,,144,0,5,,,,,4,,,,63,53
33794,note_on,,,,,96,0,3,,,,,2,,,,65,0
33794,note_on,,,,,0,0,3,,,,,2,,,,63,60
33798,note_on,,,,,32,0,4,,,,,3,,,,46,92
33890,note_on,,,,,0,0,3,,,,,2,,,,67,60
33890,note_on,,,,,96,0,3,,,,,2,,,,63,0
33984,note_on,,,,,192,0,5,,,,,4,,,,63,0
33984,note_on,,,,,0,0,5,,,,,4,,,,62,53
33984,set_tempo,,,,,960,1,0,,292683,,,,,,,,
33986,note_on,,,,,96,0,3,,,,,2,,,,67,0
33986,note_on,,,,,0,0,3,,,,,2,,,,65,60
34082,note_on,,,,,96,0,3,,,,,2,,,,65,0
34082,note_on,,,,,0,0,3,,,,,2,,,,63,60
34144,note_on,,,,,160,0,5,,,,,4,,,,62,0
34176,set_tempo,,,,,192,1,0,,272727,,,,,,,,
34178,note_on,,,,,96,0,3,,,,,2,,,,63,0
34178,note_on,,,,,0,0,3,,,,,2,,,,62,60
34274,note_on,,,,,96,0,3,,,,,2,,,,62,0
34274,note_on,,,,,0,0,3,,,,,2,,,,65,60
34326,note_on,,,,,528,0,4,,,,,3,,,,46,0
34368,set_tempo,,,,,192,1,0,,271493,,,,,,,,
34368,note_on,,,,,224,0,5,,,,,4,,,,63,53
34370,note_on,,,,,96,0,3,,,,,2,,,,65,0
34370,note_on,,,,,0,0,3,,,,,2,,,,63,60
34374,note_on,,,,,48,0,4,,,,,3,,,,43,92
34416,note_on,,,,,48,0,5,,,,,4,,,,63,0
34466,note_on,,,,,96,0,3,,,,,2,,,,63,0
34466,note_on,,,,,0,0,3,,,,,2,,,,61,60
34534,note_on,,,,,160,0,4,,,,,3,,,,43,0
34560,set_tempo,,,,,192,1,0,,270270,,,,,,,,
34560,note_on,,,,,144,0,5,,,,,4,,,,60,53
34562,note_on,,,,,96,0,3,,,,,2,,,,61,0
34562,note_on,,,,,0,0,3,,,,,2,,,,60,60
34566,note_on,,,,,32,0,4,,,,,3,,,,44,92
34608,note_on,,,,,48,0,5,,,,,4,,,,60,0
34658,note_on,,,,,96,0,3,,,,,2,,,,60,0
34658,note_on,,,,,0,0,3,,,,,2,,,,67,60
34726,note_on,,,,,160,0,4,,,,,3,,,,44,0
34752,note_on,,,,,144,0,5,,,,,4,,,,65,53
34752,set_tempo,,,,,192,1,0,,269058,,,,,,,,
34754,note_on,,,,,96,0,3,,,,,2,,,,67,0
34754,note_on,,,,,0,0,3,,,,,2,,,,65,60
34758,note_on,,,,,32,0,4,,,,,3,,,,45,93
34800,note_on,,,,,48,0,5,,,,,4,,,,65,0
34850,note_on,,,,,96,0,3,,,,,2,,,,65,0
34850,note_on,,,,,0,0,3,,,,,2,,,,63,60
34918,note_on,,,,,160,0,4,,,,,3,,,,45,0
34944,set_tempo,,,,,192,1,0,,267857,,,,,,,,
34944,note_on,,,,,144,0,5,,,,,4,,,,62,53
34946,note_on,,,,,96,0,3,,,,,2,,,,63,0
34946,note_on,,,,,0,0,3,,,,,2,,,,62,75
34950,note_on,,,,,32,0,4,,,,,3,,,,46,94
34992,note_on,,,,,48,0,5,,,,,4,,,,62,0
35042,note_on,,,,,0,0,3,,,,,2,,,,68,75
35042,note_on,,,,,96,0,3,,,,,2,,,,62,0
35110,note_on,,,,,160,0,4,,,,,3,,,,46,0
35136,set_tempo,,,,,192,1,0,,266667,,,,,,,,
35136,note_on,,,,,144,0,5,,,,,4,,,,67,53
35138,note_on,,,,,0,0,3,,,,,2,,,,67,75
35138,note_on,,,,,96,0,3,,,,,2,,,,68,0
35142,note_on,,,,,32,0,4,,,,,3,,,,47,95
35184,note_on,,,,,48,0,5,,,,,4,,,,67,0
35234,note_on,,,,,0,0,3,,,,,2,,,,65,75
35234,note_on,,,,,96,0,3,,,,,2,,,,67,0
35302,note_on,,,,,160,0,4,,,,,3,,,,47,0
35328,set_tempo,,,,,192,1,0,,265487,,,,,,,,
35328,note_on,,,,,144,0,5,,,,,4,,,,63,53
35330,note_on,,,,,96,0,3,,,,,2,,,,65,0
35330,note_on,,,,,0,0,3,,,,,2,,,,63,75
35334,note_on,,,,,32,0,4,,,,,3,,,,48,96
35376,note_on,,,,,48,0,5,,,,,4,,,,63,0
35426,note_on,,,,,0,0,3,,,,,2,,,,70,75
35426,note_on,,,,,96,0,3,,,,,2,,,,63,0
35520,note_on,,,,,144,0,5,,,,,4,,,,68,53
35520,set_tempo,,,,,192,1,0,,264317,,,,,,,,
35522,note_on,,,,,0,0,3,,,,,2,,,,68,75
35522,note_on,,,,,96,0,3,,,,,2,,,,70,0
35526,note_on,,,,,0,0,4,,,,,3,,,,56,97
35526,note_on,,,,,192,0,4,,,,,3,,,,51,97
35568,note_on,,,,,48,0,5,,,,,4,,,,68,0
35618,note_on,,,,,96,0,3,,,,,2,,,,68,0
35618,note_on,,,,,0,0,3,,,,,2,,,,67,75
35686,note_on,,,,,160,0,4,,,,,3,,,,56,0
35686,note_on,,,,,0,0,4,,,,,3,,,,51,0
35686,note_on,,,,,0,0,4,,,,,3,,,,48,0
35712,set_tempo,,,,,192,1,0,,263158,,,,,,,,
35712,note_on,,,,,144,0,5,,,,,4,,,,65,53
35714,note_on,,,,,96,0,3,,,,,2,,,,67,0
35714,note_on,,,,,0,0,3,,,,,2,,,,65,75
35718,note_on,,,,,32,0,4,,,,,3,,,,50,98
35760,note_on,,,,,48,0,5,,,,,4,,,,65,0
35810,note_on,,,,,96,0,3,,,,,2,,,,65,0
35810,note_on,,,,,0,0,3,,,,,2,,,,72,75
35904,note_on,,,,,144,0,5,,,,,4,,,,70,53
35904,set_tempo,,,,,192,1,0,,262009,,,,,,,,
35906,note_on,,,,,96,0,3,,,,,2,,,,72,0
35906,note_on,,,,,0,0,3,,,,,2,,,,70,75
35910,note_on,,,,,0,0,4,,,,,3,,,,58,99
35910,note_on,,,,,192,0,4,,,,,3,,,,53,99
35952,note_on,,,,,48,0,5,,,,,4,,,,70,0
36002,note_on,,,,,96,0,3,,,,,2,,,,70,0
36002,note_on,,,,,0,0,3,,,,,2,,,,68,75
36070,note_on,,,,,0,0,4,,,,,3,,,,50,0
36070,note_on,,,,,160,0,4,,,,,3,,,,58,0
36070,note_on,,,,,0,0,4,,,,,3,,,,53,0
36096,set_tempo,,,,,192,1,0,,260870,,,,,,,,
36096,note_on,,,,,144,0,5,,,,,4,,,,67,53
36098,note_on,,,,,0,0,3,,,,,2,,,,67,92
36098,note_on,,,,,96,0,3,,,,,2,,,,68,0
36102,note_on,,,,,32,0,4,,,,,3,,,,51,100
36194,note_on,,,,,96,0,3,,,,,2,,,,67,0
36194,note_on,,,,,0,0,3,,,,,2,,,,79,92
36256,note_on,,,,,160,0,5,,,,,4,,,,67,0
36290,note_on,,,,,96,0,3,,,,,2,,,,79,0
36290,note_on,,,,,0,0,3,,,,,2,,,,77,92
36294,note_on,,,,,192,0,4,,,,,3,,,,55,101
36294,note_on,,,,,0,0,4,,,,,3,,,,58,101
36386,note_on,,,,,96,0,3,,,,,2,,,,77,0
36386,note_on,,,,,0,0,3,,,,,2,,,,75,92
36454,note_on,,,,,160,0,4,,,,,3,,,,58,0
36454,note_on,,,,,0,0,4,,,,,3,,,,51,0
36454,note_on,,,,,0,0,4,,,,,3,,,,55,0
36482,note_on,,,,,96,0,3,,,,,2,,,,75,0
36482,note_on,,,,,0,0,3,,,,,2,,,,74,92
36486,note_on,,,,,32,0,4,,,,,3,,,,53,102
36578,note_on,,,,,0,0,3,,,,,2,,,,80,92
36578,note_on,,,,,96,0,3,,,,,2,,,,74,0
36674,note_on,,,,,0,0,3,,,,,2,,,,79,92
36674,note_on,,,,,96,0,3,,,,,2,,,,80,0
36678,note_on,,,,,192,0,4,,,,,3,,,,56,103
36678,note_on,,,,,0,0,4,,,,,3,,,,62,103
36678,note_on,,,,,0,0,4,,,,,3,,,,58,103
36770,note_on,,,,,96,0,3,,,,,2,,,,79,0
36770,note_on,,,,,0,0,3,,,,,2,,,,77,92
36838,note_on,,,,,0,0,4,,,,,3,,,,53,0
36838,note_on,,,,,0,0,4,,,,,3,,,,56,0
36838,note_on,,,,,0,0,4,,,,,3,,,,58,0
36838,note_on,,,,,160,0,4,,,,,3,,,,62,0
36866,note_on,,,,,96,0,3,,,,,2,,,,77,0
36866,note_on,,,,,0,0,3,,,,,2,,,,84,108
36870,note_on,,,,,32,0,4,,,,,3,,,,55,104
36962,note_on,,,,,0,0,3,,,,,2,,,,82,108
36962,note_on,,,,,96,0,3,,,,,2,,,,84,0
37058,note_on,,,,,0,0,3,,,,,2,,,,80,108
37058,note_on,,,,,96,0,3,,,,,2,,,,82,0
37062,note_on,,,,,0,0,4,,,,,3,,,,63,105
37062,note_on,,,,,192,0,4,,,,,3,,,,58,105
37154,note_on,,,,,96,0,3,,,,,2,,,,80,0
37154,note_on,,,,,0,0,3,,,,,2,,,,79,108
37222,note_on,,,,,0,0,4,,,,,3,,,,58,0
37222,note_on,,,,,160,0,4,,,,,3,,,,63,0
37222,note_on,,,,,0,0,4,,,,,3,,,,55,0
37250,note_on,,,,,96,0,3,,,,,2,,,,79,0
37250,note_on,,,,,0,0,3,,,,,2,,,,77,75
37254,note_on,,,,,32,0,4,,,,,3,,,,56,106
37346,note_on,,,,,96,0,3,,,,,2,,,,77,0
37346,note_on,,,,,0,0,3,,,,,2,,,,75,75
37442,note_on,,,,,96,0,3,,,,,2,,,,75,0
37442,note_on,,,,,0,0,3,,,,,2,,,,74,75
37446,note_on,,,,,0,0,4,,,,,3,,,,65,107
37446,note_on,,,,,192,0,4,,,,,3,,,,60,107
37538,note_on,,,,,96,0,3,,,,,2,,,,74,0
37538,note_on,,,,,0,0,3,,,,,2,,,,72,75
37606,note_on,,,,,0,0,4,,,,,3,,,,60,0
37606,note_on,,,,,0,0,4,,,,,3,,,,56,0
37606,note_on,,,,,160,0,4,,,,,3,,,,65,0
37634,note_on,,,,,0,0,3,,,,,2,,,,70,75
37634,note_on,,,,,96,0,3,,,,,2,,,,72,0
37638,note_on,,,,,32,0,4,,,,,3,,,,58,108
37638,note_on,,,,,0,0,4,,,,,3,,,,63,108
37730,note_on,,,,,96,0,3,,,,,2,,,,70,0
37730,note_on,,,,,0,0,3,,,,,2,,,,75,75
37826,note_on,,,,,96,0,3,,,,,2,,,,75,0
37826,note_on,,,,,0,0,3,,,,,2,,,,67,75
37922,note_on,,,,,0,0,3,,,,,2,,,,70,75
37922,note_on,,,,,96,0,3,,,,,2,,,,67,0
37974,note_on,,,,,336,0,4,,,,,3,,,,63,0
38016,set_tempo,,,,,1920,1,0,,279070,,,,,,,,
38018,note_on,,,,,96,0,3,,,,,2,,,,70,0
38018,note_on,,,,,0,0,3,,,,,2,,,,70,75
38022,note_on,,,,,48,0,4,,,,,3,,,,62,108
38114,note_on,,,,,0,0,3,,,,,2,,,,68,75
38114,note_on,,,,,96,0,3,,,,,2,,,,70,0
38210,note_on,,,,,0,0,3,,,,,2,,,,67,75
38210,note_on,,,,,96,0,3,,,,,2,,,,68,0
38306,note_on,,,,,0,0,3,,,,,2,,,,65,75
38306,note_on,,,,,96,0,3,,,,,2,,,,67,0
38358,note_on,,,,,336,0,4,,,,,3,,,,62,0
38358,note_on,,,,,0,0,4,,,,,3,,,,58,0
38400,note_on,,,,,2144,0,5,,,,,4,,,,79,45
38402,note_on,,,,,0,0,3,,,,,2,,,,67,108
38402,note_on,,,,,96,0,3,,,,,2,,,,65,0
38402,note_on,,,,,13488,0,7,,,,,6,,,,58,45
38406,note_on,,,,,48,0,4,,,,,3,,,,51,92
38406,note_on,,,,,13488,0,9,,,,,8,,,,39,45
38408,note_on,,,,,13488,0,8,,,,,7,,,,51,45
38410,note_on,,,,,13488,0,6,,,,,5,,,,70,45
38476,set_tempo,,,,,460,1,0,,277778,,,,,,,,
38498,note_on,,,,,96,0,3,,,,,2,,,,67,0
38498,note_on,,,,,0,0,3,,,,,2,,,,79,108
38553,set_tempo,,,,,77,1,0,,276498,,,,,,,,
38594,note_on,,,,,96,0,3,,,,,2,,,,79,0
38594,note_on,,,,,0,0,3,,,,,2,,,,77,108
38598,note_on,,,,,0,0,4,,,,,3,,,,58,92
38598,note_on,,,,,192,0,4,,,,,3,,,,55,92
38630,set_tempo,,,,,77,1,0,,275229,,,,,,,,
38690,note_on,,,,,96,0,3,,,,,2,,,,77,0
38690,note_on,,,,,0,0,3,,,,,2,,,,75,108
38707,set_tempo,,,,,77,1,0,,273973,,,,,,,,
38758,note_on,,,,,160,0,4,,,,,3,,,,58,0
38758,note_on,,,,,0,0,4,,,,,3,,,,55,0
38758,note_on,,,,,0,0,4,,,,,3,,,,51,0
38784,note_on,,,,,384,0,5,,,,,4,,,,79,0
38784,note_on,,,,,0,0,5,,,,,4,,,,77,45
38784,set_tempo,,,,,77,1,0,,272727,,,,,,,,
38786,note_on,,,,,96,0,3,,,,,2,,,,75,0
38786,note_on,,,,,0,0,3,,,,,2,,,,74,108
38790,note_on,,,,,0,0,9,,,,,8,,,,41,45
38790,note_on,,,,,32,0,4,,,,,3,,,,53,97
38790,note_on,,,,,384,0,9,,,,,8,,,,39,0
38792,note_on,,,,,384,0,8,,,,,7,,,,51,0
38792,note_on,,,,,0,0,8,,,,,7,,,,53,45
38794,note_on,,,,,384,0,6,,,,,5,,,,70,0
38794,note_on,,,,,0,0,6,,,,,5,,,,68,45
38860,set_tempo,,,,,76,1,0,,271493,,,,,,,,
38882,note_on,,,,,96,0,3,,,,,2,,,,74,0
38882,note_on,,,,,0,0,3,,,,,2,,,,80,108
38937,set_tempo,,,,,77,1,0,,270270,,,,,,,,
38978,note_on,,,,,0,0,3,,,,,2,,,,79,108
38978,note_on,,,,,96,0,3,,,,,2,,,,80,0
38982,note_on,,,,,0,0,4,,,,,3,,,,58,102
38982,note_on,,,,,192,0,4,,,,,3,,,,56,102
38982,note_on,,,,,0,0,4,,,,,3,,,,62,102
39014,set_tempo,,,,,77,1,0,,269058,,,,,,,,
39074,note_on,,,,,96,0,3,,,,,2,,,,79,0
39074,note_on,,,,,0,0,3,,,,,2,,,,77,108
39091,set_tempo,,,,,77,1,0,,267857,,,,,,,,
39142,note_on,,,,,160,0,4,,,,,3,,,,62,0
39142,note_on,,,,,0,0,4,,,,,3,,,,53,0
39142,note_on,,,,,0,0,4,,,,,3,,,,56,0
39142,note_on,,,,,0,0,4,,,,,3,,,,58,0
39168,note_on,,,,,384,0,5,,,,,4,,,,77,0
39168,note_on,,,,,0,0,5,,,,,4,,,,75,45
39168,set_tempo,,,,,77,1,0,,266667,,,,,,,,
39170,note_on,,,,,96,0,3,,,,,2,,,,77,0
39170,note_on,,,,,0,0,3,,,,,2,,,,84,108
39174,note_on,,,,,32,0,4,,,,,3,,,,55,107
39174,note_on,,,,,384,0,9,,,,,8,,,,41,0
39174,note_on,,,,,0,0,9,,,,,8,,,,43,45
39176,note_on,,,,,384,0,8,,,,,7,,,,53,0
39176,note_on,,,,,0,0,8,,,,,7,,,,55,45
39178,note_on,,,,,0,0,6,,,,,5,,,,67,45
39178,note_on,,,,,384,0,6,,,,,5,,,,68,0
39266,note_on,,,,,96,0,3,,,,,2,,,,84,0
39266,note_on,,,,,0,0,3,,,,,2,,,,82,108
39362,note_on,,,,,96,0,3,,,,,2,,,,82,0
39362,note_on,,,,,0,0,3,,,,,2,,,,80,108
39366,note_on,,,,,192,0,4,,,,,3,,,,58,112
39366,note_on,,,,,0,0,4,,,,,3,,,,63,112
39458,note_on,,,,,0,0,3,,,,,2,,,,79,108
39458,note_on,,,,,96,0,3,,,,,2,,,,80,0
39506,note_on,,,,,1104,0,7,,,,,6,,,,58,0
39526,note_on,,,,,0,0,4,,,,,3,,,,55,0
39526,note_on,,,,,160,0,4,,,,,3,,,,63,0
39526,note_on,,,,,0,0,4,,,,,3,,,,58,0
39552,note_on,,,,,384,0,5,,,,,4,,,,75,0
39552,note_on,,,,,0,0,5,,,,,4,,,,72,45
39554,note_on,,,,,48,0,7,,,,,6,,,,63,45
39554,note_on,,,,,0,0,3,,,,,2,,,,77,92
39554,note_on,,,,,96,0,3,,,,,2,,,,79,0
39558,note_on,,,,,32,0,4,,,,,3,,,,56,117
39558,note_on,,,,,384,0,9,,,,,8,,,,43,0
39558,note_on,,,,,0,0,9,,,,,8,,,,44,45
39560,note_on,,,,,384,0,8,,,,,7,,,,55,0
39560,note_on,,,,,0,0,8,,,,,7,,,,56,45
39562,note_on,,,,,0,0,6,,,,,5,,,,65,45
39562,note_on,,,,,384,0,6,,,,,5,,,,67,0
39650,note_on,,,,,96,0,3,,,,,2,,,,77,0
39650,note_on,,,,,0,0,3,,,,,2,,,,75,92
39746,note_on,,,,,96,0,3,,,,,2,,,,75,0
39746,note_on,,,,,0,0,3,,,,,2,,,,74,92
39750,note_on,,,,,192,0,4,,,,,3,,,,60,122
39750,note_on,,,,,0,0,4,,,,,3,,,,65,122
39842,note_on,,,,,96,0,3,,,,,2,,,,74,0
39842,note_on,,,,,0,0,3,,,,,2,,,,72,92
39888,note_on,,,,,336,0,5,,,,,4,,,,72,0
39894,note_on,,,,,336,0,9,,,,,8,,,,44,0
39896,note_on,,,,,336,0,8,,,,,7,,,,56,0
39898,note_on,,,,,336,0,6,,,,,5,,,,65,0
39910,note_on,,,,,0,0,4,,,,,3,,,,60,0
39910,note_on,,,,,0,0,4,,,,,3,,,,56,0
39910,note_on,,,,,160,0,4,,,,,3,,,,65,0
39936,note_on,,,,,48,0,5,,,,,4,,,,70,45
39938,note_on,,,,,96,0,3,,,,,2,,,,72,0
39938,note_on,,,,,0,0,3,,,,,2,,,,70,75
39942,note_on,,,,,48,0,9,,,,,8,,,,44,45
39942,note_on,,,,,32,0,4,,,,,3,,,,58,127
39944,note_on,,,,,48,0,8,,,,,7,,,,56,45
39946,note_on,,,,,48,0,6,,,,,5,,,,67,45
40034,note_on,,,,,96,0,3,,,,,2,,,,70,0
40034,note_on,,,,,0,0,3,,,,,2,,,,75,75
40130,note_on,,,,,96,0,3,,,,,2,,,,75,0
40130,note_on,,,,,0,0,3,,,,,2,,,,67,75
40226,note_on,,,,,96,0,3,,,,,2,,,,67,0
40226,note_on,,,,,0,0,3,,,,,2,,,,70,75
40278,note_on,,,,,336,0,9,,,,,8,,,,44,0
40278,note_on,,,,,336,0,4,,,,,3,,,,58,0
40280,note_on,,,,,336,0,8,,,,,7,,,,56,0
40320,note_on,,,,,0,0,5,,,,,4,,,,62,45
40320,note_on,,,,,384,0,5,,,,,4,,,,70,0
40320,set_tempo,,,,,1152,1,0,,272727,,,,,,,,
40322,note_on,,,,,96,0,3,,,,,2,,,,70,0
40322,note_on,,,,,768,0,7,,,,,6,,,,63,0
40322,note_on,,,,,0,0,3,,,,,2,,,,70,60
40322,note_on,,,,,0,0,7,,,,,6,,,,56,45
40326,note_on,,,,,48,0,4,,,,,3,,,,46,127
40326,note_on,,,,,48,0,9,,,,,8,,,,34,45
40328,note_on,,,,,48,0,8,,,,,7,,,,46,45
40330,note_on,,,,,0,0,6,,,,,5,,,,62,45
40330,note_on,,,,,384,0,6,,,,,5,,,,67,0
40418,note_on,,,,,0,0,3,,,,,2,,,,68,60
40418,note_on,,,,,96,0,3,,,,,2,,,,70,0
40514,note_on,,,,,0,0,3,,,,,2,,,,67,60
40514,note_on,,,,,96,0,3,,,,,2,,,,68,0
40610,note_on,,,,,0,0,3,,,,,2,,,,65,60
40610,note_on,,,,,96,0,3,,,,,2,,,,67,0
40656,note_on,,,,,336,0,5,,,,,4,,,,62,0
40658,note_on,,,,,336,0,7,,,,,6,,,,56,0
40662,note_on,,,,,336,0,4,,,,,3,,,,46,0
40662,note_on,,,,,336,0,9,,,,,8,,,,34,0
40664,note_on,,,,,336,0,8,,,,,7,,,,46,0
40666,note_on,,,,,336,0,6,,,,,5,,,,62,0
40704,note_on,,,,,48,0,5,,,,,4,,,,63,45
40704,set_tempo,,,,,384,1,0,,279070,,,,,,,,
40706,note_on,,,,,0,0,3,,,,,2,,,,63,60
40706,note_on,,,,,48,0,7,,,,,6,,,,55,45
40706,note_on,,,,,96,0,3,,,,,2,,,,65,0
40710,note_on,,,,,48,0,9,,,,,8,,,,39,45
40712,note_on,,,,,48,0,8,,,,,7,,,,51,45
40714,note_on,,,,,48,0,6,,,,,5,,,,63,45
40806,note_on,,,,,144,0,4,,,,,3,,,,51,108
40864,note_on,,,,,160,0,5,,,,,4,,,,63,0
40866,note_on,,,,,160,0,7,,,,,6,,,,55,0
40870,note_on,,,,,160,0,9,,,,,8,,,,39,0
40872,note_on,,,,,160,0,8,,,,,7,,,,51,0
40874,note_on,,,,,160,0,6,,,,,5,,,,63,0
40900,note_on,,,,,94,0,4,,,,,3,,,,51,0
40902,note_on,,,,,2,0,4,,,,,3,,,,55,108
40996,note_on,,,,,94,0,4,,,,,3,,,,55,0
40998,note_on,,,,,2,0,4,,,,,3,,,,51,108
41090,note_on,,,,,384,0,3,,,,,2,,,,63,0
41092,note_on,,,,,94,0,4,,,,,3,,,,51,0
41094,note_on,,,,,2,0,4,,,,,3,,,,46,108
41188,note_on,,,,,94,0,4,,,,,3,,,,46,0
41190,note_on,,,,,2,0,4,,,,,3,,,,51,108
41284,note_on,,,,,94,0,4,,,,,3,,,,51,0
41286,note_on,,,,,2,0,4,,,,,3,,,,43,108
41380,note_on,,,,,94,0,4,,,,,3,,,,43,0
41382,note_on,,,,,2,0,4,,,,,3,,,,46,108
41472,set_tempo,,,,,768,1,0,,266667,,,,,,,,
41476,note_on,,,,,94,0,4,,,,,3,,,,46,0
41478,note_on,,,,,2,0,4,,,,,3,,,,39,108
41570,note_on,,,,,480,0,3,,,,,2,,,,79,60
41638,note_on,,,,,160,0,4,,,,,3,,,,39,0
41666,note_on,,,,,0,0,3,,,,,2,,,,75,60
41666,note_on,,,,,96,0,3,,,,,2,,,,79,0
41762,note_on,,,,,0,0,3,,,,,2,,,,71,60
41762,note_on,,,,,96,0,3,,,,,2,,,,75,0
41856,note_on,,,,,992,0,5,,,,,4,,,,79,45
41858,note_on,,,,,992,0,7,,,,,6,,,,63,45
41858,note_on,,,,,0,0,3,,,,,2,,,,72,60
41858,note_on,,,,,96,0,3,,,,,2,,,,71,0
41862,note_on,,,,,224,0,4,,,,,3,,,,63,60
41866,note_on,,,,,992,0,6,,,,,5,,,,72,45
41954,note_on,,,,,0,0,3,,,,,2,,,,74,60
41954,note_on,,,,,96,0,3,,,,,2,,,,72,0
42050,note_on,,,,,96,0,3,,,,,2,,,,74,0
42050,note_on,,,,,0,0,3,,,,,2,,,,75,60
42146,note_on,,,,,96,0,3,,,,,2,,,,75,0
42146,note_on,,,,,0,0,3,,,,,2,,,,76,60
42192,note_on,,,,,336,0,5,,,,,4,,,,79,0
42194,note_on,,,,,336,0,7,,,,,6,,,,63,0
42198,note_on,,,,,336,0,4,,,,,3,,,,63,0
42240,note_on,,,,,48,0,5,,,,,4,,,,77,45
42242,note_on,,,,,48,0,7,,,,,6,,,,62,45
42242,note_on,,,,,96,0,3,,,,,2,,,,76,0
42242,note_on,,,,,0,0,3,,,,,2,,,,77,75
42246,note_on,,,,,48,0,4,,,,,3,,,,62,60
42338,note_on,,,,,0,0,3,,,,,2,,,,72,75
42338,note_on,,,,,96,0,3,,,,,2,,,,77,0
42434,note_on,,,,,0,0,3,,,,,2,,,,74,75
42434,note_on,,,,,96,0,3,,,,,2,,,,72,0
42530,note_on,,,,,96,0,3,,,,,2,,,,74,0
42530,note_on,,,,,0,0,3,,,,,2,,,,69,75
42582,note_on,,,,,336,0,4,,,,,3,,,,62,0
42586,note_on,,,,,720,0,6,,,,,5,,,,72,0
42626,note_on,,,,,96,0,3,,,,,2,,,,69,0
42626,note_on,,,,,0,0,3,,,,,2,,,,70,75
42630,note_on,,,,,1760,0,9,,,,,8,,,,43,45
42630,note_on,,,,,48,0,4,,,,,3,,,,55,60
42632,note_on,,,,,1760,0,8,,,,,7,,,,55,45
42634,note_on,,,,,48,0,6,,,,,5,,,,70,45
42722,note_on,,,,,96,0,3,,,,,2,,,,70,0
42722,note_on,,,,,0,0,3,,,,,2,,,,72,75
42818,note_on,,,,,0,0,3,,,,,2,,,,73,75
42818,note_on,,,,,96,0,3,,,,,2,,,,72,0
42818,note_on,,,,,576,0,7,,,,,6,,,,62,0
42818,note_on,,,,,0,0,7,,,,,6,,,,67,45
42914,note_on,,,,,0,0,3,,,,,2,,,,74,75
42914,note_on,,,,,96,0,3,,,,,2,,,,73,0
42960,note_on,,,,,720,0,5,,,,,4,,,,77,0
42966,note_on,,,,,336,0,9,,,,,8,,,,43,0
42966,note_on,,,,,336,0,4,,,,,3,,,,55,0
42968,note_on,,,,,336,0,8,,,,,7,,,,55,0
43008,note_on,,,,,48,0,5,,,,,4,,,,75,45
43010,note_on,,,,,0,0,3,,,,,2,,,,75,75
43010,note_on,,,,,96,0,3,,,,,2,,,,74,0
43014,note_on,,,,,48,0,4,,,,,3,,,,60,60
43014,note_on,,,,,48,0,9,,,,,8,,,,48,45
43016,note_on,,,,,48,0,8,,,,,7,,,,60,45
43106,note_on,,,,,96,0,3,,,,,2,,,,75,0
43106,note_on,,,,,0,0,3,,,,,2,,,,67,75
43174,note_on,,,,,160,0,4,,,,,3,,,,60,0
43202,note_on,,,,,0,0,7,,,,,6,,,,66,45
43202,note_on,,,,,384,0,7,,,,,6,,,,67,0
43202,note_on,,,,,0,0,3,,,,,2,,,,75,75
43202,note_on,,,,,96,0,3,,,,,2,,,,67,0
43206,note_on,,,,,192,0,9,,,,,8,,,,48,0
43206,note_on,,,,,32,0,4,,,,,3,,,,58,60
43206,note_on,,,,,0,0,9,,,,,8,,,,46,45
43208,note_on,,,,,192,0,8,,,,,7,,,,60,0
43208,note_on,,,,,0,0,8,,,,,7,,,,58,45
43298,note_on,,,,,96,0,3,,,,,2,,,,75,0
43298,note_on,,,,,0,0,3,,,,,2,,,,66,75
43362,note_on,,,,,160,0,7,,,,,6,,,,66,0
43366,note_on,,,,,160,0,9,,,,,8,,,,46,0
43366,note_on,,,,,160,0,4,,,,,3,,,,58,0
43368,note_on,,,,,160,0,8,,,,,7,,,,58,0
43394,note_on,,,,,32,0,7,,,,,6,,,,65,45
43394,note_on,,,,,0,0,3,,,,,2,,,,65,75
43394,note_on,,,,,96,0,3,,,,,2,,,,66,0
43398,note_on,,,,,32,0,4,,,,,3,,,,57,60
43398,note_on,,,,,32,0,9,,,,,8,,,,45,45
43400,note_on,,,,,32,0,8,,,,,7,,,,57,45
43402,note_on,,,,,768,0,6,,,,,5,,,,70,0
43402,note_on,,,,,0,0,6,,,,,5,,,,72,45
43490,note_on,,,,,96,0,3,,,,,2,,,,65,0
43490,note_on,,,,,0,0,3,,,,,2,,,,69,75
43586,note_on,,,,,0,0,3,,,,,2,,,,72,75
43586,note_on,,,,,96,0,3,,,,,2,,,,69,0
43682,note_on,,,,,96,0,3,,,,,2,,,,72,0
43682,note_on,,,,,0,0,3,,,,,2,,,,75,75
43728,note_on,,,,,720,0,5,,,,,4,,,,75,0
43730,note_on,,,,,336,0,7,,,,,6,,,,65,0
43734,note_on,,,,,336,0,9,,,,,8,,,,45,0
43734,note_on,,,,,336,0,4,,,,,3,,,,57,0
43736,note_on,,,,,336,0,8,,,,,7,,,,57,0
43738,note_on,,,,,336,0,6,,,,,5,,,,72,0
43776,note_on,,,,,48,0,5,,,,,4,,,,74,45
43778,note_on,,,,,48,0,7,,,,,6,,,,65,45
43778,note_on,,,,,96,0,3,,,,,2,,,,75,0
43778,note_on,,,,,0,0,3,,,,,2,,,,74,75
43782,note_on,,,,,48,0,9,,,,,8,,,,46,45
43782,note_on,,,,,48,0,4,,,,,3,,,,58,75
43784,note_on,,,,,48,0,8,,,,,7,,,,58,45
43786,note_on,,,,,48,0,6,,,,,5,,,,70,45
43852,set_tempo,,,,,2380,1,0,,267857,,,,,,,,
43876,note_on,,,,,94,0,4,,,,,3,,,,58,0
43878,note_on,,,,,2,0,4,,,,,3,,,,57,75
43929,set_tempo,,,,,77,1,0,,269058,,,,,,,,
43936,note_on,,,,,160,0,5,,,,,4,,,,74,0
43938,note_on,,,,,160,0,7,,,,,6,,,,65,0
43942,note_on,,,,,160,0,9,,,,,8,,,,46,0
43944,note_on,,,,,160,0,8,,,,,7,,,,58,0
43946,note_on,,,,,160,0,6,,,,,5,,,,70,0
43970,note_on,,,,,0,0,3,,,,,2,,,,75,92
43970,note_on,,,,,192,0,3,,,,,2,,,,74,0
43972,note_on,,,,,94,0,4,,,,,3,,,,57,0
43974,note_on,,,,,2,0,4,,,,,3,,,,55,75
44006,set_tempo,,,,,77,1,0,,270270,,,,,,,,
44066,note_on,,,,,0,0,3,,,,,2,,,,77,92
44066,note_on,,,,,96,0,3,,,,,2,,,,75,0
44068,note_on,,,,,94,0,4,,,,,3,,,,55,0
44070,note_on,,,,,2,0,4,,,,,3,,,,53,75
44083,set_tempo,,,,,77,1,0,,271493,,,,,,,,
44160,set_tempo,,,,,77,1,0,,272727,,,,,,,,
44160,note_on,,,,,224,0,5,,,,,4,,,,79,45
44162,note_on,,,,,224,0,7,,,,,6,,,,63,45
44162,note_on,,,,,0,0,3,,,,,2,,,,79,92
44162,note_on,,,,,96,0,3,,,,,2,,,,77,0
44164,note_on,,,,,94,0,4,,,,,3,,,,53,0
44166,note_on,,,,,2,0,4,,,,,3,,,,51,92
44166,note_on,,,,,224,0,9,,,,,8,,,,39,45
44168,note_on,,,,,224,0,8,,,,,7,,,,51,45
44170,note_on,,,,,224,0,6,,,,,5,,,,70,45
44194,note_on,,,,,32,0,3,,,,,2,,,,79,0
44236,set_tempo,,,,,76,1,0,,273973,,,,,,,,
44258,note_on,,,,,64,0,3,,,,,2,,,,67,92
44260,note_on,,,,,94,0,4,,,,,3,,,,51,0
44262,note_on,,,,,2,0,4,,,,,3,,,,50,92
44313,set_tempo,,,,,77,1,0,,275229,,,,,,,,
44320,note_on,,,,,160,0,5,,,,,4,,,,79,0
44322,note_on,,,,,160,0,7,,,,,6,,,,63,0
44326,note_on,,,,,160,0,9,,,,,8,,,,39,0
44328,note_on,,,,,160,0,8,,,,,7,,,,51,0
44330,note_on,,,,,160,0,6,,,,,5,,,,70,0
44354,note_on,,,,,0,0,3,,,,,2,,,,69,92
44354,note_on,,,,,96,0,3,,,,,2,,,,67,0
44356,note_on,,,,,94,0,4,,,,,3,,,,50,0
44358,note_on,,,,,2,0,4,,,,,3,,,,48,92
44390,set_tempo,,,,,77,1,0,,276498,,,,,,,,
44450,note_on,,,,,96,0,3,,,,,2,,,,69,0
44450,note_on,,,,,0,0,3,,,,,2,,,,70,92
44452,note_on,,,,,94,0,4,,,,,3,,,,48,0
44454,note_on,,,,,2,0,4,,,,,3,,,,46,92
44467,set_tempo,,,,,77,1,0,,277778,,,,,,,,
44544,set_tempo,,,,,77,1,0,,279070,,,,,,,,
44544,note_on,,,,,224,0,5,,,,,4,,,,79,45
44546,note_on,,,,,96,0,3,,,,,2,,,,70,0
44546,note_on,,,,,0,0,3,,,,,2,,,,72,92
44546,note_on,,,,,224,0,7,,,,,6,,,,63,45
44548,note_on,,,,,94,0,4,,,,,3,,,,46,0
44550,note_on,,,,,2,0,4,,,,,3,,,,45,108
44550,note_on,,,,,224,0,9,,,,,8,,,,45,45
44552,note_on,,,,,224,0,8,,,,,7,,,,57,45
44554,note_on,,,,,224,0,6,,,,,5,,,,72,45
44620,set_tempo,,,,,76,1,0,,280374,,,,,,,,
44644,note_on,,,,,94,0,4,,,,,3,,,,45,0
44646,note_on,,,,,2,0,4,,,,,3,,,,43,108
44697,set_tempo,,,,,77,1,0,,281690,,,,,,,,
44704,note_on,,,,,160,0,5,,,,,4,,,,79,0
44706,note_on,,,,,160,0,7,,,,,6,,,,63,0
44710,note_on,,,,,160,0,9,,,,,8,,,,45,0
44712,note_on,,,,,160,0,8,,,,,7,,,,57,0
44714,note_on,,,,,160,0,6,,,,,5,,,,72,0
44738,note_on,,,,,192,0,3,,,,,2,,,,72,0
44738,note_on,,,,,0,0,3,,,,,2,,,,74,92
44740,note_on,,,,,94,0,4,,,,,3,,,,43,0
44742,note_on,,,,,2,0,4,,,,,3,,,,41,108
44774,set_tempo,,,,,77,1,0,,283019,,,,,,,,
44834,note_on,,,,,0,0,3,,,,,2,,,,75,92
44834,note_on,,,,,96,0,3,,,,,2,,,,74,0
44836,note_on,,,,,94,0,4,,,,,3,,,,41,0
44838,note_on,,,,,2,0,4,,,,,3,,,,39,108
44851,set_tempo,,,,,77,1,0,,284360,,,,,,,,
44928,note_on,,,,,224,0,5,,,,,4,,,,77,45
44928,set_tempo,,,,,77,1,0,,285714,,,,,,,,
44930,note_on,,,,,224,0,7,,,,,6,,,,62,45
44930,note_on,,,,,96,0,3,,,,,2,,,,75,0
44930,note_on,,,,,0,0,3,,,,,2,,,,77,92
44932,note_on,,,,,94,0,4,,,,,3,,,,39,0
44934,note_on,,,,,224,0,9,,,,,8,,,,38,45
44934,note_on,,,,,2,0,4,,,,,3,,,,38,127
44936,note_on,,,,,224,0,8,,,,,7,,,,50,45
44938,note_on,,,,,224,0,6,,,,,5,,,,72,45
45004,set_tempo,,,,,76,1,0,,287081,,,,,,,,
45026,note_on,,,,,96,0,3,,,,,2,,,,77,0
45026,note_on,,,,,0,0,3,,,,,2,,,,65,92
45028,note_on,,,,,94,0,4,,,,,3,,,,38,0
45030,note_on,,,,,2,0,4,,,,,3,,,,36,127
45081,set_tempo,,,,,77,1,0,,288462,,,,,,,,
45088,note_on,,,,,160,0,5,,,,,4,,,,77,0
45090,note_on,,,,,160,0,7,,,,,6,,,,62,0
45094,note_on,,,,,160,0,9,,,,,8,,,,38,0
45096,note_on,,,,,160,0,8,,,,,7,,,,50,0
45098,note_on,,,,,160,0,6,,,,,5,,,,72,0
45122,note_on,,,,,96,0,3,,,,,2,,,,65,0
45122,note_on,,,,,0,0,3,,,,,2,,,,67,92
45124,note_on,,,,,94,0,4,,,,,3,,,,36,0
45126,note_on,,,,,2,0,4,,,,,3,,,,34,127
45158,set_tempo,,,,,77,1,0,,289855,,,,,,,,
45218,note_on,,,,,96,0,3,,,,,2,,,,67,0
45218,note_on,,,,,0,0,3,,,,,2,,,,69,92
45220,note_on,,,,,94,0,4,,,,,3,,,,34,0
45222,note_on,,,,,2,0,4,,,,,3,,,,33,127
45235,set_tempo,,,,,77,1,0,,291262,,,,,,,,
45312,set_tempo,,,,,77,1,0,,292683,,,,,,,,
45312,note_on,,,,,224,0,5,,,,,4,,,,77,45
45314,note_on,,,,,224,0,7,,,,,6,,,,62,45
45314,note_on,,,,,0,0,3,,,,,2,,,,72,92
45314,note_on,,,,,96,0,3,,,,,2,,,,69,0
45316,note_on,,,,,94,0,4,,,,,3,,,,33,0
45318,note_on,,,,,2,0,4,,,,,3,,,,31,127
45318,note_on,,,,,224,0,9,,,,,8,,,,43,45
45320,note_on,,,,,224,0,8,,,,,7,,,,55,45
45322,note_on,,,,,224,0,6,,,,,5,,,,70,45
45362,note_on,,,,,48,0,3,,,,,2,,,,72,0
45362,note_on,,,,,0,0,3,,,,,2,,,,70,92
45410,note_on,,,,,0,0,3,,,,,2,,,,69,92
45410,note_on,,,,,48,0,3,,,,,2,,,,70,0
45458,note_on,,,,,0,0,3,,,,,2,,,,70,92
45458,note_on,,,,,48,0,3,,,,,2,,,,69,0
45472,note_on,,,,,160,0,5,,,,,4,,,,77,0
45474,note_on,,,,,160,0,7,,,,,6,,,,62,0
45478,note_on,,,,,160,0,9,,,,,8,,,,43,0
45478,note_on,,,,,160,0,4,,,,,3,,,,31,0
45480,note_on,,,,,160,0,8,,,,,7,,,,55,0
45482,note_on,,,,,160,0,6,,,,,5,,,,70,0
45506,note_on,,,,,48,0,3,,,,,2,,,,70,0
45506,note_on,,,,,0,0,3,,,,,2,,,,72,108
45510,note_on,,,,,32,0,4,,,,,3,,,,33,127
45571,set_tempo,,,,,259,1,0,,291262,,,,,,,,
45602,note_on,,,,,0,0,3,,,,,2,,,,74,108
45602,note_on,,,,,96,0,3,,,,,2,,,,72,0
45604,note_on,,,,,94,0,4,,,,,3,,,,33,0
45606,note_on,,,,,2,0,4,,,,,3,,,,34,127
45638,set_tempo,,,,,67,1,0,,289855,,,,,,,,
45696,note_on,,,,,224,0,5,,,,,4,,,,75,45
45698,note_on,,,,,96,0,3,,,,,2,,,,74,0
45698,note_on,,,,,224,0,7,,,,,6,,,,60,45
45698,note_on,,,,,0,0,3,,,,,2,,,,75,108
45700,note_on,,,,,94,0,4,,,,,3,,,,34,0
45702,note_on,,,,,2,0,4,,,,,3,,,,36,127
45702,note_on,,,,,224,0,9,,,,,8,,,,36,45
45704,note_on,,,,,224,0,8,,,,,7,,,,48,45
45705,set_tempo,,,,,67,1,0,,288462,,,,,,,,
45706,note_on,,,,,224,0,6,,,,,5,,,,70,45
45772,set_tempo,,,,,67,1,0,,287081,,,,,,,,
45796,note_on,,,,,94,0,4,,,,,3,,,,36,0
45798,note_on,,,,,2,0,4,,,,,3,,,,38,127
45839,set_tempo,,,,,67,1,0,,285714,,,,,,,,
45856,note_on,,,,,160,0,5,,,,,4,,,,75,0
45858,note_on,,,,,160,0,7,,,,,6,,,,60,0
45862,note_on,,,,,160,0,9,,,,,8,,,,36,0
45864,note_on,,,,,160,0,8,,,,,7,,,,48,0
45866,note_on,,,,,160,0,6,,,,,5,,,,70,0
45890,note_on,,,,,192,0,3,,,,,2,,,,75,0
45890,note_on,,,,,0,0,3,,,,,2,,,,67,108
45890,note_on,,,,,0,0,3,,,,,2,,,,75,108
45892,note_on,,,,,94,0,4,,,,,3,,,,38,0
45894,note_on,,,,,2,0,4,,,,,3,,,,39,127
45907,set_tempo,,,,,68,1,0,,284360,,,,,,,,
45974,set_tempo,,,,,67,1,0,,283019,,,,,,,,
45988,note_on,,,,,94,0,4,,,,,3,,,,39,0
45990,note_on,,,,,2,0,4,,,,,3,,,,40,127
46041,set_tempo,,,,,67,1,0,,281690,,,,,,,,
46080,note_on,,,,,224,0,5,,,,,4,,,,75,45
46082,note_on,,,,,192,0,3,,,,,2,,,,67,0
46082,note_on,,,,,0,0,3,,,,,2,,,,69,108
46082,note_on,,,,,224,0,7,,,,,6,,,,60,45
46084,note_on,,,,,94,0,4,,,,,3,,,,40,0
46086,note_on,,,,,2,0,4,,,,,3,,,,41,108
46086,note_on,,,,,224,0,9,,,,,8,,,,41,45
46088,note_on,,,,,224,0,8,,,,,7,,,,53,45
46090,note_on,,,,,224,0,6,,,,,5,,,,69,45
46108,set_tempo,,,,,67,1,0,,280374,,,,,,,,
46175,set_tempo,,,,,67,1,0,,279070,,,,,,,,
46180,note_on,,,,,94,0,4,,,,,3,,,,41,0
46182,note_on,,,,,2,0,4,,,,,3,,,,42,108
46240,note_on,,,,,160,0,5,,,,,4,,,,75,0
46242,note_on,,,,,160,0,7,,,,,6,,,,60,0
46243,set_tempo,,,,,68,1,0,,277778,,,,,,,,
46246,note_on,,,,,160,0,9,,,,,8,,,,41,0
46248,note_on,,,,,160,0,8,,,,,7,,,,53,0
46250,note_on,,,,,160,0,6,,,,,5,,,,69,0
46274,note_on,,,,,192,0,3,,,,,2,,,,69,0
46274,note_on,,,,,0,0,3,,,,,2,,,,70,108
46276,note_on,,,,,94,0,4,,,,,3,,,,42,0
46278,note_on,,,,,2,0,4,,,,,3,,,,43,108
46310,set_tempo,,,,,67,1,0,,276498,,,,,,,,
46370,note_on,,,,,0,0,3,,,,,2,,,,72,108
46370,note_on,,,,,96,0,3,,,,,2,,,,70,0
46372,note_on,,,,,94,0,4,,,,,3,,,,43,0
46374,note_on,,,,,2,0,4,,,,,3,,,,45,108
46377,set_tempo,,,,,67,1,0,,275229,,,,,,,,
46444,set_tempo,,,,,67,1,0,,273973,,,,,,,,
46464,note_on,,,,,224,0,5,,,,,4,,,,74,45
46466,note_on,,,,,0,0,3,,,,,2,,,,74,108
46466,note_on,,,,,0,0,3,,,,,2,,,,70,108
46466,note_on,,,,,96,0,3,,,,,2,,,,72,0
46466,note_on,,,,,224,0,7,,,,,6,,,,58,45
46466,note_on,,,,,0,0,3,,,,,2,,,,75,0
46468,note_on,,,,,94,0,4,,,,,3,,,,45,0
46470,note_on,,,,,224,0,9,,,,,8,,,,34,45
46470,note_on,,,,,2,0,4,,,,,3,,,,46,108
46472,note_on,,,,,224,0,8,,,,,7,,,,46,45
46474,note_on,,,,,224,0,6,,,,,5,,,,65,45
46511,set_tempo,,,,,67,1,0,,272727,,,,,,,,
46564,note_on,,,,,94,0,4,,,,,3,,,,46,0
46566,note_on,,,,,2,0,4,,,,,3,,,,48,108
46579,set_tempo,,,,,68,1,0,,271493,,,,,,,,
46624,note_on,,,,,160,0,5,,,,,4,,,,74,0
46626,note_on,,,,,160,0,7,,,,,6,,,,58,0
46630,note_on,,,,,160,0,9,,,,,8,,,,34,0
46632,note_on,,,,,160,0,8,,,,,7,,,,46,0
46634,note_on,,,,,160,0,6,,,,,5,,,,65,0
46646,set_tempo,,,,,67,1,0,,270270,,,,,,,,
46660,note_on,,,,,94,0,4,,,,,3,,,,48,0
46662,note_on,,,,,2,0,4,,,,,3,,,,49,108
46713,set_tempo,,,,,67,1,0,,269058,,,,,,,,
46756,note_on,,,,,94,0,4,,,,,3,,,,49,0
46758,note_on,,,,,2,0,4,,,,,3,,,,50,108
46780,set_tempo,,,,,67,1,0,,267857,,,,,,,,
46848,set_tempo,,,,,68,1,0,,266667,,,,,,,,
46850,note_on,,,,,384,0,3,,,,,2,,,,70,0
46850,note_on,,,,,0,0,3,,,,,2,,,,67,108
46852,note_on,,,,,94,0,4,,,,,3,,,,50,0
46854,note_on,,,,,224,0,9,,,,,8,,,,39,45
46854,note_on,,,,,2,0,4,,,,,3,,,,51,108
46856,note_on,,,,,224,0,8,,,,,7,,,,51,45
46946,note_on,,,,,0,0,3,,,,,2,,,,72,108
46946,note_on,,,,,96,0,3,,,,,2,,,,74,0
47040,note_on,,,,,416,0,5,,,,,4,,,,72,45
47042,note_on,,,,,416,0,7,,,,,6,,,,60,45
47042,note_on,,,,,0,0,3,,,,,2,,,,79,108
47042,note_on,,,,,96,0,3,,,,,2,,,,72,0
47050,note_on,,,,,416,0,6,,,,,5,,,,67,45
47138,note_on,,,,,0,0,3,,,,,2,,,,77,108
47138,note_on,,,,,96,0,3,,,,,2,,,,79,0
47234,note_on,,,,,96,0,3,,,,,2,,,,77,0
47234,note_on,,,,,0,0,3,,,,,2,,,,75,108
47330,note_on,,,,,96,0,3,,,,,2,,,,75,0
47330,note_on,,,,,0,0,3,,,,,2,,,,74,108
47378,note_on,,,,,336,0,7,,,,,6,,,,60,0
47386,note_on,,,,,336,0,6,,,,,5,,,,67,0
47424,note_on,,,,,384,0,5,,,,,4,,,,72,0
47424,note_on,,,,,0,0,5,,,,,4,,,,70,45
47426,note_on,,,,,0,0,3,,,,,2,,,,72,108
47426,note_on,,,,,96,0,3,,,,,2,,,,74,0
47426,note_on,,,,,48,0,7,,,,,6,,,,60,45
47430,note_on,,,,,0,0,9,,,,,8,,,,40,45
47430,note_on,,,,,576,0,9,,,,,8,,,,39,0
47430,note_on,,,,,0,0,4,,,,,3,,,,52,92
47430,note_on,,,,,576,0,4,,,,,3,,,,51,0
47432,note_on,,,,,0,0,8,,,,,7,,,,52,45
47432,note_on,,,,,576,0,8,,,,,7,,,,51,0
47434,note_on,,,,,48,0,6,,,,,5,,,,67,45
47522,note_on,,,,,0,0,3,,,,,2,,,,70,108
47522,note_on,,,,,96,0,3,,,,,2,,,,72,0
47584,note_on,,,,,160,0,5,,,,,4,,,,70,0
47586,note_on,,,,,160,0,7,,,,,6,,,,60,0
47590,note_on,,,,,160,0,9,,,,,8,,,,40,0
47590,note_on,,,,,160,0,4,,,,,3,,,,52,0
47592,note_on,,,,,160,0,8,,,,,7,,,,52,0
47594,note_on,,,,,160,0,6,,,,,5,,,,67,0
47616,note_on,,,,,32,0,5,,,,,4,,,,69,45
47618,note_on,,,,,32,0,7,,,,,6,,,,60,45
47618,note_on,,,,,0,0,3,,,,,2,,,,69,108
47618,note_on,,,,,96,0,3,,,,,2,,,,70,0
47618,note_on,,,,,0,0,3,,,,,2,,,,67,0
47622,note_on,,,,,32,0,9,,,,,8,,,,41,45
47622,note_on,,,,,32,0,4,,,,,3,,,,53,92
47624,note_on,,,,,32,0,8,,,,,7,,,,53,45
47626,note_on,,,,,32,0,6,,,,,5,,,,65,45
47714,note_on,,,,,96,0,3,,,,,2,,,,69,0
47714,note_on,,,,,0,0,3,,,,,2,,,,72,108
47776,note_on,,,,,160,0,5,,,,,4,,,,69,0
47778,note_on,,,,,160,0,7,,,,,6,,,,60,0
47782,note_on,,,,,160,0,9,,,,,8,,,,41,0
47784,note_on,,,,,160,0,8,,,,,7,,,,53,0
47786,note_on,,,,,160,0,6,,,,,5,,,,65,0
47810,note_on,,,,,96,0,3,,,,,2,,,,72,0
47810,note_on,,,,,0,0,3,,,,,2,,,,77,108
47906,note_on,,,,,96,0,3,,,,,2,,,,77,0
47906,note_on,,,,,0,0,3,,,,,2,,,,76,108
47958,note_on,,,,,336,0,4,,,,,3,,,,53,0
48002,note_on,,,,,96,0,3,,,,,2,,,,76,0
48002,note_on,,,,,0,0,3,,,,,2,,,,75,108
48098,note_on,,,,,96,0,3,,,,,2,,,,75,0
48098,note_on,,,,,0,0,3,,,,,2,,,,74,108
48194,note_on,,,,,96,0,3,,,,,2,,,,74,0
48194,note_on,,,,,0,0,3,,,,,2,,,,75,108
48290,note_on,,,,,96,0,3,,,,,2,,,,75,0
48290,note_on,,,,,0,0,3,,,,,2,,,,72,108
48384,set_tempo,,,,,1536,1,0,,272727,,,,,,,,
48386,note_on,,,,,0,0,3,,,,,2,,,,70,92
48386,note_on,,,,,96,0,3,,,,,2,,,,72,0
48390,note_on,,,,,432,0,4,,,,,3,,,,62,75
48486,note_on,,,,,0,0,4,,,,,3,,,,65,75
48486,note_on,,,,,96,0,4,,,,,3,,,,62,0
48582,note_on,,,,,0,0,4,,,,,3,,,,62,75
48582,note_on,,,,,96,0,4,,,,,3,,,,65,0
48674,note_on,,,,,0,0,3,,,,,2,,,,72,92
48674,note_on,,,,,288,0,3,,,,,2,,,,70,0
48678,note_on,,,,,0,0,4,,,,,3,,,,65,75
48678,note_on,,,,,96,0,4,,,,,3,,,,62,0
48722,note_on,,,,,0,0,3,,,,,2,,,,70,92
48722,note_on,,,,,48,0,3,,,,,2,,,,72,0
48770,note_on,,,,,0,0,3,,,,,2,,,,69,92
48770,note_on,,,,,48,0,3,,,,,2,,,,70,0
48774,note_on,,,,,96,0,4,,,,,3,,,,65,0
48774,note_on,,,,,0,0,4,,,,,3,,,,60,75
48870,note_on,,,,,0,0,4,,,,,3,,,,65,75
48870,note_on,,,,,96,0,4,,,,,3,,,,60,0
48930,note_on,,,,,160,0,3,,,,,2,,,,69,0
48962,note_on,,,,,32,0,3,,,,,2,,,,70,92
48966,note_on,,,,,96,0,4,,,,,3,,,,65,0
48966,note_on,,,,,0,0,4,,,,,3,,,,62,75
49010,note_on,,,,,48,0,3,,,,,2,,,,70,0
49062,note_on,,,,,96,0,4,,,,,3,,,,62,0
49062,note_on,,,,,0,0,4,,,,,3,,,,65,75
49154,note_on,,,,,144,0,3,,,,,2,,,,71,92
49158,note_on,,,,,96,0,4,,,,,3,,,,65,0
49158,note_on,,,,,0,0,4,,,,,3,,,,62,75
49254,note_on,,,,,0,0,4,,,,,3,,,,65,75
49254,note_on,,,,,96,0,4,,,,,3,,,,62,0
49314,note_on,,,,,160,0,3,,,,,2,,,,71,0
49346,note_on,,,,,32,0,3,,,,,2,,,,72,92
49350,note_on,,,,,0,0,4,,,,,3,,,,63,75
49350,note_on,,,,,96,0,4,,,,,3,,,,65,0
49446,note_on,,,,,96,0,4,,,,,3,,,,63,0
49446,note_on,,,,,0,0,4,,,,,3,,,,65,75
49506,note_on,,,,,160,0,3,,,,,2,,,,72,0
49538,note_on,,,,,32,0,3,,,,,2,,,,72,92
49542,note_on,,,,,96,0,4,,,,,3,,,,65,0
49542,note_on,,,,,0,0,4,,,,,3,,,,63,75
49638,note_on,,,,,96,0,4,,,,,3,,,,63,0
49638,note_on,,,,,0,0,4,,,,,3,,,,65,75
49698,note_on,,,,,160,0,3,,,,,2,,,,72,0
49730,note_on,,,,,32,0,3,,,,,2,,,,72,92
49734,note_on,,,,,96,0,4,,,,,3,,,,65,0
49734,note_on,,,,,0,0,4,,,,,3,,,,63,75
49830,note_on,,,,,96,0,4,,,,,3,,,,63,0
49830,note_on,,,,,0,0,4,,,,,3,,,,65,75
49890,note_on,,,,,160,0,3,,,,,2,,,,72,0
49922,note_on,,,,,32,0,3,,,,,2,,,,72,92
49926,note_on,,,,,0,0,4,,,,,3,,,,57,75
49926,note_on,,,,,96,0,4,,,,,3,,,,65,0
50022,note_on,,,,,0,0,4,,,,,3,,,,65,75
50022,note_on,,,,,96,0,4,,,,,3,,,,57,0
50118,note_on,,,,,0,0,4,,,,,3,,,,57,75
50118,note_on,,,,,96,0,4,,,,,3,,,,65,0
50210,note_on,,,,,0,0,3,,,,,2,,,,74,92
50210,note_on,,,,,288,0,3,,,,,2,,,,72,0
50214,note_on,,,,,96,0,4,,,,,3,,,,57,0
50214,note_on,,,,,0,0,4,,,,,3,,,,65,75
50258,note_on,,,,,0,0,3,,,,,2,,,,72,92
50258,note_on,,,,,48,0,3,,,,,2,,,,74,0
50306,note_on,,,,,0,0,3,,,,,2,,,,70,92
50306,note_on,,,,,48,0,3,,,,,2,,,,72,0
50310,note_on,,,,,0,0,4,,,,,3,,,,55,75
50310,note_on,,,,,96,0,4,,,,,3,,,,65,0
50406,note_on,,,,,0,0,4,,,,,3,,,,65,75
50406,note_on,,,,,96,0,4,,,,,3,,,,55,0
50466,note_on,,,,,160,0,3,,,,,2,,,,70,0
50498,note_on,,,,,32,0,3,,,,,2,,,,72,92
50502,note_on,,,,,0,0,4,,,,,3,,,,57,75
50502,note_on,,,,,96,0,4,,,,,3,,,,65,0
50546,note_on,,,,,48,0,3,,,,,2,,,,72,0
50598,note_on,,,,,0,0,4,,,,,3,,,,65,75
50598,note_on,,,,,96,0,4,,,,,3,,,,57,0
50690,note_on,,,,,144,0,3,,,,,2,,,,73,92
50694,note_on,,,,,0,0,4,,,,,3,,,,57,75
50694,note_on,,,,,96,0,4,,,,,3,,,,65,0
50790,note_on,,,,,0,0,4,,,,,3,,,,65,75
50790,note_on,,,,,96,0,4,,,,,3,,,,57,0
50850,note_on,,,,,160,0,3,,,,,2,,,,73,0
50882,note_on,,,,,32,0,3,,,,,2,,,,74,92
50886,note_on,,,,,96,0,4,,,,,3,,,,65,0
50886,note_on,,,,,0,0,4,,,,,3,,,,58,75
50982,note_on,,,,,96,0,4,,,,,3,,,,58,0
50982,note_on,,,,,0,0,4,,,,,3,,,,65,75
51042,note_on,,,,,160,0,3,,,,,2,,,,74,0
51072,set_tempo,,,,,2688,1,0,,266667,,,,,,,,
51074,note_on,,,,,32,0,3,,,,,2,,,,74,92
51078,note_on,,,,,96,0,4,,,,,3,,,,65,0
51078,note_on,,,,,0,0,4,,,,,3,,,,58,75
51174,note_on,,,,,0,0,4,,,,,3,,,,65,75
51174,note_on,,,,,96,0,4,,,,,3,,,,58,0
51234,note_on,,,,,160,0,3,,,,,2,,,,74,0
51264,note_on,,,,,3488,0,5,,,,,4,,,,74,45
51266,note_on,,,,,0,0,3,,,,,2,,,,86,108
51266,note_on,,,,,32,0,3,,,,,2,,,,74,108
51266,note_on,,,,,3488,0,7,,,,,6,,,,53,45
51270,note_on,,,,,96,0,4,,,,,3,,,,65,0
51270,note_on,,,,,0,0,4,,,,,3,,,,58,92
51270,note_on,,,,,3488,0,9,,,,,8,,,,34,45
51272,note_on,,,,,3488,0,8,,,,,7,,,,46,45
51274,note_on,,,,,3488,0,6,,,,,5,,,,62,45
51366,note_on,,,,,0,0,4,,,,,3,,,,65,92
51366,note_on,,,,,96,0,4,,,,,3,,,,58,0
51424,note_on,,,,,160,0,5,,,,,4,,,,74,0
51426,note_on,,,,,0,0,3,,,,,2,,,,74,0
51426,note_on,,,,,160,0,3,,,,,2,,,,86,0
51426,note_on,,,,,160,0,7,,,,,6,,,,53,0
51430,note_on,,,,,160,0,9,,,,,8,,,,34,0
51432,note_on,,,,,160,0,8,,,,,7,,,,46,0
51434,note_on,,,,,160,0,6,,,,,5,,,,62,0
51456,note_on,,,,,32,0,5,,,,,4,,,,74,45
51458,note_on,,,,,32,0,7,,,,,6,,,,53,45
51458,note_on,,,,,32,0,3,,,,,2,,,,74,108
51458,note_on,,,,,0,0,3,,,,,2,,,,86,108
51462,note_on,,,,,32,0,9,,,,,8,,,,34,45
51462,note_on,,,,,96,0,4,,,,,3,,,,65,0
51462,note_on,,,,,0,0,4,,,,,3,,,,58,92
51464,note_on,,,,,32,0,8,,,,,7,,,,46,45
51466,note_on,,,,,32,0,6,,,,,5,,,,62,45
51558,note_on,,,,,0,0,4,,,,,3,,,,65,92
51558,note_on,,,,,96,0,4,,,,,3,,,,58,0
51654,note_on,,,,,96,0,4,,,,,3,,,,65,0
51654,note_on,,,,,0,0,4,,,,,3,,,,58,92
51750,note_on,,,,,96,0,4,,,,,3,,,,58,0
51750,note_on,,,,,0,0,4,,,,,3,,,,65,92
51840,note_on,,,,,0,0,5,,,,,4,,,,72,45
51840,note_on,,,,,384,0,5,,,,,4,,,,74,0
51842,note_on,,,,,384,0,3,,,,,2,,,,86,0
51842,note_on,,,,,0,0,3,,,,,2,,,,74,0
51842,note_on,,,,,0,0,3,,,,,2,,,,84,108
51842,note_on,,,,,0,0,3,,,,,2,,,,72,108
51846,note_on,,,,,0,0,9,,,,,8,,,,33,45
51846,note_on,,,,,0,0,4,,,,,3,,,,57,92
51846,note_on,,,,,384,0,9,,,,,8,,,,34,0
51846,note_on,,,,,96,0,4,,,,,3,,,,65,0
51848,note_on,,,,,0,0,8,,,,,7,,,,45,45
51848,note_on,,,,,384,0,8,,,,,7,,,,46,0
51850,note_on,,,,,384,0,6,,,,,5,,,,62,0
51850,note_on,,,,,0,0,6,,,,,5,,,,60,45
51942,note_on,,,,,0,0,4,,,,,3,,,,65,92
51942,note_on,,,,,96,0,4,,,,,3,,,,57,0
52002,note_on,,,,,0,0,3,,,,,2,,,,72,0
52002,note_on,,,,,160,0,3,,,,,2,,,,84,0
52032,note_on,,,,,192,0,5,,,,,4,,,,72,0
52032,note_on,,,,,0,0,5,,,,,4,,,,74,45
52034,note_on,,,,,32,0,3,,,,,2,,,,74,108
52034,note_on,,,,,0,0,3,,,,,2,,,,86,108
52038,note_on,,,,,96,0,4,,,,,3,,,,65,0
52038,note_on,,,,,0,0,4,,,,,3,,,,58,92
52038,note_on,,,,,0,0,9,,,,,8,,,,34,45
52038,note_on,,,,,192,0,9,,,,,8,,,,33,0
52040,note_on,,,,,0,0,8,,,,,7,,,,46,45
52040,note_on,,,,,192,0,8,,,,,7,,,,45,0
52042,note_on,,,,,192,0,6,,,,,5,,,,60,0
52042,note_on,,,,,0,0,6,,,,,5,,,,62,45
52082,note_on,,,,,48,0,3,,,,,2,,,,86,0
52082,note_on,,,,,0,0,3,,,,,2,,,,74,0
52134,note_on,,,,,0,0,4,,,,,3,,,,65,92
52134,note_on,,,,,96,0,4,,,,,3,,,,58,0
52192,note_on,,,,,160,0,5,,,,,4,,,,74,0
52198,note_on,,,,,160,0,9,,,,,8,,,,34,0
52200,note_on,,,,,160,0,8,,,,,7,,,,46,0
52202,note_on,,,,,160,0,6,,,,,5,,,,62,0
52224,note_on,,,,,32,0,5,,,,,4,,,,74,45
52226,note_on,,,,,0,0,3,,,,,2,,,,86,108
52226,note_on,,,,,144,0,3,,,,,2,,,,74,108
52230,note_on,,,,,0,0,4,,,,,3,,,,59,92
52230,note_on,,,,,96,0,4,,,,,3,,,,65,0
52230,note_on,,,,,32,0,9,,,,,8,,,,35,45
52232,note_on,,,,,32,0,8,,,,,7,,,,47,45
52234,note_on,,,,,32,0,6,,,,,5,,,,62,45
52326,note_on,,,,,96,0,4,,,,,3,,,,59,0
52326,note_on,,,,,0,0,4,,,,,3,,,,65,92
52416,note_on,,,,,192,0,5,,,,,4,,,,74,0
52416,note_on,,,,,0,0,5,,,,,4,,,,75,45
52418,note_on,,,,,192,0,3,,,,,2,,,,86,0
52418,note_on,,,,,0,0,3,,,,,2,,,,87,108
52418,note_on,,,,,0,0,3,,,,,2,,,,75,108
52418,note_on,,,,,0,0,3,,,,,2,,,,74,0
52422,note_on,,,,,0,0,4,,,,,3,,,,60,92
52422,note_on,,,,,0,0,9,,,,,8,,,,36,45
52422,note_on,,,,,192,0,9,,,,,8,,,,35,0
52422,note_on,,,,,96,0,4,,,,,3,,,,65,0
52424,note_on,,,,,192,0,8,,,,,7,,,,47,0
52424,note_on,,,,,0,0,8,,,,,7,,,,48,45
52426,note_on,,,,,0,0,6,,,,,5,,,,63,45
52426,note_on,,,,,192,0,6,,,,,5,,,,62,0
52518,note_on,,,,,0,0,4,,,,,3,,,,65,92
52518,note_on,,,,,96,0,4,,,,,3,,,,60,0
52576,note_on,,,,,160,0,5,,,,,4,,,,75,0
52578,note_on,,,,,160,0,3,,,,,2,,,,87,0
52578,note_on,,,,,0,0,3,,,,,2,,,,75,0
52582,note_on,,,,,160,0,9,,,,,8,,,,36,0
52584,note_on,,,,,160,0,8,,,,,7,,,,48,0
52586,note_on,,,,,160,0,6,,,,,5,,,,63,0
52608,note_on,,,,,32,0,5,,,,,4,,,,75,45
52610,note_on,,,,,0,0,3,,,,,2,,,,87,108
52610,note_on,,,,,32,0,3,,,,,2,,,,75,108
52614,note_on,,,,,96,0,4,,,,,3,,,,65,0
52614,note_on,,,,,0,0,4,,,,,3,,,,60,92
52614,note_on,,,,,32,0,9,,,,,8,,,,36,45
52616,note_on,,,,,32,0,8,,,,,7,,,,48,45
52618,note_on,,,,,32,0,6,,,,,5,,,,63,45
52710,note_on,,,,,96,0,4,,,,,3,,,,60,0
52710,note_on,,,,,0,0,4,,,,,3,,,,65,92
52768,note_on,,,,,160,0,5,,,,,4,,,,75,0
52770,note_on,,,,,0,0,3,,,,,2,,,,75,0
52770,note_on,,,,,160,0,3,,,,,2,,,,87,0
52774,note_on,,,,,160,0,9,,,,,8,,,,36,0
52776,note_on,,,,,160,0,8,,,,,7,,,,48,0
52778,note_on,,,,,160,0,6,,,,,5,,,,63,0
52800,note_on,,,,,32,0,5,,,,,4,,,,75,45
52802,note_on,,,,,0,0,3,,,,,2,,,,87,108
52802,note_on,,,,,32,0,3,,,,,2,,,,75,108
52806,note_on,,,,,32,0,9,,,,,8,,,,36,45
52806,note_on,,,,,96,0,4,,,,,3,,,,65,0
52806,note_on,,,,,0,0,4,,,,,3,,,,60,92
52808,note_on,,,,,32,0,8,,,,,7,,,,48,45
52810,note_on,,,,,32,0,6,,,,,5,,,,63,45
52902,note_on,,,,,96,0,4,,,,,3,,,,60,0
52902,note_on,,,,,0,0,4,,,,,3,,,,65,92
52960,note_on,,,,,160,0,5,,,,,4,,,,75,0
52962,note_on,,,,,160,0,3,,,,,2,,,,87,0
52962,note_on,,,,,0,0,3,,,,,2,,,,75,0
52966,note_on,,,,,160,0,9,,,,,8,,,,36,0
52968,note_on,,,,,160,0,8,,,,,7,,,,48,0
52970,note_on,,,,,160,0,6,,,,,5,,,,63,0
52992,note_on,,,,,32,0,5,,,,,4,,,,75,45
52994,note_on,,,,,32,0,3,,,,,2,,,,75,108
52994,note_on,,,,,0,0,3,,,,,2,,,,87,108
52998,note_on,,,,,96,0,4,,,,,3,,,,65,0
52998,note_on,,,,,32,0,9,,,,,8,,,,36,45
52998,note_on,,,,,0,0,4,,,,,3,,,,60,92
53000,note_on,,,,,32,0,8,,,,,7,,,,48,45
53002,note_on,,,,,32,0,6,,,,,5,,,,63,45
53094,note_on,,,,,96,0,4,,,,,3,,,,60,0
53094,note_on,,,,,0,0,4,,,,,3,,,,65,92
53190,note_on,,,,,0,0,4,,,,,3,,,,60,92
53190,note_on,,,,,96,0,4,,,,,3,,,,65,0
53286,note_on,,,,,96,0,4,,,,,3,,,,60,0
53286,note_on,,,,,0,0,4,,,,,3,,,,65,92
53376,note_on,,,,,0,0,5,,,,,4,,,,74,45
53376,note_on,,,,,384,0,5,,,,,4,,,,75,0
53378,note_on,,,,,0,0,3,,,,,2,,,,75,0
53378,note_on,,,,,0,0,3,,,,,2,,,,86,108
53378,note_on,,,,,0,0,3,,,,,2,,,,74,108
53378,note_on,,,,,384,0,3,,,,,2,,,,87,0
53382,note_on,,,,,0,0,9,,,,,8,,,,34,45
53382,note_on,,,,,384,0,9,,,,,8,,,,36,0
53382,note_on,,,,,96,0,4,,,,,3,,,,65,0
53382,note_on,,,,,0,0,4,,,,,3,,,,58,92
53384,note_on,,,,,0,0,8,,,,,7,,,,46,45
53384,note_on,,,,,384,0,8,,,,,7,,,,48,0
53386,note_on,,,,,0,0,6,,,,,5,,,,62,45
53386,note_on,,,,,384,0,6,,,,,5,,,,63,0
53478,note_on,,,,,0,0,4,,,,,3,,,,65,92
53478,note_on,,,,,96,0,4,,,,,3,,,,58,0
53538,note_on,,,,,160,0,3,,,,,2,,,,86,0
53538,note_on,,,,,0,0,3,,,,,2,,,,74,0
53568,note_on,,,,,192,0,5,,,,,4,,,,74,0
53568,note_on,,,,,0,0,5,,,,,4,,,,75,45
53570,note_on,,,,,32,0,3,,,,,2,,,,75,108
53570,note_on,,,,,0,0,3,,,,,2,,,,87,108
53574,note_on,,,,,0,0,4,,,,,3,,,,60,92
53574,note_on,,,,,96,0,4,,,,,3,,,,65,0
53574,note_on,,,,,192,0,9,,,,,8,,,,34,0
53574,note_on,,,,,0,0,9,,,,,8,,,,36,45
53576,note_on,,,,,0,0,8,,,,,7,,,,48,45
53576,note_on,,,,,192,0,8,,,,,7,,,,46,0
53578,note_on,,,,,0,0,6,,,,,5,,,,63,45
53578,note_on,,,,,192,0,6,,,,,5,,,,62,0
53670,note_on,,,,,96,0,4,,,,,3,,,,60,0
53670,note_on,,,,,0,0,4,,,,,3,,,,65,92
53728,note_on,,,,,160,0,5,,,,,4,,,,75,0
53730,note_on,,,,,0,0,3,,,,,2,,,,75,0
53730,note_on,,,,,160,0,3,,,,,2,,,,87,0
53734,note_on,,,,,160,0,9,,,,,8,,,,36,0
53736,note_on,,,,,160,0,8,,,,,7,,,,48,0
53738,note_on,,,,,160,0,6,,,,,5,,,,63,0
53760,note_on,,,,,32,0,5,,,,,4,,,,76,45
53762,note_on,,,,,0,0,3,,,,,2,,,,88,108
53762,note_on,,,,,32,0,3,,,,,2,,,,76,108
53766,note_on,,,,,0,0,4,,,,,3,,,,61,92
53766,note_on,,,,,96,0,4,,,,,3,,,,65,0
53766,note_on,,,,,32,0,9,,,,,8,,,,37,45
53768,note_on,,,,,32,0,8,,,,,7,,,,49,45
53770,note_on,,,,,32,0,6,,,,,5,,,,64,45
53862,note_on,,,,,96,0,4,,,,,3,,,,61,0
53862,note_on,,,,,0,0,4,,,,,3,,,,65,92
53952,note_on,,,,,192,0,5,,,,,4,,,,76,0
53952,note_on,,,,,0,0,5,,,,,4,,,,77,45
53954,note_on,,,,,0,0,3,,,,,2,,,,77,108
53954,note_on,,,,,0,0,3,,,,,2,,,,76,0
53954,note_on,,,,,0,0,3,,,,,2,,,,89,108
53954,note_on,,,,,192,0,3,,,,,2,,,,88,0
53958,note_on,,,,,96,0,4,,,,,3,,,,65,0
53958,note_on,,,,,0,0,4,,,,,3,,,,62,92
53958,note_on,,,,,192,0,9,,,,,8,,,,37,0
53958,note_on,,,,,0,0,9,,,,,8,,,,38,45
53960,note_on,,,,,192,0,8,,,,,7,,,,49,0
53960,note_on,,,,,0,0,8,,,,,7,,,,50,45
53962,note_on,,,,,192,0,6,,,,,5,,,,64,0
53962,note_on,,,,,0,0,6,,,,,5,,,,65,45
54054,note_on,,,,,96,0,4,,,,,3,,,,62,0
54054,note_on,,,,,0,0,4,,,,,3,,,,65,92
54112,note_on,,,,,160,0,5,,,,,4,,,,77,0
54114,note_on,,,,,160,0,3,,,,,2,,,,89,0
54114,note_on,,,,,0,0,3,,,,,2,,,,77,0
54118,note_on,,,,,160,0,9,,,,,8,,,,38,0
54120,note_on,,,,,160,0,8,,,,,7,,,,50,0
54122,note_on,,,,,160,0,6,,,,,5,,,,65,0
54144,note_on,,,,,32,0,5,,,,,4,,,,77,45
54146,note_on,,,,,0,0,3,,,,,2,,,,89,108
54146,note_on,,,,,2688,0,7,,,,,6,,,,53,0
54146,note_on,,,,,32,0,3,,,,,2,,,,77,108
54146,note_on,,,,,0,0,7,,,,,6,,,,58,45
54150,note_on,,,,,0,0,4,,,,,3,,,,62,92
54150,note_on,,,,,96,0,4,,,,,3,,,,65,0
54150,note_on,,,,,32,0,9,,,,,8,,,,38,45
54152,note_on,,,,,32,0,8,,,,,7,,,,50,45
54154,note_on,,,,,32,0,6,,,,,5,,,,65,45
54246,note_on,,,,,96,0,4,,,,,3,,,,62,0
54246,note_on,,,,,0,0,4,,,,,3,,,,65,92
54304,note_on,,,,,160,0,5,,,,,4,,,,77,0
54306,note_on,,,,,160,0,7,,,,,6,,,,58,0
54306,note_on,,,,,160,0,3,,,,,2,,,,89,0
54306,note_on,,,,,0,0,3,,,,,2,,,,77,0
54310,note_on,,,,,160,0,9,,,,,8,,,,38,0
54312,note_on,,,,,160,0,8,,,,,7,,,,50,0
54314,note_on,,,,,160,0,6,,,,,5,,,,65,0
54336,set_tempo,,,,,3264,1,0,,260870,,,,,,,,
54338,note_on,,,,,32,0,3,,,,,2,,,,79,75
54338,note_on,,,,,32,0,7,,,,,6,,,,62,45
54342,note_on,,,,,96,0,4,,,,,3,,,,65,0
54342,note_on,,,,,0,0,4,,,,,3,,,,62,75
54346,note_on,,,,,32,0,6,,,,,5,,,,77,45
54370,note_on,,,,,0,0,3,,,,,2,,,,77,75
54370,note_on,,,,,32,0,3,,,,,2,,,,79,0
54402,note_on,,,,,0,0,3,,,,,2,,,,79,75
54402,note_on,,,,,32,0,3,,,,,2,,,,77,0
54434,note_on,,,,,0,0,3,,,,,2,,,,77,75
54434,note_on,,,,,32,0,3,,,,,2,,,,79,0
54438,note_on,,,,,96,0,4,,,,,3,,,,62,0
54438,note_on,,,,,0,0,4,,,,,3,,,,65,75
54466,note_on,,,,,0,0,3,,,,,2,,,,76,75
54466,note_on,,,,,32,0,3,,,,,2,,,,77,0
54498,note_on,,,,,32,0,3,,,,,2,,,,76,0
54498,note_on,,,,,160,0,7,,,,,6,,,,62,0
54498,note_on,,,,,0,0,3,,,,,2,,,,77,75
54506,note_on,,,,,160,0,6,,,,,5,,,,77,0
54528,set_tempo,,,,,192,1,0,,272727,,,,,,,,
54530,note_on,,,,,32,0,7,,,,,6,,,,63,45
54530,note_on,,,,,0,0,3,,,,,2,,,,79,92
54530,note_on,,,,,32,0,3,,,,,2,,,,77,0
54534,note_on,,,,,96,0,4,,,,,3,,,,65,0
54534,note_on,,,,,0,0,4,,,,,3,,,,63,75
54538,note_on,,,,,32,0,6,,,,,5,,,,79,45
54630,note_on,,,,,96,0,4,,,,,3,,,,63,0
54630,note_on,,,,,0,0,4,,,,,3,,,,67,75
54690,note_on,,,,,160,0,3,,,,,2,,,,79,0
54690,note_on,,,,,160,0,7,,,,,6,,,,63,0
54698,note_on,,,,,160,0,6,,,,,5,,,,79,0
54722,note_on,,,,,32,0,7,,,,,6,,,,62,45
54722,note_on,,,,,32,0,3,,,,,2,,,,50,127
54726,note_on,,,,,0,0,4,,,,,3,,,,65,75
54726,note_on,,,,,96,0,4,,,,,3,,,,67,0
54730,note_on,,,,,32,0,6,,,,,5,,,,77,45
54822,note_on,,,,,96,0,4,,,,,3,,,,65,0
54822,note_on,,,,,0,0,4,,,,,3,,,,67,75
54882,note_on,,,,,160,0,3,,,,,2,,,,50,0
54882,note_on,,,,,160,0,7,,,,,6,,,,62,0
54890,note_on,,,,,160,0,6,,,,,5,,,,77,0
54914,note_on,,,,,32,0,3,,,,,2,,,,48,127
54914,note_on,,,,,32,0,7,,,,,6,,,,60,45
54918,note_on,,,,,96,0,4,,,,,3,,,,67,0
54918,note_on,,,,,0,0,4,,,,,3,,,,63,75
54922,note_on,,,,,32,0,6,,,,,5,,,,75,45
55014,note_on,,,,,96,0,4,,,,,3,,,,63,0
55014,note_on,,,,,0,0,4,,,,,3,,,,67,75
55074,note_on,,,,,160,0,3,,,,,2,,,,48,0
55074,note_on,,,,,160,0,7,,,,,6,,,,60,0
55082,note_on,,,,,160,0,6,,,,,5,,,,75,0
55106,note_on,,,,,32,0,3,,,,,2,,,,46,127
55106,note_on,,,,,32,0,7,,,,,6,,,,58,45
55110,note_on,,,,,0,0,4,,,,,3,,,,62,75
55110,note_on,,,,,96,0,4,,,,,3,,,,67,0
55114,note_on,,,,,32,0,6,,,,,5,,,,74,45
55206,note_on,,,,,96,0,4,,,,,3,,,,62,0
55206,note_on,,,,,0,0,4,,,,,3,,,,67,75
55266,note_on,,,,,160,0,7,,,,,6,,,,58,0
55266,note_on,,,,,160,0,3,,,,,2,,,,46,0
55274,note_on,,,,,160,0,6,,,,,5,,,,74,0
55296,note_on,,,,,992,0,5,,,,,4,,,,79,45
55298,note_on,,,,,32,0,3,,,,,2,,,,45,127
55298,note_on,,,,,32,0,7,,,,,6,,,,63,45
55302,note_on,,,,,0,0,4,,,,,3,,,,60,75
55302,note_on,,,,,96,0,4,,,,,3,,,,67,0
55302,note_on,,,,,992,0,9,,,,,8,,,,33,45
55304,note_on,,,,,992,0,8,,,,,7,,,,45,45
55306,note_on,,,,,32,0,6,,,,,5,,,,72,45
55398,note_on,,,,,0,0,4,,,,,3,,,,67,75
55398,note_on,,,,,96,0,4,,,,,3,,,,60,0
55458,note_on,,,,,160,0,3,,,,,2,,,,45,0
55488,set_tempo,,,,,960,1,0,,260870,,,,,,,,
55490,note_on,,,,,32,0,3,,,,,2,,,,86,75
55494,note_on,,,,,0,0,4,,,,,3,,,,63,75
55494,note_on,,,,,96,0,4,,,,,3,,,,67,0
55522,note_on,,,,,0,0,3,,,,,2,,,,84,75
55522,note_on,,,,,32,0,3,,,,,2,,,,86,0
55554,note_on,,,,,32,0,3,,,,,2,,,,84,0
55554,note_on,,,,,0,0,3,,,,,2,,,,86,75
55586,note_on,,,,,0,0,3,,,,,2,,,,84,75
55586,note_on,,,,,32,0,3,,,,,2,,,,86,0
55590,note_on,,,,,96,0,4,,,,,3,,,,63,0
55590,note_on,,,,,0,0,4,,,,,3,,,,67,75
55618,note_on,,,,,32,0,3,,,,,2,,,,84,0
55618,note_on,,,,,0,0,3,,,,,2,,,,82,75
55650,note_on,,,,,0,0,3,,,,,2,,,,84,75
55650,note_on,,,,,32,0,3,,,,,2,,,,82,0
55682,note_on,,,,,32,0,3,,,,,2,,,,84,0
55682,note_on,,,,,0,0,3,,,,,2,,,,87,92
55686,note_on,,,,,96,0,4,,,,,3,,,,67,0
55686,note_on,,,,,0,0,4,,,,,3,,,,60,75
55782,note_on,,,,,96,0,4,,,,,3,,,,60,0
55782,note_on,,,,,0,0,4,,,,,3,,,,67,75
55874,note_on,,,,,192,0,3,,,,,2,,,,87,0
55874,note_on,,,,,0,0,3,,,,,2,,,,79,92
55878,note_on,,,,,96,0,4,,,,,3,,,,67,0
55878,note_on,,,,,0,0,4,,,,,3,,,,63,75
55974,note_on,,,,,96,0,4,,,,,3,,,,63,0
55974,note_on,,,,,0,0,4,,,,,3,,,,67,75
56016,note_on,,,,,720,0,5,,,,,4,,,,79,0
56018,note_on,,,,,720,0,7,,,,,6,,,,63,0
56022,note_on,,,,,720,0,9,,,,,8,,,,33,0
56034,note_on,,,,,160,0,3,,,,,2,,,,79,0
56064,set_tempo,,,,,576,1,0,,272727,,,,,,,,
56064,note_on,,,,,48,0,5,,,,,4,,,,77,45
56066,note_on,,,,,32,0,3,,,,,2,,,,77,92
56066,note_on,,,,,48,0,7,,,,,6,,,,62,45
56070,note_on,,,,,48,0,9,,,,,8,,,,38,45
56070,note_on,,,,,96,0,4,,,,,3,,,,67,0
56070,note_on,,,,,0,0,4,,,,,3,,,,62,75
56072,note_on,,,,,768,0,8,,,,,7,,,,45,0
56072,note_on,,,,,0,0,8,,,,,7,,,,50,45
56166,note_on,,,,,0,0,4,,,,,3,,,,65,75
56166,note_on,,,,,96,0,4,,,,,3,,,,62,0
56226,note_on,,,,,160,0,3,,,,,2,,,,77,0
56226,note_on,,,,,160,0,7,,,,,6,,,,62,0
56230,note_on,,,,,160,0,9,,,,,8,,,,38,0
56232,note_on,,,,,160,0,8,,,,,7,,,,50,0
56234,note_on,,,,,928,0,6,,,,,5,,,,72,0
56258,note_on,,,,,32,0,3,,,,,2,,,,48,127
56258,note_on,,,,,32,0,7,,,,,6,,,,60,45
56262,note_on,,,,,96,0,4,,,,,3,,,,65,0
56262,note_on,,,,,0,0,4,,,,,3,,,,63,75
56266,note_on,,,,,32,0,6,,,,,5,,,,75,45
56358,note_on,,,,,0,0,4,,,,,3,,,,65,75
56358,note_on,,,,,96,0,4,,,,,3,,,,63,0
56418,note_on,,,,,160,0,7,,,,,6,,,,60,0
56418,note_on,,,,,160,0,3,,,,,2,,,,48,0
56426,note_on,,,,,160,0,6,,,,,5,,,,75,0
56450,note_on,,,,,32,0,7,,,,,6,,,,58,45
56450,note_on,,,,,32,0,3,,,,,2,,,,46,127
56454,note_on,,,,,96,0,4,,,,,3,,,,65,0
56454,note_on,,,,,0,0,4,,,,,3,,,,62,75
56458,note_on,,,,,32,0,6,,,,,5,,,,74,45
56550,note_on,,,,,0,0,4,,,,,3,,,,65,75
56550,note_on,,,,,96,0,4,,,,,3,,,,62,0
56610,note_on,,,,,160,0,7,,,,,6,,,,58,0
56610,note_on,,,,,160,0,3,,,,,2,,,,46,0
56618,note_on,,,,,160,0,6,,,,,5,,,,74,0
56642,note_on,,,,,32,0,7,,,,,6,,,,57,45
56642,note_on,,,,,32,0,3,,,,,2,,,,45,127
56646,note_on,,,,,96,0,4,,,,,3,,,,65,0
56646,note_on,,,,,0,0,4,,,,,3,,,,60,75
56650,note_on,,,,,32,0,6,,,,,5,,,,72,45
56742,note_on,,,,,96,0,4,,,,,3,,,,60,0
56742,note_on,,,,,0,0,4,,,,,3,,,,65,75
56802,note_on,,,,,160,0,7,,,,,6,,,,57,0
56802,note_on,,,,,160,0,3,,,,,2,,,,45,0
56810,note_on,,,,,160,0,6,,,,,5,,,,72,0
56834,note_on,,,,,32,0,3,,,,,2,,,,43,127
56834,note_on,,,,,32,0,7,,,,,6,,,,62,45
56838,note_on,,,,,0,0,4,,,,,3,,,,58,75
56838,note_on,,,,,96,0,4,,,,,3,,,,65,0
56838,note_on,,,,,608,0,9,,,,,8,,,,31,45
56840,note_on,,,,,608,0,8,,,,,7,,,,43,45
56842,note_on,,,,,32,0,6,,,,,5,,,,70,45
56934,note_on,,,,,0,0,4,,,,,3,,,,65,75
56934,note_on,,,,,96,0,4,,,,,3,,,,58,0
56994,note_on,,,,,160,0,3,,,,,2,,,,43,0
57024,set_tempo,,,,,960,1,0,,260870,,,,,,,,
57026,note_on,,,,,32,0,3,,,,,2,,,,84,75
57030,note_on,,,,,96,0,4,,,,,3,,,,65,0
57030,note_on,,,,,0,0,4,,,,,3,,,,62,75
57058,note_on,,,,,0,0,3,,,,,2,,,,82,75
57058,note_on,,,,,32,0,3,,,,,2,,,,84,0
57090,note_on,,,,,0,0,3,,,,,2,,,,84,75
57090,note_on,,,,,32,0,3,,,,,2,,,,82,0
57122,note_on,,,,,32,0,3,,,,,2,,,,84,0
57122,note_on,,,,,0,0,3,,,,,2,,,,82,75
57126,note_on,,,,,0,0,4,,,,,3,,,,65,75
57126,note_on,,,,,96,0,4,,,,,3,,,,62,0
57154,note_on,,,,,0,0,3,,,,,2,,,,81,75
57154,note_on,,,,,32,0,3,,,,,2,,,,82,0
57186,note_on,,,,,0,0,3,,,,,2,,,,82,75
57186,note_on,,,,,32,0,3,,,,,2,,,,81,0
57218,note_on,,,,,0,0,3,,,,,2,,,,86,92
57218,note_on,,,,,32,0,3,,,,,2,,,,82,0
57222,note_on,,,,,96,0,4,,,,,3,,,,65,0
57222,note_on,,,,,0,0,4,,,,,3,,,,58,75
57318,note_on,,,,,0,0,4,,,,,3,,,,65,75
57318,note_on,,,,,96,0,4,,,,,3,,,,58,0
57410,note_on,,,,,192,0,3,,,,,2,,,,86,0
57410,note_on,,,,,0,0,3,,,,,2,,,,77,92
57414,note_on,,,,,0,0,4,,,,,3,,,,62,75
57414,note_on,,,,,96,0,4,,,,,3,,,,65,0
57510,note_on,,,,,96,0,4,,,,,3,,,,62,0
57510,note_on,,,,,0,0,4,,,,,3,,,,65,75
57552,note_on,,,,,1488,0,5,,,,,4,,,,77,0
57554,note_on,,,,,720,0,7,,,,,6,,,,62,0
57570,note_on,,,,,160,0,3,,,,,2,,,,77,0
57600,note_on,,,,,48,0,5,,,,,4,,,,75,45
57602,note_on,,,,,48,0,7,,,,,6,,,,60,45
57602,note_on,,,,,32,0,3,,,,,2,,,,75,92
57606,note_on,,,,,0,0,4,,,,,3,,,,60,75
57606,note_on,,,,,768,0,9,,,,,8,,,,31,0
57606,note_on,,,,,0,0,9,,,,,8,,,,36,45
57606,note_on,,,,,96,0,4,,,,,3,,,,65,0
57608,note_on,,,,,0,0,8,,,,,7,,,,48,45
57608,note_on,,,,,768,0,8,,,,,7,,,,43,0
57702,note_on,,,,,96,0,4,,,,,3,,,,60,0
57702,note_on,,,,,0,0,4,,,,,3,,,,63,75
57762,note_on,,,,,160,0,7,,,,,6,,,,60,0
57762,note_on,,,,,160,0,3,,,,,2,,,,75,0
57766,note_on,,,,,160,0,9,,,,,8,,,,36,0
57768,note_on,,,,,160,0,8,,,,,7,,,,48,0
57770,note_on,,,,,928,0,6,,,,,5,,,,70,0
57792,set_tempo,,,,,768,1,0,,272727,,,,,,,,
57794,note_on,,,,,32,0,3,,,,,2,,,,46,127
57794,note_on,,,,,32,0,7,,,,,6,,,,58,45
57798,note_on,,,,,0,0,4,,,,,3,,,,62,75
57798,note_on,,,,,96,0,4,,,,,3,,,,63,0
57802,note_on,,,,,32,0,6,,,,,5,,,,74,45
57894,note_on,,,,,96,0,4,,,,,3,,,,62,0
57894,note_on,,,,,0,0,4,,,,,3,,,,63,75
57954,note_on,,,,,160,0,7,,,,,6,,,,58,0
57954,note_on,,,,,160,0,3,,,,,2,,,,46,0
57962,note_on,,,,,160,0,6,,,,,5,,,,74,0
57986,note_on,,,,,32,0,3,,,,,2,,,,45,127
57986,note_on,,,,,32,0,7,,,,,6,,,,57,45
57990,note_on,,,,,0,0,4,,,,,3,,,,60,75
57990,note_on,,,,,96,0,4,,,,,3,,,,63,0
57994,note_on,,,,,32,0,6,,,,,5,,,,72,45
58086,note_on,,,,,0,0,4,,,,,3,,,,63,75
58086,note_on,,,,,96,0,4,,,,,3,,,,60,0
58146,note_on,,,,,160,0,3,,,,,2,,,,45,0
58146,note_on,,,,,160,0,7,,,,,6,,,,57,0
58154,note_on,,,,,160,0,6,,,,,5,,,,72,0
58178,note_on,,,,,32,0,7,,,,,6,,,,55,45
58178,note_on,,,,,32,0,3,,,,,2,,,,43,127
58182,note_on,,,,,0,0,4,,,,,3,,,,58,75
58182,note_on,,,,,96,0,4,,,,,3,,,,63,0
58186,note_on,,,,,32,0,6,,,,,5,,,,70,45
58278,note_on,,,,,0,0,4,,,,,3,,,,63,75
58278,note_on,,,,,96,0,4,,,,,3,,,,58,0
58338,note_on,,,,,160,0,7,,,,,6,,,,55,0
58338,note_on,,,,,160,0,3,,,,,2,,,,43,0
58346,note_on,,,,,160,0,6,,,,,5,,,,70,0
58370,note_on,,,,,32,0,3,,,,,2,,,,41,127
58370,note_on,,,,,32,0,7,,,,,6,,,,60,45
58374,note_on,,,,,608,0,9,,,,,8,,,,29,45
58374,note_on,,,,,96,0,4,,,,,3,,,,63,0
58374,note_on,,,,,0,0,4,,,,,3,,,,57,75
58376,note_on,,,,,608,0,8,,,,,7,,,,41,45
58378,note_on,,,,,32,0,6,,,,,5,,,,69,45
58470,note_on,,,,,96,0,4,,,,,3,,,,57,0
58470,note_on,,,,,0,0,4,,,,,3,,,,63,75
58530,note_on,,,,,160,0,3,,,,,2,,,,41,0
58560,set_tempo,,,,,768,1,0,,260870,,,,,,,,
58562,note_on,,,,,32,0,3,,,,,2,,,,82,75
58566,note_on,,,,,96,0,4,,,,,3,,,,63,0
58566,note_on,,,,,0,0,4,,,,,3,,,,60,75
58594,note_on,,,,,32,0,3,,,,,2,,,,82,0
58594,note_on,,,,,0,0,3,,,,,2,,,,81,75
58626,note_on,,,,,0,0,3,,,,,2,,,,82,75
58626,note_on,,,,,32,0,3,,,,,2,,,,81,0
58658,note_on,,,,,32,0,3,,,,,2,,,,82,0
58658,note_on,,,,,0,0,3,,,,,2,,,,81,75
58662,note_on,,,,,0,0,4,,,,,3,,,,63,75
58662,note_on,,,,,96,0,4,,,,,3,,,,60,0
58690,note_on,,,,,32,0,3,,,,,2,,,,81,0
58690,note_on,,,,,0,0,3,,,,,2,,,,79,75
58722,note_on,,,,,32,0,3,,,,,2,,,,79,0
58722,note_on,,,,,0,0,3,,,,,2,,,,81,75
58754,note_on,,,,,0,0,3,,,,,2,,,,84,92
58754,note_on,,,,,32,0,3,,,,,2,,,,81,0
58758,note_on,,,,,0,0,4,,,,,3,,,,57,75
58758,note_on,,,,,96,0,4,,,,,3,,,,63,0
58854,note_on,,,,,0,0,4,,,,,3,,,,63,75
58854,note_on,,,,,96,0,4,,,,,3,,,,57,0
58946,note_on,,,,,0,0,3,,,,,2,,,,75,92
58946,note_on,,,,,192,0,3,,,,,2,,,,84,0
58950,note_on,,,,,0,0,4,,,,,3,,,,60,75
58950,note_on,,,,,96,0,4,,,,,3,,,,63,0
59046,note_on,,,,,0,0,4,,,,,3,,,,63,75
59046,note_on,,,,,96,0,4,,,,,3,,,,60,0
59088,note_on,,,,,1488,0,5,,,,,4,,,,75,0
59090,note_on,,,,,720,0,7,,,,,6,,,,60,0
59098,note_on,,,,,720,0,6,,,,,5,,,,69,0
59106,note_on,,,,,160,0,3,,,,,2,,,,75,0
59136,note_on,,,,,48,0,5,,,,,4,,,,74,45
59138,note_on,,,,,32,0,3,,,,,2,,,,74,92
59138,note_on,,,,,48,0,7,,,,,6,,,,58,45
59142,note_on,,,,,0,0,4,,,,,3,,,,58,75
59142,note_on,,,,,96,0,4,,,,,3,,,,63,0
59146,note_on,,,,,48,0,6,,,,,5,,,,70,45
59238,note_on,,,,,96,0,4,,,,,3,,,,58,0
59238,note_on,,,,,0,0,4,,,,,3,,,,65,75
59296,note_on,,,,,160,0,5,,,,,4,,,,74,0
59298,note_on,,,,,160,0,7,,,,,6,,,,58,0
59306,note_on,,,,,160,0,6,,,,,5,,,,70,0
59330,note_on,,,,,192,0,3,,,,,2,,,,74,0
59330,note_on,,,,,0,0,3,,,,,2,,,,77,92
59334,note_on,,,,,96,0,4,,,,,3,,,,65,0
59334,note_on,,,,,0,0,4,,,,,3,,,,62,75
59430,note_on,,,,,0,0,4,,,,,3,,,,65,75
59430,note_on,,,,,96,0,4,,,,,3,,,,62,0
59490,note_on,,,,,160,0,3,,,,,2,,,,77,0
59526,note_on,,,,,0,0,4,,,,,3,,,,58,75
59526,note_on,,,,,96,0,4,,,,,3,,,,65,0
59622,note_on,,,,,0,0,4,,,,,3,,,,65,75
59622,note_on,,,,,96,0,4,,,,,3,,,,58,0
59712,set_tempo,,,,,1152,1,0,,272727,,,,,,,,
59714,note_on,,,,,224,0,3,,,,,2,,,,82,92
59718,note_on,,,,,96,0,4,,,,,3,,,,65,0
59718,note_on,,,,,0,0,4,,,,,3,,,,62,75
59814,note_on,,,,,96,0,4,,,,,3,,,,62,0
59814,note_on,,,,,0,0,4,,,,,3,,,,65,75
59874,note_on,,,,,160,0,3,,,,,2,,,,82,0
59904,note_on,,,,,608,0,5,,,,,4,,,,70,45
59906,note_on,,,,,608,0,7,,,,,6,,,,60,45
59906,note_on,,,,,32,0,3,,,,,2,,,,82,92
59910,note_on,,,,,0,0,4,,,,,3,,,,55,75
59910,note_on,,,,,96,0,4,,,,,3,,,,65,0
59914,note_on,,,,,608,0,6,,,,,5,,,,64,45
60006,note_on,,,,,96,0,4,,,,,3,,,,55,0
60006,note_on,,,,,0,0,4,,,,,3,,,,60,75
60102,note_on,,,,,0,0,4,,,,,3,,,,58,75
60102,note_on,,,,,96,0,4,,,,,3,,,,60,0
60198,note_on,,,,,0,0,4,,,,,3,,,,60,75
60198,note_on,,,,,96,0,4,,,,,3,,,,58,0
60290,note_on,,,,,0,0,3,,,,,2,,,,81,92
60290,note_on,,,,,384,0,3,,,,,2,,,,82,0
60294,note_on,,,,,96,0,4,,,,,3,,,,60,0
60294,note_on,,,,,0,0,4,,,,,3,,,,55,75
60386,note_on,,,,,0,0,3,,,,,2,,,,79,92
60386,note_on,,,,,96,0,3,,,,,2,,,,81,0
60390,note_on,,,,,96,0,4,,,,,3,,,,55,0
60390,note_on,,,,,0,0,4,,,,,3,,,,60,75
60482,note_on,,,,,0,0,3,,,,,2,,,,77,92
60482,note_on,,,,,96,0,3,,,,,2,,,,79,0
60486,note_on,,,,,0,0,4,,,,,3,,,,58,75
60486,note_on,,,,,96,0,4,,,,,3,,,,60,0
60578,note_on,,,,,0,0,3,,,,,2,,,,76,92
60578,note_on,,,,,96,0,3,,,,,2,,,,77,0
60582,note_on,,,,,96,0,4,,,,,3,,,,58,0
60582,note_on,,,,,0,0,4,,,,,3,,,,60,75
60624,note_on,,,,,720,0,5,,,,,4,,,,70,0
60634,note_on,,,,,720,0,6,,,,,5,,,,64,0
60672,note_on,,,,,48,0,5,,,,,4,,,,69,45
60674,note_on,,,,,0,0,3,,,,,2,,,,77,92
60674,note_on,,,,,96,0,3,,,,,2,,,,76,0
60678,note_on,,,,,0,0,4,,,,,3,,,,57,75
60678,note_on,,,,,96,0,4,,,,,3,,,,60,0
60682,note_on,,,,,48,0,6,,,,,5,,,,65,45
60774,note_on,,,,,96,0,4,,,,,3,,,,57,0
60774,note_on,,,,,0,0,4,,,,,3,,,,60,75
60832,note_on,,,,,160,0,5,,,,,4,,,,69,0
60834,note_on,,,,,160,0,3,,,,,2,,,,77,0
60834,note_on,,,,,928,0,7,,,,,6,,,,60,0
60838,note_on,,,,,2464,0,9,,,,,8,,,,29,0
60840,note_on,,,,,2464,0,8,,,,,7,,,,41,0
60842,note_on,,,,,160,0,6,,,,,5,,,,65,0
60864,set_tempo,,,,,1152,1,0,,279070,,,,,,,,
60866,note_on,,,,,32,0,3,,,,,2,,,,41,127
60870,note_on,,,,,96,0,4,,,,,3,,,,60,0
60870,note_on,,,,,0,0,4,,,,,3,,,,57,75
60966,note_on,,,,,0,0,4,,,,,3,,,,60,75
60966,note_on,,,,,96,0,4,,,,,3,,,,57,0
61026,note_on,,,,,160,0,3,,,,,2,,,,41,0
61058,note_on,,,,,32,0,3,,,,,2,,,,42,127
61062,note_on,,,,,96,0,4,,,,,3,,,,60,0
61062,note_on,,,,,0,0,4,,,,,3,,,,57,75
61158,note_on,,,,,0,0,4,,,,,3,,,,60,75
61158,note_on,,,,,96,0,4,,,,,3,,,,57,0
61218,note_on,,,,,160,0,3,,,,,2,,,,42,0
61250,note_on,,,,,32,0,3,,,,,2,,,,41,127
61254,note_on,,,,,0,0,4,,,,,3,,,,57,75
61254,note_on,,,,,96,0,4,,,,,3,,,,60,0
61350,note_on,,,,,0,0,4,,,,,3,,,,60,75
61350,note_on,,,,,96,0,4,,,,,3,,,,57,0
61410,note_on,,,,,160,0,3,,,,,2,,,,41,0
61442,note_on,,,,,32,0,3,,,,,2,,,,40,127
61446,note_on,,,,,0,0,4,,,,,3,,,,58,75
61446,note_on,,,,,96,0,4,,,,,3,,,,60,0
61542,note_on,,,,,0,0,4,,,,,3,,,,61,75
61542,note_on,,,,,96,0,4,,,,,3,,,,58,0
61638,note_on,,,,,0,0,4,,,,,3,,,,58,75
61638,note_on,,,,,96,0,4,,,,,3,,,,61,0
61734,note_on,,,,,0,0,4,,,,,3,,,,61,75
61734,note_on,,,,,96,0,4,,,,,3,,,,58,0
61778,note_on,,,,,336,0,3,,,,,2,,,,40,0
61826,note_on,,,,,48,0,3,,,,,2,,,,41,127
61830,note_on,,,,,0,0,4,,,,,3,,,,57,75
61830,note_on,,,,,96,0,4,,,,,3,,,,61,0
61926,note_on,,,,,0,0,4,,,,,3,,,,60,75
61926,note_on,,,,,96,0,4,,,,,3,,,,57,0
62022,note_on,,,,,0,0,4,,,,,3,,,,57,75
62022,note_on,,,,,96,0,4,,,,,3,,,,60,0
62118,note_on,,,,,0,0,4,,,,,3,,,,60,75
62118,note_on,,,,,96,0,4,,,,,3,,,,57,0
62162,note_on,,,,,336,0,3,,,,,2,,,,41,0
62208,note_on,,,,,1376,0,5,,,,,4,,,,82,45
62210,note_on,,,,,1376,0,7,,,,,6,,,,64,45
62210,note_on,,,,,48,0,3,,,,,2,,,,42,127
62214,note_on,,,,,0,0,4,,,,,3,,,,58,75
62214,note_on,,,,,96,0,4,,,,,3,,,,60,0
62214,note_on,,,,,1376,0,9,,,,,8,,,,30,45
62216,note_on,,,,,1376,0,8,,,,,7,,,,42,45
62218,note_on,,,,,1376,0,6,,,,,5,,,,70,45
62310,note_on,,,,,96,0,4,,,,,3,,,,58,0
62310,note_on,,,,,0,0,4,,,,,3,,,,64,75
62370,note_on,,,,,160,0,3,,,,,2,,,,42,0
62400,note_on,,,,,192,0,5,,,,,4,,,,82,0
62400,note_on,,,,,0,0,5,,,,,4,,,,76,45
62402,note_on,,,,,0,0,7,,,,,6,,,,58,45
62402,note_on,,,,,192,0,7,,,,,6,,,,64,0
62406,note_on,,,,,0,0,4,,,,,3,,,,61,75
62406,note_on,,,,,96,0,4,,,,,3,,,,64,0
62410,note_on,,,,,192,0,6,,,,,5,,,,70,0
62410,note_on,,,,,0,0,6,,,,,5,,,,73,45
62494,note_on,,,,,94,0,5,,,,,4,,,,76,0
62496,note_on,,,,,94,0,7,,,,,6,,,,58,0
62502,note_on,,,,,96,0,4,,,,,3,,,,61,0
62502,note_on,,,,,0,0,4,,,,,3,,,,64,75
62504,note_on,,,,,94,0,6,,,,,5,,,,73,0
62592,set_tempo,,,,,1728,1,0,,272727,,,,,,,,
62592,note_on,,,,,98,0,5,,,,,4,,,,82,45
62594,note_on,,,,,224,0,3,,,,,2,,,,82,127
62594,note_on,,,,,98,0,7,,,,,6,,,,64,45
62598,note_on,,,,,0,0,4,,,,,3,,,,58,75
62598,note_on,,,,,96,0,4,,,,,3,,,,64,0
62602,note_on,,,,,98,0,6,,,,,5,,,,70,45
62694,note_on,,,,,0,0,4,,,,,3,,,,64,75
62694,note_on,,,,,96,0,4,,,,,3,,,,58,0
62784,note_on,,,,,0,0,5,,,,,4,,,,76,45
62784,note_on,,,,,192,0,5,,,,,4,,,,82,0
62786,note_on,,,,,0,0,7,,,,,6,,,,58,45
62786,note_on,,,,,192,0,7,,,,,6,,,,64,0
62790,note_on,,,,,0,0,4,,,,,3,,,,61,75
62790,note_on,,,,,96,0,4,,,,,3,,,,64,0
62794,note_on,,,,,192,0,6,,,,,5,,,,70,0
62794,note_on,,,,,0,0,6,,,,,5,,,,73,45
62878,note_on,,,,,94,0,5,,,,,4,,,,76,0
62880,note_on,,,,,94,0,7,,,,,6,,,,58,0
62886,note_on,,,,,0,0,4,,,,,3,,,,64,75
62886,note_on,,,,,96,0,4,,,,,3,,,,61,0
62888,note_on,,,,,94,0,6,,,,,5,,,,73,0
62976,note_on,,,,,98,0,5,,,,,4,,,,82,45
62978,note_on,,,,,98,0,7,,,,,6,,,,64,45
62982,note_on,,,,,96,0,4,,,,,3,,,,64,0
62982,note_on,,,,,0,0,4,,,,,3,,,,58,75
62986,note_on,,,,,98,0,6,,,,,5,,,,70,45
63072,note_on,,,,,478,0,3,,,,,2,,,,82,0
63074,note_on,,,,,2,0,3,,,,,2,,,,84,75
63078,note_on,,,,,96,0,4,,,,,3,,,,58,0
63078,note_on,,,,,0,0,4,,,,,3,,,,64,75
63122,note_on,,,,,48,0,3,,,,,2,,,,84,0
63122,note_on,,,,,0,0,3,,,,,2,,,,82,75
63168,note_on,,,,,0,0,5,,,,,4,,,,76,45
63168,note_on,,,,,192,0,5,,,,,4,,,,82,0
63170,note_on,,,,,0,0,7,,,,,6,,,,58,45
63170,note_on,,,,,192,0,7,,,,,6,,,,64,0
63170,note_on,,,,,48,0,3,,,,,2,,,,82,0
63170,note_on,,,,,0,0,3,,,,,2,,,,81,75
63174,note_on,,,,,96,0,4,,,,,3,,,,64,0
63174,note_on,,,,,0,0,4,,,,,3,,,,61,75
63178,note_on,,,,,192,0,6,,,,,5,,,,70,0
63178,note_on,,,,,0,0,6,,,,,5,,,,73,45
63218,note_on,,,,,0,0,3,,,,,2,,,,82,75
63218,note_on,,,,,48,0,3,,,,,2,,,,81,0
63262,note_on,,,,,94,0,5,,,,,4,,,,76,0
63264,note_on,,,,,94,0,7,,,,,6,,,,58,0
63266,note_on,,,,,48,0,3,,,,,2,,,,82,0
63266,note_on,,,,,0,0,3,,,,,2,,,,84,75
63270,note_on,,,,,96,0,4,,,,,3,,,,61,0
63270,note_on,,,,,0,0,4,,,,,3,,,,64,75
63272,note_on,,,,,94,0,6,,,,,5,,,,73,0
63360,note_on,,,,,94,0,3,,,,,2,,,,84,0
63360,note_on,,,,,98,0,5,,,,,4,,,,82,45
63362,note_on,,,,,2,0,3,,,,,2,,,,85,92
63362,note_on,,,,,98,0,7,,,,,6,,,,64,45
63366,note_on,,,,,96,0,4,,,,,3,,,,64,0
63366,note_on,,,,,0,0,4,,,,,3,,,,58,75
63370,note_on,,,,,98,0,6,,,,,5,,,,70,45
63462,note_on,,,,,96,0,4,,,,,3,,,,58,0
63462,note_on,,,,,0,0,4,,,,,3,,,,61,75
63552,note_on,,,,,192,0,5,,,,,4,,,,82,0
63552,note_on,,,,,0,0,5,,,,,4,,,,76,45
63554,note_on,,,,,0,0,3,,,,,2,,,,76,92
63554,note_on,,,,,192,0,7,,,,,6,,,,64,0
63554,note_on,,,,,0,0,7,,,,,6,,,,58,45
63554,note_on,,,,,192,0,3,,,,,2,,,,85,0
63558,note_on,,,,,96,0,4,,,,,3,,,,61,0
63558,note_on,,,,,0,0,4,,,,,3,,,,60,75
63562,note_on,,,,,192,0,6,,,,,5,,,,70,0
63562,note_on,,,,,0,0,6,,,,,5,,,,73,45
63646,note_on,,,,,94,0,5,,,,,4,,,,76,0
63648,note_on,,,,,94,0,7,,,,,6,,,,58,0
63654,note_on,,,,,96,0,4,,,,,3,,,,60,0
63654,note_on,,,,,0,0,4,,,,,3,,,,58,75
63656,note_on,,,,,94,0,6,,,,,5,,,,73,0
63702,note_on,,,,,1488,0,9,,,,,8,,,,30,0
63704,note_on,,,,,1488,0,8,,,,,7,,,,42,0
63714,note_on,,,,,160,0,3,,,,,2,,,,76,0
63744,note_on,,,,,98,0,5,,,,,4,,,,77,45
63744,set_tempo,,,,,1152,1,0,,279070,,,,,,,,
63746,note_on,,,,,32,0,3,,,,,2,,,,77,92
63746,note_on,,,,,98,0,7,,,,,6,,,,60,45
63750,note_on,,,,,0,0,4,,,,,3,,,,57,75
63750,note_on,,,,,48,0,9,,,,,8,,,,29,45
63750,note_on,,,,,96,0,4,,,,,3,,,,58,0
63752,note_on,,,,,48,0,8,,,,,7,,,,41,45
63754,note_on,,,,,98,0,6,,,,,5,,,,69,45
63846,note_on,,,,,0,0,4,,,,,3,,,,60,75
63846,note_on,,,,,96,0,4,,,,,3,,,,57,0
63904,note_on,,,,,160,0,5,,,,,4,,,,77,0
63906,note_on,,,,,160,0,7,,,,,6,,,,60,0
63906,note_on,,,,,160,0,3,,,,,2,,,,77,0
63910,note_on,,,,,160,0,9,,,,,8,,,,29,0
63912,note_on,,,,,160,0,8,,,,,7,,,,41,0
63914,note_on,,,,,160,0,6,,,,,5,,,,69,0
63938,note_on,,,,,32,0,3,,,,,2,,,,41,127
63942,note_on,,,,,96,0,4,,,,,3,,,,60,0
63942,note_on,,,,,0,0,4,,,,,3,,,,57,75
64038,note_on,,,,,96,0,4,,,,,3,,,,57,0
64038,note_on,,,,,0,0,4,,,,,3,,,,60,75
64098,note_on,,,,,160,0,3,,,,,2,,,,41,0
64130,note_on,,,,,32,0,3,,,,,2,,,,42,127
64134,note_on,,,,,96,0,4,,,,,3,,,,60,0
64134,note_on,,,,,0,0,4,,,,,3,,,,57,75
64230,note_on,,,,,96,0,4,,,,,3,,,,57,0
64230,note_on,,,,,0,0,4,,,,,3,,,,60,75
64290,note_on,,,,,160,0,3,,,,,2,,,,42,0
64322,note_on,,,,,32,0,3,,,,,2,,,,41,127
64326,note_on,,,,,0,0,4,,,,,3,,,,57,75
64326,note_on,,,,,96,0,4,,,,,3,,,,60,0
64422,note_on,,,,,96,0,4,,,,,3,,,,57,0
64422,note_on,,,,,0,0,4,,,,,3,,,,60,75
64482,note_on,,,,,160,0,3,,,,,2,,,,41,0
64514,note_on,,,,,32,0,3,,,,,2,,,,40,127
64518,note_on,,,,,0,0,4,,,,,3,,,,58,75
64518,note_on,,,,,96,0,4,,,,,3,,,,60,0
64614,note_on,,,,,96,0,4,,,,,3,,,,58,0
64614,note_on,,,,,0,0,4,,,,,3,,,,61,75
64710,note_on,,,,,0,0,4,,,,,3,,,,58,75
64710,note_on,,,,,96,0,4,,,,,3,,,,61,0
64806,note_on,,,,,0,0,4,,,,,3,,,,61,75
64806,note_on,,,,,96,0,4,,,,,3,,,,58,0
64850,note_on,,,,,336,0,3,,,,,2,,,,40,0
64898,note_on,,,,,48,0,3,,,,,2,,,,41,127
64902,note_on,,,,,0,0,4,,,,,3,,,,57,75
64902,note_on,,,,,96,0,4,,,,,3,,,,61,0
64998,note_on,,,,,0,0,4,,,,,3,,,,60,75
64998,note_on,,,,,96,0,4,,,,,3,,,,57,0
65094,note_on,,,,,0,0,4,,,,,3,,,,57,75
65094,note_on,,,,,96,0,4,,,,,3,,,,60,0
65190,note_on,,,,,96,0,4,,,,,3,,,,57,0
65190,note_on,,,,,0,0,4,,,,,3,,,,60,75
65234,note_on,,,,,336,0,3,,,,,2,,,,41,0
65280,note_on,,,,,1376,0,5,,,,,4,,,,82,45
65282,note_on,,,,,48,0,3,,,,,2,,,,42,127
65282,note_on,,,,,1376,0,7,,,,,6,,,,64,45
65286,note_on,,,,,1376,0,9,,,,,8,,,,30,45
65286,note_on,,,,,96,0,4,,,,,3,,,,60,0
65286,note_on,,,,,0,0,4,,,,,3,,,,58,75
65288,note_on,,,,,1376,0,8,,,,,7,,,,42,45
65290,note_on,,,,,1376,0,6,,,,,5,,,,70,45
65382,note_on,,,,,0,0,4,,,,,3,,,,64,75
65382,note_on,,,,,96,0,4,,,,,3,,,,58,0
65442,note_on,,,,,160,0,3,,,,,2,,,,42,0
65472,note_on,,,,,0,0,5,,,,,4,,,,76,45
65472,note_on,,,,,192,0,5,,,,,4,,,,82,0
65474,note_on,,,,,0,0,7,,,,,6,,,,58,45
65474,note_on,,,,,192,0,7,,,,,6,,,,64,0
65478,note_on,,,,,96,0,4,,,,,3,,,,64,0
65478,note_on,,,,,0,0,4,,,,,3,,,,61,75
65482,note_on,,,,,192,0,6,,,,,5,,,,70,0
65482,note_on,,,,,0,0,6,,,,,5,,,,73,45
65566,note_on,,,,,94,0,5,,,,,4,,,,76,0
65568,note_on,,,,,94,0,7,,,,,6,,,,58,0
65574,note_on,,,,,0,0,4,,,,,3,,,,64,75
65574,note_on,,,,,96,0,4,,,,,3,,,,61,0
65576,note_on,,,,,94,0,6,,,,,5,,,,73,0
65664,set_tempo,,,,,1920,1,0,,272727,,,,,,,,
65664,note_on,,,,,98,0,5,,,,,4,,,,82,45
65666,note_on,,,,,224,0,3,,,,,2,,,,82,127
65666,note_on,,,,,98,0,7,,,,,6,,,,64,45
65670,note_on,,,,,0,0,4,,,,,3,,,,58,75
65670,note_on,,,,,96,0,4,,,,,3,,,,64,0
65674,note_on,,,,,98,0,6,,,,,5,,,,70,45
65766,note_on,,,,,96,0,4,,,,,3,,,,58,0
65766,note_on,,,,,0,0,4,,,,,3,,,,64,75
65856,note_on,,,,,0,0,5,,,,,4,,,,76,45
65856,note_on,,,,,192,0,5,,,,,4,,,,82,0
65858,note_on,,,,,192,0,7,,,,,6,,,,64,0
65858,note_on,,,,,0,0,7,,,,,6,,,,58,45
65862,note_on,,,,,96,0,4,,,,,3,,,,64,0
65862,note_on,,,,,0,0,4,,,,,3,,,,61,75
65866,note_on,,,,,192,0,6,,,,,5,,,,70,0
65866,note_on,,,,,0,0,6,,,,,5,,,,73,45
65950,note_on,,,,,94,0,5,,,,,4,,,,76,0
65952,note_on,,,,,94,0,7,,,,,6,,,,58,0
65958,note_on,,,,,0,0,4,,,,,3,,,,65,75
65958,note_on,,,,,96,0,4,,,,,3,,,,61,0
65960,note_on,,,,,94,0,6,,,,,5,,,,73,0
66048,note_on,,,,,98,0,5,,,,,4,,,,82,45
66050,note_on,,,,,98,0,7,,,,,6,,,,64,45
66054,note_on,,,,,96,0,4,,,,,3,,,,65,0
66054,note_on,,,,,0,0,4,,,,,3,,,,58,75
66058,note_on,,,,,98,0,6,,,,,5,,,,70,45
66144,note_on,,,,,478,0,3,,,,,2,,,,82,0
66146,note_on,,,,,2,0,3,,,,,2,,,,84,75
66150,note_on,,,,,96,0,4,,,,,3,,,,58,0
66150,note_on,,,,,0,0,4,,,,,3,,,,64,75
66194,note_on,,,,,48,0,3,,,,,2,,,,84,0
66194,note_on,,,,,0,0,3,,,,,2,,,,82,75
66240,note_on,,,,,192,0,5,,,,,4,,,,82,0
66240,note_on,,,,,0,0,5,,,,,4,,,,76,45
66242,note_on,,,,,192,0,7,,,,,6,,,,64,0
66242,note_on,,,,,48,0,3,,,,,2,,,,82,0
66242,note_on,,,,,0,0,7,,,,,6,,,,58,45
66242,note_on,,,,,0,0,3,,,,,2,,,,81,75
66246,note_on,,,,,0,0,4,,,,,3,,,,61,75
66246,note_on,,,,,96,0,4,,,,,3,,,,64,0
66250,note_on,,,,,192,0,6,,,,,5,,,,70,0
66250,note_on,,,,,0,0,6,,,,,5,,,,73,45
66290,note_on,,,,,48,0,3,,,,,2,,,,81,0
66290,note_on,,,,,0,0,3,,,,,2,,,,82,75
66334,note_on,,,,,94,0,5,,,,,4,,,,76,0
66336,note_on,,,,,94,0,7,,,,,6,,,,58,0
66338,note_on,,,,,48,0,3,,,,,2,,,,82,0
66338,note_on,,,,,0,0,3,,,,,2,,,,84,92
66342,note_on,,,,,96,0,4,,,,,3,,,,61,0
66342,note_on,,,,,0,0,4,,,,,3,,,,64,75
66344,note_on,,,,,94,0,6,,,,,5,,,,73,0
66432,note_on,,,,,94,0,3,,,,,2,,,,84,0
66432,note_on,,,,,98,0,5,,,,,4,,,,82,45
66434,note_on,,,,,98,0,7,,,,,6,,,,64,45
66434,note_on,,,,,2,0,3,,,,,2,,,,85,92
66438,note_on,,,,,0,0,4,,,,,3,,,,58,75
66438,note_on,,,,,96,0,4,,,,,3,,,,64,0
66442,note_on,,,,,98,0,6,,,,,5,,,,70,45
66534,note_on,,,,,0,0,4,,,,,3,,,,61,75
66534,note_on,,,,,96,0,4,,,,,3,,,,58,0
66624,note_on,,,,,192,0,5,,,,,4,,,,82,0
66624,note_on,,,,,0,0,5,,,,,4,,,,76,45
66626,note_on,,,,,192,0,7,,,,,6,,,,64,0
66626,note_on,,,,,192,0,3,,,,,2,,,,85,0
66626,note_on,,,,,0,0,3,,,,,2,,,,76,92
66626,note_on,,,,,0,0,7,,,,,6,,,,58,45
66630,note_on,,,,,0,0,4,,,,,3,,,,60,75
66630,note_on,,,,,96,0,4,,,,,3,,,,61,0
66634,note_on,,,,,192,0,6,,,,,5,,,,70,0
66634,note_on,,,,,0,0,6,,,,,5,,,,73,45
66718,note_on,,,,,94,0,5,,,,,4,,,,76,0
66720,note_on,,,,,94,0,7,,,,,6,,,,58,0
66726,note_on,,,,,0,0,4,,,,,3,,,,58,75
66726,note_on,,,,,96,0,4,,,,,3,,,,60,0
66728,note_on,,,,,94,0,6,,,,,5,,,,73,0
66774,note_on,,,,,1488,0,9,,,,,8,,,,30,0
66776,note_on,,,,,1488,0,8,,,,,7,,,,42,0
66786,note_on,,,,,160,0,3,,,,,2,,,,76,0
66816,note_on,,,,,98,0,5,,,,,4,,,,77,45
66816,set_tempo,,,,,1152,1,0,,279070,,,,,,,,
66818,note_on,,,,,98,0,7,,,,,6,,,,60,45
66818,note_on,,,,,32,0,3,,,,,2,,,,77,92
66822,note_on,,,,,48,0,9,,,,,8,,,,29,45
66822,note_on,,,,,96,0,4,,,,,3,,,,58,0
66822,note_on,,,,,0,0,4,,,,,3,,,,57,75
66824,note_on,,,,,48,0,8,,,,,7,,,,41,45
66826,note_on,,,,,98,0,6,,,,,5,,,,69,45
66918,note_on,,,,,0,0,4,,,,,3,,,,60,75
66918,note_on,,,,,96,0,4,,,,,3,,,,57,0
66976,note_on,,,,,160,0,5,,,,,4,,,,77,0
66978,note_on,,,,,160,0,3,,,,,2,,,,77,0
66978,note_on,,,,,160,0,7,,,,,6,,,,60,0
66982,note_on,,,,,160,0,9,,,,,8,,,,29,0
66984,note_on,,,,,160,0,8,,,,,7,,,,41,0
66986,note_on,,,,,160,0,6,,,,,5,,,,69,0
67014,note_on,,,,,96,0,4,,,,,3,,,,60,0
67014,note_on,,,,,0,0,4,,,,,3,,,,58,75
67110,note_on,,,,,0,0,4,,,,,3,,,,57,75
67110,note_on,,,,,96,0,4,,,,,3,,,,58,0
67200,note_on,,,,,224,0,5,,,,,4,,,,73,45
67202,note_on,,,,,224,0,3,,,,,2,,,,85,127
67206,note_on,,,,,0,0,4,,,,,3,,,,58,75
67206,note_on,,,,,96,0,4,,,,,3,,,,57,0
67210,note_on,,,,,224,0,6,,,,,5,,,,70,45
67302,note_on,,,,,0,0,4,,,,,3,,,,61,75
67302,note_on,,,,,96,0,4,,,,,3,,,,58,0
67394,note_on,,,,,0,0,3,,,,,2,,,,76,92
67394,note_on,,,,,192,0,3,,,,,2,,,,85,0
67398,note_on,,,,,0,0,4,,,,,3,,,,60,75
67398,note_on,,,,,96,0,4,,,,,3,,,,61,0
67494,note_on,,,,,0,0,4,,,,,3,,,,58,75
67494,note_on,,,,,96,0,4,,,,,3,,,,60,0
67554,note_on,,,,,160,0,3,,,,,2,,,,76,0
67584,note_on,,,,,384,0,5,,,,,4,,,,73,0
67584,note_on,,,,,0,0,5,,,,,4,,,,72,45
67586,note_on,,,,,32,0,3,,,,,2,,,,77,92
67586,note_on,,,,,608,0,7,,,,,6,,,,65,45
67590,note_on,,,,,96,0,4,,,,,3,,,,58,0
67590,note_on,,,,,0,0,4,,,,,3,,,,57,75
67590,note_on,,,,,608,0,9,,,,,8,,,,41,45
67592,note_on,,,,,608,0,8,,,,,7,,,,53,45
67594,note_on,,,,,0,0,6,,,,,5,,,,69,45
67594,note_on,,,,,384,0,6,,,,,5,,,,70,0
67686,note_on,,,,,96,0,4,,,,,3,,,,57,0
67686,note_on,,,,,0,0,4,,,,,3,,,,60,75
67744,note_on,,,,,160,0,5,,,,,4,,,,72,0
67746,note_on,,,,,160,0,7,,,,,6,,,,65,0
67746,note_on,,,,,160,0,3,,,,,2,,,,77,0
67750,note_on,,,,,160,0,9,,,,,8,,,,41,0
67752,note_on,,,,,160,0,8,,,,,7,,,,53,0
67754,note_on,,,,,160,0,6,,,,,5,,,,69,0
67782,note_on,,,,,0,0,4,,,,,3,,,,58,75
67782,note_on,,,,,96,0,4,,,,,3,,,,60,0
67878,note_on,,,,,96,0,4,,,,,3,,,,58,0
67878,note_on,,,,,0,0,4,,,,,3,,,,57,75
67968,note_on,,,,,224,0,5,,,,,4,,,,73,45
67970,note_on,,,,,224,0,3,,,,,2,,,,85,127
67974,note_on,,,,,96,0,4,,,,,3,,,,57,0
67974,note_on,,,,,0,0,4,,,,,3,,,,58,75
67978,note_on,,,,,224,0,6,,,,,5,,,,70,45
68070,note_on,,,,,96,0,4,,,,,3,,,,58,0
68070,note_on,,,,,0,0,4,,,,,3,,,,61,75
68162,note_on,,,,,192,0,3,,,,,2,,,,85,0
68162,note_on,,,,,0,0,3,,,,,2,,,,76,92
68166,note_on,,,,,0,0,4,,,,,3,,,,60,75
68166,note_on,,,,,96,0,4,,,,,3,,,,61,0
68262,note_on,,,,,0,0,4,,,,,3,,,,58,75
68262,note_on,,,,,96,0,4,,,,,3,,,,60,0
68322,note_on,,,,,160,0,3,,,,,2,,,,76,0
68352,note_on,,,,,384,0,5,,,,,4,,,,73,0
68352,note_on,,,,,0,0,5,,,,,4,,,,72,45
68352,set_tempo,,,,,1536,1,0,,285714,,,,,,,,
68354,note_on,,,,,32,0,3,,,,,2,,,,77,92
68354,note_on,,,,,608,0,7,,,,,6,,,,65,45
68358,note_on,,,,,0,0,4,,,,,3,,,,57,75
68358,note_on,,,,,96,0,4,,,,,3,,,,58,0
68358,note_on,,,,,608,0,9,,,,,8,,,,29,45
68360,note_on,,,,,608,0,8,,,,,7,,,,41,45
68362,note_on,,,,,0,0,6,,,,,5,,,,69,45
68362,note_on,,,,,384,0,6,,,,,5,,,,70,0
68446,note_on,,,,,94,0,5,,,,,4,,,,72,0
68454,note_on,,,,,0,0,4,,,,,3,,,,60,75
68454,note_on,,,,,96,0,4,,,,,3,,,,57,0
68456,note_on,,,,,94,0,6,,,,,5,,,,69,0
68514,note_on,,,,,160,0,7,,,,,6,,,,65,0
68514,note_on,,,,,160,0,3,,,,,2,,,,77,0
68518,note_on,,,,,160,0,9,,,,,8,,,,29,0
68520,note_on,,,,,160,0,8,,,,,7,,,,41,0
68544,note_on,,,,,98,0,5,,,,,4,,,,73,45
68546,note_on,,,,,32,0,3,,,,,2,,,,77,108
68550,note_on,,,,,0,0,4,,,,,3,,,,58,75
68550,note_on,,,,,96,0,4,,,,,3,,,,60,0
68554,note_on,,,,,98,0,6,,,,,5,,,,70,45
68638,note_on,,,,,94,0,5,,,,,4,,,,73,0
68646,note_on,,,,,0,0,4,,,,,3,,,,61,75
68646,note_on,,,,,96,0,4,,,,,3,,,,58,0
68648,note_on,,,,,94,0,6,,,,,5,,,,70,0
68706,note_on,,,,,160,0,3,,,,,2,,,,77,0
68736,set_tempo,,,,,384,1,0,,300000,,,,,,,,
68736,note_on,,,,,98,0,5,,,,,4,,,,72,45
68738,note_on,,,,,224,0,7,,,,,6,,,,65,45
68738,note_on,,,,,32,0,3,,,,,2,,,,77,127
68742,note_on,,,,,96,0,4,,,,,3,,,,61,0
68742,note_on,,,,,0,0,4,,,,,3,,,,57,75
68742,note_on,,,,,224,0,9,,,,,8,,,,41,45
68744,note_on,,,,,224,0,8,,,,,7,,,,53,45
68746,note_on,,,,,98,0,6,,,,,5,,,,69,45
68830,note_on,,,,,94,0,5,,,,,4,,,,72,0
68838,note_on,,,,,96,0,4,,,,,3,,,,57,0
68838,note_on,,,,,0,0,4,,,,,3,,,,60,75
68840,note_on,,,,,94,0,6,,,,,5,,,,69,0
68898,note_on,,,,,160,0,7,,,,,6,,,,65,0
68898,note_on,,,,,160,0,3,,,,,2,,,,77,0
68902,note_on,,,,,160,0,9,,,,,8,,,,41,0
68904,note_on,,,,,160,0,8,,,,,7,,,,53,0
68928,note_on,,,,,98,0,5,,,,,4,,,,73,45
68930,note_on,,,,,32,0,3,,,,,2,,,,77,127
68934,note_on,,,,,96,0,4,,,,,3,,,,60,0
68934,note_on,,,,,0,0,4,,,,,3,,,,58,75
68938,note_on,,,,,98,0,6,,,,,5,,,,70,45
69022,note_on,,,,,94,0,5,,,,,4,,,,73,0
69030,note_on,,,,,96,0,4,,,,,3,,,,58,0
69030,note_on,,,,,0,0,4,,,,,3,,,,61,75
69032,note_on,,,,,94,0,6,,,,,5,,,,70,0
69090,note_on,,,,,160,0,3,,,,,2,,,,77,0
69120,set_tempo,,,,,384,1,0,,266667,,,,,,,,
69120,note_on,,,,,98,0,5,,,,,4,,,,72,45
69122,note_on,,,,,32,0,3,,,,,2,,,,77,108
69122,note_on,,,,,224,0,7,,,,,6,,,,65,45
69126,note_on,,,,,96,0,4,,,,,3,,,,61,0
69126,note_on,,,,,224,0,9,,,,,8,,,,29,45
69126,note_on,,,,,0,0,4,,,,,3,,,,57,75
69126,note_on,,,,,0,0,4,,,,,3,,,,60,75
69128,note_on,,,,,224,0,8,,,,,7,,,,41,45
69130,note_on,,,,,98,0,6,,,,,5,,,,69,45
69218,note_on,,,,,96,0,3,,,,,2,,,,77,0
69218,note_on,,,,,0,0,3,,,,,2,,,,76,108
69314,note_on,,,,,96,0,3,,,,,2,,,,76,0
69314,note_on,,,,,0,0,3,,,,,2,,,,77,108
69410,note_on,,,,,0,0,3,,,,,2,,,,76,108
69410,note_on,,,,,96,0,3,,,,,2,,,,77,0
69456,note_on,,,,,336,0,5,,,,,4,,,,72,0
69458,note_on,,,,,336,0,7,,,,,6,,,,65,0
69462,note_on,,,,,336,0,9,,,,,8,,,,29,0
69464,note_on,,,,,336,0,8,,,,,7,,,,41,0
69466,note_on,,,,,336,0,6,,,,,5,,,,69,0
69506,note_on,,,,,96,0,3,,,,,2,,,,76,0
69506,note_on,,,,,0,0,3,,,,,2,,,,77,92
69510,note_on,,,,,0,0,4,,,,,3,,,,57,0
69510,note_on,,,,,384,0,4,,,,,3,,,,60,0
69602,note_on,,,,,96,0,3,,,,,2,,,,77,0
69602,note_on,,,,,0,0,3,,,,,2,,,,76,92
69696,note_on,,,,,240,0,5,,,,,4,,,,77,45
69698,note_on,,,,,96,0,3,,,,,2,,,,76,0
69698,note_on,,,,,0,0,3,,,,,2,,,,75,92
69794,note_on,,,,,0,0,3,,,,,2,,,,72,92
69794,note_on,,,,,96,0,3,,,,,2,,,,75,0
69856,note_on,,,,,160,0,5,,,,,4,,,,77,0
69888,note_on,,,,,32,0,5,,,,,4,,,,82,45
69888,set_tempo,,,,,768,1,0,,272727,,,,,,,,
69890,note_on,,,,,0,0,3,,,,,2,,,,70,75
69890,note_on,,,,,96,0,3,,,,,2,,,,72,0
69936,note_on,,,,,48,0,5,,,,,4,,,,82,0
70080,note_on,,,,,144,0,5,,,,,4,,,,77,45
70128,note_on,,,,,48,0,5,,,,,4,,,,77,0
70226,note_on,,,,,336,0,3,,,,,2,,,,70,0
70272,note_on,,,,,144,0,5,,,,,4,,,,79,45
70282,note_on,,,,,816,0,6,,,,,5,,,,70,45
70320,note_on,,,,,48,0,5,,,,,4,,,,79,0
70464,note_on,,,,,144,0,5,,,,,4,,,,74,45
70512,note_on,,,,,48,0,5,,,,,4,,,,74,0
70656,note_on,,,,,144,0,5,,,,,4,,,,75,45
70704,note_on,,,,,48,0,5,,,,,4,,,,75,0
70848,note_on,,,,,144,0,5,,,,,4,,,,72,45
70896,note_on,,,,,48,0,5,,,,,4,,,,72,0
71040,note_on,,,,,144,0,5,,,,,4,,,,65,45
71050,note_on,,,,,768,0,6,,,,,5,,,,70,0
71050,note_on,,,,,0,0,6,,,,,5,,,,69,45
71088,note_on,,,,,48,0,5,,,,,4,,,,65,0
71232,note_on,,,,,144,0,5,,,,,4,,,,77,45
71234,note_on,,,,,1776,0,7,,,,,6,,,,65,45
71280,note_on,,,,,48,0,5,,,,,4,,,,77,0
71282,note_on,,,,,48,0,7,,,,,6,,,,65,0
71386,note_on,,,,,336,0,6,,,,,5,,,,69,0
71424,note_on,,,,,144,0,5,,,,,4,,,,74,45
71426,note_on,,,,,144,0,7,,,,,6,,,,70,45
71434,note_on,,,,,48,0,6,,,,,5,,,,70,45
71472,note_on,,,,,48,0,5,,,,,4,,,,74,0
71474,note_on,,,,,48,0,7,,,,,6,,,,70,0
71522,note_on,,,,,1296,0,3,,,,,2,,,,77,75
71616,note_on,,,,,144,0,5,,,,,4,,,,70,45
71618,note_on,,,,,144,0,7,,,,,6,,,,65,45
71618,note_on,,,,,96,0,3,,,,,2,,,,77,0
71618,note_on,,,,,0,0,3,,,,,2,,,,79,75
71664,note_on,,,,,48,0,5,,,,,4,,,,70,0
71666,note_on,,,,,48,0,7,,,,,6,,,,65,0
71714,note_on,,,,,96,0,3,,,,,2,,,,79,0
71714,note_on,,,,,0,0,3,,,,,2,,,,81,75
71770,note_on,,,,,336,0,6,,,,,5,,,,70,0
71808,note_on,,,,,144,0,5,,,,,4,,,,82,45
71810,note_on,,,,,144,0,7,,,,,6,,,,67,45
71810,note_on,,,,,96,0,3,,,,,2,,,,81,0
71810,note_on,,,,,0,0,3,,,,,2,,,,82,92
71818,note_on,,,,,48,0,6,,,,,5,,,,74,45
71858,note_on,,,,,48,0,7,,,,,6,,,,67,0
71906,note_on,,,,,0,0,3,,,,,2,,,,74,92
71906,note_on,,,,,96,0,3,,,,,2,,,,82,0
72002,note_on,,,,,0,0,3,,,,,2,,,,75,92
72002,note_on,,,,,144,0,7,,,,,6,,,,62,45
72002,note_on,,,,,96,0,3,,,,,2,,,,74,0
72050,note_on,,,,,48,0,7,,,,,6,,,,62,0
72098,note_on,,,,,0,0,3,,,,,2,,,,77,92
72098,note_on,,,,,96,0,3,,,,,2,,,,75,0
72154,note_on,,,,,336,0,6,,,,,5,,,,74,0
72194,note_on,,,,,144,0,7,,,,,6,,,,63,45
72194,note_on,,,,,0,0,3,,,,,2,,,,79,108
72194,note_on,,,,,96,0,3,,,,,2,,,,77,0
72202,note_on,,,,,48,0,6,,,,,5,,,,72,45
72242,note_on,,,,,48,0,7,,,,,6,,,,63,0
72290,note_on,,,,,0,0,3,,,,,2,,,,70,108
72290,note_on,,,,,96,0,3,,,,,2,,,,79,0
72386,note_on,,,,,144,0,7,,,,,6,,,,60,45
72386,note_on,,,,,0,0,3,,,,,2,,,,72,108
72386,note_on,,,,,96,0,3,,,,,2,,,,70,0
72434,note_on,,,,,48,0,7,,,,,6,,,,60,0
72482,note_on,,,,,0,0,3,,,,,2,,,,74,108
72482,note_on,,,,,96,0,3,,,,,2,,,,72,0
72576,note_on,,,,,0,0,5,,,,,4,,,,81,45
72576,note_on,,,,,768,0,5,,,,,4,,,,82,0
72578,note_on,,,,,96,0,3,,,,,2,,,,74,0
72578,note_on,,,,,0,0,3,,,,,2,,,,75,127
72578,note_on,,,,,144,0,7,,,,,6,,,,53,45
72626,note_on,,,,,48,0,7,,,,,6,,,,53,0
72674,note_on,,,,,96,0,3,,,,,2,,,,75,0
72674,note_on,,,,,0,0,3,,,,,2,,,,69,127
72770,note_on,,,,,0,0,3,,,,,2,,,,70,127
72770,note_on,,,,,96,0,3,,,,,2,,,,69,0
72770,note_on,,,,,144,0,7,,,,,6,,,,65,45
72774,note_on,,,,,3312,0,9,,,,,8,,,,41,45
72776,note_on,,,,,3312,0,8,,,,,7,,,,53,45
72818,note_on,,,,,48,0,7,,,,,6,,,,65,0
72822,note_on,,,,,48,0,9,,,,,8,,,,41,0
72824,note_on,,,,,48,0,8,,,,,7,,,,53,0
72866,note_on,,,,,96,0,3,,,,,2,,,,70,0
72866,note_on,,,,,0,0,3,,,,,2,,,,72,127
72912,note_on,,,,,336,0,5,,,,,4,,,,81,0
72922,note_on,,,,,720,0,6,,,,,5,,,,72,0
72960,note_on,,,,,48,0,5,,,,,4,,,,82,45
72962,note_on,,,,,144,0,7,,,,,6,,,,62,45
72962,note_on,,,,,0,0,3,,,,,2,,,,74,108
72962,note_on,,,,,96,0,3,,,,,2,,,,72,0
72966,note_on,,,,,144,0,9,,,,,8,,,,46,45
72968,note_on,,,,,144,0,8,,,,,7,,,,58,45
72970,note_on,,,,,48,0,6,,,,,5,,,,74,45
73010,note_on,,,,,48,0,7,,,,,6,,,,62,0
73014,note_on,,,,,48,0,9,,,,,8,,,,46,0
73016,note_on,,,,,48,0,8,,,,,7,,,,58,0
73062,note_on,,,,,3552,0,4,,,,,3,,,,65,75
73154,note_on,,,,,144,0,7,,,,,6,,,,58,45
73158,note_on,,,,,144,0,9,,,,,8,,,,41,45
73158,note_on,,,,,0,0,4,,,,,3,,,,67,75
73158,note_on,,,,,96,0,4,,,,,3,,,,65,0
73160,note_on,,,,,144,0,8,,,,,7,,,,53,45
73202,note_on,,,,,48,0,7,,,,,6,,,,58,0
73206,note_on,,,,,48,0,9,,,,,8,,,,41,0
73208,note_on,,,,,48,0,8,,,,,7,,,,53,0
73254,note_on,,,,,96,0,4,,,,,3,,,,67,0
73254,note_on,,,,,0,0,4,,,,,3,,,,69,75
73296,note_on,,,,,336,0,5,,,,,4,,,,82,0
73298,note_on,,,,,336,0,3,,,,,2,,,,74,0
73306,note_on,,,,,336,0,6,,,,,5,,,,74,0
73344,note_on,,,,,48,0,5,,,,,4,,,,74,45
73346,note_on,,,,,144,0,7,,,,,6,,,,70,45
73350,note_on,,,,,0,0,4,,,,,3,,,,70,92
73350,note_on,,,,,96,0,4,,,,,3,,,,69,0
73350,note_on,,,,,144,0,9,,,,,8,,,,43,45
73352,note_on,,,,,144,0,8,,,,,7,,,,55,45
73398,note_on,,,,,48,0,9,,,,,8,,,,43,0
73400,note_on,,,,,48,0,8,,,,,7,,,,55,0
73446,note_on,,,,,96,0,4,,,,,3,,,,70,0
73446,note_on,,,,,0,0,4,,,,,3,,,,62,92
73542,note_on,,,,,96,0,4,,,,,3,,,,62,0
73542,note_on,,,,,0,0,4,,,,,3,,,,63,92
73542,note_on,,,,,144,0,9,,,,,8,,,,38,45
73544,note_on,,,,,144,0,8,,,,,7,,,,50,45
73546,note_on,,,,,240,0,6,,,,,5,,,,65,45
73590,note_on,,,,,48,0,9,,,,,8,,,,38,0
73592,note_on,,,,,48,0,8,,,,,7,,,,50,0
73638,note_on,,,,,0,0,4,,,,,3,,,,65,92
73638,note_on,,,,,96,0,4,,,,,3,,,,63,0
73680,note_on,,,,,336,0,5,,,,,4,,,,74,0
73706,note_on,,,,,160,0,6,,,,,5,,,,65,0
73728,note_on,,,,,48,0,5,,,,,4,,,,72,45
73734,note_on,,,,,0,0,4,,,,,3,,,,67,108
73734,note_on,,,,,96,0,4,,,,,3,,,,65,0
73734,note_on,,,,,144,0,9,,,,,8,,,,39,45
73736,note_on,,,,,144,0,8,,,,,7,,,,51,45
73738,note_on,,,,,32,0,6,,,,,5,,,,67,45
73782,note_on,,,,,48,0,9,,,,,8,,,,39,0
73784,note_on,,,,,48,0,8,,,,,7,,,,51,0
73830,note_on,,,,,96,0,4,,,,,3,,,,67,0
73830,note_on,,,,,0,0,4,,,,,3,,,,58,108
73926,note_on,,,,,0,0,4,,,,,3,,,,60,108
73926,note_on,,,,,96,0,4,,,,,3,,,,58,0
73926,note_on,,,,,144,0,9,,,,,8,,,,36,45
73928,note_on,,,,,144,0,8,,,,,7,,,,48,45
73974,note_on,,,,,48,0,9,,,,,8,,,,36,0
73976,note_on,,,,,48,0,8,,,,,7,,,,48,0
74022,note_on,,,,,0,0,4,,,,,3,,,,62,108
74022,note_on,,,,,96,0,4,,,,,3,,,,60,0
74114,note_on,,,,,0,0,7,,,,,6,,,,70,45
74114,note_on,,,,,768,0,7,,,,,6,,,,70,0
74118,note_on,,,,,0,0,4,,,,,3,,,,63,127
74118,note_on,,,,,144,0,9,,,,,8,,,,29,45
74118,note_on,,,,,96,0,4,,,,,3,,,,62,0
74120,note_on,,,,,144,0,8,,,,,7,,,,41,45
74122,note_on,,,,,384,0,6,,,,,5,,,,67,0
74122,note_on,,,,,0,0,6,,,,,5,,,,65,45
74166,note_on,,,,,48,0,9,,,,,8,,,,29,0
74168,note_on,,,,,48,0,8,,,,,7,,,,41,0
74210,note_on,,,,,912,0,3,,,,,2,,,,77,92
74214,note_on,,,,,96,0,4,,,,,3,,,,63,0
74214,note_on,,,,,0,0,4,,,,,3,,,,57,127
74306,note_on,,,,,0,0,3,,,,,2,,,,79,92
74306,note_on,,,,,96,0,3,,,,,2,,,,77,0
74310,note_on,,,,,144,0,9,,,,,8,,,,41,45
74310,note_on,,,,,96,0,4,,,,,3,,,,57,0
74310,note_on,,,,,0,0,4,,,,,3,,,,58,127
74312,note_on,,,,,144,0,8,,,,,7,,,,53,45
74358,note_on,,,,,48,0,9,,,,,8,,,,41,0
74360,note_on,,,,,48,0,8,,,,,7,,,,53,0
74402,note_on,,,,,0,0,3,,,,,2,,,,81,92
74402,note_on,,,,,96,0,3,,,,,2,,,,79,0
74406,note_on,,,,,96,0,4,,,,,3,,,,58,0
74406,note_on,,,,,0,0,4,,,,,3,,,,60,127
74448,note_on,,,,,720,0,5,,,,,4,,,,72,0
74450,note_on,,,,,336,0,7,,,,,6,,,,70,0
74458,note_on,,,,,336,0,6,,,,,5,,,,65,0
74496,note_on,,,,,48,0,5,,,,,4,,,,74,45
74498,note_on,,,,,48,0,7,,,,,6,,,,70,45
74498,note_on,,,,,96,0,3,,,,,2,,,,81,0
74498,note_on,,,,,0,0,3,,,,,2,,,,82,92
74502,note_on,,,,,0,0,4,,,,,3,,,,62,108
74502,note_on,,,,,96,0,4,,,,,3,,,,60,0
74502,note_on,,,,,144,0,9,,,,,8,,,,38,45
74504,note_on,,,,,144,0,8,,,,,7,,,,50,45
74506,note_on,,,,,48,0,6,,,,,5,,,,65,45
74550,note_on,,,,,48,0,9,,,,,8,,,,38,0
74552,note_on,,,,,48,0,8,,,,,7,,,,50,0
74594,note_on,,,,,0,0,3,,,,,2,,,,84,92
74594,note_on,,,,,96,0,3,,,,,2,,,,82,0
74690,note_on,,,,,0,0,3,,,,,2,,,,86,92
74690,note_on,,,,,96,0,3,,,,,2,,,,84,0
74694,note_on,,,,,144,0,9,,,,,8,,,,34,45
74696,note_on,,,,,144,0,8,,,,,7,,,,46,45
74742,note_on,,,,,48,0,9,,,,,8,,,,34,0
74744,note_on,,,,,48,0,8,,,,,7,,,,46,0
74786,note_on,,,,,96,0,3,,,,,2,,,,86,0
74786,note_on,,,,,0,0,3,,,,,2,,,,81,92
74832,note_on,,,,,336,0,5,,,,,4,,,,74,0
74834,note_on,,,,,336,0,7,,,,,6,,,,70,0
74838,note_on,,,,,336,0,4,,,,,3,,,,62,0
74842,note_on,,,,,336,0,6,,,,,5,,,,65,0
74882,note_on,,,,,96,0,3,,,,,2,,,,81,0
74882,note_on,,,,,0,0,3,,,,,2,,,,82,108
74978,note_on,,,,,96,0,3,,,,,2,,,,82,0
74978,note_on,,,,,0,0,3,,,,,2,,,,77,108
74982,note_on,,,,,144,0,4,,,,,3,,,,55,92
75074,note_on,,,,,96,0,3,,,,,2,,,,77,0
75074,note_on,,,,,0,0,3,,,,,2,,,,79,108
75078,note_on,,,,,0,0,4,,,,,3,,,,57,92
75078,note_on,,,,,96,0,4,,,,,3,,,,55,0
75170,note_on,,,,,96,0,3,,,,,2,,,,79,0
75170,note_on,,,,,0,0,3,,,,,2,,,,74,108
75174,note_on,,,,,0,0,4,,,,,3,,,,58,92
75174,note_on,,,,,96,0,4,,,,,3,,,,57,0
75266,note_on,,,,,96,0,3,,,,,2,,,,74,0
75266,note_on,,,,,0,0,3,,,,,2,,,,77,108
75270,note_on,,,,,96,0,4,,,,,3,,,,58,0
75270,note_on,,,,,0,0,4,,,,,3,,,,60,92
75366,note_on,,,,,96,0,4,,,,,3,,,,60,0
75366,note_on,,,,,0,0,4,,,,,3,,,,62,92
75456,note_on,,,,,624,0,5,,,,,4,,,,67,45
75458,note_on,,,,,192,0,3,,,,,2,,,,77,0
75458,note_on,,,,,0,0,3,,,,,2,,,,75,108
75458,note_on,,,,,624,0,7,,,,,6,,,,58,45
75462,note_on,,,,,720,0,9,,,,,8,,,,36,45
75462,note_on,,,,,96,0,4,,,,,3,,,,62,0
75462,note_on,,,,,0,0,4,,,,,3,,,,63,92
75464,note_on,,,,,720,0,8,,,,,7,,,,48,45
75466,note_on,,,,,624,0,6,,,,,5,,,,63,45
75558,note_on,,,,,96,0,4,,,,,3,,,,63,0
75558,note_on,,,,,0,0,4,,,,,3,,,,65,92
75618,note_on,,,,,160,0,3,,,,,2,,,,75,0
75618,note_on,,,,,160,0,7,,,,,6,,,,58,0
75622,note_on,,,,,160,0,9,,,,,8,,,,36,0
75624,note_on,,,,,160,0,8,,,,,7,,,,48,0
75648,note_on,,,,,0,0,5,,,,,4,,,,75,45
75648,note_on,,,,,192,0,5,,,,,4,,,,67,0
75650,note_on,,,,,32,0,7,,,,,6,,,,58,45
75654,note_on,,,,,0,0,4,,,,,3,,,,67,108
75654,note_on,,,,,32,0,9,,,,,8,,,,36,45
75654,note_on,,,,,96,0,4,,,,,3,,,,65,0
75656,note_on,,,,,32,0,8,,,,,7,,,,48,45
75658,note_on,,,,,192,0,6,,,,,5,,,,63,0
75658,note_on,,,,,0,0,6,,,,,5,,,,67,45
75746,note_on,,,,,128,0,3,,,,,2,,,,79,92
75808,note_on,,,,,160,0,5,,,,,4,,,,75,0
75810,note_on,,,,,160,0,7,,,,,6,,,,58,0
75814,note_on,,,,,160,0,4,,,,,3,,,,67,0
75814,note_on,,,,,160,0,9,,,,,8,,,,36,0
75816,note_on,,,,,160,0,8,,,,,7,,,,48,0
75818,note_on,,,,,160,0,6,,,,,5,,,,67,0
75840,note_on,,,,,32,0,5,,,,,4,,,,75,45
75842,note_on,,,,,32,0,7,,,,,6,,,,58,45
75842,note_on,,,,,0,0,3,,,,,2,,,,81,92
75842,note_on,,,,,96,0,3,,,,,2,,,,79,0
75846,note_on,,,,,32,0,4,,,,,3,,,,55,108
75846,note_on,,,,,32,0,9,,,,,8,,,,36,45
75848,note_on,,,,,32,0,8,,,,,7,,,,48,45
75850,note_on,,,,,32,0,6,,,,,5,,,,67,45
75938,note_on,,,,,96,0,3,,,,,2,,,,81,0
75938,note_on,,,,,0,0,3,,,,,2,,,,82,92
76000,note_on,,,,,160,0,5,,,,,4,,,,75,0
76002,note_on,,,,,160,0,7,,,,,6,,,,58,0
76006,note_on,,,,,160,0,9,,,,,8,,,,36,0
76006,note_on,,,,,160,0,4,,,,,3,,,,55,0
76008,note_on,,,,,160,0,8,,,,,7,,,,48,0
76010,note_on,,,,,160,0,6,,,,,5,,,,67,0
76032,note_on,,,,,32,0,5,,,,,4,,,,75,45
76034,note_on,,,,,96,0,3,,,,,2,,,,82,0
76034,note_on,,,,,0,0,3,,,,,2,,,,84,92
76034,note_on,,,,,32,0,7,,,,,6,,,,62,45
76038,note_on,,,,,32,0,4,,,,,3,,,,58,108
76038,note_on,,,,,32,0,9,,,,,8,,,,36,45
76040,note_on,,,,,32,0,8,,,,,7,,,,48,45
76042,note_on,,,,,32,0,6,,,,,5,,,,67,45
76130,note_on,,,,,0,0,3,,,,,2,,,,86,92
76130,note_on,,,,,96,0,3,,,,,2,,,,84,0
76226,note_on,,,,,0,0,3,,,,,2,,,,87,92
76226,note_on,,,,,96,0,3,,,,,2,,,,86,0
76226,note_on,,,,,192,0,7,,,,,6,,,,62,0
76226,note_on,,,,,0,0,7,,,,,6,,,,60,45
76230,note_on,,,,,192,0,4,,,,,3,,,,58,0
76230,note_on,,,,,0,0,4,,,,,3,,,,57,108
76234,note_on,,,,,0,0,6,,,,,5,,,,69,45
76234,note_on,,,,,192,0,6,,,,,5,,,,67,0
76322,note_on,,,,,0,0,3,,,,,2,,,,82,92
76322,note_on,,,,,96,0,3,,,,,2,,,,87,0
76368,note_on,,,,,336,0,5,,,,,4,,,,75,0
76374,note_on,,,,,336,0,9,,,,,8,,,,36,0
76376,note_on,,,,,336,0,8,,,,,7,,,,48,0
76386,note_on,,,,,160,0,7,,,,,6,,,,60,0
76390,note_on,,,,,160,0,4,,,,,3,,,,57,0
76394,note_on,,,,,160,0,6,,,,,5,,,,69,0
76418,note_on,,,,,96,0,3,,,,,2,,,,82,0
76418,note_on,,,,,0,0,3,,,,,2,,,,84,108
76514,note_on,,,,,96,0,3,,,,,2,,,,84,0
76514,note_on,,,,,0,0,3,,,,,2,,,,79,108
76518,note_on,,,,,128,0,4,,,,,3,,,,57,92
76610,note_on,,,,,0,0,3,,,,,2,,,,81,108
76610,note_on,,,,,96,0,3,,,,,2,,,,79,0
76614,note_on,,,,,0,0,4,,,,,3,,,,58,92
76614,note_on,,,,,96,0,4,,,,,3,,,,57,0
76706,note_on,,,,,0,0,3,,,,,2,,,,76,108
76706,note_on,,,,,96,0,3,,,,,2,,,,81,0
76710,note_on,,,,,0,0,4,,,,,3,,,,60,92
76710,note_on,,,,,96,0,4,,,,,3,,,,58,0
76802,note_on,,,,,0,0,3,,,,,2,,,,79,108
76802,note_on,,,,,96,0,3,,,,,2,,,,76,0
76806,note_on,,,,,0,0,4,,,,,3,,,,62,92
76806,note_on,,,,,96,0,4,,,,,3,,,,60,0
76902,note_on,,,,,0,0,4,,,,,3,,,,63,92
76902,note_on,,,,,96,0,4,,,,,3,,,,62,0
76992,note_on,,,,,624,0,5,,,,,4,,,,69,45
76994,note_on,,,,,0,0,3,,,,,2,,,,77,108
76994,note_on,,,,,192,0,3,,,,,2,,,,79,0
76994,note_on,,,,,608,0,7,,,,,6,,,,60,45
76998,note_on,,,,,0,0,4,,,,,3,,,,65,92
76998,note_on,,,,,624,0,9,,,,,8,,,,38,45
76998,note_on,,,,,96,0,4,,,,,3,,,,63,0
77000,note_on,,,,,624,0,8,,,,,7,,,,50,45
77002,note_on,,,,,608,0,6,,,,,5,,,,65,45
77094,note_on,,,,,0,0,4,,,,,3,,,,67,92
77094,note_on,,,,,96,0,4,,,,,3,,,,65,0
77154,note_on,,,,,160,0,3,,,,,2,,,,77,0
77154,note_on,,,,,160,0,7,,,,,6,,,,60,0
77158,note_on,,,,,160,0,9,,,,,8,,,,38,0
77160,note_on,,,,,160,0,8,,,,,7,,,,50,0
77184,note_on,,,,,192,0,5,,,,,4,,,,69,0
77184,note_on,,,,,0,0,5,,,,,4,,,,77,45
77186,note_on,,,,,32,0,7,,,,,6,,,,60,45
77190,note_on,,,,,96,0,4,,,,,3,,,,67,0
77190,note_on,,,,,0,0,4,,,,,3,,,,69,108
77190,note_on,,,,,32,0,9,,,,,8,,,,38,45
77192,note_on,,,,,32,0,8,,,,,7,,,,50,45
77194,note_on,,,,,192,0,6,,,,,5,,,,65,0
77194,note_on,,,,,0,0,6,,,,,5,,,,69,45
77282,note_on,,,,,128,0,3,,,,,2,,,,81,92
77344,note_on,,,,,160,0,5,,,,,4,,,,77,0
77346,note_on,,,,,160,0,7,,,,,6,,,,60,0
77350,note_on,,,,,160,0,9,,,,,8,,,,38,0
77350,note_on,,,,,160,0,4,,,,,3,,,,69,0
77352,note_on,,,,,160,0,8,,,,,7,,,,50,0
77354,note_on,,,,,160,0,6,,,,,5,,,,69,0
77376,note_on,,,,,32,0,5,,,,,4,,,,77,45
77378,note_on,,,,,96,0,3,,,,,2,,,,81,0
77378,note_on,,,,,0,0,3,,,,,2,,,,82,92
77378,note_on,,,,,32,0,7,,,,,6,,,,60,45
77382,note_on,,,,,32,0,4,,,,,3,,,,57,108
77382,note_on,,,,,32,0,9,,,,,8,,,,38,45
77384,note_on,,,,,32,0,8,,,,,7,,,,50,45
77386,note_on,,,,,32,0,6,,,,,5,,,,69,45
77474,note_on,,,,,0,0,3,,,,,2,,,,84,92
77474,note_on,,,,,96,0,3,,,,,2,,,,82,0
77536,note_on,,,,,160,0,5,,,,,4,,,,77,0
77538,note_on,,,,,160,0,7,,,,,6,,,,60,0
77542,note_on,,,,,160,0,4,,,,,3,,,,57,0
77542,note_on,,,,,160,0,9,,,,,8,,,,38,0
77544,note_on,,,,,160,0,8,,,,,7,,,,50,0
77546,note_on,,,,,160,0,6,,,,,5,,,,69,0
77568,note_on,,,,,32,0,5,,,,,4,,,,77,45
77570,note_on,,,,,96,0,3,,,,,2,,,,84,0
77570,note_on,,,,,0,0,3,,,,,2,,,,86,92
77570,note_on,,,,,32,0,7,,,,,6,,,,63,45
77574,note_on,,,,,32,0,4,,,,,3,,,,60,108
77574,note_on,,,,,32,0,9,,,,,8,,,,38,45
77576,note_on,,,,,32,0,8,,,,,7,,,,50,45
77578,note_on,,,,,32,0,6,,,,,5,,,,69,45
77666,note_on,,,,,96,0,3,,,,,2,,,,86,0
77666,note_on,,,,,0,0,3,,,,,2,,,,87,92
77762,note_on,,,,,192,0,7,,,,,6,,,,63,0
77762,note_on,,,,,0,0,7,,,,,6,,,,62,45
77762,note_on,,,,,96,0,3,,,,,2,,,,87,0
77762,note_on,,,,,0,0,3,,,,,2,,,,89,92
77766,note_on,,,,,192,0,4,,,,,3,,,,60,0
77766,note_on,,,,,0,0,4,,,,,3,,,,58,108
77770,note_on,,,,,192,0,6,,,,,5,,,,69,0
77770,note_on,,,,,0,0,6,,,,,5,,,,70,45
77858,note_on,,,,,96,0,3,,,,,2,,,,89,0
77858,note_on,,,,,0,0,3,,,,,2,,,,84,92
77904,note_on,,,,,336,0,5,,,,,4,,,,77,0
77910,note_on,,,,,336,0,9,,,,,8,,,,38,0
77912,note_on,,,,,336,0,8,,,,,7,,,,50,0
77922,note_on,,,,,160,0,7,,,,,6,,,,62,0
77926,note_on,,,,,160,0,4,,,,,3,,,,58,0
77930,note_on,,,,,160,0,6,,,,,5,,,,70,0
77954,note_on,,,,,0,0,3,,,,,2,,,,86,92
77954,note_on,,,,,96,0,3,,,,,2,,,,84,0
78050,note_on,,,,,0,0,3,,,,,2,,,,81,92
78050,note_on,,,,,96,0,3,,,,,2,,,,86,0
78054,note_on,,,,,128,0,4,,,,,3,,,,58,75
78146,note_on,,,,,0,0,3,,,,,2,,,,82,92
78146,note_on,,,,,96,0,3,,,,,2,,,,81,0
78150,note_on,,,,,96,0,4,,,,,3,,,,58,0
78150,note_on,,,,,0,0,4,,,,,3,,,,60,75
78242,note_on,,,,,0,0,3,,,,,2,,,,77,92
78242,note_on,,,,,96,0,3,,,,,2,,,,82,0
78246,note_on,,,,,0,0,4,,,,,3,,,,62,75
78246,note_on,,,,,96,0,4,,,,,3,,,,60,0
78336,note_on,,,,,94,0,3,,,,,2,,,,77,0
78338,note_on,,,,,2,0,3,,,,,2,,,,79,75
78342,note_on,,,,,96,0,4,,,,,3,,,,62,0
78342,note_on,,,,,0,0,4,,,,,3,,,,63,75
78434,note_on,,,,,0,0,3,,,,,2,,,,81,75
78434,note_on,,,,,96,0,3,,,,,2,,,,79,0
78438,note_on,,,,,96,0,4,,,,,3,,,,63,0
78438,note_on,,,,,0,0,4,,,,,3,,,,65,75
78530,note_on,,,,,0,0,3,,,,,2,,,,82,75
78530,note_on,,,,,96,0,3,,,,,2,,,,81,0
78534,note_on,,,,,0,0,4,,,,,3,,,,67,75
78534,note_on,,,,,96,0,4,,,,,3,,,,65,0
78626,note_on,,,,,0,0,3,,,,,2,,,,78,75
78626,note_on,,,,,96,0,3,,,,,2,,,,82,0
78630,note_on,,,,,96,0,4,,,,,3,,,,67,0
78630,note_on,,,,,0,0,4,,,,,3,,,,62,75
78722,note_on,,,,,96,0,3,,,,,2,,,,78,0
78722,note_on,,,,,0,0,3,,,,,2,,,,79,75
78726,note_on,,,,,0,0,4,,,,,3,,,,63,75
78726,note_on,,,,,96,0,4,,,,,3,,,,62,0
78818,note_on,,,,,96,0,3,,,,,2,,,,79,0
78818,note_on,,,,,0,0,3,,,,,2,,,,74,75
78822,note_on,,,,,96,0,4,,,,,3,,,,63,0
78822,note_on,,,,,0,0,4,,,,,3,,,,65,75
78914,note_on,,,,,96,0,3,,,,,2,,,,74,0
78914,note_on,,,,,0,0,3,,,,,2,,,,75,75
78918,note_on,,,,,0,0,4,,,,,3,,,,67,75
78918,note_on,,,,,96,0,4,,,,,3,,,,65,0
79010,note_on,,,,,96,0,3,,,,,2,,,,75,0
79010,note_on,,,,,0,0,3,,,,,2,,,,71,75
79014,note_on,,,,,0,0,4,,,,,3,,,,62,75
79014,note_on,,,,,96,0,4,,,,,3,,,,67,0
79106,note_on,,,,,96,0,3,,,,,2,,,,71,0
79106,note_on,,,,,0,0,3,,,,,2,,,,72,60
79110,note_on,,,,,96,0,4,,,,,3,,,,62,0
79110,note_on,,,,,0,0,4,,,,,3,,,,63,60
79202,note_on,,,,,96,0,3,,,,,2,,,,72,0
79202,note_on,,,,,0,0,3,,,,,2,,,,74,60
79206,note_on,,,,,0,0,4,,,,,3,,,,65,60
79206,note_on,,,,,96,0,4,,,,,3,,,,63,0
79298,note_on,,,,,0,0,3,,,,,2,,,,75,60
79298,note_on,,,,,96,0,3,,,,,2,,,,74,0
79302,note_on,,,,,96,0,4,,,,,3,,,,65,0
79302,note_on,,,,,0,0,4,,,,,3,,,,67,60
79394,note_on,,,,,96,0,3,,,,,2,,,,75,0
79394,note_on,,,,,0,0,3,,,,,2,,,,71,60
79398,note_on,,,,,96,0,4,,,,,3,,,,67,0
79398,note_on,,,,,0,0,4,,,,,3,,,,62,60
79490,note_on,,,,,96,0,3,,,,,2,,,,71,0
79490,note_on,,,,,0,0,3,,,,,2,,,,72,60
79494,note_on,,,,,96,0,4,,,,,3,,,,62,0
79494,note_on,,,,,0,0,4,,,,,3,,,,63,60
79586,note_on,,,,,96,0,3,,,,,2,,,,72,0
79586,note_on,,,,,0,0,3,,,,,2,,,,68,60
79590,note_on,,,,,0,0,4,,,,,3,,,,59,60
79590,note_on,,,,,96,0,4,,,,,3,,,,63,0
79682,note_on,,,,,0,0,3,,,,,2,,,,68,60
79682,note_on,,,,,96,0,3,,,,,2,,,,68,0
79686,note_on,,,,,0,0,4,,,,,3,,,,60,60
79686,note_on,,,,,96,0,4,,,,,3,,,,59,0
79778,note_on,,,,,96,0,3,,,,,2,,,,68,0
79778,note_on,,,,,0,0,3,,,,,2,,,,64,60
79782,note_on,,,,,0,0,4,,,,,3,,,,56,60
79782,note_on,,,,,96,0,4,,,,,3,,,,60,0
79874,note_on,,,,,0,0,3,,,,,2,,,,65,75
79874,note_on,,,,,96,0,3,,,,,2,,,,64,0
79878,note_on,,,,,0,0,4,,,,,3,,,,57,75
79878,note_on,,,,,96,0,4,,,,,3,,,,56,0
79970,note_on,,,,,0,0,3,,,,,2,,,,69,75
79970,note_on,,,,,96,0,3,,,,,2,,,,65,0
80066,note_on,,,,,0,0,3,,,,,2,,,,72,75
80066,note_on,,,,,96,0,3,,,,,2,,,,69,0
80162,note_on,,,,,0,0,3,,,,,2,,,,70,75
80162,note_on,,,,,96,0,3,,,,,2,,,,72,0
80214,note_on,,,,,336,0,4,,,,,3,,,,57,0
80258,note_on,,,,,96,0,3,,,,,2,,,,70,0
80258,note_on,,,,,0,0,3,,,,,2,,,,69,75
80354,note_on,,,,,96,0,3,,,,,2,,,,69,0
80354,note_on,,,,,0,0,3,,,,,2,,,,67,75
80358,note_on,,,,,144,0,4,,,,,3,,,,41,92
80450,note_on,,,,,96,0,3,,,,,2,,,,67,0
80450,note_on,,,,,0,0,3,,,,,2,,,,65,75
80454,note_on,,,,,96,0,4,,,,,3,,,,41,0
80454,note_on,,,,,0,0,4,,,,,3,,,,43,92
80546,note_on,,,,,0,0,3,,,,,2,,,,63,75
80546,note_on,,,,,96,0,3,,,,,2,,,,65,0
80550,note_on,,,,,0,0,4,,,,,3,,,,45,92
80550,note_on,,,,,96,0,4,,,,,3,,,,43,0
80640,note_on,,,,,2736,0,5,,,,,4,,,,70,30
80640,note_on,,,,,94,0,3,,,,,2,,,,63,0
80640,set_tempo,,,,,10752,1,0,,285714,,,,,,,,
80642,note_on,,,,,2,0,3,,,,,2,,,,62,92
80642,note_on,,,,,2720,0,7,,,,,6,,,,58,30
80644,note_on,,,,,94,0,4,,,,,3,,,,45,0
80646,note_on,,,,,2,0,4,,,,,3,,,,34,92
80646,note_on,,,,,2736,0,9,,,,,8,,,,34,30
80646,note_on,,,,,0,0,4,,,,,3,,,,46,92
80648,note_on,,,,,2736,0,8,,,,,7,,,,46,30
80650,note_on,,,,,2720,0,6,,,,,5,,,,62,30
80738,note_on,,,,,0,0,3,,,,,2,,,,58,92
80738,note_on,,,,,96,0,3,,,,,2,,,,62,0
80834,note_on,,,,,0,0,3,,,,,2,,,,70,92
80834,note_on,,,,,96,0,3,,,,,2,,,,58,0
80930,note_on,,,,,0,0,3,,,,,2,,,,62,92
80930,note_on,,,,,96,0,3,,,,,2,,,,70,0
81024,note_on,,,,,0,0,5,,,,,4,,,,72,30
81024,note_on,,,,,384,0,5,,,,,4,,,,70,0
81026,note_on,,,,,0,0,7,,,,,6,,,,57,30
81026,note_on,,,,,384,0,7,,,,,6,,,,58,0
81026,note_on,,,,,96,0,3,,,,,2,,,,62,0
81026,note_on,,,,,0,0,3,,,,,2,,,,63,92
81034,note_on,,,,,0,0,6,,,,,5,,,,63,30
81034,note_on,,,,,384,0,6,,,,,5,,,,62,0
81122,note_on,,,,,0,0,3,,,,,2,,,,60,92
81122,note_on,,,,,96,0,3,,,,,2,,,,63,0
81218,note_on,,,,,96,0,3,,,,,2,,,,60,0
81218,note_on,,,,,0,0,3,,,,,2,,,,72,92
81314,note_on,,,,,96,0,3,,,,,2,,,,72,0
81314,note_on,,,,,0,0,3,,,,,2,,,,63,92
81408,note_on,,,,,384,0,5,,,,,4,,,,72,0
81408,note_on,,,,,0,0,5,,,,,4,,,,74,45
81410,note_on,,,,,0,0,3,,,,,2,,,,65,92
81410,note_on,,,,,96,0,3,,,,,2,,,,63,0
81410,note_on,,,,,0,0,7,,,,,6,,,,56,45
81410,note_on,,,,,384,0,7,,,,,6,,,,57,0
81418,note_on,,,,,384,0,6,,,,,5,,,,63,0
81418,note_on,,,,,0,0,6,,,,,5,,,,65,45
81506,note_on,,,,,96,0,3,,,,,2,,,,65,0
81506,note_on,,,,,0,0,3,,,,,2,,,,62,92
81602,note_on,,,,,96,0,3,,,,,2,,,,62,0
81602,note_on,,,,,0,0,3,,,,,2,,,,74,92
81698,note_on,,,,,96,0,3,,,,,2,,,,74,0
81698,note_on,,,,,0,0,3,,,,,2,,,,65,92
81792,note_on,,,,,384,0,5,,,,,4,,,,74,0
81792,note_on,,,,,0,0,5,,,,,4,,,,75,45
81794,note_on,,,,,384,0,7,,,,,6,,,,56,0
81794,note_on,,,,,0,0,7,,,,,6,,,,55,45
81794,note_on,,,,,0,0,3,,,,,2,,,,67,92
81794,note_on,,,,,96,0,3,,,,,2,,,,65,0
81802,note_on,,,,,384,0,6,,,,,5,,,,65,0
81802,note_on,,,,,0,0,6,,,,,5,,,,67,45
81890,note_on,,,,,96,0,3,,,,,2,,,,67,0
81890,note_on,,,,,0,0,3,,,,,2,,,,75,92
81954,note_on,,,,,160,0,7,,,,,6,,,,55,0
81986,note_on,,,,,0,0,3,,,,,2,,,,69,92
81986,note_on,,,,,96,0,3,,,,,2,,,,75,0
81986,note_on,,,,,32,0,7,,,,,6,,,,53,45
81994,note_on,,,,,192,0,6,,,,,5,,,,67,0
81994,note_on,,,,,0,0,6,,,,,5,,,,69,45
82034,note_on,,,,,48,0,7,,,,,6,,,,53,0
82082,note_on,,,,,0,0,3,,,,,2,,,,77,92
82082,note_on,,,,,96,0,3,,,,,2,,,,69,0
82128,note_on,,,,,336,0,5,,,,,4,,,,75,0
82134,note_on,,,,,0,0,4,,,,,3,,,,34,0
82134,note_on,,,,,1488,0,4,,,,,3,,,,46,0
82134,note_on,,,,,1488,0,9,,,,,8,,,,34,0
82136,note_on,,,,,1488,0,8,,,,,7,,,,46,0
82154,note_on,,,,,160,0,6,,,,,5,,,,69,0
82176,note_on,,,,,48,0,5,,,,,4,,,,74,60
82176,set_tempo,,,,,1536,1,0,,279070,,,,,,,,
82176,note_on,,,,,94,0,3,,,,,2,,,,77,0
82178,note_on,,,,,2,0,3,,,,,2,,,,74,92
82178,note_on,,,,,144,0,7,,,,,6,,,,65,60
82182,note_on,,,,,48,0,4,,,,,3,,,,46,92
82182,note_on,,,,,48,0,9,,,,,8,,,,34,60
82184,note_on,,,,,48,0,8,,,,,7,,,,46,60
82186,note_on,,,,,32,0,6,,,,,5,,,,70,60
82274,note_on,,,,,0,0,3,,,,,2,,,,70,92
82274,note_on,,,,,96,0,3,,,,,2,,,,74,0
82278,note_on,,,,,96,0,4,,,,,3,,,,46,0
82278,note_on,,,,,0,0,4,,,,,3,,,,50,92
82370,note_on,,,,,96,0,3,,,,,2,,,,70,0
82370,note_on,,,,,192,0,7,,,,,6,,,,65,0
82370,note_on,,,,,0,0,7,,,,,6,,,,70,60
82370,note_on,,,,,0,0,3,,,,,2,,,,82,92
82374,note_on,,,,,0,0,4,,,,,3,,,,53,92
82374,note_on,,,,,96,0,4,,,,,3,,,,50,0
82466,note_on,,,,,0,0,3,,,,,2,,,,74,92
82466,note_on,,,,,96,0,3,,,,,2,,,,82,0
82470,note_on,,,,,96,0,4,,,,,3,,,,53,0
82470,note_on,,,,,0,0,4,,,,,3,,,,58,92
82560,note_on,,,,,0,0,5,,,,,4,,,,75,60
82560,note_on,,,,,384,0,5,,,,,4,,,,74,0
82562,note_on,,,,,96,0,3,,,,,2,,,,74,0
82562,note_on,,,,,0,0,3,,,,,2,,,,75,92
82566,note_on,,,,,0,0,4,,,,,3,,,,46,92
82566,note_on,,,,,96,0,4,,,,,3,,,,58,0
82570,note_on,,,,,384,0,6,,,,,5,,,,70,0
82570,note_on,,,,,0,0,6,,,,,5,,,,72,60
82658,note_on,,,,,0,0,3,,,,,2,,,,72,92
82658,note_on,,,,,96,0,3,,,,,2,,,,75,0
82662,note_on,,,,,0,0,4,,,,,3,,,,48,92
82662,note_on,,,,,96,0,4,,,,,3,,,,46,0
82754,note_on,,,,,0,0,7,,,,,6,,,,69,60
82754,note_on,,,,,96,0,3,,,,,2,,,,72,0
82754,note_on,,,,,384,0,7,,,,,6,,,,70,0
82754,note_on,,,,,0,0,3,,,,,2,,,,84,92
82758,note_on,,,,,96,0,4,,,,,3,,,,48,0
82758,note_on,,,,,0,0,4,,,,,3,,,,51,92
82850,note_on,,,,,0,0,3,,,,,2,,,,75,92
82850,note_on,,,,,96,0,3,,,,,2,,,,84,0
82854,note_on,,,,,96,0,4,,,,,3,,,,51,0
82854,note_on,,,,,0,0,4,,,,,3,,,,57,92
82944,note_on,,,,,384,0,5,,,,,4,,,,75,0
82944,note_on,,,,,0,0,5,,,,,4,,,,77,75
82946,note_on,,,,,96,0,3,,,,,2,,,,75,0
82946,note_on,,,,,0,0,3,,,,,2,,,,77,92
82950,note_on,,,,,0,0,4,,,,,3,,,,46,92
82950,note_on,,,,,96,0,4,,,,,3,,,,57,0
82954,note_on,,,,,384,0,6,,,,,5,,,,72,0
82954,note_on,,,,,0,0,6,,,,,5,,,,74,75
83042,note_on,,,,,96,0,3,,,,,2,,,,77,0
83042,note_on,,,,,0,0,3,,,,,2,,,,74,92
83046,note_on,,,,,96,0,4,,,,,3,,,,46,0
83046,note_on,,,,,0,0,4,,,,,3,,,,50,92
83138,note_on,,,,,0,0,7,,,,,6,,,,68,75
83138,note_on,,,,,0,0,3,,,,,2,,,,86,92
83138,note_on,,,,,96,0,3,,,,,2,,,,74,0
83138,note_on,,,,,384,0,7,,,,,6,,,,69,0
83142,note_on,,,,,96,0,4,,,,,3,,,,50,0
83142,note_on,,,,,0,0,4,,,,,3,,,,53,92
83234,note_on,,,,,96,0,3,,,,,2,,,,86,0
83234,note_on,,,,,0,0,3,,,,,2,,,,77,92
83238,note_on,,,,,96,0,4,,,,,3,,,,53,0
83238,note_on,,,,,0,0,4,,,,,3,,,,56,92
83328,note_on,,,,,0,0,5,,,,,4,,,,79,75
83328,note_on,,,,,384,0,5,,,,,4,,,,77,0
83330,note_on,,,,,0,0,3,,,,,2,,,,79,92
83330,note_on,,,,,0,0,7,,,,,6,,,,67,75
83330,note_on,,,,,192,0,7,,,,,6,,,,68,0
83330,note_on,,,,,96,0,3,,,,,2,,,,77,0
83334,note_on,,,,,96,0,4,,,,,3,,,,56,0
83334,note_on,,,,,0,0,4,,,,,3,,,,46,92
83338,note_on,,,,,0,0,6,,,,,5,,,,75,75
83338,note_on,,,,,384,0,6,,,,,5,,,,74,0
83426,note_on,,,,,0,0,3,,,,,2,,,,87,92
83426,note_on,,,,,96,0,3,,,,,2,,,,79,0
83430,note_on,,,,,96,0,4,,,,,3,,,,46,0
83430,note_on,,,,,0,0,4,,,,,3,,,,55,92
83520,note_on,,,,,0,0,5,,,,,4,,,,81,75
83520,note_on,,,,,192,0,5,,,,,4,,,,79,0
83522,note_on,,,,,0,0,3,,,,,2,,,,81,92
83522,note_on,,,,,192,0,7,,,,,6,,,,67,0
83522,note_on,,,,,96,0,3,,,,,2,,,,87,0
83522,note_on,,,,,0,0,7,,,,,6,,,,65,75
83526,note_on,,,,,0,0,4,,,,,3,,,,46,92
83526,note_on,,,,,96,0,4,,,,,3,,,,55,0
83618,note_on,,,,,96,0,3,,,,,2,,,,81,0
83618,note_on,,,,,0,0,3,,,,,2,,,,89,92
83622,note_on,,,,,0,0,4,,,,,3,,,,57,92
83622,note_on,,,,,96,0,4,,,,,3,,,,46,0
83670,note_on,,,,,1488,0,9,,,,,8,,,,34,0
83672,note_on,,,,,1488,0,8,,,,,7,,,,46,0
83674,note_on,,,,,336,0,6,,,,,5,,,,75,0
83680,note_on,,,,,160,0,5,,,,,4,,,,81,0
83682,note_on,,,,,160,0,7,,,,,6,,,,65,0
83712,set_tempo,,,,,1536,1,0,,272727,,,,,,,,
83712,note_on,,,,,32,0,5,,,,,4,,,,82,108
83712,note_on,,,,,94,0,3,,,,,2,,,,89,0
83714,note_on,,,,,32,0,7,,,,,6,,,,65,108
83714,note_on,,,,,2,0,3,,,,,2,,,,86,108
83716,note_on,,,,,94,0,4,,,,,3,,,,57,0
83718,note_on,,,,,0,0,4,,,,,3,,,,58,127
83718,note_on,,,,,2,0,4,,,,,3,,,,46,127
83718,note_on,,,,,48,0,9,,,,,8,,,,46,108
83720,note_on,,,,,48,0,8,,,,,7,,,,58,108
83722,note_on,,,,,48,0,6,,,,,5,,,,74,108
83760,note_on,,,,,48,0,5,,,,,4,,,,82,0
83762,note_on,,,,,48,0,7,,,,,6,,,,65,0
83770,note_on,,,,,48,0,6,,,,,5,,,,74,0
83810,note_on,,,,,0,0,3,,,,,2,,,,82,108
83810,note_on,,,,,96,0,3,,,,,2,,,,86,0
83904,note_on,,,,,144,0,5,,,,,4,,,,74,45
83906,note_on,,,,,144,0,7,,,,,6,,,,65,45
83906,note_on,,,,,96,0,3,,,,,2,,,,82,0
83906,note_on,,,,,0,0,3,,,,,2,,,,89,108
83914,note_on,,,,,144,0,6,,,,,5,,,,70,45
83952,note_on,,,,,48,0,5,,,,,4,,,,74,0
83954,note_on,,,,,48,0,7,,,,,6,,,,65,0
83962,note_on,,,,,48,0,6,,,,,5,,,,70,0
84002,note_on,,,,,0,0,3,,,,,2,,,,86,108
84002,note_on,,,,,96,0,3,,,,,2,,,,89,0
84054,note_on,,,,,336,0,4,,,,,3,,,,58,0
84054,note_on,,,,,336,0,9,,,,,8,,,,46,0
84054,note_on,,,,,0,0,4,,,,,3,,,,46,0
84056,note_on,,,,,336,0,8,,,,,7,,,,58,0
84096,note_on,,,,,144,0,5,,,,,4,,,,77,45
84098,note_on,,,,,144,0,7,,,,,6,,,,70,45
84098,note_on,,,,,96,0,3,,,,,2,,,,86,0
84098,note_on,,,,,0,0,3,,,,,2,,,,82,108
84106,note_on,,,,,144,0,6,,,,,5,,,,74,45
84144,note_on,,,,,48,0,5,,,,,4,,,,77,0
84146,note_on,,,,,48,0,7,,,,,6,,,,70,0
84154,note_on,,,,,48,0,6,,,,,5,,,,74,0
84194,note_on,,,,,96,0,3,,,,,2,,,,82,0
84194,note_on,,,,,0,0,3,,,,,2,,,,77,108
84290,note_on,,,,,0,0,3,,,,,2,,,,74,108
84290,note_on,,,,,96,0,3,,,,,2,,,,77,0
84294,note_on,,,,,240,0,4,,,,,3,,,,46,92
84294,note_on,,,,,0,0,4,,,,,3,,,,58,92
84384,set_tempo,,,,,672,1,0,,315789,,,,,,,,
84386,note_on,,,,,96,0,3,,,,,2,,,,74,0
84386,note_on,,,,,0,0,3,,,,,2,,,,70,108
84388,note_on,,,,,94,0,4,,,,,3,,,,58,0
84388,note_on,,,,,0,0,4,,,,,3,,,,46,0
84390,note_on,,,,,0,0,4,,,,,3,,,,57,92
84390,note_on,,,,,2,0,4,,,,,3,,,,45,92
84480,note_on,,,,,336,0,5,,,,,4,,,,55,108
84480,set_tempo,,,,,96,1,0,,272727,,,,,,,,
84480,note_on,,,,,94,0,3,,,,,2,,,,70,0
84482,note_on,,,,,2,0,3,,,,,2,,,,82,108
84482,note_on,,,,,336,0,7,,,,,6,,,,55,108
84484,note_on,,,,,0,0,4,,,,,3,,,,45,0
84484,note_on,,,,,94,0,4,,,,,3,,,,57,0
84486,note_on,,,,,432,0,9,,,,,8,,,,43,108
84486,note_on,,,,,0,0,4,,,,,3,,,,55,127
84486,note_on,,,,,2,0,4,,,,,3,,,,43,127
84488,note_on,,,,,432,0,8,,,,,7,,,,55,108
84490,note_on,,,,,336,0,6,,,,,5,,,,55,108
84528,note_on,,,,,48,0,5,,,,,4,,,,55,0
84530,note_on,,,,,48,0,7,,,,,6,,,,55,0
84538,note_on,,,,,48,0,6,,,,,5,,,,55,0
84578,note_on,,,,,96,0,3,,,,,2,,,,82,0
84578,note_on,,,,,0,0,3,,,,,2,,,,79,108
84672,note_on,,,,,144,0,5,,,,,4,,,,70,45
84674,note_on,,,,,96,0,3,,,,,2,,,,79,0
84674,note_on,,,,,0,0,3,,,,,2,,,,86,108
84674,note_on,,,,,144,0,7,,,,,6,,,,62,45
84682,note_on,,,,,144,0,6,,,,,5,,,,67,45
84720,note_on,,,,,48,0,5,,,,,4,,,,70,0
84722,note_on,,,,,48,0,7,,,,,6,,,,62,0
84730,note_on,,,,,48,0,6,,,,,5,,,,67,0
84770,note_on,,,,,0,0,3,,,,,2,,,,82,108
84770,note_on,,,,,96,0,3,,,,,2,,,,86,0
84822,note_on,,,,,0,0,4,,,,,3,,,,43,0
84822,note_on,,,,,336,0,4,,,,,3,,,,55,0
84822,note_on,,,,,336,0,9,,,,,8,,,,43,0
84824,note_on,,,,,336,0,8,,,,,7,,,,55,0
84864,note_on,,,,,144,0,5,,,,,4,,,,74,45
84866,note_on,,,,,144,0,7,,,,,6,,,,67,45
84866,note_on,,,,,0,0,3,,,,,2,,,,79,108
84866,note_on,,,,,96,0,3,,,,,2,,,,82,0
84874,note_on,,,,,144,0,6,,,,,5,,,,70,45
84912,note_on,,,,,48,0,5,,,,,4,,,,74,0
84914,note_on,,,,,48,0,7,,,,,6,,,,67,0
84922,note_on,,,,,48,0,6,,,,,5,,,,70,0
84962,note_on,,,,,0,0,3,,,,,2,,,,74,108
84962,note_on,,,,,96,0,3,,,,,2,,,,79,0
85058,note_on,,,,,0,0,3,,,,,2,,,,70,108
85058,note_on,,,,,96,0,3,,,,,2,,,,74,0
85062,note_on,,,,,240,0,4,,,,,3,,,,43,92
85062,note_on,,,,,0,0,4,,,,,3,,,,55,92
85152,set_tempo,,,,,672,1,0,,315789,,,,,,,,
85154,note_on,,,,,0,0,3,,,,,2,,,,67,108
85154,note_on,,,,,96,0,3,,,,,2,,,,70,0
85156,note_on,,,,,94,0,4,,,,,3,,,,55,0
85156,note_on,,,,,0,0,4,,,,,3,,,,43,0
85158,note_on,,,,,0,0,4,,,,,3,,,,53,92
85158,note_on,,,,,2,0,4,,,,,3,,,,41,92
85248,note_on,,,,,336,0,5,,,,,4,,,,63,108
85248,set_tempo,,,,,96,1,0,,272727,,,,,,,,
85248,note_on,,,,,94,0,3,,,,,2,,,,67,0
85250,note_on,,,,,336,0,7,,,,,6,,,,63,108
85250,note_on,,,,,2,0,3,,,,,2,,,,79,108
85252,note_on,,,,,0,0,4,,,,,3,,,,41,0
85252,note_on,,,,,94,0,4,,,,,3,,,,53,0
85254,note_on,,,,,2,0,4,,,,,3,,,,39,127
85254,note_on,,,,,0,0,4,,,,,3,,,,51,127
85254,note_on,,,,,432,0,9,,,,,8,,,,39,108
85256,note_on,,,,,432,0,8,,,,,7,,,,51,108
85258,note_on,,,,,336,0,6,,,,,5,,,,63,108
85296,note_on,,,,,48,0,5,,,,,4,,,,63,0
85298,note_on,,,,,48,0,7,,,,,6,,,,63,0
85306,note_on,,,,,48,0,6,,,,,5,,,,63,0
85346,note_on,,,,,96,0,3,,,,,2,,,,79,0
85346,note_on,,,,,0,0,3,,,,,2,,,,75,108
85440,note_on,,,,,144,0,5,,,,,4,,,,79,45
85442,note_on,,,,,96,0,3,,,,,2,,,,75,0
85442,note_on,,,,,0,0,3,,,,,2,,,,82,108
85442,note_on,,,,,144,0,7,,,,,6,,,,70,45
85450,note_on,,,,,144,0,6,,,,,5,,,,75,45
85488,note_on,,,,,48,0,5,,,,,4,,,,79,0
85490,note_on,,,,,48,0,7,,,,,6,,,,70,0
85498,note_on,,,,,48,0,6,,,,,5,,,,75,0
85538,note_on,,,,,0,0,3,,,,,2,,,,79,108
85538,note_on,,,,,96,0,3,,,,,2,,,,82,0
85590,note_on,,,,,336,0,9,,,,,8,,,,39,0
85590,note_on,,,,,336,0,4,,,,,3,,,,51,0
85590,note_on,,,,,0,0,4,,,,,3,,,,39,0
85592,note_on,,,,,336,0,8,,,,,7,,,,51,0
85632,note_on,,,,,144,0,5,,,,,4,,,,82,45
85634,note_on,,,,,144,0,7,,,,,6,,,,75,45
85634,note_on,,,,,0,0,3,,,,,2,,,,75,108
85634,note_on,,,,,96,0,3,,,,,2,,,,79,0
85642,note_on,,,,,144,0,6,,,,,5,,,,77,45
85680,note_on,,,,,48,0,5,,,,,4,,,,82,0
85682,note_on,,,,,48,0,7,,,,,6,,,,75,0
85690,note_on,,,,,48,0,6,,,,,5,,,,77,0
85730,note_on,,,,,96,0,3,,,,,2,,,,75,0
85730,note_on,,,,,0,0,3,,,,,2,,,,70,108
85826,note_on,,,,,96,0,3,,,,,2,,,,70,0
85826,note_on,,,,,0,0,3,,,,,2,,,,67,108
85830,note_on,,,,,0,0,4,,,,,3,,,,51,92
85830,note_on,,,,,240,0,4,,,,,3,,,,39,92
85920,set_tempo,,,,,672,1,0,,315789,,,,,,,,
85922,note_on,,,,,96,0,3,,,,,2,,,,67,0
85922,note_on,,,,,0,0,3,,,,,2,,,,63,108
85924,note_on,,,,,94,0,4,,,,,3,,,,51,0
85924,note_on,,,,,0,0,4,,,,,3,,,,39,0
85926,note_on,,,,,0,0,4,,,,,3,,,,50,92
85926,note_on,,,,,2,0,4,,,,,3,,,,38,92
86016,note_on,,,,,94,0,3,,,,,2,,,,63,0
86016,note_on,,,,,336,0,5,,,,,4,,,,60,108
86016,set_tempo,,,,,96,1,0,,272727,,,,,,,,
86018,note_on,,,,,2,0,3,,,,,2,,,,75,108
86018,note_on,,,,,336,0,7,,,,,6,,,,60,108
86020,note_on,,,,,0,0,4,,,,,3,,,,38,0
86020,note_on,,,,,94,0,4,,,,,3,,,,50,0
86022,note_on,,,,,432,0,9,,,,,8,,,,36,108
86022,note_on,,,,,2,0,4,,,,,3,,,,36,127
86022,note_on,,,,,0,0,4,,,,,3,,,,48,127
86024,note_on,,,,,432,0,8,,,,,7,,,,48,108
86026,note_on,,,,,336,0,6,,,,,5,,,,60,108
86064,note_on,,,,,48,0,5,,,,,4,,,,60,0
86066,note_on,,,,,48,0,7,,,,,6,,,,60,0
86074,note_on,,,,,48,0,6,,,,,5,,,,60,0
86114,note_on,,,,,96,0,3,,,,,2,,,,75,0
86114,note_on,,,,,0,0,3,,,,,2,,,,72,108
86208,note_on,,,,,144,0,5,,,,,4,,,,75,45
86210,note_on,,,,,144,0,7,,,,,6,,,,67,45
86210,note_on,,,,,0,0,3,,,,,2,,,,79,108
86210,note_on,,,,,96,0,3,,,,,2,,,,72,0
86218,note_on,,,,,144,0,6,,,,,5,,,,72,45
86256,note_on,,,,,48,0,5,,,,,4,,,,75,0
86258,note_on,,,,,48,0,7,,,,,6,,,,67,0
86266,note_on,,,,,48,0,6,,,,,5,,,,72,0
86306,note_on,,,,,0,0,3,,,,,2,,,,75,108
86306,note_on,,,,,96,0,3,,,,,2,,,,79,0
86358,note_on,,,,,0,0,4,,,,,3,,,,36,0
86358,note_on,,,,,336,0,9,,,,,8,,,,36,0
86358,note_on,,,,,336,0,4,,,,,3,,,,48,0
86360,note_on,,,,,336,0,8,,,,,7,,,,48,0
86400,note_on,,,,,144,0,5,,,,,4,,,,79,45
86402,note_on,,,,,144,0,7,,,,,6,,,,72,45
86402,note_on,,,,,96,0,3,,,,,2,,,,75,0
86402,note_on,,,,,0,0,3,,,,,2,,,,72,108
86410,note_on,,,,,144,0,6,,,,,5,,,,75,45
86448,note_on,,,,,48,0,5,,,,,4,,,,79,0
86450,note_on,,,,,48,0,7,,,,,6,,,,72,0
86458,note_on,,,,,48,0,6,,,,,5,,,,75,0
86498,note_on,,,,,96,0,3,,,,,2,,,,72,0
86498,note_on,,,,,0,0,3,,,,,2,,,,67,108
86594,note_on,,,,,96,0,3,,,,,2,,,,67,0
86594,note_on,,,,,0,0,3,,,,,2,,,,63,108
86598,note_on,,,,,240,0,4,,,,,3,,,,36,92
86598,note_on,,,,,0,0,4,,,,,3,,,,48,92
86688,set_tempo,,,,,672,1,0,,315789,,,,,,,,
86690,note_on,,,,,0,0,3,,,,,2,,,,60,108
86690,note_on,,,,,96,0,3,,,,,2,,,,63,0
86692,note_on,,,,,0,0,4,,,,,3,,,,36,0
86692,note_on,,,,,94,0,4,,,,,3,,,,48,0
86694,note_on,,,,,2,0,4,,,,,3,,,,34,92
86694,note_on,,,,,0,0,4,,,,,3,,,,46,92
86784,set_tempo,,,,,96,1,0,,292683,,,,,,,,
86786,note_on,,,,,96,0,3,,,,,2,,,,60,0
86786,note_on,,,,,0,0,3,,,,,2,,,,57,108
86786,note_on,,,,,336,0,7,,,,,6,,,,57,45
86788,note_on,,,,,94,0,4,,,,,3,,,,46,0
86788,note_on,,,,,0,0,4,,,,,3,,,,34,0
86790,note_on,,,,,2,0,4,,,,,3,,,,33,92
86790,note_on,,,,,432,0,9,,,,,8,,,,33,45
86790,note_on,,,,,0,0,4,,,,,3,,,,45,92
86792,note_on,,,,,432,0,8,,,,,7,,,,45,45
86946,note_on,,,,,160,0,3,,,,,2,,,,57,0
86950,note_on,,,,,160,0,4,,,,,3,,,,45,0
86950,note_on,,,,,0,0,4,,,,,3,,,,33,0
86976,note_on,,,,,528,0,5,,,,,4,,,,75,45
86986,note_on,,,,,528,0,6,,,,,5,,,,66,45
87170,note_on,,,,,0,0,7,,,,,6,,,,58,45
87170,note_on,,,,,384,0,7,,,,,6,,,,57,0
87174,note_on,,,,,384,0,9,,,,,8,,,,33,0
87174,note_on,,,,,0,0,9,,,,,8,,,,34,45
87176,note_on,,,,,0,0,8,,,,,7,,,,46,45
87176,note_on,,,,,384,0,8,,,,,7,,,,45,0
87360,note_on,,,,,0,0,5,,,,,4,,,,74,45
87360,note_on,,,,,384,0,5,,,,,4,,,,75,0
87370,note_on,,,,,0,0,6,,,,,5,,,,65,45
87370,note_on,,,,,384,0,6,,,,,5,,,,66,0
87506,note_on,,,,,336,0,7,,,,,6,,,,58,0
87510,note_on,,,,,336,0,9,,,,,8,,,,34,0
87512,note_on,,,,,336,0,8,,,,,7,,,,46,0
87520,note_on,,,,,160,0,5,,,,,4,,,,74,0
87530,note_on,,,,,160,0,6,,,,,5,,,,65,0
87558,note_on,,,,,608,0,4,,,,,3,,,,57,75
87746,note_on,,,,,0,0,3,,,,,2,,,,75,75
87746,note_on,,,,,800,0,3,,,,,2,,,,66,75
87894,note_on,,,,,336,0,4,,,,,3,,,,57,0
87942,note_on,,,,,48,0,4,,,,,3,,,,58,60
88130,note_on,,,,,0,0,3,,,,,2,,,,74,60
88130,note_on,,,,,384,0,3,,,,,2,,,,75,0
88130,note_on,,,,,0,0,3,,,,,2,,,,66,0
88130,note_on,,,,,0,0,3,,,,,2,,,,65,60
88278,note_on,,,,,336,0,4,,,,,3,,,,58,0
88290,note_on,,,,,160,0,3,,,,,2,,,,74,0
88290,note_on,,,,,0,0,3,,,,,2,,,,65,0
88326,note_on,,,,,48,0,4,,,,,3,,,,51,60
88326,note_on,,,,,0,0,4,,,,,3,,,,63,60
88514,note_on,,,,,0,0,3,,,,,2,,,,72,75
88514,note_on,,,,,224,0,3,,,,,2,,,,67,75
88662,note_on,,,,,336,0,4,,,,,3,,,,63,0
88662,note_on,,,,,0,0,4,,,,,3,,,,51,0
88706,note_on,,,,,192,0,3,,,,,2,,,,72,0
88706,note_on,,,,,0,0,3,,,,,2,,,,70,75
88706,note_on,,,,,0,0,3,,,,,2,,,,65,75
88706,note_on,,,,,0,0,3,,,,,2,,,,67,0
88710,note_on,,,,,48,0,4,,,,,3,,,,53,60
88710,note_on,,,,,0,0,4,,,,,3,,,,62,60
88870,note_on,,,,,160,0,4,,,,,3,,,,62,0
88898,note_on,,,,,0,0,3,,,,,2,,,,69,75
88898,note_on,,,,,0,0,3,,,,,2,,,,63,75
88898,note_on,,,,,0,0,3,,,,,2,,,,65,0
88898,note_on,,,,,192,0,3,,,,,2,,,,70,0
88902,note_on,,,,,32,0,4,,,,,3,,,,60,60
89046,note_on,,,,,144,0,4,,,,,3,,,,53,0
89058,note_on,,,,,0,0,3,,,,,2,,,,63,0
89058,note_on,,,,,160,0,3,,,,,2,,,,69,0
89062,note_on,,,,,16,0,4,,,,,3,,,,60,0
89088,note_on,,,,,1568,0,5,,,,,4,,,,74,75
89088,set_tempo,,,,,2304,1,0,,266667,,,,,,,,
89090,note_on,,,,,32,0,3,,,,,2,,,,74,108
89090,note_on,,,,,1584,0,7,,,,,6,,,,58,75
89094,note_on,,,,,1584,0,9,,,,,8,,,,46,75
89094,note_on,,,,,32,0,4,,,,,3,,,,46,108
89094,note_on,,,,,0,0,4,,,,,3,,,,58,108
89096,note_on,,,,,1584,0,8,,,,,7,,,,58,75
89098,note_on,,,,,1568,0,6,,,,,5,,,,62,75
89184,note_on,,,,,94,0,3,,,,,2,,,,74,0
89186,note_on,,,,,2,0,3,,,,,2,,,,86,108
89248,note_on,,,,,160,0,5,,,,,4,,,,74,0
89250,note_on,,,,,160,0,7,,,,,6,,,,58,0
89258,note_on,,,,,160,0,6,,,,,5,,,,62,0
89280,note_on,,,,,32,0,5,,,,,4,,,,77,75
89280,note_on,,,,,94,0,3,,,,,2,,,,86,0
89282,note_on,,,,,2,0,3,,,,,2,,,,77,108
89282,note_on,,,,,32,0,7,,,,,6,,,,62,75
89290,note_on,,,,,32,0,6,,,,,5,,,,65,75
89350,note_on,,,,,256,0,4,,,,,3,,,,58,0
89350,note_on,,,,,0,0,4,,,,,3,,,,46,0
89376,note_on,,,,,94,0,3,,,,,2,,,,77,0
89378,note_on,,,,,2,0,3,,,,,2,,,,89,108
89382,note_on,,,,,288,0,9,,,,,8,,,,46,0
89382,note_on,,,,,0,0,9,,,,,8,,,,45,75
89382,note_on,,,,,32,0,4,,,,,3,,,,45,108
89382,note_on,,,,,0,0,4,,,,,3,,,,57,108
89384,note_on,,,,,0,0,8,,,,,7,,,,57,75
89384,note_on,,,,,288,0,8,,,,,7,,,,58,0
89440,note_on,,,,,160,0,5,,,,,4,,,,77,0
89442,note_on,,,,,160,0,7,,,,,6,,,,62,0
89450,note_on,,,,,160,0,6,,,,,5,,,,65,0
89472,note_on,,,,,94,0,3,,,,,2,,,,89,0
89472,note_on,,,,,32,0,5,,,,,4,,,,70,75
89474,note_on,,,,,2,0,3,,,,,2,,,,70,108
89474,note_on,,,,,32,0,7,,,,,6,,,,55,75
89476,note_on,,,,,94,0,9,,,,,8,,,,45,0
89476,note_on,,,,,0,0,4,,,,,3,,,,45,0
89476,note_on,,,,,94,0,4,,,,,3,,,,57,0
89478,note_on,,,,,2,0,9,,,,,8,,,,43,75
89478,note_on,,,,,2,0,4,,,,,3,,,,43,108
89478,note_on,,,,,0,0,4,,,,,3,,,,55,108
89478,note_on,,,,,94,0,8,,,,,7,,,,57,0
89480,note_on,,,,,2,0,8,,,,,7,,,,55,75
89482,note_on,,,,,32,0,6,,,,,5,,,,58,75
89568,note_on,,,,,94,0,3,,,,,2,,,,70,0
89570,note_on,,,,,2,0,3,,,,,2,,,,82,108
89632,note_on,,,,,160,0,5,,,,,4,,,,70,0
89634,note_on,,,,,160,0,7,,,,,6,,,,55,0
89642,note_on,,,,,160,0,6,,,,,5,,,,58,0
89664,note_on,,,,,32,0,5,,,,,4,,,,74,75
89664,note_on,,,,,94,0,3,,,,,2,,,,82,0
89666,note_on,,,,,2,0,3,,,,,2,,,,74,108
89666,note_on,,,,,32,0,7,,,,,6,,,,58,75
89674,note_on,,,,,32,0,6,,,,,5,,,,62,75
89734,note_on,,,,,0,0,4,,,,,3,,,,43,0
89734,note_on,,,,,256,0,4,,,,,3,,,,55,0
89760,note_on,,,,,94,0,3,,,,,2,,,,74,0
89762,note_on,,,,,2,0,3,,,,,2,,,,86,108
89766,note_on,,,,,288,0,9,,,,,8,,,,43,0
89766,note_on,,,,,32,0,4,,,,,3,,,,41,108
89766,note_on,,,,,0,0,4,,,,,3,,,,53,108
89766,note_on,,,,,0,0,9,,,,,8,,,,41,75
89768,note_on,,,,,0,0,8,,,,,7,,,,53,75
89768,note_on,,,,,288,0,8,,,,,7,,,,55,0
89824,note_on,,,,,160,0,5,,,,,4,,,,74,0
89826,note_on,,,,,160,0,7,,,,,6,,,,58,0
89834,note_on,,,,,160,0,6,,,,,5,,,,62,0
89856,note_on,,,,,94,0,3,,,,,2,,,,86,0
89856,note_on,,,,,32,0,5,,,,,4,,,,67,75
89858,note_on,,,,,2,0,3,,,,,2,,,,67,108
89858,note_on,,,,,32,0,7,,,,,6,,,,51,75
89860,note_on,,,,,94,0,9,,,,,8,,,,41,0
89860,note_on,,,,,94,0,4,,,,,3,,,,53,0
89860,note_on,,,,,0,0,4,,,,,3,,,,41,0
89862,note_on,,,,,94,0,8,,,,,7,,,,53,0
89862,note_on,,,,,2,0,9,,,,,8,,,,39,75
89862,note_on,,,,,2,0,4,,,,,3,,,,39,108
89862,note_on,,,,,0,0,4,,,,,3,,,,51,108
89864,note_on,,,,,2,0,8,,,,,7,,,,51,75
89866,note_on,,,,,32,0,6,,,,,5,,,,55,75
89952,note_on,,,,,94,0,3,,,,,2,,,,67,0
89954,note_on,,,,,2,0,3,,,,,2,,,,79,108
90016,note_on,,,,,160,0,5,,,,,4,,,,67,0
90018,note_on,,,,,160,0,7,,,,,6,,,,51,0
90026,note_on,,,,,160,0,6,,,,,5,,,,55,0
90048,note_on,,,,,94,0,3,,,,,2,,,,79,0
90048,note_on,,,,,32,0,5,,,,,4,,,,82,75
90050,note_on,,,,,32,0,7,,,,,6,,,,67,75
90050,note_on,,,,,2,0,3,,,,,2,,,,70,108
90058,note_on,,,,,32,0,6,,,,,5,,,,70,75
90118,note_on,,,,,0,0,4,,,,,3,,,,39,0
90118,note_on,,,,,256,0,4,,,,,3,,,,51,0
90144,note_on,,,,,94,0,3,,,,,2,,,,70,0
90146,note_on,,,,,2,0,3,,,,,2,,,,82,108
90150,note_on,,,,,0,0,4,,,,,3,,,,50,108
90150,note_on,,,,,32,0,4,,,,,3,,,,38,108
90150,note_on,,,,,288,0,9,,,,,8,,,,39,0
90150,note_on,,,,,0,0,9,,,,,8,,,,38,75
90152,note_on,,,,,0,0,8,,,,,7,,,,50,75
90152,note_on,,,,,288,0,8,,,,,7,,,,51,0
90208,note_on,,,,,160,0,5,,,,,4,,,,82,0
90210,note_on,,,,,160,0,7,,,,,6,,,,67,0
90218,note_on,,,,,160,0,6,,,,,5,,,,70,0
90240,note_on,,,,,32,0,5,,,,,4,,,,63,75
90240,note_on,,,,,94,0,3,,,,,2,,,,82,0
90242,note_on,,,,,32,0,7,,,,,6,,,,60,75
90242,note_on,,,,,2,0,3,,,,,2,,,,63,108
90244,note_on,,,,,94,0,9,,,,,8,,,,38,0
90244,note_on,,,,,94,0,4,,,,,3,,,,50,0
90244,note_on,,,,,0,0,4,,,,,3,,,,38,0
90246,note_on,,,,,0,0,4,,,,,3,,,,48,108
90246,note_on,,,,,94,0,8,,,,,7,,,,50,0
90246,note_on,,,,,2,0,4,,,,,3,,,,36,108
90246,note_on,,,,,2,0,9,,,,,8,,,,36,75
90248,note_on,,,,,2,0,8,,,,,7,,,,48,75
90250,note_on,,,,,32,0,6,,,,,5,,,,63,75
90336,note_on,,,,,94,0,3,,,,,2,,,,63,0
90338,note_on,,,,,2,0,3,,,,,2,,,,75,108
90400,note_on,,,,,160,0,5,,,,,4,,,,63,0
90402,note_on,,,,,160,0,7,,,,,6,,,,60,0
90410,note_on,,,,,160,0,6,,,,,5,,,,63,0
90432,note_on,,,,,32,0,5,,,,,4,,,,79,75
90432,note_on,,,,,94,0,3,,,,,2,,,,75,0
90434,note_on,,,,,2,0,3,,,,,2,,,,67,108
90434,note_on,,,,,32,0,7,,,,,6,,,,63,75
90442,note_on,,,,,32,0,6,,,,,5,,,,67,75
90502,note_on,,,,,256,0,4,,,,,3,,,,48,0
90502,note_on,,,,,0,0,4,,,,,3,,,,36,0
90528,note_on,,,,,94,0,3,,,,,2,,,,67,0
90530,note_on,,,,,2,0,3,,,,,2,,,,79,108
90534,note_on,,,,,288,0,9,,,,,8,,,,36,0
90534,note_on,,,,,0,0,4,,,,,3,,,,46,108
90534,note_on,,,,,32,0,4,,,,,3,,,,34,108
90534,note_on,,,,,0,0,9,,,,,8,,,,34,75
90536,note_on,,,,,288,0,8,,,,,7,,,,48,0
90536,note_on,,,,,0,0,8,,,,,7,,,,46,75
90592,note_on,,,,,160,0,5,,,,,4,,,,79,0
90594,note_on,,,,,160,0,7,,,,,6,,,,63,0
90602,note_on,,,,,160,0,6,,,,,5,,,,67,0
90624,set_tempo,,,,,1536,1,0,,292683,,,,,,,,
90624,note_on,,,,,94,0,3,,,,,2,,,,79,0
90626,note_on,,,,,32,0,7,,,,,6,,,,57,37
90628,note_on,,,,,0,0,4,,,,,3,,,,34,0
90628,note_on,,,,,94,0,4,,,,,3,,,,46,0
90628,note_on,,,,,94,0,9,,,,,8,,,,34,0
90630,note_on,,,,,94,0,8,,,,,7,,,,46,0
90630,note_on,,,,,0,0,4,,,,,3,,,,45,108
90630,note_on,,,,,2,0,9,,,,,8,,,,33,37
90630,note_on,,,,,2,0,4,,,,,3,,,,33,108
90632,note_on,,,,,2,0,8,,,,,7,,,,45,37
90790,note_on,,,,,160,0,4,,,,,3,,,,45,0
90790,note_on,,,,,0,0,4,,,,,3,,,,33,0
90816,note_on,,,,,224,0,5,,,,,4,,,,75,37
90826,note_on,,,,,224,0,6,,,,,5,,,,66,37
91010,note_on,,,,,0,0,7,,,,,6,,,,58,37
91010,note_on,,,,,384,0,7,,,,,6,,,,57,0
91014,note_on,,,,,0,0,9,,,,,8,,,,34,37
91014,note_on,,,,,384,0,9,,,,,8,,,,33,0
91016,note_on,,,,,384,0,8,,,,,7,,,,45,0
91016,note_on,,,,,0,0,8,,,,,7,,,,46,37
91200,note_on,,,,,0,0,5,,,,,4,,,,74,37
91200,note_on,,,,,384,0,5,,,,,4,,,,75,0
91210,note_on,,,,,384,0,6,,,,,5,,,,66,0
91210,note_on,,,,,0,0,6,,,,,5,,,,65,37
91346,note_on,,,,,336,0,7,,,,,6,,,,58,0
91350,note_on,,,,,336,0,9,,,,,8,,,,34,0
91352,note_on,,,,,336,0,8,,,,,7,,,,46,0
91360,note_on,,,,,160,0,5,,,,,4,,,,74,0
91370,note_on,,,,,160,0,6,,,,,5,,,,65,0
91398,note_on,,,,,608,0,4,,,,,3,,,,57,92
91586,note_on,,,,,962,0,3,,,,,2,,,,66,92
91586,note_on,,,,,0,0,3,,,,,2,,,,75,92
91782,note_on,,,,,0,0,4,,,,,3,,,,58,75
91782,note_on,,,,,384,0,4,,,,,3,,,,57,0
91970,note_on,,,,,0,0,3,,,,,2,,,,65,75
91970,note_on,,,,,384,0,3,,,,,2,,,,75,0
91970,note_on,,,,,0,0,3,,,,,2,,,,74,75
91970,note_on,,,,,0,0,3,,,,,2,,,,66,0
92118,note_on,,,,,336,0,4,,,,,3,,,,58,0
92130,note_on,,,,,160,0,3,,,,,2,,,,74,0
92130,note_on,,,,,0,0,3,,,,,2,,,,65,0
92162,note_on,,,,,816,0,7,,,,,6,,,,57,37
92166,note_on,,,,,816,0,9,,,,,8,,,,33,37
92168,note_on,,,,,816,0,8,,,,,7,,,,45,37
92352,note_on,,,,,992,0,5,,,,,4,,,,75,37
92362,note_on,,,,,992,0,6,,,,,5,,,,66,37
92546,note_on,,,,,0,0,7,,,,,6,,,,58,37
92546,note_on,,,,,384,0,7,,,,,6,,,,57,0
92550,note_on,,,,,384,0,9,,,,,8,,,,33,0
92550,note_on,,,,,0,0,9,,,,,8,,,,34,37
92552,note_on,,,,,0,0,8,,,,,7,,,,46,37
92552,note_on,,,,,384,0,8,,,,,7,,,,45,0
92736,note_on,,,,,0,0,5,,,,,4,,,,74,37
92736,note_on,,,,,384,0,5,,,,,4,,,,75,0
92746,note_on,,,,,0,0,6,,,,,5,,,,65,37
92746,note_on,,,,,384,0,6,,,,,5,,,,66,0
92882,note_on,,,,,336,0,7,,,,,6,,,,58,0
92886,note_on,,,,,336,0,9,,,,,8,,,,34,0
92888,note_on,,,,,336,0,8,,,,,7,,,,46,0
92896,note_on,,,,,160,0,5,,,,,4,,,,74,0
92906,note_on,,,,,160,0,6,,,,,5,,,,65,0
92934,note_on,,,,,816,0,4,,,,,3,,,,57,75
93122,note_on,,,,,0,0,3,,,,,2,,,,87,75
93122,note_on,,,,,992,0,3,,,,,2,,,,78,75
93318,note_on,,,,,384,0,4,,,,,3,,,,57,0
93318,note_on,,,,,0,0,4,,,,,3,,,,58,60
93506,note_on,,,,,0,0,3,,,,,2,,,,78,0
93506,note_on,,,,,0,0,3,,,,,2,,,,86,60
93506,note_on,,,,,0,0,3,,,,,2,,,,77,60
93506,note_on,,,,,384,0,3,,,,,2,,,,87,0
93654,note_on,,,,,336,0,4,,,,,3,,,,58,0
93666,note_on,,,,,0,0,3,,,,,2,,,,77,0
93666,note_on,,,,,160,0,3,,,,,2,,,,86,0
93696,set_tempo,,,,,3072,1,0,,272727,,,,,,,,
93702,note_on,,,,,0,0,4,,,,,3,,,,55,60
93702,note_on,,,,,48,0,4,,,,,3,,,,51,60
93842,note_on,,,,,176,0,3,,,,,2,,,,72,108
93890,note_on,,,,,0,0,3,,,,,2,,,,84,108
93890,note_on,,,,,48,0,3,,,,,2,,,,72,0
94032,note_on,,,,,142,0,3,,,,,2,,,,84,0
94034,note_on,,,,,2,0,3,,,,,2,,,,74,108
94082,note_on,,,,,48,0,3,,,,,2,,,,74,0
94082,note_on,,,,,0,0,3,,,,,2,,,,86,108
94224,note_on,,,,,142,0,3,,,,,2,,,,86,0
94226,note_on,,,,,2,0,3,,,,,2,,,,75,108
94274,note_on,,,,,0,0,3,,,,,2,,,,87,108
94274,note_on,,,,,48,0,3,,,,,2,,,,75,0
94416,note_on,,,,,142,0,3,,,,,2,,,,87,0
94418,note_on,,,,,2,0,3,,,,,2,,,,70,108
94422,note_on,,,,,0,0,4,,,,,3,,,,51,0
94422,note_on,,,,,720,0,4,,,,,3,,,,55,0
94466,note_on,,,,,0,0,3,,,,,2,,,,82,108
94466,note_on,,,,,48,0,3,,,,,2,,,,70,0
94470,note_on,,,,,0,0,4,,,,,3,,,,62,60
94470,note_on,,,,,48,0,4,,,,,3,,,,53,60
94800,note_on,,,,,334,0,3,,,,,2,,,,82,0
94802,note_on,,,,,2,0,3,,,,,2,,,,86,108
94806,note_on,,,,,336,0,4,,,,,3,,,,62,0
94850,note_on,,,,,0,0,3,,,,,2,,,,84,108
94850,note_on,,,,,48,0,3,,,,,2,,,,86,0
94850,note_on,,,,,0,0,3,,,,,2,,,,81,108
94854,note_on,,,,,48,0,4,,,,,3,,,,63,60
95138,note_on,,,,,0,0,3,,,,,2,,,,82,108
95138,note_on,,,,,0,0,3,,,,,2,,,,81,0
95138,note_on,,,,,288,0,3,,,,,2,,,,84,0
95190,note_on,,,,,0,0,4,,,,,3,,,,53,0
95190,note_on,,,,,336,0,4,,,,,3,,,,63,0
95232,note_on,,,,,94,0,3,,,,,2,,,,82,0
95232,set_tempo,,,,,1536,1,0,,285714,,,,,,,,
95232,note_on,,,,,2336,0,5,,,,,4,,,,70,45
95234,note_on,,,,,0,0,7,,,,,6,,,,62,45
95234,note_on,,,,,2352,0,7,,,,,6,,,,58,45
95234,note_on,,,,,2,0,3,,,,,2,,,,82,75
95238,note_on,,,,,2352,0,9,,,,,8,,,,34,45
95238,note_on,,,,,48,0,4,,,,,3,,,,46,75
95240,note_on,,,,,2352,0,8,,,,,7,,,,46,45
95242,note_on,,,,,2336,0,6,,,,,5,,,,65,45
95334,note_on,,,,,0,0,4,,,,,3,,,,50,75
95334,note_on,,,,,96,0,4,,,,,3,,,,46,0
95394,note_on,,,,,160,0,3,,,,,2,,,,82,0
95430,note_on,,,,,96,0,4,,,,,3,,,,50,0
95430,note_on,,,,,0,0,4,,,,,3,,,,53,75
95526,note_on,,,,,96,0,4,,,,,3,,,,53,0
95526,note_on,,,,,0,0,4,,,,,3,,,,58,75
95622,note_on,,,,,96,0,4,,,,,3,,,,58,0
95622,note_on,,,,,0,0,4,,,,,3,,,,46,75
95712,note_on,,,,,0,0,5,,,,,4,,,,65,45
95712,note_on,,,,,480,0,5,,,,,4,,,,70,0
95718,note_on,,,,,96,0,4,,,,,3,,,,46,0
95718,note_on,,,,,0,0,4,,,,,3,,,,50,75
95808,note_on,,,,,0,0,5,,,,,4,,,,62,45
95808,note_on,,,,,96,0,5,,,,,4,,,,65,0
95814,note_on,,,,,96,0,4,,,,,3,,,,50,0
95814,note_on,,,,,0,0,4,,,,,3,,,,53,75
95904,note_on,,,,,96,0,5,,,,,4,,,,62,0
95904,note_on,,,,,0,0,5,,,,,4,,,,58,45
95910,note_on,,,,,96,0,4,,,,,3,,,,53,0
95910,note_on,,,,,0,0,4,,,,,3,,,,58,75
95954,note_on,,,,,0,0,7,,,,,6,,,,58,0
95954,note_on,,,,,720,0,7,,,,,6,,,,62,0
95954,note_on,,,,,560,0,3,,,,,2,,,,69,92
95962,note_on,,,,,720,0,6,,,,,5,,,,65,0
95998,note_on,,,,,94,0,5,,,,,4,,,,58,0
96000,note_on,,,,,2,0,5,,,,,4,,,,57,45
96002,note_on,,,,,48,0,3,,,,,2,,,,69,0
96002,note_on,,,,,0,0,7,,,,,6,,,,63,45
96002,note_on,,,,,48,0,7,,,,,6,,,,60,45
96002,note_on,,,,,0,0,3,,,,,2,,,,78,92
96006,note_on,,,,,96,0,4,,,,,3,,,,58,0
96006,note_on,,,,,0,0,4,,,,,3,,,,46,75
96010,note_on,,,,,0,0,6,,,,,5,,,,66,45
96010,note_on,,,,,48,0,6,,,,,5,,,,57,45
96102,note_on,,,,,96,0,4,,,,,3,,,,46,0
96102,note_on,,,,,0,0,4,,,,,3,,,,48,75
96198,note_on,,,,,0,0,4,,,,,3,,,,51,75
96198,note_on,,,,,96,0,4,,,,,3,,,,48,0
96294,note_on,,,,,96,0,4,,,,,3,,,,51,0
96294,note_on,,,,,0,0,4,,,,,3,,,,57,75
96336,note_on,,,,,336,0,5,,,,,4,,,,57,0
96390,note_on,,,,,96,0,4,,,,,3,,,,57,0
96390,note_on,,,,,0,0,4,,,,,3,,,,46,75
96482,note_on,,,,,0,0,3,,,,,2,,,,75,92
96482,note_on,,,,,480,0,3,,,,,2,,,,78,0
96486,note_on,,,,,96,0,4,,,,,3,,,,46,0
96486,note_on,,,,,0,0,4,,,,,3,,,,48,75
96578,note_on,,,,,96,0,3,,,,,2,,,,75,0
96578,note_on,,,,,0,0,3,,,,,2,,,,72,92
96582,note_on,,,,,96,0,4,,,,,3,,,,48,0
96582,note_on,,,,,0,0,4,,,,,3,,,,51,75
96674,note_on,,,,,96,0,3,,,,,2,,,,72,0
96674,note_on,,,,,0,0,3,,,,,2,,,,69,92
96678,note_on,,,,,96,0,4,,,,,3,,,,51,0
96678,note_on,,,,,0,0,4,,,,,3,,,,57,75
96722,note_on,,,,,0,0,7,,,,,6,,,,60,0
96722,note_on,,,,,720,0,7,,,,,6,,,,63,0
96730,note_on,,,,,0,0,6,,,,,5,,,,57,0
96730,note_on,,,,,720,0,6,,,,,5,,,,66,0
96768,note_on,,,,,432,0,5,,,,,4,,,,82,45
96770,note_on,,,,,96,0,3,,,,,2,,,,69,0
96770,note_on,,,,,0,0,3,,,,,2,,,,70,92
96770,note_on,,,,,48,0,7,,,,,6,,,,62,45
96774,note_on,,,,,0,0,4,,,,,3,,,,46,75
96774,note_on,,,,,96,0,4,,,,,3,,,,57,0
96778,note_on,,,,,0,0,6,,,,,5,,,,65,45
96778,note_on,,,,,48,0,6,,,,,5,,,,58,45
96870,note_on,,,,,0,0,4,,,,,3,,,,50,75
96870,note_on,,,,,96,0,4,,,,,3,,,,46,0
96930,note_on,,,,,160,0,3,,,,,2,,,,70,0
96966,note_on,,,,,0,0,4,,,,,3,,,,53,75
96966,note_on,,,,,96,0,4,,,,,3,,,,50,0
97062,note_on,,,,,96,0,4,,,,,3,,,,53,0
97062,note_on,,,,,0,0,4,,,,,3,,,,58,75
97158,note_on,,,,,96,0,4,,,,,3,,,,58,0
97158,note_on,,,,,0,0,4,,,,,3,,,,46,75
97248,note_on,,,,,0,0,5,,,,,4,,,,77,45
97248,note_on,,,,,480,0,5,,,,,4,,,,82,0
97254,note_on,,,,,96,0,4,,,,,3,,,,46,0
97254,note_on,,,,,0,0,4,,,,,3,,,,50,75
97344,note_on,,,,,0,0,5,,,,,4,,,,74,45
97344,note_on,,,,,96,0,5,,,,,4,,,,77,0
97350,note_on,,,,,96,0,4,,,,,3,,,,50,0
97350,note_on,,,,,0,0,4,,,,,3,,,,53,75
97440,note_on,,,,,0,0,5,,,,,4,,,,70,45
97440,note_on,,,,,96,0,5,,,,,4,,,,74,0
97446,note_on,,,,,0,0,4,,,,,3,,,,58,75
97446,note_on,,,,,96,0,4,,,,,3,,,,53,0
97490,note_on,,,,,720,0,7,,,,,6,,,,62,0
97490,note_on,,,,,560,0,3,,,,,2,,,,69,92
97498,note_on,,,,,720,0,6,,,,,5,,,,65,0
97498,note_on,,,,,0,0,6,,,,,5,,,,58,0
97534,note_on,,,,,94,0,5,,,,,4,,,,70,0
97536,note_on,,,,,2,0,5,,,,,4,,,,69,45
97538,note_on,,,,,48,0,3,,,,,2,,,,69,0
97538,note_on,,,,,0,0,3,,,,,2,,,,78,92
97538,note_on,,,,,48,0,7,,,,,6,,,,60,45
97538,note_on,,,,,0,0,7,,,,,6,,,,63,45
97542,note_on,,,,,0,0,4,,,,,3,,,,46,75
97542,note_on,,,,,96,0,4,,,,,3,,,,58,0
97546,note_on,,,,,48,0,6,,,,,5,,,,57,45
97546,note_on,,,,,0,0,6,,,,,5,,,,66,45
97638,note_on,,,,,0,0,4,,,,,3,,,,48,75
97638,note_on,,,,,96,0,4,,,,,3,,,,46,0
97734,note_on,,,,,96,0,4,,,,,3,,,,48,0
97734,note_on,,,,,0,0,4,,,,,3,,,,51,75
97830,note_on,,,,,96,0,4,,,,,3,,,,51,0
97830,note_on,,,,,0,0,4,,,,,3,,,,57,75
97872,note_on,,,,,336,0,5,,,,,4,,,,69,0
97926,note_on,,,,,0,0,4,,,,,3,,,,46,75
97926,note_on,,,,,96,0,4,,,,,3,,,,57,0
98018,note_on,,,,,480,0,3,,,,,2,,,,78,0
98018,note_on,,,,,0,0,3,,,,,2,,,,75,92
98022,note_on,,,,,0,0,4,,,,,3,,,,48,75
98022,note_on,,,,,96,0,4,,,,,3,,,,46,0
98114,note_on,,,,,0,0,3,,,,,2,,,,72,92
98114,note_on,,,,,96,0,3,,,,,2,,,,75,0
98118,note_on,,,,,0,0,4,,,,,3,,,,51,75
98118,note_on,,,,,96,0,4,,,,,3,,,,48,0
98210,note_on,,,,,0,0,3,,,,,2,,,,69,92
98210,note_on,,,,,96,0,3,,,,,2,,,,72,0
98214,note_on,,,,,96,0,4,,,,,3,,,,51,0
98214,note_on,,,,,0,0,4,,,,,3,,,,57,75
98258,note_on,,,,,720,0,7,,,,,6,,,,63,0
98258,note_on,,,,,0,0,7,,,,,6,,,,60,0
98266,note_on,,,,,0,0,6,,,,,5,,,,57,0
98266,note_on,,,,,720,0,6,,,,,5,,,,66,0
98304,set_tempo,,,,,3072,1,0,,292683,,,,,,,,
98306,note_on,,,,,96,0,3,,,,,2,,,,69,0
98306,note_on,,,,,48,0,7,,,,,6,,,,62,45
98306,note_on,,,,,0,0,3,,,,,2,,,,70,92
98310,note_on,,,,,96,0,4,,,,,3,,,,57,0
98314,note_on,,,,,48,0,6,,,,,5,,,,58,45
98314,note_on,,,,,0,0,6,,,,,5,,,,65,45
98466,note_on,,,,,160,0,7,,,,,6,,,,62,0
98466,note_on,,,,,160,0,3,,,,,2,,,,70,0
98470,note_on,,,,,3232,0,9,,,,,8,,,,34,0
98472,note_on,,,,,3232,0,8,,,,,7,,,,46,0
98474,note_on,,,,,0,0,6,,,,,5,,,,58,0
98474,note_on,,,,,160,0,6,,,,,5,,,,65,0
98502,note_on,,,,,192,0,4,,,,,3,,,,58,75
98502,note_on,,,,,0,0,4,,,,,3,,,,62,75
98594,note_on,,,,,128,0,3,,,,,2,,,,70,92
98662,note_on,,,,,0,0,4,,,,,3,,,,58,0
98662,note_on,,,,,160,0,4,,,,,3,,,,62,0
98690,note_on,,,,,0,0,3,,,,,2,,,,69,92
98690,note_on,,,,,96,0,3,,,,,2,,,,70,0
98786,note_on,,,,,96,0,3,,,,,2,,,,69,0
98786,note_on,,,,,0,0,3,,,,,2,,,,70,92
98882,note_on,,,,,0,0,3,,,,,2,,,,72,92
98882,note_on,,,,,96,0,3,,,,,2,,,,70,0
98978,note_on,,,,,96,0,3,,,,,2,,,,72,0
98978,note_on,,,,,0,0,3,,,,,2,,,,70,92
99074,note_on,,,,,96,0,3,,,,,2,,,,70,0
99074,note_on,,,,,0,0,3,,,,,2,,,,75,92
99170,note_on,,,,,0,0,3,,,,,2,,,,74,92
99170,note_on,,,,,96,0,3,,,,,2,,,,75,0
99264,note_on,,,,,94,0,3,,,,,2,,,,74,0
99270,note_on,,,,,608,0,4,,,,,3,,,,58,75
99270,note_on,,,,,0,0,4,,,,,3,,,,65,75
99360,set_tempo,,,,,1056,1,0,,285714,,,,,,,,
99362,note_on,,,,,98,0,3,,,,,2,,,,74,108
99430,note_on,,,,,160,0,4,,,,,3,,,,65,0
99430,note_on,,,,,0,0,4,,,,,3,,,,58,0
99458,note_on,,,,,0,0,3,,,,,2,,,,73,108
99458,note_on,,,,,96,0,3,,,,,2,,,,74,0
99554,note_on,,,,,0,0,3,,,,,2,,,,74,108
99554,note_on,,,,,96,0,3,,,,,2,,,,73,0
99650,note_on,,,,,0,0,3,,,,,2,,,,75,108
99650,note_on,,,,,96,0,3,,,,,2,,,,74,0
99746,note_on,,,,,0,0,3,,,,,2,,,,74,108
99746,note_on,,,,,96,0,3,,,,,2,,,,75,0
99840,set_tempo,,,,,480,1,0,,279070,,,,,,,,
99842,note_on,,,,,96,0,3,,,,,2,,,,74,0
99842,note_on,,,,,0,0,3,,,,,2,,,,79,108
99938,note_on,,,,,96,0,3,,,,,2,,,,79,0
99938,note_on,,,,,0,0,3,,,,,2,,,,77,108
100032,note_on,,,,,94,0,3,,,,,2,,,,77,0
100038,note_on,,,,,608,0,4,,,,,3,,,,58,108
100038,note_on,,,,,0,0,4,,,,,3,,,,68,108
100128,set_tempo,,,,,288,1,0,,272727,,,,,,,,
100130,note_on,,,,,98,0,3,,,,,2,,,,77,127
100198,note_on,,,,,160,0,4,,,,,3,,,,68,0
100198,note_on,,,,,0,0,4,,,,,3,,,,58,0
100226,note_on,,,,,96,0,3,,,,,2,,,,77,0
100226,note_on,,,,,0,0,3,,,,,2,,,,76,127
100322,note_on,,,,,0,0,3,,,,,2,,,,77,127
100322,note_on,,,,,96,0,3,,,,,2,,,,76,0
100418,note_on,,,,,0,0,3,,,,,2,,,,79,127
100418,note_on,,,,,96,0,3,,,,,2,,,,77,0
100514,note_on,,,,,0,0,3,,,,,2,,,,77,127
100514,note_on,,,,,96,0,3,,,,,2,,,,79,0
100608,set_tempo,,,,,480,1,0,,285714,,,,,,,,
100610,note_on,,,,,0,0,3,,,,,2,,,,82,127
100610,note_on,,,,,96,0,3,,,,,2,,,,77,0
100706,note_on,,,,,96,0,3,,,,,2,,,,82,0
100706,note_on,,,,,0,0,3,,,,,2,,,,80,127
100800,note_on,,,,,94,0,3,,,,,2,,,,80,0
100806,note_on,,,,,608,0,4,,,,,3,,,,58,127
100806,note_on,,,,,0,0,4,,,,,3,,,,65,127
100898,note_on,,,,,98,0,3,,,,,2,,,,80,127
100966,note_on,,,,,0,0,4,,,,,3,,,,58,0
100966,note_on,,,,,160,0,4,,,,,3,,,,65,0
100994,note_on,,,,,0,0,3,,,,,2,,,,87,127
100994,note_on,,,,,96,0,3,,,,,2,,,,80,0
101090,note_on,,,,,96,0,3,,,,,2,,,,87,0
101090,note_on,,,,,0,0,3,,,,,2,,,,86,127
101184,note_on,,,,,94,0,3,,,,,2,,,,86,0
101190,note_on,,,,,224,0,4,,,,,3,,,,58,127
101190,note_on,,,,,0,0,4,,,,,3,,,,65,127
101282,note_on,,,,,98,0,3,,,,,2,,,,86,127
101350,note_on,,,,,0,0,4,,,,,3,,,,58,0
101350,note_on,,,,,160,0,4,,,,,3,,,,65,0
101376,note_on,,,,,3504,0,5,,,,,4,,,,68,45
101378,note_on,,,,,96,0,3,,,,,2,,,,86,0
101378,note_on,,,,,0,0,3,,,,,2,,,,89,127
101378,note_on,,,,,2912,0,7,,,,,6,,,,58,45
101382,note_on,,,,,2912,0,9,,,,,8,,,,34,45
101384,note_on,,,,,2912,0,8,,,,,7,,,,46,45
101386,note_on,,,,,2912,0,6,,,,,5,,,,62,45
101386,note_on,,,,,0,0,6,,,,,5,,,,65,45
101474,note_on,,,,,0,0,3,,,,,2,,,,80,127
101474,note_on,,,,,96,0,3,,,,,2,,,,89,0
101568,note_on,,,,,94,0,3,,,,,2,,,,80,0
101570,note_on,,,,,192,0,7,,,,,6,,,,58,0
101570,note_on,,,,,0,0,7,,,,,6,,,,59,45
101574,note_on,,,,,192,0,9,,,,,8,,,,34,0
101574,note_on,,,,,0,0,9,,,,,8,,,,35,45
101576,note_on,,,,,192,0,8,,,,,7,,,,46,0
101576,note_on,,,,,0,0,8,,,,,7,,,,47,45
101666,note_on,,,,,98,0,3,,,,,2,,,,80,108
101762,note_on,,,,,0,0,7,,,,,6,,,,58,45
101762,note_on,,,,,0,0,3,,,,,2,,,,83,108
101762,note_on,,,,,96,0,3,,,,,2,,,,80,0
101762,note_on,,,,,192,0,7,,,,,6,,,,59,0
101766,note_on,,,,,192,0,9,,,,,8,,,,35,0
101766,note_on,,,,,0,0,9,,,,,8,,,,34,45
101768,note_on,,,,,192,0,8,,,,,7,,,,47,0
101768,note_on,,,,,0,0,8,,,,,7,,,,46,45
101858,note_on,,,,,96,0,3,,,,,2,,,,83,0
101858,note_on,,,,,0,0,3,,,,,2,,,,77,108
101952,note_on,,,,,94,0,3,,,,,2,,,,77,0
101954,note_on,,,,,0,0,7,,,,,6,,,,59,45
101954,note_on,,,,,192,0,7,,,,,6,,,,58,0
101958,note_on,,,,,0,0,9,,,,,8,,,,35,45
101958,note_on,,,,,192,0,9,,,,,8,,,,34,0
101960,note_on,,,,,0,0,8,,,,,7,,,,47,45
101960,note_on,,,,,192,0,8,,,,,7,,,,46,0
102050,note_on,,,,,98,0,3,,,,,2,,,,77,108
102114,note_on,,,,,160,0,7,,,,,6,,,,59,0
102118,note_on,,,,,160,0,9,,,,,8,,,,35,0
102120,note_on,,,,,160,0,8,,,,,7,,,,47,0
102146,note_on,,,,,0,0,3,,,,,2,,,,80,108
102146,note_on,,,,,96,0,3,,,,,2,,,,77,0
102146,note_on,,,,,32,0,7,,,,,6,,,,58,45
102150,note_on,,,,,32,0,9,,,,,8,,,,34,45
102152,note_on,,,,,32,0,8,,,,,7,,,,46,45
102242,note_on,,,,,0,0,3,,,,,2,,,,74,108
102242,note_on,,,,,96,0,3,,,,,2,,,,80,0
102336,note_on,,,,,94,0,3,,,,,2,,,,74,0
102338,note_on,,,,,0,0,7,,,,,6,,,,59,45
102338,note_on,,,,,192,0,7,,,,,6,,,,58,0
102342,note_on,,,,,0,0,9,,,,,8,,,,35,45
102342,note_on,,,,,192,0,9,,,,,8,,,,34,0
102344,note_on,,,,,0,0,8,,,,,7,,,,47,45
102344,note_on,,,,,192,0,8,,,,,7,,,,46,0
102434,note_on,,,,,98,0,3,,,,,2,,,,74,92
102530,note_on,,,,,0,0,7,,,,,6,,,,58,45
102530,note_on,,,,,96,0,3,,,,,2,,,,74,0
102530,note_on,,,,,0,0,3,,,,,2,,,,77,92
102530,note_on,,,,,192,0,7,,,,,6,,,,59,0
102534,note_on,,,,,192,0,9,,,,,8,,,,35,0
102534,note_on,,,,,0,0,9,,,,,8,,,,34,45
102536,note_on,,,,,192,0,8,,,,,7,,,,47,0
102536,note_on,,,,,0,0,8,,,,,7,,,,46,45
102626,note_on,,,,,96,0,3,,,,,2,,,,77,0
102626,note_on,,,,,0,0,3,,,,,2,,,,68,92
102722,note_on,,,,,0,0,3,,,,,2,,,,71,92
102722,note_on,,,,,96,0,3,,,,,2,,,,68,0
102722,note_on,,,,,0,0,7,,,,,6,,,,59,45
102722,note_on,,,,,192,0,7,,,,,6,,,,58,0
102726,note_on,,,,,0,0,9,,,,,8,,,,35,45
102726,note_on,,,,,192,0,9,,,,,8,,,,34,0
102728,note_on,,,,,0,0,8,,,,,7,,,,47,45
102728,note_on,,,,,192,0,8,,,,,7,,,,46,0
102818,note_on,,,,,0,0,3,,,,,2,,,,65,92
102818,note_on,,,,,96,0,3,,,,,2,,,,71,0
102882,note_on,,,,,160,0,7,,,,,6,,,,59,0
102886,note_on,,,,,160,0,9,,,,,8,,,,35,0
102888,note_on,,,,,160,0,8,,,,,7,,,,47,0
102914,note_on,,,,,0,0,3,,,,,2,,,,68,92
102914,note_on,,,,,96,0,3,,,,,2,,,,65,0
102914,note_on,,,,,32,0,7,,,,,6,,,,58,45
102918,note_on,,,,,32,0,9,,,,,8,,,,34,45
102920,note_on,,,,,32,0,8,,,,,7,,,,46,45
103010,note_on,,,,,96,0,3,,,,,2,,,,68,0
103010,note_on,,,,,0,0,3,,,,,2,,,,62,92
103072,note_on,,,,,1696,0,5,,,,,4,,,,68,0
103074,note_on,,,,,160,0,7,,,,,6,,,,58,0
103078,note_on,,,,,160,0,9,,,,,8,,,,34,0
103080,note_on,,,,,160,0,8,,,,,7,,,,46,0
103082,note_on,,,,,0,0,6,,,,,5,,,,62,0
103082,note_on,,,,,1696,0,6,,,,,5,,,,65,0
103104,note_on,,,,,94,0,3,,,,,2,,,,62,0
103110,note_on,,,,,1760,0,4,,,,,3,,,,46,92
103200,set_tempo,,,,,2592,1,0,,272727,,,,,,,,
103202,note_on,,,,,98,0,3,,,,,2,,,,62,75
103270,note_on,,,,,160,0,4,,,,,3,,,,46,0
103298,note_on,,,,,0,0,3,,,,,2,,,,63,75
103298,note_on,,,,,96,0,3,,,,,2,,,,62,0
103394,note_on,,,,,0,0,3,,,,,2,,,,64,75
103394,note_on,,,,,96,0,3,,,,,2,,,,63,0
103490,note_on,,,,,96,0,3,,,,,2,,,,64,0
103490,note_on,,,,,0,0,3,,,,,2,,,,65,75
103586,note_on,,,,,0,0,3,,,,,2,,,,66,75
103586,note_on,,,,,96,0,3,,,,,2,,,,65,0
103680,set_tempo,,,,,480,1,0,,279070,,,,,,,,
103682,note_on,,,,,0,0,3,,,,,2,,,,67,60
103682,note_on,,,,,96,0,3,,,,,2,,,,66,0
103778,note_on,,,,,96,0,3,,,,,2,,,,67,0
103778,note_on,,,,,0,0,3,,,,,2,,,,68,60
103874,note_on,,,,,0,0,3,,,,,2,,,,69,60
103874,note_on,,,,,96,0,3,,,,,2,,,,68,0
103970,note_on,,,,,0,0,3,,,,,2,,,,70,60
103970,note_on,,,,,96,0,3,,,,,2,,,,69,0
104064,set_tempo,,,,,384,1,0,,285714,,,,,,,,
104066,note_on,,,,,0,0,3,,,,,2,,,,71,53
104066,note_on,,,,,96,0,3,,,,,2,,,,70,0
104162,note_on,,,,,96,0,3,,,,,2,,,,71,0
104162,note_on,,,,,0,0,3,,,,,2,,,,72,53
104256,note_on,,,,,1184,0,5,,,,,4,,,,70,45
104258,note_on,,,,,0,0,3,,,,,2,,,,73,53
104258,note_on,,,,,96,0,3,,,,,2,,,,72,0
104304,note_on,,,,,48,0,5,,,,,4,,,,70,0
104354,note_on,,,,,0,0,3,,,,,2,,,,74,53
104354,note_on,,,,,96,0,3,,,,,2,,,,73,0
104448,note_on,,,,,144,0,5,,,,,4,,,,75,60
104450,note_on,,,,,0,0,3,,,,,2,,,,77,75
104450,note_on,,,,,96,0,3,,,,,2,,,,74,0
104496,note_on,,,,,48,0,5,,,,,4,,,,75,0
104546,note_on,,,,,96,0,3,,,,,2,,,,77,0
104546,note_on,,,,,0,0,3,,,,,2,,,,75,75
104640,note_on,,,,,144,0,5,,,,,4,,,,70,60
104640,note_on,,,,,94,0,3,,,,,2,,,,75,0
104646,note_on,,,,,0,0,4,,,,,3,,,,55,60
104646,note_on,,,,,1376,0,4,,,,,3,,,,51,60
104688,note_on,,,,,48,0,5,,,,,4,,,,70,0
104738,note_on,,,,,98,0,3,,,,,2,,,,70,75
104770,note_on,,,,,32,0,3,,,,,2,,,,70,0
104806,note_on,,,,,0,0,4,,,,,3,,,,51,0
104806,note_on,,,,,160,0,4,,,,,3,,,,55,0
104832,note_on,,,,,144,0,5,,,,,4,,,,72,60
104834,note_on,,,,,64,0,3,,,,,2,,,,73,75
104880,note_on,,,,,48,0,5,,,,,4,,,,72,0
104930,note_on,,,,,0,0,3,,,,,2,,,,72,75
104930,note_on,,,,,96,0,3,,,,,2,,,,73,0
105024,note_on,,,,,94,0,3,,,,,2,,,,72,0
105024,note_on,,,,,144,0,5,,,,,4,,,,67,60
105030,note_on,,,,,0,0,4,,,,,3,,,,60,60
105030,note_on,,,,,224,0,4,,,,,3,,,,52,60
105072,note_on,,,,,48,0,5,,,,,4,,,,67,0
105122,note_on,,,,,98,0,3,,,,,2,,,,67,75
105154,note_on,,,,,32,0,3,,,,,2,,,,67,0
105190,note_on,,,,,0,0,4,,,,,3,,,,52,0
105190,note_on,,,,,160,0,4,,,,,3,,,,60,0
105216,note_on,,,,,144,0,5,,,,,4,,,,68,60
105218,note_on,,,,,64,0,3,,,,,2,,,,70,75
105264,note_on,,,,,48,0,5,,,,,4,,,,68,0
105314,note_on,,,,,96,0,3,,,,,2,,,,70,0
105314,note_on,,,,,0,0,3,,,,,2,,,,68,75
105408,note_on,,,,,144,0,5,,,,,4,,,,65,60
105408,note_on,,,,,94,0,3,,,,,2,,,,68,0
105414,note_on,,,,,224,0,4,,,,,3,,,,53,60
105414,note_on,,,,,0,0,4,,,,,3,,,,56,60
105456,note_on,,,,,48,0,5,,,,,4,,,,65,0
105506,note_on,,,,,98,0,3,,,,,2,,,,65,75
105538,note_on,,,,,32,0,3,,,,,2,,,,65,0
105574,note_on,,,,,0,0,4,,,,,3,,,,53,0
105574,note_on,,,,,160,0,4,,,,,3,,,,56,0
105600,note_on,,,,,144,0,5,,,,,4,,,,58,60
105602,note_on,,,,,64,0,3,,,,,2,,,,72,75
105648,note_on,,,,,48,0,5,,,,,4,,,,58,0
105698,note_on,,,,,96,0,3,,,,,2,,,,72,0
105698,note_on,,,,,0,0,3,,,,,2,,,,70,75
105792,note_on,,,,,144,0,5,,,,,4,,,,70,60
105792,note_on,,,,,94,0,3,,,,,2,,,,70,0
105798,note_on,,,,,0,0,4,,,,,3,,,,53,60
105798,note_on,,,,,224,0,4,,,,,3,,,,50,60
105840,note_on,,,,,48,0,5,,,,,4,,,,70,0
105890,note_on,,,,,98,0,3,,,,,2,,,,65,75
105922,note_on,,,,,32,0,3,,,,,2,,,,65,0
105958,note_on,,,,,0,0,4,,,,,3,,,,50,0
105958,note_on,,,,,160,0,4,,,,,3,,,,53,0
105984,note_on,,,,,144,0,5,,,,,4,,,,67,60
105986,note_on,,,,,64,0,3,,,,,2,,,,68,75
106032,note_on,,,,,48,0,5,,,,,4,,,,67,0
106082,note_on,,,,,96,0,3,,,,,2,,,,68,0
106082,note_on,,,,,0,0,3,,,,,2,,,,67,75
106176,note_on,,,,,94,0,3,,,,,2,,,,67,0
106176,note_on,,,,,144,0,5,,,,,4,,,,63,60
106182,note_on,,,,,0,0,4,,,,,3,,,,55,60
106182,note_on,,,,,224,0,4,,,,,3,,,,51,60
106224,note_on,,,,,48,0,5,,,,,4,,,,63,0
106274,note_on,,,,,98,0,3,,,,,2,,,,63,75
106306,note_on,,,,,32,0,3,,,,,2,,,,63,0
106342,note_on,,,,,160,0,4,,,,,3,,,,55,0
106342,note_on,,,,,0,0,4,,,,,3,,,,51,0
106368,note_on,,,,,144,0,5,,,,,4,,,,56,60
106370,note_on,,,,,64,0,3,,,,,2,,,,70,75
106416,note_on,,,,,48,0,5,,,,,4,,,,56,0
106466,note_on,,,,,0,0,3,,,,,2,,,,68,75
106466,note_on,,,,,96,0,3,,,,,2,,,,70,0
106560,note_on,,,,,94,0,3,,,,,2,,,,68,0
106560,note_on,,,,,144,0,5,,,,,4,,,,72,60
106566,note_on,,,,,0,0,4,,,,,3,,,,56,60
106566,note_on,,,,,224,0,4,,,,,3,,,,48,60
106608,note_on,,,,,48,0,5,,,,,4,,,,72,0
106658,note_on,,,,,98,0,3,,,,,2,,,,72,75
106690,note_on,,,,,32,0,3,,,,,2,,,,72,0
106726,note_on,,,,,160,0,4,,,,,3,,,,56,0
106726,note_on,,,,,0,0,4,,,,,3,,,,48,0
106752,note_on,,,,,144,0,5,,,,,4,,,,63,60
106754,note_on,,,,,64,0,3,,,,,2,,,,63,75
106944,note_on,,,,,192,0,5,,,,,4,,,,63,0
106944,note_on,,,,,0,0,5,,,,,4,,,,62,60
106946,note_on,,,,,0,0,3,,,,,2,,,,62,75
106946,note_on,,,,,192,0,3,,,,,2,,,,63,0
106950,note_on,,,,,224,0,4,,,,,3,,,,46,60
107104,note_on,,,,,160,0,5,,,,,4,,,,62,0
107106,note_on,,,,,160,0,3,,,,,2,,,,62,0
107142,note_on,,,,,192,0,4,,,,,3,,,,46,0
107142,note_on,,,,,0,0,4,,,,,3,,,,44,60
107328,note_on,,,,,224,0,5,,,,,4,,,,63,60
107334,note_on,,,,,192,0,4,,,,,3,,,,44,0
107334,note_on,,,,,0,0,4,,,,,3,,,,43,60
107376,note_on,,,,,48,0,5,,,,,4,,,,63,0
107426,note_on,,,,,320,0,3,,,,,2,,,,63,75
107458,note_on,,,,,32,0,3,,,,,2,,,,63,0
107494,note_on,,,,,160,0,4,,,,,3,,,,43,0
107520,note_on,,,,,144,0,5,,,,,4,,,,60,60
107522,note_on,,,,,64,0,3,,,,,2,,,,62,75
107526,note_on,,,,,32,0,4,,,,,3,,,,44,60
107568,note_on,,,,,48,0,5,,,,,4,,,,60,0
107618,note_on,,,,,96,0,3,,,,,2,,,,62,0
107618,note_on,,,,,0,0,3,,,,,2,,,,60,75
107686,note_on,,,,,160,0,4,,,,,3,,,,44,0
107712,note_on,,,,,94,0,3,,,,,2,,,,60,0
107712,note_on,,,,,144,0,5,,,,,4,,,,65,60
107718,note_on,,,,,32,0,4,,,,,3,,,,45,60
107760,note_on,,,,,48,0,5,,,,,4,,,,65,0
107810,note_on,,,,,98,0,3,,,,,2,,,,65,75
107842,note_on,,,,,32,0,3,,,,,2,,,,65,0
107878,note_on,,,,,160,0,4,,,,,3,,,,45,0
107904,note_on,,,,,144,0,5,,,,,4,,,,62,60
107906,note_on,,,,,64,0,3,,,,,2,,,,63,75
107910,note_on,,,,,32,0,4,,,,,3,,,,46,60
107952,note_on,,,,,48,0,5,,,,,4,,,,62,0
108002,note_on,,,,,0,0,3,,,,,2,,,,62,75
108002,note_on,,,,,96,0,3,,,,,2,,,,63,0
108070,note_on,,,,,160,0,4,,,,,3,,,,46,0
108096,note_on,,,,,144,0,5,,,,,4,,,,67,60
108096,note_on,,,,,94,0,3,,,,,2,,,,62,0
108102,note_on,,,,,32,0,4,,,,,3,,,,47,60
108144,note_on,,,,,48,0,5,,,,,4,,,,67,0
108194,note_on,,,,,98,0,3,,,,,2,,,,67,75
108226,note_on,,,,,32,0,3,,,,,2,,,,67,0
108262,note_on,,,,,160,0,4,,,,,3,,,,47,0
108288,note_on,,,,,144,0,5,,,,,4,,,,63,60
108290,note_on,,,,,64,0,3,,,,,2,,,,65,75
108294,note_on,,,,,32,0,4,,,,,3,,,,48,60
108336,note_on,,,,,48,0,5,,,,,4,,,,63,0
108386,note_on,,,,,96,0,3,,,,,2,,,,65,0
108386,note_on,,,,,0,0,3,,,,,2,,,,63,75
108454,note_on,,,,,160,0,4,,,,,3,,,,48,0
108480,note_on,,,,,94,0,3,,,,,2,,,,63,0
108480,note_on,,,,,144,0,5,,,,,4,,,,68,60
108486,note_on,,,,,32,0,4,,,,,3,,,,53,60
108528,note_on,,,,,48,0,5,,,,,4,,,,68,0
108578,note_on,,,,,98,0,3,,,,,2,,,,68,75
108610,note_on,,,,,32,0,3,,,,,2,,,,68,0
108646,note_on,,,,,160,0,4,,,,,3,,,,53,0
108672,note_on,,,,,144,0,5,,,,,4,,,,65,60
108674,note_on,,,,,64,0,3,,,,,2,,,,67,75
108678,note_on,,,,,32,0,4,,,,,3,,,,50,60
108720,note_on,,,,,48,0,5,,,,,4,,,,65,0
108770,note_on,,,,,96,0,3,,,,,2,,,,67,0
108770,note_on,,,,,0,0,3,,,,,2,,,,65,75
108838,note_on,,,,,160,0,4,,,,,3,,,,50,0
108864,note_on,,,,,94,0,3,,,,,2,,,,65,0
108864,note_on,,,,,144,0,5,,,,,4,,,,70,60
108870,note_on,,,,,32,0,4,,,,,3,,,,46,60
108912,note_on,,,,,48,0,5,,,,,4,,,,70,0
108962,note_on,,,,,98,0,3,,,,,2,,,,70,75
108994,note_on,,,,,32,0,3,,,,,2,,,,70,0
109030,note_on,,,,,160,0,4,,,,,3,,,,46,0
109056,note_on,,,,,144,0,5,,,,,4,,,,67,60
109058,note_on,,,,,64,0,3,,,,,2,,,,68,75
109062,note_on,,,,,32,0,4,,,,,3,,,,51,60
109154,note_on,,,,,0,0,3,,,,,2,,,,67,75
109154,note_on,,,,,96,0,3,,,,,2,,,,68,0
109216,note_on,,,,,160,0,5,,,,,4,,,,67,0
109222,note_on,,,,,160,0,4,,,,,3,,,,51,0
109248,note_on,,,,,32,0,5,,,,,4,,,,72,60
109248,note_on,,,,,94,0,3,,,,,2,,,,67,0
109250,note_on,,,,,6176,0,7,,,,,6,,,,63,60
109254,note_on,,,,,6176,0,9,,,,,8,,,,36,60
109254,note_on,,,,,32,0,4,,,,,3,,,,48,60
109256,note_on,,,,,6176,0,8,,,,,7,,,,48,60
109258,note_on,,,,,6176,0,6,,,,,5,,,,67,60
109346,note_on,,,,,98,0,3,,,,,2,,,,75,92
109378,note_on,,,,,32,0,3,,,,,2,,,,75,0
109414,note_on,,,,,160,0,9,,,,,8,,,,36,0
109414,note_on,,,,,160,0,4,,,,,3,,,,48,0
109416,note_on,,,,,160,0,8,,,,,7,,,,48,0
109440,note_on,,,,,0,0,5,,,,,4,,,,70,60
109440,note_on,,,,,192,0,5,,,,,4,,,,72,0
109442,note_on,,,,,64,0,3,,,,,2,,,,74,92
109442,note_on,,,,,0,0,7,,,,,6,,,,60,60
109442,note_on,,,,,192,0,7,,,,,6,,,,63,0
109446,note_on,,,,,32,0,4,,,,,3,,,,53,60
109446,note_on,,,,,32,0,9,,,,,8,,,,41,60
109448,note_on,,,,,32,0,8,,,,,7,,,,53,60
109450,note_on,,,,,192,0,6,,,,,5,,,,67,0
109450,note_on,,,,,0,0,6,,,,,5,,,,65,60
109538,note_on,,,,,0,0,3,,,,,2,,,,72,92
109538,note_on,,,,,96,0,3,,,,,2,,,,74,0
109606,note_on,,,,,160,0,4,,,,,3,,,,53,0
109606,note_on,,,,,160,0,9,,,,,8,,,,41,0
109608,note_on,,,,,160,0,8,,,,,7,,,,53,0
109632,note_on,,,,,94,0,3,,,,,2,,,,72,0
109632,note_on,,,,,192,0,5,,,,,4,,,,70,0
109632,note_on,,,,,0,0,5,,,,,4,,,,69,60
109634,note_on,,,,,192,0,7,,,,,6,,,,60,0
109634,note_on,,,,,0,0,7,,,,,6,,,,65,60
109638,note_on,,,,,32,0,4,,,,,3,,,,41,60
109638,note_on,,,,,32,0,9,,,,,8,,,,29,60
109640,note_on,,,,,32,0,8,,,,,7,,,,41,60
109642,note_on,,,,,0,0,6,,,,,5,,,,63,60
109642,note_on,,,,,192,0,6,,,,,5,,,,65,0
109730,note_on,,,,,98,0,3,,,,,2,,,,77,92
109762,note_on,,,,,32,0,3,,,,,2,,,,77,0
109792,note_on,,,,,160,0,5,,,,,4,,,,69,0
109794,note_on,,,,,160,0,7,,,,,6,,,,65,0
109798,note_on,,,,,160,0,9,,,,,8,,,,29,0
109798,note_on,,,,,160,0,4,,,,,3,,,,41,0
109800,note_on,,,,,160,0,8,,,,,7,,,,41,0
109802,note_on,,,,,160,0,6,,,,,5,,,,63,0
109824,note_on,,,,,32,0,5,,,,,4,,,,72,60
109824,set_tempo,,,,,5760,1,0,,292683,,,,,,,,
109826,note_on,,,,,64,0,3,,,,,2,,,,69,92
109826,note_on,,,,,32,0,7,,,,,6,,,,65,60
109830,note_on,,,,,32,0,9,,,,,8,,,,34,60
109832,note_on,,,,,32,0,8,,,,,7,,,,46,60
109834,note_on,,,,,32,0,6,,,,,5,,,,63,60
110016,note_on,,,,,0,0,5,,,,,4,,,,70,60
110016,note_on,,,,,192,0,5,,,,,4,,,,72,0
110018,note_on,,,,,0,0,3,,,,,2,,,,70,92
110018,note_on,,,,,192,0,3,,,,,2,,,,69,0
110022,note_on,,,,,224,0,4,,,,,3,,,,58,60
110026,note_on,,,,,192,0,6,,,,,5,,,,63,0
110026,note_on,,,,,0,0,6,,,,,5,,,,62,60
110162,note_on,,,,,336,0,7,,,,,6,,,,65,0
110166,note_on,,,,,336,0,9,,,,,8,,,,34,0
110168,note_on,,,,,336,0,8,,,,,7,,,,46,0
110176,note_on,,,,,160,0,5,,,,,4,,,,70,0
110178,note_on,,,,,160,0,3,,,,,2,,,,70,0
110182,note_on,,,,,160,0,4,,,,,3,,,,58,0
110186,note_on,,,,,160,0,6,,,,,5,,,,62,0
110214,note_on,,,,,32,0,4,,,,,3,,,,46,60
110304,note_on,,,,,128,0,5,,,,,4,,,,70,108
110314,note_on,,,,,128,0,6,,,,,5,,,,70,108
110336,note_on,,,,,32,0,5,,,,,4,,,,70,0
110346,note_on,,,,,32,0,6,,,,,5,,,,70,0
110374,note_on,,,,,160,0,4,,,,,3,,,,46,0
110400,note_on,,,,,64,0,5,,,,,4,,,,72,108
110410,note_on,,,,,64,0,6,,,,,5,,,,72,108
110432,note_on,,,,,32,0,5,,,,,4,,,,72,0
110442,note_on,,,,,32,0,6,,,,,5,,,,72,0
110496,note_on,,,,,64,0,5,,,,,4,,,,74,108
110506,note_on,,,,,64,0,6,,,,,5,,,,74,108
110528,note_on,,,,,32,0,5,,,,,4,,,,74,0
110538,note_on,,,,,32,0,6,,,,,5,,,,74,0
110592,note_on,,,,,64,0,5,,,,,4,,,,75,108
110594,note_on,,,,,432,0,7,,,,,6,,,,67,108
110596,note_on,,,,,85680,0,1,,,,,0,,,,75,108
110598,note_on,,,,,432,0,9,,,,,8,,,,39,108
110599,note_on,,,,,85680,0,2,,,,,1,,,,55,108
110599,note_on,,,,,0,0,2,,,,,1,,,,63,108
110600,note_on,,,,,432,0,8,,,,,7,,,,51,108
110602,note_on,,,,,64,0,6,,,,,5,,,,75,108
110686,note_on,,,,,94,0,5,,,,,4,,,,75,0
110688,note_on,,,,,2,0,5,,,,,4,,,,77,108
110696,note_on,,,,,94,0,6,,,,,5,,,,75,0
110698,note_on,,,,,2,0,6,,,,,5,,,,77,108
110754,note_on,,,,,160,0,7,,,,,6,,,,67,0
110782,note_on,,,,,94,0,5,,,,,4,,,,77,0
110784,note_on,,,,,2,0,5,,,,,4,,,,79,108
110786,note_on,,,,,32,0,7,,,,,6,,,,70,108
110792,note_on,,,,,94,0,6,,,,,5,,,,77,0
110794,note_on,,,,,2,0,6,,,,,5,,,,79,108
110878,note_on,,,,,94,0,5,,,,,4,,,,79,0
110880,note_on,,,,,2,0,5,,,,,4,,,,74,108
110888,note_on,,,,,94,0,6,,,,,5,,,,79,0
110890,note_on,,,,,2,0,6,,,,,5,,,,74,108
110934,note_on,,,,,336,0,9,,,,,8,,,,39,0
110936,note_on,,,,,336,0,8,,,,,7,,,,51,0
110974,note_on,,,,,94,0,5,,,,,4,,,,74,0
110976,note_on,,,,,2,0,5,,,,,4,,,,75,108
110982,note_on,,,,,48,0,9,,,,,8,,,,43,108
110984,note_on,,,,,48,0,8,,,,,7,,,,55,108
110984,note_on,,,,,94,0,6,,,,,5,,,,74,0
110986,note_on,,,,,2,0,6,,,,,5,,,,75,108
111070,note_on,,,,,94,0,5,,,,,4,,,,75,0
111072,note_on,,,,,2,0,5,,,,,4,,,,70,108
111080,note_on,,,,,94,0,6,,,,,5,,,,75,0
111082,note_on,,,,,2,0,6,,,,,5,,,,70,108
111122,note_on,,,,,336,0,7,,,,,6,,,,70,0
111166,note_on,,,,,94,0,5,,,,,4,,,,70,0
111168,note_on,,,,,2,0,5,,,,,4,,,,72,108
111170,note_on,,,,,48,0,7,,,,,6,,,,63,108
111176,note_on,,,,,94,0,6,,,,,5,,,,70,0
111178,note_on,,,,,2,0,6,,,,,5,,,,72,108
111262,note_on,,,,,94,0,5,,,,,4,,,,72,0
111264,note_on,,,,,2,0,5,,,,,4,,,,67,108
111272,note_on,,,,,94,0,6,,,,,5,,,,72,0
111274,note_on,,,,,2,0,6,,,,,5,,,,67,108
111318,note_on,,,,,336,0,9,,,,,8,,,,43,0
111319,note_on,,,,,0,0,2,,,,,1,,,,55,0
111319,note_on,,,,,720,0,2,,,,,1,,,,63,0
111320,note_on,,,,,336,0,8,,,,,7,,,,55,0
111358,note_on,,,,,94,0,5,,,,,4,,,,67,0
111360,note_on,,,,,2,0,5,,,,,4,,,,68,108
111364,note_on,,,,,768,0,1,,,,,0,,,,80,108
111366,note_on,,,,,48,0,9,,,,,8,,,,41,108
111367,note_on,,,,,0,0,2,,,,,1,,,,65,108
111367,note_on,,,,,48,0,2,,,,,1,,,,58,108
111368,note_on,,,,,48,0,8,,,,,7,,,,53,108
111368,note_on,,,,,94,0,6,,,,,5,,,,67,0
111370,note_on,,,,,2,0,6,,,,,5,,,,68,108
111454,note_on,,,,,94,0,5,,,,,4,,,,68,0
111456,note_on,,,,,2,0,5,,,,,4,,,,63,108
111464,note_on,,,,,94,0,6,,,,,5,,,,68,0
111466,note_on,,,,,2,0,6,,,,,5,,,,63,108
111522,note_on,,,,,352,0,7,,,,,6,,,,63,0
111550,note_on,,,,,94,0,5,,,,,4,,,,63,0
111552,note_on,,,,,2,0,5,,,,,4,,,,65,108
111554,note_on,,,,,32,0,7,,,,,6,,,,68,108
111560,note_on,,,,,94,0,6,,,,,5,,,,63,0
111562,note_on,,,,,2,0,6,,,,,5,,,,65,108
111646,note_on,,,,,94,0,5,,,,,4,,,,65,0
111648,note_on,,,,,2,0,5,,,,,4,,,,60,108
111656,note_on,,,,,94,0,6,,,,,5,,,,65,0
111658,note_on,,,,,2,0,6,,,,,5,,,,60,108
111700,note_on,,,,,336,0,1,,,,,0,,,,75,0
111702,note_on,,,,,336,0,9,,,,,8,,,,41,0
111704,note_on,,,,,336,0,8,,,,,7,,,,53,0
111742,note_on,,,,,94,0,5,,,,,4,,,,60,0
111744,note_on,,,,,2,0,5,,,,,4,,,,62,108
111748,note_on,,,,,48,0,1,,,,,0,,,,74,108
111750,note_on,,,,,48,0,9,,,,,8,,,,34,108
111752,note_on,,,,,48,0,8,,,,,7,,,,46,108
111752,note_on,,,,,94,0,6,,,,,5,,,,60,0
111754,note_on,,,,,2,0,6,,,,,5,,,,62,108
111838,note_on,,,,,94,0,5,,,,,4,,,,62,0
111840,note_on,,,,,2,0,5,,,,,4,,,,65,108
111848,note_on,,,,,94,0,6,,,,,5,,,,62,0
111850,note_on,,,,,2,0,6,,,,,5,,,,65,108
111890,note_on,,,,,336,0,7,,,,,6,,,,68,0
111910,note_on,,,,,160,0,9,,,,,8,,,,34,0
111912,note_on,,,,,160,0,8,,,,,7,,,,46,0
111934,note_on,,,,,94,0,5,,,,,4,,,,65,0
111936,note_on,,,,,2,0,5,,,,,4,,,,70,108
111938,note_on,,,,,48,0,7,,,,,6,,,,65,108
111940,note_on,,,,,0,0,1,,,,,0,,,,77,108
111940,note_on,,,,,192,0,1,,,,,0,,,,74,0
111942,note_on,,,,,32,0,9,,,,,8,,,,38,108
111944,note_on,,,,,94,0,6,,,,,5,,,,65,0
111944,note_on,,,,,32,0,8,,,,,7,,,,50,108
111946,note_on,,,,,2,0,6,,,,,5,,,,70,108
112030,note_on,,,,,94,0,5,,,,,4,,,,70,0
112032,note_on,,,,,2,0,5,,,,,4,,,,68,108
112040,note_on,,,,,94,0,6,,,,,5,,,,70,0
112042,note_on,,,,,2,0,6,,,,,5,,,,68,108
112084,note_on,,,,,144,0,1,,,,,0,,,,80,0
112087,note_on,,,,,720,0,2,,,,,1,,,,65,0
112087,note_on,,,,,0,0,2,,,,,1,,,,58,0
112098,note_on,,,,,160,0,7,,,,,6,,,,65,0
112100,note_on,,,,,16,0,1,,,,,0,,,,77,0
112102,note_on,,,,,160,0,9,,,,,8,,,,38,0
112104,note_on,,,,,160,0,8,,,,,7,,,,50,0
112126,note_on,,,,,94,0,5,,,,,4,,,,68,0
112128,note_on,,,,,2,0,5,,,,,4,,,,67,108
112130,note_on,,,,,32,0,7,,,,,6,,,,58,108
112132,note_on,,,,,0,0,1,,,,,0,,,,79,108
112132,note_on,,,,,32,0,1,,,,,0,,,,75,108
112134,note_on,,,,,32,0,9,,,,,8,,,,39,108
112135,note_on,,,,,48,0,2,,,,,1,,,,63,108
112135,note_on,,,,,0,0,2,,,,,1,,,,67,108
112136,note_on,,,,,94,0,6,,,,,5,,,,68,0
112136,note_on,,,,,32,0,8,,,,,7,,,,51,108
112138,note_on,,,,,2,0,6,,,,,5,,,,67,108
112222,note_on,,,,,94,0,5,,,,,4,,,,67,0
112224,note_on,,,,,2,0,5,,,,,4,,,,62,108
112232,note_on,,,,,94,0,6,,,,,5,,,,67,0
112234,note_on,,,,,2,0,6,,,,,5,,,,62,108
112290,note_on,,,,,160,0,7,,,,,6,,,,58,0
112292,note_on,,,,,160,0,1,,,,,0,,,,79,0
112294,note_on,,,,,160,0,9,,,,,8,,,,39,0
112296,note_on,,,,,160,0,8,,,,,7,,,,51,0
112318,note_on,,,,,94,0,5,,,,,4,,,,62,0
112320,note_on,,,,,2,0,5,,,,,4,,,,63,108
112322,note_on,,,,,32,0,7,,,,,6,,,,63,108
112324,note_on,,,,,32,0,1,,,,,0,,,,82,108
112326,note_on,,,,,32,0,9,,,,,8,,,,43,108
112328,note_on,,,,,32,0,8,,,,,7,,,,55,108
112328,note_on,,,,,94,0,6,,,,,5,,,,62,0
112330,note_on,,,,,2,0,6,,,,,5,,,,63,108
112414,note_on,,,,,94,0,5,,,,,4,,,,63,0
112416,note_on,,,,,2,0,5,,,,,4,,,,58,108
112424,note_on,,,,,94,0,6,,,,,5,,,,63,0
112426,note_on,,,,,2,0,6,,,,,5,,,,58,108
112484,note_on,,,,,160,0,1,,,,,0,,,,82,0
112486,note_on,,,,,160,0,9,,,,,8,,,,43,0
112488,note_on,,,,,160,0,8,,,,,7,,,,55,0
112510,note_on,,,,,94,0,5,,,,,4,,,,58,0
112512,note_on,,,,,2,0,5,,,,,4,,,,60,108
112516,note_on,,,,,32,0,1,,,,,0,,,,84,108
112518,note_on,,,,,32,0,9,,,,,8,,,,44,108
112520,note_on,,,,,94,0,6,,,,,5,,,,58,0
112520,note_on,,,,,32,0,8,,,,,7,,,,56,108
112522,note_on,,,,,2,0,6,,,,,5,,,,60,108
112606,note_on,,,,,94,0,5,,,,,4,,,,60,0
112608,note_on,,,,,2,0,5,,,,,4,,,,67,108
112616,note_on,,,,,94,0,6,,,,,5,,,,60,0
112618,note_on,,,,,2,0,6,,,,,5,,,,67,108
112658,note_on,,,,,336,0,7,,,,,6,,,,63,0
112660,note_on,,,,,144,0,1,,,,,0,,,,75,0
112663,note_on,,,,,528,0,2,,,,,1,,,,67,0
112663,note_on,,,,,0,0,2,,,,,1,,,,63,0
112676,note_on,,,,,16,0,1,,,,,0,,,,84,0
112678,note_on,,,,,160,0,9,,,,,8,,,,44,0
112680,note_on,,,,,160,0,8,,,,,7,,,,56,0
112702,note_on,,,,,94,0,5,,,,,4,,,,67,0
112704,note_on,,,,,2,0,5,,,,,4,,,,65,108
112706,note_on,,,,,48,0,7,,,,,6,,,,62,108
112708,note_on,,,,,32,0,1,,,,,0,,,,72,108
112708,note_on,,,,,0,0,1,,,,,0,,,,75,108
112710,note_on,,,,,32,0,9,,,,,8,,,,45,108
112711,note_on,,,,,0,0,2,,,,,1,,,,65,108
112711,note_on,,,,,48,0,2,,,,,1,,,,63,108
112712,note_on,,,,,94,0,6,,,,,5,,,,67,0
112712,note_on,,,,,32,0,8,,,,,7,,,,57,108
112714,note_on,,,,,2,0,6,,,,,5,,,,65,108
112798,note_on,,,,,94,0,5,,,,,4,,,,65,0
112800,note_on,,,,,94,0,7,,,,,6,,,,62,0
112800,note_on,,,,,2,0,5,,,,,4,,,,63,108
112802,note_on,,,,,2,0,7,,,,,6,,,,60,108
112808,note_on,,,,,94,0,6,,,,,5,,,,65,0
112810,note_on,,,,,2,0,6,,,,,5,,,,63,108
112868,note_on,,,,,160,0,1,,,,,0,,,,75,0
112868,note_on,,,,,0,0,1,,,,,0,,,,72,0
112870,note_on,,,,,160,0,9,,,,,8,,,,45,0
112871,note_on,,,,,160,0,2,,,,,1,,,,65,0
112871,note_on,,,,,0,0,2,,,,,1,,,,63,0
112872,note_on,,,,,160,0,8,,,,,7,,,,57,0
112894,note_on,,,,,94,0,5,,,,,4,,,,63,0
112896,note_on,,,,,2,0,5,,,,,4,,,,62,108
112896,note_on,,,,,94,0,7,,,,,6,,,,60,0
112898,note_on,,,,,2,0,7,,,,,6,,,,58,108
112900,note_on,,,,,32,0,1,,,,,0,,,,70,108
112900,note_on,,,,,0,0,1,,,,,0,,,,74,108
112902,note_on,,,,,32,0,9,,,,,8,,,,46,108
112903,note_on,,,,,0,0,2,,,,,1,,,,65,108
112903,note_on,,,,,32,0,2,,,,,1,,,,58,108
112904,note_on,,,,,94,0,6,,,,,5,,,,63,0
112904,note_on,,,,,32,0,8,,,,,7,,,,58,108
112906,note_on,,,,,2,0,6,,,,,5,,,,62,108
112990,note_on,,,,,94,0,5,,,,,4,,,,62,0
112992,note_on,,,,,2,0,5,,,,,4,,,,63,108
113000,note_on,,,,,94,0,6,,,,,5,,,,62,0
113002,note_on,,,,,2,0,6,,,,,5,,,,63,108
113058,note_on,,,,,160,0,7,,,,,6,,,,58,0
113062,note_on,,,,,160,0,9,,,,,8,,,,46,0
113064,note_on,,,,,160,0,8,,,,,7,,,,58,0
113086,note_on,,,,,94,0,5,,,,,4,,,,63,0
113088,note_on,,,,,2,0,5,,,,,4,,,,65,108
113090,note_on,,,,,32,0,7,,,,,6,,,,62,108
113094,note_on,,,,,32,0,9,,,,,8,,,,44,108
113096,note_on,,,,,32,0,8,,,,,7,,,,56,108
113096,note_on,,,,,94,0,6,,,,,5,,,,63,0
113098,note_on,,,,,2,0,6,,,,,5,,,,65,108
113182,note_on,,,,,94,0,5,,,,,4,,,,65,0
113184,note_on,,,,,2,0,5,,,,,4,,,,62,108
113192,note_on,,,,,94,0,6,,,,,5,,,,65,0
113194,note_on,,,,,2,0,6,,,,,5,,,,62,108
113236,note_on,,,,,336,0,1,,,,,0,,,,74,0
113254,note_on,,,,,160,0,9,,,,,8,,,,44,0
113256,note_on,,,,,160,0,8,,,,,7,,,,56,0
113278,note_on,,,,,94,0,5,,,,,4,,,,62,0
113280,note_on,,,,,2,0,5,,,,,4,,,,58,108
113282,note_on,,,,,192,0,7,,,,,6,,,,62,0
113282,note_on,,,,,0,0,7,,,,,6,,,,63,108
113284,note_on,,,,,48,0,1,,,,,0,,,,75,108
113286,note_on,,,,,32,0,9,,,,,8,,,,43,108
113287,note_on,,,,,0,0,2,,,,,1,,,,67,108
113287,note_on,,,,,0,0,2,,,,,1,,,,58,0
113287,note_on,,,,,384,0,2,,,,,1,,,,65,0
113287,note_on,,,,,0,0,2,,,,,1,,,,58,108
113288,note_on,,,,,94,0,6,,,,,5,,,,62,0
113288,note_on,,,,,32,0,8,,,,,7,,,,55,108
113290,note_on,,,,,2,0,6,,,,,5,,,,58,108
113374,note_on,,,,,94,0,5,,,,,4,,,,58,0
113376,note_on,,,,,2,0,5,,,,,4,,,,63,108
113384,note_on,,,,,94,0,6,,,,,5,,,,58,0
113386,note_on,,,,,2,0,6,,,,,5,,,,63,108
113442,note_on,,,,,160,0,7,,,,,6,,,,63,0
113446,note_on,,,,,160,0,9,,,,,8,,,,43,0
113447,note_on,,,,,160,0,2,,,,,1,,,,67,0
113447,note_on,,,,,0,0,2,,,,,1,,,,58,0
113448,note_on,,,,,160,0,8,,,,,7,,,,55,0
113470,note_on,,,,,94,0,5,,,,,4,,,,63,0
113472,note_on,,,,,2,0,5,,,,,4,,,,62,108
113474,note_on,,,,,32,0,7,,,,,6,,,,55,108
113478,note_on,,,,,32,0,9,,,,,8,,,,39,108
113480,note_on,,,,,32,0,8,,,,,7,,,,51,108
113480,note_on,,,,,94,0,6,,,,,5,,,,63,0
113482,note_on,,,,,2,0,6,,,,,5,,,,62,108
113566,note_on,,,,,94,0,5,,,,,4,,,,62,0
113568,note_on,,,,,2,0,5,,,,,4,,,,63,108
113576,note_on,,,,,94,0,6,,,,,5,,,,62,0
113578,note_on,,,,,2,0,6,,,,,5,,,,63,108
113620,note_on,,,,,336,0,1,,,,,0,,,,70,0
113634,note_on,,,,,160,0,7,,,,,6,,,,55,0
113638,note_on,,,,,160,0,9,,,,,8,,,,39,0
113640,note_on,,,,,160,0,8,,,,,7,,,,51,0
113662,note_on,,,,,94,0,5,,,,,4,,,,63,0
113664,note_on,,,,,2,0,5,,,,,4,,,,60,108
113666,note_on,,,,,32,0,7,,,,,6,,,,51,108
113668,note_on,,,,,48,0,1,,,,,0,,,,72,108
113670,note_on,,,,,32,0,9,,,,,8,,,,32,108
113672,note_on,,,,,94,0,6,,,,,5,,,,63,0
113672,note_on,,,,,32,0,8,,,,,7,,,,44,108
113674,note_on,,,,,2,0,6,,,,,5,,,,60,108
113758,note_on,,,,,94,0,5,,,,,4,,,,60,0
113760,note_on,,,,,94,0,7,,,,,6,,,,51,0
113760,note_on,,,,,2,0,5,,,,,4,,,,65,108
113762,note_on,,,,,2,0,7,,,,,6,,,,56,108
113768,note_on,,,,,94,0,6,,,,,5,,,,60,0
113770,note_on,,,,,2,0,6,,,,,5,,,,65,108
113828,note_on,,,,,160,0,1,,,,,0,,,,75,0
113830,note_on,,,,,160,0,9,,,,,8,,,,32,0
113832,note_on,,,,,160,0,8,,,,,7,,,,44,0
113854,note_on,,,,,94,0,5,,,,,4,,,,65,0
113856,note_on,,,,,94,0,7,,,,,6,,,,56,0
113856,note_on,,,,,2,0,5,,,,,4,,,,63,108
113858,note_on,,,,,2,0,7,,,,,6,,,,55,108
113860,note_on,,,,,32,0,1,,,,,0,,,,77,108
113862,note_on,,,,,32,0,9,,,,,8,,,,29,108
113864,note_on,,,,,32,0,8,,,,,7,,,,41,108
113864,note_on,,,,,94,0,6,,,,,5,,,,65,0
113866,note_on,,,,,2,0,6,,,,,5,,,,63,108
113950,note_on,,,,,94,0,5,,,,,4,,,,63,0
113952,note_on,,,,,94,0,7,,,,,6,,,,55,0
113952,note_on,,,,,2,0,5,,,,,4,,,,65,108
113954,note_on,,,,,2,0,7,,,,,6,,,,56,108
113960,note_on,,,,,94,0,6,,,,,5,,,,63,0
113962,note_on,,,,,2,0,6,,,,,5,,,,65,108
114004,note_on,,,,,144,0,1,,,,,0,,,,72,0
114022,note_on,,,,,160,0,9,,,,,8,,,,29,0
114024,note_on,,,,,160,0,8,,,,,7,,,,41,0
114046,note_on,,,,,94,0,5,,,,,4,,,,65,0
114048,note_on,,,,,94,0,7,,,,,6,,,,56,0
114048,note_on,,,,,2,0,5,,,,,4,,,,62,108
114050,note_on,,,,,2,0,7,,,,,6,,,,53,108
114052,note_on,,,,,48,0,1,,,,,0,,,,74,108
114054,note_on,,,,,32,0,9,,,,,8,,,,34,108
114056,note_on,,,,,32,0,8,,,,,7,,,,46,108
114056,note_on,,,,,94,0,6,,,,,5,,,,65,0
114058,note_on,,,,,2,0,6,,,,,5,,,,62,108
114142,note_on,,,,,94,0,5,,,,,4,,,,62,0
114144,note_on,,,,,94,0,7,,,,,6,,,,53,0
114144,note_on,,,,,2,0,5,,,,,4,,,,67,108
114146,note_on,,,,,2,0,7,,,,,6,,,,58,108
114152,note_on,,,,,94,0,6,,,,,5,,,,62,0
114154,note_on,,,,,2,0,6,,,,,5,,,,67,108
114212,note_on,,,,,160,0,1,,,,,0,,,,77,0
114214,note_on,,,,,160,0,9,,,,,8,,,,34,0
114216,note_on,,,,,160,0,8,,,,,7,,,,46,0
114238,note_on,,,,,94,0,5,,,,,4,,,,67,0
114240,note_on,,,,,94,0,7,,,,,6,,,,58,0
114240,note_on,,,,,2,0,5,,,,,4,,,,65,108
114242,note_on,,,,,2,0,7,,,,,6,,,,56,108
114244,note_on,,,,,32,0,1,,,,,0,,,,79,108
114246,note_on,,,,,32,0,9,,,,,8,,,,31,108
114248,note_on,,,,,32,0,8,,,,,7,,,,43,108
114248,note_on,,,,,94,0,6,,,,,5,,,,67,0
114250,note_on,,,,,2,0,6,,,,,5,,,,65,108
114334,note_on,,,,,94,0,5,,,,,4,,,,65,0
114336,note_on,,,,,94,0,7,,,,,6,,,,56,0
114336,note_on,,,,,2,0,5,,,,,4,,,,67,108
114338,note_on,,,,,2,0,7,,,,,6,,,,58,108
114344,note_on,,,,,94,0,6,,,,,5,,,,65,0
114346,note_on,,,,,2,0,6,,,,,5,,,,67,108
114404,note_on,,,,,160,0,1,,,,,0,,,,74,0
114406,note_on,,,,,160,0,9,,,,,8,,,,31,0
114408,note_on,,,,,160,0,8,,,,,7,,,,43,0
114430,note_on,,,,,94,0,5,,,,,4,,,,67,0
114432,note_on,,,,,94,0,7,,,,,6,,,,58,0
114432,note_on,,,,,2,0,5,,,,,4,,,,63,108
114434,note_on,,,,,2,0,7,,,,,6,,,,55,108
114436,note_on,,,,,32,0,1,,,,,0,,,,75,108
114438,note_on,,,,,32,0,9,,,,,8,,,,36,108
114440,note_on,,,,,94,0,6,,,,,5,,,,67,0
114440,note_on,,,,,32,0,8,,,,,7,,,,48,108
114442,note_on,,,,,2,0,6,,,,,5,,,,63,108
114526,note_on,,,,,94,0,5,,,,,4,,,,63,0
114528,note_on,,,,,94,0,7,,,,,6,,,,55,0
114528,note_on,,,,,2,0,5,,,,,4,,,,68,108
114530,note_on,,,,,2,0,7,,,,,6,,,,60,108
114536,note_on,,,,,94,0,6,,,,,5,,,,63,0
114538,note_on,,,,,2,0,6,,,,,5,,,,68,108
114596,note_on,,,,,160,0,1,,,,,0,,,,79,0
114622,note_on,,,,,94,0,5,,,,,4,,,,68,0
114624,note_on,,,,,2,0,5,,,,,4,,,,67,108
114624,note_on,,,,,94,0,7,,,,,6,,,,60,0
114626,note_on,,,,,2,0,7,,,,,6,,,,63,108
114628,note_on,,,,,32,0,1,,,,,0,,,,80,108
114632,note_on,,,,,94,0,6,,,,,5,,,,68,0
114634,note_on,,,,,2,0,6,,,,,5,,,,67,108
114718,note_on,,,,,94,0,5,,,,,4,,,,67,0
114720,note_on,,,,,94,0,7,,,,,6,,,,63,0
114720,note_on,,,,,2,0,5,,,,,4,,,,68,108
114722,note_on,,,,,2,0,7,,,,,6,,,,60,108
114728,note_on,,,,,94,0,6,,,,,5,,,,67,0
114730,note_on,,,,,2,0,6,,,,,5,,,,68,108
114772,note_on,,,,,144,0,1,,,,,0,,,,75,0
114774,note_on,,,,,336,0,9,,,,,8,,,,36,0
114776,note_on,,,,,336,0,8,,,,,7,,,,48,0
114814,note_on,,,,,94,0,5,,,,,4,,,,68,0
114816,note_on,,,,,2,0,5,,,,,4,,,,65,108
114816,note_on,,,,,94,0,7,,,,,6,,,,60,0
114818,note_on,,,,,2,0,7,,,,,6,,,,58,108
114820,note_on,,,,,48,0,1,,,,,0,,,,77,108
114822,note_on,,,,,48,0,9,,,,,8,,,,38,108
114824,note_on,,,,,94,0,6,,,,,5,,,,68,0
114824,note_on,,,,,48,0,8,,,,,7,,,,50,108
114826,note_on,,,,,2,0,6,,,,,5,,,,65,108
114910,note_on,,,,,94,0,5,,,,,4,,,,65,0
114912,note_on,,,,,2,0,5,,,,,4,,,,70,108
114912,note_on,,,,,94,0,7,,,,,6,,,,58,0
114914,note_on,,,,,2,0,7,,,,,6,,,,62,108
114920,note_on,,,,,94,0,6,,,,,5,,,,65,0
114922,note_on,,,,,2,0,6,,,,,5,,,,70,108
114980,note_on,,,,,160,0,1,,,,,0,,,,77,0
114980,note_on,,,,,0,0,1,,,,,0,,,,80,0
114982,note_on,,,,,160,0,9,,,,,8,,,,38,0
114984,note_on,,,,,160,0,8,,,,,7,,,,50,0
115006,note_on,,,,,94,0,5,,,,,4,,,,70,0
115008,note_on,,,,,94,0,7,,,,,6,,,,62,0
115008,note_on,,,,,2,0,5,,,,,4,,,,68,108
115010,note_on,,,,,2,0,7,,,,,6,,,,60,108
115012,note_on,,,,,32,0,1,,,,,0,,,,74,108
115012,note_on,,,,,0,0,1,,,,,0,,,,82,108
115014,note_on,,,,,32,0,9,,,,,8,,,,34,108
115015,note_on,,,,,1568,0,2,,,,,1,,,,58,108
115015,note_on,,,,,0,0,2,,,,,1,,,,65,108
115016,note_on,,,,,32,0,8,,,,,7,,,,46,108
115016,note_on,,,,,94,0,6,,,,,5,,,,70,0
115018,note_on,,,,,2,0,6,,,,,5,,,,68,108
115102,note_on,,,,,94,0,5,,,,,4,,,,68,0
115104,note_on,,,,,94,0,7,,,,,6,,,,60,0
115104,note_on,,,,,2,0,5,,,,,4,,,,70,108
115106,note_on,,,,,2,0,7,,,,,6,,,,62,108
115112,note_on,,,,,94,0,6,,,,,5,,,,68,0
115114,note_on,,,,,2,0,6,,,,,5,,,,70,108
115172,note_on,,,,,160,0,1,,,,,0,,,,74,0
115174,note_on,,,,,160,0,9,,,,,8,,,,34,0
115175,note_on,,,,,160,0,2,,,,,1,,,,65,0
115176,note_on,,,,,160,0,8,,,,,7,,,,46,0
115198,note_on,,,,,94,0,5,,,,,4,,,,70,0
115200,note_on,,,,,2,0,5,,,,,4,,,,67,108
115200,note_on,,,,,94,0,7,,,,,6,,,,62,0
115202,note_on,,,,,2,0,7,,,,,6,,,,63,108
115204,note_on,,,,,32,0,1,,,,,0,,,,79,108
115206,note_on,,,,,32,0,9,,,,,8,,,,39,108
115207,note_on,,,,,32,0,2,,,,,1,,,,67,108
115208,note_on,,,,,94,0,6,,,,,5,,,,70,0
115208,note_on,,,,,32,0,8,,,,,7,,,,51,108
115210,note_on,,,,,2,0,6,,,,,5,,,,67,108
115294,note_on,,,,,94,0,5,,,,,4,,,,67,0
115296,note_on,,,,,94,0,7,,,,,6,,,,63,0
115296,note_on,,,,,2,0,5,,,,,4,,,,75,108
115298,note_on,,,,,2,0,7,,,,,6,,,,67,108
115304,note_on,,,,,94,0,6,,,,,5,,,,67,0
115306,note_on,,,,,2,0,6,,,,,5,,,,75,108
115364,note_on,,,,,0,0,1,,,,,0,,,,82,0
115364,note_on,,,,,160,0,1,,,,,0,,,,79,0
115366,note_on,,,,,160,0,9,,,,,8,,,,39,0
115367,note_on,,,,,160,0,2,,,,,1,,,,67,0
115367,note_on,,,,,0,0,2,,,,,1,,,,58,0
115368,note_on,,,,,160,0,8,,,,,7,,,,51,0
115390,note_on,,,,,94,0,5,,,,,4,,,,75,0
115392,note_on,,,,,2,0,5,,,,,4,,,,72,108
115392,note_on,,,,,94,0,7,,,,,6,,,,67,0
115394,note_on,,,,,2,0,7,,,,,6,,,,68,108
115396,note_on,,,,,0,0,1,,,,,0,,,,80,108
115396,note_on,,,,,32,0,1,,,,,0,,,,77,108
115398,note_on,,,,,32,0,9,,,,,8,,,,44,108
115399,note_on,,,,,0,0,2,,,,,1,,,,68,108
115399,note_on,,,,,32,0,2,,,,,1,,,,65,108
115400,note_on,,,,,32,0,8,,,,,7,,,,56,108
115400,note_on,,,,,94,0,6,,,,,5,,,,75,0
115402,note_on,,,,,2,0,6,,,,,5,,,,72,108
115486,note_on,,,,,94,0,5,,,,,4,,,,72,0
115488,note_on,,,,,2,0,5,,,,,4,,,,68,108
115488,note_on,,,,,94,0,7,,,,,6,,,,68,0
115490,note_on,,,,,2,0,7,,,,,6,,,,65,108
115496,note_on,,,,,94,0,6,,,,,5,,,,72,0
115498,note_on,,,,,2,0,6,,,,,5,,,,68,108
115556,note_on,,,,,160,0,1,,,,,0,,,,80,0
115556,note_on,,,,,0,0,1,,,,,0,,,,77,0
115558,note_on,,,,,160,0,9,,,,,8,,,,44,0
115559,note_on,,,,,160,0,2,,,,,1,,,,68,0
115559,note_on,,,,,0,0,2,,,,,1,,,,65,0
115560,note_on,,,,,160,0,8,,,,,7,,,,56,0
115582,note_on,,,,,94,0,5,,,,,4,,,,68,0
115584,note_on,,,,,94,0,7,,,,,6,,,,65,0
115584,note_on,,,,,2,0,5,,,,,4,,,,67,108
115586,note_on,,,,,2,0,7,,,,,6,,,,63,108
115588,note_on,,,,,32,0,1,,,,,0,,,,75,108
115588,note_on,,,,,0,0,1,,,,,0,,,,79,108
115590,note_on,,,,,32,0,9,,,,,8,,,,46,108
115591,note_on,,,,,32,0,2,,,,,1,,,,63,108
115591,note_on,,,,,0,0,2,,,,,1,,,,67,108
115592,note_on,,,,,32,0,8,,,,,7,,,,58,108
115592,note_on,,,,,94,0,6,,,,,5,,,,68,0
115594,note_on,,,,,2,0,6,,,,,5,,,,67,108
115678,note_on,,,,,94,0,5,,,,,4,,,,67,0
115680,note_on,,,,,2,0,5,,,,,4,,,,75,108
115680,note_on,,,,,94,0,7,,,,,6,,,,63,0
115682,note_on,,,,,2,0,7,,,,,6,,,,67,108
115688,note_on,,,,,94,0,6,,,,,5,,,,67,0
115690,note_on,,,,,2,0,6,,,,,5,,,,75,108
115748,note_on,,,,,160,0,1,,,,,0,,,,79,0
115748,note_on,,,,,0,0,1,,,,,0,,,,75,0
115750,note_on,,,,,160,0,9,,,,,8,,,,46,0
115751,note_on,,,,,0,0,2,,,,,1,,,,63,0
115751,note_on,,,,,160,0,2,,,,,1,,,,67,0
115752,note_on,,,,,160,0,8,,,,,7,,,,58,0
115774,note_on,,,,,94,0,5,,,,,4,,,,75,0
115776,note_on,,,,,94,0,7,,,,,6,,,,67,0
115776,note_on,,,,,2,0,5,,,,,4,,,,65,108
115778,note_on,,,,,2,0,7,,,,,6,,,,62,108
115780,note_on,,,,,32,0,1,,,,,0,,,,74,108
115780,note_on,,,,,0,0,1,,,,,0,,,,77,108
115782,note_on,,,,,32,0,9,,,,,8,,,,34,108
115783,note_on,,,,,32,0,2,,,,,1,,,,58,108
115783,note_on,,,,,0,0,2,,,,,1,,,,65,108
115784,note_on,,,,,94,0,6,,,,,5,,,,75,0
115784,note_on,,,,,32,0,8,,,,,7,,,,46,108
115786,note_on,,,,,2,0,6,,,,,5,,,,65,108
115870,note_on,,,,,94,0,5,,,,,4,,,,65,0
115872,note_on,,,,,94,0,7,,,,,6,,,,62,0
115872,note_on,,,,,2,0,5,,,,,4,,,,74,108
115874,note_on,,,,,2,0,7,,,,,6,,,,65,108
115880,note_on,,,,,94,0,6,,,,,5,,,,65,0
115882,note_on,,,,,2,0,6,,,,,5,,,,74,108
115940,note_on,,,,,160,0,1,,,,,0,,,,77,0
115940,note_on,,,,,0,0,1,,,,,0,,,,74,0
115942,note_on,,,,,160,0,9,,,,,8,,,,34,0
115943,note_on,,,,,0,0,2,,,,,1,,,,58,0
115943,note_on,,,,,160,0,2,,,,,1,,,,65,0
115944,note_on,,,,,160,0,8,,,,,7,,,,46,0
115966,note_on,,,,,94,0,5,,,,,4,,,,74,0
115968,note_on,,,,,94,0,7,,,,,6,,,,65,0
115968,note_on,,,,,0,0,5,,,,,4,,,,63,108
115968,note_on,,,,,2,0,5,,,,,4,,,,55,108
115970,note_on,,,,,2,0,7,,,,,6,,,,63,108
115972,note_on,,,,,32,0,1,,,,,0,,,,75,108
115974,note_on,,,,,32,0,9,,,,,8,,,,39,108
115975,note_on,,,,,0,0,2,,,,,1,,,,63,108
115975,note_on,,,,,32,0,2,,,,,1,,,,55,108
115976,note_on,,,,,94,0,6,,,,,5,,,,74,0
115976,note_on,,,,,32,0,8,,,,,7,,,,51,108
115978,note_on,,,,,2,0,6,,,,,5,,,,55,108
115978,note_on,,,,,0,0,6,,,,,5,,,,63,108
116128,note_on,,,,,0,0,5,,,,,4,,,,55,0
116128,note_on,,,,,160,0,5,,,,,4,,,,63,0
116130,note_on,,,,,160,0,7,,,,,6,,,,63,0
116132,note_on,,,,,160,0,1,,,,,0,,,,75,0
116134,note_on,,,,,160,0,9,,,,,8,,,,39,0
116135,note_on,,,,,160,0,2,,,,,1,,,,63,0
116135,note_on,,,,,0,0,2,,,,,1,,,,55,0
116136,note_on,,,,,160,0,8,,,,,7,,,,51,0
116138,note_on,,,,,0,0,6,,,,,5,,,,55,0
116138,note_on,,,,,160,0,6,,,,,5,,,,63,0
116160,note_on,,,,,32,0,5,,,,,4,,,,79,108
116162,note_on,,,,,32,0,7,,,,,6,,,,70,108
116166,note_on,,,,,32,0,9,,,,,8,,,,51,108
116168,note_on,,,,,32,0,8,,,,,7,,,,63,108
116170,note_on,,,,,32,0,6,,,,,5,,,,79,108
116254,note_on,,,,,94,0,5,,,,,4,,,,79,0
116256,note_on,,,,,94,0,7,,,,,6,,,,70,0
116256,note_on,,,,,2,0,5,,,,,4,,,,79,108
116258,note_on,,,,,2,0,7,,,,,6,,,,70,108
116260,note_on,,,,,94,0,9,,,,,8,,,,51,0
116262,note_on,,,,,2,0,9,,,,,8,,,,51,108
116262,note_on,,,,,94,0,8,,,,,7,,,,63,0
116264,note_on,,,,,94,0,6,,,,,5,,,,79,0
116264,note_on,,,,,2,0,8,,,,,7,,,,63,108
116266,note_on,,,,,2,0,6,,,,,5,,,,79,108
116350,note_on,,,,,94,0,5,,,,,4,,,,79,0
116352,note_on,,,,,2,0,5,,,,,4,,,,79,108
116352,note_on,,,,,94,0,7,,,,,6,,,,70,0
116354,note_on,,,,,2,0,7,,,,,6,,,,70,108
116356,note_on,,,,,94,0,9,,,,,8,,,,51,0
116358,note_on,,,,,94,0,8,,,,,7,,,,63,0
116358,note_on,,,,,2,0,9,,,,,8,,,,51,108
116360,note_on,,,,,2,0,8,,,,,7,,,,63,108
116360,note_on,,,,,94,0,6,,,,,5,,,,79,0
116362,note_on,,,,,2,0,6,,,,,5,,,,79,108
116512,note_on,,,,,160,0,5,,,,,4,,,,79,0
116514,note_on,,,,,160,0,7,,,,,6,,,,70,0
116518,note_on,,,,,160,0,9,,,,,8,,,,51,0
116520,note_on,,,,,160,0,8,,,,,7,,,,63,0
116522,note_on,,,,,160,0,6,,,,,5,,,,79,0
116544,note_on,,,,,32,0,5,,,,,4,,,,83,108
116546,note_on,,,,,32,0,7,,,,,6,,,,67,108
116550,note_on,,,,,32,0,9,,,,,8,,,,50,108
116552,note_on,,,,,32,0,8,,,,,7,,,,62,108
116554,note_on,,,,,32,0,6,,,,,5,,,,77,108
116704,note_on,,,,,160,0,5,,,,,4,,,,83,0
116706,note_on,,,,,160,0,7,,,,,6,,,,67,0
116710,note_on,,,,,160,0,9,,,,,8,,,,50,0
116712,note_on,,,,,160,0,8,,,,,7,,,,62,0
116714,note_on,,,,,160,0,6,,,,,5,,,,77,0
116736,note_on,,,,,32,0,5,,,,,4,,,,84,108
116738,note_on,,,,,32,0,7,,,,,6,,,,67,108
116742,note_on,,,,,32,0,9,,,,,8,,,,48,108
116744,note_on,,,,,32,0,8,,,,,7,,,,60,108
116746,note_on,,,,,32,0,6,,,,,5,,,,75,108
116896,note_on,,,,,160,0,5,,,,,4,,,,84,0
116898,note_on,,,,,160,0,7,,,,,6,,,,67,0
116902,note_on,,,,,160,0,9,,,,,8,,,,48,0
116904,note_on,,,,,160,0,8,,,,,7,,,,60,0
116906,note_on,,,,,160,0,6,,,,,5,,,,75,0
116930,note_on,,,,,0,0,3,,,,,2,,,,79,127
116930,note_on,,,,,0,0,3,,,,,2,,,,75,127
116930,note_on,,,,,0,0,3,,,,,2,,,,72,127
116930,note_on,,,,,6752,0,3,,,,,2,,,,67,127
117122,note_on,,,,,0,0,3,,,,,2,,,,72,0
117122,note_on,,,,,0,0,3,,,,,2,,,,67,0
117122,note_on,,,,,192,0,3,,,,,2,,,,75,0
117126,note_on,,,,,6752,0,4,,,,,3,,,,60,127
117126,note_on,,,,,0,0,4,,,,,3,,,,63,127
117312,set_tempo,,,,,7488,1,0,,260870,,,,,,,,
117314,note_on,,,,,192,0,3,,,,,2,,,,79,0
117314,note_on,,,,,0,0,3,,,,,2,,,,77,127
117362,note_on,,,,,48,0,3,,,,,2,,,,77,0
117362,note_on,,,,,0,0,3,,,,,2,,,,75,127
117410,note_on,,,,,48,0,3,,,,,2,,,,75,0
117410,note_on,,,,,0,0,3,,,,,2,,,,74,127
117458,note_on,,,,,48,0,3,,,,,2,,,,74,0
117458,note_on,,,,,0,0,3,,,,,2,,,,72,127
117462,note_on,,,,,0,0,4,,,,,3,,,,60,0
117462,note_on,,,,,336,0,4,,,,,3,,,,63,0
117504,set_tempo,,,,,192,1,0,,300000,,,,,,,,
117506,note_on,,,,,48,0,3,,,,,2,,,,72,0
117506,note_on,,,,,0,0,3,,,,,2,,,,71,127
117510,note_on,,,,,0,0,4,,,,,3,,,,65,127
117510,note_on,,,,,48,0,4,,,,,3,,,,62,127
117666,note_on,,,,,160,0,3,,,,,2,,,,71,0
117670,note_on,,,,,160,0,4,,,,,3,,,,65,0
117670,note_on,,,,,0,0,4,,,,,3,,,,62,0
117696,note_on,,,,,800,0,5,,,,,4,,,,83,108
117698,note_on,,,,,800,0,7,,,,,6,,,,67,108
117702,note_on,,,,,800,0,9,,,,,8,,,,50,108
117704,note_on,,,,,800,0,8,,,,,7,,,,62,108
117706,note_on,,,,,800,0,6,,,,,5,,,,77,108
117790,note_on,,,,,94,0,5,,,,,4,,,,83,0
117792,note_on,,,,,2,0,5,,,,,4,,,,83,108
117792,note_on,,,,,94,0,7,,,,,6,,,,67,0
117794,note_on,,,,,2,0,7,,,,,6,,,,67,108
117796,note_on,,,,,94,0,9,,,,,8,,,,50,0
117798,note_on,,,,,2,0,9,,,,,8,,,,50,108
117798,note_on,,,,,94,0,8,,,,,7,,,,62,0
117800,note_on,,,,,2,0,8,,,,,7,,,,62,108
117800,note_on,,,,,94,0,6,,,,,5,,,,77,0
117802,note_on,,,,,2,0,6,,,,,5,,,,77,108
117886,note_on,,,,,94,0,5,,,,,4,,,,83,0
117888,note_on,,,,,94,0,7,,,,,6,,,,67,0
117888,note_on,,,,,2,0,5,,,,,4,,,,83,108
117890,note_on,,,,,2,0,7,,,,,6,,,,67,108
117892,note_on,,,,,94,0,9,,,,,8,,,,50,0
117894,note_on,,,,,2,0,9,,,,,8,,,,50,108
117894,note_on,,,,,94,0,8,,,,,7,,,,62,0
117896,note_on,,,,,94,0,6,,,,,5,,,,77,0
117896,note_on,,,,,2,0,8,,,,,7,,,,62,108
117898,note_on,,,,,2,0,6,,,,,5,,,,77,108
118048,note_on,,,,,160,0,5,,,,,4,,,,83,0
118050,note_on,,,,,160,0,7,,,,,6,,,,67,0
118054,note_on,,,,,160,0,9,,,,,8,,,,50,0
118056,note_on,,,,,160,0,8,,,,,7,,,,62,0
118058,note_on,,,,,160,0,6,,,,,5,,,,77,0
118080,note_on,,,,,32,0,5,,,,,4,,,,84,108
118082,note_on,,,,,32,0,7,,,,,6,,,,67,108
118086,note_on,,,,,32,0,9,,,,,8,,,,48,108
118088,note_on,,,,,32,0,8,,,,,7,,,,60,108
118090,note_on,,,,,32,0,6,,,,,5,,,,75,108
118240,note_on,,,,,160,0,5,,,,,4,,,,84,0
118242,note_on,,,,,160,0,7,,,,,6,,,,67,0
118246,note_on,,,,,160,0,9,,,,,8,,,,48,0
118248,note_on,,,,,160,0,8,,,,,7,,,,60,0
118250,note_on,,,,,160,0,6,,,,,5,,,,75,0
118272,note_on,,,,,32,0,5,,,,,4,,,,86,108
118274,note_on,,,,,32,0,7,,,,,6,,,,67,108
118278,note_on,,,,,32,0,9,,,,,8,,,,47,108
118280,note_on,,,,,32,0,8,,,,,7,,,,59,108
118282,note_on,,,,,32,0,6,,,,,5,,,,74,108
118432,note_on,,,,,160,0,5,,,,,4,,,,86,0
118434,note_on,,,,,160,0,7,,,,,6,,,,67,0
118438,note_on,,,,,160,0,9,,,,,8,,,,47,0
118440,note_on,,,,,160,0,8,,,,,7,,,,59,0
118442,note_on,,,,,160,0,6,,,,,5,,,,74,0
118466,note_on,,,,,0,0,3,,,,,2,,,,74,127
118466,note_on,,,,,0,0,3,,,,,2,,,,71,127
118466,note_on,,,,,800,0,3,,,,,2,,,,67,127
118466,note_on,,,,,0,0,3,,,,,2,,,,77,127
118658,note_on,,,,,0,0,3,,,,,2,,,,71,0
118658,note_on,,,,,192,0,3,,,,,2,,,,74,0
118658,note_on,,,,,0,0,3,,,,,2,,,,67,0
118662,note_on,,,,,992,0,4,,,,,3,,,,55,127
118662,note_on,,,,,0,0,4,,,,,3,,,,59,127
118662,note_on,,,,,0,0,4,,,,,3,,,,62,127
118848,set_tempo,,,,,1344,1,0,,260870,,,,,,,,
118850,note_on,,,,,0,0,3,,,,,2,,,,79,127
118850,note_on,,,,,192,0,3,,,,,2,,,,77,0
118898,note_on,,,,,0,0,3,,,,,2,,,,77,127
118898,note_on,,,,,48,0,3,,,,,2,,,,79,0
118946,note_on,,,,,0,0,3,,,,,2,,,,75,127
118946,note_on,,,,,48,0,3,,,,,2,,,,77,0
118994,note_on,,,,,48,0,3,,,,,2,,,,75,0
118994,note_on,,,,,0,0,3,,,,,2,,,,74,127
118998,note_on,,,,,0,0,4,,,,,3,,,,55,0
118998,note_on,,,,,336,0,4,,,,,3,,,,62,0
118998,note_on,,,,,0,0,4,,,,,3,,,,59,0
119040,set_tempo,,,,,192,1,0,,292683,,,,,,,,
119042,note_on,,,,,48,0,3,,,,,2,,,,74,0
119042,note_on,,,,,0,0,3,,,,,2,,,,75,127
119046,note_on,,,,,48,0,4,,,,,3,,,,60,92
119202,note_on,,,,,160,0,3,,,,,2,,,,75,0
119206,note_on,,,,,160,0,4,,,,,3,,,,60,0
119232,note_on,,,,,800,0,5,,,,,4,,,,79,45
119238,note_on,,,,,32,0,4,,,,,3,,,,70,92
119242,note_on,,,,,800,0,6,,,,,5,,,,76,45
119298,note_on,,,,,96,0,3,,,,,2,,,,76,108
119362,note_on,,,,,64,0,3,,,,,2,,,,76,0
119362,note_on,,,,,0,0,3,,,,,2,,,,72,108
119398,note_on,,,,,160,0,4,,,,,3,,,,70,0
119424,note_on,,,,,62,0,3,,,,,2,,,,72,0
119424,note_on,,,,,192,0,5,,,,,4,,,,79,0
119424,note_on,,,,,0,0,5,,,,,4,,,,80,45
119430,note_on,,,,,32,0,4,,,,,3,,,,68,92
119434,note_on,,,,,0,0,6,,,,,5,,,,77,45
119434,note_on,,,,,192,0,6,,,,,5,,,,76,0
119490,note_on,,,,,66,0,3,,,,,2,,,,77,108
119554,note_on,,,,,0,0,3,,,,,2,,,,72,108
119554,note_on,,,,,64,0,3,,,,,2,,,,77,0
119590,note_on,,,,,160,0,4,,,,,3,,,,68,0
119616,note_on,,,,,192,0,5,,,,,4,,,,80,0
119616,note_on,,,,,0,0,5,,,,,4,,,,82,45
119616,note_on,,,,,62,0,3,,,,,2,,,,72,0
119622,note_on,,,,,32,0,4,,,,,3,,,,67,92
119626,note_on,,,,,192,0,6,,,,,5,,,,77,0
119626,note_on,,,,,0,0,6,,,,,5,,,,79,45
119682,note_on,,,,,66,0,3,,,,,2,,,,79,108
119746,note_on,,,,,64,0,3,,,,,2,,,,79,0
119746,note_on,,,,,0,0,3,,,,,2,,,,72,108
119776,note_on,,,,,160,0,5,,,,,4,,,,82,0
119782,note_on,,,,,160,0,4,,,,,3,,,,67,0
119786,note_on,,,,,160,0,6,,,,,5,,,,79,0
119808,note_on,,,,,32,0,5,,,,,4,,,,84,45
119808,set_tempo,,,,,768,1,0,,272727,,,,,,,,
119810,note_on,,,,,0,0,3,,,,,2,,,,80,92
119810,note_on,,,,,64,0,3,,,,,2,,,,72,0
119814,note_on,,,,,32,0,4,,,,,3,,,,41,75
119814,note_on,,,,,0,0,4,,,,,3,,,,53,75
119818,note_on,,,,,32,0,6,,,,,5,,,,80,45
119874,note_on,,,,,64,0,3,,,,,2,,,,80,0
119874,note_on,,,,,0,0,3,,,,,2,,,,82,92
119938,note_on,,,,,64,0,3,,,,,2,,,,82,0
119938,note_on,,,,,0,0,3,,,,,2,,,,84,92
119968,note_on,,,,,160,0,5,,,,,4,,,,84,0
119978,note_on,,,,,160,0,6,,,,,5,,,,80,0
120002,note_on,,,,,1568,0,7,,,,,6,,,,72,45
120002,note_on,,,,,0,0,3,,,,,2,,,,82,92
120002,note_on,,,,,64,0,3,,,,,2,,,,84,0
120006,note_on,,,,,1568,0,9,,,,,8,,,,41,45
120008,note_on,,,,,1568,0,8,,,,,7,,,,53,45
120066,note_on,,,,,0,0,3,,,,,2,,,,80,92
120066,note_on,,,,,64,0,3,,,,,2,,,,82,0
120130,note_on,,,,,0,0,3,,,,,2,,,,79,92
120130,note_on,,,,,64,0,3,,,,,2,,,,80,0
120150,note_on,,,,,336,0,4,,,,,3,,,,53,0
120150,note_on,,,,,0,0,4,,,,,3,,,,41,0
120194,note_on,,,,,192,0,7,,,,,6,,,,72,0
120194,note_on,,,,,0,0,7,,,,,6,,,,60,45
120194,note_on,,,,,0,0,3,,,,,2,,,,77,92
120194,note_on,,,,,64,0,3,,,,,2,,,,79,0
120198,note_on,,,,,0,0,4,,,,,3,,,,56,75
120198,note_on,,,,,48,0,4,,,,,3,,,,44,75
120198,note_on,,,,,0,0,9,,,,,8,,,,44,45
120198,note_on,,,,,192,0,9,,,,,8,,,,41,0
120200,note_on,,,,,0,0,8,,,,,7,,,,56,45
120200,note_on,,,,,192,0,8,,,,,7,,,,53,0
120258,note_on,,,,,64,0,3,,,,,2,,,,77,0
120258,note_on,,,,,0,0,3,,,,,2,,,,79,92
120322,note_on,,,,,0,0,3,,,,,2,,,,80,92
120322,note_on,,,,,64,0,3,,,,,2,,,,79,0
120386,note_on,,,,,0,0,7,,,,,6,,,,68,45
120386,note_on,,,,,0,0,3,,,,,2,,,,79,92
120386,note_on,,,,,64,0,3,,,,,2,,,,80,0
120386,note_on,,,,,192,0,7,,,,,6,,,,60,0
120390,note_on,,,,,192,0,9,,,,,8,,,,44,0
120390,note_on,,,,,0,0,9,,,,,8,,,,41,45
120392,note_on,,,,,192,0,8,,,,,7,,,,56,0
120392,note_on,,,,,0,0,8,,,,,7,,,,53,45
120450,note_on,,,,,0,0,3,,,,,2,,,,77,92
120450,note_on,,,,,64,0,3,,,,,2,,,,79,0
120514,note_on,,,,,64,0,3,,,,,2,,,,77,0
120514,note_on,,,,,0,0,3,,,,,2,,,,75,92
120534,note_on,,,,,336,0,4,,,,,3,,,,56,0
120534,note_on,,,,,0,0,4,,,,,3,,,,44,0
120546,note_on,,,,,160,0,7,,,,,6,,,,68,0
120550,note_on,,,,,160,0,9,,,,,8,,,,41,0
120552,note_on,,,,,160,0,8,,,,,7,,,,53,0
120576,set_tempo,,,,,768,1,0,,292683,,,,,,,,
120576,note_on,,,,,62,0,3,,,,,2,,,,75,0
120578,note_on,,,,,32,0,7,,,,,6,,,,65,45
120582,note_on,,,,,32,0,9,,,,,8,,,,46,45
120582,note_on,,,,,48,0,4,,,,,3,,,,46,92
120582,note_on,,,,,0,0,4,,,,,3,,,,58,92
120584,note_on,,,,,32,0,8,,,,,7,,,,58,45
120642,note_on,,,,,66,0,3,,,,,2,,,,74,108
120706,note_on,,,,,64,0,3,,,,,2,,,,74,0
120706,note_on,,,,,0,0,3,,,,,2,,,,70,108
120738,note_on,,,,,160,0,7,,,,,6,,,,65,0
120742,note_on,,,,,160,0,4,,,,,3,,,,58,0
120742,note_on,,,,,0,0,4,,,,,3,,,,46,0
120742,note_on,,,,,160,0,9,,,,,8,,,,46,0
120744,note_on,,,,,160,0,8,,,,,7,,,,58,0
120768,note_on,,,,,800,0,5,,,,,4,,,,77,45
120768,note_on,,,,,62,0,3,,,,,2,,,,70,0
120774,note_on,,,,,32,0,4,,,,,3,,,,68,92
120778,note_on,,,,,800,0,6,,,,,5,,,,74,45
120834,note_on,,,,,66,0,3,,,,,2,,,,74,108
120898,note_on,,,,,64,0,3,,,,,2,,,,74,0
120898,note_on,,,,,0,0,3,,,,,2,,,,70,108
120934,note_on,,,,,160,0,4,,,,,3,,,,68,0
120960,note_on,,,,,192,0,5,,,,,4,,,,77,0
120960,note_on,,,,,62,0,3,,,,,2,,,,70,0
120960,note_on,,,,,0,0,5,,,,,4,,,,79,45
120966,note_on,,,,,32,0,4,,,,,3,,,,67,92
120970,note_on,,,,,192,0,6,,,,,5,,,,74,0
120970,note_on,,,,,0,0,6,,,,,5,,,,75,45
121026,note_on,,,,,66,0,3,,,,,2,,,,75,108
121090,note_on,,,,,0,0,3,,,,,2,,,,70,108
121090,note_on,,,,,64,0,3,,,,,2,,,,75,0
121126,note_on,,,,,160,0,4,,,,,3,,,,67,0
121152,note_on,,,,,192,0,5,,,,,4,,,,79,0
121152,note_on,,,,,0,0,5,,,,,4,,,,80,45
121152,note_on,,,,,62,0,3,,,,,2,,,,70,0
121158,note_on,,,,,32,0,4,,,,,3,,,,65,92
121162,note_on,,,,,192,0,6,,,,,5,,,,75,0
121162,note_on,,,,,0,0,6,,,,,5,,,,77,45
121218,note_on,,,,,66,0,3,,,,,2,,,,77,108
121282,note_on,,,,,64,0,3,,,,,2,,,,77,0
121282,note_on,,,,,0,0,3,,,,,2,,,,70,108
121312,note_on,,,,,160,0,5,,,,,4,,,,80,0
121318,note_on,,,,,160,0,4,,,,,3,,,,65,0
121322,note_on,,,,,160,0,6,,,,,5,,,,77,0
121344,note_on,,,,,62,0,3,,,,,2,,,,70,0
121344,set_tempo,,,,,768,1,0,,272727,,,,,,,,
121344,note_on,,,,,32,0,5,,,,,4,,,,82,45
121346,note_on,,,,,2,0,3,,,,,2,,,,79,92
121350,note_on,,,,,32,0,4,,,,,3,,,,39,75
121350,note_on,,,,,0,0,4,,,,,3,,,,51,75
121354,note_on,,,,,32,0,6,,,,,5,,,,79,45
121410,note_on,,,,,64,0,3,,,,,2,,,,79,0
121410,note_on,,,,,0,0,3,,,,,2,,,,80,92
121474,note_on,,,,,64,0,3,,,,,2,,,,80,0
121474,note_on,,,,,0,0,3,,,,,2,,,,82,92
121504,note_on,,,,,160,0,5,,,,,4,,,,82,0
121514,note_on,,,,,160,0,6,,,,,5,,,,79,0
121538,note_on,,,,,64,0,3,,,,,2,,,,82,0
121538,note_on,,,,,0,0,3,,,,,2,,,,80,92
121538,note_on,,,,,800,0,7,,,,,6,,,,70,45
121542,note_on,,,,,800,0,9,,,,,8,,,,39,45
121544,note_on,,,,,800,0,8,,,,,7,,,,51,45
121602,note_on,,,,,0,0,3,,,,,2,,,,79,92
121602,note_on,,,,,64,0,3,,,,,2,,,,80,0
121666,note_on,,,,,64,0,3,,,,,2,,,,79,0
121666,note_on,,,,,0,0,3,,,,,2,,,,77,92
121686,note_on,,,,,336,0,4,,,,,3,,,,51,0
121686,note_on,,,,,0,0,4,,,,,3,,,,39,0
121730,note_on,,,,,64,0,3,,,,,2,,,,77,0
121730,note_on,,,,,192,0,7,,,,,6,,,,70,0
121730,note_on,,,,,0,0,7,,,,,6,,,,58,45
121730,note_on,,,,,0,0,3,,,,,2,,,,75,92
121734,note_on,,,,,0,0,9,,,,,8,,,,43,45
121734,note_on,,,,,192,0,9,,,,,8,,,,39,0
121734,note_on,,,,,0,0,4,,,,,3,,,,55,75
121734,note_on,,,,,48,0,4,,,,,3,,,,43,75
121736,note_on,,,,,192,0,8,,,,,7,,,,51,0
121736,note_on,,,,,0,0,8,,,,,7,,,,55,45
121794,note_on,,,,,64,0,3,,,,,2,,,,75,0
121794,note_on,,,,,0,0,3,,,,,2,,,,77,92
121858,note_on,,,,,0,0,3,,,,,2,,,,79,92
121858,note_on,,,,,64,0,3,,,,,2,,,,77,0
121922,note_on,,,,,192,0,7,,,,,6,,,,58,0
121922,note_on,,,,,0,0,7,,,,,6,,,,67,45
121922,note_on,,,,,0,0,3,,,,,2,,,,77,92
121922,note_on,,,,,64,0,3,,,,,2,,,,79,0
121926,note_on,,,,,192,0,9,,,,,8,,,,43,0
121926,note_on,,,,,0,0,9,,,,,8,,,,39,45
121928,note_on,,,,,192,0,8,,,,,7,,,,55,0
121928,note_on,,,,,0,0,8,,,,,7,,,,51,45
121986,note_on,,,,,64,0,3,,,,,2,,,,77,0
121986,note_on,,,,,0,0,3,,,,,2,,,,75,92
122050,note_on,,,,,64,0,3,,,,,2,,,,75,0
122050,note_on,,,,,0,0,3,,,,,2,,,,74,92
122070,note_on,,,,,336,0,4,,,,,3,,,,55,0
122070,note_on,,,,,0,0,4,,,,,3,,,,43,0
122082,note_on,,,,,160,0,7,,,,,6,,,,67,0
122086,note_on,,,,,160,0,9,,,,,8,,,,39,0
122088,note_on,,,,,160,0,8,,,,,7,,,,51,0
122112,note_on,,,,,62,0,3,,,,,2,,,,74,0
122112,set_tempo,,,,,768,1,0,,292683,,,,,,,,
122114,note_on,,,,,32,0,7,,,,,6,,,,63,45
122118,note_on,,,,,48,0,4,,,,,3,,,,44,92
122118,note_on,,,,,0,0,4,,,,,3,,,,56,92
122118,note_on,,,,,32,0,9,,,,,8,,,,44,45
122120,note_on,,,,,32,0,8,,,,,7,,,,56,45
122178,note_on,,,,,66,0,3,,,,,2,,,,72,108
122242,note_on,,,,,0,0,3,,,,,2,,,,68,108
122242,note_on,,,,,64,0,3,,,,,2,,,,72,0
122274,note_on,,,,,160,0,7,,,,,6,,,,63,0
122278,note_on,,,,,160,0,9,,,,,8,,,,44,0
122278,note_on,,,,,0,0,4,,,,,3,,,,44,0
122278,note_on,,,,,160,0,4,,,,,3,,,,56,0
122280,note_on,,,,,160,0,8,,,,,7,,,,56,0
122304,note_on,,,,,800,0,5,,,,,4,,,,75,45
122304,note_on,,,,,62,0,3,,,,,2,,,,68,0
122310,note_on,,,,,32,0,4,,,,,3,,,,67,92
122314,note_on,,,,,800,0,6,,,,,5,,,,72,45
122370,note_on,,,,,66,0,3,,,,,2,,,,72,108
122434,note_on,,,,,64,0,3,,,,,2,,,,72,0
122434,note_on,,,,,0,0,3,,,,,2,,,,68,108
122470,note_on,,,,,160,0,4,,,,,3,,,,67,0
122496,note_on,,,,,62,0,3,,,,,2,,,,68,0
122496,note_on,,,,,0,0,5,,,,,4,,,,77,45
122496,note_on,,,,,192,0,5,,,,,4,,,,75,0
122502,note_on,,,,,32,0,4,,,,,3,,,,65,92
122506,note_on,,,,,192,0,6,,,,,5,,,,72,0
122506,note_on,,,,,0,0,6,,,,,5,,,,74,45
122562,note_on,,,,,66,0,3,,,,,2,,,,74,108
122626,note_on,,,,,64,0,3,,,,,2,,,,74,0
122626,note_on,,,,,0,0,3,,,,,2,,,,68,108
122662,note_on,,,,,160,0,4,,,,,3,,,,65,0
122688,note_on,,,,,62,0,3,,,,,2,,,,68,0
122688,note_on,,,,,0,0,5,,,,,4,,,,79,45
122688,note_on,,,,,192,0,5,,,,,4,,,,77,0
122694,note_on,,,,,32,0,4,,,,,3,,,,63,92
122698,note_on,,,,,0,0,6,,,,,5,,,,75,45
122698,note_on,,,,,192,0,6,,,,,5,,,,74,0
122754,note_on,,,,,66,0,3,,,,,2,,,,75,108
122818,note_on,,,,,64,0,3,,,,,2,,,,75,0
122818,note_on,,,,,0,0,3,,,,,2,,,,68,108
122848,note_on,,,,,160,0,5,,,,,4,,,,79,0
122854,note_on,,,,,160,0,4,,,,,3,,,,63,0
122858,note_on,,,,,160,0,6,,,,,5,,,,75,0
122880,set_tempo,,,,,768,1,0,,272727,,,,,,,,
122880,note_on,,,,,62,0,3,,,,,2,,,,68,0
122880,note_on,,,,,32,0,5,,,,,4,,,,80,45
122882,note_on,,,,,2,0,3,,,,,2,,,,77,92
122886,note_on,,,,,32,0,4,,,,,3,,,,38,75
122886,note_on,,,,,0,0,4,,,,,3,,,,50,75
122890,note_on,,,,,32,0,6,,,,,5,,,,77,45
122946,note_on,,,,,0,0,3,,,,,2,,,,79,92
122946,note_on,,,,,64,0,3,,,,,2,,,,77,0
123010,note_on,,,,,64,0,3,,,,,2,,,,79,0
123010,note_on,,,,,0,0,3,,,,,2,,,,80,92
123040,note_on,,,,,160,0,5,,,,,4,,,,80,0
123050,note_on,,,,,160,0,6,,,,,5,,,,77,0
123074,note_on,,,,,800,0,7,,,,,6,,,,68,45
123074,note_on,,,,,64,0,3,,,,,2,,,,80,0
123074,note_on,,,,,0,0,3,,,,,2,,,,79,92
123078,note_on,,,,,800,0,9,,,,,8,,,,38,45
123080,note_on,,,,,800,0,8,,,,,7,,,,50,45
123138,note_on,,,,,64,0,3,,,,,2,,,,79,0
123138,note_on,,,,,0,0,3,,,,,2,,,,77,92
123202,note_on,,,,,64,0,3,,,,,2,,,,77,0
123202,note_on,,,,,0,0,3,,,,,2,,,,75,92
123222,note_on,,,,,336,0,4,,,,,3,,,,50,0
123222,note_on,,,,,0,0,4,,,,,3,,,,38,0
123266,note_on,,,,,192,0,7,,,,,6,,,,68,0
123266,note_on,,,,,0,0,7,,,,,6,,,,56,45
123266,note_on,,,,,64,0,3,,,,,2,,,,75,0
123266,note_on,,,,,0,0,3,,,,,2,,,,74,92
123270,note_on,,,,,48,0,4,,,,,3,,,,41,75
123270,note_on,,,,,192,0,9,,,,,8,,,,38,0
123270,note_on,,,,,0,0,4,,,,,3,,,,53,75
123270,note_on,,,,,0,0,9,,,,,8,,,,41,45
123272,note_on,,,,,192,0,8,,,,,7,,,,50,0
123272,note_on,,,,,0,0,8,,,,,7,,,,53,45
123330,note_on,,,,,64,0,3,,,,,2,,,,74,0
123330,note_on,,,,,0,0,3,,,,,2,,,,75,92
123394,note_on,,,,,0,0,3,,,,,2,,,,77,92
123394,note_on,,,,,64,0,3,,,,,2,,,,75,0
123458,note_on,,,,,192,0,7,,,,,6,,,,56,0
123458,note_on,,,,,0,0,3,,,,,2,,,,75,92
123458,note_on,,,,,64,0,3,,,,,2,,,,77,0
123458,note_on,,,,,0,0,7,,,,,6,,,,65,45
123462,note_on,,,,,192,0,9,,,,,8,,,,41,0
123462,note_on,,,,,0,0,9,,,,,8,,,,38,45
123464,note_on,,,,,0,0,8,,,,,7,,,,50,45
123464,note_on,,,,,192,0,8,,,,,7,,,,53,0
123522,note_on,,,,,0,0,3,,,,,2,,,,74,92
123522,note_on,,,,,64,0,3,,,,,2,,,,75,0
123586,note_on,,,,,0,0,3,,,,,2,,,,72,92
123586,note_on,,,,,64,0,3,,,,,2,,,,74,0
123606,note_on,,,,,336,0,4,,,,,3,,,,53,0
123606,note_on,,,,,0,0,4,,,,,3,,,,41,0
123618,note_on,,,,,160,0,7,,,,,6,,,,65,0
123622,note_on,,,,,160,0,9,,,,,8,,,,38,0
123624,note_on,,,,,160,0,8,,,,,7,,,,50,0
123648,set_tempo,,,,,768,1,0,,292683,,,,,,,,
123648,note_on,,,,,62,0,3,,,,,2,,,,72,0
123650,note_on,,,,,32,0,7,,,,,6,,,,62,45
123654,note_on,,,,,0,0,4,,,,,3,,,,55,92
123654,note_on,,,,,48,0,4,,,,,3,,,,43,92
123654,note_on,,,,,32,0,9,,,,,8,,,,43,45
123656,note_on,,,,,32,0,8,,,,,7,,,,55,45
123714,note_on,,,,,66,0,3,,,,,2,,,,71,108
123778,note_on,,,,,0,0,3,,,,,2,,,,67,108
123778,note_on,,,,,64,0,3,,,,,2,,,,71,0
123810,note_on,,,,,160,0,7,,,,,6,,,,62,0
123814,note_on,,,,,160,0,4,,,,,3,,,,55,0
123814,note_on,,,,,0,0,4,,,,,3,,,,43,0
123814,note_on,,,,,160,0,9,,,,,8,,,,43,0
123816,note_on,,,,,160,0,8,,,,,7,,,,55,0
123840,note_on,,,,,62,0,3,,,,,2,,,,67,0
123840,note_on,,,,,800,0,5,,,,,4,,,,74,45
123846,note_on,,,,,32,0,4,,,,,3,,,,65,92
123850,note_on,,,,,800,0,6,,,,,5,,,,71,45
123906,note_on,,,,,66,0,3,,,,,2,,,,71,108
123970,note_on,,,,,0,0,3,,,,,2,,,,67,108
123970,note_on,,,,,64,0,3,,,,,2,,,,71,0
124006,note_on,,,,,160,0,4,,,,,3,,,,65,0
124032,note_on,,,,,192,0,5,,,,,4,,,,74,0
124032,note_on,,,,,62,0,3,,,,,2,,,,67,0
124032,note_on,,,,,0,0,5,,,,,4,,,,75,45
124038,note_on,,,,,32,0,4,,,,,3,,,,63,92
124042,note_on,,,,,192,0,6,,,,,5,,,,71,0
124042,note_on,,,,,0,0,6,,,,,5,,,,72,45
124098,note_on,,,,,66,0,3,,,,,2,,,,72,108
124162,note_on,,,,,64,0,3,,,,,2,,,,72,0
124162,note_on,,,,,0,0,3,,,,,2,,,,67,108
124198,note_on,,,,,160,0,4,,,,,3,,,,63,0
124224,note_on,,,,,62,0,3,,,,,2,,,,67,0
124224,note_on,,,,,192,0,5,,,,,4,,,,75,0
124224,note_on,,,,,0,0,5,,,,,4,,,,77,45
124230,note_on,,,,,32,0,4,,,,,3,,,,62,92
124234,note_on,,,,,0,0,6,,,,,5,,,,74,45
124234,note_on,,,,,192,0,6,,,,,5,,,,72,0
124290,note_on,,,,,66,0,3,,,,,2,,,,74,108
124354,note_on,,,,,64,0,3,,,,,2,,,,74,0
124354,note_on,,,,,0,0,3,,,,,2,,,,67,108
124384,note_on,,,,,160,0,5,,,,,4,,,,77,0
124390,note_on,,,,,160,0,4,,,,,3,,,,62,0
124394,note_on,,,,,160,0,6,,,,,5,,,,74,0
124416,note_on,,,,,62,0,3,,,,,2,,,,67,0
124416,note_on,,,,,32,0,5,,,,,4,,,,79,45
124418,note_on,,,,,608,0,7,,,,,6,,,,60,45
124422,note_on,,,,,608,0,9,,,,,8,,,,48,45
124422,note_on,,,,,32,0,4,,,,,3,,,,60,92
124424,note_on,,,,,608,0,8,,,,,7,,,,60,45
124426,note_on,,,,,32,0,6,,,,,5,,,,75,45
124482,note_on,,,,,66,0,3,,,,,2,,,,67,108
124510,note_on,,,,,94,0,5,,,,,4,,,,79,0
124512,note_on,,,,,2,0,5,,,,,4,,,,67,45
124512,note_on,,,,,94,0,7,,,,,6,,,,60,0
124514,note_on,,,,,2,0,7,,,,,6,,,,60,45
124520,note_on,,,,,94,0,6,,,,,5,,,,75,0
124522,note_on,,,,,2,0,6,,,,,5,,,,63,45
124546,note_on,,,,,0,0,3,,,,,2,,,,72,108
124546,note_on,,,,,64,0,3,,,,,2,,,,67,0
124606,note_on,,,,,94,0,5,,,,,4,,,,67,0
124608,note_on,,,,,2,0,5,,,,,4,,,,67,45
124608,note_on,,,,,94,0,7,,,,,6,,,,60,0
124610,note_on,,,,,64,0,3,,,,,2,,,,72,0
124610,note_on,,,,,0,0,3,,,,,2,,,,75,108
124610,note_on,,,,,2,0,7,,,,,6,,,,60,45
124616,note_on,,,,,94,0,6,,,,,5,,,,63,0
124618,note_on,,,,,2,0,6,,,,,5,,,,63,45
124674,note_on,,,,,64,0,3,,,,,2,,,,75,0
124674,note_on,,,,,0,0,3,,,,,2,,,,72,108
124702,note_on,,,,,94,0,5,,,,,4,,,,67,0
124704,note_on,,,,,2,0,5,,,,,4,,,,67,45
124704,note_on,,,,,94,0,7,,,,,6,,,,60,0
124706,note_on,,,,,2,0,7,,,,,6,,,,60,45
124712,note_on,,,,,94,0,6,,,,,5,,,,63,0
124714,note_on,,,,,2,0,6,,,,,5,,,,63,45
124738,note_on,,,,,64,0,3,,,,,2,,,,72,0
124738,note_on,,,,,0,0,3,,,,,2,,,,67,108
124758,note_on,,,,,336,0,4,,,,,3,,,,60,0
124798,note_on,,,,,94,0,5,,,,,4,,,,67,0
124800,set_tempo,,,,,1152,1,0,,297030,,,,,,,,
124800,note_on,,,,,94,0,7,,,,,6,,,,60,0
124800,note_on,,,,,62,0,3,,,,,2,,,,67,0
124800,note_on,,,,,2,0,5,,,,,4,,,,67,45
124802,note_on,,,,,2,0,7,,,,,6,,,,61,45
124806,note_on,,,,,0,0,9,,,,,8,,,,46,45
124806,note_on,,,,,384,0,9,,,,,8,,,,48,0
124806,note_on,,,,,0,0,4,,,,,3,,,,58,92
124806,note_on,,,,,48,0,4,,,,,3,,,,46,92
124808,note_on,,,,,0,0,8,,,,,7,,,,58,45
124808,note_on,,,,,94,0,6,,,,,5,,,,63,0
124808,note_on,,,,,384,0,8,,,,,7,,,,60,0
124810,note_on,,,,,2,0,6,,,,,5,,,,64,45
124866,note_on,,,,,66,0,3,,,,,2,,,,67,108
124894,note_on,,,,,94,0,5,,,,,4,,,,67,0
124896,note_on,,,,,2,0,5,,,,,4,,,,67,45
124896,note_on,,,,,94,0,7,,,,,6,,,,61,0
124898,note_on,,,,,2,0,7,,,,,6,,,,61,45
124904,note_on,,,,,94,0,6,,,,,5,,,,64,0
124906,note_on,,,,,2,0,6,,,,,5,,,,64,45
124930,note_on,,,,,64,0,3,,,,,2,,,,67,0
124930,note_on,,,,,0,0,3,,,,,2,,,,73,108
124990,note_on,,,,,94,0,5,,,,,4,,,,67,0
124992,note_on,,,,,94,0,7,,,,,6,,,,61,0
124992,note_on,,,,,2,0,5,,,,,4,,,,67,45
124994,note_on,,,,,64,0,3,,,,,2,,,,73,0
124994,note_on,,,,,0,0,3,,,,,2,,,,76,108
124994,note_on,,,,,2,0,7,,,,,6,,,,61,45
125000,note_on,,,,,94,0,6,,,,,5,,,,64,0
125002,note_on,,,,,2,0,6,,,,,5,,,,64,45
125058,note_on,,,,,64,0,3,,,,,2,,,,76,0
125058,note_on,,,,,0,0,3,,,,,2,,,,73,108
125086,note_on,,,,,94,0,5,,,,,4,,,,67,0
125088,note_on,,,,,2,0,5,,,,,4,,,,67,45
125088,note_on,,,,,94,0,7,,,,,6,,,,61,0
125090,note_on,,,,,2,0,7,,,,,6,,,,61,45
125096,note_on,,,,,94,0,6,,,,,5,,,,64,0
125098,note_on,,,,,2,0,6,,,,,5,,,,64,45
125122,note_on,,,,,64,0,3,,,,,2,,,,73,0
125122,note_on,,,,,0,0,3,,,,,2,,,,67,108
125142,note_on,,,,,336,0,4,,,,,3,,,,58,0
125142,note_on,,,,,0,0,4,,,,,3,,,,46,0
125182,note_on,,,,,94,0,5,,,,,4,,,,67,0
125184,note_on,,,,,62,0,3,,,,,2,,,,67,0
125184,note_on,,,,,94,0,7,,,,,6,,,,61,0
125184,note_on,,,,,2,0,5,,,,,4,,,,72,45
125184,set_tempo,,,,,384,1,0,,301508,,,,,,,,
125186,note_on,,,,,2,0,7,,,,,6,,,,60,45
125190,note_on,,,,,48,0,4,,,,,3,,,,45,92
125190,note_on,,,,,0,0,9,,,,,8,,,,45,45
125190,note_on,,,,,384,0,9,,,,,8,,,,46,0
125190,note_on,,,,,0,0,4,,,,,3,,,,57,92
125192,note_on,,,,,94,0,6,,,,,5,,,,64,0
125192,note_on,,,,,384,0,8,,,,,7,,,,58,0
125192,note_on,,,,,0,0,8,,,,,7,,,,57,45
125194,note_on,,,,,2,0,6,,,,,5,,,,65,45
125250,note_on,,,,,66,0,3,,,,,2,,,,69,127
125278,note_on,,,,,94,0,5,,,,,4,,,,72,0
125280,note_on,,,,,94,0,7,,,,,6,,,,60,0
125280,note_on,,,,,2,0,5,,,,,4,,,,72,45
125282,note_on,,,,,2,0,7,,,,,6,,,,60,45
125288,note_on,,,,,94,0,6,,,,,5,,,,65,0
125290,note_on,,,,,2,0,6,,,,,5,,,,65,45
125314,note_on,,,,,64,0,3,,,,,2,,,,69,0
125314,note_on,,,,,0,0,3,,,,,2,,,,72,127
125374,note_on,,,,,94,0,5,,,,,4,,,,72,0
125376,note_on,,,,,2,0,5,,,,,4,,,,72,45
125376,note_on,,,,,94,0,7,,,,,6,,,,60,0
125378,note_on,,,,,2,0,7,,,,,6,,,,60,45
125378,note_on,,,,,64,0,3,,,,,2,,,,72,0
125378,note_on,,,,,0,0,3,,,,,2,,,,77,127
125384,note_on,,,,,94,0,6,,,,,5,,,,65,0
125386,note_on,,,,,2,0,6,,,,,5,,,,65,45
125442,note_on,,,,,64,0,3,,,,,2,,,,77,0
125442,note_on,,,,,0,0,3,,,,,2,,,,72,127
125470,note_on,,,,,94,0,5,,,,,4,,,,72,0
125472,note_on,,,,,94,0,7,,,,,6,,,,60,0
125472,note_on,,,,,2,0,5,,,,,4,,,,72,45
125474,note_on,,,,,2,0,7,,,,,6,,,,60,45
125480,note_on,,,,,94,0,6,,,,,5,,,,65,0
125482,note_on,,,,,2,0,6,,,,,5,,,,65,45
125506,note_on,,,,,64,0,3,,,,,2,,,,72,0
125506,note_on,,,,,0,0,3,,,,,2,,,,69,127
125526,note_on,,,,,336,0,4,,,,,3,,,,57,0
125526,note_on,,,,,0,0,4,,,,,3,,,,45,0
125566,note_on,,,,,94,0,5,,,,,4,,,,72,0
125568,note_on,,,,,62,0,3,,,,,2,,,,69,0
125568,note_on,,,,,2,0,5,,,,,4,,,,72,45
125568,set_tempo,,,,,384,1,0,,306122,,,,,,,,
125568,note_on,,,,,94,0,7,,,,,6,,,,60,0
125570,note_on,,,,,2,0,7,,,,,6,,,,60,45
125574,note_on,,,,,0,0,9,,,,,8,,,,44,45
125574,note_on,,,,,384,0,9,,,,,8,,,,45,0
125574,note_on,,,,,48,0,4,,,,,3,,,,44,92
125574,note_on,,,,,0,0,4,,,,,3,,,,56,92
125576,note_on,,,,,0,0,8,,,,,7,,,,56,45
125576,note_on,,,,,94,0,6,,,,,5,,,,65,0
125576,note_on,,,,,384,0,8,,,,,7,,,,57,0
125578,note_on,,,,,2,0,6,,,,,5,,,,66,45
125634,note_on,,,,,66,0,3,,,,,2,,,,72,127
125662,note_on,,,,,94,0,5,,,,,4,,,,72,0
125664,note_on,,,,,94,0,7,,,,,6,,,,60,0
125664,note_on,,,,,2,0,5,,,,,4,,,,72,45
125666,note_on,,,,,2,0,7,,,,,6,,,,60,45
125672,note_on,,,,,94,0,6,,,,,5,,,,66,0
125674,note_on,,,,,2,0,6,,,,,5,,,,66,45
125698,note_on,,,,,64,0,3,,,,,2,,,,72,0
125698,note_on,,,,,0,0,3,,,,,2,,,,75,127
125758,note_on,,,,,94,0,5,,,,,4,,,,72,0
125760,note_on,,,,,94,0,7,,,,,6,,,,60,0
125760,note_on,,,,,2,0,5,,,,,4,,,,72,45
125762,note_on,,,,,2,0,7,,,,,6,,,,60,45
125762,note_on,,,,,0,0,3,,,,,2,,,,78,127
125762,note_on,,,,,64,0,3,,,,,2,,,,75,0
125768,note_on,,,,,94,0,6,,,,,5,,,,66,0
125770,note_on,,,,,2,0,6,,,,,5,,,,66,45
125826,note_on,,,,,0,0,3,,,,,2,,,,75,127
125826,note_on,,,,,64,0,3,,,,,2,,,,78,0
125854,note_on,,,,,94,0,5,,,,,4,,,,72,0
125856,note_on,,,,,94,0,7,,,,,6,,,,60,0
125856,note_on,,,,,2,0,5,,,,,4,,,,72,45
125858,note_on,,,,,2,0,7,,,,,6,,,,60,45
125864,note_on,,,,,94,0,6,,,,,5,,,,66,0
125866,note_on,,,,,2,0,6,,,,,5,,,,66,45
125890,note_on,,,,,0,0,3,,,,,2,,,,72,127
125890,note_on,,,,,64,0,3,,,,,2,,,,75,0
125910,note_on,,,,,336,0,9,,,,,8,,,,44,0
125910,note_on,,,,,336,0,4,,,,,3,,,,56,0
125910,note_on,,,,,0,0,4,,,,,3,,,,44,0
125912,note_on,,,,,336,0,8,,,,,7,,,,56,0
125950,note_on,,,,,94,0,5,,,,,4,,,,72,0
125952,note_on,,,,,2,0,5,,,,,4,,,,71,45
125952,note_on,,,,,94,0,7,,,,,6,,,,60,0
125952,set_tempo,,,,,384,1,0,,292683,,,,,,,,
125954,note_on,,,,,0,0,3,,,,,2,,,,79,92
125954,note_on,,,,,64,0,3,,,,,2,,,,72,0
125954,note_on,,,,,2,0,7,,,,,6,,,,62,45
125958,note_on,,,,,0,0,4,,,,,3,,,,55,92
125958,note_on,,,,,48,0,9,,,,,8,,,,43,45
125958,note_on,,,,,48,0,4,,,,,3,,,,43,92
125960,note_on,,,,,48,0,8,,,,,7,,,,55,45
125960,note_on,,,,,94,0,6,,,,,5,,,,66,0
125962,note_on,,,,,2,0,6,,,,,5,,,,67,45
126018,note_on,,,,,64,0,3,,,,,2,,,,79,0
126018,note_on,,,,,0,0,3,,,,,2,,,,74,92
126046,note_on,,,,,94,0,5,,,,,4,,,,71,0
126048,note_on,,,,,2,0,5,,,,,4,,,,71,45
126048,note_on,,,,,94,0,7,,,,,6,,,,62,0
126050,note_on,,,,,2,0,7,,,,,6,,,,62,45
126056,note_on,,,,,94,0,6,,,,,5,,,,67,0
126058,note_on,,,,,2,0,6,,,,,5,,,,67,45
126082,note_on,,,,,64,0,3,,,,,2,,,,74,0
126082,note_on,,,,,0,0,3,,,,,2,,,,71,92
126142,note_on,,,,,94,0,5,,,,,4,,,,71,0
126144,note_on,,,,,94,0,7,,,,,6,,,,62,0
126144,note_on,,,,,2,0,5,,,,,4,,,,72,45
126146,note_on,,,,,2,0,7,,,,,6,,,,63,45
126146,note_on,,,,,0,0,3,,,,,2,,,,78,92
126146,note_on,,,,,64,0,3,,,,,2,,,,71,0
126152,note_on,,,,,94,0,6,,,,,5,,,,67,0
126154,note_on,,,,,2,0,6,,,,,5,,,,69,45
126210,note_on,,,,,0,0,3,,,,,2,,,,75,92
126210,note_on,,,,,64,0,3,,,,,2,,,,78,0
126238,note_on,,,,,94,0,5,,,,,4,,,,72,0
126240,note_on,,,,,2,0,5,,,,,4,,,,72,45
126240,note_on,,,,,94,0,7,,,,,6,,,,63,0
126242,note_on,,,,,2,0,7,,,,,6,,,,63,45
126248,note_on,,,,,94,0,6,,,,,5,,,,69,0
126250,note_on,,,,,2,0,6,,,,,5,,,,69,45
126274,note_on,,,,,64,0,3,,,,,2,,,,75,0
126274,note_on,,,,,0,0,3,,,,,2,,,,72,92
126334,note_on,,,,,94,0,5,,,,,4,,,,72,0
126336,note_on,,,,,2,0,5,,,,,4,,,,71,45
126336,note_on,,,,,94,0,7,,,,,6,,,,63,0
126338,note_on,,,,,64,0,3,,,,,2,,,,72,0
126338,note_on,,,,,0,0,3,,,,,2,,,,79,92
126338,note_on,,,,,2,0,7,,,,,6,,,,62,45
126344,note_on,,,,,94,0,6,,,,,5,,,,69,0
126346,note_on,,,,,2,0,6,,,,,5,,,,67,45
126402,note_on,,,,,64,0,3,,,,,2,,,,79,0
126402,note_on,,,,,0,0,3,,,,,2,,,,74,92
126430,note_on,,,,,94,0,5,,,,,4,,,,71,0
126432,note_on,,,,,94,0,7,,,,,6,,,,62,0
126432,note_on,,,,,2,0,5,,,,,4,,,,71,45
126434,note_on,,,,,2,0,7,,,,,6,,,,62,45
126440,note_on,,,,,94,0,6,,,,,5,,,,67,0
126442,note_on,,,,,2,0,6,,,,,5,,,,67,45
126466,note_on,,,,,64,0,3,,,,,2,,,,74,0
126466,note_on,,,,,0,0,3,,,,,2,,,,71,92
126526,note_on,,,,,94,0,5,,,,,4,,,,71,0
126528,note_on,,,,,94,0,7,,,,,6,,,,62,0
126528,note_on,,,,,2,0,5,,,,,4,,,,72,45
126530,note_on,,,,,2,0,7,,,,,6,,,,63,45
126530,note_on,,,,,0,0,3,,,,,2,,,,78,92
126530,note_on,,,,,64,0,3,,,,,2,,,,71,0
126536,note_on,,,,,94,0,6,,,,,5,,,,67,0
126538,note_on,,,,,2,0,6,,,,,5,,,,69,45
126594,note_on,,,,,64,0,3,,,,,2,,,,78,0
126594,note_on,,,,,0,0,3,,,,,2,,,,75,92
126622,note_on,,,,,94,0,5,,,,,4,,,,72,0
126624,note_on,,,,,2,0,5,,,,,4,,,,72,45
126624,note_on,,,,,94,0,7,,,,,6,,,,63,0
126626,note_on,,,,,2,0,7,,,,,6,,,,63,45
126632,note_on,,,,,94,0,6,,,,,5,,,,69,0
126634,note_on,,,,,2,0,6,,,,,5,,,,69,45
126658,note_on,,,,,64,0,3,,,,,2,,,,75,0
126658,note_on,,,,,0,0,3,,,,,2,,,,72,92
126678,note_on,,,,,0,0,4,,,,,3,,,,43,0
126678,note_on,,,,,720,0,4,,,,,3,,,,55,0
126678,note_on,,,,,720,0,9,,,,,8,,,,43,0
126680,note_on,,,,,720,0,8,,,,,7,,,,55,0
126718,note_on,,,,,94,0,5,,,,,4,,,,72,0
126720,note_on,,,,,62,0,3,,,,,2,,,,72,0
126720,note_on,,,,,2,0,5,,,,,4,,,,71,45
126720,note_on,,,,,94,0,7,,,,,6,,,,63,0
126722,note_on,,,,,2,0,7,,,,,6,,,,62,45
126726,note_on,,,,,48,0,9,,,,,8,,,,31,45
126726,note_on,,,,,0,0,4,,,,,3,,,,55,92
126726,note_on,,,,,48,0,4,,,,,3,,,,43,92
126728,note_on,,,,,94,0,6,,,,,5,,,,69,0
126728,note_on,,,,,48,0,8,,,,,7,,,,43,45
126730,note_on,,,,,2,0,6,,,,,5,,,,67,45
126786,note_on,,,,,66,0,3,,,,,2,,,,67,92
126850,note_on,,,,,64,0,3,,,,,2,,,,67,0
126850,note_on,,,,,0,0,3,,,,,2,,,,79,92
126886,note_on,,,,,0,0,4,,,,,3,,,,43,0
126886,note_on,,,,,160,0,4,,,,,3,,,,55,0
126912,note_on,,,,,62,0,3,,,,,2,,,,79,0
126918,note_on,,,,,0,0,4,,,,,3,,,,53,92
126918,note_on,,,,,32,0,4,,,,,3,,,,41,92
126978,note_on,,,,,66,0,3,,,,,2,,,,65,92
127042,note_on,,,,,64,0,3,,,,,2,,,,65,0
127042,note_on,,,,,0,0,3,,,,,2,,,,77,92
127056,note_on,,,,,336,0,5,,,,,4,,,,71,0
127058,note_on,,,,,336,0,7,,,,,6,,,,62,0
127062,note_on,,,,,336,0,9,,,,,8,,,,31,0
127064,note_on,,,,,336,0,8,,,,,7,,,,43,0
127066,note_on,,,,,336,0,6,,,,,5,,,,67,0
127078,note_on,,,,,0,0,4,,,,,3,,,,41,0
127078,note_on,,,,,160,0,4,,,,,3,,,,53,0
127104,note_on,,,,,62,0,3,,,,,2,,,,77,0
127110,note_on,,,,,0,0,4,,,,,3,,,,51,92
127110,note_on,,,,,32,0,4,,,,,3,,,,39,92
127170,note_on,,,,,66,0,3,,,,,2,,,,63,92
127234,note_on,,,,,0,0,3,,,,,2,,,,75,92
127234,note_on,,,,,64,0,3,,,,,2,,,,63,0
127270,note_on,,,,,160,0,4,,,,,3,,,,51,0
127270,note_on,,,,,0,0,4,,,,,3,,,,39,0
127296,note_on,,,,,240,0,5,,,,,4,,,,79,60
127296,note_on,,,,,62,0,3,,,,,2,,,,75,0
127302,note_on,,,,,32,0,4,,,,,3,,,,38,92
127302,note_on,,,,,0,0,4,,,,,3,,,,50,92
127344,note_on,,,,,48,0,5,,,,,4,,,,79,0
127362,note_on,,,,,66,0,3,,,,,2,,,,62,92
127426,note_on,,,,,64,0,3,,,,,2,,,,62,0
127426,note_on,,,,,0,0,3,,,,,2,,,,74,92
127462,note_on,,,,,160,0,4,,,,,3,,,,50,0
127462,note_on,,,,,0,0,4,,,,,3,,,,38,0
127488,note_on,,,,,144,0,5,,,,,4,,,,84,60
127488,note_on,,,,,62,0,3,,,,,2,,,,74,0
127494,note_on,,,,,0,0,4,,,,,3,,,,48,92
127494,note_on,,,,,32,0,4,,,,,3,,,,36,92
127536,note_on,,,,,48,0,5,,,,,4,,,,84,0
127586,note_on,,,,,98,0,3,,,,,2,,,,79,92
127680,note_on,,,,,144,0,5,,,,,4,,,,79,60
127682,note_on,,,,,0,0,3,,,,,2,,,,81,92
127682,note_on,,,,,96,0,3,,,,,2,,,,79,0
127728,note_on,,,,,48,0,5,,,,,4,,,,79,0
127778,note_on,,,,,0,0,3,,,,,2,,,,83,92
127778,note_on,,,,,96,0,3,,,,,2,,,,81,0
127830,note_on,,,,,0,0,4,,,,,3,,,,36,0
127830,note_on,,,,,336,0,4,,,,,3,,,,48,0
127872,note_on,,,,,144,0,5,,,,,4,,,,80,60
127874,note_on,,,,,96,0,3,,,,,2,,,,83,0
127874,note_on,,,,,0,0,3,,,,,2,,,,84,92
127874,note_on,,,,,816,0,7,,,,,6,,,,72,60
127882,note_on,,,,,816,0,6,,,,,5,,,,75,60
127920,note_on,,,,,48,0,5,,,,,4,,,,80,0
127970,note_on,,,,,96,0,3,,,,,2,,,,84,0
127970,note_on,,,,,0,0,3,,,,,2,,,,75,92
128064,note_on,,,,,144,0,5,,,,,4,,,,75,60
128066,note_on,,,,,0,0,3,,,,,2,,,,77,92
128066,note_on,,,,,96,0,3,,,,,2,,,,75,0
128112,note_on,,,,,48,0,5,,,,,4,,,,75,0
128162,note_on,,,,,0,0,3,,,,,2,,,,79,92
128162,note_on,,,,,96,0,3,,,,,2,,,,77,0
128218,note_on,,,,,336,0,6,,,,,5,,,,75,0
128256,note_on,,,,,144,0,5,,,,,4,,,,77,60
128258,note_on,,,,,0,0,3,,,,,2,,,,80,92
128258,note_on,,,,,96,0,3,,,,,2,,,,79,0
128266,note_on,,,,,48,0,6,,,,,5,,,,74,60
128304,note_on,,,,,48,0,5,,,,,4,,,,77,0
128354,note_on,,,,,0,0,3,,,,,2,,,,72,92
128354,note_on,,,,,96,0,3,,,,,2,,,,80,0
128448,note_on,,,,,144,0,5,,,,,4,,,,74,60
128450,note_on,,,,,96,0,3,,,,,2,,,,72,0
128450,note_on,,,,,0,0,3,,,,,2,,,,74,92
128496,note_on,,,,,48,0,5,,,,,4,,,,74,0
128546,note_on,,,,,0,0,3,,,,,2,,,,75,92
128546,note_on,,,,,96,0,3,,,,,2,,,,74,0
128640,note_on,,,,,144,0,5,,,,,4,,,,67,60
128642,note_on,,,,,0,0,7,,,,,6,,,,71,60
128642,note_on,,,,,0,0,3,,,,,2,,,,77,92
128642,note_on,,,,,96,0,3,,,,,2,,,,75,0
128642,note_on,,,,,768,0,7,,,,,6,,,,72,0
128688,note_on,,,,,48,0,5,,,,,4,,,,67,0
128738,note_on,,,,,96,0,3,,,,,2,,,,77,0
128738,note_on,,,,,0,0,3,,,,,2,,,,71,92
128832,note_on,,,,,144,0,5,,,,,4,,,,79,60
128834,note_on,,,,,192,0,7,,,,,6,,,,71,0
128834,note_on,,,,,0,0,7,,,,,6,,,,67,60
128834,note_on,,,,,0,0,3,,,,,2,,,,72,92
128834,note_on,,,,,96,0,3,,,,,2,,,,71,0
128838,note_on,,,,,1776,0,9,,,,,8,,,,43,60
128840,note_on,,,,,1776,0,8,,,,,7,,,,55,60
128842,note_on,,,,,0,0,6,,,,,5,,,,71,60
128842,note_on,,,,,576,0,6,,,,,5,,,,74,0
128880,note_on,,,,,48,0,5,,,,,4,,,,79,0
128930,note_on,,,,,96,0,3,,,,,2,,,,72,0
128930,note_on,,,,,0,0,3,,,,,2,,,,74,92
128994,note_on,,,,,160,0,7,,,,,6,,,,67,0
128998,note_on,,,,,160,0,9,,,,,8,,,,43,0
129000,note_on,,,,,160,0,8,,,,,7,,,,55,0
129002,note_on,,,,,160,0,6,,,,,5,,,,71,0
129024,set_tempo,,,,,3072,1,0,,266667,,,,,,,,
129024,note_on,,,,,144,0,5,,,,,4,,,,75,60
129026,note_on,,,,,32,0,7,,,,,6,,,,67,60
129026,note_on,,,,,0,0,3,,,,,2,,,,75,75
129026,note_on,,,,,96,0,3,,,,,2,,,,74,0
129030,note_on,,,,,32,0,9,,,,,8,,,,48,60
129032,note_on,,,,,32,0,8,,,,,7,,,,60,60
129034,note_on,,,,,32,0,6,,,,,5,,,,72,60
129090,note_on,,,,,0,0,3,,,,,2,,,,79,75
129090,note_on,,,,,64,0,3,,,,,2,,,,75,0
129154,note_on,,,,,64,0,3,,,,,2,,,,79,0
129154,note_on,,,,,0,0,3,,,,,2,,,,77,75
129184,note_on,,,,,160,0,5,,,,,4,,,,75,0
129186,note_on,,,,,160,0,7,,,,,6,,,,67,0
129190,note_on,,,,,160,0,9,,,,,8,,,,48,0
129192,note_on,,,,,160,0,8,,,,,7,,,,60,0
129194,note_on,,,,,160,0,6,,,,,5,,,,72,0
129218,note_on,,,,,0,0,3,,,,,2,,,,75,75
129218,note_on,,,,,64,0,3,,,,,2,,,,77,0
129222,note_on,,,,,32,0,9,,,,,8,,,,36,60
129224,note_on,,,,,32,0,8,,,,,7,,,,48,60
129282,note_on,,,,,0,0,3,,,,,2,,,,74,75
129282,note_on,,,,,64,0,3,,,,,2,,,,75,0
129346,note_on,,,,,0,0,3,,,,,2,,,,72,75
129346,note_on,,,,,64,0,3,,,,,2,,,,74,0
129382,note_on,,,,,160,0,9,,,,,8,,,,36,0
129384,note_on,,,,,160,0,8,,,,,7,,,,48,0
129408,note_on,,,,,224,0,5,,,,,4,,,,71,60
129410,note_on,,,,,0,0,3,,,,,2,,,,71,75
129410,note_on,,,,,64,0,3,,,,,2,,,,72,0
129410,note_on,,,,,224,0,7,,,,,6,,,,62,60
129414,note_on,,,,,32,0,9,,,,,8,,,,43,60
129416,note_on,,,,,32,0,8,,,,,7,,,,55,60
129418,note_on,,,,,224,0,6,,,,,5,,,,65,60
129474,note_on,,,,,0,0,3,,,,,2,,,,68,75
129474,note_on,,,,,64,0,3,,,,,2,,,,71,0
129538,note_on,,,,,64,0,3,,,,,2,,,,68,0
129538,note_on,,,,,0,0,3,,,,,2,,,,67,75
129568,note_on,,,,,160,0,5,,,,,4,,,,71,0
129570,note_on,,,,,160,0,7,,,,,6,,,,62,0
129574,note_on,,,,,160,0,9,,,,,8,,,,43,0
129576,note_on,,,,,160,0,8,,,,,7,,,,55,0
129578,note_on,,,,,160,0,6,,,,,5,,,,65,0
129602,note_on,,,,,64,0,3,,,,,2,,,,67,0
129602,note_on,,,,,0,0,3,,,,,2,,,,65,75
129606,note_on,,,,,32,0,9,,,,,8,,,,31,60
129608,note_on,,,,,32,0,8,,,,,7,,,,43,60
129666,note_on,,,,,0,0,3,,,,,2,,,,63,75
129666,note_on,,,,,64,0,3,,,,,2,,,,65,0
129730,note_on,,,,,0,0,3,,,,,2,,,,62,75
129730,note_on,,,,,64,0,3,,,,,2,,,,63,0
129766,note_on,,,,,160,0,9,,,,,8,,,,31,0
129768,note_on,,,,,160,0,8,,,,,7,,,,43,0
129792,note_on,,,,,62,0,3,,,,,2,,,,62,0
129792,note_on,,,,,224,0,5,,,,,4,,,,72,60
129792,set_tempo,,,,,768,1,0,,292683,,,,,,,,
129794,note_on,,,,,224,0,7,,,,,6,,,,60,60
129798,note_on,,,,,1968,0,4,,,,,3,,,,48,92
129798,note_on,,,,,32,0,9,,,,,8,,,,36,60
129800,note_on,,,,,32,0,8,,,,,7,,,,48,60
129802,note_on,,,,,224,0,6,,,,,5,,,,63,60
129858,note_on,,,,,66,0,3,,,,,2,,,,63,92
129922,note_on,,,,,64,0,3,,,,,2,,,,63,0
129922,note_on,,,,,0,0,3,,,,,2,,,,60,92
129954,note_on,,,,,160,0,7,,,,,6,,,,60,0
129958,note_on,,,,,160,0,4,,,,,3,,,,48,0
129984,note_on,,,,,62,0,3,,,,,2,,,,60,0
129986,note_on,,,,,32,0,7,,,,,6,,,,67,60
129990,note_on,,,,,32,0,4,,,,,3,,,,58,92
129994,note_on,,,,,192,0,6,,,,,5,,,,63,0
129994,note_on,,,,,0,0,6,,,,,5,,,,64,60
130050,note_on,,,,,66,0,3,,,,,2,,,,64,92
130114,note_on,,,,,64,0,3,,,,,2,,,,64,0
130114,note_on,,,,,0,0,3,,,,,2,,,,60,92
130134,note_on,,,,,336,0,9,,,,,8,,,,36,0
130136,note_on,,,,,336,0,8,,,,,7,,,,48,0
130150,note_on,,,,,160,0,4,,,,,3,,,,58,0
130176,note_on,,,,,62,0,3,,,,,2,,,,60,0
130178,note_on,,,,,0,0,7,,,,,6,,,,68,60
130178,note_on,,,,,192,0,7,,,,,6,,,,67,0
130182,note_on,,,,,32,0,4,,,,,3,,,,56,92
130186,note_on,,,,,192,0,6,,,,,5,,,,64,0
130186,note_on,,,,,0,0,6,,,,,5,,,,65,60
130242,note_on,,,,,66,0,3,,,,,2,,,,65,92
130306,note_on,,,,,0,0,3,,,,,2,,,,60,92
130306,note_on,,,,,64,0,3,,,,,2,,,,65,0
130342,note_on,,,,,160,0,4,,,,,3,,,,56,0
130368,note_on,,,,,576,0,5,,,,,4,,,,72,0
130368,note_on,,,,,62,0,3,,,,,2,,,,60,0
130368,note_on,,,,,0,0,5,,,,,4,,,,70,60
130370,note_on,,,,,0,0,7,,,,,6,,,,64,60
130370,note_on,,,,,192,0,7,,,,,6,,,,68,0
130374,note_on,,,,,240,0,9,,,,,8,,,,48,60
130374,note_on,,,,,32,0,4,,,,,3,,,,55,92
130376,note_on,,,,,240,0,8,,,,,7,,,,60,60
130378,note_on,,,,,192,0,6,,,,,5,,,,65,0
130378,note_on,,,,,0,0,6,,,,,5,,,,67,60
130422,note_on,,,,,48,0,9,,,,,8,,,,48,0
130424,note_on,,,,,48,0,8,,,,,7,,,,60,0
130434,note_on,,,,,66,0,3,,,,,2,,,,67,92
130498,note_on,,,,,64,0,3,,,,,2,,,,67,0
130498,note_on,,,,,0,0,3,,,,,2,,,,60,92
130528,note_on,,,,,160,0,5,,,,,4,,,,70,0
130530,note_on,,,,,160,0,7,,,,,6,,,,64,0
130534,note_on,,,,,160,0,4,,,,,3,,,,55,0
130538,note_on,,,,,160,0,6,,,,,5,,,,67,0
130560,note_on,,,,,32,0,5,,,,,4,,,,68,60
130560,note_on,,,,,62,0,3,,,,,2,,,,60,0
130562,note_on,,,,,2,0,3,,,,,2,,,,68,92
130562,note_on,,,,,32,0,7,,,,,6,,,,65,60
130566,note_on,,,,,144,0,9,,,,,8,,,,53,60
130568,note_on,,,,,144,0,8,,,,,7,,,,65,60
130570,note_on,,,,,32,0,6,,,,,5,,,,60,60
130614,note_on,,,,,48,0,9,,,,,8,,,,53,0
130616,note_on,,,,,48,0,8,,,,,7,,,,65,0
130662,note_on,,,,,128,0,4,,,,,3,,,,60,92
130758,note_on,,,,,144,0,9,,,,,8,,,,48,60
130758,note_on,,,,,96,0,4,,,,,3,,,,60,0
130758,note_on,,,,,0,0,4,,,,,3,,,,62,92
130760,note_on,,,,,144,0,8,,,,,7,,,,60,60
130806,note_on,,,,,48,0,9,,,,,8,,,,48,0
130808,note_on,,,,,48,0,8,,,,,7,,,,60,0
130854,note_on,,,,,96,0,4,,,,,3,,,,62,0
130854,note_on,,,,,0,0,4,,,,,3,,,,64,92
130896,note_on,,,,,336,0,5,,,,,4,,,,68,0
130898,note_on,,,,,336,0,3,,,,,2,,,,68,0
130906,note_on,,,,,336,0,6,,,,,5,,,,60,0
130950,note_on,,,,,144,0,9,,,,,8,,,,49,60
130950,note_on,,,,,96,0,4,,,,,3,,,,64,0
130950,note_on,,,,,0,0,4,,,,,3,,,,65,92
130952,note_on,,,,,144,0,8,,,,,7,,,,61,60
130954,note_on,,,,,48,0,6,,,,,5,,,,68,60
130998,note_on,,,,,48,0,9,,,,,8,,,,49,0
131000,note_on,,,,,48,0,8,,,,,7,,,,61,0
131046,note_on,,,,,96,0,4,,,,,3,,,,65,0
131046,note_on,,,,,0,0,4,,,,,3,,,,56,92
131142,note_on,,,,,144,0,9,,,,,8,,,,44,60
131142,note_on,,,,,96,0,4,,,,,3,,,,56,0
131142,note_on,,,,,0,0,4,,,,,3,,,,58,92
131144,note_on,,,,,144,0,8,,,,,7,,,,56,60
131190,note_on,,,,,48,0,9,,,,,8,,,,44,0
131192,note_on,,,,,48,0,8,,,,,7,,,,56,0
131238,note_on,,,,,96,0,4,,,,,3,,,,58,0
131238,note_on,,,,,0,0,4,,,,,3,,,,60,92
131290,note_on,,,,,336,0,6,,,,,5,,,,68,0
131334,note_on,,,,,96,0,4,,,,,3,,,,60,0
131334,note_on,,,,,0,0,4,,,,,3,,,,61,92
131334,note_on,,,,,144,0,9,,,,,8,,,,46,60
131336,note_on,,,,,144,0,8,,,,,7,,,,58,60
131338,note_on,,,,,48,0,6,,,,,5,,,,67,60
131382,note_on,,,,,48,0,9,,,,,8,,,,46,0
131384,note_on,,,,,48,0,8,,,,,7,,,,58,0
131430,note_on,,,,,0,0,4,,,,,3,,,,53,92
131430,note_on,,,,,96,0,4,,,,,3,,,,61,0
131526,note_on,,,,,0,0,4,,,,,3,,,,55,92
131526,note_on,,,,,96,0,4,,,,,3,,,,53,0
131526,note_on,,,,,144,0,9,,,,,8,,,,43,60
131528,note_on,,,,,144,0,8,,,,,7,,,,55,60
131574,note_on,,,,,48,0,9,,,,,8,,,,43,0
131576,note_on,,,,,48,0,8,,,,,7,,,,55,0
131622,note_on,,,,,96,0,4,,,,,3,,,,55,0
131622,note_on,,,,,0,0,4,,,,,3,,,,56,92
131714,note_on,,,,,0,0,7,,,,,6,,,,64,60
131714,note_on,,,,,1152,0,7,,,,,6,,,,65,0
131718,note_on,,,,,144,0,9,,,,,8,,,,36,60
131718,note_on,,,,,0,0,4,,,,,3,,,,58,92
131718,note_on,,,,,96,0,4,,,,,3,,,,56,0
131720,note_on,,,,,144,0,8,,,,,7,,,,48,60
131766,note_on,,,,,48,0,9,,,,,8,,,,36,0
131768,note_on,,,,,48,0,8,,,,,7,,,,48,0
131814,note_on,,,,,96,0,4,,,,,3,,,,58,0
131814,note_on,,,,,0,0,4,,,,,3,,,,52,92
131904,note_on,,,,,1008,0,5,,,,,4,,,,72,60
131910,note_on,,,,,96,0,4,,,,,3,,,,52,0
131910,note_on,,,,,0,0,4,,,,,3,,,,53,92
131910,note_on,,,,,144,0,9,,,,,8,,,,48,60
131912,note_on,,,,,144,0,8,,,,,7,,,,60,60
131914,note_on,,,,,0,0,6,,,,,5,,,,70,60
131914,note_on,,,,,576,0,6,,,,,5,,,,67,0
131952,note_on,,,,,48,0,5,,,,,4,,,,72,0
131958,note_on,,,,,48,0,9,,,,,8,,,,48,0
131960,note_on,,,,,48,0,8,,,,,7,,,,60,0
132006,note_on,,,,,0,0,4,,,,,3,,,,55,92
132006,note_on,,,,,96,0,4,,,,,3,,,,53,0
132050,note_on,,,,,336,0,7,,,,,6,,,,64,0
132074,note_on,,,,,160,0,6,,,,,5,,,,70,0
132096,note_on,,,,,144,0,5,,,,,4,,,,77,60
132096,set_tempo,,,,,2304,1,0,,266667,,,,,,,,
132098,note_on,,,,,48,0,7,,,,,6,,,,65,60
132102,note_on,,,,,96,0,4,,,,,3,,,,55,0
132102,note_on,,,,,144,0,9,,,,,8,,,,44,60
132102,note_on,,,,,0,0,4,,,,,3,,,,56,75
132104,note_on,,,,,144,0,8,,,,,7,,,,56,60
132106,note_on,,,,,32,0,6,,,,,5,,,,68,60
132144,note_on,,,,,48,0,5,,,,,4,,,,77,0
132166,note_on,,,,,64,0,4,,,,,3,,,,56,0
132166,note_on,,,,,0,0,4,,,,,3,,,,60,75
132230,note_on,,,,,64,0,4,,,,,3,,,,60,0
132230,note_on,,,,,0,0,4,,,,,3,,,,58,75
132258,note_on,,,,,160,0,7,,,,,6,,,,65,0
132262,note_on,,,,,160,0,9,,,,,8,,,,44,0
132264,note_on,,,,,160,0,8,,,,,7,,,,56,0
132266,note_on,,,,,160,0,6,,,,,5,,,,68,0
132288,note_on,,,,,144,0,5,,,,,4,,,,65,60
132294,note_on,,,,,0,0,4,,,,,3,,,,56,75
132294,note_on,,,,,64,0,4,,,,,3,,,,58,0
132336,note_on,,,,,48,0,5,,,,,4,,,,65,0
132358,note_on,,,,,64,0,4,,,,,3,,,,56,0
132358,note_on,,,,,0,0,4,,,,,3,,,,55,75
132422,note_on,,,,,64,0,4,,,,,3,,,,55,0
132422,note_on,,,,,0,0,4,,,,,3,,,,53,75
132480,note_on,,,,,144,0,5,,,,,4,,,,72,60
132482,note_on,,,,,224,0,7,,,,,6,,,,60,60
132486,note_on,,,,,224,0,9,,,,,8,,,,40,60
132486,note_on,,,,,64,0,4,,,,,3,,,,53,0
132486,note_on,,,,,0,0,4,,,,,3,,,,52,75
132488,note_on,,,,,224,0,8,,,,,7,,,,52,60
132490,note_on,,,,,224,0,6,,,,,5,,,,67,60
132528,note_on,,,,,48,0,5,,,,,4,,,,72,0
132550,note_on,,,,,0,0,4,,,,,3,,,,50,75
132550,note_on,,,,,64,0,4,,,,,3,,,,52,0
132614,note_on,,,,,0,0,4,,,,,3,,,,48,75
132614,note_on,,,,,64,0,4,,,,,3,,,,50,0
132642,note_on,,,,,160,0,7,,,,,6,,,,60,0
132646,note_on,,,,,160,0,9,,,,,8,,,,40,0
132648,note_on,,,,,160,0,8,,,,,7,,,,52,0
132650,note_on,,,,,160,0,6,,,,,5,,,,67,0
132672,note_on,,,,,144,0,5,,,,,4,,,,60,60
132678,note_on,,,,,64,0,4,,,,,3,,,,48,0
132678,note_on,,,,,0,0,4,,,,,3,,,,46,75
132720,note_on,,,,,48,0,5,,,,,4,,,,60,0
132742,note_on,,,,,0,0,4,,,,,3,,,,44,75
132742,note_on,,,,,64,0,4,,,,,3,,,,46,0
132806,note_on,,,,,0,0,4,,,,,3,,,,43,75
132806,note_on,,,,,64,0,4,,,,,3,,,,44,0
132864,note_on,,,,,144,0,5,,,,,4,,,,68,60
132864,set_tempo,,,,,768,1,0,,292683,,,,,,,,
132866,note_on,,,,,224,0,7,,,,,6,,,,60,60
132870,note_on,,,,,0,0,4,,,,,3,,,,41,75
132870,note_on,,,,,64,0,4,,,,,3,,,,43,0
132870,note_on,,,,,224,0,9,,,,,8,,,,41,60
132872,note_on,,,,,224,0,8,,,,,7,,,,53,60
132874,note_on,,,,,224,0,6,,,,,5,,,,65,60
132930,note_on,,,,,2032,0,3,,,,,2,,,,68,92
132994,note_on,,,,,64,0,3,,,,,2,,,,68,0
132994,note_on,,,,,0,0,3,,,,,2,,,,65,92
133030,note_on,,,,,160,0,4,,,,,3,,,,41,0
133056,note_on,,,,,62,0,3,,,,,2,,,,65,0
133062,note_on,,,,,32,0,4,,,,,3,,,,39,92
133062,note_on,,,,,192,0,9,,,,,8,,,,41,0
133062,note_on,,,,,0,0,4,,,,,3,,,,51,92
133062,note_on,,,,,0,0,9,,,,,8,,,,39,60
133064,note_on,,,,,192,0,8,,,,,7,,,,53,0
133064,note_on,,,,,0,0,8,,,,,7,,,,51,60
133122,note_on,,,,,66,0,3,,,,,2,,,,69,92
133186,note_on,,,,,0,0,3,,,,,2,,,,65,92
133186,note_on,,,,,64,0,3,,,,,2,,,,69,0
133200,note_on,,,,,336,0,5,,,,,4,,,,68,0
133222,note_on,,,,,160,0,4,,,,,3,,,,51,0
133222,note_on,,,,,0,0,4,,,,,3,,,,39,0
133248,note_on,,,,,62,0,3,,,,,2,,,,65,0
133250,note_on,,,,,384,0,7,,,,,6,,,,60,0
133250,note_on,,,,,0,0,7,,,,,6,,,,62,60
133254,note_on,,,,,32,0,4,,,,,3,,,,38,92
133254,note_on,,,,,192,0,9,,,,,8,,,,39,0
133254,note_on,,,,,0,0,9,,,,,8,,,,38,60
133254,note_on,,,,,0,0,4,,,,,3,,,,50,92
133256,note_on,,,,,0,0,8,,,,,7,,,,50,60
133256,note_on,,,,,192,0,8,,,,,7,,,,51,0
133314,note_on,,,,,66,0,3,,,,,2,,,,70,92
133378,note_on,,,,,64,0,3,,,,,2,,,,70,0
133378,note_on,,,,,0,0,3,,,,,2,,,,65,92
133414,note_on,,,,,0,0,4,,,,,3,,,,38,0
133414,note_on,,,,,160,0,4,,,,,3,,,,50,0
133440,note_on,,,,,62,0,3,,,,,2,,,,65,0
133440,note_on,,,,,240,0,5,,,,,4,,,,77,60
133442,note_on,,,,,0,0,7,,,,,6,,,,63,60
133442,note_on,,,,,192,0,7,,,,,6,,,,62,0
133446,note_on,,,,,192,0,9,,,,,8,,,,38,0
133446,note_on,,,,,0,0,9,,,,,8,,,,36,60
133446,note_on,,,,,32,0,4,,,,,3,,,,36,92
133446,note_on,,,,,0,0,4,,,,,3,,,,48,92
133448,note_on,,,,,0,0,8,,,,,7,,,,48,60
133448,note_on,,,,,192,0,8,,,,,7,,,,50,0
133450,note_on,,,,,576,0,6,,,,,5,,,,65,0
133450,note_on,,,,,0,0,6,,,,,5,,,,69,60
133488,note_on,,,,,48,0,5,,,,,4,,,,77,0
133506,note_on,,,,,66,0,3,,,,,2,,,,72,92
133570,note_on,,,,,0,0,3,,,,,2,,,,65,92
133570,note_on,,,,,64,0,3,,,,,2,,,,72,0
133602,note_on,,,,,160,0,7,,,,,6,,,,63,0
133606,note_on,,,,,160,0,4,,,,,3,,,,48,0
133606,note_on,,,,,0,0,4,,,,,3,,,,36,0
133606,note_on,,,,,160,0,9,,,,,8,,,,36,0
133608,note_on,,,,,160,0,8,,,,,7,,,,48,0
133610,note_on,,,,,160,0,6,,,,,5,,,,69,0
133632,note_on,,,,,62,0,3,,,,,2,,,,65,0
133632,note_on,,,,,144,0,5,,,,,4,,,,82,60
133634,note_on,,,,,32,0,7,,,,,6,,,,62,60
133638,note_on,,,,,0,0,4,,,,,3,,,,46,92
133638,note_on,,,,,32,0,4,,,,,3,,,,34,92
133638,note_on,,,,,32,0,9,,,,,8,,,,34,60
133640,note_on,,,,,32,0,8,,,,,7,,,,46,60
133642,note_on,,,,,32,0,6,,,,,5,,,,70,60
133680,note_on,,,,,48,0,5,,,,,4,,,,82,0
133730,note_on,,,,,98,0,3,,,,,2,,,,77,92
133794,note_on,,,,,160,0,7,,,,,6,,,,62,0
133802,note_on,,,,,160,0,6,,,,,5,,,,70,0
133824,note_on,,,,,144,0,5,,,,,4,,,,77,60
133826,note_on,,,,,0,0,3,,,,,2,,,,79,92
133826,note_on,,,,,96,0,3,,,,,2,,,,77,0
133872,note_on,,,,,48,0,5,,,,,4,,,,77,0
133922,note_on,,,,,0,0,3,,,,,2,,,,81,92
133922,note_on,,,,,96,0,3,,,,,2,,,,79,0
133974,note_on,,,,,336,0,9,,,,,8,,,,34,0
133974,note_on,,,,,336,0,4,,,,,3,,,,46,0
133974,note_on,,,,,0,0,4,,,,,3,,,,34,0
133976,note_on,,,,,336,0,8,,,,,7,,,,46,0
134016,note_on,,,,,144,0,5,,,,,4,,,,79,60
134018,note_on,,,,,96,0,3,,,,,2,,,,81,0
134018,note_on,,,,,224,0,7,,,,,6,,,,70,60
134018,note_on,,,,,0,0,3,,,,,2,,,,82,92
134026,note_on,,,,,224,0,6,,,,,5,,,,74,60
134064,note_on,,,,,48,0,5,,,,,4,,,,79,0
134114,note_on,,,,,0,0,3,,,,,2,,,,74,92
134114,note_on,,,,,96,0,3,,,,,2,,,,82,0
134208,note_on,,,,,144,0,5,,,,,4,,,,74,60
134210,note_on,,,,,96,0,3,,,,,2,,,,74,0
134210,note_on,,,,,0,0,3,,,,,2,,,,75,92
134256,note_on,,,,,48,0,5,,,,,4,,,,74,0
134306,note_on,,,,,0,0,3,,,,,2,,,,77,92
134306,note_on,,,,,96,0,3,,,,,2,,,,75,0
134362,note_on,,,,,336,0,6,,,,,5,,,,74,0
134400,note_on,,,,,144,0,5,,,,,4,,,,75,60
134402,note_on,,,,,96,0,3,,,,,2,,,,77,0
134402,note_on,,,,,0,0,3,,,,,2,,,,79,92
134410,note_on,,,,,48,0,6,,,,,5,,,,72,60
134448,note_on,,,,,48,0,5,,,,,4,,,,75,0
134498,note_on,,,,,96,0,3,,,,,2,,,,79,0
134498,note_on,,,,,0,0,3,,,,,2,,,,70,92
134592,note_on,,,,,144,0,5,,,,,4,,,,72,60
134594,note_on,,,,,96,0,3,,,,,2,,,,70,0
134594,note_on,,,,,0,0,3,,,,,2,,,,72,92
134640,note_on,,,,,48,0,5,,,,,4,,,,72,0
134690,note_on,,,,,0,0,3,,,,,2,,,,74,92
134690,note_on,,,,,96,0,3,,,,,2,,,,72,0
134784,note_on,,,,,144,0,5,,,,,4,,,,65,60
134786,note_on,,,,,0,0,7,,,,,6,,,,69,60
134786,note_on,,,,,96,0,3,,,,,2,,,,74,0
134786,note_on,,,,,768,0,7,,,,,6,,,,70,0
134786,note_on,,,,,0,0,3,,,,,2,,,,75,92
134832,note_on,,,,,48,0,5,,,,,4,,,,65,0
134882,note_on,,,,,0,0,3,,,,,2,,,,69,92
134882,note_on,,,,,96,0,3,,,,,2,,,,75,0
134976,note_on,,,,,144,0,5,,,,,4,,,,77,60
134978,note_on,,,,,96,0,3,,,,,2,,,,69,0
134978,note_on,,,,,0,0,7,,,,,6,,,,65,60
134978,note_on,,,,,0,0,3,,,,,2,,,,70,92
134978,note_on,,,,,192,0,7,,,,,6,,,,69,0
134982,note_on,,,,,1008,0,9,,,,,8,,,,41,60
134984,note_on,,,,,1008,0,8,,,,,7,,,,53,60
134986,note_on,,,,,576,0,6,,,,,5,,,,72,0
134986,note_on,,,,,0,0,6,,,,,5,,,,69,60
135024,note_on,,,,,48,0,5,,,,,4,,,,77,0
135030,note_on,,,,,48,0,9,,,,,8,,,,41,0
135032,note_on,,,,,48,0,8,,,,,7,,,,53,0
135074,note_on,,,,,0,0,3,,,,,2,,,,72,92
135074,note_on,,,,,96,0,3,,,,,2,,,,70,0
135138,note_on,,,,,160,0,7,,,,,6,,,,65,0
135146,note_on,,,,,160,0,6,,,,,5,,,,69,0
135168,note_on,,,,,144,0,5,,,,,4,,,,75,60
135168,set_tempo,,,,,2304,1,0,,266667,,,,,,,,
135170,note_on,,,,,0,0,3,,,,,2,,,,74,75
135170,note_on,,,,,32,0,7,,,,,6,,,,65,60
135170,note_on,,,,,96,0,3,,,,,2,,,,72,0
135174,note_on,,,,,144,0,9,,,,,8,,,,46,60
135176,note_on,,,,,144,0,8,,,,,7,,,,58,60
135178,note_on,,,,,32,0,6,,,,,5,,,,70,60
135222,note_on,,,,,48,0,9,,,,,8,,,,46,0
135224,note_on,,,,,48,0,8,,,,,7,,,,58,0
135234,note_on,,,,,64,0,3,,,,,2,,,,74,0
135234,note_on,,,,,0,0,3,,,,,2,,,,77,75
135298,note_on,,,,,64,0,3,,,,,2,,,,77,0
135298,note_on,,,,,0,0,3,,,,,2,,,,75,75
135328,note_on,,,,,160,0,5,,,,,4,,,,75,0
135330,note_on,,,,,160,0,7,,,,,6,,,,65,0
135338,note_on,,,,,160,0,6,,,,,5,,,,70,0
135362,note_on,,,,,64,0,3,,,,,2,,,,75,0
135362,note_on,,,,,0,0,3,,,,,2,,,,74,75
135366,note_on,,,,,144,0,9,,,,,8,,,,34,60
135368,note_on,,,,,144,0,8,,,,,7,,,,46,60
135414,note_on,,,,,48,0,9,,,,,8,,,,34,0
135416,note_on,,,,,48,0,8,,,,,7,,,,46,0
135426,note_on,,,,,64,0,3,,,,,2,,,,74,0
135426,note_on,,,,,0,0,3,,,,,2,,,,72,75
135490,note_on,,,,,64,0,3,,,,,2,,,,72,0
135490,note_on,,,,,0,0,3,,,,,2,,,,70,75
135552,note_on,,,,,224,0,5,,,,,4,,,,69,60
135554,note_on,,,,,0,0,3,,,,,2,,,,69,75
135554,note_on,,,,,224,0,7,,,,,6,,,,60,60
135554,note_on,,,,,64,0,3,,,,,2,,,,70,0
135558,note_on,,,,,144,0,9,,,,,8,,,,41,60
135560,note_on,,,,,144,0,8,,,,,7,,,,53,60
135562,note_on,,,,,224,0,6,,,,,5,,,,63,60
135606,note_on,,,,,48,0,9,,,,,8,,,,41,0
135608,note_on,,,,,48,0,8,,,,,7,,,,53,0
135618,note_on,,,,,64,0,3,,,,,2,,,,69,0
135618,note_on,,,,,0,0,3,,,,,2,,,,67,75
135682,note_on,,,,,0,0,3,,,,,2,,,,65,75
135682,note_on,,,,,64,0,3,,,,,2,,,,67,0
135712,note_on,,,,,160,0,5,,,,,4,,,,69,0
135714,note_on,,,,,160,0,7,,,,,6,,,,60,0
135722,note_on,,,,,160,0,6,,,,,5,,,,63,0
135746,note_on,,,,,64,0,3,,,,,2,,,,65,0
135746,note_on,,,,,0,0,3,,,,,2,,,,63,75
135750,note_on,,,,,144,0,9,,,,,8,,,,29,60
135752,note_on,,,,,144,0,8,,,,,7,,,,41,60
135798,note_on,,,,,48,0,9,,,,,8,,,,29,0
135800,note_on,,,,,48,0,8,,,,,7,,,,41,0
135810,note_on,,,,,64,0,3,,,,,2,,,,63,0
135810,note_on,,,,,0,0,3,,,,,2,,,,62,75
135874,note_on,,,,,0,0,3,,,,,2,,,,60,75
135874,note_on,,,,,64,0,3,,,,,2,,,,62,0
135936,note_on,,,,,224,0,5,,,,,4,,,,70,60
135936,note_on,,,,,62,0,3,,,,,2,,,,60,0
135936,set_tempo,,,,,768,1,0,,292683,,,,,,,,
135938,note_on,,,,,224,0,7,,,,,6,,,,58,60
135942,note_on,,,,,144,0,9,,,,,8,,,,34,60
135942,note_on,,,,,1968,0,4,,,,,3,,,,46,92
135944,note_on,,,,,144,0,8,,,,,7,,,,46,60
135946,note_on,,,,,224,0,6,,,,,5,,,,62,60
136002,note_on,,,,,66,0,3,,,,,2,,,,62,92
136066,note_on,,,,,0,0,3,,,,,2,,,,58,92
136066,note_on,,,,,64,0,3,,,,,2,,,,62,0
136098,note_on,,,,,160,0,7,,,,,6,,,,58,0
136102,note_on,,,,,160,0,4,,,,,3,,,,46,0
136128,note_on,,,,,62,0,3,,,,,2,,,,58,0
136130,note_on,,,,,32,0,7,,,,,6,,,,65,60
136134,note_on,,,,,32,0,4,,,,,3,,,,56,92
136194,note_on,,,,,66,0,3,,,,,2,,,,62,92
136258,note_on,,,,,64,0,3,,,,,2,,,,62,0
136258,note_on,,,,,0,0,3,,,,,2,,,,58,92
136278,note_on,,,,,336,0,9,,,,,8,,,,34,0
136280,note_on,,,,,336,0,8,,,,,7,,,,46,0
136294,note_on,,,,,160,0,4,,,,,3,,,,56,0
136320,note_on,,,,,62,0,3,,,,,2,,,,58,0
136322,note_on,,,,,192,0,7,,,,,6,,,,65,0
136322,note_on,,,,,0,0,7,,,,,6,,,,67,60
136326,note_on,,,,,32,0,4,,,,,3,,,,55,92
136330,note_on,,,,,0,0,6,,,,,5,,,,63,60
136330,note_on,,,,,384,0,6,,,,,5,,,,62,0
136386,note_on,,,,,66,0,3,,,,,2,,,,63,92
136450,note_on,,,,,0,0,3,,,,,2,,,,58,92
136450,note_on,,,,,64,0,3,,,,,2,,,,63,0
136486,note_on,,,,,160,0,4,,,,,3,,,,55,0
136512,note_on,,,,,576,0,5,,,,,4,,,,70,0
136512,note_on,,,,,62,0,3,,,,,2,,,,58,0
136512,note_on,,,,,0,0,5,,,,,4,,,,68,60
136514,note_on,,,,,0,0,7,,,,,6,,,,62,60
136514,note_on,,,,,192,0,7,,,,,6,,,,67,0
136518,note_on,,,,,32,0,4,,,,,3,,,,53,92
136518,note_on,,,,,240,0,9,,,,,8,,,,46,60
136520,note_on,,,,,240,0,8,,,,,7,,,,58,60
136522,note_on,,,,,192,0,6,,,,,5,,,,63,0
136522,note_on,,,,,0,0,6,,,,,5,,,,65,60
136566,note_on,,,,,48,0,9,,,,,8,,,,46,0
136568,note_on,,,,,48,0,8,,,,,7,,,,58,0
136578,note_on,,,,,66,0,3,,,,,2,,,,65,92
136642,note_on,,,,,64,0,3,,,,,2,,,,65,0
136642,note_on,,,,,0,0,3,,,,,2,,,,58,92
136672,note_on,,,,,160,0,5,,,,,4,,,,68,0
136674,note_on,,,,,160,0,7,,,,,6,,,,62,0
136678,note_on,,,,,160,0,4,,,,,3,,,,53,0
136682,note_on,,,,,160,0,6,,,,,5,,,,65,0
136704,note_on,,,,,32,0,5,,,,,4,,,,67,60
136704,note_on,,,,,62,0,3,,,,,2,,,,58,0
136706,note_on,,,,,32,0,7,,,,,6,,,,63,60
136710,note_on,,,,,144,0,9,,,,,8,,,,51,60
136712,note_on,,,,,144,0,8,,,,,7,,,,63,60
136714,note_on,,,,,32,0,6,,,,,5,,,,58,60
136758,note_on,,,,,48,0,9,,,,,8,,,,51,0
136760,note_on,,,,,48,0,8,,,,,7,,,,63,0
136806,note_on,,,,,128,0,4,,,,,3,,,,58,92
136902,note_on,,,,,96,0,4,,,,,3,,,,58,0
136902,note_on,,,,,144,0,9,,,,,8,,,,46,60
136902,note_on,,,,,0,0,4,,,,,3,,,,60,92
136904,note_on,,,,,144,0,8,,,,,7,,,,58,60
136950,note_on,,,,,48,0,9,,,,,8,,,,46,0
136952,note_on,,,,,48,0,8,,,,,7,,,,58,0
136998,note_on,,,,,96,0,4,,,,,3,,,,60,0
136998,note_on,,,,,0,0,4,,,,,3,,,,62,92
137040,note_on,,,,,336,0,5,,,,,4,,,,67,0
137050,note_on,,,,,336,0,6,,,,,5,,,,58,0
137094,note_on,,,,,96,0,4,,,,,3,,,,62,0
137094,note_on,,,,,0,0,4,,,,,3,,,,63,92
137094,note_on,,,,,144,0,9,,,,,8,,,,48,60
137096,note_on,,,,,144,0,8,,,,,7,,,,60,60
137098,note_on,,,,,48,0,6,,,,,5,,,,67,60
137142,note_on,,,,,48,0,9,,,,,8,,,,48,0
137144,note_on,,,,,48,0,8,,,,,7,,,,60,0
137190,note_on,,,,,0,0,4,,,,,3,,,,55,92
137190,note_on,,,,,96,0,4,,,,,3,,,,63,0
137286,note_on,,,,,96,0,4,,,,,3,,,,55,0
137286,note_on,,,,,0,0,4,,,,,3,,,,56,92
137286,note_on,,,,,144,0,9,,,,,8,,,,43,60
137288,note_on,,,,,144,0,8,,,,,7,,,,55,60
137334,note_on,,,,,48,0,9,,,,,8,,,,43,0
137336,note_on,,,,,48,0,8,,,,,7,,,,55,0
137382,note_on,,,,,96,0,4,,,,,3,,,,56,0
137382,note_on,,,,,0,0,4,,,,,3,,,,58,92
137434,note_on,,,,,336,0,6,,,,,5,,,,67,0
137478,note_on,,,,,144,0,9,,,,,8,,,,44,60
137478,note_on,,,,,0,0,4,,,,,3,,,,60,92
137478,note_on,,,,,96,0,4,,,,,3,,,,58,0
137480,note_on,,,,,144,0,8,,,,,7,,,,56,60
137482,note_on,,,,,48,0,6,,,,,5,,,,65,60
137526,note_on,,,,,48,0,9,,,,,8,,,,44,0
137528,note_on,,,,,48,0,8,,,,,7,,,,56,0
137574,note_on,,,,,0,0,4,,,,,3,,,,51,92
137574,note_on,,,,,96,0,4,,,,,3,,,,60,0
137670,note_on,,,,,96,0,4,,,,,3,,,,51,0
137670,note_on,,,,,0,0,4,,,,,3,,,,53,92
137670,note_on,,,,,144,0,9,,,,,8,,,,41,60
137672,note_on,,,,,144,0,8,,,,,7,,,,53,60
137718,note_on,,,,,48,0,9,,,,,8,,,,41,0
137720,note_on,,,,,48,0,8,,,,,7,,,,53,0
137766,note_on,,,,,96,0,4,,,,,3,,,,53,0
137766,note_on,,,,,0,0,4,,,,,3,,,,55,92
137858,note_on,,,,,1152,0,7,,,,,6,,,,63,0
137858,note_on,,,,,0,0,7,,,,,6,,,,62,60
137862,note_on,,,,,0,0,4,,,,,3,,,,56,92
137862,note_on,,,,,96,0,4,,,,,3,,,,55,0
137862,note_on,,,,,144,0,9,,,,,8,,,,34,60
137864,note_on,,,,,144,0,8,,,,,7,,,,46,60
137910,note_on,,,,,48,0,9,,,,,8,,,,34,0
137912,note_on,,,,,48,0,8,,,,,7,,,,46,0
137958,note_on,,,,,96,0,4,,,,,3,,,,56,0
137958,note_on,,,,,0,0,4,,,,,3,,,,50,92
138048,note_on,,,,,1008,0,5,,,,,4,,,,70,60
138054,note_on,,,,,144,0,9,,,,,8,,,,46,60
138054,note_on,,,,,0,0,4,,,,,3,,,,51,92
138054,note_on,,,,,96,0,4,,,,,3,,,,50,0
138056,note_on,,,,,144,0,8,,,,,7,,,,58,60
138058,note_on,,,,,0,0,6,,,,,5,,,,68,60
138058,note_on,,,,,576,0,6,,,,,5,,,,65,0
138096,note_on,,,,,48,0,5,,,,,4,,,,70,0
138102,note_on,,,,,48,0,9,,,,,8,,,,46,0
138104,note_on,,,,,48,0,8,,,,,7,,,,58,0
138150,note_on,,,,,96,0,4,,,,,3,,,,51,0
138150,note_on,,,,,0,0,4,,,,,3,,,,53,92
138194,note_on,,,,,336,0,7,,,,,6,,,,62,0
138218,note_on,,,,,160,0,6,,,,,5,,,,68,0
138240,set_tempo,,,,,2304,1,0,,266667,,,,,,,,
138240,note_on,,,,,144,0,5,,,,,4,,,,75,60
138242,note_on,,,,,48,0,7,,,,,6,,,,63,60
138246,note_on,,,,,96,0,4,,,,,3,,,,53,0
138246,note_on,,,,,144,0,9,,,,,8,,,,43,60
138246,note_on,,,,,0,0,4,,,,,3,,,,55,75
138248,note_on,,,,,144,0,8,,,,,7,,,,55,60
138250,note_on,,,,,32,0,6,,,,,5,,,,67,60
138288,note_on,,,,,48,0,5,,,,,4,,,,75,0
138310,note_on,,,,,64,0,4,,,,,3,,,,55,0
138310,note_on,,,,,0,0,4,,,,,3,,,,58,75
138374,note_on,,,,,64,0,4,,,,,3,,,,58,0
138374,note_on,,,,,0,0,4,,,,,3,,,,56,75
138402,note_on,,,,,160,0,7,,,,,6,,,,63,0
138406,note_on,,,,,160,0,9,,,,,8,,,,43,0
138408,note_on,,,,,160,0,8,,,,,7,,,,55,0
138410,note_on,,,,,160,0,6,,,,,5,,,,67,0
138432,note_on,,,,,144,0,5,,,,,4,,,,63,60
138438,note_on,,,,,64,0,4,,,,,3,,,,56,0
138438,note_on,,,,,0,0,4,,,,,3,,,,55,75
138480,note_on,,,,,48,0,5,,,,,4,,,,63,0
138502,note_on,,,,,0,0,4,,,,,3,,,,53,75
138502,note_on,,,,,64,0,4,,,,,3,,,,55,0
138566,note_on,,,,,0,0,4,,,,,3,,,,51,75
138566,note_on,,,,,64,0,4,,,,,3,,,,53,0
138624,note_on,,,,,144,0,5,,,,,4,,,,70,60
138626,note_on,,,,,224,0,7,,,,,6,,,,58,60
138630,note_on,,,,,224,0,9,,,,,8,,,,38,60
138630,note_on,,,,,64,0,4,,,,,3,,,,51,0
138630,note_on,,,,,0,0,4,,,,,3,,,,50,75
138632,note_on,,,,,224,0,8,,,,,7,,,,50,60
138634,note_on,,,,,224,0,6,,,,,5,,,,65,60
138672,note_on,,,,,48,0,5,,,,,4,,,,70,0
138694,note_on,,,,,0,0,4,,,,,3,,,,48,75
138694,note_on,,,,,64,0,4,,,,,3,,,,50,0
138758,note_on,,,,,0,0,4,,,,,3,,,,46,75
138758,note_on,,,,,64,0,4,,,,,3,,,,48,0
138786,note_on,,,,,160,0,7,,,,,6,,,,58,0
138790,note_on,,,,,160,0,9,,,,,8,,,,38,0
138792,note_on,,,,,160,0,8,,,,,7,,,,50,0
138794,note_on,,,,,160,0,6,,,,,5,,,,65,0
138816,note_on,,,,,144,0,5,,,,,4,,,,58,60
138822,note_on,,,,,0,0,4,,,,,3,,,,44,75
138822,note_on,,,,,64,0,4,,,,,3,,,,46,0
138864,note_on,,,,,48,0,5,,,,,4,,,,58,0
138886,note_on,,,,,64,0,4,,,,,3,,,,44,0
138886,note_on,,,,,0,0,4,,,,,3,,,,43,75
138950,note_on,,,,,0,0,4,,,,,3,,,,41,75
138950,note_on,,,,,64,0,4,,,,,3,,,,43,0
139008,note_on,,,,,144,0,5,,,,,4,,,,67,45
139008,set_tempo,,,,,768,1,0,,292683,,,,,,,,
139010,note_on,,,,,224,0,7,,,,,6,,,,58,45
139014,note_on,,,,,224,0,9,,,,,8,,,,39,45
139014,note_on,,,,,0,0,4,,,,,3,,,,39,75
139014,note_on,,,,,64,0,4,,,,,3,,,,41,0
139016,note_on,,,,,224,0,8,,,,,7,,,,51,45
139018,note_on,,,,,224,0,6,,,,,5,,,,63,45
139074,note_on,,,,,2370,0,3,,,,,2,,,,67,92
139138,note_on,,,,,0,0,3,,,,,2,,,,63,92
139138,note_on,,,,,64,0,3,,,,,2,,,,67,0
139170,note_on,,,,,160,0,7,,,,,6,,,,58,0
139174,note_on,,,,,160,0,4,,,,,3,,,,39,0
139200,note_on,,,,,192,0,5,,,,,4,,,,67,0
139200,note_on,,,,,0,0,5,,,,,4,,,,70,45
139200,note_on,,,,,62,0,3,,,,,2,,,,63,0
139202,note_on,,,,,32,0,7,,,,,6,,,,67,45
139206,note_on,,,,,0,0,9,,,,,8,,,,37,45
139206,note_on,,,,,192,0,9,,,,,8,,,,39,0
139206,note_on,,,,,0,0,4,,,,,3,,,,49,92
139206,note_on,,,,,32,0,4,,,,,3,,,,37,92
139208,note_on,,,,,0,0,8,,,,,7,,,,49,45
139208,note_on,,,,,192,0,8,,,,,7,,,,51,0
139266,note_on,,,,,66,0,3,,,,,2,,,,67,92
139330,note_on,,,,,0,0,3,,,,,2,,,,63,92
139330,note_on,,,,,64,0,3,,,,,2,,,,67,0
139366,note_on,,,,,0,0,4,,,,,3,,,,37,0
139366,note_on,,,,,160,0,4,,,,,3,,,,49,0
139392,note_on,,,,,62,0,3,,,,,2,,,,63,0
139392,note_on,,,,,0,0,5,,,,,4,,,,75,45
139392,note_on,,,,,192,0,5,,,,,4,,,,70,0
139394,note_on,,,,,0,0,7,,,,,6,,,,68,45
139394,note_on,,,,,192,0,7,,,,,6,,,,67,0
139398,note_on,,,,,192,0,9,,,,,8,,,,37,0
139398,note_on,,,,,0,0,4,,,,,3,,,,48,92
139398,note_on,,,,,32,0,4,,,,,3,,,,36,92
139398,note_on,,,,,0,0,9,,,,,8,,,,36,45
139400,note_on,,,,,0,0,8,,,,,7,,,,48,45
139400,note_on,,,,,192,0,8,,,,,7,,,,49,0
139458,note_on,,,,,66,0,3,,,,,2,,,,68,92
139522,note_on,,,,,64,0,3,,,,,2,,,,68,0
139522,note_on,,,,,0,0,3,,,,,2,,,,63,92
139546,note_on,,,,,528,0,6,,,,,5,,,,63,0
139558,note_on,,,,,160,0,4,,,,,3,,,,48,0
139558,note_on,,,,,0,0,4,,,,,3,,,,36,0
139584,note_on,,,,,0,0,5,,,,,4,,,,73,45
139584,note_on,,,,,192,0,5,,,,,4,,,,75,0
139584,note_on,,,,,62,0,3,,,,,2,,,,63,0
139586,note_on,,,,,192,0,7,,,,,6,,,,68,0
139586,note_on,,,,,0,0,7,,,,,6,,,,61,45
139590,note_on,,,,,0,0,9,,,,,8,,,,34,45
139590,note_on,,,,,32,0,4,,,,,3,,,,34,92
139590,note_on,,,,,0,0,4,,,,,3,,,,46,92
139590,note_on,,,,,192,0,9,,,,,8,,,,36,0
139592,note_on,,,,,192,0,8,,,,,7,,,,48,0
139592,note_on,,,,,0,0,8,,,,,7,,,,46,45
139594,note_on,,,,,48,0,6,,,,,5,,,,67,45
139650,note_on,,,,,66,0,3,,,,,2,,,,70,92
139714,note_on,,,,,64,0,3,,,,,2,,,,70,0
139714,note_on,,,,,0,0,3,,,,,2,,,,63,92
139744,note_on,,,,,160,0,5,,,,,4,,,,73,0
139746,note_on,,,,,160,0,7,,,,,6,,,,61,0
139750,note_on,,,,,0,0,4,,,,,3,,,,34,0
139750,note_on,,,,,160,0,4,,,,,3,,,,46,0
139750,note_on,,,,,160,0,9,,,,,8,,,,34,0
139752,note_on,,,,,160,0,8,,,,,7,,,,46,0
139776,set_tempo,,,,,768,1,0,,307692,,,,,,,,
139776,note_on,,,,,32,0,5,,,,,4,,,,72,45
139776,note_on,,,,,62,0,3,,,,,2,,,,63,0
139778,note_on,,,,,32,0,7,,,,,6,,,,63,45
139778,note_on,,,,,2,0,3,,,,,2,,,,72,108
139782,note_on,,,,,32,0,9,,,,,8,,,,32,45
139782,note_on,,,,,32,0,4,,,,,3,,,,32,92
139782,note_on,,,,,0,0,4,,,,,3,,,,44,92
139784,note_on,,,,,32,0,8,,,,,7,,,,44,45
139874,note_on,,,,,96,0,7,,,,,6,,,,63,0
139874,note_on,,,,,96,0,3,,,,,2,,,,64,108
139874,note_on,,,,,0,0,7,,,,,6,,,,60,45
139880,note_on,,,,,286,0,6,,,,,5,,,,67,0
139882,note_on,,,,,2,0,6,,,,,5,,,,64,45
139942,note_on,,,,,160,0,9,,,,,8,,,,32,0
139944,note_on,,,,,160,0,8,,,,,7,,,,44,0
139968,note_on,,,,,94,0,7,,,,,6,,,,60,0
139970,note_on,,,,,96,0,3,,,,,2,,,,64,0
139970,note_on,,,,,2,0,7,,,,,6,,,,68,45
139970,note_on,,,,,0,0,3,,,,,2,,,,65,108
139974,note_on,,,,,0,0,4,,,,,3,,,,32,0
139974,note_on,,,,,192,0,4,,,,,3,,,,44,0
139978,note_on,,,,,0,0,6,,,,,5,,,,65,45
139978,note_on,,,,,96,0,6,,,,,5,,,,64,0
140066,note_on,,,,,96,0,3,,,,,2,,,,65,0
140066,note_on,,,,,0,0,3,,,,,2,,,,64,108
140074,note_on,,,,,96,0,6,,,,,5,,,,65,0
140074,note_on,,,,,0,0,6,,,,,5,,,,64,45
140130,note_on,,,,,160,0,7,,,,,6,,,,68,0
140162,note_on,,,,,96,0,3,,,,,2,,,,64,0
140162,note_on,,,,,0,0,3,,,,,2,,,,65,108
140166,note_on,,,,,224,0,9,,,,,8,,,,44,45
140166,note_on,,,,,192,0,4,,,,,3,,,,56,92
140168,note_on,,,,,94,0,6,,,,,5,,,,64,0
140168,note_on,,,,,224,0,8,,,,,7,,,,56,45
140170,note_on,,,,,2,0,6,,,,,5,,,,65,45
140254,note_on,,,,,478,0,5,,,,,4,,,,72,0
140256,note_on,,,,,2,0,5,,,,,4,,,,69,45
140258,note_on,,,,,96,0,3,,,,,2,,,,72,0
140258,note_on,,,,,0,0,3,,,,,2,,,,69,108
140352,note_on,,,,,0,0,5,,,,,4,,,,70,45
140352,note_on,,,,,96,0,5,,,,,4,,,,69,0
140354,note_on,,,,,0,0,3,,,,,2,,,,70,108
140354,note_on,,,,,96,0,3,,,,,2,,,,69,0
140354,note_on,,,,,224,0,7,,,,,6,,,,62,45
140448,note_on,,,,,96,0,5,,,,,4,,,,70,0
140448,note_on,,,,,0,0,5,,,,,4,,,,69,45
140450,note_on,,,,,0,0,3,,,,,2,,,,69,108
140450,note_on,,,,,96,0,3,,,,,2,,,,70,0
140502,note_on,,,,,336,0,9,,,,,8,,,,44,0
140504,note_on,,,,,336,0,8,,,,,7,,,,56,0
140542,note_on,,,,,94,0,5,,,,,4,,,,69,0
140544,note_on,,,,,2,0,5,,,,,4,,,,70,45
140546,note_on,,,,,96,0,3,,,,,2,,,,69,0
140546,note_on,,,,,0,0,3,,,,,2,,,,65,0
140546,note_on,,,,,0,0,3,,,,,2,,,,70,108
140550,note_on,,,,,0,0,4,,,,,3,,,,55,92
140550,note_on,,,,,384,0,4,,,,,3,,,,56,0
140550,note_on,,,,,48,0,9,,,,,8,,,,43,45
140552,note_on,,,,,48,0,8,,,,,7,,,,55,45
140640,note_on,,,,,286,0,7,,,,,6,,,,62,0
140642,note_on,,,,,2,0,7,,,,,6,,,,62,45
140646,note_on,,,,,96,0,4,,,,,3,,,,62,92
140738,note_on,,,,,96,0,7,,,,,6,,,,62,0
140738,note_on,,,,,0,0,7,,,,,6,,,,63,45
140742,note_on,,,,,96,0,4,,,,,3,,,,62,0
140742,note_on,,,,,0,0,4,,,,,3,,,,63,92
140746,note_on,,,,,576,0,6,,,,,5,,,,65,0
140746,note_on,,,,,0,0,6,,,,,5,,,,58,45
140834,note_on,,,,,96,0,7,,,,,6,,,,63,0
140834,note_on,,,,,0,0,7,,,,,6,,,,62,45
140838,note_on,,,,,96,0,4,,,,,3,,,,63,0
140838,note_on,,,,,0,0,4,,,,,3,,,,62,92
140886,note_on,,,,,336,0,9,,,,,8,,,,43,0
140888,note_on,,,,,336,0,8,,,,,7,,,,55,0
140906,note_on,,,,,160,0,6,,,,,5,,,,58,0
140928,note_on,,,,,94,0,7,,,,,6,,,,62,0
140930,note_on,,,,,2,0,7,,,,,6,,,,63,45
140934,note_on,,,,,96,0,4,,,,,3,,,,62,0
140934,note_on,,,,,0,0,4,,,,,3,,,,55,0
140934,note_on,,,,,0,0,4,,,,,3,,,,60,92
140934,note_on,,,,,48,0,9,,,,,8,,,,48,45
140934,note_on,,,,,0,0,4,,,,,3,,,,63,92
140936,note_on,,,,,48,0,8,,,,,7,,,,60,45
141026,note_on,,,,,0,0,3,,,,,2,,,,74,108
141026,note_on,,,,,480,0,3,,,,,2,,,,70,0
141034,note_on,,,,,128,0,6,,,,,5,,,,74,45
141090,note_on,,,,,160,0,7,,,,,6,,,,63,0
141122,note_on,,,,,0,0,3,,,,,2,,,,75,108
141122,note_on,,,,,96,0,3,,,,,2,,,,74,0
141122,note_on,,,,,32,0,7,,,,,6,,,,67,45
141130,note_on,,,,,0,0,6,,,,,5,,,,75,45
141130,note_on,,,,,96,0,6,,,,,5,,,,74,0
141218,note_on,,,,,96,0,3,,,,,2,,,,75,0
141218,note_on,,,,,0,0,3,,,,,2,,,,74,108
141226,note_on,,,,,0,0,6,,,,,5,,,,74,45
141226,note_on,,,,,96,0,6,,,,,5,,,,75,0
141264,note_on,,,,,720,0,5,,,,,4,,,,70,0
141270,note_on,,,,,336,0,9,,,,,8,,,,48,0
141272,note_on,,,,,336,0,8,,,,,7,,,,60,0
141312,set_tempo,,,,,1536,1,0,,300000,,,,,,,,
141314,note_on,,,,,96,0,3,,,,,2,,,,74,0
141314,note_on,,,,,0,0,3,,,,,2,,,,75,108
141318,note_on,,,,,0,0,4,,,,,3,,,,53,92
141318,note_on,,,,,384,0,4,,,,,3,,,,63,0
141318,note_on,,,,,0,0,4,,,,,3,,,,60,0
141318,note_on,,,,,48,0,9,,,,,8,,,,41,45
141320,note_on,,,,,48,0,8,,,,,7,,,,53,45
141320,note_on,,,,,94,0,6,,,,,5,,,,74,0
141322,note_on,,,,,2,0,6,,,,,5,,,,75,45
141408,note_on,,,,,144,0,5,,,,,4,,,,79,45
141410,note_on,,,,,96,0,3,,,,,2,,,,79,108
141504,note_on,,,,,96,0,5,,,,,4,,,,79,0
141504,note_on,,,,,0,0,5,,,,,4,,,,80,45
141506,note_on,,,,,384,0,7,,,,,6,,,,67,0
141506,note_on,,,,,0,0,7,,,,,6,,,,65,45
141506,note_on,,,,,0,0,3,,,,,2,,,,80,108
141506,note_on,,,,,96,0,3,,,,,2,,,,79,0
141600,note_on,,,,,96,0,5,,,,,4,,,,80,0
141600,note_on,,,,,0,0,5,,,,,4,,,,79,45
141602,note_on,,,,,96,0,3,,,,,2,,,,80,0
141602,note_on,,,,,0,0,3,,,,,2,,,,79,108
141654,note_on,,,,,336,0,9,,,,,8,,,,41,0
141656,note_on,,,,,336,0,8,,,,,7,,,,53,0
141694,note_on,,,,,94,0,5,,,,,4,,,,79,0
141696,note_on,,,,,2,0,5,,,,,4,,,,80,45
141698,note_on,,,,,96,0,3,,,,,2,,,,79,0
141698,note_on,,,,,0,0,3,,,,,2,,,,75,0
141698,note_on,,,,,0,0,3,,,,,2,,,,80,108
141698,note_on,,,,,0,0,3,,,,,2,,,,74,108
141702,note_on,,,,,384,0,4,,,,,3,,,,53,0
141702,note_on,,,,,48,0,9,,,,,8,,,,46,45
141702,note_on,,,,,0,0,4,,,,,3,,,,58,92
141704,note_on,,,,,48,0,8,,,,,7,,,,58,45
141706,note_on,,,,,384,0,6,,,,,5,,,,75,0
141706,note_on,,,,,0,0,6,,,,,5,,,,74,45
141794,note_on,,,,,0,0,3,,,,,2,,,,84,108
141794,note_on,,,,,96,0,3,,,,,2,,,,80,0
141842,note_on,,,,,336,0,7,,,,,6,,,,65,0
141862,note_on,,,,,160,0,9,,,,,8,,,,46,0
141864,note_on,,,,,160,0,8,,,,,7,,,,58,0
141890,note_on,,,,,0,0,3,,,,,2,,,,82,108
141890,note_on,,,,,96,0,3,,,,,2,,,,84,0
141890,note_on,,,,,0,0,3,,,,,2,,,,74,0
141890,note_on,,,,,48,0,7,,,,,6,,,,70,45
141894,note_on,,,,,32,0,9,,,,,8,,,,48,45
141894,note_on,,,,,0,0,4,,,,,3,,,,60,92
141894,note_on,,,,,192,0,4,,,,,3,,,,58,0
141896,note_on,,,,,32,0,8,,,,,7,,,,60,45
141898,note_on,,,,,192,0,6,,,,,5,,,,74,0
141898,note_on,,,,,0,0,6,,,,,5,,,,75,45
141986,note_on,,,,,96,0,3,,,,,2,,,,82,0
141986,note_on,,,,,0,0,3,,,,,2,,,,80,108
141988,note_on,,,,,94,0,9,,,,,8,,,,48,0
141990,note_on,,,,,0,0,4,,,,,3,,,,62,92
141990,note_on,,,,,96,0,4,,,,,3,,,,60,0
141990,note_on,,,,,2,0,9,,,,,8,,,,50,45
141990,note_on,,,,,94,0,8,,,,,7,,,,60,0
141992,note_on,,,,,2,0,8,,,,,7,,,,62,45
141994,note_on,,,,,0,0,6,,,,,5,,,,77,45
141994,note_on,,,,,96,0,6,,,,,5,,,,75,0
142032,note_on,,,,,336,0,5,,,,,4,,,,80,0
142050,note_on,,,,,160,0,7,,,,,6,,,,70,0
142080,note_on,,,,,48,0,5,,,,,4,,,,79,45
142082,note_on,,,,,32,0,7,,,,,6,,,,70,45
142082,note_on,,,,,96,0,3,,,,,2,,,,80,0
142082,note_on,,,,,0,0,3,,,,,2,,,,79,108
142084,note_on,,,,,94,0,9,,,,,8,,,,50,0
142086,note_on,,,,,0,0,4,,,,,3,,,,63,92
142086,note_on,,,,,96,0,4,,,,,3,,,,62,0
142086,note_on,,,,,2,0,9,,,,,8,,,,51,45
142086,note_on,,,,,94,0,8,,,,,7,,,,62,0
142088,note_on,,,,,2,0,8,,,,,7,,,,63,45
142088,note_on,,,,,94,0,6,,,,,5,,,,77,0
142090,note_on,,,,,2,0,6,,,,,5,,,,75,45
142182,note_on,,,,,96,0,4,,,,,3,,,,63,0
142182,note_on,,,,,0,0,4,,,,,3,,,,62,92
142240,note_on,,,,,160,0,5,,,,,4,,,,79,0
142242,note_on,,,,,160,0,7,,,,,6,,,,70,0
142246,note_on,,,,,160,0,9,,,,,8,,,,51,0
142248,note_on,,,,,160,0,8,,,,,7,,,,63,0
142250,note_on,,,,,160,0,6,,,,,5,,,,75,0
142274,note_on,,,,,0,0,3,,,,,2,,,,80,108
142274,note_on,,,,,192,0,3,,,,,2,,,,79,0
142278,note_on,,,,,96,0,4,,,,,3,,,,62,0
142278,note_on,,,,,0,0,4,,,,,3,,,,60,92
142370,note_on,,,,,0,0,3,,,,,2,,,,82,108
142370,note_on,,,,,96,0,3,,,,,2,,,,80,0
142374,note_on,,,,,0,0,4,,,,,3,,,,58,92
142374,note_on,,,,,96,0,4,,,,,3,,,,60,0
142464,note_on,,,,,224,0,5,,,,,4,,,,72,45
142466,note_on,,,,,224,0,7,,,,,6,,,,68,45
142466,note_on,,,,,96,0,3,,,,,2,,,,82,0
142466,note_on,,,,,0,0,3,,,,,2,,,,84,108
142470,note_on,,,,,0,0,4,,,,,3,,,,56,92
142470,note_on,,,,,224,0,9,,,,,8,,,,46,45
142470,note_on,,,,,96,0,4,,,,,3,,,,58,0
142472,note_on,,,,,224,0,8,,,,,7,,,,58,45
142474,note_on,,,,,224,0,6,,,,,5,,,,63,45
142562,note_on,,,,,96,0,3,,,,,2,,,,84,0
142562,note_on,,,,,0,0,3,,,,,2,,,,72,108
142566,note_on,,,,,0,0,4,,,,,3,,,,55,92
142566,note_on,,,,,96,0,4,,,,,3,,,,56,0
142624,note_on,,,,,160,0,5,,,,,4,,,,72,0
142626,note_on,,,,,160,0,7,,,,,6,,,,68,0
142630,note_on,,,,,160,0,9,,,,,8,,,,46,0
142632,note_on,,,,,160,0,8,,,,,7,,,,58,0
142634,note_on,,,,,160,0,6,,,,,5,,,,63,0
142658,note_on,,,,,0,0,3,,,,,2,,,,74,108
142658,note_on,,,,,96,0,3,,,,,2,,,,72,0
142662,note_on,,,,,96,0,4,,,,,3,,,,55,0
142662,note_on,,,,,0,0,4,,,,,3,,,,53,92
142754,note_on,,,,,96,0,3,,,,,2,,,,74,0
142754,note_on,,,,,0,0,3,,,,,2,,,,75,108
142758,note_on,,,,,0,0,4,,,,,3,,,,51,92
142758,note_on,,,,,96,0,4,,,,,3,,,,53,0
142848,note_on,,,,,224,0,5,,,,,4,,,,72,45
142850,note_on,,,,,96,0,3,,,,,2,,,,75,0
142850,note_on,,,,,0,0,3,,,,,2,,,,77,108
142850,note_on,,,,,224,0,7,,,,,6,,,,68,45
142854,note_on,,,,,224,0,9,,,,,8,,,,50,45
142854,note_on,,,,,96,0,4,,,,,3,,,,51,0
142854,note_on,,,,,0,0,4,,,,,3,,,,50,92
142856,note_on,,,,,224,0,8,,,,,7,,,,62,45
142858,note_on,,,,,224,0,6,,,,,5,,,,65,45
142950,note_on,,,,,96,0,4,,,,,3,,,,50,0
142950,note_on,,,,,0,0,4,,,,,3,,,,48,92
143008,note_on,,,,,160,0,5,,,,,4,,,,72,0
143010,note_on,,,,,160,0,7,,,,,6,,,,68,0
143014,note_on,,,,,160,0,9,,,,,8,,,,50,0
143016,note_on,,,,,160,0,8,,,,,7,,,,62,0
143018,note_on,,,,,160,0,6,,,,,5,,,,65,0
143042,note_on,,,,,0,0,3,,,,,2,,,,79,108
143042,note_on,,,,,192,0,3,,,,,2,,,,77,0
143046,note_on,,,,,96,0,4,,,,,3,,,,48,0
143046,note_on,,,,,0,0,4,,,,,3,,,,46,92
143138,note_on,,,,,0,0,3,,,,,2,,,,80,108
143138,note_on,,,,,96,0,3,,,,,2,,,,79,0
143142,note_on,,,,,96,0,4,,,,,3,,,,46,0
143142,note_on,,,,,0,0,4,,,,,3,,,,44,92
143232,note_on,,,,,224,0,5,,,,,4,,,,70,45
143234,note_on,,,,,0,0,3,,,,,2,,,,82,108
143234,note_on,,,,,96,0,3,,,,,2,,,,80,0
143234,note_on,,,,,224,0,7,,,,,6,,,,67,45
143238,note_on,,,,,0,0,4,,,,,3,,,,43,92
143238,note_on,,,,,96,0,4,,,,,3,,,,44,0
143238,note_on,,,,,224,0,9,,,,,8,,,,43,45
143240,note_on,,,,,224,0,8,,,,,7,,,,55,45
143242,note_on,,,,,224,0,6,,,,,5,,,,65,45
143330,note_on,,,,,0,0,3,,,,,2,,,,70,108
143330,note_on,,,,,96,0,3,,,,,2,,,,82,0
143334,note_on,,,,,96,0,4,,,,,3,,,,43,0
143334,note_on,,,,,0,0,4,,,,,3,,,,41,92
143392,note_on,,,,,160,0,5,,,,,4,,,,70,0
143394,note_on,,,,,160,0,7,,,,,6,,,,67,0
143398,note_on,,,,,160,0,9,,,,,8,,,,43,0
143400,note_on,,,,,160,0,8,,,,,7,,,,55,0
143402,note_on,,,,,160,0,6,,,,,5,,,,65,0
143426,note_on,,,,,96,0,3,,,,,2,,,,70,0
143426,note_on,,,,,0,0,3,,,,,2,,,,72,108
143430,note_on,,,,,96,0,4,,,,,3,,,,41,0
143430,note_on,,,,,0,0,4,,,,,3,,,,39,92
143522,note_on,,,,,96,0,3,,,,,2,,,,72,0
143522,note_on,,,,,0,0,3,,,,,2,,,,74,108
143526,note_on,,,,,96,0,4,,,,,3,,,,39,0
143526,note_on,,,,,0,0,4,,,,,3,,,,38,92
143616,set_tempo,,,,,2304,1,0,,279070,,,,,,,,
143616,note_on,,,,,224,0,5,,,,,4,,,,70,45
143618,note_on,,,,,224,0,7,,,,,6,,,,67,45
143618,note_on,,,,,96,0,3,,,,,2,,,,74,0
143618,note_on,,,,,0,0,3,,,,,2,,,,77,92
143622,note_on,,,,,0,0,4,,,,,3,,,,36,92
143622,note_on,,,,,224,0,9,,,,,8,,,,48,45
143622,note_on,,,,,96,0,4,,,,,3,,,,38,0
143624,note_on,,,,,224,0,8,,,,,7,,,,60,45
143626,note_on,,,,,224,0,6,,,,,5,,,,63,45
143666,note_on,,,,,48,0,3,,,,,2,,,,77,0
143666,note_on,,,,,0,0,3,,,,,2,,,,75,92
143714,note_on,,,,,48,0,3,,,,,2,,,,75,0
143714,note_on,,,,,0,0,3,,,,,2,,,,74,92
143762,note_on,,,,,48,0,3,,,,,2,,,,74,0
143762,note_on,,,,,0,0,3,,,,,2,,,,75,92
143776,note_on,,,,,160,0,5,,,,,4,,,,70,0
143778,note_on,,,,,160,0,7,,,,,6,,,,67,0
143782,note_on,,,,,160,0,9,,,,,8,,,,48,0
143784,note_on,,,,,160,0,8,,,,,7,,,,60,0
143786,note_on,,,,,160,0,6,,,,,5,,,,63,0
143808,set_tempo,,,,,192,1,0,,307692,,,,,,,,
143810,note_on,,,,,48,0,3,,,,,2,,,,75,0
143810,note_on,,,,,0,0,3,,,,,2,,,,77,108
143814,note_on,,,,,192,0,4,,,,,3,,,,36,0
143814,note_on,,,,,0,0,4,,,,,3,,,,38,92
143906,note_on,,,,,0,0,3,,,,,2,,,,79,108
143906,note_on,,,,,96,0,3,,,,,2,,,,77,0
143910,note_on,,,,,0,0,4,,,,,3,,,,39,92
143910,note_on,,,,,96,0,4,,,,,3,,,,38,0
144000,note_on,,,,,224,0,5,,,,,4,,,,68,45
144002,note_on,,,,,0,0,3,,,,,2,,,,80,108
144002,note_on,,,,,224,0,7,,,,,6,,,,65,45
144002,note_on,,,,,96,0,3,,,,,2,,,,79,0
144006,note_on,,,,,224,0,9,,,,,8,,,,41,45
144006,note_on,,,,,96,0,4,,,,,3,,,,39,0
144006,note_on,,,,,0,0,4,,,,,3,,,,41,92
144008,note_on,,,,,224,0,8,,,,,7,,,,53,45
144010,note_on,,,,,224,0,6,,,,,5,,,,63,45
144102,note_on,,,,,0,0,4,,,,,3,,,,43,92
144102,note_on,,,,,96,0,4,,,,,3,,,,41,0
144160,note_on,,,,,160,0,5,,,,,4,,,,68,0
144162,note_on,,,,,160,0,7,,,,,6,,,,65,0
144166,note_on,,,,,160,0,9,,,,,8,,,,41,0
144168,note_on,,,,,160,0,8,,,,,7,,,,53,0
144170,note_on,,,,,160,0,6,,,,,5,,,,63,0
144194,note_on,,,,,192,0,3,,,,,2,,,,72,108
144198,note_on,,,,,96,0,4,,,,,3,,,,43,0
144198,note_on,,,,,0,0,4,,,,,3,,,,44,92
144294,note_on,,,,,96,0,4,,,,,3,,,,44,0
144294,note_on,,,,,0,0,4,,,,,3,,,,45,92
144384,note_on,,,,,224,0,5,,,,,4,,,,68,45
144386,note_on,,,,,0,0,3,,,,,2,,,,74,108
144386,note_on,,,,,192,0,3,,,,,2,,,,72,0
144386,note_on,,,,,224,0,7,,,,,6,,,,65,45
144390,note_on,,,,,224,0,9,,,,,8,,,,46,45
144390,note_on,,,,,0,0,4,,,,,3,,,,46,92
144390,note_on,,,,,96,0,4,,,,,3,,,,45,0
144392,note_on,,,,,224,0,8,,,,,7,,,,58,45
144394,note_on,,,,,224,0,6,,,,,5,,,,62,45
144486,note_on,,,,,0,0,4,,,,,3,,,,47,92
144486,note_on,,,,,96,0,4,,,,,3,,,,46,0
144544,note_on,,,,,160,0,5,,,,,4,,,,68,0
144546,note_on,,,,,160,0,7,,,,,6,,,,65,0
144550,note_on,,,,,160,0,9,,,,,8,,,,46,0
144552,note_on,,,,,160,0,8,,,,,7,,,,58,0
144554,note_on,,,,,160,0,6,,,,,5,,,,62,0
144578,note_on,,,,,192,0,3,,,,,2,,,,74,0
144578,note_on,,,,,0,0,3,,,,,2,,,,75,108
144582,note_on,,,,,96,0,4,,,,,3,,,,47,0
144582,note_on,,,,,0,0,4,,,,,3,,,,48,92
144674,note_on,,,,,96,0,3,,,,,2,,,,75,0
144674,note_on,,,,,0,0,3,,,,,2,,,,77,108
144678,note_on,,,,,96,0,4,,,,,3,,,,48,0
144678,note_on,,,,,0,0,4,,,,,3,,,,50,92
144768,note_on,,,,,224,0,5,,,,,4,,,,67,45
144770,note_on,,,,,224,0,7,,,,,6,,,,63,45
144770,note_on,,,,,0,0,3,,,,,2,,,,75,108
144770,note_on,,,,,0,0,3,,,,,2,,,,80,0
144770,note_on,,,,,96,0,3,,,,,2,,,,77,0
144770,note_on,,,,,0,0,3,,,,,2,,,,79,108
144774,note_on,,,,,96,0,4,,,,,3,,,,50,0
144774,note_on,,,,,0,0,4,,,,,3,,,,51,92
144774,note_on,,,,,224,0,9,,,,,8,,,,39,45
144776,note_on,,,,,224,0,8,,,,,7,,,,51,45
144778,note_on,,,,,224,0,6,,,,,5,,,,58,45
144870,note_on,,,,,96,0,4,,,,,3,,,,51,0
144870,note_on,,,,,0,0,4,,,,,3,,,,53,92
144928,note_on,,,,,160,0,5,,,,,4,,,,67,0
144930,note_on,,,,,160,0,7,,,,,6,,,,63,0
144934,note_on,,,,,160,0,9,,,,,8,,,,39,0
144936,note_on,,,,,160,0,8,,,,,7,,,,51,0
144938,note_on,,,,,160,0,6,,,,,5,,,,58,0
144966,note_on,,,,,0,0,4,,,,,3,,,,54,92
144966,note_on,,,,,96,0,4,,,,,3,,,,53,0
145062,note_on,,,,,96,0,4,,,,,3,,,,54,0
145062,note_on,,,,,0,0,4,,,,,3,,,,55,92
145152,set_tempo,,,,,1344,1,0,,300000,,,,,,,,
145154,note_on,,,,,384,0,3,,,,,2,,,,75,0
145154,note_on,,,,,0,0,3,,,,,2,,,,72,108
145158,note_on,,,,,96,0,4,,,,,3,,,,55,0
145158,note_on,,,,,224,0,9,,,,,8,,,,44,45
145158,note_on,,,,,0,0,4,,,,,3,,,,56,92
145160,note_on,,,,,224,0,8,,,,,7,,,,56,45
145250,note_on,,,,,96,0,3,,,,,2,,,,79,0
145250,note_on,,,,,0,0,3,,,,,2,,,,77,108
145344,note_on,,,,,416,0,5,,,,,4,,,,77,45
145346,note_on,,,,,416,0,7,,,,,6,,,,65,45
145346,note_on,,,,,96,0,3,,,,,2,,,,77,0
145346,note_on,,,,,0,0,3,,,,,2,,,,84,108
145354,note_on,,,,,416,0,6,,,,,5,,,,72,45
145442,note_on,,,,,0,0,3,,,,,2,,,,82,108
145442,note_on,,,,,96,0,3,,,,,2,,,,84,0
145536,set_tempo,,,,,384,1,0,,292683,,,,,,,,
145538,note_on,,,,,96,0,3,,,,,2,,,,82,0
145538,note_on,,,,,0,0,3,,,,,2,,,,80,108
145634,note_on,,,,,0,0,3,,,,,2,,,,79,108
145634,note_on,,,,,96,0,3,,,,,2,,,,80,0
145682,note_on,,,,,336,0,7,,,,,6,,,,65,0
145690,note_on,,,,,336,0,6,,,,,5,,,,72,0
145728,note_on,,,,,384,0,5,,,,,4,,,,77,0
145728,note_on,,,,,0,0,5,,,,,4,,,,75,45
145730,note_on,,,,,96,0,3,,,,,2,,,,79,0
145730,note_on,,,,,48,0,7,,,,,6,,,,65,45
145730,note_on,,,,,0,0,3,,,,,2,,,,77,108
145734,note_on,,,,,576,0,9,,,,,8,,,,44,0
145734,note_on,,,,,576,0,4,,,,,3,,,,56,0
145734,note_on,,,,,0,0,9,,,,,8,,,,45,45
145734,note_on,,,,,0,0,4,,,,,3,,,,57,92
145736,note_on,,,,,0,0,8,,,,,7,,,,57,45
145736,note_on,,,,,576,0,8,,,,,7,,,,56,0
145738,note_on,,,,,48,0,6,,,,,5,,,,72,45
145826,note_on,,,,,96,0,3,,,,,2,,,,77,0
145826,note_on,,,,,0,0,3,,,,,2,,,,75,108
145888,note_on,,,,,160,0,5,,,,,4,,,,75,0
145890,note_on,,,,,160,0,7,,,,,6,,,,65,0
145894,note_on,,,,,160,0,9,,,,,8,,,,45,0
145896,note_on,,,,,160,0,8,,,,,7,,,,57,0
145898,note_on,,,,,160,0,6,,,,,5,,,,72,0
145920,note_on,,,,,32,0,5,,,,,4,,,,74,45
145922,note_on,,,,,96,0,3,,,,,2,,,,75,0
145922,note_on,,,,,0,0,3,,,,,2,,,,72,0
145922,note_on,,,,,0,0,3,,,,,2,,,,74,108
145922,note_on,,,,,32,0,7,,,,,6,,,,65,45
145926,note_on,,,,,32,0,9,,,,,8,,,,46,45
145926,note_on,,,,,0,0,4,,,,,3,,,,58,92
145926,note_on,,,,,192,0,4,,,,,3,,,,57,0
145928,note_on,,,,,32,0,8,,,,,7,,,,58,45
145930,note_on,,,,,32,0,6,,,,,5,,,,70,45
146022,note_on,,,,,96,0,4,,,,,3,,,,58,0
146022,note_on,,,,,0,0,4,,,,,3,,,,65,92
146080,note_on,,,,,160,0,5,,,,,4,,,,74,0
146082,note_on,,,,,160,0,3,,,,,2,,,,74,0
146082,note_on,,,,,160,0,7,,,,,6,,,,65,0
146086,note_on,,,,,160,0,9,,,,,8,,,,46,0
146088,note_on,,,,,160,0,8,,,,,7,,,,58,0
146090,note_on,,,,,160,0,6,,,,,5,,,,70,0
146114,note_on,,,,,32,0,3,,,,,2,,,,46,127
146118,note_on,,,,,96,0,4,,,,,3,,,,65,0
146118,note_on,,,,,0,0,4,,,,,3,,,,62,92
146214,note_on,,,,,0,0,4,,,,,3,,,,65,92
146214,note_on,,,,,96,0,4,,,,,3,,,,62,0
146306,note_on,,,,,0,0,3,,,,,2,,,,47,127
146306,note_on,,,,,192,0,3,,,,,2,,,,46,0
146310,note_on,,,,,96,0,4,,,,,3,,,,65,0
146310,note_on,,,,,0,0,4,,,,,3,,,,62,92
146406,note_on,,,,,0,0,4,,,,,3,,,,65,92
146406,note_on,,,,,96,0,4,,,,,3,,,,62,0
146498,note_on,,,,,192,0,3,,,,,2,,,,47,0
146498,note_on,,,,,0,0,3,,,,,2,,,,46,127
146502,note_on,,,,,96,0,4,,,,,3,,,,65,0
146502,note_on,,,,,0,0,4,,,,,3,,,,62,92
146598,note_on,,,,,96,0,4,,,,,3,,,,62,0
146598,note_on,,,,,0,0,4,,,,,3,,,,65,92
146658,note_on,,,,,160,0,3,,,,,2,,,,46,0
146690,note_on,,,,,32,0,3,,,,,2,,,,45,127
146694,note_on,,,,,0,0,4,,,,,3,,,,63,92
146694,note_on,,,,,96,0,4,,,,,3,,,,65,0
146790,note_on,,,,,96,0,4,,,,,3,,,,63,0
146790,note_on,,,,,0,0,4,,,,,3,,,,66,92
146886,note_on,,,,,96,0,4,,,,,3,,,,66,0
146886,note_on,,,,,0,0,4,,,,,3,,,,63,92
146982,note_on,,,,,96,0,4,,,,,3,,,,63,0
146982,note_on,,,,,0,0,4,,,,,3,,,,66,92
147026,note_on,,,,,336,0,3,,,,,2,,,,45,0
147074,note_on,,,,,48,0,3,,,,,2,,,,46,127
147078,note_on,,,,,96,0,4,,,,,3,,,,66,0
147078,note_on,,,,,0,0,4,,,,,3,,,,62,92
147174,note_on,,,,,96,0,4,,,,,3,,,,62,0
147174,note_on,,,,,0,0,4,,,,,3,,,,65,92
147270,note_on,,,,,96,0,4,,,,,3,,,,65,0
147270,note_on,,,,,0,0,4,,,,,3,,,,62,92
147366,note_on,,,,,0,0,4,,,,,3,,,,65,92
147366,note_on,,,,,96,0,4,,,,,3,,,,62,0
147410,note_on,,,,,336,0,3,,,,,2,,,,46,0
147456,note_on,,,,,1376,0,5,,,,,4,,,,75,45
147458,note_on,,,,,1376,0,7,,,,,6,,,,57,45
147458,note_on,,,,,48,0,3,,,,,2,,,,47,127
147462,note_on,,,,,1376,0,9,,,,,8,,,,35,45
147462,note_on,,,,,96,0,4,,,,,3,,,,65,0
147462,note_on,,,,,0,0,4,,,,,3,,,,63,92
147464,note_on,,,,,1376,0,8,,,,,7,,,,47,45
147466,note_on,,,,,1376,0,6,,,,,5,,,,63,45
147558,note_on,,,,,0,0,4,,,,,3,,,,69,92
147558,note_on,,,,,96,0,4,,,,,3,,,,63,0
147618,note_on,,,,,160,0,3,,,,,2,,,,47,0
147648,note_on,,,,,0,0,5,,,,,4,,,,69,45
147648,note_on,,,,,192,0,5,,,,,4,,,,75,0
147650,note_on,,,,,192,0,7,,,,,6,,,,57,0
147650,note_on,,,,,0,0,7,,,,,6,,,,51,45
147654,note_on,,,,,0,0,4,,,,,3,,,,66,92
147654,note_on,,,,,96,0,4,,,,,3,,,,69,0
147658,note_on,,,,,0,0,6,,,,,5,,,,66,45
147658,note_on,,,,,192,0,6,,,,,5,,,,63,0
147742,note_on,,,,,94,0,5,,,,,4,,,,69,0
147744,note_on,,,,,94,0,7,,,,,6,,,,51,0
147750,note_on,,,,,0,0,4,,,,,3,,,,69,92
147750,note_on,,,,,96,0,4,,,,,3,,,,66,0
147752,note_on,,,,,94,0,6,,,,,5,,,,66,0
147840,note_on,,,,,98,0,5,,,,,4,,,,75,45
147842,note_on,,,,,224,0,3,,,,,2,,,,87,108
147842,note_on,,,,,98,0,7,,,,,6,,,,57,45
147846,note_on,,,,,96,0,4,,,,,3,,,,69,0
147846,note_on,,,,,0,0,4,,,,,3,,,,63,92
147850,note_on,,,,,98,0,6,,,,,5,,,,63,45
147942,note_on,,,,,96,0,4,,,,,3,,,,63,0
147942,note_on,,,,,0,0,4,,,,,3,,,,69,92
148032,note_on,,,,,0,0,5,,,,,4,,,,69,45
148032,note_on,,,,,192,0,5,,,,,4,,,,75,0
148034,note_on,,,,,0,0,7,,,,,6,,,,51,45
148034,note_on,,,,,192,0,7,,,,,6,,,,57,0
148038,note_on,,,,,0,0,4,,,,,3,,,,66,92
148038,note_on,,,,,96,0,4,,,,,3,,,,69,0
148042,note_on,,,,,192,0,6,,,,,5,,,,63,0
148042,note_on,,,,,0,0,6,,,,,5,,,,66,45
148126,note_on,,,,,94,0,5,,,,,4,,,,69,0
148128,note_on,,,,,94,0,7,,,,,6,,,,51,0
148134,note_on,,,,,96,0,4,,,,,3,,,,66,0
148134,note_on,,,,,0,0,4,,,,,3,,,,69,92
148136,note_on,,,,,94,0,6,,,,,5,,,,66,0
148224,note_on,,,,,98,0,5,,,,,4,,,,75,45
148226,note_on,,,,,98,0,7,,,,,6,,,,57,45
148230,note_on,,,,,0,0,4,,,,,3,,,,63,92
148230,note_on,,,,,96,0,4,,,,,3,,,,69,0
148234,note_on,,,,,98,0,6,,,,,5,,,,63,45
148258,note_on,,,,,416,0,3,,,,,2,,,,87,0
148322,note_on,,,,,64,0,3,,,,,2,,,,86,108
148326,note_on,,,,,96,0,4,,,,,3,,,,63,0
148326,note_on,,,,,0,0,4,,,,,3,,,,69,92
148354,note_on,,,,,32,0,3,,,,,2,,,,86,0
148416,note_on,,,,,0,0,5,,,,,4,,,,69,45
148416,note_on,,,,,192,0,5,,,,,4,,,,75,0
148418,note_on,,,,,192,0,7,,,,,6,,,,57,0
148418,note_on,,,,,64,0,3,,,,,2,,,,87,108
148418,note_on,,,,,0,0,7,,,,,6,,,,51,45
148422,note_on,,,,,96,0,4,,,,,3,,,,69,0
148422,note_on,,,,,0,0,4,,,,,3,,,,66,92
148426,note_on,,,,,0,0,6,,,,,5,,,,66,45
148426,note_on,,,,,192,0,6,,,,,5,,,,63,0
148450,note_on,,,,,32,0,3,,,,,2,,,,87,0
148510,note_on,,,,,94,0,5,,,,,4,,,,69,0
148512,note_on,,,,,94,0,7,,,,,6,,,,51,0
148514,note_on,,,,,64,0,3,,,,,2,,,,86,108
148518,note_on,,,,,0,0,4,,,,,3,,,,69,92
148518,note_on,,,,,96,0,4,,,,,3,,,,66,0
148520,note_on,,,,,94,0,6,,,,,5,,,,66,0
148546,note_on,,,,,32,0,3,,,,,2,,,,86,0
148608,note_on,,,,,98,0,5,,,,,4,,,,75,45
148610,note_on,,,,,64,0,3,,,,,2,,,,87,108
148610,note_on,,,,,98,0,7,,,,,6,,,,57,45
148614,note_on,,,,,0,0,4,,,,,3,,,,63,92
148614,note_on,,,,,96,0,4,,,,,3,,,,69,0
148618,note_on,,,,,98,0,6,,,,,5,,,,63,45
148710,note_on,,,,,96,0,4,,,,,3,,,,63,0
148710,note_on,,,,,0,0,4,,,,,3,,,,66,92
148800,note_on,,,,,192,0,5,,,,,4,,,,75,0
148800,note_on,,,,,0,0,5,,,,,4,,,,69,45
148802,note_on,,,,,0,0,7,,,,,6,,,,51,45
148802,note_on,,,,,192,0,7,,,,,6,,,,57,0
148802,note_on,,,,,0,0,3,,,,,2,,,,81,108
148802,note_on,,,,,192,0,3,,,,,2,,,,87,0
148806,note_on,,,,,96,0,4,,,,,3,,,,66,0
148806,note_on,,,,,0,0,4,,,,,3,,,,65,92
148810,note_on,,,,,0,0,6,,,,,5,,,,66,45
148810,note_on,,,,,192,0,6,,,,,5,,,,63,0
148894,note_on,,,,,94,0,5,,,,,4,,,,69,0
148896,note_on,,,,,94,0,7,,,,,6,,,,51,0
148902,note_on,,,,,0,0,4,,,,,3,,,,63,92
148902,note_on,,,,,96,0,4,,,,,3,,,,65,0
148904,note_on,,,,,94,0,6,,,,,5,,,,66,0
148950,note_on,,,,,1488,0,9,,,,,8,,,,35,0
148952,note_on,,,,,1488,0,8,,,,,7,,,,47,0
148962,note_on,,,,,160,0,3,,,,,2,,,,81,0
148992,note_on,,,,,98,0,5,,,,,4,,,,70,45
148994,note_on,,,,,98,0,7,,,,,6,,,,53,45
148994,note_on,,,,,32,0,3,,,,,2,,,,82,108
148998,note_on,,,,,96,0,4,,,,,3,,,,63,0
148998,note_on,,,,,48,0,9,,,,,8,,,,34,45
148998,note_on,,,,,0,0,4,,,,,3,,,,62,92
149000,note_on,,,,,48,0,8,,,,,7,,,,46,45
149002,note_on,,,,,98,0,6,,,,,5,,,,62,45
149094,note_on,,,,,96,0,4,,,,,3,,,,62,0
149094,note_on,,,,,0,0,4,,,,,3,,,,65,92
149152,note_on,,,,,160,0,5,,,,,4,,,,70,0
149154,note_on,,,,,160,0,7,,,,,6,,,,53,0
149154,note_on,,,,,160,0,3,,,,,2,,,,82,0
149158,note_on,,,,,160,0,9,,,,,8,,,,34,0
149160,note_on,,,,,160,0,8,,,,,7,,,,46,0
149162,note_on,,,,,160,0,6,,,,,5,,,,62,0
149186,note_on,,,,,32,0,3,,,,,2,,,,46,127
149190,note_on,,,,,96,0,4,,,,,3,,,,65,0
149190,note_on,,,,,0,0,4,,,,,3,,,,62,92
149286,note_on,,,,,0,0,4,,,,,3,,,,65,92
149286,note_on,,,,,96,0,4,,,,,3,,,,62,0
149378,note_on,,,,,0,0,3,,,,,2,,,,47,127
149378,note_on,,,,,192,0,3,,,,,2,,,,46,0
149382,note_on,,,,,96,0,4,,,,,3,,,,65,0
149382,note_on,,,,,0,0,4,,,,,3,,,,62,92
149478,note_on,,,,,96,0,4,,,,,3,,,,62,0
149478,note_on,,,,,0,0,4,,,,,3,,,,65,92
149570,note_on,,,,,0,0,3,,,,,2,,,,46,127
149570,note_on,,,,,192,0,3,,,,,2,,,,47,0
149574,note_on,,,,,96,0,4,,,,,3,,,,65,0
149574,note_on,,,,,0,0,4,,,,,3,,,,62,92
149670,note_on,,,,,96,0,4,,,,,3,,,,62,0
149670,note_on,,,,,0,0,4,,,,,3,,,,65,92
149730,note_on,,,,,160,0,3,,,,,2,,,,46,0
149762,note_on,,,,,32,0,3,,,,,2,,,,45,127
149766,note_on,,,,,0,0,4,,,,,3,,,,63,92
149766,note_on,,,,,96,0,4,,,,,3,,,,65,0
149862,note_on,,,,,0,0,4,,,,,3,,,,66,92
149862,note_on,,,,,96,0,4,,,,,3,,,,63,0
149958,note_on,,,,,96,0,4,,,,,3,,,,66,0
149958,note_on,,,,,0,0,4,,,,,3,,,,63,92
150054,note_on,,,,,0,0,4,,,,,3,,,,66,92
150054,note_on,,,,,96,0,4,,,,,3,,,,63,0
150098,note_on,,,,,336,0,3,,,,,2,,,,45,0
150146,note_on,,,,,48,0,3,,,,,2,,,,46,127
150150,note_on,,,,,96,0,4,,,,,3,,,,66,0
150150,note_on,,,,,0,0,4,,,,,3,,,,62,92
150246,note_on,,,,,0,0,4,,,,,3,,,,65,92
150246,note_on,,,,,96,0,4,,,,,3,,,,62,0
150342,note_on,,,,,0,0,4,,,,,3,,,,62,92
150342,note_on,,,,,96,0,4,,,,,3,,,,65,0
150438,note_on,,,,,0,0,4,,,,,3,,,,65,92
150438,note_on,,,,,96,0,4,,,,,3,,,,62,0
150482,note_on,,,,,336,0,3,,,,,2,,,,46,0
150528,note_on,,,,,1376,0,5,,,,,4,,,,75,45
150530,note_on,,,,,48,0,3,,,,,2,,,,47,127
150530,note_on,,,,,1376,0,7,,,,,6,,,,57,45
150534,note_on,,,,,96,0,4,,,,,3,,,,65,0
150534,note_on,,,,,0,0,4,,,,,3,,,,63,92
150534,note_on,,,,,1376,0,9,,,,,8,,,,35,45
150536,note_on,,,,,1376,0,8,,,,,7,,,,47,45
150538,note_on,,,,,1376,0,6,,,,,5,,,,63,45
150630,note_on,,,,,0,0,4,,,,,3,,,,69,92
150630,note_on,,,,,96,0,4,,,,,3,,,,63,0
150690,note_on,,,,,160,0,3,,,,,2,,,,47,0
150720,note_on,,,,,192,0,5,,,,,4,,,,75,0
150720,note_on,,,,,0,0,5,,,,,4,,,,69,45
150722,note_on,,,,,192,0,7,,,,,6,,,,57,0
150722,note_on,,,,,0,0,7,,,,,6,,,,51,45
150726,note_on,,,,,96,0,4,,,,,3,,,,69,0
150726,note_on,,,,,0,0,4,,,,,3,,,,66,92
150730,note_on,,,,,192,0,6,,,,,5,,,,63,0
150730,note_on,,,,,0,0,6,,,,,5,,,,66,45
150814,note_on,,,,,94,0,5,,,,,4,,,,69,0
150816,note_on,,,,,94,0,7,,,,,6,,,,51,0
150822,note_on,,,,,0,0,4,,,,,3,,,,69,92
150822,note_on,,,,,96,0,4,,,,,3,,,,66,0
150824,note_on,,,,,94,0,6,,,,,5,,,,66,0
150912,note_on,,,,,98,0,5,,,,,4,,,,75,45
150914,note_on,,,,,98,0,7,,,,,6,,,,57,45
150914,note_on,,,,,224,0,3,,,,,2,,,,87,108
150918,note_on,,,,,96,0,4,,,,,3,,,,69,0
150918,note_on,,,,,0,0,4,,,,,3,,,,63,92
150922,note_on,,,,,98,0,6,,,,,5,,,,63,45
151014,note_on,,,,,96,0,4,,,,,3,,,,63,0
151014,note_on,,,,,0,0,4,,,,,3,,,,69,92
151104,note_on,,,,,0,0,5,,,,,4,,,,69,45
151104,note_on,,,,,192,0,5,,,,,4,,,,75,0
151106,note_on,,,,,0,0,7,,,,,6,,,,51,45
151106,note_on,,,,,192,0,7,,,,,6,,,,57,0
151110,note_on,,,,,96,0,4,,,,,3,,,,69,0
151110,note_on,,,,,0,0,4,,,,,3,,,,66,92
151114,note_on,,,,,0,0,6,,,,,5,,,,66,45
151114,note_on,,,,,192,0,6,,,,,5,,,,63,0
151198,note_on,,,,,94,0,5,,,,,4,,,,69,0
151200,note_on,,,,,94,0,7,,,,,6,,,,51,0
151206,note_on,,,,,96,0,4,,,,,3,,,,66,0
151206,note_on,,,,,0,0,4,,,,,3,,,,69,92
151208,note_on,,,,,94,0,6,,,,,5,,,,66,0
151296,note_on,,,,,98,0,5,,,,,4,,,,75,45
151298,note_on,,,,,98,0,7,,,,,6,,,,57,45
151302,note_on,,,,,96,0,4,,,,,3,,,,69,0
151302,note_on,,,,,0,0,4,,,,,3,,,,63,92
151306,note_on,,,,,98,0,6,,,,,5,,,,63,45
151330,note_on,,,,,416,0,3,,,,,2,,,,87,0
151394,note_on,,,,,64,0,3,,,,,2,,,,86,108
151398,note_on,,,,,0,0,4,,,,,3,,,,69,92
151398,note_on,,,,,96,0,4,,,,,3,,,,63,0
151426,note_on,,,,,32,0,3,,,,,2,,,,86,0
151488,note_on,,,,,0,0,5,,,,,4,,,,69,45
151488,note_on,,,,,192,0,5,,,,,4,,,,75,0
151490,note_on,,,,,64,0,3,,,,,2,,,,87,108
151490,note_on,,,,,192,0,7,,,,,6,,,,57,0
151490,note_on,,,,,0,0,7,,,,,6,,,,51,45
151494,note_on,,,,,96,0,4,,,,,3,,,,69,0
151494,note_on,,,,,0,0,4,,,,,3,,,,66,92
151498,note_on,,,,,192,0,6,,,,,5,,,,63,0
151498,note_on,,,,,0,0,6,,,,,5,,,,66,45
151522,note_on,,,,,32,0,3,,,,,2,,,,87,0
151582,note_on,,,,,94,0,5,,,,,4,,,,69,0
151584,note_on,,,,,94,0,7,,,,,6,,,,51,0
151586,note_on,,,,,64,0,3,,,,,2,,,,86,108
151590,note_on,,,,,0,0,4,,,,,3,,,,69,92
151590,note_on,,,,,96,0,4,,,,,3,,,,66,0
151592,note_on,,,,,94,0,6,,,,,5,,,,66,0
151618,note_on,,,,,32,0,3,,,,,2,,,,86,0
151680,note_on,,,,,98,0,5,,,,,4,,,,75,45
151682,note_on,,,,,98,0,7,,,,,6,,,,57,45
151682,note_on,,,,,64,0,3,,,,,2,,,,87,108
151686,note_on,,,,,96,0,4,,,,,3,,,,69,0
151686,note_on,,,,,0,0,4,,,,,3,,,,63,92
151690,note_on,,,,,98,0,6,,,,,5,,,,63,45
151782,note_on,,,,,96,0,4,,,,,3,,,,63,0
151782,note_on,,,,,0,0,4,,,,,3,,,,66,92
151872,note_on,,,,,0,0,5,,,,,4,,,,69,45
151872,note_on,,,,,192,0,5,,,,,4,,,,75,0
151874,note_on,,,,,0,0,3,,,,,2,,,,81,108
151874,note_on,,,,,192,0,7,,,,,6,,,,57,0
151874,note_on,,,,,0,0,7,,,,,6,,,,51,45
151874,note_on,,,,,192,0,3,,,,,2,,,,87,0
151878,note_on,,,,,96,0,4,,,,,3,,,,66,0
151878,note_on,,,,,0,0,4,,,,,3,,,,65,92
151882,note_on,,,,,0,0,6,,,,,5,,,,66,45
151882,note_on,,,,,192,0,6,,,,,5,,,,63,0
151966,note_on,,,,,94,0,5,,,,,4,,,,69,0
151968,note_on,,,,,94,0,7,,,,,6,,,,51,0
151974,note_on,,,,,96,0,4,,,,,3,,,,65,0
151974,note_on,,,,,0,0,4,,,,,3,,,,63,92
151976,note_on,,,,,94,0,6,,,,,5,,,,66,0
152022,note_on,,,,,1488,0,9,,,,,8,,,,35,0
152024,note_on,,,,,1488,0,8,,,,,7,,,,47,0
152034,note_on,,,,,160,0,3,,,,,2,,,,81,0
152064,note_on,,,,,98,0,5,,,,,4,,,,70,45
152066,note_on,,,,,98,0,7,,,,,6,,,,58,45
152066,note_on,,,,,32,0,3,,,,,2,,,,82,108
152070,note_on,,,,,96,0,4,,,,,3,,,,63,0
152070,note_on,,,,,0,0,4,,,,,3,,,,62,92
152070,note_on,,,,,48,0,9,,,,,8,,,,34,45
152072,note_on,,,,,48,0,8,,,,,7,,,,46,45
152074,note_on,,,,,98,0,6,,,,,5,,,,62,45
152166,note_on,,,,,0,0,4,,,,,3,,,,65,92
152166,note_on,,,,,96,0,4,,,,,3,,,,62,0
152224,note_on,,,,,160,0,5,,,,,4,,,,70,0
152226,note_on,,,,,160,0,3,,,,,2,,,,82,0
152230,note_on,,,,,160,0,9,,,,,8,,,,34,0
152232,note_on,,,,,160,0,8,,,,,7,,,,46,0
152234,note_on,,,,,160,0,6,,,,,5,,,,62,0
152262,note_on,,,,,96,0,4,,,,,3,,,,65,0
152262,note_on,,,,,0,0,4,,,,,3,,,,63,92
152358,note_on,,,,,0,0,4,,,,,3,,,,62,92
152358,note_on,,,,,96,0,4,,,,,3,,,,63,0
152448,set_tempo,,,,,6912,1,0,,300000,,,,,,,,
152448,note_on,,,,,224,0,5,,,,,4,,,,78,45
152450,note_on,,,,,224,0,3,,,,,2,,,,87,108
152454,note_on,,,,,96,0,4,,,,,3,,,,62,0
152454,note_on,,,,,0,0,4,,,,,3,,,,63,92
152458,note_on,,,,,224,0,6,,,,,5,,,,75,45
152550,note_on,,,,,0,0,4,,,,,3,,,,66,92
152550,note_on,,,,,96,0,4,,,,,3,,,,63,0
152642,note_on,,,,,0,0,3,,,,,2,,,,81,108
152642,note_on,,,,,192,0,3,,,,,2,,,,87,0
152646,note_on,,,,,96,0,4,,,,,3,,,,66,0
152646,note_on,,,,,0,0,4,,,,,3,,,,65,92
152742,note_on,,,,,0,0,4,,,,,3,,,,63,92
152742,note_on,,,,,96,0,4,,,,,3,,,,65,0
152802,note_on,,,,,160,0,3,,,,,2,,,,81,0
152832,note_on,,,,,0,0,5,,,,,4,,,,77,45
152832,note_on,,,,,384,0,5,,,,,4,,,,78,0
152834,note_on,,,,,32,0,3,,,,,2,,,,82,108
152838,note_on,,,,,96,0,4,,,,,3,,,,63,0
152838,note_on,,,,,0,0,4,,,,,3,,,,62,92
152838,note_on,,,,,608,0,9,,,,,8,,,,34,45
152840,note_on,,,,,608,0,8,,,,,7,,,,46,45
152842,note_on,,,,,0,0,6,,,,,5,,,,74,45
152842,note_on,,,,,384,0,6,,,,,5,,,,75,0
152934,note_on,,,,,0,0,4,,,,,3,,,,65,92
152934,note_on,,,,,96,0,4,,,,,3,,,,62,0
152992,note_on,,,,,160,0,5,,,,,4,,,,77,0
152994,note_on,,,,,160,0,3,,,,,2,,,,82,0
152998,note_on,,,,,160,0,9,,,,,8,,,,34,0
153000,note_on,,,,,160,0,8,,,,,7,,,,46,0
153002,note_on,,,,,160,0,6,,,,,5,,,,74,0
153030,note_on,,,,,96,0,4,,,,,3,,,,65,0
153030,note_on,,,,,0,0,4,,,,,3,,,,63,92
153126,note_on,,,,,0,0,4,,,,,3,,,,62,92
153126,note_on,,,,,96,0,4,,,,,3,,,,63,0
153216,note_on,,,,,224,0,5,,,,,4,,,,78,45
153218,note_on,,,,,224,0,3,,,,,2,,,,87,108
153222,note_on,,,,,96,0,4,,,,,3,,,,62,0
153222,note_on,,,,,0,0,4,,,,,3,,,,63,92
153226,note_on,,,,,224,0,6,,,,,5,,,,75,45
153318,note_on,,,,,96,0,4,,,,,3,,,,63,0
153318,note_on,,,,,0,0,4,,,,,3,,,,66,92
153410,note_on,,,,,192,0,3,,,,,2,,,,87,0
153410,note_on,,,,,0,0,3,,,,,2,,,,81,108
153414,note_on,,,,,96,0,4,,,,,3,,,,66,0
153414,note_on,,,,,0,0,4,,,,,3,,,,65,92
153510,note_on,,,,,96,0,4,,,,,3,,,,65,0
153510,note_on,,,,,0,0,4,,,,,3,,,,63,92
153570,note_on,,,,,160,0,3,,,,,2,,,,81,0
153600,note_on,,,,,384,0,5,,,,,4,,,,78,0
153600,note_on,,,,,0,0,5,,,,,4,,,,77,45
153602,note_on,,,,,32,0,3,,,,,2,,,,82,92
153606,note_on,,,,,96,0,4,,,,,3,,,,63,0
153606,note_on,,,,,0,0,4,,,,,3,,,,62,68
153610,note_on,,,,,384,0,6,,,,,5,,,,75,0
153610,note_on,,,,,0,0,6,,,,,5,,,,74,45
153702,note_on,,,,,0,0,4,,,,,3,,,,58,68
153702,note_on,,,,,96,0,4,,,,,3,,,,62,0
153760,note_on,,,,,160,0,5,,,,,4,,,,77,0
153762,note_on,,,,,160,0,3,,,,,2,,,,82,0
153770,note_on,,,,,160,0,6,,,,,5,,,,74,0
153798,note_on,,,,,96,0,4,,,,,3,,,,58,0
153798,note_on,,,,,0,0,4,,,,,3,,,,62,68
153894,note_on,,,,,96,0,4,,,,,3,,,,62,0
153894,note_on,,,,,0,0,4,,,,,3,,,,58,68
153990,note_on,,,,,0,0,4,,,,,3,,,,62,68
153990,note_on,,,,,96,0,4,,,,,3,,,,58,0
154086,note_on,,,,,0,0,4,,,,,3,,,,58,68
154086,note_on,,,,,96,0,4,,,,,3,,,,62,0
154178,note_on,,,,,416,0,3,,,,,2,,,,69,92
154182,note_on,,,,,96,0,4,,,,,3,,,,58,0
154182,note_on,,,,,0,0,4,,,,,3,,,,63,68
154274,note_on,,,,,0,0,3,,,,,2,,,,81,92
154274,note_on,,,,,96,0,3,,,,,2,,,,69,0
154278,note_on,,,,,96,0,4,,,,,3,,,,63,0
154278,note_on,,,,,0,0,4,,,,,3,,,,58,68
154370,note_on,,,,,0,0,3,,,,,2,,,,70,92
154370,note_on,,,,,96,0,3,,,,,2,,,,81,0
154374,note_on,,,,,0,0,4,,,,,3,,,,62,68
154374,note_on,,,,,96,0,4,,,,,3,,,,58,0
154466,note_on,,,,,96,0,3,,,,,2,,,,70,0
154466,note_on,,,,,0,0,3,,,,,2,,,,82,92
154470,note_on,,,,,96,0,4,,,,,3,,,,62,0
154470,note_on,,,,,0,0,4,,,,,3,,,,58,68
154560,note_on,,,,,94,0,3,,,,,2,,,,82,0
154566,note_on,,,,,0,0,4,,,,,3,,,,62,68
154566,note_on,,,,,96,0,4,,,,,3,,,,58,0
154662,note_on,,,,,0,0,4,,,,,3,,,,58,68
154662,note_on,,,,,96,0,4,,,,,3,,,,62,0
154752,set_tempo,,,,,2304,1,0,,285714,,,,,,,,
154758,note_on,,,,,0,0,4,,,,,3,,,,62,68
154758,note_on,,,,,96,0,4,,,,,3,,,,58,0
154854,note_on,,,,,0,0,4,,,,,3,,,,58,68
154854,note_on,,,,,96,0,4,,,,,3,,,,62,0
154946,note_on,,,,,386,0,3,,,,,2,,,,69,92
154950,note_on,,,,,96,0,4,,,,,3,,,,58,0
154950,note_on,,,,,0,0,4,,,,,3,,,,63,68
155042,note_on,,,,,96,0,3,,,,,2,,,,69,0
155042,note_on,,,,,0,0,3,,,,,2,,,,81,92
155046,note_on,,,,,96,0,4,,,,,3,,,,63,0
155046,note_on,,,,,0,0,4,,,,,3,,,,58,68
155138,note_on,,,,,0,0,3,,,,,2,,,,70,92
155138,note_on,,,,,96,0,3,,,,,2,,,,81,0
155142,note_on,,,,,96,0,4,,,,,3,,,,58,0
155142,note_on,,,,,0,0,4,,,,,3,,,,62,68
155234,note_on,,,,,96,0,3,,,,,2,,,,70,0
155234,note_on,,,,,0,0,3,,,,,2,,,,82,92
155238,note_on,,,,,96,0,4,,,,,3,,,,62,0
155238,note_on,,,,,0,0,4,,,,,3,,,,58,68
155330,note_on,,,,,96,0,3,,,,,2,,,,82,0
155330,note_on,,,,,0,0,3,,,,,2,,,,71,92
155334,note_on,,,,,0,0,4,,,,,3,,,,62,68
155334,note_on,,,,,96,0,4,,,,,3,,,,58,0
155426,note_on,,,,,96,0,3,,,,,2,,,,71,0
155426,note_on,,,,,0,0,3,,,,,2,,,,83,92
155430,note_on,,,,,0,0,4,,,,,3,,,,58,68
155430,note_on,,,,,96,0,4,,,,,3,,,,62,0
155522,note_on,,,,,0,0,3,,,,,2,,,,72,92
155522,note_on,,,,,96,0,3,,,,,2,,,,83,0
155526,note_on,,,,,0,0,4,,,,,3,,,,63,68
155526,note_on,,,,,96,0,4,,,,,3,,,,58,0
155618,note_on,,,,,0,0,3,,,,,2,,,,84,92
155618,note_on,,,,,96,0,3,,,,,2,,,,72,0
155622,note_on,,,,,96,0,4,,,,,3,,,,63,0
155622,note_on,,,,,0,0,4,,,,,3,,,,58,68
155714,note_on,,,,,0,0,3,,,,,2,,,,67,92
155714,note_on,,,,,96,0,3,,,,,2,,,,84,0
155718,note_on,,,,,96,0,4,,,,,3,,,,58,0
155718,note_on,,,,,0,0,4,,,,,3,,,,64,68
155810,note_on,,,,,96,0,3,,,,,2,,,,67,0
155810,note_on,,,,,0,0,3,,,,,2,,,,79,92
155814,note_on,,,,,96,0,4,,,,,3,,,,64,0
155814,note_on,,,,,0,0,4,,,,,3,,,,58,68
155904,note_on,,,,,2144,0,5,,,,,4,,,,82,30
155906,note_on,,,,,0,0,3,,,,,2,,,,68,92
155906,note_on,,,,,96,0,3,,,,,2,,,,79,0
155910,note_on,,,,,0,0,4,,,,,3,,,,65,68
155910,note_on,,,,,96,0,4,,,,,3,,,,58,0
155914,note_on,,,,,2144,0,6,,,,,5,,,,70,30
156002,note_on,,,,,0,0,3,,,,,2,,,,80,92
156002,note_on,,,,,96,0,3,,,,,2,,,,68,0
156006,note_on,,,,,0,0,4,,,,,3,,,,58,68
156006,note_on,,,,,96,0,4,,,,,3,,,,65,0
156096,note_on,,,,,94,0,3,,,,,2,,,,80,0
156102,note_on,,,,,0,0,4,,,,,3,,,,65,68
156102,note_on,,,,,96,0,4,,,,,3,,,,58,0
156198,note_on,,,,,0,0,4,,,,,3,,,,58,68
156198,note_on,,,,,96,0,4,,,,,3,,,,65,0
156288,set_tempo,,,,,1536,1,0,,292683,,,,,,,,
156294,note_on,,,,,0,0,4,,,,,3,,,,65,68
156294,note_on,,,,,96,0,4,,,,,3,,,,58,0
156390,note_on,,,,,0,0,4,,,,,3,,,,58,68
156390,note_on,,,,,96,0,4,,,,,3,,,,65,0
156482,note_on,,,,,386,0,3,,,,,2,,,,67,92
156486,note_on,,,,,96,0,4,,,,,3,,,,58,0
156486,note_on,,,,,0,0,4,,,,,3,,,,64,68
156578,note_on,,,,,96,0,3,,,,,2,,,,67,0
156578,note_on,,,,,0,0,3,,,,,2,,,,79,92
156582,note_on,,,,,0,0,4,,,,,3,,,,58,68
156582,note_on,,,,,96,0,4,,,,,3,,,,64,0
156674,note_on,,,,,0,0,3,,,,,2,,,,68,92
156674,note_on,,,,,96,0,3,,,,,2,,,,79,0
156678,note_on,,,,,96,0,4,,,,,3,,,,58,0
156678,note_on,,,,,0,0,4,,,,,3,,,,65,68
156770,note_on,,,,,0,0,3,,,,,2,,,,80,92
156770,note_on,,,,,96,0,3,,,,,2,,,,68,0
156774,note_on,,,,,96,0,4,,,,,3,,,,65,0
156774,note_on,,,,,0,0,4,,,,,3,,,,58,68
156864,note_on,,,,,94,0,3,,,,,2,,,,80,0
156870,note_on,,,,,96,0,4,,,,,3,,,,58,0
156870,note_on,,,,,0,0,4,,,,,3,,,,65,68
156966,note_on,,,,,96,0,4,,,,,3,,,,65,0
156966,note_on,,,,,0,0,4,,,,,3,,,,58,68
157062,note_on,,,,,96,0,4,,,,,3,,,,58,0
157062,note_on,,,,,0,0,4,,,,,3,,,,65,68
157158,note_on,,,,,0,0,4,,,,,3,,,,58,68
157158,note_on,,,,,96,0,4,,,,,3,,,,65,0
157248,set_tempo,,,,,960,1,0,,285714,,,,,,,,
157250,note_on,,,,,386,0,3,,,,,2,,,,67,92
157254,note_on,,,,,96,0,4,,,,,3,,,,58,0
157254,note_on,,,,,0,0,4,,,,,3,,,,64,68
157346,note_on,,,,,0,0,3,,,,,2,,,,79,92
157346,note_on,,,,,96,0,3,,,,,2,,,,67,0
157350,note_on,,,,,96,0,4,,,,,3,,,,64,0
157350,note_on,,,,,0,0,4,,,,,3,,,,58,68
157442,note_on,,,,,0,0,3,,,,,2,,,,68,92
157442,note_on,,,,,96,0,3,,,,,2,,,,79,0
157446,note_on,,,,,96,0,4,,,,,3,,,,58,0
157446,note_on,,,,,0,0,4,,,,,3,,,,65,68
157538,note_on,,,,,96,0,3,,,,,2,,,,68,0
157538,note_on,,,,,0,0,3,,,,,2,,,,80,92
157542,note_on,,,,,96,0,4,,,,,3,,,,65,0
157542,note_on,,,,,0,0,4,,,,,3,,,,58,68
157634,note_on,,,,,96,0,3,,,,,2,,,,80,0
157634,note_on,,,,,0,0,3,,,,,2,,,,69,92
157638,note_on,,,,,96,0,4,,,,,3,,,,58,0
157638,note_on,,,,,0,0,4,,,,,3,,,,66,68
157730,note_on,,,,,0,0,3,,,,,2,,,,81,92
157730,note_on,,,,,96,0,3,,,,,2,,,,69,0
157734,note_on,,,,,96,0,4,,,,,3,,,,66,0
157734,note_on,,,,,0,0,4,,,,,3,,,,58,68
157826,note_on,,,,,0,0,3,,,,,2,,,,70,92
157826,note_on,,,,,96,0,3,,,,,2,,,,81,0
157830,note_on,,,,,96,0,4,,,,,3,,,,58,0
157830,note_on,,,,,0,0,4,,,,,3,,,,67,68
157922,note_on,,,,,0,0,3,,,,,2,,,,82,92
157922,note_on,,,,,96,0,3,,,,,2,,,,70,0
157926,note_on,,,,,0,0,4,,,,,3,,,,58,68
157926,note_on,,,,,96,0,4,,,,,3,,,,67,0
158018,note_on,,,,,96,0,3,,,,,2,,,,82,0
158018,note_on,,,,,0,0,3,,,,,2,,,,66,92
158022,note_on,,,,,0,0,4,,,,,3,,,,62,68
158022,note_on,,,,,96,0,4,,,,,3,,,,58,0
158114,note_on,,,,,96,0,3,,,,,2,,,,66,0
158114,note_on,,,,,0,0,3,,,,,2,,,,78,92
158118,note_on,,,,,0,0,4,,,,,3,,,,58,68
158118,note_on,,,,,96,0,4,,,,,3,,,,62,0
158208,set_tempo,,,,,960,1,0,,289855,,,,,,,,
158210,note_on,,,,,0,0,3,,,,,2,,,,67,92
158210,note_on,,,,,96,0,3,,,,,2,,,,78,0
158214,note_on,,,,,0,0,4,,,,,3,,,,63,68
158214,note_on,,,,,96,0,4,,,,,3,,,,58,0
158306,note_on,,,,,96,0,3,,,,,2,,,,67,0
158306,note_on,,,,,0,0,3,,,,,2,,,,79,92
158310,note_on,,,,,96,0,4,,,,,3,,,,63,0
158310,note_on,,,,,0,0,4,,,,,3,,,,58,68
158402,note_on,,,,,96,0,3,,,,,2,,,,79,0
158402,note_on,,,,,0,0,3,,,,,2,,,,70,92
158406,note_on,,,,,0,0,4,,,,,3,,,,67,68
158406,note_on,,,,,96,0,4,,,,,3,,,,58,0
158498,note_on,,,,,96,0,3,,,,,2,,,,70,0
158498,note_on,,,,,0,0,3,,,,,2,,,,82,92
158502,note_on,,,,,96,0,4,,,,,3,,,,67,0
158502,note_on,,,,,0,0,4,,,,,3,,,,58,68
158594,note_on,,,,,0,0,3,,,,,2,,,,68,92
158594,note_on,,,,,96,0,3,,,,,2,,,,82,0
158598,note_on,,,,,0,0,4,,,,,3,,,,65,68
158598,note_on,,,,,96,0,4,,,,,3,,,,58,0
158690,note_on,,,,,0,0,3,,,,,2,,,,80,92
158690,note_on,,,,,96,0,3,,,,,2,,,,68,0
158694,note_on,,,,,96,0,4,,,,,3,,,,65,0
158694,note_on,,,,,0,0,4,,,,,3,,,,58,68
158786,note_on,,,,,96,0,3,,,,,2,,,,80,0
158786,note_on,,,,,0,0,3,,,,,2,,,,67,92
158790,note_on,,,,,96,0,4,,,,,3,,,,58,0
158790,note_on,,,,,0,0,4,,,,,3,,,,63,68
158882,note_on,,,,,0,0,3,,,,,2,,,,79,92
158882,note_on,,,,,96,0,3,,,,,2,,,,67,0
158886,note_on,,,,,0,0,4,,,,,3,,,,58,68
158886,note_on,,,,,96,0,4,,,,,3,,,,63,0
158976,set_tempo,,,,,768,1,0,,285714,,,,,,,,
158978,note_on,,,,,96,0,3,,,,,2,,,,79,0
158978,note_on,,,,,0,0,3,,,,,2,,,,65,92
158982,note_on,,,,,96,0,4,,,,,3,,,,58,0
158982,note_on,,,,,0,0,4,,,,,3,,,,62,68
159074,note_on,,,,,96,0,3,,,,,2,,,,65,0
159074,note_on,,,,,0,0,3,,,,,2,,,,77,92
159078,note_on,,,,,96,0,4,,,,,3,,,,62,0
159078,note_on,,,,,0,0,4,,,,,3,,,,58,68
159170,note_on,,,,,96,0,3,,,,,2,,,,77,0
159170,note_on,,,,,0,0,3,,,,,2,,,,63,92
159174,note_on,,,,,0,0,4,,,,,3,,,,55,68
159174,note_on,,,,,96,0,4,,,,,3,,,,58,0
159266,note_on,,,,,96,0,3,,,,,2,,,,63,0
159266,note_on,,,,,0,0,3,,,,,2,,,,75,92
159270,note_on,,,,,0,0,4,,,,,3,,,,58,68
159270,note_on,,,,,96,0,4,,,,,3,,,,55,0
159362,note_on,,,,,0,0,3,,,,,2,,,,62,92
159362,note_on,,,,,96,0,3,,,,,2,,,,75,0
159366,note_on,,,,,0,0,4,,,,,3,,,,53,68
159366,note_on,,,,,96,0,4,,,,,3,,,,58,0
159458,note_on,,,,,0,0,3,,,,,2,,,,74,92
159458,note_on,,,,,96,0,3,,,,,2,,,,62,0
159462,note_on,,,,,0,0,4,,,,,3,,,,58,68
159462,note_on,,,,,96,0,4,,,,,3,,,,53,0
159554,note_on,,,,,0,0,3,,,,,2,,,,60,92
159554,note_on,,,,,96,0,3,,,,,2,,,,74,0
159558,note_on,,,,,0,0,4,,,,,3,,,,51,68
159558,note_on,,,,,96,0,4,,,,,3,,,,58,0
159650,note_on,,,,,0,0,3,,,,,2,,,,72,92
159650,note_on,,,,,96,0,3,,,,,2,,,,60,0
159654,note_on,,,,,96,0,4,,,,,3,,,,51,0
159654,note_on,,,,,0,0,4,,,,,3,,,,57,68
159746,note_on,,,,,0,0,3,,,,,2,,,,58,92
159746,note_on,,,,,96,0,3,,,,,2,,,,72,0
159750,note_on,,,,,6752,0,9,,,,,8,,,,34,45
159750,note_on,,,,,96,0,4,,,,,3,,,,57,0
159750,note_on,,,,,0,0,4,,,,,3,,,,50,68
159752,note_on,,,,,6752,0,8,,,,,7,,,,46,45
159842,note_on,,,,,0,0,3,,,,,2,,,,70,92
159842,note_on,,,,,96,0,3,,,,,2,,,,58,0
159846,note_on,,,,,0,0,4,,,,,3,,,,53,68
159846,note_on,,,,,96,0,4,,,,,3,,,,50,0
159936,note_on,,,,,94,0,3,,,,,2,,,,70,0
159942,note_on,,,,,96,0,4,,,,,3,,,,53,0
159942,note_on,,,,,0,0,4,,,,,3,,,,50,68
160038,note_on,,,,,96,0,4,,,,,3,,,,50,0
160038,note_on,,,,,0,0,4,,,,,3,,,,53,68
160128,set_tempo,,,,,1152,1,0,,292683,,,,,,,,
160134,note_on,,,,,0,0,4,,,,,3,,,,50,75
160134,note_on,,,,,96,0,4,,,,,3,,,,53,0
160230,note_on,,,,,0,0,4,,,,,3,,,,53,75
160230,note_on,,,,,96,0,4,,,,,3,,,,50,0
160322,note_on,,,,,386,0,3,,,,,2,,,,59,75
160326,note_on,,,,,0,0,4,,,,,3,,,,51,75
160326,note_on,,,,,96,0,4,,,,,3,,,,53,0
160418,note_on,,,,,96,0,3,,,,,2,,,,59,0
160418,note_on,,,,,0,0,3,,,,,2,,,,71,75
160422,note_on,,,,,0,0,4,,,,,3,,,,54,75
160422,note_on,,,,,96,0,4,,,,,3,,,,51,0
160514,note_on,,,,,96,0,3,,,,,2,,,,71,0
160514,note_on,,,,,0,0,3,,,,,2,,,,58,75
160518,note_on,,,,,96,0,4,,,,,3,,,,54,0
160518,note_on,,,,,0,0,4,,,,,3,,,,50,75
160610,note_on,,,,,0,0,3,,,,,2,,,,70,75
160610,note_on,,,,,96,0,3,,,,,2,,,,58,0
160614,note_on,,,,,0,0,4,,,,,3,,,,53,75
160614,note_on,,,,,96,0,4,,,,,3,,,,50,0
160704,note_on,,,,,94,0,3,,,,,2,,,,70,0
160710,note_on,,,,,96,0,4,,,,,3,,,,53,0
160710,note_on,,,,,0,0,4,,,,,3,,,,50,75
160806,note_on,,,,,0,0,4,,,,,3,,,,53,75
160806,note_on,,,,,96,0,4,,,,,3,,,,50,0
160896,set_tempo,,,,,768,1,0,,295567,,,,,,,,
160902,note_on,,,,,0,0,4,,,,,3,,,,50,75
160902,note_on,,,,,96,0,4,,,,,3,,,,53,0
160998,note_on,,,,,0,0,4,,,,,3,,,,53,75
160998,note_on,,,,,96,0,4,,,,,3,,,,50,0
161090,note_on,,,,,386,0,3,,,,,2,,,,63,75
161094,note_on,,,,,96,0,4,,,,,3,,,,53,0
161094,note_on,,,,,0,0,4,,,,,3,,,,54,75
161186,note_on,,,,,96,0,3,,,,,2,,,,63,0
161186,note_on,,,,,0,0,3,,,,,2,,,,75,75
161190,note_on,,,,,96,0,4,,,,,3,,,,54,0
161190,note_on,,,,,0,0,4,,,,,3,,,,58,75
161282,note_on,,,,,96,0,3,,,,,2,,,,75,0
161282,note_on,,,,,0,0,3,,,,,2,,,,62,75
161286,note_on,,,,,0,0,4,,,,,3,,,,53,75
161286,note_on,,,,,96,0,4,,,,,3,,,,58,0
161378,note_on,,,,,0,0,3,,,,,2,,,,74,75
161378,note_on,,,,,96,0,3,,,,,2,,,,62,0
161382,note_on,,,,,96,0,4,,,,,3,,,,53,0
161382,note_on,,,,,0,0,4,,,,,3,,,,56,75
161472,note_on,,,,,94,0,3,,,,,2,,,,74,0
161478,note_on,,,,,96,0,4,,,,,3,,,,56,0
161478,note_on,,,,,0,0,4,,,,,3,,,,53,75
161574,note_on,,,,,96,0,4,,,,,3,,,,53,0
161574,note_on,,,,,0,0,4,,,,,3,,,,56,75
161664,set_tempo,,,,,768,1,0,,298507,,,,,,,,
161670,note_on,,,,,96,0,4,,,,,3,,,,56,0
161670,note_on,,,,,0,0,4,,,,,3,,,,53,92
161766,note_on,,,,,0,0,4,,,,,3,,,,56,92
161766,note_on,,,,,96,0,4,,,,,3,,,,53,0
161858,note_on,,,,,386,0,3,,,,,2,,,,66,92
161862,note_on,,,,,0,0,4,,,,,3,,,,58,92
161862,note_on,,,,,96,0,4,,,,,3,,,,56,0
161954,note_on,,,,,96,0,3,,,,,2,,,,66,0
161954,note_on,,,,,0,0,3,,,,,2,,,,78,92
161958,note_on,,,,,0,0,4,,,,,3,,,,63,92
161958,note_on,,,,,96,0,4,,,,,3,,,,58,0
162050,note_on,,,,,0,0,3,,,,,2,,,,65,92
162050,note_on,,,,,96,0,3,,,,,2,,,,78,0
162054,note_on,,,,,0,0,4,,,,,3,,,,56,92
162054,note_on,,,,,96,0,4,,,,,3,,,,63,0
162146,note_on,,,,,0,0,3,,,,,2,,,,77,92
162146,note_on,,,,,96,0,3,,,,,2,,,,65,0
162150,note_on,,,,,96,0,4,,,,,3,,,,56,0
162150,note_on,,,,,0,0,4,,,,,3,,,,62,92
162240,note_on,,,,,94,0,3,,,,,2,,,,77,0
162246,note_on,,,,,96,0,4,,,,,3,,,,62,0
162246,note_on,,,,,0,0,4,,,,,3,,,,56,92
162342,note_on,,,,,0,0,4,,,,,3,,,,62,92
162342,note_on,,,,,96,0,4,,,,,3,,,,56,0
162432,set_tempo,,,,,768,1,0,,301508,,,,,,,,
162436,note_on,,,,,94,0,4,,,,,3,,,,62,0
162438,note_on,,,,,2,0,4,,,,,3,,,,56,92
162534,note_on,,,,,96,0,4,,,,,3,,,,56,0
162534,note_on,,,,,0,0,4,,,,,3,,,,62,92
162626,note_on,,,,,386,0,3,,,,,2,,,,70,92
162630,note_on,,,,,0,0,4,,,,,3,,,,54,92
162630,note_on,,,,,96,0,4,,,,,3,,,,62,0
162722,note_on,,,,,0,0,3,,,,,2,,,,82,92
162722,note_on,,,,,96,0,3,,,,,2,,,,70,0
162726,note_on,,,,,0,0,4,,,,,3,,,,63,92
162726,note_on,,,,,96,0,4,,,,,3,,,,54,0
162818,note_on,,,,,0,0,3,,,,,2,,,,68,92
162818,note_on,,,,,96,0,3,,,,,2,,,,82,0
162820,note_on,,,,,94,0,4,,,,,3,,,,63,0
162822,note_on,,,,,2,0,4,,,,,3,,,,53,92
162914,note_on,,,,,0,0,3,,,,,2,,,,80,92
162914,note_on,,,,,96,0,3,,,,,2,,,,68,0
162918,note_on,,,,,0,0,4,,,,,3,,,,62,92
162918,note_on,,,,,96,0,4,,,,,3,,,,53,0
163008,note_on,,,,,94,0,3,,,,,2,,,,80,0
163014,note_on,,,,,0,0,4,,,,,3,,,,53,92
163014,note_on,,,,,96,0,4,,,,,3,,,,62,0
163110,note_on,,,,,96,0,4,,,,,3,,,,53,0
163110,note_on,,,,,0,0,4,,,,,3,,,,62,92
163200,set_tempo,,,,,768,1,0,,304569,,,,,,,,
163206,note_on,,,,,96,0,4,,,,,3,,,,62,0
163206,note_on,,,,,0,0,4,,,,,3,,,,53,108
163302,note_on,,,,,96,0,4,,,,,3,,,,53,0
163302,note_on,,,,,0,0,4,,,,,3,,,,62,108
163344,note_on,,,,,7440,0,5,,,,,4,,,,82,0
163346,note_on,,,,,11280,0,7,,,,,6,,,,58,0
163354,note_on,,,,,7440,0,6,,,,,5,,,,70,0
163394,note_on,,,,,386,0,3,,,,,2,,,,71,108
163398,note_on,,,,,0,0,4,,,,,3,,,,51,108
163398,note_on,,,,,96,0,4,,,,,3,,,,62,0
163490,note_on,,,,,96,0,3,,,,,2,,,,71,0
163490,note_on,,,,,0,0,3,,,,,2,,,,83,108
163494,note_on,,,,,0,0,4,,,,,3,,,,63,108
163494,note_on,,,,,96,0,4,,,,,3,,,,51,0
163542,note_on,,,,,3792,0,9,,,,,8,,,,34,0
163544,note_on,,,,,3792,0,8,,,,,7,,,,46,0
163584,note_on,,,,,240,0,5,,,,,4,,,,58,45
163586,note_on,,,,,0,0,3,,,,,2,,,,70,108
163586,note_on,,,,,96,0,3,,,,,2,,,,83,0
163586,note_on,,,,,240,0,7,,,,,6,,,,58,45
163588,note_on,,,,,47456,0,1,,,,,0,,,,70,45
163588,note_on,,,,,0,0,1,,,,,0,,,,82,45
163590,note_on,,,,,0,0,4,,,,,3,,,,50,108
163590,note_on,,,,,96,0,4,,,,,3,,,,63,0
163590,note_on,,,,,48,0,9,,,,,8,,,,34,45
163591,note_on,,,,,0,0,2,,,,,1,,,,58,45
163591,note_on,,,,,47456,0,2,,,,,1,,,,46,45
163592,note_on,,,,,48,0,8,,,,,7,,,,46,45
163594,note_on,,,,,240,0,6,,,,,5,,,,58,45
163680,note_on,,,,,96,0,5,,,,,4,,,,58,0
163680,note_on,,,,,0,0,5,,,,,4,,,,57,45
163682,note_on,,,,,96,0,7,,,,,6,,,,58,0
163682,note_on,,,,,0,0,7,,,,,6,,,,57,45
163682,note_on,,,,,96,0,3,,,,,2,,,,70,0
163682,note_on,,,,,0,0,3,,,,,2,,,,82,108
163686,note_on,,,,,0,0,9,,,,,8,,,,33,45
163686,note_on,,,,,96,0,9,,,,,8,,,,34,0
163686,note_on,,,,,0,0,4,,,,,3,,,,62,108
163686,note_on,,,,,96,0,4,,,,,3,,,,50,0
163688,note_on,,,,,96,0,8,,,,,7,,,,46,0
163688,note_on,,,,,0,0,8,,,,,7,,,,45,45
163690,note_on,,,,,96,0,6,,,,,5,,,,58,0
163690,note_on,,,,,0,0,6,,,,,5,,,,57,45
163776,note_on,,,,,94,0,3,,,,,2,,,,82,0
163776,note_on,,,,,0,0,5,,,,,4,,,,58,45
163776,note_on,,,,,96,0,5,,,,,4,,,,57,0
163778,note_on,,,,,96,0,7,,,,,6,,,,57,0
163778,note_on,,,,,0,0,7,,,,,6,,,,58,45
163780,note_on,,,,,94,0,4,,,,,3,,,,62,0
163782,note_on,,,,,0,0,9,,,,,8,,,,34,45
163782,note_on,,,,,96,0,9,,,,,8,,,,33,0
163784,note_on,,,,,96,0,8,,,,,7,,,,45,0
163784,note_on,,,,,0,0,8,,,,,7,,,,46,45
163786,note_on,,,,,96,0,6,,,,,5,,,,57,0
163786,note_on,,,,,0,0,6,,,,,5,,,,58,45
163872,note_on,,,,,0,0,5,,,,,4,,,,57,45
163872,note_on,,,,,96,0,5,,,,,4,,,,58,0
163874,note_on,,,,,0,0,7,,,,,6,,,,57,45
163874,note_on,,,,,96,0,7,,,,,6,,,,58,0
163878,note_on,,,,,96,0,9,,,,,8,,,,34,0
163878,note_on,,,,,0,0,9,,,,,8,,,,33,45
163880,note_on,,,,,96,0,8,,,,,7,,,,46,0
163880,note_on,,,,,0,0,8,,,,,7,,,,45,45
163882,note_on,,,,,96,0,6,,,,,5,,,,58,0
163882,note_on,,,,,0,0,6,,,,,5,,,,57,45
163968,note_on,,,,,0,0,5,,,,,4,,,,58,45
163968,note_on,,,,,96,0,5,,,,,4,,,,57,0
163968,set_tempo,,,,,768,1,0,,307692,,,,,,,,
163970,note_on,,,,,0,0,7,,,,,6,,,,58,45
163970,note_on,,,,,96,0,7,,,,,6,,,,57,0
163974,note_on,,,,,96,0,9,,,,,8,,,,33,0
163974,note_on,,,,,0,0,9,,,,,8,,,,34,45
163976,note_on,,,,,0,0,8,,,,,7,,,,46,45
163976,note_on,,,,,96,0,8,,,,,7,,,,45,0
163978,note_on,,,,,96,0,6,,,,,5,,,,57,0
163978,note_on,,,,,0,0,6,,,,,5,,,,58,45
164064,note_on,,,,,0,0,5,,,,,4,,,,57,45
164064,note_on,,,,,96,0,5,,,,,4,,,,58,0
164066,note_on,,,,,0,0,7,,,,,6,,,,57,45
164066,note_on,,,,,96,0,7,,,,,6,,,,58,0
164070,note_on,,,,,96,0,9,,,,,8,,,,34,0
164070,note_on,,,,,0,0,9,,,,,8,,,,33,45
164072,note_on,,,,,96,0,8,,,,,7,,,,46,0
164072,note_on,,,,,0,0,8,,,,,7,,,,45,45
164074,note_on,,,,,96,0,6,,,,,5,,,,58,0
164074,note_on,,,,,0,0,6,,,,,5,,,,57,45
164160,note_on,,,,,96,0,5,,,,,4,,,,57,0
164160,note_on,,,,,0,0,5,,,,,4,,,,58,45
164162,note_on,,,,,96,0,7,,,,,6,,,,57,0
164162,note_on,,,,,0,0,7,,,,,6,,,,58,45
164162,note_on,,,,,386,0,3,,,,,2,,,,71,127
164166,note_on,,,,,0,0,9,,,,,8,,,,34,45
164166,note_on,,,,,386,0,4,,,,,3,,,,51,127
164166,note_on,,,,,96,0,9,,,,,8,,,,33,0
164168,note_on,,,,,0,0,8,,,,,7,,,,46,45
164168,note_on,,,,,96,0,8,,,,,7,,,,45,0
164170,note_on,,,,,96,0,6,,,,,5,,,,57,0
164170,note_on,,,,,0,0,6,,,,,5,,,,58,45
164256,note_on,,,,,96,0,5,,,,,4,,,,58,0
164256,note_on,,,,,0,0,5,,,,,4,,,,57,45
164258,note_on,,,,,0,0,3,,,,,2,,,,83,127
164258,note_on,,,,,96,0,3,,,,,2,,,,71,0
164258,note_on,,,,,96,0,7,,,,,6,,,,58,0
164258,note_on,,,,,0,0,7,,,,,6,,,,57,45
164262,note_on,,,,,0,0,9,,,,,8,,,,33,45
164262,note_on,,,,,96,0,9,,,,,8,,,,34,0
164262,note_on,,,,,96,0,4,,,,,3,,,,51,0
164262,note_on,,,,,0,0,4,,,,,3,,,,63,127
164264,note_on,,,,,0,0,8,,,,,7,,,,45,45
164264,note_on,,,,,96,0,8,,,,,7,,,,46,0
164266,note_on,,,,,0,0,6,,,,,5,,,,57,45
164266,note_on,,,,,96,0,6,,,,,5,,,,58,0
164350,note_on,,,,,94,0,5,,,,,4,,,,57,0
164352,note_on,,,,,94,0,7,,,,,6,,,,57,0
164352,note_on,,,,,2,0,5,,,,,4,,,,58,45
164354,note_on,,,,,0,0,3,,,,,2,,,,70,127
164354,note_on,,,,,96,0,3,,,,,2,,,,83,0
164354,note_on,,,,,2,0,7,,,,,6,,,,58,45
164356,note_on,,,,,94,0,9,,,,,8,,,,33,0
164358,note_on,,,,,0,0,4,,,,,3,,,,50,127
164358,note_on,,,,,94,0,8,,,,,7,,,,45,0
164358,note_on,,,,,96,0,4,,,,,3,,,,63,0
164358,note_on,,,,,2,0,9,,,,,8,,,,34,45
164360,note_on,,,,,94,0,6,,,,,5,,,,57,0
164360,note_on,,,,,2,0,8,,,,,7,,,,46,45
164362,note_on,,,,,2,0,6,,,,,5,,,,58,45
164448,note_on,,,,,96,0,5,,,,,4,,,,58,0
164448,note_on,,,,,0,0,5,,,,,4,,,,57,45
164450,note_on,,,,,0,0,3,,,,,2,,,,82,127
164450,note_on,,,,,0,0,7,,,,,6,,,,57,45
164450,note_on,,,,,96,0,7,,,,,6,,,,58,0
164450,note_on,,,,,96,0,3,,,,,2,,,,70,0
164454,note_on,,,,,96,0,4,,,,,3,,,,50,0
164454,note_on,,,,,0,0,4,,,,,3,,,,62,127
164454,note_on,,,,,96,0,9,,,,,8,,,,34,0
164454,note_on,,,,,0,0,9,,,,,8,,,,33,45
164456,note_on,,,,,0,0,8,,,,,7,,,,45,45
164456,note_on,,,,,96,0,8,,,,,7,,,,46,0
164458,note_on,,,,,0,0,6,,,,,5,,,,57,45
164458,note_on,,,,,96,0,6,,,,,5,,,,58,0
164544,note_on,,,,,94,0,3,,,,,2,,,,82,0
164544,note_on,,,,,96,0,5,,,,,4,,,,57,0
164544,note_on,,,,,0,0,5,,,,,4,,,,58,45
164546,note_on,,,,,96,0,7,,,,,6,,,,57,0
164546,note_on,,,,,0,0,7,,,,,6,,,,58,45
164548,note_on,,,,,94,0,4,,,,,3,,,,62,0
164550,note_on,,,,,0,0,9,,,,,8,,,,34,45
164550,note_on,,,,,96,0,9,,,,,8,,,,33,0
164552,note_on,,,,,96,0,8,,,,,7,,,,45,0
164552,note_on,,,,,0,0,8,,,,,7,,,,46,45
164554,note_on,,,,,0,0,6,,,,,5,,,,58,45
164554,note_on,,,,,96,0,6,,,,,5,,,,57,0
164640,note_on,,,,,0,0,5,,,,,4,,,,57,45
164640,note_on,,,,,96,0,5,,,,,4,,,,58,0
164642,note_on,,,,,0,0,7,,,,,6,,,,57,45
164642,note_on,,,,,96,0,7,,,,,6,,,,58,0
164646,note_on,,,,,0,0,9,,,,,8,,,,33,45
164646,note_on,,,,,96,0,9,,,,,8,,,,34,0
164648,note_on,,,,,96,0,8,,,,,7,,,,46,0
164648,note_on,,,,,0,0,8,,,,,7,,,,45,45
164650,note_on,,,,,96,0,6,,,,,5,,,,58,0
164650,note_on,,,,,0,0,6,,,,,5,,,,57,45
164736,note_on,,,,,96,0,5,,,,,4,,,,57,0
164736,note_on,,,,,0,0,5,,,,,4,,,,58,45
164736,set_tempo,,,,,768,1,0,,303030,,,,,,,,
164738,note_on,,,,,0,0,7,,,,,6,,,,58,45
164738,note_on,,,,,96,0,7,,,,,6,,,,57,0
164742,note_on,,,,,0,0,9,,,,,8,,,,34,45
164742,note_on,,,,,96,0,9,,,,,8,,,,33,0
164744,note_on,,,,,0,0,8,,,,,7,,,,46,45
164744,note_on,,,,,96,0,8,,,,,7,,,,45,0
164746,note_on,,,,,96,0,6,,,,,5,,,,57,0
164746,note_on,,,,,0,0,6,,,,,5,,,,58,45
164832,note_on,,,,,96,0,5,,,,,4,,,,58,0
164832,note_on,,,,,0,0,5,,,,,4,,,,57,45
164834,note_on,,,,,0,0,7,,,,,6,,,,57,45
164834,note_on,,,,,96,0,7,,,,,6,,,,58,0
164838,note_on,,,,,0,0,9,,,,,8,,,,33,45
164838,note_on,,,,,96,0,9,,,,,8,,,,34,0
164840,note_on,,,,,96,0,8,,,,,7,,,,46,0
164840,note_on,,,,,0,0,8,,,,,7,,,,45,45
164842,note_on,,,,,0,0,6,,,,,5,,,,57,45
164842,note_on,,,,,96,0,6,,,,,5,,,,58,0
164928,note_on,,,,,96,0,5,,,,,4,,,,57,0
164928,note_on,,,,,0,0,5,,,,,4,,,,58,45
164930,note_on,,,,,386,0,3,,,,,2,,,,64,75
164930,note_on,,,,,96,0,7,,,,,6,,,,57,0
164930,note_on,,,,,0,0,7,,,,,6,,,,58,45
164934,note_on,,,,,386,0,4,,,,,3,,,,49,75
164934,note_on,,,,,96,0,9,,,,,8,,,,33,0
164934,note_on,,,,,0,0,9,,,,,8,,,,34,45
164936,note_on,,,,,0,0,8,,,,,7,,,,46,45
164936,note_on,,,,,96,0,8,,,,,7,,,,45,0
164938,note_on,,,,,96,0,6,,,,,5,,,,57,0
164938,note_on,,,,,0,0,6,,,,,5,,,,58,45
165024,note_on,,,,,96,0,5,,,,,4,,,,58,0
165024,note_on,,,,,0,0,5,,,,,4,,,,57,45
165026,note_on,,,,,0,0,7,,,,,6,,,,57,45
165026,note_on,,,,,0,0,3,,,,,2,,,,76,75
165026,note_on,,,,,96,0,3,,,,,2,,,,64,0
165026,note_on,,,,,96,0,7,,,,,6,,,,58,0
165030,note_on,,,,,96,0,4,,,,,3,,,,49,0
165030,note_on,,,,,0,0,4,,,,,3,,,,61,75
165030,note_on,,,,,0,0,9,,,,,8,,,,33,45
165030,note_on,,,,,96,0,9,,,,,8,,,,34,0
165032,note_on,,,,,96,0,8,,,,,7,,,,46,0
165032,note_on,,,,,0,0,8,,,,,7,,,,45,45
165034,note_on,,,,,96,0,6,,,,,5,,,,58,0
165034,note_on,,,,,0,0,6,,,,,5,,,,57,45
165118,note_on,,,,,94,0,5,,,,,4,,,,57,0
165120,note_on,,,,,2,0,5,,,,,4,,,,58,45
165120,note_on,,,,,94,0,7,,,,,6,,,,57,0
165122,note_on,,,,,96,0,3,,,,,2,,,,76,0
165122,note_on,,,,,0,0,3,,,,,2,,,,65,75
165122,note_on,,,,,2,0,7,,,,,6,,,,58,45
165124,note_on,,,,,94,0,9,,,,,8,,,,33,0
165126,note_on,,,,,0,0,4,,,,,3,,,,50,75
165126,note_on,,,,,94,0,8,,,,,7,,,,45,0
165126,note_on,,,,,2,0,9,,,,,8,,,,34,45
165126,note_on,,,,,96,0,4,,,,,3,,,,61,0
165128,note_on,,,,,94,0,6,,,,,5,,,,57,0
165128,note_on,,,,,2,0,8,,,,,7,,,,46,45
165130,note_on,,,,,2,0,6,,,,,5,,,,58,45
165216,note_on,,,,,96,0,5,,,,,4,,,,58,0
165216,note_on,,,,,0,0,5,,,,,4,,,,57,45
165218,note_on,,,,,96,0,7,,,,,6,,,,58,0
165218,note_on,,,,,0,0,7,,,,,6,,,,57,45
165218,note_on,,,,,0,0,3,,,,,2,,,,77,75
165218,note_on,,,,,96,0,3,,,,,2,,,,65,0
165222,note_on,,,,,0,0,4,,,,,3,,,,62,75
165222,note_on,,,,,96,0,9,,,,,8,,,,34,0
165222,note_on,,,,,96,0,4,,,,,3,,,,50,0
165222,note_on,,,,,0,0,9,,,,,8,,,,33,45
165224,note_on,,,,,0,0,8,,,,,7,,,,45,45
165224,note_on,,,,,96,0,8,,,,,7,,,,46,0
165226,note_on,,,,,96,0,6,,,,,5,,,,58,0
165226,note_on,,,,,0,0,6,,,,,5,,,,57,45
165312,note_on,,,,,0,0,5,,,,,4,,,,58,45
165312,note_on,,,,,96,0,5,,,,,4,,,,57,0
165312,note_on,,,,,94,0,3,,,,,2,,,,77,0
165314,note_on,,,,,0,0,7,,,,,6,,,,58,45
165314,note_on,,,,,96,0,7,,,,,6,,,,57,0
165316,note_on,,,,,94,0,4,,,,,3,,,,62,0
165318,note_on,,,,,0,0,9,,,,,8,,,,34,45
165318,note_on,,,,,96,0,9,,,,,8,,,,33,0
165320,note_on,,,,,0,0,8,,,,,7,,,,46,45
165320,note_on,,,,,96,0,8,,,,,7,,,,45,0
165322,note_on,,,,,0,0,6,,,,,5,,,,58,45
165322,note_on,,,,,96,0,6,,,,,5,,,,57,0
165408,note_on,,,,,96,0,5,,,,,4,,,,58,0
165408,note_on,,,,,0,0,5,,,,,4,,,,57,45
165410,note_on,,,,,96,0,7,,,,,6,,,,58,0
165410,note_on,,,,,0,0,7,,,,,6,,,,57,45
165414,note_on,,,,,96,0,9,,,,,8,,,,34,0
165414,note_on,,,,,0,0,9,,,,,8,,,,33,45
165416,note_on,,,,,96,0,8,,,,,7,,,,46,0
165416,note_on,,,,,0,0,8,,,,,7,,,,45,45
165418,note_on,,,,,0,0,6,,,,,5,,,,57,45
165418,note_on,,,,,96,0,6,,,,,5,,,,58,0
165504,set_tempo,,,,,768,1,0,,298507,,,,,,,,
165504,note_on,,,,,0,0,5,,,,,4,,,,58,45
165504,note_on,,,,,96,0,5,,,,,4,,,,57,0
165506,note_on,,,,,96,0,7,,,,,6,,,,57,0
165506,note_on,,,,,0,0,7,,,,,6,,,,58,45
165510,note_on,,,,,0,0,9,,,,,8,,,,34,45
165510,note_on,,,,,96,0,9,,,,,8,,,,33,0
165512,note_on,,,,,96,0,8,,,,,7,,,,45,0
165512,note_on,,,,,0,0,8,,,,,7,,,,46,45
165514,note_on,,,,,0,0,6,,,,,5,,,,58,45
165514,note_on,,,,,96,0,6,,,,,5,,,,57,0
165600,note_on,,,,,96,0,5,,,,,4,,,,58,0
165600,note_on,,,,,0,0,5,,,,,4,,,,57,45
165602,note_on,,,,,0,0,7,,,,,6,,,,57,45
165602,note_on,,,,,96,0,7,,,,,6,,,,58,0
165606,note_on,,,,,96,0,9,,,,,8,,,,34,0
165606,note_on,,,,,0,0,9,,,,,8,,,,33,45
165608,note_on,,,,,0,0,8,,,,,7,,,,45,45
165608,note_on,,,,,96,0,8,,,,,7,,,,46,0
165610,note_on,,,,,96,0,6,,,,,5,,,,58,0
165610,note_on,,,,,0,0,6,,,,,5,,,,57,45
165696,note_on,,,,,96,0,5,,,,,4,,,,57,0
165696,note_on,,,,,0,0,5,,,,,4,,,,58,45
165698,note_on,,,,,386,0,3,,,,,2,,,,66,92
165698,note_on,,,,,96,0,7,,,,,6,,,,57,0
165698,note_on,,,,,0,0,7,,,,,6,,,,58,45
165702,note_on,,,,,386,0,4,,,,,3,,,,50,92
165702,note_on,,,,,96,0,9,,,,,8,,,,33,0
165702,note_on,,,,,0,0,9,,,,,8,,,,34,45
165704,note_on,,,,,0,0,8,,,,,7,,,,46,45
165704,note_on,,,,,96,0,8,,,,,7,,,,45,0
165706,note_on,,,,,0,0,6,,,,,5,,,,58,45
165706,note_on,,,,,96,0,6,,,,,5,,,,57,0
165792,note_on,,,,,96,0,5,,,,,4,,,,58,0
165792,note_on,,,,,0,0,5,,,,,4,,,,57,45
165794,note_on,,,,,0,0,7,,,,,6,,,,57,45
165794,note_on,,,,,96,0,7,,,,,6,,,,58,0
165794,note_on,,,,,0,0,3,,,,,2,,,,78,92
165794,note_on,,,,,96,0,3,,,,,2,,,,66,0
165798,note_on,,,,,0,0,9,,,,,8,,,,33,45
165798,note_on,,,,,0,0,4,,,,,3,,,,62,92
165798,note_on,,,,,96,0,4,,,,,3,,,,50,0
165798,note_on,,,,,96,0,9,,,,,8,,,,34,0
165800,note_on,,,,,96,0,8,,,,,7,,,,46,0
165800,note_on,,,,,0,0,8,,,,,7,,,,45,45
165802,note_on,,,,,96,0,6,,,,,5,,,,58,0
165802,note_on,,,,,0,0,6,,,,,5,,,,57,45
165886,note_on,,,,,94,0,5,,,,,4,,,,57,0
165888,note_on,,,,,2,0,5,,,,,4,,,,58,45
165888,note_on,,,,,94,0,7,,,,,6,,,,57,0
165890,note_on,,,,,96,0,3,,,,,2,,,,78,0
165890,note_on,,,,,2,0,7,,,,,6,,,,58,45
165890,note_on,,,,,0,0,3,,,,,2,,,,67,92
165892,note_on,,,,,94,0,9,,,,,8,,,,33,0
165894,note_on,,,,,96,0,4,,,,,3,,,,62,0
165894,note_on,,,,,0,0,4,,,,,3,,,,51,92
165894,note_on,,,,,2,0,9,,,,,8,,,,34,45
165894,note_on,,,,,94,0,8,,,,,7,,,,45,0
165896,note_on,,,,,94,0,6,,,,,5,,,,57,0
165896,note_on,,,,,2,0,8,,,,,7,,,,46,45
165898,note_on,,,,,2,0,6,,,,,5,,,,58,45
165984,note_on,,,,,0,0,5,,,,,4,,,,57,45
165984,note_on,,,,,96,0,5,,,,,4,,,,58,0
165986,note_on,,,,,0,0,7,,,,,6,,,,57,45
165986,note_on,,,,,0,0,3,,,,,2,,,,79,92
165986,note_on,,,,,96,0,3,,,,,2,,,,67,0
165986,note_on,,,,,96,0,7,,,,,6,,,,58,0
165990,note_on,,,,,0,0,4,,,,,3,,,,63,92
165990,note_on,,,,,0,0,9,,,,,8,,,,33,45
165990,note_on,,,,,96,0,9,,,,,8,,,,34,0
165990,note_on,,,,,96,0,4,,,,,3,,,,51,0
165992,note_on,,,,,96,0,8,,,,,7,,,,46,0
165992,note_on,,,,,0,0,8,,,,,7,,,,45,45
165994,note_on,,,,,0,0,6,,,,,5,,,,57,45
165994,note_on,,,,,96,0,6,,,,,5,,,,58,0
166080,note_on,,,,,96,0,5,,,,,4,,,,57,0
166080,note_on,,,,,0,0,5,,,,,4,,,,58,45
166080,note_on,,,,,94,0,3,,,,,2,,,,79,0
166082,note_on,,,,,0,0,7,,,,,6,,,,58,45
166082,note_on,,,,,96,0,7,,,,,6,,,,57,0
166084,note_on,,,,,94,0,4,,,,,3,,,,63,0
166086,note_on,,,,,96,0,9,,,,,8,,,,33,0
166086,note_on,,,,,0,0,9,,,,,8,,,,34,45
166088,note_on,,,,,0,0,8,,,,,7,,,,46,45
166088,note_on,,,,,96,0,8,,,,,7,,,,45,0
166090,note_on,,,,,0,0,6,,,,,5,,,,58,45
166090,note_on,,,,,96,0,6,,,,,5,,,,57,0
166176,note_on,,,,,0,0,5,,,,,4,,,,57,45
166176,note_on,,,,,96,0,5,,,,,4,,,,58,0
166178,note_on,,,,,0,0,7,,,,,6,,,,57,45
166178,note_on,,,,,96,0,7,,,,,6,,,,58,0
166182,note_on,,,,,0,0,9,,,,,8,,,,33,45
166182,note_on,,,,,96,0,9,,,,,8,,,,34,0
166184,note_on,,,,,96,0,8,,,,,7,,,,46,0
166184,note_on,,,,,0,0,8,,,,,7,,,,45,45
166186,note_on,,,,,96,0,6,,,,,5,,,,58,0
166186,note_on,,,,,0,0,6,,,,,5,,,,57,45
166272,set_tempo,,,,,768,1,0,,294118,,,,,,,,
166272,note_on,,,,,96,0,5,,,,,4,,,,57,0
166272,note_on,,,,,0,0,5,,,,,4,,,,58,45
166274,note_on,,,,,0,0,7,,,,,6,,,,58,45
166274,note_on,,,,,96,0,7,,,,,6,,,,57,0
166278,note_on,,,,,96,0,9,,,,,8,,,,33,0
166278,note_on,,,,,0,0,9,,,,,8,,,,34,45
166280,note_on,,,,,0,0,8,,,,,7,,,,46,45
166280,note_on,,,,,96,0,8,,,,,7,,,,45,0
166282,note_on,,,,,96,0,6,,,,,5,,,,57,0
166282,note_on,,,,,0,0,6,,,,,5,,,,58,45
166368,note_on,,,,,0,0,5,,,,,4,,,,57,45
166368,note_on,,,,,96,0,5,,,,,4,,,,58,0
166370,note_on,,,,,0,0,7,,,,,6,,,,57,45
166370,note_on,,,,,96,0,7,,,,,6,,,,58,0
166374,note_on,,,,,0,0,9,,,,,8,,,,33,45
166374,note_on,,,,,96,0,9,,,,,8,,,,34,0
166376,note_on,,,,,0,0,8,,,,,7,,,,45,45
166376,note_on,,,,,96,0,8,,,,,7,,,,46,0
166378,note_on,,,,,0,0,6,,,,,5,,,,57,45
166378,note_on,,,,,96,0,6,,,,,5,,,,58,0
166464,note_on,,,,,0,0,5,,,,,4,,,,58,45
166464,note_on,,,,,96,0,5,,,,,4,,,,57,0
166466,note_on,,,,,386,0,3,,,,,2,,,,67,108
166466,note_on,,,,,0,0,7,,,,,6,,,,58,45
166466,note_on,,,,,96,0,7,,,,,6,,,,57,0
166470,note_on,,,,,386,0,4,,,,,3,,,,52,108
166470,note_on,,,,,0,0,9,,,,,8,,,,34,45
166470,note_on,,,,,96,0,9,,,,,8,,,,33,0
166472,note_on,,,,,0,0,8,,,,,7,,,,46,45
166472,note_on,,,,,96,0,8,,,,,7,,,,45,0
166474,note_on,,,,,0,0,6,,,,,5,,,,58,45
166474,note_on,,,,,96,0,6,,,,,5,,,,57,0
166560,note_on,,,,,96,0,5,,,,,4,,,,58,0
166560,note_on,,,,,0,0,5,,,,,4,,,,57,45
166562,note_on,,,,,96,0,7,,,,,6,,,,58,0
166562,note_on,,,,,0,0,3,,,,,2,,,,79,108
166562,note_on,,,,,96,0,3,,,,,2,,,,67,0
166562,note_on,,,,,0,0,7,,,,,6,,,,57,45
166566,note_on,,,,,0,0,4,,,,,3,,,,64,108
166566,note_on,,,,,0,0,9,,,,,8,,,,33,45
166566,note_on,,,,,96,0,9,,,,,8,,,,34,0
166566,note_on,,,,,96,0,4,,,,,3,,,,52,0
166568,note_on,,,,,96,0,8,,,,,7,,,,46,0
166568,note_on,,,,,0,0,8,,,,,7,,,,45,45
166570,note_on,,,,,0,0,6,,,,,5,,,,57,45
166570,note_on,,,,,96,0,6,,,,,5,,,,58,0
166654,note_on,,,,,94,0,5,,,,,4,,,,57,0
166656,note_on,,,,,2,0,5,,,,,4,,,,58,45
166656,note_on,,,,,94,0,7,,,,,6,,,,57,0
166658,note_on,,,,,0,0,3,,,,,2,,,,68,108
166658,note_on,,,,,2,0,7,,,,,6,,,,58,45
166658,note_on,,,,,96,0,3,,,,,2,,,,79,0
166660,note_on,,,,,94,0,9,,,,,8,,,,33,0
166662,note_on,,,,,94,0,8,,,,,7,,,,45,0
166662,note_on,,,,,2,0,9,,,,,8,,,,34,45
166662,note_on,,,,,0,0,4,,,,,3,,,,53,108
166662,note_on,,,,,96,0,4,,,,,3,,,,64,0
166664,note_on,,,,,2,0,8,,,,,7,,,,46,45
166664,note_on,,,,,94,0,6,,,,,5,,,,57,0
166666,note_on,,,,,2,0,6,,,,,5,,,,58,45
166752,note_on,,,,,96,0,5,,,,,4,,,,58,0
166752,note_on,,,,,0,0,5,,,,,4,,,,57,45
166754,note_on,,,,,96,0,7,,,,,6,,,,58,0
166754,note_on,,,,,96,0,3,,,,,2,,,,68,0
166754,note_on,,,,,0,0,3,,,,,2,,,,80,108
166754,note_on,,,,,0,0,7,,,,,6,,,,57,45
166758,note_on,,,,,0,0,4,,,,,3,,,,65,108
166758,note_on,,,,,96,0,4,,,,,3,,,,53,0
166758,note_on,,,,,0,0,9,,,,,8,,,,33,45
166758,note_on,,,,,96,0,9,,,,,8,,,,34,0
166760,note_on,,,,,96,0,8,,,,,7,,,,46,0
166760,note_on,,,,,0,0,8,,,,,7,,,,45,45
166762,note_on,,,,,96,0,6,,,,,5,,,,58,0
166762,note_on,,,,,0,0,6,,,,,5,,,,57,45
166848,note_on,,,,,96,0,5,,,,,4,,,,57,0
166848,note_on,,,,,94,0,3,,,,,2,,,,80,0
166848,note_on,,,,,0,0,5,,,,,4,,,,58,45
166850,note_on,,,,,0,0,7,,,,,6,,,,58,45
166850,note_on,,,,,96,0,7,,,,,6,,,,57,0
166852,note_on,,,,,94,0,4,,,,,3,,,,65,0
166854,note_on,,,,,0,0,9,,,,,8,,,,34,45
166854,note_on,,,,,96,0,9,,,,,8,,,,33,0
166856,note_on,,,,,96,0,8,,,,,7,,,,45,0
166856,note_on,,,,,0,0,8,,,,,7,,,,46,45
166858,note_on,,,,,96,0,6,,,,,5,,,,57,0
166858,note_on,,,,,0,0,6,,,,,5,,,,58,45
166944,note_on,,,,,96,0,5,,,,,4,,,,58,0
166944,note_on,,,,,0,0,5,,,,,4,,,,57,45
166946,note_on,,,,,0,0,7,,,,,6,,,,57,45
166946,note_on,,,,,96,0,7,,,,,6,,,,58,0
166950,note_on,,,,,96,0,9,,,,,8,,,,34,0
166950,note_on,,,,,0,0,9,,,,,8,,,,33,45
166952,note_on,,,,,0,0,8,,,,,7,,,,45,45
166952,note_on,,,,,96,0,8,,,,,7,,,,46,0
166954,note_on,,,,,96,0,6,,,,,5,,,,58,0
166954,note_on,,,,,0,0,6,,,,,5,,,,57,45
167040,note_on,,,,,96,0,5,,,,,4,,,,57,0
167040,note_on,,,,,0,0,5,,,,,4,,,,58,45
167040,set_tempo,,,,,768,1,0,,289855,,,,,,,,
167042,note_on,,,,,96,0,7,,,,,6,,,,57,0
167042,note_on,,,,,0,0,7,,,,,6,,,,58,45
167046,note_on,,,,,96,0,9,,,,,8,,,,33,0
167046,note_on,,,,,0,0,9,,,,,8,,,,34,45
167048,note_on,,,,,0,0,8,,,,,7,,,,46,45
167048,note_on,,,,,96,0,8,,,,,7,,,,45,0
167050,note_on,,,,,96,0,6,,,,,5,,,,57,0
167050,note_on,,,,,0,0,6,,,,,5,,,,58,45
167136,note_on,,,,,96,0,5,,,,,4,,,,58,0
167136,note_on,,,,,0,0,5,,,,,4,,,,57,45
167138,note_on,,,,,96,0,7,,,,,6,,,,58,0
167138,note_on,,,,,0,0,7,,,,,6,,,,57,45
167142,note_on,,,,,96,0,9,,,,,8,,,,34,0
167142,note_on,,,,,0,0,9,,,,,8,,,,33,45
167144,note_on,,,,,0,0,8,,,,,7,,,,45,45
167144,note_on,,,,,96,0,8,,,,,7,,,,46,0
167146,note_on,,,,,0,0,6,,,,,5,,,,57,45
167146,note_on,,,,,96,0,6,,,,,5,,,,58,0
167232,note_on,,,,,96,0,5,,,,,4,,,,57,0
167232,note_on,,,,,0,0,5,,,,,4,,,,58,45
167234,note_on,,,,,0,0,7,,,,,6,,,,58,45
167234,note_on,,,,,96,0,7,,,,,6,,,,57,0
167234,note_on,,,,,386,0,3,,,,,2,,,,69,127
167238,note_on,,,,,0,0,9,,,,,8,,,,34,45
167238,note_on,,,,,386,0,4,,,,,3,,,,54,127
167238,note_on,,,,,96,0,9,,,,,8,,,,33,0
167240,note_on,,,,,96,0,8,,,,,7,,,,45,0
167240,note_on,,,,,0,0,8,,,,,7,,,,46,45
167242,note_on,,,,,96,0,6,,,,,5,,,,57,0
167242,note_on,,,,,0,0,6,,,,,5,,,,58,45
167328,note_on,,,,,94,0,3,,,,,2,,,,69,0
167328,note_on,,,,,0,0,5,,,,,4,,,,57,45
167328,note_on,,,,,96,0,5,,,,,4,,,,58,0
167330,note_on,,,,,96,0,7,,,,,6,,,,58,0
167330,note_on,,,,,0,0,7,,,,,6,,,,57,45
167330,note_on,,,,,2,0,3,,,,,2,,,,81,127
167332,note_on,,,,,94,0,4,,,,,3,,,,54,0
167334,note_on,,,,,2,0,4,,,,,3,,,,66,127
167334,note_on,,,,,96,0,9,,,,,8,,,,34,0
167334,note_on,,,,,0,0,9,,,,,8,,,,33,45
167336,note_on,,,,,0,0,8,,,,,7,,,,45,45
167336,note_on,,,,,96,0,8,,,,,7,,,,46,0
167338,note_on,,,,,0,0,6,,,,,5,,,,57,45
167338,note_on,,,,,96,0,6,,,,,5,,,,58,0
167422,note_on,,,,,94,0,5,,,,,4,,,,57,0
167424,note_on,,,,,94,0,7,,,,,6,,,,57,0
167424,note_on,,,,,2,0,5,,,,,4,,,,58,45
167424,note_on,,,,,94,0,3,,,,,2,,,,81,0
167426,note_on,,,,,2,0,7,,,,,6,,,,58,45
167426,note_on,,,,,2,0,3,,,,,2,,,,70,127
167428,note_on,,,,,94,0,4,,,,,3,,,,66,0
167428,note_on,,,,,94,0,9,,,,,8,,,,33,0
167430,note_on,,,,,2,0,9,,,,,8,,,,34,45
167430,note_on,,,,,2,0,4,,,,,3,,,,55,127
167430,note_on,,,,,94,0,8,,,,,7,,,,45,0
167432,note_on,,,,,94,0,6,,,,,5,,,,57,0
167432,note_on,,,,,2,0,8,,,,,7,,,,46,45
167434,note_on,,,,,2,0,6,,,,,5,,,,58,45
167520,note_on,,,,,94,0,3,,,,,2,,,,70,0
167522,note_on,,,,,2,0,3,,,,,2,,,,82,127
167524,note_on,,,,,94,0,4,,,,,3,,,,55,0
167526,note_on,,,,,2,0,4,,,,,3,,,,67,127
167584,note_on,,,,,160,0,5,,,,,4,,,,58,0
167586,note_on,,,,,160,0,7,,,,,6,,,,58,0
167588,note_on,,,,,0,0,1,,,,,0,,,,70,0
167588,note_on,,,,,4000,0,1,,,,,0,,,,82,0
167590,note_on,,,,,160,0,9,,,,,8,,,,34,0
167591,note_on,,,,,4000,0,2,,,,,1,,,,58,0
167591,note_on,,,,,0,0,2,,,,,1,,,,46,0
167592,note_on,,,,,160,0,8,,,,,7,,,,46,0
167594,note_on,,,,,160,0,6,,,,,5,,,,58,0
167616,note_on,,,,,94,0,3,,,,,2,,,,82,0
167618,note_on,,,,,2,0,3,,,,,2,,,,71,127
167620,note_on,,,,,94,0,4,,,,,3,,,,67,0
167622,note_on,,,,,2,0,4,,,,,3,,,,55,127
167712,note_on,,,,,94,0,3,,,,,2,,,,71,0
167714,note_on,,,,,2,0,3,,,,,2,,,,83,127
167716,note_on,,,,,94,0,4,,,,,3,,,,55,0
167718,note_on,,,,,2,0,4,,,,,3,,,,67,127
167760,set_tempo,,,,,720,1,0,,288462,,,,,,,,
167808,note_on,,,,,94,0,3,,,,,2,,,,83,0
167810,note_on,,,,,2,0,3,,,,,2,,,,72,127
167812,note_on,,,,,94,0,4,,,,,3,,,,67,0
167814,note_on,,,,,2,0,4,,,,,3,,,,56,127
167904,note_on,,,,,94,0,3,,,,,2,,,,72,0
167906,note_on,,,,,2,0,3,,,,,2,,,,84,127
167908,note_on,,,,,94,0,4,,,,,3,,,,56,0
167910,note_on,,,,,2,0,4,,,,,3,,,,68,127
168000,note_on,,,,,94,0,3,,,,,2,,,,84,0
168000,note_on,,,,,416,0,5,,,,,4,,,,70,75
168002,note_on,,,,,2,0,3,,,,,2,,,,74,127
168004,note_on,,,,,94,0,4,,,,,3,,,,68,0
168006,note_on,,,,,2,0,4,,,,,3,,,,53,127
168048,note_on,,,,,48,0,5,,,,,4,,,,70,0
168096,note_on,,,,,94,0,3,,,,,2,,,,74,0
168096,set_tempo,,,,,336,1,0,,287081,,,,,,,,
168098,note_on,,,,,2,0,3,,,,,2,,,,86,127
168100,note_on,,,,,94,0,4,,,,,3,,,,53,0
168102,note_on,,,,,2,0,4,,,,,3,,,,65,127
168192,note_on,,,,,94,0,3,,,,,2,,,,86,0
168192,note_on,,,,,144,0,5,,,,,4,,,,75,75
168194,note_on,,,,,2,0,3,,,,,2,,,,75,92
168196,note_on,,,,,94,0,4,,,,,3,,,,65,0
168198,note_on,,,,,2,0,4,,,,,3,,,,51,92
168198,note_on,,,,,0,0,4,,,,,3,,,,63,92
168240,note_on,,,,,48,0,5,,,,,4,,,,75,0
168288,note_on,,,,,94,0,3,,,,,2,,,,75,0
168290,note_on,,,,,2,0,3,,,,,2,,,,87,92
168358,note_on,,,,,0,0,4,,,,,3,,,,51,0
168358,note_on,,,,,160,0,4,,,,,3,,,,63,0
168384,note_on,,,,,94,0,3,,,,,2,,,,87,0
168384,note_on,,,,,144,0,5,,,,,4,,,,70,75
168386,note_on,,,,,2,0,3,,,,,2,,,,70,92
168432,set_tempo,,,,,336,1,0,,285714,,,,,,,,
168432,note_on,,,,,48,0,5,,,,,4,,,,70,0
168480,note_on,,,,,94,0,3,,,,,2,,,,70,0
168482,note_on,,,,,2,0,3,,,,,2,,,,82,92
168576,note_on,,,,,94,0,3,,,,,2,,,,82,0
168576,note_on,,,,,144,0,5,,,,,4,,,,72,75
168578,note_on,,,,,2,0,3,,,,,2,,,,72,92
168582,note_on,,,,,224,0,4,,,,,3,,,,51,92
168624,note_on,,,,,48,0,5,,,,,4,,,,72,0
168672,note_on,,,,,94,0,3,,,,,2,,,,72,0
168674,note_on,,,,,2,0,3,,,,,2,,,,84,92
168768,note_on,,,,,144,0,5,,,,,4,,,,67,75
168768,set_tempo,,,,,336,1,0,,284360,,,,,,,,
168768,note_on,,,,,94,0,3,,,,,2,,,,84,0
168770,note_on,,,,,2,0,3,,,,,2,,,,67,92
168816,note_on,,,,,48,0,5,,,,,4,,,,67,0
168864,note_on,,,,,94,0,3,,,,,2,,,,67,0
168866,note_on,,,,,2,0,3,,,,,2,,,,79,92
168960,note_on,,,,,144,0,5,,,,,4,,,,68,75
168960,note_on,,,,,94,0,3,,,,,2,,,,79,0
168962,note_on,,,,,2,0,3,,,,,2,,,,68,92
169008,note_on,,,,,48,0,5,,,,,4,,,,68,0
169056,note_on,,,,,94,0,3,,,,,2,,,,68,0
169058,note_on,,,,,2,0,3,,,,,2,,,,80,92
169104,set_tempo,,,,,336,1,0,,283019,,,,,,,,
169152,note_on,,,,,144,0,5,,,,,4,,,,65,75
169152,note_on,,,,,94,0,3,,,,,2,,,,80,0
169154,note_on,,,,,2,0,3,,,,,2,,,,65,92
169200,note_on,,,,,48,0,5,,,,,4,,,,65,0
169248,note_on,,,,,94,0,3,,,,,2,,,,65,0
169250,note_on,,,,,2,0,3,,,,,2,,,,77,92
169302,note_on,,,,,720,0,4,,,,,3,,,,51,0
169344,note_on,,,,,94,0,3,,,,,2,,,,77,0
169344,note_on,,,,,144,0,5,,,,,4,,,,58,75
169346,note_on,,,,,2,0,3,,,,,2,,,,58,92
169350,note_on,,,,,48,0,4,,,,,3,,,,50,92
169392,note_on,,,,,48,0,5,,,,,4,,,,58,0
169440,set_tempo,,,,,336,1,0,,281690,,,,,,,,
169440,note_on,,,,,94,0,3,,,,,2,,,,58,0
169442,note_on,,,,,2,0,3,,,,,2,,,,70,92
169536,note_on,,,,,94,0,3,,,,,2,,,,70,0
169536,note_on,,,,,144,0,5,,,,,4,,,,70,75
169538,note_on,,,,,2,0,3,,,,,2,,,,70,92
169584,note_on,,,,,48,0,5,,,,,4,,,,70,0
169632,note_on,,,,,94,0,3,,,,,2,,,,70,0
169634,note_on,,,,,2,0,3,,,,,2,,,,82,92
169686,note_on,,,,,336,0,4,,,,,3,,,,50,0
169728,note_on,,,,,144,0,5,,,,,4,,,,67,75
169728,note_on,,,,,94,0,3,,,,,2,,,,82,0
169730,note_on,,,,,2,0,3,,,,,2,,,,67,92
169734,note_on,,,,,48,0,4,,,,,3,,,,51,92
169776,note_on,,,,,48,0,5,,,,,4,,,,67,0
169776,set_tempo,,,,,336,1,0,,280374,,,,,,,,
169824,note_on,,,,,94,0,3,,,,,2,,,,67,0
169826,note_on,,,,,2,0,3,,,,,2,,,,79,92
169920,note_on,,,,,144,0,5,,,,,4,,,,63,75
169920,note_on,,,,,94,0,3,,,,,2,,,,79,0
169922,note_on,,,,,2,0,3,,,,,2,,,,63,92
169968,note_on,,,,,48,0,5,,,,,4,,,,63,0
170016,note_on,,,,,94,0,3,,,,,2,,,,63,0
170018,note_on,,,,,2,0,3,,,,,2,,,,75,92
170070,note_on,,,,,336,0,4,,,,,3,,,,51,0
170112,note_on,,,,,144,0,5,,,,,4,,,,56,75
170112,note_on,,,,,94,0,3,,,,,2,,,,75,0
170112,set_tempo,,,,,336,1,0,,279070,,,,,,,,
170114,note_on,,,,,2,0,3,,,,,2,,,,60,92
170118,note_on,,,,,48,0,4,,,,,3,,,,44,92
170160,note_on,,,,,48,0,5,,,,,4,,,,56,0
170208,note_on,,,,,94,0,3,,,,,2,,,,60,0
170210,note_on,,,,,2,0,3,,,,,2,,,,72,92
170304,note_on,,,,,144,0,5,,,,,4,,,,72,75
170304,note_on,,,,,94,0,3,,,,,2,,,,72,0
170306,note_on,,,,,2,0,3,,,,,2,,,,72,92
170352,note_on,,,,,48,0,5,,,,,4,,,,72,0
170400,note_on,,,,,94,0,3,,,,,2,,,,72,0
170402,note_on,,,,,2,0,3,,,,,2,,,,84,92
170454,note_on,,,,,336,0,4,,,,,3,,,,44,0
170496,note_on,,,,,144,0,5,,,,,4,,,,63,75
170496,set_tempo,,,,,384,1,0,,292683,,,,,,,,
170496,note_on,,,,,94,0,3,,,,,2,,,,84,0
170498,note_on,,,,,2,0,3,,,,,2,,,,63,92
170592,note_on,,,,,94,0,3,,,,,2,,,,63,0
170594,note_on,,,,,2,0,3,,,,,2,,,,75,92
170688,note_on,,,,,0,0,5,,,,,4,,,,62,75
170688,note_on,,,,,192,0,5,,,,,4,,,,63,0
170688,note_on,,,,,94,0,3,,,,,2,,,,75,0
170690,note_on,,,,,2,0,3,,,,,2,,,,62,92
170694,note_on,,,,,240,0,4,,,,,3,,,,46,92
170784,note_on,,,,,94,0,3,,,,,2,,,,62,0
170786,note_on,,,,,2,0,3,,,,,2,,,,74,92
170788,note_on,,,,,94,0,4,,,,,3,,,,46,0
170790,note_on,,,,,2,0,4,,,,,3,,,,58,92
170848,note_on,,,,,160,0,5,,,,,4,,,,62,0
170880,set_tempo,,,,,384,1,0,,279070,,,,,,,,
170880,note_on,,,,,94,0,3,,,,,2,,,,74,0
170884,note_on,,,,,94,0,4,,,,,3,,,,58,0
170886,note_on,,,,,2,0,4,,,,,3,,,,44,92
170980,note_on,,,,,94,0,4,,,,,3,,,,44,0
170982,note_on,,,,,2,0,4,,,,,3,,,,56,92
171072,note_on,,,,,224,0,5,,,,,4,,,,63,75
171074,note_on,,,,,194,0,3,,,,,2,,,,63,92
171076,note_on,,,,,94,0,4,,,,,3,,,,56,0
171078,note_on,,,,,2,0,4,,,,,3,,,,43,92
171120,note_on,,,,,48,0,5,,,,,4,,,,63,0
171168,note_on,,,,,94,0,3,,,,,2,,,,63,0
171170,note_on,,,,,2,0,3,,,,,2,,,,75,92
171172,note_on,,,,,94,0,4,,,,,3,,,,43,0
171174,note_on,,,,,2,0,4,,,,,3,,,,55,92
171264,note_on,,,,,144,0,5,,,,,4,,,,60,75
171264,note_on,,,,,94,0,3,,,,,2,,,,75,0
171266,note_on,,,,,2,0,3,,,,,2,,,,60,92
171268,note_on,,,,,94,0,4,,,,,3,,,,55,0
171270,note_on,,,,,2,0,4,,,,,3,,,,44,92
171312,note_on,,,,,48,0,5,,,,,4,,,,60,0
171360,note_on,,,,,94,0,3,,,,,2,,,,60,0
171362,note_on,,,,,2,0,3,,,,,2,,,,72,92
171364,note_on,,,,,94,0,4,,,,,3,,,,44,0
171366,note_on,,,,,2,0,4,,,,,3,,,,56,92
171456,note_on,,,,,144,0,5,,,,,4,,,,65,75
171456,note_on,,,,,94,0,3,,,,,2,,,,72,0
171456,set_tempo,,,,,576,1,0,,277778,,,,,,,,
171458,note_on,,,,,2,0,3,,,,,2,,,,65,92
171460,note_on,,,,,94,0,4,,,,,3,,,,56,0
171462,note_on,,,,,2,0,4,,,,,3,,,,45,92
171504,note_on,,,,,48,0,5,,,,,4,,,,65,0
171552,note_on,,,,,94,0,3,,,,,2,,,,65,0
171554,note_on,,,,,2,0,3,,,,,2,,,,77,92
171556,note_on,,,,,94,0,4,,,,,3,,,,45,0
171558,note_on,,,,,2,0,4,,,,,3,,,,57,92
171648,note_on,,,,,144,0,5,,,,,4,,,,62,75
171648,set_tempo,,,,,192,1,0,,276498,,,,,,,,
171648,note_on,,,,,94,0,3,,,,,2,,,,77,0
171650,note_on,,,,,2,0,3,,,,,2,,,,62,92
171652,note_on,,,,,94,0,4,,,,,3,,,,57,0
171654,note_on,,,,,2,0,4,,,,,3,,,,46,92
171696,note_on,,,,,48,0,5,,,,,4,,,,62,0
171744,note_on,,,,,94,0,3,,,,,2,,,,62,0
171746,note_on,,,,,2,0,3,,,,,2,,,,74,92
171748,note_on,,,,,94,0,4,,,,,3,,,,46,0
171750,note_on,,,,,2,0,4,,,,,3,,,,58,92
171840,note_on,,,,,94,0,3,,,,,2,,,,74,0
171840,set_tempo,,,,,192,1,0,,275229,,,,,,,,
171840,note_on,,,,,144,0,5,,,,,4,,,,67,75
171842,note_on,,,,,2,0,3,,,,,2,,,,67,92
171844,note_on,,,,,94,0,4,,,,,3,,,,58,0
171846,note_on,,,,,2,0,4,,,,,3,,,,47,92
171888,note_on,,,,,48,0,5,,,,,4,,,,67,0
171936,note_on,,,,,94,0,3,,,,,2,,,,67,0
171938,note_on,,,,,2,0,3,,,,,2,,,,79,92
171940,note_on,,,,,94,0,4,,,,,3,,,,47,0
171942,note_on,,,,,2,0,4,,,,,3,,,,59,92
172032,set_tempo,,,,,192,1,0,,273973,,,,,,,,
172032,note_on,,,,,144,0,5,,,,,4,,,,63,75
172032,note_on,,,,,94,0,3,,,,,2,,,,79,0
172034,note_on,,,,,2,0,3,,,,,2,,,,63,92
172036,note_on,,,,,94,0,4,,,,,3,,,,59,0
172038,note_on,,,,,2,0,4,,,,,3,,,,48,92
172080,note_on,,,,,48,0,5,,,,,4,,,,63,0
172128,note_on,,,,,94,0,3,,,,,2,,,,63,0
172130,note_on,,,,,2,0,3,,,,,2,,,,75,92
172132,note_on,,,,,94,0,4,,,,,3,,,,48,0
172134,note_on,,,,,2,0,4,,,,,3,,,,60,92
172224,note_on,,,,,94,0,3,,,,,2,,,,75,0
172224,set_tempo,,,,,192,1,0,,272727,,,,,,,,
172224,note_on,,,,,144,0,5,,,,,4,,,,68,75
172226,note_on,,,,,2,0,3,,,,,2,,,,68,92
172228,note_on,,,,,94,0,4,,,,,3,,,,60,0
172230,note_on,,,,,2,0,4,,,,,3,,,,41,92
172272,note_on,,,,,48,0,5,,,,,4,,,,68,0
172320,note_on,,,,,94,0,3,,,,,2,,,,68,0
172322,note_on,,,,,2,0,3,,,,,2,,,,80,92
172324,note_on,,,,,94,0,4,,,,,3,,,,41,0
172326,note_on,,,,,2,0,4,,,,,3,,,,53,92
172416,note_on,,,,,94,0,3,,,,,2,,,,80,0
172416,set_tempo,,,,,192,1,0,,271493,,,,,,,,
172416,note_on,,,,,144,0,5,,,,,4,,,,65,75
172418,note_on,,,,,2,0,3,,,,,2,,,,65,92
172420,note_on,,,,,94,0,4,,,,,3,,,,53,0
172422,note_on,,,,,2,0,4,,,,,3,,,,44,92
172464,note_on,,,,,48,0,5,,,,,4,,,,65,0
172512,note_on,,,,,94,0,3,,,,,2,,,,65,0
172514,note_on,,,,,2,0,3,,,,,2,,,,77,92
172516,note_on,,,,,94,0,4,,,,,3,,,,44,0
172518,note_on,,,,,2,0,4,,,,,3,,,,56,92
172608,note_on,,,,,144,0,5,,,,,4,,,,70,75
172608,note_on,,,,,94,0,3,,,,,2,,,,77,0
172608,set_tempo,,,,,192,1,0,,270270,,,,,,,,
172610,note_on,,,,,2,0,3,,,,,2,,,,70,92
172612,note_on,,,,,94,0,4,,,,,3,,,,56,0
172614,note_on,,,,,2,0,4,,,,,3,,,,38,92
172656,note_on,,,,,48,0,5,,,,,4,,,,70,0
172704,note_on,,,,,94,0,3,,,,,2,,,,70,0
172706,note_on,,,,,2,0,3,,,,,2,,,,82,92
172708,note_on,,,,,94,0,4,,,,,3,,,,38,0
172710,note_on,,,,,2,0,4,,,,,3,,,,50,92
172800,note_on,,,,,94,0,3,,,,,2,,,,82,0
172800,note_on,,,,,144,0,5,,,,,4,,,,67,75
172800,set_tempo,,,,,192,1,0,,269058,,,,,,,,
172802,note_on,,,,,2,0,3,,,,,2,,,,67,92
172804,note_on,,,,,94,0,4,,,,,3,,,,50,0
172806,note_on,,,,,2,0,4,,,,,3,,,,39,92
172848,note_on,,,,,48,0,5,,,,,4,,,,67,0
172896,note_on,,,,,94,0,3,,,,,2,,,,67,0
172898,note_on,,,,,2,0,3,,,,,2,,,,79,92
172900,note_on,,,,,94,0,4,,,,,3,,,,39,0
172902,note_on,,,,,2,0,4,,,,,3,,,,51,92
172992,note_on,,,,,144,0,5,,,,,4,,,,75,75
172992,note_on,,,,,94,0,3,,,,,2,,,,79,0
172992,set_tempo,,,,,192,1,0,,267857,,,,,,,,
172994,note_on,,,,,2,0,3,,,,,2,,,,72,92
172996,note_on,,,,,94,0,4,,,,,3,,,,51,0
172998,note_on,,,,,2,0,4,,,,,3,,,,36,92
173040,note_on,,,,,48,0,5,,,,,4,,,,75,0
173088,note_on,,,,,94,0,3,,,,,2,,,,72,0
173090,note_on,,,,,2,0,3,,,,,2,,,,84,92
173092,note_on,,,,,94,0,4,,,,,3,,,,36,0
173094,note_on,,,,,2,0,4,,,,,3,,,,48,92
173184,note_on,,,,,94,0,3,,,,,2,,,,84,0
173184,set_tempo,,,,,192,1,0,,266667,,,,,,,,
173184,note_on,,,,,144,0,5,,,,,4,,,,65,75
173186,note_on,,,,,2,0,3,,,,,2,,,,65,92
173188,note_on,,,,,94,0,4,,,,,3,,,,48,0
173190,note_on,,,,,2,0,4,,,,,3,,,,45,92
173232,note_on,,,,,48,0,5,,,,,4,,,,65,0
173280,note_on,,,,,94,0,3,,,,,2,,,,65,0
173282,note_on,,,,,2,0,3,,,,,2,,,,77,92
173284,note_on,,,,,94,0,4,,,,,3,,,,45,0
173286,note_on,,,,,2,0,4,,,,,3,,,,57,92
173376,note_on,,,,,94,0,3,,,,,2,,,,77,0
173376,note_on,,,,,144,0,5,,,,,4,,,,69,75
173378,note_on,,,,,2,0,3,,,,,2,,,,69,92
173378,note_on,,,,,5792,0,7,,,,,6,,,,60,45
173380,note_on,,,,,94,0,4,,,,,3,,,,57,0
173382,note_on,,,,,2,0,4,,,,,3,,,,41,92
173386,note_on,,,,,5792,0,6,,,,,5,,,,65,45
173472,note_on,,,,,94,0,3,,,,,2,,,,69,0
173474,note_on,,,,,2,0,3,,,,,2,,,,81,92
173476,note_on,,,,,94,0,4,,,,,3,,,,41,0
173478,note_on,,,,,2,0,4,,,,,3,,,,53,92
173536,note_on,,,,,160,0,5,,,,,4,,,,69,0
173538,note_on,,,,,160,0,7,,,,,6,,,,60,0
173546,note_on,,,,,160,0,6,,,,,5,,,,65,0
173568,set_tempo,,,,,384,1,0,,292683,,,,,,,,
173568,note_on,,,,,32,0,5,,,,,4,,,,72,75
173568,note_on,,,,,94,0,3,,,,,2,,,,81,0
173570,note_on,,,,,32,0,7,,,,,6,,,,63,45
173570,note_on,,,,,2,0,3,,,,,2,,,,72,92
173572,note_on,,,,,94,0,4,,,,,3,,,,53,0
173578,note_on,,,,,32,0,6,,,,,5,,,,65,45
173578,note_on,,,,,0,0,6,,,,,5,,,,69,45
173664,note_on,,,,,94,0,3,,,,,2,,,,72,0
173666,note_on,,,,,2,0,3,,,,,2,,,,84,92
173760,note_on,,,,,0,0,5,,,,,4,,,,70,75
173760,note_on,,,,,192,0,5,,,,,4,,,,72,0
173760,note_on,,,,,94,0,3,,,,,2,,,,84,0
173762,note_on,,,,,0,0,7,,,,,6,,,,62,45
173762,note_on,,,,,192,0,7,,,,,6,,,,63,0
173762,note_on,,,,,2,0,3,,,,,2,,,,70,92
173766,note_on,,,,,194,0,4,,,,,3,,,,58,92
173770,note_on,,,,,192,0,6,,,,,5,,,,69,0
173770,note_on,,,,,0,0,6,,,,,5,,,,70,45
173856,note_on,,,,,94,0,3,,,,,2,,,,70,0
173858,note_on,,,,,2,0,3,,,,,2,,,,82,92
173914,note_on,,,,,144,0,6,,,,,5,,,,65,0
173920,note_on,,,,,160,0,5,,,,,4,,,,70,0
173922,note_on,,,,,160,0,7,,,,,6,,,,62,0
173926,note_on,,,,,160,0,4,,,,,3,,,,58,0
173930,note_on,,,,,16,0,6,,,,,5,,,,70,0
173952,note_on,,,,,94,0,3,,,,,2,,,,82,0
173952,set_tempo,,,,,384,1,0,,279070,,,,,,,,
173958,note_on,,,,,32,0,4,,,,,3,,,,46,92
174118,note_on,,,,,160,0,4,,,,,3,,,,46,0
174144,note_on,,,,,224,0,5,,,,,4,,,,70,108
174148,note_on,,,,,6560,0,1,,,,,0,,,,70,108
174151,note_on,,,,,6560,0,2,,,,,1,,,,46,108
174151,note_on,,,,,0,0,2,,,,,1,,,,58,108
174154,note_on,,,,,224,0,6,,,,,5,,,,70,108
174192,note_on,,,,,48,0,5,,,,,4,,,,70,0
174196,note_on,,,,,48,0,1,,,,,0,,,,70,0
174202,note_on,,,,,48,0,6,,,,,5,,,,70,0
174311,note_on,,,,,160,0,2,,,,,1,,,,58,0
174311,note_on,,,,,0,0,2,,,,,1,,,,46,0
174316,set_tempo,,,,,364,1,0,,277778,,,,,,,,
174336,note_on,,,,,144,0,5,,,,,4,,,,75,108
174340,note_on,,,,,144,0,1,,,,,0,,,,75,108
174343,note_on,,,,,32,0,2,,,,,1,,,,51,108
174343,note_on,,,,,0,0,2,,,,,1,,,,63,108
174346,note_on,,,,,144,0,6,,,,,5,,,,75,108
174384,note_on,,,,,48,0,5,,,,,4,,,,75,0
174388,note_on,,,,,48,0,1,,,,,0,,,,75,0
174394,note_on,,,,,48,0,6,,,,,5,,,,75,0
174434,note_on,,,,,512,0,7,,,,,6,,,,63,108
174438,note_on,,,,,6848,0,9,,,,,8,,,,39,108
174440,note_on,,,,,6848,0,8,,,,,7,,,,51,108
174489,set_tempo,,,,,173,1,0,,276498,,,,,,,,
174503,note_on,,,,,0,0,2,,,,,1,,,,51,0
174503,note_on,,,,,160,0,2,,,,,1,,,,63,0
174528,note_on,,,,,94,0,7,,,,,6,,,,63,0
174528,note_on,,,,,144,0,5,,,,,4,,,,70,108
174530,note_on,,,,,2,0,7,,,,,6,,,,67,108
174532,note_on,,,,,144,0,1,,,,,0,,,,82,108
174532,note_on,,,,,94,0,9,,,,,8,,,,39,0
174534,note_on,,,,,2,0,9,,,,,8,,,,43,108
174534,note_on,,,,,94,0,8,,,,,7,,,,51,0
174536,note_on,,,,,2,0,8,,,,,7,,,,55,108
174538,note_on,,,,,144,0,6,,,,,5,,,,70,108
174576,note_on,,,,,48,0,5,,,,,4,,,,70,0
174580,note_on,,,,,48,0,1,,,,,0,,,,82,0
174586,note_on,,,,,48,0,6,,,,,5,,,,70,0
174624,note_on,,,,,94,0,7,,,,,6,,,,67,0
174626,note_on,,,,,2,0,7,,,,,6,,,,65,108
174628,note_on,,,,,94,0,9,,,,,8,,,,43,0
174630,note_on,,,,,2,0,9,,,,,8,,,,41,108
174630,note_on,,,,,94,0,8,,,,,7,,,,55,0
174632,note_on,,,,,2,0,8,,,,,7,,,,53,108
174662,set_tempo,,,,,173,1,0,,275229,,,,,,,,
174720,note_on,,,,,94,0,7,,,,,6,,,,65,0
174720,note_on,,,,,144,0,5,,,,,4,,,,72,108
174722,note_on,,,,,2,0,7,,,,,6,,,,64,108
174724,note_on,,,,,94,0,9,,,,,8,,,,41,0
174724,note_on,,,,,144,0,1,,,,,0,,,,84,108
174726,note_on,,,,,2,0,9,,,,,8,,,,40,108
174726,note_on,,,,,94,0,8,,,,,7,,,,53,0
174727,note_on,,,,,0,0,2,,,,,1,,,,70,108
174727,note_on,,,,,224,0,2,,,,,1,,,,67,108
174728,note_on,,,,,2,0,8,,,,,7,,,,52,108
174730,note_on,,,,,144,0,6,,,,,5,,,,72,108
174768,note_on,,,,,48,0,5,,,,,4,,,,72,0
174772,note_on,,,,,48,0,1,,,,,0,,,,84,0
174778,note_on,,,,,48,0,6,,,,,5,,,,72,0
174816,note_on,,,,,94,0,7,,,,,6,,,,64,0
174818,note_on,,,,,2,0,7,,,,,6,,,,60,108
174820,note_on,,,,,94,0,9,,,,,8,,,,40,0
174822,note_on,,,,,94,0,8,,,,,7,,,,52,0
174822,note_on,,,,,2,0,9,,,,,8,,,,36,108
174824,note_on,,,,,2,0,8,,,,,7,,,,48,108
174835,set_tempo,,,,,173,1,0,,273973,,,,,,,,
174912,note_on,,,,,144,0,5,,,,,4,,,,67,108
174912,note_on,,,,,94,0,7,,,,,6,,,,60,0
174914,note_on,,,,,2,0,7,,,,,6,,,,62,108
174916,note_on,,,,,144,0,1,,,,,0,,,,79,108
174916,note_on,,,,,94,0,9,,,,,8,,,,36,0
174918,note_on,,,,,2,0,9,,,,,8,,,,38,108
174918,note_on,,,,,94,0,8,,,,,7,,,,48,0
174920,note_on,,,,,2,0,8,,,,,7,,,,50,108
174922,note_on,,,,,144,0,6,,,,,5,,,,67,108
174960,note_on,,,,,48,0,5,,,,,4,,,,67,0
174964,note_on,,,,,48,0,1,,,,,0,,,,79,0
174970,note_on,,,,,48,0,6,,,,,5,,,,67,0
175008,note_on,,,,,94,0,7,,,,,6,,,,62,0
175008,set_tempo,,,,,173,1,0,,272727,,,,,,,,
175010,note_on,,,,,2,0,7,,,,,6,,,,64,108
175012,note_on,,,,,94,0,9,,,,,8,,,,38,0
175014,note_on,,,,,2,0,9,,,,,8,,,,40,108
175014,note_on,,,,,94,0,8,,,,,7,,,,50,0
175016,note_on,,,,,2,0,8,,,,,7,,,,52,108
175063,note_on,,,,,0,0,2,,,,,1,,,,67,0
175063,note_on,,,,,336,0,2,,,,,1,,,,70,0
175104,note_on,,,,,94,0,7,,,,,6,,,,64,0
175104,note_on,,,,,144,0,5,,,,,4,,,,68,108
175106,note_on,,,,,2,0,7,,,,,6,,,,65,108
175108,note_on,,,,,94,0,9,,,,,8,,,,40,0
175108,note_on,,,,,144,0,1,,,,,0,,,,80,108
175110,note_on,,,,,2,0,9,,,,,8,,,,41,108
175110,note_on,,,,,94,0,8,,,,,7,,,,52,0
175111,note_on,,,,,48,0,2,,,,,1,,,,65,108
175111,note_on,,,,,0,0,2,,,,,1,,,,68,108
175112,note_on,,,,,2,0,8,,,,,7,,,,53,108
175114,note_on,,,,,144,0,6,,,,,5,,,,68,108
175152,note_on,,,,,48,0,5,,,,,4,,,,68,0
175156,note_on,,,,,48,0,1,,,,,0,,,,80,0
175162,note_on,,,,,48,0,6,,,,,5,,,,68,0
175180,set_tempo,,,,,172,1,0,,271493,,,,,,,,
175200,note_on,,,,,94,0,7,,,,,6,,,,65,0
175202,note_on,,,,,2,0,7,,,,,6,,,,67,108
175204,note_on,,,,,94,0,9,,,,,8,,,,41,0
175206,note_on,,,,,94,0,8,,,,,7,,,,53,0
175206,note_on,,,,,2,0,9,,,,,8,,,,43,108
175208,note_on,,,,,2,0,8,,,,,7,,,,55,108
175296,note_on,,,,,94,0,7,,,,,6,,,,67,0
175296,note_on,,,,,144,0,5,,,,,4,,,,65,108
175298,note_on,,,,,2,0,7,,,,,6,,,,68,108
175300,note_on,,,,,144,0,1,,,,,0,,,,77,108
175300,note_on,,,,,94,0,9,,,,,8,,,,43,0
175302,note_on,,,,,94,0,8,,,,,7,,,,55,0
175302,note_on,,,,,2,0,9,,,,,8,,,,44,108
175304,note_on,,,,,2,0,8,,,,,7,,,,56,108
175306,note_on,,,,,144,0,6,,,,,5,,,,65,108
175344,note_on,,,,,48,0,5,,,,,4,,,,65,0
175348,note_on,,,,,48,0,1,,,,,0,,,,77,0
175353,set_tempo,,,,,173,1,0,,270270,,,,,,,,
175354,note_on,,,,,48,0,6,,,,,5,,,,65,0
175392,note_on,,,,,94,0,7,,,,,6,,,,68,0
175394,note_on,,,,,2,0,7,,,,,6,,,,65,108
175396,note_on,,,,,94,0,9,,,,,8,,,,44,0
175398,note_on,,,,,94,0,8,,,,,7,,,,56,0
175398,note_on,,,,,2,0,9,,,,,8,,,,41,108
175400,note_on,,,,,2,0,8,,,,,7,,,,53,108
175488,note_on,,,,,144,0,5,,,,,4,,,,58,108
175488,note_on,,,,,94,0,7,,,,,6,,,,65,0
175490,note_on,,,,,2,0,7,,,,,6,,,,62,108
175492,note_on,,,,,144,0,1,,,,,0,,,,70,108
175492,note_on,,,,,94,0,9,,,,,8,,,,41,0
175494,note_on,,,,,94,0,8,,,,,7,,,,53,0
175494,note_on,,,,,2,0,9,,,,,8,,,,38,108
175496,note_on,,,,,2,0,8,,,,,7,,,,50,108
175498,note_on,,,,,144,0,6,,,,,5,,,,58,108
175526,set_tempo,,,,,173,1,0,,269058,,,,,,,,
175536,note_on,,,,,48,0,5,,,,,4,,,,58,0
175540,note_on,,,,,48,0,1,,,,,0,,,,70,0
175546,note_on,,,,,48,0,6,,,,,5,,,,58,0
175584,note_on,,,,,94,0,7,,,,,6,,,,62,0
175586,note_on,,,,,2,0,7,,,,,6,,,,58,108
175588,note_on,,,,,94,0,9,,,,,8,,,,38,0
175590,note_on,,,,,2,0,9,,,,,8,,,,34,108
175590,note_on,,,,,94,0,8,,,,,7,,,,50,0
175592,note_on,,,,,2,0,8,,,,,7,,,,46,108
175680,note_on,,,,,144,0,5,,,,,4,,,,70,108
175680,note_on,,,,,94,0,7,,,,,6,,,,58,0
175682,note_on,,,,,2,0,7,,,,,6,,,,60,108
175684,note_on,,,,,94,0,9,,,,,8,,,,34,0
175684,note_on,,,,,144,0,1,,,,,0,,,,82,108
175686,note_on,,,,,94,0,8,,,,,7,,,,46,0
175686,note_on,,,,,2,0,9,,,,,8,,,,36,108
175688,note_on,,,,,2,0,8,,,,,7,,,,48,108
175690,note_on,,,,,144,0,6,,,,,5,,,,70,108
175699,set_tempo,,,,,173,1,0,,267857,,,,,,,,
175728,note_on,,,,,48,0,5,,,,,4,,,,70,0
175732,note_on,,,,,48,0,1,,,,,0,,,,82,0
175738,note_on,,,,,48,0,6,,,,,5,,,,70,0
175776,note_on,,,,,94,0,7,,,,,6,,,,60,0
175778,note_on,,,,,2,0,7,,,,,6,,,,62,108
175780,note_on,,,,,94,0,9,,,,,8,,,,36,0
175782,note_on,,,,,94,0,8,,,,,7,,,,48,0
175782,note_on,,,,,2,0,9,,,,,8,,,,38,108
175784,note_on,,,,,2,0,8,,,,,7,,,,50,108
175831,note_on,,,,,720,0,2,,,,,1,,,,68,0
175831,note_on,,,,,0,0,2,,,,,1,,,,65,0
175872,set_tempo,,,,,173,1,0,,266667,,,,,,,,
175872,note_on,,,,,144,0,5,,,,,4,,,,67,108
175872,note_on,,,,,94,0,7,,,,,6,,,,62,0
175874,note_on,,,,,2,0,7,,,,,6,,,,63,108
175876,note_on,,,,,144,0,1,,,,,0,,,,79,108
175876,note_on,,,,,94,0,9,,,,,8,,,,38,0
175878,note_on,,,,,94,0,8,,,,,7,,,,50,0
175878,note_on,,,,,2,0,9,,,,,8,,,,39,108
175879,note_on,,,,,48,0,2,,,,,1,,,,63,108
175879,note_on,,,,,0,0,2,,,,,1,,,,67,108
175880,note_on,,,,,2,0,8,,,,,7,,,,51,108
175882,note_on,,,,,144,0,6,,,,,5,,,,67,108
175920,note_on,,,,,48,0,5,,,,,4,,,,67,0
175930,note_on,,,,,48,0,6,,,,,5,,,,67,0
175968,note_on,,,,,94,0,7,,,,,6,,,,63,0
175970,note_on,,,,,2,0,7,,,,,6,,,,65,108
175972,note_on,,,,,94,0,9,,,,,8,,,,39,0
175974,note_on,,,,,94,0,8,,,,,7,,,,51,0
175974,note_on,,,,,2,0,9,,,,,8,,,,41,108
175976,note_on,,,,,2,0,8,,,,,7,,,,53,108
176036,note_on,,,,,160,0,1,,,,,0,,,,79,0
176064,note_on,,,,,144,0,5,,,,,4,,,,63,108
176064,note_on,,,,,94,0,7,,,,,6,,,,65,0
176066,note_on,,,,,2,0,7,,,,,6,,,,67,108
176068,note_on,,,,,32,0,1,,,,,0,,,,75,108
176068,note_on,,,,,94,0,9,,,,,8,,,,41,0
176070,note_on,,,,,2,0,9,,,,,8,,,,43,108
176070,note_on,,,,,94,0,8,,,,,7,,,,53,0
176072,note_on,,,,,2,0,8,,,,,7,,,,55,108
176074,note_on,,,,,144,0,6,,,,,5,,,,63,108
176112,note_on,,,,,48,0,5,,,,,4,,,,63,0
176122,note_on,,,,,48,0,6,,,,,5,,,,63,0
176160,note_on,,,,,94,0,7,,,,,6,,,,67,0
176162,note_on,,,,,2,0,7,,,,,6,,,,63,108
176164,note_on,,,,,94,0,9,,,,,8,,,,43,0
176166,note_on,,,,,2,0,9,,,,,8,,,,39,108
176166,note_on,,,,,94,0,8,,,,,7,,,,55,0
176168,note_on,,,,,2,0,8,,,,,7,,,,51,108
176215,note_on,,,,,336,0,2,,,,,1,,,,67,0
176215,note_on,,,,,0,0,2,,,,,1,,,,63,0
176228,note_on,,,,,160,0,1,,,,,0,,,,75,0
176256,note_on,,,,,94,0,7,,,,,6,,,,63,0
176256,note_on,,,,,144,0,5,,,,,4,,,,56,108
176258,note_on,,,,,2,0,7,,,,,6,,,,60,108
176260,note_on,,,,,94,0,9,,,,,8,,,,39,0
176260,note_on,,,,,32,0,1,,,,,0,,,,68,108
176262,note_on,,,,,94,0,8,,,,,7,,,,51,0
176262,note_on,,,,,2,0,9,,,,,8,,,,36,108
176263,note_on,,,,,48,0,2,,,,,1,,,,65,108
176263,note_on,,,,,0,0,2,,,,,1,,,,68,108
176264,note_on,,,,,2,0,8,,,,,7,,,,48,108
176266,note_on,,,,,144,0,6,,,,,5,,,,56,108
176304,note_on,,,,,48,0,5,,,,,4,,,,56,0
176314,note_on,,,,,48,0,6,,,,,5,,,,56,0
176352,note_on,,,,,94,0,7,,,,,6,,,,60,0
176354,note_on,,,,,2,0,7,,,,,6,,,,53,108
176356,note_on,,,,,94,0,9,,,,,8,,,,36,0
176358,note_on,,,,,94,0,8,,,,,7,,,,48,0
176358,note_on,,,,,2,0,9,,,,,8,,,,29,108
176360,note_on,,,,,2,0,8,,,,,7,,,,41,108
176420,note_on,,,,,160,0,1,,,,,0,,,,68,0
176448,note_on,,,,,144,0,5,,,,,4,,,,72,108
176448,note_on,,,,,94,0,7,,,,,6,,,,53,0
176450,note_on,,,,,2,0,7,,,,,6,,,,55,108
176452,note_on,,,,,32,0,1,,,,,0,,,,84,108
176452,note_on,,,,,94,0,9,,,,,8,,,,29,0
176454,note_on,,,,,94,0,8,,,,,7,,,,41,0
176454,note_on,,,,,2,0,9,,,,,8,,,,31,108
176456,note_on,,,,,2,0,8,,,,,7,,,,43,108
176458,note_on,,,,,144,0,6,,,,,5,,,,72,108
176496,note_on,,,,,48,0,5,,,,,4,,,,72,0
176506,note_on,,,,,48,0,6,,,,,5,,,,72,0
176544,note_on,,,,,94,0,7,,,,,6,,,,55,0
176546,note_on,,,,,2,0,7,,,,,6,,,,56,108
176548,note_on,,,,,94,0,9,,,,,8,,,,31,0
176550,note_on,,,,,94,0,8,,,,,7,,,,43,0
176550,note_on,,,,,2,0,9,,,,,8,,,,32,108
176552,note_on,,,,,2,0,8,,,,,7,,,,44,108
176599,note_on,,,,,336,0,2,,,,,1,,,,68,0
176599,note_on,,,,,0,0,2,,,,,1,,,,65,0
176612,note_on,,,,,160,0,1,,,,,0,,,,84,0
176640,note_on,,,,,94,0,7,,,,,6,,,,56,0
176640,set_tempo,,,,,768,1,0,,292683,,,,,,,,
176640,note_on,,,,,144,0,5,,,,,4,,,,63,108
176642,note_on,,,,,2,0,7,,,,,6,,,,58,108
176644,note_on,,,,,32,0,1,,,,,0,,,,75,108
176644,note_on,,,,,94,0,9,,,,,8,,,,32,0
176646,note_on,,,,,94,0,8,,,,,7,,,,44,0
176646,note_on,,,,,2,0,9,,,,,8,,,,34,108
176647,note_on,,,,,48,0,2,,,,,1,,,,58,108
176647,note_on,,,,,0,0,2,,,,,1,,,,65,108
176648,note_on,,,,,2,0,8,,,,,7,,,,46,108
176650,note_on,,,,,144,0,6,,,,,5,,,,63,108
176736,note_on,,,,,94,0,7,,,,,6,,,,58,0
176738,note_on,,,,,2,0,7,,,,,6,,,,53,108
176740,note_on,,,,,94,0,9,,,,,8,,,,34,0
176742,note_on,,,,,2,0,9,,,,,8,,,,41,108
176742,note_on,,,,,94,0,8,,,,,7,,,,46,0
176744,note_on,,,,,2,0,8,,,,,7,,,,53,108
176832,note_on,,,,,94,0,7,,,,,6,,,,53,0
176832,note_on,,,,,0,0,5,,,,,4,,,,62,108
176832,note_on,,,,,192,0,5,,,,,4,,,,63,0
176834,note_on,,,,,2,0,7,,,,,6,,,,55,108
176836,note_on,,,,,192,0,1,,,,,0,,,,75,0
176836,note_on,,,,,0,0,1,,,,,0,,,,74,108
176836,note_on,,,,,94,0,9,,,,,8,,,,41,0
176838,note_on,,,,,2,0,9,,,,,8,,,,43,108
176838,note_on,,,,,94,0,8,,,,,7,,,,53,0
176840,note_on,,,,,2,0,8,,,,,7,,,,55,108
176842,note_on,,,,,192,0,6,,,,,5,,,,63,0
176842,note_on,,,,,0,0,6,,,,,5,,,,62,108
176928,note_on,,,,,94,0,7,,,,,6,,,,55,0
176930,note_on,,,,,2,0,7,,,,,6,,,,57,108
176932,note_on,,,,,94,0,9,,,,,8,,,,43,0
176934,note_on,,,,,94,0,8,,,,,7,,,,55,0
176934,note_on,,,,,2,0,9,,,,,8,,,,45,108
176936,note_on,,,,,2,0,8,,,,,7,,,,57,108
176983,note_on,,,,,0,0,2,,,,,1,,,,58,0
176983,note_on,,,,,336,0,2,,,,,1,,,,65,0
176992,note_on,,,,,160,0,5,,,,,4,,,,62,0
176996,note_on,,,,,160,0,1,,,,,0,,,,74,0
177002,note_on,,,,,160,0,6,,,,,5,,,,62,0
177024,set_tempo,,,,,384,1,0,,279070,,,,,,,,
177024,note_on,,,,,94,0,7,,,,,6,,,,57,0
177026,note_on,,,,,2,0,7,,,,,6,,,,58,108
177028,note_on,,,,,94,0,9,,,,,8,,,,45,0
177030,note_on,,,,,94,0,8,,,,,7,,,,57,0
177030,note_on,,,,,2,0,9,,,,,8,,,,46,108
177032,note_on,,,,,2,0,8,,,,,7,,,,58,108
177124,note_on,,,,,94,0,9,,,,,8,,,,46,0
177126,note_on,,,,,94,0,8,,,,,7,,,,58,0
177126,note_on,,,,,2,0,9,,,,,8,,,,44,108
177128,note_on,,,,,2,0,8,,,,,7,,,,56,108
177139,set_tempo,,,,,115,1,0,,277778,,,,,,,,
177186,note_on,,,,,160,0,7,,,,,6,,,,58,0
177216,note_on,,,,,224,0,5,,,,,4,,,,75,108
177218,note_on,,,,,32,0,7,,,,,6,,,,58,108
177220,note_on,,,,,94,0,9,,,,,8,,,,44,0
177220,note_on,,,,,224,0,1,,,,,0,,,,70,108
177220,note_on,,,,,0,0,1,,,,,0,,,,75,108
177222,note_on,,,,,94,0,8,,,,,7,,,,56,0
177222,note_on,,,,,2,0,9,,,,,8,,,,43,108
177224,note_on,,,,,2,0,8,,,,,7,,,,55,108
177226,note_on,,,,,224,0,6,,,,,5,,,,63,108
177254,set_tempo,,,,,115,1,0,,276498,,,,,,,,
177264,note_on,,,,,48,0,5,,,,,4,,,,75,0
177274,note_on,,,,,48,0,6,,,,,5,,,,63,0
177312,note_on,,,,,94,0,7,,,,,6,,,,58,0
177314,note_on,,,,,2,0,7,,,,,6,,,,55,108
177316,note_on,,,,,94,0,9,,,,,8,,,,43,0
177318,note_on,,,,,94,0,8,,,,,7,,,,55,0
177318,note_on,,,,,2,0,9,,,,,8,,,,39,108
177320,note_on,,,,,2,0,8,,,,,7,,,,51,108
177369,set_tempo,,,,,115,1,0,,275229,,,,,,,,
177380,note_on,,,,,160,0,1,,,,,0,,,,70,0
177408,note_on,,,,,94,0,7,,,,,6,,,,55,0
177408,note_on,,,,,144,0,5,,,,,4,,,,72,108
177410,note_on,,,,,2,0,7,,,,,6,,,,60,108
177412,note_on,,,,,32,0,1,,,,,0,,,,72,108
177412,note_on,,,,,94,0,9,,,,,8,,,,39,0
177414,note_on,,,,,2,0,9,,,,,8,,,,44,108
177414,note_on,,,,,94,0,8,,,,,7,,,,51,0
177416,note_on,,,,,2,0,8,,,,,7,,,,56,108
177418,note_on,,,,,144,0,6,,,,,5,,,,60,108
177456,note_on,,,,,48,0,5,,,,,4,,,,72,0
177466,note_on,,,,,48,0,6,,,,,5,,,,60,0
177484,set_tempo,,,,,115,1,0,,273973,,,,,,,,
177504,note_on,,,,,94,0,7,,,,,6,,,,60,0
177506,note_on,,,,,2,0,7,,,,,6,,,,56,108
177508,note_on,,,,,94,0,9,,,,,8,,,,44,0
177510,note_on,,,,,2,0,9,,,,,8,,,,41,108
177510,note_on,,,,,94,0,8,,,,,7,,,,56,0
177512,note_on,,,,,2,0,8,,,,,7,,,,53,108
177572,note_on,,,,,160,0,1,,,,,0,,,,72,0
177572,note_on,,,,,0,0,1,,,,,0,,,,75,0
177599,set_tempo,,,,,115,1,0,,272727,,,,,,,,
177600,note_on,,,,,94,0,7,,,,,6,,,,56,0
177600,note_on,,,,,144,0,5,,,,,4,,,,77,108
177602,note_on,,,,,2,0,7,,,,,6,,,,58,108
177604,note_on,,,,,32,0,1,,,,,0,,,,77,108
177604,note_on,,,,,94,0,9,,,,,8,,,,41,0
177606,note_on,,,,,94,0,8,,,,,7,,,,53,0
177606,note_on,,,,,2,0,9,,,,,8,,,,43,108
177608,note_on,,,,,2,0,8,,,,,7,,,,55,108
177610,note_on,,,,,144,0,6,,,,,5,,,,65,108
177648,note_on,,,,,48,0,5,,,,,4,,,,77,0
177658,note_on,,,,,48,0,6,,,,,5,,,,65,0
177696,note_on,,,,,94,0,7,,,,,6,,,,58,0
177698,note_on,,,,,2,0,7,,,,,6,,,,60,108
177700,note_on,,,,,94,0,9,,,,,8,,,,43,0
177702,note_on,,,,,2,0,9,,,,,8,,,,44,108
177702,note_on,,,,,94,0,8,,,,,7,,,,55,0
177704,note_on,,,,,2,0,8,,,,,7,,,,56,108
177715,set_tempo,,,,,116,1,0,,271493,,,,,,,,
177792,note_on,,,,,94,0,7,,,,,6,,,,60,0
177792,note_on,,,,,144,0,5,,,,,4,,,,74,108
177794,note_on,,,,,2,0,7,,,,,6,,,,62,108
177796,note_on,,,,,192,0,1,,,,,0,,,,74,108
177796,note_on,,,,,94,0,9,,,,,8,,,,44,0
177798,note_on,,,,,94,0,8,,,,,7,,,,56,0
177798,note_on,,,,,2,0,9,,,,,8,,,,46,108
177800,note_on,,,,,2,0,8,,,,,7,,,,58,108
177802,note_on,,,,,144,0,6,,,,,5,,,,62,108
177830,set_tempo,,,,,115,1,0,,270270,,,,,,,,
177840,note_on,,,,,48,0,5,,,,,4,,,,74,0
177850,note_on,,,,,48,0,6,,,,,5,,,,62,0
177888,note_on,,,,,94,0,7,,,,,6,,,,62,0
177890,note_on,,,,,2,0,7,,,,,6,,,,58,108
177892,note_on,,,,,94,0,9,,,,,8,,,,46,0
177894,note_on,,,,,2,0,9,,,,,8,,,,43,108
177894,note_on,,,,,94,0,8,,,,,7,,,,58,0
177896,note_on,,,,,2,0,8,,,,,7,,,,55,108
177945,set_tempo,,,,,115,1,0,,269058,,,,,,,,
177956,note_on,,,,,160,0,1,,,,,0,,,,77,0
177984,note_on,,,,,144,0,5,,,,,4,,,,79,108
177984,note_on,,,,,94,0,7,,,,,6,,,,58,0
177986,note_on,,,,,2,0,7,,,,,6,,,,60,108
177988,note_on,,,,,32,0,1,,,,,0,,,,79,108
177988,note_on,,,,,94,0,9,,,,,8,,,,43,0
177990,note_on,,,,,2,0,9,,,,,8,,,,44,108
177990,note_on,,,,,94,0,8,,,,,7,,,,55,0
177992,note_on,,,,,2,0,8,,,,,7,,,,56,108
177994,note_on,,,,,144,0,6,,,,,5,,,,67,108
178032,note_on,,,,,48,0,5,,,,,4,,,,79,0
178042,note_on,,,,,48,0,6,,,,,5,,,,67,0
178060,set_tempo,,,,,115,1,0,,267857,,,,,,,,
178080,note_on,,,,,94,0,7,,,,,6,,,,60,0
178082,note_on,,,,,2,0,7,,,,,6,,,,62,108
178084,note_on,,,,,94,0,9,,,,,8,,,,44,0
178086,note_on,,,,,2,0,9,,,,,8,,,,46,108
178086,note_on,,,,,94,0,8,,,,,7,,,,56,0
178088,note_on,,,,,2,0,8,,,,,7,,,,58,108
178148,note_on,,,,,160,0,1,,,,,0,,,,74,0
178176,set_tempo,,,,,116,1,0,,266667,,,,,,,,
178176,note_on,,,,,144,0,5,,,,,4,,,,75,108
178176,note_on,,,,,94,0,7,,,,,6,,,,62,0
178178,note_on,,,,,2,0,7,,,,,6,,,,63,108
178180,note_on,,,,,94,0,9,,,,,8,,,,46,0
178180,note_on,,,,,32,0,1,,,,,0,,,,75,108
178182,note_on,,,,,94,0,8,,,,,7,,,,58,0
178182,note_on,,,,,2,0,9,,,,,8,,,,48,108
178184,note_on,,,,,2,0,8,,,,,7,,,,60,108
178186,note_on,,,,,144,0,6,,,,,5,,,,63,108
178224,note_on,,,,,48,0,5,,,,,4,,,,75,0
178234,note_on,,,,,48,0,6,,,,,5,,,,63,0
178272,note_on,,,,,94,0,7,,,,,6,,,,63,0
178274,note_on,,,,,2,0,7,,,,,6,,,,60,108
178276,note_on,,,,,94,0,9,,,,,8,,,,48,0
178278,note_on,,,,,94,0,8,,,,,7,,,,60,0
178278,note_on,,,,,2,0,9,,,,,8,,,,44,108
178280,note_on,,,,,2,0,8,,,,,7,,,,56,108
178340,note_on,,,,,160,0,1,,,,,0,,,,79,0
178368,note_on,,,,,144,0,5,,,,,4,,,,80,108
178368,note_on,,,,,94,0,7,,,,,6,,,,60,0
178370,note_on,,,,,2,0,7,,,,,6,,,,62,108
178372,note_on,,,,,94,0,9,,,,,8,,,,44,0
178372,note_on,,,,,32,0,1,,,,,0,,,,80,108
178374,note_on,,,,,2,0,9,,,,,8,,,,46,108
178374,note_on,,,,,94,0,8,,,,,7,,,,56,0
178376,note_on,,,,,2,0,8,,,,,7,,,,58,108
178378,note_on,,,,,144,0,6,,,,,5,,,,68,108
178416,note_on,,,,,48,0,5,,,,,4,,,,80,0
178426,note_on,,,,,48,0,6,,,,,5,,,,68,0
178464,note_on,,,,,94,0,7,,,,,6,,,,62,0
178466,note_on,,,,,2,0,7,,,,,6,,,,63,108
178468,note_on,,,,,94,0,9,,,,,8,,,,46,0
178470,note_on,,,,,94,0,8,,,,,7,,,,58,0
178470,note_on,,,,,2,0,9,,,,,8,,,,48,108
178472,note_on,,,,,2,0,8,,,,,7,,,,60,108
178532,note_on,,,,,160,0,1,,,,,0,,,,75,0
178560,note_on,,,,,144,0,5,,,,,4,,,,77,108
178560,note_on,,,,,94,0,7,,,,,6,,,,63,0
178562,note_on,,,,,2,0,7,,,,,6,,,,65,108
178564,note_on,,,,,32,0,1,,,,,0,,,,77,108
178564,note_on,,,,,94,0,9,,,,,8,,,,48,0
178566,note_on,,,,,94,0,8,,,,,7,,,,60,0
178566,note_on,,,,,2,0,9,,,,,8,,,,50,108
178567,note_on,,,,,1584,0,2,,,,,1,,,,58,108
178567,note_on,,,,,0,0,2,,,,,1,,,,65,108
178568,note_on,,,,,2,0,8,,,,,7,,,,62,108
178570,note_on,,,,,144,0,6,,,,,5,,,,65,108
178608,note_on,,,,,48,0,5,,,,,4,,,,77,0
178618,note_on,,,,,48,0,6,,,,,5,,,,65,0
178656,note_on,,,,,94,0,7,,,,,6,,,,65,0
178658,note_on,,,,,2,0,7,,,,,6,,,,62,108
178660,note_on,,,,,94,0,9,,,,,8,,,,50,0
178662,note_on,,,,,2,0,9,,,,,8,,,,46,108
178662,note_on,,,,,94,0,8,,,,,7,,,,62,0
178664,note_on,,,,,2,0,8,,,,,7,,,,58,108
178724,note_on,,,,,160,0,1,,,,,0,,,,80,0
178752,note_on,,,,,94,0,7,,,,,6,,,,62,0
178752,note_on,,,,,144,0,5,,,,,4,,,,82,108
178754,note_on,,,,,2,0,7,,,,,6,,,,63,108
178756,note_on,,,,,32,0,1,,,,,0,,,,82,108
178756,note_on,,,,,94,0,9,,,,,8,,,,46,0
178758,note_on,,,,,94,0,8,,,,,7,,,,58,0
178758,note_on,,,,,2,0,9,,,,,8,,,,48,108
178760,note_on,,,,,2,0,8,,,,,7,,,,60,108
178762,note_on,,,,,144,0,6,,,,,5,,,,70,108
178800,note_on,,,,,48,0,5,,,,,4,,,,82,0
178810,note_on,,,,,48,0,6,,,,,5,,,,70,0
178848,note_on,,,,,94,0,7,,,,,6,,,,63,0
178850,note_on,,,,,2,0,7,,,,,6,,,,65,108
178852,note_on,,,,,94,0,9,,,,,8,,,,48,0
178854,note_on,,,,,94,0,8,,,,,7,,,,60,0
178854,note_on,,,,,2,0,9,,,,,8,,,,50,108
178856,note_on,,,,,2,0,8,,,,,7,,,,62,108
178903,note_on,,,,,0,0,2,,,,,1,,,,58,0
178903,note_on,,,,,336,0,2,,,,,1,,,,65,0
178944,note_on,,,,,94,0,7,,,,,6,,,,65,0
178944,note_on,,,,,144,0,5,,,,,4,,,,79,108
178946,note_on,,,,,2,0,7,,,,,6,,,,70,108
178948,note_on,,,,,192,0,1,,,,,0,,,,77,0
178948,note_on,,,,,94,0,9,,,,,8,,,,50,0
178948,note_on,,,,,0,0,1,,,,,0,,,,79,108
178950,note_on,,,,,2,0,9,,,,,8,,,,51,108
178950,note_on,,,,,94,0,8,,,,,7,,,,62,0
178951,note_on,,,,,0,0,2,,,,,1,,,,67,108
178951,note_on,,,,,48,0,2,,,,,1,,,,58,108
178952,note_on,,,,,2,0,8,,,,,7,,,,63,108
178954,note_on,,,,,144,0,6,,,,,5,,,,67,108
178972,set_tempo,,,,,796,1,0,,267857,,,,,,,,
179001,set_tempo,,,,,29,1,0,,269058,,,,,,,,
179030,set_tempo,,,,,29,1,0,,270270,,,,,,,,
179038,note_on,,,,,94,0,5,,,,,4,,,,79,0
179040,note_on,,,,,2,0,5,,,,,4,,,,75,108
179040,note_on,,,,,94,0,7,,,,,6,,,,70,0
179042,note_on,,,,,2,0,7,,,,,6,,,,68,108
179044,note_on,,,,,0,0,1,,,,,0,,,,82,0
179044,note_on,,,,,0,0,1,,,,,0,,,,80,108
179044,note_on,,,,,0,0,1,,,,,0,,,,77,108
179044,note_on,,,,,94,0,9,,,,,8,,,,51,0
179044,note_on,,,,,96,0,1,,,,,0,,,,79,0
179045,note_on,,,,,94,0,2,,,,,1,,,,67,0
179046,note_on,,,,,94,0,8,,,,,7,,,,63,0
179046,note_on,,,,,2,0,9,,,,,8,,,,46,108
179047,note_on,,,,,2,0,2,,,,,1,,,,65,108
179048,note_on,,,,,94,0,6,,,,,5,,,,67,0
179048,note_on,,,,,2,0,8,,,,,7,,,,58,108
179050,note_on,,,,,2,0,6,,,,,5,,,,62,108
179059,set_tempo,,,,,29,1,0,,271493,,,,,,,,
179087,set_tempo,,,,,28,1,0,,272727,,,,,,,,
179111,note_on,,,,,64,0,2,,,,,1,,,,58,0
179116,set_tempo,,,,,29,1,0,,273973,,,,,,,,
179134,note_on,,,,,94,0,5,,,,,4,,,,75,0
179136,note_on,,,,,2,0,5,,,,,4,,,,77,108
179136,note_on,,,,,94,0,7,,,,,6,,,,68,0
179138,note_on,,,,,94,0,1,,,,,0,,,,80,0
179138,note_on,,,,,2,0,7,,,,,6,,,,67,108
179138,note_on,,,,,0,0,1,,,,,0,,,,77,0
179140,note_on,,,,,0,0,1,,,,,0,,,,79,108
179140,note_on,,,,,94,0,9,,,,,8,,,,46,0
179140,note_on,,,,,2,0,1,,,,,0,,,,75,108
179141,note_on,,,,,30,0,2,,,,,1,,,,65,0
179142,note_on,,,,,2,0,9,,,,,8,,,,48,108
179142,note_on,,,,,94,0,8,,,,,7,,,,58,0
179143,note_on,,,,,2,0,2,,,,,1,,,,63,108
179144,note_on,,,,,2,0,8,,,,,7,,,,60,108
179144,note_on,,,,,94,0,6,,,,,5,,,,62,0
179145,set_tempo,,,,,29,1,0,,275229,,,,,,,,
179146,note_on,,,,,2,0,6,,,,,5,,,,63,108
179174,set_tempo,,,,,29,1,0,,276498,,,,,,,,
179203,set_tempo,,,,,29,1,0,,277778,,,,,,,,
179230,note_on,,,,,94,0,5,,,,,4,,,,77,0
179231,set_tempo,,,,,28,1,0,,279070,,,,,,,,
179232,note_on,,,,,2,0,5,,,,,4,,,,67,108
179232,note_on,,,,,94,0,7,,,,,6,,,,67,0
179234,note_on,,,,,2,0,7,,,,,6,,,,63,108
179236,note_on,,,,,94,0,9,,,,,8,,,,48,0
179238,note_on,,,,,94,0,8,,,,,7,,,,60,0
179238,note_on,,,,,2,0,9,,,,,8,,,,43,108
179239,note_on,,,,,96,0,2,,,,,1,,,,67,108
179240,note_on,,,,,2,0,8,,,,,7,,,,55,108
179240,note_on,,,,,94,0,6,,,,,5,,,,63,0
179242,note_on,,,,,2,0,6,,,,,5,,,,67,108
179260,set_tempo,,,,,29,1,0,,280374,,,,,,,,
179289,set_tempo,,,,,29,1,0,,281690,,,,,,,,
179300,note_on,,,,,160,0,1,,,,,0,,,,79,0
179300,note_on,,,,,0,0,1,,,,,0,,,,75,0
179318,set_tempo,,,,,29,1,0,,283019,,,,,,,,
179326,note_on,,,,,94,0,5,,,,,4,,,,67,0
179328,note_on,,,,,94,0,7,,,,,6,,,,63,0
179328,note_on,,,,,2,0,5,,,,,4,,,,65,108
179330,note_on,,,,,2,0,7,,,,,6,,,,60,108
179332,note_on,,,,,32,0,1,,,,,0,,,,75,108
179332,note_on,,,,,94,0,9,,,,,8,,,,43,0
179332,note_on,,,,,0,0,1,,,,,0,,,,77,108
179333,note_on,,,,,94,0,2,,,,,1,,,,67,0
179334,note_on,,,,,2,0,9,,,,,8,,,,44,108
179334,note_on,,,,,94,0,8,,,,,7,,,,55,0
179335,note_on,,,,,2,0,2,,,,,1,,,,65,108
179336,note_on,,,,,94,0,6,,,,,5,,,,67,0
179336,note_on,,,,,2,0,8,,,,,7,,,,56,108
179338,note_on,,,,,2,0,6,,,,,5,,,,65,108
179347,set_tempo,,,,,29,1,0,,284360,,,,,,,,
179375,set_tempo,,,,,28,1,0,,285714,,,,,,,,
179404,set_tempo,,,,,29,1,0,,287081,,,,,,,,
179428,note_on,,,,,94,0,9,,,,,8,,,,44,0
179430,note_on,,,,,94,0,8,,,,,7,,,,56,0
179430,note_on,,,,,2,0,9,,,,,8,,,,39,108
179432,note_on,,,,,2,0,8,,,,,7,,,,51,108
179433,set_tempo,,,,,29,1,0,,288462,,,,,,,,
179462,set_tempo,,,,,29,1,0,,289855,,,,,,,,
179488,note_on,,,,,160,0,5,,,,,4,,,,65,0
179490,note_on,,,,,160,0,7,,,,,6,,,,60,0
179491,set_tempo,,,,,29,1,0,,291262,,,,,,,,
179492,note_on,,,,,160,0,1,,,,,0,,,,75,0
179495,note_on,,,,,160,0,2,,,,,1,,,,63,0
179498,note_on,,,,,160,0,6,,,,,5,,,,65,0
179520,set_tempo,,,,,29,1,0,,292683,,,,,,,,
179520,note_on,,,,,32,0,5,,,,,4,,,,74,108
179522,note_on,,,,,32,0,7,,,,,6,,,,58,108
179524,note_on,,,,,94,0,9,,,,,8,,,,39,0
179524,note_on,,,,,32,0,1,,,,,0,,,,74,108
179526,note_on,,,,,94,0,8,,,,,7,,,,51,0
179526,note_on,,,,,2,0,9,,,,,8,,,,46,108
179527,note_on,,,,,32,0,2,,,,,1,,,,58,108
179528,note_on,,,,,2,0,8,,,,,7,,,,58,108
179530,note_on,,,,,32,0,6,,,,,5,,,,74,108
179620,note_on,,,,,94,0,9,,,,,8,,,,46,0
179622,note_on,,,,,94,0,8,,,,,7,,,,58,0
179622,note_on,,,,,2,0,9,,,,,8,,,,34,108
179624,note_on,,,,,2,0,8,,,,,7,,,,46,108
179680,note_on,,,,,160,0,5,,,,,4,,,,74,0
179682,note_on,,,,,160,0,7,,,,,6,,,,58,0
179684,note_on,,,,,160,0,1,,,,,0,,,,74,0
179684,note_on,,,,,0,0,1,,,,,0,,,,77,0
179687,note_on,,,,,160,0,2,,,,,1,,,,58,0
179687,note_on,,,,,0,0,2,,,,,1,,,,65,0
179690,note_on,,,,,160,0,6,,,,,5,,,,74,0
179712,note_on,,,,,32,0,5,,,,,4,,,,55,108
179712,note_on,,,,,0,0,5,,,,,4,,,,63,108
179714,note_on,,,,,32,0,7,,,,,6,,,,58,108
179716,note_on,,,,,94,0,9,,,,,8,,,,34,0
179716,note_on,,,,,32,0,1,,,,,0,,,,75,108
179718,note_on,,,,,2,0,9,,,,,8,,,,39,108
179718,note_on,,,,,94,0,8,,,,,7,,,,46,0
179719,note_on,,,,,0,0,2,,,,,1,,,,63,108
179719,note_on,,,,,32,0,2,,,,,1,,,,55,108
179720,note_on,,,,,2,0,8,,,,,7,,,,51,108
179722,note_on,,,,,0,0,6,,,,,5,,,,63,108
179722,note_on,,,,,32,0,6,,,,,5,,,,55,108
179872,note_on,,,,,0,0,5,,,,,4,,,,55,0
179872,note_on,,,,,160,0,5,,,,,4,,,,63,0
179874,note_on,,,,,160,0,7,,,,,6,,,,58,0
179876,note_on,,,,,160,0,1,,,,,0,,,,75,0
179878,note_on,,,,,160,0,9,,,,,8,,,,39,0
179879,note_on,,,,,0,0,2,,,,,1,,,,55,0
179879,note_on,,,,,160,0,2,,,,,1,,,,63,0
179880,note_on,,,,,160,0,8,,,,,7,,,,51,0
179882,note_on,,,,,0,0,6,,,,,5,,,,55,0
179882,note_on,,,,,160,0,6,,,,,5,,,,63,0
179904,note_on,,,,,32,0,5,,,,,4,,,,79,45
179904,set_tempo,,,,,384,1,0,,272727,,,,,,,,
179906,note_on,,,,,32,0,7,,,,,6,,,,70,45
179910,note_on,,,,,32,0,9,,,,,8,,,,51,45
179912,note_on,,,,,32,0,8,,,,,7,,,,63,45
179914,note_on,,,,,32,0,6,,,,,5,,,,75,45
179998,note_on,,,,,94,0,5,,,,,4,,,,79,0
180000,note_on,,,,,94,0,7,,,,,6,,,,70,0
180000,note_on,,,,,2,0,5,,,,,4,,,,79,45
180002,note_on,,,,,2,0,7,,,,,6,,,,70,45
180004,note_on,,,,,94,0,9,,,,,8,,,,51,0
180006,note_on,,,,,94,0,8,,,,,7,,,,63,0
180006,note_on,,,,,2,0,9,,,,,8,,,,51,45
180008,note_on,,,,,2,0,8,,,,,7,,,,63,45
180008,note_on,,,,,94,0,6,,,,,5,,,,75,0
180010,note_on,,,,,2,0,6,,,,,5,,,,75,45
180094,note_on,,,,,94,0,5,,,,,4,,,,79,0
180096,note_on,,,,,94,0,7,,,,,6,,,,70,0
180096,note_on,,,,,2,0,5,,,,,4,,,,79,45
180098,note_on,,,,,2,0,7,,,,,6,,,,70,45
180100,note_on,,,,,94,0,9,,,,,8,,,,51,0
180102,note_on,,,,,94,0,8,,,,,7,,,,63,0
180102,note_on,,,,,2,0,9,,,,,8,,,,51,45
180104,note_on,,,,,2,0,8,,,,,7,,,,63,45
180104,note_on,,,,,94,0,6,,,,,5,,,,75,0
180106,note_on,,,,,2,0,6,,,,,5,,,,75,45
180256,note_on,,,,,160,0,5,,,,,4,,,,79,0
180258,note_on,,,,,160,0,7,,,,,6,,,,70,0
180262,note_on,,,,,160,0,9,,,,,8,,,,51,0
180264,note_on,,,,,160,0,8,,,,,7,,,,63,0
180266,note_on,,,,,160,0,6,,,,,5,,,,75,0
180288,note_on,,,,,32,0,5,,,,,4,,,,80,45
180290,note_on,,,,,32,0,7,,,,,6,,,,70,45
180294,note_on,,,,,32,0,9,,,,,8,,,,46,45
180296,note_on,,,,,32,0,8,,,,,7,,,,58,45
180298,note_on,,,,,32,0,6,,,,,5,,,,77,45
180448,note_on,,,,,160,0,5,,,,,4,,,,80,0
180450,note_on,,,,,160,0,7,,,,,6,,,,70,0
180454,note_on,,,,,160,0,9,,,,,8,,,,46,0
180456,note_on,,,,,160,0,8,,,,,7,,,,58,0
180458,note_on,,,,,160,0,6,,,,,5,,,,77,0
180480,note_on,,,,,32,0,5,,,,,4,,,,82,45
180482,note_on,,,,,32,0,7,,,,,6,,,,70,45
180486,note_on,,,,,32,0,9,,,,,8,,,,39,45
180488,note_on,,,,,32,0,8,,,,,7,,,,51,45
180490,note_on,,,,,32,0,6,,,,,5,,,,79,45
180640,note_on,,,,,160,0,5,,,,,4,,,,82,0
180642,note_on,,,,,160,0,7,,,,,6,,,,70,0
180646,note_on,,,,,160,0,9,,,,,8,,,,39,0
180648,note_on,,,,,160,0,8,,,,,7,,,,51,0
180650,note_on,,,,,160,0,6,,,,,5,,,,79,0
180674,note_on,,,,,0,0,3,,,,,2,,,,75,108
180674,note_on,,,,,6722,0,3,,,,,2,,,,70,108
180674,note_on,,,,,0,0,3,,,,,2,,,,79,108
180674,note_on,,,,,0,0,3,,,,,2,,,,82,108
180870,note_on,,,,,0,0,4,,,,,3,,,,67,108
180870,note_on,,,,,6752,0,4,,,,,3,,,,63,108
181010,note_on,,,,,336,0,3,,,,,2,,,,82,0
181010,note_on,,,,,0,0,3,,,,,2,,,,79,0
181010,note_on,,,,,0,0,3,,,,,2,,,,70,0
181010,note_on,,,,,0,0,3,,,,,2,,,,75,0
181056,set_tempo,,,,,1152,1,0,,244898,,,,,,,,
181058,note_on,,,,,48,0,3,,,,,2,,,,80,108
181106,note_on,,,,,0,0,3,,,,,2,,,,79,108
181106,note_on,,,,,48,0,3,,,,,2,,,,80,0
181154,note_on,,,,,48,0,3,,,,,2,,,,79,0
181154,note_on,,,,,0,0,3,,,,,2,,,,77,108
181202,note_on,,,,,0,0,3,,,,,2,,,,75,108
181202,note_on,,,,,48,0,3,,,,,2,,,,77,0
181206,note_on,,,,,0,0,4,,,,,3,,,,63,0
181206,note_on,,,,,336,0,4,,,,,3,,,,67,0
181248,set_tempo,,,,,192,1,0,,272727,,,,,,,,
181250,note_on,,,,,48,0,3,,,,,2,,,,75,0
181250,note_on,,,,,0,0,3,,,,,2,,,,74,108
181254,note_on,,,,,48,0,4,,,,,3,,,,58,108
181254,note_on,,,,,0,0,4,,,,,3,,,,65,108
181254,note_on,,,,,0,0,4,,,,,3,,,,68,108
181410,note_on,,,,,160,0,3,,,,,2,,,,74,0
181414,note_on,,,,,0,0,4,,,,,3,,,,65,0
181414,note_on,,,,,0,0,4,,,,,3,,,,58,0
181414,note_on,,,,,160,0,4,,,,,3,,,,68,0
181440,note_on,,,,,800,0,5,,,,,4,,,,77,45
181442,note_on,,,,,800,0,7,,,,,6,,,,70,45
181446,note_on,,,,,800,0,9,,,,,8,,,,46,45
181448,note_on,,,,,800,0,8,,,,,7,,,,58,45
181450,note_on,,,,,800,0,6,,,,,5,,,,74,45
181534,note_on,,,,,94,0,5,,,,,4,,,,77,0
181536,note_on,,,,,94,0,7,,,,,6,,,,70,0
181536,note_on,,,,,2,0,5,,,,,4,,,,77,45
181538,note_on,,,,,2,0,7,,,,,6,,,,70,45
181540,note_on,,,,,94,0,9,,,,,8,,,,46,0
181542,note_on,,,,,94,0,8,,,,,7,,,,58,0
181542,note_on,,,,,2,0,9,,,,,8,,,,46,45
181544,note_on,,,,,94,0,6,,,,,5,,,,74,0
181544,note_on,,,,,2,0,8,,,,,7,,,,58,45
181546,note_on,,,,,2,0,6,,,,,5,,,,74,45
181630,note_on,,,,,94,0,5,,,,,4,,,,77,0
181632,note_on,,,,,2,0,5,,,,,4,,,,77,45
181632,note_on,,,,,94,0,7,,,,,6,,,,70,0
181634,note_on,,,,,2,0,7,,,,,6,,,,70,45
181636,note_on,,,,,94,0,9,,,,,8,,,,46,0
181638,note_on,,,,,2,0,9,,,,,8,,,,46,45
181638,note_on,,,,,94,0,8,,,,,7,,,,58,0
181640,note_on,,,,,2,0,8,,,,,7,,,,58,45
181640,note_on,,,,,94,0,6,,,,,5,,,,74,0
181642,note_on,,,,,2,0,6,,,,,5,,,,74,45
181792,note_on,,,,,160,0,5,,,,,4,,,,77,0
181794,note_on,,,,,160,0,7,,,,,6,,,,70,0
181798,note_on,,,,,160,0,9,,,,,8,,,,46,0
181800,note_on,,,,,160,0,8,,,,,7,,,,58,0
181802,note_on,,,,,160,0,6,,,,,5,,,,74,0
181824,note_on,,,,,32,0,5,,,,,4,,,,79,45
181826,note_on,,,,,32,0,7,,,,,6,,,,70,45
181830,note_on,,,,,32,0,9,,,,,8,,,,41,45
181832,note_on,,,,,32,0,8,,,,,7,,,,53,45
181834,note_on,,,,,32,0,6,,,,,5,,,,75,45
181984,note_on,,,,,160,0,5,,,,,4,,,,79,0
181986,note_on,,,,,160,0,7,,,,,6,,,,70,0
181990,note_on,,,,,160,0,9,,,,,8,,,,41,0
181992,note_on,,,,,160,0,8,,,,,7,,,,53,0
181994,note_on,,,,,160,0,6,,,,,5,,,,75,0
182016,note_on,,,,,32,0,5,,,,,4,,,,80,45
182018,note_on,,,,,32,0,7,,,,,6,,,,70,45
182022,note_on,,,,,32,0,9,,,,,8,,,,34,45
182024,note_on,,,,,32,0,8,,,,,7,,,,46,45
182026,note_on,,,,,32,0,6,,,,,5,,,,77,45
182176,note_on,,,,,160,0,5,,,,,4,,,,80,0
182178,note_on,,,,,160,0,7,,,,,6,,,,70,0
182182,note_on,,,,,160,0,9,,,,,8,,,,34,0
182184,note_on,,,,,160,0,8,,,,,7,,,,46,0
182186,note_on,,,,,160,0,6,,,,,5,,,,77,0
182210,note_on,,,,,800,0,3,,,,,2,,,,70,108
182210,note_on,,,,,0,0,3,,,,,2,,,,80,108
182210,note_on,,,,,0,0,3,,,,,2,,,,77,108
182210,note_on,,,,,0,0,3,,,,,2,,,,74,108
182406,note_on,,,,,992,0,4,,,,,3,,,,58,108
182406,note_on,,,,,0,0,4,,,,,3,,,,62,108
182546,note_on,,,,,0,0,3,,,,,2,,,,70,0
182546,note_on,,,,,336,0,3,,,,,2,,,,80,0
182546,note_on,,,,,0,0,3,,,,,2,,,,74,0
182546,note_on,,,,,0,0,3,,,,,2,,,,77,0
182592,set_tempo,,,,,1344,1,0,,244898,,,,,,,,
182594,note_on,,,,,48,0,3,,,,,2,,,,82,108
182642,note_on,,,,,48,0,3,,,,,2,,,,82,0
182642,note_on,,,,,0,0,3,,,,,2,,,,80,108
182690,note_on,,,,,48,0,3,,,,,2,,,,80,0
182690,note_on,,,,,0,0,3,,,,,2,,,,79,108
182738,note_on,,,,,48,0,3,,,,,2,,,,79,0
182738,note_on,,,,,0,0,3,,,,,2,,,,77,108
182742,note_on,,,,,336,0,4,,,,,3,,,,62,0
182742,note_on,,,,,0,0,4,,,,,3,,,,58,0
182784,set_tempo,,,,,192,1,0,,272727,,,,,,,,
182786,note_on,,,,,0,0,3,,,,,2,,,,79,108
182786,note_on,,,,,48,0,3,,,,,2,,,,77,0
182788,note_on,,,,,0,0,1,,,,,0,,,,82,45
182788,note_on,,,,,2912,0,1,,,,,0,,,,70,45
182790,note_on,,,,,48,0,4,,,,,3,,,,51,108
182790,note_on,,,,,0,0,4,,,,,3,,,,63,108
182791,note_on,,,,,2912,0,2,,,,,1,,,,46,45
182791,note_on,,,,,0,0,2,,,,,1,,,,58,45
182946,note_on,,,,,160,0,3,,,,,2,,,,79,0
182950,note_on,,,,,160,0,4,,,,,3,,,,63,0
182950,note_on,,,,,0,0,4,,,,,3,,,,51,0
182978,note_on,,,,,32,0,3,,,,,2,,,,63,108
182978,note_on,,,,,0,0,3,,,,,2,,,,67,108
182982,note_on,,,,,32,0,4,,,,,3,,,,55,92
182982,note_on,,,,,0,0,4,,,,,3,,,,58,92
183072,note_on,,,,,94,0,3,,,,,2,,,,67,0
183072,note_on,,,,,0,0,3,,,,,2,,,,63,0
183074,note_on,,,,,2,0,3,,,,,2,,,,63,108
183074,note_on,,,,,0,0,3,,,,,2,,,,67,108
183076,note_on,,,,,94,0,4,,,,,3,,,,58,0
183076,note_on,,,,,0,0,4,,,,,3,,,,55,0
183078,note_on,,,,,2,0,4,,,,,3,,,,55,92
183078,note_on,,,,,0,0,4,,,,,3,,,,58,92
183168,note_on,,,,,0,0,3,,,,,2,,,,63,0
183168,note_on,,,,,94,0,3,,,,,2,,,,67,0
183170,note_on,,,,,2,0,3,,,,,2,,,,63,108
183170,note_on,,,,,0,0,3,,,,,2,,,,67,108
183172,note_on,,,,,0,0,4,,,,,3,,,,55,0
183172,note_on,,,,,94,0,4,,,,,3,,,,58,0
183174,note_on,,,,,2,0,4,,,,,3,,,,55,92
183174,note_on,,,,,0,0,4,,,,,3,,,,58,92
183330,note_on,,,,,0,0,3,,,,,2,,,,63,0
183330,note_on,,,,,160,0,3,,,,,2,,,,67,0
183334,note_on,,,,,160,0,4,,,,,3,,,,58,0
183334,note_on,,,,,0,0,4,,,,,3,,,,55,0
183362,note_on,,,,,32,0,3,,,,,2,,,,65,108
183362,note_on,,,,,0,0,3,,,,,2,,,,68,108
183366,note_on,,,,,0,0,4,,,,,3,,,,58,92
183366,note_on,,,,,32,0,4,,,,,3,,,,53,92
183522,note_on,,,,,0,0,3,,,,,2,,,,65,0
183522,note_on,,,,,160,0,3,,,,,2,,,,68,0
183526,note_on,,,,,160,0,4,,,,,3,,,,58,0
183526,note_on,,,,,0,0,4,,,,,3,,,,53,0
183554,note_on,,,,,32,0,3,,,,,2,,,,66,108
183554,note_on,,,,,0,0,3,,,,,2,,,,69,108
183554,note_on,,,,,1376,0,7,,,,,6,,,,63,45
183558,note_on,,,,,32,0,4,,,,,3,,,,51,92
183558,note_on,,,,,0,0,4,,,,,3,,,,58,92
183744,note_on,,,,,1568,0,5,,,,,4,,,,70,45
183746,note_on,,,,,192,0,3,,,,,2,,,,69,0
183746,note_on,,,,,0,0,3,,,,,2,,,,66,0
183746,note_on,,,,,0,0,3,,,,,2,,,,67,92
183746,note_on,,,,,0,0,3,,,,,2,,,,70,92
183754,note_on,,,,,1568,0,6,,,,,5,,,,67,45
183894,note_on,,,,,0,0,4,,,,,3,,,,51,0
183894,note_on,,,,,336,0,4,,,,,3,,,,58,0
183906,note_on,,,,,0,0,3,,,,,2,,,,67,0
183906,note_on,,,,,160,0,3,,,,,2,,,,70,0
183938,note_on,,,,,0,0,7,,,,,6,,,,58,45
183938,note_on,,,,,384,0,7,,,,,6,,,,63,0
183942,note_on,,,,,1760,0,9,,,,,8,,,,39,45
183944,note_on,,,,,1760,0,8,,,,,7,,,,51,45
184128,note_on,,,,,0,0,5,,,,,4,,,,72,45
184128,note_on,,,,,384,0,5,,,,,4,,,,70,0
184138,note_on,,,,,0,0,6,,,,,5,,,,68,45
184138,note_on,,,,,384,0,6,,,,,5,,,,67,0
184224,note_on,,,,,96,0,5,,,,,4,,,,72,0
184224,note_on,,,,,0,0,5,,,,,4,,,,70,45
184234,note_on,,,,,0,0,6,,,,,5,,,,67,45
184234,note_on,,,,,96,0,6,,,,,5,,,,68,0
184274,note_on,,,,,336,0,7,,,,,6,,,,58,0
184318,note_on,,,,,94,0,5,,,,,4,,,,70,0
184320,note_on,,,,,2,0,5,,,,,4,,,,68,45
184322,note_on,,,,,48,0,7,,,,,6,,,,62,45
184326,note_on,,,,,0,0,9,,,,,8,,,,46,45
184326,note_on,,,,,384,0,9,,,,,8,,,,39,0
184328,note_on,,,,,384,0,8,,,,,7,,,,51,0
184328,note_on,,,,,94,0,6,,,,,5,,,,67,0
184328,note_on,,,,,0,0,8,,,,,7,,,,58,45
184330,note_on,,,,,2,0,6,,,,,5,,,,65,45
184480,note_on,,,,,160,0,5,,,,,4,,,,68,0
184482,note_on,,,,,160,0,7,,,,,6,,,,62,0
184486,note_on,,,,,160,0,9,,,,,8,,,,46,0
184488,note_on,,,,,160,0,8,,,,,7,,,,58,0
184490,note_on,,,,,160,0,6,,,,,5,,,,65,0
184514,note_on,,,,,0,0,3,,,,,2,,,,65,108
184514,note_on,,,,,608,0,3,,,,,2,,,,62,108
184518,note_on,,,,,0,0,4,,,,,3,,,,58,92
184518,note_on,,,,,624,0,4,,,,,3,,,,55,92
184608,note_on,,,,,0,0,3,,,,,2,,,,62,0
184608,note_on,,,,,94,0,3,,,,,2,,,,65,0
184610,note_on,,,,,0,0,3,,,,,2,,,,65,108
184610,note_on,,,,,2,0,3,,,,,2,,,,62,108
184612,note_on,,,,,94,0,4,,,,,3,,,,58,0
184612,note_on,,,,,0,0,4,,,,,3,,,,55,0
184614,note_on,,,,,2,0,4,,,,,3,,,,55,92
184614,note_on,,,,,0,0,4,,,,,3,,,,58,92
184704,note_on,,,,,0,0,3,,,,,2,,,,62,0
184704,note_on,,,,,94,0,3,,,,,2,,,,65,0
184706,note_on,,,,,2,0,3,,,,,2,,,,62,108
184706,note_on,,,,,0,0,3,,,,,2,,,,65,108
184708,note_on,,,,,0,0,4,,,,,3,,,,55,0
184708,note_on,,,,,94,0,4,,,,,3,,,,58,0
184710,note_on,,,,,2,0,4,,,,,3,,,,55,92
184710,note_on,,,,,0,0,4,,,,,3,,,,58,92
184866,note_on,,,,,160,0,3,,,,,2,,,,65,0
184866,note_on,,,,,0,0,3,,,,,2,,,,62,0
184870,note_on,,,,,0,0,4,,,,,3,,,,55,0
184870,note_on,,,,,160,0,4,,,,,3,,,,58,0
184898,note_on,,,,,32,0,3,,,,,2,,,,63,108
184898,note_on,,,,,0,0,3,,,,,2,,,,67,108
184902,note_on,,,,,0,0,4,,,,,3,,,,58,92
184902,note_on,,,,,32,0,4,,,,,3,,,,51,92
185058,note_on,,,,,160,0,3,,,,,2,,,,67,0
185058,note_on,,,,,0,0,3,,,,,2,,,,63,0
185062,note_on,,,,,0,0,4,,,,,3,,,,51,0
185062,note_on,,,,,160,0,4,,,,,3,,,,58,0
185090,note_on,,,,,608,0,7,,,,,6,,,,50,45
185090,note_on,,,,,0,0,3,,,,,2,,,,67,108
185090,note_on,,,,,32,0,3,,,,,2,,,,64,108
185094,note_on,,,,,0,0,4,,,,,3,,,,58,92
185094,note_on,,,,,32,0,4,,,,,3,,,,50,92
185280,note_on,,,,,800,0,5,,,,,4,,,,68,45
185282,note_on,,,,,192,0,3,,,,,2,,,,67,0
185282,note_on,,,,,0,0,3,,,,,2,,,,65,92
185282,note_on,,,,,0,0,3,,,,,2,,,,64,0
185282,note_on,,,,,0,0,3,,,,,2,,,,68,92
185290,note_on,,,,,800,0,6,,,,,5,,,,65,45
185430,note_on,,,,,0,0,4,,,,,3,,,,50,0
185430,note_on,,,,,336,0,4,,,,,3,,,,58,0
185442,note_on,,,,,160,0,3,,,,,2,,,,68,0
185442,note_on,,,,,0,0,3,,,,,2,,,,65,0
185474,note_on,,,,,0,0,7,,,,,6,,,,62,45
185474,note_on,,,,,384,0,7,,,,,6,,,,50,0
185478,note_on,,,,,992,0,9,,,,,8,,,,34,45
185480,note_on,,,,,992,0,8,,,,,7,,,,46,45
185664,note_on,,,,,0,0,5,,,,,4,,,,70,45
185664,note_on,,,,,384,0,5,,,,,4,,,,68,0
185674,note_on,,,,,384,0,6,,,,,5,,,,65,0
185674,note_on,,,,,0,0,6,,,,,5,,,,67,45
185760,note_on,,,,,0,0,5,,,,,4,,,,68,45
185760,note_on,,,,,96,0,5,,,,,4,,,,70,0
185770,note_on,,,,,96,0,6,,,,,5,,,,67,0
185770,note_on,,,,,0,0,6,,,,,5,,,,65,45
185810,note_on,,,,,336,0,7,,,,,6,,,,62,0
185854,note_on,,,,,94,0,5,,,,,4,,,,68,0
185856,note_on,,,,,2,0,5,,,,,4,,,,67,92
185856,set_tempo,,,,,3072,1,0,,266667,,,,,,,,
185858,note_on,,,,,416,0,3,,,,,2,,,,79,108
185858,note_on,,,,,48,0,7,,,,,6,,,,63,92
185862,note_on,,,,,384,0,9,,,,,8,,,,34,0
185862,note_on,,,,,0,0,9,,,,,8,,,,39,92
185862,note_on,,,,,432,0,4,,,,,3,,,,51,92
185862,note_on,,,,,0,0,4,,,,,3,,,,63,92
185864,note_on,,,,,384,0,8,,,,,7,,,,46,0
185864,note_on,,,,,0,0,8,,,,,7,,,,51,92
185864,note_on,,,,,94,0,6,,,,,5,,,,65,0
185866,note_on,,,,,2,0,6,,,,,5,,,,63,92
185904,note_on,,,,,48,0,5,,,,,4,,,,67,0
185906,note_on,,,,,48,0,7,,,,,6,,,,63,0
185914,note_on,,,,,48,0,6,,,,,5,,,,63,0
185954,note_on,,,,,96,0,3,,,,,2,,,,79,0
185954,note_on,,,,,0,0,3,,,,,2,,,,75,108
186020,note_on,,,,,3232,0,1,,,,,0,,,,82,0
186020,note_on,,,,,0,0,1,,,,,0,,,,70,0
186023,note_on,,,,,3232,0,2,,,,,1,,,,58,0
186023,note_on,,,,,0,0,2,,,,,1,,,,46,0
186048,note_on,,,,,144,0,5,,,,,4,,,,79,45
186050,note_on,,,,,96,0,3,,,,,2,,,,75,0
186050,note_on,,,,,0,0,3,,,,,2,,,,82,108
186050,note_on,,,,,144,0,7,,,,,6,,,,70,45
186058,note_on,,,,,144,0,6,,,,,5,,,,75,45
186096,note_on,,,,,48,0,5,,,,,4,,,,79,0
186098,note_on,,,,,48,0,7,,,,,6,,,,70,0
186106,note_on,,,,,48,0,6,,,,,5,,,,75,0
186146,note_on,,,,,96,0,3,,,,,2,,,,82,0
186146,note_on,,,,,0,0,3,,,,,2,,,,79,108
186198,note_on,,,,,0,0,4,,,,,3,,,,51,0
186198,note_on,,,,,336,0,9,,,,,8,,,,39,0
186198,note_on,,,,,336,0,4,,,,,3,,,,63,0
186200,note_on,,,,,336,0,8,,,,,7,,,,51,0
186240,note_on,,,,,144,0,5,,,,,4,,,,82,45
186242,note_on,,,,,0,0,3,,,,,2,,,,75,108
186242,note_on,,,,,96,0,3,,,,,2,,,,79,0
186242,note_on,,,,,144,0,7,,,,,6,,,,75,45
186250,note_on,,,,,144,0,6,,,,,5,,,,79,45
186288,note_on,,,,,48,0,5,,,,,4,,,,82,0
186290,note_on,,,,,48,0,7,,,,,6,,,,75,0
186298,note_on,,,,,48,0,6,,,,,5,,,,79,0
186338,note_on,,,,,0,0,3,,,,,2,,,,70,108
186338,note_on,,,,,96,0,3,,,,,2,,,,75,0
186434,note_on,,,,,0,0,3,,,,,2,,,,67,108
186434,note_on,,,,,96,0,3,,,,,2,,,,70,0
186438,note_on,,,,,240,0,4,,,,,3,,,,51,92
186438,note_on,,,,,0,0,4,,,,,3,,,,63,92
186530,note_on,,,,,96,0,3,,,,,2,,,,67,0
186530,note_on,,,,,0,0,3,,,,,2,,,,63,108
186532,note_on,,,,,0,0,4,,,,,3,,,,51,0
186532,note_on,,,,,94,0,4,,,,,3,,,,63,0
186534,note_on,,,,,2,0,4,,,,,3,,,,50,92
186534,note_on,,,,,0,0,4,,,,,3,,,,62,92
186624,note_on,,,,,94,0,3,,,,,2,,,,63,0
186624,note_on,,,,,336,0,5,,,,,4,,,,60,92
186626,note_on,,,,,336,0,7,,,,,6,,,,60,92
186626,note_on,,,,,2,0,3,,,,,2,,,,75,108
186628,note_on,,,,,0,0,4,,,,,3,,,,50,0
186628,note_on,,,,,94,0,4,,,,,3,,,,62,0
186630,note_on,,,,,2,0,4,,,,,3,,,,48,92
186630,note_on,,,,,432,0,9,,,,,8,,,,36,92
186630,note_on,,,,,0,0,4,,,,,3,,,,60,92
186632,note_on,,,,,432,0,8,,,,,7,,,,48,92
186634,note_on,,,,,336,0,6,,,,,5,,,,60,92
186672,note_on,,,,,48,0,5,,,,,4,,,,60,0
186674,note_on,,,,,48,0,7,,,,,6,,,,60,0
186682,note_on,,,,,48,0,6,,,,,5,,,,60,0
186722,note_on,,,,,0,0,3,,,,,2,,,,72,108
186722,note_on,,,,,96,0,3,,,,,2,,,,75,0
186816,note_on,,,,,144,0,5,,,,,4,,,,75,45
186818,note_on,,,,,0,0,3,,,,,2,,,,79,108
186818,note_on,,,,,96,0,3,,,,,2,,,,72,0
186818,note_on,,,,,144,0,7,,,,,6,,,,67,45
186826,note_on,,,,,144,0,6,,,,,5,,,,72,45
186864,note_on,,,,,48,0,5,,,,,4,,,,75,0
186866,note_on,,,,,48,0,7,,,,,6,,,,67,0
186874,note_on,,,,,48,0,6,,,,,5,,,,72,0
186914,note_on,,,,,0,0,3,,,,,2,,,,75,108
186914,note_on,,,,,96,0,3,,,,,2,,,,79,0
186966,note_on,,,,,0,0,4,,,,,3,,,,48,0
186966,note_on,,,,,336,0,4,,,,,3,,,,60,0
186966,note_on,,,,,336,0,9,,,,,8,,,,36,0
186968,note_on,,,,,336,0,8,,,,,7,,,,48,0
187008,note_on,,,,,144,0,5,,,,,4,,,,79,45
187010,note_on,,,,,0,0,3,,,,,2,,,,72,108
187010,note_on,,,,,96,0,3,,,,,2,,,,75,0
187010,note_on,,,,,144,0,7,,,,,6,,,,72,45
187018,note_on,,,,,144,0,6,,,,,5,,,,75,45
187056,note_on,,,,,48,0,5,,,,,4,,,,79,0
187058,note_on,,,,,48,0,7,,,,,6,,,,72,0
187066,note_on,,,,,48,0,6,,,,,5,,,,75,0
187106,note_on,,,,,96,0,3,,,,,2,,,,72,0
187106,note_on,,,,,0,0,3,,,,,2,,,,67,108
187202,note_on,,,,,96,0,3,,,,,2,,,,67,0
187202,note_on,,,,,0,0,3,,,,,2,,,,63,108
187206,note_on,,,,,240,0,4,,,,,3,,,,48,92
187206,note_on,,,,,0,0,4,,,,,3,,,,60,92
187298,note_on,,,,,0,0,3,,,,,2,,,,60,108
187298,note_on,,,,,96,0,3,,,,,2,,,,63,0
187300,note_on,,,,,0,0,4,,,,,3,,,,48,0
187300,note_on,,,,,94,0,4,,,,,3,,,,60,0
187302,note_on,,,,,0,0,4,,,,,3,,,,58,92
187302,note_on,,,,,2,0,4,,,,,3,,,,46,92
187392,note_on,,,,,336,0,5,,,,,4,,,,56,92
187392,note_on,,,,,94,0,3,,,,,2,,,,60,0
187394,note_on,,,,,336,0,7,,,,,6,,,,56,92
187394,note_on,,,,,2,0,3,,,,,2,,,,72,108
187396,note_on,,,,,94,0,4,,,,,3,,,,58,0
187396,note_on,,,,,0,0,4,,,,,3,,,,46,0
187398,note_on,,,,,2,0,4,,,,,3,,,,44,92
187398,note_on,,,,,432,0,9,,,,,8,,,,32,92
187398,note_on,,,,,0,0,4,,,,,3,,,,56,92
187400,note_on,,,,,432,0,8,,,,,7,,,,44,92
187402,note_on,,,,,336,0,6,,,,,5,,,,56,92
187440,note_on,,,,,48,0,5,,,,,4,,,,56,0
187442,note_on,,,,,48,0,7,,,,,6,,,,56,0
187450,note_on,,,,,48,0,6,,,,,5,,,,56,0
187490,note_on,,,,,96,0,3,,,,,2,,,,72,0
187490,note_on,,,,,0,0,3,,,,,2,,,,68,108
187584,note_on,,,,,144,0,5,,,,,4,,,,72,45
187586,note_on,,,,,0,0,3,,,,,2,,,,75,108
187586,note_on,,,,,96,0,3,,,,,2,,,,68,0
187586,note_on,,,,,144,0,7,,,,,6,,,,63,45
187594,note_on,,,,,144,0,6,,,,,5,,,,68,45
187632,note_on,,,,,48,0,5,,,,,4,,,,72,0
187634,note_on,,,,,48,0,7,,,,,6,,,,63,0
187642,note_on,,,,,48,0,6,,,,,5,,,,68,0
187682,note_on,,,,,0,0,3,,,,,2,,,,72,108
187682,note_on,,,,,96,0,3,,,,,2,,,,75,0
187734,note_on,,,,,336,0,9,,,,,8,,,,32,0
187734,note_on,,,,,0,0,4,,,,,3,,,,44,0
187734,note_on,,,,,336,0,4,,,,,3,,,,56,0
187736,note_on,,,,,336,0,8,,,,,7,,,,44,0
187776,note_on,,,,,144,0,5,,,,,4,,,,75,45
187778,note_on,,,,,144,0,7,,,,,6,,,,67,45
187778,note_on,,,,,0,0,3,,,,,2,,,,68,108
187778,note_on,,,,,96,0,3,,,,,2,,,,72,0
187786,note_on,,,,,144,0,6,,,,,5,,,,72,45
187824,note_on,,,,,48,0,5,,,,,4,,,,75,0
187826,note_on,,,,,48,0,7,,,,,6,,,,67,0
187834,note_on,,,,,48,0,6,,,,,5,,,,72,0
187874,note_on,,,,,96,0,3,,,,,2,,,,68,0
187874,note_on,,,,,0,0,3,,,,,2,,,,63,108
187970,note_on,,,,,96,0,3,,,,,2,,,,63,0
187970,note_on,,,,,0,0,3,,,,,2,,,,60,108
187974,note_on,,,,,240,0,4,,,,,3,,,,44,92
187974,note_on,,,,,0,0,4,,,,,3,,,,56,92
188066,note_on,,,,,0,0,3,,,,,2,,,,56,108
188066,note_on,,,,,96,0,3,,,,,2,,,,60,0
188068,note_on,,,,,94,0,4,,,,,3,,,,56,0
188068,note_on,,,,,0,0,4,,,,,3,,,,44,0
188070,note_on,,,,,2,0,4,,,,,3,,,,43,92
188070,note_on,,,,,0,0,4,,,,,3,,,,55,92
188160,note_on,,,,,94,0,3,,,,,2,,,,56,0
188160,note_on,,,,,336,0,5,,,,,4,,,,65,92
188162,note_on,,,,,2,0,3,,,,,2,,,,68,108
188162,note_on,,,,,336,0,7,,,,,6,,,,53,92
188164,note_on,,,,,0,0,4,,,,,3,,,,43,0
188164,note_on,,,,,94,0,4,,,,,3,,,,55,0
188166,note_on,,,,,2,0,4,,,,,3,,,,41,92
188166,note_on,,,,,0,0,4,,,,,3,,,,53,92
188166,note_on,,,,,432,0,9,,,,,8,,,,29,92
188168,note_on,,,,,432,0,8,,,,,7,,,,41,92
188170,note_on,,,,,336,0,6,,,,,5,,,,65,92
188208,note_on,,,,,48,0,5,,,,,4,,,,65,0
188210,note_on,,,,,48,0,7,,,,,6,,,,53,0
188218,note_on,,,,,48,0,6,,,,,5,,,,65,0
188258,note_on,,,,,0,0,3,,,,,2,,,,65,108
188258,note_on,,,,,96,0,3,,,,,2,,,,68,0
188352,note_on,,,,,144,0,5,,,,,4,,,,80,45
188354,note_on,,,,,144,0,7,,,,,6,,,,72,45
188354,note_on,,,,,0,0,3,,,,,2,,,,72,108
188354,note_on,,,,,96,0,3,,,,,2,,,,65,0
188362,note_on,,,,,144,0,6,,,,,5,,,,77,45
188400,note_on,,,,,48,0,5,,,,,4,,,,80,0
188402,note_on,,,,,48,0,7,,,,,6,,,,72,0
188410,note_on,,,,,48,0,6,,,,,5,,,,77,0
188450,note_on,,,,,96,0,3,,,,,2,,,,72,0
188450,note_on,,,,,0,0,3,,,,,2,,,,68,108
188502,note_on,,,,,336,0,4,,,,,3,,,,53,0
188502,note_on,,,,,0,0,4,,,,,3,,,,41,0
188502,note_on,,,,,336,0,9,,,,,8,,,,29,0
188504,note_on,,,,,336,0,8,,,,,7,,,,41,0
188544,note_on,,,,,144,0,5,,,,,4,,,,84,45
188546,note_on,,,,,96,0,3,,,,,2,,,,68,0
188546,note_on,,,,,0,0,3,,,,,2,,,,65,108
188546,note_on,,,,,144,0,7,,,,,6,,,,65,45
188554,note_on,,,,,144,0,6,,,,,5,,,,80,45
188592,note_on,,,,,48,0,5,,,,,4,,,,84,0
188594,note_on,,,,,48,0,7,,,,,6,,,,65,0
188602,note_on,,,,,48,0,6,,,,,5,,,,80,0
188642,note_on,,,,,0,0,3,,,,,2,,,,60,108
188642,note_on,,,,,96,0,3,,,,,2,,,,65,0
188738,note_on,,,,,0,0,3,,,,,2,,,,56,108
188738,note_on,,,,,96,0,3,,,,,2,,,,60,0
188742,note_on,,,,,240,0,4,,,,,3,,,,41,92
188742,note_on,,,,,0,0,4,,,,,3,,,,53,92
188834,note_on,,,,,96,0,3,,,,,2,,,,56,0
188834,note_on,,,,,0,0,3,,,,,2,,,,53,108
188836,note_on,,,,,0,0,4,,,,,3,,,,41,0
188836,note_on,,,,,94,0,4,,,,,3,,,,53,0
188838,note_on,,,,,2,0,4,,,,,3,,,,39,92
188838,note_on,,,,,0,0,4,,,,,3,,,,51,92
188928,note_on,,,,,94,0,3,,,,,2,,,,53,0
188928,set_tempo,,,,,3072,1,0,,285714,,,,,,,,
188930,note_on,,,,,336,0,7,,,,,6,,,,62,45
188932,note_on,,,,,94,0,4,,,,,3,,,,51,0
188932,note_on,,,,,0,0,4,,,,,3,,,,39,0
188934,note_on,,,,,0,0,4,,,,,3,,,,50,92
188934,note_on,,,,,2,0,4,,,,,3,,,,38,92
188934,note_on,,,,,432,0,9,,,,,8,,,,38,45
188936,note_on,,,,,432,0,8,,,,,7,,,,50,45
189094,note_on,,,,,160,0,4,,,,,3,,,,50,0
189094,note_on,,,,,0,0,4,,,,,3,,,,38,0
189120,note_on,,,,,528,0,5,,,,,4,,,,71,45
189130,note_on,,,,,528,0,6,,,,,5,,,,68,45
189314,note_on,,,,,0,0,7,,,,,6,,,,65,45
189314,note_on,,,,,384,0,7,,,,,6,,,,62,0
189318,note_on,,,,,0,0,9,,,,,8,,,,39,45
189318,note_on,,,,,384,0,9,,,,,8,,,,38,0
189320,note_on,,,,,0,0,8,,,,,7,,,,51,45
189320,note_on,,,,,384,0,8,,,,,7,,,,50,0
189504,note_on,,,,,384,0,5,,,,,4,,,,71,0
189504,note_on,,,,,0,0,5,,,,,4,,,,70,45
189514,note_on,,,,,0,0,6,,,,,5,,,,67,45
189514,note_on,,,,,384,0,6,,,,,5,,,,68,0
189650,note_on,,,,,336,0,7,,,,,6,,,,65,0
189654,note_on,,,,,336,0,9,,,,,8,,,,39,0
189656,note_on,,,,,336,0,8,,,,,7,,,,51,0
189664,note_on,,,,,160,0,5,,,,,4,,,,70,0
189674,note_on,,,,,160,0,6,,,,,5,,,,67,0
189702,note_on,,,,,608,0,4,,,,,3,,,,62,75
189890,note_on,,,,,962,0,3,,,,,2,,,,71,92
189890,note_on,,,,,0,0,3,,,,,2,,,,80,92
190086,note_on,,,,,0,0,4,,,,,3,,,,63,75
190086,note_on,,,,,384,0,4,,,,,3,,,,62,0
190274,note_on,,,,,0,0,3,,,,,2,,,,70,75
190274,note_on,,,,,0,0,3,,,,,2,,,,79,75
190274,note_on,,,,,0,0,3,,,,,2,,,,71,0
190274,note_on,,,,,384,0,3,,,,,2,,,,80,0
190422,note_on,,,,,336,0,4,,,,,3,,,,63,0
190434,note_on,,,,,0,0,3,,,,,2,,,,70,0
190434,note_on,,,,,160,0,3,,,,,2,,,,79,0
190464,set_tempo,,,,,1536,1,0,,279070,,,,,,,,
190470,note_on,,,,,0,0,4,,,,,3,,,,68,75
190470,note_on,,,,,48,0,4,,,,,3,,,,56,75
190658,note_on,,,,,0,0,3,,,,,2,,,,77,92
190658,note_on,,,,,224,0,3,,,,,2,,,,72,92
190806,note_on,,,,,0,0,4,,,,,3,,,,56,0
190806,note_on,,,,,336,0,4,,,,,3,,,,68,0
190850,note_on,,,,,0,0,3,,,,,2,,,,70,92
190850,note_on,,,,,192,0,3,,,,,2,,,,77,0
190850,note_on,,,,,0,0,3,,,,,2,,,,72,0
190850,note_on,,,,,0,0,3,,,,,2,,,,75,92
190854,note_on,,,,,48,0,4,,,,,3,,,,56,75
190854,note_on,,,,,0,0,4,,,,,3,,,,67,75
191014,note_on,,,,,160,0,4,,,,,3,,,,67,0
191014,note_on,,,,,0,0,4,,,,,3,,,,56,0
191042,note_on,,,,,0,0,3,,,,,2,,,,70,0
191042,note_on,,,,,0,0,3,,,,,2,,,,68,92
191042,note_on,,,,,0,0,3,,,,,2,,,,74,92
191042,note_on,,,,,192,0,3,,,,,2,,,,75,0
191046,note_on,,,,,0,0,4,,,,,3,,,,65,75
191046,note_on,,,,,32,0,4,,,,,3,,,,59,75
191202,note_on,,,,,160,0,3,,,,,2,,,,74,0
191202,note_on,,,,,0,0,3,,,,,2,,,,68,0
191206,note_on,,,,,160,0,4,,,,,3,,,,65,0
191206,note_on,,,,,0,0,4,,,,,3,,,,59,0
191234,note_on,,,,,32,0,3,,,,,2,,,,68,92
191234,note_on,,,,,0,0,3,,,,,2,,,,74,92
191238,note_on,,,,,0,0,4,,,,,3,,,,65,75
191238,note_on,,,,,32,0,4,,,,,3,,,,60,75
191618,note_on,,,,,0,0,3,,,,,2,,,,75,75
191618,note_on,,,,,0,0,3,,,,,2,,,,68,0
191618,note_on,,,,,384,0,3,,,,,2,,,,74,0
191618,note_on,,,,,0,0,3,,,,,2,,,,67,75
191622,note_on,,,,,0,0,4,,,,,3,,,,60,0
191622,note_on,,,,,0,0,4,,,,,3,,,,63,75
191622,note_on,,,,,384,0,4,,,,,3,,,,65,0
191778,note_on,,,,,160,0,3,,,,,2,,,,75,0
191778,note_on,,,,,0,0,3,,,,,2,,,,67,0
191782,note_on,,,,,160,0,4,,,,,3,,,,63,0
192000,set_tempo,,,,,1536,1,0,,285714,,,,,,,,
192002,note_on,,,,,2352,0,7,,,,,6,,,,62,45
192006,note_on,,,,,2352,0,9,,,,,8,,,,38,45
192008,note_on,,,,,2352,0,8,,,,,7,,,,50,45
192192,note_on,,,,,2528,0,5,,,,,4,,,,71,45
192202,note_on,,,,,2528,0,6,,,,,5,,,,68,45
192386,note_on,,,,,384,0,7,,,,,6,,,,62,0
192386,note_on,,,,,0,0,7,,,,,6,,,,63,45
192390,note_on,,,,,0,0,9,,,,,8,,,,39,45
192390,note_on,,,,,384,0,9,,,,,8,,,,38,0
192392,note_on,,,,,0,0,8,,,,,7,,,,51,45
192392,note_on,,,,,384,0,8,,,,,7,,,,50,0
192576,note_on,,,,,0,0,5,,,,,4,,,,70,45
192576,note_on,,,,,384,0,5,,,,,4,,,,71,0
192586,note_on,,,,,0,0,6,,,,,5,,,,67,45
192586,note_on,,,,,384,0,6,,,,,5,,,,68,0
192722,note_on,,,,,336,0,7,,,,,6,,,,63,0
192726,note_on,,,,,336,0,9,,,,,8,,,,39,0
192728,note_on,,,,,336,0,8,,,,,7,,,,51,0
192736,note_on,,,,,160,0,5,,,,,4,,,,70,0
192746,note_on,,,,,160,0,6,,,,,5,,,,67,0
192768,set_tempo,,,,,768,1,0,,292683,,,,,,,,
192774,note_on,,,,,992,0,4,,,,,3,,,,62,75
192962,note_on,,,,,1184,0,3,,,,,2,,,,71,92
192962,note_on,,,,,0,0,3,,,,,2,,,,80,92
193158,note_on,,,,,384,0,4,,,,,3,,,,62,0
193158,note_on,,,,,0,0,4,,,,,3,,,,63,75
193346,note_on,,,,,0,0,3,,,,,2,,,,71,0
193346,note_on,,,,,0,0,3,,,,,2,,,,70,75
193346,note_on,,,,,0,0,3,,,,,2,,,,79,75
193346,note_on,,,,,384,0,3,,,,,2,,,,80,0
193494,note_on,,,,,336,0,4,,,,,3,,,,63,0
193506,note_on,,,,,160,0,3,,,,,2,,,,79,0
193506,note_on,,,,,0,0,3,,,,,2,,,,70,0
193536,set_tempo,,,,,768,1,0,,285714,,,,,,,,
193538,note_on,,,,,816,0,7,,,,,6,,,,62,37
193542,note_on,,,,,816,0,9,,,,,8,,,,38,37
193544,note_on,,,,,816,0,8,,,,,7,,,,50,37
193728,note_on,,,,,992,0,5,,,,,4,,,,71,37
193738,note_on,,,,,992,0,6,,,,,5,,,,68,37
193922,note_on,,,,,0,0,7,,,,,6,,,,63,37
193922,note_on,,,,,384,0,7,,,,,6,,,,62,0
193926,note_on,,,,,0,0,9,,,,,8,,,,39,37
193926,note_on,,,,,384,0,9,,,,,8,,,,38,0
193928,note_on,,,,,0,0,8,,,,,7,,,,51,37
193928,note_on,,,,,384,0,8,,,,,7,,,,50,0
194112,note_on,,,,,0,0,5,,,,,4,,,,70,37
194112,note_on,,,,,384,0,5,,,,,4,,,,71,0
194122,note_on,,,,,0,0,6,,,,,5,,,,67,37
194122,note_on,,,,,384,0,6,,,,,5,,,,68,0
194258,note_on,,,,,336,0,7,,,,,6,,,,63,0
194262,note_on,,,,,336,0,9,,,,,8,,,,39,0
194264,note_on,,,,,336,0,8,,,,,7,,,,51,0
194272,note_on,,,,,160,0,5,,,,,4,,,,70,0
194282,note_on,,,,,160,0,6,,,,,5,,,,67,0
194310,note_on,,,,,816,0,4,,,,,3,,,,62,60
194498,note_on,,,,,0,0,3,,,,,2,,,,83,75
194498,note_on,,,,,992,0,3,,,,,2,,,,80,75
194540,set_tempo,,,,,1004,1,0,,287081,,,,,,,,
194694,note_on,,,,,0,0,4,,,,,3,,,,63,60
194694,note_on,,,,,384,0,4,,,,,3,,,,62,0
194776,set_tempo,,,,,236,1,0,,288462,,,,,,,,
194882,note_on,,,,,384,0,3,,,,,2,,,,83,0
194882,note_on,,,,,0,0,3,,,,,2,,,,80,0
194882,note_on,,,,,0,0,3,,,,,2,,,,79,60
194882,note_on,,,,,0,0,3,,,,,2,,,,82,60
195012,set_tempo,,,,,236,1,0,,289855,,,,,,,,
195030,note_on,,,,,336,0,4,,,,,3,,,,63,0
195042,note_on,,,,,160,0,3,,,,,2,,,,82,0
195042,note_on,,,,,0,0,3,,,,,2,,,,79,0
195072,note_on,,,,,800,0,5,,,,,4,,,,75,30
195074,note_on,,,,,32,0,3,,,,,2,,,,75,75
195074,note_on,,,,,0,0,3,,,,,2,,,,82,75
195074,note_on,,,,,816,0,7,,,,,6,,,,60,30
195078,note_on,,,,,816,0,9,,,,,8,,,,29,30
195080,note_on,,,,,816,0,8,,,,,7,,,,41,30
195082,note_on,,,,,800,0,6,,,,,5,,,,70,30
195249,set_tempo,,,,,237,1,0,,291262,,,,,,,,
195270,note_on,,,,,240,0,4,,,,,3,,,,66,60
195458,note_on,,,,,0,0,3,,,,,2,,,,75,0
195458,note_on,,,,,0,0,3,,,,,2,,,,81,60
195458,note_on,,,,,0,0,3,,,,,2,,,,75,60
195458,note_on,,,,,384,0,3,,,,,2,,,,82,0
195466,note_on,,,,,0,0,6,,,,,5,,,,69,30
195466,note_on,,,,,384,0,6,,,,,5,,,,70,0
195485,set_tempo,,,,,236,1,0,,292683,,,,,,,,
195654,note_on,,,,,0,0,4,,,,,3,,,,65,60
195654,note_on,,,,,384,0,4,,,,,3,,,,66,0
195721,set_tempo,,,,,236,1,0,,294118,,,,,,,,
195794,note_on,,,,,720,0,7,,,,,6,,,,60,0
195794,note_on,,,,,0,0,3,,,,,2,,,,75,0
195794,note_on,,,,,336,0,3,,,,,2,,,,81,0
195798,note_on,,,,,720,0,9,,,,,8,,,,29,0
195800,note_on,,,,,720,0,8,,,,,7,,,,41,0
195802,note_on,,,,,336,0,6,,,,,5,,,,69,0
195814,note_on,,,,,160,0,4,,,,,3,,,,65,0
195842,note_on,,,,,48,0,7,,,,,6,,,,53,30
195842,note_on,,,,,0,0,3,,,,,2,,,,80,75
195842,note_on,,,,,48,0,3,,,,,2,,,,75,75
195846,note_on,,,,,48,0,9,,,,,8,,,,34,30
195848,note_on,,,,,48,0,8,,,,,7,,,,46,30
195850,note_on,,,,,48,0,6,,,,,5,,,,68,30
195958,set_tempo,,,,,237,1,0,,295567,,,,,,,,
196038,note_on,,,,,224,0,4,,,,,3,,,,71,60
196194,set_tempo,,,,,236,1,0,,297030,,,,,,,,
196224,note_on,,,,,0,0,5,,,,,4,,,,74,30
196224,note_on,,,,,1152,0,5,,,,,4,,,,75,0
196226,note_on,,,,,0,0,3,,,,,2,,,,80,60
196226,note_on,,,,,384,0,3,,,,,2,,,,80,0
196226,note_on,,,,,0,0,3,,,,,2,,,,75,0
196226,note_on,,,,,0,0,3,,,,,2,,,,74,60
196422,note_on,,,,,384,0,4,,,,,3,,,,71,0
196422,note_on,,,,,0,0,4,,,,,3,,,,70,60
196430,set_tempo,,,,,236,1,0,,298507,,,,,,,,
196560,note_on,,,,,336,0,5,,,,,4,,,,74,0
196562,note_on,,,,,336,0,3,,,,,2,,,,80,0
196562,note_on,,,,,0,0,3,,,,,2,,,,74,0
196562,note_on,,,,,720,0,7,,,,,6,,,,53,0
196566,note_on,,,,,720,0,9,,,,,8,,,,34,0
196568,note_on,,,,,720,0,8,,,,,7,,,,46,0
196582,note_on,,,,,160,0,4,,,,,3,,,,70,0
196608,note_on,,,,,48,0,5,,,,,4,,,,73,30
196610,note_on,,,,,48,0,7,,,,,6,,,,58,30
196610,note_on,,,,,0,0,3,,,,,2,,,,80,75
196610,note_on,,,,,48,0,3,,,,,2,,,,73,75
196614,note_on,,,,,48,0,9,,,,,8,,,,27,30
196616,note_on,,,,,48,0,8,,,,,7,,,,39,30
196667,set_tempo,,,,,237,1,0,,300000,,,,,,,,
196806,note_on,,,,,224,0,4,,,,,3,,,,64,60
196903,set_tempo,,,,,236,1,0,,301508,,,,,,,,
196994,note_on,,,,,0,0,3,,,,,2,,,,79,60
196994,note_on,,,,,0,0,3,,,,,2,,,,73,0
196994,note_on,,,,,384,0,3,,,,,2,,,,80,0
196994,note_on,,,,,0,0,3,,,,,2,,,,73,60
197002,note_on,,,,,0,0,6,,,,,5,,,,67,30
197002,note_on,,,,,1152,0,6,,,,,5,,,,68,0
197139,set_tempo,,,,,236,1,0,,303030,,,,,,,,
197190,note_on,,,,,0,0,4,,,,,3,,,,63,60
197190,note_on,,,,,384,0,4,,,,,3,,,,64,0
197330,note_on,,,,,720,0,7,,,,,6,,,,58,0
197330,note_on,,,,,336,0,3,,,,,2,,,,79,0
197330,note_on,,,,,0,0,3,,,,,2,,,,73,0
197334,note_on,,,,,720,0,9,,,,,8,,,,27,0
197336,note_on,,,,,720,0,8,,,,,7,,,,39,0
197338,note_on,,,,,336,0,6,,,,,5,,,,67,0
197350,note_on,,,,,160,0,4,,,,,3,,,,63,0
197376,set_tempo,,,,,237,1,0,,304569,,,,,,,,
197378,note_on,,,,,48,0,7,,,,,6,,,,51,30
197378,note_on,,,,,0,0,3,,,,,2,,,,78,75
197378,note_on,,,,,48,0,3,,,,,2,,,,73,75
197382,note_on,,,,,48,0,9,,,,,8,,,,32,30
197384,note_on,,,,,48,0,8,,,,,7,,,,44,30
197386,note_on,,,,,48,0,6,,,,,5,,,,66,30
197574,note_on,,,,,224,0,4,,,,,3,,,,69,60
197760,note_on,,,,,1152,0,5,,,,,4,,,,73,0
197760,note_on,,,,,0,0,5,,,,,4,,,,72,30
197762,note_on,,,,,0,0,3,,,,,2,,,,73,0
197762,note_on,,,,,384,0,3,,,,,2,,,,78,0
197762,note_on,,,,,0,0,3,,,,,2,,,,78,60
197762,note_on,,,,,0,0,3,,,,,2,,,,72,60
197958,note_on,,,,,384,0,4,,,,,3,,,,69,0
197958,note_on,,,,,0,0,4,,,,,3,,,,68,60
198096,note_on,,,,,336,0,5,,,,,4,,,,72,0
198098,note_on,,,,,0,0,3,,,,,2,,,,72,0
198098,note_on,,,,,336,0,3,,,,,2,,,,78,0
198098,note_on,,,,,720,0,7,,,,,6,,,,51,0
198102,note_on,,,,,720,0,9,,,,,8,,,,32,0
198104,note_on,,,,,720,0,8,,,,,7,,,,44,0
198106,note_on,,,,,720,0,6,,,,,5,,,,66,0
198118,note_on,,,,,160,0,4,,,,,3,,,,68,0
198150,note_on,,,,,0,0,4,,,,,3,,,,49,60
198150,note_on,,,,,32,0,4,,,,,3,,,,37,60
198321,set_tempo,,,,,945,1,0,,303030,,,,,,,,
198338,note_on,,,,,0,0,3,,,,,2,,,,76,84
198338,note_on,,,,,0,0,3,,,,,2,,,,73,84
198338,note_on,,,,,240,0,3,,,,,2,,,,68,84
198486,note_on,,,,,0,0,4,,,,,3,,,,37,0
198486,note_on,,,,,336,0,4,,,,,3,,,,49,0
198498,set_tempo,,,,,177,1,0,,301508,,,,,,,,
198534,note_on,,,,,0,0,4,,,,,3,,,,51,60
198534,note_on,,,,,0,0,4,,,,,3,,,,39,60
198534,control_change,,,,,48,0,4,,,,,3,64,127,,,
198675,set_tempo,,,,,177,1,0,,300000,,,,,,,,
198722,note_on,,,,,0,0,3,,,,,2,,,,72,60
198722,note_on,,,,,0,0,3,,,,,2,,,,69,60
198722,note_on,,,,,0,0,3,,,,,2,,,,75,60
198722,note_on,,,,,0,0,3,,,,,2,,,,66,60
198722,note_on,,,,,384,0,3,,,,,2,,,,76,0
198722,note_on,,,,,0,0,3,,,,,2,,,,73,0
198722,note_on,,,,,0,0,3,,,,,2,,,,68,0
198852,set_tempo,,,,,177,1,0,,298507,,,,,,,,
198870,note_on,,,,,0,0,4,,,,,3,,,,39,0
198870,note_on,,,,,336,0,4,,,,,3,,,,51,0
198882,note_on,,,,,160,0,3,,,,,2,,,,75,0
198882,note_on,,,,,0,0,3,,,,,2,,,,66,0
198882,note_on,,,,,0,0,3,,,,,2,,,,69,0
198882,note_on,,,,,0,0,3,,,,,2,,,,72,0
198918,note_on,,,,,0,0,4,,,,,3,,,,40,60
198918,note_on,,,,,0,0,4,,,,,3,,,,52,60
198918,control_change,,,,,48,0,4,,,,,3,64,0,,,
199030,set_tempo,,,,,178,1,0,,297030,,,,,,,,
199106,note_on,,,,,0,0,3,,,,,2,,,,73,84
199106,note_on,,,,,0,0,3,,,,,2,,,,68,84
199106,note_on,,,,,224,0,3,,,,,2,,,,64,84
199207,set_tempo,,,,,177,1,0,,295567,,,,,,,,
199254,note_on,,,,,0,0,4,,,,,3,,,,40,0
199254,note_on,,,,,336,0,4,,,,,3,,,,52,0
199302,control_change,,,,,48,0,4,,,,,3,64,127,,,
199302,note_on,,,,,0,0,4,,,,,3,,,,39,60
199302,note_on,,,,,0,0,4,,,,,3,,,,51,60
199384,set_tempo,,,,,177,1,0,,294118,,,,,,,,
199490,note_on,,,,,384,0,3,,,,,2,,,,73,0
199490,note_on,,,,,0,0,3,,,,,2,,,,69,60
199490,note_on,,,,,0,0,3,,,,,2,,,,72,60
199490,note_on,,,,,0,0,3,,,,,2,,,,75,60
199490,note_on,,,,,0,0,3,,,,,2,,,,66,60
199490,note_on,,,,,0,0,3,,,,,2,,,,68,0
199490,note_on,,,,,0,0,3,,,,,2,,,,64,0
199561,set_tempo,,,,,177,1,0,,292683,,,,,,,,
199638,note_on,,,,,336,0,4,,,,,3,,,,51,0
199638,note_on,,,,,0,0,4,,,,,3,,,,39,0
199650,note_on,,,,,160,0,3,,,,,2,,,,75,0
199650,note_on,,,,,0,0,3,,,,,2,,,,66,0
199650,note_on,,,,,0,0,3,,,,,2,,,,69,0
199650,note_on,,,,,0,0,3,,,,,2,,,,72,0
199686,control_change,,,,,48,0,4,,,,,3,64,0,,,
199686,note_on,,,,,0,0,4,,,,,3,,,,37,60
199686,note_on,,,,,0,0,4,,,,,3,,,,49,60
199739,set_tempo,,,,,178,1,0,,291262,,,,,,,,
199874,note_on,,,,,0,0,3,,,,,2,,,,76,84
199874,note_on,,,,,0,0,3,,,,,2,,,,73,84
199874,note_on,,,,,224,0,3,,,,,2,,,,68,84
199916,set_tempo,,,,,177,1,0,,289855,,,,,,,,
200022,note_on,,,,,336,0,4,,,,,3,,,,49,0
200022,note_on,,,,,0,0,4,,,,,3,,,,37,0
200070,control_change,,,,,48,0,4,,,,,3,64,127,,,
200070,note_on,,,,,0,0,4,,,,,3,,,,39,60
200070,note_on,,,,,0,0,4,,,,,3,,,,51,60
200093,set_tempo,,,,,177,1,0,,288462,,,,,,,,
200258,note_on,,,,,0,0,3,,,,,2,,,,68,0
200258,note_on,,,,,0,0,3,,,,,2,,,,66,60
200258,note_on,,,,,0,0,3,,,,,2,,,,69,60
200258,note_on,,,,,0,0,3,,,,,2,,,,75,60
200258,note_on,,,,,384,0,3,,,,,2,,,,76,0
200258,note_on,,,,,0,0,3,,,,,2,,,,72,60
200258,note_on,,,,,0,0,3,,,,,2,,,,73,0
200270,set_tempo,,,,,177,1,0,,287081,,,,,,,,
200406,note_on,,,,,336,0,4,,,,,3,,,,51,0
200406,note_on,,,,,0,0,4,,,,,3,,,,39,0
200418,note_on,,,,,0,0,3,,,,,2,,,,66,0
200418,note_on,,,,,0,0,3,,,,,2,,,,72,0
200418,note_on,,,,,0,0,3,,,,,2,,,,69,0
200418,note_on,,,,,160,0,3,,,,,2,,,,75,0
200448,set_tempo,,,,,178,1,0,,285714,,,,,,,,
200454,note_on,,,,,0,0,4,,,,,3,,,,40,60
200454,note_on,,,,,0,0,4,,,,,3,,,,52,60
200454,control_change,,,,,48,0,4,,,,,3,64,0,,,
200642,note_on,,,,,0,0,3,,,,,2,,,,73,84
200642,note_on,,,,,0,0,3,,,,,2,,,,68,84
200642,note_on,,,,,224,0,3,,,,,2,,,,64,84
200790,note_on,,,,,336,0,4,,,,,3,,,,52,0
200790,note_on,,,,,0,0,4,,,,,3,,,,40,0
200838,control_change,,,,,48,0,4,,,,,3,64,127,,,
200838,note_on,,,,,0,0,4,,,,,3,,,,39,60
200838,note_on,,,,,0,0,4,,,,,3,,,,51,60
201026,note_on,,,,,0,0,3,,,,,2,,,,68,0
201026,note_on,,,,,384,0,3,,,,,2,,,,73,0
201026,note_on,,,,,0,0,3,,,,,2,,,,64,0
201026,note_on,,,,,0,0,3,,,,,2,,,,66,60
201026,note_on,,,,,0,0,3,,,,,2,,,,75,60
201026,note_on,,,,,0,0,3,,,,,2,,,,72,60
201026,note_on,,,,,0,0,3,,,,,2,,,,69,60
201174,note_on,,,,,336,0,4,,,,,3,,,,51,0
201174,note_on,,,,,0,0,4,,,,,3,,,,39,0
201186,note_on,,,,,160,0,3,,,,,2,,,,75,0
201186,note_on,,,,,0,0,3,,,,,2,,,,66,0
201186,note_on,,,,,0,0,3,,,,,2,,,,69,0
201186,note_on,,,,,0,0,3,,,,,2,,,,72,0
201218,note_on,,,,,32,0,3,,,,,2,,,,77,92
201220,note_on,,,,,0,0,1,,,,,0,,,,80,45
201220,note_on,,,,,15200,0,1,,,,,0,,,,68,45
201222,note_on,,,,,0,0,4,,,,,3,,,,38,75
201222,control_change,,,,,48,0,4,,,,,3,64,0,,,
201222,note_on,,,,,3120,0,9,,,,,8,,,,38,45
201222,note_on,,,,,0,0,4,,,,,3,,,,50,75
201224,note_on,,,,,3120,0,8,,,,,7,,,,50,45
201312,note_on,,,,,94,0,3,,,,,2,,,,77,0
201314,note_on,,,,,2,0,3,,,,,2,,,,71,92
201408,note_on,,,,,3312,0,5,,,,,4,,,,77,45
201408,note_on,,,,,94,0,3,,,,,2,,,,71,0
201410,note_on,,,,,2,0,3,,,,,2,,,,68,92
201410,note_on,,,,,3312,0,7,,,,,6,,,,68,45
201418,note_on,,,,,3312,0,6,,,,,5,,,,71,45
201504,note_on,,,,,94,0,3,,,,,2,,,,68,0
201506,note_on,,,,,2,0,3,,,,,2,,,,71,92
201558,note_on,,,,,0,0,4,,,,,3,,,,38,0
201558,note_on,,,,,336,0,9,,,,,8,,,,38,0
201558,note_on,,,,,336,0,4,,,,,3,,,,50,0
201560,note_on,,,,,336,0,8,,,,,7,,,,50,0
201600,note_on,,,,,94,0,3,,,,,2,,,,71,0
201602,note_on,,,,,2,0,3,,,,,2,,,,77,92
201606,note_on,,,,,48,0,9,,,,,8,,,,39,45
201606,note_on,,,,,0,0,4,,,,,3,,,,51,75
201606,note_on,,,,,0,0,4,,,,,3,,,,39,75
201606,control_change,,,,,48,0,4,,,,,3,64,127,,,
201608,note_on,,,,,48,0,8,,,,,7,,,,51,45
201696,note_on,,,,,94,0,3,,,,,2,,,,77,0
201698,note_on,,,,,2,0,3,,,,,2,,,,68,92
201792,note_on,,,,,94,0,3,,,,,2,,,,68,0
201792,note_on,,,,,384,0,5,,,,,4,,,,77,0
201792,note_on,,,,,0,0,5,,,,,4,,,,75,45
201794,note_on,,,,,2,0,3,,,,,2,,,,75,92
201888,note_on,,,,,94,0,3,,,,,2,,,,75,0
201890,note_on,,,,,2,0,3,,,,,2,,,,68,92
201938,note_on,,,,,528,0,7,,,,,6,,,,68,0
201942,note_on,,,,,336,0,9,,,,,8,,,,39,0
201942,note_on,,,,,0,0,4,,,,,3,,,,39,0
201942,note_on,,,,,336,0,4,,,,,3,,,,51,0
201944,note_on,,,,,336,0,8,,,,,7,,,,51,0
201946,note_on,,,,,528,0,6,,,,,5,,,,71,0
201952,note_on,,,,,160,0,5,,,,,4,,,,75,0
201984,note_on,,,,,94,0,3,,,,,2,,,,68,0
201986,note_on,,,,,2,0,3,,,,,2,,,,74,92
201990,note_on,,,,,0,0,4,,,,,3,,,,41,75
201990,note_on,,,,,48,0,9,,,,,8,,,,41,45
201990,control_change,,,,,48,0,4,,,,,3,64,0,,,
201990,note_on,,,,,0,0,4,,,,,3,,,,53,75
201992,note_on,,,,,48,0,8,,,,,7,,,,53,45
202080,note_on,,,,,94,0,3,,,,,2,,,,74,0
202082,note_on,,,,,2,0,3,,,,,2,,,,71,92
202176,note_on,,,,,94,0,3,,,,,2,,,,71,0
202176,note_on,,,,,224,0,5,,,,,4,,,,74,45
202178,note_on,,,,,2,0,3,,,,,2,,,,68,92
202178,note_on,,,,,240,0,7,,,,,6,,,,68,45
202186,note_on,,,,,240,0,6,,,,,5,,,,71,45
202272,note_on,,,,,94,0,3,,,,,2,,,,68,0
202274,note_on,,,,,2,0,3,,,,,2,,,,71,92
202326,note_on,,,,,336,0,4,,,,,3,,,,53,0
202326,note_on,,,,,336,0,9,,,,,8,,,,41,0
202326,note_on,,,,,0,0,4,,,,,3,,,,41,0
202328,note_on,,,,,336,0,8,,,,,7,,,,53,0
202368,note_on,,,,,94,0,3,,,,,2,,,,71,0
202370,note_on,,,,,2,0,3,,,,,2,,,,74,92
202374,note_on,,,,,0,0,4,,,,,3,,,,51,75
202374,note_on,,,,,48,0,9,,,,,8,,,,39,45
202374,note_on,,,,,0,0,4,,,,,3,,,,39,75
202374,control_change,,,,,48,0,4,,,,,3,64,127,,,
202376,note_on,,,,,48,0,8,,,,,7,,,,51,45
202464,note_on,,,,,94,0,3,,,,,2,,,,74,0
202466,note_on,,,,,2,0,3,,,,,2,,,,68,92
202560,note_on,,,,,94,0,3,,,,,2,,,,68,0
202560,note_on,,,,,0,0,5,,,,,4,,,,75,45
202560,note_on,,,,,384,0,5,,,,,4,,,,74,0
202562,note_on,,,,,2,0,3,,,,,2,,,,75,92
202656,note_on,,,,,94,0,3,,,,,2,,,,75,0
202658,note_on,,,,,2,0,3,,,,,2,,,,68,92
202706,note_on,,,,,528,0,7,,,,,6,,,,68,0
202710,note_on,,,,,336,0,9,,,,,8,,,,39,0
202710,note_on,,,,,336,0,4,,,,,3,,,,51,0
202710,note_on,,,,,0,0,4,,,,,3,,,,39,0
202712,note_on,,,,,336,0,8,,,,,7,,,,51,0
202714,note_on,,,,,528,0,6,,,,,5,,,,71,0
202720,note_on,,,,,160,0,5,,,,,4,,,,75,0
202752,note_on,,,,,94,0,3,,,,,2,,,,68,0
202754,note_on,,,,,2,0,3,,,,,2,,,,77,92
202758,note_on,,,,,0,0,4,,,,,3,,,,50,75
202758,note_on,,,,,48,0,9,,,,,8,,,,38,45
202758,note_on,,,,,0,0,4,,,,,3,,,,38,75
202758,control_change,,,,,48,0,4,,,,,3,64,0,,,
202759,note_on,,,,,0,0,2,,,,,1,,,,58,60
202759,note_on,,,,,16736,0,2,,,,,1,,,,46,60
202760,note_on,,,,,48,0,8,,,,,7,,,,50,45
202848,note_on,,,,,94,0,3,,,,,2,,,,77,0
202850,note_on,,,,,2,0,3,,,,,2,,,,70,92
202944,note_on,,,,,94,0,3,,,,,2,,,,70,0
202944,note_on,,,,,224,0,5,,,,,4,,,,77,45
202946,note_on,,,,,240,0,7,,,,,6,,,,68,45
202946,note_on,,,,,2,0,3,,,,,2,,,,68,92
202954,note_on,,,,,240,0,6,,,,,5,,,,70,45
203040,note_on,,,,,94,0,3,,,,,2,,,,68,0
203042,note_on,,,,,2,0,3,,,,,2,,,,70,92
203094,note_on,,,,,336,0,4,,,,,3,,,,50,0
203094,note_on,,,,,0,0,4,,,,,3,,,,38,0
203094,note_on,,,,,336,0,9,,,,,8,,,,38,0
203096,note_on,,,,,336,0,8,,,,,7,,,,50,0
203136,note_on,,,,,94,0,3,,,,,2,,,,70,0
203138,note_on,,,,,2,0,3,,,,,2,,,,77,92
203142,note_on,,,,,0,0,4,,,,,3,,,,51,75
203142,note_on,,,,,48,0,9,,,,,8,,,,39,45
203142,control_change,,,,,48,0,4,,,,,3,64,127,,,
203142,note_on,,,,,0,0,4,,,,,3,,,,39,75
203144,note_on,,,,,48,0,8,,,,,7,,,,51,45
203232,note_on,,,,,94,0,3,,,,,2,,,,77,0
203234,note_on,,,,,2,0,3,,,,,2,,,,70,92
203328,note_on,,,,,384,0,5,,,,,4,,,,77,0
203328,note_on,,,,,0,0,5,,,,,4,,,,75,45
203328,note_on,,,,,94,0,3,,,,,2,,,,70,0
203330,note_on,,,,,2,0,3,,,,,2,,,,75,92
203424,note_on,,,,,94,0,3,,,,,2,,,,75,0
203426,note_on,,,,,2,0,3,,,,,2,,,,70,92
203474,note_on,,,,,528,0,7,,,,,6,,,,68,0
203478,note_on,,,,,0,0,4,,,,,3,,,,39,0
203478,note_on,,,,,336,0,4,,,,,3,,,,51,0
203478,note_on,,,,,336,0,9,,,,,8,,,,39,0
203480,note_on,,,,,336,0,8,,,,,7,,,,51,0
203482,note_on,,,,,528,0,6,,,,,5,,,,70,0
203488,note_on,,,,,160,0,5,,,,,4,,,,75,0
203520,note_on,,,,,94,0,3,,,,,2,,,,70,0
203522,note_on,,,,,2,0,3,,,,,2,,,,74,92
203526,note_on,,,,,0,0,4,,,,,3,,,,53,75
203526,note_on,,,,,48,0,9,,,,,8,,,,41,45
203526,control_change,,,,,48,0,4,,,,,3,64,0,,,
203526,note_on,,,,,0,0,4,,,,,3,,,,41,75
203528,note_on,,,,,48,0,8,,,,,7,,,,53,45
203616,note_on,,,,,94,0,3,,,,,2,,,,74,0
203618,note_on,,,,,2,0,3,,,,,2,,,,70,94
203712,note_on,,,,,224,0,5,,,,,4,,,,74,45
203712,note_on,,,,,94,0,3,,,,,2,,,,70,0
203714,note_on,,,,,240,0,7,,,,,6,,,,68,45
203714,note_on,,,,,2,0,3,,,,,2,,,,68,96
203722,note_on,,,,,240,0,6,,,,,5,,,,70,45
203808,note_on,,,,,94,0,3,,,,,2,,,,68,0
203810,note_on,,,,,2,0,3,,,,,2,,,,70,98
203862,note_on,,,,,336,0,4,,,,,3,,,,53,0
203862,note_on,,,,,336,0,9,,,,,8,,,,41,0
203862,note_on,,,,,0,0,4,,,,,3,,,,41,0
203864,note_on,,,,,336,0,8,,,,,7,,,,53,0
203904,note_on,,,,,94,0,3,,,,,2,,,,70,0
203906,note_on,,,,,2,0,3,,,,,2,,,,74,100
203910,note_on,,,,,0,0,4,,,,,3,,,,51,87
203910,control_change,,,,,48,0,4,,,,,3,64,127,,,
203910,note_on,,,,,0,0,4,,,,,3,,,,39,87
203910,note_on,,,,,48,0,9,,,,,8,,,,39,45
203912,note_on,,,,,48,0,8,,,,,7,,,,51,45
204000,note_on,,,,,94,0,3,,,,,2,,,,74,0
204002,note_on,,,,,2,0,3,,,,,2,,,,70,102
204096,note_on,,,,,94,0,3,,,,,2,,,,70,0
204096,note_on,,,,,0,0,5,,,,,4,,,,75,45
204096,note_on,,,,,384,0,5,,,,,4,,,,74,0
204098,note_on,,,,,2,0,3,,,,,2,,,,75,104
204192,note_on,,,,,94,0,3,,,,,2,,,,75,0
204194,note_on,,,,,2,0,3,,,,,2,,,,70,106
204242,note_on,,,,,528,0,7,,,,,6,,,,68,0
204246,note_on,,,,,336,0,4,,,,,3,,,,51,0
204246,note_on,,,,,336,0,9,,,,,8,,,,39,0
204246,note_on,,,,,0,0,4,,,,,3,,,,39,0
204248,note_on,,,,,336,0,8,,,,,7,,,,51,0
204250,note_on,,,,,528,0,6,,,,,5,,,,70,0
204256,note_on,,,,,160,0,5,,,,,4,,,,75,0
204288,note_on,,,,,32,0,5,,,,,4,,,,77,45
204288,note_on,,,,,94,0,3,,,,,2,,,,70,0
204290,note_on,,,,,48,0,7,,,,,6,,,,68,45
204290,note_on,,,,,2,0,3,,,,,2,,,,77,108
204294,note_on,,,,,0,0,4,,,,,3,,,,38,99
204294,note_on,,,,,48,0,9,,,,,8,,,,38,45
204294,control_change,,,,,48,0,4,,,,,3,64,0,,,
204294,note_on,,,,,0,0,4,,,,,3,,,,50,99
204296,note_on,,,,,48,0,8,,,,,7,,,,50,45
204298,note_on,,,,,48,0,6,,,,,5,,,,70,45
204364,set_tempo,,,,,3916,1,0,,287081,,,,,,,,
204384,note_on,,,,,94,0,3,,,,,2,,,,77,0
204386,note_on,,,,,2,0,3,,,,,2,,,,70,110
204441,set_tempo,,,,,77,1,0,,288462,,,,,,,,
204448,note_on,,,,,160,0,5,,,,,4,,,,77,0
204450,note_on,,,,,160,0,7,,,,,6,,,,68,0
204452,note_on,,,,,0,0,1,,,,,0,,,,68,0
204452,note_on,,,,,3232,0,1,,,,,0,,,,80,0
204455,note_on,,,,,1696,0,2,,,,,1,,,,58,0
204455,note_on,,,,,0,0,2,,,,,1,,,,46,0
204458,note_on,,,,,160,0,6,,,,,5,,,,70,0
204480,note_on,,,,,94,0,3,,,,,2,,,,70,0
204480,note_on,,,,,32,0,5,,,,,4,,,,68,60
204482,note_on,,,,,2,0,3,,,,,2,,,,68,112
204482,note_on,,,,,0,0,7,,,,,6,,,,62,60
204482,note_on,,,,,32,0,7,,,,,6,,,,58,60
204490,note_on,,,,,32,0,6,,,,,5,,,,65,60
204518,set_tempo,,,,,77,1,0,,289855,,,,,,,,
204576,note_on,,,,,94,0,3,,,,,2,,,,68,0
204578,note_on,,,,,2,0,3,,,,,2,,,,70,114
204595,set_tempo,,,,,77,1,0,,291262,,,,,,,,
204630,note_on,,,,,0,0,4,,,,,3,,,,38,0
204630,note_on,,,,,336,0,4,,,,,3,,,,50,0
204630,note_on,,,,,336,0,9,,,,,8,,,,38,0
204632,note_on,,,,,336,0,8,,,,,7,,,,50,0
204672,note_on,,,,,94,0,3,,,,,2,,,,70,0
204672,set_tempo,,,,,77,1,0,,292683,,,,,,,,
204674,note_on,,,,,2,0,3,,,,,2,,,,74,116
204748,set_tempo,,,,,76,1,0,,294118,,,,,,,,
204768,note_on,,,,,94,0,3,,,,,2,,,,74,0
204770,note_on,,,,,2,0,3,,,,,2,,,,70,118
204816,note_on,,,,,336,0,5,,,,,4,,,,68,0
204818,note_on,,,,,0,0,7,,,,,6,,,,58,0
204818,note_on,,,,,336,0,7,,,,,6,,,,62,0
204825,set_tempo,,,,,77,1,0,,295567,,,,,,,,
204826,note_on,,,,,336,0,6,,,,,5,,,,65,0
204864,note_on,,,,,94,0,3,,,,,2,,,,70,0
204864,note_on,,,,,48,0,5,,,,,4,,,,68,75
204866,note_on,,,,,48,0,7,,,,,6,,,,58,75
204866,note_on,,,,,0,0,7,,,,,6,,,,62,75
204866,note_on,,,,,2,0,3,,,,,2,,,,77,121
204874,note_on,,,,,48,0,6,,,,,5,,,,65,75
204902,set_tempo,,,,,77,1,0,,297030,,,,,,,,
204960,note_on,,,,,94,0,3,,,,,2,,,,77,0
204962,note_on,,,,,2,0,3,,,,,2,,,,74,124
204979,set_tempo,,,,,77,1,0,,298507,,,,,,,,
205056,set_tempo,,,,,77,1,0,,300000,,,,,,,,
205056,note_on,,,,,94,0,3,,,,,2,,,,74,0
205058,note_on,,,,,2,0,3,,,,,2,,,,80,127
205152,note_on,,,,,94,0,3,,,,,2,,,,80,0
205154,note_on,,,,,2,0,3,,,,,2,,,,77,127
205158,note_on,,,,,528,0,4,,,,,3,,,,58,127
205216,note_on,,,,,352,0,5,,,,,4,,,,68,0
205218,note_on,,,,,352,0,7,,,,,6,,,,62,0
205218,note_on,,,,,0,0,7,,,,,6,,,,58,0
205226,note_on,,,,,352,0,6,,,,,5,,,,65,0
205248,note_on,,,,,94,0,3,,,,,2,,,,77,0
205248,note_on,,,,,32,0,5,,,,,4,,,,70,92
205248,note_on,,,,,0,0,5,,,,,4,,,,80,92
205250,note_on,,,,,32,0,7,,,,,6,,,,70,92
205250,note_on,,,,,2,0,3,,,,,2,,,,74,127
205252,note_on,,,,,0,0,1,,,,,0,,,,80,92
205252,note_on,,,,,94,0,4,,,,,3,,,,58,0
205252,note_on,,,,,800,0,1,,,,,0,,,,74,92
205254,note_on,,,,,2,0,4,,,,,3,,,,62,127
205254,note_on,,,,,624,0,9,,,,,8,,,,46,92
205255,note_on,,,,,0,0,2,,,,,1,,,,65,108
205255,note_on,,,,,800,0,2,,,,,1,,,,58,108
205256,note_on,,,,,624,0,8,,,,,7,,,,58,92
205258,note_on,,,,,32,0,6,,,,,5,,,,74,92
205258,note_on,,,,,0,0,6,,,,,5,,,,77,92
205344,note_on,,,,,94,0,3,,,,,2,,,,74,0
205346,note_on,,,,,2,0,3,,,,,2,,,,77,127
205348,note_on,,,,,94,0,4,,,,,3,,,,62,0
205350,note_on,,,,,2,0,4,,,,,3,,,,58,127
205412,note_on,,,,,0,0,1,,,,,0,,,,74,0
205412,note_on,,,,,160,0,1,,,,,0,,,,80,0
205414,note_on,,,,,160,0,9,,,,,8,,,,46,0
205415,note_on,,,,,0,0,2,,,,,1,,,,58,0
205415,note_on,,,,,160,0,2,,,,,1,,,,65,0
205416,note_on,,,,,160,0,8,,,,,7,,,,58,0
205440,note_on,,,,,94,0,3,,,,,2,,,,77,0
205442,note_on,,,,,2,0,3,,,,,2,,,,80,127
205444,note_on,,,,,32,0,1,,,,,0,,,,74,92
205444,note_on,,,,,94,0,4,,,,,3,,,,58,0
205444,note_on,,,,,0,0,1,,,,,0,,,,80,92
205446,note_on,,,,,32,0,9,,,,,8,,,,41,92
205446,note_on,,,,,2,0,4,,,,,3,,,,53,127
205447,note_on,,,,,32,0,2,,,,,1,,,,58,108
205447,note_on,,,,,0,0,2,,,,,1,,,,65,108
205448,note_on,,,,,32,0,8,,,,,7,,,,53,92
205536,note_on,,,,,94,0,3,,,,,2,,,,80,0
205538,note_on,,,,,2,0,3,,,,,2,,,,77,127
205540,note_on,,,,,94,0,4,,,,,3,,,,53,0
205542,note_on,,,,,2,0,4,,,,,3,,,,58,127
205584,note_on,,,,,0,0,5,,,,,4,,,,70,0
205584,note_on,,,,,336,0,5,,,,,4,,,,80,0
205586,note_on,,,,,336,0,7,,,,,6,,,,70,0
205594,note_on,,,,,0,0,6,,,,,5,,,,74,0
205594,note_on,,,,,336,0,6,,,,,5,,,,77,0
205604,note_on,,,,,160,0,1,,,,,0,,,,80,0
205604,note_on,,,,,0,0,1,,,,,0,,,,74,0
205606,note_on,,,,,160,0,9,,,,,8,,,,41,0
205607,note_on,,,,,160,0,2,,,,,1,,,,65,0
205607,note_on,,,,,0,0,2,,,,,1,,,,58,0
205608,note_on,,,,,160,0,8,,,,,7,,,,53,0
205632,note_on,,,,,0,0,5,,,,,4,,,,80,92
205632,note_on,,,,,48,0,5,,,,,4,,,,70,92
205632,note_on,,,,,94,0,3,,,,,2,,,,77,0
205634,note_on,,,,,48,0,7,,,,,6,,,,70,92
205634,note_on,,,,,2,0,3,,,,,2,,,,86,127
205636,note_on,,,,,32,0,1,,,,,0,,,,74,92
205636,note_on,,,,,0,0,1,,,,,0,,,,80,92
205636,note_on,,,,,94,0,4,,,,,3,,,,58,0
205638,note_on,,,,,32,0,9,,,,,8,,,,38,92
205638,note_on,,,,,2,0,4,,,,,3,,,,50,127
205639,note_on,,,,,32,0,2,,,,,1,,,,58,108
205639,note_on,,,,,0,0,2,,,,,1,,,,65,108
205640,note_on,,,,,32,0,8,,,,,7,,,,50,92
205642,note_on,,,,,0,0,6,,,,,5,,,,77,92
205642,note_on,,,,,48,0,6,,,,,5,,,,74,92
205728,note_on,,,,,94,0,3,,,,,2,,,,86,0
205730,note_on,,,,,2,0,3,,,,,2,,,,80,127
205732,note_on,,,,,94,0,4,,,,,3,,,,50,0
205734,note_on,,,,,2,0,4,,,,,3,,,,53,127
205792,note_on,,,,,0,0,5,,,,,4,,,,70,0
205792,note_on,,,,,160,0,5,,,,,4,,,,80,0
205794,note_on,,,,,160,0,7,,,,,6,,,,70,0
205796,note_on,,,,,0,0,1,,,,,0,,,,74,0
205796,note_on,,,,,160,0,1,,,,,0,,,,80,0
205798,note_on,,,,,160,0,9,,,,,8,,,,38,0
205799,note_on,,,,,0,0,2,,,,,1,,,,58,0
205799,note_on,,,,,160,0,2,,,,,1,,,,65,0
205800,note_on,,,,,160,0,8,,,,,7,,,,50,0
205802,note_on,,,,,160,0,6,,,,,5,,,,77,0
205802,note_on,,,,,0,0,6,,,,,5,,,,74,0
205824,note_on,,,,,32,0,5,,,,,4,,,,70,75
205824,note_on,,,,,94,0,3,,,,,2,,,,80,0
205824,note_on,,,,,0,0,5,,,,,4,,,,80,75
205824,set_tempo,,,,,768,1,0,,750000,,,,,,,,
205826,note_on,,,,,2,0,3,,,,,2,,,,77,127
205826,note_on,,,,,32,0,7,,,,,6,,,,70,75
205826,note_on,,,,,0,0,3,,,,,2,,,,80,127
205826,note_on,,,,,0,0,3,,,,,2,,,,89,127
205826,note_on,,,,,0,0,3,,,,,2,,,,82,127
205828,note_on,,,,,32,0,1,,,,,0,,,,74,75
205828,note_on,,,,,94,0,4,,,,,3,,,,53,0
205828,note_on,,,,,0,0,1,,,,,0,,,,80,75
205830,note_on,,,,,32,0,9,,,,,8,,,,34,75
205830,note_on,,,,,2,0,4,,,,,3,,,,34,127
205830,note_on,,,,,0,0,4,,,,,3,,,,46,127
205831,note_on,,,,,0,0,2,,,,,1,,,,65,92
205831,note_on,,,,,32,0,2,,,,,1,,,,58,92
205832,note_on,,,,,32,0,8,,,,,7,,,,46,75
205834,note_on,,,,,32,0,6,,,,,5,,,,74,75
205834,note_on,,,,,0,0,6,,,,,5,,,,77,75
205986,note_on,,,,,0,0,3,,,,,2,,,,77,0
205986,note_on,,,,,160,0,3,,,,,2,,,,89,0
205986,note_on,,,,,0,0,3,,,,,2,,,,82,0
205986,note_on,,,,,0,0,3,,,,,2,,,,80,0
206160,note_on,,,,,0,0,5,,,,,4,,,,70,0
206160,note_on,,,,,336,0,5,,,,,4,,,,80,0
206162,note_on,,,,,336,0,7,,,,,6,,,,70,0
206164,note_on,,,,,336,0,1,,,,,0,,,,80,0
206164,note_on,,,,,0,0,1,,,,,0,,,,74,0
206166,note_on,,,,,336,0,9,,,,,8,,,,34,0
206167,note_on,,,,,0,0,2,,,,,1,,,,58,0
206167,note_on,,,,,336,0,2,,,,,1,,,,65,0
206168,note_on,,,,,336,0,8,,,,,7,,,,46,0
206170,note_on,,,,,336,0,6,,,,,5,,,,77,0
206170,note_on,,,,,0,0,6,,,,,5,,,,74,0
206208,set_tempo,,,,,384,1,0,,3000000,,,,,,,,
206358,note_on,,,,,528,0,4,,,,,3,,,,46,0
206358,note_on,,,,,0,0,4,,,,,3,,,,34,0
206400,set_tempo,,,,,192,1,0,,285714,,,,,,,,
206498,note_on,,,,,512,0,3,,,,,2,,,,70,92
206592,time_signature,6,8,12,8,192,1,0,,,,,,,,,,
206592,note_on,,,,,94,0,3,,,,,2,,,,70,0
206594,note_on,,,,,2,0,3,,,,,2,,,,75,108
206690,note_on,,,,,96,0,3,,,,,2,,,,75,0
206690,note_on,,,,,0,0,3,,,,,2,,,,74,108
206786,note_on,,,,,96,0,3,,,,,2,,,,74,0
206786,note_on,,,,,0,0,3,,,,,2,,,,75,108
206880,set_tempo,,,,,288,1,0,,279070,,,,,,,,
206882,note_on,,,,,96,0,3,,,,,2,,,,75,0
206882,note_on,,,,,0,0,3,,,,,2,,,,72,108
206886,note_on,,,,,0,0,4,,,,,3,,,,55,92
206886,note_on,,,,,528,0,4,,,,,3,,,,51,92
206978,note_on,,,,,96,0,3,,,,,2,,,,72,0
206978,note_on,,,,,0,0,3,,,,,2,,,,70,108
207074,note_on,,,,,96,0,3,,,,,2,,,,70,0
207074,note_on,,,,,0,0,3,,,,,2,,,,72,108
207142,note_on,,,,,256,0,4,,,,,3,,,,55,0
207170,note_on,,,,,0,0,3,,,,,2,,,,68,108
207170,note_on,,,,,96,0,3,,,,,2,,,,72,0
207174,note_on,,,,,32,0,4,,,,,3,,,,53,92
207266,note_on,,,,,96,0,3,,,,,2,,,,68,0
207266,note_on,,,,,0,0,3,,,,,2,,,,67,108
207362,note_on,,,,,0,0,3,,,,,2,,,,68,108
207362,note_on,,,,,96,0,3,,,,,2,,,,67,0
207430,note_on,,,,,256,0,4,,,,,3,,,,53,0
207430,note_on,,,,,0,0,4,,,,,3,,,,51,0
207458,note_on,,,,,96,0,3,,,,,2,,,,68,0
207458,note_on,,,,,0,0,3,,,,,2,,,,65,108
207462,note_on,,,,,32,0,4,,,,,3,,,,50,92
207462,note_on,,,,,0,0,4,,,,,3,,,,58,92
207554,note_on,,,,,96,0,3,,,,,2,,,,65,0
207554,note_on,,,,,0,0,3,,,,,2,,,,70,108
207650,note_on,,,,,96,0,3,,,,,2,,,,70,0
207650,note_on,,,,,0,0,3,,,,,2,,,,68,108
207718,note_on,,,,,256,0,4,,,,,3,,,,58,0
207718,note_on,,,,,0,0,4,,,,,3,,,,50,0
207746,note_on,,,,,96,0,3,,,,,2,,,,68,0
207746,note_on,,,,,0,0,3,,,,,2,,,,67,108
207750,note_on,,,,,32,0,4,,,,,3,,,,51,92
207842,note_on,,,,,0,0,3,,,,,2,,,,63,108
207842,note_on,,,,,96,0,3,,,,,2,,,,67,0
207938,note_on,,,,,0,0,3,,,,,2,,,,62,108
207938,note_on,,,,,96,0,3,,,,,2,,,,63,0
208006,note_on,,,,,256,0,4,,,,,3,,,,51,0
208034,note_on,,,,,96,0,3,,,,,2,,,,62,0
208034,note_on,,,,,0,0,3,,,,,2,,,,60,108
208038,note_on,,,,,32,0,4,,,,,3,,,,44,92
208130,note_on,,,,,96,0,3,,,,,2,,,,60,0
208130,note_on,,,,,0,0,3,,,,,2,,,,65,108
208226,note_on,,,,,96,0,3,,,,,2,,,,65,0
208226,note_on,,,,,0,0,3,,,,,2,,,,63,108
208294,note_on,,,,,256,0,4,,,,,3,,,,44,0
208320,set_tempo,,,,,1440,1,0,,292683,,,,,,,,
208322,note_on,,,,,96,0,3,,,,,2,,,,63,0
208322,note_on,,,,,0,0,3,,,,,2,,,,62,108
208326,note_on,,,,,32,0,4,,,,,3,,,,46,92
208418,note_on,,,,,96,0,3,,,,,2,,,,62,0
208418,note_on,,,,,0,0,3,,,,,2,,,,60,108
208486,note_on,,,,,160,0,4,,,,,3,,,,46,0
208514,note_on,,,,,0,0,3,,,,,2,,,,58,108
208514,note_on,,,,,96,0,3,,,,,2,,,,60,0
208518,note_on,,,,,32,0,4,,,,,3,,,,44,92
208608,note_on,,,,,94,0,3,,,,,2,,,,58,0
208608,set_tempo,,,,,288,1,0,,279070,,,,,,,,
208612,note_on,,,,,94,0,4,,,,,3,,,,44,0
208614,note_on,,,,,2,0,4,,,,,3,,,,43,92
208706,note_on,,,,,98,0,3,,,,,2,,,,63,108
208708,note_on,,,,,94,0,4,,,,,3,,,,43,0
208710,note_on,,,,,2,0,4,,,,,3,,,,39,92
208802,note_on,,,,,0,0,3,,,,,2,,,,62,108
208802,note_on,,,,,96,0,3,,,,,2,,,,63,0
208804,note_on,,,,,94,0,4,,,,,3,,,,39,0
208806,note_on,,,,,2,0,4,,,,,3,,,,43,92
208898,note_on,,,,,0,0,3,,,,,2,,,,60,108
208898,note_on,,,,,96,0,3,,,,,2,,,,62,0
208900,note_on,,,,,94,0,4,,,,,3,,,,43,0
208902,note_on,,,,,2,0,4,,,,,3,,,,44,92
208994,note_on,,,,,96,0,3,,,,,2,,,,60,0
208994,note_on,,,,,0,0,3,,,,,2,,,,65,108
208996,note_on,,,,,94,0,4,,,,,3,,,,44,0
208998,note_on,,,,,2,0,4,,,,,3,,,,41,92
209090,note_on,,,,,0,0,3,,,,,2,,,,63,108
209090,note_on,,,,,96,0,3,,,,,2,,,,65,0
209092,note_on,,,,,94,0,4,,,,,3,,,,41,0
209094,note_on,,,,,2,0,4,,,,,3,,,,44,92
209186,note_on,,,,,96,0,3,,,,,2,,,,63,0
209186,note_on,,,,,0,0,3,,,,,2,,,,62,108
209188,note_on,,,,,94,0,4,,,,,3,,,,44,0
209190,note_on,,,,,2,0,4,,,,,3,,,,46,92
209282,note_on,,,,,96,0,3,,,,,2,,,,62,0
209282,note_on,,,,,0,0,3,,,,,2,,,,67,108
209284,note_on,,,,,94,0,4,,,,,3,,,,46,0
209286,note_on,,,,,2,0,4,,,,,3,,,,43,92
209378,note_on,,,,,96,0,3,,,,,2,,,,67,0
209378,note_on,,,,,0,0,3,,,,,2,,,,65,108
209380,note_on,,,,,94,0,4,,,,,3,,,,43,0
209382,note_on,,,,,2,0,4,,,,,3,,,,46,92
209474,note_on,,,,,96,0,3,,,,,2,,,,65,0
209474,note_on,,,,,0,0,3,,,,,2,,,,63,108
209476,note_on,,,,,94,0,4,,,,,3,,,,46,0
209478,note_on,,,,,2,0,4,,,,,3,,,,48,92
209570,note_on,,,,,0,0,3,,,,,2,,,,68,108
209570,note_on,,,,,96,0,3,,,,,2,,,,63,0
209572,note_on,,,,,94,0,4,,,,,3,,,,48,0
209574,note_on,,,,,2,0,4,,,,,3,,,,44,92
209666,note_on,,,,,96,0,3,,,,,2,,,,68,0
209666,note_on,,,,,0,0,3,,,,,2,,,,67,108
209668,note_on,,,,,94,0,4,,,,,3,,,,44,0
209670,note_on,,,,,2,0,4,,,,,3,,,,48,92
209762,note_on,,,,,0,0,3,,,,,2,,,,65,108
209762,note_on,,,,,96,0,3,,,,,2,,,,67,0
209764,note_on,,,,,94,0,4,,,,,3,,,,48,0
209766,note_on,,,,,2,0,4,,,,,3,,,,50,92
209858,note_on,,,,,0,0,3,,,,,2,,,,70,108
209858,note_on,,,,,96,0,3,,,,,2,,,,65,0
209860,note_on,,,,,94,0,4,,,,,3,,,,50,0
209862,note_on,,,,,2,0,4,,,,,3,,,,46,92
209954,note_on,,,,,0,0,3,,,,,2,,,,68,108
209954,note_on,,,,,96,0,3,,,,,2,,,,70,0
209956,note_on,,,,,94,0,4,,,,,3,,,,46,0
209958,note_on,,,,,2,0,4,,,,,3,,,,50,92
210050,note_on,,,,,96,0,3,,,,,2,,,,68,0
210050,note_on,,,,,0,0,3,,,,,2,,,,67,108
210052,note_on,,,,,94,0,4,,,,,3,,,,50,0
210054,note_on,,,,,2,0,4,,,,,3,,,,51,92
210146,note_on,,,,,0,0,3,,,,,2,,,,75,108
210146,note_on,,,,,96,0,3,,,,,2,,,,67,0
210242,note_on,,,,,0,0,3,,,,,2,,,,72,108
210242,note_on,,,,,96,0,3,,,,,2,,,,75,0
210310,note_on,,,,,256,0,4,,,,,3,,,,51,0
210338,note_on,,,,,0,0,3,,,,,2,,,,79,108
210338,note_on,,,,,96,0,3,,,,,2,,,,72,0
210342,note_on,,,,,32,0,4,,,,,3,,,,53,92
210342,note_on,,,,,0,0,4,,,,,3,,,,60,92
210342,note_on,,,,,0,0,4,,,,,3,,,,63,92
210434,note_on,,,,,0,0,3,,,,,2,,,,77,108
210434,note_on,,,,,96,0,3,,,,,2,,,,79,0
210530,note_on,,,,,96,0,3,,,,,2,,,,77,0
210530,note_on,,,,,0,0,3,,,,,2,,,,69,108
210598,note_on,,,,,0,0,4,,,,,3,,,,60,0
210598,note_on,,,,,0,0,4,,,,,3,,,,53,0
210598,note_on,,,,,256,0,4,,,,,3,,,,63,0
210624,set_tempo,,,,,2016,1,0,,292683,,,,,,,,
210626,note_on,,,,,96,0,3,,,,,2,,,,69,0
210626,note_on,,,,,0,0,3,,,,,2,,,,72,108
210630,note_on,,,,,0,0,4,,,,,3,,,,62,92
210630,note_on,,,,,32,0,4,,,,,3,,,,58,92
210722,note_on,,,,,96,0,3,,,,,2,,,,72,0
210722,note_on,,,,,0,0,3,,,,,2,,,,70,108
210816,note_on,,,,,94,0,3,,,,,2,,,,70,0
210818,note_on,,,,,2,0,3,,,,,2,,,,70,108
210850,note_on,,,,,32,0,3,,,,,2,,,,70,0
210886,note_on,,,,,0,0,4,,,,,3,,,,58,0
210886,note_on,,,,,256,0,4,,,,,3,,,,62,0
210912,set_tempo,,,,,288,1,0,,285714,,,,,,,,
210918,note_on,,,,,32,0,4,,,,,3,,,,46,92
211008,note_on,,,,,4848,0,5,,,,,4,,,,70,92
211012,note_on,,,,,4848,0,1,,,,,0,,,,70,92
211012,note_on,,,,,94,0,4,,,,,3,,,,46,0
211018,note_on,,,,,4848,0,6,,,,,5,,,,70,92
211102,note_on,,,,,94,0,5,,,,,4,,,,70,0
211104,note_on,,,,,2,0,5,,,,,4,,,,70,92
211106,note_on,,,,,94,0,1,,,,,0,,,,70,0
211108,note_on,,,,,2,0,1,,,,,0,,,,70,92
211112,note_on,,,,,94,0,6,,,,,5,,,,70,0
211114,note_on,,,,,2,0,6,,,,,5,,,,70,92
211198,note_on,,,,,94,0,5,,,,,4,,,,70,0
211200,set_tempo,,,,,288,1,0,,279070,,,,,,,,
211200,note_on,,,,,2,0,5,,,,,4,,,,75,92
211202,note_on,,,,,94,0,1,,,,,0,,,,70,0
211204,note_on,,,,,2,0,1,,,,,0,,,,75,92
211208,note_on,,,,,94,0,6,,,,,5,,,,70,0
211210,note_on,,,,,2,0,6,,,,,5,,,,75,92
211294,note_on,,,,,94,0,5,,,,,4,,,,75,0
211296,note_on,,,,,2,0,5,,,,,4,,,,74,92
211298,note_on,,,,,94,0,1,,,,,0,,,,75,0
211300,note_on,,,,,2,0,1,,,,,0,,,,74,92
211304,note_on,,,,,94,0,6,,,,,5,,,,75,0
211306,note_on,,,,,2,0,6,,,,,5,,,,74,92
211390,note_on,,,,,94,0,5,,,,,4,,,,74,0
211392,note_on,,,,,2,0,5,,,,,4,,,,75,92
211394,note_on,,,,,94,0,1,,,,,0,,,,74,0
211396,note_on,,,,,2,0,1,,,,,0,,,,75,92
211400,note_on,,,,,94,0,6,,,,,5,,,,74,0
211402,note_on,,,,,2,0,6,,,,,5,,,,75,92
211486,note_on,,,,,94,0,5,,,,,4,,,,75,0
211488,note_on,,,,,2,0,5,,,,,4,,,,72,92
211490,note_on,,,,,94,0,1,,,,,0,,,,75,0
211490,note_on,,,,,5328,0,7,,,,,6,,,,67,92
211492,note_on,,,,,2,0,1,,,,,0,,,,84,92
211494,note_on,,,,,5328,0,9,,,,,8,,,,51,92
211495,note_on,,,,,0,0,2,,,,,1,,,,67,108
211495,note_on,,,,,5328,0,2,,,,,1,,,,63,108
211496,note_on,,,,,5328,0,8,,,,,7,,,,63,92
211496,note_on,,,,,94,0,6,,,,,5,,,,75,0
211498,note_on,,,,,2,0,6,,,,,5,,,,72,92
211582,note_on,,,,,94,0,5,,,,,4,,,,72,0
211584,note_on,,,,,2,0,5,,,,,4,,,,70,92
211586,note_on,,,,,94,0,1,,,,,0,,,,84,0
211588,note_on,,,,,2,0,1,,,,,0,,,,82,92
211592,note_on,,,,,94,0,6,,,,,5,,,,72,0
211594,note_on,,,,,2,0,6,,,,,5,,,,70,92
211678,note_on,,,,,94,0,5,,,,,4,,,,70,0
211680,note_on,,,,,2,0,5,,,,,4,,,,72,92
211682,note_on,,,,,94,0,1,,,,,0,,,,82,0
211684,note_on,,,,,2,0,1,,,,,0,,,,84,92
211688,note_on,,,,,94,0,6,,,,,5,,,,70,0
211690,note_on,,,,,2,0,6,,,,,5,,,,72,92
211746,note_on,,,,,256,0,7,,,,,6,,,,67,0
211751,note_on,,,,,256,0,2,,,,,1,,,,67,0
211774,note_on,,,,,94,0,5,,,,,4,,,,72,0
211776,note_on,,,,,2,0,5,,,,,4,,,,68,92
211778,note_on,,,,,94,0,1,,,,,0,,,,84,0
211778,note_on,,,,,32,0,7,,,,,6,,,,65,92
211780,note_on,,,,,2,0,1,,,,,0,,,,80,92
211783,note_on,,,,,32,0,2,,,,,1,,,,65,108
211784,note_on,,,,,94,0,6,,,,,5,,,,72,0
211786,note_on,,,,,2,0,6,,,,,5,,,,68,92
211870,note_on,,,,,94,0,5,,,,,4,,,,68,0
211872,note_on,,,,,2,0,5,,,,,4,,,,67,92
211874,note_on,,,,,94,0,1,,,,,0,,,,80,0
211876,note_on,,,,,2,0,1,,,,,0,,,,79,92
211880,note_on,,,,,94,0,6,,,,,5,,,,68,0
211882,note_on,,,,,2,0,6,,,,,5,,,,67,92
211966,note_on,,,,,94,0,5,,,,,4,,,,67,0
211968,note_on,,,,,2,0,5,,,,,4,,,,68,92
211970,note_on,,,,,94,0,1,,,,,0,,,,79,0
211972,note_on,,,,,2,0,1,,,,,0,,,,80,92
211976,note_on,,,,,94,0,6,,,,,5,,,,67,0
211978,note_on,,,,,2,0,6,,,,,5,,,,68,92
212038,note_on,,,,,544,0,9,,,,,8,,,,51,0
212039,note_on,,,,,256,0,2,,,,,1,,,,63,0
212040,note_on,,,,,544,0,8,,,,,7,,,,63,0
212062,note_on,,,,,94,0,5,,,,,4,,,,68,0
212064,note_on,,,,,2,0,5,,,,,4,,,,65,92
212066,note_on,,,,,94,0,1,,,,,0,,,,80,0
212068,note_on,,,,,2,0,1,,,,,0,,,,77,92
212070,note_on,,,,,32,0,9,,,,,8,,,,50,92
212071,note_on,,,,,32,0,2,,,,,1,,,,58,108
212072,note_on,,,,,94,0,6,,,,,5,,,,68,0
212072,note_on,,,,,32,0,8,,,,,7,,,,62,92
212074,note_on,,,,,2,0,6,,,,,5,,,,65,92
212158,note_on,,,,,94,0,5,,,,,4,,,,65,0
212160,note_on,,,,,2,0,5,,,,,4,,,,70,92
212162,note_on,,,,,94,0,1,,,,,0,,,,77,0
212164,note_on,,,,,2,0,1,,,,,0,,,,82,92
212168,note_on,,,,,94,0,6,,,,,5,,,,65,0
212170,note_on,,,,,2,0,6,,,,,5,,,,70,92
212254,note_on,,,,,94,0,5,,,,,4,,,,70,0
212256,note_on,,,,,2,0,5,,,,,4,,,,68,92
212258,note_on,,,,,94,0,1,,,,,0,,,,82,0
212260,note_on,,,,,2,0,1,,,,,0,,,,80,92
212264,note_on,,,,,94,0,6,,,,,5,,,,70,0
212266,note_on,,,,,2,0,6,,,,,5,,,,68,92
212306,note_on,,,,,528,0,7,,,,,6,,,,65,0
212326,note_on,,,,,256,0,9,,,,,8,,,,50,0
212327,note_on,,,,,256,0,2,,,,,1,,,,58,0
212327,note_on,,,,,0,0,2,,,,,1,,,,65,0
212328,note_on,,,,,256,0,8,,,,,7,,,,62,0
212350,note_on,,,,,94,0,5,,,,,4,,,,68,0
212352,note_on,,,,,2,0,5,,,,,4,,,,67,92
212354,note_on,,,,,94,0,1,,,,,0,,,,80,0
212354,note_on,,,,,48,0,7,,,,,6,,,,63,92
212356,note_on,,,,,2,0,1,,,,,0,,,,79,92
212358,note_on,,,,,32,0,9,,,,,8,,,,51,92
212359,note_on,,,,,32,0,2,,,,,1,,,,58,108
212359,note_on,,,,,0,0,2,,,,,1,,,,63,108
212360,note_on,,,,,32,0,8,,,,,7,,,,63,92
212360,note_on,,,,,94,0,6,,,,,5,,,,68,0
212362,note_on,,,,,2,0,6,,,,,5,,,,67,92
212446,note_on,,,,,94,0,5,,,,,4,,,,67,0
212448,note_on,,,,,2,0,5,,,,,4,,,,63,92
212450,note_on,,,,,94,0,1,,,,,0,,,,79,0
212452,note_on,,,,,2,0,1,,,,,0,,,,75,92
212456,note_on,,,,,94,0,6,,,,,5,,,,67,0
212458,note_on,,,,,2,0,6,,,,,5,,,,63,92
212518,note_on,,,,,160,0,9,,,,,8,,,,51,0
212520,note_on,,,,,160,0,8,,,,,7,,,,63,0
212542,note_on,,,,,94,0,5,,,,,4,,,,63,0
212544,note_on,,,,,2,0,5,,,,,4,,,,62,92
212546,note_on,,,,,94,0,1,,,,,0,,,,75,0
212548,note_on,,,,,2,0,1,,,,,0,,,,74,92
212550,note_on,,,,,32,0,9,,,,,8,,,,43,92
212552,note_on,,,,,94,0,6,,,,,5,,,,63,0
212552,note_on,,,,,32,0,8,,,,,7,,,,55,92
212554,note_on,,,,,2,0,6,,,,,5,,,,62,92
212615,note_on,,,,,0,0,2,,,,,1,,,,58,0
212615,note_on,,,,,256,0,2,,,,,1,,,,63,0
212638,note_on,,,,,94,0,5,,,,,4,,,,62,0
212640,note_on,,,,,2,0,5,,,,,4,,,,60,92
212642,note_on,,,,,94,0,1,,,,,0,,,,74,0
212644,note_on,,,,,94,0,9,,,,,8,,,,43,0
212644,note_on,,,,,2,0,1,,,,,0,,,,72,92
212646,note_on,,,,,94,0,8,,,,,7,,,,55,0
212646,note_on,,,,,2,0,9,,,,,8,,,,44,92
212647,note_on,,,,,32,0,2,,,,,1,,,,65,108
212648,note_on,,,,,2,0,8,,,,,7,,,,56,92
212648,note_on,,,,,94,0,6,,,,,5,,,,62,0
212650,note_on,,,,,2,0,6,,,,,5,,,,60,92
212734,note_on,,,,,94,0,5,,,,,4,,,,60,0
212736,note_on,,,,,382,0,7,,,,,6,,,,63,0
212736,note_on,,,,,2,0,5,,,,,4,,,,65,92
212738,note_on,,,,,94,0,1,,,,,0,,,,72,0
212738,note_on,,,,,2,0,7,,,,,6,,,,62,92
212740,note_on,,,,,2,0,1,,,,,0,,,,77,92
212744,note_on,,,,,94,0,6,,,,,5,,,,60,0
212746,note_on,,,,,2,0,6,,,,,5,,,,65,92
212806,note_on,,,,,160,0,9,,,,,8,,,,44,0
212808,note_on,,,,,160,0,8,,,,,7,,,,56,0
212830,note_on,,,,,94,0,5,,,,,4,,,,65,0
212832,note_on,,,,,94,0,7,,,,,6,,,,62,0
212832,note_on,,,,,2,0,5,,,,,4,,,,63,92
212834,note_on,,,,,94,0,1,,,,,0,,,,77,0
212834,note_on,,,,,2,0,7,,,,,6,,,,60,92
212836,note_on,,,,,2,0,1,,,,,0,,,,75,92
212838,note_on,,,,,32,0,9,,,,,8,,,,45,92
212840,note_on,,,,,94,0,6,,,,,5,,,,65,0
212840,note_on,,,,,32,0,8,,,,,7,,,,57,92
212842,note_on,,,,,2,0,6,,,,,5,,,,63,92
212903,note_on,,,,,256,0,2,,,,,1,,,,65,0
212926,note_on,,,,,94,0,5,,,,,4,,,,63,0
212928,note_on,,,,,94,0,7,,,,,6,,,,60,0
212928,note_on,,,,,2,0,5,,,,,4,,,,62,92
212928,set_tempo,,,,,1728,1,0,,292683,,,,,,,,
212930,note_on,,,,,2,0,7,,,,,6,,,,58,92
212930,note_on,,,,,94,0,1,,,,,0,,,,75,0
212932,note_on,,,,,94,0,9,,,,,8,,,,45,0
212932,note_on,,,,,2,0,1,,,,,0,,,,74,92
212934,note_on,,,,,2,0,9,,,,,8,,,,46,92
212934,note_on,,,,,94,0,8,,,,,7,,,,57,0
212935,note_on,,,,,32,0,2,,,,,1,,,,58,108
212935,note_on,,,,,0,0,2,,,,,1,,,,65,108
212936,note_on,,,,,94,0,6,,,,,5,,,,63,0
212936,note_on,,,,,2,0,8,,,,,7,,,,58,92
212938,note_on,,,,,2,0,6,,,,,5,,,,62,92
213022,note_on,,,,,94,0,5,,,,,4,,,,62,0
213024,note_on,,,,,94,0,7,,,,,6,,,,58,0
213024,note_on,,,,,2,0,5,,,,,4,,,,60,92
213026,note_on,,,,,94,0,1,,,,,0,,,,74,0
213026,note_on,,,,,2,0,7,,,,,6,,,,60,92
213028,note_on,,,,,2,0,1,,,,,0,,,,72,92
213032,note_on,,,,,94,0,6,,,,,5,,,,62,0
213034,note_on,,,,,2,0,6,,,,,5,,,,60,92
213094,note_on,,,,,160,0,9,,,,,8,,,,46,0
213096,note_on,,,,,160,0,8,,,,,7,,,,58,0
213118,note_on,,,,,94,0,5,,,,,4,,,,60,0
213120,note_on,,,,,94,0,7,,,,,6,,,,60,0
213120,note_on,,,,,2,0,5,,,,,4,,,,58,92
213122,note_on,,,,,94,0,1,,,,,0,,,,72,0
213122,note_on,,,,,2,0,7,,,,,6,,,,62,92
213124,note_on,,,,,2,0,1,,,,,0,,,,70,92
213126,note_on,,,,,32,0,9,,,,,8,,,,44,92
213128,note_on,,,,,94,0,6,,,,,5,,,,60,0
213128,note_on,,,,,32,0,8,,,,,7,,,,56,92
213130,note_on,,,,,2,0,6,,,,,5,,,,58,92
213191,note_on,,,,,0,0,2,,,,,1,,,,58,0
213191,note_on,,,,,256,0,2,,,,,1,,,,65,0
213214,note_on,,,,,94,0,5,,,,,4,,,,58,0
213216,note_on,,,,,94,0,7,,,,,6,,,,62,0
213216,set_tempo,,,,,288,1,0,,279070,,,,,,,,
213218,note_on,,,,,2,0,7,,,,,6,,,,63,92
213218,note_on,,,,,94,0,1,,,,,0,,,,70,0
213220,note_on,,,,,2,0,1,,,,,0,,,,75,92
213220,note_on,,,,,94,0,9,,,,,8,,,,44,0
213222,note_on,,,,,94,0,8,,,,,7,,,,56,0
213222,note_on,,,,,2,0,9,,,,,8,,,,43,92
213223,note_on,,,,,0,0,2,,,,,1,,,,63,108
213223,note_on,,,,,32,0,2,,,,,1,,,,51,108
213224,note_on,,,,,94,0,6,,,,,5,,,,58,0
213224,note_on,,,,,2,0,8,,,,,7,,,,55,92
213312,note_on,,,,,98,0,5,,,,,4,,,,75,92
213312,note_on,,,,,94,0,7,,,,,6,,,,63,0
213314,note_on,,,,,2,0,7,,,,,6,,,,55,92
213316,note_on,,,,,94,0,9,,,,,8,,,,43,0
213318,note_on,,,,,2,0,9,,,,,8,,,,39,92
213318,note_on,,,,,94,0,8,,,,,7,,,,55,0
213320,note_on,,,,,2,0,8,,,,,7,,,,51,92
213322,note_on,,,,,98,0,6,,,,,5,,,,63,92
213406,note_on,,,,,94,0,5,,,,,4,,,,75,0
213408,note_on,,,,,2,0,5,,,,,4,,,,73,92
213408,note_on,,,,,94,0,7,,,,,6,,,,55,0
213410,note_on,,,,,2,0,7,,,,,6,,,,58,92
213412,note_on,,,,,94,0,9,,,,,8,,,,39,0
213414,note_on,,,,,2,0,9,,,,,8,,,,43,92
213414,note_on,,,,,94,0,8,,,,,7,,,,51,0
213416,note_on,,,,,2,0,8,,,,,7,,,,55,92
213416,note_on,,,,,94,0,6,,,,,5,,,,63,0
213418,note_on,,,,,2,0,6,,,,,5,,,,61,92
213479,note_on,,,,,0,0,2,,,,,1,,,,51,0
213479,note_on,,,,,256,0,2,,,,,1,,,,63,0
213502,note_on,,,,,94,0,5,,,,,4,,,,73,0
213504,note_on,,,,,2,0,5,,,,,4,,,,72,92
213504,note_on,,,,,94,0,7,,,,,6,,,,58,0
213506,note_on,,,,,2,0,7,,,,,6,,,,60,92
213508,note_on,,,,,94,0,9,,,,,8,,,,43,0
213510,note_on,,,,,94,0,8,,,,,7,,,,55,0
213510,note_on,,,,,2,0,9,,,,,8,,,,44,92
213512,note_on,,,,,94,0,6,,,,,5,,,,61,0
213512,note_on,,,,,2,0,8,,,,,7,,,,56,92
213514,note_on,,,,,2,0,6,,,,,5,,,,60,92
213598,note_on,,,,,94,0,5,,,,,4,,,,72,0
213600,note_on,,,,,2,0,5,,,,,4,,,,77,92
213600,note_on,,,,,94,0,7,,,,,6,,,,60,0
213602,note_on,,,,,2,0,7,,,,,6,,,,57,92
213604,note_on,,,,,94,0,9,,,,,8,,,,44,0
213606,note_on,,,,,94,0,8,,,,,7,,,,56,0
213606,note_on,,,,,2,0,9,,,,,8,,,,41,92
213608,note_on,,,,,2,0,8,,,,,7,,,,53,92
213608,note_on,,,,,94,0,6,,,,,5,,,,60,0
213610,note_on,,,,,2,0,6,,,,,5,,,,65,92
213668,note_on,,,,,448,0,1,,,,,0,,,,75,0
213694,note_on,,,,,94,0,5,,,,,4,,,,77,0
213696,note_on,,,,,2,0,5,,,,,4,,,,75,92
213696,note_on,,,,,94,0,7,,,,,6,,,,57,0
213698,note_on,,,,,2,0,7,,,,,6,,,,60,92
213700,note_on,,,,,32,0,1,,,,,0,,,,77,92
213700,note_on,,,,,94,0,9,,,,,8,,,,41,0
213702,note_on,,,,,2,0,9,,,,,8,,,,45,92
213702,note_on,,,,,94,0,8,,,,,7,,,,53,0
213704,note_on,,,,,94,0,6,,,,,5,,,,65,0
213704,note_on,,,,,2,0,8,,,,,7,,,,57,92
213706,note_on,,,,,2,0,6,,,,,5,,,,63,92
213790,note_on,,,,,94,0,5,,,,,4,,,,75,0
213792,note_on,,,,,2,0,5,,,,,4,,,,74,92
213792,note_on,,,,,94,0,7,,,,,6,,,,60,0
213794,note_on,,,,,2,0,7,,,,,6,,,,62,92
213796,note_on,,,,,94,0,9,,,,,8,,,,45,0
213798,note_on,,,,,94,0,8,,,,,7,,,,57,0
213798,note_on,,,,,2,0,9,,,,,8,,,,46,92
213800,note_on,,,,,94,0,6,,,,,5,,,,63,0
213800,note_on,,,,,2,0,8,,,,,7,,,,58,92
213802,note_on,,,,,2,0,6,,,,,5,,,,62,92
213886,note_on,,,,,94,0,5,,,,,4,,,,74,0
213888,note_on,,,,,2,0,5,,,,,4,,,,79,92
213888,note_on,,,,,94,0,7,,,,,6,,,,62,0
213890,note_on,,,,,2,0,7,,,,,6,,,,59,92
213892,note_on,,,,,94,0,9,,,,,8,,,,46,0
213894,note_on,,,,,94,0,8,,,,,7,,,,58,0
213894,note_on,,,,,2,0,9,,,,,8,,,,43,92
213896,note_on,,,,,94,0,6,,,,,5,,,,62,0
213896,note_on,,,,,2,0,8,,,,,7,,,,55,92
213898,note_on,,,,,2,0,6,,,,,5,,,,67,92
213956,note_on,,,,,256,0,1,,,,,0,,,,77,0
213982,note_on,,,,,94,0,5,,,,,4,,,,79,0
213984,note_on,,,,,2,0,5,,,,,4,,,,77,92
213984,note_on,,,,,94,0,7,,,,,6,,,,59,0
213986,note_on,,,,,2,0,7,,,,,6,,,,62,92
213988,note_on,,,,,94,0,9,,,,,8,,,,43,0
213988,note_on,,,,,32,0,1,,,,,0,,,,79,92
213990,note_on,,,,,2,0,9,,,,,8,,,,47,92
213990,note_on,,,,,94,0,8,,,,,7,,,,55,0
213992,note_on,,,,,2,0,8,,,,,7,,,,59,92
213992,note_on,,,,,94,0,6,,,,,5,,,,67,0
213994,note_on,,,,,2,0,6,,,,,5,,,,65,92
214078,note_on,,,,,94,0,5,,,,,4,,,,77,0
214080,note_on,,,,,2,0,5,,,,,4,,,,75,92
214080,note_on,,,,,94,0,7,,,,,6,,,,62,0
214082,note_on,,,,,2,0,7,,,,,6,,,,63,92
214084,note_on,,,,,94,0,9,,,,,8,,,,47,0
214086,note_on,,,,,2,0,9,,,,,8,,,,48,92
214086,note_on,,,,,94,0,8,,,,,7,,,,59,0
214087,note_on,,,,,0,0,2,,,,,1,,,,63,108
214087,note_on,,,,,608,0,2,,,,,1,,,,51,108
214088,note_on,,,,,94,0,6,,,,,5,,,,65,0
214088,note_on,,,,,2,0,8,,,,,7,,,,60,92
214090,note_on,,,,,2,0,6,,,,,5,,,,63,92
214174,note_on,,,,,94,0,5,,,,,4,,,,75,0
214176,note_on,,,,,94,0,7,,,,,6,,,,63,0
214176,note_on,,,,,2,0,5,,,,,4,,,,80,92
214178,note_on,,,,,190,0,1,,,,,0,,,,79,0
214178,note_on,,,,,2,0,7,,,,,6,,,,60,92
214180,note_on,,,,,2,0,1,,,,,0,,,,75,92
214184,note_on,,,,,94,0,6,,,,,5,,,,63,0
214186,note_on,,,,,2,0,6,,,,,5,,,,68,92
214270,note_on,,,,,94,0,5,,,,,4,,,,80,0
214272,note_on,,,,,2,0,5,,,,,4,,,,79,92
214272,note_on,,,,,94,0,7,,,,,6,,,,60,0
214274,note_on,,,,,94,0,1,,,,,0,,,,75,0
214274,note_on,,,,,2,0,7,,,,,6,,,,63,92
214276,note_on,,,,,2,0,1,,,,,0,,,,80,92
214280,note_on,,,,,94,0,6,,,,,5,,,,68,0
214282,note_on,,,,,2,0,6,,,,,5,,,,67,92
214342,note_on,,,,,256,0,9,,,,,8,,,,48,0
214343,note_on,,,,,0,0,2,,,,,1,,,,51,0
214343,note_on,,,,,256,0,2,,,,,1,,,,63,0
214344,note_on,,,,,256,0,8,,,,,7,,,,60,0
214366,note_on,,,,,94,0,5,,,,,4,,,,79,0
214368,note_on,,,,,94,0,7,,,,,6,,,,63,0
214368,note_on,,,,,2,0,5,,,,,4,,,,77,92
214370,note_on,,,,,2,0,7,,,,,6,,,,65,92
214374,note_on,,,,,32,0,9,,,,,8,,,,50,92
214375,note_on,,,,,32,0,2,,,,,1,,,,58,108
214375,note_on,,,,,0,0,2,,,,,1,,,,65,108
214376,note_on,,,,,94,0,6,,,,,5,,,,67,0
214376,note_on,,,,,32,0,8,,,,,7,,,,62,92
214378,note_on,,,,,2,0,6,,,,,5,,,,65,92
214462,note_on,,,,,94,0,5,,,,,4,,,,77,0
214464,note_on,,,,,94,0,7,,,,,6,,,,65,0
214464,note_on,,,,,2,0,5,,,,,4,,,,82,92
214466,note_on,,,,,2,0,7,,,,,6,,,,62,92
214466,note_on,,,,,190,0,1,,,,,0,,,,80,0
214468,note_on,,,,,2,0,1,,,,,0,,,,77,92
214472,note_on,,,,,94,0,6,,,,,5,,,,65,0
214474,note_on,,,,,2,0,6,,,,,5,,,,70,92
214558,note_on,,,,,94,0,5,,,,,4,,,,82,0
214560,note_on,,,,,94,0,7,,,,,6,,,,62,0
214560,note_on,,,,,2,0,5,,,,,4,,,,80,92
214562,note_on,,,,,94,0,1,,,,,0,,,,77,0
214562,note_on,,,,,2,0,7,,,,,6,,,,65,92
214564,note_on,,,,,2,0,1,,,,,0,,,,82,92
214568,note_on,,,,,94,0,6,,,,,5,,,,70,0
214570,note_on,,,,,2,0,6,,,,,5,,,,68,92
214630,note_on,,,,,256,0,9,,,,,8,,,,50,0
214631,note_on,,,,,0,0,2,,,,,1,,,,58,0
214631,note_on,,,,,256,0,2,,,,,1,,,,65,0
214632,note_on,,,,,256,0,8,,,,,7,,,,62,0
214654,note_on,,,,,94,0,5,,,,,4,,,,80,0
214656,note_on,,,,,94,0,7,,,,,6,,,,65,0
214656,note_on,,,,,2,0,5,,,,,4,,,,79,92
214658,note_on,,,,,2,0,7,,,,,6,,,,67,92
214662,note_on,,,,,32,0,9,,,,,8,,,,51,92
214663,note_on,,,,,32,0,2,,,,,1,,,,63,108
214663,note_on,,,,,0,0,2,,,,,1,,,,67,108
214664,note_on,,,,,94,0,6,,,,,5,,,,68,0
214664,note_on,,,,,32,0,8,,,,,7,,,,63,92
214666,note_on,,,,,2,0,6,,,,,5,,,,67,92
214713,set_tempo,,,,,1497,1,0,,280374,,,,,,,,
214750,note_on,,,,,94,0,5,,,,,4,,,,79,0
214752,note_on,,,,,94,0,7,,,,,6,,,,67,0
214752,note_on,,,,,2,0,5,,,,,4,,,,74,88
214754,note_on,,,,,2,0,7,,,,,6,,,,65,92
214754,note_on,,,,,190,0,1,,,,,0,,,,82,0
214756,note_on,,,,,94,0,9,,,,,8,,,,51,0
214756,note_on,,,,,2,0,1,,,,,0,,,,74,92
214756,note_on,,,,,0,0,1,,,,,0,,,,80,92
214757,note_on,,,,,94,0,2,,,,,1,,,,67,0
214757,note_on,,,,,0,0,2,,,,,1,,,,63,0
214758,note_on,,,,,94,0,8,,,,,7,,,,63,0
214758,note_on,,,,,2,0,9,,,,,8,,,,46,92
214759,note_on,,,,,2,0,2,,,,,1,,,,58,108
214759,note_on,,,,,0,0,2,,,,,1,,,,65,108
214760,note_on,,,,,2,0,8,,,,,7,,,,58,92
214760,note_on,,,,,94,0,6,,,,,5,,,,67,0
214762,note_on,,,,,2,0,6,,,,,5,,,,68,92
214771,set_tempo,,,,,58,1,0,,281690,,,,,,,,
214828,set_tempo,,,,,57,1,0,,283019,,,,,,,,
214848,note_on,,,,,94,0,7,,,,,6,,,,65,0
214848,note_on,,,,,96,0,5,,,,,4,,,,74,0
214848,note_on,,,,,0,0,5,,,,,4,,,,75,84
214850,note_on,,,,,0,0,1,,,,,0,,,,74,0
214850,note_on,,,,,2,0,7,,,,,6,,,,63,92
214850,note_on,,,,,94,0,1,,,,,0,,,,80,0
214852,note_on,,,,,0,0,1,,,,,0,,,,79,92
214852,note_on,,,,,94,0,9,,,,,8,,,,46,0
214852,note_on,,,,,2,0,1,,,,,0,,,,75,92
214853,note_on,,,,,0,0,2,,,,,1,,,,58,0
214853,note_on,,,,,94,0,2,,,,,1,,,,65,0
214854,note_on,,,,,94,0,8,,,,,7,,,,58,0
214854,note_on,,,,,2,0,9,,,,,8,,,,48,92
214855,note_on,,,,,0,0,2,,,,,1,,,,67,108
214855,note_on,,,,,2,0,2,,,,,1,,,,63,108
214856,note_on,,,,,94,0,6,,,,,5,,,,68,0
214856,note_on,,,,,2,0,8,,,,,7,,,,60,92
214858,note_on,,,,,2,0,6,,,,,5,,,,67,92
214886,set_tempo,,,,,58,1,0,,284360,,,,,,,,
214942,note_on,,,,,94,0,5,,,,,4,,,,75,0
214943,set_tempo,,,,,57,1,0,,285714,,,,,,,,
214944,note_on,,,,,2,0,5,,,,,4,,,,65,80
214944,note_on,,,,,94,0,7,,,,,6,,,,63,0
214946,note_on,,,,,2,0,7,,,,,6,,,,60,92
214946,note_on,,,,,0,0,1,,,,,0,,,,75,0
214946,note_on,,,,,94,0,1,,,,,0,,,,79,0
214948,note_on,,,,,94,0,9,,,,,8,,,,48,0
214948,note_on,,,,,0,0,1,,,,,0,,,,80,92
214948,note_on,,,,,2,0,1,,,,,0,,,,72,92
214949,note_on,,,,,94,0,2,,,,,1,,,,67,0
214949,note_on,,,,,0,0,2,,,,,1,,,,63,0
214950,note_on,,,,,2,0,9,,,,,8,,,,44,92
214950,note_on,,,,,94,0,8,,,,,7,,,,60,0
214951,note_on,,,,,0,0,2,,,,,1,,,,68,108
214951,note_on,,,,,2,0,2,,,,,1,,,,65,108
214952,note_on,,,,,94,0,6,,,,,5,,,,67,0
214952,note_on,,,,,2,0,8,,,,,7,,,,56,92
214954,note_on,,,,,2,0,6,,,,,5,,,,65,92
215001,set_tempo,,,,,58,1,0,,287081,,,,,,,,
215038,note_on,,,,,94,0,5,,,,,4,,,,65,0
215040,note_on,,,,,2,0,5,,,,,4,,,,77,76
215044,note_on,,,,,94,0,9,,,,,8,,,,44,0
215046,note_on,,,,,2,0,9,,,,,8,,,,41,92
215046,note_on,,,,,94,0,8,,,,,7,,,,56,0
215048,note_on,,,,,94,0,6,,,,,5,,,,65,0
215048,note_on,,,,,2,0,8,,,,,7,,,,53,92
215050,note_on,,,,,2,0,6,,,,,5,,,,68,92
215059,set_tempo,,,,,58,1,0,,288462,,,,,,,,
215111,note_on,,,,,160,0,2,,,,,1,,,,68,0
215111,note_on,,,,,0,0,2,,,,,1,,,,65,0
215116,set_tempo,,,,,57,1,0,,289855,,,,,,,,
215134,note_on,,,,,94,0,5,,,,,4,,,,77,0
215136,note_on,,,,,2,0,5,,,,,4,,,,74,72
215138,note_on,,,,,0,0,7,,,,,6,,,,58,92
215138,note_on,,,,,192,0,7,,,,,6,,,,60,0
215140,note_on,,,,,94,0,9,,,,,8,,,,41,0
215140,note_on,,,,,0,0,1,,,,,0,,,,74,92
215140,note_on,,,,,0,0,1,,,,,0,,,,77,92
215140,note_on,,,,,192,0,1,,,,,0,,,,80,0
215140,note_on,,,,,0,0,1,,,,,0,,,,72,0
215142,note_on,,,,,94,0,8,,,,,7,,,,53,0
215142,note_on,,,,,2,0,9,,,,,8,,,,46,92
215143,note_on,,,,,0,0,2,,,,,1,,,,65,108
215143,note_on,,,,,32,0,2,,,,,1,,,,58,108
215144,note_on,,,,,2,0,8,,,,,7,,,,58,92
215144,note_on,,,,,94,0,6,,,,,5,,,,68,0
215146,note_on,,,,,2,0,6,,,,,5,,,,65,92
215174,set_tempo,,,,,58,1,0,,291262,,,,,,,,
215230,note_on,,,,,94,0,5,,,,,4,,,,74,0
215232,note_on,,,,,94,0,7,,,,,6,,,,58,0
215232,set_tempo,,,,,58,1,0,,292683,,,,,,,,
215232,note_on,,,,,2,0,5,,,,,4,,,,75,68
215234,note_on,,,,,0,0,1,,,,,0,,,,74,0
215234,note_on,,,,,94,0,1,,,,,0,,,,77,0
215234,note_on,,,,,2,0,7,,,,,6,,,,58,68
215236,note_on,,,,,2,0,1,,,,,0,,,,75,68
215236,note_on,,,,,94,0,9,,,,,8,,,,46,0
215237,note_on,,,,,94,0,2,,,,,1,,,,65,0
215237,note_on,,,,,0,0,2,,,,,1,,,,58,0
215238,note_on,,,,,94,0,8,,,,,7,,,,58,0
215238,note_on,,,,,2,0,9,,,,,8,,,,39,68
215239,note_on,,,,,0,0,2,,,,,1,,,,63,68
215239,note_on,,,,,2,0,2,,,,,1,,,,55,68
215240,note_on,,,,,2,0,8,,,,,7,,,,51,68
215240,note_on,,,,,94,0,6,,,,,5,,,,65,0
215242,note_on,,,,,2,0,6,,,,,5,,,,67,68
215336,note_on,,,,,94,0,6,,,,,5,,,,67,0
215338,note_on,,,,,2,0,6,,,,,5,,,,70,45
215392,note_on,,,,,160,0,5,,,,,4,,,,75,0
215394,note_on,,,,,160,0,7,,,,,6,,,,58,0
215396,note_on,,,,,160,0,1,,,,,0,,,,75,0
215398,note_on,,,,,160,0,9,,,,,8,,,,39,0
215399,note_on,,,,,160,0,2,,,,,1,,,,63,0
215399,note_on,,,,,0,0,2,,,,,1,,,,55,0
215400,note_on,,,,,160,0,8,,,,,7,,,,51,0
215424,set_tempo,,,,,192,1,0,,279070,,,,,,,,
215432,note_on,,,,,94,0,6,,,,,5,,,,70,0
215434,note_on,,,,,2,0,6,,,,,5,,,,70,45
215528,note_on,,,,,94,0,6,,,,,5,,,,70,0
215530,note_on,,,,,2,0,6,,,,,5,,,,70,45
215618,note_on,,,,,4768,0,3,,,,,2,,,,75,108
215622,note_on,,,,,4610,0,4,,,,,3,,,,67,92
215624,note_on,,,,,94,0,6,,,,,5,,,,70,0
215626,note_on,,,,,2,0,6,,,,,5,,,,70,45
215650,note_on,,,,,32,0,3,,,,,2,,,,75,0
215654,note_on,,,,,32,0,4,,,,,3,,,,67,0
215714,note_on,,,,,64,0,3,,,,,2,,,,75,108
215718,note_on,,,,,64,0,4,,,,,3,,,,67,92
215720,note_on,,,,,94,0,6,,,,,5,,,,70,0
215722,note_on,,,,,2,0,6,,,,,5,,,,70,45
215750,note_on,,,,,32,0,4,,,,,3,,,,67,0
215762,note_on,,,,,48,0,3,,,,,2,,,,75,0
215786,note_on,,,,,24,0,3,,,,,2,,,,77,108
215810,note_on,,,,,24,0,3,,,,,2,,,,77,0
215810,note_on,,,,,0,0,3,,,,,2,,,,75,108
215814,note_on,,,,,64,0,4,,,,,3,,,,67,92
215816,note_on,,,,,94,0,6,,,,,5,,,,70,0
215818,note_on,,,,,2,0,6,,,,,5,,,,70,45
215904,note_on,,,,,512,0,5,,,,,4,,,,82,45
215906,note_on,,,,,0,0,3,,,,,2,,,,74,108
215906,note_on,,,,,96,0,3,,,,,2,,,,75,0
215910,note_on,,,,,0,0,4,,,,,3,,,,65,92
215910,note_on,,,,,96,0,4,,,,,3,,,,67,0
215978,note_on,,,,,160,0,6,,,,,5,,,,70,0
215998,note_on,,,,,94,0,5,,,,,4,,,,82,0
216000,note_on,,,,,94,0,3,,,,,2,,,,74,0
216000,note_on,,,,,2,0,5,,,,,4,,,,82,45
216002,note_on,,,,,2,0,3,,,,,2,,,,75,108
216004,note_on,,,,,94,0,4,,,,,3,,,,65,0
216006,note_on,,,,,2,0,4,,,,,3,,,,67,92
216038,note_on,,,,,32,0,4,,,,,3,,,,67,0
216050,note_on,,,,,48,0,3,,,,,2,,,,75,0
216074,note_on,,,,,24,0,3,,,,,2,,,,77,108
216094,note_on,,,,,94,0,5,,,,,4,,,,82,0
216096,note_on,,,,,2,0,5,,,,,4,,,,82,45
216098,note_on,,,,,0,0,3,,,,,2,,,,75,108
216098,note_on,,,,,24,0,3,,,,,2,,,,77,0
216102,note_on,,,,,64,0,4,,,,,3,,,,67,92
216190,note_on,,,,,94,0,5,,,,,4,,,,82,0
216192,note_on,,,,,2,0,5,,,,,4,,,,82,45
216194,note_on,,,,,96,0,3,,,,,2,,,,75,0
216194,note_on,,,,,0,0,3,,,,,2,,,,74,108
216198,note_on,,,,,96,0,4,,,,,3,,,,67,0
216198,note_on,,,,,0,0,4,,,,,3,,,,65,92
216286,note_on,,,,,94,0,5,,,,,4,,,,82,0
216288,note_on,,,,,2,0,5,,,,,4,,,,82,45
216288,note_on,,,,,94,0,3,,,,,2,,,,74,0
216290,note_on,,,,,2,0,3,,,,,2,,,,75,108
216292,note_on,,,,,94,0,4,,,,,3,,,,65,0
216294,note_on,,,,,2,0,4,,,,,3,,,,63,92
216322,note_on,,,,,32,0,3,,,,,2,,,,75,0
216326,note_on,,,,,32,0,4,,,,,3,,,,63,0
216382,note_on,,,,,94,0,5,,,,,4,,,,82,0
216384,note_on,,,,,2,0,5,,,,,4,,,,82,45
216384,set_tempo,,,,,960,1,0,,292683,,,,,,,,
216386,note_on,,,,,64,0,3,,,,,2,,,,76,108
216390,note_on,,,,,64,0,4,,,,,3,,,,61,92
216478,note_on,,,,,94,0,5,,,,,4,,,,82,0
216482,note_on,,,,,1088,0,7,,,,,6,,,,58,45
216482,note_on,,,,,96,0,3,,,,,2,,,,76,0
216482,note_on,,,,,0,0,3,,,,,2,,,,77,108
216486,note_on,,,,,0,0,4,,,,,3,,,,62,92
216486,note_on,,,,,96,0,4,,,,,3,,,,61,0
216576,note_on,,,,,94,0,7,,,,,6,,,,58,0
216576,note_on,,,,,94,0,3,,,,,2,,,,77,0
216578,note_on,,,,,2,0,3,,,,,2,,,,77,108
216578,note_on,,,,,2,0,7,,,,,6,,,,58,45
216580,note_on,,,,,94,0,4,,,,,3,,,,62,0
216582,note_on,,,,,2,0,4,,,,,3,,,,62,92
216610,note_on,,,,,32,0,3,,,,,2,,,,77,0
216614,note_on,,,,,32,0,4,,,,,3,,,,62,0
216672,set_tempo,,,,,288,1,0,,279070,,,,,,,,
216672,note_on,,,,,94,0,7,,,,,6,,,,58,0
216674,note_on,,,,,2,0,7,,,,,6,,,,58,45
216768,note_on,,,,,94,0,7,,,,,6,,,,58,0
216770,note_on,,,,,160,0,3,,,,,2,,,,77,108
216770,note_on,,,,,2,0,7,,,,,6,,,,58,45
216774,note_on,,,,,160,0,4,,,,,3,,,,62,92
216802,note_on,,,,,32,0,3,,,,,2,,,,77,0
216806,note_on,,,,,32,0,4,,,,,3,,,,62,0
216864,note_on,,,,,94,0,7,,,,,6,,,,58,0
216866,note_on,,,,,64,0,3,,,,,2,,,,77,108
216866,note_on,,,,,2,0,7,,,,,6,,,,58,45
216870,note_on,,,,,64,0,4,,,,,3,,,,62,92
216902,note_on,,,,,32,0,4,,,,,3,,,,62,0
216914,note_on,,,,,48,0,3,,,,,2,,,,77,0
216938,note_on,,,,,24,0,3,,,,,2,,,,79,108
216960,note_on,,,,,94,0,7,,,,,6,,,,58,0
216962,note_on,,,,,24,0,3,,,,,2,,,,79,0
216962,note_on,,,,,2,0,7,,,,,6,,,,58,45
216962,note_on,,,,,0,0,3,,,,,2,,,,77,108
216966,note_on,,,,,64,0,4,,,,,3,,,,62,92
217056,note_on,,,,,578,0,5,,,,,4,,,,82,45
217058,note_on,,,,,96,0,3,,,,,2,,,,77,0
217058,note_on,,,,,0,0,3,,,,,2,,,,76,108
217062,note_on,,,,,96,0,4,,,,,3,,,,62,0
217062,note_on,,,,,0,0,4,,,,,3,,,,61,92
217066,note_on,,,,,1088,0,6,,,,,5,,,,70,45
217122,note_on,,,,,160,0,7,,,,,6,,,,58,0
217150,note_on,,,,,94,0,5,,,,,4,,,,82,0
217152,note_on,,,,,94,0,3,,,,,2,,,,76,0
217152,note_on,,,,,2,0,5,,,,,4,,,,82,45
217154,note_on,,,,,2,0,3,,,,,2,,,,77,108
217156,note_on,,,,,94,0,4,,,,,3,,,,61,0
217158,note_on,,,,,2,0,4,,,,,3,,,,62,92
217160,note_on,,,,,94,0,6,,,,,5,,,,70,0
217162,note_on,,,,,2,0,6,,,,,5,,,,70,45
217190,note_on,,,,,32,0,4,,,,,3,,,,62,0
217202,note_on,,,,,48,0,3,,,,,2,,,,77,0
217226,note_on,,,,,24,0,3,,,,,2,,,,79,108
217246,note_on,,,,,94,0,5,,,,,4,,,,82,0
217248,note_on,,,,,2,0,5,,,,,4,,,,82,45
217250,note_on,,,,,0,0,3,,,,,2,,,,77,108
217250,note_on,,,,,24,0,3,,,,,2,,,,79,0
217254,note_on,,,,,64,0,4,,,,,3,,,,62,92
217256,note_on,,,,,94,0,6,,,,,5,,,,70,0
217258,note_on,,,,,2,0,6,,,,,5,,,,70,45
217342,note_on,,,,,94,0,5,,,,,4,,,,82,0
217344,note_on,,,,,2,0,5,,,,,4,,,,82,45
217346,note_on,,,,,0,0,3,,,,,2,,,,76,108
217346,note_on,,,,,96,0,3,,,,,2,,,,77,0
217350,note_on,,,,,96,0,4,,,,,3,,,,62,0
217350,note_on,,,,,0,0,4,,,,,3,,,,61,92
217352,note_on,,,,,94,0,6,,,,,5,,,,70,0
217354,note_on,,,,,2,0,6,,,,,5,,,,70,45
217438,note_on,,,,,94,0,5,,,,,4,,,,82,0
217440,note_on,,,,,2,0,5,,,,,4,,,,82,45
217440,note_on,,,,,94,0,3,,,,,2,,,,76,0
217442,note_on,,,,,2,0,3,,,,,2,,,,77,108
217444,note_on,,,,,94,0,4,,,,,3,,,,61,0
217446,note_on,,,,,2,0,4,,,,,3,,,,62,92
217448,note_on,,,,,94,0,6,,,,,5,,,,70,0
217450,note_on,,,,,2,0,6,,,,,5,,,,70,45
217474,note_on,,,,,32,0,3,,,,,2,,,,77,0
217478,note_on,,,,,32,0,4,,,,,3,,,,62,0
217534,note_on,,,,,94,0,5,,,,,4,,,,82,0
217536,set_tempo,,,,,864,1,0,,292683,,,,,,,,
217536,note_on,,,,,2,0,5,,,,,4,,,,82,45
217538,note_on,,,,,64,0,3,,,,,2,,,,78,108
217542,note_on,,,,,64,0,4,,,,,3,,,,62,92
217544,note_on,,,,,94,0,6,,,,,5,,,,70,0
217546,note_on,,,,,2,0,6,,,,,5,,,,70,45
217634,note_on,,,,,96,0,3,,,,,2,,,,78,0
217634,note_on,,,,,0,0,3,,,,,2,,,,79,108
217638,note_on,,,,,0,0,4,,,,,3,,,,63,92
217638,note_on,,,,,96,0,4,,,,,3,,,,62,0
217696,note_on,,,,,160,0,5,,,,,4,,,,82,0
217706,note_on,,,,,160,0,6,,,,,5,,,,70,0
217728,note_on,,,,,94,0,3,,,,,2,,,,79,0
217730,note_on,,,,,2,0,3,,,,,2,,,,79,108
217732,note_on,,,,,94,0,4,,,,,3,,,,63,0
217734,note_on,,,,,2,0,4,,,,,3,,,,63,92
217762,note_on,,,,,32,0,3,,,,,2,,,,79,0
217766,note_on,,,,,32,0,4,,,,,3,,,,63,0
217824,set_tempo,,,,,288,1,0,,272727,,,,,,,,
217830,note_on,,,,,64,0,4,,,,,3,,,,64,92
217922,note_on,,,,,160,0,3,,,,,2,,,,79,108
217924,note_on,,,,,94,0,4,,,,,3,,,,64,0
217954,note_on,,,,,32,0,3,,,,,2,,,,79,0
218018,note_on,,,,,64,0,3,,,,,2,,,,79,108
218050,note_on,,,,,32,0,3,,,,,2,,,,79,0
218114,note_on,,,,,64,0,3,,,,,2,,,,82,108
218118,note_on,,,,,194,0,4,,,,,3,,,,65,92
218212,note_on,,,,,94,0,4,,,,,3,,,,65,0
218274,note_on,,,,,160,0,3,,,,,2,,,,82,0
218306,note_on,,,,,32,0,3,,,,,2,,,,80,108
218400,note_on,,,,,94,0,3,,,,,2,,,,80,0
218406,note_on,,,,,194,0,4,,,,,3,,,,62,92
218498,note_on,,,,,98,0,3,,,,,2,,,,77,108
218500,note_on,,,,,94,0,4,,,,,3,,,,62,0
218530,note_on,,,,,32,0,3,,,,,2,,,,77,0
218594,note_on,,,,,64,0,3,,,,,2,,,,77,108
218626,note_on,,,,,32,0,3,,,,,2,,,,77,0
218690,note_on,,,,,64,0,3,,,,,2,,,,80,108
218694,note_on,,,,,194,0,4,,,,,3,,,,63,92
218788,note_on,,,,,94,0,4,,,,,3,,,,63,0
218882,note_on,,,,,192,0,3,,,,,2,,,,80,0
218882,note_on,,,,,0,0,3,,,,,2,,,,79,108
218976,note_on,,,,,94,0,3,,,,,2,,,,79,0
218982,note_on,,,,,194,0,4,,,,,3,,,,60,92
219074,note_on,,,,,98,0,3,,,,,2,,,,75,108
219076,note_on,,,,,94,0,4,,,,,3,,,,60,0
219106,note_on,,,,,32,0,3,,,,,2,,,,75,0
219170,note_on,,,,,64,0,3,,,,,2,,,,75,108
219202,note_on,,,,,32,0,3,,,,,2,,,,75,0
219266,note_on,,,,,64,0,3,,,,,2,,,,79,108
219270,note_on,,,,,194,0,4,,,,,3,,,,56,92
219364,note_on,,,,,94,0,4,,,,,3,,,,56,0
219458,note_on,,,,,192,0,3,,,,,2,,,,79,0
219458,note_on,,,,,0,0,3,,,,,2,,,,77,108
219552,note_on,,,,,94,0,3,,,,,2,,,,77,0
219558,note_on,,,,,194,0,4,,,,,3,,,,58,92
219650,note_on,,,,,98,0,3,,,,,2,,,,74,108
219652,note_on,,,,,94,0,4,,,,,3,,,,58,0
219682,note_on,,,,,32,0,3,,,,,2,,,,74,0
219746,note_on,,,,,64,0,3,,,,,2,,,,74,108
219778,note_on,,,,,32,0,3,,,,,2,,,,74,0
219842,note_on,,,,,64,0,3,,,,,2,,,,77,108
219846,note_on,,,,,194,0,4,,,,,3,,,,51,92
219940,note_on,,,,,94,0,4,,,,,3,,,,51,0
220034,note_on,,,,,192,0,3,,,,,2,,,,77,0
220034,note_on,,,,,0,0,3,,,,,2,,,,75,108
220128,note_on,,,,,94,0,3,,,,,2,,,,75,0
220128,set_tempo,,,,,2304,1,0,,279070,,,,,,,,
220130,note_on,,,,,2,0,3,,,,,2,,,,67,92
220176,note_on,,,,,46,0,3,,,,,2,,,,67,0
220178,note_on,,,,,2,0,3,,,,,2,,,,82,92
220224,note_on,,,,,2528,0,5,,,,,4,,,,75,45
220224,note_on,,,,,46,0,3,,,,,2,,,,82,0
220226,note_on,,,,,2,0,3,,,,,2,,,,67,92
220234,note_on,,,,,2528,0,6,,,,,5,,,,67,45
220272,note_on,,,,,46,0,3,,,,,2,,,,67,0
220274,note_on,,,,,2,0,3,,,,,2,,,,82,92
220318,note_on,,,,,94,0,5,,,,,4,,,,75,0
220320,note_on,,,,,46,0,3,,,,,2,,,,82,0
220320,note_on,,,,,2,0,5,,,,,4,,,,75,45
220322,note_on,,,,,2,0,3,,,,,2,,,,67,92
220328,note_on,,,,,94,0,6,,,,,5,,,,67,0
220330,note_on,,,,,2,0,6,,,,,5,,,,67,45
220368,note_on,,,,,46,0,3,,,,,2,,,,67,0
220370,note_on,,,,,2,0,3,,,,,2,,,,82,92
220390,note_on,,,,,70,0,5,,,,,4,,,,75,0
220392,note_on,,,,,2,0,5,,,,,4,,,,77,45
220400,note_on,,,,,70,0,6,,,,,5,,,,67,0
220402,note_on,,,,,2,0,6,,,,,5,,,,68,45
220416,note_on,,,,,24,0,5,,,,,4,,,,77,0
220416,note_on,,,,,0,0,5,,,,,4,,,,75,45
220416,note_on,,,,,46,0,3,,,,,2,,,,82,0
220418,note_on,,,,,2,0,3,,,,,2,,,,67,92
220426,note_on,,,,,24,0,6,,,,,5,,,,68,0
220426,note_on,,,,,0,0,6,,,,,5,,,,67,45
220464,note_on,,,,,46,0,3,,,,,2,,,,67,0
220466,note_on,,,,,2,0,3,,,,,2,,,,82,92
220512,note_on,,,,,0,0,5,,,,,4,,,,74,45
220512,note_on,,,,,96,0,5,,,,,4,,,,75,0
220512,note_on,,,,,46,0,3,,,,,2,,,,82,0
220514,note_on,,,,,2,0,3,,,,,2,,,,67,92
220522,note_on,,,,,0,0,6,,,,,5,,,,65,45
220522,note_on,,,,,96,0,6,,,,,5,,,,67,0
220560,note_on,,,,,46,0,3,,,,,2,,,,67,0
220562,note_on,,,,,2,0,3,,,,,2,,,,82,92
220606,note_on,,,,,94,0,5,,,,,4,,,,74,0
220608,note_on,,,,,46,0,3,,,,,2,,,,82,0
220608,note_on,,,,,2,0,5,,,,,4,,,,75,45
220610,note_on,,,,,2,0,3,,,,,2,,,,67,92
220616,note_on,,,,,94,0,6,,,,,5,,,,65,0
220618,note_on,,,,,2,0,6,,,,,5,,,,67,45
220656,note_on,,,,,46,0,3,,,,,2,,,,67,0
220656,note_on,,,,,48,0,5,,,,,4,,,,75,0
220658,note_on,,,,,2,0,3,,,,,2,,,,82,92
220666,note_on,,,,,48,0,6,,,,,5,,,,67,0
220680,note_on,,,,,24,0,5,,,,,4,,,,77,45
220690,note_on,,,,,24,0,6,,,,,5,,,,68,45
220704,note_on,,,,,46,0,3,,,,,2,,,,82,0
220704,note_on,,,,,0,0,5,,,,,4,,,,75,45
220704,note_on,,,,,24,0,5,,,,,4,,,,77,0
220706,note_on,,,,,2,0,3,,,,,2,,,,67,92
220714,note_on,,,,,24,0,6,,,,,5,,,,68,0
220714,note_on,,,,,0,0,6,,,,,5,,,,67,45
220752,note_on,,,,,46,0,3,,,,,2,,,,67,0
220754,note_on,,,,,2,0,3,,,,,2,,,,82,92
220800,note_on,,,,,46,0,3,,,,,2,,,,82,0
220800,note_on,,,,,96,0,5,,,,,4,,,,75,0
220800,note_on,,,,,0,0,5,,,,,4,,,,74,45
220802,note_on,,,,,2,0,3,,,,,2,,,,67,92
220810,note_on,,,,,96,0,6,,,,,5,,,,67,0
220810,note_on,,,,,0,0,6,,,,,5,,,,65,45
220848,note_on,,,,,46,0,3,,,,,2,,,,67,0
220850,note_on,,,,,2,0,3,,,,,2,,,,82,92
220894,note_on,,,,,94,0,5,,,,,4,,,,74,0
220896,note_on,,,,,2,0,5,,,,,4,,,,75,45
220896,note_on,,,,,46,0,3,,,,,2,,,,82,0
220898,note_on,,,,,2,0,3,,,,,2,,,,67,92
220904,note_on,,,,,94,0,6,,,,,5,,,,65,0
220906,note_on,,,,,2,0,6,,,,,5,,,,63,45
220928,note_on,,,,,32,0,5,,,,,4,,,,75,0
220938,note_on,,,,,32,0,6,,,,,5,,,,63,0
220944,note_on,,,,,46,0,3,,,,,2,,,,67,0
220946,note_on,,,,,2,0,3,,,,,2,,,,82,92
220992,note_on,,,,,64,0,5,,,,,4,,,,76,45
220992,note_on,,,,,46,0,3,,,,,2,,,,82,0
220994,note_on,,,,,3872,0,7,,,,,6,,,,70,45
220994,note_on,,,,,2,0,3,,,,,2,,,,67,92
220998,note_on,,,,,0,0,4,,,,,3,,,,58,92
220998,note_on,,,,,5600,0,9,,,,,8,,,,46,68
220998,note_on,,,,,1058,0,4,,,,,3,,,,46,92
221000,note_on,,,,,5600,0,8,,,,,7,,,,58,68
221002,note_on,,,,,64,0,6,,,,,5,,,,61,45
221040,note_on,,,,,46,0,3,,,,,2,,,,67,0
221042,note_on,,,,,2,0,3,,,,,2,,,,82,92
221088,note_on,,,,,94,0,7,,,,,6,,,,70,0
221088,note_on,,,,,46,0,3,,,,,2,,,,82,0
221088,note_on,,,,,0,0,5,,,,,4,,,,77,45
221088,note_on,,,,,96,0,5,,,,,4,,,,76,0
221090,note_on,,,,,2,0,3,,,,,2,,,,67,92
221092,note_on,,,,,94,0,9,,,,,8,,,,46,0
221094,note_on,,,,,94,0,8,,,,,7,,,,58,0
221098,note_on,,,,,0,0,6,,,,,5,,,,62,45
221098,note_on,,,,,96,0,6,,,,,5,,,,61,0
221136,note_on,,,,,46,0,3,,,,,2,,,,67,0
221138,note_on,,,,,2,0,3,,,,,2,,,,82,92
221182,note_on,,,,,94,0,5,,,,,4,,,,77,0
221184,note_on,,,,,2,0,5,,,,,4,,,,77,45
221184,note_on,,,,,46,0,3,,,,,2,,,,82,0
221186,note_on,,,,,2,0,3,,,,,2,,,,67,92
221192,note_on,,,,,94,0,6,,,,,5,,,,62,0
221194,note_on,,,,,2,0,6,,,,,5,,,,62,45
221216,note_on,,,,,32,0,5,,,,,4,,,,77,0
221226,note_on,,,,,32,0,6,,,,,5,,,,62,0
221232,note_on,,,,,46,0,3,,,,,2,,,,67,0
221234,note_on,,,,,2,0,3,,,,,2,,,,82,92
221254,note_on,,,,,256,0,4,,,,,3,,,,58,0
221254,note_on,,,,,0,0,4,,,,,3,,,,46,0
221280,note_on,,,,,46,0,3,,,,,2,,,,82,0
221282,note_on,,,,,2,0,3,,,,,2,,,,67,92
221328,note_on,,,,,46,0,3,,,,,2,,,,67,0
221330,note_on,,,,,2,0,3,,,,,2,,,,82,92
221376,note_on,,,,,46,0,3,,,,,2,,,,82,0
221376,note_on,,,,,160,0,5,,,,,4,,,,77,45
221378,note_on,,,,,2,0,3,,,,,2,,,,67,92
221386,note_on,,,,,160,0,6,,,,,5,,,,62,45
221424,note_on,,,,,46,0,3,,,,,2,,,,67,0
221426,note_on,,,,,2,0,3,,,,,2,,,,82,92
221470,note_on,,,,,94,0,5,,,,,4,,,,77,0
221472,note_on,,,,,2,0,5,,,,,4,,,,77,45
221472,note_on,,,,,46,0,3,,,,,2,,,,82,0
221474,note_on,,,,,2,0,3,,,,,2,,,,67,92
221480,note_on,,,,,94,0,6,,,,,5,,,,62,0
221482,note_on,,,,,2,0,6,,,,,5,,,,62,45
221520,note_on,,,,,46,0,3,,,,,2,,,,67,0
221522,note_on,,,,,2,0,3,,,,,2,,,,82,92
221542,note_on,,,,,70,0,5,,,,,4,,,,77,0
221544,note_on,,,,,2,0,5,,,,,4,,,,79,45
221552,note_on,,,,,70,0,6,,,,,5,,,,62,0
221554,note_on,,,,,2,0,6,,,,,5,,,,63,45
221568,note_on,,,,,24,0,5,,,,,4,,,,79,0
221568,note_on,,,,,0,0,5,,,,,4,,,,77,45
221568,note_on,,,,,46,0,3,,,,,2,,,,82,0
221570,note_on,,,,,2,0,3,,,,,2,,,,67,92
221578,note_on,,,,,0,0,6,,,,,5,,,,62,45
221578,note_on,,,,,24,0,6,,,,,5,,,,63,0
221616,note_on,,,,,46,0,3,,,,,2,,,,67,0
221618,note_on,,,,,2,0,3,,,,,2,,,,82,92
221664,note_on,,,,,96,0,5,,,,,4,,,,77,0
221664,note_on,,,,,0,0,5,,,,,4,,,,76,45
221664,note_on,,,,,46,0,3,,,,,2,,,,82,0
221666,note_on,,,,,2,0,3,,,,,2,,,,67,92
221674,note_on,,,,,96,0,6,,,,,5,,,,62,0
221674,note_on,,,,,0,0,6,,,,,5,,,,61,45
221712,note_on,,,,,46,0,3,,,,,2,,,,67,0
221714,note_on,,,,,2,0,3,,,,,2,,,,82,92
221758,note_on,,,,,94,0,5,,,,,4,,,,76,0
221760,note_on,,,,,2,0,5,,,,,4,,,,77,45
221760,note_on,,,,,46,0,3,,,,,2,,,,82,0
221762,note_on,,,,,2,0,3,,,,,2,,,,67,92
221768,note_on,,,,,94,0,6,,,,,5,,,,61,0
221770,note_on,,,,,2,0,6,,,,,5,,,,62,45
221808,note_on,,,,,46,0,3,,,,,2,,,,67,0
221808,note_on,,,,,48,0,5,,,,,4,,,,77,0
221810,note_on,,,,,2,0,3,,,,,2,,,,82,92
221818,note_on,,,,,48,0,6,,,,,5,,,,62,0
221832,note_on,,,,,24,0,5,,,,,4,,,,79,45
221842,note_on,,,,,24,0,6,,,,,5,,,,63,45
221856,note_on,,,,,24,0,5,,,,,4,,,,79,0
221856,note_on,,,,,0,0,5,,,,,4,,,,77,45
221856,note_on,,,,,46,0,3,,,,,2,,,,82,0
221858,note_on,,,,,2,0,3,,,,,2,,,,67,92
221866,note_on,,,,,24,0,6,,,,,5,,,,63,0
221866,note_on,,,,,0,0,6,,,,,5,,,,62,45
221904,note_on,,,,,46,0,3,,,,,2,,,,67,0
221906,note_on,,,,,2,0,3,,,,,2,,,,82,92
221952,note_on,,,,,0,0,5,,,,,4,,,,76,45
221952,note_on,,,,,96,0,5,,,,,4,,,,77,0
221952,note_on,,,,,46,0,3,,,,,2,,,,82,0
221954,note_on,,,,,2,0,3,,,,,2,,,,67,92
221962,note_on,,,,,96,0,6,,,,,5,,,,62,0
221962,note_on,,,,,0,0,6,,,,,5,,,,61,45
222000,note_on,,,,,46,0,3,,,,,2,,,,67,0
222002,note_on,,,,,2,0,3,,,,,2,,,,82,92
222046,note_on,,,,,94,0,5,,,,,4,,,,76,0
222048,note_on,,,,,2,0,5,,,,,4,,,,77,45
222048,note_on,,,,,46,0,3,,,,,2,,,,82,0
222050,note_on,,,,,2,0,3,,,,,2,,,,67,92
222056,note_on,,,,,94,0,6,,,,,5,,,,61,0
222058,note_on,,,,,2,0,6,,,,,5,,,,62,45
222080,note_on,,,,,32,0,5,,,,,4,,,,77,0
222090,note_on,,,,,32,0,6,,,,,5,,,,62,0
222096,note_on,,,,,46,0,3,,,,,2,,,,67,0
222098,note_on,,,,,2,0,3,,,,,2,,,,82,92
222144,note_on,,,,,64,0,5,,,,,4,,,,78,45
222144,note_on,,,,,46,0,3,,,,,2,,,,82,0
222146,note_on,,,,,2,0,3,,,,,2,,,,67,92
222146,note_on,,,,,1058,0,7,,,,,6,,,,70,45
222150,note_on,,,,,896,0,4,,,,,3,,,,39,92
222150,note_on,,,,,0,0,4,,,,,3,,,,51,92
222150,note_on,,,,,1058,0,9,,,,,8,,,,39,68
222152,note_on,,,,,1058,0,8,,,,,7,,,,51,68
222154,note_on,,,,,64,0,6,,,,,5,,,,62,45
222192,note_on,,,,,46,0,3,,,,,2,,,,67,0
222194,note_on,,,,,2,0,3,,,,,2,,,,82,92
222240,note_on,,,,,94,0,7,,,,,6,,,,70,0
222240,note_on,,,,,46,0,3,,,,,2,,,,82,0
222240,note_on,,,,,0,0,5,,,,,4,,,,79,45
222240,note_on,,,,,96,0,5,,,,,4,,,,78,0
222242,note_on,,,,,2,0,3,,,,,2,,,,67,92
222244,note_on,,,,,94,0,9,,,,,8,,,,39,0
222246,note_on,,,,,94,0,8,,,,,7,,,,51,0
222250,note_on,,,,,0,0,6,,,,,5,,,,63,45
222250,note_on,,,,,96,0,6,,,,,5,,,,62,0
222288,note_on,,,,,46,0,3,,,,,2,,,,67,0
222290,note_on,,,,,2,0,3,,,,,2,,,,82,92
222334,note_on,,,,,94,0,5,,,,,4,,,,79,0
222336,note_on,,,,,46,0,3,,,,,2,,,,82,0
222336,note_on,,,,,2,0,5,,,,,4,,,,79,45
222338,note_on,,,,,2,0,3,,,,,2,,,,67,92
222344,note_on,,,,,94,0,6,,,,,5,,,,63,0
222346,note_on,,,,,2,0,6,,,,,5,,,,63,45
222368,note_on,,,,,32,0,5,,,,,4,,,,79,0
222378,note_on,,,,,32,0,6,,,,,5,,,,63,0
222406,note_on,,,,,256,0,4,,,,,3,,,,51,0
222406,note_on,,,,,0,0,4,,,,,3,,,,39,0
222432,note_on,,,,,94,0,3,,,,,2,,,,67,0
222438,note_on,,,,,0,0,4,,,,,3,,,,64,92
222438,note_on,,,,,32,0,4,,,,,3,,,,52,92
222530,note_on,,,,,0,0,3,,,,,2,,,,79,108
222530,note_on,,,,,98,0,3,,,,,2,,,,67,108
222532,note_on,,,,,0,0,4,,,,,3,,,,52,0
222532,note_on,,,,,94,0,4,,,,,3,,,,64,0
222624,note_on,,,,,0,0,3,,,,,2,,,,67,0
222624,note_on,,,,,94,0,3,,,,,2,,,,79,0
222626,note_on,,,,,0,0,3,,,,,2,,,,79,108
222626,note_on,,,,,2,0,3,,,,,2,,,,67,108
222720,note_on,,,,,94,0,3,,,,,2,,,,79,0
222720,note_on,,,,,0,0,3,,,,,2,,,,67,0
222722,note_on,,,,,2,0,3,,,,,2,,,,70,108
222722,note_on,,,,,0,0,3,,,,,2,,,,82,108
222726,note_on,,,,,194,0,4,,,,,3,,,,53,92
222726,note_on,,,,,0,0,4,,,,,3,,,,65,92
222818,note_on,,,,,96,0,3,,,,,2,,,,82,0
222818,note_on,,,,,0,0,3,,,,,2,,,,70,0
222818,note_on,,,,,0,0,3,,,,,2,,,,81,108
222818,note_on,,,,,0,0,3,,,,,2,,,,69,108
222820,note_on,,,,,94,0,4,,,,,3,,,,65,0
222820,note_on,,,,,0,0,4,,,,,3,,,,53,0
222835,set_tempo,,,,,2707,1,0,,277778,,,,,,,,
222914,note_on,,,,,0,0,3,,,,,2,,,,69,0
222914,note_on,,,,,0,0,3,,,,,2,,,,80,108
222914,note_on,,,,,0,0,3,,,,,2,,,,68,108
222914,note_on,,,,,96,0,3,,,,,2,,,,81,0
222950,set_tempo,,,,,115,1,0,,276498,,,,,,,,
223008,note_on,,,,,0,0,3,,,,,2,,,,68,0
223008,note_on,,,,,94,0,3,,,,,2,,,,80,0
223014,note_on,,,,,194,0,4,,,,,3,,,,50,92
223014,note_on,,,,,0,0,4,,,,,3,,,,62,92
223065,set_tempo,,,,,115,1,0,,275229,,,,,,,,
223106,note_on,,,,,0,0,3,,,,,2,,,,77,108
223106,note_on,,,,,98,0,3,,,,,2,,,,65,108
223108,note_on,,,,,94,0,4,,,,,3,,,,62,0
223108,note_on,,,,,0,0,4,,,,,3,,,,50,0
223180,set_tempo,,,,,115,1,0,,273973,,,,,,,,
223200,note_on,,,,,0,0,3,,,,,2,,,,65,0
223200,note_on,,,,,94,0,3,,,,,2,,,,77,0
223202,note_on,,,,,0,0,3,,,,,2,,,,77,108
223202,note_on,,,,,2,0,3,,,,,2,,,,65,108
223295,set_tempo,,,,,115,1,0,,272727,,,,,,,,
223296,note_on,,,,,0,0,3,,,,,2,,,,65,0
223296,note_on,,,,,94,0,3,,,,,2,,,,77,0
223298,note_on,,,,,0,0,3,,,,,2,,,,80,108
223298,note_on,,,,,2,0,3,,,,,2,,,,68,108
223302,note_on,,,,,0,0,4,,,,,3,,,,63,92
223302,note_on,,,,,194,0,4,,,,,3,,,,51,92
223394,note_on,,,,,0,0,3,,,,,2,,,,78,108
223394,note_on,,,,,0,0,3,,,,,2,,,,66,108
223394,note_on,,,,,0,0,3,,,,,2,,,,68,0
223394,note_on,,,,,96,0,3,,,,,2,,,,80,0
223396,note_on,,,,,0,0,4,,,,,3,,,,51,0
223396,note_on,,,,,94,0,4,,,,,3,,,,63,0
223411,set_tempo,,,,,116,1,0,,271493,,,,,,,,
223490,note_on,,,,,96,0,3,,,,,2,,,,78,0
223490,note_on,,,,,0,0,3,,,,,2,,,,79,108
223490,note_on,,,,,0,0,3,,,,,2,,,,66,108
223490,note_on,,,,,0,0,3,,,,,2,,,,66,0
223526,set_tempo,,,,,115,1,0,,270270,,,,,,,,
223584,note_on,,,,,0,0,3,,,,,2,,,,66,0
223584,note_on,,,,,94,0,3,,,,,2,,,,79,0
223590,note_on,,,,,194,0,4,,,,,3,,,,48,92
223590,note_on,,,,,0,0,4,,,,,3,,,,60,92
223641,set_tempo,,,,,115,1,0,,269058,,,,,,,,
223682,note_on,,,,,0,0,3,,,,,2,,,,75,108
223682,note_on,,,,,98,0,3,,,,,2,,,,63,108
223684,note_on,,,,,94,0,4,,,,,3,,,,60,0
223684,note_on,,,,,0,0,4,,,,,3,,,,48,0
223756,set_tempo,,,,,115,1,0,,267857,,,,,,,,
223776,note_on,,,,,94,0,3,,,,,2,,,,75,0
223776,note_on,,,,,0,0,3,,,,,2,,,,63,0
223778,note_on,,,,,2,0,3,,,,,2,,,,63,108
223778,note_on,,,,,0,0,3,,,,,2,,,,75,108
223872,set_tempo,,,,,116,1,0,,266667,,,,,,,,
223872,note_on,,,,,0,0,3,,,,,2,,,,63,0
223872,note_on,,,,,94,0,3,,,,,2,,,,75,0
223874,note_on,,,,,0,0,3,,,,,2,,,,79,108
223874,note_on,,,,,2,0,3,,,,,2,,,,67,108
223878,note_on,,,,,0,0,4,,,,,3,,,,56,92
223878,note_on,,,,,194,0,4,,,,,3,,,,44,92
223970,note_on,,,,,0,0,3,,,,,2,,,,67,0
223970,note_on,,,,,0,0,3,,,,,2,,,,64,108
223970,note_on,,,,,0,0,3,,,,,2,,,,76,108
223970,note_on,,,,,96,0,3,,,,,2,,,,79,0
223972,note_on,,,,,0,0,4,,,,,3,,,,44,0
223972,note_on,,,,,94,0,4,,,,,3,,,,56,0
224066,note_on,,,,,96,0,3,,,,,2,,,,76,0
224066,note_on,,,,,0,0,3,,,,,2,,,,64,0
224066,note_on,,,,,0,0,3,,,,,2,,,,65,108
224066,note_on,,,,,0,0,3,,,,,2,,,,77,108
224160,note_on,,,,,94,0,3,,,,,2,,,,77,0
224160,note_on,,,,,0,0,3,,,,,2,,,,65,0
224166,note_on,,,,,0,0,4,,,,,3,,,,58,92
224166,note_on,,,,,194,0,4,,,,,3,,,,46,92
224258,note_on,,,,,98,0,3,,,,,2,,,,62,108
224258,note_on,,,,,0,0,3,,,,,2,,,,74,108
224260,note_on,,,,,0,0,4,,,,,3,,,,46,0
224260,note_on,,,,,94,0,4,,,,,3,,,,58,0
224352,note_on,,,,,94,0,3,,,,,2,,,,74,0
224352,note_on,,,,,0,0,3,,,,,2,,,,62,0
224354,note_on,,,,,2,0,3,,,,,2,,,,62,108
224354,note_on,,,,,0,0,3,,,,,2,,,,74,108
224448,set_tempo,,,,,576,1,0,,279070,,,,,,,,
224448,note_on,,,,,94,0,3,,,,,2,,,,74,0
224448,note_on,,,,,0,0,3,,,,,2,,,,62,0
224454,note_on,,,,,194,0,4,,,,,3,,,,39,108
224502,note_on,,,,,48,0,4,,,,,3,,,,39,0
224502,note_on,,,,,0,0,4,,,,,3,,,,51,108
224534,set_tempo,,,,,86,1,0,,277778,,,,,,,,
224546,note_on,,,,,98,0,3,,,,,2,,,,63,108
224550,note_on,,,,,48,0,4,,,,,3,,,,51,0
224594,note_on,,,,,0,0,3,,,,,2,,,,67,108
224594,note_on,,,,,48,0,3,,,,,2,,,,63,0
224620,set_tempo,,,,,86,1,0,,276498,,,,,,,,
224642,note_on,,,,,0,0,3,,,,,2,,,,70,108
224642,note_on,,,,,48,0,3,,,,,2,,,,67,0
224690,note_on,,,,,0,0,3,,,,,2,,,,75,108
224690,note_on,,,,,48,0,3,,,,,2,,,,70,0
224707,set_tempo,,,,,87,1,0,,275229,,,,,,,,
224736,note_on,,,,,46,0,3,,,,,2,,,,75,0
224742,note_on,,,,,192,0,4,,,,,3,,,,38,108
224790,note_on,,,,,48,0,4,,,,,3,,,,38,0
224790,note_on,,,,,0,0,4,,,,,3,,,,50,108
224793,set_tempo,,,,,86,1,0,,273973,,,,,,,,
224834,note_on,,,,,98,0,3,,,,,2,,,,65,108
224838,note_on,,,,,48,0,4,,,,,3,,,,50,0
224880,set_tempo,,,,,87,1,0,,272727,,,,,,,,
224882,note_on,,,,,48,0,3,,,,,2,,,,65,0
224882,note_on,,,,,0,0,3,,,,,2,,,,70,108
224930,note_on,,,,,48,0,3,,,,,2,,,,70,0
224930,note_on,,,,,0,0,3,,,,,2,,,,74,108
224966,set_tempo,,,,,86,1,0,,271493,,,,,,,,
224978,note_on,,,,,48,0,3,,,,,2,,,,74,0
224978,note_on,,,,,0,0,3,,,,,2,,,,77,108
225024,note_on,,,,,46,0,3,,,,,2,,,,77,0
225030,note_on,,,,,192,0,4,,,,,3,,,,39,108
225052,set_tempo,,,,,86,1,0,,270270,,,,,,,,
225078,note_on,,,,,48,0,4,,,,,3,,,,39,0
225078,note_on,,,,,0,0,4,,,,,3,,,,51,108
225122,note_on,,,,,98,0,3,,,,,2,,,,67,108
225126,note_on,,,,,48,0,4,,,,,3,,,,51,0
225139,set_tempo,,,,,87,1,0,,269058,,,,,,,,
225170,note_on,,,,,0,0,3,,,,,2,,,,70,108
225170,note_on,,,,,48,0,3,,,,,2,,,,67,0
225218,note_on,,,,,0,0,3,,,,,2,,,,75,108
225218,note_on,,,,,48,0,3,,,,,2,,,,70,0
225225,set_tempo,,,,,86,1,0,,267857,,,,,,,,
225266,note_on,,,,,48,0,3,,,,,2,,,,75,0
225266,note_on,,,,,0,0,3,,,,,2,,,,79,108
225312,note_on,,,,,46,0,3,,,,,2,,,,79,0
225312,set_tempo,,,,,87,1,0,,266667,,,,,,,,
225318,note_on,,,,,192,0,4,,,,,3,,,,41,108
225366,note_on,,,,,0,0,4,,,,,3,,,,53,108
225366,note_on,,,,,48,0,4,,,,,3,,,,41,0
225410,note_on,,,,,98,0,3,,,,,2,,,,68,108
225414,note_on,,,,,48,0,4,,,,,3,,,,53,0
225458,note_on,,,,,48,0,3,,,,,2,,,,68,0
225458,note_on,,,,,0,0,3,,,,,2,,,,74,108
225506,note_on,,,,,48,0,3,,,,,2,,,,74,0
225506,note_on,,,,,0,0,3,,,,,2,,,,77,108
225554,note_on,,,,,48,0,3,,,,,2,,,,77,0
225554,note_on,,,,,0,0,3,,,,,2,,,,80,108
225600,note_on,,,,,46,0,3,,,,,2,,,,80,0
225606,note_on,,,,,192,0,4,,,,,3,,,,55,92
225606,note_on,,,,,0,0,4,,,,,3,,,,63,92
225698,note_on,,,,,98,0,3,,,,,2,,,,82,108
225700,note_on,,,,,0,0,4,,,,,3,,,,55,0
225700,note_on,,,,,94,0,4,,,,,3,,,,63,0
225715,set_tempo,,,,,403,1,0,,267857,,,,,,,,
225730,note_on,,,,,0,0,3,,,,,2,,,,84,108
225730,note_on,,,,,32,0,3,,,,,2,,,,82,0
225762,note_on,,,,,32,0,3,,,,,2,,,,84,0
225762,note_on,,,,,0,0,3,,,,,2,,,,82,108
225794,note_on,,,,,0,0,3,,,,,2,,,,79,108
225794,note_on,,,,,32,0,3,,,,,2,,,,82,0
225830,set_tempo,,,,,115,1,0,,269058,,,,,,,,
225888,note_on,,,,,94,0,3,,,,,2,,,,79,0
225894,note_on,,,,,194,0,4,,,,,3,,,,56,92
225894,note_on,,,,,0,0,4,,,,,3,,,,65,92
225945,set_tempo,,,,,115,1,0,,270270,,,,,,,,
225986,note_on,,,,,98,0,3,,,,,2,,,,80,108
225988,note_on,,,,,0,0,4,,,,,3,,,,56,0
225988,note_on,,,,,94,0,4,,,,,3,,,,65,0
226018,note_on,,,,,32,0,3,,,,,2,,,,80,0
226018,note_on,,,,,0,0,3,,,,,2,,,,82,108
226050,note_on,,,,,32,0,3,,,,,2,,,,82,0
226050,note_on,,,,,0,0,3,,,,,2,,,,80,108
226060,set_tempo,,,,,115,1,0,,271493,,,,,,,,
226082,note_on,,,,,0,0,3,,,,,2,,,,77,108
226082,note_on,,,,,32,0,3,,,,,2,,,,80,0
226175,set_tempo,,,,,115,1,0,,272727,,,,,,,,
226176,note_on,,,,,94,0,3,,,,,2,,,,77,0
226182,note_on,,,,,0,0,4,,,,,3,,,,67,92
226182,note_on,,,,,194,0,4,,,,,3,,,,58,92
226274,note_on,,,,,98,0,3,,,,,2,,,,79,108
226276,note_on,,,,,94,0,4,,,,,3,,,,67,0
226276,note_on,,,,,0,0,4,,,,,3,,,,58,0
226291,set_tempo,,,,,116,1,0,,273973,,,,,,,,
226306,note_on,,,,,32,0,3,,,,,2,,,,79,0
226306,note_on,,,,,0,0,3,,,,,2,,,,80,108
226338,note_on,,,,,32,0,3,,,,,2,,,,80,0
226338,note_on,,,,,0,0,3,,,,,2,,,,79,108
226370,note_on,,,,,0,0,3,,,,,2,,,,75,108
226370,note_on,,,,,32,0,3,,,,,2,,,,79,0
226406,set_tempo,,,,,115,1,0,,275229,,,,,,,,
226464,note_on,,,,,94,0,3,,,,,2,,,,75,0
226470,note_on,,,,,0,0,4,,,,,3,,,,68,92
226470,note_on,,,,,194,0,4,,,,,3,,,,58,92
226521,set_tempo,,,,,115,1,0,,276498,,,,,,,,
226562,note_on,,,,,98,0,3,,,,,2,,,,77,108
226564,note_on,,,,,94,0,4,,,,,3,,,,68,0
226564,note_on,,,,,0,0,4,,,,,3,,,,58,0
226594,note_on,,,,,32,0,3,,,,,2,,,,77,0
226594,note_on,,,,,0,0,3,,,,,2,,,,79,108
226626,note_on,,,,,32,0,3,,,,,2,,,,79,0
226626,note_on,,,,,0,0,3,,,,,2,,,,77,108
226636,set_tempo,,,,,115,1,0,,277778,,,,,,,,
226658,note_on,,,,,0,0,3,,,,,2,,,,74,108
226658,note_on,,,,,32,0,3,,,,,2,,,,77,0
226752,note_on,,,,,94,0,3,,,,,2,,,,74,0
226752,note_on,,,,,4384,0,5,,,,,4,,,,75,45
226752,set_tempo,,,,,116,1,0,,279070,,,,,,,,
226754,note_on,,,,,4514,0,7,,,,,6,,,,58,45
226758,note_on,,,,,194,0,4,,,,,3,,,,39,108
226758,note_on,,,,,4514,0,9,,,,,8,,,,39,68
226760,note_on,,,,,4514,0,8,,,,,7,,,,51,68
226762,note_on,,,,,4384,0,6,,,,,5,,,,67,45
226806,note_on,,,,,48,0,4,,,,,3,,,,39,0
226806,note_on,,,,,0,0,4,,,,,3,,,,43,108
226838,set_tempo,,,,,86,1,0,,277778,,,,,,,,
226846,note_on,,,,,94,0,5,,,,,4,,,,75,0
226848,note_on,,,,,94,0,7,,,,,6,,,,58,0
226852,note_on,,,,,94,0,9,,,,,8,,,,39,0
226854,note_on,,,,,48,0,4,,,,,3,,,,43,0
226854,note_on,,,,,0,0,4,,,,,3,,,,46,108
226854,note_on,,,,,94,0,8,,,,,7,,,,51,0
226856,note_on,,,,,94,0,6,,,,,5,,,,67,0
226902,note_on,,,,,48,0,4,,,,,3,,,,46,0
226902,note_on,,,,,0,0,4,,,,,3,,,,51,108
226924,set_tempo,,,,,86,1,0,,276498,,,,,,,,
226946,note_on,,,,,194,0,3,,,,,2,,,,63,108
226950,note_on,,,,,48,0,4,,,,,3,,,,51,0
226994,note_on,,,,,48,0,3,,,,,2,,,,63,0
226994,note_on,,,,,0,0,3,,,,,2,,,,75,108
227011,set_tempo,,,,,87,1,0,,275229,,,,,,,,
227040,note_on,,,,,46,0,3,,,,,2,,,,75,0
227040,note_on,,,,,194,0,5,,,,,4,,,,77,45
227042,note_on,,,,,194,0,7,,,,,6,,,,58,45
227046,note_on,,,,,96,0,4,,,,,3,,,,38,108
227046,note_on,,,,,194,0,9,,,,,8,,,,38,68
227048,note_on,,,,,194,0,8,,,,,7,,,,50,68
227050,note_on,,,,,194,0,6,,,,,5,,,,70,45
227094,note_on,,,,,0,0,4,,,,,3,,,,41,108
227094,note_on,,,,,48,0,4,,,,,3,,,,38,0
227097,set_tempo,,,,,86,1,0,,273973,,,,,,,,
227134,note_on,,,,,94,0,5,,,,,4,,,,77,0
227136,note_on,,,,,94,0,7,,,,,6,,,,58,0
227140,note_on,,,,,94,0,9,,,,,8,,,,38,0
227142,note_on,,,,,0,0,4,,,,,3,,,,46,108
227142,note_on,,,,,94,0,8,,,,,7,,,,50,0
227142,note_on,,,,,48,0,4,,,,,3,,,,41,0
227144,note_on,,,,,94,0,6,,,,,5,,,,70,0
227184,set_tempo,,,,,87,1,0,,272727,,,,,,,,
227190,note_on,,,,,0,0,4,,,,,3,,,,50,108
227190,note_on,,,,,48,0,4,,,,,3,,,,46,0
227234,note_on,,,,,194,0,3,,,,,2,,,,65,108
227238,note_on,,,,,48,0,4,,,,,3,,,,50,0
227270,set_tempo,,,,,86,1,0,,271493,,,,,,,,
227282,note_on,,,,,0,0,3,,,,,2,,,,77,108
227282,note_on,,,,,48,0,3,,,,,2,,,,65,0
227328,note_on,,,,,46,0,3,,,,,2,,,,77,0
227328,note_on,,,,,194,0,5,,,,,4,,,,79,45
227330,note_on,,,,,194,0,7,,,,,6,,,,63,45
227334,note_on,,,,,96,0,4,,,,,3,,,,39,108
227334,note_on,,,,,194,0,9,,,,,8,,,,39,68
227336,note_on,,,,,194,0,8,,,,,7,,,,51,68
227338,note_on,,,,,194,0,6,,,,,5,,,,70,45
227356,set_tempo,,,,,86,1,0,,270270,,,,,,,,
227382,note_on,,,,,0,0,4,,,,,3,,,,43,108
227382,note_on,,,,,48,0,4,,,,,3,,,,39,0
227422,note_on,,,,,94,0,5,,,,,4,,,,79,0
227424,note_on,,,,,94,0,7,,,,,6,,,,63,0
227428,note_on,,,,,94,0,9,,,,,8,,,,39,0
227430,note_on,,,,,94,0,8,,,,,7,,,,51,0
227430,note_on,,,,,0,0,4,,,,,3,,,,46,108
227430,note_on,,,,,48,0,4,,,,,3,,,,43,0
227432,note_on,,,,,94,0,6,,,,,5,,,,70,0
227443,set_tempo,,,,,87,1,0,,269058,,,,,,,,
227478,note_on,,,,,48,0,4,,,,,3,,,,46,0
227478,note_on,,,,,0,0,4,,,,,3,,,,51,108
227522,note_on,,,,,194,0,3,,,,,2,,,,67,108
227526,note_on,,,,,48,0,4,,,,,3,,,,51,0
227529,set_tempo,,,,,86,1,0,,267857,,,,,,,,
227570,note_on,,,,,0,0,3,,,,,2,,,,79,108
227570,note_on,,,,,48,0,3,,,,,2,,,,67,0
227616,note_on,,,,,194,0,5,,,,,4,,,,80,45
227616,note_on,,,,,46,0,3,,,,,2,,,,79,0
227616,set_tempo,,,,,87,1,0,,266667,,,,,,,,
227618,note_on,,,,,194,0,7,,,,,6,,,,62,45
227622,note_on,,,,,96,0,4,,,,,3,,,,41,108
227622,note_on,,,,,194,0,9,,,,,8,,,,41,68
227624,note_on,,,,,194,0,8,,,,,7,,,,53,68
227626,note_on,,,,,194,0,6,,,,,5,,,,70,45
227670,note_on,,,,,0,0,4,,,,,3,,,,44,108
227670,note_on,,,,,48,0,4,,,,,3,,,,41,0
227710,note_on,,,,,94,0,5,,,,,4,,,,80,0
227712,note_on,,,,,94,0,7,,,,,6,,,,62,0
227716,note_on,,,,,94,0,9,,,,,8,,,,41,0
227718,note_on,,,,,48,0,4,,,,,3,,,,44,0
227718,note_on,,,,,0,0,4,,,,,3,,,,50,108
227718,note_on,,,,,94,0,8,,,,,7,,,,53,0
227720,note_on,,,,,94,0,6,,,,,5,,,,70,0
227766,note_on,,,,,0,0,4,,,,,3,,,,53,108
227766,note_on,,,,,48,0,4,,,,,3,,,,50,0
227810,note_on,,,,,194,0,3,,,,,2,,,,68,108
227814,note_on,,,,,48,0,4,,,,,3,,,,53,0
227858,note_on,,,,,48,0,3,,,,,2,,,,68,0
227858,note_on,,,,,0,0,3,,,,,2,,,,80,108
227904,note_on,,,,,46,0,3,,,,,2,,,,80,0
227904,note_on,,,,,194,0,5,,,,,4,,,,82,45
227906,note_on,,,,,194,0,7,,,,,6,,,,63,45
227910,note_on,,,,,96,0,4,,,,,3,,,,55,92
227910,note_on,,,,,194,0,9,,,,,8,,,,43,68
227910,note_on,,,,,0,0,4,,,,,3,,,,63,92
227912,note_on,,,,,194,0,8,,,,,7,,,,55,68
227914,note_on,,,,,194,0,6,,,,,5,,,,70,45
227998,note_on,,,,,94,0,5,,,,,4,,,,82,0
228000,note_on,,,,,94,0,7,,,,,6,,,,63,0
228002,note_on,,,,,98,0,3,,,,,2,,,,82,108
228004,note_on,,,,,94,0,9,,,,,8,,,,43,0
228004,note_on,,,,,0,0,4,,,,,3,,,,55,0
228004,note_on,,,,,94,0,4,,,,,3,,,,63,0
228006,note_on,,,,,94,0,8,,,,,7,,,,55,0
228008,note_on,,,,,94,0,6,,,,,5,,,,70,0
228019,set_tempo,,,,,403,1,0,,267857,,,,,,,,
228034,note_on,,,,,32,0,3,,,,,2,,,,82,0
228034,note_on,,,,,0,0,3,,,,,2,,,,84,108
228066,note_on,,,,,32,0,3,,,,,2,,,,84,0
228066,note_on,,,,,0,0,3,,,,,2,,,,82,108
228098,note_on,,,,,32,0,3,,,,,2,,,,82,0
228098,note_on,,,,,0,0,3,,,,,2,,,,79,108
228134,set_tempo,,,,,115,1,0,,269058,,,,,,,,
228192,note_on,,,,,94,0,3,,,,,2,,,,79,0
228192,note_on,,,,,194,0,5,,,,,4,,,,80,45
228194,note_on,,,,,194,0,7,,,,,6,,,,72,45
228198,note_on,,,,,0,0,4,,,,,3,,,,65,92
228198,note_on,,,,,194,0,9,,,,,8,,,,44,68
228198,note_on,,,,,194,0,4,,,,,3,,,,56,92
228200,note_on,,,,,194,0,8,,,,,7,,,,56,68
228202,note_on,,,,,194,0,6,,,,,5,,,,77,45
228249,set_tempo,,,,,115,1,0,,270270,,,,,,,,
228286,note_on,,,,,94,0,5,,,,,4,,,,80,0
228288,note_on,,,,,94,0,7,,,,,6,,,,72,0
228290,note_on,,,,,98,0,3,,,,,2,,,,80,108
228292,note_on,,,,,94,0,9,,,,,8,,,,44,0
228292,note_on,,,,,0,0,4,,,,,3,,,,56,0
228292,note_on,,,,,94,0,4,,,,,3,,,,65,0
228294,note_on,,,,,94,0,8,,,,,7,,,,56,0
228296,note_on,,,,,94,0,6,,,,,5,,,,77,0
228322,note_on,,,,,0,0,3,,,,,2,,,,82,108
228322,note_on,,,,,32,0,3,,,,,2,,,,80,0
228354,note_on,,,,,32,0,3,,,,,2,,,,82,0
228354,note_on,,,,,0,0,3,,,,,2,,,,80,108
228364,set_tempo,,,,,115,1,0,,271493,,,,,,,,
228386,note_on,,,,,32,0,3,,,,,2,,,,80,0
228386,note_on,,,,,0,0,3,,,,,2,,,,77,108
228479,set_tempo,,,,,115,1,0,,272727,,,,,,,,
228480,note_on,,,,,194,0,5,,,,,4,,,,79,45
228480,note_on,,,,,94,0,3,,,,,2,,,,77,0
228482,note_on,,,,,194,0,7,,,,,6,,,,70,45
228486,note_on,,,,,194,0,4,,,,,3,,,,58,92
228486,note_on,,,,,0,0,4,,,,,3,,,,67,92
228486,note_on,,,,,194,0,9,,,,,8,,,,46,68
228488,note_on,,,,,194,0,8,,,,,7,,,,58,68
228490,note_on,,,,,194,0,6,,,,,5,,,,75,45
228574,note_on,,,,,94,0,5,,,,,4,,,,79,0
228576,note_on,,,,,94,0,7,,,,,6,,,,70,0
228578,note_on,,,,,98,0,3,,,,,2,,,,79,108
228580,note_on,,,,,94,0,4,,,,,3,,,,67,0
228580,note_on,,,,,0,0,4,,,,,3,,,,58,0
228580,note_on,,,,,94,0,9,,,,,8,,,,46,0
228582,note_on,,,,,94,0,8,,,,,7,,,,58,0
228584,note_on,,,,,94,0,6,,,,,5,,,,75,0
228595,set_tempo,,,,,116,1,0,,273973,,,,,,,,
228610,note_on,,,,,0,0,3,,,,,2,,,,80,108
228610,note_on,,,,,32,0,3,,,,,2,,,,79,0
228642,note_on,,,,,0,0,3,,,,,2,,,,79,108
228642,note_on,,,,,32,0,3,,,,,2,,,,80,0
228674,note_on,,,,,0,0,3,,,,,2,,,,75,108
228674,note_on,,,,,32,0,3,,,,,2,,,,79,0
228710,set_tempo,,,,,115,1,0,,275229,,,,,,,,
228768,note_on,,,,,194,0,5,,,,,4,,,,77,45
228768,note_on,,,,,94,0,3,,,,,2,,,,75,0
228770,note_on,,,,,194,0,7,,,,,6,,,,68,45
228774,note_on,,,,,194,0,4,,,,,3,,,,58,92
228774,note_on,,,,,194,0,9,,,,,8,,,,34,68
228774,note_on,,,,,0,0,4,,,,,3,,,,68,92
228776,note_on,,,,,194,0,8,,,,,7,,,,46,68
228778,note_on,,,,,194,0,6,,,,,5,,,,74,45
228825,set_tempo,,,,,115,1,0,,276498,,,,,,,,
228862,note_on,,,,,94,0,5,,,,,4,,,,77,0
228864,note_on,,,,,94,0,7,,,,,6,,,,68,0
228866,note_on,,,,,98,0,3,,,,,2,,,,77,108
228868,note_on,,,,,94,0,4,,,,,3,,,,68,0
228868,note_on,,,,,0,0,4,,,,,3,,,,58,0
228868,note_on,,,,,94,0,9,,,,,8,,,,34,0
228870,note_on,,,,,94,0,8,,,,,7,,,,46,0
228872,note_on,,,,,94,0,6,,,,,5,,,,74,0
228898,note_on,,,,,0,0,3,,,,,2,,,,79,108
228898,note_on,,,,,32,0,3,,,,,2,,,,77,0
228930,note_on,,,,,0,0,3,,,,,2,,,,77,108
228930,note_on,,,,,32,0,3,,,,,2,,,,79,0
228940,set_tempo,,,,,115,1,0,,277778,,,,,,,,
228962,note_on,,,,,0,0,3,,,,,2,,,,74,108
228962,note_on,,,,,32,0,3,,,,,2,,,,77,0
229056,note_on,,,,,194,0,5,,,,,4,,,,75,60
229056,note_on,,,,,94,0,3,,,,,2,,,,74,0
229056,set_tempo,,,,,116,1,0,,279070,,,,,,,,
229058,note_on,,,,,194,0,7,,,,,6,,,,67,60
229058,note_on,,,,,2,0,3,,,,,2,,,,75,108
229062,note_on,,,,,194,0,4,,,,,3,,,,63,92
229062,note_on,,,,,0,0,4,,,,,3,,,,67,92
229062,note_on,,,,,194,0,9,,,,,8,,,,39,60
229063,note_on,,,,,13664,0,2,,,,,1,,,,51,60
229063,note_on,,,,,0,0,2,,,,,1,,,,63,60
229064,note_on,,,,,194,0,8,,,,,7,,,,51,60
229066,note_on,,,,,194,0,6,,,,,5,,,,75,60
229152,note_on,,,,,94,0,7,,,,,6,,,,67,0
229154,note_on,,,,,2,0,7,,,,,6,,,,63,60
229186,note_on,,,,,32,0,7,,,,,6,,,,63,0
229216,note_on,,,,,160,0,5,,,,,4,,,,75,0
229218,note_on,,,,,160,0,3,,,,,2,,,,75,0
229222,note_on,,,,,160,0,4,,,,,3,,,,67,0
229222,note_on,,,,,0,0,4,,,,,3,,,,63,0
229226,note_on,,,,,160,0,6,,,,,5,,,,75,0
229250,note_on,,,,,64,0,7,,,,,6,,,,63,60
229282,note_on,,,,,32,0,7,,,,,6,,,,63,0
229346,note_on,,,,,64,0,7,,,,,6,,,,63,60
229442,note_on,,,,,0,0,7,,,,,6,,,,65,60
229442,note_on,,,,,96,0,7,,,,,6,,,,63,0
229538,note_on,,,,,96,0,7,,,,,6,,,,65,0
229538,note_on,,,,,0,0,7,,,,,6,,,,60,60
229632,note_on,,,,,94,0,7,,,,,6,,,,60,0
229634,note_on,,,,,2,0,7,,,,,6,,,,61,60
229738,note_on,,,,,512,0,6,,,,,5,,,,70,60
229770,note_on,,,,,32,0,6,,,,,5,,,,70,0
229834,note_on,,,,,64,0,6,,,,,5,,,,70,60
229866,note_on,,,,,32,0,6,,,,,5,,,,70,0
229930,note_on,,,,,64,0,6,,,,,5,,,,70,60
230026,note_on,,,,,96,0,6,,,,,5,,,,70,0
230026,note_on,,,,,0,0,6,,,,,5,,,,72,60
230122,note_on,,,,,96,0,6,,,,,5,,,,72,0
230122,note_on,,,,,0,0,6,,,,,5,,,,67,60
230162,note_on,,,,,528,0,7,,,,,6,,,,61,0
230210,note_on,,,,,48,0,7,,,,,6,,,,60,60
230216,note_on,,,,,94,0,6,,,,,5,,,,67,0
230218,note_on,,,,,2,0,6,,,,,5,,,,68,60
230304,note_on,,,,,1088,0,5,,,,,4,,,,75,60
230336,note_on,,,,,32,0,5,,,,,4,,,,75,0
230400,note_on,,,,,64,0,5,,,,,4,,,,75,60
230432,note_on,,,,,32,0,5,,,,,4,,,,75,0
230496,note_on,,,,,64,0,5,,,,,4,,,,75,60
230592,note_on,,,,,0,0,5,,,,,4,,,,77,60
230592,note_on,,,,,96,0,5,,,,,4,,,,75,0
230688,note_on,,,,,96,0,5,,,,,4,,,,77,0
230688,note_on,,,,,0,0,5,,,,,4,,,,72,60
230762,note_on,,,,,1544,0,3,,,,,2,,,,77,108
230782,note_on,,,,,94,0,5,,,,,4,,,,72,0
230784,note_on,,,,,2,0,5,,,,,4,,,,74,60
230786,note_on,,,,,0,0,7,,,,,6,,,,58,60
230786,note_on,,,,,24,0,3,,,,,2,,,,77,0
230786,note_on,,,,,0,0,3,,,,,2,,,,89,108
230786,note_on,,,,,576,0,7,,,,,6,,,,60,0
230790,note_on,,,,,0,0,4,,,,,3,,,,68,92
230790,note_on,,,,,0,0,4,,,,,3,,,,62,92
230790,note_on,,,,,1568,0,4,,,,,3,,,,58,92
230930,note_on,,,,,144,0,3,,,,,2,,,,89,0
230930,note_on,,,,,0,0,3,,,,,2,,,,87,108
230978,note_on,,,,,0,0,3,,,,,2,,,,86,108
230978,note_on,,,,,48,0,3,,,,,2,,,,87,0
231026,note_on,,,,,48,0,3,,,,,2,,,,86,0
231026,note_on,,,,,0,0,3,,,,,2,,,,84,108
231074,note_on,,,,,48,0,3,,,,,2,,,,84,0
231074,note_on,,,,,0,0,3,,,,,2,,,,82,108
231106,note_on,,,,,32,0,3,,,,,2,,,,82,0
231170,note_on,,,,,64,0,3,,,,,2,,,,84,108
231202,note_on,,,,,32,0,3,,,,,2,,,,84,0
231266,note_on,,,,,64,0,3,,,,,2,,,,86,108
231298,note_on,,,,,32,0,3,,,,,2,,,,86,0
231312,note_on,,,,,528,0,5,,,,,4,,,,74,0
231314,note_on,,,,,528,0,7,,,,,6,,,,58,0
231318,note_on,,,,,528,0,4,,,,,3,,,,68,0
231318,note_on,,,,,2256,0,9,,,,,8,,,,39,0
231318,note_on,,,,,0,0,4,,,,,3,,,,62,0
231318,note_on,,,,,0,0,4,,,,,3,,,,58,0
231319,note_on,,,,,0,0,2,,,,,1,,,,51,0
231319,note_on,,,,,2256,0,2,,,,,1,,,,63,0
231320,note_on,,,,,2256,0,8,,,,,7,,,,51,0
231322,note_on,,,,,1104,0,6,,,,,5,,,,68,0
231360,note_on,,,,,48,0,5,,,,,4,,,,75,60
231362,note_on,,,,,64,0,3,,,,,2,,,,87,108
231366,note_on,,,,,48,0,4,,,,,3,,,,58,92
231366,note_on,,,,,48,0,9,,,,,8,,,,27,60
231366,note_on,,,,,0,0,4,,,,,3,,,,67,92
231366,note_on,,,,,0,0,4,,,,,3,,,,63,92
231367,note_on,,,,,48,0,2,,,,,1,,,,27,60
231367,note_on,,,,,0,0,2,,,,,1,,,,39,60
231368,note_on,,,,,48,0,8,,,,,7,,,,39,60
231370,note_on,,,,,48,0,6,,,,,5,,,,67,60
231458,note_on,,,,,144,0,7,,,,,6,,,,63,60
231490,note_on,,,,,32,0,7,,,,,6,,,,63,0
231520,note_on,,,,,160,0,5,,,,,4,,,,75,0
231522,note_on,,,,,160,0,3,,,,,2,,,,87,0
231526,note_on,,,,,0,0,4,,,,,3,,,,58,0
231526,note_on,,,,,0,0,4,,,,,3,,,,63,0
231526,note_on,,,,,160,0,4,,,,,3,,,,67,0
231530,note_on,,,,,160,0,6,,,,,5,,,,67,0
231554,note_on,,,,,64,0,7,,,,,6,,,,63,60
231586,note_on,,,,,32,0,7,,,,,6,,,,63,0
231650,note_on,,,,,64,0,7,,,,,6,,,,63,60
231746,note_on,,,,,0,0,7,,,,,6,,,,65,60
231746,note_on,,,,,96,0,7,,,,,6,,,,63,0
231842,note_on,,,,,0,0,7,,,,,6,,,,63,60
231842,note_on,,,,,96,0,7,,,,,6,,,,65,0
231936,note_on,,,,,94,0,7,,,,,6,,,,63,0
231938,note_on,,,,,2,0,7,,,,,6,,,,62,60
232042,note_on,,,,,512,0,6,,,,,5,,,,70,60
232074,note_on,,,,,32,0,6,,,,,5,,,,70,0
232138,note_on,,,,,64,0,6,,,,,5,,,,70,60
232170,note_on,,,,,32,0,6,,,,,5,,,,70,0
232226,note_on,,,,,288,0,7,,,,,6,,,,62,0
232226,note_on,,,,,0,0,7,,,,,6,,,,61,60
232234,note_on,,,,,64,0,6,,,,,5,,,,70,60
232330,note_on,,,,,96,0,6,,,,,5,,,,70,0
232330,note_on,,,,,0,0,6,,,,,5,,,,72,60
232426,note_on,,,,,96,0,6,,,,,5,,,,72,0
232426,note_on,,,,,0,0,6,,,,,5,,,,70,60
232482,note_on,,,,,256,0,7,,,,,6,,,,61,0
232514,note_on,,,,,32,0,7,,,,,6,,,,60,60
232520,note_on,,,,,94,0,6,,,,,5,,,,70,0
232522,note_on,,,,,2,0,6,,,,,5,,,,69,60
232608,note_on,,,,,1088,0,5,,,,,4,,,,75,60
232640,note_on,,,,,32,0,5,,,,,4,,,,75,0
232704,note_on,,,,,64,0,5,,,,,4,,,,75,60
232736,note_on,,,,,32,0,5,,,,,4,,,,75,0
232778,note_on,,,,,256,0,6,,,,,5,,,,69,0
232800,note_on,,,,,64,0,5,,,,,4,,,,75,60
232802,note_on,,,,,0,0,7,,,,,6,,,,59,60
232802,note_on,,,,,288,0,7,,,,,6,,,,60,0
232810,note_on,,,,,32,0,6,,,,,5,,,,68,60
232896,note_on,,,,,96,0,5,,,,,4,,,,75,0
232896,note_on,,,,,0,0,5,,,,,4,,,,77,60
232992,note_on,,,,,0,0,5,,,,,4,,,,75,60
232992,note_on,,,,,96,0,5,,,,,4,,,,77,0
233058,note_on,,,,,256,0,7,,,,,6,,,,59,0
233086,note_on,,,,,94,0,5,,,,,4,,,,75,0
233088,note_on,,,,,2,0,5,,,,,4,,,,74,60
233090,note_on,,,,,32,0,7,,,,,6,,,,58,60
233090,note_on,,,,,1568,0,3,,,,,2,,,,77,108
233094,note_on,,,,,0,0,4,,,,,3,,,,62,92
233094,note_on,,,,,1568,0,4,,,,,3,,,,58,92
233094,note_on,,,,,0,0,4,,,,,3,,,,68,92
233234,note_on,,,,,0,0,3,,,,,2,,,,75,108
233234,note_on,,,,,144,0,3,,,,,2,,,,77,0
233250,note_on,,,,,160,0,7,,,,,6,,,,58,0
233282,note_on,,,,,0,0,3,,,,,2,,,,74,108
233282,note_on,,,,,48,0,3,,,,,2,,,,75,0
233282,note_on,,,,,32,0,7,,,,,6,,,,60,60
233330,note_on,,,,,0,0,3,,,,,2,,,,72,108
233330,note_on,,,,,48,0,3,,,,,2,,,,74,0
233354,note_on,,,,,544,0,6,,,,,5,,,,68,0
233376,note_on,,,,,94,0,7,,,,,6,,,,60,0
233378,note_on,,,,,0,0,3,,,,,2,,,,70,108
233378,note_on,,,,,48,0,3,,,,,2,,,,72,0
233378,note_on,,,,,2,0,7,,,,,6,,,,62,60
233386,note_on,,,,,32,0,6,,,,,5,,,,68,60
233410,note_on,,,,,32,0,3,,,,,2,,,,70,0
233472,note_on,,,,,94,0,7,,,,,6,,,,62,0
233474,note_on,,,,,64,0,3,,,,,2,,,,72,108
233474,note_on,,,,,2,0,7,,,,,6,,,,63,60
233506,note_on,,,,,32,0,3,,,,,2,,,,72,0
233568,note_on,,,,,94,0,7,,,,,6,,,,63,0
233570,note_on,,,,,2,0,7,,,,,6,,,,65,60
233570,note_on,,,,,64,0,3,,,,,2,,,,74,108
233602,note_on,,,,,32,0,3,,,,,2,,,,74,0
233616,note_on,,,,,528,0,5,,,,,4,,,,74,0
233622,note_on,,,,,0,0,4,,,,,3,,,,58,0
233622,note_on,,,,,528,0,4,,,,,3,,,,68,0
233622,note_on,,,,,0,0,4,,,,,3,,,,62,0
233622,note_on,,,,,2256,0,9,,,,,8,,,,27,0
233624,note_on,,,,,2256,0,8,,,,,7,,,,39,0
233642,note_on,,,,,256,0,6,,,,,5,,,,68,0
233664,note_on,,,,,94,0,7,,,,,6,,,,65,0
233664,note_on,,,,,48,0,5,,,,,4,,,,75,53
233666,note_on,,,,,2,0,7,,,,,6,,,,63,53
233666,note_on,,,,,64,0,3,,,,,2,,,,75,108
233668,note_on,,,,,0,0,1,,,,,0,,,,82,60
233668,note_on,,,,,18272,0,1,,,,,0,,,,70,60
233670,note_on,,,,,48,0,9,,,,,8,,,,39,53
233670,note_on,,,,,48,0,4,,,,,3,,,,63,92
233670,note_on,,,,,0,0,4,,,,,3,,,,67,92
233672,note_on,,,,,48,0,8,,,,,7,,,,51,53
233674,note_on,,,,,32,0,6,,,,,5,,,,67,53
233698,note_on,,,,,32,0,3,,,,,2,,,,75,0
233758,note_on,,,,,94,0,5,,,,,4,,,,75,0
233760,note_on,,,,,94,0,7,,,,,6,,,,63,0
233760,note_on,,,,,2,0,5,,,,,4,,,,67,53
233760,note_on,,,,,0,0,5,,,,,4,,,,70,53
233762,note_on,,,,,64,0,3,,,,,2,,,,79,108
233762,note_on,,,,,2,0,7,,,,,6,,,,58,53
233764,note_on,,,,,94,0,9,,,,,8,,,,39,0
233765,note_on,,,,,0,0,2,,,,,1,,,,27,0
233765,note_on,,,,,2398,0,2,,,,,1,,,,39,0
233766,note_on,,,,,94,0,8,,,,,7,,,,51,0
233768,note_on,,,,,94,0,6,,,,,5,,,,67,0
233770,note_on,,,,,2,0,6,,,,,5,,,,63,53
233794,note_on,,,,,32,0,3,,,,,2,,,,79,0
233830,note_on,,,,,0,0,4,,,,,3,,,,63,0
233830,note_on,,,,,160,0,4,,,,,3,,,,67,0
233854,note_on,,,,,94,0,5,,,,,4,,,,70,0
233854,note_on,,,,,0,0,5,,,,,4,,,,67,0
233856,note_on,,,,,94,0,7,,,,,6,,,,58,0
233856,note_on,,,,,2,0,5,,,,,4,,,,67,53
233856,note_on,,,,,0,0,5,,,,,4,,,,70,53
233858,note_on,,,,,2,0,7,,,,,6,,,,58,53
233858,note_on,,,,,64,0,3,,,,,2,,,,75,108
233864,note_on,,,,,94,0,6,,,,,5,,,,63,0
233866,note_on,,,,,2,0,6,,,,,5,,,,63,53
233890,note_on,,,,,32,0,3,,,,,2,,,,75,0
233950,note_on,,,,,0,0,5,,,,,4,,,,67,0
233950,note_on,,,,,94,0,5,,,,,4,,,,70,0
233952,note_on,,,,,2,0,5,,,,,4,,,,67,53
233952,note_on,,,,,0,0,5,,,,,4,,,,70,53
233952,note_on,,,,,94,0,7,,,,,6,,,,58,0
233954,note_on,,,,,2,0,7,,,,,6,,,,58,53
233954,note_on,,,,,64,0,3,,,,,2,,,,82,108
233960,note_on,,,,,94,0,6,,,,,5,,,,63,0
233962,note_on,,,,,2,0,6,,,,,5,,,,63,53
234046,note_on,,,,,0,0,5,,,,,4,,,,67,0
234046,note_on,,,,,94,0,5,,,,,4,,,,70,0
234048,note_on,,,,,94,0,7,,,,,6,,,,58,0
234048,note_on,,,,,2,0,5,,,,,4,,,,67,53
234048,note_on,,,,,0,0,5,,,,,4,,,,70,53
234048,note_on,,,,,94,0,3,,,,,2,,,,82,0
234050,note_on,,,,,2,0,7,,,,,6,,,,58,53
234056,note_on,,,,,94,0,6,,,,,5,,,,63,0
234058,note_on,,,,,2,0,6,,,,,5,,,,63,53
234142,note_on,,,,,94,0,5,,,,,4,,,,70,0
234142,note_on,,,,,0,0,5,,,,,4,,,,67,0
234144,note_on,,,,,94,0,7,,,,,6,,,,58,0
234144,note_on,,,,,0,0,5,,,,,4,,,,70,53
234144,note_on,,,,,2,0,5,,,,,4,,,,67,53
234146,note_on,,,,,2,0,7,,,,,6,,,,58,53
234152,note_on,,,,,94,0,6,,,,,5,,,,63,0
234154,note_on,,,,,2,0,6,,,,,5,,,,63,53
234218,note_on,,,,,170,0,3,,,,,2,,,,65,108
234238,note_on,,,,,0,0,5,,,,,4,,,,67,0
234238,note_on,,,,,94,0,5,,,,,4,,,,70,0
234240,note_on,,,,,2,0,5,,,,,4,,,,68,53
234240,note_on,,,,,0,0,5,,,,,4,,,,70,53
234240,note_on,,,,,94,0,7,,,,,6,,,,58,0
234242,note_on,,,,,2,0,7,,,,,6,,,,58,53
234242,note_on,,,,,24,0,3,,,,,2,,,,65,0
234242,note_on,,,,,0,0,3,,,,,2,,,,77,108
234246,note_on,,,,,0,0,4,,,,,3,,,,56,92
234246,note_on,,,,,482,0,9,,,,,8,,,,46,53
234246,note_on,,,,,416,0,4,,,,,3,,,,46,92
234246,note_on,,,,,0,0,4,,,,,3,,,,50,92
234248,note_on,,,,,94,0,6,,,,,5,,,,63,0
234248,note_on,,,,,482,0,8,,,,,7,,,,58,53
234250,note_on,,,,,2,0,6,,,,,5,,,,62,53
234250,note_on,,,,,0,0,6,,,,,5,,,,65,53
234334,note_on,,,,,0,0,5,,,,,4,,,,68,0
234334,note_on,,,,,94,0,5,,,,,4,,,,70,0
234336,note_on,,,,,0,0,5,,,,,4,,,,70,53
234336,note_on,,,,,2,0,5,,,,,4,,,,68,53
234336,note_on,,,,,94,0,7,,,,,6,,,,58,0
234338,note_on,,,,,2,0,7,,,,,6,,,,58,53
234340,note_on,,,,,94,0,9,,,,,8,,,,46,0
234340,note_on,,,,,0,0,4,,,,,3,,,,50,0
234340,note_on,,,,,94,0,4,,,,,3,,,,56,0
234340,note_on,,,,,0,0,4,,,,,3,,,,46,0
234342,note_on,,,,,94,0,8,,,,,7,,,,58,0
234344,note_on,,,,,0,0,6,,,,,5,,,,62,0
234344,note_on,,,,,94,0,6,,,,,5,,,,65,0
234346,note_on,,,,,0,0,6,,,,,5,,,,65,53
234346,note_on,,,,,2,0,6,,,,,5,,,,62,53
234386,note_on,,,,,144,0,3,,,,,2,,,,77,0
234386,note_on,,,,,0,0,3,,,,,2,,,,75,108
234430,note_on,,,,,94,0,5,,,,,4,,,,70,0
234430,note_on,,,,,0,0,5,,,,,4,,,,68,0
234432,note_on,,,,,2,0,5,,,,,4,,,,68,53
234432,note_on,,,,,0,0,5,,,,,4,,,,70,53
234432,note_on,,,,,94,0,7,,,,,6,,,,58,0
234434,note_on,,,,,48,0,3,,,,,2,,,,75,0
234434,note_on,,,,,0,0,3,,,,,2,,,,74,108
234434,note_on,,,,,2,0,7,,,,,6,,,,58,53
234440,note_on,,,,,94,0,6,,,,,5,,,,65,0
234440,note_on,,,,,0,0,6,,,,,5,,,,62,0
234442,note_on,,,,,0,0,6,,,,,5,,,,65,53
234442,note_on,,,,,2,0,6,,,,,5,,,,62,53
234482,note_on,,,,,0,0,3,,,,,2,,,,72,108
234482,note_on,,,,,48,0,3,,,,,2,,,,74,0
234526,note_on,,,,,94,0,5,,,,,4,,,,70,0
234526,note_on,,,,,0,0,5,,,,,4,,,,68,0
234528,note_on,,,,,0,0,5,,,,,4,,,,70,53
234528,note_on,,,,,2,0,5,,,,,4,,,,68,53
234528,note_on,,,,,94,0,7,,,,,6,,,,58,0
234530,note_on,,,,,48,0,3,,,,,2,,,,72,0
234530,note_on,,,,,0,0,3,,,,,2,,,,69,108
234530,note_on,,,,,2,0,7,,,,,6,,,,58,53
234536,note_on,,,,,0,0,6,,,,,5,,,,62,0
234536,note_on,,,,,94,0,6,,,,,5,,,,65,0
234538,note_on,,,,,0,0,6,,,,,5,,,,65,53
234538,note_on,,,,,2,0,6,,,,,5,,,,62,53
234578,note_on,,,,,48,0,3,,,,,2,,,,69,0
234578,note_on,,,,,0,0,3,,,,,2,,,,70,108
234622,note_on,,,,,94,0,5,,,,,4,,,,70,0
234622,note_on,,,,,0,0,5,,,,,4,,,,68,0
234624,note_on,,,,,2,0,5,,,,,4,,,,68,53
234624,note_on,,,,,0,0,5,,,,,4,,,,70,53
234624,note_on,,,,,94,0,7,,,,,6,,,,58,0
234626,note_on,,,,,48,0,3,,,,,2,,,,70,0
234626,note_on,,,,,0,0,3,,,,,2,,,,71,108
234626,note_on,,,,,2,0,7,,,,,6,,,,58,53
234632,note_on,,,,,94,0,6,,,,,5,,,,65,0
234632,note_on,,,,,0,0,6,,,,,5,,,,62,0
234634,note_on,,,,,2,0,6,,,,,5,,,,62,53
234634,note_on,,,,,0,0,6,,,,,5,,,,65,53
234674,note_on,,,,,48,0,3,,,,,2,,,,71,0
234674,note_on,,,,,0,0,3,,,,,2,,,,72,108
234718,note_on,,,,,0,0,5,,,,,4,,,,68,0
234718,note_on,,,,,94,0,5,,,,,4,,,,70,0
234720,note_on,,,,,94,0,7,,,,,6,,,,58,0
234720,note_on,,,,,0,0,5,,,,,4,,,,70,53
234720,note_on,,,,,2,0,5,,,,,4,,,,68,53
234722,note_on,,,,,0,0,3,,,,,2,,,,73,108
234722,note_on,,,,,48,0,3,,,,,2,,,,72,0
234722,note_on,,,,,2,0,7,,,,,6,,,,58,53
234728,note_on,,,,,0,0,6,,,,,5,,,,62,0
234728,note_on,,,,,94,0,6,,,,,5,,,,65,0
234730,note_on,,,,,0,0,6,,,,,5,,,,65,53
234730,note_on,,,,,2,0,6,,,,,5,,,,62,53
234770,note_on,,,,,0,0,3,,,,,2,,,,74,108
234770,note_on,,,,,48,0,3,,,,,2,,,,73,0
234814,note_on,,,,,94,0,5,,,,,4,,,,70,0
234814,note_on,,,,,0,0,5,,,,,4,,,,68,0
234816,note_on,,,,,94,0,7,,,,,6,,,,58,0
234816,note_on,,,,,2,0,5,,,,,4,,,,67,53
234816,note_on,,,,,0,0,5,,,,,4,,,,70,53
234818,note_on,,,,,2,0,7,,,,,6,,,,58,53
234818,note_on,,,,,48,0,3,,,,,2,,,,74,0
234818,note_on,,,,,0,0,3,,,,,2,,,,75,108
234822,note_on,,,,,482,0,9,,,,,8,,,,39,53
234822,note_on,,,,,0,0,4,,,,,3,,,,55,92
234822,note_on,,,,,482,0,4,,,,,3,,,,51,92
234824,note_on,,,,,94,0,6,,,,,5,,,,65,0
234824,note_on,,,,,0,0,6,,,,,5,,,,62,0
234824,note_on,,,,,482,0,8,,,,,7,,,,51,53
234826,note_on,,,,,2,0,6,,,,,5,,,,63,53
234866,note_on,,,,,48,0,3,,,,,2,,,,75,0
234866,note_on,,,,,0,0,3,,,,,2,,,,77,108
234910,note_on,,,,,94,0,5,,,,,4,,,,70,0
234910,note_on,,,,,0,0,5,,,,,4,,,,67,0
234912,note_on,,,,,2,0,5,,,,,4,,,,67,53
234912,note_on,,,,,94,0,7,,,,,6,,,,58,0
234912,note_on,,,,,0,0,5,,,,,4,,,,70,53
234914,note_on,,,,,0,0,3,,,,,2,,,,78,108
234914,note_on,,,,,2,0,7,,,,,6,,,,58,53
234914,note_on,,,,,48,0,3,,,,,2,,,,77,0
234916,note_on,,,,,94,0,4,,,,,3,,,,55,0
234916,note_on,,,,,94,0,9,,,,,8,,,,39,0
234916,note_on,,,,,0,0,4,,,,,3,,,,51,0
234918,note_on,,,,,94,0,8,,,,,7,,,,51,0
234920,note_on,,,,,94,0,6,,,,,5,,,,63,0
234922,note_on,,,,,2,0,6,,,,,5,,,,63,53
234962,note_on,,,,,48,0,3,,,,,2,,,,78,0
234962,note_on,,,,,0,0,3,,,,,2,,,,79,108
235006,note_on,,,,,94,0,5,,,,,4,,,,70,0
235006,note_on,,,,,0,0,5,,,,,4,,,,67,0
235008,note_on,,,,,2,0,5,,,,,4,,,,67,53
235008,note_on,,,,,0,0,5,,,,,4,,,,70,53
235008,note_on,,,,,94,0,7,,,,,6,,,,58,0
235010,note_on,,,,,48,0,3,,,,,2,,,,79,0
235010,note_on,,,,,0,0,3,,,,,2,,,,80,108
235010,note_on,,,,,2,0,7,,,,,6,,,,58,53
235016,note_on,,,,,94,0,6,,,,,5,,,,63,0
235018,note_on,,,,,2,0,6,,,,,5,,,,63,53
235058,note_on,,,,,0,0,3,,,,,2,,,,81,108
235058,note_on,,,,,48,0,3,,,,,2,,,,80,0
235102,note_on,,,,,0,0,5,,,,,4,,,,67,0
235102,note_on,,,,,94,0,5,,,,,4,,,,70,0
235104,note_on,,,,,0,0,5,,,,,4,,,,70,53
235104,note_on,,,,,2,0,5,,,,,4,,,,67,53
235104,note_on,,,,,94,0,7,,,,,6,,,,58,0
235106,note_on,,,,,2,0,7,,,,,6,,,,58,53
235106,note_on,,,,,0,0,3,,,,,2,,,,82,108
235106,note_on,,,,,48,0,3,,,,,2,,,,81,0
235112,note_on,,,,,94,0,6,,,,,5,,,,63,0
235114,note_on,,,,,2,0,6,,,,,5,,,,63,53
235198,note_on,,,,,94,0,5,,,,,4,,,,70,0
235198,note_on,,,,,0,0,5,,,,,4,,,,67,0
235200,note_on,,,,,0,0,5,,,,,4,,,,70,53
235200,note_on,,,,,94,0,7,,,,,6,,,,58,0
235200,note_on,,,,,94,0,3,,,,,2,,,,82,0
235200,note_on,,,,,2,0,5,,,,,4,,,,67,53
235202,note_on,,,,,2,0,7,,,,,6,,,,58,53
235208,note_on,,,,,94,0,6,,,,,5,,,,63,0
235210,note_on,,,,,2,0,6,,,,,5,,,,63,53
235294,note_on,,,,,94,0,5,,,,,4,,,,70,0
235294,note_on,,,,,0,0,5,,,,,4,,,,67,0
235296,note_on,,,,,2,0,5,,,,,4,,,,67,53
235296,note_on,,,,,0,0,5,,,,,4,,,,70,53
235296,note_on,,,,,94,0,7,,,,,6,,,,58,0
235298,note_on,,,,,2,0,7,,,,,6,,,,58,53
235304,note_on,,,,,94,0,6,,,,,5,,,,63,0
235306,note_on,,,,,2,0,6,,,,,5,,,,63,53
235370,note_on,,,,,170,0,3,,,,,2,,,,77,108
235390,note_on,,,,,94,0,5,,,,,4,,,,70,0
235390,note_on,,,,,0,0,5,,,,,4,,,,67,0
235392,note_on,,,,,94,0,7,,,,,6,,,,58,0
235392,note_on,,,,,2,0,5,,,,,4,,,,68,53
235392,note_on,,,,,0,0,5,,,,,4,,,,70,53
235394,note_on,,,,,2,0,7,,,,,6,,,,58,53
235394,note_on,,,,,0,0,3,,,,,2,,,,89,108
235394,note_on,,,,,24,0,3,,,,,2,,,,77,0
235398,note_on,,,,,0,0,4,,,,,3,,,,62,92
235398,note_on,,,,,482,0,4,,,,,3,,,,58,92
235398,note_on,,,,,482,0,9,,,,,8,,,,34,53
235398,note_on,,,,,0,0,4,,,,,3,,,,68,92
235400,note_on,,,,,94,0,6,,,,,5,,,,63,0
235400,note_on,,,,,482,0,8,,,,,7,,,,46,53
235402,note_on,,,,,2,0,6,,,,,5,,,,62,53
235402,note_on,,,,,0,0,6,,,,,5,,,,65,53
235486,note_on,,,,,94,0,5,,,,,4,,,,70,0
235486,note_on,,,,,0,0,5,,,,,4,,,,68,0
235488,note_on,,,,,2,0,5,,,,,4,,,,68,53
235488,note_on,,,,,94,0,7,,,,,6,,,,58,0
235488,note_on,,,,,0,0,5,,,,,4,,,,70,53
235490,note_on,,,,,2,0,7,,,,,6,,,,58,53
235492,note_on,,,,,0,0,4,,,,,3,,,,62,0
235492,note_on,,,,,0,0,4,,,,,3,,,,58,0
235492,note_on,,,,,94,0,9,,,,,8,,,,34,0
235492,note_on,,,,,94,0,4,,,,,3,,,,68,0
235494,note_on,,,,,94,0,8,,,,,7,,,,46,0
235496,note_on,,,,,94,0,6,,,,,5,,,,65,0
235496,note_on,,,,,0,0,6,,,,,5,,,,62,0
235498,note_on,,,,,2,0,6,,,,,5,,,,62,53
235498,note_on,,,,,0,0,6,,,,,5,,,,65,53
235538,note_on,,,,,0,0,3,,,,,2,,,,87,108
235538,note_on,,,,,144,0,3,,,,,2,,,,89,0
235582,note_on,,,,,0,0,5,,,,,4,,,,68,0
235582,note_on,,,,,94,0,5,,,,,4,,,,70,0
235584,note_on,,,,,0,0,5,,,,,4,,,,70,53
235584,note_on,,,,,2,0,5,,,,,4,,,,68,53
235584,note_on,,,,,94,0,7,,,,,6,,,,58,0
235586,note_on,,,,,2,0,7,,,,,6,,,,58,53
235586,note_on,,,,,48,0,3,,,,,2,,,,87,0
235586,note_on,,,,,0,0,3,,,,,2,,,,86,108
235592,note_on,,,,,94,0,6,,,,,5,,,,65,0
235592,note_on,,,,,0,0,6,,,,,5,,,,62,0
235594,note_on,,,,,0,0,6,,,,,5,,,,65,53
235594,note_on,,,,,2,0,6,,,,,5,,,,62,53
235634,note_on,,,,,48,0,3,,,,,2,,,,86,0
235634,note_on,,,,,0,0,3,,,,,2,,,,84,108
235678,note_on,,,,,94,0,5,,,,,4,,,,70,0
235678,note_on,,,,,0,0,5,,,,,4,,,,68,0
235680,note_on,,,,,2,0,5,,,,,4,,,,68,53
235680,note_on,,,,,0,0,5,,,,,4,,,,70,53
235680,note_on,,,,,94,0,7,,,,,6,,,,58,0
235682,note_on,,,,,2,0,7,,,,,6,,,,58,53
235682,note_on,,,,,48,0,3,,,,,2,,,,84,0
235682,note_on,,,,,0,0,3,,,,,2,,,,81,108
235688,note_on,,,,,0,0,6,,,,,5,,,,62,0
235688,note_on,,,,,94,0,6,,,,,5,,,,65,0
235690,note_on,,,,,0,0,6,,,,,5,,,,65,53
235690,note_on,,,,,2,0,6,,,,,5,,,,62,53
235730,note_on,,,,,48,0,3,,,,,2,,,,81,0
235730,note_on,,,,,0,0,3,,,,,2,,,,82,108
235774,note_on,,,,,0,0,5,,,,,4,,,,68,0
235774,note_on,,,,,94,0,5,,,,,4,,,,70,0
235776,note_on,,,,,0,0,5,,,,,4,,,,70,53
235776,note_on,,,,,94,0,7,,,,,6,,,,58,0
235776,note_on,,,,,2,0,5,,,,,4,,,,68,53
235778,note_on,,,,,48,0,3,,,,,2,,,,82,0
235778,note_on,,,,,2,0,7,,,,,6,,,,58,53
235778,note_on,,,,,0,0,3,,,,,2,,,,83,108
235784,note_on,,,,,94,0,6,,,,,5,,,,65,0
235784,note_on,,,,,0,0,6,,,,,5,,,,62,0
235786,note_on,,,,,2,0,6,,,,,5,,,,62,53
235786,note_on,,,,,0,0,6,,,,,5,,,,65,53
235826,note_on,,,,,48,0,3,,,,,2,,,,83,0
235826,note_on,,,,,0,0,3,,,,,2,,,,84,108
235870,note_on,,,,,94,0,5,,,,,4,,,,70,0
235870,note_on,,,,,0,0,5,,,,,4,,,,68,0
235872,note_on,,,,,2,0,5,,,,,4,,,,68,53
235872,note_on,,,,,0,0,5,,,,,4,,,,70,53
235872,note_on,,,,,94,0,7,,,,,6,,,,58,0
235874,note_on,,,,,0,0,3,,,,,2,,,,85,108
235874,note_on,,,,,2,0,7,,,,,6,,,,58,53
235874,note_on,,,,,48,0,3,,,,,2,,,,84,0
235880,note_on,,,,,94,0,6,,,,,5,,,,65,0
235880,note_on,,,,,0,0,6,,,,,5,,,,62,0
235882,note_on,,,,,0,0,6,,,,,5,,,,65,53
235882,note_on,,,,,2,0,6,,,,,5,,,,62,53
235922,note_on,,,,,0,0,3,,,,,2,,,,86,108
235922,note_on,,,,,48,0,3,,,,,2,,,,85,0
235966,note_on,,,,,0,0,5,,,,,4,,,,68,0
235966,note_on,,,,,94,0,5,,,,,4,,,,70,0
235968,note_on,,,,,0,0,5,,,,,4,,,,70,53
235968,note_on,,,,,2,0,5,,,,,4,,,,67,53
235968,note_on,,,,,94,0,7,,,,,6,,,,58,0
235970,note_on,,,,,48,0,3,,,,,2,,,,86,0
235970,note_on,,,,,2,0,7,,,,,6,,,,58,53
235970,note_on,,,,,0,0,3,,,,,2,,,,87,108
235974,note_on,,,,,0,0,4,,,,,3,,,,67,92
235974,note_on,,,,,482,0,9,,,,,8,,,,27,53
235974,note_on,,,,,482,0,4,,,,,3,,,,63,92
235976,note_on,,,,,94,0,6,,,,,5,,,,65,0
235976,note_on,,,,,0,0,6,,,,,5,,,,62,0
235976,note_on,,,,,482,0,8,,,,,7,,,,39,53
235978,note_on,,,,,2,0,6,,,,,5,,,,63,53
236062,note_on,,,,,94,0,5,,,,,4,,,,70,0
236062,note_on,,,,,0,0,5,,,,,4,,,,67,0
236064,note_on,,,,,94,0,3,,,,,2,,,,87,0
236064,note_on,,,,,94,0,7,,,,,6,,,,58,0
236066,note_on,,,,,0,0,1,,,,,0,,,,70,0
236066,note_on,,,,,2398,0,1,,,,,0,,,,82,0
236068,note_on,,,,,0,0,4,,,,,3,,,,63,0
236068,note_on,,,,,94,0,9,,,,,8,,,,27,0
236068,note_on,,,,,94,0,4,,,,,3,,,,67,0
236070,note_on,,,,,94,0,8,,,,,7,,,,39,0
236072,note_on,,,,,94,0,6,,,,,5,,,,63,0
236258,note_on,,,,,0,0,3,,,,,2,,,,82,108
236258,note_on,,,,,194,0,3,,,,,2,,,,79,108
236262,note_on,,,,,0,0,4,,,,,3,,,,70,92
236262,note_on,,,,,194,0,4,,,,,3,,,,67,92
236352,note_on,,,,,94,0,3,,,,,2,,,,82,0
236352,note_on,,,,,0,0,3,,,,,2,,,,79,0
236356,note_on,,,,,0,0,4,,,,,3,,,,67,0
236356,note_on,,,,,94,0,4,,,,,3,,,,70,0
236546,note_on,,,,,194,0,3,,,,,2,,,,75,108
236546,note_on,,,,,0,0,3,,,,,2,,,,79,108
236550,note_on,,,,,194,0,4,,,,,3,,,,63,92
236550,note_on,,,,,0,0,4,,,,,3,,,,67,92
236640,note_on,,,,,94,0,3,,,,,2,,,,79,0
236640,note_on,,,,,0,0,3,,,,,2,,,,75,0
236640,end_of_track,,,,,0,1,3,,,,,,,,,,
236644,note_on,,,,,0,0,4,,,,,3,,,,63,0
236644,note_on,,,,,94,0,4,,,,,3,,,,67,0
236832,note_on,,,,,0,0,5,,,,,4,,,,70,92
236832,note_on,,,,,0,0,5,,,,,4,,,,79,92
236832,note_on,,,,,770,0,5,,,,,4,,,,63,92
236834,note_on,,,,,770,0,7,,,,,6,,,,63,92
236836,note_on,,,,,0,0,1,,,,,0,,,,79,92
236836,note_on,,,,,770,0,1,,,,,0,,,,70,92
236838,note_on,,,,,0,0,4,,,,,3,,,,63,92
236838,note_on,,,,,770,0,9,,,,,8,,,,39,92
236838,note_on,,,,,194,0,4,,,,,3,,,,51,92
236839,note_on,,,,,3074,0,2,,,,,1,,,,51,92
236839,note_on,,,,,0,0,2,,,,,1,,,,63,92
236840,note_on,,,,,770,0,8,,,,,7,,,,51,92
236842,note_on,,,,,770,0,6,,,,,5,,,,63,92
236842,note_on,,,,,0,0,6,,,,,5,,,,70,92
236842,note_on,,,,,0,0,6,,,,,5,,,,79,92
236926,note_on,,,,,94,0,5,,,,,4,,,,79,0
236926,note_on,,,,,0,0,5,,,,,4,,,,70,0
236926,note_on,,,,,0,0,5,,,,,4,,,,63,0
236928,note_on,,,,,94,0,7,,,,,6,,,,63,0
236930,note_on,,,,,94,0,1,,,,,0,,,,79,0
236930,note_on,,,,,0,0,1,,,,,0,,,,70,0
236932,note_on,,,,,94,0,4,,,,,3,,,,63,0
236932,note_on,,,,,0,0,4,,,,,3,,,,51,0
236932,note_on,,,,,94,0,9,,,,,8,,,,39,0
236933,note_on,,,,,0,0,2,,,,,1,,,,51,0
236933,note_on,,,,,94,0,2,,,,,1,,,,63,0
236934,note_on,,,,,94,0,8,,,,,7,,,,51,0
236936,note_on,,,,,94,0,6,,,,,5,,,,79,0
236936,note_on,,,,,0,0,6,,,,,5,,,,70,0
236936,note_on,,,,,0,0,6,,,,,5,,,,63,0
237120,end_of_track,,,,,0,1,0,,,,,,,,,,
237120,set_tempo,,,,,8064,1,0,,500000,,,,,,,,
237120,note_on,,,,,0,0,5,,,,,4,,,,63,75
237120,note_on,,,,,194,0,5,,,,,4,,,,55,75
237122,note_on,,,,,194,0,7,,,,,6,,,,51,75
237124,note_on,,,,,0,0,1,,,,,0,,,,75,75
237124,note_on,,,,,194,0,1,,,,,0,,,,67,75
237126,note_on,,,,,194,0,9,,,,,8,,,,27,75
237126,note_on,,,,,0,0,4,,,,,3,,,,51,75
237126,note_on,,,,,194,0,4,,,,,3,,,,39,75
237127,note_on,,,,,0,0,2,,,,,1,,,,63,75
237127,note_on,,,,,194,0,2,,,,,1,,,,51,75
237128,note_on,,,,,194,0,8,,,,,7,,,,39,75
237130,note_on,,,,,194,0,6,,,,,5,,,,55,75
237130,note_on,,,,,0,0,6,,,,,5,,,,63,75
237376,note_on,,,,,256,0,5,,,,,4,,,,63,0
237376,end_of_track,,,,,0,1,5,,,,,,,,,,
237376,note_on,,,,,0,0,5,,,,,4,,,,55,0
237378,end_of_track,,,,,0,1,7,,,,,,,,,,
237378,note_on,,,,,256,0,7,,,,,6,,,,51,0
237380,note_on,,,,,256,0,1,,,,,0,,,,75,0
237380,end_of_track,,,,,0,1,1,,,,,,,,,,
237380,note_on,,,,,0,0,1,,,,,0,,,,67,0
237382,note_on,,,,,256,0,4,,,,,3,,,,51,0
237382,note_on,,,,,0,0,4,,,,,3,,,,39,0
237382,end_of_track,,,,,0,1,4,,,,,,,,,,
237383,note_on,,,,,0,0,2,,,,,1,,,,51,0
237383,note_on,,,,,256,0,2,,,,,1,,,,63,0
237383,end_of_track,,,,,0,1,2,,,,,,,,,,
237384,note_on,,,,,256,0,8,,,,,7,,,,39,0
237384,end_of_track,,,,,0,1,8,,,,,,,,,,
237386,note_on,,,,,256,0,6,,,,,5,,,,63,0
237386,note_on,,,,,0,0,6,,,,,5,,,,55,0
237386,end_of_track,,,,,0,1,6,,,,,,,,,,
237414,note_on,,,,,288,0,9,,,,,8,,,,27,0
237414,note_on,,,,,0,0,9,,,,,8,,,,27,10
237670,note_on,,,,,256,0,9,,,,,8,,,,27,0
237670,end_of_track,,,,,0,1,9,,,,,,,,,,
