tick,type,time,meta,track,numerator,denominator,clocks_per_click,notated_32nd_notes_per_beat,key,tempo,program,channel,control,value,note,velocity
0,track_name,0,1,0,,,,,,,,,,,,
0,control_change,0,0,2,,,,,,,,1,10,46,,
0,program_change,0,0,3,,,,,,,70,2,,,,
0,control_change,0,0,3,,,,,,,,2,7,95,,
0,control_change,0,0,3,,,,,,,,2,10,74,,
0,program_change,0,0,4,,,,,,,60,3,,,,
0,control_change,0,0,4,,,,,,,,3,7,111,,
0,control_change,0,0,4,,,,,,,,3,10,80,,
0,program_change,0,0,5,,,,,,,56,4,,,,
0,control_change,0,0,5,,,,,,,,4,7,111,,
0,program_change,0,0,6,,,,,,,47,5,,,,
0,control_change,0,0,6,,,,,,,,5,7,111,,
0,program_change,0,0,7,,,,,,,0,6,,,,
0,control_change,0,0,7,,,,,,,,6,7,127,,
0,program_change,0,0,8,,,,,,,0,6,,,,
0,control_change,0,0,2,,,,,,,,1,7,95,,
0,control_change,0,0,8,,,,,,,,6,7,127,,
0,control_change,0,0,9,,,,,,,,7,7,95,,
0,control_change,0,0,9,,,,,,,,7,10,39,,
0,program_change,0,0,10,,,,,,,48,8,,,,
0,control_change,0,0,10,,,,,,,,8,7,95,,
0,control_change,0,0,10,,,,,,,,8,10,50,,
0,program_change,0,0,11,,,,,,,48,10,,,,
0,control_change,0,0,11,,,,,,,,10,7,95,,
0,control_change,0,0,11,,,,,,,,10,10,78,,
0,program_change,0,0,12,,,,,,,48,11,,,,
0,control_change,0,0,12,,,,,,,,11,7,95,,
0,control_change,0,0,12,,,,,,,,11,10,89,,
0,program_change,0,0,13,,,,,,,48,12,,,,
0,control_change,0,0,13,,,,,,,,12,7,95,,
0,control_change,0,0,13,,,,,,,,12,10,71,,
0,program_change,0,0,9,,,,,,,48,7,,,,
0,program_change,0,0,2,,,,,,,68,1,,,,
0,end_of_track,0,1,14,,,,,,,,,,,,
0,time_signature,0,1,0,2,4,24,8,,,,,,,,
0,key_signature,0,1,0,,,,,C,,,,,,,
0,set_tempo,0,1,0,,,,,,416667,,,,,,
0,control_change,0,0,1,,,,,,,,0,7,95,,
0,program_change,0,0,1,,,,,,,73,0,,,,
0,control_change,0,0,1,,,,,,,,0,10,51,,
360,note_on,360,0,9,,,,,,,,7,,,69,80
360,note_on,360,0,1,,,,,,,,0,,,69,80
456,note_on,96,0,1,,,,,,,,0,,,69,0
456,note_on,96,0,9,,,,,,,,7,,,69,0
480,note_on,480,0,10,,,,,,,,8,,,66,80
480,note_on,480,0,11,,,,,,,,10,,,62,80
480,note_on,24,0,9,,,,,,,,7,,,74,80
480,note_on,24,0,1,,,,,,,,0,,,74,80
480,note_on,480,0,12,,,,,,,,11,,,50,80
480,note_on,480,0,13,,,,,,,,12,,,38,80
528,note_on,48,0,10,,,,,,,,8,,,66,0
540,note_on,12,0,10,,,,,,,,8,,,69,80
576,note_on,96,0,13,,,,,,,,12,,,38,0
576,note_on,96,0,12,,,,,,,,11,,,50,0
576,note_on,96,0,11,,,,,,,,10,,,62,0
588,note_on,48,0,10,,,,,,,,8,,,69,0
600,note_on,24,0,12,,,,,,,,11,,,50,80
600,note_on,12,0,10,,,,,,,,8,,,66,80
600,note_on,24,0,11,,,,,,,,10,,,62,80
600,note_on,24,0,13,,,,,,,,12,,,38,80
648,note_on,48,0,10,,,,,,,,8,,,66,0
660,note_on,12,0,10,,,,,,,,8,,,69,80
696,note_on,96,0,12,,,,,,,,11,,,50,0
696,note_on,96,0,11,,,,,,,,10,,,62,0
696,note_on,96,0,13,,,,,,,,12,,,38,0
708,note_on,48,0,10,,,,,,,,8,,,69,0
720,note_on,12,0,10,,,,,,,,8,,,66,80
720,note_on,24,0,11,,,,,,,,10,,,62,80
720,note_on,24,0,13,,,,,,,,12,,,38,80
720,note_on,24,0,12,,,,,,,,11,,,50,80
768,note_on,288,0,9,,,,,,,,7,,,74,0
768,note_on,48,0,10,,,,,,,,8,,,66,0
768,note_on,288,0,1,,,,,,,,0,,,74,0
780,note_on,12,0,10,,,,,,,,8,,,69,80
816,note_on,96,0,13,,,,,,,,12,,,38,0
816,note_on,96,0,11,,,,,,,,10,,,62,0
816,note_on,96,0,12,,,,,,,,11,,,50,0
828,note_on,48,0,10,,,,,,,,8,,,69,0
840,note_on,24,0,12,,,,,,,,11,,,50,80
840,note_on,72,0,1,,,,,,,,0,,,78,80
840,note_on,12,0,10,,,,,,,,8,,,66,80
840,note_on,72,0,9,,,,,,,,7,,,78,80
840,note_on,24,0,13,,,,,,,,12,,,38,80
840,note_on,24,0,11,,,,,,,,10,,,62,80
888,note_on,48,0,10,,,,,,,,8,,,66,0
900,note_on,12,0,10,,,,,,,,8,,,69,80
936,note_on,96,0,11,,,,,,,,10,,,62,0
936,note_on,96,0,13,,,,,,,,12,,,38,0
936,note_on,96,0,9,,,,,,,,7,,,78,0
936,note_on,96,0,12,,,,,,,,11,,,50,0
936,note_on,96,0,1,,,,,,,,0,,,78,0
948,note_on,48,0,10,,,,,,,,8,,,69,0
960,note_on,24,0,13,,,,,,,,12,,,38,80
960,note_on,24,0,1,,,,,,,,0,,,81,80
960,note_on,12,0,10,,,,,,,,8,,,66,80
960,note_on,24,0,9,,,,,,,,7,,,81,80
960,note_on,24,0,11,,,,,,,,10,,,62,80
960,note_on,24,0,12,,,,,,,,11,,,50,80
1008,note_on,48,0,10,,,,,,,,8,,,66,0
1020,note_on,12,0,10,,,,,,,,8,,,69,80
1056,note_on,96,0,11,,,,,,,,10,,,62,0
1056,note_on,96,0,13,,,,,,,,12,,,38,0
1056,note_on,96,0,12,,,,,,,,11,,,50,0
1068,note_on,48,0,10,,,,,,,,8,,,69,0
1080,note_on,12,0,10,,,,,,,,8,,,66,80
1080,note_on,24,0,13,,,,,,,,12,,,38,80
1080,note_on,24,0,11,,,,,,,,10,,,62,80
1080,note_on,24,0,12,,,,,,,,11,,,50,80
1128,note_on,48,0,10,,,,,,,,8,,,66,0
1140,note_on,12,0,10,,,,,,,,8,,,69,80
1176,note_on,96,0,12,,,,,,,,11,,,50,0
1176,note_on,96,0,11,,,,,,,,10,,,62,0
1176,note_on,96,0,13,,,,,,,,12,,,38,0
1188,note_on,48,0,10,,,,,,,,8,,,69,0
1200,note_on,12,0,10,,,,,,,,8,,,66,80
1200,note_on,24,0,13,,,,,,,,12,,,38,80
1200,note_on,24,0,12,,,,,,,,11,,,50,80
1200,note_on,24,0,11,,,,,,,,10,,,62,80
1248,note_on,48,0,10,,,,,,,,8,,,66,0
1248,note_on,288,0,9,,,,,,,,7,,,81,0
1248,note_on,288,0,1,,,,,,,,0,,,81,0
1260,note_on,12,0,10,,,,,,,,8,,,69,80
1296,note_on,96,0,11,,,,,,,,10,,,62,0
1296,note_on,96,0,13,,,,,,,,12,,,38,0
1296,note_on,96,0,12,,,,,,,,11,,,50,0
1308,note_on,48,0,10,,,,,,,,8,,,69,0
1320,note_on,24,0,11,,,,,,,,10,,,62,80
1320,note_on,12,0,10,,,,,,,,8,,,66,80
1320,note_on,72,0,9,,,,,,,,7,,,78,80
1320,note_on,24,0,12,,,,,,,,11,,,50,80
1320,note_on,72,0,1,,,,,,,,0,,,78,80
1320,note_on,24,0,13,,,,,,,,12,,,38,80
1368,note_on,48,0,10,,,,,,,,8,,,66,0
1380,note_on,12,0,10,,,,,,,,8,,,69,80
1416,note_on,96,0,1,,,,,,,,0,,,78,0
1416,note_on,96,0,12,,,,,,,,11,,,50,0
1416,note_on,96,0,13,,,,,,,,12,,,38,0
1416,note_on,96,0,9,,,,,,,,7,,,78,0
1416,note_on,96,0,11,,,,,,,,10,,,62,0
1428,note_on,48,0,10,,,,,,,,8,,,69,0
1440,note_on,24,0,12,,,,,,,,11,,,45,80
1440,note_on,12,0,10,,,,,,,,8,,,67,80
1440,note_on,24,0,9,,,,,,,,7,,,76,80
1440,note_on,24,0,11,,,,,,,,10,,,61,80
1440,note_on,24,0,13,,,,,,,,12,,,33,80
1440,note_on,24,0,1,,,,,,,,0,,,76,80
1488,note_on,48,0,10,,,,,,,,8,,,67,0
1500,note_on,12,0,10,,,,,,,,8,,,69,80
1536,note_on,96,0,11,,,,,,,,10,,,61,0
1536,note_on,96,0,1,,,,,,,,0,,,76,0
1536,note_on,96,0,13,,,,,,,,12,,,33,0
1536,note_on,96,0,9,,,,,,,,7,,,76,0
1536,note_on,96,0,12,,,,,,,,11,,,45,0
1548,note_on,48,0,10,,,,,,,,8,,,69,0
1560,note_on,12,0,10,,,,,,,,8,,,67,80
1560,note_on,24,0,11,,,,,,,,10,,,61,80
1560,note_on,24,0,13,,,,,,,,12,,,45,80
1560,note_on,24,0,1,,,,,,,,0,,,76,80
1560,note_on,24,0,12,,,,,,,,11,,,57,80
1560,note_on,24,0,9,,,,,,,,7,,,76,80
1608,note_on,48,0,10,,,,,,,,8,,,67,0
1620,note_on,12,0,10,,,,,,,,8,,,69,80
1656,note_on,96,0,13,,,,,,,,12,,,45,0
1656,note_on,96,0,1,,,,,,,,0,,,76,0
1656,note_on,96,0,12,,,,,,,,11,,,57,0
1656,note_on,96,0,9,,,,,,,,7,,,76,0
1656,note_on,96,0,11,,,,,,,,10,,,61,0
1668,note_on,48,0,10,,,,,,,,8,,,69,0
1680,note_on,24,0,11,,,,,,,,10,,,61,80
1680,note_on,12,0,10,,,,,,,,8,,,67,80
1680,note_on,24,0,1,,,,,,,,0,,,78,80
1680,note_on,24,0,13,,,,,,,,12,,,33,80
1680,note_on,24,0,12,,,,,,,,11,,,45,80
1680,note_on,24,0,9,,,,,,,,7,,,78,80
1728,note_on,48,0,1,,,,,,,,0,,,78,0
1728,note_on,48,0,9,,,,,,,,7,,,78,0
1728,note_on,48,0,10,,,,,,,,8,,,67,0
1740,note_on,12,0,1,,,,,,,,0,,,76,80
1740,note_on,12,0,10,,,,,,,,8,,,69,80
1740,note_on,12,0,9,,,,,,,,7,,,76,80
1776,note_on,96,0,13,,,,,,,,12,,,33,0
1776,note_on,96,0,11,,,,,,,,10,,,61,0
1776,note_on,96,0,12,,,,,,,,11,,,45,0
1788,note_on,48,0,9,,,,,,,,7,,,76,0
1788,note_on,48,0,10,,,,,,,,8,,,69,0
1788,note_on,48,0,1,,,,,,,,0,,,76,0
1800,note_on,24,0,11,,,,,,,,10,,,61,80
1800,note_on,24,0,12,,,,,,,,11,,,57,80
1800,note_on,12,0,9,,,,,,,,7,,,75,80
1800,note_on,12,0,1,,,,,,,,0,,,75,80
1800,note_on,12,0,10,,,,,,,,8,,,67,80
1800,note_on,24,0,13,,,,,,,,12,,,45,80
1848,note_on,48,0,10,,,,,,,,8,,,67,0
1848,note_on,48,0,1,,,,,,,,0,,,75,0
1848,note_on,48,0,9,,,,,,,,7,,,75,0
1860,note_on,12,0,1,,,,,,,,0,,,76,80
1860,note_on,12,0,9,,,,,,,,7,,,76,80
1860,note_on,12,0,10,,,,,,,,8,,,69,80
1896,note_on,96,0,13,,,,,,,,12,,,45,0
1896,note_on,96,0,11,,,,,,,,10,,,61,0
1896,note_on,96,0,12,,,,,,,,11,,,57,0
1908,note_on,48,0,9,,,,,,,,7,,,76,0
1908,note_on,48,0,10,,,,,,,,8,,,69,0
1908,note_on,48,0,1,,,,,,,,0,,,76,0
1920,note_on,12,0,10,,,,,,,,8,,,67,80
1920,note_on,12,0,9,,,,,,,,7,,,73,80
1920,note_on,24,0,13,,,,,,,,12,,,33,80
1920,note_on,24,0,11,,,,,,,,10,,,64,80
1920,note_on,12,0,1,,,,,,,,0,,,73,80
1920,note_on,24,0,12,,,,,,,,11,,,45,80
1968,note_on,48,0,10,,,,,,,,8,,,67,0
1980,note_on,12,0,10,,,,,,,,8,,,69,80
2016,note_on,96,0,1,,,,,,,,0,,,73,0
2016,note_on,96,0,9,,,,,,,,7,,,73,0
2016,note_on,96,0,13,,,,,,,,12,,,33,0
2016,note_on,96,0,11,,,,,,,,10,,,64,0
2016,note_on,96,0,12,,,,,,,,11,,,45,0
2028,note_on,48,0,10,,,,,,,,8,,,69,0
2040,note_on,24,0,11,,,,,,,,10,,,64,80
2040,note_on,24,0,12,,,,,,,,11,,,57,80
2040,note_on,24,0,1,,,,,,,,0,,,73,80
2040,note_on,24,0,9,,,,,,,,7,,,73,80
2040,note_on,12,0,10,,,,,,,,8,,,67,80
2040,note_on,24,0,13,,,,,,,,12,,,45,80
2088,note_on,48,0,10,,,,,,,,8,,,67,0
2100,note_on,12,0,10,,,,,,,,8,,,69,80
2136,note_on,96,0,9,,,,,,,,7,,,73,0
2136,note_on,96,0,13,,,,,,,,12,,,45,0
2136,note_on,96,0,1,,,,,,,,0,,,73,0
2136,note_on,96,0,12,,,,,,,,11,,,57,0
2136,note_on,96,0,11,,,,,,,,10,,,64,0
2148,note_on,48,0,10,,,,,,,,8,,,69,0
2160,note_on,24,0,1,,,,,,,,0,,,74,80
2160,note_on,24,0,9,,,,,,,,7,,,74,80
2160,note_on,24,0,13,,,,,,,,12,,,33,80
2160,note_on,24,0,11,,,,,,,,10,,,64,80
2160,note_on,24,0,12,,,,,,,,11,,,45,80
2160,note_on,12,0,10,,,,,,,,8,,,67,80
2208,note_on,48,0,1,,,,,,,,0,,,74,0
2208,note_on,48,0,10,,,,,,,,8,,,67,0
2208,note_on,48,0,9,,,,,,,,7,,,74,0
2220,note_on,12,0,10,,,,,,,,8,,,69,80
2220,note_on,12,0,1,,,,,,,,0,,,73,80
2220,note_on,12,0,9,,,,,,,,7,,,73,80
2256,note_on,96,0,12,,,,,,,,11,,,45,0
2256,note_on,96,0,11,,,,,,,,10,,,64,0
2256,note_on,96,0,13,,,,,,,,12,,,33,0
2268,note_on,48,0,10,,,,,,,,8,,,69,0
2268,note_on,48,0,9,,,,,,,,7,,,73,0
2268,note_on,48,0,1,,,,,,,,0,,,73,0
2280,note_on,12,0,10,,,,,,,,8,,,67,80
2280,note_on,24,0,11,,,,,,,,10,,,64,80
2280,note_on,12,0,9,,,,,,,,7,,,71,80
2280,note_on,24,0,13,,,,,,,,12,,,45,80
2280,note_on,12,0,1,,,,,,,,0,,,71,80
2280,note_on,24,0,12,,,,,,,,11,,,57,80
2328,note_on,48,0,9,,,,,,,,7,,,71,0
2328,note_on,48,0,1,,,,,,,,0,,,71,0
2328,note_on,48,0,10,,,,,,,,8,,,67,0
2340,note_on,12,0,9,,,,,,,,7,,,73,80
2340,note_on,12,0,10,,,,,,,,8,,,69,80
2340,note_on,12,0,1,,,,,,,,0,,,73,80
2376,note_on,96,0,13,,,,,,,,12,,,45,0
2376,note_on,96,0,12,,,,,,,,11,,,57,0
2376,note_on,96,0,11,,,,,,,,10,,,64,0
2388,note_on,48,0,9,,,,,,,,7,,,73,0
2388,note_on,48,0,1,,,,,,,,0,,,73,0
2388,note_on,48,0,10,,,,,,,,8,,,69,0
2400,note_on,24,0,12,,,,,,,,11,,,50,80
2400,note_on,12,0,9,,,,,,,,7,,,74,80
2400,note_on,12,0,1,,,,,,,,0,,,74,80
2400,note_on,24,0,11,,,,,,,,10,,,62,80
2400,note_on,24,0,13,,,,,,,,12,,,38,80
2400,note_on,12,0,10,,,,,,,,8,,,66,80
2448,note_on,48,0,10,,,,,,,,8,,,66,0
2460,note_on,12,0,10,,,,,,,,8,,,69,80
2496,note_on,96,0,11,,,,,,,,10,,,62,0
2496,note_on,96,0,13,,,,,,,,12,,,38,0
2496,note_on,96,0,1,,,,,,,,0,,,74,0
2496,note_on,96,0,9,,,,,,,,7,,,74,0
2496,note_on,96,0,12,,,,,,,,11,,,50,0
2508,note_on,48,0,10,,,,,,,,8,,,69,0
2520,note_on,24,0,13,,,,,,,,12,,,38,80
2520,note_on,24,0,11,,,,,,,,10,,,57,80
2520,note_on,24,0,12,,,,,,,,11,,,50,80
2520,note_on,12,0,10,,,,,,,,8,,,66,80
2520,note_on,24,0,1,,,,,,,,0,,,74,80
2520,note_on,24,0,9,,,,,,,,7,,,74,80
2568,note_on,48,0,10,,,,,,,,8,,,66,0
2580,note_on,12,0,10,,,,,,,,8,,,69,80
2616,note_on,96,0,13,,,,,,,,12,,,38,0
2616,note_on,96,0,12,,,,,,,,11,,,50,0
2628,note_on,48,0,10,,,,,,,,8,,,69,0
2640,note_on,24,0,13,,,,,,,,12,,,38,80
2640,note_on,24,0,12,,,,,,,,11,,,50,80
2640,note_on,12,0,10,,,,,,,,8,,,66,80
2688,note_on,48,0,10,,,,,,,,8,,,66,0
2700,note_on,12,0,10,,,,,,,,8,,,69,80
2712,note_on,192,0,11,,,,,,,,10,,,57,0
2712,note_on,192,0,9,,,,,,,,7,,,74,0
2712,note_on,192,0,1,,,,,,,,0,,,74,0
2736,note_on,96,0,13,,,,,,,,12,,,38,0
2736,note_on,96,0,12,,,,,,,,11,,,50,0
2748,note_on,48,0,10,,,,,,,,8,,,69,0
2760,note_on,24,0,13,,,,,,,,12,,,38,80
2760,note_on,48,0,9,,,,,,,,7,,,78,80
2760,note_on,48,0,1,,,,,,,,0,,,78,80
2760,note_on,12,0,10,,,,,,,,8,,,66,80
2760,note_on,48,0,11,,,,,,,,10,,,62,80
2760,note_on,24,0,12,,,,,,,,11,,,50,80
2808,note_on,48,0,10,,,,,,,,8,,,66,0
2820,note_on,12,0,10,,,,,,,,8,,,69,80
2856,note_on,96,0,12,,,,,,,,11,,,50,0
2856,note_on,96,0,1,,,,,,,,0,,,78,0
2856,note_on,96,0,13,,,,,,,,12,,,38,0
2856,note_on,96,0,9,,,,,,,,7,,,78,0
2856,note_on,96,0,11,,,,,,,,10,,,62,0
2868,note_on,48,0,10,,,,,,,,8,,,69,0
2880,note_on,24,0,12,,,,,,,,11,,,50,80
2880,note_on,12,0,10,,,,,,,,8,,,62,80
2880,note_on,24,0,9,,,,,,,,7,,,81,80
2880,note_on,24,0,1,,,,,,,,0,,,81,80
2880,note_on,24,0,11,,,,,,,,10,,,66,80
2880,note_on,24,0,13,,,,,,,,12,,,38,80
2928,note_on,48,0,10,,,,,,,,8,,,62,0
2940,note_on,12,0,10,,,,,,,,8,,,69,80
2976,note_on,96,0,13,,,,,,,,12,,,38,0
2976,note_on,96,0,9,,,,,,,,7,,,81,0
2976,note_on,96,0,12,,,,,,,,11,,,50,0
2976,note_on,96,0,1,,,,,,,,0,,,81,0
2976,note_on,96,0,11,,,,,,,,10,,,66,0
2988,note_on,48,0,10,,,,,,,,8,,,69,0
3000,note_on,24,0,13,,,,,,,,12,,,38,80
3000,note_on,12,0,10,,,,,,,,8,,,62,80
3000,note_on,24,0,9,,,,,,,,7,,,81,80
3000,note_on,24,0,1,,,,,,,,0,,,81,80
3000,note_on,24,0,12,,,,,,,,11,,,50,80
3000,note_on,24,0,11,,,,,,,,10,,,66,80
3048,note_on,48,0,10,,,,,,,,8,,,62,0
3060,note_on,12,0,10,,,,,,,,8,,,69,80
3096,note_on,96,0,13,,,,,,,,12,,,38,0
3096,note_on,96,0,12,,,,,,,,11,,,50,0
3108,note_on,48,0,10,,,,,,,,8,,,69,0
3120,note_on,24,0,12,,,,,,,,11,,,50,80
3120,note_on,12,0,10,,,,,,,,8,,,62,80
3120,note_on,24,0,13,,,,,,,,12,,,38,80
3168,note_on,48,0,10,,,,,,,,8,,,62,0
3180,note_on,12,0,10,,,,,,,,8,,,69,80
3192,note_on,192,0,9,,,,,,,,7,,,81,0
3192,note_on,192,0,11,,,,,,,,10,,,66,0
3192,note_on,192,0,1,,,,,,,,0,,,81,0
3216,note_on,96,0,13,,,,,,,,12,,,38,0
3216,note_on,96,0,12,,,,,,,,11,,,50,0
3228,note_on,48,0,10,,,,,,,,8,,,69,0
3240,note_on,48,0,11,,,,,,,,10,,,69,80
3240,note_on,24,0,13,,,,,,,,12,,,38,80
3240,note_on,12,0,10,,,,,,,,8,,,62,80
3240,note_on,48,0,9,,,,,,,,7,,,78,80
3240,note_on,24,0,12,,,,,,,,11,,,50,80
3240,note_on,48,0,1,,,,,,,,0,,,78,80
3288,note_on,48,0,10,,,,,,,,8,,,62,0
3300,note_on,12,0,10,,,,,,,,8,,,69,80
3336,note_on,96,0,9,,,,,,,,7,,,78,0
3336,note_on,96,0,12,,,,,,,,11,,,50,0
3336,note_on,96,0,13,,,,,,,,12,,,38,0
3336,note_on,96,0,1,,,,,,,,0,,,78,0
3336,note_on,96,0,11,,,,,,,,10,,,69,0
3348,note_on,48,0,10,,,,,,,,8,,,69,0
3360,note_on,24,0,13,,,,,,,,12,,,40,80
3360,note_on,24,0,9,,,,,,,,7,,,76,80
3360,note_on,24,0,12,,,,,,,,11,,,52,80
3360,note_on,12,0,10,,,,,,,,8,,,61,80
3360,note_on,24,0,1,,,,,,,,0,,,76,80
3360,note_on,24,0,11,,,,,,,,10,,,64,80
3408,note_on,48,0,10,,,,,,,,8,,,61,0
3420,note_on,12,0,10,,,,,,,,8,,,64,80
3456,note_on,96,0,12,,,,,,,,11,,,52,0
3456,note_on,96,0,1,,,,,,,,0,,,76,0
3456,note_on,96,0,13,,,,,,,,12,,,40,0
3456,note_on,96,0,9,,,,,,,,7,,,76,0
3456,note_on,96,0,11,,,,,,,,10,,,64,0
3468,note_on,48,0,10,,,,,,,,8,,,64,0
3480,note_on,24,0,11,,,,,,,,10,,,64,80
3480,note_on,24,0,9,,,,,,,,7,,,81,80
3480,note_on,12,0,10,,,,,,,,8,,,61,80
3480,note_on,24,0,12,,,,,,,,11,,,52,80
3480,note_on,24,0,13,,,,,,,,12,,,40,80
3480,note_on,24,0,1,,,,,,,,0,,,81,80
3528,note_on,48,0,10,,,,,,,,8,,,61,0
3540,note_on,12,0,10,,,,,,,,8,,,64,80
3576,note_on,96,0,11,,,,,,,,10,,,64,0
3576,note_on,96,0,13,,,,,,,,12,,,40,0
3576,note_on,96,0,12,,,,,,,,11,,,52,0
3588,note_on,48,0,10,,,,,,,,8,,,64,0
3600,note_on,24,0,11,,,,,,,,10,,,64,80
3600,note_on,24,0,13,,,,,,,,12,,,40,80
3600,note_on,12,0,10,,,,,,,,8,,,61,80
3600,note_on,24,0,12,,,,,,,,11,,,52,80
3648,note_on,48,0,10,,,,,,,,8,,,61,0
3660,note_on,12,0,10,,,,,,,,8,,,64,80
3672,note_on,192,0,1,,,,,,,,0,,,81,0
3672,note_on,192,0,9,,,,,,,,7,,,81,0
3696,note_on,96,0,11,,,,,,,,10,,,64,0
3696,note_on,96,0,12,,,,,,,,11,,,52,0
3696,note_on,96,0,13,,,,,,,,12,,,40,0
3708,note_on,48,0,10,,,,,,,,8,,,64,0
3720,note_on,24,0,13,,,,,,,,12,,,40,80
3720,note_on,24,0,12,,,,,,,,11,,,52,80
3720,note_on,12,0,10,,,,,,,,8,,,62,80
3720,note_on,24,0,11,,,,,,,,10,,,64,80
3720,note_on,48,0,9,,,,,,,,7,,,83,80
3720,note_on,48,0,1,,,,,,,,0,,,83,80
3768,note_on,48,0,1,,,,,,,,0,,,83,0
3768,note_on,48,0,9,,,,,,,,7,,,83,0
3768,note_on,48,0,10,,,,,,,,8,,,62,0
3780,note_on,12,0,10,,,,,,,,8,,,59,80
3780,note_on,12,0,9,,,,,,,,7,,,80,80
3780,note_on,12,0,1,,,,,,,,0,,,80,80
3816,note_on,96,0,12,,,,,,,,11,,,52,0
3816,note_on,96,0,11,,,,,,,,10,,,64,0
3816,note_on,96,0,13,,,,,,,,12,,,40,0
3828,note_on,48,0,1,,,,,,,,0,,,80,0
3828,note_on,48,0,10,,,,,,,,8,,,59,0
3828,note_on,48,0,9,,,,,,,,7,,,80,0
3840,note_on,24,0,12,,,,,,,,11,,,57,80
3840,note_on,12,0,1,,,,,,,,0,,,81,80
3840,note_on,24,0,11,,,,,,,,10,,,64,80
3840,note_on,12,0,9,,,,,,,,7,,,81,80
3840,note_on,24,0,13,,,,,,,,12,,,45,80
3840,note_on,12,0,10,,,,,,,,8,,,61,80
3936,note_on,96,0,13,,,,,,,,12,,,45,0
3936,note_on,96,0,12,,,,,,,,11,,,57,0
3960,note_on,24,0,12,,,,,,,,11,,,52,80
3960,note_on,24,0,13,,,,,,,,12,,,40,80
4032,note_on,192,0,9,,,,,,,,7,,,81,0
4032,note_on,192,0,10,,,,,,,,8,,,61,0
4032,note_on,192,0,1,,,,,,,,0,,,81,0
4032,note_on,192,0,11,,,,,,,,10,,,64,0
4056,note_on,96,0,13,,,,,,,,12,,,40,0
4056,note_on,96,0,12,,,,,,,,11,,,52,0
4080,note_on,24,0,13,,,,,,,,12,,,33,80
4080,note_on,24,0,12,,,,,,,,11,,,45,80
4176,note_on,96,0,13,,,,,,,,12,,,33,0
4176,note_on,96,0,12,,,,,,,,11,,,45,0
4200,note_on,168,0,9,,,,,,,,7,,,69,80
4200,note_on,168,0,1,,,,,,,,0,,,69,80
4296,note_on,96,0,1,,,,,,,,0,,,69,0
4296,note_on,96,0,9,,,,,,,,7,,,69,0
4320,note_on,288,0,10,,,,,,,,8,,,66,80
4320,note_on,24,0,1,,,,,,,,0,,,74,80
4320,note_on,288,0,11,,,,,,,,10,,,62,80
4320,note_on,24,0,9,,,,,,,,7,,,74,80
4320,note_on,144,0,13,,,,,,,,12,,,38,80
4320,note_on,144,0,12,,,,,,,,11,,,50,80
4368,note_on,48,0,10,,,,,,,,8,,,66,0
4380,note_on,12,0,10,,,,,,,,8,,,69,80
4416,note_on,96,0,13,,,,,,,,12,,,38,0
4416,note_on,96,0,11,,,,,,,,10,,,62,0
4416,note_on,96,0,12,,,,,,,,11,,,50,0
4428,note_on,48,0,10,,,,,,,,8,,,69,0
4440,note_on,24,0,12,,,,,,,,11,,,50,80
4440,note_on,24,0,11,,,,,,,,10,,,62,80
4440,note_on,12,0,10,,,,,,,,8,,,66,80
4440,note_on,24,0,13,,,,,,,,12,,,38,80
4488,note_on,48,0,10,,,,,,,,8,,,66,0
4500,note_on,12,0,10,,,,,,,,8,,,69,80
4536,note_on,96,0,12,,,,,,,,11,,,50,0
4536,note_on,96,0,13,,,,,,,,12,,,38,0
4536,note_on,96,0,11,,,,,,,,10,,,62,0
4548,note_on,48,0,10,,,,,,,,8,,,69,0
4560,note_on,24,0,13,,,,,,,,12,,,38,80
4560,note_on,24,0,12,,,,,,,,11,,,50,80
4560,note_on,12,0,10,,,,,,,,8,,,66,80
4560,note_on,24,0,11,,,,,,,,10,,,62,80
4608,note_on,288,0,9,,,,,,,,7,,,74,0
4608,note_on,288,0,1,,,,,,,,0,,,74,0
4608,note_on,48,0,10,,,,,,,,8,,,66,0
4620,note_on,12,0,10,,,,,,,,8,,,69,80
4656,note_on,96,0,13,,,,,,,,12,,,38,0
4656,note_on,96,0,12,,,,,,,,11,,,50,0
4656,note_on,96,0,11,,,,,,,,10,,,62,0
4668,note_on,48,0,10,,,,,,,,8,,,69,0
4680,note_on,72,0,9,,,,,,,,7,,,78,80
4680,note_on,12,0,10,,,,,,,,8,,,66,80
4680,note_on,72,0,1,,,,,,,,0,,,78,80
4680,note_on,24,0,11,,,,,,,,10,,,62,80
4680,note_on,24,0,12,,,,,,,,11,,,50,80
4680,note_on,24,0,13,,,,,,,,12,,,38,80
4728,note_on,48,0,10,,,,,,,,8,,,66,0
4740,note_on,12,0,10,,,,,,,,8,,,69,80
4776,note_on,96,0,1,,,,,,,,0,,,78,0
4776,note_on,96,0,13,,,,,,,,12,,,38,0
4776,note_on,96,0,9,,,,,,,,7,,,78,0
4776,note_on,96,0,12,,,,,,,,11,,,50,0
4776,note_on,96,0,11,,,,,,,,10,,,62,0
4788,note_on,48,0,10,,,,,,,,8,,,69,0
4800,note_on,12,0,10,,,,,,,,8,,,66,80
4800,note_on,24,0,12,,,,,,,,11,,,50,80
4800,note_on,24,0,9,,,,,,,,7,,,81,80
4800,note_on,24,0,13,,,,,,,,12,,,38,80
4800,note_on,24,0,1,,,,,,,,0,,,81,80
4800,note_on,24,0,11,,,,,,,,10,,,62,80
4848,note_on,48,0,10,,,,,,,,8,,,66,0
4860,note_on,12,0,10,,,,,,,,8,,,69,80
4896,note_on,96,0,12,,,,,,,,11,,,50,0
4896,note_on,96,0,13,,,,,,,,12,,,38,0
4896,note_on,96,0,11,,,,,,,,10,,,62,0
4908,note_on,48,0,10,,,,,,,,8,,,69,0
4920,note_on,12,0,10,,,,,,,,8,,,66,80
4920,note_on,24,0,11,,,,,,,,10,,,62,80
4920,note_on,24,0,12,,,,,,,,11,,,50,80
4920,note_on,24,0,13,,,,,,,,12,,,38,80
4968,note_on,48,0,10,,,,,,,,8,,,66,0
4980,note_on,12,0,10,,,,,,,,8,,,69,80
5016,note_on,96,0,13,,,,,,,,12,,,38,0
5016,note_on,96,0,12,,,,,,,,11,,,50,0
5016,note_on,96,0,11,,,,,,,,10,,,62,0
5028,note_on,48,0,10,,,,,,,,8,,,69,0
5040,note_on,24,0,11,,,,,,,,10,,,62,80
5040,note_on,24,0,12,,,,,,,,11,,,50,80
5040,note_on,12,0,10,,,,,,,,8,,,66,80
5040,note_on,24,0,13,,,,,,,,12,,,38,80
5088,note_on,288,0,1,,,,,,,,0,,,81,0
5088,note_on,288,0,9,,,,,,,,7,,,81,0
5088,note_on,48,0,10,,,,,,,,8,,,66,0
5100,note_on,12,0,10,,,,,,,,8,,,69,80
5136,note_on,96,0,12,,,,,,,,11,,,50,0
5136,note_on,96,0,11,,,,,,,,10,,,62,0
5136,note_on,96,0,13,,,,,,,,12,,,38,0
5148,note_on,48,0,10,,,,,,,,8,,,69,0
5160,note_on,72,0,9,,,,,,,,7,,,78,80
5160,note_on,24,0,12,,,,,,,,11,,,50,80
5160,note_on,24,0,13,,,,,,,,12,,,38,80
5160,note_on,72,0,1,,,,,,,,0,,,78,80
5160,note_on,24,0,11,,,,,,,,10,,,62,80
5160,note_on,12,0,10,,,,,,,,8,,,66,80
5208,note_on,48,0,10,,,,,,,,8,,,66,0
5220,note_on,12,0,10,,,,,,,,8,,,69,80
5256,note_on,96,0,1,,,,,,,,0,,,78,0
5256,note_on,96,0,9,,,,,,,,7,,,78,0
5256,note_on,96,0,12,,,,,,,,11,,,50,0
5256,note_on,96,0,13,,,,,,,,12,,,38,0
5256,note_on,96,0,11,,,,,,,,10,,,62,0
5268,note_on,48,0,10,,,,,,,,8,,,69,0
5280,note_on,24,0,1,,,,,,,,0,,,76,80
5280,note_on,12,0,10,,,,,,,,8,,,67,80
5280,note_on,24,0,11,,,,,,,,10,,,61,80
5280,note_on,24,0,9,,,,,,,,7,,,76,80
5280,note_on,24,0,12,,,,,,,,11,,,45,80
5280,note_on,24,0,13,,,,,,,,12,,,33,80
5328,note_on,48,0,10,,,,,,,,8,,,67,0
5340,note_on,12,0,10,,,,,,,,8,,,69,80
5376,note_on,96,0,11,,,,,,,,10,,,61,0
5376,note_on,96,0,13,,,,,,,,12,,,33,0
5376,note_on,96,0,9,,,,,,,,7,,,76,0
5376,note_on,96,0,12,,,,,,,,11,,,45,0
5376,note_on,96,0,1,,,,,,,,0,,,76,0
5388,note_on,48,0,10,,,,,,,,8,,,69,0
5400,note_on,24,0,12,,,,,,,,11,,,57,80
5400,note_on,24,0,13,,,,,,,,12,,,45,80
5400,note_on,24,0,11,,,,,,,,10,,,61,80
5400,note_on,24,0,9,,,,,,,,7,,,76,80
5400,note_on,12,0,10,,,,,,,,8,,,67,80
5400,note_on,24,0,1,,,,,,,,0,,,76,80
5448,note_on,48,0,10,,,,,,,,8,,,67,0
5460,note_on,12,0,10,,,,,,,,8,,,69,80
5496,note_on,96,0,1,,,,,,,,0,,,76,0
5496,note_on,96,0,9,,,,,,,,7,,,76,0
5496,note_on,96,0,13,,,,,,,,12,,,45,0
5496,note_on,96,0,12,,,,,,,,11,,,57,0
5496,note_on,96,0,11,,,,,,,,10,,,61,0
5508,note_on,48,0,10,,,,,,,,8,,,69,0
5520,note_on,24,0,13,,,,,,,,12,,,33,80
5520,note_on,24,0,11,,,,,,,,10,,,61,80
5520,note_on,24,0,1,,,,,,,,0,,,78,80
5520,note_on,12,0,10,,,,,,,,8,,,67,80
5520,note_on,24,0,12,,,,,,,,11,,,45,80
5520,note_on,24,0,9,,,,,,,,7,,,78,80
5568,note_on,48,0,9,,,,,,,,7,,,78,0
5568,note_on,48,0,1,,,,,,,,0,,,78,0
5568,note_on,48,0,10,,,,,,,,8,,,67,0
5580,note_on,12,0,9,,,,,,,,7,,,76,80
5580,note_on,12,0,10,,,,,,,,8,,,69,80
5580,note_on,12,0,1,,,,,,,,0,,,76,80
5616,note_on,96,0,13,,,,,,,,12,,,33,0
5616,note_on,96,0,12,,,,,,,,11,,,45,0
5616,note_on,96,0,11,,,,,,,,10,,,61,0
5628,note_on,48,0,9,,,,,,,,7,,,76,0
5628,note_on,48,0,10,,,,,,,,8,,,69,0
5628,note_on,48,0,1,,,,,,,,0,,,76,0
5640,note_on,12,0,1,,,,,,,,0,,,75,80
5640,note_on,12,0,10,,,,,,,,8,,,67,80
5640,note_on,24,0,13,,,,,,,,12,,,45,80
5640,note_on,24,0,12,,,,,,,,11,,,57,80
5640,note_on,24,0,11,,,,,,,,10,,,61,80
5640,note_on,12,0,9,,,,,,,,7,,,75,80
5688,note_on,48,0,1,,,,,,,,0,,,75,0
5688,note_on,48,0,9,,,,,,,,7,,,75,0
5688,note_on,48,0,10,,,,,,,,8,,,67,0
5700,note_on,12,0,9,,,,,,,,7,,,76,80
5700,note_on,12,0,10,,,,,,,,8,,,69,80
5700,note_on,12,0,1,,,,,,,,0,,,76,80
5736,note_on,96,0,12,,,,,,,,11,,,57,0
5736,note_on,96,0,13,,,,,,,,12,,,45,0
5736,note_on,96,0,11,,,,,,,,10,,,61,0
5748,note_on,48,0,10,,,,,,,,8,,,69,0
5748,note_on,48,0,1,,,,,,,,0,,,76,0
5748,note_on,48,0,9,,,,,,,,7,,,76,0
5760,note_on,12,0,1,,,,,,,,0,,,73,80
5760,note_on,24,0,13,,,,,,,,12,,,33,80
5760,note_on,12,0,10,,,,,,,,8,,,67,80
5760,note_on,24,0,11,,,,,,,,10,,,64,80
5760,note_on,24,0,12,,,,,,,,11,,,45,80
5760,note_on,12,0,9,,,,,,,,7,,,73,80
5808,note_on,48,0,10,,,,,,,,8,,,67,0
5820,note_on,12,0,10,,,,,,,,8,,,69,80
5856,note_on,96,0,1,,,,,,,,0,,,73,0
5856,note_on,96,0,13,,,,,,,,12,,,33,0
5856,note_on,96,0,11,,,,,,,,10,,,64,0
5856,note_on,96,0,9,,,,,,,,7,,,73,0
5856,note_on,96,0,12,,,,,,,,11,,,45,0
5868,note_on,48,0,10,,,,,,,,8,,,69,0
5880,note_on,24,0,11,,,,,,,,10,,,64,80
5880,note_on,12,0,10,,,,,,,,8,,,67,80
5880,note_on,24,0,13,,,,,,,,12,,,45,80
5880,note_on,24,0,1,,,,,,,,0,,,73,80
5880,note_on,24,0,12,,,,,,,,11,,,57,80
5880,note_on,24,0,9,,,,,,,,7,,,73,80
5928,note_on,48,0,10,,,,,,,,8,,,67,0
5940,note_on,12,0,10,,,,,,,,8,,,69,80
5976,note_on,96,0,9,,,,,,,,7,,,73,0
5976,note_on,96,0,13,,,,,,,,12,,,45,0
5976,note_on,96,0,11,,,,,,,,10,,,64,0
5976,note_on,96,0,1,,,,,,,,0,,,73,0
5976,note_on,96,0,12,,,,,,,,11,,,57,0
5988,note_on,48,0,10,,,,,,,,8,,,69,0
6000,note_on,24,0,9,,,,,,,,7,,,74,80
6000,note_on,24,0,1,,,,,,,,0,,,74,80
6000,note_on,24,0,13,,,,,,,,12,,,33,80
6000,note_on,24,0,11,,,,,,,,10,,,64,80
6000,note_on,12,0,10,,,,,,,,8,,,67,80
6000,note_on,24,0,12,,,,,,,,11,,,45,80
6048,note_on,48,0,1,,,,,,,,0,,,74,0
6048,note_on,48,0,9,,,,,,,,7,,,74,0
6048,note_on,48,0,10,,,,,,,,8,,,67,0
6060,note_on,12,0,9,,,,,,,,7,,,73,80
6060,note_on,12,0,1,,,,,,,,0,,,73,80
6060,note_on,12,0,10,,,,,,,,8,,,69,80
6096,note_on,96,0,13,,,,,,,,12,,,33,0
6096,note_on,96,0,12,,,,,,,,11,,,45,0
6096,note_on,96,0,11,,,,,,,,10,,,64,0
6108,note_on,48,0,10,,,,,,,,8,,,69,0
6108,note_on,48,0,1,,,,,,,,0,,,73,0
6108,note_on,48,0,9,,,,,,,,7,,,73,0
6120,note_on,24,0,13,,,,,,,,12,,,45,80
6120,note_on,12,0,10,,,,,,,,8,,,67,80
6120,note_on,12,0,9,,,,,,,,7,,,71,80
6120,note_on,24,0,11,,,,,,,,10,,,64,80
6120,note_on,24,0,12,,,,,,,,11,,,57,80
6120,note_on,12,0,1,,,,,,,,0,,,71,80
6168,note_on,48,0,10,,,,,,,,8,,,67,0
6168,note_on,48,0,1,,,,,,,,0,,,71,0
6168,note_on,48,0,9,,,,,,,,7,,,71,0
6180,note_on,12,0,10,,,,,,,,8,,,69,80
6180,note_on,12,0,1,,,,,,,,0,,,73,80
6180,note_on,12,0,9,,,,,,,,7,,,73,80
6216,note_on,96,0,12,,,,,,,,11,,,57,0
6216,note_on,96,0,13,,,,,,,,12,,,45,0
6216,note_on,96,0,11,,,,,,,,10,,,64,0
6228,note_on,48,0,10,,,,,,,,8,,,69,0
6228,note_on,48,0,1,,,,,,,,0,,,73,0
6228,note_on,48,0,9,,,,,,,,7,,,73,0
6240,note_on,24,0,11,,,,,,,,10,,,62,80
6240,note_on,12,0,10,,,,,,,,8,,,66,80
6240,note_on,24,0,12,,,,,,,,11,,,50,80
6240,note_on,12,0,9,,,,,,,,7,,,74,80
6240,note_on,24,0,13,,,,,,,,12,,,38,80
6240,note_on,12,0,1,,,,,,,,0,,,74,80
6288,note_on,48,0,10,,,,,,,,8,,,66,0
6300,note_on,12,0,10,,,,,,,,8,,,69,80
6336,note_on,96,0,13,,,,,,,,12,,,38,0
6336,note_on,96,0,11,,,,,,,,10,,,62,0
6336,note_on,96,0,1,,,,,,,,0,,,74,0
6336,note_on,96,0,12,,,,,,,,11,,,50,0
6336,note_on,96,0,9,,,,,,,,7,,,74,0
6348,note_on,48,0,10,,,,,,,,8,,,69,0
6360,note_on,24,0,11,,,,,,,,10,,,57,80
6360,note_on,24,0,9,,,,,,,,7,,,74,80
6360,note_on,24,0,12,,,,,,,,11,,,50,80
6360,note_on,24,0,13,,,,,,,,12,,,38,80
6360,note_on,24,0,1,,,,,,,,0,,,74,80
6360,note_on,12,0,10,,,,,,,,8,,,66,80
6408,note_on,48,0,10,,,,,,,,8,,,66,0
6420,note_on,12,0,10,,,,,,,,8,,,69,80
6456,note_on,96,0,13,,,,,,,,12,,,38,0
6456,note_on,96,0,12,,,,,,,,11,,,50,0
6468,note_on,48,0,10,,,,,,,,8,,,69,0
6480,note_on,24,0,12,,,,,,,,11,,,50,80
6480,note_on,12,0,10,,,,,,,,8,,,66,80
6480,note_on,24,0,13,,,,,,,,12,,,38,80
6528,note_on,48,0,10,,,,,,,,8,,,66,0
6540,note_on,12,0,10,,,,,,,,8,,,69,80
6552,note_on,192,0,11,,,,,,,,10,,,57,0
6552,note_on,192,0,1,,,,,,,,0,,,74,0
6552,note_on,192,0,9,,,,,,,,7,,,74,0
6576,note_on,96,0,12,,,,,,,,11,,,50,0
6576,note_on,96,0,13,,,,,,,,12,,,38,0
6588,note_on,48,0,10,,,,,,,,8,,,69,0
6600,note_on,12,0,10,,,,,,,,8,,,66,80
6600,note_on,48,0,11,,,,,,,,10,,,62,80
6600,note_on,48,0,1,,,,,,,,0,,,78,80
6600,note_on,24,0,12,,,,,,,,11,,,50,80
6600,note_on,48,0,9,,,,,,,,7,,,78,80
6600,note_on,24,0,13,,,,,,,,12,,,38,80
6648,note_on,48,0,10,,,,,,,,8,,,66,0
6660,note_on,12,0,10,,,,,,,,8,,,69,80
6696,note_on,96,0,1,,,,,,,,0,,,78,0
6696,note_on,96,0,13,,,,,,,,12,,,38,0
6696,note_on,96,0,12,,,,,,,,11,,,50,0
6696,note_on,96,0,9,,,,,,,,7,,,78,0
6696,note_on,96,0,11,,,,,,,,10,,,62,0
6708,note_on,48,0,10,,,,,,,,8,,,69,0
6720,note_on,24,0,1,,,,,,,,0,,,81,80
6720,note_on,24,0,13,,,,,,,,12,,,38,80
6720,note_on,12,0,10,,,,,,,,8,,,62,80
6720,note_on,24,0,9,,,,,,,,7,,,81,80
6720,note_on,24,0,11,,,,,,,,10,,,66,80
6720,note_on,24,0,12,,,,,,,,11,,,50,80
6768,note_on,48,0,10,,,,,,,,8,,,62,0
6780,note_on,12,0,10,,,,,,,,8,,,69,80
6816,note_on,96,0,9,,,,,,,,7,,,81,0
6816,note_on,96,0,1,,,,,,,,0,,,81,0
6816,note_on,96,0,12,,,,,,,,11,,,50,0
6816,note_on,96,0,11,,,,,,,,10,,,66,0
6816,note_on,96,0,13,,,,,,,,12,,,38,0
6828,note_on,48,0,10,,,,,,,,8,,,69,0
6840,note_on,12,0,10,,,,,,,,8,,,62,80
6840,note_on,24,0,11,,,,,,,,10,,,66,80
6840,note_on,24,0,1,,,,,,,,0,,,81,80
6840,note_on,24,0,13,,,,,,,,12,,,38,80
6840,note_on,24,0,12,,,,,,,,11,,,50,80
6840,note_on,24,0,9,,,,,,,,7,,,81,80
6888,note_on,48,0,10,,,,,,,,8,,,62,0
6900,note_on,12,0,10,,,,,,,,8,,,69,80
6936,note_on,96,0,13,,,,,,,,12,,,38,0
6936,note_on,96,0,12,,,,,,,,11,,,50,0
6948,note_on,48,0,10,,,,,,,,8,,,69,0
6960,note_on,24,0,13,,,,,,,,12,,,38,80
6960,note_on,12,0,10,,,,,,,,8,,,62,80
6960,note_on,24,0,12,,,,,,,,11,,,50,80
7008,note_on,48,0,10,,,,,,,,8,,,62,0
7020,note_on,12,0,10,,,,,,,,8,,,69,80
7032,note_on,192,0,1,,,,,,,,0,,,81,0
7032,note_on,192,0,11,,,,,,,,10,,,66,0
7032,note_on,192,0,9,,,,,,,,7,,,81,0
7056,note_on,96,0,13,,,,,,,,12,,,38,0
7056,note_on,96,0,12,,,,,,,,11,,,50,0
7068,note_on,48,0,10,,,,,,,,8,,,69,0
7080,note_on,24,0,12,,,,,,,,11,,,50,80
7080,note_on,24,0,13,,,,,,,,12,,,38,80
7080,note_on,48,0,1,,,,,,,,0,,,78,80
7080,note_on,48,0,11,,,,,,,,10,,,69,80
7080,note_on,12,0,10,,,,,,,,8,,,62,80
7080,note_on,48,0,9,,,,,,,,7,,,78,80
7128,note_on,48,0,10,,,,,,,,8,,,62,0
7140,note_on,12,0,10,,,,,,,,8,,,69,80
7176,note_on,96,0,1,,,,,,,,0,,,78,0
7176,note_on,96,0,13,,,,,,,,12,,,38,0
7176,note_on,96,0,11,,,,,,,,10,,,69,0
7176,note_on,96,0,12,,,,,,,,11,,,50,0
7176,note_on,96,0,9,,,,,,,,7,,,78,0
7188,note_on,48,0,10,,,,,,,,8,,,69,0
7200,note_on,24,0,9,,,,,,,,7,,,76,80
7200,note_on,12,0,10,,,,,,,,8,,,61,80
7200,note_on,24,0,11,,,,,,,,10,,,64,80
7200,note_on,24,0,12,,,,,,,,11,,,52,80
7200,note_on,24,0,13,,,,,,,,12,,,40,80
7200,note_on,24,0,1,,,,,,,,0,,,76,80
7248,note_on,48,0,10,,,,,,,,8,,,61,0
7260,note_on,12,0,10,,,,,,,,8,,,64,80
7296,note_on,96,0,9,,,,,,,,7,,,76,0
7296,note_on,96,0,13,,,,,,,,12,,,40,0
7296,note_on,96,0,12,,,,,,,,11,,,52,0
7296,note_on,96,0,1,,,,,,,,0,,,76,0
7296,note_on,96,0,11,,,,,,,,10,,,64,0
7308,note_on,48,0,10,,,,,,,,8,,,64,0
7320,note_on,24,0,9,,,,,,,,7,,,81,80
7320,note_on,24,0,1,,,,,,,,0,,,81,80
7320,note_on,12,0,10,,,,,,,,8,,,61,80
7320,note_on,24,0,13,,,,,,,,12,,,40,80
7320,note_on,24,0,12,,,,,,,,11,,,52,80
7320,note_on,24,0,11,,,,,,,,10,,,64,80
7368,note_on,48,0,10,,,,,,,,8,,,61,0
7380,note_on,12,0,10,,,,,,,,8,,,64,80
7416,note_on,96,0,13,,,,,,,,12,,,40,0
7416,note_on,96,0,11,,,,,,,,10,,,64,0
7416,note_on,96,0,12,,,,,,,,11,,,52,0
7428,note_on,48,0,10,,,,,,,,8,,,64,0
7440,note_on,24,0,12,,,,,,,,11,,,52,80
7440,note_on,12,0,10,,,,,,,,8,,,61,80
7440,note_on,24,0,13,,,,,,,,12,,,40,80
7440,note_on,24,0,11,,,,,,,,10,,,64,80
7488,note_on,48,0,10,,,,,,,,8,,,61,0
7500,note_on,12,0,10,,,,,,,,8,,,64,80
7512,note_on,192,0,9,,,,,,,,7,,,81,0
7512,note_on,192,0,1,,,,,,,,0,,,81,0
7536,note_on,96,0,13,,,,,,,,12,,,40,0
7536,note_on,96,0,11,,,,,,,,10,,,64,0
7536,note_on,96,0,12,,,,,,,,11,,,52,0
7548,note_on,48,0,10,,,,,,,,8,,,64,0
7560,note_on,24,0,11,,,,,,,,10,,,64,80
7560,note_on,48,0,9,,,,,,,,7,,,83,80
7560,note_on,12,0,10,,,,,,,,8,,,62,80
7560,note_on,24,0,13,,,,,,,,12,,,40,80
7560,note_on,24,0,12,,,,,,,,11,,,52,80
7560,note_on,48,0,1,,,,,,,,0,,,83,80
7608,note_on,48,0,9,,,,,,,,7,,,83,0
7608,note_on,48,0,10,,,,,,,,8,,,62,0
7608,note_on,48,0,1,,,,,,,,0,,,83,0
7620,note_on,12,0,10,,,,,,,,8,,,59,80
7620,note_on,12,0,1,,,,,,,,0,,,80,80
7620,note_on,12,0,9,,,,,,,,7,,,80,80
7656,note_on,96,0,11,,,,,,,,10,,,64,0
7656,note_on,96,0,13,,,,,,,,12,,,40,0
7656,note_on,96,0,12,,,,,,,,11,,,52,0
7668,note_on,48,0,10,,,,,,,,8,,,59,0
7668,note_on,48,0,9,,,,,,,,7,,,80,0
7668,note_on,48,0,1,,,,,,,,0,,,80,0
7680,note_on,24,0,11,,,,,,,,10,,,64,80
7680,note_on,24,0,12,,,,,,,,11,,,57,80
7680,note_on,24,0,13,,,,,,,,12,,,45,80
7680,note_on,12,0,10,,,,,,,,8,,,61,80
7680,note_on,12,0,9,,,,,,,,7,,,81,80
7680,note_on,12,0,1,,,,,,,,0,,,81,80
7776,note_on,96,0,13,,,,,,,,12,,,45,0
7776,note_on,96,0,12,,,,,,,,11,,,57,0
7800,note_on,24,0,12,,,,,,,,11,,,52,80
7800,note_on,24,0,13,,,,,,,,12,,,40,80
7872,note_on,192,0,1,,,,,,,,0,,,81,0
7872,note_on,192,0,11,,,,,,,,10,,,64,0
7872,note_on,192,0,10,,,,,,,,8,,,61,0
7872,note_on,192,0,9,,,,,,,,7,,,81,0
7896,note_on,96,0,13,,,,,,,,12,,,40,0
7896,note_on,96,0,12,,,,,,,,11,,,52,0
7920,note_on,24,0,12,,,,,,,,11,,,45,80
7920,note_on,24,0,13,,,,,,,,12,,,33,80
8016,note_on,96,0,12,,,,,,,,11,,,45,0
8016,note_on,96,0,13,,,,,,,,12,,,33,0
8040,note_on,168,0,10,,,,,,,,8,,,69,80
8040,note_on,168,0,1,,,,,,,,0,,,81,80
8040,note_on,168,0,9,,,,,,,,7,,,81,80
8136,note_on,96,0,9,,,,,,,,7,,,81,0
8136,note_on,96,0,10,,,,,,,,8,,,69,0
8136,note_on,96,0,1,,,,,,,,0,,,81,0
8160,note_on,24,0,10,,,,,,,,8,,,69,80
8160,note_on,144,0,13,,,,,,,,12,,,42,80
8160,note_on,144,0,12,,,,,,,,11,,,54,80
8160,note_on,24,0,9,,,,,,,,7,,,81,80
8160,note_on,288,0,11,,,,,,,,10,,,62,80
8160,note_on,24,0,1,,,,,,,,0,,,81,80
8352,note_on,192,0,13,,,,,,,,12,,,42,0
8352,note_on,192,0,9,,,,,,,,7,,,81,0
8352,note_on,192,0,1,,,,,,,,0,,,81,0
8352,note_on,192,0,12,,,,,,,,11,,,54,0
8352,note_on,192,0,10,,,,,,,,8,,,69,0
8352,note_on,192,0,11,,,,,,,,10,,,62,0
8400,note_on,48,0,1,,,,,,,,0,,,86,80
8400,note_on,48,0,10,,,,,,,,8,,,74,80
8400,note_on,48,0,9,,,,,,,,7,,,86,80
8448,note_on,48,0,1,,,,,,,,0,,,86,0
8448,note_on,48,0,9,,,,,,,,7,,,86,0
8448,note_on,48,0,10,,,,,,,,8,,,74,0
8460,note_on,12,0,1,,,,,,,,0,,,85,80
8460,note_on,12,0,10,,,,,,,,8,,,73,80
8460,note_on,12,0,9,,,,,,,,7,,,85,80
8508,note_on,48,0,9,,,,,,,,7,,,85,0
8508,note_on,48,0,10,,,,,,,,8,,,73,0
8508,note_on,48,0,1,,,,,,,,0,,,85,0
8520,note_on,168,0,13,,,,,,,,12,,,42,80
8520,note_on,12,0,9,,,,,,,,7,,,83,80
8520,note_on,12,0,10,,,,,,,,8,,,71,80
8520,note_on,168,0,11,,,,,,,,10,,,62,80
8520,note_on,168,0,12,,,,,,,,11,,,54,80
8520,note_on,12,0,1,,,,,,,,0,,,83,80
8568,note_on,48,0,9,,,,,,,,7,,,83,0
8568,note_on,48,0,10,,,,,,,,8,,,71,0
8568,note_on,48,0,1,,,,,,,,0,,,83,0
8580,note_on,12,0,10,,,,,,,,8,,,69,80
8580,note_on,12,0,1,,,,,,,,0,,,81,80
8580,note_on,12,0,9,,,,,,,,7,,,81,80
8616,note_on,96,0,11,,,,,,,,10,,,62,0
8616,note_on,96,0,12,,,,,,,,11,,,54,0
8616,note_on,96,0,13,,,,,,,,12,,,42,0
8628,note_on,48,0,1,,,,,,,,0,,,81,0
8628,note_on,48,0,10,,,,,,,,8,,,69,0
8628,note_on,48,0,9,,,,,,,,7,,,81,0
8640,note_on,24,0,13,,,,,,,,12,,,40,80
8640,note_on,12,0,1,,,,,,,,0,,,79,80
8640,note_on,24,0,12,,,,,,,,11,,,52,80
8640,note_on,12,0,10,,,,,,,,8,,,67,80
8640,note_on,24,0,11,,,,,,,,10,,,61,80
8640,note_on,12,0,9,,,,,,,,7,,,79,80
8736,note_on,96,0,10,,,,,,,,8,,,67,0
8736,note_on,96,0,1,,,,,,,,0,,,79,0
8736,note_on,96,0,9,,,,,,,,7,,,79,0
8736,note_on,96,0,11,,,,,,,,10,,,61,0
8736,note_on,96,0,13,,,,,,,,12,,,40,0
8736,note_on,96,0,12,,,,,,,,11,,,52,0
8760,note_on,24,0,9,,,,,,,,7,,,78,80
8760,note_on,24,0,10,,,,,,,,8,,,66,80
8760,note_on,24,0,12,,,,,,,,11,,,50,80
8760,note_on,24,0,11,,,,,,,,10,,,62,80
8760,note_on,24,0,13,,,,,,,,12,,,38,80
8760,note_on,24,0,1,,,,,,,,0,,,78,80
8856,note_on,96,0,10,,,,,,,,8,,,66,0
8856,note_on,96,0,1,,,,,,,,0,,,78,0
8856,note_on,96,0,13,,,,,,,,12,,,38,0
8856,note_on,96,0,11,,,,,,,,10,,,62,0
8856,note_on,96,0,12,,,,,,,,11,,,50,0
8856,note_on,96,0,9,,,,,,,,7,,,78,0
8880,note_on,24,0,10,,,,,,,,8,,,64,80
8880,note_on,24,0,13,,,,,,,,12,,,37,80
8880,note_on,24,0,9,,,,,,,,7,,,76,80
8880,note_on,24,0,11,,,,,,,,10,,,57,80
8880,note_on,24,0,12,,,,,,,,11,,,49,80
8880,note_on,24,0,1,,,,,,,,0,,,76,80
8976,note_on,96,0,13,,,,,,,,12,,,37,0
8976,note_on,96,0,1,,,,,,,,0,,,76,0
8976,note_on,96,0,9,,,,,,,,7,,,76,0
8976,note_on,96,0,11,,,,,,,,10,,,57,0
8976,note_on,96,0,10,,,,,,,,8,,,64,0
8976,note_on,96,0,12,,,,,,,,11,,,49,0
9120,note_on,144,0,12,,,,,,,,11,,,50,80
9120,note_on,144,0,13,,,,,,,,12,,,38,80
9120,note_on,144,0,1,,,,,,,,0,,,78,80
9120,note_on,144,0,11,,,,,,,,10,,,69,80
9120,note_on,144,0,10,,,,,,,,8,,,66,80
9120,note_on,144,0,9,,,,,,,,7,,,78,80
9312,note_on,192,0,13,,,,,,,,12,,,38,0
9312,note_on,192,0,10,,,,,,,,8,,,66,0
9312,note_on,192,0,11,,,,,,,,10,,,69,0
9312,note_on,192,0,12,,,,,,,,11,,,50,0
9312,note_on,192,0,9,,,,,,,,7,,,78,0
9312,note_on,192,0,1,,,,,,,,0,,,78,0
9360,note_on,48,0,1,,,,,,,,0,,,79,80
9360,note_on,48,0,10,,,,,,,,8,,,67,80
9360,note_on,48,0,9,,,,,,,,7,,,79,80
9408,note_on,48,0,9,,,,,,,,7,,,79,0
9408,note_on,48,0,1,,,,,,,,0,,,79,0
9408,note_on,48,0,10,,,,,,,,8,,,67,0
9420,note_on,12,0,9,,,,,,,,7,,,78,80
9420,note_on,12,0,10,,,,,,,,8,,,66,80
9420,note_on,12,0,1,,,,,,,,0,,,78,80
9468,note_on,48,0,1,,,,,,,,0,,,78,0
9468,note_on,48,0,10,,,,,,,,8,,,66,0
9468,note_on,48,0,9,,,,,,,,7,,,78,0
9480,note_on,168,0,13,,,,,,,,12,,,42,80
9480,note_on,168,0,12,,,,,,,,11,,,54,80
9480,note_on,168,0,11,,,,,,,,10,,,57,80
9480,note_on,12,0,9,,,,,,,,7,,,76,80
9480,note_on,12,0,10,,,,,,,,8,,,64,80
9480,note_on,12,0,1,,,,,,,,0,,,76,80
9528,note_on,48,0,9,,,,,,,,7,,,76,0
9528,note_on,48,0,10,,,,,,,,8,,,64,0
9528,note_on,48,0,1,,,,,,,,0,,,76,0
9540,note_on,12,0,1,,,,,,,,0,,,74,80
9540,note_on,12,0,10,,,,,,,,8,,,62,80
9540,note_on,12,0,9,,,,,,,,7,,,74,80
9576,note_on,96,0,11,,,,,,,,10,,,57,0
9576,note_on,96,0,12,,,,,,,,11,,,54,0
9576,note_on,96,0,13,,,,,,,,12,,,42,0
9588,note_on,48,0,9,,,,,,,,7,,,74,0
9588,note_on,48,0,1,,,,,,,,0,,,74,0
9588,note_on,48,0,10,,,,,,,,8,,,62,0
9600,note_on,24,0,13,,,,,,,,12,,,45,80
9600,note_on,24,0,12,,,,,,,,11,,,57,80
9600,note_on,12,0,9,,,,,,,,7,,,73,80
9600,note_on,12,0,10,,,,,,,,8,,,61,80
9600,note_on,12,0,1,,,,,,,,0,,,73,80
9600,note_on,24,0,11,,,,,,,,10,,,61,80
9696,note_on,96,0,12,,,,,,,,11,,,57,0
9696,note_on,96,0,1,,,,,,,,0,,,73,0
9696,note_on,96,0,9,,,,,,,,7,,,73,0
9696,note_on,96,0,10,,,,,,,,8,,,61,0
9696,note_on,96,0,13,,,,,,,,12,,,45,0
9696,note_on,96,0,11,,,,,,,,10,,,61,0
9720,note_on,24,0,12,,,,,,,,11,,,59,80
9720,note_on,24,0,13,,,,,,,,12,,,47,80
9720,note_on,24,0,10,,,,,,,,8,,,59,80
9720,note_on,24,0,9,,,,,,,,7,,,71,80
9720,note_on,24,0,1,,,,,,,,0,,,71,80
9720,note_on,24,0,11,,,,,,,,10,,,62,80
9816,note_on,96,0,12,,,,,,,,11,,,59,0
9816,note_on,96,0,10,,,,,,,,8,,,59,0
9816,note_on,96,0,11,,,,,,,,10,,,62,0
9816,note_on,96,0,13,,,,,,,,12,,,47,0
9816,note_on,96,0,9,,,,,,,,7,,,71,0
9816,note_on,96,0,1,,,,,,,,0,,,71,0
9840,note_on,24,0,10,,,,,,,,8,,,57,80
9840,note_on,24,0,11,,,,,,,,10,,,64,80
9840,note_on,24,0,1,,,,,,,,0,,,69,80
9840,note_on,24,0,9,,,,,,,,7,,,69,80
9840,note_on,24,0,13,,,,,,,,12,,,49,80
9840,note_on,24,0,12,,,,,,,,11,,,61,80
9936,note_on,96,0,12,,,,,,,,11,,,61,0
9936,note_on,96,0,11,,,,,,,,10,,,64,0
9936,note_on,96,0,13,,,,,,,,12,,,49,0
9936,note_on,96,0,10,,,,,,,,8,,,57,0
9936,note_on,96,0,1,,,,,,,,0,,,69,0
9936,note_on,96,0,9,,,,,,,,7,,,69,0
9960,note_on,24,0,1,,,,,,,,0,,,69,80
9960,note_on,24,0,9,,,,,,,,7,,,69,80
10056,note_on,96,0,9,,,,,,,,7,,,69,0
10056,note_on,96,0,1,,,,,,,,0,,,69,0
10080,note_on,144,0,11,,,,,,,,10,,,69,80
10080,note_on,144,0,13,,,,,,,,12,,,42,80
10080,note_on,24,0,1,,,,,,,,0,,,74,80
10080,note_on,24,0,9,,,,,,,,7,,,74,80
10080,note_on,144,0,12,,,,,,,,11,,,54,80
10080,note_on,144,0,10,,,,,,,,8,,,62,80
10128,note_on,48,0,10,,,,,,,,8,,,62,0
10140,note_on,12,0,10,,,,,,,,8,,,66,80
10176,note_on,96,0,13,,,,,,,,12,,,42,0
10176,note_on,96,0,12,,,,,,,,11,,,54,0
10188,note_on,48,0,10,,,,,,,,8,,,66,0
10200,note_on,24,0,12,,,,,,,,11,,,54,80
10200,note_on,12,0,10,,,,,,,,8,,,62,80
10200,note_on,24,0,13,,,,,,,,12,,,42,80
10248,note_on,48,0,10,,,,,,,,8,,,62,0
10260,note_on,12,0,10,,,,,,,,8,,,66,80
10272,note_on,192,0,11,,,,,,,,10,,,69,0
10272,note_on,192,0,1,,,,,,,,0,,,74,0
10272,note_on,192,0,9,,,,,,,,7,,,74,0
10296,note_on,96,0,13,,,,,,,,12,,,42,0
10296,note_on,96,0,12,,,,,,,,11,,,54,0
10308,note_on,48,0,10,,,,,,,,8,,,66,0
10320,note_on,24,0,13,,,,,,,,12,,,42,80
10320,note_on,24,0,12,,,,,,,,11,,,54,80
10320,note_on,48,0,1,,,,,,,,0,,,81,80
10320,note_on,48,0,9,,,,,,,,7,,,81,80
10320,note_on,12,0,10,,,,,,,,8,,,62,80
10320,note_on,48,0,11,,,,,,,,10,,,66,80
10368,note_on,48,0,10,,,,,,,,8,,,62,0
10380,note_on,12,0,10,,,,,,,,8,,,66,80
10416,note_on,96,0,13,,,,,,,,12,,,42,0
10416,note_on,96,0,12,,,,,,,,11,,,54,0
10428,note_on,48,0,10,,,,,,,,8,,,66,0
10440,note_on,24,0,13,,,,,,,,12,,,42,80
10440,note_on,24,0,12,,,,,,,,11,,,54,80
10440,note_on,12,0,10,,,,,,,,8,,,62,80
10488,note_on,48,0,10,,,,,,,,8,,,62,0
10500,note_on,12,0,10,,,,,,,,8,,,66,80
10512,note_on,192,0,9,,,,,,,,7,,,81,0
10512,note_on,192,0,1,,,,,,,,0,,,81,0
10512,note_on,192,0,11,,,,,,,,10,,,66,0
10536,note_on,96,0,12,,,,,,,,11,,,54,0
10536,note_on,96,0,13,,,,,,,,12,,,42,0
10548,note_on,48,0,10,,,,,,,,8,,,66,0
10560,note_on,24,0,13,,,,,,,,12,,,43,80
10560,note_on,48,0,1,,,,,,,,0,,,82,80
10560,note_on,24,0,12,,,,,,,,11,,,55,80
10560,note_on,48,0,9,,,,,,,,7,,,82,80
10560,note_on,48,0,11,,,,,,,,10,,,64,80
10560,note_on,12,0,10,,,,,,,,8,,,62,80
10608,note_on,48,0,10,,,,,,,,8,,,62,0
10620,note_on,12,0,10,,,,,,,,8,,,64,80
10656,note_on,96,0,13,,,,,,,,12,,,43,0
10656,note_on,96,0,12,,,,,,,,11,,,55,0
10656,note_on,96,0,9,,,,,,,,7,,,82,0
10656,note_on,96,0,1,,,,,,,,0,,,82,0
10668,note_on,48,0,10,,,,,,,,8,,,64,0
10680,note_on,24,0,13,,,,,,,,12,,,43,80
10680,note_on,24,0,12,,,,,,,,11,,,55,80
10680,note_on,24,0,9,,,,,,,,7,,,83,80
10680,note_on,12,0,10,,,,,,,,8,,,62,80
10680,note_on,24,0,1,,,,,,,,0,,,83,80
10728,note_on,48,0,10,,,,,,,,8,,,62,0
10740,note_on,12,0,10,,,,,,,,8,,,64,80
10776,note_on,96,0,12,,,,,,,,11,,,55,0
10776,note_on,96,0,13,,,,,,,,12,,,43,0
10788,note_on,48,0,10,,,,,,,,8,,,64,0
10800,note_on,24,0,12,,,,,,,,11,,,55,80
10800,note_on,12,0,10,,,,,,,,8,,,62,80
10800,note_on,24,0,13,,,,,,,,12,,,43,80
10848,note_on,48,0,10,,,,,,,,8,,,62,0
10848,note_on,288,0,11,,,,,,,,10,,,64,0
10860,note_on,12,0,10,,,,,,,,8,,,64,80
10872,note_on,192,0,9,,,,,,,,7,,,83,0
10872,note_on,192,0,1,,,,,,,,0,,,83,0
10896,note_on,96,0,13,,,,,,,,12,,,43,0
10896,note_on,96,0,12,,,,,,,,11,,,55,0
10908,note_on,48,0,10,,,,,,,,8,,,64,0
10920,note_on,48,0,1,,,,,,,,0,,,79,80
10920,note_on,24,0,13,,,,,,,,12,,,43,80
10920,note_on,24,0,12,,,,,,,,11,,,55,80
10920,note_on,48,0,9,,,,,,,,7,,,79,80
10920,note_on,72,0,11,,,,,,,,10,,,71,80
10920,note_on,12,0,10,,,,,,,,8,,,62,80
10968,note_on,48,0,10,,,,,,,,8,,,62,0
10968,note_on,48,0,9,,,,,,,,7,,,79,0
10968,note_on,48,0,1,,,,,,,,0,,,79,0
10980,note_on,12,0,1,,,,,,,,0,,,76,80
10980,note_on,12,0,9,,,,,,,,7,,,76,80
10980,note_on,12,0,10,,,,,,,,8,,,64,80
11016,note_on,96,0,12,,,,,,,,11,,,55,0
11016,note_on,96,0,11,,,,,,,,10,,,71,0
11016,note_on,96,0,13,,,,,,,,12,,,43,0
11028,note_on,48,0,9,,,,,,,,7,,,76,0
11028,note_on,48,0,1,,,,,,,,0,,,76,0
11028,note_on,48,0,10,,,,,,,,8,,,64,0
11040,note_on,24,0,13,,,,,,,,12,,,45,80
11040,note_on,12,0,10,,,,,,,,8,,,61,80
11040,note_on,12,0,1,,,,,,,,0,,,81,80
11040,note_on,24,0,12,,,,,,,,11,,,57,80
11040,note_on,12,0,9,,,,,,,,7,,,81,80
11040,note_on,24,0,11,,,,,,,,10,,,69,80
11088,note_on,48,0,10,,,,,,,,8,,,61,0
11100,note_on,12,0,10,,,,,,,,8,,,64,80
11136,note_on,96,0,13,,,,,,,,12,,,45,0
11136,note_on,96,0,12,,,,,,,,11,,,57,0
11136,note_on,96,0,1,,,,,,,,0,,,81,0
11136,note_on,96,0,9,,,,,,,,7,,,81,0
11136,note_on,96,0,11,,,,,,,,10,,,69,0
11148,note_on,48,0,10,,,,,,,,8,,,64,0
11160,note_on,24,0,13,,,,,,,,12,,,45,80
11160,note_on,24,0,12,,,,,,,,11,,,57,80
11160,note_on,24,0,1,,,,,,,,0,,,79,80
11160,note_on,24,0,11,,,,,,,,10,,,69,80
11160,note_on,12,0,10,,,,,,,,8,,,61,80
11160,note_on,24,0,9,,,,,,,,7,,,79,80
11208,note_on,48,0,10,,,,,,,,8,,,61,0
11220,note_on,12,0,10,,,,,,,,8,,,64,80
11256,note_on,96,0,11,,,,,,,,10,,,69,0
11256,note_on,96,0,12,,,,,,,,11,,,57,0
11256,note_on,96,0,13,,,,,,,,12,,,45,0
11268,note_on,48,0,10,,,,,,,,8,,,64,0
11280,note_on,24,0,11,,,,,,,,10,,,69,80
11280,note_on,24,0,12,,,,,,,,11,,,57,80
11280,note_on,24,0,13,,,,,,,,12,,,45,80
11280,note_on,12,0,10,,,,,,,,8,,,61,80
11328,note_on,48,0,10,,,,,,,,8,,,61,0
11340,note_on,12,0,10,,,,,,,,8,,,64,80
11352,note_on,192,0,1,,,,,,,,0,,,79,0
11352,note_on,192,0,9,,,,,,,,7,,,79,0
11376,note_on,96,0,12,,,,,,,,11,,,57,0
11376,note_on,96,0,13,,,,,,,,12,,,45,0
11376,note_on,96,0,11,,,,,,,,10,,,69,0
11388,note_on,48,0,10,,,,,,,,8,,,64,0
11400,note_on,24,0,12,,,,,,,,11,,,57,80
11400,note_on,24,0,13,,,,,,,,12,,,45,80
11400,note_on,48,0,9,,,,,,,,7,,,76,80
11400,note_on,24,0,11,,,,,,,,10,,,69,80
11400,note_on,12,0,10,,,,,,,,8,,,67,80
11400,note_on,48,0,1,,,,,,,,0,,,76,80
11448,note_on,48,0,9,,,,,,,,7,,,76,0
11448,note_on,48,0,10,,,,,,,,8,,,67,0
11448,note_on,48,0,1,,,,,,,,0,,,76,0
11460,note_on,12,0,10,,,,,,,,8,,,64,80
11460,note_on,12,0,9,,,,,,,,7,,,73,80
11460,note_on,12,0,1,,,,,,,,0,,,73,80
11496,note_on,96,0,13,,,,,,,,12,,,45,0
11496,note_on,96,0,12,,,,,,,,11,,,57,0
11496,note_on,96,0,11,,,,,,,,10,,,69,0
11508,note_on,48,0,10,,,,,,,,8,,,64,0
11508,note_on,48,0,1,,,,,,,,0,,,73,0
11508,note_on,48,0,9,,,,,,,,7,,,73,0
11520,note_on,24,0,13,,,,,,,,12,,,50,80
11520,note_on,12,0,10,,,,,,,,8,,,66,80
11520,note_on,12,0,1,,,,,,,,0,,,74,80
11520,note_on,24,0,11,,,,,,,,10,,,69,80
11520,note_on,12,0,9,,,,,,,,7,,,74,80
11520,note_on,24,0,12,,,,,,,,11,,,62,80
11616,note_on,96,0,13,,,,,,,,12,,,50,0
11616,note_on,96,0,12,,,,,,,,11,,,62,0
11640,note_on,24,0,13,,,,,,,,12,,,45,80
11640,note_on,24,0,12,,,,,,,,11,,,57,80
11712,note_on,192,0,1,,,,,,,,0,,,74,0
11712,note_on,192,0,11,,,,,,,,10,,,69,0
11712,note_on,192,0,9,,,,,,,,7,,,74,0
11712,note_on,192,0,10,,,,,,,,8,,,66,0
11736,note_on,96,0,13,,,,,,,,12,,,45,0
11736,note_on,96,0,12,,,,,,,,11,,,57,0
11760,note_on,24,0,13,,,,,,,,12,,,38,80
11760,note_on,24,0,12,,,,,,,,11,,,50,80
11856,note_on,96,0,13,,,,,,,,12,,,38,0
11856,note_on,96,0,12,,,,,,,,11,,,50,0
11880,note_on,168,0,9,,,,,,,,7,,,81,80
11880,note_on,168,0,1,,,,,,,,0,,,81,80
11976,note_on,96,0,9,,,,,,,,7,,,81,0
11976,note_on,96,0,1,,,,,,,,0,,,81,0
12000,note_on,24,0,1,,,,,,,,0,,,81,80
12000,note_on,288,0,10,,,,,,,,8,,,69,80
12000,note_on,144,0,12,,,,,,,,11,,,54,80
12000,note_on,144,0,13,,,,,,,,12,,,42,80
12000,note_on,288,0,11,,,,,,,,10,,,62,80
12000,note_on,24,0,9,,,,,,,,7,,,81,80
12192,note_on,192,0,13,,,,,,,,12,,,42,0
12192,note_on,192,0,12,,,,,,,,11,,,54,0
12192,note_on,192,0,11,,,,,,,,10,,,62,0
12192,note_on,192,0,10,,,,,,,,8,,,69,0
12192,note_on,192,0,9,,,,,,,,7,,,81,0
12192,note_on,192,0,1,,,,,,,,0,,,81,0
12240,note_on,48,0,9,,,,,,,,7,,,86,80
12240,note_on,48,0,1,,,,,,,,0,,,86,80
12240,note_on,48,0,10,,,,,,,,8,,,74,80
12288,note_on,48,0,1,,,,,,,,0,,,86,0
12288,note_on,48,0,10,,,,,,,,8,,,74,0
12288,note_on,48,0,9,,,,,,,,7,,,86,0
12300,note_on,12,0,9,,,,,,,,7,,,85,80
12300,note_on,12,0,1,,,,,,,,0,,,85,80
12300,note_on,12,0,10,,,,,,,,8,,,73,80
12348,note_on,48,0,10,,,,,,,,8,,,73,0
12348,note_on,48,0,9,,,,,,,,7,,,85,0
12348,note_on,48,0,1,,,,,,,,0,,,85,0
12360,note_on,12,0,9,,,,,,,,7,,,83,80
12360,note_on,168,0,12,,,,,,,,11,,,54,80
12360,note_on,168,0,11,,,,,,,,10,,,62,80
12360,note_on,12,0,10,,,,,,,,8,,,71,80
12360,note_on,168,0,13,,,,,,,,12,,,42,80
12360,note_on,12,0,1,,,,,,,,0,,,83,80
12408,note_on,48,0,1,,,,,,,,0,,,83,0
12408,note_on,48,0,10,,,,,,,,8,,,71,0
12408,note_on,48,0,9,,,,,,,,7,,,83,0
12420,note_on,12,0,10,,,,,,,,8,,,69,80
12420,note_on,12,0,1,,,,,,,,0,,,81,80
12420,note_on,12,0,9,,,,,,,,7,,,81,80
12456,note_on,96,0,13,,,,,,,,12,,,42,0
12456,note_on,96,0,12,,,,,,,,11,,,54,0
12456,note_on,96,0,11,,,,,,,,10,,,62,0
12468,note_on,48,0,1,,,,,,,,0,,,81,0
12468,note_on,48,0,9,,,,,,,,7,,,81,0
12468,note_on,48,0,10,,,,,,,,8,,,69,0
12480,note_on,12,0,1,,,,,,,,0,,,79,80
12480,note_on,24,0,13,,,,,,,,12,,,40,80
12480,note_on,24,0,12,,,,,,,,11,,,52,80
12480,note_on,12,0,9,,,,,,,,7,,,79,80
12480,note_on,24,0,11,,,,,,,,10,,,61,80
12480,note_on,12,0,10,,,,,,,,8,,,67,80
12576,note_on,96,0,11,,,,,,,,10,,,61,0
12576,note_on,96,0,1,,,,,,,,0,,,79,0
12576,note_on,96,0,13,,,,,,,,12,,,40,0
12576,note_on,96,0,12,,,,,,,,11,,,52,0
12576,note_on,96,0,10,,,,,,,,8,,,67,0
12576,note_on,96,0,9,,,,,,,,7,,,79,0
12600,note_on,24,0,9,,,,,,,,7,,,78,80
12600,note_on,24,0,12,,,,,,,,11,,,50,80
12600,note_on,24,0,11,,,,,,,,10,,,62,80
12600,note_on,24,0,13,,,,,,,,12,,,38,80
12600,note_on,24,0,10,,,,,,,,8,,,66,80
12600,note_on,24,0,1,,,,,,,,0,,,78,80
12696,note_on,96,0,1,,,,,,,,0,,,78,0
12696,note_on,96,0,12,,,,,,,,11,,,50,0
12696,note_on,96,0,11,,,,,,,,10,,,62,0
12696,note_on,96,0,9,,,,,,,,7,,,78,0
12696,note_on,96,0,13,,,,,,,,12,,,38,0
12696,note_on,96,0,10,,,,,,,,8,,,66,0
12720,note_on,24,0,12,,,,,,,,11,,,49,80
12720,note_on,24,0,13,,,,,,,,12,,,37,80
12720,note_on,24,0,10,,,,,,,,8,,,64,80
12720,note_on,24,0,9,,,,,,,,7,,,76,80
12720,note_on,24,0,1,,,,,,,,0,,,76,80
12720,note_on,24,0,11,,,,,,,,10,,,57,80
12816,note_on,96,0,10,,,,,,,,8,,,64,0
12816,note_on,96,0,9,,,,,,,,7,,,76,0
12816,note_on,96,0,1,,,,,,,,0,,,76,0
12816,note_on,96,0,12,,,,,,,,11,,,49,0
12816,note_on,96,0,13,,,,,,,,12,,,37,0
12816,note_on,96,0,11,,,,,,,,10,,,57,0
12960,note_on,144,0,12,,,,,,,,11,,,50,80
12960,note_on,144,0,13,,,,,,,,12,,,38,80
12960,note_on,144,0,1,,,,,,,,0,,,78,80
12960,note_on,144,0,10,,,,,,,,8,,,66,80
12960,note_on,144,0,9,,,,,,,,7,,,78,80
12960,note_on,144,0,11,,,,,,,,10,,,69,80
13152,note_on,192,0,11,,,,,,,,10,,,69,0
13152,note_on,192,0,9,,,,,,,,7,,,78,0
13152,note_on,192,0,13,,,,,,,,12,,,38,0
13152,note_on,192,0,1,,,,,,,,0,,,78,0
13152,note_on,192,0,12,,,,,,,,11,,,50,0
13152,note_on,192,0,10,,,,,,,,8,,,66,0
13200,note_on,48,0,1,,,,,,,,0,,,79,80
13200,note_on,48,0,10,,,,,,,,8,,,67,80
13200,note_on,48,0,9,,,,,,,,7,,,79,80
13248,note_on,48,0,9,,,,,,,,7,,,79,0
13248,note_on,48,0,1,,,,,,,,0,,,79,0
13248,note_on,48,0,10,,,,,,,,8,,,67,0
13260,note_on,12,0,1,,,,,,,,0,,,78,80
13260,note_on,12,0,10,,,,,,,,8,,,66,80
13260,note_on,12,0,9,,,,,,,,7,,,78,80
13308,note_on,48,0,10,,,,,,,,8,,,66,0
13308,note_on,48,0,9,,,,,,,,7,,,78,0
13308,note_on,48,0,1,,,,,,,,0,,,78,0
13320,note_on,12,0,10,,,,,,,,8,,,64,80
13320,note_on,168,0,11,,,,,,,,10,,,57,80
13320,note_on,168,0,12,,,,,,,,11,,,54,80
13320,note_on,12,0,1,,,,,,,,0,,,76,80
13320,note_on,12,0,9,,,,,,,,7,,,76,80
13320,note_on,168,0,13,,,,,,,,12,,,42,80
13368,note_on,48,0,9,,,,,,,,7,,,76,0
13368,note_on,48,0,10,,,,,,,,8,,,64,0
13368,note_on,48,0,1,,,,,,,,0,,,76,0
13380,note_on,12,0,10,,,,,,,,8,,,62,80
13380,note_on,12,0,9,,,,,,,,7,,,74,80
13380,note_on,12,0,1,,,,,,,,0,,,74,80
13416,note_on,96,0,13,,,,,,,,12,,,42,0
13416,note_on,96,0,12,,,,,,,,11,,,54,0
13416,note_on,96,0,11,,,,,,,,10,,,57,0
13428,note_on,48,0,1,,,,,,,,0,,,74,0
13428,note_on,48,0,10,,,,,,,,8,,,62,0
13428,note_on,48,0,9,,,,,,,,7,,,74,0
13440,note_on,12,0,10,,,,,,,,8,,,61,80
13440,note_on,12,0,9,,,,,,,,7,,,73,80
13440,note_on,24,0,11,,,,,,,,10,,,61,80
13440,note_on,24,0,12,,,,,,,,11,,,57,80
13440,note_on,24,0,13,,,,,,,,12,,,45,80
13440,note_on,12,0,1,,,,,,,,0,,,73,80
13536,note_on,96,0,13,,,,,,,,12,,,45,0
13536,note_on,96,0,1,,,,,,,,0,,,73,0
13536,note_on,96,0,12,,,,,,,,11,,,57,0
13536,note_on,96,0,10,,,,,,,,8,,,61,0
13536,note_on,96,0,9,,,,,,,,7,,,73,0
13536,note_on,96,0,11,,,,,,,,10,,,61,0
13560,note_on,24,0,9,,,,,,,,7,,,71,80
13560,note_on,24,0,1,,,,,,,,0,,,71,80
13560,note_on,24,0,10,,,,,,,,8,,,59,80
13560,note_on,24,0,11,,,,,,,,10,,,62,80
13560,note_on,24,0,12,,,,,,,,11,,,59,80
13560,note_on,24,0,13,,,,,,,,12,,,47,80
13656,note_on,96,0,13,,,,,,,,12,,,47,0
13656,note_on,96,0,9,,,,,,,,7,,,71,0
13656,note_on,96,0,12,,,,,,,,11,,,59,0
13656,note_on,96,0,10,,,,,,,,8,,,59,0
13656,note_on,96,0,1,,,,,,,,0,,,71,0
13656,note_on,96,0,11,,,,,,,,10,,,62,0
13680,note_on,24,0,12,,,,,,,,11,,,61,80
13680,note_on,24,0,13,,,,,,,,12,,,49,80
13680,note_on,24,0,10,,,,,,,,8,,,57,80
13680,note_on,24,0,1,,,,,,,,0,,,69,80
13680,note_on,24,0,11,,,,,,,,10,,,64,80
13680,note_on,24,0,9,,,,,,,,7,,,69,80
13776,note_on,96,0,9,,,,,,,,7,,,69,0
13776,note_on,96,0,13,,,,,,,,12,,,49,0
13776,note_on,96,0,10,,,,,,,,8,,,57,0
13776,note_on,96,0,12,,,,,,,,11,,,61,0
13776,note_on,96,0,11,,,,,,,,10,,,64,0
13776,note_on,96,0,1,,,,,,,,0,,,69,0
13800,note_on,24,0,1,,,,,,,,0,,,69,80
13800,note_on,24,0,9,,,,,,,,7,,,69,80
13896,note_on,96,0,1,,,,,,,,0,,,69,0
13896,note_on,96,0,9,,,,,,,,7,,,69,0
13920,note_on,144,0,11,,,,,,,,10,,,69,80
13920,note_on,24,0,1,,,,,,,,0,,,74,80
13920,note_on,144,0,13,,,,,,,,12,,,42,80
13920,note_on,144,0,12,,,,,,,,11,,,54,80
13920,note_on,24,0,9,,,,,,,,7,,,74,80
13920,note_on,144,0,10,,,,,,,,8,,,62,80
13968,note_on,48,0,10,,,,,,,,8,,,62,0
13980,note_on,12,0,10,,,,,,,,8,,,66,80
14016,note_on,96,0,12,,,,,,,,11,,,54,0
14016,note_on,96,0,13,,,,,,,,12,,,42,0
14028,note_on,48,0,10,,,,,,,,8,,,66,0
14040,note_on,12,0,10,,,,,,,,8,,,62,80
14040,note_on,24,0,12,,,,,,,,11,,,54,80
14040,note_on,24,0,13,,,,,,,,12,,,42,80
14088,note_on,48,0,10,,,,,,,,8,,,62,0
14100,note_on,12,0,10,,,,,,,,8,,,66,80
14112,note_on,192,0,1,,,,,,,,0,,,74,0
14112,note_on,192,0,11,,,,,,,,10,,,69,0
14112,note_on,192,0,9,,,,,,,,7,,,74,0
14136,note_on,96,0,13,,,,,,,,12,,,42,0
14136,note_on,96,0,12,,,,,,,,11,,,54,0
14148,note_on,48,0,10,,,,,,,,8,,,66,0
14160,note_on,24,0,12,,,,,,,,11,,,54,80
14160,note_on,48,0,9,,,,,,,,7,,,81,80
14160,note_on,48,0,11,,,,,,,,10,,,66,80
14160,note_on,48,0,1,,,,,,,,0,,,81,80
14160,note_on,12,0,10,,,,,,,,8,,,62,80
14160,note_on,24,0,13,,,,,,,,12,,,42,80
14208,note_on,48,0,10,,,,,,,,8,,,62,0
14220,note_on,12,0,10,,,,,,,,8,,,66,80
14256,note_on,96,0,12,,,,,,,,11,,,54,0
14256,note_on,96,0,13,,,,,,,,12,,,42,0
14268,note_on,48,0,10,,,,,,,,8,,,66,0
14280,note_on,24,0,13,,,,,,,,12,,,42,80
14280,note_on,12,0,10,,,,,,,,8,,,62,80
14280,note_on,24,0,12,,,,,,,,11,,,54,80
14328,note_on,48,0,10,,,,,,,,8,,,62,0
14340,note_on,12,0,10,,,,,,,,8,,,66,80
14352,note_on,192,0,11,,,,,,,,10,,,66,0
14352,note_on,192,0,9,,,,,,,,7,,,81,0
14352,note_on,192,0,1,,,,,,,,0,,,81,0
14376,note_on,96,0,13,,,,,,,,12,,,42,0
14376,note_on,96,0,12,,,,,,,,11,,,54,0
14388,note_on,48,0,10,,,,,,,,8,,,66,0
14400,note_on,48,0,9,,,,,,,,7,,,82,80
14400,note_on,48,0,11,,,,,,,,10,,,64,80
14400,note_on,24,0,13,,,,,,,,12,,,43,80
14400,note_on,48,0,1,,,,,,,,0,,,82,80
14400,note_on,24,0,12,,,,,,,,11,,,55,80
14400,note_on,12,0,10,,,,,,,,8,,,62,80
14448,note_on,48,0,10,,,,,,,,8,,,62,0
14460,note_on,12,0,10,,,,,,,,8,,,64,80
14496,note_on,96,0,13,,,,,,,,12,,,43,0
14496,note_on,96,0,12,,,,,,,,11,,,55,0
14496,note_on,96,0,9,,,,,,,,7,,,82,0
14496,note_on,96,0,1,,,,,,,,0,,,82,0
14508,note_on,48,0,10,,,,,,,,8,,,64,0
14520,note_on,24,0,12,,,,,,,,11,,,55,80
14520,note_on,24,0,13,,,,,,,,12,,,43,80
14520,note_on,12,0,10,,,,,,,,8,,,62,80
14520,note_on,24,0,9,,,,,,,,7,,,83,80
14520,note_on,24,0,1,,,,,,,,0,,,83,80
14568,note_on,48,0,10,,,,,,,,8,,,62,0
14580,note_on,12,0,10,,,,,,,,8,,,64,80
14616,note_on,96,0,12,,,,,,,,11,,,55,0
14616,note_on,96,0,13,,,,,,,,12,,,43,0
14628,note_on,48,0,10,,,,,,,,8,,,64,0
14640,note_on,24,0,12,,,,,,,,11,,,55,80
14640,note_on,12,0,10,,,,,,,,8,,,62,80
14640,note_on,24,0,13,,,,,,,,12,,,43,80
14688,note_on,48,0,10,,,,,,,,8,,,62,0
14688,note_on,288,0,11,,,,,,,,10,,,64,0
14700,note_on,12,0,10,,,,,,,,8,,,64,80
14712,note_on,192,0,1,,,,,,,,0,,,83,0
14712,note_on,192,0,9,,,,,,,,7,,,83,0
14736,note_on,96,0,13,,,,,,,,12,,,43,0
14736,note_on,96,0,12,,,,,,,,11,,,55,0
14748,note_on,48,0,10,,,,,,,,8,,,64,0
14760,note_on,48,0,9,,,,,,,,7,,,79,80
14760,note_on,72,0,11,,,,,,,,10,,,71,80
14760,note_on,48,0,1,,,,,,,,0,,,79,80
14760,note_on,24,0,13,,,,,,,,12,,,43,80
14760,note_on,12,0,10,,,,,,,,8,,,62,80
14760,note_on,24,0,12,,,,,,,,11,,,55,80
14808,note_on,48,0,1,,,,,,,,0,,,79,0
14808,note_on,48,0,10,,,,,,,,8,,,62,0
14808,note_on,48,0,9,,,,,,,,7,,,79,0
14820,note_on,12,0,10,,,,,,,,8,,,64,80
14820,note_on,12,0,9,,,,,,,,7,,,76,80
14820,note_on,12,0,1,,,,,,,,0,,,76,80
14856,note_on,96,0,11,,,,,,,,10,,,71,0
14856,note_on,96,0,13,,,,,,,,12,,,43,0
14856,note_on,96,0,12,,,,,,,,11,,,55,0
14868,note_on,48,0,9,,,,,,,,7,,,76,0
14868,note_on,48,0,10,,,,,,,,8,,,64,0
14868,note_on,48,0,1,,,,,,,,0,,,76,0
14880,note_on,12,0,10,,,,,,,,8,,,61,80
14880,note_on,24,0,11,,,,,,,,10,,,69,80
14880,note_on,24,0,12,,,,,,,,11,,,57,80
14880,note_on,12,0,1,,,,,,,,0,,,81,80
14880,note_on,24,0,13,,,,,,,,12,,,45,80
14880,note_on,12,0,9,,,,,,,,7,,,81,80
14928,note_on,48,0,10,,,,,,,,8,,,61,0
14940,note_on,12,0,10,,,,,,,,8,,,64,80
14976,note_on,96,0,12,,,,,,,,11,,,57,0
14976,note_on,96,0,13,,,,,,,,12,,,45,0
14976,note_on,96,0,11,,,,,,,,10,,,69,0
14976,note_on,96,0,9,,,,,,,,7,,,81,0
14976,note_on,96,0,1,,,,,,,,0,,,81,0
14988,note_on,48,0,10,,,,,,,,8,,,64,0
15000,note_on,24,0,13,,,,,,,,12,,,45,80
15000,note_on,24,0,1,,,,,,,,0,,,79,80
15000,note_on,12,0,10,,,,,,,,8,,,61,80
15000,note_on,24,0,11,,,,,,,,10,,,69,80
15000,note_on,24,0,9,,,,,,,,7,,,79,80
15000,note_on,24,0,12,,,,,,,,11,,,57,80
15048,note_on,48,0,10,,,,,,,,8,,,61,0
15060,note_on,12,0,10,,,,,,,,8,,,64,80
15096,note_on,96,0,13,,,,,,,,12,,,45,0
15096,note_on,96,0,11,,,,,,,,10,,,69,0
15096,note_on,96,0,12,,,,,,,,11,,,57,0
15108,note_on,48,0,10,,,,,,,,8,,,64,0
15120,note_on,24,0,11,,,,,,,,10,,,69,80
15120,note_on,24,0,13,,,,,,,,12,,,45,80
15120,note_on,12,0,10,,,,,,,,8,,,61,80
15120,note_on,24,0,12,,,,,,,,11,,,57,80
15168,note_on,48,0,10,,,,,,,,8,,,61,0
15180,note_on,12,0,10,,,,,,,,8,,,64,80
15192,note_on,192,0,1,,,,,,,,0,,,79,0
15192,note_on,192,0,9,,,,,,,,7,,,79,0
15216,note_on,96,0,11,,,,,,,,10,,,69,0
15216,note_on,96,0,12,,,,,,,,11,,,57,0
15216,note_on,96,0,13,,,,,,,,12,,,45,0
15228,note_on,48,0,10,,,,,,,,8,,,64,0
15240,note_on,48,0,1,,,,,,,,0,,,76,80
15240,note_on,24,0,12,,,,,,,,11,,,57,80
15240,note_on,12,0,10,,,,,,,,8,,,67,80
15240,note_on,24,0,11,,,,,,,,10,,,69,80
15240,note_on,48,0,9,,,,,,,,7,,,76,80
15240,note_on,24,0,13,,,,,,,,12,,,45,80
15288,note_on,48,0,9,,,,,,,,7,,,76,0
15288,note_on,48,0,10,,,,,,,,8,,,67,0
15288,note_on,48,0,1,,,,,,,,0,,,76,0
15300,note_on,12,0,1,,,,,,,,0,,,73,80
15300,note_on,12,0,10,,,,,,,,8,,,64,80
15300,note_on,12,0,9,,,,,,,,7,,,73,80
15336,note_on,96,0,13,,,,,,,,12,,,45,0
15336,note_on,96,0,11,,,,,,,,10,,,69,0
15336,note_on,96,0,12,,,,,,,,11,,,57,0
15348,note_on,48,0,9,,,,,,,,7,,,73,0
15348,note_on,48,0,10,,,,,,,,8,,,64,0
15348,note_on,48,0,1,,,,,,,,0,,,73,0
15360,note_on,12,0,10,,,,,,,,8,,,66,80
15360,note_on,12,0,1,,,,,,,,0,,,74,80
15360,note_on,12,0,9,,,,,,,,7,,,74,80
15360,note_on,24,0,13,,,,,,,,12,,,38,80
15360,note_on,24,0,11,,,,,,,,10,,,69,80
15360,note_on,24,0,12,,,,,,,,11,,,50,80
15552,note_on,192,0,12,,,,,,,,11,,,50,0
15552,note_on,192,0,10,,,,,,,,8,,,66,0
15552,note_on,192,0,1,,,,,,,,0,,,74,0
15552,note_on,192,0,9,,,,,,,,7,,,74,0
15552,note_on,192,0,13,,,,,,,,12,,,38,0
15552,note_on,192,0,11,,,,,,,,10,,,69,0
15720,note_on,168,0,9,,,,,,,,7,,,57,80
15720,note_on,168,0,11,,,,,,,,10,,,57,80
15720,note_on,15720,0,2,,,,,,,,1,,,69,80
15720,note_on,168,0,12,,,,,,,,11,,,45,80
15720,note_on,168,0,1,,,,,,,,0,,,69,80
15720,note_on,15720,0,3,,,,,,,,2,,,45,80
15720,note_on,168,0,13,,,,,,,,12,,,33,80
15720,note_on,168,0,10,,,,,,,,8,,,57,80
15768,note_on,48,0,3,,,,,,,,2,,,45,0
15768,note_on,48,0,9,,,,,,,,7,,,57,0
15768,note_on,48,0,12,,,,,,,,11,,,45,0
15768,note_on,48,0,13,,,,,,,,12,,,33,0
15768,note_on,48,0,2,,,,,,,,1,,,69,0
15768,note_on,48,0,1,,,,,,,,0,,,69,0
15768,note_on,48,0,11,,,,,,,,10,,,57,0
15768,note_on,48,0,10,,,,,,,,8,,,57,0
15780,note_on,12,0,2,,,,,,,,1,,,71,80
15780,note_on,12,0,3,,,,,,,,2,,,47,80
15780,note_on,12,0,1,,,,,,,,0,,,71,80
15780,note_on,12,0,13,,,,,,,,12,,,35,80
15780,note_on,12,0,12,,,,,,,,11,,,47,80
15780,note_on,12,0,10,,,,,,,,8,,,59,80
15780,note_on,12,0,11,,,,,,,,10,,,59,80
15780,note_on,12,0,9,,,,,,,,7,,,59,80
15804,note_on,24,0,13,,,,,,,,12,,,35,0
15804,note_on,24,0,3,,,,,,,,2,,,47,0
15804,note_on,24,0,2,,,,,,,,1,,,71,0
15804,note_on,24,0,12,,,,,,,,11,,,47,0
15804,note_on,24,0,9,,,,,,,,7,,,59,0
15804,note_on,24,0,10,,,,,,,,8,,,59,0
15804,note_on,24,0,1,,,,,,,,0,,,71,0
15804,note_on,24,0,11,,,,,,,,10,,,59,0
15810,note_on,6,0,2,,,,,,,,1,,,73,80
15810,note_on,6,0,3,,,,,,,,2,,,49,80
15810,note_on,6,0,13,,,,,,,,12,,,37,80
15810,note_on,6,0,10,,,,,,,,8,,,61,80
15810,note_on,6,0,1,,,,,,,,0,,,73,80
15810,note_on,6,0,12,,,,,,,,11,,,49,80
15810,note_on,6,0,9,,,,,,,,7,,,61,80
15810,note_on,6,0,11,,,,,,,,10,,,61,80
15834,note_on,24,0,2,,,,,,,,1,,,73,0
15834,note_on,24,0,13,,,,,,,,12,,,37,0
15834,note_on,24,0,11,,,,,,,,10,,,61,0
15834,note_on,24,0,9,,,,,,,,7,,,61,0
15834,note_on,24,0,10,,,,,,,,8,,,61,0
15834,note_on,24,0,3,,,,,,,,2,,,49,0
15834,note_on,24,0,12,,,,,,,,11,,,49,0
15834,note_on,24,0,1,,,,,,,,0,,,73,0
15840,note_on,6,0,3,,,,,,,,2,,,50,80
15840,note_on,6,0,1,,,,,,,,0,,,74,80
15840,note_on,0,0,4,,,,,,,,3,,,50,80
15840,note_on,6,0,13,,,,,,,,12,,,38,80
15840,note_on,6,0,2,,,,,,,,1,,,74,80
15840,note_on,15840,0,6,,,,,,,,5,,,50,80
15840,note_on,15840,0,5,,,,,,,,4,,,62,80
15840,note_on,6,0,12,,,,,,,,11,,,50,80
15840,note_on,6,0,9,,,,,,,,7,,,62,80
15840,note_on,6,0,11,,,,,,,,10,,,62,80
15840,note_on,6,0,10,,,,,,,,8,,,62,80
15840,note_on,15840,0,4,,,,,,,,3,,,62,80
16032,note_on,192,0,6,,,,,,,,5,,,50,0
16032,note_on,192,0,9,,,,,,,,7,,,62,0
16032,note_on,192,0,12,,,,,,,,11,,,50,0
16032,note_on,192,0,1,,,,,,,,0,,,74,0
16032,note_on,192,0,10,,,,,,,,8,,,62,0
16032,note_on,192,0,3,,,,,,,,2,,,50,0
16032,note_on,192,0,2,,,,,,,,1,,,74,0
16032,note_on,192,0,11,,,,,,,,10,,,62,0
16032,note_on,192,0,5,,,,,,,,4,,,62,0
16032,note_on,192,0,4,,,,,,,,3,,,50,0
16032,note_on,0,0,4,,,,,,,,3,,,62,0
16032,note_on,192,0,13,,,,,,,,12,,,38,0
16080,note_on,48,0,9,,,,,,,,7,,,66,80
16080,note_on,48,0,12,,,,,,,,11,,,54,80
16080,note_on,48,0,6,,,,,,,,5,,,50,80
16080,note_on,48,0,11,,,,,,,,10,,,66,80
16080,note_on,48,0,5,,,,,,,,4,,,66,80
16080,note_on,48,0,4,,,,,,,,3,,,54,80
16080,note_on,48,0,3,,,,,,,,2,,,54,80
16080,note_on,48,0,10,,,,,,,,8,,,66,80
16080,note_on,0,0,4,,,,,,,,3,,,66,80
16080,note_on,48,0,13,,,,,,,,12,,,42,80
16080,note_on,48,0,2,,,,,,,,1,,,78,80
16080,note_on,48,0,1,,,,,,,,0,,,78,80
16272,note_on,192,0,13,,,,,,,,12,,,42,0
16272,note_on,192,0,12,,,,,,,,11,,,54,0
16272,note_on,192,0,6,,,,,,,,5,,,50,0
16272,note_on,192,0,2,,,,,,,,1,,,78,0
16272,note_on,192,0,11,,,,,,,,10,,,66,0
16272,note_on,192,0,5,,,,,,,,4,,,66,0
16272,note_on,192,0,4,,,,,,,,3,,,66,0
16272,note_on,0,0,4,,,,,,,,3,,,54,0
16272,note_on,192,0,9,,,,,,,,7,,,66,0
16272,note_on,192,0,3,,,,,,,,2,,,54,0
16272,note_on,192,0,1,,,,,,,,0,,,78,0
16272,note_on,192,0,10,,,,,,,,8,,,66,0
16320,note_on,48,0,6,,,,,,,,5,,,45,80
16320,note_on,48,0,11,,,,,,,,10,,,69,80
16320,note_on,48,0,2,,,,,,,,1,,,81,80
16320,note_on,48,0,9,,,,,,,,7,,,69,80
16320,note_on,48,0,12,,,,,,,,11,,,57,80
16320,note_on,48,0,3,,,,,,,,2,,,57,80
16320,note_on,48,0,5,,,,,,,,4,,,69,80
16320,note_on,48,0,4,,,,,,,,3,,,57,80
16320,note_on,48,0,13,,,,,,,,12,,,45,80
16320,note_on,0,0,4,,,,,,,,3,,,69,80
16320,note_on,48,0,1,,,,,,,,0,,,81,80
16320,note_on,48,0,10,,,,,,,,8,,,69,80
16512,note_on,192,0,12,,,,,,,,11,,,57,0
16512,note_on,192,0,5,,,,,,,,4,,,69,0
16512,note_on,192,0,9,,,,,,,,7,,,69,0
16512,note_on,192,0,13,,,,,,,,12,,,45,0
16512,note_on,192,0,11,,,,,,,,10,,,69,0
16512,note_on,192,0,3,,,,,,,,2,,,57,0
16512,note_on,192,0,2,,,,,,,,1,,,81,0
16512,note_on,0,0,4,,,,,,,,3,,,57,0
16512,note_on,192,0,10,,,,,,,,8,,,69,0
16512,note_on,192,0,1,,,,,,,,0,,,81,0
16512,note_on,192,0,6,,,,,,,,5,,,45,0
16512,note_on,192,0,4,,,,,,,,3,,,69,0
16560,note_on,48,0,9,,,,,,,,7,,,81,80
16560,note_on,48,0,10,,,,,,,,8,,,78,80
16608,note_on,48,0,10,,,,,,,,8,,,78,0
16608,note_on,48,0,9,,,,,,,,7,,,81,0
16620,note_on,12,0,9,,,,,,,,7,,,79,80
16620,note_on,12,0,10,,,,,,,,8,,,76,80
16668,note_on,48,0,10,,,,,,,,8,,,76,0
16668,note_on,48,0,9,,,,,,,,7,,,79,0
16680,note_on,12,0,10,,,,,,,,8,,,74,80
16680,note_on,12,0,9,,,,,,,,7,,,78,80
16728,note_on,48,0,10,,,,,,,,8,,,74,0
16728,note_on,48,0,9,,,,,,,,7,,,78,0
16740,note_on,12,0,9,,,,,,,,7,,,76,80
16740,note_on,12,0,10,,,,,,,,8,,,73,80
16788,note_on,48,0,10,,,,,,,,8,,,73,0
16788,note_on,48,0,9,,,,,,,,7,,,76,0
16800,note_on,288,0,3,,,,,,,,2,,,50,80
16800,note_on,288,0,11,,,,,,,,10,,,62,80
16800,note_on,288,0,5,,,,,,,,4,,,62,80
16800,note_on,288,0,13,,,,,,,,12,,,38,80
16800,note_on,288,0,2,,,,,,,,1,,,74,80
16800,note_on,12,0,10,,,,,,,,8,,,74,80
16800,note_on,288,0,4,,,,,,,,3,,,62,80
16800,note_on,0,0,4,,,,,,,,3,,,50,80
16800,note_on,288,0,6,,,,,,,,5,,,50,80
16800,note_on,12,0,9,,,,,,,,7,,,74,80
16800,note_on,288,0,12,,,,,,,,11,,,50,80
16800,note_on,288,0,1,,,,,,,,0,,,74,80
16896,note_on,96,0,10,,,,,,,,8,,,74,0
16896,note_on,96,0,5,,,,,,,,4,,,62,0
16896,note_on,96,0,4,,,,,,,,3,,,50,0
16896,note_on,96,0,3,,,,,,,,2,,,50,0
16896,note_on,96,0,2,,,,,,,,1,,,74,0
16896,note_on,96,0,9,,,,,,,,7,,,74,0
16896,note_on,96,0,13,,,,,,,,12,,,38,0
16896,note_on,96,0,11,,,,,,,,10,,,62,0
16896,note_on,96,0,12,,,,,,,,11,,,50,0
16896,note_on,96,0,1,,,,,,,,0,,,74,0
16896,note_on,0,0,4,,,,,,,,3,,,62,0
16920,note_on,24,0,1,,,,,,,,0,,,78,80
16920,note_on,24,0,2,,,,,,,,1,,,78,80
16920,note_on,24,0,13,,,,,,,,12,,,42,80
16920,note_on,24,0,12,,,,,,,,11,,,54,80
16920,note_on,24,0,11,,,,,,,,10,,,66,80
16920,note_on,24,0,3,,,,,,,,2,,,54,80
16920,note_on,24,0,5,,,,,,,,4,,,66,80
16920,note_on,0,0,4,,,,,,,,3,,,66,80
16920,note_on,24,0,4,,,,,,,,3,,,54,80
16920,note_on,24,0,10,,,,,,,,8,,,66,80
16920,note_on,24,0,9,,,,,,,,7,,,66,80
16992,note_on,192,0,6,,,,,,,,5,,,50,0
17016,note_on,96,0,11,,,,,,,,10,,,66,0
17016,note_on,96,0,3,,,,,,,,2,,,54,0
17016,note_on,96,0,1,,,,,,,,0,,,78,0
17016,note_on,0,0,4,,,,,,,,3,,,54,0
17016,note_on,96,0,10,,,,,,,,8,,,66,0
17016,note_on,96,0,4,,,,,,,,3,,,66,0
17016,note_on,96,0,9,,,,,,,,7,,,66,0
17016,note_on,96,0,2,,,,,,,,1,,,78,0
17016,note_on,96,0,12,,,,,,,,11,,,54,0
17016,note_on,96,0,13,,,,,,,,12,,,42,0
17016,note_on,96,0,5,,,,,,,,4,,,66,0
17040,note_on,24,0,9,,,,,,,,7,,,69,80
17040,note_on,0,0,4,,,,,,,,3,,,69,80
17040,note_on,24,0,4,,,,,,,,3,,,57,80
17040,note_on,24,0,3,,,,,,,,2,,,57,80
17040,note_on,24,0,12,,,,,,,,11,,,57,80
17040,note_on,24,0,11,,,,,,,,10,,,69,80
17040,note_on,24,0,1,,,,,,,,0,,,81,80
17040,note_on,24,0,13,,,,,,,,12,,,45,80
17040,note_on,24,0,2,,,,,,,,1,,,81,80
17040,note_on,48,0,6,,,,,,,,5,,,45,80
17040,note_on,24,0,5,,,,,,,,4,,,69,80
17040,note_on,24,0,10,,,,,,,,8,,,69,80
17136,note_on,96,0,11,,,,,,,,10,,,69,0
17136,note_on,96,0,12,,,,,,,,11,,,57,0
17136,note_on,96,0,3,,,,,,,,2,,,57,0
17136,note_on,96,0,1,,,,,,,,0,,,81,0
17136,note_on,96,0,6,,,,,,,,5,,,45,0
17136,note_on,96,0,5,,,,,,,,4,,,69,0
17136,note_on,96,0,9,,,,,,,,7,,,69,0
17136,note_on,96,0,4,,,,,,,,3,,,69,0
17136,note_on,0,0,4,,,,,,,,3,,,57,0
17136,note_on,96,0,13,,,,,,,,12,,,45,0
17136,note_on,96,0,2,,,,,,,,1,,,81,0
17136,note_on,96,0,10,,,,,,,,8,,,69,0
17160,note_on,24,0,10,,,,,,,,8,,,69,80
17160,note_on,24,0,9,,,,,,,,7,,,69,80
17160,note_on,24,0,3,,,,,,,,2,,,57,80
17160,note_on,24,0,12,,,,,,,,11,,,57,80
17160,note_on,24,0,4,,,,,,,,3,,,69,80
17160,note_on,0,0,4,,,,,,,,3,,,57,80
17160,note_on,24,0,11,,,,,,,,10,,,69,80
17160,note_on,24,0,6,,,,,,,,5,,,45,80
17160,note_on,24,0,1,,,,,,,,0,,,81,80
17160,note_on,24,0,2,,,,,,,,1,,,81,80
17160,note_on,24,0,13,,,,,,,,12,,,45,80
17160,note_on,24,0,5,,,,,,,,4,,,69,80
17256,note_on,96,0,3,,,,,,,,2,,,57,0
17256,note_on,96,0,1,,,,,,,,0,,,81,0
17256,note_on,96,0,4,,,,,,,,3,,,57,0
17256,note_on,96,0,10,,,,,,,,8,,,69,0
17256,note_on,96,0,5,,,,,,,,4,,,69,0
17256,note_on,96,0,2,,,,,,,,1,,,81,0
17256,note_on,96,0,13,,,,,,,,12,,,45,0
17256,note_on,96,0,6,,,,,,,,5,,,45,0
17256,note_on,0,0,4,,,,,,,,3,,,69,0
17256,note_on,96,0,12,,,,,,,,11,,,57,0
17256,note_on,96,0,9,,,,,,,,7,,,69,0
17256,note_on,96,0,11,,,,,,,,10,,,69,0
17280,note_on,24,0,4,,,,,,,,3,,,57,80
17280,note_on,24,0,5,,,,,,,,4,,,69,80
17280,note_on,24,0,13,,,,,,,,12,,,45,80
17280,note_on,24,0,2,,,,,,,,1,,,81,80
17280,note_on,24,0,6,,,,,,,,5,,,45,80
17280,note_on,24,0,9,,,,,,,,7,,,69,80
17280,note_on,24,0,1,,,,,,,,0,,,81,80
17280,note_on,24,0,11,,,,,,,,10,,,69,80
17280,note_on,24,0,10,,,,,,,,8,,,69,80
17280,note_on,24,0,3,,,,,,,,2,,,57,80
17280,note_on,0,0,4,,,,,,,,3,,,69,80
17280,note_on,24,0,12,,,,,,,,11,,,57,80
17472,note_on,192,0,10,,,,,,,,8,,,69,0
17472,note_on,192,0,4,,,,,,,,3,,,69,0
17472,note_on,0,0,4,,,,,,,,3,,,57,0
17472,note_on,192,0,5,,,,,,,,4,,,69,0
17472,note_on,192,0,2,,,,,,,,1,,,81,0
17472,note_on,192,0,13,,,,,,,,12,,,45,0
17472,note_on,192,0,6,,,,,,,,5,,,45,0
17472,note_on,192,0,9,,,,,,,,7,,,69,0
17472,note_on,192,0,1,,,,,,,,0,,,81,0
17472,note_on,192,0,12,,,,,,,,11,,,57,0
17472,note_on,192,0,3,,,,,,,,2,,,57,0
17472,note_on,192,0,11,,,,,,,,10,,,69,0
17520,note_on,48,0,9,,,,,,,,7,,,81,80
17520,note_on,48,0,10,,,,,,,,8,,,78,80
17568,note_on,48,0,9,,,,,,,,7,,,81,0
17568,note_on,48,0,10,,,,,,,,8,,,78,0
17580,note_on,12,0,10,,,,,,,,8,,,76,80
17580,note_on,12,0,9,,,,,,,,7,,,79,80
17628,note_on,48,0,9,,,,,,,,7,,,79,0
17628,note_on,48,0,10,,,,,,,,8,,,76,0
17640,note_on,12,0,10,,,,,,,,8,,,74,80
17640,note_on,12,0,9,,,,,,,,7,,,78,80
17688,note_on,48,0,9,,,,,,,,7,,,78,0
17688,note_on,48,0,10,,,,,,,,8,,,74,0
17700,note_on,12,0,10,,,,,,,,8,,,73,80
17700,note_on,12,0,9,,,,,,,,7,,,76,80
17748,note_on,48,0,10,,,,,,,,8,,,73,0
17748,note_on,48,0,9,,,,,,,,7,,,76,0
17760,note_on,288,0,1,,,,,,,,0,,,86,80
17760,note_on,288,0,11,,,,,,,,10,,,66,80
17760,note_on,288,0,12,,,,,,,,11,,,50,80
17760,note_on,12,0,9,,,,,,,,7,,,74,80
17760,note_on,17760,0,8,,,,,,,,6,,,50,80
17760,note_on,17760,0,7,,,,,,,,6,,,74,80
17760,note_on,288,0,2,,,,,,,,1,,,74,80
17760,note_on,288,0,13,,,,,,,,12,,,38,80
17760,note_on,12,0,10,,,,,,,,8,,,74,80
17808,note_on,48,0,7,,,,,,,,6,,,74,0
17820,note_on,12,0,7,,,,,,,,6,,,69,80
17868,note_on,48,0,7,,,,,,,,6,,,69,0
17880,note_on,12,0,7,,,,,,,,6,,,74,80
17928,note_on,48,0,7,,,,,,,,6,,,74,0
17940,note_on,12,0,7,,,,,,,,6,,,78,80
17952,note_on,192,0,10,,,,,,,,8,,,74,0
17952,note_on,192,0,13,,,,,,,,12,,,38,0
17952,note_on,192,0,9,,,,,,,,7,,,74,0
17952,note_on,192,0,12,,,,,,,,11,,,50,0
17952,note_on,192,0,11,,,,,,,,10,,,66,0
17952,note_on,192,0,8,,,,,,,,6,,,50,0
17988,note_on,48,0,7,,,,,,,,6,,,78,0
18000,note_on,48,0,10,,,,,,,,8,,,66,80
18000,note_on,12,0,7,,,,,,,,6,,,81,80
18000,note_on,48,0,8,,,,,,,,6,,,66,80
18000,note_on,48,0,9,,,,,,,,7,,,69,80
18000,note_on,0,0,8,,,,,,,,6,,,62,80
18000,note_on,48,0,11,,,,,,,,10,,,62,80
18048,note_on,48,0,7,,,,,,,,6,,,81,0
18060,note_on,12,0,7,,,,,,,,6,,,74,80
18096,note_on,96,0,10,,,,,,,,8,,,66,0
18096,note_on,0,0,8,,,,,,,,6,,,66,0
18096,note_on,96,0,8,,,,,,,,6,,,62,0
18096,note_on,96,0,9,,,,,,,,7,,,69,0
18096,note_on,96,0,11,,,,,,,,10,,,62,0
18108,note_on,48,0,7,,,,,,,,6,,,74,0
18120,note_on,24,0,10,,,,,,,,8,,,67,80
18120,note_on,24,0,11,,,,,,,,10,,,62,80
18120,note_on,24,0,8,,,,,,,,6,,,62,80
18120,note_on,24,0,9,,,,,,,,7,,,71,80
18120,note_on,0,0,8,,,,,,,,6,,,67,80
18120,note_on,12,0,7,,,,,,,,6,,,83,80
18168,note_on,48,0,7,,,,,,,,6,,,83,0
18180,note_on,12,0,7,,,,,,,,6,,,74,80
18216,note_on,96,0,8,,,,,,,,6,,,67,0
18216,note_on,0,0,8,,,,,,,,6,,,62,0
18216,note_on,96,0,10,,,,,,,,8,,,67,0
18216,note_on,96,0,11,,,,,,,,10,,,62,0
18216,note_on,96,0,9,,,,,,,,7,,,71,0
18228,note_on,48,0,7,,,,,,,,6,,,74,0
18240,note_on,24,0,8,,,,,,,,6,,,66,80
18240,note_on,0,0,8,,,,,,,,6,,,62,80
18240,note_on,24,0,10,,,,,,,,8,,,66,80
18240,note_on,24,0,9,,,,,,,,7,,,69,80
18240,note_on,24,0,11,,,,,,,,10,,,62,80
18240,note_on,288,0,12,,,,,,,,11,,,50,80
18240,note_on,12,0,7,,,,,,,,6,,,81,80
18240,note_on,288,0,13,,,,,,,,12,,,38,80
18288,note_on,48,0,7,,,,,,,,6,,,81,0
18300,note_on,12,0,7,,,,,,,,6,,,78,80
18348,note_on,48,0,7,,,,,,,,6,,,78,0
18360,note_on,12,0,7,,,,,,,,6,,,74,80
18408,note_on,48,0,7,,,,,,,,6,,,74,0
18420,note_on,12,0,7,,,,,,,,6,,,78,80
18432,note_on,0,0,8,,,,,,,,6,,,66,0
18432,note_on,192,0,12,,,,,,,,11,,,50,0
18432,note_on,192,0,10,,,,,,,,8,,,66,0
18432,note_on,192,0,11,,,,,,,,10,,,62,0
18432,note_on,192,0,8,,,,,,,,6,,,62,0
18432,note_on,192,0,9,,,,,,,,7,,,69,0
18432,note_on,192,0,13,,,,,,,,12,,,38,0
18468,note_on,48,0,7,,,,,,,,6,,,78,0
18480,note_on,0,0,8,,,,,,,,6,,,62,80
18480,note_on,48,0,8,,,,,,,,6,,,66,80
18480,note_on,48,0,11,,,,,,,,10,,,62,80
18480,note_on,12,0,7,,,,,,,,6,,,81,80
18480,note_on,48,0,9,,,,,,,,7,,,69,80
18480,note_on,48,0,10,,,,,,,,8,,,66,80
18528,note_on,48,0,7,,,,,,,,6,,,81,0
18540,note_on,12,0,7,,,,,,,,6,,,74,80
18576,note_on,96,0,11,,,,,,,,10,,,62,0
18576,note_on,96,0,9,,,,,,,,7,,,69,0
18576,note_on,96,0,8,,,,,,,,6,,,62,0
18576,note_on,0,0,8,,,,,,,,6,,,66,0
18576,note_on,96,0,10,,,,,,,,8,,,66,0
18588,note_on,48,0,7,,,,,,,,6,,,74,0
18600,note_on,24,0,10,,,,,,,,8,,,67,80
18600,note_on,12,0,7,,,,,,,,6,,,83,80
18600,note_on,24,0,11,,,,,,,,10,,,62,80
18600,note_on,0,0,8,,,,,,,,6,,,67,80
18600,note_on,24,0,8,,,,,,,,6,,,62,80
18600,note_on,24,0,9,,,,,,,,7,,,71,80
18648,note_on,48,0,7,,,,,,,,6,,,83,0
18660,note_on,12,0,7,,,,,,,,6,,,74,80
18696,note_on,96,0,11,,,,,,,,10,,,62,0
18696,note_on,0,0,8,,,,,,,,6,,,62,0
18696,note_on,96,0,9,,,,,,,,7,,,71,0
18696,note_on,96,0,10,,,,,,,,8,,,67,0
18696,note_on,96,0,8,,,,,,,,6,,,67,0
18708,note_on,48,0,7,,,,,,,,6,,,74,0
18720,note_on,12,0,7,,,,,,,,6,,,81,80
18720,note_on,288,0,13,,,,,,,,12,,,38,80
18720,note_on,24,0,9,,,,,,,,7,,,69,80
18720,note_on,24,0,8,,,,,,,,6,,,62,80
18720,note_on,0,0,8,,,,,,,,6,,,66,80
18720,note_on,24,0,11,,,,,,,,10,,,62,80
18720,note_on,288,0,12,,,,,,,,11,,,50,80
18720,note_on,24,0,10,,,,,,,,8,,,66,80
18768,note_on,48,0,7,,,,,,,,6,,,81,0
18780,note_on,12,0,7,,,,,,,,6,,,74,80
18816,note_on,96,0,10,,,,,,,,8,,,66,0
18816,note_on,96,0,11,,,,,,,,10,,,62,0
18816,note_on,96,0,9,,,,,,,,7,,,69,0
18816,note_on,96,0,8,,,,,,,,6,,,66,0
18816,note_on,0,0,8,,,,,,,,6,,,62,0
18828,note_on,48,0,7,,,,,,,,6,,,74,0
18840,note_on,24,0,10,,,,,,,,8,,,67,80
18840,note_on,24,0,8,,,,,,,,6,,,67,80
18840,note_on,0,0,8,,,,,,,,6,,,62,80
18840,note_on,12,0,7,,,,,,,,6,,,83,80
18840,note_on,24,0,9,,,,,,,,7,,,71,80
18840,note_on,24,0,11,,,,,,,,10,,,62,80
18888,note_on,48,0,7,,,,,,,,6,,,83,0
18900,note_on,12,0,7,,,,,,,,6,,,74,80
18912,note_on,192,0,12,,,,,,,,11,,,50,0
18912,note_on,192,0,13,,,,,,,,12,,,38,0
18936,note_on,96,0,11,,,,,,,,10,,,62,0
18936,note_on,96,0,10,,,,,,,,8,,,67,0
18936,note_on,96,0,9,,,,,,,,7,,,71,0
18936,note_on,0,0,8,,,,,,,,6,,,67,0
18936,note_on,96,0,8,,,,,,,,6,,,62,0
18948,note_on,48,0,7,,,,,,,,6,,,74,0
18960,note_on,24,0,8,,,,,,,,6,,,66,80
18960,note_on,0,0,8,,,,,,,,6,,,62,80
18960,note_on,12,0,7,,,,,,,,6,,,81,80
18960,note_on,24,0,9,,,,,,,,7,,,69,80
18960,note_on,24,0,11,,,,,,,,10,,,62,80
18960,note_on,24,0,10,,,,,,,,8,,,66,80
19008,note_on,48,0,7,,,,,,,,6,,,81,0
19020,note_on,12,0,7,,,,,,,,6,,,74,80
19056,note_on,96,0,8,,,,,,,,6,,,62,0
19056,note_on,0,0,8,,,,,,,,6,,,66,0
19056,note_on,96,0,10,,,,,,,,8,,,66,0
19056,note_on,96,0,11,,,,,,,,10,,,62,0
19056,note_on,96,0,9,,,,,,,,7,,,69,0
19068,note_on,48,0,7,,,,,,,,6,,,74,0
19080,note_on,12,0,7,,,,,,,,6,,,83,80
19080,note_on,24,0,11,,,,,,,,10,,,62,80
19080,note_on,0,0,8,,,,,,,,6,,,62,80
19080,note_on,24,0,8,,,,,,,,6,,,67,80
19080,note_on,24,0,10,,,,,,,,8,,,67,80
19080,note_on,24,0,9,,,,,,,,7,,,71,80
19128,note_on,48,0,7,,,,,,,,6,,,83,0
19140,note_on,12,0,7,,,,,,,,6,,,74,80
19176,note_on,96,0,9,,,,,,,,7,,,71,0
19176,note_on,0,0,8,,,,,,,,6,,,67,0
19176,note_on,96,0,11,,,,,,,,10,,,62,0
19176,note_on,96,0,8,,,,,,,,6,,,62,0
19176,note_on,96,0,10,,,,,,,,8,,,67,0
19188,note_on,48,0,7,,,,,,,,6,,,74,0
19200,note_on,24,0,8,,,,,,,,6,,,66,80
19200,note_on,0,0,8,,,,,,,,6,,,62,80
19200,note_on,288,0,13,,,,,,,,12,,,38,80
19200,note_on,24,0,9,,,,,,,,7,,,69,80
19200,note_on,288,0,12,,,,,,,,11,,,50,80
19200,note_on,24,0,10,,,,,,,,8,,,66,80
19200,note_on,12,0,7,,,,,,,,6,,,81,80
19200,note_on,24,0,11,,,,,,,,10,,,62,80
19392,note_on,192,0,12,,,,,,,,11,,,50,0
19392,note_on,192,0,13,,,,,,,,12,,,38,0
19392,note_on,192,0,10,,,,,,,,8,,,66,0
19392,note_on,1632,0,2,,,,,,,,1,,,74,0
19392,note_on,192,0,7,,,,,,,,6,,,81,0
19392,note_on,192,0,11,,,,,,,,10,,,62,0
19392,note_on,1632,0,1,,,,,,,,0,,,86,0
19392,note_on,192,0,8,,,,,,,,6,,,62,0
19392,note_on,0,0,8,,,,,,,,6,,,66,0
19392,note_on,192,0,9,,,,,,,,7,,,69,0
19440,note_on,48,0,7,,,,,,,,6,,,83,80
19488,note_on,48,0,7,,,,,,,,6,,,83,0
19500,note_on,12,0,7,,,,,,,,6,,,81,80
19548,note_on,48,0,7,,,,,,,,6,,,81,0
19560,note_on,12,0,7,,,,,,,,6,,,79,80
19608,note_on,48,0,7,,,,,,,,6,,,79,0
19620,note_on,12,0,7,,,,,,,,6,,,78,80
19668,note_on,48,0,7,,,,,,,,6,,,78,0
19680,note_on,288,0,8,,,,,,,,6,,,67,80
19680,note_on,12,0,7,,,,,,,,6,,,76,80
19680,note_on,0,0,8,,,,,,,,6,,,74,80
19776,note_on,96,0,8,,,,,,,,6,,,74,0
19776,note_on,0,0,8,,,,,,,,6,,,67,0
19776,note_on,96,0,7,,,,,,,,6,,,76,0
19800,note_on,0,0,8,,,,,,,,6,,,67,80
19800,note_on,24,0,8,,,,,,,,6,,,74,80
19800,note_on,24,0,7,,,,,,,,6,,,76,80
19896,note_on,0,0,8,,,,,,,,6,,,74,0
19896,note_on,96,0,8,,,,,,,,6,,,67,0
19896,note_on,96,0,7,,,,,,,,6,,,76,0
19920,note_on,0,0,8,,,,,,,,6,,,74,80
19920,note_on,24,0,8,,,,,,,,6,,,68,80
19920,note_on,24,0,7,,,,,,,,6,,,76,80
20016,note_on,96,0,8,,,,,,,,6,,,74,0
20016,note_on,96,0,7,,,,,,,,6,,,76,0
20016,note_on,0,0,8,,,,,,,,6,,,68,0
20040,note_on,24,0,7,,,,,,,,6,,,76,80
20040,note_on,0,0,8,,,,,,,,6,,,74,80
20040,note_on,24,0,8,,,,,,,,6,,,68,80
20136,note_on,0,0,8,,,,,,,,6,,,68,0
20136,note_on,96,0,8,,,,,,,,6,,,74,0
20136,note_on,96,0,7,,,,,,,,6,,,76,0
20160,note_on,24,0,8,,,,,,,,6,,,73,80
20160,note_on,24,0,7,,,,,,,,6,,,78,80
20160,note_on,0,0,8,,,,,,,,6,,,69,80
20256,note_on,96,0,7,,,,,,,,6,,,78,0
20280,note_on,24,0,7,,,,,,,,6,,,76,80
20352,note_on,192,0,8,,,,,,,,6,,,69,0
20352,note_on,0,0,8,,,,,,,,6,,,73,0
20376,note_on,96,0,7,,,,,,,,6,,,76,0
20400,note_on,48,0,8,,,,,,,,6,,,74,80
20400,note_on,0,0,8,,,,,,,,6,,,66,80
20400,note_on,24,0,7,,,,,,,,6,,,83,80
20448,note_on,48,0,7,,,,,,,,6,,,83,0
20460,note_on,12,0,7,,,,,,,,6,,,81,80
20508,note_on,48,0,7,,,,,,,,6,,,81,0
20520,note_on,12,0,7,,,,,,,,6,,,79,80
20568,note_on,48,0,7,,,,,,,,6,,,79,0
20580,note_on,12,0,7,,,,,,,,6,,,78,80
20592,note_on,0,0,8,,,,,,,,6,,,74,0
20592,note_on,192,0,8,,,,,,,,6,,,66,0
20628,note_on,48,0,7,,,,,,,,6,,,78,0
20640,note_on,12,0,7,,,,,,,,6,,,76,80
20640,note_on,48,0,8,,,,,,,,6,,,67,80
20640,note_on,0,0,8,,,,,,,,6,,,74,80
20736,note_on,96,0,7,,,,,,,,6,,,76,0
20736,note_on,0,0,8,,,,,,,,6,,,67,0
20736,note_on,96,0,8,,,,,,,,6,,,74,0
20760,note_on,24,0,7,,,,,,,,6,,,76,80
20760,note_on,0,0,8,,,,,,,,6,,,74,80
20760,note_on,24,0,8,,,,,,,,6,,,67,80
20856,note_on,96,0,7,,,,,,,,6,,,76,0
20856,note_on,96,0,8,,,,,,,,6,,,74,0
20856,note_on,0,0,8,,,,,,,,6,,,67,0
20880,note_on,24,0,8,,,,,,,,6,,,68,80
20880,note_on,0,0,8,,,,,,,,6,,,74,80
20880,note_on,24,0,7,,,,,,,,6,,,76,80
20976,note_on,96,0,8,,,,,,,,6,,,74,0
20976,note_on,0,0,8,,,,,,,,6,,,68,0
20976,note_on,96,0,7,,,,,,,,6,,,76,0
21000,note_on,24,0,7,,,,,,,,6,,,76,80
21000,note_on,0,0,8,,,,,,,,6,,,68,80
21000,note_on,24,0,8,,,,,,,,6,,,74,80
21096,note_on,96,0,7,,,,,,,,6,,,76,0
21096,note_on,0,0,8,,,,,,,,6,,,74,0
21096,note_on,96,0,8,,,,,,,,6,,,68,0
21120,note_on,24,0,8,,,,,,,,6,,,73,80
21120,note_on,24,0,7,,,,,,,,6,,,75,80
21120,note_on,0,0,8,,,,,,,,6,,,69,80
21152,note_on,32,0,7,,,,,,,,6,,,75,0
21160,note_on,8,0,7,,,,,,,,6,,,76,80
21192,note_on,32,0,7,,,,,,,,6,,,76,0
21200,note_on,8,0,7,,,,,,,,6,,,78,80
21232,note_on,32,0,7,,,,,,,,6,,,78,0
21240,note_on,8,0,7,,,,,,,,6,,,76,80
21312,note_on,192,0,8,,,,,,,,6,,,69,0
21312,note_on,0,0,8,,,,,,,,6,,,73,0
21336,note_on,96,0,7,,,,,,,,6,,,76,0
21480,note_on,2088,0,11,,,,,,,,10,,,57,80
21480,note_on,2088,0,9,,,,,,,,7,,,57,80
21480,note_on,4008,0,3,,,,,,,,2,,,45,80
21480,note_on,2088,0,10,,,,,,,,8,,,57,80
21480,note_on,2088,0,1,,,,,,,,0,,,69,80
21480,note_on,2088,0,13,,,,,,,,12,,,33,80
21480,note_on,2088,0,2,,,,,,,,1,,,69,80
21480,note_on,2088,0,12,,,,,,,,11,,,45,80
21528,note_on,48,0,1,,,,,,,,0,,,69,0
21528,note_on,48,0,11,,,,,,,,10,,,57,0
21528,note_on,48,0,13,,,,,,,,12,,,33,0
21528,note_on,48,0,9,,,,,,,,7,,,57,0
21528,note_on,48,0,2,,,,,,,,1,,,69,0
21528,note_on,48,0,10,,,,,,,,8,,,57,0
21528,note_on,48,0,3,,,,,,,,2,,,45,0
21528,note_on,48,0,12,,,,,,,,11,,,45,0
21540,note_on,12,0,13,,,,,,,,12,,,35,80
21540,note_on,12,0,9,,,,,,,,7,,,59,80
21540,note_on,12,0,2,,,,,,,,1,,,71,80
21540,note_on,12,0,1,,,,,,,,0,,,71,80
21540,note_on,12,0,3,,,,,,,,2,,,47,80
21540,note_on,12,0,10,,,,,,,,8,,,59,80
21540,note_on,12,0,11,,,,,,,,10,,,59,80
21540,note_on,12,0,12,,,,,,,,11,,,47,80
21564,note_on,24,0,3,,,,,,,,2,,,47,0
21564,note_on,24,0,10,,,,,,,,8,,,59,0
21564,note_on,24,0,2,,,,,,,,1,,,71,0
21564,note_on,24,0,12,,,,,,,,11,,,47,0
21564,note_on,24,0,11,,,,,,,,10,,,59,0
21564,note_on,24,0,13,,,,,,,,12,,,35,0
21564,note_on,24,0,1,,,,,,,,0,,,71,0
21564,note_on,24,0,9,,,,,,,,7,,,59,0
21570,note_on,6,0,12,,,,,,,,11,,,49,80
21570,note_on,6,0,11,,,,,,,,10,,,61,80
21570,note_on,6,0,9,,,,,,,,7,,,61,80
21570,note_on,6,0,1,,,,,,,,0,,,73,80
21570,note_on,6,0,3,,,,,,,,2,,,49,80
21570,note_on,6,0,10,,,,,,,,8,,,61,80
21570,note_on,6,0,2,,,,,,,,1,,,73,80
21570,note_on,6,0,13,,,,,,,,12,,,37,80
21594,note_on,24,0,2,,,,,,,,1,,,73,0
21594,note_on,24,0,11,,,,,,,,10,,,61,0
21594,note_on,24,0,10,,,,,,,,8,,,61,0
21594,note_on,24,0,3,,,,,,,,2,,,49,0
21594,note_on,24,0,9,,,,,,,,7,,,61,0
21594,note_on,24,0,1,,,,,,,,0,,,73,0
21594,note_on,24,0,12,,,,,,,,11,,,49,0
21594,note_on,24,0,13,,,,,,,,12,,,37,0
21600,note_on,6,0,1,,,,,,,,0,,,74,80
21600,note_on,6,0,12,,,,,,,,11,,,50,80
21600,note_on,6,0,3,,,,,,,,2,,,50,80
21600,note_on,6,0,13,,,,,,,,12,,,38,80
21600,note_on,6,0,11,,,,,,,,10,,,62,80
21600,note_on,0,0,4,,,,,,,,3,,,62,80
21600,note_on,4128,0,4,,,,,,,,3,,,50,80
21600,note_on,4128,0,6,,,,,,,,5,,,50,80
21600,note_on,6,0,10,,,,,,,,8,,,62,80
21600,note_on,4128,0,5,,,,,,,,4,,,62,80
21600,note_on,6,0,2,,,,,,,,1,,,74,80
21600,note_on,6,0,9,,,,,,,,7,,,62,80
21792,note_on,192,0,9,,,,,,,,7,,,62,0
21792,note_on,192,0,11,,,,,,,,10,,,62,0
21792,note_on,192,0,12,,,,,,,,11,,,50,0
21792,note_on,192,0,5,,,,,,,,4,,,62,0
21792,note_on,192,0,10,,,,,,,,8,,,62,0
21792,note_on,192,0,3,,,,,,,,2,,,50,0
21792,note_on,192,0,2,,,,,,,,1,,,74,0
21792,note_on,192,0,6,,,,,,,,5,,,50,0
21792,note_on,192,0,13,,,,,,,,12,,,38,0
21792,note_on,192,0,4,,,,,,,,3,,,62,0
21792,note_on,0,0,4,,,,,,,,3,,,50,0
21792,note_on,192,0,1,,,,,,,,0,,,74,0
21840,note_on,0,0,4,,,,,,,,3,,,54,80
21840,note_on,48,0,4,,,,,,,,3,,,66,80
21840,note_on,48,0,11,,,,,,,,10,,,66,80
21840,note_on,48,0,12,,,,,,,,11,,,54,80
21840,note_on,48,0,5,,,,,,,,4,,,66,80
21840,note_on,48,0,9,,,,,,,,7,,,66,80
21840,note_on,48,0,2,,,,,,,,1,,,78,80
21840,note_on,48,0,10,,,,,,,,8,,,66,80
21840,note_on,48,0,13,,,,,,,,12,,,42,80
21840,note_on,48,0,1,,,,,,,,0,,,78,80
21840,note_on,48,0,3,,,,,,,,2,,,54,80
21840,note_on,48,0,6,,,,,,,,5,,,50,80
22032,note_on,192,0,6,,,,,,,,5,,,50,0
22032,note_on,192,0,1,,,,,,,,0,,,78,0
22032,note_on,192,0,4,,,,,,,,3,,,54,0
22032,note_on,192,0,10,,,,,,,,8,,,66,0
22032,note_on,192,0,5,,,,,,,,4,,,66,0
22032,note_on,192,0,3,,,,,,,,2,,,54,0
22032,note_on,192,0,13,,,,,,,,12,,,42,0
22032,note_on,192,0,2,,,,,,,,1,,,78,0
22032,note_on,192,0,9,,,,,,,,7,,,66,0
22032,note_on,192,0,11,,,,,,,,10,,,66,0
22032,note_on,192,0,12,,,,,,,,11,,,54,0
22032,note_on,0,0,4,,,,,,,,3,,,66,0
22080,note_on,48,0,9,,,,,,,,7,,,69,80
22080,note_on,48,0,3,,,,,,,,2,,,57,80
22080,note_on,48,0,12,,,,,,,,11,,,57,80
22080,note_on,0,0,4,,,,,,,,3,,,57,80
22080,note_on,48,0,11,,,,,,,,10,,,69,80
22080,note_on,48,0,13,,,,,,,,12,,,45,80
22080,note_on,48,0,5,,,,,,,,4,,,69,80
22080,note_on,48,0,1,,,,,,,,0,,,81,80
22080,note_on,48,0,4,,,,,,,,3,,,69,80
22080,note_on,48,0,6,,,,,,,,5,,,45,80
22080,note_on,48,0,10,,,,,,,,8,,,69,80
22080,note_on,48,0,2,,,,,,,,1,,,81,80
22272,note_on,192,0,6,,,,,,,,5,,,45,0
22272,note_on,192,0,13,,,,,,,,12,,,45,0
22272,note_on,192,0,9,,,,,,,,7,,,69,0
22272,note_on,192,0,1,,,,,,,,0,,,81,0
22272,note_on,192,0,12,,,,,,,,11,,,57,0
22272,note_on,192,0,2,,,,,,,,1,,,81,0
22272,note_on,192,0,10,,,,,,,,8,,,69,0
22272,note_on,192,0,5,,,,,,,,4,,,69,0
22272,note_on,192,0,3,,,,,,,,2,,,57,0
22272,note_on,192,0,4,,,,,,,,3,,,57,0
22272,note_on,0,0,4,,,,,,,,3,,,69,0
22272,note_on,192,0,11,,,,,,,,10,,,69,0
22320,note_on,48,0,9,,,,,,,,7,,,81,80
22320,note_on,48,0,10,,,,,,,,8,,,78,80
22368,note_on,48,0,9,,,,,,,,7,,,81,0
22368,note_on,48,0,10,,,,,,,,8,,,78,0
22380,note_on,12,0,10,,,,,,,,8,,,76,80
22380,note_on,12,0,9,,,,,,,,7,,,79,80
22428,note_on,48,0,10,,,,,,,,8,,,76,0
22428,note_on,48,0,9,,,,,,,,7,,,79,0
22440,note_on,12,0,10,,,,,,,,8,,,74,80
22440,note_on,12,0,9,,,,,,,,7,,,78,80
22488,note_on,48,0,9,,,,,,,,7,,,78,0
22488,note_on,48,0,10,,,,,,,,8,,,74,0
22500,note_on,12,0,9,,,,,,,,7,,,76,80
22500,note_on,12,0,10,,,,,,,,8,,,73,80
22548,note_on,48,0,10,,,,,,,,8,,,73,0
22548,note_on,48,0,9,,,,,,,,7,,,76,0
22560,note_on,288,0,2,,,,,,,,1,,,74,80
22560,note_on,288,0,12,,,,,,,,11,,,50,80
22560,note_on,288,0,6,,,,,,,,5,,,50,80
22560,note_on,288,0,1,,,,,,,,0,,,74,80
22560,note_on,288,0,11,,,,,,,,10,,,62,80
22560,note_on,288,0,13,,,,,,,,12,,,38,80
22560,note_on,288,0,5,,,,,,,,4,,,62,80
22560,note_on,288,0,4,,,,,,,,3,,,62,80
22560,note_on,0,0,4,,,,,,,,3,,,50,80
22560,note_on,12,0,10,,,,,,,,8,,,74,80
22560,note_on,288,0,3,,,,,,,,2,,,50,80
22560,note_on,12,0,9,,,,,,,,7,,,74,80
22656,note_on,96,0,13,,,,,,,,12,,,38,0
22656,note_on,0,0,4,,,,,,,,3,,,62,0
22656,note_on,96,0,4,,,,,,,,3,,,50,0
22656,note_on,96,0,11,,,,,,,,10,,,62,0
22656,note_on,96,0,1,,,,,,,,0,,,74,0
22656,note_on,96,0,10,,,,,,,,8,,,74,0
22656,note_on,96,0,3,,,,,,,,2,,,50,0
22656,note_on,96,0,9,,,,,,,,7,,,74,0
22656,note_on,96,0,2,,,,,,,,1,,,74,0
22656,note_on,96,0,12,,,,,,,,11,,,50,0
22656,note_on,96,0,5,,,,,,,,4,,,62,0
22680,note_on,24,0,10,,,,,,,,8,,,66,80
22680,note_on,24,0,5,,,,,,,,4,,,66,80
22680,note_on,24,0,2,,,,,,,,1,,,78,80
22680,note_on,24,0,11,,,,,,,,10,,,66,80
22680,note_on,24,0,12,,,,,,,,11,,,54,80
22680,note_on,24,0,1,,,,,,,,0,,,78,80
22680,note_on,0,0,4,,,,,,,,3,,,54,80
22680,note_on,24,0,13,,,,,,,,12,,,42,80
22680,note_on,24,0,4,,,,,,,,3,,,66,80
22680,note_on,24,0,3,,,,,,,,2,,,54,80
22680,note_on,24,0,9,,,,,,,,7,,,66,80
22752,note_on,192,0,6,,,,,,,,5,,,50,0
22776,note_on,96,0,3,,,,,,,,2,,,54,0
22776,note_on,96,0,5,,,,,,,,4,,,66,0
22776,note_on,96,0,9,,,,,,,,7,,,66,0
22776,note_on,96,0,10,,,,,,,,8,,,66,0
22776,note_on,96,0,11,,,,,,,,10,,,66,0
22776,note_on,96,0,2,,,,,,,,1,,,78,0
22776,note_on,96,0,12,,,,,,,,11,,,54,0
22776,note_on,0,0,4,,,,,,,,3,,,66,0
22776,note_on,96,0,13,,,,,,,,12,,,42,0
22776,note_on,96,0,4,,,,,,,,3,,,54,0
22776,note_on,96,0,1,,,,,,,,0,,,78,0
22800,note_on,24,0,4,,,,,,,,3,,,69,80
22800,note_on,48,0,6,,,,,,,,5,,,45,80
22800,note_on,24,0,11,,,,,,,,10,,,69,80
22800,note_on,24,0,1,,,,,,,,0,,,81,80
22800,note_on,24,0,9,,,,,,,,7,,,69,80
22800,note_on,24,0,5,,,,,,,,4,,,69,80
22800,note_on,24,0,10,,,,,,,,8,,,69,80
22800,note_on,24,0,12,,,,,,,,11,,,57,80
22800,note_on,0,0,4,,,,,,,,3,,,57,80
22800,note_on,24,0,13,,,,,,,,12,,,45,80
22800,note_on,24,0,3,,,,,,,,2,,,57,80
22800,note_on,24,0,2,,,,,,,,1,,,81,80
22896,note_on,96,0,1,,,,,,,,0,,,81,0
22896,note_on,96,0,11,,,,,,,,10,,,69,0
22896,note_on,96,0,10,,,,,,,,8,,,69,0
22896,note_on,96,0,6,,,,,,,,5,,,45,0
22896,note_on,96,0,13,,,,,,,,12,,,45,0
22896,note_on,96,0,2,,,,,,,,1,,,81,0
22896,note_on,96,0,5,,,,,,,,4,,,69,0
22896,note_on,96,0,4,,,,,,,,3,,,57,0
22896,note_on,96,0,9,,,,,,,,7,,,69,0
22896,note_on,96,0,12,,,,,,,,11,,,57,0
22896,note_on,0,0,4,,,,,,,,3,,,69,0
22896,note_on,96,0,3,,,,,,,,2,,,57,0
22920,note_on,24,0,4,,,,,,,,3,,,69,80
22920,note_on,24,0,12,,,,,,,,11,,,57,80
22920,note_on,24,0,10,,,,,,,,8,,,69,80
22920,note_on,24,0,11,,,,,,,,10,,,69,80
22920,note_on,24,0,13,,,,,,,,12,,,45,80
22920,note_on,24,0,1,,,,,,,,0,,,81,80
22920,note_on,24,0,3,,,,,,,,2,,,57,80
22920,note_on,24,0,9,,,,,,,,7,,,69,80
22920,note_on,24,0,2,,,,,,,,1,,,81,80
22920,note_on,24,0,5,,,,,,,,4,,,69,80
22920,note_on,0,0,4,,,,,,,,3,,,57,80
22920,note_on,24,0,6,,,,,,,,5,,,45,80
23016,note_on,96,0,6,,,,,,,,5,,,45,0
23016,note_on,96,0,9,,,,,,,,7,,,69,0
23016,note_on,96,0,3,,,,,,,,2,,,57,0
23016,note_on,96,0,11,,,,,,,,10,,,69,0
23016,note_on,96,0,2,,,,,,,,1,,,81,0
23016,note_on,96,0,10,,,,,,,,8,,,69,0
23016,note_on,96,0,5,,,,,,,,4,,,69,0
23016,note_on,0,0,4,,,,,,,,3,,,69,0
23016,note_on,96,0,4,,,,,,,,3,,,57,0
23016,note_on,96,0,1,,,,,,,,0,,,81,0
23016,note_on,96,0,13,,,,,,,,12,,,45,0
23016,note_on,96,0,12,,,,,,,,11,,,57,0
23040,note_on,24,0,11,,,,,,,,10,,,69,80
23040,note_on,24,0,12,,,,,,,,11,,,57,80
23040,note_on,24,0,2,,,,,,,,1,,,81,80
23040,note_on,24,0,5,,,,,,,,4,,,69,80
23040,note_on,24,0,9,,,,,,,,7,,,69,80
23040,note_on,24,0,6,,,,,,,,5,,,45,80
23040,note_on,24,0,10,,,,,,,,8,,,69,80
23040,note_on,0,0,4,,,,,,,,3,,,57,80
23040,note_on,24,0,1,,,,,,,,0,,,81,80
23040,note_on,24,0,13,,,,,,,,12,,,45,80
23040,note_on,24,0,3,,,,,,,,2,,,57,80
23040,note_on,24,0,4,,,,,,,,3,,,69,80
23232,note_on,192,0,6,,,,,,,,5,,,45,0
23232,note_on,192,0,5,,,,,,,,4,,,69,0
23232,note_on,192,0,13,,,,,,,,12,,,45,0
23232,note_on,192,0,11,,,,,,,,10,,,69,0
23232,note_on,192,0,12,,,,,,,,11,,,57,0
23232,note_on,192,0,1,,,,,,,,0,,,81,0
23232,note_on,0,0,4,,,,,,,,3,,,69,0
23232,note_on,192,0,10,,,,,,,,8,,,69,0
23232,note_on,192,0,2,,,,,,,,1,,,81,0
23232,note_on,192,0,9,,,,,,,,7,,,69,0
23232,note_on,192,0,4,,,,,,,,3,,,57,0
23232,note_on,192,0,3,,,,,,,,2,,,57,0
23280,note_on,48,0,9,,,,,,,,7,,,81,80
23280,note_on,48,0,10,,,,,,,,8,,,78,80
23328,note_on,48,0,9,,,,,,,,7,,,81,0
23328,note_on,48,0,10,,,,,,,,8,,,78,0
23340,note_on,12,0,9,,,,,,,,7,,,79,80
23340,note_on,12,0,10,,,,,,,,8,,,76,80
23388,note_on,48,0,10,,,,,,,,8,,,76,0
23388,note_on,48,0,9,,,,,,,,7,,,79,0
23400,note_on,12,0,9,,,,,,,,7,,,78,80
23400,note_on,12,0,10,,,,,,,,8,,,74,80
23448,note_on,48,0,9,,,,,,,,7,,,78,0
23448,note_on,48,0,10,,,,,,,,8,,,74,0
23460,note_on,12,0,9,,,,,,,,7,,,76,80
23460,note_on,12,0,10,,,,,,,,8,,,73,80
23508,note_on,48,0,9,,,,,,,,7,,,76,0
23508,note_on,48,0,10,,,,,,,,8,,,73,0
23520,note_on,12,0,9,,,,,,,,7,,,74,80
23520,note_on,2184,0,7,,,,,,,,6,,,74,80
23520,note_on,2208,0,8,,,,,,,,6,,,50,80
23520,note_on,288,0,2,,,,,,,,1,,,74,80
23520,note_on,12,0,10,,,,,,,,8,,,74,80
23520,note_on,288,0,1,,,,,,,,0,,,86,80
23520,note_on,288,0,13,,,,,,,,12,,,38,80
23520,note_on,288,0,11,,,,,,,,10,,,66,80
23520,note_on,288,0,12,,,,,,,,11,,,50,80
23568,note_on,48,0,7,,,,,,,,6,,,74,0
23580,note_on,12,0,7,,,,,,,,6,,,69,80
23628,note_on,48,0,7,,,,,,,,6,,,69,0
23640,note_on,12,0,7,,,,,,,,6,,,74,80
23688,note_on,48,0,7,,,,,,,,6,,,74,0
23700,note_on,12,0,7,,,,,,,,6,,,78,80
23712,note_on,192,0,10,,,,,,,,8,,,74,0
23712,note_on,192,0,13,,,,,,,,12,,,38,0
23712,note_on,192,0,11,,,,,,,,10,,,66,0
23712,note_on,192,0,9,,,,,,,,7,,,74,0
23712,note_on,192,0,8,,,,,,,,6,,,50,0
23712,note_on,192,0,12,,,,,,,,11,,,50,0
23748,note_on,48,0,7,,,,,,,,6,,,78,0
23760,note_on,12,0,7,,,,,,,,6,,,81,80
23760,note_on,48,0,11,,,,,,,,10,,,62,80
23760,note_on,0,0,8,,,,,,,,6,,,66,80
23760,note_on,48,0,9,,,,,,,,7,,,69,80
23760,note_on,48,0,8,,,,,,,,6,,,62,80
23760,note_on,48,0,10,,,,,,,,8,,,66,80
23808,note_on,48,0,7,,,,,,,,6,,,81,0
23820,note_on,12,0,7,,,,,,,,6,,,74,80
23856,note_on,96,0,10,,,,,,,,8,,,66,0
23856,note_on,0,0,8,,,,,,,,6,,,62,0
23856,note_on,96,0,8,,,,,,,,6,,,66,0
23856,note_on,96,0,11,,,,,,,,10,,,62,0
23856,note_on,96,0,9,,,,,,,,7,,,69,0
23868,note_on,48,0,7,,,,,,,,6,,,74,0
23880,note_on,12,0,7,,,,,,,,6,,,83,80
23880,note_on,24,0,11,,,,,,,,10,,,62,80
23880,note_on,24,0,9,,,,,,,,7,,,71,80
23880,note_on,24,0,8,,,,,,,,6,,,62,80
23880,note_on,0,0,8,,,,,,,,6,,,67,80
23880,note_on,24,0,10,,,,,,,,8,,,67,80
23928,note_on,48,0,7,,,,,,,,6,,,83,0
23940,note_on,12,0,7,,,,,,,,6,,,74,80
23976,note_on,96,0,9,,,,,,,,7,,,71,0
23976,note_on,96,0,8,,,,,,,,6,,,67,0
23976,note_on,0,0,8,,,,,,,,6,,,62,0
23976,note_on,96,0,10,,,,,,,,8,,,67,0
23976,note_on,96,0,11,,,,,,,,10,,,62,0
23988,note_on,48,0,7,,,,,,,,6,,,74,0
24000,note_on,24,0,9,,,,,,,,7,,,69,80
24000,note_on,24,0,11,,,,,,,,10,,,62,80
24000,note_on,24,0,8,,,,,,,,6,,,62,80
24000,note_on,12,0,7,,,,,,,,6,,,81,80
24000,note_on,0,0,8,,,,,,,,6,,,66,80
24000,note_on,24,0,10,,,,,,,,8,,,66,80
24000,note_on,288,0,12,,,,,,,,11,,,50,80
24000,note_on,288,0,13,,,,,,,,12,,,38,80
24048,note_on,48,0,7,,,,,,,,6,,,81,0
24060,note_on,12,0,7,,,,,,,,6,,,78,80
24108,note_on,48,0,7,,,,,,,,6,,,78,0
24120,note_on,12,0,7,,,,,,,,6,,,74,80
24168,note_on,48,0,7,,,,,,,,6,,,74,0
24180,note_on,12,0,7,,,,,,,,6,,,78,80
24192,note_on,192,0,8,,,,,,,,6,,,66,0
24192,note_on,0,0,8,,,,,,,,6,,,62,0
24192,note_on,192,0,11,,,,,,,,10,,,62,0
24192,note_on,192,0,13,,,,,,,,12,,,38,0
24192,note_on,192,0,12,,,,,,,,11,,,50,0
24192,note_on,192,0,10,,,,,,,,8,,,66,0
24192,note_on,192,0,9,,,,,,,,7,,,69,0
24228,note_on,48,0,7,,,,,,,,6,,,78,0
24240,note_on,48,0,9,,,,,,,,7,,,69,80
24240,note_on,0,0,8,,,,,,,,6,,,66,80
24240,note_on,48,0,10,,,,,,,,8,,,66,80
24240,note_on,48,0,8,,,,,,,,6,,,62,80
24240,note_on,12,0,7,,,,,,,,6,,,81,80
24240,note_on,48,0,11,,,,,,,,10,,,62,80
24288,note_on,48,0,7,,,,,,,,6,,,81,0
24300,note_on,12,0,7,,,,,,,,6,,,74,80
24336,note_on,96,0,10,,,,,,,,8,,,66,0
24336,note_on,96,0,9,,,,,,,,7,,,69,0
24336,note_on,96,0,8,,,,,,,,6,,,66,0
24336,note_on,0,0,8,,,,,,,,6,,,62,0
24336,note_on,96,0,11,,,,,,,,10,,,62,0
24348,note_on,48,0,7,,,,,,,,6,,,74,0
24360,note_on,0,0,8,,,,,,,,6,,,62,80
24360,note_on,24,0,9,,,,,,,,7,,,71,80
24360,note_on,24,0,11,,,,,,,,10,,,62,80
24360,note_on,12,0,7,,,,,,,,6,,,83,80
24360,note_on,24,0,10,,,,,,,,8,,,67,80
24360,note_on,24,0,8,,,,,,,,6,,,67,80
24408,note_on,48,0,7,,,,,,,,6,,,83,0
24420,note_on,12,0,7,,,,,,,,6,,,74,80
24456,note_on,96,0,9,,,,,,,,7,,,71,0
24456,note_on,96,0,11,,,,,,,,10,,,62,0
24456,note_on,96,0,8,,,,,,,,6,,,62,0
24456,note_on,0,0,8,,,,,,,,6,,,67,0
24456,note_on,96,0,10,,,,,,,,8,,,67,0
24468,note_on,48,0,7,,,,,,,,6,,,74,0
24480,note_on,24,0,10,,,,,,,,8,,,66,80
24480,note_on,12,0,7,,,,,,,,6,,,81,80
24480,note_on,0,0,8,,,,,,,,6,,,66,80
24480,note_on,24,0,8,,,,,,,,6,,,62,80
24480,note_on,288,0,13,,,,,,,,12,,,38,80
24480,note_on,288,0,12,,,,,,,,11,,,50,80
24480,note_on,24,0,9,,,,,,,,7,,,69,80
24480,note_on,24,0,11,,,,,,,,10,,,62,80
24528,note_on,48,0,7,,,,,,,,6,,,81,0
24540,note_on,12,0,7,,,,,,,,6,,,74,80
24576,note_on,96,0,9,,,,,,,,7,,,69,0
24576,note_on,96,0,10,,,,,,,,8,,,66,0
24576,note_on,96,0,8,,,,,,,,6,,,66,0
24576,note_on,0,0,8,,,,,,,,6,,,62,0
24576,note_on,96,0,11,,,,,,,,10,,,62,0
24588,note_on,48,0,7,,,,,,,,6,,,74,0
24600,note_on,24,0,11,,,,,,,,10,,,62,80
24600,note_on,24,0,10,,,,,,,,8,,,67,80
24600,note_on,24,0,8,,,,,,,,6,,,62,80
24600,note_on,0,0,8,,,,,,,,6,,,67,80
24600,note_on,24,0,9,,,,,,,,7,,,71,80
24600,note_on,12,0,7,,,,,,,,6,,,83,80
24648,note_on,48,0,7,,,,,,,,6,,,83,0
24660,note_on,12,0,7,,,,,,,,6,,,74,80
24672,note_on,192,0,13,,,,,,,,12,,,38,0
24672,note_on,192,0,12,,,,,,,,11,,,50,0
24696,note_on,96,0,9,,,,,,,,7,,,71,0
24696,note_on,96,0,10,,,,,,,,8,,,67,0
24696,note_on,0,0,8,,,,,,,,6,,,62,0
24696,note_on,96,0,8,,,,,,,,6,,,67,0
24696,note_on,96,0,11,,,,,,,,10,,,62,0
24708,note_on,48,0,7,,,,,,,,6,,,74,0
24720,note_on,12,0,7,,,,,,,,6,,,81,80
24720,note_on,0,0,8,,,,,,,,6,,,62,80
24720,note_on,24,0,8,,,,,,,,6,,,66,80
24720,note_on,24,0,11,,,,,,,,10,,,62,80
24720,note_on,24,0,9,,,,,,,,7,,,69,80
24720,note_on,24,0,10,,,,,,,,8,,,66,80
24768,note_on,48,0,7,,,,,,,,6,,,81,0
24780,note_on,12,0,7,,,,,,,,6,,,74,80
24816,note_on,96,0,9,,,,,,,,7,,,69,0
24816,note_on,96,0,10,,,,,,,,8,,,66,0
24816,note_on,96,0,11,,,,,,,,10,,,62,0
24816,note_on,96,0,8,,,,,,,,6,,,62,0
24816,note_on,0,0,8,,,,,,,,6,,,66,0
24828,note_on,48,0,7,,,,,,,,6,,,74,0
24840,note_on,24,0,11,,,,,,,,10,,,62,80
24840,note_on,0,0,8,,,,,,,,6,,,62,80
24840,note_on,24,0,8,,,,,,,,6,,,67,80
24840,note_on,12,0,7,,,,,,,,6,,,83,80
24840,note_on,24,0,9,,,,,,,,7,,,71,80
24840,note_on,24,0,10,,,,,,,,8,,,67,80
24888,note_on,48,0,7,,,,,,,,6,,,83,0
24900,note_on,12,0,7,,,,,,,,6,,,74,80
24936,note_on,96,0,10,,,,,,,,8,,,67,0
24936,note_on,96,0,9,,,,,,,,7,,,71,0
24936,note_on,96,0,8,,,,,,,,6,,,62,0
24936,note_on,0,0,8,,,,,,,,6,,,67,0
24936,note_on,96,0,11,,,,,,,,10,,,62,0
24948,note_on,48,0,7,,,,,,,,6,,,74,0
24960,note_on,24,0,11,,,,,,,,10,,,62,80
24960,note_on,24,0,10,,,,,,,,8,,,66,80
24960,note_on,0,0,8,,,,,,,,6,,,62,80
24960,note_on,288,0,12,,,,,,,,11,,,50,80
24960,note_on,24,0,8,,,,,,,,6,,,66,80
24960,note_on,288,0,13,,,,,,,,12,,,38,80
24960,note_on,12,0,7,,,,,,,,6,,,81,80
24960,note_on,24,0,9,,,,,,,,7,,,69,80
25008,note_on,48,0,7,,,,,,,,6,,,81,0
25020,note_on,12,0,7,,,,,,,,6,,,74,80
25068,note_on,48,0,7,,,,,,,,6,,,74,0
25080,note_on,12,0,7,,,,,,,,6,,,78,80
25128,note_on,48,0,7,,,,,,,,6,,,78,0
25140,note_on,12,0,7,,,,,,,,6,,,81,80
25152,note_on,192,0,11,,,,,,,,10,,,62,0
25152,note_on,0,0,8,,,,,,,,6,,,66,0
25152,note_on,192,0,8,,,,,,,,6,,,62,0
25152,note_on,1632,0,2,,,,,,,,1,,,74,0
25152,note_on,192,0,9,,,,,,,,7,,,69,0
25152,note_on,192,0,10,,,,,,,,8,,,66,0
25152,note_on,1632,0,1,,,,,,,,0,,,86,0
25152,note_on,192,0,12,,,,,,,,11,,,50,0
25152,note_on,192,0,13,,,,,,,,12,,,38,0
25188,note_on,48,0,7,,,,,,,,6,,,81,0
25200,note_on,12,0,7,,,,,,,,6,,,86,80
25248,note_on,48,0,7,,,,,,,,6,,,86,0
25260,note_on,12,0,7,,,,,,,,6,,,85,80
25308,note_on,48,0,7,,,,,,,,6,,,85,0
25320,note_on,12,0,7,,,,,,,,6,,,83,80
25368,note_on,48,0,7,,,,,,,,6,,,83,0
25380,note_on,12,0,7,,,,,,,,6,,,81,80
25428,note_on,48,0,7,,,,,,,,6,,,81,0
25440,note_on,288,0,9,,,,,,,,7,,,64,80
25440,note_on,0,0,10,,,,,,,,8,,,71,80
25440,note_on,288,0,12,,,,,,,,11,,,62,80
25440,note_on,288,0,10,,,,,,,,8,,,68,80
25440,note_on,12,0,7,,,,,,,,6,,,80,80
25440,note_on,288,0,8,,,,,,,,6,,,64,80
25440,note_on,288,0,11,,,,,,,,10,,,64,80
25440,note_on,0,0,8,,,,,,,,6,,,62,80
25488,note_on,48,0,7,,,,,,,,6,,,80,0
25500,note_on,12,0,7,,,,,,,,6,,,71,80
25536,note_on,0,0,10,,,,,,,,8,,,68,0
25536,note_on,96,0,10,,,,,,,,8,,,71,0
25536,note_on,96,0,12,,,,,,,,11,,,62,0
25536,note_on,96,0,8,,,,,,,,6,,,62,0
25536,note_on,96,0,11,,,,,,,,10,,,64,0
25536,note_on,0,0,8,,,,,,,,6,,,64,0
25548,note_on,48,0,7,,,,,,,,6,,,71,0
25560,note_on,24,0,12,,,,,,,,11,,,62,80
25560,note_on,24,0,8,,,,,,,,6,,,62,80
25560,note_on,0,0,8,,,,,,,,6,,,64,80
25560,note_on,24,0,11,,,,,,,,10,,,64,80
25560,note_on,24,0,10,,,,,,,,8,,,71,80
25560,note_on,0,0,10,,,,,,,,8,,,68,80
25560,note_on,12,0,7,,,,,,,,6,,,76,80
25608,note_on,48,0,7,,,,,,,,6,,,76,0
25620,note_on,12,0,7,,,,,,,,6,,,80,80
25632,note_on,192,0,9,,,,,,,,7,,,64,0
25656,note_on,96,0,8,,,,,,,,6,,,64,0
25656,note_on,96,0,12,,,,,,,,11,,,62,0
25656,note_on,96,0,10,,,,,,,,8,,,68,0
25656,note_on,0,0,10,,,,,,,,8,,,71,0
25656,note_on,96,0,11,,,,,,,,10,,,64,0
25656,note_on,0,0,8,,,,,,,,6,,,62,0
25668,note_on,48,0,7,,,,,,,,6,,,80,0
25680,note_on,24,0,12,,,,,,,,11,,,62,80
25680,note_on,48,0,9,,,,,,,,7,,,81,80
25680,note_on,12,0,7,,,,,,,,6,,,83,80
25680,note_on,0,0,10,,,,,,,,8,,,68,80
25680,note_on,24,0,11,,,,,,,,10,,,64,80
25680,note_on,24,0,10,,,,,,,,8,,,71,80
25680,note_on,0,0,8,,,,,,,,6,,,64,80
25680,note_on,24,0,8,,,,,,,,6,,,62,80
25704,note_on,24,0,9,,,,,,,,7,,,81,0
25710,note_on,6,0,9,,,,,,,,7,,,80,80
25728,note_on,48,0,7,,,,,,,,6,,,83,0
25734,note_on,24,0,9,,,,,,,,7,,,80,0
25740,note_on,12,0,7,,,,,,,,6,,,80,80
25740,note_on,6,0,9,,,,,,,,7,,,81,80
25764,note_on,24,0,9,,,,,,,,7,,,81,0
25770,note_on,6,0,9,,,,,,,,7,,,80,80
25776,note_on,0,0,8,,,,,,,,6,,,62,0
25776,note_on,96,0,8,,,,,,,,6,,,64,0
25776,note_on,96,0,10,,,,,,,,8,,,68,0
25776,note_on,0,0,10,,,,,,,,8,,,71,0
25776,note_on,96,0,12,,,,,,,,11,,,62,0
25776,note_on,96,0,11,,,,,,,,10,,,64,0
25788,note_on,48,0,7,,,,,,,,6,,,80,0
25794,note_on,24,0,9,,,,,,,,7,,,80,0
25800,note_on,6,0,9,,,,,,,,7,,,81,80
25800,note_on,0,0,10,,,,,,,,8,,,68,80
25800,note_on,24,0,10,,,,,,,,8,,,71,80
25800,note_on,24,0,11,,,,,,,,10,,,64,80
25800,note_on,24,0,8,,,,,,,,6,,,62,80
25800,note_on,0,0,8,,,,,,,,6,,,64,80
25800,note_on,24,0,12,,,,,,,,11,,,62,80
25800,note_on,12,0,7,,,,,,,,6,,,76,80
25824,note_on,24,0,9,,,,,,,,7,,,81,0
25830,note_on,6,0,9,,,,,,,,7,,,80,80
25848,note_on,48,0,7,,,,,,,,6,,,76,0
25854,note_on,24,0,9,,,,,,,,7,,,80,0
25860,note_on,6,0,9,,,,,,,,7,,,78,80
25860,note_on,12,0,7,,,,,,,,6,,,71,80
25884,note_on,24,0,9,,,,,,,,7,,,78,0
25890,note_on,6,0,9,,,,,,,,7,,,80,80
25896,note_on,0,0,10,,,,,,,,8,,,71,0
25896,note_on,96,0,10,,,,,,,,8,,,68,0
25896,note_on,96,0,11,,,,,,,,10,,,64,0
25896,note_on,96,0,8,,,,,,,,6,,,64,0
25896,note_on,0,0,8,,,,,,,,6,,,62,0
25896,note_on,96,0,12,,,,,,,,11,,,62,0
25908,note_on,48,0,7,,,,,,,,6,,,71,0
25914,note_on,24,0,9,,,,,,,,7,,,80,0
25920,note_on,0,0,8,,,,,,,,6,,,61,80
25920,note_on,24,0,11,,,,,,,,10,,,64,80
25920,note_on,6,0,9,,,,,,,,7,,,81,80
25920,note_on,12,0,7,,,,,,,,6,,,81,80
25920,note_on,24,0,10,,,,,,,,8,,,69,80
25920,note_on,24,0,12,,,,,,,,11,,,61,80
25920,note_on,24,0,8,,,,,,,,6,,,64,80
25968,note_on,48,0,7,,,,,,,,6,,,81,0
25980,note_on,12,0,7,,,,,,,,6,,,73,80
26028,note_on,48,0,7,,,,,,,,6,,,73,0
26040,note_on,12,0,7,,,,,,,,6,,,76,80
26088,note_on,48,0,7,,,,,,,,6,,,76,0
26100,note_on,12,0,7,,,,,,,,6,,,81,80
26112,note_on,192,0,11,,,,,,,,10,,,64,0
26112,note_on,0,0,8,,,,,,,,6,,,64,0
26112,note_on,192,0,8,,,,,,,,6,,,61,0
26112,note_on,192,0,9,,,,,,,,7,,,81,0
26112,note_on,192,0,10,,,,,,,,8,,,69,0
26112,note_on,192,0,12,,,,,,,,11,,,61,0
26148,note_on,48,0,7,,,,,,,,6,,,81,0
26160,note_on,12,0,7,,,,,,,,6,,,85,80
26208,note_on,48,0,7,,,,,,,,6,,,85,0
26220,note_on,12,0,7,,,,,,,,6,,,83,80
26268,note_on,48,0,7,,,,,,,,6,,,83,0
26280,note_on,12,0,7,,,,,,,,6,,,81,80
26328,note_on,48,0,7,,,,,,,,6,,,81,0
26340,note_on,12,0,7,,,,,,,,6,,,80,80
26388,note_on,48,0,7,,,,,,,,6,,,80,0
26400,note_on,0,0,8,,,,,,,,6,,,61,80
26400,note_on,288,0,8,,,,,,,,6,,,62,80
26400,note_on,12,0,7,,,,,,,,6,,,78,80
26400,note_on,288,0,11,,,,,,,,10,,,62,80
26400,note_on,0,0,10,,,,,,,,8,,,69,80
26400,note_on,288,0,9,,,,,,,,7,,,62,80
26400,note_on,288,0,12,,,,,,,,11,,,61,80
26400,note_on,288,0,10,,,,,,,,8,,,66,80
26448,note_on,48,0,7,,,,,,,,6,,,78,0
26460,note_on,12,0,7,,,,,,,,6,,,69,80
26496,note_on,0,0,10,,,,,,,,8,,,66,0
26496,note_on,96,0,10,,,,,,,,8,,,69,0
26496,note_on,0,0,8,,,,,,,,6,,,62,0
26496,note_on,96,0,8,,,,,,,,6,,,61,0
26496,note_on,96,0,11,,,,,,,,10,,,62,0
26496,note_on,96,0,12,,,,,,,,11,,,61,0
26508,note_on,48,0,7,,,,,,,,6,,,69,0
26520,note_on,24,0,10,,,,,,,,8,,,66,80
26520,note_on,0,0,10,,,,,,,,8,,,69,80
26520,note_on,12,0,7,,,,,,,,6,,,74,80
26520,note_on,24,0,11,,,,,,,,10,,,62,80
26520,note_on,24,0,12,,,,,,,,11,,,61,80
26520,note_on,24,0,8,,,,,,,,6,,,61,80
26520,note_on,0,0,8,,,,,,,,6,,,62,80
26568,note_on,48,0,7,,,,,,,,6,,,74,0
26580,note_on,12,0,7,,,,,,,,6,,,78,80
26592,note_on,192,0,9,,,,,,,,7,,,62,0
26616,note_on,0,0,10,,,,,,,,8,,,66,0
26616,note_on,96,0,10,,,,,,,,8,,,69,0
26616,note_on,96,0,12,,,,,,,,11,,,61,0
26616,note_on,96,0,11,,,,,,,,10,,,62,0
26616,note_on,0,0,8,,,,,,,,6,,,61,0
26616,note_on,96,0,8,,,,,,,,6,,,62,0
26628,note_on,48,0,7,,,,,,,,6,,,78,0
26640,note_on,24,0,8,,,,,,,,6,,,62,80
26640,note_on,24,0,11,,,,,,,,10,,,62,80
26640,note_on,48,0,9,,,,,,,,7,,,80,80
26640,note_on,12,0,7,,,,,,,,6,,,81,80
26640,note_on,0,0,8,,,,,,,,6,,,61,80
26640,note_on,24,0,12,,,,,,,,11,,,61,80
26640,note_on,0,0,10,,,,,,,,8,,,66,80
26640,note_on,24,0,10,,,,,,,,8,,,69,80
26664,note_on,24,0,9,,,,,,,,7,,,80,0
26670,note_on,6,0,9,,,,,,,,7,,,78,80
26688,note_on,48,0,7,,,,,,,,6,,,81,0
26694,note_on,24,0,9,,,,,,,,7,,,78,0
26700,note_on,6,0,9,,,,,,,,7,,,80,80
26700,note_on,12,0,7,,,,,,,,6,,,78,80
26724,note_on,24,0,9,,,,,,,,7,,,80,0
26730,note_on,6,0,9,,,,,,,,7,,,78,80
26736,note_on,0,0,8,,,,,,,,6,,,62,0
26736,note_on,96,0,11,,,,,,,,10,,,62,0
26736,note_on,0,0,10,,,,,,,,8,,,69,0
26736,note_on,96,0,12,,,,,,,,11,,,61,0
26736,note_on,96,0,10,,,,,,,,8,,,66,0
26736,note_on,96,0,8,,,,,,,,6,,,61,0
26748,note_on,48,0,7,,,,,,,,6,,,78,0
26754,note_on,24,0,9,,,,,,,,7,,,78,0
26760,note_on,6,0,9,,,,,,,,7,,,80,80
26760,note_on,24,0,11,,,,,,,,10,,,62,80
26760,note_on,24,0,12,,,,,,,,11,,,61,80
26760,note_on,24,0,10,,,,,,,,8,,,69,80
26760,note_on,0,0,8,,,,,,,,6,,,62,80
26760,note_on,24,0,8,,,,,,,,6,,,61,80
26760,note_on,0,0,10,,,,,,,,8,,,66,80
26760,note_on,12,0,7,,,,,,,,6,,,74,80
26784,note_on,24,0,9,,,,,,,,7,,,80,0
26790,note_on,6,0,9,,,,,,,,7,,,78,80
26808,note_on,48,0,7,,,,,,,,6,,,74,0
26814,note_on,24,0,9,,,,,,,,7,,,78,0
26820,note_on,12,0,7,,,,,,,,6,,,69,80
26820,note_on,6,0,9,,,,,,,,7,,,76,80
26844,note_on,24,0,9,,,,,,,,7,,,76,0
26850,note_on,6,0,9,,,,,,,,7,,,78,80
26856,note_on,0,0,8,,,,,,,,6,,,61,0
26856,note_on,96,0,8,,,,,,,,6,,,62,0
26856,note_on,96,0,12,,,,,,,,11,,,61,0
26856,note_on,96,0,10,,,,,,,,8,,,66,0
26856,note_on,0,0,10,,,,,,,,8,,,69,0
26856,note_on,96,0,11,,,,,,,,10,,,62,0
26868,note_on,48,0,7,,,,,,,,6,,,69,0
26874,note_on,24,0,9,,,,,,,,7,,,78,0
26880,note_on,6,0,9,,,,,,,,7,,,80,80
26880,note_on,0,0,8,,,,,,,,6,,,59,80
26880,note_on,24,0,8,,,,,,,,6,,,62,80
26880,note_on,12,0,7,,,,,,,,6,,,80,80
26880,note_on,24,0,12,,,,,,,,11,,,59,80
26880,note_on,24,0,11,,,,,,,,10,,,62,80
26880,note_on,24,0,10,,,,,,,,8,,,68,80
26928,note_on,48,0,7,,,,,,,,6,,,80,0
26940,note_on,12,0,7,,,,,,,,6,,,71,80
26988,note_on,48,0,7,,,,,,,,6,,,71,0
27000,note_on,12,0,7,,,,,,,,6,,,76,80
27048,note_on,48,0,7,,,,,,,,6,,,76,0
27060,note_on,12,0,7,,,,,,,,6,,,80,80
27072,note_on,192,0,10,,,,,,,,8,,,68,0
27072,note_on,192,0,11,,,,,,,,10,,,62,0
27072,note_on,192,0,9,,,,,,,,7,,,80,0
27072,note_on,192,0,8,,,,,,,,6,,,59,0
27072,note_on,192,0,12,,,,,,,,11,,,59,0
27072,note_on,0,0,8,,,,,,,,6,,,62,0
27108,note_on,48,0,7,,,,,,,,6,,,80,0
27120,note_on,12,0,7,,,,,,,,6,,,83,80
27168,note_on,48,0,7,,,,,,,,6,,,83,0
27180,note_on,12,0,7,,,,,,,,6,,,81,80
27228,note_on,48,0,7,,,,,,,,6,,,81,0
27240,note_on,12,0,7,,,,,,,,6,,,80,80
27288,note_on,48,0,7,,,,,,,,6,,,80,0
27300,note_on,12,0,7,,,,,,,,6,,,78,80
27348,note_on,48,0,7,,,,,,,,6,,,78,0
27360,note_on,0,0,8,,,,,,,,6,,,59,80
27360,note_on,288,0,12,,,,,,,,11,,,59,80
27360,note_on,288,0,11,,,,,,,,10,,,61,80
27360,note_on,0,0,11,,,,,,,,10,,,64,80
27360,note_on,288,0,9,,,,,,,,7,,,61,80
27360,note_on,12,0,7,,,,,,,,6,,,76,80
27360,note_on,288,0,8,,,,,,,,6,,,61,80
27360,note_on,288,0,10,,,,,,,,8,,,68,80
27408,note_on,48,0,7,,,,,,,,6,,,76,0
27420,note_on,12,0,7,,,,,,,,6,,,68,80
27456,note_on,96,0,12,,,,,,,,11,,,59,0
27456,note_on,96,0,10,,,,,,,,8,,,68,0
27456,note_on,96,0,8,,,,,,,,6,,,59,0
27456,note_on,0,0,8,,,,,,,,6,,,61,0
27456,note_on,96,0,11,,,,,,,,10,,,64,0
27456,note_on,0,0,11,,,,,,,,10,,,61,0
27468,note_on,48,0,7,,,,,,,,6,,,68,0
27480,note_on,24,0,11,,,,,,,,10,,,64,80
27480,note_on,0,0,11,,,,,,,,10,,,61,80
27480,note_on,0,0,8,,,,,,,,6,,,59,80
27480,note_on,24,0,10,,,,,,,,8,,,68,80
27480,note_on,24,0,12,,,,,,,,11,,,59,80
27480,note_on,12,0,7,,,,,,,,6,,,73,80
27480,note_on,24,0,8,,,,,,,,6,,,61,80
27528,note_on,48,0,7,,,,,,,,6,,,73,0
27540,note_on,12,0,7,,,,,,,,6,,,76,80
27552,note_on,192,0,9,,,,,,,,7,,,61,0
27576,note_on,0,0,11,,,,,,,,10,,,64,0
27576,note_on,96,0,12,,,,,,,,11,,,59,0
27576,note_on,96,0,10,,,,,,,,8,,,68,0
27576,note_on,96,0,11,,,,,,,,10,,,61,0
27576,note_on,0,0,8,,,,,,,,6,,,61,0
27576,note_on,96,0,8,,,,,,,,6,,,59,0
27588,note_on,48,0,7,,,,,,,,6,,,76,0
27600,note_on,24,0,10,,,,,,,,8,,,68,80
27600,note_on,24,0,11,,,,,,,,10,,,61,80
27600,note_on,0,0,11,,,,,,,,10,,,64,80
27600,note_on,12,0,7,,,,,,,,6,,,80,80
27600,note_on,48,0,9,,,,,,,,7,,,78,80
27600,note_on,24,0,12,,,,,,,,11,,,59,80
27600,note_on,24,0,8,,,,,,,,6,,,59,80
27600,note_on,0,0,8,,,,,,,,6,,,61,80
27624,note_on,24,0,9,,,,,,,,7,,,78,0
27630,note_on,6,0,9,,,,,,,,7,,,76,80
27648,note_on,48,0,7,,,,,,,,6,,,80,0
27654,note_on,24,0,9,,,,,,,,7,,,76,0
27660,note_on,6,0,9,,,,,,,,7,,,78,80
27660,note_on,12,0,7,,,,,,,,6,,,76,80
27684,note_on,24,0,9,,,,,,,,7,,,78,0
27690,note_on,6,0,9,,,,,,,,7,,,76,80
27696,note_on,0,0,8,,,,,,,,6,,,59,0
27696,note_on,96,0,10,,,,,,,,8,,,68,0
27696,note_on,96,0,11,,,,,,,,10,,,64,0
27696,note_on,0,0,11,,,,,,,,10,,,61,0
27696,note_on,96,0,8,,,,,,,,6,,,61,0
27696,note_on,96,0,12,,,,,,,,11,,,59,0
27708,note_on,48,0,7,,,,,,,,6,,,76,0
27714,note_on,24,0,9,,,,,,,,7,,,76,0
27720,note_on,24,0,12,,,,,,,,11,,,59,80
27720,note_on,6,0,9,,,,,,,,7,,,78,80
27720,note_on,0,0,8,,,,,,,,6,,,59,80
27720,note_on,24,0,10,,,,,,,,8,,,68,80
27720,note_on,12,0,7,,,,,,,,6,,,73,80
27720,note_on,0,0,11,,,,,,,,10,,,64,80
27720,note_on,24,0,11,,,,,,,,10,,,61,80
27720,note_on,24,0,8,,,,,,,,6,,,61,80
27744,note_on,24,0,9,,,,,,,,7,,,78,0
27750,note_on,6,0,9,,,,,,,,7,,,76,80
27768,note_on,48,0,7,,,,,,,,6,,,73,0
27774,note_on,24,0,9,,,,,,,,7,,,76,0
27780,note_on,12,0,7,,,,,,,,6,,,68,80
27780,note_on,6,0,9,,,,,,,,7,,,74,80
27804,note_on,24,0,9,,,,,,,,7,,,74,0
27810,note_on,6,0,9,,,,,,,,7,,,76,80
27816,note_on,96,0,12,,,,,,,,11,,,59,0
27816,note_on,0,0,8,,,,,,,,6,,,61,0
27816,note_on,96,0,8,,,,,,,,6,,,59,0
27816,note_on,96,0,10,,,,,,,,8,,,68,0
27816,note_on,0,0,11,,,,,,,,10,,,61,0
27816,note_on,96,0,11,,,,,,,,10,,,64,0
27828,note_on,48,0,7,,,,,,,,6,,,68,0
27834,note_on,24,0,9,,,,,,,,7,,,76,0
27840,note_on,6,0,9,,,,,,,,7,,,78,80
27840,note_on,24,0,12,,,,,,,,11,,,57,80
27840,note_on,0,0,8,,,,,,,,6,,,57,80
27840,note_on,24,0,10,,,,,,,,8,,,66,80
27840,note_on,24,0,8,,,,,,,,6,,,61,80
27840,note_on,24,0,11,,,,,,,,10,,,61,80
27840,note_on,0,0,11,,,,,,,,10,,,64,80
27840,note_on,12,0,7,,,,,,,,6,,,78,80
27888,note_on,48,0,7,,,,,,,,6,,,78,0
27900,note_on,12,0,7,,,,,,,,6,,,69,80
27948,note_on,48,0,7,,,,,,,,6,,,69,0
27960,note_on,12,0,7,,,,,,,,6,,,73,80
28008,note_on,48,0,7,,,,,,,,6,,,73,0
28020,note_on,12,0,7,,,,,,,,6,,,78,80
28032,note_on,192,0,8,,,,,,,,6,,,57,0
28032,note_on,0,0,8,,,,,,,,6,,,61,0
28032,note_on,192,0,12,,,,,,,,11,,,57,0
28032,note_on,0,0,11,,,,,,,,10,,,61,0
28032,note_on,192,0,11,,,,,,,,10,,,64,0
28032,note_on,192,0,10,,,,,,,,8,,,66,0
28032,note_on,192,0,9,,,,,,,,7,,,78,0
28068,note_on,48,0,7,,,,,,,,6,,,78,0
28080,note_on,12,0,7,,,,,,,,6,,,81,80
28128,note_on,48,0,7,,,,,,,,6,,,81,0
28140,note_on,12,0,7,,,,,,,,6,,,80,80
28188,note_on,48,0,7,,,,,,,,6,,,80,0
28200,note_on,12,0,7,,,,,,,,6,,,78,80
28248,note_on,48,0,7,,,,,,,,6,,,78,0
28260,note_on,12,0,7,,,,,,,,6,,,76,80
28308,note_on,48,0,7,,,,,,,,6,,,76,0
28320,note_on,12,0,7,,,,,,,,6,,,74,80
28320,note_on,288,0,10,,,,,,,,8,,,66,80
28320,note_on,288,0,12,,,,,,,,11,,,57,80
28320,note_on,288,0,9,,,,,,,,7,,,59,80
28320,note_on,288,0,8,,,,,,,,6,,,59,80
28320,note_on,0,0,8,,,,,,,,6,,,57,80
28320,note_on,0,0,11,,,,,,,,10,,,62,80
28320,note_on,288,0,11,,,,,,,,10,,,59,80
28368,note_on,48,0,7,,,,,,,,6,,,74,0
28380,note_on,12,0,7,,,,,,,,6,,,66,80
28416,note_on,0,0,11,,,,,,,,10,,,59,0
28416,note_on,96,0,10,,,,,,,,8,,,66,0
28416,note_on,0,0,8,,,,,,,,6,,,59,0
28416,note_on,96,0,11,,,,,,,,10,,,62,0
28416,note_on,96,0,12,,,,,,,,11,,,57,0
28416,note_on,96,0,8,,,,,,,,6,,,57,0
28428,note_on,48,0,7,,,,,,,,6,,,66,0
28440,note_on,0,0,8,,,,,,,,6,,,57,80
28440,note_on,24,0,8,,,,,,,,6,,,59,80
28440,note_on,12,0,7,,,,,,,,6,,,71,80
28440,note_on,24,0,11,,,,,,,,10,,,62,80
28440,note_on,24,0,12,,,,,,,,11,,,57,80
28440,note_on,24,0,10,,,,,,,,8,,,66,80
28440,note_on,0,0,11,,,,,,,,10,,,59,80
28488,note_on,48,0,7,,,,,,,,6,,,71,0
28500,note_on,12,0,7,,,,,,,,6,,,74,80
28512,note_on,192,0,9,,,,,,,,7,,,59,0
28536,note_on,96,0,12,,,,,,,,11,,,57,0
28536,note_on,96,0,10,,,,,,,,8,,,66,0
28536,note_on,0,0,8,,,,,,,,6,,,59,0
28536,note_on,96,0,8,,,,,,,,6,,,57,0
28536,note_on,0,0,11,,,,,,,,10,,,62,0
28536,note_on,96,0,11,,,,,,,,10,,,59,0
28548,note_on,48,0,7,,,,,,,,6,,,74,0
28560,note_on,24,0,12,,,,,,,,11,,,57,80
28560,note_on,12,0,7,,,,,,,,6,,,78,80
28560,note_on,24,0,8,,,,,,,,6,,,57,80
28560,note_on,24,0,11,,,,,,,,10,,,62,80
28560,note_on,0,0,11,,,,,,,,10,,,59,80
28560,note_on,24,0,10,,,,,,,,8,,,66,80
28560,note_on,48,0,9,,,,,,,,7,,,76,80
28560,note_on,0,0,8,,,,,,,,6,,,59,80
28584,note_on,24,0,9,,,,,,,,7,,,76,0
28590,note_on,6,0,9,,,,,,,,7,,,74,80
28608,note_on,48,0,7,,,,,,,,6,,,78,0
28614,note_on,24,0,9,,,,,,,,7,,,74,0
28620,note_on,6,0,9,,,,,,,,7,,,76,80
28620,note_on,12,0,7,,,,,,,,6,,,74,80
28644,note_on,24,0,9,,,,,,,,7,,,76,0
28650,note_on,6,0,9,,,,,,,,7,,,74,80
28656,note_on,96,0,8,,,,,,,,6,,,59,0
28656,note_on,96,0,10,,,,,,,,8,,,66,0
28656,note_on,0,0,11,,,,,,,,10,,,62,0
28656,note_on,96,0,12,,,,,,,,11,,,57,0
28656,note_on,96,0,11,,,,,,,,10,,,59,0
28656,note_on,0,0,8,,,,,,,,6,,,57,0
28668,note_on,48,0,7,,,,,,,,6,,,74,0
28674,note_on,24,0,9,,,,,,,,7,,,74,0
28680,note_on,0,0,8,,,,,,,,6,,,59,80
28680,note_on,6,0,9,,,,,,,,7,,,76,80
28680,note_on,24,0,12,,,,,,,,11,,,57,80
28680,note_on,24,0,8,,,,,,,,6,,,57,80
28680,note_on,24,0,11,,,,,,,,10,,,59,80
28680,note_on,12,0,7,,,,,,,,6,,,71,80
28680,note_on,24,0,10,,,,,,,,8,,,66,80
28680,note_on,0,0,11,,,,,,,,10,,,62,80
28704,note_on,24,0,9,,,,,,,,7,,,76,0
28710,note_on,6,0,9,,,,,,,,7,,,74,80
28728,note_on,48,0,7,,,,,,,,6,,,71,0
28734,note_on,24,0,9,,,,,,,,7,,,74,0
28740,note_on,12,0,7,,,,,,,,6,,,66,80
28740,note_on,6,0,9,,,,,,,,7,,,73,80
28764,note_on,24,0,9,,,,,,,,7,,,73,0
28770,note_on,6,0,9,,,,,,,,7,,,74,80
28776,note_on,96,0,8,,,,,,,,6,,,59,0
28776,note_on,96,0,11,,,,,,,,10,,,62,0
28776,note_on,0,0,11,,,,,,,,10,,,59,0
28776,note_on,96,0,10,,,,,,,,8,,,66,0
28776,note_on,0,0,8,,,,,,,,6,,,57,0
28776,note_on,96,0,12,,,,,,,,11,,,57,0
28788,note_on,48,0,7,,,,,,,,6,,,66,0
28794,note_on,24,0,9,,,,,,,,7,,,74,0
28800,note_on,24,0,10,,,,,,,,8,,,64,80
28800,note_on,0,0,11,,,,,,,,10,,,59,80
28800,note_on,24,0,11,,,,,,,,10,,,62,80
28800,note_on,6,0,9,,,,,,,,7,,,76,80
28800,note_on,24,0,12,,,,,,,,11,,,56,80
28800,note_on,24,0,8,,,,,,,,6,,,59,80
28800,note_on,0,0,8,,,,,,,,6,,,56,80
28800,note_on,12,0,7,,,,,,,,6,,,76,80
28848,note_on,48,0,7,,,,,,,,6,,,76,0
28860,note_on,12,0,7,,,,,,,,6,,,71,80
28908,note_on,48,0,7,,,,,,,,6,,,71,0
28920,note_on,12,0,7,,,,,,,,6,,,80,80
28968,note_on,48,0,7,,,,,,,,6,,,80,0
28980,note_on,12,0,7,,,,,,,,6,,,76,80
28992,note_on,192,0,10,,,,,,,,8,,,64,0
28992,note_on,192,0,12,,,,,,,,11,,,56,0
28992,note_on,0,0,11,,,,,,,,10,,,62,0
28992,note_on,192,0,11,,,,,,,,10,,,59,0
28992,note_on,192,0,8,,,,,,,,6,,,56,0
28992,note_on,192,0,9,,,,,,,,7,,,76,0
28992,note_on,0,0,8,,,,,,,,6,,,59,0
29028,note_on,48,0,7,,,,,,,,6,,,76,0
29040,note_on,12,0,7,,,,,,,,6,,,83,80
29088,note_on,48,0,7,,,,,,,,6,,,83,0
29100,note_on,12,0,7,,,,,,,,6,,,80,80
29148,note_on,48,0,7,,,,,,,,6,,,80,0
29160,note_on,12,0,7,,,,,,,,6,,,76,80
29208,note_on,48,0,7,,,,,,,,6,,,76,0
29220,note_on,12,0,7,,,,,,,,6,,,74,80
29268,note_on,48,0,7,,,,,,,,6,,,74,0
29280,note_on,288,0,11,,,,,,,,10,,,57,80
29280,note_on,12,0,7,,,,,,,,6,,,73,80
29280,note_on,288,0,10,,,,,,,,8,,,64,80
29280,note_on,288,0,9,,,,,,,,7,,,73,80
29280,note_on,288,0,8,,,,,,,,6,,,64,80
29280,note_on,0,0,8,,,,,,,,6,,,57,80
29328,note_on,48,0,7,,,,,,,,6,,,73,0
29340,note_on,12,0,7,,,,,,,,6,,,81,80
29388,note_on,48,0,7,,,,,,,,6,,,81,0
29400,note_on,12,0,7,,,,,,,,6,,,85,80
29448,note_on,48,0,7,,,,,,,,6,,,85,0
29460,note_on,12,0,7,,,,,,,,6,,,80,80
29472,note_on,192,0,10,,,,,,,,8,,,64,0
29472,note_on,192,0,8,,,,,,,,6,,,64,0
29508,note_on,48,0,7,,,,,,,,6,,,80,0
29520,note_on,48,0,10,,,,,,,,8,,,66,80
29520,note_on,48,0,8,,,,,,,,6,,,66,80
29520,note_on,12,0,7,,,,,,,,6,,,81,80
29568,note_on,48,0,7,,,,,,,,6,,,81,0
29580,note_on,12,0,7,,,,,,,,6,,,76,80
29628,note_on,48,0,7,,,,,,,,6,,,76,0
29640,note_on,12,0,7,,,,,,,,6,,,78,80
29664,note_on,384,0,9,,,,,,,,7,,,73,0
29664,note_on,384,0,11,,,,,,,,10,,,57,0
29664,note_on,144,0,8,,,,,,,,6,,,57,0
29688,note_on,48,0,7,,,,,,,,6,,,78,0
29700,note_on,12,0,7,,,,,,,,6,,,73,80
29748,note_on,48,0,7,,,,,,,,6,,,73,0
29760,note_on,12,0,7,,,,,,,,6,,,74,80
29760,note_on,96,0,9,,,,,,,,7,,,74,80
29760,note_on,96,0,11,,,,,,,,10,,,59,80
29760,note_on,96,0,8,,,,,,,,6,,,59,80
29808,note_on,48,0,7,,,,,,,,6,,,74,0
29820,note_on,12,0,7,,,,,,,,6,,,81,80
29868,note_on,48,0,7,,,,,,,,6,,,81,0
29880,note_on,12,0,7,,,,,,,,6,,,86,80
29928,note_on,48,0,7,,,,,,,,6,,,86,0
29940,note_on,12,0,7,,,,,,,,6,,,81,80
29952,note_on,432,0,10,,,,,,,,8,,,66,0
29952,note_on,192,0,8,,,,,,,,6,,,66,0
29988,note_on,48,0,7,,,,,,,,6,,,81,0
30000,note_on,48,0,10,,,,,,,,8,,,68,80
30000,note_on,12,0,7,,,,,,,,6,,,83,80
30000,note_on,48,0,8,,,,,,,,6,,,68,80
30048,note_on,48,0,7,,,,,,,,6,,,83,0
30060,note_on,12,0,7,,,,,,,,6,,,78,80
30108,note_on,48,0,7,,,,,,,,6,,,78,0
30120,note_on,12,0,7,,,,,,,,6,,,80,80
30144,note_on,144,0,8,,,,,,,,6,,,59,0
30144,note_on,384,0,9,,,,,,,,7,,,74,0
30144,note_on,384,0,11,,,,,,,,10,,,59,0
30168,note_on,48,0,7,,,,,,,,6,,,80,0
30180,note_on,12,0,7,,,,,,,,6,,,74,80
30228,note_on,48,0,7,,,,,,,,6,,,74,0
30240,note_on,96,0,9,,,,,,,,7,,,76,80
30240,note_on,12,0,7,,,,,,,,6,,,76,80
30240,note_on,96,0,11,,,,,,,,10,,,61,80
30240,note_on,96,0,8,,,,,,,,6,,,61,80
30288,note_on,48,0,7,,,,,,,,6,,,76,0
30300,note_on,12,0,7,,,,,,,,6,,,85,80
30348,note_on,48,0,7,,,,,,,,6,,,85,0
30360,note_on,12,0,7,,,,,,,,6,,,88,80
30408,note_on,48,0,7,,,,,,,,6,,,88,0
30420,note_on,12,0,7,,,,,,,,6,,,83,80
30432,note_on,192,0,8,,,,,,,,6,,,68,0
30432,note_on,432,0,10,,,,,,,,8,,,68,0
30468,note_on,48,0,7,,,,,,,,6,,,83,0
30480,note_on,48,0,10,,,,,,,,8,,,69,80
30480,note_on,48,0,8,,,,,,,,6,,,69,80
30480,note_on,12,0,7,,,,,,,,6,,,85,80
30528,note_on,48,0,7,,,,,,,,6,,,85,0
30540,note_on,12,0,7,,,,,,,,6,,,80,80
30588,note_on,48,0,7,,,,,,,,6,,,80,0
30600,note_on,12,0,7,,,,,,,,6,,,81,80
30624,note_on,384,0,11,,,,,,,,10,,,61,0
30624,note_on,144,0,8,,,,,,,,6,,,61,0
30624,note_on,384,0,9,,,,,,,,7,,,76,0
30648,note_on,48,0,7,,,,,,,,6,,,81,0
30660,note_on,12,0,7,,,,,,,,6,,,76,80
30708,note_on,48,0,7,,,,,,,,6,,,76,0
30720,note_on,96,0,11,,,,,,,,10,,,62,80
30720,note_on,96,0,9,,,,,,,,7,,,78,80
30720,note_on,96,0,8,,,,,,,,6,,,62,80
30720,note_on,12,0,7,,,,,,,,6,,,78,80
30768,note_on,48,0,7,,,,,,,,6,,,78,0
30780,note_on,12,0,7,,,,,,,,6,,,81,80
30828,note_on,48,0,7,,,,,,,,6,,,81,0
30840,note_on,12,0,7,,,,,,,,6,,,83,80
30888,note_on,48,0,7,,,,,,,,6,,,83,0
30900,note_on,12,0,7,,,,,,,,6,,,85,80
30912,note_on,192,0,8,,,,,,,,6,,,69,0
30912,note_on,432,0,10,,,,,,,,8,,,69,0
30948,note_on,48,0,7,,,,,,,,6,,,85,0
30960,note_on,12,0,7,,,,,,,,6,,,86,80
30960,note_on,48,0,8,,,,,,,,6,,,71,80
30960,note_on,48,0,10,,,,,,,,8,,,71,80
31008,note_on,48,0,7,,,,,,,,6,,,86,0
31008,note_on,48,0,8,,,,,,,,6,,,62,0
31008,note_on,288,0,11,,,,,,,,10,,,62,0
31020,note_on,12,0,7,,,,,,,,6,,,85,80
31068,note_on,48,0,7,,,,,,,,6,,,85,0
31080,note_on,72,0,11,,,,,,,,10,,,63,80
31080,note_on,12,0,7,,,,,,,,6,,,83,80
31080,note_on,72,0,8,,,,,,,,6,,,63,80
31104,note_on,384,0,9,,,,,,,,7,,,78,0
31128,note_on,48,0,7,,,,,,,,6,,,83,0
31140,note_on,12,0,7,,,,,,,,6,,,81,80
31152,note_on,192,0,10,,,,,,,,8,,,71,0
31152,note_on,72,0,8,,,,,,,,6,,,71,0
31176,note_on,96,0,11,,,,,,,,10,,,63,0
31176,note_on,24,0,8,,,,,,,,6,,,63,0
31188,note_on,48,0,7,,,,,,,,6,,,81,0
31200,note_on,0,0,8,,,,,,,,6,,,71,80
31200,note_on,48,0,10,,,,,,,,8,,,71,80
31200,note_on,24,0,11,,,,,,,,10,,,64,80
31200,note_on,24,0,8,,,,,,,,6,,,64,80
31200,note_on,12,0,7,,,,,,,,6,,,80,80
31200,note_on,96,0,9,,,,,,,,7,,,80,80
31248,note_on,48,0,7,,,,,,,,6,,,80,0
31260,note_on,12,0,7,,,,,,,,6,,,76,80
31308,note_on,48,0,7,,,,,,,,6,,,76,0
31320,note_on,12,0,7,,,,,,,,6,,,80,80
31368,note_on,48,0,7,,,,,,,,6,,,80,0
31380,note_on,12,0,7,,,,,,,,6,,,83,80
31392,note_on,192,0,9,,,,,,,,7,,,80,0
31392,note_on,192,0,10,,,,,,,,8,,,71,0
31392,note_on,192,0,11,,,,,,,,10,,,64,0
31392,note_on,192,0,8,,,,,,,,6,,,71,0
31392,note_on,0,0,8,,,,,,,,6,,,64,0
31428,note_on,48,0,7,,,,,,,,6,,,83,0
31440,note_on,0,0,8,,,,,,,,6,,,68,80
31440,note_on,48,0,8,,,,,,,,6,,,64,80
31440,note_on,12,0,7,,,,,,,,6,,,86,80
31488,note_on,48,0,7,,,,,,,,6,,,86,0
31500,note_on,12,0,7,,,,,,,,6,,,83,80
31536,note_on,0,0,8,,,,,,,,6,,,64,0
31536,note_on,96,0,8,,,,,,,,6,,,68,0
31548,note_on,48,0,7,,,,,,,,6,,,83,0
31560,note_on,0,0,8,,,,,,,,6,,,69,80
31560,note_on,24,0,8,,,,,,,,6,,,64,80
31560,note_on,12,0,7,,,,,,,,6,,,85,80
31608,note_on,48,0,7,,,,,,,,6,,,85,0
31620,note_on,12,0,7,,,,,,,,6,,,81,80
31656,note_on,0,0,8,,,,,,,,6,,,64,0
31656,note_on,96,0,8,,,,,,,,6,,,69,0
31668,note_on,48,0,7,,,,,,,,6,,,81,0
31680,note_on,12,0,7,,,,,,,,6,,,80,80
31680,note_on,24,0,8,,,,,,,,6,,,64,80
31680,note_on,0,0,8,,,,,,,,6,,,71,80
31728,note_on,48,0,7,,,,,,,,6,,,80,0
31740,note_on,12,0,7,,,,,,,,6,,,76,80
31788,note_on,48,0,7,,,,,,,,6,,,76,0
31800,note_on,12,0,7,,,,,,,,6,,,80,80
31848,note_on,48,0,7,,,,,,,,6,,,80,0
31860,note_on,12,0,7,,,,,,,,6,,,83,80
31872,note_on,0,0,8,,,,,,,,6,,,64,0
31872,note_on,192,0,8,,,,,,,,6,,,71,0
31908,note_on,48,0,7,,,,,,,,6,,,83,0
31920,note_on,12,0,7,,,,,,,,6,,,86,80
31920,note_on,0,0,8,,,,,,,,6,,,64,80
31920,note_on,48,0,8,,,,,,,,6,,,68,80
31968,note_on,48,0,7,,,,,,,,6,,,86,0
31980,note_on,12,0,7,,,,,,,,6,,,83,80
32016,note_on,96,0,8,,,,,,,,6,,,64,0
32016,note_on,0,0,8,,,,,,,,6,,,68,0
32028,note_on,48,0,7,,,,,,,,6,,,83,0
32040,note_on,24,0,8,,,,,,,,6,,,69,80
32040,note_on,0,0,8,,,,,,,,6,,,64,80
32040,note_on,12,0,7,,,,,,,,6,,,85,80
32088,note_on,48,0,7,,,,,,,,6,,,85,0
32100,note_on,12,0,7,,,,,,,,6,,,81,80
32136,note_on,96,0,8,,,,,,,,6,,,64,0
32136,note_on,0,0,8,,,,,,,,6,,,69,0
32148,note_on,48,0,7,,,,,,,,6,,,81,0
32160,note_on,12,0,7,,,,,,,,6,,,88,80
32160,note_on,8928,0,4,,,,,,,,3,,,64,80
32160,note_on,768,0,10,,,,,,,,8,,,68,80
32160,note_on,7008,0,13,,,,,,,,12,,,40,80
32160,note_on,0,0,8,,,,,,,,6,,,68,80
32160,note_on,24,0,8,,,,,,,,6,,,64,80
32160,note_on,768,0,11,,,,,,,,10,,,64,80
32160,note_on,7008,0,2,,,,,,,,1,,,76,80
32160,note_on,768,0,9,,,,,,,,7,,,68,80
32160,note_on,8928,0,3,,,,,,,,2,,,52,80
32160,note_on,7008,0,1,,,,,,,,0,,,88,80
32160,note_on,3168,0,12,,,,,,,,11,,,52,80
32208,note_on,48,0,9,,,,,,,,7,,,68,0
32208,note_on,48,0,10,,,,,,,,8,,,68,0
32220,note_on,12,0,10,,,,,,,,8,,,64,80
32220,note_on,12,0,9,,,,,,,,7,,,64,80
32256,note_on,96,0,12,,,,,,,,11,,,52,0
32256,note_on,96,0,13,,,,,,,,12,,,40,0
32256,note_on,96,0,11,,,,,,,,10,,,64,0
32256,note_on,96,0,3,,,,,,,,2,,,52,0
32268,note_on,48,0,10,,,,,,,,8,,,64,0
32268,note_on,48,0,9,,,,,,,,7,,,64,0
32280,note_on,24,0,11,,,,,,,,10,,,68,80
32280,note_on,24,0,3,,,,,,,,2,,,56,80
32280,note_on,12,0,9,,,,,,,,7,,,68,80
32280,note_on,24,0,13,,,,,,,,12,,,44,80
32280,note_on,24,0,12,,,,,,,,11,,,56,80
32280,note_on,12,0,10,,,,,,,,8,,,68,80
32328,note_on,48,0,10,,,,,,,,8,,,68,0
32328,note_on,48,0,12,,,,,,,,11,,,56,0
32328,note_on,48,0,11,,,,,,,,10,,,68,0
32328,note_on,48,0,13,,,,,,,,12,,,44,0
32328,note_on,48,0,9,,,,,,,,7,,,68,0
32328,note_on,48,0,3,,,,,,,,2,,,56,0
32340,note_on,12,0,9,,,,,,,,7,,,71,80
32340,note_on,12,0,12,,,,,,,,11,,,59,80
32340,note_on,12,0,10,,,,,,,,8,,,71,80
32340,note_on,12,0,11,,,,,,,,10,,,71,80
32340,note_on,12,0,3,,,,,,,,2,,,59,80
32340,note_on,12,0,13,,,,,,,,12,,,47,80
32352,note_on,0,0,8,,,,,,,,6,,,64,0
32352,note_on,192,0,8,,,,,,,,6,,,68,0
32352,note_on,192,0,7,,,,,,,,6,,,88,0
32388,note_on,48,0,9,,,,,,,,7,,,71,0
32388,note_on,48,0,12,,,,,,,,11,,,59,0
32388,note_on,48,0,3,,,,,,,,2,,,59,0
32388,note_on,48,0,11,,,,,,,,10,,,71,0
32388,note_on,48,0,10,,,,,,,,8,,,71,0
32388,note_on,48,0,13,,,,,,,,12,,,47,0
32400,note_on,12,0,13,,,,,,,,12,,,50,80
32400,note_on,12,0,12,,,,,,,,11,,,62,80
32400,note_on,12,0,9,,,,,,,,7,,,74,80
32400,note_on,12,0,10,,,,,,,,8,,,74,80
32400,note_on,12,0,3,,,,,,,,2,,,62,80
32400,note_on,12,0,11,,,,,,,,10,,,74,80
32448,note_on,48,0,9,,,,,,,,7,,,74,0
32448,note_on,48,0,10,,,,,,,,8,,,74,0
32448,note_on,48,0,11,,,,,,,,10,,,74,0
32448,note_on,48,0,13,,,,,,,,12,,,50,0
32448,note_on,48,0,3,,,,,,,,2,,,62,0
32448,note_on,48,0,12,,,,,,,,11,,,62,0
32460,note_on,12,0,11,,,,,,,,10,,,71,80
32460,note_on,12,0,12,,,,,,,,11,,,59,80
32460,note_on,12,0,10,,,,,,,,8,,,71,80
32460,note_on,12,0,13,,,,,,,,12,,,47,80
32460,note_on,12,0,9,,,,,,,,7,,,71,80
32460,note_on,12,0,3,,,,,,,,2,,,59,80
32508,note_on,48,0,11,,,,,,,,10,,,71,0
32508,note_on,48,0,12,,,,,,,,11,,,59,0
32508,note_on,48,0,13,,,,,,,,12,,,47,0
32508,note_on,48,0,9,,,,,,,,7,,,71,0
32508,note_on,48,0,10,,,,,,,,8,,,71,0
32508,note_on,48,0,3,,,,,,,,2,,,59,0
32520,note_on,12,0,11,,,,,,,,10,,,73,80
32520,note_on,12,0,10,,,,,,,,8,,,73,80
32520,note_on,12,0,9,,,,,,,,7,,,73,80
32520,note_on,12,0,3,,,,,,,,2,,,61,80
32520,note_on,12,0,13,,,,,,,,12,,,49,80
32520,note_on,12,0,12,,,,,,,,11,,,61,80
32568,note_on,48,0,11,,,,,,,,10,,,73,0
32568,note_on,48,0,3,,,,,,,,2,,,61,0
32568,note_on,48,0,12,,,,,,,,11,,,61,0
32568,note_on,48,0,10,,,,,,,,8,,,73,0
32568,note_on,48,0,9,,,,,,,,7,,,73,0
32568,note_on,48,0,13,,,,,,,,12,,,49,0
32580,note_on,12,0,13,,,,,,,,12,,,45,80
32580,note_on,12,0,12,,,,,,,,11,,,57,80
32580,note_on,12,0,11,,,,,,,,10,,,69,80
32580,note_on,12,0,9,,,,,,,,7,,,69,80
32580,note_on,12,0,10,,,,,,,,8,,,69,80
32580,note_on,12,0,3,,,,,,,,2,,,57,80
32628,note_on,48,0,10,,,,,,,,8,,,69,0
32628,note_on,48,0,11,,,,,,,,10,,,69,0
32628,note_on,48,0,9,,,,,,,,7,,,69,0
32628,note_on,48,0,13,,,,,,,,12,,,45,0
32628,note_on,48,0,12,,,,,,,,11,,,57,0
32628,note_on,48,0,3,,,,,,,,2,,,57,0
32640,note_on,12,0,9,,,,,,,,7,,,68,80
32640,note_on,12,0,13,,,,,,,,12,,,44,80
32640,note_on,12,0,12,,,,,,,,11,,,56,80
32640,note_on,12,0,11,,,,,,,,10,,,68,80
32640,note_on,12,0,10,,,,,,,,8,,,68,80
32640,note_on,12,0,3,,,,,,,,2,,,56,80
32688,note_on,48,0,11,,,,,,,,10,,,68,0
32688,note_on,48,0,9,,,,,,,,7,,,68,0
32688,note_on,48,0,12,,,,,,,,11,,,56,0
32688,note_on,48,0,3,,,,,,,,2,,,56,0
32688,note_on,48,0,13,,,,,,,,12,,,44,0
32688,note_on,48,0,10,,,,,,,,8,,,68,0
32700,note_on,12,0,11,,,,,,,,10,,,64,80
32700,note_on,12,0,3,,,,,,,,2,,,52,80
32700,note_on,12,0,12,,,,,,,,11,,,52,80
32700,note_on,12,0,9,,,,,,,,7,,,64,80
32700,note_on,12,0,10,,,,,,,,8,,,64,80
32700,note_on,12,0,13,,,,,,,,12,,,40,80
32748,note_on,48,0,9,,,,,,,,7,,,64,0
32748,note_on,48,0,13,,,,,,,,12,,,40,0
32748,note_on,48,0,11,,,,,,,,10,,,64,0
32748,note_on,48,0,12,,,,,,,,11,,,52,0
32748,note_on,48,0,10,,,,,,,,8,,,64,0
32748,note_on,48,0,3,,,,,,,,2,,,52,0
32760,note_on,12,0,9,,,,,,,,7,,,68,80
32760,note_on,12,0,13,,,,,,,,12,,,44,80
32760,note_on,12,0,11,,,,,,,,10,,,68,80
32760,note_on,12,0,12,,,,,,,,11,,,56,80
32760,note_on,12,0,10,,,,,,,,8,,,68,80
32760,note_on,12,0,3,,,,,,,,2,,,56,80
32808,note_on,48,0,3,,,,,,,,2,,,56,0
32808,note_on,48,0,9,,,,,,,,7,,,68,0
32808,note_on,48,0,13,,,,,,,,12,,,44,0
32808,note_on,48,0,12,,,,,,,,11,,,56,0
32808,note_on,48,0,10,,,,,,,,8,,,68,0
32808,note_on,48,0,11,,,,,,,,10,,,68,0
32820,note_on,12,0,3,,,,,,,,2,,,59,80
32820,note_on,12,0,11,,,,,,,,10,,,71,80
32820,note_on,12,0,12,,,,,,,,11,,,59,80
32820,note_on,12,0,9,,,,,,,,7,,,71,80
32820,note_on,12,0,13,,,,,,,,12,,,47,80
32820,note_on,12,0,10,,,,,,,,8,,,71,80
32868,note_on,48,0,12,,,,,,,,11,,,59,0
32868,note_on,48,0,3,,,,,,,,2,,,59,0
32868,note_on,48,0,11,,,,,,,,10,,,71,0
32868,note_on,48,0,13,,,,,,,,12,,,47,0
32868,note_on,48,0,9,,,,,,,,7,,,71,0
32868,note_on,48,0,10,,,,,,,,8,,,71,0
32880,note_on,12,0,9,,,,,,,,7,,,74,80
32880,note_on,12,0,12,,,,,,,,11,,,62,80
32880,note_on,12,0,10,,,,,,,,8,,,74,80
32880,note_on,12,0,13,,,,,,,,12,,,50,80
32880,note_on,12,0,3,,,,,,,,2,,,62,80
32880,note_on,12,0,11,,,,,,,,10,,,74,80
32928,note_on,48,0,13,,,,,,,,12,,,50,0
32928,note_on,48,0,3,,,,,,,,2,,,62,0
32928,note_on,48,0,12,,,,,,,,11,,,62,0
32928,note_on,48,0,10,,,,,,,,8,,,74,0
32928,note_on,48,0,11,,,,,,,,10,,,74,0
32928,note_on,48,0,9,,,,,,,,7,,,74,0
32940,note_on,12,0,11,,,,,,,,10,,,71,80
32940,note_on,12,0,3,,,,,,,,2,,,59,80
32940,note_on,12,0,13,,,,,,,,12,,,47,80
32940,note_on,12,0,10,,,,,,,,8,,,71,80
32940,note_on,12,0,9,,,,,,,,7,,,71,80
32940,note_on,12,0,12,,,,,,,,11,,,59,80
32988,note_on,48,0,3,,,,,,,,2,,,59,0
32988,note_on,48,0,12,,,,,,,,11,,,59,0
32988,note_on,48,0,10,,,,,,,,8,,,71,0
32988,note_on,48,0,13,,,,,,,,12,,,47,0
32988,note_on,48,0,11,,,,,,,,10,,,71,0
32988,note_on,48,0,9,,,,,,,,7,,,71,0
33000,note_on,12,0,3,,,,,,,,2,,,61,80
33000,note_on,12,0,13,,,,,,,,12,,,49,80
33000,note_on,12,0,12,,,,,,,,11,,,61,80
33000,note_on,12,0,9,,,,,,,,7,,,73,80
33000,note_on,12,0,10,,,,,,,,8,,,73,80
33000,note_on,12,0,11,,,,,,,,10,,,73,80
33048,note_on,48,0,13,,,,,,,,12,,,49,0
33048,note_on,48,0,10,,,,,,,,8,,,73,0
33048,note_on,48,0,12,,,,,,,,11,,,61,0
33048,note_on,48,0,9,,,,,,,,7,,,73,0
33048,note_on,48,0,11,,,,,,,,10,,,73,0
33048,note_on,48,0,3,,,,,,,,2,,,61,0
33060,note_on,12,0,3,,,,,,,,2,,,57,80
33060,note_on,12,0,13,,,,,,,,12,,,45,80
33060,note_on,12,0,10,,,,,,,,8,,,69,80
33060,note_on,12,0,9,,,,,,,,7,,,69,80
33060,note_on,12,0,11,,,,,,,,10,,,69,80
33060,note_on,12,0,12,,,,,,,,11,,,57,80
33108,note_on,48,0,10,,,,,,,,8,,,69,0
33108,note_on,48,0,11,,,,,,,,10,,,69,0
33108,note_on,48,0,3,,,,,,,,2,,,57,0
33108,note_on,48,0,13,,,,,,,,12,,,45,0
33108,note_on,48,0,12,,,,,,,,11,,,57,0
33108,note_on,48,0,9,,,,,,,,7,,,69,0
33120,note_on,12,0,3,,,,,,,,2,,,64,80
33120,note_on,768,0,8,,,,,,,,6,,,40,80
33120,note_on,0,0,8,,,,,,,,6,,,52,80
33120,note_on,12,0,13,,,,,,,,12,,,52,80
33120,note_on,12,0,10,,,,,,,,8,,,76,80
33120,note_on,12,0,12,,,,,,,,11,,,64,80
33120,note_on,12,0,11,,,,,,,,10,,,76,80
33120,note_on,12,0,9,,,,,,,,7,,,76,80
33180,note_on,828,0,7,,,,,,,,6,,,64,80
33228,note_on,48,0,7,,,,,,,,6,,,64,0
33240,note_on,12,0,7,,,,,,,,6,,,66,80
33288,note_on,48,0,7,,,,,,,,6,,,66,0
33300,note_on,12,0,7,,,,,,,,6,,,68,80
33312,note_on,192,0,3,,,,,,,,2,,,64,0
33312,note_on,192,0,13,,,,,,,,12,,,52,0
33312,note_on,0,0,8,,,,,,,,6,,,40,0
33312,note_on,192,0,8,,,,,,,,6,,,52,0
33312,note_on,1152,0,2,,,,,,,,1,,,76,0
33312,note_on,192,0,10,,,,,,,,8,,,76,0
33312,note_on,1152,0,4,,,,,,,,3,,,64,0
33312,note_on,192,0,12,,,,,,,,11,,,64,0
33312,note_on,1152,0,1,,,,,,,,0,,,88,0
33312,note_on,192,0,9,,,,,,,,7,,,76,0
33312,note_on,192,0,11,,,,,,,,10,,,76,0
33348,note_on,48,0,7,,,,,,,,6,,,68,0
33360,note_on,12,0,7,,,,,,,,6,,,69,80
33408,note_on,48,0,7,,,,,,,,6,,,69,0
33420,note_on,12,0,7,,,,,,,,6,,,71,80
33468,note_on,48,0,7,,,,,,,,6,,,71,0
33480,note_on,12,0,7,,,,,,,,6,,,73,80
33528,note_on,48,0,7,,,,,,,,6,,,73,0
33540,note_on,12,0,7,,,,,,,,6,,,75,80
33588,note_on,48,0,7,,,,,,,,6,,,75,0
33600,note_on,12,0,7,,,,,,,,6,,,76,80
33648,note_on,48,0,7,,,,,,,,6,,,76,0
33660,note_on,12,0,7,,,,,,,,6,,,76,80
33708,note_on,48,0,7,,,,,,,,6,,,76,0
33720,note_on,12,0,7,,,,,,,,6,,,78,80
33768,note_on,48,0,7,,,,,,,,6,,,78,0
33780,note_on,12,0,7,,,,,,,,6,,,80,80
33828,note_on,48,0,7,,,,,,,,6,,,80,0
33840,note_on,12,0,7,,,,,,,,6,,,81,80
33888,note_on,48,0,7,,,,,,,,6,,,81,0
33900,note_on,12,0,7,,,,,,,,6,,,83,80
33948,note_on,48,0,7,,,,,,,,6,,,83,0
33960,note_on,12,0,7,,,,,,,,6,,,85,80
34008,note_on,48,0,7,,,,,,,,6,,,85,0
34020,note_on,12,0,7,,,,,,,,6,,,87,80
34068,note_on,48,0,7,,,,,,,,6,,,87,0
34080,note_on,768,0,9,,,,,,,,7,,,76,80
34080,note_on,768,0,10,,,,,,,,8,,,73,80
34080,note_on,12,0,7,,,,,,,,6,,,88,80
34080,note_on,768,0,11,,,,,,,,10,,,69,80
34176,note_on,96,0,11,,,,,,,,10,,,69,0
34176,note_on,96,0,10,,,,,,,,8,,,73,0
34200,note_on,24,0,10,,,,,,,,8,,,73,80
34200,note_on,24,0,11,,,,,,,,10,,,69,80
34272,note_on,192,0,7,,,,,,,,6,,,88,0
34296,note_on,96,0,10,,,,,,,,8,,,73,0
34296,note_on,96,0,11,,,,,,,,10,,,69,0
34320,note_on,24,0,10,,,,,,,,8,,,73,80
34320,note_on,24,0,11,,,,,,,,10,,,69,80
34368,note_on,288,0,9,,,,,,,,7,,,76,0
34416,note_on,96,0,10,,,,,,,,8,,,73,0
34416,note_on,96,0,11,,,,,,,,10,,,69,0
34440,note_on,24,0,11,,,,,,,,10,,,69,80
34440,note_on,72,0,9,,,,,,,,7,,,81,80
34440,note_on,24,0,10,,,,,,,,8,,,73,80
34536,note_on,96,0,11,,,,,,,,10,,,69,0
34536,note_on,96,0,10,,,,,,,,8,,,73,0
34536,note_on,96,0,9,,,,,,,,7,,,81,0
34560,note_on,24,0,10,,,,,,,,8,,,76,80
34560,note_on,24,0,9,,,,,,,,7,,,80,80
34560,note_on,24,0,11,,,,,,,,10,,,71,80
34656,note_on,96,0,11,,,,,,,,10,,,71,0
34656,note_on,96,0,9,,,,,,,,7,,,80,0
34656,note_on,96,0,10,,,,,,,,8,,,76,0
34680,note_on,24,0,10,,,,,,,,8,,,76,80
34680,note_on,24,0,9,,,,,,,,7,,,80,80
34680,note_on,24,0,11,,,,,,,,10,,,71,80
34776,note_on,96,0,10,,,,,,,,8,,,76,0
34776,note_on,96,0,11,,,,,,,,10,,,71,0
34776,note_on,96,0,9,,,,,,,,7,,,80,0
34800,note_on,24,0,11,,,,,,,,10,,,71,80
34800,note_on,24,0,10,,,,,,,,8,,,76,80
34800,note_on,24,0,9,,,,,,,,7,,,80,80
34896,note_on,96,0,10,,,,,,,,8,,,76,0
34896,note_on,96,0,11,,,,,,,,10,,,71,0
34896,note_on,96,0,9,,,,,,,,7,,,80,0
34920,note_on,24,0,10,,,,,,,,8,,,76,80
34920,note_on,24,0,11,,,,,,,,10,,,71,80
34920,note_on,24,0,9,,,,,,,,7,,,80,80
34968,note_on,48,0,9,,,,,,,,7,,,80,0
34980,note_on,12,0,9,,,,,,,,7,,,81,80
35016,note_on,96,0,10,,,,,,,,8,,,76,0
35016,note_on,96,0,11,,,,,,,,10,,,71,0
35028,note_on,48,0,9,,,,,,,,7,,,81,0
35040,note_on,24,0,10,,,,,,,,8,,,75,80
35040,note_on,24,0,11,,,,,,,,10,,,69,80
35040,note_on,0,0,11,,,,,,,,10,,,59,80
35040,note_on,12,0,9,,,,,,,,7,,,78,80
35136,note_on,0,0,11,,,,,,,,10,,,69,0
35136,note_on,96,0,11,,,,,,,,10,,,59,0
35136,note_on,96,0,10,,,,,,,,8,,,75,0
35136,note_on,96,0,9,,,,,,,,7,,,78,0
35160,note_on,24,0,11,,,,,,,,10,,,59,80
35160,note_on,24,0,9,,,,,,,,7,,,78,80
35160,note_on,24,0,10,,,,,,,,8,,,75,80
35160,note_on,0,0,11,,,,,,,,10,,,69,80
35256,note_on,96,0,9,,,,,,,,7,,,78,0
35256,note_on,96,0,10,,,,,,,,8,,,75,0
35256,note_on,0,0,11,,,,,,,,10,,,59,0
35256,note_on,96,0,11,,,,,,,,10,,,69,0
35280,note_on,24,0,11,,,,,,,,10,,,59,80
35280,note_on,24,0,9,,,,,,,,7,,,78,80
35280,note_on,24,0,10,,,,,,,,8,,,75,80
35280,note_on,0,0,11,,,,,,,,10,,,69,80
35376,note_on,0,0,11,,,,,,,,10,,,59,0
35376,note_on,96,0,10,,,,,,,,8,,,75,0
35376,note_on,96,0,9,,,,,,,,7,,,78,0
35376,note_on,96,0,11,,,,,,,,10,,,69,0
35400,note_on,24,0,11,,,,,,,,10,,,59,80
35400,note_on,0,0,11,,,,,,,,10,,,69,80
35400,note_on,24,0,10,,,,,,,,8,,,75,80
35400,note_on,24,0,9,,,,,,,,7,,,78,80
35448,note_on,48,0,9,,,,,,,,7,,,78,0
35460,note_on,12,0,9,,,,,,,,7,,,80,80
35496,note_on,96,0,11,,,,,,,,10,,,69,0
35496,note_on,0,0,11,,,,,,,,10,,,59,0
35496,note_on,96,0,10,,,,,,,,8,,,75,0
35508,note_on,48,0,9,,,,,,,,7,,,80,0
35520,note_on,12,0,9,,,,,,,,7,,,76,80
35520,note_on,24,0,11,,,,,,,,10,,,68,80
35520,note_on,24,0,10,,,,,,,,8,,,76,80
35520,note_on,0,0,11,,,,,,,,10,,,64,80
35712,note_on,0,0,11,,,,,,,,10,,,68,0
35712,note_on,192,0,11,,,,,,,,10,,,64,0
35712,note_on,192,0,10,,,,,,,,8,,,76,0
35712,note_on,192,0,9,,,,,,,,7,,,76,0
36000,note_on,288,0,9,,,,,,,,7,,,69,80
36000,note_on,288,0,11,,,,,,,,10,,,57,80
36000,note_on,2688,0,12,,,,,,,,11,,,54,80
36000,note_on,288,0,10,,,,,,,,8,,,62,80
36096,note_on,96,0,12,,,,,,,,11,,,54,0
36096,note_on,96,0,11,,,,,,,,10,,,57,0
36096,note_on,96,0,10,,,,,,,,8,,,62,0
36120,note_on,24,0,11,,,,,,,,10,,,57,80
36120,note_on,24,0,10,,,,,,,,8,,,62,80
36120,note_on,24,0,12,,,,,,,,11,,,54,80
36216,note_on,96,0,12,,,,,,,,11,,,54,0
36216,note_on,96,0,11,,,,,,,,10,,,57,0
36216,note_on,96,0,10,,,,,,,,8,,,62,0
36240,note_on,24,0,11,,,,,,,,10,,,57,80
36240,note_on,24,0,12,,,,,,,,11,,,54,80
36240,note_on,24,0,10,,,,,,,,8,,,62,80
36288,note_on,288,0,9,,,,,,,,7,,,69,0
36336,note_on,96,0,11,,,,,,,,10,,,57,0
36336,note_on,96,0,10,,,,,,,,8,,,62,0
36336,note_on,96,0,12,,,,,,,,11,,,54,0
36360,note_on,24,0,11,,,,,,,,10,,,57,80
36360,note_on,24,0,12,,,,,,,,11,,,54,80
36360,note_on,24,0,10,,,,,,,,8,,,62,80
36360,note_on,72,0,9,,,,,,,,7,,,74,80
36456,note_on,96,0,11,,,,,,,,10,,,57,0
36456,note_on,96,0,10,,,,,,,,8,,,62,0
36456,note_on,96,0,12,,,,,,,,11,,,54,0
36456,note_on,96,0,9,,,,,,,,7,,,74,0
36480,note_on,24,0,11,,,,,,,,10,,,64,80
36480,note_on,24,0,10,,,,,,,,8,,,69,80
36480,note_on,24,0,12,,,,,,,,11,,,52,80
36480,note_on,24,0,9,,,,,,,,7,,,73,80
36576,note_on,96,0,9,,,,,,,,7,,,73,0
36576,note_on,96,0,10,,,,,,,,8,,,69,0
36576,note_on,96,0,11,,,,,,,,10,,,64,0
36576,note_on,96,0,12,,,,,,,,11,,,52,0
36600,note_on,24,0,11,,,,,,,,10,,,64,80
36600,note_on,24,0,12,,,,,,,,11,,,52,80
36600,note_on,24,0,9,,,,,,,,7,,,73,80
36600,note_on,24,0,10,,,,,,,,8,,,69,80
36696,note_on,96,0,12,,,,,,,,11,,,52,0
36696,note_on,96,0,9,,,,,,,,7,,,73,0
36696,note_on,96,0,10,,,,,,,,8,,,69,0
36696,note_on,96,0,11,,,,,,,,10,,,64,0
36720,note_on,24,0,11,,,,,,,,10,,,64,80
36720,note_on,24,0,9,,,,,,,,7,,,73,80
36720,note_on,24,0,10,,,,,,,,8,,,69,80
36720,note_on,24,0,12,,,,,,,,11,,,52,80
36816,note_on,96,0,12,,,,,,,,11,,,52,0
36816,note_on,96,0,11,,,,,,,,10,,,64,0
36816,note_on,96,0,9,,,,,,,,7,,,73,0
36816,note_on,96,0,10,,,,,,,,8,,,69,0
36840,note_on,24,0,11,,,,,,,,10,,,64,80
36840,note_on,24,0,10,,,,,,,,8,,,69,80
36840,note_on,24,0,9,,,,,,,,7,,,73,80
36840,note_on,24,0,12,,,,,,,,11,,,52,80
36888,note_on,48,0,9,,,,,,,,7,,,73,0
36900,note_on,12,0,9,,,,,,,,7,,,74,80
36936,note_on,96,0,12,,,,,,,,11,,,52,0
36936,note_on,96,0,10,,,,,,,,8,,,69,0
36936,note_on,96,0,11,,,,,,,,10,,,64,0
36948,note_on,48,0,9,,,,,,,,7,,,74,0
36960,note_on,24,0,12,,,,,,,,11,,,52,80
36960,note_on,24,0,11,,,,,,,,10,,,62,80
36960,note_on,12,0,9,,,,,,,,7,,,71,80
36960,note_on,24,0,10,,,,,,,,8,,,68,80
37056,note_on,96,0,12,,,,,,,,11,,,52,0
37056,note_on,96,0,10,,,,,,,,8,,,68,0
37056,note_on,96,0,9,,,,,,,,7,,,71,0
37056,note_on,96,0,11,,,,,,,,10,,,62,0
37080,note_on,24,0,10,,,,,,,,8,,,68,80
37080,note_on,24,0,9,,,,,,,,7,,,71,80
37080,note_on,24,0,12,,,,,,,,11,,,52,80
37080,note_on,24,0,11,,,,,,,,10,,,62,80
37176,note_on,96,0,9,,,,,,,,7,,,71,0
37176,note_on,96,0,10,,,,,,,,8,,,68,0
37176,note_on,96,0,11,,,,,,,,10,,,62,0
37176,note_on,96,0,12,,,,,,,,11,,,52,0
37200,note_on,24,0,9,,,,,,,,7,,,71,80
37200,note_on,24,0,10,,,,,,,,8,,,68,80
37200,note_on,24,0,11,,,,,,,,10,,,62,80
37200,note_on,24,0,12,,,,,,,,11,,,52,80
37296,note_on,96,0,10,,,,,,,,8,,,68,0
37296,note_on,96,0,11,,,,,,,,10,,,62,0
37296,note_on,96,0,9,,,,,,,,7,,,71,0
37296,note_on,96,0,12,,,,,,,,11,,,52,0
37320,note_on,24,0,12,,,,,,,,11,,,52,80
37320,note_on,24,0,11,,,,,,,,10,,,62,80
37320,note_on,24,0,9,,,,,,,,7,,,71,80
37320,note_on,24,0,10,,,,,,,,8,,,68,80
37368,note_on,48,0,9,,,,,,,,7,,,71,0
37380,note_on,12,0,9,,,,,,,,7,,,73,80
37416,note_on,96,0,10,,,,,,,,8,,,68,0
37416,note_on,96,0,11,,,,,,,,10,,,62,0
37416,note_on,96,0,12,,,,,,,,11,,,52,0
37428,note_on,48,0,9,,,,,,,,7,,,73,0
37440,note_on,24,0,11,,,,,,,,10,,,61,80
37440,note_on,24,0,10,,,,,,,,8,,,69,80
37440,note_on,3168,0,7,,,,,,,,6,,,69,80
37440,note_on,24,0,12,,,,,,,,11,,,45,80
37440,note_on,12,0,9,,,,,,,,7,,,69,80
37504,note_on,64,0,7,,,,,,,,6,,,69,0
37520,note_on,16,0,7,,,,,,,,6,,,71,80
37584,note_on,64,0,7,,,,,,,,6,,,71,0
37600,note_on,16,0,7,,,,,,,,6,,,72,80
37632,note_on,192,0,12,,,,,,,,11,,,45,0
37632,note_on,192,0,9,,,,,,,,7,,,69,0
37632,note_on,192,0,10,,,,,,,,8,,,69,0
37632,note_on,192,0,11,,,,,,,,10,,,61,0
37664,note_on,64,0,7,,,,,,,,6,,,72,0
37680,note_on,16,0,7,,,,,,,,6,,,73,80
37744,note_on,64,0,7,,,,,,,,6,,,73,0
37760,note_on,16,0,7,,,,,,,,6,,,74,80
37824,note_on,64,0,7,,,,,,,,6,,,74,0
37840,note_on,16,0,7,,,,,,,,6,,,75,80
37904,note_on,64,0,7,,,,,,,,6,,,75,0
37920,note_on,16,0,7,,,,,,,,6,,,76,80
37920,note_on,0,0,8,,,,,,,,6,,,64,80
37920,note_on,4608,0,8,,,,,,,,6,,,61,80
38016,note_on,0,0,8,,,,,,,,6,,,61,0
38016,note_on,96,0,8,,,,,,,,6,,,64,0
38040,note_on,0,0,8,,,,,,,,6,,,61,80
38040,note_on,24,0,8,,,,,,,,6,,,64,80
38136,note_on,96,0,8,,,,,,,,6,,,61,0
38136,note_on,0,0,8,,,,,,,,6,,,64,0
38160,note_on,0,0,8,,,,,,,,6,,,61,80
38160,note_on,24,0,8,,,,,,,,6,,,64,80
38208,note_on,288,0,7,,,,,,,,6,,,76,0
38256,note_on,96,0,8,,,,,,,,6,,,61,0
38256,note_on,0,0,8,,,,,,,,6,,,64,0
38280,note_on,0,0,8,,,,,,,,6,,,61,80
38280,note_on,24,0,8,,,,,,,,6,,,64,80
38280,note_on,72,0,7,,,,,,,,6,,,81,80
38376,note_on,96,0,7,,,,,,,,6,,,81,0
38376,note_on,96,0,8,,,,,,,,6,,,61,0
38376,note_on,0,0,8,,,,,,,,6,,,64,0
38400,note_on,24,0,8,,,,,,,,6,,,59,80
38400,note_on,24,0,7,,,,,,,,6,,,80,80
38400,note_on,0,0,8,,,,,,,,6,,,64,80
38496,note_on,96,0,7,,,,,,,,6,,,80,0
38520,note_on,24,0,7,,,,,,,,6,,,80,80
38592,note_on,0,0,8,,,,,,,,6,,,59,0
38592,note_on,192,0,8,,,,,,,,6,,,64,0
38616,note_on,96,0,7,,,,,,,,6,,,80,0
38640,note_on,24,0,7,,,,,,,,6,,,80,80
38736,note_on,96,0,7,,,,,,,,6,,,80,0
38760,note_on,24,0,7,,,,,,,,6,,,80,80
38808,note_on,48,0,7,,,,,,,,6,,,80,0
38820,note_on,12,0,7,,,,,,,,6,,,81,80
38868,note_on,48,0,7,,,,,,,,6,,,81,0
38880,note_on,0,0,8,,,,,,,,6,,,59,80
38880,note_on,288,0,8,,,,,,,,6,,,69,80
38880,note_on,12,0,7,,,,,,,,6,,,78,80
38880,note_on,0,0,8,,,,,,,,6,,,63,80
38976,note_on,96,0,7,,,,,,,,6,,,78,0
39000,note_on,24,0,7,,,,,,,,6,,,78,80
39072,note_on,0,0,8,,,,,,,,6,,,69,0
39072,note_on,0,0,8,,,,,,,,6,,,59,0
39072,note_on,192,0,8,,,,,,,,6,,,63,0
39096,note_on,96,0,7,,,,,,,,6,,,78,0
39120,note_on,24,0,7,,,,,,,,6,,,78,80
39216,note_on,96,0,7,,,,,,,,6,,,78,0
39240,note_on,24,0,7,,,,,,,,6,,,78,80
39288,note_on,48,0,7,,,,,,,,6,,,78,0
39300,note_on,12,0,7,,,,,,,,6,,,80,80
39348,note_on,48,0,7,,,,,,,,6,,,80,0
39360,note_on,288,0,8,,,,,,,,6,,,68,80
39360,note_on,12,0,7,,,,,,,,6,,,76,80
39360,note_on,0,0,8,,,,,,,,6,,,64,80
39424,note_on,64,0,7,,,,,,,,6,,,76,0
39440,note_on,16,0,7,,,,,,,,6,,,75,80
39504,note_on,64,0,7,,,,,,,,6,,,75,0
39520,note_on,16,0,7,,,,,,,,6,,,74,80
39552,note_on,0,0,8,,,,,,,,6,,,68,0
39552,note_on,192,0,8,,,,,,,,6,,,64,0
39584,note_on,64,0,7,,,,,,,,6,,,74,0
39600,note_on,16,0,7,,,,,,,,6,,,73,80
39664,note_on,64,0,7,,,,,,,,6,,,73,0
39680,note_on,16,0,7,,,,,,,,6,,,72,80
39744,note_on,64,0,7,,,,,,,,6,,,72,0
39760,note_on,16,0,7,,,,,,,,6,,,71,80
39824,note_on,64,0,7,,,,,,,,6,,,71,0
39840,note_on,6528,0,1,,,,,,,,0,,,81,80
39840,note_on,6528,0,3,,,,,,,,2,,,57,80
39840,note_on,16,0,7,,,,,,,,6,,,69,80
39840,note_on,288,0,8,,,,,,,,6,,,57,80
39840,note_on,0,0,8,,,,,,,,6,,,54,80
39936,note_on,96,0,8,,,,,,,,6,,,54,0
39936,note_on,0,0,8,,,,,,,,6,,,57,0
39960,note_on,24,0,8,,,,,,,,6,,,54,80
39960,note_on,0,0,8,,,,,,,,6,,,57,80
40056,note_on,96,0,8,,,,,,,,6,,,57,0
40056,note_on,0,0,8,,,,,,,,6,,,54,0
40080,note_on,24,0,8,,,,,,,,6,,,54,80
40080,note_on,0,0,8,,,,,,,,6,,,57,80
40128,note_on,288,0,7,,,,,,,,6,,,69,0
40128,note_on,288,0,3,,,,,,,,2,,,57,0
40128,note_on,288,0,1,,,,,,,,0,,,81,0
40176,note_on,96,0,8,,,,,,,,6,,,57,0
40176,note_on,0,0,8,,,,,,,,6,,,54,0
40200,note_on,24,0,8,,,,,,,,6,,,57,80
40200,note_on,0,0,8,,,,,,,,6,,,54,80
40200,note_on,72,0,3,,,,,,,,2,,,62,80
40200,note_on,72,0,1,,,,,,,,0,,,86,80
40200,note_on,72,0,7,,,,,,,,6,,,74,80
40296,note_on,96,0,3,,,,,,,,2,,,62,0
40296,note_on,96,0,1,,,,,,,,0,,,86,0
40296,note_on,0,0,8,,,,,,,,6,,,57,0
40296,note_on,96,0,8,,,,,,,,6,,,54,0
40296,note_on,96,0,7,,,,,,,,6,,,74,0
40320,note_on,24,0,8,,,,,,,,6,,,57,80
40320,note_on,0,0,8,,,,,,,,6,,,52,80
40320,note_on,24,0,3,,,,,,,,2,,,61,80
40320,note_on,24,0,1,,,,,,,,0,,,85,80
40320,note_on,24,0,7,,,,,,,,6,,,73,80
40416,note_on,96,0,1,,,,,,,,0,,,85,0
40416,note_on,96,0,3,,,,,,,,2,,,61,0
40416,note_on,96,0,7,,,,,,,,6,,,73,0
40440,note_on,24,0,3,,,,,,,,2,,,61,80
40440,note_on,24,0,1,,,,,,,,0,,,85,80
40440,note_on,24,0,7,,,,,,,,6,,,73,80
40512,note_on,0,0,8,,,,,,,,6,,,57,0
40512,note_on,192,0,8,,,,,,,,6,,,52,0
40536,note_on,96,0,7,,,,,,,,6,,,73,0
40536,note_on,96,0,1,,,,,,,,0,,,85,0
40536,note_on,96,0,3,,,,,,,,2,,,61,0
40560,note_on,24,0,1,,,,,,,,0,,,85,80
40560,note_on,24,0,3,,,,,,,,2,,,61,80
40560,note_on,24,0,7,,,,,,,,6,,,73,80
40656,note_on,96,0,7,,,,,,,,6,,,73,0
40656,note_on,96,0,1,,,,,,,,0,,,85,0
40656,note_on,96,0,3,,,,,,,,2,,,61,0
40680,note_on,24,0,1,,,,,,,,0,,,85,80
40680,note_on,24,0,7,,,,,,,,6,,,73,80
40680,note_on,24,0,3,,,,,,,,2,,,61,80
40728,note_on,48,0,7,,,,,,,,6,,,73,0
40728,note_on,48,0,1,,,,,,,,0,,,85,0
40728,note_on,48,0,3,,,,,,,,2,,,61,0
40740,note_on,12,0,3,,,,,,,,2,,,62,80
40740,note_on,12,0,7,,,,,,,,6,,,74,80
40740,note_on,12,0,1,,,,,,,,0,,,86,80
40788,note_on,48,0,3,,,,,,,,2,,,62,0
40788,note_on,48,0,1,,,,,,,,0,,,86,0
40788,note_on,48,0,7,,,,,,,,6,,,74,0
40800,note_on,0,0,8,,,,,,,,6,,,62,80
40800,note_on,12,0,7,,,,,,,,6,,,71,80
40800,note_on,288,0,8,,,,,,,,6,,,52,80
40800,note_on,12,0,3,,,,,,,,2,,,59,80
40800,note_on,12,0,1,,,,,,,,0,,,83,80
40800,note_on,0,0,8,,,,,,,,6,,,56,80
40896,note_on,96,0,1,,,,,,,,0,,,83,0
40896,note_on,96,0,3,,,,,,,,2,,,59,0
40896,note_on,96,0,7,,,,,,,,6,,,71,0
40920,note_on,24,0,7,,,,,,,,6,,,71,80
40920,note_on,24,0,1,,,,,,,,0,,,83,80
40920,note_on,24,0,3,,,,,,,,2,,,59,80
40992,note_on,192,0,8,,,,,,,,6,,,56,0
40992,note_on,0,0,8,,,,,,,,6,,,62,0
40992,note_on,0,0,8,,,,,,,,6,,,52,0
41016,note_on,96,0,7,,,,,,,,6,,,71,0
41016,note_on,96,0,1,,,,,,,,0,,,83,0
41016,note_on,96,0,3,,,,,,,,2,,,59,0
41040,note_on,24,0,3,,,,,,,,2,,,59,80
41040,note_on,24,0,1,,,,,,,,0,,,83,80
41040,note_on,24,0,7,,,,,,,,6,,,71,80
41136,note_on,96,0,3,,,,,,,,2,,,59,0
41136,note_on,96,0,1,,,,,,,,0,,,83,0
41136,note_on,96,0,7,,,,,,,,6,,,71,0
41160,note_on,24,0,1,,,,,,,,0,,,83,80
41160,note_on,24,0,3,,,,,,,,2,,,59,80
41160,note_on,24,0,7,,,,,,,,6,,,71,80
41208,note_on,48,0,3,,,,,,,,2,,,59,0
41208,note_on,48,0,1,,,,,,,,0,,,83,0
41208,note_on,48,0,7,,,,,,,,6,,,71,0
41220,note_on,12,0,3,,,,,,,,2,,,61,80
41220,note_on,12,0,7,,,,,,,,6,,,73,80
41220,note_on,12,0,1,,,,,,,,0,,,85,80
41268,note_on,48,0,7,,,,,,,,6,,,73,0
41268,note_on,48,0,1,,,,,,,,0,,,85,0
41268,note_on,48,0,3,,,,,,,,2,,,61,0
41280,note_on,12,0,7,,,,,,,,6,,,69,80
41280,note_on,12,0,3,,,,,,,,2,,,57,80
41280,note_on,12,0,1,,,,,,,,0,,,81,80
41280,note_on,288,0,8,,,,,,,,6,,,61,80
41280,note_on,0,0,8,,,,,,,,6,,,57,80
41472,note_on,0,0,8,,,,,,,,6,,,61,0
41472,note_on,192,0,1,,,,,,,,0,,,81,0
41472,note_on,192,0,8,,,,,,,,6,,,57,0
41472,note_on,192,0,7,,,,,,,,6,,,69,0
41472,note_on,192,0,3,,,,,,,,2,,,57,0
41520,note_on,48,0,7,,,,,,,,6,,,57,80
41568,note_on,48,0,7,,,,,,,,6,,,57,0
41580,note_on,12,0,7,,,,,,,,6,,,61,80
41628,note_on,48,0,7,,,,,,,,6,,,61,0
41640,note_on,12,0,7,,,,,,,,6,,,64,80
41688,note_on,48,0,7,,,,,,,,6,,,64,0
41700,note_on,12,0,7,,,,,,,,6,,,69,80
41748,note_on,48,0,7,,,,,,,,6,,,69,0
41760,note_on,4128,0,12,,,,,,,,11,,,52,80
41760,note_on,12,0,7,,,,,,,,6,,,59,80
41760,note_on,8448,0,13,,,,,,,,12,,,40,80
41760,note_on,4128,0,9,,,,,,,,7,,,69,80
41760,note_on,4128,0,10,,,,,,,,8,,,59,80
41760,note_on,0,0,8,,,,,,,,6,,,52,80
41760,note_on,288,0,8,,,,,,,,6,,,40,80
41760,note_on,4128,0,11,,,,,,,,10,,,64,80
41760,note_on,288,0,1,,,,,,,,0,,,81,80
41808,note_on,48,0,7,,,,,,,,6,,,59,0
41820,note_on,12,0,7,,,,,,,,6,,,64,80
41856,note_on,96,0,9,,,,,,,,7,,,69,0
41856,note_on,96,0,1,,,,,,,,0,,,81,0
41868,note_on,48,0,7,,,,,,,,6,,,64,0
41880,note_on,24,0,9,,,,,,,,7,,,68,80
41880,note_on,24,0,1,,,,,,,,0,,,80,80
41880,note_on,12,0,7,,,,,,,,6,,,69,80
41928,note_on,48,0,7,,,,,,,,6,,,69,0
41940,note_on,12,0,7,,,,,,,,6,,,68,80
41952,note_on,192,0,11,,,,,,,,10,,,64,0
41952,note_on,192,0,8,,,,,,,,6,,,52,0
41952,note_on,192,0,12,,,,,,,,11,,,52,0
41952,note_on,192,0,13,,,,,,,,12,,,40,0
41952,note_on,192,0,10,,,,,,,,8,,,59,0
41952,note_on,0,0,8,,,,,,,,6,,,40,0
41976,note_on,96,0,9,,,,,,,,7,,,68,0
41976,note_on,96,0,1,,,,,,,,0,,,80,0
41988,note_on,48,0,7,,,,,,,,6,,,68,0
42000,note_on,12,0,7,,,,,,,,6,,,59,80
42048,note_on,48,0,7,,,,,,,,6,,,59,0
42060,note_on,12,0,7,,,,,,,,6,,,64,80
42108,note_on,48,0,7,,,,,,,,6,,,64,0
42120,note_on,12,0,7,,,,,,,,6,,,68,80
42168,note_on,48,0,7,,,,,,,,6,,,68,0
42180,note_on,12,0,7,,,,,,,,6,,,71,80
42228,note_on,48,0,7,,,,,,,,6,,,71,0
42240,note_on,12,0,7,,,,,,,,6,,,61,80
42240,note_on,0,0,8,,,,,,,,6,,,45,80
42240,note_on,288,0,8,,,,,,,,6,,,33,80
42240,note_on,288,0,11,,,,,,,,10,,,64,80
42240,note_on,288,0,12,,,,,,,,11,,,57,80
42240,note_on,264,0,9,,,,,,,,7,,,71,80
42240,note_on,288,0,10,,,,,,,,8,,,61,80
42240,note_on,264,0,1,,,,,,,,0,,,83,80
42240,note_on,288,0,13,,,,,,,,12,,,45,80
42288,note_on,48,0,7,,,,,,,,6,,,61,0
42300,note_on,12,0,7,,,,,,,,6,,,64,80
42336,note_on,96,0,9,,,,,,,,7,,,71,0
42336,note_on,96,0,1,,,,,,,,0,,,83,0
42348,note_on,48,0,7,,,,,,,,6,,,64,0
42360,note_on,24,0,9,,,,,,,,7,,,69,80
42360,note_on,24,0,1,,,,,,,,0,,,81,80
42360,note_on,12,0,7,,,,,,,,6,,,73,80
42408,note_on,48,0,7,,,,,,,,6,,,73,0
42420,note_on,12,0,7,,,,,,,,6,,,71,80
42432,note_on,192,0,10,,,,,,,,8,,,61,0
42432,note_on,192,0,11,,,,,,,,10,,,64,0
42432,note_on,192,0,13,,,,,,,,12,,,45,0
42432,note_on,192,0,8,,,,,,,,6,,,45,0
42432,note_on,192,0,12,,,,,,,,11,,,57,0
42432,note_on,0,0,8,,,,,,,,6,,,33,0
42456,note_on,96,0,1,,,,,,,,0,,,81,0
42456,note_on,96,0,9,,,,,,,,7,,,69,0
42468,note_on,48,0,7,,,,,,,,6,,,71,0
42480,note_on,12,0,7,,,,,,,,6,,,61,80
42528,note_on,48,0,7,,,,,,,,6,,,61,0
42540,note_on,12,0,7,,,,,,,,6,,,64,80
42588,note_on,48,0,7,,,,,,,,6,,,64,0
42600,note_on,12,0,7,,,,,,,,6,,,69,80
42648,note_on,48,0,7,,,,,,,,6,,,69,0
42660,note_on,12,0,7,,,,,,,,6,,,73,80
42708,note_on,48,0,7,,,,,,,,6,,,73,0
42720,note_on,288,0,12,,,,,,,,11,,,52,80
42720,note_on,12,0,7,,,,,,,,6,,,64,80
42720,note_on,288,0,11,,,,,,,,10,,,64,80
42720,note_on,264,0,1,,,,,,,,0,,,85,80
42720,note_on,288,0,8,,,,,,,,6,,,40,80
42720,note_on,264,0,9,,,,,,,,7,,,73,80
42720,note_on,288,0,10,,,,,,,,8,,,68,80
42720,note_on,288,0,13,,,,,,,,12,,,40,80
42720,note_on,0,0,8,,,,,,,,6,,,52,80
42768,note_on,48,0,7,,,,,,,,6,,,64,0
42780,note_on,12,0,7,,,,,,,,6,,,68,80
42816,note_on,96,0,9,,,,,,,,7,,,73,0
42816,note_on,96,0,1,,,,,,,,0,,,85,0
42828,note_on,48,0,7,,,,,,,,6,,,68,0
42840,note_on,12,0,7,,,,,,,,6,,,73,80
42840,note_on,24,0,9,,,,,,,,7,,,71,80
42840,note_on,24,0,1,,,,,,,,0,,,83,80
42888,note_on,48,0,7,,,,,,,,6,,,73,0
42900,note_on,12,0,7,,,,,,,,6,,,71,80
42912,note_on,192,0,10,,,,,,,,8,,,68,0
42912,note_on,192,0,8,,,,,,,,6,,,52,0
42912,note_on,0,0,8,,,,,,,,6,,,40,0
42912,note_on,192,0,11,,,,,,,,10,,,64,0
42912,note_on,192,0,12,,,,,,,,11,,,52,0
42912,note_on,192,0,13,,,,,,,,12,,,40,0
42936,note_on,96,0,9,,,,,,,,7,,,71,0
42936,note_on,96,0,1,,,,,,,,0,,,83,0
42948,note_on,48,0,7,,,,,,,,6,,,71,0
42960,note_on,12,0,7,,,,,,,,6,,,64,80
43008,note_on,48,0,7,,,,,,,,6,,,64,0
43020,note_on,12,0,7,,,,,,,,6,,,68,80
43068,note_on,48,0,7,,,,,,,,6,,,68,0
43080,note_on,12,0,7,,,,,,,,6,,,71,80
43128,note_on,48,0,7,,,,,,,,6,,,71,0
43140,note_on,12,0,7,,,,,,,,6,,,74,80
43188,note_on,48,0,7,,,,,,,,6,,,74,0
43200,note_on,264,0,1,,,,,,,,0,,,86,80
43200,note_on,288,0,10,,,,,,,,8,,,69,80
43200,note_on,288,0,11,,,,,,,,10,,,64,80
43200,note_on,12,0,7,,,,,,,,6,,,64,80
43200,note_on,288,0,12,,,,,,,,11,,,45,80
43200,note_on,288,0,13,,,,,,,,12,,,33,80
43200,note_on,0,0,8,,,,,,,,6,,,45,80
43200,note_on,264,0,9,,,,,,,,7,,,74,80
43200,note_on,288,0,8,,,,,,,,6,,,33,80
43248,note_on,48,0,7,,,,,,,,6,,,64,0
43260,note_on,12,0,7,,,,,,,,6,,,69,80
43296,note_on,96,0,1,,,,,,,,0,,,86,0
43296,note_on,96,0,9,,,,,,,,7,,,74,0
43308,note_on,48,0,7,,,,,,,,6,,,69,0
43320,note_on,24,0,9,,,,,,,,7,,,73,80
43320,note_on,12,0,7,,,,,,,,6,,,74,80
43320,note_on,24,0,1,,,,,,,,0,,,85,80
43368,note_on,48,0,7,,,,,,,,6,,,74,0
43380,note_on,12,0,7,,,,,,,,6,,,73,80
43392,note_on,192,0,13,,,,,,,,12,,,33,0
43392,note_on,192,0,11,,,,,,,,10,,,64,0
43392,note_on,192,0,10,,,,,,,,8,,,69,0
43392,note_on,192,0,8,,,,,,,,6,,,45,0
43392,note_on,0,0,8,,,,,,,,6,,,33,0
43392,note_on,192,0,12,,,,,,,,11,,,45,0
43416,note_on,96,0,9,,,,,,,,7,,,73,0
43416,note_on,96,0,1,,,,,,,,0,,,85,0
43428,note_on,48,0,7,,,,,,,,6,,,73,0
43440,note_on,48,0,8,,,,,,,,6,,,33,80
43488,note_on,48,0,8,,,,,,,,6,,,33,0
43500,note_on,12,0,8,,,,,,,,6,,,37,80
43548,note_on,48,0,8,,,,,,,,6,,,37,0
43560,note_on,12,0,8,,,,,,,,6,,,40,80
43560,note_on,132,0,7,,,,,,,,6,,,61,80
43608,note_on,48,0,8,,,,,,,,6,,,40,0
43620,note_on,12,0,8,,,,,,,,6,,,45,80
43656,note_on,96,0,7,,,,,,,,6,,,61,0
43668,note_on,48,0,8,,,,,,,,6,,,45,0
43680,note_on,24,0,7,,,,,,,,6,,,62,80
43680,note_on,12,0,8,,,,,,,,6,,,35,80
43728,note_on,48,0,8,,,,,,,,6,,,35,0
43740,note_on,12,0,8,,,,,,,,6,,,47,80
43776,note_on,96,0,7,,,,,,,,6,,,62,0
43788,note_on,48,0,8,,,,,,,,6,,,47,0
43800,note_on,12,0,8,,,,,,,,6,,,37,80
43800,note_on,24,0,7,,,,,,,,6,,,64,80
43848,note_on,48,0,8,,,,,,,,6,,,37,0
43860,note_on,12,0,8,,,,,,,,6,,,49,80
43896,note_on,96,0,7,,,,,,,,6,,,64,0
43908,note_on,48,0,8,,,,,,,,6,,,49,0
43920,note_on,12,0,8,,,,,,,,6,,,38,80
43920,note_on,24,0,7,,,,,,,,6,,,66,80
43968,note_on,48,0,8,,,,,,,,6,,,38,0
43980,note_on,12,0,8,,,,,,,,6,,,50,80
44016,note_on,96,0,7,,,,,,,,6,,,66,0
44028,note_on,48,0,8,,,,,,,,6,,,50,0
44040,note_on,24,0,7,,,,,,,,6,,,68,80
44040,note_on,12,0,8,,,,,,,,6,,,40,80
44088,note_on,48,0,8,,,,,,,,6,,,40,0
44100,note_on,12,0,8,,,,,,,,6,,,52,80
44136,note_on,96,0,7,,,,,,,,6,,,68,0
44148,note_on,48,0,8,,,,,,,,6,,,52,0
44160,note_on,24,0,7,,,,,,,,6,,,69,80
44160,note_on,12,0,8,,,,,,,,6,,,42,80
44208,note_on,48,0,8,,,,,,,,6,,,42,0
44220,note_on,12,0,8,,,,,,,,6,,,54,80
44256,note_on,96,0,7,,,,,,,,6,,,69,0
44268,note_on,48,0,8,,,,,,,,6,,,54,0
44280,note_on,12,0,8,,,,,,,,6,,,44,80
44280,note_on,24,0,7,,,,,,,,6,,,71,80
44328,note_on,48,0,8,,,,,,,,6,,,44,0
44340,note_on,12,0,8,,,,,,,,6,,,56,80
44376,note_on,96,0,7,,,,,,,,6,,,71,0
44388,note_on,48,0,8,,,,,,,,6,,,56,0
44400,note_on,12,0,8,,,,,,,,6,,,45,80
44400,note_on,24,0,7,,,,,,,,6,,,73,80
44496,note_on,96,0,8,,,,,,,,6,,,45,0
44496,note_on,96,0,7,,,,,,,,6,,,73,0
44520,note_on,24,0,7,,,,,,,,6,,,64,80
44520,note_on,1128,0,11,,,,,,,,10,,,61,80
44520,note_on,1104,0,9,,,,,,,,7,,,61,80
44520,note_on,24,0,8,,,,,,,,6,,,61,80
44520,note_on,1128,0,10,,,,,,,,8,,,64,80
44568,note_on,48,0,7,,,,,,,,6,,,64,0
44580,note_on,12,0,7,,,,,,,,6,,,76,80
44616,note_on,96,0,10,,,,,,,,8,,,64,0
44616,note_on,96,0,8,,,,,,,,6,,,61,0
44616,note_on,96,0,11,,,,,,,,10,,,61,0
44616,note_on,96,0,9,,,,,,,,7,,,61,0
44628,note_on,48,0,7,,,,,,,,6,,,76,0
44640,note_on,24,0,9,,,,,,,,7,,,62,80
44640,note_on,24,0,8,,,,,,,,6,,,62,80
44640,note_on,24,0,10,,,,,,,,8,,,66,80
44640,note_on,24,0,11,,,,,,,,10,,,62,80
44640,note_on,12,0,7,,,,,,,,6,,,66,80
44688,note_on,48,0,7,,,,,,,,6,,,66,0
44700,note_on,12,0,7,,,,,,,,6,,,78,80
44736,note_on,96,0,10,,,,,,,,8,,,66,0
44736,note_on,96,0,11,,,,,,,,10,,,62,0
44736,note_on,96,0,9,,,,,,,,7,,,62,0
44736,note_on,96,0,8,,,,,,,,6,,,62,0
44748,note_on,48,0,7,,,,,,,,6,,,78,0
44760,note_on,24,0,11,,,,,,,,10,,,64,80
44760,note_on,12,0,7,,,,,,,,6,,,68,80
44760,note_on,24,0,8,,,,,,,,6,,,64,80
44760,note_on,24,0,9,,,,,,,,7,,,64,80
44760,note_on,24,0,10,,,,,,,,8,,,68,80
44808,note_on,48,0,7,,,,,,,,6,,,68,0
44820,note_on,12,0,7,,,,,,,,6,,,80,80
44856,note_on,96,0,11,,,,,,,,10,,,64,0
44856,note_on,96,0,8,,,,,,,,6,,,64,0
44856,note_on,96,0,9,,,,,,,,7,,,64,0
44856,note_on,96,0,10,,,,,,,,8,,,68,0
44868,note_on,48,0,7,,,,,,,,6,,,80,0
44880,note_on,24,0,9,,,,,,,,7,,,66,80
44880,note_on,24,0,11,,,,,,,,10,,,66,80
44880,note_on,12,0,7,,,,,,,,6,,,69,80
44880,note_on,24,0,8,,,,,,,,6,,,66,80
44880,note_on,24,0,10,,,,,,,,8,,,69,80
44928,note_on,48,0,7,,,,,,,,6,,,69,0
44940,note_on,12,0,7,,,,,,,,6,,,81,80
44976,note_on,96,0,11,,,,,,,,10,,,66,0
44976,note_on,96,0,9,,,,,,,,7,,,66,0
44976,note_on,96,0,8,,,,,,,,6,,,66,0
44976,note_on,96,0,10,,,,,,,,8,,,69,0
44988,note_on,48,0,7,,,,,,,,6,,,81,0
45000,note_on,12,0,7,,,,,,,,6,,,71,80
45000,note_on,24,0,8,,,,,,,,6,,,68,80
45000,note_on,24,0,11,,,,,,,,10,,,68,80
45000,note_on,24,0,10,,,,,,,,8,,,71,80
45000,note_on,24,0,9,,,,,,,,7,,,68,80
45048,note_on,48,0,7,,,,,,,,6,,,71,0
45060,note_on,12,0,7,,,,,,,,6,,,83,80
45096,note_on,96,0,10,,,,,,,,8,,,71,0
45096,note_on,96,0,11,,,,,,,,10,,,68,0
45096,note_on,96,0,9,,,,,,,,7,,,68,0
45096,note_on,96,0,8,,,,,,,,6,,,68,0
45108,note_on,48,0,7,,,,,,,,6,,,83,0
45120,note_on,12,0,7,,,,,,,,6,,,73,80
45120,note_on,24,0,11,,,,,,,,10,,,69,80
45120,note_on,24,0,10,,,,,,,,8,,,73,80
45120,note_on,24,0,9,,,,,,,,7,,,69,80
45120,note_on,24,0,8,,,,,,,,6,,,69,80
45168,note_on,48,0,7,,,,,,,,6,,,73,0
45180,note_on,12,0,7,,,,,,,,6,,,85,80
45216,note_on,96,0,10,,,,,,,,8,,,73,0
45216,note_on,96,0,11,,,,,,,,10,,,69,0
45216,note_on,96,0,9,,,,,,,,7,,,69,0
45216,note_on,96,0,8,,,,,,,,6,,,69,0
45228,note_on,48,0,7,,,,,,,,6,,,85,0
45240,note_on,24,0,9,,,,,,,,7,,,71,80
45240,note_on,24,0,10,,,,,,,,8,,,74,80
45240,note_on,24,0,8,,,,,,,,6,,,71,80
45240,note_on,24,0,11,,,,,,,,10,,,71,80
45240,note_on,12,0,7,,,,,,,,6,,,74,80
45288,note_on,48,0,7,,,,,,,,6,,,74,0
45300,note_on,12,0,7,,,,,,,,6,,,86,80
45336,note_on,96,0,8,,,,,,,,6,,,71,0
45336,note_on,96,0,9,,,,,,,,7,,,71,0
45336,note_on,96,0,11,,,,,,,,10,,,71,0
45336,note_on,96,0,10,,,,,,,,8,,,74,0
45348,note_on,48,0,7,,,,,,,,6,,,86,0
45360,note_on,24,0,9,,,,,,,,7,,,73,80
45360,note_on,24,0,8,,,,,,,,6,,,61,80
45360,note_on,24,0,11,,,,,,,,10,,,73,80
45360,note_on,24,0,10,,,,,,,,8,,,76,80
45360,note_on,12,0,7,,,,,,,,6,,,76,80
45360,note_on,0,0,8,,,,,,,,6,,,73,80
45408,note_on,48,0,7,,,,,,,,6,,,76,0
45420,note_on,12,0,7,,,,,,,,6,,,81,80
45456,note_on,96,0,9,,,,,,,,7,,,73,0
45468,note_on,48,0,7,,,,,,,,6,,,81,0
45480,note_on,12,0,7,,,,,,,,6,,,88,80
45480,note_on,24,0,9,,,,,,,,7,,,69,80
45528,note_on,48,0,7,,,,,,,,6,,,88,0
45540,note_on,12,0,7,,,,,,,,6,,,81,80
45552,note_on,192,0,8,,,,,,,,6,,,73,0
45552,note_on,192,0,11,,,,,,,,10,,,73,0
45552,note_on,0,0,8,,,,,,,,6,,,61,0
45576,note_on,96,0,9,,,,,,,,7,,,69,0
45588,note_on,48,0,7,,,,,,,,6,,,81,0
45600,note_on,48,0,11,,,,,,,,10,,,74,80
45600,note_on,24,0,9,,,,,,,,7,,,78,80
45600,note_on,12,0,7,,,,,,,,6,,,78,80
45600,note_on,0,0,8,,,,,,,,6,,,74,80
45600,note_on,48,0,8,,,,,,,,6,,,62,80
45648,note_on,48,0,7,,,,,,,,6,,,78,0
45660,note_on,12,0,7,,,,,,,,6,,,81,80
45708,note_on,48,0,7,,,,,,,,6,,,81,0
45720,note_on,12,0,7,,,,,,,,6,,,88,80
45768,note_on,48,0,7,,,,,,,,6,,,88,0
45780,note_on,12,0,7,,,,,,,,6,,,81,80
45792,note_on,192,0,8,,,,,,,,6,,,74,0
45792,note_on,432,0,10,,,,,,,,8,,,76,0
45792,note_on,0,0,8,,,,,,,,6,,,62,0
45792,note_on,192,0,11,,,,,,,,10,,,74,0
45828,note_on,48,0,7,,,,,,,,6,,,81,0
45840,note_on,0,0,8,,,,,,,,6,,,71,80
45840,note_on,48,0,10,,,,,,,,8,,,74,80
45840,note_on,48,0,11,,,,,,,,10,,,71,80
45840,note_on,12,0,7,,,,,,,,6,,,78,80
45840,note_on,48,0,8,,,,,,,,6,,,59,80
45888,note_on,48,0,7,,,,,,,,6,,,78,0
45900,note_on,12,0,7,,,,,,,,6,,,83,80
45948,note_on,48,0,7,,,,,,,,6,,,83,0
45960,note_on,12,0,7,,,,,,,,6,,,86,80
45984,note_on,384,0,9,,,,,,,,7,,,78,0
46008,note_on,48,0,7,,,,,,,,6,,,86,0
46020,note_on,12,0,7,,,,,,,,6,,,83,80
46032,note_on,0,0,8,,,,,,,,6,,,59,0
46032,note_on,192,0,8,,,,,,,,6,,,71,0
46032,note_on,192,0,11,,,,,,,,10,,,71,0
46068,note_on,48,0,7,,,,,,,,6,,,83,0
46080,note_on,48,0,11,,,,,,,,10,,,68,80
46080,note_on,12,0,7,,,,,,,,6,,,76,80
46080,note_on,0,0,8,,,,,,,,6,,,68,80
46080,note_on,48,0,8,,,,,,,,6,,,56,80
46080,note_on,96,0,9,,,,,,,,7,,,76,80
46128,note_on,48,0,7,,,,,,,,6,,,76,0
46140,note_on,12,0,7,,,,,,,,6,,,83,80
46188,note_on,48,0,7,,,,,,,,6,,,83,0
46200,note_on,12,0,7,,,,,,,,6,,,86,80
46248,note_on,48,0,7,,,,,,,,6,,,86,0
46260,note_on,12,0,7,,,,,,,,6,,,83,80
46272,note_on,432,0,10,,,,,,,,8,,,74,0
46272,note_on,192,0,8,,,,,,,,6,,,68,0
46272,note_on,0,0,8,,,,,,,,6,,,56,0
46272,note_on,192,0,11,,,,,,,,10,,,68,0
46308,note_on,48,0,7,,,,,,,,6,,,83,0
46320,note_on,48,0,11,,,,,,,,10,,,69,80
46320,note_on,48,0,8,,,,,,,,6,,,57,80
46320,note_on,12,0,7,,,,,,,,6,,,76,80
46320,note_on,48,0,10,,,,,,,,8,,,73,80
46320,note_on,0,0,8,,,,,,,,6,,,69,80
46368,note_on,48,0,7,,,,,,,,6,,,76,0
46380,note_on,12,0,7,,,,,,,,6,,,81,80
46428,note_on,48,0,7,,,,,,,,6,,,81,0
46440,note_on,12,0,7,,,,,,,,6,,,85,80
46464,note_on,384,0,9,,,,,,,,7,,,76,0
46488,note_on,48,0,7,,,,,,,,6,,,85,0
46500,note_on,12,0,7,,,,,,,,6,,,81,80
46512,note_on,192,0,8,,,,,,,,6,,,69,0
46512,note_on,192,0,11,,,,,,,,10,,,69,0
46512,note_on,0,0,8,,,,,,,,6,,,57,0
46512,note_on,192,0,10,,,,,,,,8,,,73,0
46548,note_on,48,0,7,,,,,,,,6,,,81,0
46560,note_on,48,0,8,,,,,,,,6,,,50,80
46560,note_on,0,0,8,,,,,,,,6,,,62,80
46560,note_on,96,0,9,,,,,,,,7,,,74,80
46560,note_on,12,0,7,,,,,,,,6,,,74,80
46560,note_on,48,0,11,,,,,,,,10,,,62,80
46560,note_on,48,0,10,,,,,,,,8,,,71,80
46608,note_on,48,0,7,,,,,,,,6,,,74,0
46620,note_on,12,0,7,,,,,,,,6,,,78,80
46668,note_on,48,0,7,,,,,,,,6,,,78,0
46680,note_on,12,0,7,,,,,,,,6,,,83,80
46728,note_on,48,0,7,,,,,,,,6,,,83,0
46740,note_on,12,0,7,,,,,,,,6,,,78,80
46752,note_on,0,0,8,,,,,,,,6,,,50,0
46752,note_on,192,0,11,,,,,,,,10,,,62,0
46752,note_on,192,0,8,,,,,,,,6,,,62,0
46752,note_on,192,0,10,,,,,,,,8,,,71,0
46752,note_on,192,0,9,,,,,,,,7,,,74,0
46788,note_on,48,0,7,,,,,,,,6,,,78,0
46800,note_on,48,0,8,,,,,,,,6,,,52,80
46800,note_on,0,0,8,,,,,,,,6,,,64,80
46800,note_on,48,0,11,,,,,,,,10,,,64,80
46800,note_on,12,0,7,,,,,,,,6,,,71,80
46800,note_on,48,0,10,,,,,,,,8,,,68,80
46800,note_on,48,0,9,,,,,,,,7,,,71,80
46848,note_on,48,0,7,,,,,,,,6,,,71,0
46860,note_on,12,0,7,,,,,,,,6,,,74,80
46908,note_on,48,0,7,,,,,,,,6,,,74,0
46920,note_on,12,0,7,,,,,,,,6,,,80,80
46968,note_on,48,0,7,,,,,,,,6,,,80,0
46980,note_on,12,0,7,,,,,,,,6,,,74,80
46992,note_on,192,0,9,,,,,,,,7,,,71,0
46992,note_on,192,0,10,,,,,,,,8,,,68,0
46992,note_on,192,0,11,,,,,,,,10,,,64,0
46992,note_on,0,0,8,,,,,,,,6,,,52,0
46992,note_on,192,0,8,,,,,,,,6,,,64,0
47028,note_on,48,0,7,,,,,,,,6,,,74,0
47040,note_on,48,0,9,,,,,,,,7,,,69,80
47040,note_on,48,0,11,,,,,,,,10,,,57,80
47040,note_on,0,0,8,,,,,,,,6,,,57,80
47040,note_on,48,0,10,,,,,,,,8,,,69,80
47040,note_on,48,0,8,,,,,,,,6,,,45,80
47040,note_on,12,0,7,,,,,,,,6,,,73,80
47088,note_on,48,0,7,,,,,,,,6,,,73,0
47100,note_on,12,0,7,,,,,,,,6,,,76,80
47148,note_on,48,0,7,,,,,,,,6,,,76,0
47160,note_on,12,0,7,,,,,,,,6,,,81,80
47208,note_on,48,0,7,,,,,,,,6,,,81,0
47220,note_on,12,0,7,,,,,,,,6,,,85,80
47232,note_on,192,0,8,,,,,,,,6,,,57,0
47232,note_on,192,0,11,,,,,,,,10,,,57,0
47232,note_on,192,0,9,,,,,,,,7,,,69,0
47232,note_on,0,0,8,,,,,,,,6,,,45,0
47232,note_on,192,0,10,,,,,,,,8,,,69,0
47268,note_on,48,0,7,,,,,,,,6,,,85,0
47280,note_on,12,0,7,,,,,,,,6,,,88,80
47280,note_on,13968,0,2,,,,,,,,1,,,76,80
47280,note_on,48,0,8,,,,,,,,6,,,49,80
47280,note_on,48,0,10,,,,,,,,8,,,64,80
47280,note_on,48,0,11,,,,,,,,10,,,64,80
47280,note_on,48,0,9,,,,,,,,7,,,69,80
47280,note_on,3888,0,12,,,,,,,,11,,,61,80
47280,note_on,3864,0,1,,,,,,,,0,,,88,80
47280,note_on,3888,0,13,,,,,,,,12,,,49,80
47328,note_on,48,0,8,,,,,,,,6,,,49,0
47328,note_on,48,0,7,,,,,,,,6,,,88,0
47340,note_on,12,0,7,,,,,,,,6,,,76,80
47340,note_on,12,0,8,,,,,,,,6,,,61,80
47388,note_on,48,0,8,,,,,,,,6,,,61,0
47388,note_on,48,0,7,,,,,,,,6,,,76,0
47400,note_on,12,0,7,,,,,,,,6,,,75,80
47400,note_on,12,0,8,,,,,,,,6,,,60,80
47448,note_on,48,0,7,,,,,,,,6,,,75,0
47448,note_on,48,0,8,,,,,,,,6,,,60,0
47460,note_on,12,0,8,,,,,,,,6,,,61,80
47460,note_on,12,0,7,,,,,,,,6,,,76,80
47472,note_on,192,0,2,,,,,,,,1,,,76,0
47472,note_on,192,0,10,,,,,,,,8,,,64,0
47472,note_on,192,0,12,,,,,,,,11,,,61,0
47472,note_on,192,0,13,,,,,,,,12,,,49,0
47508,note_on,48,0,8,,,,,,,,6,,,61,0
47508,note_on,48,0,7,,,,,,,,6,,,76,0
47520,note_on,48,0,12,,,,,,,,11,,,62,80
47520,note_on,12,0,7,,,,,,,,6,,,88,80
47520,note_on,48,0,10,,,,,,,,8,,,66,80
47520,note_on,48,0,13,,,,,,,,12,,,50,80
47520,note_on,48,0,2,,,,,,,,1,,,78,80
47520,note_on,12,0,8,,,,,,,,6,,,50,80
47568,note_on,48,0,8,,,,,,,,6,,,50,0
47568,note_on,48,0,7,,,,,,,,6,,,88,0
47580,note_on,12,0,8,,,,,,,,6,,,62,80
47580,note_on,12,0,7,,,,,,,,6,,,78,80
47628,note_on,48,0,7,,,,,,,,6,,,78,0
47628,note_on,48,0,8,,,,,,,,6,,,62,0
47640,note_on,12,0,8,,,,,,,,6,,,61,80
47640,note_on,12,0,7,,,,,,,,6,,,77,80
47688,note_on,48,0,7,,,,,,,,6,,,77,0
47688,note_on,48,0,8,,,,,,,,6,,,61,0
47700,note_on,12,0,7,,,,,,,,6,,,78,80
47700,note_on,12,0,8,,,,,,,,6,,,62,80
47712,note_on,432,0,9,,,,,,,,7,,,69,0
47712,note_on,192,0,12,,,,,,,,11,,,62,0
47712,note_on,432,0,11,,,,,,,,10,,,64,0
47712,note_on,432,0,1,,,,,,,,0,,,88,0
47712,note_on,192,0,13,,,,,,,,12,,,50,0
47748,note_on,48,0,8,,,,,,,,6,,,62,0
47748,note_on,48,0,7,,,,,,,,6,,,78,0
47760,note_on,48,0,12,,,,,,,,11,,,59,80
47760,note_on,48,0,11,,,,,,,,10,,,62,80
47760,note_on,48,0,1,,,,,,,,0,,,86,80
47760,note_on,12,0,7,,,,,,,,6,,,86,80
47760,note_on,48,0,9,,,,,,,,7,,,68,80
47760,note_on,12,0,8,,,,,,,,6,,,47,80
47760,note_on,48,0,13,,,,,,,,12,,,47,80
47808,note_on,48,0,7,,,,,,,,6,,,86,0
47808,note_on,48,0,8,,,,,,,,6,,,47,0
47820,note_on,12,0,7,,,,,,,,6,,,78,80
47820,note_on,12,0,8,,,,,,,,6,,,59,80
47868,note_on,48,0,7,,,,,,,,6,,,78,0
47868,note_on,48,0,8,,,,,,,,6,,,59,0
47880,note_on,12,0,7,,,,,,,,6,,,86,80
47880,note_on,12,0,8,,,,,,,,6,,,58,80
47904,note_on,384,0,2,,,,,,,,1,,,78,0
47904,note_on,384,0,10,,,,,,,,8,,,66,0
47928,note_on,48,0,8,,,,,,,,6,,,58,0
47928,note_on,48,0,7,,,,,,,,6,,,86,0
47940,note_on,12,0,7,,,,,,,,6,,,78,80
47940,note_on,12,0,8,,,,,,,,6,,,59,80
47952,note_on,192,0,13,,,,,,,,12,,,47,0
47952,note_on,192,0,12,,,,,,,,11,,,59,0
47988,note_on,48,0,7,,,,,,,,6,,,78,0
47988,note_on,48,0,8,,,,,,,,6,,,59,0
48000,note_on,96,0,10,,,,,,,,8,,,65,80
48000,note_on,12,0,7,,,,,,,,6,,,86,80
48000,note_on,96,0,2,,,,,,,,1,,,77,80
48000,note_on,48,0,12,,,,,,,,11,,,61,80
48000,note_on,48,0,13,,,,,,,,12,,,49,80
48000,note_on,12,0,8,,,,,,,,6,,,49,80
48048,note_on,48,0,8,,,,,,,,6,,,49,0
48048,note_on,48,0,7,,,,,,,,6,,,86,0
48060,note_on,12,0,8,,,,,,,,6,,,61,80
48060,note_on,12,0,7,,,,,,,,6,,,77,80
48108,note_on,48,0,7,,,,,,,,6,,,77,0
48108,note_on,48,0,8,,,,,,,,6,,,61,0
48120,note_on,12,0,7,,,,,,,,6,,,75,80
48120,note_on,12,0,8,,,,,,,,6,,,60,80
48168,note_on,48,0,7,,,,,,,,6,,,75,0
48168,note_on,48,0,8,,,,,,,,6,,,60,0
48180,note_on,12,0,7,,,,,,,,6,,,77,80
48180,note_on,12,0,8,,,,,,,,6,,,61,80
48192,note_on,432,0,9,,,,,,,,7,,,68,0
48192,note_on,432,0,11,,,,,,,,10,,,62,0
48192,note_on,192,0,10,,,,,,,,8,,,65,0
48192,note_on,192,0,13,,,,,,,,12,,,49,0
48192,note_on,192,0,2,,,,,,,,1,,,77,0
48192,note_on,432,0,1,,,,,,,,0,,,86,0
48192,note_on,192,0,12,,,,,,,,11,,,61,0
48228,note_on,48,0,8,,,,,,,,6,,,61,0
48228,note_on,48,0,7,,,,,,,,6,,,77,0
48240,note_on,12,0,8,,,,,,,,6,,,46,80
48240,note_on,48,0,9,,,,,,,,7,,,67,80
48240,note_on,48,0,11,,,,,,,,10,,,61,80
48240,note_on,12,0,7,,,,,,,,6,,,85,80
48240,note_on,48,0,10,,,,,,,,8,,,64,80
48240,note_on,48,0,1,,,,,,,,0,,,85,80
48240,note_on,48,0,13,,,,,,,,12,,,46,80
48240,note_on,48,0,12,,,,,,,,11,,,58,80
48240,note_on,48,0,2,,,,,,,,1,,,76,80
48288,note_on,48,0,8,,,,,,,,6,,,46,0
48288,note_on,48,0,7,,,,,,,,6,,,85,0
48300,note_on,12,0,8,,,,,,,,6,,,58,80
48300,note_on,12,0,7,,,,,,,,6,,,76,80
48348,note_on,48,0,7,,,,,,,,6,,,76,0
48348,note_on,48,0,8,,,,,,,,6,,,58,0
48360,note_on,12,0,8,,,,,,,,6,,,56,80
48360,note_on,12,0,7,,,,,,,,6,,,85,80
48408,note_on,48,0,8,,,,,,,,6,,,56,0
48408,note_on,48,0,7,,,,,,,,6,,,85,0
48420,note_on,12,0,8,,,,,,,,6,,,58,80
48420,note_on,12,0,7,,,,,,,,6,,,76,80
48432,note_on,192,0,10,,,,,,,,8,,,64,0
48432,note_on,192,0,13,,,,,,,,12,,,46,0
48432,note_on,192,0,2,,,,,,,,1,,,76,0
48432,note_on,192,0,12,,,,,,,,11,,,58,0
48432,note_on,192,0,9,,,,,,,,7,,,67,0
48468,note_on,48,0,8,,,,,,,,6,,,58,0
48468,note_on,48,0,7,,,,,,,,6,,,76,0
48480,note_on,12,0,7,,,,,,,,6,,,85,80
48480,note_on,48,0,12,,,,,,,,11,,,59,80
48480,note_on,48,0,10,,,,,,,,8,,,63,80
48480,note_on,48,0,2,,,,,,,,1,,,75,80
48480,note_on,12,0,8,,,,,,,,6,,,47,80
48480,note_on,48,0,13,,,,,,,,12,,,47,80
48480,note_on,48,0,9,,,,,,,,7,,,66,80
48528,note_on,48,0,8,,,,,,,,6,,,47,0
48528,note_on,48,0,7,,,,,,,,6,,,85,0
48540,note_on,12,0,8,,,,,,,,6,,,59,80
48540,note_on,12,0,7,,,,,,,,6,,,75,80
48588,note_on,48,0,8,,,,,,,,6,,,59,0
48588,note_on,48,0,7,,,,,,,,6,,,75,0
48600,note_on,12,0,7,,,,,,,,6,,,73,80
48600,note_on,12,0,8,,,,,,,,6,,,58,80
48648,note_on,48,0,7,,,,,,,,6,,,73,0
48648,note_on,48,0,8,,,,,,,,6,,,58,0
48660,note_on,12,0,7,,,,,,,,6,,,75,80
48660,note_on,12,0,8,,,,,,,,6,,,59,80
48672,note_on,432,0,1,,,,,,,,0,,,85,0
48672,note_on,192,0,9,,,,,,,,7,,,66,0
48672,note_on,192,0,12,,,,,,,,11,,,59,0
48672,note_on,432,0,11,,,,,,,,10,,,61,0
48672,note_on,192,0,2,,,,,,,,1,,,75,0
48672,note_on,192,0,13,,,,,,,,12,,,47,0
48672,note_on,192,0,10,,,,,,,,8,,,63,0
48708,note_on,48,0,8,,,,,,,,6,,,59,0
48708,note_on,48,0,7,,,,,,,,6,,,75,0
48720,note_on,48,0,11,,,,,,,,10,,,59,80
48720,note_on,48,0,9,,,,,,,,7,,,65,80
48720,note_on,12,0,8,,,,,,,,6,,,44,80
48720,note_on,48,0,1,,,,,,,,0,,,83,80
48720,note_on,48,0,2,,,,,,,,1,,,74,80
48720,note_on,48,0,12,,,,,,,,11,,,56,80
48720,note_on,48,0,13,,,,,,,,12,,,44,80
48720,note_on,48,0,10,,,,,,,,8,,,62,80
48720,note_on,12,0,7,,,,,,,,6,,,83,80
48768,note_on,48,0,8,,,,,,,,6,,,44,0
48768,note_on,48,0,7,,,,,,,,6,,,83,0
48780,note_on,12,0,7,,,,,,,,6,,,74,80
48780,note_on,12,0,8,,,,,,,,6,,,56,80
48828,note_on,48,0,8,,,,,,,,6,,,56,0
48828,note_on,48,0,7,,,,,,,,6,,,74,0
48840,note_on,12,0,8,,,,,,,,6,,,54,80
48840,note_on,12,0,7,,,,,,,,6,,,83,80
48888,note_on,48,0,8,,,,,,,,6,,,54,0
48888,note_on,48,0,7,,,,,,,,6,,,83,0
48900,note_on,12,0,8,,,,,,,,6,,,56,80
48900,note_on,12,0,7,,,,,,,,6,,,74,80
48912,note_on,192,0,13,,,,,,,,12,,,44,0
48912,note_on,192,0,9,,,,,,,,7,,,65,0
48912,note_on,192,0,12,,,,,,,,11,,,56,0
48912,note_on,192,0,2,,,,,,,,1,,,74,0
48912,note_on,192,0,10,,,,,,,,8,,,62,0
48948,note_on,48,0,7,,,,,,,,6,,,74,0
48948,note_on,48,0,8,,,,,,,,6,,,56,0
48960,note_on,48,0,9,,,,,,,,7,,,68,80
48960,note_on,48,0,2,,,,,,,,1,,,73,80
48960,note_on,48,0,13,,,,,,,,12,,,41,80
48960,note_on,12,0,8,,,,,,,,6,,,41,80
48960,note_on,48,0,12,,,,,,,,11,,,53,80
48960,note_on,12,0,7,,,,,,,,6,,,83,80
48960,note_on,48,0,10,,,,,,,,8,,,61,80
49008,note_on,48,0,8,,,,,,,,6,,,41,0
49008,note_on,48,0,7,,,,,,,,6,,,83,0
49020,note_on,12,0,7,,,,,,,,6,,,73,80
49020,note_on,12,0,8,,,,,,,,6,,,53,80
49068,note_on,48,0,7,,,,,,,,6,,,73,0
49068,note_on,48,0,8,,,,,,,,6,,,53,0
49080,note_on,12,0,8,,,,,,,,6,,,51,80
49080,note_on,12,0,7,,,,,,,,6,,,72,80
49128,note_on,48,0,8,,,,,,,,6,,,51,0
49128,note_on,48,0,7,,,,,,,,6,,,72,0
49140,note_on,12,0,8,,,,,,,,6,,,53,80
49140,note_on,12,0,7,,,,,,,,6,,,73,80
49152,note_on,192,0,13,,,,,,,,12,,,41,0
49152,note_on,192,0,9,,,,,,,,7,,,68,0
49152,note_on,432,0,11,,,,,,,,10,,,59,0
49152,note_on,432,0,1,,,,,,,,0,,,83,0
49152,note_on,192,0,12,,,,,,,,11,,,53,0
49188,note_on,48,0,7,,,,,,,,6,,,73,0
49188,note_on,48,0,8,,,,,,,,6,,,53,0
49200,note_on,48,0,1,,,,,,,,0,,,81,80
49200,note_on,48,0,13,,,,,,,,12,,,42,80
49200,note_on,48,0,9,,,,,,,,7,,,66,80
49200,note_on,12,0,8,,,,,,,,6,,,42,80
49200,note_on,12,0,7,,,,,,,,6,,,81,80
49200,note_on,48,0,11,,,,,,,,10,,,57,80
49200,note_on,48,0,12,,,,,,,,11,,,54,80
49248,note_on,48,0,8,,,,,,,,6,,,42,0
49248,note_on,48,0,7,,,,,,,,6,,,81,0
49260,note_on,12,0,7,,,,,,,,6,,,73,80
49260,note_on,12,0,8,,,,,,,,6,,,54,80
49308,note_on,48,0,7,,,,,,,,6,,,73,0
49308,note_on,48,0,8,,,,,,,,6,,,54,0
49320,note_on,12,0,7,,,,,,,,6,,,81,80
49320,note_on,12,0,8,,,,,,,,6,,,53,80
49344,note_on,384,0,2,,,,,,,,1,,,73,0
49344,note_on,384,0,10,,,,,,,,8,,,61,0
49368,note_on,48,0,7,,,,,,,,6,,,81,0
49368,note_on,48,0,8,,,,,,,,6,,,53,0
49380,note_on,12,0,8,,,,,,,,6,,,54,80
49380,note_on,12,0,7,,,,,,,,6,,,73,80
49392,note_on,192,0,11,,,,,,,,10,,,57,0
49392,note_on,192,0,13,,,,,,,,12,,,42,0
49392,note_on,192,0,9,,,,,,,,7,,,66,0
49392,note_on,192,0,12,,,,,,,,11,,,54,0
49428,note_on,48,0,8,,,,,,,,6,,,54,0
49428,note_on,48,0,7,,,,,,,,6,,,73,0
49440,note_on,48,0,13,,,,,,,,12,,,38,80
49440,note_on,96,0,2,,,,,,,,1,,,71,80
49440,note_on,96,0,10,,,,,,,,8,,,59,80
49440,note_on,12,0,7,,,,,,,,6,,,81,80
49440,note_on,48,0,12,,,,,,,,11,,,50,80
49440,note_on,48,0,9,,,,,,,,7,,,69,80
49440,note_on,12,0,8,,,,,,,,6,,,38,80
49440,note_on,48,0,11,,,,,,,,10,,,66,80
49488,note_on,48,0,7,,,,,,,,6,,,81,0
49488,note_on,48,0,8,,,,,,,,6,,,38,0
49500,note_on,12,0,7,,,,,,,,6,,,71,80
49500,note_on,12,0,8,,,,,,,,6,,,50,80
49548,note_on,48,0,8,,,,,,,,6,,,50,0
49548,note_on,48,0,7,,,,,,,,6,,,71,0
49560,note_on,12,0,8,,,,,,,,6,,,38,80
49560,note_on,12,0,7,,,,,,,,6,,,81,80
49608,note_on,48,0,7,,,,,,,,6,,,81,0
49608,note_on,48,0,8,,,,,,,,6,,,38,0
49620,note_on,12,0,8,,,,,,,,6,,,50,80
49620,note_on,12,0,7,,,,,,,,6,,,71,80
49632,note_on,192,0,11,,,,,,,,10,,,66,0
49632,note_on,192,0,9,,,,,,,,7,,,69,0
49632,note_on,192,0,13,,,,,,,,12,,,38,0
49632,note_on,432,0,1,,,,,,,,0,,,81,0
49632,note_on,192,0,12,,,,,,,,11,,,50,0
49668,note_on,48,0,8,,,,,,,,6,,,50,0
49668,note_on,48,0,7,,,,,,,,6,,,71,0
49680,note_on,12,0,7,,,,,,,,6,,,80,80
49680,note_on,48,0,12,,,,,,,,11,,,52,80
49680,note_on,48,0,11,,,,,,,,10,,,64,80
49680,note_on,48,0,13,,,,,,,,12,,,40,80
49680,note_on,12,0,8,,,,,,,,6,,,40,80
49680,note_on,48,0,1,,,,,,,,0,,,80,80
49680,note_on,48,0,9,,,,,,,,7,,,68,80
49728,note_on,48,0,7,,,,,,,,6,,,80,0
49728,note_on,48,0,8,,,,,,,,6,,,40,0
49740,note_on,12,0,8,,,,,,,,6,,,52,80
49740,note_on,12,0,7,,,,,,,,6,,,71,80
49788,note_on,48,0,7,,,,,,,,6,,,71,0
49788,note_on,48,0,8,,,,,,,,6,,,52,0
49800,note_on,12,0,8,,,,,,,,6,,,40,80
49800,note_on,12,0,7,,,,,,,,6,,,80,80
49824,note_on,384,0,10,,,,,,,,8,,,59,0
49824,note_on,384,0,2,,,,,,,,1,,,71,0
49848,note_on,48,0,8,,,,,,,,6,,,40,0
49848,note_on,48,0,7,,,,,,,,6,,,80,0
49860,note_on,12,0,8,,,,,,,,6,,,52,80
49860,note_on,12,0,7,,,,,,,,6,,,71,80
49872,note_on,192,0,1,,,,,,,,0,,,80,0
49872,note_on,192,0,13,,,,,,,,12,,,40,0
49872,note_on,192,0,12,,,,,,,,11,,,52,0
49872,note_on,192,0,11,,,,,,,,10,,,64,0
49872,note_on,192,0,9,,,,,,,,7,,,68,0
49908,note_on,48,0,7,,,,,,,,6,,,71,0
49908,note_on,48,0,8,,,,,,,,6,,,52,0
49920,note_on,48,0,1,,,,,,,,0,,,81,80
49920,note_on,48,0,13,,,,,,,,12,,,45,80
49920,note_on,48,0,11,,,,,,,,10,,,64,80
49920,note_on,96,0,2,,,,,,,,1,,,73,80
49920,note_on,48,0,12,,,,,,,,11,,,57,80
49920,note_on,48,0,9,,,,,,,,7,,,69,80
49920,note_on,12,0,7,,,,,,,,6,,,81,80
49920,note_on,12,0,8,,,,,,,,6,,,45,80
49920,note_on,96,0,10,,,,,,,,8,,,61,80
49968,note_on,48,0,7,,,,,,,,6,,,81,0
49980,note_on,12,0,7,,,,,,,,6,,,69,80
50016,note_on,96,0,11,,,,,,,,10,,,64,0
50016,note_on,96,0,9,,,,,,,,7,,,69,0
50016,note_on,96,0,10,,,,,,,,8,,,61,0
50028,note_on,48,0,7,,,,,,,,6,,,69,0
50040,note_on,24,0,10,,,,,,,,8,,,61,80
50040,note_on,24,0,11,,,,,,,,10,,,64,80
50040,note_on,24,0,9,,,,,,,,7,,,69,80
50040,note_on,12,0,7,,,,,,,,6,,,73,80
50088,note_on,48,0,7,,,,,,,,6,,,73,0
50100,note_on,12,0,7,,,,,,,,6,,,76,80
50112,note_on,192,0,13,,,,,,,,12,,,45,0
50112,note_on,192,0,2,,,,,,,,1,,,73,0
50112,note_on,192,0,1,,,,,,,,0,,,81,0
50112,note_on,192,0,12,,,,,,,,11,,,57,0
50112,note_on,192,0,8,,,,,,,,6,,,45,0
50136,note_on,96,0,9,,,,,,,,7,,,69,0
50136,note_on,96,0,11,,,,,,,,10,,,64,0
50136,note_on,96,0,10,,,,,,,,8,,,61,0
50148,note_on,48,0,7,,,,,,,,6,,,76,0
50160,note_on,24,0,11,,,,,,,,10,,,64,80
50160,note_on,24,0,9,,,,,,,,7,,,69,80
50160,note_on,12,0,7,,,,,,,,6,,,81,80
50160,note_on,24,0,10,,,,,,,,8,,,61,80
50208,note_on,48,0,7,,,,,,,,6,,,81,0
50220,note_on,12,0,7,,,,,,,,6,,,85,80
50256,note_on,96,0,10,,,,,,,,8,,,61,0
50256,note_on,96,0,11,,,,,,,,10,,,64,0
50256,note_on,96,0,9,,,,,,,,7,,,69,0
50268,note_on,48,0,7,,,,,,,,6,,,85,0
50280,note_on,12,0,7,,,,,,,,6,,,88,80
50280,note_on,24,0,10,,,,,,,,8,,,61,80
50280,note_on,24,0,11,,,,,,,,10,,,64,80
50280,note_on,24,0,9,,,,,,,,7,,,69,80
50328,note_on,48,0,7,,,,,,,,6,,,88,0
50340,note_on,12,0,7,,,,,,,,6,,,85,80
50376,note_on,96,0,11,,,,,,,,10,,,64,0
50376,note_on,96,0,10,,,,,,,,8,,,61,0
50376,note_on,96,0,9,,,,,,,,7,,,69,0
50388,note_on,48,0,7,,,,,,,,6,,,85,0
50400,note_on,288,0,12,,,,,,,,11,,,52,80
50400,note_on,288,0,13,,,,,,,,12,,,40,80
50400,note_on,0,0,8,,,,,,,,6,,,56,80
50400,note_on,0,0,8,,,,,,,,6,,,52,80
50400,note_on,288,0,8,,,,,,,,6,,,62,80
50400,note_on,12,0,7,,,,,,,,6,,,86,80
50448,note_on,48,0,7,,,,,,,,6,,,86,0
50460,note_on,12,0,7,,,,,,,,6,,,83,80
50508,note_on,48,0,7,,,,,,,,6,,,83,0
50520,note_on,144,0,9,,,,,,,,7,,,68,80
50520,note_on,144,0,11,,,,,,,,10,,,64,80
50520,note_on,144,0,10,,,,,,,,8,,,62,80
50520,note_on,12,0,7,,,,,,,,6,,,80,80
50568,note_on,48,0,7,,,,,,,,6,,,80,0
50580,note_on,12,0,7,,,,,,,,6,,,76,80
50592,note_on,192,0,13,,,,,,,,12,,,40,0
50592,note_on,0,0,8,,,,,,,,6,,,52,0
50592,note_on,192,0,12,,,,,,,,11,,,52,0
50592,note_on,192,0,8,,,,,,,,6,,,56,0
50592,note_on,0,0,8,,,,,,,,6,,,62,0
50616,note_on,96,0,10,,,,,,,,8,,,62,0
50616,note_on,96,0,9,,,,,,,,7,,,68,0
50616,note_on,96,0,11,,,,,,,,10,,,64,0
50628,note_on,48,0,7,,,,,,,,6,,,76,0
50640,note_on,24,0,10,,,,,,,,8,,,62,80
50640,note_on,12,0,7,,,,,,,,6,,,75,80
50640,note_on,24,0,11,,,,,,,,10,,,64,80
50640,note_on,24,0,9,,,,,,,,7,,,68,80
50688,note_on,48,0,7,,,,,,,,6,,,75,0
50700,note_on,12,0,7,,,,,,,,6,,,76,80
50736,note_on,96,0,9,,,,,,,,7,,,68,0
50736,note_on,96,0,11,,,,,,,,10,,,64,0
50736,note_on,96,0,10,,,,,,,,8,,,62,0
50748,note_on,48,0,7,,,,,,,,6,,,76,0
50760,note_on,24,0,9,,,,,,,,7,,,68,80
50760,note_on,24,0,11,,,,,,,,10,,,64,80
50760,note_on,12,0,7,,,,,,,,6,,,74,80
50760,note_on,24,0,10,,,,,,,,8,,,62,80
50808,note_on,48,0,7,,,,,,,,6,,,74,0
50820,note_on,12,0,7,,,,,,,,6,,,71,80
50856,note_on,96,0,11,,,,,,,,10,,,64,0
50856,note_on,96,0,9,,,,,,,,7,,,68,0
50856,note_on,96,0,10,,,,,,,,8,,,62,0
50868,note_on,48,0,7,,,,,,,,6,,,71,0
50880,note_on,9408,0,3,,,,,,,,2,,,64,80
50880,note_on,288,0,12,,,,,,,,11,,,57,80
50880,note_on,12,0,7,,,,,,,,6,,,69,80
50880,note_on,0,0,8,,,,,,,,6,,,61,80
50880,note_on,288,0,8,,,,,,,,6,,,57,80
50880,note_on,288,0,13,,,,,,,,12,,,45,80
50928,note_on,48,0,7,,,,,,,,6,,,69,0
50940,note_on,12,0,7,,,,,,,,6,,,73,80
50988,note_on,48,0,7,,,,,,,,6,,,73,0
51000,note_on,144,0,11,,,,,,,,10,,,64,80
51000,note_on,12,0,7,,,,,,,,6,,,76,80
51000,note_on,144,0,10,,,,,,,,8,,,61,80
51000,note_on,144,0,9,,,,,,,,7,,,69,80
51048,note_on,48,0,7,,,,,,,,6,,,76,0
51060,note_on,12,0,7,,,,,,,,6,,,80,80
51072,note_on,192,0,8,,,,,,,,6,,,61,0
51072,note_on,0,0,8,,,,,,,,6,,,57,0
51072,note_on,192,0,13,,,,,,,,12,,,45,0
51072,note_on,192,0,12,,,,,,,,11,,,57,0
51096,note_on,96,0,9,,,,,,,,7,,,69,0
51096,note_on,96,0,11,,,,,,,,10,,,64,0
51096,note_on,96,0,10,,,,,,,,8,,,61,0
51108,note_on,48,0,7,,,,,,,,6,,,80,0
51120,note_on,24,0,11,,,,,,,,10,,,64,80
51120,note_on,12,0,7,,,,,,,,6,,,81,80
51120,note_on,24,0,9,,,,,,,,7,,,69,80
51120,note_on,24,0,10,,,,,,,,8,,,61,80
51168,note_on,48,0,7,,,,,,,,6,,,81,0
51180,note_on,12,0,7,,,,,,,,6,,,85,80
51216,note_on,96,0,9,,,,,,,,7,,,69,0
51216,note_on,96,0,11,,,,,,,,10,,,64,0
51216,note_on,96,0,10,,,,,,,,8,,,61,0
51228,note_on,48,0,7,,,,,,,,6,,,85,0
51240,note_on,12,0,7,,,,,,,,6,,,88,80
51240,note_on,24,0,9,,,,,,,,7,,,69,80
51240,note_on,24,0,10,,,,,,,,8,,,61,80
51240,note_on,24,0,11,,,,,,,,10,,,64,80
51288,note_on,48,0,7,,,,,,,,6,,,88,0
51300,note_on,12,0,7,,,,,,,,6,,,85,80
51336,note_on,96,0,11,,,,,,,,10,,,64,0
51336,note_on,96,0,10,,,,,,,,8,,,61,0
51336,note_on,96,0,9,,,,,,,,7,,,69,0
51348,note_on,48,0,7,,,,,,,,6,,,85,0
51360,note_on,12,0,7,,,,,,,,6,,,86,80
51360,note_on,288,0,8,,,,,,,,6,,,62,80
51360,note_on,0,0,8,,,,,,,,6,,,56,80
51360,note_on,0,0,8,,,,,,,,6,,,52,80
51360,note_on,288,0,12,,,,,,,,11,,,52,80
51360,note_on,288,0,13,,,,,,,,12,,,40,80
51408,note_on,48,0,7,,,,,,,,6,,,86,0
51420,note_on,12,0,7,,,,,,,,6,,,83,80
51468,note_on,48,0,7,,,,,,,,6,,,83,0
51480,note_on,12,0,7,,,,,,,,6,,,80,80
51480,note_on,144,0,11,,,,,,,,10,,,64,80
51480,note_on,144,0,10,,,,,,,,8,,,62,80
51480,note_on,144,0,9,,,,,,,,7,,,68,80
51528,note_on,48,0,7,,,,,,,,6,,,80,0
51540,note_on,12,0,7,,,,,,,,6,,,76,80
51552,note_on,192,0,13,,,,,,,,12,,,40,0
51552,note_on,192,0,12,,,,,,,,11,,,52,0
51552,note_on,0,0,8,,,,,,,,6,,,62,0
51552,note_on,0,0,8,,,,,,,,6,,,56,0
51552,note_on,192,0,8,,,,,,,,6,,,52,0
51576,note_on,96,0,11,,,,,,,,10,,,64,0
51576,note_on,96,0,10,,,,,,,,8,,,62,0
51576,note_on,96,0,9,,,,,,,,7,,,68,0
51588,note_on,48,0,7,,,,,,,,6,,,76,0
51600,note_on,24,0,11,,,,,,,,10,,,64,80
51600,note_on,12,0,7,,,,,,,,6,,,75,80
51600,note_on,24,0,9,,,,,,,,7,,,68,80
51600,note_on,24,0,10,,,,,,,,8,,,62,80
51648,note_on,48,0,7,,,,,,,,6,,,75,0
51660,note_on,12,0,7,,,,,,,,6,,,76,80
51696,note_on,96,0,11,,,,,,,,10,,,64,0
51696,note_on,96,0,10,,,,,,,,8,,,62,0
51696,note_on,96,0,9,,,,,,,,7,,,68,0
51708,note_on,48,0,7,,,,,,,,6,,,76,0
51720,note_on,24,0,11,,,,,,,,10,,,64,80
51720,note_on,24,0,10,,,,,,,,8,,,62,80
51720,note_on,12,0,7,,,,,,,,6,,,74,80
51720,note_on,24,0,9,,,,,,,,7,,,68,80
51744,note_on,864,0,3,,,,,,,,2,,,64,0
51768,note_on,48,0,7,,,,,,,,6,,,74,0
51780,note_on,12,0,7,,,,,,,,6,,,71,80
51816,note_on,96,0,11,,,,,,,,10,,,64,0
51816,note_on,96,0,10,,,,,,,,8,,,62,0
51816,note_on,96,0,9,,,,,,,,7,,,68,0
51828,note_on,48,0,7,,,,,,,,6,,,71,0
51840,note_on,24,0,9,,,,,,,,7,,,69,80
51840,note_on,288,0,12,,,,,,,,11,,,57,80
51840,note_on,288,0,8,,,,,,,,6,,,61,80
51840,note_on,0,0,8,,,,,,,,6,,,57,80
51840,note_on,24,0,10,,,,,,,,8,,,61,80
51840,note_on,96,0,3,,,,,,,,2,,,57,80
51840,note_on,12,0,7,,,,,,,,6,,,69,80
51840,note_on,24,0,11,,,,,,,,10,,,64,80
51840,note_on,288,0,13,,,,,,,,12,,,45,80
51888,note_on,48,0,7,,,,,,,,6,,,69,0
51900,note_on,12,0,7,,,,,,,,6,,,68,80
51948,note_on,48,0,7,,,,,,,,6,,,68,0
51960,note_on,12,0,7,,,,,,,,6,,,71,80
52008,note_on,48,0,7,,,,,,,,6,,,71,0
52020,note_on,12,0,7,,,,,,,,6,,,69,80
52032,note_on,192,0,10,,,,,,,,8,,,61,0
52032,note_on,192,0,11,,,,,,,,10,,,64,0
52032,note_on,192,0,12,,,,,,,,11,,,57,0
52032,note_on,192,0,13,,,,,,,,12,,,45,0
52032,note_on,192,0,3,,,,,,,,2,,,57,0
52032,note_on,192,0,9,,,,,,,,7,,,69,0
52032,note_on,192,0,8,,,,,,,,6,,,57,0
52032,note_on,0,0,8,,,,,,,,6,,,61,0
52068,note_on,48,0,7,,,,,,,,6,,,69,0
52080,note_on,12,0,7,,,,,,,,6,,,73,80
52128,note_on,48,0,7,,,,,,,,6,,,73,0
52140,note_on,12,0,7,,,,,,,,6,,,71,80
52188,note_on,48,0,7,,,,,,,,6,,,71,0
52200,note_on,12,0,7,,,,,,,,6,,,74,80
52248,note_on,48,0,7,,,,,,,,6,,,74,0
52260,note_on,12,0,7,,,,,,,,6,,,73,80
52308,note_on,48,0,7,,,,,,,,6,,,73,0
52320,note_on,12,0,7,,,,,,,,6,,,76,80
52368,note_on,48,0,7,,,,,,,,6,,,76,0
52380,note_on,12,0,7,,,,,,,,6,,,75,80
52428,note_on,48,0,7,,,,,,,,6,,,75,0
52440,note_on,12,0,7,,,,,,,,6,,,78,80
52488,note_on,48,0,7,,,,,,,,6,,,78,0
52500,note_on,12,0,7,,,,,,,,6,,,76,80
52548,note_on,48,0,7,,,,,,,,6,,,76,0
52560,note_on,12,0,7,,,,,,,,6,,,79,80
52608,note_on,48,0,7,,,,,,,,6,,,79,0
52620,note_on,12,0,7,,,,,,,,6,,,78,80
52668,note_on,48,0,7,,,,,,,,6,,,78,0
52680,note_on,12,0,7,,,,,,,,6,,,81,80
52728,note_on,48,0,7,,,,,,,,6,,,81,0
52740,note_on,12,0,7,,,,,,,,6,,,79,80
52788,note_on,48,0,7,,,,,,,,6,,,79,0
52800,note_on,12,0,7,,,,,,,,6,,,79,80
52800,note_on,19488,0,4,,,,,,,,3,,,45,80
52800,note_on,0,0,4,,,,,,,,3,,,57,80
52848,note_on,48,0,7,,,,,,,,6,,,79,0
52860,note_on,12,0,7,,,,,,,,6,,,78,80
52908,note_on,48,0,7,,,,,,,,6,,,78,0
52920,note_on,12,0,7,,,,,,,,6,,,79,80
52968,note_on,48,0,7,,,,,,,,6,,,79,0
52980,note_on,12,0,7,,,,,,,,6,,,81,80
53028,note_on,48,0,7,,,,,,,,6,,,81,0
53040,note_on,12,0,7,,,,,,,,6,,,83,80
53088,note_on,48,0,7,,,,,,,,6,,,83,0
53100,note_on,12,0,7,,,,,,,,6,,,81,80
53148,note_on,48,0,7,,,,,,,,6,,,81,0
53160,note_on,12,0,7,,,,,,,,6,,,79,80
53208,note_on,48,0,7,,,,,,,,6,,,79,0
53220,note_on,12,0,7,,,,,,,,6,,,78,80
53268,note_on,48,0,7,,,,,,,,6,,,78,0
53280,note_on,1248,0,8,,,,,,,,6,,,67,80
53280,note_on,12,0,7,,,,,,,,6,,,76,80
53328,note_on,48,0,8,,,,,,,,6,,,67,0
53328,note_on,48,0,7,,,,,,,,6,,,76,0
53340,note_on,12,0,7,,,,,,,,6,,,75,80
53340,note_on,12,0,8,,,,,,,,6,,,66,80
53388,note_on,48,0,7,,,,,,,,6,,,75,0
53388,note_on,48,0,8,,,,,,,,6,,,66,0
53400,note_on,12,0,8,,,,,,,,6,,,67,80
53400,note_on,12,0,7,,,,,,,,6,,,76,80
53448,note_on,48,0,7,,,,,,,,6,,,76,0
53448,note_on,48,0,8,,,,,,,,6,,,67,0
53460,note_on,12,0,8,,,,,,,,6,,,69,80
53460,note_on,12,0,7,,,,,,,,6,,,78,80
53508,note_on,48,0,7,,,,,,,,6,,,78,0
53508,note_on,48,0,8,,,,,,,,6,,,69,0
53520,note_on,12,0,7,,,,,,,,6,,,79,80
53520,note_on,12,0,8,,,,,,,,6,,,71,80
53568,note_on,48,0,7,,,,,,,,6,,,79,0
53568,note_on,48,0,8,,,,,,,,6,,,71,0
53580,note_on,12,0,8,,,,,,,,6,,,69,80
53580,note_on,12,0,7,,,,,,,,6,,,78,80
53628,note_on,48,0,7,,,,,,,,6,,,78,0
53628,note_on,48,0,8,,,,,,,,6,,,69,0
53640,note_on,12,0,8,,,,,,,,6,,,67,80
53640,note_on,12,0,7,,,,,,,,6,,,76,80
53688,note_on,48,0,7,,,,,,,,6,,,76,0
53688,note_on,48,0,8,,,,,,,,6,,,67,0
53700,note_on,12,0,7,,,,,,,,6,,,74,80
53700,note_on,12,0,8,,,,,,,,6,,,66,80
53748,note_on,48,0,8,,,,,,,,6,,,66,0
53748,note_on,48,0,7,,,,,,,,6,,,74,0
53760,note_on,12,0,7,,,,,,,,6,,,73,80
53760,note_on,12,0,8,,,,,,,,6,,,64,80
53808,note_on,48,0,7,,,,,,,,6,,,73,0
53808,note_on,48,0,8,,,,,,,,6,,,64,0
53820,note_on,12,0,7,,,,,,,,6,,,71,80
53820,note_on,12,0,8,,,,,,,,6,,,62,80
53868,note_on,48,0,8,,,,,,,,6,,,62,0
53868,note_on,48,0,7,,,,,,,,6,,,71,0
53880,note_on,12,0,8,,,,,,,,6,,,64,80
53880,note_on,12,0,7,,,,,,,,6,,,73,80
53928,note_on,48,0,8,,,,,,,,6,,,64,0
53928,note_on,48,0,7,,,,,,,,6,,,73,0
53940,note_on,12,0,8,,,,,,,,6,,,66,80
53940,note_on,12,0,7,,,,,,,,6,,,74,80
53988,note_on,48,0,7,,,,,,,,6,,,74,0
53988,note_on,48,0,8,,,,,,,,6,,,66,0
54000,note_on,12,0,8,,,,,,,,6,,,67,80
54000,note_on,12,0,7,,,,,,,,6,,,76,80
54048,note_on,48,0,7,,,,,,,,6,,,76,0
54048,note_on,48,0,8,,,,,,,,6,,,67,0
54060,note_on,12,0,7,,,,,,,,6,,,74,80
54060,note_on,12,0,8,,,,,,,,6,,,66,80
54108,note_on,48,0,7,,,,,,,,6,,,74,0
54108,note_on,48,0,8,,,,,,,,6,,,66,0
54120,note_on,12,0,7,,,,,,,,6,,,73,80
54120,note_on,12,0,8,,,,,,,,6,,,64,80
54168,note_on,48,0,8,,,,,,,,6,,,64,0
54168,note_on,48,0,7,,,,,,,,6,,,73,0
54180,note_on,12,0,8,,,,,,,,6,,,62,80
54180,note_on,12,0,7,,,,,,,,6,,,71,80
54228,note_on,48,0,8,,,,,,,,6,,,62,0
54228,note_on,48,0,7,,,,,,,,6,,,71,0
54240,note_on,12,0,8,,,,,,,,6,,,61,80
54240,note_on,12,0,7,,,,,,,,6,,,69,80
54240,note_on,0,0,2,,,,,,,,1,,,81,80
54240,note_on,4128,0,2,,,,,,,,1,,,69,80
54240,note_on,4128,0,1,,,,,,,,0,,,81,80
54288,note_on,48,0,7,,,,,,,,6,,,69,0
54300,note_on,12,0,7,,,,,,,,6,,,70,80
54348,note_on,48,0,7,,,,,,,,6,,,70,0
54360,note_on,12,0,7,,,,,,,,6,,,71,80
54408,note_on,48,0,7,,,,,,,,6,,,71,0
54420,note_on,12,0,7,,,,,,,,6,,,69,80
54432,note_on,192,0,8,,,,,,,,6,,,61,0
54468,note_on,48,0,7,,,,,,,,6,,,69,0
54480,note_on,12,0,7,,,,,,,,6,,,67,80
54528,note_on,48,0,7,,,,,,,,6,,,67,0
54540,note_on,12,0,7,,,,,,,,6,,,66,80
54588,note_on,48,0,7,,,,,,,,6,,,66,0
54600,note_on,12,0,7,,,,,,,,6,,,64,80
54648,note_on,48,0,7,,,,,,,,6,,,64,0
54660,note_on,12,0,7,,,,,,,,6,,,63,80
54708,note_on,48,0,7,,,,,,,,6,,,63,0
54720,note_on,12,0,7,,,,,,,,6,,,64,80
54720,note_on,288,0,8,,,,,,,,6,,,55,80
54768,note_on,48,0,7,,,,,,,,6,,,64,0
54768,note_on,48,0,8,,,,,,,,6,,,55,0
54780,note_on,12,0,7,,,,,,,,6,,,63,80
54780,note_on,12,0,8,,,,,,,,6,,,54,80
54828,note_on,48,0,7,,,,,,,,6,,,63,0
54828,note_on,48,0,8,,,,,,,,6,,,54,0
54840,note_on,12,0,8,,,,,,,,6,,,55,80
54840,note_on,12,0,7,,,,,,,,6,,,64,80
54888,note_on,48,0,8,,,,,,,,6,,,55,0
54888,note_on,48,0,7,,,,,,,,6,,,64,0
54900,note_on,12,0,8,,,,,,,,6,,,57,80
54900,note_on,12,0,7,,,,,,,,6,,,66,80
54948,note_on,48,0,7,,,,,,,,6,,,66,0
54948,note_on,48,0,8,,,,,,,,6,,,57,0
54960,note_on,12,0,7,,,,,,,,6,,,67,80
54960,note_on,12,0,8,,,,,,,,6,,,59,80
55008,note_on,48,0,7,,,,,,,,6,,,67,0
55008,note_on,48,0,8,,,,,,,,6,,,59,0
55020,note_on,12,0,7,,,,,,,,6,,,66,80
55020,note_on,12,0,8,,,,,,,,6,,,57,80
55068,note_on,48,0,7,,,,,,,,6,,,66,0
55068,note_on,48,0,8,,,,,,,,6,,,57,0
55080,note_on,12,0,8,,,,,,,,6,,,55,80
55080,note_on,12,0,7,,,,,,,,6,,,64,80
55128,note_on,48,0,8,,,,,,,,6,,,55,0
55128,note_on,48,0,7,,,,,,,,6,,,64,0
55140,note_on,12,0,8,,,,,,,,6,,,54,80
55140,note_on,12,0,7,,,,,,,,6,,,62,80
55188,note_on,48,0,7,,,,,,,,6,,,62,0
55188,note_on,48,0,8,,,,,,,,6,,,54,0
55200,note_on,12,0,7,,,,,,,,6,,,61,80
55200,note_on,12,0,8,,,,,,,,6,,,52,80
55248,note_on,48,0,8,,,,,,,,6,,,52,0
55248,note_on,48,0,7,,,,,,,,6,,,61,0
55260,note_on,12,0,8,,,,,,,,6,,,51,80
55260,note_on,12,0,7,,,,,,,,6,,,59,80
55308,note_on,48,0,8,,,,,,,,6,,,51,0
55308,note_on,48,0,7,,,,,,,,6,,,59,0
55320,note_on,12,0,7,,,,,,,,6,,,61,80
55320,note_on,12,0,8,,,,,,,,6,,,52,80
55368,note_on,48,0,8,,,,,,,,6,,,52,0
55368,note_on,48,0,7,,,,,,,,6,,,61,0
55380,note_on,12,0,8,,,,,,,,6,,,54,80
55380,note_on,12,0,7,,,,,,,,6,,,62,80
55428,note_on,48,0,8,,,,,,,,6,,,54,0
55428,note_on,48,0,7,,,,,,,,6,,,62,0
55440,note_on,12,0,7,,,,,,,,6,,,64,80
55440,note_on,12,0,8,,,,,,,,6,,,55,80
55488,note_on,48,0,8,,,,,,,,6,,,55,0
55488,note_on,48,0,7,,,,,,,,6,,,64,0
55500,note_on,12,0,8,,,,,,,,6,,,54,80
55500,note_on,12,0,7,,,,,,,,6,,,62,80
55548,note_on,48,0,8,,,,,,,,6,,,54,0
55548,note_on,48,0,7,,,,,,,,6,,,62,0
55560,note_on,12,0,8,,,,,,,,6,,,52,80
55560,note_on,12,0,7,,,,,,,,6,,,61,80
55608,note_on,48,0,8,,,,,,,,6,,,52,0
55608,note_on,48,0,7,,,,,,,,6,,,61,0
55620,note_on,12,0,7,,,,,,,,6,,,59,80
55620,note_on,12,0,8,,,,,,,,6,,,50,80
55668,note_on,48,0,7,,,,,,,,6,,,59,0
55668,note_on,48,0,8,,,,,,,,6,,,50,0
55680,note_on,12,0,8,,,,,,,,6,,,49,80
55680,note_on,0,0,8,,,,,,,,6,,,45,80
55740,note_on,72,0,7,,,,,,,,6,,,57,80
55788,note_on,48,0,7,,,,,,,,6,,,57,0
55800,note_on,12,0,7,,,,,,,,6,,,56,80
55848,note_on,48,0,7,,,,,,,,6,,,56,0
55860,note_on,12,0,7,,,,,,,,6,,,57,80
55872,note_on,0,0,2,,,,,,,,1,,,69,0
55872,note_on,3072,0,4,,,,,,,,3,,,57,0
55872,note_on,0,0,4,,,,,,,,3,,,45,0
55872,note_on,1632,0,1,,,,,,,,0,,,81,0
55872,note_on,1632,0,2,,,,,,,,1,,,81,0
55872,note_on,0,0,8,,,,,,,,6,,,49,0
55872,note_on,192,0,8,,,,,,,,6,,,45,0
55908,note_on,48,0,7,,,,,,,,6,,,57,0
55920,note_on,12,0,7,,,,,,,,6,,,58,80
55968,note_on,48,0,7,,,,,,,,6,,,58,0
55980,note_on,12,0,7,,,,,,,,6,,,59,80
56028,note_on,48,0,7,,,,,,,,6,,,59,0
56040,note_on,12,0,7,,,,,,,,6,,,60,80
56088,note_on,48,0,7,,,,,,,,6,,,60,0
56100,note_on,12,0,7,,,,,,,,6,,,61,80
56148,note_on,48,0,7,,,,,,,,6,,,61,0
56160,note_on,12,0,7,,,,,,,,6,,,62,80
56208,note_on,48,0,7,,,,,,,,6,,,62,0
56220,note_on,12,0,7,,,,,,,,6,,,63,80
56268,note_on,48,0,7,,,,,,,,6,,,63,0
56280,note_on,12,0,7,,,,,,,,6,,,64,80
56328,note_on,48,0,7,,,,,,,,6,,,64,0
56340,note_on,12,0,7,,,,,,,,6,,,65,80
56388,note_on,48,0,7,,,,,,,,6,,,65,0
56400,note_on,12,0,7,,,,,,,,6,,,66,80
56448,note_on,48,0,7,,,,,,,,6,,,66,0
56460,note_on,12,0,7,,,,,,,,6,,,67,80
56508,note_on,48,0,7,,,,,,,,6,,,67,0
56520,note_on,12,0,7,,,,,,,,6,,,68,80
56568,note_on,48,0,7,,,,,,,,6,,,68,0
56580,note_on,12,0,7,,,,,,,,6,,,69,80
56628,note_on,48,0,7,,,,,,,,6,,,69,0
56640,note_on,12,0,7,,,,,,,,6,,,70,80
56688,note_on,48,0,7,,,,,,,,6,,,70,0
56700,note_on,12,0,7,,,,,,,,6,,,71,80
56748,note_on,48,0,7,,,,,,,,6,,,71,0
56760,note_on,12,0,7,,,,,,,,6,,,72,80
56808,note_on,48,0,7,,,,,,,,6,,,72,0
56820,note_on,12,0,7,,,,,,,,6,,,73,80
56868,note_on,48,0,7,,,,,,,,6,,,73,0
56880,note_on,12,0,7,,,,,,,,6,,,74,80
56928,note_on,48,0,7,,,,,,,,6,,,74,0
56940,note_on,12,0,7,,,,,,,,6,,,75,80
56988,note_on,48,0,7,,,,,,,,6,,,75,0
57000,note_on,12,0,7,,,,,,,,6,,,76,80
57048,note_on,48,0,7,,,,,,,,6,,,76,0
57060,note_on,12,0,7,,,,,,,,6,,,77,80
57108,note_on,48,0,7,,,,,,,,6,,,77,0
57120,note_on,12,0,7,,,,,,,,6,,,78,80
57168,note_on,48,0,7,,,,,,,,6,,,78,0
57180,note_on,12,0,7,,,,,,,,6,,,79,80
57228,note_on,48,0,7,,,,,,,,6,,,79,0
57240,note_on,12,0,7,,,,,,,,6,,,80,80
57288,note_on,48,0,7,,,,,,,,6,,,80,0
57300,note_on,12,0,7,,,,,,,,6,,,81,80
57348,note_on,48,0,7,,,,,,,,6,,,81,0
57360,note_on,12,0,7,,,,,,,,6,,,82,80
57408,note_on,48,0,7,,,,,,,,6,,,82,0
57420,note_on,12,0,7,,,,,,,,6,,,83,80
57468,note_on,48,0,7,,,,,,,,6,,,83,0
57480,note_on,12,0,7,,,,,,,,6,,,79,80
57528,note_on,48,0,7,,,,,,,,6,,,79,0
57540,note_on,12,0,7,,,,,,,,6,,,76,80
57588,note_on,48,0,7,,,,,,,,6,,,76,0
57600,note_on,1728,0,8,,,,,,,,6,,,62,80
57600,note_on,12,0,7,,,,,,,,6,,,74,80
57648,note_on,48,0,8,,,,,,,,6,,,62,0
57660,note_on,12,0,8,,,,,,,,6,,,69,80
57708,note_on,48,0,8,,,,,,,,6,,,69,0
57720,note_on,12,0,8,,,,,,,,6,,,66,80
57768,note_on,48,0,8,,,,,,,,6,,,66,0
57780,note_on,12,0,8,,,,,,,,6,,,69,80
57828,note_on,48,0,8,,,,,,,,6,,,69,0
57840,note_on,12,0,8,,,,,,,,6,,,62,80
57888,note_on,48,0,8,,,,,,,,6,,,62,0
57888,note_on,288,0,7,,,,,,,,6,,,74,0
57900,note_on,12,0,8,,,,,,,,6,,,69,80
57948,note_on,48,0,8,,,,,,,,6,,,69,0
57960,note_on,72,0,7,,,,,,,,6,,,78,80
57960,note_on,12,0,8,,,,,,,,6,,,66,80
58008,note_on,48,0,8,,,,,,,,6,,,66,0
58020,note_on,12,0,8,,,,,,,,6,,,69,80
58056,note_on,96,0,7,,,,,,,,6,,,78,0
58068,note_on,48,0,8,,,,,,,,6,,,69,0
58080,note_on,12,0,8,,,,,,,,6,,,62,80
58080,note_on,24,0,7,,,,,,,,6,,,81,80
58128,note_on,48,0,8,,,,,,,,6,,,62,0
58140,note_on,12,0,8,,,,,,,,6,,,69,80
58188,note_on,48,0,8,,,,,,,,6,,,69,0
58200,note_on,12,0,8,,,,,,,,6,,,66,80
58248,note_on,48,0,8,,,,,,,,6,,,66,0
58260,note_on,12,0,8,,,,,,,,6,,,69,80
58308,note_on,48,0,8,,,,,,,,6,,,69,0
58320,note_on,12,0,8,,,,,,,,6,,,62,80
58368,note_on,48,0,8,,,,,,,,6,,,62,0
58368,note_on,288,0,7,,,,,,,,6,,,81,0
58380,note_on,12,0,8,,,,,,,,6,,,69,80
58428,note_on,48,0,8,,,,,,,,6,,,69,0
58440,note_on,72,0,7,,,,,,,,6,,,78,80
58440,note_on,12,0,8,,,,,,,,6,,,66,80
58488,note_on,48,0,8,,,,,,,,6,,,66,0
58500,note_on,12,0,8,,,,,,,,6,,,69,80
58536,note_on,96,0,7,,,,,,,,6,,,78,0
58548,note_on,48,0,8,,,,,,,,6,,,69,0
58560,note_on,12,0,8,,,,,,,,6,,,57,80
58560,note_on,24,0,7,,,,,,,,6,,,76,80
58608,note_on,48,0,8,,,,,,,,6,,,57,0
58620,note_on,12,0,8,,,,,,,,6,,,67,80
58656,note_on,96,0,7,,,,,,,,6,,,76,0
58668,note_on,48,0,8,,,,,,,,6,,,67,0
58680,note_on,12,0,8,,,,,,,,6,,,66,80
58680,note_on,24,0,7,,,,,,,,6,,,76,80
58728,note_on,48,0,8,,,,,,,,6,,,66,0
58740,note_on,12,0,8,,,,,,,,6,,,67,80
58776,note_on,96,0,7,,,,,,,,6,,,76,0
58788,note_on,48,0,8,,,,,,,,6,,,67,0
58800,note_on,24,0,7,,,,,,,,6,,,78,80
58800,note_on,12,0,8,,,,,,,,6,,,69,80
58848,note_on,48,0,7,,,,,,,,6,,,78,0
58848,note_on,48,0,8,,,,,,,,6,,,69,0
58860,note_on,12,0,7,,,,,,,,6,,,76,80
58860,note_on,12,0,8,,,,,,,,6,,,67,80
58908,note_on,48,0,7,,,,,,,,6,,,76,0
58908,note_on,48,0,8,,,,,,,,6,,,67,0
58920,note_on,12,0,7,,,,,,,,6,,,75,80
58920,note_on,12,0,8,,,,,,,,6,,,66,80
58968,note_on,48,0,8,,,,,,,,6,,,66,0
58968,note_on,48,0,7,,,,,,,,6,,,75,0
58980,note_on,12,0,8,,,,,,,,6,,,67,80
58980,note_on,12,0,7,,,,,,,,6,,,76,80
59028,note_on,48,0,8,,,,,,,,6,,,67,0
59028,note_on,48,0,7,,,,,,,,6,,,76,0
59040,note_on,12,0,8,,,,,,,,6,,,57,80
59040,note_on,12,0,7,,,,,,,,6,,,73,80
59088,note_on,48,0,8,,,,,,,,6,,,57,0
59100,note_on,12,0,8,,,,,,,,6,,,64,80
59136,note_on,96,0,7,,,,,,,,6,,,73,0
59148,note_on,48,0,8,,,,,,,,6,,,64,0
59160,note_on,24,0,7,,,,,,,,6,,,73,80
59160,note_on,12,0,8,,,,,,,,6,,,62,80
59208,note_on,48,0,8,,,,,,,,6,,,62,0
59220,note_on,12,0,8,,,,,,,,6,,,64,80
59256,note_on,96,0,7,,,,,,,,6,,,73,0
59268,note_on,48,0,8,,,,,,,,6,,,64,0
59280,note_on,24,0,7,,,,,,,,6,,,74,80
59280,note_on,12,0,8,,,,,,,,6,,,66,80
59328,note_on,48,0,8,,,,,,,,6,,,66,0
59328,note_on,48,0,7,,,,,,,,6,,,74,0
59340,note_on,12,0,7,,,,,,,,6,,,73,80
59340,note_on,12,0,8,,,,,,,,6,,,64,80
59388,note_on,48,0,8,,,,,,,,6,,,64,0
59388,note_on,48,0,7,,,,,,,,6,,,73,0
59400,note_on,12,0,7,,,,,,,,6,,,71,80
59400,note_on,12,0,8,,,,,,,,6,,,62,80
59448,note_on,48,0,8,,,,,,,,6,,,62,0
59448,note_on,48,0,7,,,,,,,,6,,,71,0
59460,note_on,12,0,8,,,,,,,,6,,,64,80
59460,note_on,12,0,7,,,,,,,,6,,,73,80
59508,note_on,48,0,7,,,,,,,,6,,,73,0
59508,note_on,48,0,8,,,,,,,,6,,,64,0
59520,note_on,12,0,7,,,,,,,,6,,,74,80
59520,note_on,12,0,8,,,,,,,,6,,,62,80
59568,note_on,48,0,8,,,,,,,,6,,,62,0
59580,note_on,12,0,8,,,,,,,,6,,,69,80
59616,note_on,96,0,7,,,,,,,,6,,,74,0
59628,note_on,48,0,8,,,,,,,,6,,,69,0
59640,note_on,12,0,8,,,,,,,,6,,,66,80
59640,note_on,24,0,7,,,,,,,,6,,,74,80
59688,note_on,48,0,8,,,,,,,,6,,,66,0
59700,note_on,12,0,8,,,,,,,,6,,,69,80
59748,note_on,48,0,8,,,,,,,,6,,,69,0
59760,note_on,12,0,8,,,,,,,,6,,,62,80
59808,note_on,48,0,8,,,,,,,,6,,,62,0
59820,note_on,12,0,8,,,,,,,,6,,,69,80
59832,note_on,192,0,7,,,,,,,,6,,,74,0
59868,note_on,48,0,8,,,,,,,,6,,,69,0
59880,note_on,48,0,7,,,,,,,,6,,,78,80
59880,note_on,12,0,8,,,,,,,,6,,,66,80
59928,note_on,48,0,8,,,,,,,,6,,,66,0
59940,note_on,12,0,8,,,,,,,,6,,,69,80
59976,note_on,96,0,7,,,,,,,,6,,,78,0
59988,note_on,48,0,8,,,,,,,,6,,,69,0
60000,note_on,24,0,7,,,,,,,,6,,,81,80
60000,note_on,12,0,8,,,,,,,,6,,,62,80
60048,note_on,48,0,8,,,,,,,,6,,,62,0
60060,note_on,12,0,8,,,,,,,,6,,,69,80
60096,note_on,96,0,7,,,,,,,,6,,,81,0
60108,note_on,48,0,8,,,,,,,,6,,,69,0
60120,note_on,12,0,8,,,,,,,,6,,,66,80
60120,note_on,24,0,7,,,,,,,,6,,,81,80
60168,note_on,48,0,8,,,,,,,,6,,,66,0
60180,note_on,12,0,8,,,,,,,,6,,,69,80
60228,note_on,48,0,8,,,,,,,,6,,,69,0
60240,note_on,12,0,8,,,,,,,,6,,,62,80
60288,note_on,48,0,8,,,,,,,,6,,,62,0
60300,note_on,12,0,8,,,,,,,,6,,,69,80
60312,note_on,192,0,7,,,,,,,,6,,,81,0
60348,note_on,48,0,8,,,,,,,,6,,,69,0
60360,note_on,12,0,8,,,,,,,,6,,,66,80
60360,note_on,48,0,7,,,,,,,,6,,,78,80
60408,note_on,48,0,8,,,,,,,,6,,,66,0
60420,note_on,12,0,8,,,,,,,,6,,,69,80
60456,note_on,96,0,7,,,,,,,,6,,,78,0
60468,note_on,48,0,8,,,,,,,,6,,,69,0
60480,note_on,24,0,7,,,,,,,,6,,,76,80
60480,note_on,12,0,8,,,,,,,,6,,,64,80
60528,note_on,48,0,8,,,,,,,,6,,,64,0
60540,note_on,12,0,8,,,,,,,,6,,,73,80
60576,note_on,96,0,7,,,,,,,,6,,,76,0
60588,note_on,48,0,8,,,,,,,,6,,,73,0
60600,note_on,12,0,8,,,,,,,,6,,,69,80
60600,note_on,24,0,7,,,,,,,,6,,,81,80
60648,note_on,48,0,8,,,,,,,,6,,,69,0
60660,note_on,12,0,8,,,,,,,,6,,,73,80
60708,note_on,48,0,8,,,,,,,,6,,,73,0
60720,note_on,12,0,8,,,,,,,,6,,,64,80
60768,note_on,48,0,8,,,,,,,,6,,,64,0
60780,note_on,12,0,8,,,,,,,,6,,,74,80
60792,note_on,192,0,7,,,,,,,,6,,,81,0
60828,note_on,48,0,8,,,,,,,,6,,,74,0
60840,note_on,12,0,8,,,,,,,,6,,,71,80
60840,note_on,48,0,7,,,,,,,,6,,,83,80
60888,note_on,48,0,8,,,,,,,,6,,,71,0
60888,note_on,48,0,7,,,,,,,,6,,,83,0
60900,note_on,12,0,7,,,,,,,,6,,,80,80
60900,note_on,12,0,8,,,,,,,,6,,,74,80
60948,note_on,48,0,7,,,,,,,,6,,,80,0
60948,note_on,48,0,8,,,,,,,,6,,,74,0
60960,note_on,12,0,8,,,,,,,,6,,,69,80
60960,note_on,12,0,7,,,,,,,,6,,,81,80
61008,note_on,48,0,8,,,,,,,,6,,,69,0
61020,note_on,12,0,8,,,,,,,,6,,,68,80
61068,note_on,48,0,8,,,,,,,,6,,,68,0
61080,note_on,12,0,8,,,,,,,,6,,,69,80
61128,note_on,48,0,8,,,,,,,,6,,,69,0
61140,note_on,12,0,8,,,,,,,,6,,,71,80
61152,note_on,192,0,7,,,,,,,,6,,,81,0
61188,note_on,48,0,8,,,,,,,,6,,,71,0
61200,note_on,12,0,8,,,,,,,,6,,,69,80
61248,note_on,48,0,8,,,,,,,,6,,,69,0
61260,note_on,12,0,8,,,,,,,,6,,,67,80
61308,note_on,48,0,8,,,,,,,,6,,,67,0
61320,note_on,12,0,8,,,,,,,,6,,,66,80
61320,note_on,9288,0,9,,,,,,,,7,,,69,80
61320,note_on,5448,0,1,,,,,,,,0,,,69,80
61320,note_on,5448,0,2,,,,,,,,1,,,69,80
61368,note_on,48,0,8,,,,,,,,6,,,66,0
61380,note_on,12,0,8,,,,,,,,6,,,64,80
61416,note_on,96,0,2,,,,,,,,1,,,69,0
61416,note_on,96,0,9,,,,,,,,7,,,69,0
61416,note_on,96,0,1,,,,,,,,0,,,69,0
61428,note_on,48,0,8,,,,,,,,6,,,64,0
61440,note_on,9408,0,11,,,,,,,,10,,,62,80
61440,note_on,0,0,3,,,,,,,,2,,,54,80
61440,note_on,9408,0,3,,,,,,,,2,,,62,80
61440,note_on,24,0,9,,,,,,,,7,,,74,80
61440,note_on,38208,0,6,,,,,,,,5,,,50,80
61440,note_on,12,0,8,,,,,,,,6,,,62,80
61440,note_on,24,0,1,,,,,,,,0,,,74,80
61440,note_on,0,0,4,,,,,,,,3,,,62,80
61440,note_on,0,0,5,,,,,,,,4,,,74,80
61440,note_on,5568,0,4,,,,,,,,3,,,50,80
61440,note_on,9408,0,12,,,,,,,,11,,,50,80
61440,note_on,24,0,2,,,,,,,,1,,,74,80
61440,note_on,9408,0,10,,,,,,,,8,,,66,80
61440,note_on,9408,0,13,,,,,,,,12,,,38,80
61440,note_on,38208,0,5,,,,,,,,4,,,62,80
61488,note_on,48,0,10,,,,,,,,8,,,66,0
61500,note_on,12,0,10,,,,,,,,8,,,69,80
61536,note_on,96,0,13,,,,,,,,12,,,38,0
61536,note_on,96,0,11,,,,,,,,10,,,62,0
61536,note_on,96,0,12,,,,,,,,11,,,50,0
61536,note_on,96,0,8,,,,,,,,6,,,62,0
61548,note_on,48,0,10,,,,,,,,8,,,69,0
61560,note_on,24,0,13,,,,,,,,12,,,38,80
61560,note_on,24,0,12,,,,,,,,11,,,50,80
61560,note_on,24,0,11,,,,,,,,10,,,62,80
61560,note_on,12,0,10,,,,,,,,8,,,66,80
61608,note_on,48,0,10,,,,,,,,8,,,66,0
61620,note_on,12,0,10,,,,,,,,8,,,69,80
61632,note_on,192,0,5,,,,,,,,4,,,74,0
61632,note_on,192,0,6,,,,,,,,5,,,50,0
61632,note_on,0,0,5,,,,,,,,4,,,62,0
61656,note_on,96,0,12,,,,,,,,11,,,50,0
61656,note_on,96,0,11,,,,,,,,10,,,62,0
61656,note_on,96,0,13,,,,,,,,12,,,38,0
61668,note_on,48,0,10,,,,,,,,8,,,69,0
61680,note_on,24,0,12,,,,,,,,11,,,50,80
61680,note_on,12,0,10,,,,,,,,8,,,66,80
61680,note_on,24,0,11,,,,,,,,10,,,62,80
61680,note_on,24,0,13,,,,,,,,12,,,38,80
61728,note_on,0,0,4,,,,,,,,3,,,50,0
61728,note_on,288,0,4,,,,,,,,3,,,62,0
61728,note_on,288,0,9,,,,,,,,7,,,74,0
61728,note_on,288,0,2,,,,,,,,1,,,74,0
61728,note_on,288,0,1,,,,,,,,0,,,74,0
61728,note_on,48,0,10,,,,,,,,8,,,66,0
61740,note_on,12,0,10,,,,,,,,8,,,69,80
61776,note_on,96,0,12,,,,,,,,11,,,50,0
61776,note_on,96,0,13,,,,,,,,12,,,38,0
61776,note_on,96,0,11,,,,,,,,10,,,62,0
61788,note_on,48,0,10,,,,,,,,8,,,69,0
61800,note_on,0,0,4,,,,,,,,3,,,54,80
61800,note_on,24,0,13,,,,,,,,12,,,38,80
61800,note_on,24,0,11,,,,,,,,10,,,62,80
61800,note_on,12,0,10,,,,,,,,8,,,66,80
61800,note_on,72,0,2,,,,,,,,1,,,78,80
61800,note_on,72,0,4,,,,,,,,3,,,66,80
61800,note_on,72,0,1,,,,,,,,0,,,78,80
61800,note_on,72,0,9,,,,,,,,7,,,78,80
61800,note_on,24,0,12,,,,,,,,11,,,50,80
61824,note_on,384,0,3,,,,,,,,2,,,54,0
61824,note_on,0,0,3,,,,,,,,2,,,62,0
61848,note_on,48,0,10,,,,,,,,8,,,66,0
61860,note_on,12,0,10,,,,,,,,8,,,69,80
61896,note_on,96,0,9,,,,,,,,7,,,78,0
61896,note_on,96,0,12,,,,,,,,11,,,50,0
61896,note_on,0,0,4,,,,,,,,3,,,66,0
61896,note_on,96,0,13,,,,,,,,12,,,38,0
61896,note_on,96,0,1,,,,,,,,0,,,78,0
61896,note_on,96,0,4,,,,,,,,3,,,54,0
61896,note_on,96,0,11,,,,,,,,10,,,62,0
61896,note_on,96,0,2,,,,,,,,1,,,78,0
61908,note_on,48,0,10,,,,,,,,8,,,69,0
61920,note_on,24,0,2,,,,,,,,1,,,81,80
61920,note_on,24,0,4,,,,,,,,3,,,57,80
61920,note_on,0,0,4,,,,,,,,3,,,69,80
61920,note_on,12,0,10,,,,,,,,8,,,66,80
61920,note_on,24,0,11,,,,,,,,10,,,62,80
61920,note_on,96,0,3,,,,,,,,2,,,62,80
61920,note_on,288,0,6,,,,,,,,5,,,50,80
61920,note_on,24,0,1,,,,,,,,0,,,81,80
61920,note_on,0,0,3,,,,,,,,2,,,66,80
61920,note_on,24,0,9,,,,,,,,7,,,81,80
61920,note_on,288,0,5,,,,,,,,4,,,74,80
61920,note_on,0,0,5,,,,,,,,4,,,62,80
61920,note_on,24,0,13,,,,,,,,12,,,38,80
61920,note_on,24,0,12,,,,,,,,11,,,50,80
61968,note_on,48,0,10,,,,,,,,8,,,66,0
61980,note_on,12,0,10,,,,,,,,8,,,69,80
62016,note_on,96,0,13,,,,,,,,12,,,38,0
62016,note_on,96,0,11,,,,,,,,10,,,62,0
62016,note_on,96,0,12,,,,,,,,11,,,50,0
62028,note_on,48,0,10,,,,,,,,8,,,69,0
62040,note_on,24,0,11,,,,,,,,10,,,62,80
62040,note_on,24,0,13,,,,,,,,12,,,38,80
62040,note_on,12,0,10,,,,,,,,8,,,66,80
62040,note_on,24,0,12,,,,,,,,11,,,50,80
62088,note_on,48,0,10,,,,,,,,8,,,66,0
62100,note_on,12,0,10,,,,,,,,8,,,69,80
62112,note_on,192,0,6,,,,,,,,5,,,50,0
62112,note_on,192,0,5,,,,,,,,4,,,62,0
62112,note_on,0,0,5,,,,,,,,4,,,74,0
62136,note_on,96,0,13,,,,,,,,12,,,38,0
62136,note_on,96,0,12,,,,,,,,11,,,50,0
62136,note_on,96,0,11,,,,,,,,10,,,62,0
62148,note_on,48,0,10,,,,,,,,8,,,69,0
62160,note_on,24,0,11,,,,,,,,10,,,62,80
62160,note_on,24,0,12,,,,,,,,11,,,50,80
62160,note_on,24,0,13,,,,,,,,12,,,38,80
62160,note_on,12,0,10,,,,,,,,8,,,66,80
62208,note_on,288,0,2,,,,,,,,1,,,81,0
62208,note_on,288,0,4,,,,,,,,3,,,69,0
62208,note_on,0,0,4,,,,,,,,3,,,57,0
62208,note_on,48,0,10,,,,,,,,8,,,66,0
62208,note_on,288,0,1,,,,,,,,0,,,81,0
62208,note_on,288,0,9,,,,,,,,7,,,81,0
62220,note_on,12,0,10,,,,,,,,8,,,69,80
62256,note_on,96,0,13,,,,,,,,12,,,38,0
62256,note_on,96,0,11,,,,,,,,10,,,62,0
62256,note_on,96,0,12,,,,,,,,11,,,50,0
62268,note_on,48,0,10,,,,,,,,8,,,69,0
62280,note_on,0,0,4,,,,,,,,3,,,54,80
62280,note_on,72,0,4,,,,,,,,3,,,66,80
62280,note_on,24,0,12,,,,,,,,11,,,50,80
62280,note_on,24,0,13,,,,,,,,12,,,38,80
62280,note_on,12,0,10,,,,,,,,8,,,66,80
62280,note_on,72,0,2,,,,,,,,1,,,78,80
62280,note_on,24,0,11,,,,,,,,10,,,62,80
62280,note_on,72,0,1,,,,,,,,0,,,78,80
62280,note_on,72,0,9,,,,,,,,7,,,78,80
62304,note_on,0,0,3,,,,,,,,2,,,62,0
62304,note_on,384,0,3,,,,,,,,2,,,66,0
62328,note_on,48,0,10,,,,,,,,8,,,66,0
62340,note_on,12,0,10,,,,,,,,8,,,69,80
62376,note_on,96,0,9,,,,,,,,7,,,78,0
62376,note_on,96,0,13,,,,,,,,12,,,38,0
62376,note_on,96,0,11,,,,,,,,10,,,62,0
62376,note_on,96,0,2,,,,,,,,1,,,78,0
62376,note_on,0,0,4,,,,,,,,3,,,66,0
62376,note_on,96,0,4,,,,,,,,3,,,54,0
62376,note_on,96,0,1,,,,,,,,0,,,78,0
62376,note_on,96,0,12,,,,,,,,11,,,50,0
62388,note_on,48,0,10,,,,,,,,8,,,69,0
62400,note_on,24,0,4,,,,,,,,3,,,57,80
62400,note_on,24,0,13,,,,,,,,12,,,33,80
62400,note_on,24,0,11,,,,,,,,10,,,61,80
62400,note_on,0,0,4,,,,,,,,3,,,64,80
62400,note_on,12,0,10,,,,,,,,8,,,67,80
62400,note_on,24,0,12,,,,,,,,11,,,45,80
62400,note_on,288,0,5,,,,,,,,4,,,69,80
62400,note_on,288,0,6,,,,,,,,5,,,45,80
62400,note_on,24,0,2,,,,,,,,1,,,76,80
62400,note_on,0,0,3,,,,,,,,2,,,64,80
62400,note_on,96,0,3,,,,,,,,2,,,67,80
62400,note_on,24,0,9,,,,,,,,7,,,76,80
62400,note_on,24,0,1,,,,,,,,0,,,76,80
62448,note_on,48,0,10,,,,,,,,8,,,67,0
62460,note_on,12,0,10,,,,,,,,8,,,69,80
62496,note_on,96,0,2,,,,,,,,1,,,76,0
62496,note_on,96,0,13,,,,,,,,12,,,33,0
62496,note_on,0,0,4,,,,,,,,3,,,57,0
62496,note_on,96,0,6,,,,,,,,5,,,45,0
62496,note_on,96,0,9,,,,,,,,7,,,76,0
62496,note_on,96,0,3,,,,,,,,2,,,64,0
62496,note_on,96,0,1,,,,,,,,0,,,76,0
62496,note_on,0,0,3,,,,,,,,2,,,67,0
62496,note_on,96,0,11,,,,,,,,10,,,61,0
62496,note_on,96,0,12,,,,,,,,11,,,45,0
62496,note_on,96,0,4,,,,,,,,3,,,64,0
62496,note_on,96,0,5,,,,,,,,4,,,69,0
62508,note_on,48,0,10,,,,,,,,8,,,69,0
62520,note_on,12,0,10,,,,,,,,8,,,67,80
62520,note_on,24,0,9,,,,,,,,7,,,76,80
62520,note_on,24,0,11,,,,,,,,10,,,61,80
62520,note_on,24,0,12,,,,,,,,11,,,57,80
62520,note_on,24,0,5,,,,,,,,4,,,69,80
62520,note_on,24,0,1,,,,,,,,0,,,76,80
62520,note_on,0,0,4,,,,,,,,3,,,64,80
62520,note_on,24,0,4,,,,,,,,3,,,57,80
62520,note_on,24,0,2,,,,,,,,1,,,76,80
62520,note_on,24,0,13,,,,,,,,12,,,45,80
62520,note_on,0,0,3,,,,,,,,2,,,67,80
62520,note_on,24,0,3,,,,,,,,2,,,64,80
62520,note_on,24,0,6,,,,,,,,5,,,45,80
62568,note_on,48,0,10,,,,,,,,8,,,67,0
62580,note_on,12,0,10,,,,,,,,8,,,69,80
62616,note_on,96,0,9,,,,,,,,7,,,76,0
62616,note_on,96,0,4,,,,,,,,3,,,64,0
62616,note_on,0,0,4,,,,,,,,3,,,57,0
62616,note_on,0,0,3,,,,,,,,2,,,64,0
62616,note_on,96,0,3,,,,,,,,2,,,67,0
62616,note_on,96,0,2,,,,,,,,1,,,76,0
62616,note_on,96,0,13,,,,,,,,12,,,45,0
62616,note_on,96,0,6,,,,,,,,5,,,45,0
62616,note_on,96,0,5,,,,,,,,4,,,69,0
62616,note_on,96,0,1,,,,,,,,0,,,76,0
62616,note_on,96,0,12,,,,,,,,11,,,57,0
62616,note_on,96,0,11,,,,,,,,10,,,61,0
62628,note_on,48,0,10,,,,,,,,8,,,69,0
62640,note_on,0,0,4,,,,,,,,3,,,57,80
62640,note_on,24,0,4,,,,,,,,3,,,64,80
62640,note_on,24,0,2,,,,,,,,1,,,78,80
62640,note_on,24,0,13,,,,,,,,12,,,33,80
62640,note_on,24,0,1,,,,,,,,0,,,78,80
62640,note_on,24,0,5,,,,,,,,4,,,69,80
62640,note_on,12,0,10,,,,,,,,8,,,67,80
62640,note_on,24,0,9,,,,,,,,7,,,78,80
62640,note_on,24,0,12,,,,,,,,11,,,45,80
62640,note_on,24,0,6,,,,,,,,5,,,45,80
62640,note_on,24,0,3,,,,,,,,2,,,67,80
62640,note_on,24,0,11,,,,,,,,10,,,61,80
62640,note_on,0,0,3,,,,,,,,2,,,64,80
62688,note_on,48,0,1,,,,,,,,0,,,78,0
62688,note_on,48,0,9,,,,,,,,7,,,78,0
62688,note_on,48,0,10,,,,,,,,8,,,67,0
62688,note_on,48,0,2,,,,,,,,1,,,78,0
62700,note_on,12,0,9,,,,,,,,7,,,76,80
62700,note_on,12,0,10,,,,,,,,8,,,69,80
62700,note_on,12,0,1,,,,,,,,0,,,76,80
62700,note_on,12,0,2,,,,,,,,1,,,76,80
62736,note_on,96,0,13,,,,,,,,12,,,33,0
62736,note_on,96,0,12,,,,,,,,11,,,45,0
62736,note_on,96,0,11,,,,,,,,10,,,61,0
62748,note_on,48,0,1,,,,,,,,0,,,76,0
62748,note_on,48,0,10,,,,,,,,8,,,69,0
62748,note_on,48,0,9,,,,,,,,7,,,76,0
62748,note_on,48,0,2,,,,,,,,1,,,76,0
62760,note_on,12,0,10,,,,,,,,8,,,67,80
62760,note_on,24,0,12,,,,,,,,11,,,57,80
62760,note_on,12,0,9,,,,,,,,7,,,75,80
62760,note_on,24,0,11,,,,,,,,10,,,61,80
62760,note_on,12,0,2,,,,,,,,1,,,75,80
62760,note_on,12,0,1,,,,,,,,0,,,75,80
62760,note_on,24,0,13,,,,,,,,12,,,45,80
62808,note_on,48,0,1,,,,,,,,0,,,75,0
62808,note_on,48,0,10,,,,,,,,8,,,67,0
62808,note_on,48,0,2,,,,,,,,1,,,75,0
62808,note_on,48,0,9,,,,,,,,7,,,75,0
62820,note_on,12,0,9,,,,,,,,7,,,76,80
62820,note_on,12,0,2,,,,,,,,1,,,76,80
62820,note_on,12,0,1,,,,,,,,0,,,76,80
62820,note_on,12,0,10,,,,,,,,8,,,69,80
62832,note_on,192,0,3,,,,,,,,2,,,64,0
62832,note_on,0,0,3,,,,,,,,2,,,67,0
62832,note_on,192,0,6,,,,,,,,5,,,45,0
62832,note_on,0,0,4,,,,,,,,3,,,64,0
62832,note_on,192,0,4,,,,,,,,3,,,57,0
62832,note_on,192,0,5,,,,,,,,4,,,69,0
62856,note_on,96,0,13,,,,,,,,12,,,45,0
62856,note_on,96,0,11,,,,,,,,10,,,61,0
62856,note_on,96,0,12,,,,,,,,11,,,57,0
62868,note_on,48,0,2,,,,,,,,1,,,76,0
62868,note_on,48,0,10,,,,,,,,8,,,69,0
62868,note_on,48,0,9,,,,,,,,7,,,76,0
62868,note_on,48,0,1,,,,,,,,0,,,76,0
62880,note_on,12,0,2,,,,,,,,1,,,73,80
62880,note_on,48,0,5,,,,,,,,4,,,69,80
62880,note_on,12,0,9,,,,,,,,7,,,73,80
62880,note_on,24,0,12,,,,,,,,11,,,45,80
62880,note_on,0,0,3,,,,,,,,2,,,64,80
62880,note_on,12,0,1,,,,,,,,0,,,73,80
62880,note_on,12,0,10,,,,,,,,8,,,67,80
62880,note_on,48,0,6,,,,,,,,5,,,45,80
62880,note_on,48,0,3,,,,,,,,2,,,61,80
62880,note_on,0,0,4,,,,,,,,3,,,57,80
62880,note_on,48,0,4,,,,,,,,3,,,45,80
62880,note_on,24,0,13,,,,,,,,12,,,33,80
62880,note_on,24,0,11,,,,,,,,10,,,64,80
62928,note_on,48,0,10,,,,,,,,8,,,67,0
62940,note_on,12,0,10,,,,,,,,8,,,69,80
62976,note_on,96,0,5,,,,,,,,4,,,69,0
62976,note_on,96,0,6,,,,,,,,5,,,45,0
62976,note_on,96,0,4,,,,,,,,3,,,57,0
62976,note_on,0,0,4,,,,,,,,3,,,45,0
62976,note_on,96,0,12,,,,,,,,11,,,45,0
62976,note_on,96,0,13,,,,,,,,12,,,33,0
62976,note_on,96,0,2,,,,,,,,1,,,73,0
62976,note_on,96,0,11,,,,,,,,10,,,64,0
62976,note_on,96,0,9,,,,,,,,7,,,73,0
62976,note_on,96,0,3,,,,,,,,2,,,64,0
62976,note_on,0,0,3,,,,,,,,2,,,61,0
62976,note_on,96,0,1,,,,,,,,0,,,73,0
62988,note_on,48,0,10,,,,,,,,8,,,69,0
63000,note_on,24,0,1,,,,,,,,0,,,73,80
63000,note_on,12,0,10,,,,,,,,8,,,67,80
63000,note_on,0,0,3,,,,,,,,2,,,64,80
63000,note_on,24,0,3,,,,,,,,2,,,61,80
63000,note_on,24,0,13,,,,,,,,12,,,45,80
63000,note_on,24,0,11,,,,,,,,10,,,64,80
63000,note_on,24,0,6,,,,,,,,5,,,45,80
63000,note_on,24,0,2,,,,,,,,1,,,73,80
63000,note_on,24,0,12,,,,,,,,11,,,57,80
63000,note_on,24,0,5,,,,,,,,4,,,69,80
63000,note_on,0,0,4,,,,,,,,3,,,45,80
63000,note_on,24,0,9,,,,,,,,7,,,73,80
63000,note_on,24,0,4,,,,,,,,3,,,57,80
63048,note_on,48,0,10,,,,,,,,8,,,67,0
63060,note_on,12,0,10,,,,,,,,8,,,69,80
63096,note_on,96,0,12,,,,,,,,11,,,57,0
63096,note_on,96,0,11,,,,,,,,10,,,64,0
63096,note_on,96,0,13,,,,,,,,12,,,45,0
63096,note_on,0,0,4,,,,,,,,3,,,57,0
63096,note_on,96,0,4,,,,,,,,3,,,45,0
63096,note_on,96,0,5,,,,,,,,4,,,69,0
63096,note_on,96,0,1,,,,,,,,0,,,73,0
63096,note_on,96,0,3,,,,,,,,2,,,64,0
63096,note_on,96,0,6,,,,,,,,5,,,45,0
63096,note_on,0,0,3,,,,,,,,2,,,61,0
63096,note_on,96,0,9,,,,,,,,7,,,73,0
63096,note_on,96,0,2,,,,,,,,1,,,73,0
63108,note_on,48,0,10,,,,,,,,8,,,69,0
63120,note_on,24,0,2,,,,,,,,1,,,74,80
63120,note_on,24,0,13,,,,,,,,12,,,33,80
63120,note_on,24,0,11,,,,,,,,10,,,64,80
63120,note_on,24,0,1,,,,,,,,0,,,74,80
63120,note_on,12,0,10,,,,,,,,8,,,67,80
63120,note_on,24,0,12,,,,,,,,11,,,45,80
63120,note_on,24,0,6,,,,,,,,5,,,45,80
63120,note_on,24,0,4,,,,,,,,3,,,57,80
63120,note_on,24,0,3,,,,,,,,2,,,64,80
63120,note_on,0,0,3,,,,,,,,2,,,61,80
63120,note_on,24,0,9,,,,,,,,7,,,74,80
63120,note_on,24,0,5,,,,,,,,4,,,69,80
63120,note_on,0,0,4,,,,,,,,3,,,45,80
63168,note_on,48,0,10,,,,,,,,8,,,67,0
63168,note_on,48,0,9,,,,,,,,7,,,74,0
63168,note_on,48,0,1,,,,,,,,0,,,74,0
63168,note_on,48,0,2,,,,,,,,1,,,74,0
63180,note_on,12,0,9,,,,,,,,7,,,73,80
63180,note_on,12,0,1,,,,,,,,0,,,73,80
63180,note_on,12,0,2,,,,,,,,1,,,73,80
63180,note_on,12,0,10,,,,,,,,8,,,69,80
63216,note_on,96,0,11,,,,,,,,10,,,64,0
63216,note_on,96,0,13,,,,,,,,12,,,33,0
63216,note_on,96,0,12,,,,,,,,11,,,45,0
63228,note_on,48,0,1,,,,,,,,0,,,73,0
63228,note_on,48,0,9,,,,,,,,7,,,73,0
63228,note_on,48,0,2,,,,,,,,1,,,73,0
63228,note_on,48,0,10,,,,,,,,8,,,69,0
63240,note_on,12,0,10,,,,,,,,8,,,67,80
63240,note_on,24,0,11,,,,,,,,10,,,64,80
63240,note_on,12,0,9,,,,,,,,7,,,71,80
63240,note_on,24,0,12,,,,,,,,11,,,57,80
63240,note_on,12,0,2,,,,,,,,1,,,71,80
63240,note_on,12,0,1,,,,,,,,0,,,71,80
63240,note_on,24,0,13,,,,,,,,12,,,45,80
63288,note_on,48,0,2,,,,,,,,1,,,71,0
63288,note_on,48,0,9,,,,,,,,7,,,71,0
63288,note_on,48,0,1,,,,,,,,0,,,71,0
63288,note_on,48,0,10,,,,,,,,8,,,67,0
63300,note_on,12,0,10,,,,,,,,8,,,69,80
63300,note_on,12,0,1,,,,,,,,0,,,73,80
63300,note_on,12,0,9,,,,,,,,7,,,73,80
63300,note_on,12,0,2,,,,,,,,1,,,73,80
63312,note_on,0,0,4,,,,,,,,3,,,57,0
63312,note_on,192,0,3,,,,,,,,2,,,61,0
63312,note_on,192,0,6,,,,,,,,5,,,45,0
63312,note_on,192,0,5,,,,,,,,4,,,69,0
63312,note_on,192,0,4,,,,,,,,3,,,45,0
63312,note_on,0,0,3,,,,,,,,2,,,64,0
63336,note_on,96,0,11,,,,,,,,10,,,64,0
63336,note_on,96,0,12,,,,,,,,11,,,57,0
63336,note_on,96,0,13,,,,,,,,12,,,45,0
63348,note_on,48,0,9,,,,,,,,7,,,73,0
63348,note_on,48,0,10,,,,,,,,8,,,69,0
63348,note_on,48,0,1,,,,,,,,0,,,73,0
63348,note_on,48,0,2,,,,,,,,1,,,73,0
63360,note_on,0,0,4,,,,,,,,3,,,62,80
63360,note_on,48,0,4,,,,,,,,3,,,50,80
63360,note_on,12,0,10,,,,,,,,8,,,66,80
63360,note_on,48,0,5,,,,,,,,4,,,62,80
63360,note_on,24,0,11,,,,,,,,10,,,62,80
63360,note_on,0,0,5,,,,,,,,4,,,74,80
63360,note_on,48,0,6,,,,,,,,5,,,50,80
63360,note_on,12,0,2,,,,,,,,1,,,74,80
63360,note_on,12,0,9,,,,,,,,7,,,74,80
63360,note_on,12,0,1,,,,,,,,0,,,74,80
63360,note_on,24,0,12,,,,,,,,11,,,50,80
63360,note_on,24,0,13,,,,,,,,12,,,38,80
63360,note_on,48,0,3,,,,,,,,2,,,62,80
63360,note_on,0,0,3,,,,,,,,2,,,54,80
63408,note_on,48,0,10,,,,,,,,8,,,66,0
63420,note_on,12,0,10,,,,,,,,8,,,69,80
63456,note_on,96,0,11,,,,,,,,10,,,62,0
63456,note_on,96,0,13,,,,,,,,12,,,38,0
63456,note_on,0,0,5,,,,,,,,4,,,62,0
63456,note_on,96,0,12,,,,,,,,11,,,50,0
63456,note_on,96,0,1,,,,,,,,0,,,74,0
63456,note_on,0,0,4,,,,,,,,3,,,50,0
63456,note_on,96,0,4,,,,,,,,3,,,62,0
63456,note_on,96,0,9,,,,,,,,7,,,74,0
63456,note_on,96,0,2,,,,,,,,1,,,74,0
63456,note_on,96,0,5,,,,,,,,4,,,74,0
63468,note_on,48,0,10,,,,,,,,8,,,69,0
63480,note_on,24,0,9,,,,,,,,7,,,74,80
63480,note_on,24,0,2,,,,,,,,1,,,74,80
63480,note_on,24,0,4,,,,,,,,3,,,50,80
63480,note_on,24,0,1,,,,,,,,0,,,74,80
63480,note_on,0,0,4,,,,,,,,3,,,62,80
63480,note_on,24,0,11,,,,,,,,10,,,57,80
63480,note_on,12,0,10,,,,,,,,8,,,66,80
63480,note_on,24,0,13,,,,,,,,12,,,38,80
63480,note_on,24,0,5,,,,,,,,4,,,62,80
63480,note_on,0,0,5,,,,,,,,4,,,74,80
63480,note_on,24,0,12,,,,,,,,11,,,50,80
63528,note_on,48,0,10,,,,,,,,8,,,66,0
63540,note_on,12,0,10,,,,,,,,8,,,69,80
63552,note_on,192,0,6,,,,,,,,5,,,50,0
63576,note_on,96,0,13,,,,,,,,12,,,38,0
63576,note_on,96,0,12,,,,,,,,11,,,50,0
63576,note_on,0,0,5,,,,,,,,4,,,62,0
63576,note_on,96,0,5,,,,,,,,4,,,74,0
63588,note_on,48,0,10,,,,,,,,8,,,69,0
63600,note_on,0,0,5,,,,,,,,4,,,74,80
63600,note_on,24,0,12,,,,,,,,11,,,50,80
63600,note_on,12,0,10,,,,,,,,8,,,66,80
63600,note_on,24,0,13,,,,,,,,12,,,38,80
63600,note_on,24,0,5,,,,,,,,4,,,62,80
63648,note_on,48,0,10,,,,,,,,8,,,66,0
63660,note_on,12,0,10,,,,,,,,8,,,69,80
63672,note_on,0,0,4,,,,,,,,3,,,50,0
63672,note_on,192,0,2,,,,,,,,1,,,74,0
63672,note_on,192,0,4,,,,,,,,3,,,62,0
63672,note_on,192,0,9,,,,,,,,7,,,74,0
63672,note_on,192,0,1,,,,,,,,0,,,74,0
63672,note_on,192,0,11,,,,,,,,10,,,57,0
63696,note_on,96,0,12,,,,,,,,11,,,50,0
63696,note_on,96,0,13,,,,,,,,12,,,38,0
63708,note_on,48,0,10,,,,,,,,8,,,69,0
63720,note_on,24,0,13,,,,,,,,12,,,38,80
63720,note_on,12,0,10,,,,,,,,8,,,66,80
63720,note_on,48,0,2,,,,,,,,1,,,78,80
63720,note_on,24,0,12,,,,,,,,11,,,50,80
63720,note_on,48,0,11,,,,,,,,10,,,62,80
63720,note_on,48,0,4,,,,,,,,3,,,54,80
63720,note_on,0,0,4,,,,,,,,3,,,66,80
63720,note_on,48,0,1,,,,,,,,0,,,78,80
63720,note_on,48,0,9,,,,,,,,7,,,78,80
63744,note_on,0,0,3,,,,,,,,2,,,62,0
63744,note_on,384,0,3,,,,,,,,2,,,54,0
63768,note_on,48,0,10,,,,,,,,8,,,66,0
63780,note_on,12,0,10,,,,,,,,8,,,69,80
63792,note_on,192,0,5,,,,,,,,4,,,74,0
63792,note_on,0,0,5,,,,,,,,4,,,62,0
63816,note_on,96,0,12,,,,,,,,11,,,50,0
63816,note_on,96,0,9,,,,,,,,7,,,78,0
63816,note_on,96,0,2,,,,,,,,1,,,78,0
63816,note_on,96,0,11,,,,,,,,10,,,62,0
63816,note_on,96,0,4,,,,,,,,3,,,66,0
63816,note_on,0,0,4,,,,,,,,3,,,54,0
63816,note_on,96,0,1,,,,,,,,0,,,78,0
63816,note_on,96,0,13,,,,,,,,12,,,38,0
63828,note_on,48,0,10,,,,,,,,8,,,69,0
63840,note_on,0,0,3,,,,,,,,2,,,62,80
63840,note_on,24,0,12,,,,,,,,11,,,50,80
63840,note_on,12,0,10,,,,,,,,8,,,62,80
63840,note_on,24,0,1,,,,,,,,0,,,81,80
63840,note_on,96,0,3,,,,,,,,2,,,66,80
63840,note_on,24,0,2,,,,,,,,1,,,81,80
63840,note_on,24,0,13,,,,,,,,12,,,38,80
63840,note_on,0,0,4,,,,,,,,3,,,69,80
63840,note_on,24,0,4,,,,,,,,3,,,57,80
63840,note_on,288,0,6,,,,,,,,5,,,50,80
63840,note_on,24,0,9,,,,,,,,7,,,81,80
63840,note_on,48,0,5,,,,,,,,4,,,62,80
63840,note_on,0,0,5,,,,,,,,4,,,74,80
63840,note_on,24,0,11,,,,,,,,10,,,66,80
63888,note_on,48,0,10,,,,,,,,8,,,62,0
63900,note_on,12,0,10,,,,,,,,8,,,69,80
63936,note_on,96,0,5,,,,,,,,4,,,74,0
63936,note_on,96,0,11,,,,,,,,10,,,66,0
63936,note_on,0,0,5,,,,,,,,4,,,62,0
63936,note_on,96,0,4,,,,,,,,3,,,69,0
63936,note_on,96,0,1,,,,,,,,0,,,81,0
63936,note_on,96,0,12,,,,,,,,11,,,50,0
63936,note_on,96,0,9,,,,,,,,7,,,81,0
63936,note_on,96,0,13,,,,,,,,12,,,38,0
63936,note_on,96,0,2,,,,,,,,1,,,81,0
63936,note_on,0,0,4,,,,,,,,3,,,57,0
63948,note_on,48,0,10,,,,,,,,8,,,69,0
63960,note_on,12,0,10,,,,,,,,8,,,62,80
63960,note_on,24,0,2,,,,,,,,1,,,81,80
63960,note_on,24,0,1,,,,,,,,0,,,81,80
63960,note_on,24,0,13,,,,,,,,12,,,38,80
63960,note_on,24,0,5,,,,,,,,4,,,62,80
63960,note_on,24,0,4,,,,,,,,3,,,69,80
63960,note_on,24,0,9,,,,,,,,7,,,81,80
63960,note_on,24,0,11,,,,,,,,10,,,66,80
63960,note_on,0,0,5,,,,,,,,4,,,74,80
63960,note_on,24,0,12,,,,,,,,11,,,50,80
63960,note_on,0,0,4,,,,,,,,3,,,57,80
64008,note_on,48,0,10,,,,,,,,8,,,62,0
64020,note_on,12,0,10,,,,,,,,8,,,69,80
64032,note_on,192,0,6,,,,,,,,5,,,50,0
64056,note_on,0,0,5,,,,,,,,4,,,62,0
64056,note_on,96,0,5,,,,,,,,4,,,74,0
64056,note_on,96,0,13,,,,,,,,12,,,38,0
64056,note_on,96,0,12,,,,,,,,11,,,50,0
64068,note_on,48,0,10,,,,,,,,8,,,69,0
64080,note_on,24,0,12,,,,,,,,11,,,50,80
64080,note_on,24,0,5,,,,,,,,4,,,74,80
64080,note_on,0,0,5,,,,,,,,4,,,62,80
64080,note_on,12,0,10,,,,,,,,8,,,62,80
64080,note_on,24,0,13,,,,,,,,12,,,38,80
64128,note_on,48,0,10,,,,,,,,8,,,62,0
64140,note_on,12,0,10,,,,,,,,8,,,69,80
64152,note_on,192,0,11,,,,,,,,10,,,66,0
64152,note_on,192,0,1,,,,,,,,0,,,81,0
64152,note_on,192,0,9,,,,,,,,7,,,81,0
64152,note_on,192,0,2,,,,,,,,1,,,81,0
64152,note_on,192,0,4,,,,,,,,3,,,57,0
64152,note_on,0,0,4,,,,,,,,3,,,69,0
64176,note_on,96,0,13,,,,,,,,12,,,38,0
64176,note_on,96,0,12,,,,,,,,11,,,50,0
64188,note_on,48,0,10,,,,,,,,8,,,69,0
64200,note_on,12,0,10,,,,,,,,8,,,62,80
64200,note_on,24,0,13,,,,,,,,12,,,38,80
64200,note_on,24,0,12,,,,,,,,11,,,50,80
64200,note_on,48,0,2,,,,,,,,1,,,78,80
64200,note_on,48,0,11,,,,,,,,10,,,69,80
64200,note_on,48,0,9,,,,,,,,7,,,78,80
64200,note_on,48,0,4,,,,,,,,3,,,66,80
64200,note_on,48,0,1,,,,,,,,0,,,78,80
64200,note_on,0,0,4,,,,,,,,3,,,62,80
64224,note_on,0,0,3,,,,,,,,2,,,66,0
64224,note_on,384,0,3,,,,,,,,2,,,62,0
64248,note_on,48,0,10,,,,,,,,8,,,62,0
64260,note_on,12,0,10,,,,,,,,8,,,69,80
64272,note_on,0,0,5,,,,,,,,4,,,74,0
64272,note_on,192,0,5,,,,,,,,4,,,62,0
64296,note_on,0,0,4,,,,,,,,3,,,66,0
64296,note_on,96,0,4,,,,,,,,3,,,62,0
64296,note_on,96,0,13,,,,,,,,12,,,38,0
64296,note_on,96,0,12,,,,,,,,11,,,50,0
64296,note_on,96,0,11,,,,,,,,10,,,69,0
64296,note_on,96,0,1,,,,,,,,0,,,78,0
64296,note_on,96,0,9,,,,,,,,7,,,78,0
64296,note_on,96,0,2,,,,,,,,1,,,78,0
64308,note_on,48,0,10,,,,,,,,8,,,69,0
64320,note_on,24,0,12,,,,,,,,11,,,52,80
64320,note_on,24,0,13,,,,,,,,12,,,40,80
64320,note_on,48,0,5,,,,,,,,4,,,76,80
64320,note_on,24,0,2,,,,,,,,1,,,76,80
64320,note_on,24,0,9,,,,,,,,7,,,76,80
64320,note_on,96,0,3,,,,,,,,2,,,61,80
64320,note_on,0,0,3,,,,,,,,2,,,64,80
64320,note_on,24,0,4,,,,,,,,3,,,64,80
64320,note_on,24,0,11,,,,,,,,10,,,64,80
64320,note_on,12,0,10,,,,,,,,8,,,61,80
64320,note_on,24,0,1,,,,,,,,0,,,76,80
64368,note_on,48,0,10,,,,,,,,8,,,61,0
64380,note_on,12,0,10,,,,,,,,8,,,64,80
64416,note_on,96,0,12,,,,,,,,11,,,52,0
64416,note_on,96,0,9,,,,,,,,7,,,76,0
64416,note_on,96,0,13,,,,,,,,12,,,40,0
64416,note_on,96,0,2,,,,,,,,1,,,76,0
64416,note_on,96,0,11,,,,,,,,10,,,64,0
64416,note_on,96,0,1,,,,,,,,0,,,76,0
64416,note_on,96,0,4,,,,,,,,3,,,64,0
64428,note_on,48,0,10,,,,,,,,8,,,64,0
64440,note_on,24,0,4,,,,,,,,3,,,64,80
64440,note_on,24,0,9,,,,,,,,7,,,81,80
64440,note_on,24,0,1,,,,,,,,0,,,81,80
64440,note_on,24,0,11,,,,,,,,10,,,64,80
64440,note_on,24,0,13,,,,,,,,12,,,40,80
64440,note_on,24,0,12,,,,,,,,11,,,52,80
64440,note_on,12,0,10,,,,,,,,8,,,61,80
64440,note_on,24,0,2,,,,,,,,1,,,81,80
64488,note_on,48,0,10,,,,,,,,8,,,61,0
64500,note_on,12,0,10,,,,,,,,8,,,64,80
64536,note_on,96,0,11,,,,,,,,10,,,64,0
64536,note_on,96,0,13,,,,,,,,12,,,40,0
64536,note_on,96,0,4,,,,,,,,3,,,64,0
64536,note_on,96,0,12,,,,,,,,11,,,52,0
64548,note_on,48,0,10,,,,,,,,8,,,64,0
64560,note_on,24,0,13,,,,,,,,12,,,40,80
64560,note_on,24,0,12,,,,,,,,11,,,52,80
64560,note_on,12,0,10,,,,,,,,8,,,61,80
64560,note_on,24,0,4,,,,,,,,3,,,64,80
64560,note_on,24,0,11,,,,,,,,10,,,64,80
64608,note_on,288,0,3,,,,,,,,2,,,64,0
64608,note_on,0,0,3,,,,,,,,2,,,61,0
64608,note_on,48,0,10,,,,,,,,8,,,61,0
64620,note_on,12,0,10,,,,,,,,8,,,64,80
64632,note_on,192,0,1,,,,,,,,0,,,81,0
64632,note_on,192,0,9,,,,,,,,7,,,81,0
64632,note_on,192,0,2,,,,,,,,1,,,81,0
64656,note_on,96,0,12,,,,,,,,11,,,52,0
64656,note_on,96,0,13,,,,,,,,12,,,40,0
64656,note_on,96,0,11,,,,,,,,10,,,64,0
64656,note_on,96,0,4,,,,,,,,3,,,64,0
64668,note_on,48,0,10,,,,,,,,8,,,64,0
64680,note_on,24,0,11,,,,,,,,10,,,64,80
64680,note_on,24,0,13,,,,,,,,12,,,40,80
64680,note_on,12,0,10,,,,,,,,8,,,62,80
64680,note_on,24,0,12,,,,,,,,11,,,52,80
64680,note_on,24,0,4,,,,,,,,3,,,64,80
64680,note_on,48,0,1,,,,,,,,0,,,83,80
64680,note_on,0,0,3,,,,,,,,2,,,59,80
64680,note_on,72,0,3,,,,,,,,2,,,62,80
64680,note_on,48,0,2,,,,,,,,1,,,83,80
64680,note_on,48,0,9,,,,,,,,7,,,83,80
64704,note_on,384,0,5,,,,,,,,4,,,76,0
64728,note_on,48,0,1,,,,,,,,0,,,83,0
64728,note_on,48,0,10,,,,,,,,8,,,62,0
64728,note_on,48,0,2,,,,,,,,1,,,83,0
64728,note_on,48,0,9,,,,,,,,7,,,83,0
64740,note_on,12,0,9,,,,,,,,7,,,80,80
64740,note_on,12,0,2,,,,,,,,1,,,80,80
64740,note_on,12,0,1,,,,,,,,0,,,80,80
64740,note_on,12,0,10,,,,,,,,8,,,59,80
64776,note_on,96,0,4,,,,,,,,3,,,64,0
64776,note_on,96,0,13,,,,,,,,12,,,40,0
64776,note_on,0,0,3,,,,,,,,2,,,62,0
64776,note_on,96,0,11,,,,,,,,10,,,64,0
64776,note_on,96,0,12,,,,,,,,11,,,52,0
64776,note_on,96,0,3,,,,,,,,2,,,59,0
64788,note_on,48,0,2,,,,,,,,1,,,80,0
64788,note_on,48,0,10,,,,,,,,8,,,59,0
64788,note_on,48,0,1,,,,,,,,0,,,80,0
64788,note_on,48,0,9,,,,,,,,7,,,80,0
64800,note_on,768,0,6,,,,,,,,5,,,45,80
64800,note_on,12,0,1,,,,,,,,0,,,81,80
64800,note_on,24,0,13,,,,,,,,12,,,45,80
64800,note_on,12,0,2,,,,,,,,1,,,81,80
64800,note_on,12,0,10,,,,,,,,8,,,61,80
64800,note_on,24,0,12,,,,,,,,11,,,57,80
64800,note_on,0,0,3,,,,,,,,2,,,61,80
64800,note_on,96,0,5,,,,,,,,4,,,69,80
64800,note_on,0,0,5,,,,,,,,4,,,76,80
64800,note_on,24,0,11,,,,,,,,10,,,64,80
64800,note_on,24,0,3,,,,,,,,2,,,57,80
64800,note_on,0,0,4,,,,,,,,3,,,64,80
64800,note_on,24,0,4,,,,,,,,3,,,57,80
64800,note_on,12,0,9,,,,,,,,7,,,81,80
64896,note_on,96,0,13,,,,,,,,12,,,45,0
64896,note_on,96,0,12,,,,,,,,11,,,57,0
64920,note_on,24,0,12,,,,,,,,11,,,52,80
64920,note_on,24,0,13,,,,,,,,12,,,40,80
64992,note_on,192,0,2,,,,,,,,1,,,81,0
64992,note_on,192,0,5,,,,,,,,4,,,76,0
64992,note_on,0,0,5,,,,,,,,4,,,69,0
64992,note_on,192,0,10,,,,,,,,8,,,61,0
64992,note_on,192,0,6,,,,,,,,5,,,45,0
64992,note_on,192,0,3,,,,,,,,2,,,61,0
64992,note_on,0,0,3,,,,,,,,2,,,57,0
64992,note_on,192,0,11,,,,,,,,10,,,64,0
64992,note_on,192,0,9,,,,,,,,7,,,81,0
64992,note_on,0,0,4,,,,,,,,3,,,57,0
64992,note_on,192,0,4,,,,,,,,3,,,64,0
64992,note_on,192,0,1,,,,,,,,0,,,81,0
65016,note_on,96,0,13,,,,,,,,12,,,40,0
65016,note_on,96,0,12,,,,,,,,11,,,52,0
65040,note_on,24,0,12,,,,,,,,11,,,45,80
65040,note_on,24,0,13,,,,,,,,12,,,33,80
65136,note_on,96,0,12,,,,,,,,11,,,45,0
65136,note_on,96,0,13,,,,,,,,12,,,33,0
65160,note_on,4008,0,7,,,,,,,,6,,,69,80
65256,note_on,96,0,7,,,,,,,,6,,,69,0
65280,note_on,24,0,7,,,,,,,,6,,,81,80
65280,note_on,3744,0,8,,,,,,,,6,,,54,80
65376,note_on,96,0,7,,,,,,,,6,,,81,0
65400,note_on,24,0,7,,,,,,,,6,,,83,80
65448,note_on,48,0,7,,,,,,,,6,,,83,0
65460,note_on,12,0,7,,,,,,,,6,,,85,80
65472,note_on,192,0,8,,,,,,,,6,,,54,0
65508,note_on,48,0,7,,,,,,,,6,,,85,0
65520,note_on,12,0,7,,,,,,,,6,,,86,80
65568,note_on,48,0,7,,,,,,,,6,,,86,0
65580,note_on,12,0,7,,,,,,,,6,,,85,80
65628,note_on,48,0,7,,,,,,,,6,,,85,0
65640,note_on,12,0,7,,,,,,,,6,,,83,80
65688,note_on,48,0,7,,,,,,,,6,,,83,0
65700,note_on,12,0,7,,,,,,,,6,,,81,80
65748,note_on,48,0,7,,,,,,,,6,,,81,0
65760,note_on,12,0,7,,,,,,,,6,,,79,80
65760,note_on,288,0,8,,,,,,,,6,,,52,80
65808,note_on,48,0,7,,,,,,,,6,,,79,0
65820,note_on,12,0,7,,,,,,,,6,,,78,80
65868,note_on,48,0,7,,,,,,,,6,,,78,0
65880,note_on,12,0,7,,,,,,,,6,,,76,80
65928,note_on,48,0,7,,,,,,,,6,,,76,0
65940,note_on,12,0,7,,,,,,,,6,,,74,80
65952,note_on,192,0,8,,,,,,,,6,,,52,0
65988,note_on,48,0,7,,,,,,,,6,,,74,0
66000,note_on,12,0,7,,,,,,,,6,,,73,80
66048,note_on,48,0,7,,,,,,,,6,,,73,0
66060,note_on,12,0,7,,,,,,,,6,,,71,80
66108,note_on,48,0,7,,,,,,,,6,,,71,0
66120,note_on,12,0,7,,,,,,,,6,,,69,80
66168,note_on,48,0,7,,,,,,,,6,,,69,0
66180,note_on,12,0,7,,,,,,,,6,,,67,80
66228,note_on,48,0,7,,,,,,,,6,,,67,0
66240,note_on,12,0,7,,,,,,,,6,,,66,80
66240,note_on,288,0,8,,,,,,,,6,,,50,80
66288,note_on,48,0,7,,,,,,,,6,,,66,0
66300,note_on,12,0,7,,,,,,,,6,,,78,80
66348,note_on,48,0,7,,,,,,,,6,,,78,0
66360,note_on,12,0,7,,,,,,,,6,,,79,80
66408,note_on,48,0,7,,,,,,,,6,,,79,0
66420,note_on,12,0,7,,,,,,,,6,,,81,80
66432,note_on,192,0,8,,,,,,,,6,,,50,0
66468,note_on,48,0,7,,,,,,,,6,,,81,0
66480,note_on,12,0,7,,,,,,,,6,,,83,80
66528,note_on,48,0,7,,,,,,,,6,,,83,0
66540,note_on,12,0,7,,,,,,,,6,,,81,80
66588,note_on,48,0,7,,,,,,,,6,,,81,0
66600,note_on,12,0,7,,,,,,,,6,,,79,80
66648,note_on,48,0,7,,,,,,,,6,,,79,0
66660,note_on,12,0,7,,,,,,,,6,,,78,80
66708,note_on,48,0,7,,,,,,,,6,,,78,0
66720,note_on,288,0,8,,,,,,,,6,,,55,80
66720,note_on,12,0,7,,,,,,,,6,,,76,80
66768,note_on,48,0,7,,,,,,,,6,,,76,0
66780,note_on,12,0,7,,,,,,,,6,,,74,80
66828,note_on,48,0,7,,,,,,,,6,,,74,0
66840,note_on,12,0,7,,,,,,,,6,,,73,80
66888,note_on,48,0,7,,,,,,,,6,,,73,0
66900,note_on,12,0,7,,,,,,,,6,,,71,80
66912,note_on,192,0,8,,,,,,,,6,,,55,0
66948,note_on,48,0,7,,,,,,,,6,,,71,0
66960,note_on,12,0,7,,,,,,,,6,,,69,80
67008,note_on,48,0,7,,,,,,,,6,,,69,0
67020,note_on,12,0,7,,,,,,,,6,,,67,80
67068,note_on,48,0,7,,,,,,,,6,,,67,0
67080,note_on,12,0,7,,,,,,,,6,,,66,80
67128,note_on,48,0,7,,,,,,,,6,,,66,0
67140,note_on,12,0,7,,,,,,,,6,,,64,80
67188,note_on,48,0,7,,,,,,,,6,,,64,0
67200,note_on,288,0,8,,,,,,,,6,,,54,80
67200,note_on,12,0,7,,,,,,,,6,,,62,80
67296,note_on,96,0,7,,,,,,,,6,,,62,0
67320,note_on,24,0,7,,,,,,,,6,,,86,80
67416,note_on,96,0,7,,,,,,,,6,,,86,0
67440,note_on,24,0,7,,,,,,,,6,,,85,80
67536,note_on,96,0,7,,,,,,,,6,,,85,0
67560,note_on,24,0,7,,,,,,,,6,,,84,80
67584,note_on,384,0,8,,,,,,,,6,,,54,0
67656,note_on,96,0,7,,,,,,,,6,,,84,0
67680,note_on,24,0,7,,,,,,,,6,,,82,80
67680,note_on,96,0,8,,,,,,,,6,,,55,80
67776,note_on,96,0,7,,,,,,,,6,,,82,0
67800,note_on,120,0,8,,,,,,,,6,,,62,80
67800,note_on,24,0,7,,,,,,,,6,,,83,80
67896,note_on,96,0,8,,,,,,,,6,,,62,0
67920,note_on,24,0,8,,,,,,,,6,,,63,80
67992,note_on,192,0,7,,,,,,,,6,,,83,0
68016,note_on,96,0,8,,,,,,,,6,,,63,0
68040,note_on,48,0,7,,,,,,,,6,,,79,80
68040,note_on,24,0,8,,,,,,,,6,,,64,80
68064,note_on,24,0,8,,,,,,,,6,,,55,0
68088,note_on,48,0,7,,,,,,,,6,,,79,0
68100,note_on,12,0,7,,,,,,,,6,,,76,80
68136,note_on,72,0,8,,,,,,,,6,,,64,0
68148,note_on,48,0,7,,,,,,,,6,,,76,0
68160,note_on,12,0,7,,,,,,,,6,,,74,80
68160,note_on,24,0,8,,,,,,,,6,,,67,80
68160,note_on,0,0,8,,,,,,,,6,,,64,80
68160,note_on,0,0,8,,,,,,,,6,,,57,80
68208,note_on,48,0,7,,,,,,,,6,,,74,0
68220,note_on,12,0,7,,,,,,,,6,,,73,80
68268,note_on,48,0,7,,,,,,,,6,,,73,0
68280,note_on,12,0,7,,,,,,,,6,,,79,80
68328,note_on,48,0,7,,,,,,,,6,,,79,0
68340,note_on,12,0,7,,,,,,,,6,,,78,80
68388,note_on,48,0,7,,,,,,,,6,,,78,0
68400,note_on,12,0,7,,,,,,,,6,,,81,80
68448,note_on,48,0,7,,,,,,,,6,,,81,0
68460,note_on,12,0,7,,,,,,,,6,,,79,80
68508,note_on,48,0,7,,,,,,,,6,,,79,0
68520,note_on,12,0,7,,,,,,,,6,,,76,80
68544,note_on,0,0,8,,,,,,,,6,,,64,0
68544,note_on,0,0,8,,,,,,,,6,,,67,0
68544,note_on,384,0,8,,,,,,,,6,,,57,0
68568,note_on,48,0,7,,,,,,,,6,,,76,0
68580,note_on,12,0,7,,,,,,,,6,,,73,80
68628,note_on,48,0,7,,,,,,,,6,,,73,0
68640,note_on,12,0,7,,,,,,,,6,,,74,80
68640,note_on,96,0,8,,,,,,,,6,,,66,80
68640,note_on,0,0,8,,,,,,,,6,,,62,80
68688,note_on,48,0,7,,,,,,,,6,,,74,0
68700,note_on,12,0,7,,,,,,,,6,,,69,80
68748,note_on,48,0,7,,,,,,,,6,,,69,0
68760,note_on,12,0,7,,,,,,,,6,,,71,80
68808,note_on,48,0,7,,,,,,,,6,,,71,0
68820,note_on,12,0,7,,,,,,,,6,,,73,80
68832,note_on,192,0,8,,,,,,,,6,,,62,0
68832,note_on,0,0,8,,,,,,,,6,,,66,0
68868,note_on,48,0,7,,,,,,,,6,,,73,0
68880,note_on,12,0,7,,,,,,,,6,,,74,80
68928,note_on,48,0,7,,,,,,,,6,,,74,0
68940,note_on,12,0,7,,,,,,,,6,,,76,80
68988,note_on,48,0,7,,,,,,,,6,,,76,0
69000,note_on,12,0,7,,,,,,,,6,,,78,80
69048,note_on,48,0,7,,,,,,,,6,,,78,0
69060,note_on,12,0,7,,,,,,,,6,,,79,80
69108,note_on,48,0,7,,,,,,,,6,,,79,0
69120,note_on,4128,0,6,,,,,,,,5,,,45,80
69120,note_on,0,0,3,,,,,,,,2,,,57,80
69120,note_on,4128,0,3,,,,,,,,2,,,66,80
69120,note_on,12,0,7,,,,,,,,6,,,81,80
69120,note_on,4128,0,2,,,,,,,,1,,,81,80
69120,note_on,0,0,2,,,,,,,,1,,,78,80
69120,note_on,4128,0,9,,,,,,,,7,,,81,80
69120,note_on,0,0,4,,,,,,,,3,,,45,80
69120,note_on,4128,0,4,,,,,,,,3,,,57,80
69120,note_on,4128,0,1,,,,,,,,0,,,81,80
69120,note_on,0,0,10,,,,,,,,8,,,81,80
69120,note_on,4128,0,10,,,,,,,,8,,,69,80
69120,note_on,4128,0,5,,,,,,,,4,,,57,80
69120,note_on,0,0,5,,,,,,,,4,,,69,80
69168,note_on,0,0,10,,,,,,,,8,,,69,0
69168,note_on,48,0,10,,,,,,,,8,,,81,0
69180,note_on,12,0,10,,,,,,,,8,,,69,80
69180,note_on,0,0,10,,,,,,,,8,,,81,80
69228,note_on,48,0,10,,,,,,,,8,,,81,0
69228,note_on,0,0,10,,,,,,,,8,,,69,0
69240,note_on,4104,0,12,,,,,,,,11,,,62,80
69240,note_on,4104,0,13,,,,,,,,12,,,50,80
69240,note_on,12,0,10,,,,,,,,8,,,81,80
69240,note_on,4248,0,11,,,,,,,,10,,,62,80
69240,note_on,0,0,10,,,,,,,,8,,,69,80
69288,note_on,48,0,10,,,,,,,,8,,,69,0
69288,note_on,0,0,10,,,,,,,,8,,,81,0
69300,note_on,12,0,10,,,,,,,,8,,,81,80
69300,note_on,0,0,10,,,,,,,,8,,,69,80
69312,note_on,192,0,9,,,,,,,,7,,,81,0
69312,note_on,0,0,5,,,,,,,,4,,,57,0
69312,note_on,192,0,6,,,,,,,,5,,,45,0
69312,note_on,192,0,5,,,,,,,,4,,,69,0
69312,note_on,192,0,7,,,,,,,,6,,,81,0
69312,note_on,192,0,2,,,,,,,,1,,,78,0
69312,note_on,192,0,1,,,,,,,,0,,,81,0
69336,note_on,96,0,13,,,,,,,,12,,,50,0
69336,note_on,96,0,11,,,,,,,,10,,,62,0
69336,note_on,96,0,12,,,,,,,,11,,,62,0
69348,note_on,0,0,10,,,,,,,,8,,,81,0
69348,note_on,48,0,10,,,,,,,,8,,,69,0
69360,note_on,24,0,11,,,,,,,,10,,,66,80
69360,note_on,48,0,1,,,,,,,,0,,,86,80
69360,note_on,24,0,12,,,,,,,,11,,,66,80
69360,note_on,48,0,2,,,,,,,,1,,,74,80
69360,note_on,24,0,13,,,,,,,,12,,,54,80
69360,note_on,0,0,10,,,,,,,,8,,,69,80
69360,note_on,12,0,10,,,,,,,,8,,,81,80
69360,note_on,48,0,9,,,,,,,,7,,,86,80
69408,note_on,48,0,10,,,,,,,,8,,,69,0
69408,note_on,0,0,10,,,,,,,,8,,,81,0
69408,note_on,48,0,1,,,,,,,,0,,,86,0
69408,note_on,48,0,9,,,,,,,,7,,,86,0
69420,note_on,12,0,10,,,,,,,,8,,,81,80
69420,note_on,0,0,10,,,,,,,,8,,,69,80
69420,note_on,12,0,1,,,,,,,,0,,,85,80
69420,note_on,12,0,9,,,,,,,,7,,,85,80
69456,note_on,96,0,11,,,,,,,,10,,,66,0
69456,note_on,96,0,2,,,,,,,,1,,,74,0
69456,note_on,96,0,13,,,,,,,,12,,,54,0
69456,note_on,96,0,12,,,,,,,,11,,,66,0
69468,note_on,48,0,9,,,,,,,,7,,,85,0
69468,note_on,48,0,1,,,,,,,,0,,,85,0
69468,note_on,0,0,10,,,,,,,,8,,,81,0
69468,note_on,48,0,10,,,,,,,,8,,,69,0
69480,note_on,12,0,1,,,,,,,,0,,,83,80
69480,note_on,24,0,12,,,,,,,,11,,,62,80
69480,note_on,24,0,2,,,,,,,,1,,,78,80
69480,note_on,0,0,10,,,,,,,,8,,,69,80
69480,note_on,24,0,13,,,,,,,,12,,,50,80
69480,note_on,12,0,10,,,,,,,,8,,,81,80
69480,note_on,12,0,9,,,,,,,,7,,,83,80
69480,note_on,24,0,11,,,,,,,,10,,,62,80
69504,note_on,24,0,2,,,,,,,,1,,,81,0
69504,note_on,384,0,3,,,,,,,,2,,,66,0
69528,note_on,0,0,10,,,,,,,,8,,,81,0
69528,note_on,48,0,1,,,,,,,,0,,,83,0
69528,note_on,48,0,9,,,,,,,,7,,,83,0
69528,note_on,48,0,10,,,,,,,,8,,,69,0
69540,note_on,12,0,10,,,,,,,,8,,,81,80
69540,note_on,0,0,10,,,,,,,,8,,,69,80
69540,note_on,12,0,9,,,,,,,,7,,,81,80
69540,note_on,12,0,1,,,,,,,,0,,,81,80
69576,note_on,72,0,2,,,,,,,,1,,,78,0
69576,note_on,96,0,11,,,,,,,,10,,,62,0
69576,note_on,96,0,12,,,,,,,,11,,,62,0
69576,note_on,96,0,13,,,,,,,,12,,,50,0
69588,note_on,48,0,9,,,,,,,,7,,,81,0
69588,note_on,48,0,1,,,,,,,,0,,,81,0
69588,note_on,0,0,10,,,,,,,,8,,,81,0
69588,note_on,48,0,10,,,,,,,,8,,,69,0
69600,note_on,12,0,9,,,,,,,,7,,,79,80
69600,note_on,0,0,5,,,,,,,,4,,,69,80
69600,note_on,24,0,11,,,,,,,,10,,,64,80
69600,note_on,0,0,10,,,,,,,,8,,,69,80
69600,note_on,12,0,10,,,,,,,,8,,,81,80
69600,note_on,24,0,13,,,,,,,,12,,,52,80
69600,note_on,288,0,5,,,,,,,,4,,,57,80
69600,note_on,24,0,2,,,,,,,,1,,,73,80
69600,note_on,288,0,6,,,,,,,,5,,,45,80
69600,note_on,24,0,12,,,,,,,,11,,,64,80
69600,note_on,0,0,2,,,,,,,,1,,,79,80
69600,note_on,96,0,3,,,,,,,,2,,,61,80
69600,note_on,12,0,1,,,,,,,,0,,,79,80
69648,note_on,0,0,10,,,,,,,,8,,,81,0
69648,note_on,48,0,10,,,,,,,,8,,,69,0
69660,note_on,0,0,10,,,,,,,,8,,,81,80
69660,note_on,12,0,10,,,,,,,,8,,,69,80
69696,note_on,96,0,9,,,,,,,,7,,,79,0
69696,note_on,96,0,3,,,,,,,,2,,,61,0
69696,note_on,96,0,1,,,,,,,,0,,,79,0
69696,note_on,96,0,13,,,,,,,,12,,,52,0
69696,note_on,96,0,2,,,,,,,,1,,,73,0
69696,note_on,96,0,11,,,,,,,,10,,,64,0
69696,note_on,96,0,12,,,,,,,,11,,,64,0
69708,note_on,48,0,10,,,,,,,,8,,,81,0
69708,note_on,0,0,10,,,,,,,,8,,,69,0
69720,note_on,24,0,11,,,,,,,,10,,,59,80
69720,note_on,24,0,13,,,,,,,,12,,,47,80
69720,note_on,24,0,2,,,,,,,,1,,,74,80
69720,note_on,0,0,10,,,,,,,,8,,,69,80
69720,note_on,12,0,10,,,,,,,,8,,,81,80
69720,note_on,24,0,3,,,,,,,,2,,,62,80
69720,note_on,24,0,12,,,,,,,,11,,,59,80
69720,note_on,24,0,9,,,,,,,,7,,,79,80
69720,note_on,24,0,1,,,,,,,,0,,,79,80
69768,note_on,48,0,10,,,,,,,,8,,,69,0
69768,note_on,0,0,10,,,,,,,,8,,,81,0
69780,note_on,0,0,10,,,,,,,,8,,,81,80
69780,note_on,12,0,10,,,,,,,,8,,,69,80
69792,note_on,192,0,6,,,,,,,,5,,,45,0
69792,note_on,0,0,5,,,,,,,,4,,,57,0
69792,note_on,192,0,5,,,,,,,,4,,,69,0
69816,note_on,96,0,13,,,,,,,,12,,,47,0
69816,note_on,96,0,1,,,,,,,,0,,,79,0
69816,note_on,96,0,2,,,,,,,,1,,,74,0
69816,note_on,96,0,11,,,,,,,,10,,,59,0
69816,note_on,96,0,12,,,,,,,,11,,,59,0
69816,note_on,96,0,3,,,,,,,,2,,,62,0
69816,note_on,96,0,9,,,,,,,,7,,,79,0
69828,note_on,0,0,10,,,,,,,,8,,,69,0
69828,note_on,48,0,10,,,,,,,,8,,,81,0
69840,note_on,0,0,10,,,,,,,,8,,,69,80
69840,note_on,12,0,10,,,,,,,,8,,,81,80
69840,note_on,24,0,12,,,,,,,,11,,,61,80
69840,note_on,24,0,13,,,,,,,,12,,,49,80
69840,note_on,24,0,2,,,,,,,,1,,,76,80
69840,note_on,24,0,3,,,,,,,,2,,,64,80
69840,note_on,24,0,11,,,,,,,,10,,,61,80
69888,note_on,0,0,10,,,,,,,,8,,,81,0
69888,note_on,48,0,10,,,,,,,,8,,,69,0
69900,note_on,0,0,10,,,,,,,,8,,,69,80
69900,note_on,12,0,10,,,,,,,,8,,,81,80
69936,note_on,96,0,12,,,,,,,,11,,,61,0
69936,note_on,96,0,11,,,,,,,,10,,,61,0
69936,note_on,96,0,13,,,,,,,,12,,,49,0
69936,note_on,96,0,2,,,,,,,,1,,,76,0
69936,note_on,96,0,3,,,,,,,,2,,,64,0
69948,note_on,48,0,10,,,,,,,,8,,,69,0
69948,note_on,0,0,10,,,,,,,,8,,,81,0
69960,note_on,24,0,2,,,,,,,,1,,,73,80
69960,note_on,24,0,3,,,,,,,,2,,,61,80
69960,note_on,24,0,12,,,,,,,,11,,,57,80
69960,note_on,144,0,1,,,,,,,,0,,,76,80
69960,note_on,0,0,10,,,,,,,,8,,,69,80
69960,note_on,12,0,10,,,,,,,,8,,,81,80
69960,note_on,144,0,9,,,,,,,,7,,,76,80
69960,note_on,24,0,13,,,,,,,,12,,,45,80
69960,note_on,24,0,11,,,,,,,,10,,,57,80
69984,note_on,24,0,2,,,,,,,,1,,,79,0
70008,note_on,0,0,10,,,,,,,,8,,,81,0
70008,note_on,48,0,10,,,,,,,,8,,,69,0
70020,note_on,0,0,10,,,,,,,,8,,,81,80
70020,note_on,12,0,10,,,,,,,,8,,,69,80
70056,note_on,96,0,12,,,,,,,,11,,,57,0
70056,note_on,96,0,3,,,,,,,,2,,,61,0
70056,note_on,96,0,9,,,,,,,,7,,,76,0
70056,note_on,96,0,11,,,,,,,,10,,,57,0
70056,note_on,96,0,1,,,,,,,,0,,,76,0
70056,note_on,72,0,2,,,,,,,,1,,,73,0
70056,note_on,96,0,13,,,,,,,,12,,,45,0
70068,note_on,48,0,10,,,,,,,,8,,,81,0
70068,note_on,0,0,10,,,,,,,,8,,,69,0
70080,note_on,12,0,10,,,,,,,,8,,,69,80
70080,note_on,24,0,3,,,,,,,,2,,,66,80
70080,note_on,0,0,10,,,,,,,,8,,,81,80
70080,note_on,24,0,9,,,,,,,,7,,,78,80
70080,note_on,24,0,12,,,,,,,,11,,,62,80
70080,note_on,24,0,2,,,,,,,,1,,,78,80
70080,note_on,0,0,2,,,,,,,,1,,,74,80
70080,note_on,24,0,13,,,,,,,,12,,,50,80
70080,note_on,24,0,1,,,,,,,,0,,,78,80
70080,note_on,288,0,5,,,,,,,,4,,,69,80
70080,note_on,0,0,5,,,,,,,,4,,,57,80
70080,note_on,24,0,11,,,,,,,,10,,,62,80
70080,note_on,288,0,6,,,,,,,,5,,,45,80
70128,note_on,0,0,10,,,,,,,,8,,,69,0
70128,note_on,48,0,10,,,,,,,,8,,,81,0
70140,note_on,12,0,10,,,,,,,,8,,,81,80
70140,note_on,0,0,10,,,,,,,,8,,,69,80
70176,note_on,96,0,13,,,,,,,,12,,,50,0
70176,note_on,96,0,11,,,,,,,,10,,,62,0
70176,note_on,96,0,12,,,,,,,,11,,,62,0
70188,note_on,48,0,10,,,,,,,,8,,,69,0
70188,note_on,0,0,10,,,,,,,,8,,,81,0
70200,note_on,12,0,10,,,,,,,,8,,,81,80
70200,note_on,0,0,10,,,,,,,,8,,,69,80
70200,note_on,24,0,13,,,,,,,,12,,,38,80
70200,note_on,24,0,12,,,,,,,,11,,,50,80
70200,note_on,24,0,11,,,,,,,,10,,,62,80
70248,note_on,48,0,10,,,,,,,,8,,,69,0
70248,note_on,0,0,10,,,,,,,,8,,,81,0
70260,note_on,0,0,10,,,,,,,,8,,,69,80
70260,note_on,12,0,10,,,,,,,,8,,,81,80
70272,note_on,192,0,9,,,,,,,,7,,,78,0
70272,note_on,192,0,1,,,,,,,,0,,,78,0
70272,note_on,0,0,5,,,,,,,,4,,,69,0
70272,note_on,192,0,5,,,,,,,,4,,,57,0
70272,note_on,192,0,6,,,,,,,,5,,,45,0
70272,note_on,192,0,3,,,,,,,,2,,,57,0
70272,note_on,192,0,2,,,,,,,,1,,,78,0
70296,note_on,96,0,13,,,,,,,,12,,,38,0
70296,note_on,96,0,12,,,,,,,,11,,,50,0
70296,note_on,96,0,11,,,,,,,,10,,,62,0
70308,note_on,0,0,10,,,,,,,,8,,,81,0
70308,note_on,48,0,10,,,,,,,,8,,,69,0
70320,note_on,24,0,11,,,,,,,,10,,,66,80
70320,note_on,48,0,1,,,,,,,,0,,,83,80
70320,note_on,48,0,2,,,,,,,,1,,,83,80
70320,note_on,24,0,12,,,,,,,,11,,,54,80
70320,note_on,12,0,10,,,,,,,,8,,,69,80
70320,note_on,48,0,3,,,,,,,,2,,,62,80
70320,note_on,24,0,13,,,,,,,,12,,,42,80
70320,note_on,48,0,9,,,,,,,,7,,,83,80
70320,note_on,0,0,10,,,,,,,,8,,,81,80
70368,note_on,48,0,2,,,,,,,,1,,,83,0
70368,note_on,48,0,10,,,,,,,,8,,,81,0
70368,note_on,48,0,9,,,,,,,,7,,,83,0
70368,note_on,0,0,10,,,,,,,,8,,,69,0
70368,note_on,48,0,1,,,,,,,,0,,,83,0
70380,note_on,12,0,1,,,,,,,,0,,,81,80
70380,note_on,12,0,10,,,,,,,,8,,,69,80
70380,note_on,12,0,2,,,,,,,,1,,,81,80
70380,note_on,0,0,10,,,,,,,,8,,,81,80
70380,note_on,12,0,9,,,,,,,,7,,,81,80
70416,note_on,96,0,12,,,,,,,,11,,,54,0
70416,note_on,96,0,13,,,,,,,,12,,,42,0
70416,note_on,96,0,11,,,,,,,,10,,,66,0
70428,note_on,48,0,1,,,,,,,,0,,,81,0
70428,note_on,48,0,2,,,,,,,,1,,,81,0
70428,note_on,48,0,10,,,,,,,,8,,,81,0
70428,note_on,0,0,10,,,,,,,,8,,,69,0
70428,note_on,48,0,9,,,,,,,,7,,,81,0
70440,note_on,0,0,10,,,,,,,,8,,,69,80
70440,note_on,24,0,11,,,,,,,,10,,,67,80
70440,note_on,12,0,2,,,,,,,,1,,,79,80
70440,note_on,12,0,1,,,,,,,,0,,,79,80
70440,note_on,24,0,12,,,,,,,,11,,,55,80
70440,note_on,24,0,13,,,,,,,,12,,,43,80
70440,note_on,12,0,9,,,,,,,,7,,,79,80
70440,note_on,12,0,10,,,,,,,,8,,,81,80
70464,note_on,144,0,3,,,,,,,,2,,,66,0
70464,note_on,24,0,2,,,,,,,,1,,,74,0
70488,note_on,48,0,9,,,,,,,,7,,,79,0
70488,note_on,0,0,10,,,,,,,,8,,,81,0
70488,note_on,48,0,1,,,,,,,,0,,,79,0
70488,note_on,24,0,2,,,,,,,,1,,,79,0
70488,note_on,48,0,10,,,,,,,,8,,,69,0
70500,note_on,12,0,1,,,,,,,,0,,,78,80
70500,note_on,12,0,9,,,,,,,,7,,,78,80
70500,note_on,12,0,2,,,,,,,,1,,,78,80
70500,note_on,12,0,10,,,,,,,,8,,,81,80
70500,note_on,0,0,10,,,,,,,,8,,,69,80
70512,note_on,48,0,3,,,,,,,,2,,,62,0
70536,note_on,96,0,13,,,,,,,,12,,,43,0
70536,note_on,96,0,11,,,,,,,,10,,,67,0
70536,note_on,96,0,12,,,,,,,,11,,,55,0
70548,note_on,0,0,10,,,,,,,,8,,,81,0
70548,note_on,48,0,2,,,,,,,,1,,,78,0
70548,note_on,48,0,10,,,,,,,,8,,,69,0
70548,note_on,48,0,1,,,,,,,,0,,,78,0
70548,note_on,48,0,9,,,,,,,,7,,,78,0
70560,note_on,24,0,11,,,,,,,,10,,,69,80
70560,note_on,12,0,2,,,,,,,,1,,,73,80
70560,note_on,0,0,2,,,,,,,,1,,,76,80
70560,note_on,48,0,3,,,,,,,,2,,,61,80
70560,note_on,24,0,13,,,,,,,,12,,,45,80
70560,note_on,0,0,3,,,,,,,,2,,,64,80
70560,note_on,288,0,6,,,,,,,,5,,,45,80
70560,note_on,24,0,12,,,,,,,,11,,,57,80
70560,note_on,0,0,10,,,,,,,,8,,,69,80
70560,note_on,12,0,10,,,,,,,,8,,,81,80
70560,note_on,12,0,9,,,,,,,,7,,,76,80
70560,note_on,288,0,5,,,,,,,,4,,,57,80
70560,note_on,0,0,5,,,,,,,,4,,,69,80
70560,note_on,12,0,1,,,,,,,,0,,,76,80
70608,note_on,48,0,10,,,,,,,,8,,,69,0
70608,note_on,0,0,10,,,,,,,,8,,,81,0
70620,note_on,0,0,10,,,,,,,,8,,,81,80
70620,note_on,12,0,10,,,,,,,,8,,,69,80
70656,note_on,1536,0,4,,,,,,,,3,,,45,0
70656,note_on,0,0,4,,,,,,,,3,,,57,0
70656,note_on,96,0,13,,,,,,,,12,,,45,0
70656,note_on,96,0,12,,,,,,,,11,,,57,0
70656,note_on,96,0,9,,,,,,,,7,,,76,0
70656,note_on,96,0,11,,,,,,,,10,,,69,0
70656,note_on,96,0,1,,,,,,,,0,,,76,0
70668,note_on,0,0,10,,,,,,,,8,,,69,0
70668,note_on,48,0,10,,,,,,,,8,,,81,0
70680,note_on,24,0,4,,,,,,,,3,,,45,80
70680,note_on,24,0,12,,,,,,,,11,,,45,80
70680,note_on,24,0,11,,,,,,,,10,,,57,80
70680,note_on,12,0,10,,,,,,,,8,,,69,80
70680,note_on,24,0,1,,,,,,,,0,,,76,80
70680,note_on,24,0,9,,,,,,,,7,,,76,80
70680,note_on,0,0,10,,,,,,,,8,,,81,80
70680,note_on,0,0,4,,,,,,,,3,,,57,80
70680,note_on,24,0,13,,,,,,,,12,,,33,80
70728,note_on,0,0,10,,,,,,,,8,,,69,0
70728,note_on,48,0,10,,,,,,,,8,,,81,0
70740,note_on,12,0,10,,,,,,,,8,,,81,80
70740,note_on,0,0,10,,,,,,,,8,,,69,80
70752,note_on,0,0,5,,,,,,,,4,,,57,0
70752,note_on,192,0,6,,,,,,,,5,,,45,0
70752,note_on,192,0,5,,,,,,,,4,,,69,0
70776,note_on,96,0,4,,,,,,,,3,,,57,0
70776,note_on,96,0,12,,,,,,,,11,,,45,0
70776,note_on,96,0,11,,,,,,,,10,,,57,0
70776,note_on,96,0,9,,,,,,,,7,,,76,0
70776,note_on,96,0,13,,,,,,,,12,,,33,0
70776,note_on,0,0,4,,,,,,,,3,,,45,0
70776,note_on,96,0,1,,,,,,,,0,,,76,0
70788,note_on,0,0,10,,,,,,,,8,,,81,0
70788,note_on,48,0,10,,,,,,,,8,,,69,0
70800,note_on,24,0,4,,,,,,,,3,,,57,80
70800,note_on,0,0,10,,,,,,,,8,,,69,80
70800,note_on,12,0,10,,,,,,,,8,,,81,80
70800,note_on,24,0,13,,,,,,,,12,,,45,80
70800,note_on,24,0,11,,,,,,,,10,,,69,80
70800,note_on,0,0,4,,,,,,,,3,,,45,80
70800,note_on,24,0,12,,,,,,,,11,,,57,80
70848,note_on,0,0,10,,,,,,,,8,,,81,0
70848,note_on,48,0,10,,,,,,,,8,,,69,0
70860,note_on,0,0,10,,,,,,,,8,,,69,80
70860,note_on,12,0,10,,,,,,,,8,,,81,80
70896,note_on,96,0,13,,,,,,,,12,,,45,0
70896,note_on,96,0,11,,,,,,,,10,,,69,0
70896,note_on,0,0,4,,,,,,,,3,,,57,0
70896,note_on,96,0,12,,,,,,,,11,,,57,0
70896,note_on,96,0,4,,,,,,,,3,,,45,0
70908,note_on,48,0,10,,,,,,,,8,,,69,0
70908,note_on,0,0,10,,,,,,,,8,,,81,0
70920,note_on,12,0,10,,,,,,,,8,,,81,80
70920,note_on,24,0,12,,,,,,,,11,,,55,80
70920,note_on,144,0,9,,,,,,,,7,,,69,80
70920,note_on,0,0,10,,,,,,,,8,,,69,80
70920,note_on,144,0,1,,,,,,,,0,,,69,80
70920,note_on,24,0,13,,,,,,,,12,,,43,80
70920,note_on,0,0,4,,,,,,,,3,,,57,80
70920,note_on,24,0,4,,,,,,,,3,,,45,80
70920,note_on,24,0,11,,,,,,,,10,,,67,80
70944,note_on,0,0,3,,,,,,,,2,,,61,0
70944,note_on,384,0,3,,,,,,,,2,,,64,0
70944,note_on,384,0,2,,,,,,,,1,,,76,0
70944,note_on,0,0,2,,,,,,,,1,,,73,0
70968,note_on,48,0,10,,,,,,,,8,,,69,0
70968,note_on,0,0,10,,,,,,,,8,,,81,0
70980,note_on,12,0,10,,,,,,,,8,,,81,80
70980,note_on,0,0,10,,,,,,,,8,,,69,80
71016,note_on,96,0,12,,,,,,,,11,,,55,0
71016,note_on,96,0,11,,,,,,,,10,,,67,0
71016,note_on,96,0,1,,,,,,,,0,,,69,0
71016,note_on,96,0,13,,,,,,,,12,,,43,0
71016,note_on,96,0,4,,,,,,,,3,,,57,0
71016,note_on,0,0,4,,,,,,,,3,,,45,0
71016,note_on,96,0,9,,,,,,,,7,,,69,0
71028,note_on,48,0,10,,,,,,,,8,,,69,0
71028,note_on,0,0,10,,,,,,,,8,,,81,0
71040,note_on,24,0,9,,,,,,,,7,,,74,80
71040,note_on,24,0,1,,,,,,,,0,,,74,80
71040,note_on,288,0,6,,,,,,,,5,,,50,80
71040,note_on,24,0,11,,,,,,,,10,,,66,80
71040,note_on,24,0,12,,,,,,,,11,,,54,80
71040,note_on,0,0,2,,,,,,,,1,,,74,80
71040,note_on,96,0,2,,,,,,,,1,,,74,80
71040,note_on,24,0,13,,,,,,,,12,,,42,80
71040,note_on,24,0,4,,,,,,,,3,,,50,80
71040,note_on,12,0,10,,,,,,,,8,,,74,80
71040,note_on,0,0,3,,,,,,,,2,,,62,80
71040,note_on,96,0,3,,,,,,,,2,,,57,80
71040,note_on,0,0,5,,,,,,,,4,,,62,80
71040,note_on,288,0,5,,,,,,,,4,,,74,80
71040,note_on,0,0,4,,,,,,,,3,,,62,80
71088,note_on,48,0,10,,,,,,,,8,,,74,0
71100,note_on,12,0,10,,,,,,,,8,,,74,80
71136,note_on,96,0,11,,,,,,,,10,,,66,0
71136,note_on,96,0,13,,,,,,,,12,,,42,0
71136,note_on,96,0,12,,,,,,,,11,,,54,0
71148,note_on,48,0,10,,,,,,,,8,,,74,0
71160,note_on,24,0,12,,,,,,,,11,,,54,80
71160,note_on,24,0,11,,,,,,,,10,,,66,80
71160,note_on,12,0,10,,,,,,,,8,,,74,80
71160,note_on,24,0,13,,,,,,,,12,,,42,80
71208,note_on,48,0,10,,,,,,,,8,,,74,0
71220,note_on,12,0,10,,,,,,,,8,,,74,80
71232,note_on,192,0,5,,,,,,,,4,,,62,0
71232,note_on,192,0,6,,,,,,,,5,,,50,0
71232,note_on,192,0,9,,,,,,,,7,,,74,0
71232,note_on,192,0,1,,,,,,,,0,,,74,0
71232,note_on,0,0,5,,,,,,,,4,,,74,0
71232,note_on,192,0,2,,,,,,,,1,,,74,0
71256,note_on,96,0,12,,,,,,,,11,,,54,0
71256,note_on,96,0,11,,,,,,,,10,,,66,0
71256,note_on,96,0,13,,,,,,,,12,,,42,0
71268,note_on,48,0,10,,,,,,,,8,,,74,0
71280,note_on,24,0,12,,,,,,,,11,,,54,80
71280,note_on,48,0,1,,,,,,,,0,,,81,80
71280,note_on,48,0,2,,,,,,,,1,,,81,80
71280,note_on,12,0,10,,,,,,,,8,,,74,80
71280,note_on,24,0,13,,,,,,,,12,,,42,80
71280,note_on,24,0,11,,,,,,,,10,,,66,80
71280,note_on,48,0,9,,,,,,,,7,,,81,80
71328,note_on,48,0,10,,,,,,,,8,,,74,0
71340,note_on,12,0,10,,,,,,,,8,,,74,80
71376,note_on,96,0,13,,,,,,,,12,,,42,0
71376,note_on,96,0,12,,,,,,,,11,,,54,0
71376,note_on,96,0,11,,,,,,,,10,,,66,0
71388,note_on,48,0,10,,,,,,,,8,,,74,0
71400,note_on,24,0,13,,,,,,,,12,,,42,80
71400,note_on,24,0,12,,,,,,,,11,,,54,80
71400,note_on,12,0,10,,,,,,,,8,,,74,80
71400,note_on,24,0,11,,,,,,,,10,,,66,80
71424,note_on,0,0,4,,,,,,,,3,,,50,0
71424,note_on,384,0,4,,,,,,,,3,,,62,0
71424,note_on,384,0,3,,,,,,,,2,,,62,0
71424,note_on,0,0,3,,,,,,,,2,,,57,0
71424,note_on,144,0,2,,,,,,,,1,,,74,0
71448,note_on,48,0,10,,,,,,,,8,,,74,0
71460,note_on,12,0,10,,,,,,,,8,,,74,80
71472,note_on,192,0,9,,,,,,,,7,,,81,0
71472,note_on,48,0,2,,,,,,,,1,,,81,0
71472,note_on,192,0,1,,,,,,,,0,,,81,0
71496,note_on,96,0,13,,,,,,,,12,,,42,0
71496,note_on,96,0,11,,,,,,,,10,,,66,0
71496,note_on,96,0,12,,,,,,,,11,,,54,0
71508,note_on,48,0,10,,,,,,,,8,,,74,0
71520,note_on,24,0,11,,,,,,,,10,,,64,80
71520,note_on,48,0,9,,,,,,,,7,,,83,80
71520,note_on,24,0,13,,,,,,,,12,,,43,80
71520,note_on,48,0,1,,,,,,,,0,,,83,80
71520,note_on,24,0,12,,,,,,,,11,,,55,80
71520,note_on,12,0,10,,,,,,,,8,,,74,80
71520,note_on,288,0,6,,,,,,,,5,,,50,80
71520,note_on,96,0,3,,,,,,,,2,,,64,80
71520,note_on,48,0,2,,,,,,,,1,,,71,80
71520,note_on,0,0,2,,,,,,,,1,,,83,80
71520,note_on,0,0,4,,,,,,,,3,,,62,80
71520,note_on,96,0,4,,,,,,,,3,,,64,80
71520,note_on,288,0,5,,,,,,,,4,,,74,80
71520,note_on,0,0,5,,,,,,,,4,,,62,80
71520,note_on,0,0,3,,,,,,,,2,,,59,80
71568,note_on,48,0,10,,,,,,,,8,,,74,0
71568,note_on,48,0,11,,,,,,,,10,,,64,0
71580,note_on,12,0,11,,,,,,,,10,,,64,80
71580,note_on,12,0,10,,,,,,,,8,,,74,80
71616,note_on,96,0,9,,,,,,,,7,,,83,0
71616,note_on,96,0,12,,,,,,,,11,,,55,0
71616,note_on,96,0,1,,,,,,,,0,,,83,0
71616,note_on,96,0,13,,,,,,,,12,,,43,0
71628,note_on,48,0,11,,,,,,,,10,,,64,0
71628,note_on,48,0,10,,,,,,,,8,,,74,0
71640,note_on,12,0,11,,,,,,,,10,,,64,80
71640,note_on,24,0,12,,,,,,,,11,,,55,80
71640,note_on,24,0,1,,,,,,,,0,,,83,80
71640,note_on,12,0,10,,,,,,,,8,,,74,80
71640,note_on,24,0,9,,,,,,,,7,,,83,80
71640,note_on,24,0,13,,,,,,,,12,,,43,80
71688,note_on,48,0,11,,,,,,,,10,,,64,0
71688,note_on,48,0,10,,,,,,,,8,,,74,0
71700,note_on,12,0,11,,,,,,,,10,,,64,80
71700,note_on,12,0,10,,,,,,,,8,,,74,80
71712,note_on,0,0,5,,,,,,,,4,,,74,0
71712,note_on,192,0,5,,,,,,,,4,,,62,0
71712,note_on,192,0,6,,,,,,,,5,,,50,0
71736,note_on,96,0,13,,,,,,,,12,,,43,0
71736,note_on,96,0,12,,,,,,,,11,,,55,0
71748,note_on,48,0,11,,,,,,,,10,,,64,0
71748,note_on,48,0,10,,,,,,,,8,,,74,0
71760,note_on,24,0,13,,,,,,,,12,,,43,80
71760,note_on,12,0,11,,,,,,,,10,,,67,80
71760,note_on,24,0,12,,,,,,,,11,,,55,80
71760,note_on,12,0,10,,,,,,,,8,,,71,80
71808,note_on,48,0,11,,,,,,,,10,,,67,0
71808,note_on,48,0,10,,,,,,,,8,,,71,0
71820,note_on,12,0,11,,,,,,,,10,,,67,80
71820,note_on,12,0,10,,,,,,,,8,,,71,80
71832,note_on,192,0,9,,,,,,,,7,,,83,0
71832,note_on,192,0,1,,,,,,,,0,,,83,0
71856,note_on,96,0,13,,,,,,,,12,,,43,0
71856,note_on,96,0,12,,,,,,,,11,,,55,0
71868,note_on,48,0,10,,,,,,,,8,,,71,0
71868,note_on,48,0,11,,,,,,,,10,,,67,0
71880,note_on,48,0,9,,,,,,,,7,,,79,80
71880,note_on,12,0,10,,,,,,,,8,,,71,80
71880,note_on,12,0,11,,,,,,,,10,,,67,80
71880,note_on,24,0,13,,,,,,,,12,,,43,80
71880,note_on,48,0,1,,,,,,,,0,,,79,80
71880,note_on,24,0,12,,,,,,,,11,,,55,80
71904,note_on,0,0,4,,,,,,,,3,,,64,0
71904,note_on,384,0,4,,,,,,,,3,,,62,0
71904,note_on,0,0,2,,,,,,,,1,,,71,0
71904,note_on,384,0,2,,,,,,,,1,,,83,0
71904,note_on,384,0,3,,,,,,,,2,,,59,0
71904,note_on,0,0,3,,,,,,,,2,,,64,0
71928,note_on,48,0,10,,,,,,,,8,,,71,0
71928,note_on,48,0,1,,,,,,,,0,,,79,0
71928,note_on,48,0,11,,,,,,,,10,,,67,0
71928,note_on,48,0,9,,,,,,,,7,,,79,0
71940,note_on,12,0,10,,,,,,,,8,,,71,80
71940,note_on,12,0,11,,,,,,,,10,,,67,80
71940,note_on,12,0,9,,,,,,,,7,,,76,80
71940,note_on,12,0,1,,,,,,,,0,,,76,80
71976,note_on,96,0,13,,,,,,,,12,,,43,0
71976,note_on,96,0,12,,,,,,,,11,,,55,0
71988,note_on,48,0,9,,,,,,,,7,,,76,0
71988,note_on,48,0,11,,,,,,,,10,,,67,0
71988,note_on,48,0,1,,,,,,,,0,,,76,0
71988,note_on,48,0,10,,,,,,,,8,,,71,0
72000,note_on,24,0,13,,,,,,,,12,,,45,80
72000,note_on,0,0,3,,,,,,,,2,,,61,80
72000,note_on,96,0,3,,,,,,,,2,,,55,80
72000,note_on,12,0,9,,,,,,,,7,,,79,80
72000,note_on,12,0,11,,,,,,,,10,,,61,80
72000,note_on,12,0,10,,,,,,,,8,,,64,80
72000,note_on,0,0,2,,,,,,,,1,,,67,80
72000,note_on,96,0,2,,,,,,,,1,,,73,80
72000,note_on,288,0,5,,,,,,,,4,,,69,80
72000,note_on,96,0,4,,,,,,,,3,,,57,80
72000,note_on,0,0,4,,,,,,,,3,,,64,80
72000,note_on,288,0,6,,,,,,,,5,,,45,80
72000,note_on,24,0,12,,,,,,,,11,,,57,80
72000,note_on,12,0,1,,,,,,,,0,,,79,80
72048,note_on,48,0,10,,,,,,,,8,,,64,0
72048,note_on,48,0,11,,,,,,,,10,,,61,0
72060,note_on,12,0,11,,,,,,,,10,,,61,80
72060,note_on,12,0,10,,,,,,,,8,,,64,80
72096,note_on,96,0,9,,,,,,,,7,,,79,0
72096,note_on,96,0,12,,,,,,,,11,,,57,0
72096,note_on,96,0,13,,,,,,,,12,,,45,0
72096,note_on,96,0,1,,,,,,,,0,,,79,0
72108,note_on,48,0,10,,,,,,,,8,,,64,0
72108,note_on,48,0,11,,,,,,,,10,,,61,0
72120,note_on,24,0,12,,,,,,,,11,,,57,80
72120,note_on,24,0,1,,,,,,,,0,,,79,80
72120,note_on,24,0,13,,,,,,,,12,,,45,80
72120,note_on,12,0,11,,,,,,,,10,,,61,80
72120,note_on,24,0,9,,,,,,,,7,,,79,80
72120,note_on,12,0,10,,,,,,,,8,,,64,80
72168,note_on,48,0,11,,,,,,,,10,,,61,0
72168,note_on,48,0,10,,,,,,,,8,,,64,0
72180,note_on,12,0,11,,,,,,,,10,,,61,80
72180,note_on,12,0,10,,,,,,,,8,,,64,80
72192,note_on,192,0,5,,,,,,,,4,,,69,0
72192,note_on,192,0,6,,,,,,,,5,,,45,0
72216,note_on,96,0,12,,,,,,,,11,,,57,0
72216,note_on,96,0,13,,,,,,,,12,,,45,0
72228,note_on,48,0,11,,,,,,,,10,,,61,0
72228,note_on,48,0,10,,,,,,,,8,,,64,0
72240,note_on,48,0,5,,,,,,,,4,,,69,80
72240,note_on,48,0,6,,,,,,,,5,,,45,80
72240,note_on,12,0,10,,,,,,,,8,,,67,80
72240,note_on,24,0,12,,,,,,,,11,,,57,80
72240,note_on,24,0,13,,,,,,,,12,,,45,80
72240,note_on,12,0,11,,,,,,,,10,,,64,80
72288,note_on,48,0,11,,,,,,,,10,,,64,0
72288,note_on,48,0,10,,,,,,,,8,,,67,0
72300,note_on,12,0,10,,,,,,,,8,,,67,80
72300,note_on,12,0,11,,,,,,,,10,,,64,80
72312,note_on,192,0,1,,,,,,,,0,,,79,0
72312,note_on,192,0,9,,,,,,,,7,,,79,0
72336,note_on,96,0,5,,,,,,,,4,,,69,0
72336,note_on,96,0,6,,,,,,,,5,,,45,0
72336,note_on,96,0,13,,,,,,,,12,,,45,0
72336,note_on,96,0,12,,,,,,,,11,,,57,0
72348,note_on,48,0,11,,,,,,,,10,,,64,0
72348,note_on,48,0,10,,,,,,,,8,,,67,0
72360,note_on,12,0,11,,,,,,,,10,,,64,80
72360,note_on,24,0,12,,,,,,,,11,,,57,80
72360,note_on,48,0,1,,,,,,,,0,,,76,80
72360,note_on,24,0,6,,,,,,,,5,,,45,80
72360,note_on,48,0,9,,,,,,,,7,,,76,80
72360,note_on,24,0,13,,,,,,,,12,,,45,80
72360,note_on,12,0,10,,,,,,,,8,,,67,80
72360,note_on,24,0,5,,,,,,,,4,,,69,80
72384,note_on,384,0,2,,,,,,,,1,,,67,0
72384,note_on,0,0,2,,,,,,,,1,,,73,0
72384,note_on,0,0,3,,,,,,,,2,,,55,0
72384,note_on,384,0,4,,,,,,,,3,,,64,0
72384,note_on,0,0,4,,,,,,,,3,,,57,0
72384,note_on,384,0,3,,,,,,,,2,,,61,0
72408,note_on,48,0,9,,,,,,,,7,,,76,0
72408,note_on,48,0,1,,,,,,,,0,,,76,0
72408,note_on,48,0,11,,,,,,,,10,,,64,0
72408,note_on,48,0,10,,,,,,,,8,,,67,0
72420,note_on,12,0,9,,,,,,,,7,,,73,80
72420,note_on,12,0,1,,,,,,,,0,,,73,80
72420,note_on,12,0,11,,,,,,,,10,,,64,80
72420,note_on,12,0,10,,,,,,,,8,,,67,80
72456,note_on,96,0,12,,,,,,,,11,,,57,0
72456,note_on,96,0,5,,,,,,,,4,,,69,0
72456,note_on,96,0,6,,,,,,,,5,,,45,0
72456,note_on,96,0,13,,,,,,,,12,,,45,0
72468,note_on,48,0,9,,,,,,,,7,,,73,0
72468,note_on,48,0,11,,,,,,,,10,,,64,0
72468,note_on,48,0,1,,,,,,,,0,,,73,0
72468,note_on,48,0,10,,,,,,,,8,,,67,0
72480,note_on,12,0,9,,,,,,,,7,,,74,80
72480,note_on,24,0,13,,,,,,,,12,,,38,80
72480,note_on,24,0,5,,,,,,,,4,,,66,80
72480,note_on,0,0,4,,,,,,,,3,,,62,80
72480,note_on,0,0,3,,,,,,,,2,,,62,80
72480,note_on,96,0,3,,,,,,,,2,,,54,80
72480,note_on,96,0,2,,,,,,,,1,,,66,80
72480,note_on,0,0,2,,,,,,,,1,,,74,80
72480,note_on,12,0,10,,,,,,,,8,,,66,80
72480,note_on,0,0,5,,,,,,,,4,,,69,80
72480,note_on,24,0,12,,,,,,,,11,,,50,80
72480,note_on,96,0,4,,,,,,,,3,,,54,80
72480,note_on,12,0,1,,,,,,,,0,,,74,80
72480,note_on,12,0,11,,,,,,,,10,,,62,80
72480,note_on,24,0,6,,,,,,,,5,,,50,80
72672,note_on,0,0,3,,,,,,,,2,,,54,0
72672,note_on,192,0,3,,,,,,,,2,,,62,0
72672,note_on,0,0,5,,,,,,,,4,,,66,0
72672,note_on,192,0,12,,,,,,,,11,,,50,0
72672,note_on,192,0,6,,,,,,,,5,,,50,0
72672,note_on,192,0,2,,,,,,,,1,,,74,0
72672,note_on,0,0,4,,,,,,,,3,,,54,0
72672,note_on,0,0,2,,,,,,,,1,,,66,0
72672,note_on,192,0,4,,,,,,,,3,,,62,0
72672,note_on,192,0,1,,,,,,,,0,,,74,0
72672,note_on,192,0,11,,,,,,,,10,,,62,0
72672,note_on,192,0,10,,,,,,,,8,,,66,0
72672,note_on,192,0,13,,,,,,,,12,,,38,0
72672,note_on,192,0,9,,,,,,,,7,,,74,0
72672,note_on,192,0,5,,,,,,,,4,,,69,0
72840,note_on,3528,0,7,,,,,,,,6,,,78,80
72936,note_on,96,0,7,,,,,,,,6,,,78,0
72960,note_on,0,0,8,,,,,,,,6,,,71,80
72960,note_on,4128,0,8,,,,,,,,6,,,74,80
72960,note_on,24,0,7,,,,,,,,6,,,78,80
73152,note_on,0,0,8,,,,,,,,6,,,74,0
73152,note_on,192,0,8,,,,,,,,6,,,71,0
73152,note_on,192,0,7,,,,,,,,6,,,78,0
73200,note_on,0,0,8,,,,,,,,6,,,76,80
73200,note_on,48,0,8,,,,,,,,6,,,70,80
73200,note_on,48,0,7,,,,,,,,6,,,81,80
73296,note_on,96,0,7,,,,,,,,6,,,81,0
73320,note_on,24,0,7,,,,,,,,6,,,79,80
73392,note_on,192,0,8,,,,,,,,6,,,76,0
73392,note_on,0,0,8,,,,,,,,6,,,70,0
73416,note_on,96,0,7,,,,,,,,6,,,79,0
73440,note_on,24,0,7,,,,,,,,6,,,78,80
73440,note_on,0,0,8,,,,,,,,6,,,71,80
73440,note_on,48,0,8,,,,,,,,6,,,74,80
73536,note_on,96,0,7,,,,,,,,6,,,78,0
73560,note_on,24,0,7,,,,,,,,6,,,83,80
73632,note_on,192,0,8,,,,,,,,6,,,71,0
73632,note_on,0,0,8,,,,,,,,6,,,74,0
73656,note_on,96,0,7,,,,,,,,6,,,83,0
73680,note_on,24,0,7,,,,,,,,6,,,82,80
73776,note_on,96,0,7,,,,,,,,6,,,82,0
73800,note_on,24,0,7,,,,,,,,6,,,83,80
73896,note_on,96,0,7,,,,,,,,6,,,83,0
73920,note_on,0,0,8,,,,,,,,6,,,71,80
73920,note_on,288,0,8,,,,,,,,6,,,74,80
73920,note_on,24,0,7,,,,,,,,6,,,78,80
74112,note_on,0,0,8,,,,,,,,6,,,74,0
74112,note_on,192,0,8,,,,,,,,6,,,71,0
74112,note_on,192,0,7,,,,,,,,6,,,78,0
74160,note_on,48,0,7,,,,,,,,6,,,81,80
74160,note_on,0,0,8,,,,,,,,6,,,76,80
74160,note_on,48,0,8,,,,,,,,6,,,70,80
74256,note_on,96,0,7,,,,,,,,6,,,81,0
74280,note_on,24,0,7,,,,,,,,6,,,79,80
74352,note_on,0,0,8,,,,,,,,6,,,70,0
74352,note_on,192,0,8,,,,,,,,6,,,76,0
74376,note_on,96,0,7,,,,,,,,6,,,79,0
74400,note_on,48,0,8,,,,,,,,6,,,74,80
74400,note_on,24,0,7,,,,,,,,6,,,78,80
74400,note_on,0,0,8,,,,,,,,6,,,71,80
74592,note_on,192,0,7,,,,,,,,6,,,78,0
74592,note_on,192,0,8,,,,,,,,6,,,71,0
74592,note_on,0,0,8,,,,,,,,6,,,74,0
74700,note_on,108,0,7,,,,,,,,6,,,74,80
74748,note_on,48,0,7,,,,,,,,6,,,74,0
74760,note_on,2088,0,10,,,,,,,,8,,,74,80
74760,note_on,0,0,8,,,,,,,,6,,,59,80
74760,note_on,2088,0,13,,,,,,,,12,,,47,80
74760,note_on,2088,0,9,,,,,,,,7,,,79,80
74760,note_on,12,0,7,,,,,,,,6,,,79,80
74760,note_on,2088,0,11,,,,,,,,10,,,71,80
74760,note_on,168,0,8,,,,,,,,6,,,71,80
74760,note_on,2088,0,12,,,,,,,,11,,,59,80
74808,note_on,48,0,7,,,,,,,,6,,,79,0
74820,note_on,12,0,7,,,,,,,,6,,,86,80
74856,note_on,96,0,11,,,,,,,,10,,,71,0
74856,note_on,0,0,8,,,,,,,,6,,,71,0
74856,note_on,96,0,8,,,,,,,,6,,,59,0
74856,note_on,96,0,13,,,,,,,,12,,,47,0
74856,note_on,96,0,12,,,,,,,,11,,,59,0
74868,note_on,48,0,7,,,,,,,,6,,,86,0
74880,note_on,24,0,13,,,,,,,,12,,,45,80
74880,note_on,24,0,8,,,,,,,,6,,,57,80
74880,note_on,12,0,7,,,,,,,,6,,,85,80
74880,note_on,24,0,12,,,,,,,,11,,,57,80
74880,note_on,0,0,8,,,,,,,,6,,,69,80
74880,note_on,24,0,11,,,,,,,,10,,,69,80
74880,note_on,120,0,10,,,,,,,,8,,,73,80
74928,note_on,48,0,7,,,,,,,,6,,,85,0
74940,note_on,12,0,7,,,,,,,,6,,,73,80
74952,note_on,72,0,10,,,,,,,,8,,,74,0
74976,note_on,216,0,9,,,,,,,,7,,,79,0
74988,note_on,48,0,7,,,,,,,,6,,,73,0
75000,note_on,12,0,7,,,,,,,,6,,,78,80
75000,note_on,24,0,9,,,,,,,,7,,,78,80
75048,note_on,48,0,7,,,,,,,,6,,,78,0
75060,note_on,12,0,7,,,,,,,,6,,,85,80
75072,note_on,120,0,10,,,,,,,,8,,,73,0
75072,note_on,192,0,8,,,,,,,,6,,,69,0
75072,note_on,0,0,8,,,,,,,,6,,,57,0
75072,note_on,192,0,12,,,,,,,,11,,,57,0
75072,note_on,192,0,13,,,,,,,,12,,,45,0
75072,note_on,192,0,11,,,,,,,,10,,,69,0
75108,note_on,48,0,7,,,,,,,,6,,,85,0
75120,note_on,48,0,11,,,,,,,,10,,,67,80
75120,note_on,48,0,13,,,,,,,,12,,,43,80
75120,note_on,48,0,8,,,,,,,,6,,,55,80
75120,note_on,12,0,7,,,,,,,,6,,,83,80
75120,note_on,48,0,10,,,,,,,,8,,,71,80
75120,note_on,0,0,8,,,,,,,,6,,,67,80
75120,note_on,48,0,12,,,,,,,,11,,,55,80
75168,note_on,48,0,7,,,,,,,,6,,,83,0
75180,note_on,12,0,7,,,,,,,,6,,,71,80
75192,note_on,192,0,9,,,,,,,,7,,,78,0
75228,note_on,48,0,7,,,,,,,,6,,,71,0
75240,note_on,48,0,9,,,,,,,,7,,,76,80
75240,note_on,12,0,7,,,,,,,,6,,,76,80
75288,note_on,48,0,7,,,,,,,,6,,,76,0
75300,note_on,12,0,7,,,,,,,,6,,,83,80
75312,note_on,192,0,11,,,,,,,,10,,,67,0
75312,note_on,0,0,8,,,,,,,,6,,,55,0
75312,note_on,192,0,12,,,,,,,,11,,,55,0
75312,note_on,192,0,10,,,,,,,,8,,,71,0
75312,note_on,192,0,8,,,,,,,,6,,,67,0
75312,note_on,192,0,13,,,,,,,,12,,,43,0
75348,note_on,48,0,7,,,,,,,,6,,,83,0
75360,note_on,0,0,8,,,,,,,,6,,,66,80
75360,note_on,48,0,11,,,,,,,,10,,,66,80
75360,note_on,48,0,10,,,,,,,,8,,,69,80
75360,note_on,12,0,7,,,,,,,,6,,,81,80
75360,note_on,48,0,8,,,,,,,,6,,,54,80
75360,note_on,48,0,12,,,,,,,,11,,,54,80
75360,note_on,48,0,13,,,,,,,,12,,,42,80
75408,note_on,48,0,7,,,,,,,,6,,,81,0
75420,note_on,12,0,7,,,,,,,,6,,,69,80
75456,note_on,216,0,9,,,,,,,,7,,,76,0
75468,note_on,48,0,7,,,,,,,,6,,,69,0
75480,note_on,12,0,7,,,,,,,,6,,,74,80
75480,note_on,24,0,9,,,,,,,,7,,,74,80
75528,note_on,48,0,7,,,,,,,,6,,,74,0
75540,note_on,12,0,7,,,,,,,,6,,,81,80
75552,note_on,192,0,13,,,,,,,,12,,,42,0
75552,note_on,192,0,12,,,,,,,,11,,,54,0
75552,note_on,192,0,10,,,,,,,,8,,,69,0
75552,note_on,192,0,8,,,,,,,,6,,,66,0
75552,note_on,0,0,8,,,,,,,,6,,,54,0
75552,note_on,192,0,11,,,,,,,,10,,,66,0
75588,note_on,48,0,7,,,,,,,,6,,,81,0
75600,note_on,48,0,10,,,,,,,,8,,,67,80
75600,note_on,48,0,8,,,,,,,,6,,,52,80
75600,note_on,0,0,8,,,,,,,,6,,,64,80
75600,note_on,48,0,13,,,,,,,,12,,,40,80
75600,note_on,48,0,11,,,,,,,,10,,,64,80
75600,note_on,12,0,7,,,,,,,,6,,,79,80
75600,note_on,48,0,12,,,,,,,,11,,,52,80
75648,note_on,48,0,7,,,,,,,,6,,,79,0
75660,note_on,12,0,7,,,,,,,,6,,,67,80
75672,note_on,192,0,9,,,,,,,,7,,,74,0
75708,note_on,48,0,7,,,,,,,,6,,,67,0
75720,note_on,12,0,7,,,,,,,,6,,,73,80
75720,note_on,48,0,9,,,,,,,,7,,,73,80
75768,note_on,48,0,7,,,,,,,,6,,,73,0
75780,note_on,12,0,7,,,,,,,,6,,,79,80
75792,note_on,192,0,13,,,,,,,,12,,,40,0
75792,note_on,192,0,10,,,,,,,,8,,,67,0
75792,note_on,192,0,12,,,,,,,,11,,,52,0
75792,note_on,192,0,8,,,,,,,,6,,,64,0
75792,note_on,0,0,8,,,,,,,,6,,,52,0
75792,note_on,192,0,11,,,,,,,,10,,,64,0
75828,note_on,48,0,7,,,,,,,,6,,,79,0
75840,note_on,12,0,7,,,,,,,,6,,,78,80
75840,note_on,48,0,11,,,,,,,,10,,,62,80
75840,note_on,48,0,8,,,,,,,,6,,,50,80
75840,note_on,48,0,12,,,,,,,,11,,,50,80
75840,note_on,48,0,10,,,,,,,,8,,,66,80
75840,note_on,48,0,13,,,,,,,,12,,,38,80
75888,note_on,48,0,7,,,,,,,,6,,,78,0
75900,note_on,12,0,7,,,,,,,,6,,,76,80
75936,note_on,216,0,9,,,,,,,,7,,,73,0
75948,note_on,48,0,7,,,,,,,,6,,,76,0
75960,note_on,12,0,7,,,,,,,,6,,,79,80
75960,note_on,24,0,9,,,,,,,,7,,,71,80
76008,note_on,48,0,7,,,,,,,,6,,,79,0
76020,note_on,12,0,7,,,,,,,,6,,,78,80
76032,note_on,192,0,8,,,,,,,,6,,,50,0
76032,note_on,192,0,10,,,,,,,,8,,,66,0
76032,note_on,192,0,13,,,,,,,,12,,,38,0
76032,note_on,192,0,11,,,,,,,,10,,,62,0
76032,note_on,192,0,12,,,,,,,,11,,,50,0
76068,note_on,48,0,7,,,,,,,,6,,,78,0
76080,note_on,12,0,7,,,,,,,,6,,,76,80
76080,note_on,48,0,8,,,,,,,,6,,,52,80
76080,note_on,48,0,12,,,,,,,,11,,,52,80
76080,note_on,48,0,10,,,,,,,,8,,,64,80
76080,note_on,48,0,13,,,,,,,,12,,,40,80
76080,note_on,48,0,11,,,,,,,,10,,,67,80
76128,note_on,48,0,7,,,,,,,,6,,,76,0
76140,note_on,12,0,7,,,,,,,,6,,,74,80
76152,note_on,192,0,9,,,,,,,,7,,,71,0
76176,note_on,96,0,11,,,,,,,,10,,,67,0
76176,note_on,96,0,10,,,,,,,,8,,,64,0
76176,note_on,96,0,12,,,,,,,,11,,,52,0
76176,note_on,96,0,8,,,,,,,,6,,,52,0
76176,note_on,96,0,13,,,,,,,,12,,,40,0
76188,note_on,48,0,7,,,,,,,,6,,,74,0
76200,note_on,48,0,9,,,,,,,,7,,,64,80
76200,note_on,24,0,12,,,,,,,,11,,,55,80
76200,note_on,24,0,10,,,,,,,,8,,,59,80
76200,note_on,24,0,8,,,,,,,,6,,,55,80
76200,note_on,24,0,13,,,,,,,,12,,,43,80
76200,note_on,24,0,11,,,,,,,,10,,,59,80
76200,note_on,12,0,7,,,,,,,,6,,,73,80
76248,note_on,48,0,7,,,,,,,,6,,,73,0
76260,note_on,12,0,7,,,,,,,,6,,,71,80
76296,note_on,96,0,13,,,,,,,,12,,,43,0
76296,note_on,96,0,12,,,,,,,,11,,,55,0
76296,note_on,96,0,11,,,,,,,,10,,,59,0
76296,note_on,96,0,9,,,,,,,,7,,,64,0
76296,note_on,96,0,10,,,,,,,,8,,,59,0
76296,note_on,96,0,8,,,,,,,,6,,,55,0
76308,note_on,48,0,7,,,,,,,,6,,,71,0
76320,note_on,24,0,13,,,,,,,,12,,,42,80
76320,note_on,24,0,8,,,,,,,,6,,,54,80
76320,note_on,12,0,7,,,,,,,,6,,,70,80
76320,note_on,24,0,12,,,,,,,,11,,,54,80
76320,note_on,24,0,11,,,,,,,,10,,,61,80
76320,note_on,24,0,10,,,,,,,,8,,,58,80
76320,note_on,24,0,9,,,,,,,,7,,,66,80
76368,note_on,48,0,7,,,,,,,,6,,,70,0
76380,note_on,12,0,7,,,,,,,,6,,,71,80
76428,note_on,48,0,7,,,,,,,,6,,,71,0
76440,note_on,12,0,7,,,,,,,,6,,,72,80
76488,note_on,48,0,7,,,,,,,,6,,,72,0
76500,note_on,12,0,7,,,,,,,,6,,,73,80
76512,note_on,192,0,12,,,,,,,,11,,,54,0
76512,note_on,192,0,9,,,,,,,,7,,,66,0
76512,note_on,192,0,13,,,,,,,,12,,,42,0
76512,note_on,192,0,8,,,,,,,,6,,,54,0
76512,note_on,192,0,11,,,,,,,,10,,,61,0
76512,note_on,192,0,10,,,,,,,,8,,,58,0
76548,note_on,48,0,7,,,,,,,,6,,,73,0
76560,note_on,12,0,7,,,,,,,,6,,,74,80
76608,note_on,48,0,7,,,,,,,,6,,,74,0
76620,note_on,12,0,7,,,,,,,,6,,,75,80
76668,note_on,48,0,7,,,,,,,,6,,,75,0
76680,note_on,12,0,7,,,,,,,,6,,,76,80
76728,note_on,48,0,7,,,,,,,,6,,,76,0
76740,note_on,12,0,7,,,,,,,,6,,,77,80
76788,note_on,48,0,7,,,,,,,,6,,,77,0
76800,note_on,288,0,8,,,,,,,,6,,,71,80
76800,note_on,12,0,7,,,,,,,,6,,,78,80
76800,note_on,0,0,8,,,,,,,,6,,,74,80
76992,note_on,192,0,8,,,,,,,,6,,,74,0
76992,note_on,0,0,8,,,,,,,,6,,,71,0
76992,note_on,192,0,7,,,,,,,,6,,,78,0
77040,note_on,48,0,8,,,,,,,,6,,,70,80
77040,note_on,0,0,8,,,,,,,,6,,,76,80
77040,note_on,48,0,7,,,,,,,,6,,,81,80
77136,note_on,96,0,7,,,,,,,,6,,,81,0
77160,note_on,24,0,7,,,,,,,,6,,,79,80
77232,note_on,0,0,8,,,,,,,,6,,,70,0
77232,note_on,192,0,8,,,,,,,,6,,,76,0
77256,note_on,96,0,7,,,,,,,,6,,,79,0
77280,note_on,24,0,7,,,,,,,,6,,,78,80
77280,note_on,48,0,8,,,,,,,,6,,,74,80
77280,note_on,0,0,8,,,,,,,,6,,,71,80
77344,note_on,64,0,7,,,,,,,,6,,,78,0
77360,note_on,16,0,7,,,,,,,,6,,,83,80
77424,note_on,64,0,7,,,,,,,,6,,,83,0
77440,note_on,16,0,7,,,,,,,,6,,,82,80
77472,note_on,192,0,8,,,,,,,,6,,,71,0
77472,note_on,0,0,8,,,,,,,,6,,,74,0
77504,note_on,64,0,7,,,,,,,,6,,,82,0
77520,note_on,16,0,7,,,,,,,,6,,,81,80
77584,note_on,64,0,7,,,,,,,,6,,,81,0
77600,note_on,16,0,7,,,,,,,,6,,,80,80
77664,note_on,64,0,7,,,,,,,,6,,,80,0
77680,note_on,16,0,7,,,,,,,,6,,,79,80
77744,note_on,64,0,7,,,,,,,,6,,,79,0
77760,note_on,288,0,8,,,,,,,,6,,,71,80
77760,note_on,0,0,8,,,,,,,,6,,,74,80
77760,note_on,16,0,7,,,,,,,,6,,,78,80
77952,note_on,192,0,8,,,,,,,,6,,,74,0
77952,note_on,0,0,8,,,,,,,,6,,,71,0
77952,note_on,192,0,7,,,,,,,,6,,,78,0
78000,note_on,48,0,8,,,,,,,,6,,,70,80
78000,note_on,0,0,8,,,,,,,,6,,,76,80
78000,note_on,48,0,7,,,,,,,,6,,,81,80
78096,note_on,96,0,7,,,,,,,,6,,,81,0
78120,note_on,24,0,7,,,,,,,,6,,,79,80
78192,note_on,0,0,8,,,,,,,,6,,,70,0
78192,note_on,192,0,8,,,,,,,,6,,,76,0
78216,note_on,96,0,7,,,,,,,,6,,,79,0
78240,note_on,48,0,8,,,,,,,,6,,,74,80
78240,note_on,0,0,8,,,,,,,,6,,,71,80
78240,note_on,24,0,7,,,,,,,,6,,,78,80
78432,note_on,192,0,7,,,,,,,,6,,,78,0
78432,note_on,0,0,8,,,,,,,,6,,,74,0
78432,note_on,192,0,8,,,,,,,,6,,,71,0
78540,note_on,108,0,7,,,,,,,,6,,,74,80
78588,note_on,48,0,7,,,,,,,,6,,,74,0
78600,note_on,2088,0,11,,,,,,,,10,,,71,80
78600,note_on,0,0,8,,,,,,,,6,,,71,80
78600,note_on,168,0,8,,,,,,,,6,,,59,80
78600,note_on,2088,0,9,,,,,,,,7,,,79,80
78600,note_on,12,0,7,,,,,,,,6,,,79,80
78600,note_on,2088,0,10,,,,,,,,8,,,74,80
78600,note_on,2088,0,13,,,,,,,,12,,,47,80
78600,note_on,2088,0,12,,,,,,,,11,,,59,80
78648,note_on,48,0,7,,,,,,,,6,,,79,0
78660,note_on,12,0,7,,,,,,,,6,,,86,80
78696,note_on,96,0,8,,,,,,,,6,,,71,0
78696,note_on,96,0,11,,,,,,,,10,,,71,0
78696,note_on,96,0,13,,,,,,,,12,,,47,0
78696,note_on,96,0,12,,,,,,,,11,,,59,0
78696,note_on,0,0,8,,,,,,,,6,,,59,0
78708,note_on,48,0,7,,,,,,,,6,,,86,0
78720,note_on,12,0,7,,,,,,,,6,,,85,80
78720,note_on,0,0,8,,,,,,,,6,,,69,80
78720,note_on,120,0,10,,,,,,,,8,,,73,80
78720,note_on,24,0,11,,,,,,,,10,,,69,80
78720,note_on,24,0,12,,,,,,,,11,,,57,80
78720,note_on,24,0,13,,,,,,,,12,,,45,80
78720,note_on,24,0,8,,,,,,,,6,,,57,80
78768,note_on,48,0,7,,,,,,,,6,,,85,0
78780,note_on,12,0,7,,,,,,,,6,,,73,80
78792,note_on,72,0,10,,,,,,,,8,,,74,0
78816,note_on,216,0,9,,,,,,,,7,,,79,0
78828,note_on,48,0,7,,,,,,,,6,,,73,0
78840,note_on,12,0,7,,,,,,,,6,,,78,80
78840,note_on,24,0,9,,,,,,,,7,,,78,80
78888,note_on,48,0,7,,,,,,,,6,,,78,0
78900,note_on,12,0,7,,,,,,,,6,,,85,80
78912,note_on,192,0,13,,,,,,,,12,,,45,0
78912,note_on,192,0,8,,,,,,,,6,,,69,0
78912,note_on,120,0,10,,,,,,,,8,,,73,0
78912,note_on,0,0,8,,,,,,,,6,,,57,0
78912,note_on,192,0,11,,,,,,,,10,,,69,0
78912,note_on,192,0,12,,,,,,,,11,,,57,0
78948,note_on,48,0,7,,,,,,,,6,,,85,0
78960,note_on,48,0,8,,,,,,,,6,,,67,80
78960,note_on,12,0,7,,,,,,,,6,,,83,80
78960,note_on,48,0,13,,,,,,,,12,,,43,80
78960,note_on,48,0,11,,,,,,,,10,,,67,80
78960,note_on,48,0,10,,,,,,,,8,,,71,80
78960,note_on,0,0,8,,,,,,,,6,,,55,80
78960,note_on,48,0,12,,,,,,,,11,,,55,80
79008,note_on,48,0,7,,,,,,,,6,,,83,0
79020,note_on,12,0,7,,,,,,,,6,,,71,80
79032,note_on,192,0,9,,,,,,,,7,,,78,0
79068,note_on,48,0,7,,,,,,,,6,,,71,0
79080,note_on,12,0,7,,,,,,,,6,,,76,80
79080,note_on,48,0,9,,,,,,,,7,,,76,80
79128,note_on,48,0,7,,,,,,,,6,,,76,0
79140,note_on,12,0,7,,,,,,,,6,,,83,80
79152,note_on,192,0,12,,,,,,,,11,,,55,0
79152,note_on,192,0,11,,,,,,,,10,,,67,0
79152,note_on,192,0,10,,,,,,,,8,,,71,0
79152,note_on,192,0,13,,,,,,,,12,,,43,0
79152,note_on,0,0,8,,,,,,,,6,,,67,0
79152,note_on,192,0,8,,,,,,,,6,,,55,0
79188,note_on,48,0,7,,,,,,,,6,,,83,0
79200,note_on,48,0,11,,,,,,,,10,,,66,80
79200,note_on,48,0,8,,,,,,,,6,,,66,80
79200,note_on,48,0,13,,,,,,,,12,,,42,80
79200,note_on,0,0,8,,,,,,,,6,,,54,80
79200,note_on,12,0,7,,,,,,,,6,,,81,80
79200,note_on,48,0,12,,,,,,,,11,,,54,80
79200,note_on,48,0,10,,,,,,,,8,,,69,80
79248,note_on,48,0,7,,,,,,,,6,,,81,0
79260,note_on,12,0,7,,,,,,,,6,,,69,80
79296,note_on,216,0,9,,,,,,,,7,,,76,0
79308,note_on,48,0,7,,,,,,,,6,,,69,0
79320,note_on,24,0,9,,,,,,,,7,,,74,80
79320,note_on,12,0,7,,,,,,,,6,,,74,80
79368,note_on,48,0,9,,,,,,,,7,,,74,0
79368,note_on,48,0,7,,,,,,,,6,,,74,0
79380,note_on,12,0,9,,,,,,,,7,,,73,80
79380,note_on,12,0,7,,,,,,,,6,,,78,80
79428,note_on,48,0,7,,,,,,,,6,,,78,0
79428,note_on,48,0,9,,,,,,,,7,,,73,0
79440,note_on,12,0,7,,,,,,,,6,,,81,80
79440,note_on,12,0,9,,,,,,,,7,,,74,80
79488,note_on,288,0,8,,,,,,,,6,,,54,0
79488,note_on,0,0,8,,,,,,,,6,,,66,0
79488,note_on,48,0,7,,,,,,,,6,,,81,0
79488,note_on,288,0,13,,,,,,,,12,,,42,0
79488,note_on,288,0,10,,,,,,,,8,,,69,0
79488,note_on,288,0,11,,,,,,,,10,,,66,0
79488,note_on,288,0,12,,,,,,,,11,,,54,0
79500,note_on,12,0,7,,,,,,,,6,,,78,80
79536,note_on,96,0,9,,,,,,,,7,,,74,0
79548,note_on,48,0,7,,,,,,,,6,,,78,0
79560,note_on,72,0,12,,,,,,,,11,,,55,80
79560,note_on,72,0,8,,,,,,,,6,,,55,80
79560,note_on,72,0,13,,,,,,,,12,,,43,80
79560,note_on,24,0,9,,,,,,,,7,,,76,80
79560,note_on,72,0,11,,,,,,,,10,,,67,80
79560,note_on,72,0,10,,,,,,,,8,,,71,80
79560,note_on,12,0,7,,,,,,,,6,,,76,80
79560,note_on,0,0,8,,,,,,,,6,,,67,80
79608,note_on,48,0,7,,,,,,,,6,,,76,0
79620,note_on,12,0,7,,,,,,,,6,,,83,80
79656,note_on,96,0,10,,,,,,,,8,,,71,0
79656,note_on,96,0,12,,,,,,,,11,,,55,0
79656,note_on,96,0,13,,,,,,,,12,,,43,0
79656,note_on,0,0,8,,,,,,,,6,,,55,0
79656,note_on,96,0,8,,,,,,,,6,,,67,0
79656,note_on,96,0,11,,,,,,,,10,,,67,0
79668,note_on,48,0,7,,,,,,,,6,,,83,0
79680,note_on,24,0,11,,,,,,,,10,,,66,80
79680,note_on,12,0,7,,,,,,,,6,,,81,80
79680,note_on,0,0,8,,,,,,,,6,,,66,80
79680,note_on,24,0,12,,,,,,,,11,,,54,80
79680,note_on,24,0,8,,,,,,,,6,,,54,80
79680,note_on,24,0,13,,,,,,,,12,,,42,80
79680,note_on,24,0,10,,,,,,,,8,,,69,80
79728,note_on,48,0,7,,,,,,,,6,,,81,0
79740,note_on,12,0,7,,,,,,,,6,,,69,80
79776,note_on,216,0,9,,,,,,,,7,,,76,0
79788,note_on,48,0,7,,,,,,,,6,,,69,0
79800,note_on,24,0,9,,,,,,,,7,,,74,80
79800,note_on,12,0,7,,,,,,,,6,,,74,80
79848,note_on,48,0,7,,,,,,,,6,,,74,0
79860,note_on,12,0,7,,,,,,,,6,,,81,80
79872,note_on,192,0,12,,,,,,,,11,,,54,0
79872,note_on,0,0,8,,,,,,,,6,,,54,0
79872,note_on,192,0,13,,,,,,,,12,,,42,0
79872,note_on,192,0,10,,,,,,,,8,,,69,0
79872,note_on,192,0,8,,,,,,,,6,,,66,0
79872,note_on,192,0,11,,,,,,,,10,,,66,0
79908,note_on,48,0,7,,,,,,,,6,,,81,0
79920,note_on,48,0,8,,,,,,,,6,,,64,80
79920,note_on,12,0,7,,,,,,,,6,,,79,80
79920,note_on,48,0,13,,,,,,,,12,,,40,80
79920,note_on,48,0,11,,,,,,,,10,,,64,80
79920,note_on,48,0,12,,,,,,,,11,,,52,80
79920,note_on,48,0,10,,,,,,,,8,,,67,80
79920,note_on,0,0,8,,,,,,,,6,,,52,80
79968,note_on,48,0,7,,,,,,,,6,,,79,0
79980,note_on,12,0,7,,,,,,,,6,,,67,80
79992,note_on,192,0,9,,,,,,,,7,,,74,0
80028,note_on,48,0,7,,,,,,,,6,,,67,0
80040,note_on,12,0,7,,,,,,,,6,,,73,80
80040,note_on,48,0,9,,,,,,,,7,,,73,80
80088,note_on,48,0,7,,,,,,,,6,,,73,0
80100,note_on,12,0,7,,,,,,,,6,,,79,80
80112,note_on,0,0,8,,,,,,,,6,,,64,0
80112,note_on,192,0,11,,,,,,,,10,,,64,0
80112,note_on,192,0,8,,,,,,,,6,,,52,0
80112,note_on,192,0,10,,,,,,,,8,,,67,0
80112,note_on,192,0,13,,,,,,,,12,,,40,0
80112,note_on,192,0,12,,,,,,,,11,,,52,0
80148,note_on,48,0,7,,,,,,,,6,,,79,0
80160,note_on,48,0,8,,,,,,,,6,,,62,80
80160,note_on,48,0,10,,,,,,,,8,,,66,80
80160,note_on,48,0,13,,,,,,,,12,,,38,80
80160,note_on,48,0,12,,,,,,,,11,,,50,80
80160,note_on,0,0,8,,,,,,,,6,,,50,80
80160,note_on,12,0,7,,,,,,,,6,,,78,80
80160,note_on,48,0,11,,,,,,,,10,,,62,80
80208,note_on,48,0,7,,,,,,,,6,,,78,0
80220,note_on,12,0,7,,,,,,,,6,,,66,80
80256,note_on,216,0,9,,,,,,,,7,,,73,0
80268,note_on,48,0,7,,,,,,,,6,,,66,0
80280,note_on,24,0,9,,,,,,,,7,,,71,80
80280,note_on,12,0,7,,,,,,,,6,,,71,80
80328,note_on,48,0,7,,,,,,,,6,,,71,0
80328,note_on,48,0,9,,,,,,,,7,,,71,0
80340,note_on,12,0,9,,,,,,,,7,,,70,80
80340,note_on,12,0,7,,,,,,,,6,,,74,80
80388,note_on,48,0,7,,,,,,,,6,,,74,0
80388,note_on,48,0,9,,,,,,,,7,,,70,0
80400,note_on,12,0,7,,,,,,,,6,,,78,80
80400,note_on,12,0,9,,,,,,,,7,,,71,80
80448,note_on,288,0,12,,,,,,,,11,,,50,0
80448,note_on,288,0,10,,,,,,,,8,,,66,0
80448,note_on,288,0,11,,,,,,,,10,,,62,0
80448,note_on,288,0,8,,,,,,,,6,,,50,0
80448,note_on,0,0,8,,,,,,,,6,,,62,0
80448,note_on,288,0,13,,,,,,,,12,,,38,0
80448,note_on,48,0,7,,,,,,,,6,,,78,0
80460,note_on,12,0,7,,,,,,,,6,,,74,80
80496,note_on,96,0,9,,,,,,,,7,,,71,0
80508,note_on,48,0,7,,,,,,,,6,,,74,0
80520,note_on,72,0,11,,,,,,,,10,,,64,80
80520,note_on,24,0,9,,,,,,,,7,,,73,80
80520,note_on,72,0,10,,,,,,,,8,,,67,80
80520,note_on,72,0,13,,,,,,,,12,,,40,80
80520,note_on,12,0,7,,,,,,,,6,,,73,80
80520,note_on,72,0,8,,,,,,,,6,,,52,80
80520,note_on,72,0,12,,,,,,,,11,,,52,80
80520,note_on,0,0,8,,,,,,,,6,,,64,80
80568,note_on,48,0,7,,,,,,,,6,,,73,0
80580,note_on,12,0,7,,,,,,,,6,,,79,80
80616,note_on,96,0,8,,,,,,,,6,,,64,0
80616,note_on,96,0,13,,,,,,,,12,,,40,0
80616,note_on,96,0,12,,,,,,,,11,,,52,0
80616,note_on,96,0,10,,,,,,,,8,,,67,0
80616,note_on,0,0,8,,,,,,,,6,,,52,0
80616,note_on,96,0,11,,,,,,,,10,,,64,0
80628,note_on,48,0,7,,,,,,,,6,,,79,0
80640,note_on,24,0,11,,,,,,,,10,,,62,80
80640,note_on,12,0,7,,,,,,,,6,,,78,80
80640,note_on,24,0,13,,,,,,,,12,,,38,80
80640,note_on,24,0,10,,,,,,,,8,,,66,80
80640,note_on,24,0,8,,,,,,,,6,,,50,80
80640,note_on,0,0,8,,,,,,,,6,,,62,80
80640,note_on,24,0,12,,,,,,,,11,,,50,80
80688,note_on,48,0,7,,,,,,,,6,,,78,0
80700,note_on,12,0,7,,,,,,,,6,,,66,80
80736,note_on,216,0,9,,,,,,,,7,,,73,0
80748,note_on,48,0,7,,,,,,,,6,,,66,0
80760,note_on,24,0,9,,,,,,,,7,,,71,80
80760,note_on,12,0,7,,,,,,,,6,,,71,80
80808,note_on,48,0,7,,,,,,,,6,,,71,0
80820,note_on,12,0,7,,,,,,,,6,,,78,80
80832,note_on,192,0,10,,,,,,,,8,,,66,0
80832,note_on,0,0,8,,,,,,,,6,,,50,0
80832,note_on,192,0,13,,,,,,,,12,,,38,0
80832,note_on,192,0,11,,,,,,,,10,,,62,0
80832,note_on,192,0,12,,,,,,,,11,,,50,0
80832,note_on,192,0,8,,,,,,,,6,,,62,0
80868,note_on,48,0,7,,,,,,,,6,,,78,0
80880,note_on,48,0,10,,,,,,,,8,,,64,80
80880,note_on,12,0,7,,,,,,,,6,,,76,80
80880,note_on,48,0,12,,,,,,,,11,,,49,80
80880,note_on,48,0,13,,,,,,,,12,,,37,80
80880,note_on,48,0,8,,,,,,,,6,,,49,80
80880,note_on,0,0,8,,,,,,,,6,,,61,80
80880,note_on,48,0,11,,,,,,,,10,,,61,80
80928,note_on,48,0,7,,,,,,,,6,,,76,0
80940,note_on,12,0,7,,,,,,,,6,,,64,80
80952,note_on,192,0,9,,,,,,,,7,,,71,0
80988,note_on,48,0,7,,,,,,,,6,,,64,0
81000,note_on,48,0,9,,,,,,,,7,,,70,80
81000,note_on,12,0,7,,,,,,,,6,,,70,80
81048,note_on,48,0,7,,,,,,,,6,,,70,0
81060,note_on,12,0,7,,,,,,,,6,,,76,80
81072,note_on,192,0,11,,,,,,,,10,,,61,0
81072,note_on,192,0,13,,,,,,,,12,,,37,0
81072,note_on,192,0,10,,,,,,,,8,,,64,0
81072,note_on,192,0,12,,,,,,,,11,,,49,0
81072,note_on,0,0,8,,,,,,,,6,,,49,0
81072,note_on,192,0,8,,,,,,,,6,,,61,0
81096,note_on,96,0,9,,,,,,,,7,,,70,0
81108,note_on,48,0,7,,,,,,,,6,,,76,0
81120,note_on,48,0,8,,,,,,,,6,,,47,80
81120,note_on,24,0,9,,,,,,,,7,,,71,80
81120,note_on,48,0,12,,,,,,,,11,,,47,80
81120,note_on,48,0,10,,,,,,,,8,,,62,80
81120,note_on,48,0,13,,,,,,,,12,,,35,80
81120,note_on,12,0,7,,,,,,,,6,,,74,80
81120,note_on,48,0,11,,,,,,,,10,,,59,80
81168,note_on,48,0,7,,,,,,,,6,,,74,0
81180,note_on,12,0,7,,,,,,,,6,,,78,80
81216,note_on,96,0,9,,,,,,,,7,,,71,0
81216,note_on,96,0,12,,,,,,,,11,,,47,0
81216,note_on,96,0,13,,,,,,,,12,,,35,0
81216,note_on,96,0,10,,,,,,,,8,,,62,0
81216,note_on,96,0,8,,,,,,,,6,,,47,0
81228,note_on,48,0,7,,,,,,,,6,,,78,0
81240,note_on,24,0,10,,,,,,,,8,,,66,80
81240,note_on,24,0,8,,,,,,,,6,,,50,80
81240,note_on,24,0,12,,,,,,,,11,,,50,80
81240,note_on,24,0,13,,,,,,,,12,,,38,80
81240,note_on,24,0,9,,,,,,,,7,,,71,80
81240,note_on,12,0,7,,,,,,,,6,,,83,80
81288,note_on,48,0,7,,,,,,,,6,,,83,0
81300,note_on,12,0,7,,,,,,,,6,,,78,80
81336,note_on,96,0,10,,,,,,,,8,,,66,0
81336,note_on,96,0,12,,,,,,,,11,,,50,0
81336,note_on,96,0,13,,,,,,,,12,,,38,0
81336,note_on,96,0,8,,,,,,,,6,,,50,0
81348,note_on,48,0,7,,,,,,,,6,,,78,0
81360,note_on,24,0,13,,,,,,,,12,,,40,80
81360,note_on,24,0,12,,,,,,,,11,,,52,80
81360,note_on,24,0,8,,,,,,,,6,,,52,80
81360,note_on,24,0,10,,,,,,,,8,,,67,80
81360,note_on,12,0,7,,,,,,,,6,,,79,80
81408,note_on,48,0,7,,,,,,,,6,,,79,0
81408,note_on,288,0,11,,,,,,,,10,,,59,0
81420,note_on,12,0,7,,,,,,,,6,,,83,80
81432,note_on,192,0,9,,,,,,,,7,,,71,0
81456,note_on,96,0,13,,,,,,,,12,,,40,0
81456,note_on,96,0,10,,,,,,,,8,,,67,0
81456,note_on,96,0,8,,,,,,,,6,,,52,0
81456,note_on,96,0,12,,,,,,,,11,,,52,0
81468,note_on,48,0,7,,,,,,,,6,,,83,0
81480,note_on,24,0,12,,,,,,,,11,,,55,80
81480,note_on,24,0,10,,,,,,,,8,,,64,80
81480,note_on,24,0,13,,,,,,,,12,,,43,80
81480,note_on,72,0,11,,,,,,,,10,,,59,80
81480,note_on,24,0,8,,,,,,,,6,,,55,80
81480,note_on,12,0,7,,,,,,,,6,,,73,80
81480,note_on,48,0,9,,,,,,,,7,,,71,80
81528,note_on,48,0,7,,,,,,,,6,,,73,0
81540,note_on,12,0,7,,,,,,,,6,,,76,80
81576,note_on,96,0,11,,,,,,,,10,,,59,0
81576,note_on,96,0,12,,,,,,,,11,,,55,0
81576,note_on,96,0,9,,,,,,,,7,,,71,0
81576,note_on,96,0,13,,,,,,,,12,,,43,0
81576,note_on,96,0,10,,,,,,,,8,,,64,0
81576,note_on,96,0,8,,,,,,,,6,,,55,0
81588,note_on,48,0,7,,,,,,,,6,,,76,0
81600,note_on,24,0,11,,,,,,,,10,,,66,80
81600,note_on,24,0,10,,,,,,,,8,,,62,80
81600,note_on,12,0,7,,,,,,,,6,,,74,80
81600,note_on,24,0,13,,,,,,,,12,,,42,80
81600,note_on,24,0,9,,,,,,,,7,,,71,80
81600,note_on,24,0,8,,,,,,,,6,,,54,80
81600,note_on,24,0,12,,,,,,,,11,,,54,80
81648,note_on,48,0,7,,,,,,,,6,,,74,0
81660,note_on,12,0,7,,,,,,,,6,,,78,80
81708,note_on,48,0,7,,,,,,,,6,,,78,0
81720,note_on,12,0,7,,,,,,,,6,,,71,80
81768,note_on,48,0,7,,,,,,,,6,,,71,0
81780,note_on,12,0,7,,,,,,,,6,,,74,80
81792,note_on,192,0,12,,,,,,,,11,,,54,0
81792,note_on,192,0,8,,,,,,,,6,,,54,0
81792,note_on,192,0,13,,,,,,,,12,,,42,0
81792,note_on,192,0,9,,,,,,,,7,,,71,0
81792,note_on,192,0,11,,,,,,,,10,,,66,0
81792,note_on,192,0,10,,,,,,,,8,,,62,0
81828,note_on,48,0,7,,,,,,,,6,,,74,0
81840,note_on,12,0,7,,,,,,,,6,,,73,80
81840,note_on,48,0,12,,,,,,,,11,,,42,80
81840,note_on,48,0,10,,,,,,,,8,,,61,80
81840,note_on,48,0,11,,,,,,,,10,,,64,80
81840,note_on,48,0,13,,,,,,,,12,,,30,80
81840,note_on,48,0,8,,,,,,,,6,,,42,80
81840,note_on,48,0,9,,,,,,,,7,,,70,80
81888,note_on,48,0,7,,,,,,,,6,,,73,0
81900,note_on,12,0,7,,,,,,,,6,,,76,80
81948,note_on,48,0,7,,,,,,,,6,,,76,0
81960,note_on,12,0,7,,,,,,,,6,,,70,80
82008,note_on,48,0,7,,,,,,,,6,,,70,0
82020,note_on,12,0,7,,,,,,,,6,,,73,80
82032,note_on,192,0,9,,,,,,,,7,,,70,0
82032,note_on,192,0,11,,,,,,,,10,,,64,0
82032,note_on,192,0,12,,,,,,,,11,,,42,0
82032,note_on,192,0,10,,,,,,,,8,,,61,0
82032,note_on,192,0,8,,,,,,,,6,,,42,0
82032,note_on,192,0,13,,,,,,,,12,,,30,0
82068,note_on,48,0,7,,,,,,,,6,,,73,0
82080,note_on,48,0,8,,,,,,,,6,,,43,80
82080,note_on,9408,0,3,,,,,,,,2,,,59,80
82080,note_on,48,0,11,,,,,,,,10,,,62,80
82080,note_on,48,0,12,,,,,,,,11,,,43,80
82080,note_on,48,0,13,,,,,,,,12,,,31,80
82080,note_on,48,0,9,,,,,,,,7,,,71,80
82080,note_on,12,0,7,,,,,,,,6,,,71,80
82080,note_on,9408,0,2,,,,,,,,1,,,74,80
82080,note_on,9408,0,1,,,,,,,,0,,,83,80
82080,note_on,48,0,10,,,,,,,,8,,,59,80
82128,note_on,48,0,7,,,,,,,,6,,,71,0
82140,note_on,12,0,7,,,,,,,,6,,,74,80
82188,note_on,48,0,7,,,,,,,,6,,,74,0
82200,note_on,12,0,7,,,,,,,,6,,,78,80
82248,note_on,48,0,7,,,,,,,,6,,,78,0
82260,note_on,12,0,7,,,,,,,,6,,,83,80
82272,note_on,192,0,8,,,,,,,,6,,,43,0
82272,note_on,192,0,10,,,,,,,,8,,,59,0
82272,note_on,192,0,1,,,,,,,,0,,,83,0
82272,note_on,192,0,12,,,,,,,,11,,,43,0
82272,note_on,192,0,2,,,,,,,,1,,,74,0
82272,note_on,192,0,13,,,,,,,,12,,,31,0
82272,note_on,192,0,11,,,,,,,,10,,,62,0
82272,note_on,192,0,9,,,,,,,,7,,,71,0
82308,note_on,48,0,7,,,,,,,,6,,,83,0
82320,note_on,48,0,1,,,,,,,,0,,,79,80
82320,note_on,12,0,7,,,,,,,,6,,,67,80
82320,note_on,48,0,2,,,,,,,,1,,,76,80
82320,note_on,48,0,8,,,,,,,,6,,,52,80
82368,note_on,48,0,7,,,,,,,,6,,,67,0
82380,note_on,12,0,7,,,,,,,,6,,,73,80
82428,note_on,48,0,7,,,,,,,,6,,,73,0
82440,note_on,12,0,7,,,,,,,,6,,,76,80
82464,note_on,384,0,3,,,,,,,,2,,,59,0
82488,note_on,48,0,7,,,,,,,,6,,,76,0
82500,note_on,12,0,7,,,,,,,,6,,,79,80
82512,note_on,192,0,1,,,,,,,,0,,,79,0
82512,note_on,192,0,2,,,,,,,,1,,,76,0
82512,note_on,192,0,8,,,,,,,,6,,,52,0
82548,note_on,48,0,7,,,,,,,,6,,,79,0
82560,note_on,48,0,1,,,,,,,,0,,,78,80
82560,note_on,0,0,3,,,,,,,,2,,,66,80
82560,note_on,96,0,3,,,,,,,,2,,,54,80
82560,note_on,12,0,7,,,,,,,,6,,,66,80
82560,note_on,48,0,8,,,,,,,,6,,,54,80
82560,note_on,48,0,2,,,,,,,,1,,,74,80
82608,note_on,48,0,7,,,,,,,,6,,,66,0
82620,note_on,12,0,7,,,,,,,,6,,,71,80
82668,note_on,48,0,7,,,,,,,,6,,,71,0
82680,note_on,12,0,7,,,,,,,,6,,,74,80
82728,note_on,48,0,7,,,,,,,,6,,,74,0
82740,note_on,12,0,7,,,,,,,,6,,,78,80
82752,note_on,192,0,1,,,,,,,,0,,,78,0
82752,note_on,192,0,2,,,,,,,,1,,,74,0
82752,note_on,192,0,8,,,,,,,,6,,,54,0
82752,note_on,192,0,3,,,,,,,,2,,,66,0
82788,note_on,48,0,7,,,,,,,,6,,,78,0
82800,note_on,48,0,2,,,,,,,,1,,,73,80
82800,note_on,48,0,8,,,,,,,,6,,,42,80
82800,note_on,48,0,1,,,,,,,,0,,,70,80
82800,note_on,48,0,3,,,,,,,,2,,,64,80
82800,note_on,12,0,7,,,,,,,,6,,,61,80
82848,note_on,48,0,7,,,,,,,,6,,,61,0
82860,note_on,12,0,7,,,,,,,,6,,,64,80
82908,note_on,48,0,7,,,,,,,,6,,,64,0
82920,note_on,12,0,7,,,,,,,,6,,,66,80
82944,note_on,144,0,3,,,,,,,,2,,,54,0
82968,note_on,48,0,7,,,,,,,,6,,,66,0
82980,note_on,12,0,7,,,,,,,,6,,,70,80
82992,note_on,48,0,3,,,,,,,,2,,,64,0
82992,note_on,192,0,2,,,,,,,,1,,,73,0
82992,note_on,192,0,8,,,,,,,,6,,,42,0
82992,note_on,192,0,1,,,,,,,,0,,,70,0
83028,note_on,48,0,7,,,,,,,,6,,,70,0
83040,note_on,48,0,2,,,,,,,,1,,,71,80
83040,note_on,768,0,11,,,,,,,,10,,,71,80
83040,note_on,48,0,1,,,,,,,,0,,,71,80
83040,note_on,12,0,7,,,,,,,,6,,,71,80
83040,note_on,768,0,9,,,,,,,,7,,,78,80
83040,note_on,0,0,3,,,,,,,,2,,,59,80
83040,note_on,48,0,8,,,,,,,,6,,,47,80
83040,note_on,48,0,3,,,,,,,,2,,,62,80
83040,note_on,768,0,10,,,,,,,,8,,,74,80
83136,note_on,96,0,11,,,,,,,,10,,,71,0
83136,note_on,96,0,10,,,,,,,,8,,,74,0
83160,note_on,24,0,11,,,,,,,,10,,,71,80
83160,note_on,24,0,10,,,,,,,,8,,,74,80
83232,note_on,192,0,8,,,,,,,,6,,,47,0
83232,note_on,0,0,3,,,,,,,,2,,,62,0
83232,note_on,192,0,2,,,,,,,,1,,,71,0
83232,note_on,192,0,3,,,,,,,,2,,,59,0
83232,note_on,192,0,1,,,,,,,,0,,,71,0
83232,note_on,192,0,7,,,,,,,,6,,,71,0
83256,note_on,96,0,11,,,,,,,,10,,,71,0
83256,note_on,96,0,10,,,,,,,,8,,,74,0
83280,note_on,24,0,11,,,,,,,,10,,,71,80
83280,note_on,24,0,10,,,,,,,,8,,,74,80
83328,note_on,288,0,9,,,,,,,,7,,,78,0
83376,note_on,96,0,11,,,,,,,,10,,,71,0
83376,note_on,96,0,10,,,,,,,,8,,,74,0
83400,note_on,24,0,11,,,,,,,,10,,,71,80
83400,note_on,72,0,9,,,,,,,,7,,,83,80
83400,note_on,24,0,10,,,,,,,,8,,,74,80
83496,note_on,96,0,10,,,,,,,,8,,,74,0
83496,note_on,96,0,11,,,,,,,,10,,,71,0
83496,note_on,96,0,9,,,,,,,,7,,,83,0
83520,note_on,24,0,11,,,,,,,,10,,,73,80
83520,note_on,24,0,10,,,,,,,,8,,,78,80
83520,note_on,24,0,9,,,,,,,,7,,,81,80
83616,note_on,96,0,9,,,,,,,,7,,,81,0
83616,note_on,96,0,11,,,,,,,,10,,,73,0
83616,note_on,96,0,10,,,,,,,,8,,,78,0
83640,note_on,24,0,11,,,,,,,,10,,,73,80
83640,note_on,24,0,10,,,,,,,,8,,,78,80
83640,note_on,24,0,9,,,,,,,,7,,,81,80
83736,note_on,96,0,10,,,,,,,,8,,,78,0
83736,note_on,96,0,9,,,,,,,,7,,,81,0
83736,note_on,96,0,11,,,,,,,,10,,,73,0
83760,note_on,24,0,11,,,,,,,,10,,,73,80
83760,note_on,24,0,10,,,,,,,,8,,,78,80
83760,note_on,24,0,9,,,,,,,,7,,,81,80
83856,note_on,96,0,10,,,,,,,,8,,,78,0
83856,note_on,96,0,11,,,,,,,,10,,,73,0
83856,note_on,96,0,9,,,,,,,,7,,,81,0
83880,note_on,24,0,9,,,,,,,,7,,,81,80
83880,note_on,24,0,10,,,,,,,,8,,,78,80
83880,note_on,24,0,11,,,,,,,,10,,,73,80
83928,note_on,48,0,9,,,,,,,,7,,,81,0
83940,note_on,12,0,9,,,,,,,,7,,,83,80
83976,note_on,96,0,11,,,,,,,,10,,,73,0
83976,note_on,96,0,10,,,,,,,,8,,,78,0
83988,note_on,48,0,9,,,,,,,,7,,,83,0
84000,note_on,12,0,9,,,,,,,,7,,,80,80
84000,note_on,24,0,11,,,,,,,,10,,,71,80
84000,note_on,0,0,11,,,,,,,,10,,,61,80
84000,note_on,24,0,10,,,,,,,,8,,,77,80
84096,note_on,96,0,10,,,,,,,,8,,,77,0
84096,note_on,0,0,11,,,,,,,,10,,,71,0
84096,note_on,96,0,9,,,,,,,,7,,,80,0
84096,note_on,96,0,11,,,,,,,,10,,,61,0
84120,note_on,24,0,9,,,,,,,,7,,,80,80
84120,note_on,24,0,11,,,,,,,,10,,,61,80
84120,note_on,0,0,11,,,,,,,,10,,,71,80
84120,note_on,24,0,10,,,,,,,,8,,,77,80
84216,note_on,96,0,9,,,,,,,,7,,,80,0
84216,note_on,96,0,10,,,,,,,,8,,,77,0
84216,note_on,96,0,11,,,,,,,,10,,,71,0
84216,note_on,0,0,11,,,,,,,,10,,,61,0
84240,note_on,24,0,10,,,,,,,,8,,,77,80
84240,note_on,24,0,9,,,,,,,,7,,,80,80
84240,note_on,0,0,11,,,,,,,,10,,,61,80
84240,note_on,24,0,11,,,,,,,,10,,,71,80
84336,note_on,96,0,9,,,,,,,,7,,,80,0
84336,note_on,96,0,10,,,,,,,,8,,,77,0
84336,note_on,96,0,11,,,,,,,,10,,,61,0
84336,note_on,0,0,11,,,,,,,,10,,,71,0
84360,note_on,24,0,11,,,,,,,,10,,,61,80
84360,note_on,0,0,11,,,,,,,,10,,,71,80
84360,note_on,24,0,9,,,,,,,,7,,,80,80
84360,note_on,24,0,10,,,,,,,,8,,,77,80
84408,note_on,48,0,9,,,,,,,,7,,,80,0
84420,note_on,12,0,9,,,,,,,,7,,,81,80
84456,note_on,0,0,11,,,,,,,,10,,,61,0
84456,note_on,96,0,11,,,,,,,,10,,,71,0
84456,note_on,96,0,10,,,,,,,,8,,,77,0
84468,note_on,48,0,9,,,,,,,,7,,,81,0
84480,note_on,24,0,10,,,,,,,,8,,,78,80
84480,note_on,12,0,9,,,,,,,,7,,,78,80
84480,note_on,24,0,11,,,,,,,,10,,,70,80
84480,note_on,0,0,11,,,,,,,,10,,,66,80
84672,note_on,192,0,9,,,,,,,,7,,,78,0
84672,note_on,0,0,11,,,,,,,,10,,,70,0
84672,note_on,192,0,10,,,,,,,,8,,,78,0
84672,note_on,192,0,11,,,,,,,,10,,,66,0
84960,note_on,288,0,11,,,,,,,,10,,,59,80
84960,note_on,2688,0,12,,,,,,,,11,,,55,80
84960,note_on,288,0,10,,,,,,,,8,,,64,80
84960,note_on,288,0,9,,,,,,,,7,,,71,80
85056,note_on,96,0,10,,,,,,,,8,,,64,0
85056,note_on,96,0,12,,,,,,,,11,,,55,0
85056,note_on,96,0,11,,,,,,,,10,,,59,0
85080,note_on,24,0,12,,,,,,,,11,,,55,80
85080,note_on,24,0,10,,,,,,,,8,,,64,80
85080,note_on,24,0,11,,,,,,,,10,,,59,80
85176,note_on,96,0,12,,,,,,,,11,,,55,0
85176,note_on,96,0,10,,,,,,,,8,,,64,0
85176,note_on,96,0,11,,,,,,,,10,,,59,0
85200,note_on,24,0,10,,,,,,,,8,,,64,80
85200,note_on,24,0,12,,,,,,,,11,,,55,80
85200,note_on,24,0,11,,,,,,,,10,,,59,80
85248,note_on,288,0,9,,,,,,,,7,,,71,0
85296,note_on,96,0,11,,,,,,,,10,,,59,0
85296,note_on,96,0,10,,,,,,,,8,,,64,0
85296,note_on,96,0,12,,,,,,,,11,,,55,0
85320,note_on,24,0,10,,,,,,,,8,,,64,80
85320,note_on,24,0,12,,,,,,,,11,,,55,80
85320,note_on,72,0,9,,,,,,,,7,,,76,80
85320,note_on,24,0,11,,,,,,,,10,,,59,80
85416,note_on,96,0,9,,,,,,,,7,,,76,0
85416,note_on,96,0,11,,,,,,,,10,,,59,0
85416,note_on,96,0,10,,,,,,,,8,,,64,0
85416,note_on,96,0,12,,,,,,,,11,,,55,0
85440,note_on,24,0,11,,,,,,,,10,,,66,80
85440,note_on,24,0,12,,,,,,,,11,,,54,80
85440,note_on,24,0,9,,,,,,,,7,,,74,80
85440,note_on,24,0,10,,,,,,,,8,,,71,80
85536,note_on,96,0,11,,,,,,,,10,,,66,0
85536,note_on,96,0,9,,,,,,,,7,,,74,0
85536,note_on,96,0,10,,,,,,,,8,,,71,0
85536,note_on,96,0,12,,,,,,,,11,,,54,0
85560,note_on,24,0,9,,,,,,,,7,,,74,80
85560,note_on,24,0,12,,,,,,,,11,,,54,80
85560,note_on,24,0,11,,,,,,,,10,,,66,80
85560,note_on,24,0,10,,,,,,,,8,,,71,80
85656,note_on,96,0,9,,,,,,,,7,,,74,0
85656,note_on,96,0,10,,,,,,,,8,,,71,0
85656,note_on,96,0,11,,,,,,,,10,,,66,0
85656,note_on,96,0,12,,,,,,,,11,,,54,0
85680,note_on,24,0,9,,,,,,,,7,,,74,80
85680,note_on,24,0,11,,,,,,,,10,,,66,80
85680,note_on,24,0,12,,,,,,,,11,,,54,80
85680,note_on,24,0,10,,,,,,,,8,,,71,80
85776,note_on,96,0,11,,,,,,,,10,,,66,0
85776,note_on,96,0,9,,,,,,,,7,,,74,0
85776,note_on,96,0,12,,,,,,,,11,,,54,0
85776,note_on,96,0,10,,,,,,,,8,,,71,0
85800,note_on,24,0,9,,,,,,,,7,,,74,80
85800,note_on,24,0,11,,,,,,,,10,,,66,80
85800,note_on,24,0,12,,,,,,,,11,,,54,80
85800,note_on,24,0,10,,,,,,,,8,,,71,80
85848,note_on,48,0,9,,,,,,,,7,,,74,0
85860,note_on,12,0,9,,,,,,,,7,,,76,80
85896,note_on,96,0,11,,,,,,,,10,,,66,0
85896,note_on,96,0,12,,,,,,,,11,,,54,0
85896,note_on,96,0,10,,,,,,,,8,,,71,0
85908,note_on,48,0,9,,,,,,,,7,,,76,0
85920,note_on,24,0,10,,,,,,,,8,,,70,80
85920,note_on,24,0,11,,,,,,,,10,,,64,80
85920,note_on,12,0,9,,,,,,,,7,,,73,80
85920,note_on,24,0,12,,,,,,,,11,,,42,80
86016,note_on,96,0,11,,,,,,,,10,,,64,0
86016,note_on,96,0,12,,,,,,,,11,,,42,0
86016,note_on,96,0,9,,,,,,,,7,,,73,0
86016,note_on,96,0,10,,,,,,,,8,,,70,0
86040,note_on,24,0,11,,,,,,,,10,,,64,80
86040,note_on,24,0,12,,,,,,,,11,,,42,80
86040,note_on,24,0,9,,,,,,,,7,,,73,80
86040,note_on,24,0,10,,,,,,,,8,,,70,80
86136,note_on,96,0,12,,,,,,,,11,,,42,0
86136,note_on,96,0,9,,,,,,,,7,,,73,0
86136,note_on,96,0,11,,,,,,,,10,,,64,0
86136,note_on,96,0,10,,,,,,,,8,,,70,0
86160,note_on,24,0,12,,,,,,,,11,,,42,80
86160,note_on,24,0,11,,,,,,,,10,,,64,80
86160,note_on,24,0,10,,,,,,,,8,,,70,80
86160,note_on,24,0,9,,,,,,,,7,,,73,80
86256,note_on,96,0,9,,,,,,,,7,,,73,0
86256,note_on,96,0,11,,,,,,,,10,,,64,0
86256,note_on,96,0,10,,,,,,,,8,,,70,0
86256,note_on,96,0,12,,,,,,,,11,,,42,0
86280,note_on,24,0,12,,,,,,,,11,,,42,80
86280,note_on,24,0,11,,,,,,,,10,,,64,80
86280,note_on,24,0,9,,,,,,,,7,,,73,80
86280,note_on,24,0,10,,,,,,,,8,,,70,80
86328,note_on,48,0,9,,,,,,,,7,,,73,0
86340,note_on,12,0,9,,,,,,,,7,,,74,80
86376,note_on,96,0,10,,,,,,,,8,,,70,0
86376,note_on,96,0,12,,,,,,,,11,,,42,0
86376,note_on,96,0,11,,,,,,,,10,,,64,0
86388,note_on,48,0,9,,,,,,,,7,,,74,0
86400,note_on,24,0,10,,,,,,,,8,,,71,80
86400,note_on,24,0,11,,,,,,,,10,,,62,80
86400,note_on,12,0,9,,,,,,,,7,,,71,80
86400,note_on,24,0,12,,,,,,,,11,,,47,80
86400,note_on,3168,0,7,,,,,,,,6,,,71,80
86464,note_on,64,0,7,,,,,,,,6,,,71,0
86480,note_on,16,0,7,,,,,,,,6,,,73,80
86544,note_on,64,0,7,,,,,,,,6,,,73,0
86560,note_on,16,0,7,,,,,,,,6,,,74,80
86592,note_on,192,0,12,,,,,,,,11,,,47,0
86592,note_on,192,0,11,,,,,,,,10,,,62,0
86592,note_on,192,0,9,,,,,,,,7,,,71,0
86592,note_on,192,0,10,,,,,,,,8,,,71,0
86624,note_on,64,0,7,,,,,,,,6,,,74,0
86640,note_on,16,0,7,,,,,,,,6,,,75,80
86704,note_on,64,0,7,,,,,,,,6,,,75,0
86720,note_on,16,0,7,,,,,,,,6,,,76,80
86784,note_on,64,0,7,,,,,,,,6,,,76,0
86800,note_on,16,0,7,,,,,,,,6,,,77,80
86864,note_on,64,0,7,,,,,,,,6,,,77,0
86880,note_on,16,0,7,,,,,,,,6,,,78,80
86880,note_on,3648,0,8,,,,,,,,6,,,62,80
86880,note_on,0,0,8,,,,,,,,6,,,66,80
86976,note_on,0,0,8,,,,,,,,6,,,62,0
86976,note_on,96,0,8,,,,,,,,6,,,66,0
87000,note_on,24,0,8,,,,,,,,6,,,62,80
87000,note_on,0,0,8,,,,,,,,6,,,66,80
87096,note_on,0,0,8,,,,,,,,6,,,62,0
87096,note_on,96,0,8,,,,,,,,6,,,66,0
87120,note_on,0,0,8,,,,,,,,6,,,66,80
87120,note_on,24,0,8,,,,,,,,6,,,62,80
87168,note_on,288,0,7,,,,,,,,6,,,78,0
87216,note_on,96,0,8,,,,,,,,6,,,66,0
87216,note_on,0,0,8,,,,,,,,6,,,62,0
87240,note_on,0,0,8,,,,,,,,6,,,62,80
87240,note_on,72,0,7,,,,,,,,6,,,83,80
87240,note_on,24,0,8,,,,,,,,6,,,66,80
87336,note_on,0,0,8,,,,,,,,6,,,66,0
87336,note_on,96,0,8,,,,,,,,6,,,62,0
87336,note_on,96,0,7,,,,,,,,6,,,83,0
87360,note_on,24,0,7,,,,,,,,6,,,81,80
87360,note_on,24,0,8,,,,,,,,6,,,66,80
87360,note_on,0,0,8,,,,,,,,6,,,61,80
87456,note_on,96,0,7,,,,,,,,6,,,81,0
87480,note_on,24,0,7,,,,,,,,6,,,81,80
87552,note_on,192,0,8,,,,,,,,6,,,61,0
87552,note_on,0,0,8,,,,,,,,6,,,66,0
87576,note_on,96,0,7,,,,,,,,6,,,81,0
87600,note_on,24,0,7,,,,,,,,6,,,81,80
87696,note_on,96,0,7,,,,,,,,6,,,81,0
87720,note_on,24,0,7,,,,,,,,6,,,81,80
87768,note_on,48,0,7,,,,,,,,6,,,81,0
87780,note_on,12,0,7,,,,,,,,6,,,83,80
87828,note_on,48,0,7,,,,,,,,6,,,83,0
87840,note_on,0,0,8,,,,,,,,6,,,61,80
87840,note_on,288,0,8,,,,,,,,6,,,71,80
87840,note_on,0,0,8,,,,,,,,6,,,65,80
87840,note_on,12,0,7,,,,,,,,6,,,80,80
87936,note_on,96,0,7,,,,,,,,6,,,80,0
87960,note_on,24,0,7,,,,,,,,6,,,80,80
88032,note_on,0,0,8,,,,,,,,6,,,71,0
88032,note_on,192,0,8,,,,,,,,6,,,65,0
88032,note_on,0,0,8,,,,,,,,6,,,61,0
88056,note_on,96,0,7,,,,,,,,6,,,80,0
88080,note_on,24,0,7,,,,,,,,6,,,80,80
88176,note_on,96,0,7,,,,,,,,6,,,80,0
88200,note_on,24,0,7,,,,,,,,6,,,80,80
88248,note_on,48,0,7,,,,,,,,6,,,80,0
88260,note_on,12,0,7,,,,,,,,6,,,81,80
88308,note_on,48,0,7,,,,,,,,6,,,81,0
88320,note_on,288,0,8,,,,,,,,6,,,66,80
88320,note_on,0,0,8,,,,,,,,6,,,70,80
88320,note_on,12,0,7,,,,,,,,6,,,78,80
88384,note_on,64,0,7,,,,,,,,6,,,78,0
88400,note_on,16,0,7,,,,,,,,6,,,77,80
88464,note_on,64,0,7,,,,,,,,6,,,77,0
88480,note_on,16,0,7,,,,,,,,6,,,76,80
88512,note_on,192,0,8,,,,,,,,6,,,70,0
88512,note_on,0,0,8,,,,,,,,6,,,66,0
88544,note_on,64,0,7,,,,,,,,6,,,76,0
88560,note_on,16,0,7,,,,,,,,6,,,75,80
88624,note_on,64,0,7,,,,,,,,6,,,75,0
88640,note_on,16,0,7,,,,,,,,6,,,74,80
88704,note_on,64,0,7,,,,,,,,6,,,74,0
88720,note_on,16,0,7,,,,,,,,6,,,73,80
88784,note_on,64,0,7,,,,,,,,6,,,73,0
88800,note_on,5568,0,3,,,,,,,,2,,,59,80
88800,note_on,0,0,8,,,,,,,,6,,,59,80
88800,note_on,288,0,8,,,,,,,,6,,,55,80
88800,note_on,16,0,7,,,,,,,,6,,,71,80
88800,note_on,5568,0,1,,,,,,,,0,,,83,80
88896,note_on,0,0,8,,,,,,,,6,,,55,0
88896,note_on,96,0,8,,,,,,,,6,,,59,0
88920,note_on,0,0,8,,,,,,,,6,,,59,80
88920,note_on,24,0,8,,,,,,,,6,,,55,80
89016,note_on,96,0,8,,,,,,,,6,,,59,0
89016,note_on,0,0,8,,,,,,,,6,,,55,0
89040,note_on,0,0,8,,,,,,,,6,,,59,80
89040,note_on,24,0,8,,,,,,,,6,,,55,80
89088,note_on,288,0,3,,,,,,,,2,,,59,0
89088,note_on,288,0,7,,,,,,,,6,,,71,0
89088,note_on,288,0,1,,,,,,,,0,,,83,0
89136,note_on,96,0,8,,,,,,,,6,,,59,0
89136,note_on,0,0,8,,,,,,,,6,,,55,0
89160,note_on,24,0,8,,,,,,,,6,,,55,80
89160,note_on,72,0,7,,,,,,,,6,,,76,80
89160,note_on,72,0,1,,,,,,,,0,,,88,80
89160,note_on,72,0,3,,,,,,,,2,,,64,80
89160,note_on,0,0,8,,,,,,,,6,,,59,80
89256,note_on,96,0,7,,,,,,,,6,,,76,0
89256,note_on,96,0,8,,,,,,,,6,,,59,0
89256,note_on,0,0,8,,,,,,,,6,,,55,0
89256,note_on,96,0,1,,,,,,,,0,,,88,0
89256,note_on,96,0,3,,,,,,,,2,,,64,0
89280,note_on,24,0,3,,,,,,,,2,,,62,80
89280,note_on,24,0,8,,,,,,,,6,,,59,80
89280,note_on,24,0,1,,,,,,,,0,,,86,80
89280,note_on,24,0,7,,,,,,,,6,,,74,80
89280,note_on,0,0,8,,,,,,,,6,,,54,80
89376,note_on,96,0,7,,,,,,,,6,,,74,0
89376,note_on,96,0,3,,,,,,,,2,,,62,0
89400,note_on,24,0,3,,,,,,,,2,,,62,80
89400,note_on,24,0,7,,,,,,,,6,,,74,80
89472,note_on,192,0,1,,,,,,,,0,,,86,0
89496,note_on,96,0,3,,,,,,,,2,,,62,0
89496,note_on,96,0,7,,,,,,,,6,,,74,0
89520,note_on,24,0,7,,,,,,,,6,,,74,80
89520,note_on,24,0,3,,,,,,,,2,,,62,80
89616,note_on,96,0,7,,,,,,,,6,,,74,0
89616,note_on,96,0,3,,,,,,,,2,,,62,0
89640,note_on,24,0,3,,,,,,,,2,,,62,80
89640,note_on,24,0,7,,,,,,,,6,,,74,80
89664,note_on,384,0,8,,,,,,,,6,,,54,0
89664,note_on,0,0,8,,,,,,,,6,,,59,0
89688,note_on,48,0,7,,,,,,,,6,,,74,0
89688,note_on,48,0,3,,,,,,,,2,,,62,0
89700,note_on,12,0,3,,,,,,,,2,,,64,80
89700,note_on,12,0,7,,,,,,,,6,,,76,80
89748,note_on,48,0,3,,,,,,,,2,,,64,0
89748,note_on,48,0,7,,,,,,,,6,,,76,0
89760,note_on,12,0,7,,,,,,,,6,,,72,80
89760,note_on,12,0,3,,,,,,,,2,,,60,80
89760,note_on,96,0,8,,,,,,,,6,,,62,80
89760,note_on,0,0,8,,,,,,,,6,,,54,80
89760,note_on,0,0,8,,,,,,,,6,,,57,80
89856,note_on,96,0,7,,,,,,,,6,,,72,0
89856,note_on,96,0,3,,,,,,,,2,,,60,0
89880,note_on,24,0,7,,,,,,,,6,,,72,80
89880,note_on,24,0,3,,,,,,,,2,,,60,80
89976,note_on,96,0,7,,,,,,,,6,,,72,0
89976,note_on,96,0,3,,,,,,,,2,,,60,0
90000,note_on,24,0,7,,,,,,,,6,,,72,80
90000,note_on,24,0,3,,,,,,,,2,,,60,80
90096,note_on,96,0,7,,,,,,,,6,,,72,0
90096,note_on,96,0,3,,,,,,,,2,,,60,0
90120,note_on,24,0,3,,,,,,,,2,,,60,80
90120,note_on,24,0,7,,,,,,,,6,,,72,80
90120,note_on,648,0,1,,,,,,,,0,,,74,80
90144,note_on,0,0,8,,,,,,,,6,,,54,0
90144,note_on,0,0,8,,,,,,,,6,,,62,0
90144,note_on,384,0,8,,,,,,,,6,,,57,0
90168,note_on,48,0,7,,,,,,,,6,,,72,0
90168,note_on,48,0,3,,,,,,,,2,,,60,0
90180,note_on,12,0,7,,,,,,,,6,,,74,80
90180,note_on,12,0,3,,,,,,,,2,,,62,80
90216,note_on,96,0,1,,,,,,,,0,,,74,0
90228,note_on,48,0,7,,,,,,,,6,,,74,0
90228,note_on,48,0,3,,,,,,,,2,,,62,0
90240,note_on,3648,0,11,,,,,,,,10,,,55,80
90240,note_on,0,0,8,,,,,,,,6,,,59,80
90240,note_on,0,0,8,,,,,,,,6,,,62,80
90240,note_on,7968,0,13,,,,,,,,12,,,31,80
90240,note_on,3648,0,10,,,,,,,,8,,,62,80
90240,note_on,3648,0,9,,,,,,,,7,,,59,80
90240,note_on,24,0,1,,,,,,,,0,,,79,80
90240,note_on,12,0,7,,,,,,,,6,,,71,80
90240,note_on,3648,0,12,,,,,,,,11,,,43,80
90240,note_on,96,0,8,,,,,,,,6,,,55,80
90240,note_on,12,0,3,,,,,,,,2,,,59,80
90288,note_on,48,0,9,,,,,,,,7,,,59,0
90300,note_on,12,0,9,,,,,,,,7,,,62,80
90336,note_on,96,0,13,,,,,,,,12,,,31,0
90336,note_on,96,0,12,,,,,,,,11,,,43,0
90348,note_on,48,0,9,,,,,,,,7,,,62,0
90360,note_on,24,0,13,,,,,,,,12,,,43,80
90360,note_on,24,0,12,,,,,,,,11,,,55,80
90360,note_on,12,0,9,,,,,,,,7,,,59,80
90408,note_on,48,0,9,,,,,,,,7,,,59,0
90420,note_on,12,0,9,,,,,,,,7,,,62,80
90432,note_on,192,0,7,,,,,,,,6,,,71,0
90432,note_on,0,0,8,,,,,,,,6,,,55,0
90432,note_on,0,0,8,,,,,,,,6,,,62,0
90432,note_on,192,0,8,,,,,,,,6,,,59,0
90432,note_on,192,0,3,,,,,,,,2,,,59,0
90456,note_on,96,0,12,,,,,,,,11,,,55,0
90456,note_on,96,0,13,,,,,,,,12,,,43,0
90468,note_on,48,0,9,,,,,,,,7,,,62,0
90480,note_on,24,0,12,,,,,,,,11,,,55,80
90480,note_on,24,0,13,,,,,,,,12,,,43,80
90480,note_on,12,0,9,,,,,,,,7,,,59,80
90528,note_on,48,0,9,,,,,,,,7,,,59,0
90528,note_on,288,0,1,,,,,,,,0,,,79,0
90540,note_on,12,0,9,,,,,,,,7,,,62,80
90576,note_on,96,0,12,,,,,,,,11,,,55,0
90576,note_on,96,0,13,,,,,,,,12,,,43,0
90588,note_on,48,0,9,,,,,,,,7,,,62,0
90600,note_on,24,0,12,,,,,,,,11,,,55,80
90600,note_on,72,0,1,,,,,,,,0,,,83,80
90600,note_on,12,0,9,,,,,,,,7,,,59,80
90600,note_on,24,0,13,,,,,,,,12,,,43,80
90648,note_on,48,0,9,,,,,,,,7,,,59,0
90660,note_on,12,0,9,,,,,,,,7,,,62,80
90696,note_on,96,0,12,,,,,,,,11,,,55,0
90696,note_on,96,0,1,,,,,,,,0,,,83,0
90696,note_on,96,0,13,,,,,,,,12,,,43,0
90708,note_on,48,0,9,,,,,,,,7,,,62,0
90720,note_on,24,0,12,,,,,,,,11,,,43,80
90720,note_on,12,0,9,,,,,,,,7,,,59,80
90720,note_on,24,0,1,,,,,,,,0,,,86,80
90720,note_on,24,0,13,,,,,,,,12,,,31,80
90768,note_on,48,0,9,,,,,,,,7,,,59,0
90780,note_on,12,0,9,,,,,,,,7,,,62,80
90816,note_on,96,0,13,,,,,,,,12,,,31,0
90816,note_on,96,0,12,,,,,,,,11,,,43,0
90828,note_on,48,0,9,,,,,,,,7,,,62,0
90840,note_on,24,0,13,,,,,,,,12,,,43,80
90840,note_on,12,0,9,,,,,,,,7,,,59,80
90840,note_on,24,0,12,,,,,,,,11,,,55,80
90888,note_on,48,0,9,,,,,,,,7,,,59,0
90900,note_on,12,0,9,,,,,,,,7,,,62,80
90936,note_on,96,0,13,,,,,,,,12,,,43,0
90936,note_on,96,0,12,,,,,,,,11,,,55,0
90948,note_on,48,0,9,,,,,,,,7,,,62,0
90960,note_on,24,0,13,,,,,,,,12,,,43,80
90960,note_on,24,0,12,,,,,,,,11,,,55,80
90960,note_on,12,0,9,,,,,,,,7,,,59,80
91008,note_on,48,0,9,,,,,,,,7,,,59,0
91008,note_on,288,0,1,,,,,,,,0,,,86,0
91020,note_on,12,0,9,,,,,,,,7,,,62,80
91056,note_on,96,0,13,,,,,,,,12,,,43,0
91056,note_on,96,0,12,,,,,,,,11,,,55,0
91068,note_on,48,0,9,,,,,,,,7,,,62,0
91080,note_on,12,0,9,,,,,,,,7,,,59,80
91080,note_on,72,0,1,,,,,,,,0,,,83,80
91080,note_on,24,0,13,,,,,,,,12,,,43,80
91080,note_on,24,0,12,,,,,,,,11,,,55,80
91104,note_on,864,0,11,,,,,,,,10,,,55,0
91128,note_on,48,0,9,,,,,,,,7,,,59,0
91140,note_on,12,0,9,,,,,,,,7,,,62,80
91176,note_on,96,0,13,,,,,,,,12,,,43,0
91176,note_on,96,0,12,,,,,,,,11,,,55,0
91176,note_on,96,0,1,,,,,,,,0,,,83,0
91188,note_on,48,0,9,,,,,,,,7,,,62,0
91200,note_on,12,0,9,,,,,,,,7,,,60,80
91200,note_on,24,0,13,,,,,,,,12,,,38,80
91200,note_on,24,0,12,,,,,,,,11,,,50,80
91200,note_on,24,0,1,,,,,,,,0,,,81,80
91200,note_on,96,0,11,,,,,,,,10,,,54,80
91248,note_on,48,0,9,,,,,,,,7,,,60,0
91260,note_on,12,0,9,,,,,,,,7,,,62,80
91296,note_on,96,0,12,,,,,,,,11,,,50,0
91296,note_on,96,0,1,,,,,,,,0,,,81,0
91296,note_on,96,0,13,,,,,,,,12,,,38,0
91308,note_on,48,0,9,,,,,,,,7,,,62,0
91320,note_on,12,0,9,,,,,,,,7,,,60,80
91320,note_on,24,0,1,,,,,,,,0,,,81,80
91320,note_on,24,0,13,,,,,,,,12,,,38,80
91320,note_on,24,0,12,,,,,,,,11,,,50,80
91368,note_on,48,0,9,,,,,,,,7,,,60,0
91380,note_on,12,0,9,,,,,,,,7,,,62,80
91416,note_on,96,0,1,,,,,,,,0,,,81,0
91416,note_on,96,0,13,,,,,,,,12,,,38,0
91416,note_on,96,0,12,,,,,,,,11,,,50,0
91428,note_on,48,0,9,,,,,,,,7,,,62,0
91440,note_on,24,0,13,,,,,,,,12,,,38,80
91440,note_on,24,0,1,,,,,,,,0,,,83,80
91440,note_on,12,0,9,,,,,,,,7,,,60,80
91440,note_on,24,0,12,,,,,,,,11,,,50,80
91488,note_on,48,0,9,,,,,,,,7,,,60,0
91488,note_on,48,0,1,,,,,,,,0,,,83,0
91500,note_on,12,0,1,,,,,,,,0,,,81,80
91500,note_on,12,0,9,,,,,,,,7,,,62,80
91536,note_on,96,0,13,,,,,,,,12,,,38,0
91536,note_on,96,0,12,,,,,,,,11,,,50,0
91548,note_on,48,0,1,,,,,,,,0,,,81,0
91548,note_on,48,0,9,,,,,,,,7,,,62,0
91560,note_on,24,0,12,,,,,,,,11,,,50,80
91560,note_on,12,0,9,,,,,,,,7,,,60,80
91560,note_on,12,0,1,,,,,,,,0,,,80,80
91560,note_on,24,0,13,,,,,,,,12,,,38,80
91584,note_on,384,0,11,,,,,,,,10,,,54,0
91608,note_on,48,0,1,,,,,,,,0,,,80,0
91608,note_on,48,0,9,,,,,,,,7,,,60,0
91620,note_on,12,0,9,,,,,,,,7,,,62,80
91620,note_on,12,0,1,,,,,,,,0,,,81,80
91656,note_on,96,0,12,,,,,,,,11,,,50,0
91656,note_on,96,0,13,,,,,,,,12,,,38,0
91668,note_on,48,0,1,,,,,,,,0,,,81,0
91668,note_on,48,0,9,,,,,,,,7,,,62,0
91680,note_on,24,0,13,,,,,,,,12,,,38,80
91680,note_on,96,0,11,,,,,,,,10,,,57,80
91680,note_on,24,0,12,,,,,,,,11,,,50,80
91680,note_on,12,0,9,,,,,,,,7,,,60,80
91680,note_on,12,0,1,,,,,,,,0,,,78,80
91728,note_on,48,0,9,,,,,,,,7,,,60,0
91740,note_on,12,0,9,,,,,,,,7,,,62,80
91776,note_on,96,0,13,,,,,,,,12,,,38,0
91776,note_on,96,0,12,,,,,,,,11,,,50,0
91776,note_on,96,0,1,,,,,,,,0,,,78,0
91788,note_on,48,0,9,,,,,,,,7,,,62,0
91800,note_on,12,0,9,,,,,,,,7,,,60,80
91800,note_on,24,0,12,,,,,,,,11,,,50,80
91800,note_on,24,0,1,,,,,,,,0,,,78,80
91800,note_on,24,0,13,,,,,,,,12,,,38,80
91848,note_on,48,0,9,,,,,,,,7,,,60,0
91860,note_on,12,0,9,,,,,,,,7,,,62,80
91896,note_on,96,0,13,,,,,,,,12,,,38,0
91896,note_on,96,0,12,,,,,,,,11,,,50,0
91896,note_on,96,0,1,,,,,,,,0,,,78,0
91908,note_on,48,0,9,,,,,,,,7,,,62,0
91920,note_on,24,0,1,,,,,,,,0,,,79,80
91920,note_on,24,0,12,,,,,,,,11,,,50,80
91920,note_on,24,0,13,,,,,,,,12,,,38,80
91920,note_on,12,0,9,,,,,,,,7,,,60,80
91968,note_on,48,0,9,,,,,,,,7,,,60,0
91968,note_on,48,0,1,,,,,,,,0,,,79,0
91980,note_on,12,0,1,,,,,,,,0,,,78,80
91980,note_on,12,0,9,,,,,,,,7,,,62,80
92016,note_on,96,0,12,,,,,,,,11,,,50,0
92016,note_on,96,0,13,,,,,,,,12,,,38,0
92028,note_on,48,0,1,,,,,,,,0,,,78,0
92028,note_on,48,0,9,,,,,,,,7,,,62,0
92040,note_on,12,0,1,,,,,,,,0,,,76,80
92040,note_on,24,0,12,,,,,,,,11,,,50,80
92040,note_on,12,0,9,,,,,,,,7,,,60,80
92040,note_on,24,0,13,,,,,,,,12,,,38,80
92064,note_on,1824,0,10,,,,,,,,8,,,62,0
92064,note_on,384,0,11,,,,,,,,10,,,57,0
92088,note_on,48,0,1,,,,,,,,0,,,76,0
92088,note_on,48,0,9,,,,,,,,7,,,60,0
92100,note_on,12,0,1,,,,,,,,0,,,78,80
92100,note_on,12,0,9,,,,,,,,7,,,62,80
92136,note_on,96,0,12,,,,,,,,11,,,50,0
92136,note_on,96,0,13,,,,,,,,12,,,38,0
92148,note_on,48,0,9,,,,,,,,7,,,62,0
92148,note_on,48,0,1,,,,,,,,0,,,78,0
92160,note_on,96,0,11,,,,,,,,10,,,55,80
92160,note_on,24,0,13,,,,,,,,12,,,31,80
92160,note_on,0,0,8,,,,,,,,6,,,67,80
92160,note_on,12,0,9,,,,,,,,7,,,59,80
92160,note_on,12,0,1,,,,,,,,0,,,79,80
92160,note_on,96,0,10,,,,,,,,8,,,62,80
92160,note_on,24,0,12,,,,,,,,11,,,43,80
92160,note_on,1728,0,8,,,,,,,,6,,,55,80
92220,note_on,1788,0,7,,,,,,,,6,,,71,80
92268,note_on,48,0,7,,,,,,,,6,,,71,0
92280,note_on,12,0,7,,,,,,,,6,,,74,80
92328,note_on,48,0,7,,,,,,,,6,,,74,0
92340,note_on,12,0,7,,,,,,,,6,,,79,80
92352,note_on,192,0,13,,,,,,,,12,,,31,0
92352,note_on,192,0,10,,,,,,,,8,,,62,0
92352,note_on,192,0,9,,,,,,,,7,,,59,0
92352,note_on,192,0,1,,,,,,,,0,,,79,0
92352,note_on,192,0,11,,,,,,,,10,,,55,0
92352,note_on,192,0,12,,,,,,,,11,,,43,0
92388,note_on,48,0,7,,,,,,,,6,,,79,0
92400,note_on,12,0,7,,,,,,,,6,,,83,80
92448,note_on,48,0,7,,,,,,,,6,,,83,0
92460,note_on,12,0,7,,,,,,,,6,,,79,80
92508,note_on,48,0,7,,,,,,,,6,,,79,0
92520,note_on,12,0,7,,,,,,,,6,,,74,80
92544,note_on,0,0,8,,,,,,,,6,,,55,0
92544,note_on,384,0,8,,,,,,,,6,,,67,0
92568,note_on,48,0,7,,,,,,,,6,,,74,0
92580,note_on,12,0,7,,,,,,,,6,,,71,80
92628,note_on,48,0,7,,,,,,,,6,,,71,0
92640,note_on,0,0,8,,,,,,,,6,,,66,80
92640,note_on,12,0,7,,,,,,,,6,,,82,80
92640,note_on,96,0,8,,,,,,,,6,,,54,80
92688,note_on,48,0,7,,,,,,,,6,,,82,0
92700,note_on,12,0,7,,,,,,,,6,,,76,80
92748,note_on,48,0,7,,,,,,,,6,,,76,0
92760,note_on,12,0,7,,,,,,,,6,,,73,80
92808,note_on,48,0,7,,,,,,,,6,,,73,0
92820,note_on,12,0,7,,,,,,,,6,,,70,80
92832,note_on,0,0,8,,,,,,,,6,,,54,0
92832,note_on,192,0,8,,,,,,,,6,,,66,0
92868,note_on,48,0,7,,,,,,,,6,,,70,0
92880,note_on,12,0,7,,,,,,,,6,,,81,80
92880,note_on,48,0,8,,,,,,,,6,,,59,80
92880,note_on,0,0,8,,,,,,,,6,,,47,80
92928,note_on,48,0,7,,,,,,,,6,,,81,0
92940,note_on,12,0,7,,,,,,,,6,,,78,80
92988,note_on,48,0,7,,,,,,,,6,,,78,0
93000,note_on,9768,0,2,,,,,,,,1,,,71,80
93000,note_on,12,0,7,,,,,,,,6,,,75,80
93048,note_on,48,0,7,,,,,,,,6,,,75,0
93060,note_on,12,0,7,,,,,,,,6,,,69,80
93072,note_on,0,0,8,,,,,,,,6,,,59,0
93072,note_on,192,0,8,,,,,,,,6,,,47,0
93096,note_on,96,0,2,,,,,,,,1,,,71,0
93108,note_on,48,0,7,,,,,,,,6,,,69,0
93120,note_on,768,0,9,,,,,,,,7,,,67,80
93120,note_on,0,0,7,,,,,,,,6,,,67,80
93120,note_on,0,0,7,,,,,,,,6,,,71,80
93120,note_on,0,0,7,,,,,,,,6,,,79,80
93120,note_on,768,0,12,,,,,,,,11,,,52,80
93120,note_on,12,0,7,,,,,,,,6,,,76,80
93120,note_on,768,0,11,,,,,,,,10,,,59,80
93120,note_on,768,0,13,,,,,,,,12,,,40,80
93120,note_on,768,0,10,,,,,,,,8,,,64,80
93120,note_on,48,0,8,,,,,,,,6,,,52,80
93120,note_on,0,0,8,,,,,,,,6,,,64,80
93120,note_on,24,0,2,,,,,,,,1,,,76,80
93168,note_on,48,0,9,,,,,,,,7,,,67,0
93180,note_on,12,0,9,,,,,,,,7,,,71,80
93216,note_on,96,0,13,,,,,,,,12,,,40,0
93216,note_on,96,0,12,,,,,,,,11,,,52,0
93228,note_on,48,0,9,,,,,,,,7,,,71,0
93240,note_on,24,0,13,,,,,,,,12,,,52,80
93240,note_on,24,0,12,,,,,,,,11,,,64,80
93240,note_on,12,0,9,,,,,,,,7,,,67,80
93288,note_on,48,0,9,,,,,,,,7,,,67,0
93300,note_on,12,0,9,,,,,,,,7,,,71,80
93312,note_on,0,0,7,,,,,,,,6,,,71,0
93312,note_on,0,0,7,,,,,,,,6,,,79,0
93312,note_on,0,0,7,,,,,,,,6,,,76,0
93312,note_on,192,0,8,,,,,,,,6,,,64,0
93312,note_on,192,0,7,,,,,,,,6,,,67,0
93312,note_on,0,0,8,,,,,,,,6,,,52,0
93336,note_on,96,0,13,,,,,,,,12,,,52,0
93336,note_on,96,0,12,,,,,,,,11,,,64,0
93348,note_on,48,0,9,,,,,,,,7,,,71,0
93360,note_on,24,0,12,,,,,,,,11,,,64,80
93360,note_on,12,0,9,,,,,,,,7,,,67,80
93360,note_on,24,0,13,,,,,,,,12,,,52,80
93408,note_on,288,0,2,,,,,,,,1,,,76,0
93408,note_on,48,0,9,,,,,,,,7,,,67,0
93420,note_on,12,0,9,,,,,,,,7,,,71,80
93456,note_on,96,0,13,,,,,,,,12,,,52,0
93456,note_on,96,0,12,,,,,,,,11,,,64,0
93468,note_on,48,0,9,,,,,,,,7,,,71,0
93480,note_on,24,0,13,,,,,,,,12,,,52,80
93480,note_on,12,0,9,,,,,,,,7,,,67,80
93480,note_on,24,0,12,,,,,,,,11,,,64,80
93480,note_on,72,0,2,,,,,,,,1,,,79,80
93528,note_on,48,0,9,,,,,,,,7,,,67,0
93540,note_on,12,0,9,,,,,,,,7,,,71,80
93576,note_on,96,0,2,,,,,,,,1,,,79,0
93576,note_on,96,0,13,,,,,,,,12,,,52,0
93576,note_on,96,0,12,,,,,,,,11,,,64,0
93588,note_on,48,0,9,,,,,,,,7,,,71,0
93600,note_on,24,0,13,,,,,,,,12,,,40,80
93600,note_on,12,0,9,,,,,,,,7,,,67,80
93600,note_on,24,0,2,,,,,,,,1,,,83,80
93600,note_on,24,0,12,,,,,,,,11,,,52,80
93648,note_on,48,0,9,,,,,,,,7,,,67,0
93660,note_on,12,0,9,,,,,,,,7,,,71,80
93696,note_on,96,0,13,,,,,,,,12,,,40,0
93696,note_on,96,0,12,,,,,,,,11,,,52,0
93708,note_on,48,0,9,,,,,,,,7,,,71,0
93720,note_on,24,0,13,,,,,,,,12,,,52,80
93720,note_on,24,0,12,,,,,,,,11,,,64,80
93720,note_on,12,0,9,,,,,,,,7,,,67,80
93768,note_on,48,0,9,,,,,,,,7,,,67,0
93780,note_on,12,0,9,,,,,,,,7,,,71,80
93816,note_on,96,0,13,,,,,,,,12,,,52,0
93816,note_on,96,0,12,,,,,,,,11,,,64,0
93828,note_on,48,0,9,,,,,,,,7,,,71,0
93840,note_on,24,0,12,,,,,,,,11,,,64,80
93840,note_on,24,0,13,,,,,,,,12,,,52,80
93840,note_on,12,0,9,,,,,,,,7,,,67,80
93888,note_on,288,0,2,,,,,,,,1,,,83,0
93888,note_on,48,0,9,,,,,,,,7,,,67,0
93900,note_on,12,0,9,,,,,,,,7,,,71,80
93936,note_on,96,0,12,,,,,,,,11,,,64,0
93936,note_on,96,0,13,,,,,,,,12,,,52,0
93948,note_on,48,0,9,,,,,,,,7,,,71,0
93960,note_on,24,0,12,,,,,,,,11,,,64,80
93960,note_on,24,0,13,,,,,,,,12,,,52,80
93960,note_on,72,0,2,,,,,,,,1,,,79,80
93960,note_on,12,0,9,,,,,,,,7,,,67,80
93984,note_on,864,0,10,,,,,,,,8,,,64,0
94008,note_on,48,0,9,,,,,,,,7,,,67,0
94020,note_on,12,0,9,,,,,,,,7,,,71,80
94056,note_on,96,0,2,,,,,,,,1,,,79,0
94056,note_on,96,0,12,,,,,,,,11,,,64,0
94056,note_on,96,0,13,,,,,,,,12,,,52,0
94068,note_on,48,0,9,,,,,,,,7,,,71,0
94080,note_on,24,0,2,,,,,,,,1,,,78,80
94080,note_on,96,0,10,,,,,,,,8,,,63,80
94080,note_on,24,0,12,,,,,,,,11,,,59,80
94080,note_on,12,0,9,,,,,,,,7,,,69,80
94080,note_on,24,0,13,,,,,,,,12,,,47,80
94128,note_on,48,0,9,,,,,,,,7,,,69,0
94140,note_on,12,0,9,,,,,,,,7,,,71,80
94176,note_on,96,0,13,,,,,,,,12,,,47,0
94176,note_on,96,0,12,,,,,,,,11,,,59,0
94176,note_on,96,0,2,,,,,,,,1,,,78,0
94188,note_on,48,0,9,,,,,,,,7,,,71,0
94200,note_on,24,0,13,,,,,,,,12,,,47,80
94200,note_on,24,0,12,,,,,,,,11,,,59,80
94200,note_on,24,0,2,,,,,,,,1,,,78,80
94200,note_on,12,0,9,,,,,,,,7,,,69,80
94248,note_on,48,0,9,,,,,,,,7,,,69,0
94260,note_on,12,0,9,,,,,,,,7,,,71,80
94296,note_on,96,0,13,,,,,,,,12,,,47,0
94296,note_on,96,0,12,,,,,,,,11,,,59,0
94296,note_on,96,0,2,,,,,,,,1,,,78,0
94308,note_on,48,0,9,,,,,,,,7,,,71,0
94320,note_on,24,0,2,,,,,,,,1,,,79,80
94320,note_on,12,0,9,,,,,,,,7,,,69,80
94320,note_on,24,0,12,,,,,,,,11,,,59,80
94320,note_on,24,0,13,,,,,,,,12,,,47,80
94368,note_on,48,0,9,,,,,,,,7,,,69,0
94368,note_on,48,0,2,,,,,,,,1,,,79,0
94380,note_on,12,0,9,,,,,,,,7,,,71,80
94380,note_on,12,0,2,,,,,,,,1,,,78,80
94416,note_on,96,0,13,,,,,,,,12,,,47,0
94416,note_on,96,0,12,,,,,,,,11,,,59,0
94428,note_on,48,0,9,,,,,,,,7,,,71,0
94428,note_on,48,0,2,,,,,,,,1,,,78,0
94440,note_on,12,0,2,,,,,,,,1,,,76,80
94440,note_on,12,0,9,,,,,,,,7,,,69,80
94440,note_on,24,0,13,,,,,,,,12,,,47,80
94440,note_on,24,0,12,,,,,,,,11,,,59,80
94464,note_on,384,0,10,,,,,,,,8,,,63,0
94488,note_on,48,0,2,,,,,,,,1,,,76,0
94488,note_on,48,0,9,,,,,,,,7,,,69,0
94500,note_on,12,0,2,,,,,,,,1,,,78,80
94500,note_on,12,0,9,,,,,,,,7,,,71,80
94536,note_on,96,0,12,,,,,,,,11,,,59,0
94536,note_on,96,0,13,,,,,,,,12,,,47,0
94548,note_on,48,0,2,,,,,,,,1,,,78,0
94548,note_on,48,0,9,,,,,,,,7,,,71,0
94560,note_on,12,0,2,,,,,,,,1,,,75,80
94560,note_on,24,0,13,,,,,,,,12,,,47,80
94560,note_on,96,0,10,,,,,,,,8,,,66,80
94560,note_on,12,0,9,,,,,,,,7,,,69,80
94560,note_on,24,0,12,,,,,,,,11,,,59,80
94608,note_on,48,0,9,,,,,,,,7,,,69,0
94620,note_on,12,0,9,,,,,,,,7,,,71,80
94656,note_on,96,0,2,,,,,,,,1,,,75,0
94656,note_on,96,0,13,,,,,,,,12,,,47,0
94656,note_on,96,0,12,,,,,,,,11,,,59,0
94668,note_on,48,0,9,,,,,,,,7,,,71,0
94680,note_on,24,0,2,,,,,,,,1,,,75,80
94680,note_on,24,0,13,,,,,,,,12,,,47,80
94680,note_on,12,0,9,,,,,,,,7,,,69,80
94680,note_on,24,0,12,,,,,,,,11,,,59,80
94728,note_on,48,0,9,,,,,,,,7,,,69,0
94740,note_on,12,0,9,,,,,,,,7,,,71,80
94776,note_on,96,0,13,,,,,,,,12,,,47,0
94776,note_on,96,0,12,,,,,,,,11,,,59,0
94776,note_on,96,0,2,,,,,,,,1,,,75,0
94788,note_on,48,0,9,,,,,,,,7,,,71,0
94800,note_on,24,0,13,,,,,,,,12,,,47,80
94800,note_on,12,0,9,,,,,,,,7,,,69,80
94800,note_on,24,0,12,,,,,,,,11,,,59,80
94800,note_on,24,0,2,,,,,,,,1,,,76,80
94848,note_on,48,0,2,,,,,,,,1,,,76,0
94848,note_on,48,0,9,,,,,,,,7,,,69,0
94860,note_on,12,0,9,,,,,,,,7,,,71,80
94860,note_on,12,0,2,,,,,,,,1,,,75,80
94896,note_on,96,0,12,,,,,,,,11,,,59,0
94896,note_on,96,0,13,,,,,,,,12,,,47,0
94908,note_on,48,0,9,,,,,,,,7,,,71,0
94908,note_on,48,0,2,,,,,,,,1,,,75,0
94920,note_on,12,0,9,,,,,,,,7,,,69,80
94920,note_on,24,0,12,,,,,,,,11,,,59,80
94920,note_on,12,0,2,,,,,,,,1,,,73,80
94920,note_on,24,0,13,,,,,,,,12,,,47,80
94944,note_on,384,0,10,,,,,,,,8,,,66,0
94944,note_on,1824,0,11,,,,,,,,10,,,59,0
94968,note_on,48,0,9,,,,,,,,7,,,69,0
94968,note_on,48,0,2,,,,,,,,1,,,73,0
94980,note_on,12,0,9,,,,,,,,7,,,71,80
94980,note_on,12,0,2,,,,,,,,1,,,75,80
95016,note_on,96,0,12,,,,,,,,11,,,59,0
95016,note_on,96,0,13,,,,,,,,12,,,47,0
95028,note_on,48,0,9,,,,,,,,7,,,71,0
95028,note_on,48,0,2,,,,,,,,1,,,75,0
95040,note_on,1728,0,8,,,,,,,,6,,,64,80
95040,note_on,0,0,8,,,,,,,,6,,,52,80
95040,note_on,96,0,11,,,,,,,,10,,,59,80
95040,note_on,24,0,13,,,,,,,,12,,,40,80
95040,note_on,12,0,2,,,,,,,,1,,,76,80
95040,note_on,24,0,12,,,,,,,,11,,,52,80
95040,note_on,96,0,10,,,,,,,,8,,,64,80
95040,note_on,12,0,9,,,,,,,,7,,,67,80
95100,note_on,1788,0,7,,,,,,,,6,,,67,80
95148,note_on,48,0,7,,,,,,,,6,,,67,0
95160,note_on,12,0,7,,,,,,,,6,,,71,80
95208,note_on,48,0,7,,,,,,,,6,,,71,0
95220,note_on,12,0,7,,,,,,,,6,,,76,80
95232,note_on,192,0,10,,,,,,,,8,,,64,0
95232,note_on,192,0,11,,,,,,,,10,,,59,0
95232,note_on,192,0,9,,,,,,,,7,,,67,0
95232,note_on,192,0,12,,,,,,,,11,,,52,0
95232,note_on,192,0,13,,,,,,,,12,,,40,0
95232,note_on,192,0,2,,,,,,,,1,,,76,0
95268,note_on,48,0,7,,,,,,,,6,,,76,0
95280,note_on,12,0,7,,,,,,,,6,,,79,80
95328,note_on,48,0,7,,,,,,,,6,,,79,0
95340,note_on,12,0,7,,,,,,,,6,,,76,80
95388,note_on,48,0,7,,,,,,,,6,,,76,0
95400,note_on,12,0,7,,,,,,,,6,,,71,80
95424,note_on,384,0,8,,,,,,,,6,,,52,0
95424,note_on,0,0,8,,,,,,,,6,,,64,0
95448,note_on,48,0,7,,,,,,,,6,,,71,0
95460,note_on,12,0,7,,,,,,,,6,,,67,80
95508,note_on,48,0,7,,,,,,,,6,,,67,0
95520,note_on,96,0,8,,,,,,,,6,,,50,80
95520,note_on,0,0,8,,,,,,,,6,,,62,80
95520,note_on,12,0,7,,,,,,,,6,,,78,80
95568,note_on,48,0,7,,,,,,,,6,,,78,0
95580,note_on,12,0,7,,,,,,,,6,,,72,80
95628,note_on,48,0,7,,,,,,,,6,,,72,0
95640,note_on,12,0,7,,,,,,,,6,,,69,80
95688,note_on,48,0,7,,,,,,,,6,,,69,0
95700,note_on,12,0,7,,,,,,,,6,,,66,80
95712,note_on,192,0,8,,,,,,,,6,,,62,0
95712,note_on,0,0,8,,,,,,,,6,,,50,0
95748,note_on,48,0,7,,,,,,,,6,,,66,0
95760,note_on,0,0,8,,,,,,,,6,,,43,80
95760,note_on,12,0,7,,,,,,,,6,,,77,80
95760,note_on,48,0,8,,,,,,,,6,,,55,80
95808,note_on,48,0,7,,,,,,,,6,,,77,0
95820,note_on,12,0,7,,,,,,,,6,,,74,80
95868,note_on,48,0,7,,,,,,,,6,,,74,0
95880,note_on,12,0,7,,,,,,,,6,,,71,80
95880,note_on,5448,0,3,,,,,,,,2,,,55,80
95928,note_on,48,0,7,,,,,,,,6,,,71,0
95940,note_on,12,0,7,,,,,,,,6,,,65,80
95952,note_on,192,0,8,,,,,,,,6,,,43,0
95952,note_on,0,0,8,,,,,,,,6,,,55,0
95976,note_on,96,0,3,,,,,,,,2,,,55,0
95988,note_on,48,0,7,,,,,,,,6,,,65,0
96000,note_on,48,0,8,,,,,,,,6,,,48,80
96000,note_on,0,0,8,,,,,,,,6,,,60,80
96000,note_on,768,0,13,,,,,,,,12,,,36,80
96000,note_on,24,0,3,,,,,,,,2,,,60,80
96000,note_on,768,0,9,,,,,,,,7,,,60,80
96000,note_on,0,0,7,,,,,,,,6,,,76,80
96000,note_on,0,0,7,,,,,,,,6,,,67,80
96000,note_on,768,0,11,,,,,,,,10,,,52,80
96000,note_on,768,0,12,,,,,,,,11,,,48,80
96000,note_on,12,0,7,,,,,,,,6,,,64,80
96000,note_on,0,0,7,,,,,,,,6,,,72,80
96000,note_on,768,0,10,,,,,,,,8,,,55,80
96048,note_on,48,0,11,,,,,,,,10,,,52,0
96060,note_on,12,0,11,,,,,,,,10,,,55,80
96096,note_on,96,0,13,,,,,,,,12,,,36,0
96096,note_on,96,0,12,,,,,,,,11,,,48,0
96108,note_on,48,0,11,,,,,,,,10,,,55,0
96120,note_on,12,0,11,,,,,,,,10,,,52,80
96120,note_on,24,0,13,,,,,,,,12,,,48,80
96120,note_on,24,0,12,,,,,,,,11,,,60,80
96168,note_on,48,0,11,,,,,,,,10,,,52,0
96180,note_on,12,0,11,,,,,,,,10,,,55,80
96192,note_on,192,0,8,,,,,,,,6,,,60,0
96192,note_on,192,0,7,,,,,,,,6,,,67,0
96192,note_on,0,0,7,,,,,,,,6,,,64,0
96192,note_on,0,0,7,,,,,,,,6,,,72,0
96192,note_on,0,0,7,,,,,,,,6,,,76,0
96192,note_on,0,0,8,,,,,,,,6,,,48,0
96216,note_on,96,0,12,,,,,,,,11,,,60,0
96216,note_on,96,0,13,,,,,,,,12,,,48,0
96228,note_on,48,0,11,,,,,,,,10,,,55,0
96240,note_on,24,0,12,,,,,,,,11,,,60,80
96240,note_on,24,0,13,,,,,,,,12,,,48,80
96240,note_on,12,0,11,,,,,,,,10,,,52,80
96288,note_on,288,0,3,,,,,,,,2,,,60,0
96288,note_on,48,0,11,,,,,,,,10,,,52,0
96300,note_on,12,0,11,,,,,,,,10,,,55,80
96336,note_on,96,0,12,,,,,,,,11,,,60,0
96336,note_on,96,0,13,,,,,,,,12,,,48,0
96348,note_on,48,0,11,,,,,,,,10,,,55,0
96360,note_on,24,0,13,,,,,,,,12,,,48,80
96360,note_on,72,0,3,,,,,,,,2,,,64,80
96360,note_on,12,0,11,,,,,,,,10,,,52,80
96360,note_on,24,0,12,,,,,,,,11,,,60,80
96408,note_on,48,0,11,,,,,,,,10,,,52,0
96420,note_on,12,0,11,,,,,,,,10,,,55,80
96456,note_on,96,0,3,,,,,,,,2,,,64,0
96456,note_on,96,0,13,,,,,,,,12,,,48,0
96456,note_on,96,0,12,,,,,,,,11,,,60,0
96468,note_on,48,0,11,,,,,,,,10,,,55,0
96480,note_on,12,0,11,,,,,,,,10,,,52,80
96480,note_on,24,0,13,,,,,,,,12,,,36,80
96480,note_on,24,0,3,,,,,,,,2,,,67,80
96480,note_on,24,0,12,,,,,,,,11,,,48,80
96528,note_on,48,0,11,,,,,,,,10,,,52,0
96540,note_on,12,0,11,,,,,,,,10,,,55,80
96576,note_on,96,0,13,,,,,,,,12,,,36,0
96576,note_on,96,0,12,,,,,,,,11,,,48,0
96588,note_on,48,0,11,,,,,,,,10,,,55,0
96600,note_on,24,0,12,,,,,,,,11,,,60,80
96600,note_on,12,0,11,,,,,,,,10,,,52,80
96600,note_on,24,0,13,,,,,,,,12,,,48,80
96648,note_on,48,0,11,,,,,,,,10,,,52,0
96660,note_on,12,0,11,,,,,,,,10,,,55,80
96696,note_on,96,0,12,,,,,,,,11,,,60,0
96696,note_on,96,0,13,,,,,,,,12,,,48,0
96708,note_on,48,0,11,,,,,,,,10,,,55,0
96720,note_on,24,0,13,,,,,,,,12,,,48,80
96720,note_on,24,0,12,,,,,,,,11,,,60,80
96720,note_on,12,0,11,,,,,,,,10,,,52,80
96768,note_on,288,0,3,,,,,,,,2,,,67,0
96768,note_on,48,0,11,,,,,,,,10,,,52,0
96780,note_on,12,0,11,,,,,,,,10,,,55,80
96816,note_on,96,0,12,,,,,,,,11,,,60,0
96816,note_on,96,0,13,,,,,,,,12,,,48,0
96828,note_on,48,0,11,,,,,,,,10,,,55,0
96840,note_on,12,0,11,,,,,,,,10,,,52,80
96840,note_on,24,0,13,,,,,,,,12,,,48,80
96840,note_on,24,0,12,,,,,,,,11,,,60,80
96840,note_on,72,0,3,,,,,,,,2,,,64,80
96864,note_on,864,0,9,,,,,,,,7,,,60,0
96888,note_on,48,0,11,,,,,,,,10,,,52,0
96900,note_on,12,0,11,,,,,,,,10,,,55,80
96936,note_on,96,0,3,,,,,,,,2,,,64,0
96936,note_on,96,0,13,,,,,,,,12,,,48,0
96936,note_on,96,0,12,,,,,,,,11,,,60,0
96948,note_on,48,0,11,,,,,,,,10,,,55,0
96960,note_on,24,0,13,,,,,,,,12,,,43,80
96960,note_on,24,0,12,,,,,,,,11,,,55,80
96960,note_on,96,0,9,,,,,,,,7,,,59,80
96960,note_on,24,0,3,,,,,,,,2,,,62,80
96960,note_on,12,0,11,,,,,,,,10,,,53,80
97008,note_on,48,0,11,,,,,,,,10,,,53,0
97020,note_on,12,0,11,,,,,,,,10,,,55,80
97056,note_on,96,0,12,,,,,,,,11,,,55,0
97056,note_on,96,0,13,,,,,,,,12,,,43,0
97056,note_on,96,0,3,,,,,,,,2,,,62,0
97068,note_on,48,0,11,,,,,,,,10,,,55,0
97080,note_on,24,0,13,,,,,,,,12,,,43,80
97080,note_on,12,0,11,,,,,,,,10,,,53,80
97080,note_on,24,0,3,,,,,,,,2,,,62,80
97080,note_on,24,0,12,,,,,,,,11,,,55,80
97128,note_on,48,0,11,,,,,,,,10,,,53,0
97140,note_on,12,0,11,,,,,,,,10,,,55,80
97176,note_on,96,0,13,,,,,,,,12,,,43,0
97176,note_on,96,0,3,,,,,,,,2,,,62,0
97176,note_on,96,0,12,,,,,,,,11,,,55,0
97188,note_on,48,0,11,,,,,,,,10,,,55,0
97200,note_on,12,0,11,,,,,,,,10,,,53,80
97200,note_on,24,0,3,,,,,,,,2,,,64,80
97200,note_on,24,0,13,,,,,,,,12,,,43,80
97200,note_on,24,0,12,,,,,,,,11,,,55,80
97248,note_on,48,0,3,,,,,,,,2,,,64,0
97248,note_on,48,0,11,,,,,,,,10,,,53,0
97260,note_on,12,0,3,,,,,,,,2,,,62,80
97260,note_on,12,0,11,,,,,,,,10,,,55,80
97296,note_on,96,0,12,,,,,,,,11,,,55,0
97296,note_on,96,0,13,,,,,,,,12,,,43,0
97308,note_on,48,0,3,,,,,,,,2,,,62,0
97308,note_on,48,0,11,,,,,,,,10,,,55,0
97320,note_on,24,0,13,,,,,,,,12,,,43,80
97320,note_on,12,0,3,,,,,,,,2,,,61,80
97320,note_on,12,0,11,,,,,,,,10,,,53,80
97320,note_on,24,0,12,,,,,,,,11,,,55,80
97344,note_on,384,0,9,,,,,,,,7,,,59,0
97368,note_on,48,0,11,,,,,,,,10,,,53,0
97368,note_on,48,0,3,,,,,,,,2,,,61,0
97380,note_on,12,0,11,,,,,,,,10,,,55,80
97380,note_on,12,0,3,,,,,,,,2,,,62,80
97416,note_on,96,0,12,,,,,,,,11,,,55,0
97416,note_on,96,0,13,,,,,,,,12,,,43,0
97428,note_on,48,0,3,,,,,,,,2,,,62,0
97428,note_on,48,0,11,,,,,,,,10,,,55,0
97440,note_on,12,0,3,,,,,,,,2,,,59,80
97440,note_on,24,0,12,,,,,,,,11,,,55,80
97440,note_on,24,0,13,,,,,,,,12,,,43,80
97440,note_on,96,0,9,,,,,,,,7,,,62,80
97440,note_on,12,0,11,,,,,,,,10,,,53,80
97488,note_on,48,0,11,,,,,,,,10,,,53,0
97500,note_on,12,0,11,,,,,,,,10,,,55,80
97536,note_on,96,0,13,,,,,,,,12,,,43,0
97536,note_on,96,0,12,,,,,,,,11,,,55,0
97536,note_on,96,0,3,,,,,,,,2,,,59,0
97548,note_on,48,0,11,,,,,,,,10,,,55,0
97560,note_on,24,0,12,,,,,,,,11,,,55,80
97560,note_on,24,0,13,,,,,,,,12,,,43,80
97560,note_on,24,0,3,,,,,,,,2,,,59,80
97560,note_on,12,0,11,,,,,,,,10,,,53,80
97608,note_on,48,0,11,,,,,,,,10,,,53,0
97620,note_on,12,0,11,,,,,,,,10,,,55,80
97656,note_on,96,0,13,,,,,,,,12,,,43,0
97656,note_on,96,0,12,,,,,,,,11,,,55,0
97656,note_on,96,0,3,,,,,,,,2,,,59,0
97668,note_on,48,0,11,,,,,,,,10,,,55,0
97680,note_on,12,0,11,,,,,,,,10,,,53,80
97680,note_on,24,0,13,,,,,,,,12,,,43,80
97680,note_on,24,0,12,,,,,,,,11,,,55,80
97680,note_on,24,0,3,,,,,,,,2,,,60,80
97728,note_on,48,0,3,,,,,,,,2,,,60,0
97728,note_on,48,0,11,,,,,,,,10,,,53,0
97740,note_on,12,0,11,,,,,,,,10,,,55,80
97740,note_on,12,0,3,,,,,,,,2,,,59,80
97776,note_on,96,0,13,,,,,,,,12,,,43,0
97776,note_on,96,0,12,,,,,,,,11,,,55,0
97788,note_on,48,0,11,,,,,,,,10,,,55,0
97788,note_on,48,0,3,,,,,,,,2,,,59,0
97800,note_on,12,0,11,,,,,,,,10,,,53,80
97800,note_on,2568,0,2,,,,,,,,1,,,67,80
97800,note_on,24,0,12,,,,,,,,11,,,55,80
97800,note_on,24,0,13,,,,,,,,12,,,43,80
97800,note_on,12,0,3,,,,,,,,2,,,57,80
97824,note_on,384,0,9,,,,,,,,7,,,62,0
97848,note_on,48,0,11,,,,,,,,10,,,53,0
97848,note_on,48,0,3,,,,,,,,2,,,57,0
97860,note_on,12,0,11,,,,,,,,10,,,55,80
97860,note_on,12,0,3,,,,,,,,2,,,59,80
97896,note_on,96,0,13,,,,,,,,12,,,43,0
97896,note_on,96,0,12,,,,,,,,11,,,55,0
97896,note_on,96,0,2,,,,,,,,1,,,67,0
97908,note_on,48,0,11,,,,,,,,10,,,55,0
97908,note_on,48,0,3,,,,,,,,2,,,59,0
97920,note_on,0,0,8,,,,,,,,6,,,48,80
97920,note_on,24,0,12,,,,,,,,11,,,48,80
97920,note_on,24,0,2,,,,,,,,1,,,72,80
97920,note_on,12,0,11,,,,,,,,10,,,52,80
97920,note_on,96,0,9,,,,,,,,7,,,60,80
97920,note_on,1728,0,8,,,,,,,,6,,,36,80
97920,note_on,12,0,3,,,,,,,,2,,,60,80
97920,note_on,24,0,13,,,,,,,,12,,,36,80
97980,note_on,1788,0,7,,,,,,,,6,,,76,80
98028,note_on,48,0,7,,,,,,,,6,,,76,0
98040,note_on,12,0,7,,,,,,,,6,,,79,80
98088,note_on,48,0,7,,,,,,,,6,,,79,0
98100,note_on,12,0,7,,,,,,,,6,,,76,80
98148,note_on,48,0,7,,,,,,,,6,,,76,0
98160,note_on,12,0,7,,,,,,,,6,,,72,80
98208,note_on,48,0,7,,,,,,,,6,,,72,0
98208,note_on,288,0,2,,,,,,,,1,,,72,0
98220,note_on,12,0,7,,,,,,,,6,,,76,80
98268,note_on,48,0,7,,,,,,,,6,,,76,0
98280,note_on,12,0,7,,,,,,,,6,,,67,80
98280,note_on,72,0,2,,,,,,,,1,,,76,80
98304,note_on,384,0,11,,,,,,,,10,,,52,0
98304,note_on,384,0,9,,,,,,,,7,,,60,0
98304,note_on,2304,0,10,,,,,,,,8,,,55,0
98328,note_on,48,0,7,,,,,,,,6,,,67,0
98340,note_on,12,0,7,,,,,,,,6,,,72,80
98376,note_on,96,0,2,,,,,,,,1,,,76,0
98388,note_on,48,0,7,,,,,,,,6,,,72,0
98400,note_on,96,0,10,,,,,,,,8,,,60,80
98400,note_on,12,0,7,,,,,,,,6,,,64,80
98400,note_on,96,0,9,,,,,,,,7,,,64,80
98400,note_on,24,0,2,,,,,,,,1,,,79,80
98400,note_on,96,0,11,,,,,,,,10,,,55,80
98448,note_on,48,0,7,,,,,,,,6,,,64,0
98460,note_on,12,0,7,,,,,,,,6,,,67,80
98508,note_on,48,0,7,,,,,,,,6,,,67,0
98520,note_on,12,0,7,,,,,,,,6,,,60,80
98568,note_on,48,0,7,,,,,,,,6,,,60,0
98580,note_on,12,0,7,,,,,,,,6,,,64,80
98592,note_on,672,0,12,,,,,,,,11,,,48,0
98592,note_on,0,0,8,,,,,,,,6,,,36,0
98592,note_on,672,0,8,,,,,,,,6,,,48,0
98592,note_on,192,0,10,,,,,,,,8,,,60,0
98592,note_on,672,0,13,,,,,,,,12,,,36,0
98592,note_on,192,0,9,,,,,,,,7,,,64,0
98592,note_on,192,0,11,,,,,,,,10,,,55,0
98628,note_on,48,0,7,,,,,,,,6,,,64,0
98640,note_on,12,0,7,,,,,,,,6,,,55,80
98640,note_on,48,0,11,,,,,,,,10,,,60,80
98640,note_on,48,0,13,,,,,,,,12,,,34,80
98640,note_on,48,0,9,,,,,,,,7,,,67,80
98640,note_on,48,0,10,,,,,,,,8,,,64,80
98640,note_on,48,0,12,,,,,,,,11,,,46,80
98640,note_on,48,0,8,,,,,,,,6,,,34,80
98640,note_on,0,0,8,,,,,,,,6,,,46,80
98688,note_on,288,0,2,,,,,,,,1,,,79,0
98688,note_on,48,0,7,,,,,,,,6,,,55,0
98700,note_on,12,0,7,,,,,,,,6,,,60,80
98748,note_on,48,0,7,,,,,,,,6,,,60,0
98760,note_on,12,0,7,,,,,,,,6,,,52,80
98760,note_on,72,0,2,,,,,,,,1,,,76,80
98760,note_on,6408,0,1,,,,,,,,0,,,67,80
98784,note_on,864,0,3,,,,,,,,2,,,60,0
98808,note_on,48,0,7,,,,,,,,6,,,52,0
98820,note_on,12,0,7,,,,,,,,6,,,55,80
98832,note_on,192,0,13,,,,,,,,12,,,34,0
98832,note_on,0,0,8,,,,,,,,6,,,34,0
98832,note_on,192,0,8,,,,,,,,6,,,46,0
98832,note_on,192,0,11,,,,,,,,10,,,60,0
98832,note_on,192,0,10,,,,,,,,8,,,64,0
98832,note_on,192,0,12,,,,,,,,11,,,46,0
98832,note_on,192,0,9,,,,,,,,7,,,67,0
98856,note_on,96,0,2,,,,,,,,1,,,76,0
98856,note_on,96,0,1,,,,,,,,0,,,67,0
98868,note_on,48,0,7,,,,,,,,6,,,55,0
98880,note_on,48,0,13,,,,,,,,12,,,33,80
98880,note_on,24,0,2,,,,,,,,1,,,73,80
98880,note_on,48,0,12,,,,,,,,11,,,45,80
98880,note_on,96,0,3,,,,,,,,2,,,61,80
98880,note_on,48,0,11,,,,,,,,10,,,52,80
98880,note_on,24,0,1,,,,,,,,0,,,73,80
98880,note_on,48,0,10,,,,,,,,8,,,55,80
98880,note_on,48,0,8,,,,,,,,6,,,33,80
98880,note_on,48,0,9,,,,,,,,7,,,61,80
98880,note_on,0,0,8,,,,,,,,6,,,45,80
98940,note_on,72,0,7,,,,,,,,6,,,79,80
98988,note_on,48,0,7,,,,,,,,6,,,79,0
99000,note_on,12,0,7,,,,,,,,6,,,82,80
99048,note_on,48,0,7,,,,,,,,6,,,82,0
99060,note_on,12,0,7,,,,,,,,6,,,79,80
99072,note_on,192,0,2,,,,,,,,1,,,73,0
99108,note_on,48,0,7,,,,,,,,6,,,79,0
99120,note_on,12,0,7,,,,,,,,6,,,76,80
99168,note_on,48,0,7,,,,,,,,6,,,76,0
99168,note_on,288,0,1,,,,,,,,0,,,73,0
99180,note_on,12,0,7,,,,,,,,6,,,79,80
99228,note_on,48,0,7,,,,,,,,6,,,79,0
99240,note_on,12,0,7,,,,,,,,6,,,73,80
99240,note_on,72,0,1,,,,,,,,0,,,76,80
99264,note_on,384,0,11,,,,,,,,10,,,52,0
99264,note_on,384,0,9,,,,,,,,7,,,61,0
99264,note_on,384,0,10,,,,,,,,8,,,55,0
99288,note_on,48,0,7,,,,,,,,6,,,73,0
99300,note_on,12,0,7,,,,,,,,6,,,76,80
99336,note_on,96,0,1,,,,,,,,0,,,76,0
99348,note_on,48,0,7,,,,,,,,6,,,76,0
99360,note_on,96,0,11,,,,,,,,10,,,55,80
99360,note_on,96,0,9,,,,,,,,7,,,64,80
99360,note_on,96,0,10,,,,,,,,8,,,61,80
99360,note_on,12,0,7,,,,,,,,6,,,70,80
99360,note_on,24,0,1,,,,,,,,0,,,79,80
99408,note_on,48,0,7,,,,,,,,6,,,70,0
99420,note_on,12,0,7,,,,,,,,6,,,73,80
99468,note_on,48,0,7,,,,,,,,6,,,73,0
99480,note_on,12,0,7,,,,,,,,6,,,67,80
99528,note_on,48,0,7,,,,,,,,6,,,67,0
99540,note_on,12,0,7,,,,,,,,6,,,70,80
99552,note_on,192,0,9,,,,,,,,7,,,64,0
99552,note_on,192,0,11,,,,,,,,10,,,55,0
99552,note_on,192,0,10,,,,,,,,8,,,61,0
99588,note_on,48,0,7,,,,,,,,6,,,70,0
99600,note_on,48,0,9,,,,,,,,7,,,67,80
99600,note_on,12,0,7,,,,,,,,6,,,64,80
99600,note_on,48,0,11,,,,,,,,10,,,61,80
99600,note_on,48,0,10,,,,,,,,8,,,64,80
99648,note_on,288,0,1,,,,,,,,0,,,79,0
99648,note_on,48,0,7,,,,,,,,6,,,64,0
99660,note_on,12,0,7,,,,,,,,6,,,67,80
99708,note_on,48,0,7,,,,,,,,6,,,67,0
99720,note_on,12,0,7,,,,,,,,6,,,61,80
99720,note_on,648,0,2,,,,,,,,1,,,69,80
99720,note_on,72,0,1,,,,,,,,0,,,76,80
99744,note_on,864,0,8,,,,,,,,6,,,45,0
99744,note_on,864,0,13,,,,,,,,12,,,33,0
99744,note_on,864,0,12,,,,,,,,11,,,45,0
99744,note_on,0,0,8,,,,,,,,6,,,33,0
99744,note_on,864,0,3,,,,,,,,2,,,61,0
99768,note_on,48,0,7,,,,,,,,6,,,61,0
99780,note_on,12,0,7,,,,,,,,6,,,64,80
99792,note_on,192,0,9,,,,,,,,7,,,67,0
99792,note_on,192,0,10,,,,,,,,8,,,64,0
99792,note_on,192,0,11,,,,,,,,10,,,61,0
99816,note_on,96,0,1,,,,,,,,0,,,76,0
99816,note_on,96,0,2,,,,,,,,1,,,69,0
99828,note_on,48,0,7,,,,,,,,6,,,64,0
99840,note_on,48,0,9,,,,,,,,7,,,62,80
99840,note_on,24,0,2,,,,,,,,1,,,74,80
99840,note_on,96,0,3,,,,,,,,2,,,62,80
99840,note_on,24,0,1,,,,,,,,0,,,74,80
99840,note_on,96,0,13,,,,,,,,12,,,38,80
99840,note_on,48,0,10,,,,,,,,8,,,57,80
99840,note_on,96,0,8,,,,,,,,6,,,38,80
99840,note_on,0,0,8,,,,,,,,6,,,50,80
99840,note_on,96,0,12,,,,,,,,11,,,50,80
99840,note_on,48,0,11,,,,,,,,10,,,53,80
99900,note_on,72,0,7,,,,,,,,6,,,77,80
99948,note_on,48,0,7,,,,,,,,6,,,77,0
99960,note_on,12,0,7,,,,,,,,6,,,81,80
100008,note_on,48,0,7,,,,,,,,6,,,81,0
100020,note_on,12,0,7,,,,,,,,6,,,77,80
100032,note_on,192,0,1,,,,,,,,0,,,74,0
100068,note_on,48,0,7,,,,,,,,6,,,77,0
100080,note_on,12,0,7,,,,,,,,6,,,74,80
100128,note_on,48,0,7,,,,,,,,6,,,74,0
100128,note_on,288,0,2,,,,,,,,1,,,74,0
100140,note_on,12,0,7,,,,,,,,6,,,77,80
100188,note_on,48,0,7,,,,,,,,6,,,77,0
100200,note_on,12,0,7,,,,,,,,6,,,69,80
100200,note_on,72,0,2,,,,,,,,1,,,77,80
100224,note_on,384,0,10,,,,,,,,8,,,57,0
100224,note_on,384,0,11,,,,,,,,10,,,53,0
100224,note_on,384,0,9,,,,,,,,7,,,62,0
100248,note_on,48,0,7,,,,,,,,6,,,69,0
100260,note_on,12,0,7,,,,,,,,6,,,74,80
100296,note_on,96,0,2,,,,,,,,1,,,77,0
100308,note_on,48,0,7,,,,,,,,6,,,74,0
100320,note_on,96,0,11,,,,,,,,10,,,57,80
100320,note_on,96,0,9,,,,,,,,7,,,65,80
100320,note_on,12,0,7,,,,,,,,6,,,65,80
100320,note_on,96,0,10,,,,,,,,8,,,62,80
100320,note_on,24,0,2,,,,,,,,1,,,81,80
100368,note_on,48,0,7,,,,,,,,6,,,65,0
100380,note_on,12,0,7,,,,,,,,6,,,69,80
100428,note_on,48,0,7,,,,,,,,6,,,69,0
100440,note_on,12,0,7,,,,,,,,6,,,62,80
100488,note_on,48,0,7,,,,,,,,6,,,62,0
100500,note_on,12,0,7,,,,,,,,6,,,65,80
100512,note_on,192,0,11,,,,,,,,10,,,57,0
100512,note_on,192,0,9,,,,,,,,7,,,65,0
100512,note_on,672,0,13,,,,,,,,12,,,38,0
100512,note_on,672,0,12,,,,,,,,11,,,50,0
100512,note_on,672,0,8,,,,,,,,6,,,50,0
100512,note_on,0,0,8,,,,,,,,6,,,38,0
100512,note_on,192,0,10,,,,,,,,8,,,62,0
100548,note_on,48,0,7,,,,,,,,6,,,65,0
100560,note_on,48,0,12,,,,,,,,11,,,48,80
100560,note_on,48,0,9,,,,,,,,7,,,69,80
100560,note_on,48,0,11,,,,,,,,10,,,62,80
100560,note_on,48,0,8,,,,,,,,6,,,36,80
100560,note_on,0,0,8,,,,,,,,6,,,48,80
100560,note_on,48,0,10,,,,,,,,8,,,66,80
100560,note_on,48,0,13,,,,,,,,12,,,36,80
100560,note_on,12,0,7,,,,,,,,6,,,57,80
100608,note_on,288,0,2,,,,,,,,1,,,81,0
100608,note_on,48,0,7,,,,,,,,6,,,57,0
100620,note_on,12,0,7,,,,,,,,6,,,62,80
100668,note_on,48,0,7,,,,,,,,6,,,62,0
100680,note_on,648,0,1,,,,,,,,0,,,69,80
100680,note_on,12,0,7,,,,,,,,6,,,54,80
100680,note_on,72,0,2,,,,,,,,1,,,78,80
100704,note_on,864,0,3,,,,,,,,2,,,62,0
100728,note_on,48,0,7,,,,,,,,6,,,54,0
100740,note_on,12,0,7,,,,,,,,6,,,57,80
100752,note_on,192,0,13,,,,,,,,12,,,36,0
100752,note_on,192,0,8,,,,,,,,6,,,48,0
100752,note_on,0,0,8,,,,,,,,6,,,36,0
100752,note_on,192,0,9,,,,,,,,7,,,69,0
100752,note_on,192,0,11,,,,,,,,10,,,62,0
100752,note_on,192,0,12,,,,,,,,11,,,48,0
100752,note_on,192,0,10,,,,,,,,8,,,66,0
100776,note_on,96,0,1,,,,,,,,0,,,69,0
100776,note_on,96,0,2,,,,,,,,1,,,78,0
100788,note_on,48,0,7,,,,,,,,6,,,57,0
100800,note_on,48,0,10,,,,,,,,8,,,57,80
100800,note_on,48,0,8,,,,,,,,6,,,47,80
100800,note_on,0,0,8,,,,,,,,6,,,35,80
100800,note_on,24,0,1,,,,,,,,0,,,75,80
100800,note_on,48,0,12,,,,,,,,11,,,47,80
100800,note_on,48,0,9,,,,,,,,7,,,63,80
100800,note_on,48,0,13,,,,,,,,12,,,35,80
100800,note_on,24,0,2,,,,,,,,1,,,75,80
100800,note_on,48,0,11,,,,,,,,10,,,54,80
100800,note_on,96,0,3,,,,,,,,2,,,63,80
100860,note_on,72,0,7,,,,,,,,6,,,81,80
100908,note_on,48,0,7,,,,,,,,6,,,81,0
100920,note_on,12,0,7,,,,,,,,6,,,84,80
100968,note_on,48,0,7,,,,,,,,6,,,84,0
100980,note_on,12,0,7,,,,,,,,6,,,81,80
100992,note_on,192,0,2,,,,,,,,1,,,75,0
101028,note_on,48,0,7,,,,,,,,6,,,81,0
101040,note_on,12,0,7,,,,,,,,6,,,78,80
101088,note_on,288,0,1,,,,,,,,0,,,75,0
101088,note_on,48,0,7,,,,,,,,6,,,78,0
101100,note_on,12,0,7,,,,,,,,6,,,81,80
101148,note_on,48,0,7,,,,,,,,6,,,81,0
101160,note_on,72,0,1,,,,,,,,0,,,78,80
101160,note_on,12,0,7,,,,,,,,6,,,75,80
101184,note_on,384,0,9,,,,,,,,7,,,63,0
101184,note_on,384,0,11,,,,,,,,10,,,54,0
101184,note_on,384,0,10,,,,,,,,8,,,57,0
101208,note_on,48,0,7,,,,,,,,6,,,75,0
101220,note_on,12,0,7,,,,,,,,6,,,78,80
101256,note_on,96,0,1,,,,,,,,0,,,78,0
101268,note_on,48,0,7,,,,,,,,6,,,78,0
101280,note_on,96,0,9,,,,,,,,7,,,66,80
101280,note_on,24,0,1,,,,,,,,0,,,81,80
101280,note_on,96,0,10,,,,,,,,8,,,63,80
101280,note_on,96,0,11,,,,,,,,10,,,57,80
101280,note_on,12,0,7,,,,,,,,6,,,72,80
101328,note_on,48,0,7,,,,,,,,6,,,72,0
101340,note_on,12,0,7,,,,,,,,6,,,75,80
101388,note_on,48,0,7,,,,,,,,6,,,75,0
101400,note_on,12,0,7,,,,,,,,6,,,69,80
101448,note_on,48,0,7,,,,,,,,6,,,69,0
101460,note_on,12,0,7,,,,,,,,6,,,72,80
101472,note_on,192,0,11,,,,,,,,10,,,57,0
101472,note_on,192,0,10,,,,,,,,8,,,63,0
101472,note_on,192,0,9,,,,,,,,7,,,66,0
101508,note_on,48,0,7,,,,,,,,6,,,72,0
101520,note_on,48,0,10,,,,,,,,8,,,66,80
101520,note_on,48,0,11,,,,,,,,10,,,63,80
101520,note_on,48,0,9,,,,,,,,7,,,69,80
101520,note_on,12,0,7,,,,,,,,6,,,66,80
101568,note_on,288,0,1,,,,,,,,0,,,81,0
101568,note_on,48,0,7,,,,,,,,6,,,66,0
101580,note_on,12,0,7,,,,,,,,6,,,69,80
101628,note_on,48,0,7,,,,,,,,6,,,69,0
101640,note_on,72,0,1,,,,,,,,0,,,78,80
101640,note_on,12,0,7,,,,,,,,6,,,63,80
101640,note_on,648,0,2,,,,,,,,1,,,71,80
101664,note_on,864,0,8,,,,,,,,6,,,35,0
101664,note_on,0,0,8,,,,,,,,6,,,47,0
101664,note_on,864,0,12,,,,,,,,11,,,47,0
101664,note_on,864,0,13,,,,,,,,12,,,35,0
101664,note_on,864,0,3,,,,,,,,2,,,63,0
101688,note_on,48,0,7,,,,,,,,6,,,63,0
101700,note_on,12,0,7,,,,,,,,6,,,66,80
101712,note_on,192,0,10,,,,,,,,8,,,66,0
101712,note_on,192,0,11,,,,,,,,10,,,63,0
101712,note_on,192,0,9,,,,,,,,7,,,69,0
101736,note_on,96,0,1,,,,,,,,0,,,78,0
101736,note_on,96,0,2,,,,,,,,1,,,71,0
101748,note_on,48,0,7,,,,,,,,6,,,66,0
101760,note_on,96,0,12,,,,,,,,11,,,52,80
101760,note_on,96,0,13,,,,,,,,12,,,40,80
101760,note_on,48,0,11,,,,,,,,10,,,55,80
101760,note_on,96,0,3,,,,,,,,2,,,64,80
101760,note_on,96,0,8,,,,,,,,6,,,52,80
101760,note_on,0,0,8,,,,,,,,6,,,40,80
101760,note_on,24,0,1,,,,,,,,0,,,76,80
101760,note_on,48,0,9,,,,,,,,7,,,64,80
101760,note_on,24,0,2,,,,,,,,1,,,76,80
101760,note_on,48,0,10,,,,,,,,8,,,59,80
101820,note_on,72,0,7,,,,,,,,6,,,79,80
101868,note_on,48,0,7,,,,,,,,6,,,79,0
101880,note_on,12,0,7,,,,,,,,6,,,83,80
101928,note_on,48,0,7,,,,,,,,6,,,83,0
101940,note_on,12,0,7,,,,,,,,6,,,79,80
101952,note_on,192,0,1,,,,,,,,0,,,76,0
101988,note_on,48,0,7,,,,,,,,6,,,79,0
102000,note_on,12,0,7,,,,,,,,6,,,76,80
102048,note_on,288,0,2,,,,,,,,1,,,76,0
102048,note_on,48,0,7,,,,,,,,6,,,76,0
102060,note_on,12,0,7,,,,,,,,6,,,79,80
102108,note_on,48,0,7,,,,,,,,6,,,79,0
102120,note_on,12,0,7,,,,,,,,6,,,71,80
102120,note_on,72,0,2,,,,,,,,1,,,79,80
102144,note_on,384,0,9,,,,,,,,7,,,64,0
102144,note_on,384,0,10,,,,,,,,8,,,59,0
102144,note_on,384,0,11,,,,,,,,10,,,55,0
102168,note_on,48,0,7,,,,,,,,6,,,71,0
102180,note_on,12,0,7,,,,,,,,6,,,76,80
102216,note_on,96,0,2,,,,,,,,1,,,79,0
102228,note_on,48,0,7,,,,,,,,6,,,76,0
102240,note_on,12,0,7,,,,,,,,6,,,67,80
102240,note_on,96,0,10,,,,,,,,8,,,64,80
102240,note_on,96,0,11,,,,,,,,10,,,59,80
102240,note_on,24,0,2,,,,,,,,1,,,83,80
102240,note_on,96,0,9,,,,,,,,7,,,67,80
102288,note_on,48,0,7,,,,,,,,6,,,67,0
102300,note_on,12,0,7,,,,,,,,6,,,71,80
102348,note_on,48,0,7,,,,,,,,6,,,71,0
102360,note_on,12,0,7,,,,,,,,6,,,64,80
102408,note_on,48,0,7,,,,,,,,6,,,64,0
102420,note_on,12,0,7,,,,,,,,6,,,67,80
102432,note_on,672,0,13,,,,,,,,12,,,40,0
102432,note_on,192,0,10,,,,,,,,8,,,64,0
102432,note_on,0,0,8,,,,,,,,6,,,52,0
102432,note_on,672,0,8,,,,,,,,6,,,40,0
102432,note_on,192,0,9,,,,,,,,7,,,67,0
102432,note_on,192,0,11,,,,,,,,10,,,59,0
102432,note_on,672,0,12,,,,,,,,11,,,52,0
102468,note_on,48,0,7,,,,,,,,6,,,67,0
102480,note_on,48,0,8,,,,,,,,6,,,50,80
102480,note_on,48,0,9,,,,,,,,7,,,71,80
102480,note_on,48,0,10,,,,,,,,8,,,68,80
102480,note_on,0,0,8,,,,,,,,6,,,38,80
102480,note_on,48,0,12,,,,,,,,11,,,50,80
102480,note_on,12,0,7,,,,,,,,6,,,59,80
102480,note_on,48,0,11,,,,,,,,10,,,64,80
102480,note_on,48,0,13,,,,,,,,12,,,38,80
102528,note_on,288,0,2,,,,,,,,1,,,83,0
102528,note_on,48,0,7,,,,,,,,6,,,59,0
102540,note_on,12,0,7,,,,,,,,6,,,64,80
102588,note_on,48,0,7,,,,,,,,6,,,64,0
102600,note_on,72,0,2,,,,,,,,1,,,79,80
102600,note_on,648,0,1,,,,,,,,0,,,71,80
102600,note_on,12,0,7,,,,,,,,6,,,56,80
102624,note_on,864,0,3,,,,,,,,2,,,64,0
102648,note_on,48,0,7,,,,,,,,6,,,56,0
102660,note_on,12,0,7,,,,,,,,6,,,59,80
102672,note_on,192,0,9,,,,,,,,7,,,71,0
102672,note_on,192,0,8,,,,,,,,6,,,38,0
102672,note_on,0,0,8,,,,,,,,6,,,50,0
102672,note_on,192,0,10,,,,,,,,8,,,68,0
102672,note_on,192,0,12,,,,,,,,11,,,50,0
102672,note_on,192,0,11,,,,,,,,10,,,64,0
102672,note_on,192,0,13,,,,,,,,12,,,38,0
102696,note_on,96,0,1,,,,,,,,0,,,71,0
102696,note_on,96,0,2,,,,,,,,1,,,79,0
102708,note_on,48,0,7,,,,,,,,6,,,59,0
102720,note_on,24,0,2,,,,,,,,1,,,77,80
102720,note_on,96,0,3,,,,,,,,2,,,65,80
102720,note_on,0,0,8,,,,,,,,6,,,37,80
102720,note_on,48,0,13,,,,,,,,12,,,37,80
102720,note_on,24,0,1,,,,,,,,0,,,77,80
102720,note_on,48,0,11,,,,,,,,10,,,56,80
102720,note_on,48,0,12,,,,,,,,11,,,49,80
102720,note_on,48,0,10,,,,,,,,8,,,59,80
102720,note_on,48,0,9,,,,,,,,7,,,65,80
102720,note_on,48,0,8,,,,,,,,6,,,49,80
102780,note_on,72,0,7,,,,,,,,6,,,83,80
102828,note_on,48,0,7,,,,,,,,6,,,83,0
102840,note_on,12,0,7,,,,,,,,6,,,86,80
102888,note_on,48,0,7,,,,,,,,6,,,86,0
102900,note_on,12,0,7,,,,,,,,6,,,83,80
102912,note_on,192,0,2,,,,,,,,1,,,77,0
102948,note_on,48,0,7,,,,,,,,6,,,83,0
102960,note_on,12,0,7,,,,,,,,6,,,80,80
103008,note_on,48,0,7,,,,,,,,6,,,80,0
103008,note_on,288,0,1,,,,,,,,0,,,77,0
103020,note_on,12,0,7,,,,,,,,6,,,83,80
103068,note_on,48,0,7,,,,,,,,6,,,83,0
103080,note_on,12,0,7,,,,,,,,6,,,77,80
103080,note_on,72,0,1,,,,,,,,0,,,80,80
103104,note_on,384,0,11,,,,,,,,10,,,56,0
103104,note_on,384,0,10,,,,,,,,8,,,59,0
103104,note_on,384,0,9,,,,,,,,7,,,65,0
103128,note_on,48,0,7,,,,,,,,6,,,77,0
103140,note_on,12,0,7,,,,,,,,6,,,80,80
103176,note_on,96,0,1,,,,,,,,0,,,80,0
103188,note_on,48,0,7,,,,,,,,6,,,80,0
103200,note_on,96,0,11,,,,,,,,10,,,59,80
103200,note_on,96,0,9,,,,,,,,7,,,68,80
103200,note_on,96,0,10,,,,,,,,8,,,65,80
103200,note_on,24,0,1,,,,,,,,0,,,83,80
103200,note_on,12,0,7,,,,,,,,6,,,74,80
103248,note_on,48,0,7,,,,,,,,6,,,74,0
103260,note_on,12,0,7,,,,,,,,6,,,77,80
103308,note_on,48,0,7,,,,,,,,6,,,77,0
103320,note_on,12,0,7,,,,,,,,6,,,71,80
103368,note_on,48,0,7,,,,,,,,6,,,71,0
103380,note_on,12,0,7,,,,,,,,6,,,74,80
103392,note_on,192,0,10,,,,,,,,8,,,65,0
103392,note_on,192,0,9,,,,,,,,7,,,68,0
103392,note_on,192,0,11,,,,,,,,10,,,59,0
103428,note_on,48,0,7,,,,,,,,6,,,74,0
103440,note_on,12,0,7,,,,,,,,6,,,68,80
103440,note_on,48,0,10,,,,,,,,8,,,68,80
103440,note_on,48,0,9,,,,,,,,7,,,71,80
103440,note_on,48,0,11,,,,,,,,10,,,65,80
103488,note_on,288,0,1,,,,,,,,0,,,83,0
103488,note_on,48,0,7,,,,,,,,6,,,68,0
103500,note_on,12,0,7,,,,,,,,6,,,71,80
103548,note_on,48,0,7,,,,,,,,6,,,71,0
103560,note_on,72,0,1,,,,,,,,0,,,80,80
103560,note_on,12,0,7,,,,,,,,6,,,65,80
103584,note_on,864,0,8,,,,,,,,6,,,37,0
103584,note_on,864,0,12,,,,,,,,11,,,49,0
103584,note_on,864,0,13,,,,,,,,12,,,37,0
103584,note_on,864,0,3,,,,,,,,2,,,65,0
103584,note_on,0,0,8,,,,,,,,6,,,49,0
103608,note_on,48,0,7,,,,,,,,6,,,65,0
103620,note_on,12,0,7,,,,,,,,6,,,68,80
103632,note_on,192,0,9,,,,,,,,7,,,71,0
103632,note_on,192,0,10,,,,,,,,8,,,68,0
103632,note_on,192,0,11,,,,,,,,10,,,65,0
103656,note_on,96,0,1,,,,,,,,0,,,80,0
103668,note_on,48,0,7,,,,,,,,6,,,68,0
103680,note_on,96,0,13,,,,,,,,12,,,42,80
103680,note_on,48,0,9,,,,,,,,7,,,69,80
103680,note_on,48,0,11,,,,,,,,10,,,66,80
103680,note_on,24,0,1,,,,,,,,0,,,81,80
103680,note_on,96,0,3,,,,,,,,2,,,66,80
103680,note_on,768,0,2,,,,,,,,1,,,78,80
103680,note_on,96,0,8,,,,,,,,6,,,54,80
103680,note_on,12,0,7,,,,,,,,6,,,69,80
103680,note_on,0,0,8,,,,,,,,6,,,42,80
103680,note_on,96,0,12,,,,,,,,11,,,54,80
103680,note_on,48,0,10,,,,,,,,8,,,61,80
103728,note_on,48,0,7,,,,,,,,6,,,69,0
103740,note_on,12,0,7,,,,,,,,6,,,73,80
103788,note_on,48,0,7,,,,,,,,6,,,73,0
103800,note_on,12,0,7,,,,,,,,6,,,78,80
103848,note_on,48,0,7,,,,,,,,6,,,78,0
103860,note_on,12,0,7,,,,,,,,6,,,81,80
103872,note_on,192,0,1,,,,,,,,0,,,81,0
103872,note_on,192,0,12,,,,,,,,11,,,54,0
103872,note_on,192,0,3,,,,,,,,2,,,66,0
103872,note_on,192,0,8,,,,,,,,6,,,42,0
103872,note_on,192,0,9,,,,,,,,7,,,69,0
103872,note_on,0,0,8,,,,,,,,6,,,54,0
103872,note_on,192,0,13,,,,,,,,12,,,42,0
103908,note_on,48,0,7,,,,,,,,6,,,81,0
103920,note_on,48,0,9,,,,,,,,7,,,70,80
103920,note_on,48,0,1,,,,,,,,0,,,82,80
103920,note_on,12,0,7,,,,,,,,6,,,70,80
103920,note_on,48,0,13,,,,,,,,12,,,40,80
103920,note_on,0,0,8,,,,,,,,6,,,40,80
103920,note_on,48,0,3,,,,,,,,2,,,64,80
103920,note_on,48,0,12,,,,,,,,11,,,52,80
103920,note_on,48,0,8,,,,,,,,6,,,52,80
103968,note_on,48,0,7,,,,,,,,6,,,70,0
103980,note_on,12,0,7,,,,,,,,6,,,73,80
104028,note_on,48,0,7,,,,,,,,6,,,73,0
104040,note_on,12,0,7,,,,,,,,6,,,79,80
104064,note_on,384,0,11,,,,,,,,10,,,66,0
104064,note_on,384,0,10,,,,,,,,8,,,61,0
104088,note_on,48,0,7,,,,,,,,6,,,79,0
104100,note_on,12,0,7,,,,,,,,6,,,82,80
104112,note_on,192,0,12,,,,,,,,11,,,52,0
104112,note_on,192,0,9,,,,,,,,7,,,70,0
104112,note_on,192,0,3,,,,,,,,2,,,64,0
104112,note_on,192,0,8,,,,,,,,6,,,40,0
104112,note_on,192,0,13,,,,,,,,12,,,40,0
104112,note_on,0,0,8,,,,,,,,6,,,52,0
104112,note_on,192,0,1,,,,,,,,0,,,82,0
104148,note_on,48,0,7,,,,,,,,6,,,82,0
104160,note_on,48,0,13,,,,,,,,12,,,39,80
104160,note_on,12,0,7,,,,,,,,6,,,71,80
104160,note_on,96,0,10,,,,,,,,8,,,66,80
104160,note_on,48,0,9,,,,,,,,7,,,71,80
104160,note_on,48,0,3,,,,,,,,2,,,63,80
104160,note_on,48,0,1,,,,,,,,0,,,83,80
104160,note_on,48,0,12,,,,,,,,11,,,51,80
104160,note_on,0,0,8,,,,,,,,6,,,39,80
104160,note_on,96,0,11,,,,,,,,10,,,54,80
104160,note_on,48,0,8,,,,,,,,6,,,51,80
104208,note_on,48,0,7,,,,,,,,6,,,71,0
104220,note_on,12,0,7,,,,,,,,6,,,75,80
104268,note_on,48,0,7,,,,,,,,6,,,75,0
104280,note_on,12,0,7,,,,,,,,6,,,78,80
104328,note_on,48,0,7,,,,,,,,6,,,78,0
104340,note_on,12,0,7,,,,,,,,6,,,83,80
104352,note_on,0,0,8,,,,,,,,6,,,51,0
104352,note_on,192,0,8,,,,,,,,6,,,39,0
104352,note_on,192,0,12,,,,,,,,11,,,51,0
104352,note_on,192,0,1,,,,,,,,0,,,83,0
104352,note_on,192,0,9,,,,,,,,7,,,71,0
104352,note_on,192,0,13,,,,,,,,12,,,39,0
104352,note_on,192,0,3,,,,,,,,2,,,63,0
104388,note_on,48,0,7,,,,,,,,6,,,83,0
104400,note_on,48,0,1,,,,,,,,0,,,84,80
104400,note_on,48,0,9,,,,,,,,7,,,72,80
104400,note_on,48,0,13,,,,,,,,12,,,38,80
104400,note_on,48,0,3,,,,,,,,2,,,62,80
104400,note_on,12,0,7,,,,,,,,6,,,72,80
104400,note_on,48,0,12,,,,,,,,11,,,50,80
104400,note_on,48,0,8,,,,,,,,6,,,38,80
104400,note_on,0,0,8,,,,,,,,6,,,50,80
104448,note_on,48,0,7,,,,,,,,6,,,72,0
104460,note_on,12,0,7,,,,,,,,6,,,78,80
104508,note_on,48,0,7,,,,,,,,6,,,78,0
104520,note_on,12,0,7,,,,,,,,6,,,81,80
104544,note_on,384,0,10,,,,,,,,8,,,66,0
104544,note_on,864,0,2,,,,,,,,1,,,78,0
104544,note_on,384,0,11,,,,,,,,10,,,54,0
104568,note_on,48,0,7,,,,,,,,6,,,81,0
104580,note_on,12,0,7,,,,,,,,6,,,84,80
104592,note_on,192,0,9,,,,,,,,7,,,72,0
104592,note_on,192,0,12,,,,,,,,11,,,50,0
104592,note_on,192,0,13,,,,,,,,12,,,38,0
104592,note_on,192,0,1,,,,,,,,0,,,84,0
104592,note_on,192,0,3,,,,,,,,2,,,62,0
104592,note_on,0,0,8,,,,,,,,6,,,38,0
104592,note_on,192,0,8,,,,,,,,6,,,50,0
104628,note_on,48,0,7,,,,,,,,6,,,84,0
104640,note_on,96,0,2,,,,,,,,1,,,77,80
104640,note_on,48,0,1,,,,,,,,0,,,85,80
104640,note_on,48,0,3,,,,,,,,2,,,61,80
104640,note_on,48,0,13,,,,,,,,12,,,37,80
104640,note_on,48,0,12,,,,,,,,11,,,49,80
104640,note_on,48,0,9,,,,,,,,7,,,73,80
104640,note_on,96,0,11,,,,,,,,10,,,56,80
104640,note_on,48,0,8,,,,,,,,6,,,37,80
104640,note_on,0,0,8,,,,,,,,6,,,49,80
104640,note_on,96,0,10,,,,,,,,8,,,65,80
104700,note_on,72,0,7,,,,,,,,6,,,85,80
104748,note_on,48,0,7,,,,,,,,6,,,85,0
104760,note_on,12,0,7,,,,,,,,6,,,86,80
104808,note_on,48,0,7,,,,,,,,6,,,86,0
104820,note_on,12,0,7,,,,,,,,6,,,85,80
104832,note_on,192,0,2,,,,,,,,1,,,77,0
104832,note_on,192,0,9,,,,,,,,7,,,73,0
104832,note_on,0,0,8,,,,,,,,6,,,37,0
104832,note_on,192,0,3,,,,,,,,2,,,61,0
104832,note_on,192,0,12,,,,,,,,11,,,49,0
104832,note_on,192,0,13,,,,,,,,12,,,37,0
104832,note_on,192,0,11,,,,,,,,10,,,56,0
104832,note_on,192,0,8,,,,,,,,6,,,49,0
104832,note_on,192,0,10,,,,,,,,8,,,65,0
104832,note_on,192,0,1,,,,,,,,0,,,85,0
104868,note_on,48,0,7,,,,,,,,6,,,85,0
104880,note_on,12,0,7,,,,,,,,6,,,84,80
104928,note_on,48,0,7,,,,,,,,6,,,84,0
104940,note_on,12,0,7,,,,,,,,6,,,85,80
104988,note_on,48,0,7,,,,,,,,6,,,85,0
105000,note_on,0,0,8,,,,,,,,6,,,61,80
105000,note_on,168,0,8,,,,,,,,6,,,65,80
105000,note_on,12,0,7,,,,,,,,6,,,83,80
105048,note_on,48,0,7,,,,,,,,6,,,83,0
105060,note_on,12,0,7,,,,,,,,6,,,85,80
105096,note_on,0,0,8,,,,,,,,6,,,65,0
105096,note_on,96,0,8,,,,,,,,6,,,61,0
105108,note_on,48,0,7,,,,,,,,6,,,85,0
105120,note_on,12,0,7,,,,,,,,6,,,82,80
105120,note_on,0,0,8,,,,,,,,6,,,66,80
105120,note_on,24,0,8,,,,,,,,6,,,61,80
105168,note_on,48,0,7,,,,,,,,6,,,82,0
105180,note_on,12,0,7,,,,,,,,6,,,85,80
105228,note_on,48,0,7,,,,,,,,6,,,85,0
105240,note_on,12,0,7,,,,,,,,6,,,81,80
105288,note_on,48,0,7,,,,,,,,6,,,81,0
105300,note_on,12,0,7,,,,,,,,6,,,85,80
105312,note_on,192,0,8,,,,,,,,6,,,66,0
105348,note_on,48,0,7,,,,,,,,6,,,85,0
105360,note_on,12,0,7,,,,,,,,6,,,80,80
105360,note_on,48,0,8,,,,,,,,6,,,68,80
105408,note_on,48,0,7,,,,,,,,6,,,80,0
105420,note_on,12,0,7,,,,,,,,6,,,85,80
105456,note_on,96,0,8,,,,,,,,6,,,68,0
105468,note_on,48,0,7,,,,,,,,6,,,85,0
105480,note_on,12,0,7,,,,,,,,6,,,78,80
105480,note_on,24,0,8,,,,,,,,6,,,69,80
105504,note_on,24,0,8,,,,,,,,6,,,61,0
105528,note_on,48,0,7,,,,,,,,6,,,78,0
105540,note_on,12,0,7,,,,,,,,6,,,85,80
105576,note_on,72,0,8,,,,,,,,6,,,69,0
105588,note_on,48,0,7,,,,,,,,6,,,85,0
105600,note_on,12,0,7,,,,,,,,6,,,77,80
105600,note_on,768,0,1,,,,,,,,0,,,85,80
105600,note_on,24,0,8,,,,,,,,6,,,68,80
105600,note_on,0,0,8,,,,,,,,6,,,61,80
105648,note_on,48,0,7,,,,,,,,6,,,77,0
105660,note_on,12,0,7,,,,,,,,6,,,73,80
105708,note_on,48,0,7,,,,,,,,6,,,73,0
105720,note_on,12,0,7,,,,,,,,6,,,72,80
105768,note_on,48,0,7,,,,,,,,6,,,72,0
105780,note_on,12,0,7,,,,,,,,6,,,73,80
105828,note_on,48,0,7,,,,,,,,6,,,73,0
105840,note_on,12,0,7,,,,,,,,6,,,75,80
105888,note_on,288,0,8,,,,,,,,6,,,68,0
105888,note_on,48,0,7,,,,,,,,6,,,75,0
105900,note_on,12,0,7,,,,,,,,6,,,73,80
105948,note_on,48,0,7,,,,,,,,6,,,73,0
105960,note_on,12,0,7,,,,,,,,6,,,77,80
105960,note_on,72,0,8,,,,,,,,6,,,71,80
105984,note_on,24,0,8,,,,,,,,6,,,61,0
106008,note_on,48,0,7,,,,,,,,6,,,77,0
106020,note_on,12,0,7,,,,,,,,6,,,73,80
106056,note_on,72,0,8,,,,,,,,6,,,71,0
106068,note_on,48,0,7,,,,,,,,6,,,73,0
106080,note_on,12,0,7,,,,,,,,6,,,78,80
106080,note_on,0,0,8,,,,,,,,6,,,61,80
106080,note_on,24,0,8,,,,,,,,6,,,69,80
106128,note_on,48,0,7,,,,,,,,6,,,78,0
106140,note_on,12,0,7,,,,,,,,6,,,73,80
106176,note_on,96,0,8,,,,,,,,6,,,69,0
106188,note_on,48,0,7,,,,,,,,6,,,73,0
106200,note_on,24,0,8,,,,,,,,6,,,65,80
106200,note_on,12,0,7,,,,,,,,6,,,80,80
106248,note_on,48,0,7,,,,,,,,6,,,80,0
106260,note_on,12,0,7,,,,,,,,6,,,73,80
106296,note_on,96,0,8,,,,,,,,6,,,65,0
106308,note_on,48,0,7,,,,,,,,6,,,73,0
106320,note_on,12,0,7,,,,,,,,6,,,81,80
106320,note_on,24,0,8,,,,,,,,6,,,66,80
106368,note_on,48,0,7,,,,,,,,6,,,81,0
106380,note_on,12,0,7,,,,,,,,6,,,73,80
106416,note_on,96,0,8,,,,,,,,6,,,66,0
106428,note_on,48,0,7,,,,,,,,6,,,73,0
106440,note_on,24,0,8,,,,,,,,6,,,63,80
106440,note_on,12,0,7,,,,,,,,6,,,84,80
106464,note_on,24,0,8,,,,,,,,6,,,61,0
106488,note_on,48,0,7,,,,,,,,6,,,84,0
106500,note_on,12,0,7,,,,,,,,6,,,73,80
106536,note_on,72,0,8,,,,,,,,6,,,63,0
106548,note_on,48,0,7,,,,,,,,6,,,73,0
106560,note_on,24,0,8,,,,,,,,6,,,61,80
106560,note_on,0,0,8,,,,,,,,6,,,65,80
106560,note_on,1728,0,12,,,,,,,,11,,,49,80
106560,note_on,1728,0,13,,,,,,,,12,,,37,80
106560,note_on,12,0,7,,,,,,,,6,,,85,80
106560,note_on,1728,0,2,,,,,,,,1,,,73,80
106680,note_on,1848,0,9,,,,,,,,7,,,68,80
106680,note_on,1848,0,10,,,,,,,,8,,,65,80
106680,note_on,1848,0,11,,,,,,,,10,,,61,80
106752,note_on,192,0,8,,,,,,,,6,,,65,0
106752,note_on,192,0,7,,,,,,,,6,,,85,0
106752,note_on,0,0,8,,,,,,,,6,,,61,0
106752,note_on,192,0,12,,,,,,,,11,,,49,0
106752,note_on,1152,0,1,,,,,,,,0,,,85,0
106752,note_on,192,0,13,,,,,,,,12,,,37,0
106776,note_on,96,0,11,,,,,,,,10,,,61,0
106776,note_on,96,0,9,,,,,,,,7,,,68,0
106776,note_on,96,0,10,,,,,,,,8,,,65,0
106800,note_on,24,0,9,,,,,,,,7,,,68,80
106800,note_on,24,0,10,,,,,,,,8,,,65,80
106800,note_on,24,0,11,,,,,,,,10,,,61,80
106848,note_on,288,0,2,,,,,,,,1,,,73,0
106896,note_on,96,0,11,,,,,,,,10,,,61,0
106896,note_on,96,0,9,,,,,,,,7,,,68,0
106896,note_on,96,0,10,,,,,,,,8,,,65,0
106920,note_on,72,0,2,,,,,,,,1,,,77,80
106920,note_on,24,0,9,,,,,,,,7,,,68,80
106920,note_on,24,0,11,,,,,,,,10,,,61,80
106920,note_on,24,0,10,,,,,,,,8,,,65,80
107016,note_on,96,0,9,,,,,,,,7,,,68,0
107016,note_on,96,0,10,,,,,,,,8,,,65,0
107016,note_on,96,0,2,,,,,,,,1,,,77,0
107016,note_on,96,0,11,,,,,,,,10,,,61,0
107040,note_on,24,0,11,,,,,,,,10,,,61,80
107040,note_on,288,0,13,,,,,,,,12,,,37,80
107040,note_on,288,0,12,,,,,,,,11,,,49,80
107040,note_on,24,0,9,,,,,,,,7,,,68,80
107040,note_on,24,0,10,,,,,,,,8,,,65,80
107040,note_on,24,0,2,,,,,,,,1,,,80,80
107136,note_on,96,0,10,,,,,,,,8,,,65,0
107136,note_on,96,0,9,,,,,,,,7,,,68,0
107136,note_on,96,0,11,,,,,,,,10,,,61,0
107160,note_on,24,0,10,,,,,,,,8,,,65,80
107160,note_on,24,0,11,,,,,,,,10,,,61,80
107160,note_on,24,0,9,,,,,,,,7,,,68,80
107232,note_on,192,0,12,,,,,,,,11,,,49,0
107232,note_on,192,0,13,,,,,,,,12,,,37,0
107256,note_on,96,0,10,,,,,,,,8,,,65,0
107256,note_on,96,0,9,,,,,,,,7,,,68,0
107256,note_on,96,0,11,,,,,,,,10,,,61,0
107280,note_on,24,0,9,,,,,,,,7,,,68,80
107280,note_on,24,0,11,,,,,,,,10,,,61,80
107280,note_on,24,0,10,,,,,,,,8,,,65,80
107328,note_on,288,0,2,,,,,,,,1,,,80,0
107376,note_on,96,0,10,,,,,,,,8,,,65,0
107376,note_on,96,0,11,,,,,,,,10,,,61,0
107376,note_on,96,0,9,,,,,,,,7,,,68,0
107400,note_on,72,0,2,,,,,,,,1,,,77,80
107400,note_on,24,0,9,,,,,,,,7,,,68,80
107400,note_on,24,0,10,,,,,,,,8,,,65,80
107400,note_on,24,0,11,,,,,,,,10,,,61,80
107496,note_on,96,0,11,,,,,,,,10,,,61,0
107496,note_on,96,0,2,,,,,,,,1,,,77,0
107496,note_on,96,0,10,,,,,,,,8,,,65,0
107496,note_on,96,0,9,,,,,,,,7,,,68,0
107520,note_on,768,0,1,,,,,,,,0,,,73,80
107520,note_on,0,0,8,,,,,,,,6,,,64,80
107520,note_on,0,0,8,,,,,,,,6,,,68,80
107520,note_on,288,0,12,,,,,,,,11,,,49,80
107520,note_on,24,0,9,,,,,,,,7,,,68,80
107520,note_on,24,0,11,,,,,,,,10,,,61,80
107520,note_on,24,0,10,,,,,,,,8,,,64,80
107520,note_on,24,0,2,,,,,,,,1,,,73,80
107520,note_on,768,0,8,,,,,,,,6,,,61,80
107520,note_on,288,0,13,,,,,,,,12,,,37,80
107616,note_on,96,0,10,,,,,,,,8,,,64,0
107616,note_on,96,0,9,,,,,,,,7,,,68,0
107616,note_on,96,0,11,,,,,,,,10,,,61,0
107640,note_on,24,0,10,,,,,,,,8,,,64,80
107640,note_on,24,0,9,,,,,,,,7,,,68,80
107640,note_on,24,0,11,,,,,,,,10,,,61,80
107712,note_on,192,0,8,,,,,,,,6,,,64,0
107712,note_on,0,0,8,,,,,,,,6,,,61,0
107712,note_on,192,0,12,,,,,,,,11,,,49,0
107712,note_on,192,0,13,,,,,,,,12,,,37,0
107712,note_on,192,0,2,,,,,,,,1,,,73,0
107712,note_on,0,0,8,,,,,,,,6,,,68,0
107736,note_on,96,0,10,,,,,,,,8,,,64,0
107736,note_on,96,0,11,,,,,,,,10,,,61,0
107736,note_on,96,0,9,,,,,,,,7,,,68,0
107760,note_on,24,0,10,,,,,,,,8,,,64,80
107760,note_on,24,0,9,,,,,,,,7,,,68,80
107760,note_on,24,0,11,,,,,,,,10,,,61,80
107808,note_on,288,0,1,,,,,,,,0,,,73,0
107856,note_on,96,0,11,,,,,,,,10,,,61,0
107856,note_on,96,0,9,,,,,,,,7,,,68,0
107856,note_on,96,0,10,,,,,,,,8,,,64,0
107880,note_on,24,0,10,,,,,,,,8,,,64,80
107880,note_on,24,0,9,,,,,,,,7,,,68,80
107880,note_on,72,0,1,,,,,,,,0,,,76,80
107880,note_on,24,0,11,,,,,,,,10,,,61,80
107976,note_on,96,0,11,,,,,,,,10,,,61,0
107976,note_on,96,0,9,,,,,,,,7,,,68,0
107976,note_on,96,0,1,,,,,,,,0,,,76,0
107976,note_on,96,0,10,,,,,,,,8,,,64,0
108000,note_on,288,0,13,,,,,,,,12,,,37,80
108000,note_on,24,0,9,,,,,,,,7,,,68,80
108000,note_on,24,0,1,,,,,,,,0,,,80,80
108000,note_on,24,0,11,,,,,,,,10,,,61,80
108000,note_on,288,0,12,,,,,,,,11,,,49,80
108000,note_on,24,0,10,,,,,,,,8,,,64,80
108096,note_on,96,0,10,,,,,,,,8,,,64,0
108096,note_on,96,0,11,,,,,,,,10,,,61,0
108096,note_on,96,0,9,,,,,,,,7,,,68,0
108120,note_on,24,0,10,,,,,,,,8,,,64,80
108120,note_on,24,0,9,,,,,,,,7,,,68,80
108120,note_on,24,0,11,,,,,,,,10,,,61,80
108192,note_on,192,0,12,,,,,,,,11,,,49,0
108192,note_on,192,0,13,,,,,,,,12,,,37,0
108216,note_on,96,0,11,,,,,,,,10,,,61,0
108216,note_on,96,0,9,,,,,,,,7,,,68,0
108216,note_on,96,0,10,,,,,,,,8,,,64,0
108240,note_on,24,0,9,,,,,,,,7,,,68,80
108240,note_on,24,0,10,,,,,,,,8,,,64,80
108240,note_on,24,0,11,,,,,,,,10,,,61,80
108288,note_on,288,0,1,,,,,,,,0,,,80,0
108336,note_on,96,0,10,,,,,,,,8,,,64,0
108336,note_on,96,0,9,,,,,,,,7,,,68,0
108336,note_on,96,0,11,,,,,,,,10,,,61,0
108360,note_on,24,0,10,,,,,,,,8,,,64,80
108360,note_on,24,0,11,,,,,,,,10,,,61,80
108360,note_on,72,0,1,,,,,,,,0,,,76,80
108360,note_on,24,0,9,,,,,,,,7,,,68,80
108456,note_on,96,0,10,,,,,,,,8,,,64,0
108456,note_on,96,0,9,,,,,,,,7,,,68,0
108456,note_on,96,0,1,,,,,,,,0,,,76,0
108456,note_on,96,0,11,,,,,,,,10,,,61,0
108480,note_on,24,0,11,,,,,,,,10,,,61,80
108480,note_on,0,0,8,,,,,,,,6,,,67,80
108480,note_on,288,0,13,,,,,,,,12,,,37,80
108480,note_on,768,0,8,,,,,,,,6,,,61,80
108480,note_on,24,0,9,,,,,,,,7,,,67,80
108480,note_on,24,0,1,,,,,,,,0,,,73,80
108480,note_on,1728,0,7,,,,,,,,6,,,73,80
108480,note_on,0,0,8,,,,,,,,6,,,64,80
108480,note_on,288,0,12,,,,,,,,11,,,49,80
108480,note_on,24,0,10,,,,,,,,8,,,64,80
108576,note_on,96,0,11,,,,,,,,10,,,61,0
108576,note_on,96,0,10,,,,,,,,8,,,64,0
108576,note_on,96,0,9,,,,,,,,7,,,67,0
108600,note_on,24,0,11,,,,,,,,10,,,61,80
108600,note_on,24,0,10,,,,,,,,8,,,64,80
108600,note_on,24,0,9,,,,,,,,7,,,67,80
108672,note_on,0,0,8,,,,,,,,6,,,67,0
108672,note_on,192,0,12,,,,,,,,11,,,49,0
108672,note_on,192,0,13,,,,,,,,12,,,37,0
108672,note_on,192,0,1,,,,,,,,0,,,73,0
108672,note_on,0,0,8,,,,,,,,6,,,61,0
108672,note_on,192,0,8,,,,,,,,6,,,64,0
108696,note_on,96,0,10,,,,,,,,8,,,64,0
108696,note_on,96,0,11,,,,,,,,10,,,61,0
108696,note_on,96,0,9,,,,,,,,7,,,67,0
108720,note_on,24,0,10,,,,,,,,8,,,64,80
108720,note_on,24,0,9,,,,,,,,7,,,67,80
108720,note_on,24,0,11,,,,,,,,10,,,61,80
108768,note_on,288,0,7,,,,,,,,6,,,73,0
108816,note_on,96,0,11,,,,,,,,10,,,61,0
108816,note_on,96,0,10,,,,,,,,8,,,64,0
108816,note_on,96,0,9,,,,,,,,7,,,67,0
108840,note_on,24,0,10,,,,,,,,8,,,64,80
108840,note_on,24,0,9,,,,,,,,7,,,67,80
108840,note_on,24,0,11,,,,,,,,10,,,61,80
108840,note_on,72,0,7,,,,,,,,6,,,76,80
108936,note_on,96,0,9,,,,,,,,7,,,67,0
108936,note_on,96,0,11,,,,,,,,10,,,61,0
108936,note_on,96,0,7,,,,,,,,6,,,76,0
108936,note_on,96,0,10,,,,,,,,8,,,64,0
108960,note_on,24,0,7,,,,,,,,6,,,79,80
108960,note_on,288,0,12,,,,,,,,11,,,49,80
108960,note_on,288,0,13,,,,,,,,12,,,37,80
108960,note_on,24,0,11,,,,,,,,10,,,61,80
108960,note_on,24,0,9,,,,,,,,7,,,67,80
108960,note_on,24,0,10,,,,,,,,8,,,64,80
109056,note_on,96,0,10,,,,,,,,8,,,64,0
109056,note_on,96,0,9,,,,,,,,7,,,67,0
109056,note_on,96,0,11,,,,,,,,10,,,61,0
109080,note_on,24,0,11,,,,,,,,10,,,61,80
109080,note_on,24,0,9,,,,,,,,7,,,67,80
109080,note_on,24,0,10,,,,,,,,8,,,64,80
109152,note_on,192,0,13,,,,,,,,12,,,37,0
109152,note_on,192,0,12,,,,,,,,11,,,49,0
109176,note_on,96,0,9,,,,,,,,7,,,67,0
109176,note_on,96,0,11,,,,,,,,10,,,61,0
109176,note_on,96,0,10,,,,,,,,8,,,64,0
109200,note_on,24,0,9,,,,,,,,7,,,67,80
109200,note_on,24,0,11,,,,,,,,10,,,61,80
109200,note_on,24,0,10,,,,,,,,8,,,64,80
109248,note_on,288,0,7,,,,,,,,6,,,79,0
109296,note_on,96,0,11,,,,,,,,10,,,61,0
109296,note_on,96,0,9,,,,,,,,7,,,67,0
109296,note_on,96,0,10,,,,,,,,8,,,64,0
109320,note_on,24,0,10,,,,,,,,8,,,64,80
109320,note_on,72,0,7,,,,,,,,6,,,76,80
109320,note_on,24,0,11,,,,,,,,10,,,61,80
109320,note_on,24,0,9,,,,,,,,7,,,67,80
109416,note_on,96,0,7,,,,,,,,6,,,76,0
109416,note_on,96,0,11,,,,,,,,10,,,61,0
109416,note_on,96,0,10,,,,,,,,8,,,64,0
109416,note_on,96,0,9,,,,,,,,7,,,67,0
109440,note_on,36768,0,6,,,,,,,,5,,,45,80
109440,note_on,24,0,10,,,,,,,,8,,,61,80
109440,note_on,24,0,9,,,,,,,,7,,,73,80
109440,note_on,288,0,13,,,,,,,,12,,,33,80
109440,note_on,768,0,1,,,,,,,,0,,,85,80
109440,note_on,24,0,7,,,,,,,,6,,,73,80
109440,note_on,36768,0,5,,,,,,,,4,,,76,80
109440,note_on,4608,0,3,,,,,,,,2,,,45,80
109440,note_on,36768,0,4,,,,,,,,3,,,57,80
109440,note_on,0,0,4,,,,,,,,3,,,64,80
109440,note_on,0,0,2,,,,,,,,1,,,73,80
109440,note_on,1728,0,2,,,,,,,,1,,,79,80
109440,note_on,24,0,11,,,,,,,,10,,,57,80
109440,note_on,0,0,5,,,,,,,,4,,,69,80
109440,note_on,768,0,8,,,,,,,,6,,,64,80
109440,note_on,0,0,8,,,,,,,,6,,,61,80
109440,note_on,0,0,8,,,,,,,,6,,,67,80
109440,note_on,0,0,8,,,,,,,,6,,,57,80
109440,note_on,288,0,12,,,,,,,,11,,,45,80
109464,note_on,24,0,6,,,,,,,,5,,,45,0
109470,note_on,6,0,6,,,,,,,,5,,,45,80
109494,note_on,24,0,6,,,,,,,,5,,,45,0
109500,note_on,6,0,6,,,,,,,,5,,,45,80
109524,note_on,24,0,6,,,,,,,,5,,,45,0
109530,note_on,6,0,6,,,,,,,,5,,,45,80
109536,note_on,96,0,11,,,,,,,,10,,,57,0
109536,note_on,96,0,3,,,,,,,,2,,,45,0
109536,note_on,96,0,13,,,,,,,,12,,,33,0
109536,note_on,96,0,12,,,,,,,,11,,,45,0
109554,note_on,24,0,6,,,,,,,,5,,,45,0
109560,note_on,24,0,12,,,,,,,,11,,,57,80
109560,note_on,24,0,13,,,,,,,,12,,,45,80
109560,note_on,24,0,3,,,,,,,,2,,,57,80
109560,note_on,24,0,11,,,,,,,,10,,,69,80
109560,note_on,6,0,6,,,,,,,,5,,,45,80
109584,note_on,24,0,6,,,,,,,,5,,,45,0
109590,note_on,6,0,6,,,,,,,,5,,,45,80
109614,note_on,24,0,6,,,,,,,,5,,,45,0
109620,note_on,6,0,6,,,,,,,,5,,,45,80
109632,note_on,192,0,8,,,,,,,,6,,,61,0
109632,note_on,0,0,8,,,,,,,,6,,,64,0
109632,note_on,0,0,8,,,,,,,,6,,,67,0
109632,note_on,192,0,7,,,,,,,,6,,,73,0
109632,note_on,0,0,8,,,,,,,,6,,,57,0
109644,note_on,24,0,6,,,,,,,,5,,,45,0
109650,note_on,6,0,6,,,,,,,,5,,,45,80
109656,note_on,96,0,3,,,,,,,,2,,,57,0
109656,note_on,96,0,12,,,,,,,,11,,,57,0
109656,note_on,96,0,11,,,,,,,,10,,,69,0
109656,note_on,96,0,13,,,,,,,,12,,,45,0
109674,note_on,24,0,6,,,,,,,,5,,,45,0
109680,note_on,6,0,6,,,,,,,,5,,,45,80
109680,note_on,24,0,11,,,,,,,,10,,,69,80
109680,note_on,24,0,13,,,,,,,,12,,,45,80
109680,note_on,24,0,3,,,,,,,,2,,,57,80
109680,note_on,24,0,12,,,,,,,,11,,,57,80
109704,note_on,24,0,6,,,,,,,,5,,,45,0
109710,note_on,6,0,6,,,,,,,,5,,,45,80
109728,note_on,288,0,9,,,,,,,,7,,,73,0
109728,note_on,288,0,10,,,,,,,,8,,,61,0
109734,note_on,24,0,6,,,,,,,,5,,,45,0
109740,note_on,6,0,6,,,,,,,,5,,,45,80
109764,note_on,24,0,6,,,,,,,,5,,,45,0
109770,note_on,6,0,6,,,,,,,,5,,,45,80
109776,note_on,96,0,13,,,,,,,,12,,,45,0
109776,note_on,96,0,3,,,,,,,,2,,,57,0
109776,note_on,96,0,12,,,,,,,,11,,,57,0
109776,note_on,96,0,11,,,,,,,,10,,,69,0
109794,note_on,24,0,6,,,,,,,,5,,,45,0
109800,note_on,24,0,11,,,,,,,,10,,,69,80
109800,note_on,72,0,10,,,,,,,,8,,,64,80
109800,note_on,24,0,12,,,,,,,,11,,,57,80
109800,note_on,72,0,9,,,,,,,,7,,,76,80
109800,note_on,6,0,6,,,,,,,,5,,,45,80
109800,note_on,24,0,3,,,,,,,,2,,,57,80
109800,note_on,24,0,13,,,,,,,,12,,,45,80
109824,note_on,24,0,6,,,,,,,,5,,,45,0
109830,note_on,6,0,6,,,,,,,,5,,,45,80
109854,note_on,24,0,6,,,,,,,,5,,,45,0
109860,note_on,6,0,6,,,,,,,,5,,,45,80
109884,note_on,24,0,6,,,,,,,,5,,,45,0
109890,note_on,6,0,6,,,,,,,,5,,,45,80
109896,note_on,96,0,9,,,,,,,,7,,,76,0
109896,note_on,96,0,12,,,,,,,,11,,,57,0
109896,note_on,96,0,11,,,,,,,,10,,,69,0
109896,note_on,96,0,10,,,,,,,,8,,,64,0
109896,note_on,96,0,13,,,,,,,,12,,,45,0
109896,note_on,96,0,3,,,,,,,,2,,,57,0
109914,note_on,24,0,6,,,,,,,,5,,,45,0
109920,note_on,24,0,13,,,,,,,,12,,,45,80
109920,note_on,24,0,3,,,,,,,,2,,,57,80
109920,note_on,24,0,11,,,,,,,,10,,,69,80
109920,note_on,24,0,9,,,,,,,,7,,,79,80
109920,note_on,6,0,6,,,,,,,,5,,,45,80
109920,note_on,24,0,12,,,,,,,,11,,,57,80
109920,note_on,24,0,10,,,,,,,,8,,,67,80
109944,note_on,24,0,6,,,,,,,,5,,,45,0
109950,note_on,6,0,6,,,,,,,,5,,,45,80
109974,note_on,24,0,6,,,,,,,,5,,,45,0
109980,note_on,6,0,6,,,,,,,,5,,,45,80
110004,note_on,24,0,6,,,,,,,,5,,,45,0
110010,note_on,6,0,6,,,,,,,,5,,,45,80
110016,note_on,96,0,12,,,,,,,,11,,,57,0
110016,note_on,96,0,13,,,,,,,,12,,,45,0
110016,note_on,96,0,11,,,,,,,,10,,,69,0
110016,note_on,96,0,3,,,,,,,,2,,,57,0
110034,note_on,24,0,6,,,,,,,,5,,,45,0
110040,note_on,6,0,6,,,,,,,,5,,,45,80
110040,note_on,24,0,3,,,,,,,,2,,,57,80
110040,note_on,24,0,13,,,,,,,,12,,,45,80
110040,note_on,24,0,12,,,,,,,,11,,,57,80
110040,note_on,24,0,11,,,,,,,,10,,,69,80
110064,note_on,24,0,6,,,,,,,,5,,,45,0
110070,note_on,6,0,6,,,,,,,,5,,,45,80
110094,note_on,24,0,6,,,,,,,,5,,,45,0
110100,note_on,6,0,6,,,,,,,,5,,,45,80
110124,note_on,24,0,6,,,,,,,,5,,,45,0
110130,note_on,6,0,6,,,,,,,,5,,,45,80
110136,note_on,96,0,13,,,,,,,,12,,,45,0
110136,note_on,96,0,11,,,,,,,,10,,,69,0
110136,note_on,96,0,3,,,,,,,,2,,,57,0
110136,note_on,96,0,12,,,,,,,,11,,,57,0
110154,note_on,24,0,6,,,,,,,,5,,,45,0
110160,note_on,24,0,3,,,,,,,,2,,,57,80
110160,note_on,24,0,11,,,,,,,,10,,,69,80
110160,note_on,24,0,13,,,,,,,,12,,,45,80
110160,note_on,24,0,12,,,,,,,,11,,,57,80
110160,note_on,6,0,6,,,,,,,,5,,,45,80
110184,note_on,24,0,6,,,,,,,,5,,,45,0
110190,note_on,6,0,6,,,,,,,,5,,,45,80
110208,note_on,288,0,10,,,,,,,,8,,,67,0
110208,note_on,288,0,9,,,,,,,,7,,,79,0
110214,note_on,24,0,6,,,,,,,,5,,,45,0
110220,note_on,6,0,6,,,,,,,,5,,,45,80
110244,note_on,24,0,6,,,,,,,,5,,,45,0
110250,note_on,6,0,6,,,,,,,,5,,,45,80
110256,note_on,96,0,11,,,,,,,,10,,,69,0
110256,note_on,96,0,12,,,,,,,,11,,,57,0
110256,note_on,96,0,3,,,,,,,,2,,,57,0
110256,note_on,96,0,13,,,,,,,,12,,,45,0
110274,note_on,24,0,6,,,,,,,,5,,,45,0
110280,note_on,24,0,12,,,,,,,,11,,,57,80
110280,note_on,24,0,3,,,,,,,,2,,,57,80
110280,note_on,648,0,7,,,,,,,,6,,,69,80
110280,note_on,24,0,11,,,,,,,,10,,,69,80
110280,note_on,72,0,10,,,,,,,,8,,,64,80
110280,note_on,6,0,6,,,,,,,,5,,,45,80
110280,note_on,24,0,13,,,,,,,,12,,,45,80
110280,note_on,72,0,9,,,,,,,,7,,,76,80
110304,note_on,864,0,5,,,,,,,,4,,,69,0
110304,note_on,0,0,4,,,,,,,,3,,,57,0
110304,note_on,864,0,4,,,,,,,,3,,,64,0
110304,note_on,864,0,2,,,,,,,,1,,,73,0
110304,note_on,0,0,2,,,,,,,,1,,,79,0
110304,note_on,864,0,1,,,,,,,,0,,,85,0
110304,note_on,0,0,5,,,,,,,,4,,,76,0
110304,note_on,24,0,6,,,,,,,,5,,,45,0
110310,note_on,6,0,6,,,,,,,,5,,,45,80
110334,note_on,24,0,6,,,,,,,,5,,,45,0
110340,note_on,6,0,6,,,,,,,,5,,,45,80
110364,note_on,24,0,6,,,,,,,,5,,,45,0
110370,note_on,6,0,6,,,,,,,,5,,,45,80
110376,note_on,96,0,10,,,,,,,,8,,,64,0
110376,note_on,96,0,11,,,,,,,,10,,,69,0
110376,note_on,96,0,7,,,,,,,,6,,,69,0
110376,note_on,96,0,12,,,,,,,,11,,,57,0
110376,note_on,96,0,9,,,,,,,,7,,,76,0
110376,note_on,96,0,3,,,,,,,,2,,,57,0
110376,note_on,96,0,13,,,,,,,,12,,,45,0
110394,note_on,24,0,6,,,,,,,,5,,,45,0
110400,note_on,24,0,9,,,,,,,,7,,,74,80
110400,note_on,24,0,11,,,,,,,,10,,,62,80
110400,note_on,768,0,8,,,,,,,,6,,,62,80
110400,note_on,24,0,7,,,,,,,,6,,,76,80
110400,note_on,0,0,8,,,,,,,,6,,,62,80
110400,note_on,24,0,3,,,,,,,,2,,,50,80
110400,note_on,24,0,12,,,,,,,,11,,,50,80
110400,note_on,24,0,13,,,,,,,,12,,,38,80
110400,note_on,24,0,10,,,,,,,,8,,,62,80
110448,note_on,48,0,7,,,,,,,,6,,,76,0
110460,note_on,12,0,7,,,,,,,,6,,,74,80
110496,note_on,96,0,8,,,,,,,,6,,,62,0
110508,note_on,48,0,7,,,,,,,,6,,,74,0
110520,note_on,24,0,8,,,,,,,,6,,,69,80
110520,note_on,12,0,7,,,,,,,,6,,,73,80
110568,note_on,48,0,7,,,,,,,,6,,,73,0
110580,note_on,12,0,7,,,,,,,,6,,,74,80
110592,note_on,192,0,3,,,,,,,,2,,,50,0
110592,note_on,192,0,11,,,,,,,,10,,,62,0
110616,note_on,96,0,8,,,,,,,,6,,,69,0
110628,note_on,48,0,7,,,,,,,,6,,,74,0
110640,note_on,12,0,7,,,,,,,,6,,,79,80
110640,note_on,0,0,11,,,,,,,,10,,,54,80
110640,note_on,24,0,8,,,,,,,,6,,,66,80
110640,note_on,48,0,11,,,,,,,,10,,,57,80
110688,note_on,48,0,7,,,,,,,,6,,,79,0
110688,note_on,288,0,9,,,,,,,,7,,,74,0
110688,note_on,288,0,10,,,,,,,,8,,,62,0
110700,note_on,12,0,7,,,,,,,,6,,,78,80
110736,note_on,96,0,8,,,,,,,,6,,,66,0
110748,note_on,48,0,7,,,,,,,,6,,,78,0
110760,note_on,72,0,9,,,,,,,,7,,,78,80
110760,note_on,12,0,7,,,,,,,,6,,,77,80
110760,note_on,72,0,10,,,,,,,,8,,,66,80
110760,note_on,24,0,8,,,,,,,,6,,,69,80
110784,note_on,24,0,8,,,,,,,,6,,,62,0
110808,note_on,48,0,7,,,,,,,,6,,,77,0
110820,note_on,12,0,7,,,,,,,,6,,,78,80
110856,note_on,96,0,9,,,,,,,,7,,,78,0
110856,note_on,96,0,10,,,,,,,,8,,,66,0
110856,note_on,72,0,8,,,,,,,,6,,,69,0
110868,note_on,48,0,7,,,,,,,,6,,,78,0
110880,note_on,12,0,7,,,,,,,,6,,,83,80
110880,note_on,0,0,8,,,,,,,,6,,,62,80
110880,note_on,24,0,8,,,,,,,,6,,,62,80
110880,note_on,288,0,3,,,,,,,,2,,,50,80
110880,note_on,24,0,9,,,,,,,,7,,,81,80
110880,note_on,24,0,10,,,,,,,,8,,,69,80
110928,note_on,48,0,7,,,,,,,,6,,,83,0
110940,note_on,12,0,7,,,,,,,,6,,,81,80
110976,note_on,96,0,8,,,,,,,,6,,,62,0
110988,note_on,48,0,7,,,,,,,,6,,,81,0
111000,note_on,12,0,7,,,,,,,,6,,,80,80
111000,note_on,24,0,8,,,,,,,,6,,,69,80
111048,note_on,48,0,7,,,,,,,,6,,,80,0
111060,note_on,12,0,7,,,,,,,,6,,,81,80
111072,note_on,432,0,11,,,,,,,,10,,,54,0
111072,note_on,0,0,11,,,,,,,,10,,,57,0
111096,note_on,96,0,8,,,,,,,,6,,,69,0
111108,note_on,48,0,7,,,,,,,,6,,,81,0
111120,note_on,24,0,8,,,,,,,,6,,,66,80
111120,note_on,0,0,11,,,,,,,,10,,,54,80
111120,note_on,48,0,11,,,,,,,,10,,,57,80
111120,note_on,12,0,7,,,,,,,,6,,,79,80
111168,note_on,288,0,9,,,,,,,,7,,,81,0
111168,note_on,48,0,7,,,,,,,,6,,,79,0
111168,note_on,288,0,10,,,,,,,,8,,,69,0
111180,note_on,12,0,7,,,,,,,,6,,,78,80
111216,note_on,96,0,8,,,,,,,,6,,,66,0
111228,note_on,48,0,7,,,,,,,,6,,,78,0
111240,note_on,24,0,8,,,,,,,,6,,,69,80
111240,note_on,72,0,10,,,,,,,,8,,,66,80
111240,note_on,72,0,9,,,,,,,,7,,,78,80
111240,note_on,12,0,7,,,,,,,,6,,,77,80
111264,note_on,24,0,8,,,,,,,,6,,,62,0
111264,note_on,864,0,13,,,,,,,,12,,,38,0
111264,note_on,384,0,3,,,,,,,,2,,,50,0
111264,note_on,864,0,12,,,,,,,,11,,,50,0
111288,note_on,48,0,7,,,,,,,,6,,,77,0
111300,note_on,12,0,7,,,,,,,,6,,,78,80
111312,note_on,192,0,11,,,,,,,,10,,,54,0
111312,note_on,0,0,11,,,,,,,,10,,,57,0
111336,note_on,96,0,10,,,,,,,,8,,,66,0
111336,note_on,96,0,9,,,,,,,,7,,,78,0
111336,note_on,72,0,8,,,,,,,,6,,,69,0
111348,note_on,48,0,7,,,,,,,,6,,,78,0
111360,note_on,96,0,13,,,,,,,,12,,,33,80
111360,note_on,0,0,8,,,,,,,,6,,,57,80
111360,note_on,24,0,8,,,,,,,,6,,,57,80
111360,note_on,0,0,11,,,,,,,,10,,,57,80
111360,note_on,48,0,11,,,,,,,,10,,,55,80
111360,note_on,24,0,9,,,,,,,,7,,,76,80
111360,note_on,96,0,12,,,,,,,,11,,,45,80
111360,note_on,96,0,3,,,,,,,,2,,,45,80
111360,note_on,12,0,7,,,,,,,,6,,,78,80
111360,note_on,24,0,10,,,,,,,,8,,,64,80
111408,note_on,48,0,7,,,,,,,,6,,,78,0
111420,note_on,12,0,7,,,,,,,,6,,,76,80
111456,note_on,96,0,9,,,,,,,,7,,,76,0
111456,note_on,96,0,10,,,,,,,,8,,,64,0
111456,note_on,96,0,8,,,,,,,,6,,,57,0
111468,note_on,48,0,7,,,,,,,,6,,,76,0
111480,note_on,24,0,8,,,,,,,,6,,,67,80
111480,note_on,12,0,7,,,,,,,,6,,,75,80
111528,note_on,48,0,7,,,,,,,,6,,,75,0
111540,note_on,12,0,7,,,,,,,,6,,,76,80
111576,note_on,96,0,8,,,,,,,,6,,,67,0
111588,note_on,48,0,7,,,,,,,,6,,,76,0
111600,note_on,144,0,10,,,,,,,,8,,,67,80
111600,note_on,24,0,8,,,,,,,,6,,,64,80
111600,note_on,144,0,9,,,,,,,,7,,,79,80
111600,note_on,12,0,7,,,,,,,,6,,,81,80
111648,note_on,48,0,7,,,,,,,,6,,,81,0
111660,note_on,12,0,7,,,,,,,,6,,,79,80
111696,note_on,96,0,9,,,,,,,,7,,,79,0
111696,note_on,96,0,8,,,,,,,,6,,,64,0
111696,note_on,96,0,10,,,,,,,,8,,,67,0
111708,note_on,48,0,7,,,,,,,,6,,,79,0
111720,note_on,12,0,7,,,,,,,,6,,,78,80
111720,note_on,24,0,8,,,,,,,,6,,,67,80
111744,note_on,24,0,8,,,,,,,,6,,,57,0
111768,note_on,48,0,7,,,,,,,,6,,,78,0
111780,note_on,12,0,7,,,,,,,,6,,,79,80
111816,note_on,72,0,8,,,,,,,,6,,,67,0
111828,note_on,48,0,7,,,,,,,,6,,,79,0
111840,note_on,0,0,8,,,,,,,,6,,,57,80
111840,note_on,24,0,8,,,,,,,,6,,,57,80
111840,note_on,144,0,10,,,,,,,,8,,,61,80
111840,note_on,144,0,9,,,,,,,,7,,,73,80
111840,note_on,12,0,7,,,,,,,,6,,,71,80
111888,note_on,48,0,7,,,,,,,,6,,,71,0
111900,note_on,12,0,7,,,,,,,,6,,,69,80
111936,note_on,96,0,10,,,,,,,,8,,,61,0
111936,note_on,96,0,9,,,,,,,,7,,,73,0
111936,note_on,96,0,8,,,,,,,,6,,,57,0
111948,note_on,48,0,7,,,,,,,,6,,,69,0
111960,note_on,12,0,7,,,,,,,,6,,,68,80
111960,note_on,24,0,8,,,,,,,,6,,,67,80
112008,note_on,48,0,7,,,,,,,,6,,,68,0
112020,note_on,12,0,7,,,,,,,,6,,,69,80
112056,note_on,96,0,8,,,,,,,,6,,,67,0
112068,note_on,48,0,7,,,,,,,,6,,,69,0
112080,note_on,144,0,10,,,,,,,,8,,,64,80
112080,note_on,12,0,7,,,,,,,,6,,,74,80
112080,note_on,24,0,8,,,,,,,,6,,,64,80
112080,note_on,144,0,9,,,,,,,,7,,,76,80
112128,note_on,48,0,7,,,,,,,,6,,,74,0
112140,note_on,12,0,7,,,,,,,,6,,,73,80
112176,note_on,96,0,10,,,,,,,,8,,,64,0
112176,note_on,96,0,8,,,,,,,,6,,,64,0
112176,note_on,96,0,9,,,,,,,,7,,,76,0
112188,note_on,48,0,7,,,,,,,,6,,,73,0
112200,note_on,12,0,7,,,,,,,,6,,,71,80
112200,note_on,24,0,8,,,,,,,,6,,,67,80
112224,note_on,0,0,11,,,,,,,,10,,,55,0
112224,note_on,864,0,11,,,,,,,,10,,,57,0
112224,note_on,864,0,13,,,,,,,,12,,,33,0
112224,note_on,24,0,8,,,,,,,,6,,,57,0
112224,note_on,864,0,3,,,,,,,,2,,,45,0
112224,note_on,864,0,12,,,,,,,,11,,,45,0
112248,note_on,48,0,7,,,,,,,,6,,,71,0
112260,note_on,12,0,7,,,,,,,,6,,,73,80
112296,note_on,72,0,8,,,,,,,,6,,,67,0
112308,note_on,48,0,7,,,,,,,,6,,,73,0
112320,note_on,12,0,7,,,,,,,,6,,,76,80
112320,note_on,96,0,13,,,,,,,,12,,,38,80
112320,note_on,144,0,9,,,,,,,,7,,,74,80
112320,note_on,96,0,11,,,,,,,,10,,,54,80
112320,note_on,0,0,11,,,,,,,,10,,,57,80
112320,note_on,24,0,8,,,,,,,,6,,,62,80
112320,note_on,0,0,8,,,,,,,,6,,,62,80
112320,note_on,144,0,10,,,,,,,,8,,,62,80
112320,note_on,96,0,3,,,,,,,,2,,,50,80
112320,note_on,96,0,12,,,,,,,,11,,,50,80
112368,note_on,48,0,7,,,,,,,,6,,,76,0
112380,note_on,12,0,7,,,,,,,,6,,,74,80
112416,note_on,96,0,8,,,,,,,,6,,,62,0
112428,note_on,48,0,7,,,,,,,,6,,,74,0
112440,note_on,12,0,7,,,,,,,,6,,,73,80
112440,note_on,24,0,8,,,,,,,,6,,,69,80
112488,note_on,48,0,7,,,,,,,,6,,,73,0
112500,note_on,12,0,7,,,,,,,,6,,,74,80
112536,note_on,96,0,8,,,,,,,,6,,,69,0
112548,note_on,48,0,7,,,,,,,,6,,,74,0
112560,note_on,12,0,7,,,,,,,,6,,,79,80
112560,note_on,24,0,8,,,,,,,,6,,,66,80
112608,note_on,48,0,7,,,,,,,,6,,,79,0
112608,note_on,288,0,9,,,,,,,,7,,,74,0
112608,note_on,288,0,10,,,,,,,,8,,,62,0
112620,note_on,12,0,7,,,,,,,,6,,,78,80
112656,note_on,96,0,8,,,,,,,,6,,,66,0
112668,note_on,48,0,7,,,,,,,,6,,,78,0
112680,note_on,24,0,8,,,,,,,,6,,,69,80
112680,note_on,72,0,10,,,,,,,,8,,,66,80
112680,note_on,72,0,9,,,,,,,,7,,,78,80
112680,note_on,12,0,7,,,,,,,,6,,,77,80
112704,note_on,24,0,8,,,,,,,,6,,,62,0
112728,note_on,48,0,7,,,,,,,,6,,,77,0
112740,note_on,12,0,7,,,,,,,,6,,,78,80
112776,note_on,96,0,9,,,,,,,,7,,,78,0
112776,note_on,72,0,8,,,,,,,,6,,,69,0
112776,note_on,96,0,10,,,,,,,,8,,,66,0
112788,note_on,48,0,7,,,,,,,,6,,,78,0
112800,note_on,24,0,10,,,,,,,,8,,,69,80
112800,note_on,12,0,7,,,,,,,,6,,,83,80
112800,note_on,24,0,8,,,,,,,,6,,,62,80
112800,note_on,24,0,9,,,,,,,,7,,,81,80
112800,note_on,0,0,8,,,,,,,,6,,,62,80
112848,note_on,48,0,7,,,,,,,,6,,,83,0
112860,note_on,12,0,7,,,,,,,,6,,,81,80
112896,note_on,96,0,8,,,,,,,,6,,,62,0
112908,note_on,48,0,7,,,,,,,,6,,,81,0
112920,note_on,12,0,7,,,,,,,,6,,,80,80
112920,note_on,24,0,8,,,,,,,,6,,,69,80
112968,note_on,48,0,7,,,,,,,,6,,,80,0
112980,note_on,12,0,7,,,,,,,,6,,,81,80
113016,note_on,96,0,8,,,,,,,,6,,,69,0
113028,note_on,48,0,7,,,,,,,,6,,,81,0
113040,note_on,24,0,8,,,,,,,,6,,,66,80
113040,note_on,12,0,7,,,,,,,,6,,,88,80
113088,note_on,288,0,9,,,,,,,,7,,,81,0
113088,note_on,288,0,10,,,,,,,,8,,,69,0
113088,note_on,48,0,7,,,,,,,,6,,,88,0
113100,note_on,12,0,7,,,,,,,,6,,,86,80
113136,note_on,96,0,8,,,,,,,,6,,,66,0
113148,note_on,48,0,7,,,,,,,,6,,,86,0
113160,note_on,72,0,10,,,,,,,,8,,,74,80
113160,note_on,12,0,7,,,,,,,,6,,,85,80
113160,note_on,72,0,9,,,,,,,,7,,,78,80
113160,note_on,24,0,8,,,,,,,,6,,,69,80
113184,note_on,864,0,3,,,,,,,,2,,,50,0
113184,note_on,24,0,8,,,,,,,,6,,,62,0
113184,note_on,864,0,13,,,,,,,,12,,,38,0
113184,note_on,0,0,11,,,,,,,,10,,,54,0
113184,note_on,864,0,11,,,,,,,,10,,,57,0
113184,note_on,864,0,12,,,,,,,,11,,,50,0
113208,note_on,48,0,7,,,,,,,,6,,,85,0
113220,note_on,12,0,7,,,,,,,,6,,,86,80
113256,note_on,72,0,8,,,,,,,,6,,,69,0
113256,note_on,96,0,9,,,,,,,,7,,,78,0
113256,note_on,96,0,10,,,,,,,,8,,,74,0
113268,note_on,48,0,7,,,,,,,,6,,,86,0
113280,note_on,24,0,9,,,,,,,,7,,,76,80
113280,note_on,24,0,10,,,,,,,,8,,,73,80
113280,note_on,24,0,8,,,,,,,,6,,,64,80
113280,note_on,96,0,12,,,,,,,,11,,,52,80
113280,note_on,96,0,13,,,,,,,,12,,,40,80
113280,note_on,96,0,11,,,,,,,,10,,,64,80
113280,note_on,12,0,7,,,,,,,,6,,,85,80
113280,note_on,96,0,3,,,,,,,,2,,,52,80
113328,note_on,48,0,7,,,,,,,,6,,,85,0
113340,note_on,12,0,7,,,,,,,,6,,,86,80
113376,note_on,96,0,9,,,,,,,,7,,,76,0
113376,note_on,96,0,8,,,,,,,,6,,,64,0
113376,note_on,96,0,10,,,,,,,,8,,,73,0
113388,note_on,48,0,7,,,,,,,,6,,,86,0
113400,note_on,24,0,9,,,,,,,,7,,,73,80
113400,note_on,12,0,7,,,,,,,,6,,,88,80
113400,note_on,0,0,8,,,,,,,,6,,,69,80
113400,note_on,24,0,8,,,,,,,,6,,,73,80
113400,note_on,24,0,10,,,,,,,,8,,,69,80
113448,note_on,48,0,7,,,,,,,,6,,,88,0
113460,note_on,12,0,7,,,,,,,,6,,,85,80
113472,note_on,192,0,3,,,,,,,,2,,,52,0
113472,note_on,192,0,12,,,,,,,,11,,,52,0
113472,note_on,192,0,13,,,,,,,,12,,,40,0
113496,note_on,96,0,9,,,,,,,,7,,,73,0
113496,note_on,0,0,8,,,,,,,,6,,,73,0
113496,note_on,96,0,8,,,,,,,,6,,,69,0
113496,note_on,96,0,10,,,,,,,,8,,,69,0
113508,note_on,48,0,7,,,,,,,,6,,,85,0
113520,note_on,48,0,3,,,,,,,,2,,,52,80
113520,note_on,48,0,13,,,,,,,,12,,,40,80
113520,note_on,24,0,9,,,,,,,,7,,,74,80
113520,note_on,24,0,10,,,,,,,,8,,,71,80
113520,note_on,12,0,7,,,,,,,,6,,,83,80
113520,note_on,24,0,8,,,,,,,,6,,,64,80
113520,note_on,48,0,12,,,,,,,,11,,,52,80
113568,note_on,48,0,7,,,,,,,,6,,,83,0
113568,note_on,288,0,11,,,,,,,,10,,,64,0
113580,note_on,12,0,7,,,,,,,,6,,,85,80
113616,note_on,96,0,10,,,,,,,,8,,,71,0
113616,note_on,96,0,9,,,,,,,,7,,,74,0
113616,note_on,96,0,8,,,,,,,,6,,,64,0
113628,note_on,48,0,7,,,,,,,,6,,,85,0
113640,note_on,12,0,7,,,,,,,,6,,,86,80
113640,note_on,72,0,11,,,,,,,,10,,,62,80
113640,note_on,24,0,9,,,,,,,,7,,,71,80
113640,note_on,24,0,10,,,,,,,,8,,,68,80
113640,note_on,0,0,8,,,,,,,,6,,,68,80
113640,note_on,24,0,8,,,,,,,,6,,,74,80
113688,note_on,48,0,7,,,,,,,,6,,,86,0
113700,note_on,12,0,7,,,,,,,,6,,,83,80
113712,note_on,192,0,3,,,,,,,,2,,,52,0
113712,note_on,192,0,12,,,,,,,,11,,,52,0
113712,note_on,192,0,13,,,,,,,,12,,,40,0
113736,note_on,96,0,9,,,,,,,,7,,,71,0
113736,note_on,96,0,10,,,,,,,,8,,,68,0
113736,note_on,96,0,8,,,,,,,,6,,,68,0
113736,note_on,0,0,8,,,,,,,,6,,,74,0
113736,note_on,96,0,11,,,,,,,,10,,,62,0
113748,note_on,48,0,7,,,,,,,,6,,,83,0
113760,note_on,12,0,7,,,,,,,,6,,,81,80
113760,note_on,24,0,8,,,,,,,,6,,,69,80
113760,note_on,0,0,8,,,,,,,,6,,,73,80
113760,note_on,48,0,12,,,,,,,,11,,,45,80
113760,note_on,48,0,3,,,,,,,,2,,,57,80
113760,note_on,24,0,11,,,,,,,,10,,,61,80
113760,note_on,48,0,13,,,,,,,,12,,,33,80
113760,note_on,24,0,10,,,,,,,,8,,,69,80
113760,note_on,24,0,9,,,,,,,,7,,,69,80
113808,note_on,48,0,7,,,,,,,,6,,,81,0
113820,note_on,12,0,7,,,,,,,,6,,,80,80
113868,note_on,48,0,7,,,,,,,,6,,,80,0
113880,note_on,12,0,7,,,,,,,,6,,,81,80
113928,note_on,48,0,7,,,,,,,,6,,,81,0
113940,note_on,12,0,7,,,,,,,,6,,,83,80
113952,note_on,192,0,10,,,,,,,,8,,,69,0
113952,note_on,192,0,8,,,,,,,,6,,,73,0
113952,note_on,0,0,8,,,,,,,,6,,,69,0
113952,note_on,192,0,12,,,,,,,,11,,,45,0
113952,note_on,192,0,13,,,,,,,,12,,,33,0
113952,note_on,192,0,3,,,,,,,,2,,,57,0
113952,note_on,192,0,9,,,,,,,,7,,,69,0
113952,note_on,192,0,11,,,,,,,,10,,,61,0
113988,note_on,48,0,7,,,,,,,,6,,,83,0
114000,note_on,12,0,7,,,,,,,,6,,,81,80
114048,note_on,48,0,7,,,,,,,,6,,,81,0
114060,note_on,12,0,7,,,,,,,,6,,,78,80
114108,note_on,48,0,7,,,,,,,,6,,,78,0
114120,note_on,168,0,9,,,,,,,,7,,,69,80
114120,note_on,3816,0,1,,,,,,,,0,,,69,80
114120,note_on,12,0,7,,,,,,,,6,,,79,80
114120,note_on,3816,0,2,,,,,,,,1,,,69,80
114168,note_on,48,0,7,,,,,,,,6,,,79,0
114180,note_on,12,0,7,,,,,,,,6,,,76,80
114216,note_on,96,0,9,,,,,,,,7,,,69,0
114216,note_on,96,0,1,,,,,,,,0,,,69,0
114216,note_on,96,0,2,,,,,,,,1,,,69,0
114228,note_on,48,0,7,,,,,,,,6,,,76,0
114240,note_on,24,0,2,,,,,,,,1,,,74,80
114240,note_on,0,0,3,,,,,,,,2,,,54,80
114240,note_on,288,0,3,,,,,,,,2,,,62,80
114240,note_on,3846,0,6,,,,,,,,5,,,50,80
114240,note_on,3936,0,4,,,,,,,,3,,,50,80
114240,note_on,0,0,4,,,,,,,,3,,,62,80
114240,note_on,24,0,9,,,,,,,,7,,,74,80
114240,note_on,288,0,10,,,,,,,,8,,,66,80
114240,note_on,288,0,13,,,,,,,,12,,,38,80
114240,note_on,12,0,7,,,,,,,,6,,,74,80
114240,note_on,288,0,11,,,,,,,,10,,,62,80
114240,note_on,0,0,5,,,,,,,,4,,,62,80
114240,note_on,24,0,1,,,,,,,,0,,,74,80
114240,note_on,3936,0,5,,,,,,,,4,,,74,80
114240,note_on,288,0,12,,,,,,,,11,,,50,80
114288,note_on,48,0,10,,,,,,,,8,,,66,0
114300,note_on,12,0,10,,,,,,,,8,,,69,80
114336,note_on,96,0,11,,,,,,,,10,,,62,0
114336,note_on,96,0,13,,,,,,,,12,,,38,0
114336,note_on,96,0,12,,,,,,,,11,,,50,0
114348,note_on,48,0,10,,,,,,,,8,,,69,0
114360,note_on,24,0,13,,,,,,,,12,,,38,80
114360,note_on,24,0,11,,,,,,,,10,,,62,80
114360,note_on,12,0,10,,,,,,,,8,,,66,80
114360,note_on,24,0,12,,,,,,,,11,,,50,80
114408,note_on,48,0,10,,,,,,,,8,,,66,0
114420,note_on,12,0,10,,,,,,,,8,,,69,80
114432,note_on,192,0,6,,,,,,,,5,,,50,0
114432,note_on,192,0,5,,,,,,,,4,,,62,0
114432,note_on,0,0,5,,,,,,,,4,,,74,0
114432,note_on,192,0,7,,,,,,,,6,,,74,0
114456,note_on,96,0,12,,,,,,,,11,,,50,0
114456,note_on,96,0,13,,,,,,,,12,,,38,0
114456,note_on,96,0,11,,,,,,,,10,,,62,0
114468,note_on,48,0,10,,,,,,,,8,,,69,0
114480,note_on,24,0,13,,,,,,,,12,,,38,80
114480,note_on,24,0,12,,,,,,,,11,,,50,80
114480,note_on,12,0,10,,,,,,,,8,,,66,80
114480,note_on,24,0,11,,,,,,,,10,,,62,80
114528,note_on,288,0,4,,,,,,,,3,,,62,0
114528,note_on,288,0,9,,,,,,,,7,,,74,0
114528,note_on,0,0,4,,,,,,,,3,,,50,0
114528,note_on,48,0,10,,,,,,,,8,,,66,0
114528,note_on,288,0,1,,,,,,,,0,,,74,0
114528,note_on,288,0,2,,,,,,,,1,,,74,0
114540,note_on,12,0,10,,,,,,,,8,,,69,80
114576,note_on,96,0,11,,,,,,,,10,,,62,0
114576,note_on,96,0,13,,,,,,,,12,,,38,0
114576,note_on,96,0,12,,,,,,,,11,,,50,0
114588,note_on,48,0,10,,,,,,,,8,,,69,0
114600,note_on,24,0,11,,,,,,,,10,,,62,80
114600,note_on,24,0,13,,,,,,,,12,,,38,80
114600,note_on,72,0,2,,,,,,,,1,,,78,80
114600,note_on,24,0,12,,,,,,,,11,,,50,80
114600,note_on,0,0,4,,,,,,,,3,,,54,80
114600,note_on,72,0,1,,,,,,,,0,,,78,80
114600,note_on,72,0,4,,,,,,,,3,,,66,80
114600,note_on,72,0,9,,,,,,,,7,,,78,80
114600,note_on,12,0,10,,,,,,,,8,,,66,80
114624,note_on,384,0,3,,,,,,,,2,,,54,0
114624,note_on,0,0,3,,,,,,,,2,,,62,0
114648,note_on,48,0,10,,,,,,,,8,,,66,0
114660,note_on,12,0,10,,,,,,,,8,,,69,80
114696,note_on,96,0,4,,,,,,,,3,,,54,0
114696,note_on,96,0,1,,,,,,,,0,,,78,0
114696,note_on,96,0,2,,,,,,,,1,,,78,0
114696,note_on,96,0,13,,,,,,,,12,,,38,0
114696,note_on,0,0,4,,,,,,,,3,,,66,0
114696,note_on,96,0,11,,,,,,,,10,,,62,0
114696,note_on,96,0,9,,,,,,,,7,,,78,0
114696,note_on,96,0,12,,,,,,,,11,,,50,0
114708,note_on,48,0,10,,,,,,,,8,,,69,0
114720,note_on,24,0,12,,,,,,,,11,,,50,80
114720,note_on,0,0,5,,,,,,,,4,,,62,80
114720,note_on,288,0,5,,,,,,,,4,,,74,80
114720,note_on,24,0,1,,,,,,,,0,,,81,80
114720,note_on,24,0,11,,,,,,,,10,,,62,80
114720,note_on,24,0,13,,,,,,,,12,,,38,80
114720,note_on,0,0,3,,,,,,,,2,,,62,80
114720,note_on,0,0,4,,,,,,,,3,,,69,80
114720,note_on,24,0,2,,,,,,,,1,,,81,80
114720,note_on,288,0,6,,,,,,,,5,,,50,80
114720,note_on,12,0,10,,,,,,,,8,,,66,80
114720,note_on,96,0,3,,,,,,,,2,,,66,80
114720,note_on,24,0,9,,,,,,,,7,,,81,80
114720,note_on,24,0,4,,,,,,,,3,,,57,80
114768,note_on,48,0,10,,,,,,,,8,,,66,0
114780,note_on,12,0,10,,,,,,,,8,,,69,80
114816,note_on,96,0,11,,,,,,,,10,,,62,0
114816,note_on,96,0,12,,,,,,,,11,,,50,0
114816,note_on,96,0,13,,,,,,,,12,,,38,0
114828,note_on,48,0,10,,,,,,,,8,,,69,0
114840,note_on,24,0,13,,,,,,,,12,,,38,80
114840,note_on,12,0,10,,,,,,,,8,,,66,80
114840,note_on,24,0,11,,,,,,,,10,,,62,80
114840,note_on,24,0,12,,,,,,,,11,,,50,80
114888,note_on,48,0,10,,,,,,,,8,,,66,0
114900,note_on,12,0,10,,,,,,,,8,,,69,80
114912,note_on,192,0,6,,,,,,,,5,,,50,0
114912,note_on,192,0,5,,,,,,,,4,,,62,0
114912,note_on,0,0,5,,,,,,,,4,,,74,0
114936,note_on,96,0,13,,,,,,,,12,,,38,0
114936,note_on,96,0,11,,,,,,,,10,,,62,0
114936,note_on,96,0,12,,,,,,,,11,,,50,0
114948,note_on,48,0,10,,,,,,,,8,,,69,0
114960,note_on,24,0,12,,,,,,,,11,,,50,80
114960,note_on,24,0,11,,,,,,,,10,,,62,80
114960,note_on,12,0,10,,,,,,,,8,,,66,80
114960,note_on,24,0,13,,,,,,,,12,,,38,80
115008,note_on,48,0,10,,,,,,,,8,,,66,0
115008,note_on,0,0,4,,,,,,,,3,,,57,0
115008,note_on,288,0,4,,,,,,,,3,,,69,0
115008,note_on,288,0,1,,,,,,,,0,,,81,0
115008,note_on,288,0,9,,,,,,,,7,,,81,0
115008,note_on,288,0,2,,,,,,,,1,,,81,0
115020,note_on,12,0,10,,,,,,,,8,,,69,80
115056,note_on,96,0,13,,,,,,,,12,,,38,0
115056,note_on,96,0,11,,,,,,,,10,,,62,0
115056,note_on,96,0,12,,,,,,,,11,,,50,0
115068,note_on,48,0,10,,,,,,,,8,,,69,0
115080,note_on,72,0,9,,,,,,,,7,,,78,80
115080,note_on,72,0,2,,,,,,,,1,,,78,80
115080,note_on,12,0,10,,,,,,,,8,,,66,80
115080,note_on,0,0,4,,,,,,,,3,,,54,80
115080,note_on,24,0,13,,,,,,,,12,,,38,80
115080,note_on,72,0,4,,,,,,,,3,,,66,80
115080,note_on,24,0,12,,,,,,,,11,,,50,80
115080,note_on,24,0,11,,,,,,,,10,,,62,80
115080,note_on,72,0,1,,,,,,,,0,,,78,80
115104,note_on,0,0,3,,,,,,,,2,,,66,0
115104,note_on,384,0,3,,,,,,,,2,,,62,0
115128,note_on,48,0,10,,,,,,,,8,,,66,0
115140,note_on,12,0,10,,,,,,,,8,,,69,80
115176,note_on,96,0,1,,,,,,,,0,,,78,0
115176,note_on,96,0,13,,,,,,,,12,,,38,0
115176,note_on,96,0,2,,,,,,,,1,,,78,0
115176,note_on,96,0,11,,,,,,,,10,,,62,0
115176,note_on,0,0,4,,,,,,,,3,,,66,0
115176,note_on,96,0,9,,,,,,,,7,,,78,0
115176,note_on,96,0,12,,,,,,,,11,,,50,0
115176,note_on,96,0,4,,,,,,,,3,,,54,0
115188,note_on,48,0,10,,,,,,,,8,,,69,0
115200,note_on,24,0,9,,,,,,,,7,,,76,80
115200,note_on,24,0,2,,,,,,,,1,,,76,80
115200,note_on,0,0,4,,,,,,,,3,,,57,80
115200,note_on,24,0,4,,,,,,,,3,,,64,80
115200,note_on,288,0,6,,,,,,,,5,,,45,80
115200,note_on,96,0,3,,,,,,,,2,,,64,80
115200,note_on,288,0,5,,,,,,,,4,,,69,80
115200,note_on,0,0,3,,,,,,,,2,,,67,80
115200,note_on,24,0,11,,,,,,,,10,,,61,80
115200,note_on,24,0,1,,,,,,,,0,,,76,80
115200,note_on,24,0,12,,,,,,,,11,,,45,80
115200,note_on,24,0,13,,,,,,,,12,,,33,80
115200,note_on,12,0,10,,,,,,,,8,,,67,80
115248,note_on,48,0,10,,,,,,,,8,,,67,0
115260,note_on,12,0,10,,,,,,,,8,,,69,80
115296,note_on,96,0,13,,,,,,,,12,,,33,0
115296,note_on,0,0,3,,,,,,,,2,,,64,0
115296,note_on,96,0,6,,,,,,,,5,,,45,0
115296,note_on,96,0,12,,,,,,,,11,,,45,0
115296,note_on,96,0,11,,,,,,,,10,,,61,0
115296,note_on,96,0,9,,,,,,,,7,,,76,0
115296,note_on,96,0,2,,,,,,,,1,,,76,0
115296,note_on,96,0,3,,,,,,,,2,,,67,0
115296,note_on,96,0,1,,,,,,,,0,,,76,0
115296,note_on,96,0,4,,,,,,,,3,,,57,0
115296,note_on,0,0,4,,,,,,,,3,,,64,0
115296,note_on,96,0,5,,,,,,,,4,,,69,0
115308,note_on,48,0,10,,,,,,,,8,,,69,0
115320,note_on,24,0,2,,,,,,,,1,,,76,80
115320,note_on,0,0,3,,,,,,,,2,,,64,80
115320,note_on,24,0,3,,,,,,,,2,,,67,80
115320,note_on,24,0,6,,,,,,,,5,,,45,80
115320,note_on,24,0,12,,,,,,,,11,,,57,80
115320,note_on,24,0,5,,,,,,,,4,,,69,80
115320,note_on,24,0,9,,,,,,,,7,,,76,80
115320,note_on,24,0,11,,,,,,,,10,,,61,80
115320,note_on,0,0,4,,,,,,,,3,,,64,80
115320,note_on,24,0,13,,,,,,,,12,,,45,80
115320,note_on,12,0,10,,,,,,,,8,,,67,80
115320,note_on,24,0,1,,,,,,,,0,,,76,80
115320,note_on,24,0,4,,,,,,,,3,,,57,80
115368,note_on,48,0,10,,,,,,,,8,,,67,0
115380,note_on,12,0,10,,,,,,,,8,,,69,80
115416,note_on,96,0,12,,,,,,,,11,,,57,0
115416,note_on,96,0,3,,,,,,,,2,,,64,0
115416,note_on,0,0,4,,,,,,,,3,,,57,0
115416,note_on,96,0,4,,,,,,,,3,,,64,0
115416,note_on,96,0,1,,,,,,,,0,,,76,0
115416,note_on,0,0,3,,,,,,,,2,,,67,0
115416,note_on,96,0,11,,,,,,,,10,,,61,0
115416,note_on,96,0,5,,,,,,,,4,,,69,0
115416,note_on,96,0,13,,,,,,,,12,,,45,0
115416,note_on,96,0,9,,,,,,,,7,,,76,0
115416,note_on,96,0,6,,,,,,,,5,,,45,0
115416,note_on,96,0,2,,,,,,,,1,,,76,0
115428,note_on,48,0,10,,,,,,,,8,,,69,0
115440,note_on,0,0,4,,,,,,,,3,,,57,80
115440,note_on,24,0,4,,,,,,,,3,,,64,80
115440,note_on,24,0,5,,,,,,,,4,,,69,80
115440,note_on,24,0,13,,,,,,,,12,,,33,80
115440,note_on,24,0,1,,,,,,,,0,,,78,80
115440,note_on,24,0,12,,,,,,,,11,,,45,80
115440,note_on,24,0,11,,,,,,,,10,,,61,80
115440,note_on,24,0,2,,,,,,,,1,,,78,80
115440,note_on,12,0,10,,,,,,,,8,,,67,80
115440,note_on,24,0,6,,,,,,,,5,,,45,80
115440,note_on,24,0,9,,,,,,,,7,,,78,80
115440,note_on,24,0,3,,,,,,,,2,,,64,80
115440,note_on,0,0,3,,,,,,,,2,,,67,80
115488,note_on,48,0,10,,,,,,,,8,,,67,0
115488,note_on,48,0,1,,,,,,,,0,,,78,0
115488,note_on,48,0,9,,,,,,,,7,,,78,0
115488,note_on,48,0,2,,,,,,,,1,,,78,0
115500,note_on,12,0,9,,,,,,,,7,,,76,80
115500,note_on,12,0,1,,,,,,,,0,,,76,80
115500,note_on,12,0,10,,,,,,,,8,,,69,80
115500,note_on,12,0,2,,,,,,,,1,,,76,80
115536,note_on,96,0,11,,,,,,,,10,,,61,0
115536,note_on,96,0,13,,,,,,,,12,,,33,0
115536,note_on,96,0,12,,,,,,,,11,,,45,0
115548,note_on,48,0,1,,,,,,,,0,,,76,0
115548,note_on,48,0,2,,,,,,,,1,,,76,0
115548,note_on,48,0,9,,,,,,,,7,,,76,0
115548,note_on,48,0,10,,,,,,,,8,,,69,0
115560,note_on,12,0,9,,,,,,,,7,,,75,80
115560,note_on,12,0,1,,,,,,,,0,,,75,80
115560,note_on,24,0,11,,,,,,,,10,,,61,80
115560,note_on,12,0,10,,,,,,,,8,,,67,80
115560,note_on,24,0,12,,,,,,,,11,,,57,80
115560,note_on,12,0,2,,,,,,,,1,,,75,80
115560,note_on,24,0,13,,,,,,,,12,,,45,80
115608,note_on,48,0,2,,,,,,,,1,,,75,0
115608,note_on,48,0,9,,,,,,,,7,,,75,0
115608,note_on,48,0,1,,,,,,,,0,,,75,0
115608,note_on,48,0,10,,,,,,,,8,,,67,0
115620,note_on,12,0,9,,,,,,,,7,,,76,80
115620,note_on,12,0,10,,,,,,,,8,,,69,80
115620,note_on,12,0,2,,,,,,,,1,,,76,80
115620,note_on,12,0,1,,,,,,,,0,,,76,80
115632,note_on,0,0,3,,,,,,,,2,,,64,0
115632,note_on,192,0,3,,,,,,,,2,,,67,0
115632,note_on,0,0,4,,,,,,,,3,,,64,0
115632,note_on,192,0,6,,,,,,,,5,,,45,0
115632,note_on,192,0,5,,,,,,,,4,,,69,0
115632,note_on,192,0,4,,,,,,,,3,,,57,0
115656,note_on,96,0,11,,,,,,,,10,,,61,0
115656,note_on,96,0,13,,,,,,,,12,,,45,0
115656,note_on,96,0,12,,,,,,,,11,,,57,0
115668,note_on,48,0,2,,,,,,,,1,,,76,0
115668,note_on,48,0,1,,,,,,,,0,,,76,0
115668,note_on,48,0,9,,,,,,,,7,,,76,0
115668,note_on,48,0,10,,,,,,,,8,,,69,0
115680,note_on,48,0,6,,,,,,,,5,,,45,80
115680,note_on,12,0,10,,,,,,,,8,,,67,80
115680,note_on,48,0,3,,,,,,,,2,,,64,80
115680,note_on,0,0,3,,,,,,,,2,,,61,80
115680,note_on,24,0,12,,,,,,,,11,,,45,80
115680,note_on,12,0,2,,,,,,,,1,,,73,80
115680,note_on,12,0,9,,,,,,,,7,,,73,80
115680,note_on,48,0,4,,,,,,,,3,,,45,80
115680,note_on,0,0,4,,,,,,,,3,,,57,80
115680,note_on,12,0,1,,,,,,,,0,,,73,80
115680,note_on,24,0,11,,,,,,,,10,,,64,80
115680,note_on,24,0,13,,,,,,,,12,,,33,80
115680,note_on,48,0,5,,,,,,,,4,,,69,80
115728,note_on,48,0,10,,,,,,,,8,,,67,0
115740,note_on,12,0,10,,,,,,,,8,,,69,80
115776,note_on,96,0,12,,,,,,,,11,,,45,0
115776,note_on,96,0,1,,,,,,,,0,,,73,0
115776,note_on,96,0,11,,,,,,,,10,,,64,0
115776,note_on,96,0,13,,,,,,,,12,,,33,0
115776,note_on,0,0,3,,,,,,,,2,,,64,0
115776,note_on,96,0,6,,,,,,,,5,,,45,0
115776,note_on,96,0,3,,,,,,,,2,,,61,0
115776,note_on,96,0,5,,,,,,,,4,,,69,0
115776,note_on,96,0,9,,,,,,,,7,,,73,0
115776,note_on,96,0,2,,,,,,,,1,,,73,0
115776,note_on,96,0,4,,,,,,,,3,,,57,0
115776,note_on,0,0,4,,,,,,,,3,,,45,0
115788,note_on,48,0,10,,,,,,,,8,,,69,0
115800,note_on,24,0,1,,,,,,,,0,,,73,80
115800,note_on,24,0,6,,,,,,,,5,,,45,80
115800,note_on,24,0,11,,,,,,,,10,,,64,80
115800,note_on,24,0,4,,,,,,,,3,,,57,80
115800,note_on,24,0,12,,,,,,,,11,,,57,80
115800,note_on,24,0,2,,,,,,,,1,,,73,80
115800,note_on,0,0,4,,,,,,,,3,,,45,80
115800,note_on,12,0,10,,,,,,,,8,,,67,80
115800,note_on,24,0,13,,,,,,,,12,,,45,80
115800,note_on,0,0,3,,,,,,,,2,,,64,80
115800,note_on,24,0,3,,,,,,,,2,,,61,80
115800,note_on,24,0,5,,,,,,,,4,,,69,80
115800,note_on,24,0,9,,,,,,,,7,,,73,80
115848,note_on,48,0,10,,,,,,,,8,,,67,0
115860,note_on,12,0,10,,,,,,,,8,,,69,80
115896,note_on,96,0,11,,,,,,,,10,,,64,0
115896,note_on,96,0,2,,,,,,,,1,,,73,0
115896,note_on,96,0,13,,,,,,,,12,,,45,0
115896,note_on,96,0,4,,,,,,,,3,,,45,0
115896,note_on,0,0,4,,,,,,,,3,,,57,0
115896,note_on,96,0,1,,,,,,,,0,,,73,0
115896,note_on,96,0,6,,,,,,,,5,,,45,0
115896,note_on,96,0,12,,,,,,,,11,,,57,0
115896,note_on,96,0,5,,,,,,,,4,,,69,0
115896,note_on,0,0,3,,,,,,,,2,,,61,0
115896,note_on,96,0,3,,,,,,,,2,,,64,0
115896,note_on,96,0,9,,,,,,,,7,,,73,0
115908,note_on,48,0,10,,,,,,,,8,,,69,0
115920,note_on,24,0,11,,,,,,,,10,,,64,80
115920,note_on,24,0,6,,,,,,,,5,,,45,80
115920,note_on,24,0,1,,,,,,,,0,,,74,80
115920,note_on,12,0,10,,,,,,,,8,,,67,80
115920,note_on,24,0,4,,,,,,,,3,,,57,80
115920,note_on,24,0,13,,,,,,,,12,,,33,80
115920,note_on,24,0,2,,,,,,,,1,,,74,80
115920,note_on,24,0,3,,,,,,,,2,,,64,80
115920,note_on,0,0,3,,,,,,,,2,,,61,80
115920,note_on,24,0,5,,,,,,,,4,,,69,80
115920,note_on,24,0,12,,,,,,,,11,,,45,80
115920,note_on,24,0,9,,,,,,,,7,,,74,80
115920,note_on,0,0,4,,,,,,,,3,,,45,80
115968,note_on,48,0,10,,,,,,,,8,,,67,0
115968,note_on,48,0,9,,,,,,,,7,,,74,0
115968,note_on,48,0,1,,,,,,,,0,,,74,0
115968,note_on,48,0,2,,,,,,,,1,,,74,0
115980,note_on,12,0,9,,,,,,,,7,,,73,80
115980,note_on,12,0,10,,,,,,,,8,,,69,80
115980,note_on,12,0,2,,,,,,,,1,,,73,80
115980,note_on,12,0,1,,,,,,,,0,,,73,80
116016,note_on,96,0,11,,,,,,,,10,,,64,0
116016,note_on,96,0,12,,,,,,,,11,,,45,0
116016,note_on,96,0,13,,,,,,,,12,,,33,0
116028,note_on,48,0,10,,,,,,,,8,,,69,0
116028,note_on,48,0,1,,,,,,,,0,,,73,0
116028,note_on,48,0,9,,,,,,,,7,,,73,0
116028,note_on,48,0,2,,,,,,,,1,,,73,0
116040,note_on,24,0,11,,,,,,,,10,,,64,80
116040,note_on,12,0,10,,,,,,,,8,,,67,80
116040,note_on,12,0,9,,,,,,,,7,,,71,80
116040,note_on,24,0,12,,,,,,,,11,,,57,80
116040,note_on,24,0,13,,,,,,,,12,,,45,80
116040,note_on,12,0,2,,,,,,,,1,,,71,80
116040,note_on,12,0,1,,,,,,,,0,,,71,80
116088,note_on,48,0,1,,,,,,,,0,,,71,0
116088,note_on,48,0,10,,,,,,,,8,,,67,0
116088,note_on,48,0,2,,,,,,,,1,,,71,0
116088,note_on,48,0,9,,,,,,,,7,,,71,0
116100,note_on,12,0,2,,,,,,,,1,,,73,80
116100,note_on,12,0,1,,,,,,,,0,,,73,80
116100,note_on,12,0,9,,,,,,,,7,,,73,80
116100,note_on,12,0,10,,,,,,,,8,,,69,80
116112,note_on,192,0,6,,,,,,,,5,,,45,0
116112,note_on,192,0,3,,,,,,,,2,,,61,0
116112,note_on,192,0,5,,,,,,,,4,,,69,0
116112,note_on,0,0,3,,,,,,,,2,,,64,0
116112,note_on,192,0,4,,,,,,,,3,,,45,0
116112,note_on,0,0,4,,,,,,,,3,,,57,0
116136,note_on,96,0,11,,,,,,,,10,,,64,0
116136,note_on,96,0,12,,,,,,,,11,,,57,0
116136,note_on,96,0,13,,,,,,,,12,,,45,0
116148,note_on,48,0,9,,,,,,,,7,,,73,0
116148,note_on,48,0,2,,,,,,,,1,,,73,0
116148,note_on,48,0,1,,,,,,,,0,,,73,0
116148,note_on,48,0,10,,,,,,,,8,,,69,0
116160,note_on,12,0,10,,,,,,,,8,,,66,80
116160,note_on,0,0,4,,,,,,,,3,,,62,80
116160,note_on,0,0,3,,,,,,,,2,,,54,80
116160,note_on,48,0,3,,,,,,,,2,,,62,80
116160,note_on,12,0,1,,,,,,,,0,,,74,80
116160,note_on,48,0,4,,,,,,,,3,,,50,80
116160,note_on,48,0,5,,,,,,,,4,,,62,80
116160,note_on,24,0,11,,,,,,,,10,,,62,80
116160,note_on,0,0,5,,,,,,,,4,,,74,80
116160,note_on,12,0,9,,,,,,,,7,,,74,80
116160,note_on,48,0,6,,,,,,,,5,,,50,80
116160,note_on,12,0,2,,,,,,,,1,,,74,80
116160,note_on,24,0,12,,,,,,,,11,,,50,80
116160,note_on,24,0,13,,,,,,,,12,,,38,80
116208,note_on,48,0,10,,,,,,,,8,,,66,0
116220,note_on,12,0,10,,,,,,,,8,,,69,80
116256,note_on,96,0,5,,,,,,,,4,,,74,0
116256,note_on,96,0,4,,,,,,,,3,,,62,0
116256,note_on,0,0,4,,,,,,,,3,,,50,0
116256,note_on,96,0,1,,,,,,,,0,,,74,0
116256,note_on,0,0,5,,,,,,,,4,,,62,0
116256,note_on,96,0,2,,,,,,,,1,,,74,0
116256,note_on,96,0,12,,,,,,,,11,,,50,0
116256,note_on,96,0,9,,,,,,,,7,,,74,0
116256,note_on,96,0,13,,,,,,,,12,,,38,0
116256,note_on,96,0,11,,,,,,,,10,,,62,0
116268,note_on,48,0,10,,,,,,,,8,,,69,0
116280,note_on,24,0,9,,,,,,,,7,,,74,80
116280,note_on,24,0,12,,,,,,,,11,,,50,80
116280,note_on,24,0,13,,,,,,,,12,,,38,80
116280,note_on,24,0,1,,,,,,,,0,,,74,80
116280,note_on,24,0,11,,,,,,,,10,,,57,80
116280,note_on,24,0,2,,,,,,,,1,,,74,80
116280,note_on,0,0,5,,,,,,,,4,,,74,80
116280,note_on,12,0,10,,,,,,,,8,,,66,80
116280,note_on,24,0,5,,,,,,,,4,,,62,80
116280,note_on,24,0,4,,,,,,,,3,,,50,80
116280,note_on,0,0,4,,,,,,,,3,,,62,80
116328,note_on,48,0,10,,,,,,,,8,,,66,0
116340,note_on,12,0,10,,,,,,,,8,,,69,80
116352,note_on,192,0,6,,,,,,,,5,,,50,0
116376,note_on,96,0,12,,,,,,,,11,,,50,0
116376,note_on,96,0,13,,,,,,,,12,,,38,0
116376,note_on,0,0,5,,,,,,,,4,,,62,0
116376,note_on,96,0,5,,,,,,,,4,,,74,0
116388,note_on,48,0,10,,,,,,,,8,,,69,0
116400,note_on,12,0,10,,,,,,,,8,,,66,80
116400,note_on,24,0,5,,,,,,,,4,,,74,80
116400,note_on,24,0,13,,,,,,,,12,,,38,80
116400,note_on,0,0,5,,,,,,,,4,,,62,80
116400,note_on,24,0,12,,,,,,,,11,,,50,80
116448,note_on,48,0,10,,,,,,,,8,,,66,0
116460,note_on,12,0,10,,,,,,,,8,,,69,80
116472,note_on,192,0,1,,,,,,,,0,,,74,0
116472,note_on,192,0,2,,,,,,,,1,,,74,0
116472,note_on,192,0,4,,,,,,,,3,,,62,0
116472,note_on,0,0,4,,,,,,,,3,,,50,0
116472,note_on,192,0,11,,,,,,,,10,,,57,0
116472,note_on,192,0,9,,,,,,,,7,,,74,0
116496,note_on,96,0,13,,,,,,,,12,,,38,0
116496,note_on,96,0,12,,,,,,,,11,,,50,0
116508,note_on,48,0,10,,,,,,,,8,,,69,0
116520,note_on,48,0,9,,,,,,,,7,,,78,80
116520,note_on,24,0,13,,,,,,,,12,,,38,80
116520,note_on,0,0,4,,,,,,,,3,,,54,80
116520,note_on,24,0,12,,,,,,,,11,,,50,80
116520,note_on,48,0,11,,,,,,,,10,,,62,80
116520,note_on,12,0,10,,,,,,,,8,,,66,80
116520,note_on,48,0,1,,,,,,,,0,,,78,80
116520,note_on,48,0,2,,,,,,,,1,,,78,80
116520,note_on,48,0,4,,,,,,,,3,,,66,80
116544,note_on,384,0,3,,,,,,,,2,,,54,0
116544,note_on,0,0,3,,,,,,,,2,,,62,0
116568,note_on,48,0,10,,,,,,,,8,,,66,0
116580,note_on,12,0,10,,,,,,,,8,,,69,80
116592,note_on,0,0,5,,,,,,,,4,,,74,0
116592,note_on,192,0,5,,,,,,,,4,,,62,0
116616,note_on,96,0,12,,,,,,,,11,,,50,0
116616,note_on,0,0,4,,,,,,,,3,,,66,0
116616,note_on,96,0,4,,,,,,,,3,,,54,0
116616,note_on,96,0,11,,,,,,,,10,,,62,0
116616,note_on,96,0,1,,,,,,,,0,,,78,0
116616,note_on,96,0,9,,,,,,,,7,,,78,0
116616,note_on,96,0,13,,,,,,,,12,,,38,0
116616,note_on,96,0,2,,,,,,,,1,,,78,0
116628,note_on,48,0,10,,,,,,,,8,,,69,0
116640,note_on,24,0,4,,,,,,,,3,,,57,80
116640,note_on,24,0,12,,,,,,,,11,,,50,80
116640,note_on,0,0,4,,,,,,,,3,,,69,80
116640,note_on,24,0,1,,,,,,,,0,,,81,80
116640,note_on,24,0,11,,,,,,,,10,,,66,80
116640,note_on,288,0,6,,,,,,,,5,,,50,80
116640,note_on,24,0,9,,,,,,,,7,,,81,80
116640,note_on,0,0,5,,,,,,,,4,,,62,80
116640,note_on,24,0,2,,,,,,,,1,,,81,80
116640,note_on,96,0,3,,,,,,,,2,,,66,80
116640,note_on,0,0,3,,,,,,,,2,,,62,80
116640,note_on,12,0,10,,,,,,,,8,,,62,80
116640,note_on,24,0,13,,,,,,,,12,,,38,80
116640,note_on,48,0,5,,,,,,,,4,,,74,80
116688,note_on,48,0,10,,,,,,,,8,,,62,0
116700,note_on,12,0,10,,,,,,,,8,,,69,80
116736,note_on,96,0,11,,,,,,,,10,,,66,0
116736,note_on,96,0,13,,,,,,,,12,,,38,0
116736,note_on,96,0,1,,,,,,,,0,,,81,0
116736,note_on,96,0,12,,,,,,,,11,,,50,0
116736,note_on,96,0,2,,,,,,,,1,,,81,0
116736,note_on,96,0,4,,,,,,,,3,,,69,0
116736,note_on,96,0,9,,,,,,,,7,,,81,0
116736,note_on,0,0,4,,,,,,,,3,,,57,0
116736,note_on,0,0,5,,,,,,,,4,,,74,0
116736,note_on,96,0,5,,,,,,,,4,,,62,0
116748,note_on,48,0,10,,,,,,,,8,,,69,0
116760,note_on,24,0,9,,,,,,,,7,,,81,80
116760,note_on,0,0,4,,,,,,,,3,,,69,80
116760,note_on,24,0,4,,,,,,,,3,,,57,80
116760,note_on,24,0,2,,,,,,,,1,,,81,80
116760,note_on,0,0,5,,,,,,,,4,,,62,80
116760,note_on,24,0,1,,,,,,,,0,,,81,80
116760,note_on,24,0,13,,,,,,,,12,,,38,80
116760,note_on,12,0,10,,,,,,,,8,,,62,80
116760,note_on,24,0,11,,,,,,,,10,,,66,80
116760,note_on,24,0,12,,,,,,,,11,,,50,80
116760,note_on,24,0,5,,,,,,,,4,,,74,80
116808,note_on,48,0,10,,,,,,,,8,,,62,0
116820,note_on,12,0,10,,,,,,,,8,,,69,80
116832,note_on,192,0,6,,,,,,,,5,,,50,0
116856,note_on,96,0,13,,,,,,,,12,,,38,0
116856,note_on,96,0,12,,,,,,,,11,,,50,0
116856,note_on,0,0,5,,,,,,,,4,,,74,0
116856,note_on,96,0,5,,,,,,,,4,,,62,0
116868,note_on,48,0,10,,,,,,,,8,,,69,0
116880,note_on,0,0,5,,,,,,,,4,,,62,80
116880,note_on,24,0,5,,,,,,,,4,,,74,80
116880,note_on,24,0,13,,,,,,,,12,,,38,80
116880,note_on,24,0,12,,,,,,,,11,,,50,80
116880,note_on,12,0,10,,,,,,,,8,,,62,80
116928,note_on,48,0,10,,,,,,,,8,,,62,0
116940,note_on,12,0,10,,,,,,,,8,,,69,80
116952,note_on,192,0,2,,,,,,,,1,,,81,0
116952,note_on,192,0,11,,,,,,,,10,,,66,0
116952,note_on,192,0,9,,,,,,,,7,,,81,0
116952,note_on,192,0,1,,,,,,,,0,,,81,0
116952,note_on,0,0,4,,,,,,,,3,,,57,0
116952,note_on,192,0,4,,,,,,,,3,,,69,0
116976,note_on,96,0,12,,,,,,,,11,,,50,0
116976,note_on,96,0,13,,,,,,,,12,,,38,0
116988,note_on,48,0,10,,,,,,,,8,,,69,0
117000,note_on,12,0,10,,,,,,,,8,,,62,80
117000,note_on,48,0,9,,,,,,,,7,,,78,80
117000,note_on,24,0,12,,,,,,,,11,,,50,80
117000,note_on,48,0,11,,,,,,,,10,,,69,80
117000,note_on,0,0,4,,,,,,,,3,,,62,80
117000,note_on,48,0,4,,,,,,,,3,,,66,80
117000,note_on,48,0,2,,,,,,,,1,,,78,80
117000,note_on,24,0,13,,,,,,,,12,,,38,80
117000,note_on,48,0,1,,,,,,,,0,,,78,80
117024,note_on,384,0,3,,,,,,,,2,,,62,0
117024,note_on,0,0,3,,,,,,,,2,,,66,0
117048,note_on,48,0,10,,,,,,,,8,,,62,0
117060,note_on,12,0,10,,,,,,,,8,,,69,80
117072,note_on,192,0,5,,,,,,,,4,,,62,0
117072,note_on,0,0,5,,,,,,,,4,,,74,0
117096,note_on,96,0,12,,,,,,,,11,,,50,0
117096,note_on,96,0,4,,,,,,,,3,,,62,0
117096,note_on,96,0,2,,,,,,,,1,,,78,0
117096,note_on,0,0,4,,,,,,,,3,,,66,0
117096,note_on,96,0,11,,,,,,,,10,,,69,0
117096,note_on,96,0,1,,,,,,,,0,,,78,0
117096,note_on,96,0,13,,,,,,,,12,,,38,0
117096,note_on,96,0,9,,,,,,,,7,,,78,0
117108,note_on,48,0,10,,,,,,,,8,,,69,0
117120,note_on,24,0,4,,,,,,,,3,,,64,80
117120,note_on,24,0,11,,,,,,,,10,,,64,80
117120,note_on,24,0,9,,,,,,,,7,,,76,80
117120,note_on,12,0,10,,,,,,,,8,,,61,80
117120,note_on,24,0,12,,,,,,,,11,,,52,80
117120,note_on,24,0,2,,,,,,,,1,,,76,80
117120,note_on,48,0,5,,,,,,,,4,,,76,80
117120,note_on,96,0,3,,,,,,,,2,,,61,80
117120,note_on,0,0,3,,,,,,,,2,,,64,80
117120,note_on,24,0,13,,,,,,,,12,,,40,80
117120,note_on,24,0,1,,,,,,,,0,,,76,80
117168,note_on,48,0,10,,,,,,,,8,,,61,0
117180,note_on,12,0,10,,,,,,,,8,,,64,80
117216,note_on,96,0,12,,,,,,,,11,,,52,0
117216,note_on,96,0,1,,,,,,,,0,,,76,0
117216,note_on,96,0,11,,,,,,,,10,,,64,0
117216,note_on,96,0,13,,,,,,,,12,,,40,0
117216,note_on,96,0,9,,,,,,,,7,,,76,0
117216,note_on,96,0,2,,,,,,,,1,,,76,0
117216,note_on,96,0,4,,,,,,,,3,,,64,0
117228,note_on,48,0,10,,,,,,,,8,,,64,0
117240,note_on,24,0,2,,,,,,,,1,,,81,80
117240,note_on,24,0,1,,,,,,,,0,,,81,80
117240,note_on,24,0,9,,,,,,,,7,,,81,80
117240,note_on,24,0,13,,,,,,,,12,,,40,80
117240,note_on,12,0,10,,,,,,,,8,,,61,80
117240,note_on,24,0,12,,,,,,,,11,,,52,80
117240,note_on,24,0,11,,,,,,,,10,,,64,80
117240,note_on,24,0,4,,,,,,,,3,,,64,80
117288,note_on,48,0,10,,,,,,,,8,,,61,0
117300,note_on,12,0,10,,,,,,,,8,,,64,80
117336,note_on,96,0,4,,,,,,,,3,,,64,0
117336,note_on,96,0,12,,,,,,,,11,,,52,0
117336,note_on,96,0,13,,,,,,,,12,,,40,0
117336,note_on,96,0,11,,,,,,,,10,,,64,0
117348,note_on,48,0,10,,,,,,,,8,,,64,0
117360,note_on,12,0,10,,,,,,,,8,,,61,80
117360,note_on,24,0,13,,,,,,,,12,,,40,80
117360,note_on,24,0,4,,,,,,,,3,,,64,80
117360,note_on,24,0,12,,,,,,,,11,,,52,80
117360,note_on,24,0,11,,,,,,,,10,,,64,80
117408,note_on,48,0,10,,,,,,,,8,,,61,0
117408,note_on,0,0,3,,,,,,,,2,,,61,0
117408,note_on,288,0,3,,,,,,,,2,,,64,0
117420,note_on,12,0,10,,,,,,,,8,,,64,80
117432,note_on,192,0,2,,,,,,,,1,,,81,0
117432,note_on,192,0,1,,,,,,,,0,,,81,0
117432,note_on,192,0,9,,,,,,,,7,,,81,0
117456,note_on,96,0,12,,,,,,,,11,,,52,0
117456,note_on,96,0,13,,,,,,,,12,,,40,0
117456,note_on,96,0,4,,,,,,,,3,,,64,0
117456,note_on,96,0,11,,,,,,,,10,,,64,0
117468,note_on,48,0,10,,,,,,,,8,,,64,0
117480,note_on,24,0,12,,,,,,,,11,,,52,80
117480,note_on,12,0,10,,,,,,,,8,,,62,80
117480,note_on,48,0,2,,,,,,,,1,,,83,80
117480,note_on,24,0,13,,,,,,,,12,,,40,80
117480,note_on,24,0,4,,,,,,,,3,,,64,80
117480,note_on,0,0,3,,,,,,,,2,,,59,80
117480,note_on,72,0,3,,,,,,,,2,,,62,80
117480,note_on,48,0,9,,,,,,,,7,,,83,80
117480,note_on,48,0,1,,,,,,,,0,,,83,80
117480,note_on,24,0,11,,,,,,,,10,,,64,80
117504,note_on,384,0,5,,,,,,,,4,,,76,0
117528,note_on,48,0,1,,,,,,,,0,,,83,0
117528,note_on,48,0,2,,,,,,,,1,,,83,0
117528,note_on,48,0,9,,,,,,,,7,,,83,0
117528,note_on,48,0,10,,,,,,,,8,,,62,0
117540,note_on,12,0,1,,,,,,,,0,,,80,80
117540,note_on,12,0,2,,,,,,,,1,,,80,80
117540,note_on,12,0,10,,,,,,,,8,,,59,80
117540,note_on,12,0,9,,,,,,,,7,,,80,80
117576,note_on,96,0,3,,,,,,,,2,,,59,0
117576,note_on,0,0,3,,,,,,,,2,,,62,0
117576,note_on,96,0,11,,,,,,,,10,,,64,0
117576,note_on,96,0,12,,,,,,,,11,,,52,0
117576,note_on,96,0,4,,,,,,,,3,,,64,0
117576,note_on,96,0,13,,,,,,,,12,,,40,0
117588,note_on,48,0,10,,,,,,,,8,,,59,0
117588,note_on,48,0,2,,,,,,,,1,,,80,0
117588,note_on,48,0,1,,,,,,,,0,,,80,0
117588,note_on,48,0,9,,,,,,,,7,,,80,0
117600,note_on,12,0,10,,,,,,,,8,,,61,80
117600,note_on,12,0,9,,,,,,,,7,,,81,80
117600,note_on,24,0,13,,,,,,,,12,,,45,80
117600,note_on,12,0,2,,,,,,,,1,,,81,80
117600,note_on,12,0,1,,,,,,,,0,,,81,80
117600,note_on,24,0,3,,,,,,,,2,,,57,80
117600,note_on,24,0,4,,,,,,,,3,,,57,80
117600,note_on,0,0,4,,,,,,,,3,,,64,80
117600,note_on,768,0,6,,,,,,,,5,,,45,80
117600,note_on,96,0,5,,,,,,,,4,,,69,80
117600,note_on,0,0,3,,,,,,,,2,,,61,80
117600,note_on,0,0,5,,,,,,,,4,,,76,80
117600,note_on,24,0,12,,,,,,,,11,,,57,80
117600,note_on,24,0,11,,,,,,,,10,,,64,80
117696,note_on,96,0,12,,,,,,,,11,,,57,0
117696,note_on,96,0,13,,,,,,,,12,,,45,0
117720,note_on,24,0,12,,,,,,,,11,,,52,80
117720,note_on,24,0,13,,,,,,,,12,,,40,80
117792,note_on,192,0,9,,,,,,,,7,,,81,0
117792,note_on,192,0,1,,,,,,,,0,,,81,0
117792,note_on,0,0,4,,,,,,,,3,,,57,0
117792,note_on,192,0,4,,,,,,,,3,,,64,0
117792,note_on,0,0,5,,,,,,,,4,,,69,0
117792,note_on,192,0,3,,,,,,,,2,,,61,0
117792,note_on,192,0,5,,,,,,,,4,,,76,0
117792,note_on,0,0,3,,,,,,,,2,,,57,0
117792,note_on,192,0,2,,,,,,,,1,,,81,0
117792,note_on,192,0,11,,,,,,,,10,,,64,0
117792,note_on,192,0,6,,,,,,,,5,,,45,0
117792,note_on,192,0,10,,,,,,,,8,,,61,0
117816,note_on,96,0,12,,,,,,,,11,,,52,0
117816,note_on,96,0,13,,,,,,,,12,,,40,0
117840,note_on,24,0,13,,,,,,,,12,,,33,80
117840,note_on,24,0,12,,,,,,,,11,,,45,80
117936,note_on,96,0,13,,,,,,,,12,,,33,0
117936,note_on,96,0,12,,,,,,,,11,,,45,0
117960,note_on,3528,0,7,,,,,,,,6,,,81,80
118056,note_on,96,0,7,,,,,,,,6,,,81,0
118080,note_on,288,0,10,,,,,,,,8,,,69,80
118080,note_on,0,0,8,,,,,,,,6,,,57,80
118080,note_on,0,0,8,,,,,,,,6,,,54,80
118080,note_on,4128,0,8,,,,,,,,6,,,62,80
118080,note_on,24,0,7,,,,,,,,6,,,80,80
118080,note_on,288,0,9,,,,,,,,7,,,74,80
118080,note_on,288,0,11,,,,,,,,10,,,69,80
118080,note_on,144,0,13,,,,,,,,12,,,42,80
118080,note_on,144,0,12,,,,,,,,11,,,54,80
118128,note_on,48,0,7,,,,,,,,6,,,80,0
118140,note_on,12,0,7,,,,,,,,6,,,81,80
118188,note_on,48,0,7,,,,,,,,6,,,81,0
118200,note_on,12,0,7,,,,,,,,6,,,83,80
118248,note_on,48,0,7,,,,,,,,6,,,83,0
118260,note_on,12,0,7,,,,,,,,6,,,81,80
118308,note_on,48,0,7,,,,,,,,6,,,81,0
118320,note_on,12,0,7,,,,,,,,6,,,83,80
118368,note_on,48,0,7,,,,,,,,6,,,83,0
118380,note_on,12,0,7,,,,,,,,6,,,81,80
118428,note_on,48,0,7,,,,,,,,6,,,81,0
118440,note_on,12,0,7,,,,,,,,6,,,86,80
118464,note_on,384,0,8,,,,,,,,6,,,57,0
118464,note_on,0,0,8,,,,,,,,6,,,62,0
118464,note_on,384,0,9,,,,,,,,7,,,74,0
118464,note_on,0,0,8,,,,,,,,6,,,54,0
118464,note_on,384,0,13,,,,,,,,12,,,42,0
118464,note_on,384,0,10,,,,,,,,8,,,69,0
118464,note_on,384,0,12,,,,,,,,11,,,54,0
118488,note_on,48,0,7,,,,,,,,6,,,86,0
118500,note_on,12,0,7,,,,,,,,6,,,83,80
118548,note_on,48,0,7,,,,,,,,6,,,83,0
118560,note_on,96,0,13,,,,,,,,12,,,40,80
118560,note_on,96,0,9,,,,,,,,7,,,73,80
118560,note_on,96,0,10,,,,,,,,8,,,67,80
118560,note_on,96,0,12,,,,,,,,11,,,52,80
118560,note_on,0,0,8,,,,,,,,6,,,57,80
118560,note_on,0,0,8,,,,,,,,6,,,52,80
118560,note_on,96,0,8,,,,,,,,6,,,61,80
118560,note_on,12,0,7,,,,,,,,6,,,81,80
118608,note_on,48,0,7,,,,,,,,6,,,81,0
118620,note_on,12,0,7,,,,,,,,6,,,79,80
118668,note_on,48,0,7,,,,,,,,6,,,79,0
118680,note_on,12,0,7,,,,,,,,6,,,78,80
118728,note_on,48,0,7,,,,,,,,6,,,78,0
118740,note_on,12,0,7,,,,,,,,6,,,79,80
118788,note_on,48,0,7,,,,,,,,6,,,79,0
118800,note_on,12,0,7,,,,,,,,6,,,78,80
118848,note_on,48,0,7,,,,,,,,6,,,78,0
118860,note_on,12,0,7,,,,,,,,6,,,79,80
118908,note_on,48,0,7,,,,,,,,6,,,79,0
118920,note_on,12,0,7,,,,,,,,6,,,83,80
118944,note_on,384,0,9,,,,,,,,7,,,73,0
118944,note_on,384,0,12,,,,,,,,11,,,52,0
118944,note_on,0,0,8,,,,,,,,6,,,61,0
118944,note_on,384,0,10,,,,,,,,8,,,67,0
118944,note_on,384,0,13,,,,,,,,12,,,40,0
118944,note_on,384,0,8,,,,,,,,6,,,57,0
118944,note_on,0,0,8,,,,,,,,6,,,52,0
118968,note_on,48,0,7,,,,,,,,6,,,83,0
118980,note_on,12,0,7,,,,,,,,6,,,79,80
119028,note_on,48,0,7,,,,,,,,6,,,79,0
119040,note_on,96,0,9,,,,,,,,7,,,74,80
119040,note_on,96,0,13,,,,,,,,12,,,38,80
119040,note_on,96,0,10,,,,,,,,8,,,66,80
119040,note_on,96,0,8,,,,,,,,6,,,62,80
119040,note_on,12,0,7,,,,,,,,6,,,79,80
119040,note_on,0,0,8,,,,,,,,6,,,50,80
119040,note_on,0,0,8,,,,,,,,6,,,57,80
119040,note_on,96,0,12,,,,,,,,11,,,50,80
119088,note_on,48,0,7,,,,,,,,6,,,79,0
119100,note_on,12,0,7,,,,,,,,6,,,78,80
119148,note_on,48,0,7,,,,,,,,6,,,78,0
119160,note_on,12,0,7,,,,,,,,6,,,77,80
119208,note_on,48,0,7,,,,,,,,6,,,77,0
119220,note_on,12,0,7,,,,,,,,6,,,78,80
119268,note_on,48,0,7,,,,,,,,6,,,78,0
119280,note_on,12,0,7,,,,,,,,6,,,77,80
119328,note_on,48,0,7,,,,,,,,6,,,77,0
119340,note_on,12,0,7,,,,,,,,6,,,78,80
119388,note_on,48,0,7,,,,,,,,6,,,78,0
119400,note_on,12,0,7,,,,,,,,6,,,81,80
119424,note_on,384,0,10,,,,,,,,8,,,66,0
119424,note_on,384,0,8,,,,,,,,6,,,57,0
119424,note_on,384,0,9,,,,,,,,7,,,74,0
119424,note_on,384,0,13,,,,,,,,12,,,38,0
119424,note_on,0,0,8,,,,,,,,6,,,62,0
119424,note_on,0,0,8,,,,,,,,6,,,50,0
119424,note_on,384,0,12,,,,,,,,11,,,50,0
119448,note_on,48,0,7,,,,,,,,6,,,81,0
119460,note_on,12,0,7,,,,,,,,6,,,78,80
119508,note_on,48,0,7,,,,,,,,6,,,78,0
119520,note_on,0,0,8,,,,,,,,6,,,57,80
119520,note_on,96,0,10,,,,,,,,8,,,61,80
119520,note_on,96,0,13,,,,,,,,12,,,43,80
119520,note_on,96,0,8,,,,,,,,6,,,61,80
119520,note_on,96,0,12,,,,,,,,11,,,55,80
119520,note_on,0,0,8,,,,,,,,6,,,55,80
119520,note_on,12,0,7,,,,,,,,6,,,78,80
119520,note_on,96,0,9,,,,,,,,7,,,76,80
119568,note_on,48,0,7,,,,,,,,6,,,78,0
119580,note_on,12,0,7,,,,,,,,6,,,76,80
119628,note_on,48,0,7,,,,,,,,6,,,76,0
119640,note_on,12,0,7,,,,,,,,6,,,75,80
119688,note_on,48,0,7,,,,,,,,6,,,75,0
119700,note_on,12,0,7,,,,,,,,6,,,76,80
119748,note_on,48,0,7,,,,,,,,6,,,76,0
119760,note_on,12,0,7,,,,,,,,6,,,75,80
119808,note_on,48,0,7,,,,,,,,6,,,75,0
119820,note_on,12,0,7,,,,,,,,6,,,76,80
119868,note_on,48,0,7,,,,,,,,6,,,76,0
119880,note_on,12,0,7,,,,,,,,6,,,79,80
119904,note_on,0,0,8,,,,,,,,6,,,55,0
119904,note_on,384,0,10,,,,,,,,8,,,61,0
119904,note_on,384,0,8,,,,,,,,6,,,57,0
119904,note_on,384,0,12,,,,,,,,11,,,55,0
119904,note_on,384,0,13,,,,,,,,12,,,43,0
119904,note_on,384,0,9,,,,,,,,7,,,76,0
119904,note_on,0,0,8,,,,,,,,6,,,61,0
119928,note_on,48,0,7,,,,,,,,6,,,79,0
119940,note_on,12,0,7,,,,,,,,6,,,76,80
119988,note_on,48,0,7,,,,,,,,6,,,76,0
120000,note_on,0,0,8,,,,,,,,6,,,57,80
120000,note_on,96,0,13,,,,,,,,12,,,42,80
120000,note_on,96,0,12,,,,,,,,11,,,54,80
120000,note_on,0,0,8,,,,,,,,6,,,54,80
120000,note_on,96,0,8,,,,,,,,6,,,62,80
120000,note_on,96,0,10,,,,,,,,8,,,62,80
120000,note_on,96,0,9,,,,,,,,7,,,74,80
120000,note_on,12,0,7,,,,,,,,6,,,74,80
120048,note_on,48,0,7,,,,,,,,6,,,74,0
120060,note_on,12,0,7,,,,,,,,6,,,76,80
120108,note_on,48,0,7,,,,,,,,6,,,76,0
120120,note_on,12,0,7,,,,,,,,6,,,78,80
120168,note_on,48,0,7,,,,,,,,6,,,78,0
120180,note_on,12,0,7,,,,,,,,6,,,79,80
120228,note_on,48,0,7,,,,,,,,6,,,79,0
120240,note_on,12,0,7,,,,,,,,6,,,81,80
120288,note_on,48,0,7,,,,,,,,6,,,81,0
120300,note_on,12,0,7,,,,,,,,6,,,83,80
120348,note_on,48,0,7,,,,,,,,6,,,83,0
120360,note_on,12,0,7,,,,,,,,6,,,85,80
120384,note_on,384,0,8,,,,,,,,6,,,57,0
120384,note_on,384,0,9,,,,,,,,7,,,74,0
120384,note_on,0,0,8,,,,,,,,6,,,62,0
120384,note_on,384,0,12,,,,,,,,11,,,54,0
120384,note_on,384,0,13,,,,,,,,12,,,42,0
120384,note_on,2304,0,11,,,,,,,,10,,,69,0
120384,note_on,0,0,8,,,,,,,,6,,,54,0
120408,note_on,48,0,7,,,,,,,,6,,,85,0
120420,note_on,12,0,7,,,,,,,,6,,,86,80
120468,note_on,48,0,7,,,,,,,,6,,,86,0
120480,note_on,96,0,13,,,,,,,,12,,,43,80
120480,note_on,96,0,8,,,,,,,,6,,,64,80
120480,note_on,12,0,7,,,,,,,,6,,,82,80
120480,note_on,0,0,8,,,,,,,,6,,,55,80
120480,note_on,0,0,8,,,,,,,,6,,,59,80
120480,note_on,96,0,11,,,,,,,,10,,,64,80
120480,note_on,96,0,12,,,,,,,,11,,,55,80
120480,note_on,96,0,9,,,,,,,,7,,,71,80
120528,note_on,48,0,7,,,,,,,,6,,,82,0
120540,note_on,12,0,7,,,,,,,,6,,,83,80
120588,note_on,48,0,7,,,,,,,,6,,,83,0
120600,note_on,12,0,7,,,,,,,,6,,,85,80
120648,note_on,48,0,7,,,,,,,,6,,,85,0
120660,note_on,12,0,7,,,,,,,,6,,,83,80
120708,note_on,48,0,7,,,,,,,,6,,,83,0
120720,note_on,12,0,7,,,,,,,,6,,,81,80
120768,note_on,48,0,7,,,,,,,,6,,,81,0
120780,note_on,12,0,7,,,,,,,,6,,,79,80
120828,note_on,48,0,7,,,,,,,,6,,,79,0
120840,note_on,12,0,7,,,,,,,,6,,,78,80
120864,note_on,384,0,12,,,,,,,,11,,,55,0
120864,note_on,384,0,13,,,,,,,,12,,,43,0
120864,note_on,864,0,10,,,,,,,,8,,,62,0
120864,note_on,0,0,8,,,,,,,,6,,,64,0
120864,note_on,384,0,9,,,,,,,,7,,,71,0
120864,note_on,384,0,8,,,,,,,,6,,,59,0
120864,note_on,0,0,8,,,,,,,,6,,,55,0
120888,note_on,48,0,7,,,,,,,,6,,,78,0
120900,note_on,12,0,7,,,,,,,,6,,,76,80
120948,note_on,48,0,7,,,,,,,,6,,,76,0
120960,note_on,0,0,8,,,,,,,,6,,,64,80
120960,note_on,0,0,8,,,,,,,,6,,,57,80
120960,note_on,96,0,8,,,,,,,,6,,,67,80
120960,note_on,96,0,13,,,,,,,,12,,,45,80
120960,note_on,96,0,9,,,,,,,,7,,,73,80
120960,note_on,96,0,10,,,,,,,,8,,,67,80
120960,note_on,12,0,7,,,,,,,,6,,,74,80
120960,note_on,96,0,12,,,,,,,,11,,,57,80
121008,note_on,48,0,7,,,,,,,,6,,,74,0
121020,note_on,12,0,7,,,,,,,,6,,,73,80
121068,note_on,48,0,7,,,,,,,,6,,,73,0
121080,note_on,12,0,7,,,,,,,,6,,,79,80
121128,note_on,48,0,7,,,,,,,,6,,,79,0
121140,note_on,12,0,7,,,,,,,,6,,,78,80
121188,note_on,48,0,7,,,,,,,,6,,,78,0
121200,note_on,12,0,7,,,,,,,,6,,,81,80
121248,note_on,48,0,7,,,,,,,,6,,,81,0
121260,note_on,12,0,7,,,,,,,,6,,,79,80
121308,note_on,48,0,7,,,,,,,,6,,,79,0
121320,note_on,12,0,7,,,,,,,,6,,,76,80
121344,note_on,864,0,11,,,,,,,,10,,,64,0
121344,note_on,384,0,12,,,,,,,,11,,,57,0
121344,note_on,0,0,8,,,,,,,,6,,,57,0
121344,note_on,0,0,8,,,,,,,,6,,,67,0
121344,note_on,384,0,9,,,,,,,,7,,,73,0
121344,note_on,384,0,8,,,,,,,,6,,,64,0
121344,note_on,384,0,13,,,,,,,,12,,,45,0
121344,note_on,384,0,10,,,,,,,,8,,,67,0
121368,note_on,48,0,7,,,,,,,,6,,,76,0
121380,note_on,12,0,7,,,,,,,,6,,,73,80
121428,note_on,48,0,7,,,,,,,,6,,,73,0
121440,note_on,96,0,11,,,,,,,,10,,,62,80
121440,note_on,96,0,8,,,,,,,,6,,,62,80
121440,note_on,0,0,8,,,,,,,,6,,,66,80
121440,note_on,12,0,7,,,,,,,,6,,,74,80
121440,note_on,96,0,10,,,,,,,,8,,,66,80
121440,note_on,96,0,9,,,,,,,,7,,,74,80
121440,note_on,96,0,12,,,,,,,,11,,,50,80
121440,note_on,96,0,13,,,,,,,,12,,,38,80
121488,note_on,48,0,7,,,,,,,,6,,,74,0
121500,note_on,12,0,7,,,,,,,,6,,,73,80
121548,note_on,48,0,7,,,,,,,,6,,,73,0
121560,note_on,12,0,7,,,,,,,,6,,,76,80
121608,note_on,48,0,7,,,,,,,,6,,,76,0
121620,note_on,12,0,7,,,,,,,,6,,,74,80
121632,note_on,192,0,12,,,,,,,,11,,,50,0
121632,note_on,192,0,8,,,,,,,,6,,,66,0
121632,note_on,192,0,13,,,,,,,,12,,,38,0
121632,note_on,0,0,8,,,,,,,,6,,,62,0
121632,note_on,192,0,10,,,,,,,,8,,,66,0
121632,note_on,192,0,11,,,,,,,,10,,,62,0
121632,note_on,192,0,9,,,,,,,,7,,,74,0
121668,note_on,48,0,7,,,,,,,,6,,,74,0
121680,note_on,12,0,7,,,,,,,,6,,,78,80
121728,note_on,48,0,7,,,,,,,,6,,,78,0
121740,note_on,12,0,7,,,,,,,,6,,,76,80
121788,note_on,48,0,7,,,,,,,,6,,,76,0
121800,note_on,12,0,7,,,,,,,,6,,,79,80
121848,note_on,48,0,7,,,,,,,,6,,,79,0
121860,note_on,12,0,7,,,,,,,,6,,,78,80
121908,note_on,48,0,7,,,,,,,,6,,,78,0
121920,note_on,288,0,9,,,,,,,,7,,,81,80
121920,note_on,4128,0,6,,,,,,,,5,,,45,80
121920,note_on,4128,0,1,,,,,,,,0,,,81,80
121920,note_on,4128,0,4,,,,,,,,3,,,57,80
121920,note_on,0,0,4,,,,,,,,3,,,45,80
121920,note_on,288,0,10,,,,,,,,8,,,69,80
121920,note_on,4128,0,5,,,,,,,,4,,,57,80
121920,note_on,0,0,5,,,,,,,,4,,,69,80
121920,note_on,4128,0,2,,,,,,,,1,,,81,80
121920,note_on,12,0,7,,,,,,,,6,,,81,80
121920,note_on,288,0,11,,,,,,,,10,,,66,80
121920,note_on,0,0,2,,,,,,,,1,,,78,80
122040,note_on,4248,0,3,,,,,,,,2,,,66,80
122040,note_on,408,0,13,,,,,,,,12,,,54,80
122040,note_on,408,0,12,,,,,,,,11,,,66,80
122112,note_on,192,0,5,,,,,,,,4,,,69,0
122112,note_on,192,0,6,,,,,,,,5,,,45,0
122112,note_on,0,0,5,,,,,,,,4,,,57,0
122112,note_on,192,0,7,,,,,,,,6,,,81,0
122136,note_on,96,0,13,,,,,,,,12,,,54,0
122136,note_on,96,0,12,,,,,,,,11,,,66,0
122136,note_on,96,0,3,,,,,,,,2,,,66,0
122160,note_on,24,0,13,,,,,,,,12,,,51,80
122160,note_on,24,0,3,,,,,,,,2,,,63,80
122160,note_on,24,0,12,,,,,,,,11,,,63,80
122208,note_on,288,0,10,,,,,,,,8,,,69,0
122208,note_on,288,0,1,,,,,,,,0,,,81,0
122208,note_on,288,0,11,,,,,,,,10,,,66,0
122208,note_on,288,0,2,,,,,,,,1,,,78,0
122208,note_on,0,0,2,,,,,,,,1,,,81,0
122208,note_on,288,0,9,,,,,,,,7,,,81,0
122256,note_on,96,0,13,,,,,,,,12,,,51,0
122256,note_on,96,0,12,,,,,,,,11,,,63,0
122256,note_on,96,0,3,,,,,,,,2,,,63,0
122280,note_on,24,0,12,,,,,,,,11,,,59,80
122280,note_on,0,0,2,,,,,,,,1,,,83,80
122280,note_on,24,0,13,,,,,,,,12,,,47,80
122280,note_on,72,0,2,,,,,,,,1,,,79,80
122280,note_on,72,0,9,,,,,,,,7,,,83,80
122280,note_on,72,0,11,,,,,,,,10,,,67,80
122280,note_on,72,0,1,,,,,,,,0,,,83,80
122280,note_on,24,0,3,,,,,,,,2,,,59,80
122280,note_on,72,0,10,,,,,,,,8,,,71,80
122376,note_on,96,0,13,,,,,,,,12,,,47,0
122376,note_on,96,0,9,,,,,,,,7,,,83,0
122376,note_on,96,0,10,,,,,,,,8,,,71,0
122376,note_on,96,0,12,,,,,,,,11,,,59,0
122376,note_on,96,0,1,,,,,,,,0,,,83,0
122376,note_on,96,0,11,,,,,,,,10,,,67,0
122376,note_on,96,0,3,,,,,,,,2,,,59,0
122376,note_on,0,0,2,,,,,,,,1,,,79,0
122376,note_on,96,0,2,,,,,,,,1,,,83,0
122400,note_on,288,0,6,,,,,,,,5,,,45,80
122400,note_on,24,0,9,,,,,,,,7,,,81,80
122400,note_on,0,0,2,,,,,,,,1,,,78,80
122400,note_on,24,0,1,,,,,,,,0,,,81,80
122400,note_on,0,0,5,,,,,,,,4,,,69,80
122400,note_on,288,0,5,,,,,,,,4,,,57,80
122400,note_on,24,0,11,,,,,,,,10,,,66,80
122400,note_on,24,0,10,,,,,,,,8,,,69,80
122400,note_on,24,0,2,,,,,,,,1,,,81,80
122496,note_on,96,0,10,,,,,,,,8,,,69,0
122496,note_on,96,0,1,,,,,,,,0,,,81,0
122496,note_on,96,0,11,,,,,,,,10,,,66,0
122496,note_on,96,0,2,,,,,,,,1,,,78,0
122496,note_on,0,0,2,,,,,,,,1,,,81,0
122496,note_on,96,0,9,,,,,,,,7,,,81,0
122520,note_on,24,0,10,,,,,,,,8,,,67,80
122520,note_on,144,0,13,,,,,,,,12,,,52,80
122520,note_on,24,0,1,,,,,,,,0,,,79,80
122520,note_on,24,0,11,,,,,,,,10,,,64,80
122520,note_on,0,0,2,,,,,,,,1,,,79,80
122520,note_on,24,0,2,,,,,,,,1,,,76,80
122520,note_on,24,0,9,,,,,,,,7,,,79,80
122520,note_on,144,0,12,,,,,,,,11,,,64,80
122520,note_on,144,0,3,,,,,,,,2,,,64,80
122592,note_on,192,0,6,,,,,,,,5,,,45,0
122592,note_on,192,0,5,,,,,,,,4,,,69,0
122592,note_on,0,0,5,,,,,,,,4,,,57,0
122616,note_on,96,0,9,,,,,,,,7,,,79,0
122616,note_on,96,0,13,,,,,,,,12,,,52,0
122616,note_on,96,0,10,,,,,,,,8,,,67,0
122616,note_on,96,0,1,,,,,,,,0,,,79,0
122616,note_on,96,0,3,,,,,,,,2,,,64,0
122616,note_on,96,0,11,,,,,,,,10,,,64,0
122616,note_on,0,0,2,,,,,,,,1,,,76,0
122616,note_on,96,0,2,,,,,,,,1,,,79,0
122616,note_on,96,0,12,,,,,,,,11,,,64,0
122640,note_on,24,0,13,,,,,,,,12,,,49,80
122640,note_on,24,0,12,,,,,,,,11,,,61,80
122640,note_on,24,0,3,,,,,,,,2,,,61,80
122736,note_on,96,0,13,,,,,,,,12,,,49,0
122736,note_on,96,0,12,,,,,,,,11,,,61,0
122736,note_on,96,0,3,,,,,,,,2,,,61,0
122760,note_on,24,0,3,,,,,,,,2,,,57,80
122760,note_on,144,0,11,,,,,,,,10,,,66,80
122760,note_on,144,0,10,,,,,,,,8,,,69,80
122760,note_on,144,0,2,,,,,,,,1,,,81,80
122760,note_on,0,0,2,,,,,,,,1,,,78,80
122760,note_on,24,0,12,,,,,,,,11,,,57,80
122760,note_on,24,0,13,,,,,,,,12,,,45,80
122760,note_on,144,0,9,,,,,,,,7,,,81,80
122760,note_on,144,0,1,,,,,,,,0,,,81,80
122856,note_on,96,0,1,,,,,,,,0,,,81,0
122856,note_on,96,0,12,,,,,,,,11,,,57,0
122856,note_on,96,0,11,,,,,,,,10,,,66,0
122856,note_on,96,0,2,,,,,,,,1,,,78,0
122856,note_on,0,0,2,,,,,,,,1,,,81,0
122856,note_on,96,0,13,,,,,,,,12,,,45,0
122856,note_on,96,0,9,,,,,,,,7,,,81,0
122856,note_on,96,0,3,,,,,,,,2,,,57,0
122856,note_on,96,0,10,,,,,,,,8,,,69,0
122880,note_on,24,0,10,,,,,,,,8,,,67,80
122880,note_on,0,0,2,,,,,,,,1,,,76,80
122880,note_on,0,0,5,,,,,,,,4,,,69,80
122880,note_on,288,0,5,,,,,,,,4,,,57,80
122880,note_on,24,0,9,,,,,,,,7,,,79,80
122880,note_on,288,0,6,,,,,,,,5,,,45,80
122880,note_on,24,0,11,,,,,,,,10,,,64,80
122880,note_on,24,0,2,,,,,,,,1,,,79,80
122880,note_on,24,0,1,,,,,,,,0,,,79,80
122976,note_on,96,0,1,,,,,,,,0,,,79,0
122976,note_on,96,0,10,,,,,,,,8,,,67,0
122976,note_on,96,0,9,,,,,,,,7,,,79,0
122976,note_on,96,0,11,,,,,,,,10,,,64,0
122976,note_on,0,0,2,,,,,,,,1,,,79,0
122976,note_on,96,0,2,,,,,,,,1,,,76,0
123000,note_on,24,0,1,,,,,,,,0,,,78,80
123000,note_on,24,0,11,,,,,,,,10,,,62,80
123000,note_on,144,0,12,,,,,,,,11,,,62,80
123000,note_on,144,0,3,,,,,,,,2,,,62,80
123000,note_on,0,0,2,,,,,,,,1,,,78,80
123000,note_on,24,0,9,,,,,,,,7,,,78,80
123000,note_on,144,0,13,,,,,,,,12,,,50,80
123000,note_on,24,0,10,,,,,,,,8,,,66,80
123000,note_on,24,0,2,,,,,,,,1,,,74,80
123072,note_on,192,0,6,,,,,,,,5,,,45,0
123072,note_on,192,0,5,,,,,,,,4,,,69,0
123072,note_on,0,0,5,,,,,,,,4,,,57,0
123096,note_on,96,0,11,,,,,,,,10,,,62,0
123096,note_on,96,0,2,,,,,,,,1,,,78,0
123096,note_on,0,0,2,,,,,,,,1,,,74,0
123096,note_on,96,0,9,,,,,,,,7,,,78,0
123096,note_on,96,0,10,,,,,,,,8,,,66,0
123096,note_on,96,0,3,,,,,,,,2,,,62,0
123096,note_on,96,0,1,,,,,,,,0,,,78,0
123096,note_on,96,0,12,,,,,,,,11,,,62,0
123096,note_on,96,0,13,,,,,,,,12,,,50,0
123120,note_on,24,0,13,,,,,,,,12,,,47,80
123120,note_on,24,0,12,,,,,,,,11,,,59,80
123120,note_on,24,0,3,,,,,,,,2,,,59,80
123216,note_on,96,0,13,,,,,,,,12,,,47,0
123216,note_on,96,0,3,,,,,,,,2,,,59,0
123216,note_on,96,0,12,,,,,,,,11,,,59,0
123240,note_on,24,0,3,,,,,,,,2,,,55,80
123240,note_on,144,0,9,,,,,,,,7,,,79,80
123240,note_on,0,0,2,,,,,,,,1,,,76,80
123240,note_on,144,0,1,,,,,,,,0,,,79,80
123240,note_on,144,0,2,,,,,,,,1,,,79,80
123240,note_on,144,0,10,,,,,,,,8,,,67,80
123240,note_on,144,0,11,,,,,,,,10,,,64,80
123240,note_on,24,0,12,,,,,,,,11,,,55,80
123240,note_on,24,0,13,,,,,,,,12,,,43,80
123336,note_on,96,0,11,,,,,,,,10,,,64,0
123336,note_on,96,0,1,,,,,,,,0,,,79,0
123336,note_on,96,0,9,,,,,,,,7,,,79,0
123336,note_on,96,0,10,,,,,,,,8,,,67,0
123336,note_on,96,0,12,,,,,,,,11,,,55,0
123336,note_on,96,0,2,,,,,,,,1,,,76,0
123336,note_on,0,0,2,,,,,,,,1,,,79,0
123336,note_on,96,0,13,,,,,,,,12,,,43,0
123336,note_on,96,0,3,,,,,,,,2,,,55,0
123360,note_on,288,0,5,,,,,,,,4,,,69,80
123360,note_on,0,0,5,,,,,,,,4,,,57,80
123360,note_on,24,0,9,,,,,,,,7,,,78,80
123360,note_on,288,0,6,,,,,,,,5,,,45,80
123360,note_on,24,0,10,,,,,,,,8,,,66,80
123360,note_on,24,0,11,,,,,,,,10,,,62,80
123360,note_on,0,0,2,,,,,,,,1,,,78,80
123360,note_on,24,0,1,,,,,,,,0,,,78,80
123360,note_on,24,0,2,,,,,,,,1,,,74,80
123456,note_on,0,0,2,,,,,,,,1,,,74,0
123456,note_on,96,0,2,,,,,,,,1,,,78,0
123456,note_on,96,0,1,,,,,,,,0,,,78,0
123456,note_on,96,0,11,,,,,,,,10,,,62,0
123456,note_on,96,0,9,,,,,,,,7,,,78,0
123456,note_on,96,0,10,,,,,,,,8,,,66,0
123480,note_on,24,0,9,,,,,,,,7,,,76,80
123480,note_on,144,0,3,,,,,,,,2,,,57,80
123480,note_on,144,0,12,,,,,,,,11,,,57,80
123480,note_on,24,0,10,,,,,,,,8,,,64,80
123480,note_on,24,0,1,,,,,,,,0,,,76,80
123480,note_on,24,0,11,,,,,,,,10,,,61,80
123480,note_on,0,0,2,,,,,,,,1,,,73,80
123480,note_on,24,0,2,,,,,,,,1,,,76,80
123480,note_on,144,0,13,,,,,,,,12,,,45,80
123552,note_on,0,0,5,,,,,,,,4,,,69,0
123552,note_on,192,0,5,,,,,,,,4,,,57,0
123552,note_on,192,0,6,,,,,,,,5,,,45,0
123576,note_on,96,0,9,,,,,,,,7,,,76,0
123576,note_on,96,0,11,,,,,,,,10,,,61,0
123576,note_on,96,0,10,,,,,,,,8,,,64,0
123576,note_on,96,0,13,,,,,,,,12,,,45,0
123576,note_on,96,0,12,,,,,,,,11,,,57,0
123576,note_on,0,0,2,,,,,,,,1,,,76,0
123576,note_on,96,0,1,,,,,,,,0,,,76,0
123576,note_on,96,0,2,,,,,,,,1,,,73,0
123576,note_on,96,0,3,,,,,,,,2,,,57,0
123600,note_on,24,0,12,,,,,,,,11,,,56,80
123600,note_on,24,0,3,,,,,,,,2,,,56,80
123600,note_on,24,0,13,,,,,,,,12,,,44,80
123696,note_on,96,0,3,,,,,,,,2,,,56,0
123696,note_on,96,0,12,,,,,,,,11,,,56,0
123696,note_on,96,0,13,,,,,,,,12,,,44,0
123720,note_on,24,0,13,,,,,,,,12,,,43,80
123720,note_on,144,0,11,,,,,,,,10,,,61,80
123720,note_on,24,0,3,,,,,,,,2,,,55,80
123720,note_on,144,0,9,,,,,,,,7,,,69,80
123720,note_on,144,0,10,,,,,,,,8,,,64,80
123720,note_on,144,0,1,,,,,,,,0,,,69,80
123720,note_on,24,0,12,,,,,,,,11,,,55,80
123720,note_on,144,0,2,,,,,,,,1,,,69,80
123744,note_on,0,0,4,,,,,,,,3,,,57,0
123744,note_on,1824,0,4,,,,,,,,3,,,45,0
123816,note_on,96,0,1,,,,,,,,0,,,69,0
123816,note_on,96,0,12,,,,,,,,11,,,55,0
123816,note_on,96,0,13,,,,,,,,12,,,43,0
123816,note_on,96,0,3,,,,,,,,2,,,55,0
123816,note_on,96,0,9,,,,,,,,7,,,69,0
123816,note_on,96,0,11,,,,,,,,10,,,61,0
123816,note_on,96,0,10,,,,,,,,8,,,64,0
123840,note_on,24,0,10,,,,,,,,8,,,69,80
123840,note_on,120,0,2,,,,,,,,1,,,74,80
123840,note_on,24,0,12,,,,,,,,11,,,54,80
123840,note_on,24,0,9,,,,,,,,7,,,74,80
123840,note_on,0,0,5,,,,,,,,4,,,74,80
123840,note_on,288,0,5,,,,,,,,4,,,62,80
123840,note_on,24,0,13,,,,,,,,12,,,42,80
123840,note_on,0,0,4,,,,,,,,3,,,62,80
123840,note_on,288,0,6,,,,,,,,5,,,50,80
123840,note_on,24,0,1,,,,,,,,0,,,74,80
123840,note_on,24,0,11,,,,,,,,10,,,62,80
123840,note_on,96,0,4,,,,,,,,3,,,50,80
123840,note_on,24,0,3,,,,,,,,2,,,54,80
123888,note_on,48,0,10,,,,,,,,8,,,69,0
123888,note_on,48,0,11,,,,,,,,10,,,62,0
123900,note_on,12,0,10,,,,,,,,8,,,69,80
123900,note_on,12,0,11,,,,,,,,10,,,62,80
123936,note_on,96,0,13,,,,,,,,12,,,42,0
123936,note_on,96,0,12,,,,,,,,11,,,54,0
123948,note_on,48,0,10,,,,,,,,8,,,69,0
123948,note_on,48,0,11,,,,,,,,10,,,62,0
123960,note_on,24,0,13,,,,,,,,12,,,42,80
123960,note_on,12,0,11,,,,,,,,10,,,62,80
123960,note_on,24,0,12,,,,,,,,11,,,54,80
123960,note_on,12,0,10,,,,,,,,8,,,69,80
124008,note_on,48,0,10,,,,,,,,8,,,69,0
124008,note_on,48,0,11,,,,,,,,10,,,62,0
124020,note_on,12,0,10,,,,,,,,8,,,69,80
124020,note_on,12,0,11,,,,,,,,10,,,62,80
124032,note_on,192,0,6,,,,,,,,5,,,50,0
124032,note_on,192,0,3,,,,,,,,2,,,54,0
124032,note_on,192,0,9,,,,,,,,7,,,74,0
124032,note_on,192,0,5,,,,,,,,4,,,74,0
124032,note_on,0,0,5,,,,,,,,4,,,62,0
124056,note_on,96,0,13,,,,,,,,12,,,42,0
124056,note_on,96,0,12,,,,,,,,11,,,54,0
124068,note_on,48,0,10,,,,,,,,8,,,69,0
124068,note_on,48,0,11,,,,,,,,10,,,62,0
124080,note_on,12,0,11,,,,,,,,10,,,69,80
124080,note_on,0,0,3,,,,,,,,2,,,62,80
124080,note_on,24,0,13,,,,,,,,12,,,42,80
124080,note_on,24,0,12,,,,,,,,11,,,54,80
124080,note_on,12,0,10,,,,,,,,8,,,74,80
124080,note_on,48,0,3,,,,,,,,2,,,57,80
124080,note_on,48,0,9,,,,,,,,7,,,86,80
124128,note_on,48,0,11,,,,,,,,10,,,69,0
124128,note_on,48,0,10,,,,,,,,8,,,74,0
124140,note_on,12,0,10,,,,,,,,8,,,74,80
124140,note_on,12,0,11,,,,,,,,10,,,69,80
124176,note_on,96,0,12,,,,,,,,11,,,54,0
124176,note_on,96,0,13,,,,,,,,12,,,42,0
124188,note_on,48,0,11,,,,,,,,10,,,69,0
124188,note_on,48,0,10,,,,,,,,8,,,74,0
124200,note_on,12,0,10,,,,,,,,8,,,74,80
124200,note_on,12,0,11,,,,,,,,10,,,69,80
124200,note_on,24,0,13,,,,,,,,12,,,42,80
124200,note_on,24,0,12,,,,,,,,11,,,54,80
124224,note_on,384,0,4,,,,,,,,3,,,62,0
124224,note_on,0,0,4,,,,,,,,3,,,50,0
124224,note_on,384,0,1,,,,,,,,0,,,74,0
124224,note_on,384,0,2,,,,,,,,1,,,69,0
124248,note_on,48,0,10,,,,,,,,8,,,74,0
124248,note_on,48,0,11,,,,,,,,10,,,69,0
124260,note_on,12,0,10,,,,,,,,8,,,74,80
124260,note_on,12,0,11,,,,,,,,10,,,69,80
124272,note_on,0,0,3,,,,,,,,2,,,57,0
124272,note_on,192,0,9,,,,,,,,7,,,86,0
124272,note_on,192,0,3,,,,,,,,2,,,62,0
124296,note_on,96,0,13,,,,,,,,12,,,42,0
124296,note_on,96,0,12,,,,,,,,11,,,54,0
124308,note_on,48,0,11,,,,,,,,10,,,69,0
124308,note_on,48,0,10,,,,,,,,8,,,74,0
124320,note_on,12,0,10,,,,,,,,8,,,74,80
124320,note_on,24,0,12,,,,,,,,11,,,55,80
124320,note_on,24,0,13,,,,,,,,12,,,43,80
124320,note_on,96,0,2,,,,,,,,1,,,71,80
124320,note_on,48,0,9,,,,,,,,7,,,83,80
124320,note_on,96,0,1,,,,,,,,0,,,83,80
124320,note_on,96,0,4,,,,,,,,3,,,64,80
124320,note_on,0,0,3,,,,,,,,2,,,59,80
124320,note_on,0,0,4,,,,,,,,3,,,62,80
124320,note_on,288,0,6,,,,,,,,5,,,50,80
124320,note_on,12,0,11,,,,,,,,10,,,67,80
124320,note_on,48,0,3,,,,,,,,2,,,64,80
124320,note_on,288,0,5,,,,,,,,4,,,62,80
124320,note_on,0,0,5,,,,,,,,4,,,74,80
124368,note_on,48,0,11,,,,,,,,10,,,67,0
124368,note_on,48,0,10,,,,,,,,8,,,74,0
124380,note_on,12,0,11,,,,,,,,10,,,67,80
124380,note_on,12,0,10,,,,,,,,8,,,74,80
124416,note_on,96,0,12,,,,,,,,11,,,55,0
124416,note_on,96,0,9,,,,,,,,7,,,83,0
124416,note_on,96,0,13,,,,,,,,12,,,43,0
124428,note_on,48,0,10,,,,,,,,8,,,74,0
124428,note_on,48,0,11,,,,,,,,10,,,67,0
124440,note_on,12,0,11,,,,,,,,10,,,67,80
124440,note_on,12,0,10,,,,,,,,8,,,74,80
124440,note_on,24,0,9,,,,,,,,7,,,83,80
124440,note_on,24,0,12,,,,,,,,11,,,55,80
124440,note_on,24,0,13,,,,,,,,12,,,43,80
124488,note_on,48,0,10,,,,,,,,8,,,74,0
124488,note_on,48,0,11,,,,,,,,10,,,67,0
124500,note_on,12,0,11,,,,,,,,10,,,67,80
124500,note_on,12,0,10,,,,,,,,8,,,74,80
124512,note_on,0,0,5,,,,,,,,4,,,62,0
124512,note_on,192,0,6,,,,,,,,5,,,50,0
124512,note_on,192,0,5,,,,,,,,4,,,74,0
124536,note_on,96,0,12,,,,,,,,11,,,55,0
124536,note_on,96,0,13,,,,,,,,12,,,43,0
124548,note_on,48,0,11,,,,,,,,10,,,67,0
124548,note_on,48,0,10,,,,,,,,8,,,74,0
124560,note_on,12,0,11,,,,,,,,10,,,67,80
124560,note_on,24,0,12,,,,,,,,11,,,55,80
124560,note_on,24,0,13,,,,,,,,12,,,43,80
124560,note_on,12,0,10,,,,,,,,8,,,71,80
124608,note_on,48,0,11,,,,,,,,10,,,67,0
124608,note_on,48,0,10,,,,,,,,8,,,71,0
124620,note_on,12,0,11,,,,,,,,10,,,67,80
124620,note_on,12,0,10,,,,,,,,8,,,71,80
124632,note_on,192,0,9,,,,,,,,7,,,83,0
124656,note_on,96,0,12,,,,,,,,11,,,55,0
124656,note_on,96,0,13,,,,,,,,12,,,43,0
124668,note_on,48,0,11,,,,,,,,10,,,67,0
124668,note_on,48,0,10,,,,,,,,8,,,71,0
124680,note_on,48,0,9,,,,,,,,7,,,79,80
124680,note_on,24,0,12,,,,,,,,11,,,55,80
124680,note_on,12,0,10,,,,,,,,8,,,71,80
124680,note_on,12,0,11,,,,,,,,10,,,67,80
124680,note_on,24,0,13,,,,,,,,12,,,43,80
124704,note_on,0,0,3,,,,,,,,2,,,64,0
124704,note_on,384,0,2,,,,,,,,1,,,71,0
124704,note_on,0,0,2,,,,,,,,1,,,74,0
124704,note_on,384,0,3,,,,,,,,2,,,59,0
124704,note_on,384,0,4,,,,,,,,3,,,62,0
124704,note_on,384,0,1,,,,,,,,0,,,83,0
124704,note_on,0,0,4,,,,,,,,3,,,64,0
124728,note_on,48,0,10,,,,,,,,8,,,71,0
124728,note_on,48,0,9,,,,,,,,7,,,79,0
124728,note_on,48,0,11,,,,,,,,10,,,67,0
124740,note_on,12,0,9,,,,,,,,7,,,76,80
124740,note_on,12,0,11,,,,,,,,10,,,67,80
124740,note_on,12,0,10,,,,,,,,8,,,71,80
124776,note_on,96,0,12,,,,,,,,11,,,55,0
124776,note_on,96,0,13,,,,,,,,12,,,43,0
124788,note_on,48,0,9,,,,,,,,7,,,76,0
124788,note_on,48,0,11,,,,,,,,10,,,67,0
124788,note_on,48,0,10,,,,,,,,8,,,71,0
124800,note_on,96,0,4,,,,,,,,3,,,64,80
124800,note_on,0,0,4,,,,,,,,3,,,57,80
124800,note_on,12,0,9,,,,,,,,7,,,79,80
124800,note_on,288,0,5,,,,,,,,4,,,69,80
124800,note_on,12,0,11,,,,,,,,10,,,61,80
124800,note_on,96,0,3,,,,,,,,2,,,55,80
124800,note_on,0,0,3,,,,,,,,2,,,61,80
124800,note_on,24,0,12,,,,,,,,11,,,57,80
124800,note_on,288,0,6,,,,,,,,5,,,45,80
124800,note_on,96,0,2,,,,,,,,1,,,79,80
124800,note_on,12,0,10,,,,,,,,8,,,64,80
124800,note_on,96,0,1,,,,,,,,0,,,85,80
124800,note_on,24,0,13,,,,,,,,12,,,45,80
124800,note_on,0,0,2,,,,,,,,1,,,76,80
124848,note_on,48,0,10,,,,,,,,8,,,64,0
124848,note_on,48,0,11,,,,,,,,10,,,61,0
124860,note_on,12,0,11,,,,,,,,10,,,61,80
124860,note_on,12,0,10,,,,,,,,8,,,64,80
124896,note_on,96,0,13,,,,,,,,12,,,45,0
124896,note_on,96,0,9,,,,,,,,7,,,79,0
124896,note_on,96,0,12,,,,,,,,11,,,57,0
124908,note_on,48,0,11,,,,,,,,10,,,61,0
124908,note_on,48,0,10,,,,,,,,8,,,64,0
124920,note_on,12,0,11,,,,,,,,10,,,61,80
124920,note_on,24,0,13,,,,,,,,12,,,45,80
124920,note_on,24,0,12,,,,,,,,11,,,57,80
124920,note_on,12,0,10,,,,,,,,8,,,64,80
124920,note_on,24,0,9,,,,,,,,7,,,79,80
124968,note_on,48,0,11,,,,,,,,10,,,61,0
124968,note_on,48,0,10,,,,,,,,8,,,64,0
124980,note_on,12,0,11,,,,,,,,10,,,61,80
124980,note_on,12,0,10,,,,,,,,8,,,64,80
124992,note_on,192,0,5,,,,,,,,4,,,69,0
124992,note_on,192,0,6,,,,,,,,5,,,45,0
125016,note_on,96,0,13,,,,,,,,12,,,45,0
125016,note_on,96,0,12,,,,,,,,11,,,57,0
125028,note_on,48,0,11,,,,,,,,10,,,61,0
125028,note_on,48,0,10,,,,,,,,8,,,64,0
125040,note_on,12,0,11,,,,,,,,10,,,64,80
125040,note_on,48,0,5,,,,,,,,4,,,69,80
125040,note_on,24,0,13,,,,,,,,12,,,45,80
125040,note_on,24,0,12,,,,,,,,11,,,57,80
125040,note_on,48,0,6,,,,,,,,5,,,45,80
125040,note_on,12,0,10,,,,,,,,8,,,67,80
125088,note_on,48,0,10,,,,,,,,8,,,67,0
125088,note_on,48,0,11,,,,,,,,10,,,64,0
125100,note_on,12,0,10,,,,,,,,8,,,67,80
125100,note_on,12,0,11,,,,,,,,10,,,64,80
125112,note_on,192,0,9,,,,,,,,7,,,79,0
125136,note_on,96,0,13,,,,,,,,12,,,45,0
125136,note_on,96,0,6,,,,,,,,5,,,45,0
125136,note_on,96,0,12,,,,,,,,11,,,57,0
125136,note_on,96,0,5,,,,,,,,4,,,69,0
125148,note_on,48,0,10,,,,,,,,8,,,67,0
125148,note_on,48,0,11,,,,,,,,10,,,64,0
125160,note_on,12,0,10,,,,,,,,8,,,67,80
125160,note_on,24,0,6,,,,,,,,5,,,45,80
125160,note_on,24,0,5,,,,,,,,4,,,69,80
125160,note_on,48,0,9,,,,,,,,7,,,76,80
125160,note_on,24,0,12,,,,,,,,11,,,57,80
125160,note_on,12,0,11,,,,,,,,10,,,64,80
125160,note_on,24,0,13,,,,,,,,12,,,45,80
125184,note_on,0,0,3,,,,,,,,2,,,55,0
125184,note_on,0,0,4,,,,,,,,3,,,64,0
125184,note_on,384,0,3,,,,,,,,2,,,61,0
125184,note_on,384,0,2,,,,,,,,1,,,76,0
125184,note_on,0,0,2,,,,,,,,1,,,79,0
125184,note_on,384,0,4,,,,,,,,3,,,57,0
125184,note_on,384,0,1,,,,,,,,0,,,85,0
125208,note_on,48,0,9,,,,,,,,7,,,76,0
125208,note_on,48,0,10,,,,,,,,8,,,67,0
125208,note_on,48,0,11,,,,,,,,10,,,64,0
125220,note_on,12,0,9,,,,,,,,7,,,73,80
125220,note_on,12,0,10,,,,,,,,8,,,67,80
125220,note_on,12,0,11,,,,,,,,10,,,64,80
125256,note_on,96,0,5,,,,,,,,4,,,69,0
125256,note_on,96,0,13,,,,,,,,12,,,45,0
125256,note_on,96,0,12,,,,,,,,11,,,57,0
125256,note_on,96,0,6,,,,,,,,5,,,45,0
125268,note_on,48,0,10,,,,,,,,8,,,67,0
125268,note_on,48,0,11,,,,,,,,10,,,64,0
125268,note_on,48,0,9,,,,,,,,7,,,73,0
125280,note_on,0,0,5,,,,,,,,4,,,69,80
125280,note_on,0,0,3,,,,,,,,2,,,54,80
125280,note_on,0,0,2,,,,,,,,1,,,78,80
125280,note_on,96,0,1,,,,,,,,0,,,86,80
125280,note_on,24,0,13,,,,,,,,12,,,38,80
125280,note_on,0,0,4,,,,,,,,3,,,62,80
125280,note_on,96,0,4,,,,,,,,3,,,54,80
125280,note_on,96,0,3,,,,,,,,2,,,62,80
125280,note_on,96,0,2,,,,,,,,1,,,74,80
125280,note_on,12,0,11,,,,,,,,10,,,62,80
125280,note_on,24,0,5,,,,,,,,4,,,66,80
125280,note_on,12,0,9,,,,,,,,7,,,74,80
125280,note_on,24,0,12,,,,,,,,11,,,50,80
125280,note_on,24,0,6,,,,,,,,5,,,50,80
125280,note_on,12,0,10,,,,,,,,8,,,66,80
125472,note_on,192,0,2,,,,,,,,1,,,78,0
125472,note_on,192,0,9,,,,,,,,7,,,74,0
125472,note_on,192,0,4,,,,,,,,3,,,62,0
125472,note_on,0,0,4,,,,,,,,3,,,54,0
125472,note_on,192,0,13,,,,,,,,12,,,38,0
125472,note_on,0,0,2,,,,,,,,1,,,74,0
125472,note_on,192,0,6,,,,,,,,5,,,50,0
125472,note_on,192,0,10,,,,,,,,8,,,66,0
125472,note_on,192,0,11,,,,,,,,10,,,62,0
125472,note_on,192,0,3,,,,,,,,2,,,54,0
125472,note_on,0,0,3,,,,,,,,2,,,62,0
125472,note_on,192,0,12,,,,,,,,11,,,50,0
125472,note_on,0,0,5,,,,,,,,4,,,66,0
125472,note_on,192,0,5,,,,,,,,4,,,69,0
125472,note_on,192,0,1,,,,,,,,0,,,86,0
125640,note_on,168,0,3,,,,,,,,2,,,45,80
125640,note_on,168,0,12,,,,,,,,11,,,45,80
125640,note_on,168,0,11,,,,,,,,10,,,57,80
125640,note_on,168,0,2,,,,,,,,1,,,69,80
125640,note_on,168,0,13,,,,,,,,12,,,33,80
125640,note_on,168,0,10,,,,,,,,8,,,57,80
125640,note_on,168,0,9,,,,,,,,7,,,57,80
125640,note_on,168,0,1,,,,,,,,0,,,69,80
125688,note_on,48,0,1,,,,,,,,0,,,69,0
125688,note_on,48,0,11,,,,,,,,10,,,57,0
125688,note_on,48,0,12,,,,,,,,11,,,45,0
125688,note_on,48,0,2,,,,,,,,1,,,69,0
125688,note_on,48,0,3,,,,,,,,2,,,45,0
125688,note_on,48,0,13,,,,,,,,12,,,33,0
125688,note_on,48,0,9,,,,,,,,7,,,57,0
125688,note_on,48,0,10,,,,,,,,8,,,57,0
125700,note_on,12,0,1,,,,,,,,0,,,71,80
125700,note_on,12,0,12,,,,,,,,11,,,47,80
125700,note_on,12,0,11,,,,,,,,10,,,59,80
125700,note_on,12,0,10,,,,,,,,8,,,59,80
125700,note_on,12,0,2,,,,,,,,1,,,71,80
125700,note_on,12,0,3,,,,,,,,2,,,47,80
125700,note_on,12,0,13,,,,,,,,12,,,35,80
125700,note_on,12,0,9,,,,,,,,7,,,59,80
125724,note_on,24,0,9,,,,,,,,7,,,59,0
125724,note_on,24,0,12,,,,,,,,11,,,47,0
125724,note_on,24,0,2,,,,,,,,1,,,71,0
125724,note_on,24,0,10,,,,,,,,8,,,59,0
125724,note_on,24,0,1,,,,,,,,0,,,71,0
125724,note_on,24,0,3,,,,,,,,2,,,47,0
125724,note_on,24,0,13,,,,,,,,12,,,35,0
125724,note_on,24,0,11,,,,,,,,10,,,59,0
125730,note_on,6,0,10,,,,,,,,8,,,61,80
125730,note_on,6,0,3,,,,,,,,2,,,49,80
125730,note_on,6,0,11,,,,,,,,10,,,61,80
125730,note_on,6,0,12,,,,,,,,11,,,49,80
125730,note_on,6,0,9,,,,,,,,7,,,61,80
125730,note_on,6,0,2,,,,,,,,1,,,73,80
125730,note_on,6,0,13,,,,,,,,12,,,37,80
125730,note_on,6,0,1,,,,,,,,0,,,73,80
125754,note_on,24,0,9,,,,,,,,7,,,61,0
125754,note_on,24,0,12,,,,,,,,11,,,49,0
125754,note_on,24,0,1,,,,,,,,0,,,73,0
125754,note_on,24,0,11,,,,,,,,10,,,61,0
125754,note_on,24,0,3,,,,,,,,2,,,49,0
125754,note_on,24,0,2,,,,,,,,1,,,73,0
125754,note_on,24,0,10,,,,,,,,8,,,61,0
125754,note_on,24,0,13,,,,,,,,12,,,37,0
125760,note_on,288,0,6,,,,,,,,5,,,50,80
125760,note_on,6,0,3,,,,,,,,2,,,50,80
125760,note_on,6,0,1,,,,,,,,0,,,74,80
125760,note_on,6,0,9,,,,,,,,7,,,62,80
125760,note_on,6,0,11,,,,,,,,10,,,62,80
125760,note_on,6,0,2,,,,,,,,1,,,74,80
125760,note_on,6,0,13,,,,,,,,12,,,38,80
125760,note_on,288,0,5,,,,,,,,4,,,62,80
125760,note_on,6,0,12,,,,,,,,11,,,50,80
125760,note_on,6,0,10,,,,,,,,8,,,62,80
125760,note_on,288,0,4,,,,,,,,3,,,50,80
125760,note_on,0,0,4,,,,,,,,3,,,62,80
125952,note_on,192,0,9,,,,,,,,7,,,62,0
125952,note_on,192,0,4,,,,,,,,3,,,62,0
125952,note_on,0,0,4,,,,,,,,3,,,50,0
125952,note_on,192,0,11,,,,,,,,10,,,62,0
125952,note_on,192,0,3,,,,,,,,2,,,50,0
125952,note_on,192,0,13,,,,,,,,12,,,38,0
125952,note_on,192,0,1,,,,,,,,0,,,74,0
125952,note_on,192,0,2,,,,,,,,1,,,74,0
125952,note_on,192,0,12,,,,,,,,11,,,50,0
125952,note_on,192,0,10,,,,,,,,8,,,62,0
125952,note_on,192,0,6,,,,,,,,5,,,50,0
125952,note_on,192,0,5,,,,,,,,4,,,62,0
126000,note_on,48,0,11,,,,,,,,10,,,66,80
126000,note_on,48,0,2,,,,,,,,1,,,78,80
126000,note_on,48,0,9,,,,,,,,7,,,66,80
126000,note_on,48,0,6,,,,,,,,5,,,50,80
126000,note_on,48,0,12,,,,,,,,11,,,54,80
126000,note_on,48,0,5,,,,,,,,4,,,66,80
126000,note_on,48,0,3,,,,,,,,2,,,54,80
126000,note_on,48,0,1,,,,,,,,0,,,78,80
126000,note_on,48,0,4,,,,,,,,3,,,66,80
126000,note_on,0,0,4,,,,,,,,3,,,54,80
126000,note_on,48,0,10,,,,,,,,8,,,66,80
126000,note_on,48,0,13,,,,,,,,12,,,42,80
126192,note_on,192,0,6,,,,,,,,5,,,50,0
126192,note_on,192,0,5,,,,,,,,4,,,66,0
126192,note_on,192,0,12,,,,,,,,11,,,54,0
126192,note_on,192,0,10,,,,,,,,8,,,66,0
126192,note_on,192,0,1,,,,,,,,0,,,78,0
126192,note_on,0,0,4,,,,,,,,3,,,66,0
126192,note_on,192,0,4,,,,,,,,3,,,54,0
126192,note_on,192,0,9,,,,,,,,7,,,66,0
126192,note_on,192,0,11,,,,,,,,10,,,66,0
126192,note_on,192,0,2,,,,,,,,1,,,78,0
126192,note_on,192,0,3,,,,,,,,2,,,54,0
126192,note_on,192,0,13,,,,,,,,12,,,42,0
126240,note_on,48,0,4,,,,,,,,3,,,57,80
126240,note_on,0,0,4,,,,,,,,3,,,69,80
126240,note_on,48,0,11,,,,,,,,10,,,69,80
126240,note_on,48,0,5,,,,,,,,4,,,69,80
126240,note_on,48,0,13,,,,,,,,12,,,45,80
126240,note_on,48,0,6,,,,,,,,5,,,45,80
126240,note_on,48,0,12,,,,,,,,11,,,57,80
126240,note_on,48,0,10,,,,,,,,8,,,69,80
126240,note_on,48,0,3,,,,,,,,2,,,57,80
126240,note_on,48,0,9,,,,,,,,7,,,69,80
126240,note_on,48,0,1,,,,,,,,0,,,81,80
126240,note_on,48,0,2,,,,,,,,1,,,81,80
126432,note_on,192,0,5,,,,,,,,4,,,69,0
126432,note_on,192,0,13,,,,,,,,12,,,45,0
126432,note_on,192,0,12,,,,,,,,11,,,57,0
126432,note_on,192,0,3,,,,,,,,2,,,57,0
126432,note_on,192,0,1,,,,,,,,0,,,81,0
126432,note_on,192,0,6,,,,,,,,5,,,45,0
126432,note_on,192,0,11,,,,,,,,10,,,69,0
126432,note_on,0,0,4,,,,,,,,3,,,57,0
126432,note_on,192,0,2,,,,,,,,1,,,81,0
126432,note_on,192,0,10,,,,,,,,8,,,69,0
126432,note_on,192,0,4,,,,,,,,3,,,69,0
126432,note_on,192,0,9,,,,,,,,7,,,69,0
126480,note_on,48,0,10,,,,,,,,8,,,78,80
126480,note_on,48,0,9,,,,,,,,7,,,81,80
126528,note_on,48,0,10,,,,,,,,8,,,78,0
126528,note_on,48,0,9,,,,,,,,7,,,81,0
126540,note_on,12,0,10,,,,,,,,8,,,76,80
126540,note_on,12,0,9,,,,,,,,7,,,79,80
126588,note_on,48,0,10,,,,,,,,8,,,76,0
126588,note_on,48,0,9,,,,,,,,7,,,79,0
126600,note_on,12,0,10,,,,,,,,8,,,74,80
126600,note_on,12,0,9,,,,,,,,7,,,78,80
126648,note_on,48,0,9,,,,,,,,7,,,78,0
126648,note_on,48,0,10,,,,,,,,8,,,74,0
126660,note_on,12,0,10,,,,,,,,8,,,73,80
126660,note_on,12,0,9,,,,,,,,7,,,76,80
126708,note_on,48,0,10,,,,,,,,8,,,73,0
126708,note_on,48,0,9,,,,,,,,7,,,76,0
126720,note_on,0,0,4,,,,,,,,3,,,50,80
126720,note_on,288,0,4,,,,,,,,3,,,62,80
126720,note_on,12,0,10,,,,,,,,8,,,74,80
126720,note_on,288,0,2,,,,,,,,1,,,74,80
126720,note_on,288,0,3,,,,,,,,2,,,50,80
126720,note_on,288,0,12,,,,,,,,11,,,50,80
126720,note_on,288,0,11,,,,,,,,10,,,62,80
126720,note_on,288,0,13,,,,,,,,12,,,38,80
126720,note_on,288,0,5,,,,,,,,4,,,62,80
126720,note_on,288,0,1,,,,,,,,0,,,74,80
126720,note_on,288,0,6,,,,,,,,5,,,50,80
126720,note_on,12,0,9,,,,,,,,7,,,74,80
126816,note_on,96,0,1,,,,,,,,0,,,74,0
126816,note_on,96,0,10,,,,,,,,8,,,74,0
126816,note_on,96,0,9,,,,,,,,7,,,74,0
126816,note_on,96,0,5,,,,,,,,4,,,62,0
126816,note_on,96,0,11,,,,,,,,10,,,62,0
126816,note_on,0,0,4,,,,,,,,3,,,62,0
126816,note_on,96,0,2,,,,,,,,1,,,74,0
126816,note_on,96,0,12,,,,,,,,11,,,50,0
126816,note_on,96,0,13,,,,,,,,12,,,38,0
126816,note_on,96,0,3,,,,,,,,2,,,50,0
126816,note_on,96,0,4,,,,,,,,3,,,50,0
126840,note_on,24,0,3,,,,,,,,2,,,54,80
126840,note_on,24,0,4,,,,,,,,3,,,66,80
126840,note_on,24,0,10,,,,,,,,8,,,66,80
126840,note_on,24,0,1,,,,,,,,0,,,78,80
126840,note_on,24,0,13,,,,,,,,12,,,42,80
126840,note_on,0,0,4,,,,,,,,3,,,54,80
126840,note_on,24,0,2,,,,,,,,1,,,78,80
126840,note_on,24,0,9,,,,,,,,7,,,66,80
126840,note_on,24,0,11,,,,,,,,10,,,66,80
126840,note_on,24,0,12,,,,,,,,11,,,54,80
126840,note_on,24,0,5,,,,,,,,4,,,66,80
126912,note_on,192,0,6,,,,,,,,5,,,50,0
126936,note_on,96,0,13,,,,,,,,12,,,42,0
126936,note_on,96,0,10,,,,,,,,8,,,66,0
126936,note_on,0,0,4,,,,,,,,3,,,66,0
126936,note_on,96,0,12,,,,,,,,11,,,54,0
126936,note_on,96,0,2,,,,,,,,1,,,78,0
126936,note_on,96,0,1,,,,,,,,0,,,78,0
126936,note_on,96,0,3,,,,,,,,2,,,54,0
126936,note_on,96,0,5,,,,,,,,4,,,66,0
126936,note_on,96,0,9,,,,,,,,7,,,66,0
126936,note_on,96,0,11,,,,,,,,10,,,66,0
126936,note_on,96,0,4,,,,,,,,3,,,54,0
126960,note_on,24,0,10,,,,,,,,8,,,69,80
126960,note_on,24,0,1,,,,,,,,0,,,81,80
126960,note_on,24,0,13,,,,,,,,12,,,45,80
126960,note_on,24,0,9,,,,,,,,7,,,69,80
126960,note_on,0,0,4,,,,,,,,3,,,69,80
126960,note_on,24,0,4,,,,,,,,3,,,57,80
126960,note_on,24,0,12,,,,,,,,11,,,57,80
126960,note_on,48,0,6,,,,,,,,5,,,45,80
126960,note_on,24,0,11,,,,,,,,10,,,69,80
126960,note_on,24,0,5,,,,,,,,4,,,69,80
126960,note_on,24,0,2,,,,,,,,1,,,81,80
126960,note_on,24,0,3,,,,,,,,2,,,57,80
127056,note_on,96,0,1,,,,,,,,0,,,81,0
127056,note_on,96,0,2,,,,,,,,1,,,81,0
127056,note_on,96,0,11,,,,,,,,10,,,69,0
127056,note_on,96,0,6,,,,,,,,5,,,45,0
127056,note_on,96,0,9,,,,,,,,7,,,69,0
127056,note_on,96,0,3,,,,,,,,2,,,57,0
127056,note_on,96,0,5,,,,,,,,4,,,69,0
127056,note_on,96,0,13,,,,,,,,12,,,45,0
127056,note_on,0,0,4,,,,,,,,3,,,57,0
127056,note_on,96,0,4,,,,,,,,3,,,69,0
127056,note_on,96,0,12,,,,,,,,11,,,57,0
127056,note_on,96,0,10,,,,,,,,8,,,69,0
127080,note_on,24,0,12,,,,,,,,11,,,57,80
127080,note_on,24,0,5,,,,,,,,4,,,69,80
127080,note_on,24,0,1,,,,,,,,0,,,81,80
127080,note_on,0,0,4,,,,,,,,3,,,69,80
127080,note_on,24,0,4,,,,,,,,3,,,57,80
127080,note_on,24,0,11,,,,,,,,10,,,69,80
127080,note_on,24,0,6,,,,,,,,5,,,45,80
127080,note_on,24,0,3,,,,,,,,2,,,57,80
127080,note_on,24,0,10,,,,,,,,8,,,69,80
127080,note_on,24,0,9,,,,,,,,7,,,69,80
127080,note_on,24,0,2,,,,,,,,1,,,81,80
127080,note_on,24,0,13,,,,,,,,12,,,45,80
127176,note_on,96,0,11,,,,,,,,10,,,69,0
127176,note_on,96,0,10,,,,,,,,8,,,69,0
127176,note_on,0,0,4,,,,,,,,3,,,57,0
127176,note_on,96,0,3,,,,,,,,2,,,57,0
127176,note_on,96,0,6,,,,,,,,5,,,45,0
127176,note_on,96,0,1,,,,,,,,0,,,81,0
127176,note_on,96,0,13,,,,,,,,12,,,45,0
127176,note_on,96,0,9,,,,,,,,7,,,69,0
127176,note_on,96,0,2,,,,,,,,1,,,81,0
127176,note_on,96,0,5,,,,,,,,4,,,69,0
127176,note_on,96,0,12,,,,,,,,11,,,57,0
127176,note_on,96,0,4,,,,,,,,3,,,69,0
127200,note_on,24,0,11,,,,,,,,10,,,69,80
127200,note_on,24,0,3,,,,,,,,2,,,57,80
127200,note_on,24,0,10,,,,,,,,8,,,69,80
127200,note_on,24,0,2,,,,,,,,1,,,81,80
127200,note_on,24,0,4,,,,,,,,3,,,69,80
127200,note_on,24,0,12,,,,,,,,11,,,57,80
127200,note_on,24,0,1,,,,,,,,0,,,81,80
127200,note_on,24,0,6,,,,,,,,5,,,45,80
127200,note_on,24,0,9,,,,,,,,7,,,69,80
127200,note_on,24,0,13,,,,,,,,12,,,45,80
127200,note_on,24,0,5,,,,,,,,4,,,69,80
127200,note_on,0,0,4,,,,,,,,3,,,57,80
127392,note_on,192,0,9,,,,,,,,7,,,69,0
127392,note_on,192,0,12,,,,,,,,11,,,57,0
127392,note_on,192,0,10,,,,,,,,8,,,69,0
127392,note_on,192,0,2,,,,,,,,1,,,81,0
127392,note_on,192,0,3,,,,,,,,2,,,57,0
127392,note_on,192,0,11,,,,,,,,10,,,69,0
127392,note_on,0,0,4,,,,,,,,3,,,69,0
127392,note_on,192,0,5,,,,,,,,4,,,69,0
127392,note_on,192,0,1,,,,,,,,0,,,81,0
127392,note_on,192,0,6,,,,,,,,5,,,45,0
127392,note_on,192,0,4,,,,,,,,3,,,57,0
127392,note_on,192,0,13,,,,,,,,12,,,45,0
127440,note_on,48,0,10,,,,,,,,8,,,78,80
127440,note_on,48,0,9,,,,,,,,7,,,81,80
127488,note_on,48,0,9,,,,,,,,7,,,81,0
127488,note_on,48,0,10,,,,,,,,8,,,78,0
127500,note_on,12,0,9,,,,,,,,7,,,79,80
127500,note_on,12,0,10,,,,,,,,8,,,76,80
127548,note_on,48,0,9,,,,,,,,7,,,79,0
127548,note_on,48,0,10,,,,,,,,8,,,76,0
127560,note_on,12,0,9,,,,,,,,7,,,78,80
127560,note_on,12,0,10,,,,,,,,8,,,74,80
127608,note_on,48,0,9,,,,,,,,7,,,78,0
127608,note_on,48,0,10,,,,,,,,8,,,74,0
127620,note_on,12,0,9,,,,,,,,7,,,76,80
127620,note_on,12,0,10,,,,,,,,8,,,73,80
127668,note_on,48,0,10,,,,,,,,8,,,73,0
127668,note_on,48,0,9,,,,,,,,7,,,76,0
127680,note_on,6048,0,8,,,,,,,,6,,,50,80
127680,note_on,288,0,2,,,,,,,,1,,,74,80
127680,note_on,12,0,9,,,,,,,,7,,,74,80
127680,note_on,12,0,10,,,,,,,,8,,,74,80
127680,note_on,288,0,11,,,,,,,,10,,,66,80
127680,note_on,288,0,12,,,,,,,,11,,,50,80
127680,note_on,5568,0,7,,,,,,,,6,,,74,80
127680,note_on,288,0,13,,,,,,,,12,,,38,80
127680,note_on,288,0,1,,,,,,,,0,,,86,80
127728,note_on,48,0,7,,,,,,,,6,,,74,0
127740,note_on,12,0,7,,,,,,,,6,,,69,80
127788,note_on,48,0,7,,,,,,,,6,,,69,0
127800,note_on,12,0,7,,,,,,,,6,,,74,80
127848,note_on,48,0,7,,,,,,,,6,,,74,0
127860,note_on,12,0,7,,,,,,,,6,,,78,80
127872,note_on,192,0,8,,,,,,,,6,,,50,0
127872,note_on,192,0,9,,,,,,,,7,,,74,0
127872,note_on,192,0,12,,,,,,,,11,,,50,0
127872,note_on,192,0,10,,,,,,,,8,,,74,0
127872,note_on,192,0,11,,,,,,,,10,,,66,0
127872,note_on,192,0,13,,,,,,,,12,,,38,0
127908,note_on,48,0,7,,,,,,,,6,,,78,0
127920,note_on,12,0,7,,,,,,,,6,,,81,80
127920,note_on,48,0,8,,,,,,,,6,,,62,80
127920,note_on,0,0,8,,,,,,,,6,,,66,80
127920,note_on,48,0,11,,,,,,,,10,,,62,80
127920,note_on,48,0,10,,,,,,,,8,,,66,80
127920,note_on,48,0,9,,,,,,,,7,,,69,80
127968,note_on,48,0,7,,,,,,,,6,,,81,0
127980,note_on,12,0,7,,,,,,,,6,,,74,80
128016,note_on,96,0,8,,,,,,,,6,,,66,0
128016,note_on,96,0,10,,,,,,,,8,,,66,0
128016,note_on,96,0,9,,,,,,,,7,,,69,0
128016,note_on,96,0,11,,,,,,,,10,,,62,0
128016,note_on,0,0,8,,,,,,,,6,,,62,0
128028,note_on,48,0,7,,,,,,,,6,,,74,0
128040,note_on,24,0,10,,,,,,,,8,,,67,80
128040,note_on,24,0,9,,,,,,,,7,,,71,80
128040,note_on,12,0,7,,,,,,,,6,,,83,80
128040,note_on,0,0,8,,,,,,,,6,,,64,80
128040,note_on,24,0,8,,,,,,,,6,,,67,80
128040,note_on,24,0,11,,,,,,,,10,,,62,80
128088,note_on,48,0,7,,,,,,,,6,,,83,0
128100,note_on,12,0,7,,,,,,,,6,,,74,80
128136,note_on,96,0,10,,,,,,,,8,,,67,0
128136,note_on,96,0,8,,,,,,,,6,,,64,0
128136,note_on,96,0,9,,,,,,,,7,,,71,0
128136,note_on,0,0,8,,,,,,,,6,,,67,0
128136,note_on,96,0,11,,,,,,,,10,,,62,0
128148,note_on,48,0,7,,,,,,,,6,,,74,0
128160,note_on,24,0,11,,,,,,,,10,,,62,80
128160,note_on,12,0,7,,,,,,,,6,,,81,80
128160,note_on,24,0,9,,,,,,,,7,,,69,80
128160,note_on,24,0,10,,,,,,,,8,,,66,80
128160,note_on,288,0,12,,,,,,,,11,,,50,80
128160,note_on,0,0,8,,,,,,,,6,,,66,80
128160,note_on,24,0,8,,,,,,,,6,,,62,80
128160,note_on,288,0,13,,,,,,,,12,,,38,80
128208,note_on,48,0,7,,,,,,,,6,,,81,0
128220,note_on,12,0,7,,,,,,,,6,,,78,80
128268,note_on,48,0,7,,,,,,,,6,,,78,0
128280,note_on,12,0,7,,,,,,,,6,,,74,80
128328,note_on,48,0,7,,,,,,,,6,,,74,0
128340,note_on,12,0,7,,,,,,,,6,,,78,80
128352,note_on,192,0,13,,,,,,,,12,,,38,0
128352,note_on,192,0,11,,,,,,,,10,,,62,0
128352,note_on,0,0,8,,,,,,,,6,,,62,0
128352,note_on,192,0,8,,,,,,,,6,,,66,0
128352,note_on,192,0,12,,,,,,,,11,,,50,0
128352,note_on,192,0,9,,,,,,,,7,,,69,0
128352,note_on,192,0,10,,,,,,,,8,,,66,0
128388,note_on,48,0,7,,,,,,,,6,,,78,0
128400,note_on,48,0,10,,,,,,,,8,,,66,80
128400,note_on,48,0,11,,,,,,,,10,,,62,80
128400,note_on,12,0,7,,,,,,,,6,,,81,80
128400,note_on,0,0,8,,,,,,,,6,,,66,80
128400,note_on,48,0,8,,,,,,,,6,,,62,80
128400,note_on,48,0,9,,,,,,,,7,,,69,80
128448,note_on,48,0,7,,,,,,,,6,,,81,0
128460,note_on,12,0,7,,,,,,,,6,,,74,80
128496,note_on,0,0,8,,,,,,,,6,,,62,0
128496,note_on,96,0,8,,,,,,,,6,,,66,0
128496,note_on,96,0,9,,,,,,,,7,,,69,0
128496,note_on,96,0,11,,,,,,,,10,,,62,0
128496,note_on,96,0,10,,,,,,,,8,,,66,0
128508,note_on,48,0,7,,,,,,,,6,,,74,0
128520,note_on,12,0,7,,,,,,,,6,,,83,80
128520,note_on,0,0,8,,,,,,,,6,,,64,80
128520,note_on,24,0,11,,,,,,,,10,,,62,80
128520,note_on,24,0,9,,,,,,,,7,,,71,80
128520,note_on,24,0,8,,,,,,,,6,,,67,80
128520,note_on,24,0,10,,,,,,,,8,,,67,80
128568,note_on,48,0,7,,,,,,,,6,,,83,0
128580,note_on,12,0,7,,,,,,,,6,,,74,80
128616,note_on,96,0,9,,,,,,,,7,,,71,0
128616,note_on,96,0,11,,,,,,,,10,,,62,0
128616,note_on,96,0,10,,,,,,,,8,,,67,0
128616,note_on,96,0,8,,,,,,,,6,,,64,0
128616,note_on,0,0,8,,,,,,,,6,,,67,0
128628,note_on,48,0,7,,,,,,,,6,,,74,0
128640,note_on,288,0,12,,,,,,,,11,,,50,80
128640,note_on,24,0,11,,,,,,,,10,,,62,80
128640,note_on,24,0,9,,,,,,,,7,,,69,80
128640,note_on,24,0,8,,,,,,,,6,,,62,80
128640,note_on,0,0,8,,,,,,,,6,,,66,80
128640,note_on,24,0,10,,,,,,,,8,,,66,80
128640,note_on,288,0,13,,,,,,,,12,,,38,80
128640,note_on,12,0,7,,,,,,,,6,,,81,80
128688,note_on,48,0,7,,,,,,,,6,,,81,0
128700,note_on,12,0,7,,,,,,,,6,,,74,80
128736,note_on,96,0,11,,,,,,,,10,,,62,0
128736,note_on,96,0,9,,,,,,,,7,,,69,0
128736,note_on,96,0,8,,,,,,,,6,,,66,0
128736,note_on,96,0,10,,,,,,,,8,,,66,0
128736,note_on,0,0,8,,,,,,,,6,,,62,0
128748,note_on,48,0,7,,,,,,,,6,,,74,0
128760,note_on,12,0,7,,,,,,,,6,,,83,80
128760,note_on,0,0,8,,,,,,,,6,,,64,80
128760,note_on,24,0,8,,,,,,,,6,,,67,80
128760,note_on,24,0,9,,,,,,,,7,,,71,80
128760,note_on,24,0,11,,,,,,,,10,,,62,80
128760,note_on,24,0,10,,,,,,,,8,,,67,80
128808,note_on,48,0,7,,,,,,,,6,,,83,0
128820,note_on,12,0,7,,,,,,,,6,,,74,80
128832,note_on,192,0,12,,,,,,,,11,,,50,0
128832,note_on,192,0,13,,,,,,,,12,,,38,0
128856,note_on,96,0,9,,,,,,,,7,,,71,0
128856,note_on,96,0,8,,,,,,,,6,,,64,0
128856,note_on,0,0,8,,,,,,,,6,,,67,0
128856,note_on,96,0,10,,,,,,,,8,,,67,0
128856,note_on,96,0,11,,,,,,,,10,,,62,0
128868,note_on,48,0,7,,,,,,,,6,,,74,0
128880,note_on,12,0,7,,,,,,,,6,,,81,80
128880,note_on,0,0,8,,,,,,,,6,,,62,80
128880,note_on,24,0,8,,,,,,,,6,,,66,80
128880,note_on,24,0,10,,,,,,,,8,,,66,80
128880,note_on,24,0,11,,,,,,,,10,,,62,80
128880,note_on,24,0,9,,,,,,,,7,,,69,80
128928,note_on,48,0,7,,,,,,,,6,,,81,0
128940,note_on,12,0,7,,,,,,,,6,,,74,80
128976,note_on,96,0,11,,,,,,,,10,,,62,0
128976,note_on,96,0,9,,,,,,,,7,,,69,0
128976,note_on,0,0,8,,,,,,,,6,,,66,0
128976,note_on,96,0,8,,,,,,,,6,,,62,0
128976,note_on,96,0,10,,,,,,,,8,,,66,0
128988,note_on,48,0,7,,,,,,,,6,,,74,0
129000,note_on,24,0,9,,,,,,,,7,,,71,80
129000,note_on,12,0,7,,,,,,,,6,,,83,80
129000,note_on,0,0,8,,,,,,,,6,,,64,80
129000,note_on,24,0,8,,,,,,,,6,,,67,80
129000,note_on,24,0,11,,,,,,,,10,,,62,80
129000,note_on,24,0,10,,,,,,,,8,,,67,80
129048,note_on,48,0,7,,,,,,,,6,,,83,0
129060,note_on,12,0,7,,,,,,,,6,,,74,80
129096,note_on,96,0,10,,,,,,,,8,,,67,0
129096,note_on,0,0,8,,,,,,,,6,,,67,0
129096,note_on,96,0,9,,,,,,,,7,,,71,0
129096,note_on,96,0,11,,,,,,,,10,,,62,0
129096,note_on,96,0,8,,,,,,,,6,,,64,0
129108,note_on,48,0,7,,,,,,,,6,,,74,0
129120,note_on,24,0,11,,,,,,,,10,,,62,80
129120,note_on,288,0,12,,,,,,,,11,,,50,80
129120,note_on,24,0,9,,,,,,,,7,,,69,80
129120,note_on,24,0,10,,,,,,,,8,,,66,80
129120,note_on,12,0,7,,,,,,,,6,,,81,80
129120,note_on,0,0,8,,,,,,,,6,,,66,80
129120,note_on,24,0,8,,,,,,,,6,,,62,80
129120,note_on,288,0,13,,,,,,,,12,,,38,80
129168,note_on,48,0,7,,,,,,,,6,,,81,0
129180,note_on,12,0,7,,,,,,,,6,,,74,80
129228,note_on,48,0,7,,,,,,,,6,,,74,0
129240,note_on,12,0,7,,,,,,,,6,,,78,80
129288,note_on,48,0,7,,,,,,,,6,,,78,0
129300,note_on,12,0,7,,,,,,,,6,,,81,80
129312,note_on,1632,0,2,,,,,,,,1,,,74,0
129312,note_on,0,0,8,,,,,,,,6,,,62,0
129312,note_on,192,0,13,,,,,,,,12,,,38,0
129312,note_on,1632,0,1,,,,,,,,0,,,86,0
129312,note_on,192,0,10,,,,,,,,8,,,66,0
129312,note_on,192,0,11,,,,,,,,10,,,62,0
129312,note_on,192,0,9,,,,,,,,7,,,69,0
129312,note_on,192,0,12,,,,,,,,11,,,50,0
129312,note_on,192,0,8,,,,,,,,6,,,66,0
129348,note_on,48,0,7,,,,,,,,6,,,81,0
129360,note_on,12,0,7,,,,,,,,6,,,86,80
129408,note_on,48,0,7,,,,,,,,6,,,86,0
129420,note_on,12,0,7,,,,,,,,6,,,85,80
129468,note_on,48,0,7,,,,,,,,6,,,85,0
129480,note_on,12,0,7,,,,,,,,6,,,83,80
129528,note_on,48,0,7,,,,,,,,6,,,83,0
129540,note_on,12,0,7,,,,,,,,6,,,81,80
129588,note_on,48,0,7,,,,,,,,6,,,81,0
129600,note_on,288,0,8,,,,,,,,6,,,64,80
129600,note_on,288,0,11,,,,,,,,10,,,64,80
129600,note_on,288,0,12,,,,,,,,11,,,62,80
129600,note_on,12,0,7,,,,,,,,6,,,80,80
129600,note_on,288,0,9,,,,,,,,7,,,64,80
129600,note_on,0,0,10,,,,,,,,8,,,71,80
129600,note_on,288,0,10,,,,,,,,8,,,68,80
129600,note_on,0,0,8,,,,,,,,6,,,62,80
129648,note_on,48,0,7,,,,,,,,6,,,80,0
129660,note_on,12,0,7,,,,,,,,6,,,71,80
129696,note_on,96,0,11,,,,,,,,10,,,64,0
129696,note_on,0,0,8,,,,,,,,6,,,64,0
129696,note_on,96,0,8,,,,,,,,6,,,62,0
129696,note_on,96,0,10,,,,,,,,8,,,71,0
129696,note_on,0,0,10,,,,,,,,8,,,68,0
129696,note_on,96,0,12,,,,,,,,11,,,62,0
129708,note_on,48,0,7,,,,,,,,6,,,71,0
129720,note_on,12,0,7,,,,,,,,6,,,76,80
129720,note_on,24,0,10,,,,,,,,8,,,68,80
129720,note_on,0,0,8,,,,,,,,6,,,64,80
129720,note_on,24,0,8,,,,,,,,6,,,62,80
129720,note_on,24,0,11,,,,,,,,10,,,64,80
129720,note_on,24,0,12,,,,,,,,11,,,62,80
129720,note_on,0,0,10,,,,,,,,8,,,71,80
129768,note_on,48,0,7,,,,,,,,6,,,76,0
129780,note_on,12,0,7,,,,,,,,6,,,80,80
129792,note_on,192,0,9,,,,,,,,7,,,64,0
129816,note_on,0,0,10,,,,,,,,8,,,68,0
129816,note_on,96,0,11,,,,,,,,10,,,64,0
129816,note_on,96,0,8,,,,,,,,6,,,64,0
129816,note_on,0,0,8,,,,,,,,6,,,62,0
129816,note_on,96,0,12,,,,,,,,11,,,62,0
129816,note_on,96,0,10,,,,,,,,8,,,71,0
129828,note_on,48,0,7,,,,,,,,6,,,80,0
129840,note_on,24,0,10,,,,,,,,8,,,71,80
129840,note_on,48,0,9,,,,,,,,7,,,81,80
129840,note_on,0,0,10,,,,,,,,8,,,68,80
129840,note_on,24,0,11,,,,,,,,10,,,64,80
129840,note_on,12,0,7,,,,,,,,6,,,83,80
129840,note_on,24,0,8,,,,,,,,6,,,62,80
129840,note_on,0,0,8,,,,,,,,6,,,64,80
129840,note_on,24,0,12,,,,,,,,11,,,62,80
129864,note_on,24,0,9,,,,,,,,7,,,81,0
129870,note_on,6,0,9,,,,,,,,7,,,80,80
129888,note_on,48,0,7,,,,,,,,6,,,83,0
129894,note_on,24,0,9,,,,,,,,7,,,80,0
129900,note_on,6,0,9,,,,,,,,7,,,81,80
129900,note_on,12,0,7,,,,,,,,6,,,80,80
129924,note_on,24,0,9,,,,,,,,7,,,81,0
129930,note_on,6,0,9,,,,,,,,7,,,80,80
129936,note_on,96,0,10,,,,,,,,8,,,68,0
129936,note_on,96,0,11,,,,,,,,10,,,64,0
129936,note_on,0,0,10,,,,,,,,8,,,71,0
129936,note_on,0,0,8,,,,,,,,6,,,62,0
129936,note_on,96,0,8,,,,,,,,6,,,64,0
129936,note_on,96,0,12,,,,,,,,11,,,62,0
129948,note_on,48,0,7,,,,,,,,6,,,80,0
129954,note_on,24,0,9,,,,,,,,7,,,80,0
129960,note_on,0,0,10,,,,,,,,8,,,71,80
129960,note_on,12,0,7,,,,,,,,6,,,76,80
129960,note_on,0,0,8,,,,,,,,6,,,64,80
129960,note_on,24,0,12,,,,,,,,11,,,62,80
129960,note_on,6,0,9,,,,,,,,7,,,81,80
129960,note_on,24,0,11,,,,,,,,10,,,64,80
129960,note_on,24,0,8,,,,,,,,6,,,62,80
129960,note_on,24,0,10,,,,,,,,8,,,68,80
129984,note_on,24,0,9,,,,,,,,7,,,81,0
129990,note_on,6,0,9,,,,,,,,7,,,80,80
130008,note_on,48,0,7,,,,,,,,6,,,76,0
130014,note_on,24,0,9,,,,,,,,7,,,80,0
130020,note_on,6,0,9,,,,,,,,7,,,78,80
130020,note_on,12,0,7,,,,,,,,6,,,71,80
130044,note_on,24,0,9,,,,,,,,7,,,78,0
130050,note_on,6,0,9,,,,,,,,7,,,80,80
130056,note_on,96,0,8,,,,,,,,6,,,64,0
130056,note_on,0,0,8,,,,,,,,6,,,62,0
130056,note_on,96,0,11,,,,,,,,10,,,64,0
130056,note_on,96,0,10,,,,,,,,8,,,71,0
130056,note_on,96,0,12,,,,,,,,11,,,62,0
130056,note_on,0,0,10,,,,,,,,8,,,68,0
130068,note_on,48,0,7,,,,,,,,6,,,71,0
130074,note_on,24,0,9,,,,,,,,7,,,80,0
130080,note_on,24,0,10,,,,,,,,8,,,69,80
130080,note_on,6,0,9,,,,,,,,7,,,81,80
130080,note_on,12,0,7,,,,,,,,6,,,81,80
130080,note_on,24,0,12,,,,,,,,11,,,60,80
130080,note_on,24,0,8,,,,,,,,6,,,64,80
130080,note_on,0,0,8,,,,,,,,6,,,60,80
130080,note_on,24,0,11,,,,,,,,10,,,64,80
130128,note_on,48,0,7,,,,,,,,6,,,81,0
130140,note_on,12,0,7,,,,,,,,6,,,72,80
130188,note_on,48,0,7,,,,,,,,6,,,72,0
130200,note_on,12,0,7,,,,,,,,6,,,76,80
130248,note_on,48,0,7,,,,,,,,6,,,76,0
130260,note_on,12,0,7,,,,,,,,6,,,81,80
130272,note_on,192,0,11,,,,,,,,10,,,64,0
130272,note_on,192,0,8,,,,,,,,6,,,60,0
130272,note_on,0,0,8,,,,,,,,6,,,64,0
130272,note_on,192,0,12,,,,,,,,11,,,60,0
130272,note_on,192,0,9,,,,,,,,7,,,81,0
130272,note_on,192,0,10,,,,,,,,8,,,69,0
130308,note_on,48,0,7,,,,,,,,6,,,81,0
130320,note_on,12,0,7,,,,,,,,6,,,84,80
130368,note_on,48,0,7,,,,,,,,6,,,84,0
130380,note_on,12,0,7,,,,,,,,6,,,83,80
130428,note_on,48,0,7,,,,,,,,6,,,83,0
130440,note_on,12,0,7,,,,,,,,6,,,81,80
130488,note_on,48,0,7,,,,,,,,6,,,81,0
130500,note_on,12,0,7,,,,,,,,6,,,79,80
130548,note_on,48,0,7,,,,,,,,6,,,79,0
130560,note_on,288,0,8,,,,,,,,6,,,60,80
130560,note_on,288,0,10,,,,,,,,8,,,66,80
130560,note_on,0,0,10,,,,,,,,8,,,69,80
130560,note_on,288,0,11,,,,,,,,10,,,62,80
130560,note_on,12,0,7,,,,,,,,6,,,78,80
130560,note_on,288,0,9,,,,,,,,7,,,62,80
130560,note_on,288,0,12,,,,,,,,11,,,60,80
130560,note_on,0,0,8,,,,,,,,6,,,62,80
130608,note_on,48,0,7,,,,,,,,6,,,78,0
130620,note_on,12,0,7,,,,,,,,6,,,69,80
130656,note_on,96,0,11,,,,,,,,10,,,62,0
130656,note_on,0,0,10,,,,,,,,8,,,66,0
130656,note_on,0,0,8,,,,,,,,6,,,60,0
130656,note_on,96,0,8,,,,,,,,6,,,62,0
130656,note_on,96,0,10,,,,,,,,8,,,69,0
130656,note_on,96,0,12,,,,,,,,11,,,60,0
130668,note_on,48,0,7,,,,,,,,6,,,69,0
130680,note_on,24,0,10,,,,,,,,8,,,66,80
130680,note_on,12,0,7,,,,,,,,6,,,74,80
130680,note_on,24,0,11,,,,,,,,10,,,62,80
130680,note_on,0,0,10,,,,,,,,8,,,69,80
130680,note_on,0,0,8,,,,,,,,6,,,60,80
130680,note_on,24,0,8,,,,,,,,6,,,62,80
130680,note_on,24,0,12,,,,,,,,11,,,60,80
130728,note_on,48,0,7,,,,,,,,6,,,74,0
130740,note_on,12,0,7,,,,,,,,6,,,78,80
130752,note_on,192,0,9,,,,,,,,7,,,62,0
130776,note_on,96,0,11,,,,,,,,10,,,62,0
130776,note_on,96,0,12,,,,,,,,11,,,60,0
130776,note_on,96,0,8,,,,,,,,6,,,60,0
130776,note_on,0,0,8,,,,,,,,6,,,62,0
130776,note_on,96,0,10,,,,,,,,8,,,69,0
130776,note_on,0,0,10,,,,,,,,8,,,66,0
130788,note_on,48,0,7,,,,,,,,6,,,78,0
130800,note_on,24,0,8,,,,,,,,6,,,62,80
130800,note_on,24,0,12,,,,,,,,11,,,60,80
130800,note_on,24,0,11,,,,,,,,10,,,62,80
130800,note_on,48,0,9,,,,,,,,7,,,79,80
130800,note_on,0,0,8,,,,,,,,6,,,60,80
130800,note_on,12,0,7,,,,,,,,6,,,81,80
130800,note_on,24,0,10,,,,,,,,8,,,69,80
130800,note_on,0,0,10,,,,,,,,8,,,66,80
130824,note_on,24,0,9,,,,,,,,7,,,79,0
130830,note_on,6,0,9,,,,,,,,7,,,78,80
130848,note_on,48,0,7,,,,,,,,6,,,81,0
130854,note_on,24,0,9,,,,,,,,7,,,78,0
130860,note_on,6,0,9,,,,,,,,7,,,79,80
130860,note_on,12,0,7,,,,,,,,6,,,78,80
130884,note_on,24,0,9,,,,,,,,7,,,79,0
130890,note_on,6,0,9,,,,,,,,7,,,78,80
130896,note_on,96,0,11,,,,,,,,10,,,62,0
130896,note_on,96,0,10,,,,,,,,8,,,66,0
130896,note_on,96,0,8,,,,,,,,6,,,60,0
130896,note_on,96,0,12,,,,,,,,11,,,60,0
130896,note_on,0,0,10,,,,,,,,8,,,69,0
130896,note_on,0,0,8,,,,,,,,6,,,62,0
130908,note_on,48,0,7,,,,,,,,6,,,78,0
130914,note_on,24,0,9,,,,,,,,7,,,78,0
130920,note_on,0,0,8,,,,,,,,6,,,62,80
130920,note_on,0,0,10,,,,,,,,8,,,69,80
130920,note_on,24,0,10,,,,,,,,8,,,66,80
130920,note_on,12,0,7,,,,,,,,6,,,74,80
130920,note_on,6,0,9,,,,,,,,7,,,79,80
130920,note_on,24,0,8,,,,,,,,6,,,60,80
130920,note_on,24,0,11,,,,,,,,10,,,62,80
130920,note_on,24,0,12,,,,,,,,11,,,60,80
130944,note_on,24,0,9,,,,,,,,7,,,79,0
130950,note_on,6,0,9,,,,,,,,7,,,78,80
130968,note_on,48,0,7,,,,,,,,6,,,74,0
130974,note_on,24,0,9,,,,,,,,7,,,78,0
130980,note_on,12,0,7,,,,,,,,6,,,69,80
130980,note_on,6,0,9,,,,,,,,7,,,76,80
131004,note_on,24,0,9,,,,,,,,7,,,76,0
131010,note_on,6,0,9,,,,,,,,7,,,78,80
131016,note_on,96,0,11,,,,,,,,10,,,62,0
131016,note_on,96,0,8,,,,,,,,6,,,62,0
131016,note_on,0,0,8,,,,,,,,6,,,60,0
131016,note_on,0,0,10,,,,,,,,8,,,66,0
131016,note_on,96,0,10,,,,,,,,8,,,69,0
131016,note_on,96,0,12,,,,,,,,11,,,60,0
131028,note_on,48,0,7,,,,,,,,6,,,69,0
131034,note_on,24,0,9,,,,,,,,7,,,78,0
131040,note_on,24,0,8,,,,,,,,6,,,59,80
131040,note_on,24,0,11,,,,,,,,10,,,62,80
131040,note_on,12,0,7,,,,,,,,6,,,79,80
131040,note_on,0,0,8,,,,,,,,6,,,62,80
131040,note_on,6,0,9,,,,,,,,7,,,79,80
131040,note_on,24,0,10,,,,,,,,8,,,67,80
131040,note_on,24,0,12,,,,,,,,11,,,59,80
131088,note_on,48,0,7,,,,,,,,6,,,79,0
131100,note_on,12,0,7,,,,,,,,6,,,71,80
131148,note_on,48,0,7,,,,,,,,6,,,71,0
131160,note_on,12,0,7,,,,,,,,6,,,74,80
131208,note_on,48,0,7,,,,,,,,6,,,74,0
131220,note_on,12,0,7,,,,,,,,6,,,79,80
131232,note_on,192,0,9,,,,,,,,7,,,79,0
131232,note_on,192,0,10,,,,,,,,8,,,67,0
131232,note_on,192,0,11,,,,,,,,10,,,62,0
131232,note_on,192,0,8,,,,,,,,6,,,62,0
131232,note_on,0,0,8,,,,,,,,6,,,59,0
131232,note_on,192,0,12,,,,,,,,11,,,59,0
131268,note_on,48,0,7,,,,,,,,6,,,79,0
131280,note_on,12,0,7,,,,,,,,6,,,83,80
131328,note_on,48,0,7,,,,,,,,6,,,83,0
131340,note_on,12,0,7,,,,,,,,6,,,81,80
131388,note_on,48,0,7,,,,,,,,6,,,81,0
131400,note_on,12,0,7,,,,,,,,6,,,79,80
131448,note_on,48,0,7,,,,,,,,6,,,79,0
131460,note_on,12,0,7,,,,,,,,6,,,78,80
131508,note_on,48,0,7,,,,,,,,6,,,78,0
131520,note_on,0,0,8,,,,,,,,6,,,61,80
131520,note_on,288,0,8,,,,,,,,6,,,59,80
131520,note_on,288,0,10,,,,,,,,8,,,68,80
131520,note_on,288,0,11,,,,,,,,10,,,61,80
131520,note_on,0,0,11,,,,,,,,10,,,65,80
131520,note_on,12,0,7,,,,,,,,6,,,77,80
131520,note_on,288,0,12,,,,,,,,11,,,59,80
131520,note_on,288,0,9,,,,,,,,7,,,61,80
131568,note_on,48,0,7,,,,,,,,6,,,77,0
131580,note_on,12,0,7,,,,,,,,6,,,68,80
131616,note_on,96,0,12,,,,,,,,11,,,59,0
131616,note_on,96,0,10,,,,,,,,8,,,68,0
131616,note_on,96,0,8,,,,,,,,6,,,61,0
131616,note_on,96,0,11,,,,,,,,10,,,65,0
131616,note_on,0,0,11,,,,,,,,10,,,61,0
131616,note_on,0,0,8,,,,,,,,6,,,59,0
131628,note_on,48,0,7,,,,,,,,6,,,68,0
131640,note_on,0,0,11,,,,,,,,10,,,61,80
131640,note_on,24,0,12,,,,,,,,11,,,59,80
131640,note_on,24,0,8,,,,,,,,6,,,59,80
131640,note_on,24,0,10,,,,,,,,8,,,68,80
131640,note_on,12,0,7,,,,,,,,6,,,73,80
131640,note_on,0,0,8,,,,,,,,6,,,61,80
131640,note_on,24,0,11,,,,,,,,10,,,65,80
131688,note_on,48,0,7,,,,,,,,6,,,73,0
131700,note_on,12,0,7,,,,,,,,6,,,77,80
131712,note_on,192,0,9,,,,,,,,7,,,61,0
131736,note_on,96,0,10,,,,,,,,8,,,68,0
131736,note_on,96,0,8,,,,,,,,6,,,61,0
131736,note_on,0,0,8,,,,,,,,6,,,59,0
131736,note_on,96,0,12,,,,,,,,11,,,59,0
131736,note_on,0,0,11,,,,,,,,10,,,65,0
131736,note_on,96,0,11,,,,,,,,10,,,61,0
131748,note_on,48,0,7,,,,,,,,6,,,77,0
131760,note_on,0,0,8,,,,,,,,6,,,59,80
131760,note_on,48,0,9,,,,,,,,7,,,78,80
131760,note_on,12,0,7,,,,,,,,6,,,80,80
131760,note_on,24,0,10,,,,,,,,8,,,68,80
131760,note_on,0,0,11,,,,,,,,10,,,61,80
131760,note_on,24,0,8,,,,,,,,6,,,61,80
131760,note_on,24,0,11,,,,,,,,10,,,65,80
131760,note_on,24,0,12,,,,,,,,11,,,59,80
131784,note_on,24,0,9,,,,,,,,7,,,78,0
131790,note_on,6,0,9,,,,,,,,7,,,77,80
131808,note_on,48,0,7,,,,,,,,6,,,80,0
131814,note_on,24,0,9,,,,,,,,7,,,77,0
131820,note_on,6,0,9,,,,,,,,7,,,78,80
131820,note_on,12,0,7,,,,,,,,6,,,77,80
131844,note_on,24,0,9,,,,,,,,7,,,78,0
131850,note_on,6,0,9,,,,,,,,7,,,77,80
131856,note_on,96,0,10,,,,,,,,8,,,68,0
131856,note_on,96,0,12,,,,,,,,11,,,59,0
131856,note_on,0,0,8,,,,,,,,6,,,61,0
131856,note_on,0,0,11,,,,,,,,10,,,65,0
131856,note_on,96,0,11,,,,,,,,10,,,61,0
131856,note_on,96,0,8,,,,,,,,6,,,59,0
131868,note_on,48,0,7,,,,,,,,6,,,77,0
131874,note_on,24,0,9,,,,,,,,7,,,77,0
131880,note_on,0,0,11,,,,,,,,10,,,65,80
131880,note_on,24,0,12,,,,,,,,11,,,59,80
131880,note_on,6,0,9,,,,,,,,7,,,78,80
131880,note_on,12,0,7,,,,,,,,6,,,73,80
131880,note_on,24,0,10,,,,,,,,8,,,68,80
131880,note_on,24,0,11,,,,,,,,10,,,61,80
131880,note_on,24,0,8,,,,,,,,6,,,59,80
131880,note_on,0,0,8,,,,,,,,6,,,61,80
131904,note_on,24,0,9,,,,,,,,7,,,78,0
131910,note_on,6,0,9,,,,,,,,7,,,77,80
131928,note_on,48,0,7,,,,,,,,6,,,73,0
131934,note_on,24,0,9,,,,,,,,7,,,77,0
131940,note_on,12,0,7,,,,,,,,6,,,68,80
131940,note_on,6,0,9,,,,,,,,7,,,75,80
131964,note_on,24,0,9,,,,,,,,7,,,75,0
131970,note_on,6,0,9,,,,,,,,7,,,77,80
131976,note_on,0,0,11,,,,,,,,10,,,61,0
131976,note_on,96,0,10,,,,,,,,8,,,68,0
131976,note_on,96,0,8,,,,,,,,6,,,61,0
131976,note_on,96,0,12,,,,,,,,11,,,59,0
131976,note_on,0,0,8,,,,,,,,6,,,59,0
131976,note_on,96,0,11,,,,,,,,10,,,65,0
131988,note_on,48,0,7,,,,,,,,6,,,68,0
131994,note_on,24,0,9,,,,,,,,7,,,77,0
132000,note_on,24,0,12,,,,,,,,11,,,57,80
132000,note_on,24,0,11,,,,,,,,10,,,66,80
132000,note_on,0,0,11,,,,,,,,10,,,61,80
132000,note_on,0,0,8,,,,,,,,6,,,57,80
132000,note_on,12,0,7,,,,,,,,6,,,78,80
132000,note_on,24,0,10,,,,,,,,8,,,69,80
132000,note_on,6,0,9,,,,,,,,7,,,78,80
132000,note_on,24,0,8,,,,,,,,6,,,61,80
132048,note_on,48,0,7,,,,,,,,6,,,78,0
132060,note_on,12,0,7,,,,,,,,6,,,69,80
132108,note_on,48,0,7,,,,,,,,6,,,69,0
132120,note_on,12,0,7,,,,,,,,6,,,74,80
132168,note_on,48,0,7,,,,,,,,6,,,74,0
132180,note_on,12,0,7,,,,,,,,6,,,78,80
132192,note_on,192,0,9,,,,,,,,7,,,78,0
132192,note_on,0,0,8,,,,,,,,6,,,61,0
132192,note_on,192,0,10,,,,,,,,8,,,69,0
132192,note_on,192,0,12,,,,,,,,11,,,57,0
132192,note_on,192,0,8,,,,,,,,6,,,57,0
132192,note_on,0,0,11,,,,,,,,10,,,66,0
132192,note_on,192,0,11,,,,,,,,10,,,61,0
132228,note_on,48,0,7,,,,,,,,6,,,78,0
132240,note_on,12,0,7,,,,,,,,6,,,81,80
132288,note_on,48,0,7,,,,,,,,6,,,81,0
132300,note_on,12,0,7,,,,,,,,6,,,79,80
132348,note_on,48,0,7,,,,,,,,6,,,79,0
132360,note_on,12,0,7,,,,,,,,6,,,78,80
132408,note_on,48,0,7,,,,,,,,6,,,78,0
132420,note_on,12,0,7,,,,,,,,6,,,76,80
132468,note_on,48,0,7,,,,,,,,6,,,76,0
132480,note_on,12,0,7,,,,,,,,6,,,75,80
132480,note_on,288,0,9,,,,,,,,7,,,59,80
132480,note_on,288,0,10,,,,,,,,8,,,66,80
132480,note_on,0,0,11,,,,,,,,10,,,63,80
132480,note_on,288,0,12,,,,,,,,11,,,57,80
132480,note_on,288,0,11,,,,,,,,10,,,59,80
132480,note_on,288,0,8,,,,,,,,6,,,57,80
132480,note_on,0,0,8,,,,,,,,6,,,59,80
132528,note_on,48,0,7,,,,,,,,6,,,75,0
132540,note_on,12,0,7,,,,,,,,6,,,66,80
132576,note_on,96,0,12,,,,,,,,11,,,57,0
132576,note_on,96,0,10,,,,,,,,8,,,66,0
132576,note_on,0,0,11,,,,,,,,10,,,59,0
132576,note_on,96,0,8,,,,,,,,6,,,59,0
132576,note_on,96,0,11,,,,,,,,10,,,63,0
132576,note_on,0,0,8,,,,,,,,6,,,57,0
132588,note_on,48,0,7,,,,,,,,6,,,66,0
132600,note_on,24,0,8,,,,,,,,6,,,57,80
132600,note_on,24,0,12,,,,,,,,11,,,57,80
132600,note_on,12,0,7,,,,,,,,6,,,71,80
132600,note_on,24,0,11,,,,,,,,10,,,63,80
132600,note_on,0,0,8,,,,,,,,6,,,59,80
132600,note_on,24,0,10,,,,,,,,8,,,66,80
132600,note_on,0,0,11,,,,,,,,10,,,59,80
132648,note_on,48,0,7,,,,,,,,6,,,71,0
132660,note_on,12,0,7,,,,,,,,6,,,75,80
132672,note_on,192,0,9,,,,,,,,7,,,59,0
132696,note_on,96,0,12,,,,,,,,11,,,57,0
132696,note_on,0,0,11,,,,,,,,10,,,63,0
132696,note_on,0,0,8,,,,,,,,6,,,57,0
132696,note_on,96,0,8,,,,,,,,6,,,59,0
132696,note_on,96,0,10,,,,,,,,8,,,66,0
132696,note_on,96,0,11,,,,,,,,10,,,59,0
132708,note_on,48,0,7,,,,,,,,6,,,75,0
132720,note_on,0,0,11,,,,,,,,10,,,59,80
132720,note_on,48,0,9,,,,,,,,7,,,76,80
132720,note_on,24,0,11,,,,,,,,10,,,63,80
132720,note_on,24,0,8,,,,,,,,6,,,59,80
132720,note_on,0,0,8,,,,,,,,6,,,57,80
132720,note_on,24,0,10,,,,,,,,8,,,66,80
132720,note_on,24,0,12,,,,,,,,11,,,57,80
132720,note_on,12,0,7,,,,,,,,6,,,78,80
132744,note_on,24,0,9,,,,,,,,7,,,76,0
132750,note_on,6,0,9,,,,,,,,7,,,75,80
132768,note_on,48,0,7,,,,,,,,6,,,78,0
132774,note_on,24,0,9,,,,,,,,7,,,75,0
132780,note_on,12,0,7,,,,,,,,6,,,75,80
132780,note_on,6,0,9,,,,,,,,7,,,76,80
132804,note_on,24,0,9,,,,,,,,7,,,76,0
132810,note_on,6,0,9,,,,,,,,7,,,75,80
132816,note_on,96,0,10,,,,,,,,8,,,66,0
132816,note_on,96,0,12,,,,,,,,11,,,57,0
132816,note_on,96,0,8,,,,,,,,6,,,57,0
132816,note_on,0,0,8,,,,,,,,6,,,59,0
132816,note_on,96,0,11,,,,,,,,10,,,59,0
132816,note_on,0,0,11,,,,,,,,10,,,63,0
132828,note_on,48,0,7,,,,,,,,6,,,75,0
132834,note_on,24,0,9,,,,,,,,7,,,75,0
132840,note_on,24,0,10,,,,,,,,8,,,66,80
132840,note_on,24,0,8,,,,,,,,6,,,57,80
132840,note_on,0,0,8,,,,,,,,6,,,59,80
132840,note_on,24,0,12,,,,,,,,11,,,57,80
132840,note_on,12,0,7,,,,,,,,6,,,71,80
132840,note_on,24,0,11,,,,,,,,10,,,59,80
132840,note_on,0,0,11,,,,,,,,10,,,63,80
132840,note_on,6,0,9,,,,,,,,7,,,76,80
132864,note_on,24,0,9,,,,,,,,7,,,76,0
132870,note_on,6,0,9,,,,,,,,7,,,75,80
132888,note_on,48,0,7,,,,,,,,6,,,71,0
132894,note_on,24,0,9,,,,,,,,7,,,75,0
132900,note_on,6,0,9,,,,,,,,7,,,73,80
132900,note_on,12,0,7,,,,,,,,6,,,66,80
132924,note_on,24,0,9,,,,,,,,7,,,73,0
132930,note_on,6,0,9,,,,,,,,7,,,75,80
132936,note_on,96,0,11,,,,,,,,10,,,63,0
132936,note_on,96,0,8,,,,,,,,6,,,59,0
132936,note_on,96,0,10,,,,,,,,8,,,66,0
132936,note_on,96,0,12,,,,,,,,11,,,57,0
132936,note_on,0,0,8,,,,,,,,6,,,57,0
132936,note_on,0,0,11,,,,,,,,10,,,59,0
132948,note_on,48,0,7,,,,,,,,6,,,66,0
132954,note_on,24,0,9,,,,,,,,7,,,75,0
132960,note_on,24,0,8,,,,,,,,6,,,59,80
132960,note_on,0,0,11,,,,,,,,10,,,59,80
132960,note_on,24,0,11,,,,,,,,10,,,64,80
132960,note_on,12,0,7,,,,,,,,6,,,76,80
132960,note_on,24,0,12,,,,,,,,11,,,55,80
132960,note_on,6,0,9,,,,,,,,7,,,76,80
132960,note_on,24,0,10,,,,,,,,8,,,67,80
132960,note_on,0,0,8,,,,,,,,6,,,55,80
133008,note_on,48,0,7,,,,,,,,6,,,76,0
133020,note_on,12,0,7,,,,,,,,6,,,67,80
133068,note_on,48,0,7,,,,,,,,6,,,67,0
133080,note_on,12,0,7,,,,,,,,6,,,71,80
133128,note_on,48,0,7,,,,,,,,6,,,71,0
133140,note_on,12,0,7,,,,,,,,6,,,76,80
133152,note_on,192,0,8,,,,,,,,6,,,55,0
133152,note_on,0,0,8,,,,,,,,6,,,59,0
133152,note_on,192,0,9,,,,,,,,7,,,76,0
133152,note_on,192,0,12,,,,,,,,11,,,55,0
133152,note_on,0,0,11,,,,,,,,10,,,64,0
133152,note_on,192,0,11,,,,,,,,10,,,59,0
133152,note_on,192,0,10,,,,,,,,8,,,67,0
133188,note_on,48,0,7,,,,,,,,6,,,76,0
133200,note_on,12,0,7,,,,,,,,6,,,79,80
133248,note_on,48,0,7,,,,,,,,6,,,79,0
133260,note_on,12,0,7,,,,,,,,6,,,78,80
133308,note_on,48,0,7,,,,,,,,6,,,78,0
133320,note_on,12,0,7,,,,,,,,6,,,76,80
133368,note_on,48,0,7,,,,,,,,6,,,76,0
133380,note_on,12,0,7,,,,,,,,6,,,74,80
133428,note_on,48,0,7,,,,,,,,6,,,74,0
133440,note_on,288,0,8,,,,,,,,6,,,55,80
133440,note_on,0,0,8,,,,,,,,6,,,57,80
133440,note_on,288,0,9,,,,,,,,7,,,57,80
133440,note_on,288,0,12,,,,,,,,11,,,55,80
133440,note_on,0,0,11,,,,,,,,10,,,57,80
133440,note_on,288,0,10,,,,,,,,8,,,64,80
133440,note_on,12,0,7,,,,,,,,6,,,73,80
133440,note_on,288,0,11,,,,,,,,10,,,61,80
133488,note_on,48,0,7,,,,,,,,6,,,73,0
133500,note_on,12,0,7,,,,,,,,6,,,64,80
133536,note_on,0,0,11,,,,,,,,10,,,61,0
133536,note_on,96,0,12,,,,,,,,11,,,55,0
133536,note_on,96,0,10,,,,,,,,8,,,64,0
133536,note_on,96,0,8,,,,,,,,6,,,57,0
133536,note_on,0,0,8,,,,,,,,6,,,55,0
133536,note_on,96,0,11,,,,,,,,10,,,57,0
133548,note_on,48,0,7,,,,,,,,6,,,64,0
133560,note_on,24,0,10,,,,,,,,8,,,64,80
133560,note_on,24,0,12,,,,,,,,11,,,55,80
133560,note_on,0,0,11,,,,,,,,10,,,57,80
133560,note_on,24,0,8,,,,,,,,6,,,57,80
133560,note_on,0,0,8,,,,,,,,6,,,55,80
133560,note_on,12,0,7,,,,,,,,6,,,69,80
133560,note_on,24,0,11,,,,,,,,10,,,61,80
133608,note_on,48,0,7,,,,,,,,6,,,69,0
133620,note_on,12,0,7,,,,,,,,6,,,73,80
133632,note_on,192,0,9,,,,,,,,7,,,57,0
133656,note_on,96,0,8,,,,,,,,6,,,55,0
133656,note_on,0,0,8,,,,,,,,6,,,57,0
133656,note_on,96,0,10,,,,,,,,8,,,64,0
133656,note_on,0,0,11,,,,,,,,10,,,61,0
133656,note_on,96,0,11,,,,,,,,10,,,57,0
133656,note_on,96,0,12,,,,,,,,11,,,55,0
133668,note_on,48,0,7,,,,,,,,6,,,73,0
133680,note_on,0,0,8,,,,,,,,6,,,57,80
133680,note_on,48,0,9,,,,,,,,7,,,74,80
133680,note_on,0,0,11,,,,,,,,10,,,57,80
133680,note_on,24,0,10,,,,,,,,8,,,64,80
133680,note_on,24,0,12,,,,,,,,11,,,55,80
133680,note_on,24,0,11,,,,,,,,10,,,61,80
133680,note_on,12,0,7,,,,,,,,6,,,76,80
133680,note_on,24,0,8,,,,,,,,6,,,55,80
133704,note_on,24,0,9,,,,,,,,7,,,74,0
133710,note_on,6,0,9,,,,,,,,7,,,73,80
133728,note_on,48,0,7,,,,,,,,6,,,76,0
133734,note_on,24,0,9,,,,,,,,7,,,73,0
133740,note_on,6,0,9,,,,,,,,7,,,74,80
133740,note_on,12,0,7,,,,,,,,6,,,73,80
133764,note_on,24,0,9,,,,,,,,7,,,74,0
133770,note_on,6,0,9,,,,,,,,7,,,73,80
133776,note_on,96,0,8,,,,,,,,6,,,57,0
133776,note_on,0,0,8,,,,,,,,6,,,55,0
133776,note_on,96,0,10,,,,,,,,8,,,64,0
133776,note_on,96,0,11,,,,,,,,10,,,57,0
133776,note_on,0,0,11,,,,,,,,10,,,61,0
133776,note_on,96,0,12,,,,,,,,11,,,55,0
133788,note_on,48,0,7,,,,,,,,6,,,73,0
133794,note_on,24,0,9,,,,,,,,7,,,73,0
133800,note_on,6,0,9,,,,,,,,7,,,74,80
133800,note_on,0,0,8,,,,,,,,6,,,55,80
133800,note_on,24,0,8,,,,,,,,6,,,57,80
133800,note_on,24,0,10,,,,,,,,8,,,64,80
133800,note_on,0,0,11,,,,,,,,10,,,61,80
133800,note_on,24,0,11,,,,,,,,10,,,57,80
133800,note_on,12,0,7,,,,,,,,6,,,69,80
133800,note_on,24,0,12,,,,,,,,11,,,55,80
133824,note_on,24,0,9,,,,,,,,7,,,74,0
133830,note_on,6,0,9,,,,,,,,7,,,73,80
133848,note_on,48,0,7,,,,,,,,6,,,69,0
133854,note_on,24,0,9,,,,,,,,7,,,73,0
133860,note_on,6,0,9,,,,,,,,7,,,71,80
133860,note_on,12,0,7,,,,,,,,6,,,64,80
133884,note_on,24,0,9,,,,,,,,7,,,71,0
133890,note_on,6,0,9,,,,,,,,7,,,73,80
133896,note_on,0,0,11,,,,,,,,10,,,57,0
133896,note_on,96,0,11,,,,,,,,10,,,61,0
133896,note_on,96,0,12,,,,,,,,11,,,55,0
133896,note_on,96,0,8,,,,,,,,6,,,55,0
133896,note_on,0,0,8,,,,,,,,6,,,57,0
133896,note_on,96,0,10,,,,,,,,8,,,64,0
133908,note_on,48,0,7,,,,,,,,6,,,64,0
133914,note_on,24,0,9,,,,,,,,7,,,73,0
133920,note_on,24,0,11,,,,,,,,10,,,57,80
133920,note_on,6,0,9,,,,,,,,7,,,74,80
133920,note_on,0,0,11,,,,,,,,10,,,62,80
133920,note_on,24,0,12,,,,,,,,11,,,54,80
133920,note_on,24,0,8,,,,,,,,6,,,54,80
133920,note_on,0,0,8,,,,,,,,6,,,57,80
133920,note_on,24,0,10,,,,,,,,8,,,62,80
133920,note_on,12,0,7,,,,,,,,6,,,74,80
133968,note_on,48,0,7,,,,,,,,6,,,74,0
133980,note_on,12,0,7,,,,,,,,6,,,69,80
134028,note_on,48,0,7,,,,,,,,6,,,69,0
134040,note_on,12,0,7,,,,,,,,6,,,78,80
134088,note_on,48,0,7,,,,,,,,6,,,78,0
134100,note_on,12,0,7,,,,,,,,6,,,74,80
134112,note_on,192,0,10,,,,,,,,8,,,62,0
134112,note_on,192,0,8,,,,,,,,6,,,57,0
134112,note_on,0,0,11,,,,,,,,10,,,57,0
134112,note_on,192,0,11,,,,,,,,10,,,62,0
134148,note_on,48,0,7,,,,,,,,6,,,74,0
134160,note_on,48,0,11,,,,,,,,10,,,66,80
134160,note_on,48,0,8,,,,,,,,6,,,62,80
134160,note_on,48,0,10,,,,,,,,8,,,69,80
134160,note_on,12,0,7,,,,,,,,6,,,81,80
134208,note_on,48,0,7,,,,,,,,6,,,81,0
134220,note_on,12,0,7,,,,,,,,6,,,78,80
134268,note_on,48,0,7,,,,,,,,6,,,78,0
134280,note_on,12,0,7,,,,,,,,6,,,86,80
134304,note_on,384,0,12,,,,,,,,11,,,54,0
134304,note_on,144,0,8,,,,,,,,6,,,54,0
134328,note_on,48,0,7,,,,,,,,6,,,86,0
134340,note_on,12,0,7,,,,,,,,6,,,81,80
134352,note_on,192,0,10,,,,,,,,8,,,69,0
134352,note_on,192,0,11,,,,,,,,10,,,66,0
134388,note_on,48,0,7,,,,,,,,6,,,81,0
134400,note_on,96,0,12,,,,,,,,11,,,55,80
134400,note_on,48,0,11,,,,,,,,10,,,64,80
134400,note_on,12,0,7,,,,,,,,6,,,83,80
134400,note_on,48,0,10,,,,,,,,8,,,71,80
134400,note_on,96,0,8,,,,,,,,6,,,55,80
134448,note_on,48,0,7,,,,,,,,6,,,83,0
134460,note_on,12,0,7,,,,,,,,6,,,84,80
134508,note_on,48,0,7,,,,,,,,6,,,84,0
134520,note_on,12,0,7,,,,,,,,6,,,83,80
134568,note_on,48,0,7,,,,,,,,6,,,83,0
134580,note_on,12,0,7,,,,,,,,6,,,81,80
134592,note_on,192,0,8,,,,,,,,6,,,62,0
134628,note_on,48,0,7,,,,,,,,6,,,81,0
134640,note_on,12,0,7,,,,,,,,6,,,79,80
134640,note_on,48,0,8,,,,,,,,6,,,64,80
134688,note_on,288,0,12,,,,,,,,11,,,55,0
134688,note_on,48,0,8,,,,,,,,6,,,55,0
134688,note_on,48,0,7,,,,,,,,6,,,79,0
134700,note_on,12,0,7,,,,,,,,6,,,78,80
134748,note_on,48,0,7,,,,,,,,6,,,78,0
134760,note_on,72,0,12,,,,,,,,11,,,56,80
134760,note_on,72,0,8,,,,,,,,6,,,56,80
134760,note_on,12,0,7,,,,,,,,6,,,76,80
134784,note_on,384,0,11,,,,,,,,10,,,64,0
134784,note_on,864,0,9,,,,,,,,7,,,74,0
134784,note_on,384,0,10,,,,,,,,8,,,71,0
134808,note_on,48,0,7,,,,,,,,6,,,76,0
134820,note_on,12,0,7,,,,,,,,6,,,74,80
134832,note_on,72,0,8,,,,,,,,6,,,64,0
134856,note_on,96,0,12,,,,,,,,11,,,56,0
134856,note_on,24,0,8,,,,,,,,6,,,56,0
134868,note_on,48,0,7,,,,,,,,6,,,74,0
134880,note_on,24,0,12,,,,,,,,11,,,57,80
134880,note_on,96,0,9,,,,,,,,7,,,73,80
134880,note_on,96,0,11,,,,,,,,10,,,64,80
134880,note_on,0,0,8,,,,,,,,6,,,57,80
134880,note_on,96,0,10,,,,,,,,8,,,69,80
134880,note_on,12,0,7,,,,,,,,6,,,73,80
134880,note_on,24,0,8,,,,,,,,6,,,64,80
134928,note_on,48,0,7,,,,,,,,6,,,73,0
134940,note_on,12,0,7,,,,,,,,6,,,69,80
134988,note_on,48,0,7,,,,,,,,6,,,69,0
135000,note_on,12,0,7,,,,,,,,6,,,73,80
135048,note_on,48,0,7,,,,,,,,6,,,73,0
135060,note_on,12,0,7,,,,,,,,6,,,76,80
135072,note_on,192,0,11,,,,,,,,10,,,64,0
135072,note_on,192,0,12,,,,,,,,11,,,57,0
135072,note_on,192,0,8,,,,,,,,6,,,57,0
135072,note_on,192,0,9,,,,,,,,7,,,73,0
135072,note_on,0,0,8,,,,,,,,6,,,64,0
135072,note_on,192,0,10,,,,,,,,8,,,69,0
135108,note_on,48,0,7,,,,,,,,6,,,76,0
135120,note_on,0,0,8,,,,,,,,6,,,57,80
135120,note_on,12,0,7,,,,,,,,6,,,79,80
135120,note_on,48,0,8,,,,,,,,6,,,61,80
135168,note_on,48,0,7,,,,,,,,6,,,79,0
135180,note_on,12,0,7,,,,,,,,6,,,76,80
135216,note_on,96,0,8,,,,,,,,6,,,57,0
135216,note_on,0,0,8,,,,,,,,6,,,61,0
135228,note_on,48,0,7,,,,,,,,6,,,76,0
135240,note_on,12,0,7,,,,,,,,6,,,78,80
135240,note_on,0,0,8,,,,,,,,6,,,62,80
135240,note_on,24,0,8,,,,,,,,6,,,57,80
135288,note_on,48,0,7,,,,,,,,6,,,78,0
135300,note_on,12,0,7,,,,,,,,6,,,74,80
135336,note_on,96,0,8,,,,,,,,6,,,62,0
135336,note_on,0,0,8,,,,,,,,6,,,57,0
135348,note_on,48,0,7,,,,,,,,6,,,74,0
135360,note_on,12,0,7,,,,,,,,6,,,73,80
135360,note_on,24,0,8,,,,,,,,6,,,57,80
135360,note_on,0,0,8,,,,,,,,6,,,64,80
135408,note_on,48,0,7,,,,,,,,6,,,73,0
135420,note_on,12,0,7,,,,,,,,6,,,69,80
135468,note_on,48,0,7,,,,,,,,6,,,69,0
135480,note_on,12,0,7,,,,,,,,6,,,73,80
135528,note_on,48,0,7,,,,,,,,6,,,73,0
135540,note_on,12,0,7,,,,,,,,6,,,76,80
135552,note_on,192,0,8,,,,,,,,6,,,64,0
135552,note_on,0,0,8,,,,,,,,6,,,57,0
135588,note_on,48,0,7,,,,,,,,6,,,76,0
135600,note_on,12,0,7,,,,,,,,6,,,79,80
135600,note_on,0,0,8,,,,,,,,6,,,57,80
135600,note_on,48,0,8,,,,,,,,6,,,61,80
135648,note_on,48,0,7,,,,,,,,6,,,79,0
135660,note_on,12,0,7,,,,,,,,6,,,76,80
135696,note_on,96,0,8,,,,,,,,6,,,57,0
135696,note_on,0,0,8,,,,,,,,6,,,61,0
135708,note_on,48,0,7,,,,,,,,6,,,76,0
135720,note_on,24,0,8,,,,,,,,6,,,57,80
135720,note_on,0,0,8,,,,,,,,6,,,62,80
135720,note_on,12,0,7,,,,,,,,6,,,78,80
135768,note_on,48,0,7,,,,,,,,6,,,78,0
135780,note_on,12,0,7,,,,,,,,6,,,74,80
135816,note_on,96,0,8,,,,,,,,6,,,62,0
135816,note_on,0,0,8,,,,,,,,6,,,57,0
135828,note_on,48,0,7,,,,,,,,6,,,74,0
135840,note_on,6528,0,13,,,,,,,,12,,,33,80
135840,note_on,8448,0,4,,,,,,,,3,,,57,80
135840,note_on,768,0,12,,,,,,,,11,,,45,80
135840,note_on,0,0,8,,,,,,,,6,,,57,80
135840,note_on,24,0,8,,,,,,,,6,,,61,80
135840,note_on,6528,0,2,,,,,,,,1,,,73,80
135840,note_on,0,0,4,,,,,,,,3,,,45,80
135840,note_on,6528,0,1,,,,,,,,0,,,73,80
135840,note_on,8448,0,6,,,,,,,,5,,,45,80
135840,note_on,8448,0,3,,,,,,,,2,,,45,80
135840,note_on,8448,0,5,,,,,,,,4,,,69,80
135840,note_on,768,0,11,,,,,,,,10,,,57,80
135840,note_on,12,0,7,,,,,,,,6,,,81,80
135840,note_on,768,0,10,,,,,,,,8,,,61,80
135840,note_on,768,0,9,,,,,,,,7,,,61,80
135840,note_on,0,0,5,,,,,,,,4,,,57,80
135888,note_on,48,0,10,,,,,,,,8,,,61,0
135888,note_on,48,0,2,,,,,,,,1,,,73,0
135888,note_on,48,0,9,,,,,,,,7,,,61,0
135888,note_on,48,0,1,,,,,,,,0,,,73,0
135900,note_on,12,0,2,,,,,,,,1,,,69,80
135900,note_on,12,0,9,,,,,,,,7,,,57,80
135900,note_on,12,0,10,,,,,,,,8,,,57,80
135900,note_on,12,0,1,,,,,,,,0,,,69,80
135936,note_on,96,0,11,,,,,,,,10,,,57,0
135936,note_on,96,0,3,,,,,,,,2,,,45,0
135936,note_on,96,0,13,,,,,,,,12,,,33,0
135936,note_on,96,0,12,,,,,,,,11,,,45,0
135948,note_on,48,0,2,,,,,,,,1,,,69,0
135948,note_on,48,0,9,,,,,,,,7,,,57,0
135948,note_on,48,0,1,,,,,,,,0,,,69,0
135948,note_on,48,0,10,,,,,,,,8,,,57,0
135960,note_on,24,0,13,,,,,,,,12,,,37,80
135960,note_on,24,0,3,,,,,,,,2,,,49,80
135960,note_on,12,0,10,,,,,,,,8,,,61,80
135960,note_on,12,0,2,,,,,,,,1,,,73,80
135960,note_on,24,0,12,,,,,,,,11,,,49,80
135960,note_on,12,0,9,,,,,,,,7,,,61,80
135960,note_on,12,0,1,,,,,,,,0,,,73,80
135960,note_on,24,0,11,,,,,,,,10,,,61,80
136008,note_on,48,0,11,,,,,,,,10,,,61,0
136008,note_on,48,0,9,,,,,,,,7,,,61,0
136008,note_on,48,0,12,,,,,,,,11,,,49,0
136008,note_on,48,0,10,,,,,,,,8,,,61,0
136008,note_on,48,0,3,,,,,,,,2,,,49,0
136008,note_on,48,0,2,,,,,,,,1,,,73,0
136008,note_on,48,0,1,,,,,,,,0,,,73,0
136008,note_on,48,0,13,,,,,,,,12,,,37,0
136020,note_on,12,0,9,,,,,,,,7,,,64,80
136020,note_on,12,0,10,,,,,,,,8,,,64,80
136020,note_on,12,0,2,,,,,,,,1,,,76,80
136020,note_on,12,0,11,,,,,,,,10,,,64,80
136020,note_on,12,0,12,,,,,,,,11,,,52,80
136020,note_on,12,0,3,,,,,,,,2,,,52,80
136020,note_on,12,0,13,,,,,,,,12,,,40,80
136020,note_on,12,0,1,,,,,,,,0,,,76,80
136032,note_on,0,0,8,,,,,,,,6,,,61,0
136032,note_on,192,0,8,,,,,,,,6,,,57,0
136032,note_on,0,0,5,,,,,,,,4,,,69,0
136032,note_on,192,0,6,,,,,,,,5,,,45,0
136032,note_on,192,0,7,,,,,,,,6,,,81,0
136032,note_on,192,0,5,,,,,,,,4,,,57,0
136068,note_on,48,0,12,,,,,,,,11,,,52,0
136068,note_on,48,0,9,,,,,,,,7,,,64,0
136068,note_on,48,0,13,,,,,,,,12,,,40,0
136068,note_on,48,0,2,,,,,,,,1,,,76,0
136068,note_on,48,0,3,,,,,,,,2,,,52,0
136068,note_on,48,0,1,,,,,,,,0,,,76,0
136068,note_on,48,0,10,,,,,,,,8,,,64,0
136068,note_on,48,0,11,,,,,,,,10,,,64,0
136080,note_on,12,0,10,,,,,,,,8,,,67,80
136080,note_on,12,0,11,,,,,,,,10,,,67,80
136080,note_on,12,0,13,,,,,,,,12,,,43,80
136080,note_on,12,0,3,,,,,,,,2,,,55,80
136080,note_on,12,0,9,,,,,,,,7,,,67,80
136080,note_on,12,0,12,,,,,,,,11,,,55,80
136080,note_on,12,0,1,,,,,,,,0,,,79,80
136080,note_on,12,0,2,,,,,,,,1,,,79,80
136128,note_on,48,0,1,,,,,,,,0,,,79,0
136128,note_on,48,0,2,,,,,,,,1,,,79,0
136128,note_on,48,0,3,,,,,,,,2,,,55,0
136128,note_on,48,0,10,,,,,,,,8,,,67,0
136128,note_on,48,0,12,,,,,,,,11,,,55,0
136128,note_on,48,0,13,,,,,,,,12,,,43,0
136128,note_on,48,0,11,,,,,,,,10,,,67,0
136128,note_on,48,0,9,,,,,,,,7,,,67,0
136140,note_on,12,0,2,,,,,,,,1,,,76,80
136140,note_on,12,0,1,,,,,,,,0,,,76,80
136140,note_on,12,0,11,,,,,,,,10,,,64,80
136140,note_on,12,0,10,,,,,,,,8,,,64,80
136140,note_on,12,0,9,,,,,,,,7,,,64,80
136140,note_on,12,0,3,,,,,,,,2,,,52,80
136140,note_on,12,0,12,,,,,,,,11,,,52,80
136140,note_on,12,0,13,,,,,,,,12,,,40,80
136188,note_on,48,0,9,,,,,,,,7,,,64,0
136188,note_on,48,0,12,,,,,,,,11,,,52,0
136188,note_on,48,0,2,,,,,,,,1,,,76,0
136188,note_on,48,0,3,,,,,,,,2,,,52,0
136188,note_on,48,0,11,,,,,,,,10,,,64,0
136188,note_on,48,0,10,,,,,,,,8,,,64,0
136188,note_on,48,0,1,,,,,,,,0,,,76,0
136188,note_on,48,0,13,,,,,,,,12,,,40,0
136200,note_on,12,0,3,,,,,,,,2,,,54,80
136200,note_on,12,0,1,,,,,,,,0,,,78,80
136200,note_on,12,0,9,,,,,,,,7,,,66,80
136200,note_on,12,0,10,,,,,,,,8,,,66,80
136200,note_on,12,0,2,,,,,,,,1,,,78,80
136200,note_on,12,0,12,,,,,,,,11,,,54,80
136200,note_on,12,0,11,,,,,,,,10,,,66,80
136200,note_on,12,0,13,,,,,,,,12,,,42,80
136248,note_on,48,0,2,,,,,,,,1,,,78,0
136248,note_on,48,0,1,,,,,,,,0,,,78,0
136248,note_on,48,0,10,,,,,,,,8,,,66,0
136248,note_on,48,0,3,,,,,,,,2,,,54,0
136248,note_on,48,0,12,,,,,,,,11,,,54,0
136248,note_on,48,0,11,,,,,,,,10,,,66,0
136248,note_on,48,0,13,,,,,,,,12,,,42,0
136248,note_on,48,0,9,,,,,,,,7,,,66,0
136260,note_on,12,0,12,,,,,,,,11,,,50,80
136260,note_on,12,0,11,,,,,,,,10,,,62,80
136260,note_on,12,0,2,,,,,,,,1,,,74,80
136260,note_on,12,0,9,,,,,,,,7,,,62,80
136260,note_on,12,0,1,,,,,,,,0,,,74,80
136260,note_on,12,0,3,,,,,,,,2,,,50,80
136260,note_on,12,0,10,,,,,,,,8,,,62,80
136260,note_on,12,0,13,,,,,,,,12,,,38,80
136308,note_on,48,0,1,,,,,,,,0,,,74,0
136308,note_on,48,0,11,,,,,,,,10,,,62,0
136308,note_on,48,0,3,,,,,,,,2,,,50,0
136308,note_on,48,0,12,,,,,,,,11,,,50,0
136308,note_on,48,0,9,,,,,,,,7,,,62,0
136308,note_on,48,0,2,,,,,,,,1,,,74,0
136308,note_on,48,0,10,,,,,,,,8,,,62,0
136308,note_on,48,0,13,,,,,,,,12,,,38,0
136320,note_on,12,0,2,,,,,,,,1,,,73,80
136320,note_on,288,0,6,,,,,,,,5,,,45,80
136320,note_on,12,0,10,,,,,,,,8,,,61,80
136320,note_on,12,0,3,,,,,,,,2,,,49,80
136320,note_on,12,0,12,,,,,,,,11,,,49,80
136320,note_on,12,0,1,,,,,,,,0,,,73,80
136320,note_on,12,0,11,,,,,,,,10,,,61,80
136320,note_on,12,0,13,,,,,,,,12,,,37,80
136320,note_on,288,0,5,,,,,,,,4,,,69,80
136320,note_on,0,0,5,,,,,,,,4,,,57,80
136320,note_on,12,0,9,,,,,,,,7,,,61,80
136368,note_on,48,0,13,,,,,,,,12,,,37,0
136368,note_on,48,0,11,,,,,,,,10,,,61,0
136368,note_on,48,0,9,,,,,,,,7,,,61,0
136368,note_on,48,0,12,,,,,,,,11,,,49,0
136368,note_on,48,0,10,,,,,,,,8,,,61,0
136368,note_on,48,0,3,,,,,,,,2,,,49,0
136368,note_on,48,0,1,,,,,,,,0,,,73,0
136368,note_on,48,0,2,,,,,,,,1,,,73,0
136380,note_on,12,0,1,,,,,,,,0,,,69,80
136380,note_on,12,0,12,,,,,,,,11,,,45,80
136380,note_on,12,0,13,,,,,,,,12,,,33,80
136380,note_on,12,0,11,,,,,,,,10,,,57,80
136380,note_on,12,0,2,,,,,,,,1,,,69,80
136380,note_on,12,0,10,,,,,,,,8,,,57,80
136380,note_on,12,0,9,,,,,,,,7,,,57,80
136380,note_on,12,0,3,,,,,,,,2,,,45,80
136428,note_on,48,0,12,,,,,,,,11,,,45,0
136428,note_on,48,0,13,,,,,,,,12,,,33,0
136428,note_on,48,0,2,,,,,,,,1,,,69,0
136428,note_on,48,0,3,,,,,,,,2,,,45,0
136428,note_on,48,0,11,,,,,,,,10,,,57,0
136428,note_on,48,0,9,,,,,,,,7,,,57,0
136428,note_on,48,0,10,,,,,,,,8,,,57,0
136428,note_on,48,0,1,,,,,,,,0,,,69,0
136440,note_on,12,0,1,,,,,,,,0,,,73,80
136440,note_on,12,0,10,,,,,,,,8,,,61,80
136440,note_on,12,0,12,,,,,,,,11,,,49,80
136440,note_on,12,0,9,,,,,,,,7,,,61,80
136440,note_on,12,0,13,,,,,,,,12,,,37,80
136440,note_on,12,0,3,,,,,,,,2,,,49,80
136440,note_on,12,0,11,,,,,,,,10,,,61,80
136440,note_on,12,0,2,,,,,,,,1,,,73,80
136488,note_on,48,0,1,,,,,,,,0,,,73,0
136488,note_on,48,0,13,,,,,,,,12,,,37,0
136488,note_on,48,0,2,,,,,,,,1,,,73,0
136488,note_on,48,0,9,,,,,,,,7,,,61,0
136488,note_on,48,0,3,,,,,,,,2,,,49,0
136488,note_on,48,0,12,,,,,,,,11,,,49,0
136488,note_on,48,0,11,,,,,,,,10,,,61,0
136488,note_on,48,0,10,,,,,,,,8,,,61,0
136500,note_on,12,0,2,,,,,,,,1,,,76,80
136500,note_on,12,0,13,,,,,,,,12,,,40,80
136500,note_on,12,0,10,,,,,,,,8,,,64,80
136500,note_on,12,0,9,,,,,,,,7,,,64,80
136500,note_on,12,0,12,,,,,,,,11,,,52,80
136500,note_on,12,0,11,,,,,,,,10,,,64,80
136500,note_on,12,0,1,,,,,,,,0,,,76,80
136500,note_on,12,0,3,,,,,,,,2,,,52,80
136512,note_on,192,0,5,,,,,,,,4,,,57,0
136512,note_on,192,0,6,,,,,,,,5,,,45,0
136512,note_on,0,0,5,,,,,,,,4,,,69,0
136548,note_on,48,0,9,,,,,,,,7,,,64,0
136548,note_on,48,0,3,,,,,,,,2,,,52,0
136548,note_on,48,0,11,,,,,,,,10,,,64,0
136548,note_on,48,0,12,,,,,,,,11,,,52,0
136548,note_on,48,0,1,,,,,,,,0,,,76,0
136548,note_on,48,0,13,,,,,,,,12,,,40,0
136548,note_on,48,0,2,,,,,,,,1,,,76,0
136548,note_on,48,0,10,,,,,,,,8,,,64,0
136560,note_on,12,0,9,,,,,,,,7,,,67,80
136560,note_on,12,0,12,,,,,,,,11,,,55,80
136560,note_on,12,0,13,,,,,,,,12,,,43,80
136560,note_on,12,0,2,,,,,,,,1,,,79,80
136560,note_on,12,0,1,,,,,,,,0,,,79,80
136560,note_on,12,0,10,,,,,,,,8,,,67,80
136560,note_on,12,0,3,,,,,,,,2,,,55,80
136560,note_on,12,0,11,,,,,,,,10,,,67,80
136608,note_on,48,0,3,,,,,,,,2,,,55,0
136608,note_on,48,0,12,,,,,,,,11,,,55,0
136608,note_on,48,0,9,,,,,,,,7,,,67,0
136608,note_on,48,0,2,,,,,,,,1,,,79,0
136608,note_on,48,0,13,,,,,,,,12,,,43,0
136608,note_on,48,0,1,,,,,,,,0,,,79,0
136608,note_on,48,0,10,,,,,,,,8,,,67,0
136608,note_on,48,0,11,,,,,,,,10,,,67,0
136620,note_on,12,0,2,,,,,,,,1,,,76,80
136620,note_on,12,0,11,,,,,,,,10,,,64,80
136620,note_on,12,0,3,,,,,,,,2,,,52,80
136620,note_on,12,0,9,,,,,,,,7,,,64,80
136620,note_on,12,0,1,,,,,,,,0,,,76,80
136620,note_on,12,0,10,,,,,,,,8,,,64,80
136620,note_on,12,0,13,,,,,,,,12,,,40,80
136620,note_on,12,0,12,,,,,,,,11,,,52,80
136668,note_on,48,0,12,,,,,,,,11,,,52,0
136668,note_on,48,0,13,,,,,,,,12,,,40,0
136668,note_on,48,0,3,,,,,,,,2,,,52,0
136668,note_on,48,0,2,,,,,,,,1,,,76,0
136668,note_on,48,0,1,,,,,,,,0,,,76,0
136668,note_on,48,0,10,,,,,,,,8,,,64,0
136668,note_on,48,0,11,,,,,,,,10,,,64,0
136668,note_on,48,0,9,,,,,,,,7,,,64,0
136680,note_on,12,0,3,,,,,,,,2,,,54,80
136680,note_on,12,0,11,,,,,,,,10,,,66,80
136680,note_on,12,0,10,,,,,,,,8,,,66,80
136680,note_on,12,0,13,,,,,,,,12,,,42,80
136680,note_on,12,0,9,,,,,,,,7,,,66,80
136680,note_on,12,0,2,,,,,,,,1,,,78,80
136680,note_on,12,0,1,,,,,,,,0,,,78,80
136680,note_on,12,0,12,,,,,,,,11,,,54,80
136704,note_on,864,0,4,,,,,,,,3,,,45,0
136704,note_on,0,0,4,,,,,,,,3,,,57,0
136728,note_on,48,0,10,,,,,,,,8,,,66,0
136728,note_on,48,0,2,,,,,,,,1,,,78,0
136728,note_on,48,0,3,,,,,,,,2,,,54,0
136728,note_on,48,0,9,,,,,,,,7,,,66,0
136728,note_on,48,0,13,,,,,,,,12,,,42,0
136728,note_on,48,0,1,,,,,,,,0,,,78,0
136728,note_on,48,0,11,,,,,,,,10,,,66,0
136728,note_on,48,0,12,,,,,,,,11,,,54,0
136740,note_on,12,0,1,,,,,,,,0,,,74,80
136740,note_on,12,0,13,,,,,,,,12,,,38,80
136740,note_on,12,0,12,,,,,,,,11,,,50,80
136740,note_on,12,0,10,,,,,,,,8,,,62,80
136740,note_on,12,0,11,,,,,,,,10,,,62,80
136740,note_on,12,0,3,,,,,,,,2,,,50,80
136740,note_on,12,0,2,,,,,,,,1,,,74,80
136740,note_on,12,0,9,,,,,,,,7,,,62,80
136788,note_on,48,0,2,,,,,,,,1,,,74,0
136788,note_on,48,0,9,,,,,,,,7,,,62,0
136788,note_on,48,0,13,,,,,,,,12,,,38,0
136788,note_on,48,0,12,,,,,,,,11,,,50,0
136788,note_on,48,0,1,,,,,,,,0,,,74,0
136788,note_on,48,0,3,,,,,,,,2,,,50,0
136788,note_on,48,0,11,,,,,,,,10,,,62,0
136788,note_on,48,0,10,,,,,,,,8,,,62,0
136800,note_on,12,0,3,,,,,,,,2,,,57,80
136800,note_on,12,0,13,,,,,,,,12,,,45,80
136800,note_on,0,0,8,,,,,,,,6,,,45,80
136800,note_on,768,0,8,,,,,,,,6,,,33,80
136800,note_on,12,0,12,,,,,,,,11,,,57,80
136800,note_on,12,0,10,,,,,,,,8,,,69,80
136800,note_on,96,0,4,,,,,,,,3,,,57,80
136800,note_on,0,0,4,,,,,,,,3,,,45,80
136800,note_on,12,0,9,,,,,,,,7,,,69,80
136800,note_on,12,0,2,,,,,,,,1,,,81,80
136800,note_on,288,0,6,,,,,,,,5,,,45,80
136800,note_on,12,0,11,,,,,,,,10,,,69,80
136800,note_on,12,0,1,,,,,,,,0,,,81,80
136800,note_on,0,0,5,,,,,,,,4,,,57,80
136800,note_on,288,0,5,,,,,,,,4,,,69,80
136860,note_on,828,0,7,,,,,,,,6,,,57,80
136908,note_on,48,0,7,,,,,,,,6,,,57,0
136920,note_on,12,0,7,,,,,,,,6,,,59,80
136968,note_on,48,0,7,,,,,,,,6,,,59,0
136980,note_on,12,0,7,,,,,,,,6,,,61,80
136992,note_on,192,0,5,,,,,,,,4,,,57,0
136992,note_on,192,0,2,,,,,,,,1,,,81,0
136992,note_on,192,0,9,,,,,,,,7,,,69,0
136992,note_on,192,0,12,,,,,,,,11,,,57,0
136992,note_on,0,0,4,,,,,,,,3,,,57,0
136992,note_on,0,0,5,,,,,,,,4,,,69,0
136992,note_on,192,0,11,,,,,,,,10,,,69,0
136992,note_on,192,0,10,,,,,,,,8,,,69,0
136992,note_on,192,0,4,,,,,,,,3,,,45,0
136992,note_on,192,0,3,,,,,,,,2,,,57,0
136992,note_on,192,0,13,,,,,,,,12,,,45,0
136992,note_on,0,0,8,,,,,,,,6,,,33,0
136992,note_on,192,0,1,,,,,,,,0,,,81,0
136992,note_on,192,0,6,,,,,,,,5,,,45,0
136992,note_on,192,0,8,,,,,,,,6,,,45,0
137028,note_on,48,0,7,,,,,,,,6,,,61,0
137040,note_on,12,0,7,,,,,,,,6,,,62,80
137088,note_on,48,0,7,,,,,,,,6,,,62,0
137100,note_on,12,0,7,,,,,,,,6,,,64,80
137148,note_on,48,0,7,,,,,,,,6,,,64,0
137160,note_on,12,0,7,,,,,,,,6,,,66,80
137208,note_on,48,0,7,,,,,,,,6,,,66,0
137220,note_on,12,0,7,,,,,,,,6,,,68,80
137268,note_on,48,0,7,,,,,,,,6,,,68,0
137280,note_on,12,0,7,,,,,,,,6,,,69,80
137328,note_on,48,0,7,,,,,,,,6,,,69,0
137340,note_on,12,0,7,,,,,,,,6,,,69,80
137388,note_on,48,0,7,,,,,,,,6,,,69,0
137400,note_on,12,0,7,,,,,,,,6,,,71,80
137448,note_on,48,0,7,,,,,,,,6,,,71,0
137460,note_on,12,0,7,,,,,,,,6,,,73,80
137508,note_on,48,0,7,,,,,,,,6,,,73,0
137520,note_on,12,0,7,,,,,,,,6,,,74,80
137568,note_on,48,0,7,,,,,,,,6,,,74,0
137580,note_on,12,0,7,,,,,,,,6,,,76,80
137628,note_on,48,0,7,,,,,,,,6,,,76,0
137640,note_on,12,0,7,,,,,,,,6,,,78,80
137688,note_on,48,0,7,,,,,,,,6,,,78,0
137700,note_on,12,0,7,,,,,,,,6,,,80,80
137748,note_on,48,0,7,,,,,,,,6,,,80,0
137760,note_on,768,0,9,,,,,,,,7,,,81,80
137760,note_on,768,0,11,,,,,,,,10,,,74,80
137760,note_on,768,0,10,,,,,,,,8,,,78,80
137760,note_on,12,0,7,,,,,,,,6,,,81,80
137856,note_on,96,0,10,,,,,,,,8,,,78,0
137856,note_on,96,0,11,,,,,,,,10,,,74,0
137880,note_on,24,0,10,,,,,,,,8,,,78,80
137880,note_on,24,0,11,,,,,,,,10,,,74,80
137952,note_on,192,0,7,,,,,,,,6,,,81,0
137976,note_on,96,0,10,,,,,,,,8,,,78,0
137976,note_on,96,0,11,,,,,,,,10,,,74,0
138000,note_on,24,0,11,,,,,,,,10,,,74,80
138000,note_on,24,0,10,,,,,,,,8,,,78,80
138048,note_on,288,0,9,,,,,,,,7,,,81,0
138096,note_on,96,0,11,,,,,,,,10,,,74,0
138096,note_on,96,0,10,,,,,,,,8,,,78,0
138120,note_on,72,0,9,,,,,,,,7,,,86,80
138120,note_on,24,0,11,,,,,,,,10,,,74,80
138120,note_on,24,0,10,,,,,,,,8,,,78,80
138216,note_on,96,0,9,,,,,,,,7,,,86,0
138216,note_on,96,0,11,,,,,,,,10,,,74,0
138216,note_on,96,0,10,,,,,,,,8,,,78,0
138240,note_on,24,0,9,,,,,,,,7,,,85,80
138240,note_on,24,0,11,,,,,,,,10,,,76,80
138240,note_on,24,0,10,,,,,,,,8,,,81,80
138336,note_on,96,0,11,,,,,,,,10,,,76,0
138336,note_on,96,0,10,,,,,,,,8,,,81,0
138336,note_on,96,0,9,,,,,,,,7,,,85,0
138360,note_on,24,0,10,,,,,,,,8,,,81,80
138360,note_on,24,0,11,,,,,,,,10,,,76,80
138360,note_on,24,0,9,,,,,,,,7,,,85,80
138456,note_on,96,0,10,,,,,,,,8,,,81,0
138456,note_on,96,0,11,,,,,,,,10,,,76,0
138456,note_on,96,0,9,,,,,,,,7,,,85,0
138480,note_on,24,0,10,,,,,,,,8,,,81,80
138480,note_on,24,0,11,,,,,,,,10,,,76,80
138480,note_on,24,0,9,,,,,,,,7,,,85,80
138576,note_on,96,0,9,,,,,,,,7,,,85,0
138576,note_on,96,0,10,,,,,,,,8,,,81,0
138576,note_on,96,0,11,,,,,,,,10,,,76,0
138600,note_on,24,0,10,,,,,,,,8,,,81,80
138600,note_on,24,0,11,,,,,,,,10,,,76,80
138600,note_on,24,0,9,,,,,,,,7,,,85,80
138648,note_on,48,0,9,,,,,,,,7,,,85,0
138660,note_on,12,0,9,,,,,,,,7,,,86,80
138696,note_on,96,0,10,,,,,,,,8,,,81,0
138696,note_on,96,0,11,,,,,,,,10,,,76,0
138708,note_on,48,0,9,,,,,,,,7,,,86,0
138720,note_on,12,0,9,,,,,,,,7,,,83,80
138720,note_on,24,0,10,,,,,,,,8,,,80,80
138720,note_on,0,0,11,,,,,,,,10,,,74,80
138720,note_on,24,0,11,,,,,,,,10,,,64,80
138816,note_on,96,0,11,,,,,,,,10,,,74,0
138816,note_on,96,0,9,,,,,,,,7,,,83,0
138816,note_on,96,0,10,,,,,,,,8,,,80,0
138816,note_on,0,0,11,,,,,,,,10,,,64,0
138840,note_on,0,0,11,,,,,,,,10,,,74,80
138840,note_on,24,0,11,,,,,,,,10,,,64,80
138840,note_on,24,0,9,,,,,,,,7,,,83,80
138840,note_on,24,0,10,,,,,,,,8,,,80,80
138936,note_on,96,0,11,,,,,,,,10,,,74,0
138936,note_on,96,0,9,,,,,,,,7,,,83,0
138936,note_on,0,0,11,,,,,,,,10,,,64,0
138936,note_on,96,0,10,,,,,,,,8,,,80,0
138960,note_on,0,0,11,,,,,,,,10,,,74,80
138960,note_on,24,0,10,,,,,,,,8,,,80,80
138960,note_on,24,0,9,,,,,,,,7,,,83,80
138960,note_on,24,0,11,,,,,,,,10,,,64,80
139056,note_on,96,0,9,,,,,,,,7,,,83,0
139056,note_on,96,0,11,,,,,,,,10,,,74,0
139056,note_on,96,0,10,,,,,,,,8,,,80,0
139056,note_on,0,0,11,,,,,,,,10,,,64,0
139080,note_on,24,0,9,,,,,,,,7,,,83,80
139080,note_on,24,0,10,,,,,,,,8,,,80,80
139080,note_on,24,0,11,,,,,,,,10,,,74,80
139080,note_on,0,0,11,,,,,,,,10,,,64,80
139128,note_on,48,0,9,,,,,,,,7,,,83,0
139140,note_on,12,0,9,,,,,,,,7,,,85,80
139176,note_on,0,0,11,,,,,,,,10,,,74,0
139176,note_on,96,0,11,,,,,,,,10,,,64,0
139176,note_on,96,0,10,,,,,,,,8,,,80,0
139188,note_on,48,0,9,,,,,,,,7,,,85,0
139200,note_on,24,0,11,,,,,,,,10,,,73,80
139200,note_on,12,0,9,,,,,,,,7,,,81,80
139200,note_on,24,0,10,,,,,,,,8,,,81,80
139200,note_on,0,0,11,,,,,,,,10,,,69,80
139392,note_on,0,0,11,,,,,,,,10,,,73,0
139392,note_on,192,0,9,,,,,,,,7,,,81,0
139392,note_on,192,0,11,,,,,,,,10,,,69,0
139392,note_on,192,0,10,,,,,,,,8,,,81,0
139680,note_on,288,0,11,,,,,,,,10,,,62,80
139680,note_on,2688,0,12,,,,,,,,11,,,59,80
139680,note_on,288,0,9,,,,,,,,7,,,74,80
139680,note_on,288,0,10,,,,,,,,8,,,67,80
139776,note_on,96,0,10,,,,,,,,8,,,67,0
139776,note_on,96,0,12,,,,,,,,11,,,59,0
139776,note_on,96,0,11,,,,,,,,10,,,62,0
139800,note_on,24,0,10,,,,,,,,8,,,67,80
139800,note_on,24,0,11,,,,,,,,10,,,62,80
139800,note_on,24,0,12,,,,,,,,11,,,59,80
139896,note_on,96,0,11,,,,,,,,10,,,62,0
139896,note_on,96,0,10,,,,,,,,8,,,67,0
139896,note_on,96,0,12,,,,,,,,11,,,59,0
139920,note_on,24,0,10,,,,,,,,8,,,67,80
139920,note_on,24,0,11,,,,,,,,10,,,62,80
139920,note_on,24,0,12,,,,,,,,11,,,59,80
139968,note_on,288,0,9,,,,,,,,7,,,74,0
140016,note_on,96,0,11,,,,,,,,10,,,62,0
140016,note_on,96,0,12,,,,,,,,11,,,59,0
140016,note_on,96,0,10,,,,,,,,8,,,67,0
140040,note_on,72,0,9,,,,,,,,7,,,79,80
140040,note_on,24,0,11,,,,,,,,10,,,62,80
140040,note_on,24,0,12,,,,,,,,11,,,59,80
140040,note_on,24,0,10,,,,,,,,8,,,67,80
140136,note_on,96,0,12,,,,,,,,11,,,59,0
140136,note_on,96,0,9,,,,,,,,7,,,79,0
140136,note_on,96,0,11,,,,,,,,10,,,62,0
140136,note_on,96,0,10,,,,,,,,8,,,67,0
140160,note_on,24,0,9,,,,,,,,7,,,78,80
140160,note_on,24,0,10,,,,,,,,8,,,74,80
140160,note_on,24,0,12,,,,,,,,11,,,57,80
140160,note_on,24,0,11,,,,,,,,10,,,69,80
140256,note_on,96,0,11,,,,,,,,10,,,69,0
140256,note_on,96,0,9,,,,,,,,7,,,78,0
140256,note_on,96,0,10,,,,,,,,8,,,74,0
140256,note_on,96,0,12,,,,,,,,11,,,57,0
140280,note_on,24,0,11,,,,,,,,10,,,69,80
140280,note_on,24,0,12,,,,,,,,11,,,57,80
140280,note_on,24,0,10,,,,,,,,8,,,74,80
140280,note_on,24,0,9,,,,,,,,7,,,78,80
140376,note_on,96,0,9,,,,,,,,7,,,78,0
140376,note_on,96,0,10,,,,,,,,8,,,74,0
140376,note_on,96,0,12,,,,,,,,11,,,57,0
140376,note_on,96,0,11,,,,,,,,10,,,69,0
140400,note_on,24,0,11,,,,,,,,10,,,69,80
140400,note_on,24,0,9,,,,,,,,7,,,78,80
140400,note_on,24,0,12,,,,,,,,11,,,57,80
140400,note_on,24,0,10,,,,,,,,8,,,74,80
140496,note_on,96,0,12,,,,,,,,11,,,57,0
140496,note_on,96,0,10,,,,,,,,8,,,74,0
140496,note_on,96,0,9,,,,,,,,7,,,78,0
140496,note_on,96,0,11,,,,,,,,10,,,69,0
140520,note_on,24,0,10,,,,,,,,8,,,74,80
140520,note_on,24,0,12,,,,,,,,11,,,57,80
140520,note_on,24,0,11,,,,,,,,10,,,69,80
140520,note_on,24,0,9,,,,,,,,7,,,78,80
140568,note_on,48,0,9,,,,,,,,7,,,78,0
140580,note_on,12,0,9,,,,,,,,7,,,79,80
140616,note_on,96,0,11,,,,,,,,10,,,69,0
140616,note_on,96,0,12,,,,,,,,11,,,57,0
140616,note_on,96,0,10,,,,,,,,8,,,74,0
140628,note_on,48,0,9,,,,,,,,7,,,79,0
140640,note_on,24,0,12,,,,,,,,11,,,45,80
140640,note_on,24,0,11,,,,,,,,10,,,67,80
140640,note_on,12,0,9,,,,,,,,7,,,76,80
140640,note_on,24,0,10,,,,,,,,8,,,73,80
140736,note_on,96,0,11,,,,,,,,10,,,67,0
140736,note_on,96,0,9,,,,,,,,7,,,76,0
140736,note_on,96,0,10,,,,,,,,8,,,73,0
140736,note_on,96,0,12,,,,,,,,11,,,45,0
140760,note_on,24,0,9,,,,,,,,7,,,76,80
140760,note_on,24,0,10,,,,,,,,8,,,73,80
140760,note_on,24,0,12,,,,,,,,11,,,45,80
140760,note_on,24,0,11,,,,,,,,10,,,67,80
140856,note_on,96,0,10,,,,,,,,8,,,73,0
140856,note_on,96,0,12,,,,,,,,11,,,45,0
140856,note_on,96,0,11,,,,,,,,10,,,67,0
140856,note_on,96,0,9,,,,,,,,7,,,76,0
140880,note_on,24,0,10,,,,,,,,8,,,73,80
140880,note_on,24,0,12,,,,,,,,11,,,45,80
140880,note_on,24,0,11,,,,,,,,10,,,67,80
140880,note_on,24,0,9,,,,,,,,7,,,76,80
140976,note_on,96,0,10,,,,,,,,8,,,73,0
140976,note_on,96,0,12,,,,,,,,11,,,45,0
140976,note_on,96,0,11,,,,,,,,10,,,67,0
140976,note_on,96,0,9,,,,,,,,7,,,76,0
141000,note_on,24,0,12,,,,,,,,11,,,45,80
141000,note_on,24,0,10,,,,,,,,8,,,73,80
141000,note_on,24,0,11,,,,,,,,10,,,67,80
141000,note_on,24,0,9,,,,,,,,7,,,76,80
141048,note_on,48,0,9,,,,,,,,7,,,76,0
141060,note_on,12,0,9,,,,,,,,7,,,78,80
141096,note_on,96,0,12,,,,,,,,11,,,45,0
141096,note_on,96,0,11,,,,,,,,10,,,67,0
141096,note_on,96,0,10,,,,,,,,8,,,73,0
141108,note_on,48,0,9,,,,,,,,7,,,78,0
141120,note_on,24,0,11,,,,,,,,10,,,66,80
141120,note_on,24,0,10,,,,,,,,8,,,74,80
141120,note_on,3168,0,7,,,,,,,,6,,,74,80
141120,note_on,12,0,9,,,,,,,,7,,,74,80
141120,note_on,24,0,12,,,,,,,,11,,,50,80
141184,note_on,64,0,7,,,,,,,,6,,,74,0
141200,note_on,16,0,7,,,,,,,,6,,,76,80
141264,note_on,64,0,7,,,,,,,,6,,,76,0
141280,note_on,16,0,7,,,,,,,,6,,,77,80
141312,note_on,192,0,12,,,,,,,,11,,,50,0
141312,note_on,192,0,9,,,,,,,,7,,,74,0
141312,note_on,192,0,10,,,,,,,,8,,,74,0
141312,note_on,192,0,11,,,,,,,,10,,,66,0
141344,note_on,64,0,7,,,,,,,,6,,,77,0
141360,note_on,16,0,7,,,,,,,,6,,,78,80
141424,note_on,64,0,7,,,,,,,,6,,,78,0
141440,note_on,16,0,7,,,,,,,,6,,,79,80
141504,note_on,64,0,7,,,,,,,,6,,,79,0
141520,note_on,16,0,7,,,,,,,,6,,,80,80
141584,note_on,64,0,7,,,,,,,,6,,,80,0
141600,note_on,4608,0,8,,,,,,,,6,,,69,80
141600,note_on,0,0,8,,,,,,,,6,,,66,80
141600,note_on,16,0,7,,,,,,,,6,,,81,80
141696,note_on,96,0,8,,,,,,,,6,,,66,0
141696,note_on,0,0,8,,,,,,,,6,,,69,0
141720,note_on,24,0,8,,,,,,,,6,,,69,80
141720,note_on,0,0,8,,,,,,,,6,,,66,80
141816,note_on,96,0,8,,,,,,,,6,,,66,0
141816,note_on,0,0,8,,,,,,,,6,,,69,0
141840,note_on,24,0,8,,,,,,,,6,,,66,80
141840,note_on,0,0,8,,,,,,,,6,,,69,80
141888,note_on,288,0,7,,,,,,,,6,,,81,0
141936,note_on,96,0,8,,,,,,,,6,,,69,0
141936,note_on,0,0,8,,,,,,,,6,,,66,0
141960,note_on,0,0,8,,,,,,,,6,,,66,80
141960,note_on,24,0,8,,,,,,,,6,,,69,80
141960,note_on,72,0,7,,,,,,,,6,,,86,80
142056,note_on,96,0,7,,,,,,,,6,,,86,0
142056,note_on,96,0,8,,,,,,,,6,,,66,0
142056,note_on,0,0,8,,,,,,,,6,,,69,0
142080,note_on,24,0,8,,,,,,,,6,,,64,80
142080,note_on,24,0,7,,,,,,,,6,,,85,80
142080,note_on,0,0,8,,,,,,,,6,,,69,80
142176,note_on,96,0,7,,,,,,,,6,,,85,0
142200,note_on,24,0,7,,,,,,,,6,,,85,80
142272,note_on,0,0,8,,,,,,,,6,,,64,0
142272,note_on,192,0,8,,,,,,,,6,,,69,0
142296,note_on,96,0,7,,,,,,,,6,,,85,0
142320,note_on,24,0,7,,,,,,,,6,,,85,80
142416,note_on,96,0,7,,,,,,,,6,,,85,0
142440,note_on,24,0,7,,,,,,,,6,,,85,80
142488,note_on,48,0,7,,,,,,,,6,,,85,0
142500,note_on,12,0,7,,,,,,,,6,,,86,80
142548,note_on,48,0,7,,,,,,,,6,,,86,0
142560,note_on,0,0,8,,,,,,,,6,,,68,80
142560,note_on,0,0,8,,,,,,,,6,,,64,80
142560,note_on,288,0,8,,,,,,,,6,,,74,80
142560,note_on,12,0,7,,,,,,,,6,,,83,80
142656,note_on,96,0,7,,,,,,,,6,,,83,0
142680,note_on,24,0,7,,,,,,,,6,,,83,80
142752,note_on,0,0,8,,,,,,,,6,,,74,0
142752,note_on,192,0,8,,,,,,,,6,,,68,0
142752,note_on,0,0,8,,,,,,,,6,,,64,0
142776,note_on,96,0,7,,,,,,,,6,,,83,0
142800,note_on,24,0,7,,,,,,,,6,,,83,80
142896,note_on,96,0,7,,,,,,,,6,,,83,0
142920,note_on,24,0,7,,,,,,,,6,,,83,80
142968,note_on,48,0,7,,,,,,,,6,,,83,0
142980,note_on,12,0,7,,,,,,,,6,,,85,80
143028,note_on,48,0,7,,,,,,,,6,,,85,0
143040,note_on,12,0,7,,,,,,,,6,,,81,80
143040,note_on,288,0,8,,,,,,,,6,,,69,80
143040,note_on,0,0,8,,,,,,,,6,,,73,80
143104,note_on,64,0,7,,,,,,,,6,,,81,0
143120,note_on,16,0,7,,,,,,,,6,,,80,80
143184,note_on,64,0,7,,,,,,,,6,,,80,0
143200,note_on,16,0,7,,,,,,,,6,,,79,80
143232,note_on,0,0,8,,,,,,,,6,,,69,0
143232,note_on,192,0,8,,,,,,,,6,,,73,0
143264,note_on,64,0,7,,,,,,,,6,,,79,0
143280,note_on,16,0,7,,,,,,,,6,,,78,80
143344,note_on,64,0,7,,,,,,,,6,,,78,0
143360,note_on,16,0,7,,,,,,,,6,,,77,80
143424,note_on,64,0,7,,,,,,,,6,,,77,0
143440,note_on,16,0,7,,,,,,,,6,,,76,80
143504,note_on,64,0,7,,,,,,,,6,,,76,0
143520,note_on,0,0,8,,,,,,,,6,,,62,80
143520,note_on,288,0,8,,,,,,,,6,,,59,80
143520,note_on,6528,0,3,,,,,,,,2,,,62,80
143520,note_on,16,0,7,,,,,,,,6,,,74,80
143616,note_on,0,0,8,,,,,,,,6,,,59,0
143616,note_on,96,0,8,,,,,,,,6,,,62,0
143640,note_on,0,0,8,,,,,,,,6,,,62,80
143640,note_on,24,0,8,,,,,,,,6,,,59,80
143736,note_on,96,0,8,,,,,,,,6,,,62,0
143736,note_on,0,0,8,,,,,,,,6,,,59,0
143760,note_on,0,0,8,,,,,,,,6,,,59,80
143760,note_on,24,0,8,,,,,,,,6,,,62,80
143808,note_on,288,0,3,,,,,,,,2,,,62,0
143808,note_on,288,0,7,,,,,,,,6,,,74,0
143856,note_on,96,0,8,,,,,,,,6,,,59,0
143856,note_on,0,0,8,,,,,,,,6,,,62,0
143880,note_on,24,0,8,,,,,,,,6,,,62,80
143880,note_on,0,0,8,,,,,,,,6,,,59,80
143880,note_on,72,0,7,,,,,,,,6,,,79,80
143880,note_on,72,0,3,,,,,,,,2,,,67,80
143976,note_on,96,0,3,,,,,,,,2,,,67,0
143976,note_on,0,0,8,,,,,,,,6,,,62,0
143976,note_on,96,0,8,,,,,,,,6,,,59,0
143976,note_on,96,0,7,,,,,,,,6,,,79,0
144000,note_on,0,0,8,,,,,,,,6,,,57,80
144000,note_on,24,0,8,,,,,,,,6,,,62,80
144000,note_on,24,0,7,,,,,,,,6,,,78,80
144000,note_on,24,0,3,,,,,,,,2,,,66,80
144096,note_on,96,0,3,,,,,,,,2,,,66,0
144096,note_on,96,0,7,,,,,,,,6,,,78,0
144120,note_on,24,0,3,,,,,,,,2,,,66,80
144120,note_on,24,0,7,,,,,,,,6,,,78,80
144192,note_on,192,0,8,,,,,,,,6,,,57,0
144192,note_on,0,0,8,,,,,,,,6,,,62,0
144216,note_on,96,0,3,,,,,,,,2,,,66,0
144216,note_on,96,0,7,,,,,,,,6,,,78,0
144240,note_on,24,0,3,,,,,,,,2,,,66,80
144240,note_on,24,0,7,,,,,,,,6,,,78,80
144336,note_on,96,0,3,,,,,,,,2,,,66,0
144336,note_on,96,0,7,,,,,,,,6,,,78,0
144360,note_on,24,0,7,,,,,,,,6,,,78,80
144360,note_on,24,0,3,,,,,,,,2,,,66,80
144408,note_on,48,0,3,,,,,,,,2,,,66,0
144408,note_on,48,0,7,,,,,,,,6,,,78,0
144420,note_on,12,0,3,,,,,,,,2,,,67,80
144420,note_on,12,0,7,,,,,,,,6,,,79,80
144468,note_on,48,0,7,,,,,,,,6,,,79,0
144468,note_on,48,0,3,,,,,,,,2,,,67,0
144480,note_on,0,0,8,,,,,,,,6,,,67,80
144480,note_on,0,0,8,,,,,,,,6,,,61,80
144480,note_on,288,0,8,,,,,,,,6,,,57,80
144480,note_on,12,0,3,,,,,,,,2,,,64,80
144480,note_on,12,0,7,,,,,,,,6,,,76,80
144576,note_on,96,0,3,,,,,,,,2,,,64,0
144576,note_on,96,0,7,,,,,,,,6,,,76,0
144600,note_on,24,0,7,,,,,,,,6,,,76,80
144600,note_on,24,0,3,,,,,,,,2,,,64,80
144672,note_on,192,0,8,,,,,,,,6,,,67,0
144672,note_on,0,0,8,,,,,,,,6,,,61,0
144672,note_on,0,0,8,,,,,,,,6,,,57,0
144696,note_on,96,0,3,,,,,,,,2,,,64,0
144696,note_on,96,0,7,,,,,,,,6,,,76,0
144720,note_on,24,0,3,,,,,,,,2,,,64,80
144720,note_on,24,0,7,,,,,,,,6,,,76,80
144816,note_on,96,0,3,,,,,,,,2,,,64,0
144816,note_on,96,0,7,,,,,,,,6,,,76,0
144840,note_on,24,0,7,,,,,,,,6,,,76,80
144840,note_on,24,0,3,,,,,,,,2,,,64,80
144888,note_on,48,0,7,,,,,,,,6,,,76,0
144888,note_on,48,0,3,,,,,,,,2,,,64,0
144900,note_on,12,0,3,,,,,,,,2,,,66,80
144900,note_on,12,0,7,,,,,,,,6,,,78,80
144948,note_on,48,0,3,,,,,,,,2,,,66,0
144948,note_on,48,0,7,,,,,,,,6,,,78,0
144960,note_on,0,0,8,,,,,,,,6,,,62,80
144960,note_on,288,0,8,,,,,,,,6,,,66,80
144960,note_on,12,0,7,,,,,,,,6,,,74,80
144960,note_on,12,0,3,,,,,,,,2,,,62,80
145152,note_on,192,0,3,,,,,,,,2,,,62,0
145152,note_on,0,0,8,,,,,,,,6,,,66,0
145152,note_on,192,0,8,,,,,,,,6,,,62,0
145152,note_on,192,0,7,,,,,,,,6,,,74,0
145200,note_on,48,0,7,,,,,,,,6,,,62,80
145248,note_on,48,0,7,,,,,,,,6,,,62,0
145260,note_on,12,0,7,,,,,,,,6,,,66,80
145308,note_on,48,0,7,,,,,,,,6,,,66,0
145320,note_on,12,0,7,,,,,,,,6,,,69,80
145368,note_on,48,0,7,,,,,,,,6,,,69,0
145380,note_on,12,0,7,,,,,,,,6,,,74,80
145428,note_on,48,0,7,,,,,,,,6,,,74,0
145440,note_on,12,0,7,,,,,,,,6,,,64,80
145440,note_on,4128,0,10,,,,,,,,8,,,57,80
145440,note_on,288,0,8,,,,,,,,6,,,57,80
145440,note_on,4128,0,12,,,,,,,,11,,,57,80
145440,note_on,0,0,8,,,,,,,,6,,,45,80
145440,note_on,4128,0,11,,,,,,,,10,,,52,80
145440,note_on,8448,0,13,,,,,,,,12,,,45,80
145440,note_on,8448,0,1,,,,,,,,0,,,74,80
145440,note_on,4128,0,9,,,,,,,,7,,,62,80
145488,note_on,48,0,7,,,,,,,,6,,,64,0
145500,note_on,12,0,7,,,,,,,,6,,,69,80
145536,note_on,96,0,1,,,,,,,,0,,,74,0
145536,note_on,96,0,9,,,,,,,,7,,,62,0
145548,note_on,48,0,7,,,,,,,,6,,,69,0
145560,note_on,12,0,7,,,,,,,,6,,,74,80
145560,note_on,24,0,1,,,,,,,,0,,,73,80
145560,note_on,24,0,9,,,,,,,,7,,,61,80
145608,note_on,48,0,7,,,,,,,,6,,,74,0
145620,note_on,12,0,7,,,,,,,,6,,,73,80
145632,note_on,192,0,10,,,,,,,,8,,,57,0
145632,note_on,192,0,11,,,,,,,,10,,,52,0
145632,note_on,192,0,13,,,,,,,,12,,,45,0
145632,note_on,192,0,8,,,,,,,,6,,,45,0
145632,note_on,0,0,8,,,,,,,,6,,,57,0
145632,note_on,192,0,12,,,,,,,,11,,,57,0
145656,note_on,96,0,9,,,,,,,,7,,,61,0
145656,note_on,96,0,1,,,,,,,,0,,,73,0
145668,note_on,48,0,7,,,,,,,,6,,,73,0
145680,note_on,12,0,7,,,,,,,,6,,,64,80
145728,note_on,48,0,7,,,,,,,,6,,,64,0
145740,note_on,12,0,7,,,,,,,,6,,,69,80
145788,note_on,48,0,7,,,,,,,,6,,,69,0
145800,note_on,12,0,7,,,,,,,,6,,,73,80
145848,note_on,48,0,7,,,,,,,,6,,,73,0
145860,note_on,12,0,7,,,,,,,,6,,,76,80
145908,note_on,48,0,7,,,,,,,,6,,,76,0
145920,note_on,288,0,8,,,,,,,,6,,,38,80
145920,note_on,0,0,8,,,,,,,,6,,,50,80
145920,note_on,264,0,9,,,,,,,,7,,,64,80
145920,note_on,288,0,10,,,,,,,,8,,,57,80
145920,note_on,12,0,7,,,,,,,,6,,,66,80
145920,note_on,264,0,1,,,,,,,,0,,,76,80
145920,note_on,288,0,13,,,,,,,,12,,,38,80
145920,note_on,288,0,11,,,,,,,,10,,,54,80
145920,note_on,288,0,12,,,,,,,,11,,,50,80
145968,note_on,48,0,7,,,,,,,,6,,,66,0
145980,note_on,12,0,7,,,,,,,,6,,,69,80
146016,note_on,96,0,9,,,,,,,,7,,,64,0
146016,note_on,96,0,1,,,,,,,,0,,,76,0
146028,note_on,48,0,7,,,,,,,,6,,,69,0
146040,note_on,12,0,7,,,,,,,,6,,,76,80
146040,note_on,24,0,1,,,,,,,,0,,,74,80
146040,note_on,24,0,9,,,,,,,,7,,,62,80
146088,note_on,48,0,7,,,,,,,,6,,,76,0
146100,note_on,12,0,7,,,,,,,,6,,,74,80
146112,note_on,192,0,13,,,,,,,,12,,,38,0
146112,note_on,192,0,11,,,,,,,,10,,,54,0
146112,note_on,192,0,12,,,,,,,,11,,,50,0
146112,note_on,0,0,8,,,,,,,,6,,,38,0
146112,note_on,192,0,8,,,,,,,,6,,,50,0
146112,note_on,192,0,10,,,,,,,,8,,,57,0
146136,note_on,96,0,1,,,,,,,,0,,,74,0
146136,note_on,96,0,9,,,,,,,,7,,,62,0
146148,note_on,48,0,7,,,,,,,,6,,,74,0
146160,note_on,12,0,7,,,,,,,,6,,,66,80
146208,note_on,48,0,7,,,,,,,,6,,,66,0
146220,note_on,12,0,7,,,,,,,,6,,,69,80
146268,note_on,48,0,7,,,,,,,,6,,,69,0
146280,note_on,12,0,7,,,,,,,,6,,,74,80
146328,note_on,48,0,7,,,,,,,,6,,,74,0
146340,note_on,12,0,7,,,,,,,,6,,,78,80
146388,note_on,48,0,7,,,,,,,,6,,,78,0
146400,note_on,288,0,10,,,,,,,,8,,,61,80
146400,note_on,264,0,1,,,,,,,,0,,,78,80
146400,note_on,264,0,9,,,,,,,,7,,,66,80
146400,note_on,12,0,7,,,,,,,,6,,,69,80
146400,note_on,0,0,8,,,,,,,,6,,,45,80
146400,note_on,288,0,8,,,,,,,,6,,,33,80
146400,note_on,288,0,11,,,,,,,,10,,,57,80
146400,note_on,288,0,13,,,,,,,,12,,,33,80
146400,note_on,288,0,12,,,,,,,,11,,,45,80
146448,note_on,48,0,7,,,,,,,,6,,,69,0
146460,note_on,12,0,7,,,,,,,,6,,,73,80
146496,note_on,96,0,9,,,,,,,,7,,,66,0
146496,note_on,96,0,1,,,,,,,,0,,,78,0
146508,note_on,48,0,7,,,,,,,,6,,,73,0
146520,note_on,24,0,9,,,,,,,,7,,,64,80
146520,note_on,12,0,7,,,,,,,,6,,,78,80
146520,note_on,24,0,1,,,,,,,,0,,,76,80
146568,note_on,48,0,7,,,,,,,,6,,,78,0
146580,note_on,12,0,7,,,,,,,,6,,,76,80
146592,note_on,192,0,8,,,,,,,,6,,,45,0
146592,note_on,192,0,12,,,,,,,,11,,,45,0
146592,note_on,0,0,8,,,,,,,,6,,,33,0
146592,note_on,192,0,10,,,,,,,,8,,,61,0
146592,note_on,192,0,13,,,,,,,,12,,,33,0
146592,note_on,192,0,11,,,,,,,,10,,,57,0
146616,note_on,96,0,9,,,,,,,,7,,,64,0
146616,note_on,96,0,1,,,,,,,,0,,,76,0
146628,note_on,48,0,7,,,,,,,,6,,,76,0
146640,note_on,12,0,7,,,,,,,,6,,,69,80
146688,note_on,48,0,7,,,,,,,,6,,,69,0
146700,note_on,12,0,7,,,,,,,,6,,,73,80
146748,note_on,48,0,7,,,,,,,,6,,,73,0
146760,note_on,12,0,7,,,,,,,,6,,,76,80
146808,note_on,48,0,7,,,,,,,,6,,,76,0
146820,note_on,12,0,7,,,,,,,,6,,,79,80
146868,note_on,48,0,7,,,,,,,,6,,,79,0
146880,note_on,12,0,7,,,,,,,,6,,,69,80
146880,note_on,288,0,11,,,,,,,,10,,,57,80
146880,note_on,264,0,9,,,,,,,,7,,,67,80
146880,note_on,288,0,8,,,,,,,,6,,,38,80
146880,note_on,0,0,8,,,,,,,,6,,,50,80
146880,note_on,288,0,13,,,,,,,,12,,,38,80
146880,note_on,288,0,10,,,,,,,,8,,,62,80
146880,note_on,264,0,1,,,,,,,,0,,,79,80
146880,note_on,288,0,12,,,,,,,,11,,,50,80
146928,note_on,48,0,7,,,,,,,,6,,,69,0
146940,note_on,12,0,7,,,,,,,,6,,,74,80
146976,note_on,96,0,9,,,,,,,,7,,,67,0
146976,note_on,96,0,1,,,,,,,,0,,,79,0
146988,note_on,48,0,7,,,,,,,,6,,,74,0
147000,note_on,12,0,7,,,,,,,,6,,,79,80
147000,note_on,24,0,1,,,,,,,,0,,,78,80
147000,note_on,24,0,9,,,,,,,,7,,,66,80
147048,note_on,48,0,7,,,,,,,,6,,,79,0
147060,note_on,12,0,7,,,,,,,,6,,,78,80
147072,note_on,192,0,12,,,,,,,,11,,,50,0
147072,note_on,192,0,10,,,,,,,,8,,,62,0
147072,note_on,192,0,13,,,,,,,,12,,,38,0
147072,note_on,0,0,8,,,,,,,,6,,,38,0
147072,note_on,192,0,8,,,,,,,,6,,,50,0
147072,note_on,192,0,11,,,,,,,,10,,,57,0
147096,note_on,96,0,9,,,,,,,,7,,,66,0
147096,note_on,96,0,1,,,,,,,,0,,,78,0
147108,note_on,48,0,7,,,,,,,,6,,,78,0
147120,note_on,48,0,8,,,,,,,,6,,,38,80
147168,note_on,48,0,8,,,,,,,,6,,,38,0
147180,note_on,12,0,8,,,,,,,,6,,,42,80
147228,note_on,48,0,8,,,,,,,,6,,,42,0
147240,note_on,132,0,7,,,,,,,,6,,,54,80
147240,note_on,12,0,8,,,,,,,,6,,,45,80
147288,note_on,48,0,8,,,,,,,,6,,,45,0
147300,note_on,12,0,8,,,,,,,,6,,,50,80
147336,note_on,96,0,7,,,,,,,,6,,,54,0
147348,note_on,48,0,8,,,,,,,,6,,,50,0
147360,note_on,24,0,7,,,,,,,,6,,,55,80
147360,note_on,12,0,8,,,,,,,,6,,,40,80
147408,note_on,48,0,8,,,,,,,,6,,,40,0
147420,note_on,12,0,8,,,,,,,,6,,,52,80
147456,note_on,96,0,7,,,,,,,,6,,,55,0
147468,note_on,48,0,8,,,,,,,,6,,,52,0
147480,note_on,12,0,8,,,,,,,,6,,,42,80
147480,note_on,24,0,7,,,,,,,,6,,,57,80
147528,note_on,48,0,8,,,,,,,,6,,,42,0
147540,note_on,12,0,8,,,,,,,,6,,,54,80
147576,note_on,96,0,7,,,,,,,,6,,,57,0
147588,note_on,48,0,8,,,,,,,,6,,,54,0
147600,note_on,24,0,7,,,,,,,,6,,,59,80
147600,note_on,12,0,8,,,,,,,,6,,,43,80
147648,note_on,48,0,8,,,,,,,,6,,,43,0
147660,note_on,12,0,8,,,,,,,,6,,,55,80
147696,note_on,96,0,7,,,,,,,,6,,,59,0
147708,note_on,48,0,8,,,,,,,,6,,,55,0
147720,note_on,24,0,7,,,,,,,,6,,,61,80
147720,note_on,12,0,8,,,,,,,,6,,,45,80
147768,note_on,48,0,8,,,,,,,,6,,,45,0
147780,note_on,12,0,8,,,,,,,,6,,,57,80
147816,note_on,96,0,7,,,,,,,,6,,,61,0
147828,note_on,48,0,8,,,,,,,,6,,,57,0
147840,note_on,12,0,8,,,,,,,,6,,,47,80
147840,note_on,24,0,7,,,,,,,,6,,,62,80
147888,note_on,48,0,8,,,,,,,,6,,,47,0
147900,note_on,12,0,8,,,,,,,,6,,,59,80
147936,note_on,96,0,7,,,,,,,,6,,,62,0
147948,note_on,48,0,8,,,,,,,,6,,,59,0
147960,note_on,24,0,7,,,,,,,,6,,,64,80
147960,note_on,12,0,8,,,,,,,,6,,,49,80
148008,note_on,48,0,8,,,,,,,,6,,,49,0
148020,note_on,12,0,8,,,,,,,,6,,,61,80
148056,note_on,96,0,7,,,,,,,,6,,,64,0
148068,note_on,48,0,8,,,,,,,,6,,,61,0
148080,note_on,24,0,7,,,,,,,,6,,,66,80
148080,note_on,12,0,8,,,,,,,,6,,,50,80
148176,note_on,96,0,7,,,,,,,,6,,,66,0
148176,note_on,96,0,8,,,,,,,,6,,,50,0
148200,note_on,24,0,8,,,,,,,,6,,,54,80
148200,note_on,1128,0,10,,,,,,,,8,,,57,80
148200,note_on,1104,0,9,,,,,,,,7,,,69,80
148200,note_on,24,0,7,,,,,,,,6,,,57,80
148200,note_on,1128,0,11,,,,,,,,10,,,54,80
148248,note_on,48,0,7,,,,,,,,6,,,57,0
148260,note_on,12,0,7,,,,,,,,6,,,69,80
148296,note_on,96,0,10,,,,,,,,8,,,57,0
148296,note_on,96,0,8,,,,,,,,6,,,54,0
148296,note_on,96,0,9,,,,,,,,7,,,69,0
148296,note_on,96,0,11,,,,,,,,10,,,54,0
148308,note_on,48,0,7,,,,,,,,6,,,69,0
148320,note_on,24,0,10,,,,,,,,8,,,59,80
148320,note_on,24,0,9,,,,,,,,7,,,71,80
148320,note_on,12,0,7,,,,,,,,6,,,59,80
148320,note_on,24,0,8,,,,,,,,6,,,55,80
148320,note_on,24,0,11,,,,,,,,10,,,55,80
148368,note_on,48,0,7,,,,,,,,6,,,59,0
148380,note_on,12,0,7,,,,,,,,6,,,71,80
148416,note_on,96,0,9,,,,,,,,7,,,71,0
148416,note_on,96,0,8,,,,,,,,6,,,55,0
148416,note_on,96,0,10,,,,,,,,8,,,59,0
148416,note_on,96,0,11,,,,,,,,10,,,55,0
148428,note_on,48,0,7,,,,,,,,6,,,71,0
148440,note_on,24,0,9,,,,,,,,7,,,73,80
148440,note_on,24,0,10,,,,,,,,8,,,61,80
148440,note_on,24,0,8,,,,,,,,6,,,57,80
148440,note_on,12,0,7,,,,,,,,6,,,61,80
148440,note_on,24,0,11,,,,,,,,10,,,57,80
148488,note_on,48,0,7,,,,,,,,6,,,61,0
148500,note_on,12,0,7,,,,,,,,6,,,73,80
148536,note_on,96,0,10,,,,,,,,8,,,61,0
148536,note_on,96,0,8,,,,,,,,6,,,57,0
148536,note_on,96,0,11,,,,,,,,10,,,57,0
148536,note_on,96,0,9,,,,,,,,7,,,73,0
148548,note_on,48,0,7,,,,,,,,6,,,73,0
148560,note_on,12,0,7,,,,,,,,6,,,62,80
148560,note_on,24,0,10,,,,,,,,8,,,62,80
148560,note_on,24,0,11,,,,,,,,10,,,59,80
148560,note_on,24,0,8,,,,,,,,6,,,59,80
148560,note_on,24,0,9,,,,,,,,7,,,74,80
148608,note_on,48,0,7,,,,,,,,6,,,62,0
148620,note_on,12,0,7,,,,,,,,6,,,74,80
148656,note_on,96,0,8,,,,,,,,6,,,59,0
148656,note_on,96,0,10,,,,,,,,8,,,62,0
148656,note_on,96,0,11,,,,,,,,10,,,59,0
148656,note_on,96,0,9,,,,,,,,7,,,74,0
148668,note_on,48,0,7,,,,,,,,6,,,74,0
148680,note_on,24,0,10,,,,,,,,8,,,64,80
148680,note_on,24,0,11,,,,,,,,10,,,61,80
148680,note_on,12,0,7,,,,,,,,6,,,64,80
148680,note_on,24,0,9,,,,,,,,7,,,76,80
148680,note_on,24,0,8,,,,,,,,6,,,61,80
148728,note_on,48,0,7,,,,,,,,6,,,64,0
148740,note_on,12,0,7,,,,,,,,6,,,76,80
148776,note_on,96,0,8,,,,,,,,6,,,61,0
148776,note_on,96,0,10,,,,,,,,8,,,64,0
148776,note_on,96,0,9,,,,,,,,7,,,76,0
148776,note_on,96,0,11,,,,,,,,10,,,61,0
148788,note_on,48,0,7,,,,,,,,6,,,76,0
148800,note_on,24,0,9,,,,,,,,7,,,78,80
148800,note_on,24,0,11,,,,,,,,10,,,62,80
148800,note_on,12,0,7,,,,,,,,6,,,66,80
148800,note_on,24,0,8,,,,,,,,6,,,62,80
148800,note_on,24,0,10,,,,,,,,8,,,66,80
148848,note_on,48,0,7,,,,,,,,6,,,66,0
148860,note_on,12,0,7,,,,,,,,6,,,78,80
148896,note_on,96,0,11,,,,,,,,10,,,62,0
148896,note_on,96,0,9,,,,,,,,7,,,78,0
148896,note_on,96,0,8,,,,,,,,6,,,62,0
148896,note_on,96,0,10,,,,,,,,8,,,66,0
148908,note_on,48,0,7,,,,,,,,6,,,78,0
148920,note_on,24,0,11,,,,,,,,10,,,64,80
148920,note_on,24,0,10,,,,,,,,8,,,67,80
148920,note_on,24,0,8,,,,,,,,6,,,64,80
148920,note_on,12,0,7,,,,,,,,6,,,67,80
148920,note_on,24,0,9,,,,,,,,7,,,79,80
148968,note_on,48,0,7,,,,,,,,6,,,67,0
148980,note_on,12,0,7,,,,,,,,6,,,79,80
149016,note_on,96,0,11,,,,,,,,10,,,64,0
149016,note_on,96,0,8,,,,,,,,6,,,64,0
149016,note_on,96,0,10,,,,,,,,8,,,67,0
149016,note_on,96,0,9,,,,,,,,7,,,79,0
149028,note_on,48,0,7,,,,,,,,6,,,79,0
149040,note_on,24,0,9,,,,,,,,7,,,81,80
149040,note_on,0,0,8,,,,,,,,6,,,54,80
149040,note_on,24,0,8,,,,,,,,6,,,66,80
149040,note_on,24,0,10,,,,,,,,8,,,69,80
149040,note_on,12,0,7,,,,,,,,6,,,69,80
149040,note_on,24,0,11,,,,,,,,10,,,66,80
149088,note_on,48,0,7,,,,,,,,6,,,69,0
149100,note_on,12,0,7,,,,,,,,6,,,74,80
149148,note_on,48,0,7,,,,,,,,6,,,74,0
149160,note_on,12,0,7,,,,,,,,6,,,81,80
149208,note_on,48,0,7,,,,,,,,6,,,81,0
149220,note_on,12,0,7,,,,,,,,6,,,74,80
149232,note_on,192,0,10,,,,,,,,8,,,69,0
149232,note_on,0,0,8,,,,,,,,6,,,66,0
149232,note_on,192,0,8,,,,,,,,6,,,54,0
149232,note_on,192,0,11,,,,,,,,10,,,66,0
149268,note_on,48,0,7,,,,,,,,6,,,74,0
149280,note_on,48,0,11,,,,,,,,10,,,67,80
149280,note_on,12,0,7,,,,,,,,6,,,71,80
149280,note_on,0,0,8,,,,,,,,6,,,67,80
149280,note_on,48,0,8,,,,,,,,6,,,55,80
149280,note_on,48,0,10,,,,,,,,8,,,71,80
149328,note_on,48,0,7,,,,,,,,6,,,71,0
149340,note_on,12,0,7,,,,,,,,6,,,74,80
149388,note_on,48,0,7,,,,,,,,6,,,74,0
149400,note_on,12,0,7,,,,,,,,6,,,81,80
149448,note_on,48,0,7,,,,,,,,6,,,81,0
149460,note_on,12,0,7,,,,,,,,6,,,74,80
149472,note_on,192,0,8,,,,,,,,6,,,67,0
149472,note_on,0,0,8,,,,,,,,6,,,55,0
149472,note_on,192,0,11,,,,,,,,10,,,67,0
149472,note_on,432,0,9,,,,,,,,7,,,81,0
149508,note_on,48,0,7,,,,,,,,6,,,74,0
149520,note_on,48,0,11,,,,,,,,10,,,64,80
149520,note_on,0,0,8,,,,,,,,6,,,52,80
149520,note_on,48,0,8,,,,,,,,6,,,64,80
149520,note_on,48,0,9,,,,,,,,7,,,79,80
149520,note_on,12,0,7,,,,,,,,6,,,71,80
149568,note_on,48,0,7,,,,,,,,6,,,71,0
149580,note_on,12,0,7,,,,,,,,6,,,76,80
149628,note_on,48,0,7,,,,,,,,6,,,76,0
149640,note_on,12,0,7,,,,,,,,6,,,79,80
149664,note_on,384,0,10,,,,,,,,8,,,71,0
149688,note_on,48,0,7,,,,,,,,6,,,79,0
149700,note_on,12,0,7,,,,,,,,6,,,76,80
149712,note_on,0,0,8,,,,,,,,6,,,64,0
149712,note_on,192,0,11,,,,,,,,10,,,64,0
149712,note_on,192,0,8,,,,,,,,6,,,52,0
149748,note_on,48,0,7,,,,,,,,6,,,76,0
149760,note_on,96,0,10,,,,,,,,8,,,69,80
149760,note_on,0,0,8,,,,,,,,6,,,61,80
149760,note_on,48,0,8,,,,,,,,6,,,49,80
149760,note_on,48,0,11,,,,,,,,10,,,61,80
149760,note_on,12,0,7,,,,,,,,6,,,69,80
149808,note_on,48,0,7,,,,,,,,6,,,69,0
149820,note_on,12,0,7,,,,,,,,6,,,76,80
149868,note_on,48,0,7,,,,,,,,6,,,76,0
149880,note_on,12,0,7,,,,,,,,6,,,79,80
149928,note_on,48,0,7,,,,,,,,6,,,79,0
149940,note_on,12,0,7,,,,,,,,6,,,76,80
149952,note_on,432,0,9,,,,,,,,7,,,79,0
149952,note_on,192,0,8,,,,,,,,6,,,61,0
149952,note_on,0,0,8,,,,,,,,6,,,49,0
149952,note_on,192,0,11,,,,,,,,10,,,61,0
149988,note_on,48,0,7,,,,,,,,6,,,76,0
150000,note_on,0,0,8,,,,,,,,6,,,50,80
150000,note_on,48,0,11,,,,,,,,10,,,62,80
150000,note_on,48,0,9,,,,,,,,7,,,78,80
150000,note_on,48,0,8,,,,,,,,6,,,62,80
150000,note_on,12,0,7,,,,,,,,6,,,69,80
150048,note_on,48,0,7,,,,,,,,6,,,69,0
150060,note_on,12,0,7,,,,,,,,6,,,74,80
150108,note_on,48,0,7,,,,,,,,6,,,74,0
150120,note_on,12,0,7,,,,,,,,6,,,78,80
150144,note_on,384,0,10,,,,,,,,8,,,69,0
150168,note_on,48,0,7,,,,,,,,6,,,78,0
150180,note_on,12,0,7,,,,,,,,6,,,74,80
150192,note_on,192,0,9,,,,,,,,7,,,78,0
150192,note_on,0,0,8,,,,,,,,6,,,62,0
150192,note_on,192,0,11,,,,,,,,10,,,62,0
150192,note_on,192,0,8,,,,,,,,6,,,50,0
150228,note_on,48,0,7,,,,,,,,6,,,74,0
150240,note_on,12,0,7,,,,,,,,6,,,67,80
150240,note_on,48,0,11,,,,,,,,10,,,55,80
150240,note_on,96,0,10,,,,,,,,8,,,67,80
150240,note_on,48,0,8,,,,,,,,6,,,43,80
150240,note_on,48,0,9,,,,,,,,7,,,76,80
150240,note_on,0,0,8,,,,,,,,6,,,55,80
150288,note_on,48,0,7,,,,,,,,6,,,67,0
150300,note_on,12,0,7,,,,,,,,6,,,71,80
150348,note_on,48,0,7,,,,,,,,6,,,71,0
150360,note_on,12,0,7,,,,,,,,6,,,76,80
150408,note_on,48,0,7,,,,,,,,6,,,76,0
150420,note_on,12,0,7,,,,,,,,6,,,71,80
150432,note_on,192,0,10,,,,,,,,8,,,67,0
150432,note_on,192,0,11,,,,,,,,10,,,55,0
150432,note_on,0,0,8,,,,,,,,6,,,43,0
150432,note_on,192,0,8,,,,,,,,6,,,55,0
150432,note_on,192,0,9,,,,,,,,7,,,76,0
150468,note_on,48,0,7,,,,,,,,6,,,71,0
150480,note_on,48,0,11,,,,,,,,10,,,57,80
150480,note_on,48,0,9,,,,,,,,7,,,73,80
150480,note_on,48,0,10,,,,,,,,8,,,64,80
150480,note_on,12,0,7,,,,,,,,6,,,64,80
150480,note_on,48,0,8,,,,,,,,6,,,57,80
150480,note_on,0,0,8,,,,,,,,6,,,45,80
150528,note_on,48,0,7,,,,,,,,6,,,64,0
150540,note_on,12,0,7,,,,,,,,6,,,67,80
150588,note_on,48,0,7,,,,,,,,6,,,67,0
150600,note_on,12,0,7,,,,,,,,6,,,73,80
150648,note_on,48,0,7,,,,,,,,6,,,73,0
150660,note_on,12,0,7,,,,,,,,6,,,67,80
150672,note_on,192,0,8,,,,,,,,6,,,45,0
150672,note_on,0,0,8,,,,,,,,6,,,57,0
150672,note_on,192,0,9,,,,,,,,7,,,73,0
150672,note_on,192,0,10,,,,,,,,8,,,64,0
150672,note_on,192,0,11,,,,,,,,10,,,57,0
150708,note_on,48,0,7,,,,,,,,6,,,67,0
150720,note_on,48,0,10,,,,,,,,8,,,62,80
150720,note_on,48,0,11,,,,,,,,10,,,50,80
150720,note_on,12,0,7,,,,,,,,6,,,66,80
150720,note_on,48,0,9,,,,,,,,7,,,74,80
150720,note_on,48,0,8,,,,,,,,6,,,50,80
150768,note_on,48,0,7,,,,,,,,6,,,66,0
150780,note_on,12,0,7,,,,,,,,6,,,69,80
150828,note_on,48,0,7,,,,,,,,6,,,69,0
150840,note_on,12,0,7,,,,,,,,6,,,74,80
150888,note_on,48,0,7,,,,,,,,6,,,74,0
150900,note_on,12,0,7,,,,,,,,6,,,78,80
150912,note_on,192,0,8,,,,,,,,6,,,50,0
150912,note_on,192,0,10,,,,,,,,8,,,62,0
150912,note_on,192,0,11,,,,,,,,10,,,50,0
150948,note_on,48,0,7,,,,,,,,6,,,78,0
150960,note_on,3888,0,13,,,,,,,,12,,,42,80
150960,note_on,48,0,8,,,,,,,,6,,,42,80
150960,note_on,48,0,10,,,,,,,,8,,,69,80
150960,note_on,3888,0,12,,,,,,,,11,,,54,80
150960,note_on,48,0,11,,,,,,,,10,,,69,80
150960,note_on,13968,0,2,,,,,,,,1,,,81,80
150960,note_on,12,0,7,,,,,,,,6,,,81,80
151008,note_on,48,0,8,,,,,,,,6,,,42,0
151008,note_on,48,0,7,,,,,,,,6,,,81,0
151020,note_on,12,0,7,,,,,,,,6,,,69,80
151020,note_on,12,0,8,,,,,,,,6,,,54,80
151068,note_on,48,0,8,,,,,,,,6,,,54,0
151068,note_on,48,0,7,,,,,,,,6,,,69,0
151080,note_on,12,0,7,,,,,,,,6,,,68,80
151080,note_on,12,0,8,,,,,,,,6,,,53,80
151128,note_on,48,0,8,,,,,,,,6,,,53,0
151128,note_on,48,0,7,,,,,,,,6,,,68,0
151140,note_on,12,0,7,,,,,,,,6,,,69,80
151140,note_on,12,0,8,,,,,,,,6,,,54,80
151152,note_on,192,0,10,,,,,,,,8,,,69,0
151152,note_on,192,0,13,,,,,,,,12,,,42,0
151152,note_on,192,0,12,,,,,,,,11,,,54,0
151188,note_on,48,0,8,,,,,,,,6,,,54,0
151188,note_on,48,0,7,,,,,,,,6,,,69,0
151200,note_on,4104,0,1,,,,,,,,0,,,83,80
151200,note_on,12,0,7,,,,,,,,6,,,81,80
151200,note_on,48,0,10,,,,,,,,8,,,71,80
151200,note_on,48,0,13,,,,,,,,12,,,43,80
151200,note_on,12,0,8,,,,,,,,6,,,43,80
151200,note_on,48,0,12,,,,,,,,11,,,55,80
151248,note_on,48,0,8,,,,,,,,6,,,43,0
151248,note_on,48,0,7,,,,,,,,6,,,81,0
151260,note_on,12,0,7,,,,,,,,6,,,71,80
151260,note_on,12,0,8,,,,,,,,6,,,55,80
151308,note_on,48,0,7,,,,,,,,6,,,71,0
151308,note_on,48,0,8,,,,,,,,6,,,55,0
151320,note_on,12,0,7,,,,,,,,6,,,70,80
151320,note_on,12,0,8,,,,,,,,6,,,54,80
151368,note_on,48,0,7,,,,,,,,6,,,70,0
151368,note_on,48,0,8,,,,,,,,6,,,54,0
151380,note_on,12,0,8,,,,,,,,6,,,55,80
151380,note_on,12,0,7,,,,,,,,6,,,71,80
151392,note_on,192,0,13,,,,,,,,12,,,43,0
151392,note_on,432,0,11,,,,,,,,10,,,69,0
151392,note_on,432,0,2,,,,,,,,1,,,81,0
151392,note_on,192,0,12,,,,,,,,11,,,55,0
151392,note_on,672,0,9,,,,,,,,7,,,74,0
151428,note_on,48,0,7,,,,,,,,6,,,71,0
151428,note_on,48,0,8,,,,,,,,6,,,55,0
151440,note_on,12,0,8,,,,,,,,6,,,40,80
151440,note_on,48,0,13,,,,,,,,12,,,40,80
151440,note_on,48,0,2,,,,,,,,1,,,79,80
151440,note_on,48,0,11,,,,,,,,10,,,67,80
151440,note_on,12,0,7,,,,,,,,6,,,79,80
151440,note_on,48,0,9,,,,,,,,7,,,73,80
151440,note_on,48,0,12,,,,,,,,11,,,52,80
151488,note_on,48,0,7,,,,,,,,6,,,79,0
151488,note_on,48,0,8,,,,,,,,6,,,40,0
151500,note_on,12,0,7,,,,,,,,6,,,71,80
151500,note_on,12,0,8,,,,,,,,6,,,52,80
151548,note_on,48,0,8,,,,,,,,6,,,52,0
151548,note_on,48,0,7,,,,,,,,6,,,71,0
151560,note_on,12,0,8,,,,,,,,6,,,51,80
151560,note_on,12,0,7,,,,,,,,6,,,79,80
151584,note_on,384,0,10,,,,,,,,8,,,71,0
151584,note_on,384,0,1,,,,,,,,0,,,83,0
151608,note_on,48,0,8,,,,,,,,6,,,51,0
151608,note_on,48,0,7,,,,,,,,6,,,79,0
151620,note_on,12,0,7,,,,,,,,6,,,71,80
151620,note_on,12,0,8,,,,,,,,6,,,52,80
151632,note_on,192,0,12,,,,,,,,11,,,52,0
151632,note_on,192,0,13,,,,,,,,12,,,40,0
151668,note_on,48,0,7,,,,,,,,6,,,71,0
151668,note_on,48,0,8,,,,,,,,6,,,52,0
151680,note_on,96,0,1,,,,,,,,0,,,82,80
151680,note_on,12,0,8,,,,,,,,6,,,42,80
151680,note_on,96,0,10,,,,,,,,8,,,70,80
151680,note_on,48,0,12,,,,,,,,11,,,54,80
151680,note_on,48,0,13,,,,,,,,12,,,42,80
151680,note_on,12,0,7,,,,,,,,6,,,79,80
151728,note_on,48,0,8,,,,,,,,6,,,42,0
151728,note_on,48,0,7,,,,,,,,6,,,79,0
151740,note_on,12,0,8,,,,,,,,6,,,54,80
151740,note_on,12,0,7,,,,,,,,6,,,70,80
151788,note_on,48,0,7,,,,,,,,6,,,70,0
151788,note_on,48,0,8,,,,,,,,6,,,54,0
151800,note_on,12,0,8,,,,,,,,6,,,53,80
151800,note_on,12,0,7,,,,,,,,6,,,68,80
151848,note_on,48,0,8,,,,,,,,6,,,53,0
151848,note_on,48,0,7,,,,,,,,6,,,68,0
151860,note_on,12,0,8,,,,,,,,6,,,54,80
151860,note_on,12,0,7,,,,,,,,6,,,70,80
151872,note_on,192,0,1,,,,,,,,0,,,82,0
151872,note_on,192,0,10,,,,,,,,8,,,70,0
151872,note_on,432,0,9,,,,,,,,7,,,73,0
151872,note_on,192,0,12,,,,,,,,11,,,54,0
151872,note_on,432,0,11,,,,,,,,10,,,67,0
151872,note_on,432,0,2,,,,,,,,1,,,79,0
151872,note_on,192,0,13,,,,,,,,12,,,42,0
151908,note_on,48,0,8,,,,,,,,6,,,54,0
151908,note_on,48,0,7,,,,,,,,6,,,70,0
151920,note_on,48,0,13,,,,,,,,12,,,39,80
151920,note_on,48,0,1,,,,,,,,0,,,81,80
151920,note_on,12,0,7,,,,,,,,6,,,78,80
151920,note_on,12,0,8,,,,,,,,6,,,39,80
151920,note_on,48,0,11,,,,,,,,10,,,66,80
151920,note_on,48,0,10,,,,,,,,8,,,69,80
151920,note_on,48,0,2,,,,,,,,1,,,78,80
151920,note_on,48,0,9,,,,,,,,7,,,72,80
151920,note_on,48,0,12,,,,,,,,11,,,51,80
151968,note_on,48,0,7,,,,,,,,6,,,78,0
151968,note_on,48,0,8,,,,,,,,6,,,39,0
151980,note_on,12,0,8,,,,,,,,6,,,51,80
151980,note_on,12,0,7,,,,,,,,6,,,69,80
152028,note_on,48,0,7,,,,,,,,6,,,69,0
152028,note_on,48,0,8,,,,,,,,6,,,51,0
152040,note_on,12,0,7,,,,,,,,6,,,78,80
152040,note_on,12,0,8,,,,,,,,6,,,39,80
152088,note_on,48,0,8,,,,,,,,6,,,39,0
152088,note_on,48,0,7,,,,,,,,6,,,78,0
152100,note_on,12,0,8,,,,,,,,6,,,51,80
152100,note_on,12,0,7,,,,,,,,6,,,69,80
152112,note_on,192,0,10,,,,,,,,8,,,69,0
152112,note_on,192,0,12,,,,,,,,11,,,51,0
152112,note_on,192,0,13,,,,,,,,12,,,39,0
152112,note_on,192,0,1,,,,,,,,0,,,81,0
152112,note_on,192,0,9,,,,,,,,7,,,72,0
152148,note_on,48,0,7,,,,,,,,6,,,69,0
152148,note_on,48,0,8,,,,,,,,6,,,51,0
152160,note_on,48,0,10,,,,,,,,8,,,68,80
152160,note_on,48,0,12,,,,,,,,11,,,52,80
152160,note_on,48,0,13,,,,,,,,12,,,40,80
152160,note_on,12,0,8,,,,,,,,6,,,40,80
152160,note_on,48,0,9,,,,,,,,7,,,71,80
152160,note_on,12,0,7,,,,,,,,6,,,78,80
152160,note_on,48,0,1,,,,,,,,0,,,80,80
152208,note_on,48,0,8,,,,,,,,6,,,40,0
152208,note_on,48,0,7,,,,,,,,6,,,78,0
152220,note_on,12,0,8,,,,,,,,6,,,52,80
152220,note_on,12,0,7,,,,,,,,6,,,68,80
152268,note_on,48,0,8,,,,,,,,6,,,52,0
152268,note_on,48,0,7,,,,,,,,6,,,68,0
152280,note_on,12,0,7,,,,,,,,6,,,66,80
152280,note_on,12,0,8,,,,,,,,6,,,51,80
152328,note_on,48,0,8,,,,,,,,6,,,51,0
152328,note_on,48,0,7,,,,,,,,6,,,66,0
152340,note_on,12,0,8,,,,,,,,6,,,52,80
152340,note_on,12,0,7,,,,,,,,6,,,68,80
152352,note_on,192,0,9,,,,,,,,7,,,71,0
152352,note_on,192,0,10,,,,,,,,8,,,68,0
152352,note_on,432,0,11,,,,,,,,10,,,66,0
152352,note_on,192,0,1,,,,,,,,0,,,80,0
152352,note_on,192,0,13,,,,,,,,12,,,40,0
152352,note_on,432,0,2,,,,,,,,1,,,78,0
152352,note_on,192,0,12,,,,,,,,11,,,52,0
152388,note_on,48,0,8,,,,,,,,6,,,52,0
152388,note_on,48,0,7,,,,,,,,6,,,68,0
152400,note_on,12,0,7,,,,,,,,6,,,76,80
152400,note_on,48,0,12,,,,,,,,11,,,49,80
152400,note_on,12,0,8,,,,,,,,6,,,37,80
152400,note_on,48,0,13,,,,,,,,12,,,37,80
152400,note_on,48,0,10,,,,,,,,8,,,67,80
152400,note_on,48,0,9,,,,,,,,7,,,70,80
152400,note_on,48,0,11,,,,,,,,10,,,64,80
152400,note_on,48,0,2,,,,,,,,1,,,76,80
152400,note_on,48,0,1,,,,,,,,0,,,79,80
152448,note_on,48,0,7,,,,,,,,6,,,76,0
152448,note_on,48,0,8,,,,,,,,6,,,37,0
152460,note_on,12,0,8,,,,,,,,6,,,49,80
152460,note_on,12,0,7,,,,,,,,6,,,67,80
152508,note_on,48,0,7,,,,,,,,6,,,67,0
152508,note_on,48,0,8,,,,,,,,6,,,49,0
152520,note_on,12,0,7,,,,,,,,6,,,76,80
152520,note_on,12,0,8,,,,,,,,6,,,37,80
152568,note_on,48,0,8,,,,,,,,6,,,37,0
152568,note_on,48,0,7,,,,,,,,6,,,76,0
152580,note_on,12,0,7,,,,,,,,6,,,67,80
152580,note_on,12,0,8,,,,,,,,6,,,49,80
152592,note_on,192,0,9,,,,,,,,7,,,70,0
152592,note_on,192,0,12,,,,,,,,11,,,49,0
152592,note_on,192,0,10,,,,,,,,8,,,67,0
152592,note_on,192,0,13,,,,,,,,12,,,37,0
152592,note_on,192,0,1,,,,,,,,0,,,79,0
152628,note_on,48,0,7,,,,,,,,6,,,67,0
152628,note_on,48,0,8,,,,,,,,6,,,49,0
152640,note_on,48,0,9,,,,,,,,7,,,73,80
152640,note_on,48,0,1,,,,,,,,0,,,78,80
152640,note_on,48,0,13,,,,,,,,12,,,34,80
152640,note_on,12,0,8,,,,,,,,6,,,34,80
152640,note_on,12,0,7,,,,,,,,6,,,76,80
152640,note_on,48,0,12,,,,,,,,11,,,46,80
152640,note_on,48,0,10,,,,,,,,8,,,66,80
152688,note_on,48,0,7,,,,,,,,6,,,76,0
152688,note_on,48,0,8,,,,,,,,6,,,34,0
152700,note_on,12,0,8,,,,,,,,6,,,46,80
152700,note_on,12,0,7,,,,,,,,6,,,66,80
152748,note_on,48,0,8,,,,,,,,6,,,46,0
152748,note_on,48,0,7,,,,,,,,6,,,66,0
152760,note_on,12,0,8,,,,,,,,6,,,44,80
152760,note_on,12,0,7,,,,,,,,6,,,65,80
152808,note_on,48,0,7,,,,,,,,6,,,65,0
152808,note_on,48,0,8,,,,,,,,6,,,44,0
152820,note_on,12,0,7,,,,,,,,6,,,66,80
152820,note_on,12,0,8,,,,,,,,6,,,46,80
152832,note_on,192,0,13,,,,,,,,12,,,34,0
152832,note_on,192,0,9,,,,,,,,7,,,73,0
152832,note_on,432,0,11,,,,,,,,10,,,64,0
152832,note_on,192,0,12,,,,,,,,11,,,46,0
152832,note_on,432,0,2,,,,,,,,1,,,76,0
152868,note_on,48,0,7,,,,,,,,6,,,66,0
152868,note_on,48,0,8,,,,,,,,6,,,46,0
152880,note_on,48,0,11,,,,,,,,10,,,62,80
152880,note_on,12,0,8,,,,,,,,6,,,35,80
152880,note_on,48,0,13,,,,,,,,12,,,35,80
152880,note_on,48,0,12,,,,,,,,11,,,47,80
152880,note_on,12,0,7,,,,,,,,6,,,74,80
152880,note_on,48,0,2,,,,,,,,1,,,74,80
152880,note_on,48,0,9,,,,,,,,7,,,71,80
152928,note_on,48,0,8,,,,,,,,6,,,35,0
152928,note_on,48,0,7,,,,,,,,6,,,74,0
152940,note_on,12,0,7,,,,,,,,6,,,66,80
152940,note_on,12,0,8,,,,,,,,6,,,47,80
152988,note_on,48,0,8,,,,,,,,6,,,47,0
152988,note_on,48,0,7,,,,,,,,6,,,66,0
153000,note_on,12,0,7,,,,,,,,6,,,74,80
153000,note_on,12,0,8,,,,,,,,6,,,35,80
153024,note_on,384,0,10,,,,,,,,8,,,66,0
153024,note_on,384,0,1,,,,,,,,0,,,78,0
153048,note_on,48,0,7,,,,,,,,6,,,74,0
153048,note_on,48,0,8,,,,,,,,6,,,35,0
153060,note_on,12,0,7,,,,,,,,6,,,66,80
153060,note_on,12,0,8,,,,,,,,6,,,47,80
153072,note_on,192,0,11,,,,,,,,10,,,62,0
153072,note_on,192,0,13,,,,,,,,12,,,35,0
153072,note_on,192,0,12,,,,,,,,11,,,47,0
153072,note_on,192,0,2,,,,,,,,1,,,74,0
153072,note_on,192,0,9,,,,,,,,7,,,71,0
153108,note_on,48,0,7,,,,,,,,6,,,66,0
153108,note_on,48,0,8,,,,,,,,6,,,47,0
153120,note_on,96,0,10,,,,,,,,8,,,62,80
153120,note_on,48,0,13,,,,,,,,12,,,31,80
153120,note_on,48,0,9,,,,,,,,7,,,64,80
153120,note_on,96,0,1,,,,,,,,0,,,86,80
153120,note_on,48,0,12,,,,,,,,11,,,43,80
153120,note_on,48,0,2,,,,,,,,1,,,74,80
153120,note_on,48,0,11,,,,,,,,10,,,59,80
153120,note_on,12,0,7,,,,,,,,6,,,64,80
153120,note_on,12,0,8,,,,,,,,6,,,43,80
153120,note_on,7968,0,3,,,,,,,,2,,,62,80
153120,note_on,0,0,8,,,,,,,,6,,,55,80
153168,note_on,48,0,7,,,,,,,,6,,,64,0
153180,note_on,12,0,7,,,,,,,,6,,,74,80
153228,note_on,48,0,7,,,,,,,,6,,,74,0
153240,note_on,12,0,7,,,,,,,,6,,,76,80
153288,note_on,48,0,7,,,,,,,,6,,,76,0
153300,note_on,12,0,7,,,,,,,,6,,,74,80
153312,note_on,192,0,11,,,,,,,,10,,,59,0
153312,note_on,192,0,12,,,,,,,,11,,,43,0
153312,note_on,192,0,13,,,,,,,,12,,,31,0
153312,note_on,192,0,9,,,,,,,,7,,,64,0
153312,note_on,0,0,8,,,,,,,,6,,,43,0
153312,note_on,192,0,8,,,,,,,,6,,,55,0
153348,note_on,48,0,7,,,,,,,,6,,,74,0
153360,note_on,48,0,12,,,,,,,,11,,,45,80
153360,note_on,48,0,9,,,,,,,,7,,,66,80
153360,note_on,48,0,13,,,,,,,,12,,,33,80
153360,note_on,48,0,8,,,,,,,,6,,,45,80
153360,note_on,48,0,11,,,,,,,,10,,,57,80
153360,note_on,0,0,8,,,,,,,,6,,,57,80
153360,note_on,12,0,7,,,,,,,,6,,,66,80
153408,note_on,48,0,7,,,,,,,,6,,,66,0
153420,note_on,12,0,7,,,,,,,,6,,,74,80
153468,note_on,48,0,7,,,,,,,,6,,,74,0
153480,note_on,12,0,7,,,,,,,,6,,,78,80
153528,note_on,48,0,7,,,,,,,,6,,,78,0
153540,note_on,12,0,7,,,,,,,,6,,,74,80
153552,note_on,192,0,11,,,,,,,,10,,,57,0
153552,note_on,192,0,9,,,,,,,,7,,,66,0
153552,note_on,0,0,8,,,,,,,,6,,,45,0
153552,note_on,192,0,8,,,,,,,,6,,,57,0
153552,note_on,192,0,12,,,,,,,,11,,,45,0
153552,note_on,192,0,13,,,,,,,,12,,,33,0
153588,note_on,48,0,7,,,,,,,,6,,,74,0
153600,note_on,0,0,8,,,,,,,,6,,,59,80
153600,note_on,48,0,8,,,,,,,,6,,,47,80
153600,note_on,12,0,7,,,,,,,,6,,,67,80
153600,note_on,48,0,11,,,,,,,,10,,,55,80
153600,note_on,48,0,9,,,,,,,,7,,,67,80
153600,note_on,48,0,13,,,,,,,,12,,,35,80
153600,note_on,48,0,12,,,,,,,,11,,,47,80
153648,note_on,48,0,7,,,,,,,,6,,,67,0
153660,note_on,12,0,7,,,,,,,,6,,,74,80
153708,note_on,48,0,7,,,,,,,,6,,,74,0
153720,note_on,12,0,7,,,,,,,,6,,,79,80
153768,note_on,48,0,7,,,,,,,,6,,,79,0
153780,note_on,12,0,7,,,,,,,,6,,,74,80
153792,note_on,192,0,11,,,,,,,,10,,,55,0
153792,note_on,192,0,12,,,,,,,,11,,,47,0
153792,note_on,192,0,8,,,,,,,,6,,,59,0
153792,note_on,0,0,8,,,,,,,,6,,,47,0
153792,note_on,192,0,13,,,,,,,,12,,,35,0
153792,note_on,192,0,9,,,,,,,,7,,,67,0
153828,note_on,48,0,7,,,,,,,,6,,,74,0
153840,note_on,48,0,9,,,,,,,,7,,,64,80
153840,note_on,48,0,12,,,,,,,,11,,,44,80
153840,note_on,48,0,11,,,,,,,,10,,,59,80
153840,note_on,48,0,13,,,,,,,,12,,,32,80
153840,note_on,12,0,7,,,,,,,,6,,,64,80
153888,note_on,48,0,7,,,,,,,,6,,,64,0
153900,note_on,12,0,7,,,,,,,,6,,,74,80
153948,note_on,48,0,7,,,,,,,,6,,,74,0
153960,note_on,12,0,7,,,,,,,,6,,,76,80
154008,note_on,48,0,7,,,,,,,,6,,,76,0
154020,note_on,0,0,8,,,,,,,,6,,,56,80
154020,note_on,12,0,7,,,,,,,,6,,,74,80
154020,note_on,228,0,8,,,,,,,,6,,,44,80
154032,note_on,192,0,13,,,,,,,,12,,,32,0
154032,note_on,192,0,9,,,,,,,,7,,,64,0
154032,note_on,192,0,11,,,,,,,,10,,,59,0
154032,note_on,192,0,12,,,,,,,,11,,,44,0
154068,note_on,48,0,8,,,,,,,,6,,,56,0
154068,note_on,48,0,7,,,,,,,,6,,,74,0
154068,note_on,0,0,8,,,,,,,,6,,,44,0
154080,note_on,48,0,12,,,,,,,,11,,,45,80
154080,note_on,48,0,11,,,,,,,,10,,,57,80
154080,note_on,0,0,11,,,,,,,,10,,,60,80
154080,note_on,48,0,9,,,,,,,,7,,,66,80
154080,note_on,48,0,13,,,,,,,,12,,,33,80
154080,note_on,12,0,7,,,,,,,,6,,,66,80
154080,note_on,0,0,8,,,,,,,,6,,,57,80
154080,note_on,12,0,8,,,,,,,,6,,,45,80
154128,note_on,48,0,7,,,,,,,,6,,,66,0
154140,note_on,12,0,7,,,,,,,,6,,,74,80
154188,note_on,48,0,7,,,,,,,,6,,,74,0
154200,note_on,12,0,7,,,,,,,,6,,,78,80
154248,note_on,48,0,7,,,,,,,,6,,,78,0
154260,note_on,12,0,7,,,,,,,,6,,,74,80
154272,note_on,192,0,9,,,,,,,,7,,,66,0
154272,note_on,192,0,8,,,,,,,,6,,,57,0
154272,note_on,0,0,8,,,,,,,,6,,,45,0
154272,note_on,192,0,12,,,,,,,,11,,,45,0
154272,note_on,192,0,13,,,,,,,,12,,,33,0
154272,note_on,192,0,11,,,,,,,,10,,,60,0
154272,note_on,0,0,11,,,,,,,,10,,,57,0
154308,note_on,48,0,7,,,,,,,,6,,,74,0
154320,note_on,48,0,12,,,,,,,,11,,,47,80
154320,note_on,48,0,11,,,,,,,,10,,,55,80
154320,note_on,48,0,8,,,,,,,,6,,,47,80
154320,note_on,48,0,9,,,,,,,,7,,,67,80
154320,note_on,48,0,13,,,,,,,,12,,,35,80
154320,note_on,0,0,8,,,,,,,,6,,,59,80
154320,note_on,12,0,7,,,,,,,,6,,,67,80
154320,note_on,0,0,11,,,,,,,,10,,,59,80
154368,note_on,48,0,7,,,,,,,,6,,,67,0
154380,note_on,12,0,7,,,,,,,,6,,,74,80
154428,note_on,48,0,7,,,,,,,,6,,,74,0
154440,note_on,12,0,7,,,,,,,,6,,,79,80
154488,note_on,48,0,7,,,,,,,,6,,,79,0
154500,note_on,12,0,7,,,,,,,,6,,,74,80
154512,note_on,192,0,12,,,,,,,,11,,,47,0
154512,note_on,192,0,9,,,,,,,,7,,,67,0
154512,note_on,192,0,8,,,,,,,,6,,,59,0
154512,note_on,0,0,8,,,,,,,,6,,,47,0
154512,note_on,0,0,11,,,,,,,,10,,,55,0
154512,note_on,192,0,11,,,,,,,,10,,,59,0
154512,note_on,192,0,13,,,,,,,,12,,,35,0
154548,note_on,48,0,7,,,,,,,,6,,,74,0
154560,note_on,0,0,11,,,,,,,,10,,,57,80
154560,note_on,48,0,11,,,,,,,,10,,,54,80
154560,note_on,48,0,13,,,,,,,,12,,,36,80
154560,note_on,12,0,7,,,,,,,,6,,,69,80
154560,note_on,48,0,9,,,,,,,,7,,,69,80
154560,note_on,48,0,8,,,,,,,,6,,,48,80
154560,note_on,0,0,8,,,,,,,,6,,,60,80
154560,note_on,48,0,12,,,,,,,,11,,,48,80
154608,note_on,48,0,7,,,,,,,,6,,,69,0
154620,note_on,12,0,7,,,,,,,,6,,,74,80
154668,note_on,48,0,7,,,,,,,,6,,,74,0
154680,note_on,12,0,7,,,,,,,,6,,,81,80
154728,note_on,48,0,7,,,,,,,,6,,,81,0
154740,note_on,12,0,7,,,,,,,,6,,,74,80
154752,note_on,192,0,11,,,,,,,,10,,,57,0
154752,note_on,192,0,9,,,,,,,,7,,,69,0
154752,note_on,0,0,11,,,,,,,,10,,,54,0
154752,note_on,192,0,8,,,,,,,,6,,,60,0
154752,note_on,192,0,12,,,,,,,,11,,,48,0
154752,note_on,192,0,13,,,,,,,,12,,,36,0
154752,note_on,0,0,8,,,,,,,,6,,,48,0
154788,note_on,48,0,7,,,,,,,,6,,,74,0
154800,note_on,48,0,11,,,,,,,,10,,,57,80
154800,note_on,0,0,11,,,,,,,,10,,,60,80
154800,note_on,48,0,12,,,,,,,,11,,,45,80
154800,note_on,48,0,13,,,,,,,,12,,,33,80
154800,note_on,12,0,7,,,,,,,,6,,,66,80
154800,note_on,48,0,9,,,,,,,,7,,,66,80
154848,note_on,48,0,7,,,,,,,,6,,,66,0
154860,note_on,12,0,7,,,,,,,,6,,,74,80
154908,note_on,48,0,7,,,,,,,,6,,,74,0
154920,note_on,12,0,7,,,,,,,,6,,,78,80
154968,note_on,48,0,7,,,,,,,,6,,,78,0
154980,note_on,228,0,8,,,,,,,,6,,,45,80
154980,note_on,0,0,8,,,,,,,,6,,,57,80
154980,note_on,12,0,7,,,,,,,,6,,,74,80
154992,note_on,192,0,12,,,,,,,,11,,,45,0
154992,note_on,192,0,13,,,,,,,,12,,,33,0
154992,note_on,192,0,9,,,,,,,,7,,,66,0
154992,note_on,0,0,11,,,,,,,,10,,,57,0
154992,note_on,192,0,11,,,,,,,,10,,,60,0
155028,note_on,48,0,8,,,,,,,,6,,,57,0
155028,note_on,0,0,8,,,,,,,,6,,,45,0
155028,note_on,48,0,7,,,,,,,,6,,,74,0
155040,note_on,12,0,8,,,,,,,,6,,,59,80
155040,note_on,0,0,8,,,,,,,,6,,,47,80
155040,note_on,12,0,7,,,,,,,,6,,,67,80
155040,note_on,48,0,12,,,,,,,,11,,,47,80
155040,note_on,48,0,9,,,,,,,,7,,,67,80
155040,note_on,48,0,13,,,,,,,,12,,,35,80
155040,note_on,48,0,11,,,,,,,,10,,,59,80
155088,note_on,48,0,7,,,,,,,,6,,,67,0
155100,note_on,12,0,7,,,,,,,,6,,,74,80
155148,note_on,48,0,7,,,,,,,,6,,,74,0
155160,note_on,12,0,7,,,,,,,,6,,,79,80
155208,note_on,48,0,7,,,,,,,,6,,,79,0
155220,note_on,12,0,7,,,,,,,,6,,,74,80
155232,note_on,192,0,9,,,,,,,,7,,,67,0
155268,note_on,48,0,7,,,,,,,,6,,,74,0
155280,note_on,12,0,7,,,,,,,,6,,,68,80
155280,note_on,48,0,9,,,,,,,,7,,,68,80
155328,note_on,48,0,7,,,,,,,,6,,,68,0
155340,note_on,12,0,7,,,,,,,,6,,,74,80
155388,note_on,48,0,7,,,,,,,,6,,,74,0
155400,note_on,12,0,7,,,,,,,,6,,,80,80
155424,note_on,384,0,13,,,,,,,,12,,,35,0
155424,note_on,384,0,11,,,,,,,,10,,,59,0
155424,note_on,384,0,12,,,,,,,,11,,,47,0
155424,note_on,0,0,8,,,,,,,,6,,,59,0
155424,note_on,384,0,8,,,,,,,,6,,,47,0
155448,note_on,48,0,7,,,,,,,,6,,,80,0
155460,note_on,12,0,7,,,,,,,,6,,,74,80
155472,note_on,192,0,9,,,,,,,,7,,,68,0
155508,note_on,48,0,7,,,,,,,,6,,,74,0
155520,note_on,0,0,8,,,,,,,,6,,,42,80
155520,note_on,96,0,13,,,,,,,,12,,,42,80
155520,note_on,96,0,8,,,,,,,,6,,,54,80
155520,note_on,48,0,9,,,,,,,,7,,,69,80
155520,note_on,12,0,7,,,,,,,,6,,,69,80
155520,note_on,96,0,11,,,,,,,,10,,,60,80
155520,note_on,96,0,12,,,,,,,,11,,,54,80
155568,note_on,48,0,7,,,,,,,,6,,,69,0
155580,note_on,12,0,7,,,,,,,,6,,,74,80
155628,note_on,48,0,7,,,,,,,,6,,,74,0
155640,note_on,12,0,7,,,,,,,,6,,,81,80
155688,note_on,48,0,7,,,,,,,,6,,,81,0
155700,note_on,12,0,7,,,,,,,,6,,,74,80
155712,note_on,192,0,9,,,,,,,,7,,,69,0
155748,note_on,48,0,7,,,,,,,,6,,,74,0
155760,note_on,48,0,9,,,,,,,,7,,,70,80
155760,note_on,12,0,7,,,,,,,,6,,,70,80
155808,note_on,48,0,7,,,,,,,,6,,,70,0
155820,note_on,12,0,7,,,,,,,,6,,,74,80
155868,note_on,48,0,7,,,,,,,,6,,,74,0
155880,note_on,12,0,7,,,,,,,,6,,,82,80
155904,note_on,0,0,8,,,,,,,,6,,,54,0
155904,note_on,384,0,12,,,,,,,,11,,,54,0
155904,note_on,384,0,13,,,,,,,,12,,,42,0
155904,note_on,384,0,8,,,,,,,,6,,,42,0
155904,note_on,384,0,11,,,,,,,,10,,,60,0
155928,note_on,48,0,7,,,,,,,,6,,,82,0
155940,note_on,12,0,7,,,,,,,,6,,,74,80
155952,note_on,192,0,9,,,,,,,,7,,,70,0
155988,note_on,48,0,7,,,,,,,,6,,,74,0
156000,note_on,12,0,7,,,,,,,,6,,,71,80
156000,note_on,96,0,13,,,,,,,,12,,,43,80
156000,note_on,96,0,11,,,,,,,,10,,,59,80
156000,note_on,48,0,9,,,,,,,,7,,,71,80
156000,note_on,96,0,12,,,,,,,,11,,,55,80
156000,note_on,96,0,8,,,,,,,,6,,,43,80
156048,note_on,48,0,7,,,,,,,,6,,,71,0
156048,note_on,48,0,8,,,,,,,,6,,,43,0
156060,note_on,12,0,7,,,,,,,,6,,,74,80
156060,note_on,12,0,8,,,,,,,,6,,,55,80
156096,note_on,96,0,13,,,,,,,,12,,,43,0
156096,note_on,96,0,11,,,,,,,,10,,,59,0
156096,note_on,96,0,12,,,,,,,,11,,,55,0
156096,note_on,96,0,9,,,,,,,,7,,,71,0
156096,note_on,2976,0,10,,,,,,,,8,,,62,0
156108,note_on,48,0,7,,,,,,,,6,,,74,0
156108,note_on,48,0,8,,,,,,,,6,,,55,0
156120,note_on,24,0,13,,,,,,,,12,,,43,80
156120,note_on,24,0,11,,,,,,,,10,,,59,80
156120,note_on,24,0,12,,,,,,,,11,,,55,80
156120,note_on,24,0,9,,,,,,,,7,,,71,80
156120,note_on,12,0,8,,,,,,,,6,,,43,80
156120,note_on,12,0,7,,,,,,,,6,,,83,80
156120,note_on,24,0,10,,,,,,,,8,,,62,80
156168,note_on,48,0,8,,,,,,,,6,,,43,0
156168,note_on,48,0,7,,,,,,,,6,,,83,0
156180,note_on,12,0,8,,,,,,,,6,,,55,80
156180,note_on,12,0,7,,,,,,,,6,,,74,80
156216,note_on,96,0,10,,,,,,,,8,,,62,0
156216,note_on,96,0,12,,,,,,,,11,,,55,0
156216,note_on,96,0,9,,,,,,,,7,,,71,0
156216,note_on,96,0,11,,,,,,,,10,,,59,0
156216,note_on,96,0,13,,,,,,,,12,,,43,0
156228,note_on,48,0,8,,,,,,,,6,,,55,0
156228,note_on,48,0,7,,,,,,,,6,,,74,0
156240,note_on,24,0,11,,,,,,,,10,,,60,80
156240,note_on,24,0,9,,,,,,,,7,,,70,80
156240,note_on,12,0,7,,,,,,,,6,,,70,80
156240,note_on,24,0,12,,,,,,,,11,,,54,80
156240,note_on,12,0,8,,,,,,,,6,,,42,80
156240,note_on,24,0,13,,,,,,,,12,,,42,80
156240,note_on,24,0,10,,,,,,,,8,,,62,80
156288,note_on,48,0,8,,,,,,,,6,,,42,0
156288,note_on,48,0,7,,,,,,,,6,,,70,0
156300,note_on,12,0,8,,,,,,,,6,,,54,80
156300,note_on,12,0,7,,,,,,,,6,,,74,80
156336,note_on,96,0,11,,,,,,,,10,,,60,0
156336,note_on,96,0,12,,,,,,,,11,,,54,0
156336,note_on,96,0,10,,,,,,,,8,,,62,0
156336,note_on,96,0,13,,,,,,,,12,,,42,0
156336,note_on,96,0,9,,,,,,,,7,,,70,0
156348,note_on,48,0,7,,,,,,,,6,,,74,0
156348,note_on,48,0,8,,,,,,,,6,,,54,0
156360,note_on,12,0,8,,,,,,,,6,,,42,80
156360,note_on,24,0,10,,,,,,,,8,,,62,80
156360,note_on,24,0,13,,,,,,,,12,,,42,80
156360,note_on,24,0,11,,,,,,,,10,,,60,80
156360,note_on,24,0,12,,,,,,,,11,,,54,80
156360,note_on,12,0,7,,,,,,,,6,,,82,80
156360,note_on,24,0,9,,,,,,,,7,,,70,80
156408,note_on,48,0,8,,,,,,,,6,,,42,0
156408,note_on,48,0,7,,,,,,,,6,,,82,0
156420,note_on,12,0,8,,,,,,,,6,,,54,80
156420,note_on,12,0,7,,,,,,,,6,,,74,80
156456,note_on,96,0,11,,,,,,,,10,,,60,0
156456,note_on,96,0,13,,,,,,,,12,,,42,0
156456,note_on,96,0,9,,,,,,,,7,,,70,0
156456,note_on,96,0,12,,,,,,,,11,,,54,0
156456,note_on,96,0,10,,,,,,,,8,,,62,0
156468,note_on,48,0,7,,,,,,,,6,,,74,0
156468,note_on,48,0,8,,,,,,,,6,,,54,0
156480,note_on,24,0,12,,,,,,,,11,,,55,80
156480,note_on,24,0,13,,,,,,,,12,,,43,80
156480,note_on,12,0,8,,,,,,,,6,,,43,80
156480,note_on,24,0,9,,,,,,,,7,,,71,80
156480,note_on,24,0,11,,,,,,,,10,,,59,80
156480,note_on,12,0,7,,,,,,,,6,,,71,80
156480,note_on,24,0,10,,,,,,,,8,,,62,80
156528,note_on,48,0,7,,,,,,,,6,,,71,0
156528,note_on,48,0,8,,,,,,,,6,,,43,0
156540,note_on,12,0,8,,,,,,,,6,,,55,80
156540,note_on,12,0,7,,,,,,,,6,,,74,80
156576,note_on,96,0,9,,,,,,,,7,,,71,0
156576,note_on,96,0,11,,,,,,,,10,,,59,0
156576,note_on,96,0,13,,,,,,,,12,,,43,0
156576,note_on,96,0,12,,,,,,,,11,,,55,0
156576,note_on,96,0,10,,,,,,,,8,,,62,0
156588,note_on,48,0,8,,,,,,,,6,,,55,0
156588,note_on,48,0,7,,,,,,,,6,,,74,0
156600,note_on,12,0,7,,,,,,,,6,,,83,80
156600,note_on,12,0,8,,,,,,,,6,,,43,80
156600,note_on,24,0,10,,,,,,,,8,,,62,80
156600,note_on,24,0,9,,,,,,,,7,,,71,80
156600,note_on,24,0,12,,,,,,,,11,,,55,80
156600,note_on,24,0,13,,,,,,,,12,,,43,80
156600,note_on,24,0,11,,,,,,,,10,,,59,80
156648,note_on,48,0,8,,,,,,,,6,,,43,0
156648,note_on,48,0,7,,,,,,,,6,,,83,0
156660,note_on,12,0,7,,,,,,,,6,,,74,80
156660,note_on,12,0,8,,,,,,,,6,,,55,80
156672,note_on,3552,0,3,,,,,,,,2,,,62,0
156672,note_on,3552,0,1,,,,,,,,0,,,86,0
156672,note_on,3552,0,2,,,,,,,,1,,,74,0
156696,note_on,96,0,11,,,,,,,,10,,,59,0
156696,note_on,96,0,9,,,,,,,,7,,,71,0
156696,note_on,96,0,13,,,,,,,,12,,,43,0
156696,note_on,96,0,12,,,,,,,,11,,,55,0
156696,note_on,96,0,10,,,,,,,,8,,,62,0
156708,note_on,48,0,7,,,,,,,,6,,,74,0
156708,note_on,48,0,8,,,,,,,,6,,,55,0
156720,note_on,24,0,9,,,,,,,,7,,,73,80
156720,note_on,24,0,12,,,,,,,,11,,,52,80
156720,note_on,12,0,7,,,,,,,,6,,,76,80
156720,note_on,48,0,2,,,,,,,,1,,,73,80
156720,note_on,24,0,10,,,,,,,,8,,,67,80
156720,note_on,24,0,11,,,,,,,,10,,,57,80
156720,note_on,0,0,3,,,,,,,,2,,,57,80
156720,note_on,48,0,3,,,,,,,,2,,,64,80
156720,note_on,48,0,1,,,,,,,,0,,,91,80
156720,note_on,12,0,8,,,,,,,,6,,,40,80
156720,note_on,0,0,2,,,,,,,,1,,,79,80
156720,note_on,24,0,13,,,,,,,,12,,,40,80
156768,note_on,48,0,8,,,,,,,,6,,,40,0
156768,note_on,48,0,7,,,,,,,,6,,,76,0
156780,note_on,12,0,7,,,,,,,,6,,,79,80
156780,note_on,12,0,8,,,,,,,,6,,,52,80
156816,note_on,96,0,11,,,,,,,,10,,,57,0
156816,note_on,96,0,9,,,,,,,,7,,,73,0
156816,note_on,96,0,10,,,,,,,,8,,,67,0
156816,note_on,96,0,13,,,,,,,,12,,,40,0
156816,note_on,96,0,12,,,,,,,,11,,,52,0
156828,note_on,48,0,7,,,,,,,,6,,,79,0
156828,note_on,48,0,8,,,,,,,,6,,,52,0
156840,note_on,12,0,7,,,,,,,,6,,,85,80
156840,note_on,12,0,8,,,,,,,,6,,,40,80
156840,note_on,24,0,9,,,,,,,,7,,,73,80
156840,note_on,24,0,11,,,,,,,,10,,,57,80
156840,note_on,24,0,10,,,,,,,,8,,,67,80
156840,note_on,24,0,13,,,,,,,,12,,,40,80
156840,note_on,24,0,12,,,,,,,,11,,,52,80
156888,note_on,48,0,8,,,,,,,,6,,,40,0
156888,note_on,48,0,7,,,,,,,,6,,,85,0
156900,note_on,12,0,7,,,,,,,,6,,,79,80
156900,note_on,12,0,8,,,,,,,,6,,,52,80
156912,note_on,192,0,2,,,,,,,,1,,,79,0
156912,note_on,0,0,3,,,,,,,,2,,,64,0
156912,note_on,192,0,3,,,,,,,,2,,,57,0
156912,note_on,0,0,2,,,,,,,,1,,,73,0
156912,note_on,192,0,1,,,,,,,,0,,,91,0
156936,note_on,96,0,13,,,,,,,,12,,,40,0
156936,note_on,96,0,10,,,,,,,,8,,,67,0
156936,note_on,96,0,11,,,,,,,,10,,,57,0
156936,note_on,96,0,9,,,,,,,,7,,,73,0
156936,note_on,96,0,12,,,,,,,,11,,,52,0
156948,note_on,48,0,8,,,,,,,,6,,,52,0
156948,note_on,48,0,7,,,,,,,,6,,,79,0
156960,note_on,0,0,4,,,,,,,,3,,,62,80
156960,note_on,12,0,8,,,,,,,,6,,,38,80
156960,note_on,19968,0,4,,,,,,,,3,,,50,80
156960,note_on,12,0,7,,,,,,,,6,,,86,80
156960,note_on,24,0,11,,,,,,,,10,,,57,80
156960,note_on,24,0,9,,,,,,,,7,,,74,80
156960,note_on,19968,0,6,,,,,,,,5,,,50,80
156960,note_on,24,0,12,,,,,,,,11,,,50,80
156960,note_on,48,0,3,,,,,,,,2,,,62,80
156960,note_on,24,0,13,,,,,,,,12,,,38,80
156960,note_on,0,0,2,,,,,,,,1,,,78,80
156960,note_on,48,0,2,,,,,,,,1,,,74,80
156960,note_on,19968,0,5,,,,,,,,4,,,74,80
156960,note_on,0,0,5,,,,,,,,4,,,62,80
156960,note_on,48,0,1,,,,,,,,0,,,90,80
156960,note_on,0,0,7,,,,,,,,6,,,78,80
156960,note_on,24,0,10,,,,,,,,8,,,66,80
157008,note_on,48,0,10,,,,,,,,8,,,66,0
157008,note_on,48,0,9,,,,,,,,7,,,74,0
157020,note_on,12,0,10,,,,,,,,8,,,78,80
157020,note_on,12,0,9,,,,,,,,7,,,86,80
157056,note_on,96,0,12,,,,,,,,11,,,50,0
157056,note_on,96,0,13,,,,,,,,12,,,38,0
157056,note_on,96,0,3,,,,,,,,2,,,62,0
157068,note_on,48,0,10,,,,,,,,8,,,78,0
157068,note_on,48,0,9,,,,,,,,7,,,86,0
157080,note_on,12,0,9,,,,,,,,7,,,86,80
157080,note_on,24,0,12,,,,,,,,11,,,62,80
157080,note_on,24,0,3,,,,,,,,2,,,62,80
157080,note_on,12,0,10,,,,,,,,8,,,78,80
157080,note_on,24,0,13,,,,,,,,12,,,50,80
157128,note_on,48,0,9,,,,,,,,7,,,86,0
157128,note_on,48,0,10,,,,,,,,8,,,78,0
157140,note_on,12,0,10,,,,,,,,8,,,78,80
157140,note_on,12,0,9,,,,,,,,7,,,86,80
157152,note_on,0,0,5,,,,,,,,4,,,74,0
157152,note_on,0,0,4,,,,,,,,3,,,50,0
157152,note_on,192,0,4,,,,,,,,3,,,62,0
157152,note_on,192,0,7,,,,,,,,6,,,78,0
157152,note_on,192,0,5,,,,,,,,4,,,62,0
157152,note_on,0,0,7,,,,,,,,6,,,86,0
157152,note_on,192,0,6,,,,,,,,5,,,50,0
157152,note_on,192,0,11,,,,,,,,10,,,57,0
157152,note_on,192,0,8,,,,,,,,6,,,38,0
157176,note_on,96,0,12,,,,,,,,11,,,62,0
157176,note_on,96,0,13,,,,,,,,12,,,50,0
157176,note_on,96,0,3,,,,,,,,2,,,62,0
157188,note_on,48,0,10,,,,,,,,8,,,78,0
157188,note_on,48,0,9,,,,,,,,7,,,86,0
157200,note_on,0,0,4,,,,,,,,3,,,50,80
157200,note_on,48,0,4,,,,,,,,3,,,62,80
157200,note_on,48,0,5,,,,,,,,4,,,62,80
157200,note_on,0,0,5,,,,,,,,4,,,74,80
157200,note_on,24,0,12,,,,,,,,11,,,59,80
157200,note_on,12,0,9,,,,,,,,7,,,86,80
157200,note_on,48,0,6,,,,,,,,5,,,50,80
157200,note_on,48,0,11,,,,,,,,10,,,68,80
157200,note_on,24,0,3,,,,,,,,2,,,59,80
157200,note_on,24,0,13,,,,,,,,12,,,47,80
157200,note_on,12,0,10,,,,,,,,8,,,78,80
157248,note_on,48,0,9,,,,,,,,7,,,86,0
157248,note_on,48,0,10,,,,,,,,8,,,78,0
157248,note_on,48,0,11,,,,,,,,10,,,68,0
157260,note_on,12,0,9,,,,,,,,7,,,86,80
157260,note_on,12,0,10,,,,,,,,8,,,78,80
157260,note_on,12,0,11,,,,,,,,10,,,68,80
157296,note_on,96,0,12,,,,,,,,11,,,59,0
157296,note_on,96,0,3,,,,,,,,2,,,59,0
157296,note_on,96,0,13,,,,,,,,12,,,47,0
157308,note_on,48,0,9,,,,,,,,7,,,86,0
157308,note_on,48,0,11,,,,,,,,10,,,68,0
157308,note_on,48,0,10,,,,,,,,8,,,78,0
157320,note_on,24,0,13,,,,,,,,12,,,50,80
157320,note_on,12,0,11,,,,,,,,10,,,68,80
157320,note_on,24,0,3,,,,,,,,2,,,62,80
157320,note_on,12,0,10,,,,,,,,8,,,78,80
157320,note_on,12,0,9,,,,,,,,7,,,86,80
157320,note_on,24,0,12,,,,,,,,11,,,62,80
157344,note_on,144,0,4,,,,,,,,3,,,50,0
157344,note_on,144,0,5,,,,,,,,4,,,74,0
157344,note_on,0,0,5,,,,,,,,4,,,62,0
157344,note_on,144,0,6,,,,,,,,5,,,50,0
157344,note_on,0,0,4,,,,,,,,3,,,62,0
157368,note_on,48,0,9,,,,,,,,7,,,86,0
157368,note_on,48,0,10,,,,,,,,8,,,78,0
157368,note_on,48,0,11,,,,,,,,10,,,68,0
157380,note_on,36,0,4,,,,,,,,3,,,62,80
157380,note_on,0,0,4,,,,,,,,3,,,50,80
157380,note_on,12,0,10,,,,,,,,8,,,78,80
157380,note_on,12,0,11,,,,,,,,10,,,68,80
157380,note_on,12,0,9,,,,,,,,7,,,86,80
157380,note_on,0,0,5,,,,,,,,4,,,74,80
157380,note_on,36,0,5,,,,,,,,4,,,62,80
157380,note_on,36,0,6,,,,,,,,5,,,50,80
157416,note_on,96,0,3,,,,,,,,2,,,62,0
157416,note_on,96,0,12,,,,,,,,11,,,62,0
157416,note_on,96,0,13,,,,,,,,12,,,50,0
157428,note_on,48,0,11,,,,,,,,10,,,68,0
157428,note_on,48,0,9,,,,,,,,7,,,86,0
157428,note_on,0,0,5,,,,,,,,4,,,62,0
157428,note_on,48,0,6,,,,,,,,5,,,50,0
157428,note_on,0,0,4,,,,,,,,3,,,62,0
157428,note_on,48,0,4,,,,,,,,3,,,50,0
157428,note_on,48,0,10,,,,,,,,8,,,78,0
157428,note_on,48,0,5,,,,,,,,4,,,74,0
157440,note_on,12,0,10,,,,,,,,8,,,78,80
157440,note_on,24,0,3,,,,,,,,2,,,57,80
157440,note_on,24,0,12,,,,,,,,11,,,57,80
157440,note_on,0,0,5,,,,,,,,4,,,62,80
157440,note_on,12,0,5,,,,,,,,4,,,74,80
157440,note_on,12,0,4,,,,,,,,3,,,50,80
157440,note_on,0,0,4,,,,,,,,3,,,62,80
157440,note_on,12,0,11,,,,,,,,10,,,69,80
157440,note_on,24,0,13,,,,,,,,12,,,45,80
157440,note_on,12,0,6,,,,,,,,5,,,50,80
157440,note_on,12,0,9,,,,,,,,7,,,86,80
157488,note_on,48,0,9,,,,,,,,7,,,86,0
157488,note_on,48,0,10,,,,,,,,8,,,78,0
157488,note_on,48,0,11,,,,,,,,10,,,69,0
157500,note_on,12,0,10,,,,,,,,8,,,78,80
157500,note_on,12,0,11,,,,,,,,10,,,69,80
157500,note_on,12,0,9,,,,,,,,7,,,86,80
157536,note_on,96,0,13,,,,,,,,12,,,45,0
157536,note_on,96,0,3,,,,,,,,2,,,57,0
157536,note_on,96,0,12,,,,,,,,11,,,57,0
157548,note_on,48,0,10,,,,,,,,8,,,78,0
157548,note_on,48,0,11,,,,,,,,10,,,69,0
157548,note_on,48,0,9,,,,,,,,7,,,86,0
157560,note_on,24,0,12,,,,,,,,11,,,62,80
157560,note_on,24,0,13,,,,,,,,12,,,50,80
157560,note_on,12,0,10,,,,,,,,8,,,78,80
157560,note_on,12,0,9,,,,,,,,7,,,86,80
157560,note_on,12,0,11,,,,,,,,10,,,69,80
157560,note_on,24,0,3,,,,,,,,2,,,62,80
157608,note_on,48,0,9,,,,,,,,7,,,86,0
157608,note_on,48,0,11,,,,,,,,10,,,69,0
157608,note_on,48,0,10,,,,,,,,8,,,78,0
157620,note_on,12,0,9,,,,,,,,7,,,86,80
157620,note_on,12,0,10,,,,,,,,8,,,78,80
157620,note_on,12,0,11,,,,,,,,10,,,69,80
157632,note_on,192,0,6,,,,,,,,5,,,50,0
157632,note_on,192,0,4,,,,,,,,3,,,62,0
157632,note_on,0,0,5,,,,,,,,4,,,74,0
157632,note_on,192,0,5,,,,,,,,4,,,62,0
157632,note_on,0,0,4,,,,,,,,3,,,50,0
157656,note_on,96,0,3,,,,,,,,2,,,62,0
157656,note_on,96,0,13,,,,,,,,12,,,50,0
157656,note_on,96,0,12,,,,,,,,11,,,62,0
157668,note_on,48,0,9,,,,,,,,7,,,86,0
157668,note_on,48,0,11,,,,,,,,10,,,69,0
157668,note_on,48,0,10,,,,,,,,8,,,78,0
157680,note_on,0,0,4,,,,,,,,3,,,62,80
157680,note_on,48,0,6,,,,,,,,5,,,50,80
157680,note_on,24,0,3,,,,,,,,2,,,56,80
157680,note_on,0,0,5,,,,,,,,4,,,62,80
157680,note_on,48,0,5,,,,,,,,4,,,74,80
157680,note_on,12,0,10,,,,,,,,8,,,78,80
157680,note_on,12,0,11,,,,,,,,10,,,71,80
157680,note_on,24,0,12,,,,,,,,11,,,56,80
157680,note_on,12,0,9,,,,,,,,7,,,86,80
157680,note_on,24,0,13,,,,,,,,12,,,44,80
157680,note_on,48,0,4,,,,,,,,3,,,50,80
157728,note_on,48,0,9,,,,,,,,7,,,86,0
157728,note_on,48,0,11,,,,,,,,10,,,71,0
157728,note_on,48,0,10,,,,,,,,8,,,78,0
157740,note_on,12,0,9,,,,,,,,7,,,86,80
157740,note_on,12,0,11,,,,,,,,10,,,71,80
157740,note_on,12,0,10,,,,,,,,8,,,78,80
157776,note_on,96,0,13,,,,,,,,12,,,44,0
157776,note_on,96,0,12,,,,,,,,11,,,56,0
157776,note_on,96,0,3,,,,,,,,2,,,56,0
157788,note_on,48,0,11,,,,,,,,10,,,71,0
157788,note_on,48,0,10,,,,,,,,8,,,78,0
157788,note_on,48,0,9,,,,,,,,7,,,86,0
157800,note_on,12,0,10,,,,,,,,8,,,78,80
157800,note_on,12,0,11,,,,,,,,10,,,71,80
157800,note_on,12,0,9,,,,,,,,7,,,86,80
157800,note_on,24,0,13,,,,,,,,12,,,50,80
157800,note_on,24,0,12,,,,,,,,11,,,62,80
157800,note_on,24,0,3,,,,,,,,2,,,62,80
157824,note_on,864,0,2,,,,,,,,1,,,78,0
157824,note_on,864,0,1,,,,,,,,0,,,90,0
157824,note_on,0,0,2,,,,,,,,1,,,74,0
157848,note_on,48,0,11,,,,,,,,10,,,71,0
157848,note_on,48,0,9,,,,,,,,7,,,86,0
157848,note_on,48,0,10,,,,,,,,8,,,78,0
157860,note_on,12,0,10,,,,,,,,8,,,78,80
157860,note_on,12,0,9,,,,,,,,7,,,86,80
157860,note_on,12,0,11,,,,,,,,10,,,71,80
157872,note_on,192,0,4,,,,,,,,3,,,62,0
157872,note_on,0,0,5,,,,,,,,4,,,74,0
157872,note_on,192,0,5,,,,,,,,4,,,62,0
157872,note_on,192,0,6,,,,,,,,5,,,50,0
157872,note_on,0,0,4,,,,,,,,3,,,50,0
157896,note_on,96,0,3,,,,,,,,2,,,62,0
157896,note_on,96,0,13,,,,,,,,12,,,50,0
157896,note_on,96,0,12,,,,,,,,11,,,62,0
157908,note_on,48,0,9,,,,,,,,7,,,86,0
157908,note_on,48,0,11,,,,,,,,10,,,71,0
157908,note_on,48,0,10,,,,,,,,8,,,78,0
157920,note_on,96,0,2,,,,,,,,1,,,74,80
157920,note_on,768,0,7,,,,,,,,6,,,69,80
157920,note_on,96,0,1,,,,,,,,0,,,69,80
157920,note_on,0,0,8,,,,,,,,6,,,57,80
157920,note_on,768,0,8,,,,,,,,6,,,45,80
157920,note_on,48,0,6,,,,,,,,5,,,45,80
157920,note_on,24,0,12,,,,,,,,11,,,57,80
157920,note_on,24,0,13,,,,,,,,12,,,45,80
157920,note_on,48,0,5,,,,,,,,4,,,69,80
157920,note_on,0,0,5,,,,,,,,4,,,57,80
157920,note_on,12,0,9,,,,,,,,7,,,69,80
157920,note_on,0,0,2,,,,,,,,1,,,78,80
157920,note_on,12,0,10,,,,,,,,8,,,69,80
157920,note_on,12,0,11,,,,,,,,10,,,69,80
157920,note_on,24,0,3,,,,,,,,2,,,57,80
157920,note_on,48,0,4,,,,,,,,3,,,57,80
157920,time_signature,157920,1,0,3,4,24,8,,,,,,,,
157920,note_on,0,0,4,,,,,,,,3,,,45,80
158112,note_on,192,0,6,,,,,,,,5,,,45,0
158304,note_on,384,0,9,,,,,,,,7,,,69,0
158304,note_on,0,0,4,,,,,,,,3,,,57,0
158304,note_on,384,0,5,,,,,,,,4,,,57,0
158304,note_on,0,0,5,,,,,,,,4,,,69,0
158304,note_on,384,0,12,,,,,,,,11,,,57,0
158304,note_on,384,0,11,,,,,,,,10,,,69,0
158304,note_on,384,0,4,,,,,,,,3,,,45,0
158304,note_on,0,0,2,,,,,,,,1,,,74,0
158304,note_on,384,0,2,,,,,,,,1,,,78,0
158304,note_on,384,0,13,,,,,,,,12,,,45,0
158304,note_on,384,0,10,,,,,,,,8,,,69,0
158304,note_on,384,0,1,,,,,,,,0,,,69,0
158304,note_on,384,0,3,,,,,,,,2,,,57,0
158496,note_on,576,0,8,,,,,,,,6,,,57,0
158496,note_on,576,0,7,,,,,,,,6,,,69,0
158496,note_on,0,0,8,,,,,,,,6,,,45,0
158640,note_on,144,0,7,,,,,,,,6,,,81,80
158640,note_on,144,0,8,,,,,,,,6,,,57,80
158640,note_on,0,0,8,,,,,,,,6,,,66,80
158640,time_signature,720,1,0,2,4,24,8,,,,,,,,
158688,note_on,48,0,7,,,,,,,,6,,,81,0
158700,note_on,12,0,7,,,,,,,,6,,,78,80
158748,note_on,48,0,7,,,,,,,,6,,,78,0
158760,note_on,12,0,7,,,,,,,,6,,,74,80
158808,note_on,48,0,7,,,,,,,,6,,,74,0
158820,note_on,12,0,7,,,,,,,,6,,,78,80
158832,note_on,192,0,8,,,,,,,,6,,,66,0
158832,note_on,0,0,8,,,,,,,,6,,,57,0
158868,note_on,48,0,7,,,,,,,,6,,,78,0
158880,note_on,12,0,7,,,,,,,,6,,,81,80
158880,note_on,48,0,8,,,,,,,,6,,,66,80
158880,note_on,0,0,8,,,,,,,,6,,,57,80
158928,note_on,48,0,7,,,,,,,,6,,,81,0
158940,note_on,12,0,7,,,,,,,,6,,,78,80
158976,note_on,0,0,8,,,,,,,,6,,,66,0
158976,note_on,96,0,8,,,,,,,,6,,,57,0
158988,note_on,48,0,7,,,,,,,,6,,,78,0
159000,note_on,0,0,8,,,,,,,,6,,,67,80
159000,note_on,24,0,8,,,,,,,,6,,,57,80
159000,note_on,12,0,7,,,,,,,,6,,,83,80
159048,note_on,48,0,7,,,,,,,,6,,,83,0
159060,note_on,12,0,7,,,,,,,,6,,,73,80
159096,note_on,96,0,8,,,,,,,,6,,,67,0
159096,note_on,0,0,8,,,,,,,,6,,,57,0
159108,note_on,48,0,7,,,,,,,,6,,,73,0
159120,note_on,12,0,7,,,,,,,,6,,,81,80
159120,note_on,24,0,8,,,,,,,,6,,,66,80
159120,note_on,0,0,8,,,,,,,,6,,,57,80
159168,note_on,48,0,7,,,,,,,,6,,,81,0
159180,note_on,12,0,7,,,,,,,,6,,,78,80
159228,note_on,48,0,7,,,,,,,,6,,,78,0
159240,note_on,12,0,7,,,,,,,,6,,,74,80
159288,note_on,48,0,7,,,,,,,,6,,,74,0
159300,note_on,12,0,7,,,,,,,,6,,,78,80
159312,note_on,192,0,8,,,,,,,,6,,,57,0
159312,note_on,0,0,8,,,,,,,,6,,,66,0
159348,note_on,48,0,7,,,,,,,,6,,,78,0
159360,note_on,12,0,7,,,,,,,,6,,,81,80
159360,note_on,48,0,8,,,,,,,,6,,,66,80
159360,note_on,0,0,8,,,,,,,,6,,,57,80
159408,note_on,48,0,7,,,,,,,,6,,,81,0
159420,note_on,12,0,7,,,,,,,,6,,,78,80
159456,note_on,96,0,8,,,,,,,,6,,,57,0
159456,note_on,0,0,8,,,,,,,,6,,,66,0
159468,note_on,48,0,7,,,,,,,,6,,,78,0
159480,note_on,24,0,8,,,,,,,,6,,,57,80
159480,note_on,12,0,7,,,,,,,,6,,,83,80
159480,note_on,0,0,8,,,,,,,,6,,,67,80
159528,note_on,48,0,7,,,,,,,,6,,,83,0
159540,note_on,12,0,7,,,,,,,,6,,,73,80
159576,note_on,0,0,8,,,,,,,,6,,,57,0
159576,note_on,96,0,8,,,,,,,,6,,,67,0
159588,note_on,48,0,7,,,,,,,,6,,,73,0
159600,note_on,12,0,7,,,,,,,,6,,,81,80
159600,note_on,24,0,8,,,,,,,,6,,,57,80
159600,note_on,0,0,8,,,,,,,,6,,,66,80
159648,note_on,48,0,7,,,,,,,,6,,,81,0
159660,note_on,12,0,7,,,,,,,,6,,,78,80
159708,note_on,48,0,7,,,,,,,,6,,,78,0
159720,note_on,12,0,7,,,,,,,,6,,,74,80
159768,note_on,48,0,7,,,,,,,,6,,,74,0
159780,note_on,12,0,7,,,,,,,,6,,,78,80
159792,note_on,0,0,8,,,,,,,,6,,,57,0
159792,note_on,192,0,8,,,,,,,,6,,,66,0
159828,note_on,48,0,7,,,,,,,,6,,,78,0
159840,note_on,12,0,7,,,,,,,,6,,,81,80
159888,note_on,48,0,7,,,,,,,,6,,,81,0
159900,note_on,12,0,7,,,,,,,,6,,,78,80
159948,note_on,48,0,7,,,,,,,,6,,,78,0
159960,note_on,168,0,8,,,,,,,,6,,,78,80
159960,note_on,12,0,7,,,,,,,,6,,,86,80
160008,note_on,48,0,7,,,,,,,,6,,,86,0
160020,note_on,12,0,7,,,,,,,,6,,,81,80
160056,note_on,96,0,8,,,,,,,,6,,,78,0
160068,note_on,48,0,7,,,,,,,,6,,,81,0
160080,note_on,24,0,8,,,,,,,,6,,,76,80
160080,note_on,12,0,7,,,,,,,,6,,,85,80
160128,note_on,48,0,7,,,,,,,,6,,,85,0
160140,note_on,12,0,7,,,,,,,,6,,,79,80
160176,note_on,96,0,8,,,,,,,,6,,,76,0
160188,note_on,48,0,7,,,,,,,,6,,,79,0
160200,note_on,12,0,7,,,,,,,,6,,,83,80
160200,note_on,24,0,8,,,,,,,,6,,,74,80
160248,note_on,48,0,7,,,,,,,,6,,,83,0
160260,note_on,12,0,7,,,,,,,,6,,,78,80
160296,note_on,96,0,8,,,,,,,,6,,,74,0
160308,note_on,48,0,7,,,,,,,,6,,,78,0
160320,note_on,12,0,7,,,,,,,,6,,,81,80
160320,note_on,24,0,8,,,,,,,,6,,,73,80
160368,note_on,48,0,7,,,,,,,,6,,,81,0
160380,note_on,12,0,7,,,,,,,,6,,,76,80
160416,note_on,96,0,8,,,,,,,,6,,,73,0
160428,note_on,48,0,7,,,,,,,,6,,,76,0
160440,note_on,24,0,8,,,,,,,,6,,,71,80
160440,note_on,12,0,7,,,,,,,,6,,,79,80
160488,note_on,48,0,7,,,,,,,,6,,,79,0
160500,note_on,12,0,7,,,,,,,,6,,,74,80
160536,note_on,96,0,8,,,,,,,,6,,,71,0
160548,note_on,48,0,7,,,,,,,,6,,,74,0
160560,note_on,12,0,7,,,,,,,,6,,,78,80
160560,note_on,24,0,8,,,,,,,,6,,,69,80
160608,note_on,48,0,7,,,,,,,,6,,,78,0
160620,note_on,12,0,7,,,,,,,,6,,,73,80
160656,note_on,96,0,8,,,,,,,,6,,,69,0
160668,note_on,48,0,7,,,,,,,,6,,,73,0
160680,note_on,24,0,8,,,,,,,,6,,,67,80
160680,note_on,12,0,7,,,,,,,,6,,,76,80
160728,note_on,48,0,7,,,,,,,,6,,,76,0
160740,note_on,12,0,7,,,,,,,,6,,,71,80
160776,note_on,96,0,8,,,,,,,,6,,,67,0
160788,note_on,48,0,7,,,,,,,,6,,,71,0
160800,note_on,24,0,8,,,,,,,,6,,,66,80
160800,note_on,12,0,7,,,,,,,,6,,,74,80
160896,note_on,96,0,7,,,,,,,,6,,,74,0
160896,note_on,96,0,8,,,,,,,,6,,,66,0
160920,note_on,24,0,8,,,,,,,,6,,,54,80
160920,note_on,24,0,7,,,,,,,,6,,,86,80
160968,note_on,48,0,8,,,,,,,,6,,,54,0
160968,note_on,48,0,7,,,,,,,,6,,,86,0
160980,note_on,12,0,8,,,,,,,,6,,,66,80
160980,note_on,12,0,7,,,,,,,,6,,,74,80
161028,note_on,48,0,8,,,,,,,,6,,,66,0
161028,note_on,48,0,7,,,,,,,,6,,,74,0
161040,note_on,12,0,8,,,,,,,,6,,,52,80
161040,note_on,12,0,7,,,,,,,,6,,,85,80
161088,note_on,48,0,8,,,,,,,,6,,,52,0
161088,note_on,48,0,7,,,,,,,,6,,,85,0
161100,note_on,12,0,8,,,,,,,,6,,,64,80
161100,note_on,12,0,7,,,,,,,,6,,,73,80
161148,note_on,48,0,8,,,,,,,,6,,,64,0
161148,note_on,48,0,7,,,,,,,,6,,,73,0
161160,note_on,12,0,7,,,,,,,,6,,,83,80
161160,note_on,12,0,8,,,,,,,,6,,,50,80
161208,note_on,48,0,8,,,,,,,,6,,,50,0
161208,note_on,48,0,7,,,,,,,,6,,,83,0
161220,note_on,12,0,8,,,,,,,,6,,,62,80
161220,note_on,12,0,7,,,,,,,,6,,,71,80
161268,note_on,48,0,8,,,,,,,,6,,,62,0
161268,note_on,48,0,7,,,,,,,,6,,,71,0
161280,note_on,12,0,8,,,,,,,,6,,,49,80
161280,note_on,12,0,7,,,,,,,,6,,,81,80
161328,note_on,48,0,7,,,,,,,,6,,,81,0
161328,note_on,48,0,8,,,,,,,,6,,,49,0
161340,note_on,12,0,8,,,,,,,,6,,,61,80
161340,note_on,12,0,7,,,,,,,,6,,,69,80
161388,note_on,48,0,7,,,,,,,,6,,,69,0
161388,note_on,48,0,8,,,,,,,,6,,,61,0
161400,note_on,12,0,7,,,,,,,,6,,,79,80
161400,note_on,12,0,8,,,,,,,,6,,,47,80
161448,note_on,48,0,7,,,,,,,,6,,,79,0
161448,note_on,48,0,8,,,,,,,,6,,,47,0
161460,note_on,12,0,7,,,,,,,,6,,,67,80
161460,note_on,12,0,8,,,,,,,,6,,,59,80
161508,note_on,48,0,8,,,,,,,,6,,,59,0
161508,note_on,48,0,7,,,,,,,,6,,,67,0
161520,note_on,12,0,8,,,,,,,,6,,,45,80
161520,note_on,12,0,7,,,,,,,,6,,,78,80
161568,note_on,48,0,8,,,,,,,,6,,,45,0
161568,note_on,48,0,7,,,,,,,,6,,,78,0
161580,note_on,12,0,7,,,,,,,,6,,,66,80
161580,note_on,12,0,8,,,,,,,,6,,,57,80
161628,note_on,48,0,7,,,,,,,,6,,,66,0
161628,note_on,48,0,8,,,,,,,,6,,,57,0
161640,note_on,12,0,8,,,,,,,,6,,,43,80
161640,note_on,12,0,7,,,,,,,,6,,,76,80
161688,note_on,48,0,7,,,,,,,,6,,,76,0
161688,note_on,48,0,8,,,,,,,,6,,,43,0
161700,note_on,12,0,7,,,,,,,,6,,,64,80
161700,note_on,12,0,8,,,,,,,,6,,,55,80
161748,note_on,48,0,7,,,,,,,,6,,,64,0
161748,note_on,48,0,8,,,,,,,,6,,,55,0
161760,note_on,12,0,7,,,,,,,,6,,,74,80
161760,note_on,12,0,8,,,,,,,,6,,,42,80
161808,note_on,48,0,7,,,,,,,,6,,,74,0
161808,note_on,48,0,8,,,,,,,,6,,,42,0
161820,note_on,12,0,7,,,,,,,,6,,,62,80
161820,note_on,12,0,8,,,,,,,,6,,,54,80
161868,note_on,48,0,8,,,,,,,,6,,,54,0
161868,note_on,48,0,7,,,,,,,,6,,,62,0
161880,note_on,12,0,7,,,,,,,,6,,,72,80
161880,note_on,12,0,8,,,,,,,,6,,,40,80
161928,note_on,48,0,7,,,,,,,,6,,,72,0
161928,note_on,48,0,8,,,,,,,,6,,,40,0
161940,note_on,12,0,8,,,,,,,,6,,,52,80
161940,note_on,12,0,7,,,,,,,,6,,,61,80
161988,note_on,48,0,7,,,,,,,,6,,,61,0
161988,note_on,48,0,8,,,,,,,,6,,,52,0
162000,note_on,12,0,8,,,,,,,,6,,,39,80
162000,note_on,0,0,8,,,,,,,,6,,,51,80
162000,note_on,12,0,7,,,,,,,,6,,,71,80
162048,note_on,48,0,7,,,,,,,,6,,,71,0
162060,note_on,12,0,7,,,,,,,,6,,,69,80
162108,note_on,48,0,7,,,,,,,,6,,,69,0
162120,note_on,12,0,7,,,,,,,,6,,,59,80
162168,note_on,48,0,7,,,,,,,,6,,,59,0
162180,note_on,12,0,7,,,,,,,,6,,,69,80
162192,note_on,192,0,8,,,,,,,,6,,,51,0
162192,note_on,0,0,8,,,,,,,,6,,,39,0
162228,note_on,48,0,7,,,,,,,,6,,,69,0
162240,note_on,0,0,8,,,,,,,,6,,,78,80
162240,note_on,12,0,7,,,,,,,,6,,,71,80
162240,note_on,48,0,8,,,,,,,,6,,,75,80
162288,note_on,48,0,7,,,,,,,,6,,,71,0
162300,note_on,12,0,7,,,,,,,,6,,,69,80
162348,note_on,48,0,7,,,,,,,,6,,,69,0
162360,note_on,12,0,7,,,,,,,,6,,,71,80
162408,note_on,48,0,7,,,,,,,,6,,,71,0
162420,note_on,12,0,7,,,,,,,,6,,,69,80
162432,note_on,192,0,8,,,,,,,,6,,,78,0
162432,note_on,0,0,8,,,,,,,,6,,,75,0
162468,note_on,48,0,7,,,,,,,,6,,,69,0
162480,note_on,0,0,8,,,,,,,,6,,,50,80
162480,note_on,12,0,7,,,,,,,,6,,,71,80
162480,note_on,48,0,8,,,,,,,,6,,,38,80
162528,note_on,48,0,7,,,,,,,,6,,,71,0
162540,note_on,12,0,7,,,,,,,,6,,,68,80
162588,note_on,48,0,7,,,,,,,,6,,,68,0
162600,note_on,12,0,7,,,,,,,,6,,,59,80
162648,note_on,48,0,7,,,,,,,,6,,,59,0
162660,note_on,12,0,7,,,,,,,,6,,,68,80
162672,note_on,0,0,8,,,,,,,,6,,,38,0
162672,note_on,192,0,8,,,,,,,,6,,,50,0
162708,note_on,48,0,7,,,,,,,,6,,,68,0
162720,note_on,12,0,7,,,,,,,,6,,,71,80
162720,note_on,0,0,8,,,,,,,,6,,,74,80
162720,note_on,48,0,8,,,,,,,,6,,,77,80
162768,note_on,48,0,7,,,,,,,,6,,,71,0
162780,note_on,12,0,7,,,,,,,,6,,,68,80
162828,note_on,48,0,7,,,,,,,,6,,,68,0
162840,note_on,12,0,7,,,,,,,,6,,,71,80
162888,note_on,48,0,7,,,,,,,,6,,,71,0
162900,note_on,12,0,7,,,,,,,,6,,,68,80
162912,note_on,192,0,8,,,,,,,,6,,,74,0
162912,note_on,0,0,8,,,,,,,,6,,,77,0
162948,note_on,48,0,7,,,,,,,,6,,,68,0
162960,note_on,0,0,8,,,,,,,,6,,,49,80
162960,note_on,12,0,7,,,,,,,,6,,,70,80
162960,note_on,48,0,8,,,,,,,,6,,,37,80
163008,note_on,48,0,7,,,,,,,,6,,,70,0
163020,note_on,12,0,7,,,,,,,,6,,,67,80
163068,note_on,48,0,7,,,,,,,,6,,,67,0
163080,note_on,12,0,7,,,,,,,,6,,,58,80
163128,note_on,48,0,7,,,,,,,,6,,,58,0
163140,note_on,12,0,7,,,,,,,,6,,,67,80
163152,note_on,0,0,8,,,,,,,,6,,,37,0
163152,note_on,192,0,8,,,,,,,,6,,,49,0
163188,note_on,48,0,7,,,,,,,,6,,,67,0
163200,note_on,0,0,8,,,,,,,,6,,,73,80
163200,note_on,48,0,8,,,,,,,,6,,,76,80
163200,note_on,12,0,7,,,,,,,,6,,,70,80
163248,note_on,48,0,7,,,,,,,,6,,,70,0
163260,note_on,12,0,7,,,,,,,,6,,,67,80
163308,note_on,48,0,7,,,,,,,,6,,,67,0
163320,note_on,12,0,7,,,,,,,,6,,,70,80
163368,note_on,48,0,7,,,,,,,,6,,,70,0
163380,note_on,12,0,7,,,,,,,,6,,,67,80
163392,note_on,192,0,8,,,,,,,,6,,,73,0
163392,note_on,0,0,8,,,,,,,,6,,,76,0
163428,note_on,48,0,7,,,,,,,,6,,,67,0
163440,note_on,0,0,8,,,,,,,,6,,,48,80
163440,note_on,48,0,8,,,,,,,,6,,,36,80
163440,note_on,12,0,7,,,,,,,,6,,,69,80
163488,note_on,48,0,7,,,,,,,,6,,,69,0
163500,note_on,12,0,7,,,,,,,,6,,,66,80
163548,note_on,48,0,7,,,,,,,,6,,,66,0
163560,note_on,12,0,7,,,,,,,,6,,,57,80
163608,note_on,48,0,7,,,,,,,,6,,,57,0
163620,note_on,12,0,7,,,,,,,,6,,,66,80
163632,note_on,192,0,8,,,,,,,,6,,,48,0
163632,note_on,0,0,8,,,,,,,,6,,,36,0
163668,note_on,48,0,7,,,,,,,,6,,,66,0
163680,note_on,48,0,8,,,,,,,,6,,,75,80
163680,note_on,12,0,7,,,,,,,,6,,,69,80
163680,note_on,0,0,8,,,,,,,,6,,,72,80
163728,note_on,48,0,7,,,,,,,,6,,,69,0
163740,note_on,12,0,7,,,,,,,,6,,,66,80
163788,note_on,48,0,7,,,,,,,,6,,,66,0
163800,note_on,12,0,7,,,,,,,,6,,,69,80
163848,note_on,48,0,7,,,,,,,,6,,,69,0
163860,note_on,12,0,7,,,,,,,,6,,,66,80
163872,note_on,192,0,8,,,,,,,,6,,,72,0
163872,note_on,0,0,8,,,,,,,,6,,,75,0
163908,note_on,48,0,7,,,,,,,,6,,,66,0
163920,note_on,12,0,7,,,,,,,,6,,,67,80
163920,note_on,48,0,8,,,,,,,,6,,,47,80
163968,note_on,48,0,8,,,,,,,,6,,,47,0
163980,note_on,12,0,8,,,,,,,,6,,,59,80
164016,note_on,96,0,7,,,,,,,,6,,,67,0
164028,note_on,48,0,8,,,,,,,,6,,,59,0
164040,note_on,12,0,8,,,,,,,,6,,,57,80
164088,note_on,48,0,8,,,,,,,,6,,,57,0
164100,note_on,12,0,8,,,,,,,,6,,,59,80
164148,note_on,48,0,8,,,,,,,,6,,,59,0
164160,note_on,144,0,7,,,,,,,,6,,,66,80
164160,note_on,12,0,8,,,,,,,,6,,,48,80
164208,note_on,48,0,8,,,,,,,,6,,,48,0
164208,note_on,48,0,7,,,,,,,,6,,,66,0
164220,note_on,12,0,8,,,,,,,,6,,,60,80
164220,note_on,12,0,7,,,,,,,,6,,,74,80
164268,note_on,48,0,8,,,,,,,,6,,,60,0
164268,note_on,48,0,7,,,,,,,,6,,,74,0
164280,note_on,12,0,8,,,,,,,,6,,,59,80
164280,note_on,12,0,7,,,,,,,,6,,,78,80
164328,note_on,48,0,7,,,,,,,,6,,,78,0
164328,note_on,48,0,8,,,,,,,,6,,,59,0
164340,note_on,12,0,7,,,,,,,,6,,,74,80
164340,note_on,12,0,8,,,,,,,,6,,,60,80
164388,note_on,48,0,7,,,,,,,,6,,,74,0
164388,note_on,48,0,8,,,,,,,,6,,,60,0
164400,note_on,12,0,8,,,,,,,,6,,,47,80
164400,note_on,12,0,7,,,,,,,,6,,,67,80
164448,note_on,48,0,8,,,,,,,,6,,,47,0
164448,note_on,48,0,7,,,,,,,,6,,,67,0
164460,note_on,12,0,8,,,,,,,,6,,,59,80
164460,note_on,12,0,7,,,,,,,,6,,,74,80
164508,note_on,48,0,7,,,,,,,,6,,,74,0
164508,note_on,48,0,8,,,,,,,,6,,,59,0
164520,note_on,12,0,7,,,,,,,,6,,,79,80
164520,note_on,12,0,8,,,,,,,,6,,,57,80
164568,note_on,48,0,7,,,,,,,,6,,,79,0
164568,note_on,48,0,8,,,,,,,,6,,,57,0
164580,note_on,12,0,8,,,,,,,,6,,,59,80
164580,note_on,12,0,7,,,,,,,,6,,,74,80
164628,note_on,48,0,7,,,,,,,,6,,,74,0
164628,note_on,48,0,8,,,,,,,,6,,,59,0
164640,note_on,12,0,8,,,,,,,,6,,,45,80
164640,note_on,12,0,7,,,,,,,,6,,,69,80
164688,note_on,48,0,7,,,,,,,,6,,,69,0
164688,note_on,48,0,8,,,,,,,,6,,,45,0
164700,note_on,12,0,8,,,,,,,,6,,,57,80
164700,note_on,12,0,7,,,,,,,,6,,,74,80
164748,note_on,48,0,7,,,,,,,,6,,,74,0
164748,note_on,48,0,8,,,,,,,,6,,,57,0
164760,note_on,12,0,7,,,,,,,,6,,,81,80
164760,note_on,12,0,8,,,,,,,,6,,,55,80
164808,note_on,48,0,7,,,,,,,,6,,,81,0
164808,note_on,48,0,8,,,,,,,,6,,,55,0
164820,note_on,12,0,8,,,,,,,,6,,,57,80
164820,note_on,12,0,7,,,,,,,,6,,,74,80
164868,note_on,48,0,7,,,,,,,,6,,,74,0
164868,note_on,48,0,8,,,,,,,,6,,,57,0
164880,note_on,12,0,8,,,,,,,,6,,,43,80
164880,note_on,12,0,7,,,,,,,,6,,,71,80
164928,note_on,48,0,8,,,,,,,,6,,,43,0
164928,note_on,48,0,7,,,,,,,,6,,,71,0
164940,note_on,12,0,7,,,,,,,,6,,,74,80
164940,note_on,12,0,8,,,,,,,,6,,,55,80
164988,note_on,48,0,7,,,,,,,,6,,,74,0
164988,note_on,48,0,8,,,,,,,,6,,,55,0
165000,note_on,12,0,8,,,,,,,,6,,,54,80
165000,note_on,12,0,7,,,,,,,,6,,,83,80
165048,note_on,48,0,7,,,,,,,,6,,,83,0
165048,note_on,48,0,8,,,,,,,,6,,,54,0
165060,note_on,12,0,7,,,,,,,,6,,,74,80
165060,note_on,12,0,8,,,,,,,,6,,,55,80
165108,note_on,48,0,7,,,,,,,,6,,,74,0
165108,note_on,48,0,8,,,,,,,,6,,,55,0
165120,note_on,12,0,7,,,,,,,,6,,,72,80
165120,note_on,12,0,8,,,,,,,,6,,,42,80
165168,note_on,48,0,8,,,,,,,,6,,,42,0
165168,note_on,48,0,7,,,,,,,,6,,,72,0
165180,note_on,12,0,8,,,,,,,,6,,,54,80
165180,note_on,12,0,7,,,,,,,,6,,,74,80
165228,note_on,48,0,8,,,,,,,,6,,,54,0
165228,note_on,48,0,7,,,,,,,,6,,,74,0
165240,note_on,12,0,7,,,,,,,,6,,,84,80
165240,note_on,12,0,8,,,,,,,,6,,,52,80
165288,note_on,48,0,7,,,,,,,,6,,,84,0
165288,note_on,48,0,8,,,,,,,,6,,,52,0
165300,note_on,12,0,8,,,,,,,,6,,,54,80
165300,note_on,12,0,7,,,,,,,,6,,,74,80
165348,note_on,48,0,7,,,,,,,,6,,,74,0
165348,note_on,48,0,8,,,,,,,,6,,,54,0
165360,note_on,12,0,7,,,,,,,,6,,,71,80
165360,note_on,12,0,8,,,,,,,,6,,,43,80
165408,note_on,48,0,7,,,,,,,,6,,,71,0
165408,note_on,48,0,8,,,,,,,,6,,,43,0
165420,note_on,12,0,7,,,,,,,,6,,,74,80
165420,note_on,12,0,8,,,,,,,,6,,,55,80
165468,note_on,48,0,7,,,,,,,,6,,,74,0
165468,note_on,48,0,8,,,,,,,,6,,,55,0
165480,note_on,12,0,8,,,,,,,,6,,,54,80
165480,note_on,12,0,7,,,,,,,,6,,,83,80
165528,note_on,48,0,8,,,,,,,,6,,,54,0
165528,note_on,48,0,7,,,,,,,,6,,,83,0
165540,note_on,12,0,8,,,,,,,,6,,,55,80
165540,note_on,12,0,7,,,,,,,,6,,,74,80
165588,note_on,48,0,8,,,,,,,,6,,,55,0
165588,note_on,48,0,7,,,,,,,,6,,,74,0
165600,note_on,12,0,8,,,,,,,,6,,,45,80
165600,note_on,12,0,7,,,,,,,,6,,,69,80
165648,note_on,48,0,8,,,,,,,,6,,,45,0
165648,note_on,48,0,7,,,,,,,,6,,,69,0
165660,note_on,12,0,7,,,,,,,,6,,,74,80
165660,note_on,12,0,8,,,,,,,,6,,,57,80
165708,note_on,48,0,8,,,,,,,,6,,,57,0
165708,note_on,48,0,7,,,,,,,,6,,,74,0
165720,note_on,12,0,8,,,,,,,,6,,,55,80
165720,note_on,12,0,7,,,,,,,,6,,,81,80
165768,note_on,48,0,8,,,,,,,,6,,,55,0
165768,note_on,48,0,7,,,,,,,,6,,,81,0
165780,note_on,12,0,7,,,,,,,,6,,,74,80
165780,note_on,12,0,8,,,,,,,,6,,,57,80
165828,note_on,48,0,7,,,,,,,,6,,,74,0
165828,note_on,48,0,8,,,,,,,,6,,,57,0
165840,note_on,12,0,8,,,,,,,,6,,,47,80
165840,note_on,12,0,7,,,,,,,,6,,,67,80
165888,note_on,48,0,8,,,,,,,,6,,,47,0
165888,note_on,48,0,7,,,,,,,,6,,,67,0
165900,note_on,12,0,8,,,,,,,,6,,,59,80
165900,note_on,12,0,7,,,,,,,,6,,,74,80
165948,note_on,48,0,7,,,,,,,,6,,,74,0
165948,note_on,48,0,8,,,,,,,,6,,,59,0
165960,note_on,12,0,7,,,,,,,,6,,,79,80
165960,note_on,12,0,8,,,,,,,,6,,,57,80
166008,note_on,48,0,7,,,,,,,,6,,,79,0
166008,note_on,48,0,8,,,,,,,,6,,,57,0
166020,note_on,12,0,8,,,,,,,,6,,,59,80
166020,note_on,12,0,7,,,,,,,,6,,,74,80
166068,note_on,48,0,8,,,,,,,,6,,,59,0
166068,note_on,48,0,7,,,,,,,,6,,,74,0
166080,note_on,12,0,7,,,,,,,,6,,,66,80
166080,note_on,12,0,8,,,,,,,,6,,,48,80
166128,note_on,48,0,7,,,,,,,,6,,,66,0
166128,note_on,48,0,8,,,,,,,,6,,,48,0
166140,note_on,12,0,7,,,,,,,,6,,,74,80
166140,note_on,12,0,8,,,,,,,,6,,,60,80
166188,note_on,48,0,8,,,,,,,,6,,,60,0
166188,note_on,48,0,7,,,,,,,,6,,,74,0
166200,note_on,12,0,8,,,,,,,,6,,,59,80
166200,note_on,12,0,7,,,,,,,,6,,,78,80
166248,note_on,48,0,8,,,,,,,,6,,,59,0
166248,note_on,48,0,7,,,,,,,,6,,,78,0
166260,note_on,12,0,8,,,,,,,,6,,,60,80
166260,note_on,12,0,7,,,,,,,,6,,,74,80
166308,note_on,48,0,8,,,,,,,,6,,,60,0
166308,note_on,48,0,7,,,,,,,,6,,,74,0
166320,note_on,12,0,8,,,,,,,,6,,,47,80
166320,note_on,12,0,7,,,,,,,,6,,,67,80
166368,note_on,48,0,8,,,,,,,,6,,,47,0
166368,note_on,48,0,7,,,,,,,,6,,,67,0
166380,note_on,12,0,8,,,,,,,,6,,,59,80
166380,note_on,12,0,7,,,,,,,,6,,,74,80
166428,note_on,48,0,8,,,,,,,,6,,,59,0
166428,note_on,48,0,7,,,,,,,,6,,,74,0
166440,note_on,12,0,8,,,,,,,,6,,,57,80
166440,note_on,12,0,7,,,,,,,,6,,,79,80
166488,note_on,48,0,8,,,,,,,,6,,,57,0
166488,note_on,48,0,7,,,,,,,,6,,,79,0
166500,note_on,12,0,8,,,,,,,,6,,,59,80
166500,note_on,12,0,7,,,,,,,,6,,,74,80
166548,note_on,48,0,7,,,,,,,,6,,,74,0
166548,note_on,48,0,8,,,,,,,,6,,,59,0
166560,note_on,12,0,7,,,,,,,,6,,,69,80
166560,note_on,12,0,8,,,,,,,,6,,,45,80
166608,note_on,48,0,7,,,,,,,,6,,,69,0
166608,note_on,48,0,8,,,,,,,,6,,,45,0
166620,note_on,12,0,7,,,,,,,,6,,,74,80
166620,note_on,12,0,8,,,,,,,,6,,,57,80
166668,note_on,48,0,7,,,,,,,,6,,,74,0
166668,note_on,48,0,8,,,,,,,,6,,,57,0
166680,note_on,12,0,8,,,,,,,,6,,,55,80
166680,note_on,12,0,7,,,,,,,,6,,,81,80
166728,note_on,48,0,8,,,,,,,,6,,,55,0
166728,note_on,48,0,7,,,,,,,,6,,,81,0
166740,note_on,12,0,7,,,,,,,,6,,,74,80
166740,note_on,12,0,8,,,,,,,,6,,,57,80
166788,note_on,48,0,8,,,,,,,,6,,,57,0
166788,note_on,48,0,7,,,,,,,,6,,,74,0
166800,note_on,12,0,8,,,,,,,,6,,,55,80
166848,note_on,48,0,8,,,,,,,,6,,,55,0
166860,note_on,12,0,8,,,,,,,,6,,,59,80
166908,note_on,48,0,8,,,,,,,,6,,,59,0
166920,note_on,12,0,8,,,,,,,,6,,,62,80
166968,note_on,48,0,8,,,,,,,,6,,,62,0
166980,note_on,12,0,8,,,,,,,,6,,,67,80
167028,note_on,48,0,8,,,,,,,,6,,,67,0
167040,note_on,252,0,7,,,,,,,,6,,,71,80
167088,note_on,48,0,7,,,,,,,,6,,,71,0
167100,note_on,12,0,7,,,,,,,,6,,,74,80
167148,note_on,48,0,7,,,,,,,,6,,,74,0
167160,note_on,12,0,7,,,,,,,,6,,,79,80
167208,note_on,48,0,7,,,,,,,,6,,,79,0
167220,note_on,12,0,7,,,,,,,,6,,,83,80
167268,note_on,48,0,7,,,,,,,,6,,,83,0
167280,note_on,252,0,8,,,,,,,,6,,,55,80
167328,note_on,48,0,8,,,,,,,,6,,,55,0
167340,note_on,12,0,8,,,,,,,,6,,,61,80
167388,note_on,48,0,8,,,,,,,,6,,,61,0
167400,note_on,12,0,8,,,,,,,,6,,,64,80
167448,note_on,48,0,8,,,,,,,,6,,,64,0
167460,note_on,12,0,8,,,,,,,,6,,,67,80
167508,note_on,48,0,8,,,,,,,,6,,,67,0
167520,note_on,252,0,7,,,,,,,,6,,,73,80
167568,note_on,48,0,7,,,,,,,,6,,,73,0
167580,note_on,12,0,7,,,,,,,,6,,,76,80
167628,note_on,48,0,7,,,,,,,,6,,,76,0
167640,note_on,12,0,7,,,,,,,,6,,,82,80
167688,note_on,48,0,7,,,,,,,,6,,,82,0
167700,note_on,12,0,7,,,,,,,,6,,,85,80
167748,note_on,48,0,7,,,,,,,,6,,,85,0
167760,note_on,252,0,8,,,,,,,,6,,,56,80
167808,note_on,48,0,8,,,,,,,,6,,,56,0
167820,note_on,12,0,8,,,,,,,,6,,,62,80
167868,note_on,48,0,8,,,,,,,,6,,,62,0
167880,note_on,12,0,8,,,,,,,,6,,,65,80
167928,note_on,48,0,8,,,,,,,,6,,,65,0
167940,note_on,12,0,8,,,,,,,,6,,,68,80
167988,note_on,48,0,8,,,,,,,,6,,,68,0
168000,note_on,252,0,7,,,,,,,,6,,,74,80
168048,note_on,48,0,7,,,,,,,,6,,,74,0
168060,note_on,12,0,7,,,,,,,,6,,,77,80
168108,note_on,48,0,7,,,,,,,,6,,,77,0
168120,note_on,12,0,7,,,,,,,,6,,,80,80
168168,note_on,48,0,7,,,,,,,,6,,,80,0
168180,note_on,12,0,7,,,,,,,,6,,,83,80
168228,note_on,48,0,7,,,,,,,,6,,,83,0
168240,note_on,12,0,7,,,,,,,,6,,,86,80
168288,note_on,48,0,7,,,,,,,,6,,,86,0
168300,note_on,12,0,7,,,,,,,,6,,,80,80
168348,note_on,48,0,7,,,,,,,,6,,,80,0
168360,note_on,12,0,7,,,,,,,,6,,,83,80
168408,note_on,48,0,7,,,,,,,,6,,,83,0
168420,note_on,12,0,7,,,,,,,,6,,,86,80
168468,note_on,48,0,7,,,,,,,,6,,,86,0
168480,note_on,12,0,7,,,,,,,,6,,,89,80
168528,note_on,48,0,7,,,,,,,,6,,,89,0
168540,note_on,12,0,7,,,,,,,,6,,,86,80
168588,note_on,48,0,7,,,,,,,,6,,,86,0
168600,note_on,12,0,7,,,,,,,,6,,,89,80
168648,note_on,48,0,7,,,,,,,,6,,,89,0
168660,note_on,12,0,7,,,,,,,,6,,,86,80
168708,note_on,48,0,7,,,,,,,,6,,,86,0
168720,note_on,12,0,7,,,,,,,,6,,,89,80
168912,note_on,192,0,7,,,,,,,,6,,,89,0
169200,note_on,288,0,7,,,,,,,,6,,,74,80
169488,note_on,288,0,7,,,,,,,,6,,,74,0
169560,note_on,72,0,7,,,,,,,,6,,,79,80
169656,note_on,96,0,7,,,,,,,,6,,,79,0
169680,note_on,24,0,7,,,,,,,,6,,,78,80
169680,note_on,0,0,7,,,,,,,,6,,,81,80
169776,note_on,96,0,7,,,,,,,,6,,,78,0
169800,note_on,24,0,7,,,,,,,,6,,,78,80
169896,note_on,96,0,7,,,,,,,,6,,,78,0
169920,note_on,24,0,7,,,,,,,,6,,,78,80
169968,note_on,48,0,7,,,,,,,,6,,,81,0
170016,note_on,48,0,7,,,,,,,,6,,,78,0
170040,note_on,24,0,7,,,,,,,,6,,,78,80
170040,note_on,0,0,7,,,,,,,,6,,,86,80
170088,note_on,48,0,7,,,,,,,,6,,,78,0
170100,note_on,12,0,7,,,,,,,,6,,,79,80
170136,note_on,36,0,7,,,,,,,,6,,,86,0
170148,note_on,12,0,7,,,,,,,,6,,,79,0
170160,note_on,12,0,7,,,,,,,,6,,,76,80
170160,note_on,0,0,7,,,,,,,,6,,,85,80
170256,note_on,96,0,7,,,,,,,,6,,,85,0
170256,note_on,0,0,7,,,,,,,,6,,,76,0
170280,note_on,24,0,7,,,,,,,,6,,,76,80
170280,note_on,0,0,7,,,,,,,,6,,,85,80
170376,note_on,96,0,7,,,,,,,,6,,,85,0
170376,note_on,0,0,7,,,,,,,,6,,,76,0
170400,note_on,24,0,7,,,,,,,,6,,,76,80
170400,note_on,0,0,7,,,,,,,,6,,,85,80
170496,note_on,96,0,7,,,,,,,,6,,,85,0
170496,note_on,0,0,7,,,,,,,,6,,,76,0
170520,note_on,24,0,7,,,,,,,,6,,,76,80
170520,note_on,0,0,7,,,,,,,,6,,,85,80
170568,note_on,0,0,7,,,,,,,,6,,,76,0
170568,note_on,48,0,7,,,,,,,,6,,,85,0
170580,note_on,12,0,7,,,,,,,,6,,,78,80
170580,note_on,0,0,7,,,,,,,,6,,,86,80
170628,note_on,48,0,7,,,,,,,,6,,,86,0
170628,note_on,0,0,7,,,,,,,,6,,,78,0
170640,note_on,12,0,7,,,,,,,,6,,,74,80
170640,note_on,0,0,7,,,,,,,,6,,,83,80
170736,note_on,96,0,7,,,,,,,,6,,,83,0
170736,note_on,0,0,7,,,,,,,,6,,,74,0
170760,note_on,24,0,7,,,,,,,,6,,,83,80
170856,note_on,96,0,7,,,,,,,,6,,,83,0
170880,note_on,24,0,7,,,,,,,,6,,,79,80
170880,note_on,0,0,7,,,,,,,,6,,,83,80
170976,note_on,96,0,7,,,,,,,,6,,,83,0
171000,note_on,24,0,7,,,,,,,,6,,,83,80
171048,note_on,48,0,7,,,,,,,,6,,,83,0
171060,note_on,12,0,7,,,,,,,,6,,,84,80
171108,note_on,48,0,7,,,,,,,,6,,,84,0
171120,note_on,12,0,7,,,,,,,,6,,,81,80
171168,note_on,48,0,7,,,,,,,,6,,,79,0
171180,note_on,12,0,7,,,,,,,,6,,,78,80
171228,note_on,48,0,7,,,,,,,,6,,,78,0
171240,note_on,12,0,7,,,,,,,,6,,,79,80
171288,note_on,48,0,7,,,,,,,,6,,,79,0
171300,note_on,12,0,7,,,,,,,,6,,,76,80
171348,note_on,48,0,7,,,,,,,,6,,,76,0
171360,note_on,12,0,7,,,,,,,,6,,,78,80
171408,note_on,48,0,7,,,,,,,,6,,,81,0
171480,note_on,72,0,7,,,,,,,,6,,,83,80
171576,note_on,96,0,7,,,,,,,,6,,,83,0
171600,note_on,24,0,7,,,,,,,,6,,,79,80
171696,note_on,96,0,7,,,,,,,,6,,,78,0
171720,note_on,24,0,7,,,,,,,,6,,,75,80
171816,note_on,96,0,7,,,,,,,,6,,,75,0
171840,note_on,24,0,7,,,,,,,,6,,,76,80
171888,note_on,48,0,7,,,,,,,,6,,,79,0
171960,note_on,72,0,7,,,,,,,,6,,,81,80
172056,note_on,96,0,7,,,,,,,,6,,,81,0
172080,note_on,4092,0,8,,,,,,,,6,,,57,80
172080,note_on,24,0,7,,,,,,,,6,,,78,80
172176,note_on,96,0,7,,,,,,,,6,,,76,0
172200,note_on,24,0,7,,,,,,,,6,,,73,80
172296,note_on,96,0,7,,,,,,,,6,,,73,0
172320,note_on,24,0,7,,,,,,,,6,,,74,80
172368,note_on,288,0,8,,,,,,,,6,,,57,0
172368,note_on,48,0,7,,,,,,,,6,,,78,0
172416,note_on,48,0,7,,,,,,,,6,,,74,0
172440,note_on,72,0,8,,,,,,,,6,,,62,80
172440,note_on,24,0,7,,,,,,,,6,,,83,80
172440,note_on,0,0,7,,,,,,,,6,,,78,80
172536,note_on,96,0,8,,,,,,,,6,,,62,0
172536,note_on,96,0,7,,,,,,,,6,,,78,0
172560,note_on,24,0,8,,,,,,,,6,,,61,80
172560,note_on,24,0,7,,,,,,,,6,,,76,80
172656,note_on,96,0,8,,,,,,,,6,,,61,0
172656,note_on,96,0,7,,,,,,,,6,,,83,0
172680,note_on,24,0,7,,,,,,,,6,,,80,80
172680,note_on,24,0,8,,,,,,,,6,,,61,80
172752,note_on,72,0,7,,,,,,,,6,,,76,0
172776,note_on,24,0,7,,,,,,,,6,,,80,0
172776,note_on,96,0,8,,,,,,,,6,,,61,0
172800,note_on,24,0,8,,,,,,,,6,,,61,80
172800,note_on,24,0,7,,,,,,,,6,,,81,80
172896,note_on,96,0,8,,,,,,,,6,,,61,0
172920,note_on,120,0,7,,,,,,,,6,,,88,80
172920,note_on,24,0,8,,,,,,,,6,,,61,80
172968,note_on,48,0,8,,,,,,,,6,,,61,0
172980,note_on,12,0,8,,,,,,,,6,,,62,80
173016,note_on,96,0,7,,,,,,,,6,,,88,0
173028,note_on,48,0,8,,,,,,,,6,,,62,0
173040,note_on,12,0,8,,,,,,,,6,,,59,80
173040,note_on,24,0,7,,,,,,,,6,,,86,80
173136,note_on,96,0,8,,,,,,,,6,,,59,0
173136,note_on,96,0,7,,,,,,,,6,,,81,0
173160,note_on,24,0,8,,,,,,,,6,,,59,80
173160,note_on,24,0,7,,,,,,,,6,,,78,80
173232,note_on,72,0,7,,,,,,,,6,,,86,0
173256,note_on,24,0,7,,,,,,,,6,,,78,0
173256,note_on,96,0,8,,,,,,,,6,,,59,0
173280,note_on,24,0,7,,,,,,,,6,,,79,80
173280,note_on,24,0,8,,,,,,,,6,,,59,80
173376,note_on,96,0,8,,,,,,,,6,,,59,0
173400,note_on,120,0,7,,,,,,,,6,,,74,80
173400,note_on,24,0,8,,,,,,,,6,,,59,80
173448,note_on,48,0,8,,,,,,,,6,,,59,0
173460,note_on,12,0,8,,,,,,,,6,,,61,80
173496,note_on,96,0,7,,,,,,,,6,,,74,0
173508,note_on,48,0,8,,,,,,,,6,,,61,0
173520,note_on,12,0,8,,,,,,,,6,,,57,80
173520,note_on,24,0,7,,,,,,,,6,,,73,80
173616,note_on,96,0,8,,,,,,,,6,,,57,0
173616,note_on,96,0,7,,,,,,,,6,,,79,0
173640,note_on,24,0,8,,,,,,,,6,,,57,80
173640,note_on,24,0,7,,,,,,,,6,,,77,80
173712,note_on,72,0,7,,,,,,,,6,,,73,0
173736,note_on,96,0,8,,,,,,,,6,,,57,0
173736,note_on,24,0,7,,,,,,,,6,,,77,0
173760,note_on,24,0,8,,,,,,,,6,,,57,80
173760,note_on,24,0,7,,,,,,,,6,,,78,80
173856,note_on,96,0,8,,,,,,,,6,,,57,0
173880,note_on,120,0,7,,,,,,,,6,,,85,80
173880,note_on,24,0,8,,,,,,,,6,,,57,80
173928,note_on,48,0,8,,,,,,,,6,,,57,0
173940,note_on,12,0,8,,,,,,,,6,,,59,80
173976,note_on,96,0,7,,,,,,,,6,,,85,0
173988,note_on,48,0,8,,,,,,,,6,,,59,0
174000,note_on,12,0,8,,,,,,,,6,,,55,80
174000,note_on,24,0,7,,,,,,,,6,,,83,80
174096,note_on,96,0,7,,,,,,,,6,,,78,0
174096,note_on,96,0,8,,,,,,,,6,,,55,0
174120,note_on,24,0,7,,,,,,,,6,,,75,80
174120,note_on,24,0,8,,,,,,,,6,,,55,80
174192,note_on,72,0,7,,,,,,,,6,,,83,0
174216,note_on,24,0,7,,,,,,,,6,,,75,0
174216,note_on,96,0,8,,,,,,,,6,,,55,0
174240,note_on,24,0,7,,,,,,,,6,,,76,80
174240,note_on,24,0,8,,,,,,,,6,,,55,80
174336,note_on,96,0,8,,,,,,,,6,,,55,0
174360,note_on,120,0,7,,,,,,,,6,,,71,80
174360,note_on,24,0,8,,,,,,,,6,,,55,80
174408,note_on,48,0,8,,,,,,,,6,,,55,0
174420,note_on,12,0,8,,,,,,,,6,,,57,80
174456,note_on,96,0,7,,,,,,,,6,,,71,0
174468,note_on,48,0,8,,,,,,,,6,,,57,0
174480,note_on,24,0,7,,,,,,,,6,,,69,80
174480,note_on,12,0,8,,,,,,,,6,,,54,80
174576,note_on,96,0,7,,,,,,,,6,,,76,0
174600,note_on,24,0,7,,,,,,,,6,,,73,80
174672,note_on,72,0,7,,,,,,,,6,,,69,0
174672,note_on,192,0,8,,,,,,,,6,,,54,0
174696,note_on,24,0,7,,,,,,,,6,,,73,0
174720,note_on,24,0,7,,,,,,,,6,,,74,80
174840,note_on,168,0,8,,,,,,,,6,,,66,80
174840,note_on,120,0,7,,,,,,,,6,,,81,80
174912,note_on,72,0,7,,,,,,,,6,,,74,0
174936,note_on,96,0,8,,,,,,,,6,,,66,0
174936,note_on,24,0,7,,,,,,,,6,,,81,0
174960,note_on,24,0,7,,,,,,,,6,,,79,80
174960,note_on,24,0,8,,,,,,,,6,,,64,80
175008,note_on,48,0,8,,,,,,,,6,,,64,0
175008,note_on,48,0,7,,,,,,,,6,,,79,0
175020,note_on,12,0,8,,,,,,,,6,,,62,80
175020,note_on,12,0,7,,,,,,,,6,,,78,80
175068,note_on,48,0,7,,,,,,,,6,,,78,0
175068,note_on,48,0,8,,,,,,,,6,,,62,0
175080,note_on,12,0,7,,,,,,,,6,,,76,80
175080,note_on,12,0,8,,,,,,,,6,,,61,80
175128,note_on,48,0,8,,,,,,,,6,,,61,0
175128,note_on,48,0,7,,,,,,,,6,,,76,0
175140,note_on,12,0,8,,,,,,,,6,,,59,80
175140,note_on,12,0,7,,,,,,,,6,,,74,80
175188,note_on,48,0,8,,,,,,,,6,,,59,0
175188,note_on,48,0,7,,,,,,,,6,,,74,0
175200,note_on,12,0,8,,,,,,,,6,,,57,80
175200,note_on,12,0,7,,,,,,,,6,,,73,80
175248,note_on,48,0,7,,,,,,,,6,,,73,0
175248,note_on,48,0,8,,,,,,,,6,,,57,0
175260,note_on,12,0,8,,,,,,,,6,,,55,80
175260,note_on,12,0,7,,,,,,,,6,,,71,80
175308,note_on,48,0,8,,,,,,,,6,,,55,0
175308,note_on,48,0,7,,,,,,,,6,,,71,0
175320,note_on,12,0,7,,,,,,,,6,,,69,80
175320,note_on,12,0,8,,,,,,,,6,,,54,80
175368,note_on,48,0,8,,,,,,,,6,,,54,0
175368,note_on,48,0,7,,,,,,,,6,,,69,0
175380,note_on,12,0,7,,,,,,,,6,,,67,80
175380,note_on,12,0,8,,,,,,,,6,,,52,80
175428,note_on,48,0,7,,,,,,,,6,,,67,0
175428,note_on,48,0,8,,,,,,,,6,,,52,0
175440,note_on,12,0,8,,,,,,,,6,,,50,80
175440,note_on,12,0,7,,,,,,,,6,,,66,80
175488,note_on,48,0,8,,,,,,,,6,,,50,0
175488,note_on,48,0,7,,,,,,,,6,,,66,0
175500,note_on,12,0,8,,,,,,,,6,,,49,80
175500,note_on,12,0,7,,,,,,,,6,,,64,80
175548,note_on,48,0,7,,,,,,,,6,,,64,0
175548,note_on,48,0,8,,,,,,,,6,,,49,0
175560,note_on,12,0,7,,,,,,,,6,,,62,80
175560,note_on,12,0,8,,,,,,,,6,,,47,80
175608,note_on,48,0,7,,,,,,,,6,,,62,0
175608,note_on,48,0,8,,,,,,,,6,,,47,0
175620,note_on,12,0,7,,,,,,,,6,,,61,80
175620,note_on,12,0,8,,,,,,,,6,,,45,80
175668,note_on,48,0,7,,,,,,,,6,,,61,0
175668,note_on,48,0,8,,,,,,,,6,,,45,0
175680,note_on,12,0,8,,,,,,,,6,,,43,80
175680,note_on,0,0,8,,,,,,,,6,,,59,80
175728,note_on,0,0,8,,,,,,,,6,,,43,0
175728,note_on,48,0,8,,,,,,,,6,,,59,0
175740,note_on,0,0,8,,,,,,,,6,,,57,80
175740,note_on,12,0,8,,,,,,,,6,,,42,80
175788,note_on,0,0,8,,,,,,,,6,,,42,0
175788,note_on,48,0,8,,,,,,,,6,,,57,0
175800,note_on,0,0,8,,,,,,,,6,,,55,80
175800,note_on,12,0,8,,,,,,,,6,,,40,80
175848,note_on,0,0,8,,,,,,,,6,,,40,0
175848,note_on,48,0,8,,,,,,,,6,,,55,0
175860,note_on,0,0,8,,,,,,,,6,,,54,80
175860,note_on,12,0,8,,,,,,,,6,,,38,80
175908,note_on,0,0,8,,,,,,,,6,,,38,0
175908,note_on,48,0,8,,,,,,,,6,,,54,0
175920,note_on,0,0,8,,,,,,,,6,,,52,80
175920,note_on,0,0,8,,,,,,,,6,,,44,80
175920,note_on,12,0,8,,,,,,,,6,,,32,80
176112,note_on,0,0,8,,,,,,,,6,,,32,0
176112,note_on,192,0,8,,,,,,,,6,,,52,0
176112,note_on,0,0,8,,,,,,,,6,,,44,0
176160,note_on,492,0,7,,,,,,,,6,,,85,80
176184,note_on,24,0,7,,,,,,,,6,,,85,0
176190,note_on,6,0,7,,,,,,,,6,,,83,80
176214,note_on,24,0,7,,,,,,,,6,,,83,0
176220,note_on,6,0,7,,,,,,,,6,,,85,80
176244,note_on,24,0,7,,,,,,,,6,,,85,0
176250,note_on,6,0,7,,,,,,,,6,,,83,80
176274,note_on,24,0,7,,,,,,,,6,,,83,0
176280,note_on,6,0,7,,,,,,,,6,,,85,80
176304,note_on,24,0,7,,,,,,,,6,,,85,0
176310,note_on,6,0,7,,,,,,,,6,,,83,80
176334,note_on,24,0,7,,,,,,,,6,,,83,0
176340,note_on,6,0,7,,,,,,,,6,,,82,80
176364,note_on,24,0,7,,,,,,,,6,,,82,0
176370,note_on,6,0,7,,,,,,,,6,,,83,80
176394,note_on,24,0,7,,,,,,,,6,,,83,0
176400,note_on,6,0,7,,,,,,,,6,,,86,80
176592,note_on,192,0,7,,,,,,,,6,,,86,0
176640,note_on,0,0,8,,,,,,,,6,,,47,80
176640,note_on,0,0,8,,,,,,,,6,,,56,80
176640,note_on,0,0,8,,,,,,,,6,,,50,80
176640,note_on,528,0,8,,,,,,,,6,,,35,80
176832,note_on,0,0,8,,,,,,,,6,,,50,0
176832,note_on,0,0,8,,,,,,,,6,,,47,0
176832,note_on,192,0,8,,,,,,,,6,,,56,0
176832,note_on,0,0,8,,,,,,,,6,,,35,0
176880,note_on,0,0,8,,,,,,,,6,,,45,80
176880,note_on,0,0,8,,,,,,,,6,,,57,80
176880,time_signature,18240,1,0,3,4,24,8,,,,,,,,
176880,note_on,48,0,8,,,,,,,,6,,,35,80
176880,note_on,0,0,8,,,,,,,,6,,,54,80
176880,note_on,0,0,8,,,,,,,,6,,,50,80
177456,note_on,576,0,8,,,,,,,,6,,,57,0
177456,note_on,0,0,8,,,,,,,,6,,,50,0
177456,note_on,0,0,8,,,,,,,,6,,,54,0
177456,note_on,0,0,8,,,,,,,,6,,,35,0
177456,note_on,0,0,8,,,,,,,,6,,,45,0
177600,time_signature,720,1,0,2,4,24,8,,,,,,,,
177660,note_on,204,0,8,,,,,,,,6,,,45,80
177708,note_on,48,0,8,,,,,,,,6,,,45,0
177720,note_on,12,0,8,,,,,,,,6,,,47,80
177768,note_on,48,0,8,,,,,,,,6,,,47,0
177780,note_on,12,0,8,,,,,,,,6,,,49,80
177828,note_on,48,0,8,,,,,,,,6,,,49,0
177840,note_on,12,0,8,,,,,,,,6,,,50,80
177888,note_on,48,0,8,,,,,,,,6,,,50,0
177900,note_on,12,0,8,,,,,,,,6,,,52,80
177948,note_on,48,0,8,,,,,,,,6,,,52,0
177960,note_on,12,0,8,,,,,,,,6,,,54,80
178008,note_on,48,0,8,,,,,,,,6,,,54,0
178020,note_on,12,0,8,,,,,,,,6,,,55,80
178068,note_on,48,0,8,,,,,,,,6,,,55,0
178080,note_on,12,0,8,,,,,,,,6,,,57,80
178128,note_on,48,0,8,,,,,,,,6,,,57,0
178140,note_on,12,0,8,,,,,,,,6,,,50,80
178140,note_on,0,0,8,,,,,,,,6,,,42,80
178188,note_on,48,0,8,,,,,,,,6,,,42,0
178188,note_on,0,0,8,,,,,,,,6,,,50,0
178200,note_on,0,0,8,,,,,,,,6,,,52,80
178200,note_on,12,0,8,,,,,,,,6,,,43,80
178248,note_on,0,0,8,,,,,,,,6,,,43,0
178248,note_on,48,0,8,,,,,,,,6,,,52,0
178260,note_on,12,0,8,,,,,,,,6,,,54,80
178260,note_on,0,0,8,,,,,,,,6,,,45,80
178308,note_on,0,0,8,,,,,,,,6,,,54,0
178308,note_on,48,0,8,,,,,,,,6,,,45,0
178320,note_on,12,0,8,,,,,,,,6,,,47,80
178320,note_on,0,0,8,,,,,,,,6,,,55,80
178368,note_on,0,0,8,,,,,,,,6,,,47,0
178368,note_on,48,0,8,,,,,,,,6,,,55,0
178380,note_on,0,0,8,,,,,,,,6,,,57,80
178380,note_on,12,0,8,,,,,,,,6,,,49,80
178428,note_on,48,0,8,,,,,,,,6,,,57,0
178428,note_on,0,0,8,,,,,,,,6,,,49,0
178440,note_on,12,0,8,,,,,,,,6,,,50,80
178440,note_on,0,0,8,,,,,,,,6,,,59,80
178488,note_on,0,0,8,,,,,,,,6,,,50,0
178488,note_on,48,0,8,,,,,,,,6,,,59,0
178500,note_on,12,0,8,,,,,,,,6,,,52,80
178500,note_on,0,0,8,,,,,,,,6,,,61,80
178548,note_on,0,0,8,,,,,,,,6,,,52,0
178548,note_on,48,0,8,,,,,,,,6,,,61,0
178560,note_on,0,0,8,,,,,,,,6,,,62,80
178560,note_on,12,0,8,,,,,,,,6,,,54,80
178608,note_on,48,0,8,,,,,,,,6,,,62,0
178620,note_on,12,0,8,,,,,,,,6,,,57,80
178668,note_on,48,0,8,,,,,,,,6,,,57,0
178680,note_on,12,0,8,,,,,,,,6,,,59,80
178728,note_on,48,0,8,,,,,,,,6,,,59,0
178740,note_on,12,0,8,,,,,,,,6,,,61,80
178752,note_on,12,0,8,,,,,,,,6,,,54,0
178788,note_on,36,0,8,,,,,,,,6,,,61,0
178800,note_on,2208,0,7,,,,,,,,6,,,62,80
178848,note_on,48,0,7,,,,,,,,6,,,62,0
178860,note_on,12,0,7,,,,,,,,6,,,64,80
178908,note_on,48,0,7,,,,,,,,6,,,64,0
178920,note_on,12,0,7,,,,,,,,6,,,66,80
178968,note_on,48,0,7,,,,,,,,6,,,66,0
178980,note_on,12,0,7,,,,,,,,6,,,67,80
179028,note_on,48,0,7,,,,,,,,6,,,67,0
179040,note_on,12,0,7,,,,,,,,6,,,69,80
179088,note_on,48,0,7,,,,,,,,6,,,69,0
179100,note_on,12,0,7,,,,,,,,6,,,62,80
179100,note_on,312,0,8,,,,,,,,6,,,54,80
179148,note_on,48,0,7,,,,,,,,6,,,62,0
179148,note_on,48,0,8,,,,,,,,6,,,54,0
179160,note_on,12,0,7,,,,,,,,6,,,64,80
179160,note_on,12,0,8,,,,,,,,6,,,55,80
179208,note_on,48,0,7,,,,,,,,6,,,64,0
179208,note_on,48,0,8,,,,,,,,6,,,55,0
179220,note_on,12,0,7,,,,,,,,6,,,66,80
179220,note_on,12,0,8,,,,,,,,6,,,57,80
179268,note_on,48,0,7,,,,,,,,6,,,66,0
179268,note_on,48,0,8,,,,,,,,6,,,57,0
179280,note_on,12,0,8,,,,,,,,6,,,59,80
179280,note_on,12,0,7,,,,,,,,6,,,67,80
179328,note_on,48,0,8,,,,,,,,6,,,59,0
179328,note_on,48,0,7,,,,,,,,6,,,67,0
179340,note_on,12,0,8,,,,,,,,6,,,61,80
179340,note_on,12,0,7,,,,,,,,6,,,69,80
179388,note_on,48,0,7,,,,,,,,6,,,69,0
179388,note_on,48,0,8,,,,,,,,6,,,61,0
179400,note_on,12,0,8,,,,,,,,6,,,62,80
179400,note_on,12,0,7,,,,,,,,6,,,71,80
179448,note_on,48,0,8,,,,,,,,6,,,62,0
179448,note_on,48,0,7,,,,,,,,6,,,71,0
179460,note_on,12,0,8,,,,,,,,6,,,64,80
179460,note_on,12,0,7,,,,,,,,6,,,73,80
179508,note_on,48,0,7,,,,,,,,6,,,73,0
179508,note_on,48,0,8,,,,,,,,6,,,64,0
179520,note_on,12,0,7,,,,,,,,6,,,74,80
179520,note_on,12,0,8,,,,,,,,6,,,66,80
179568,note_on,48,0,7,,,,,,,,6,,,74,0
179580,note_on,12,0,7,,,,,,,,6,,,69,80
179628,note_on,48,0,7,,,,,,,,6,,,69,0
179640,note_on,12,0,7,,,,,,,,6,,,71,80
179688,note_on,48,0,7,,,,,,,,6,,,71,0
179700,note_on,12,0,7,,,,,,,,6,,,73,80
179712,note_on,192,0,8,,,,,,,,6,,,66,0
179748,note_on,48,0,7,,,,,,,,6,,,73,0
179760,note_on,12,0,7,,,,,,,,6,,,74,80
179808,note_on,48,0,7,,,,,,,,6,,,74,0
179820,note_on,12,0,7,,,,,,,,6,,,76,80
179868,note_on,48,0,7,,,,,,,,6,,,76,0
179880,note_on,12,0,7,,,,,,,,6,,,78,80
179928,note_on,48,0,7,,,,,,,,6,,,78,0
179940,note_on,12,0,7,,,,,,,,6,,,79,80
179988,note_on,48,0,7,,,,,,,,6,,,79,0
180000,note_on,12,0,7,,,,,,,,6,,,81,80
180048,note_on,48,0,7,,,,,,,,6,,,81,0
180060,note_on,12,0,7,,,,,,,,6,,,74,80
180060,note_on,348,0,8,,,,,,,,6,,,66,80
180108,note_on,48,0,8,,,,,,,,6,,,66,0
180108,note_on,48,0,7,,,,,,,,6,,,74,0
180120,note_on,12,0,7,,,,,,,,6,,,76,80
180120,note_on,12,0,8,,,,,,,,6,,,67,80
180168,note_on,48,0,8,,,,,,,,6,,,67,0
180168,note_on,48,0,7,,,,,,,,6,,,76,0
180180,note_on,12,0,8,,,,,,,,6,,,69,80
180180,note_on,12,0,7,,,,,,,,6,,,78,80
180228,note_on,48,0,8,,,,,,,,6,,,69,0
180228,note_on,48,0,7,,,,,,,,6,,,78,0
180240,note_on,12,0,7,,,,,,,,6,,,79,80
180240,note_on,12,0,8,,,,,,,,6,,,71,80
180288,note_on,48,0,7,,,,,,,,6,,,79,0
180288,note_on,48,0,8,,,,,,,,6,,,71,0
180300,note_on,12,0,8,,,,,,,,6,,,73,80
180300,note_on,12,0,7,,,,,,,,6,,,81,80
180348,note_on,48,0,7,,,,,,,,6,,,81,0
180348,note_on,48,0,8,,,,,,,,6,,,73,0
180360,note_on,12,0,8,,,,,,,,6,,,74,80
180360,note_on,12,0,7,,,,,,,,6,,,83,80
180408,note_on,48,0,8,,,,,,,,6,,,74,0
180408,note_on,48,0,7,,,,,,,,6,,,83,0
180420,note_on,12,0,7,,,,,,,,6,,,85,80
180420,note_on,12,0,8,,,,,,,,6,,,76,80
180468,note_on,48,0,8,,,,,,,,6,,,76,0
180468,note_on,48,0,7,,,,,,,,6,,,85,0
180480,note_on,12,0,8,,,,,,,,6,,,78,80
180480,note_on,12,0,7,,,,,,,,6,,,86,80
180672,note_on,192,0,7,,,,,,,,6,,,86,0
180672,note_on,192,0,8,,,,,,,,6,,,78,0
180900,note_on,228,0,7,,,,,,,,6,,,74,80
180948,note_on,48,0,7,,,,,,,,6,,,74,0
180960,note_on,12,0,7,,,,,,,,6,,,74,80
180960,time_signature,3360,1,0,3,4,24,8,,,,,,,,
180984,note_on,24,0,7,,,,,,,,6,,,74,0
180990,note_on,6,0,7,,,,,,,,6,,,76,80
181014,note_on,24,0,7,,,,,,,,6,,,76,0
181020,note_on,6,0,7,,,,,,,,6,,,78,80
181044,note_on,24,0,7,,,,,,,,6,,,78,0
181050,note_on,6,0,7,,,,,,,,6,,,76,80
181074,note_on,24,0,7,,,,,,,,6,,,76,0
181080,note_on,6,0,7,,,,,,,,6,,,78,80
181104,note_on,24,0,7,,,,,,,,6,,,78,0
181110,note_on,6,0,7,,,,,,,,6,,,76,80
181134,note_on,24,0,7,,,,,,,,6,,,76,0
181140,note_on,6,0,7,,,,,,,,6,,,78,80
181164,note_on,24,0,7,,,,,,,,6,,,78,0
181170,note_on,6,0,7,,,,,,,,6,,,76,80
181194,note_on,24,0,7,,,,,,,,6,,,76,0
181200,note_on,6,0,7,,,,,,,,6,,,78,80
181200,note_on,0,0,8,,,,,,,,6,,,57,80
181200,note_on,0,0,8,,,,,,,,6,,,67,80
181200,note_on,528,0,8,,,,,,,,6,,,61,80
181224,note_on,24,0,7,,,,,,,,6,,,78,0
181230,note_on,6,0,7,,,,,,,,6,,,76,80
181254,note_on,24,0,7,,,,,,,,6,,,76,0
181260,note_on,6,0,7,,,,,,,,6,,,78,80
181284,note_on,24,0,7,,,,,,,,6,,,78,0
181290,note_on,6,0,7,,,,,,,,6,,,76,80
181314,note_on,24,0,7,,,,,,,,6,,,76,0
181320,note_on,6,0,7,,,,,,,,6,,,78,80
181344,note_on,24,0,7,,,,,,,,6,,,78,0
181350,note_on,6,0,7,,,,,,,,6,,,76,80
181374,note_on,24,0,7,,,,,,,,6,,,76,0
181380,note_on,6,0,7,,,,,,,,6,,,78,80
181404,note_on,24,0,7,,,,,,,,6,,,78,0
181410,note_on,6,0,7,,,,,,,,6,,,76,80
181434,note_on,24,0,7,,,,,,,,6,,,76,0
181440,note_on,6,0,7,,,,,,,,6,,,78,80
181464,note_on,24,0,7,,,,,,,,6,,,78,0
181470,note_on,6,0,7,,,,,,,,6,,,76,80
181494,note_on,24,0,7,,,,,,,,6,,,76,0
181500,note_on,6,0,7,,,,,,,,6,,,78,80
181524,note_on,24,0,7,,,,,,,,6,,,78,0
181530,note_on,6,0,7,,,,,,,,6,,,76,80
181554,note_on,24,0,7,,,,,,,,6,,,76,0
181560,note_on,6,0,7,,,,,,,,6,,,78,80
181584,note_on,24,0,7,,,,,,,,6,,,78,0
181584,note_on,0,0,8,,,,,,,,6,,,61,0
181584,note_on,0,0,8,,,,,,,,6,,,57,0
181584,note_on,384,0,8,,,,,,,,6,,,67,0
181590,note_on,6,0,7,,,,,,,,6,,,76,80
181614,note_on,24,0,7,,,,,,,,6,,,76,0
181620,note_on,6,0,7,,,,,,,,6,,,74,80
181644,note_on,24,0,7,,,,,,,,6,,,74,0
181650,note_on,6,0,7,,,,,,,,6,,,76,80
181674,note_on,24,0,7,,,,,,,,6,,,76,0
181680,note_on,96,0,8,,,,,,,,6,,,62,80
181680,end_of_track,0,1,0,,,,,,,,,,,,
181680,note_on,6,0,7,,,,,,,,6,,,74,80
181680,time_signature,720,1,0,3,8,12,8,,,,,,,,
181728,note_on,48,0,8,,,,,,,,6,,,62,0
181740,note_on,12,0,8,,,,,,,,6,,,69,80
181788,note_on,48,0,8,,,,,,,,6,,,69,0
181800,note_on,12,0,8,,,,,,,,6,,,66,80
181848,note_on,48,0,8,,,,,,,,6,,,66,0
181860,note_on,12,0,8,,,,,,,,6,,,69,80
181872,note_on,192,0,7,,,,,,,,6,,,74,0
181908,note_on,48,0,8,,,,,,,,6,,,69,0
181920,note_on,48,0,7,,,,,,,,6,,,78,80
181920,note_on,12,0,8,,,,,,,,6,,,66,80
181968,note_on,48,0,8,,,,,,,,6,,,66,0
181980,note_on,12,0,8,,,,,,,,6,,,69,80
182016,note_on,96,0,7,,,,,,,,6,,,78,0
182028,note_on,48,0,8,,,,,,,,6,,,69,0
182040,note_on,12,0,8,,,,,,,,6,,,62,80
182040,note_on,24,0,7,,,,,,,,6,,,81,80
182088,note_on,48,0,8,,,,,,,,6,,,62,0
182100,note_on,12,0,8,,,,,,,,6,,,69,80
182148,note_on,48,0,8,,,,,,,,6,,,69,0
182160,note_on,12,0,8,,,,,,,,6,,,66,80
182208,note_on,48,0,8,,,,,,,,6,,,66,0
182220,note_on,12,0,8,,,,,,,,6,,,69,80
182232,note_on,192,0,7,,,,,,,,6,,,81,0
182268,note_on,48,0,8,,,,,,,,6,,,69,0
182280,note_on,48,0,7,,,,,,,,6,,,78,80
182280,note_on,12,0,8,,,,,,,,6,,,66,80
182328,note_on,48,0,8,,,,,,,,6,,,66,0
182340,note_on,12,0,8,,,,,,,,6,,,69,80
182376,note_on,96,0,7,,,,,,,,6,,,78,0
182388,note_on,48,0,8,,,,,,,,6,,,69,0
182400,note_on,24,0,7,,,,,,,,6,,,78,80
182400,note_on,12,0,8,,,,,,,,6,,,57,80
182448,note_on,48,0,7,,,,,,,,6,,,78,0
182448,note_on,48,0,8,,,,,,,,6,,,57,0
182460,note_on,12,0,7,,,,,,,,6,,,76,80
182460,note_on,12,0,8,,,,,,,,6,,,67,80
182508,note_on,48,0,7,,,,,,,,6,,,76,0
182508,note_on,48,0,8,,,,,,,,6,,,67,0
182520,note_on,12,0,7,,,,,,,,6,,,75,80
182520,note_on,12,0,8,,,,,,,,6,,,64,80
182568,note_on,48,0,8,,,,,,,,6,,,64,0
182568,note_on,48,0,7,,,,,,,,6,,,75,0
182580,note_on,12,0,7,,,,,,,,6,,,76,80
182580,note_on,12,0,8,,,,,,,,6,,,67,80
182628,note_on,48,0,8,,,,,,,,6,,,67,0
182628,note_on,48,0,7,,,,,,,,6,,,76,0
182640,note_on,12,0,8,,,,,,,,6,,,64,80
182640,note_on,12,0,7,,,,,,,,6,,,75,80
182688,note_on,48,0,8,,,,,,,,6,,,64,0
182688,note_on,48,0,7,,,,,,,,6,,,75,0
182700,note_on,12,0,7,,,,,,,,6,,,76,80
182700,note_on,12,0,8,,,,,,,,6,,,67,80
182748,note_on,48,0,7,,,,,,,,6,,,76,0
182748,note_on,48,0,8,,,,,,,,6,,,67,0
182760,note_on,12,0,7,,,,,,,,6,,,74,80
182760,note_on,12,0,8,,,,,,,,6,,,57,80
182808,note_on,48,0,7,,,,,,,,6,,,74,0
182808,note_on,48,0,8,,,,,,,,6,,,57,0
182820,note_on,12,0,8,,,,,,,,6,,,67,80
182820,note_on,12,0,7,,,,,,,,6,,,73,80
182868,note_on,48,0,8,,,,,,,,6,,,67,0
182868,note_on,48,0,7,,,,,,,,6,,,73,0
182880,note_on,12,0,7,,,,,,,,6,,,71,80
182880,note_on,12,0,8,,,,,,,,6,,,64,80
182928,note_on,48,0,7,,,,,,,,6,,,71,0
182928,note_on,48,0,8,,,,,,,,6,,,64,0
182940,note_on,12,0,7,,,,,,,,6,,,73,80
182940,note_on,12,0,8,,,,,,,,6,,,67,80
182988,note_on,48,0,7,,,,,,,,6,,,73,0
182988,note_on,48,0,8,,,,,,,,6,,,67,0
183000,note_on,12,0,8,,,,,,,,6,,,64,80
183000,note_on,12,0,7,,,,,,,,6,,,71,80
183048,note_on,48,0,8,,,,,,,,6,,,64,0
183048,note_on,48,0,7,,,,,,,,6,,,71,0
183060,note_on,12,0,8,,,,,,,,6,,,67,80
183060,note_on,12,0,7,,,,,,,,6,,,73,80
183108,note_on,48,0,8,,,,,,,,6,,,67,0
183108,note_on,48,0,7,,,,,,,,6,,,73,0
183120,note_on,12,0,8,,,,,,,,6,,,62,80
183120,note_on,12,0,7,,,,,,,,6,,,74,80
183168,note_on,48,0,8,,,,,,,,6,,,62,0
183180,note_on,12,0,8,,,,,,,,6,,,69,80
183216,note_on,96,0,7,,,,,,,,6,,,74,0
183228,note_on,48,0,8,,,,,,,,6,,,69,0
183240,note_on,12,0,8,,,,,,,,6,,,66,80
183240,note_on,24,0,7,,,,,,,,6,,,74,80
183288,note_on,48,0,8,,,,,,,,6,,,66,0
183300,note_on,12,0,8,,,,,,,,6,,,69,80
183336,note_on,96,0,7,,,,,,,,6,,,74,0
183348,note_on,48,0,8,,,,,,,,6,,,69,0
183360,note_on,24,0,7,,,,,,,,6,,,78,80
183360,note_on,12,0,8,,,,,,,,6,,,66,80
183408,note_on,48,0,8,,,,,,,,6,,,66,0
183420,note_on,12,0,8,,,,,,,,6,,,69,80
183456,note_on,96,0,7,,,,,,,,6,,,78,0
183468,note_on,48,0,8,,,,,,,,6,,,69,0
183480,note_on,12,0,8,,,,,,,,6,,,62,80
183480,note_on,24,0,7,,,,,,,,6,,,81,80
183528,note_on,48,0,8,,,,,,,,6,,,62,0
183540,note_on,12,0,8,,,,,,,,6,,,69,80
183576,note_on,96,0,7,,,,,,,,6,,,81,0
183588,note_on,48,0,8,,,,,,,,6,,,69,0
183600,note_on,12,0,8,,,,,,,,6,,,66,80
183600,note_on,24,0,7,,,,,,,,6,,,81,80
183648,note_on,48,0,8,,,,,,,,6,,,66,0
183660,note_on,12,0,8,,,,,,,,6,,,69,80
183696,note_on,96,0,7,,,,,,,,6,,,81,0
183708,note_on,48,0,8,,,,,,,,6,,,69,0
183720,note_on,12,0,8,,,,,,,,6,,,66,80
183720,note_on,24,0,7,,,,,,,,6,,,86,80
183768,note_on,48,0,8,,,,,,,,6,,,66,0
183780,note_on,12,0,8,,,,,,,,6,,,69,80
183816,note_on,96,0,7,,,,,,,,6,,,86,0
183828,note_on,48,0,8,,,,,,,,6,,,69,0
183840,note_on,12,0,8,,,,,,,,6,,,69,80
183840,note_on,24,0,7,,,,,,,,6,,,85,80
183840,note_on,0,0,8,,,,,,,,6,,,64,80
183936,note_on,96,0,7,,,,,,,,6,,,85,0
183960,note_on,24,0,7,,,,,,,,6,,,85,80
184008,note_on,48,0,7,,,,,,,,6,,,85,0
184020,note_on,12,0,7,,,,,,,,6,,,86,80
184032,note_on,192,0,8,,,,,,,,6,,,69,0
184068,note_on,48,0,7,,,,,,,,6,,,86,0
184080,note_on,48,0,8,,,,,,,,6,,,68,80
184080,note_on,12,0,7,,,,,,,,6,,,83,80
184128,note_on,48,0,8,,,,,,,,6,,,64,0
184128,note_on,48,0,7,,,,,,,,6,,,83,0
184140,note_on,12,0,7,,,,,,,,6,,,85,80
184176,note_on,48,0,8,,,,,,,,6,,,68,0
184188,note_on,48,0,7,,,,,,,,6,,,85,0
184200,note_on,24,0,8,,,,,,,,6,,,69,80
184200,note_on,12,0,7,,,,,,,,6,,,81,80
184296,note_on,96,0,8,,,,,,,,6,,,69,0
184296,note_on,96,0,7,,,,,,,,6,,,81,0
184320,note_on,24,0,8,,,,,,,,6,,,64,80
184416,note_on,96,0,8,,,,,,,,6,,,64,0
184440,note_on,24,0,8,,,,,,,,6,,,57,80
184536,note_on,96,0,8,,,,,,,,6,,,57,0
184560,note_on,26256,0,4,,,,,,,,3,,,50,80
184560,note_on,26256,0,3,,,,,,,,2,,,62,80
184560,note_on,0,0,3,,,,,,,,2,,,54,80
184560,note_on,26256,0,12,,,,,,,,11,,,50,80
184560,note_on,26256,0,2,,,,,,,,1,,,74,80
184560,note_on,0,0,4,,,,,,,,3,,,62,80
184560,note_on,0,0,9,,,,,,,,7,,,74,80
184560,note_on,26256,0,1,,,,,,,,0,,,74,80
184560,note_on,26256,0,11,,,,,,,,10,,,62,80
184560,note_on,0,0,5,,,,,,,,4,,,74,80
184560,note_on,26256,0,5,,,,,,,,4,,,62,80
184560,note_on,26256,0,10,,,,,,,,8,,,66,80
184560,note_on,26256,0,13,,,,,,,,12,,,38,80
184560,note_on,26256,0,9,,,,,,,,7,,,62,80
184560,note_on,26448,0,6,,,,,,,,5,,,50,80
184608,note_on,48,0,10,,,,,,,,8,,,66,0
184620,note_on,12,0,10,,,,,,,,8,,,69,80
184656,note_on,96,0,12,,,,,,,,11,,,50,0
184656,note_on,96,0,13,,,,,,,,12,,,38,0
184656,note_on,96,0,11,,,,,,,,10,,,62,0
184668,note_on,48,0,10,,,,,,,,8,,,69,0
184680,note_on,12,0,10,,,,,,,,8,,,66,80
184680,note_on,24,0,12,,,,,,,,11,,,50,80
184680,note_on,24,0,11,,,,,,,,10,,,62,80
184680,note_on,24,0,13,,,,,,,,12,,,38,80
184728,note_on,48,0,10,,,,,,,,8,,,66,0
184740,note_on,12,0,10,,,,,,,,8,,,69,80
184752,note_on,192,0,4,,,,,,,,3,,,62,0
184752,note_on,0,0,4,,,,,,,,3,,,50,0
184752,note_on,192,0,6,,,,,,,,5,,,50,0
184752,note_on,192,0,1,,,,,,,,0,,,74,0
184752,note_on,192,0,9,,,,,,,,7,,,74,0
184752,note_on,0,0,9,,,,,,,,7,,,62,0
184752,note_on,192,0,5,,,,,,,,4,,,74,0
184752,note_on,0,0,5,,,,,,,,4,,,62,0
184752,note_on,192,0,2,,,,,,,,1,,,74,0
184776,note_on,96,0,11,,,,,,,,10,,,62,0
184776,note_on,96,0,12,,,,,,,,11,,,50,0
184776,note_on,96,0,13,,,,,,,,12,,,38,0
184788,note_on,48,0,10,,,,,,,,8,,,69,0
184800,note_on,48,0,2,,,,,,,,1,,,78,80
184800,note_on,48,0,4,,,,,,,,3,,,66,80
184800,note_on,0,0,4,,,,,,,,3,,,54,80
184800,note_on,24,0,13,,,,,,,,12,,,38,80
184800,note_on,24,0,12,,,,,,,,11,,,50,80
184800,note_on,48,0,9,,,,,,,,7,,,78,80
184800,note_on,48,0,1,,,,,,,,0,,,78,80
184800,note_on,12,0,10,,,,,,,,8,,,66,80
184800,note_on,24,0,11,,,,,,,,10,,,62,80
184848,note_on,48,0,10,,,,,,,,8,,,66,0
184848,note_on,288,0,3,,,,,,,,2,,,54,0
184848,note_on,0,0,3,,,,,,,,2,,,62,0
184860,note_on,12,0,10,,,,,,,,8,,,69,80
184896,note_on,96,0,1,,,,,,,,0,,,78,0
184896,note_on,96,0,9,,,,,,,,7,,,78,0
184896,note_on,96,0,11,,,,,,,,10,,,62,0
184896,note_on,96,0,4,,,,,,,,3,,,54,0
184896,note_on,96,0,2,,,,,,,,1,,,78,0
184896,note_on,96,0,13,,,,,,,,12,,,38,0
184896,note_on,0,0,4,,,,,,,,3,,,66,0
184896,note_on,96,0,12,,,,,,,,11,,,50,0
184908,note_on,48,0,10,,,,,,,,8,,,69,0
184920,note_on,24,0,9,,,,,,,,7,,,81,80
184920,note_on,24,0,1,,,,,,,,0,,,81,80
184920,note_on,0,0,4,,,,,,,,3,,,69,80
184920,note_on,24,0,4,,,,,,,,3,,,57,80
184920,note_on,72,0,3,,,,,,,,2,,,66,80
184920,note_on,0,0,3,,,,,,,,2,,,62,80
184920,note_on,168,0,5,,,,,,,,4,,,62,80
184920,note_on,24,0,11,,,,,,,,10,,,62,80
184920,note_on,168,0,6,,,,,,,,5,,,50,80
184920,note_on,12,0,10,,,,,,,,8,,,66,80
184920,note_on,24,0,2,,,,,,,,1,,,81,80
184920,note_on,24,0,13,,,,,,,,12,,,38,80
184920,note_on,24,0,12,,,,,,,,11,,,50,80
184920,note_on,0,0,5,,,,,,,,4,,,74,80
184968,note_on,48,0,10,,,,,,,,8,,,66,0
184980,note_on,12,0,10,,,,,,,,8,,,69,80
185016,note_on,96,0,13,,,,,,,,12,,,38,0
185016,note_on,96,0,12,,,,,,,,11,,,50,0
185016,note_on,96,0,11,,,,,,,,10,,,62,0
185028,note_on,48,0,10,,,,,,,,8,,,69,0
185040,note_on,24,0,13,,,,,,,,12,,,38,80
185040,note_on,12,0,10,,,,,,,,8,,,66,80
185040,note_on,24,0,12,,,,,,,,11,,,50,80
185040,note_on,24,0,11,,,,,,,,10,,,62,80
185088,note_on,48,0,10,,,,,,,,8,,,66,0
185100,note_on,12,0,10,,,,,,,,8,,,69,80
185112,note_on,192,0,5,,,,,,,,4,,,74,0
185112,note_on,192,0,1,,,,,,,,0,,,81,0
185112,note_on,192,0,9,,,,,,,,7,,,81,0
185112,note_on,192,0,4,,,,,,,,3,,,69,0
185112,note_on,0,0,5,,,,,,,,4,,,62,0
185112,note_on,192,0,6,,,,,,,,5,,,50,0
185112,note_on,192,0,2,,,,,,,,1,,,81,0
185112,note_on,0,0,4,,,,,,,,3,,,57,0
185136,note_on,96,0,11,,,,,,,,10,,,62,0
185136,note_on,96,0,12,,,,,,,,11,,,50,0
185136,note_on,96,0,13,,,,,,,,12,,,38,0
185148,note_on,48,0,10,,,,,,,,8,,,69,0
185160,note_on,48,0,2,,,,,,,,1,,,78,80
185160,note_on,24,0,13,,,,,,,,12,,,38,80
185160,note_on,48,0,1,,,,,,,,0,,,78,80
185160,note_on,0,0,4,,,,,,,,3,,,54,80
185160,note_on,24,0,11,,,,,,,,10,,,62,80
185160,note_on,12,0,10,,,,,,,,8,,,66,80
185160,note_on,24,0,12,,,,,,,,11,,,50,80
185160,note_on,48,0,9,,,,,,,,7,,,78,80
185160,note_on,48,0,4,,,,,,,,3,,,66,80
185208,note_on,0,0,3,,,,,,,,2,,,66,0
185208,note_on,288,0,3,,,,,,,,2,,,62,0
185208,note_on,48,0,10,,,,,,,,8,,,66,0
185220,note_on,12,0,10,,,,,,,,8,,,69,80
185256,note_on,0,0,4,,,,,,,,3,,,66,0
185256,note_on,96,0,1,,,,,,,,0,,,78,0
185256,note_on,96,0,9,,,,,,,,7,,,78,0
185256,note_on,96,0,13,,,,,,,,12,,,38,0
185256,note_on,96,0,2,,,,,,,,1,,,78,0
185256,note_on,96,0,4,,,,,,,,3,,,54,0
185256,note_on,96,0,11,,,,,,,,10,,,62,0
185256,note_on,96,0,12,,,,,,,,11,,,50,0
185268,note_on,48,0,10,,,,,,,,8,,,69,0
185280,note_on,24,0,1,,,,,,,,0,,,75,80
185280,note_on,24,0,9,,,,,,,,7,,,75,80
185280,note_on,24,0,13,,,,,,,,12,,,33,80
185280,note_on,168,0,6,,,,,,,,5,,,45,80
185280,note_on,24,0,12,,,,,,,,11,,,45,80
185280,note_on,168,0,5,,,,,,,,4,,,69,80
185280,note_on,72,0,3,,,,,,,,2,,,64,80
185280,note_on,24,0,2,,,,,,,,1,,,75,80
185280,note_on,0,0,3,,,,,,,,2,,,67,80
185280,note_on,12,0,10,,,,,,,,8,,,67,80
185280,note_on,24,0,11,,,,,,,,10,,,61,80
185280,note_on,24,0,4,,,,,,,,3,,,64,80
185280,note_on,0,0,4,,,,,,,,3,,,57,80
185328,note_on,48,0,10,,,,,,,,8,,,67,0
185328,note_on,48,0,2,,,,,,,,1,,,75,0
185328,note_on,48,0,9,,,,,,,,7,,,75,0
185328,note_on,48,0,1,,,,,,,,0,,,75,0
185340,note_on,12,0,2,,,,,,,,1,,,76,80
185340,note_on,12,0,10,,,,,,,,8,,,69,80
185340,note_on,12,0,1,,,,,,,,0,,,76,80
185340,note_on,12,0,9,,,,,,,,7,,,76,80
185376,note_on,96,0,12,,,,,,,,11,,,45,0
185376,note_on,96,0,11,,,,,,,,10,,,61,0
185376,note_on,0,0,3,,,,,,,,2,,,64,0
185376,note_on,96,0,4,,,,,,,,3,,,57,0
185376,note_on,0,0,4,,,,,,,,3,,,64,0
185376,note_on,96,0,3,,,,,,,,2,,,67,0
185376,note_on,96,0,13,,,,,,,,12,,,33,0
185376,note_on,96,0,5,,,,,,,,4,,,69,0
185388,note_on,48,0,1,,,,,,,,0,,,76,0
185388,note_on,48,0,2,,,,,,,,1,,,76,0
185388,note_on,48,0,9,,,,,,,,7,,,76,0
185388,note_on,48,0,10,,,,,,,,8,,,69,0
185400,note_on,12,0,9,,,,,,,,7,,,76,80
185400,note_on,24,0,3,,,,,,,,2,,,64,80
185400,note_on,12,0,10,,,,,,,,8,,,67,80
185400,note_on,24,0,11,,,,,,,,10,,,61,80
185400,note_on,12,0,2,,,,,,,,1,,,76,80
185400,note_on,24,0,13,,,,,,,,12,,,45,80
185400,note_on,24,0,4,,,,,,,,3,,,64,80
185400,note_on,0,0,4,,,,,,,,3,,,57,80
185400,note_on,24,0,12,,,,,,,,11,,,57,80
185400,note_on,0,0,3,,,,,,,,2,,,67,80
185400,note_on,12,0,1,,,,,,,,0,,,76,80
185400,note_on,24,0,5,,,,,,,,4,,,69,80
185448,note_on,48,0,10,,,,,,,,8,,,67,0
185460,note_on,12,0,10,,,,,,,,8,,,69,80
185472,note_on,192,0,6,,,,,,,,5,,,45,0
185496,note_on,96,0,9,,,,,,,,7,,,76,0
185496,note_on,96,0,13,,,,,,,,12,,,45,0
185496,note_on,96,0,1,,,,,,,,0,,,76,0
185496,note_on,96,0,3,,,,,,,,2,,,67,0
185496,note_on,96,0,12,,,,,,,,11,,,57,0
185496,note_on,96,0,4,,,,,,,,3,,,57,0
185496,note_on,0,0,4,,,,,,,,3,,,64,0
185496,note_on,96,0,5,,,,,,,,4,,,69,0
185496,note_on,96,0,11,,,,,,,,10,,,61,0
185496,note_on,96,0,2,,,,,,,,1,,,76,0
185496,note_on,0,0,3,,,,,,,,2,,,64,0
185508,note_on,48,0,10,,,,,,,,8,,,69,0
185520,note_on,24,0,12,,,,,,,,11,,,57,80
185520,note_on,24,0,2,,,,,,,,1,,,76,80
185520,note_on,24,0,11,,,,,,,,10,,,61,80
185520,note_on,24,0,5,,,,,,,,4,,,69,80
185520,note_on,24,0,1,,,,,,,,0,,,76,80
185520,note_on,24,0,3,,,,,,,,2,,,64,80
185520,note_on,24,0,9,,,,,,,,7,,,76,80
185520,note_on,0,0,3,,,,,,,,2,,,67,80
185520,note_on,0,0,4,,,,,,,,3,,,64,80
185520,note_on,12,0,10,,,,,,,,8,,,67,80
185520,note_on,24,0,4,,,,,,,,3,,,57,80
185520,note_on,24,0,13,,,,,,,,12,,,45,80
185568,note_on,48,0,10,,,,,,,,8,,,67,0
185580,note_on,12,0,10,,,,,,,,8,,,69,80
185616,note_on,96,0,3,,,,,,,,2,,,67,0
185616,note_on,0,0,3,,,,,,,,2,,,64,0
185616,note_on,96,0,1,,,,,,,,0,,,76,0
185616,note_on,96,0,13,,,,,,,,12,,,45,0
185616,note_on,96,0,12,,,,,,,,11,,,57,0
185616,note_on,96,0,2,,,,,,,,1,,,76,0
185616,note_on,96,0,5,,,,,,,,4,,,69,0
185616,note_on,96,0,11,,,,,,,,10,,,61,0
185616,note_on,96,0,4,,,,,,,,3,,,64,0
185616,note_on,96,0,9,,,,,,,,7,,,76,0
185616,note_on,0,0,4,,,,,,,,3,,,57,0
185628,note_on,48,0,10,,,,,,,,8,,,69,0
185640,note_on,24,0,11,,,,,,,,10,,,64,80
185640,note_on,12,0,10,,,,,,,,8,,,67,80
185640,note_on,24,0,9,,,,,,,,7,,,74,80
185640,note_on,24,0,12,,,,,,,,11,,,45,80
185640,note_on,24,0,1,,,,,,,,0,,,74,80
185640,note_on,0,0,4,,,,,,,,3,,,57,80
185640,note_on,24,0,4,,,,,,,,3,,,45,80
185640,note_on,24,0,3,,,,,,,,2,,,61,80
185640,note_on,168,0,6,,,,,,,,5,,,45,80
185640,note_on,0,0,3,,,,,,,,2,,,64,80
185640,note_on,24,0,2,,,,,,,,1,,,74,80
185640,note_on,24,0,13,,,,,,,,12,,,33,80
185640,note_on,24,0,5,,,,,,,,4,,,69,80
185688,note_on,48,0,2,,,,,,,,1,,,74,0
185688,note_on,48,0,10,,,,,,,,8,,,67,0
185688,note_on,48,0,9,,,,,,,,7,,,74,0
185688,note_on,48,0,1,,,,,,,,0,,,74,0
185700,note_on,12,0,2,,,,,,,,1,,,73,80
185700,note_on,12,0,10,,,,,,,,8,,,69,80
185700,note_on,12,0,9,,,,,,,,7,,,73,80
185700,note_on,12,0,1,,,,,,,,0,,,73,80
185736,note_on,96,0,13,,,,,,,,12,,,33,0
185736,note_on,0,0,3,,,,,,,,2,,,61,0
185736,note_on,96,0,3,,,,,,,,2,,,64,0
185736,note_on,96,0,4,,,,,,,,3,,,57,0
185736,note_on,0,0,4,,,,,,,,3,,,45,0
185736,note_on,96,0,12,,,,,,,,11,,,45,0
185736,note_on,96,0,11,,,,,,,,10,,,64,0
185736,note_on,96,0,5,,,,,,,,4,,,69,0
185748,note_on,48,0,1,,,,,,,,0,,,73,0
185748,note_on,48,0,10,,,,,,,,8,,,69,0
185748,note_on,48,0,2,,,,,,,,1,,,73,0
185748,note_on,48,0,9,,,,,,,,7,,,73,0
185760,note_on,24,0,12,,,,,,,,11,,,57,80
185760,note_on,12,0,9,,,,,,,,7,,,73,80
185760,note_on,24,0,5,,,,,,,,4,,,69,80
185760,note_on,24,0,4,,,,,,,,3,,,45,80
185760,note_on,12,0,1,,,,,,,,0,,,73,80
185760,note_on,12,0,2,,,,,,,,1,,,73,80
185760,note_on,0,0,4,,,,,,,,3,,,57,80
185760,note_on,24,0,3,,,,,,,,2,,,61,80
185760,note_on,24,0,13,,,,,,,,12,,,45,80
185760,note_on,12,0,10,,,,,,,,8,,,67,80
185760,note_on,24,0,11,,,,,,,,10,,,64,80
185760,note_on,0,0,3,,,,,,,,2,,,64,80
185808,note_on,48,0,10,,,,,,,,8,,,67,0
185820,note_on,12,0,10,,,,,,,,8,,,69,80
185832,note_on,192,0,6,,,,,,,,5,,,45,0
185856,note_on,96,0,5,,,,,,,,4,,,69,0
185856,note_on,96,0,2,,,,,,,,1,,,73,0
185856,note_on,96,0,1,,,,,,,,0,,,73,0
185856,note_on,96,0,11,,,,,,,,10,,,64,0
185856,note_on,96,0,12,,,,,,,,11,,,57,0
185856,note_on,96,0,13,,,,,,,,12,,,45,0
185856,note_on,0,0,4,,,,,,,,3,,,45,0
185856,note_on,96,0,4,,,,,,,,3,,,57,0
185856,note_on,96,0,3,,,,,,,,2,,,64,0
185856,note_on,0,0,3,,,,,,,,2,,,61,0
185856,note_on,96,0,9,,,,,,,,7,,,73,0
185868,note_on,48,0,10,,,,,,,,8,,,69,0
185880,note_on,24,0,1,,,,,,,,0,,,73,80
185880,note_on,24,0,3,,,,,,,,2,,,61,80
185880,note_on,0,0,3,,,,,,,,2,,,64,80
185880,note_on,24,0,5,,,,,,,,4,,,69,80
185880,note_on,24,0,9,,,,,,,,7,,,73,80
185880,note_on,24,0,2,,,,,,,,1,,,73,80
185880,note_on,12,0,10,,,,,,,,8,,,67,80
185880,note_on,0,0,4,,,,,,,,3,,,45,80
185880,note_on,24,0,4,,,,,,,,3,,,57,80
185880,note_on,24,0,13,,,,,,,,12,,,45,80
185880,note_on,24,0,11,,,,,,,,10,,,64,80
185880,note_on,24,0,12,,,,,,,,11,,,57,80
185928,note_on,48,0,10,,,,,,,,8,,,67,0
185940,note_on,12,0,10,,,,,,,,8,,,69,80
185976,note_on,96,0,5,,,,,,,,4,,,69,0
185976,note_on,96,0,2,,,,,,,,1,,,73,0
185976,note_on,0,0,3,,,,,,,,2,,,61,0
185976,note_on,96,0,1,,,,,,,,0,,,73,0
185976,note_on,96,0,11,,,,,,,,10,,,64,0
185976,note_on,96,0,9,,,,,,,,7,,,73,0
185976,note_on,0,0,4,,,,,,,,3,,,57,0
185976,note_on,96,0,4,,,,,,,,3,,,45,0
185976,note_on,96,0,12,,,,,,,,11,,,57,0
185976,note_on,96,0,13,,,,,,,,12,,,45,0
185976,note_on,96,0,3,,,,,,,,2,,,64,0
185988,note_on,48,0,10,,,,,,,,8,,,69,0
186000,note_on,168,0,6,,,,,,,,5,,,50,80
186000,note_on,0,0,5,,,,,,,,4,,,74,80
186000,note_on,24,0,5,,,,,,,,4,,,62,80
186000,note_on,24,0,4,,,,,,,,3,,,50,80
186000,note_on,24,0,11,,,,,,,,10,,,62,80
186000,note_on,0,0,4,,,,,,,,3,,,62,80
186000,note_on,24,0,12,,,,,,,,11,,,50,80
186000,note_on,24,0,13,,,,,,,,12,,,38,80
186000,note_on,12,0,10,,,,,,,,8,,,66,80
186000,note_on,24,0,3,,,,,,,,2,,,62,80
186000,note_on,0,0,3,,,,,,,,2,,,54,80
186000,note_on,24,0,9,,,,,,,,7,,,74,80
186000,note_on,24,0,2,,,,,,,,1,,,74,80
186000,note_on,24,0,1,,,,,,,,0,,,74,80
186048,note_on,48,0,10,,,,,,,,8,,,66,0
186060,note_on,12,0,10,,,,,,,,8,,,69,80
186096,note_on,0,0,5,,,,,,,,4,,,62,0
186096,note_on,96,0,5,,,,,,,,4,,,74,0
186096,note_on,96,0,4,,,,,,,,3,,,62,0
186096,note_on,0,0,4,,,,,,,,3,,,50,0
186096,note_on,96,0,1,,,,,,,,0,,,74,0
186096,note_on,96,0,2,,,,,,,,1,,,74,0
186096,note_on,96,0,12,,,,,,,,11,,,50,0
186096,note_on,96,0,9,,,,,,,,7,,,74,0
186096,note_on,96,0,13,,,,,,,,12,,,38,0
186096,note_on,96,0,11,,,,,,,,10,,,62,0
186108,note_on,48,0,10,,,,,,,,8,,,69,0
186120,note_on,0,0,4,,,,,,,,3,,,62,80
186120,note_on,24,0,4,,,,,,,,3,,,50,80
186120,note_on,24,0,13,,,,,,,,12,,,38,80
186120,note_on,12,0,10,,,,,,,,8,,,66,80
186120,note_on,24,0,11,,,,,,,,10,,,57,80
186120,note_on,24,0,5,,,,,,,,4,,,62,80
186120,note_on,0,0,5,,,,,,,,4,,,74,80
186120,note_on,24,0,1,,,,,,,,0,,,74,80
186120,note_on,24,0,12,,,,,,,,11,,,50,80
186120,note_on,24,0,9,,,,,,,,7,,,74,80
186120,note_on,24,0,2,,,,,,,,1,,,74,80
186168,note_on,48,0,10,,,,,,,,8,,,66,0
186180,note_on,12,0,10,,,,,,,,8,,,69,80
186192,note_on,192,0,6,,,,,,,,5,,,50,0
186216,note_on,96,0,13,,,,,,,,12,,,38,0
186216,note_on,96,0,5,,,,,,,,4,,,74,0
186216,note_on,96,0,11,,,,,,,,10,,,57,0
186216,note_on,96,0,1,,,,,,,,0,,,74,0
186216,note_on,96,0,4,,,,,,,,3,,,62,0
186216,note_on,0,0,4,,,,,,,,3,,,50,0
186216,note_on,96,0,12,,,,,,,,11,,,50,0
186216,note_on,96,0,9,,,,,,,,7,,,74,0
186216,note_on,0,0,5,,,,,,,,4,,,62,0
186216,note_on,96,0,2,,,,,,,,1,,,74,0
186228,note_on,48,0,10,,,,,,,,8,,,69,0
186240,note_on,24,0,12,,,,,,,,11,,,50,80
186240,note_on,24,0,11,,,,,,,,10,,,62,80
186240,note_on,0,0,4,,,,,,,,3,,,54,80
186240,note_on,24,0,4,,,,,,,,3,,,66,80
186240,note_on,24,0,13,,,,,,,,12,,,38,80
186240,note_on,24,0,1,,,,,,,,0,,,78,80
186240,note_on,24,0,2,,,,,,,,1,,,78,80
186240,note_on,24,0,9,,,,,,,,7,,,78,80
186240,note_on,12,0,10,,,,,,,,8,,,66,80
186288,note_on,0,0,3,,,,,,,,2,,,62,0
186288,note_on,288,0,3,,,,,,,,2,,,54,0
186288,note_on,48,0,10,,,,,,,,8,,,66,0
186300,note_on,12,0,10,,,,,,,,8,,,69,80
186336,note_on,96,0,13,,,,,,,,12,,,38,0
186336,note_on,0,0,4,,,,,,,,3,,,66,0
186336,note_on,96,0,2,,,,,,,,1,,,78,0
186336,note_on,96,0,1,,,,,,,,0,,,78,0
186336,note_on,96,0,12,,,,,,,,11,,,50,0
186336,note_on,96,0,4,,,,,,,,3,,,54,0
186336,note_on,96,0,11,,,,,,,,10,,,62,0
186336,note_on,96,0,9,,,,,,,,7,,,78,0
186348,note_on,48,0,10,,,,,,,,8,,,69,0
186360,note_on,24,0,4,,,,,,,,3,,,57,80
186360,note_on,0,0,4,,,,,,,,3,,,69,80
186360,note_on,24,0,11,,,,,,,,10,,,66,80
186360,note_on,24,0,13,,,,,,,,12,,,38,80
186360,note_on,12,0,10,,,,,,,,8,,,62,80
186360,note_on,144,0,5,,,,,,,,4,,,62,80
186360,note_on,24,0,9,,,,,,,,7,,,81,80
186360,note_on,24,0,1,,,,,,,,0,,,81,80
186360,note_on,72,0,3,,,,,,,,2,,,62,80
186360,note_on,24,0,12,,,,,,,,11,,,50,80
186360,note_on,0,0,3,,,,,,,,2,,,66,80
186360,note_on,168,0,6,,,,,,,,5,,,50,80
186360,note_on,0,0,5,,,,,,,,4,,,74,80
186360,note_on,24,0,2,,,,,,,,1,,,81,80
186408,note_on,48,0,10,,,,,,,,8,,,62,0
186420,note_on,12,0,10,,,,,,,,8,,,69,80
186456,note_on,0,0,5,,,,,,,,4,,,62,0
186456,note_on,96,0,2,,,,,,,,1,,,81,0
186456,note_on,96,0,1,,,,,,,,0,,,81,0
186456,note_on,96,0,11,,,,,,,,10,,,66,0
186456,note_on,96,0,13,,,,,,,,12,,,38,0
186456,note_on,96,0,12,,,,,,,,11,,,50,0
186456,note_on,96,0,9,,,,,,,,7,,,81,0
186456,note_on,96,0,5,,,,,,,,4,,,74,0
186456,note_on,0,0,4,,,,,,,,3,,,57,0
186456,note_on,96,0,4,,,,,,,,3,,,69,0
186468,note_on,48,0,10,,,,,,,,8,,,69,0
186480,note_on,12,0,10,,,,,,,,8,,,62,80
186480,note_on,24,0,11,,,,,,,,10,,,66,80
186480,note_on,24,0,9,,,,,,,,7,,,81,80
186480,note_on,24,0,2,,,,,,,,1,,,81,80
186480,note_on,24,0,1,,,,,,,,0,,,81,80
186480,note_on,0,0,5,,,,,,,,4,,,74,80
186480,note_on,24,0,5,,,,,,,,4,,,62,80
186480,note_on,24,0,13,,,,,,,,12,,,38,80
186480,note_on,0,0,4,,,,,,,,3,,,69,80
186480,note_on,24,0,4,,,,,,,,3,,,57,80
186480,note_on,24,0,12,,,,,,,,11,,,50,80
186528,note_on,48,0,10,,,,,,,,8,,,62,0
186540,note_on,12,0,10,,,,,,,,8,,,69,80
186552,note_on,192,0,6,,,,,,,,5,,,50,0
186576,note_on,96,0,12,,,,,,,,11,,,50,0
186576,note_on,0,0,5,,,,,,,,4,,,62,0
186576,note_on,96,0,5,,,,,,,,4,,,74,0
186576,note_on,96,0,1,,,,,,,,0,,,81,0
186576,note_on,96,0,9,,,,,,,,7,,,81,0
186576,note_on,96,0,4,,,,,,,,3,,,69,0
186576,note_on,0,0,4,,,,,,,,3,,,57,0
186576,note_on,96,0,11,,,,,,,,10,,,66,0
186576,note_on,96,0,13,,,,,,,,12,,,38,0
186576,note_on,96,0,2,,,,,,,,1,,,81,0
186588,note_on,48,0,10,,,,,,,,8,,,69,0
186600,note_on,24,0,1,,,,,,,,0,,,86,80
186600,note_on,24,0,2,,,,,,,,1,,,86,80
186600,note_on,24,0,4,,,,,,,,3,,,66,80
186600,note_on,24,0,11,,,,,,,,10,,,69,80
186600,note_on,24,0,13,,,,,,,,12,,,38,80
186600,note_on,12,0,10,,,,,,,,8,,,66,80
186600,note_on,24,0,9,,,,,,,,7,,,86,80
186600,note_on,24,0,12,,,,,,,,11,,,50,80
186600,note_on,0,0,4,,,,,,,,3,,,62,80
186648,note_on,0,0,3,,,,,,,,2,,,62,0
186648,note_on,48,0,10,,,,,,,,8,,,66,0
186648,note_on,288,0,3,,,,,,,,2,,,66,0
186660,note_on,12,0,10,,,,,,,,8,,,69,80
186696,note_on,96,0,2,,,,,,,,1,,,86,0
186696,note_on,96,0,13,,,,,,,,12,,,38,0
186696,note_on,96,0,9,,,,,,,,7,,,86,0
186696,note_on,96,0,12,,,,,,,,11,,,50,0
186696,note_on,96,0,1,,,,,,,,0,,,86,0
186696,note_on,96,0,11,,,,,,,,10,,,69,0
186696,note_on,96,0,4,,,,,,,,3,,,62,0
186696,note_on,0,0,4,,,,,,,,3,,,66,0
186708,note_on,48,0,10,,,,,,,,8,,,69,0
186720,note_on,24,0,11,,,,,,,,10,,,64,80
186720,note_on,0,0,3,,,,,,,,2,,,64,80
186720,note_on,24,0,9,,,,,,,,7,,,85,80
186720,note_on,12,0,10,,,,,,,,8,,,64,80
186720,note_on,24,0,12,,,,,,,,11,,,52,80
186720,note_on,24,0,1,,,,,,,,0,,,85,80
186720,note_on,24,0,4,,,,,,,,3,,,64,80
186720,note_on,24,0,13,,,,,,,,12,,,40,80
186720,note_on,72,0,3,,,,,,,,2,,,61,80
186720,note_on,144,0,5,,,,,,,,4,,,76,80
186720,note_on,24,0,2,,,,,,,,1,,,85,80
186816,note_on,96,0,1,,,,,,,,0,,,85,0
186816,note_on,96,0,12,,,,,,,,11,,,52,0
186816,note_on,96,0,9,,,,,,,,7,,,85,0
186816,note_on,96,0,2,,,,,,,,1,,,85,0
186816,note_on,96,0,10,,,,,,,,8,,,64,0
186816,note_on,96,0,13,,,,,,,,12,,,40,0
186816,note_on,96,0,4,,,,,,,,3,,,64,0
186816,note_on,96,0,11,,,,,,,,10,,,64,0
186840,note_on,24,0,10,,,,,,,,8,,,64,80
186840,note_on,24,0,2,,,,,,,,1,,,85,80
186840,note_on,24,0,9,,,,,,,,7,,,85,80
186840,note_on,24,0,12,,,,,,,,11,,,52,80
186840,note_on,24,0,4,,,,,,,,3,,,64,80
186840,note_on,24,0,13,,,,,,,,12,,,40,80
186840,note_on,24,0,11,,,,,,,,10,,,64,80
186840,note_on,24,0,1,,,,,,,,0,,,85,80
186888,note_on,48,0,9,,,,,,,,7,,,85,0
186888,note_on,48,0,2,,,,,,,,1,,,85,0
186888,note_on,48,0,10,,,,,,,,8,,,64,0
186888,note_on,48,0,1,,,,,,,,0,,,85,0
186900,note_on,12,0,9,,,,,,,,7,,,86,80
186900,note_on,12,0,10,,,,,,,,8,,,66,80
186900,note_on,12,0,2,,,,,,,,1,,,86,80
186900,note_on,12,0,1,,,,,,,,0,,,86,80
186912,note_on,0,0,3,,,,,,,,2,,,61,0
186912,note_on,192,0,3,,,,,,,,2,,,64,0
186936,note_on,96,0,11,,,,,,,,10,,,64,0
186936,note_on,96,0,4,,,,,,,,3,,,64,0
186936,note_on,96,0,12,,,,,,,,11,,,52,0
186936,note_on,96,0,13,,,,,,,,12,,,40,0
186948,note_on,48,0,10,,,,,,,,8,,,66,0
186948,note_on,48,0,1,,,,,,,,0,,,86,0
186948,note_on,48,0,2,,,,,,,,1,,,86,0
186948,note_on,48,0,9,,,,,,,,7,,,86,0
186960,note_on,24,0,13,,,,,,,,12,,,40,80
186960,note_on,48,0,3,,,,,,,,2,,,62,80
186960,note_on,24,0,4,,,,,,,,3,,,64,80
186960,note_on,12,0,9,,,,,,,,7,,,83,80
186960,note_on,24,0,12,,,,,,,,11,,,52,80
186960,note_on,24,0,11,,,,,,,,10,,,64,80
186960,note_on,12,0,10,,,,,,,,8,,,62,80
186960,note_on,12,0,2,,,,,,,,1,,,83,80
186960,note_on,12,0,1,,,,,,,,0,,,83,80
186960,note_on,0,0,3,,,,,,,,2,,,59,80
187008,note_on,288,0,5,,,,,,,,4,,,76,0
187008,note_on,48,0,10,,,,,,,,8,,,62,0
187008,note_on,48,0,1,,,,,,,,0,,,83,0
187008,note_on,48,0,9,,,,,,,,7,,,83,0
187008,note_on,48,0,2,,,,,,,,1,,,83,0
187020,note_on,12,0,1,,,,,,,,0,,,85,80
187020,note_on,12,0,2,,,,,,,,1,,,85,80
187020,note_on,12,0,10,,,,,,,,8,,,64,80
187020,note_on,12,0,9,,,,,,,,7,,,85,80
187056,note_on,0,0,3,,,,,,,,2,,,62,0
187056,note_on,96,0,4,,,,,,,,3,,,64,0
187056,note_on,96,0,3,,,,,,,,2,,,59,0
187056,note_on,96,0,11,,,,,,,,10,,,64,0
187056,note_on,96,0,13,,,,,,,,12,,,40,0
187056,note_on,96,0,12,,,,,,,,11,,,52,0
187068,note_on,48,0,10,,,,,,,,8,,,64,0
187068,note_on,48,0,9,,,,,,,,7,,,85,0
187068,note_on,48,0,2,,,,,,,,1,,,85,0
187068,note_on,48,0,1,,,,,,,,0,,,85,0
187080,note_on,24,0,4,,,,,,,,3,,,57,80
187080,note_on,12,0,10,,,,,,,,8,,,61,80
187080,note_on,24,0,13,,,,,,,,12,,,45,80
187080,note_on,0,0,4,,,,,,,,3,,,64,80
187080,note_on,12,0,2,,,,,,,,1,,,81,80
187080,note_on,12,0,1,,,,,,,,0,,,81,80
187080,note_on,72,0,5,,,,,,,,4,,,69,80
187080,note_on,0,0,5,,,,,,,,4,,,76,80
187080,note_on,24,0,12,,,,,,,,11,,,57,80
187080,note_on,12,0,9,,,,,,,,7,,,81,80
187080,note_on,24,0,11,,,,,,,,10,,,64,80
187080,note_on,528,0,6,,,,,,,,5,,,45,80
187080,note_on,24,0,3,,,,,,,,2,,,57,80
187080,note_on,0,0,3,,,,,,,,2,,,61,80
187176,note_on,96,0,13,,,,,,,,12,,,45,0
187176,note_on,96,0,12,,,,,,,,11,,,57,0
187200,note_on,24,0,13,,,,,,,,12,,,40,80
187200,note_on,24,0,12,,,,,,,,11,,,52,80
187272,note_on,0,0,3,,,,,,,,2,,,57,0
187272,note_on,192,0,11,,,,,,,,10,,,64,0
187272,note_on,192,0,9,,,,,,,,7,,,81,0
187272,note_on,192,0,4,,,,,,,,3,,,64,0
187272,note_on,192,0,10,,,,,,,,8,,,61,0
187272,note_on,0,0,5,,,,,,,,4,,,69,0
187272,note_on,192,0,2,,,,,,,,1,,,81,0
187272,note_on,192,0,3,,,,,,,,2,,,61,0
187272,note_on,192,0,5,,,,,,,,4,,,76,0
187272,note_on,0,0,4,,,,,,,,3,,,57,0
187272,note_on,192,0,1,,,,,,,,0,,,81,0
187272,note_on,192,0,6,,,,,,,,5,,,45,0
187296,note_on,96,0,12,,,,,,,,11,,,52,0
187296,note_on,96,0,13,,,,,,,,12,,,40,0
187320,note_on,24,0,13,,,,,,,,12,,,33,80
187320,note_on,24,0,12,,,,,,,,11,,,45,80
187416,note_on,96,0,13,,,,,,,,12,,,33,0
187416,note_on,96,0,12,,,,,,,,11,,,45,0
187440,note_on,0,0,8,,,,,,,,6,,,57,80
187440,note_on,0,0,8,,,,,,,,6,,,54,80
187440,note_on,2904,0,8,,,,,,,,6,,,62,80
187440,note_on,3144,0,7,,,,,,,,6,,,81,80
187536,note_on,96,0,7,,,,,,,,6,,,81,0
187560,note_on,24,0,7,,,,,,,,6,,,86,80
187608,note_on,48,0,7,,,,,,,,6,,,86,0
187620,note_on,12,0,7,,,,,,,,6,,,85,80
187668,note_on,48,0,7,,,,,,,,6,,,85,0
187680,note_on,12,0,7,,,,,,,,6,,,83,80
187728,note_on,288,0,8,,,,,,,,6,,,57,0
187728,note_on,0,0,8,,,,,,,,6,,,54,0
187728,note_on,0,0,8,,,,,,,,6,,,62,0
187728,note_on,48,0,7,,,,,,,,6,,,83,0
187740,note_on,12,0,7,,,,,,,,6,,,81,80
187788,note_on,48,0,7,,,,,,,,6,,,81,0
187800,note_on,12,0,7,,,,,,,,6,,,81,80
187800,note_on,0,0,8,,,,,,,,6,,,52,80
187800,note_on,72,0,8,,,,,,,,6,,,61,80
187800,note_on,0,0,8,,,,,,,,6,,,57,80
187848,note_on,48,0,7,,,,,,,,6,,,81,0
187860,note_on,12,0,7,,,,,,,,6,,,80,80
187908,note_on,48,0,7,,,,,,,,6,,,80,0
187920,note_on,12,0,7,,,,,,,,6,,,79,80
187968,note_on,48,0,7,,,,,,,,6,,,79,0
187980,note_on,12,0,7,,,,,,,,6,,,83,80
188028,note_on,48,0,7,,,,,,,,6,,,83,0
188040,note_on,12,0,7,,,,,,,,6,,,81,80
188088,note_on,48,0,7,,,,,,,,6,,,81,0
188088,note_on,0,0,8,,,,,,,,6,,,61,0
188088,note_on,288,0,8,,,,,,,,6,,,57,0
188088,note_on,0,0,8,,,,,,,,6,,,52,0
188100,note_on,12,0,7,,,,,,,,6,,,79,80
188148,note_on,48,0,7,,,,,,,,6,,,79,0
188160,note_on,0,0,8,,,,,,,,6,,,57,80
188160,note_on,12,0,7,,,,,,,,6,,,79,80
188160,note_on,0,0,8,,,,,,,,6,,,50,80
188160,note_on,72,0,8,,,,,,,,6,,,62,80
188208,note_on,48,0,7,,,,,,,,6,,,79,0
188220,note_on,12,0,7,,,,,,,,6,,,77,80
188268,note_on,48,0,7,,,,,,,,6,,,77,0
188280,note_on,12,0,7,,,,,,,,6,,,78,80
188328,note_on,48,0,7,,,,,,,,6,,,78,0
188340,note_on,12,0,7,,,,,,,,6,,,81,80
188388,note_on,48,0,7,,,,,,,,6,,,81,0
188400,note_on,12,0,7,,,,,,,,6,,,79,80
188448,note_on,0,0,8,,,,,,,,6,,,62,0
188448,note_on,48,0,7,,,,,,,,6,,,79,0
188448,note_on,0,0,8,,,,,,,,6,,,50,0
188448,note_on,288,0,8,,,,,,,,6,,,57,0
188460,note_on,12,0,7,,,,,,,,6,,,78,80
188508,note_on,48,0,7,,,,,,,,6,,,78,0
188520,note_on,12,0,7,,,,,,,,6,,,78,80
188520,note_on,72,0,8,,,,,,,,6,,,61,80
188520,note_on,0,0,8,,,,,,,,6,,,55,80
188520,note_on,0,0,8,,,,,,,,6,,,57,80
188568,note_on,48,0,7,,,,,,,,6,,,78,0
188580,note_on,12,0,7,,,,,,,,6,,,75,80
188628,note_on,48,0,7,,,,,,,,6,,,75,0
188640,note_on,12,0,7,,,,,,,,6,,,76,80
188688,note_on,48,0,7,,,,,,,,6,,,76,0
188700,note_on,12,0,7,,,,,,,,6,,,79,80
188748,note_on,48,0,7,,,,,,,,6,,,79,0
188760,note_on,12,0,7,,,,,,,,6,,,78,80
188808,note_on,48,0,7,,,,,,,,6,,,78,0
188808,note_on,288,0,8,,,,,,,,6,,,57,0
188808,note_on,0,0,8,,,,,,,,6,,,55,0
188808,note_on,0,0,8,,,,,,,,6,,,61,0
188820,note_on,12,0,7,,,,,,,,6,,,76,80
188868,note_on,48,0,7,,,,,,,,6,,,76,0
188880,note_on,72,0,8,,,,,,,,6,,,62,80
188880,note_on,12,0,7,,,,,,,,6,,,74,80
188880,note_on,0,0,8,,,,,,,,6,,,54,80
188928,note_on,48,0,7,,,,,,,,6,,,74,0
188940,note_on,12,0,7,,,,,,,,6,,,76,80
188988,note_on,48,0,7,,,,,,,,6,,,76,0
189000,note_on,12,0,7,,,,,,,,6,,,78,80
189048,note_on,48,0,7,,,,,,,,6,,,78,0
189060,note_on,12,0,7,,,,,,,,6,,,79,80
189108,note_on,48,0,7,,,,,,,,6,,,79,0
189120,note_on,12,0,7,,,,,,,,6,,,81,80
189168,note_on,48,0,7,,,,,,,,6,,,81,0
189168,note_on,288,0,8,,,,,,,,6,,,54,0
189168,note_on,0,0,8,,,,,,,,6,,,62,0
189180,note_on,12,0,7,,,,,,,,6,,,82,80
189228,note_on,48,0,7,,,,,,,,6,,,82,0
189240,note_on,12,0,7,,,,,,,,6,,,83,80
189240,note_on,72,0,8,,,,,,,,6,,,62,80
189240,note_on,0,0,8,,,,,,,,6,,,55,80
189288,note_on,48,0,7,,,,,,,,6,,,83,0
189300,note_on,12,0,7,,,,,,,,6,,,84,80
189348,note_on,48,0,7,,,,,,,,6,,,84,0
189360,note_on,12,0,7,,,,,,,,6,,,85,80
189408,note_on,48,0,7,,,,,,,,6,,,85,0
189420,note_on,12,0,7,,,,,,,,6,,,86,80
189468,note_on,48,0,7,,,,,,,,6,,,86,0
189480,note_on,12,0,7,,,,,,,,6,,,83,80
189528,note_on,48,0,7,,,,,,,,6,,,83,0
189528,note_on,288,0,8,,,,,,,,6,,,55,0
189528,note_on,0,0,8,,,,,,,,6,,,62,0
189540,note_on,12,0,7,,,,,,,,6,,,79,80
189588,note_on,48,0,7,,,,,,,,6,,,79,0
189600,note_on,12,0,7,,,,,,,,6,,,78,80
189600,note_on,0,0,8,,,,,,,,6,,,62,80
189600,note_on,72,0,8,,,,,,,,6,,,57,80
189648,note_on,48,0,7,,,,,,,,6,,,78,0
189660,note_on,12,0,7,,,,,,,,6,,,79,80
189708,note_on,48,0,7,,,,,,,,6,,,79,0
189720,note_on,12,0,7,,,,,,,,6,,,80,80
189768,note_on,48,0,7,,,,,,,,6,,,80,0
189780,note_on,12,0,7,,,,,,,,6,,,81,80
189792,note_on,192,0,8,,,,,,,,6,,,62,0
189828,note_on,48,0,7,,,,,,,,6,,,81,0
189840,note_on,12,0,7,,,,,,,,6,,,79,80
189840,note_on,48,0,8,,,,,,,,6,,,61,80
189888,note_on,48,0,8,,,,,,,,6,,,57,0
189888,note_on,48,0,7,,,,,,,,6,,,79,0
189900,note_on,12,0,7,,,,,,,,6,,,76,80
189936,note_on,48,0,8,,,,,,,,6,,,61,0
189948,note_on,48,0,7,,,,,,,,6,,,76,0
189960,note_on,24,0,8,,,,,,,,6,,,62,80
189960,note_on,12,0,7,,,,,,,,6,,,74,80
190056,note_on,96,0,8,,,,,,,,6,,,62,0
190080,note_on,24,0,8,,,,,,,,6,,,57,80
190152,note_on,192,0,7,,,,,,,,6,,,74,0
190176,note_on,96,0,8,,,,,,,,6,,,57,0
190200,note_on,24,0,8,,,,,,,,6,,,50,80
190296,note_on,96,0,8,,,,,,,,6,,,50,0
190320,note_on,3048,0,11,,,,,,,,10,,,66,80
190320,note_on,3048,0,3,,,,,,,,2,,,54,80
190320,note_on,3048,0,2,,,,,,,,1,,,81,80
190320,note_on,3048,0,10,,,,,,,,8,,,69,80
190320,note_on,3048,0,9,,,,,,,,7,,,81,80
190320,note_on,2904,0,13,,,,,,,,12,,,42,80
190320,note_on,2904,0,12,,,,,,,,11,,,54,80
190320,note_on,0,0,4,,,,,,,,3,,,57,80
190320,note_on,3048,0,1,,,,,,,,0,,,81,80
190320,note_on,3048,0,5,,,,,,,,4,,,69,80
190320,note_on,3048,0,6,,,,,,,,5,,,45,80
190320,note_on,3048,0,4,,,,,,,,3,,,45,80
190416,note_on,96,0,13,,,,,,,,12,,,42,0
190416,note_on,96,0,11,,,,,,,,10,,,66,0
190416,note_on,0,0,4,,,,,,,,3,,,45,0
190416,note_on,96,0,3,,,,,,,,2,,,54,0
190416,note_on,96,0,4,,,,,,,,3,,,57,0
190416,note_on,96,0,12,,,,,,,,11,,,54,0
190440,note_on,0,0,4,,,,,,,,3,,,57,80
190440,note_on,24,0,13,,,,,,,,12,,,42,80
190440,note_on,24,0,4,,,,,,,,3,,,45,80
190440,note_on,24,0,3,,,,,,,,2,,,54,80
190440,note_on,24,0,11,,,,,,,,10,,,66,80
190440,note_on,24,0,12,,,,,,,,11,,,54,80
190512,note_on,192,0,5,,,,,,,,4,,,69,0
190512,note_on,192,0,1,,,,,,,,0,,,81,0
190512,note_on,192,0,9,,,,,,,,7,,,81,0
190512,note_on,192,0,6,,,,,,,,5,,,45,0
190512,note_on,192,0,10,,,,,,,,8,,,69,0
190512,note_on,192,0,2,,,,,,,,1,,,81,0
190536,note_on,96,0,11,,,,,,,,10,,,66,0
190536,note_on,96,0,12,,,,,,,,11,,,54,0
190536,note_on,96,0,3,,,,,,,,2,,,54,0
190536,note_on,96,0,13,,,,,,,,12,,,42,0
190536,note_on,96,0,4,,,,,,,,3,,,57,0
190536,note_on,0,0,4,,,,,,,,3,,,45,0
190560,note_on,24,0,4,,,,,,,,3,,,57,80
190560,note_on,48,0,10,,,,,,,,8,,,74,80
190560,note_on,24,0,12,,,,,,,,11,,,54,80
190560,note_on,24,0,3,,,,,,,,2,,,54,80
190560,note_on,24,0,13,,,,,,,,12,,,42,80
190560,note_on,48,0,2,,,,,,,,1,,,86,80
190560,note_on,24,0,11,,,,,,,,10,,,66,80
190560,note_on,0,0,4,,,,,,,,3,,,45,80
190560,note_on,48,0,9,,,,,,,,7,,,86,80
190560,note_on,48,0,1,,,,,,,,0,,,86,80
190608,note_on,48,0,2,,,,,,,,1,,,86,0
190608,note_on,48,0,10,,,,,,,,8,,,74,0
190608,note_on,48,0,1,,,,,,,,0,,,86,0
190608,note_on,48,0,9,,,,,,,,7,,,86,0
190620,note_on,12,0,10,,,,,,,,8,,,71,80
190620,note_on,12,0,1,,,,,,,,0,,,83,80
190620,note_on,12,0,9,,,,,,,,7,,,83,80
190620,note_on,12,0,2,,,,,,,,1,,,83,80
190656,note_on,96,0,13,,,,,,,,12,,,42,0
190656,note_on,0,0,4,,,,,,,,3,,,57,0
190656,note_on,96,0,3,,,,,,,,2,,,54,0
190656,note_on,96,0,12,,,,,,,,11,,,54,0
190656,note_on,96,0,11,,,,,,,,10,,,66,0
190656,note_on,96,0,4,,,,,,,,3,,,45,0
190668,note_on,48,0,9,,,,,,,,7,,,83,0
190668,note_on,48,0,10,,,,,,,,8,,,71,0
190668,note_on,48,0,1,,,,,,,,0,,,83,0
190668,note_on,48,0,2,,,,,,,,1,,,83,0
190680,note_on,24,0,12,,,,,,,,11,,,52,80
190680,note_on,12,0,9,,,,,,,,7,,,81,80
190680,note_on,24,0,13,,,,,,,,12,,,40,80
190680,note_on,12,0,1,,,,,,,,0,,,81,80
190680,note_on,24,0,11,,,,,,,,10,,,64,80
190680,note_on,24,0,3,,,,,,,,2,,,52,80
190680,note_on,12,0,10,,,,,,,,8,,,69,80
190680,note_on,168,0,5,,,,,,,,4,,,69,80
190680,note_on,12,0,2,,,,,,,,1,,,81,80
190680,note_on,0,0,4,,,,,,,,3,,,57,80
190680,note_on,168,0,6,,,,,,,,5,,,45,80
190680,note_on,24,0,4,,,,,,,,3,,,45,80
190728,note_on,48,0,9,,,,,,,,7,,,81,0
190728,note_on,48,0,2,,,,,,,,1,,,81,0
190728,note_on,48,0,10,,,,,,,,8,,,69,0
190728,note_on,48,0,1,,,,,,,,0,,,81,0
190740,note_on,12,0,10,,,,,,,,8,,,67,80
190740,note_on,12,0,2,,,,,,,,1,,,79,80
190740,note_on,12,0,9,,,,,,,,7,,,79,80
190740,note_on,12,0,1,,,,,,,,0,,,79,80
190776,note_on,96,0,3,,,,,,,,2,,,52,0
190776,note_on,96,0,11,,,,,,,,10,,,64,0
190776,note_on,96,0,4,,,,,,,,3,,,57,0
190776,note_on,0,0,4,,,,,,,,3,,,45,0
190776,note_on,96,0,13,,,,,,,,12,,,40,0
190776,note_on,96,0,12,,,,,,,,11,,,52,0
190788,note_on,48,0,1,,,,,,,,0,,,79,0
190788,note_on,48,0,2,,,,,,,,1,,,79,0
190788,note_on,48,0,9,,,,,,,,7,,,79,0
190788,note_on,48,0,10,,,,,,,,8,,,67,0
190800,note_on,24,0,4,,,,,,,,3,,,57,80
190800,note_on,12,0,1,,,,,,,,0,,,79,80
190800,note_on,24,0,12,,,,,,,,11,,,52,80
190800,note_on,24,0,11,,,,,,,,10,,,64,80
190800,note_on,24,0,3,,,,,,,,2,,,52,80
190800,note_on,12,0,10,,,,,,,,8,,,67,80
190800,note_on,24,0,13,,,,,,,,12,,,40,80
190800,note_on,12,0,2,,,,,,,,1,,,79,80
190800,note_on,12,0,9,,,,,,,,7,,,79,80
190800,note_on,0,0,4,,,,,,,,3,,,45,80
190872,note_on,192,0,5,,,,,,,,4,,,69,0
190872,note_on,192,0,6,,,,,,,,5,,,45,0
190896,note_on,96,0,4,,,,,,,,3,,,45,0
190896,note_on,96,0,12,,,,,,,,11,,,52,0
190896,note_on,96,0,3,,,,,,,,2,,,52,0
190896,note_on,96,0,9,,,,,,,,7,,,79,0
190896,note_on,96,0,10,,,,,,,,8,,,67,0
190896,note_on,96,0,13,,,,,,,,12,,,40,0
190896,note_on,96,0,2,,,,,,,,1,,,79,0
190896,note_on,96,0,1,,,,,,,,0,,,79,0
190896,note_on,96,0,11,,,,,,,,10,,,64,0
190896,note_on,0,0,4,,,,,,,,3,,,57,0
190920,note_on,24,0,4,,,,,,,,3,,,45,80
190920,note_on,0,0,4,,,,,,,,3,,,57,80
190920,note_on,24,0,10,,,,,,,,8,,,71,80
190920,note_on,24,0,2,,,,,,,,1,,,83,80
190920,note_on,24,0,13,,,,,,,,12,,,40,80
190920,note_on,24,0,1,,,,,,,,0,,,83,80
190920,note_on,24,0,11,,,,,,,,10,,,64,80
190920,note_on,24,0,12,,,,,,,,11,,,52,80
190920,note_on,24,0,9,,,,,,,,7,,,83,80
190920,note_on,24,0,3,,,,,,,,2,,,52,80
190968,note_on,48,0,9,,,,,,,,7,,,83,0
190968,note_on,48,0,10,,,,,,,,8,,,71,0
190968,note_on,48,0,2,,,,,,,,1,,,83,0
190968,note_on,48,0,1,,,,,,,,0,,,83,0
190980,note_on,12,0,1,,,,,,,,0,,,79,80
190980,note_on,12,0,2,,,,,,,,1,,,79,80
190980,note_on,12,0,10,,,,,,,,8,,,67,80
190980,note_on,12,0,9,,,,,,,,7,,,79,80
191016,note_on,96,0,12,,,,,,,,11,,,52,0
191016,note_on,96,0,4,,,,,,,,3,,,57,0
191016,note_on,0,0,4,,,,,,,,3,,,45,0
191016,note_on,96,0,3,,,,,,,,2,,,52,0
191016,note_on,96,0,11,,,,,,,,10,,,64,0
191016,note_on,96,0,13,,,,,,,,12,,,40,0
191028,note_on,48,0,2,,,,,,,,1,,,79,0
191028,note_on,48,0,10,,,,,,,,8,,,67,0
191028,note_on,48,0,9,,,,,,,,7,,,79,0
191028,note_on,48,0,1,,,,,,,,0,,,79,0
191040,note_on,168,0,6,,,,,,,,5,,,45,80
191040,note_on,168,0,5,,,,,,,,4,,,69,80
191040,note_on,12,0,2,,,,,,,,1,,,79,80
191040,note_on,24,0,12,,,,,,,,11,,,50,80
191040,note_on,12,0,1,,,,,,,,0,,,79,80
191040,note_on,24,0,13,,,,,,,,12,,,38,80
191040,note_on,24,0,4,,,,,,,,3,,,45,80
191040,note_on,24,0,11,,,,,,,,10,,,62,80
191040,note_on,12,0,9,,,,,,,,7,,,79,80
191040,note_on,12,0,10,,,,,,,,8,,,67,80
191040,note_on,0,0,4,,,,,,,,3,,,57,80
191040,note_on,24,0,3,,,,,,,,2,,,50,80
191088,note_on,48,0,9,,,,,,,,7,,,79,0
191088,note_on,48,0,1,,,,,,,,0,,,79,0
191088,note_on,48,0,2,,,,,,,,1,,,79,0
191088,note_on,48,0,10,,,,,,,,8,,,67,0
191100,note_on,12,0,1,,,,,,,,0,,,78,80
191100,note_on,12,0,2,,,,,,,,1,,,78,80
191100,note_on,12,0,9,,,,,,,,7,,,78,80
191100,note_on,12,0,10,,,,,,,,8,,,66,80
191136,note_on,96,0,3,,,,,,,,2,,,50,0
191136,note_on,96,0,12,,,,,,,,11,,,50,0
191136,note_on,96,0,4,,,,,,,,3,,,57,0
191136,note_on,96,0,11,,,,,,,,10,,,62,0
191136,note_on,96,0,13,,,,,,,,12,,,38,0
191136,note_on,0,0,4,,,,,,,,3,,,45,0
191148,note_on,48,0,9,,,,,,,,7,,,78,0
191148,note_on,48,0,2,,,,,,,,1,,,78,0
191148,note_on,48,0,1,,,,,,,,0,,,78,0
191148,note_on,48,0,10,,,,,,,,8,,,66,0
191160,note_on,24,0,11,,,,,,,,10,,,62,80
191160,note_on,0,0,4,,,,,,,,3,,,45,80
191160,note_on,24,0,3,,,,,,,,2,,,50,80
191160,note_on,24,0,13,,,,,,,,12,,,38,80
191160,note_on,24,0,12,,,,,,,,11,,,50,80
191160,note_on,12,0,10,,,,,,,,8,,,66,80
191160,note_on,12,0,9,,,,,,,,7,,,78,80
191160,note_on,24,0,4,,,,,,,,3,,,57,80
191160,note_on,12,0,2,,,,,,,,1,,,78,80
191160,note_on,12,0,1,,,,,,,,0,,,78,80
191232,note_on,192,0,6,,,,,,,,5,,,45,0
191232,note_on,192,0,5,,,,,,,,4,,,69,0
191256,note_on,96,0,1,,,,,,,,0,,,78,0
191256,note_on,96,0,9,,,,,,,,7,,,78,0
191256,note_on,96,0,4,,,,,,,,3,,,45,0
191256,note_on,0,0,4,,,,,,,,3,,,57,0
191256,note_on,96,0,10,,,,,,,,8,,,66,0
191256,note_on,96,0,2,,,,,,,,1,,,78,0
191256,note_on,96,0,12,,,,,,,,11,,,50,0
191256,note_on,96,0,11,,,,,,,,10,,,62,0
191256,note_on,96,0,3,,,,,,,,2,,,50,0
191256,note_on,96,0,13,,,,,,,,12,,,38,0
191280,note_on,24,0,9,,,,,,,,7,,,81,80
191280,note_on,24,0,1,,,,,,,,0,,,81,80
191280,note_on,24,0,10,,,,,,,,8,,,69,80
191280,note_on,24,0,3,,,,,,,,2,,,50,80
191280,note_on,24,0,12,,,,,,,,11,,,50,80
191280,note_on,24,0,2,,,,,,,,1,,,81,80
191280,note_on,24,0,11,,,,,,,,10,,,62,80
191280,note_on,24,0,4,,,,,,,,3,,,45,80
191280,note_on,0,0,4,,,,,,,,3,,,57,80
191280,note_on,24,0,13,,,,,,,,12,,,38,80
191328,note_on,48,0,10,,,,,,,,8,,,69,0
191328,note_on,48,0,2,,,,,,,,1,,,81,0
191328,note_on,48,0,9,,,,,,,,7,,,81,0
191328,note_on,48,0,1,,,,,,,,0,,,81,0
191340,note_on,12,0,2,,,,,,,,1,,,78,80
191340,note_on,12,0,10,,,,,,,,8,,,66,80
191340,note_on,12,0,1,,,,,,,,0,,,78,80
191340,note_on,12,0,9,,,,,,,,7,,,78,80
191376,note_on,96,0,11,,,,,,,,10,,,62,0
191376,note_on,0,0,4,,,,,,,,3,,,45,0
191376,note_on,96,0,12,,,,,,,,11,,,50,0
191376,note_on,96,0,4,,,,,,,,3,,,57,0
191376,note_on,96,0,3,,,,,,,,2,,,50,0
191376,note_on,96,0,13,,,,,,,,12,,,38,0
191388,note_on,48,0,9,,,,,,,,7,,,78,0
191388,note_on,48,0,10,,,,,,,,8,,,66,0
191388,note_on,48,0,1,,,,,,,,0,,,78,0
191388,note_on,48,0,2,,,,,,,,1,,,78,0
191400,note_on,24,0,11,,,,,,,,10,,,67,80
191400,note_on,24,0,12,,,,,,,,11,,,55,80
191400,note_on,24,0,3,,,,,,,,2,,,55,80
191400,note_on,12,0,2,,,,,,,,1,,,78,80
191400,note_on,12,0,1,,,,,,,,0,,,78,80
191400,note_on,168,0,5,,,,,,,,4,,,69,80
191400,note_on,24,0,4,,,,,,,,3,,,45,80
191400,note_on,12,0,9,,,,,,,,7,,,78,80
191400,note_on,24,0,13,,,,,,,,12,,,43,80
191400,note_on,168,0,6,,,,,,,,5,,,45,80
191400,note_on,12,0,10,,,,,,,,8,,,66,80
191400,note_on,0,0,4,,,,,,,,3,,,57,80
191448,note_on,48,0,1,,,,,,,,0,,,78,0
191448,note_on,48,0,9,,,,,,,,7,,,78,0
191448,note_on,48,0,10,,,,,,,,8,,,66,0
191448,note_on,48,0,2,,,,,,,,1,,,78,0
191460,note_on,12,0,10,,,,,,,,8,,,64,80
191460,note_on,12,0,1,,,,,,,,0,,,76,80
191460,note_on,12,0,9,,,,,,,,7,,,76,80
191460,note_on,12,0,2,,,,,,,,1,,,76,80
191496,note_on,96,0,13,,,,,,,,12,,,43,0
191496,note_on,0,0,4,,,,,,,,3,,,45,0
191496,note_on,96,0,4,,,,,,,,3,,,57,0
191496,note_on,96,0,3,,,,,,,,2,,,55,0
191496,note_on,96,0,11,,,,,,,,10,,,67,0
191496,note_on,96,0,12,,,,,,,,11,,,55,0
191508,note_on,48,0,1,,,,,,,,0,,,76,0
191508,note_on,48,0,9,,,,,,,,7,,,76,0
191508,note_on,48,0,2,,,,,,,,1,,,76,0
191508,note_on,48,0,10,,,,,,,,8,,,64,0
191520,note_on,24,0,3,,,,,,,,2,,,55,80
191520,note_on,12,0,1,,,,,,,,0,,,76,80
191520,note_on,12,0,10,,,,,,,,8,,,64,80
191520,note_on,12,0,2,,,,,,,,1,,,76,80
191520,note_on,12,0,9,,,,,,,,7,,,76,80
191520,note_on,24,0,12,,,,,,,,11,,,55,80
191520,note_on,24,0,11,,,,,,,,10,,,67,80
191520,note_on,24,0,4,,,,,,,,3,,,57,80
191520,note_on,0,0,4,,,,,,,,3,,,45,80
191520,note_on,24,0,13,,,,,,,,12,,,43,80
191592,note_on,192,0,6,,,,,,,,5,,,45,0
191592,note_on,192,0,5,,,,,,,,4,,,69,0
191616,note_on,0,0,4,,,,,,,,3,,,57,0
191616,note_on,96,0,1,,,,,,,,0,,,76,0
191616,note_on,96,0,13,,,,,,,,12,,,43,0
191616,note_on,96,0,10,,,,,,,,8,,,64,0
191616,note_on,96,0,3,,,,,,,,2,,,55,0
191616,note_on,96,0,9,,,,,,,,7,,,76,0
191616,note_on,96,0,12,,,,,,,,11,,,55,0
191616,note_on,96,0,4,,,,,,,,3,,,45,0
191616,note_on,96,0,11,,,,,,,,10,,,67,0
191616,note_on,96,0,2,,,,,,,,1,,,76,0
191640,note_on,24,0,10,,,,,,,,8,,,67,80
191640,note_on,24,0,13,,,,,,,,12,,,43,80
191640,note_on,24,0,9,,,,,,,,7,,,79,80
191640,note_on,24,0,3,,,,,,,,2,,,55,80
191640,note_on,24,0,12,,,,,,,,11,,,55,80
191640,note_on,24,0,4,,,,,,,,3,,,45,80
191640,note_on,24,0,11,,,,,,,,10,,,67,80
191640,note_on,24,0,2,,,,,,,,1,,,79,80
191640,note_on,24,0,1,,,,,,,,0,,,79,80
191640,note_on,0,0,4,,,,,,,,3,,,57,80
191688,note_on,48,0,9,,,,,,,,7,,,79,0
191688,note_on,48,0,2,,,,,,,,1,,,79,0
191688,note_on,48,0,10,,,,,,,,8,,,67,0
191688,note_on,48,0,1,,,,,,,,0,,,79,0
191700,note_on,12,0,9,,,,,,,,7,,,76,80
191700,note_on,12,0,2,,,,,,,,1,,,76,80
191700,note_on,12,0,1,,,,,,,,0,,,76,80
191700,note_on,12,0,10,,,,,,,,8,,,64,80
191736,note_on,0,0,4,,,,,,,,3,,,45,0
191736,note_on,96,0,12,,,,,,,,11,,,55,0
191736,note_on,96,0,4,,,,,,,,3,,,57,0
191736,note_on,96,0,3,,,,,,,,2,,,55,0
191736,note_on,96,0,13,,,,,,,,12,,,43,0
191736,note_on,96,0,11,,,,,,,,10,,,67,0
191748,note_on,48,0,1,,,,,,,,0,,,76,0
191748,note_on,48,0,2,,,,,,,,1,,,76,0
191748,note_on,48,0,9,,,,,,,,7,,,76,0
191748,note_on,48,0,10,,,,,,,,8,,,64,0
191760,note_on,24,0,12,,,,,,,,11,,,54,80
191760,note_on,168,0,6,,,,,,,,5,,,50,80
191760,note_on,12,0,2,,,,,,,,1,,,74,80
191760,note_on,24,0,13,,,,,,,,12,,,42,80
191760,note_on,24,0,4,,,,,,,,3,,,50,80
191760,note_on,24,0,11,,,,,,,,10,,,66,80
191760,note_on,168,0,5,,,,,,,,4,,,74,80
191760,note_on,0,0,5,,,,,,,,4,,,62,80
191760,note_on,12,0,9,,,,,,,,7,,,74,80
191760,note_on,24,0,3,,,,,,,,2,,,54,80
191760,note_on,0,0,10,,,,,,,,8,,,62,80
191760,note_on,12,0,10,,,,,,,,8,,,74,80
191760,note_on,12,0,1,,,,,,,,0,,,74,80
191760,note_on,0,0,4,,,,,,,,3,,,62,80
191808,note_on,0,0,10,,,,,,,,8,,,74,0
191808,note_on,48,0,10,,,,,,,,8,,,62,0
191820,note_on,12,0,10,,,,,,,,8,,,74,80
191820,note_on,0,0,10,,,,,,,,8,,,62,80
191856,note_on,96,0,13,,,,,,,,12,,,42,0
191856,note_on,96,0,2,,,,,,,,1,,,74,0
191856,note_on,96,0,3,,,,,,,,2,,,54,0
191856,note_on,96,0,9,,,,,,,,7,,,74,0
191856,note_on,0,0,4,,,,,,,,3,,,50,0
191856,note_on,96,0,4,,,,,,,,3,,,62,0
191856,note_on,96,0,12,,,,,,,,11,,,54,0
191856,note_on,96,0,1,,,,,,,,0,,,74,0
191856,note_on,0,0,5,,,,,,,,4,,,74,0
191856,note_on,96,0,11,,,,,,,,10,,,66,0
191856,note_on,96,0,5,,,,,,,,4,,,62,0
191868,note_on,0,0,10,,,,,,,,8,,,74,0
191868,note_on,48,0,10,,,,,,,,8,,,62,0
191880,note_on,0,0,10,,,,,,,,8,,,74,80
191880,note_on,24,0,5,,,,,,,,4,,,74,80
191880,note_on,24,0,9,,,,,,,,7,,,81,80
191880,note_on,24,0,13,,,,,,,,12,,,42,80
191880,note_on,12,0,10,,,,,,,,8,,,62,80
191880,note_on,0,0,5,,,,,,,,4,,,62,80
191880,note_on,24,0,3,,,,,,,,2,,,54,80
191880,note_on,0,0,4,,,,,,,,3,,,62,80
191880,note_on,24,0,4,,,,,,,,3,,,50,80
191880,note_on,24,0,12,,,,,,,,11,,,54,80
191880,note_on,24,0,2,,,,,,,,1,,,81,80
191880,note_on,24,0,11,,,,,,,,10,,,66,80
191880,note_on,24,0,1,,,,,,,,0,,,81,80
191928,note_on,0,0,10,,,,,,,,8,,,62,0
191928,note_on,48,0,10,,,,,,,,8,,,74,0
191940,note_on,0,0,10,,,,,,,,8,,,74,80
191940,note_on,12,0,10,,,,,,,,8,,,62,80
191952,note_on,192,0,6,,,,,,,,5,,,50,0
191976,note_on,96,0,9,,,,,,,,7,,,81,0
191976,note_on,96,0,3,,,,,,,,2,,,54,0
191976,note_on,96,0,12,,,,,,,,11,,,54,0
191976,note_on,96,0,2,,,,,,,,1,,,81,0
191976,note_on,96,0,13,,,,,,,,12,,,42,0
191976,note_on,0,0,4,,,,,,,,3,,,50,0
191976,note_on,96,0,4,,,,,,,,3,,,62,0
191976,note_on,96,0,11,,,,,,,,10,,,66,0
191976,note_on,96,0,5,,,,,,,,4,,,62,0
191976,note_on,0,0,5,,,,,,,,4,,,74,0
191976,note_on,96,0,1,,,,,,,,0,,,81,0
191988,note_on,48,0,10,,,,,,,,8,,,74,0
191988,note_on,0,0,10,,,,,,,,8,,,62,0
192000,note_on,24,0,12,,,,,,,,11,,,54,80
192000,note_on,24,0,11,,,,,,,,10,,,66,80
192000,note_on,12,0,10,,,,,,,,8,,,74,80
192000,note_on,0,0,10,,,,,,,,8,,,62,80
192000,note_on,24,0,9,,,,,,,,7,,,81,80
192000,note_on,24,0,1,,,,,,,,0,,,81,80
192000,note_on,24,0,4,,,,,,,,3,,,62,80
192000,note_on,0,0,4,,,,,,,,3,,,50,80
192000,note_on,24,0,2,,,,,,,,1,,,81,80
192000,note_on,24,0,13,,,,,,,,12,,,42,80
192000,note_on,24,0,3,,,,,,,,2,,,54,80
192048,note_on,48,0,10,,,,,,,,8,,,62,0
192048,note_on,0,0,10,,,,,,,,8,,,74,0
192060,note_on,12,0,10,,,,,,,,8,,,62,80
192060,note_on,0,0,10,,,,,,,,8,,,74,80
192096,note_on,96,0,2,,,,,,,,1,,,81,0
192096,note_on,96,0,13,,,,,,,,12,,,42,0
192096,note_on,96,0,9,,,,,,,,7,,,81,0
192096,note_on,96,0,3,,,,,,,,2,,,54,0
192096,note_on,96,0,1,,,,,,,,0,,,81,0
192096,note_on,96,0,4,,,,,,,,3,,,50,0
192096,note_on,0,0,4,,,,,,,,3,,,62,0
192096,note_on,96,0,12,,,,,,,,11,,,54,0
192096,note_on,96,0,11,,,,,,,,10,,,66,0
192108,note_on,48,0,10,,,,,,,,8,,,74,0
192108,note_on,0,0,10,,,,,,,,8,,,62,0
192120,note_on,24,0,13,,,,,,,,12,,,43,80
192120,note_on,24,0,11,,,,,,,,10,,,67,80
192120,note_on,0,0,10,,,,,,,,8,,,62,80
192120,note_on,12,0,10,,,,,,,,8,,,74,80
192120,note_on,24,0,9,,,,,,,,7,,,83,80
192120,note_on,24,0,3,,,,,,,,2,,,55,80
192120,note_on,24,0,4,,,,,,,,3,,,50,80
192120,note_on,0,0,4,,,,,,,,3,,,62,80
192120,note_on,0,0,5,,,,,,,,4,,,62,80
192120,note_on,24,0,12,,,,,,,,11,,,55,80
192120,note_on,24,0,2,,,,,,,,1,,,83,80
192120,note_on,144,0,5,,,,,,,,4,,,74,80
192120,note_on,24,0,1,,,,,,,,0,,,83,80
192120,note_on,168,0,6,,,,,,,,5,,,50,80
192168,note_on,0,0,10,,,,,,,,8,,,74,0
192168,note_on,48,0,10,,,,,,,,8,,,62,0
192180,note_on,0,0,10,,,,,,,,8,,,74,80
192180,note_on,12,0,10,,,,,,,,8,,,62,80
192216,note_on,96,0,12,,,,,,,,11,,,55,0
192216,note_on,96,0,13,,,,,,,,12,,,43,0
192216,note_on,96,0,3,,,,,,,,2,,,55,0
192216,note_on,96,0,11,,,,,,,,10,,,67,0
192216,note_on,0,0,4,,,,,,,,3,,,50,0
192216,note_on,96,0,2,,,,,,,,1,,,83,0
192216,note_on,0,0,5,,,,,,,,4,,,74,0
192216,note_on,96,0,4,,,,,,,,3,,,62,0
192216,note_on,96,0,1,,,,,,,,0,,,83,0
192216,note_on,96,0,5,,,,,,,,4,,,62,0
192216,note_on,96,0,9,,,,,,,,7,,,83,0
192228,note_on,0,0,10,,,,,,,,8,,,62,0
192228,note_on,48,0,10,,,,,,,,8,,,74,0
192240,note_on,0,0,4,,,,,,,,3,,,62,80
192240,note_on,0,0,10,,,,,,,,8,,,62,80
192240,note_on,12,0,10,,,,,,,,8,,,74,80
192240,note_on,24,0,1,,,,,,,,0,,,86,80
192240,note_on,24,0,11,,,,,,,,10,,,71,80
192240,note_on,24,0,4,,,,,,,,3,,,50,80
192240,note_on,24,0,3,,,,,,,,2,,,55,80
192240,note_on,24,0,5,,,,,,,,4,,,74,80
192240,note_on,24,0,13,,,,,,,,12,,,43,80
192240,note_on,0,0,5,,,,,,,,4,,,62,80
192240,note_on,24,0,9,,,,,,,,7,,,86,80
192240,note_on,24,0,12,,,,,,,,11,,,55,80
192240,note_on,24,0,2,,,,,,,,1,,,86,80
192288,note_on,48,0,10,,,,,,,,8,,,62,0
192288,note_on,0,0,10,,,,,,,,8,,,74,0
192300,note_on,12,0,10,,,,,,,,8,,,74,80
192300,note_on,0,0,10,,,,,,,,8,,,62,80
192312,note_on,192,0,6,,,,,,,,5,,,50,0
192336,note_on,96,0,9,,,,,,,,7,,,86,0
192336,note_on,96,0,13,,,,,,,,12,,,43,0
192336,note_on,96,0,12,,,,,,,,11,,,55,0
192336,note_on,96,0,1,,,,,,,,0,,,86,0
192336,note_on,96,0,4,,,,,,,,3,,,62,0
192336,note_on,0,0,4,,,,,,,,3,,,50,0
192336,note_on,96,0,5,,,,,,,,4,,,62,0
192336,note_on,0,0,5,,,,,,,,4,,,74,0
192336,note_on,96,0,2,,,,,,,,1,,,86,0
192336,note_on,96,0,3,,,,,,,,2,,,55,0
192336,note_on,96,0,11,,,,,,,,10,,,71,0
192348,note_on,48,0,10,,,,,,,,8,,,62,0
192348,note_on,0,0,10,,,,,,,,8,,,74,0
192360,note_on,24,0,4,,,,,,,,3,,,62,80
192360,note_on,0,0,4,,,,,,,,3,,,50,80
192360,note_on,24,0,1,,,,,,,,0,,,86,80
192360,note_on,24,0,11,,,,,,,,10,,,71,80
192360,note_on,12,0,10,,,,,,,,8,,,62,80
192360,note_on,24,0,9,,,,,,,,7,,,86,80
192360,note_on,24,0,2,,,,,,,,1,,,86,80
192360,note_on,24,0,13,,,,,,,,12,,,43,80
192360,note_on,24,0,3,,,,,,,,2,,,55,80
192360,note_on,24,0,12,,,,,,,,11,,,55,80
192360,note_on,0,0,10,,,,,,,,8,,,74,80
192408,note_on,0,0,10,,,,,,,,8,,,62,0
192408,note_on,48,0,10,,,,,,,,8,,,74,0
192420,note_on,0,0,10,,,,,,,,8,,,74,80
192420,note_on,12,0,10,,,,,,,,8,,,62,80
192456,note_on,96,0,12,,,,,,,,11,,,55,0
192456,note_on,96,0,13,,,,,,,,12,,,43,0
192456,note_on,96,0,11,,,,,,,,10,,,71,0
192456,note_on,96,0,1,,,,,,,,0,,,86,0
192456,note_on,96,0,3,,,,,,,,2,,,55,0
192456,note_on,0,0,4,,,,,,,,3,,,62,0
192456,note_on,96,0,4,,,,,,,,3,,,50,0
192456,note_on,96,0,2,,,,,,,,1,,,86,0
192456,note_on,96,0,9,,,,,,,,7,,,86,0
192468,note_on,0,0,10,,,,,,,,8,,,62,0
192468,note_on,48,0,10,,,,,,,,8,,,74,0
192480,note_on,24,0,13,,,,,,,,12,,,45,80
192480,note_on,24,0,11,,,,,,,,10,,,69,80
192480,note_on,0,0,4,,,,,,,,3,,,66,80
192480,note_on,24,0,4,,,,,,,,3,,,62,80
192480,note_on,144,0,5,,,,,,,,4,,,69,80
192480,note_on,24,0,1,,,,,,,,0,,,78,80
192480,note_on,168,0,6,,,,,,,,5,,,45,80
192480,note_on,24,0,2,,,,,,,,1,,,78,80
192480,note_on,24,0,12,,,,,,,,11,,,57,80
192480,note_on,24,0,9,,,,,,,,7,,,78,80
192480,note_on,0,0,2,,,,,,,,1,,,74,80
192480,note_on,24,0,3,,,,,,,,2,,,57,80
192480,note_on,12,0,10,,,,,,,,8,,,74,80
192576,note_on,96,0,11,,,,,,,,10,,,69,0
192576,note_on,96,0,12,,,,,,,,11,,,57,0
192576,note_on,96,0,13,,,,,,,,12,,,45,0
192576,note_on,96,0,6,,,,,,,,5,,,45,0
192576,note_on,96,0,3,,,,,,,,2,,,57,0
192576,note_on,96,0,5,,,,,,,,4,,,69,0
192600,note_on,24,0,3,,,,,,,,2,,,57,80
192600,note_on,24,0,11,,,,,,,,10,,,69,80
192600,note_on,24,0,5,,,,,,,,4,,,69,80
192600,note_on,24,0,12,,,,,,,,11,,,57,80
192600,note_on,24,0,13,,,,,,,,12,,,45,80
192600,note_on,24,0,6,,,,,,,,5,,,45,80
192672,note_on,192,0,4,,,,,,,,3,,,66,0
192672,note_on,0,0,4,,,,,,,,3,,,62,0
192672,note_on,192,0,10,,,,,,,,8,,,74,0
192672,note_on,192,0,1,,,,,,,,0,,,78,0
192672,note_on,192,0,9,,,,,,,,7,,,78,0
192672,note_on,192,0,2,,,,,,,,1,,,74,0
192672,note_on,0,0,2,,,,,,,,1,,,78,0
192696,note_on,96,0,3,,,,,,,,2,,,57,0
192696,note_on,96,0,12,,,,,,,,11,,,57,0
192696,note_on,96,0,6,,,,,,,,5,,,45,0
192696,note_on,96,0,13,,,,,,,,12,,,45,0
192696,note_on,96,0,5,,,,,,,,4,,,69,0
192696,note_on,96,0,11,,,,,,,,10,,,69,0
192720,note_on,24,0,5,,,,,,,,4,,,69,80
192720,note_on,48,0,1,,,,,,,,0,,,79,80
192720,note_on,24,0,3,,,,,,,,2,,,57,80
192720,note_on,48,0,10,,,,,,,,8,,,76,80
192720,note_on,48,0,4,,,,,,,,3,,,57,80
192720,note_on,24,0,11,,,,,,,,10,,,69,80
192720,note_on,48,0,2,,,,,,,,1,,,79,80
192720,note_on,24,0,13,,,,,,,,12,,,45,80
192720,note_on,0,0,4,,,,,,,,3,,,64,80
192720,note_on,24,0,12,,,,,,,,11,,,57,80
192720,note_on,48,0,9,,,,,,,,7,,,79,80
192720,note_on,0,0,2,,,,,,,,1,,,76,80
192720,note_on,24,0,6,,,,,,,,5,,,45,80
192768,note_on,48,0,2,,,,,,,,1,,,76,0
192768,note_on,0,0,2,,,,,,,,1,,,79,0
192768,note_on,48,0,10,,,,,,,,8,,,76,0
192768,note_on,48,0,9,,,,,,,,7,,,79,0
192768,note_on,48,0,1,,,,,,,,0,,,79,0
192780,note_on,0,0,2,,,,,,,,1,,,73,80
192780,note_on,12,0,2,,,,,,,,1,,,76,80
192780,note_on,12,0,10,,,,,,,,8,,,73,80
192780,note_on,12,0,9,,,,,,,,7,,,76,80
192780,note_on,12,0,1,,,,,,,,0,,,76,80
192816,note_on,96,0,3,,,,,,,,2,,,57,0
192816,note_on,96,0,12,,,,,,,,11,,,57,0
192816,note_on,0,0,4,,,,,,,,3,,,57,0
192816,note_on,96,0,4,,,,,,,,3,,,64,0
192816,note_on,96,0,11,,,,,,,,10,,,69,0
192816,note_on,96,0,5,,,,,,,,4,,,69,0
192816,note_on,96,0,6,,,,,,,,5,,,45,0
192816,note_on,96,0,13,,,,,,,,12,,,45,0
192828,note_on,48,0,2,,,,,,,,1,,,73,0
192828,note_on,48,0,1,,,,,,,,0,,,76,0
192828,note_on,48,0,10,,,,,,,,8,,,73,0
192828,note_on,48,0,9,,,,,,,,7,,,76,0
192828,note_on,0,0,2,,,,,,,,1,,,76,0
192840,note_on,24,0,12,,,,,,,,11,,,50,80
192840,note_on,0,0,4,,,,,,,,3,,,50,80
192840,note_on,24,0,13,,,,,,,,12,,,38,80
192840,note_on,0,0,5,,,,,,,,4,,,69,80
192840,note_on,24,0,11,,,,,,,,10,,,66,80
192840,note_on,12,0,2,,,,,,,,1,,,74,80
192840,note_on,12,0,1,,,,,,,,0,,,74,80
192840,note_on,12,0,10,,,,,,,,8,,,74,80
192840,note_on,24,0,5,,,,,,,,4,,,66,80
192840,note_on,24,0,4,,,,,,,,3,,,62,80
192840,note_on,24,0,6,,,,,,,,5,,,50,80
192840,note_on,24,0,3,,,,,,,,2,,,50,80
192840,note_on,12,0,9,,,,,,,,7,,,74,80
192840,note_on,2544,0,8,,,,,,,,6,,,62,80
192888,note_on,48,0,8,,,,,,,,6,,,62,0
192900,note_on,12,0,8,,,,,,,,6,,,61,80
192936,note_on,0,0,4,,,,,,,,3,,,62,0
192936,note_on,96,0,4,,,,,,,,3,,,50,0
192948,note_on,48,0,8,,,,,,,,6,,,61,0
192960,note_on,12,0,8,,,,,,,,6,,,62,80
192960,note_on,0,0,4,,,,,,,,3,,,66,80
192960,note_on,24,0,4,,,,,,,,3,,,54,80
193008,note_on,48,0,8,,,,,,,,6,,,62,0
193020,note_on,12,0,8,,,,,,,,6,,,64,80
193032,note_on,192,0,13,,,,,,,,12,,,38,0
193032,note_on,0,0,5,,,,,,,,4,,,66,0
193032,note_on,192,0,5,,,,,,,,4,,,69,0
193032,note_on,192,0,1,,,,,,,,0,,,74,0
193032,note_on,192,0,3,,,,,,,,2,,,50,0
193032,note_on,192,0,10,,,,,,,,8,,,74,0
193032,note_on,192,0,11,,,,,,,,10,,,66,0
193032,note_on,192,0,12,,,,,,,,11,,,50,0
193032,note_on,192,0,2,,,,,,,,1,,,74,0
193032,note_on,192,0,9,,,,,,,,7,,,74,0
193032,note_on,192,0,6,,,,,,,,5,,,50,0
193056,note_on,96,0,4,,,,,,,,3,,,66,0
193056,note_on,0,0,4,,,,,,,,3,,,54,0
193068,note_on,48,0,8,,,,,,,,6,,,64,0
193080,note_on,12,0,8,,,,,,,,6,,,66,80
193080,note_on,24,0,4,,,,,,,,3,,,62,80
193080,note_on,0,0,4,,,,,,,,3,,,50,80
193128,note_on,48,0,8,,,,,,,,6,,,66,0
193140,note_on,12,0,8,,,,,,,,6,,,62,80
193176,note_on,0,0,4,,,,,,,,3,,,62,0
193176,note_on,96,0,4,,,,,,,,3,,,50,0
193188,note_on,48,0,8,,,,,,,,6,,,62,0
193200,note_on,24,0,4,,,,,,,,3,,,45,80
193200,note_on,12,0,8,,,,,,,,6,,,57,80
193200,note_on,3048,0,7,,,,,,,,6,,,79,80
193200,note_on,0,0,4,,,,,,,,3,,,57,80
193248,note_on,48,0,8,,,,,,,,6,,,57,0
193260,note_on,12,0,8,,,,,,,,6,,,69,80
193308,note_on,48,0,8,,,,,,,,6,,,69,0
193320,note_on,12,0,8,,,,,,,,6,,,61,80
193368,note_on,48,0,8,,,,,,,,6,,,61,0
193380,note_on,12,0,8,,,,,,,,6,,,69,80
193428,note_on,48,0,8,,,,,,,,6,,,69,0
193440,note_on,12,0,8,,,,,,,,6,,,62,80
193488,note_on,48,0,8,,,,,,,,6,,,62,0
193500,note_on,12,0,8,,,,,,,,6,,,69,80
193548,note_on,48,0,8,,,,,,,,6,,,69,0
193560,note_on,12,0,8,,,,,,,,6,,,64,80
193608,note_on,48,0,8,,,,,,,,6,,,64,0
193620,note_on,12,0,8,,,,,,,,6,,,69,80
193656,note_on,456,0,7,,,,,,,,6,,,79,0
193668,note_on,48,0,8,,,,,,,,6,,,69,0
193680,note_on,24,0,7,,,,,,,,6,,,78,80
193680,note_on,12,0,8,,,,,,,,6,,,66,80
193728,note_on,48,0,7,,,,,,,,6,,,78,0
193728,note_on,48,0,8,,,,,,,,6,,,66,0
193740,note_on,12,0,8,,,,,,,,6,,,69,80
193740,note_on,12,0,7,,,,,,,,6,,,76,80
193788,note_on,48,0,8,,,,,,,,6,,,69,0
193788,note_on,48,0,7,,,,,,,,6,,,76,0
193800,note_on,12,0,8,,,,,,,,6,,,67,80
193800,note_on,12,0,7,,,,,,,,6,,,74,80
193848,note_on,48,0,7,,,,,,,,6,,,74,0
193848,note_on,48,0,8,,,,,,,,6,,,67,0
193860,note_on,12,0,8,,,,,,,,6,,,69,80
193860,note_on,12,0,7,,,,,,,,6,,,73,80
193908,note_on,48,0,8,,,,,,,,6,,,69,0
193908,note_on,48,0,7,,,,,,,,6,,,73,0
193920,note_on,12,0,8,,,,,,,,6,,,66,80
193920,note_on,12,0,7,,,,,,,,6,,,74,80
193968,note_on,48,0,8,,,,,,,,6,,,66,0
193980,note_on,12,0,8,,,,,,,,6,,,69,80
194016,note_on,96,0,7,,,,,,,,6,,,74,0
194028,note_on,48,0,8,,,,,,,,6,,,69,0
194040,note_on,24,0,7,,,,,,,,6,,,78,80
194040,note_on,12,0,8,,,,,,,,6,,,62,80
194088,note_on,48,0,8,,,,,,,,6,,,62,0
194100,note_on,12,0,8,,,,,,,,6,,,69,80
194136,note_on,96,0,7,,,,,,,,6,,,78,0
194148,note_on,48,0,8,,,,,,,,6,,,69,0
194160,note_on,12,0,8,,,,,,,,6,,,66,80
194160,note_on,24,0,7,,,,,,,,6,,,81,80
194208,note_on,48,0,8,,,,,,,,6,,,66,0
194220,note_on,12,0,8,,,,,,,,6,,,69,80
194256,note_on,96,0,7,,,,,,,,6,,,81,0
194268,note_on,48,0,8,,,,,,,,6,,,69,0
194280,note_on,12,0,8,,,,,,,,6,,,62,80
194280,note_on,24,0,7,,,,,,,,6,,,81,80
194328,note_on,48,0,8,,,,,,,,6,,,62,0
194340,note_on,12,0,8,,,,,,,,6,,,69,80
194376,note_on,96,0,7,,,,,,,,6,,,81,0
194388,note_on,48,0,8,,,,,,,,6,,,69,0
194400,note_on,24,0,7,,,,,,,,6,,,81,80
194400,note_on,12,0,8,,,,,,,,6,,,66,80
194448,note_on,48,0,8,,,,,,,,6,,,66,0
194460,note_on,12,0,8,,,,,,,,6,,,69,80
194496,note_on,96,0,7,,,,,,,,6,,,81,0
194508,note_on,48,0,8,,,,,,,,6,,,69,0
194520,note_on,24,0,7,,,,,,,,6,,,86,80
194520,note_on,12,0,8,,,,,,,,6,,,62,80
194568,note_on,48,0,8,,,,,,,,6,,,62,0
194580,note_on,12,0,8,,,,,,,,6,,,69,80
194616,note_on,96,0,7,,,,,,,,6,,,86,0
194628,note_on,48,0,8,,,,,,,,6,,,69,0
194640,note_on,24,0,7,,,,,,,,6,,,86,80
194640,note_on,12,0,8,,,,,,,,6,,,64,80
194688,note_on,48,0,8,,,,,,,,6,,,64,0
194700,note_on,12,0,8,,,,,,,,6,,,69,80
194736,note_on,96,0,7,,,,,,,,6,,,86,0
194748,note_on,48,0,8,,,,,,,,6,,,69,0
194760,note_on,24,0,7,,,,,,,,6,,,85,80
194760,note_on,12,0,8,,,,,,,,6,,,67,80
194808,note_on,48,0,8,,,,,,,,6,,,67,0
194820,note_on,12,0,8,,,,,,,,6,,,69,80
194868,note_on,48,0,8,,,,,,,,6,,,69,0
194880,note_on,12,0,8,,,,,,,,6,,,64,80
194928,note_on,48,0,8,,,,,,,,6,,,64,0
194940,note_on,12,0,8,,,,,,,,6,,,69,80
194988,note_on,48,0,8,,,,,,,,6,,,69,0
195000,note_on,12,0,8,,,,,,,,6,,,67,80
195048,note_on,48,0,8,,,,,,,,6,,,67,0
195060,note_on,12,0,8,,,,,,,,6,,,69,80
195096,note_on,336,0,7,,,,,,,,6,,,85,0
195108,note_on,48,0,8,,,,,,,,6,,,69,0
195120,note_on,24,0,7,,,,,,,,6,,,83,80
195120,note_on,12,0,8,,,,,,,,6,,,64,80
195168,note_on,48,0,8,,,,,,,,6,,,64,0
195168,note_on,48,0,7,,,,,,,,6,,,83,0
195180,note_on,12,0,8,,,,,,,,6,,,69,80
195180,note_on,12,0,7,,,,,,,,6,,,81,80
195228,note_on,48,0,7,,,,,,,,6,,,81,0
195228,note_on,48,0,8,,,,,,,,6,,,69,0
195240,note_on,12,0,7,,,,,,,,6,,,83,80
195240,note_on,12,0,8,,,,,,,,6,,,67,80
195288,note_on,48,0,7,,,,,,,,6,,,83,0
195288,note_on,48,0,8,,,,,,,,6,,,67,0
195300,note_on,12,0,8,,,,,,,,6,,,69,80
195300,note_on,12,0,7,,,,,,,,6,,,85,80
195348,note_on,48,0,8,,,,,,,,6,,,69,0
195348,note_on,48,0,7,,,,,,,,6,,,85,0
195360,note_on,12,0,8,,,,,,,,6,,,66,80
195360,note_on,12,0,7,,,,,,,,6,,,86,80
195408,note_on,48,0,8,,,,,,,,6,,,66,0
195420,note_on,12,0,8,,,,,,,,6,,,69,80
195468,note_on,48,0,8,,,,,,,,6,,,69,0
195480,note_on,2448,0,9,,,,,,,,7,,,81,80
195480,note_on,12,0,8,,,,,,,,6,,,68,80
195480,note_on,2448,0,10,,,,,,,,8,,,69,80
195528,note_on,48,0,8,,,,,,,,6,,,68,0
195540,note_on,12,0,8,,,,,,,,6,,,69,80
195576,note_on,96,0,10,,,,,,,,8,,,69,0
195576,note_on,96,0,9,,,,,,,,7,,,81,0
195588,note_on,48,0,8,,,,,,,,6,,,69,0
195600,note_on,24,0,10,,,,,,,,8,,,67,80
195600,note_on,24,0,9,,,,,,,,7,,,79,80
195600,note_on,12,0,8,,,,,,,,6,,,67,80
195648,note_on,48,0,8,,,,,,,,6,,,67,0
195648,note_on,288,0,7,,,,,,,,6,,,86,0
195660,note_on,12,0,8,,,,,,,,6,,,69,80
195696,note_on,96,0,10,,,,,,,,8,,,67,0
195696,note_on,96,0,9,,,,,,,,7,,,79,0
195708,note_on,48,0,8,,,,,,,,6,,,69,0
195720,note_on,12,0,8,,,,,,,,6,,,66,80
195720,note_on,72,0,7,,,,,,,,6,,,81,80
195720,note_on,24,0,10,,,,,,,,8,,,66,80
195720,note_on,24,0,9,,,,,,,,7,,,78,80
195768,note_on,48,0,8,,,,,,,,6,,,66,0
195780,note_on,12,0,8,,,,,,,,6,,,69,80
195816,note_on,96,0,7,,,,,,,,6,,,81,0
195816,note_on,96,0,10,,,,,,,,8,,,66,0
195816,note_on,96,0,9,,,,,,,,7,,,78,0
195828,note_on,48,0,8,,,,,,,,6,,,69,0
195840,note_on,24,0,9,,,,,,,,7,,,76,80
195840,note_on,24,0,10,,,,,,,,8,,,64,80
195840,note_on,12,0,8,,,,,,,,6,,,64,80
195888,note_on,48,0,8,,,,,,,,6,,,64,0
195900,note_on,12,0,8,,,,,,,,6,,,69,80
195936,note_on,96,0,10,,,,,,,,8,,,64,0
195936,note_on,96,0,9,,,,,,,,7,,,76,0
195948,note_on,48,0,8,,,,,,,,6,,,69,0
195960,note_on,12,0,8,,,,,,,,6,,,62,80
195960,note_on,24,0,9,,,,,,,,7,,,74,80
195960,note_on,24,0,10,,,,,,,,8,,,62,80
196008,note_on,48,0,8,,,,,,,,6,,,62,0
196020,note_on,12,0,8,,,,,,,,6,,,69,80
196056,note_on,96,0,9,,,,,,,,7,,,74,0
196056,note_on,96,0,10,,,,,,,,8,,,62,0
196068,note_on,48,0,8,,,,,,,,6,,,69,0
196080,note_on,24,0,10,,,,,,,,8,,,57,80
196080,note_on,12,0,8,,,,,,,,6,,,57,80
196080,note_on,3048,0,1,,,,,,,,0,,,81,80
196080,note_on,3048,0,3,,,,,,,,2,,,57,80
196080,note_on,0,0,2,,,,,,,,1,,,81,80
196080,note_on,24,0,9,,,,,,,,7,,,69,80
196080,note_on,3048,0,2,,,,,,,,1,,,69,80
196080,note_on,264,0,7,,,,,,,,6,,,79,80
196128,note_on,48,0,8,,,,,,,,6,,,57,0
196140,note_on,12,0,8,,,,,,,,6,,,69,80
196176,note_on,0,0,4,,,,,,,,3,,,45,0
196176,note_on,96,0,10,,,,,,,,8,,,57,0
196176,note_on,2976,0,4,,,,,,,,3,,,57,0
196176,note_on,96,0,9,,,,,,,,7,,,69,0
196188,note_on,48,0,8,,,,,,,,6,,,69,0
196200,note_on,12,0,8,,,,,,,,6,,,61,80
196248,note_on,48,0,8,,,,,,,,6,,,61,0
196260,note_on,12,0,8,,,,,,,,6,,,69,80
196308,note_on,48,0,8,,,,,,,,6,,,69,0
196320,note_on,12,0,8,,,,,,,,6,,,62,80
196368,note_on,48,0,8,,,,,,,,6,,,62,0
196380,note_on,12,0,8,,,,,,,,6,,,69,80
196428,note_on,48,0,8,,,,,,,,6,,,69,0
196440,note_on,12,0,8,,,,,,,,6,,,64,80
196488,note_on,48,0,8,,,,,,,,6,,,64,0
196500,note_on,12,0,8,,,,,,,,6,,,69,80
196536,note_on,456,0,7,,,,,,,,6,,,79,0
196548,note_on,48,0,8,,,,,,,,6,,,69,0
196560,note_on,24,0,7,,,,,,,,6,,,78,80
196560,note_on,12,0,8,,,,,,,,6,,,66,80
196608,note_on,48,0,8,,,,,,,,6,,,66,0
196608,note_on,48,0,7,,,,,,,,6,,,78,0
196620,note_on,12,0,8,,,,,,,,6,,,69,80
196620,note_on,12,0,7,,,,,,,,6,,,76,80
196668,note_on,48,0,8,,,,,,,,6,,,69,0
196668,note_on,48,0,7,,,,,,,,6,,,76,0
196680,note_on,12,0,8,,,,,,,,6,,,67,80
196680,note_on,12,0,7,,,,,,,,6,,,74,80
196728,note_on,48,0,8,,,,,,,,6,,,67,0
196728,note_on,48,0,7,,,,,,,,6,,,74,0
196740,note_on,12,0,8,,,,,,,,6,,,69,80
196740,note_on,12,0,7,,,,,,,,6,,,73,80
196788,note_on,48,0,7,,,,,,,,6,,,73,0
196788,note_on,48,0,8,,,,,,,,6,,,69,0
196800,note_on,12,0,7,,,,,,,,6,,,74,80
196800,note_on,12,0,8,,,,,,,,6,,,66,80
196848,note_on,48,0,8,,,,,,,,6,,,66,0
196860,note_on,12,0,8,,,,,,,,6,,,69,80
196896,note_on,96,0,7,,,,,,,,6,,,74,0
196908,note_on,48,0,8,,,,,,,,6,,,69,0
196920,note_on,12,0,8,,,,,,,,6,,,62,80
196920,note_on,24,0,7,,,,,,,,6,,,78,80
196968,note_on,48,0,8,,,,,,,,6,,,62,0
196980,note_on,12,0,8,,,,,,,,6,,,69,80
197016,note_on,96,0,7,,,,,,,,6,,,78,0
197028,note_on,48,0,8,,,,,,,,6,,,69,0
197040,note_on,24,0,7,,,,,,,,6,,,81,80
197040,note_on,12,0,8,,,,,,,,6,,,66,80
197088,note_on,48,0,8,,,,,,,,6,,,66,0
197100,note_on,12,0,8,,,,,,,,6,,,69,80
197136,note_on,96,0,7,,,,,,,,6,,,81,0
197148,note_on,48,0,8,,,,,,,,6,,,69,0
197160,note_on,24,0,7,,,,,,,,6,,,81,80
197160,note_on,12,0,8,,,,,,,,6,,,62,80
197208,note_on,48,0,8,,,,,,,,6,,,62,0
197220,note_on,12,0,8,,,,,,,,6,,,69,80
197256,note_on,96,0,7,,,,,,,,6,,,81,0
197268,note_on,48,0,8,,,,,,,,6,,,69,0
197280,note_on,12,0,8,,,,,,,,6,,,66,80
197280,note_on,24,0,7,,,,,,,,6,,,86,80
197328,note_on,48,0,8,,,,,,,,6,,,66,0
197340,note_on,12,0,8,,,,,,,,6,,,69,80
197376,note_on,96,0,7,,,,,,,,6,,,86,0
197388,note_on,48,0,8,,,,,,,,6,,,69,0
197400,note_on,24,0,7,,,,,,,,6,,,81,80
197400,note_on,12,0,8,,,,,,,,6,,,62,80
197448,note_on,48,0,8,,,,,,,,6,,,62,0
197460,note_on,12,0,8,,,,,,,,6,,,69,80
197496,note_on,96,0,7,,,,,,,,6,,,81,0
197508,note_on,48,0,8,,,,,,,,6,,,69,0
197520,note_on,12,0,8,,,,,,,,6,,,64,80
197520,note_on,24,0,7,,,,,,,,6,,,81,80
197568,note_on,48,0,8,,,,,,,,6,,,64,0
197580,note_on,12,0,8,,,,,,,,6,,,69,80
197628,note_on,48,0,8,,,,,,,,6,,,69,0
197640,note_on,12,0,8,,,,,,,,6,,,67,80
197688,note_on,48,0,8,,,,,,,,6,,,67,0
197700,note_on,12,0,8,,,,,,,,6,,,69,80
197748,note_on,48,0,8,,,,,,,,6,,,69,0
197760,note_on,12,0,8,,,,,,,,6,,,64,80
197808,note_on,1728,0,1,,,,,,,,0,,,81,0
197808,note_on,0,0,2,,,,,,,,1,,,69,0
197808,note_on,1728,0,2,,,,,,,,1,,,81,0
197808,note_on,1728,0,3,,,,,,,,2,,,57,0
197808,note_on,48,0,8,,,,,,,,6,,,64,0
197820,note_on,12,0,8,,,,,,,,6,,,69,80
197868,note_on,48,0,8,,,,,,,,6,,,69,0
197880,note_on,72,0,1,,,,,,,,0,,,85,80
197880,note_on,72,0,3,,,,,,,,2,,,45,80
197880,note_on,72,0,2,,,,,,,,1,,,73,80
197880,note_on,12,0,8,,,,,,,,6,,,67,80
197880,note_on,0,0,2,,,,,,,,1,,,79,80
197880,note_on,0,0,4,,,,,,,,3,,,64,80
197880,note_on,1704,0,4,,,,,,,,3,,,57,80
197928,note_on,48,0,8,,,,,,,,6,,,67,0
197940,note_on,12,0,8,,,,,,,,6,,,69,80
197976,note_on,456,0,7,,,,,,,,6,,,81,0
197988,note_on,48,0,8,,,,,,,,6,,,69,0
198000,note_on,12,0,8,,,,,,,,6,,,64,80
198000,note_on,24,0,7,,,,,,,,6,,,79,80
198048,note_on,48,0,8,,,,,,,,6,,,64,0
198060,note_on,12,0,8,,,,,,,,6,,,69,80
198096,note_on,96,0,7,,,,,,,,6,,,79,0
198108,note_on,48,0,8,,,,,,,,6,,,69,0
198120,note_on,12,0,8,,,,,,,,6,,,67,80
198120,note_on,24,0,7,,,,,,,,6,,,76,80
198168,note_on,0,0,2,,,,,,,,1,,,73,0
198168,note_on,288,0,2,,,,,,,,1,,,79,0
198168,note_on,288,0,1,,,,,,,,0,,,85,0
198168,note_on,288,0,4,,,,,,,,3,,,64,0
198168,note_on,0,0,4,,,,,,,,3,,,57,0
198168,note_on,288,0,3,,,,,,,,2,,,45,0
198168,note_on,48,0,8,,,,,,,,6,,,67,0
198180,note_on,12,0,8,,,,,,,,6,,,69,80
198216,note_on,96,0,7,,,,,,,,6,,,76,0
198228,note_on,48,0,8,,,,,,,,6,,,69,0
198240,note_on,0,0,4,,,,,,,,3,,,54,80
198240,note_on,72,0,1,,,,,,,,0,,,86,80
198240,note_on,12,0,8,,,,,,,,6,,,66,80
198240,note_on,72,0,2,,,,,,,,1,,,78,80
198240,note_on,0,0,2,,,,,,,,1,,,74,80
198240,note_on,72,0,4,,,,,,,,3,,,62,80
198240,note_on,72,0,3,,,,,,,,2,,,50,80
198240,note_on,5208,0,11,,,,,,,,10,,,74,80
198240,note_on,24,0,7,,,,,,,,6,,,74,80
198240,note_on,2064,0,10,,,,,,,,8,,,78,80
198336,note_on,96,0,3,,,,,,,,2,,,50,0
198336,note_on,0,0,2,,,,,,,,1,,,78,0
198336,note_on,96,0,10,,,,,,,,8,,,78,0
198336,note_on,96,0,2,,,,,,,,1,,,74,0
198336,note_on,96,0,11,,,,,,,,10,,,74,0
198336,note_on,0,0,4,,,,,,,,3,,,62,0
198336,note_on,96,0,4,,,,,,,,3,,,54,0
198336,note_on,96,0,1,,,,,,,,0,,,86,0
198360,note_on,24,0,11,,,,,,,,10,,,74,80
198360,note_on,24,0,10,,,,,,,,8,,,78,80
198432,note_on,192,0,8,,,,,,,,6,,,66,0
198432,note_on,192,0,7,,,,,,,,6,,,74,0
198456,note_on,96,0,10,,,,,,,,8,,,78,0
198456,note_on,96,0,11,,,,,,,,10,,,74,0
198480,note_on,24,0,10,,,,,,,,8,,,78,80
198480,note_on,24,0,11,,,,,,,,10,,,74,80
198576,note_on,96,0,10,,,,,,,,8,,,78,0
198576,note_on,96,0,11,,,,,,,,10,,,74,0
198600,note_on,24,0,10,,,,,,,,8,,,78,80
198600,note_on,2424,0,9,,,,,,,,7,,,81,80
198600,note_on,24,0,11,,,,,,,,10,,,74,80
198696,note_on,96,0,10,,,,,,,,8,,,78,0
198696,note_on,96,0,11,,,,,,,,10,,,74,0
198720,note_on,24,0,10,,,,,,,,8,,,78,80
198720,note_on,24,0,11,,,,,,,,10,,,74,80
198792,note_on,192,0,9,,,,,,,,7,,,81,0
198816,note_on,96,0,11,,,,,,,,10,,,74,0
198816,note_on,96,0,10,,,,,,,,8,,,78,0
198840,note_on,48,0,9,,,,,,,,7,,,86,80
198840,note_on,24,0,10,,,,,,,,8,,,78,80
198840,note_on,24,0,11,,,,,,,,10,,,74,80
198936,note_on,96,0,10,,,,,,,,8,,,78,0
198936,note_on,96,0,11,,,,,,,,10,,,74,0
198936,note_on,96,0,9,,,,,,,,7,,,86,0
198960,note_on,24,0,9,,,,,,,,7,,,85,80
198960,note_on,24,0,10,,,,,,,,8,,,81,80
198960,note_on,24,0,11,,,,,,,,10,,,76,80
199056,note_on,96,0,9,,,,,,,,7,,,85,0
199056,note_on,96,0,10,,,,,,,,8,,,81,0
199056,note_on,96,0,11,,,,,,,,10,,,76,0
199080,note_on,24,0,11,,,,,,,,10,,,76,80
199080,note_on,24,0,10,,,,,,,,8,,,81,80
199080,note_on,24,0,9,,,,,,,,7,,,85,80
199176,note_on,96,0,10,,,,,,,,8,,,81,0
199176,note_on,96,0,9,,,,,,,,7,,,85,0
199176,note_on,96,0,11,,,,,,,,10,,,76,0
199200,note_on,24,0,10,,,,,,,,8,,,81,80
199200,note_on,24,0,9,,,,,,,,7,,,85,80
199200,note_on,24,0,11,,,,,,,,10,,,76,80
199248,note_on,48,0,9,,,,,,,,7,,,85,0
199260,note_on,12,0,9,,,,,,,,7,,,86,80
199296,note_on,96,0,10,,,,,,,,8,,,81,0
199296,note_on,96,0,11,,,,,,,,10,,,76,0
199308,note_on,48,0,9,,,,,,,,7,,,86,0
199320,note_on,0,0,11,,,,,,,,10,,,74,80
199320,note_on,24,0,11,,,,,,,,10,,,64,80
199320,note_on,12,0,9,,,,,,,,7,,,83,80
199320,note_on,24,0,10,,,,,,,,8,,,80,80
199416,note_on,96,0,9,,,,,,,,7,,,83,0
199416,note_on,96,0,10,,,,,,,,8,,,80,0
199416,note_on,96,0,11,,,,,,,,10,,,74,0
199416,note_on,0,0,11,,,,,,,,10,,,64,0
199440,note_on,24,0,9,,,,,,,,7,,,83,80
199440,note_on,24,0,10,,,,,,,,8,,,80,80
199440,note_on,0,0,11,,,,,,,,10,,,64,80
199440,note_on,24,0,11,,,,,,,,10,,,74,80
199536,note_on,96,0,11,,,,,,,,10,,,64,0
199536,note_on,96,0,10,,,,,,,,8,,,80,0
199536,note_on,0,0,11,,,,,,,,10,,,74,0
199536,note_on,96,0,9,,,,,,,,7,,,83,0
199560,note_on,24,0,11,,,,,,,,10,,,74,80
199560,note_on,24,0,10,,,,,,,,8,,,80,80
199560,note_on,0,0,11,,,,,,,,10,,,64,80
199560,note_on,24,0,9,,,,,,,,7,,,83,80
199608,note_on,48,0,9,,,,,,,,7,,,83,0
199620,note_on,12,0,9,,,,,,,,7,,,85,80
199656,note_on,96,0,10,,,,,,,,8,,,80,0
199656,note_on,96,0,11,,,,,,,,10,,,64,0
199656,note_on,0,0,11,,,,,,,,10,,,74,0
199668,note_on,48,0,9,,,,,,,,7,,,85,0
199680,note_on,24,0,10,,,,,,,,8,,,81,80
199680,note_on,0,0,11,,,,,,,,10,,,69,80
199680,note_on,12,0,9,,,,,,,,7,,,81,80
199680,note_on,24,0,11,,,,,,,,10,,,73,80
199872,note_on,192,0,10,,,,,,,,8,,,81,0
199872,note_on,192,0,9,,,,,,,,7,,,81,0
199872,note_on,192,0,11,,,,,,,,10,,,69,0
199872,note_on,0,0,11,,,,,,,,10,,,73,0
200040,note_on,7008,0,12,,,,,,,,11,,,59,80
200040,note_on,168,0,9,,,,,,,,7,,,74,80
200040,note_on,168,0,11,,,,,,,,10,,,62,80
200040,note_on,168,0,10,,,,,,,,8,,,67,80
200136,note_on,96,0,10,,,,,,,,8,,,67,0
200136,note_on,96,0,11,,,,,,,,10,,,62,0
200136,note_on,96,0,12,,,,,,,,11,,,59,0
200160,note_on,24,0,10,,,,,,,,8,,,67,80
200160,note_on,24,0,12,,,,,,,,11,,,59,80
200160,note_on,24,0,11,,,,,,,,10,,,62,80
200232,note_on,192,0,9,,,,,,,,7,,,74,0
200256,note_on,96,0,11,,,,,,,,10,,,62,0
200256,note_on,96,0,12,,,,,,,,11,,,59,0
200256,note_on,96,0,10,,,,,,,,8,,,67,0
200280,note_on,48,0,9,,,,,,,,7,,,79,80
200280,note_on,24,0,11,,,,,,,,10,,,62,80
200280,note_on,24,0,10,,,,,,,,8,,,67,80
200280,note_on,24,0,12,,,,,,,,11,,,59,80
200376,note_on,96,0,11,,,,,,,,10,,,62,0
200376,note_on,96,0,12,,,,,,,,11,,,59,0
200376,note_on,96,0,9,,,,,,,,7,,,79,0
200376,note_on,96,0,10,,,,,,,,8,,,67,0
200400,note_on,24,0,9,,,,,,,,7,,,78,80
200400,note_on,24,0,10,,,,,,,,8,,,74,80
200400,note_on,24,0,12,,,,,,,,11,,,57,80
200400,note_on,24,0,11,,,,,,,,10,,,69,80
200496,note_on,96,0,12,,,,,,,,11,,,57,0
200496,note_on,96,0,11,,,,,,,,10,,,69,0
200496,note_on,96,0,10,,,,,,,,8,,,74,0
200496,note_on,96,0,9,,,,,,,,7,,,78,0
200520,note_on,24,0,12,,,,,,,,11,,,57,80
200520,note_on,24,0,11,,,,,,,,10,,,69,80
200520,note_on,24,0,10,,,,,,,,8,,,74,80
200520,note_on,24,0,9,,,,,,,,7,,,78,80
200616,note_on,96,0,12,,,,,,,,11,,,57,0
200616,note_on,96,0,11,,,,,,,,10,,,69,0
200616,note_on,96,0,10,,,,,,,,8,,,74,0
200616,note_on,96,0,9,,,,,,,,7,,,78,0
200640,note_on,24,0,12,,,,,,,,11,,,57,80
200640,note_on,24,0,11,,,,,,,,10,,,69,80
200640,note_on,24,0,10,,,,,,,,8,,,74,80
200640,note_on,24,0,9,,,,,,,,7,,,78,80
200688,note_on,48,0,9,,,,,,,,7,,,78,0
200700,note_on,12,0,9,,,,,,,,7,,,79,80
200736,note_on,96,0,11,,,,,,,,10,,,69,0
200736,note_on,96,0,12,,,,,,,,11,,,57,0
200736,note_on,96,0,10,,,,,,,,8,,,74,0
200748,note_on,48,0,9,,,,,,,,7,,,79,0
200760,note_on,12,0,9,,,,,,,,7,,,76,80
200760,note_on,24,0,11,,,,,,,,10,,,67,80
200760,note_on,24,0,10,,,,,,,,8,,,73,80
200760,note_on,24,0,12,,,,,,,,11,,,45,80
200856,note_on,96,0,10,,,,,,,,8,,,73,0
200856,note_on,96,0,12,,,,,,,,11,,,45,0
200856,note_on,96,0,11,,,,,,,,10,,,67,0
200856,note_on,96,0,9,,,,,,,,7,,,76,0
200880,note_on,24,0,12,,,,,,,,11,,,45,80
200880,note_on,24,0,11,,,,,,,,10,,,67,80
200880,note_on,24,0,9,,,,,,,,7,,,76,80
200880,note_on,24,0,10,,,,,,,,8,,,73,80
200976,note_on,96,0,9,,,,,,,,7,,,76,0
200976,note_on,96,0,10,,,,,,,,8,,,73,0
200976,note_on,96,0,11,,,,,,,,10,,,67,0
200976,note_on,96,0,12,,,,,,,,11,,,45,0
201000,note_on,24,0,9,,,,,,,,7,,,76,80
201000,note_on,24,0,12,,,,,,,,11,,,45,80
201000,note_on,24,0,10,,,,,,,,8,,,73,80
201000,note_on,24,0,11,,,,,,,,10,,,67,80
201048,note_on,48,0,9,,,,,,,,7,,,76,0
201060,note_on,12,0,9,,,,,,,,7,,,78,80
201096,note_on,96,0,10,,,,,,,,8,,,73,0
201096,note_on,96,0,11,,,,,,,,10,,,67,0
201096,note_on,96,0,12,,,,,,,,11,,,45,0
201108,note_on,48,0,9,,,,,,,,7,,,78,0
201120,note_on,12,0,9,,,,,,,,7,,,74,80
201120,note_on,24,0,10,,,,,,,,8,,,74,80
201120,note_on,2688,0,7,,,,,,,,6,,,74,80
201120,note_on,24,0,11,,,,,,,,10,,,66,80
201120,note_on,24,0,12,,,,,,,,11,,,50,80
201168,note_on,48,0,7,,,,,,,,6,,,74,0
201180,note_on,12,0,7,,,,,,,,6,,,76,80
201228,note_on,48,0,7,,,,,,,,6,,,76,0
201240,note_on,12,0,7,,,,,,,,6,,,77,80
201288,note_on,48,0,7,,,,,,,,6,,,77,0
201300,note_on,12,0,7,,,,,,,,6,,,78,80
201312,note_on,192,0,12,,,,,,,,11,,,50,0
201312,note_on,192,0,11,,,,,,,,10,,,66,0
201312,note_on,192,0,10,,,,,,,,8,,,74,0
201312,note_on,192,0,9,,,,,,,,7,,,74,0
201348,note_on,48,0,7,,,,,,,,6,,,78,0
201360,note_on,12,0,7,,,,,,,,6,,,79,80
201408,note_on,48,0,7,,,,,,,,6,,,79,0
201420,note_on,12,0,7,,,,,,,,6,,,80,80
201468,note_on,48,0,7,,,,,,,,6,,,80,0
201480,note_on,168,0,12,,,,,,,,11,,,54,80
201480,note_on,3144,0,2,,,,,,,,1,,,69,80
201480,note_on,3144,0,3,,,,,,,,2,,,57,80
201480,note_on,3144,0,1,,,,,,,,0,,,81,80
201480,note_on,8448,0,13,,,,,,,,12,,,42,80
201480,note_on,168,0,11,,,,,,,,10,,,57,80
201480,note_on,168,0,10,,,,,,,,8,,,62,80
201480,note_on,3048,0,8,,,,,,,,6,,,66,80
201480,note_on,0,0,8,,,,,,,,6,,,69,80
201480,note_on,168,0,9,,,,,,,,7,,,69,80
201480,note_on,12,0,7,,,,,,,,6,,,81,80
201576,note_on,96,0,8,,,,,,,,6,,,69,0
201576,note_on,0,0,8,,,,,,,,6,,,66,0
201600,note_on,24,0,8,,,,,,,,6,,,69,80
201600,note_on,0,0,8,,,,,,,,6,,,66,80
201672,note_on,192,0,2,,,,,,,,1,,,69,0
201672,note_on,192,0,3,,,,,,,,2,,,57,0
201672,note_on,192,0,7,,,,,,,,6,,,81,0
201672,note_on,192,0,1,,,,,,,,0,,,81,0
201672,note_on,192,0,9,,,,,,,,7,,,69,0
201696,note_on,0,0,8,,,,,,,,6,,,69,0
201696,note_on,96,0,8,,,,,,,,6,,,66,0
201720,note_on,48,0,1,,,,,,,,0,,,86,80
201720,note_on,24,0,8,,,,,,,,6,,,66,80
201720,note_on,0,0,8,,,,,,,,6,,,69,80
201720,note_on,48,0,7,,,,,,,,6,,,86,80
201720,note_on,48,0,3,,,,,,,,2,,,62,80
201720,note_on,48,0,2,,,,,,,,1,,,74,80
201720,note_on,48,0,9,,,,,,,,7,,,74,80
201768,note_on,288,0,12,,,,,,,,11,,,54,0
201768,note_on,288,0,13,,,,,,,,12,,,42,0
201768,note_on,288,0,10,,,,,,,,8,,,62,0
201768,note_on,288,0,11,,,,,,,,10,,,57,0
201816,note_on,96,0,1,,,,,,,,0,,,86,0
201816,note_on,96,0,8,,,,,,,,6,,,69,0
201816,note_on,0,0,8,,,,,,,,6,,,66,0
201816,note_on,96,0,7,,,,,,,,6,,,86,0
201816,note_on,96,0,3,,,,,,,,2,,,62,0
201816,note_on,96,0,9,,,,,,,,7,,,74,0
201816,note_on,96,0,2,,,,,,,,1,,,74,0
201840,note_on,24,0,9,,,,,,,,7,,,73,80
201840,note_on,72,0,11,,,,,,,,10,,,64,80
201840,note_on,72,0,13,,,,,,,,12,,,40,80
201840,note_on,72,0,12,,,,,,,,11,,,52,80
201840,note_on,0,0,8,,,,,,,,6,,,64,80
201840,note_on,24,0,8,,,,,,,,6,,,69,80
201840,note_on,24,0,7,,,,,,,,6,,,85,80
201840,note_on,72,0,10,,,,,,,,8,,,69,80
201840,note_on,24,0,3,,,,,,,,2,,,61,80
201840,note_on,24,0,2,,,,,,,,1,,,73,80
201840,note_on,24,0,1,,,,,,,,0,,,85,80
201936,note_on,96,0,2,,,,,,,,1,,,73,0
201936,note_on,96,0,1,,,,,,,,0,,,85,0
201936,note_on,96,0,3,,,,,,,,2,,,61,0
201936,note_on,96,0,7,,,,,,,,6,,,85,0
201936,note_on,96,0,9,,,,,,,,7,,,73,0
201960,note_on,24,0,7,,,,,,,,6,,,85,80
201960,note_on,24,0,3,,,,,,,,2,,,61,80
201960,note_on,24,0,2,,,,,,,,1,,,73,80
201960,note_on,24,0,9,,,,,,,,7,,,73,80
201960,note_on,24,0,1,,,,,,,,0,,,85,80
202032,note_on,0,0,8,,,,,,,,6,,,69,0
202032,note_on,192,0,8,,,,,,,,6,,,64,0
202056,note_on,96,0,9,,,,,,,,7,,,73,0
202056,note_on,96,0,1,,,,,,,,0,,,85,0
202056,note_on,96,0,2,,,,,,,,1,,,73,0
202056,note_on,96,0,3,,,,,,,,2,,,61,0
202056,note_on,96,0,7,,,,,,,,6,,,85,0
202080,note_on,24,0,1,,,,,,,,0,,,85,80
202080,note_on,24,0,3,,,,,,,,2,,,61,80
202080,note_on,24,0,7,,,,,,,,6,,,85,80
202080,note_on,24,0,9,,,,,,,,7,,,73,80
202080,note_on,24,0,2,,,,,,,,1,,,73,80
202128,note_on,48,0,9,,,,,,,,7,,,73,0
202128,note_on,288,0,10,,,,,,,,8,,,69,0
202128,note_on,48,0,2,,,,,,,,1,,,73,0
202128,note_on,48,0,7,,,,,,,,6,,,85,0
202128,note_on,288,0,11,,,,,,,,10,,,64,0
202128,note_on,48,0,3,,,,,,,,2,,,61,0
202128,note_on,48,0,1,,,,,,,,0,,,85,0
202140,note_on,12,0,9,,,,,,,,7,,,74,80
202140,note_on,12,0,2,,,,,,,,1,,,74,80
202140,note_on,12,0,3,,,,,,,,2,,,62,80
202140,note_on,12,0,7,,,,,,,,6,,,86,80
202140,note_on,12,0,1,,,,,,,,0,,,86,80
202188,note_on,48,0,7,,,,,,,,6,,,86,0
202188,note_on,48,0,3,,,,,,,,2,,,62,0
202188,note_on,48,0,9,,,,,,,,7,,,74,0
202188,note_on,48,0,2,,,,,,,,1,,,74,0
202188,note_on,48,0,1,,,,,,,,0,,,86,0
202200,note_on,72,0,10,,,,,,,,8,,,68,80
202200,note_on,12,0,3,,,,,,,,2,,,59,80
202200,note_on,0,0,8,,,,,,,,6,,,68,80
202200,note_on,0,0,8,,,,,,,,6,,,64,80
202200,note_on,168,0,8,,,,,,,,6,,,74,80
202200,note_on,12,0,9,,,,,,,,7,,,71,80
202200,note_on,72,0,11,,,,,,,,10,,,62,80
202200,note_on,12,0,2,,,,,,,,1,,,71,80
202200,note_on,12,0,7,,,,,,,,6,,,83,80
202200,note_on,12,0,1,,,,,,,,0,,,83,80
202296,note_on,96,0,7,,,,,,,,6,,,83,0
202296,note_on,96,0,9,,,,,,,,7,,,71,0
202296,note_on,96,0,2,,,,,,,,1,,,71,0
202296,note_on,96,0,3,,,,,,,,2,,,59,0
202296,note_on,96,0,1,,,,,,,,0,,,83,0
202320,note_on,24,0,7,,,,,,,,6,,,83,80
202320,note_on,24,0,9,,,,,,,,7,,,71,80
202320,note_on,24,0,3,,,,,,,,2,,,59,80
202320,note_on,24,0,2,,,,,,,,1,,,71,80
202320,note_on,24,0,1,,,,,,,,0,,,83,80
202392,note_on,192,0,8,,,,,,,,6,,,68,0
202392,note_on,0,0,8,,,,,,,,6,,,74,0
202392,note_on,0,0,8,,,,,,,,6,,,64,0
202416,note_on,96,0,2,,,,,,,,1,,,71,0
202416,note_on,96,0,9,,,,,,,,7,,,71,0
202416,note_on,96,0,1,,,,,,,,0,,,83,0
202416,note_on,96,0,3,,,,,,,,2,,,59,0
202416,note_on,96,0,7,,,,,,,,6,,,83,0
202440,note_on,24,0,3,,,,,,,,2,,,59,80
202440,note_on,24,0,7,,,,,,,,6,,,83,80
202440,note_on,24,0,9,,,,,,,,7,,,71,80
202440,note_on,24,0,1,,,,,,,,0,,,83,80
202440,note_on,24,0,2,,,,,,,,1,,,71,80
202488,note_on,48,0,3,,,,,,,,2,,,59,0
202488,note_on,288,0,11,,,,,,,,10,,,62,0
202488,note_on,648,0,13,,,,,,,,12,,,40,0
202488,note_on,48,0,7,,,,,,,,6,,,83,0
202488,note_on,48,0,9,,,,,,,,7,,,71,0
202488,note_on,48,0,1,,,,,,,,0,,,83,0
202488,note_on,48,0,2,,,,,,,,1,,,71,0
202488,note_on,648,0,12,,,,,,,,11,,,52,0
202488,note_on,288,0,10,,,,,,,,8,,,68,0
202500,note_on,12,0,9,,,,,,,,7,,,73,80
202500,note_on,12,0,2,,,,,,,,1,,,73,80
202500,note_on,12,0,3,,,,,,,,2,,,61,80
202500,note_on,12,0,7,,,,,,,,6,,,85,80
202500,note_on,12,0,1,,,,,,,,0,,,85,80
202548,note_on,48,0,9,,,,,,,,7,,,73,0
202548,note_on,48,0,7,,,,,,,,6,,,85,0
202548,note_on,48,0,3,,,,,,,,2,,,61,0
202548,note_on,48,0,2,,,,,,,,1,,,73,0
202548,note_on,48,0,1,,,,,,,,0,,,85,0
202560,note_on,12,0,1,,,,,,,,0,,,81,80
202560,note_on,12,0,9,,,,,,,,7,,,69,80
202560,note_on,12,0,7,,,,,,,,6,,,81,80
202560,note_on,72,0,10,,,,,,,,8,,,69,80
202560,note_on,12,0,3,,,,,,,,2,,,57,80
202560,note_on,12,0,2,,,,,,,,1,,,69,80
202560,note_on,72,0,13,,,,,,,,12,,,33,80
202560,note_on,72,0,11,,,,,,,,10,,,61,80
202560,note_on,168,0,8,,,,,,,,6,,,73,80
202560,note_on,0,0,8,,,,,,,,6,,,69,80
202560,note_on,72,0,12,,,,,,,,11,,,45,80
202608,note_on,48,0,7,,,,,,,,6,,,81,0
202620,note_on,12,0,7,,,,,,,,6,,,80,80
202668,note_on,48,0,7,,,,,,,,6,,,80,0
202680,note_on,12,0,7,,,,,,,,6,,,79,80
202728,note_on,48,0,7,,,,,,,,6,,,79,0
202740,note_on,12,0,7,,,,,,,,6,,,78,80
202752,note_on,192,0,8,,,,,,,,6,,,69,0
202752,note_on,192,0,3,,,,,,,,2,,,57,0
202752,note_on,192,0,2,,,,,,,,1,,,69,0
202752,note_on,192,0,9,,,,,,,,7,,,69,0
202752,note_on,0,0,8,,,,,,,,6,,,73,0
202752,note_on,192,0,1,,,,,,,,0,,,81,0
202788,note_on,48,0,7,,,,,,,,6,,,78,0
202800,note_on,12,0,7,,,,,,,,6,,,77,80
202848,note_on,48,0,7,,,,,,,,6,,,77,0
202848,note_on,288,0,10,,,,,,,,8,,,69,0
202848,note_on,288,0,13,,,,,,,,12,,,33,0
202848,note_on,288,0,11,,,,,,,,10,,,61,0
202848,note_on,288,0,12,,,,,,,,11,,,45,0
202860,note_on,12,0,7,,,,,,,,6,,,76,80
202908,note_on,48,0,7,,,,,,,,6,,,76,0
202920,note_on,168,0,9,,,,,,,,7,,,62,80
202920,note_on,12,0,7,,,,,,,,6,,,74,80
202920,note_on,168,0,2,,,,,,,,1,,,74,80
202920,note_on,168,0,3,,,,,,,,2,,,62,80
202920,note_on,0,0,3,,,,,,,,2,,,50,80
202920,note_on,72,0,13,,,,,,,,12,,,35,80
202920,note_on,72,0,12,,,,,,,,11,,,47,80
202920,note_on,72,0,11,,,,,,,,10,,,50,80
202920,note_on,168,0,1,,,,,,,,0,,,86,80
202920,note_on,0,0,8,,,,,,,,6,,,62,80
202920,note_on,168,0,8,,,,,,,,6,,,59,80
202920,note_on,72,0,10,,,,,,,,8,,,55,80
203016,note_on,0,0,8,,,,,,,,6,,,59,0
203016,note_on,96,0,8,,,,,,,,6,,,62,0
203040,note_on,0,0,8,,,,,,,,6,,,59,80
203040,note_on,24,0,8,,,,,,,,6,,,62,80
203112,note_on,192,0,9,,,,,,,,7,,,62,0
203112,note_on,192,0,1,,,,,,,,0,,,86,0
203112,note_on,192,0,7,,,,,,,,6,,,74,0
203112,note_on,192,0,2,,,,,,,,1,,,74,0
203112,note_on,0,0,3,,,,,,,,2,,,62,0
203112,note_on,192,0,3,,,,,,,,2,,,50,0
203136,note_on,0,0,8,,,,,,,,6,,,62,0
203136,note_on,96,0,8,,,,,,,,6,,,59,0
203160,note_on,48,0,9,,,,,,,,7,,,67,80
203160,note_on,48,0,3,,,,,,,,2,,,55,80
203160,note_on,0,0,3,,,,,,,,2,,,67,80
203160,note_on,48,0,7,,,,,,,,6,,,79,80
203160,note_on,0,0,8,,,,,,,,6,,,62,80
203160,note_on,24,0,8,,,,,,,,6,,,59,80
203160,note_on,48,0,1,,,,,,,,0,,,91,80
203160,note_on,48,0,2,,,,,,,,1,,,79,80
203208,note_on,288,0,13,,,,,,,,12,,,35,0
203208,note_on,288,0,11,,,,,,,,10,,,50,0
203208,note_on,288,0,12,,,,,,,,11,,,47,0
203208,note_on,288,0,10,,,,,,,,8,,,55,0
203256,note_on,96,0,7,,,,,,,,6,,,79,0
203256,note_on,0,0,8,,,,,,,,6,,,59,0
203256,note_on,96,0,9,,,,,,,,7,,,67,0
203256,note_on,96,0,1,,,,,,,,0,,,91,0
203256,note_on,96,0,3,,,,,,,,2,,,67,0
203256,note_on,0,0,3,,,,,,,,2,,,55,0
203256,note_on,96,0,8,,,,,,,,6,,,62,0
203256,note_on,96,0,2,,,,,,,,1,,,79,0
203280,note_on,24,0,2,,,,,,,,1,,,78,80
203280,note_on,72,0,12,,,,,,,,11,,,45,80
203280,note_on,24,0,8,,,,,,,,6,,,62,80
203280,note_on,0,0,8,,,,,,,,6,,,57,80
203280,note_on,24,0,1,,,,,,,,0,,,90,80
203280,note_on,72,0,11,,,,,,,,10,,,57,80
203280,note_on,24,0,9,,,,,,,,7,,,66,80
203280,note_on,72,0,13,,,,,,,,12,,,33,80
203280,note_on,72,0,10,,,,,,,,8,,,62,80
203280,note_on,0,0,3,,,,,,,,2,,,54,80
203280,note_on,24,0,3,,,,,,,,2,,,66,80
203280,note_on,24,0,7,,,,,,,,6,,,78,80
203376,note_on,96,0,1,,,,,,,,0,,,90,0
203376,note_on,96,0,2,,,,,,,,1,,,78,0
203376,note_on,96,0,9,,,,,,,,7,,,66,0
203376,note_on,96,0,3,,,,,,,,2,,,54,0
203376,note_on,0,0,3,,,,,,,,2,,,66,0
203376,note_on,96,0,7,,,,,,,,6,,,78,0
203400,note_on,24,0,3,,,,,,,,2,,,54,80
203400,note_on,24,0,1,,,,,,,,0,,,90,80
203400,note_on,24,0,2,,,,,,,,1,,,78,80
203400,note_on,24,0,7,,,,,,,,6,,,78,80
203400,note_on,0,0,3,,,,,,,,2,,,66,80
203400,note_on,24,0,9,,,,,,,,7,,,66,80
203472,note_on,192,0,8,,,,,,,,6,,,57,0
203472,note_on,0,0,8,,,,,,,,6,,,62,0
203496,note_on,96,0,9,,,,,,,,7,,,66,0
203496,note_on,96,0,1,,,,,,,,0,,,90,0
203496,note_on,96,0,7,,,,,,,,6,,,78,0
203496,note_on,96,0,3,,,,,,,,2,,,66,0
203496,note_on,0,0,3,,,,,,,,2,,,54,0
203496,note_on,96,0,2,,,,,,,,1,,,78,0
203520,note_on,24,0,9,,,,,,,,7,,,66,80
203520,note_on,24,0,3,,,,,,,,2,,,66,80
203520,note_on,0,0,3,,,,,,,,2,,,54,80
203520,note_on,24,0,7,,,,,,,,6,,,78,80
203520,note_on,24,0,2,,,,,,,,1,,,78,80
203520,note_on,24,0,1,,,,,,,,0,,,90,80
203568,note_on,48,0,3,,,,,,,,2,,,54,0
203568,note_on,48,0,7,,,,,,,,6,,,78,0
203568,note_on,48,0,9,,,,,,,,7,,,66,0
203568,note_on,0,0,3,,,,,,,,2,,,66,0
203568,note_on,288,0,10,,,,,,,,8,,,62,0
203568,note_on,48,0,2,,,,,,,,1,,,78,0
203568,note_on,288,0,11,,,,,,,,10,,,57,0
203580,note_on,12,0,3,,,,,,,,2,,,67,80
203580,note_on,12,0,7,,,,,,,,6,,,79,80
203580,note_on,12,0,2,,,,,,,,1,,,79,80
203580,note_on,12,0,9,,,,,,,,7,,,67,80
203580,note_on,0,0,3,,,,,,,,2,,,55,80
203616,note_on,96,0,1,,,,,,,,0,,,90,0
203628,note_on,48,0,9,,,,,,,,7,,,67,0
203628,note_on,48,0,2,,,,,,,,1,,,79,0
203628,note_on,0,0,3,,,,,,,,2,,,67,0
203628,note_on,48,0,3,,,,,,,,2,,,55,0
203628,note_on,48,0,7,,,,,,,,6,,,79,0
203640,note_on,12,0,9,,,,,,,,7,,,64,80
203640,note_on,0,0,8,,,,,,,,6,,,67,80
203640,note_on,0,0,3,,,,,,,,2,,,52,80
203640,note_on,12,0,3,,,,,,,,2,,,64,80
203640,note_on,0,0,8,,,,,,,,6,,,57,80
203640,note_on,168,0,8,,,,,,,,6,,,61,80
203640,note_on,12,0,7,,,,,,,,6,,,76,80
203640,note_on,24,0,1,,,,,,,,0,,,88,80
203640,note_on,72,0,10,,,,,,,,8,,,61,80
203640,note_on,12,0,2,,,,,,,,1,,,76,80
203736,note_on,96,0,7,,,,,,,,6,,,76,0
203736,note_on,96,0,9,,,,,,,,7,,,64,0
203736,note_on,96,0,2,,,,,,,,1,,,76,0
203736,note_on,96,0,1,,,,,,,,0,,,88,0
203736,note_on,96,0,3,,,,,,,,2,,,52,0
203736,note_on,0,0,3,,,,,,,,2,,,64,0
203760,note_on,24,0,2,,,,,,,,1,,,76,80
203760,note_on,24,0,7,,,,,,,,6,,,76,80
203760,note_on,24,0,3,,,,,,,,2,,,64,80
203760,note_on,24,0,9,,,,,,,,7,,,64,80
203760,note_on,0,0,3,,,,,,,,2,,,52,80
203760,note_on,24,0,1,,,,,,,,0,,,88,80
203832,note_on,0,0,8,,,,,,,,6,,,61,0
203832,note_on,192,0,8,,,,,,,,6,,,67,0
203832,note_on,0,0,8,,,,,,,,6,,,57,0
203856,note_on,96,0,7,,,,,,,,6,,,76,0
203856,note_on,96,0,1,,,,,,,,0,,,88,0
203856,note_on,96,0,9,,,,,,,,7,,,64,0
203856,note_on,96,0,2,,,,,,,,1,,,76,0
203856,note_on,96,0,3,,,,,,,,2,,,52,0
203856,note_on,0,0,3,,,,,,,,2,,,64,0
203880,note_on,24,0,1,,,,,,,,0,,,88,80
203880,note_on,24,0,7,,,,,,,,6,,,76,80
203880,note_on,24,0,2,,,,,,,,1,,,76,80
203880,note_on,24,0,3,,,,,,,,2,,,64,80
203880,note_on,0,0,3,,,,,,,,2,,,52,80
203880,note_on,24,0,9,,,,,,,,7,,,64,80
203928,note_on,288,0,10,,,,,,,,8,,,61,0
203928,note_on,48,0,3,,,,,,,,2,,,52,0
203928,note_on,648,0,13,,,,,,,,12,,,33,0
203928,note_on,0,0,3,,,,,,,,2,,,64,0
203928,note_on,0,0,11,,,,,,,,10,,,55,0
203928,note_on,48,0,7,,,,,,,,6,,,76,0
203928,note_on,360,0,11,,,,,,,,10,,,55,64
203928,note_on,48,0,9,,,,,,,,7,,,64,0
203928,note_on,648,0,12,,,,,,,,11,,,45,0
203928,note_on,48,0,2,,,,,,,,1,,,76,0
203940,note_on,0,0,3,,,,,,,,2,,,66,80
203940,note_on,12,0,9,,,,,,,,7,,,66,80
203940,note_on,12,0,3,,,,,,,,2,,,54,80
203940,note_on,12,0,7,,,,,,,,6,,,78,80
203940,note_on,12,0,2,,,,,,,,1,,,78,80
203976,note_on,96,0,1,,,,,,,,0,,,88,0
203988,note_on,48,0,3,,,,,,,,2,,,66,0
203988,note_on,48,0,2,,,,,,,,1,,,78,0
203988,note_on,0,0,3,,,,,,,,2,,,54,0
203988,note_on,48,0,7,,,,,,,,6,,,78,0
203988,note_on,48,0,9,,,,,,,,7,,,66,0
204000,note_on,12,0,7,,,,,,,,6,,,74,80
204000,note_on,72,0,10,,,,,,,,8,,,62,80
204000,note_on,72,0,12,,,,,,,,11,,,50,80
204000,note_on,12,0,2,,,,,,,,1,,,74,80
204000,note_on,12,0,3,,,,,,,,2,,,62,80
204000,note_on,72,0,13,,,,,,,,12,,,38,80
204000,note_on,168,0,8,,,,,,,,6,,,62,80
204000,note_on,12,0,9,,,,,,,,7,,,62,80
204000,note_on,24,0,1,,,,,,,,0,,,86,80
204000,note_on,0,0,3,,,,,,,,2,,,50,80
204000,note_on,72,0,11,,,,,,,,10,,,54,80
204048,note_on,48,0,8,,,,,,,,6,,,62,0
204048,note_on,48,0,7,,,,,,,,6,,,74,0
204060,note_on,12,0,8,,,,,,,,6,,,57,80
204060,note_on,12,0,7,,,,,,,,6,,,69,80
204108,note_on,48,0,7,,,,,,,,6,,,69,0
204108,note_on,48,0,8,,,,,,,,6,,,57,0
204120,note_on,12,0,7,,,,,,,,6,,,66,80
204120,note_on,12,0,8,,,,,,,,6,,,54,80
204168,note_on,48,0,8,,,,,,,,6,,,54,0
204168,note_on,48,0,7,,,,,,,,6,,,66,0
204180,note_on,12,0,7,,,,,,,,6,,,69,80
204180,note_on,12,0,8,,,,,,,,6,,,57,80
204192,note_on,192,0,11,,,,,,,,10,,,54,0
204192,note_on,0,0,3,,,,,,,,2,,,62,0
204192,note_on,192,0,13,,,,,,,,12,,,38,0
204192,note_on,192,0,3,,,,,,,,2,,,50,0
204192,note_on,192,0,10,,,,,,,,8,,,62,0
204192,note_on,192,0,2,,,,,,,,1,,,74,0
204192,note_on,192,0,12,,,,,,,,11,,,50,0
204192,note_on,192,0,9,,,,,,,,7,,,62,0
204192,note_on,192,0,1,,,,,,,,0,,,86,0
204228,note_on,48,0,8,,,,,,,,6,,,57,0
204228,note_on,48,0,7,,,,,,,,6,,,69,0
204240,note_on,12,0,7,,,,,,,,6,,,74,80
204240,note_on,12,0,8,,,,,,,,6,,,62,80
204288,note_on,48,0,8,,,,,,,,6,,,62,0
204288,note_on,48,0,7,,,,,,,,6,,,74,0
204300,note_on,12,0,7,,,,,,,,6,,,69,80
204300,note_on,12,0,8,,,,,,,,6,,,57,80
204348,note_on,48,0,7,,,,,,,,6,,,69,0
204348,note_on,48,0,8,,,,,,,,6,,,57,0
204360,note_on,12,0,7,,,,,,,,6,,,78,80
204360,note_on,12,0,8,,,,,,,,6,,,66,80
204408,note_on,48,0,7,,,,,,,,6,,,78,0
204408,note_on,48,0,8,,,,,,,,6,,,66,0
204420,note_on,12,0,8,,,,,,,,6,,,62,80
204420,note_on,12,0,7,,,,,,,,6,,,74,80
204468,note_on,48,0,7,,,,,,,,6,,,74,0
204468,note_on,48,0,8,,,,,,,,6,,,62,0
204480,note_on,12,0,7,,,,,,,,6,,,81,80
204480,note_on,12,0,8,,,,,,,,6,,,69,80
204528,note_on,48,0,7,,,,,,,,6,,,81,0
204528,note_on,48,0,8,,,,,,,,6,,,69,0
204540,note_on,12,0,7,,,,,,,,6,,,78,80
204540,note_on,12,0,8,,,,,,,,6,,,66,80
204588,note_on,48,0,8,,,,,,,,6,,,66,0
204588,note_on,48,0,7,,,,,,,,6,,,78,0
204600,note_on,408,0,3,,,,,,,,2,,,50,80
204600,note_on,0,0,4,,,,,,,,3,,,50,80
204600,note_on,0,0,2,,,,,,,,1,,,78,80
204600,note_on,408,0,12,,,,,,,,11,,,50,80
204600,note_on,408,0,2,,,,,,,,1,,,69,80
204600,note_on,408,0,9,,,,,,,,7,,,74,80
204600,note_on,0,0,9,,,,,,,,7,,,62,80
204600,note_on,0,0,9,,,,,,,,7,,,81,80
204600,note_on,408,0,13,,,,,,,,12,,,38,80
204600,note_on,408,0,11,,,,,,,,10,,,62,80
204600,note_on,0,0,10,,,,,,,,8,,,62,80
204600,note_on,6264,0,4,,,,,,,,3,,,62,80
204600,note_on,408,0,10,,,,,,,,8,,,78,80
204600,note_on,11568,0,6,,,,,,,,5,,,50,80
204600,note_on,0,0,10,,,,,,,,8,,,69,80
204600,note_on,11568,0,5,,,,,,,,4,,,74,80
204600,note_on,408,0,1,,,,,,,,0,,,81,80
204600,note_on,12,0,8,,,,,,,,6,,,74,80
204600,note_on,12,0,7,,,,,,,,6,,,86,80
204600,note_on,0,0,5,,,,,,,,4,,,62,80
204648,note_on,48,0,8,,,,,,,,6,,,74,0
204648,note_on,48,0,7,,,,,,,,6,,,86,0
204660,note_on,12,0,8,,,,,,,,6,,,69,80
204660,note_on,12,0,7,,,,,,,,6,,,81,80
204696,note_on,96,0,2,,,,,,,,1,,,78,0
204696,note_on,96,0,6,,,,,,,,5,,,50,0
204696,note_on,96,0,13,,,,,,,,12,,,38,0
204696,note_on,0,0,10,,,,,,,,8,,,78,0
204696,note_on,0,0,10,,,,,,,,8,,,69,0
204696,note_on,96,0,10,,,,,,,,8,,,62,0
204696,note_on,96,0,5,,,,,,,,4,,,62,0
204696,note_on,0,0,5,,,,,,,,4,,,74,0
204696,note_on,96,0,1,,,,,,,,0,,,81,0
204696,note_on,0,0,2,,,,,,,,1,,,69,0
204696,note_on,96,0,11,,,,,,,,10,,,62,0
204696,note_on,0,0,4,,,,,,,,3,,,62,0
204696,note_on,96,0,3,,,,,,,,2,,,50,0
204696,note_on,96,0,12,,,,,,,,11,,,50,0
204696,note_on,96,0,4,,,,,,,,3,,,50,0
204696,note_on,0,0,9,,,,,,,,7,,,74,0
204696,note_on,0,0,9,,,,,,,,7,,,62,0
204696,note_on,96,0,9,,,,,,,,7,,,81,0
204708,note_on,48,0,7,,,,,,,,6,,,81,0
204708,note_on,48,0,8,,,,,,,,6,,,69,0
204720,note_on,24,0,13,,,,,,,,12,,,43,80
204720,note_on,24,0,11,,,,,,,,10,,,67,80
204720,note_on,24,0,2,,,,,,,,1,,,79,80
204720,note_on,12,0,7,,,,,,,,6,,,83,80
204720,note_on,24,0,5,,,,,,,,4,,,74,80
204720,note_on,0,0,5,,,,,,,,4,,,62,80
204720,note_on,12,0,8,,,,,,,,6,,,71,80
204720,note_on,24,0,1,,,,,,,,0,,,83,80
204720,note_on,24,0,3,,,,,,,,2,,,55,80
204720,note_on,24,0,6,,,,,,,,5,,,50,80
204720,note_on,24,0,12,,,,,,,,11,,,55,80
204720,note_on,0,0,2,,,,,,,,1,,,71,80
204720,note_on,0,0,9,,,,,,,,7,,,74,80
204720,note_on,0,0,9,,,,,,,,7,,,62,80
204720,note_on,24,0,9,,,,,,,,7,,,83,80
204720,note_on,24,0,10,,,,,,,,8,,,71,80
204720,note_on,0,0,4,,,,,,,,3,,,62,80
204720,note_on,0,0,10,,,,,,,,8,,,79,80
204720,note_on,24,0,4,,,,,,,,3,,,50,80
204720,note_on,0,0,10,,,,,,,,8,,,62,80
204768,note_on,48,0,8,,,,,,,,6,,,71,0
204768,note_on,48,0,7,,,,,,,,6,,,83,0
204780,note_on,12,0,7,,,,,,,,6,,,86,80
204780,note_on,12,0,8,,,,,,,,6,,,74,80
204828,note_on,48,0,7,,,,,,,,6,,,86,0
204828,note_on,48,0,8,,,,,,,,6,,,74,0
204840,note_on,12,0,7,,,,,,,,6,,,79,80
204840,note_on,12,0,8,,,,,,,,6,,,67,80
204888,note_on,48,0,7,,,,,,,,6,,,79,0
204888,note_on,48,0,8,,,,,,,,6,,,67,0
204900,note_on,12,0,8,,,,,,,,6,,,71,80
204900,note_on,12,0,7,,,,,,,,6,,,83,80
204912,note_on,192,0,4,,,,,,,,3,,,62,0
204912,note_on,0,0,4,,,,,,,,3,,,50,0
204912,note_on,192,0,10,,,,,,,,8,,,79,0
204912,note_on,0,0,5,,,,,,,,4,,,74,0
204912,note_on,192,0,1,,,,,,,,0,,,83,0
204912,note_on,192,0,6,,,,,,,,5,,,50,0
204912,note_on,0,0,10,,,,,,,,8,,,62,0
204912,note_on,0,0,10,,,,,,,,8,,,71,0
204912,note_on,192,0,13,,,,,,,,12,,,43,0
204912,note_on,192,0,2,,,,,,,,1,,,71,0
204912,note_on,0,0,2,,,,,,,,1,,,79,0
204912,note_on,192,0,12,,,,,,,,11,,,55,0
204912,note_on,192,0,9,,,,,,,,7,,,74,0
204912,note_on,0,0,9,,,,,,,,7,,,62,0
204912,note_on,0,0,9,,,,,,,,7,,,83,0
204912,note_on,192,0,11,,,,,,,,10,,,67,0
204912,note_on,192,0,5,,,,,,,,4,,,62,0
204912,note_on,192,0,3,,,,,,,,2,,,55,0
204948,note_on,48,0,8,,,,,,,,6,,,71,0
204948,note_on,48,0,7,,,,,,,,6,,,83,0
204960,note_on,12,0,7,,,,,,,,6,,,76,80
204960,note_on,12,0,8,,,,,,,,6,,,64,80
205008,note_on,48,0,7,,,,,,,,6,,,76,0
205008,note_on,48,0,8,,,,,,,,6,,,64,0
205020,note_on,12,0,7,,,,,,,,6,,,79,80
205020,note_on,12,0,8,,,,,,,,6,,,67,80
205068,note_on,48,0,8,,,,,,,,6,,,67,0
205068,note_on,48,0,7,,,,,,,,6,,,79,0
205080,note_on,12,0,7,,,,,,,,6,,,73,80
205080,note_on,12,0,8,,,,,,,,6,,,61,80
205128,note_on,48,0,8,,,,,,,,6,,,61,0
205128,note_on,48,0,7,,,,,,,,6,,,73,0
205140,note_on,12,0,7,,,,,,,,6,,,76,80
205140,note_on,12,0,8,,,,,,,,6,,,64,80
205188,note_on,48,0,7,,,,,,,,6,,,76,0
205188,note_on,48,0,8,,,,,,,,6,,,64,0
205200,note_on,12,0,8,,,,,,,,6,,,55,80
205200,note_on,12,0,7,,,,,,,,6,,,67,80
205248,note_on,48,0,8,,,,,,,,6,,,55,0
205248,note_on,48,0,7,,,,,,,,6,,,67,0
205260,note_on,12,0,8,,,,,,,,6,,,59,80
205260,note_on,12,0,7,,,,,,,,6,,,71,80
205308,note_on,48,0,8,,,,,,,,6,,,59,0
205308,note_on,48,0,7,,,,,,,,6,,,71,0
205320,note_on,408,0,9,,,,,,,,7,,,64,80
205320,note_on,0,0,2,,,,,,,,1,,,73,80
205320,note_on,0,0,9,,,,,,,,7,,,73,80
205320,note_on,0,0,9,,,,,,,,7,,,81,80
205320,note_on,408,0,13,,,,,,,,12,,,45,80
205320,note_on,408,0,3,,,,,,,,2,,,57,80
205320,note_on,0,0,10,,,,,,,,8,,,69,80
205320,note_on,0,0,10,,,,,,,,8,,,76,80
205320,note_on,0,0,4,,,,,,,,3,,,64,80
205320,note_on,408,0,4,,,,,,,,3,,,57,80
205320,note_on,408,0,6,,,,,,,,5,,,45,80
205320,note_on,408,0,10,,,,,,,,8,,,73,80
205320,note_on,408,0,2,,,,,,,,1,,,76,80
205320,note_on,408,0,12,,,,,,,,11,,,57,80
205320,note_on,408,0,5,,,,,,,,4,,,69,80
205320,note_on,0,0,5,,,,,,,,4,,,76,80
205320,note_on,408,0,1,,,,,,,,0,,,81,80
205320,note_on,12,0,7,,,,,,,,6,,,73,80
205320,note_on,12,0,8,,,,,,,,6,,,61,80
205320,note_on,408,0,11,,,,,,,,10,,,69,80
205368,note_on,48,0,8,,,,,,,,6,,,61,0
205368,note_on,48,0,7,,,,,,,,6,,,73,0
205380,note_on,12,0,8,,,,,,,,6,,,57,80
205380,note_on,12,0,7,,,,,,,,6,,,69,80
205416,note_on,96,0,11,,,,,,,,10,,,69,0
205416,note_on,0,0,2,,,,,,,,1,,,76,0
205416,note_on,96,0,2,,,,,,,,1,,,73,0
205416,note_on,96,0,13,,,,,,,,12,,,45,0
205416,note_on,96,0,4,,,,,,,,3,,,64,0
205416,note_on,0,0,10,,,,,,,,8,,,73,0
205416,note_on,0,0,10,,,,,,,,8,,,76,0
205416,note_on,0,0,4,,,,,,,,3,,,57,0
205416,note_on,96,0,9,,,,,,,,7,,,81,0
205416,note_on,96,0,3,,,,,,,,2,,,57,0
205416,note_on,0,0,9,,,,,,,,7,,,64,0
205416,note_on,0,0,9,,,,,,,,7,,,73,0
205416,note_on,0,0,5,,,,,,,,4,,,69,0
205416,note_on,96,0,1,,,,,,,,0,,,81,0
205416,note_on,96,0,12,,,,,,,,11,,,57,0
205416,note_on,96,0,6,,,,,,,,5,,,45,0
205416,note_on,96,0,10,,,,,,,,8,,,69,0
205416,note_on,96,0,5,,,,,,,,4,,,76,0
205428,note_on,48,0,7,,,,,,,,6,,,69,0
205428,note_on,48,0,8,,,,,,,,6,,,57,0
205440,note_on,12,0,8,,,,,,,,6,,,62,80
205440,note_on,12,0,7,,,,,,,,6,,,74,80
205440,note_on,24,0,6,,,,,,,,5,,,50,80
205440,note_on,24,0,2,,,,,,,,1,,,78,80
205440,note_on,0,0,2,,,,,,,,1,,,69,80
205440,note_on,24,0,9,,,,,,,,7,,,78,80
205440,note_on,24,0,3,,,,,,,,2,,,50,80
205440,note_on,24,0,11,,,,,,,,10,,,62,80
205440,note_on,0,0,9,,,,,,,,7,,,69,80
205440,note_on,24,0,5,,,,,,,,4,,,78,80
205440,note_on,0,0,5,,,,,,,,4,,,74,80
205440,note_on,24,0,4,,,,,,,,3,,,62,80
205440,note_on,0,0,4,,,,,,,,3,,,66,80
205440,note_on,24,0,12,,,,,,,,11,,,50,80
205440,note_on,24,0,1,,,,,,,,0,,,78,80
205440,note_on,0,0,10,,,,,,,,8,,,78,80
205440,note_on,0,0,10,,,,,,,,8,,,62,80
205440,note_on,24,0,10,,,,,,,,8,,,74,80
205440,note_on,0,0,9,,,,,,,,7,,,62,80
205440,note_on,24,0,13,,,,,,,,12,,,38,80
205488,note_on,48,0,8,,,,,,,,6,,,62,0
205488,note_on,48,0,7,,,,,,,,6,,,74,0
205500,note_on,12,0,7,,,,,,,,6,,,69,80
205500,note_on,12,0,8,,,,,,,,6,,,57,80
205548,note_on,48,0,7,,,,,,,,6,,,69,0
205548,note_on,48,0,8,,,,,,,,6,,,57,0
205560,note_on,12,0,8,,,,,,,,6,,,54,80
205560,note_on,12,0,7,,,,,,,,6,,,66,80
205608,note_on,48,0,8,,,,,,,,6,,,54,0
205608,note_on,48,0,7,,,,,,,,6,,,66,0
205620,note_on,12,0,7,,,,,,,,6,,,69,80
205620,note_on,12,0,8,,,,,,,,6,,,57,80
205632,note_on,192,0,3,,,,,,,,2,,,50,0
205632,note_on,192,0,5,,,,,,,,4,,,74,0
205632,note_on,0,0,5,,,,,,,,4,,,78,0
205632,note_on,192,0,1,,,,,,,,0,,,78,0
205632,note_on,192,0,12,,,,,,,,11,,,50,0
205632,note_on,192,0,6,,,,,,,,5,,,50,0
205632,note_on,192,0,2,,,,,,,,1,,,69,0
205632,note_on,192,0,13,,,,,,,,12,,,38,0
205632,note_on,0,0,9,,,,,,,,7,,,78,0
205632,note_on,0,0,10,,,,,,,,8,,,74,0
205632,note_on,192,0,11,,,,,,,,10,,,62,0
205632,note_on,0,0,2,,,,,,,,1,,,78,0
205632,note_on,0,0,10,,,,,,,,8,,,62,0
205632,note_on,192,0,10,,,,,,,,8,,,78,0
205632,note_on,192,0,4,,,,,,,,3,,,66,0
205632,note_on,192,0,9,,,,,,,,7,,,69,0
205632,note_on,0,0,4,,,,,,,,3,,,62,0
205632,note_on,0,0,9,,,,,,,,7,,,62,0
205668,note_on,48,0,8,,,,,,,,6,,,57,0
205668,note_on,48,0,7,,,,,,,,6,,,69,0
205680,note_on,12,0,8,,,,,,,,6,,,62,80
205680,note_on,12,0,7,,,,,,,,6,,,74,80
205728,note_on,48,0,8,,,,,,,,6,,,62,0
205728,note_on,48,0,7,,,,,,,,6,,,74,0
205740,note_on,12,0,7,,,,,,,,6,,,69,80
205740,note_on,12,0,8,,,,,,,,6,,,57,80
205788,note_on,48,0,7,,,,,,,,6,,,69,0
205788,note_on,48,0,8,,,,,,,,6,,,57,0
205800,note_on,12,0,7,,,,,,,,6,,,78,80
205800,note_on,12,0,8,,,,,,,,6,,,66,80
205848,note_on,48,0,7,,,,,,,,6,,,78,0
205848,note_on,48,0,8,,,,,,,,6,,,66,0
205860,note_on,12,0,8,,,,,,,,6,,,62,80
205860,note_on,12,0,7,,,,,,,,6,,,74,80
205908,note_on,48,0,7,,,,,,,,6,,,74,0
205908,note_on,48,0,8,,,,,,,,6,,,62,0
205920,note_on,12,0,7,,,,,,,,6,,,81,80
205920,note_on,12,0,8,,,,,,,,6,,,69,80
205968,note_on,48,0,8,,,,,,,,6,,,69,0
205968,note_on,48,0,7,,,,,,,,6,,,81,0
205980,note_on,12,0,8,,,,,,,,6,,,66,80
205980,note_on,12,0,7,,,,,,,,6,,,78,80
206028,note_on,48,0,8,,,,,,,,6,,,66,0
206028,note_on,48,0,7,,,,,,,,6,,,78,0
206040,note_on,0,0,9,,,,,,,,7,,,81,80
206040,note_on,408,0,2,,,,,,,,1,,,69,80
206040,note_on,12,0,7,,,,,,,,6,,,86,80
206040,note_on,408,0,9,,,,,,,,7,,,74,80
206040,note_on,408,0,12,,,,,,,,11,,,50,80
206040,note_on,0,0,2,,,,,,,,1,,,78,80
206040,note_on,0,0,9,,,,,,,,7,,,62,80
206040,note_on,408,0,1,,,,,,,,0,,,81,80
206040,note_on,408,0,11,,,,,,,,10,,,62,80
206040,note_on,12,0,8,,,,,,,,6,,,74,80
206040,note_on,0,0,10,,,,,,,,8,,,62,80
206040,note_on,0,0,10,,,,,,,,8,,,69,80
206040,note_on,408,0,10,,,,,,,,8,,,78,80
206040,note_on,408,0,4,,,,,,,,3,,,62,80
206040,note_on,0,0,4,,,,,,,,3,,,50,80
206040,note_on,408,0,3,,,,,,,,2,,,50,80
206040,note_on,408,0,6,,,,,,,,5,,,50,80
206040,note_on,0,0,5,,,,,,,,4,,,62,80
206040,note_on,408,0,5,,,,,,,,4,,,74,80
206040,note_on,408,0,13,,,,,,,,12,,,38,80
206088,note_on,48,0,8,,,,,,,,6,,,74,0
206088,note_on,48,0,7,,,,,,,,6,,,86,0
206100,note_on,12,0,7,,,,,,,,6,,,81,80
206100,note_on,12,0,8,,,,,,,,6,,,69,80
206136,note_on,96,0,13,,,,,,,,12,,,38,0
206136,note_on,0,0,10,,,,,,,,8,,,78,0
206136,note_on,0,0,10,,,,,,,,8,,,69,0
206136,note_on,96,0,2,,,,,,,,1,,,78,0
206136,note_on,0,0,2,,,,,,,,1,,,69,0
206136,note_on,96,0,1,,,,,,,,0,,,81,0
206136,note_on,96,0,10,,,,,,,,8,,,62,0
206136,note_on,0,0,9,,,,,,,,7,,,74,0
206136,note_on,96,0,5,,,,,,,,4,,,62,0
206136,note_on,96,0,9,,,,,,,,7,,,81,0
206136,note_on,96,0,12,,,,,,,,11,,,50,0
206136,note_on,0,0,9,,,,,,,,7,,,62,0
206136,note_on,96,0,3,,,,,,,,2,,,50,0
206136,note_on,0,0,5,,,,,,,,4,,,74,0
206136,note_on,96,0,6,,,,,,,,5,,,50,0
206136,note_on,0,0,4,,,,,,,,3,,,62,0
206136,note_on,96,0,4,,,,,,,,3,,,50,0
206136,note_on,96,0,11,,,,,,,,10,,,62,0
206148,note_on,48,0,8,,,,,,,,6,,,69,0
206148,note_on,48,0,7,,,,,,,,6,,,81,0
206160,note_on,0,0,9,,,,,,,,7,,,62,80
206160,note_on,24,0,9,,,,,,,,7,,,83,80
206160,note_on,24,0,6,,,,,,,,5,,,50,80
206160,note_on,0,0,2,,,,,,,,1,,,79,80
206160,note_on,24,0,1,,,,,,,,0,,,83,80
206160,note_on,0,0,5,,,,,,,,4,,,62,80
206160,note_on,24,0,5,,,,,,,,4,,,74,80
206160,note_on,24,0,3,,,,,,,,2,,,55,80
206160,note_on,0,0,9,,,,,,,,7,,,74,80
206160,note_on,24,0,12,,,,,,,,11,,,55,80
206160,note_on,24,0,2,,,,,,,,1,,,71,80
206160,note_on,24,0,11,,,,,,,,10,,,67,80
206160,note_on,24,0,10,,,,,,,,8,,,71,80
206160,note_on,0,0,10,,,,,,,,8,,,62,80
206160,note_on,12,0,8,,,,,,,,6,,,71,80
206160,note_on,0,0,10,,,,,,,,8,,,79,80
206160,note_on,24,0,4,,,,,,,,3,,,62,80
206160,note_on,0,0,4,,,,,,,,3,,,50,80
206160,note_on,12,0,7,,,,,,,,6,,,83,80
206160,note_on,24,0,13,,,,,,,,12,,,43,80
206208,note_on,48,0,7,,,,,,,,6,,,83,0
206208,note_on,48,0,8,,,,,,,,6,,,71,0
206220,note_on,12,0,7,,,,,,,,6,,,86,80
206220,note_on,12,0,8,,,,,,,,6,,,74,80
206268,note_on,48,0,8,,,,,,,,6,,,74,0
206268,note_on,48,0,7,,,,,,,,6,,,86,0
206280,note_on,12,0,8,,,,,,,,6,,,67,80
206280,note_on,12,0,7,,,,,,,,6,,,79,80
206328,note_on,48,0,8,,,,,,,,6,,,67,0
206328,note_on,48,0,7,,,,,,,,6,,,79,0
206340,note_on,12,0,7,,,,,,,,6,,,83,80
206340,note_on,12,0,8,,,,,,,,6,,,71,80
206352,note_on,192,0,6,,,,,,,,5,,,50,0
206352,note_on,192,0,3,,,,,,,,2,,,55,0
206352,note_on,192,0,11,,,,,,,,10,,,67,0
206352,note_on,0,0,5,,,,,,,,4,,,74,0
206352,note_on,192,0,5,,,,,,,,4,,,62,0
206352,note_on,0,0,10,,,,,,,,8,,,71,0
206352,note_on,192,0,13,,,,,,,,12,,,43,0
206352,note_on,0,0,4,,,,,,,,3,,,62,0
206352,note_on,192,0,4,,,,,,,,3,,,50,0
206352,note_on,192,0,1,,,,,,,,0,,,83,0
206352,note_on,0,0,10,,,,,,,,8,,,62,0
206352,note_on,192,0,10,,,,,,,,8,,,79,0
206352,note_on,192,0,12,,,,,,,,11,,,55,0
206352,note_on,0,0,9,,,,,,,,7,,,74,0
206352,note_on,192,0,2,,,,,,,,1,,,79,0
206352,note_on,0,0,2,,,,,,,,1,,,71,0
206352,note_on,0,0,9,,,,,,,,7,,,83,0
206352,note_on,192,0,9,,,,,,,,7,,,62,0
206388,note_on,48,0,8,,,,,,,,6,,,71,0
206388,note_on,48,0,7,,,,,,,,6,,,83,0
206400,note_on,12,0,7,,,,,,,,6,,,76,80
206400,note_on,12,0,8,,,,,,,,6,,,64,80
206448,note_on,48,0,7,,,,,,,,6,,,76,0
206448,note_on,48,0,8,,,,,,,,6,,,64,0
206460,note_on,12,0,7,,,,,,,,6,,,79,80
206460,note_on,12,0,8,,,,,,,,6,,,67,80
206508,note_on,48,0,7,,,,,,,,6,,,79,0
206508,note_on,48,0,8,,,,,,,,6,,,67,0
206520,note_on,12,0,7,,,,,,,,6,,,73,80
206520,note_on,12,0,8,,,,,,,,6,,,61,80
206568,note_on,48,0,8,,,,,,,,6,,,61,0
206568,note_on,48,0,7,,,,,,,,6,,,73,0
206580,note_on,12,0,7,,,,,,,,6,,,76,80
206580,note_on,12,0,8,,,,,,,,6,,,64,80
206628,note_on,48,0,8,,,,,,,,6,,,64,0
206628,note_on,48,0,7,,,,,,,,6,,,76,0
206640,note_on,12,0,7,,,,,,,,6,,,67,80
206640,note_on,12,0,8,,,,,,,,6,,,55,80
206688,note_on,48,0,7,,,,,,,,6,,,67,0
206688,note_on,48,0,8,,,,,,,,6,,,55,0
206700,note_on,12,0,7,,,,,,,,6,,,71,80
206700,note_on,12,0,8,,,,,,,,6,,,59,80
206748,note_on,48,0,7,,,,,,,,6,,,71,0
206748,note_on,48,0,8,,,,,,,,6,,,59,0
206760,note_on,0,0,4,,,,,,,,3,,,64,80
206760,note_on,408,0,4,,,,,,,,3,,,57,80
206760,note_on,408,0,13,,,,,,,,12,,,45,80
206760,note_on,408,0,10,,,,,,,,8,,,69,80
206760,note_on,0,0,9,,,,,,,,7,,,81,80
206760,note_on,0,0,9,,,,,,,,7,,,64,80
206760,note_on,408,0,9,,,,,,,,7,,,73,80
206760,note_on,408,0,6,,,,,,,,5,,,45,80
206760,note_on,408,0,3,,,,,,,,2,,,57,80
206760,note_on,0,0,10,,,,,,,,8,,,76,80
206760,note_on,0,0,10,,,,,,,,8,,,73,80
206760,note_on,408,0,11,,,,,,,,10,,,69,80
206760,note_on,12,0,7,,,,,,,,6,,,73,80
206760,note_on,408,0,12,,,,,,,,11,,,57,80
206760,note_on,408,0,1,,,,,,,,0,,,81,80
206760,note_on,12,0,8,,,,,,,,6,,,61,80
206760,note_on,0,0,2,,,,,,,,1,,,73,80
206760,note_on,0,0,5,,,,,,,,4,,,76,80
206760,note_on,408,0,5,,,,,,,,4,,,69,80
206760,note_on,408,0,2,,,,,,,,1,,,76,80
206808,note_on,48,0,8,,,,,,,,6,,,61,0
206808,note_on,48,0,7,,,,,,,,6,,,73,0
206820,note_on,12,0,7,,,,,,,,6,,,69,80
206820,note_on,12,0,8,,,,,,,,6,,,57,80
206856,note_on,0,0,9,,,,,,,,7,,,64,0
206856,note_on,96,0,2,,,,,,,,1,,,73,0
206856,note_on,96,0,4,,,,,,,,3,,,64,0
206856,note_on,96,0,9,,,,,,,,7,,,81,0
206856,note_on,0,0,9,,,,,,,,7,,,73,0
206856,note_on,0,0,2,,,,,,,,1,,,76,0
206856,note_on,0,0,4,,,,,,,,3,,,57,0
206856,note_on,96,0,12,,,,,,,,11,,,57,0
206856,note_on,0,0,10,,,,,,,,8,,,76,0
206856,note_on,96,0,1,,,,,,,,0,,,81,0
206856,note_on,96,0,10,,,,,,,,8,,,73,0
206856,note_on,96,0,11,,,,,,,,10,,,69,0
206856,note_on,96,0,5,,,,,,,,4,,,76,0
206856,note_on,96,0,6,,,,,,,,5,,,45,0
206856,note_on,96,0,3,,,,,,,,2,,,57,0
206856,note_on,0,0,10,,,,,,,,8,,,69,0
206856,note_on,96,0,13,,,,,,,,12,,,45,0
206856,note_on,0,0,5,,,,,,,,4,,,69,0
206868,note_on,48,0,8,,,,,,,,6,,,57,0
206868,note_on,48,0,7,,,,,,,,6,,,69,0
206880,note_on,24,0,10,,,,,,,,8,,,62,80
206880,note_on,24,0,1,,,,,,,,0,,,74,80
206880,note_on,12,0,8,,,,,,,,6,,,62,80
206880,note_on,24,0,5,,,,,,,,4,,,62,80
206880,note_on,24,0,3,,,,,,,,2,,,50,80
206880,note_on,24,0,13,,,,,,,,12,,,38,80
206880,note_on,24,0,6,,,,,,,,5,,,50,80
206880,note_on,0,0,9,,,,,,,,7,,,62,80
206880,note_on,24,0,11,,,,,,,,10,,,62,80
206880,note_on,24,0,4,,,,,,,,3,,,50,80
206880,note_on,0,0,4,,,,,,,,3,,,62,80
206880,note_on,0,0,5,,,,,,,,4,,,74,80
206880,note_on,12,0,7,,,,,,,,6,,,74,80
206880,note_on,0,0,10,,,,,,,,8,,,74,80
206880,note_on,24,0,9,,,,,,,,7,,,74,80
206880,note_on,24,0,2,,,,,,,,1,,,74,80
206880,note_on,24,0,12,,,,,,,,11,,,50,80
206976,note_on,0,0,4,,,,,,,,3,,,50,0
206976,note_on,96,0,4,,,,,,,,3,,,62,0
206976,note_on,96,0,13,,,,,,,,12,,,38,0
206976,note_on,96,0,3,,,,,,,,2,,,50,0
206976,note_on,96,0,9,,,,,,,,7,,,62,0
206976,note_on,0,0,9,,,,,,,,7,,,74,0
206976,note_on,0,0,5,,,,,,,,4,,,62,0
206976,note_on,96,0,1,,,,,,,,0,,,74,0
206976,note_on,96,0,5,,,,,,,,4,,,74,0
206976,note_on,96,0,12,,,,,,,,11,,,50,0
206976,note_on,96,0,2,,,,,,,,1,,,74,0
206976,note_on,0,0,10,,,,,,,,8,,,62,0
206976,note_on,96,0,10,,,,,,,,8,,,74,0
206976,note_on,96,0,11,,,,,,,,10,,,62,0
207000,note_on,24,0,5,,,,,,,,4,,,62,80
207000,note_on,24,0,11,,,,,,,,10,,,62,80
207000,note_on,24,0,4,,,,,,,,3,,,50,80
207000,note_on,24,0,13,,,,,,,,12,,,38,80
207000,note_on,24,0,3,,,,,,,,2,,,50,80
207000,note_on,24,0,12,,,,,,,,11,,,50,80
207000,note_on,24,0,10,,,,,,,,8,,,74,80
207000,note_on,24,0,1,,,,,,,,0,,,74,80
207000,note_on,24,0,2,,,,,,,,1,,,74,80
207000,note_on,24,0,9,,,,,,,,7,,,74,80
207072,note_on,192,0,6,,,,,,,,5,,,50,0
207072,note_on,192,0,7,,,,,,,,6,,,74,0
207072,end_of_track,0,1,7,,,,,,,,,,,,
207072,end_of_track,0,1,8,,,,,,,,,,,,
207072,note_on,192,0,8,,,,,,,,6,,,62,0
207096,note_on,96,0,11,,,,,,,,10,,,62,0
207096,note_on,96,0,5,,,,,,,,4,,,62,0
207096,note_on,96,0,4,,,,,,,,3,,,50,0
207096,note_on,96,0,1,,,,,,,,0,,,74,0
207096,note_on,96,0,3,,,,,,,,2,,,50,0
207096,note_on,96,0,9,,,,,,,,7,,,74,0
207096,note_on,96,0,12,,,,,,,,11,,,50,0
207096,note_on,96,0,13,,,,,,,,12,,,38,0
207096,note_on,96,0,2,,,,,,,,1,,,74,0
207096,note_on,96,0,10,,,,,,,,8,,,74,0
207120,note_on,24,0,3,,,,,,,,2,,,54,80
207120,note_on,24,0,12,,,,,,,,11,,,54,80
207120,note_on,24,0,13,,,,,,,,12,,,42,80
207120,note_on,24,0,11,,,,,,,,10,,,66,80
207120,note_on,24,0,4,,,,,,,,3,,,54,80
207120,note_on,24,0,1,,,,,,,,0,,,78,80
207120,note_on,24,0,2,,,,,,,,1,,,78,80
207120,note_on,24,0,5,,,,,,,,4,,,66,80
207120,note_on,24,0,10,,,,,,,,8,,,78,80
207120,note_on,24,0,9,,,,,,,,7,,,78,80
207216,note_on,96,0,13,,,,,,,,12,,,42,0
207216,note_on,96,0,12,,,,,,,,11,,,54,0
207216,note_on,96,0,4,,,,,,,,3,,,54,0
207216,note_on,96,0,2,,,,,,,,1,,,78,0
207216,note_on,96,0,3,,,,,,,,2,,,54,0
207216,note_on,96,0,10,,,,,,,,8,,,78,0
207216,note_on,96,0,9,,,,,,,,7,,,78,0
207216,note_on,96,0,1,,,,,,,,0,,,78,0
207216,note_on,96,0,5,,,,,,,,4,,,66,0
207216,note_on,96,0,11,,,,,,,,10,,,66,0
207240,note_on,168,0,6,,,,,,,,5,,,50,80
207240,note_on,24,0,9,,,,,,,,7,,,81,80
207240,note_on,24,0,2,,,,,,,,1,,,81,80
207240,note_on,24,0,1,,,,,,,,0,,,81,80
207240,note_on,24,0,10,,,,,,,,8,,,81,80
207240,note_on,24,0,13,,,,,,,,12,,,45,80
207240,note_on,24,0,3,,,,,,,,2,,,57,80
207240,note_on,24,0,12,,,,,,,,11,,,57,80
207240,note_on,24,0,4,,,,,,,,3,,,57,80
207240,note_on,24,0,11,,,,,,,,10,,,69,80
207240,note_on,24,0,5,,,,,,,,4,,,69,80
207336,note_on,96,0,3,,,,,,,,2,,,57,0
207336,note_on,96,0,12,,,,,,,,11,,,57,0
207336,note_on,96,0,2,,,,,,,,1,,,81,0
207336,note_on,96,0,10,,,,,,,,8,,,81,0
207336,note_on,96,0,9,,,,,,,,7,,,81,0
207336,note_on,96,0,11,,,,,,,,10,,,69,0
207336,note_on,96,0,5,,,,,,,,4,,,69,0
207336,note_on,96,0,1,,,,,,,,0,,,81,0
207336,note_on,96,0,13,,,,,,,,12,,,45,0
207336,note_on,96,0,4,,,,,,,,3,,,57,0
207360,note_on,24,0,11,,,,,,,,10,,,69,80
207360,note_on,24,0,5,,,,,,,,4,,,69,80
207360,note_on,24,0,4,,,,,,,,3,,,57,80
207360,note_on,24,0,12,,,,,,,,11,,,57,80
207360,note_on,24,0,3,,,,,,,,2,,,57,80
207360,note_on,24,0,13,,,,,,,,12,,,45,80
207360,note_on,24,0,2,,,,,,,,1,,,81,80
207360,note_on,24,0,9,,,,,,,,7,,,81,80
207360,note_on,24,0,1,,,,,,,,0,,,81,80
207360,note_on,24,0,10,,,,,,,,8,,,81,80
207432,note_on,192,0,6,,,,,,,,5,,,50,0
207456,note_on,96,0,12,,,,,,,,11,,,57,0
207456,note_on,96,0,3,,,,,,,,2,,,57,0
207456,note_on,96,0,13,,,,,,,,12,,,45,0
207456,note_on,96,0,1,,,,,,,,0,,,81,0
207456,note_on,96,0,2,,,,,,,,1,,,81,0
207456,note_on,96,0,11,,,,,,,,10,,,69,0
207456,note_on,96,0,4,,,,,,,,3,,,57,0
207456,note_on,96,0,5,,,,,,,,4,,,69,0
207456,note_on,96,0,10,,,,,,,,8,,,81,0
207456,note_on,96,0,9,,,,,,,,7,,,81,0
207480,note_on,24,0,9,,,,,,,,7,,,86,80
207480,note_on,24,0,1,,,,,,,,0,,,86,80
207480,note_on,24,0,3,,,,,,,,2,,,62,80
207480,note_on,24,0,12,,,,,,,,11,,,62,80
207480,note_on,24,0,13,,,,,,,,12,,,50,80
207480,note_on,24,0,5,,,,,,,,4,,,74,80
207480,note_on,24,0,2,,,,,,,,1,,,86,80
207480,note_on,24,0,4,,,,,,,,3,,,62,80
207480,note_on,24,0,11,,,,,,,,10,,,74,80
207480,note_on,24,0,10,,,,,,,,8,,,86,80
207576,note_on,96,0,5,,,,,,,,4,,,74,0
207576,note_on,96,0,9,,,,,,,,7,,,86,0
207576,note_on,96,0,12,,,,,,,,11,,,62,0
207576,note_on,96,0,3,,,,,,,,2,,,62,0
207576,note_on,96,0,2,,,,,,,,1,,,86,0
207576,note_on,96,0,11,,,,,,,,10,,,74,0
207576,note_on,96,0,10,,,,,,,,8,,,86,0
207576,note_on,96,0,13,,,,,,,,12,,,50,0
207576,note_on,96,0,4,,,,,,,,3,,,62,0
207576,note_on,96,0,1,,,,,,,,0,,,86,0
207600,note_on,24,0,2,,,,,,,,1,,,86,80
207600,note_on,24,0,13,,,,,,,,12,,,50,80
207600,note_on,24,0,4,,,,,,,,3,,,57,80
207600,note_on,24,0,5,,,,,,,,4,,,69,80
207600,note_on,168,0,6,,,,,,,,5,,,45,80
207600,note_on,24,0,12,,,,,,,,11,,,62,80
207600,note_on,24,0,9,,,,,,,,7,,,86,80
207600,note_on,24,0,11,,,,,,,,10,,,74,80
207600,note_on,24,0,3,,,,,,,,2,,,62,80
207600,note_on,24,0,10,,,,,,,,8,,,86,80
207600,note_on,24,0,1,,,,,,,,0,,,86,80
207648,note_on,48,0,10,,,,,,,,8,,,86,0
207648,note_on,48,0,12,,,,,,,,11,,,62,0
207648,note_on,48,0,9,,,,,,,,7,,,86,0
207648,note_on,48,0,11,,,,,,,,10,,,74,0
207648,note_on,48,0,2,,,,,,,,1,,,86,0
207648,note_on,48,0,3,,,,,,,,2,,,62,0
207648,note_on,48,0,13,,,,,,,,12,,,50,0
207648,note_on,48,0,1,,,,,,,,0,,,86,0
207660,note_on,12,0,12,,,,,,,,11,,,61,80
207660,note_on,12,0,13,,,,,,,,12,,,49,80
207660,note_on,12,0,3,,,,,,,,2,,,61,80
207660,note_on,12,0,2,,,,,,,,1,,,85,80
207660,note_on,12,0,9,,,,,,,,7,,,85,80
207660,note_on,12,0,11,,,,,,,,10,,,73,80
207660,note_on,12,0,1,,,,,,,,0,,,85,80
207660,note_on,12,0,10,,,,,,,,8,,,85,80
207696,note_on,96,0,4,,,,,,,,3,,,57,0
207696,note_on,96,0,5,,,,,,,,4,,,69,0
207696,note_on,96,0,6,,,,,,,,5,,,45,0
207708,note_on,48,0,1,,,,,,,,0,,,85,0
207708,note_on,48,0,3,,,,,,,,2,,,61,0
207708,note_on,48,0,2,,,,,,,,1,,,85,0
207708,note_on,48,0,13,,,,,,,,12,,,49,0
207708,note_on,48,0,12,,,,,,,,11,,,61,0
207708,note_on,48,0,9,,,,,,,,7,,,85,0
207708,note_on,48,0,11,,,,,,,,10,,,73,0
207708,note_on,48,0,10,,,,,,,,8,,,85,0
207720,note_on,12,0,2,,,,,,,,1,,,83,80
207720,note_on,12,0,1,,,,,,,,0,,,83,80
207720,note_on,12,0,13,,,,,,,,12,,,47,80
207720,note_on,12,0,10,,,,,,,,8,,,83,80
207720,note_on,12,0,11,,,,,,,,10,,,71,80
207720,note_on,24,0,5,,,,,,,,4,,,69,80
207720,note_on,12,0,9,,,,,,,,7,,,83,80
207720,note_on,12,0,12,,,,,,,,11,,,59,80
207720,note_on,24,0,4,,,,,,,,3,,,57,80
207720,note_on,12,0,3,,,,,,,,2,,,59,80
207720,note_on,24,0,6,,,,,,,,5,,,45,80
207768,note_on,48,0,12,,,,,,,,11,,,59,0
207768,note_on,48,0,9,,,,,,,,7,,,83,0
207768,note_on,48,0,10,,,,,,,,8,,,83,0
207768,note_on,48,0,3,,,,,,,,2,,,59,0
207768,note_on,48,0,11,,,,,,,,10,,,71,0
207768,note_on,48,0,13,,,,,,,,12,,,47,0
207768,note_on,48,0,2,,,,,,,,1,,,83,0
207768,note_on,48,0,1,,,,,,,,0,,,83,0
207780,note_on,12,0,9,,,,,,,,7,,,81,80
207780,note_on,12,0,1,,,,,,,,0,,,81,80
207780,note_on,12,0,10,,,,,,,,8,,,81,80
207780,note_on,12,0,3,,,,,,,,2,,,57,80
207780,note_on,12,0,11,,,,,,,,10,,,69,80
207780,note_on,12,0,2,,,,,,,,1,,,81,80
207780,note_on,12,0,13,,,,,,,,12,,,45,80
207780,note_on,12,0,12,,,,,,,,11,,,57,80
207816,note_on,96,0,4,,,,,,,,3,,,57,0
207816,note_on,96,0,5,,,,,,,,4,,,69,0
207816,note_on,96,0,6,,,,,,,,5,,,45,0
207828,note_on,48,0,1,,,,,,,,0,,,81,0
207828,note_on,48,0,11,,,,,,,,10,,,69,0
207828,note_on,48,0,3,,,,,,,,2,,,57,0
207828,note_on,48,0,12,,,,,,,,11,,,57,0
207828,note_on,48,0,10,,,,,,,,8,,,81,0
207828,note_on,48,0,13,,,,,,,,12,,,45,0
207828,note_on,48,0,2,,,,,,,,1,,,81,0
207828,note_on,48,0,9,,,,,,,,7,,,81,0
207840,note_on,12,0,11,,,,,,,,10,,,71,80
207840,note_on,12,0,13,,,,,,,,12,,,47,80
207840,note_on,12,0,1,,,,,,,,0,,,83,80
207840,note_on,12,0,9,,,,,,,,7,,,83,80
207840,note_on,24,0,4,,,,,,,,3,,,57,80
207840,note_on,12,0,3,,,,,,,,2,,,59,80
207840,note_on,12,0,2,,,,,,,,1,,,83,80
207840,note_on,12,0,10,,,,,,,,8,,,83,80
207840,note_on,24,0,5,,,,,,,,4,,,69,80
207840,note_on,12,0,12,,,,,,,,11,,,59,80
207840,note_on,24,0,6,,,,,,,,5,,,45,80
207888,note_on,48,0,3,,,,,,,,2,,,59,0
207888,note_on,48,0,9,,,,,,,,7,,,83,0
207888,note_on,48,0,12,,,,,,,,11,,,59,0
207888,note_on,48,0,13,,,,,,,,12,,,47,0
207888,note_on,48,0,2,,,,,,,,1,,,83,0
207888,note_on,48,0,10,,,,,,,,8,,,83,0
207888,note_on,48,0,11,,,,,,,,10,,,71,0
207888,note_on,48,0,1,,,,,,,,0,,,83,0
207900,note_on,12,0,12,,,,,,,,11,,,61,80
207900,note_on,12,0,3,,,,,,,,2,,,61,80
207900,note_on,12,0,1,,,,,,,,0,,,85,80
207900,note_on,12,0,2,,,,,,,,1,,,85,80
207900,note_on,12,0,13,,,,,,,,12,,,49,80
207900,note_on,12,0,9,,,,,,,,7,,,85,80
207900,note_on,12,0,11,,,,,,,,10,,,73,80
207900,note_on,12,0,10,,,,,,,,8,,,85,80
207936,note_on,96,0,4,,,,,,,,3,,,57,0
207936,note_on,96,0,5,,,,,,,,4,,,69,0
207936,note_on,96,0,6,,,,,,,,5,,,45,0
207948,note_on,48,0,13,,,,,,,,12,,,49,0
207948,note_on,48,0,9,,,,,,,,7,,,85,0
207948,note_on,48,0,1,,,,,,,,0,,,85,0
207948,note_on,48,0,2,,,,,,,,1,,,85,0
207948,note_on,48,0,11,,,,,,,,10,,,73,0
207948,note_on,48,0,12,,,,,,,,11,,,61,0
207948,note_on,48,0,3,,,,,,,,2,,,61,0
207948,note_on,48,0,10,,,,,,,,8,,,85,0
207960,note_on,12,0,3,,,,,,,,2,,,62,80
207960,note_on,12,0,13,,,,,,,,12,,,50,80
207960,note_on,24,0,5,,,,,,,,4,,,74,80
207960,note_on,12,0,11,,,,,,,,10,,,74,80
207960,note_on,24,0,4,,,,,,,,3,,,62,80
207960,note_on,12,0,2,,,,,,,,1,,,86,80
207960,note_on,12,0,9,,,,,,,,7,,,86,80
207960,note_on,12,0,12,,,,,,,,11,,,62,80
207960,note_on,12,0,10,,,,,,,,8,,,86,80
207960,note_on,24,0,6,,,,,,,,5,,,50,80
207960,note_on,12,0,1,,,,,,,,0,,,86,80
208056,note_on,96,0,11,,,,,,,,10,,,74,0
208056,note_on,96,0,4,,,,,,,,3,,,62,0
208056,note_on,96,0,3,,,,,,,,2,,,62,0
208056,note_on,96,0,12,,,,,,,,11,,,62,0
208056,note_on,96,0,10,,,,,,,,8,,,86,0
208056,note_on,96,0,9,,,,,,,,7,,,86,0
208056,note_on,96,0,2,,,,,,,,1,,,86,0
208056,note_on,96,0,5,,,,,,,,4,,,74,0
208056,note_on,96,0,1,,,,,,,,0,,,86,0
208056,note_on,96,0,13,,,,,,,,12,,,50,0
208080,note_on,24,0,1,,,,,,,,0,,,86,80
208080,note_on,24,0,3,,,,,,,,2,,,62,80
208080,note_on,24,0,10,,,,,,,,8,,,86,80
208080,note_on,24,0,2,,,,,,,,1,,,86,80
208080,note_on,24,0,4,,,,,,,,3,,,62,80
208080,note_on,24,0,11,,,,,,,,10,,,74,80
208080,note_on,24,0,13,,,,,,,,12,,,50,80
208080,note_on,24,0,5,,,,,,,,4,,,74,80
208080,note_on,24,0,9,,,,,,,,7,,,86,80
208080,note_on,24,0,12,,,,,,,,11,,,62,80
208152,note_on,192,0,6,,,,,,,,5,,,50,0
208176,note_on,96,0,13,,,,,,,,12,,,50,0
208176,note_on,96,0,11,,,,,,,,10,,,74,0
208176,note_on,96,0,4,,,,,,,,3,,,62,0
208176,note_on,96,0,10,,,,,,,,8,,,86,0
208176,note_on,96,0,2,,,,,,,,1,,,86,0
208176,note_on,96,0,12,,,,,,,,11,,,62,0
208176,note_on,96,0,1,,,,,,,,0,,,86,0
208176,note_on,96,0,3,,,,,,,,2,,,62,0
208176,note_on,96,0,5,,,,,,,,4,,,74,0
208176,note_on,96,0,9,,,,,,,,7,,,86,0
208200,note_on,24,0,13,,,,,,,,12,,,50,80
208200,note_on,24,0,4,,,,,,,,3,,,62,80
208200,note_on,24,0,3,,,,,,,,2,,,62,80
208200,note_on,24,0,11,,,,,,,,10,,,74,80
208200,note_on,24,0,1,,,,,,,,0,,,86,80
208200,note_on,24,0,12,,,,,,,,11,,,62,80
208200,note_on,24,0,10,,,,,,,,8,,,86,80
208200,note_on,24,0,2,,,,,,,,1,,,86,80
208200,note_on,24,0,9,,,,,,,,7,,,86,80
208200,note_on,24,0,5,,,,,,,,4,,,74,80
208296,note_on,96,0,1,,,,,,,,0,,,86,0
208296,note_on,96,0,11,,,,,,,,10,,,74,0
208296,note_on,96,0,12,,,,,,,,11,,,62,0
208296,note_on,96,0,3,,,,,,,,2,,,62,0
208296,note_on,96,0,10,,,,,,,,8,,,86,0
208296,note_on,96,0,4,,,,,,,,3,,,62,0
208296,note_on,96,0,9,,,,,,,,7,,,86,0
208296,note_on,96,0,13,,,,,,,,12,,,50,0
208296,note_on,96,0,2,,,,,,,,1,,,86,0
208296,note_on,96,0,5,,,,,,,,4,,,74,0
208320,note_on,24,0,5,,,,,,,,4,,,69,80
208320,note_on,168,0,6,,,,,,,,5,,,45,80
208320,note_on,24,0,10,,,,,,,,8,,,86,80
208320,note_on,24,0,3,,,,,,,,2,,,62,80
208320,note_on,24,0,4,,,,,,,,3,,,57,80
208320,note_on,24,0,2,,,,,,,,1,,,86,80
208320,note_on,24,0,9,,,,,,,,7,,,86,80
208320,note_on,24,0,11,,,,,,,,10,,,74,80
208320,note_on,24,0,12,,,,,,,,11,,,62,80
208320,note_on,24,0,1,,,,,,,,0,,,86,80
208320,note_on,24,0,13,,,,,,,,12,,,50,80
208368,note_on,48,0,1,,,,,,,,0,,,86,0
208368,note_on,48,0,10,,,,,,,,8,,,86,0
208368,note_on,48,0,9,,,,,,,,7,,,86,0
208368,note_on,48,0,3,,,,,,,,2,,,62,0
208368,note_on,48,0,13,,,,,,,,12,,,50,0
208368,note_on,48,0,11,,,,,,,,10,,,74,0
208368,note_on,48,0,12,,,,,,,,11,,,62,0
208368,note_on,48,0,2,,,,,,,,1,,,86,0
208380,note_on,12,0,12,,,,,,,,11,,,61,80
208380,note_on,12,0,3,,,,,,,,2,,,61,80
208380,note_on,12,0,9,,,,,,,,7,,,85,80
208380,note_on,12,0,1,,,,,,,,0,,,85,80
208380,note_on,12,0,10,,,,,,,,8,,,85,80
208380,note_on,12,0,11,,,,,,,,10,,,73,80
208380,note_on,12,0,13,,,,,,,,12,,,49,80
208380,note_on,12,0,2,,,,,,,,1,,,85,80
208416,note_on,96,0,5,,,,,,,,4,,,69,0
208416,note_on,96,0,6,,,,,,,,5,,,45,0
208416,note_on,96,0,4,,,,,,,,3,,,57,0
208428,note_on,48,0,13,,,,,,,,12,,,49,0
208428,note_on,48,0,2,,,,,,,,1,,,85,0
208428,note_on,48,0,1,,,,,,,,0,,,85,0
208428,note_on,48,0,11,,,,,,,,10,,,73,0
208428,note_on,48,0,10,,,,,,,,8,,,85,0
208428,note_on,48,0,3,,,,,,,,2,,,61,0
208428,note_on,48,0,12,,,,,,,,11,,,61,0
208428,note_on,48,0,9,,,,,,,,7,,,85,0
208440,note_on,24,0,6,,,,,,,,5,,,45,80
208440,note_on,12,0,11,,,,,,,,10,,,71,80
208440,note_on,12,0,12,,,,,,,,11,,,59,80
208440,note_on,12,0,13,,,,,,,,12,,,47,80
208440,note_on,24,0,5,,,,,,,,4,,,69,80
208440,note_on,12,0,10,,,,,,,,8,,,83,80
208440,note_on,12,0,9,,,,,,,,7,,,83,80
208440,note_on,24,0,4,,,,,,,,3,,,57,80
208440,note_on,12,0,1,,,,,,,,0,,,83,80
208440,note_on,12,0,2,,,,,,,,1,,,83,80
208440,note_on,12,0,3,,,,,,,,2,,,59,80
208488,note_on,48,0,9,,,,,,,,7,,,83,0
208488,note_on,48,0,11,,,,,,,,10,,,71,0
208488,note_on,48,0,2,,,,,,,,1,,,83,0
208488,note_on,48,0,10,,,,,,,,8,,,83,0
208488,note_on,48,0,12,,,,,,,,11,,,59,0
208488,note_on,48,0,3,,,,,,,,2,,,59,0
208488,note_on,48,0,13,,,,,,,,12,,,47,0
208488,note_on,48,0,1,,,,,,,,0,,,83,0
208500,note_on,12,0,12,,,,,,,,11,,,57,80
208500,note_on,12,0,2,,,,,,,,1,,,81,80
208500,note_on,12,0,13,,,,,,,,12,,,45,80
208500,note_on,12,0,9,,,,,,,,7,,,81,80
208500,note_on,12,0,10,,,,,,,,8,,,81,80
208500,note_on,12,0,1,,,,,,,,0,,,81,80
208500,note_on,12,0,3,,,,,,,,2,,,57,80
208500,note_on,12,0,11,,,,,,,,10,,,69,80
208536,note_on,96,0,5,,,,,,,,4,,,69,0
208536,note_on,96,0,6,,,,,,,,5,,,45,0
208536,note_on,96,0,4,,,,,,,,3,,,57,0
208548,note_on,48,0,11,,,,,,,,10,,,69,0
208548,note_on,48,0,12,,,,,,,,11,,,57,0
208548,note_on,48,0,3,,,,,,,,2,,,57,0
208548,note_on,48,0,1,,,,,,,,0,,,81,0
208548,note_on,48,0,13,,,,,,,,12,,,45,0
208548,note_on,48,0,9,,,,,,,,7,,,81,0
208548,note_on,48,0,10,,,,,,,,8,,,81,0
208548,note_on,48,0,2,,,,,,,,1,,,81,0
208560,note_on,12,0,3,,,,,,,,2,,,59,80
208560,note_on,12,0,2,,,,,,,,1,,,83,80
208560,note_on,12,0,12,,,,,,,,11,,,59,80
208560,note_on,24,0,6,,,,,,,,5,,,45,80
208560,note_on,12,0,1,,,,,,,,0,,,83,80
208560,note_on,12,0,11,,,,,,,,10,,,71,80
208560,note_on,12,0,9,,,,,,,,7,,,83,80
208560,note_on,24,0,4,,,,,,,,3,,,57,80
208560,note_on,24,0,5,,,,,,,,4,,,69,80
208560,note_on,12,0,13,,,,,,,,12,,,47,80
208560,note_on,12,0,10,,,,,,,,8,,,83,80
208608,note_on,48,0,11,,,,,,,,10,,,71,0
208608,note_on,48,0,12,,,,,,,,11,,,59,0
208608,note_on,48,0,3,,,,,,,,2,,,59,0
208608,note_on,48,0,2,,,,,,,,1,,,83,0
208608,note_on,48,0,13,,,,,,,,12,,,47,0
208608,note_on,48,0,9,,,,,,,,7,,,83,0
208608,note_on,48,0,1,,,,,,,,0,,,83,0
208608,note_on,48,0,10,,,,,,,,8,,,83,0
208620,note_on,12,0,3,,,,,,,,2,,,61,80
208620,note_on,12,0,1,,,,,,,,0,,,85,80
208620,note_on,12,0,13,,,,,,,,12,,,49,80
208620,note_on,12,0,12,,,,,,,,11,,,61,80
208620,note_on,12,0,11,,,,,,,,10,,,73,80
208620,note_on,12,0,9,,,,,,,,7,,,85,80
208620,note_on,12,0,2,,,,,,,,1,,,85,80
208620,note_on,12,0,10,,,,,,,,8,,,85,80
208656,note_on,96,0,5,,,,,,,,4,,,69,0
208656,note_on,96,0,6,,,,,,,,5,,,45,0
208656,note_on,96,0,4,,,,,,,,3,,,57,0
208668,note_on,48,0,10,,,,,,,,8,,,85,0
208668,note_on,48,0,11,,,,,,,,10,,,73,0
208668,note_on,48,0,1,,,,,,,,0,,,85,0
208668,note_on,48,0,2,,,,,,,,1,,,85,0
208668,note_on,48,0,3,,,,,,,,2,,,61,0
208668,note_on,48,0,13,,,,,,,,12,,,49,0
208668,note_on,48,0,9,,,,,,,,7,,,85,0
208668,note_on,48,0,12,,,,,,,,11,,,61,0
208680,note_on,0,0,5,,,,,,,,4,,,74,80
208680,note_on,24,0,5,,,,,,,,4,,,62,80
208680,note_on,12,0,11,,,,,,,,10,,,74,80
208680,note_on,12,0,10,,,,,,,,8,,,86,80
208680,note_on,12,0,1,,,,,,,,0,,,86,80
208680,note_on,12,0,13,,,,,,,,12,,,50,80
208680,note_on,24,0,6,,,,,,,,5,,,50,80
208680,note_on,12,0,2,,,,,,,,1,,,86,80
208680,note_on,24,0,4,,,,,,,,3,,,50,80
208680,note_on,12,0,3,,,,,,,,2,,,62,80
208680,note_on,0,0,4,,,,,,,,3,,,62,80
208680,note_on,12,0,12,,,,,,,,11,,,62,80
208680,note_on,12,0,9,,,,,,,,7,,,86,80
208776,note_on,96,0,13,,,,,,,,12,,,50,0
208776,note_on,96,0,9,,,,,,,,7,,,86,0
208776,note_on,96,0,2,,,,,,,,1,,,86,0
208776,note_on,96,0,12,,,,,,,,11,,,62,0
208776,note_on,96,0,3,,,,,,,,2,,,62,0
208776,note_on,96,0,1,,,,,,,,0,,,86,0
208776,note_on,96,0,11,,,,,,,,10,,,74,0
208776,note_on,0,0,5,,,,,,,,4,,,62,0
208776,note_on,96,0,6,,,,,,,,5,,,50,0
208776,note_on,0,0,4,,,,,,,,3,,,50,0
208776,note_on,96,0,4,,,,,,,,3,,,62,0
208776,note_on,96,0,5,,,,,,,,4,,,74,0
208776,note_on,96,0,10,,,,,,,,8,,,86,0
208800,note_on,24,0,4,,,,,,,,3,,,54,80
208800,note_on,24,0,5,,,,,,,,4,,,66,80
208800,note_on,24,0,2,,,,,,,,1,,,81,80
208800,note_on,24,0,11,,,,,,,,10,,,66,80
208800,note_on,24,0,12,,,,,,,,11,,,54,80
208800,note_on,24,0,3,,,,,,,,2,,,54,80
208800,note_on,24,0,13,,,,,,,,12,,,42,80
208800,note_on,0,0,2,,,,,,,,1,,,78,80
208800,note_on,24,0,1,,,,,,,,0,,,81,80
208896,note_on,96,0,12,,,,,,,,11,,,54,0
208896,note_on,96,0,3,,,,,,,,2,,,54,0
208896,note_on,96,0,5,,,,,,,,4,,,66,0
208896,note_on,96,0,13,,,,,,,,12,,,42,0
208896,note_on,96,0,1,,,,,,,,0,,,81,0
208896,note_on,96,0,11,,,,,,,,10,,,66,0
208896,note_on,96,0,4,,,,,,,,3,,,54,0
208896,note_on,0,0,2,,,,,,,,1,,,81,0
208896,note_on,96,0,2,,,,,,,,1,,,78,0
208920,note_on,24,0,5,,,,,,,,4,,,69,80
208920,note_on,144,0,9,,,,,,,,7,,,85,80
208920,note_on,0,0,9,,,,,,,,7,,,76,80
208920,note_on,0,0,9,,,,,,,,7,,,69,80
208920,note_on,24,0,1,,,,,,,,0,,,86,80
208920,note_on,0,0,2,,,,,,,,1,,,79,80
208920,note_on,24,0,2,,,,,,,,1,,,76,80
208920,note_on,0,0,10,,,,,,,,8,,,79,80
208920,note_on,144,0,10,,,,,,,,8,,,69,80
208920,note_on,24,0,4,,,,,,,,3,,,57,80
208920,note_on,24,0,13,,,,,,,,12,,,45,80
208920,note_on,24,0,3,,,,,,,,2,,,57,80
208920,note_on,144,0,6,,,,,,,,5,,,45,80
208920,note_on,24,0,12,,,,,,,,11,,,57,80
208920,note_on,24,0,11,,,,,,,,10,,,69,80
208944,note_on,24,0,1,,,,,,,,0,,,86,0
208950,note_on,6,0,1,,,,,,,,0,,,85,80
208974,note_on,24,0,1,,,,,,,,0,,,85,0
208980,note_on,6,0,1,,,,,,,,0,,,86,80
209004,note_on,24,0,1,,,,,,,,0,,,86,0
209010,note_on,6,0,1,,,,,,,,0,,,85,80
209016,note_on,96,0,10,,,,,,,,8,,,79,0
209016,note_on,0,0,10,,,,,,,,8,,,69,0
209016,note_on,96,0,11,,,,,,,,10,,,69,0
209016,note_on,96,0,13,,,,,,,,12,,,45,0
209016,note_on,0,0,9,,,,,,,,7,,,85,0
209016,note_on,0,0,9,,,,,,,,7,,,76,0
209016,note_on,96,0,3,,,,,,,,2,,,57,0
209016,note_on,96,0,9,,,,,,,,7,,,69,0
209016,note_on,96,0,4,,,,,,,,3,,,57,0
209016,note_on,96,0,5,,,,,,,,4,,,69,0
209016,note_on,96,0,6,,,,,,,,5,,,45,0
209016,note_on,96,0,2,,,,,,,,1,,,79,0
209016,note_on,0,0,2,,,,,,,,1,,,76,0
209016,note_on,96,0,12,,,,,,,,11,,,57,0
209034,note_on,24,0,1,,,,,,,,0,,,85,0
209040,note_on,24,0,5,,,,,,,,4,,,66,80
209040,note_on,24,0,12,,,,,,,,11,,,50,80
209040,note_on,0,0,9,,,,,,,,7,,,86,80
209040,note_on,24,0,13,,,,,,,,12,,,38,80
209040,note_on,0,0,9,,,,,,,,7,,,78,80
209040,note_on,24,0,3,,,,,,,,2,,,50,80
209040,note_on,24,0,11,,,,,,,,10,,,62,80
209040,note_on,0,0,10,,,,,,,,8,,,78,80
209040,note_on,0,0,10,,,,,,,,8,,,69,80
209040,note_on,24,0,10,,,,,,,,8,,,62,80
209040,note_on,24,0,9,,,,,,,,7,,,62,80
209040,note_on,24,0,4,,,,,,,,3,,,54,80
209040,note_on,6,0,1,,,,,,,,0,,,86,80
209040,note_on,24,0,2,,,,,,,,1,,,78,80
209040,note_on,0,0,2,,,,,,,,1,,,74,80
209040,note_on,24,0,6,,,,,,,,5,,,50,80
209136,note_on,96,0,12,,,,,,,,11,,,50,0
209136,note_on,96,0,9,,,,,,,,7,,,86,0
209136,note_on,0,0,9,,,,,,,,7,,,78,0
209136,note_on,0,0,9,,,,,,,,7,,,62,0
209136,note_on,96,0,11,,,,,,,,10,,,62,0
209136,note_on,96,0,3,,,,,,,,2,,,50,0
209136,note_on,96,0,1,,,,,,,,0,,,86,0
209136,note_on,0,0,2,,,,,,,,1,,,78,0
209136,note_on,96,0,10,,,,,,,,8,,,78,0
209136,note_on,0,0,10,,,,,,,,8,,,69,0
209136,note_on,0,0,10,,,,,,,,8,,,62,0
209136,note_on,96,0,4,,,,,,,,3,,,54,0
209136,note_on,96,0,5,,,,,,,,4,,,66,0
209136,note_on,96,0,6,,,,,,,,5,,,50,0
209136,note_on,96,0,13,,,,,,,,12,,,38,0
209136,note_on,96,0,2,,,,,,,,1,,,74,0
209160,note_on,24,0,5,,,,,,,,4,,,62,80
209160,note_on,24,0,1,,,,,,,,0,,,81,80
209160,note_on,24,0,12,,,,,,,,11,,,54,80
209160,note_on,24,0,2,,,,,,,,1,,,81,80
209160,note_on,0,0,2,,,,,,,,1,,,78,80
209160,note_on,24,0,13,,,,,,,,12,,,42,80
209160,note_on,24,0,3,,,,,,,,2,,,54,80
209160,note_on,24,0,11,,,,,,,,10,,,66,80
209160,note_on,24,0,4,,,,,,,,3,,,50,80
209256,note_on,96,0,12,,,,,,,,11,,,54,0
209256,note_on,96,0,2,,,,,,,,1,,,78,0
209256,note_on,96,0,13,,,,,,,,12,,,42,0
209256,note_on,0,0,2,,,,,,,,1,,,81,0
209256,note_on,96,0,11,,,,,,,,10,,,66,0
209256,note_on,96,0,3,,,,,,,,2,,,54,0
209256,note_on,96,0,1,,,,,,,,0,,,81,0
209256,note_on,96,0,5,,,,,,,,4,,,62,0
209256,note_on,96,0,4,,,,,,,,3,,,50,0
209280,note_on,24,0,4,,,,,,,,3,,,57,80
209280,note_on,24,0,13,,,,,,,,12,,,45,80
209280,note_on,24,0,11,,,,,,,,10,,,69,80
209280,note_on,0,0,9,,,,,,,,7,,,76,80
209280,note_on,0,0,9,,,,,,,,7,,,85,80
209280,note_on,144,0,9,,,,,,,,7,,,69,80
209280,note_on,24,0,5,,,,,,,,4,,,69,80
209280,note_on,24,0,12,,,,,,,,11,,,57,80
209280,note_on,144,0,6,,,,,,,,5,,,45,80
209280,note_on,24,0,1,,,,,,,,0,,,86,80
209280,note_on,0,0,10,,,,,,,,8,,,79,80
209280,note_on,144,0,10,,,,,,,,8,,,69,80
209280,note_on,24,0,3,,,,,,,,2,,,57,80
209280,note_on,24,0,2,,,,,,,,1,,,76,80
209280,note_on,0,0,2,,,,,,,,1,,,79,80
209304,note_on,24,0,1,,,,,,,,0,,,86,0
209310,note_on,6,0,1,,,,,,,,0,,,85,80
209334,note_on,24,0,1,,,,,,,,0,,,85,0
209340,note_on,6,0,1,,,,,,,,0,,,86,80
209364,note_on,24,0,1,,,,,,,,0,,,86,0
209370,note_on,6,0,1,,,,,,,,0,,,85,80
209376,note_on,0,0,9,,,,,,,,7,,,69,0
209376,note_on,0,0,10,,,,,,,,8,,,69,0
209376,note_on,0,0,2,,,,,,,,1,,,76,0
209376,note_on,96,0,3,,,,,,,,2,,,57,0
209376,note_on,0,0,9,,,,,,,,7,,,85,0
209376,note_on,96,0,2,,,,,,,,1,,,79,0
209376,note_on,96,0,10,,,,,,,,8,,,79,0
209376,note_on,96,0,5,,,,,,,,4,,,69,0
209376,note_on,96,0,13,,,,,,,,12,,,45,0
209376,note_on,96,0,11,,,,,,,,10,,,69,0
209376,note_on,96,0,9,,,,,,,,7,,,76,0
209376,note_on,96,0,12,,,,,,,,11,,,57,0
209376,note_on,96,0,6,,,,,,,,5,,,45,0
209376,note_on,96,0,4,,,,,,,,3,,,57,0
209394,note_on,24,0,1,,,,,,,,0,,,85,0
209400,note_on,24,0,9,,,,,,,,7,,,86,80
209400,note_on,0,0,9,,,,,,,,7,,,78,80
209400,note_on,24,0,6,,,,,,,,5,,,50,80
209400,note_on,24,0,12,,,,,,,,11,,,50,80
209400,note_on,24,0,10,,,,,,,,8,,,62,80
209400,note_on,0,0,10,,,,,,,,8,,,69,80
209400,note_on,24,0,5,,,,,,,,4,,,62,80
209400,note_on,24,0,11,,,,,,,,10,,,62,80
209400,note_on,24,0,4,,,,,,,,3,,,50,80
209400,note_on,0,0,10,,,,,,,,8,,,78,80
209400,note_on,0,0,9,,,,,,,,7,,,62,80
209400,note_on,0,0,2,,,,,,,,1,,,78,80
209400,note_on,24,0,3,,,,,,,,2,,,50,80
209400,note_on,24,0,2,,,,,,,,1,,,74,80
209400,note_on,6,0,1,,,,,,,,0,,,86,80
209400,note_on,24,0,13,,,,,,,,12,,,38,80
209496,note_on,96,0,2,,,,,,,,1,,,78,0
209496,note_on,96,0,4,,,,,,,,3,,,50,0
209496,note_on,0,0,10,,,,,,,,8,,,62,0
209496,note_on,0,0,9,,,,,,,,7,,,78,0
209496,note_on,96,0,9,,,,,,,,7,,,62,0
209496,note_on,0,0,2,,,,,,,,1,,,74,0
209496,note_on,96,0,5,,,,,,,,4,,,62,0
209496,note_on,96,0,10,,,,,,,,8,,,69,0
209496,note_on,96,0,1,,,,,,,,0,,,86,0
209496,note_on,0,0,9,,,,,,,,7,,,86,0
209496,note_on,0,0,10,,,,,,,,8,,,78,0
209592,note_on,192,0,12,,,,,,,,11,,,50,0
209592,note_on,192,0,11,,,,,,,,10,,,62,0
209592,note_on,192,0,13,,,,,,,,12,,,38,0
209592,note_on,192,0,6,,,,,,,,5,,,50,0
209592,note_on,192,0,3,,,,,,,,2,,,50,0
209760,note_on,264,0,1,,,,,,,,0,,,86,80
209760,note_on,264,0,5,,,,,,,,4,,,74,80
209760,note_on,0,0,5,,,,,,,,4,,,66,80
209760,note_on,0,0,4,,,,,,,,3,,,62,80
209760,note_on,168,0,13,,,,,,,,12,,,38,80
209760,note_on,0,0,10,,,,,,,,8,,,62,80
209760,note_on,0,0,10,,,,,,,,8,,,78,80
209760,note_on,264,0,4,,,,,,,,3,,,54,80
209760,note_on,0,0,2,,,,,,,,1,,,78,80
209760,note_on,264,0,2,,,,,,,,1,,,69,80
209760,note_on,264,0,10,,,,,,,,8,,,69,80
209760,note_on,168,0,11,,,,,,,,10,,,62,80
209760,note_on,168,0,6,,,,,,,,5,,,50,80
209760,note_on,264,0,9,,,,,,,,7,,,86,80
209760,note_on,168,0,12,,,,,,,,11,,,50,80
209760,note_on,0,0,9,,,,,,,,7,,,62,80
209760,note_on,0,0,9,,,,,,,,7,,,78,80
209760,note_on,168,0,3,,,,,,,,2,,,50,80
209856,note_on,96,0,1,,,,,,,,0,,,86,0
209856,note_on,0,0,10,,,,,,,,8,,,69,0
209856,note_on,96,0,5,,,,,,,,4,,,66,0
209856,note_on,0,0,5,,,,,,,,4,,,74,0
209856,note_on,96,0,2,,,,,,,,1,,,78,0
209856,note_on,0,0,2,,,,,,,,1,,,69,0
209856,note_on,0,0,9,,,,,,,,7,,,78,0
209856,note_on,96,0,9,,,,,,,,7,,,62,0
209856,note_on,96,0,4,,,,,,,,3,,,62,0
209856,note_on,96,0,10,,,,,,,,8,,,78,0
209856,note_on,0,0,10,,,,,,,,8,,,62,0
209856,note_on,0,0,4,,,,,,,,3,,,54,0
209856,note_on,0,0,9,,,,,,,,7,,,86,0
209952,note_on,192,0,6,,,,,,,,5,,,50,0
209952,note_on,192,0,11,,,,,,,,10,,,62,0
209952,note_on,192,0,3,,,,,,,,2,,,50,0
209952,note_on,192,0,12,,,,,,,,11,,,50,0
209952,note_on,192,0,13,,,,,,,,12,,,38,0
210120,note_on,264,0,2,,,,,,,,1,,,69,80
210120,note_on,264,0,10,,,,,,,,8,,,62,80
210120,note_on,0,0,10,,,,,,,,8,,,69,80
210120,note_on,264,0,1,,,,,,,,0,,,86,80
210120,note_on,168,0,3,,,,,,,,2,,,50,80
210120,note_on,168,0,12,,,,,,,,11,,,50,80
210120,note_on,168,0,13,,,,,,,,12,,,38,80
210120,note_on,0,0,10,,,,,,,,8,,,78,80
210120,note_on,0,0,4,,,,,,,,3,,,62,80
210120,note_on,264,0,4,,,,,,,,3,,,54,80
210120,note_on,264,0,5,,,,,,,,4,,,74,80
210120,note_on,168,0,6,,,,,,,,5,,,50,80
210120,note_on,0,0,2,,,,,,,,1,,,78,80
210120,note_on,264,0,9,,,,,,,,7,,,86,80
210120,note_on,0,0,9,,,,,,,,7,,,78,80
210120,note_on,0,0,9,,,,,,,,7,,,62,80
210120,note_on,0,0,5,,,,,,,,4,,,66,80
210120,note_on,168,0,11,,,,,,,,10,,,62,80
210216,end_of_track,0,1,5,,,,,,,,,,,,
210216,note_on,0,0,5,,,,,,,,4,,,74,0
210216,note_on,96,0,5,,,,,,,,4,,,66,0
210216,note_on,96,0,1,,,,,,,,0,,,86,0
210216,end_of_track,0,1,1,,,,,,,,,,,,
210216,note_on,96,0,4,,,,,,,,3,,,62,0
210216,end_of_track,0,1,10,,,,,,,,,,,,
210216,note_on,0,0,4,,,,,,,,3,,,54,0
210216,note_on,0,0,10,,,,,,,,8,,,78,0
210216,end_of_track,0,1,4,,,,,,,,,,,,
210216,note_on,0,0,10,,,,,,,,8,,,62,0
210216,note_on,96,0,2,,,,,,,,1,,,78,0
210216,note_on,0,0,2,,,,,,,,1,,,69,0
210216,end_of_track,0,1,2,,,,,,,,,,,,
210216,end_of_track,0,1,9,,,,,,,,,,,,
210216,note_on,0,0,9,,,,,,,,7,,,78,0
210216,note_on,0,0,9,,,,,,,,7,,,86,0
210216,note_on,96,0,10,,,,,,,,8,,,69,0
210216,note_on,96,0,9,,,,,,,,7,,,62,0
210312,note_on,192,0,3,,,,,,,,2,,,50,0
210312,end_of_track,0,1,12,,,,,,,,,,,,
210312,note_on,192,0,12,,,,,,,,11,,,50,0
210312,note_on,192,0,11,,,,,,,,10,,,62,0
210312,end_of_track,0,1,11,,,,,,,,,,,,
210312,end_of_track,0,1,6,,,,,,,,,,,,
210312,note_on,192,0,6,,,,,,,,5,,,50,0
210312,end_of_track,0,1,13,,,,,,,,,,,,
210312,note_on,192,0,13,,,,,,,,12,,,38,0
210312,end_of_track,0,1,3,,,,,,,,,,,,
