tick,type,numerator,denominator,clocks_per_click,notated_32nd_notes_per_beat,time,meta,track,key,tempo,port,program,channel,control,value,pitch,note,velocity
0,time_signature,3,4,24,8,0,1,0,,,,,,,,,,
0,midi_port,,,,,0,1,6,,,0,,,,,,,
0,track_name,,,,,0,1,6,,,,,,,,,,
0,program_change,,,,,0,0,6,,,,48,5,,,,,
0,control_change,,,,,0,0,6,,,,,5,7,120,,,
0,control_change,,,,,0,0,6,,,,,5,10,127,,,
0,track_name,,,,,0,1,3,,,,,,,,,,
0,midi_port,,,,,0,1,7,,,0,,,,,,,
0,track_name,,,,,0,1,7,,,,,,,,,,
0,program_change,,,,,0,0,7,,,,48,6,,,,,
0,control_change,,,,,0,0,7,,,,,6,7,120,,,
0,control_change,,,,,0,0,7,,,,,6,10,48,,,
0,midi_port,,,,,0,1,8,,,0,,,,,,,
0,track_name,,,,,0,1,8,,,,,,,,,,
0,program_change,,,,,0,0,8,,,,48,7,,,,,
0,control_change,,,,,0,0,8,,,,,7,7,120,,,
0,control_change,,,,,0,0,8,,,,,7,10,96,,,
0,control_change,,,,,0,0,1,,,,,0,10,48,,,
0,control_change,,,,,0,0,1,,,,,0,7,120,,,
0,program_change,,,,,0,0,1,,,,68,0,,,,,
0,midi_port,,,,,0,1,9,,,0,,,,,,,
0,track_name,,,,,0,1,1,,,,,,,,,,
0,track_name,,,,,0,1,9,,,,,,,,,,
0,control_change,,,,,0,0,9,,,,,8,7,120,,,
0,program_change,,,,,0,0,3,,,,0,2,,,,,
0,control_change,,,,,0,0,3,,,,,2,7,120,,,
0,control_change,,,,,0,0,3,,,,,2,10,96,,,
0,midi_port,,,,,0,1,4,,,0,,,,,,,
0,track_name,,,,,0,1,4,,,,,,,,,,
0,program_change,,,,,0,0,4,,,,0,3,,,,,
0,control_change,,,,,0,0,4,,,,,3,7,120,,,
0,control_change,,,,,0,0,4,,,,,3,10,32,,,
0,midi_port,,,,,0,1,5,,,0,,,,,,,
0,track_name,,,,,0,1,5,,,,,,,,,,
0,program_change,,,,,0,0,5,,,,48,4,,,,,
0,control_change,,,,,0,0,5,,,,,4,7,120,,,
0,control_change,,,,,0,0,5,,,,,4,10,0,,,
0,control_change,,,,,0,0,2,,,,,1,10,96,,,
0,control_change,,,,,0,0,2,,,,,1,7,120,,,
0,program_change,,,,,0,0,2,,,,60,1,,,,,
0,track_name,,,,,0,1,2,,,,,,,,,,
0,midi_port,,,,,0,1,2,,,0,,,,,,,
0,control_change,,,,,0,0,9,,,,,8,10,64,,,
0,program_change,,,,,0,0,9,,,,43,8,,,,,
0,midi_port,,,,,0,1,1,,,0,,,,,,,
0,midi_port,,,,,0,1,3,,,0,,,,,,,
0,marker,,,,,0,1,0,,,,,,,,,,
0,key_signature,,,,,0,1,0,Eb,,,,,,,,,
0,set_tempo,,,,,0,1,0,,600000,,,,,,,,
0,marker,,,,,0,1,0,,,,,,,,,,
0,marker,,,,,0,1,0,,,,,,,,,,
0,marker,,,,,0,1,0,,,,,,,,,,
0,marker,,,,,0,1,0,,,,,,,,,,
46,pitchwheel,,,,,46,0,3,,,,,2,,,0,,
47,pitchwheel,,,,,47,0,7,,,,,6,,,0,,
48,pitchwheel,,,,,48,0,1,,,,,0,,,0,,
49,pitchwheel,,,,,49,0,8,,,,,7,,,0,,
50,pitchwheel,,,,,50,0,5,,,,,4,,,0,,
52,pitchwheel,,,,,52,0,2,,,,,1,,,0,,
54,pitchwheel,,,,,54,0,4,,,,,3,,,0,,
55,pitchwheel,,,,,55,0,6,,,,,5,,,0,,
56,pitchwheel,,,,,56,0,9,,,,,8,,,0,,
96,pitchwheel,,,,,50,0,3,,,,,2,,,0,,
97,pitchwheel,,,,,50,0,7,,,,,6,,,0,,
98,pitchwheel,,,,,50,0,1,,,,,0,,,10,,
99,pitchwheel,,,,,50,0,8,,,,,7,,,5,,
100,pitchwheel,,,,,50,0,5,,,,,4,,,-10,,
102,pitchwheel,,,,,50,0,2,,,,,1,,,5,,
104,pitchwheel,,,,,50,0,4,,,,,3,,,-5,,
105,pitchwheel,,,,,50,0,6,,,,,5,,,-10,,
106,pitchwheel,,,,,50,0,9,,,,,8,,,10,,
238,control_change,,,,,142,0,3,,,,,2,91,32,,,
239,control_change,,,,,142,0,7,,,,,6,91,33,,,
240,control_change,,,,,142,0,1,,,,,0,91,73,,,
241,control_change,,,,,142,0,8,,,,,7,91,49,,,
242,control_change,,,,,142,0,5,,,,,4,91,64,,,
244,control_change,,,,,142,0,2,,,,,1,91,106,,,
246,control_change,,,,,142,0,4,,,,,3,91,48,,,
247,control_change,,,,,142,0,6,,,,,5,91,64,,,
248,control_change,,,,,142,0,9,,,,,8,91,112,,,
288,control_change,,,,,50,0,3,,,,,2,93,1,,,
289,control_change,,,,,50,0,7,,,,,6,93,1,,,
290,control_change,,,,,50,0,1,,,,,0,93,4,,,
291,control_change,,,,,50,0,8,,,,,7,93,1,,,
292,control_change,,,,,50,0,5,,,,,4,93,1,,,
294,control_change,,,,,50,0,2,,,,,1,93,4,,,
296,control_change,,,,,50,0,4,,,,,3,93,1,,,
297,control_change,,,,,50,0,6,,,,,5,93,1,,,
298,control_change,,,,,50,0,9,,,,,8,93,20,,,
573,note_on,,,,,284,0,7,,,,,6,,,,63,92
574,note_on,,,,,284,0,1,,,,,0,,,,75,92
575,note_on,,,,,284,0,8,,,,,7,,,,51,92
576,note_on,,,,,0,0,5,,,,,4,,,,75,92
576,note_on,,,,,284,0,5,,,,,4,,,,63,92
576,set_tempo,,,,,576,1,0,,413793,,,,,,,,
578,note_on,,,,,284,0,2,,,,,1,,,,51,92
578,note_on,,,,,0,0,2,,,,,1,,,,63,92
581,note_on,,,,,0,0,6,,,,,5,,,,75,92
581,note_on,,,,,284,0,6,,,,,5,,,,63,92
582,note_on,,,,,284,0,9,,,,,8,,,,39,92
735,note_on,,,,,160,0,8,,,,,7,,,,51,0
742,note_on,,,,,160,0,9,,,,,8,,,,39,0
767,note_on,,,,,32,0,8,,,,,7,,,,63,92
774,note_on,,,,,32,0,9,,,,,8,,,,51,92
927,note_on,,,,,160,0,8,,,,,7,,,,63,0
934,note_on,,,,,160,0,9,,,,,8,,,,51,0
959,note_on,,,,,32,0,8,,,,,7,,,,63,92
966,note_on,,,,,32,0,9,,,,,8,,,,51,92
1101,note_on,,,,,528,0,7,,,,,6,,,,63,0
1102,note_on,,,,,528,0,1,,,,,0,,,,75,0
1104,note_on,,,,,528,0,5,,,,,4,,,,75,0
1104,note_on,,,,,0,0,5,,,,,4,,,,63,0
1106,note_on,,,,,528,0,2,,,,,1,,,,63,0
1106,note_on,,,,,0,0,2,,,,,1,,,,51,0
1109,note_on,,,,,0,0,6,,,,,5,,,,63,0
1109,note_on,,,,,528,0,6,,,,,5,,,,75,0
1119,note_on,,,,,160,0,8,,,,,7,,,,63,0
1126,note_on,,,,,160,0,9,,,,,8,,,,51,0
1149,note_on,,,,,48,0,7,,,,,6,,,,60,92
1150,note_on,,,,,48,0,1,,,,,0,,,,72,92
1151,note_on,,,,,32,0,8,,,,,7,,,,48,92
1152,note_on,,,,,48,0,5,,,,,4,,,,72,92
1154,note_on,,,,,0,0,2,,,,,1,,,,63,92
1154,note_on,,,,,48,0,2,,,,,1,,,,51,92
1157,note_on,,,,,48,0,6,,,,,5,,,,72,92
1158,note_on,,,,,32,0,9,,,,,8,,,,36,92
1311,note_on,,,,,160,0,8,,,,,7,,,,48,0
1318,note_on,,,,,160,0,9,,,,,8,,,,36,0
1343,note_on,,,,,32,0,8,,,,,7,,,,60,92
1350,note_on,,,,,32,0,9,,,,,8,,,,48,92
1503,note_on,,,,,160,0,8,,,,,7,,,,60,0
1510,note_on,,,,,160,0,9,,,,,8,,,,48,0
1535,note_on,,,,,32,0,8,,,,,7,,,,60,92
1542,note_on,,,,,32,0,9,,,,,8,,,,48,92
1677,note_on,,,,,528,0,7,,,,,6,,,,60,0
1678,note_on,,,,,528,0,1,,,,,0,,,,72,0
1680,note_on,,,,,528,0,5,,,,,4,,,,72,0
1682,note_on,,,,,0,0,2,,,,,1,,,,51,0
1682,note_on,,,,,528,0,2,,,,,1,,,,63,0
1685,note_on,,,,,528,0,6,,,,,5,,,,72,0
1695,note_on,,,,,160,0,8,,,,,7,,,,60,0
1702,note_on,,,,,160,0,9,,,,,8,,,,48,0
1725,note_on,,,,,48,0,7,,,,,6,,,,55,92
1726,note_on,,,,,48,0,1,,,,,0,,,,67,92
1727,note_on,,,,,32,0,8,,,,,7,,,,55,92
1728,note_on,,,,,48,0,5,,,,,4,,,,67,92
1730,note_on,,,,,48,0,2,,,,,1,,,,51,92
1730,note_on,,,,,0,0,2,,,,,1,,,,63,92
1733,note_on,,,,,48,0,6,,,,,5,,,,67,92
1734,note_on,,,,,32,0,9,,,,,8,,,,43,92
1885,note_on,,,,,160,0,7,,,,,6,,,,55,0
1886,note_on,,,,,160,0,1,,,,,0,,,,67,0
1887,note_on,,,,,160,0,8,,,,,7,,,,55,0
1888,note_on,,,,,160,0,5,,,,,4,,,,67,0
1890,note_on,,,,,160,0,2,,,,,1,,,,63,0
1890,note_on,,,,,0,0,2,,,,,1,,,,51,0
1893,note_on,,,,,160,0,6,,,,,5,,,,67,0
1894,note_on,,,,,160,0,9,,,,,8,,,,43,0
1917,note_on,,,,,32,0,7,,,,,6,,,,57,75
1918,note_on,,,,,32,0,1,,,,,0,,,,69,75
1919,note_on,,,,,32,0,8,,,,,7,,,,57,75
1920,note_on,,,,,32,0,5,,,,,4,,,,69,75
1922,note_on,,,,,0,0,2,,,,,1,,,,63,75
1922,note_on,,,,,32,0,2,,,,,1,,,,51,75
1925,note_on,,,,,32,0,6,,,,,5,,,,69,75
1926,note_on,,,,,32,0,9,,,,,8,,,,45,75
1949,note_on,,,,,32,0,7,,,,,6,,,,57,0
1949,note_on,,,,,0,0,7,,,,,6,,,,58,75
1950,note_on,,,,,32,0,1,,,,,0,,,,69,0
1950,note_on,,,,,0,0,1,,,,,0,,,,70,75
1951,note_on,,,,,32,0,8,,,,,7,,,,57,0
1951,note_on,,,,,0,0,8,,,,,7,,,,58,75
1952,note_on,,,,,32,0,5,,,,,4,,,,69,0
1952,note_on,,,,,0,0,5,,,,,4,,,,70,75
1957,note_on,,,,,32,0,6,,,,,5,,,,69,0
1957,note_on,,,,,0,0,6,,,,,5,,,,70,75
1958,note_on,,,,,0,0,9,,,,,8,,,,46,75
1958,note_on,,,,,32,0,9,,,,,8,,,,45,0
1981,note_on,,,,,32,0,7,,,,,6,,,,58,0
1981,note_on,,,,,0,0,7,,,,,6,,,,57,75
1982,note_on,,,,,0,0,1,,,,,0,,,,69,75
1982,note_on,,,,,32,0,1,,,,,0,,,,70,0
1983,note_on,,,,,32,0,8,,,,,7,,,,58,0
1983,note_on,,,,,0,0,8,,,,,7,,,,57,75
1984,note_on,,,,,32,0,5,,,,,4,,,,70,0
1984,note_on,,,,,0,0,5,,,,,4,,,,69,75
1989,note_on,,,,,0,0,6,,,,,5,,,,69,75
1989,note_on,,,,,32,0,6,,,,,5,,,,70,0
1990,note_on,,,,,0,0,9,,,,,8,,,,45,75
1990,note_on,,,,,32,0,9,,,,,8,,,,46,0
2013,note_on,,,,,32,0,7,,,,,6,,,,57,0
2013,note_on,,,,,0,0,7,,,,,6,,,,58,75
2014,note_on,,,,,0,0,1,,,,,0,,,,70,75
2014,note_on,,,,,32,0,1,,,,,0,,,,69,0
2015,note_on,,,,,0,0,8,,,,,7,,,,58,75
2015,note_on,,,,,32,0,8,,,,,7,,,,57,0
2016,note_on,,,,,0,0,5,,,,,4,,,,70,75
2016,note_on,,,,,32,0,5,,,,,4,,,,69,0
2021,note_on,,,,,0,0,6,,,,,5,,,,70,75
2021,note_on,,,,,32,0,6,,,,,5,,,,69,0
2022,note_on,,,,,0,0,9,,,,,8,,,,46,75
2022,note_on,,,,,32,0,9,,,,,8,,,,45,0
2045,note_on,,,,,0,0,7,,,,,6,,,,57,75
2045,note_on,,,,,32,0,7,,,,,6,,,,58,0
2046,note_on,,,,,32,0,1,,,,,0,,,,70,0
2046,note_on,,,,,0,0,1,,,,,0,,,,69,75
2047,note_on,,,,,32,0,8,,,,,7,,,,58,0
2047,note_on,,,,,0,0,8,,,,,7,,,,57,75
2048,note_on,,,,,32,0,5,,,,,4,,,,70,0
2048,note_on,,,,,0,0,5,,,,,4,,,,69,75
2053,note_on,,,,,0,0,6,,,,,5,,,,69,75
2053,note_on,,,,,32,0,6,,,,,5,,,,70,0
2054,note_on,,,,,0,0,9,,,,,8,,,,45,75
2054,note_on,,,,,32,0,9,,,,,8,,,,46,0
2077,note_on,,,,,32,0,7,,,,,6,,,,57,0
2077,note_on,,,,,0,0,7,,,,,6,,,,58,75
2078,note_on,,,,,32,0,1,,,,,0,,,,69,0
2078,note_on,,,,,0,0,1,,,,,0,,,,70,75
2079,note_on,,,,,32,0,8,,,,,7,,,,57,0
2079,note_on,,,,,0,0,8,,,,,7,,,,58,75
2080,note_on,,,,,32,0,5,,,,,4,,,,69,0
2080,note_on,,,,,0,0,5,,,,,4,,,,70,75
2085,note_on,,,,,32,0,6,,,,,5,,,,69,0
2085,note_on,,,,,0,0,6,,,,,5,,,,70,75
2086,note_on,,,,,32,0,9,,,,,8,,,,45,0
2086,note_on,,,,,0,0,9,,,,,8,,,,46,75
2109,note_on,,,,,32,0,7,,,,,6,,,,58,0
2109,note_on,,,,,0,0,7,,,,,6,,,,57,75
2110,note_on,,,,,0,0,1,,,,,0,,,,69,75
2110,note_on,,,,,32,0,1,,,,,0,,,,70,0
2111,note_on,,,,,0,0,8,,,,,7,,,,57,75
2111,note_on,,,,,32,0,8,,,,,7,,,,58,0
2112,note_on,,,,,0,0,5,,,,,4,,,,69,75
2112,note_on,,,,,32,0,5,,,,,4,,,,70,0
2117,note_on,,,,,32,0,6,,,,,5,,,,70,0
2117,note_on,,,,,0,0,6,,,,,5,,,,69,75
2118,note_on,,,,,0,0,9,,,,,8,,,,45,75
2118,note_on,,,,,32,0,9,,,,,8,,,,46,0
2141,note_on,,,,,0,0,7,,,,,6,,,,58,75
2141,note_on,,,,,32,0,7,,,,,6,,,,57,0
2142,note_on,,,,,0,0,1,,,,,0,,,,70,75
2142,note_on,,,,,32,0,1,,,,,0,,,,69,0
2143,note_on,,,,,32,0,8,,,,,7,,,,57,0
2143,note_on,,,,,0,0,8,,,,,7,,,,58,75
2144,note_on,,,,,0,0,5,,,,,4,,,,70,75
2144,note_on,,,,,32,0,5,,,,,4,,,,69,0
2149,note_on,,,,,0,0,6,,,,,5,,,,70,75
2149,note_on,,,,,32,0,6,,,,,5,,,,69,0
2150,note_on,,,,,0,0,9,,,,,8,,,,46,75
2150,note_on,,,,,32,0,9,,,,,8,,,,45,0
2173,note_on,,,,,0,0,7,,,,,6,,,,57,75
2173,note_on,,,,,32,0,7,,,,,6,,,,58,0
2174,note_on,,,,,32,0,1,,,,,0,,,,70,0
2174,note_on,,,,,0,0,1,,,,,0,,,,69,75
2175,note_on,,,,,32,0,8,,,,,7,,,,58,0
2175,note_on,,,,,0,0,8,,,,,7,,,,57,75
2176,note_on,,,,,32,0,5,,,,,4,,,,70,0
2176,note_on,,,,,0,0,5,,,,,4,,,,69,75
2181,note_on,,,,,32,0,6,,,,,5,,,,70,0
2181,note_on,,,,,0,0,6,,,,,5,,,,69,75
2182,note_on,,,,,0,0,9,,,,,8,,,,45,75
2182,note_on,,,,,32,0,9,,,,,8,,,,46,0
2205,note_on,,,,,32,0,7,,,,,6,,,,57,0
2205,note_on,,,,,0,0,7,,,,,6,,,,55,75
2206,note_on,,,,,0,0,1,,,,,0,,,,67,75
2206,note_on,,,,,32,0,1,,,,,0,,,,69,0
2207,note_on,,,,,0,0,8,,,,,7,,,,55,75
2207,note_on,,,,,32,0,8,,,,,7,,,,57,0
2208,note_on,,,,,32,0,5,,,,,4,,,,69,0
2208,note_on,,,,,0,0,5,,,,,4,,,,67,75
2213,note_on,,,,,32,0,6,,,,,5,,,,69,0
2213,note_on,,,,,0,0,6,,,,,5,,,,67,75
2214,note_on,,,,,32,0,9,,,,,8,,,,45,0
2214,note_on,,,,,0,0,9,,,,,8,,,,43,75
2253,note_on,,,,,0,0,7,,,,,6,,,,57,75
2253,note_on,,,,,48,0,7,,,,,6,,,,55,0
2254,note_on,,,,,48,0,1,,,,,0,,,,67,0
2254,note_on,,,,,0,0,1,,,,,0,,,,69,75
2255,note_on,,,,,48,0,8,,,,,7,,,,55,0
2255,note_on,,,,,0,0,8,,,,,7,,,,57,75
2256,note_on,,,,,0,0,5,,,,,4,,,,69,75
2256,note_on,,,,,48,0,5,,,,,4,,,,67,0
2258,note_on,,,,,0,0,2,,,,,1,,,,51,0
2258,note_on,,,,,336,0,2,,,,,1,,,,63,0
2261,note_on,,,,,0,0,6,,,,,5,,,,69,75
2261,note_on,,,,,48,0,6,,,,,5,,,,67,0
2262,note_on,,,,,0,0,9,,,,,8,,,,45,75
2262,note_on,,,,,48,0,9,,,,,8,,,,43,0
2299,note_on,,,,,46,0,7,,,,,6,,,,57,0
2300,note_on,,,,,46,0,1,,,,,0,,,,69,0
2301,note_on,,,,,2,0,7,,,,,6,,,,58,67
2301,note_on,,,,,46,0,8,,,,,7,,,,57,0
2302,note_on,,,,,46,0,5,,,,,4,,,,69,0
2302,note_on,,,,,2,0,1,,,,,0,,,,70,67
2303,note_on,,,,,2,0,8,,,,,7,,,,58,67
2304,note_on,,,,,2,0,5,,,,,4,,,,70,67
2306,note_on,,,,,48,0,2,,,,,1,,,,46,75
2306,note_on,,,,,0,0,2,,,,,1,,,,58,75
2307,note_on,,,,,46,0,6,,,,,5,,,,69,0
2308,note_on,,,,,46,0,9,,,,,8,,,,45,0
2309,note_on,,,,,2,0,6,,,,,5,,,,70,67
2310,note_on,,,,,2,0,9,,,,,8,,,,46,67
2829,note_on,,,,,528,0,7,,,,,6,,,,58,0
2830,note_on,,,,,528,0,1,,,,,0,,,,70,0
2831,note_on,,,,,528,0,8,,,,,7,,,,58,0
2832,note_on,,,,,528,0,5,,,,,4,,,,70,0
2834,note_on,,,,,0,0,2,,,,,1,,,,46,0
2834,note_on,,,,,528,0,2,,,,,1,,,,58,0
2837,note_on,,,,,528,0,6,,,,,5,,,,70,0
2838,note_on,,,,,528,0,9,,,,,8,,,,46,0
2880,note_on,,,,,48,0,5,,,,,4,,,,65,37
2885,note_on,,,,,48,0,6,,,,,5,,,,62,37
3040,note_on,,,,,160,0,5,,,,,4,,,,65,0
3045,note_on,,,,,160,0,6,,,,,5,,,,62,0
3072,note_on,,,,,32,0,5,,,,,4,,,,67,37
3077,note_on,,,,,32,0,6,,,,,5,,,,64,37
3104,note_on,,,,,0,0,5,,,,,4,,,,68,37
3104,note_on,,,,,32,0,5,,,,,4,,,,67,0
3109,note_on,,,,,32,0,6,,,,,5,,,,64,0
3109,note_on,,,,,0,0,6,,,,,5,,,,65,37
3136,note_on,,,,,0,0,5,,,,,4,,,,67,37
3136,note_on,,,,,32,0,5,,,,,4,,,,68,0
3141,note_on,,,,,32,0,6,,,,,5,,,,65,0
3141,note_on,,,,,0,0,6,,,,,5,,,,64,37
3168,note_on,,,,,0,0,5,,,,,4,,,,68,37
3168,note_on,,,,,32,0,5,,,,,4,,,,67,0
3173,note_on,,,,,32,0,6,,,,,5,,,,64,0
3173,note_on,,,,,0,0,6,,,,,5,,,,65,37
3200,note_on,,,,,32,0,5,,,,,4,,,,68,0
3200,note_on,,,,,0,0,5,,,,,4,,,,67,37
3205,note_on,,,,,32,0,6,,,,,5,,,,65,0
3205,note_on,,,,,0,0,6,,,,,5,,,,64,37
3232,note_on,,,,,0,0,5,,,,,4,,,,68,37
3232,note_on,,,,,32,0,5,,,,,4,,,,67,0
3237,note_on,,,,,32,0,6,,,,,5,,,,64,0
3237,note_on,,,,,0,0,6,,,,,5,,,,65,37
3264,note_on,,,,,0,0,5,,,,,4,,,,67,37
3264,note_on,,,,,32,0,5,,,,,4,,,,68,0
3269,note_on,,,,,32,0,6,,,,,5,,,,65,0
3269,note_on,,,,,0,0,6,,,,,5,,,,64,37
3296,note_on,,,,,32,0,5,,,,,4,,,,67,0
3296,note_on,,,,,0,0,5,,,,,4,,,,68,37
3301,note_on,,,,,0,0,6,,,,,5,,,,65,37
3301,note_on,,,,,32,0,6,,,,,5,,,,64,0
3328,note_on,,,,,0,0,5,,,,,4,,,,67,37
3328,note_on,,,,,32,0,5,,,,,4,,,,68,0
3333,note_on,,,,,32,0,6,,,,,5,,,,65,0
3333,note_on,,,,,0,0,6,,,,,5,,,,64,37
3360,note_on,,,,,32,0,5,,,,,4,,,,67,0
3360,note_on,,,,,0,0,5,,,,,4,,,,65,37
3365,note_on,,,,,0,0,6,,,,,5,,,,62,37
3365,note_on,,,,,32,0,6,,,,,5,,,,64,0
3408,note_on,,,,,48,0,5,,,,,4,,,,65,0
3408,note_on,,,,,0,0,5,,,,,4,,,,67,37
3413,note_on,,,,,0,0,6,,,,,5,,,,64,37
3413,note_on,,,,,48,0,6,,,,,5,,,,62,0
3453,note_on,,,,,624,0,7,,,,,6,,,,60,45
3454,note_on,,,,,46,0,5,,,,,4,,,,67,0
3455,note_on,,,,,624,0,8,,,,,7,,,,44,45
3456,note_on,,,,,2,0,5,,,,,4,,,,68,45
3459,note_on,,,,,46,0,6,,,,,5,,,,64,0
3461,note_on,,,,,2,0,6,,,,,5,,,,65,45
3462,note_on,,,,,624,0,9,,,,,8,,,,32,45
3744,note_on,,,,,288,0,5,,,,,4,,,,68,0
3744,note_on,,,,,0,0,5,,,,,4,,,,70,45
3749,note_on,,,,,0,0,6,,,,,5,,,,67,45
3749,note_on,,,,,288,0,6,,,,,5,,,,65,0
3837,note_on,,,,,384,0,7,,,,,6,,,,60,0
3837,note_on,,,,,0,0,7,,,,,6,,,,53,45
3840,note_on,,,,,0,0,5,,,,,4,,,,72,45
3840,note_on,,,,,96,0,5,,,,,4,,,,70,0
3845,note_on,,,,,96,0,6,,,,,5,,,,67,0
3845,note_on,,,,,0,0,6,,,,,5,,,,68,45
3997,note_on,,,,,160,0,7,,,,,6,,,,53,0
4000,note_on,,,,,160,0,5,,,,,4,,,,72,0
4005,note_on,,,,,160,0,6,,,,,5,,,,68,0
4029,note_on,,,,,32,0,7,,,,,6,,,,50,45
4031,note_on,,,,,0,0,8,,,,,7,,,,46,45
4031,note_on,,,,,576,0,8,,,,,7,,,,44,0
4032,note_on,,,,,32,0,5,,,,,4,,,,58,45
4037,note_on,,,,,32,0,6,,,,,5,,,,58,45
4038,note_on,,,,,576,0,9,,,,,8,,,,32,0
4038,note_on,,,,,0,0,9,,,,,8,,,,34,45
4077,note_on,,,,,48,0,7,,,,,6,,,,50,0
4080,note_on,,,,,48,0,5,,,,,4,,,,58,0
4221,note_on,,,,,144,0,7,,,,,6,,,,51,45
4224,note_on,,,,,144,0,5,,,,,4,,,,60,45
4269,note_on,,,,,48,0,7,,,,,6,,,,51,0
4272,note_on,,,,,48,0,5,,,,,4,,,,60,0
4413,note_on,,,,,144,0,7,,,,,6,,,,53,45
4416,note_on,,,,,144,0,5,,,,,4,,,,62,45
4421,note_on,,,,,384,0,6,,,,,5,,,,58,0
4421,note_on,,,,,0,0,6,,,,,5,,,,56,45
4461,note_on,,,,,48,0,7,,,,,6,,,,53,0
4464,note_on,,,,,48,0,5,,,,,4,,,,62,0
4559,note_on,,,,,528,0,8,,,,,7,,,,46,0
4566,note_on,,,,,528,0,9,,,,,8,,,,34,0
4581,note_on,,,,,160,0,6,,,,,5,,,,56,0
4605,note_on,,,,,144,0,7,,,,,6,,,,51,45
4607,note_on,,,,,48,0,8,,,,,7,,,,39,45
4608,set_tempo,,,,,4032,1,0,,444444,,,,,,,,
4608,note_on,,,,,144,0,5,,,,,4,,,,63,45
4613,note_on,,,,,32,0,6,,,,,5,,,,55,45
4614,note_on,,,,,48,0,9,,,,,8,,,,27,45
4704,note_on,,,,,0,0,5,,,,,4,,,,67,45
4704,note_on,,,,,96,0,5,,,,,4,,,,63,0
4765,note_on,,,,,160,0,7,,,,,6,,,,51,0
4767,note_on,,,,,160,0,8,,,,,7,,,,39,0
4773,note_on,,,,,160,0,6,,,,,5,,,,55,0
4774,note_on,,,,,160,0,9,,,,,8,,,,27,0
4800,note_on,,,,,96,0,5,,,,,4,,,,67,0
4800,note_on,,,,,0,0,5,,,,,4,,,,70,45
4896,note_on,,,,,96,0,5,,,,,4,,,,70,0
4896,note_on,,,,,0,0,5,,,,,4,,,,75,45
4992,note_on,,,,,96,0,5,,,,,4,,,,75,0
4992,note_on,,,,,0,0,5,,,,,4,,,,79,45
5088,note_on,,,,,96,0,5,,,,,4,,,,79,0
5088,note_on,,,,,0,0,5,,,,,4,,,,75,45
5181,note_on,,,,,416,0,7,,,,,6,,,,62,45
5182,note_on,,,,,94,0,5,,,,,4,,,,75,0
5184,note_on,,,,,2,0,5,,,,,4,,,,82,45
5189,note_on,,,,,416,0,6,,,,,5,,,,65,45
5341,note_on,,,,,160,0,7,,,,,6,,,,62,0
5344,note_on,,,,,160,0,5,,,,,4,,,,82,0
5349,note_on,,,,,160,0,6,,,,,5,,,,65,0
5373,note_on,,,,,32,0,7,,,,,6,,,,64,45
5376,note_on,,,,,32,0,5,,,,,4,,,,82,45
5381,note_on,,,,,32,0,6,,,,,5,,,,67,45
5405,note_on,,,,,0,0,7,,,,,6,,,,65,45
5405,note_on,,,,,32,0,7,,,,,6,,,,64,0
5413,note_on,,,,,32,0,6,,,,,5,,,,67,0
5413,note_on,,,,,0,0,6,,,,,5,,,,68,45
5437,note_on,,,,,32,0,7,,,,,6,,,,65,0
5437,note_on,,,,,0,0,7,,,,,6,,,,64,45
5445,note_on,,,,,32,0,6,,,,,5,,,,68,0
5445,note_on,,,,,0,0,6,,,,,5,,,,67,45
5469,note_on,,,,,32,0,7,,,,,6,,,,64,0
5469,note_on,,,,,0,0,7,,,,,6,,,,65,45
5477,note_on,,,,,0,0,6,,,,,5,,,,68,45
5477,note_on,,,,,32,0,6,,,,,5,,,,67,0
5501,note_on,,,,,32,0,7,,,,,6,,,,65,0
5501,note_on,,,,,0,0,7,,,,,6,,,,64,45
5509,note_on,,,,,32,0,6,,,,,5,,,,68,0
5509,note_on,,,,,0,0,6,,,,,5,,,,67,45
5533,note_on,,,,,32,0,7,,,,,6,,,,64,0
5533,note_on,,,,,0,0,7,,,,,6,,,,65,45
5536,note_on,,,,,160,0,5,,,,,4,,,,82,0
5541,note_on,,,,,32,0,6,,,,,5,,,,67,0
5541,note_on,,,,,0,0,6,,,,,5,,,,68,45
5565,note_on,,,,,0,0,7,,,,,6,,,,64,45
5565,note_on,,,,,32,0,7,,,,,6,,,,65,0
5568,note_on,,,,,32,0,5,,,,,4,,,,82,45
5573,note_on,,,,,32,0,6,,,,,5,,,,68,0
5573,note_on,,,,,0,0,6,,,,,5,,,,67,45
5597,note_on,,,,,32,0,7,,,,,6,,,,64,0
5597,note_on,,,,,0,0,7,,,,,6,,,,65,45
5605,note_on,,,,,32,0,6,,,,,5,,,,67,0
5605,note_on,,,,,0,0,6,,,,,5,,,,68,45
5629,note_on,,,,,32,0,7,,,,,6,,,,65,0
5629,note_on,,,,,0,0,7,,,,,6,,,,64,45
5637,note_on,,,,,0,0,6,,,,,5,,,,67,45
5637,note_on,,,,,32,0,6,,,,,5,,,,68,0
5661,note_on,,,,,0,0,7,,,,,6,,,,62,45
5661,note_on,,,,,32,0,7,,,,,6,,,,64,0
5669,note_on,,,,,0,0,6,,,,,5,,,,65,45
5669,note_on,,,,,32,0,6,,,,,5,,,,67,0
5709,note_on,,,,,0,0,7,,,,,6,,,,64,45
5709,note_on,,,,,48,0,7,,,,,6,,,,62,0
5717,note_on,,,,,0,0,6,,,,,5,,,,67,45
5717,note_on,,,,,48,0,6,,,,,5,,,,65,0
5728,note_on,,,,,160,0,5,,,,,4,,,,82,0
5755,note_on,,,,,46,0,7,,,,,6,,,,64,0
5757,note_on,,,,,2,0,7,,,,,6,,,,65,45
5759,note_on,,,,,992,0,8,,,,,7,,,,44,45
5760,note_on,,,,,32,0,5,,,,,4,,,,82,45
5763,note_on,,,,,46,0,6,,,,,5,,,,67,0
5765,note_on,,,,,2,0,6,,,,,5,,,,68,45
5766,note_on,,,,,992,0,9,,,,,8,,,,32,45
5856,note_on,,,,,96,0,5,,,,,4,,,,82,0
5856,note_on,,,,,0,0,5,,,,,4,,,,83,45
5952,note_on,,,,,0,0,5,,,,,4,,,,84,45
5952,note_on,,,,,96,0,5,,,,,4,,,,83,0
6045,note_on,,,,,288,0,7,,,,,6,,,,65,0
6045,note_on,,,,,0,0,7,,,,,6,,,,67,45
6048,note_on,,,,,0,0,5,,,,,4,,,,76,45
6048,note_on,,,,,96,0,5,,,,,4,,,,84,0
6053,note_on,,,,,288,0,6,,,,,5,,,,68,0
6053,note_on,,,,,0,0,6,,,,,5,,,,70,45
6141,note_on,,,,,96,0,7,,,,,6,,,,67,0
6141,note_on,,,,,0,0,7,,,,,6,,,,68,45
6144,note_on,,,,,0,0,5,,,,,4,,,,77,45
6144,note_on,,,,,96,0,5,,,,,4,,,,76,0
6149,note_on,,,,,96,0,6,,,,,5,,,,70,0
6149,note_on,,,,,0,0,6,,,,,5,,,,72,45
6240,note_on,,,,,0,0,5,,,,,4,,,,79,45
6240,note_on,,,,,96,0,5,,,,,4,,,,77,0
6301,note_on,,,,,160,0,7,,,,,6,,,,68,0
6309,note_on,,,,,160,0,6,,,,,5,,,,72,0
6333,note_on,,,,,32,0,7,,,,,6,,,,50,45
6335,note_on,,,,,576,0,8,,,,,7,,,,44,0
6335,note_on,,,,,0,0,8,,,,,7,,,,46,45
6336,note_on,,,,,96,0,5,,,,,4,,,,79,0
6336,note_on,,,,,0,0,5,,,,,4,,,,80,45
6341,note_on,,,,,32,0,6,,,,,5,,,,58,45
6342,note_on,,,,,576,0,9,,,,,8,,,,32,0
6342,note_on,,,,,0,0,9,,,,,8,,,,34,45
6381,note_on,,,,,48,0,7,,,,,6,,,,50,0
6389,note_on,,,,,48,0,6,,,,,5,,,,58,0
6432,note_on,,,,,96,0,5,,,,,4,,,,80,0
6432,note_on,,,,,0,0,5,,,,,4,,,,77,45
6525,note_on,,,,,144,0,7,,,,,6,,,,51,45
6528,note_on,,,,,96,0,5,,,,,4,,,,77,0
6528,note_on,,,,,0,0,5,,,,,4,,,,75,45
6533,note_on,,,,,144,0,6,,,,,5,,,,60,45
6573,note_on,,,,,48,0,7,,,,,6,,,,51,0
6581,note_on,,,,,48,0,6,,,,,5,,,,60,0
6624,note_on,,,,,0,0,5,,,,,4,,,,74,45
6624,note_on,,,,,96,0,5,,,,,4,,,,75,0
6717,note_on,,,,,144,0,7,,,,,6,,,,53,45
6720,note_on,,,,,96,0,5,,,,,4,,,,74,0
6720,note_on,,,,,0,0,5,,,,,4,,,,72,45
6725,note_on,,,,,144,0,6,,,,,5,,,,56,45
6725,note_on,,,,,0,0,6,,,,,5,,,,62,45
6765,note_on,,,,,48,0,7,,,,,6,,,,53,0
6773,note_on,,,,,48,0,6,,,,,5,,,,62,0
6773,note_on,,,,,0,0,6,,,,,5,,,,56,0
6816,note_on,,,,,96,0,5,,,,,4,,,,72,0
6816,note_on,,,,,0,0,5,,,,,4,,,,70,45
6863,note_on,,,,,528,0,8,,,,,7,,,,46,0
6870,note_on,,,,,528,0,9,,,,,8,,,,34,0
6909,note_on,,,,,144,0,7,,,,,6,,,,51,45
6910,note_on,,,,,94,0,5,,,,,4,,,,70,0
6911,note_on,,,,,48,0,8,,,,,7,,,,51,45
6912,note_on,,,,,2,0,5,,,,,4,,,,70,45
6917,note_on,,,,,0,0,6,,,,,5,,,,63,45
6917,note_on,,,,,144,0,6,,,,,5,,,,55,45
6918,note_on,,,,,48,0,9,,,,,8,,,,39,45
7008,note_on,,,,,0,0,5,,,,,4,,,,75,45
7008,note_on,,,,,96,0,5,,,,,4,,,,70,0
7069,note_on,,,,,160,0,7,,,,,6,,,,51,0
7071,note_on,,,,,160,0,8,,,,,7,,,,51,0
7077,note_on,,,,,160,0,6,,,,,5,,,,63,0
7077,note_on,,,,,0,0,6,,,,,5,,,,55,0
7078,note_on,,,,,160,0,9,,,,,8,,,,39,0
7104,note_on,,,,,0,0,5,,,,,4,,,,70,45
7104,note_on,,,,,96,0,5,,,,,4,,,,75,0
7198,note_on,,,,,94,0,5,,,,,4,,,,70,0
7200,note_on,,,,,2,0,5,,,,,4,,,,70,45
7294,note_on,,,,,94,0,5,,,,,4,,,,70,0
7296,note_on,,,,,2,0,5,,,,,4,,,,70,45
7390,note_on,,,,,94,0,5,,,,,4,,,,70,0
7392,note_on,,,,,2,0,5,,,,,4,,,,70,45
7485,note_on,,,,,416,0,7,,,,,6,,,,50,45
7485,note_on,,,,,0,0,7,,,,,6,,,,58,45
7486,note_on,,,,,94,0,5,,,,,4,,,,70,0
7488,note_on,,,,,2,0,5,,,,,4,,,,70,45
7490,note_on,,,,,4656,0,2,,,,,1,,,,46,45
7490,note_on,,,,,0,0,2,,,,,1,,,,58,45
7493,note_on,,,,,416,0,6,,,,,5,,,,68,45
7533,note_on,,,,,0,0,7,,,,,6,,,,50,0
7533,note_on,,,,,48,0,7,,,,,6,,,,58,0
7582,note_on,,,,,94,0,5,,,,,4,,,,70,0
7584,note_on,,,,,2,0,5,,,,,4,,,,70,45
7589,note_on,,,,,96,0,6,,,,,5,,,,68,0
7589,note_on,,,,,0,0,6,,,,,5,,,,65,45
7650,note_on,,,,,0,0,2,,,,,1,,,,46,0
7650,note_on,,,,,160,0,2,,,,,1,,,,58,0
7677,note_on,,,,,0,0,7,,,,,6,,,,60,45
7677,note_on,,,,,144,0,7,,,,,6,,,,51,45
7678,note_on,,,,,94,0,5,,,,,4,,,,70,0
7680,note_on,,,,,2,0,5,,,,,4,,,,70,45
7682,note_on,,,,,0,0,2,,,,,1,,,,58,45
7682,note_on,,,,,32,0,2,,,,,1,,,,46,45
7685,note_on,,,,,96,0,6,,,,,5,,,,65,0
7685,note_on,,,,,0,0,6,,,,,5,,,,63,45
7725,note_on,,,,,0,0,7,,,,,6,,,,51,0
7725,note_on,,,,,48,0,7,,,,,6,,,,60,0
7774,note_on,,,,,94,0,5,,,,,4,,,,70,0
7776,note_on,,,,,2,0,5,,,,,4,,,,70,45
7781,note_on,,,,,0,0,6,,,,,5,,,,62,45
7781,note_on,,,,,96,0,6,,,,,5,,,,63,0
7842,note_on,,,,,0,0,2,,,,,1,,,,46,0
7842,note_on,,,,,160,0,2,,,,,1,,,,58,0
7869,note_on,,,,,144,0,7,,,,,6,,,,53,45
7869,note_on,,,,,0,0,7,,,,,6,,,,62,45
7870,note_on,,,,,94,0,5,,,,,4,,,,70,0
7870,note_on,,,,,0,0,1,,,,,0,,,,74,45
7870,note_on,,,,,5040,0,1,,,,,0,,,,68,45
7872,note_on,,,,,2,0,5,,,,,4,,,,70,45
7874,note_on,,,,,32,0,2,,,,,1,,,,46,45
7874,note_on,,,,,0,0,2,,,,,1,,,,58,45
7877,note_on,,,,,96,0,6,,,,,5,,,,62,0
7877,note_on,,,,,0,0,6,,,,,5,,,,60,45
7917,note_on,,,,,0,0,7,,,,,6,,,,53,0
7917,note_on,,,,,48,0,7,,,,,6,,,,62,0
7966,note_on,,,,,94,0,5,,,,,4,,,,70,0
7968,note_on,,,,,2,0,5,,,,,4,,,,70,45
7973,note_on,,,,,0,0,6,,,,,5,,,,58,45
7973,note_on,,,,,96,0,6,,,,,5,,,,60,0
8034,note_on,,,,,160,0,2,,,,,1,,,,58,0
8034,note_on,,,,,0,0,2,,,,,1,,,,46,0
8061,note_on,,,,,144,0,7,,,,,6,,,,55,45
8061,note_on,,,,,0,0,7,,,,,6,,,,63,45
8062,note_on,,,,,192,0,1,,,,,0,,,,74,0
8062,note_on,,,,,0,0,1,,,,,0,,,,68,0
8062,note_on,,,,,0,0,1,,,,,0,,,,67,45
8062,note_on,,,,,0,0,1,,,,,0,,,,75,45
8062,note_on,,,,,94,0,5,,,,,4,,,,70,0
8064,note_on,,,,,2,0,5,,,,,4,,,,70,45
8066,note_on,,,,,32,0,2,,,,,1,,,,51,45
8066,note_on,,,,,0,0,2,,,,,1,,,,58,45
8067,note_on,,,,,94,0,6,,,,,5,,,,58,0
8069,note_on,,,,,2,0,6,,,,,5,,,,58,45
8165,note_on,,,,,96,0,6,,,,,5,,,,58,0
8165,note_on,,,,,0,0,6,,,,,5,,,,63,45
8221,note_on,,,,,0,0,7,,,,,6,,,,55,0
8221,note_on,,,,,160,0,7,,,,,6,,,,63,0
8222,note_on,,,,,160,0,1,,,,,0,,,,75,0
8222,note_on,,,,,0,0,1,,,,,0,,,,67,0
8224,note_on,,,,,160,0,5,,,,,4,,,,70,0
8226,note_on,,,,,0,0,2,,,,,1,,,,51,0
8226,note_on,,,,,160,0,2,,,,,1,,,,58,0
8261,note_on,,,,,96,0,6,,,,,5,,,,63,0
8261,note_on,,,,,0,0,6,,,,,5,,,,58,45
8355,note_on,,,,,94,0,6,,,,,5,,,,58,0
8357,note_on,,,,,2,0,6,,,,,5,,,,58,45
8451,note_on,,,,,94,0,6,,,,,5,,,,58,0
8453,note_on,,,,,2,0,6,,,,,5,,,,58,45
8547,note_on,,,,,94,0,6,,,,,5,,,,58,0
8549,note_on,,,,,2,0,6,,,,,5,,,,58,45
8639,note_on,,,,,1568,0,8,,,,,7,,,,56,45
8640,note_on,,,,,416,0,5,,,,,4,,,,62,45
8640,note_on,,,,,0,0,5,,,,,4,,,,70,45
8642,note_on,,,,,416,0,2,,,,,1,,,,46,45
8642,note_on,,,,,0,0,2,,,,,1,,,,58,45
8643,note_on,,,,,94,0,6,,,,,5,,,,58,0
8645,note_on,,,,,2,0,6,,,,,5,,,,58,45
8646,note_on,,,,,1568,0,9,,,,,8,,,,44,45
8735,note_on,,,,,0,0,8,,,,,7,,,,53,45
8735,note_on,,,,,96,0,8,,,,,7,,,,56,0
8739,note_on,,,,,94,0,6,,,,,5,,,,58,0
8741,note_on,,,,,2,0,6,,,,,5,,,,58,45
8742,note_on,,,,,96,0,9,,,,,8,,,,44,0
8742,note_on,,,,,0,0,9,,,,,8,,,,41,45
8800,note_on,,,,,160,0,5,,,,,4,,,,70,0
8800,note_on,,,,,0,0,5,,,,,4,,,,62,0
8802,note_on,,,,,0,0,2,,,,,1,,,,46,0
8802,note_on,,,,,160,0,2,,,,,1,,,,58,0
8831,note_on,,,,,0,0,8,,,,,7,,,,51,45
8831,note_on,,,,,96,0,8,,,,,7,,,,53,0
8832,note_on,,,,,0,0,5,,,,,4,,,,72,45
8832,note_on,,,,,32,0,5,,,,,4,,,,63,45
8834,note_on,,,,,32,0,2,,,,,1,,,,46,45
8834,note_on,,,,,0,0,2,,,,,1,,,,58,45
8835,note_on,,,,,94,0,6,,,,,5,,,,58,0
8837,note_on,,,,,2,0,6,,,,,5,,,,58,45
8838,note_on,,,,,0,0,9,,,,,8,,,,39,45
8838,note_on,,,,,96,0,9,,,,,8,,,,41,0
8927,note_on,,,,,96,0,8,,,,,7,,,,51,0
8927,note_on,,,,,0,0,8,,,,,7,,,,50,45
8931,note_on,,,,,94,0,6,,,,,5,,,,58,0
8933,note_on,,,,,2,0,6,,,,,5,,,,58,45
8934,note_on,,,,,96,0,9,,,,,8,,,,39,0
8934,note_on,,,,,0,0,9,,,,,8,,,,38,45
8992,note_on,,,,,160,0,5,,,,,4,,,,72,0
8992,note_on,,,,,0,0,5,,,,,4,,,,63,0
8994,note_on,,,,,0,0,2,,,,,1,,,,46,0
8994,note_on,,,,,160,0,2,,,,,1,,,,58,0
9021,note_on,,,,,0,0,7,,,,,6,,,,68,45
9021,note_on,,,,,800,0,7,,,,,6,,,,58,45
9022,note_on,,,,,800,0,1,,,,,0,,,,74,45
9022,note_on,,,,,0,0,1,,,,,0,,,,80,45
9023,note_on,,,,,0,0,8,,,,,7,,,,48,45
9023,note_on,,,,,96,0,8,,,,,7,,,,50,0
9024,note_on,,,,,0,0,5,,,,,4,,,,74,45
9024,note_on,,,,,32,0,5,,,,,4,,,,65,45
9026,note_on,,,,,0,0,2,,,,,1,,,,58,45
9026,note_on,,,,,32,0,2,,,,,1,,,,46,45
9027,note_on,,,,,94,0,6,,,,,5,,,,58,0
9029,note_on,,,,,2,0,6,,,,,5,,,,58,45
9030,note_on,,,,,96,0,9,,,,,8,,,,38,0
9030,note_on,,,,,0,0,9,,,,,8,,,,36,45
9119,note_on,,,,,96,0,8,,,,,7,,,,48,0
9119,note_on,,,,,0,0,8,,,,,7,,,,46,45
9123,note_on,,,,,94,0,6,,,,,5,,,,58,0
9125,note_on,,,,,2,0,6,,,,,5,,,,58,45
9126,note_on,,,,,0,0,9,,,,,8,,,,34,45
9126,note_on,,,,,96,0,9,,,,,8,,,,36,0
9181,note_on,,,,,160,0,7,,,,,6,,,,68,0
9181,note_on,,,,,0,0,7,,,,,6,,,,58,0
9184,note_on,,,,,160,0,5,,,,,4,,,,74,0
9184,note_on,,,,,0,0,5,,,,,4,,,,65,0
9186,note_on,,,,,0,0,2,,,,,1,,,,46,0
9186,note_on,,,,,160,0,2,,,,,1,,,,58,0
9213,note_on,,,,,94,0,8,,,,,7,,,,46,0
9213,note_on,,,,,0,0,7,,,,,6,,,,67,45
9213,note_on,,,,,32,0,7,,,,,6,,,,58,45
9214,note_on,,,,,0,0,1,,,,,0,,,,79,45
9214,note_on,,,,,0,0,1,,,,,0,,,,75,45
9214,note_on,,,,,0,0,1,,,,,0,,,,74,0
9214,note_on,,,,,192,0,1,,,,,0,,,,80,0
9215,note_on,,,,,2,0,8,,,,,7,,,,51,45
9216,note_on,,,,,0,0,5,,,,,4,,,,75,45
9216,note_on,,,,,32,0,5,,,,,4,,,,63,45
9218,note_on,,,,,32,0,2,,,,,1,,,,51,45
9218,note_on,,,,,0,0,2,,,,,1,,,,58,45
9219,note_on,,,,,94,0,6,,,,,5,,,,58,0
9220,note_on,,,,,94,0,9,,,,,8,,,,34,0
9221,note_on,,,,,2,0,6,,,,,5,,,,58,45
9222,note_on,,,,,2,0,9,,,,,8,,,,39,45
9373,note_on,,,,,160,0,7,,,,,6,,,,67,0
9373,note_on,,,,,0,0,7,,,,,6,,,,58,0
9374,note_on,,,,,160,0,1,,,,,0,,,,79,0
9374,note_on,,,,,0,0,1,,,,,0,,,,75,0
9375,note_on,,,,,160,0,8,,,,,7,,,,51,0
9376,note_on,,,,,0,0,5,,,,,4,,,,63,0
9376,note_on,,,,,160,0,5,,,,,4,,,,75,0
9378,note_on,,,,,160,0,2,,,,,1,,,,58,0
9378,note_on,,,,,0,0,2,,,,,1,,,,51,0
9381,note_on,,,,,160,0,6,,,,,5,,,,58,0
9382,note_on,,,,,160,0,9,,,,,8,,,,39,0
9405,note_on,,,,,32,0,7,,,,,6,,,,55,75
9406,note_on,,,,,0,0,1,,,,,0,,,,77,75
9406,note_on,,,,,32,0,1,,,,,0,,,,74,75
9407,note_on,,,,,32,0,8,,,,,7,,,,43,75
9408,note_on,,,,,32,0,5,,,,,4,,,,55,75
9408,set_tempo,,,,,4800,1,0,,428571,,,,,,,,
9410,note_on,,,,,32,0,2,,,,,1,,,,55,75
9410,note_on,,,,,0,0,2,,,,,1,,,,67,75
9413,note_on,,,,,32,0,6,,,,,5,,,,55,75
9414,note_on,,,,,32,0,9,,,,,8,,,,31,75
9570,note_on,,,,,0,0,2,,,,,1,,,,55,0
9570,note_on,,,,,160,0,2,,,,,1,,,,67,0
9602,note_on,,,,,0,0,2,,,,,1,,,,67,75
9602,note_on,,,,,32,0,2,,,,,1,,,,55,75
9693,note_on,,,,,0,0,7,,,,,6,,,,57,75
9693,note_on,,,,,288,0,7,,,,,6,,,,55,0
9695,note_on,,,,,0,0,8,,,,,7,,,,45,75
9695,note_on,,,,,288,0,8,,,,,7,,,,43,0
9696,note_on,,,,,0,0,5,,,,,4,,,,57,75
9696,note_on,,,,,288,0,5,,,,,4,,,,55,0
9701,note_on,,,,,0,0,6,,,,,5,,,,57,75
9701,note_on,,,,,288,0,6,,,,,5,,,,55,0
9702,note_on,,,,,0,0,9,,,,,8,,,,33,75
9702,note_on,,,,,288,0,9,,,,,8,,,,31,0
9741,note_on,,,,,0,0,7,,,,,6,,,,59,75
9741,note_on,,,,,48,0,7,,,,,6,,,,57,0
9742,note_on,,,,,336,0,1,,,,,0,,,,77,0
9742,note_on,,,,,0,0,1,,,,,0,,,,74,0
9743,note_on,,,,,0,0,8,,,,,7,,,,47,75
9743,note_on,,,,,48,0,8,,,,,7,,,,45,0
9744,note_on,,,,,0,0,5,,,,,4,,,,59,75
9744,note_on,,,,,48,0,5,,,,,4,,,,57,0
9744,note_on,,,,,142,0,2,,,,,1,,,,67,0
9744,note_on,,,,,0,0,2,,,,,1,,,,55,0
9746,note_on,,,,,0,0,2,,,,,1,,,,67,75
9746,note_on,,,,,2,0,2,,,,,1,,,,55,75
9749,note_on,,,,,0,0,6,,,,,5,,,,59,75
9749,note_on,,,,,48,0,6,,,,,5,,,,57,0
9750,note_on,,,,,48,0,9,,,,,8,,,,33,0
9750,note_on,,,,,0,0,9,,,,,8,,,,35,75
9787,note_on,,,,,46,0,7,,,,,6,,,,59,0
9789,note_on,,,,,46,0,8,,,,,7,,,,47,0
9789,note_on,,,,,2,0,7,,,,,6,,,,60,75
9790,note_on,,,,,0,0,1,,,,,0,,,,75,75
9790,note_on,,,,,48,0,1,,,,,0,,,,72,75
9790,note_on,,,,,46,0,5,,,,,4,,,,59,0
9791,note_on,,,,,2,0,8,,,,,7,,,,48,75
9792,note_on,,,,,46,0,2,,,,,1,,,,67,0
9792,note_on,,,,,2,0,5,,,,,4,,,,60,75
9792,note_on,,,,,0,0,2,,,,,1,,,,55,0
9794,note_on,,,,,2,0,2,,,,,1,,,,55,75
9794,note_on,,,,,0,0,2,,,,,1,,,,67,75
9795,note_on,,,,,46,0,6,,,,,5,,,,59,0
9796,note_on,,,,,46,0,9,,,,,8,,,,35,0
9797,note_on,,,,,2,0,6,,,,,5,,,,60,75
9798,note_on,,,,,2,0,9,,,,,8,,,,36,75
9837,note_on,,,,,0,0,7,,,,,6,,,,51,75
9837,note_on,,,,,48,0,7,,,,,6,,,,60,0
9845,note_on,,,,,0,0,6,,,,,5,,,,55,75
9845,note_on,,,,,48,0,6,,,,,5,,,,60,0
9885,note_on,,,,,0,0,7,,,,,6,,,,51,75
9885,note_on,,,,,48,0,7,,,,,6,,,,51,0
9887,note_on,,,,,0,0,8,,,,,7,,,,48,75
9887,note_on,,,,,96,0,8,,,,,7,,,,48,0
9893,note_on,,,,,48,0,6,,,,,5,,,,55,0
9893,note_on,,,,,0,0,6,,,,,5,,,,55,75
9894,note_on,,,,,96,0,9,,,,,8,,,,36,0
9894,note_on,,,,,0,0,9,,,,,8,,,,36,75
9933,note_on,,,,,0,0,7,,,,,6,,,,51,75
9933,note_on,,,,,48,0,7,,,,,6,,,,51,0
9941,note_on,,,,,48,0,6,,,,,5,,,,55,0
9941,note_on,,,,,0,0,6,,,,,5,,,,55,75
9981,note_on,,,,,0,0,7,,,,,6,,,,51,75
9981,note_on,,,,,48,0,7,,,,,6,,,,51,0
9983,note_on,,,,,0,0,8,,,,,7,,,,48,75
9983,note_on,,,,,96,0,8,,,,,7,,,,48,0
9989,note_on,,,,,0,0,6,,,,,5,,,,55,75
9989,note_on,,,,,48,0,6,,,,,5,,,,55,0
9990,note_on,,,,,0,0,9,,,,,8,,,,36,75
9990,note_on,,,,,96,0,9,,,,,8,,,,36,0
10029,note_on,,,,,0,0,7,,,,,6,,,,51,75
10029,note_on,,,,,48,0,7,,,,,6,,,,51,0
10037,note_on,,,,,0,0,6,,,,,5,,,,55,75
10037,note_on,,,,,48,0,6,,,,,5,,,,55,0
10048,note_on,,,,,256,0,5,,,,,4,,,,60,0
10077,note_on,,,,,0,0,7,,,,,6,,,,51,75
10077,note_on,,,,,48,0,7,,,,,6,,,,51,0
10079,note_on,,,,,96,0,8,,,,,7,,,,48,0
10079,note_on,,,,,0,0,8,,,,,7,,,,48,75
10080,note_on,,,,,32,0,5,,,,,4,,,,72,75
10085,note_on,,,,,0,0,6,,,,,5,,,,55,75
10085,note_on,,,,,48,0,6,,,,,5,,,,55,0
10086,note_on,,,,,0,0,9,,,,,8,,,,36,75
10086,note_on,,,,,96,0,9,,,,,8,,,,36,0
10125,note_on,,,,,48,0,7,,,,,6,,,,51,0
10125,note_on,,,,,0,0,7,,,,,6,,,,51,75
10126,note_on,,,,,46,0,5,,,,,4,,,,72,0
10128,note_on,,,,,2,0,5,,,,,4,,,,75,75
10133,note_on,,,,,0,0,6,,,,,5,,,,55,75
10133,note_on,,,,,48,0,6,,,,,5,,,,55,0
10173,note_on,,,,,48,0,7,,,,,6,,,,51,0
10173,note_on,,,,,0,0,7,,,,,6,,,,51,75
10174,note_on,,,,,46,0,5,,,,,4,,,,75,0
10175,note_on,,,,,0,0,8,,,,,7,,,,48,75
10175,note_on,,,,,96,0,8,,,,,7,,,,48,0
10176,note_on,,,,,2,0,5,,,,,4,,,,79,75
10181,note_on,,,,,48,0,6,,,,,5,,,,55,0
10181,note_on,,,,,0,0,6,,,,,5,,,,55,75
10182,note_on,,,,,96,0,9,,,,,8,,,,36,0
10182,note_on,,,,,0,0,9,,,,,8,,,,36,75
10221,note_on,,,,,0,0,7,,,,,6,,,,51,75
10221,note_on,,,,,48,0,7,,,,,6,,,,51,0
10224,note_on,,,,,48,0,5,,,,,4,,,,79,0
10224,note_on,,,,,0,0,5,,,,,4,,,,75,75
10229,note_on,,,,,48,0,6,,,,,5,,,,55,0
10229,note_on,,,,,0,0,6,,,,,5,,,,55,75
10269,note_on,,,,,48,0,7,,,,,6,,,,51,0
10269,note_on,,,,,0,0,7,,,,,6,,,,51,75
10270,note_on,,,,,46,0,5,,,,,4,,,,75,0
10271,note_on,,,,,96,0,8,,,,,7,,,,48,0
10271,note_on,,,,,0,0,8,,,,,7,,,,48,75
10272,note_on,,,,,2,0,5,,,,,4,,,,79,75
10277,note_on,,,,,0,0,6,,,,,5,,,,55,75
10277,note_on,,,,,48,0,6,,,,,5,,,,55,0
10278,note_on,,,,,96,0,9,,,,,8,,,,36,0
10278,note_on,,,,,0,0,9,,,,,8,,,,36,75
10304,note_on,,,,,32,0,5,,,,,4,,,,79,0
10317,note_on,,,,,48,0,7,,,,,6,,,,51,0
10317,note_on,,,,,0,0,7,,,,,6,,,,51,75
10320,note_on,,,,,16,0,5,,,,,4,,,,75,75
10325,note_on,,,,,48,0,6,,,,,5,,,,55,0
10325,note_on,,,,,0,0,6,,,,,5,,,,55,75
10352,note_on,,,,,32,0,5,,,,,4,,,,75,0
10365,note_on,,,,,0,0,7,,,,,6,,,,51,75
10365,note_on,,,,,48,0,7,,,,,6,,,,51,0
10367,note_on,,,,,96,0,8,,,,,7,,,,48,0
10367,note_on,,,,,0,0,8,,,,,7,,,,48,75
10368,note_on,,,,,16,0,5,,,,,4,,,,79,75
10373,note_on,,,,,0,0,6,,,,,5,,,,55,75
10373,note_on,,,,,48,0,6,,,,,5,,,,55,0
10374,note_on,,,,,0,0,9,,,,,8,,,,36,75
10374,note_on,,,,,96,0,9,,,,,8,,,,36,0
10413,note_on,,,,,48,0,7,,,,,6,,,,51,0
10413,note_on,,,,,0,0,7,,,,,6,,,,51,75
10421,note_on,,,,,0,0,6,,,,,5,,,,55,75
10421,note_on,,,,,48,0,6,,,,,5,,,,55,0
10461,note_on,,,,,48,0,7,,,,,6,,,,51,0
10461,note_on,,,,,0,0,7,,,,,6,,,,51,75
10462,note_on,,,,,94,0,5,,,,,4,,,,79,0
10463,note_on,,,,,96,0,8,,,,,7,,,,48,0
10463,note_on,,,,,0,0,8,,,,,7,,,,48,75
10469,note_on,,,,,48,0,6,,,,,5,,,,55,0
10469,note_on,,,,,0,0,6,,,,,5,,,,55,75
10470,note_on,,,,,0,0,9,,,,,8,,,,36,75
10470,note_on,,,,,96,0,9,,,,,8,,,,36,0
10509,note_on,,,,,0,0,7,,,,,6,,,,51,75
10509,note_on,,,,,48,0,7,,,,,6,,,,51,0
10517,note_on,,,,,48,0,6,,,,,5,,,,55,0
10517,note_on,,,,,0,0,6,,,,,5,,,,55,75
10526,note_on,,,,,736,0,1,,,,,0,,,,75,0
10526,note_on,,,,,0,0,1,,,,,0,,,,72,0
10530,note_on,,,,,0,0,2,,,,,1,,,,55,0
10530,note_on,,,,,736,0,2,,,,,1,,,,67,0
10557,note_on,,,,,48,0,7,,,,,6,,,,51,0
10557,note_on,,,,,0,0,7,,,,,6,,,,51,75
10558,note_on,,,,,0,0,1,,,,,0,,,,75,75
10558,note_on,,,,,32,0,1,,,,,0,,,,72,75
10559,note_on,,,,,0,0,8,,,,,7,,,,48,75
10559,note_on,,,,,96,0,8,,,,,7,,,,48,0
10560,note_on,,,,,98,0,5,,,,,4,,,,75,75
10562,note_on,,,,,0,0,2,,,,,1,,,,67,75
10562,note_on,,,,,32,0,2,,,,,1,,,,63,75
10565,note_on,,,,,0,0,6,,,,,5,,,,55,75
10565,note_on,,,,,48,0,6,,,,,5,,,,55,0
10566,note_on,,,,,0,0,9,,,,,8,,,,36,75
10566,note_on,,,,,96,0,9,,,,,8,,,,36,0
10605,note_on,,,,,0,0,7,,,,,6,,,,51,75
10605,note_on,,,,,48,0,7,,,,,6,,,,51,0
10613,note_on,,,,,48,0,6,,,,,5,,,,55,0
10613,note_on,,,,,0,0,6,,,,,5,,,,55,75
10653,note_on,,,,,0,0,7,,,,,6,,,,51,75
10653,note_on,,,,,48,0,7,,,,,6,,,,51,0
10654,note_on,,,,,94,0,5,,,,,4,,,,75,0
10655,note_on,,,,,96,0,8,,,,,7,,,,48,0
10655,note_on,,,,,0,0,8,,,,,7,,,,48,75
10661,note_on,,,,,0,0,6,,,,,5,,,,55,75
10661,note_on,,,,,48,0,6,,,,,5,,,,55,0
10662,note_on,,,,,0,0,9,,,,,8,,,,36,75
10662,note_on,,,,,96,0,9,,,,,8,,,,36,0
10701,note_on,,,,,0,0,7,,,,,6,,,,51,75
10701,note_on,,,,,48,0,7,,,,,6,,,,51,0
10709,note_on,,,,,48,0,6,,,,,5,,,,55,0
10709,note_on,,,,,0,0,6,,,,,5,,,,55,75
10718,note_on,,,,,0,0,1,,,,,0,,,,72,0
10718,note_on,,,,,160,0,1,,,,,0,,,,75,0
10722,note_on,,,,,160,0,2,,,,,1,,,,67,0
10722,note_on,,,,,0,0,2,,,,,1,,,,63,0
10749,note_on,,,,,48,0,7,,,,,6,,,,51,0
10749,note_on,,,,,0,0,7,,,,,6,,,,51,75
10750,note_on,,,,,32,0,1,,,,,0,,,,72,75
10750,note_on,,,,,0,0,1,,,,,0,,,,75,75
10751,note_on,,,,,0,0,8,,,,,7,,,,48,75
10751,note_on,,,,,96,0,8,,,,,7,,,,48,0
10752,note_on,,,,,98,0,5,,,,,4,,,,72,75
10754,note_on,,,,,0,0,2,,,,,1,,,,67,75
10754,note_on,,,,,32,0,2,,,,,1,,,,63,75
10757,note_on,,,,,0,0,6,,,,,5,,,,55,75
10757,note_on,,,,,48,0,6,,,,,5,,,,55,0
10758,note_on,,,,,0,0,9,,,,,8,,,,36,75
10758,note_on,,,,,96,0,9,,,,,8,,,,36,0
10797,note_on,,,,,48,0,7,,,,,6,,,,51,0
10797,note_on,,,,,0,0,7,,,,,6,,,,51,75
10805,note_on,,,,,48,0,6,,,,,5,,,,55,0
10805,note_on,,,,,0,0,6,,,,,5,,,,55,75
10845,note_on,,,,,48,0,7,,,,,6,,,,51,0
10845,note_on,,,,,0,0,7,,,,,6,,,,51,75
10846,note_on,,,,,94,0,5,,,,,4,,,,72,0
10847,note_on,,,,,0,0,8,,,,,7,,,,48,75
10847,note_on,,,,,96,0,8,,,,,7,,,,48,0
10853,note_on,,,,,0,0,6,,,,,5,,,,55,75
10853,note_on,,,,,48,0,6,,,,,5,,,,55,0
10854,note_on,,,,,0,0,9,,,,,8,,,,36,75
10854,note_on,,,,,96,0,9,,,,,8,,,,36,0
10893,note_on,,,,,48,0,7,,,,,6,,,,51,0
10893,note_on,,,,,0,0,7,,,,,6,,,,51,75
10901,note_on,,,,,0,0,6,,,,,5,,,,55,75
10901,note_on,,,,,48,0,6,,,,,5,,,,55,0
10910,note_on,,,,,0,0,1,,,,,0,,,,72,0
10910,note_on,,,,,160,0,1,,,,,0,,,,75,0
10914,note_on,,,,,0,0,2,,,,,1,,,,63,0
10914,note_on,,,,,160,0,2,,,,,1,,,,67,0
10941,note_on,,,,,0,0,7,,,,,6,,,,53,75
10941,note_on,,,,,48,0,7,,,,,6,,,,51,0
10942,note_on,,,,,0,0,1,,,,,0,,,,74,75
10942,note_on,,,,,32,0,1,,,,,0,,,,68,75
10943,note_on,,,,,96,0,8,,,,,7,,,,48,0
10943,note_on,,,,,0,0,8,,,,,7,,,,48,75
10944,note_on,,,,,98,0,5,,,,,4,,,,62,75
10946,note_on,,,,,32,0,2,,,,,1,,,,65,75
10949,note_on,,,,,0,0,6,,,,,5,,,,56,75
10949,note_on,,,,,48,0,6,,,,,5,,,,55,0
10950,note_on,,,,,0,0,9,,,,,8,,,,36,75
10950,note_on,,,,,96,0,9,,,,,8,,,,36,0
10989,note_on,,,,,48,0,7,,,,,6,,,,53,0
10989,note_on,,,,,0,0,7,,,,,6,,,,53,75
10997,note_on,,,,,0,0,6,,,,,5,,,,56,75
10997,note_on,,,,,48,0,6,,,,,5,,,,56,0
11037,note_on,,,,,48,0,7,,,,,6,,,,53,0
11037,note_on,,,,,0,0,7,,,,,6,,,,53,75
11039,note_on,,,,,0,0,8,,,,,7,,,,48,75
11039,note_on,,,,,96,0,8,,,,,7,,,,48,0
11045,note_on,,,,,0,0,6,,,,,5,,,,56,75
11045,note_on,,,,,48,0,6,,,,,5,,,,56,0
11046,note_on,,,,,96,0,9,,,,,8,,,,36,0
11046,note_on,,,,,0,0,9,,,,,8,,,,36,75
11085,note_on,,,,,0,0,7,,,,,6,,,,53,75
11085,note_on,,,,,48,0,7,,,,,6,,,,53,0
11093,note_on,,,,,48,0,6,,,,,5,,,,56,0
11093,note_on,,,,,0,0,6,,,,,5,,,,56,75
11133,note_on,,,,,0,0,7,,,,,6,,,,53,75
11133,note_on,,,,,48,0,7,,,,,6,,,,53,0
11135,note_on,,,,,96,0,8,,,,,7,,,,48,0
11135,note_on,,,,,0,0,8,,,,,7,,,,48,75
11141,note_on,,,,,48,0,6,,,,,5,,,,56,0
11141,note_on,,,,,0,0,6,,,,,5,,,,56,75
11142,note_on,,,,,0,0,9,,,,,8,,,,36,75
11142,note_on,,,,,96,0,9,,,,,8,,,,36,0
11181,note_on,,,,,48,0,7,,,,,6,,,,53,0
11181,note_on,,,,,0,0,7,,,,,6,,,,53,75
11189,note_on,,,,,48,0,6,,,,,5,,,,56,0
11189,note_on,,,,,0,0,6,,,,,5,,,,56,75
11200,note_on,,,,,256,0,5,,,,,4,,,,62,0
11229,note_on,,,,,48,0,7,,,,,6,,,,53,0
11229,note_on,,,,,0,0,7,,,,,6,,,,53,75
11231,note_on,,,,,96,0,8,,,,,7,,,,48,0
11231,note_on,,,,,0,0,8,,,,,7,,,,48,75
11232,note_on,,,,,32,0,5,,,,,4,,,,74,75
11237,note_on,,,,,0,0,6,,,,,5,,,,56,75
11237,note_on,,,,,48,0,6,,,,,5,,,,56,0
11238,note_on,,,,,0,0,9,,,,,8,,,,36,75
11238,note_on,,,,,96,0,9,,,,,8,,,,36,0
11277,note_on,,,,,0,0,7,,,,,6,,,,53,75
11277,note_on,,,,,48,0,7,,,,,6,,,,53,0
11278,note_on,,,,,46,0,5,,,,,4,,,,74,0
11280,note_on,,,,,2,0,5,,,,,4,,,,77,75
11285,note_on,,,,,0,0,6,,,,,5,,,,56,75
11285,note_on,,,,,48,0,6,,,,,5,,,,56,0
11325,note_on,,,,,48,0,7,,,,,6,,,,53,0
11325,note_on,,,,,0,0,7,,,,,6,,,,53,75
11326,note_on,,,,,46,0,5,,,,,4,,,,77,0
11327,note_on,,,,,0,0,8,,,,,7,,,,48,75
11327,note_on,,,,,96,0,8,,,,,7,,,,48,0
11328,note_on,,,,,2,0,5,,,,,4,,,,80,75
11333,note_on,,,,,48,0,6,,,,,5,,,,56,0
11333,note_on,,,,,0,0,6,,,,,5,,,,56,75
11334,note_on,,,,,96,0,9,,,,,8,,,,36,0
11334,note_on,,,,,0,0,9,,,,,8,,,,36,75
11373,note_on,,,,,48,0,7,,,,,6,,,,53,0
11373,note_on,,,,,0,0,7,,,,,6,,,,53,75
11376,note_on,,,,,0,0,5,,,,,4,,,,77,75
11376,note_on,,,,,48,0,5,,,,,4,,,,80,0
11381,note_on,,,,,0,0,6,,,,,5,,,,56,75
11381,note_on,,,,,48,0,6,,,,,5,,,,56,0
11421,note_on,,,,,48,0,7,,,,,6,,,,53,0
11421,note_on,,,,,0,0,7,,,,,6,,,,53,75
11422,note_on,,,,,46,0,5,,,,,4,,,,77,0
11423,note_on,,,,,96,0,8,,,,,7,,,,48,0
11423,note_on,,,,,0,0,8,,,,,7,,,,48,75
11424,note_on,,,,,2,0,5,,,,,4,,,,80,75
11429,note_on,,,,,0,0,6,,,,,5,,,,56,75
11429,note_on,,,,,48,0,6,,,,,5,,,,56,0
11430,note_on,,,,,0,0,9,,,,,8,,,,36,75
11430,note_on,,,,,96,0,9,,,,,8,,,,36,0
11456,note_on,,,,,32,0,5,,,,,4,,,,80,0
11469,note_on,,,,,48,0,7,,,,,6,,,,53,0
11469,note_on,,,,,0,0,7,,,,,6,,,,53,75
11472,note_on,,,,,16,0,5,,,,,4,,,,77,75
11477,note_on,,,,,0,0,6,,,,,5,,,,56,75
11477,note_on,,,,,48,0,6,,,,,5,,,,56,0
11504,note_on,,,,,32,0,5,,,,,4,,,,77,0
11517,note_on,,,,,0,0,7,,,,,6,,,,53,75
11517,note_on,,,,,48,0,7,,,,,6,,,,53,0
11519,note_on,,,,,0,0,8,,,,,7,,,,48,75
11519,note_on,,,,,96,0,8,,,,,7,,,,48,0
11520,note_on,,,,,16,0,5,,,,,4,,,,80,75
11525,note_on,,,,,0,0,6,,,,,5,,,,56,75
11525,note_on,,,,,48,0,6,,,,,5,,,,56,0
11526,note_on,,,,,96,0,9,,,,,8,,,,36,0
11526,note_on,,,,,0,0,9,,,,,8,,,,36,75
11565,note_on,,,,,48,0,7,,,,,6,,,,53,0
11565,note_on,,,,,0,0,7,,,,,6,,,,53,75
11573,note_on,,,,,0,0,6,,,,,5,,,,56,75
11573,note_on,,,,,48,0,6,,,,,5,,,,56,0
11613,note_on,,,,,48,0,7,,,,,6,,,,53,0
11613,note_on,,,,,0,0,7,,,,,6,,,,53,75
11614,note_on,,,,,94,0,5,,,,,4,,,,80,0
11615,note_on,,,,,96,0,8,,,,,7,,,,48,0
11615,note_on,,,,,0,0,8,,,,,7,,,,48,75
11621,note_on,,,,,0,0,6,,,,,5,,,,56,75
11621,note_on,,,,,48,0,6,,,,,5,,,,56,0
11622,note_on,,,,,96,0,9,,,,,8,,,,36,0
11622,note_on,,,,,0,0,9,,,,,8,,,,36,75
11661,note_on,,,,,48,0,7,,,,,6,,,,53,0
11661,note_on,,,,,0,0,7,,,,,6,,,,53,75
11669,note_on,,,,,48,0,6,,,,,5,,,,56,0
11669,note_on,,,,,0,0,6,,,,,5,,,,56,75
11678,note_on,,,,,0,0,1,,,,,0,,,,68,0
11678,note_on,,,,,736,0,1,,,,,0,,,,74,0
11682,note_on,,,,,736,0,2,,,,,1,,,,65,0
11709,note_on,,,,,0,0,7,,,,,6,,,,53,75
11709,note_on,,,,,48,0,7,,,,,6,,,,53,0
11710,note_on,,,,,32,0,1,,,,,0,,,,68,75
11710,note_on,,,,,0,0,1,,,,,0,,,,74,75
11711,note_on,,,,,96,0,8,,,,,7,,,,48,0
11711,note_on,,,,,0,0,8,,,,,7,,,,48,75
11712,note_on,,,,,98,0,5,,,,,4,,,,77,75
11714,note_on,,,,,32,0,2,,,,,1,,,,65,75
11717,note_on,,,,,0,0,6,,,,,5,,,,56,75
11717,note_on,,,,,48,0,6,,,,,5,,,,56,0
11718,note_on,,,,,0,0,9,,,,,8,,,,36,75
11718,note_on,,,,,96,0,9,,,,,8,,,,36,0
11757,note_on,,,,,0,0,7,,,,,6,,,,53,75
11757,note_on,,,,,48,0,7,,,,,6,,,,53,0
11765,note_on,,,,,48,0,6,,,,,5,,,,56,0
11765,note_on,,,,,0,0,6,,,,,5,,,,56,75
11805,note_on,,,,,48,0,7,,,,,6,,,,53,0
11805,note_on,,,,,0,0,7,,,,,6,,,,53,75
11806,note_on,,,,,94,0,5,,,,,4,,,,77,0
11807,note_on,,,,,0,0,8,,,,,7,,,,48,75
11807,note_on,,,,,96,0,8,,,,,7,,,,48,0
11813,note_on,,,,,48,0,6,,,,,5,,,,56,0
11813,note_on,,,,,0,0,6,,,,,5,,,,56,75
11814,note_on,,,,,96,0,9,,,,,8,,,,36,0
11814,note_on,,,,,0,0,9,,,,,8,,,,36,75
11853,note_on,,,,,48,0,7,,,,,6,,,,53,0
11853,note_on,,,,,0,0,7,,,,,6,,,,53,75
11861,note_on,,,,,0,0,6,,,,,5,,,,56,75
11861,note_on,,,,,48,0,6,,,,,5,,,,56,0
11870,note_on,,,,,0,0,1,,,,,0,,,,68,0
11870,note_on,,,,,160,0,1,,,,,0,,,,74,0
11874,note_on,,,,,160,0,2,,,,,1,,,,65,0
11901,note_on,,,,,0,0,7,,,,,6,,,,53,75
11901,note_on,,,,,48,0,7,,,,,6,,,,53,0
11902,note_on,,,,,0,0,1,,,,,0,,,,74,75
11902,note_on,,,,,32,0,1,,,,,0,,,,68,75
11903,note_on,,,,,0,0,8,,,,,7,,,,48,75
11903,note_on,,,,,96,0,8,,,,,7,,,,48,0
11904,note_on,,,,,98,0,5,,,,,4,,,,74,75
11906,note_on,,,,,32,0,2,,,,,1,,,,65,75
11909,note_on,,,,,48,0,6,,,,,5,,,,56,0
11909,note_on,,,,,0,0,6,,,,,5,,,,56,75
11910,note_on,,,,,96,0,9,,,,,8,,,,36,0
11910,note_on,,,,,0,0,9,,,,,8,,,,36,75
11949,note_on,,,,,48,0,7,,,,,6,,,,53,0
11949,note_on,,,,,0,0,7,,,,,6,,,,53,75
11957,note_on,,,,,48,0,6,,,,,5,,,,56,0
11957,note_on,,,,,0,0,6,,,,,5,,,,56,75
11997,note_on,,,,,48,0,7,,,,,6,,,,53,0
11997,note_on,,,,,0,0,7,,,,,6,,,,53,75
11998,note_on,,,,,94,0,5,,,,,4,,,,74,0
11999,note_on,,,,,96,0,8,,,,,7,,,,48,0
11999,note_on,,,,,0,0,8,,,,,7,,,,48,75
12005,note_on,,,,,48,0,6,,,,,5,,,,56,0
12005,note_on,,,,,0,0,6,,,,,5,,,,56,75
12006,note_on,,,,,0,0,9,,,,,8,,,,36,75
12006,note_on,,,,,96,0,9,,,,,8,,,,36,0
12045,note_on,,,,,48,0,7,,,,,6,,,,53,0
12045,note_on,,,,,0,0,7,,,,,6,,,,53,75
12053,note_on,,,,,0,0,6,,,,,5,,,,56,75
12053,note_on,,,,,48,0,6,,,,,5,,,,56,0
12062,note_on,,,,,0,0,1,,,,,0,,,,68,0
12062,note_on,,,,,160,0,1,,,,,0,,,,74,0
12066,note_on,,,,,160,0,2,,,,,1,,,,65,0
12093,note_on,,,,,0,0,7,,,,,6,,,,62,75
12093,note_on,,,,,48,0,7,,,,,6,,,,53,0
12093,note_on,,,,,0,0,7,,,,,6,,,,55,75
12094,note_on,,,,,32,0,1,,,,,0,,,,65,75
12094,note_on,,,,,0,0,1,,,,,0,,,,74,75
12095,note_on,,,,,96,0,8,,,,,7,,,,48,0
12095,note_on,,,,,0,0,8,,,,,7,,,,47,75
12096,note_on,,,,,98,0,5,,,,,4,,,,55,75
12098,note_on,,,,,0,0,2,,,,,1,,,,67,75
12098,note_on,,,,,32,0,2,,,,,1,,,,55,75
12101,note_on,,,,,48,0,6,,,,,5,,,,56,0
12101,note_on,,,,,0,0,6,,,,,5,,,,55,75
12101,note_on,,,,,0,0,6,,,,,5,,,,65,75
12102,note_on,,,,,0,0,9,,,,,8,,,,35,75
12102,note_on,,,,,96,0,9,,,,,8,,,,36,0
12141,note_on,,,,,0,0,7,,,,,6,,,,55,0
12141,note_on,,,,,0,0,7,,,,,6,,,,55,75
12141,note_on,,,,,0,0,7,,,,,6,,,,62,75
12141,note_on,,,,,48,0,7,,,,,6,,,,62,0
12149,note_on,,,,,0,0,6,,,,,5,,,,55,75
12149,note_on,,,,,0,0,6,,,,,5,,,,65,75
12149,note_on,,,,,48,0,6,,,,,5,,,,65,0
12149,note_on,,,,,0,0,6,,,,,5,,,,55,0
12189,note_on,,,,,48,0,7,,,,,6,,,,62,0
12189,note_on,,,,,0,0,7,,,,,6,,,,55,0
12189,note_on,,,,,0,0,7,,,,,6,,,,55,75
12189,note_on,,,,,0,0,7,,,,,6,,,,62,75
12191,note_on,,,,,96,0,8,,,,,7,,,,47,0
12191,note_on,,,,,0,0,8,,,,,7,,,,47,75
12197,note_on,,,,,0,0,6,,,,,5,,,,65,75
12197,note_on,,,,,0,0,6,,,,,5,,,,55,75
12197,note_on,,,,,0,0,6,,,,,5,,,,55,0
12197,note_on,,,,,48,0,6,,,,,5,,,,65,0
12198,note_on,,,,,96,0,9,,,,,8,,,,35,0
12198,note_on,,,,,0,0,9,,,,,8,,,,35,75
12237,note_on,,,,,0,0,7,,,,,6,,,,55,0
12237,note_on,,,,,0,0,7,,,,,6,,,,62,75
12237,note_on,,,,,0,0,7,,,,,6,,,,55,75
12237,note_on,,,,,48,0,7,,,,,6,,,,62,0
12245,note_on,,,,,0,0,6,,,,,5,,,,65,75
12245,note_on,,,,,0,0,6,,,,,5,,,,55,75
12245,note_on,,,,,0,0,6,,,,,5,,,,55,0
12245,note_on,,,,,48,0,6,,,,,5,,,,65,0
12285,note_on,,,,,0,0,7,,,,,6,,,,55,75
12285,note_on,,,,,0,0,7,,,,,6,,,,55,0
12285,note_on,,,,,48,0,7,,,,,6,,,,62,0
12285,note_on,,,,,0,0,7,,,,,6,,,,62,75
12287,note_on,,,,,0,0,8,,,,,7,,,,47,75
12287,note_on,,,,,96,0,8,,,,,7,,,,47,0
12293,note_on,,,,,0,0,6,,,,,5,,,,65,75
12293,note_on,,,,,0,0,6,,,,,5,,,,55,75
12293,note_on,,,,,0,0,6,,,,,5,,,,55,0
12293,note_on,,,,,48,0,6,,,,,5,,,,65,0
12294,note_on,,,,,96,0,9,,,,,8,,,,35,0
12294,note_on,,,,,0,0,9,,,,,8,,,,35,75
12333,note_on,,,,,48,0,7,,,,,6,,,,62,0
12333,note_on,,,,,0,0,7,,,,,6,,,,55,75
12333,note_on,,,,,0,0,7,,,,,6,,,,62,75
12333,note_on,,,,,0,0,7,,,,,6,,,,55,0
12341,note_on,,,,,0,0,6,,,,,5,,,,65,75
12341,note_on,,,,,0,0,6,,,,,5,,,,55,0
12341,note_on,,,,,0,0,6,,,,,5,,,,55,75
12341,note_on,,,,,48,0,6,,,,,5,,,,65,0
12352,note_on,,,,,256,0,5,,,,,4,,,,55,0
12381,note_on,,,,,0,0,7,,,,,6,,,,55,0
12381,note_on,,,,,0,0,7,,,,,6,,,,62,75
12381,note_on,,,,,0,0,7,,,,,6,,,,55,75
12381,note_on,,,,,48,0,7,,,,,6,,,,62,0
12383,note_on,,,,,96,0,8,,,,,7,,,,47,0
12383,note_on,,,,,0,0,8,,,,,7,,,,47,75
12384,note_on,,,,,32,0,5,,,,,4,,,,77,75
12389,note_on,,,,,0,0,6,,,,,5,,,,65,75
12389,note_on,,,,,0,0,6,,,,,5,,,,55,0
12389,note_on,,,,,48,0,6,,,,,5,,,,65,0
12389,note_on,,,,,0,0,6,,,,,5,,,,55,75
12390,note_on,,,,,96,0,9,,,,,8,,,,35,0
12390,note_on,,,,,0,0,9,,,,,8,,,,35,75
12429,note_on,,,,,48,0,7,,,,,6,,,,62,0
12429,note_on,,,,,0,0,7,,,,,6,,,,55,0
12429,note_on,,,,,0,0,7,,,,,6,,,,55,75
12429,note_on,,,,,0,0,7,,,,,6,,,,62,75
12430,note_on,,,,,46,0,5,,,,,4,,,,77,0
12432,note_on,,,,,2,0,5,,,,,4,,,,83,75
12437,note_on,,,,,0,0,6,,,,,5,,,,55,0
12437,note_on,,,,,0,0,6,,,,,5,,,,55,75
12437,note_on,,,,,0,0,6,,,,,5,,,,65,75
12437,note_on,,,,,48,0,6,,,,,5,,,,65,0
12477,note_on,,,,,0,0,7,,,,,6,,,,55,75
12477,note_on,,,,,48,0,7,,,,,6,,,,62,0
12477,note_on,,,,,0,0,7,,,,,6,,,,55,0
12477,note_on,,,,,0,0,7,,,,,6,,,,62,75
12478,note_on,,,,,46,0,5,,,,,4,,,,83,0
12479,note_on,,,,,96,0,8,,,,,7,,,,47,0
12479,note_on,,,,,0,0,8,,,,,7,,,,47,75
12480,note_on,,,,,2,0,5,,,,,4,,,,86,75
12485,note_on,,,,,48,0,6,,,,,5,,,,65,0
12485,note_on,,,,,0,0,6,,,,,5,,,,55,0
12485,note_on,,,,,0,0,6,,,,,5,,,,55,75
12485,note_on,,,,,0,0,6,,,,,5,,,,65,75
12486,note_on,,,,,96,0,9,,,,,8,,,,35,0
12486,note_on,,,,,0,0,9,,,,,8,,,,35,75
12525,note_on,,,,,48,0,7,,,,,6,,,,62,0
12525,note_on,,,,,0,0,7,,,,,6,,,,62,75
12525,note_on,,,,,0,0,7,,,,,6,,,,55,75
12525,note_on,,,,,0,0,7,,,,,6,,,,55,0
12528,note_on,,,,,0,0,5,,,,,4,,,,83,75
12528,note_on,,,,,48,0,5,,,,,4,,,,86,0
12533,note_on,,,,,48,0,6,,,,,5,,,,65,0
12533,note_on,,,,,0,0,6,,,,,5,,,,65,75
12533,note_on,,,,,0,0,6,,,,,5,,,,55,75
12533,note_on,,,,,0,0,6,,,,,5,,,,55,0
12573,note_on,,,,,0,0,7,,,,,6,,,,62,75
12573,note_on,,,,,0,0,7,,,,,6,,,,55,0
12573,note_on,,,,,48,0,7,,,,,6,,,,62,0
12573,note_on,,,,,0,0,7,,,,,6,,,,55,75
12574,note_on,,,,,46,0,5,,,,,4,,,,83,0
12575,note_on,,,,,96,0,8,,,,,7,,,,47,0
12575,note_on,,,,,0,0,8,,,,,7,,,,47,75
12576,note_on,,,,,2,0,5,,,,,4,,,,86,75
12581,note_on,,,,,0,0,6,,,,,5,,,,55,75
12581,note_on,,,,,48,0,6,,,,,5,,,,65,0
12581,note_on,,,,,0,0,6,,,,,5,,,,65,75
12581,note_on,,,,,0,0,6,,,,,5,,,,55,0
12582,note_on,,,,,0,0,9,,,,,8,,,,35,75
12582,note_on,,,,,96,0,9,,,,,8,,,,35,0
12608,note_on,,,,,32,0,5,,,,,4,,,,86,0
12621,note_on,,,,,48,0,7,,,,,6,,,,62,0
12621,note_on,,,,,0,0,7,,,,,6,,,,62,75
12621,note_on,,,,,0,0,7,,,,,6,,,,55,0
12621,note_on,,,,,0,0,7,,,,,6,,,,55,75
12624,note_on,,,,,16,0,5,,,,,4,,,,83,75
12629,note_on,,,,,0,0,6,,,,,5,,,,65,75
12629,note_on,,,,,0,0,6,,,,,5,,,,55,75
12629,note_on,,,,,0,0,6,,,,,5,,,,55,0
12629,note_on,,,,,48,0,6,,,,,5,,,,65,0
12656,note_on,,,,,32,0,5,,,,,4,,,,83,0
12669,note_on,,,,,0,0,7,,,,,6,,,,62,75
12669,note_on,,,,,0,0,7,,,,,6,,,,55,0
12669,note_on,,,,,48,0,7,,,,,6,,,,62,0
12669,note_on,,,,,0,0,7,,,,,6,,,,55,75
12671,note_on,,,,,96,0,8,,,,,7,,,,47,0
12671,note_on,,,,,0,0,8,,,,,7,,,,47,75
12672,note_on,,,,,16,0,5,,,,,4,,,,86,75
12677,note_on,,,,,0,0,6,,,,,5,,,,65,75
12677,note_on,,,,,0,0,6,,,,,5,,,,55,0
12677,note_on,,,,,0,0,6,,,,,5,,,,55,75
12677,note_on,,,,,48,0,6,,,,,5,,,,65,0
12678,note_on,,,,,96,0,9,,,,,8,,,,35,0
12678,note_on,,,,,0,0,9,,,,,8,,,,35,75
12717,note_on,,,,,0,0,7,,,,,6,,,,55,0
12717,note_on,,,,,48,0,7,,,,,6,,,,62,0
12717,note_on,,,,,0,0,7,,,,,6,,,,62,75
12717,note_on,,,,,0,0,7,,,,,6,,,,55,75
12725,note_on,,,,,0,0,6,,,,,5,,,,55,75
12725,note_on,,,,,0,0,6,,,,,5,,,,65,75
12725,note_on,,,,,48,0,6,,,,,5,,,,65,0
12725,note_on,,,,,0,0,6,,,,,5,,,,55,0
12765,note_on,,,,,0,0,7,,,,,6,,,,55,0
12765,note_on,,,,,0,0,7,,,,,6,,,,55,75
12765,note_on,,,,,0,0,7,,,,,6,,,,62,75
12765,note_on,,,,,48,0,7,,,,,6,,,,62,0
12766,note_on,,,,,94,0,5,,,,,4,,,,86,0
12767,note_on,,,,,0,0,8,,,,,7,,,,47,75
12767,note_on,,,,,96,0,8,,,,,7,,,,47,0
12773,note_on,,,,,48,0,6,,,,,5,,,,65,0
12773,note_on,,,,,0,0,6,,,,,5,,,,55,0
12773,note_on,,,,,0,0,6,,,,,5,,,,55,75
12773,note_on,,,,,0,0,6,,,,,5,,,,65,75
12774,note_on,,,,,96,0,9,,,,,8,,,,35,0
12774,note_on,,,,,0,0,9,,,,,8,,,,35,75
12813,note_on,,,,,48,0,7,,,,,6,,,,62,0
12813,note_on,,,,,0,0,7,,,,,6,,,,55,0
12813,note_on,,,,,0,0,7,,,,,6,,,,62,75
12813,note_on,,,,,0,0,7,,,,,6,,,,55,75
12821,note_on,,,,,48,0,6,,,,,5,,,,65,0
12821,note_on,,,,,0,0,6,,,,,5,,,,55,0
12821,note_on,,,,,0,0,6,,,,,5,,,,65,75
12821,note_on,,,,,0,0,6,,,,,5,,,,55,75
12830,note_on,,,,,0,0,1,,,,,0,,,,65,0
12830,note_on,,,,,736,0,1,,,,,0,,,,74,0
12834,note_on,,,,,736,0,2,,,,,1,,,,67,0
12834,note_on,,,,,0,0,2,,,,,1,,,,55,0
12861,note_on,,,,,48,0,7,,,,,6,,,,62,0
12861,note_on,,,,,0,0,7,,,,,6,,,,55,0
12861,note_on,,,,,0,0,7,,,,,6,,,,55,75
12861,note_on,,,,,0,0,7,,,,,6,,,,62,75
12862,note_on,,,,,32,0,1,,,,,0,,,,74,75
12862,note_on,,,,,0,0,1,,,,,0,,,,77,75
12863,note_on,,,,,96,0,8,,,,,7,,,,47,0
12863,note_on,,,,,0,0,8,,,,,7,,,,47,75
12864,note_on,,,,,98,0,5,,,,,4,,,,83,75
12866,note_on,,,,,0,0,2,,,,,1,,,,67,75
12866,note_on,,,,,32,0,2,,,,,1,,,,55,75
12869,note_on,,,,,48,0,6,,,,,5,,,,65,0
12869,note_on,,,,,0,0,6,,,,,5,,,,55,0
12869,note_on,,,,,0,0,6,,,,,5,,,,55,75
12869,note_on,,,,,0,0,6,,,,,5,,,,65,75
12870,note_on,,,,,0,0,9,,,,,8,,,,35,75
12870,note_on,,,,,96,0,9,,,,,8,,,,35,0
12909,note_on,,,,,0,0,7,,,,,6,,,,62,75
12909,note_on,,,,,0,0,7,,,,,6,,,,55,75
12909,note_on,,,,,0,0,7,,,,,6,,,,55,0
12909,note_on,,,,,48,0,7,,,,,6,,,,62,0
12917,note_on,,,,,0,0,6,,,,,5,,,,55,75
12917,note_on,,,,,48,0,6,,,,,5,,,,65,0
12917,note_on,,,,,0,0,6,,,,,5,,,,55,0
12917,note_on,,,,,0,0,6,,,,,5,,,,65,75
12957,note_on,,,,,48,0,7,,,,,6,,,,62,0
12957,note_on,,,,,0,0,7,,,,,6,,,,55,0
12957,note_on,,,,,0,0,7,,,,,6,,,,55,75
12957,note_on,,,,,0,0,7,,,,,6,,,,62,75
12958,note_on,,,,,94,0,5,,,,,4,,,,83,0
12959,note_on,,,,,96,0,8,,,,,7,,,,47,0
12959,note_on,,,,,0,0,8,,,,,7,,,,47,75
12965,note_on,,,,,0,0,6,,,,,5,,,,55,75
12965,note_on,,,,,0,0,6,,,,,5,,,,55,0
12965,note_on,,,,,0,0,6,,,,,5,,,,65,75
12965,note_on,,,,,48,0,6,,,,,5,,,,65,0
12966,note_on,,,,,0,0,9,,,,,8,,,,35,75
12966,note_on,,,,,96,0,9,,,,,8,,,,35,0
13005,note_on,,,,,48,0,7,,,,,6,,,,62,0
13005,note_on,,,,,0,0,7,,,,,6,,,,62,75
13005,note_on,,,,,0,0,7,,,,,6,,,,55,0
13005,note_on,,,,,0,0,7,,,,,6,,,,55,75
13013,note_on,,,,,48,0,6,,,,,5,,,,65,0
13013,note_on,,,,,0,0,6,,,,,5,,,,65,75
13013,note_on,,,,,0,0,6,,,,,5,,,,55,75
13013,note_on,,,,,0,0,6,,,,,5,,,,55,0
13022,note_on,,,,,0,0,1,,,,,0,,,,74,0
13022,note_on,,,,,160,0,1,,,,,0,,,,77,0
13026,note_on,,,,,0,0,2,,,,,1,,,,55,0
13026,note_on,,,,,160,0,2,,,,,1,,,,67,0
13053,note_on,,,,,48,0,7,,,,,6,,,,62,0
13053,note_on,,,,,0,0,7,,,,,6,,,,62,75
13053,note_on,,,,,0,0,7,,,,,6,,,,55,75
13053,note_on,,,,,0,0,7,,,,,6,,,,55,0
13054,note_on,,,,,32,0,1,,,,,0,,,,74,75
13054,note_on,,,,,0,0,1,,,,,0,,,,77,75
13055,note_on,,,,,0,0,8,,,,,7,,,,47,75
13055,note_on,,,,,96,0,8,,,,,7,,,,47,0
13056,note_on,,,,,98,0,5,,,,,4,,,,77,75
13058,note_on,,,,,0,0,2,,,,,1,,,,67,75
13058,note_on,,,,,32,0,2,,,,,1,,,,55,75
13061,note_on,,,,,48,0,6,,,,,5,,,,65,0
13061,note_on,,,,,0,0,6,,,,,5,,,,55,0
13061,note_on,,,,,0,0,6,,,,,5,,,,55,75
13061,note_on,,,,,0,0,6,,,,,5,,,,65,75
13062,note_on,,,,,96,0,9,,,,,8,,,,35,0
13062,note_on,,,,,0,0,9,,,,,8,,,,35,75
13101,note_on,,,,,48,0,7,,,,,6,,,,62,0
13101,note_on,,,,,0,0,7,,,,,6,,,,55,0
13101,note_on,,,,,0,0,7,,,,,6,,,,55,75
13101,note_on,,,,,0,0,7,,,,,6,,,,62,75
13109,note_on,,,,,48,0,6,,,,,5,,,,65,0
13109,note_on,,,,,0,0,6,,,,,5,,,,65,75
13109,note_on,,,,,0,0,6,,,,,5,,,,55,75
13109,note_on,,,,,0,0,6,,,,,5,,,,55,0
13149,note_on,,,,,0,0,7,,,,,6,,,,62,75
13149,note_on,,,,,48,0,7,,,,,6,,,,62,0
13149,note_on,,,,,0,0,7,,,,,6,,,,55,0
13149,note_on,,,,,0,0,7,,,,,6,,,,55,75
13150,note_on,,,,,94,0,5,,,,,4,,,,77,0
13151,note_on,,,,,0,0,8,,,,,7,,,,47,75
13151,note_on,,,,,96,0,8,,,,,7,,,,47,0
13157,note_on,,,,,0,0,6,,,,,5,,,,55,75
13157,note_on,,,,,0,0,6,,,,,5,,,,65,75
13157,note_on,,,,,48,0,6,,,,,5,,,,65,0
13157,note_on,,,,,0,0,6,,,,,5,,,,55,0
13158,note_on,,,,,96,0,9,,,,,8,,,,35,0
13158,note_on,,,,,0,0,9,,,,,8,,,,35,75
13197,note_on,,,,,48,0,7,,,,,6,,,,62,0
13197,note_on,,,,,0,0,7,,,,,6,,,,55,0
13197,note_on,,,,,0,0,7,,,,,6,,,,55,75
13197,note_on,,,,,0,0,7,,,,,6,,,,62,75
13205,note_on,,,,,0,0,6,,,,,5,,,,55,75
13205,note_on,,,,,48,0,6,,,,,5,,,,65,0
13205,note_on,,,,,0,0,6,,,,,5,,,,65,75
13205,note_on,,,,,0,0,6,,,,,5,,,,55,0
13214,note_on,,,,,160,0,1,,,,,0,,,,77,0
13214,note_on,,,,,0,0,1,,,,,0,,,,74,0
13218,note_on,,,,,0,0,2,,,,,1,,,,55,0
13218,note_on,,,,,160,0,2,,,,,1,,,,67,0
13245,note_on,,,,,48,0,7,,,,,6,,,,62,0
13245,note_on,,,,,0,0,7,,,,,6,,,,55,0
13245,note_on,,,,,0,0,7,,,,,6,,,,60,75
13246,note_on,,,,,32,0,1,,,,,0,,,,72,75
13246,note_on,,,,,0,0,1,,,,,0,,,,75,75
13247,note_on,,,,,0,0,8,,,,,7,,,,48,75
13247,note_on,,,,,96,0,8,,,,,7,,,,47,0
13248,note_on,,,,,98,0,5,,,,,4,,,,75,75
13250,note_on,,,,,32,0,2,,,,,1,,,,55,75
13250,note_on,,,,,0,0,2,,,,,1,,,,67,75
13253,note_on,,,,,48,0,6,,,,,5,,,,65,0
13253,note_on,,,,,0,0,6,,,,,5,,,,55,0
13253,note_on,,,,,0,0,6,,,,,5,,,,55,75
13253,note_on,,,,,0,0,6,,,,,5,,,,65,75
13254,note_on,,,,,96,0,9,,,,,8,,,,35,0
13254,note_on,,,,,0,0,9,,,,,8,,,,36,75
13293,note_on,,,,,48,0,7,,,,,6,,,,60,0
13293,note_on,,,,,0,0,7,,,,,6,,,,60,75
13296,note_on,,,,,48,0,5,,,,,4,,,,75,0
13296,note_on,,,,,0,0,5,,,,,4,,,,74,75
13301,note_on,,,,,0,0,6,,,,,5,,,,55,75
13301,note_on,,,,,0,0,6,,,,,5,,,,65,75
13301,note_on,,,,,48,0,6,,,,,5,,,,65,0
13301,note_on,,,,,0,0,6,,,,,5,,,,55,0
13341,note_on,,,,,48,0,7,,,,,6,,,,60,0
13341,note_on,,,,,0,0,7,,,,,6,,,,60,75
13343,note_on,,,,,96,0,8,,,,,7,,,,48,0
13343,note_on,,,,,0,0,8,,,,,7,,,,48,75
13344,note_on,,,,,0,0,5,,,,,4,,,,75,75
13344,note_on,,,,,48,0,5,,,,,4,,,,74,0
13349,note_on,,,,,48,0,6,,,,,5,,,,65,0
13349,note_on,,,,,0,0,6,,,,,5,,,,55,0
13349,note_on,,,,,0,0,6,,,,,5,,,,55,75
13349,note_on,,,,,0,0,6,,,,,5,,,,65,75
13350,note_on,,,,,96,0,9,,,,,8,,,,36,0
13350,note_on,,,,,0,0,9,,,,,8,,,,36,75
13389,note_on,,,,,48,0,7,,,,,6,,,,60,0
13389,note_on,,,,,0,0,7,,,,,6,,,,60,75
13392,note_on,,,,,48,0,5,,,,,4,,,,75,0
13392,note_on,,,,,0,0,5,,,,,4,,,,77,75
13397,note_on,,,,,0,0,6,,,,,5,,,,65,75
13397,note_on,,,,,0,0,6,,,,,5,,,,55,75
13397,note_on,,,,,0,0,6,,,,,5,,,,55,0
13397,note_on,,,,,48,0,6,,,,,5,,,,65,0
13406,note_on,,,,,0,0,1,,,,,0,,,,72,0
13406,note_on,,,,,160,0,1,,,,,0,,,,75,0
13410,note_on,,,,,160,0,2,,,,,1,,,,67,0
13410,note_on,,,,,0,0,2,,,,,1,,,,55,0
13437,note_on,,,,,0,0,7,,,,,6,,,,60,75
13437,note_on,,,,,48,0,7,,,,,6,,,,60,0
13438,note_on,,,,,46,0,5,,,,,4,,,,77,0
13439,note_on,,,,,0,0,8,,,,,7,,,,48,75
13439,note_on,,,,,96,0,8,,,,,7,,,,48,0
13440,note_on,,,,,2,0,5,,,,,4,,,,79,75
13445,note_on,,,,,0,0,6,,,,,5,,,,55,75
13445,note_on,,,,,48,0,6,,,,,5,,,,65,0
13445,note_on,,,,,0,0,6,,,,,5,,,,55,0
13445,note_on,,,,,0,0,6,,,,,5,,,,65,75
13446,note_on,,,,,0,0,9,,,,,8,,,,36,75
13446,note_on,,,,,96,0,9,,,,,8,,,,36,0
13485,note_on,,,,,48,0,7,,,,,6,,,,60,0
13485,note_on,,,,,0,0,7,,,,,6,,,,60,75
13493,note_on,,,,,0,0,6,,,,,5,,,,55,0
13493,note_on,,,,,0,0,6,,,,,5,,,,65,75
13493,note_on,,,,,0,0,6,,,,,5,,,,55,75
13493,note_on,,,,,48,0,6,,,,,5,,,,65,0
13533,note_on,,,,,0,0,7,,,,,6,,,,60,75
13533,note_on,,,,,48,0,7,,,,,6,,,,60,0
13535,note_on,,,,,0,0,8,,,,,7,,,,48,75
13535,note_on,,,,,96,0,8,,,,,7,,,,48,0
13541,note_on,,,,,0,0,6,,,,,5,,,,55,0
13541,note_on,,,,,48,0,6,,,,,5,,,,65,0
13541,note_on,,,,,0,0,6,,,,,5,,,,65,75
13541,note_on,,,,,0,0,6,,,,,5,,,,55,75
13542,note_on,,,,,96,0,9,,,,,8,,,,36,0
13542,note_on,,,,,0,0,9,,,,,8,,,,36,75
13581,note_on,,,,,48,0,7,,,,,6,,,,60,0
13581,note_on,,,,,0,0,7,,,,,6,,,,60,75
13589,note_on,,,,,0,0,6,,,,,5,,,,55,0
13589,note_on,,,,,48,0,6,,,,,5,,,,65,0
13589,note_on,,,,,0,0,6,,,,,5,,,,55,75
13589,note_on,,,,,0,0,6,,,,,5,,,,65,75
13600,note_on,,,,,160,0,5,,,,,4,,,,79,0
13629,note_on,,,,,0,0,7,,,,,6,,,,60,75
13629,note_on,,,,,48,0,7,,,,,6,,,,60,0
13631,note_on,,,,,0,0,8,,,,,7,,,,48,75
13631,note_on,,,,,96,0,8,,,,,7,,,,48,0
13637,note_on,,,,,0,0,6,,,,,5,,,,65,75
13637,note_on,,,,,0,0,6,,,,,5,,,,55,75
13637,note_on,,,,,0,0,6,,,,,5,,,,55,0
13637,note_on,,,,,48,0,6,,,,,5,,,,65,0
13638,note_on,,,,,0,0,9,,,,,8,,,,36,75
13638,note_on,,,,,96,0,9,,,,,8,,,,36,0
13677,note_on,,,,,0,0,7,,,,,6,,,,60,75
13677,note_on,,,,,48,0,7,,,,,6,,,,60,0
13685,note_on,,,,,48,0,6,,,,,5,,,,65,0
13685,note_on,,,,,0,0,6,,,,,5,,,,65,75
13685,note_on,,,,,0,0,6,,,,,5,,,,55,75
13685,note_on,,,,,0,0,6,,,,,5,,,,55,0
13725,note_on,,,,,48,0,7,,,,,6,,,,60,0
13725,note_on,,,,,0,0,7,,,,,6,,,,60,75
13727,note_on,,,,,96,0,8,,,,,7,,,,48,0
13727,note_on,,,,,0,0,8,,,,,7,,,,48,75
13733,note_on,,,,,0,0,6,,,,,5,,,,65,75
13733,note_on,,,,,0,0,6,,,,,5,,,,55,75
13733,note_on,,,,,0,0,6,,,,,5,,,,55,0
13733,note_on,,,,,48,0,6,,,,,5,,,,65,0
13734,note_on,,,,,96,0,9,,,,,8,,,,36,0
13734,note_on,,,,,0,0,9,,,,,8,,,,36,75
13773,note_on,,,,,0,0,7,,,,,6,,,,60,75
13773,note_on,,,,,48,0,7,,,,,6,,,,60,0
13781,note_on,,,,,48,0,6,,,,,5,,,,65,0
13781,note_on,,,,,0,0,6,,,,,5,,,,55,0
13781,note_on,,,,,0,0,6,,,,,5,,,,55,75
13781,note_on,,,,,0,0,6,,,,,5,,,,65,75
13821,note_on,,,,,48,0,7,,,,,6,,,,60,0
13821,note_on,,,,,0,0,7,,,,,6,,,,54,37
13823,note_on,,,,,96,0,8,,,,,7,,,,48,0
13823,note_on,,,,,0,0,8,,,,,7,,,,46,37
13824,note_on,,,,,224,0,5,,,,,4,,,,75,37
13829,note_on,,,,,0,0,6,,,,,5,,,,63,37
13829,note_on,,,,,0,0,6,,,,,5,,,,60,37
13829,note_on,,,,,0,0,6,,,,,5,,,,55,0
13829,note_on,,,,,48,0,6,,,,,5,,,,65,0
13830,note_on,,,,,0,0,9,,,,,8,,,,34,37
13830,note_on,,,,,96,0,9,,,,,8,,,,36,0
13869,note_on,,,,,48,0,7,,,,,6,,,,54,0
13869,note_on,,,,,0,0,7,,,,,6,,,,54,37
13872,note_on,,,,,48,0,5,,,,,4,,,,75,0
13872,note_on,,,,,0,0,5,,,,,4,,,,74,37
13877,note_on,,,,,48,0,6,,,,,5,,,,63,0
13877,note_on,,,,,0,0,6,,,,,5,,,,60,0
13877,note_on,,,,,0,0,6,,,,,5,,,,60,37
13877,note_on,,,,,0,0,6,,,,,5,,,,63,37
13917,note_on,,,,,48,0,7,,,,,6,,,,54,0
13917,note_on,,,,,0,0,7,,,,,6,,,,54,37
13919,note_on,,,,,96,0,8,,,,,7,,,,46,0
13919,note_on,,,,,0,0,8,,,,,7,,,,46,37
13920,note_on,,,,,0,0,5,,,,,4,,,,75,37
13920,note_on,,,,,48,0,5,,,,,4,,,,74,0
13925,note_on,,,,,0,0,6,,,,,5,,,,60,0
13925,note_on,,,,,48,0,6,,,,,5,,,,63,0
13925,note_on,,,,,0,0,6,,,,,5,,,,60,37
13925,note_on,,,,,0,0,6,,,,,5,,,,63,37
13926,note_on,,,,,0,0,9,,,,,8,,,,34,37
13926,note_on,,,,,96,0,9,,,,,8,,,,34,0
13965,note_on,,,,,48,0,7,,,,,6,,,,54,0
13965,note_on,,,,,0,0,7,,,,,6,,,,54,37
13968,note_on,,,,,0,0,5,,,,,4,,,,77,37
13968,note_on,,,,,48,0,5,,,,,4,,,,75,0
13973,note_on,,,,,0,0,6,,,,,5,,,,63,37
13973,note_on,,,,,48,0,6,,,,,5,,,,63,0
13973,note_on,,,,,0,0,6,,,,,5,,,,60,0
13973,note_on,,,,,0,0,6,,,,,5,,,,60,37
14013,note_on,,,,,48,0,7,,,,,6,,,,54,0
14013,note_on,,,,,0,0,7,,,,,6,,,,54,37
14014,note_on,,,,,46,0,5,,,,,4,,,,77,0
14015,note_on,,,,,96,0,8,,,,,7,,,,46,0
14015,note_on,,,,,0,0,8,,,,,7,,,,46,37
14016,note_on,,,,,2,0,5,,,,,4,,,,78,37
14021,note_on,,,,,0,0,6,,,,,5,,,,60,0
14021,note_on,,,,,0,0,6,,,,,5,,,,63,37
14021,note_on,,,,,48,0,6,,,,,5,,,,63,0
14021,note_on,,,,,0,0,6,,,,,5,,,,60,37
14022,note_on,,,,,96,0,9,,,,,8,,,,34,0
14022,note_on,,,,,0,0,9,,,,,8,,,,34,37
14061,note_on,,,,,48,0,7,,,,,6,,,,54,0
14061,note_on,,,,,0,0,7,,,,,6,,,,54,37
14069,note_on,,,,,0,0,6,,,,,5,,,,63,37
14069,note_on,,,,,48,0,6,,,,,5,,,,63,0
14069,note_on,,,,,0,0,6,,,,,5,,,,60,37
14069,note_on,,,,,0,0,6,,,,,5,,,,60,0
14109,note_on,,,,,48,0,7,,,,,6,,,,54,0
14109,note_on,,,,,0,0,7,,,,,6,,,,54,37
14111,note_on,,,,,0,0,8,,,,,7,,,,46,37
14111,note_on,,,,,96,0,8,,,,,7,,,,46,0
14117,note_on,,,,,0,0,6,,,,,5,,,,63,37
14117,note_on,,,,,0,0,6,,,,,5,,,,60,0
14117,note_on,,,,,48,0,6,,,,,5,,,,63,0
14117,note_on,,,,,0,0,6,,,,,5,,,,60,37
14118,note_on,,,,,96,0,9,,,,,8,,,,34,0
14118,note_on,,,,,0,0,9,,,,,8,,,,34,37
14157,note_on,,,,,48,0,7,,,,,6,,,,54,0
14157,note_on,,,,,0,0,7,,,,,6,,,,54,37
14165,note_on,,,,,0,0,6,,,,,5,,,,60,0
14165,note_on,,,,,0,0,6,,,,,5,,,,63,37
14165,note_on,,,,,0,0,6,,,,,5,,,,60,37
14165,note_on,,,,,48,0,6,,,,,5,,,,63,0
14176,note_on,,,,,160,0,5,,,,,4,,,,78,0
14205,note_on,,,,,0,0,7,,,,,6,,,,54,37
14205,note_on,,,,,48,0,7,,,,,6,,,,54,0
14207,note_on,,,,,0,0,8,,,,,7,,,,46,37
14207,note_on,,,,,96,0,8,,,,,7,,,,46,0
14213,note_on,,,,,48,0,6,,,,,5,,,,63,0
14213,note_on,,,,,0,0,6,,,,,5,,,,60,0
14213,note_on,,,,,0,0,6,,,,,5,,,,60,37
14213,note_on,,,,,0,0,6,,,,,5,,,,63,37
14214,note_on,,,,,96,0,9,,,,,8,,,,34,0
14214,note_on,,,,,0,0,9,,,,,8,,,,34,37
14253,note_on,,,,,48,0,7,,,,,6,,,,54,0
14253,note_on,,,,,0,0,7,,,,,6,,,,54,37
14261,note_on,,,,,0,0,6,,,,,5,,,,63,37
14261,note_on,,,,,0,0,6,,,,,5,,,,60,37
14261,note_on,,,,,0,0,6,,,,,5,,,,60,0
14261,note_on,,,,,48,0,6,,,,,5,,,,63,0
14301,note_on,,,,,48,0,7,,,,,6,,,,54,0
14301,note_on,,,,,0,0,7,,,,,6,,,,54,37
14303,note_on,,,,,0,0,8,,,,,7,,,,46,37
14303,note_on,,,,,96,0,8,,,,,7,,,,46,0
14309,note_on,,,,,0,0,6,,,,,5,,,,60,0
14309,note_on,,,,,0,0,6,,,,,5,,,,63,37
14309,note_on,,,,,0,0,6,,,,,5,,,,60,37
14309,note_on,,,,,48,0,6,,,,,5,,,,63,0
14310,note_on,,,,,96,0,9,,,,,8,,,,34,0
14310,note_on,,,,,0,0,9,,,,,8,,,,34,37
14349,note_on,,,,,48,0,7,,,,,6,,,,54,0
14349,note_on,,,,,0,0,7,,,,,6,,,,54,37
14357,note_on,,,,,0,0,6,,,,,5,,,,63,37
14357,note_on,,,,,0,0,6,,,,,5,,,,60,0
14357,note_on,,,,,48,0,6,,,,,5,,,,63,0
14357,note_on,,,,,0,0,6,,,,,5,,,,60,37
14397,note_on,,,,,48,0,7,,,,,6,,,,54,0
14397,note_on,,,,,0,0,7,,,,,6,,,,53,75
14398,note_on,,,,,992,0,1,,,,,0,,,,72,75
14398,note_on,,,,,0,0,1,,,,,0,,,,75,75
14399,note_on,,,,,96,0,8,,,,,7,,,,46,0
14399,note_on,,,,,0,0,8,,,,,7,,,,45,75
14400,note_on,,,,,224,0,5,,,,,4,,,,57,75
14402,note_on,,,,,992,0,2,,,,,1,,,,65,75
14405,note_on,,,,,0,0,6,,,,,5,,,,60,0
14405,note_on,,,,,0,0,6,,,,,5,,,,63,75
14405,note_on,,,,,0,0,6,,,,,5,,,,60,75
14405,note_on,,,,,48,0,6,,,,,5,,,,63,0
14406,note_on,,,,,96,0,9,,,,,8,,,,34,0
14406,note_on,,,,,0,0,9,,,,,8,,,,33,75
14445,note_on,,,,,0,0,7,,,,,6,,,,53,75
14445,note_on,,,,,48,0,7,,,,,6,,,,53,0
14453,note_on,,,,,0,0,6,,,,,5,,,,60,0
14453,note_on,,,,,0,0,6,,,,,5,,,,63,75
14453,note_on,,,,,0,0,6,,,,,5,,,,60,75
14453,note_on,,,,,48,0,6,,,,,5,,,,63,0
14493,note_on,,,,,0,0,7,,,,,6,,,,53,75
14493,note_on,,,,,48,0,7,,,,,6,,,,53,0
14495,note_on,,,,,96,0,8,,,,,7,,,,45,0
14495,note_on,,,,,0,0,8,,,,,7,,,,45,75
14501,note_on,,,,,48,0,6,,,,,5,,,,63,0
14501,note_on,,,,,0,0,6,,,,,5,,,,60,0
14501,note_on,,,,,0,0,6,,,,,5,,,,60,75
14501,note_on,,,,,0,0,6,,,,,5,,,,63,75
14502,note_on,,,,,0,0,9,,,,,8,,,,33,75
14502,note_on,,,,,96,0,9,,,,,8,,,,33,0
14541,note_on,,,,,0,0,7,,,,,6,,,,53,75
14541,note_on,,,,,48,0,7,,,,,6,,,,53,0
14549,note_on,,,,,0,0,6,,,,,5,,,,60,0
14549,note_on,,,,,48,0,6,,,,,5,,,,63,0
14549,note_on,,,,,0,0,6,,,,,5,,,,60,75
14549,note_on,,,,,0,0,6,,,,,5,,,,63,75
14589,note_on,,,,,0,0,7,,,,,6,,,,53,75
14589,note_on,,,,,48,0,7,,,,,6,,,,53,0
14591,note_on,,,,,96,0,8,,,,,7,,,,45,0
14591,note_on,,,,,0,0,8,,,,,7,,,,45,75
14597,note_on,,,,,48,0,6,,,,,5,,,,63,0
14597,note_on,,,,,0,0,6,,,,,5,,,,60,0
14597,note_on,,,,,0,0,6,,,,,5,,,,60,75
14597,note_on,,,,,0,0,6,,,,,5,,,,63,75
14598,note_on,,,,,96,0,9,,,,,8,,,,33,0
14598,note_on,,,,,0,0,9,,,,,8,,,,33,75
14637,note_on,,,,,48,0,7,,,,,6,,,,53,0
14637,note_on,,,,,0,0,7,,,,,6,,,,53,75
14645,note_on,,,,,48,0,6,,,,,5,,,,63,0
14645,note_on,,,,,0,0,6,,,,,5,,,,63,75
14645,note_on,,,,,0,0,6,,,,,5,,,,60,0
14645,note_on,,,,,0,0,6,,,,,5,,,,60,75
14656,note_on,,,,,256,0,5,,,,,4,,,,57,0
14685,note_on,,,,,48,0,7,,,,,6,,,,53,0
14685,note_on,,,,,0,0,7,,,,,6,,,,53,75
14687,note_on,,,,,0,0,8,,,,,7,,,,45,75
14687,note_on,,,,,96,0,8,,,,,7,,,,45,0
14688,note_on,,,,,32,0,5,,,,,4,,,,75,75
14693,note_on,,,,,0,0,6,,,,,5,,,,60,75
14693,note_on,,,,,0,0,6,,,,,5,,,,63,75
14693,note_on,,,,,0,0,6,,,,,5,,,,60,0
14693,note_on,,,,,48,0,6,,,,,5,,,,63,0
14694,note_on,,,,,0,0,9,,,,,8,,,,33,75
14694,note_on,,,,,96,0,9,,,,,8,,,,33,0
14733,note_on,,,,,48,0,7,,,,,6,,,,53,0
14733,note_on,,,,,0,0,7,,,,,6,,,,53,75
14734,note_on,,,,,46,0,5,,,,,4,,,,75,0
14736,note_on,,,,,2,0,5,,,,,4,,,,81,75
14741,note_on,,,,,0,0,6,,,,,5,,,,60,0
14741,note_on,,,,,0,0,6,,,,,5,,,,60,75
14741,note_on,,,,,0,0,6,,,,,5,,,,63,75
14741,note_on,,,,,48,0,6,,,,,5,,,,63,0
14781,note_on,,,,,48,0,7,,,,,6,,,,53,0
14781,note_on,,,,,0,0,7,,,,,6,,,,53,75
14782,note_on,,,,,46,0,5,,,,,4,,,,81,0
14783,note_on,,,,,96,0,8,,,,,7,,,,45,0
14783,note_on,,,,,0,0,8,,,,,7,,,,45,75
14784,note_on,,,,,2,0,5,,,,,4,,,,84,75
14789,note_on,,,,,48,0,6,,,,,5,,,,63,0
14789,note_on,,,,,0,0,6,,,,,5,,,,63,75
14789,note_on,,,,,0,0,6,,,,,5,,,,60,75
14789,note_on,,,,,0,0,6,,,,,5,,,,60,0
14790,note_on,,,,,96,0,9,,,,,8,,,,33,0
14790,note_on,,,,,0,0,9,,,,,8,,,,33,75
14829,note_on,,,,,48,0,7,,,,,6,,,,53,0
14829,note_on,,,,,0,0,7,,,,,6,,,,53,75
14832,note_on,,,,,0,0,5,,,,,4,,,,81,75
14832,note_on,,,,,48,0,5,,,,,4,,,,84,0
14837,note_on,,,,,0,0,6,,,,,5,,,,60,75
14837,note_on,,,,,0,0,6,,,,,5,,,,60,0
14837,note_on,,,,,0,0,6,,,,,5,,,,63,75
14837,note_on,,,,,48,0,6,,,,,5,,,,63,0
14877,note_on,,,,,0,0,7,,,,,6,,,,53,75
14877,note_on,,,,,48,0,7,,,,,6,,,,53,0
14878,note_on,,,,,46,0,5,,,,,4,,,,81,0
14879,note_on,,,,,96,0,8,,,,,7,,,,45,0
14879,note_on,,,,,0,0,8,,,,,7,,,,45,75
14880,note_on,,,,,2,0,5,,,,,4,,,,84,75
14885,note_on,,,,,48,0,6,,,,,5,,,,63,0
14885,note_on,,,,,0,0,6,,,,,5,,,,63,75
14885,note_on,,,,,0,0,6,,,,,5,,,,60,75
14885,note_on,,,,,0,0,6,,,,,5,,,,60,0
14886,note_on,,,,,96,0,9,,,,,8,,,,33,0
14886,note_on,,,,,0,0,9,,,,,8,,,,33,75
14912,note_on,,,,,32,0,5,,,,,4,,,,84,0
14925,note_on,,,,,0,0,7,,,,,6,,,,53,75
14925,note_on,,,,,48,0,7,,,,,6,,,,53,0
14928,note_on,,,,,16,0,5,,,,,4,,,,81,75
14933,note_on,,,,,48,0,6,,,,,5,,,,63,0
14933,note_on,,,,,0,0,6,,,,,5,,,,60,0
14933,note_on,,,,,0,0,6,,,,,5,,,,60,75
14933,note_on,,,,,0,0,6,,,,,5,,,,63,75
14960,note_on,,,,,32,0,5,,,,,4,,,,81,0
14973,note_on,,,,,48,0,7,,,,,6,,,,53,0
14973,note_on,,,,,0,0,7,,,,,6,,,,53,75
14975,note_on,,,,,96,0,8,,,,,7,,,,45,0
14975,note_on,,,,,0,0,8,,,,,7,,,,45,75
14976,note_on,,,,,16,0,5,,,,,4,,,,84,75
14981,note_on,,,,,48,0,6,,,,,5,,,,63,0
14981,note_on,,,,,0,0,6,,,,,5,,,,63,75
14981,note_on,,,,,0,0,6,,,,,5,,,,60,75
14981,note_on,,,,,0,0,6,,,,,5,,,,60,0
14982,note_on,,,,,0,0,9,,,,,8,,,,33,75
14982,note_on,,,,,96,0,9,,,,,8,,,,33,0
15021,note_on,,,,,0,0,7,,,,,6,,,,53,75
15021,note_on,,,,,48,0,7,,,,,6,,,,53,0
15029,note_on,,,,,48,0,6,,,,,5,,,,63,0
15029,note_on,,,,,0,0,6,,,,,5,,,,60,0
15029,note_on,,,,,0,0,6,,,,,5,,,,60,75
15029,note_on,,,,,0,0,6,,,,,5,,,,63,75
15069,note_on,,,,,0,0,7,,,,,6,,,,53,75
15069,note_on,,,,,48,0,7,,,,,6,,,,53,0
15070,note_on,,,,,94,0,5,,,,,4,,,,84,0
15071,note_on,,,,,96,0,8,,,,,7,,,,45,0
15071,note_on,,,,,0,0,8,,,,,7,,,,45,75
15077,note_on,,,,,48,0,6,,,,,5,,,,63,0
15077,note_on,,,,,0,0,6,,,,,5,,,,60,0
15077,note_on,,,,,0,0,6,,,,,5,,,,60,75
15077,note_on,,,,,0,0,6,,,,,5,,,,63,75
15078,note_on,,,,,0,0,9,,,,,8,,,,33,75
15078,note_on,,,,,96,0,9,,,,,8,,,,33,0
15117,note_on,,,,,0,0,7,,,,,6,,,,53,75
15117,note_on,,,,,48,0,7,,,,,6,,,,53,0
15125,note_on,,,,,48,0,6,,,,,5,,,,63,0
15125,note_on,,,,,0,0,6,,,,,5,,,,60,0
15125,note_on,,,,,0,0,6,,,,,5,,,,60,75
15125,note_on,,,,,0,0,6,,,,,5,,,,63,75
15134,note_on,,,,,736,0,1,,,,,0,,,,75,0
15134,note_on,,,,,0,0,1,,,,,0,,,,72,0
15138,note_on,,,,,736,0,2,,,,,1,,,,65,0
15165,note_on,,,,,0,0,7,,,,,6,,,,53,75
15165,note_on,,,,,48,0,7,,,,,6,,,,53,0
15166,note_on,,,,,0,0,1,,,,,0,,,,75,75
15166,note_on,,,,,32,0,1,,,,,0,,,,72,75
15167,note_on,,,,,96,0,8,,,,,7,,,,45,0
15167,note_on,,,,,0,0,8,,,,,7,,,,45,75
15168,note_on,,,,,98,0,5,,,,,4,,,,81,75
15170,note_on,,,,,32,0,2,,,,,1,,,,65,75
15173,note_on,,,,,48,0,6,,,,,5,,,,63,0
15173,note_on,,,,,0,0,6,,,,,5,,,,60,0
15173,note_on,,,,,0,0,6,,,,,5,,,,60,75
15173,note_on,,,,,0,0,6,,,,,5,,,,63,75
15174,note_on,,,,,96,0,9,,,,,8,,,,33,0
15174,note_on,,,,,0,0,9,,,,,8,,,,33,75
15213,note_on,,,,,48,0,7,,,,,6,,,,53,0
15213,note_on,,,,,0,0,7,,,,,6,,,,53,75
15221,note_on,,,,,48,0,6,,,,,5,,,,63,0
15221,note_on,,,,,0,0,6,,,,,5,,,,63,75
15221,note_on,,,,,0,0,6,,,,,5,,,,60,75
15221,note_on,,,,,0,0,6,,,,,5,,,,60,0
15261,note_on,,,,,48,0,7,,,,,6,,,,53,0
15261,note_on,,,,,0,0,7,,,,,6,,,,53,75
15262,note_on,,,,,94,0,5,,,,,4,,,,81,0
15263,note_on,,,,,96,0,8,,,,,7,,,,45,0
15263,note_on,,,,,0,0,8,,,,,7,,,,45,75
15269,note_on,,,,,48,0,6,,,,,5,,,,63,0
15269,note_on,,,,,0,0,6,,,,,5,,,,60,0
15269,note_on,,,,,0,0,6,,,,,5,,,,60,75
15269,note_on,,,,,0,0,6,,,,,5,,,,63,75
15270,note_on,,,,,96,0,9,,,,,8,,,,33,0
15270,note_on,,,,,0,0,9,,,,,8,,,,33,75
15309,note_on,,,,,0,0,7,,,,,6,,,,53,75
15309,note_on,,,,,48,0,7,,,,,6,,,,53,0
15317,note_on,,,,,0,0,6,,,,,5,,,,63,75
15317,note_on,,,,,0,0,6,,,,,5,,,,60,75
15317,note_on,,,,,0,0,6,,,,,5,,,,60,0
15317,note_on,,,,,48,0,6,,,,,5,,,,63,0
15326,note_on,,,,,0,0,1,,,,,0,,,,72,0
15326,note_on,,,,,160,0,1,,,,,0,,,,75,0
15330,note_on,,,,,160,0,2,,,,,1,,,,65,0
15357,note_on,,,,,48,0,7,,,,,6,,,,53,0
15357,note_on,,,,,0,0,7,,,,,6,,,,53,75
15358,note_on,,,,,32,0,1,,,,,0,,,,72,75
15358,note_on,,,,,0,0,1,,,,,0,,,,75,75
15359,note_on,,,,,96,0,8,,,,,7,,,,45,0
15359,note_on,,,,,0,0,8,,,,,7,,,,45,75
15360,note_on,,,,,98,0,5,,,,,4,,,,75,75
15362,note_on,,,,,32,0,2,,,,,1,,,,65,75
15365,note_on,,,,,48,0,6,,,,,5,,,,63,0
15365,note_on,,,,,0,0,6,,,,,5,,,,60,0
15365,note_on,,,,,0,0,6,,,,,5,,,,60,75
15365,note_on,,,,,0,0,6,,,,,5,,,,63,75
15366,note_on,,,,,96,0,9,,,,,8,,,,33,0
15366,note_on,,,,,0,0,9,,,,,8,,,,33,75
15405,note_on,,,,,48,0,7,,,,,6,,,,53,0
15405,note_on,,,,,0,0,7,,,,,6,,,,53,75
15413,note_on,,,,,48,0,6,,,,,5,,,,63,0
15413,note_on,,,,,0,0,6,,,,,5,,,,60,75
15413,note_on,,,,,0,0,6,,,,,5,,,,63,75
15413,note_on,,,,,0,0,6,,,,,5,,,,60,0
15453,note_on,,,,,0,0,7,,,,,6,,,,53,75
15453,note_on,,,,,48,0,7,,,,,6,,,,53,0
15454,note_on,,,,,94,0,5,,,,,4,,,,75,0
15455,note_on,,,,,96,0,8,,,,,7,,,,45,0
15455,note_on,,,,,0,0,8,,,,,7,,,,45,75
15461,note_on,,,,,0,0,6,,,,,5,,,,63,75
15461,note_on,,,,,0,0,6,,,,,5,,,,60,75
15461,note_on,,,,,0,0,6,,,,,5,,,,60,0
15461,note_on,,,,,48,0,6,,,,,5,,,,63,0
15462,note_on,,,,,96,0,9,,,,,8,,,,33,0
15462,note_on,,,,,0,0,9,,,,,8,,,,33,75
15501,note_on,,,,,0,0,7,,,,,6,,,,53,75
15501,note_on,,,,,48,0,7,,,,,6,,,,53,0
15509,note_on,,,,,0,0,6,,,,,5,,,,63,75
15509,note_on,,,,,0,0,6,,,,,5,,,,60,75
15509,note_on,,,,,0,0,6,,,,,5,,,,60,0
15509,note_on,,,,,48,0,6,,,,,5,,,,63,0
15518,note_on,,,,,160,0,1,,,,,0,,,,75,0
15518,note_on,,,,,0,0,1,,,,,0,,,,72,0
15522,note_on,,,,,160,0,2,,,,,1,,,,65,0
15549,note_on,,,,,0,0,7,,,,,6,,,,53,75
15549,note_on,,,,,48,0,7,,,,,6,,,,53,0
15550,note_on,,,,,0,0,1,,,,,0,,,,74,75
15550,note_on,,,,,32,0,1,,,,,0,,,,70,75
15551,note_on,,,,,96,0,8,,,,,7,,,,45,0
15551,note_on,,,,,0,0,8,,,,,7,,,,46,75
15552,note_on,,,,,98,0,5,,,,,4,,,,58,75
15554,note_on,,,,,0,0,2,,,,,1,,,,65,75
15554,note_on,,,,,32,0,2,,,,,1,,,,58,75
15557,note_on,,,,,0,0,6,,,,,5,,,,62,75
15557,note_on,,,,,48,0,6,,,,,5,,,,63,0
15557,note_on,,,,,0,0,6,,,,,5,,,,60,0
15557,note_on,,,,,0,0,6,,,,,5,,,,58,75
15558,note_on,,,,,96,0,9,,,,,8,,,,33,0
15558,note_on,,,,,0,0,9,,,,,8,,,,34,75
15597,note_on,,,,,48,0,7,,,,,6,,,,53,0
15597,note_on,,,,,0,0,7,,,,,6,,,,53,75
15605,note_on,,,,,0,0,6,,,,,5,,,,62,75
15605,note_on,,,,,0,0,6,,,,,5,,,,58,75
15605,note_on,,,,,0,0,6,,,,,5,,,,58,0
15605,note_on,,,,,48,0,6,,,,,5,,,,62,0
15645,note_on,,,,,48,0,7,,,,,6,,,,53,0
15645,note_on,,,,,0,0,7,,,,,6,,,,53,75
15647,note_on,,,,,96,0,8,,,,,7,,,,46,0
15647,note_on,,,,,0,0,8,,,,,7,,,,46,75
15653,note_on,,,,,48,0,6,,,,,5,,,,62,0
15653,note_on,,,,,0,0,6,,,,,5,,,,58,75
15653,note_on,,,,,0,0,6,,,,,5,,,,58,0
15653,note_on,,,,,0,0,6,,,,,5,,,,62,75
15654,note_on,,,,,96,0,9,,,,,8,,,,34,0
15654,note_on,,,,,0,0,9,,,,,8,,,,34,75
15693,note_on,,,,,48,0,7,,,,,6,,,,53,0
15693,note_on,,,,,0,0,7,,,,,6,,,,53,75
15701,note_on,,,,,0,0,6,,,,,5,,,,62,75
15701,note_on,,,,,48,0,6,,,,,5,,,,62,0
15701,note_on,,,,,0,0,6,,,,,5,,,,58,75
15701,note_on,,,,,0,0,6,,,,,5,,,,58,0
15741,note_on,,,,,0,0,7,,,,,6,,,,53,75
15741,note_on,,,,,48,0,7,,,,,6,,,,53,0
15743,note_on,,,,,96,0,8,,,,,7,,,,46,0
15743,note_on,,,,,0,0,8,,,,,7,,,,46,75
15749,note_on,,,,,48,0,6,,,,,5,,,,62,0
15749,note_on,,,,,0,0,6,,,,,5,,,,58,0
15749,note_on,,,,,0,0,6,,,,,5,,,,58,75
15749,note_on,,,,,0,0,6,,,,,5,,,,62,75
15750,note_on,,,,,96,0,9,,,,,8,,,,34,0
15750,note_on,,,,,0,0,9,,,,,8,,,,34,75
15789,note_on,,,,,48,0,7,,,,,6,,,,53,0
15789,note_on,,,,,0,0,7,,,,,6,,,,53,75
15797,note_on,,,,,48,0,6,,,,,5,,,,62,0
15797,note_on,,,,,0,0,6,,,,,5,,,,58,0
15797,note_on,,,,,0,0,6,,,,,5,,,,58,75
15797,note_on,,,,,0,0,6,,,,,5,,,,62,75
15808,note_on,,,,,256,0,5,,,,,4,,,,58,0
15837,note_on,,,,,0,0,7,,,,,6,,,,53,75
15837,note_on,,,,,48,0,7,,,,,6,,,,53,0
15839,note_on,,,,,0,0,8,,,,,7,,,,46,75
15839,note_on,,,,,96,0,8,,,,,7,,,,46,0
15840,note_on,,,,,32,0,5,,,,,4,,,,74,75
15845,note_on,,,,,48,0,6,,,,,5,,,,62,0
15845,note_on,,,,,0,0,6,,,,,5,,,,58,0
15845,note_on,,,,,0,0,6,,,,,5,,,,58,75
15845,note_on,,,,,0,0,6,,,,,5,,,,62,75
15846,note_on,,,,,96,0,9,,,,,8,,,,34,0
15846,note_on,,,,,0,0,9,,,,,8,,,,34,75
15885,note_on,,,,,48,0,7,,,,,6,,,,53,0
15885,note_on,,,,,0,0,7,,,,,6,,,,53,75
15886,note_on,,,,,46,0,5,,,,,4,,,,74,0
15888,note_on,,,,,2,0,5,,,,,4,,,,77,75
15893,note_on,,,,,0,0,6,,,,,5,,,,62,75
15893,note_on,,,,,48,0,6,,,,,5,,,,62,0
15893,note_on,,,,,0,0,6,,,,,5,,,,58,0
15893,note_on,,,,,0,0,6,,,,,5,,,,58,75
15933,note_on,,,,,48,0,7,,,,,6,,,,53,0
15933,note_on,,,,,0,0,7,,,,,6,,,,53,75
15934,note_on,,,,,46,0,5,,,,,4,,,,77,0
15935,note_on,,,,,96,0,8,,,,,7,,,,46,0
15935,note_on,,,,,0,0,8,,,,,7,,,,46,75
15936,note_on,,,,,2,0,5,,,,,4,,,,82,75
15941,note_on,,,,,0,0,6,,,,,5,,,,58,0
15941,note_on,,,,,0,0,6,,,,,5,,,,58,75
15941,note_on,,,,,0,0,6,,,,,5,,,,62,75
15941,note_on,,,,,48,0,6,,,,,5,,,,62,0
15942,note_on,,,,,96,0,9,,,,,8,,,,34,0
15942,note_on,,,,,0,0,9,,,,,8,,,,34,75
15981,note_on,,,,,0,0,7,,,,,6,,,,53,75
15981,note_on,,,,,48,0,7,,,,,6,,,,53,0
15984,note_on,,,,,48,0,5,,,,,4,,,,82,0
15984,note_on,,,,,0,0,5,,,,,4,,,,77,75
15989,note_on,,,,,0,0,6,,,,,5,,,,58,0
15989,note_on,,,,,48,0,6,,,,,5,,,,62,0
15989,note_on,,,,,0,0,6,,,,,5,,,,58,75
15989,note_on,,,,,0,0,6,,,,,5,,,,62,75
16029,note_on,,,,,0,0,7,,,,,6,,,,53,75
16029,note_on,,,,,48,0,7,,,,,6,,,,53,0
16030,note_on,,,,,46,0,5,,,,,4,,,,77,0
16031,note_on,,,,,0,0,8,,,,,7,,,,46,75
16031,note_on,,,,,96,0,8,,,,,7,,,,46,0
16032,note_on,,,,,2,0,5,,,,,4,,,,82,75
16037,note_on,,,,,0,0,6,,,,,5,,,,62,75
16037,note_on,,,,,0,0,6,,,,,5,,,,58,0
16037,note_on,,,,,0,0,6,,,,,5,,,,58,75
16037,note_on,,,,,48,0,6,,,,,5,,,,62,0
16038,note_on,,,,,96,0,9,,,,,8,,,,34,0
16038,note_on,,,,,0,0,9,,,,,8,,,,34,75
16064,note_on,,,,,32,0,5,,,,,4,,,,82,0
16077,note_on,,,,,0,0,7,,,,,6,,,,53,75
16077,note_on,,,,,48,0,7,,,,,6,,,,53,0
16080,note_on,,,,,16,0,5,,,,,4,,,,77,75
16085,note_on,,,,,0,0,6,,,,,5,,,,62,75
16085,note_on,,,,,48,0,6,,,,,5,,,,62,0
16085,note_on,,,,,0,0,6,,,,,5,,,,58,0
16085,note_on,,,,,0,0,6,,,,,5,,,,58,75
16112,note_on,,,,,32,0,5,,,,,4,,,,77,0
16125,note_on,,,,,0,0,7,,,,,6,,,,53,75
16125,note_on,,,,,48,0,7,,,,,6,,,,53,0
16127,note_on,,,,,0,0,8,,,,,7,,,,46,75
16127,note_on,,,,,96,0,8,,,,,7,,,,46,0
16128,note_on,,,,,16,0,5,,,,,4,,,,82,75
16133,note_on,,,,,48,0,6,,,,,5,,,,62,0
16133,note_on,,,,,0,0,6,,,,,5,,,,58,0
16133,note_on,,,,,0,0,6,,,,,5,,,,58,75
16133,note_on,,,,,0,0,6,,,,,5,,,,62,75
16134,note_on,,,,,0,0,9,,,,,8,,,,34,75
16134,note_on,,,,,96,0,9,,,,,8,,,,34,0
16173,note_on,,,,,0,0,7,,,,,6,,,,53,75
16173,note_on,,,,,48,0,7,,,,,6,,,,53,0
16181,note_on,,,,,48,0,6,,,,,5,,,,62,0
16181,note_on,,,,,0,0,6,,,,,5,,,,58,0
16181,note_on,,,,,0,0,6,,,,,5,,,,58,75
16181,note_on,,,,,0,0,6,,,,,5,,,,62,75
16221,note_on,,,,,0,0,7,,,,,6,,,,53,75
16221,note_on,,,,,48,0,7,,,,,6,,,,53,0
16222,note_on,,,,,94,0,5,,,,,4,,,,82,0
16223,note_on,,,,,0,0,8,,,,,7,,,,46,75
16223,note_on,,,,,96,0,8,,,,,7,,,,46,0
16229,note_on,,,,,0,0,6,,,,,5,,,,62,75
16229,note_on,,,,,0,0,6,,,,,5,,,,58,75
16229,note_on,,,,,0,0,6,,,,,5,,,,58,0
16229,note_on,,,,,48,0,6,,,,,5,,,,62,0
16230,note_on,,,,,0,0,9,,,,,8,,,,34,75
16230,note_on,,,,,96,0,9,,,,,8,,,,34,0
16269,note_on,,,,,0,0,7,,,,,6,,,,53,75
16269,note_on,,,,,48,0,7,,,,,6,,,,53,0
16277,note_on,,,,,0,0,6,,,,,5,,,,62,75
16277,note_on,,,,,0,0,6,,,,,5,,,,58,75
16277,note_on,,,,,48,0,6,,,,,5,,,,62,0
16277,note_on,,,,,0,0,6,,,,,5,,,,58,0
16286,note_on,,,,,736,0,1,,,,,0,,,,74,0
16286,note_on,,,,,0,0,1,,,,,0,,,,70,0
16290,note_on,,,,,736,0,2,,,,,1,,,,65,0
16290,note_on,,,,,0,0,2,,,,,1,,,,58,0
16317,note_on,,,,,0,0,7,,,,,6,,,,53,75
16317,note_on,,,,,48,0,7,,,,,6,,,,53,0
16318,note_on,,,,,0,0,1,,,,,0,,,,74,75
16318,note_on,,,,,32,0,1,,,,,0,,,,70,75
16319,note_on,,,,,96,0,8,,,,,7,,,,46,0
16319,note_on,,,,,0,0,8,,,,,7,,,,46,75
16320,note_on,,,,,98,0,5,,,,,4,,,,77,75
16322,note_on,,,,,0,0,2,,,,,1,,,,65,75
16322,note_on,,,,,32,0,2,,,,,1,,,,58,75
16325,note_on,,,,,48,0,6,,,,,5,,,,62,0
16325,note_on,,,,,0,0,6,,,,,5,,,,58,0
16325,note_on,,,,,0,0,6,,,,,5,,,,58,75
16325,note_on,,,,,0,0,6,,,,,5,,,,62,75
16326,note_on,,,,,0,0,9,,,,,8,,,,34,75
16326,note_on,,,,,96,0,9,,,,,8,,,,34,0
16365,note_on,,,,,0,0,7,,,,,6,,,,53,75
16365,note_on,,,,,48,0,7,,,,,6,,,,53,0
16373,note_on,,,,,0,0,6,,,,,5,,,,62,75
16373,note_on,,,,,0,0,6,,,,,5,,,,58,75
16373,note_on,,,,,0,0,6,,,,,5,,,,58,0
16373,note_on,,,,,48,0,6,,,,,5,,,,62,0
16413,note_on,,,,,0,0,7,,,,,6,,,,53,75
16413,note_on,,,,,48,0,7,,,,,6,,,,53,0
16414,note_on,,,,,94,0,5,,,,,4,,,,77,0
16415,note_on,,,,,96,0,8,,,,,7,,,,46,0
16415,note_on,,,,,0,0,8,,,,,7,,,,46,75
16421,note_on,,,,,0,0,6,,,,,5,,,,58,75
16421,note_on,,,,,0,0,6,,,,,5,,,,58,0
16421,note_on,,,,,0,0,6,,,,,5,,,,62,75
16421,note_on,,,,,48,0,6,,,,,5,,,,62,0
16422,note_on,,,,,0,0,9,,,,,8,,,,34,75
16422,note_on,,,,,96,0,9,,,,,8,,,,34,0
16461,note_on,,,,,0,0,7,,,,,6,,,,53,75
16461,note_on,,,,,48,0,7,,,,,6,,,,53,0
16469,note_on,,,,,48,0,6,,,,,5,,,,62,0
16469,note_on,,,,,0,0,6,,,,,5,,,,58,0
16469,note_on,,,,,0,0,6,,,,,5,,,,58,75
16469,note_on,,,,,0,0,6,,,,,5,,,,62,75
16478,note_on,,,,,0,0,1,,,,,0,,,,70,0
16478,note_on,,,,,160,0,1,,,,,0,,,,74,0
16482,note_on,,,,,160,0,2,,,,,1,,,,65,0
16482,note_on,,,,,0,0,2,,,,,1,,,,58,0
16509,note_on,,,,,0,0,7,,,,,6,,,,53,75
16509,note_on,,,,,48,0,7,,,,,6,,,,53,0
16510,note_on,,,,,0,0,1,,,,,0,,,,74,75
16510,note_on,,,,,32,0,1,,,,,0,,,,70,75
16511,note_on,,,,,96,0,8,,,,,7,,,,46,0
16511,note_on,,,,,0,0,8,,,,,7,,,,46,75
16512,note_on,,,,,98,0,5,,,,,4,,,,74,75
16514,note_on,,,,,0,0,2,,,,,1,,,,65,75
16514,note_on,,,,,32,0,2,,,,,1,,,,58,75
16517,note_on,,,,,48,0,6,,,,,5,,,,62,0
16517,note_on,,,,,0,0,6,,,,,5,,,,62,75
16517,note_on,,,,,0,0,6,,,,,5,,,,58,75
16517,note_on,,,,,0,0,6,,,,,5,,,,58,0
16518,note_on,,,,,96,0,9,,,,,8,,,,34,0
16518,note_on,,,,,0,0,9,,,,,8,,,,34,75
16557,note_on,,,,,0,0,7,,,,,6,,,,53,75
16557,note_on,,,,,48,0,7,,,,,6,,,,53,0
16565,note_on,,,,,48,0,6,,,,,5,,,,62,0
16565,note_on,,,,,0,0,6,,,,,5,,,,62,75
16565,note_on,,,,,0,0,6,,,,,5,,,,58,0
16565,note_on,,,,,0,0,6,,,,,5,,,,58,75
16605,note_on,,,,,0,0,7,,,,,6,,,,53,75
16605,note_on,,,,,48,0,7,,,,,6,,,,53,0
16606,note_on,,,,,94,0,5,,,,,4,,,,74,0
16607,note_on,,,,,96,0,8,,,,,7,,,,46,0
16607,note_on,,,,,0,0,8,,,,,7,,,,46,75
16613,note_on,,,,,48,0,6,,,,,5,,,,62,0
16613,note_on,,,,,0,0,6,,,,,5,,,,58,0
16613,note_on,,,,,0,0,6,,,,,5,,,,62,75
16613,note_on,,,,,0,0,6,,,,,5,,,,58,75
16614,note_on,,,,,0,0,9,,,,,8,,,,34,75
16614,note_on,,,,,96,0,9,,,,,8,,,,34,0
16653,note_on,,,,,0,0,7,,,,,6,,,,53,75
16653,note_on,,,,,48,0,7,,,,,6,,,,53,0
16661,note_on,,,,,0,0,6,,,,,5,,,,58,0
16661,note_on,,,,,48,0,6,,,,,5,,,,62,0
16661,note_on,,,,,0,0,6,,,,,5,,,,58,75
16661,note_on,,,,,0,0,6,,,,,5,,,,62,75
16670,note_on,,,,,0,0,1,,,,,0,,,,70,0
16670,note_on,,,,,160,0,1,,,,,0,,,,74,0
16674,note_on,,,,,0,0,2,,,,,1,,,,58,0
16674,note_on,,,,,160,0,2,,,,,1,,,,65,0
16701,note_on,,,,,48,0,7,,,,,6,,,,53,0
16701,note_on,,,,,0,0,7,,,,,6,,,,55,75
16701,note_on,,,,,0,0,7,,,,,6,,,,58,75
16702,note_on,,,,,0,0,1,,,,,0,,,,72,75
16702,note_on,,,,,32,0,1,,,,,0,,,,70,75
16703,note_on,,,,,96,0,8,,,,,7,,,,46,0
16703,note_on,,,,,0,0,8,,,,,7,,,,51,75
16704,note_on,,,,,98,0,5,,,,,4,,,,63,75
16706,note_on,,,,,0,0,2,,,,,1,,,,67,75
16706,note_on,,,,,32,0,2,,,,,1,,,,58,75
16709,note_on,,,,,0,0,6,,,,,5,,,,60,75
16709,note_on,,,,,0,0,6,,,,,5,,,,58,0
16709,note_on,,,,,48,0,6,,,,,5,,,,62,0
16710,note_on,,,,,96,0,9,,,,,8,,,,34,0
16710,note_on,,,,,0,0,9,,,,,8,,,,39,75
16749,note_on,,,,,48,0,7,,,,,6,,,,58,0
16749,note_on,,,,,0,0,7,,,,,6,,,,55,0
16749,note_on,,,,,0,0,7,,,,,6,,,,55,75
16749,note_on,,,,,0,0,7,,,,,6,,,,58,75
16757,note_on,,,,,0,0,6,,,,,5,,,,60,75
16757,note_on,,,,,48,0,6,,,,,5,,,,60,0
16797,note_on,,,,,0,0,7,,,,,6,,,,55,0
16797,note_on,,,,,0,0,7,,,,,6,,,,55,75
16797,note_on,,,,,0,0,7,,,,,6,,,,58,75
16797,note_on,,,,,48,0,7,,,,,6,,,,58,0
16799,note_on,,,,,0,0,8,,,,,7,,,,51,75
16799,note_on,,,,,96,0,8,,,,,7,,,,51,0
16805,note_on,,,,,0,0,6,,,,,5,,,,60,75
16805,note_on,,,,,48,0,6,,,,,5,,,,60,0
16806,note_on,,,,,96,0,9,,,,,8,,,,39,0
16806,note_on,,,,,0,0,9,,,,,8,,,,39,75
16845,note_on,,,,,0,0,7,,,,,6,,,,58,75
16845,note_on,,,,,0,0,7,,,,,6,,,,55,75
16845,note_on,,,,,0,0,7,,,,,6,,,,55,0
16845,note_on,,,,,48,0,7,,,,,6,,,,58,0
16853,note_on,,,,,0,0,6,,,,,5,,,,60,75
16853,note_on,,,,,48,0,6,,,,,5,,,,60,0
16893,note_on,,,,,0,0,7,,,,,6,,,,55,75
16893,note_on,,,,,0,0,7,,,,,6,,,,58,75
16893,note_on,,,,,48,0,7,,,,,6,,,,58,0
16893,note_on,,,,,0,0,7,,,,,6,,,,55,0
16895,note_on,,,,,96,0,8,,,,,7,,,,51,0
16895,note_on,,,,,0,0,8,,,,,7,,,,51,75
16901,note_on,,,,,48,0,6,,,,,5,,,,60,0
16901,note_on,,,,,0,0,6,,,,,5,,,,60,75
16902,note_on,,,,,96,0,9,,,,,8,,,,39,0
16902,note_on,,,,,0,0,9,,,,,8,,,,39,75
16941,note_on,,,,,0,0,7,,,,,6,,,,58,75
16941,note_on,,,,,0,0,7,,,,,6,,,,55,75
16941,note_on,,,,,48,0,7,,,,,6,,,,58,0
16941,note_on,,,,,0,0,7,,,,,6,,,,55,0
16949,note_on,,,,,48,0,6,,,,,5,,,,60,0
16949,note_on,,,,,0,0,6,,,,,5,,,,60,75
16960,note_on,,,,,256,0,5,,,,,4,,,,63,0
16989,note_on,,,,,0,0,7,,,,,6,,,,55,0
16989,note_on,,,,,0,0,7,,,,,6,,,,58,75
16989,note_on,,,,,48,0,7,,,,,6,,,,58,0
16989,note_on,,,,,0,0,7,,,,,6,,,,55,75
16991,note_on,,,,,0,0,8,,,,,7,,,,51,75
16991,note_on,,,,,96,0,8,,,,,7,,,,51,0
16992,note_on,,,,,32,0,5,,,,,4,,,,75,75
16997,note_on,,,,,0,0,6,,,,,5,,,,60,75
16997,note_on,,,,,48,0,6,,,,,5,,,,60,0
16998,note_on,,,,,96,0,9,,,,,8,,,,39,0
16998,note_on,,,,,0,0,9,,,,,8,,,,39,75
17037,note_on,,,,,0,0,7,,,,,6,,,,55,75
17037,note_on,,,,,0,0,7,,,,,6,,,,55,0
17037,note_on,,,,,48,0,7,,,,,6,,,,58,0
17037,note_on,,,,,0,0,7,,,,,6,,,,58,75
17040,note_on,,,,,48,0,5,,,,,4,,,,75,0
17040,note_on,,,,,0,0,5,,,,,4,,,,79,75
17045,note_on,,,,,48,0,6,,,,,5,,,,60,0
17045,note_on,,,,,0,0,6,,,,,5,,,,60,75
17085,note_on,,,,,0,0,7,,,,,6,,,,55,75
17085,note_on,,,,,0,0,7,,,,,6,,,,58,75
17085,note_on,,,,,0,0,7,,,,,6,,,,55,0
17085,note_on,,,,,48,0,7,,,,,6,,,,58,0
17087,note_on,,,,,96,0,8,,,,,7,,,,51,0
17087,note_on,,,,,0,0,8,,,,,7,,,,51,75
17088,note_on,,,,,0,0,5,,,,,4,,,,82,75
17088,note_on,,,,,48,0,5,,,,,4,,,,79,0
17093,note_on,,,,,0,0,6,,,,,5,,,,60,75
17093,note_on,,,,,48,0,6,,,,,5,,,,60,0
17094,note_on,,,,,96,0,9,,,,,8,,,,39,0
17094,note_on,,,,,0,0,9,,,,,8,,,,39,75
17133,note_on,,,,,0,0,7,,,,,6,,,,58,75
17133,note_on,,,,,0,0,7,,,,,6,,,,55,0
17133,note_on,,,,,48,0,7,,,,,6,,,,58,0
17133,note_on,,,,,0,0,7,,,,,6,,,,55,75
17136,note_on,,,,,48,0,5,,,,,4,,,,82,0
17136,note_on,,,,,0,0,5,,,,,4,,,,79,75
17141,note_on,,,,,0,0,6,,,,,5,,,,60,75
17141,note_on,,,,,48,0,6,,,,,5,,,,60,0
17181,note_on,,,,,0,0,7,,,,,6,,,,58,75
17181,note_on,,,,,48,0,7,,,,,6,,,,58,0
17181,note_on,,,,,0,0,7,,,,,6,,,,55,0
17181,note_on,,,,,0,0,7,,,,,6,,,,55,75
17183,note_on,,,,,96,0,8,,,,,7,,,,51,0
17183,note_on,,,,,0,0,8,,,,,7,,,,51,75
17184,note_on,,,,,0,0,5,,,,,4,,,,82,75
17184,note_on,,,,,48,0,5,,,,,4,,,,79,0
17189,note_on,,,,,0,0,6,,,,,5,,,,60,75
17189,note_on,,,,,48,0,6,,,,,5,,,,60,0
17190,note_on,,,,,96,0,9,,,,,8,,,,39,0
17190,note_on,,,,,0,0,9,,,,,8,,,,39,75
17229,note_on,,,,,0,0,7,,,,,6,,,,58,75
17229,note_on,,,,,48,0,7,,,,,6,,,,58,0
17229,note_on,,,,,0,0,7,,,,,6,,,,55,0
17229,note_on,,,,,0,0,7,,,,,6,,,,55,75
17232,note_on,,,,,0,0,5,,,,,4,,,,79,75
17232,note_on,,,,,48,0,5,,,,,4,,,,82,0
17237,note_on,,,,,0,0,6,,,,,5,,,,60,75
17237,note_on,,,,,48,0,6,,,,,5,,,,60,0
17277,note_on,,,,,48,0,7,,,,,6,,,,58,0
17277,note_on,,,,,0,0,7,,,,,6,,,,55,0
17277,note_on,,,,,0,0,7,,,,,6,,,,55,75
17277,note_on,,,,,0,0,7,,,,,6,,,,58,75
17278,note_on,,,,,46,0,5,,,,,4,,,,79,0
17279,note_on,,,,,96,0,8,,,,,7,,,,51,0
17279,note_on,,,,,0,0,8,,,,,7,,,,52,75
17280,note_on,,,,,2,0,5,,,,,4,,,,64,75
17285,note_on,,,,,48,0,6,,,,,5,,,,60,0
17285,note_on,,,,,0,0,6,,,,,5,,,,60,75
17286,note_on,,,,,0,0,9,,,,,8,,,,40,75
17286,note_on,,,,,96,0,9,,,,,8,,,,39,0
17325,note_on,,,,,0,0,7,,,,,6,,,,55,75
17325,note_on,,,,,0,0,7,,,,,6,,,,55,0
17325,note_on,,,,,48,0,7,,,,,6,,,,58,0
17325,note_on,,,,,0,0,7,,,,,6,,,,58,75
17333,note_on,,,,,48,0,6,,,,,5,,,,60,0
17333,note_on,,,,,0,0,6,,,,,5,,,,60,75
17373,note_on,,,,,0,0,7,,,,,6,,,,55,0
17373,note_on,,,,,48,0,7,,,,,6,,,,58,0
17373,note_on,,,,,0,0,7,,,,,6,,,,58,75
17373,note_on,,,,,0,0,7,,,,,6,,,,55,75
17375,note_on,,,,,96,0,8,,,,,7,,,,52,0
17375,note_on,,,,,0,0,8,,,,,7,,,,52,75
17381,note_on,,,,,0,0,6,,,,,5,,,,60,75
17381,note_on,,,,,48,0,6,,,,,5,,,,60,0
17382,note_on,,,,,0,0,9,,,,,8,,,,40,75
17382,note_on,,,,,96,0,9,,,,,8,,,,40,0
17421,note_on,,,,,0,0,7,,,,,6,,,,55,75
17421,note_on,,,,,0,0,7,,,,,6,,,,55,0
17421,note_on,,,,,48,0,7,,,,,6,,,,58,0
17421,note_on,,,,,0,0,7,,,,,6,,,,58,75
17429,note_on,,,,,48,0,6,,,,,5,,,,60,0
17429,note_on,,,,,0,0,6,,,,,5,,,,60,75
17469,note_on,,,,,48,0,7,,,,,6,,,,58,0
17469,note_on,,,,,0,0,7,,,,,6,,,,55,0
17469,note_on,,,,,0,0,7,,,,,6,,,,55,75
17469,note_on,,,,,0,0,7,,,,,6,,,,58,75
17471,note_on,,,,,96,0,8,,,,,7,,,,52,0
17471,note_on,,,,,0,0,8,,,,,7,,,,52,75
17477,note_on,,,,,48,0,6,,,,,5,,,,60,0
17477,note_on,,,,,0,0,6,,,,,5,,,,60,75
17478,note_on,,,,,96,0,9,,,,,8,,,,40,0
17478,note_on,,,,,0,0,9,,,,,8,,,,40,75
17517,note_on,,,,,48,0,7,,,,,6,,,,58,0
17517,note_on,,,,,0,0,7,,,,,6,,,,55,0
17517,note_on,,,,,0,0,7,,,,,6,,,,55,75
17517,note_on,,,,,0,0,7,,,,,6,,,,58,75
17525,note_on,,,,,0,0,6,,,,,5,,,,60,75
17525,note_on,,,,,48,0,6,,,,,5,,,,60,0
17536,note_on,,,,,256,0,5,,,,,4,,,,64,0
17565,note_on,,,,,48,0,7,,,,,6,,,,58,0
17565,note_on,,,,,0,0,7,,,,,6,,,,55,0
17565,note_on,,,,,0,0,7,,,,,6,,,,55,75
17565,note_on,,,,,0,0,7,,,,,6,,,,58,75
17567,note_on,,,,,0,0,8,,,,,7,,,,52,75
17567,note_on,,,,,96,0,8,,,,,7,,,,52,0
17568,note_on,,,,,32,0,5,,,,,4,,,,72,75
17573,note_on,,,,,0,0,6,,,,,5,,,,60,75
17573,note_on,,,,,48,0,6,,,,,5,,,,60,0
17574,note_on,,,,,0,0,9,,,,,8,,,,40,75
17574,note_on,,,,,96,0,9,,,,,8,,,,40,0
17613,note_on,,,,,0,0,7,,,,,6,,,,58,75
17613,note_on,,,,,48,0,7,,,,,6,,,,58,0
17613,note_on,,,,,0,0,7,,,,,6,,,,55,75
17613,note_on,,,,,0,0,7,,,,,6,,,,55,0
17616,note_on,,,,,48,0,5,,,,,4,,,,72,0
17616,note_on,,,,,0,0,5,,,,,4,,,,79,75
17621,note_on,,,,,48,0,6,,,,,5,,,,60,0
17621,note_on,,,,,0,0,6,,,,,5,,,,60,75
17661,note_on,,,,,0,0,7,,,,,6,,,,58,75
17661,note_on,,,,,0,0,7,,,,,6,,,,55,75
17661,note_on,,,,,0,0,7,,,,,6,,,,55,0
17661,note_on,,,,,48,0,7,,,,,6,,,,58,0
17663,note_on,,,,,0,0,8,,,,,7,,,,52,75
17663,note_on,,,,,96,0,8,,,,,7,,,,52,0
17664,note_on,,,,,48,0,5,,,,,4,,,,79,0
17664,note_on,,,,,0,0,5,,,,,4,,,,82,75
17669,note_on,,,,,48,0,6,,,,,5,,,,60,0
17669,note_on,,,,,0,0,6,,,,,5,,,,60,75
17670,note_on,,,,,0,0,9,,,,,8,,,,40,75
17670,note_on,,,,,96,0,9,,,,,8,,,,40,0
17709,note_on,,,,,0,0,7,,,,,6,,,,55,0
17709,note_on,,,,,0,0,7,,,,,6,,,,55,75
17709,note_on,,,,,0,0,7,,,,,6,,,,58,75
17709,note_on,,,,,48,0,7,,,,,6,,,,58,0
17712,note_on,,,,,0,0,5,,,,,4,,,,79,75
17712,note_on,,,,,48,0,5,,,,,4,,,,82,0
17717,note_on,,,,,0,0,6,,,,,5,,,,60,75
17717,note_on,,,,,48,0,6,,,,,5,,,,60,0
17757,note_on,,,,,48,0,7,,,,,6,,,,58,0
17757,note_on,,,,,0,0,7,,,,,6,,,,55,0
17757,note_on,,,,,0,0,7,,,,,6,,,,55,75
17757,note_on,,,,,0,0,7,,,,,6,,,,58,75
17759,note_on,,,,,96,0,8,,,,,7,,,,52,0
17759,note_on,,,,,0,0,8,,,,,7,,,,52,75
17760,note_on,,,,,0,0,5,,,,,4,,,,82,75
17760,note_on,,,,,48,0,5,,,,,4,,,,79,0
17765,note_on,,,,,0,0,6,,,,,5,,,,60,75
17765,note_on,,,,,48,0,6,,,,,5,,,,60,0
17766,note_on,,,,,96,0,9,,,,,8,,,,40,0
17766,note_on,,,,,0,0,9,,,,,8,,,,40,75
17805,note_on,,,,,48,0,7,,,,,6,,,,58,0
17805,note_on,,,,,0,0,7,,,,,6,,,,55,75
17805,note_on,,,,,0,0,7,,,,,6,,,,58,75
17805,note_on,,,,,0,0,7,,,,,6,,,,55,0
17806,note_on,,,,,1104,0,1,,,,,0,,,,72,0
17806,note_on,,,,,0,0,1,,,,,0,,,,70,0
17808,note_on,,,,,48,0,5,,,,,4,,,,82,0
17808,note_on,,,,,0,0,5,,,,,4,,,,79,75
17810,note_on,,,,,1104,0,2,,,,,1,,,,67,0
17810,note_on,,,,,0,0,2,,,,,1,,,,58,0
17813,note_on,,,,,0,0,6,,,,,5,,,,60,75
17813,note_on,,,,,48,0,6,,,,,5,,,,60,0
17853,note_on,,,,,0,0,7,,,,,6,,,,57,75
17853,note_on,,,,,0,0,7,,,,,6,,,,55,0
17853,note_on,,,,,48,0,7,,,,,6,,,,58,0
17853,note_on,,,,,0,0,7,,,,,6,,,,53,75
17854,note_on,,,,,46,0,5,,,,,4,,,,79,0
17854,note_on,,,,,48,0,1,,,,,0,,,,69,75
17854,note_on,,,,,0,0,1,,,,,0,,,,72,75
17855,note_on,,,,,0,0,8,,,,,7,,,,53,75
17855,note_on,,,,,96,0,8,,,,,7,,,,52,0
17856,note_on,,,,,2,0,5,,,,,4,,,,81,75
17858,note_on,,,,,48,0,2,,,,,1,,,,65,75
17861,note_on,,,,,48,0,6,,,,,5,,,,60,0
17861,note_on,,,,,0,0,6,,,,,5,,,,60,75
17862,note_on,,,,,0,0,9,,,,,8,,,,41,75
17862,note_on,,,,,96,0,9,,,,,8,,,,40,0
17880,note_on,,,,,0,0,5,,,,,4,,,,79,75
17880,note_on,,,,,24,0,5,,,,,4,,,,81,0
17904,note_on,,,,,0,0,5,,,,,4,,,,77,75
17904,note_on,,,,,24,0,5,,,,,4,,,,79,0
17949,note_on,,,,,96,0,7,,,,,6,,,,57,0
17949,note_on,,,,,0,0,7,,,,,6,,,,53,0
17957,note_on,,,,,96,0,6,,,,,5,,,,60,0
18014,note_on,,,,,0,0,1,,,,,0,,,,69,0
18014,note_on,,,,,160,0,1,,,,,0,,,,72,0
18018,note_on,,,,,160,0,2,,,,,1,,,,65,0
18045,note_on,,,,,96,0,7,,,,,6,,,,65,45
18046,note_on,,,,,142,0,5,,,,,4,,,,77,0
18047,note_on,,,,,192,0,8,,,,,7,,,,53,0
18048,note_on,,,,,2,0,5,,,,,4,,,,77,45
18048,set_tempo,,,,,8640,1,0,,434783,,,,,,,,
18053,note_on,,,,,96,0,6,,,,,5,,,,69,45
18054,note_on,,,,,192,0,9,,,,,8,,,,41,0
18077,note_on,,,,,32,0,7,,,,,6,,,,65,0
18080,note_on,,,,,32,0,5,,,,,4,,,,77,0
18085,note_on,,,,,32,0,6,,,,,5,,,,69,0
18141,note_on,,,,,64,0,7,,,,,6,,,,67,45
18144,note_on,,,,,64,0,5,,,,,4,,,,77,45
18149,note_on,,,,,64,0,6,,,,,5,,,,70,45
18173,note_on,,,,,32,0,7,,,,,6,,,,67,0
18176,note_on,,,,,32,0,5,,,,,4,,,,77,0
18181,note_on,,,,,32,0,6,,,,,5,,,,70,0
18237,note_on,,,,,64,0,7,,,,,6,,,,69,45
18240,note_on,,,,,64,0,5,,,,,4,,,,77,45
18245,note_on,,,,,64,0,6,,,,,5,,,,72,45
18269,note_on,,,,,32,0,7,,,,,6,,,,69,0
18272,note_on,,,,,32,0,5,,,,,4,,,,77,0
18277,note_on,,,,,32,0,6,,,,,5,,,,72,0
18333,note_on,,,,,64,0,7,,,,,6,,,,70,45
18336,note_on,,,,,64,0,5,,,,,4,,,,77,45
18341,note_on,,,,,64,0,6,,,,,5,,,,74,45
18365,note_on,,,,,32,0,7,,,,,6,,,,70,0
18368,note_on,,,,,32,0,5,,,,,4,,,,77,0
18373,note_on,,,,,32,0,6,,,,,5,,,,74,0
18429,note_on,,,,,64,0,7,,,,,6,,,,74,45
18431,note_on,,,,,384,0,8,,,,,7,,,,57,45
18432,note_on,,,,,64,0,5,,,,,4,,,,77,45
18437,note_on,,,,,64,0,6,,,,,5,,,,77,45
18438,note_on,,,,,384,0,9,,,,,8,,,,45,45
18464,note_on,,,,,32,0,5,,,,,4,,,,77,0
18525,note_on,,,,,0,0,7,,,,,6,,,,72,45
18525,note_on,,,,,96,0,7,,,,,6,,,,74,0
18525,note_on,,,,,94,0,8,,,,,7,,,,57,0
18528,note_on,,,,,64,0,5,,,,,4,,,,77,45
18532,note_on,,,,,94,0,9,,,,,8,,,,45,0
18533,note_on,,,,,96,0,6,,,,,5,,,,77,0
18533,note_on,,,,,0,0,6,,,,,5,,,,75,45
18560,note_on,,,,,32,0,5,,,,,4,,,,77,0
18619,note_on,,,,,94,0,7,,,,,6,,,,72,0
18621,note_on,,,,,2,0,7,,,,,6,,,,72,45
18623,note_on,,,,,98,0,8,,,,,7,,,,58,45
18624,note_on,,,,,64,0,5,,,,,4,,,,77,45
18627,note_on,,,,,94,0,6,,,,,5,,,,75,0
18629,note_on,,,,,2,0,6,,,,,5,,,,75,45
18630,note_on,,,,,98,0,9,,,,,8,,,,46,45
18656,note_on,,,,,32,0,5,,,,,4,,,,77,0
18717,note_on,,,,,94,0,8,,,,,7,,,,58,0
18717,note_on,,,,,96,0,7,,,,,6,,,,72,0
18717,note_on,,,,,0,0,7,,,,,6,,,,70,45
18720,note_on,,,,,64,0,5,,,,,4,,,,77,45
18724,note_on,,,,,94,0,9,,,,,8,,,,46,0
18725,note_on,,,,,0,0,6,,,,,5,,,,74,45
18725,note_on,,,,,96,0,6,,,,,5,,,,75,0
18752,note_on,,,,,32,0,5,,,,,4,,,,77,0
18811,note_on,,,,,94,0,7,,,,,6,,,,70,0
18813,note_on,,,,,2,0,7,,,,,6,,,,70,45
18815,note_on,,,,,98,0,8,,,,,7,,,,46,45
18816,note_on,,,,,64,0,5,,,,,4,,,,77,45
18819,note_on,,,,,94,0,6,,,,,5,,,,74,0
18821,note_on,,,,,2,0,6,,,,,5,,,,74,45
18822,note_on,,,,,98,0,9,,,,,8,,,,34,45
18848,note_on,,,,,32,0,5,,,,,4,,,,77,0
18909,note_on,,,,,94,0,8,,,,,7,,,,46,0
18909,note_on,,,,,96,0,7,,,,,6,,,,70,0
18909,note_on,,,,,0,0,7,,,,,6,,,,69,45
18912,note_on,,,,,64,0,5,,,,,4,,,,77,45
18916,note_on,,,,,94,0,9,,,,,8,,,,34,0
18917,note_on,,,,,96,0,6,,,,,5,,,,74,0
18917,note_on,,,,,0,0,6,,,,,5,,,,72,45
18944,note_on,,,,,32,0,5,,,,,4,,,,77,0
19003,note_on,,,,,94,0,7,,,,,6,,,,69,0
19005,note_on,,,,,2,0,7,,,,,6,,,,69,45
19007,note_on,,,,,98,0,8,,,,,7,,,,53,45
19008,note_on,,,,,64,0,5,,,,,4,,,,81,45
19011,note_on,,,,,94,0,6,,,,,5,,,,72,0
19013,note_on,,,,,2,0,6,,,,,5,,,,72,45
19014,note_on,,,,,98,0,9,,,,,8,,,,41,45
19032,note_on,,,,,0,0,5,,,,,4,,,,79,45
19032,note_on,,,,,24,0,5,,,,,4,,,,81,0
19056,note_on,,,,,24,0,5,,,,,4,,,,79,0
19056,note_on,,,,,0,0,5,,,,,4,,,,77,45
19099,note_on,,,,,94,0,7,,,,,6,,,,69,0
19107,note_on,,,,,94,0,6,,,,,5,,,,72,0
19167,note_on,,,,,160,0,8,,,,,7,,,,53,0
19174,note_on,,,,,160,0,9,,,,,8,,,,41,0
19197,note_on,,,,,98,0,7,,,,,6,,,,65,45
19198,note_on,,,,,142,0,5,,,,,4,,,,77,0
19200,note_on,,,,,2,0,5,,,,,4,,,,77,45
19205,note_on,,,,,98,0,6,,,,,5,,,,69,45
19229,note_on,,,,,32,0,7,,,,,6,,,,65,0
19232,note_on,,,,,32,0,5,,,,,4,,,,77,0
19237,note_on,,,,,32,0,6,,,,,5,,,,69,0
19293,note_on,,,,,64,0,7,,,,,6,,,,67,45
19296,note_on,,,,,64,0,5,,,,,4,,,,77,45
19301,note_on,,,,,64,0,6,,,,,5,,,,70,45
19325,note_on,,,,,32,0,7,,,,,6,,,,67,0
19328,note_on,,,,,32,0,5,,,,,4,,,,77,0
19333,note_on,,,,,32,0,6,,,,,5,,,,70,0
19389,note_on,,,,,64,0,7,,,,,6,,,,69,45
19392,note_on,,,,,64,0,5,,,,,4,,,,77,45
19397,note_on,,,,,64,0,6,,,,,5,,,,72,45
19421,note_on,,,,,32,0,7,,,,,6,,,,69,0
19424,note_on,,,,,32,0,5,,,,,4,,,,77,0
19429,note_on,,,,,32,0,6,,,,,5,,,,72,0
19485,note_on,,,,,64,0,7,,,,,6,,,,70,45
19488,note_on,,,,,64,0,5,,,,,4,,,,77,45
19493,note_on,,,,,64,0,6,,,,,5,,,,74,45
19517,note_on,,,,,32,0,7,,,,,6,,,,70,0
19520,note_on,,,,,32,0,5,,,,,4,,,,77,0
19525,note_on,,,,,32,0,6,,,,,5,,,,74,0
19581,note_on,,,,,64,0,7,,,,,6,,,,74,45
19583,note_on,,,,,416,0,8,,,,,7,,,,57,45
19584,note_on,,,,,64,0,5,,,,,4,,,,77,45
19589,note_on,,,,,64,0,6,,,,,5,,,,77,45
19590,note_on,,,,,416,0,9,,,,,8,,,,45,45
19616,note_on,,,,,32,0,5,,,,,4,,,,77,0
19677,note_on,,,,,96,0,7,,,,,6,,,,74,0
19677,note_on,,,,,0,0,7,,,,,6,,,,72,45
19677,note_on,,,,,94,0,8,,,,,7,,,,57,0
19680,note_on,,,,,64,0,5,,,,,4,,,,77,45
19684,note_on,,,,,94,0,9,,,,,8,,,,45,0
19685,note_on,,,,,0,0,6,,,,,5,,,,75,45
19685,note_on,,,,,96,0,6,,,,,5,,,,77,0
19712,note_on,,,,,32,0,5,,,,,4,,,,77,0
19771,note_on,,,,,94,0,7,,,,,6,,,,72,0
19773,note_on,,,,,2,0,7,,,,,6,,,,72,45
19775,note_on,,,,,98,0,8,,,,,7,,,,58,45
19776,note_on,,,,,64,0,5,,,,,4,,,,77,45
19779,note_on,,,,,94,0,6,,,,,5,,,,75,0
19781,note_on,,,,,2,0,6,,,,,5,,,,75,45
19782,note_on,,,,,98,0,9,,,,,8,,,,46,45
19808,note_on,,,,,32,0,5,,,,,4,,,,77,0
19869,note_on,,,,,96,0,7,,,,,6,,,,72,0
19869,note_on,,,,,94,0,8,,,,,7,,,,58,0
19869,note_on,,,,,0,0,7,,,,,6,,,,70,45
19872,note_on,,,,,64,0,5,,,,,4,,,,77,45
19876,note_on,,,,,94,0,9,,,,,8,,,,46,0
19877,note_on,,,,,96,0,6,,,,,5,,,,75,0
19877,note_on,,,,,0,0,6,,,,,5,,,,74,45
19904,note_on,,,,,32,0,5,,,,,4,,,,77,0
19963,note_on,,,,,94,0,7,,,,,6,,,,70,0
19965,note_on,,,,,2,0,7,,,,,6,,,,70,45
19967,note_on,,,,,98,0,8,,,,,7,,,,46,45
19968,note_on,,,,,64,0,5,,,,,4,,,,77,45
19971,note_on,,,,,94,0,6,,,,,5,,,,74,0
19973,note_on,,,,,2,0,6,,,,,5,,,,74,45
19974,note_on,,,,,98,0,9,,,,,8,,,,34,45
20000,note_on,,,,,32,0,5,,,,,4,,,,77,0
20061,note_on,,,,,94,0,8,,,,,7,,,,46,0
20061,note_on,,,,,96,0,7,,,,,6,,,,70,0
20061,note_on,,,,,0,0,7,,,,,6,,,,69,45
20064,note_on,,,,,64,0,5,,,,,4,,,,77,45
20068,note_on,,,,,94,0,9,,,,,8,,,,34,0
20069,note_on,,,,,96,0,6,,,,,5,,,,74,0
20069,note_on,,,,,0,0,6,,,,,5,,,,72,45
20096,note_on,,,,,32,0,5,,,,,4,,,,77,0
20155,note_on,,,,,94,0,7,,,,,6,,,,69,0
20157,note_on,,,,,2,0,7,,,,,6,,,,69,45
20159,note_on,,,,,98,0,8,,,,,7,,,,53,45
20160,note_on,,,,,64,0,5,,,,,4,,,,84,45
20163,note_on,,,,,94,0,6,,,,,5,,,,72,0
20165,note_on,,,,,2,0,6,,,,,5,,,,72,45
20166,note_on,,,,,98,0,9,,,,,8,,,,41,45
20184,note_on,,,,,24,0,5,,,,,4,,,,84,0
20184,note_on,,,,,0,0,5,,,,,4,,,,81,45
20208,note_on,,,,,24,0,5,,,,,4,,,,81,0
20208,note_on,,,,,0,0,5,,,,,4,,,,77,45
20317,note_on,,,,,160,0,7,,,,,6,,,,69,0
20319,note_on,,,,,160,0,8,,,,,7,,,,53,0
20325,note_on,,,,,160,0,6,,,,,5,,,,72,0
20326,note_on,,,,,160,0,9,,,,,8,,,,41,0
20350,note_on,,,,,142,0,5,,,,,4,,,,77,0
20352,note_on,,,,,2,0,5,,,,,4,,,,77,45
20384,note_on,,,,,32,0,5,,,,,4,,,,77,0
20448,note_on,,,,,64,0,5,,,,,4,,,,77,45
20480,note_on,,,,,32,0,5,,,,,4,,,,77,0
20544,note_on,,,,,64,0,5,,,,,4,,,,77,45
20576,note_on,,,,,32,0,5,,,,,4,,,,77,0
20640,note_on,,,,,64,0,5,,,,,4,,,,77,45
20672,note_on,,,,,32,0,5,,,,,4,,,,77,0
20736,note_on,,,,,64,0,5,,,,,4,,,,77,45
20832,note_on,,,,,0,0,5,,,,,4,,,,79,45
20832,note_on,,,,,96,0,5,,,,,4,,,,77,0
20928,note_on,,,,,96,0,5,,,,,4,,,,79,0
20928,note_on,,,,,0,0,5,,,,,4,,,,77,45
21024,note_on,,,,,96,0,5,,,,,4,,,,77,0
21024,note_on,,,,,0,0,5,,,,,4,,,,74,45
21120,note_on,,,,,96,0,5,,,,,4,,,,74,0
21120,note_on,,,,,0,0,5,,,,,4,,,,75,45
21216,note_on,,,,,96,0,5,,,,,4,,,,75,0
21216,note_on,,,,,0,0,5,,,,,4,,,,72,45
21310,note_on,,,,,94,0,5,,,,,4,,,,72,0
21311,note_on,,,,,992,0,8,,,,,7,,,,46,45
21312,note_on,,,,,2,0,5,,,,,4,,,,70,45
21312,set_tempo,,,,,3264,1,0,,444444,,,,,,,,
21317,note_on,,,,,992,0,6,,,,,5,,,,62,45
21318,note_on,,,,,992,0,9,,,,,8,,,,34,45
21405,note_on,,,,,94,0,8,,,,,7,,,,46,0
21407,note_on,,,,,2,0,8,,,,,7,,,,58,45
21412,note_on,,,,,94,0,9,,,,,8,,,,34,0
21414,note_on,,,,,2,0,9,,,,,8,,,,46,45
21501,note_on,,,,,94,0,8,,,,,7,,,,58,0
21503,note_on,,,,,2,0,8,,,,,7,,,,58,45
21508,note_on,,,,,94,0,9,,,,,8,,,,46,0
21510,note_on,,,,,2,0,9,,,,,8,,,,46,45
21568,note_on,,,,,256,0,5,,,,,4,,,,70,0
21573,note_on,,,,,256,0,6,,,,,5,,,,62,0
21597,note_on,,,,,94,0,8,,,,,7,,,,58,0
21599,note_on,,,,,2,0,8,,,,,7,,,,58,45
21600,note_on,,,,,32,0,5,,,,,4,,,,72,45
21604,note_on,,,,,94,0,9,,,,,8,,,,46,0
21605,note_on,,,,,32,0,6,,,,,5,,,,63,45
21606,note_on,,,,,2,0,9,,,,,8,,,,46,45
21693,note_on,,,,,94,0,8,,,,,7,,,,58,0
21694,note_on,,,,,94,0,5,,,,,4,,,,72,0
21695,note_on,,,,,2,0,8,,,,,7,,,,58,45
21696,note_on,,,,,2,0,5,,,,,4,,,,74,45
21699,note_on,,,,,94,0,6,,,,,5,,,,63,0
21700,note_on,,,,,94,0,9,,,,,8,,,,46,0
21701,note_on,,,,,2,0,6,,,,,5,,,,65,45
21702,note_on,,,,,2,0,9,,,,,8,,,,46,45
21789,note_on,,,,,94,0,8,,,,,7,,,,58,0
21791,note_on,,,,,2,0,8,,,,,7,,,,58,45
21796,note_on,,,,,94,0,9,,,,,8,,,,46,0
21798,note_on,,,,,2,0,9,,,,,8,,,,46,45
21856,note_on,,,,,160,0,5,,,,,4,,,,74,0
21861,note_on,,,,,160,0,6,,,,,5,,,,65,0
21885,note_on,,,,,94,0,8,,,,,7,,,,58,0
21887,note_on,,,,,2,0,8,,,,,7,,,,58,45
21888,note_on,,,,,32,0,5,,,,,4,,,,75,45
21892,note_on,,,,,94,0,9,,,,,8,,,,46,0
21893,note_on,,,,,32,0,6,,,,,5,,,,67,45
21894,note_on,,,,,2,0,9,,,,,8,,,,46,45
21981,note_on,,,,,94,0,8,,,,,7,,,,58,0
21983,note_on,,,,,2,0,8,,,,,7,,,,58,45
21988,note_on,,,,,94,0,9,,,,,8,,,,46,0
21990,note_on,,,,,2,0,9,,,,,8,,,,46,45
22053,note_on,,,,,160,0,6,,,,,5,,,,67,0
22077,note_on,,,,,94,0,8,,,,,7,,,,58,0
22079,note_on,,,,,2,0,8,,,,,7,,,,58,45
22080,note_on,,,,,192,0,5,,,,,4,,,,75,0
22080,note_on,,,,,0,0,5,,,,,4,,,,73,45
22084,note_on,,,,,94,0,9,,,,,8,,,,46,0
22085,note_on,,,,,32,0,6,,,,,5,,,,64,45
22086,note_on,,,,,2,0,9,,,,,8,,,,46,45
22173,note_on,,,,,94,0,8,,,,,7,,,,58,0
22175,note_on,,,,,2,0,8,,,,,7,,,,58,45
22180,note_on,,,,,94,0,9,,,,,8,,,,46,0
22182,note_on,,,,,2,0,9,,,,,8,,,,46,45
22245,note_on,,,,,160,0,6,,,,,5,,,,64,0
22269,note_on,,,,,94,0,8,,,,,7,,,,58,0
22271,note_on,,,,,2,0,8,,,,,7,,,,58,45
22272,note_on,,,,,192,0,5,,,,,4,,,,73,0
22272,note_on,,,,,0,0,5,,,,,4,,,,74,45
22276,note_on,,,,,94,0,9,,,,,8,,,,46,0
22277,note_on,,,,,32,0,6,,,,,5,,,,65,45
22278,note_on,,,,,2,0,9,,,,,8,,,,46,45
22365,note_on,,,,,94,0,8,,,,,7,,,,58,0
22367,note_on,,,,,2,0,8,,,,,7,,,,58,45
22372,note_on,,,,,94,0,9,,,,,8,,,,46,0
22374,note_on,,,,,2,0,9,,,,,8,,,,46,45
22432,note_on,,,,,160,0,5,,,,,4,,,,74,0
22437,note_on,,,,,160,0,6,,,,,5,,,,65,0
22461,note_on,,,,,94,0,8,,,,,7,,,,58,0
22461,note_on,,,,,2144,0,7,,,,,6,,,,58,45
22463,note_on,,,,,2,0,8,,,,,7,,,,58,45
22464,note_on,,,,,32,0,5,,,,,4,,,,72,45
22468,note_on,,,,,94,0,9,,,,,8,,,,46,0
22469,note_on,,,,,32,0,6,,,,,5,,,,63,45
22470,note_on,,,,,2,0,9,,,,,8,,,,46,45
22555,note_on,,,,,94,0,7,,,,,6,,,,58,0
22557,note_on,,,,,2,0,7,,,,,6,,,,58,45
22623,note_on,,,,,160,0,8,,,,,7,,,,58,0
22630,note_on,,,,,160,0,9,,,,,8,,,,46,0
22651,note_on,,,,,94,0,7,,,,,6,,,,58,0
22653,note_on,,,,,2,0,7,,,,,6,,,,58,45
22656,note_on,,,,,0,0,5,,,,,4,,,,69,45
22656,note_on,,,,,192,0,5,,,,,4,,,,72,0
22661,note_on,,,,,0,0,6,,,,,5,,,,61,45
22661,note_on,,,,,192,0,6,,,,,5,,,,63,0
22747,note_on,,,,,94,0,7,,,,,6,,,,58,0
22749,note_on,,,,,2,0,7,,,,,6,,,,58,45
22843,note_on,,,,,94,0,7,,,,,6,,,,58,0
22845,note_on,,,,,2,0,7,,,,,6,,,,58,45
22848,note_on,,,,,192,0,5,,,,,4,,,,69,0
22848,note_on,,,,,0,0,5,,,,,4,,,,70,45
22853,note_on,,,,,0,0,6,,,,,5,,,,62,45
22853,note_on,,,,,192,0,6,,,,,5,,,,61,0
22939,note_on,,,,,94,0,7,,,,,6,,,,58,0
22941,note_on,,,,,2,0,7,,,,,6,,,,58,45
23008,note_on,,,,,160,0,5,,,,,4,,,,70,0
23013,note_on,,,,,160,0,6,,,,,5,,,,62,0
23035,note_on,,,,,94,0,7,,,,,6,,,,58,0
23037,note_on,,,,,2,0,7,,,,,6,,,,58,45
23040,set_tempo,,,,,1728,1,0,,428571,,,,,,,,
23181,note_on,,,,,0,0,7,,,,,6,,,,57,45
23181,note_on,,,,,144,0,7,,,,,6,,,,58,0
23229,note_on,,,,,48,0,7,,,,,6,,,,57,0
23229,note_on,,,,,0,0,7,,,,,6,,,,60,45
23373,note_on,,,,,144,0,7,,,,,6,,,,60,0
23373,note_on,,,,,0,0,7,,,,,6,,,,58,45
23421,note_on,,,,,48,0,7,,,,,6,,,,58,0
23421,note_on,,,,,0,0,7,,,,,6,,,,63,45
23565,note_on,,,,,144,0,7,,,,,6,,,,63,0
23565,note_on,,,,,0,0,7,,,,,6,,,,62,45
23611,note_on,,,,,46,0,7,,,,,6,,,,62,0
23613,note_on,,,,,2,0,7,,,,,6,,,,62,45
23615,note_on,,,,,992,0,8,,,,,7,,,,46,45
23616,note_on,,,,,608,0,5,,,,,4,,,,74,45
23616,set_tempo,,,,,576,1,0,,444444,,,,,,,,
23621,note_on,,,,,608,0,6,,,,,5,,,,70,45
23622,note_on,,,,,992,0,9,,,,,8,,,,34,45
23709,note_on,,,,,94,0,8,,,,,7,,,,46,0
23711,note_on,,,,,2,0,8,,,,,7,,,,58,45
23716,note_on,,,,,94,0,9,,,,,8,,,,34,0
23718,note_on,,,,,2,0,9,,,,,8,,,,46,45
23773,note_on,,,,,160,0,7,,,,,6,,,,62,0
23805,note_on,,,,,94,0,8,,,,,7,,,,58,0
23807,note_on,,,,,2,0,8,,,,,7,,,,58,45
23812,note_on,,,,,94,0,9,,,,,8,,,,46,0
23814,note_on,,,,,2,0,9,,,,,8,,,,46,45
23872,note_on,,,,,256,0,5,,,,,4,,,,74,0
23877,note_on,,,,,256,0,6,,,,,5,,,,70,0
23901,note_on,,,,,94,0,8,,,,,7,,,,58,0
23903,note_on,,,,,2,0,8,,,,,7,,,,58,45
23904,note_on,,,,,32,0,5,,,,,4,,,,75,45
23908,note_on,,,,,94,0,9,,,,,8,,,,46,0
23909,note_on,,,,,32,0,6,,,,,5,,,,72,45
23910,note_on,,,,,2,0,9,,,,,8,,,,46,45
23997,note_on,,,,,94,0,8,,,,,7,,,,58,0
23998,note_on,,,,,94,0,5,,,,,4,,,,75,0
23999,note_on,,,,,2,0,8,,,,,7,,,,58,45
24000,note_on,,,,,2,0,5,,,,,4,,,,77,45
24003,note_on,,,,,94,0,6,,,,,5,,,,72,0
24004,note_on,,,,,94,0,9,,,,,8,,,,46,0
24005,note_on,,,,,2,0,6,,,,,5,,,,74,45
24006,note_on,,,,,2,0,9,,,,,8,,,,46,45
24093,note_on,,,,,94,0,8,,,,,7,,,,58,0
24095,note_on,,,,,2,0,8,,,,,7,,,,58,45
24100,note_on,,,,,94,0,9,,,,,8,,,,46,0
24102,note_on,,,,,2,0,9,,,,,8,,,,46,45
24160,note_on,,,,,160,0,5,,,,,4,,,,77,0
24165,note_on,,,,,160,0,6,,,,,5,,,,74,0
24189,note_on,,,,,94,0,8,,,,,7,,,,58,0
24191,note_on,,,,,2,0,8,,,,,7,,,,58,45
24192,note_on,,,,,32,0,5,,,,,4,,,,79,45
24196,note_on,,,,,94,0,9,,,,,8,,,,46,0
24197,note_on,,,,,32,0,6,,,,,5,,,,75,45
24198,note_on,,,,,2,0,9,,,,,8,,,,46,45
24285,note_on,,,,,94,0,8,,,,,7,,,,58,0
24287,note_on,,,,,2,0,8,,,,,7,,,,58,45
24292,note_on,,,,,94,0,9,,,,,8,,,,46,0
24294,note_on,,,,,2,0,9,,,,,8,,,,46,45
24381,note_on,,,,,94,0,8,,,,,7,,,,58,0
24383,note_on,,,,,2,0,8,,,,,7,,,,58,45
24384,note_on,,,,,192,0,5,,,,,4,,,,79,0
24384,note_on,,,,,0,0,5,,,,,4,,,,76,45
24388,note_on,,,,,94,0,9,,,,,8,,,,46,0
24389,note_on,,,,,0,0,6,,,,,5,,,,73,45
24389,note_on,,,,,192,0,6,,,,,5,,,,75,0
24390,note_on,,,,,2,0,9,,,,,8,,,,46,45
24477,note_on,,,,,94,0,8,,,,,7,,,,58,0
24479,note_on,,,,,2,0,8,,,,,7,,,,58,45
24484,note_on,,,,,94,0,9,,,,,8,,,,46,0
24486,note_on,,,,,2,0,9,,,,,8,,,,46,45
24573,note_on,,,,,94,0,8,,,,,7,,,,58,0
24575,note_on,,,,,2,0,8,,,,,7,,,,58,45
24576,note_on,,,,,0,0,5,,,,,4,,,,77,45
24576,note_on,,,,,192,0,5,,,,,4,,,,76,0
24580,note_on,,,,,94,0,9,,,,,8,,,,46,0
24581,note_on,,,,,0,0,6,,,,,5,,,,74,45
24581,note_on,,,,,192,0,6,,,,,5,,,,73,0
24582,note_on,,,,,2,0,9,,,,,8,,,,46,45
24669,note_on,,,,,94,0,8,,,,,7,,,,58,0
24671,note_on,,,,,2,0,8,,,,,7,,,,58,45
24676,note_on,,,,,94,0,9,,,,,8,,,,46,0
24678,note_on,,,,,2,0,9,,,,,8,,,,46,45
24736,note_on,,,,,160,0,5,,,,,4,,,,77,0
24741,note_on,,,,,160,0,6,,,,,5,,,,74,0
24765,note_on,,,,,94,0,8,,,,,7,,,,58,0
24765,note_on,,,,,992,0,7,,,,,6,,,,58,45
24767,note_on,,,,,2,0,8,,,,,7,,,,58,45
24768,note_on,,,,,32,0,5,,,,,4,,,,75,45
24772,note_on,,,,,94,0,9,,,,,8,,,,46,0
24773,note_on,,,,,32,0,6,,,,,5,,,,72,45
24774,note_on,,,,,2,0,9,,,,,8,,,,46,45
24859,note_on,,,,,94,0,7,,,,,6,,,,58,0
24861,note_on,,,,,2,0,7,,,,,6,,,,58,45
24927,note_on,,,,,160,0,8,,,,,7,,,,58,0
24934,note_on,,,,,160,0,9,,,,,8,,,,46,0
24955,note_on,,,,,94,0,7,,,,,6,,,,58,0
24957,note_on,,,,,2,0,7,,,,,6,,,,58,45
24960,note_on,,,,,0,0,5,,,,,4,,,,73,45
24960,note_on,,,,,192,0,5,,,,,4,,,,75,0
24965,note_on,,,,,192,0,6,,,,,5,,,,72,0
24965,note_on,,,,,0,0,6,,,,,5,,,,69,45
25051,note_on,,,,,94,0,7,,,,,6,,,,58,0
25053,note_on,,,,,2,0,7,,,,,6,,,,58,45
25147,note_on,,,,,94,0,7,,,,,6,,,,58,0
25149,note_on,,,,,2,0,7,,,,,6,,,,58,45
25152,note_on,,,,,192,0,5,,,,,4,,,,73,0
25152,note_on,,,,,0,0,5,,,,,4,,,,74,45
25157,note_on,,,,,192,0,6,,,,,5,,,,69,0
25157,note_on,,,,,0,0,6,,,,,5,,,,70,45
25243,note_on,,,,,94,0,7,,,,,6,,,,58,0
25245,note_on,,,,,2,0,7,,,,,6,,,,58,45
25312,note_on,,,,,160,0,5,,,,,4,,,,74,0
25317,note_on,,,,,160,0,6,,,,,5,,,,70,0
25339,note_on,,,,,94,0,7,,,,,6,,,,58,0
25341,note_on,,,,,2,0,7,,,,,6,,,,58,45
25344,set_tempo,,,,,1728,1,0,,428571,,,,,,,,
25349,note_on,,,,,32,0,6,,,,,5,,,,62,45
25485,note_on,,,,,144,0,7,,,,,6,,,,58,0
25485,note_on,,,,,0,0,7,,,,,6,,,,57,45
25493,note_on,,,,,0,0,6,,,,,5,,,,60,45
25493,note_on,,,,,144,0,6,,,,,5,,,,62,0
25533,note_on,,,,,0,0,7,,,,,6,,,,60,45
25533,note_on,,,,,48,0,7,,,,,6,,,,57,0
25541,note_on,,,,,48,0,6,,,,,5,,,,60,0
25541,note_on,,,,,0,0,6,,,,,5,,,,63,45
25677,note_on,,,,,144,0,7,,,,,6,,,,60,0
25677,note_on,,,,,0,0,7,,,,,6,,,,58,45
25685,note_on,,,,,144,0,6,,,,,5,,,,63,0
25685,note_on,,,,,0,0,6,,,,,5,,,,62,45
25725,note_on,,,,,48,0,7,,,,,6,,,,58,0
25725,note_on,,,,,0,0,7,,,,,6,,,,63,45
25733,note_on,,,,,48,0,6,,,,,5,,,,62,0
25733,note_on,,,,,0,0,6,,,,,5,,,,67,45
25869,note_on,,,,,0,0,7,,,,,6,,,,62,45
25869,note_on,,,,,144,0,7,,,,,6,,,,63,0
25877,note_on,,,,,144,0,6,,,,,5,,,,67,0
25877,note_on,,,,,0,0,6,,,,,5,,,,65,45
25915,note_on,,,,,46,0,7,,,,,6,,,,62,0
25917,note_on,,,,,2,0,7,,,,,6,,,,62,45
25920,note_on,,,,,608,0,5,,,,,4,,,,70,45
25923,note_on,,,,,46,0,6,,,,,5,,,,65,0
25925,note_on,,,,,2,0,6,,,,,5,,,,65,45
26064,note_on,,,,,144,0,5,,,,,4,,,,70,0
26064,note_on,,,,,0,0,5,,,,,4,,,,69,45
26112,note_on,,,,,48,0,5,,,,,4,,,,69,0
26112,note_on,,,,,0,0,5,,,,,4,,,,75,45
26256,note_on,,,,,0,0,5,,,,,4,,,,74,45
26256,note_on,,,,,144,0,5,,,,,4,,,,75,0
26304,note_on,,,,,0,0,5,,,,,4,,,,82,45
26304,note_on,,,,,48,0,5,,,,,4,,,,74,0
26448,note_on,,,,,144,0,5,,,,,4,,,,82,0
26448,note_on,,,,,0,0,5,,,,,4,,,,80,45
26494,note_on,,,,,46,0,5,,,,,4,,,,80,0
26495,note_on,,,,,1568,0,8,,,,,7,,,,46,45
26496,note_on,,,,,2,0,5,,,,,4,,,,80,45
26502,note_on,,,,,1568,0,9,,,,,8,,,,34,45
26639,note_on,,,,,144,0,8,,,,,7,,,,46,0
26639,note_on,,,,,0,0,8,,,,,7,,,,45,45
26646,note_on,,,,,0,0,9,,,,,8,,,,33,45
26646,note_on,,,,,144,0,9,,,,,8,,,,34,0
26687,note_on,,,,,48,0,8,,,,,7,,,,45,0
26687,note_on,,,,,0,0,8,,,,,7,,,,48,45
26694,note_on,,,,,48,0,9,,,,,8,,,,33,0
26694,note_on,,,,,0,0,9,,,,,8,,,,36,45
26831,note_on,,,,,0,0,8,,,,,7,,,,46,45
26831,note_on,,,,,144,0,8,,,,,7,,,,48,0
26838,note_on,,,,,144,0,9,,,,,8,,,,36,0
26838,note_on,,,,,0,0,9,,,,,8,,,,34,45
26879,note_on,,,,,0,0,8,,,,,7,,,,50,45
26879,note_on,,,,,48,0,8,,,,,7,,,,46,0
26886,note_on,,,,,48,0,9,,,,,8,,,,34,0
26886,note_on,,,,,0,0,9,,,,,8,,,,38,45
27023,note_on,,,,,144,0,8,,,,,7,,,,50,0
27023,note_on,,,,,0,0,8,,,,,7,,,,48,45
27024,note_on,,,,,528,0,5,,,,,4,,,,80,0
27030,note_on,,,,,144,0,9,,,,,8,,,,38,0
27030,note_on,,,,,0,0,9,,,,,8,,,,36,45
27069,note_on,,,,,46,0,8,,,,,7,,,,48,0
27071,note_on,,,,,2,0,8,,,,,7,,,,47,45
27072,set_tempo,,,,,1728,1,0,,428571,,,,,,,,
27072,note_on,,,,,48,0,5,,,,,4,,,,80,45
27076,note_on,,,,,46,0,9,,,,,8,,,,36,0
27078,note_on,,,,,2,0,9,,,,,8,,,,35,45
27096,note_on,,,,,24,0,5,,,,,4,,,,80,0
27096,note_on,,,,,0,0,5,,,,,4,,,,82,45
27120,note_on,,,,,0,0,5,,,,,4,,,,80,45
27120,note_on,,,,,24,0,5,,,,,4,,,,82,0
27168,note_on,,,,,0,0,5,,,,,4,,,,79,45
27168,note_on,,,,,48,0,5,,,,,4,,,,80,0
27261,note_on,,,,,0,0,7,,,,,6,,,,60,45
27261,note_on,,,,,1344,0,7,,,,,6,,,,62,0
27262,note_on,,,,,94,0,5,,,,,4,,,,79,0
27263,note_on,,,,,0,0,8,,,,,7,,,,48,45
27263,note_on,,,,,192,0,8,,,,,7,,,,47,0
27264,note_on,,,,,2,0,5,,,,,4,,,,79,45
27269,note_on,,,,,0,0,6,,,,,5,,,,63,45
27269,note_on,,,,,1344,0,6,,,,,5,,,,65,0
27270,note_on,,,,,192,0,9,,,,,8,,,,35,0
27270,note_on,,,,,0,0,9,,,,,8,,,,36,45
27296,note_on,,,,,32,0,5,,,,,4,,,,79,0
27360,note_on,,,,,64,0,5,,,,,4,,,,79,45
27392,note_on,,,,,32,0,5,,,,,4,,,,79,0
27421,note_on,,,,,160,0,7,,,,,6,,,,60,0
27423,note_on,,,,,160,0,8,,,,,7,,,,48,0
27429,note_on,,,,,160,0,6,,,,,5,,,,63,0
27430,note_on,,,,,160,0,9,,,,,8,,,,36,0
27456,note_on,,,,,64,0,5,,,,,4,,,,79,45
27488,note_on,,,,,32,0,5,,,,,4,,,,79,0
27552,note_on,,,,,64,0,5,,,,,4,,,,79,45
27584,note_on,,,,,32,0,5,,,,,4,,,,79,0
27645,note_on,,,,,224,0,7,,,,,6,,,,60,45
27647,note_on,,,,,224,0,8,,,,,7,,,,45,45
27648,note_on,,,,,64,0,5,,,,,4,,,,79,45
27653,note_on,,,,,224,0,6,,,,,5,,,,63,45
27654,note_on,,,,,224,0,9,,,,,8,,,,33,45
27672,note_on,,,,,0,0,5,,,,,4,,,,80,45
27672,note_on,,,,,24,0,5,,,,,4,,,,79,0
27696,note_on,,,,,24,0,5,,,,,4,,,,80,0
27696,note_on,,,,,0,0,5,,,,,4,,,,79,45
27744,note_on,,,,,48,0,5,,,,,4,,,,79,0
27744,note_on,,,,,0,0,5,,,,,4,,,,77,45
27837,note_on,,,,,0,0,7,,,,,6,,,,58,45
27837,note_on,,,,,192,0,7,,,,,6,,,,60,0
27838,note_on,,,,,94,0,5,,,,,4,,,,77,0
27839,note_on,,,,,192,0,8,,,,,7,,,,45,0
27839,note_on,,,,,0,0,8,,,,,7,,,,46,45
27840,note_on,,,,,2,0,5,,,,,4,,,,77,45
27845,note_on,,,,,0,0,6,,,,,5,,,,62,45
27845,note_on,,,,,192,0,6,,,,,5,,,,63,0
27846,note_on,,,,,192,0,9,,,,,8,,,,33,0
27846,note_on,,,,,0,0,9,,,,,8,,,,34,45
27872,note_on,,,,,32,0,5,,,,,4,,,,77,0
27936,note_on,,,,,64,0,5,,,,,4,,,,77,45
27968,note_on,,,,,32,0,5,,,,,4,,,,77,0
27997,note_on,,,,,160,0,7,,,,,6,,,,58,0
27999,note_on,,,,,160,0,8,,,,,7,,,,46,0
28005,note_on,,,,,160,0,6,,,,,5,,,,62,0
28006,note_on,,,,,160,0,9,,,,,8,,,,34,0
28032,note_on,,,,,64,0,5,,,,,4,,,,77,45
28064,note_on,,,,,32,0,5,,,,,4,,,,77,0
28128,note_on,,,,,64,0,5,,,,,4,,,,77,45
28160,note_on,,,,,32,0,5,,,,,4,,,,77,0
28221,note_on,,,,,224,0,7,,,,,6,,,,67,45
28223,note_on,,,,,224,0,8,,,,,7,,,,51,45
28224,note_on,,,,,64,0,5,,,,,4,,,,77,45
28229,note_on,,,,,224,0,6,,,,,5,,,,74,45
28230,note_on,,,,,224,0,9,,,,,8,,,,39,45
28320,note_on,,,,,96,0,5,,,,,4,,,,77,0
28320,note_on,,,,,0,0,5,,,,,4,,,,75,45
28325,note_on,,,,,0,0,6,,,,,5,,,,72,45
28325,note_on,,,,,96,0,6,,,,,5,,,,74,0
28381,note_on,,,,,160,0,7,,,,,6,,,,67,0
28383,note_on,,,,,160,0,8,,,,,7,,,,51,0
28390,note_on,,,,,160,0,9,,,,,8,,,,39,0
28413,note_on,,,,,32,0,7,,,,,6,,,,65,45
28414,note_on,,,,,94,0,5,,,,,4,,,,75,0
28415,note_on,,,,,32,0,8,,,,,7,,,,53,45
28416,note_on,,,,,2,0,5,,,,,4,,,,74,45
28419,note_on,,,,,94,0,6,,,,,5,,,,72,0
28421,note_on,,,,,2,0,6,,,,,5,,,,70,45
28422,note_on,,,,,32,0,9,,,,,8,,,,41,45
28573,note_on,,,,,160,0,7,,,,,6,,,,65,0
28575,note_on,,,,,160,0,8,,,,,7,,,,53,0
28582,note_on,,,,,160,0,9,,,,,8,,,,41,0
28605,note_on,,,,,32,0,7,,,,,6,,,,65,45
28607,note_on,,,,,32,0,8,,,,,7,,,,41,45
28608,note_on,,,,,0,0,5,,,,,4,,,,72,45
28608,note_on,,,,,192,0,5,,,,,4,,,,74,0
28613,note_on,,,,,0,0,6,,,,,5,,,,69,45
28613,note_on,,,,,192,0,6,,,,,5,,,,70,0
28614,note_on,,,,,32,0,9,,,,,8,,,,29,45
28765,note_on,,,,,160,0,7,,,,,6,,,,65,0
28767,note_on,,,,,160,0,8,,,,,7,,,,41,0
28768,note_on,,,,,160,0,5,,,,,4,,,,72,0
28773,note_on,,,,,160,0,6,,,,,5,,,,69,0
28774,note_on,,,,,160,0,9,,,,,8,,,,29,0
28797,note_on,,,,,32,0,7,,,,,6,,,,65,45
28799,note_on,,,,,32,0,8,,,,,7,,,,46,45
28800,note_on,,,,,32,0,5,,,,,4,,,,74,45
28805,note_on,,,,,32,0,6,,,,,5,,,,70,45
28806,note_on,,,,,32,0,9,,,,,8,,,,34,45
28848,note_on,,,,,48,0,5,,,,,4,,,,74,0
28848,note_on,,,,,0,0,5,,,,,4,,,,75,45
28853,note_on,,,,,48,0,6,,,,,5,,,,70,0
28853,note_on,,,,,0,0,6,,,,,5,,,,72,45
28896,note_on,,,,,0,0,5,,,,,4,,,,74,45
28896,note_on,,,,,48,0,5,,,,,4,,,,75,0
28901,note_on,,,,,48,0,6,,,,,5,,,,72,0
28901,note_on,,,,,0,0,6,,,,,5,,,,70,45
28944,note_on,,,,,48,0,5,,,,,4,,,,74,0
28944,note_on,,,,,0,0,5,,,,,4,,,,75,45
28949,note_on,,,,,48,0,6,,,,,5,,,,70,0
28949,note_on,,,,,0,0,6,,,,,5,,,,72,45
28957,note_on,,,,,160,0,7,,,,,6,,,,65,0
28959,note_on,,,,,160,0,8,,,,,7,,,,46,0
28966,note_on,,,,,160,0,9,,,,,8,,,,34,0
28992,note_on,,,,,48,0,5,,,,,4,,,,75,0
28992,note_on,,,,,0,0,5,,,,,4,,,,77,45
28997,note_on,,,,,0,0,6,,,,,5,,,,74,45
28997,note_on,,,,,48,0,6,,,,,5,,,,72,0
29086,note_on,,,,,94,0,5,,,,,4,,,,77,0
29088,note_on,,,,,2,0,5,,,,,4,,,,82,45
29091,note_on,,,,,94,0,6,,,,,5,,,,74,0
29093,note_on,,,,,2,0,6,,,,,5,,,,77,45
29120,note_on,,,,,32,0,5,,,,,4,,,,82,0
29125,note_on,,,,,32,0,6,,,,,5,,,,77,0
29184,note_on,,,,,64,0,5,,,,,4,,,,77,45
29189,note_on,,,,,64,0,6,,,,,5,,,,74,45
29216,note_on,,,,,32,0,5,,,,,4,,,,77,0
29221,note_on,,,,,32,0,6,,,,,5,,,,74,0
29373,note_on,,,,,416,0,7,,,,,6,,,,62,45
29374,note_on,,,,,0,0,1,,,,,0,,,,77,45
29374,note_on,,,,,11360,0,1,,,,,0,,,,74,45
29375,note_on,,,,,416,0,8,,,,,7,,,,59,45
29381,note_on,,,,,160,0,6,,,,,5,,,,68,45
29382,note_on,,,,,416,0,9,,,,,8,,,,47,45
29405,note_on,,,,,0,0,6,,,,,5,,,,70,45
29405,note_on,,,,,24,0,6,,,,,5,,,,68,0
29429,note_on,,,,,24,0,6,,,,,5,,,,70,0
29429,note_on,,,,,0,0,6,,,,,5,,,,68,45
29469,note_on,,,,,96,0,7,,,,,6,,,,62,0
29469,note_on,,,,,0,0,7,,,,,6,,,,65,45
29477,note_on,,,,,48,0,6,,,,,5,,,,68,0
29477,note_on,,,,,0,0,6,,,,,5,,,,67,45
29563,note_on,,,,,94,0,7,,,,,6,,,,65,0
29565,note_on,,,,,2,0,7,,,,,6,,,,63,45
29566,note_on,,,,,192,0,1,,,,,0,,,,77,0
29566,note_on,,,,,0,0,1,,,,,0,,,,74,0
29566,note_on,,,,,0,0,1,,,,,0,,,,72,45
29566,note_on,,,,,0,0,1,,,,,0,,,,75,45
29567,note_on,,,,,0,0,8,,,,,7,,,,60,45
29567,note_on,,,,,192,0,8,,,,,7,,,,59,0
29568,note_on,,,,,352,0,5,,,,,4,,,,79,45
29571,note_on,,,,,94,0,6,,,,,5,,,,67,0
29573,note_on,,,,,2,0,6,,,,,5,,,,67,45
29574,note_on,,,,,0,0,9,,,,,8,,,,48,45
29574,note_on,,,,,192,0,9,,,,,8,,,,47,0
29605,note_on,,,,,32,0,6,,,,,5,,,,67,0
29669,note_on,,,,,64,0,6,,,,,5,,,,67,45
29701,note_on,,,,,32,0,6,,,,,5,,,,67,0
29725,note_on,,,,,160,0,7,,,,,6,,,,63,0
29726,note_on,,,,,0,0,1,,,,,0,,,,72,0
29726,note_on,,,,,160,0,1,,,,,0,,,,75,0
29727,note_on,,,,,160,0,8,,,,,7,,,,60,0
29734,note_on,,,,,160,0,9,,,,,8,,,,48,0
29760,note_on,,,,,0,0,5,,,,,4,,,,84,45
29760,note_on,,,,,192,0,5,,,,,4,,,,79,0
29765,note_on,,,,,64,0,6,,,,,5,,,,67,45
29797,note_on,,,,,32,0,6,,,,,5,,,,67,0
29854,note_on,,,,,94,0,5,,,,,4,,,,84,0
29861,note_on,,,,,64,0,6,,,,,5,,,,67,45
29893,note_on,,,,,32,0,6,,,,,5,,,,67,0
29949,note_on,,,,,224,0,7,,,,,6,,,,60,45
29950,note_on,,,,,224,0,1,,,,,0,,,,72,45
29950,note_on,,,,,0,0,1,,,,,0,,,,75,45
29951,note_on,,,,,224,0,8,,,,,7,,,,57,45
29957,note_on,,,,,64,0,6,,,,,5,,,,67,45
29958,note_on,,,,,224,0,9,,,,,8,,,,45,45
29981,note_on,,,,,24,0,6,,,,,5,,,,67,0
29981,note_on,,,,,0,0,6,,,,,5,,,,69,45
30005,note_on,,,,,24,0,6,,,,,5,,,,69,0
30005,note_on,,,,,0,0,6,,,,,5,,,,67,45
30045,note_on,,,,,0,0,7,,,,,6,,,,63,45
30045,note_on,,,,,96,0,7,,,,,6,,,,60,0
30053,note_on,,,,,48,0,6,,,,,5,,,,67,0
30053,note_on,,,,,0,0,6,,,,,5,,,,65,45
30139,note_on,,,,,94,0,7,,,,,6,,,,63,0
30141,note_on,,,,,2,0,7,,,,,6,,,,62,45
30142,note_on,,,,,0,0,1,,,,,0,,,,70,45
30142,note_on,,,,,0,0,1,,,,,0,,,,72,0
30142,note_on,,,,,192,0,1,,,,,0,,,,75,0
30142,note_on,,,,,0,0,1,,,,,0,,,,74,45
30143,note_on,,,,,192,0,8,,,,,7,,,,57,0
30143,note_on,,,,,0,0,8,,,,,7,,,,58,45
30144,note_on,,,,,290,0,5,,,,,4,,,,77,45
30147,note_on,,,,,94,0,6,,,,,5,,,,65,0
30149,note_on,,,,,2,0,6,,,,,5,,,,65,45
30150,note_on,,,,,192,0,9,,,,,8,,,,45,0
30150,note_on,,,,,0,0,9,,,,,8,,,,46,45
30181,note_on,,,,,32,0,6,,,,,5,,,,65,0
30245,note_on,,,,,64,0,6,,,,,5,,,,65,45
30277,note_on,,,,,32,0,6,,,,,5,,,,65,0
30301,note_on,,,,,160,0,7,,,,,6,,,,62,0
30302,note_on,,,,,0,0,1,,,,,0,,,,70,0
30302,note_on,,,,,160,0,1,,,,,0,,,,74,0
30303,note_on,,,,,160,0,8,,,,,7,,,,58,0
30310,note_on,,,,,160,0,9,,,,,8,,,,46,0
30336,note_on,,,,,0,0,5,,,,,4,,,,82,45
30336,note_on,,,,,192,0,5,,,,,4,,,,77,0
30341,note_on,,,,,64,0,6,,,,,5,,,,65,45
30373,note_on,,,,,32,0,6,,,,,5,,,,65,0
30430,note_on,,,,,94,0,5,,,,,4,,,,82,0
30437,note_on,,,,,64,0,6,,,,,5,,,,65,45
30469,note_on,,,,,32,0,6,,,,,5,,,,65,0
30525,note_on,,,,,224,0,7,,,,,6,,,,62,45
30526,note_on,,,,,224,0,1,,,,,0,,,,74,45
30526,note_on,,,,,0,0,1,,,,,0,,,,77,45
30527,note_on,,,,,224,0,8,,,,,7,,,,51,45
30533,note_on,,,,,64,0,6,,,,,5,,,,65,45
30534,note_on,,,,,224,0,9,,,,,8,,,,39,45
30621,note_on,,,,,96,0,7,,,,,6,,,,62,0
30621,note_on,,,,,0,0,7,,,,,6,,,,60,45
30622,note_on,,,,,0,0,1,,,,,0,,,,74,0
30622,note_on,,,,,0,0,1,,,,,0,,,,72,45
30622,note_on,,,,,0,0,1,,,,,0,,,,75,45
30622,note_on,,,,,96,0,1,,,,,0,,,,77,0
30629,note_on,,,,,96,0,6,,,,,5,,,,65,0
30629,note_on,,,,,0,0,6,,,,,5,,,,63,45
30687,note_on,,,,,160,0,8,,,,,7,,,,51,0
30694,note_on,,,,,160,0,9,,,,,8,,,,39,0
30715,note_on,,,,,94,0,7,,,,,6,,,,60,0
30716,note_on,,,,,0,0,1,,,,,0,,,,72,0
30716,note_on,,,,,94,0,1,,,,,0,,,,75,0
30717,note_on,,,,,2,0,7,,,,,6,,,,58,45
30718,note_on,,,,,0,0,1,,,,,0,,,,74,45
30718,note_on,,,,,2,0,1,,,,,0,,,,70,45
30719,note_on,,,,,32,0,8,,,,,7,,,,53,45
30723,note_on,,,,,94,0,6,,,,,5,,,,63,0
30725,note_on,,,,,2,0,6,,,,,5,,,,62,45
30726,note_on,,,,,32,0,9,,,,,8,,,,41,45
30877,note_on,,,,,160,0,7,,,,,6,,,,58,0
30878,note_on,,,,,0,0,1,,,,,0,,,,70,0
30878,note_on,,,,,160,0,1,,,,,0,,,,74,0
30879,note_on,,,,,160,0,8,,,,,7,,,,53,0
30885,note_on,,,,,160,0,6,,,,,5,,,,62,0
30886,note_on,,,,,160,0,9,,,,,8,,,,41,0
30909,note_on,,,,,32,0,7,,,,,6,,,,57,45
30910,note_on,,,,,0,0,1,,,,,0,,,,72,45
30910,note_on,,,,,32,0,1,,,,,0,,,,69,45
30911,note_on,,,,,32,0,8,,,,,7,,,,41,45
30917,note_on,,,,,32,0,6,,,,,5,,,,60,45
30918,note_on,,,,,32,0,9,,,,,8,,,,29,45
31069,note_on,,,,,160,0,7,,,,,6,,,,57,0
31070,note_on,,,,,160,0,1,,,,,0,,,,72,0
31070,note_on,,,,,0,0,1,,,,,0,,,,69,0
31071,note_on,,,,,160,0,8,,,,,7,,,,41,0
31077,note_on,,,,,160,0,6,,,,,5,,,,60,0
31078,note_on,,,,,160,0,9,,,,,8,,,,29,0
31101,note_on,,,,,32,0,7,,,,,6,,,,58,75
31102,note_on,,,,,32,0,1,,,,,0,,,,70,45
31103,note_on,,,,,32,0,8,,,,,7,,,,46,75
31104,set_tempo,,,,,4032,1,0,,413793,,,,,,,,
31106,note_on,,,,,0,0,2,,,,,1,,,,58,75
31106,note_on,,,,,13088,0,2,,,,,1,,,,46,75
31109,note_on,,,,,32,0,6,,,,,5,,,,58,75
31110,note_on,,,,,32,0,9,,,,,8,,,,34,75
31197,note_on,,,,,94,0,8,,,,,7,,,,46,0
31199,note_on,,,,,2,0,8,,,,,7,,,,58,75
31204,note_on,,,,,94,0,9,,,,,8,,,,34,0
31206,note_on,,,,,2,0,9,,,,,8,,,,46,75
31261,note_on,,,,,160,0,7,,,,,6,,,,58,0
31262,note_on,,,,,160,0,1,,,,,0,,,,70,0
31269,note_on,,,,,160,0,6,,,,,5,,,,58,0
31293,note_on,,,,,94,0,8,,,,,7,,,,58,0
31293,note_on,,,,,32,0,7,,,,,6,,,,62,75
31295,note_on,,,,,2,0,8,,,,,7,,,,58,75
31296,note_on,,,,,866,0,5,,,,,4,,,,70,75
31300,note_on,,,,,94,0,9,,,,,8,,,,46,0
31302,note_on,,,,,2,0,9,,,,,8,,,,46,75
31389,note_on,,,,,94,0,8,,,,,7,,,,58,0
31391,note_on,,,,,2,0,8,,,,,7,,,,58,75
31396,note_on,,,,,94,0,9,,,,,8,,,,46,0
31398,note_on,,,,,2,0,9,,,,,8,,,,46,75
31456,note_on,,,,,160,0,5,,,,,4,,,,70,0
31485,note_on,,,,,94,0,8,,,,,7,,,,58,0
31487,note_on,,,,,2,0,8,,,,,7,,,,58,75
31488,note_on,,,,,32,0,5,,,,,4,,,,72,75
31492,note_on,,,,,94,0,9,,,,,8,,,,46,0
31494,note_on,,,,,2,0,9,,,,,8,,,,46,75
31512,note_on,,,,,0,0,5,,,,,4,,,,71,75
31512,note_on,,,,,24,0,5,,,,,4,,,,72,0
31536,note_on,,,,,0,0,5,,,,,4,,,,72,75
31536,note_on,,,,,24,0,5,,,,,4,,,,71,0
31560,note_on,,,,,0,0,5,,,,,4,,,,71,75
31560,note_on,,,,,24,0,5,,,,,4,,,,72,0
31581,note_on,,,,,94,0,8,,,,,7,,,,58,0
31583,note_on,,,,,2,0,8,,,,,7,,,,58,75
31584,note_on,,,,,0,0,5,,,,,4,,,,72,75
31584,note_on,,,,,24,0,5,,,,,4,,,,71,0
31588,note_on,,,,,94,0,9,,,,,8,,,,46,0
31590,note_on,,,,,2,0,9,,,,,8,,,,46,75
31608,note_on,,,,,0,0,5,,,,,4,,,,71,75
31608,note_on,,,,,24,0,5,,,,,4,,,,72,0
31629,note_on,,,,,336,0,7,,,,,6,,,,62,0
31632,note_on,,,,,0,0,5,,,,,4,,,,69,75
31632,note_on,,,,,24,0,5,,,,,4,,,,71,0
31656,note_on,,,,,0,0,5,,,,,4,,,,71,75
31656,note_on,,,,,24,0,5,,,,,4,,,,69,0
31677,note_on,,,,,94,0,8,,,,,7,,,,58,0
31677,note_on,,,,,48,0,7,,,,,6,,,,63,75
31678,note_on,,,,,22,0,5,,,,,4,,,,71,0
31679,note_on,,,,,2,0,8,,,,,7,,,,58,75
31680,note_on,,,,,2,0,5,,,,,4,,,,72,75
31684,note_on,,,,,94,0,9,,,,,8,,,,46,0
31686,note_on,,,,,2,0,9,,,,,8,,,,46,75
31773,note_on,,,,,94,0,8,,,,,7,,,,58,0
31775,note_on,,,,,2,0,8,,,,,7,,,,58,75
31780,note_on,,,,,94,0,9,,,,,8,,,,46,0
31782,note_on,,,,,2,0,9,,,,,8,,,,46,75
31869,note_on,,,,,94,0,8,,,,,7,,,,58,0
31871,note_on,,,,,2,0,8,,,,,7,,,,58,75
31876,note_on,,,,,94,0,9,,,,,8,,,,46,0
31877,note_on,,,,,608,0,6,,,,,5,,,,67,75
31878,note_on,,,,,2,0,9,,,,,8,,,,46,75
31965,note_on,,,,,94,0,8,,,,,7,,,,58,0
31967,note_on,,,,,2,0,8,,,,,7,,,,58,75
31972,note_on,,,,,94,0,9,,,,,8,,,,46,0
31974,note_on,,,,,2,0,9,,,,,8,,,,46,75
32061,note_on,,,,,94,0,8,,,,,7,,,,58,0
32061,note_on,,,,,384,0,7,,,,,6,,,,63,0
32061,note_on,,,,,0,0,7,,,,,6,,,,64,75
32063,note_on,,,,,2,0,8,,,,,7,,,,58,75
32068,note_on,,,,,94,0,9,,,,,8,,,,46,0
32069,note_on,,,,,192,0,6,,,,,5,,,,67,0
32069,note_on,,,,,0,0,6,,,,,5,,,,70,75
32070,note_on,,,,,2,0,9,,,,,8,,,,46,75
32157,note_on,,,,,94,0,8,,,,,7,,,,58,0
32159,note_on,,,,,2,0,8,,,,,7,,,,58,75
32164,note_on,,,,,94,0,9,,,,,8,,,,46,0
32166,note_on,,,,,2,0,9,,,,,8,,,,46,75
32229,note_on,,,,,160,0,6,,,,,5,,,,70,0
32253,note_on,,,,,192,0,7,,,,,6,,,,64,0
32253,note_on,,,,,94,0,8,,,,,7,,,,58,0
32253,note_on,,,,,0,0,7,,,,,6,,,,65,75
32255,note_on,,,,,2,0,8,,,,,7,,,,58,75
32260,note_on,,,,,94,0,9,,,,,8,,,,46,0
32261,note_on,,,,,32,0,6,,,,,5,,,,68,75
32262,note_on,,,,,2,0,9,,,,,8,,,,46,75
32349,note_on,,,,,94,0,8,,,,,7,,,,58,0
32350,note_on,,,,,670,0,5,,,,,4,,,,72,0
32351,note_on,,,,,2,0,8,,,,,7,,,,58,75
32352,note_on,,,,,2,0,5,,,,,4,,,,77,75
32356,note_on,,,,,94,0,9,,,,,8,,,,46,0
32358,note_on,,,,,2,0,9,,,,,8,,,,46,75
32400,note_on,,,,,48,0,5,,,,,4,,,,77,0
32400,note_on,,,,,0,0,5,,,,,4,,,,79,75
32445,note_on,,,,,0,0,7,,,,,6,,,,60,75
32445,note_on,,,,,94,0,8,,,,,7,,,,58,0
32445,note_on,,,,,192,0,7,,,,,6,,,,65,0
32446,note_on,,,,,46,0,5,,,,,4,,,,79,0
32447,note_on,,,,,2,0,8,,,,,7,,,,58,75
32448,note_on,,,,,2,0,5,,,,,4,,,,82,75
32452,note_on,,,,,94,0,9,,,,,8,,,,46,0
32454,note_on,,,,,2,0,9,,,,,8,,,,46,75
32460,note_on,,,,,0,0,5,,,,,4,,,,80,75
32460,note_on,,,,,12,0,5,,,,,4,,,,82,0
32541,note_on,,,,,94,0,8,,,,,7,,,,58,0
32543,note_on,,,,,2,0,8,,,,,7,,,,58,75
32544,note_on,,,,,84,0,5,,,,,4,,,,80,0
32544,note_on,,,,,0,0,5,,,,,4,,,,79,75
32548,note_on,,,,,94,0,9,,,,,8,,,,46,0
32550,note_on,,,,,2,0,9,,,,,8,,,,46,75
32592,note_on,,,,,0,0,5,,,,,4,,,,77,75
32592,note_on,,,,,48,0,5,,,,,4,,,,79,0
32637,note_on,,,,,94,0,8,,,,,7,,,,58,0
32637,note_on,,,,,192,0,7,,,,,6,,,,60,0
32637,note_on,,,,,0,0,7,,,,,6,,,,63,75
32638,note_on,,,,,46,0,5,,,,,4,,,,77,0
32639,note_on,,,,,2,0,8,,,,,7,,,,58,75
32640,note_on,,,,,2,0,5,,,,,4,,,,77,75
32644,note_on,,,,,94,0,9,,,,,8,,,,46,0
32646,note_on,,,,,2,0,9,,,,,8,,,,46,75
32652,note_on,,,,,12,0,5,,,,,4,,,,77,0
32652,note_on,,,,,0,0,5,,,,,4,,,,75,75
32733,note_on,,,,,94,0,8,,,,,7,,,,58,0
32735,note_on,,,,,2,0,8,,,,,7,,,,58,75
32736,note_on,,,,,0,0,5,,,,,4,,,,74,75
32736,note_on,,,,,84,0,5,,,,,4,,,,75,0
32740,note_on,,,,,94,0,9,,,,,8,,,,46,0
32742,note_on,,,,,2,0,9,,,,,8,,,,46,75
32784,note_on,,,,,0,0,5,,,,,4,,,,72,75
32784,note_on,,,,,48,0,5,,,,,4,,,,74,0
32797,note_on,,,,,160,0,7,,,,,6,,,,63,0
32829,note_on,,,,,32,0,7,,,,,6,,,,62,75
32829,note_on,,,,,94,0,8,,,,,7,,,,58,0
32830,note_on,,,,,46,0,5,,,,,4,,,,72,0
32831,note_on,,,,,2,0,8,,,,,7,,,,58,75
32832,note_on,,,,,2,0,5,,,,,4,,,,70,75
32836,note_on,,,,,94,0,9,,,,,8,,,,46,0
32838,note_on,,,,,2,0,9,,,,,8,,,,46,75
32925,note_on,,,,,94,0,8,,,,,7,,,,58,0
32927,note_on,,,,,2,0,8,,,,,7,,,,58,75
32932,note_on,,,,,94,0,9,,,,,8,,,,46,0
32934,note_on,,,,,2,0,9,,,,,8,,,,46,75
32997,note_on,,,,,736,0,6,,,,,5,,,,68,0
33021,note_on,,,,,94,0,8,,,,,7,,,,58,0
33023,note_on,,,,,2,0,8,,,,,7,,,,58,75
33028,note_on,,,,,94,0,9,,,,,8,,,,46,0
33029,note_on,,,,,32,0,6,,,,,5,,,,65,75
33030,note_on,,,,,2,0,9,,,,,8,,,,46,75
33117,note_on,,,,,94,0,8,,,,,7,,,,58,0
33119,note_on,,,,,2,0,8,,,,,7,,,,58,75
33124,note_on,,,,,94,0,9,,,,,8,,,,46,0
33126,note_on,,,,,2,0,9,,,,,8,,,,46,75
33213,note_on,,,,,94,0,8,,,,,7,,,,58,0
33215,note_on,,,,,2,0,8,,,,,7,,,,58,75
33220,note_on,,,,,94,0,9,,,,,8,,,,46,0
33221,note_on,,,,,192,0,6,,,,,5,,,,65,0
33221,note_on,,,,,0,0,6,,,,,5,,,,66,75
33222,note_on,,,,,2,0,9,,,,,8,,,,46,75
33309,note_on,,,,,94,0,8,,,,,7,,,,58,0
33311,note_on,,,,,2,0,8,,,,,7,,,,58,75
33316,note_on,,,,,94,0,9,,,,,8,,,,46,0
33318,note_on,,,,,2,0,9,,,,,8,,,,46,75
33357,note_on,,,,,528,0,7,,,,,6,,,,62,0
33381,note_on,,,,,160,0,6,,,,,5,,,,66,0
33405,note_on,,,,,48,0,7,,,,,6,,,,63,75
33405,note_on,,,,,94,0,8,,,,,7,,,,58,0
33407,note_on,,,,,2,0,8,,,,,7,,,,58,75
33412,note_on,,,,,94,0,9,,,,,8,,,,46,0
33413,note_on,,,,,32,0,6,,,,,5,,,,67,75
33414,note_on,,,,,2,0,9,,,,,8,,,,46,75
33501,note_on,,,,,94,0,8,,,,,7,,,,58,0
33502,note_on,,,,,670,0,5,,,,,4,,,,70,0
33503,note_on,,,,,2,0,8,,,,,7,,,,58,75
33504,note_on,,,,,2,0,5,,,,,4,,,,75,75
33508,note_on,,,,,94,0,9,,,,,8,,,,46,0
33510,note_on,,,,,2,0,9,,,,,8,,,,46,75
33552,note_on,,,,,0,0,5,,,,,4,,,,77,75
33552,note_on,,,,,48,0,5,,,,,4,,,,75,0
33597,note_on,,,,,0,0,7,,,,,6,,,,58,75
33597,note_on,,,,,192,0,7,,,,,6,,,,63,0
33597,note_on,,,,,94,0,8,,,,,7,,,,58,0
33598,note_on,,,,,46,0,5,,,,,4,,,,77,0
33599,note_on,,,,,2,0,8,,,,,7,,,,58,75
33600,note_on,,,,,2,0,5,,,,,4,,,,80,75
33604,note_on,,,,,94,0,9,,,,,8,,,,46,0
33606,note_on,,,,,2,0,9,,,,,8,,,,46,75
33612,note_on,,,,,12,0,5,,,,,4,,,,80,0
33612,note_on,,,,,0,0,5,,,,,4,,,,79,75
33693,note_on,,,,,94,0,8,,,,,7,,,,58,0
33695,note_on,,,,,2,0,8,,,,,7,,,,58,75
33696,note_on,,,,,84,0,5,,,,,4,,,,79,0
33696,note_on,,,,,0,0,5,,,,,4,,,,77,75
33700,note_on,,,,,94,0,9,,,,,8,,,,46,0
33702,note_on,,,,,2,0,9,,,,,8,,,,46,75
33744,note_on,,,,,48,0,5,,,,,4,,,,77,0
33744,note_on,,,,,0,0,5,,,,,4,,,,75,75
33789,note_on,,,,,0,0,7,,,,,6,,,,62,75
33789,note_on,,,,,192,0,7,,,,,6,,,,58,0
33789,note_on,,,,,94,0,8,,,,,7,,,,58,0
33790,note_on,,,,,46,0,5,,,,,4,,,,75,0
33791,note_on,,,,,2,0,8,,,,,7,,,,58,75
33792,note_on,,,,,2,0,5,,,,,4,,,,75,75
33796,note_on,,,,,94,0,9,,,,,8,,,,46,0
33798,note_on,,,,,2,0,9,,,,,8,,,,46,75
33804,note_on,,,,,0,0,5,,,,,4,,,,74,75
33804,note_on,,,,,12,0,5,,,,,4,,,,75,0
33885,note_on,,,,,94,0,8,,,,,7,,,,58,0
33887,note_on,,,,,2,0,8,,,,,7,,,,58,75
33888,note_on,,,,,84,0,5,,,,,4,,,,74,0
33888,note_on,,,,,0,0,5,,,,,4,,,,72,75
33892,note_on,,,,,94,0,9,,,,,8,,,,46,0
33894,note_on,,,,,2,0,9,,,,,8,,,,46,75
33936,note_on,,,,,0,0,5,,,,,4,,,,70,75
33936,note_on,,,,,48,0,5,,,,,4,,,,72,0
33949,note_on,,,,,160,0,7,,,,,6,,,,62,0
33981,note_on,,,,,94,0,8,,,,,7,,,,58,0
33981,note_on,,,,,32,0,7,,,,,6,,,,60,75
33982,note_on,,,,,46,0,5,,,,,4,,,,70,0
33983,note_on,,,,,2,0,8,,,,,7,,,,58,75
33984,note_on,,,,,2,0,5,,,,,4,,,,68,75
33988,note_on,,,,,94,0,9,,,,,8,,,,46,0
33989,note_on,,,,,576,0,6,,,,,5,,,,67,0
33989,note_on,,,,,0,0,6,,,,,5,,,,68,75
33990,note_on,,,,,2,0,9,,,,,8,,,,46,75
34011,note_on,,,,,22,0,6,,,,,5,,,,68,0
34013,note_on,,,,,2,0,6,,,,,5,,,,67,75
34037,note_on,,,,,0,0,6,,,,,5,,,,68,75
34037,note_on,,,,,24,0,6,,,,,5,,,,67,0
34061,note_on,,,,,0,0,6,,,,,5,,,,67,75
34061,note_on,,,,,24,0,6,,,,,5,,,,68,0
34077,note_on,,,,,94,0,8,,,,,7,,,,58,0
34079,note_on,,,,,2,0,8,,,,,7,,,,58,75
34084,note_on,,,,,94,0,9,,,,,8,,,,46,0
34085,note_on,,,,,24,0,6,,,,,5,,,,67,0
34085,note_on,,,,,0,0,6,,,,,5,,,,68,75
34086,note_on,,,,,2,0,9,,,,,8,,,,46,75
34109,note_on,,,,,24,0,6,,,,,5,,,,68,0
34109,note_on,,,,,0,0,6,,,,,5,,,,67,75
34133,note_on,,,,,0,0,6,,,,,5,,,,65,75
34133,note_on,,,,,24,0,6,,,,,5,,,,67,0
34157,note_on,,,,,24,0,6,,,,,5,,,,65,0
34157,note_on,,,,,0,0,6,,,,,5,,,,67,75
34173,note_on,,,,,94,0,8,,,,,7,,,,58,0
34175,note_on,,,,,2,0,8,,,,,7,,,,58,75
34180,note_on,,,,,94,0,9,,,,,8,,,,46,0
34181,note_on,,,,,24,0,6,,,,,5,,,,67,0
34181,note_on,,,,,0,0,6,,,,,5,,,,68,75
34182,note_on,,,,,2,0,9,,,,,8,,,,46,75
34269,note_on,,,,,94,0,8,,,,,7,,,,58,0
34271,note_on,,,,,2,0,8,,,,,7,,,,58,75
34276,note_on,,,,,94,0,9,,,,,8,,,,46,0
34278,note_on,,,,,2,0,9,,,,,8,,,,46,75
34365,note_on,,,,,94,0,8,,,,,7,,,,58,0
34365,note_on,,,,,384,0,7,,,,,6,,,,60,0
34365,note_on,,,,,0,0,7,,,,,6,,,,61,75
34367,note_on,,,,,2,0,8,,,,,7,,,,58,75
34372,note_on,,,,,94,0,9,,,,,8,,,,46,0
34373,note_on,,,,,192,0,6,,,,,5,,,,68,0
34373,note_on,,,,,0,0,6,,,,,5,,,,64,75
34374,note_on,,,,,2,0,9,,,,,8,,,,46,75
34461,note_on,,,,,94,0,8,,,,,7,,,,58,0
34463,note_on,,,,,2,0,8,,,,,7,,,,58,75
34468,note_on,,,,,94,0,9,,,,,8,,,,46,0
34470,note_on,,,,,2,0,9,,,,,8,,,,46,75
34525,note_on,,,,,160,0,7,,,,,6,,,,61,0
34533,note_on,,,,,160,0,6,,,,,5,,,,64,0
34557,note_on,,,,,94,0,8,,,,,7,,,,58,0
34557,note_on,,,,,32,0,7,,,,,6,,,,62,75
34558,note_on,,,,,3296,0,1,,,,,0,,,,77,75
34558,note_on,,,,,0,0,1,,,,,0,,,,80,75
34559,note_on,,,,,2,0,8,,,,,7,,,,58,75
34564,note_on,,,,,94,0,9,,,,,8,,,,46,0
34565,note_on,,,,,32,0,6,,,,,5,,,,65,75
34566,note_on,,,,,2,0,9,,,,,8,,,,46,75
34651,note_on,,,,,94,0,7,,,,,6,,,,62,0
34653,note_on,,,,,94,0,8,,,,,7,,,,58,0
34653,note_on,,,,,2,0,7,,,,,6,,,,62,75
34654,note_on,,,,,670,0,5,,,,,4,,,,68,0
34655,note_on,,,,,2,0,8,,,,,7,,,,58,75
34656,note_on,,,,,2,0,5,,,,,4,,,,74,75
34660,note_on,,,,,94,0,9,,,,,8,,,,46,0
34662,note_on,,,,,2,0,9,,,,,8,,,,46,75
34704,note_on,,,,,0,0,5,,,,,4,,,,75,75
34704,note_on,,,,,48,0,5,,,,,4,,,,74,0
34725,note_on,,,,,160,0,6,,,,,5,,,,65,0
34747,note_on,,,,,94,0,7,,,,,6,,,,62,0
34749,note_on,,,,,2,0,7,,,,,6,,,,62,75
34749,note_on,,,,,94,0,8,,,,,7,,,,58,0
34750,note_on,,,,,46,0,5,,,,,4,,,,75,0
34751,note_on,,,,,2,0,8,,,,,7,,,,58,75
34752,note_on,,,,,2,0,5,,,,,4,,,,79,75
34756,note_on,,,,,94,0,9,,,,,8,,,,46,0
34758,note_on,,,,,2,0,9,,,,,8,,,,46,75
34764,note_on,,,,,0,0,5,,,,,4,,,,77,75
34764,note_on,,,,,12,0,5,,,,,4,,,,79,0
34843,note_on,,,,,94,0,7,,,,,6,,,,62,0
34845,note_on,,,,,2,0,7,,,,,6,,,,62,75
34845,note_on,,,,,94,0,8,,,,,7,,,,58,0
34847,note_on,,,,,2,0,8,,,,,7,,,,58,75
34848,note_on,,,,,84,0,5,,,,,4,,,,77,0
34848,note_on,,,,,0,0,5,,,,,4,,,,75,75
34852,note_on,,,,,94,0,9,,,,,8,,,,46,0
34854,note_on,,,,,2,0,9,,,,,8,,,,46,75
34896,note_on,,,,,48,0,5,,,,,4,,,,75,0
34896,note_on,,,,,0,0,5,,,,,4,,,,74,75
34939,note_on,,,,,94,0,7,,,,,6,,,,62,0
34941,note_on,,,,,94,0,8,,,,,7,,,,58,0
34941,note_on,,,,,2,0,7,,,,,6,,,,62,75
34942,note_on,,,,,46,0,5,,,,,4,,,,74,0
34943,note_on,,,,,2,0,8,,,,,7,,,,58,75
34944,note_on,,,,,2,0,5,,,,,4,,,,74,75
34948,note_on,,,,,94,0,9,,,,,8,,,,46,0
34949,note_on,,,,,224,0,6,,,,,5,,,,70,75
34950,note_on,,,,,2,0,9,,,,,8,,,,46,75
34956,note_on,,,,,12,0,5,,,,,4,,,,74,0
34956,note_on,,,,,0,0,5,,,,,4,,,,72,75
34961,note_on,,,,,0,0,6,,,,,5,,,,68,75
34961,note_on,,,,,12,0,6,,,,,5,,,,70,0
35035,note_on,,,,,94,0,7,,,,,6,,,,62,0
35037,note_on,,,,,94,0,8,,,,,7,,,,58,0
35037,note_on,,,,,2,0,7,,,,,6,,,,62,75
35039,note_on,,,,,2,0,8,,,,,7,,,,58,75
35040,note_on,,,,,84,0,5,,,,,4,,,,72,0
35040,note_on,,,,,0,0,5,,,,,4,,,,70,75
35044,note_on,,,,,94,0,9,,,,,8,,,,46,0
35045,note_on,,,,,84,0,6,,,,,5,,,,68,0
35045,note_on,,,,,0,0,6,,,,,5,,,,67,75
35046,note_on,,,,,2,0,9,,,,,8,,,,46,75
35086,note_on,,,,,528,0,1,,,,,0,,,,80,0
35086,note_on,,,,,0,0,1,,,,,0,,,,77,0
35088,note_on,,,,,48,0,5,,,,,4,,,,70,0
35088,note_on,,,,,0,0,5,,,,,4,,,,68,75
35093,note_on,,,,,0,0,6,,,,,5,,,,65,75
35093,note_on,,,,,48,0,6,,,,,5,,,,67,0
35131,note_on,,,,,94,0,7,,,,,6,,,,62,0
35133,note_on,,,,,94,0,8,,,,,7,,,,58,0
35133,note_on,,,,,2,0,7,,,,,6,,,,63,75
35134,note_on,,,,,0,0,1,,,,,0,,,,79,75
35134,note_on,,,,,48,0,1,,,,,0,,,,75,75
35134,note_on,,,,,46,0,5,,,,,4,,,,68,0
35135,note_on,,,,,2,0,8,,,,,7,,,,58,75
35136,note_on,,,,,2,0,5,,,,,4,,,,67,75
35139,note_on,,,,,46,0,6,,,,,5,,,,65,0
35140,note_on,,,,,94,0,9,,,,,8,,,,46,0
35141,note_on,,,,,2,0,6,,,,,5,,,,63,75
35142,note_on,,,,,2,0,9,,,,,8,,,,46,75
35227,note_on,,,,,94,0,7,,,,,6,,,,63,0
35229,note_on,,,,,2,0,7,,,,,6,,,,67,75
35229,note_on,,,,,94,0,8,,,,,7,,,,58,0
35230,note_on,,,,,94,0,5,,,,,4,,,,67,0
35231,note_on,,,,,2,0,8,,,,,7,,,,58,75
35232,note_on,,,,,2,0,5,,,,,4,,,,75,75
35236,note_on,,,,,94,0,9,,,,,8,,,,46,0
35238,note_on,,,,,2,0,9,,,,,8,,,,46,75
35280,note_on,,,,,48,0,5,,,,,4,,,,75,0
35280,note_on,,,,,0,0,5,,,,,4,,,,74,75
35301,note_on,,,,,160,0,6,,,,,5,,,,63,0
35323,note_on,,,,,94,0,7,,,,,6,,,,67,0
35325,note_on,,,,,2,0,7,,,,,6,,,,67,75
35325,note_on,,,,,94,0,8,,,,,7,,,,58,0
35326,note_on,,,,,46,0,5,,,,,4,,,,74,0
35327,note_on,,,,,2,0,8,,,,,7,,,,58,75
35328,note_on,,,,,2,0,5,,,,,4,,,,77,75
35332,note_on,,,,,94,0,9,,,,,8,,,,46,0
35334,note_on,,,,,2,0,9,,,,,8,,,,46,75
35340,note_on,,,,,0,0,5,,,,,4,,,,75,75
35340,note_on,,,,,12,0,5,,,,,4,,,,77,0
35419,note_on,,,,,94,0,7,,,,,6,,,,67,0
35421,note_on,,,,,94,0,8,,,,,7,,,,58,0
35421,note_on,,,,,2,0,7,,,,,6,,,,63,75
35423,note_on,,,,,2,0,8,,,,,7,,,,58,75
35424,note_on,,,,,84,0,5,,,,,4,,,,75,0
35424,note_on,,,,,0,0,5,,,,,4,,,,74,75
35428,note_on,,,,,94,0,9,,,,,8,,,,46,0
35430,note_on,,,,,2,0,9,,,,,8,,,,46,75
35472,note_on,,,,,48,0,5,,,,,4,,,,74,0
35472,note_on,,,,,0,0,5,,,,,4,,,,72,75
35515,note_on,,,,,94,0,7,,,,,6,,,,63,0
35517,note_on,,,,,2,0,7,,,,,6,,,,63,75
35517,note_on,,,,,94,0,8,,,,,7,,,,58,0
35518,note_on,,,,,46,0,5,,,,,4,,,,72,0
35519,note_on,,,,,2,0,8,,,,,7,,,,58,75
35520,note_on,,,,,2,0,5,,,,,4,,,,72,75
35524,note_on,,,,,94,0,9,,,,,8,,,,46,0
35525,note_on,,,,,224,0,6,,,,,5,,,,68,75
35526,note_on,,,,,2,0,9,,,,,8,,,,46,75
35532,note_on,,,,,0,0,5,,,,,4,,,,70,75
35532,note_on,,,,,12,0,5,,,,,4,,,,72,0
35537,note_on,,,,,0,0,6,,,,,5,,,,67,75
35537,note_on,,,,,12,0,6,,,,,5,,,,68,0
35573,note_on,,,,,36,0,6,,,,,5,,,,67,0
35573,note_on,,,,,0,0,6,,,,,5,,,,67,75
35611,note_on,,,,,94,0,7,,,,,6,,,,63,0
35613,note_on,,,,,2,0,7,,,,,6,,,,58,75
35613,note_on,,,,,94,0,8,,,,,7,,,,58,0
35615,note_on,,,,,2,0,8,,,,,7,,,,58,75
35616,note_on,,,,,0,0,5,,,,,4,,,,68,75
35616,note_on,,,,,84,0,5,,,,,4,,,,70,0
35620,note_on,,,,,94,0,9,,,,,8,,,,46,0
35621,note_on,,,,,48,0,6,,,,,5,,,,67,0
35621,note_on,,,,,0,0,6,,,,,5,,,,65,75
35622,note_on,,,,,2,0,9,,,,,8,,,,46,75
35662,note_on,,,,,0,0,1,,,,,0,,,,75,0
35662,note_on,,,,,528,0,1,,,,,0,,,,79,0
35664,note_on,,,,,48,0,5,,,,,4,,,,68,0
35664,note_on,,,,,0,0,5,,,,,4,,,,67,75
35669,note_on,,,,,0,0,6,,,,,5,,,,63,75
35669,note_on,,,,,48,0,6,,,,,5,,,,65,0
35707,note_on,,,,,94,0,7,,,,,6,,,,58,0
35709,note_on,,,,,94,0,8,,,,,7,,,,58,0
35709,note_on,,,,,2,0,7,,,,,6,,,,58,75
35710,note_on,,,,,48,0,1,,,,,0,,,,75,75
35710,note_on,,,,,46,0,5,,,,,4,,,,67,0
35710,note_on,,,,,0,0,1,,,,,0,,,,79,75
35711,note_on,,,,,2,0,8,,,,,7,,,,58,92
35712,note_on,,,,,2,0,5,,,,,4,,,,70,75
35715,note_on,,,,,46,0,6,,,,,5,,,,63,0
35716,note_on,,,,,94,0,9,,,,,8,,,,46,0
35717,note_on,,,,,2,0,6,,,,,5,,,,67,75
35718,note_on,,,,,2,0,9,,,,,8,,,,46,92
35805,note_on,,,,,94,0,8,,,,,7,,,,58,0
35807,note_on,,,,,2,0,8,,,,,7,,,,46,92
35812,note_on,,,,,94,0,9,,,,,8,,,,46,0
35814,note_on,,,,,2,0,9,,,,,8,,,,34,92
35856,note_on,,,,,0,0,5,,,,,4,,,,67,75
35856,note_on,,,,,144,0,5,,,,,4,,,,70,0
35861,note_on,,,,,0,0,6,,,,,5,,,,63,75
35861,note_on,,,,,144,0,6,,,,,5,,,,67,0
35869,note_on,,,,,160,0,7,,,,,6,,,,58,0
35901,note_on,,,,,94,0,8,,,,,7,,,,46,0
35901,note_on,,,,,32,0,7,,,,,6,,,,58,75
35902,note_on,,,,,192,0,1,,,,,0,,,,79,0
35902,note_on,,,,,0,0,1,,,,,0,,,,74,75
35902,note_on,,,,,0,0,1,,,,,0,,,,77,75
35902,note_on,,,,,46,0,5,,,,,4,,,,67,0
35902,note_on,,,,,0,0,1,,,,,0,,,,75,0
35903,note_on,,,,,2,0,8,,,,,7,,,,58,92
35904,note_on,,,,,2,0,5,,,,,4,,,,65,75
35907,note_on,,,,,46,0,6,,,,,5,,,,63,0
35908,note_on,,,,,94,0,9,,,,,8,,,,34,0
35909,note_on,,,,,2,0,6,,,,,5,,,,62,75
35910,note_on,,,,,2,0,9,,,,,8,,,,46,92
35997,note_on,,,,,94,0,8,,,,,7,,,,58,0
35999,note_on,,,,,2,0,8,,,,,7,,,,56,92
36004,note_on,,,,,94,0,9,,,,,8,,,,46,0
36006,note_on,,,,,2,0,9,,,,,8,,,,44,92
36050,note_on,,,,,0,0,2,,,,,1,,,,46,0
36050,note_on,,,,,4944,0,2,,,,,1,,,,58,0
36061,note_on,,,,,160,0,7,,,,,6,,,,58,0
36062,note_on,,,,,0,0,1,,,,,0,,,,74,0
36062,note_on,,,,,160,0,1,,,,,0,,,,77,0
36064,note_on,,,,,160,0,5,,,,,4,,,,65,0
36069,note_on,,,,,160,0,6,,,,,5,,,,62,0
36093,note_on,,,,,94,0,8,,,,,7,,,,56,0
36095,note_on,,,,,2,0,8,,,,,7,,,,55,92
36100,note_on,,,,,94,0,9,,,,,8,,,,44,0
36102,note_on,,,,,2,0,9,,,,,8,,,,43,92
36189,note_on,,,,,94,0,8,,,,,7,,,,55,0
36191,note_on,,,,,2,0,8,,,,,7,,,,53,92
36196,note_on,,,,,94,0,9,,,,,8,,,,43,0
36198,note_on,,,,,2,0,9,,,,,8,,,,41,92
36285,note_on,,,,,224,0,7,,,,,6,,,,58,108
36285,note_on,,,,,94,0,8,,,,,7,,,,53,0
36286,note_on,,,,,224,0,1,,,,,0,,,,75,108
36287,note_on,,,,,2,0,8,,,,,7,,,,51,108
36288,note_on,,,,,0,0,5,,,,,4,,,,63,108
36288,set_tempo,,,,,5184,1,0,,408163,,,,,,,,
36288,note_on,,,,,224,0,5,,,,,4,,,,55,108
36290,note_on,,,,,0,0,2,,,,,1,,,,63,108
36290,note_on,,,,,240,0,2,,,,,1,,,,55,108
36292,note_on,,,,,94,0,9,,,,,8,,,,41,0
36293,note_on,,,,,224,0,6,,,,,5,,,,55,108
36293,note_on,,,,,0,0,6,,,,,5,,,,63,108
36294,note_on,,,,,2,0,9,,,,,8,,,,39,108
36619,note_on,,,,,334,0,7,,,,,6,,,,58,0
36620,note_on,,,,,334,0,1,,,,,0,,,,75,0
36621,note_on,,,,,334,0,8,,,,,7,,,,51,0
36621,note_on,,,,,2,0,7,,,,,6,,,,58,108
36622,note_on,,,,,0,0,5,,,,,4,,,,55,0
36622,note_on,,,,,2,0,1,,,,,0,,,,75,108
36622,note_on,,,,,334,0,5,,,,,4,,,,63,0
36623,note_on,,,,,2,0,8,,,,,7,,,,51,108
36624,note_on,,,,,334,0,2,,,,,1,,,,63,0
36624,note_on,,,,,0,0,2,,,,,1,,,,55,0
36624,note_on,,,,,2,0,5,,,,,4,,,,63,108
36626,note_on,,,,,0,0,2,,,,,1,,,,63,108
36626,note_on,,,,,2,0,2,,,,,1,,,,55,108
36627,note_on,,,,,334,0,6,,,,,5,,,,63,0
36627,note_on,,,,,0,0,6,,,,,5,,,,55,0
36628,note_on,,,,,334,0,9,,,,,8,,,,39,0
36629,note_on,,,,,2,0,6,,,,,5,,,,63,108
36630,note_on,,,,,2,0,9,,,,,8,,,,39,108
36667,note_on,,,,,46,0,7,,,,,6,,,,58,0
36668,note_on,,,,,46,0,1,,,,,0,,,,75,0
36669,note_on,,,,,2,0,7,,,,,6,,,,58,108
36669,note_on,,,,,46,0,8,,,,,7,,,,51,0
36670,note_on,,,,,46,0,5,,,,,4,,,,63,0
36670,note_on,,,,,2,0,1,,,,,0,,,,75,108
36671,note_on,,,,,2,0,8,,,,,7,,,,51,108
36672,note_on,,,,,0,0,2,,,,,1,,,,55,0
36672,note_on,,,,,2,0,5,,,,,4,,,,55,108
36672,note_on,,,,,0,0,5,,,,,4,,,,63,108
36672,note_on,,,,,46,0,2,,,,,1,,,,63,0
36674,note_on,,,,,0,0,2,,,,,1,,,,63,108
36674,note_on,,,,,2,0,2,,,,,1,,,,55,108
36675,note_on,,,,,46,0,6,,,,,5,,,,63,0
36676,note_on,,,,,46,0,9,,,,,8,,,,39,0
36677,note_on,,,,,0,0,6,,,,,5,,,,63,108
36677,note_on,,,,,2,0,6,,,,,5,,,,55,108
36678,note_on,,,,,2,0,9,,,,,8,,,,39,108
36811,note_on,,,,,142,0,7,,,,,6,,,,58,0
36812,note_on,,,,,142,0,1,,,,,0,,,,75,0
36813,note_on,,,,,2,0,7,,,,,6,,,,58,108
36813,note_on,,,,,142,0,8,,,,,7,,,,51,0
36814,note_on,,,,,142,0,5,,,,,4,,,,63,0
36814,note_on,,,,,0,0,5,,,,,4,,,,55,0
36814,note_on,,,,,2,0,1,,,,,0,,,,75,108
36815,note_on,,,,,2,0,8,,,,,7,,,,51,108
36816,note_on,,,,,2,0,5,,,,,4,,,,63,108
36816,note_on,,,,,0,0,2,,,,,1,,,,55,0
36816,note_on,,,,,142,0,2,,,,,1,,,,63,0
36818,note_on,,,,,0,0,2,,,,,1,,,,63,108
36818,note_on,,,,,2,0,2,,,,,1,,,,55,108
36819,note_on,,,,,0,0,6,,,,,5,,,,55,0
36819,note_on,,,,,142,0,6,,,,,5,,,,63,0
36820,note_on,,,,,142,0,9,,,,,8,,,,39,0
36821,note_on,,,,,2,0,6,,,,,5,,,,63,108
36822,note_on,,,,,2,0,9,,,,,8,,,,39,108
36859,note_on,,,,,46,0,7,,,,,6,,,,58,0
36860,note_on,,,,,46,0,1,,,,,0,,,,75,0
36861,note_on,,,,,2,0,7,,,,,6,,,,58,108
36861,note_on,,,,,46,0,8,,,,,7,,,,51,0
36862,note_on,,,,,46,0,5,,,,,4,,,,63,0
36862,note_on,,,,,2,0,1,,,,,0,,,,75,108
36863,note_on,,,,,2,0,8,,,,,7,,,,51,108
36864,note_on,,,,,2,0,5,,,,,4,,,,65,108
36864,note_on,,,,,46,0,2,,,,,1,,,,63,0
36864,note_on,,,,,0,0,2,,,,,1,,,,55,0
36866,note_on,,,,,0,0,2,,,,,1,,,,63,108
36866,note_on,,,,,2,0,2,,,,,1,,,,55,108
36867,note_on,,,,,46,0,6,,,,,5,,,,63,0
36868,note_on,,,,,46,0,9,,,,,8,,,,39,0
36869,note_on,,,,,0,0,6,,,,,5,,,,63,108
36869,note_on,,,,,2,0,6,,,,,5,,,,55,108
36870,note_on,,,,,2,0,9,,,,,8,,,,39,108
36888,note_on,,,,,24,0,5,,,,,4,,,,65,0
36888,note_on,,,,,0,0,5,,,,,4,,,,63,108
36909,note_on,,,,,48,0,7,,,,,6,,,,58,0
36910,note_on,,,,,48,0,1,,,,,0,,,,75,0
36911,note_on,,,,,48,0,8,,,,,7,,,,51,0
36912,note_on,,,,,24,0,5,,,,,4,,,,63,0
36912,note_on,,,,,0,0,5,,,,,4,,,,65,108
36914,note_on,,,,,48,0,2,,,,,1,,,,63,0
36914,note_on,,,,,0,0,2,,,,,1,,,,55,0
36917,note_on,,,,,48,0,6,,,,,5,,,,63,0
36917,note_on,,,,,0,0,6,,,,,5,,,,55,0
36918,note_on,,,,,48,0,9,,,,,8,,,,39,0
36936,note_on,,,,,24,0,5,,,,,4,,,,65,0
36936,note_on,,,,,0,0,5,,,,,4,,,,63,108
36960,note_on,,,,,0,0,5,,,,,4,,,,65,108
36960,note_on,,,,,24,0,5,,,,,4,,,,63,0
36984,note_on,,,,,0,0,5,,,,,4,,,,63,108
36984,note_on,,,,,24,0,5,,,,,4,,,,65,0
37008,note_on,,,,,24,0,5,,,,,4,,,,63,0
37008,note_on,,,,,0,0,5,,,,,4,,,,62,108
37032,note_on,,,,,24,0,5,,,,,4,,,,62,0
37032,note_on,,,,,0,0,5,,,,,4,,,,63,108
37053,note_on,,,,,144,0,7,,,,,6,,,,58,108
37054,note_on,,,,,144,0,1,,,,,0,,,,74,108
37054,note_on,,,,,22,0,5,,,,,4,,,,63,0
37054,note_on,,,,,0,0,1,,,,,0,,,,77,108
37055,note_on,,,,,144,0,8,,,,,7,,,,46,108
37056,note_on,,,,,2,0,5,,,,,4,,,,65,108
37058,note_on,,,,,144,0,2,,,,,1,,,,58,108
37058,note_on,,,,,0,0,2,,,,,1,,,,65,108
37061,note_on,,,,,144,0,6,,,,,5,,,,56,108
37061,note_on,,,,,0,0,6,,,,,5,,,,62,108
37062,note_on,,,,,144,0,9,,,,,8,,,,34,108
37101,note_on,,,,,48,0,7,,,,,6,,,,58,0
37102,note_on,,,,,0,0,1,,,,,0,,,,74,0
37102,note_on,,,,,48,0,1,,,,,0,,,,77,0
37103,note_on,,,,,48,0,8,,,,,7,,,,46,0
37106,note_on,,,,,48,0,2,,,,,1,,,,65,0
37106,note_on,,,,,0,0,2,,,,,1,,,,58,0
37109,note_on,,,,,48,0,6,,,,,5,,,,62,0
37109,note_on,,,,,0,0,6,,,,,5,,,,56,0
37110,note_on,,,,,48,0,9,,,,,8,,,,34,0
37216,note_on,,,,,160,0,5,,,,,4,,,,65,0
37437,note_on,,,,,336,0,7,,,,,6,,,,58,108
37438,note_on,,,,,336,0,1,,,,,0,,,,73,108
37438,note_on,,,,,0,0,1,,,,,0,,,,79,108
37439,note_on,,,,,336,0,8,,,,,7,,,,51,108
37440,note_on,,,,,224,0,5,,,,,4,,,,58,108
37440,note_on,,,,,0,0,5,,,,,4,,,,67,108
37442,note_on,,,,,336,0,2,,,,,1,,,,51,108
37442,note_on,,,,,0,0,2,,,,,1,,,,63,108
37445,note_on,,,,,0,0,6,,,,,5,,,,63,108
37445,note_on,,,,,336,0,6,,,,,5,,,,61,108
37446,note_on,,,,,336,0,9,,,,,8,,,,39,108
37771,note_on,,,,,334,0,7,,,,,6,,,,58,0
37772,note_on,,,,,0,0,1,,,,,0,,,,73,0
37772,note_on,,,,,334,0,1,,,,,0,,,,79,0
37773,note_on,,,,,334,0,8,,,,,7,,,,51,0
37773,note_on,,,,,2,0,7,,,,,6,,,,58,108
37774,note_on,,,,,334,0,5,,,,,4,,,,67,0
37774,note_on,,,,,0,0,5,,,,,4,,,,58,0
37774,note_on,,,,,0,0,1,,,,,0,,,,79,108
37774,note_on,,,,,2,0,1,,,,,0,,,,73,108
37775,note_on,,,,,2,0,8,,,,,7,,,,51,108
37776,note_on,,,,,0,0,2,,,,,1,,,,51,0
37776,note_on,,,,,334,0,2,,,,,1,,,,63,0
37776,note_on,,,,,2,0,5,,,,,4,,,,67,108
37778,note_on,,,,,2,0,2,,,,,1,,,,51,108
37778,note_on,,,,,0,0,2,,,,,1,,,,63,108
37779,note_on,,,,,0,0,6,,,,,5,,,,61,0
37779,note_on,,,,,334,0,6,,,,,5,,,,63,0
37780,note_on,,,,,334,0,9,,,,,8,,,,39,0
37781,note_on,,,,,2,0,6,,,,,5,,,,61,108
37781,note_on,,,,,0,0,6,,,,,5,,,,63,108
37782,note_on,,,,,2,0,9,,,,,8,,,,39,108
37819,note_on,,,,,46,0,7,,,,,6,,,,58,0
37820,note_on,,,,,46,0,1,,,,,0,,,,79,0
37820,note_on,,,,,0,0,1,,,,,0,,,,73,0
37821,note_on,,,,,46,0,8,,,,,7,,,,51,0
37821,note_on,,,,,2,0,7,,,,,6,,,,58,108
37822,note_on,,,,,2,0,1,,,,,0,,,,73,108
37822,note_on,,,,,46,0,5,,,,,4,,,,67,0
37822,note_on,,,,,0,0,1,,,,,0,,,,79,108
37823,note_on,,,,,2,0,8,,,,,7,,,,51,108
37824,note_on,,,,,0,0,5,,,,,4,,,,67,108
37824,note_on,,,,,2,0,5,,,,,4,,,,58,108
37824,note_on,,,,,46,0,2,,,,,1,,,,63,0
37824,note_on,,,,,0,0,2,,,,,1,,,,51,0
37826,note_on,,,,,2,0,2,,,,,1,,,,51,108
37826,note_on,,,,,0,0,2,,,,,1,,,,63,108
37827,note_on,,,,,0,0,6,,,,,5,,,,61,0
37827,note_on,,,,,46,0,6,,,,,5,,,,63,0
37828,note_on,,,,,46,0,9,,,,,8,,,,39,0
37829,note_on,,,,,0,0,6,,,,,5,,,,63,108
37829,note_on,,,,,2,0,6,,,,,5,,,,61,108
37830,note_on,,,,,2,0,9,,,,,8,,,,39,108
37963,note_on,,,,,142,0,7,,,,,6,,,,58,0
37964,note_on,,,,,0,0,1,,,,,0,,,,73,0
37964,note_on,,,,,142,0,1,,,,,0,,,,79,0
37965,note_on,,,,,2,0,7,,,,,6,,,,58,108
37965,note_on,,,,,142,0,8,,,,,7,,,,51,0
37966,note_on,,,,,0,0,1,,,,,0,,,,79,108
37966,note_on,,,,,142,0,5,,,,,4,,,,67,0
37966,note_on,,,,,2,0,1,,,,,0,,,,73,108
37966,note_on,,,,,0,0,5,,,,,4,,,,58,0
37967,note_on,,,,,2,0,8,,,,,7,,,,51,108
37968,note_on,,,,,142,0,2,,,,,1,,,,63,0
37968,note_on,,,,,0,0,2,,,,,1,,,,51,0
37968,note_on,,,,,2,0,5,,,,,4,,,,67,108
37970,note_on,,,,,0,0,2,,,,,1,,,,63,108
37970,note_on,,,,,2,0,2,,,,,1,,,,51,108
37971,note_on,,,,,142,0,6,,,,,5,,,,63,0
37971,note_on,,,,,0,0,6,,,,,5,,,,61,0
37972,note_on,,,,,142,0,9,,,,,8,,,,39,0
37973,note_on,,,,,0,0,6,,,,,5,,,,63,108
37973,note_on,,,,,2,0,6,,,,,5,,,,61,108
37974,note_on,,,,,2,0,9,,,,,8,,,,39,108
38011,note_on,,,,,46,0,7,,,,,6,,,,58,0
38012,note_on,,,,,46,0,1,,,,,0,,,,79,0
38012,note_on,,,,,0,0,1,,,,,0,,,,73,0
38013,note_on,,,,,2,0,7,,,,,6,,,,58,108
38013,note_on,,,,,46,0,8,,,,,7,,,,51,0
38014,note_on,,,,,2,0,1,,,,,0,,,,73,108
38014,note_on,,,,,0,0,1,,,,,0,,,,79,108
38014,note_on,,,,,46,0,5,,,,,4,,,,67,0
38015,note_on,,,,,2,0,8,,,,,7,,,,51,108
38016,note_on,,,,,0,0,2,,,,,1,,,,51,0
38016,note_on,,,,,46,0,2,,,,,1,,,,63,0
38016,note_on,,,,,2,0,5,,,,,4,,,,68,108
38018,note_on,,,,,0,0,2,,,,,1,,,,63,108
38018,note_on,,,,,2,0,2,,,,,1,,,,51,108
38019,note_on,,,,,46,0,6,,,,,5,,,,63,0
38019,note_on,,,,,0,0,6,,,,,5,,,,61,0
38020,note_on,,,,,46,0,9,,,,,8,,,,39,0
38021,note_on,,,,,0,0,6,,,,,5,,,,63,108
38021,note_on,,,,,2,0,6,,,,,5,,,,61,108
38022,note_on,,,,,2,0,9,,,,,8,,,,39,108
38040,note_on,,,,,0,0,5,,,,,4,,,,67,108
38040,note_on,,,,,24,0,5,,,,,4,,,,68,0
38061,note_on,,,,,48,0,7,,,,,6,,,,58,0
38062,note_on,,,,,0,0,1,,,,,0,,,,73,0
38062,note_on,,,,,48,0,1,,,,,0,,,,79,0
38063,note_on,,,,,48,0,8,,,,,7,,,,51,0
38064,note_on,,,,,24,0,5,,,,,4,,,,67,0
38064,note_on,,,,,0,0,5,,,,,4,,,,68,108
38066,note_on,,,,,48,0,2,,,,,1,,,,63,0
38066,note_on,,,,,0,0,2,,,,,1,,,,51,0
38069,note_on,,,,,48,0,6,,,,,5,,,,63,0
38069,note_on,,,,,0,0,6,,,,,5,,,,61,0
38070,note_on,,,,,48,0,9,,,,,8,,,,39,0
38088,note_on,,,,,0,0,5,,,,,4,,,,67,108
38088,note_on,,,,,24,0,5,,,,,4,,,,68,0
38112,note_on,,,,,24,0,5,,,,,4,,,,67,0
38112,note_on,,,,,0,0,5,,,,,4,,,,68,108
38136,note_on,,,,,24,0,5,,,,,4,,,,68,0
38136,note_on,,,,,0,0,5,,,,,4,,,,67,108
38160,note_on,,,,,24,0,5,,,,,4,,,,67,0
38160,note_on,,,,,0,0,5,,,,,4,,,,65,108
38184,note_on,,,,,24,0,5,,,,,4,,,,65,0
38184,note_on,,,,,0,0,5,,,,,4,,,,67,108
38205,note_on,,,,,144,0,7,,,,,6,,,,56,108
38206,note_on,,,,,22,0,5,,,,,4,,,,67,0
38206,note_on,,,,,0,0,1,,,,,0,,,,80,108
38206,note_on,,,,,144,0,1,,,,,0,,,,72,108
38207,note_on,,,,,144,0,8,,,,,7,,,,44,108
38208,note_on,,,,,2,0,5,,,,,4,,,,68,108
38210,note_on,,,,,0,0,2,,,,,1,,,,63,108
38210,note_on,,,,,144,0,2,,,,,1,,,,51,108
38213,note_on,,,,,144,0,6,,,,,5,,,,60,108
38213,note_on,,,,,0,0,6,,,,,5,,,,63,108
38214,note_on,,,,,144,0,9,,,,,8,,,,32,108
38253,note_on,,,,,48,0,7,,,,,6,,,,56,0
38254,note_on,,,,,48,0,1,,,,,0,,,,80,0
38254,note_on,,,,,0,0,1,,,,,0,,,,72,0
38255,note_on,,,,,48,0,8,,,,,7,,,,44,0
38258,note_on,,,,,48,0,2,,,,,1,,,,63,0
38258,note_on,,,,,0,0,2,,,,,1,,,,51,0
38261,note_on,,,,,0,0,6,,,,,5,,,,60,0
38261,note_on,,,,,48,0,6,,,,,5,,,,63,0
38262,note_on,,,,,48,0,9,,,,,8,,,,32,0
38368,note_on,,,,,160,0,5,,,,,4,,,,68,0
38589,note_on,,,,,336,0,7,,,,,6,,,,60,45
38591,note_on,,,,,336,0,8,,,,,7,,,,44,45
38592,set_tempo,,,,,2304,1,0,,419580,,,,,,,,
38592,note_on,,,,,224,0,5,,,,,4,,,,72,45
38597,note_on,,,,,336,0,6,,,,,5,,,,68,45
38598,note_on,,,,,336,0,9,,,,,8,,,,32,45
38733,note_on,,,,,144,0,7,,,,,6,,,,60,0
38733,note_on,,,,,0,0,7,,,,,6,,,,62,45
38735,note_on,,,,,144,0,8,,,,,7,,,,44,0
38735,note_on,,,,,0,0,8,,,,,7,,,,46,45
38742,note_on,,,,,144,0,9,,,,,8,,,,32,0
38742,note_on,,,,,0,0,9,,,,,8,,,,34,45
38781,note_on,,,,,0,0,7,,,,,6,,,,63,45
38781,note_on,,,,,48,0,7,,,,,6,,,,62,0
38783,note_on,,,,,48,0,8,,,,,7,,,,46,0
38783,note_on,,,,,0,0,8,,,,,7,,,,48,45
38790,note_on,,,,,0,0,9,,,,,8,,,,36,45
38790,note_on,,,,,48,0,9,,,,,8,,,,34,0
38973,note_on,,,,,192,0,7,,,,,6,,,,63,0
38973,note_on,,,,,0,0,7,,,,,6,,,,65,45
38975,note_on,,,,,0,0,8,,,,,7,,,,50,45
38975,note_on,,,,,192,0,8,,,,,7,,,,48,0
38982,note_on,,,,,192,0,9,,,,,8,,,,36,0
38982,note_on,,,,,0,0,9,,,,,8,,,,38,45
39120,note_on,,,,,528,0,5,,,,,4,,,,72,0
39125,note_on,,,,,528,0,6,,,,,5,,,,68,0
39133,note_on,,,,,160,0,7,,,,,6,,,,65,0
39135,note_on,,,,,160,0,8,,,,,7,,,,50,0
39142,note_on,,,,,160,0,9,,,,,8,,,,38,0
39165,note_on,,,,,32,0,7,,,,,6,,,,67,45
39167,note_on,,,,,32,0,8,,,,,7,,,,51,45
39168,note_on,,,,,48,0,5,,,,,4,,,,70,45
39173,note_on,,,,,48,0,6,,,,,5,,,,67,45
39174,note_on,,,,,32,0,9,,,,,8,,,,39,45
39357,note_on,,,,,192,0,7,,,,,6,,,,67,0
39357,note_on,,,,,0,0,7,,,,,6,,,,65,45
39359,note_on,,,,,0,0,8,,,,,7,,,,47,45
39359,note_on,,,,,192,0,8,,,,,7,,,,51,0
39360,note_on,,,,,0,0,5,,,,,4,,,,74,45
39360,note_on,,,,,192,0,5,,,,,4,,,,70,0
39365,note_on,,,,,0,0,6,,,,,5,,,,68,45
39365,note_on,,,,,192,0,6,,,,,5,,,,67,0
39366,note_on,,,,,192,0,9,,,,,8,,,,39,0
39366,note_on,,,,,0,0,9,,,,,8,,,,35,45
39549,note_on,,,,,192,0,7,,,,,6,,,,65,0
39549,note_on,,,,,0,0,7,,,,,6,,,,63,45
39551,note_on,,,,,192,0,8,,,,,7,,,,47,0
39551,note_on,,,,,0,0,8,,,,,7,,,,48,45
39552,note_on,,,,,192,0,5,,,,,4,,,,74,0
39552,note_on,,,,,0,0,5,,,,,4,,,,75,45
39557,note_on,,,,,0,0,6,,,,,5,,,,67,45
39557,note_on,,,,,192,0,6,,,,,5,,,,68,0
39558,note_on,,,,,0,0,9,,,,,8,,,,36,45
39558,note_on,,,,,192,0,9,,,,,8,,,,35,0
39709,note_on,,,,,160,0,7,,,,,6,,,,63,0
39711,note_on,,,,,160,0,8,,,,,7,,,,48,0
39712,note_on,,,,,160,0,5,,,,,4,,,,75,0
39717,note_on,,,,,160,0,6,,,,,5,,,,67,0
39718,note_on,,,,,160,0,9,,,,,8,,,,36,0
39741,note_on,,,,,32,0,7,,,,,6,,,,63,45
39743,note_on,,,,,32,0,8,,,,,7,,,,44,45
39744,note_on,,,,,32,0,5,,,,,4,,,,72,45
39749,note_on,,,,,32,0,6,,,,,5,,,,68,45
39750,note_on,,,,,32,0,9,,,,,8,,,,32,45
39885,note_on,,,,,0,0,7,,,,,6,,,,60,45
39885,note_on,,,,,144,0,7,,,,,6,,,,63,0
39888,note_on,,,,,0,0,5,,,,,4,,,,68,45
39888,note_on,,,,,144,0,5,,,,,4,,,,72,0
39893,note_on,,,,,144,0,6,,,,,5,,,,68,0
39893,note_on,,,,,0,0,6,,,,,5,,,,65,45
39903,note_on,,,,,160,0,8,,,,,7,,,,44,0
39910,note_on,,,,,160,0,9,,,,,8,,,,32,0
39931,note_on,,,,,46,0,7,,,,,6,,,,60,0
39933,note_on,,,,,2,0,7,,,,,6,,,,58,45
39934,note_on,,,,,46,0,5,,,,,4,,,,68,0
39935,note_on,,,,,32,0,8,,,,,7,,,,46,45
39936,note_on,,,,,2,0,5,,,,,4,,,,67,45
39939,note_on,,,,,46,0,6,,,,,5,,,,65,0
39941,note_on,,,,,2,0,6,,,,,5,,,,63,45
39942,note_on,,,,,32,0,9,,,,,8,,,,34,45
40095,note_on,,,,,160,0,8,,,,,7,,,,46,0
40102,note_on,,,,,160,0,9,,,,,8,,,,34,0
40125,note_on,,,,,192,0,7,,,,,6,,,,58,0
40125,note_on,,,,,0,0,7,,,,,6,,,,56,45
40127,note_on,,,,,32,0,8,,,,,7,,,,46,45
40128,note_on,,,,,192,0,5,,,,,4,,,,67,0
40128,note_on,,,,,0,0,5,,,,,4,,,,65,45
40133,note_on,,,,,192,0,6,,,,,5,,,,63,0
40133,note_on,,,,,0,0,6,,,,,5,,,,62,45
40134,note_on,,,,,32,0,9,,,,,8,,,,34,45
40285,note_on,,,,,160,0,7,,,,,6,,,,56,0
40287,note_on,,,,,160,0,8,,,,,7,,,,46,0
40288,note_on,,,,,160,0,5,,,,,4,,,,65,0
40293,note_on,,,,,160,0,6,,,,,5,,,,62,0
40294,note_on,,,,,160,0,9,,,,,8,,,,34,0
40317,note_on,,,,,32,0,7,,,,,6,,,,55,45
40319,note_on,,,,,32,0,8,,,,,7,,,,51,45
40320,note_on,,,,,32,0,5,,,,,4,,,,63,45
40325,note_on,,,,,32,0,6,,,,,5,,,,63,45
40326,note_on,,,,,32,0,9,,,,,8,,,,39,45
40477,note_on,,,,,160,0,7,,,,,6,,,,55,0
40479,note_on,,,,,160,0,8,,,,,7,,,,51,0
40480,note_on,,,,,160,0,5,,,,,4,,,,63,0
40485,note_on,,,,,160,0,6,,,,,5,,,,63,0
40486,note_on,,,,,160,0,9,,,,,8,,,,39,0
40511,note_on,,,,,32,0,8,,,,,7,,,,65,92
40512,set_tempo,,,,,1920,1,0,,400000,,,,,,,,
40518,note_on,,,,,32,0,9,,,,,8,,,,53,92
40559,note_on,,,,,48,0,8,,,,,7,,,,65,0
40559,note_on,,,,,0,0,8,,,,,7,,,,63,92
40566,note_on,,,,,48,0,9,,,,,8,,,,53,0
40566,note_on,,,,,0,0,9,,,,,8,,,,51,92
40606,note_on,,,,,0,0,1,,,,,0,,,,79,92
40606,note_on,,,,,2352,0,1,,,,,0,,,,75,92
40607,note_on,,,,,0,0,8,,,,,7,,,,65,92
40607,note_on,,,,,48,0,8,,,,,7,,,,63,0
40608,note_on,,,,,128,0,5,,,,,4,,,,79,92
40613,note_on,,,,,128,0,6,,,,,5,,,,75,92
40614,note_on,,,,,48,0,9,,,,,8,,,,51,0
40614,note_on,,,,,0,0,9,,,,,8,,,,53,92
40638,note_on,,,,,0,0,1,,,,,0,,,,75,0
40638,note_on,,,,,32,0,1,,,,,0,,,,79,0
40640,note_on,,,,,32,0,5,,,,,4,,,,79,0
40645,note_on,,,,,32,0,6,,,,,5,,,,75,0
40655,note_on,,,,,0,0,8,,,,,7,,,,63,92
40655,note_on,,,,,48,0,8,,,,,7,,,,65,0
40662,note_on,,,,,48,0,9,,,,,8,,,,53,0
40662,note_on,,,,,0,0,9,,,,,8,,,,51,92
40702,note_on,,,,,0,0,1,,,,,0,,,,79,92
40702,note_on,,,,,64,0,1,,,,,0,,,,75,92
40703,note_on,,,,,48,0,8,,,,,7,,,,63,0
40703,note_on,,,,,0,0,8,,,,,7,,,,65,92
40704,note_on,,,,,64,0,5,,,,,4,,,,79,92
40709,note_on,,,,,64,0,6,,,,,5,,,,75,92
40710,note_on,,,,,48,0,9,,,,,8,,,,51,0
40710,note_on,,,,,0,0,9,,,,,8,,,,53,92
40734,note_on,,,,,0,0,1,,,,,0,,,,75,0
40734,note_on,,,,,32,0,1,,,,,0,,,,79,0
40736,note_on,,,,,32,0,5,,,,,4,,,,79,0
40741,note_on,,,,,32,0,6,,,,,5,,,,75,0
40751,note_on,,,,,48,0,8,,,,,7,,,,65,0
40751,note_on,,,,,0,0,8,,,,,7,,,,63,92
40758,note_on,,,,,0,0,9,,,,,8,,,,51,92
40758,note_on,,,,,48,0,9,,,,,8,,,,53,0
40798,note_on,,,,,0,0,1,,,,,0,,,,79,92
40798,note_on,,,,,64,0,1,,,,,0,,,,75,92
40799,note_on,,,,,48,0,8,,,,,7,,,,63,0
40799,note_on,,,,,0,0,8,,,,,7,,,,62,92
40800,note_on,,,,,64,0,5,,,,,4,,,,79,92
40805,note_on,,,,,64,0,6,,,,,5,,,,75,92
40806,note_on,,,,,48,0,9,,,,,8,,,,51,0
40806,note_on,,,,,0,0,9,,,,,8,,,,50,92
40830,note_on,,,,,32,0,1,,,,,0,,,,79,0
40830,note_on,,,,,0,0,1,,,,,0,,,,75,0
40832,note_on,,,,,32,0,5,,,,,4,,,,79,0
40837,note_on,,,,,32,0,6,,,,,5,,,,75,0
40847,note_on,,,,,0,0,8,,,,,7,,,,60,92
40847,note_on,,,,,48,0,8,,,,,7,,,,62,0
40854,note_on,,,,,0,0,9,,,,,8,,,,48,92
40854,note_on,,,,,48,0,9,,,,,8,,,,50,0
40893,note_on,,,,,46,0,8,,,,,7,,,,60,0
40893,note_on,,,,,416,0,7,,,,,6,,,,67,92
40894,note_on,,,,,64,0,1,,,,,0,,,,75,92
40894,note_on,,,,,0,0,1,,,,,0,,,,79,92
40895,note_on,,,,,2,0,8,,,,,7,,,,59,92
40896,note_on,,,,,64,0,5,,,,,4,,,,79,92
40898,note_on,,,,,2640,0,2,,,,,1,,,,55,92
40898,note_on,,,,,0,0,2,,,,,1,,,,67,92
40900,note_on,,,,,46,0,9,,,,,8,,,,48,0
40901,note_on,,,,,64,0,6,,,,,5,,,,75,92
40902,note_on,,,,,2,0,9,,,,,8,,,,47,92
40990,note_on,,,,,0,0,1,,,,,0,,,,77,92
40990,note_on,,,,,0,0,1,,,,,0,,,,74,92
40990,note_on,,,,,0,0,1,,,,,0,,,,75,0
40990,note_on,,,,,96,0,1,,,,,0,,,,79,0
40992,note_on,,,,,0,0,5,,,,,4,,,,77,92
40992,note_on,,,,,96,0,5,,,,,4,,,,79,0
40997,note_on,,,,,96,0,6,,,,,5,,,,75,0
40997,note_on,,,,,0,0,6,,,,,5,,,,74,92
41055,note_on,,,,,160,0,8,,,,,7,,,,59,0
41062,note_on,,,,,160,0,9,,,,,8,,,,47,0
41086,note_on,,,,,0,0,1,,,,,0,,,,75,92
41086,note_on,,,,,0,0,1,,,,,0,,,,72,92
41086,note_on,,,,,0,0,1,,,,,0,,,,74,0
41086,note_on,,,,,96,0,1,,,,,0,,,,77,0
41086,note_on,,,,,94,0,5,,,,,4,,,,77,0
41087,note_on,,,,,32,0,8,,,,,7,,,,62,92
41088,note_on,,,,,2,0,5,,,,,4,,,,75,92
41091,note_on,,,,,94,0,6,,,,,5,,,,74,0
41093,note_on,,,,,2,0,6,,,,,5,,,,72,92
41094,note_on,,,,,32,0,9,,,,,8,,,,50,92
41120,note_on,,,,,32,0,5,,,,,4,,,,75,0
41125,note_on,,,,,32,0,6,,,,,5,,,,72,0
41135,note_on,,,,,0,0,8,,,,,7,,,,60,92
41135,note_on,,,,,48,0,8,,,,,7,,,,62,0
41142,note_on,,,,,48,0,9,,,,,8,,,,50,0
41142,note_on,,,,,0,0,9,,,,,8,,,,48,92
41180,note_on,,,,,94,0,1,,,,,0,,,,75,0
41180,note_on,,,,,0,0,1,,,,,0,,,,72,0
41182,note_on,,,,,0,0,1,,,,,0,,,,75,92
41182,note_on,,,,,2,0,1,,,,,0,,,,72,92
41183,note_on,,,,,0,0,8,,,,,7,,,,62,92
41183,note_on,,,,,48,0,8,,,,,7,,,,60,0
41184,note_on,,,,,64,0,5,,,,,4,,,,75,92
41189,note_on,,,,,64,0,6,,,,,5,,,,72,92
41190,note_on,,,,,48,0,9,,,,,8,,,,48,0
41190,note_on,,,,,0,0,9,,,,,8,,,,50,92
41214,note_on,,,,,0,0,1,,,,,0,,,,72,0
41214,note_on,,,,,32,0,1,,,,,0,,,,75,0
41216,note_on,,,,,32,0,5,,,,,4,,,,75,0
41221,note_on,,,,,32,0,6,,,,,5,,,,72,0
41229,note_on,,,,,336,0,7,,,,,6,,,,67,0
41231,note_on,,,,,48,0,8,,,,,7,,,,62,0
41231,note_on,,,,,0,0,8,,,,,7,,,,60,92
41238,note_on,,,,,0,0,9,,,,,8,,,,48,92
41238,note_on,,,,,48,0,9,,,,,8,,,,50,0
41278,note_on,,,,,64,0,1,,,,,0,,,,72,92
41278,note_on,,,,,0,0,1,,,,,0,,,,75,92
41279,note_on,,,,,48,0,8,,,,,7,,,,60,0
41279,note_on,,,,,0,0,8,,,,,7,,,,62,92
41280,note_on,,,,,64,0,5,,,,,4,,,,75,92
41285,note_on,,,,,64,0,6,,,,,5,,,,72,92
41286,note_on,,,,,0,0,9,,,,,8,,,,50,92
41286,note_on,,,,,48,0,9,,,,,8,,,,48,0
41310,note_on,,,,,0,0,1,,,,,0,,,,72,0
41310,note_on,,,,,32,0,1,,,,,0,,,,75,0
41312,note_on,,,,,32,0,5,,,,,4,,,,75,0
41317,note_on,,,,,32,0,6,,,,,5,,,,72,0
41327,note_on,,,,,0,0,8,,,,,7,,,,60,92
41327,note_on,,,,,48,0,8,,,,,7,,,,62,0
41334,note_on,,,,,0,0,9,,,,,8,,,,48,92
41334,note_on,,,,,48,0,9,,,,,8,,,,50,0
41374,note_on,,,,,0,0,1,,,,,0,,,,75,92
41374,note_on,,,,,64,0,1,,,,,0,,,,72,92
41375,note_on,,,,,48,0,8,,,,,7,,,,60,0
41375,note_on,,,,,0,0,8,,,,,7,,,,58,92
41376,note_on,,,,,64,0,5,,,,,4,,,,75,92
41381,note_on,,,,,64,0,6,,,,,5,,,,72,92
41382,note_on,,,,,0,0,9,,,,,8,,,,46,92
41382,note_on,,,,,48,0,9,,,,,8,,,,48,0
41406,note_on,,,,,0,0,1,,,,,0,,,,72,0
41406,note_on,,,,,32,0,1,,,,,0,,,,75,0
41408,note_on,,,,,32,0,5,,,,,4,,,,75,0
41413,note_on,,,,,32,0,6,,,,,5,,,,72,0
41423,note_on,,,,,48,0,8,,,,,7,,,,58,0
41423,note_on,,,,,0,0,8,,,,,7,,,,56,92
41426,note_on,,,,,528,0,2,,,,,1,,,,67,0
41426,note_on,,,,,0,0,2,,,,,1,,,,55,0
41430,note_on,,,,,48,0,9,,,,,8,,,,46,0
41430,note_on,,,,,0,0,9,,,,,8,,,,44,92
41469,note_on,,,,,240,0,7,,,,,6,,,,63,92
41469,note_on,,,,,46,0,8,,,,,7,,,,56,0
41470,note_on,,,,,0,0,1,,,,,0,,,,75,92
41470,note_on,,,,,64,0,1,,,,,0,,,,72,92
41471,note_on,,,,,2,0,8,,,,,7,,,,55,92
41472,note_on,,,,,64,0,5,,,,,4,,,,75,92
41474,note_on,,,,,0,0,2,,,,,1,,,,63,92
41474,note_on,,,,,48,0,2,,,,,1,,,,51,92
41476,note_on,,,,,46,0,9,,,,,8,,,,44,0
41477,note_on,,,,,64,0,6,,,,,5,,,,72,92
41478,note_on,,,,,2,0,9,,,,,8,,,,43,92
41566,note_on,,,,,96,0,1,,,,,0,,,,75,0
41566,note_on,,,,,0,0,1,,,,,0,,,,72,0
41566,note_on,,,,,0,0,1,,,,,0,,,,70,92
41566,note_on,,,,,0,0,1,,,,,0,,,,73,92
41568,note_on,,,,,96,0,5,,,,,4,,,,75,0
41568,note_on,,,,,0,0,5,,,,,4,,,,73,92
41573,note_on,,,,,0,0,6,,,,,5,,,,70,92
41573,note_on,,,,,96,0,6,,,,,5,,,,72,0
41631,note_on,,,,,160,0,8,,,,,7,,,,55,0
41638,note_on,,,,,160,0,9,,,,,8,,,,43,0
41662,note_on,,,,,0,0,1,,,,,0,,,,72,92
41662,note_on,,,,,94,0,5,,,,,4,,,,73,0
41662,note_on,,,,,0,0,1,,,,,0,,,,68,92
41662,note_on,,,,,0,0,1,,,,,0,,,,70,0
41662,note_on,,,,,96,0,1,,,,,0,,,,73,0
41663,note_on,,,,,32,0,8,,,,,7,,,,58,92
41664,note_on,,,,,2,0,5,,,,,4,,,,72,92
41667,note_on,,,,,94,0,6,,,,,5,,,,70,0
41669,note_on,,,,,2,0,6,,,,,5,,,,68,92
41670,note_on,,,,,32,0,9,,,,,8,,,,46,92
41696,note_on,,,,,32,0,5,,,,,4,,,,72,0
41701,note_on,,,,,32,0,6,,,,,5,,,,68,0
41711,note_on,,,,,48,0,8,,,,,7,,,,58,0
41711,note_on,,,,,0,0,8,,,,,7,,,,56,92
41718,note_on,,,,,48,0,9,,,,,8,,,,46,0
41718,note_on,,,,,0,0,9,,,,,8,,,,44,92
41756,note_on,,,,,94,0,1,,,,,0,,,,72,0
41756,note_on,,,,,0,0,1,,,,,0,,,,68,0
41758,note_on,,,,,2,0,1,,,,,0,,,,80,92
41758,note_on,,,,,0,0,1,,,,,0,,,,84,92
41759,note_on,,,,,48,0,8,,,,,7,,,,56,0
41759,note_on,,,,,0,0,8,,,,,7,,,,58,92
41760,note_on,,,,,64,0,5,,,,,4,,,,72,92
41765,note_on,,,,,64,0,6,,,,,5,,,,68,92
41766,note_on,,,,,0,0,9,,,,,8,,,,46,92
41766,note_on,,,,,48,0,9,,,,,8,,,,44,0
41790,note_on,,,,,32,0,1,,,,,0,,,,84,0
41790,note_on,,,,,0,0,1,,,,,0,,,,80,0
41792,note_on,,,,,32,0,5,,,,,4,,,,72,0
41797,note_on,,,,,32,0,6,,,,,5,,,,68,0
41805,note_on,,,,,336,0,7,,,,,6,,,,63,0
41807,note_on,,,,,48,0,8,,,,,7,,,,58,0
41807,note_on,,,,,0,0,8,,,,,7,,,,56,92
41814,note_on,,,,,48,0,9,,,,,8,,,,46,0
41814,note_on,,,,,0,0,9,,,,,8,,,,44,92
41854,note_on,,,,,64,0,1,,,,,0,,,,80,92
41854,note_on,,,,,0,0,1,,,,,0,,,,84,92
41855,note_on,,,,,0,0,8,,,,,7,,,,58,92
41855,note_on,,,,,48,0,8,,,,,7,,,,56,0
41856,note_on,,,,,64,0,5,,,,,4,,,,72,92
41861,note_on,,,,,64,0,6,,,,,5,,,,68,92
41862,note_on,,,,,48,0,9,,,,,8,,,,44,0
41862,note_on,,,,,0,0,9,,,,,8,,,,46,92
41886,note_on,,,,,0,0,1,,,,,0,,,,80,0
41886,note_on,,,,,32,0,1,,,,,0,,,,84,0
41888,note_on,,,,,32,0,5,,,,,4,,,,72,0
41893,note_on,,,,,32,0,6,,,,,5,,,,68,0
41903,note_on,,,,,48,0,8,,,,,7,,,,58,0
41903,note_on,,,,,0,0,8,,,,,7,,,,56,92
41910,note_on,,,,,48,0,9,,,,,8,,,,46,0
41910,note_on,,,,,0,0,9,,,,,8,,,,44,92
41950,note_on,,,,,64,0,1,,,,,0,,,,80,92
41950,note_on,,,,,0,0,1,,,,,0,,,,84,92
41951,note_on,,,,,0,0,8,,,,,7,,,,55,92
41951,note_on,,,,,48,0,8,,,,,7,,,,56,0
41952,note_on,,,,,64,0,5,,,,,4,,,,72,92
41957,note_on,,,,,64,0,6,,,,,5,,,,68,92
41958,note_on,,,,,0,0,9,,,,,8,,,,43,92
41958,note_on,,,,,48,0,9,,,,,8,,,,44,0
41982,note_on,,,,,32,0,1,,,,,0,,,,84,0
41982,note_on,,,,,0,0,1,,,,,0,,,,80,0
41984,note_on,,,,,32,0,5,,,,,4,,,,72,0
41989,note_on,,,,,32,0,6,,,,,5,,,,68,0
41999,note_on,,,,,0,0,8,,,,,7,,,,53,92
41999,note_on,,,,,48,0,8,,,,,7,,,,55,0
42002,note_on,,,,,528,0,2,,,,,1,,,,63,0
42002,note_on,,,,,0,0,2,,,,,1,,,,51,0
42006,note_on,,,,,48,0,9,,,,,8,,,,43,0
42006,note_on,,,,,0,0,9,,,,,8,,,,41,92
42045,note_on,,,,,46,0,8,,,,,7,,,,53,0
42045,note_on,,,,,240,0,7,,,,,6,,,,60,92
42046,note_on,,,,,64,0,1,,,,,0,,,,80,92
42046,note_on,,,,,0,0,1,,,,,0,,,,84,92
42047,note_on,,,,,2,0,8,,,,,7,,,,52,92
42048,note_on,,,,,64,0,5,,,,,4,,,,72,92
42052,note_on,,,,,46,0,9,,,,,8,,,,41,0
42053,note_on,,,,,64,0,6,,,,,5,,,,68,92
42054,note_on,,,,,2,0,9,,,,,8,,,,40,92
42142,note_on,,,,,96,0,1,,,,,0,,,,84,0
42142,note_on,,,,,0,0,1,,,,,0,,,,82,92
42142,note_on,,,,,0,0,1,,,,,0,,,,79,92
42142,note_on,,,,,0,0,1,,,,,0,,,,80,0
42144,note_on,,,,,0,0,5,,,,,4,,,,70,92
42144,note_on,,,,,96,0,5,,,,,4,,,,72,0
42149,note_on,,,,,0,0,6,,,,,5,,,,67,92
42149,note_on,,,,,96,0,6,,,,,5,,,,68,0
42238,note_on,,,,,96,0,1,,,,,0,,,,82,0
42238,note_on,,,,,0,0,1,,,,,0,,,,79,0
42238,note_on,,,,,0,0,1,,,,,0,,,,77,92
42238,note_on,,,,,0,0,1,,,,,0,,,,80,92
42238,note_on,,,,,94,0,5,,,,,4,,,,70,0
42239,note_on,,,,,192,0,8,,,,,7,,,,52,0
42239,note_on,,,,,0,0,8,,,,,7,,,,53,92
42240,note_on,,,,,2,0,5,,,,,4,,,,68,92
42243,note_on,,,,,94,0,6,,,,,5,,,,67,0
42245,note_on,,,,,2,0,6,,,,,5,,,,65,92
42246,note_on,,,,,0,0,9,,,,,8,,,,41,92
42246,note_on,,,,,192,0,9,,,,,8,,,,40,0
42272,note_on,,,,,32,0,5,,,,,4,,,,68,0
42277,note_on,,,,,32,0,6,,,,,5,,,,65,0
42301,note_on,,,,,256,0,7,,,,,6,,,,60,0
42332,note_on,,,,,0,0,1,,,,,0,,,,77,0
42332,note_on,,,,,94,0,1,,,,,0,,,,80,0
42333,note_on,,,,,32,0,7,,,,,6,,,,60,92
42333,note_on,,,,,94,0,8,,,,,7,,,,53,0
42334,note_on,,,,,2,0,1,,,,,0,,,,72,92
42334,note_on,,,,,0,0,1,,,,,0,,,,80,92
42335,note_on,,,,,2,0,8,,,,,7,,,,51,92
42336,note_on,,,,,64,0,5,,,,,4,,,,80,92
42338,note_on,,,,,336,0,2,,,,,1,,,,65,92
42340,note_on,,,,,94,0,9,,,,,8,,,,41,0
42341,note_on,,,,,64,0,6,,,,,5,,,,77,92
42342,note_on,,,,,2,0,9,,,,,8,,,,39,92
42366,note_on,,,,,0,0,1,,,,,0,,,,72,0
42366,note_on,,,,,32,0,1,,,,,0,,,,80,0
42368,note_on,,,,,32,0,5,,,,,4,,,,80,0
42373,note_on,,,,,32,0,6,,,,,5,,,,77,0
42427,note_on,,,,,94,0,7,,,,,6,,,,60,0
42429,note_on,,,,,94,0,8,,,,,7,,,,51,0
42429,note_on,,,,,2,0,7,,,,,6,,,,65,92
42430,note_on,,,,,64,0,1,,,,,0,,,,77,92
42430,note_on,,,,,0,0,1,,,,,0,,,,80,92
42431,note_on,,,,,2,0,8,,,,,7,,,,50,92
42432,note_on,,,,,64,0,5,,,,,4,,,,80,92
42432,note_on,,,,,94,0,2,,,,,1,,,,65,0
42434,note_on,,,,,2,0,2,,,,,1,,,,65,92
42436,note_on,,,,,94,0,9,,,,,8,,,,39,0
42437,note_on,,,,,64,0,6,,,,,5,,,,77,92
42438,note_on,,,,,2,0,9,,,,,8,,,,38,92
42462,note_on,,,,,0,0,1,,,,,0,,,,77,0
42462,note_on,,,,,32,0,1,,,,,0,,,,80,0
42464,note_on,,,,,32,0,5,,,,,4,,,,80,0
42469,note_on,,,,,32,0,6,,,,,5,,,,77,0
42523,note_on,,,,,94,0,7,,,,,6,,,,65,0
42525,note_on,,,,,2,0,7,,,,,6,,,,63,92
42525,note_on,,,,,94,0,8,,,,,7,,,,50,0
42526,note_on,,,,,0,0,1,,,,,0,,,,80,92
42526,note_on,,,,,64,0,1,,,,,0,,,,75,92
42527,note_on,,,,,2,0,8,,,,,7,,,,48,92
42528,note_on,,,,,94,0,2,,,,,1,,,,65,0
42528,note_on,,,,,64,0,5,,,,,4,,,,80,92
42530,note_on,,,,,2,0,2,,,,,1,,,,65,92
42532,note_on,,,,,94,0,9,,,,,8,,,,38,0
42533,note_on,,,,,64,0,6,,,,,5,,,,77,92
42534,note_on,,,,,2,0,9,,,,,8,,,,36,92
42558,note_on,,,,,32,0,1,,,,,0,,,,80,0
42558,note_on,,,,,0,0,1,,,,,0,,,,75,0
42560,note_on,,,,,32,0,5,,,,,4,,,,80,0
42565,note_on,,,,,32,0,6,,,,,5,,,,77,0
42619,note_on,,,,,94,0,7,,,,,6,,,,63,0
42621,note_on,,,,,94,0,8,,,,,7,,,,48,0
42621,note_on,,,,,2,0,7,,,,,6,,,,62,92
42622,note_on,,,,,0,0,1,,,,,0,,,,80,92
42622,note_on,,,,,64,0,1,,,,,0,,,,74,92
42623,note_on,,,,,2,0,8,,,,,7,,,,46,92
42624,note_on,,,,,94,0,2,,,,,1,,,,65,0
42624,note_on,,,,,64,0,5,,,,,4,,,,80,92
42626,note_on,,,,,2,0,2,,,,,1,,,,58,92
42626,note_on,,,,,0,0,2,,,,,1,,,,65,92
42628,note_on,,,,,94,0,9,,,,,8,,,,36,0
42629,note_on,,,,,64,0,6,,,,,5,,,,77,92
42630,note_on,,,,,2,0,9,,,,,8,,,,34,92
42670,note_on,,,,,46,0,5,,,,,4,,,,80,0
42672,note_on,,,,,2,0,5,,,,,4,,,,79,92
42675,note_on,,,,,46,0,6,,,,,5,,,,77,0
42677,note_on,,,,,2,0,6,,,,,5,,,,75,92
42715,note_on,,,,,94,0,7,,,,,6,,,,62,0
42717,note_on,,,,,2,0,7,,,,,6,,,,62,92
42717,note_on,,,,,94,0,8,,,,,7,,,,46,0
42718,note_on,,,,,46,0,5,,,,,4,,,,79,0
42719,note_on,,,,,2,0,8,,,,,7,,,,46,92
42720,note_on,,,,,2,0,5,,,,,4,,,,77,92
42723,note_on,,,,,46,0,6,,,,,5,,,,75,0
42724,note_on,,,,,94,0,9,,,,,8,,,,34,0
42725,note_on,,,,,2,0,6,,,,,5,,,,74,92
42726,note_on,,,,,2,0,9,,,,,8,,,,34,92
42766,note_on,,,,,46,0,5,,,,,4,,,,77,0
42768,note_on,,,,,2,0,5,,,,,4,,,,75,92
42771,note_on,,,,,46,0,6,,,,,5,,,,74,0
42773,note_on,,,,,2,0,6,,,,,5,,,,72,92
42811,note_on,,,,,94,0,7,,,,,6,,,,62,0
42813,note_on,,,,,2,0,7,,,,,6,,,,62,92
42813,note_on,,,,,94,0,8,,,,,7,,,,46,0
42814,note_on,,,,,46,0,5,,,,,4,,,,75,0
42815,note_on,,,,,2,0,8,,,,,7,,,,46,92
42816,note_on,,,,,2,0,5,,,,,4,,,,74,92
42819,note_on,,,,,46,0,6,,,,,5,,,,72,0
42820,note_on,,,,,94,0,9,,,,,8,,,,34,0
42821,note_on,,,,,2,0,6,,,,,5,,,,70,92
42822,note_on,,,,,2,0,9,,,,,8,,,,34,92
42862,note_on,,,,,46,0,5,,,,,4,,,,74,0
42864,note_on,,,,,2,0,5,,,,,4,,,,72,92
42867,note_on,,,,,46,0,6,,,,,5,,,,70,0
42869,note_on,,,,,2,0,6,,,,,5,,,,68,92
42907,note_on,,,,,94,0,7,,,,,6,,,,62,0
42909,note_on,,,,,94,0,8,,,,,7,,,,46,0
42909,note_on,,,,,2,0,7,,,,,6,,,,62,92
42910,note_on,,,,,46,0,5,,,,,4,,,,72,0
42911,note_on,,,,,2,0,8,,,,,7,,,,46,92
42912,note_on,,,,,2,0,5,,,,,4,,,,70,92
42915,note_on,,,,,46,0,6,,,,,5,,,,68,0
42916,note_on,,,,,94,0,9,,,,,8,,,,34,0
42917,note_on,,,,,2,0,6,,,,,5,,,,67,92
42918,note_on,,,,,2,0,9,,,,,8,,,,34,92
42958,note_on,,,,,336,0,1,,,,,0,,,,80,0
42958,note_on,,,,,0,0,1,,,,,0,,,,74,0
42958,note_on,,,,,46,0,5,,,,,4,,,,70,0
42960,note_on,,,,,2,0,5,,,,,4,,,,68,92
42962,note_on,,,,,0,0,2,,,,,1,,,,58,0
42962,note_on,,,,,336,0,2,,,,,1,,,,65,0
42963,note_on,,,,,46,0,6,,,,,5,,,,67,0
42965,note_on,,,,,2,0,6,,,,,5,,,,65,92
43003,note_on,,,,,94,0,7,,,,,6,,,,62,0
43005,note_on,,,,,2,0,7,,,,,6,,,,63,92
43005,note_on,,,,,94,0,8,,,,,7,,,,46,0
43006,note_on,,,,,46,0,5,,,,,4,,,,68,0
43006,note_on,,,,,48,0,1,,,,,0,,,,75,92
43006,note_on,,,,,0,0,1,,,,,0,,,,79,92
43007,note_on,,,,,2,0,8,,,,,7,,,,48,92
43008,note_on,,,,,2,0,5,,,,,4,,,,67,92
43010,note_on,,,,,0,0,2,,,,,1,,,,63,92
43010,note_on,,,,,48,0,2,,,,,1,,,,51,92
43011,note_on,,,,,46,0,6,,,,,5,,,,65,0
43012,note_on,,,,,94,0,9,,,,,8,,,,34,0
43013,note_on,,,,,2,0,6,,,,,5,,,,63,92
43014,note_on,,,,,2,0,9,,,,,8,,,,36,92
43099,note_on,,,,,94,0,7,,,,,6,,,,63,0
43101,note_on,,,,,2,0,7,,,,,6,,,,63,92
43101,note_on,,,,,94,0,8,,,,,7,,,,48,0
43102,note_on,,,,,94,0,5,,,,,4,,,,67,0
43103,note_on,,,,,2,0,8,,,,,7,,,,48,92
43104,note_on,,,,,2,0,5,,,,,4,,,,75,92
43107,note_on,,,,,94,0,6,,,,,5,,,,63,0
43108,note_on,,,,,94,0,9,,,,,8,,,,36,0
43109,note_on,,,,,2,0,6,,,,,5,,,,67,92
43110,note_on,,,,,2,0,9,,,,,8,,,,36,92
43166,note_on,,,,,0,0,1,,,,,0,,,,75,0
43166,note_on,,,,,160,0,1,,,,,0,,,,79,0
43170,note_on,,,,,0,0,2,,,,,1,,,,51,0
43170,note_on,,,,,160,0,2,,,,,1,,,,63,0
43174,note_on,,,,,70,0,5,,,,,4,,,,75,0
43176,note_on,,,,,2,0,5,,,,,4,,,,74,92
43179,note_on,,,,,70,0,6,,,,,5,,,,67,0
43181,note_on,,,,,2,0,6,,,,,5,,,,70,92
43195,note_on,,,,,94,0,7,,,,,6,,,,63,0
43197,note_on,,,,,2,0,7,,,,,6,,,,63,92
43197,note_on,,,,,94,0,8,,,,,7,,,,48,0
43199,note_on,,,,,2,0,8,,,,,7,,,,44,92
43200,note_on,,,,,24,0,5,,,,,4,,,,74,0
43200,note_on,,,,,0,0,5,,,,,4,,,,72,92
43204,note_on,,,,,94,0,9,,,,,8,,,,36,0
43205,note_on,,,,,24,0,6,,,,,5,,,,70,0
43205,note_on,,,,,0,0,6,,,,,5,,,,68,92
43206,note_on,,,,,2,0,9,,,,,8,,,,32,92
43291,note_on,,,,,94,0,7,,,,,6,,,,63,0
43293,note_on,,,,,94,0,8,,,,,7,,,,44,0
43293,note_on,,,,,2,0,7,,,,,6,,,,60,92
43294,note_on,,,,,128,0,1,,,,,0,,,,77,92
43294,note_on,,,,,0,0,1,,,,,0,,,,80,92
43295,note_on,,,,,2,0,8,,,,,7,,,,44,92
43296,note_on,,,,,0,0,5,,,,,4,,,,70,92
43296,note_on,,,,,96,0,5,,,,,4,,,,72,0
43300,note_on,,,,,94,0,9,,,,,8,,,,32,0
43301,note_on,,,,,96,0,6,,,,,5,,,,68,0
43301,note_on,,,,,0,0,6,,,,,5,,,,67,92
43302,note_on,,,,,2,0,9,,,,,8,,,,32,92
43344,note_on,,,,,0,0,5,,,,,4,,,,68,92
43344,note_on,,,,,48,0,5,,,,,4,,,,70,0
43349,note_on,,,,,48,0,6,,,,,5,,,,67,0
43349,note_on,,,,,0,0,6,,,,,5,,,,65,92
43387,note_on,,,,,94,0,7,,,,,6,,,,60,0
43388,note_on,,,,,0,0,1,,,,,0,,,,77,0
43388,note_on,,,,,94,0,1,,,,,0,,,,80,0
43389,note_on,,,,,94,0,8,,,,,7,,,,44,0
43389,note_on,,,,,2,0,7,,,,,6,,,,58,92
43390,note_on,,,,,0,0,1,,,,,0,,,,79,92
43390,note_on,,,,,2,0,1,,,,,0,,,,75,92
43390,note_on,,,,,46,0,5,,,,,4,,,,68,0
43391,note_on,,,,,2,0,8,,,,,7,,,,46,92
43392,note_on,,,,,2,0,5,,,,,4,,,,67,92
43394,note_on,,,,,0,0,2,,,,,1,,,,67,92
43394,note_on,,,,,224,0,2,,,,,1,,,,63,92
43395,note_on,,,,,46,0,6,,,,,5,,,,65,0
43396,note_on,,,,,94,0,9,,,,,8,,,,32,0
43397,note_on,,,,,2,0,6,,,,,5,,,,63,92
43398,note_on,,,,,2,0,9,,,,,8,,,,34,92
43483,note_on,,,,,94,0,7,,,,,6,,,,58,0
43485,note_on,,,,,94,0,8,,,,,7,,,,46,0
43485,note_on,,,,,2,0,7,,,,,6,,,,58,92
43487,note_on,,,,,2,0,8,,,,,7,,,,46,92
43492,note_on,,,,,94,0,9,,,,,8,,,,34,0
43494,note_on,,,,,2,0,9,,,,,8,,,,34,92
43550,note_on,,,,,0,0,1,,,,,0,,,,75,0
43550,note_on,,,,,160,0,1,,,,,0,,,,79,0
43552,note_on,,,,,160,0,5,,,,,4,,,,67,0
43554,note_on,,,,,0,0,2,,,,,1,,,,63,0
43554,note_on,,,,,160,0,2,,,,,1,,,,67,0
43557,note_on,,,,,160,0,6,,,,,5,,,,63,0
43579,note_on,,,,,94,0,7,,,,,6,,,,58,0
43581,note_on,,,,,2,0,7,,,,,6,,,,56,92
43581,note_on,,,,,94,0,8,,,,,7,,,,46,0
43582,note_on,,,,,0,0,1,,,,,0,,,,79,92
43582,note_on,,,,,32,0,1,,,,,0,,,,75,92
43583,note_on,,,,,2,0,8,,,,,7,,,,46,92
43584,note_on,,,,,32,0,5,,,,,4,,,,67,92
43586,note_on,,,,,0,0,2,,,,,1,,,,65,92
43586,note_on,,,,,32,0,2,,,,,1,,,,58,92
43588,note_on,,,,,94,0,9,,,,,8,,,,34,0
43589,note_on,,,,,32,0,6,,,,,5,,,,62,92
43590,note_on,,,,,2,0,9,,,,,8,,,,34,92
43614,note_on,,,,,0,0,1,,,,,0,,,,74,92
43614,note_on,,,,,0,0,1,,,,,0,,,,77,92
43614,note_on,,,,,0,0,1,,,,,0,,,,75,0
43614,note_on,,,,,32,0,1,,,,,0,,,,79,0
43616,note_on,,,,,32,0,5,,,,,4,,,,67,0
43616,note_on,,,,,0,0,5,,,,,4,,,,65,92
43646,note_on,,,,,0,0,1,,,,,0,,,,74,0
43646,note_on,,,,,32,0,1,,,,,0,,,,77,0
43646,note_on,,,,,0,0,1,,,,,0,,,,75,92
43646,note_on,,,,,0,0,1,,,,,0,,,,79,92
43648,note_on,,,,,0,0,5,,,,,4,,,,67,92
43648,note_on,,,,,32,0,5,,,,,4,,,,65,0
43675,note_on,,,,,94,0,7,,,,,6,,,,56,0
43677,note_on,,,,,2,0,7,,,,,6,,,,56,92
43677,note_on,,,,,94,0,8,,,,,7,,,,46,0
43678,note_on,,,,,0,0,1,,,,,0,,,,74,92
43678,note_on,,,,,0,0,1,,,,,0,,,,77,92
43678,note_on,,,,,0,0,1,,,,,0,,,,75,0
43678,note_on,,,,,32,0,1,,,,,0,,,,79,0
43679,note_on,,,,,2,0,8,,,,,7,,,,46,92
43680,note_on,,,,,32,0,5,,,,,4,,,,67,0
43680,note_on,,,,,0,0,5,,,,,4,,,,65,92
43684,note_on,,,,,94,0,9,,,,,8,,,,34,0
43686,note_on,,,,,2,0,9,,,,,8,,,,34,92
43710,note_on,,,,,32,0,1,,,,,0,,,,77,0
43710,note_on,,,,,0,0,1,,,,,0,,,,75,92
43710,note_on,,,,,0,0,1,,,,,0,,,,72,92
43710,note_on,,,,,0,0,1,,,,,0,,,,74,0
43712,note_on,,,,,32,0,5,,,,,4,,,,65,0
43712,note_on,,,,,0,0,5,,,,,4,,,,63,92
43742,note_on,,,,,0,0,1,,,,,0,,,,72,0
43742,note_on,,,,,0,0,1,,,,,0,,,,77,92
43742,note_on,,,,,0,0,1,,,,,0,,,,74,92
43742,note_on,,,,,32,0,1,,,,,0,,,,75,0
43744,note_on,,,,,32,0,5,,,,,4,,,,63,0
43744,note_on,,,,,0,0,5,,,,,4,,,,65,92
43746,note_on,,,,,160,0,2,,,,,1,,,,65,0
43746,note_on,,,,,0,0,2,,,,,1,,,,58,0
43749,note_on,,,,,160,0,6,,,,,5,,,,62,0
43771,note_on,,,,,94,0,7,,,,,6,,,,56,0
43773,note_on,,,,,94,0,8,,,,,7,,,,46,0
43773,note_on,,,,,2,0,7,,,,,6,,,,55,92
43774,note_on,,,,,32,0,1,,,,,0,,,,77,0
43774,note_on,,,,,0,0,1,,,,,0,,,,74,0
43774,note_on,,,,,0,0,1,,,,,0,,,,75,92
43775,note_on,,,,,2,0,8,,,,,7,,,,51,92
43776,note_on,,,,,32,0,5,,,,,4,,,,65,0
43776,note_on,,,,,0,0,5,,,,,4,,,,63,92
43778,note_on,,,,,0,0,2,,,,,1,,,,63,92
43778,note_on,,,,,32,0,2,,,,,1,,,,51,92
43780,note_on,,,,,94,0,9,,,,,8,,,,34,0
43781,note_on,,,,,32,0,6,,,,,5,,,,63,92
43782,note_on,,,,,2,0,9,,,,,8,,,,39,92
43933,note_on,,,,,160,0,7,,,,,6,,,,55,0
43934,note_on,,,,,160,0,1,,,,,0,,,,75,0
43935,note_on,,,,,160,0,8,,,,,7,,,,51,0
43936,note_on,,,,,160,0,5,,,,,4,,,,63,0
43938,note_on,,,,,160,0,2,,,,,1,,,,63,0
43938,note_on,,,,,0,0,2,,,,,1,,,,51,0
43941,note_on,,,,,160,0,6,,,,,5,,,,63,0
43942,note_on,,,,,160,0,9,,,,,8,,,,39,0
43968,set_tempo,,,,,3456,1,0,,413793,,,,,,,,
43968,note_on,,,,,32,0,5,,,,,4,,,,77,45
43973,note_on,,,,,32,0,6,,,,,5,,,,65,45
44000,note_on,,,,,0,0,5,,,,,4,,,,75,45
44000,note_on,,,,,32,0,5,,,,,4,,,,77,0
44005,note_on,,,,,0,0,6,,,,,5,,,,63,45
44005,note_on,,,,,32,0,6,,,,,5,,,,65,0
44032,note_on,,,,,32,0,5,,,,,4,,,,75,0
44032,note_on,,,,,0,0,5,,,,,4,,,,77,45
44037,note_on,,,,,0,0,6,,,,,5,,,,65,45
44037,note_on,,,,,32,0,6,,,,,5,,,,63,0
44061,note_on,,,,,128,0,7,,,,,6,,,,67,45
44063,note_on,,,,,128,0,8,,,,,7,,,,63,45
44064,note_on,,,,,32,0,5,,,,,4,,,,77,0
44064,note_on,,,,,0,0,5,,,,,4,,,,75,45
44069,note_on,,,,,0,0,6,,,,,5,,,,63,45
44069,note_on,,,,,32,0,6,,,,,5,,,,65,0
44070,note_on,,,,,128,0,9,,,,,8,,,,51,45
44093,note_on,,,,,32,0,7,,,,,6,,,,67,0
44095,note_on,,,,,32,0,8,,,,,7,,,,63,0
44096,note_on,,,,,32,0,5,,,,,4,,,,75,0
44096,note_on,,,,,0,0,5,,,,,4,,,,77,45
44101,note_on,,,,,32,0,6,,,,,5,,,,63,0
44101,note_on,,,,,0,0,6,,,,,5,,,,65,45
44102,note_on,,,,,32,0,9,,,,,8,,,,51,0
44128,note_on,,,,,32,0,5,,,,,4,,,,77,0
44128,note_on,,,,,0,0,5,,,,,4,,,,75,45
44133,note_on,,,,,32,0,6,,,,,5,,,,65,0
44133,note_on,,,,,0,0,6,,,,,5,,,,63,45
44157,note_on,,,,,64,0,7,,,,,6,,,,67,45
44159,note_on,,,,,64,0,8,,,,,7,,,,63,45
44160,note_on,,,,,0,0,5,,,,,4,,,,77,45
44160,note_on,,,,,32,0,5,,,,,4,,,,75,0
44165,note_on,,,,,0,0,6,,,,,5,,,,65,45
44165,note_on,,,,,32,0,6,,,,,5,,,,63,0
44166,note_on,,,,,64,0,9,,,,,8,,,,51,45
44189,note_on,,,,,32,0,7,,,,,6,,,,67,0
44191,note_on,,,,,32,0,8,,,,,7,,,,63,0
44192,note_on,,,,,32,0,5,,,,,4,,,,77,0
44192,note_on,,,,,0,0,5,,,,,4,,,,75,45
44197,note_on,,,,,0,0,6,,,,,5,,,,63,45
44197,note_on,,,,,32,0,6,,,,,5,,,,65,0
44198,note_on,,,,,32,0,9,,,,,8,,,,51,0
44224,note_on,,,,,32,0,5,,,,,4,,,,75,0
44224,note_on,,,,,0,0,5,,,,,4,,,,77,45
44229,note_on,,,,,0,0,6,,,,,5,,,,65,45
44229,note_on,,,,,32,0,6,,,,,5,,,,63,0
44253,note_on,,,,,64,0,7,,,,,6,,,,67,45
44255,note_on,,,,,64,0,8,,,,,7,,,,63,45
44256,note_on,,,,,32,0,5,,,,,4,,,,77,0
44256,note_on,,,,,0,0,5,,,,,4,,,,74,45
44261,note_on,,,,,32,0,6,,,,,5,,,,65,0
44261,note_on,,,,,0,0,6,,,,,5,,,,62,45
44262,note_on,,,,,64,0,9,,,,,8,,,,51,45
44285,note_on,,,,,32,0,7,,,,,6,,,,67,0
44287,note_on,,,,,32,0,8,,,,,7,,,,63,0
44294,note_on,,,,,32,0,9,,,,,8,,,,51,0
44304,note_on,,,,,0,0,5,,,,,4,,,,72,45
44304,note_on,,,,,48,0,5,,,,,4,,,,74,0
44309,note_on,,,,,48,0,6,,,,,5,,,,62,0
44309,note_on,,,,,0,0,6,,,,,5,,,,60,45
44349,note_on,,,,,64,0,7,,,,,6,,,,67,45
44350,note_on,,,,,46,0,5,,,,,4,,,,72,0
44351,note_on,,,,,64,0,8,,,,,7,,,,63,45
44352,note_on,,,,,2,0,5,,,,,4,,,,71,45
44355,note_on,,,,,46,0,6,,,,,5,,,,60,0
44357,note_on,,,,,2,0,6,,,,,5,,,,59,45
44358,note_on,,,,,64,0,9,,,,,8,,,,51,45
44445,note_on,,,,,0,0,7,,,,,6,,,,65,45
44445,note_on,,,,,96,0,7,,,,,6,,,,67,0
44447,note_on,,,,,96,0,8,,,,,7,,,,63,0
44447,note_on,,,,,0,0,8,,,,,7,,,,62,45
44454,note_on,,,,,96,0,9,,,,,8,,,,51,0
44454,note_on,,,,,0,0,9,,,,,8,,,,50,45
44512,note_on,,,,,160,0,5,,,,,4,,,,71,0
44517,note_on,,,,,160,0,6,,,,,5,,,,59,0
44539,note_on,,,,,94,0,7,,,,,6,,,,65,0
44541,note_on,,,,,94,0,8,,,,,7,,,,62,0
44541,note_on,,,,,2,0,7,,,,,6,,,,63,45
44543,note_on,,,,,2,0,8,,,,,7,,,,60,45
44544,note_on,,,,,32,0,5,,,,,4,,,,74,45
44548,note_on,,,,,94,0,9,,,,,8,,,,50,0
44549,note_on,,,,,32,0,6,,,,,5,,,,62,45
44550,note_on,,,,,2,0,9,,,,,8,,,,48,45
44573,note_on,,,,,32,0,7,,,,,6,,,,63,0
44575,note_on,,,,,32,0,8,,,,,7,,,,60,0
44576,note_on,,,,,32,0,5,,,,,4,,,,74,0
44576,note_on,,,,,0,0,5,,,,,4,,,,72,45
44581,note_on,,,,,32,0,6,,,,,5,,,,62,0
44581,note_on,,,,,0,0,6,,,,,5,,,,60,45
44582,note_on,,,,,32,0,9,,,,,8,,,,48,0
44608,note_on,,,,,32,0,5,,,,,4,,,,72,0
44608,note_on,,,,,0,0,5,,,,,4,,,,74,45
44613,note_on,,,,,0,0,6,,,,,5,,,,62,45
44613,note_on,,,,,32,0,6,,,,,5,,,,60,0
44637,note_on,,,,,64,0,7,,,,,6,,,,63,45
44639,note_on,,,,,64,0,8,,,,,7,,,,60,45
44640,note_on,,,,,32,0,5,,,,,4,,,,74,0
44640,note_on,,,,,0,0,5,,,,,4,,,,72,45
44645,note_on,,,,,32,0,6,,,,,5,,,,62,0
44645,note_on,,,,,0,0,6,,,,,5,,,,60,45
44646,note_on,,,,,64,0,9,,,,,8,,,,48,45
44669,note_on,,,,,32,0,7,,,,,6,,,,63,0
44671,note_on,,,,,32,0,8,,,,,7,,,,60,0
44672,note_on,,,,,0,0,5,,,,,4,,,,74,45
44672,note_on,,,,,32,0,5,,,,,4,,,,72,0
44677,note_on,,,,,0,0,6,,,,,5,,,,62,45
44677,note_on,,,,,32,0,6,,,,,5,,,,60,0
44678,note_on,,,,,32,0,9,,,,,8,,,,48,0
44704,note_on,,,,,32,0,5,,,,,4,,,,74,0
44704,note_on,,,,,0,0,5,,,,,4,,,,72,45
44709,note_on,,,,,32,0,6,,,,,5,,,,62,0
44709,note_on,,,,,0,0,6,,,,,5,,,,60,45
44733,note_on,,,,,64,0,7,,,,,6,,,,63,45
44735,note_on,,,,,64,0,8,,,,,7,,,,60,45
44736,note_on,,,,,0,0,5,,,,,4,,,,74,45
44736,note_on,,,,,32,0,5,,,,,4,,,,72,0
44741,note_on,,,,,32,0,6,,,,,5,,,,60,0
44741,note_on,,,,,0,0,6,,,,,5,,,,62,45
44742,note_on,,,,,64,0,9,,,,,8,,,,48,45
44765,note_on,,,,,32,0,7,,,,,6,,,,63,0
44767,note_on,,,,,32,0,8,,,,,7,,,,60,0
44768,note_on,,,,,32,0,5,,,,,4,,,,74,0
44768,note_on,,,,,0,0,5,,,,,4,,,,72,45
44773,note_on,,,,,0,0,6,,,,,5,,,,60,45
44773,note_on,,,,,32,0,6,,,,,5,,,,62,0
44774,note_on,,,,,32,0,9,,,,,8,,,,48,0
44800,note_on,,,,,32,0,5,,,,,4,,,,72,0
44800,note_on,,,,,0,0,5,,,,,4,,,,74,45
44805,note_on,,,,,0,0,6,,,,,5,,,,62,45
44805,note_on,,,,,32,0,6,,,,,5,,,,60,0
44829,note_on,,,,,64,0,7,,,,,6,,,,63,45
44831,note_on,,,,,64,0,8,,,,,7,,,,60,45
44832,note_on,,,,,32,0,5,,,,,4,,,,74,0
44832,note_on,,,,,0,0,5,,,,,4,,,,70,45
44837,note_on,,,,,32,0,6,,,,,5,,,,62,0
44837,note_on,,,,,0,0,6,,,,,5,,,,58,45
44838,note_on,,,,,64,0,9,,,,,8,,,,48,45
44861,note_on,,,,,32,0,7,,,,,6,,,,63,0
44863,note_on,,,,,32,0,8,,,,,7,,,,60,0
44870,note_on,,,,,32,0,9,,,,,8,,,,48,0
44880,note_on,,,,,0,0,5,,,,,4,,,,68,45
44880,note_on,,,,,48,0,5,,,,,4,,,,70,0
44885,note_on,,,,,48,0,6,,,,,5,,,,58,0
44885,note_on,,,,,0,0,6,,,,,5,,,,56,45
44925,note_on,,,,,64,0,7,,,,,6,,,,63,45
44926,note_on,,,,,46,0,5,,,,,4,,,,68,0
44927,note_on,,,,,64,0,8,,,,,7,,,,60,45
44928,note_on,,,,,2,0,5,,,,,4,,,,67,45
44931,note_on,,,,,46,0,6,,,,,5,,,,56,0
44933,note_on,,,,,2,0,6,,,,,5,,,,55,45
44934,note_on,,,,,64,0,9,,,,,8,,,,48,45
45021,note_on,,,,,0,0,7,,,,,6,,,,61,45
45021,note_on,,,,,96,0,7,,,,,6,,,,63,0
45023,note_on,,,,,0,0,8,,,,,7,,,,58,45
45023,note_on,,,,,96,0,8,,,,,7,,,,60,0
45030,note_on,,,,,96,0,9,,,,,8,,,,48,0
45030,note_on,,,,,0,0,9,,,,,8,,,,46,45
45088,note_on,,,,,160,0,5,,,,,4,,,,67,0
45093,note_on,,,,,160,0,6,,,,,5,,,,55,0
45115,note_on,,,,,94,0,7,,,,,6,,,,61,0
45117,note_on,,,,,94,0,8,,,,,7,,,,58,0
45117,note_on,,,,,2,0,7,,,,,6,,,,60,45
45119,note_on,,,,,2,0,8,,,,,7,,,,56,45
45120,note_on,,,,,32,0,5,,,,,4,,,,82,45
45124,note_on,,,,,94,0,9,,,,,8,,,,46,0
45125,note_on,,,,,32,0,6,,,,,5,,,,70,45
45126,note_on,,,,,2,0,9,,,,,8,,,,44,45
45149,note_on,,,,,32,0,7,,,,,6,,,,60,0
45151,note_on,,,,,32,0,8,,,,,7,,,,56,0
45152,note_on,,,,,32,0,5,,,,,4,,,,82,0
45152,note_on,,,,,0,0,5,,,,,4,,,,80,45
45157,note_on,,,,,0,0,6,,,,,5,,,,68,45
45157,note_on,,,,,32,0,6,,,,,5,,,,70,0
45158,note_on,,,,,32,0,9,,,,,8,,,,44,0
45184,note_on,,,,,0,0,5,,,,,4,,,,82,45
45184,note_on,,,,,32,0,5,,,,,4,,,,80,0
45189,note_on,,,,,0,0,6,,,,,5,,,,70,45
45189,note_on,,,,,32,0,6,,,,,5,,,,68,0
45213,note_on,,,,,64,0,7,,,,,6,,,,60,45
45215,note_on,,,,,64,0,8,,,,,7,,,,56,45
45216,note_on,,,,,32,0,5,,,,,4,,,,82,0
45216,note_on,,,,,0,0,5,,,,,4,,,,80,45
45221,note_on,,,,,32,0,6,,,,,5,,,,70,0
45221,note_on,,,,,0,0,6,,,,,5,,,,68,45
45222,note_on,,,,,64,0,9,,,,,8,,,,44,45
45245,note_on,,,,,32,0,7,,,,,6,,,,60,0
45247,note_on,,,,,32,0,8,,,,,7,,,,56,0
45248,note_on,,,,,0,0,5,,,,,4,,,,82,45
45248,note_on,,,,,32,0,5,,,,,4,,,,80,0
45253,note_on,,,,,0,0,6,,,,,5,,,,70,45
45253,note_on,,,,,32,0,6,,,,,5,,,,68,0
45254,note_on,,,,,32,0,9,,,,,8,,,,44,0
45280,note_on,,,,,0,0,5,,,,,4,,,,80,45
45280,note_on,,,,,32,0,5,,,,,4,,,,82,0
45285,note_on,,,,,0,0,6,,,,,5,,,,68,45
45285,note_on,,,,,32,0,6,,,,,5,,,,70,0
45309,note_on,,,,,64,0,7,,,,,6,,,,60,45
45311,note_on,,,,,64,0,8,,,,,7,,,,56,45
45312,note_on,,,,,32,0,5,,,,,4,,,,80,0
45312,note_on,,,,,0,0,5,,,,,4,,,,82,45
45317,note_on,,,,,32,0,6,,,,,5,,,,68,0
45317,note_on,,,,,0,0,6,,,,,5,,,,70,45
45318,note_on,,,,,64,0,9,,,,,8,,,,44,45
45341,note_on,,,,,32,0,7,,,,,6,,,,60,0
45343,note_on,,,,,32,0,8,,,,,7,,,,56,0
45344,note_on,,,,,32,0,5,,,,,4,,,,82,0
45344,note_on,,,,,0,0,5,,,,,4,,,,80,45
45349,note_on,,,,,32,0,6,,,,,5,,,,70,0
45349,note_on,,,,,0,0,6,,,,,5,,,,68,45
45350,note_on,,,,,32,0,9,,,,,8,,,,44,0
45376,note_on,,,,,0,0,5,,,,,4,,,,82,45
45376,note_on,,,,,32,0,5,,,,,4,,,,80,0
45381,note_on,,,,,32,0,6,,,,,5,,,,68,0
45381,note_on,,,,,0,0,6,,,,,5,,,,70,45
45405,note_on,,,,,64,0,7,,,,,6,,,,60,45
45407,note_on,,,,,64,0,8,,,,,7,,,,56,45
45408,note_on,,,,,32,0,5,,,,,4,,,,82,0
45408,note_on,,,,,0,0,5,,,,,4,,,,79,45
45413,note_on,,,,,32,0,6,,,,,5,,,,70,0
45413,note_on,,,,,0,0,6,,,,,5,,,,67,45
45414,note_on,,,,,64,0,9,,,,,8,,,,44,45
45437,note_on,,,,,32,0,7,,,,,6,,,,60,0
45439,note_on,,,,,32,0,8,,,,,7,,,,56,0
45446,note_on,,,,,32,0,9,,,,,8,,,,44,0
45456,note_on,,,,,48,0,5,,,,,4,,,,79,0
45456,note_on,,,,,0,0,5,,,,,4,,,,77,45
45461,note_on,,,,,48,0,6,,,,,5,,,,67,0
45461,note_on,,,,,0,0,6,,,,,5,,,,65,45
45501,note_on,,,,,64,0,7,,,,,6,,,,60,45
45502,note_on,,,,,46,0,5,,,,,4,,,,77,0
45503,note_on,,,,,64,0,8,,,,,7,,,,56,45
45504,note_on,,,,,2,0,5,,,,,4,,,,76,45
45507,note_on,,,,,46,0,6,,,,,5,,,,65,0
45509,note_on,,,,,2,0,6,,,,,5,,,,64,45
45510,note_on,,,,,64,0,9,,,,,8,,,,44,45
45597,note_on,,,,,0,0,7,,,,,6,,,,58,45
45597,note_on,,,,,96,0,7,,,,,6,,,,60,0
45599,note_on,,,,,0,0,8,,,,,7,,,,55,45
45599,note_on,,,,,96,0,8,,,,,7,,,,56,0
45606,note_on,,,,,96,0,9,,,,,8,,,,44,0
45606,note_on,,,,,0,0,9,,,,,8,,,,43,45
45691,note_on,,,,,94,0,7,,,,,6,,,,58,0
45693,note_on,,,,,94,0,8,,,,,7,,,,55,0
45693,note_on,,,,,2,0,7,,,,,6,,,,56,45
45695,note_on,,,,,2,0,8,,,,,7,,,,53,45
45696,note_on,,,,,0,0,5,,,,,4,,,,77,45
45696,note_on,,,,,192,0,5,,,,,4,,,,76,0
45700,note_on,,,,,94,0,9,,,,,8,,,,43,0
45701,note_on,,,,,192,0,6,,,,,5,,,,64,0
45701,note_on,,,,,0,0,6,,,,,5,,,,65,45
45702,note_on,,,,,2,0,9,,,,,8,,,,41,45
45725,note_on,,,,,32,0,7,,,,,6,,,,56,0
45727,note_on,,,,,32,0,8,,,,,7,,,,53,0
45734,note_on,,,,,32,0,9,,,,,8,,,,41,0
45789,note_on,,,,,64,0,7,,,,,6,,,,60,51
45790,note_on,,,,,94,0,5,,,,,4,,,,77,0
45791,note_on,,,,,64,0,8,,,,,7,,,,52,51
45792,note_on,,,,,2,0,5,,,,,4,,,,79,51
45795,note_on,,,,,94,0,6,,,,,5,,,,65,0
45797,note_on,,,,,2,0,6,,,,,5,,,,70,51
45798,note_on,,,,,64,0,9,,,,,8,,,,40,51
45821,note_on,,,,,32,0,7,,,,,6,,,,60,0
45823,note_on,,,,,32,0,8,,,,,7,,,,52,0
45824,note_on,,,,,32,0,5,,,,,4,,,,79,0
45829,note_on,,,,,32,0,6,,,,,5,,,,70,0
45830,note_on,,,,,32,0,9,,,,,8,,,,40,0
45885,note_on,,,,,64,0,7,,,,,6,,,,60,57
45887,note_on,,,,,64,0,8,,,,,7,,,,53,57
45888,note_on,,,,,64,0,5,,,,,4,,,,80,57
45893,note_on,,,,,64,0,6,,,,,5,,,,68,57
45894,note_on,,,,,64,0,9,,,,,8,,,,41,57
45917,note_on,,,,,32,0,7,,,,,6,,,,60,0
45919,note_on,,,,,32,0,8,,,,,7,,,,53,0
45920,note_on,,,,,32,0,5,,,,,4,,,,80,0
45925,note_on,,,,,32,0,6,,,,,5,,,,68,0
45926,note_on,,,,,32,0,9,,,,,8,,,,41,0
45981,note_on,,,,,64,0,7,,,,,6,,,,65,64
45982,note_on,,,,,2048,0,1,,,,,0,,,,69,64
45982,note_on,,,,,0,0,1,,,,,0,,,,72,64
45983,note_on,,,,,64,0,8,,,,,7,,,,51,64
45984,note_on,,,,,64,0,5,,,,,4,,,,81,64
45986,note_on,,,,,2048,0,2,,,,,1,,,,65,64
45989,note_on,,,,,64,0,6,,,,,5,,,,72,64
45990,note_on,,,,,64,0,9,,,,,8,,,,39,64
46013,note_on,,,,,32,0,7,,,,,6,,,,65,0
46015,note_on,,,,,32,0,8,,,,,7,,,,51,0
46016,note_on,,,,,32,0,5,,,,,4,,,,81,0
46021,note_on,,,,,32,0,6,,,,,5,,,,72,0
46022,note_on,,,,,32,0,9,,,,,8,,,,39,0
46076,note_on,,,,,94,0,1,,,,,0,,,,72,0
46076,note_on,,,,,0,0,1,,,,,0,,,,69,0
46077,note_on,,,,,64,0,7,,,,,6,,,,65,71
46078,note_on,,,,,2,0,1,,,,,0,,,,70,71
46078,note_on,,,,,0,0,1,,,,,0,,,,74,71
46079,note_on,,,,,64,0,8,,,,,7,,,,50,71
46080,note_on,,,,,64,0,5,,,,,4,,,,82,71
46080,note_on,,,,,94,0,2,,,,,1,,,,65,0
46082,note_on,,,,,2,0,2,,,,,1,,,,65,71
46085,note_on,,,,,64,0,6,,,,,5,,,,70,71
46086,note_on,,,,,64,0,9,,,,,8,,,,38,71
46109,note_on,,,,,32,0,7,,,,,6,,,,65,0
46111,note_on,,,,,32,0,8,,,,,7,,,,50,0
46112,note_on,,,,,32,0,5,,,,,4,,,,82,0
46117,note_on,,,,,32,0,6,,,,,5,,,,70,0
46118,note_on,,,,,32,0,9,,,,,8,,,,38,0
46172,note_on,,,,,94,0,1,,,,,0,,,,74,0
46172,note_on,,,,,0,0,1,,,,,0,,,,70,0
46173,note_on,,,,,64,0,7,,,,,6,,,,74,78
46174,note_on,,,,,0,0,1,,,,,0,,,,77,78
46174,note_on,,,,,2,0,1,,,,,0,,,,74,78
46175,note_on,,,,,64,0,8,,,,,7,,,,55,78
46176,note_on,,,,,64,0,5,,,,,4,,,,83,78
46176,note_on,,,,,94,0,2,,,,,1,,,,65,0
46178,note_on,,,,,2,0,2,,,,,1,,,,67,78
46181,note_on,,,,,64,0,6,,,,,5,,,,77,78
46182,note_on,,,,,64,0,9,,,,,8,,,,43,78
46205,note_on,,,,,32,0,7,,,,,6,,,,74,0
46207,note_on,,,,,32,0,8,,,,,7,,,,55,0
46208,note_on,,,,,32,0,5,,,,,4,,,,83,0
46213,note_on,,,,,32,0,6,,,,,5,,,,77,0
46214,note_on,,,,,32,0,9,,,,,8,,,,43,0
46268,note_on,,,,,0,0,1,,,,,0,,,,74,0
46268,note_on,,,,,94,0,1,,,,,0,,,,77,0
46269,note_on,,,,,64,0,7,,,,,6,,,,72,85
46270,note_on,,,,,2,0,1,,,,,0,,,,72,85
46270,note_on,,,,,0,0,1,,,,,0,,,,75,85
46271,note_on,,,,,64,0,8,,,,,7,,,,56,85
46272,note_on,,,,,94,0,2,,,,,1,,,,67,0
46272,note_on,,,,,64,0,5,,,,,4,,,,84,85
46274,note_on,,,,,2,0,2,,,,,1,,,,63,85
46277,note_on,,,,,64,0,6,,,,,5,,,,75,85
46278,note_on,,,,,64,0,9,,,,,8,,,,44,85
46301,note_on,,,,,32,0,7,,,,,6,,,,72,0
46303,note_on,,,,,32,0,8,,,,,7,,,,56,0
46304,note_on,,,,,32,0,5,,,,,4,,,,84,0
46309,note_on,,,,,32,0,6,,,,,5,,,,75,0
46310,note_on,,,,,32,0,9,,,,,8,,,,44,0
46364,note_on,,,,,94,0,1,,,,,0,,,,75,0
46364,note_on,,,,,0,0,1,,,,,0,,,,72,0
46365,note_on,,,,,64,0,7,,,,,6,,,,70,92
46366,note_on,,,,,0,0,1,,,,,0,,,,80,92
46366,note_on,,,,,2,0,1,,,,,0,,,,72,92
46367,note_on,,,,,64,0,8,,,,,7,,,,53,92
46368,note_on,,,,,64,0,5,,,,,4,,,,86,92
46368,note_on,,,,,94,0,2,,,,,1,,,,63,0
46370,note_on,,,,,0,0,2,,,,,1,,,,68,92
46370,note_on,,,,,2,0,2,,,,,1,,,,58,92
46373,note_on,,,,,64,0,6,,,,,5,,,,80,92
46374,note_on,,,,,64,0,9,,,,,8,,,,41,92
46397,note_on,,,,,32,0,7,,,,,6,,,,70,0
46399,note_on,,,,,32,0,8,,,,,7,,,,53,0
46400,note_on,,,,,32,0,5,,,,,4,,,,86,0
46405,note_on,,,,,32,0,6,,,,,5,,,,80,0
46406,note_on,,,,,32,0,9,,,,,8,,,,41,0
46460,note_on,,,,,94,0,1,,,,,0,,,,80,0
46460,note_on,,,,,0,0,1,,,,,0,,,,72,0
46461,note_on,,,,,64,0,7,,,,,6,,,,70,92
46462,note_on,,,,,0,0,1,,,,,0,,,,79,92
46462,note_on,,,,,2,0,1,,,,,0,,,,75,92
46463,note_on,,,,,64,0,8,,,,,7,,,,55,92
46464,note_on,,,,,0,0,2,,,,,1,,,,58,0
46464,note_on,,,,,94,0,2,,,,,1,,,,68,0
46464,note_on,,,,,64,0,5,,,,,4,,,,87,92
46466,note_on,,,,,2,0,2,,,,,1,,,,58,92
46466,note_on,,,,,0,0,2,,,,,1,,,,67,92
46469,note_on,,,,,64,0,6,,,,,5,,,,79,92
46470,note_on,,,,,64,0,9,,,,,8,,,,43,92
46493,note_on,,,,,32,0,7,,,,,6,,,,70,0
46495,note_on,,,,,32,0,8,,,,,7,,,,55,0
46496,note_on,,,,,32,0,5,,,,,4,,,,87,0
46501,note_on,,,,,32,0,6,,,,,5,,,,79,0
46502,note_on,,,,,32,0,9,,,,,8,,,,43,0
46556,note_on,,,,,94,0,1,,,,,0,,,,79,0
46556,note_on,,,,,0,0,1,,,,,0,,,,75,0
46557,note_on,,,,,64,0,7,,,,,6,,,,63,92
46558,note_on,,,,,2,0,1,,,,,0,,,,75,92
46558,note_on,,,,,0,0,1,,,,,0,,,,79,92
46559,note_on,,,,,64,0,8,,,,,7,,,,48,92
46560,note_on,,,,,94,0,2,,,,,1,,,,67,0
46560,note_on,,,,,64,0,5,,,,,4,,,,55,92
46560,note_on,,,,,0,0,2,,,,,1,,,,58,0
46562,note_on,,,,,0,0,2,,,,,1,,,,63,92
46562,note_on,,,,,2,0,2,,,,,1,,,,51,92
46565,note_on,,,,,64,0,6,,,,,5,,,,67,92
46566,note_on,,,,,64,0,9,,,,,8,,,,36,92
46589,note_on,,,,,32,0,7,,,,,6,,,,63,0
46591,note_on,,,,,32,0,8,,,,,7,,,,48,0
46592,note_on,,,,,32,0,5,,,,,4,,,,55,0
46597,note_on,,,,,32,0,6,,,,,5,,,,67,0
46598,note_on,,,,,32,0,9,,,,,8,,,,36,0
46652,note_on,,,,,94,0,1,,,,,0,,,,79,0
46652,note_on,,,,,0,0,1,,,,,0,,,,75,0
46653,note_on,,,,,64,0,7,,,,,6,,,,60,92
46653,note_on,,,,,0,0,7,,,,,6,,,,63,92
46654,note_on,,,,,0,0,1,,,,,0,,,,78,92
46654,note_on,,,,,2,0,1,,,,,0,,,,72,92
46655,note_on,,,,,64,0,8,,,,,7,,,,45,92
46656,note_on,,,,,94,0,2,,,,,1,,,,63,0
46656,note_on,,,,,0,0,2,,,,,1,,,,51,0
46656,note_on,,,,,64,0,5,,,,,4,,,,57,92
46658,note_on,,,,,0,0,2,,,,,1,,,,63,92
46658,note_on,,,,,2,0,2,,,,,1,,,,51,92
46661,note_on,,,,,0,0,6,,,,,5,,,,66,92
46661,note_on,,,,,64,0,6,,,,,5,,,,57,92
46662,note_on,,,,,64,0,9,,,,,8,,,,33,92
46699,note_on,,,,,46,0,7,,,,,6,,,,63,0
46699,note_on,,,,,0,0,7,,,,,6,,,,60,0
46701,note_on,,,,,0,0,7,,,,,6,,,,63,92
46701,note_on,,,,,2,0,7,,,,,6,,,,60,92
46707,note_on,,,,,0,0,6,,,,,5,,,,57,0
46707,note_on,,,,,46,0,6,,,,,5,,,,66,0
46709,note_on,,,,,0,0,6,,,,,5,,,,66,92
46709,note_on,,,,,2,0,6,,,,,5,,,,57,92
46747,note_on,,,,,0,0,7,,,,,6,,,,60,0
46747,note_on,,,,,46,0,7,,,,,6,,,,63,0
46749,note_on,,,,,2,0,7,,,,,6,,,,60,92
46749,note_on,,,,,0,0,7,,,,,6,,,,63,92
46749,note_on,,,,,94,0,8,,,,,7,,,,45,0
46751,note_on,,,,,2,0,8,,,,,7,,,,45,92
46755,note_on,,,,,46,0,6,,,,,5,,,,66,0
46755,note_on,,,,,0,0,6,,,,,5,,,,57,0
46756,note_on,,,,,94,0,9,,,,,8,,,,33,0
46757,note_on,,,,,0,0,6,,,,,5,,,,66,92
46757,note_on,,,,,2,0,6,,,,,5,,,,57,92
46758,note_on,,,,,2,0,9,,,,,8,,,,33,92
46795,note_on,,,,,46,0,7,,,,,6,,,,63,0
46795,note_on,,,,,0,0,7,,,,,6,,,,60,0
46797,note_on,,,,,2,0,7,,,,,6,,,,60,92
46797,note_on,,,,,0,0,7,,,,,6,,,,63,92
46803,note_on,,,,,0,0,6,,,,,5,,,,57,0
46803,note_on,,,,,46,0,6,,,,,5,,,,66,0
46805,note_on,,,,,2,0,6,,,,,5,,,,57,92
46805,note_on,,,,,0,0,6,,,,,5,,,,66,92
46816,note_on,,,,,160,0,5,,,,,4,,,,57,0
46843,note_on,,,,,0,0,7,,,,,6,,,,60,0
46843,note_on,,,,,46,0,7,,,,,6,,,,63,0
46845,note_on,,,,,0,0,7,,,,,6,,,,63,92
46845,note_on,,,,,2,0,7,,,,,6,,,,60,92
46845,note_on,,,,,94,0,8,,,,,7,,,,45,0
46847,note_on,,,,,2,0,8,,,,,7,,,,45,92
46848,note_on,,,,,32,0,5,,,,,4,,,,84,92
46851,note_on,,,,,46,0,6,,,,,5,,,,66,0
46851,note_on,,,,,0,0,6,,,,,5,,,,57,0
46852,note_on,,,,,94,0,9,,,,,8,,,,33,0
46853,note_on,,,,,2,0,6,,,,,5,,,,57,92
46853,note_on,,,,,0,0,6,,,,,5,,,,66,92
46854,note_on,,,,,2,0,9,,,,,8,,,,33,92
46891,note_on,,,,,46,0,7,,,,,6,,,,63,0
46891,note_on,,,,,0,0,7,,,,,6,,,,60,0
46893,note_on,,,,,0,0,7,,,,,6,,,,63,92
46893,note_on,,,,,2,0,7,,,,,6,,,,60,92
46899,note_on,,,,,46,0,6,,,,,5,,,,66,0
46899,note_on,,,,,0,0,6,,,,,5,,,,57,0
46901,note_on,,,,,0,0,6,,,,,5,,,,66,92
46901,note_on,,,,,2,0,6,,,,,5,,,,57,92
46939,note_on,,,,,46,0,7,,,,,6,,,,63,0
46939,note_on,,,,,0,0,7,,,,,6,,,,60,0
46941,note_on,,,,,0,0,7,,,,,6,,,,63,92
46941,note_on,,,,,94,0,8,,,,,7,,,,45,0
46941,note_on,,,,,2,0,7,,,,,6,,,,60,92
46943,note_on,,,,,2,0,8,,,,,7,,,,45,92
46947,note_on,,,,,0,0,6,,,,,5,,,,57,0
46947,note_on,,,,,46,0,6,,,,,5,,,,66,0
46948,note_on,,,,,94,0,9,,,,,8,,,,33,0
46949,note_on,,,,,2,0,6,,,,,5,,,,57,92
46949,note_on,,,,,0,0,6,,,,,5,,,,66,92
46950,note_on,,,,,2,0,9,,,,,8,,,,33,92
46987,note_on,,,,,0,0,7,,,,,6,,,,60,0
46987,note_on,,,,,46,0,7,,,,,6,,,,63,0
46989,note_on,,,,,2,0,7,,,,,6,,,,60,92
46989,note_on,,,,,0,0,7,,,,,6,,,,63,92
46995,note_on,,,,,0,0,6,,,,,5,,,,57,0
46995,note_on,,,,,46,0,6,,,,,5,,,,66,0
46997,note_on,,,,,2,0,6,,,,,5,,,,57,92
46997,note_on,,,,,0,0,6,,,,,5,,,,66,92
47035,note_on,,,,,46,0,7,,,,,6,,,,63,0
47035,note_on,,,,,0,0,7,,,,,6,,,,60,0
47037,note_on,,,,,0,0,7,,,,,6,,,,63,92
47037,note_on,,,,,2,0,7,,,,,6,,,,60,92
47037,note_on,,,,,94,0,8,,,,,7,,,,45,0
47039,note_on,,,,,2,0,8,,,,,7,,,,45,92
47043,note_on,,,,,46,0,6,,,,,5,,,,66,0
47043,note_on,,,,,0,0,6,,,,,5,,,,57,0
47044,note_on,,,,,94,0,9,,,,,8,,,,33,0
47045,note_on,,,,,0,0,6,,,,,5,,,,66,92
47045,note_on,,,,,2,0,6,,,,,5,,,,57,92
47046,note_on,,,,,2,0,9,,,,,8,,,,33,92
47083,note_on,,,,,46,0,7,,,,,6,,,,63,0
47083,note_on,,,,,0,0,7,,,,,6,,,,60,0
47085,note_on,,,,,2,0,7,,,,,6,,,,60,92
47085,note_on,,,,,0,0,7,,,,,6,,,,63,92
47091,note_on,,,,,46,0,6,,,,,5,,,,66,0
47091,note_on,,,,,0,0,6,,,,,5,,,,57,0
47093,note_on,,,,,2,0,6,,,,,5,,,,57,92
47093,note_on,,,,,0,0,6,,,,,5,,,,66,92
47131,note_on,,,,,46,0,7,,,,,6,,,,63,0
47131,note_on,,,,,0,0,7,,,,,6,,,,60,0
47133,note_on,,,,,0,0,7,,,,,6,,,,63,92
47133,note_on,,,,,94,0,8,,,,,7,,,,45,0
47133,note_on,,,,,2,0,7,,,,,6,,,,60,92
47135,note_on,,,,,2,0,8,,,,,7,,,,45,92
47139,note_on,,,,,0,0,6,,,,,5,,,,57,0
47139,note_on,,,,,46,0,6,,,,,5,,,,66,0
47140,note_on,,,,,94,0,9,,,,,8,,,,33,0
47141,note_on,,,,,0,0,6,,,,,5,,,,66,92
47141,note_on,,,,,2,0,6,,,,,5,,,,57,92
47142,note_on,,,,,2,0,9,,,,,8,,,,33,92
47179,note_on,,,,,46,0,7,,,,,6,,,,63,0
47179,note_on,,,,,0,0,7,,,,,6,,,,60,0
47181,note_on,,,,,2,0,7,,,,,6,,,,60,92
47181,note_on,,,,,0,0,7,,,,,6,,,,63,92
47182,note_on,,,,,528,0,1,,,,,0,,,,78,0
47182,note_on,,,,,0,0,1,,,,,0,,,,72,0
47184,note_on,,,,,336,0,5,,,,,4,,,,84,0
47186,note_on,,,,,0,0,2,,,,,1,,,,51,0
47186,note_on,,,,,528,0,2,,,,,1,,,,63,0
47187,note_on,,,,,0,0,6,,,,,5,,,,57,0
47187,note_on,,,,,46,0,6,,,,,5,,,,66,0
47189,note_on,,,,,2,0,6,,,,,5,,,,57,92
47189,note_on,,,,,0,0,6,,,,,5,,,,66,92
47227,note_on,,,,,46,0,7,,,,,6,,,,63,0
47227,note_on,,,,,0,0,7,,,,,6,,,,60,0
47229,note_on,,,,,2,0,7,,,,,6,,,,58,92
47229,note_on,,,,,0,0,7,,,,,6,,,,63,92
47229,note_on,,,,,94,0,8,,,,,7,,,,45,0
47230,note_on,,,,,0,0,1,,,,,0,,,,79,92
47230,note_on,,,,,48,0,1,,,,,0,,,,75,92
47231,note_on,,,,,2,0,8,,,,,7,,,,46,92
47232,note_on,,,,,48,0,5,,,,,4,,,,58,92
47234,note_on,,,,,48,0,2,,,,,1,,,,63,92
47234,note_on,,,,,0,0,2,,,,,1,,,,67,92
47235,note_on,,,,,0,0,6,,,,,5,,,,57,0
47235,note_on,,,,,46,0,6,,,,,5,,,,66,0
47236,note_on,,,,,94,0,9,,,,,8,,,,33,0
47237,note_on,,,,,0,0,6,,,,,5,,,,67,92
47237,note_on,,,,,2,0,6,,,,,5,,,,58,92
47238,note_on,,,,,2,0,9,,,,,8,,,,34,92
47275,note_on,,,,,0,0,7,,,,,6,,,,58,0
47275,note_on,,,,,46,0,7,,,,,6,,,,63,0
47277,note_on,,,,,0,0,7,,,,,6,,,,63,92
47277,note_on,,,,,2,0,7,,,,,6,,,,58,92
47283,note_on,,,,,0,0,6,,,,,5,,,,58,0
47283,note_on,,,,,46,0,6,,,,,5,,,,67,0
47285,note_on,,,,,2,0,6,,,,,5,,,,58,92
47285,note_on,,,,,0,0,6,,,,,5,,,,67,92
47323,note_on,,,,,0,0,7,,,,,6,,,,58,0
47323,note_on,,,,,46,0,7,,,,,6,,,,63,0
47325,note_on,,,,,0,0,7,,,,,6,,,,63,92
47325,note_on,,,,,2,0,7,,,,,6,,,,58,92
47325,note_on,,,,,94,0,8,,,,,7,,,,46,0
47327,note_on,,,,,2,0,8,,,,,7,,,,46,92
47331,note_on,,,,,46,0,6,,,,,5,,,,67,0
47331,note_on,,,,,0,0,6,,,,,5,,,,58,0
47332,note_on,,,,,94,0,9,,,,,8,,,,34,0
47333,note_on,,,,,2,0,6,,,,,5,,,,58,92
47333,note_on,,,,,0,0,6,,,,,5,,,,67,92
47334,note_on,,,,,2,0,9,,,,,8,,,,34,92
47371,note_on,,,,,46,0,7,,,,,6,,,,63,0
47371,note_on,,,,,0,0,7,,,,,6,,,,58,0
47373,note_on,,,,,2,0,7,,,,,6,,,,58,92
47373,note_on,,,,,0,0,7,,,,,6,,,,63,92
47379,note_on,,,,,46,0,6,,,,,5,,,,67,0
47379,note_on,,,,,0,0,6,,,,,5,,,,58,0
47381,note_on,,,,,2,0,6,,,,,5,,,,58,92
47381,note_on,,,,,0,0,6,,,,,5,,,,67,92
47390,note_on,,,,,0,0,1,,,,,0,,,,75,0
47390,note_on,,,,,160,0,1,,,,,0,,,,79,0
47392,note_on,,,,,160,0,5,,,,,4,,,,58,0
47394,note_on,,,,,0,0,2,,,,,1,,,,63,0
47394,note_on,,,,,160,0,2,,,,,1,,,,67,0
47419,note_on,,,,,46,0,7,,,,,6,,,,63,0
47419,note_on,,,,,0,0,7,,,,,6,,,,58,0
47421,note_on,,,,,94,0,8,,,,,7,,,,46,0
47421,note_on,,,,,2,0,7,,,,,6,,,,58,92
47421,note_on,,,,,0,0,7,,,,,6,,,,63,92
47422,note_on,,,,,0,0,1,,,,,0,,,,79,92
47422,note_on,,,,,32,0,1,,,,,0,,,,75,92
47423,note_on,,,,,2,0,8,,,,,7,,,,46,92
47424,note_on,,,,,32,0,5,,,,,4,,,,82,92
47426,note_on,,,,,32,0,2,,,,,1,,,,63,92
47426,note_on,,,,,0,0,2,,,,,1,,,,67,92
47427,note_on,,,,,0,0,6,,,,,5,,,,58,0
47427,note_on,,,,,46,0,6,,,,,5,,,,67,0
47428,note_on,,,,,94,0,9,,,,,8,,,,34,0
47429,note_on,,,,,0,0,6,,,,,5,,,,67,92
47429,note_on,,,,,2,0,6,,,,,5,,,,58,92
47430,note_on,,,,,2,0,9,,,,,8,,,,34,92
47467,note_on,,,,,46,0,7,,,,,6,,,,63,0
47467,note_on,,,,,0,0,7,,,,,6,,,,58,0
47469,note_on,,,,,0,0,7,,,,,6,,,,63,92
47469,note_on,,,,,2,0,7,,,,,6,,,,58,92
47475,note_on,,,,,46,0,6,,,,,5,,,,67,0
47475,note_on,,,,,0,0,6,,,,,5,,,,58,0
47477,note_on,,,,,2,0,6,,,,,5,,,,58,92
47477,note_on,,,,,0,0,6,,,,,5,,,,67,92
47515,note_on,,,,,0,0,7,,,,,6,,,,58,0
47515,note_on,,,,,46,0,7,,,,,6,,,,63,0
47517,note_on,,,,,2,0,7,,,,,6,,,,58,92
47517,note_on,,,,,94,0,8,,,,,7,,,,46,0
47517,note_on,,,,,0,0,7,,,,,6,,,,63,92
47519,note_on,,,,,2,0,8,,,,,7,,,,46,92
47523,note_on,,,,,46,0,6,,,,,5,,,,67,0
47523,note_on,,,,,0,0,6,,,,,5,,,,58,0
47524,note_on,,,,,94,0,9,,,,,8,,,,34,0
47525,note_on,,,,,0,0,6,,,,,5,,,,67,92
47525,note_on,,,,,2,0,6,,,,,5,,,,58,92
47526,note_on,,,,,2,0,9,,,,,8,,,,34,92
47563,note_on,,,,,46,0,7,,,,,6,,,,63,0
47563,note_on,,,,,0,0,7,,,,,6,,,,58,0
47564,note_on,,,,,0,0,1,,,,,0,,,,75,0
47564,note_on,,,,,142,0,1,,,,,0,,,,79,0
47565,note_on,,,,,2,0,7,,,,,6,,,,58,92
47565,note_on,,,,,0,0,7,,,,,6,,,,63,92
47566,note_on,,,,,0,0,1,,,,,0,,,,79,92
47566,note_on,,,,,2,0,1,,,,,0,,,,75,92
47568,note_on,,,,,0,0,2,,,,,1,,,,63,0
47568,note_on,,,,,142,0,2,,,,,1,,,,67,0
47570,note_on,,,,,2,0,2,,,,,1,,,,63,92
47570,note_on,,,,,0,0,2,,,,,1,,,,67,92
47571,note_on,,,,,46,0,6,,,,,5,,,,67,0
47571,note_on,,,,,0,0,6,,,,,5,,,,58,0
47573,note_on,,,,,0,0,6,,,,,5,,,,67,92
47573,note_on,,,,,2,0,6,,,,,5,,,,58,92
47611,note_on,,,,,46,0,7,,,,,6,,,,63,0
47611,note_on,,,,,0,0,7,,,,,6,,,,58,0
47612,note_on,,,,,46,0,1,,,,,0,,,,79,0
47612,note_on,,,,,0,0,1,,,,,0,,,,75,0
47613,note_on,,,,,0,0,7,,,,,6,,,,63,92
47613,note_on,,,,,2,0,7,,,,,6,,,,58,92
47613,note_on,,,,,94,0,8,,,,,7,,,,46,0
47614,note_on,,,,,0,0,1,,,,,0,,,,79,92
47614,note_on,,,,,2,0,1,,,,,0,,,,75,92
47615,note_on,,,,,2,0,8,,,,,7,,,,46,92
47616,note_on,,,,,0,0,2,,,,,1,,,,63,0
47616,note_on,,,,,46,0,2,,,,,1,,,,67,0
47618,note_on,,,,,0,0,2,,,,,1,,,,67,92
47618,note_on,,,,,2,0,2,,,,,1,,,,63,92
47619,note_on,,,,,46,0,6,,,,,5,,,,67,0
47619,note_on,,,,,0,0,6,,,,,5,,,,58,0
47620,note_on,,,,,94,0,9,,,,,8,,,,34,0
47621,note_on,,,,,2,0,6,,,,,5,,,,58,92
47621,note_on,,,,,0,0,6,,,,,5,,,,67,92
47622,note_on,,,,,2,0,9,,,,,8,,,,34,92
47659,note_on,,,,,46,0,7,,,,,6,,,,63,0
47659,note_on,,,,,0,0,7,,,,,6,,,,58,0
47661,note_on,,,,,2,0,7,,,,,6,,,,58,92
47661,note_on,,,,,0,0,7,,,,,6,,,,63,92
47667,note_on,,,,,46,0,6,,,,,5,,,,67,0
47667,note_on,,,,,0,0,6,,,,,5,,,,58,0
47669,note_on,,,,,2,0,6,,,,,5,,,,58,92
47669,note_on,,,,,0,0,6,,,,,5,,,,67,92
47680,note_on,,,,,256,0,5,,,,,4,,,,82,0
47707,note_on,,,,,0,0,7,,,,,6,,,,58,0
47707,note_on,,,,,46,0,7,,,,,6,,,,63,0
47709,note_on,,,,,94,0,8,,,,,7,,,,46,0
47709,note_on,,,,,0,0,7,,,,,6,,,,63,92
47709,note_on,,,,,2,0,7,,,,,6,,,,58,92
47711,note_on,,,,,2,0,8,,,,,7,,,,46,92
47712,note_on,,,,,32,0,5,,,,,4,,,,79,92
47715,note_on,,,,,46,0,6,,,,,5,,,,67,0
47715,note_on,,,,,0,0,6,,,,,5,,,,58,0
47716,note_on,,,,,94,0,9,,,,,8,,,,34,0
47717,note_on,,,,,2,0,6,,,,,5,,,,58,92
47717,note_on,,,,,0,0,6,,,,,5,,,,67,92
47718,note_on,,,,,2,0,9,,,,,8,,,,34,92
47755,note_on,,,,,46,0,7,,,,,6,,,,63,0
47755,note_on,,,,,0,0,7,,,,,6,,,,58,0
47756,note_on,,,,,0,0,1,,,,,0,,,,75,0
47756,note_on,,,,,142,0,1,,,,,0,,,,79,0
47757,note_on,,,,,0,0,7,,,,,6,,,,63,92
47757,note_on,,,,,2,0,7,,,,,6,,,,58,92
47758,note_on,,,,,2,0,1,,,,,0,,,,75,92
47758,note_on,,,,,0,0,1,,,,,0,,,,79,92
47760,note_on,,,,,0,0,2,,,,,1,,,,63,0
47760,note_on,,,,,142,0,2,,,,,1,,,,67,0
47760,note_on,,,,,48,0,5,,,,,4,,,,79,0
47760,note_on,,,,,0,0,5,,,,,4,,,,75,92
47762,note_on,,,,,0,0,2,,,,,1,,,,67,92
47762,note_on,,,,,2,0,2,,,,,1,,,,63,92
47763,note_on,,,,,0,0,6,,,,,5,,,,58,0
47763,note_on,,,,,46,0,6,,,,,5,,,,67,0
47765,note_on,,,,,0,0,6,,,,,5,,,,67,92
47765,note_on,,,,,2,0,6,,,,,5,,,,58,92
47803,note_on,,,,,46,0,7,,,,,6,,,,63,0
47803,note_on,,,,,0,0,7,,,,,6,,,,58,0
47804,note_on,,,,,46,0,1,,,,,0,,,,79,0
47804,note_on,,,,,0,0,1,,,,,0,,,,75,0
47805,note_on,,,,,0,0,7,,,,,6,,,,63,92
47805,note_on,,,,,2,0,7,,,,,6,,,,58,92
47805,note_on,,,,,94,0,8,,,,,7,,,,46,0
47806,note_on,,,,,46,0,5,,,,,4,,,,75,0
47806,note_on,,,,,2,0,1,,,,,0,,,,75,92
47806,note_on,,,,,0,0,1,,,,,0,,,,79,92
47807,note_on,,,,,2,0,8,,,,,7,,,,46,92
47808,note_on,,,,,46,0,2,,,,,1,,,,67,0
47808,note_on,,,,,2,0,5,,,,,4,,,,82,92
47808,note_on,,,,,0,0,2,,,,,1,,,,63,0
47810,note_on,,,,,0,0,2,,,,,1,,,,67,92
47810,note_on,,,,,2,0,2,,,,,1,,,,63,92
47811,note_on,,,,,46,0,6,,,,,5,,,,67,0
47811,note_on,,,,,0,0,6,,,,,5,,,,58,0
47812,note_on,,,,,94,0,9,,,,,8,,,,34,0
47813,note_on,,,,,2,0,6,,,,,5,,,,58,92
47813,note_on,,,,,0,0,6,,,,,5,,,,67,92
47814,note_on,,,,,2,0,9,,,,,8,,,,34,92
47851,note_on,,,,,46,0,7,,,,,6,,,,63,0
47851,note_on,,,,,0,0,7,,,,,6,,,,58,0
47853,note_on,,,,,0,0,7,,,,,6,,,,63,92
47853,note_on,,,,,2,0,7,,,,,6,,,,58,92
47859,note_on,,,,,0,0,6,,,,,5,,,,58,0
47859,note_on,,,,,46,0,6,,,,,5,,,,67,0
47861,note_on,,,,,2,0,6,,,,,5,,,,58,92
47861,note_on,,,,,0,0,6,,,,,5,,,,67,92
47899,note_on,,,,,0,0,7,,,,,6,,,,58,0
47899,note_on,,,,,46,0,7,,,,,6,,,,63,0
47901,note_on,,,,,0,0,7,,,,,6,,,,63,92
47901,note_on,,,,,94,0,8,,,,,7,,,,46,0
47901,note_on,,,,,2,0,7,,,,,6,,,,58,92
47902,note_on,,,,,94,0,5,,,,,4,,,,82,0
47903,note_on,,,,,2,0,8,,,,,7,,,,46,92
47904,note_on,,,,,2,0,5,,,,,4,,,,79,92
47907,note_on,,,,,46,0,6,,,,,5,,,,67,0
47907,note_on,,,,,0,0,6,,,,,5,,,,58,0
47908,note_on,,,,,94,0,9,,,,,8,,,,34,0
47909,note_on,,,,,0,0,6,,,,,5,,,,67,92
47909,note_on,,,,,2,0,6,,,,,5,,,,58,92
47910,note_on,,,,,2,0,9,,,,,8,,,,34,92
47947,note_on,,,,,0,0,7,,,,,6,,,,58,0
47947,note_on,,,,,46,0,7,,,,,6,,,,63,0
47949,note_on,,,,,0,0,7,,,,,6,,,,63,92
47949,note_on,,,,,2,0,7,,,,,6,,,,58,92
47952,note_on,,,,,48,0,5,,,,,4,,,,79,0
47952,note_on,,,,,0,0,5,,,,,4,,,,75,92
47955,note_on,,,,,46,0,6,,,,,5,,,,67,0
47955,note_on,,,,,0,0,6,,,,,5,,,,58,0
47957,note_on,,,,,0,0,6,,,,,5,,,,67,92
47957,note_on,,,,,2,0,6,,,,,5,,,,58,92
47966,note_on,,,,,0,0,1,,,,,0,,,,75,0
47966,note_on,,,,,160,0,1,,,,,0,,,,79,0
47970,note_on,,,,,160,0,2,,,,,1,,,,67,0
47970,note_on,,,,,0,0,2,,,,,1,,,,63,0
47995,note_on,,,,,46,0,7,,,,,6,,,,63,0
47995,note_on,,,,,0,0,7,,,,,6,,,,58,0
47997,note_on,,,,,2,0,7,,,,,6,,,,58,92
47997,note_on,,,,,0,0,7,,,,,6,,,,63,92
47997,note_on,,,,,94,0,8,,,,,7,,,,46,0
47998,note_on,,,,,0,0,1,,,,,0,,,,79,92
47998,note_on,,,,,32,0,1,,,,,0,,,,75,92
47998,note_on,,,,,46,0,5,,,,,4,,,,75,0
47999,note_on,,,,,2,0,8,,,,,7,,,,46,92
48000,note_on,,,,,2,0,5,,,,,4,,,,70,92
48002,note_on,,,,,32,0,2,,,,,1,,,,63,92
48002,note_on,,,,,0,0,2,,,,,1,,,,67,92
48003,note_on,,,,,0,0,6,,,,,5,,,,58,0
48003,note_on,,,,,46,0,6,,,,,5,,,,67,0
48004,note_on,,,,,94,0,9,,,,,8,,,,34,0
48005,note_on,,,,,2,0,6,,,,,5,,,,58,92
48005,note_on,,,,,0,0,6,,,,,5,,,,67,92
48006,note_on,,,,,2,0,9,,,,,8,,,,34,92
48043,note_on,,,,,0,0,7,,,,,6,,,,58,0
48043,note_on,,,,,46,0,7,,,,,6,,,,63,0
48045,note_on,,,,,0,0,7,,,,,6,,,,63,92
48045,note_on,,,,,2,0,7,,,,,6,,,,58,92
48051,note_on,,,,,46,0,6,,,,,5,,,,67,0
48051,note_on,,,,,0,0,6,,,,,5,,,,58,0
48053,note_on,,,,,2,0,6,,,,,5,,,,58,92
48053,note_on,,,,,0,0,6,,,,,5,,,,67,92
48091,note_on,,,,,46,0,7,,,,,6,,,,63,0
48091,note_on,,,,,0,0,7,,,,,6,,,,58,0
48093,note_on,,,,,0,0,7,,,,,6,,,,63,92
48093,note_on,,,,,2,0,7,,,,,6,,,,58,92
48093,note_on,,,,,94,0,8,,,,,7,,,,46,0
48095,note_on,,,,,2,0,8,,,,,7,,,,46,92
48099,note_on,,,,,46,0,6,,,,,5,,,,67,0
48099,note_on,,,,,0,0,6,,,,,5,,,,58,0
48100,note_on,,,,,94,0,9,,,,,8,,,,34,0
48101,note_on,,,,,2,0,6,,,,,5,,,,58,92
48101,note_on,,,,,0,0,6,,,,,5,,,,67,92
48102,note_on,,,,,2,0,9,,,,,8,,,,34,92
48139,note_on,,,,,0,0,7,,,,,6,,,,58,0
48139,note_on,,,,,46,0,7,,,,,6,,,,63,0
48141,note_on,,,,,2,0,7,,,,,6,,,,58,92
48141,note_on,,,,,0,0,7,,,,,6,,,,63,92
48147,note_on,,,,,46,0,6,,,,,5,,,,67,0
48147,note_on,,,,,0,0,6,,,,,5,,,,58,0
48149,note_on,,,,,0,0,6,,,,,5,,,,67,92
48149,note_on,,,,,2,0,6,,,,,5,,,,58,92
48160,note_on,,,,,160,0,5,,,,,4,,,,70,0
48162,note_on,,,,,0,0,2,,,,,1,,,,63,0
48162,note_on,,,,,160,0,2,,,,,1,,,,67,0
48187,note_on,,,,,0,0,7,,,,,6,,,,58,0
48187,note_on,,,,,46,0,7,,,,,6,,,,63,0
48189,note_on,,,,,2,0,7,,,,,6,,,,58,92
48189,note_on,,,,,0,0,7,,,,,6,,,,62,92
48189,note_on,,,,,94,0,8,,,,,7,,,,46,0
48190,note_on,,,,,0,0,1,,,,,0,,,,74,92
48190,note_on,,,,,0,0,1,,,,,0,,,,75,0
48190,note_on,,,,,192,0,1,,,,,0,,,,79,0
48190,note_on,,,,,0,0,1,,,,,0,,,,77,92
48191,note_on,,,,,2,0,8,,,,,7,,,,46,92
48192,note_on,,,,,32,0,5,,,,,4,,,,79,92
48194,note_on,,,,,32,0,2,,,,,1,,,,58,92
48194,note_on,,,,,0,0,2,,,,,1,,,,65,92
48195,note_on,,,,,0,0,6,,,,,5,,,,58,0
48195,note_on,,,,,46,0,6,,,,,5,,,,67,0
48196,note_on,,,,,94,0,9,,,,,8,,,,34,0
48197,note_on,,,,,2,0,6,,,,,5,,,,56,92
48197,note_on,,,,,0,0,6,,,,,5,,,,65,92
48198,note_on,,,,,2,0,9,,,,,8,,,,34,92
48216,note_on,,,,,24,0,5,,,,,4,,,,79,0
48216,note_on,,,,,0,0,5,,,,,4,,,,77,92
48235,note_on,,,,,0,0,7,,,,,6,,,,58,0
48235,note_on,,,,,46,0,7,,,,,6,,,,62,0
48237,note_on,,,,,2,0,7,,,,,6,,,,58,92
48237,note_on,,,,,0,0,7,,,,,6,,,,62,92
48240,note_on,,,,,0,0,5,,,,,4,,,,79,92
48240,note_on,,,,,24,0,5,,,,,4,,,,77,0
48243,note_on,,,,,0,0,6,,,,,5,,,,56,0
48243,note_on,,,,,46,0,6,,,,,5,,,,65,0
48245,note_on,,,,,0,0,6,,,,,5,,,,65,92
48245,note_on,,,,,2,0,6,,,,,5,,,,56,92
48264,note_on,,,,,0,0,5,,,,,4,,,,77,92
48264,note_on,,,,,24,0,5,,,,,4,,,,79,0
48283,note_on,,,,,46,0,7,,,,,6,,,,62,0
48283,note_on,,,,,0,0,7,,,,,6,,,,58,0
48285,note_on,,,,,0,0,7,,,,,6,,,,62,92
48285,note_on,,,,,2,0,7,,,,,6,,,,58,92
48285,note_on,,,,,94,0,8,,,,,7,,,,46,0
48287,note_on,,,,,2,0,8,,,,,7,,,,46,92
48288,note_on,,,,,0,0,5,,,,,4,,,,79,92
48288,note_on,,,,,24,0,5,,,,,4,,,,77,0
48291,note_on,,,,,46,0,6,,,,,5,,,,65,0
48291,note_on,,,,,0,0,6,,,,,5,,,,56,0
48292,note_on,,,,,94,0,9,,,,,8,,,,34,0
48293,note_on,,,,,2,0,6,,,,,5,,,,56,92
48293,note_on,,,,,0,0,6,,,,,5,,,,65,92
48294,note_on,,,,,2,0,9,,,,,8,,,,34,92
48312,note_on,,,,,0,0,5,,,,,4,,,,77,92
48312,note_on,,,,,24,0,5,,,,,4,,,,79,0
48331,note_on,,,,,0,0,7,,,,,6,,,,58,0
48331,note_on,,,,,46,0,7,,,,,6,,,,62,0
48333,note_on,,,,,2,0,7,,,,,6,,,,58,92
48333,note_on,,,,,0,0,7,,,,,6,,,,62,92
48336,note_on,,,,,24,0,5,,,,,4,,,,77,0
48336,note_on,,,,,0,0,5,,,,,4,,,,75,92
48339,note_on,,,,,46,0,6,,,,,5,,,,65,0
48339,note_on,,,,,0,0,6,,,,,5,,,,56,0
48341,note_on,,,,,2,0,6,,,,,5,,,,56,92
48341,note_on,,,,,0,0,6,,,,,5,,,,65,92
48350,note_on,,,,,0,0,1,,,,,0,,,,74,0
48350,note_on,,,,,160,0,1,,,,,0,,,,77,0
48354,note_on,,,,,0,0,2,,,,,1,,,,58,0
48354,note_on,,,,,160,0,2,,,,,1,,,,65,0
48360,note_on,,,,,0,0,5,,,,,4,,,,77,92
48360,note_on,,,,,24,0,5,,,,,4,,,,75,0
48379,note_on,,,,,46,0,7,,,,,6,,,,62,0
48379,note_on,,,,,0,0,7,,,,,6,,,,58,0
48381,note_on,,,,,0,0,7,,,,,6,,,,63,92
48381,note_on,,,,,2,0,7,,,,,6,,,,58,92
48381,note_on,,,,,94,0,8,,,,,7,,,,46,0
48382,note_on,,,,,32,0,1,,,,,0,,,,75,92
48383,note_on,,,,,2,0,8,,,,,7,,,,51,92
48384,note_on,,,,,24,0,5,,,,,4,,,,77,0
48384,note_on,,,,,0,0,5,,,,,4,,,,75,92
48386,note_on,,,,,32,0,2,,,,,1,,,,55,92
48386,note_on,,,,,0,0,2,,,,,1,,,,63,92
48387,note_on,,,,,0,0,6,,,,,5,,,,56,0
48387,note_on,,,,,46,0,6,,,,,5,,,,65,0
48388,note_on,,,,,94,0,9,,,,,8,,,,34,0
48389,note_on,,,,,0,0,6,,,,,5,,,,63,92
48389,note_on,,,,,2,0,6,,,,,5,,,,55,92
48390,note_on,,,,,2,0,9,,,,,8,,,,39,92
48475,note_on,,,,,94,0,7,,,,,6,,,,63,0
48475,note_on,,,,,0,0,7,,,,,6,,,,58,0
48476,note_on,,,,,94,0,1,,,,,0,,,,75,0
48477,note_on,,,,,2,0,7,,,,,6,,,,55,92
48478,note_on,,,,,2,0,1,,,,,0,,,,70,92
48480,note_on,,,,,94,0,2,,,,,1,,,,63,0
48482,note_on,,,,,2,0,2,,,,,1,,,,58,92
48483,note_on,,,,,0,0,6,,,,,5,,,,55,0
48483,note_on,,,,,94,0,6,,,,,5,,,,63,0
48485,note_on,,,,,2,0,6,,,,,5,,,,63,92
48523,note_on,,,,,46,0,7,,,,,6,,,,55,0
48525,note_on,,,,,2,0,7,,,,,6,,,,55,92
48531,note_on,,,,,46,0,6,,,,,5,,,,63,0
48533,note_on,,,,,2,0,6,,,,,5,,,,63,92
48543,note_on,,,,,160,0,8,,,,,7,,,,51,0
48544,note_on,,,,,160,0,5,,,,,4,,,,75,0
48550,note_on,,,,,160,0,9,,,,,8,,,,39,0
48571,note_on,,,,,46,0,7,,,,,6,,,,55,0
48572,note_on,,,,,94,0,1,,,,,0,,,,70,0
48573,note_on,,,,,2,0,7,,,,,6,,,,55,92
48574,note_on,,,,,2,0,1,,,,,0,,,,75,92
48575,note_on,,,,,32,0,8,,,,,7,,,,39,92
48576,set_tempo,,,,,4608,1,0,,400000,,,,,,,,
48576,note_on,,,,,94,0,2,,,,,1,,,,58,0
48576,note_on,,,,,0,0,2,,,,,1,,,,55,0
48578,note_on,,,,,2,0,2,,,,,1,,,,63,92
48579,note_on,,,,,46,0,6,,,,,5,,,,63,0
48581,note_on,,,,,2,0,6,,,,,5,,,,63,92
48582,note_on,,,,,32,0,9,,,,,8,,,,27,92
48667,note_on,,,,,94,0,7,,,,,6,,,,55,0
48668,note_on,,,,,94,0,1,,,,,0,,,,75,0
48669,note_on,,,,,2,0,7,,,,,6,,,,63,92
48670,note_on,,,,,2,0,1,,,,,0,,,,70,92
48672,note_on,,,,,128,0,5,,,,,4,,,,70,92
48672,note_on,,,,,94,0,2,,,,,1,,,,63,0
48674,note_on,,,,,0,0,2,,,,,1,,,,58,92
48674,note_on,,,,,2,0,2,,,,,1,,,,46,92
48675,note_on,,,,,94,0,6,,,,,5,,,,63,0
48677,note_on,,,,,2,0,6,,,,,5,,,,67,92
48715,note_on,,,,,46,0,7,,,,,6,,,,63,0
48717,note_on,,,,,2,0,7,,,,,6,,,,63,92
48720,note_on,,,,,0,0,5,,,,,4,,,,75,92
48720,note_on,,,,,48,0,5,,,,,4,,,,70,0
48723,note_on,,,,,46,0,6,,,,,5,,,,67,0
48725,note_on,,,,,2,0,6,,,,,5,,,,67,92
48735,note_on,,,,,160,0,8,,,,,7,,,,39,0
48742,note_on,,,,,160,0,9,,,,,8,,,,27,0
48763,note_on,,,,,46,0,7,,,,,6,,,,63,0
48764,note_on,,,,,94,0,1,,,,,0,,,,70,0
48765,note_on,,,,,2,0,7,,,,,6,,,,63,92
48766,note_on,,,,,2,0,1,,,,,0,,,,75,92
48766,note_on,,,,,46,0,5,,,,,4,,,,75,0
48768,note_on,,,,,94,0,2,,,,,1,,,,58,0
48768,note_on,,,,,2,0,5,,,,,4,,,,79,92
48768,note_on,,,,,0,0,2,,,,,1,,,,46,0
48770,note_on,,,,,0,0,2,,,,,1,,,,63,92
48770,note_on,,,,,2,0,2,,,,,1,,,,51,92
48771,note_on,,,,,46,0,6,,,,,5,,,,67,0
48773,note_on,,,,,2,0,6,,,,,5,,,,67,92
48859,note_on,,,,,94,0,7,,,,,6,,,,63,0
48860,note_on,,,,,94,0,1,,,,,0,,,,75,0
48861,note_on,,,,,2,0,7,,,,,6,,,,67,92
48862,note_on,,,,,2,0,1,,,,,0,,,,79,92
48862,note_on,,,,,94,0,5,,,,,4,,,,79,0
48864,note_on,,,,,2,0,5,,,,,4,,,,75,92
48864,note_on,,,,,94,0,2,,,,,1,,,,63,0
48864,note_on,,,,,0,0,2,,,,,1,,,,51,0
48866,note_on,,,,,2,0,2,,,,,1,,,,55,92
48866,note_on,,,,,0,0,2,,,,,1,,,,67,92
48867,note_on,,,,,94,0,6,,,,,5,,,,67,0
48869,note_on,,,,,2,0,6,,,,,5,,,,70,92
48907,note_on,,,,,46,0,7,,,,,6,,,,67,0
48909,note_on,,,,,2,0,7,,,,,6,,,,67,92
48912,note_on,,,,,0,0,5,,,,,4,,,,79,92
48912,note_on,,,,,48,0,5,,,,,4,,,,75,0
48915,note_on,,,,,46,0,6,,,,,5,,,,70,0
48917,note_on,,,,,2,0,6,,,,,5,,,,70,92
48955,note_on,,,,,46,0,7,,,,,6,,,,67,0
48956,note_on,,,,,94,0,1,,,,,0,,,,79,0
48957,note_on,,,,,2,0,7,,,,,6,,,,67,92
48958,note_on,,,,,46,0,5,,,,,4,,,,79,0
48958,note_on,,,,,2,0,1,,,,,0,,,,82,92
48960,note_on,,,,,94,0,2,,,,,1,,,,67,0
48960,note_on,,,,,2,0,5,,,,,4,,,,82,92
48960,note_on,,,,,0,0,2,,,,,1,,,,55,0
48962,note_on,,,,,2,0,2,,,,,1,,,,58,92
48962,note_on,,,,,0,0,2,,,,,1,,,,70,92
48963,note_on,,,,,46,0,6,,,,,5,,,,70,0
48965,note_on,,,,,2,0,6,,,,,5,,,,70,92
49011,note_on,,,,,46,0,6,,,,,5,,,,70,0
49013,note_on,,,,,2,0,6,,,,,5,,,,75,92
49055,note_on,,,,,320,0,8,,,,,7,,,,51,92
49059,note_on,,,,,46,0,6,,,,,5,,,,75,0
49061,note_on,,,,,2,0,6,,,,,5,,,,74,92
49062,note_on,,,,,320,0,9,,,,,8,,,,39,92
49107,note_on,,,,,46,0,6,,,,,5,,,,74,0
49109,note_on,,,,,2,0,6,,,,,5,,,,72,92
49117,note_on,,,,,160,0,7,,,,,6,,,,67,0
49118,note_on,,,,,160,0,1,,,,,0,,,,82,0
49120,note_on,,,,,160,0,5,,,,,4,,,,82,0
49122,note_on,,,,,160,0,2,,,,,1,,,,70,0
49122,note_on,,,,,0,0,2,,,,,1,,,,58,0
49149,note_on,,,,,94,0,8,,,,,7,,,,51,0
49151,note_on,,,,,2,0,8,,,,,7,,,,55,92
49155,note_on,,,,,46,0,6,,,,,5,,,,72,0
49156,note_on,,,,,94,0,9,,,,,8,,,,39,0
49157,note_on,,,,,2,0,6,,,,,5,,,,70,92
49158,note_on,,,,,2,0,9,,,,,8,,,,43,92
49203,note_on,,,,,46,0,6,,,,,5,,,,70,0
49205,note_on,,,,,2,0,6,,,,,5,,,,70,92
49245,note_on,,,,,128,0,7,,,,,6,,,,70,92
49245,note_on,,,,,94,0,8,,,,,7,,,,55,0
49246,note_on,,,,,128,0,1,,,,,0,,,,75,92
49246,note_on,,,,,0,0,1,,,,,0,,,,79,92
49247,note_on,,,,,2,0,8,,,,,7,,,,51,92
49248,note_on,,,,,128,0,5,,,,,4,,,,75,92
49250,note_on,,,,,128,0,2,,,,,1,,,,63,92
49250,note_on,,,,,0,0,2,,,,,1,,,,67,92
49251,note_on,,,,,46,0,6,,,,,5,,,,70,0
49252,note_on,,,,,94,0,9,,,,,8,,,,43,0
49253,note_on,,,,,2,0,6,,,,,5,,,,67,92
49254,note_on,,,,,2,0,9,,,,,8,,,,39,92
49278,note_on,,,,,32,0,1,,,,,0,,,,79,0
49278,note_on,,,,,0,0,1,,,,,0,,,,75,0
49280,note_on,,,,,32,0,5,,,,,4,,,,75,0
49282,note_on,,,,,0,0,2,,,,,1,,,,63,0
49282,note_on,,,,,32,0,2,,,,,1,,,,67,0
49299,note_on,,,,,46,0,6,,,,,5,,,,67,0
49301,note_on,,,,,2,0,6,,,,,5,,,,70,92
49339,note_on,,,,,94,0,7,,,,,6,,,,70,0
49341,note_on,,,,,94,0,8,,,,,7,,,,51,0
49341,note_on,,,,,2,0,7,,,,,6,,,,70,92
49342,note_on,,,,,64,0,1,,,,,0,,,,77,92
49342,note_on,,,,,0,0,1,,,,,0,,,,80,92
49343,note_on,,,,,2,0,8,,,,,7,,,,58,92
49344,note_on,,,,,64,0,5,,,,,4,,,,77,92
49346,note_on,,,,,0,0,2,,,,,1,,,,68,92
49346,note_on,,,,,64,0,2,,,,,1,,,,65,92
49347,note_on,,,,,46,0,6,,,,,5,,,,70,0
49348,note_on,,,,,94,0,9,,,,,8,,,,39,0
49349,note_on,,,,,2,0,6,,,,,5,,,,68,92
49350,note_on,,,,,2,0,9,,,,,8,,,,46,92
49374,note_on,,,,,32,0,1,,,,,0,,,,80,0
49374,note_on,,,,,0,0,1,,,,,0,,,,77,0
49376,note_on,,,,,32,0,5,,,,,4,,,,77,0
49378,note_on,,,,,0,0,2,,,,,1,,,,65,0
49378,note_on,,,,,32,0,2,,,,,1,,,,68,0
49395,note_on,,,,,46,0,6,,,,,5,,,,68,0
49397,note_on,,,,,2,0,6,,,,,5,,,,70,92
49435,note_on,,,,,94,0,7,,,,,6,,,,70,0
49437,note_on,,,,,2,0,7,,,,,6,,,,70,92
49437,note_on,,,,,94,0,8,,,,,7,,,,58,0
49438,note_on,,,,,64,0,1,,,,,0,,,,74,92
49438,note_on,,,,,0,0,1,,,,,0,,,,77,92
49439,note_on,,,,,2,0,8,,,,,7,,,,46,92
49440,note_on,,,,,64,0,5,,,,,4,,,,74,92
49442,note_on,,,,,0,0,2,,,,,1,,,,65,92
49442,note_on,,,,,64,0,2,,,,,1,,,,58,92
49443,note_on,,,,,46,0,6,,,,,5,,,,70,0
49444,note_on,,,,,94,0,9,,,,,8,,,,46,0
49445,note_on,,,,,2,0,6,,,,,5,,,,65,92
49446,note_on,,,,,2,0,9,,,,,8,,,,34,92
49470,note_on,,,,,0,0,1,,,,,0,,,,74,0
49470,note_on,,,,,32,0,1,,,,,0,,,,77,0
49472,note_on,,,,,32,0,5,,,,,4,,,,74,0
49474,note_on,,,,,32,0,2,,,,,1,,,,65,0
49474,note_on,,,,,0,0,2,,,,,1,,,,58,0
49491,note_on,,,,,46,0,6,,,,,5,,,,65,0
49493,note_on,,,,,2,0,6,,,,,5,,,,70,92
49531,note_on,,,,,94,0,7,,,,,6,,,,70,0
49533,note_on,,,,,2,0,7,,,,,6,,,,70,92
49533,note_on,,,,,94,0,8,,,,,7,,,,46,0
49534,note_on,,,,,64,0,1,,,,,0,,,,75,92
49535,note_on,,,,,2,0,8,,,,,7,,,,51,92
49536,note_on,,,,,64,0,5,,,,,4,,,,75,92
49538,note_on,,,,,64,0,2,,,,,1,,,,55,92
49538,note_on,,,,,0,0,2,,,,,1,,,,63,92
49539,note_on,,,,,46,0,6,,,,,5,,,,70,0
49540,note_on,,,,,94,0,9,,,,,8,,,,34,0
49541,note_on,,,,,2,0,6,,,,,5,,,,67,92
49542,note_on,,,,,2,0,9,,,,,8,,,,39,92
49627,note_on,,,,,94,0,7,,,,,6,,,,70,0
49628,note_on,,,,,94,0,1,,,,,0,,,,75,0
49629,note_on,,,,,2,0,7,,,,,6,,,,55,92
49630,note_on,,,,,2,0,1,,,,,0,,,,70,92
49632,note_on,,,,,94,0,2,,,,,1,,,,63,0
49634,note_on,,,,,2,0,2,,,,,1,,,,58,92
49635,note_on,,,,,94,0,6,,,,,5,,,,67,0
49637,note_on,,,,,2,0,6,,,,,5,,,,63,92
49675,note_on,,,,,46,0,7,,,,,6,,,,55,0
49677,note_on,,,,,2,0,7,,,,,6,,,,55,92
49683,note_on,,,,,46,0,6,,,,,5,,,,63,0
49685,note_on,,,,,2,0,6,,,,,5,,,,63,92
49695,note_on,,,,,160,0,8,,,,,7,,,,51,0
49696,note_on,,,,,160,0,5,,,,,4,,,,75,0
49702,note_on,,,,,160,0,9,,,,,8,,,,39,0
49723,note_on,,,,,46,0,7,,,,,6,,,,55,0
49724,note_on,,,,,94,0,1,,,,,0,,,,70,0
49725,note_on,,,,,2,0,7,,,,,6,,,,55,92
49726,note_on,,,,,2,0,1,,,,,0,,,,75,92
49727,note_on,,,,,32,0,8,,,,,7,,,,39,92
49728,note_on,,,,,94,0,2,,,,,1,,,,58,0
49728,note_on,,,,,0,0,2,,,,,1,,,,55,0
49730,note_on,,,,,2,0,2,,,,,1,,,,63,92
49731,note_on,,,,,46,0,6,,,,,5,,,,63,0
49733,note_on,,,,,2,0,6,,,,,5,,,,63,92
49734,note_on,,,,,32,0,9,,,,,8,,,,27,92
49819,note_on,,,,,94,0,7,,,,,6,,,,55,0
49820,note_on,,,,,94,0,1,,,,,0,,,,75,0
49821,note_on,,,,,2,0,7,,,,,6,,,,63,92
49822,note_on,,,,,2,0,1,,,,,0,,,,70,92
49824,note_on,,,,,128,0,5,,,,,4,,,,70,92
49824,note_on,,,,,94,0,2,,,,,1,,,,63,0
49826,note_on,,,,,0,0,2,,,,,1,,,,58,92
49826,note_on,,,,,2,0,2,,,,,1,,,,46,92
49827,note_on,,,,,94,0,6,,,,,5,,,,63,0
49829,note_on,,,,,2,0,6,,,,,5,,,,67,92
49867,note_on,,,,,46,0,7,,,,,6,,,,63,0
49869,note_on,,,,,2,0,7,,,,,6,,,,63,92
49872,note_on,,,,,0,0,5,,,,,4,,,,75,92
49872,note_on,,,,,48,0,5,,,,,4,,,,70,0
49875,note_on,,,,,46,0,6,,,,,5,,,,67,0
49877,note_on,,,,,2,0,6,,,,,5,,,,67,92
49887,note_on,,,,,160,0,8,,,,,7,,,,39,0
49894,note_on,,,,,160,0,9,,,,,8,,,,27,0
49915,note_on,,,,,46,0,7,,,,,6,,,,63,0
49916,note_on,,,,,94,0,1,,,,,0,,,,70,0
49917,note_on,,,,,2,0,7,,,,,6,,,,63,92
49918,note_on,,,,,2,0,1,,,,,0,,,,75,92
49918,note_on,,,,,46,0,5,,,,,4,,,,75,0
49920,note_on,,,,,2,0,5,,,,,4,,,,79,92
49920,note_on,,,,,0,0,2,,,,,1,,,,46,0
49920,note_on,,,,,94,0,2,,,,,1,,,,58,0
49922,note_on,,,,,0,0,2,,,,,1,,,,63,92
49922,note_on,,,,,2,0,2,,,,,1,,,,51,92
49923,note_on,,,,,46,0,6,,,,,5,,,,67,0
49925,note_on,,,,,2,0,6,,,,,5,,,,67,92
50011,note_on,,,,,94,0,7,,,,,6,,,,63,0
50012,note_on,,,,,94,0,1,,,,,0,,,,75,0
50013,note_on,,,,,2,0,7,,,,,6,,,,67,92
50014,note_on,,,,,94,0,5,,,,,4,,,,79,0
50014,note_on,,,,,2,0,1,,,,,0,,,,79,92
50016,note_on,,,,,94,0,2,,,,,1,,,,63,0
50016,note_on,,,,,0,0,2,,,,,1,,,,51,0
50016,note_on,,,,,2,0,5,,,,,4,,,,75,92
50018,note_on,,,,,2,0,2,,,,,1,,,,55,92
50018,note_on,,,,,0,0,2,,,,,1,,,,67,92
50019,note_on,,,,,94,0,6,,,,,5,,,,67,0
50021,note_on,,,,,2,0,6,,,,,5,,,,70,92
50059,note_on,,,,,46,0,7,,,,,6,,,,67,0
50061,note_on,,,,,2,0,7,,,,,6,,,,67,92
50064,note_on,,,,,48,0,5,,,,,4,,,,75,0
50064,note_on,,,,,0,0,5,,,,,4,,,,79,92
50067,note_on,,,,,46,0,6,,,,,5,,,,70,0
50069,note_on,,,,,2,0,6,,,,,5,,,,70,92
50107,note_on,,,,,46,0,7,,,,,6,,,,67,0
50108,note_on,,,,,94,0,1,,,,,0,,,,79,0
50109,note_on,,,,,2,0,7,,,,,6,,,,67,92
50110,note_on,,,,,46,0,5,,,,,4,,,,79,0
50110,note_on,,,,,2,0,1,,,,,0,,,,82,92
50112,note_on,,,,,94,0,2,,,,,1,,,,67,0
50112,note_on,,,,,2,0,5,,,,,4,,,,82,92
50112,note_on,,,,,0,0,2,,,,,1,,,,55,0
50114,note_on,,,,,2,0,2,,,,,1,,,,58,92
50114,note_on,,,,,0,0,2,,,,,1,,,,70,92
50115,note_on,,,,,46,0,6,,,,,5,,,,70,0
50117,note_on,,,,,2,0,6,,,,,5,,,,70,92
50144,note_on,,,,,32,0,5,,,,,4,,,,82,0
50163,note_on,,,,,46,0,6,,,,,5,,,,70,0
50165,note_on,,,,,2,0,6,,,,,5,,,,75,92
50207,note_on,,,,,320,0,8,,,,,7,,,,51,92
50208,note_on,,,,,64,0,5,,,,,4,,,,82,92
50211,note_on,,,,,46,0,6,,,,,5,,,,75,0
50213,note_on,,,,,2,0,6,,,,,5,,,,74,92
50214,note_on,,,,,320,0,9,,,,,8,,,,39,92
50240,note_on,,,,,32,0,5,,,,,4,,,,82,0
50259,note_on,,,,,46,0,6,,,,,5,,,,74,0
50261,note_on,,,,,2,0,6,,,,,5,,,,72,92
50269,note_on,,,,,160,0,7,,,,,6,,,,67,0
50270,note_on,,,,,160,0,1,,,,,0,,,,82,0
50274,note_on,,,,,160,0,2,,,,,1,,,,70,0
50274,note_on,,,,,0,0,2,,,,,1,,,,58,0
50301,note_on,,,,,94,0,8,,,,,7,,,,51,0
50303,note_on,,,,,2,0,8,,,,,7,,,,55,92
50307,note_on,,,,,46,0,6,,,,,5,,,,72,0
50308,note_on,,,,,94,0,9,,,,,8,,,,39,0
50309,note_on,,,,,2,0,6,,,,,5,,,,70,92
50310,note_on,,,,,2,0,9,,,,,8,,,,43,92
50355,note_on,,,,,46,0,6,,,,,5,,,,70,0
50357,note_on,,,,,2,0,6,,,,,5,,,,70,92
50397,note_on,,,,,128,0,7,,,,,6,,,,70,92
50397,note_on,,,,,94,0,8,,,,,7,,,,55,0
50398,note_on,,,,,0,0,1,,,,,0,,,,79,92
50398,note_on,,,,,128,0,1,,,,,0,,,,75,92
50399,note_on,,,,,2,0,8,,,,,7,,,,51,92
50400,note_on,,,,,160,0,5,,,,,4,,,,80,92
50402,note_on,,,,,128,0,2,,,,,1,,,,63,92
50402,note_on,,,,,0,0,2,,,,,1,,,,67,92
50403,note_on,,,,,46,0,6,,,,,5,,,,70,0
50404,note_on,,,,,94,0,9,,,,,8,,,,43,0
50405,note_on,,,,,2,0,6,,,,,5,,,,63,92
50406,note_on,,,,,2,0,9,,,,,8,,,,39,92
50424,note_on,,,,,0,0,5,,,,,4,,,,79,92
50424,note_on,,,,,24,0,5,,,,,4,,,,80,0
50430,note_on,,,,,0,0,1,,,,,0,,,,75,0
50430,note_on,,,,,32,0,1,,,,,0,,,,79,0
50434,note_on,,,,,32,0,2,,,,,1,,,,67,0
50434,note_on,,,,,0,0,2,,,,,1,,,,63,0
50448,note_on,,,,,0,0,5,,,,,4,,,,77,92
50448,note_on,,,,,24,0,5,,,,,4,,,,79,0
50451,note_on,,,,,46,0,6,,,,,5,,,,63,0
50453,note_on,,,,,2,0,6,,,,,5,,,,70,92
50472,note_on,,,,,24,0,5,,,,,4,,,,77,0
50472,note_on,,,,,0,0,5,,,,,4,,,,79,92
50491,note_on,,,,,94,0,7,,,,,6,,,,70,0
50493,note_on,,,,,2,0,7,,,,,6,,,,70,92
50493,note_on,,,,,94,0,8,,,,,7,,,,51,0
50494,note_on,,,,,64,0,1,,,,,0,,,,77,92
50494,note_on,,,,,0,0,1,,,,,0,,,,80,92
50495,note_on,,,,,2,0,8,,,,,7,,,,58,92
50496,note_on,,,,,0,0,5,,,,,4,,,,80,92
50496,note_on,,,,,24,0,5,,,,,4,,,,79,0
50498,note_on,,,,,64,0,2,,,,,1,,,,65,92
50498,note_on,,,,,0,0,2,,,,,1,,,,68,92
50499,note_on,,,,,46,0,6,,,,,5,,,,70,0
50500,note_on,,,,,94,0,9,,,,,8,,,,39,0
50501,note_on,,,,,2,0,6,,,,,5,,,,65,92
50502,note_on,,,,,2,0,9,,,,,8,,,,46,92
50526,note_on,,,,,0,0,1,,,,,0,,,,77,0
50526,note_on,,,,,32,0,1,,,,,0,,,,80,0
50530,note_on,,,,,32,0,2,,,,,1,,,,68,0
50530,note_on,,,,,0,0,2,,,,,1,,,,65,0
50547,note_on,,,,,46,0,6,,,,,5,,,,65,0
50549,note_on,,,,,2,0,6,,,,,5,,,,70,92
50587,note_on,,,,,94,0,7,,,,,6,,,,70,0
50589,note_on,,,,,2,0,7,,,,,6,,,,70,92
50589,note_on,,,,,94,0,8,,,,,7,,,,58,0
50590,note_on,,,,,94,0,5,,,,,4,,,,80,0
50590,note_on,,,,,64,0,1,,,,,0,,,,74,92
50590,note_on,,,,,0,0,1,,,,,0,,,,77,92
50591,note_on,,,,,2,0,8,,,,,7,,,,46,92
50592,note_on,,,,,2,0,5,,,,,4,,,,77,92
50594,note_on,,,,,0,0,2,,,,,1,,,,65,92
50594,note_on,,,,,64,0,2,,,,,1,,,,58,92
50595,note_on,,,,,46,0,6,,,,,5,,,,70,0
50596,note_on,,,,,94,0,9,,,,,8,,,,46,0
50597,note_on,,,,,2,0,6,,,,,5,,,,62,92
50598,note_on,,,,,2,0,9,,,,,8,,,,34,92
50622,note_on,,,,,32,0,1,,,,,0,,,,77,0
50622,note_on,,,,,0,0,1,,,,,0,,,,74,0
50624,note_on,,,,,32,0,5,,,,,4,,,,77,0
50626,note_on,,,,,32,0,2,,,,,1,,,,65,0
50626,note_on,,,,,0,0,2,,,,,1,,,,58,0
50643,note_on,,,,,46,0,6,,,,,5,,,,62,0
50645,note_on,,,,,2,0,6,,,,,5,,,,70,92
50683,note_on,,,,,94,0,7,,,,,6,,,,70,0
50685,note_on,,,,,94,0,8,,,,,7,,,,46,0
50685,note_on,,,,,2,0,7,,,,,6,,,,67,92
50686,note_on,,,,,64,0,1,,,,,0,,,,75,92
50687,note_on,,,,,2,0,8,,,,,7,,,,51,92
50688,set_tempo,,,,,2112,1,0,,428571,,,,,,,,
50688,note_on,,,,,64,0,5,,,,,4,,,,75,92
50690,note_on,,,,,0,0,2,,,,,1,,,,63,92
50690,note_on,,,,,64,0,2,,,,,1,,,,55,92
50691,note_on,,,,,46,0,6,,,,,5,,,,70,0
50692,note_on,,,,,94,0,9,,,,,8,,,,34,0
50693,note_on,,,,,2,0,6,,,,,5,,,,63,92
50694,note_on,,,,,2,0,9,,,,,8,,,,39,92
50845,note_on,,,,,160,0,7,,,,,6,,,,67,0
50846,note_on,,,,,160,0,1,,,,,0,,,,75,0
50847,note_on,,,,,160,0,8,,,,,7,,,,51,0
50848,note_on,,,,,160,0,5,,,,,4,,,,75,0
50850,note_on,,,,,160,0,2,,,,,1,,,,63,0
50850,note_on,,,,,0,0,2,,,,,1,,,,55,0
50853,note_on,,,,,160,0,6,,,,,5,,,,63,0
50854,note_on,,,,,160,0,9,,,,,8,,,,39,0
50877,note_on,,,,,32,0,7,,,,,6,,,,51,92
50878,note_on,,,,,32,0,1,,,,,0,,,,75,92
50879,note_on,,,,,32,0,8,,,,,7,,,,39,92
50880,note_on,,,,,0,0,5,,,,,4,,,,63,92
50880,note_on,,,,,32,0,5,,,,,4,,,,55,92
50880,set_tempo,,,,,192,1,0,,500000,,,,,,,,
50882,note_on,,,,,32,0,2,,,,,1,,,,51,92
50885,note_on,,,,,0,0,6,,,,,5,,,,63,92
50885,note_on,,,,,32,0,6,,,,,5,,,,55,92
50886,note_on,,,,,32,0,9,,,,,8,,,,27,92
51037,note_on,,,,,160,0,7,,,,,6,,,,51,0
51038,note_on,,,,,160,0,1,,,,,0,,,,75,0
51039,note_on,,,,,160,0,8,,,,,7,,,,39,0
51040,note_on,,,,,160,0,5,,,,,4,,,,63,0
51040,note_on,,,,,0,0,5,,,,,4,,,,55,0
51042,note_on,,,,,160,0,2,,,,,1,,,,51,0
51045,note_on,,,,,160,0,6,,,,,5,,,,63,0
51045,note_on,,,,,0,0,6,,,,,5,,,,55,0
51046,note_on,,,,,160,0,9,,,,,8,,,,27,0
51260,note_on,,,,,0,0,3,,,,,2,,,,70,108
51260,note_on,,,,,0,0,3,,,,,2,,,,75,108
51260,control_change,,,,,50972,0,3,,,,,2,64,127,,,
51260,note_on,,,,,0,0,3,,,,,2,,,,67,108
51260,note_on,,,,,0,0,3,,,,,2,,,,63,108
51264,set_tempo,,,,,384,1,0,,600000,,,,,,,,
51268,control_change,,,,,50972,0,4,,,,,3,64,127,,,
51268,note_on,,,,,0,0,4,,,,,3,,,,39,92
51268,note_on,,,,,0,0,4,,,,,3,,,,43,92
51268,note_on,,,,,0,0,4,,,,,3,,,,46,92
51268,note_on,,,,,0,0,4,,,,,3,,,,51,92
51420,note_on,,,,,160,0,3,,,,,2,,,,75,0
51420,note_on,,,,,0,0,3,,,,,2,,,,70,0
51420,note_on,,,,,0,0,3,,,,,2,,,,67,0
51420,note_on,,,,,0,0,3,,,,,2,,,,63,0
51428,note_on,,,,,160,0,4,,,,,3,,,,46,0
51428,note_on,,,,,0,0,4,,,,,3,,,,43,0
51428,note_on,,,,,0,0,4,,,,,3,,,,39,0
51500,note_on,,,,,0,0,3,,,,,2,,,,75,108
51500,control_change,,,,,80,0,3,,,,,2,64,0,,,
51504,set_tempo,,,,,240,1,0,,375000,,,,,,,,
51548,note_on,,,,,0,0,3,,,,,2,,,,74,108
51548,note_on,,,,,48,0,3,,,,,2,,,,75,0
51596,note_on,,,,,0,0,3,,,,,2,,,,75,108
51596,note_on,,,,,48,0,3,,,,,2,,,,74,0
51644,note_on,,,,,0,0,3,,,,,2,,,,77,108
51644,note_on,,,,,48,0,3,,,,,2,,,,75,0
51692,note_on,,,,,0,0,3,,,,,2,,,,75,108
51692,note_on,,,,,48,0,3,,,,,2,,,,77,0
51740,note_on,,,,,48,0,3,,,,,2,,,,75,0
51740,note_on,,,,,0,0,3,,,,,2,,,,79,108
51788,note_on,,,,,0,0,3,,,,,2,,,,75,108
51788,note_on,,,,,48,0,3,,,,,2,,,,79,0
51796,note_on,,,,,368,0,4,,,,,3,,,,51,0
51836,note_on,,,,,0,0,3,,,,,2,,,,72,108
51836,control_change,,,,,0,0,3,,,,,2,64,127,,,
51836,note_on,,,,,48,0,3,,,,,2,,,,75,0
51840,set_tempo,,,,,336,1,0,,461538,,,,,,,,
51844,control_change,,,,,48,0,4,,,,,3,64,0,,,
51844,control_change,,,,,0,0,4,,,,,3,64,127,,,
51844,note_on,,,,,0,0,4,,,,,3,,,,36,92
51844,note_on,,,,,0,0,4,,,,,3,,,,39,92
51844,note_on,,,,,0,0,4,,,,,3,,,,43,92
51844,note_on,,,,,0,0,4,,,,,3,,,,48,92
51996,note_on,,,,,160,0,3,,,,,2,,,,72,0
52004,note_on,,,,,160,0,4,,,,,3,,,,43,0
52004,note_on,,,,,0,0,4,,,,,3,,,,39,0
52004,note_on,,,,,0,0,4,,,,,3,,,,36,0
52076,note_on,,,,,0,0,3,,,,,2,,,,72,108
52076,control_change,,,,,80,0,3,,,,,2,64,0,,,
52080,set_tempo,,,,,240,1,0,,375000,,,,,,,,
52124,note_on,,,,,0,0,3,,,,,2,,,,71,108
52124,note_on,,,,,48,0,3,,,,,2,,,,72,0
52172,note_on,,,,,0,0,3,,,,,2,,,,72,108
52172,note_on,,,,,48,0,3,,,,,2,,,,71,0
52220,note_on,,,,,0,0,3,,,,,2,,,,74,108
52220,note_on,,,,,48,0,3,,,,,2,,,,72,0
52268,note_on,,,,,0,0,3,,,,,2,,,,72,108
52268,note_on,,,,,48,0,3,,,,,2,,,,74,0
52316,note_on,,,,,0,0,3,,,,,2,,,,75,108
52316,note_on,,,,,48,0,3,,,,,2,,,,72,0
52364,note_on,,,,,48,0,3,,,,,2,,,,75,0
52364,note_on,,,,,0,0,3,,,,,2,,,,72,108
52372,note_on,,,,,368,0,4,,,,,3,,,,48,0
52412,note_on,,,,,48,0,3,,,,,2,,,,72,0
52412,note_on,,,,,0,0,3,,,,,2,,,,67,108
52420,note_on,,,,,0,0,4,,,,,3,,,,55,92
52420,note_on,,,,,0,0,4,,,,,3,,,,43,92
52420,control_change,,,,,48,0,4,,,,,3,64,0,,,
52572,note_on,,,,,160,0,3,,,,,2,,,,67,0
52580,note_on,,,,,0,0,4,,,,,3,,,,43,0
52580,note_on,,,,,160,0,4,,,,,3,,,,55,0
52604,control_change,,,,,32,0,3,,,,,2,64,127,,,
52604,note_on,,,,,0,0,3,,,,,2,,,,70,92
52608,set_tempo,,,,,528,1,0,,400000,,,,,,,,
52612,note_on,,,,,0,0,4,,,,,3,,,,45,92
52612,note_on,,,,,0,0,4,,,,,3,,,,57,92
52612,control_change,,,,,32,0,4,,,,,3,64,127,,,
52636,note_on,,,,,32,0,3,,,,,2,,,,70,0
52636,note_on,,,,,0,0,3,,,,,2,,,,69,92
52668,note_on,,,,,0,0,3,,,,,2,,,,70,92
52668,note_on,,,,,32,0,3,,,,,2,,,,69,0
52700,note_on,,,,,0,0,3,,,,,2,,,,69,92
52700,note_on,,,,,32,0,3,,,,,2,,,,70,0
52732,note_on,,,,,0,0,3,,,,,2,,,,70,92
52732,note_on,,,,,32,0,3,,,,,2,,,,69,0
52764,note_on,,,,,32,0,3,,,,,2,,,,70,0
52764,note_on,,,,,0,0,3,,,,,2,,,,69,92
52796,note_on,,,,,32,0,3,,,,,2,,,,69,0
52796,note_on,,,,,0,0,3,,,,,2,,,,70,92
52828,note_on,,,,,32,0,3,,,,,2,,,,70,0
52828,note_on,,,,,0,0,3,,,,,2,,,,69,92
52860,note_on,,,,,32,0,3,,,,,2,,,,69,0
52860,note_on,,,,,0,0,3,,,,,2,,,,70,92
52892,note_on,,,,,32,0,3,,,,,2,,,,70,0
52892,note_on,,,,,0,0,3,,,,,2,,,,67,92
52940,note_on,,,,,48,0,3,,,,,2,,,,67,0
52940,note_on,,,,,0,0,3,,,,,2,,,,69,92
52948,note_on,,,,,336,0,4,,,,,3,,,,57,0
52948,note_on,,,,,0,0,4,,,,,3,,,,45,0
52988,note_on,,,,,0,0,3,,,,,2,,,,70,92
52988,note_on,,,,,48,0,3,,,,,2,,,,69,0
52988,control_change,,,,,0,0,3,,,,,2,64,0,,,
52996,control_change,,,,,48,0,4,,,,,3,64,0,,,
52996,note_on,,,,,0,0,4,,,,,3,,,,46,92
52996,note_on,,,,,0,0,4,,,,,3,,,,58,92
53156,note_on,,,,,0,0,4,,,,,3,,,,46,0
53156,note_on,,,,,160,0,4,,,,,3,,,,58,0
53276,note_on,,,,,0,0,3,,,,,2,,,,71,75
53276,note_on,,,,,288,0,3,,,,,2,,,,70,0
53372,note_on,,,,,96,0,3,,,,,2,,,,71,0
53372,note_on,,,,,0,0,3,,,,,2,,,,72,75
53468,note_on,,,,,96,0,3,,,,,2,,,,72,0
53468,note_on,,,,,0,0,3,,,,,2,,,,68,75
53564,note_on,,,,,96,0,3,,,,,2,,,,68,0
53564,note_on,,,,,0,0,3,,,,,2,,,,65,75
53572,note_on,,,,,416,0,4,,,,,3,,,,56,75
53572,note_on,,,,,0,0,4,,,,,3,,,,58,75
53572,note_on,,,,,0,0,4,,,,,3,,,,62,75
53724,note_on,,,,,160,0,3,,,,,2,,,,65,0
53732,note_on,,,,,160,0,4,,,,,3,,,,62,0
53732,note_on,,,,,0,0,4,,,,,3,,,,58,0
53732,note_on,,,,,0,0,4,,,,,3,,,,56,0
53756,note_on,,,,,32,0,3,,,,,2,,,,68,75
53764,note_on,,,,,32,0,4,,,,,3,,,,55,75
53764,note_on,,,,,0,0,4,,,,,3,,,,64,75
53764,note_on,,,,,0,0,4,,,,,3,,,,58,75
53788,note_on,,,,,0,0,3,,,,,2,,,,67,75
53788,note_on,,,,,32,0,3,,,,,2,,,,68,0
53820,note_on,,,,,0,0,3,,,,,2,,,,68,75
53820,note_on,,,,,32,0,3,,,,,2,,,,67,0
53852,note_on,,,,,0,0,3,,,,,2,,,,67,75
53852,note_on,,,,,32,0,3,,,,,2,,,,68,0
53884,note_on,,,,,32,0,3,,,,,2,,,,67,0
53884,note_on,,,,,0,0,3,,,,,2,,,,68,75
53916,note_on,,,,,0,0,3,,,,,2,,,,67,75
53916,note_on,,,,,32,0,3,,,,,2,,,,68,0
53948,note_on,,,,,0,0,3,,,,,2,,,,68,75
53948,note_on,,,,,32,0,3,,,,,2,,,,67,0
53980,note_on,,,,,0,0,3,,,,,2,,,,67,75
53980,note_on,,,,,32,0,3,,,,,2,,,,68,0
54012,note_on,,,,,0,0,3,,,,,2,,,,68,75
54012,note_on,,,,,32,0,3,,,,,2,,,,67,0
54044,note_on,,,,,0,0,3,,,,,2,,,,65,75
54044,note_on,,,,,32,0,3,,,,,2,,,,68,0
54092,note_on,,,,,0,0,3,,,,,2,,,,67,75
54092,note_on,,,,,48,0,3,,,,,2,,,,65,0
54100,note_on,,,,,336,0,4,,,,,3,,,,64,0
54100,note_on,,,,,0,0,4,,,,,3,,,,58,0
54100,note_on,,,,,0,0,4,,,,,3,,,,55,0
54140,note_on,,,,,48,0,3,,,,,2,,,,67,0
54140,note_on,,,,,0,0,3,,,,,2,,,,68,75
54148,note_on,,,,,48,0,4,,,,,3,,,,53,75
54148,note_on,,,,,0,0,4,,,,,3,,,,60,75
54148,note_on,,,,,0,0,4,,,,,3,,,,65,75
54308,note_on,,,,,0,0,4,,,,,3,,,,53,0
54308,note_on,,,,,160,0,4,,,,,3,,,,65,0
54308,note_on,,,,,0,0,4,,,,,3,,,,60,0
54428,note_on,,,,,0,0,3,,,,,2,,,,72,60
54428,note_on,,,,,288,0,3,,,,,2,,,,68,0
54432,set_tempo,,,,,1824,1,0,,600000,,,,,,,,
54452,note_on,,,,,0,0,3,,,,,2,,,,70,60
54452,note_on,,,,,24,0,3,,,,,2,,,,72,0
54476,note_on,,,,,0,0,3,,,,,2,,,,68,60
54476,note_on,,,,,24,0,3,,,,,2,,,,70,0
54500,note_on,,,,,0,0,3,,,,,2,,,,70,60
54500,note_on,,,,,24,0,3,,,,,2,,,,68,0
54524,note_on,,,,,0,0,3,,,,,2,,,,72,84
54524,note_on,,,,,24,0,3,,,,,2,,,,70,0
54528,set_tempo,,,,,96,1,0,,400000,,,,,,,,
54684,note_on,,,,,160,0,3,,,,,2,,,,72,0
54716,note_on,,,,,32,0,3,,,,,2,,,,58,92
54724,note_on,,,,,0,0,4,,,,,3,,,,50,75
54724,note_on,,,,,416,0,4,,,,,3,,,,46,75
54876,note_on,,,,,160,0,3,,,,,2,,,,58,0
54884,note_on,,,,,160,0,4,,,,,3,,,,50,0
54908,note_on,,,,,32,0,3,,,,,2,,,,60,75
54916,note_on,,,,,32,0,4,,,,,3,,,,51,75
55068,note_on,,,,,160,0,3,,,,,2,,,,60,0
55076,note_on,,,,,160,0,4,,,,,3,,,,51,0
55100,note_on,,,,,32,0,3,,,,,2,,,,56,75
55100,note_on,,,,,0,0,3,,,,,2,,,,62,75
55108,note_on,,,,,32,0,4,,,,,3,,,,53,75
55252,note_on,,,,,144,0,4,,,,,3,,,,46,0
55260,note_on,,,,,160,0,3,,,,,2,,,,62,0
55260,note_on,,,,,0,0,3,,,,,2,,,,56,0
55268,note_on,,,,,16,0,4,,,,,3,,,,53,0
55292,note_on,,,,,32,0,3,,,,,2,,,,63,75
55300,note_on,,,,,32,0,4,,,,,3,,,,51,75
55300,note_on,,,,,0,0,4,,,,,3,,,,55,75
55388,note_on,,,,,96,0,3,,,,,2,,,,63,0
55388,note_on,,,,,0,0,3,,,,,2,,,,67,92
55460,note_on,,,,,0,0,4,,,,,3,,,,51,0
55460,note_on,,,,,160,0,4,,,,,3,,,,55,0
55484,note_on,,,,,96,0,3,,,,,2,,,,67,0
55484,note_on,,,,,0,0,3,,,,,2,,,,70,92
55580,note_on,,,,,96,0,3,,,,,2,,,,70,0
55580,note_on,,,,,0,0,3,,,,,2,,,,75,92
55676,note_on,,,,,0,0,3,,,,,2,,,,79,92
55676,note_on,,,,,96,0,3,,,,,2,,,,75,0
55772,note_on,,,,,0,0,3,,,,,2,,,,75,92
55772,note_on,,,,,96,0,3,,,,,2,,,,79,0
55866,note_on,,,,,94,0,3,,,,,2,,,,75,0
55868,note_on,,,,,2,0,3,,,,,2,,,,82,108
55872,set_tempo,,,,,1344,1,0,,413793,,,,,,,,
55876,note_on,,,,,416,0,4,,,,,3,,,,62,75
55876,note_on,,,,,0,0,4,,,,,3,,,,65,75
55900,note_on,,,,,32,0,3,,,,,2,,,,82,0
55964,note_on,,,,,64,0,3,,,,,2,,,,82,108
55996,note_on,,,,,32,0,3,,,,,2,,,,82,0
56036,note_on,,,,,0,0,4,,,,,3,,,,62,0
56036,note_on,,,,,160,0,4,,,,,3,,,,65,0
56060,note_on,,,,,64,0,3,,,,,2,,,,82,108
56068,note_on,,,,,32,0,4,,,,,3,,,,63,75
56068,note_on,,,,,0,0,4,,,,,3,,,,66,75
56092,note_on,,,,,32,0,3,,,,,2,,,,82,0
56156,note_on,,,,,64,0,3,,,,,2,,,,82,108
56188,note_on,,,,,32,0,3,,,,,2,,,,82,0
56228,note_on,,,,,160,0,4,,,,,3,,,,66,0
56228,note_on,,,,,0,0,4,,,,,3,,,,63,0
56252,note_on,,,,,64,0,3,,,,,2,,,,82,108
56260,note_on,,,,,32,0,4,,,,,3,,,,64,75
56260,note_on,,,,,0,0,4,,,,,3,,,,67,75
56284,note_on,,,,,32,0,3,,,,,2,,,,82,0
56348,note_on,,,,,64,0,3,,,,,2,,,,82,108
56380,note_on,,,,,32,0,3,,,,,2,,,,82,0
56420,note_on,,,,,0,0,4,,,,,3,,,,64,0
56420,note_on,,,,,160,0,4,,,,,3,,,,67,0
56444,note_on,,,,,64,0,3,,,,,2,,,,82,108
56452,note_on,,,,,32,0,4,,,,,3,,,,65,75
56452,note_on,,,,,0,0,4,,,,,3,,,,68,75
56540,note_on,,,,,0,0,3,,,,,2,,,,83,108
56540,note_on,,,,,96,0,3,,,,,2,,,,82,0
56636,note_on,,,,,96,0,3,,,,,2,,,,83,0
56636,note_on,,,,,0,0,3,,,,,2,,,,84,108
56732,note_on,,,,,96,0,3,,,,,2,,,,84,0
56732,note_on,,,,,0,0,3,,,,,2,,,,76,92
56736,set_tempo,,,,,864,1,0,,400000,,,,,,,,
56740,note_on,,,,,0,0,4,,,,,3,,,,67,75
56740,note_on,,,,,0,0,4,,,,,3,,,,65,0
56740,note_on,,,,,0,0,4,,,,,3,,,,70,75
56740,note_on,,,,,288,0,4,,,,,3,,,,68,0
56828,note_on,,,,,96,0,3,,,,,2,,,,76,0
56828,note_on,,,,,0,0,3,,,,,2,,,,77,92
56836,note_on,,,,,0,0,4,,,,,3,,,,68,75
56836,note_on,,,,,0,0,4,,,,,3,,,,72,75
56836,note_on,,,,,0,0,4,,,,,3,,,,67,0
56836,note_on,,,,,96,0,4,,,,,3,,,,70,0
56924,note_on,,,,,96,0,3,,,,,2,,,,77,0
56924,note_on,,,,,0,0,3,,,,,2,,,,79,92
56996,note_on,,,,,0,0,4,,,,,3,,,,68,0
56996,note_on,,,,,160,0,4,,,,,3,,,,72,0
57020,note_on,,,,,0,0,3,,,,,2,,,,80,75
57020,note_on,,,,,96,0,3,,,,,2,,,,79,0
57028,note_on,,,,,0,0,4,,,,,3,,,,65,75
57028,note_on,,,,,32,0,4,,,,,3,,,,58,75
57028,note_on,,,,,0,0,4,,,,,3,,,,62,75
57116,note_on,,,,,0,0,3,,,,,2,,,,77,75
57116,note_on,,,,,96,0,3,,,,,2,,,,80,0
57212,note_on,,,,,0,0,3,,,,,2,,,,75,75
57212,note_on,,,,,96,0,3,,,,,2,,,,77,0
57220,note_on,,,,,192,0,4,,,,,3,,,,65,0
57220,note_on,,,,,0,0,4,,,,,3,,,,62,0
57220,note_on,,,,,0,0,4,,,,,3,,,,63,75
57220,note_on,,,,,0,0,4,,,,,3,,,,67,75
57308,note_on,,,,,96,0,3,,,,,2,,,,75,0
57308,note_on,,,,,0,0,3,,,,,2,,,,74,75
57404,note_on,,,,,96,0,3,,,,,2,,,,74,0
57404,note_on,,,,,0,0,3,,,,,2,,,,72,75
57412,note_on,,,,,0,0,4,,,,,3,,,,65,75
57412,note_on,,,,,0,0,4,,,,,3,,,,63,0
57412,note_on,,,,,192,0,4,,,,,3,,,,67,0
57412,note_on,,,,,0,0,4,,,,,3,,,,68,75
57500,note_on,,,,,96,0,3,,,,,2,,,,72,0
57500,note_on,,,,,0,0,3,,,,,2,,,,70,75
57556,note_on,,,,,144,0,4,,,,,3,,,,58,0
57572,note_on,,,,,16,0,4,,,,,3,,,,68,0
57572,note_on,,,,,0,0,4,,,,,3,,,,65,0
57594,note_on,,,,,94,0,3,,,,,2,,,,70,0
57596,note_on,,,,,2,0,3,,,,,2,,,,72,60
57600,set_tempo,,,,,864,1,0,,500000,,,,,,,,
57604,note_on,,,,,0,0,4,,,,,3,,,,67,75
57604,note_on,,,,,32,0,4,,,,,3,,,,63,75
57620,note_on,,,,,0,0,3,,,,,2,,,,70,60
57620,note_on,,,,,24,0,3,,,,,2,,,,72,0
57644,note_on,,,,,0,0,3,,,,,2,,,,68,60
57644,note_on,,,,,24,0,3,,,,,2,,,,70,0
57668,note_on,,,,,24,0,3,,,,,2,,,,68,0
57668,note_on,,,,,0,0,3,,,,,2,,,,70,60
57692,note_on,,,,,24,0,3,,,,,2,,,,70,0
57692,note_on,,,,,0,0,3,,,,,2,,,,75,92
57696,set_tempo,,,,,96,1,0,,400000,,,,,,,,
57764,note_on,,,,,0,0,4,,,,,3,,,,63,0
57764,note_on,,,,,160,0,4,,,,,3,,,,67,0
57788,note_on,,,,,96,0,3,,,,,2,,,,75,0
57788,note_on,,,,,0,0,3,,,,,2,,,,70,92
57882,note_on,,,,,94,0,3,,,,,2,,,,70,0
57884,note_on,,,,,2,0,3,,,,,2,,,,70,92
57916,note_on,,,,,32,0,3,,,,,2,,,,70,0
57980,note_on,,,,,64,0,3,,,,,2,,,,70,92
58076,note_on,,,,,0,0,3,,,,,2,,,,69,92
58076,note_on,,,,,96,0,3,,,,,2,,,,70,0
58170,note_on,,,,,94,0,3,,,,,2,,,,69,0
58172,note_on,,,,,2,0,3,,,,,2,,,,68,75
58173,note_on,,,,,7136,0,7,,,,,6,,,,50,37
58176,note_on,,,,,7136,0,5,,,,,4,,,,58,37
58221,note_on,,,,,48,0,7,,,,,6,,,,50,0
58224,note_on,,,,,48,0,5,,,,,4,,,,58,0
58268,note_on,,,,,0,0,3,,,,,2,,,,65,75
58268,note_on,,,,,96,0,3,,,,,2,,,,68,0
58364,note_on,,,,,96,0,3,,,,,2,,,,65,0
58364,note_on,,,,,0,0,3,,,,,2,,,,63,75
58365,note_on,,,,,144,0,7,,,,,6,,,,51,37
58368,note_on,,,,,144,0,5,,,,,4,,,,60,37
58413,note_on,,,,,48,0,7,,,,,6,,,,51,0
58416,note_on,,,,,48,0,5,,,,,4,,,,60,0
58460,note_on,,,,,96,0,3,,,,,2,,,,63,0
58460,note_on,,,,,0,0,3,,,,,2,,,,62,75
58556,note_on,,,,,96,0,3,,,,,2,,,,62,0
58556,note_on,,,,,0,0,3,,,,,2,,,,60,75
58557,note_on,,,,,144,0,7,,,,,6,,,,53,37
58559,note_on,,,,,7520,0,8,,,,,7,,,,46,37
58560,note_on,,,,,144,0,5,,,,,4,,,,62,37
58565,note_on,,,,,7520,0,6,,,,,5,,,,56,37
58566,note_on,,,,,7520,0,9,,,,,8,,,,34,37
58605,note_on,,,,,48,0,7,,,,,6,,,,53,0
58607,note_on,,,,,48,0,8,,,,,7,,,,46,0
58608,note_on,,,,,48,0,5,,,,,4,,,,62,0
58613,note_on,,,,,48,0,6,,,,,5,,,,56,0
58614,note_on,,,,,48,0,9,,,,,8,,,,34,0
58652,note_on,,,,,0,0,3,,,,,2,,,,58,75
58652,note_on,,,,,96,0,3,,,,,2,,,,60,0
58746,note_on,,,,,94,0,3,,,,,2,,,,58,0
58748,note_on,,,,,2,0,3,,,,,2,,,,60,60
58749,note_on,,,,,144,0,7,,,,,6,,,,51,37
58751,note_on,,,,,144,0,8,,,,,7,,,,51,37
58752,note_on,,,,,144,0,5,,,,,4,,,,63,37
58752,set_tempo,,,,,1056,1,0,,500000,,,,,,,,
58757,note_on,,,,,144,0,6,,,,,5,,,,55,37
58758,note_on,,,,,144,0,9,,,,,8,,,,39,37
58772,note_on,,,,,0,0,3,,,,,2,,,,58,60
58772,note_on,,,,,24,0,3,,,,,2,,,,60,0
58796,note_on,,,,,24,0,3,,,,,2,,,,58,0
58796,note_on,,,,,0,0,3,,,,,2,,,,57,60
58797,note_on,,,,,48,0,7,,,,,6,,,,51,0
58799,note_on,,,,,48,0,8,,,,,7,,,,51,0
58800,note_on,,,,,48,0,5,,,,,4,,,,63,0
58805,note_on,,,,,48,0,6,,,,,5,,,,55,0
58806,note_on,,,,,48,0,9,,,,,8,,,,39,0
58820,note_on,,,,,0,0,3,,,,,2,,,,58,60
58820,note_on,,,,,24,0,3,,,,,2,,,,57,0
58844,note_on,,,,,24,0,3,,,,,2,,,,58,0
58844,note_on,,,,,0,0,3,,,,,2,,,,63,92
58848,set_tempo,,,,,96,1,0,,400000,,,,,,,,
58940,note_on,,,,,0,0,3,,,,,2,,,,58,92
58940,note_on,,,,,96,0,3,,,,,2,,,,63,0
59034,note_on,,,,,94,0,3,,,,,2,,,,58,0
59036,note_on,,,,,2,0,3,,,,,2,,,,58,92
59068,note_on,,,,,32,0,3,,,,,2,,,,58,0
59132,note_on,,,,,64,0,3,,,,,2,,,,58,92
59228,note_on,,,,,96,0,3,,,,,2,,,,58,0
59228,note_on,,,,,0,0,3,,,,,2,,,,57,92
59322,note_on,,,,,94,0,3,,,,,2,,,,57,0
59328,note_on,,,,,528,0,5,,,,,4,,,,70,37
59332,note_on,,,,,1568,0,4,,,,,3,,,,56,75
59333,note_on,,,,,528,0,6,,,,,5,,,,62,37
59376,note_on,,,,,48,0,5,,,,,4,,,,70,0
59381,note_on,,,,,48,0,6,,,,,5,,,,62,0
59428,note_on,,,,,0,0,4,,,,,3,,,,53,75
59428,note_on,,,,,96,0,4,,,,,3,,,,56,0
59520,note_on,,,,,144,0,5,,,,,4,,,,72,37
59524,note_on,,,,,96,0,4,,,,,3,,,,53,0
59524,note_on,,,,,0,0,4,,,,,3,,,,51,75
59525,note_on,,,,,144,0,6,,,,,5,,,,63,37
59568,note_on,,,,,48,0,5,,,,,4,,,,72,0
59573,note_on,,,,,48,0,6,,,,,5,,,,63,0
59620,note_on,,,,,0,0,4,,,,,3,,,,50,75
59620,note_on,,,,,96,0,4,,,,,3,,,,51,0
59709,note_on,,,,,912,0,7,,,,,6,,,,68,37
59711,note_on,,,,,912,0,8,,,,,7,,,,46,37
59712,note_on,,,,,144,0,5,,,,,4,,,,74,37
59716,note_on,,,,,96,0,4,,,,,3,,,,50,0
59716,note_on,,,,,0,0,4,,,,,3,,,,48,75
59717,note_on,,,,,144,0,6,,,,,5,,,,65,37
59718,note_on,,,,,912,0,9,,,,,8,,,,34,37
59757,note_on,,,,,48,0,7,,,,,6,,,,68,0
59759,note_on,,,,,48,0,8,,,,,7,,,,46,0
59760,note_on,,,,,48,0,5,,,,,4,,,,74,0
59765,note_on,,,,,48,0,6,,,,,5,,,,65,0
59766,note_on,,,,,48,0,9,,,,,8,,,,34,0
59812,note_on,,,,,96,0,4,,,,,3,,,,48,0
59812,note_on,,,,,0,0,4,,,,,3,,,,46,75
59900,note_on,,,,,578,0,3,,,,,2,,,,51,92
59901,note_on,,,,,144,0,7,,,,,6,,,,67,37
59903,note_on,,,,,144,0,8,,,,,7,,,,39,37
59904,note_on,,,,,144,0,5,,,,,4,,,,75,37
59904,set_tempo,,,,,1056,1,0,,428571,,,,,,,,
59906,note_on,,,,,94,0,4,,,,,3,,,,46,0
59909,note_on,,,,,144,0,6,,,,,5,,,,63,37
59910,note_on,,,,,144,0,9,,,,,8,,,,27,37
59949,note_on,,,,,48,0,7,,,,,6,,,,67,0
59951,note_on,,,,,48,0,8,,,,,7,,,,39,0
59952,note_on,,,,,48,0,5,,,,,4,,,,75,0
59956,note_on,,,,,50,0,4,,,,,3,,,,39,60
59957,note_on,,,,,48,0,6,,,,,5,,,,63,0
59958,note_on,,,,,48,0,9,,,,,8,,,,27,0
60004,note_on,,,,,48,0,4,,,,,3,,,,39,0
60004,note_on,,,,,0,0,4,,,,,3,,,,41,60
60052,note_on,,,,,48,0,4,,,,,3,,,,41,0
60052,note_on,,,,,0,0,4,,,,,3,,,,43,60
60060,note_on,,,,,160,0,3,,,,,2,,,,51,0
60100,note_on,,,,,0,0,4,,,,,3,,,,44,75
60100,note_on,,,,,48,0,4,,,,,3,,,,43,0
60148,note_on,,,,,48,0,4,,,,,3,,,,44,0
60148,note_on,,,,,0,0,4,,,,,3,,,,46,75
60196,note_on,,,,,48,0,4,,,,,3,,,,46,0
60196,note_on,,,,,0,0,4,,,,,3,,,,48,75
60244,note_on,,,,,48,0,4,,,,,3,,,,48,0
60244,note_on,,,,,0,0,4,,,,,3,,,,50,75
60292,note_on,,,,,48,0,4,,,,,3,,,,50,0
60292,note_on,,,,,0,0,4,,,,,3,,,,51,92
60340,note_on,,,,,48,0,4,,,,,3,,,,51,0
60340,note_on,,,,,0,0,4,,,,,3,,,,50,92
60388,note_on,,,,,0,0,4,,,,,3,,,,51,92
60388,note_on,,,,,48,0,4,,,,,3,,,,50,0
60436,note_on,,,,,48,0,4,,,,,3,,,,51,0
60436,note_on,,,,,0,0,4,,,,,3,,,,50,92
60477,note_on,,,,,528,0,7,,,,,6,,,,61,37
60480,note_on,,,,,528,0,5,,,,,4,,,,70,37
60484,note_on,,,,,48,0,4,,,,,3,,,,50,0
60484,note_on,,,,,0,0,4,,,,,3,,,,51,92
60485,note_on,,,,,528,0,6,,,,,5,,,,67,37
60524,note_on,,,,,464,0,3,,,,,2,,,,63,60
60572,note_on,,,,,48,0,3,,,,,2,,,,63,0
60572,note_on,,,,,0,0,3,,,,,2,,,,65,60
60620,note_on,,,,,48,0,3,,,,,2,,,,65,0
60620,note_on,,,,,0,0,3,,,,,2,,,,67,60
60644,note_on,,,,,160,0,4,,,,,3,,,,51,0
60668,note_on,,,,,48,0,3,,,,,2,,,,67,0
60668,note_on,,,,,0,0,3,,,,,2,,,,68,75
60669,note_on,,,,,0,0,7,,,,,6,,,,60,37
60669,note_on,,,,,192,0,7,,,,,6,,,,61,0
60672,note_on,,,,,192,0,5,,,,,4,,,,70,0
60672,note_on,,,,,0,0,5,,,,,4,,,,72,37
60677,note_on,,,,,192,0,6,,,,,5,,,,67,0
60677,note_on,,,,,0,0,6,,,,,5,,,,68,37
60716,note_on,,,,,0,0,3,,,,,2,,,,70,75
60716,note_on,,,,,48,0,3,,,,,2,,,,68,0
60764,note_on,,,,,0,0,3,,,,,2,,,,72,75
60764,note_on,,,,,48,0,3,,,,,2,,,,70,0
60812,note_on,,,,,48,0,3,,,,,2,,,,72,0
60812,note_on,,,,,0,0,3,,,,,2,,,,74,75
60860,note_on,,,,,48,0,3,,,,,2,,,,74,0
60860,note_on,,,,,0,0,3,,,,,2,,,,75,92
60861,note_on,,,,,0,0,7,,,,,6,,,,55,37
60861,note_on,,,,,192,0,7,,,,,6,,,,60,0
60864,note_on,,,,,192,0,5,,,,,4,,,,72,0
60864,note_on,,,,,0,0,5,,,,,4,,,,73,37
60869,note_on,,,,,192,0,6,,,,,5,,,,68,0
60869,note_on,,,,,0,0,6,,,,,5,,,,70,37
60908,note_on,,,,,48,0,3,,,,,2,,,,75,0
60908,note_on,,,,,0,0,3,,,,,2,,,,74,92
60956,note_on,,,,,0,0,3,,,,,2,,,,75,92
60956,note_on,,,,,48,0,3,,,,,2,,,,74,0
61004,note_on,,,,,48,0,3,,,,,2,,,,75,0
61004,note_on,,,,,0,0,3,,,,,2,,,,74,92
61021,note_on,,,,,160,0,7,,,,,6,,,,55,0
61024,note_on,,,,,160,0,5,,,,,4,,,,73,0
61029,note_on,,,,,160,0,6,,,,,5,,,,70,0
61052,note_on,,,,,48,0,3,,,,,2,,,,74,0
61052,note_on,,,,,0,0,3,,,,,2,,,,75,92
61053,note_on,,,,,32,0,7,,,,,6,,,,56,37
61055,note_on,,,,,1104,0,8,,,,,7,,,,51,37
61056,note_on,,,,,32,0,5,,,,,4,,,,72,37
61061,note_on,,,,,32,0,6,,,,,5,,,,68,37
61062,note_on,,,,,1104,0,9,,,,,8,,,,39,37
61108,note_on,,,,,464,0,4,,,,,3,,,,51,60
61156,note_on,,,,,0,0,4,,,,,3,,,,53,60
61156,note_on,,,,,48,0,4,,,,,3,,,,51,0
61204,note_on,,,,,0,0,4,,,,,3,,,,55,60
61204,note_on,,,,,48,0,4,,,,,3,,,,53,0
61212,note_on,,,,,160,0,3,,,,,2,,,,75,0
61213,note_on,,,,,160,0,7,,,,,6,,,,56,0
61215,note_on,,,,,160,0,8,,,,,7,,,,51,0
61216,note_on,,,,,160,0,5,,,,,4,,,,72,0
61221,note_on,,,,,160,0,6,,,,,5,,,,68,0
61222,note_on,,,,,160,0,9,,,,,8,,,,39,0
61252,note_on,,,,,0,0,4,,,,,3,,,,56,75
61252,note_on,,,,,48,0,4,,,,,3,,,,55,0
61300,note_on,,,,,0,0,4,,,,,3,,,,58,75
61300,note_on,,,,,48,0,4,,,,,3,,,,56,0
61348,note_on,,,,,48,0,4,,,,,3,,,,58,0
61348,note_on,,,,,0,0,4,,,,,3,,,,60,75
61396,note_on,,,,,48,0,4,,,,,3,,,,60,0
61396,note_on,,,,,0,0,4,,,,,3,,,,62,75
61444,note_on,,,,,48,0,4,,,,,3,,,,62,0
61444,note_on,,,,,0,0,4,,,,,3,,,,63,92
61492,note_on,,,,,48,0,4,,,,,3,,,,63,0
61492,note_on,,,,,0,0,4,,,,,3,,,,62,92
61540,note_on,,,,,48,0,4,,,,,3,,,,62,0
61540,note_on,,,,,0,0,4,,,,,3,,,,63,92
61588,note_on,,,,,0,0,4,,,,,3,,,,62,92
61588,note_on,,,,,48,0,4,,,,,3,,,,63,0
61629,note_on,,,,,416,0,7,,,,,6,,,,56,37
61632,note_on,,,,,416,0,5,,,,,4,,,,75,37
61636,note_on,,,,,48,0,4,,,,,3,,,,62,0
61636,note_on,,,,,0,0,4,,,,,3,,,,63,92
61637,note_on,,,,,416,0,6,,,,,5,,,,72,37
61676,note_on,,,,,464,0,3,,,,,2,,,,75,60
61724,note_on,,,,,0,0,3,,,,,2,,,,77,60
61724,note_on,,,,,48,0,3,,,,,2,,,,75,0
61772,note_on,,,,,0,0,3,,,,,2,,,,79,60
61772,note_on,,,,,48,0,3,,,,,2,,,,77,0
61796,note_on,,,,,160,0,4,,,,,3,,,,63,0
61820,note_on,,,,,48,0,3,,,,,2,,,,79,0
61820,note_on,,,,,0,0,3,,,,,2,,,,80,75
61824,note_on,,,,,192,0,5,,,,,4,,,,75,0
61824,note_on,,,,,0,0,5,,,,,4,,,,74,37
61829,note_on,,,,,192,0,6,,,,,5,,,,72,0
61829,note_on,,,,,0,0,6,,,,,5,,,,70,37
61868,note_on,,,,,0,0,3,,,,,2,,,,82,75
61868,note_on,,,,,48,0,3,,,,,2,,,,80,0
61916,note_on,,,,,0,0,3,,,,,2,,,,84,75
61916,note_on,,,,,48,0,3,,,,,2,,,,82,0
61917,note_on,,,,,288,0,7,,,,,6,,,,56,0
61917,note_on,,,,,0,0,7,,,,,6,,,,58,37
61964,note_on,,,,,0,0,3,,,,,2,,,,86,75
61964,note_on,,,,,48,0,3,,,,,2,,,,84,0
62012,note_on,,,,,0,0,3,,,,,2,,,,87,92
62012,note_on,,,,,48,0,3,,,,,2,,,,86,0
62013,note_on,,,,,0,0,7,,,,,6,,,,60,37
62013,note_on,,,,,96,0,7,,,,,6,,,,58,0
62016,note_on,,,,,0,0,5,,,,,4,,,,72,37
62016,note_on,,,,,192,0,5,,,,,4,,,,74,0
62021,note_on,,,,,0,0,6,,,,,5,,,,68,37
62021,note_on,,,,,192,0,6,,,,,5,,,,70,0
62060,note_on,,,,,48,0,3,,,,,2,,,,87,0
62060,note_on,,,,,0,0,3,,,,,2,,,,86,92
62108,note_on,,,,,48,0,3,,,,,2,,,,86,0
62108,note_on,,,,,0,0,3,,,,,2,,,,87,92
62109,note_on,,,,,96,0,7,,,,,6,,,,60,0
62109,note_on,,,,,0,0,7,,,,,6,,,,62,37
62156,note_on,,,,,48,0,3,,,,,2,,,,87,0
62156,note_on,,,,,0,0,3,,,,,2,,,,86,92
62176,note_on,,,,,160,0,5,,,,,4,,,,72,0
62181,note_on,,,,,160,0,6,,,,,5,,,,68,0
62203,note_on,,,,,94,0,7,,,,,6,,,,62,0
62204,note_on,,,,,0,0,3,,,,,2,,,,87,92
62204,note_on,,,,,48,0,3,,,,,2,,,,86,0
62205,note_on,,,,,2,0,7,,,,,6,,,,63,37
62207,note_on,,,,,992,0,8,,,,,7,,,,51,37
62208,note_on,,,,,32,0,5,,,,,4,,,,70,37
62213,note_on,,,,,32,0,6,,,,,5,,,,67,37
62214,note_on,,,,,992,0,9,,,,,8,,,,39,37
62260,note_on,,,,,464,0,4,,,,,3,,,,39,60
62308,note_on,,,,,48,0,4,,,,,3,,,,39,0
62308,note_on,,,,,0,0,4,,,,,3,,,,41,60
62356,note_on,,,,,48,0,4,,,,,3,,,,41,0
62356,note_on,,,,,0,0,4,,,,,3,,,,43,60
62364,note_on,,,,,160,0,3,,,,,2,,,,87,0
62365,note_on,,,,,160,0,7,,,,,6,,,,63,0
62367,note_on,,,,,160,0,8,,,,,7,,,,51,0
62368,note_on,,,,,160,0,5,,,,,4,,,,70,0
62373,note_on,,,,,160,0,6,,,,,5,,,,67,0
62374,note_on,,,,,160,0,9,,,,,8,,,,39,0
62404,note_on,,,,,0,0,4,,,,,3,,,,44,75
62404,note_on,,,,,48,0,4,,,,,3,,,,43,0
62452,note_on,,,,,0,0,4,,,,,3,,,,46,75
62452,note_on,,,,,48,0,4,,,,,3,,,,44,0
62500,note_on,,,,,0,0,4,,,,,3,,,,48,75
62500,note_on,,,,,48,0,4,,,,,3,,,,46,0
62548,note_on,,,,,0,0,4,,,,,3,,,,50,75
62548,note_on,,,,,48,0,4,,,,,3,,,,48,0
62596,note_on,,,,,48,0,4,,,,,3,,,,50,0
62596,note_on,,,,,0,0,4,,,,,3,,,,51,92
62644,note_on,,,,,48,0,4,,,,,3,,,,51,0
62644,note_on,,,,,0,0,4,,,,,3,,,,50,92
62692,note_on,,,,,48,0,4,,,,,3,,,,50,0
62692,note_on,,,,,0,0,4,,,,,3,,,,51,92
62740,note_on,,,,,0,0,4,,,,,3,,,,50,92
62740,note_on,,,,,48,0,4,,,,,3,,,,51,0
62781,note_on,,,,,416,0,7,,,,,6,,,,58,37
62784,note_on,,,,,416,0,5,,,,,4,,,,70,37
62788,note_on,,,,,0,0,4,,,,,3,,,,51,92
62788,note_on,,,,,48,0,4,,,,,3,,,,50,0
62789,note_on,,,,,416,0,6,,,,,5,,,,67,37
62828,note_on,,,,,464,0,3,,,,,2,,,,70,60
62876,note_on,,,,,0,0,3,,,,,2,,,,72,60
62876,note_on,,,,,48,0,3,,,,,2,,,,70,0
62924,note_on,,,,,48,0,3,,,,,2,,,,72,0
62924,note_on,,,,,0,0,3,,,,,2,,,,74,60
62948,note_on,,,,,160,0,4,,,,,3,,,,51,0
62972,note_on,,,,,48,0,3,,,,,2,,,,74,0
62972,note_on,,,,,0,0,3,,,,,2,,,,75,75
62976,note_on,,,,,192,0,5,,,,,4,,,,70,0
62976,note_on,,,,,0,0,5,,,,,4,,,,68,37
62981,note_on,,,,,0,0,6,,,,,5,,,,65,37
62981,note_on,,,,,192,0,6,,,,,5,,,,67,0
63020,note_on,,,,,48,0,3,,,,,2,,,,75,0
63020,note_on,,,,,0,0,3,,,,,2,,,,77,75
63068,note_on,,,,,48,0,3,,,,,2,,,,77,0
63068,note_on,,,,,0,0,3,,,,,2,,,,79,75
63116,note_on,,,,,0,0,3,,,,,2,,,,80,75
63116,note_on,,,,,48,0,3,,,,,2,,,,79,0
63164,note_on,,,,,0,0,3,,,,,2,,,,82,92
63164,note_on,,,,,48,0,3,,,,,2,,,,80,0
63168,note_on,,,,,0,0,5,,,,,4,,,,67,37
63168,note_on,,,,,192,0,5,,,,,4,,,,68,0
63173,note_on,,,,,192,0,6,,,,,5,,,,65,0
63173,note_on,,,,,0,0,6,,,,,5,,,,64,37
63212,note_on,,,,,0,0,3,,,,,2,,,,81,92
63212,note_on,,,,,48,0,3,,,,,2,,,,82,0
63260,note_on,,,,,0,0,3,,,,,2,,,,82,92
63260,note_on,,,,,48,0,3,,,,,2,,,,81,0
63308,note_on,,,,,48,0,3,,,,,2,,,,82,0
63308,note_on,,,,,0,0,3,,,,,2,,,,81,92
63328,note_on,,,,,160,0,5,,,,,4,,,,67,0
63333,note_on,,,,,160,0,6,,,,,5,,,,64,0
63356,note_on,,,,,0,0,3,,,,,2,,,,82,92
63356,note_on,,,,,48,0,3,,,,,2,,,,81,0
63359,note_on,,,,,992,0,8,,,,,7,,,,46,37
63360,note_on,,,,,32,0,5,,,,,4,,,,68,37
63365,note_on,,,,,32,0,6,,,,,5,,,,65,37
63366,note_on,,,,,992,0,9,,,,,8,,,,34,37
63412,note_on,,,,,464,0,4,,,,,3,,,,34,60
63460,note_on,,,,,0,0,4,,,,,3,,,,36,60
63460,note_on,,,,,48,0,4,,,,,3,,,,34,0
63508,note_on,,,,,48,0,4,,,,,3,,,,36,0
63508,note_on,,,,,0,0,4,,,,,3,,,,38,60
63516,note_on,,,,,160,0,3,,,,,2,,,,82,0
63517,note_on,,,,,736,0,7,,,,,6,,,,58,0
63519,note_on,,,,,160,0,8,,,,,7,,,,46,0
63520,note_on,,,,,160,0,5,,,,,4,,,,68,0
63525,note_on,,,,,160,0,6,,,,,5,,,,65,0
63526,note_on,,,,,160,0,9,,,,,8,,,,34,0
63556,note_on,,,,,48,0,4,,,,,3,,,,38,0
63556,note_on,,,,,0,0,4,,,,,3,,,,39,75
63604,note_on,,,,,0,0,4,,,,,3,,,,41,75
63604,note_on,,,,,48,0,4,,,,,3,,,,39,0
63652,note_on,,,,,0,0,4,,,,,3,,,,43,75
63652,note_on,,,,,48,0,4,,,,,3,,,,41,0
63700,note_on,,,,,48,0,4,,,,,3,,,,43,0
63700,note_on,,,,,0,0,4,,,,,3,,,,45,75
63748,note_on,,,,,48,0,4,,,,,3,,,,45,0
63748,note_on,,,,,0,0,4,,,,,3,,,,46,92
63796,note_on,,,,,48,0,4,,,,,3,,,,46,0
63796,note_on,,,,,0,0,4,,,,,3,,,,45,92
63844,note_on,,,,,0,0,4,,,,,3,,,,46,92
63844,note_on,,,,,48,0,4,,,,,3,,,,45,0
63892,note_on,,,,,0,0,4,,,,,3,,,,45,92
63892,note_on,,,,,48,0,4,,,,,3,,,,46,0
63933,note_on,,,,,416,0,7,,,,,6,,,,58,37
63936,note_on,,,,,416,0,5,,,,,4,,,,68,37
63940,note_on,,,,,0,0,4,,,,,3,,,,46,92
63940,note_on,,,,,48,0,4,,,,,3,,,,45,0
63941,note_on,,,,,416,0,6,,,,,5,,,,65,37
63980,note_on,,,,,464,0,3,,,,,2,,,,58,60
64028,note_on,,,,,48,0,3,,,,,2,,,,58,0
64028,note_on,,,,,0,0,3,,,,,2,,,,60,60
64076,note_on,,,,,48,0,3,,,,,2,,,,60,0
64076,note_on,,,,,0,0,3,,,,,2,,,,62,60
64100,note_on,,,,,160,0,4,,,,,3,,,,46,0
64124,note_on,,,,,48,0,3,,,,,2,,,,62,0
64124,note_on,,,,,0,0,3,,,,,2,,,,63,75
64128,note_on,,,,,0,0,5,,,,,4,,,,67,37
64128,note_on,,,,,192,0,5,,,,,4,,,,68,0
64133,note_on,,,,,192,0,6,,,,,5,,,,65,0
64133,note_on,,,,,0,0,6,,,,,5,,,,63,37
64172,note_on,,,,,0,0,3,,,,,2,,,,65,75
64172,note_on,,,,,48,0,3,,,,,2,,,,63,0
64220,note_on,,,,,48,0,3,,,,,2,,,,65,0
64220,note_on,,,,,0,0,3,,,,,2,,,,67,75
64268,note_on,,,,,0,0,3,,,,,2,,,,69,75
64268,note_on,,,,,48,0,3,,,,,2,,,,67,0
64316,note_on,,,,,48,0,3,,,,,2,,,,69,0
64316,note_on,,,,,0,0,3,,,,,2,,,,70,92
64317,note_on,,,,,384,0,7,,,,,6,,,,58,0
64317,note_on,,,,,0,0,7,,,,,6,,,,56,37
64320,note_on,,,,,0,0,5,,,,,4,,,,65,37
64320,note_on,,,,,192,0,5,,,,,4,,,,67,0
64325,note_on,,,,,0,0,6,,,,,5,,,,62,37
64325,note_on,,,,,192,0,6,,,,,5,,,,63,0
64364,note_on,,,,,48,0,3,,,,,2,,,,70,0
64364,note_on,,,,,0,0,3,,,,,2,,,,69,92
64412,note_on,,,,,48,0,3,,,,,2,,,,69,0
64412,note_on,,,,,0,0,3,,,,,2,,,,68,92
64460,note_on,,,,,48,0,3,,,,,2,,,,68,0
64460,note_on,,,,,0,0,3,,,,,2,,,,65,92
64477,note_on,,,,,160,0,7,,,,,6,,,,56,0
64480,note_on,,,,,160,0,5,,,,,4,,,,65,0
64485,note_on,,,,,160,0,6,,,,,5,,,,62,0
64508,note_on,,,,,0,0,3,,,,,2,,,,63,92
64508,note_on,,,,,48,0,3,,,,,2,,,,65,0
64509,note_on,,,,,32,0,7,,,,,6,,,,55,60
64512,set_tempo,,,,,4608,1,0,,413793,,,,,,,,
64512,note_on,,,,,32,0,5,,,,,4,,,,63,60
64517,note_on,,,,,32,0,6,,,,,5,,,,63,37
64557,note_on,,,,,48,0,7,,,,,6,,,,55,0
64557,note_on,,,,,0,0,7,,,,,6,,,,51,60
64605,note_on,,,,,48,0,7,,,,,6,,,,51,0
64605,note_on,,,,,0,0,7,,,,,6,,,,53,60
64608,note_on,,,,,0,0,5,,,,,4,,,,65,60
64608,note_on,,,,,96,0,5,,,,,4,,,,63,0
64653,note_on,,,,,0,0,7,,,,,6,,,,55,60
64653,note_on,,,,,48,0,7,,,,,6,,,,53,0
64656,note_on,,,,,0,0,5,,,,,4,,,,67,60
64656,note_on,,,,,48,0,5,,,,,4,,,,65,0
64668,note_on,,,,,160,0,3,,,,,2,,,,63,0
64677,note_on,,,,,160,0,6,,,,,5,,,,63,0
64701,note_on,,,,,0,0,7,,,,,6,,,,56,60
64701,note_on,,,,,48,0,7,,,,,6,,,,55,0
64704,note_on,,,,,48,0,5,,,,,4,,,,67,0
64704,note_on,,,,,0,0,5,,,,,4,,,,68,60
64749,note_on,,,,,0,0,7,,,,,6,,,,58,60
64749,note_on,,,,,48,0,7,,,,,6,,,,56,0
64752,note_on,,,,,0,0,5,,,,,4,,,,70,60
64752,note_on,,,,,48,0,5,,,,,4,,,,68,0
64797,note_on,,,,,0,0,7,,,,,6,,,,60,60
64797,note_on,,,,,48,0,7,,,,,6,,,,58,0
64800,note_on,,,,,48,0,5,,,,,4,,,,70,0
64800,note_on,,,,,0,0,5,,,,,4,,,,72,60
64845,note_on,,,,,48,0,7,,,,,6,,,,60,0
64845,note_on,,,,,0,0,7,,,,,6,,,,62,60
64848,note_on,,,,,0,0,5,,,,,4,,,,74,60
64848,note_on,,,,,48,0,5,,,,,4,,,,72,0
64893,note_on,,,,,0,0,7,,,,,6,,,,63,60
64893,note_on,,,,,48,0,7,,,,,6,,,,62,0
64896,note_on,,,,,0,0,5,,,,,4,,,,75,60
64896,note_on,,,,,48,0,5,,,,,4,,,,74,0
64941,note_on,,,,,48,0,7,,,,,6,,,,63,0
64941,note_on,,,,,0,0,7,,,,,6,,,,62,60
64944,note_on,,,,,0,0,5,,,,,4,,,,74,60
64944,note_on,,,,,48,0,5,,,,,4,,,,75,0
64989,note_on,,,,,48,0,7,,,,,6,,,,62,0
64989,note_on,,,,,0,0,7,,,,,6,,,,63,60
64992,note_on,,,,,48,0,5,,,,,4,,,,74,0
64992,note_on,,,,,0,0,5,,,,,4,,,,75,60
65037,note_on,,,,,0,0,7,,,,,6,,,,62,60
65037,note_on,,,,,48,0,7,,,,,6,,,,63,0
65040,note_on,,,,,0,0,5,,,,,4,,,,74,60
65040,note_on,,,,,48,0,5,,,,,4,,,,75,0
65084,note_on,,,,,416,0,3,,,,,2,,,,70,108
65085,note_on,,,,,48,0,7,,,,,6,,,,62,0
65085,note_on,,,,,0,0,7,,,,,6,,,,63,60
65088,note_on,,,,,48,0,5,,,,,4,,,,74,0
65088,note_on,,,,,0,0,5,,,,,4,,,,75,60
65092,note_on,,,,,992,0,4,,,,,3,,,,51,92
65092,note_on,,,,,0,0,4,,,,,3,,,,61,92
65092,note_on,,,,,0,0,4,,,,,3,,,,58,92
65132,note_on,,,,,48,0,3,,,,,2,,,,70,0
65132,note_on,,,,,0,0,3,,,,,2,,,,67,108
65180,note_on,,,,,48,0,3,,,,,2,,,,67,0
65180,note_on,,,,,0,0,3,,,,,2,,,,63,108
65228,note_on,,,,,48,0,3,,,,,2,,,,63,0
65228,note_on,,,,,0,0,3,,,,,2,,,,70,108
65245,note_on,,,,,160,0,7,,,,,6,,,,63,0
65248,note_on,,,,,160,0,5,,,,,4,,,,75,0
65276,note_on,,,,,48,0,3,,,,,2,,,,70,0
65276,note_on,,,,,0,0,3,,,,,2,,,,72,108
65284,note_on,,,,,0,0,4,,,,,3,,,,60,92
65284,note_on,,,,,192,0,4,,,,,3,,,,61,0
65284,note_on,,,,,0,0,4,,,,,3,,,,58,0
65284,note_on,,,,,0,0,4,,,,,3,,,,56,92
65324,note_on,,,,,0,0,3,,,,,2,,,,68,108
65324,note_on,,,,,48,0,3,,,,,2,,,,72,0
65372,note_on,,,,,48,0,3,,,,,2,,,,68,0
65372,note_on,,,,,0,0,3,,,,,2,,,,63,108
65420,note_on,,,,,0,0,3,,,,,2,,,,72,108
65420,note_on,,,,,48,0,3,,,,,2,,,,63,0
65468,note_on,,,,,0,0,3,,,,,2,,,,73,108
65468,note_on,,,,,48,0,3,,,,,2,,,,72,0
65476,note_on,,,,,0,0,4,,,,,3,,,,56,0
65476,note_on,,,,,0,0,4,,,,,3,,,,55,92
65476,note_on,,,,,192,0,4,,,,,3,,,,60,0
65476,note_on,,,,,0,0,4,,,,,3,,,,58,92
65516,note_on,,,,,0,0,3,,,,,2,,,,70,108
65516,note_on,,,,,48,0,3,,,,,2,,,,73,0
65564,note_on,,,,,0,0,3,,,,,2,,,,63,108
65564,note_on,,,,,48,0,3,,,,,2,,,,70,0
65612,note_on,,,,,48,0,3,,,,,2,,,,63,0
65612,note_on,,,,,0,0,3,,,,,2,,,,73,108
65636,note_on,,,,,160,0,4,,,,,3,,,,58,0
65636,note_on,,,,,0,0,4,,,,,3,,,,55,0
65660,note_on,,,,,48,0,3,,,,,2,,,,73,0
65660,note_on,,,,,0,0,3,,,,,2,,,,72,108
65664,set_tempo,,,,,1152,1,0,,428571,,,,,,,,
65668,note_on,,,,,0,0,4,,,,,3,,,,60,92
65668,note_on,,,,,32,0,4,,,,,3,,,,56,92
65709,note_on,,,,,464,0,7,,,,,6,,,,51,60
65712,note_on,,,,,464,0,5,,,,,4,,,,63,60
65757,note_on,,,,,48,0,7,,,,,6,,,,51,0
65757,note_on,,,,,0,0,7,,,,,6,,,,53,60
65760,note_on,,,,,48,0,5,,,,,4,,,,63,0
65760,note_on,,,,,0,0,5,,,,,4,,,,65,60
65805,note_on,,,,,0,0,7,,,,,6,,,,55,60
65805,note_on,,,,,48,0,7,,,,,6,,,,53,0
65808,note_on,,,,,48,0,5,,,,,4,,,,65,0
65808,note_on,,,,,0,0,5,,,,,4,,,,67,60
65820,note_on,,,,,160,0,3,,,,,2,,,,72,0
65828,note_on,,,,,0,0,4,,,,,3,,,,51,0
65828,note_on,,,,,160,0,4,,,,,3,,,,60,0
65828,note_on,,,,,0,0,4,,,,,3,,,,56,0
65853,note_on,,,,,0,0,7,,,,,6,,,,56,60
65853,note_on,,,,,48,0,7,,,,,6,,,,55,0
65856,note_on,,,,,48,0,5,,,,,4,,,,67,0
65856,note_on,,,,,0,0,5,,,,,4,,,,68,60
65901,note_on,,,,,0,0,7,,,,,6,,,,58,60
65901,note_on,,,,,48,0,7,,,,,6,,,,56,0
65904,note_on,,,,,48,0,5,,,,,4,,,,68,0
65904,note_on,,,,,0,0,5,,,,,4,,,,70,60
65949,note_on,,,,,48,0,7,,,,,6,,,,58,0
65949,note_on,,,,,0,0,7,,,,,6,,,,60,60
65952,note_on,,,,,48,0,5,,,,,4,,,,70,0
65952,note_on,,,,,0,0,5,,,,,4,,,,72,60
65997,note_on,,,,,48,0,7,,,,,6,,,,60,0
65997,note_on,,,,,0,0,7,,,,,6,,,,62,60
66000,note_on,,,,,48,0,5,,,,,4,,,,72,0
66000,note_on,,,,,0,0,5,,,,,4,,,,74,60
66045,note_on,,,,,0,0,7,,,,,6,,,,63,60
66045,note_on,,,,,48,0,7,,,,,6,,,,62,0
66048,note_on,,,,,48,0,5,,,,,4,,,,74,0
66048,note_on,,,,,0,0,5,,,,,4,,,,75,60
66093,note_on,,,,,0,0,7,,,,,6,,,,62,60
66093,note_on,,,,,48,0,7,,,,,6,,,,63,0
66096,note_on,,,,,0,0,5,,,,,4,,,,74,60
66096,note_on,,,,,48,0,5,,,,,4,,,,75,0
66141,note_on,,,,,0,0,7,,,,,6,,,,63,60
66141,note_on,,,,,48,0,7,,,,,6,,,,62,0
66144,note_on,,,,,0,0,5,,,,,4,,,,75,60
66144,note_on,,,,,48,0,5,,,,,4,,,,74,0
66189,note_on,,,,,48,0,7,,,,,6,,,,63,0
66189,note_on,,,,,0,0,7,,,,,6,,,,62,60
66192,note_on,,,,,48,0,5,,,,,4,,,,75,0
66192,note_on,,,,,0,0,5,,,,,4,,,,74,60
66236,note_on,,,,,416,0,3,,,,,2,,,,75,108
66237,note_on,,,,,0,0,7,,,,,6,,,,63,60
66237,note_on,,,,,48,0,7,,,,,6,,,,62,0
66240,note_on,,,,,48,0,5,,,,,4,,,,74,0
66240,note_on,,,,,0,0,5,,,,,4,,,,75,60
66240,set_tempo,,,,,576,1,0,,413793,,,,,,,,
66244,note_on,,,,,0,0,4,,,,,3,,,,60,92
66244,note_on,,,,,0,0,4,,,,,3,,,,56,92
66244,note_on,,,,,416,0,4,,,,,3,,,,51,92
66284,note_on,,,,,0,0,3,,,,,2,,,,72,108
66284,note_on,,,,,48,0,3,,,,,2,,,,75,0
66332,note_on,,,,,0,0,3,,,,,2,,,,63,108
66332,note_on,,,,,48,0,3,,,,,2,,,,72,0
66380,note_on,,,,,0,0,3,,,,,2,,,,75,108
66380,note_on,,,,,48,0,3,,,,,2,,,,63,0
66397,note_on,,,,,160,0,7,,,,,6,,,,63,0
66400,note_on,,,,,160,0,5,,,,,4,,,,75,0
66428,note_on,,,,,0,0,3,,,,,2,,,,74,108
66428,note_on,,,,,48,0,3,,,,,2,,,,75,0
66436,note_on,,,,,0,0,4,,,,,3,,,,56,0
66436,note_on,,,,,0,0,4,,,,,3,,,,58,92
66436,note_on,,,,,0,0,4,,,,,3,,,,62,92
66436,note_on,,,,,192,0,4,,,,,3,,,,60,0
66476,note_on,,,,,0,0,3,,,,,2,,,,70,108
66476,note_on,,,,,48,0,3,,,,,2,,,,74,0
66524,note_on,,,,,0,0,3,,,,,2,,,,63,108
66524,note_on,,,,,48,0,3,,,,,2,,,,70,0
66572,note_on,,,,,48,0,3,,,,,2,,,,63,0
66572,note_on,,,,,0,0,3,,,,,2,,,,74,108
66620,note_on,,,,,0,0,3,,,,,2,,,,72,108
66620,note_on,,,,,48,0,3,,,,,2,,,,74,0
66628,note_on,,,,,192,0,4,,,,,3,,,,62,0
66628,note_on,,,,,0,0,4,,,,,3,,,,60,92
66628,note_on,,,,,0,0,4,,,,,3,,,,58,0
66628,note_on,,,,,0,0,4,,,,,3,,,,63,92
66668,note_on,,,,,0,0,3,,,,,2,,,,68,108
66668,note_on,,,,,48,0,3,,,,,2,,,,72,0
66716,note_on,,,,,0,0,3,,,,,2,,,,63,108
66716,note_on,,,,,48,0,3,,,,,2,,,,68,0
66764,note_on,,,,,48,0,3,,,,,2,,,,63,0
66764,note_on,,,,,0,0,3,,,,,2,,,,72,108
66788,note_on,,,,,160,0,4,,,,,3,,,,63,0
66788,note_on,,,,,0,0,4,,,,,3,,,,60,0
66812,note_on,,,,,48,0,3,,,,,2,,,,72,0
66812,note_on,,,,,0,0,3,,,,,2,,,,70,108
66816,set_tempo,,,,,576,1,0,,428571,,,,,,,,
66820,note_on,,,,,0,0,4,,,,,3,,,,58,92
66820,note_on,,,,,32,0,4,,,,,3,,,,55,92
66861,note_on,,,,,464,0,7,,,,,6,,,,51,60
66864,note_on,,,,,464,0,5,,,,,4,,,,63,60
66909,note_on,,,,,0,0,7,,,,,6,,,,53,60
66909,note_on,,,,,48,0,7,,,,,6,,,,51,0
66912,note_on,,,,,0,0,5,,,,,4,,,,65,60
66912,note_on,,,,,48,0,5,,,,,4,,,,63,0
66957,note_on,,,,,0,0,7,,,,,6,,,,55,60
66957,note_on,,,,,48,0,7,,,,,6,,,,53,0
66960,note_on,,,,,48,0,5,,,,,4,,,,65,0
66960,note_on,,,,,0,0,5,,,,,4,,,,67,60
66972,note_on,,,,,160,0,3,,,,,2,,,,70,0
66980,note_on,,,,,0,0,4,,,,,3,,,,55,0
66980,note_on,,,,,160,0,4,,,,,3,,,,58,0
66980,note_on,,,,,0,0,4,,,,,3,,,,51,0
67005,note_on,,,,,0,0,7,,,,,6,,,,56,60
67005,note_on,,,,,48,0,7,,,,,6,,,,55,0
67008,note_on,,,,,48,0,5,,,,,4,,,,67,0
67008,note_on,,,,,0,0,5,,,,,4,,,,68,60
67053,note_on,,,,,0,0,7,,,,,6,,,,58,60
67053,note_on,,,,,48,0,7,,,,,6,,,,56,0
67056,note_on,,,,,0,0,5,,,,,4,,,,70,60
67056,note_on,,,,,48,0,5,,,,,4,,,,68,0
67101,note_on,,,,,48,0,7,,,,,6,,,,58,0
67101,note_on,,,,,0,0,7,,,,,6,,,,60,60
67104,note_on,,,,,0,0,5,,,,,4,,,,72,60
67104,note_on,,,,,48,0,5,,,,,4,,,,70,0
67149,note_on,,,,,0,0,7,,,,,6,,,,62,60
67149,note_on,,,,,48,0,7,,,,,6,,,,60,0
67152,note_on,,,,,0,0,5,,,,,4,,,,74,60
67152,note_on,,,,,48,0,5,,,,,4,,,,72,0
67197,note_on,,,,,48,0,7,,,,,6,,,,62,0
67197,note_on,,,,,0,0,7,,,,,6,,,,63,60
67200,note_on,,,,,48,0,5,,,,,4,,,,74,0
67200,note_on,,,,,0,0,5,,,,,4,,,,75,60
67245,note_on,,,,,0,0,7,,,,,6,,,,62,60
67245,note_on,,,,,48,0,7,,,,,6,,,,63,0
67248,note_on,,,,,0,0,5,,,,,4,,,,74,60
67248,note_on,,,,,48,0,5,,,,,4,,,,75,0
67293,note_on,,,,,48,0,7,,,,,6,,,,62,0
67293,note_on,,,,,0,0,7,,,,,6,,,,63,60
67296,note_on,,,,,48,0,5,,,,,4,,,,74,0
67296,note_on,,,,,0,0,5,,,,,4,,,,75,60
67341,note_on,,,,,0,0,7,,,,,6,,,,62,60
67341,note_on,,,,,48,0,7,,,,,6,,,,63,0
67344,note_on,,,,,48,0,5,,,,,4,,,,75,0
67344,note_on,,,,,0,0,5,,,,,4,,,,74,60
67388,note_on,,,,,416,0,3,,,,,2,,,,70,108
67389,note_on,,,,,0,0,7,,,,,6,,,,63,60
67389,note_on,,,,,48,0,7,,,,,6,,,,62,0
67392,note_on,,,,,48,0,5,,,,,4,,,,74,0
67392,note_on,,,,,0,0,5,,,,,4,,,,75,60
67392,set_tempo,,,,,576,1,0,,413793,,,,,,,,
67396,note_on,,,,,416,0,4,,,,,3,,,,39,92
67396,note_on,,,,,0,0,4,,,,,3,,,,51,92
67436,note_on,,,,,48,0,3,,,,,2,,,,70,0
67436,note_on,,,,,0,0,3,,,,,2,,,,67,108
67484,note_on,,,,,0,0,3,,,,,2,,,,58,108
67484,note_on,,,,,48,0,3,,,,,2,,,,67,0
67532,note_on,,,,,0,0,3,,,,,2,,,,70,108
67532,note_on,,,,,48,0,3,,,,,2,,,,58,0
67549,note_on,,,,,160,0,7,,,,,6,,,,63,0
67552,note_on,,,,,160,0,5,,,,,4,,,,75,0
67556,note_on,,,,,160,0,4,,,,,3,,,,51,0
67556,note_on,,,,,0,0,4,,,,,3,,,,39,0
67580,note_on,,,,,48,0,3,,,,,2,,,,70,0
67580,note_on,,,,,0,0,3,,,,,2,,,,68,108
67588,note_on,,,,,32,0,4,,,,,3,,,,41,92
67588,note_on,,,,,0,0,4,,,,,3,,,,53,92
67628,note_on,,,,,0,0,3,,,,,2,,,,62,104
67628,note_on,,,,,48,0,3,,,,,2,,,,68,0
67676,note_on,,,,,0,0,3,,,,,2,,,,58,100
67676,note_on,,,,,48,0,3,,,,,2,,,,62,0
67724,note_on,,,,,48,0,3,,,,,2,,,,58,0
67724,note_on,,,,,0,0,3,,,,,2,,,,68,96
67748,note_on,,,,,160,0,4,,,,,3,,,,53,0
67748,note_on,,,,,0,0,4,,,,,3,,,,41,0
67772,note_on,,,,,48,0,3,,,,,2,,,,68,0
67772,note_on,,,,,0,0,3,,,,,2,,,,67,92
67780,note_on,,,,,32,0,4,,,,,3,,,,43,92
67780,note_on,,,,,0,0,4,,,,,3,,,,55,92
67820,note_on,,,,,0,0,3,,,,,2,,,,63,88
67820,note_on,,,,,48,0,3,,,,,2,,,,67,0
67868,note_on,,,,,0,0,3,,,,,2,,,,58,84
67868,note_on,,,,,48,0,3,,,,,2,,,,63,0
67916,note_on,,,,,48,0,3,,,,,2,,,,58,0
67916,note_on,,,,,0,0,3,,,,,2,,,,67,80
67940,note_on,,,,,160,0,4,,,,,3,,,,55,0
67940,note_on,,,,,0,0,4,,,,,3,,,,43,0
67964,note_on,,,,,48,0,3,,,,,2,,,,67,0
67964,note_on,,,,,0,0,3,,,,,2,,,,65,75
67972,note_on,,,,,32,0,4,,,,,3,,,,44,92
67972,note_on,,,,,0,0,4,,,,,3,,,,56,92
68012,note_on,,,,,48,0,3,,,,,2,,,,65,0
68012,note_on,,,,,0,0,3,,,,,2,,,,67,75
68060,note_on,,,,,0,0,3,,,,,2,,,,65,75
68060,note_on,,,,,48,0,3,,,,,2,,,,67,0
68108,note_on,,,,,48,0,3,,,,,2,,,,65,0
68108,note_on,,,,,0,0,3,,,,,2,,,,64,75
68156,note_on,,,,,48,0,3,,,,,2,,,,64,0
68156,note_on,,,,,0,0,3,,,,,2,,,,65,75
68204,note_on,,,,,48,0,3,,,,,2,,,,65,0
68204,note_on,,,,,0,0,3,,,,,2,,,,60,77
68228,note_on,,,,,0,0,4,,,,,3,,,,44,0
68228,note_on,,,,,256,0,4,,,,,3,,,,56,0
68242,set_tempo,,,,,850,1,0,,416667,,,,,,,,
68252,note_on,,,,,48,0,3,,,,,2,,,,60,0
68252,note_on,,,,,0,0,3,,,,,2,,,,62,79
68260,note_on,,,,,32,0,4,,,,,3,,,,58,92
68300,note_on,,,,,48,0,3,,,,,2,,,,62,0
68300,note_on,,,,,0,0,3,,,,,2,,,,64,81
68324,set_tempo,,,,,82,1,0,,419580,,,,,,,,
68348,note_on,,,,,0,0,3,,,,,2,,,,65,83
68348,note_on,,,,,48,0,3,,,,,2,,,,64,0
68354,note_on,,,,,94,0,4,,,,,3,,,,58,0
68356,note_on,,,,,2,0,4,,,,,3,,,,56,92
68396,note_on,,,,,48,0,3,,,,,2,,,,65,0
68396,note_on,,,,,0,0,3,,,,,2,,,,67,85
68406,set_tempo,,,,,82,1,0,,422535,,,,,,,,
68444,note_on,,,,,48,0,3,,,,,2,,,,67,0
68444,note_on,,,,,0,0,3,,,,,2,,,,68,87
68450,note_on,,,,,94,0,4,,,,,3,,,,56,0
68452,note_on,,,,,2,0,4,,,,,3,,,,55,92
68489,set_tempo,,,,,83,1,0,,425532,,,,,,,,
68492,note_on,,,,,0,0,3,,,,,2,,,,70,89
68492,note_on,,,,,48,0,3,,,,,2,,,,68,0
68540,note_on,,,,,0,0,3,,,,,2,,,,72,91
68540,note_on,,,,,48,0,3,,,,,2,,,,70,0
68546,note_on,,,,,94,0,4,,,,,3,,,,55,0
68548,note_on,,,,,2,0,4,,,,,3,,,,56,92
68571,set_tempo,,,,,82,1,0,,428571,,,,,,,,
68588,note_on,,,,,0,0,3,,,,,2,,,,73,93
68588,note_on,,,,,48,0,3,,,,,2,,,,72,0
68636,note_on,,,,,0,0,3,,,,,2,,,,72,95
68636,note_on,,,,,48,0,3,,,,,2,,,,73,0
68653,set_tempo,,,,,82,1,0,,431655,,,,,,,,
68684,note_on,,,,,0,0,3,,,,,2,,,,70,97
68684,note_on,,,,,48,0,3,,,,,2,,,,72,0
68708,note_on,,,,,160,0,4,,,,,3,,,,56,0
68732,note_on,,,,,48,0,3,,,,,2,,,,70,0
68732,note_on,,,,,0,0,3,,,,,2,,,,68,99
68733,note_on,,,,,1184,0,7,,,,,6,,,,60,75
68735,note_on,,,,,5216,0,8,,,,,7,,,,53,75
68736,set_tempo,,,,,83,1,0,,434783,,,,,,,,
68736,note_on,,,,,1184,0,5,,,,,4,,,,80,75
68740,note_on,,,,,0,0,4,,,,,3,,,,53,92
68740,note_on,,,,,32,0,4,,,,,3,,,,41,92
68741,note_on,,,,,4064,0,6,,,,,5,,,,72,75
68742,note_on,,,,,5216,0,9,,,,,8,,,,41,75
68780,note_on,,,,,48,0,3,,,,,2,,,,68,0
68780,note_on,,,,,0,0,3,,,,,2,,,,70,101
68827,note_on,,,,,94,0,7,,,,,6,,,,60,0
68828,note_on,,,,,0,0,3,,,,,2,,,,67,103
68828,note_on,,,,,48,0,3,,,,,2,,,,70,0
68829,note_on,,,,,2,0,7,,,,,6,,,,64,75
68829,note_on,,,,,94,0,8,,,,,7,,,,53,0
68830,note_on,,,,,94,0,5,,,,,4,,,,80,0
68831,note_on,,,,,2,0,8,,,,,7,,,,55,75
68832,note_on,,,,,2,0,5,,,,,4,,,,79,75
68834,note_on,,,,,94,0,4,,,,,3,,,,53,0
68834,note_on,,,,,0,0,4,,,,,3,,,,41,0
68835,note_on,,,,,94,0,6,,,,,5,,,,72,0
68836,note_on,,,,,0,0,4,,,,,3,,,,55,92
68836,note_on,,,,,94,0,9,,,,,8,,,,41,0
68836,note_on,,,,,2,0,4,,,,,3,,,,43,92
68837,note_on,,,,,2,0,6,,,,,5,,,,70,75
68838,note_on,,,,,2,0,9,,,,,8,,,,43,75
68876,note_on,,,,,0,0,3,,,,,2,,,,68,105
68876,note_on,,,,,48,0,3,,,,,2,,,,67,0
68923,note_on,,,,,94,0,7,,,,,6,,,,64,0
68924,note_on,,,,,0,0,3,,,,,2,,,,65,108
68924,note_on,,,,,48,0,3,,,,,2,,,,68,0
68925,note_on,,,,,2,0,7,,,,,6,,,,65,92
68925,note_on,,,,,94,0,8,,,,,7,,,,55,0
68926,note_on,,,,,94,0,5,,,,,4,,,,79,0
68927,note_on,,,,,2,0,8,,,,,7,,,,56,92
68928,note_on,,,,,2,0,5,,,,,4,,,,77,92
68930,note_on,,,,,94,0,4,,,,,3,,,,55,0
68930,note_on,,,,,0,0,4,,,,,3,,,,43,0
68931,note_on,,,,,94,0,6,,,,,5,,,,70,0
68932,note_on,,,,,2,0,4,,,,,3,,,,44,92
68932,note_on,,,,,94,0,9,,,,,8,,,,43,0
68932,note_on,,,,,0,0,4,,,,,3,,,,56,92
68933,note_on,,,,,2,0,6,,,,,5,,,,68,92
68934,note_on,,,,,2,0,9,,,,,8,,,,44,92
68972,note_on,,,,,48,0,3,,,,,2,,,,65,0
68972,note_on,,,,,0,0,3,,,,,2,,,,67,108
69019,note_on,,,,,94,0,7,,,,,6,,,,65,0
69020,note_on,,,,,0,0,3,,,,,2,,,,63,108
69020,note_on,,,,,48,0,3,,,,,2,,,,67,0
69021,note_on,,,,,2,0,7,,,,,6,,,,67,92
69021,note_on,,,,,94,0,8,,,,,7,,,,56,0
69022,note_on,,,,,94,0,5,,,,,4,,,,77,0
69023,note_on,,,,,2,0,8,,,,,7,,,,57,92
69024,note_on,,,,,2,0,5,,,,,4,,,,75,92
69026,note_on,,,,,94,0,4,,,,,3,,,,56,0
69026,note_on,,,,,0,0,4,,,,,3,,,,44,0
69027,note_on,,,,,94,0,6,,,,,5,,,,68,0
69028,note_on,,,,,2,0,4,,,,,3,,,,45,92
69028,note_on,,,,,0,0,4,,,,,3,,,,57,92
69028,note_on,,,,,94,0,9,,,,,8,,,,44,0
69029,note_on,,,,,2,0,6,,,,,5,,,,72,92
69030,note_on,,,,,2,0,9,,,,,8,,,,45,92
69068,note_on,,,,,48,0,3,,,,,2,,,,63,0
69068,note_on,,,,,0,0,3,,,,,2,,,,65,108
69115,note_on,,,,,94,0,7,,,,,6,,,,67,0
69116,note_on,,,,,48,0,3,,,,,2,,,,65,0
69116,note_on,,,,,0,0,3,,,,,2,,,,70,127
69117,note_on,,,,,2,0,7,,,,,6,,,,65,92
69117,note_on,,,,,94,0,8,,,,,7,,,,57,0
69118,note_on,,,,,94,0,5,,,,,4,,,,75,0
69119,note_on,,,,,2,0,8,,,,,7,,,,58,92
69120,note_on,,,,,2,0,5,,,,,4,,,,82,92
69122,note_on,,,,,0,0,4,,,,,3,,,,45,0
69122,note_on,,,,,94,0,4,,,,,3,,,,57,0
69123,note_on,,,,,94,0,6,,,,,5,,,,72,0
69124,note_on,,,,,2,0,4,,,,,3,,,,46,127
69124,note_on,,,,,0,0,4,,,,,3,,,,58,127
69124,note_on,,,,,94,0,9,,,,,8,,,,45,0
69125,note_on,,,,,2,0,6,,,,,5,,,,74,92
69126,note_on,,,,,2,0,9,,,,,8,,,,46,92
69277,note_on,,,,,160,0,7,,,,,6,,,,65,0
69279,note_on,,,,,160,0,8,,,,,7,,,,58,0
69280,note_on,,,,,160,0,5,,,,,4,,,,82,0
69284,note_on,,,,,0,0,4,,,,,3,,,,46,0
69284,note_on,,,,,160,0,4,,,,,3,,,,58,0
69285,note_on,,,,,160,0,6,,,,,5,,,,74,0
69286,note_on,,,,,160,0,9,,,,,8,,,,46,0
69308,note_on,,,,,0,0,3,,,,,2,,,,58,108
69308,note_on,,,,,192,0,3,,,,,2,,,,70,0
69309,note_on,,,,,32,0,7,,,,,6,,,,65,92
69311,note_on,,,,,32,0,8,,,,,7,,,,46,92
69312,note_on,,,,,32,0,5,,,,,4,,,,70,92
69316,note_on,,,,,0,0,4,,,,,3,,,,53,92
69316,note_on,,,,,0,0,4,,,,,3,,,,50,92
69316,note_on,,,,,32,0,4,,,,,3,,,,34,92
69316,note_on,,,,,0,0,4,,,,,3,,,,46,92
69317,note_on,,,,,32,0,6,,,,,5,,,,62,92
69318,note_on,,,,,32,0,9,,,,,8,,,,34,92
69469,note_on,,,,,160,0,7,,,,,6,,,,65,0
69471,note_on,,,,,160,0,8,,,,,7,,,,46,0
69472,note_on,,,,,160,0,5,,,,,4,,,,70,0
69476,note_on,,,,,0,0,4,,,,,3,,,,50,0
69476,note_on,,,,,0,0,4,,,,,3,,,,46,0
69476,note_on,,,,,0,0,4,,,,,3,,,,34,0
69476,note_on,,,,,160,0,4,,,,,3,,,,53,0
69477,note_on,,,,,160,0,6,,,,,5,,,,62,0
69478,note_on,,,,,160,0,9,,,,,8,,,,34,0
69500,note_on,,,,,192,0,3,,,,,2,,,,58,0
69692,note_on,,,,,192,0,3,,,,,2,,,,77,92
69696,set_tempo,,,,,960,1,0,,444444,,,,,,,,
69700,note_on,,,,,224,0,4,,,,,3,,,,58,75
69796,note_on,,,,,96,0,4,,,,,3,,,,58,0
69796,note_on,,,,,0,0,4,,,,,3,,,,65,75
69892,note_on,,,,,96,0,4,,,,,3,,,,65,0
69892,note_on,,,,,0,0,4,,,,,3,,,,62,75
69988,note_on,,,,,96,0,4,,,,,3,,,,62,0
69988,note_on,,,,,0,0,4,,,,,3,,,,65,75
70076,note_on,,,,,0,0,3,,,,,2,,,,79,75
70076,note_on,,,,,384,0,3,,,,,2,,,,77,0
70084,note_on,,,,,0,0,4,,,,,3,,,,58,75
70084,note_on,,,,,96,0,4,,,,,3,,,,65,0
70100,note_on,,,,,24,0,3,,,,,2,,,,79,0
70100,note_on,,,,,0,0,3,,,,,2,,,,77,75
70172,note_on,,,,,72,0,3,,,,,2,,,,77,0
70172,note_on,,,,,0,0,3,,,,,2,,,,75,75
70180,note_on,,,,,96,0,4,,,,,3,,,,58,0
70180,note_on,,,,,0,0,4,,,,,3,,,,65,75
70220,note_on,,,,,48,0,3,,,,,2,,,,75,0
70220,note_on,,,,,0,0,3,,,,,2,,,,74,75
70268,note_on,,,,,0,0,3,,,,,2,,,,80,92
70268,note_on,,,,,48,0,3,,,,,2,,,,74,0
70276,note_on,,,,,96,0,4,,,,,3,,,,65,0
70276,note_on,,,,,0,0,4,,,,,3,,,,59,75
70372,note_on,,,,,96,0,4,,,,,3,,,,59,0
70372,note_on,,,,,0,0,4,,,,,3,,,,67,75
70460,note_on,,,,,0,0,3,,,,,2,,,,79,92
70460,note_on,,,,,192,0,3,,,,,2,,,,80,0
70468,note_on,,,,,96,0,4,,,,,3,,,,67,0
70468,note_on,,,,,0,0,4,,,,,3,,,,62,75
70564,note_on,,,,,0,0,4,,,,,3,,,,67,75
70564,note_on,,,,,96,0,4,,,,,3,,,,62,0
70652,note_on,,,,,192,0,3,,,,,2,,,,79,0
70652,note_on,,,,,0,0,3,,,,,2,,,,74,92
70660,note_on,,,,,0,0,4,,,,,3,,,,59,75
70660,note_on,,,,,96,0,4,,,,,3,,,,67,0
70756,note_on,,,,,96,0,4,,,,,3,,,,59,0
70756,note_on,,,,,0,0,4,,,,,3,,,,67,75
70844,note_on,,,,,192,0,3,,,,,2,,,,74,0
70844,note_on,,,,,0,0,3,,,,,2,,,,77,92
70848,note_on,,,,,1376,0,5,,,,,4,,,,79,37
70852,note_on,,,,,96,0,4,,,,,3,,,,67,0
70852,note_on,,,,,0,0,4,,,,,3,,,,60,75
70853,note_on,,,,,1376,0,6,,,,,5,,,,67,37
70940,note_on,,,,,0,0,3,,,,,2,,,,75,92
70940,note_on,,,,,96,0,3,,,,,2,,,,77,0
70948,note_on,,,,,96,0,4,,,,,3,,,,60,0
70948,note_on,,,,,0,0,4,,,,,3,,,,67,75
71034,note_on,,,,,94,0,3,,,,,2,,,,75,0
71044,note_on,,,,,96,0,4,,,,,3,,,,67,0
71044,note_on,,,,,0,0,4,,,,,3,,,,63,75
71140,note_on,,,,,96,0,4,,,,,3,,,,63,0
71140,note_on,,,,,0,0,4,,,,,3,,,,67,75
71228,note_on,,,,,194,0,3,,,,,2,,,,79,92
71236,note_on,,,,,96,0,4,,,,,3,,,,67,0
71236,note_on,,,,,0,0,4,,,,,3,,,,59,75
71324,note_on,,,,,96,0,3,,,,,2,,,,79,0
71324,note_on,,,,,0,0,3,,,,,2,,,,74,92
71332,note_on,,,,,96,0,4,,,,,3,,,,59,0
71332,note_on,,,,,0,0,4,,,,,3,,,,67,75
71418,note_on,,,,,94,0,3,,,,,2,,,,74,0
71420,note_on,,,,,2,0,3,,,,,2,,,,77,92
71428,note_on,,,,,96,0,4,,,,,3,,,,67,0
71428,note_on,,,,,0,0,4,,,,,3,,,,60,75
71516,note_on,,,,,96,0,3,,,,,2,,,,77,0
71516,note_on,,,,,0,0,3,,,,,2,,,,75,92
71524,note_on,,,,,0,0,4,,,,,3,,,,67,75
71524,note_on,,,,,96,0,4,,,,,3,,,,60,0
71610,note_on,,,,,94,0,3,,,,,2,,,,75,0
71620,note_on,,,,,96,0,4,,,,,3,,,,67,0
71620,note_on,,,,,0,0,4,,,,,3,,,,63,75
71716,note_on,,,,,96,0,4,,,,,3,,,,63,0
71716,note_on,,,,,0,0,4,,,,,3,,,,67,75
71808,note_on,,,,,0,0,5,,,,,4,,,,78,37
71808,note_on,,,,,960,0,5,,,,,4,,,,79,0
71812,note_on,,,,,96,0,4,,,,,3,,,,67,0
71812,note_on,,,,,0,0,4,,,,,3,,,,58,75
71813,note_on,,,,,0,0,6,,,,,5,,,,66,37
71813,note_on,,,,,960,0,6,,,,,5,,,,67,0
71908,note_on,,,,,96,0,4,,,,,3,,,,58,0
71908,note_on,,,,,0,0,4,,,,,3,,,,66,75
71968,note_on,,,,,160,0,5,,,,,4,,,,78,0
71973,note_on,,,,,160,0,6,,,,,5,,,,66,0
71996,note_on,,,,,386,0,3,,,,,2,,,,75,92
72000,note_on,,,,,32,0,5,,,,,4,,,,77,37
72004,note_on,,,,,96,0,4,,,,,3,,,,66,0
72004,note_on,,,,,0,0,4,,,,,3,,,,57,75
72005,note_on,,,,,32,0,6,,,,,5,,,,65,37
72100,note_on,,,,,96,0,4,,,,,3,,,,57,0
72100,note_on,,,,,0,0,4,,,,,3,,,,65,75
72160,note_on,,,,,160,0,5,,,,,4,,,,77,0
72165,note_on,,,,,160,0,6,,,,,5,,,,65,0
72196,note_on,,,,,96,0,4,,,,,3,,,,65,0
72196,note_on,,,,,0,0,4,,,,,3,,,,60,75
72284,note_on,,,,,288,0,3,,,,,2,,,,75,0
72284,note_on,,,,,0,0,3,,,,,2,,,,74,75
72292,note_on,,,,,96,0,4,,,,,3,,,,60,0
72292,note_on,,,,,0,0,4,,,,,3,,,,65,75
72332,note_on,,,,,48,0,3,,,,,2,,,,74,0
72332,note_on,,,,,0,0,3,,,,,2,,,,75,75
72380,note_on,,,,,48,0,3,,,,,2,,,,75,0
72380,note_on,,,,,0,0,3,,,,,2,,,,77,75
72388,note_on,,,,,96,0,4,,,,,3,,,,65,0
72388,note_on,,,,,0,0,4,,,,,3,,,,57,75
72404,note_on,,,,,0,0,3,,,,,2,,,,75,75
72404,note_on,,,,,24,0,3,,,,,2,,,,77,0
72476,note_on,,,,,72,0,3,,,,,2,,,,75,0
72476,note_on,,,,,0,0,3,,,,,2,,,,74,75
72484,note_on,,,,,96,0,4,,,,,3,,,,57,0
72484,note_on,,,,,0,0,4,,,,,3,,,,65,75
72524,note_on,,,,,48,0,3,,,,,2,,,,74,0
72524,note_on,,,,,0,0,3,,,,,2,,,,72,75
72572,note_on,,,,,48,0,3,,,,,2,,,,72,0
72572,note_on,,,,,0,0,3,,,,,2,,,,84,92
72580,note_on,,,,,96,0,4,,,,,3,,,,65,0
72580,note_on,,,,,0,0,4,,,,,3,,,,57,75
72676,note_on,,,,,96,0,4,,,,,3,,,,57,0
72676,note_on,,,,,0,0,4,,,,,3,,,,65,75
72764,note_on,,,,,0,0,3,,,,,2,,,,72,92
72764,note_on,,,,,192,0,3,,,,,2,,,,84,0
72772,note_on,,,,,96,0,4,,,,,3,,,,65,0
72772,note_on,,,,,0,0,4,,,,,3,,,,60,75
72868,note_on,,,,,96,0,4,,,,,3,,,,60,0
72868,note_on,,,,,0,0,4,,,,,3,,,,65,75
72956,note_on,,,,,0,0,3,,,,,2,,,,77,92
72956,note_on,,,,,192,0,3,,,,,2,,,,72,0
72964,note_on,,,,,0,0,4,,,,,3,,,,57,75
72964,note_on,,,,,96,0,4,,,,,3,,,,65,0
73060,note_on,,,,,96,0,4,,,,,3,,,,57,0
73060,note_on,,,,,0,0,4,,,,,3,,,,65,75
73148,note_on,,,,,192,0,3,,,,,2,,,,77,0
73148,note_on,,,,,0,0,3,,,,,2,,,,75,92
73152,note_on,,,,,992,0,5,,,,,4,,,,77,37
73156,note_on,,,,,0,0,4,,,,,3,,,,58,75
73156,note_on,,,,,96,0,4,,,,,3,,,,65,0
73157,note_on,,,,,992,0,6,,,,,5,,,,65,37
73244,note_on,,,,,0,0,3,,,,,2,,,,74,92
73244,note_on,,,,,96,0,3,,,,,2,,,,75,0
73252,note_on,,,,,0,0,4,,,,,3,,,,65,75
73252,note_on,,,,,96,0,4,,,,,3,,,,58,0
73340,note_on,,,,,96,0,3,,,,,2,,,,74,0
73348,note_on,,,,,0,0,4,,,,,3,,,,62,75
73348,note_on,,,,,96,0,4,,,,,3,,,,65,0
73444,note_on,,,,,0,0,4,,,,,3,,,,65,75
73444,note_on,,,,,96,0,4,,,,,3,,,,62,0
73532,note_on,,,,,192,0,3,,,,,2,,,,77,92
73540,note_on,,,,,96,0,4,,,,,3,,,,65,0
73540,note_on,,,,,0,0,4,,,,,3,,,,57,75
73628,note_on,,,,,0,0,3,,,,,2,,,,72,92
73628,note_on,,,,,96,0,3,,,,,2,,,,77,0
73636,note_on,,,,,96,0,4,,,,,3,,,,57,0
73636,note_on,,,,,0,0,4,,,,,3,,,,65,75
73722,note_on,,,,,94,0,3,,,,,2,,,,72,0
73724,note_on,,,,,2,0,3,,,,,2,,,,75,92
73732,note_on,,,,,0,0,4,,,,,3,,,,58,75
73732,note_on,,,,,96,0,4,,,,,3,,,,65,0
73820,note_on,,,,,0,0,3,,,,,2,,,,74,92
73820,note_on,,,,,96,0,3,,,,,2,,,,75,0
73828,note_on,,,,,0,0,4,,,,,3,,,,65,75
73828,note_on,,,,,96,0,4,,,,,3,,,,58,0
73914,note_on,,,,,94,0,3,,,,,2,,,,74,0
73924,note_on,,,,,0,0,4,,,,,3,,,,62,75
73924,note_on,,,,,96,0,4,,,,,3,,,,65,0
74020,note_on,,,,,96,0,4,,,,,3,,,,62,0
74020,note_on,,,,,0,0,4,,,,,3,,,,65,75
74112,note_on,,,,,0,0,5,,,,,4,,,,82,37
74112,note_on,,,,,960,0,5,,,,,4,,,,77,0
74116,note_on,,,,,0,0,4,,,,,3,,,,55,75
74116,note_on,,,,,96,0,4,,,,,3,,,,65,0
74117,note_on,,,,,0,0,6,,,,,5,,,,74,37
74117,note_on,,,,,960,0,6,,,,,5,,,,65,0
74212,note_on,,,,,0,0,4,,,,,3,,,,58,75
74212,note_on,,,,,96,0,4,,,,,3,,,,55,0
74272,note_on,,,,,160,0,5,,,,,4,,,,82,0
74277,note_on,,,,,160,0,6,,,,,5,,,,74,0
74300,note_on,,,,,386,0,3,,,,,2,,,,72,127
74301,note_on,,,,,4832,0,7,,,,,6,,,,63,45
74303,note_on,,,,,4832,0,8,,,,,7,,,,51,45
74304,note_on,,,,,32,0,5,,,,,4,,,,72,45
74308,note_on,,,,,96,0,4,,,,,3,,,,58,0
74308,note_on,,,,,0,0,4,,,,,3,,,,51,75
74309,note_on,,,,,32,0,6,,,,,5,,,,67,45
74310,note_on,,,,,4832,0,9,,,,,8,,,,39,45
74404,note_on,,,,,0,0,4,,,,,3,,,,60,75
74404,note_on,,,,,96,0,4,,,,,3,,,,51,0
74461,note_on,,,,,160,0,7,,,,,6,,,,63,0
74463,note_on,,,,,160,0,8,,,,,7,,,,51,0
74464,note_on,,,,,160,0,5,,,,,4,,,,72,0
74469,note_on,,,,,160,0,6,,,,,5,,,,67,0
74470,note_on,,,,,160,0,9,,,,,8,,,,39,0
74500,note_on,,,,,0,0,4,,,,,3,,,,55,75
74500,note_on,,,,,96,0,4,,,,,3,,,,60,0
74588,note_on,,,,,0,0,3,,,,,2,,,,75,75
74588,note_on,,,,,288,0,3,,,,,2,,,,72,0
74596,note_on,,,,,0,0,4,,,,,3,,,,60,75
74596,note_on,,,,,96,0,4,,,,,3,,,,55,0
74636,note_on,,,,,48,0,3,,,,,2,,,,75,0
74636,note_on,,,,,0,0,3,,,,,2,,,,74,75
74684,note_on,,,,,48,0,3,,,,,2,,,,74,0
74684,note_on,,,,,0,0,3,,,,,2,,,,77,75
74692,note_on,,,,,0,0,4,,,,,3,,,,51,75
74692,note_on,,,,,96,0,4,,,,,3,,,,60,0
74708,note_on,,,,,0,0,3,,,,,2,,,,75,75
74708,note_on,,,,,24,0,3,,,,,2,,,,77,0
74780,note_on,,,,,0,0,3,,,,,2,,,,74,75
74780,note_on,,,,,72,0,3,,,,,2,,,,75,0
74788,note_on,,,,,96,0,4,,,,,3,,,,51,0
74788,note_on,,,,,0,0,4,,,,,3,,,,60,75
74828,note_on,,,,,48,0,3,,,,,2,,,,74,0
74828,note_on,,,,,0,0,3,,,,,2,,,,72,75
74876,note_on,,,,,48,0,3,,,,,2,,,,72,0
74876,note_on,,,,,0,0,3,,,,,2,,,,78,92
74877,note_on,,,,,416,0,7,,,,,6,,,,60,45
74879,note_on,,,,,416,0,8,,,,,7,,,,52,45
74880,note_on,,,,,416,0,5,,,,,4,,,,70,45
74884,note_on,,,,,96,0,4,,,,,3,,,,60,0
74884,note_on,,,,,0,0,4,,,,,3,,,,52,75
74885,note_on,,,,,416,0,6,,,,,5,,,,67,45
74886,note_on,,,,,416,0,9,,,,,8,,,,40,45
74980,note_on,,,,,96,0,4,,,,,3,,,,52,0
74980,note_on,,,,,0,0,4,,,,,3,,,,60,75
75037,note_on,,,,,160,0,7,,,,,6,,,,60,0
75039,note_on,,,,,160,0,8,,,,,7,,,,52,0
75040,note_on,,,,,160,0,5,,,,,4,,,,70,0
75045,note_on,,,,,160,0,6,,,,,5,,,,67,0
75046,note_on,,,,,160,0,9,,,,,8,,,,40,0
75068,note_on,,,,,0,0,3,,,,,2,,,,79,92
75068,note_on,,,,,192,0,3,,,,,2,,,,78,0
75076,note_on,,,,,0,0,4,,,,,3,,,,55,75
75076,note_on,,,,,96,0,4,,,,,3,,,,60,0
75172,note_on,,,,,0,0,4,,,,,3,,,,60,75
75172,note_on,,,,,96,0,4,,,,,3,,,,55,0
75228,note_on,,,,,160,0,3,,,,,2,,,,79,0
75260,note_on,,,,,32,0,3,,,,,2,,,,70,75
75268,note_on,,,,,0,0,4,,,,,3,,,,52,75
75268,note_on,,,,,96,0,4,,,,,3,,,,60,0
75308,note_on,,,,,48,0,3,,,,,2,,,,70,0
75364,note_on,,,,,0,0,4,,,,,3,,,,60,75
75364,note_on,,,,,96,0,4,,,,,3,,,,52,0
75452,note_on,,,,,144,0,3,,,,,2,,,,69,92
75453,note_on,,,,,416,0,7,,,,,6,,,,60,45
75455,note_on,,,,,416,0,8,,,,,7,,,,53,45
75456,note_on,,,,,416,0,5,,,,,4,,,,69,45
75456,set_tempo,,,,,5760,1,0,,428571,,,,,,,,
75460,note_on,,,,,0,0,4,,,,,3,,,,53,75
75460,note_on,,,,,96,0,4,,,,,3,,,,60,0
75461,note_on,,,,,416,0,6,,,,,5,,,,65,45
75462,note_on,,,,,416,0,9,,,,,8,,,,41,45
75476,note_on,,,,,0,0,3,,,,,2,,,,72,92
75476,note_on,,,,,24,0,3,,,,,2,,,,69,0
75500,note_on,,,,,0,0,3,,,,,2,,,,77,92
75500,note_on,,,,,24,0,3,,,,,2,,,,72,0
75613,note_on,,,,,160,0,7,,,,,6,,,,60,0
75615,note_on,,,,,160,0,8,,,,,7,,,,53,0
75616,note_on,,,,,160,0,5,,,,,4,,,,69,0
75621,note_on,,,,,160,0,6,,,,,5,,,,65,0
75622,note_on,,,,,160,0,9,,,,,8,,,,41,0
75642,note_on,,,,,142,0,3,,,,,2,,,,77,0
75644,note_on,,,,,2,0,3,,,,,2,,,,77,75
75648,note_on,,,,,32,0,5,,,,,4,,,,69,45
75652,note_on,,,,,192,0,4,,,,,3,,,,53,0
75653,note_on,,,,,32,0,6,,,,,5,,,,65,45
75676,note_on,,,,,32,0,3,,,,,2,,,,77,0
75680,note_on,,,,,32,0,5,,,,,4,,,,69,0
75685,note_on,,,,,32,0,6,,,,,5,,,,65,0
75740,note_on,,,,,64,0,3,,,,,2,,,,77,75
75744,note_on,,,,,64,0,5,,,,,4,,,,70,45
75749,note_on,,,,,64,0,6,,,,,5,,,,67,45
75772,note_on,,,,,32,0,3,,,,,2,,,,77,0
75776,note_on,,,,,32,0,5,,,,,4,,,,70,0
75781,note_on,,,,,32,0,6,,,,,5,,,,67,0
75836,note_on,,,,,64,0,3,,,,,2,,,,77,75
75840,note_on,,,,,64,0,5,,,,,4,,,,72,45
75845,note_on,,,,,64,0,6,,,,,5,,,,69,45
75868,note_on,,,,,32,0,3,,,,,2,,,,77,0
75872,note_on,,,,,32,0,5,,,,,4,,,,72,0
75877,note_on,,,,,32,0,6,,,,,5,,,,69,0
75932,note_on,,,,,64,0,3,,,,,2,,,,77,75
75936,note_on,,,,,64,0,5,,,,,4,,,,74,45
75941,note_on,,,,,64,0,6,,,,,5,,,,70,45
75964,note_on,,,,,32,0,3,,,,,2,,,,77,0
75968,note_on,,,,,32,0,5,,,,,4,,,,74,0
75973,note_on,,,,,32,0,6,,,,,5,,,,70,0
76028,note_on,,,,,64,0,3,,,,,2,,,,77,75
76029,note_on,,,,,416,0,7,,,,,6,,,,65,45
76031,note_on,,,,,416,0,8,,,,,7,,,,57,45
76032,note_on,,,,,64,0,5,,,,,4,,,,77,45
76037,note_on,,,,,64,0,6,,,,,5,,,,74,45
76038,note_on,,,,,416,0,9,,,,,8,,,,45,45
76060,note_on,,,,,32,0,3,,,,,2,,,,77,0
76123,note_on,,,,,94,0,7,,,,,6,,,,65,0
76124,note_on,,,,,64,0,3,,,,,2,,,,77,75
76125,note_on,,,,,94,0,8,,,,,7,,,,57,0
76128,note_on,,,,,96,0,5,,,,,4,,,,77,0
76128,note_on,,,,,0,0,5,,,,,4,,,,75,45
76132,note_on,,,,,94,0,9,,,,,8,,,,45,0
76133,note_on,,,,,0,0,6,,,,,5,,,,72,45
76133,note_on,,,,,96,0,6,,,,,5,,,,74,0
76156,note_on,,,,,32,0,3,,,,,2,,,,77,0
76220,note_on,,,,,64,0,3,,,,,2,,,,77,75
76221,note_on,,,,,98,0,7,,,,,6,,,,65,45
76222,note_on,,,,,94,0,5,,,,,4,,,,75,0
76223,note_on,,,,,98,0,8,,,,,7,,,,58,45
76224,note_on,,,,,2,0,5,,,,,4,,,,75,45
76227,note_on,,,,,94,0,6,,,,,5,,,,72,0
76229,note_on,,,,,2,0,6,,,,,5,,,,72,45
76230,note_on,,,,,98,0,9,,,,,8,,,,46,45
76252,note_on,,,,,32,0,3,,,,,2,,,,77,0
76315,note_on,,,,,94,0,7,,,,,6,,,,65,0
76316,note_on,,,,,64,0,3,,,,,2,,,,77,75
76317,note_on,,,,,94,0,8,,,,,7,,,,58,0
76320,note_on,,,,,0,0,5,,,,,4,,,,74,45
76320,note_on,,,,,96,0,5,,,,,4,,,,75,0
76324,note_on,,,,,94,0,9,,,,,8,,,,46,0
76325,note_on,,,,,0,0,6,,,,,5,,,,70,45
76325,note_on,,,,,96,0,6,,,,,5,,,,72,0
76348,note_on,,,,,32,0,3,,,,,2,,,,77,0
76412,note_on,,,,,64,0,3,,,,,2,,,,77,75
76413,note_on,,,,,98,0,7,,,,,6,,,,65,45
76414,note_on,,,,,94,0,5,,,,,4,,,,74,0
76415,note_on,,,,,98,0,8,,,,,7,,,,46,45
76416,note_on,,,,,2,0,5,,,,,4,,,,74,45
76419,note_on,,,,,94,0,6,,,,,5,,,,70,0
76421,note_on,,,,,2,0,6,,,,,5,,,,70,45
76422,note_on,,,,,98,0,9,,,,,8,,,,34,45
76444,note_on,,,,,32,0,3,,,,,2,,,,77,0
76507,note_on,,,,,94,0,7,,,,,6,,,,65,0
76508,note_on,,,,,64,0,3,,,,,2,,,,77,75
76509,note_on,,,,,94,0,8,,,,,7,,,,46,0
76512,note_on,,,,,0,0,5,,,,,4,,,,72,45
76512,note_on,,,,,96,0,5,,,,,4,,,,74,0
76516,note_on,,,,,94,0,9,,,,,8,,,,34,0
76517,note_on,,,,,0,0,6,,,,,5,,,,69,45
76517,note_on,,,,,96,0,6,,,,,5,,,,70,0
76540,note_on,,,,,32,0,3,,,,,2,,,,77,0
76604,note_on,,,,,64,0,3,,,,,2,,,,81,92
76605,note_on,,,,,98,0,7,,,,,6,,,,65,45
76606,note_on,,,,,94,0,5,,,,,4,,,,72,0
76607,note_on,,,,,98,0,8,,,,,7,,,,53,45
76608,note_on,,,,,2,0,5,,,,,4,,,,72,45
76611,note_on,,,,,94,0,6,,,,,5,,,,69,0
76612,note_on,,,,,0,0,4,,,,,3,,,,53,75
76612,note_on,,,,,960,0,4,,,,,3,,,,41,75
76613,note_on,,,,,2,0,6,,,,,5,,,,69,45
76614,note_on,,,,,98,0,9,,,,,8,,,,41,45
76628,note_on,,,,,24,0,3,,,,,2,,,,81,0
76628,note_on,,,,,0,0,3,,,,,2,,,,79,92
76652,note_on,,,,,0,0,3,,,,,2,,,,77,92
76652,note_on,,,,,24,0,3,,,,,2,,,,79,0
76765,note_on,,,,,160,0,7,,,,,6,,,,65,0
76767,note_on,,,,,160,0,8,,,,,7,,,,53,0
76768,note_on,,,,,160,0,5,,,,,4,,,,72,0
76772,note_on,,,,,160,0,4,,,,,3,,,,53,0
76772,note_on,,,,,0,0,4,,,,,3,,,,41,0
76773,note_on,,,,,160,0,6,,,,,5,,,,69,0
76774,note_on,,,,,160,0,9,,,,,8,,,,41,0
76794,note_on,,,,,142,0,3,,,,,2,,,,77,0
76796,note_on,,,,,2,0,3,,,,,2,,,,77,75
76800,note_on,,,,,32,0,5,,,,,4,,,,69,45
76805,note_on,,,,,32,0,6,,,,,5,,,,65,45
76828,note_on,,,,,32,0,3,,,,,2,,,,77,0
76832,note_on,,,,,32,0,5,,,,,4,,,,69,0
76837,note_on,,,,,32,0,6,,,,,5,,,,65,0
76892,note_on,,,,,64,0,3,,,,,2,,,,77,75
76896,note_on,,,,,64,0,5,,,,,4,,,,70,45
76901,note_on,,,,,64,0,6,,,,,5,,,,67,45
76924,note_on,,,,,32,0,3,,,,,2,,,,77,0
76928,note_on,,,,,32,0,5,,,,,4,,,,70,0
76933,note_on,,,,,32,0,6,,,,,5,,,,67,0
76988,note_on,,,,,64,0,3,,,,,2,,,,77,75
76992,note_on,,,,,64,0,5,,,,,4,,,,72,45
76997,note_on,,,,,64,0,6,,,,,5,,,,69,45
77020,note_on,,,,,32,0,3,,,,,2,,,,77,0
77024,note_on,,,,,32,0,5,,,,,4,,,,72,0
77029,note_on,,,,,32,0,6,,,,,5,,,,69,0
77084,note_on,,,,,64,0,3,,,,,2,,,,77,75
77088,note_on,,,,,64,0,5,,,,,4,,,,74,45
77093,note_on,,,,,64,0,6,,,,,5,,,,70,45
77116,note_on,,,,,32,0,3,,,,,2,,,,77,0
77120,note_on,,,,,32,0,5,,,,,4,,,,74,0
77125,note_on,,,,,32,0,6,,,,,5,,,,70,0
77180,note_on,,,,,64,0,3,,,,,2,,,,77,75
77181,note_on,,,,,416,0,7,,,,,6,,,,65,45
77183,note_on,,,,,416,0,8,,,,,7,,,,57,45
77184,note_on,,,,,64,0,5,,,,,4,,,,77,45
77189,note_on,,,,,64,0,6,,,,,5,,,,74,45
77190,note_on,,,,,416,0,9,,,,,8,,,,45,45
77212,note_on,,,,,32,0,3,,,,,2,,,,77,0
77275,note_on,,,,,94,0,7,,,,,6,,,,65,0
77276,note_on,,,,,64,0,3,,,,,2,,,,77,75
77277,note_on,,,,,94,0,8,,,,,7,,,,57,0
77280,note_on,,,,,0,0,5,,,,,4,,,,75,45
77280,note_on,,,,,96,0,5,,,,,4,,,,77,0
77284,note_on,,,,,94,0,9,,,,,8,,,,45,0
77285,note_on,,,,,0,0,6,,,,,5,,,,72,45
77285,note_on,,,,,96,0,6,,,,,5,,,,74,0
77308,note_on,,,,,32,0,3,,,,,2,,,,77,0
77372,note_on,,,,,64,0,3,,,,,2,,,,77,75
77373,note_on,,,,,98,0,7,,,,,6,,,,65,45
77374,note_on,,,,,94,0,5,,,,,4,,,,75,0
77375,note_on,,,,,98,0,8,,,,,7,,,,58,45
77376,note_on,,,,,2,0,5,,,,,4,,,,75,45
77379,note_on,,,,,94,0,6,,,,,5,,,,72,0
77381,note_on,,,,,2,0,6,,,,,5,,,,72,45
77382,note_on,,,,,98,0,9,,,,,8,,,,46,45
77404,note_on,,,,,32,0,3,,,,,2,,,,77,0
77467,note_on,,,,,94,0,7,,,,,6,,,,65,0
77468,note_on,,,,,64,0,3,,,,,2,,,,77,75
77469,note_on,,,,,94,0,8,,,,,7,,,,58,0
77472,note_on,,,,,96,0,5,,,,,4,,,,75,0
77472,note_on,,,,,0,0,5,,,,,4,,,,74,45
77476,note_on,,,,,94,0,9,,,,,8,,,,46,0
77477,note_on,,,,,96,0,6,,,,,5,,,,72,0
77477,note_on,,,,,0,0,6,,,,,5,,,,70,45
77500,note_on,,,,,32,0,3,,,,,2,,,,77,0
77564,note_on,,,,,64,0,3,,,,,2,,,,77,75
77565,note_on,,,,,98,0,7,,,,,6,,,,65,45
77566,note_on,,,,,94,0,5,,,,,4,,,,74,0
77567,note_on,,,,,98,0,8,,,,,7,,,,46,45
77568,note_on,,,,,2,0,5,,,,,4,,,,74,45
77571,note_on,,,,,94,0,6,,,,,5,,,,70,0
77573,note_on,,,,,2,0,6,,,,,5,,,,70,45
77574,note_on,,,,,98,0,9,,,,,8,,,,34,45
77596,note_on,,,,,32,0,3,,,,,2,,,,77,0
77659,note_on,,,,,94,0,7,,,,,6,,,,65,0
77660,note_on,,,,,64,0,3,,,,,2,,,,77,75
77661,note_on,,,,,94,0,8,,,,,7,,,,46,0
77664,note_on,,,,,96,0,5,,,,,4,,,,74,0
77664,note_on,,,,,0,0,5,,,,,4,,,,72,45
77668,note_on,,,,,94,0,9,,,,,8,,,,34,0
77669,note_on,,,,,96,0,6,,,,,5,,,,70,0
77669,note_on,,,,,0,0,6,,,,,5,,,,69,45
77692,note_on,,,,,32,0,3,,,,,2,,,,77,0
77756,note_on,,,,,64,0,3,,,,,2,,,,84,92
77757,note_on,,,,,98,0,7,,,,,6,,,,65,45
77758,note_on,,,,,94,0,5,,,,,4,,,,72,0
77759,note_on,,,,,98,0,8,,,,,7,,,,53,45
77760,note_on,,,,,2,0,5,,,,,4,,,,72,45
77763,note_on,,,,,94,0,6,,,,,5,,,,69,0
77764,note_on,,,,,0,0,4,,,,,3,,,,53,75
77764,note_on,,,,,992,0,4,,,,,3,,,,41,75
77765,note_on,,,,,2,0,6,,,,,5,,,,69,45
77766,note_on,,,,,98,0,9,,,,,8,,,,41,45
77780,note_on,,,,,24,0,3,,,,,2,,,,84,0
77780,note_on,,,,,0,0,3,,,,,2,,,,81,92
77804,note_on,,,,,24,0,3,,,,,2,,,,81,0
77804,note_on,,,,,0,0,3,,,,,2,,,,77,92
77917,note_on,,,,,160,0,7,,,,,6,,,,65,0
77919,note_on,,,,,160,0,8,,,,,7,,,,53,0
77920,note_on,,,,,160,0,5,,,,,4,,,,72,0
77924,note_on,,,,,0,0,4,,,,,3,,,,41,0
77924,note_on,,,,,160,0,4,,,,,3,,,,53,0
77925,note_on,,,,,160,0,6,,,,,5,,,,69,0
77926,note_on,,,,,160,0,9,,,,,8,,,,41,0
77946,note_on,,,,,142,0,3,,,,,2,,,,77,0
77948,note_on,,,,,2,0,3,,,,,2,,,,77,75
77980,note_on,,,,,32,0,3,,,,,2,,,,77,0
78044,note_on,,,,,64,0,3,,,,,2,,,,77,75
78076,note_on,,,,,32,0,3,,,,,2,,,,77,0
78140,note_on,,,,,64,0,3,,,,,2,,,,77,75
78172,note_on,,,,,32,0,3,,,,,2,,,,77,0
78236,note_on,,,,,64,0,3,,,,,2,,,,77,75
78268,note_on,,,,,32,0,3,,,,,2,,,,77,0
78332,note_on,,,,,64,0,3,,,,,2,,,,77,75
78428,note_on,,,,,96,0,3,,,,,2,,,,77,0
78428,note_on,,,,,0,0,3,,,,,2,,,,79,75
78524,note_on,,,,,96,0,3,,,,,2,,,,79,0
78524,note_on,,,,,0,0,3,,,,,2,,,,77,75
78620,note_on,,,,,96,0,3,,,,,2,,,,77,0
78620,note_on,,,,,0,0,3,,,,,2,,,,74,75
78716,note_on,,,,,96,0,3,,,,,2,,,,74,0
78716,note_on,,,,,0,0,3,,,,,2,,,,75,75
78812,note_on,,,,,96,0,3,,,,,2,,,,75,0
78812,note_on,,,,,0,0,3,,,,,2,,,,72,75
78906,note_on,,,,,94,0,3,,,,,2,,,,72,0
78908,note_on,,,,,2,0,3,,,,,2,,,,62,92
78908,note_on,,,,,0,0,3,,,,,2,,,,70,92
78912,set_tempo,,,,,3456,1,0,,419580,,,,,,,,
78916,note_on,,,,,992,0,4,,,,,3,,,,46,60
79010,note_on,,,,,94,0,4,,,,,3,,,,46,0
79012,note_on,,,,,2,0,4,,,,,3,,,,58,60
79106,note_on,,,,,94,0,4,,,,,3,,,,58,0
79108,note_on,,,,,2,0,4,,,,,3,,,,58,60
79164,note_on,,,,,256,0,3,,,,,2,,,,70,0
79164,note_on,,,,,0,0,3,,,,,2,,,,62,0
79196,note_on,,,,,32,0,3,,,,,2,,,,63,92
79196,note_on,,,,,0,0,3,,,,,2,,,,72,92
79202,note_on,,,,,94,0,4,,,,,3,,,,58,0
79204,note_on,,,,,2,0,4,,,,,3,,,,58,60
79290,note_on,,,,,0,0,3,,,,,2,,,,63,0
79290,note_on,,,,,94,0,3,,,,,2,,,,72,0
79292,note_on,,,,,0,0,3,,,,,2,,,,74,92
79292,note_on,,,,,2,0,3,,,,,2,,,,65,92
79298,note_on,,,,,94,0,4,,,,,3,,,,58,0
79300,note_on,,,,,2,0,4,,,,,3,,,,58,60
79394,note_on,,,,,94,0,4,,,,,3,,,,58,0
79396,note_on,,,,,2,0,4,,,,,3,,,,58,60
79452,note_on,,,,,160,0,3,,,,,2,,,,74,0
79452,note_on,,,,,0,0,3,,,,,2,,,,65,0
79484,note_on,,,,,0,0,3,,,,,2,,,,75,92
79484,note_on,,,,,32,0,3,,,,,2,,,,67,92
79490,note_on,,,,,94,0,4,,,,,3,,,,58,0
79492,note_on,,,,,2,0,4,,,,,3,,,,58,60
79586,note_on,,,,,94,0,4,,,,,3,,,,58,0
79588,note_on,,,,,2,0,4,,,,,3,,,,58,60
79676,note_on,,,,,0,0,3,,,,,2,,,,64,92
79676,note_on,,,,,0,0,3,,,,,2,,,,67,0
79676,note_on,,,,,192,0,3,,,,,2,,,,75,0
79676,note_on,,,,,0,0,3,,,,,2,,,,73,92
79682,note_on,,,,,94,0,4,,,,,3,,,,58,0
79684,note_on,,,,,2,0,4,,,,,3,,,,58,60
79778,note_on,,,,,94,0,4,,,,,3,,,,58,0
79780,note_on,,,,,2,0,4,,,,,3,,,,58,60
79868,note_on,,,,,192,0,3,,,,,2,,,,73,0
79868,note_on,,,,,0,0,3,,,,,2,,,,64,0
79868,note_on,,,,,0,0,3,,,,,2,,,,65,92
79868,note_on,,,,,0,0,3,,,,,2,,,,74,92
79874,note_on,,,,,94,0,4,,,,,3,,,,58,0
79876,note_on,,,,,2,0,4,,,,,3,,,,58,60
79970,note_on,,,,,94,0,4,,,,,3,,,,58,0
79972,note_on,,,,,2,0,4,,,,,3,,,,58,60
80028,note_on,,,,,0,0,3,,,,,2,,,,65,0
80028,note_on,,,,,160,0,3,,,,,2,,,,74,0
80060,note_on,,,,,0,0,3,,,,,2,,,,72,92
80060,note_on,,,,,32,0,3,,,,,2,,,,63,92
80066,note_on,,,,,94,0,4,,,,,3,,,,58,0
80068,note_on,,,,,2,0,4,,,,,3,,,,58,60
80162,note_on,,,,,94,0,4,,,,,3,,,,58,0
80164,note_on,,,,,2,0,4,,,,,3,,,,58,60
80252,note_on,,,,,192,0,3,,,,,2,,,,72,0
80252,note_on,,,,,0,0,3,,,,,2,,,,63,0
80252,note_on,,,,,0,0,3,,,,,2,,,,69,92
80252,note_on,,,,,0,0,3,,,,,2,,,,61,92
80258,note_on,,,,,94,0,4,,,,,3,,,,58,0
80260,note_on,,,,,2,0,4,,,,,3,,,,58,60
80354,note_on,,,,,94,0,4,,,,,3,,,,58,0
80356,note_on,,,,,2,0,4,,,,,3,,,,58,60
80444,note_on,,,,,0,0,3,,,,,2,,,,70,92
80444,note_on,,,,,0,0,3,,,,,2,,,,61,0
80444,note_on,,,,,192,0,3,,,,,2,,,,69,0
80444,note_on,,,,,0,0,3,,,,,2,,,,62,92
80450,note_on,,,,,94,0,4,,,,,3,,,,58,0
80452,note_on,,,,,2,0,4,,,,,3,,,,58,60
80546,note_on,,,,,94,0,4,,,,,3,,,,58,0
80548,note_on,,,,,2,0,4,,,,,3,,,,58,60
80604,note_on,,,,,160,0,3,,,,,2,,,,70,0
80604,note_on,,,,,0,0,3,,,,,2,,,,62,0
80640,note_on,,,,,2720,0,5,,,,,4,,,,58,53
80642,note_on,,,,,94,0,4,,,,,3,,,,58,0
80644,note_on,,,,,2,0,4,,,,,3,,,,58,60
80784,note_on,,,,,144,0,5,,,,,4,,,,58,0
80784,note_on,,,,,0,0,5,,,,,4,,,,57,53
80804,note_on,,,,,160,0,4,,,,,3,,,,58,0
80832,note_on,,,,,48,0,5,,,,,4,,,,57,0
80832,note_on,,,,,0,0,5,,,,,4,,,,60,53
80976,note_on,,,,,144,0,5,,,,,4,,,,60,0
80976,note_on,,,,,0,0,5,,,,,4,,,,58,53
81024,note_on,,,,,48,0,5,,,,,4,,,,58,0
81024,note_on,,,,,0,0,5,,,,,4,,,,63,53
81168,note_on,,,,,144,0,5,,,,,4,,,,63,0
81168,note_on,,,,,0,0,5,,,,,4,,,,62,53
81212,note_on,,,,,608,0,3,,,,,2,,,,70,92
81212,note_on,,,,,0,0,3,,,,,2,,,,74,92
81214,note_on,,,,,46,0,5,,,,,4,,,,62,0
81216,note_on,,,,,2,0,5,,,,,4,,,,62,53
81220,note_on,,,,,416,0,4,,,,,3,,,,46,60
81314,note_on,,,,,94,0,4,,,,,3,,,,46,0
81316,note_on,,,,,2,0,4,,,,,3,,,,58,60
81376,note_on,,,,,160,0,5,,,,,4,,,,62,0
81410,note_on,,,,,94,0,4,,,,,3,,,,58,0
81412,note_on,,,,,2,0,4,,,,,3,,,,58,60
81468,note_on,,,,,256,0,3,,,,,2,,,,74,0
81468,note_on,,,,,0,0,3,,,,,2,,,,70,0
81500,note_on,,,,,32,0,3,,,,,2,,,,72,92
81500,note_on,,,,,0,0,3,,,,,2,,,,75,92
81506,note_on,,,,,94,0,4,,,,,3,,,,58,0
81508,note_on,,,,,2,0,4,,,,,3,,,,58,60
81594,note_on,,,,,0,0,3,,,,,2,,,,72,0
81594,note_on,,,,,94,0,3,,,,,2,,,,75,0
81596,note_on,,,,,2,0,3,,,,,2,,,,74,92
81596,note_on,,,,,0,0,3,,,,,2,,,,77,92
81602,note_on,,,,,94,0,4,,,,,3,,,,58,0
81604,note_on,,,,,2,0,4,,,,,3,,,,58,60
81698,note_on,,,,,94,0,4,,,,,3,,,,58,0
81700,note_on,,,,,2,0,4,,,,,3,,,,58,60
81756,note_on,,,,,160,0,3,,,,,2,,,,77,0
81756,note_on,,,,,0,0,3,,,,,2,,,,74,0
81788,note_on,,,,,32,0,3,,,,,2,,,,75,92
81788,note_on,,,,,0,0,3,,,,,2,,,,79,92
81794,note_on,,,,,94,0,4,,,,,3,,,,58,0
81796,note_on,,,,,2,0,4,,,,,3,,,,58,60
81890,note_on,,,,,94,0,4,,,,,3,,,,58,0
81892,note_on,,,,,2,0,4,,,,,3,,,,58,60
81980,note_on,,,,,0,0,3,,,,,2,,,,76,92
81980,note_on,,,,,0,0,3,,,,,2,,,,73,92
81980,note_on,,,,,0,0,3,,,,,2,,,,75,0
81980,note_on,,,,,192,0,3,,,,,2,,,,79,0
81986,note_on,,,,,94,0,4,,,,,3,,,,58,0
81988,note_on,,,,,2,0,4,,,,,3,,,,58,60
82082,note_on,,,,,94,0,4,,,,,3,,,,58,0
82084,note_on,,,,,2,0,4,,,,,3,,,,58,60
82172,note_on,,,,,0,0,3,,,,,2,,,,77,92
82172,note_on,,,,,0,0,3,,,,,2,,,,74,92
82172,note_on,,,,,0,0,3,,,,,2,,,,73,0
82172,note_on,,,,,192,0,3,,,,,2,,,,76,0
82178,note_on,,,,,94,0,4,,,,,3,,,,58,0
82180,note_on,,,,,2,0,4,,,,,3,,,,58,60
82274,note_on,,,,,94,0,4,,,,,3,,,,58,0
82276,note_on,,,,,2,0,4,,,,,3,,,,58,60
82332,note_on,,,,,160,0,3,,,,,2,,,,77,0
82332,note_on,,,,,0,0,3,,,,,2,,,,74,0
82364,note_on,,,,,0,0,3,,,,,2,,,,75,92
82364,note_on,,,,,32,0,3,,,,,2,,,,72,92
82370,note_on,,,,,94,0,4,,,,,3,,,,58,0
82372,note_on,,,,,2,0,4,,,,,3,,,,58,60
82466,note_on,,,,,94,0,4,,,,,3,,,,58,0
82468,note_on,,,,,2,0,4,,,,,3,,,,58,60
82556,note_on,,,,,192,0,3,,,,,2,,,,75,0
82556,note_on,,,,,0,0,3,,,,,2,,,,73,92
82556,note_on,,,,,0,0,3,,,,,2,,,,72,0
82556,note_on,,,,,0,0,3,,,,,2,,,,69,92
82562,note_on,,,,,94,0,4,,,,,3,,,,58,0
82564,note_on,,,,,2,0,4,,,,,3,,,,58,60
82658,note_on,,,,,94,0,4,,,,,3,,,,58,0
82660,note_on,,,,,2,0,4,,,,,3,,,,58,60
82748,note_on,,,,,0,0,3,,,,,2,,,,70,92
82748,note_on,,,,,192,0,3,,,,,2,,,,73,0
82748,note_on,,,,,0,0,3,,,,,2,,,,69,0
82748,note_on,,,,,0,0,3,,,,,2,,,,74,92
82754,note_on,,,,,94,0,4,,,,,3,,,,58,0
82756,note_on,,,,,2,0,4,,,,,3,,,,58,60
82850,note_on,,,,,94,0,4,,,,,3,,,,58,0
82852,note_on,,,,,2,0,4,,,,,3,,,,58,60
82908,note_on,,,,,0,0,3,,,,,2,,,,70,0
82908,note_on,,,,,160,0,3,,,,,2,,,,74,0
82944,note_on,,,,,1568,0,5,,,,,4,,,,62,53
82946,note_on,,,,,94,0,4,,,,,3,,,,58,0
82948,note_on,,,,,2,0,4,,,,,3,,,,58,60
82949,note_on,,,,,5024,0,6,,,,,5,,,,58,53
83088,note_on,,,,,0,0,5,,,,,4,,,,60,53
83088,note_on,,,,,144,0,5,,,,,4,,,,62,0
83093,note_on,,,,,144,0,6,,,,,5,,,,58,0
83093,note_on,,,,,0,0,6,,,,,5,,,,57,53
83108,note_on,,,,,160,0,4,,,,,3,,,,58,0
83136,note_on,,,,,48,0,5,,,,,4,,,,60,0
83136,note_on,,,,,0,0,5,,,,,4,,,,63,53
83141,note_on,,,,,0,0,6,,,,,5,,,,60,53
83141,note_on,,,,,48,0,6,,,,,5,,,,57,0
83280,note_on,,,,,0,0,5,,,,,4,,,,62,53
83280,note_on,,,,,144,0,5,,,,,4,,,,63,0
83285,note_on,,,,,0,0,6,,,,,5,,,,58,53
83285,note_on,,,,,144,0,6,,,,,5,,,,60,0
83328,note_on,,,,,0,0,5,,,,,4,,,,67,53
83328,note_on,,,,,48,0,5,,,,,4,,,,62,0
83333,note_on,,,,,0,0,6,,,,,5,,,,63,53
83333,note_on,,,,,48,0,6,,,,,5,,,,58,0
83472,note_on,,,,,144,0,5,,,,,4,,,,67,0
83472,note_on,,,,,0,0,5,,,,,4,,,,65,53
83477,note_on,,,,,144,0,6,,,,,5,,,,63,0
83477,note_on,,,,,0,0,6,,,,,5,,,,62,53
83516,note_on,,,,,608,0,3,,,,,2,,,,70,92
83518,note_on,,,,,46,0,5,,,,,4,,,,65,0
83520,note_on,,,,,2,0,5,,,,,4,,,,65,53
83523,note_on,,,,,46,0,6,,,,,5,,,,62,0
83525,note_on,,,,,2,0,6,,,,,5,,,,62,53
83660,note_on,,,,,144,0,3,,,,,2,,,,70,0
83660,note_on,,,,,0,0,3,,,,,2,,,,69,92
83708,note_on,,,,,0,0,3,,,,,2,,,,75,92
83708,note_on,,,,,48,0,3,,,,,2,,,,69,0
83852,note_on,,,,,0,0,3,,,,,2,,,,74,92
83852,note_on,,,,,144,0,3,,,,,2,,,,75,0
83900,note_on,,,,,48,0,3,,,,,2,,,,74,0
83900,note_on,,,,,0,0,3,,,,,2,,,,82,92
84044,note_on,,,,,144,0,3,,,,,2,,,,82,0
84044,note_on,,,,,0,0,3,,,,,2,,,,80,92
84048,note_on,,,,,528,0,5,,,,,4,,,,65,0
84053,note_on,,,,,528,0,6,,,,,5,,,,62,0
84090,note_on,,,,,46,0,3,,,,,2,,,,80,0
84092,note_on,,,,,2,0,3,,,,,2,,,,80,92
84096,note_on,,,,,48,0,5,,,,,4,,,,77,45
84100,note_on,,,,,0,0,4,,,,,3,,,,62,75
84100,note_on,,,,,992,0,4,,,,,3,,,,58,75
84101,note_on,,,,,48,0,6,,,,,5,,,,74,45
84244,note_on,,,,,0,0,4,,,,,3,,,,57,75
84244,note_on,,,,,144,0,4,,,,,3,,,,58,0
84260,note_on,,,,,16,0,4,,,,,3,,,,62,0
84292,note_on,,,,,0,0,4,,,,,3,,,,60,75
84292,note_on,,,,,32,0,4,,,,,3,,,,57,0
84292,note_on,,,,,0,0,4,,,,,3,,,,63,75
84436,note_on,,,,,0,0,4,,,,,3,,,,58,75
84436,note_on,,,,,144,0,4,,,,,3,,,,60,0
84452,note_on,,,,,16,0,4,,,,,3,,,,63,0
84484,note_on,,,,,0,0,4,,,,,3,,,,65,75
84484,note_on,,,,,0,0,4,,,,,3,,,,62,75
84484,note_on,,,,,32,0,4,,,,,3,,,,58,0
84620,note_on,,,,,528,0,3,,,,,2,,,,80,0
84628,note_on,,,,,0,0,4,,,,,3,,,,60,75
84628,note_on,,,,,144,0,4,,,,,3,,,,62,0
84644,note_on,,,,,16,0,4,,,,,3,,,,65,0
84668,note_on,,,,,48,0,3,,,,,2,,,,80,75
84672,set_tempo,,,,,5760,1,0,,500000,,,,,,,,
84674,note_on,,,,,30,0,4,,,,,3,,,,60,0
84676,note_on,,,,,2,0,4,,,,,3,,,,59,75
84676,note_on,,,,,0,0,4,,,,,3,,,,62,75
84692,note_on,,,,,0,0,3,,,,,2,,,,82,75
84692,note_on,,,,,24,0,3,,,,,2,,,,80,0
84716,note_on,,,,,0,0,3,,,,,2,,,,80,75
84716,note_on,,,,,24,0,3,,,,,2,,,,82,0
84764,note_on,,,,,0,0,3,,,,,2,,,,79,75
84764,note_on,,,,,48,0,3,,,,,2,,,,80,0
84768,set_tempo,,,,,96,1,0,,413793,,,,,,,,
84858,note_on,,,,,94,0,3,,,,,2,,,,79,0
84860,note_on,,,,,2,0,3,,,,,2,,,,79,92
84864,note_on,,,,,0,0,5,,,,,4,,,,75,45
84864,note_on,,,,,768,0,5,,,,,4,,,,77,0
84868,note_on,,,,,192,0,4,,,,,3,,,,62,0
84868,note_on,,,,,0,0,4,,,,,3,,,,60,75
84868,note_on,,,,,0,0,4,,,,,3,,,,59,0
84868,note_on,,,,,0,0,4,,,,,3,,,,63,75
84869,note_on,,,,,768,0,6,,,,,5,,,,74,0
84869,note_on,,,,,0,0,6,,,,,5,,,,72,45
84954,note_on,,,,,94,0,3,,,,,2,,,,79,0
84956,note_on,,,,,2,0,3,,,,,2,,,,79,92
85024,note_on,,,,,160,0,5,,,,,4,,,,75,0
85028,note_on,,,,,160,0,4,,,,,3,,,,63,0
85028,note_on,,,,,0,0,4,,,,,3,,,,60,0
85029,note_on,,,,,160,0,6,,,,,5,,,,72,0
85050,note_on,,,,,94,0,3,,,,,2,,,,79,0
85052,note_on,,,,,2,0,3,,,,,2,,,,79,92
85146,note_on,,,,,94,0,3,,,,,2,,,,79,0
85148,note_on,,,,,2,0,3,,,,,2,,,,79,92
85242,note_on,,,,,94,0,3,,,,,2,,,,79,0
85244,note_on,,,,,2,0,3,,,,,2,,,,79,75
85248,note_on,,,,,224,0,5,,,,,4,,,,75,45
85248,set_tempo,,,,,480,1,0,,500000,,,,,,,,
85252,note_on,,,,,0,0,4,,,,,3,,,,60,75
85252,note_on,,,,,224,0,4,,,,,3,,,,57,75
85253,note_on,,,,,224,0,6,,,,,5,,,,72,45
85268,note_on,,,,,24,0,3,,,,,2,,,,79,0
85268,note_on,,,,,0,0,3,,,,,2,,,,81,75
85292,note_on,,,,,24,0,3,,,,,2,,,,81,0
85292,note_on,,,,,0,0,3,,,,,2,,,,79,75
85340,note_on,,,,,48,0,3,,,,,2,,,,79,0
85340,note_on,,,,,0,0,3,,,,,2,,,,77,75
85344,set_tempo,,,,,96,1,0,,413793,,,,,,,,
85434,note_on,,,,,94,0,3,,,,,2,,,,77,0
85436,note_on,,,,,2,0,3,,,,,2,,,,77,92
85440,note_on,,,,,192,0,5,,,,,4,,,,75,0
85440,note_on,,,,,0,0,5,,,,,4,,,,74,45
85444,note_on,,,,,0,0,4,,,,,3,,,,62,75
85444,note_on,,,,,0,0,4,,,,,3,,,,58,75
85444,note_on,,,,,0,0,4,,,,,3,,,,57,0
85444,note_on,,,,,192,0,4,,,,,3,,,,60,0
85445,note_on,,,,,0,0,6,,,,,5,,,,70,45
85445,note_on,,,,,192,0,6,,,,,5,,,,72,0
85530,note_on,,,,,94,0,3,,,,,2,,,,77,0
85532,note_on,,,,,2,0,3,,,,,2,,,,77,92
85600,note_on,,,,,160,0,5,,,,,4,,,,74,0
85604,note_on,,,,,0,0,4,,,,,3,,,,58,0
85604,note_on,,,,,160,0,4,,,,,3,,,,62,0
85605,note_on,,,,,160,0,6,,,,,5,,,,70,0
85626,note_on,,,,,94,0,3,,,,,2,,,,77,0
85628,note_on,,,,,2,0,3,,,,,2,,,,77,92
85722,note_on,,,,,94,0,3,,,,,2,,,,77,0
85724,note_on,,,,,2,0,3,,,,,2,,,,77,92
85818,note_on,,,,,94,0,3,,,,,2,,,,77,0
85820,note_on,,,,,2,0,3,,,,,2,,,,74,92
85820,note_on,,,,,0,0,3,,,,,2,,,,77,92
85828,note_on,,,,,224,0,4,,,,,3,,,,51,75
85916,note_on,,,,,0,0,3,,,,,2,,,,75,92
85916,note_on,,,,,96,0,3,,,,,2,,,,77,0
85916,note_on,,,,,0,0,3,,,,,2,,,,74,0
85916,note_on,,,,,0,0,3,,,,,2,,,,72,92
85988,note_on,,,,,160,0,4,,,,,3,,,,51,0
86010,note_on,,,,,0,0,3,,,,,2,,,,72,0
86010,note_on,,,,,94,0,3,,,,,2,,,,75,0
86012,note_on,,,,,2,0,3,,,,,2,,,,70,92
86012,note_on,,,,,0,0,3,,,,,2,,,,74,92
86020,note_on,,,,,32,0,4,,,,,3,,,,53,75
86172,note_on,,,,,0,0,3,,,,,2,,,,70,0
86172,note_on,,,,,160,0,3,,,,,2,,,,74,0
86180,note_on,,,,,160,0,4,,,,,3,,,,53,0
86204,note_on,,,,,32,0,3,,,,,2,,,,69,92
86204,note_on,,,,,0,0,3,,,,,2,,,,72,92
86212,note_on,,,,,32,0,4,,,,,3,,,,41,75
86364,note_on,,,,,160,0,3,,,,,2,,,,72,0
86364,note_on,,,,,0,0,3,,,,,2,,,,69,0
86372,note_on,,,,,160,0,4,,,,,3,,,,41,0
86396,note_on,,,,,32,0,3,,,,,2,,,,70,75
86396,note_on,,,,,0,0,3,,,,,2,,,,74,75
86404,note_on,,,,,32,0,4,,,,,3,,,,46,75
86444,note_on,,,,,0,0,3,,,,,2,,,,75,75
86444,note_on,,,,,48,0,3,,,,,2,,,,74,0
86492,note_on,,,,,48,0,3,,,,,2,,,,75,0
86492,note_on,,,,,0,0,3,,,,,2,,,,74,75
86540,note_on,,,,,0,0,3,,,,,2,,,,75,75
86540,note_on,,,,,48,0,3,,,,,2,,,,74,0
86556,note_on,,,,,16,0,3,,,,,2,,,,70,0
86564,note_on,,,,,160,0,4,,,,,3,,,,46,0
86588,note_on,,,,,32,0,3,,,,,2,,,,75,0
86588,note_on,,,,,0,0,3,,,,,2,,,,77,92
86682,note_on,,,,,94,0,3,,,,,2,,,,77,0
86684,note_on,,,,,2,0,3,,,,,2,,,,82,92
86716,note_on,,,,,32,0,3,,,,,2,,,,82,0
86780,note_on,,,,,0,0,3,,,,,2,,,,77,92
86780,note_on,,,,,64,0,3,,,,,2,,,,74,92
86812,note_on,,,,,0,0,3,,,,,2,,,,74,0
86812,note_on,,,,,32,0,3,,,,,2,,,,77,0
86973,note_on,,,,,9056,0,7,,,,,6,,,,62,45
86975,note_on,,,,,9056,0,8,,,,,7,,,,59,45
86976,program_change,,,,,1376,0,5,,,,48,4,,,,,
86976,note_on,,,,,0,0,5,,,,,4,,,,68,45
86981,note_on,,,,,0,0,6,,,,,5,,,,65,45
86981,program_change,,,,,1376,0,6,,,,48,5,,,,,
86982,note_on,,,,,9056,0,9,,,,,8,,,,47,45
87000,note_on,,,,,24,0,5,,,,,4,,,,68,0
87000,note_on,,,,,0,0,5,,,,,4,,,,70,45
87024,note_on,,,,,24,0,5,,,,,4,,,,70,0
87024,note_on,,,,,0,0,5,,,,,4,,,,68,45
87072,note_on,,,,,0,0,5,,,,,4,,,,67,45
87072,note_on,,,,,48,0,5,,,,,4,,,,68,0
87165,note_on,,,,,0,0,7,,,,,6,,,,63,45
87165,note_on,,,,,192,0,7,,,,,6,,,,62,0
87166,note_on,,,,,94,0,5,,,,,4,,,,67,0
87167,note_on,,,,,0,0,8,,,,,7,,,,60,45
87167,note_on,,,,,192,0,8,,,,,7,,,,59,0
87168,note_on,,,,,2,0,5,,,,,4,,,,67,45
87173,note_on,,,,,192,0,6,,,,,5,,,,65,0
87173,note_on,,,,,0,0,6,,,,,5,,,,63,45
87174,note_on,,,,,0,0,9,,,,,8,,,,48,45
87174,note_on,,,,,192,0,9,,,,,8,,,,47,0
87260,note_on,,,,,448,0,3,,,,,2,,,,79,92
87325,note_on,,,,,160,0,7,,,,,6,,,,63,0
87327,note_on,,,,,160,0,8,,,,,7,,,,60,0
87328,note_on,,,,,160,0,5,,,,,4,,,,67,0
87333,note_on,,,,,160,0,6,,,,,5,,,,63,0
87334,note_on,,,,,160,0,9,,,,,8,,,,48,0
87356,note_on,,,,,96,0,3,,,,,2,,,,79,0
87356,note_on,,,,,0,0,3,,,,,2,,,,84,92
87452,note_on,,,,,0,0,3,,,,,2,,,,79,92
87452,note_on,,,,,96,0,3,,,,,2,,,,84,0
87546,note_on,,,,,94,0,3,,,,,2,,,,79,0
87549,note_on,,,,,224,0,7,,,,,6,,,,60,45
87551,note_on,,,,,224,0,8,,,,,7,,,,57,45
87552,note_on,,,,,224,0,5,,,,,4,,,,67,45
87557,note_on,,,,,224,0,6,,,,,5,,,,63,45
87558,note_on,,,,,224,0,9,,,,,8,,,,45,45
87576,note_on,,,,,0,0,5,,,,,4,,,,68,45
87576,note_on,,,,,24,0,5,,,,,4,,,,67,0
87600,note_on,,,,,0,0,5,,,,,4,,,,67,45
87600,note_on,,,,,24,0,5,,,,,4,,,,68,0
87648,note_on,,,,,0,0,5,,,,,4,,,,65,45
87648,note_on,,,,,48,0,5,,,,,4,,,,67,0
87741,note_on,,,,,192,0,7,,,,,6,,,,60,0
87741,note_on,,,,,0,0,7,,,,,6,,,,62,45
87742,note_on,,,,,94,0,5,,,,,4,,,,65,0
87743,note_on,,,,,0,0,8,,,,,7,,,,58,45
87743,note_on,,,,,192,0,8,,,,,7,,,,57,0
87744,note_on,,,,,2,0,5,,,,,4,,,,65,45
87749,note_on,,,,,0,0,6,,,,,5,,,,62,45
87749,note_on,,,,,192,0,6,,,,,5,,,,63,0
87750,note_on,,,,,0,0,9,,,,,8,,,,46,45
87750,note_on,,,,,192,0,9,,,,,8,,,,45,0
87836,note_on,,,,,290,0,3,,,,,2,,,,77,92
87901,note_on,,,,,160,0,7,,,,,6,,,,62,0
87903,note_on,,,,,160,0,8,,,,,7,,,,58,0
87904,note_on,,,,,160,0,5,,,,,4,,,,65,0
87909,note_on,,,,,160,0,6,,,,,5,,,,62,0
87910,note_on,,,,,160,0,9,,,,,8,,,,46,0
87932,note_on,,,,,96,0,3,,,,,2,,,,77,0
87932,note_on,,,,,0,0,3,,,,,2,,,,82,92
88028,note_on,,,,,96,0,3,,,,,2,,,,82,0
88028,note_on,,,,,0,0,3,,,,,2,,,,77,92
88122,note_on,,,,,94,0,3,,,,,2,,,,77,0
88124,note_on,,,,,2,0,3,,,,,2,,,,74,92
88124,note_on,,,,,0,0,3,,,,,2,,,,77,92
88132,note_on,,,,,1568,0,4,,,,,3,,,,51,75
88220,note_on,,,,,0,0,3,,,,,2,,,,74,0
88220,note_on,,,,,0,0,3,,,,,2,,,,75,92
88220,note_on,,,,,96,0,3,,,,,2,,,,77,0
88220,note_on,,,,,0,0,3,,,,,2,,,,72,92
88292,note_on,,,,,160,0,4,,,,,3,,,,51,0
88314,note_on,,,,,94,0,3,,,,,2,,,,75,0
88314,note_on,,,,,0,0,3,,,,,2,,,,72,0
88316,note_on,,,,,2,0,3,,,,,2,,,,70,92
88316,note_on,,,,,0,0,3,,,,,2,,,,74,92
88324,note_on,,,,,32,0,4,,,,,3,,,,53,75
88476,note_on,,,,,160,0,3,,,,,2,,,,74,0
88476,note_on,,,,,0,0,3,,,,,2,,,,70,0
88484,note_on,,,,,160,0,4,,,,,3,,,,53,0
88508,note_on,,,,,32,0,3,,,,,2,,,,69,92
88508,note_on,,,,,0,0,3,,,,,2,,,,72,92
88516,note_on,,,,,32,0,4,,,,,3,,,,41,75
88668,note_on,,,,,0,0,3,,,,,2,,,,69,0
88668,note_on,,,,,160,0,3,,,,,2,,,,72,0
88676,note_on,,,,,160,0,4,,,,,3,,,,41,0
88700,note_on,,,,,32,0,3,,,,,2,,,,70,75
88704,set_tempo,,,,,3360,1,0,,413793,,,,,,,,
88708,note_on,,,,,32,0,4,,,,,3,,,,46,60
88748,note_on,,,,,48,0,3,,,,,2,,,,70,0
88748,note_on,,,,,0,0,3,,,,,2,,,,77,75
88796,note_on,,,,,48,0,3,,,,,2,,,,77,0
88796,note_on,,,,,0,0,3,,,,,2,,,,79,75
88844,note_on,,,,,48,0,3,,,,,2,,,,79,0
88844,note_on,,,,,0,0,3,,,,,2,,,,77,75
88868,note_on,,,,,160,0,4,,,,,3,,,,46,0
88892,note_on,,,,,0,0,3,,,,,2,,,,82,75
88892,note_on,,,,,48,0,3,,,,,2,,,,77,0
88896,set_tempo,,,,,192,1,0,,387097,,,,,,,,
88940,note_on,,,,,48,0,3,,,,,2,,,,82,0
88940,note_on,,,,,0,0,3,,,,,2,,,,81,75
88988,note_on,,,,,48,0,3,,,,,2,,,,81,0
88988,note_on,,,,,0,0,3,,,,,2,,,,79,75
89036,note_on,,,,,48,0,3,,,,,2,,,,79,0
89036,note_on,,,,,0,0,3,,,,,2,,,,77,75
89084,note_on,,,,,0,0,3,,,,,2,,,,75,75
89084,note_on,,,,,48,0,3,,,,,2,,,,77,0
89132,note_on,,,,,0,0,3,,,,,2,,,,74,75
89132,note_on,,,,,48,0,3,,,,,2,,,,75,0
89180,note_on,,,,,48,0,3,,,,,2,,,,74,0
89180,note_on,,,,,0,0,3,,,,,2,,,,72,75
89228,note_on,,,,,0,0,3,,,,,2,,,,70,75
89228,note_on,,,,,48,0,3,,,,,2,,,,72,0
89276,note_on,,,,,48,0,3,,,,,2,,,,70,0
89276,note_on,,,,,0,0,3,,,,,2,,,,69,92
89280,set_tempo,,,,,384,1,0,,413793,,,,,,,,
89284,note_on,,,,,416,0,4,,,,,3,,,,53,75
89324,note_on,,,,,0,0,3,,,,,2,,,,77,92
89324,note_on,,,,,48,0,3,,,,,2,,,,69,0
89372,note_on,,,,,48,0,3,,,,,2,,,,77,0
89372,note_on,,,,,0,0,3,,,,,2,,,,70,92
89378,note_on,,,,,94,0,4,,,,,3,,,,53,0
89380,note_on,,,,,2,0,4,,,,,3,,,,55,75
89420,note_on,,,,,48,0,3,,,,,2,,,,70,0
89420,note_on,,,,,0,0,3,,,,,2,,,,77,92
89468,note_on,,,,,48,0,3,,,,,2,,,,77,0
89468,note_on,,,,,0,0,3,,,,,2,,,,72,92
89474,note_on,,,,,94,0,4,,,,,3,,,,55,0
89476,note_on,,,,,2,0,4,,,,,3,,,,57,75
89516,note_on,,,,,0,0,3,,,,,2,,,,77,92
89516,note_on,,,,,48,0,3,,,,,2,,,,72,0
89564,note_on,,,,,0,0,3,,,,,2,,,,74,92
89564,note_on,,,,,48,0,3,,,,,2,,,,77,0
89570,note_on,,,,,94,0,4,,,,,3,,,,57,0
89572,note_on,,,,,2,0,4,,,,,3,,,,58,75
89612,note_on,,,,,0,0,3,,,,,2,,,,77,92
89612,note_on,,,,,48,0,3,,,,,2,,,,74,0
89660,note_on,,,,,48,0,3,,,,,2,,,,77,0
89660,note_on,,,,,0,0,3,,,,,2,,,,75,92
89666,note_on,,,,,94,0,4,,,,,3,,,,58,0
89668,note_on,,,,,2,0,4,,,,,3,,,,60,75
89708,note_on,,,,,48,0,3,,,,,2,,,,75,0
89708,note_on,,,,,0,0,3,,,,,2,,,,77,92
89756,note_on,,,,,48,0,3,,,,,2,,,,77,0
89756,note_on,,,,,0,0,3,,,,,2,,,,72,92
89762,note_on,,,,,94,0,4,,,,,3,,,,60,0
89764,note_on,,,,,2,0,4,,,,,3,,,,57,75
89804,note_on,,,,,0,0,3,,,,,2,,,,77,92
89804,note_on,,,,,48,0,3,,,,,2,,,,72,0
89852,note_on,,,,,0,0,3,,,,,2,,,,74,75
89852,note_on,,,,,48,0,3,,,,,2,,,,77,0
89858,note_on,,,,,94,0,4,,,,,3,,,,57,0
89860,note_on,,,,,2,0,4,,,,,3,,,,58,60
89900,note_on,,,,,48,0,3,,,,,2,,,,74,0
89900,note_on,,,,,0,0,3,,,,,2,,,,77,75
89948,note_on,,,,,48,0,3,,,,,2,,,,77,0
89948,note_on,,,,,0,0,3,,,,,2,,,,79,75
89996,note_on,,,,,0,0,3,,,,,2,,,,77,75
89996,note_on,,,,,48,0,3,,,,,2,,,,79,0
90020,note_on,,,,,160,0,4,,,,,3,,,,58,0
90044,note_on,,,,,48,0,3,,,,,2,,,,77,0
90044,note_on,,,,,0,0,3,,,,,2,,,,82,75
90048,set_tempo,,,,,768,1,0,,387097,,,,,,,,
90092,note_on,,,,,0,0,3,,,,,2,,,,81,75
90092,note_on,,,,,48,0,3,,,,,2,,,,82,0
90140,note_on,,,,,0,0,3,,,,,2,,,,79,75
90140,note_on,,,,,48,0,3,,,,,2,,,,81,0
90188,note_on,,,,,48,0,3,,,,,2,,,,79,0
90188,note_on,,,,,0,0,3,,,,,2,,,,77,75
90236,note_on,,,,,0,0,3,,,,,2,,,,75,75
90236,note_on,,,,,48,0,3,,,,,2,,,,77,0
90284,note_on,,,,,0,0,3,,,,,2,,,,74,75
90284,note_on,,,,,48,0,3,,,,,2,,,,75,0
90332,note_on,,,,,48,0,3,,,,,2,,,,74,0
90332,note_on,,,,,0,0,3,,,,,2,,,,72,75
90380,note_on,,,,,48,0,3,,,,,2,,,,72,0
90380,note_on,,,,,0,0,3,,,,,2,,,,70,75
90428,note_on,,,,,48,0,3,,,,,2,,,,70,0
90428,note_on,,,,,0,0,3,,,,,2,,,,69,92
90432,set_tempo,,,,,384,1,0,,413793,,,,,,,,
90436,note_on,,,,,416,0,4,,,,,3,,,,53,75
90476,note_on,,,,,48,0,3,,,,,2,,,,69,0
90476,note_on,,,,,0,0,3,,,,,2,,,,77,92
90524,note_on,,,,,48,0,3,,,,,2,,,,77,0
90524,note_on,,,,,0,0,3,,,,,2,,,,70,92
90530,note_on,,,,,94,0,4,,,,,3,,,,53,0
90532,note_on,,,,,2,0,4,,,,,3,,,,55,75
90572,note_on,,,,,48,0,3,,,,,2,,,,70,0
90572,note_on,,,,,0,0,3,,,,,2,,,,77,92
90620,note_on,,,,,48,0,3,,,,,2,,,,77,0
90620,note_on,,,,,0,0,3,,,,,2,,,,72,92
90626,note_on,,,,,94,0,4,,,,,3,,,,55,0
90628,note_on,,,,,2,0,4,,,,,3,,,,57,75
90668,note_on,,,,,48,0,3,,,,,2,,,,72,0
90668,note_on,,,,,0,0,3,,,,,2,,,,77,92
90716,note_on,,,,,48,0,3,,,,,2,,,,77,0
90716,note_on,,,,,0,0,3,,,,,2,,,,74,92
90722,note_on,,,,,94,0,4,,,,,3,,,,57,0
90724,note_on,,,,,2,0,4,,,,,3,,,,58,75
90764,note_on,,,,,0,0,3,,,,,2,,,,77,92
90764,note_on,,,,,48,0,3,,,,,2,,,,74,0
90812,note_on,,,,,0,0,3,,,,,2,,,,75,92
90812,note_on,,,,,48,0,3,,,,,2,,,,77,0
90818,note_on,,,,,94,0,4,,,,,3,,,,58,0
90820,note_on,,,,,2,0,4,,,,,3,,,,60,75
90860,note_on,,,,,48,0,3,,,,,2,,,,75,0
90860,note_on,,,,,0,0,3,,,,,2,,,,77,92
90908,note_on,,,,,0,0,3,,,,,2,,,,72,92
90908,note_on,,,,,48,0,3,,,,,2,,,,77,0
90914,note_on,,,,,94,0,4,,,,,3,,,,60,0
90916,note_on,,,,,2,0,4,,,,,3,,,,57,75
90956,note_on,,,,,0,0,3,,,,,2,,,,77,92
90956,note_on,,,,,48,0,3,,,,,2,,,,72,0
91004,note_on,,,,,0,0,3,,,,,2,,,,74,92
91004,note_on,,,,,48,0,3,,,,,2,,,,77,0
91008,set_tempo,,,,,576,1,0,,419580,,,,,,,,
91010,note_on,,,,,94,0,4,,,,,3,,,,57,0
91012,note_on,,,,,2,0,4,,,,,3,,,,58,75
91052,note_on,,,,,0,0,3,,,,,2,,,,82,92
91052,note_on,,,,,48,0,3,,,,,2,,,,74,0
91100,note_on,,,,,48,0,3,,,,,2,,,,82,0
91100,note_on,,,,,0,0,3,,,,,2,,,,75,92
91106,note_on,,,,,94,0,4,,,,,3,,,,58,0
91108,note_on,,,,,2,0,4,,,,,3,,,,60,75
91148,note_on,,,,,0,0,3,,,,,2,,,,82,92
91148,note_on,,,,,48,0,3,,,,,2,,,,75,0
91196,note_on,,,,,48,0,3,,,,,2,,,,82,0
91196,note_on,,,,,0,0,3,,,,,2,,,,77,92
91202,note_on,,,,,94,0,4,,,,,3,,,,60,0
91204,note_on,,,,,2,0,4,,,,,3,,,,62,75
91244,note_on,,,,,48,0,3,,,,,2,,,,77,0
91244,note_on,,,,,0,0,3,,,,,2,,,,82,92
91292,note_on,,,,,0,0,3,,,,,2,,,,79,92
91292,note_on,,,,,48,0,3,,,,,2,,,,82,0
91298,note_on,,,,,94,0,4,,,,,3,,,,62,0
91300,note_on,,,,,2,0,4,,,,,3,,,,63,75
91340,note_on,,,,,0,0,3,,,,,2,,,,82,92
91340,note_on,,,,,48,0,3,,,,,2,,,,79,0
91388,note_on,,,,,48,0,3,,,,,2,,,,82,0
91388,note_on,,,,,0,0,3,,,,,2,,,,80,92
91394,note_on,,,,,94,0,4,,,,,3,,,,63,0
91396,note_on,,,,,2,0,4,,,,,3,,,,65,75
91436,note_on,,,,,48,0,3,,,,,2,,,,80,0
91436,note_on,,,,,0,0,3,,,,,2,,,,82,92
91484,note_on,,,,,48,0,3,,,,,2,,,,82,0
91484,note_on,,,,,0,0,3,,,,,2,,,,77,92
91490,note_on,,,,,94,0,4,,,,,3,,,,65,0
91492,note_on,,,,,2,0,4,,,,,3,,,,62,75
91532,note_on,,,,,48,0,3,,,,,2,,,,77,0
91532,note_on,,,,,0,0,3,,,,,2,,,,82,92
91580,note_on,,,,,48,0,3,,,,,2,,,,82,0
91580,note_on,,,,,0,0,3,,,,,2,,,,79,108
91584,set_tempo,,,,,576,1,0,,425532,,,,,,,,
91586,note_on,,,,,94,0,4,,,,,3,,,,62,0
91588,note_on,,,,,2,0,4,,,,,3,,,,63,92
91628,note_on,,,,,0,0,3,,,,,2,,,,87,108
91628,note_on,,,,,48,0,3,,,,,2,,,,79,0
91676,note_on,,,,,48,0,3,,,,,2,,,,87,0
91676,note_on,,,,,0,0,3,,,,,2,,,,81,108
91682,note_on,,,,,94,0,4,,,,,3,,,,63,0
91684,note_on,,,,,2,0,4,,,,,3,,,,65,92
91724,note_on,,,,,48,0,3,,,,,2,,,,81,0
91724,note_on,,,,,0,0,3,,,,,2,,,,87,108
91772,note_on,,,,,0,0,3,,,,,2,,,,82,108
91772,note_on,,,,,48,0,3,,,,,2,,,,87,0
91778,note_on,,,,,94,0,4,,,,,3,,,,65,0
91780,note_on,,,,,2,0,4,,,,,3,,,,67,92
91820,note_on,,,,,0,0,3,,,,,2,,,,87,108
91820,note_on,,,,,48,0,3,,,,,2,,,,82,0
91868,note_on,,,,,48,0,3,,,,,2,,,,87,0
91868,note_on,,,,,0,0,3,,,,,2,,,,81,108
91874,note_on,,,,,94,0,4,,,,,3,,,,67,0
91876,note_on,,,,,2,0,4,,,,,3,,,,65,92
91916,note_on,,,,,48,0,3,,,,,2,,,,81,0
91916,note_on,,,,,0,0,3,,,,,2,,,,87,108
91964,note_on,,,,,48,0,3,,,,,2,,,,87,0
91964,note_on,,,,,0,0,3,,,,,2,,,,82,108
91970,note_on,,,,,94,0,4,,,,,3,,,,65,0
91972,note_on,,,,,2,0,4,,,,,3,,,,67,92
92012,note_on,,,,,48,0,3,,,,,2,,,,82,0
92012,note_on,,,,,0,0,3,,,,,2,,,,87,108
92060,note_on,,,,,48,0,3,,,,,2,,,,87,0
92060,note_on,,,,,0,0,3,,,,,2,,,,79,108
92066,note_on,,,,,94,0,4,,,,,3,,,,67,0
92068,note_on,,,,,2,0,4,,,,,3,,,,63,92
92108,note_on,,,,,0,0,3,,,,,2,,,,87,108
92108,note_on,,,,,48,0,3,,,,,2,,,,79,0
92156,note_on,,,,,0,0,3,,,,,2,,,,81,108
92156,note_on,,,,,48,0,3,,,,,2,,,,87,0
92162,note_on,,,,,94,0,4,,,,,3,,,,63,0
92164,note_on,,,,,2,0,4,,,,,3,,,,65,92
92204,note_on,,,,,0,0,3,,,,,2,,,,84,108
92204,note_on,,,,,48,0,3,,,,,2,,,,81,0
92252,note_on,,,,,48,0,3,,,,,2,,,,84,0
92252,note_on,,,,,0,0,3,,,,,2,,,,87,108
92300,note_on,,,,,0,0,3,,,,,2,,,,84,108
92300,note_on,,,,,48,0,3,,,,,2,,,,87,0
92348,note_on,,,,,0,0,3,,,,,2,,,,81,108
92348,note_on,,,,,48,0,3,,,,,2,,,,84,0
92396,note_on,,,,,48,0,3,,,,,2,,,,81,0
92396,note_on,,,,,0,0,3,,,,,2,,,,79,108
92420,note_on,,,,,256,0,4,,,,,3,,,,65,0
92444,note_on,,,,,48,0,3,,,,,2,,,,79,0
92444,note_on,,,,,0,0,3,,,,,2,,,,77,108
92452,note_on,,,,,32,0,4,,,,,3,,,,57,92
92492,note_on,,,,,48,0,3,,,,,2,,,,77,0
92492,note_on,,,,,0,0,3,,,,,2,,,,75,108
92540,note_on,,,,,48,0,3,,,,,2,,,,75,0
92540,note_on,,,,,0,0,3,,,,,2,,,,74,108
92546,note_on,,,,,94,0,4,,,,,3,,,,57,0
92548,note_on,,,,,2,0,4,,,,,3,,,,58,92
92588,note_on,,,,,48,0,3,,,,,2,,,,74,0
92588,note_on,,,,,0,0,3,,,,,2,,,,77,108
92636,note_on,,,,,48,0,3,,,,,2,,,,77,0
92636,note_on,,,,,0,0,3,,,,,2,,,,82,108
92684,note_on,,,,,48,0,3,,,,,2,,,,82,0
92684,note_on,,,,,0,0,3,,,,,2,,,,77,108
92708,note_on,,,,,160,0,4,,,,,3,,,,58,0
92732,note_on,,,,,48,0,3,,,,,2,,,,77,0
92732,note_on,,,,,0,0,3,,,,,2,,,,81,108
92740,note_on,,,,,0,0,4,,,,,3,,,,58,92
92740,note_on,,,,,32,0,4,,,,,3,,,,51,92
92756,note_on,,,,,24,0,3,,,,,2,,,,81,0
92756,note_on,,,,,0,0,3,,,,,2,,,,79,108
92828,note_on,,,,,72,0,3,,,,,2,,,,79,0
92828,note_on,,,,,0,0,3,,,,,2,,,,77,108
92876,note_on,,,,,0,0,3,,,,,2,,,,75,108
92876,note_on,,,,,48,0,3,,,,,2,,,,77,0
92882,note_on,,,,,142,0,4,,,,,3,,,,58,0
92884,note_on,,,,,2,0,4,,,,,3,,,,60,92
92900,note_on,,,,,16,0,4,,,,,3,,,,51,0
92924,note_on,,,,,48,0,3,,,,,2,,,,75,0
92924,note_on,,,,,0,0,3,,,,,2,,,,74,108
92930,note_on,,,,,30,0,4,,,,,3,,,,60,0
92932,note_on,,,,,0,0,4,,,,,3,,,,58,92
92932,note_on,,,,,2,0,4,,,,,3,,,,53,92
93092,note_on,,,,,160,0,4,,,,,3,,,,58,0
93092,note_on,,,,,0,0,4,,,,,3,,,,53,0
93116,note_on,,,,,0,0,3,,,,,2,,,,74,108
93116,note_on,,,,,192,0,3,,,,,2,,,,74,0
93124,note_on,,,,,0,0,4,,,,,3,,,,57,92
93124,note_on,,,,,32,0,4,,,,,3,,,,51,92
93148,note_on,,,,,32,0,3,,,,,2,,,,74,0
93148,note_on,,,,,0,0,3,,,,,2,,,,72,108
93180,note_on,,,,,0,0,3,,,,,2,,,,74,108
93180,note_on,,,,,32,0,3,,,,,2,,,,72,0
93212,note_on,,,,,32,0,3,,,,,2,,,,74,0
93212,note_on,,,,,0,0,3,,,,,2,,,,72,108
93244,note_on,,,,,0,0,3,,,,,2,,,,70,108
93244,note_on,,,,,32,0,3,,,,,2,,,,72,0
93276,note_on,,,,,32,0,3,,,,,2,,,,70,0
93276,note_on,,,,,0,0,3,,,,,2,,,,72,108
93284,note_on,,,,,0,0,4,,,,,3,,,,51,0
93284,note_on,,,,,160,0,4,,,,,3,,,,57,0
93308,note_on,,,,,32,0,3,,,,,2,,,,72,0
93308,note_on,,,,,0,0,3,,,,,2,,,,77,108
93309,note_on,,,,,5408,0,7,,,,,6,,,,62,92
93311,note_on,,,,,5408,0,8,,,,,7,,,,50,92
93312,note_on,,,,,5408,0,5,,,,,4,,,,77,92
93317,note_on,,,,,5408,0,6,,,,,5,,,,70,92
93318,note_on,,,,,5408,0,9,,,,,8,,,,38,92
93364,note_on,,,,,80,0,4,,,,,3,,,,50,108
93412,note_on,,,,,48,0,4,,,,,3,,,,50,0
93412,note_on,,,,,0,0,4,,,,,3,,,,53,108
93460,note_on,,,,,48,0,4,,,,,3,,,,53,0
93460,note_on,,,,,0,0,4,,,,,3,,,,58,108
93469,note_on,,,,,160,0,7,,,,,6,,,,62,0
93471,note_on,,,,,160,0,8,,,,,7,,,,50,0
93472,note_on,,,,,160,0,5,,,,,4,,,,77,0
93477,note_on,,,,,160,0,6,,,,,5,,,,70,0
93478,note_on,,,,,160,0,9,,,,,8,,,,38,0
93500,note_on,,,,,192,0,3,,,,,2,,,,77,0
93508,note_on,,,,,48,0,4,,,,,3,,,,58,0
93508,note_on,,,,,0,0,4,,,,,3,,,,62,108
93548,note_on,,,,,48,0,3,,,,,2,,,,65,127
93596,note_on,,,,,0,0,3,,,,,2,,,,70,127
93596,note_on,,,,,48,0,3,,,,,2,,,,65,0
93644,note_on,,,,,0,0,3,,,,,2,,,,74,127
93644,note_on,,,,,48,0,3,,,,,2,,,,70,0
93668,note_on,,,,,160,0,4,,,,,3,,,,62,0
93692,note_on,,,,,0,0,3,,,,,2,,,,77,127
93692,note_on,,,,,48,0,3,,,,,2,,,,74,0
93740,note_on,,,,,0,0,3,,,,,2,,,,74,127
93740,note_on,,,,,48,0,3,,,,,2,,,,77,0
93788,note_on,,,,,0,0,3,,,,,2,,,,82,127
93788,note_on,,,,,48,0,3,,,,,2,,,,74,0
93836,note_on,,,,,0,0,3,,,,,2,,,,77,127
93836,note_on,,,,,48,0,3,,,,,2,,,,82,0
93884,note_on,,,,,0,0,3,,,,,2,,,,79,127
93884,note_on,,,,,48,0,3,,,,,2,,,,77,0
93885,note_on,,,,,416,0,7,,,,,6,,,,63,92
93887,note_on,,,,,416,0,8,,,,,7,,,,51,92
93888,note_on,,,,,416,0,5,,,,,4,,,,79,92
93893,note_on,,,,,416,0,6,,,,,5,,,,70,92
93894,note_on,,,,,416,0,9,,,,,8,,,,39,92
93940,note_on,,,,,272,0,4,,,,,3,,,,51,108
93988,note_on,,,,,48,0,4,,,,,3,,,,51,0
93988,note_on,,,,,0,0,4,,,,,3,,,,55,108
94036,note_on,,,,,48,0,4,,,,,3,,,,55,0
94036,note_on,,,,,0,0,4,,,,,3,,,,58,108
94045,note_on,,,,,160,0,7,,,,,6,,,,63,0
94047,note_on,,,,,160,0,8,,,,,7,,,,51,0
94048,note_on,,,,,160,0,5,,,,,4,,,,79,0
94053,note_on,,,,,160,0,6,,,,,5,,,,70,0
94054,note_on,,,,,160,0,9,,,,,8,,,,39,0
94076,note_on,,,,,192,0,3,,,,,2,,,,79,0
94084,note_on,,,,,0,0,4,,,,,3,,,,63,108
94084,note_on,,,,,48,0,4,,,,,3,,,,58,0
94124,note_on,,,,,48,0,3,,,,,2,,,,67,127
94172,note_on,,,,,48,0,3,,,,,2,,,,67,0
94172,note_on,,,,,0,0,3,,,,,2,,,,70,127
94220,note_on,,,,,48,0,3,,,,,2,,,,70,0
94220,note_on,,,,,0,0,3,,,,,2,,,,75,127
94244,note_on,,,,,160,0,4,,,,,3,,,,63,0
94268,note_on,,,,,48,0,3,,,,,2,,,,75,0
94268,note_on,,,,,0,0,3,,,,,2,,,,79,127
94316,note_on,,,,,48,0,3,,,,,2,,,,79,0
94316,note_on,,,,,0,0,3,,,,,2,,,,75,127
94364,note_on,,,,,48,0,3,,,,,2,,,,75,0
94364,note_on,,,,,0,0,3,,,,,2,,,,82,127
94412,note_on,,,,,48,0,3,,,,,2,,,,82,0
94412,note_on,,,,,0,0,3,,,,,2,,,,79,127
94460,note_on,,,,,0,0,3,,,,,2,,,,85,127
94460,note_on,,,,,48,0,3,,,,,2,,,,79,0
94461,note_on,,,,,416,0,7,,,,,6,,,,67,92
94463,note_on,,,,,416,0,8,,,,,7,,,,52,92
94464,note_on,,,,,416,0,5,,,,,4,,,,82,92
94469,note_on,,,,,416,0,6,,,,,5,,,,73,92
94470,note_on,,,,,416,0,9,,,,,8,,,,40,92
94516,note_on,,,,,272,0,4,,,,,3,,,,52,108
94564,note_on,,,,,0,0,4,,,,,3,,,,55,108
94564,note_on,,,,,48,0,4,,,,,3,,,,52,0
94612,note_on,,,,,0,0,4,,,,,3,,,,58,108
94612,note_on,,,,,48,0,4,,,,,3,,,,55,0
94621,note_on,,,,,160,0,7,,,,,6,,,,67,0
94623,note_on,,,,,160,0,8,,,,,7,,,,52,0
94624,note_on,,,,,160,0,5,,,,,4,,,,82,0
94629,note_on,,,,,160,0,6,,,,,5,,,,73,0
94630,note_on,,,,,160,0,9,,,,,8,,,,40,0
94652,note_on,,,,,192,0,3,,,,,2,,,,85,0
94660,note_on,,,,,48,0,4,,,,,3,,,,58,0
94660,note_on,,,,,0,0,4,,,,,3,,,,61,108
94700,note_on,,,,,48,0,3,,,,,2,,,,64,127
94748,note_on,,,,,48,0,3,,,,,2,,,,64,0
94748,note_on,,,,,0,0,3,,,,,2,,,,67,127
94796,note_on,,,,,48,0,3,,,,,2,,,,67,0
94796,note_on,,,,,0,0,3,,,,,2,,,,70,127
94820,note_on,,,,,160,0,4,,,,,3,,,,61,0
94844,note_on,,,,,48,0,3,,,,,2,,,,70,0
94844,note_on,,,,,0,0,3,,,,,2,,,,73,127
94892,note_on,,,,,48,0,3,,,,,2,,,,73,0
94892,note_on,,,,,0,0,3,,,,,2,,,,76,127
94940,note_on,,,,,48,0,3,,,,,2,,,,76,0
94940,note_on,,,,,0,0,3,,,,,2,,,,79,127
94988,note_on,,,,,48,0,3,,,,,2,,,,79,0
94988,note_on,,,,,0,0,3,,,,,2,,,,82,127
95036,note_on,,,,,48,0,3,,,,,2,,,,82,0
95037,note_on,,,,,416,0,7,,,,,6,,,,65,92
95039,note_on,,,,,416,0,8,,,,,7,,,,53,92
95040,note_on,,,,,416,0,5,,,,,4,,,,82,92
95044,note_on,,,,,0,0,4,,,,,3,,,,53,108
95044,note_on,,,,,224,0,4,,,,,3,,,,41,108
95045,note_on,,,,,416,0,6,,,,,5,,,,74,92
95046,note_on,,,,,416,0,9,,,,,8,,,,41,92
95084,note_on,,,,,48,0,3,,,,,2,,,,65,127
95132,note_on,,,,,48,0,3,,,,,2,,,,65,0
95132,note_on,,,,,0,0,3,,,,,2,,,,70,127
95180,note_on,,,,,48,0,3,,,,,2,,,,70,0
95180,note_on,,,,,0,0,3,,,,,2,,,,65,127
95197,note_on,,,,,160,0,7,,,,,6,,,,65,0
95199,note_on,,,,,160,0,8,,,,,7,,,,53,0
95200,note_on,,,,,160,0,5,,,,,4,,,,82,0
95204,note_on,,,,,160,0,4,,,,,3,,,,53,0
95204,note_on,,,,,0,0,4,,,,,3,,,,41,0
95205,note_on,,,,,160,0,6,,,,,5,,,,74,0
95206,note_on,,,,,160,0,9,,,,,8,,,,41,0
95228,note_on,,,,,0,0,3,,,,,2,,,,74,127
95228,note_on,,,,,48,0,3,,,,,2,,,,65,0
95276,note_on,,,,,0,0,3,,,,,2,,,,70,127
95276,note_on,,,,,48,0,3,,,,,2,,,,74,0
95324,note_on,,,,,48,0,3,,,,,2,,,,70,0
95324,note_on,,,,,0,0,3,,,,,2,,,,77,127
95372,note_on,,,,,0,0,3,,,,,2,,,,74,127
95372,note_on,,,,,48,0,3,,,,,2,,,,77,0
95420,note_on,,,,,48,0,3,,,,,2,,,,74,0
95420,note_on,,,,,0,0,3,,,,,2,,,,82,127
95468,note_on,,,,,0,0,3,,,,,2,,,,75,127
95468,note_on,,,,,48,0,3,,,,,2,,,,82,0
95516,note_on,,,,,48,0,3,,,,,2,,,,75,0
95516,note_on,,,,,0,0,3,,,,,2,,,,86,127
95564,note_on,,,,,0,0,3,,,,,2,,,,82,127
95564,note_on,,,,,48,0,3,,,,,2,,,,86,0
95612,note_on,,,,,48,0,3,,,,,2,,,,82,0
95612,note_on,,,,,0,0,3,,,,,2,,,,89,127
95660,note_on,,,,,48,0,3,,,,,2,,,,89,0
95660,note_on,,,,,0,0,3,,,,,2,,,,86,127
95708,note_on,,,,,48,0,3,,,,,2,,,,86,0
95708,note_on,,,,,0,0,3,,,,,2,,,,82,127
95756,note_on,,,,,0,0,3,,,,,2,,,,77,127
95756,note_on,,,,,48,0,3,,,,,2,,,,82,0
95804,note_on,,,,,0,0,3,,,,,2,,,,86,127
95804,note_on,,,,,48,0,3,,,,,2,,,,77,0
95852,note_on,,,,,48,0,3,,,,,2,,,,86,0
95852,note_on,,,,,0,0,3,,,,,2,,,,84,127
95900,note_on,,,,,48,0,3,,,,,2,,,,84,0
95900,note_on,,,,,0,0,3,,,,,2,,,,77,127
95948,note_on,,,,,48,0,3,,,,,2,,,,77,0
95948,note_on,,,,,0,0,3,,,,,2,,,,74,127
95996,note_on,,,,,0,0,3,,,,,2,,,,82,127
95996,note_on,,,,,48,0,3,,,,,2,,,,74,0
96044,note_on,,,,,48,0,3,,,,,2,,,,82,0
96044,note_on,,,,,0,0,3,,,,,2,,,,77,127
96092,note_on,,,,,48,0,3,,,,,2,,,,77,0
96092,note_on,,,,,0,0,3,,,,,2,,,,74,127
96140,note_on,,,,,0,0,3,,,,,2,,,,70,127
96140,note_on,,,,,48,0,3,,,,,2,,,,74,0
96188,note_on,,,,,0,0,3,,,,,2,,,,76,127
96188,note_on,,,,,48,0,3,,,,,2,,,,70,0
96191,note_on,,,,,992,0,8,,,,,7,,,,53,45
96196,note_on,,,,,992,0,4,,,,,3,,,,53,108
96198,note_on,,,,,992,0,9,,,,,8,,,,41,45
96236,note_on,,,,,48,0,3,,,,,2,,,,76,0
96236,note_on,,,,,0,0,3,,,,,2,,,,77,127
96244,note_on,,,,,48,0,4,,,,,3,,,,53,0
96244,note_on,,,,,0,0,4,,,,,3,,,,62,108
96284,note_on,,,,,0,0,3,,,,,2,,,,76,127
96284,note_on,,,,,48,0,3,,,,,2,,,,77,0
96285,note_on,,,,,1088,0,7,,,,,6,,,,65,45
96288,note_on,,,,,1088,0,5,,,,,4,,,,74,45
96292,note_on,,,,,48,0,4,,,,,3,,,,62,0
96292,note_on,,,,,0,0,4,,,,,3,,,,58,108
96293,note_on,,,,,1088,0,6,,,,,5,,,,70,45
96332,note_on,,,,,48,0,3,,,,,2,,,,76,0
96332,note_on,,,,,0,0,3,,,,,2,,,,77,127
96340,note_on,,,,,48,0,4,,,,,3,,,,58,0
96340,note_on,,,,,0,0,4,,,,,3,,,,62,108
96351,note_on,,,,,160,0,8,,,,,7,,,,53,0
96358,note_on,,,,,160,0,9,,,,,8,,,,41,0
96379,note_on,,,,,94,0,7,,,,,6,,,,65,0
96380,note_on,,,,,0,0,3,,,,,2,,,,76,127
96380,note_on,,,,,48,0,3,,,,,2,,,,77,0
96381,note_on,,,,,2,0,7,,,,,6,,,,65,45
96382,note_on,,,,,94,0,5,,,,,4,,,,74,0
96383,note_on,,,,,32,0,8,,,,,7,,,,53,45
96384,note_on,,,,,2,0,5,,,,,4,,,,74,45
96387,note_on,,,,,94,0,6,,,,,5,,,,70,0
96388,note_on,,,,,0,0,4,,,,,3,,,,53,108
96388,note_on,,,,,48,0,4,,,,,3,,,,62,0
96389,note_on,,,,,2,0,6,,,,,5,,,,70,45
96390,note_on,,,,,32,0,9,,,,,8,,,,41,45
96428,note_on,,,,,48,0,3,,,,,2,,,,76,0
96428,note_on,,,,,0,0,3,,,,,2,,,,77,127
96436,note_on,,,,,48,0,4,,,,,3,,,,53,0
96436,note_on,,,,,0,0,4,,,,,3,,,,62,108
96475,note_on,,,,,94,0,7,,,,,6,,,,65,0
96476,note_on,,,,,0,0,3,,,,,2,,,,79,127
96476,note_on,,,,,48,0,3,,,,,2,,,,77,0
96477,note_on,,,,,2,0,7,,,,,6,,,,65,45
96478,note_on,,,,,94,0,5,,,,,4,,,,74,0
96480,note_on,,,,,2,0,5,,,,,4,,,,74,45
96483,note_on,,,,,94,0,6,,,,,5,,,,70,0
96484,note_on,,,,,48,0,4,,,,,3,,,,62,0
96484,note_on,,,,,0,0,4,,,,,3,,,,58,108
96485,note_on,,,,,2,0,6,,,,,5,,,,70,45
96524,note_on,,,,,0,0,3,,,,,2,,,,77,127
96524,note_on,,,,,48,0,3,,,,,2,,,,79,0
96532,note_on,,,,,0,0,4,,,,,3,,,,62,108
96532,note_on,,,,,48,0,4,,,,,3,,,,58,0
96543,note_on,,,,,160,0,8,,,,,7,,,,53,0
96550,note_on,,,,,160,0,9,,,,,8,,,,41,0
96571,note_on,,,,,94,0,7,,,,,6,,,,65,0
96572,note_on,,,,,0,0,3,,,,,2,,,,75,127
96572,note_on,,,,,48,0,3,,,,,2,,,,77,0
96573,note_on,,,,,2,0,7,,,,,6,,,,65,45
96574,note_on,,,,,94,0,5,,,,,4,,,,74,0
96575,note_on,,,,,32,0,8,,,,,7,,,,53,45
96576,note_on,,,,,2,0,5,,,,,4,,,,74,45
96579,note_on,,,,,94,0,6,,,,,5,,,,70,0
96580,note_on,,,,,0,0,4,,,,,3,,,,53,108
96580,note_on,,,,,48,0,4,,,,,3,,,,62,0
96581,note_on,,,,,2,0,6,,,,,5,,,,70,45
96582,note_on,,,,,32,0,9,,,,,8,,,,41,45
96620,note_on,,,,,0,0,3,,,,,2,,,,74,127
96620,note_on,,,,,48,0,3,,,,,2,,,,75,0
96628,note_on,,,,,48,0,4,,,,,3,,,,53,0
96628,note_on,,,,,0,0,4,,,,,3,,,,62,108
96667,note_on,,,,,94,0,7,,,,,6,,,,65,0
96668,note_on,,,,,0,0,3,,,,,2,,,,72,127
96668,note_on,,,,,48,0,3,,,,,2,,,,74,0
96669,note_on,,,,,2,0,7,,,,,6,,,,65,45
96670,note_on,,,,,94,0,5,,,,,4,,,,74,0
96672,note_on,,,,,2,0,5,,,,,4,,,,74,45
96675,note_on,,,,,94,0,6,,,,,5,,,,70,0
96676,note_on,,,,,48,0,4,,,,,3,,,,62,0
96676,note_on,,,,,0,0,4,,,,,3,,,,58,108
96677,note_on,,,,,2,0,6,,,,,5,,,,70,45
96716,note_on,,,,,48,0,3,,,,,2,,,,72,0
96716,note_on,,,,,0,0,3,,,,,2,,,,70,127
96724,note_on,,,,,48,0,4,,,,,3,,,,58,0
96724,note_on,,,,,0,0,4,,,,,3,,,,62,108
96735,note_on,,,,,160,0,8,,,,,7,,,,53,0
96742,note_on,,,,,160,0,9,,,,,8,,,,41,0
96763,note_on,,,,,94,0,7,,,,,6,,,,65,0
96764,note_on,,,,,0,0,3,,,,,2,,,,72,127
96764,note_on,,,,,48,0,3,,,,,2,,,,70,0
96765,note_on,,,,,2,0,7,,,,,6,,,,65,60
96766,note_on,,,,,94,0,5,,,,,4,,,,74,0
96767,note_on,,,,,32,0,8,,,,,7,,,,53,60
96768,note_on,,,,,2,0,5,,,,,4,,,,72,60
96771,note_on,,,,,94,0,6,,,,,5,,,,70,0
96772,note_on,,,,,48,0,4,,,,,3,,,,62,0
96772,note_on,,,,,0,0,4,,,,,3,,,,53,108
96773,note_on,,,,,0,0,6,,,,,5,,,,69,60
96773,note_on,,,,,2,0,6,,,,,5,,,,63,60
96774,note_on,,,,,32,0,9,,,,,8,,,,41,60
96796,note_on,,,,,0,0,3,,,,,2,,,,74,127
96796,note_on,,,,,32,0,3,,,,,2,,,,72,0
96811,note_on,,,,,46,0,7,,,,,6,,,,65,0
96813,note_on,,,,,2,0,7,,,,,6,,,,65,60
96814,note_on,,,,,46,0,5,,,,,4,,,,72,0
96816,note_on,,,,,2,0,5,,,,,4,,,,72,60
96819,note_on,,,,,46,0,6,,,,,5,,,,69,0
96819,note_on,,,,,0,0,6,,,,,5,,,,63,0
96820,note_on,,,,,48,0,4,,,,,3,,,,53,0
96820,note_on,,,,,0,0,4,,,,,3,,,,63,108
96821,note_on,,,,,0,0,6,,,,,5,,,,69,60
96821,note_on,,,,,2,0,6,,,,,5,,,,63,60
96828,note_on,,,,,32,0,3,,,,,2,,,,74,0
96828,note_on,,,,,0,0,3,,,,,2,,,,72,127
96859,note_on,,,,,46,0,7,,,,,6,,,,65,0
96860,note_on,,,,,32,0,3,,,,,2,,,,72,0
96860,note_on,,,,,0,0,3,,,,,2,,,,74,127
96861,note_on,,,,,94,0,8,,,,,7,,,,53,0
96861,note_on,,,,,2,0,7,,,,,6,,,,65,60
96862,note_on,,,,,46,0,5,,,,,4,,,,72,0
96863,note_on,,,,,2,0,8,,,,,7,,,,53,60
96864,note_on,,,,,2,0,5,,,,,4,,,,72,60
96867,note_on,,,,,46,0,6,,,,,5,,,,69,0
96867,note_on,,,,,0,0,6,,,,,5,,,,63,0
96868,note_on,,,,,94,0,9,,,,,8,,,,41,0
96868,note_on,,,,,48,0,4,,,,,3,,,,63,0
96868,note_on,,,,,0,0,4,,,,,3,,,,57,108
96869,note_on,,,,,0,0,6,,,,,5,,,,69,60
96869,note_on,,,,,2,0,6,,,,,5,,,,63,60
96870,note_on,,,,,2,0,9,,,,,8,,,,41,60
96892,note_on,,,,,0,0,3,,,,,2,,,,72,127
96892,note_on,,,,,32,0,3,,,,,2,,,,74,0
96907,note_on,,,,,46,0,7,,,,,6,,,,65,0
96909,note_on,,,,,2,0,7,,,,,6,,,,65,60
96910,note_on,,,,,46,0,5,,,,,4,,,,72,0
96912,note_on,,,,,2,0,5,,,,,4,,,,72,60
96915,note_on,,,,,46,0,6,,,,,5,,,,69,0
96915,note_on,,,,,0,0,6,,,,,5,,,,63,0
96916,note_on,,,,,48,0,4,,,,,3,,,,57,0
96916,note_on,,,,,0,0,4,,,,,3,,,,63,108
96917,note_on,,,,,0,0,6,,,,,5,,,,69,60
96917,note_on,,,,,2,0,6,,,,,5,,,,63,60
96924,note_on,,,,,0,0,3,,,,,2,,,,74,127
96924,note_on,,,,,32,0,3,,,,,2,,,,72,0
96955,note_on,,,,,46,0,7,,,,,6,,,,65,0
96956,note_on,,,,,32,0,3,,,,,2,,,,74,0
96956,note_on,,,,,0,0,3,,,,,2,,,,72,127
96957,note_on,,,,,94,0,8,,,,,7,,,,53,0
96957,note_on,,,,,2,0,7,,,,,6,,,,65,75
96958,note_on,,,,,46,0,5,,,,,4,,,,72,0
96959,note_on,,,,,2,0,8,,,,,7,,,,53,75
96960,note_on,,,,,2,0,5,,,,,4,,,,72,75
96963,note_on,,,,,46,0,6,,,,,5,,,,69,0
96963,note_on,,,,,0,0,6,,,,,5,,,,63,0
96964,note_on,,,,,48,0,4,,,,,3,,,,63,0
96964,note_on,,,,,94,0,9,,,,,8,,,,41,0
96964,note_on,,,,,0,0,4,,,,,3,,,,53,108
96965,note_on,,,,,2,0,6,,,,,5,,,,63,75
96965,note_on,,,,,0,0,6,,,,,5,,,,69,75
96966,note_on,,,,,2,0,9,,,,,8,,,,41,75
96988,note_on,,,,,0,0,3,,,,,2,,,,74,127
96988,note_on,,,,,32,0,3,,,,,2,,,,72,0
97003,note_on,,,,,46,0,7,,,,,6,,,,65,0
97005,note_on,,,,,2,0,7,,,,,6,,,,65,75
97006,note_on,,,,,46,0,5,,,,,4,,,,72,0
97008,note_on,,,,,2,0,5,,,,,4,,,,72,75
97011,note_on,,,,,46,0,6,,,,,5,,,,69,0
97011,note_on,,,,,0,0,6,,,,,5,,,,63,0
97012,note_on,,,,,0,0,4,,,,,3,,,,63,108
97012,note_on,,,,,48,0,4,,,,,3,,,,53,0
97013,note_on,,,,,0,0,6,,,,,5,,,,69,75
97013,note_on,,,,,2,0,6,,,,,5,,,,63,75
97020,note_on,,,,,0,0,3,,,,,2,,,,72,127
97020,note_on,,,,,32,0,3,,,,,2,,,,74,0
97051,note_on,,,,,46,0,7,,,,,6,,,,65,0
97052,note_on,,,,,0,0,3,,,,,2,,,,74,127
97052,note_on,,,,,32,0,3,,,,,2,,,,72,0
97053,note_on,,,,,94,0,8,,,,,7,,,,53,0
97053,note_on,,,,,2,0,7,,,,,6,,,,65,75
97054,note_on,,,,,46,0,5,,,,,4,,,,72,0
97055,note_on,,,,,2,0,8,,,,,7,,,,53,75
97056,note_on,,,,,2,0,5,,,,,4,,,,72,75
97059,note_on,,,,,46,0,6,,,,,5,,,,69,0
97059,note_on,,,,,0,0,6,,,,,5,,,,63,0
97060,note_on,,,,,94,0,9,,,,,8,,,,41,0
97060,note_on,,,,,48,0,4,,,,,3,,,,63,0
97060,note_on,,,,,0,0,4,,,,,3,,,,57,108
97061,note_on,,,,,2,0,6,,,,,5,,,,63,75
97061,note_on,,,,,0,0,6,,,,,5,,,,69,75
97062,note_on,,,,,2,0,9,,,,,8,,,,41,75
97084,note_on,,,,,0,0,3,,,,,2,,,,72,127
97084,note_on,,,,,32,0,3,,,,,2,,,,74,0
97099,note_on,,,,,46,0,7,,,,,6,,,,65,0
97101,note_on,,,,,2,0,7,,,,,6,,,,65,75
97102,note_on,,,,,46,0,5,,,,,4,,,,72,0
97104,note_on,,,,,2,0,5,,,,,4,,,,72,75
97107,note_on,,,,,0,0,6,,,,,5,,,,63,0
97107,note_on,,,,,46,0,6,,,,,5,,,,69,0
97108,note_on,,,,,48,0,4,,,,,3,,,,57,0
97108,note_on,,,,,0,0,4,,,,,3,,,,63,108
97109,note_on,,,,,2,0,6,,,,,5,,,,63,75
97109,note_on,,,,,0,0,6,,,,,5,,,,69,75
97116,note_on,,,,,32,0,3,,,,,2,,,,72,0
97116,note_on,,,,,0,0,3,,,,,2,,,,74,127
97147,note_on,,,,,46,0,7,,,,,6,,,,65,0
97148,note_on,,,,,32,0,3,,,,,2,,,,74,0
97148,note_on,,,,,0,0,3,,,,,2,,,,72,127
97149,note_on,,,,,2,0,7,,,,,6,,,,65,92
97149,note_on,,,,,94,0,8,,,,,7,,,,53,0
97150,note_on,,,,,46,0,5,,,,,4,,,,72,0
97151,note_on,,,,,2,0,8,,,,,7,,,,53,92
97152,note_on,,,,,2,0,5,,,,,4,,,,72,92
97155,note_on,,,,,46,0,6,,,,,5,,,,69,0
97155,note_on,,,,,0,0,6,,,,,5,,,,63,0
97156,note_on,,,,,94,0,9,,,,,8,,,,41,0
97156,note_on,,,,,0,0,4,,,,,3,,,,53,108
97156,note_on,,,,,48,0,4,,,,,3,,,,63,0
97157,note_on,,,,,2,0,6,,,,,5,,,,63,92
97157,note_on,,,,,0,0,6,,,,,5,,,,69,92
97158,note_on,,,,,2,0,9,,,,,8,,,,41,92
97180,note_on,,,,,0,0,3,,,,,2,,,,74,127
97180,note_on,,,,,32,0,3,,,,,2,,,,72,0
97195,note_on,,,,,46,0,7,,,,,6,,,,65,0
97197,note_on,,,,,2,0,7,,,,,6,,,,65,92
97198,note_on,,,,,46,0,5,,,,,4,,,,72,0
97200,note_on,,,,,2,0,5,,,,,4,,,,72,92
97203,note_on,,,,,0,0,6,,,,,5,,,,63,0
97203,note_on,,,,,46,0,6,,,,,5,,,,69,0
97204,note_on,,,,,48,0,4,,,,,3,,,,53,0
97204,note_on,,,,,0,0,4,,,,,3,,,,63,108
97205,note_on,,,,,0,0,6,,,,,5,,,,69,92
97205,note_on,,,,,2,0,6,,,,,5,,,,63,92
97212,note_on,,,,,0,0,3,,,,,2,,,,72,127
97212,note_on,,,,,32,0,3,,,,,2,,,,74,0
97243,note_on,,,,,46,0,7,,,,,6,,,,65,0
97244,note_on,,,,,32,0,3,,,,,2,,,,72,0
97244,note_on,,,,,0,0,3,,,,,2,,,,70,127
97245,note_on,,,,,2,0,7,,,,,6,,,,65,92
97245,note_on,,,,,94,0,8,,,,,7,,,,53,0
97246,note_on,,,,,46,0,5,,,,,4,,,,72,0
97247,note_on,,,,,2,0,8,,,,,7,,,,53,92
97248,note_on,,,,,2,0,5,,,,,4,,,,72,92
97251,note_on,,,,,0,0,6,,,,,5,,,,63,0
97251,note_on,,,,,46,0,6,,,,,5,,,,69,0
97252,note_on,,,,,94,0,9,,,,,8,,,,41,0
97252,note_on,,,,,0,0,4,,,,,3,,,,57,108
97252,note_on,,,,,48,0,4,,,,,3,,,,63,0
97253,note_on,,,,,2,0,6,,,,,5,,,,63,92
97253,note_on,,,,,0,0,6,,,,,5,,,,69,92
97254,note_on,,,,,2,0,9,,,,,8,,,,41,92
97291,note_on,,,,,46,0,7,,,,,6,,,,65,0
97292,note_on,,,,,48,0,3,,,,,2,,,,70,0
97292,note_on,,,,,0,0,3,,,,,2,,,,72,127
97293,note_on,,,,,2,0,7,,,,,6,,,,65,92
97294,note_on,,,,,46,0,5,,,,,4,,,,72,0
97296,note_on,,,,,2,0,5,,,,,4,,,,72,92
97299,note_on,,,,,0,0,6,,,,,5,,,,63,0
97299,note_on,,,,,46,0,6,,,,,5,,,,69,0
97300,note_on,,,,,0,0,4,,,,,3,,,,63,108
97300,note_on,,,,,48,0,4,,,,,3,,,,57,0
97301,note_on,,,,,2,0,6,,,,,5,,,,63,92
97301,note_on,,,,,0,0,6,,,,,5,,,,69,92
97339,note_on,,,,,46,0,7,,,,,6,,,,65,0
97340,note_on,,,,,0,0,3,,,,,2,,,,70,127
97340,note_on,,,,,48,0,3,,,,,2,,,,72,0
97341,note_on,,,,,2,0,7,,,,,6,,,,65,92
97341,note_on,,,,,94,0,8,,,,,7,,,,53,0
97342,note_on,,,,,46304,0,1,,,,,0,,,,70,92
97342,note_on,,,,,46,0,5,,,,,4,,,,72,0
97343,note_on,,,,,2,0,8,,,,,7,,,,58,92
97344,note_on,,,,,2,0,5,,,,,4,,,,62,92
97344,note_on,,,,,0,0,5,,,,,4,,,,70,92
97344,set_tempo,,,,,5760,1,0,,413793,,,,,,,,
97346,note_on,,,,,0,0,2,,,,,1,,,,65,92
97346,note_on,,,,,46304,0,2,,,,,1,,,,58,92
97347,note_on,,,,,0,0,6,,,,,5,,,,63,0
97347,note_on,,,,,46,0,6,,,,,5,,,,69,0
97348,note_on,,,,,94,0,9,,,,,8,,,,41,0
97348,note_on,,,,,48,0,4,,,,,3,,,,63,0
97348,note_on,,,,,0,0,4,,,,,3,,,,58,108
97348,note_on,,,,,0,0,4,,,,,3,,,,62,108
97349,note_on,,,,,2,0,6,,,,,5,,,,62,92
97349,note_on,,,,,0,0,6,,,,,5,,,,70,92
97350,note_on,,,,,2,0,9,,,,,8,,,,46,92
97508,note_on,,,,,160,0,4,,,,,3,,,,62,0
97508,note_on,,,,,0,0,4,,,,,3,,,,58,0
97532,note_on,,,,,192,0,3,,,,,2,,,,70,0
97675,note_on,,,,,334,0,7,,,,,6,,,,65,0
97676,note_on,,,,,334,0,1,,,,,0,,,,70,0
97677,note_on,,,,,334,0,8,,,,,7,,,,58,0
97677,note_on,,,,,2,0,7,,,,,6,,,,65,92
97678,note_on,,,,,2,0,1,,,,,0,,,,70,92
97678,note_on,,,,,0,0,5,,,,,4,,,,62,0
97678,note_on,,,,,334,0,5,,,,,4,,,,70,0
97679,note_on,,,,,2,0,8,,,,,7,,,,58,92
97680,note_on,,,,,334,0,2,,,,,1,,,,65,0
97680,note_on,,,,,2,0,5,,,,,4,,,,70,92
97680,note_on,,,,,0,0,2,,,,,1,,,,58,0
97682,note_on,,,,,2,0,2,,,,,1,,,,58,92
97682,note_on,,,,,0,0,2,,,,,1,,,,65,92
97683,note_on,,,,,334,0,6,,,,,5,,,,70,0
97683,note_on,,,,,0,0,6,,,,,5,,,,62,0
97684,note_on,,,,,334,0,9,,,,,8,,,,46,0
97685,note_on,,,,,2,0,6,,,,,5,,,,70,92
97686,note_on,,,,,2,0,9,,,,,8,,,,46,92
97723,note_on,,,,,46,0,7,,,,,6,,,,65,0
97724,note_on,,,,,46,0,1,,,,,0,,,,70,0
97725,note_on,,,,,2,0,7,,,,,6,,,,65,92
97725,note_on,,,,,46,0,8,,,,,7,,,,58,0
97726,note_on,,,,,46,0,5,,,,,4,,,,70,0
97726,note_on,,,,,2,0,1,,,,,0,,,,70,92
97727,note_on,,,,,2,0,8,,,,,7,,,,58,92
97728,note_on,,,,,46,0,2,,,,,1,,,,65,0
97728,note_on,,,,,0,0,5,,,,,4,,,,70,92
97728,note_on,,,,,0,0,2,,,,,1,,,,58,0
97728,note_on,,,,,2,0,5,,,,,4,,,,62,92
97730,note_on,,,,,0,0,2,,,,,1,,,,65,92
97730,note_on,,,,,2,0,2,,,,,1,,,,58,92
97731,note_on,,,,,46,0,6,,,,,5,,,,70,0
97732,note_on,,,,,46,0,9,,,,,8,,,,46,0
97733,note_on,,,,,0,0,6,,,,,5,,,,70,92
97733,note_on,,,,,2,0,6,,,,,5,,,,62,92
97734,note_on,,,,,2,0,9,,,,,8,,,,46,92
97867,note_on,,,,,142,0,7,,,,,6,,,,65,0
97868,note_on,,,,,142,0,1,,,,,0,,,,70,0
97869,note_on,,,,,2,0,7,,,,,6,,,,65,92
97869,note_on,,,,,142,0,8,,,,,7,,,,58,0
97870,note_on,,,,,142,0,5,,,,,4,,,,70,0
97870,note_on,,,,,0,0,5,,,,,4,,,,62,0
97870,note_on,,,,,2,0,1,,,,,0,,,,70,92
97871,note_on,,,,,2,0,8,,,,,7,,,,58,92
97872,note_on,,,,,142,0,2,,,,,1,,,,65,0
97872,note_on,,,,,2,0,5,,,,,4,,,,70,92
97872,note_on,,,,,0,0,2,,,,,1,,,,58,0
97874,note_on,,,,,2,0,2,,,,,1,,,,58,92
97874,note_on,,,,,0,0,2,,,,,1,,,,65,92
97875,note_on,,,,,142,0,6,,,,,5,,,,70,0
97875,note_on,,,,,0,0,6,,,,,5,,,,62,0
97876,note_on,,,,,142,0,9,,,,,8,,,,46,0
97877,note_on,,,,,2,0,6,,,,,5,,,,70,92
97878,note_on,,,,,2,0,9,,,,,8,,,,46,92
97915,note_on,,,,,46,0,7,,,,,6,,,,65,0
97916,note_on,,,,,46,0,1,,,,,0,,,,70,0
97917,note_on,,,,,2,0,7,,,,,6,,,,65,92
97917,note_on,,,,,46,0,8,,,,,7,,,,58,0
97918,note_on,,,,,46,0,5,,,,,4,,,,70,0
97918,note_on,,,,,2,0,1,,,,,0,,,,70,92
97919,note_on,,,,,2,0,8,,,,,7,,,,58,92
97920,note_on,,,,,0,0,2,,,,,1,,,,58,0
97920,note_on,,,,,46,0,2,,,,,1,,,,65,0
97920,note_on,,,,,2,0,5,,,,,4,,,,72,92
97922,note_on,,,,,0,0,2,,,,,1,,,,65,92
97922,note_on,,,,,2,0,2,,,,,1,,,,58,92
97923,note_on,,,,,46,0,6,,,,,5,,,,70,0
97924,note_on,,,,,46,0,9,,,,,8,,,,46,0
97925,note_on,,,,,0,0,6,,,,,5,,,,70,92
97925,note_on,,,,,2,0,6,,,,,5,,,,62,92
97926,note_on,,,,,2,0,9,,,,,8,,,,46,92
97944,note_on,,,,,0,0,5,,,,,4,,,,70,92
97944,note_on,,,,,24,0,5,,,,,4,,,,72,0
97965,note_on,,,,,48,0,7,,,,,6,,,,65,0
97966,note_on,,,,,48,0,1,,,,,0,,,,70,0
97967,note_on,,,,,48,0,8,,,,,7,,,,58,0
97968,note_on,,,,,24,0,5,,,,,4,,,,70,0
97968,note_on,,,,,0,0,5,,,,,4,,,,72,92
97970,note_on,,,,,48,0,2,,,,,1,,,,65,0
97970,note_on,,,,,0,0,2,,,,,1,,,,58,0
97973,note_on,,,,,0,0,6,,,,,5,,,,62,0
97973,note_on,,,,,48,0,6,,,,,5,,,,70,0
97974,note_on,,,,,48,0,9,,,,,8,,,,46,0
97992,note_on,,,,,0,0,5,,,,,4,,,,70,92
97992,note_on,,,,,24,0,5,,,,,4,,,,72,0
98016,note_on,,,,,0,0,5,,,,,4,,,,72,92
98016,note_on,,,,,24,0,5,,,,,4,,,,70,0
98040,note_on,,,,,0,0,5,,,,,4,,,,70,92
98040,note_on,,,,,24,0,5,,,,,4,,,,72,0
98064,note_on,,,,,24,0,5,,,,,4,,,,70,0
98064,note_on,,,,,0,0,5,,,,,4,,,,69,92
98088,note_on,,,,,24,0,5,,,,,4,,,,69,0
98088,note_on,,,,,0,0,5,,,,,4,,,,70,92
98109,note_on,,,,,144,0,7,,,,,6,,,,65,92
98110,note_on,,,,,22,0,5,,,,,4,,,,70,0
98110,note_on,,,,,0,0,1,,,,,0,,,,72,92
98110,note_on,,,,,144,0,1,,,,,0,,,,69,92
98111,note_on,,,,,144,0,8,,,,,7,,,,53,92
98112,note_on,,,,,2,0,5,,,,,4,,,,72,92
98114,note_on,,,,,144,0,2,,,,,1,,,,65,92
98117,note_on,,,,,0,0,6,,,,,5,,,,69,92
98117,note_on,,,,,144,0,6,,,,,5,,,,63,92
98118,note_on,,,,,144,0,9,,,,,8,,,,41,92
98157,note_on,,,,,48,0,7,,,,,6,,,,65,0
98158,note_on,,,,,48,0,1,,,,,0,,,,72,0
98158,note_on,,,,,0,0,1,,,,,0,,,,69,0
98159,note_on,,,,,48,0,8,,,,,7,,,,53,0
98160,note_on,,,,,48,0,5,,,,,4,,,,72,0
98162,note_on,,,,,48,0,2,,,,,1,,,,65,0
98165,note_on,,,,,0,0,6,,,,,5,,,,63,0
98165,note_on,,,,,48,0,6,,,,,5,,,,69,0
98166,note_on,,,,,48,0,9,,,,,8,,,,41,0
98493,note_on,,,,,336,0,7,,,,,6,,,,65,92
98494,note_on,,,,,0,0,1,,,,,0,,,,74,92
98494,note_on,,,,,336,0,1,,,,,0,,,,68,92
98495,note_on,,,,,336,0,8,,,,,7,,,,58,92
98496,note_on,,,,,0,0,5,,,,,4,,,,74,92
98496,note_on,,,,,336,0,5,,,,,4,,,,65,92
98498,note_on,,,,,0,0,2,,,,,1,,,,65,92
98498,note_on,,,,,336,0,2,,,,,1,,,,58,92
98501,note_on,,,,,336,0,6,,,,,5,,,,68,92
98501,note_on,,,,,0,0,6,,,,,5,,,,70,92
98502,note_on,,,,,336,0,9,,,,,8,,,,46,92
98827,note_on,,,,,334,0,7,,,,,6,,,,65,0
98828,note_on,,,,,0,0,1,,,,,0,,,,68,0
98828,note_on,,,,,334,0,1,,,,,0,,,,74,0
98829,note_on,,,,,2,0,7,,,,,6,,,,65,92
98829,note_on,,,,,334,0,8,,,,,7,,,,58,0
98830,note_on,,,,,0,0,1,,,,,0,,,,74,92
98830,note_on,,,,,2,0,1,,,,,0,,,,68,92
98830,note_on,,,,,0,0,5,,,,,4,,,,65,0
98830,note_on,,,,,334,0,5,,,,,4,,,,74,0
98831,note_on,,,,,2,0,8,,,,,7,,,,58,92
98832,note_on,,,,,0,0,2,,,,,1,,,,58,0
98832,note_on,,,,,2,0,5,,,,,4,,,,74,92
98832,note_on,,,,,334,0,2,,,,,1,,,,65,0
98834,note_on,,,,,0,0,2,,,,,1,,,,65,92
98834,note_on,,,,,2,0,2,,,,,1,,,,58,92
98835,note_on,,,,,334,0,6,,,,,5,,,,68,0
98836,note_on,,,,,334,0,9,,,,,8,,,,46,0
98837,note_on,,,,,2,0,6,,,,,5,,,,68,92
98837,note_on,,,,,0,0,6,,,,,5,,,,70,92
98838,note_on,,,,,2,0,9,,,,,8,,,,46,92
98875,note_on,,,,,46,0,7,,,,,6,,,,65,0
98876,note_on,,,,,46,0,1,,,,,0,,,,74,0
98876,note_on,,,,,0,0,1,,,,,0,,,,68,0
98877,note_on,,,,,46,0,8,,,,,7,,,,58,0
98877,note_on,,,,,2,0,7,,,,,6,,,,65,92
98878,note_on,,,,,0,0,1,,,,,0,,,,74,92
98878,note_on,,,,,2,0,1,,,,,0,,,,68,92
98878,note_on,,,,,46,0,5,,,,,4,,,,74,0
98879,note_on,,,,,2,0,8,,,,,7,,,,58,92
98880,note_on,,,,,2,0,5,,,,,4,,,,65,92
98880,note_on,,,,,0,0,5,,,,,4,,,,74,92
98880,note_on,,,,,46,0,2,,,,,1,,,,65,0
98880,note_on,,,,,0,0,2,,,,,1,,,,58,0
98882,note_on,,,,,0,0,2,,,,,1,,,,65,92
98882,note_on,,,,,2,0,2,,,,,1,,,,58,92
98883,note_on,,,,,46,0,6,,,,,5,,,,70,0
98883,note_on,,,,,0,0,6,,,,,5,,,,68,0
98884,note_on,,,,,46,0,9,,,,,8,,,,46,0
98885,note_on,,,,,2,0,6,,,,,5,,,,68,92
98885,note_on,,,,,0,0,6,,,,,5,,,,70,92
98886,note_on,,,,,2,0,9,,,,,8,,,,46,92
98949,note_on,,,,,64,0,6,,,,,5,,,,70,0
99019,note_on,,,,,142,0,7,,,,,6,,,,65,0
99020,note_on,,,,,0,0,1,,,,,0,,,,68,0
99020,note_on,,,,,142,0,1,,,,,0,,,,74,0
99021,note_on,,,,,142,0,8,,,,,7,,,,58,0
99021,note_on,,,,,2,0,7,,,,,6,,,,65,92
99022,note_on,,,,,2,0,1,,,,,0,,,,68,92
99022,note_on,,,,,0,0,5,,,,,4,,,,65,0
99022,note_on,,,,,0,0,1,,,,,0,,,,74,92
99022,note_on,,,,,142,0,5,,,,,4,,,,74,0
99023,note_on,,,,,2,0,8,,,,,7,,,,58,92
99024,note_on,,,,,2,0,5,,,,,4,,,,74,92
99024,note_on,,,,,0,0,2,,,,,1,,,,58,0
99024,note_on,,,,,142,0,2,,,,,1,,,,65,0
99026,note_on,,,,,2,0,2,,,,,1,,,,58,92
99026,note_on,,,,,0,0,2,,,,,1,,,,65,92
99027,note_on,,,,,78,0,6,,,,,5,,,,68,0
99027,note_on,,,,,0,0,6,,,,,5,,,,70,0
99028,note_on,,,,,142,0,9,,,,,8,,,,46,0
99029,note_on,,,,,2,0,6,,,,,5,,,,68,92
99029,note_on,,,,,0,0,6,,,,,5,,,,70,92
99030,note_on,,,,,2,0,9,,,,,8,,,,46,92
99067,note_on,,,,,46,0,7,,,,,6,,,,65,0
99068,note_on,,,,,0,0,1,,,,,0,,,,68,0
99068,note_on,,,,,46,0,1,,,,,0,,,,74,0
99069,note_on,,,,,2,0,7,,,,,6,,,,65,92
99069,note_on,,,,,46,0,8,,,,,7,,,,58,0
99070,note_on,,,,,46,0,5,,,,,4,,,,74,0
99070,note_on,,,,,0,0,1,,,,,0,,,,74,92
99070,note_on,,,,,2,0,1,,,,,0,,,,68,92
99071,note_on,,,,,2,0,8,,,,,7,,,,58,92
99072,note_on,,,,,2,0,5,,,,,4,,,,75,92
99072,note_on,,,,,0,0,2,,,,,1,,,,58,0
99072,note_on,,,,,46,0,2,,,,,1,,,,65,0
99074,note_on,,,,,2,0,2,,,,,1,,,,58,92
99074,note_on,,,,,0,0,2,,,,,1,,,,65,92
99075,note_on,,,,,0,0,6,,,,,5,,,,68,0
99075,note_on,,,,,46,0,6,,,,,5,,,,70,0
99076,note_on,,,,,46,0,9,,,,,8,,,,46,0
99077,note_on,,,,,0,0,6,,,,,5,,,,70,92
99077,note_on,,,,,2,0,6,,,,,5,,,,68,92
99078,note_on,,,,,2,0,9,,,,,8,,,,46,92
99096,note_on,,,,,0,0,5,,,,,4,,,,74,92
99096,note_on,,,,,24,0,5,,,,,4,,,,75,0
99117,note_on,,,,,48,0,7,,,,,6,,,,65,0
99118,note_on,,,,,0,0,1,,,,,0,,,,68,0
99118,note_on,,,,,48,0,1,,,,,0,,,,74,0
99119,note_on,,,,,48,0,8,,,,,7,,,,58,0
99120,note_on,,,,,0,0,5,,,,,4,,,,75,92
99120,note_on,,,,,24,0,5,,,,,4,,,,74,0
99122,note_on,,,,,0,0,2,,,,,1,,,,58,0
99122,note_on,,,,,48,0,2,,,,,1,,,,65,0
99125,note_on,,,,,48,0,6,,,,,5,,,,70,0
99125,note_on,,,,,0,0,6,,,,,5,,,,68,0
99126,note_on,,,,,48,0,9,,,,,8,,,,46,0
99144,note_on,,,,,0,0,5,,,,,4,,,,74,92
99144,note_on,,,,,24,0,5,,,,,4,,,,75,0
99168,note_on,,,,,0,0,5,,,,,4,,,,75,92
99168,note_on,,,,,24,0,5,,,,,4,,,,74,0
99192,note_on,,,,,0,0,5,,,,,4,,,,74,92
99192,note_on,,,,,24,0,5,,,,,4,,,,75,0
99216,note_on,,,,,24,0,5,,,,,4,,,,74,0
99216,note_on,,,,,0,0,5,,,,,4,,,,72,92
99240,note_on,,,,,0,0,5,,,,,4,,,,74,92
99240,note_on,,,,,24,0,5,,,,,4,,,,72,0
99261,note_on,,,,,144,0,7,,,,,6,,,,63,92
99262,note_on,,,,,144,0,1,,,,,0,,,,67,92
99262,note_on,,,,,0,0,1,,,,,0,,,,75,92
99262,note_on,,,,,22,0,5,,,,,4,,,,74,0
99263,note_on,,,,,144,0,8,,,,,7,,,,53,92
99264,note_on,,,,,2,0,5,,,,,4,,,,75,92
99266,note_on,,,,,144,0,2,,,,,1,,,,58,92
99266,note_on,,,,,0,0,2,,,,,1,,,,63,92
99269,note_on,,,,,144,0,6,,,,,5,,,,67,92
99269,note_on,,,,,0,0,6,,,,,5,,,,70,92
99270,note_on,,,,,144,0,9,,,,,8,,,,41,92
99309,note_on,,,,,48,0,7,,,,,6,,,,63,0
99310,note_on,,,,,48,0,1,,,,,0,,,,75,0
99310,note_on,,,,,0,0,1,,,,,0,,,,67,0
99311,note_on,,,,,48,0,8,,,,,7,,,,53,0
99312,note_on,,,,,48,0,5,,,,,4,,,,75,0
99314,note_on,,,,,48,0,2,,,,,1,,,,63,0
99314,note_on,,,,,0,0,2,,,,,1,,,,58,0
99317,note_on,,,,,0,0,6,,,,,5,,,,67,0
99317,note_on,,,,,48,0,6,,,,,5,,,,70,0
99318,note_on,,,,,48,0,9,,,,,8,,,,41,0
99645,note_on,,,,,336,0,7,,,,,6,,,,67,45
99647,note_on,,,,,336,0,8,,,,,7,,,,51,45
99648,note_on,,,,,336,0,5,,,,,4,,,,79,45
99653,note_on,,,,,336,0,6,,,,,5,,,,75,45
99654,note_on,,,,,336,0,9,,,,,8,,,,39,45
99789,note_on,,,,,144,0,7,,,,,6,,,,67,0
99789,note_on,,,,,0,0,7,,,,,6,,,,69,45
99791,note_on,,,,,0,0,8,,,,,7,,,,53,45
99791,note_on,,,,,144,0,8,,,,,7,,,,51,0
99798,note_on,,,,,0,0,9,,,,,8,,,,41,45
99798,note_on,,,,,144,0,9,,,,,8,,,,39,0
99837,note_on,,,,,48,0,7,,,,,6,,,,69,0
99837,note_on,,,,,0,0,7,,,,,6,,,,70,45
99839,note_on,,,,,48,0,8,,,,,7,,,,53,0
99839,note_on,,,,,0,0,8,,,,,7,,,,55,45
99846,note_on,,,,,48,0,9,,,,,8,,,,41,0
99846,note_on,,,,,0,0,9,,,,,8,,,,43,45
100029,note_on,,,,,192,0,7,,,,,6,,,,70,0
100029,note_on,,,,,0,0,7,,,,,6,,,,72,45
100031,note_on,,,,,0,0,8,,,,,7,,,,57,45
100031,note_on,,,,,192,0,8,,,,,7,,,,55,0
100038,note_on,,,,,192,0,9,,,,,8,,,,43,0
100038,note_on,,,,,0,0,9,,,,,8,,,,45,45
100176,note_on,,,,,528,0,5,,,,,4,,,,79,0
100181,note_on,,,,,528,0,6,,,,,5,,,,75,0
100189,note_on,,,,,160,0,7,,,,,6,,,,72,0
100191,note_on,,,,,160,0,8,,,,,7,,,,57,0
100198,note_on,,,,,160,0,9,,,,,8,,,,45,0
100221,note_on,,,,,32,0,7,,,,,6,,,,74,45
100223,note_on,,,,,32,0,8,,,,,7,,,,58,45
100224,note_on,,,,,48,0,5,,,,,4,,,,77,45
100229,note_on,,,,,48,0,6,,,,,5,,,,74,45
100230,note_on,,,,,32,0,9,,,,,8,,,,46,45
100413,note_on,,,,,0,0,7,,,,,6,,,,72,45
100413,note_on,,,,,192,0,7,,,,,6,,,,74,0
100415,note_on,,,,,192,0,8,,,,,7,,,,58,0
100415,note_on,,,,,0,0,8,,,,,7,,,,54,45
100416,note_on,,,,,0,0,5,,,,,4,,,,81,45
100416,note_on,,,,,192,0,5,,,,,4,,,,77,0
100421,note_on,,,,,0,0,6,,,,,5,,,,75,45
100421,note_on,,,,,192,0,6,,,,,5,,,,74,0
100422,note_on,,,,,192,0,9,,,,,8,,,,46,0
100422,note_on,,,,,0,0,9,,,,,8,,,,42,45
100573,note_on,,,,,160,0,7,,,,,6,,,,72,0
100605,note_on,,,,,32,0,7,,,,,6,,,,70,45
100607,note_on,,,,,0,0,8,,,,,7,,,,55,45
100607,note_on,,,,,192,0,8,,,,,7,,,,54,0
100608,note_on,,,,,192,0,5,,,,,4,,,,81,0
100608,note_on,,,,,0,0,5,,,,,4,,,,82,45
100613,note_on,,,,,192,0,6,,,,,5,,,,75,0
100613,note_on,,,,,0,0,6,,,,,5,,,,74,45
100614,note_on,,,,,0,0,9,,,,,8,,,,43,45
100614,note_on,,,,,192,0,9,,,,,8,,,,42,0
100767,note_on,,,,,160,0,8,,,,,7,,,,55,0
100768,note_on,,,,,160,0,5,,,,,4,,,,82,0
100773,note_on,,,,,160,0,6,,,,,5,,,,74,0
100774,note_on,,,,,160,0,9,,,,,8,,,,43,0
100799,note_on,,,,,32,0,8,,,,,7,,,,51,45
100800,note_on,,,,,32,0,5,,,,,4,,,,79,45
100805,note_on,,,,,32,0,6,,,,,5,,,,75,45
100806,note_on,,,,,32,0,9,,,,,8,,,,39,45
100941,note_on,,,,,336,0,7,,,,,6,,,,70,0
100941,note_on,,,,,0,0,7,,,,,6,,,,67,45
100944,note_on,,,,,144,0,5,,,,,4,,,,79,0
100944,note_on,,,,,0,0,5,,,,,4,,,,75,45
100949,note_on,,,,,0,0,6,,,,,5,,,,72,45
100949,note_on,,,,,144,0,6,,,,,5,,,,75,0
100959,note_on,,,,,160,0,8,,,,,7,,,,51,0
100966,note_on,,,,,160,0,9,,,,,8,,,,39,0
100987,note_on,,,,,46,0,7,,,,,6,,,,67,0
100989,note_on,,,,,2,0,7,,,,,6,,,,65,45
100990,note_on,,,,,46,0,5,,,,,4,,,,75,0
100991,note_on,,,,,32,0,8,,,,,7,,,,53,45
100992,note_on,,,,,2,0,5,,,,,4,,,,74,45
100995,note_on,,,,,46,0,6,,,,,5,,,,72,0
100997,note_on,,,,,2,0,6,,,,,5,,,,70,45
100998,note_on,,,,,32,0,9,,,,,8,,,,41,45
101151,note_on,,,,,160,0,8,,,,,7,,,,53,0
101158,note_on,,,,,160,0,9,,,,,8,,,,41,0
101181,note_on,,,,,192,0,7,,,,,6,,,,65,0
101181,note_on,,,,,0,0,7,,,,,6,,,,63,45
101183,note_on,,,,,32,0,8,,,,,7,,,,53,45
101184,note_on,,,,,0,0,5,,,,,4,,,,72,45
101184,note_on,,,,,192,0,5,,,,,4,,,,74,0
101189,note_on,,,,,0,0,6,,,,,5,,,,69,45
101189,note_on,,,,,192,0,6,,,,,5,,,,70,0
101190,note_on,,,,,32,0,9,,,,,8,,,,41,45
101341,note_on,,,,,160,0,7,,,,,6,,,,63,0
101343,note_on,,,,,160,0,8,,,,,7,,,,53,0
101344,note_on,,,,,160,0,5,,,,,4,,,,72,0
101349,note_on,,,,,160,0,6,,,,,5,,,,69,0
101350,note_on,,,,,160,0,9,,,,,8,,,,41,0
101373,note_on,,,,,32,0,7,,,,,6,,,,62,45
101375,note_on,,,,,32,0,8,,,,,7,,,,46,45
101376,note_on,,,,,32,0,5,,,,,4,,,,70,45
101381,note_on,,,,,32,0,6,,,,,5,,,,70,45
101382,note_on,,,,,32,0,9,,,,,8,,,,34,45
101533,note_on,,,,,160,0,7,,,,,6,,,,62,0
101535,note_on,,,,,160,0,8,,,,,7,,,,46,0
101536,note_on,,,,,160,0,5,,,,,4,,,,70,0
101541,note_on,,,,,160,0,6,,,,,5,,,,70,0
101542,note_on,,,,,160,0,9,,,,,8,,,,34,0
101567,note_on,,,,,32,0,8,,,,,7,,,,58,92
101568,set_tempo,,,,,4224,1,0,,400000,,,,,,,,
101574,note_on,,,,,32,0,9,,,,,8,,,,46,92
101615,note_on,,,,,0,0,8,,,,,7,,,,56,92
101615,note_on,,,,,48,0,8,,,,,7,,,,58,0
101622,note_on,,,,,0,0,9,,,,,8,,,,44,92
101622,note_on,,,,,48,0,9,,,,,8,,,,46,0
101662,note_on,,,,,2352,0,1,,,,,0,,,,70,92
101662,note_on,,,,,0,0,1,,,,,0,,,,74,92
101663,note_on,,,,,48,0,8,,,,,7,,,,56,0
101663,note_on,,,,,0,0,8,,,,,7,,,,58,92
101664,note_on,,,,,128,0,5,,,,,4,,,,86,92
101669,note_on,,,,,128,0,6,,,,,5,,,,82,92
101670,note_on,,,,,0,0,9,,,,,8,,,,46,92
101670,note_on,,,,,48,0,9,,,,,8,,,,44,0
101694,note_on,,,,,0,0,1,,,,,0,,,,70,0
101694,note_on,,,,,32,0,1,,,,,0,,,,74,0
101695,note_on,,,,,32,0,8,,,,,7,,,,58,0
101695,note_on,,,,,0,0,8,,,,,7,,,,56,92
101696,note_on,,,,,32,0,5,,,,,4,,,,86,0
101701,note_on,,,,,32,0,6,,,,,5,,,,82,0
101702,note_on,,,,,0,0,9,,,,,8,,,,44,92
101702,note_on,,,,,32,0,9,,,,,8,,,,46,0
101727,note_on,,,,,32,0,8,,,,,7,,,,56,0
101727,note_on,,,,,0,0,8,,,,,7,,,,58,92
101734,note_on,,,,,0,0,9,,,,,8,,,,46,92
101734,note_on,,,,,32,0,9,,,,,8,,,,44,0
101758,note_on,,,,,64,0,1,,,,,0,,,,70,92
101758,note_on,,,,,0,0,1,,,,,0,,,,74,92
101759,note_on,,,,,0,0,8,,,,,7,,,,56,92
101759,note_on,,,,,32,0,8,,,,,7,,,,58,0
101760,note_on,,,,,64,0,5,,,,,4,,,,86,92
101765,note_on,,,,,64,0,6,,,,,5,,,,82,92
101766,note_on,,,,,32,0,9,,,,,8,,,,46,0
101766,note_on,,,,,0,0,9,,,,,8,,,,44,92
101790,note_on,,,,,32,0,1,,,,,0,,,,74,0
101790,note_on,,,,,0,0,1,,,,,0,,,,70,0
101791,note_on,,,,,0,0,8,,,,,7,,,,58,92
101791,note_on,,,,,32,0,8,,,,,7,,,,56,0
101792,note_on,,,,,32,0,5,,,,,4,,,,86,0
101797,note_on,,,,,32,0,6,,,,,5,,,,82,0
101798,note_on,,,,,0,0,9,,,,,8,,,,46,92
101798,note_on,,,,,32,0,9,,,,,8,,,,44,0
101823,note_on,,,,,32,0,8,,,,,7,,,,58,0
101823,note_on,,,,,0,0,8,,,,,7,,,,56,92
101830,note_on,,,,,32,0,9,,,,,8,,,,46,0
101830,note_on,,,,,0,0,9,,,,,8,,,,44,92
101854,note_on,,,,,64,0,1,,,,,0,,,,70,92
101854,note_on,,,,,0,0,1,,,,,0,,,,74,92
101855,note_on,,,,,0,0,8,,,,,7,,,,55,92
101855,note_on,,,,,32,0,8,,,,,7,,,,56,0
101856,note_on,,,,,64,0,5,,,,,4,,,,86,92
101861,note_on,,,,,64,0,6,,,,,5,,,,82,92
101862,note_on,,,,,32,0,9,,,,,8,,,,44,0
101862,note_on,,,,,0,0,9,,,,,8,,,,43,92
101886,note_on,,,,,32,0,1,,,,,0,,,,74,0
101886,note_on,,,,,0,0,1,,,,,0,,,,70,0
101888,note_on,,,,,32,0,5,,,,,4,,,,86,0
101893,note_on,,,,,32,0,6,,,,,5,,,,82,0
101903,note_on,,,,,0,0,8,,,,,7,,,,53,92
101903,note_on,,,,,48,0,8,,,,,7,,,,55,0
101910,note_on,,,,,48,0,9,,,,,8,,,,43,0
101910,note_on,,,,,0,0,9,,,,,8,,,,41,92
101949,note_on,,,,,46,0,8,,,,,7,,,,53,0
101949,note_on,,,,,416,0,7,,,,,6,,,,74,92
101950,note_on,,,,,64,0,1,,,,,0,,,,70,92
101950,note_on,,,,,0,0,1,,,,,0,,,,74,92
101951,note_on,,,,,2,0,8,,,,,7,,,,54,92
101952,note_on,,,,,64,0,5,,,,,4,,,,86,92
101956,note_on,,,,,46,0,9,,,,,8,,,,41,0
101957,note_on,,,,,64,0,6,,,,,5,,,,82,92
101958,note_on,,,,,2,0,9,,,,,8,,,,42,92
102046,note_on,,,,,0,0,1,,,,,0,,,,72,92
102046,note_on,,,,,0,0,1,,,,,0,,,,70,0
102046,note_on,,,,,0,0,1,,,,,0,,,,69,92
102046,note_on,,,,,96,0,1,,,,,0,,,,74,0
102048,note_on,,,,,0,0,5,,,,,4,,,,84,92
102048,note_on,,,,,96,0,5,,,,,4,,,,86,0
102053,note_on,,,,,0,0,6,,,,,5,,,,81,92
102053,note_on,,,,,96,0,6,,,,,5,,,,82,0
102111,note_on,,,,,160,0,8,,,,,7,,,,54,0
102118,note_on,,,,,160,0,9,,,,,8,,,,42,0
102142,note_on,,,,,94,0,5,,,,,4,,,,84,0
102142,note_on,,,,,96,0,1,,,,,0,,,,72,0
102142,note_on,,,,,0,0,1,,,,,0,,,,70,92
102142,note_on,,,,,0,0,1,,,,,0,,,,67,92
102142,note_on,,,,,0,0,1,,,,,0,,,,69,0
102143,note_on,,,,,32,0,8,,,,,7,,,,57,92
102144,note_on,,,,,2,0,5,,,,,4,,,,82,92
102147,note_on,,,,,94,0,6,,,,,5,,,,81,0
102149,note_on,,,,,2,0,6,,,,,5,,,,79,92
102150,note_on,,,,,32,0,9,,,,,8,,,,45,92
102176,note_on,,,,,32,0,5,,,,,4,,,,82,0
102181,note_on,,,,,32,0,6,,,,,5,,,,79,0
102191,note_on,,,,,48,0,8,,,,,7,,,,57,0
102191,note_on,,,,,0,0,8,,,,,7,,,,55,92
102198,note_on,,,,,48,0,9,,,,,8,,,,45,0
102198,note_on,,,,,0,0,9,,,,,8,,,,43,92
102236,note_on,,,,,94,0,1,,,,,0,,,,70,0
102236,note_on,,,,,0,0,1,,,,,0,,,,67,0
102238,note_on,,,,,0,0,1,,,,,0,,,,70,92
102238,note_on,,,,,2,0,1,,,,,0,,,,67,92
102239,note_on,,,,,48,0,8,,,,,7,,,,55,0
102239,note_on,,,,,0,0,8,,,,,7,,,,57,92
102240,note_on,,,,,64,0,5,,,,,4,,,,82,92
102245,note_on,,,,,64,0,6,,,,,5,,,,79,92
102246,note_on,,,,,0,0,9,,,,,8,,,,45,92
102246,note_on,,,,,48,0,9,,,,,8,,,,43,0
102270,note_on,,,,,32,0,1,,,,,0,,,,70,0
102270,note_on,,,,,0,0,1,,,,,0,,,,67,0
102271,note_on,,,,,32,0,8,,,,,7,,,,57,0
102271,note_on,,,,,0,0,8,,,,,7,,,,55,92
102272,note_on,,,,,32,0,5,,,,,4,,,,82,0
102277,note_on,,,,,32,0,6,,,,,5,,,,79,0
102278,note_on,,,,,0,0,9,,,,,8,,,,43,92
102278,note_on,,,,,32,0,9,,,,,8,,,,45,0
102285,note_on,,,,,336,0,7,,,,,6,,,,74,0
102303,note_on,,,,,0,0,8,,,,,7,,,,57,92
102303,note_on,,,,,32,0,8,,,,,7,,,,55,0
102310,note_on,,,,,32,0,9,,,,,8,,,,43,0
102310,note_on,,,,,0,0,9,,,,,8,,,,45,92
102334,note_on,,,,,0,0,1,,,,,0,,,,70,92
102334,note_on,,,,,64,0,1,,,,,0,,,,67,92
102335,note_on,,,,,0,0,8,,,,,7,,,,55,92
102335,note_on,,,,,32,0,8,,,,,7,,,,57,0
102336,note_on,,,,,64,0,5,,,,,4,,,,82,92
102341,note_on,,,,,64,0,6,,,,,5,,,,79,92
102342,note_on,,,,,0,0,9,,,,,8,,,,43,92
102342,note_on,,,,,32,0,9,,,,,8,,,,45,0
102366,note_on,,,,,0,0,1,,,,,0,,,,67,0
102366,note_on,,,,,32,0,1,,,,,0,,,,70,0
102367,note_on,,,,,32,0,8,,,,,7,,,,55,0
102367,note_on,,,,,0,0,8,,,,,7,,,,57,92
102368,note_on,,,,,32,0,5,,,,,4,,,,82,0
102373,note_on,,,,,32,0,6,,,,,5,,,,79,0
102374,note_on,,,,,32,0,9,,,,,8,,,,43,0
102374,note_on,,,,,0,0,9,,,,,8,,,,45,92
102399,note_on,,,,,32,0,8,,,,,7,,,,57,0
102399,note_on,,,,,0,0,8,,,,,7,,,,55,92
102406,note_on,,,,,32,0,9,,,,,8,,,,45,0
102406,note_on,,,,,0,0,9,,,,,8,,,,43,92
102430,note_on,,,,,64,0,1,,,,,0,,,,67,92
102430,note_on,,,,,0,0,1,,,,,0,,,,70,92
102431,note_on,,,,,0,0,8,,,,,7,,,,53,92
102431,note_on,,,,,32,0,8,,,,,7,,,,55,0
102432,note_on,,,,,64,0,5,,,,,4,,,,82,92
102437,note_on,,,,,64,0,6,,,,,5,,,,79,92
102438,note_on,,,,,0,0,9,,,,,8,,,,41,92
102438,note_on,,,,,32,0,9,,,,,8,,,,43,0
102462,note_on,,,,,0,0,1,,,,,0,,,,67,0
102462,note_on,,,,,32,0,1,,,,,0,,,,70,0
102464,note_on,,,,,32,0,5,,,,,4,,,,82,0
102469,note_on,,,,,32,0,6,,,,,5,,,,79,0
102479,note_on,,,,,48,0,8,,,,,7,,,,53,0
102479,note_on,,,,,0,0,8,,,,,7,,,,51,92
102486,note_on,,,,,0,0,9,,,,,8,,,,39,92
102486,note_on,,,,,48,0,9,,,,,8,,,,41,0
102525,note_on,,,,,240,0,7,,,,,6,,,,70,92
102525,note_on,,,,,46,0,8,,,,,7,,,,51,0
102526,note_on,,,,,64,0,1,,,,,0,,,,67,92
102526,note_on,,,,,0,0,1,,,,,0,,,,70,92
102527,note_on,,,,,2,0,8,,,,,7,,,,50,92
102528,note_on,,,,,64,0,5,,,,,4,,,,82,92
102532,note_on,,,,,46,0,9,,,,,8,,,,39,0
102533,note_on,,,,,64,0,6,,,,,5,,,,79,92
102534,note_on,,,,,2,0,9,,,,,8,,,,38,92
102622,note_on,,,,,0,0,1,,,,,0,,,,68,92
102622,note_on,,,,,0,0,1,,,,,0,,,,67,0
102622,note_on,,,,,96,0,1,,,,,0,,,,70,0
102622,note_on,,,,,0,0,1,,,,,0,,,,65,92
102624,note_on,,,,,96,0,5,,,,,4,,,,82,0
102624,note_on,,,,,0,0,5,,,,,4,,,,80,92
102629,note_on,,,,,96,0,6,,,,,5,,,,79,0
102629,note_on,,,,,0,0,6,,,,,5,,,,77,92
102687,note_on,,,,,160,0,8,,,,,7,,,,50,0
102694,note_on,,,,,160,0,9,,,,,8,,,,38,0
102718,note_on,,,,,0,0,1,,,,,0,,,,63,92
102718,note_on,,,,,0,0,1,,,,,0,,,,65,0
102718,note_on,,,,,96,0,1,,,,,0,,,,68,0
102718,note_on,,,,,94,0,5,,,,,4,,,,80,0
102718,note_on,,,,,0,0,1,,,,,0,,,,67,92
102719,note_on,,,,,32,0,8,,,,,7,,,,65,92
102720,note_on,,,,,2,0,5,,,,,4,,,,79,92
102723,note_on,,,,,94,0,6,,,,,5,,,,77,0
102725,note_on,,,,,2,0,6,,,,,5,,,,75,92
102726,note_on,,,,,32,0,9,,,,,8,,,,53,92
102752,note_on,,,,,32,0,5,,,,,4,,,,79,0
102757,note_on,,,,,32,0,6,,,,,5,,,,75,0
102767,note_on,,,,,48,0,8,,,,,7,,,,65,0
102767,note_on,,,,,0,0,8,,,,,7,,,,63,92
102774,note_on,,,,,48,0,9,,,,,8,,,,53,0
102774,note_on,,,,,0,0,9,,,,,8,,,,51,92
102812,note_on,,,,,0,0,1,,,,,0,,,,63,0
102812,note_on,,,,,94,0,1,,,,,0,,,,67,0
102814,note_on,,,,,2,0,1,,,,,0,,,,75,92
102814,note_on,,,,,0,0,1,,,,,0,,,,79,92
102815,note_on,,,,,48,0,8,,,,,7,,,,63,0
102815,note_on,,,,,0,0,8,,,,,7,,,,65,92
102816,note_on,,,,,64,0,5,,,,,4,,,,79,92
102821,note_on,,,,,64,0,6,,,,,5,,,,75,92
102822,note_on,,,,,0,0,9,,,,,8,,,,53,92
102822,note_on,,,,,48,0,9,,,,,8,,,,51,0
102846,note_on,,,,,0,0,1,,,,,0,,,,75,0
102846,note_on,,,,,32,0,1,,,,,0,,,,79,0
102847,note_on,,,,,32,0,8,,,,,7,,,,65,0
102847,note_on,,,,,0,0,8,,,,,7,,,,63,92
102848,note_on,,,,,32,0,5,,,,,4,,,,79,0
102853,note_on,,,,,32,0,6,,,,,5,,,,75,0
102854,note_on,,,,,0,0,9,,,,,8,,,,51,92
102854,note_on,,,,,32,0,9,,,,,8,,,,53,0
102861,note_on,,,,,336,0,7,,,,,6,,,,70,0
102879,note_on,,,,,32,0,8,,,,,7,,,,63,0
102879,note_on,,,,,0,0,8,,,,,7,,,,65,92
102886,note_on,,,,,32,0,9,,,,,8,,,,51,0
102886,note_on,,,,,0,0,9,,,,,8,,,,53,92
102910,note_on,,,,,0,0,1,,,,,0,,,,79,92
102910,note_on,,,,,64,0,1,,,,,0,,,,75,92
102911,note_on,,,,,0,0,8,,,,,7,,,,63,92
102911,note_on,,,,,32,0,8,,,,,7,,,,65,0
102912,note_on,,,,,64,0,5,,,,,4,,,,79,92
102917,note_on,,,,,64,0,6,,,,,5,,,,75,92
102918,note_on,,,,,0,0,9,,,,,8,,,,51,92
102918,note_on,,,,,32,0,9,,,,,8,,,,53,0
102942,note_on,,,,,32,0,1,,,,,0,,,,79,0
102942,note_on,,,,,0,0,1,,,,,0,,,,75,0
102943,note_on,,,,,0,0,8,,,,,7,,,,65,92
102943,note_on,,,,,32,0,8,,,,,7,,,,63,0
102944,note_on,,,,,32,0,5,,,,,4,,,,79,0
102949,note_on,,,,,32,0,6,,,,,5,,,,75,0
102950,note_on,,,,,32,0,9,,,,,8,,,,51,0
102950,note_on,,,,,0,0,9,,,,,8,,,,53,92
102975,note_on,,,,,32,0,8,,,,,7,,,,65,0
102975,note_on,,,,,0,0,8,,,,,7,,,,63,92
102982,note_on,,,,,32,0,9,,,,,8,,,,53,0
102982,note_on,,,,,0,0,9,,,,,8,,,,51,92
103006,note_on,,,,,0,0,1,,,,,0,,,,79,92
103006,note_on,,,,,64,0,1,,,,,0,,,,75,92
103007,note_on,,,,,0,0,8,,,,,7,,,,62,92
103007,note_on,,,,,32,0,8,,,,,7,,,,63,0
103008,note_on,,,,,64,0,5,,,,,4,,,,79,92
103013,note_on,,,,,64,0,6,,,,,5,,,,75,92
103014,note_on,,,,,0,0,9,,,,,8,,,,50,92
103014,note_on,,,,,32,0,9,,,,,8,,,,51,0
103038,note_on,,,,,0,0,1,,,,,0,,,,75,0
103038,note_on,,,,,32,0,1,,,,,0,,,,79,0
103040,note_on,,,,,32,0,5,,,,,4,,,,79,0
103045,note_on,,,,,32,0,6,,,,,5,,,,75,0
103055,note_on,,,,,0,0,8,,,,,7,,,,60,92
103055,note_on,,,,,48,0,8,,,,,7,,,,62,0
103062,note_on,,,,,48,0,9,,,,,8,,,,50,0
103062,note_on,,,,,0,0,9,,,,,8,,,,48,92
103101,note_on,,,,,240,0,7,,,,,6,,,,67,92
103101,note_on,,,,,46,0,8,,,,,7,,,,60,0
103102,note_on,,,,,0,0,1,,,,,0,,,,79,92
103102,note_on,,,,,64,0,1,,,,,0,,,,75,92
103103,note_on,,,,,2,0,8,,,,,7,,,,59,92
103104,note_on,,,,,64,0,5,,,,,4,,,,79,92
103108,note_on,,,,,46,0,9,,,,,8,,,,48,0
103109,note_on,,,,,64,0,6,,,,,5,,,,75,92
103110,note_on,,,,,2,0,9,,,,,8,,,,47,92
103198,note_on,,,,,96,0,1,,,,,0,,,,79,0
103198,note_on,,,,,0,0,1,,,,,0,,,,75,0
103198,note_on,,,,,0,0,1,,,,,0,,,,74,92
103198,note_on,,,,,0,0,1,,,,,0,,,,77,92
103200,note_on,,,,,0,0,5,,,,,4,,,,77,92
103200,note_on,,,,,96,0,5,,,,,4,,,,79,0
103205,note_on,,,,,0,0,6,,,,,5,,,,74,92
103205,note_on,,,,,96,0,6,,,,,5,,,,75,0
103294,note_on,,,,,94,0,5,,,,,4,,,,77,0
103294,note_on,,,,,0,0,1,,,,,0,,,,75,92
103294,note_on,,,,,0,0,1,,,,,0,,,,74,0
103294,note_on,,,,,96,0,1,,,,,0,,,,77,0
103294,note_on,,,,,0,0,1,,,,,0,,,,72,92
103295,note_on,,,,,192,0,8,,,,,7,,,,59,0
103295,note_on,,,,,0,0,8,,,,,7,,,,60,92
103296,note_on,,,,,2,0,5,,,,,4,,,,75,92
103299,note_on,,,,,94,0,6,,,,,5,,,,74,0
103301,note_on,,,,,2,0,6,,,,,5,,,,72,92
103302,note_on,,,,,192,0,9,,,,,8,,,,47,0
103302,note_on,,,,,0,0,9,,,,,8,,,,48,92
103328,note_on,,,,,32,0,5,,,,,4,,,,75,0
103333,note_on,,,,,32,0,6,,,,,5,,,,72,0
103357,note_on,,,,,256,0,7,,,,,6,,,,67,0
103388,note_on,,,,,94,0,1,,,,,0,,,,75,0
103388,note_on,,,,,0,0,1,,,,,0,,,,72,0
103389,note_on,,,,,94,0,8,,,,,7,,,,60,0
103389,note_on,,,,,32,0,7,,,,,6,,,,67,92
103390,note_on,,,,,0,0,1,,,,,0,,,,79,92
103390,note_on,,,,,2,0,1,,,,,0,,,,75,92
103391,note_on,,,,,2,0,8,,,,,7,,,,58,92
103392,note_on,,,,,64,0,5,,,,,4,,,,75,92
103396,note_on,,,,,94,0,9,,,,,8,,,,48,0
103397,note_on,,,,,64,0,6,,,,,5,,,,72,92
103398,note_on,,,,,2,0,9,,,,,8,,,,46,92
103423,note_on,,,,,32,0,8,,,,,7,,,,58,0
103424,note_on,,,,,32,0,5,,,,,4,,,,75,0
103429,note_on,,,,,32,0,6,,,,,5,,,,72,0
103430,note_on,,,,,32,0,9,,,,,8,,,,46,0
103483,note_on,,,,,94,0,7,,,,,6,,,,67,0
103484,note_on,,,,,0,0,1,,,,,0,,,,75,0
103484,note_on,,,,,94,0,1,,,,,0,,,,79,0
103485,note_on,,,,,2,0,7,,,,,6,,,,72,92
103486,note_on,,,,,2,0,1,,,,,0,,,,75,92
103486,note_on,,,,,0,0,1,,,,,0,,,,84,92
103487,note_on,,,,,64,0,8,,,,,7,,,,57,92
103488,note_on,,,,,64,0,5,,,,,4,,,,75,92
103493,note_on,,,,,64,0,6,,,,,5,,,,72,92
103494,note_on,,,,,64,0,9,,,,,8,,,,45,92
103519,note_on,,,,,32,0,8,,,,,7,,,,57,0
103520,note_on,,,,,32,0,5,,,,,4,,,,75,0
103525,note_on,,,,,32,0,6,,,,,5,,,,72,0
103526,note_on,,,,,32,0,9,,,,,8,,,,45,0
103579,note_on,,,,,94,0,7,,,,,6,,,,72,0
103580,note_on,,,,,94,0,1,,,,,0,,,,84,0
103580,note_on,,,,,0,0,1,,,,,0,,,,75,0
103581,note_on,,,,,2,0,7,,,,,6,,,,70,92
103582,note_on,,,,,2,0,1,,,,,0,,,,75,92
103582,note_on,,,,,0,0,1,,,,,0,,,,82,92
103583,note_on,,,,,64,0,8,,,,,7,,,,55,92
103584,note_on,,,,,64,0,5,,,,,4,,,,75,92
103589,note_on,,,,,64,0,6,,,,,5,,,,72,92
103590,note_on,,,,,64,0,9,,,,,8,,,,43,92
103615,note_on,,,,,32,0,8,,,,,7,,,,55,0
103616,note_on,,,,,32,0,5,,,,,4,,,,75,0
103621,note_on,,,,,32,0,6,,,,,5,,,,72,0
103622,note_on,,,,,32,0,9,,,,,8,,,,43,0
103675,note_on,,,,,94,0,7,,,,,6,,,,70,0
103676,note_on,,,,,94,0,1,,,,,0,,,,82,0
103676,note_on,,,,,0,0,1,,,,,0,,,,75,0
103677,note_on,,,,,2,0,7,,,,,6,,,,69,92
103678,note_on,,,,,2,0,1,,,,,0,,,,75,92
103678,note_on,,,,,0,0,1,,,,,0,,,,81,92
103679,note_on,,,,,64,0,8,,,,,7,,,,53,92
103680,note_on,,,,,64,0,5,,,,,4,,,,75,92
103682,note_on,,,,,4368,0,2,,,,,1,,,,65,92
103685,note_on,,,,,64,0,6,,,,,5,,,,72,92
103686,note_on,,,,,64,0,9,,,,,8,,,,41,92
103726,note_on,,,,,46,0,5,,,,,4,,,,75,0
103728,note_on,,,,,2,0,5,,,,,4,,,,74,92
103731,note_on,,,,,46,0,6,,,,,5,,,,72,0
103733,note_on,,,,,2,0,6,,,,,5,,,,70,92
103771,note_on,,,,,94,0,7,,,,,6,,,,69,0
103773,note_on,,,,,2,0,7,,,,,6,,,,63,92
103773,note_on,,,,,94,0,8,,,,,7,,,,53,0
103774,note_on,,,,,46,0,5,,,,,4,,,,74,0
103775,note_on,,,,,2,0,8,,,,,7,,,,53,92
103776,note_on,,,,,2,0,5,,,,,4,,,,72,92
103779,note_on,,,,,46,0,6,,,,,5,,,,70,0
103780,note_on,,,,,94,0,9,,,,,8,,,,41,0
103781,note_on,,,,,2,0,6,,,,,5,,,,69,92
103782,note_on,,,,,2,0,9,,,,,8,,,,41,92
103822,note_on,,,,,46,0,5,,,,,4,,,,72,0
103824,note_on,,,,,2,0,5,,,,,4,,,,74,92
103827,note_on,,,,,46,0,6,,,,,5,,,,69,0
103829,note_on,,,,,2,0,6,,,,,5,,,,70,92
103867,note_on,,,,,94,0,7,,,,,6,,,,63,0
103869,note_on,,,,,94,0,8,,,,,7,,,,53,0
103869,note_on,,,,,2,0,7,,,,,6,,,,60,92
103870,note_on,,,,,46,0,5,,,,,4,,,,74,0
103871,note_on,,,,,2,0,8,,,,,7,,,,53,92
103872,note_on,,,,,2,0,5,,,,,4,,,,75,92
103875,note_on,,,,,46,0,6,,,,,5,,,,70,0
103876,note_on,,,,,94,0,9,,,,,8,,,,41,0
103877,note_on,,,,,2,0,6,,,,,5,,,,69,92
103878,note_on,,,,,2,0,9,,,,,8,,,,41,92
103918,note_on,,,,,46,0,5,,,,,4,,,,75,0
103920,note_on,,,,,2,0,5,,,,,4,,,,77,92
103963,note_on,,,,,94,0,7,,,,,6,,,,60,0
103965,note_on,,,,,2,0,7,,,,,6,,,,72,92
103965,note_on,,,,,94,0,8,,,,,7,,,,53,0
103966,note_on,,,,,46,0,5,,,,,4,,,,77,0
103967,note_on,,,,,2,0,8,,,,,7,,,,53,92
103968,note_on,,,,,2,0,5,,,,,4,,,,79,92
103971,note_on,,,,,94,0,6,,,,,5,,,,69,0
103972,note_on,,,,,94,0,9,,,,,8,,,,41,0
103973,note_on,,,,,2,0,6,,,,,5,,,,75,92
103974,note_on,,,,,2,0,9,,,,,8,,,,41,92
104014,note_on,,,,,46,0,5,,,,,4,,,,79,0
104016,note_on,,,,,2,0,5,,,,,4,,,,81,92
104018,note_on,,,,,336,0,2,,,,,1,,,,65,0
104059,note_on,,,,,94,0,7,,,,,6,,,,72,0
104061,note_on,,,,,94,0,8,,,,,7,,,,53,0
104061,note_on,,,,,2,0,7,,,,,6,,,,70,92
104062,note_on,,,,,384,0,1,,,,,0,,,,81,0
104062,note_on,,,,,0,0,1,,,,,0,,,,74,92
104062,note_on,,,,,0,0,1,,,,,0,,,,75,0
104062,note_on,,,,,46,0,5,,,,,4,,,,81,0
104062,note_on,,,,,0,0,1,,,,,0,,,,82,92
104063,note_on,,,,,2,0,8,,,,,7,,,,55,92
104064,note_on,,,,,2,0,5,,,,,4,,,,82,92
104066,note_on,,,,,0,0,2,,,,,1,,,,67,92
104066,note_on,,,,,48,0,2,,,,,1,,,,58,92
104067,note_on,,,,,94,0,6,,,,,5,,,,75,0
104068,note_on,,,,,94,0,9,,,,,8,,,,41,0
104069,note_on,,,,,2,0,6,,,,,5,,,,74,92
104070,note_on,,,,,2,0,9,,,,,8,,,,43,92
104155,note_on,,,,,94,0,7,,,,,6,,,,70,0
104157,note_on,,,,,2,0,7,,,,,6,,,,70,92
104157,note_on,,,,,94,0,8,,,,,7,,,,55,0
104158,note_on,,,,,94,0,5,,,,,4,,,,82,0
104159,note_on,,,,,2,0,8,,,,,7,,,,50,92
104160,note_on,,,,,2,0,5,,,,,4,,,,77,92
104160,note_on,,,,,94,0,2,,,,,1,,,,67,0
104162,note_on,,,,,2,0,2,,,,,1,,,,65,92
104163,note_on,,,,,94,0,6,,,,,5,,,,74,0
104164,note_on,,,,,94,0,9,,,,,8,,,,43,0
104165,note_on,,,,,2,0,6,,,,,5,,,,77,92
104166,note_on,,,,,2,0,9,,,,,8,,,,38,92
104222,note_on,,,,,160,0,1,,,,,0,,,,82,0
104222,note_on,,,,,0,0,1,,,,,0,,,,74,0
104230,note_on,,,,,70,0,5,,,,,4,,,,77,0
104232,note_on,,,,,2,0,5,,,,,4,,,,81,92
104235,note_on,,,,,70,0,6,,,,,5,,,,77,0
104237,note_on,,,,,2,0,6,,,,,5,,,,77,92
104251,note_on,,,,,94,0,7,,,,,6,,,,70,0
104253,note_on,,,,,94,0,8,,,,,7,,,,50,0
104253,note_on,,,,,2,0,7,,,,,6,,,,70,92
104255,note_on,,,,,2,0,8,,,,,7,,,,51,92
104256,note_on,,,,,94,0,2,,,,,1,,,,65,0
104256,note_on,,,,,0,0,5,,,,,4,,,,79,92
104256,note_on,,,,,24,0,5,,,,,4,,,,81,0
104258,note_on,,,,,2,0,2,,,,,1,,,,67,92
104260,note_on,,,,,94,0,9,,,,,8,,,,38,0
104261,note_on,,,,,0,0,6,,,,,5,,,,75,92
104261,note_on,,,,,24,0,6,,,,,5,,,,77,0
104262,note_on,,,,,2,0,9,,,,,8,,,,39,92
104347,note_on,,,,,94,0,7,,,,,6,,,,70,0
104349,note_on,,,,,2,0,7,,,,,6,,,,67,92
104349,note_on,,,,,94,0,8,,,,,7,,,,51,0
104350,note_on,,,,,0,0,1,,,,,0,,,,75,92
104350,note_on,,,,,128,0,1,,,,,0,,,,72,92
104351,note_on,,,,,2,0,8,,,,,7,,,,51,92
104352,note_on,,,,,96,0,5,,,,,4,,,,79,0
104352,note_on,,,,,0,0,5,,,,,4,,,,77,92
104356,note_on,,,,,94,0,9,,,,,8,,,,39,0
104357,note_on,,,,,96,0,6,,,,,5,,,,75,0
104357,note_on,,,,,0,0,6,,,,,5,,,,74,92
104358,note_on,,,,,2,0,9,,,,,8,,,,39,92
104400,note_on,,,,,0,0,5,,,,,4,,,,75,92
104400,note_on,,,,,48,0,5,,,,,4,,,,77,0
104405,note_on,,,,,0,0,6,,,,,5,,,,72,92
104405,note_on,,,,,48,0,6,,,,,5,,,,74,0
104418,note_on,,,,,0,0,2,,,,,1,,,,58,0
104418,note_on,,,,,160,0,2,,,,,1,,,,67,0
104443,note_on,,,,,94,0,7,,,,,6,,,,67,0
104444,note_on,,,,,0,0,1,,,,,0,,,,72,0
104444,note_on,,,,,94,0,1,,,,,0,,,,75,0
104445,note_on,,,,,2,0,7,,,,,6,,,,65,92
104445,note_on,,,,,94,0,8,,,,,7,,,,51,0
104446,note_on,,,,,46,0,5,,,,,4,,,,75,0
104446,note_on,,,,,2,0,1,,,,,0,,,,70,92
104446,note_on,,,,,0,0,1,,,,,0,,,,74,92
104447,note_on,,,,,2,0,8,,,,,7,,,,53,92
104448,note_on,,,,,2,0,5,,,,,4,,,,74,92
104450,note_on,,,,,32,0,2,,,,,1,,,,65,92
104451,note_on,,,,,46,0,6,,,,,5,,,,72,0
104452,note_on,,,,,94,0,9,,,,,8,,,,39,0
104453,note_on,,,,,2,0,6,,,,,5,,,,70,92
104454,note_on,,,,,2,0,9,,,,,8,,,,41,92
104539,note_on,,,,,94,0,7,,,,,6,,,,65,0
104541,note_on,,,,,94,0,8,,,,,7,,,,53,0
104541,note_on,,,,,2,0,7,,,,,6,,,,65,92
104543,note_on,,,,,2,0,8,,,,,7,,,,53,92
104548,note_on,,,,,94,0,9,,,,,8,,,,41,0
104550,note_on,,,,,2,0,9,,,,,8,,,,41,92
104606,note_on,,,,,0,0,1,,,,,0,,,,70,0
104606,note_on,,,,,160,0,1,,,,,0,,,,74,0
104608,note_on,,,,,160,0,5,,,,,4,,,,74,0
104610,note_on,,,,,160,0,2,,,,,1,,,,65,0
104613,note_on,,,,,160,0,6,,,,,5,,,,70,0
104635,note_on,,,,,94,0,7,,,,,6,,,,65,0
104637,note_on,,,,,2,0,7,,,,,6,,,,65,92
104637,note_on,,,,,94,0,8,,,,,7,,,,53,0
104638,note_on,,,,,0,0,1,,,,,0,,,,72,92
104638,note_on,,,,,32,0,1,,,,,0,,,,69,92
104639,note_on,,,,,2,0,8,,,,,7,,,,41,92
104640,note_on,,,,,32,0,5,,,,,4,,,,74,92
104642,note_on,,,,,32,0,2,,,,,1,,,,65,92
104644,note_on,,,,,94,0,9,,,,,8,,,,41,0
104645,note_on,,,,,0,0,6,,,,,5,,,,69,92
104645,note_on,,,,,32,0,6,,,,,5,,,,63,92
104646,note_on,,,,,2,0,9,,,,,8,,,,29,92
104672,note_on,,,,,0,0,5,,,,,4,,,,72,92
104672,note_on,,,,,32,0,5,,,,,4,,,,74,0
104704,note_on,,,,,32,0,5,,,,,4,,,,72,0
104704,note_on,,,,,0,0,5,,,,,4,,,,74,92
104731,note_on,,,,,94,0,7,,,,,6,,,,65,0
104733,note_on,,,,,2,0,7,,,,,6,,,,65,92
104733,note_on,,,,,94,0,8,,,,,7,,,,41,0
104735,note_on,,,,,2,0,8,,,,,7,,,,41,92
104736,note_on,,,,,0,0,5,,,,,4,,,,70,92
104736,note_on,,,,,32,0,5,,,,,4,,,,74,0
104740,note_on,,,,,94,0,9,,,,,8,,,,29,0
104742,note_on,,,,,2,0,9,,,,,8,,,,29,92
104784,note_on,,,,,48,0,5,,,,,4,,,,70,0
104784,note_on,,,,,0,0,5,,,,,4,,,,72,92
104798,note_on,,,,,0,0,1,,,,,0,,,,69,0
104798,note_on,,,,,160,0,1,,,,,0,,,,72,0
104802,note_on,,,,,160,0,2,,,,,1,,,,65,0
104805,note_on,,,,,0,0,6,,,,,5,,,,63,0
104805,note_on,,,,,160,0,6,,,,,5,,,,69,0
104827,note_on,,,,,94,0,7,,,,,6,,,,65,0
104829,note_on,,,,,2,0,7,,,,,6,,,,65,92
104829,note_on,,,,,94,0,8,,,,,7,,,,41,0
104830,note_on,,,,,32,0,1,,,,,0,,,,70,92
104830,note_on,,,,,46,0,5,,,,,4,,,,72,0
104831,note_on,,,,,2,0,8,,,,,7,,,,46,92
104832,note_on,,,,,2,0,5,,,,,4,,,,70,92
104834,note_on,,,,,32,0,2,,,,,1,,,,58,92
104834,note_on,,,,,0,0,2,,,,,1,,,,65,92
104836,note_on,,,,,94,0,9,,,,,8,,,,29,0
104837,note_on,,,,,32,0,6,,,,,5,,,,62,92
104837,note_on,,,,,0,0,6,,,,,5,,,,70,92
104838,note_on,,,,,2,0,9,,,,,8,,,,34,92
104989,note_on,,,,,160,0,7,,,,,6,,,,65,0
104990,note_on,,,,,160,0,1,,,,,0,,,,70,0
104991,note_on,,,,,160,0,8,,,,,7,,,,46,0
104992,note_on,,,,,160,0,5,,,,,4,,,,70,0
104994,note_on,,,,,160,0,2,,,,,1,,,,65,0
104994,note_on,,,,,0,0,2,,,,,1,,,,58,0
104997,note_on,,,,,160,0,6,,,,,5,,,,70,0
104997,note_on,,,,,0,0,6,,,,,5,,,,62,0
104998,note_on,,,,,160,0,9,,,,,8,,,,34,0
105020,note_on,,,,,7488,0,3,,,,,2,,,,84,92
105068,note_on,,,,,48,0,3,,,,,2,,,,84,0
105068,note_on,,,,,0,0,3,,,,,2,,,,82,92
105116,note_on,,,,,0,0,3,,,,,2,,,,84,92
105116,note_on,,,,,48,0,3,,,,,2,,,,82,0
105124,note_on,,,,,7616,0,4,,,,,3,,,,70,75
105124,note_on,,,,,0,0,4,,,,,3,,,,74,75
105148,note_on,,,,,32,0,3,,,,,2,,,,84,0
105148,note_on,,,,,0,0,3,,,,,2,,,,82,92
105180,note_on,,,,,32,0,3,,,,,2,,,,82,0
105180,note_on,,,,,0,0,3,,,,,2,,,,84,92
105212,note_on,,,,,32,0,3,,,,,2,,,,84,0
105212,note_on,,,,,0,0,3,,,,,2,,,,82,92
105218,note_on,,,,,94,0,4,,,,,3,,,,74,0
105218,note_on,,,,,0,0,4,,,,,3,,,,70,0
105220,note_on,,,,,2,0,4,,,,,3,,,,70,75
105220,note_on,,,,,0,0,4,,,,,3,,,,74,75
105244,note_on,,,,,32,0,3,,,,,2,,,,82,0
105244,note_on,,,,,0,0,3,,,,,2,,,,84,92
105276,note_on,,,,,0,0,3,,,,,2,,,,82,92
105276,note_on,,,,,32,0,3,,,,,2,,,,84,0
105308,note_on,,,,,0,0,3,,,,,2,,,,81,75
105308,note_on,,,,,32,0,3,,,,,2,,,,82,0
105314,note_on,,,,,94,0,4,,,,,3,,,,74,0
105314,note_on,,,,,0,0,4,,,,,3,,,,70,0
105316,note_on,,,,,2,0,4,,,,,3,,,,70,75
105316,note_on,,,,,0,0,4,,,,,3,,,,74,75
105356,note_on,,,,,0,0,3,,,,,2,,,,79,75
105356,note_on,,,,,48,0,3,,,,,2,,,,81,0
105402,note_on,,,,,46,0,3,,,,,2,,,,79,0
105404,note_on,,,,,2,0,3,,,,,2,,,,78,75
105408,set_tempo,,,,,3840,1,0,,413793,,,,,,,,
105410,note_on,,,,,94,0,4,,,,,3,,,,74,0
105410,note_on,,,,,0,0,4,,,,,3,,,,70,0
105412,note_on,,,,,0,0,4,,,,,3,,,,74,75
105412,note_on,,,,,2,0,4,,,,,3,,,,70,75
105508,note_on,,,,,0,0,4,,,,,3,,,,69,75
105508,note_on,,,,,0,0,4,,,,,3,,,,72,75
105508,note_on,,,,,96,0,4,,,,,3,,,,74,0
105508,note_on,,,,,0,0,4,,,,,3,,,,70,0
105564,note_on,,,,,160,0,3,,,,,2,,,,78,0
105596,note_on,,,,,32,0,3,,,,,2,,,,80,92
105602,note_on,,,,,94,0,4,,,,,3,,,,72,0
105602,note_on,,,,,0,0,4,,,,,3,,,,69,0
105604,note_on,,,,,2,0,4,,,,,3,,,,67,75
105604,note_on,,,,,0,0,4,,,,,3,,,,70,75
105644,note_on,,,,,0,0,3,,,,,2,,,,79,92
105644,note_on,,,,,48,0,3,,,,,2,,,,80,0
105692,note_on,,,,,48,0,3,,,,,2,,,,79,0
105692,note_on,,,,,0,0,3,,,,,2,,,,80,92
105698,note_on,,,,,94,0,4,,,,,3,,,,70,0
105698,note_on,,,,,0,0,4,,,,,3,,,,67,0
105700,note_on,,,,,2,0,4,,,,,3,,,,67,75
105700,note_on,,,,,0,0,4,,,,,3,,,,70,75
105724,note_on,,,,,32,0,3,,,,,2,,,,80,0
105724,note_on,,,,,0,0,3,,,,,2,,,,79,92
105756,note_on,,,,,32,0,3,,,,,2,,,,79,0
105756,note_on,,,,,0,0,3,,,,,2,,,,80,92
105788,note_on,,,,,32,0,3,,,,,2,,,,80,0
105788,note_on,,,,,0,0,3,,,,,2,,,,79,92
105794,note_on,,,,,0,0,4,,,,,3,,,,67,0
105794,note_on,,,,,94,0,4,,,,,3,,,,70,0
105796,note_on,,,,,2,0,4,,,,,3,,,,67,75
105796,note_on,,,,,0,0,4,,,,,3,,,,70,75
105820,note_on,,,,,32,0,3,,,,,2,,,,79,0
105820,note_on,,,,,0,0,3,,,,,2,,,,80,92
105852,note_on,,,,,32,0,3,,,,,2,,,,80,0
105852,note_on,,,,,0,0,3,,,,,2,,,,79,92
105884,note_on,,,,,0,0,3,,,,,2,,,,77,75
105884,note_on,,,,,32,0,3,,,,,2,,,,79,0
105890,note_on,,,,,0,0,4,,,,,3,,,,67,0
105890,note_on,,,,,94,0,4,,,,,3,,,,70,0
105892,note_on,,,,,0,0,4,,,,,3,,,,70,75
105892,note_on,,,,,2,0,4,,,,,3,,,,67,75
105932,note_on,,,,,0,0,3,,,,,2,,,,75,75
105932,note_on,,,,,48,0,3,,,,,2,,,,77,0
105978,note_on,,,,,46,0,3,,,,,2,,,,75,0
105980,note_on,,,,,2,0,3,,,,,2,,,,74,75
105984,set_tempo,,,,,576,1,0,,428571,,,,,,,,
105986,note_on,,,,,94,0,4,,,,,3,,,,70,0
105986,note_on,,,,,0,0,4,,,,,3,,,,67,0
105988,note_on,,,,,2,0,4,,,,,3,,,,67,75
105988,note_on,,,,,0,0,4,,,,,3,,,,70,75
106084,note_on,,,,,0,0,4,,,,,3,,,,67,0
106084,note_on,,,,,0,0,4,,,,,3,,,,68,75
106084,note_on,,,,,0,0,4,,,,,3,,,,65,75
106084,note_on,,,,,96,0,4,,,,,3,,,,70,0
106140,note_on,,,,,160,0,3,,,,,2,,,,74,0
106172,note_on,,,,,32,0,3,,,,,2,,,,77,92
106178,note_on,,,,,0,0,4,,,,,3,,,,65,0
106178,note_on,,,,,94,0,4,,,,,3,,,,68,0
106180,note_on,,,,,0,0,4,,,,,3,,,,67,75
106180,note_on,,,,,2,0,4,,,,,3,,,,63,75
106220,note_on,,,,,48,0,3,,,,,2,,,,77,0
106220,note_on,,,,,0,0,3,,,,,2,,,,75,92
106268,note_on,,,,,48,0,3,,,,,2,,,,75,0
106268,note_on,,,,,0,0,3,,,,,2,,,,77,92
106274,note_on,,,,,94,0,4,,,,,3,,,,67,0
106274,note_on,,,,,0,0,4,,,,,3,,,,63,0
106276,note_on,,,,,0,0,4,,,,,3,,,,67,75
106276,note_on,,,,,2,0,4,,,,,3,,,,63,75
106300,note_on,,,,,32,0,3,,,,,2,,,,77,0
106300,note_on,,,,,0,0,3,,,,,2,,,,75,92
106332,note_on,,,,,32,0,3,,,,,2,,,,75,0
106332,note_on,,,,,0,0,3,,,,,2,,,,77,92
106364,note_on,,,,,32,0,3,,,,,2,,,,77,0
106364,note_on,,,,,0,0,3,,,,,2,,,,75,92
106370,note_on,,,,,0,0,4,,,,,3,,,,63,0
106370,note_on,,,,,94,0,4,,,,,3,,,,67,0
106372,note_on,,,,,0,0,4,,,,,3,,,,67,75
106372,note_on,,,,,2,0,4,,,,,3,,,,63,75
106396,note_on,,,,,0,0,3,,,,,2,,,,77,92
106396,note_on,,,,,32,0,3,,,,,2,,,,75,0
106428,note_on,,,,,0,0,3,,,,,2,,,,75,92
106428,note_on,,,,,32,0,3,,,,,2,,,,77,0
106460,note_on,,,,,0,0,3,,,,,2,,,,74,75
106460,note_on,,,,,32,0,3,,,,,2,,,,75,0
106466,note_on,,,,,0,0,4,,,,,3,,,,63,0
106466,note_on,,,,,94,0,4,,,,,3,,,,67,0
106468,note_on,,,,,0,0,4,,,,,3,,,,67,75
106468,note_on,,,,,2,0,4,,,,,3,,,,63,75
106508,note_on,,,,,0,0,3,,,,,2,,,,72,75
106508,note_on,,,,,48,0,3,,,,,2,,,,74,0
106554,note_on,,,,,46,0,3,,,,,2,,,,72,0
106556,note_on,,,,,2,0,3,,,,,2,,,,71,92
106560,set_tempo,,,,,576,1,0,,444444,,,,,,,,
106562,note_on,,,,,94,0,4,,,,,3,,,,67,0
106562,note_on,,,,,0,0,4,,,,,3,,,,63,0
106564,note_on,,,,,2,0,4,,,,,3,,,,63,75
106564,note_on,,,,,0,0,4,,,,,3,,,,67,75
106660,note_on,,,,,0,0,4,,,,,3,,,,62,75
106660,note_on,,,,,96,0,4,,,,,3,,,,67,0
106660,note_on,,,,,0,0,4,,,,,3,,,,65,75
106660,note_on,,,,,0,0,4,,,,,3,,,,63,0
106716,note_on,,,,,160,0,3,,,,,2,,,,71,0
106748,note_on,,,,,32,0,3,,,,,2,,,,72,92
106754,note_on,,,,,0,0,4,,,,,3,,,,62,0
106754,note_on,,,,,94,0,4,,,,,3,,,,65,0
106756,note_on,,,,,2,0,4,,,,,3,,,,60,75
106756,note_on,,,,,0,0,4,,,,,3,,,,63,75
106844,note_on,,,,,96,0,3,,,,,2,,,,72,0
106844,note_on,,,,,0,0,3,,,,,2,,,,75,84
106848,set_tempo,,,,,288,1,0,,521739,,,,,,,,
106850,note_on,,,,,94,0,4,,,,,3,,,,63,0
106850,note_on,,,,,0,0,4,,,,,3,,,,60,0
106852,note_on,,,,,2,0,4,,,,,3,,,,58,75
106852,note_on,,,,,0,0,4,,,,,3,,,,62,75
106868,note_on,,,,,24,0,3,,,,,2,,,,75,0
106868,note_on,,,,,0,0,3,,,,,2,,,,74,82
106892,note_on,,,,,0,0,3,,,,,2,,,,72,80
106892,note_on,,,,,24,0,3,,,,,2,,,,74,0
106916,note_on,,,,,24,0,3,,,,,2,,,,72,0
106916,note_on,,,,,0,0,3,,,,,2,,,,74,78
106940,note_on,,,,,24,0,3,,,,,2,,,,74,0
106940,note_on,,,,,0,0,3,,,,,2,,,,75,75
106944,set_tempo,,,,,96,1,0,,444444,,,,,,,,
106946,note_on,,,,,0,0,4,,,,,3,,,,58,0
106946,note_on,,,,,94,0,4,,,,,3,,,,62,0
106948,note_on,,,,,0,0,4,,,,,3,,,,60,75
106948,note_on,,,,,2,0,4,,,,,3,,,,57,75
107036,note_on,,,,,96,0,3,,,,,2,,,,75,0
107036,note_on,,,,,0,0,3,,,,,2,,,,75,75
107042,note_on,,,,,0,0,4,,,,,3,,,,57,0
107042,note_on,,,,,94,0,4,,,,,3,,,,60,0
107044,note_on,,,,,0,0,4,,,,,3,,,,58,75
107044,note_on,,,,,2,0,4,,,,,3,,,,55,75
107130,note_on,,,,,94,0,3,,,,,2,,,,75,0
107132,note_on,,,,,2,0,3,,,,,2,,,,75,75
107136,set_tempo,,,,,192,1,0,,461538,,,,,,,,
107138,note_on,,,,,94,0,4,,,,,3,,,,58,0
107138,note_on,,,,,0,0,4,,,,,3,,,,55,0
107140,note_on,,,,,2,0,4,,,,,3,,,,53,75
107140,note_on,,,,,0,0,4,,,,,3,,,,57,75
107140,note_on,,,,,0,0,4,,,,,3,,,,60,75
107180,note_on,,,,,0,0,3,,,,,2,,,,65,75
107180,note_on,,,,,48,0,3,,,,,2,,,,75,0
107228,note_on,,,,,0,0,3,,,,,2,,,,69,75
107228,note_on,,,,,48,0,3,,,,,2,,,,65,0
107276,note_on,,,,,0,0,3,,,,,2,,,,72,75
107276,note_on,,,,,48,0,3,,,,,2,,,,69,0
107324,note_on,,,,,0,0,3,,,,,2,,,,75,92
107324,note_on,,,,,48,0,3,,,,,2,,,,72,0
107328,set_tempo,,,,,192,1,0,,480000,,,,,,,,
107372,note_on,,,,,48,0,3,,,,,2,,,,75,0
107372,note_on,,,,,0,0,3,,,,,2,,,,69,92
107420,note_on,,,,,48,0,3,,,,,2,,,,69,0
107420,note_on,,,,,0,0,3,,,,,2,,,,72,92
107468,note_on,,,,,48,0,3,,,,,2,,,,72,0
107468,note_on,,,,,0,0,3,,,,,2,,,,75,92
107516,note_on,,,,,0,0,3,,,,,2,,,,81,92
107516,note_on,,,,,48,0,3,,,,,2,,,,75,0
107520,set_tempo,,,,,192,1,0,,500000,,,,,,,,
107564,note_on,,,,,48,0,3,,,,,2,,,,81,0
107564,note_on,,,,,0,0,3,,,,,2,,,,72,92
107612,note_on,,,,,48,0,3,,,,,2,,,,72,0
107612,note_on,,,,,0,0,3,,,,,2,,,,75,92
107660,note_on,,,,,0,0,3,,,,,2,,,,81,92
107660,note_on,,,,,48,0,3,,,,,2,,,,75,0
107668,note_on,,,,,0,0,4,,,,,3,,,,53,0
107668,note_on,,,,,0,0,4,,,,,3,,,,57,0
107668,note_on,,,,,528,0,4,,,,,3,,,,60,0
107708,note_on,,,,,48,0,3,,,,,2,,,,81,0
107708,note_on,,,,,0,0,3,,,,,2,,,,84,108
107712,set_tempo,,,,,192,1,0,,521739,,,,,,,,
107756,note_on,,,,,48,0,3,,,,,2,,,,84,0
107756,note_on,,,,,0,0,3,,,,,2,,,,75,108
107804,note_on,,,,,0,0,3,,,,,2,,,,81,108
107804,note_on,,,,,48,0,3,,,,,2,,,,75,0
107812,note_on,,,,,144,0,4,,,,,3,,,,53,75
107844,note_on,,,,,32,0,4,,,,,3,,,,53,0
107852,note_on,,,,,0,0,3,,,,,2,,,,84,108
107852,note_on,,,,,48,0,3,,,,,2,,,,81,0
107900,note_on,,,,,0,0,3,,,,,2,,,,87,108
107900,note_on,,,,,48,0,3,,,,,2,,,,84,0
107904,set_tempo,,,,,192,1,0,,400000,,,,,,,,
107908,note_on,,,,,64,0,4,,,,,3,,,,45,75
107940,note_on,,,,,32,0,4,,,,,3,,,,45,0
107948,note_on,,,,,0,0,3,,,,,2,,,,86,104
107948,note_on,,,,,48,0,3,,,,,2,,,,87,0
107996,note_on,,,,,48,0,3,,,,,2,,,,86,0
107996,note_on,,,,,0,0,3,,,,,2,,,,84,100
108004,note_on,,,,,64,0,4,,,,,3,,,,48,75
108036,note_on,,,,,32,0,4,,,,,3,,,,48,0
108044,note_on,,,,,48,0,3,,,,,2,,,,84,0
108044,note_on,,,,,0,0,3,,,,,2,,,,82,96
108092,note_on,,,,,48,0,3,,,,,2,,,,82,0
108092,note_on,,,,,0,0,3,,,,,2,,,,81,92
108100,note_on,,,,,64,0,4,,,,,3,,,,41,75
108132,note_on,,,,,32,0,4,,,,,3,,,,41,0
108140,note_on,,,,,0,0,3,,,,,2,,,,79,88
108140,note_on,,,,,48,0,3,,,,,2,,,,81,0
108188,note_on,,,,,0,0,3,,,,,2,,,,77,84
108188,note_on,,,,,48,0,3,,,,,2,,,,79,0
108196,note_on,,,,,64,0,4,,,,,3,,,,45,75
108228,note_on,,,,,32,0,4,,,,,3,,,,45,0
108236,note_on,,,,,0,0,3,,,,,2,,,,75,80
108236,note_on,,,,,48,0,3,,,,,2,,,,77,0
108284,note_on,,,,,48,0,3,,,,,2,,,,75,0
108284,note_on,,,,,0,0,3,,,,,2,,,,74,75
108288,set_tempo,,,,,384,1,0,,428571,,,,,,,,
108292,note_on,,,,,64,0,4,,,,,3,,,,46,75
108444,note_on,,,,,160,0,3,,,,,2,,,,74,0
108452,note_on,,,,,160,0,4,,,,,3,,,,46,0
108477,note_on,,,,,3488,0,7,,,,,6,,,,70,92
108478,note_on,,,,,3488,0,1,,,,,0,,,,82,92
108479,note_on,,,,,3488,0,8,,,,,7,,,,58,92
108480,note_on,,,,,3488,0,5,,,,,4,,,,70,92
108482,note_on,,,,,0,0,2,,,,,1,,,,72,92
108482,note_on,,,,,3488,0,2,,,,,1,,,,58,92
108485,note_on,,,,,3488,0,6,,,,,5,,,,70,92
108486,note_on,,,,,3488,0,9,,,,,8,,,,46,92
108509,note_on,,,,,32,0,7,,,,,6,,,,70,0
108509,note_on,,,,,0,0,7,,,,,6,,,,72,92
108510,note_on,,,,,0,0,1,,,,,0,,,,84,92
108510,note_on,,,,,32,0,1,,,,,0,,,,82,0
108511,note_on,,,,,32,0,8,,,,,7,,,,58,0
108511,note_on,,,,,0,0,8,,,,,7,,,,60,92
108512,note_on,,,,,0,0,5,,,,,4,,,,72,92
108512,note_on,,,,,32,0,5,,,,,4,,,,70,0
108517,note_on,,,,,0,0,6,,,,,5,,,,72,92
108517,note_on,,,,,32,0,6,,,,,5,,,,70,0
108518,note_on,,,,,0,0,9,,,,,8,,,,48,92
108518,note_on,,,,,32,0,9,,,,,8,,,,46,0
108541,note_on,,,,,0,0,7,,,,,6,,,,70,92
108541,note_on,,,,,32,0,7,,,,,6,,,,72,0
108542,note_on,,,,,32,0,1,,,,,0,,,,84,0
108542,note_on,,,,,0,0,1,,,,,0,,,,82,92
108543,note_on,,,,,0,0,8,,,,,7,,,,58,92
108543,note_on,,,,,32,0,8,,,,,7,,,,60,0
108544,note_on,,,,,0,0,5,,,,,4,,,,70,92
108544,note_on,,,,,32,0,5,,,,,4,,,,72,0
108549,note_on,,,,,32,0,6,,,,,5,,,,72,0
108549,note_on,,,,,0,0,6,,,,,5,,,,70,92
108550,note_on,,,,,0,0,9,,,,,8,,,,46,92
108550,note_on,,,,,32,0,9,,,,,8,,,,48,0
108573,note_on,,,,,32,0,7,,,,,6,,,,70,0
108573,note_on,,,,,0,0,7,,,,,6,,,,72,92
108574,note_on,,,,,32,0,1,,,,,0,,,,82,0
108574,note_on,,,,,0,0,1,,,,,0,,,,84,92
108575,note_on,,,,,32,0,8,,,,,7,,,,58,0
108575,note_on,,,,,0,0,8,,,,,7,,,,60,92
108576,note_on,,,,,0,0,5,,,,,4,,,,72,92
108576,note_on,,,,,32,0,5,,,,,4,,,,70,0
108581,note_on,,,,,0,0,6,,,,,5,,,,72,92
108581,note_on,,,,,32,0,6,,,,,5,,,,70,0
108582,note_on,,,,,32,0,9,,,,,8,,,,46,0
108582,note_on,,,,,0,0,9,,,,,8,,,,48,92
108605,note_on,,,,,0,0,7,,,,,6,,,,70,92
108605,note_on,,,,,32,0,7,,,,,6,,,,72,0
108606,note_on,,,,,32,0,1,,,,,0,,,,84,0
108606,note_on,,,,,0,0,1,,,,,0,,,,82,92
108607,note_on,,,,,32,0,8,,,,,7,,,,60,0
108607,note_on,,,,,0,0,8,,,,,7,,,,58,92
108608,note_on,,,,,32,0,5,,,,,4,,,,72,0
108608,note_on,,,,,0,0,5,,,,,4,,,,70,92
108613,note_on,,,,,0,0,6,,,,,5,,,,70,92
108613,note_on,,,,,32,0,6,,,,,5,,,,72,0
108614,note_on,,,,,32,0,9,,,,,8,,,,48,0
108614,note_on,,,,,0,0,9,,,,,8,,,,46,92
108637,note_on,,,,,32,0,7,,,,,6,,,,70,0
108637,note_on,,,,,0,0,7,,,,,6,,,,72,92
108638,note_on,,,,,32,0,1,,,,,0,,,,82,0
108638,note_on,,,,,0,0,1,,,,,0,,,,84,92
108639,note_on,,,,,32,0,8,,,,,7,,,,58,0
108639,note_on,,,,,0,0,8,,,,,7,,,,60,92
108640,note_on,,,,,32,0,5,,,,,4,,,,70,0
108640,note_on,,,,,0,0,5,,,,,4,,,,72,92
108645,note_on,,,,,32,0,6,,,,,5,,,,70,0
108645,note_on,,,,,0,0,6,,,,,5,,,,72,92
108646,note_on,,,,,32,0,9,,,,,8,,,,46,0
108646,note_on,,,,,0,0,9,,,,,8,,,,48,92
108669,note_on,,,,,0,0,7,,,,,6,,,,70,92
108669,note_on,,,,,32,0,7,,,,,6,,,,72,0
108670,note_on,,,,,32,0,1,,,,,0,,,,84,0
108670,note_on,,,,,0,0,1,,,,,0,,,,82,92
108671,note_on,,,,,32,0,8,,,,,7,,,,60,0
108671,note_on,,,,,0,0,8,,,,,7,,,,58,92
108672,note_on,,,,,32,0,5,,,,,4,,,,72,0
108672,note_on,,,,,0,0,5,,,,,4,,,,70,92
108677,note_on,,,,,32,0,6,,,,,5,,,,72,0
108677,note_on,,,,,0,0,6,,,,,5,,,,70,92
108678,note_on,,,,,0,0,9,,,,,8,,,,46,92
108678,note_on,,,,,32,0,9,,,,,8,,,,48,0
108701,note_on,,,,,32,0,7,,,,,6,,,,70,0
108701,note_on,,,,,0,0,7,,,,,6,,,,72,92
108702,note_on,,,,,0,0,1,,,,,0,,,,84,92
108702,note_on,,,,,32,0,1,,,,,0,,,,82,0
108703,note_on,,,,,0,0,8,,,,,7,,,,60,92
108703,note_on,,,,,32,0,8,,,,,7,,,,58,0
108704,note_on,,,,,0,0,5,,,,,4,,,,72,92
108704,note_on,,,,,32,0,5,,,,,4,,,,70,0
108709,note_on,,,,,0,0,6,,,,,5,,,,72,92
108709,note_on,,,,,32,0,6,,,,,5,,,,70,0
108710,note_on,,,,,0,0,9,,,,,8,,,,48,92
108710,note_on,,,,,32,0,9,,,,,8,,,,46,0
108733,note_on,,,,,0,0,7,,,,,6,,,,70,92
108733,note_on,,,,,32,0,7,,,,,6,,,,72,0
108734,note_on,,,,,32,0,1,,,,,0,,,,84,0
108734,note_on,,,,,0,0,1,,,,,0,,,,82,92
108735,note_on,,,,,0,0,8,,,,,7,,,,58,92
108735,note_on,,,,,32,0,8,,,,,7,,,,60,0
108736,note_on,,,,,0,0,5,,,,,4,,,,70,92
108736,note_on,,,,,32,0,5,,,,,4,,,,72,0
108741,note_on,,,,,32,0,6,,,,,5,,,,72,0
108741,note_on,,,,,0,0,6,,,,,5,,,,70,92
108742,note_on,,,,,0,0,9,,,,,8,,,,46,92
108742,note_on,,,,,32,0,9,,,,,8,,,,48,0
108765,note_on,,,,,0,0,7,,,,,6,,,,69,92
108765,note_on,,,,,32,0,7,,,,,6,,,,70,0
108766,note_on,,,,,32,0,1,,,,,0,,,,82,0
108766,note_on,,,,,0,0,1,,,,,0,,,,81,92
108767,note_on,,,,,0,0,8,,,,,7,,,,57,92
108767,note_on,,,,,32,0,8,,,,,7,,,,58,0
108768,note_on,,,,,32,0,5,,,,,4,,,,70,0
108768,note_on,,,,,0,0,5,,,,,4,,,,69,92
108773,note_on,,,,,32,0,6,,,,,5,,,,70,0
108773,note_on,,,,,0,0,6,,,,,5,,,,69,92
108774,note_on,,,,,32,0,9,,,,,8,,,,46,0
108774,note_on,,,,,0,0,9,,,,,8,,,,45,92
108813,note_on,,,,,0,0,7,,,,,6,,,,67,92
108813,note_on,,,,,48,0,7,,,,,6,,,,69,0
108814,note_on,,,,,0,0,1,,,,,0,,,,79,92
108814,note_on,,,,,48,0,1,,,,,0,,,,81,0
108815,note_on,,,,,48,0,8,,,,,7,,,,57,0
108815,note_on,,,,,0,0,8,,,,,7,,,,55,92
108816,note_on,,,,,0,0,5,,,,,4,,,,67,92
108816,note_on,,,,,48,0,5,,,,,4,,,,69,0
108818,note_on,,,,,0,0,2,,,,,1,,,,58,0
108818,note_on,,,,,336,0,2,,,,,1,,,,72,0
108821,note_on,,,,,0,0,6,,,,,5,,,,67,92
108821,note_on,,,,,48,0,6,,,,,5,,,,69,0
108822,note_on,,,,,0,0,9,,,,,8,,,,43,92
108822,note_on,,,,,48,0,9,,,,,8,,,,45,0
108859,note_on,,,,,46,0,7,,,,,6,,,,67,0
108860,note_on,,,,,46,0,1,,,,,0,,,,79,0
108861,note_on,,,,,46,0,8,,,,,7,,,,55,0
108861,note_on,,,,,2,0,7,,,,,6,,,,65,92
108862,note_on,,,,,46,0,5,,,,,4,,,,67,0
108862,note_on,,,,,2,0,1,,,,,0,,,,77,92
108863,note_on,,,,,2,0,8,,,,,7,,,,53,92
108864,note_on,,,,,2,0,5,,,,,4,,,,65,92
108866,note_on,,,,,48,0,2,,,,,1,,,,65,92
108867,note_on,,,,,46,0,6,,,,,5,,,,67,0
108868,note_on,,,,,46,0,9,,,,,8,,,,43,0
108869,note_on,,,,,2,0,6,,,,,5,,,,65,92
108870,note_on,,,,,2,0,9,,,,,8,,,,41,92
109021,note_on,,,,,160,0,7,,,,,6,,,,65,0
109022,note_on,,,,,160,0,1,,,,,0,,,,77,0
109023,note_on,,,,,160,0,8,,,,,7,,,,53,0
109024,note_on,,,,,160,0,5,,,,,4,,,,65,0
109026,note_on,,,,,160,0,2,,,,,1,,,,65,0
109029,note_on,,,,,160,0,6,,,,,5,,,,65,0
109030,note_on,,,,,160,0,9,,,,,8,,,,41,0
109053,note_on,,,,,32,0,7,,,,,6,,,,63,92
109054,note_on,,,,,32,0,1,,,,,0,,,,75,92
109055,note_on,,,,,32,0,8,,,,,7,,,,51,92
109056,note_on,,,,,32,0,5,,,,,4,,,,63,92
109058,note_on,,,,,0,0,2,,,,,1,,,,63,92
109058,note_on,,,,,32,0,2,,,,,1,,,,51,92
109061,note_on,,,,,32,0,6,,,,,5,,,,63,92
109062,note_on,,,,,32,0,9,,,,,8,,,,39,92
109085,note_on,,,,,32,0,7,,,,,6,,,,63,0
109085,note_on,,,,,0,0,7,,,,,6,,,,65,92
109086,note_on,,,,,32,0,1,,,,,0,,,,75,0
109086,note_on,,,,,0,0,1,,,,,0,,,,77,92
109087,note_on,,,,,32,0,8,,,,,7,,,,51,0
109087,note_on,,,,,0,0,8,,,,,7,,,,53,92
109088,note_on,,,,,0,0,5,,,,,4,,,,65,92
109088,note_on,,,,,32,0,5,,,,,4,,,,63,0
109093,note_on,,,,,32,0,6,,,,,5,,,,63,0
109093,note_on,,,,,0,0,6,,,,,5,,,,65,92
109094,note_on,,,,,32,0,9,,,,,8,,,,39,0
109094,note_on,,,,,0,0,9,,,,,8,,,,41,92
109117,note_on,,,,,32,0,7,,,,,6,,,,65,0
109117,note_on,,,,,0,0,7,,,,,6,,,,63,92
109118,note_on,,,,,32,0,1,,,,,0,,,,77,0
109118,note_on,,,,,0,0,1,,,,,0,,,,75,92
109119,note_on,,,,,0,0,8,,,,,7,,,,51,92
109119,note_on,,,,,32,0,8,,,,,7,,,,53,0
109120,note_on,,,,,32,0,5,,,,,4,,,,65,0
109120,note_on,,,,,0,0,5,,,,,4,,,,63,92
109125,note_on,,,,,0,0,6,,,,,5,,,,63,92
109125,note_on,,,,,32,0,6,,,,,5,,,,65,0
109126,note_on,,,,,32,0,9,,,,,8,,,,41,0
109126,note_on,,,,,0,0,9,,,,,8,,,,39,92
109149,note_on,,,,,32,0,7,,,,,6,,,,63,0
109149,note_on,,,,,0,0,7,,,,,6,,,,65,92
109150,note_on,,,,,0,0,1,,,,,0,,,,77,92
109150,note_on,,,,,32,0,1,,,,,0,,,,75,0
109151,note_on,,,,,32,0,8,,,,,7,,,,51,0
109151,note_on,,,,,0,0,8,,,,,7,,,,53,92
109152,note_on,,,,,32,0,5,,,,,4,,,,63,0
109152,note_on,,,,,0,0,5,,,,,4,,,,65,92
109157,note_on,,,,,0,0,6,,,,,5,,,,65,92
109157,note_on,,,,,32,0,6,,,,,5,,,,63,0
109158,note_on,,,,,32,0,9,,,,,8,,,,39,0
109158,note_on,,,,,0,0,9,,,,,8,,,,41,92
109181,note_on,,,,,32,0,7,,,,,6,,,,65,0
109181,note_on,,,,,0,0,7,,,,,6,,,,63,92
109182,note_on,,,,,32,0,1,,,,,0,,,,77,0
109182,note_on,,,,,0,0,1,,,,,0,,,,75,92
109183,note_on,,,,,0,0,8,,,,,7,,,,51,92
109183,note_on,,,,,32,0,8,,,,,7,,,,53,0
109184,note_on,,,,,0,0,5,,,,,4,,,,63,92
109184,note_on,,,,,32,0,5,,,,,4,,,,65,0
109189,note_on,,,,,0,0,6,,,,,5,,,,63,92
109189,note_on,,,,,32,0,6,,,,,5,,,,65,0
109190,note_on,,,,,32,0,9,,,,,8,,,,41,0
109190,note_on,,,,,0,0,9,,,,,8,,,,39,92
109213,note_on,,,,,32,0,7,,,,,6,,,,63,0
109213,note_on,,,,,0,0,7,,,,,6,,,,65,92
109214,note_on,,,,,32,0,1,,,,,0,,,,75,0
109214,note_on,,,,,0,0,1,,,,,0,,,,77,92
109215,note_on,,,,,0,0,8,,,,,7,,,,53,92
109215,note_on,,,,,32,0,8,,,,,7,,,,51,0
109216,note_on,,,,,32,0,5,,,,,4,,,,63,0
109216,note_on,,,,,0,0,5,,,,,4,,,,65,92
109221,note_on,,,,,32,0,6,,,,,5,,,,63,0
109221,note_on,,,,,0,0,6,,,,,5,,,,65,92
109222,note_on,,,,,32,0,9,,,,,8,,,,39,0
109222,note_on,,,,,0,0,9,,,,,8,,,,41,92
109245,note_on,,,,,32,0,7,,,,,6,,,,65,0
109245,note_on,,,,,0,0,7,,,,,6,,,,63,92
109246,note_on,,,,,32,0,1,,,,,0,,,,77,0
109246,note_on,,,,,0,0,1,,,,,0,,,,75,92
109247,note_on,,,,,32,0,8,,,,,7,,,,53,0
109247,note_on,,,,,0,0,8,,,,,7,,,,51,92
109248,note_on,,,,,0,0,5,,,,,4,,,,63,92
109248,note_on,,,,,32,0,5,,,,,4,,,,65,0
109253,note_on,,,,,32,0,6,,,,,5,,,,65,0
109253,note_on,,,,,0,0,6,,,,,5,,,,63,92
109254,note_on,,,,,32,0,9,,,,,8,,,,41,0
109254,note_on,,,,,0,0,9,,,,,8,,,,39,92
109277,note_on,,,,,0,0,7,,,,,6,,,,65,92
109277,note_on,,,,,32,0,7,,,,,6,,,,63,0
109278,note_on,,,,,32,0,1,,,,,0,,,,75,0
109278,note_on,,,,,0,0,1,,,,,0,,,,77,92
109279,note_on,,,,,0,0,8,,,,,7,,,,53,92
109279,note_on,,,,,32,0,8,,,,,7,,,,51,0
109280,note_on,,,,,0,0,5,,,,,4,,,,65,92
109280,note_on,,,,,32,0,5,,,,,4,,,,63,0
109285,note_on,,,,,32,0,6,,,,,5,,,,63,0
109285,note_on,,,,,0,0,6,,,,,5,,,,65,92
109286,note_on,,,,,0,0,9,,,,,8,,,,41,92
109286,note_on,,,,,32,0,9,,,,,8,,,,39,0
109309,note_on,,,,,0,0,7,,,,,6,,,,63,92
109309,note_on,,,,,32,0,7,,,,,6,,,,65,0
109310,note_on,,,,,32,0,1,,,,,0,,,,77,0
109310,note_on,,,,,0,0,1,,,,,0,,,,75,92
109311,note_on,,,,,32,0,8,,,,,7,,,,53,0
109311,note_on,,,,,0,0,8,,,,,7,,,,51,92
109312,note_on,,,,,0,0,5,,,,,4,,,,63,92
109312,note_on,,,,,32,0,5,,,,,4,,,,65,0
109317,note_on,,,,,0,0,6,,,,,5,,,,63,92
109317,note_on,,,,,32,0,6,,,,,5,,,,65,0
109318,note_on,,,,,0,0,9,,,,,8,,,,39,92
109318,note_on,,,,,32,0,9,,,,,8,,,,41,0
109341,note_on,,,,,32,0,7,,,,,6,,,,63,0
109341,note_on,,,,,0,0,7,,,,,6,,,,62,92
109342,note_on,,,,,0,0,1,,,,,0,,,,74,92
109342,note_on,,,,,32,0,1,,,,,0,,,,75,0
109343,note_on,,,,,32,0,8,,,,,7,,,,51,0
109343,note_on,,,,,0,0,8,,,,,7,,,,50,92
109344,note_on,,,,,0,0,5,,,,,4,,,,62,92
109344,note_on,,,,,32,0,5,,,,,4,,,,63,0
109349,note_on,,,,,32,0,6,,,,,5,,,,63,0
109349,note_on,,,,,0,0,6,,,,,5,,,,62,92
109350,note_on,,,,,32,0,9,,,,,8,,,,39,0
109350,note_on,,,,,0,0,9,,,,,8,,,,38,92
109389,note_on,,,,,48,0,7,,,,,6,,,,62,0
109389,note_on,,,,,0,0,7,,,,,6,,,,60,92
109390,note_on,,,,,0,0,1,,,,,0,,,,72,92
109390,note_on,,,,,48,0,1,,,,,0,,,,74,0
109391,note_on,,,,,0,0,8,,,,,7,,,,48,92
109391,note_on,,,,,48,0,8,,,,,7,,,,50,0
109392,note_on,,,,,0,0,5,,,,,4,,,,60,92
109392,note_on,,,,,48,0,5,,,,,4,,,,62,0
109394,note_on,,,,,0,0,2,,,,,1,,,,51,0
109394,note_on,,,,,336,0,2,,,,,1,,,,63,0
109397,note_on,,,,,0,0,6,,,,,5,,,,60,92
109397,note_on,,,,,48,0,6,,,,,5,,,,62,0
109398,note_on,,,,,0,0,9,,,,,8,,,,36,92
109398,note_on,,,,,48,0,9,,,,,8,,,,38,0
109435,note_on,,,,,46,0,7,,,,,6,,,,60,0
109436,note_on,,,,,46,0,1,,,,,0,,,,72,0
109437,note_on,,,,,46,0,8,,,,,7,,,,48,0
109437,note_on,,,,,2,0,7,,,,,6,,,,58,92
109438,note_on,,,,,2,0,1,,,,,0,,,,70,92
109438,note_on,,,,,46,0,5,,,,,4,,,,60,0
109439,note_on,,,,,2,0,8,,,,,7,,,,46,92
109440,set_tempo,,,,,1152,1,0,,461538,,,,,,,,
109440,note_on,,,,,2,0,5,,,,,4,,,,58,92
109442,note_on,,,,,48,0,2,,,,,1,,,,46,92
109442,note_on,,,,,0,0,2,,,,,1,,,,58,92
109443,note_on,,,,,46,0,6,,,,,5,,,,60,0
109444,note_on,,,,,46,0,9,,,,,8,,,,36,0
109445,note_on,,,,,2,0,6,,,,,5,,,,58,92
109446,note_on,,,,,2,0,9,,,,,8,,,,34,92
109492,note_on,,,,,1040,0,4,,,,,3,,,,46,92
109540,note_on,,,,,48,0,4,,,,,3,,,,46,0
109540,note_on,,,,,0,0,4,,,,,3,,,,49,92
109588,note_on,,,,,48,0,4,,,,,3,,,,49,0
109588,note_on,,,,,0,0,4,,,,,3,,,,53,92
109597,note_on,,,,,160,0,7,,,,,6,,,,58,0
109598,note_on,,,,,160,0,1,,,,,0,,,,70,0
109599,note_on,,,,,160,0,8,,,,,7,,,,46,0
109600,note_on,,,,,160,0,5,,,,,4,,,,58,0
109602,note_on,,,,,160,0,2,,,,,1,,,,58,0
109602,note_on,,,,,0,0,2,,,,,1,,,,46,0
109605,note_on,,,,,160,0,6,,,,,5,,,,58,0
109606,note_on,,,,,160,0,9,,,,,8,,,,34,0
109636,note_on,,,,,48,0,4,,,,,3,,,,53,0
109636,note_on,,,,,0,0,4,,,,,3,,,,58,92
109676,note_on,,,,,1232,0,3,,,,,2,,,,61,108
109724,note_on,,,,,0,0,3,,,,,2,,,,65,108
109724,note_on,,,,,48,0,3,,,,,2,,,,61,0
109732,note_on,,,,,96,0,4,,,,,3,,,,58,0
109772,note_on,,,,,48,0,3,,,,,2,,,,65,0
109772,note_on,,,,,0,0,3,,,,,2,,,,70,108
109820,note_on,,,,,48,0,3,,,,,2,,,,70,0
109820,note_on,,,,,0,0,3,,,,,2,,,,73,108
109824,set_tempo,,,,,384,1,0,,500000,,,,,,,,
109876,note_on,,,,,144,0,4,,,,,3,,,,58,92
109916,note_on,,,,,96,0,3,,,,,2,,,,73,0
109924,note_on,,,,,0,0,4,,,,,3,,,,61,92
109924,note_on,,,,,48,0,4,,,,,3,,,,58,0
109972,note_on,,,,,48,0,4,,,,,3,,,,61,0
109972,note_on,,,,,0,0,4,,,,,3,,,,65,92
110020,note_on,,,,,48,0,4,,,,,3,,,,65,0
110020,note_on,,,,,0,0,4,,,,,3,,,,70,92
110060,note_on,,,,,144,0,3,,,,,2,,,,73,108
110108,note_on,,,,,48,0,3,,,,,2,,,,73,0
110108,note_on,,,,,0,0,3,,,,,2,,,,77,108
110116,note_on,,,,,96,0,4,,,,,3,,,,70,0
110156,note_on,,,,,48,0,3,,,,,2,,,,77,0
110156,note_on,,,,,0,0,3,,,,,2,,,,82,108
110204,note_on,,,,,0,0,3,,,,,2,,,,85,92
110204,note_on,,,,,48,0,3,,,,,2,,,,82,0
110208,set_tempo,,,,,384,1,0,,400000,,,,,,,,
110252,note_on,,,,,0,0,3,,,,,2,,,,84,92
110252,note_on,,,,,48,0,3,,,,,2,,,,85,0
110300,note_on,,,,,48,0,3,,,,,2,,,,84,0
110300,note_on,,,,,0,0,3,,,,,2,,,,82,92
110308,note_on,,,,,192,0,4,,,,,3,,,,58,92
110340,note_on,,,,,32,0,4,,,,,3,,,,58,0
110348,note_on,,,,,0,0,3,,,,,2,,,,80,92
110348,note_on,,,,,48,0,3,,,,,2,,,,82,0
110396,note_on,,,,,48,0,3,,,,,2,,,,80,0
110396,note_on,,,,,0,0,3,,,,,2,,,,79,92
110400,set_tempo,,,,,192,1,0,,413793,,,,,,,,
110404,note_on,,,,,64,0,4,,,,,3,,,,63,92
110436,note_on,,,,,32,0,4,,,,,3,,,,63,0
110444,note_on,,,,,48,0,3,,,,,2,,,,79,0
110444,note_on,,,,,0,0,3,,,,,2,,,,77,92
110492,note_on,,,,,48,0,3,,,,,2,,,,77,0
110492,note_on,,,,,0,0,3,,,,,2,,,,76,92
110500,note_on,,,,,64,0,4,,,,,3,,,,58,92
110532,note_on,,,,,32,0,4,,,,,3,,,,58,0
110540,note_on,,,,,48,0,3,,,,,2,,,,76,0
110540,note_on,,,,,0,0,3,,,,,2,,,,77,92
110588,note_on,,,,,48,0,3,,,,,2,,,,77,0
110588,note_on,,,,,0,0,3,,,,,2,,,,76,92
110592,set_tempo,,,,,192,1,0,,428571,,,,,,,,
110596,note_on,,,,,64,0,4,,,,,3,,,,60,92
110780,note_on,,,,,192,0,3,,,,,2,,,,76,0
110781,note_on,,,,,1184,0,7,,,,,6,,,,72,92
110782,note_on,,,,,1184,0,1,,,,,0,,,,84,92
110783,note_on,,,,,1184,0,8,,,,,7,,,,60,92
110784,note_on,,,,,1184,0,5,,,,,4,,,,72,92
110788,note_on,,,,,192,0,4,,,,,3,,,,60,0
110789,note_on,,,,,1184,0,6,,,,,5,,,,72,92
110790,note_on,,,,,1184,0,9,,,,,8,,,,48,92
110813,note_on,,,,,0,0,7,,,,,6,,,,73,92
110813,note_on,,,,,32,0,7,,,,,6,,,,72,0
110814,note_on,,,,,32,0,1,,,,,0,,,,84,0
110814,note_on,,,,,0,0,1,,,,,0,,,,85,92
110815,note_on,,,,,0,0,8,,,,,7,,,,61,92
110815,note_on,,,,,32,0,8,,,,,7,,,,60,0
110816,note_on,,,,,32,0,5,,,,,4,,,,72,0
110816,note_on,,,,,0,0,5,,,,,4,,,,73,92
110821,note_on,,,,,0,0,6,,,,,5,,,,73,92
110821,note_on,,,,,32,0,6,,,,,5,,,,72,0
110822,note_on,,,,,32,0,9,,,,,8,,,,48,0
110822,note_on,,,,,0,0,9,,,,,8,,,,49,92
110845,note_on,,,,,32,0,7,,,,,6,,,,73,0
110845,note_on,,,,,0,0,7,,,,,6,,,,72,92
110846,note_on,,,,,32,0,1,,,,,0,,,,85,0
110846,note_on,,,,,0,0,1,,,,,0,,,,84,92
110847,note_on,,,,,32,0,8,,,,,7,,,,61,0
110847,note_on,,,,,0,0,8,,,,,7,,,,60,92
110848,note_on,,,,,0,0,5,,,,,4,,,,72,92
110848,note_on,,,,,32,0,5,,,,,4,,,,73,0
110853,note_on,,,,,32,0,6,,,,,5,,,,73,0
110853,note_on,,,,,0,0,6,,,,,5,,,,72,92
110854,note_on,,,,,32,0,9,,,,,8,,,,49,0
110854,note_on,,,,,0,0,9,,,,,8,,,,48,92
110877,note_on,,,,,32,0,7,,,,,6,,,,72,0
110877,note_on,,,,,0,0,7,,,,,6,,,,73,92
110878,note_on,,,,,0,0,1,,,,,0,,,,85,92
110878,note_on,,,,,32,0,1,,,,,0,,,,84,0
110879,note_on,,,,,0,0,8,,,,,7,,,,61,92
110879,note_on,,,,,32,0,8,,,,,7,,,,60,0
110880,note_on,,,,,32,0,5,,,,,4,,,,72,0
110880,note_on,,,,,0,0,5,,,,,4,,,,73,92
110885,note_on,,,,,32,0,6,,,,,5,,,,72,0
110885,note_on,,,,,0,0,6,,,,,5,,,,73,92
110886,note_on,,,,,32,0,9,,,,,8,,,,48,0
110886,note_on,,,,,0,0,9,,,,,8,,,,49,92
110909,note_on,,,,,0,0,7,,,,,6,,,,72,92
110909,note_on,,,,,32,0,7,,,,,6,,,,73,0
110910,note_on,,,,,0,0,1,,,,,0,,,,84,92
110910,note_on,,,,,32,0,1,,,,,0,,,,85,0
110911,note_on,,,,,32,0,8,,,,,7,,,,61,0
110911,note_on,,,,,0,0,8,,,,,7,,,,60,92
110912,note_on,,,,,0,0,5,,,,,4,,,,72,92
110912,note_on,,,,,32,0,5,,,,,4,,,,73,0
110917,note_on,,,,,0,0,6,,,,,5,,,,72,92
110917,note_on,,,,,32,0,6,,,,,5,,,,73,0
110918,note_on,,,,,0,0,9,,,,,8,,,,48,92
110918,note_on,,,,,32,0,9,,,,,8,,,,49,0
110941,note_on,,,,,32,0,7,,,,,6,,,,72,0
110941,note_on,,,,,0,0,7,,,,,6,,,,73,92
110942,note_on,,,,,0,0,1,,,,,0,,,,85,92
110942,note_on,,,,,32,0,1,,,,,0,,,,84,0
110943,note_on,,,,,32,0,8,,,,,7,,,,60,0
110943,note_on,,,,,0,0,8,,,,,7,,,,61,92
110944,note_on,,,,,32,0,5,,,,,4,,,,72,0
110944,note_on,,,,,0,0,5,,,,,4,,,,73,92
110949,note_on,,,,,32,0,6,,,,,5,,,,72,0
110949,note_on,,,,,0,0,6,,,,,5,,,,73,92
110950,note_on,,,,,32,0,9,,,,,8,,,,48,0
110950,note_on,,,,,0,0,9,,,,,8,,,,49,92
110973,note_on,,,,,32,0,7,,,,,6,,,,73,0
110973,note_on,,,,,0,0,7,,,,,6,,,,72,92
110974,note_on,,,,,32,0,1,,,,,0,,,,85,0
110974,note_on,,,,,0,0,1,,,,,0,,,,84,92
110975,note_on,,,,,32,0,8,,,,,7,,,,61,0
110975,note_on,,,,,0,0,8,,,,,7,,,,60,92
110976,note_on,,,,,0,0,5,,,,,4,,,,72,92
110976,note_on,,,,,32,0,5,,,,,4,,,,73,0
110981,note_on,,,,,32,0,6,,,,,5,,,,73,0
110981,note_on,,,,,0,0,6,,,,,5,,,,72,92
110982,note_on,,,,,32,0,9,,,,,8,,,,49,0
110982,note_on,,,,,0,0,9,,,,,8,,,,48,92
111005,note_on,,,,,0,0,7,,,,,6,,,,73,92
111005,note_on,,,,,32,0,7,,,,,6,,,,72,0
111006,note_on,,,,,0,0,1,,,,,0,,,,85,92
111006,note_on,,,,,32,0,1,,,,,0,,,,84,0
111007,note_on,,,,,32,0,8,,,,,7,,,,60,0
111007,note_on,,,,,0,0,8,,,,,7,,,,61,92
111008,note_on,,,,,0,0,5,,,,,4,,,,73,92
111008,note_on,,,,,32,0,5,,,,,4,,,,72,0
111013,note_on,,,,,32,0,6,,,,,5,,,,72,0
111013,note_on,,,,,0,0,6,,,,,5,,,,73,92
111014,note_on,,,,,0,0,9,,,,,8,,,,49,92
111014,note_on,,,,,32,0,9,,,,,8,,,,48,0
111037,note_on,,,,,32,0,7,,,,,6,,,,73,0
111037,note_on,,,,,0,0,7,,,,,6,,,,72,92
111038,note_on,,,,,32,0,1,,,,,0,,,,85,0
111038,note_on,,,,,0,0,1,,,,,0,,,,84,92
111039,note_on,,,,,32,0,8,,,,,7,,,,61,0
111039,note_on,,,,,0,0,8,,,,,7,,,,60,92
111040,note_on,,,,,0,0,5,,,,,4,,,,72,92
111040,note_on,,,,,32,0,5,,,,,4,,,,73,0
111045,note_on,,,,,0,0,6,,,,,5,,,,72,92
111045,note_on,,,,,32,0,6,,,,,5,,,,73,0
111046,note_on,,,,,32,0,9,,,,,8,,,,49,0
111046,note_on,,,,,0,0,9,,,,,8,,,,48,92
111069,note_on,,,,,32,0,7,,,,,6,,,,72,0
111069,note_on,,,,,0,0,7,,,,,6,,,,70,92
111070,note_on,,,,,32,0,1,,,,,0,,,,84,0
111070,note_on,,,,,0,0,1,,,,,0,,,,82,92
111071,note_on,,,,,0,0,8,,,,,7,,,,58,92
111071,note_on,,,,,32,0,8,,,,,7,,,,60,0
111072,note_on,,,,,32,0,5,,,,,4,,,,72,0
111072,note_on,,,,,0,0,5,,,,,4,,,,70,92
111077,note_on,,,,,0,0,6,,,,,5,,,,70,92
111077,note_on,,,,,32,0,6,,,,,5,,,,72,0
111078,note_on,,,,,32,0,9,,,,,8,,,,48,0
111078,note_on,,,,,0,0,9,,,,,8,,,,46,92
111117,note_on,,,,,48,0,7,,,,,6,,,,70,0
111117,note_on,,,,,0,0,7,,,,,6,,,,68,92
111118,note_on,,,,,48,0,1,,,,,0,,,,82,0
111118,note_on,,,,,0,0,1,,,,,0,,,,80,92
111119,note_on,,,,,0,0,8,,,,,7,,,,56,92
111119,note_on,,,,,48,0,8,,,,,7,,,,58,0
111120,note_on,,,,,0,0,5,,,,,4,,,,68,92
111120,note_on,,,,,48,0,5,,,,,4,,,,70,0
111125,note_on,,,,,48,0,6,,,,,5,,,,70,0
111125,note_on,,,,,0,0,6,,,,,5,,,,68,92
111126,note_on,,,,,0,0,9,,,,,8,,,,44,92
111126,note_on,,,,,48,0,9,,,,,8,,,,46,0
111163,note_on,,,,,46,0,7,,,,,6,,,,68,0
111164,note_on,,,,,46,0,1,,,,,0,,,,80,0
111165,note_on,,,,,2,0,7,,,,,6,,,,67,92
111165,note_on,,,,,46,0,8,,,,,7,,,,56,0
111166,note_on,,,,,46,0,5,,,,,4,,,,68,0
111166,note_on,,,,,2,0,1,,,,,0,,,,79,92
111167,note_on,,,,,2,0,8,,,,,7,,,,55,92
111168,note_on,,,,,2,0,5,,,,,4,,,,67,92
111171,note_on,,,,,46,0,6,,,,,5,,,,68,0
111172,note_on,,,,,46,0,9,,,,,8,,,,44,0
111173,note_on,,,,,2,0,6,,,,,5,,,,67,92
111174,note_on,,,,,2,0,9,,,,,8,,,,43,92
111325,note_on,,,,,160,0,7,,,,,6,,,,67,0
111326,note_on,,,,,160,0,1,,,,,0,,,,79,0
111327,note_on,,,,,160,0,8,,,,,7,,,,55,0
111328,note_on,,,,,160,0,5,,,,,4,,,,67,0
111333,note_on,,,,,160,0,6,,,,,5,,,,67,0
111334,note_on,,,,,160,0,9,,,,,8,,,,43,0
111357,note_on,,,,,32,0,7,,,,,6,,,,65,92
111358,note_on,,,,,32,0,1,,,,,0,,,,77,92
111359,note_on,,,,,32,0,8,,,,,7,,,,53,92
111360,note_on,,,,,32,0,5,,,,,4,,,,65,92
111365,note_on,,,,,32,0,6,,,,,5,,,,65,92
111366,note_on,,,,,32,0,9,,,,,8,,,,41,92
111389,note_on,,,,,32,0,7,,,,,6,,,,65,0
111389,note_on,,,,,0,0,7,,,,,6,,,,67,92
111390,note_on,,,,,32,0,1,,,,,0,,,,77,0
111390,note_on,,,,,0,0,1,,,,,0,,,,79,92
111391,note_on,,,,,0,0,8,,,,,7,,,,55,92
111391,note_on,,,,,32,0,8,,,,,7,,,,53,0
111392,note_on,,,,,32,0,5,,,,,4,,,,65,0
111392,note_on,,,,,0,0,5,,,,,4,,,,67,92
111397,note_on,,,,,0,0,6,,,,,5,,,,67,92
111397,note_on,,,,,32,0,6,,,,,5,,,,65,0
111398,note_on,,,,,0,0,9,,,,,8,,,,43,92
111398,note_on,,,,,32,0,9,,,,,8,,,,41,0
111421,note_on,,,,,32,0,7,,,,,6,,,,67,0
111421,note_on,,,,,0,0,7,,,,,6,,,,65,92
111422,note_on,,,,,32,0,1,,,,,0,,,,79,0
111422,note_on,,,,,0,0,1,,,,,0,,,,77,92
111423,note_on,,,,,0,0,8,,,,,7,,,,53,92
111423,note_on,,,,,32,0,8,,,,,7,,,,55,0
111424,note_on,,,,,32,0,5,,,,,4,,,,67,0
111424,note_on,,,,,0,0,5,,,,,4,,,,65,92
111429,note_on,,,,,32,0,6,,,,,5,,,,67,0
111429,note_on,,,,,0,0,6,,,,,5,,,,65,92
111430,note_on,,,,,0,0,9,,,,,8,,,,41,92
111430,note_on,,,,,32,0,9,,,,,8,,,,43,0
111453,note_on,,,,,0,0,7,,,,,6,,,,67,92
111453,note_on,,,,,32,0,7,,,,,6,,,,65,0
111454,note_on,,,,,32,0,1,,,,,0,,,,77,0
111454,note_on,,,,,0,0,1,,,,,0,,,,79,92
111455,note_on,,,,,32,0,8,,,,,7,,,,53,0
111455,note_on,,,,,0,0,8,,,,,7,,,,55,92
111456,note_on,,,,,32,0,5,,,,,4,,,,65,0
111456,note_on,,,,,0,0,5,,,,,4,,,,67,92
111461,note_on,,,,,32,0,6,,,,,5,,,,65,0
111461,note_on,,,,,0,0,6,,,,,5,,,,67,92
111462,note_on,,,,,0,0,9,,,,,8,,,,43,92
111462,note_on,,,,,32,0,9,,,,,8,,,,41,0
111485,note_on,,,,,0,0,7,,,,,6,,,,65,92
111485,note_on,,,,,32,0,7,,,,,6,,,,67,0
111486,note_on,,,,,32,0,1,,,,,0,,,,79,0
111486,note_on,,,,,0,0,1,,,,,0,,,,77,92
111487,note_on,,,,,0,0,8,,,,,7,,,,53,92
111487,note_on,,,,,32,0,8,,,,,7,,,,55,0
111488,note_on,,,,,0,0,5,,,,,4,,,,65,92
111488,note_on,,,,,32,0,5,,,,,4,,,,67,0
111493,note_on,,,,,32,0,6,,,,,5,,,,67,0
111493,note_on,,,,,0,0,6,,,,,5,,,,65,92
111494,note_on,,,,,0,0,9,,,,,8,,,,41,92
111494,note_on,,,,,32,0,9,,,,,8,,,,43,0
111517,note_on,,,,,32,0,7,,,,,6,,,,65,0
111517,note_on,,,,,0,0,7,,,,,6,,,,67,92
111518,note_on,,,,,32,0,1,,,,,0,,,,77,0
111518,note_on,,,,,0,0,1,,,,,0,,,,79,92
111519,note_on,,,,,32,0,8,,,,,7,,,,53,0
111519,note_on,,,,,0,0,8,,,,,7,,,,55,92
111520,note_on,,,,,0,0,5,,,,,4,,,,67,92
111520,note_on,,,,,32,0,5,,,,,4,,,,65,0
111525,note_on,,,,,0,0,6,,,,,5,,,,67,92
111525,note_on,,,,,32,0,6,,,,,5,,,,65,0
111526,note_on,,,,,32,0,9,,,,,8,,,,41,0
111526,note_on,,,,,0,0,9,,,,,8,,,,43,92
111549,note_on,,,,,0,0,7,,,,,6,,,,65,92
111549,note_on,,,,,32,0,7,,,,,6,,,,67,0
111550,note_on,,,,,32,0,1,,,,,0,,,,79,0
111550,note_on,,,,,0,0,1,,,,,0,,,,77,92
111551,note_on,,,,,0,0,8,,,,,7,,,,53,92
111551,note_on,,,,,32,0,8,,,,,7,,,,55,0
111552,note_on,,,,,0,0,5,,,,,4,,,,65,92
111552,note_on,,,,,32,0,5,,,,,4,,,,67,0
111557,note_on,,,,,32,0,6,,,,,5,,,,67,0
111557,note_on,,,,,0,0,6,,,,,5,,,,65,92
111558,note_on,,,,,0,0,9,,,,,8,,,,41,92
111558,note_on,,,,,32,0,9,,,,,8,,,,43,0
111581,note_on,,,,,0,0,7,,,,,6,,,,67,92
111581,note_on,,,,,32,0,7,,,,,6,,,,65,0
111582,note_on,,,,,0,0,1,,,,,0,,,,79,92
111582,note_on,,,,,32,0,1,,,,,0,,,,77,0
111583,note_on,,,,,0,0,8,,,,,7,,,,55,92
111583,note_on,,,,,32,0,8,,,,,7,,,,53,0
111584,note_on,,,,,0,0,5,,,,,4,,,,67,92
111584,note_on,,,,,32,0,5,,,,,4,,,,65,0
111589,note_on,,,,,0,0,6,,,,,5,,,,67,92
111589,note_on,,,,,32,0,6,,,,,5,,,,65,0
111590,note_on,,,,,0,0,9,,,,,8,,,,43,92
111590,note_on,,,,,32,0,9,,,,,8,,,,41,0
111613,note_on,,,,,32,0,7,,,,,6,,,,67,0
111613,note_on,,,,,0,0,7,,,,,6,,,,65,92
111614,note_on,,,,,32,0,1,,,,,0,,,,79,0
111614,note_on,,,,,0,0,1,,,,,0,,,,77,92
111615,note_on,,,,,0,0,8,,,,,7,,,,53,92
111615,note_on,,,,,32,0,8,,,,,7,,,,55,0
111616,note_on,,,,,0,0,5,,,,,4,,,,65,92
111616,note_on,,,,,32,0,5,,,,,4,,,,67,0
111621,note_on,,,,,0,0,6,,,,,5,,,,65,92
111621,note_on,,,,,32,0,6,,,,,5,,,,67,0
111622,note_on,,,,,0,0,9,,,,,8,,,,41,92
111622,note_on,,,,,32,0,9,,,,,8,,,,43,0
111645,note_on,,,,,0,0,7,,,,,6,,,,64,92
111645,note_on,,,,,32,0,7,,,,,6,,,,65,0
111646,note_on,,,,,32,0,1,,,,,0,,,,77,0
111646,note_on,,,,,0,0,1,,,,,0,,,,76,92
111647,note_on,,,,,32,0,8,,,,,7,,,,53,0
111647,note_on,,,,,0,0,8,,,,,7,,,,52,92
111648,note_on,,,,,32,0,5,,,,,4,,,,65,0
111648,note_on,,,,,0,0,5,,,,,4,,,,64,92
111653,note_on,,,,,0,0,6,,,,,5,,,,64,92
111653,note_on,,,,,32,0,6,,,,,5,,,,65,0
111654,note_on,,,,,0,0,9,,,,,8,,,,40,92
111654,note_on,,,,,32,0,9,,,,,8,,,,41,0
111693,note_on,,,,,48,0,7,,,,,6,,,,64,0
111693,note_on,,,,,0,0,7,,,,,6,,,,62,92
111694,note_on,,,,,0,0,1,,,,,0,,,,74,92
111694,note_on,,,,,48,0,1,,,,,0,,,,76,0
111695,note_on,,,,,0,0,8,,,,,7,,,,50,92
111695,note_on,,,,,48,0,8,,,,,7,,,,52,0
111696,note_on,,,,,0,0,5,,,,,4,,,,62,92
111696,note_on,,,,,48,0,5,,,,,4,,,,64,0
111701,note_on,,,,,48,0,6,,,,,5,,,,64,0
111701,note_on,,,,,0,0,6,,,,,5,,,,62,92
111702,note_on,,,,,48,0,9,,,,,8,,,,40,0
111702,note_on,,,,,0,0,9,,,,,8,,,,38,92
111739,note_on,,,,,46,0,7,,,,,6,,,,62,0
111740,note_on,,,,,46,0,1,,,,,0,,,,74,0
111741,note_on,,,,,46,0,8,,,,,7,,,,50,0
111741,note_on,,,,,2,0,7,,,,,6,,,,60,92
111742,note_on,,,,,2,0,1,,,,,0,,,,72,92
111742,note_on,,,,,46,0,5,,,,,4,,,,62,0
111743,note_on,,,,,2,0,8,,,,,7,,,,48,92
111744,set_tempo,,,,,1152,1,0,,461538,,,,,,,,
111744,note_on,,,,,2,0,5,,,,,4,,,,60,92
111747,note_on,,,,,46,0,6,,,,,5,,,,62,0
111748,note_on,,,,,46,0,9,,,,,8,,,,38,0
111749,note_on,,,,,2,0,6,,,,,5,,,,60,92
111750,note_on,,,,,2,0,9,,,,,8,,,,36,92
111796,note_on,,,,,1008,0,4,,,,,3,,,,36,92
111844,note_on,,,,,0,0,4,,,,,3,,,,40,92
111844,note_on,,,,,48,0,4,,,,,3,,,,36,0
111892,note_on,,,,,48,0,4,,,,,3,,,,40,0
111892,note_on,,,,,0,0,4,,,,,3,,,,43,92
111901,note_on,,,,,160,0,7,,,,,6,,,,60,0
111902,note_on,,,,,160,0,1,,,,,0,,,,72,0
111903,note_on,,,,,160,0,8,,,,,7,,,,48,0
111904,note_on,,,,,160,0,5,,,,,4,,,,60,0
111909,note_on,,,,,160,0,6,,,,,5,,,,60,0
111910,note_on,,,,,160,0,9,,,,,8,,,,36,0
111940,note_on,,,,,0,0,4,,,,,3,,,,48,92
111940,note_on,,,,,48,0,4,,,,,3,,,,43,0
111980,note_on,,,,,1200,0,3,,,,,2,,,,55,108
112028,note_on,,,,,48,0,3,,,,,2,,,,55,0
112028,note_on,,,,,0,0,3,,,,,2,,,,60,108
112036,note_on,,,,,96,0,4,,,,,3,,,,48,0
112076,note_on,,,,,48,0,3,,,,,2,,,,60,0
112076,note_on,,,,,0,0,3,,,,,2,,,,64,108
112124,note_on,,,,,48,0,3,,,,,2,,,,64,0
112124,note_on,,,,,0,0,3,,,,,2,,,,67,108
112180,note_on,,,,,144,0,4,,,,,3,,,,48,92
112220,note_on,,,,,96,0,3,,,,,2,,,,67,0
112228,note_on,,,,,48,0,4,,,,,3,,,,48,0
112228,note_on,,,,,0,0,4,,,,,3,,,,52,92
112276,note_on,,,,,48,0,4,,,,,3,,,,52,0
112276,note_on,,,,,0,0,4,,,,,3,,,,55,92
112320,set_tempo,,,,,576,1,0,,500000,,,,,,,,
112324,note_on,,,,,0,0,4,,,,,3,,,,60,92
112324,note_on,,,,,48,0,4,,,,,3,,,,55,0
112364,note_on,,,,,144,0,3,,,,,2,,,,70,108
112412,note_on,,,,,48,0,3,,,,,2,,,,70,0
112412,note_on,,,,,0,0,3,,,,,2,,,,76,108
112460,note_on,,,,,0,0,3,,,,,2,,,,79,108
112460,note_on,,,,,48,0,3,,,,,2,,,,76,0
112508,note_on,,,,,48,0,3,,,,,2,,,,79,0
112508,note_on,,,,,0,0,3,,,,,2,,,,82,92
112512,set_tempo,,,,,192,1,0,,400000,,,,,,,,
112516,note_on,,,,,192,0,4,,,,,3,,,,60,0
112556,note_on,,,,,48,0,3,,,,,2,,,,82,0
112556,note_on,,,,,0,0,3,,,,,2,,,,80,92
112604,note_on,,,,,0,0,3,,,,,2,,,,79,92
112604,note_on,,,,,48,0,3,,,,,2,,,,80,0
112612,note_on,,,,,96,0,4,,,,,3,,,,48,92
112644,note_on,,,,,32,0,4,,,,,3,,,,48,0
112652,note_on,,,,,0,0,3,,,,,2,,,,77,92
112652,note_on,,,,,48,0,3,,,,,2,,,,79,0
112700,note_on,,,,,48,0,3,,,,,2,,,,77,0
112700,note_on,,,,,0,0,3,,,,,2,,,,76,92
112704,set_tempo,,,,,192,1,0,,413793,,,,,,,,
112708,note_on,,,,,64,0,4,,,,,3,,,,55,92
112740,note_on,,,,,32,0,4,,,,,3,,,,55,0
112748,note_on,,,,,0,0,3,,,,,2,,,,73,92
112748,note_on,,,,,48,0,3,,,,,2,,,,76,0
112796,note_on,,,,,0,0,3,,,,,2,,,,72,92
112796,note_on,,,,,48,0,3,,,,,2,,,,73,0
112804,note_on,,,,,64,0,4,,,,,3,,,,52,92
112836,note_on,,,,,32,0,4,,,,,3,,,,52,0
112844,note_on,,,,,48,0,3,,,,,2,,,,72,0
112844,note_on,,,,,0,0,3,,,,,2,,,,70,92
112892,note_on,,,,,0,0,3,,,,,2,,,,68,92
112892,note_on,,,,,48,0,3,,,,,2,,,,70,0
112896,set_tempo,,,,,192,1,0,,428571,,,,,,,,
112900,note_on,,,,,64,0,4,,,,,3,,,,53,92
113084,note_on,,,,,192,0,3,,,,,2,,,,68,0
113085,note_on,,,,,1184,0,7,,,,,6,,,,77,92
113086,note_on,,,,,1184,0,1,,,,,0,,,,77,92
113087,note_on,,,,,1184,0,8,,,,,7,,,,65,92
113088,note_on,,,,,1184,0,5,,,,,4,,,,77,92
113092,note_on,,,,,192,0,4,,,,,3,,,,53,0
113093,note_on,,,,,1184,0,6,,,,,5,,,,77,92
113094,note_on,,,,,1184,0,9,,,,,8,,,,53,92
113117,note_on,,,,,0,0,7,,,,,6,,,,79,92
113117,note_on,,,,,32,0,7,,,,,6,,,,77,0
113118,note_on,,,,,0,0,1,,,,,0,,,,79,92
113118,note_on,,,,,32,0,1,,,,,0,,,,77,0
113119,note_on,,,,,0,0,8,,,,,7,,,,67,92
113119,note_on,,,,,32,0,8,,,,,7,,,,65,0
113120,note_on,,,,,0,0,5,,,,,4,,,,79,92
113120,note_on,,,,,32,0,5,,,,,4,,,,77,0
113125,note_on,,,,,32,0,6,,,,,5,,,,77,0
113125,note_on,,,,,0,0,6,,,,,5,,,,79,92
113126,note_on,,,,,0,0,9,,,,,8,,,,55,92
113126,note_on,,,,,32,0,9,,,,,8,,,,53,0
113149,note_on,,,,,0,0,7,,,,,6,,,,77,92
113149,note_on,,,,,32,0,7,,,,,6,,,,79,0
113150,note_on,,,,,32,0,1,,,,,0,,,,79,0
113150,note_on,,,,,0,0,1,,,,,0,,,,77,92
113151,note_on,,,,,32,0,8,,,,,7,,,,67,0
113151,note_on,,,,,0,0,8,,,,,7,,,,65,92
113152,note_on,,,,,0,0,5,,,,,4,,,,77,92
113152,note_on,,,,,32,0,5,,,,,4,,,,79,0
113157,note_on,,,,,0,0,6,,,,,5,,,,77,92
113157,note_on,,,,,32,0,6,,,,,5,,,,79,0
113158,note_on,,,,,32,0,9,,,,,8,,,,55,0
113158,note_on,,,,,0,0,9,,,,,8,,,,53,92
113181,note_on,,,,,0,0,7,,,,,6,,,,79,92
113181,note_on,,,,,32,0,7,,,,,6,,,,77,0
113182,note_on,,,,,32,0,1,,,,,0,,,,77,0
113182,note_on,,,,,0,0,1,,,,,0,,,,79,92
113183,note_on,,,,,0,0,8,,,,,7,,,,67,92
113183,note_on,,,,,32,0,8,,,,,7,,,,65,0
113184,note_on,,,,,0,0,5,,,,,4,,,,79,92
113184,note_on,,,,,32,0,5,,,,,4,,,,77,0
113189,note_on,,,,,0,0,6,,,,,5,,,,79,92
113189,note_on,,,,,32,0,6,,,,,5,,,,77,0
113190,note_on,,,,,0,0,9,,,,,8,,,,55,92
113190,note_on,,,,,32,0,9,,,,,8,,,,53,0
113213,note_on,,,,,0,0,7,,,,,6,,,,77,92
113213,note_on,,,,,32,0,7,,,,,6,,,,79,0
113214,note_on,,,,,0,0,1,,,,,0,,,,77,92
113214,note_on,,,,,32,0,1,,,,,0,,,,79,0
113215,note_on,,,,,32,0,8,,,,,7,,,,67,0
113215,note_on,,,,,0,0,8,,,,,7,,,,65,92
113216,note_on,,,,,32,0,5,,,,,4,,,,79,0
113216,note_on,,,,,0,0,5,,,,,4,,,,77,92
113221,note_on,,,,,32,0,6,,,,,5,,,,79,0
113221,note_on,,,,,0,0,6,,,,,5,,,,77,92
113222,note_on,,,,,0,0,9,,,,,8,,,,53,92
113222,note_on,,,,,32,0,9,,,,,8,,,,55,0
113245,note_on,,,,,32,0,7,,,,,6,,,,77,0
113245,note_on,,,,,0,0,7,,,,,6,,,,79,92
113246,note_on,,,,,32,0,1,,,,,0,,,,77,0
113246,note_on,,,,,0,0,1,,,,,0,,,,79,92
113247,note_on,,,,,32,0,8,,,,,7,,,,65,0
113247,note_on,,,,,0,0,8,,,,,7,,,,67,92
113248,note_on,,,,,32,0,5,,,,,4,,,,77,0
113248,note_on,,,,,0,0,5,,,,,4,,,,79,92
113253,note_on,,,,,0,0,6,,,,,5,,,,79,92
113253,note_on,,,,,32,0,6,,,,,5,,,,77,0
113254,note_on,,,,,0,0,9,,,,,8,,,,55,92
113254,note_on,,,,,32,0,9,,,,,8,,,,53,0
113277,note_on,,,,,0,0,7,,,,,6,,,,77,92
113277,note_on,,,,,32,0,7,,,,,6,,,,79,0
113278,note_on,,,,,32,0,1,,,,,0,,,,79,0
113278,note_on,,,,,0,0,1,,,,,0,,,,77,92
113279,note_on,,,,,32,0,8,,,,,7,,,,67,0
113279,note_on,,,,,0,0,8,,,,,7,,,,65,92
113280,note_on,,,,,32,0,5,,,,,4,,,,79,0
113280,note_on,,,,,0,0,5,,,,,4,,,,77,92
113285,note_on,,,,,32,0,6,,,,,5,,,,79,0
113285,note_on,,,,,0,0,6,,,,,5,,,,77,92
113286,note_on,,,,,32,0,9,,,,,8,,,,55,0
113286,note_on,,,,,0,0,9,,,,,8,,,,53,92
113309,note_on,,,,,0,0,7,,,,,6,,,,79,92
113309,note_on,,,,,32,0,7,,,,,6,,,,77,0
113310,note_on,,,,,32,0,1,,,,,0,,,,77,0
113310,note_on,,,,,0,0,1,,,,,0,,,,79,92
113311,note_on,,,,,0,0,8,,,,,7,,,,67,92
113311,note_on,,,,,32,0,8,,,,,7,,,,65,0
113312,note_on,,,,,0,0,5,,,,,4,,,,79,92
113312,note_on,,,,,32,0,5,,,,,4,,,,77,0
113317,note_on,,,,,0,0,6,,,,,5,,,,79,92
113317,note_on,,,,,32,0,6,,,,,5,,,,77,0
113318,note_on,,,,,32,0,9,,,,,8,,,,53,0
113318,note_on,,,,,0,0,9,,,,,8,,,,55,92
113341,note_on,,,,,0,0,7,,,,,6,,,,77,92
113341,note_on,,,,,32,0,7,,,,,6,,,,79,0
113342,note_on,,,,,0,0,1,,,,,0,,,,77,92
113342,note_on,,,,,32,0,1,,,,,0,,,,79,0
113343,note_on,,,,,0,0,8,,,,,7,,,,65,92
113343,note_on,,,,,32,0,8,,,,,7,,,,67,0
113344,note_on,,,,,32,0,5,,,,,4,,,,79,0
113344,note_on,,,,,0,0,5,,,,,4,,,,77,92
113349,note_on,,,,,0,0,6,,,,,5,,,,77,92
113349,note_on,,,,,32,0,6,,,,,5,,,,79,0
113350,note_on,,,,,32,0,9,,,,,8,,,,55,0
113350,note_on,,,,,0,0,9,,,,,8,,,,53,92
113373,note_on,,,,,32,0,7,,,,,6,,,,77,0
113373,note_on,,,,,0,0,7,,,,,6,,,,75,92
113374,note_on,,,,,32,0,1,,,,,0,,,,77,0
113374,note_on,,,,,0,0,1,,,,,0,,,,75,92
113375,note_on,,,,,0,0,8,,,,,7,,,,63,92
113375,note_on,,,,,32,0,8,,,,,7,,,,65,0
113376,note_on,,,,,32,0,5,,,,,4,,,,77,0
113376,note_on,,,,,0,0,5,,,,,4,,,,75,92
113381,note_on,,,,,0,0,6,,,,,5,,,,75,92
113381,note_on,,,,,32,0,6,,,,,5,,,,77,0
113382,note_on,,,,,0,0,9,,,,,8,,,,51,92
113382,note_on,,,,,32,0,9,,,,,8,,,,53,0
113421,note_on,,,,,0,0,7,,,,,6,,,,73,92
113421,note_on,,,,,48,0,7,,,,,6,,,,75,0
113422,note_on,,,,,0,0,1,,,,,0,,,,73,92
113422,note_on,,,,,48,0,1,,,,,0,,,,75,0
113423,note_on,,,,,48,0,8,,,,,7,,,,63,0
113423,note_on,,,,,0,0,8,,,,,7,,,,61,92
113424,note_on,,,,,0,0,5,,,,,4,,,,73,92
113424,note_on,,,,,48,0,5,,,,,4,,,,75,0
113429,note_on,,,,,48,0,6,,,,,5,,,,75,0
113429,note_on,,,,,0,0,6,,,,,5,,,,73,92
113430,note_on,,,,,0,0,9,,,,,8,,,,49,92
113430,note_on,,,,,48,0,9,,,,,8,,,,51,0
113467,note_on,,,,,46,0,7,,,,,6,,,,73,0
113468,note_on,,,,,46,0,1,,,,,0,,,,73,0
113469,note_on,,,,,46,0,8,,,,,7,,,,61,0
113469,note_on,,,,,2,0,7,,,,,6,,,,72,92
113470,note_on,,,,,2,0,1,,,,,0,,,,72,92
113470,note_on,,,,,46,0,5,,,,,4,,,,73,0
113471,note_on,,,,,2,0,8,,,,,7,,,,60,92
113472,note_on,,,,,2,0,5,,,,,4,,,,72,92
113475,note_on,,,,,46,0,6,,,,,5,,,,73,0
113476,note_on,,,,,46,0,9,,,,,8,,,,49,0
113477,note_on,,,,,2,0,6,,,,,5,,,,72,92
113478,note_on,,,,,2,0,9,,,,,8,,,,48,92
113629,note_on,,,,,160,0,7,,,,,6,,,,72,0
113630,note_on,,,,,160,0,1,,,,,0,,,,72,0
113631,note_on,,,,,160,0,8,,,,,7,,,,60,0
113632,note_on,,,,,160,0,5,,,,,4,,,,72,0
113637,note_on,,,,,160,0,6,,,,,5,,,,72,0
113638,note_on,,,,,160,0,9,,,,,8,,,,48,0
113661,note_on,,,,,32,0,7,,,,,6,,,,70,92
113662,note_on,,,,,32,0,1,,,,,0,,,,82,92
113663,note_on,,,,,32,0,8,,,,,7,,,,58,92
113664,note_on,,,,,32,0,5,,,,,4,,,,70,92
113669,note_on,,,,,32,0,6,,,,,5,,,,70,92
113670,note_on,,,,,32,0,9,,,,,8,,,,46,92
113693,note_on,,,,,0,0,7,,,,,6,,,,72,92
113693,note_on,,,,,32,0,7,,,,,6,,,,70,0
113694,note_on,,,,,32,0,1,,,,,0,,,,82,0
113694,note_on,,,,,0,0,1,,,,,0,,,,84,92
113695,note_on,,,,,32,0,8,,,,,7,,,,58,0
113695,note_on,,,,,0,0,8,,,,,7,,,,60,92
113696,note_on,,,,,32,0,5,,,,,4,,,,70,0
113696,note_on,,,,,0,0,5,,,,,4,,,,72,92
113701,note_on,,,,,32,0,6,,,,,5,,,,70,0
113701,note_on,,,,,0,0,6,,,,,5,,,,72,92
113702,note_on,,,,,32,0,9,,,,,8,,,,46,0
113702,note_on,,,,,0,0,9,,,,,8,,,,48,92
113725,note_on,,,,,32,0,7,,,,,6,,,,72,0
113725,note_on,,,,,0,0,7,,,,,6,,,,70,92
113726,note_on,,,,,32,0,1,,,,,0,,,,84,0
113726,note_on,,,,,0,0,1,,,,,0,,,,82,92
113727,note_on,,,,,0,0,8,,,,,7,,,,58,92
113727,note_on,,,,,32,0,8,,,,,7,,,,60,0
113728,note_on,,,,,32,0,5,,,,,4,,,,72,0
113728,note_on,,,,,0,0,5,,,,,4,,,,70,92
113733,note_on,,,,,32,0,6,,,,,5,,,,72,0
113733,note_on,,,,,0,0,6,,,,,5,,,,70,92
113734,note_on,,,,,0,0,9,,,,,8,,,,46,92
113734,note_on,,,,,32,0,9,,,,,8,,,,48,0
113757,note_on,,,,,0,0,7,,,,,6,,,,72,92
113757,note_on,,,,,32,0,7,,,,,6,,,,70,0
113758,note_on,,,,,32,0,1,,,,,0,,,,82,0
113758,note_on,,,,,0,0,1,,,,,0,,,,84,92
113759,note_on,,,,,32,0,8,,,,,7,,,,58,0
113759,note_on,,,,,0,0,8,,,,,7,,,,60,92
113760,note_on,,,,,32,0,5,,,,,4,,,,70,0
113760,note_on,,,,,0,0,5,,,,,4,,,,72,92
113765,note_on,,,,,0,0,6,,,,,5,,,,72,92
113765,note_on,,,,,32,0,6,,,,,5,,,,70,0
113766,note_on,,,,,32,0,9,,,,,8,,,,46,0
113766,note_on,,,,,0,0,9,,,,,8,,,,48,92
113789,note_on,,,,,0,0,7,,,,,6,,,,70,92
113789,note_on,,,,,32,0,7,,,,,6,,,,72,0
113790,note_on,,,,,0,0,1,,,,,0,,,,82,92
113790,note_on,,,,,32,0,1,,,,,0,,,,84,0
113791,note_on,,,,,0,0,8,,,,,7,,,,58,92
113791,note_on,,,,,32,0,8,,,,,7,,,,60,0
113792,note_on,,,,,32,0,5,,,,,4,,,,72,0
113792,note_on,,,,,0,0,5,,,,,4,,,,70,92
113797,note_on,,,,,0,0,6,,,,,5,,,,70,92
113797,note_on,,,,,32,0,6,,,,,5,,,,72,0
113798,note_on,,,,,32,0,9,,,,,8,,,,48,0
113798,note_on,,,,,0,0,9,,,,,8,,,,46,92
113821,note_on,,,,,0,0,7,,,,,6,,,,72,92
113821,note_on,,,,,32,0,7,,,,,6,,,,70,0
113822,note_on,,,,,32,0,1,,,,,0,,,,82,0
113822,note_on,,,,,0,0,1,,,,,0,,,,84,92
113823,note_on,,,,,0,0,8,,,,,7,,,,60,92
113823,note_on,,,,,32,0,8,,,,,7,,,,58,0
113824,note_on,,,,,0,0,5,,,,,4,,,,72,92
113824,note_on,,,,,32,0,5,,,,,4,,,,70,0
113829,note_on,,,,,32,0,6,,,,,5,,,,70,0
113829,note_on,,,,,0,0,6,,,,,5,,,,72,92
113830,note_on,,,,,0,0,9,,,,,8,,,,48,92
113830,note_on,,,,,32,0,9,,,,,8,,,,46,0
113853,note_on,,,,,32,0,7,,,,,6,,,,72,0
113853,note_on,,,,,0,0,7,,,,,6,,,,70,92
113854,note_on,,,,,32,0,1,,,,,0,,,,84,0
113854,note_on,,,,,0,0,1,,,,,0,,,,82,92
113855,note_on,,,,,32,0,8,,,,,7,,,,60,0
113855,note_on,,,,,0,0,8,,,,,7,,,,58,92
113856,note_on,,,,,32,0,5,,,,,4,,,,72,0
113856,note_on,,,,,0,0,5,,,,,4,,,,70,92
113861,note_on,,,,,0,0,6,,,,,5,,,,70,92
113861,note_on,,,,,32,0,6,,,,,5,,,,72,0
113862,note_on,,,,,0,0,9,,,,,8,,,,46,92
113862,note_on,,,,,32,0,9,,,,,8,,,,48,0
113885,note_on,,,,,0,0,7,,,,,6,,,,72,92
113885,note_on,,,,,32,0,7,,,,,6,,,,70,0
113886,note_on,,,,,0,0,1,,,,,0,,,,84,92
113886,note_on,,,,,32,0,1,,,,,0,,,,82,0
113887,note_on,,,,,0,0,8,,,,,7,,,,60,92
113887,note_on,,,,,32,0,8,,,,,7,,,,58,0
113888,note_on,,,,,0,0,5,,,,,4,,,,72,92
113888,note_on,,,,,32,0,5,,,,,4,,,,70,0
113893,note_on,,,,,0,0,6,,,,,5,,,,72,92
113893,note_on,,,,,32,0,6,,,,,5,,,,70,0
113894,note_on,,,,,0,0,9,,,,,8,,,,48,92
113894,note_on,,,,,32,0,9,,,,,8,,,,46,0
113917,note_on,,,,,32,0,7,,,,,6,,,,72,0
113917,note_on,,,,,0,0,7,,,,,6,,,,70,92
113918,note_on,,,,,32,0,1,,,,,0,,,,84,0
113918,note_on,,,,,0,0,1,,,,,0,,,,82,92
113919,note_on,,,,,32,0,8,,,,,7,,,,60,0
113919,note_on,,,,,0,0,8,,,,,7,,,,58,92
113920,note_on,,,,,32,0,5,,,,,4,,,,72,0
113920,note_on,,,,,0,0,5,,,,,4,,,,70,92
113925,note_on,,,,,0,0,6,,,,,5,,,,70,92
113925,note_on,,,,,32,0,6,,,,,5,,,,72,0
113926,note_on,,,,,32,0,9,,,,,8,,,,48,0
113926,note_on,,,,,0,0,9,,,,,8,,,,46,92
113949,note_on,,,,,32,0,7,,,,,6,,,,70,0
113949,note_on,,,,,0,0,7,,,,,6,,,,68,92
113950,note_on,,,,,0,0,1,,,,,0,,,,80,92
113950,note_on,,,,,32,0,1,,,,,0,,,,82,0
113951,note_on,,,,,0,0,8,,,,,7,,,,56,92
113951,note_on,,,,,32,0,8,,,,,7,,,,58,0
113952,note_on,,,,,32,0,5,,,,,4,,,,70,0
113952,note_on,,,,,0,0,5,,,,,4,,,,68,92
113957,note_on,,,,,0,0,6,,,,,5,,,,68,92
113957,note_on,,,,,32,0,6,,,,,5,,,,70,0
113958,note_on,,,,,32,0,9,,,,,8,,,,46,0
113958,note_on,,,,,0,0,9,,,,,8,,,,44,92
113997,note_on,,,,,0,0,7,,,,,6,,,,67,92
113997,note_on,,,,,48,0,7,,,,,6,,,,68,0
113998,note_on,,,,,0,0,1,,,,,0,,,,79,92
113998,note_on,,,,,48,0,1,,,,,0,,,,80,0
113999,note_on,,,,,0,0,8,,,,,7,,,,55,92
113999,note_on,,,,,48,0,8,,,,,7,,,,56,0
114000,note_on,,,,,0,0,5,,,,,4,,,,67,92
114000,note_on,,,,,48,0,5,,,,,4,,,,68,0
114005,note_on,,,,,48,0,6,,,,,5,,,,68,0
114005,note_on,,,,,0,0,6,,,,,5,,,,67,92
114006,note_on,,,,,48,0,9,,,,,8,,,,44,0
114006,note_on,,,,,0,0,9,,,,,8,,,,43,92
114043,note_on,,,,,46,0,7,,,,,6,,,,67,0
114044,note_on,,,,,46,0,1,,,,,0,,,,79,0
114045,note_on,,,,,2,0,7,,,,,6,,,,65,92
114045,note_on,,,,,46,0,8,,,,,7,,,,55,0
114046,note_on,,,,,2,0,1,,,,,0,,,,77,92
114046,note_on,,,,,46,0,5,,,,,4,,,,67,0
114047,note_on,,,,,2,0,8,,,,,7,,,,53,92
114048,set_tempo,,,,,1152,1,0,,500000,,,,,,,,
114048,note_on,,,,,2,0,5,,,,,4,,,,65,92
114051,note_on,,,,,46,0,6,,,,,5,,,,67,0
114052,note_on,,,,,46,0,9,,,,,8,,,,43,0
114053,note_on,,,,,2,0,6,,,,,5,,,,65,92
114054,note_on,,,,,2,0,9,,,,,8,,,,41,92
114100,note_on,,,,,1008,0,4,,,,,3,,,,41,92
114148,note_on,,,,,48,0,4,,,,,3,,,,41,0
114148,note_on,,,,,0,0,4,,,,,3,,,,44,92
114196,note_on,,,,,48,0,4,,,,,3,,,,44,0
114196,note_on,,,,,0,0,4,,,,,3,,,,48,92
114205,note_on,,,,,160,0,7,,,,,6,,,,65,0
114206,note_on,,,,,160,0,1,,,,,0,,,,77,0
114207,note_on,,,,,160,0,8,,,,,7,,,,53,0
114208,note_on,,,,,160,0,5,,,,,4,,,,65,0
114213,note_on,,,,,160,0,6,,,,,5,,,,65,0
114214,note_on,,,,,160,0,9,,,,,8,,,,41,0
114244,note_on,,,,,48,0,4,,,,,3,,,,48,0
114244,note_on,,,,,0,0,4,,,,,3,,,,53,92
114284,note_on,,,,,1200,0,3,,,,,2,,,,56,108
114332,note_on,,,,,0,0,3,,,,,2,,,,60,108
114332,note_on,,,,,48,0,3,,,,,2,,,,56,0
114340,note_on,,,,,96,0,4,,,,,3,,,,53,0
114380,note_on,,,,,48,0,3,,,,,2,,,,60,0
114380,note_on,,,,,0,0,3,,,,,2,,,,65,108
114428,note_on,,,,,48,0,3,,,,,2,,,,65,0
114428,note_on,,,,,0,0,3,,,,,2,,,,68,108
114484,note_on,,,,,144,0,4,,,,,3,,,,53,92
114524,note_on,,,,,96,0,3,,,,,2,,,,68,0
114532,note_on,,,,,48,0,4,,,,,3,,,,53,0
114532,note_on,,,,,0,0,4,,,,,3,,,,56,92
114580,note_on,,,,,48,0,4,,,,,3,,,,56,0
114580,note_on,,,,,0,0,4,,,,,3,,,,60,92
114624,set_tempo,,,,,576,1,0,,545455,,,,,,,,
114628,note_on,,,,,0,0,4,,,,,3,,,,65,92
114628,note_on,,,,,48,0,4,,,,,3,,,,60,0
114668,note_on,,,,,144,0,3,,,,,2,,,,68,108
114716,note_on,,,,,0,0,3,,,,,2,,,,72,108
114716,note_on,,,,,48,0,3,,,,,2,,,,68,0
114764,note_on,,,,,48,0,3,,,,,2,,,,72,0
114764,note_on,,,,,0,0,3,,,,,2,,,,77,108
114812,note_on,,,,,48,0,3,,,,,2,,,,77,0
114812,note_on,,,,,0,0,3,,,,,2,,,,80,92
114816,set_tempo,,,,,192,1,0,,413793,,,,,,,,
114820,note_on,,,,,192,0,4,,,,,3,,,,65,0
114860,note_on,,,,,0,0,3,,,,,2,,,,79,92
114860,note_on,,,,,48,0,3,,,,,2,,,,80,0
114908,note_on,,,,,48,0,3,,,,,2,,,,79,0
114908,note_on,,,,,0,0,3,,,,,2,,,,77,92
114916,note_on,,,,,96,0,4,,,,,3,,,,53,92
114948,note_on,,,,,32,0,4,,,,,3,,,,53,0
114956,note_on,,,,,48,0,3,,,,,2,,,,77,0
114956,note_on,,,,,0,0,3,,,,,2,,,,75,92
115004,note_on,,,,,0,0,3,,,,,2,,,,74,92
115004,note_on,,,,,48,0,3,,,,,2,,,,75,0
115008,set_tempo,,,,,192,1,0,,428571,,,,,,,,
115012,note_on,,,,,64,0,4,,,,,3,,,,56,92
115044,note_on,,,,,32,0,4,,,,,3,,,,56,0
115052,note_on,,,,,0,0,3,,,,,2,,,,72,92
115052,note_on,,,,,48,0,3,,,,,2,,,,74,0
115100,note_on,,,,,0,0,3,,,,,2,,,,71,92
115100,note_on,,,,,48,0,3,,,,,2,,,,72,0
115108,note_on,,,,,64,0,4,,,,,3,,,,53,92
115140,note_on,,,,,32,0,4,,,,,3,,,,53,0
115148,note_on,,,,,0,0,3,,,,,2,,,,72,92
115148,note_on,,,,,48,0,3,,,,,2,,,,71,0
115196,note_on,,,,,0,0,3,,,,,2,,,,71,92
115196,note_on,,,,,48,0,3,,,,,2,,,,72,0
115204,note_on,,,,,64,0,4,,,,,3,,,,55,92
115388,note_on,,,,,192,0,3,,,,,2,,,,71,0
115389,note_on,,,,,1184,0,7,,,,,6,,,,67,92
115390,note_on,,,,,1184,0,1,,,,,0,,,,79,92
115391,note_on,,,,,1184,0,8,,,,,7,,,,55,92
115392,note_on,,,,,1184,0,5,,,,,4,,,,67,92
115396,note_on,,,,,192,0,4,,,,,3,,,,55,0
115397,note_on,,,,,1184,0,6,,,,,5,,,,67,92
115398,note_on,,,,,1184,0,9,,,,,8,,,,43,92
115421,note_on,,,,,0,0,7,,,,,6,,,,68,92
115421,note_on,,,,,32,0,7,,,,,6,,,,67,0
115422,note_on,,,,,32,0,1,,,,,0,,,,79,0
115422,note_on,,,,,0,0,1,,,,,0,,,,80,92
115423,note_on,,,,,32,0,8,,,,,7,,,,55,0
115423,note_on,,,,,0,0,8,,,,,7,,,,56,92
115424,note_on,,,,,0,0,5,,,,,4,,,,68,92
115424,note_on,,,,,32,0,5,,,,,4,,,,67,0
115429,note_on,,,,,32,0,6,,,,,5,,,,67,0
115429,note_on,,,,,0,0,6,,,,,5,,,,68,92
115430,note_on,,,,,32,0,9,,,,,8,,,,43,0
115430,note_on,,,,,0,0,9,,,,,8,,,,44,92
115453,note_on,,,,,32,0,7,,,,,6,,,,68,0
115453,note_on,,,,,0,0,7,,,,,6,,,,67,92
115454,note_on,,,,,0,0,1,,,,,0,,,,79,92
115454,note_on,,,,,32,0,1,,,,,0,,,,80,0
115455,note_on,,,,,32,0,8,,,,,7,,,,56,0
115455,note_on,,,,,0,0,8,,,,,7,,,,55,92
115456,note_on,,,,,32,0,5,,,,,4,,,,68,0
115456,note_on,,,,,0,0,5,,,,,4,,,,67,92
115461,note_on,,,,,0,0,6,,,,,5,,,,67,92
115461,note_on,,,,,32,0,6,,,,,5,,,,68,0
115462,note_on,,,,,32,0,9,,,,,8,,,,44,0
115462,note_on,,,,,0,0,9,,,,,8,,,,43,92
115485,note_on,,,,,32,0,7,,,,,6,,,,67,0
115485,note_on,,,,,0,0,7,,,,,6,,,,68,92
115486,note_on,,,,,32,0,1,,,,,0,,,,79,0
115486,note_on,,,,,0,0,1,,,,,0,,,,80,92
115487,note_on,,,,,32,0,8,,,,,7,,,,55,0
115487,note_on,,,,,0,0,8,,,,,7,,,,56,92
115488,note_on,,,,,0,0,5,,,,,4,,,,68,92
115488,note_on,,,,,32,0,5,,,,,4,,,,67,0
115493,note_on,,,,,32,0,6,,,,,5,,,,67,0
115493,note_on,,,,,0,0,6,,,,,5,,,,68,92
115494,note_on,,,,,32,0,9,,,,,8,,,,43,0
115494,note_on,,,,,0,0,9,,,,,8,,,,44,92
115517,note_on,,,,,0,0,7,,,,,6,,,,67,92
115517,note_on,,,,,32,0,7,,,,,6,,,,68,0
115518,note_on,,,,,0,0,1,,,,,0,,,,79,92
115518,note_on,,,,,32,0,1,,,,,0,,,,80,0
115519,note_on,,,,,0,0,8,,,,,7,,,,55,92
115519,note_on,,,,,32,0,8,,,,,7,,,,56,0
115520,note_on,,,,,32,0,5,,,,,4,,,,68,0
115520,note_on,,,,,0,0,5,,,,,4,,,,67,92
115525,note_on,,,,,0,0,6,,,,,5,,,,67,92
115525,note_on,,,,,32,0,6,,,,,5,,,,68,0
115526,note_on,,,,,32,0,9,,,,,8,,,,44,0
115526,note_on,,,,,0,0,9,,,,,8,,,,43,92
115549,note_on,,,,,0,0,7,,,,,6,,,,68,92
115549,note_on,,,,,32,0,7,,,,,6,,,,67,0
115550,note_on,,,,,32,0,1,,,,,0,,,,79,0
115550,note_on,,,,,0,0,1,,,,,0,,,,80,92
115551,note_on,,,,,32,0,8,,,,,7,,,,55,0
115551,note_on,,,,,0,0,8,,,,,7,,,,56,92
115552,note_on,,,,,32,0,5,,,,,4,,,,67,0
115552,note_on,,,,,0,0,5,,,,,4,,,,68,92
115557,note_on,,,,,0,0,6,,,,,5,,,,68,92
115557,note_on,,,,,32,0,6,,,,,5,,,,67,0
115558,note_on,,,,,32,0,9,,,,,8,,,,43,0
115558,note_on,,,,,0,0,9,,,,,8,,,,44,92
115581,note_on,,,,,0,0,7,,,,,6,,,,67,92
115581,note_on,,,,,32,0,7,,,,,6,,,,68,0
115582,note_on,,,,,32,0,1,,,,,0,,,,80,0
115582,note_on,,,,,0,0,1,,,,,0,,,,79,92
115583,note_on,,,,,32,0,8,,,,,7,,,,56,0
115583,note_on,,,,,0,0,8,,,,,7,,,,55,92
115584,note_on,,,,,0,0,5,,,,,4,,,,67,92
115584,note_on,,,,,32,0,5,,,,,4,,,,68,0
115589,note_on,,,,,32,0,6,,,,,5,,,,68,0
115589,note_on,,,,,0,0,6,,,,,5,,,,67,92
115590,note_on,,,,,32,0,9,,,,,8,,,,44,0
115590,note_on,,,,,0,0,9,,,,,8,,,,43,92
115613,note_on,,,,,32,0,7,,,,,6,,,,67,0
115613,note_on,,,,,0,0,7,,,,,6,,,,68,92
115614,note_on,,,,,0,0,1,,,,,0,,,,80,92
115614,note_on,,,,,32,0,1,,,,,0,,,,79,0
115615,note_on,,,,,0,0,8,,,,,7,,,,56,92
115615,note_on,,,,,32,0,8,,,,,7,,,,55,0
115616,note_on,,,,,32,0,5,,,,,4,,,,67,0
115616,note_on,,,,,0,0,5,,,,,4,,,,68,92
115621,note_on,,,,,0,0,6,,,,,5,,,,68,92
115621,note_on,,,,,32,0,6,,,,,5,,,,67,0
115622,note_on,,,,,32,0,9,,,,,8,,,,43,0
115622,note_on,,,,,0,0,9,,,,,8,,,,44,92
115645,note_on,,,,,0,0,7,,,,,6,,,,67,92
115645,note_on,,,,,32,0,7,,,,,6,,,,68,0
115646,note_on,,,,,32,0,1,,,,,0,,,,80,0
115646,note_on,,,,,0,0,1,,,,,0,,,,79,92
115647,note_on,,,,,32,0,8,,,,,7,,,,56,0
115647,note_on,,,,,0,0,8,,,,,7,,,,55,92
115648,note_on,,,,,32,0,5,,,,,4,,,,68,0
115648,note_on,,,,,0,0,5,,,,,4,,,,67,92
115653,note_on,,,,,0,0,6,,,,,5,,,,67,92
115653,note_on,,,,,32,0,6,,,,,5,,,,68,0
115654,note_on,,,,,0,0,9,,,,,8,,,,43,92
115654,note_on,,,,,32,0,9,,,,,8,,,,44,0
115677,note_on,,,,,0,0,7,,,,,6,,,,65,92
115677,note_on,,,,,32,0,7,,,,,6,,,,67,0
115678,note_on,,,,,32,0,1,,,,,0,,,,79,0
115678,note_on,,,,,0,0,1,,,,,0,,,,77,92
115679,note_on,,,,,32,0,8,,,,,7,,,,55,0
115679,note_on,,,,,0,0,8,,,,,7,,,,53,92
115680,note_on,,,,,0,0,5,,,,,4,,,,65,92
115680,note_on,,,,,32,0,5,,,,,4,,,,67,0
115685,note_on,,,,,32,0,6,,,,,5,,,,67,0
115685,note_on,,,,,0,0,6,,,,,5,,,,65,92
115686,note_on,,,,,32,0,9,,,,,8,,,,43,0
115686,note_on,,,,,0,0,9,,,,,8,,,,41,92
115725,note_on,,,,,0,0,7,,,,,6,,,,63,92
115725,note_on,,,,,48,0,7,,,,,6,,,,65,0
115726,note_on,,,,,48,0,1,,,,,0,,,,77,0
115726,note_on,,,,,0,0,1,,,,,0,,,,75,92
115727,note_on,,,,,0,0,8,,,,,7,,,,51,92
115727,note_on,,,,,48,0,8,,,,,7,,,,53,0
115728,note_on,,,,,48,0,5,,,,,4,,,,65,0
115728,note_on,,,,,0,0,5,,,,,4,,,,63,92
115733,note_on,,,,,48,0,6,,,,,5,,,,65,0
115733,note_on,,,,,0,0,6,,,,,5,,,,63,92
115734,note_on,,,,,48,0,9,,,,,8,,,,41,0
115734,note_on,,,,,0,0,9,,,,,8,,,,39,92
115771,note_on,,,,,46,0,7,,,,,6,,,,63,0
115772,note_on,,,,,46,0,1,,,,,0,,,,75,0
115773,note_on,,,,,2,0,7,,,,,6,,,,62,92
115773,note_on,,,,,46,0,8,,,,,7,,,,51,0
115774,note_on,,,,,46,0,5,,,,,4,,,,63,0
115774,note_on,,,,,2,0,1,,,,,0,,,,74,92
115775,note_on,,,,,2,0,8,,,,,7,,,,50,92
115776,note_on,,,,,2,0,5,,,,,4,,,,62,92
115779,note_on,,,,,46,0,6,,,,,5,,,,63,0
115780,note_on,,,,,46,0,9,,,,,8,,,,39,0
115781,note_on,,,,,2,0,6,,,,,5,,,,62,92
115782,note_on,,,,,2,0,9,,,,,8,,,,38,92
115933,note_on,,,,,160,0,7,,,,,6,,,,62,0
115934,note_on,,,,,160,0,1,,,,,0,,,,74,0
115935,note_on,,,,,160,0,8,,,,,7,,,,50,0
115936,note_on,,,,,160,0,5,,,,,4,,,,62,0
115941,note_on,,,,,160,0,6,,,,,5,,,,62,0
115942,note_on,,,,,160,0,9,,,,,8,,,,38,0
115965,note_on,,,,,32,0,7,,,,,6,,,,60,92
115966,note_on,,,,,32,0,1,,,,,0,,,,84,92
115967,note_on,,,,,32,0,8,,,,,7,,,,48,92
115968,note_on,,,,,32,0,5,,,,,4,,,,60,92
115973,note_on,,,,,32,0,6,,,,,5,,,,60,92
115974,note_on,,,,,32,0,9,,,,,8,,,,36,92
115997,note_on,,,,,0,0,7,,,,,6,,,,62,92
115997,note_on,,,,,32,0,7,,,,,6,,,,60,0
115998,note_on,,,,,32,0,1,,,,,0,,,,84,0
115998,note_on,,,,,0,0,1,,,,,0,,,,86,92
115999,note_on,,,,,0,0,8,,,,,7,,,,50,92
115999,note_on,,,,,32,0,8,,,,,7,,,,48,0
116000,note_on,,,,,32,0,5,,,,,4,,,,60,0
116000,note_on,,,,,0,0,5,,,,,4,,,,62,92
116005,note_on,,,,,0,0,6,,,,,5,,,,62,92
116005,note_on,,,,,32,0,6,,,,,5,,,,60,0
116006,note_on,,,,,32,0,9,,,,,8,,,,36,0
116006,note_on,,,,,0,0,9,,,,,8,,,,38,92
116029,note_on,,,,,0,0,7,,,,,6,,,,60,92
116029,note_on,,,,,32,0,7,,,,,6,,,,62,0
116030,note_on,,,,,32,0,1,,,,,0,,,,86,0
116030,note_on,,,,,0,0,1,,,,,0,,,,84,92
116031,note_on,,,,,32,0,8,,,,,7,,,,50,0
116031,note_on,,,,,0,0,8,,,,,7,,,,48,92
116032,note_on,,,,,0,0,5,,,,,4,,,,60,92
116032,note_on,,,,,32,0,5,,,,,4,,,,62,0
116037,note_on,,,,,32,0,6,,,,,5,,,,62,0
116037,note_on,,,,,0,0,6,,,,,5,,,,60,92
116038,note_on,,,,,0,0,9,,,,,8,,,,36,92
116038,note_on,,,,,32,0,9,,,,,8,,,,38,0
116061,note_on,,,,,0,0,7,,,,,6,,,,62,92
116061,note_on,,,,,32,0,7,,,,,6,,,,60,0
116062,note_on,,,,,0,0,1,,,,,0,,,,86,92
116062,note_on,,,,,32,0,1,,,,,0,,,,84,0
116063,note_on,,,,,32,0,8,,,,,7,,,,48,0
116063,note_on,,,,,0,0,8,,,,,7,,,,50,92
116064,note_on,,,,,32,0,5,,,,,4,,,,60,0
116064,note_on,,,,,0,0,5,,,,,4,,,,62,92
116069,note_on,,,,,32,0,6,,,,,5,,,,60,0
116069,note_on,,,,,0,0,6,,,,,5,,,,62,92
116070,note_on,,,,,32,0,9,,,,,8,,,,36,0
116070,note_on,,,,,0,0,9,,,,,8,,,,38,92
116093,note_on,,,,,0,0,7,,,,,6,,,,60,92
116093,note_on,,,,,32,0,7,,,,,6,,,,62,0
116094,note_on,,,,,0,0,1,,,,,0,,,,84,92
116094,note_on,,,,,32,0,1,,,,,0,,,,86,0
116095,note_on,,,,,32,0,8,,,,,7,,,,50,0
116095,note_on,,,,,0,0,8,,,,,7,,,,48,92
116096,note_on,,,,,0,0,5,,,,,4,,,,60,92
116096,note_on,,,,,32,0,5,,,,,4,,,,62,0
116101,note_on,,,,,32,0,6,,,,,5,,,,62,0
116101,note_on,,,,,0,0,6,,,,,5,,,,60,92
116102,note_on,,,,,32,0,9,,,,,8,,,,38,0
116102,note_on,,,,,0,0,9,,,,,8,,,,36,92
116125,note_on,,,,,0,0,7,,,,,6,,,,62,92
116125,note_on,,,,,32,0,7,,,,,6,,,,60,0
116126,note_on,,,,,0,0,1,,,,,0,,,,86,92
116126,note_on,,,,,32,0,1,,,,,0,,,,84,0
116127,note_on,,,,,0,0,8,,,,,7,,,,50,92
116127,note_on,,,,,32,0,8,,,,,7,,,,48,0
116128,note_on,,,,,0,0,5,,,,,4,,,,62,92
116128,note_on,,,,,32,0,5,,,,,4,,,,60,0
116133,note_on,,,,,0,0,6,,,,,5,,,,62,92
116133,note_on,,,,,32,0,6,,,,,5,,,,60,0
116134,note_on,,,,,32,0,9,,,,,8,,,,36,0
116134,note_on,,,,,0,0,9,,,,,8,,,,38,92
116157,note_on,,,,,0,0,7,,,,,6,,,,60,92
116157,note_on,,,,,32,0,7,,,,,6,,,,62,0
116158,note_on,,,,,32,0,1,,,,,0,,,,86,0
116158,note_on,,,,,0,0,1,,,,,0,,,,84,92
116159,note_on,,,,,32,0,8,,,,,7,,,,50,0
116159,note_on,,,,,0,0,8,,,,,7,,,,48,92
116160,note_on,,,,,32,0,5,,,,,4,,,,62,0
116160,note_on,,,,,0,0,5,,,,,4,,,,60,92
116165,note_on,,,,,32,0,6,,,,,5,,,,62,0
116165,note_on,,,,,0,0,6,,,,,5,,,,60,92
116166,note_on,,,,,0,0,9,,,,,8,,,,36,92
116166,note_on,,,,,32,0,9,,,,,8,,,,38,0
116189,note_on,,,,,0,0,7,,,,,6,,,,62,92
116189,note_on,,,,,32,0,7,,,,,6,,,,60,0
116190,note_on,,,,,32,0,1,,,,,0,,,,84,0
116190,note_on,,,,,0,0,1,,,,,0,,,,86,92
116191,note_on,,,,,0,0,8,,,,,7,,,,50,92
116191,note_on,,,,,32,0,8,,,,,7,,,,48,0
116192,note_on,,,,,32,0,5,,,,,4,,,,60,0
116192,note_on,,,,,0,0,5,,,,,4,,,,62,92
116197,note_on,,,,,0,0,6,,,,,5,,,,62,92
116197,note_on,,,,,32,0,6,,,,,5,,,,60,0
116198,note_on,,,,,0,0,9,,,,,8,,,,38,92
116198,note_on,,,,,32,0,9,,,,,8,,,,36,0
116221,note_on,,,,,32,0,7,,,,,6,,,,62,0
116221,note_on,,,,,0,0,7,,,,,6,,,,60,92
116222,note_on,,,,,32,0,1,,,,,0,,,,86,0
116222,note_on,,,,,0,0,1,,,,,0,,,,84,92
116223,note_on,,,,,0,0,8,,,,,7,,,,48,92
116223,note_on,,,,,32,0,8,,,,,7,,,,50,0
116224,note_on,,,,,32,0,5,,,,,4,,,,62,0
116224,note_on,,,,,0,0,5,,,,,4,,,,60,92
116229,note_on,,,,,0,0,6,,,,,5,,,,60,92
116229,note_on,,,,,32,0,6,,,,,5,,,,62,0
116230,note_on,,,,,0,0,9,,,,,8,,,,36,92
116230,note_on,,,,,32,0,9,,,,,8,,,,38,0
116253,note_on,,,,,32,0,7,,,,,6,,,,60,0
116253,note_on,,,,,0,0,7,,,,,6,,,,59,92
116254,note_on,,,,,0,0,1,,,,,0,,,,83,92
116254,note_on,,,,,32,0,1,,,,,0,,,,84,0
116255,note_on,,,,,32,0,8,,,,,7,,,,48,0
116255,note_on,,,,,0,0,8,,,,,7,,,,47,92
116256,note_on,,,,,0,0,5,,,,,4,,,,59,92
116256,note_on,,,,,32,0,5,,,,,4,,,,60,0
116261,note_on,,,,,32,0,6,,,,,5,,,,60,0
116261,note_on,,,,,0,0,6,,,,,5,,,,59,92
116262,note_on,,,,,32,0,9,,,,,8,,,,36,0
116262,note_on,,,,,0,0,9,,,,,8,,,,35,92
116301,note_on,,,,,0,0,7,,,,,6,,,,57,92
116301,note_on,,,,,48,0,7,,,,,6,,,,59,0
116302,note_on,,,,,0,0,1,,,,,0,,,,81,92
116302,note_on,,,,,48,0,1,,,,,0,,,,83,0
116303,note_on,,,,,48,0,8,,,,,7,,,,47,0
116303,note_on,,,,,0,0,8,,,,,7,,,,45,92
116304,note_on,,,,,48,0,5,,,,,4,,,,59,0
116304,note_on,,,,,0,0,5,,,,,4,,,,57,92
116309,note_on,,,,,48,0,6,,,,,5,,,,59,0
116309,note_on,,,,,0,0,6,,,,,5,,,,57,92
116310,note_on,,,,,48,0,9,,,,,8,,,,35,0
116310,note_on,,,,,0,0,9,,,,,8,,,,33,92
116347,note_on,,,,,46,0,7,,,,,6,,,,57,0
116348,note_on,,,,,46,0,1,,,,,0,,,,81,0
116349,note_on,,,,,2,0,7,,,,,6,,,,55,92
116349,note_on,,,,,46,0,8,,,,,7,,,,45,0
116350,note_on,,,,,46,0,5,,,,,4,,,,57,0
116350,note_on,,,,,2,0,1,,,,,0,,,,79,92
116351,note_on,,,,,2,0,8,,,,,7,,,,43,92
116352,set_tempo,,,,,1344,1,0,,500000,,,,,,,,
116352,note_on,,,,,2,0,5,,,,,4,,,,55,92
116355,note_on,,,,,46,0,6,,,,,5,,,,57,0
116356,note_on,,,,,46,0,9,,,,,8,,,,33,0
116357,note_on,,,,,2,0,6,,,,,5,,,,55,92
116358,note_on,,,,,2,0,9,,,,,8,,,,31,92
116404,note_on,,,,,1008,0,4,,,,,3,,,,43,92
116452,note_on,,,,,0,0,4,,,,,3,,,,47,92
116452,note_on,,,,,48,0,4,,,,,3,,,,43,0
116500,note_on,,,,,0,0,4,,,,,3,,,,50,92
116500,note_on,,,,,48,0,4,,,,,3,,,,47,0
116509,note_on,,,,,160,0,7,,,,,6,,,,55,0
116510,note_on,,,,,160,0,1,,,,,0,,,,79,0
116511,note_on,,,,,160,0,8,,,,,7,,,,43,0
116512,note_on,,,,,160,0,5,,,,,4,,,,55,0
116517,note_on,,,,,160,0,6,,,,,5,,,,55,0
116518,note_on,,,,,160,0,9,,,,,8,,,,31,0
116548,note_on,,,,,48,0,4,,,,,3,,,,50,0
116548,note_on,,,,,0,0,4,,,,,3,,,,55,92
116588,note_on,,,,,1200,0,3,,,,,2,,,,59,108
116636,note_on,,,,,48,0,3,,,,,2,,,,59,0
116636,note_on,,,,,0,0,3,,,,,2,,,,62,108
116644,note_on,,,,,96,0,4,,,,,3,,,,55,0
116684,note_on,,,,,48,0,3,,,,,2,,,,62,0
116684,note_on,,,,,0,0,3,,,,,2,,,,67,108
116732,note_on,,,,,48,0,3,,,,,2,,,,67,0
116732,note_on,,,,,0,0,3,,,,,2,,,,71,108
116788,note_on,,,,,144,0,4,,,,,3,,,,55,92
116828,note_on,,,,,96,0,3,,,,,2,,,,71,0
116836,note_on,,,,,0,0,4,,,,,3,,,,59,92
116836,note_on,,,,,48,0,4,,,,,3,,,,55,0
116884,note_on,,,,,0,0,4,,,,,3,,,,62,92
116884,note_on,,,,,48,0,4,,,,,3,,,,59,0
116928,set_tempo,,,,,576,1,0,,545455,,,,,,,,
116932,note_on,,,,,48,0,4,,,,,3,,,,62,0
116932,note_on,,,,,0,0,4,,,,,3,,,,67,92
116972,note_on,,,,,144,0,3,,,,,2,,,,74,108
117020,note_on,,,,,48,0,3,,,,,2,,,,74,0
117020,note_on,,,,,0,0,3,,,,,2,,,,79,108
117068,note_on,,,,,0,0,3,,,,,2,,,,83,108
117068,note_on,,,,,48,0,3,,,,,2,,,,79,0
117116,note_on,,,,,48,0,3,,,,,2,,,,83,0
117116,note_on,,,,,0,0,3,,,,,2,,,,86,92
117120,set_tempo,,,,,192,1,0,,428571,,,,,,,,
117124,note_on,,,,,192,0,4,,,,,3,,,,67,0
117164,note_on,,,,,48,0,3,,,,,2,,,,86,0
117164,note_on,,,,,0,0,3,,,,,2,,,,84,92
117212,note_on,,,,,0,0,3,,,,,2,,,,83,92
117212,note_on,,,,,48,0,3,,,,,2,,,,84,0
117220,note_on,,,,,96,0,4,,,,,3,,,,55,92
117252,note_on,,,,,32,0,4,,,,,3,,,,55,0
117260,note_on,,,,,48,0,3,,,,,2,,,,83,0
117260,note_on,,,,,0,0,3,,,,,2,,,,81,92
117308,note_on,,,,,0,0,3,,,,,2,,,,79,92
117308,note_on,,,,,48,0,3,,,,,2,,,,81,0
117312,set_tempo,,,,,192,1,0,,444444,,,,,,,,
117316,note_on,,,,,64,0,4,,,,,3,,,,59,92
117348,note_on,,,,,32,0,4,,,,,3,,,,59,0
117356,note_on,,,,,0,0,3,,,,,2,,,,77,92
117356,note_on,,,,,48,0,3,,,,,2,,,,79,0
117404,note_on,,,,,0,0,3,,,,,2,,,,75,92
117404,note_on,,,,,48,0,3,,,,,2,,,,77,0
117412,note_on,,,,,64,0,4,,,,,3,,,,55,92
117444,note_on,,,,,32,0,4,,,,,3,,,,55,0
117452,note_on,,,,,48,0,3,,,,,2,,,,75,0
117452,note_on,,,,,0,0,3,,,,,2,,,,74,92
117500,note_on,,,,,48,0,3,,,,,2,,,,74,0
117500,note_on,,,,,0,0,3,,,,,2,,,,75,92
117504,set_tempo,,,,,192,1,0,,461538,,,,,,,,
117508,note_on,,,,,64,0,4,,,,,3,,,,60,92
117597,note_on,,,,,1088,0,7,,,,,6,,,,67,37
117599,note_on,,,,,1088,0,8,,,,,7,,,,63,37
117606,note_on,,,,,1088,0,9,,,,,8,,,,51,37
117629,note_on,,,,,32,0,7,,,,,6,,,,67,0
117631,note_on,,,,,32,0,8,,,,,7,,,,63,0
117638,note_on,,,,,32,0,9,,,,,8,,,,51,0
117660,note_on,,,,,160,0,3,,,,,2,,,,75,0
117692,note_on,,,,,32,0,3,,,,,2,,,,79,75
117693,note_on,,,,,64,0,7,,,,,6,,,,67,37
117695,note_on,,,,,64,0,8,,,,,7,,,,63,37
117700,note_on,,,,,192,0,4,,,,,3,,,,60,0
117702,note_on,,,,,64,0,9,,,,,8,,,,51,37
117724,note_on,,,,,0,0,3,,,,,2,,,,80,75
117724,note_on,,,,,32,0,3,,,,,2,,,,79,0
117756,note_on,,,,,32,0,3,,,,,2,,,,80,0
117756,note_on,,,,,0,0,3,,,,,2,,,,79,75
117788,note_on,,,,,0,0,3,,,,,2,,,,80,75
117788,note_on,,,,,32,0,3,,,,,2,,,,79,0
117789,note_on,,,,,96,0,7,,,,,6,,,,67,0
117789,note_on,,,,,0,0,7,,,,,6,,,,65,37
117791,note_on,,,,,96,0,8,,,,,7,,,,63,0
117791,note_on,,,,,0,0,8,,,,,7,,,,62,37
117798,note_on,,,,,0,0,9,,,,,8,,,,50,37
117798,note_on,,,,,96,0,9,,,,,8,,,,51,0
117820,note_on,,,,,32,0,3,,,,,2,,,,80,0
117820,note_on,,,,,0,0,3,,,,,2,,,,79,75
117852,note_on,,,,,0,0,3,,,,,2,,,,80,75
117852,note_on,,,,,32,0,3,,,,,2,,,,79,0
117883,note_on,,,,,94,0,7,,,,,6,,,,65,0
117884,note_on,,,,,32,0,3,,,,,2,,,,80,0
117884,note_on,,,,,0,0,3,,,,,2,,,,79,75
117885,note_on,,,,,94,0,8,,,,,7,,,,62,0
117885,note_on,,,,,2,0,7,,,,,6,,,,65,37
117887,note_on,,,,,2,0,8,,,,,7,,,,62,37
117892,note_on,,,,,94,0,9,,,,,8,,,,50,0
117894,note_on,,,,,2,0,9,,,,,8,,,,50,37
117916,note_on,,,,,32,0,3,,,,,2,,,,79,0
117916,note_on,,,,,0,0,3,,,,,2,,,,80,75
117948,note_on,,,,,0,0,3,,,,,2,,,,79,75
117948,note_on,,,,,32,0,3,,,,,2,,,,80,0
117980,note_on,,,,,0,0,3,,,,,2,,,,81,75
117980,note_on,,,,,32,0,3,,,,,2,,,,79,0
117981,note_on,,,,,96,0,7,,,,,6,,,,65,0
117981,note_on,,,,,0,0,7,,,,,6,,,,64,37
117983,note_on,,,,,96,0,8,,,,,7,,,,62,0
117983,note_on,,,,,0,0,8,,,,,7,,,,60,37
117990,note_on,,,,,96,0,9,,,,,8,,,,50,0
117990,note_on,,,,,0,0,9,,,,,8,,,,48,37
118028,note_on,,,,,48,0,3,,,,,2,,,,81,0
118028,note_on,,,,,0,0,3,,,,,2,,,,83,75
118075,note_on,,,,,94,0,7,,,,,6,,,,64,0
118076,note_on,,,,,0,0,3,,,,,2,,,,84,75
118076,note_on,,,,,48,0,3,,,,,2,,,,83,0
118077,note_on,,,,,2,0,7,,,,,6,,,,64,37
118077,note_on,,,,,94,0,8,,,,,7,,,,60,0
118079,note_on,,,,,2,0,8,,,,,7,,,,60,37
118084,note_on,,,,,94,0,9,,,,,8,,,,48,0
118086,note_on,,,,,2,0,9,,,,,8,,,,48,37
118176,note_on,,,,,1664,0,5,,,,,4,,,,76,37
118181,note_on,,,,,1664,0,6,,,,,5,,,,72,37
118208,note_on,,,,,32,0,5,,,,,4,,,,76,0
118213,note_on,,,,,32,0,6,,,,,5,,,,72,0
118236,note_on,,,,,160,0,3,,,,,2,,,,84,0
118237,note_on,,,,,160,0,7,,,,,6,,,,64,0
118239,note_on,,,,,160,0,8,,,,,7,,,,60,0
118246,note_on,,,,,160,0,9,,,,,8,,,,48,0
118268,note_on,,,,,32,0,3,,,,,2,,,,70,108
118272,note_on,,,,,64,0,5,,,,,4,,,,76,37
118276,note_on,,,,,576,0,4,,,,,3,,,,58,108
118277,note_on,,,,,64,0,6,,,,,5,,,,72,37
118300,note_on,,,,,32,0,3,,,,,2,,,,70,0
118300,note_on,,,,,0,0,3,,,,,2,,,,72,108
118308,note_on,,,,,0,0,4,,,,,3,,,,60,108
118308,note_on,,,,,32,0,4,,,,,3,,,,58,0
118332,note_on,,,,,32,0,3,,,,,2,,,,72,0
118332,note_on,,,,,0,0,3,,,,,2,,,,70,108
118340,note_on,,,,,32,0,4,,,,,3,,,,60,0
118340,note_on,,,,,0,0,4,,,,,3,,,,58,108
118364,note_on,,,,,0,0,3,,,,,2,,,,72,108
118364,note_on,,,,,32,0,3,,,,,2,,,,70,0
118368,note_on,,,,,96,0,5,,,,,4,,,,76,0
118368,note_on,,,,,0,0,5,,,,,4,,,,77,37
118372,note_on,,,,,32,0,4,,,,,3,,,,58,0
118372,note_on,,,,,0,0,4,,,,,3,,,,60,108
118373,note_on,,,,,96,0,6,,,,,5,,,,72,0
118373,note_on,,,,,0,0,6,,,,,5,,,,74,37
118396,note_on,,,,,0,0,3,,,,,2,,,,70,108
118396,note_on,,,,,32,0,3,,,,,2,,,,72,0
118404,note_on,,,,,32,0,4,,,,,3,,,,60,0
118404,note_on,,,,,0,0,4,,,,,3,,,,58,108
118428,note_on,,,,,0,0,3,,,,,2,,,,72,108
118428,note_on,,,,,32,0,3,,,,,2,,,,70,0
118436,note_on,,,,,32,0,4,,,,,3,,,,58,0
118436,note_on,,,,,0,0,4,,,,,3,,,,60,108
118460,note_on,,,,,0,0,3,,,,,2,,,,70,108
118460,note_on,,,,,32,0,3,,,,,2,,,,72,0
118462,note_on,,,,,94,0,5,,,,,4,,,,77,0
118464,note_on,,,,,2,0,5,,,,,4,,,,77,37
118467,note_on,,,,,94,0,6,,,,,5,,,,74,0
118468,note_on,,,,,0,0,4,,,,,3,,,,58,108
118468,note_on,,,,,32,0,4,,,,,3,,,,60,0
118469,note_on,,,,,2,0,6,,,,,5,,,,74,37
118492,note_on,,,,,32,0,3,,,,,2,,,,70,0
118492,note_on,,,,,0,0,3,,,,,2,,,,72,108
118500,note_on,,,,,0,0,4,,,,,3,,,,60,108
118500,note_on,,,,,32,0,4,,,,,3,,,,58,0
118524,note_on,,,,,32,0,3,,,,,2,,,,72,0
118524,note_on,,,,,0,0,3,,,,,2,,,,70,108
118532,note_on,,,,,32,0,4,,,,,3,,,,60,0
118532,note_on,,,,,0,0,4,,,,,3,,,,58,108
118556,note_on,,,,,32,0,3,,,,,2,,,,70,0
118556,note_on,,,,,0,0,3,,,,,2,,,,68,108
118560,note_on,,,,,96,0,5,,,,,4,,,,77,0
118560,note_on,,,,,0,0,5,,,,,4,,,,79,37
118564,note_on,,,,,32,0,4,,,,,3,,,,58,0
118564,note_on,,,,,0,0,4,,,,,3,,,,56,108
118565,note_on,,,,,0,0,6,,,,,5,,,,76,37
118565,note_on,,,,,96,0,6,,,,,5,,,,74,0
118604,note_on,,,,,48,0,3,,,,,2,,,,68,0
118604,note_on,,,,,0,0,3,,,,,2,,,,67,108
118612,note_on,,,,,0,0,4,,,,,3,,,,55,108
118612,note_on,,,,,48,0,4,,,,,3,,,,56,0
118652,note_on,,,,,48,0,3,,,,,2,,,,67,0
118652,note_on,,,,,0,0,3,,,,,2,,,,65,108
118654,note_on,,,,,94,0,5,,,,,4,,,,79,0
118656,note_on,,,,,2,0,5,,,,,4,,,,80,37
118659,note_on,,,,,94,0,6,,,,,5,,,,76,0
118660,note_on,,,,,48,0,4,,,,,3,,,,55,0
118660,note_on,,,,,0,0,4,,,,,3,,,,53,108
118661,note_on,,,,,2,0,6,,,,,5,,,,77,37
118749,note_on,,,,,512,0,7,,,,,6,,,,60,37
118751,note_on,,,,,512,0,8,,,,,7,,,,56,37
118758,note_on,,,,,512,0,9,,,,,8,,,,44,37
118781,note_on,,,,,32,0,7,,,,,6,,,,60,0
118783,note_on,,,,,32,0,8,,,,,7,,,,56,0
118790,note_on,,,,,32,0,9,,,,,8,,,,44,0
118812,note_on,,,,,160,0,3,,,,,2,,,,65,0
118816,note_on,,,,,160,0,5,,,,,4,,,,80,0
118821,note_on,,,,,160,0,6,,,,,5,,,,77,0
118844,note_on,,,,,32,0,3,,,,,2,,,,84,75
118845,note_on,,,,,64,0,7,,,,,6,,,,60,37
118847,note_on,,,,,64,0,8,,,,,7,,,,56,37
118852,note_on,,,,,192,0,4,,,,,3,,,,53,0
118854,note_on,,,,,64,0,9,,,,,8,,,,44,37
118876,note_on,,,,,0,0,3,,,,,2,,,,86,75
118876,note_on,,,,,32,0,3,,,,,2,,,,84,0
118908,note_on,,,,,0,0,3,,,,,2,,,,84,75
118908,note_on,,,,,32,0,3,,,,,2,,,,86,0
118940,note_on,,,,,0,0,3,,,,,2,,,,86,75
118940,note_on,,,,,32,0,3,,,,,2,,,,84,0
118941,note_on,,,,,96,0,7,,,,,6,,,,60,0
118941,note_on,,,,,0,0,7,,,,,6,,,,58,37
118943,note_on,,,,,96,0,8,,,,,7,,,,56,0
118943,note_on,,,,,0,0,8,,,,,7,,,,55,37
118950,note_on,,,,,0,0,9,,,,,8,,,,43,37
118950,note_on,,,,,96,0,9,,,,,8,,,,44,0
118972,note_on,,,,,32,0,3,,,,,2,,,,86,0
118972,note_on,,,,,0,0,3,,,,,2,,,,84,75
119004,note_on,,,,,32,0,3,,,,,2,,,,84,0
119004,note_on,,,,,0,0,3,,,,,2,,,,86,75
119035,note_on,,,,,94,0,7,,,,,6,,,,58,0
119036,note_on,,,,,0,0,3,,,,,2,,,,84,75
119036,note_on,,,,,32,0,3,,,,,2,,,,86,0
119037,note_on,,,,,2,0,7,,,,,6,,,,58,37
119037,note_on,,,,,94,0,8,,,,,7,,,,55,0
119039,note_on,,,,,2,0,8,,,,,7,,,,55,37
119044,note_on,,,,,94,0,9,,,,,8,,,,43,0
119046,note_on,,,,,2,0,9,,,,,8,,,,43,37
119068,note_on,,,,,32,0,3,,,,,2,,,,84,0
119068,note_on,,,,,0,0,3,,,,,2,,,,83,75
119100,note_on,,,,,32,0,3,,,,,2,,,,83,0
119100,note_on,,,,,0,0,3,,,,,2,,,,84,75
119132,note_on,,,,,0,0,3,,,,,2,,,,86,75
119132,note_on,,,,,32,0,3,,,,,2,,,,84,0
119133,note_on,,,,,0,0,7,,,,,6,,,,57,37
119133,note_on,,,,,96,0,7,,,,,6,,,,58,0
119135,note_on,,,,,96,0,8,,,,,7,,,,55,0
119135,note_on,,,,,0,0,8,,,,,7,,,,53,37
119142,note_on,,,,,96,0,9,,,,,8,,,,43,0
119142,note_on,,,,,0,0,9,,,,,8,,,,41,37
119180,note_on,,,,,48,0,3,,,,,2,,,,86,0
119180,note_on,,,,,0,0,3,,,,,2,,,,88,75
119227,note_on,,,,,94,0,7,,,,,6,,,,57,0
119228,note_on,,,,,0,0,3,,,,,2,,,,89,75
119228,note_on,,,,,48,0,3,,,,,2,,,,88,0
119229,note_on,,,,,2,0,7,,,,,6,,,,57,37
119229,note_on,,,,,94,0,8,,,,,7,,,,53,0
119231,note_on,,,,,2,0,8,,,,,7,,,,53,37
119236,note_on,,,,,94,0,9,,,,,8,,,,41,0
119238,note_on,,,,,2,0,9,,,,,8,,,,41,37
119328,note_on,,,,,512,0,5,,,,,4,,,,69,37
119333,note_on,,,,,512,0,6,,,,,5,,,,65,37
119360,note_on,,,,,32,0,5,,,,,4,,,,69,0
119365,note_on,,,,,32,0,6,,,,,5,,,,65,0
119388,note_on,,,,,160,0,3,,,,,2,,,,89,0
119389,note_on,,,,,160,0,7,,,,,6,,,,57,0
119391,note_on,,,,,160,0,8,,,,,7,,,,53,0
119398,note_on,,,,,160,0,9,,,,,8,,,,41,0
119420,note_on,,,,,32,0,3,,,,,2,,,,63,108
119424,note_on,,,,,64,0,5,,,,,4,,,,69,37
119428,note_on,,,,,576,0,4,,,,,3,,,,51,108
119429,note_on,,,,,64,0,6,,,,,5,,,,65,37
119452,note_on,,,,,32,0,3,,,,,2,,,,63,0
119452,note_on,,,,,0,0,3,,,,,2,,,,65,108
119460,note_on,,,,,0,0,4,,,,,3,,,,53,108
119460,note_on,,,,,32,0,4,,,,,3,,,,51,0
119484,note_on,,,,,32,0,3,,,,,2,,,,65,0
119484,note_on,,,,,0,0,3,,,,,2,,,,63,108
119492,note_on,,,,,32,0,4,,,,,3,,,,53,0
119492,note_on,,,,,0,0,4,,,,,3,,,,51,108
119516,note_on,,,,,0,0,3,,,,,2,,,,65,108
119516,note_on,,,,,32,0,3,,,,,2,,,,63,0
119520,note_on,,,,,0,0,5,,,,,4,,,,70,37
119520,note_on,,,,,96,0,5,,,,,4,,,,69,0
119524,note_on,,,,,32,0,4,,,,,3,,,,51,0
119524,note_on,,,,,0,0,4,,,,,3,,,,53,108
119525,note_on,,,,,0,0,6,,,,,5,,,,67,37
119525,note_on,,,,,96,0,6,,,,,5,,,,65,0
119548,note_on,,,,,0,0,3,,,,,2,,,,63,108
119548,note_on,,,,,32,0,3,,,,,2,,,,65,0
119556,note_on,,,,,0,0,4,,,,,3,,,,51,108
119556,note_on,,,,,32,0,4,,,,,3,,,,53,0
119580,note_on,,,,,32,0,3,,,,,2,,,,63,0
119580,note_on,,,,,0,0,3,,,,,2,,,,65,108
119588,note_on,,,,,0,0,4,,,,,3,,,,53,108
119588,note_on,,,,,32,0,4,,,,,3,,,,51,0
119612,note_on,,,,,0,0,3,,,,,2,,,,63,108
119612,note_on,,,,,32,0,3,,,,,2,,,,65,0
119614,note_on,,,,,94,0,5,,,,,4,,,,70,0
119616,note_on,,,,,2,0,5,,,,,4,,,,70,37
119619,note_on,,,,,94,0,6,,,,,5,,,,67,0
119620,note_on,,,,,0,0,4,,,,,3,,,,51,108
119620,note_on,,,,,32,0,4,,,,,3,,,,53,0
119621,note_on,,,,,2,0,6,,,,,5,,,,67,37
119644,note_on,,,,,0,0,3,,,,,2,,,,65,108
119644,note_on,,,,,32,0,3,,,,,2,,,,63,0
119652,note_on,,,,,32,0,4,,,,,3,,,,51,0
119652,note_on,,,,,0,0,4,,,,,3,,,,53,108
119676,note_on,,,,,32,0,3,,,,,2,,,,65,0
119676,note_on,,,,,0,0,3,,,,,2,,,,63,108
119684,note_on,,,,,0,0,4,,,,,3,,,,51,108
119684,note_on,,,,,32,0,4,,,,,3,,,,53,0
119708,note_on,,,,,32,0,3,,,,,2,,,,63,0
119708,note_on,,,,,0,0,3,,,,,2,,,,62,108
119712,note_on,,,,,96,0,5,,,,,4,,,,70,0
119712,note_on,,,,,0,0,5,,,,,4,,,,72,37
119716,note_on,,,,,0,0,4,,,,,3,,,,50,108
119716,note_on,,,,,32,0,4,,,,,3,,,,51,0
119717,note_on,,,,,96,0,6,,,,,5,,,,67,0
119717,note_on,,,,,0,0,6,,,,,5,,,,69,37
119756,note_on,,,,,0,0,3,,,,,2,,,,60,108
119756,note_on,,,,,48,0,3,,,,,2,,,,62,0
119764,note_on,,,,,0,0,4,,,,,3,,,,48,108
119764,note_on,,,,,48,0,4,,,,,3,,,,50,0
119804,note_on,,,,,48,0,3,,,,,2,,,,60,0
119804,note_on,,,,,0,0,3,,,,,2,,,,58,108
119806,note_on,,,,,94,0,5,,,,,4,,,,72,0
119808,note_on,,,,,2,0,5,,,,,4,,,,74,37
119811,note_on,,,,,94,0,6,,,,,5,,,,69,0
119812,note_on,,,,,0,0,4,,,,,3,,,,46,108
119812,note_on,,,,,48,0,4,,,,,3,,,,48,0
119813,note_on,,,,,2,0,6,,,,,5,,,,70,37
119901,note_on,,,,,512,0,7,,,,,6,,,,65,37
119903,note_on,,,,,512,0,8,,,,,7,,,,62,37
119910,note_on,,,,,512,0,9,,,,,8,,,,50,37
119933,note_on,,,,,32,0,7,,,,,6,,,,65,0
119935,note_on,,,,,32,0,8,,,,,7,,,,62,0
119942,note_on,,,,,32,0,9,,,,,8,,,,50,0
119964,note_on,,,,,160,0,3,,,,,2,,,,58,0
119968,note_on,,,,,160,0,5,,,,,4,,,,74,0
119973,note_on,,,,,160,0,6,,,,,5,,,,70,0
119996,note_on,,,,,32,0,3,,,,,2,,,,77,75
119997,note_on,,,,,64,0,7,,,,,6,,,,65,37
119999,note_on,,,,,64,0,8,,,,,7,,,,62,37
120004,note_on,,,,,192,0,4,,,,,3,,,,46,0
120006,note_on,,,,,64,0,9,,,,,8,,,,50,37
120028,note_on,,,,,32,0,3,,,,,2,,,,77,0
120028,note_on,,,,,0,0,3,,,,,2,,,,79,75
120060,note_on,,,,,0,0,3,,,,,2,,,,77,75
120060,note_on,,,,,32,0,3,,,,,2,,,,79,0
120092,note_on,,,,,0,0,3,,,,,2,,,,79,75
120092,note_on,,,,,32,0,3,,,,,2,,,,77,0
120093,note_on,,,,,96,0,7,,,,,6,,,,65,0
120093,note_on,,,,,0,0,7,,,,,6,,,,63,37
120095,note_on,,,,,0,0,8,,,,,7,,,,60,37
120095,note_on,,,,,96,0,8,,,,,7,,,,62,0
120102,note_on,,,,,96,0,9,,,,,8,,,,50,0
120102,note_on,,,,,0,0,9,,,,,8,,,,48,37
120124,note_on,,,,,0,0,3,,,,,2,,,,77,75
120124,note_on,,,,,32,0,3,,,,,2,,,,79,0
120156,note_on,,,,,0,0,3,,,,,2,,,,79,75
120156,note_on,,,,,32,0,3,,,,,2,,,,77,0
120187,note_on,,,,,94,0,7,,,,,6,,,,63,0
120188,note_on,,,,,0,0,3,,,,,2,,,,77,75
120188,note_on,,,,,32,0,3,,,,,2,,,,79,0
120189,note_on,,,,,94,0,8,,,,,7,,,,60,0
120189,note_on,,,,,2,0,7,,,,,6,,,,63,37
120191,note_on,,,,,2,0,8,,,,,7,,,,60,37
120196,note_on,,,,,94,0,9,,,,,8,,,,48,0
120198,note_on,,,,,2,0,9,,,,,8,,,,48,37
120220,note_on,,,,,32,0,3,,,,,2,,,,77,0
120220,note_on,,,,,0,0,3,,,,,2,,,,76,75
120252,note_on,,,,,32,0,3,,,,,2,,,,76,0
120252,note_on,,,,,0,0,3,,,,,2,,,,77,75
120284,note_on,,,,,32,0,3,,,,,2,,,,77,0
120284,note_on,,,,,0,0,3,,,,,2,,,,79,75
120285,note_on,,,,,0,0,7,,,,,6,,,,62,37
120285,note_on,,,,,96,0,7,,,,,6,,,,63,0
120287,note_on,,,,,96,0,8,,,,,7,,,,60,0
120287,note_on,,,,,0,0,8,,,,,7,,,,58,37
120294,note_on,,,,,96,0,9,,,,,8,,,,48,0
120294,note_on,,,,,0,0,9,,,,,8,,,,46,37
120332,note_on,,,,,48,0,3,,,,,2,,,,79,0
120332,note_on,,,,,0,0,3,,,,,2,,,,81,75
120379,note_on,,,,,94,0,7,,,,,6,,,,62,0
120380,note_on,,,,,48,0,3,,,,,2,,,,81,0
120380,note_on,,,,,0,0,3,,,,,2,,,,82,75
120381,note_on,,,,,2,0,7,,,,,6,,,,62,37
120381,note_on,,,,,94,0,8,,,,,7,,,,58,0
120383,note_on,,,,,2,0,8,,,,,7,,,,58,37
120388,note_on,,,,,94,0,9,,,,,8,,,,46,0
120390,note_on,,,,,2,0,9,,,,,8,,,,46,37
120480,note_on,,,,,512,0,5,,,,,4,,,,74,37
120485,note_on,,,,,512,0,6,,,,,5,,,,70,37
120512,note_on,,,,,32,0,5,,,,,4,,,,74,0
120517,note_on,,,,,32,0,6,,,,,5,,,,70,0
120540,note_on,,,,,160,0,3,,,,,2,,,,82,0
120541,note_on,,,,,160,0,7,,,,,6,,,,62,0
120543,note_on,,,,,160,0,8,,,,,7,,,,58,0
120550,note_on,,,,,160,0,9,,,,,8,,,,46,0
120572,note_on,,,,,32,0,3,,,,,2,,,,68,108
120576,note_on,,,,,64,0,5,,,,,4,,,,74,37
120580,note_on,,,,,576,0,4,,,,,3,,,,56,108
120581,note_on,,,,,64,0,6,,,,,5,,,,70,37
120604,note_on,,,,,32,0,3,,,,,2,,,,68,0
120604,note_on,,,,,0,0,3,,,,,2,,,,70,108
120612,note_on,,,,,0,0,4,,,,,3,,,,58,108
120612,note_on,,,,,32,0,4,,,,,3,,,,56,0
120636,note_on,,,,,0,0,3,,,,,2,,,,68,108
120636,note_on,,,,,32,0,3,,,,,2,,,,70,0
120644,note_on,,,,,0,0,4,,,,,3,,,,56,108
120644,note_on,,,,,32,0,4,,,,,3,,,,58,0
120668,note_on,,,,,32,0,3,,,,,2,,,,68,0
120668,note_on,,,,,0,0,3,,,,,2,,,,70,108
120672,note_on,,,,,96,0,5,,,,,4,,,,74,0
120672,note_on,,,,,0,0,5,,,,,4,,,,75,37
120676,note_on,,,,,0,0,4,,,,,3,,,,58,108
120676,note_on,,,,,32,0,4,,,,,3,,,,56,0
120677,note_on,,,,,0,0,6,,,,,5,,,,72,37
120677,note_on,,,,,96,0,6,,,,,5,,,,70,0
120700,note_on,,,,,32,0,3,,,,,2,,,,70,0
120700,note_on,,,,,0,0,3,,,,,2,,,,68,108
120708,note_on,,,,,32,0,4,,,,,3,,,,58,0
120708,note_on,,,,,0,0,4,,,,,3,,,,56,108
120732,note_on,,,,,32,0,3,,,,,2,,,,68,0
120732,note_on,,,,,0,0,3,,,,,2,,,,70,108
120740,note_on,,,,,0,0,4,,,,,3,,,,58,108
120740,note_on,,,,,32,0,4,,,,,3,,,,56,0
120764,note_on,,,,,32,0,3,,,,,2,,,,70,0
120764,note_on,,,,,0,0,3,,,,,2,,,,68,108
120766,note_on,,,,,94,0,5,,,,,4,,,,75,0
120768,note_on,,,,,2,0,5,,,,,4,,,,75,37
120771,note_on,,,,,94,0,6,,,,,5,,,,72,0
120772,note_on,,,,,32,0,4,,,,,3,,,,58,0
120772,note_on,,,,,0,0,4,,,,,3,,,,56,108
120773,note_on,,,,,2,0,6,,,,,5,,,,72,37
120796,note_on,,,,,32,0,3,,,,,2,,,,68,0
120796,note_on,,,,,0,0,3,,,,,2,,,,70,108
120804,note_on,,,,,32,0,4,,,,,3,,,,56,0
120804,note_on,,,,,0,0,4,,,,,3,,,,58,108
120828,note_on,,,,,32,0,3,,,,,2,,,,70,0
120828,note_on,,,,,0,0,3,,,,,2,,,,68,108
120836,note_on,,,,,0,0,4,,,,,3,,,,56,108
120836,note_on,,,,,32,0,4,,,,,3,,,,58,0
120860,note_on,,,,,0,0,3,,,,,2,,,,67,108
120860,note_on,,,,,32,0,3,,,,,2,,,,68,0
120864,note_on,,,,,96,0,5,,,,,4,,,,75,0
120864,note_on,,,,,0,0,5,,,,,4,,,,77,37
120868,note_on,,,,,32,0,4,,,,,3,,,,56,0
120868,note_on,,,,,0,0,4,,,,,3,,,,55,108
120869,note_on,,,,,0,0,6,,,,,5,,,,74,37
120869,note_on,,,,,96,0,6,,,,,5,,,,72,0
120908,note_on,,,,,0,0,3,,,,,2,,,,65,108
120908,note_on,,,,,48,0,3,,,,,2,,,,67,0
120916,note_on,,,,,48,0,4,,,,,3,,,,55,0
120916,note_on,,,,,0,0,4,,,,,3,,,,53,108
120956,note_on,,,,,48,0,3,,,,,2,,,,65,0
120956,note_on,,,,,0,0,3,,,,,2,,,,63,108
120958,note_on,,,,,94,0,5,,,,,4,,,,77,0
120960,note_on,,,,,2,0,5,,,,,4,,,,79,37
120963,note_on,,,,,94,0,6,,,,,5,,,,74,0
120964,note_on,,,,,48,0,4,,,,,3,,,,53,0
120964,note_on,,,,,0,0,4,,,,,3,,,,51,108
120965,note_on,,,,,2,0,6,,,,,5,,,,75,37
121053,note_on,,,,,512,0,7,,,,,6,,,,58,37
121055,note_on,,,,,512,0,8,,,,,7,,,,55,37
121062,note_on,,,,,512,0,9,,,,,8,,,,43,37
121085,note_on,,,,,32,0,7,,,,,6,,,,58,0
121087,note_on,,,,,32,0,8,,,,,7,,,,55,0
121094,note_on,,,,,32,0,9,,,,,8,,,,43,0
121116,note_on,,,,,160,0,3,,,,,2,,,,63,0
121120,note_on,,,,,160,0,5,,,,,4,,,,79,0
121125,note_on,,,,,160,0,6,,,,,5,,,,75,0
121148,note_on,,,,,32,0,3,,,,,2,,,,82,75
121149,note_on,,,,,64,0,7,,,,,6,,,,58,37
121151,note_on,,,,,64,0,8,,,,,7,,,,55,37
121156,note_on,,,,,192,0,4,,,,,3,,,,51,0
121158,note_on,,,,,64,0,9,,,,,8,,,,43,37
121180,note_on,,,,,0,0,3,,,,,2,,,,84,75
121180,note_on,,,,,32,0,3,,,,,2,,,,82,0
121212,note_on,,,,,32,0,3,,,,,2,,,,84,0
121212,note_on,,,,,0,0,3,,,,,2,,,,82,75
121244,note_on,,,,,32,0,3,,,,,2,,,,82,0
121244,note_on,,,,,0,0,3,,,,,2,,,,84,75
121245,note_on,,,,,0,0,7,,,,,6,,,,56,37
121245,note_on,,,,,96,0,7,,,,,6,,,,58,0
121247,note_on,,,,,0,0,8,,,,,7,,,,53,37
121247,note_on,,,,,96,0,8,,,,,7,,,,55,0
121254,note_on,,,,,96,0,9,,,,,8,,,,43,0
121254,note_on,,,,,0,0,9,,,,,8,,,,41,37
121276,note_on,,,,,0,0,3,,,,,2,,,,82,75
121276,note_on,,,,,32,0,3,,,,,2,,,,84,0
121308,note_on,,,,,32,0,3,,,,,2,,,,82,0
121308,note_on,,,,,0,0,3,,,,,2,,,,84,75
121339,note_on,,,,,94,0,7,,,,,6,,,,56,0
121340,note_on,,,,,32,0,3,,,,,2,,,,84,0
121340,note_on,,,,,0,0,3,,,,,2,,,,82,75
121341,note_on,,,,,94,0,8,,,,,7,,,,53,0
121341,note_on,,,,,2,0,7,,,,,6,,,,56,37
121343,note_on,,,,,2,0,8,,,,,7,,,,53,37
121348,note_on,,,,,94,0,9,,,,,8,,,,41,0
121350,note_on,,,,,2,0,9,,,,,8,,,,41,37
121372,note_on,,,,,32,0,3,,,,,2,,,,82,0
121372,note_on,,,,,0,0,3,,,,,2,,,,81,75
121404,note_on,,,,,32,0,3,,,,,2,,,,81,0
121404,note_on,,,,,0,0,3,,,,,2,,,,82,75
121436,note_on,,,,,32,0,3,,,,,2,,,,82,0
121436,note_on,,,,,0,0,3,,,,,2,,,,84,75
121437,note_on,,,,,96,0,7,,,,,6,,,,56,0
121437,note_on,,,,,0,0,7,,,,,6,,,,55,37
121439,note_on,,,,,0,0,8,,,,,7,,,,51,37
121439,note_on,,,,,96,0,8,,,,,7,,,,53,0
121446,note_on,,,,,96,0,9,,,,,8,,,,41,0
121446,note_on,,,,,0,0,9,,,,,8,,,,39,37
121484,note_on,,,,,0,0,3,,,,,2,,,,86,75
121484,note_on,,,,,48,0,3,,,,,2,,,,84,0
121531,note_on,,,,,94,0,7,,,,,6,,,,55,0
121532,note_on,,,,,0,0,3,,,,,2,,,,87,75
121532,note_on,,,,,48,0,3,,,,,2,,,,86,0
121533,note_on,,,,,2,0,7,,,,,6,,,,55,37
121533,note_on,,,,,94,0,8,,,,,7,,,,51,0
121535,note_on,,,,,2,0,8,,,,,7,,,,51,37
121540,note_on,,,,,94,0,9,,,,,8,,,,39,0
121542,note_on,,,,,2,0,9,,,,,8,,,,39,37
121632,note_on,,,,,512,0,5,,,,,4,,,,67,37
121637,note_on,,,,,512,0,6,,,,,5,,,,63,37
121664,note_on,,,,,32,0,5,,,,,4,,,,67,0
121669,note_on,,,,,32,0,6,,,,,5,,,,63,0
121692,note_on,,,,,160,0,3,,,,,2,,,,87,0
121693,note_on,,,,,160,0,7,,,,,6,,,,55,0
121695,note_on,,,,,160,0,8,,,,,7,,,,51,0
121702,note_on,,,,,160,0,9,,,,,8,,,,39,0
121724,note_on,,,,,32,0,3,,,,,2,,,,61,108
121728,note_on,,,,,64,0,5,,,,,4,,,,67,37
121732,note_on,,,,,576,0,4,,,,,3,,,,49,108
121733,note_on,,,,,64,0,6,,,,,5,,,,63,37
121756,note_on,,,,,0,0,3,,,,,2,,,,63,108
121756,note_on,,,,,32,0,3,,,,,2,,,,61,0
121764,note_on,,,,,0,0,4,,,,,3,,,,51,108
121764,note_on,,,,,32,0,4,,,,,3,,,,49,0
121788,note_on,,,,,0,0,3,,,,,2,,,,61,108
121788,note_on,,,,,32,0,3,,,,,2,,,,63,0
121796,note_on,,,,,32,0,4,,,,,3,,,,51,0
121796,note_on,,,,,0,0,4,,,,,3,,,,49,108
121820,note_on,,,,,0,0,3,,,,,2,,,,63,108
121820,note_on,,,,,32,0,3,,,,,2,,,,61,0
121824,note_on,,,,,96,0,5,,,,,4,,,,67,0
121824,note_on,,,,,0,0,5,,,,,4,,,,68,37
121828,note_on,,,,,32,0,4,,,,,3,,,,49,0
121828,note_on,,,,,0,0,4,,,,,3,,,,51,108
121829,note_on,,,,,0,0,6,,,,,5,,,,65,37
121829,note_on,,,,,96,0,6,,,,,5,,,,63,0
121852,note_on,,,,,32,0,3,,,,,2,,,,63,0
121852,note_on,,,,,0,0,3,,,,,2,,,,61,108
121860,note_on,,,,,32,0,4,,,,,3,,,,51,0
121860,note_on,,,,,0,0,4,,,,,3,,,,49,108
121884,note_on,,,,,0,0,3,,,,,2,,,,63,108
121884,note_on,,,,,32,0,3,,,,,2,,,,61,0
121892,note_on,,,,,0,0,4,,,,,3,,,,51,108
121892,note_on,,,,,32,0,4,,,,,3,,,,49,0
121916,note_on,,,,,0,0,3,,,,,2,,,,61,108
121916,note_on,,,,,32,0,3,,,,,2,,,,63,0
121918,note_on,,,,,94,0,5,,,,,4,,,,68,0
121920,note_on,,,,,2,0,5,,,,,4,,,,68,37
121923,note_on,,,,,94,0,6,,,,,5,,,,65,0
121924,note_on,,,,,32,0,4,,,,,3,,,,51,0
121924,note_on,,,,,0,0,4,,,,,3,,,,49,108
121925,note_on,,,,,2,0,6,,,,,5,,,,65,37
121948,note_on,,,,,0,0,3,,,,,2,,,,63,108
121948,note_on,,,,,32,0,3,,,,,2,,,,61,0
121956,note_on,,,,,32,0,4,,,,,3,,,,49,0
121956,note_on,,,,,0,0,4,,,,,3,,,,51,108
121980,note_on,,,,,0,0,3,,,,,2,,,,61,108
121980,note_on,,,,,32,0,3,,,,,2,,,,63,0
121988,note_on,,,,,32,0,4,,,,,3,,,,51,0
121988,note_on,,,,,0,0,4,,,,,3,,,,49,108
122012,note_on,,,,,32,0,3,,,,,2,,,,61,0
122012,note_on,,,,,0,0,3,,,,,2,,,,60,108
122016,note_on,,,,,96,0,5,,,,,4,,,,68,0
122016,note_on,,,,,0,0,5,,,,,4,,,,70,37
122020,note_on,,,,,0,0,4,,,,,3,,,,48,108
122020,note_on,,,,,32,0,4,,,,,3,,,,49,0
122021,note_on,,,,,96,0,6,,,,,5,,,,65,0
122021,note_on,,,,,0,0,6,,,,,5,,,,67,37
122060,note_on,,,,,48,0,3,,,,,2,,,,60,0
122060,note_on,,,,,0,0,3,,,,,2,,,,58,108
122068,note_on,,,,,0,0,4,,,,,3,,,,46,108
122068,note_on,,,,,48,0,4,,,,,3,,,,48,0
122106,note_on,,,,,46,0,3,,,,,2,,,,58,0
122108,note_on,,,,,2,0,3,,,,,2,,,,56,108
122110,note_on,,,,,94,0,5,,,,,4,,,,70,0
122112,note_on,,,,,2,0,5,,,,,4,,,,72,37
122112,set_tempo,,,,,4608,1,0,,444444,,,,,,,,
122115,note_on,,,,,94,0,6,,,,,5,,,,67,0
122116,note_on,,,,,48,0,4,,,,,3,,,,46,0
122116,note_on,,,,,0,0,4,,,,,3,,,,44,108
122117,note_on,,,,,2,0,6,,,,,5,,,,68,37
122272,note_on,,,,,160,0,5,,,,,4,,,,72,0
122277,note_on,,,,,160,0,6,,,,,5,,,,68,0
122308,note_on,,,,,192,0,4,,,,,3,,,,44,0
122308,note_on,,,,,0,0,4,,,,,3,,,,39,75
122396,note_on,,,,,288,0,3,,,,,2,,,,56,0
122396,note_on,,,,,0,0,3,,,,,2,,,,60,75
122492,note_on,,,,,96,0,3,,,,,2,,,,60,0
122492,note_on,,,,,0,0,3,,,,,2,,,,63,75
122500,note_on,,,,,0,0,4,,,,,3,,,,36,75
122500,note_on,,,,,192,0,4,,,,,3,,,,39,0
122588,note_on,,,,,0,0,3,,,,,2,,,,68,75
122588,note_on,,,,,96,0,3,,,,,2,,,,63,0
122684,note_on,,,,,0,0,3,,,,,2,,,,72,75
122684,note_on,,,,,96,0,3,,,,,2,,,,68,0
122692,note_on,,,,,0,0,4,,,,,3,,,,32,75
122692,note_on,,,,,192,0,4,,,,,3,,,,36,0
122780,note_on,,,,,96,0,3,,,,,2,,,,72,0
122780,note_on,,,,,0,0,3,,,,,2,,,,75,75
122876,note_on,,,,,96,0,3,,,,,2,,,,75,0
122876,note_on,,,,,0,0,3,,,,,2,,,,80,75
122884,note_on,,,,,192,0,4,,,,,3,,,,32,0
122972,note_on,,,,,96,0,3,,,,,2,,,,80,0
122972,note_on,,,,,0,0,3,,,,,2,,,,84,75
123068,note_on,,,,,96,0,3,,,,,2,,,,84,0
123068,note_on,,,,,0,0,3,,,,,2,,,,87,75
123164,note_on,,,,,96,0,3,,,,,2,,,,87,0
123164,note_on,,,,,0,0,3,,,,,2,,,,84,75
123260,note_on,,,,,96,0,3,,,,,2,,,,84,0
123260,note_on,,,,,0,0,3,,,,,2,,,,82,75
123356,note_on,,,,,96,0,3,,,,,2,,,,82,0
123356,note_on,,,,,0,0,3,,,,,2,,,,79,75
123452,note_on,,,,,96,0,3,,,,,2,,,,79,0
123452,note_on,,,,,0,0,3,,,,,2,,,,75,75
123453,note_on,,,,,1760,0,7,,,,,6,,,,55,37
123456,note_on,,,,,1184,0,5,,,,,4,,,,70,37
123548,note_on,,,,,96,0,3,,,,,2,,,,75,0
123556,note_on,,,,,672,0,4,,,,,3,,,,63,75
123645,note_on,,,,,0,0,7,,,,,6,,,,67,37
123645,note_on,,,,,192,0,7,,,,,6,,,,55,0
123648,note_on,,,,,0,0,5,,,,,4,,,,82,37
123648,note_on,,,,,192,0,5,,,,,4,,,,70,0
123652,note_on,,,,,96,0,4,,,,,3,,,,63,0
123652,note_on,,,,,0,0,4,,,,,3,,,,58,75
123748,note_on,,,,,96,0,4,,,,,3,,,,58,0
123748,note_on,,,,,0,0,4,,,,,3,,,,55,75
123805,note_on,,,,,160,0,7,,,,,6,,,,67,0
123808,note_on,,,,,160,0,5,,,,,4,,,,82,0
123837,note_on,,,,,32,0,7,,,,,6,,,,65,37
123840,note_on,,,,,32,0,5,,,,,4,,,,80,37
123844,note_on,,,,,96,0,4,,,,,3,,,,55,0
123844,note_on,,,,,0,0,4,,,,,3,,,,53,75
123940,note_on,,,,,96,0,4,,,,,3,,,,53,0
123940,note_on,,,,,0,0,4,,,,,3,,,,56,75
124029,note_on,,,,,0,0,7,,,,,6,,,,53,37
124029,note_on,,,,,192,0,7,,,,,6,,,,65,0
124031,note_on,,,,,2336,0,8,,,,,7,,,,53,37
124032,note_on,,,,,192,0,5,,,,,4,,,,80,0
124032,note_on,,,,,0,0,5,,,,,4,,,,68,37
124036,note_on,,,,,96,0,4,,,,,3,,,,56,0
124036,note_on,,,,,0,0,4,,,,,3,,,,61,75
124037,note_on,,,,,1760,0,6,,,,,5,,,,61,37
124038,note_on,,,,,2336,0,9,,,,,8,,,,41,37
124124,note_on,,,,,576,0,3,,,,,2,,,,73,75
124132,note_on,,,,,96,0,4,,,,,3,,,,61,0
124189,note_on,,,,,160,0,7,,,,,6,,,,53,0
124192,note_on,,,,,160,0,5,,,,,4,,,,68,0
124220,note_on,,,,,96,0,3,,,,,2,,,,73,0
124220,note_on,,,,,0,0,3,,,,,2,,,,77,75
124223,note_on,,,,,0,0,8,,,,,7,,,,65,37
124223,note_on,,,,,192,0,8,,,,,7,,,,53,0
124229,note_on,,,,,0,0,6,,,,,5,,,,73,37
124229,note_on,,,,,192,0,6,,,,,5,,,,61,0
124230,note_on,,,,,192,0,9,,,,,8,,,,41,0
124230,note_on,,,,,0,0,9,,,,,8,,,,53,37
124316,note_on,,,,,0,0,3,,,,,2,,,,80,75
124316,note_on,,,,,96,0,3,,,,,2,,,,77,0
124383,note_on,,,,,160,0,8,,,,,7,,,,65,0
124389,note_on,,,,,160,0,6,,,,,5,,,,73,0
124390,note_on,,,,,160,0,9,,,,,8,,,,53,0
124412,note_on,,,,,0,0,3,,,,,2,,,,79,75
124412,note_on,,,,,96,0,3,,,,,2,,,,80,0
124415,note_on,,,,,32,0,8,,,,,7,,,,63,37
124421,note_on,,,,,32,0,6,,,,,5,,,,72,37
124422,note_on,,,,,32,0,9,,,,,8,,,,51,37
124508,note_on,,,,,96,0,3,,,,,2,,,,79,0
124508,note_on,,,,,0,0,3,,,,,2,,,,75,75
124604,note_on,,,,,96,0,3,,,,,2,,,,75,0
124604,note_on,,,,,0,0,3,,,,,2,,,,72,75
124605,note_on,,,,,416,0,7,,,,,6,,,,51,37
124607,note_on,,,,,192,0,8,,,,,7,,,,63,0
124607,note_on,,,,,0,0,8,,,,,7,,,,51,37
124608,note_on,,,,,416,0,5,,,,,4,,,,67,37
124613,note_on,,,,,0,0,6,,,,,5,,,,60,37
124613,note_on,,,,,192,0,6,,,,,5,,,,72,0
124614,note_on,,,,,192,0,9,,,,,8,,,,51,0
124614,note_on,,,,,0,0,9,,,,,8,,,,39,37
124700,note_on,,,,,96,0,3,,,,,2,,,,72,0
124708,note_on,,,,,576,0,4,,,,,3,,,,60,75
124767,note_on,,,,,160,0,8,,,,,7,,,,51,0
124773,note_on,,,,,160,0,6,,,,,5,,,,60,0
124774,note_on,,,,,160,0,9,,,,,8,,,,39,0
124797,note_on,,,,,0,0,7,,,,,6,,,,63,37
124797,note_on,,,,,192,0,7,,,,,6,,,,51,0
124800,note_on,,,,,192,0,5,,,,,4,,,,67,0
124800,note_on,,,,,0,0,5,,,,,4,,,,79,37
124804,note_on,,,,,96,0,4,,,,,3,,,,60,0
124804,note_on,,,,,0,0,4,,,,,3,,,,55,75
124900,note_on,,,,,0,0,4,,,,,3,,,,51,75
124900,note_on,,,,,96,0,4,,,,,3,,,,55,0
124957,note_on,,,,,160,0,7,,,,,6,,,,63,0
124960,note_on,,,,,160,0,5,,,,,4,,,,79,0
124989,note_on,,,,,32,0,7,,,,,6,,,,61,37
124992,note_on,,,,,32,0,5,,,,,4,,,,77,37
124996,note_on,,,,,96,0,4,,,,,3,,,,51,0
124996,note_on,,,,,0,0,4,,,,,3,,,,49,75
125092,note_on,,,,,96,0,4,,,,,3,,,,49,0
125092,note_on,,,,,0,0,4,,,,,3,,,,53,75
125181,note_on,,,,,0,0,7,,,,,6,,,,49,37
125181,note_on,,,,,192,0,7,,,,,6,,,,61,0
125183,note_on,,,,,416,0,8,,,,,7,,,,49,37
125184,note_on,,,,,0,0,5,,,,,4,,,,65,37
125184,note_on,,,,,192,0,5,,,,,4,,,,77,0
125188,note_on,,,,,0,0,4,,,,,3,,,,58,75
125188,note_on,,,,,96,0,4,,,,,3,,,,53,0
125189,note_on,,,,,416,0,6,,,,,5,,,,58,37
125190,note_on,,,,,416,0,9,,,,,8,,,,37,37
125276,note_on,,,,,576,0,3,,,,,2,,,,70,75
125284,note_on,,,,,96,0,4,,,,,3,,,,58,0
125341,note_on,,,,,160,0,7,,,,,6,,,,49,0
125344,note_on,,,,,160,0,5,,,,,4,,,,65,0
125372,note_on,,,,,0,0,3,,,,,2,,,,73,75
125372,note_on,,,,,96,0,3,,,,,2,,,,70,0
125375,note_on,,,,,0,0,8,,,,,7,,,,61,37
125375,note_on,,,,,192,0,8,,,,,7,,,,49,0
125381,note_on,,,,,0,0,6,,,,,5,,,,70,37
125381,note_on,,,,,192,0,6,,,,,5,,,,58,0
125382,note_on,,,,,192,0,9,,,,,8,,,,37,0
125382,note_on,,,,,0,0,9,,,,,8,,,,49,37
125468,note_on,,,,,96,0,3,,,,,2,,,,73,0
125468,note_on,,,,,0,0,3,,,,,2,,,,77,75
125535,note_on,,,,,160,0,8,,,,,7,,,,61,0
125541,note_on,,,,,160,0,6,,,,,5,,,,70,0
125542,note_on,,,,,160,0,9,,,,,8,,,,49,0
125564,note_on,,,,,0,0,3,,,,,2,,,,75,75
125564,note_on,,,,,96,0,3,,,,,2,,,,77,0
125567,note_on,,,,,32,0,8,,,,,7,,,,60,37
125573,note_on,,,,,32,0,6,,,,,5,,,,68,37
125574,note_on,,,,,32,0,9,,,,,8,,,,48,37
125660,note_on,,,,,0,0,3,,,,,2,,,,72,75
125660,note_on,,,,,96,0,3,,,,,2,,,,75,0
125756,note_on,,,,,0,0,3,,,,,2,,,,68,75
125756,note_on,,,,,96,0,3,,,,,2,,,,72,0
125757,note_on,,,,,416,0,7,,,,,6,,,,48,37
125759,note_on,,,,,0,0,8,,,,,7,,,,48,37
125759,note_on,,,,,192,0,8,,,,,7,,,,60,0
125760,note_on,,,,,416,0,5,,,,,4,,,,63,37
125765,note_on,,,,,0,0,6,,,,,5,,,,56,37
125765,note_on,,,,,192,0,6,,,,,5,,,,68,0
125766,note_on,,,,,0,0,9,,,,,8,,,,36,37
125766,note_on,,,,,192,0,9,,,,,8,,,,48,0
125852,note_on,,,,,96,0,3,,,,,2,,,,68,0
125860,note_on,,,,,576,0,4,,,,,3,,,,56,75
125919,note_on,,,,,160,0,8,,,,,7,,,,48,0
125925,note_on,,,,,160,0,6,,,,,5,,,,56,0
125926,note_on,,,,,160,0,9,,,,,8,,,,36,0
125949,note_on,,,,,192,0,7,,,,,6,,,,48,0
125949,note_on,,,,,0,0,7,,,,,6,,,,60,37
125952,note_on,,,,,0,0,5,,,,,4,,,,75,37
125952,note_on,,,,,192,0,5,,,,,4,,,,63,0
125956,note_on,,,,,0,0,4,,,,,3,,,,51,75
125956,note_on,,,,,96,0,4,,,,,3,,,,56,0
126052,note_on,,,,,96,0,4,,,,,3,,,,51,0
126052,note_on,,,,,0,0,4,,,,,3,,,,48,75
126109,note_on,,,,,160,0,7,,,,,6,,,,60,0
126112,note_on,,,,,160,0,5,,,,,4,,,,75,0
126141,note_on,,,,,32,0,7,,,,,6,,,,53,60
126143,note_on,,,,,224,0,8,,,,,7,,,,46,60
126144,set_tempo,,,,,4032,1,0,,422535,,,,,,,,
126144,note_on,,,,,32,0,5,,,,,4,,,,62,60
126148,note_on,,,,,0,0,4,,,,,3,,,,53,92
126148,note_on,,,,,0,0,4,,,,,3,,,,50,92
126148,note_on,,,,,96,0,4,,,,,3,,,,48,0
126148,note_on,,,,,0,0,4,,,,,3,,,,46,92
126148,control_change,,,,,0,0,4,,,,,3,64,127,,,
126149,note_on,,,,,224,0,6,,,,,5,,,,56,60
126150,note_on,,,,,224,0,9,,,,,8,,,,34,60
126236,note_on,,,,,384,0,3,,,,,2,,,,80,92
126332,note_on,,,,,96,0,3,,,,,2,,,,80,0
126332,note_on,,,,,0,0,3,,,,,2,,,,77,92
126426,note_on,,,,,94,0,3,,,,,2,,,,77,0
126428,note_on,,,,,2,0,3,,,,,2,,,,74,75
126460,note_on,,,,,32,0,3,,,,,2,,,,74,0
126524,note_on,,,,,64,0,3,,,,,2,,,,70,75
126556,note_on,,,,,32,0,3,,,,,2,,,,70,0
126620,note_on,,,,,64,0,3,,,,,2,,,,68,75
126652,note_on,,,,,32,0,3,,,,,2,,,,68,0
126669,note_on,,,,,528,0,7,,,,,6,,,,53,0
126671,note_on,,,,,528,0,8,,,,,7,,,,46,0
126672,note_on,,,,,528,0,5,,,,,4,,,,62,0
126676,note_on,,,,,0,0,4,,,,,3,,,,46,0
126676,note_on,,,,,528,0,4,,,,,3,,,,53,0
126676,note_on,,,,,0,0,4,,,,,3,,,,50,0
126677,note_on,,,,,528,0,6,,,,,5,,,,56,0
126678,note_on,,,,,528,0,9,,,,,8,,,,34,0
126716,note_on,,,,,64,0,3,,,,,2,,,,67,127
126717,note_on,,,,,48,0,7,,,,,6,,,,51,60
126719,note_on,,,,,48,0,8,,,,,7,,,,46,60
126720,note_on,,,,,48,0,5,,,,,4,,,,63,60
126724,note_on,,,,,0,0,4,,,,,3,,,,51,92
126724,note_on,,,,,0,0,4,,,,,3,,,,55,92
126724,note_on,,,,,48,0,4,,,,,3,,,,46,92
126725,note_on,,,,,48,0,6,,,,,5,,,,55,60
126726,note_on,,,,,48,0,9,,,,,8,,,,34,60
126810,note_on,,,,,94,0,3,,,,,2,,,,67,0
126812,note_on,,,,,2,0,3,,,,,2,,,,82,92
126908,note_on,,,,,0,0,3,,,,,2,,,,79,92
126908,note_on,,,,,96,0,3,,,,,2,,,,82,0
127002,note_on,,,,,94,0,3,,,,,2,,,,79,0
127004,note_on,,,,,2,0,3,,,,,2,,,,75,75
127036,note_on,,,,,32,0,3,,,,,2,,,,75,0
127100,note_on,,,,,64,0,3,,,,,2,,,,70,75
127132,note_on,,,,,32,0,3,,,,,2,,,,70,0
127196,note_on,,,,,64,0,3,,,,,2,,,,67,75
127228,note_on,,,,,32,0,3,,,,,2,,,,67,0
127245,note_on,,,,,528,0,7,,,,,6,,,,51,0
127247,note_on,,,,,528,0,8,,,,,7,,,,46,0
127248,note_on,,,,,528,0,5,,,,,4,,,,63,0
127252,note_on,,,,,0,0,4,,,,,3,,,,46,0
127252,note_on,,,,,0,0,4,,,,,3,,,,51,0
127252,note_on,,,,,528,0,4,,,,,3,,,,55,0
127253,note_on,,,,,528,0,6,,,,,5,,,,55,0
127254,note_on,,,,,528,0,9,,,,,8,,,,34,0
127292,note_on,,,,,64,0,3,,,,,2,,,,69,127
127293,note_on,,,,,48,0,7,,,,,6,,,,53,60
127295,note_on,,,,,48,0,8,,,,,7,,,,46,60
127296,note_on,,,,,48,0,5,,,,,4,,,,63,60
127300,note_on,,,,,48,0,4,,,,,3,,,,46,92
127300,note_on,,,,,0,0,4,,,,,3,,,,51,92
127300,note_on,,,,,0,0,4,,,,,3,,,,48,92
127301,note_on,,,,,48,0,6,,,,,5,,,,57,60
127302,note_on,,,,,48,0,9,,,,,8,,,,34,60
127386,note_on,,,,,94,0,3,,,,,2,,,,69,0
127388,note_on,,,,,2,0,3,,,,,2,,,,87,92
127484,note_on,,,,,96,0,3,,,,,2,,,,87,0
127484,note_on,,,,,0,0,3,,,,,2,,,,84,92
127578,note_on,,,,,94,0,3,,,,,2,,,,84,0
127580,note_on,,,,,2,0,3,,,,,2,,,,81,75
127612,note_on,,,,,32,0,3,,,,,2,,,,81,0
127676,note_on,,,,,64,0,3,,,,,2,,,,77,75
127708,note_on,,,,,32,0,3,,,,,2,,,,77,0
127772,note_on,,,,,64,0,3,,,,,2,,,,75,75
127804,note_on,,,,,32,0,3,,,,,2,,,,75,0
127821,note_on,,,,,528,0,7,,,,,6,,,,53,0
127823,note_on,,,,,528,0,8,,,,,7,,,,46,0
127824,note_on,,,,,528,0,5,,,,,4,,,,63,0
127828,note_on,,,,,528,0,4,,,,,3,,,,51,0
127828,note_on,,,,,0,0,4,,,,,3,,,,48,0
127828,note_on,,,,,0,0,4,,,,,3,,,,46,0
127829,note_on,,,,,528,0,6,,,,,5,,,,57,0
127830,note_on,,,,,528,0,9,,,,,8,,,,34,0
127868,note_on,,,,,64,0,3,,,,,2,,,,74,127
127869,note_on,,,,,48,0,7,,,,,6,,,,53,60
127871,note_on,,,,,48,0,8,,,,,7,,,,46,60
127872,note_on,,,,,48,0,5,,,,,4,,,,62,60
127876,note_on,,,,,0,0,4,,,,,3,,,,50,92
127876,note_on,,,,,0,0,4,,,,,3,,,,53,92
127876,note_on,,,,,48,0,4,,,,,3,,,,46,92
127877,note_on,,,,,48,0,6,,,,,5,,,,58,60
127878,note_on,,,,,48,0,9,,,,,8,,,,34,60
127962,note_on,,,,,94,0,3,,,,,2,,,,74,0
127964,note_on,,,,,2,0,3,,,,,2,,,,89,92
128060,note_on,,,,,96,0,3,,,,,2,,,,89,0
128060,note_on,,,,,0,0,3,,,,,2,,,,86,92
128154,note_on,,,,,94,0,3,,,,,2,,,,86,0
128156,note_on,,,,,2,0,3,,,,,2,,,,82,75
128188,note_on,,,,,32,0,3,,,,,2,,,,82,0
128252,note_on,,,,,64,0,3,,,,,2,,,,77,75
128284,note_on,,,,,32,0,3,,,,,2,,,,77,0
128348,note_on,,,,,64,0,3,,,,,2,,,,75,75
128380,note_on,,,,,32,0,3,,,,,2,,,,75,0
128397,note_on,,,,,528,0,7,,,,,6,,,,53,0
128399,note_on,,,,,528,0,8,,,,,7,,,,46,0
128400,note_on,,,,,528,0,5,,,,,4,,,,62,0
128404,note_on,,,,,0,0,4,,,,,3,,,,46,0
128404,note_on,,,,,0,0,4,,,,,3,,,,50,0
128404,note_on,,,,,528,0,4,,,,,3,,,,53,0
128405,note_on,,,,,528,0,6,,,,,5,,,,58,0
128406,note_on,,,,,528,0,9,,,,,8,,,,34,0
128448,note_on,,,,,48,0,5,,,,,4,,,,77,53
128448,set_tempo,,,,,2304,1,0,,400000,,,,,,,,
128452,control_change,,,,,48,0,4,,,,,3,64,0,,,
128452,note_on,,,,,0,0,4,,,,,3,,,,58,75
128452,note_on,,,,,0,0,4,,,,,3,,,,62,75
128453,note_on,,,,,48,0,6,,,,,5,,,,74,53
128540,note_on,,,,,160,0,3,,,,,2,,,,80,92
128542,note_on,,,,,94,0,5,,,,,4,,,,77,0
128547,note_on,,,,,94,0,6,,,,,5,,,,74,0
128588,note_on,,,,,48,0,3,,,,,2,,,,80,0
128588,note_on,,,,,0,0,3,,,,,2,,,,78,92
128636,note_on,,,,,48,0,3,,,,,2,,,,78,0
128636,note_on,,,,,0,0,3,,,,,2,,,,77,92
128640,note_on,,,,,98,0,5,,,,,4,,,,80,53
128645,note_on,,,,,98,0,6,,,,,5,,,,77,53
128684,note_on,,,,,0,0,3,,,,,2,,,,75,92
128684,note_on,,,,,48,0,3,,,,,2,,,,77,0
128732,note_on,,,,,48,0,3,,,,,2,,,,75,0
128732,note_on,,,,,0,0,3,,,,,2,,,,74,92
128734,note_on,,,,,94,0,5,,,,,4,,,,80,0
128739,note_on,,,,,94,0,6,,,,,5,,,,77,0
128780,note_on,,,,,48,0,3,,,,,2,,,,74,0
128780,note_on,,,,,0,0,3,,,,,2,,,,72,92
128828,note_on,,,,,48,0,3,,,,,2,,,,72,0
128828,note_on,,,,,0,0,3,,,,,2,,,,70,75
128832,note_on,,,,,98,0,5,,,,,4,,,,68,53
128837,note_on,,,,,98,0,6,,,,,5,,,,65,53
128876,note_on,,,,,0,0,3,,,,,2,,,,71,75
128876,note_on,,,,,48,0,3,,,,,2,,,,70,0
128924,note_on,,,,,48,0,3,,,,,2,,,,71,0
128924,note_on,,,,,0,0,3,,,,,2,,,,68,75
128926,note_on,,,,,94,0,5,,,,,4,,,,68,0
128931,note_on,,,,,94,0,6,,,,,5,,,,65,0
128972,note_on,,,,,48,0,3,,,,,2,,,,68,0
128972,note_on,,,,,0,0,3,,,,,2,,,,70,75
128980,note_on,,,,,0,0,4,,,,,3,,,,58,0
128980,note_on,,,,,528,0,4,,,,,3,,,,62,0
129020,note_on,,,,,0,0,3,,,,,2,,,,66,92
129020,note_on,,,,,48,0,3,,,,,2,,,,70,0
129024,note_on,,,,,98,0,5,,,,,4,,,,66,53
129028,note_on,,,,,0,0,4,,,,,3,,,,63,75
129028,note_on,,,,,48,0,4,,,,,3,,,,58,75
129029,note_on,,,,,98,0,6,,,,,5,,,,63,53
129114,note_on,,,,,94,0,3,,,,,2,,,,66,0
129116,note_on,,,,,2,0,3,,,,,2,,,,82,92
129118,note_on,,,,,94,0,5,,,,,4,,,,66,0
129123,note_on,,,,,94,0,6,,,,,5,,,,63,0
129164,note_on,,,,,48,0,3,,,,,2,,,,82,0
129164,note_on,,,,,0,0,3,,,,,2,,,,80,92
129212,note_on,,,,,48,0,3,,,,,2,,,,80,0
129212,note_on,,,,,0,0,3,,,,,2,,,,78,92
129216,note_on,,,,,98,0,5,,,,,4,,,,82,53
129221,note_on,,,,,98,0,6,,,,,5,,,,78,53
129260,note_on,,,,,48,0,3,,,,,2,,,,78,0
129260,note_on,,,,,0,0,3,,,,,2,,,,77,92
129308,note_on,,,,,0,0,3,,,,,2,,,,75,92
129308,note_on,,,,,48,0,3,,,,,2,,,,77,0
129310,note_on,,,,,94,0,5,,,,,4,,,,82,0
129315,note_on,,,,,94,0,6,,,,,5,,,,78,0
129356,note_on,,,,,48,0,3,,,,,2,,,,75,0
129356,note_on,,,,,0,0,3,,,,,2,,,,74,92
129404,note_on,,,,,48,0,3,,,,,2,,,,74,0
129404,note_on,,,,,0,0,3,,,,,2,,,,75,75
129408,note_on,,,,,98,0,5,,,,,4,,,,70,53
129413,note_on,,,,,98,0,6,,,,,5,,,,66,53
129452,note_on,,,,,48,0,3,,,,,2,,,,75,0
129452,note_on,,,,,0,0,3,,,,,2,,,,73,75
129500,note_on,,,,,48,0,3,,,,,2,,,,73,0
129500,note_on,,,,,0,0,3,,,,,2,,,,71,75
129502,note_on,,,,,94,0,5,,,,,4,,,,70,0
129507,note_on,,,,,94,0,6,,,,,5,,,,66,0
129548,note_on,,,,,0,0,3,,,,,2,,,,70,75
129548,note_on,,,,,48,0,3,,,,,2,,,,71,0
129556,note_on,,,,,528,0,4,,,,,3,,,,63,0
129556,note_on,,,,,0,0,4,,,,,3,,,,58,0
129596,note_on,,,,,48,0,3,,,,,2,,,,70,0
129596,note_on,,,,,0,0,3,,,,,2,,,,69,92
129600,note_on,,,,,98,0,5,,,,,4,,,,69,53
129604,note_on,,,,,0,0,4,,,,,3,,,,63,75
129604,note_on,,,,,48,0,4,,,,,3,,,,59,75
129605,note_on,,,,,98,0,6,,,,,5,,,,63,53
129690,note_on,,,,,94,0,3,,,,,2,,,,69,0
129692,note_on,,,,,2,0,3,,,,,2,,,,87,92
129694,note_on,,,,,94,0,5,,,,,4,,,,69,0
129699,note_on,,,,,94,0,6,,,,,5,,,,63,0
129740,note_on,,,,,48,0,3,,,,,2,,,,87,0
129740,note_on,,,,,0,0,3,,,,,2,,,,86,92
129788,note_on,,,,,48,0,3,,,,,2,,,,86,0
129788,note_on,,,,,0,0,3,,,,,2,,,,87,92
129792,note_on,,,,,98,0,5,,,,,4,,,,78,53
129797,note_on,,,,,98,0,6,,,,,5,,,,69,53
129836,note_on,,,,,0,0,3,,,,,2,,,,86,92
129836,note_on,,,,,48,0,3,,,,,2,,,,87,0
129884,note_on,,,,,0,0,3,,,,,2,,,,87,92
129884,note_on,,,,,48,0,3,,,,,2,,,,86,0
129886,note_on,,,,,94,0,5,,,,,4,,,,78,0
129891,note_on,,,,,94,0,6,,,,,5,,,,69,0
129932,note_on,,,,,48,0,3,,,,,2,,,,87,0
129932,note_on,,,,,0,0,3,,,,,2,,,,86,92
129980,note_on,,,,,48,0,3,,,,,2,,,,86,0
129980,note_on,,,,,0,0,3,,,,,2,,,,87,75
129984,note_on,,,,,98,0,5,,,,,4,,,,69,53
129989,note_on,,,,,98,0,6,,,,,5,,,,63,53
130028,note_on,,,,,0,0,3,,,,,2,,,,83,75
130028,note_on,,,,,48,0,3,,,,,2,,,,87,0
130076,note_on,,,,,0,0,3,,,,,2,,,,82,75
130076,note_on,,,,,48,0,3,,,,,2,,,,83,0
130078,note_on,,,,,94,0,5,,,,,4,,,,69,0
130083,note_on,,,,,94,0,6,,,,,5,,,,63,0
130124,note_on,,,,,48,0,3,,,,,2,,,,82,0
130124,note_on,,,,,0,0,3,,,,,2,,,,81,75
130132,note_on,,,,,0,0,4,,,,,3,,,,59,0
130132,note_on,,,,,528,0,4,,,,,3,,,,63,0
130172,note_on,,,,,0,0,3,,,,,2,,,,82,75
130172,note_on,,,,,48,0,3,,,,,2,,,,81,0
130176,note_on,,,,,98,0,5,,,,,4,,,,70,53
130176,set_tempo,,,,,1728,1,0,,428571,,,,,,,,
130180,note_on,,,,,0,0,4,,,,,3,,,,62,75
130180,note_on,,,,,48,0,4,,,,,3,,,,58,75
130181,note_on,,,,,98,0,6,,,,,5,,,,62,53
130268,note_on,,,,,0,0,3,,,,,2,,,,83,75
130268,note_on,,,,,96,0,3,,,,,2,,,,82,0
130336,note_on,,,,,160,0,5,,,,,4,,,,70,0
130340,note_on,,,,,160,0,4,,,,,3,,,,62,0
130340,note_on,,,,,0,0,4,,,,,3,,,,58,0
130341,note_on,,,,,160,0,6,,,,,5,,,,62,0
130362,note_on,,,,,94,0,3,,,,,2,,,,83,0
130364,note_on,,,,,2,0,3,,,,,2,,,,77,75
130460,note_on,,,,,96,0,3,,,,,2,,,,77,0
130460,note_on,,,,,0,0,3,,,,,2,,,,78,75
130554,note_on,,,,,94,0,3,,,,,2,,,,78,0
130556,note_on,,,,,2,0,3,,,,,2,,,,80,75
130652,note_on,,,,,96,0,3,,,,,2,,,,80,0
130652,note_on,,,,,0,0,3,,,,,2,,,,82,75
130746,note_on,,,,,94,0,3,,,,,2,,,,82,0
130748,note_on,,,,,2,0,3,,,,,2,,,,75,75
130844,note_on,,,,,0,0,3,,,,,2,,,,77,75
130844,note_on,,,,,96,0,3,,,,,2,,,,75,0
130938,note_on,,,,,94,0,3,,,,,2,,,,77,0
130940,note_on,,,,,2,0,3,,,,,2,,,,80,75
131100,note_on,,,,,160,0,3,,,,,2,,,,80,0
131132,note_on,,,,,32,0,3,,,,,2,,,,75,75
131132,note_on,,,,,0,0,3,,,,,2,,,,80,75
131136,set_tempo,,,,,960,1,0,,545455,,,,,,,,
131140,note_on,,,,,800,0,4,,,,,3,,,,57,75
131156,note_on,,,,,0,0,3,,,,,2,,,,78,75
131156,note_on,,,,,24,0,3,,,,,2,,,,80,0
131180,note_on,,,,,24,0,3,,,,,2,,,,78,0
131180,note_on,,,,,0,0,3,,,,,2,,,,80,75
131204,note_on,,,,,24,0,3,,,,,2,,,,80,0
131204,note_on,,,,,0,0,3,,,,,2,,,,78,75
131228,note_on,,,,,24,0,3,,,,,2,,,,78,0
131228,note_on,,,,,0,0,3,,,,,2,,,,77,75
131232,set_tempo,,,,,96,1,0,,428571,,,,,,,,
131276,note_on,,,,,48,0,3,,,,,2,,,,77,0
131276,note_on,,,,,0,0,3,,,,,2,,,,78,75
131292,note_on,,,,,16,0,3,,,,,2,,,,75,0
131322,note_on,,,,,30,0,3,,,,,2,,,,78,0
131324,note_on,,,,,2,0,3,,,,,2,,,,74,75
131324,note_on,,,,,0,0,3,,,,,2,,,,77,75
131332,note_on,,,,,0,0,4,,,,,3,,,,58,75
131332,note_on,,,,,192,0,4,,,,,3,,,,57,0
131428,note_on,,,,,96,0,4,,,,,3,,,,58,0
131428,note_on,,,,,0,0,4,,,,,3,,,,59,75
131484,note_on,,,,,0,0,3,,,,,2,,,,74,0
131484,note_on,,,,,160,0,3,,,,,2,,,,77,0
131522,note_on,,,,,94,0,4,,,,,3,,,,59,0
131524,note_on,,,,,2,0,4,,,,,3,,,,53,75
131620,note_on,,,,,96,0,4,,,,,3,,,,53,0
131620,note_on,,,,,0,0,4,,,,,3,,,,54,75
131714,note_on,,,,,94,0,4,,,,,3,,,,54,0
131716,note_on,,,,,2,0,4,,,,,3,,,,56,75
131812,note_on,,,,,96,0,4,,,,,3,,,,56,0
131812,note_on,,,,,0,0,4,,,,,3,,,,58,75
131904,set_tempo,,,,,672,1,0,,444444,,,,,,,,
131906,note_on,,,,,94,0,4,,,,,3,,,,58,0
131908,note_on,,,,,2,0,4,,,,,3,,,,51,75
132004,note_on,,,,,96,0,4,,,,,3,,,,51,0
132004,note_on,,,,,0,0,4,,,,,3,,,,53,75
132098,note_on,,,,,94,0,4,,,,,3,,,,53,0
132100,note_on,,,,,2,0,4,,,,,3,,,,54,75
132196,note_on,,,,,0,0,4,,,,,3,,,,50,75
132196,note_on,,,,,96,0,4,,,,,3,,,,54,0
132292,note_on,,,,,96,0,4,,,,,3,,,,50,0
132292,note_on,,,,,0,0,4,,,,,3,,,,51,75
132388,note_on,,,,,96,0,4,,,,,3,,,,51,0
132388,note_on,,,,,0,0,4,,,,,3,,,,46,75
132480,set_tempo,,,,,576,1,0,,461538,,,,,,,,
132482,note_on,,,,,94,0,4,,,,,3,,,,46,0
132484,note_on,,,,,2,0,4,,,,,3,,,,47,60
132668,note_on,,,,,0,0,3,,,,,2,,,,66,60
132668,note_on,,,,,1184,0,3,,,,,2,,,,63,60
132860,note_on,,,,,192,0,3,,,,,2,,,,66,0
132860,note_on,,,,,0,0,3,,,,,2,,,,67,60
133020,note_on,,,,,160,0,3,,,,,2,,,,67,0
133052,note_on,,,,,32,0,3,,,,,2,,,,68,60
133060,note_on,,,,,576,0,4,,,,,3,,,,47,0
133060,note_on,,,,,0,0,4,,,,,3,,,,48,60
133212,note_on,,,,,160,0,3,,,,,2,,,,63,0
133244,note_on,,,,,32,0,3,,,,,2,,,,63,60
133436,note_on,,,,,0,0,3,,,,,2,,,,64,60
133436,note_on,,,,,192,0,3,,,,,2,,,,63,0
133596,note_on,,,,,160,0,3,,,,,2,,,,64,0
133628,note_on,,,,,32,0,3,,,,,2,,,,65,60
133636,note_on,,,,,576,0,4,,,,,3,,,,48,0
133636,note_on,,,,,0,0,4,,,,,3,,,,49,60
133788,note_on,,,,,160,0,3,,,,,2,,,,68,0
133820,note_on,,,,,32,0,3,,,,,2,,,,68,60
134012,note_on,,,,,192,0,3,,,,,2,,,,68,0
134012,note_on,,,,,0,0,3,,,,,2,,,,69,60
134172,note_on,,,,,160,0,3,,,,,2,,,,69,0
134204,note_on,,,,,32,0,3,,,,,2,,,,70,60
134212,note_on,,,,,576,0,4,,,,,3,,,,49,0
134212,note_on,,,,,0,0,4,,,,,3,,,,50,60
134364,note_on,,,,,160,0,3,,,,,2,,,,65,0
134396,note_on,,,,,32,0,3,,,,,2,,,,65,60
134588,note_on,,,,,0,0,3,,,,,2,,,,66,60
134588,note_on,,,,,192,0,3,,,,,2,,,,65,0
134732,note_on,,,,,144,0,3,,,,,2,,,,70,0
134740,note_on,,,,,528,0,4,,,,,3,,,,50,0
134748,note_on,,,,,16,0,3,,,,,2,,,,66,0
134780,note_on,,,,,0,0,3,,,,,2,,,,70,60
134780,note_on,,,,,32,0,3,,,,,2,,,,67,60
134781,note_on,,,,,6384,0,7,,,,,6,,,,63,108
134782,note_on,,,,,18272,0,1,,,,,0,,,,75,108
134783,note_on,,,,,6384,0,8,,,,,7,,,,51,108
134784,set_tempo,,,,,2304,1,0,,428571,,,,,,,,
134784,note_on,,,,,0,0,5,,,,,4,,,,63,108
134784,note_on,,,,,0,0,5,,,,,4,,,,75,108
134784,note_on,,,,,4448,0,5,,,,,4,,,,55,108
134786,note_on,,,,,0,0,2,,,,,1,,,,63,108
134786,note_on,,,,,25184,0,2,,,,,1,,,,51,108
134788,note_on,,,,,48,0,4,,,,,3,,,,51,60
134789,note_on,,,,,4448,0,6,,,,,5,,,,55,108
134789,note_on,,,,,0,0,6,,,,,5,,,,75,108
134789,note_on,,,,,0,0,6,,,,,5,,,,63,108
134790,note_on,,,,,6384,0,9,,,,,8,,,,39,108
134940,note_on,,,,,0,0,3,,,,,2,,,,67,0
134940,note_on,,,,,160,0,3,,,,,2,,,,70,0
134943,note_on,,,,,160,0,8,,,,,7,,,,51,0
134948,note_on,,,,,160,0,4,,,,,3,,,,51,0
134950,note_on,,,,,160,0,9,,,,,8,,,,39,0
134975,note_on,,,,,32,0,8,,,,,7,,,,63,108
134982,note_on,,,,,32,0,9,,,,,8,,,,51,108
135135,note_on,,,,,160,0,8,,,,,7,,,,63,0
135142,note_on,,,,,160,0,9,,,,,8,,,,51,0
135167,note_on,,,,,32,0,8,,,,,7,,,,63,108
135174,note_on,,,,,32,0,9,,,,,8,,,,51,108
135309,note_on,,,,,528,0,7,,,,,6,,,,63,0
135310,note_on,,,,,528,0,1,,,,,0,,,,75,0
135312,note_on,,,,,0,0,5,,,,,4,,,,55,0
135312,note_on,,,,,0,0,5,,,,,4,,,,63,0
135312,note_on,,,,,528,0,5,,,,,4,,,,75,0
135314,note_on,,,,,0,0,2,,,,,1,,,,51,0
135314,note_on,,,,,528,0,2,,,,,1,,,,63,0
135317,note_on,,,,,528,0,6,,,,,5,,,,75,0
135317,note_on,,,,,0,0,6,,,,,5,,,,63,0
135317,note_on,,,,,0,0,6,,,,,5,,,,55,0
135327,note_on,,,,,160,0,8,,,,,7,,,,63,0
135334,note_on,,,,,160,0,9,,,,,8,,,,51,0
135357,note_on,,,,,48,0,7,,,,,6,,,,60,108
135358,note_on,,,,,48,0,1,,,,,0,,,,72,108
135359,note_on,,,,,32,0,8,,,,,7,,,,48,108
135360,note_on,,,,,48,0,5,,,,,4,,,,72,108
135362,note_on,,,,,0,0,2,,,,,1,,,,63,108
135362,note_on,,,,,48,0,2,,,,,1,,,,51,108
135365,note_on,,,,,48,0,6,,,,,5,,,,72,108
135366,note_on,,,,,32,0,9,,,,,8,,,,36,108
135519,note_on,,,,,160,0,8,,,,,7,,,,48,0
135526,note_on,,,,,160,0,9,,,,,8,,,,36,0
135551,note_on,,,,,32,0,8,,,,,7,,,,60,108
135558,note_on,,,,,32,0,9,,,,,8,,,,48,108
135711,note_on,,,,,160,0,8,,,,,7,,,,60,0
135718,note_on,,,,,160,0,9,,,,,8,,,,48,0
135743,note_on,,,,,32,0,8,,,,,7,,,,60,108
135750,note_on,,,,,32,0,9,,,,,8,,,,48,108
135885,note_on,,,,,528,0,7,,,,,6,,,,60,0
135886,note_on,,,,,528,0,1,,,,,0,,,,72,0
135888,note_on,,,,,528,0,5,,,,,4,,,,72,0
135890,note_on,,,,,0,0,2,,,,,1,,,,51,0
135890,note_on,,,,,528,0,2,,,,,1,,,,63,0
135893,note_on,,,,,528,0,6,,,,,5,,,,72,0
135903,note_on,,,,,160,0,8,,,,,7,,,,60,0
135910,note_on,,,,,160,0,9,,,,,8,,,,48,0
135933,note_on,,,,,48,0,7,,,,,6,,,,55,108
135934,note_on,,,,,48,0,1,,,,,0,,,,67,108
135935,note_on,,,,,32,0,8,,,,,7,,,,55,108
135936,note_on,,,,,48,0,5,,,,,4,,,,67,108
135938,note_on,,,,,48,0,2,,,,,1,,,,51,108
135938,note_on,,,,,0,0,2,,,,,1,,,,63,108
135941,note_on,,,,,48,0,6,,,,,5,,,,67,108
135942,note_on,,,,,32,0,9,,,,,8,,,,43,108
136093,note_on,,,,,160,0,7,,,,,6,,,,55,0
136094,note_on,,,,,160,0,1,,,,,0,,,,67,0
136095,note_on,,,,,160,0,8,,,,,7,,,,55,0
136096,note_on,,,,,160,0,5,,,,,4,,,,67,0
136098,note_on,,,,,160,0,2,,,,,1,,,,63,0
136098,note_on,,,,,0,0,2,,,,,1,,,,51,0
136101,note_on,,,,,160,0,6,,,,,5,,,,67,0
136102,note_on,,,,,160,0,9,,,,,8,,,,43,0
136125,note_on,,,,,32,0,7,,,,,6,,,,57,108
136126,note_on,,,,,32,0,1,,,,,0,,,,69,108
136127,note_on,,,,,32,0,8,,,,,7,,,,57,108
136128,note_on,,,,,32,0,5,,,,,4,,,,69,108
136130,note_on,,,,,32,0,2,,,,,1,,,,51,108
136130,note_on,,,,,0,0,2,,,,,1,,,,63,108
136133,note_on,,,,,32,0,6,,,,,5,,,,69,108
136134,note_on,,,,,32,0,9,,,,,8,,,,45,108
136157,note_on,,,,,0,0,7,,,,,6,,,,58,108
136157,note_on,,,,,32,0,7,,,,,6,,,,57,0
136158,note_on,,,,,32,0,1,,,,,0,,,,69,0
136158,note_on,,,,,0,0,1,,,,,0,,,,70,108
136159,note_on,,,,,32,0,8,,,,,7,,,,57,0
136159,note_on,,,,,0,0,8,,,,,7,,,,58,108
136160,note_on,,,,,0,0,5,,,,,4,,,,70,108
136160,note_on,,,,,32,0,5,,,,,4,,,,69,0
136165,note_on,,,,,0,0,6,,,,,5,,,,70,108
136165,note_on,,,,,32,0,6,,,,,5,,,,69,0
136166,note_on,,,,,0,0,9,,,,,8,,,,46,108
136166,note_on,,,,,32,0,9,,,,,8,,,,45,0
136189,note_on,,,,,32,0,7,,,,,6,,,,58,0
136189,note_on,,,,,0,0,7,,,,,6,,,,57,108
136190,note_on,,,,,0,0,1,,,,,0,,,,69,108
136190,note_on,,,,,32,0,1,,,,,0,,,,70,0
136191,note_on,,,,,32,0,8,,,,,7,,,,58,0
136191,note_on,,,,,0,0,8,,,,,7,,,,57,108
136192,note_on,,,,,32,0,5,,,,,4,,,,70,0
136192,note_on,,,,,0,0,5,,,,,4,,,,69,108
136197,note_on,,,,,0,0,6,,,,,5,,,,69,108
136197,note_on,,,,,32,0,6,,,,,5,,,,70,0
136198,note_on,,,,,32,0,9,,,,,8,,,,46,0
136198,note_on,,,,,0,0,9,,,,,8,,,,45,108
136221,note_on,,,,,0,0,7,,,,,6,,,,58,108
136221,note_on,,,,,32,0,7,,,,,6,,,,57,0
136222,note_on,,,,,0,0,1,,,,,0,,,,70,108
136222,note_on,,,,,32,0,1,,,,,0,,,,69,0
136223,note_on,,,,,0,0,8,,,,,7,,,,58,108
136223,note_on,,,,,32,0,8,,,,,7,,,,57,0
136224,note_on,,,,,32,0,5,,,,,4,,,,69,0
136224,note_on,,,,,0,0,5,,,,,4,,,,70,108
136229,note_on,,,,,0,0,6,,,,,5,,,,70,108
136229,note_on,,,,,32,0,6,,,,,5,,,,69,0
136230,note_on,,,,,0,0,9,,,,,8,,,,46,108
136230,note_on,,,,,32,0,9,,,,,8,,,,45,0
136253,note_on,,,,,32,0,7,,,,,6,,,,58,0
136253,note_on,,,,,0,0,7,,,,,6,,,,57,108
136254,note_on,,,,,0,0,1,,,,,0,,,,69,108
136254,note_on,,,,,32,0,1,,,,,0,,,,70,0
136255,note_on,,,,,0,0,8,,,,,7,,,,57,108
136255,note_on,,,,,32,0,8,,,,,7,,,,58,0
136256,note_on,,,,,32,0,5,,,,,4,,,,70,0
136256,note_on,,,,,0,0,5,,,,,4,,,,69,108
136261,note_on,,,,,0,0,6,,,,,5,,,,69,108
136261,note_on,,,,,32,0,6,,,,,5,,,,70,0
136262,note_on,,,,,32,0,9,,,,,8,,,,46,0
136262,note_on,,,,,0,0,9,,,,,8,,,,45,108
136285,note_on,,,,,0,0,7,,,,,6,,,,58,108
136285,note_on,,,,,32,0,7,,,,,6,,,,57,0
136286,note_on,,,,,0,0,1,,,,,0,,,,70,108
136286,note_on,,,,,32,0,1,,,,,0,,,,69,0
136287,note_on,,,,,0,0,8,,,,,7,,,,58,108
136287,note_on,,,,,32,0,8,,,,,7,,,,57,0
136288,note_on,,,,,0,0,5,,,,,4,,,,70,108
136288,note_on,,,,,32,0,5,,,,,4,,,,69,0
136293,note_on,,,,,32,0,6,,,,,5,,,,69,0
136293,note_on,,,,,0,0,6,,,,,5,,,,70,108
136294,note_on,,,,,32,0,9,,,,,8,,,,45,0
136294,note_on,,,,,0,0,9,,,,,8,,,,46,108
136317,note_on,,,,,0,0,7,,,,,6,,,,57,108
136317,note_on,,,,,32,0,7,,,,,6,,,,58,0
136318,note_on,,,,,32,0,1,,,,,0,,,,70,0
136318,note_on,,,,,0,0,1,,,,,0,,,,69,108
136319,note_on,,,,,32,0,8,,,,,7,,,,58,0
136319,note_on,,,,,0,0,8,,,,,7,,,,57,108
136320,note_on,,,,,32,0,5,,,,,4,,,,70,0
136320,note_on,,,,,0,0,5,,,,,4,,,,69,108
136325,note_on,,,,,0,0,6,,,,,5,,,,69,108
136325,note_on,,,,,32,0,6,,,,,5,,,,70,0
136326,note_on,,,,,0,0,9,,,,,8,,,,45,108
136326,note_on,,,,,32,0,9,,,,,8,,,,46,0
136349,note_on,,,,,32,0,7,,,,,6,,,,57,0
136349,note_on,,,,,0,0,7,,,,,6,,,,58,108
136350,note_on,,,,,32,0,1,,,,,0,,,,69,0
136350,note_on,,,,,0,0,1,,,,,0,,,,70,108
136351,note_on,,,,,32,0,8,,,,,7,,,,57,0
136351,note_on,,,,,0,0,8,,,,,7,,,,58,108
136352,note_on,,,,,32,0,5,,,,,4,,,,69,0
136352,note_on,,,,,0,0,5,,,,,4,,,,70,108
136357,note_on,,,,,0,0,6,,,,,5,,,,70,108
136357,note_on,,,,,32,0,6,,,,,5,,,,69,0
136358,note_on,,,,,0,0,9,,,,,8,,,,46,108
136358,note_on,,,,,32,0,9,,,,,8,,,,45,0
136381,note_on,,,,,32,0,7,,,,,6,,,,58,0
136381,note_on,,,,,0,0,7,,,,,6,,,,57,108
136382,note_on,,,,,0,0,1,,,,,0,,,,69,108
136382,note_on,,,,,32,0,1,,,,,0,,,,70,0
136383,note_on,,,,,32,0,8,,,,,7,,,,58,0
136383,note_on,,,,,0,0,8,,,,,7,,,,57,108
136384,note_on,,,,,0,0,5,,,,,4,,,,69,108
136384,note_on,,,,,32,0,5,,,,,4,,,,70,0
136389,note_on,,,,,32,0,6,,,,,5,,,,70,0
136389,note_on,,,,,0,0,6,,,,,5,,,,69,108
136390,note_on,,,,,32,0,9,,,,,8,,,,46,0
136390,note_on,,,,,0,0,9,,,,,8,,,,45,108
136413,note_on,,,,,32,0,7,,,,,6,,,,57,0
136413,note_on,,,,,0,0,7,,,,,6,,,,55,108
136414,note_on,,,,,0,0,1,,,,,0,,,,67,108
136414,note_on,,,,,32,0,1,,,,,0,,,,69,0
136415,note_on,,,,,32,0,8,,,,,7,,,,57,0
136415,note_on,,,,,0,0,8,,,,,7,,,,55,108
136416,note_on,,,,,0,0,5,,,,,4,,,,67,108
136416,note_on,,,,,32,0,5,,,,,4,,,,69,0
136421,note_on,,,,,0,0,6,,,,,5,,,,67,108
136421,note_on,,,,,32,0,6,,,,,5,,,,69,0
136422,note_on,,,,,32,0,9,,,,,8,,,,45,0
136422,note_on,,,,,0,0,9,,,,,8,,,,43,108
136461,note_on,,,,,48,0,7,,,,,6,,,,55,0
136461,note_on,,,,,0,0,7,,,,,6,,,,57,108
136462,note_on,,,,,48,0,1,,,,,0,,,,67,0
136462,note_on,,,,,0,0,1,,,,,0,,,,69,108
136463,note_on,,,,,48,0,8,,,,,7,,,,55,0
136463,note_on,,,,,0,0,8,,,,,7,,,,57,108
136464,note_on,,,,,0,0,5,,,,,4,,,,69,108
136464,note_on,,,,,48,0,5,,,,,4,,,,67,0
136466,note_on,,,,,336,0,2,,,,,1,,,,63,0
136466,note_on,,,,,0,0,2,,,,,1,,,,51,0
136469,note_on,,,,,0,0,6,,,,,5,,,,69,108
136469,note_on,,,,,48,0,6,,,,,5,,,,67,0
136470,note_on,,,,,48,0,9,,,,,8,,,,43,0
136470,note_on,,,,,0,0,9,,,,,8,,,,45,108
136507,note_on,,,,,46,0,7,,,,,6,,,,57,0
136508,note_on,,,,,46,0,1,,,,,0,,,,69,0
136509,note_on,,,,,46,0,8,,,,,7,,,,57,0
136509,note_on,,,,,2,0,7,,,,,6,,,,58,108
136510,note_on,,,,,46,0,5,,,,,4,,,,69,0
136510,note_on,,,,,2,0,1,,,,,0,,,,70,108
136511,note_on,,,,,2,0,8,,,,,7,,,,58,108
136512,note_on,,,,,2,0,5,,,,,4,,,,70,108
136514,note_on,,,,,0,0,2,,,,,1,,,,58,108
136514,note_on,,,,,48,0,2,,,,,1,,,,46,108
136515,note_on,,,,,46,0,6,,,,,5,,,,69,0
136516,note_on,,,,,46,0,9,,,,,8,,,,45,0
136517,note_on,,,,,2,0,6,,,,,5,,,,70,108
136518,note_on,,,,,2,0,9,,,,,8,,,,46,108
137037,note_on,,,,,528,0,7,,,,,6,,,,58,0
137038,note_on,,,,,528,0,1,,,,,0,,,,70,0
137039,note_on,,,,,528,0,8,,,,,7,,,,58,0
137040,note_on,,,,,528,0,5,,,,,4,,,,70,0
137042,note_on,,,,,528,0,2,,,,,1,,,,58,0
137042,note_on,,,,,0,0,2,,,,,1,,,,46,0
137045,note_on,,,,,528,0,6,,,,,5,,,,70,0
137046,note_on,,,,,528,0,9,,,,,8,,,,46,0
137088,note_on,,,,,48,0,5,,,,,4,,,,65,45
137093,note_on,,,,,48,0,6,,,,,5,,,,62,45
137248,note_on,,,,,160,0,5,,,,,4,,,,65,0
137253,note_on,,,,,160,0,6,,,,,5,,,,62,0
137280,note_on,,,,,32,0,5,,,,,4,,,,67,45
137285,note_on,,,,,32,0,6,,,,,5,,,,64,45
137312,note_on,,,,,32,0,5,,,,,4,,,,67,0
137312,note_on,,,,,0,0,5,,,,,4,,,,68,45
137317,note_on,,,,,0,0,6,,,,,5,,,,65,45
137317,note_on,,,,,32,0,6,,,,,5,,,,64,0
137344,note_on,,,,,32,0,5,,,,,4,,,,68,0
137344,note_on,,,,,0,0,5,,,,,4,,,,67,45
137349,note_on,,,,,32,0,6,,,,,5,,,,65,0
137349,note_on,,,,,0,0,6,,,,,5,,,,64,45
137376,note_on,,,,,0,0,5,,,,,4,,,,68,45
137376,note_on,,,,,32,0,5,,,,,4,,,,67,0
137381,note_on,,,,,32,0,6,,,,,5,,,,64,0
137381,note_on,,,,,0,0,6,,,,,5,,,,65,45
137408,note_on,,,,,0,0,5,,,,,4,,,,67,45
137408,note_on,,,,,32,0,5,,,,,4,,,,68,0
137413,note_on,,,,,32,0,6,,,,,5,,,,65,0
137413,note_on,,,,,0,0,6,,,,,5,,,,64,45
137440,note_on,,,,,0,0,5,,,,,4,,,,68,45
137440,note_on,,,,,32,0,5,,,,,4,,,,67,0
137445,note_on,,,,,0,0,6,,,,,5,,,,65,45
137445,note_on,,,,,32,0,6,,,,,5,,,,64,0
137472,note_on,,,,,32,0,5,,,,,4,,,,68,0
137472,note_on,,,,,0,0,5,,,,,4,,,,67,45
137477,note_on,,,,,32,0,6,,,,,5,,,,65,0
137477,note_on,,,,,0,0,6,,,,,5,,,,64,45
137504,note_on,,,,,32,0,5,,,,,4,,,,67,0
137504,note_on,,,,,0,0,5,,,,,4,,,,68,45
137509,note_on,,,,,32,0,6,,,,,5,,,,64,0
137509,note_on,,,,,0,0,6,,,,,5,,,,65,45
137536,note_on,,,,,0,0,5,,,,,4,,,,67,45
137536,note_on,,,,,32,0,5,,,,,4,,,,68,0
137541,note_on,,,,,32,0,6,,,,,5,,,,65,0
137541,note_on,,,,,0,0,6,,,,,5,,,,64,45
137568,note_on,,,,,32,0,5,,,,,4,,,,67,0
137568,note_on,,,,,0,0,5,,,,,4,,,,65,45
137573,note_on,,,,,0,0,6,,,,,5,,,,62,45
137573,note_on,,,,,32,0,6,,,,,5,,,,64,0
137616,note_on,,,,,48,0,5,,,,,4,,,,65,0
137616,note_on,,,,,0,0,5,,,,,4,,,,67,45
137621,note_on,,,,,0,0,6,,,,,5,,,,64,45
137621,note_on,,,,,48,0,6,,,,,5,,,,62,0
137661,note_on,,,,,624,0,7,,,,,6,,,,60,45
137662,note_on,,,,,46,0,5,,,,,4,,,,67,0
137663,note_on,,,,,624,0,8,,,,,7,,,,44,45
137664,note_on,,,,,2,0,5,,,,,4,,,,68,45
137667,note_on,,,,,46,0,6,,,,,5,,,,64,0
137669,note_on,,,,,2,0,6,,,,,5,,,,65,45
137670,note_on,,,,,624,0,9,,,,,8,,,,32,45
137952,note_on,,,,,288,0,5,,,,,4,,,,68,0
137952,note_on,,,,,0,0,5,,,,,4,,,,70,45
137957,note_on,,,,,288,0,6,,,,,5,,,,65,0
137957,note_on,,,,,0,0,6,,,,,5,,,,67,45
138045,note_on,,,,,0,0,7,,,,,6,,,,53,45
138045,note_on,,,,,384,0,7,,,,,6,,,,60,0
138048,note_on,,,,,0,0,5,,,,,4,,,,72,45
138048,note_on,,,,,96,0,5,,,,,4,,,,70,0
138053,note_on,,,,,96,0,6,,,,,5,,,,67,0
138053,note_on,,,,,0,0,6,,,,,5,,,,68,45
138205,note_on,,,,,160,0,7,,,,,6,,,,53,0
138208,note_on,,,,,160,0,5,,,,,4,,,,72,0
138213,note_on,,,,,160,0,6,,,,,5,,,,68,0
138237,note_on,,,,,32,0,7,,,,,6,,,,50,45
138239,note_on,,,,,0,0,8,,,,,7,,,,46,45
138239,note_on,,,,,576,0,8,,,,,7,,,,44,0
138240,note_on,,,,,32,0,5,,,,,4,,,,58,45
138245,note_on,,,,,32,0,6,,,,,5,,,,58,45
138246,note_on,,,,,576,0,9,,,,,8,,,,32,0
138246,note_on,,,,,0,0,9,,,,,8,,,,34,45
138285,note_on,,,,,48,0,7,,,,,6,,,,50,0
138288,note_on,,,,,48,0,5,,,,,4,,,,58,0
138429,note_on,,,,,144,0,7,,,,,6,,,,51,45
138432,note_on,,,,,144,0,5,,,,,4,,,,60,45
138477,note_on,,,,,48,0,7,,,,,6,,,,51,0
138480,note_on,,,,,48,0,5,,,,,4,,,,60,0
138621,note_on,,,,,144,0,7,,,,,6,,,,53,45
138624,note_on,,,,,144,0,5,,,,,4,,,,62,45
138629,note_on,,,,,384,0,6,,,,,5,,,,58,0
138629,note_on,,,,,0,0,6,,,,,5,,,,56,45
138669,note_on,,,,,48,0,7,,,,,6,,,,53,0
138672,note_on,,,,,48,0,5,,,,,4,,,,62,0
138767,note_on,,,,,528,0,8,,,,,7,,,,46,0
138774,note_on,,,,,528,0,9,,,,,8,,,,34,0
138789,note_on,,,,,160,0,6,,,,,5,,,,56,0
138813,note_on,,,,,144,0,7,,,,,6,,,,51,45
138815,note_on,,,,,48,0,8,,,,,7,,,,39,45
138816,note_on,,,,,144,0,5,,,,,4,,,,63,45
138816,set_tempo,,,,,4032,1,0,,413793,,,,,,,,
138821,note_on,,,,,32,0,6,,,,,5,,,,55,45
138822,note_on,,,,,48,0,9,,,,,8,,,,27,45
138912,note_on,,,,,96,0,5,,,,,4,,,,63,0
138912,note_on,,,,,0,0,5,,,,,4,,,,67,45
138973,note_on,,,,,160,0,7,,,,,6,,,,51,0
138975,note_on,,,,,160,0,8,,,,,7,,,,39,0
138981,note_on,,,,,160,0,6,,,,,5,,,,55,0
138982,note_on,,,,,160,0,9,,,,,8,,,,27,0
139008,note_on,,,,,96,0,5,,,,,4,,,,67,0
139008,note_on,,,,,0,0,5,,,,,4,,,,70,45
139104,note_on,,,,,96,0,5,,,,,4,,,,70,0
139104,note_on,,,,,0,0,5,,,,,4,,,,75,45
139200,note_on,,,,,96,0,5,,,,,4,,,,75,0
139200,note_on,,,,,0,0,5,,,,,4,,,,79,45
139296,note_on,,,,,0,0,5,,,,,4,,,,75,45
139296,note_on,,,,,96,0,5,,,,,4,,,,79,0
139388,note_on,,,,,4448,0,3,,,,,2,,,,82,75
139390,note_on,,,,,94,0,5,,,,,4,,,,75,0
139392,note_on,,,,,2,0,5,,,,,4,,,,82,45
139396,note_on,,,,,4448,0,4,,,,,3,,,,62,75
139396,note_on,,,,,0,0,4,,,,,3,,,,65,75
139420,note_on,,,,,32,0,3,,,,,2,,,,82,0
139484,note_on,,,,,64,0,3,,,,,2,,,,82,75
139516,note_on,,,,,32,0,3,,,,,2,,,,82,0
139552,note_on,,,,,160,0,5,,,,,4,,,,82,0
139556,note_on,,,,,160,0,4,,,,,3,,,,65,0
139556,note_on,,,,,0,0,4,,,,,3,,,,62,0
139580,note_on,,,,,64,0,3,,,,,2,,,,82,75
139588,note_on,,,,,0,0,4,,,,,3,,,,66,75
139588,note_on,,,,,32,0,4,,,,,3,,,,63,75
139612,note_on,,,,,32,0,3,,,,,2,,,,82,0
139676,note_on,,,,,64,0,3,,,,,2,,,,82,75
139708,note_on,,,,,32,0,3,,,,,2,,,,82,0
139748,note_on,,,,,160,0,4,,,,,3,,,,66,0
139748,note_on,,,,,0,0,4,,,,,3,,,,63,0
139772,note_on,,,,,64,0,3,,,,,2,,,,82,75
139780,note_on,,,,,32,0,4,,,,,3,,,,64,75
139780,note_on,,,,,0,0,4,,,,,3,,,,67,75
139804,note_on,,,,,32,0,3,,,,,2,,,,82,0
139868,note_on,,,,,64,0,3,,,,,2,,,,82,75
139900,note_on,,,,,32,0,3,,,,,2,,,,82,0
139940,note_on,,,,,0,0,4,,,,,3,,,,64,0
139940,note_on,,,,,160,0,4,,,,,3,,,,67,0
139964,note_on,,,,,64,0,3,,,,,2,,,,82,75
139972,note_on,,,,,32,0,4,,,,,3,,,,65,75
139972,note_on,,,,,0,0,4,,,,,3,,,,68,75
140060,note_on,,,,,96,0,3,,,,,2,,,,82,0
140060,note_on,,,,,0,0,3,,,,,2,,,,83,75
140156,note_on,,,,,96,0,3,,,,,2,,,,83,0
140156,note_on,,,,,0,0,3,,,,,2,,,,84,75
140252,note_on,,,,,0,0,3,,,,,2,,,,76,92
140252,note_on,,,,,96,0,3,,,,,2,,,,84,0
140260,note_on,,,,,0,0,4,,,,,3,,,,67,75
140260,note_on,,,,,0,0,4,,,,,3,,,,65,0
140260,note_on,,,,,288,0,4,,,,,3,,,,68,0
140260,note_on,,,,,0,0,4,,,,,3,,,,70,75
140348,note_on,,,,,0,0,3,,,,,2,,,,77,92
140348,note_on,,,,,96,0,3,,,,,2,,,,76,0
140356,note_on,,,,,0,0,4,,,,,3,,,,67,0
140356,note_on,,,,,96,0,4,,,,,3,,,,70,0
140356,note_on,,,,,0,0,4,,,,,3,,,,72,75
140356,note_on,,,,,0,0,4,,,,,3,,,,68,75
140444,note_on,,,,,96,0,3,,,,,2,,,,77,0
140444,note_on,,,,,0,0,3,,,,,2,,,,79,92
140516,note_on,,,,,0,0,4,,,,,3,,,,68,0
140516,note_on,,,,,160,0,4,,,,,3,,,,72,0
140540,note_on,,,,,0,0,3,,,,,2,,,,80,75
140540,note_on,,,,,96,0,3,,,,,2,,,,79,0
140548,note_on,,,,,0,0,4,,,,,3,,,,65,75
140548,note_on,,,,,0,0,4,,,,,3,,,,62,75
140548,note_on,,,,,32,0,4,,,,,3,,,,58,75
140636,note_on,,,,,96,0,3,,,,,2,,,,80,0
140636,note_on,,,,,0,0,3,,,,,2,,,,77,75
140732,note_on,,,,,96,0,3,,,,,2,,,,77,0
140732,note_on,,,,,0,0,3,,,,,2,,,,75,75
140740,note_on,,,,,0,0,4,,,,,3,,,,67,75
140740,note_on,,,,,0,0,4,,,,,3,,,,63,75
140740,note_on,,,,,192,0,4,,,,,3,,,,65,0
140740,note_on,,,,,0,0,4,,,,,3,,,,62,0
140828,note_on,,,,,96,0,3,,,,,2,,,,75,0
140828,note_on,,,,,0,0,3,,,,,2,,,,74,75
140924,note_on,,,,,96,0,3,,,,,2,,,,74,0
140924,note_on,,,,,0,0,3,,,,,2,,,,72,75
140932,note_on,,,,,192,0,4,,,,,3,,,,67,0
140932,note_on,,,,,0,0,4,,,,,3,,,,68,75
140932,note_on,,,,,0,0,4,,,,,3,,,,65,75
140932,note_on,,,,,0,0,4,,,,,3,,,,63,0
141020,note_on,,,,,96,0,3,,,,,2,,,,72,0
141020,note_on,,,,,0,0,3,,,,,2,,,,70,75
141076,note_on,,,,,144,0,4,,,,,3,,,,58,0
141092,note_on,,,,,16,0,4,,,,,3,,,,68,0
141092,note_on,,,,,0,0,4,,,,,3,,,,65,0
141114,note_on,,,,,94,0,3,,,,,2,,,,70,0
141116,note_on,,,,,2,0,3,,,,,2,,,,69,75
141120,set_tempo,,,,,2304,1,0,,521739,,,,,,,,
141124,note_on,,,,,0,0,4,,,,,3,,,,67,75
141124,note_on,,,,,32,0,4,,,,,3,,,,63,75
141140,note_on,,,,,24,0,3,,,,,2,,,,69,0
141140,note_on,,,,,0,0,3,,,,,2,,,,70,75
141164,note_on,,,,,0,0,3,,,,,2,,,,69,75
141164,note_on,,,,,24,0,3,,,,,2,,,,70,0
141188,note_on,,,,,0,0,3,,,,,2,,,,70,75
141188,note_on,,,,,24,0,3,,,,,2,,,,69,0
141212,note_on,,,,,0,0,3,,,,,2,,,,75,75
141212,note_on,,,,,24,0,3,,,,,2,,,,70,0
141216,set_tempo,,,,,96,1,0,,413793,,,,,,,,
141284,note_on,,,,,0,0,4,,,,,3,,,,63,0
141284,note_on,,,,,160,0,4,,,,,3,,,,67,0
141306,note_on,,,,,94,0,3,,,,,2,,,,75,0
141308,note_on,,,,,2,0,3,,,,,2,,,,70,92
141340,note_on,,,,,32,0,3,,,,,2,,,,70,0
141404,note_on,,,,,64,0,3,,,,,2,,,,70,92
141436,note_on,,,,,32,0,3,,,,,2,,,,70,0
141500,note_on,,,,,64,0,3,,,,,2,,,,70,92
141596,note_on,,,,,0,0,3,,,,,2,,,,69,92
141596,note_on,,,,,96,0,3,,,,,2,,,,70,0
141690,note_on,,,,,94,0,3,,,,,2,,,,69,0
141692,note_on,,,,,2,0,3,,,,,2,,,,68,92
141693,note_on,,,,,2720,0,7,,,,,6,,,,50,45
141696,note_on,,,,,2144,0,5,,,,,4,,,,58,45
141741,note_on,,,,,48,0,7,,,,,6,,,,50,0
141744,note_on,,,,,48,0,5,,,,,4,,,,58,0
141788,note_on,,,,,96,0,3,,,,,2,,,,68,0
141788,note_on,,,,,0,0,3,,,,,2,,,,65,92
141884,note_on,,,,,0,0,3,,,,,2,,,,63,92
141884,note_on,,,,,96,0,3,,,,,2,,,,65,0
141885,note_on,,,,,144,0,7,,,,,6,,,,51,45
141888,note_on,,,,,144,0,5,,,,,4,,,,60,45
141933,note_on,,,,,48,0,7,,,,,6,,,,51,0
141936,note_on,,,,,48,0,5,,,,,4,,,,60,0
141980,note_on,,,,,96,0,3,,,,,2,,,,63,0
141980,note_on,,,,,0,0,3,,,,,2,,,,62,92
142076,note_on,,,,,0,0,3,,,,,2,,,,60,92
142076,note_on,,,,,96,0,3,,,,,2,,,,62,0
142077,note_on,,,,,144,0,7,,,,,6,,,,53,45
142079,note_on,,,,,3104,0,8,,,,,7,,,,46,45
142080,note_on,,,,,144,0,5,,,,,4,,,,62,45
142085,note_on,,,,,3104,0,6,,,,,5,,,,56,45
142086,note_on,,,,,3104,0,9,,,,,8,,,,34,45
142125,note_on,,,,,48,0,7,,,,,6,,,,53,0
142127,note_on,,,,,48,0,8,,,,,7,,,,46,0
142128,note_on,,,,,48,0,5,,,,,4,,,,62,0
142133,note_on,,,,,48,0,6,,,,,5,,,,56,0
142134,note_on,,,,,48,0,9,,,,,8,,,,34,0
142172,note_on,,,,,96,0,3,,,,,2,,,,60,0
142172,note_on,,,,,0,0,3,,,,,2,,,,58,92
142266,note_on,,,,,94,0,3,,,,,2,,,,58,0
142268,note_on,,,,,2,0,3,,,,,2,,,,56,75
142269,note_on,,,,,144,0,7,,,,,6,,,,51,45
142271,note_on,,,,,144,0,8,,,,,7,,,,51,45
142272,note_on,,,,,144,0,5,,,,,4,,,,63,45
142272,set_tempo,,,,,1056,1,0,,521739,,,,,,,,
142277,note_on,,,,,144,0,6,,,,,5,,,,55,45
142278,note_on,,,,,144,0,9,,,,,8,,,,39,45
142292,note_on,,,,,24,0,3,,,,,2,,,,56,0
142292,note_on,,,,,0,0,3,,,,,2,,,,58,75
142316,note_on,,,,,24,0,3,,,,,2,,,,58,0
142316,note_on,,,,,0,0,3,,,,,2,,,,56,75
142317,note_on,,,,,48,0,7,,,,,6,,,,51,0
142319,note_on,,,,,48,0,8,,,,,7,,,,51,0
142320,note_on,,,,,48,0,5,,,,,4,,,,63,0
142325,note_on,,,,,48,0,6,,,,,5,,,,55,0
142326,note_on,,,,,48,0,9,,,,,8,,,,39,0
142340,note_on,,,,,24,0,3,,,,,2,,,,56,0
142340,note_on,,,,,0,0,3,,,,,2,,,,58,75
142364,note_on,,,,,0,0,3,,,,,2,,,,63,75
142364,note_on,,,,,24,0,3,,,,,2,,,,58,0
142368,set_tempo,,,,,96,1,0,,413793,,,,,,,,
142458,note_on,,,,,94,0,3,,,,,2,,,,63,0
142460,note_on,,,,,2,0,3,,,,,2,,,,58,92
142492,note_on,,,,,32,0,3,,,,,2,,,,58,0
142556,note_on,,,,,64,0,3,,,,,2,,,,58,92
142588,note_on,,,,,32,0,3,,,,,2,,,,58,0
142652,note_on,,,,,64,0,3,,,,,2,,,,58,92
142748,note_on,,,,,96,0,3,,,,,2,,,,58,0
142748,note_on,,,,,0,0,3,,,,,2,,,,57,92
142842,note_on,,,,,94,0,3,,,,,2,,,,57,0
142848,note_on,,,,,528,0,5,,,,,4,,,,70,45
142852,note_on,,,,,1568,0,4,,,,,3,,,,56,92
142853,note_on,,,,,528,0,6,,,,,5,,,,62,45
142896,note_on,,,,,48,0,5,,,,,4,,,,70,0
142901,note_on,,,,,48,0,6,,,,,5,,,,62,0
142948,note_on,,,,,96,0,4,,,,,3,,,,56,0
142948,note_on,,,,,0,0,4,,,,,3,,,,53,92
143040,note_on,,,,,144,0,5,,,,,4,,,,72,45
143044,note_on,,,,,96,0,4,,,,,3,,,,53,0
143044,note_on,,,,,0,0,4,,,,,3,,,,51,92
143045,note_on,,,,,144,0,6,,,,,5,,,,63,45
143088,note_on,,,,,48,0,5,,,,,4,,,,72,0
143093,note_on,,,,,48,0,6,,,,,5,,,,63,0
143140,note_on,,,,,96,0,4,,,,,3,,,,51,0
143140,note_on,,,,,0,0,4,,,,,3,,,,50,92
143229,note_on,,,,,912,0,7,,,,,6,,,,68,45
143231,note_on,,,,,912,0,8,,,,,7,,,,46,45
143232,note_on,,,,,144,0,5,,,,,4,,,,74,45
143236,note_on,,,,,96,0,4,,,,,3,,,,50,0
143236,note_on,,,,,0,0,4,,,,,3,,,,48,92
143237,note_on,,,,,144,0,6,,,,,5,,,,65,45
143238,note_on,,,,,912,0,9,,,,,8,,,,34,45
143277,note_on,,,,,48,0,7,,,,,6,,,,68,0
143279,note_on,,,,,48,0,8,,,,,7,,,,46,0
143280,note_on,,,,,48,0,5,,,,,4,,,,74,0
143285,note_on,,,,,48,0,6,,,,,5,,,,65,0
143286,note_on,,,,,48,0,9,,,,,8,,,,34,0
143332,note_on,,,,,96,0,4,,,,,3,,,,48,0
143332,note_on,,,,,0,0,4,,,,,3,,,,46,92
143420,note_on,,,,,578,0,3,,,,,2,,,,51,92
143421,note_on,,,,,144,0,7,,,,,6,,,,67,45
143423,note_on,,,,,144,0,8,,,,,7,,,,39,45
143424,note_on,,,,,144,0,5,,,,,4,,,,75,45
143424,set_tempo,,,,,1056,1,0,,428571,,,,,,,,
143426,note_on,,,,,94,0,4,,,,,3,,,,46,0
143429,note_on,,,,,144,0,6,,,,,5,,,,63,45
143430,note_on,,,,,144,0,9,,,,,8,,,,27,45
143469,note_on,,,,,48,0,7,,,,,6,,,,67,0
143471,note_on,,,,,48,0,8,,,,,7,,,,39,0
143472,note_on,,,,,48,0,5,,,,,4,,,,75,0
143476,note_on,,,,,50,0,4,,,,,3,,,,39,60
143477,note_on,,,,,48,0,6,,,,,5,,,,63,0
143478,note_on,,,,,48,0,9,,,,,8,,,,27,0
143524,note_on,,,,,0,0,4,,,,,3,,,,41,60
143524,note_on,,,,,48,0,4,,,,,3,,,,39,0
143572,note_on,,,,,48,0,4,,,,,3,,,,41,0
143572,note_on,,,,,0,0,4,,,,,3,,,,43,60
143580,note_on,,,,,160,0,3,,,,,2,,,,51,0
143620,note_on,,,,,0,0,4,,,,,3,,,,44,75
143620,note_on,,,,,48,0,4,,,,,3,,,,43,0
143668,note_on,,,,,0,0,4,,,,,3,,,,46,75
143668,note_on,,,,,48,0,4,,,,,3,,,,44,0
143716,note_on,,,,,0,0,4,,,,,3,,,,48,75
143716,note_on,,,,,48,0,4,,,,,3,,,,46,0
143764,note_on,,,,,48,0,4,,,,,3,,,,48,0
143764,note_on,,,,,0,0,4,,,,,3,,,,50,75
143812,note_on,,,,,48,0,4,,,,,3,,,,50,0
143812,note_on,,,,,0,0,4,,,,,3,,,,51,92
143860,note_on,,,,,0,0,4,,,,,3,,,,50,92
143860,note_on,,,,,48,0,4,,,,,3,,,,51,0
143908,note_on,,,,,48,0,4,,,,,3,,,,50,0
143908,note_on,,,,,0,0,4,,,,,3,,,,51,92
143956,note_on,,,,,48,0,4,,,,,3,,,,51,0
143956,note_on,,,,,0,0,4,,,,,3,,,,50,92
143997,note_on,,,,,528,0,7,,,,,6,,,,61,45
144000,note_on,,,,,528,0,5,,,,,4,,,,70,45
144004,note_on,,,,,48,0,4,,,,,3,,,,50,0
144004,note_on,,,,,0,0,4,,,,,3,,,,51,92
144005,note_on,,,,,528,0,6,,,,,5,,,,67,45
144044,note_on,,,,,464,0,3,,,,,2,,,,63,60
144092,note_on,,,,,0,0,3,,,,,2,,,,65,60
144092,note_on,,,,,48,0,3,,,,,2,,,,63,0
144140,note_on,,,,,0,0,3,,,,,2,,,,67,60
144140,note_on,,,,,48,0,3,,,,,2,,,,65,0
144164,note_on,,,,,160,0,4,,,,,3,,,,51,0
144188,note_on,,,,,0,0,3,,,,,2,,,,68,75
144188,note_on,,,,,48,0,3,,,,,2,,,,67,0
144189,note_on,,,,,0,0,7,,,,,6,,,,60,45
144189,note_on,,,,,192,0,7,,,,,6,,,,61,0
144192,note_on,,,,,192,0,5,,,,,4,,,,70,0
144192,note_on,,,,,0,0,5,,,,,4,,,,72,45
144197,note_on,,,,,192,0,6,,,,,5,,,,67,0
144197,note_on,,,,,0,0,6,,,,,5,,,,68,45
144236,note_on,,,,,0,0,3,,,,,2,,,,70,75
144236,note_on,,,,,48,0,3,,,,,2,,,,68,0
144284,note_on,,,,,48,0,3,,,,,2,,,,70,0
144284,note_on,,,,,0,0,3,,,,,2,,,,72,75
144332,note_on,,,,,48,0,3,,,,,2,,,,72,0
144332,note_on,,,,,0,0,3,,,,,2,,,,74,75
144380,note_on,,,,,48,0,3,,,,,2,,,,74,0
144380,note_on,,,,,0,0,3,,,,,2,,,,75,92
144381,note_on,,,,,0,0,7,,,,,6,,,,55,45
144381,note_on,,,,,192,0,7,,,,,6,,,,60,0
144384,note_on,,,,,0,0,5,,,,,4,,,,73,45
144384,note_on,,,,,192,0,5,,,,,4,,,,72,0
144389,note_on,,,,,0,0,6,,,,,5,,,,70,45
144389,note_on,,,,,192,0,6,,,,,5,,,,68,0
144428,note_on,,,,,48,0,3,,,,,2,,,,75,0
144428,note_on,,,,,0,0,3,,,,,2,,,,74,92
144476,note_on,,,,,0,0,3,,,,,2,,,,75,92
144476,note_on,,,,,48,0,3,,,,,2,,,,74,0
144524,note_on,,,,,0,0,3,,,,,2,,,,74,92
144524,note_on,,,,,48,0,3,,,,,2,,,,75,0
144541,note_on,,,,,160,0,7,,,,,6,,,,55,0
144544,note_on,,,,,160,0,5,,,,,4,,,,73,0
144549,note_on,,,,,160,0,6,,,,,5,,,,70,0
144572,note_on,,,,,0,0,3,,,,,2,,,,75,92
144572,note_on,,,,,48,0,3,,,,,2,,,,74,0
144573,note_on,,,,,32,0,7,,,,,6,,,,56,45
144575,note_on,,,,,1104,0,8,,,,,7,,,,51,45
144576,set_tempo,,,,,1152,1,0,,441176,,,,,,,,
144576,note_on,,,,,32,0,5,,,,,4,,,,72,45
144581,note_on,,,,,32,0,6,,,,,5,,,,68,45
144582,note_on,,,,,1104,0,9,,,,,8,,,,39,45
144628,note_on,,,,,464,0,4,,,,,3,,,,51,60
144676,note_on,,,,,48,0,4,,,,,3,,,,51,0
144676,note_on,,,,,0,0,4,,,,,3,,,,53,60
144724,note_on,,,,,48,0,4,,,,,3,,,,53,0
144724,note_on,,,,,0,0,4,,,,,3,,,,55,60
144732,note_on,,,,,160,0,3,,,,,2,,,,75,0
144733,note_on,,,,,160,0,7,,,,,6,,,,56,0
144735,note_on,,,,,160,0,8,,,,,7,,,,51,0
144736,note_on,,,,,160,0,5,,,,,4,,,,72,0
144741,note_on,,,,,160,0,6,,,,,5,,,,68,0
144742,note_on,,,,,160,0,9,,,,,8,,,,39,0
144772,note_on,,,,,48,0,4,,,,,3,,,,55,0
144772,note_on,,,,,0,0,4,,,,,3,,,,56,75
144820,note_on,,,,,48,0,4,,,,,3,,,,56,0
144820,note_on,,,,,0,0,4,,,,,3,,,,58,75
144868,note_on,,,,,0,0,4,,,,,3,,,,60,75
144868,note_on,,,,,48,0,4,,,,,3,,,,58,0
144916,note_on,,,,,48,0,4,,,,,3,,,,60,0
144916,note_on,,,,,0,0,4,,,,,3,,,,62,75
144964,note_on,,,,,0,0,4,,,,,3,,,,63,92
144964,note_on,,,,,48,0,4,,,,,3,,,,62,0
145012,note_on,,,,,0,0,4,,,,,3,,,,62,92
145012,note_on,,,,,48,0,4,,,,,3,,,,63,0
145060,note_on,,,,,0,0,4,,,,,3,,,,63,92
145060,note_on,,,,,48,0,4,,,,,3,,,,62,0
145108,note_on,,,,,0,0,4,,,,,3,,,,62,92
145108,note_on,,,,,48,0,4,,,,,3,,,,63,0
145149,note_on,,,,,416,0,7,,,,,6,,,,63,45
145152,note_on,,,,,416,0,5,,,,,4,,,,75,45
145156,note_on,,,,,48,0,4,,,,,3,,,,62,0
145156,note_on,,,,,0,0,4,,,,,3,,,,63,92
145157,note_on,,,,,416,0,6,,,,,5,,,,72,45
145196,note_on,,,,,464,0,3,,,,,2,,,,75,60
145244,note_on,,,,,0,0,3,,,,,2,,,,77,60
145244,note_on,,,,,48,0,3,,,,,2,,,,75,0
145292,note_on,,,,,0,0,3,,,,,2,,,,79,60
145292,note_on,,,,,48,0,3,,,,,2,,,,77,0
145316,note_on,,,,,160,0,4,,,,,3,,,,63,0
145340,note_on,,,,,0,0,3,,,,,2,,,,80,75
145340,note_on,,,,,48,0,3,,,,,2,,,,79,0
145344,note_on,,,,,192,0,5,,,,,4,,,,75,0
145344,note_on,,,,,0,0,5,,,,,4,,,,73,45
145349,note_on,,,,,0,0,6,,,,,5,,,,70,45
145349,note_on,,,,,192,0,6,,,,,5,,,,72,0
145388,note_on,,,,,48,0,3,,,,,2,,,,80,0
145388,note_on,,,,,0,0,3,,,,,2,,,,82,75
145436,note_on,,,,,0,0,3,,,,,2,,,,84,75
145436,note_on,,,,,48,0,3,,,,,2,,,,82,0
145484,note_on,,,,,0,0,3,,,,,2,,,,86,75
145484,note_on,,,,,48,0,3,,,,,2,,,,84,0
145532,note_on,,,,,0,0,3,,,,,2,,,,87,92
145532,note_on,,,,,48,0,3,,,,,2,,,,86,0
145536,note_on,,,,,192,0,5,,,,,4,,,,73,0
145536,note_on,,,,,0,0,5,,,,,4,,,,72,45
145541,note_on,,,,,192,0,6,,,,,5,,,,70,0
145541,note_on,,,,,0,0,6,,,,,5,,,,69,45
145580,note_on,,,,,48,0,3,,,,,2,,,,87,0
145580,note_on,,,,,0,0,3,,,,,2,,,,86,92
145628,note_on,,,,,0,0,3,,,,,2,,,,87,92
145628,note_on,,,,,48,0,3,,,,,2,,,,86,0
145676,note_on,,,,,48,0,3,,,,,2,,,,87,0
145676,note_on,,,,,0,0,3,,,,,2,,,,86,92
145696,note_on,,,,,160,0,5,,,,,4,,,,72,0
145701,note_on,,,,,160,0,6,,,,,5,,,,69,0
145724,note_on,,,,,48,0,3,,,,,2,,,,86,0
145724,note_on,,,,,0,0,3,,,,,2,,,,87,92
145725,note_on,,,,,0,0,7,,,,,6,,,,63,45
145725,note_on,,,,,576,0,7,,,,,6,,,,63,0
145727,note_on,,,,,992,0,8,,,,,7,,,,51,45
145728,set_tempo,,,,,1152,1,0,,454545,,,,,,,,
145728,note_on,,,,,32,0,5,,,,,4,,,,73,45
145733,note_on,,,,,32,0,6,,,,,5,,,,70,45
145734,note_on,,,,,992,0,9,,,,,8,,,,39,45
145780,note_on,,,,,464,0,4,,,,,3,,,,39,60
145828,note_on,,,,,0,0,4,,,,,3,,,,41,60
145828,note_on,,,,,48,0,4,,,,,3,,,,39,0
145876,note_on,,,,,0,0,4,,,,,3,,,,43,60
145876,note_on,,,,,48,0,4,,,,,3,,,,41,0
145884,note_on,,,,,160,0,3,,,,,2,,,,87,0
145885,note_on,,,,,160,0,7,,,,,6,,,,63,0
145887,note_on,,,,,160,0,8,,,,,7,,,,51,0
145888,note_on,,,,,160,0,5,,,,,4,,,,73,0
145893,note_on,,,,,160,0,6,,,,,5,,,,70,0
145894,note_on,,,,,160,0,9,,,,,8,,,,39,0
145924,note_on,,,,,48,0,4,,,,,3,,,,43,0
145924,note_on,,,,,0,0,4,,,,,3,,,,44,75
145972,note_on,,,,,48,0,4,,,,,3,,,,44,0
145972,note_on,,,,,0,0,4,,,,,3,,,,46,75
146020,note_on,,,,,48,0,4,,,,,3,,,,46,0
146020,note_on,,,,,0,0,4,,,,,3,,,,48,75
146068,note_on,,,,,48,0,4,,,,,3,,,,48,0
146068,note_on,,,,,0,0,4,,,,,3,,,,50,75
146116,note_on,,,,,0,0,4,,,,,3,,,,51,92
146116,note_on,,,,,48,0,4,,,,,3,,,,50,0
146164,note_on,,,,,0,0,4,,,,,3,,,,50,92
146164,note_on,,,,,48,0,4,,,,,3,,,,51,0
146212,note_on,,,,,48,0,4,,,,,3,,,,50,0
146212,note_on,,,,,0,0,4,,,,,3,,,,51,92
146260,note_on,,,,,48,0,4,,,,,3,,,,51,0
146260,note_on,,,,,0,0,4,,,,,3,,,,49,92
146301,note_on,,,,,416,0,7,,,,,6,,,,64,45
146303,note_on,,,,,416,0,8,,,,,7,,,,48,45
146304,note_on,,,,,416,0,5,,,,,4,,,,73,45
146308,note_on,,,,,48,0,4,,,,,3,,,,49,0
146308,note_on,,,,,0,0,4,,,,,3,,,,48,92
146309,note_on,,,,,416,0,6,,,,,5,,,,70,45
146310,note_on,,,,,416,0,9,,,,,8,,,,36,45
146348,note_on,,,,,464,0,3,,,,,2,,,,64,60
146396,note_on,,,,,0,0,3,,,,,2,,,,65,60
146396,note_on,,,,,48,0,3,,,,,2,,,,64,0
146444,note_on,,,,,0,0,3,,,,,2,,,,67,60
146444,note_on,,,,,48,0,3,,,,,2,,,,65,0
146468,note_on,,,,,160,0,4,,,,,3,,,,48,0
146492,note_on,,,,,0,0,3,,,,,2,,,,68,75
146492,note_on,,,,,48,0,3,,,,,2,,,,67,0
146496,note_on,,,,,192,0,5,,,,,4,,,,73,0
146496,note_on,,,,,0,0,5,,,,,4,,,,72,45
146501,note_on,,,,,0,0,6,,,,,5,,,,68,45
146501,note_on,,,,,192,0,6,,,,,5,,,,70,0
146540,note_on,,,,,48,0,3,,,,,2,,,,68,0
146540,note_on,,,,,0,0,3,,,,,2,,,,70,75
146588,note_on,,,,,48,0,3,,,,,2,,,,70,0
146588,note_on,,,,,0,0,3,,,,,2,,,,72,75
146636,note_on,,,,,48,0,3,,,,,2,,,,72,0
146636,note_on,,,,,0,0,3,,,,,2,,,,74,75
146684,note_on,,,,,0,0,3,,,,,2,,,,76,92
146684,note_on,,,,,48,0,3,,,,,2,,,,74,0
146685,note_on,,,,,0,0,7,,,,,6,,,,58,45
146685,note_on,,,,,384,0,7,,,,,6,,,,64,0
146688,note_on,,,,,0,0,5,,,,,4,,,,70,45
146688,note_on,,,,,192,0,5,,,,,4,,,,72,0
146693,note_on,,,,,192,0,6,,,,,5,,,,68,0
146693,note_on,,,,,0,0,6,,,,,5,,,,67,45
146732,note_on,,,,,48,0,3,,,,,2,,,,76,0
146732,note_on,,,,,0,0,3,,,,,2,,,,77,92
146780,note_on,,,,,48,0,3,,,,,2,,,,77,0
146780,note_on,,,,,0,0,3,,,,,2,,,,74,92
146828,note_on,,,,,0,0,3,,,,,2,,,,76,92
146828,note_on,,,,,48,0,3,,,,,2,,,,74,0
146845,note_on,,,,,160,0,7,,,,,6,,,,58,0
146848,note_on,,,,,160,0,5,,,,,4,,,,70,0
146853,note_on,,,,,160,0,6,,,,,5,,,,67,0
146876,note_on,,,,,0,0,3,,,,,2,,,,77,92
146876,note_on,,,,,48,0,3,,,,,2,,,,76,0
146877,note_on,,,,,32,0,7,,,,,6,,,,60,60
146879,note_on,,,,,576,0,8,,,,,7,,,,48,0
146879,note_on,,,,,0,0,8,,,,,7,,,,41,60
146880,note_on,,,,,32,0,5,,,,,4,,,,69,60
146880,set_tempo,,,,,1152,1,0,,441176,,,,,,,,
146885,note_on,,,,,32,0,6,,,,,5,,,,65,60
146886,note_on,,,,,0,0,9,,,,,8,,,,29,60
146886,note_on,,,,,576,0,9,,,,,8,,,,36,0
146925,note_on,,,,,0,0,7,,,,,6,,,,53,60
146925,note_on,,,,,48,0,7,,,,,6,,,,60,0
146928,note_on,,,,,0,0,5,,,,,4,,,,65,60
146928,note_on,,,,,48,0,5,,,,,4,,,,69,0
146973,note_on,,,,,0,0,7,,,,,6,,,,55,60
146973,note_on,,,,,48,0,7,,,,,6,,,,53,0
146976,note_on,,,,,0,0,5,,,,,4,,,,67,60
146976,note_on,,,,,48,0,5,,,,,4,,,,65,0
147021,note_on,,,,,48,0,7,,,,,6,,,,55,0
147021,note_on,,,,,0,0,7,,,,,6,,,,57,60
147024,note_on,,,,,0,0,5,,,,,4,,,,69,60
147024,note_on,,,,,48,0,5,,,,,4,,,,67,0
147036,note_on,,,,,160,0,3,,,,,2,,,,77,0
147039,note_on,,,,,160,0,8,,,,,7,,,,41,0
147045,note_on,,,,,160,0,6,,,,,5,,,,65,0
147046,note_on,,,,,160,0,9,,,,,8,,,,29,0
147069,note_on,,,,,0,0,7,,,,,6,,,,58,60
147069,note_on,,,,,48,0,7,,,,,6,,,,57,0
147072,note_on,,,,,48,0,5,,,,,4,,,,69,0
147072,note_on,,,,,0,0,5,,,,,4,,,,70,60
147117,note_on,,,,,0,0,7,,,,,6,,,,60,60
147117,note_on,,,,,48,0,7,,,,,6,,,,58,0
147120,note_on,,,,,48,0,5,,,,,4,,,,70,0
147120,note_on,,,,,0,0,5,,,,,4,,,,72,60
147165,note_on,,,,,0,0,7,,,,,6,,,,62,60
147165,note_on,,,,,48,0,7,,,,,6,,,,60,0
147168,note_on,,,,,0,0,5,,,,,4,,,,74,60
147168,note_on,,,,,48,0,5,,,,,4,,,,72,0
147213,note_on,,,,,48,0,7,,,,,6,,,,62,0
147213,note_on,,,,,0,0,7,,,,,6,,,,64,60
147216,note_on,,,,,48,0,5,,,,,4,,,,74,0
147216,note_on,,,,,0,0,5,,,,,4,,,,76,60
147261,note_on,,,,,48,0,7,,,,,6,,,,64,0
147261,note_on,,,,,0,0,7,,,,,6,,,,65,60
147264,note_on,,,,,0,0,5,,,,,4,,,,77,60
147264,note_on,,,,,48,0,5,,,,,4,,,,76,0
147309,note_on,,,,,0,0,7,,,,,6,,,,64,60
147309,note_on,,,,,48,0,7,,,,,6,,,,65,0
147312,note_on,,,,,0,0,5,,,,,4,,,,76,60
147312,note_on,,,,,48,0,5,,,,,4,,,,77,0
147357,note_on,,,,,0,0,7,,,,,6,,,,65,60
147357,note_on,,,,,48,0,7,,,,,6,,,,64,0
147360,note_on,,,,,0,0,5,,,,,4,,,,77,60
147360,note_on,,,,,48,0,5,,,,,4,,,,76,0
147405,note_on,,,,,48,0,7,,,,,6,,,,65,0
147405,note_on,,,,,0,0,7,,,,,6,,,,64,60
147408,note_on,,,,,0,0,5,,,,,4,,,,76,60
147408,note_on,,,,,48,0,5,,,,,4,,,,77,0
147452,note_on,,,,,416,0,3,,,,,2,,,,72,108
147453,note_on,,,,,0,0,7,,,,,6,,,,65,60
147453,note_on,,,,,48,0,7,,,,,6,,,,64,0
147456,note_on,,,,,0,0,5,,,,,4,,,,77,60
147456,note_on,,,,,48,0,5,,,,,4,,,,76,0
147460,note_on,,,,,0,0,4,,,,,3,,,,63,92
147460,note_on,,,,,992,0,4,,,,,3,,,,53,92
147460,note_on,,,,,0,0,4,,,,,3,,,,60,92
147500,note_on,,,,,0,0,3,,,,,2,,,,69,108
147500,note_on,,,,,48,0,3,,,,,2,,,,72,0
147548,note_on,,,,,48,0,3,,,,,2,,,,69,0
147548,note_on,,,,,0,0,3,,,,,2,,,,65,108
147596,note_on,,,,,0,0,3,,,,,2,,,,72,108
147596,note_on,,,,,48,0,3,,,,,2,,,,65,0
147613,note_on,,,,,160,0,7,,,,,6,,,,65,0
147616,note_on,,,,,160,0,5,,,,,4,,,,77,0
147644,note_on,,,,,48,0,3,,,,,2,,,,72,0
147644,note_on,,,,,0,0,3,,,,,2,,,,73,108
147652,note_on,,,,,0,0,4,,,,,3,,,,61,92
147652,note_on,,,,,0,0,4,,,,,3,,,,58,92
147652,note_on,,,,,192,0,4,,,,,3,,,,63,0
147652,note_on,,,,,0,0,4,,,,,3,,,,60,0
147692,note_on,,,,,48,0,3,,,,,2,,,,73,0
147692,note_on,,,,,0,0,3,,,,,2,,,,70,108
147740,note_on,,,,,48,0,3,,,,,2,,,,70,0
147740,note_on,,,,,0,0,3,,,,,2,,,,65,108
147788,note_on,,,,,0,0,3,,,,,2,,,,73,108
147788,note_on,,,,,48,0,3,,,,,2,,,,65,0
147836,note_on,,,,,48,0,3,,,,,2,,,,73,0
147836,note_on,,,,,0,0,3,,,,,2,,,,75,108
147844,note_on,,,,,192,0,4,,,,,3,,,,61,0
147844,note_on,,,,,0,0,4,,,,,3,,,,60,92
147844,note_on,,,,,0,0,4,,,,,3,,,,57,92
147844,note_on,,,,,0,0,4,,,,,3,,,,58,0
147884,note_on,,,,,48,0,3,,,,,2,,,,75,0
147884,note_on,,,,,0,0,3,,,,,2,,,,72,108
147932,note_on,,,,,48,0,3,,,,,2,,,,72,0
147932,note_on,,,,,0,0,3,,,,,2,,,,65,108
147980,note_on,,,,,0,0,3,,,,,2,,,,75,108
147980,note_on,,,,,48,0,3,,,,,2,,,,65,0
148004,note_on,,,,,160,0,4,,,,,3,,,,60,0
148004,note_on,,,,,0,0,4,,,,,3,,,,57,0
148028,note_on,,,,,48,0,3,,,,,2,,,,75,0
148028,note_on,,,,,0,0,3,,,,,2,,,,73,108
148031,note_on,,,,,992,0,8,,,,,7,,,,53,60
148036,note_on,,,,,32,0,4,,,,,3,,,,58,92
148036,note_on,,,,,0,0,4,,,,,3,,,,61,92
148038,note_on,,,,,992,0,9,,,,,8,,,,41,60
148077,note_on,,,,,464,0,7,,,,,6,,,,53,60
148080,note_on,,,,,464,0,5,,,,,4,,,,65,60
148125,note_on,,,,,0,0,7,,,,,6,,,,55,60
148125,note_on,,,,,48,0,7,,,,,6,,,,53,0
148128,note_on,,,,,0,0,5,,,,,4,,,,67,60
148128,note_on,,,,,48,0,5,,,,,4,,,,65,0
148173,note_on,,,,,0,0,7,,,,,6,,,,57,60
148173,note_on,,,,,48,0,7,,,,,6,,,,55,0
148176,note_on,,,,,0,0,5,,,,,4,,,,69,60
148176,note_on,,,,,48,0,5,,,,,4,,,,67,0
148188,note_on,,,,,160,0,3,,,,,2,,,,73,0
148191,note_on,,,,,160,0,8,,,,,7,,,,53,0
148196,note_on,,,,,0,0,4,,,,,3,,,,58,0
148196,note_on,,,,,0,0,4,,,,,3,,,,53,0
148196,note_on,,,,,160,0,4,,,,,3,,,,61,0
148198,note_on,,,,,160,0,9,,,,,8,,,,41,0
148221,note_on,,,,,48,0,7,,,,,6,,,,57,0
148221,note_on,,,,,0,0,7,,,,,6,,,,58,60
148224,note_on,,,,,48,0,5,,,,,4,,,,69,0
148224,note_on,,,,,0,0,5,,,,,4,,,,70,60
148269,note_on,,,,,0,0,7,,,,,6,,,,60,60
148269,note_on,,,,,48,0,7,,,,,6,,,,58,0
148272,note_on,,,,,48,0,5,,,,,4,,,,70,0
148272,note_on,,,,,0,0,5,,,,,4,,,,72,60
148317,note_on,,,,,48,0,7,,,,,6,,,,60,0
148317,note_on,,,,,0,0,7,,,,,6,,,,61,60
148320,note_on,,,,,48,0,5,,,,,4,,,,72,0
148320,note_on,,,,,0,0,5,,,,,4,,,,73,60
148365,note_on,,,,,48,0,7,,,,,6,,,,61,0
148365,note_on,,,,,0,0,7,,,,,6,,,,63,60
148368,note_on,,,,,48,0,5,,,,,4,,,,73,0
148368,note_on,,,,,0,0,5,,,,,4,,,,75,60
148413,note_on,,,,,48,0,7,,,,,6,,,,63,0
148413,note_on,,,,,0,0,7,,,,,6,,,,65,60
148416,note_on,,,,,0,0,5,,,,,4,,,,77,60
148416,note_on,,,,,48,0,5,,,,,4,,,,75,0
148461,note_on,,,,,0,0,7,,,,,6,,,,64,60
148461,note_on,,,,,48,0,7,,,,,6,,,,65,0
148464,note_on,,,,,0,0,5,,,,,4,,,,76,60
148464,note_on,,,,,48,0,5,,,,,4,,,,77,0
148509,note_on,,,,,48,0,7,,,,,6,,,,64,0
148509,note_on,,,,,0,0,7,,,,,6,,,,65,60
148512,note_on,,,,,0,0,5,,,,,4,,,,77,60
148512,note_on,,,,,48,0,5,,,,,4,,,,76,0
148557,note_on,,,,,0,0,7,,,,,6,,,,64,60
148557,note_on,,,,,48,0,7,,,,,6,,,,65,0
148560,note_on,,,,,0,0,5,,,,,4,,,,76,60
148560,note_on,,,,,48,0,5,,,,,4,,,,77,0
148604,note_on,,,,,416,0,3,,,,,2,,,,77,108
148605,note_on,,,,,0,0,7,,,,,6,,,,65,60
148605,note_on,,,,,48,0,7,,,,,6,,,,64,0
148608,note_on,,,,,48,0,5,,,,,4,,,,76,0
148608,note_on,,,,,0,0,5,,,,,4,,,,77,60
148612,note_on,,,,,0,0,4,,,,,3,,,,58,92
148612,note_on,,,,,0,0,4,,,,,3,,,,61,92
148612,note_on,,,,,416,0,4,,,,,3,,,,53,92
148652,note_on,,,,,0,0,3,,,,,2,,,,73,108
148652,note_on,,,,,48,0,3,,,,,2,,,,77,0
148700,note_on,,,,,0,0,3,,,,,2,,,,65,108
148700,note_on,,,,,48,0,3,,,,,2,,,,73,0
148748,note_on,,,,,0,0,3,,,,,2,,,,77,108
148748,note_on,,,,,48,0,3,,,,,2,,,,65,0
148765,note_on,,,,,160,0,7,,,,,6,,,,65,0
148768,note_on,,,,,160,0,5,,,,,4,,,,77,0
148796,note_on,,,,,0,0,3,,,,,2,,,,75,108
148796,note_on,,,,,48,0,3,,,,,2,,,,77,0
148804,note_on,,,,,0,0,4,,,,,3,,,,58,0
148804,note_on,,,,,192,0,4,,,,,3,,,,61,0
148804,note_on,,,,,0,0,4,,,,,3,,,,63,92
148804,note_on,,,,,0,0,4,,,,,3,,,,60,92
148844,note_on,,,,,48,0,3,,,,,2,,,,75,0
148844,note_on,,,,,0,0,3,,,,,2,,,,72,108
148892,note_on,,,,,0,0,3,,,,,2,,,,65,108
148892,note_on,,,,,48,0,3,,,,,2,,,,72,0
148940,note_on,,,,,0,0,3,,,,,2,,,,75,108
148940,note_on,,,,,48,0,3,,,,,2,,,,65,0
148988,note_on,,,,,0,0,3,,,,,2,,,,73,108
148988,note_on,,,,,48,0,3,,,,,2,,,,75,0
148996,note_on,,,,,0,0,4,,,,,3,,,,61,92
148996,note_on,,,,,192,0,4,,,,,3,,,,63,0
148996,note_on,,,,,0,0,4,,,,,3,,,,60,0
148996,note_on,,,,,0,0,4,,,,,3,,,,65,92
149036,note_on,,,,,0,0,3,,,,,2,,,,70,108
149036,note_on,,,,,48,0,3,,,,,2,,,,73,0
149084,note_on,,,,,48,0,3,,,,,2,,,,70,0
149084,note_on,,,,,0,0,3,,,,,2,,,,65,108
149132,note_on,,,,,0,0,3,,,,,2,,,,73,108
149132,note_on,,,,,48,0,3,,,,,2,,,,65,0
149140,note_on,,,,,144,0,4,,,,,3,,,,53,0
149156,note_on,,,,,16,0,4,,,,,3,,,,65,0
149156,note_on,,,,,0,0,4,,,,,3,,,,61,0
149180,note_on,,,,,0,0,3,,,,,2,,,,75,108
149180,note_on,,,,,48,0,3,,,,,2,,,,73,0
149183,note_on,,,,,992,0,8,,,,,7,,,,53,60
149188,note_on,,,,,0,0,4,,,,,3,,,,60,92
149188,note_on,,,,,0,0,4,,,,,3,,,,57,92
149188,note_on,,,,,32,0,4,,,,,3,,,,53,92
149190,note_on,,,,,992,0,9,,,,,8,,,,41,60
149229,note_on,,,,,464,0,7,,,,,6,,,,53,60
149232,note_on,,,,,464,0,5,,,,,4,,,,65,60
149277,note_on,,,,,0,0,7,,,,,6,,,,55,60
149277,note_on,,,,,48,0,7,,,,,6,,,,53,0
149280,note_on,,,,,0,0,5,,,,,4,,,,67,60
149280,note_on,,,,,48,0,5,,,,,4,,,,65,0
149325,note_on,,,,,48,0,7,,,,,6,,,,55,0
149325,note_on,,,,,0,0,7,,,,,6,,,,57,60
149328,note_on,,,,,0,0,5,,,,,4,,,,69,60
149328,note_on,,,,,48,0,5,,,,,4,,,,67,0
149340,note_on,,,,,160,0,3,,,,,2,,,,75,0
149343,note_on,,,,,160,0,8,,,,,7,,,,53,0
149348,note_on,,,,,0,0,4,,,,,3,,,,53,0
149348,note_on,,,,,0,0,4,,,,,3,,,,57,0
149348,note_on,,,,,160,0,4,,,,,3,,,,60,0
149350,note_on,,,,,160,0,9,,,,,8,,,,41,0
149373,note_on,,,,,0,0,7,,,,,6,,,,58,60
149373,note_on,,,,,48,0,7,,,,,6,,,,57,0
149376,note_on,,,,,0,0,5,,,,,4,,,,70,60
149376,note_on,,,,,48,0,5,,,,,4,,,,69,0
149421,note_on,,,,,48,0,7,,,,,6,,,,58,0
149421,note_on,,,,,0,0,7,,,,,6,,,,60,60
149424,note_on,,,,,0,0,5,,,,,4,,,,72,60
149424,note_on,,,,,48,0,5,,,,,4,,,,70,0
149469,note_on,,,,,48,0,7,,,,,6,,,,60,0
149469,note_on,,,,,0,0,7,,,,,6,,,,61,60
149472,note_on,,,,,0,0,5,,,,,4,,,,73,60
149472,note_on,,,,,48,0,5,,,,,4,,,,72,0
149517,note_on,,,,,0,0,7,,,,,6,,,,63,60
149517,note_on,,,,,48,0,7,,,,,6,,,,61,0
149520,note_on,,,,,0,0,5,,,,,4,,,,75,60
149520,note_on,,,,,48,0,5,,,,,4,,,,73,0
149565,note_on,,,,,48,0,7,,,,,6,,,,63,0
149565,note_on,,,,,0,0,7,,,,,6,,,,65,60
149568,note_on,,,,,48,0,5,,,,,4,,,,75,0
149568,note_on,,,,,0,0,5,,,,,4,,,,77,60
149613,note_on,,,,,48,0,7,,,,,6,,,,65,0
149613,note_on,,,,,0,0,7,,,,,6,,,,64,60
149616,note_on,,,,,0,0,5,,,,,4,,,,76,60
149616,note_on,,,,,48,0,5,,,,,4,,,,77,0
149661,note_on,,,,,48,0,7,,,,,6,,,,64,0
149661,note_on,,,,,0,0,7,,,,,6,,,,65,60
149664,note_on,,,,,48,0,5,,,,,4,,,,76,0
149664,note_on,,,,,0,0,5,,,,,4,,,,77,60
149709,note_on,,,,,0,0,7,,,,,6,,,,64,60
149709,note_on,,,,,48,0,7,,,,,6,,,,65,0
149712,note_on,,,,,0,0,5,,,,,4,,,,76,60
149712,note_on,,,,,48,0,5,,,,,4,,,,77,0
149755,note_on,,,,,46,0,7,,,,,6,,,,64,0
149756,note_on,,,,,416,0,3,,,,,2,,,,75,108
149757,note_on,,,,,2,0,7,,,,,6,,,,65,60
149758,note_on,,,,,46,0,5,,,,,4,,,,76,0
149759,note_on,,,,,416,0,8,,,,,7,,,,53,60
149760,note_on,,,,,2,0,5,,,,,4,,,,77,60
149764,note_on,,,,,416,0,4,,,,,3,,,,53,75
149764,note_on,,,,,0,0,4,,,,,3,,,,57,75
149764,note_on,,,,,0,0,4,,,,,3,,,,60,75
149765,note_on,,,,,2720,0,6,,,,,5,,,,69,60
149766,note_on,,,,,416,0,9,,,,,8,,,,41,60
149804,note_on,,,,,48,0,3,,,,,2,,,,75,0
149804,note_on,,,,,0,0,3,,,,,2,,,,72,108
149852,note_on,,,,,48,0,3,,,,,2,,,,72,0
149852,note_on,,,,,0,0,3,,,,,2,,,,65,108
149900,note_on,,,,,0,0,3,,,,,2,,,,75,108
149900,note_on,,,,,48,0,3,,,,,2,,,,65,0
149924,note_on,,,,,160,0,4,,,,,3,,,,60,0
149924,note_on,,,,,0,0,4,,,,,3,,,,53,0
149924,note_on,,,,,0,0,4,,,,,3,,,,57,0
149948,note_on,,,,,48,0,3,,,,,2,,,,75,0
149948,note_on,,,,,0,0,3,,,,,2,,,,74,108
149949,note_on,,,,,192,0,7,,,,,6,,,,65,0
149949,note_on,,,,,0,0,7,,,,,6,,,,70,60
149951,note_on,,,,,192,0,8,,,,,7,,,,53,0
149951,note_on,,,,,0,0,8,,,,,7,,,,50,60
149952,note_on,,,,,0,0,5,,,,,4,,,,78,60
149952,note_on,,,,,192,0,5,,,,,4,,,,77,0
149956,note_on,,,,,32,0,4,,,,,3,,,,50,75
149956,note_on,,,,,0,0,4,,,,,3,,,,62,75
149957,note_on,,,,,0,0,6,,,,,5,,,,74,60
149957,note_on,,,,,192,0,6,,,,,5,,,,69,0
149958,note_on,,,,,192,0,9,,,,,8,,,,41,0
149958,note_on,,,,,0,0,9,,,,,8,,,,38,60
149996,note_on,,,,,0,0,3,,,,,2,,,,70,108
149996,note_on,,,,,48,0,3,,,,,2,,,,74,0
150044,note_on,,,,,48,0,3,,,,,2,,,,70,0
150044,note_on,,,,,0,0,3,,,,,2,,,,66,108
150092,note_on,,,,,48,0,3,,,,,2,,,,66,0
150092,note_on,,,,,0,0,3,,,,,2,,,,74,108
150140,note_on,,,,,0,0,3,,,,,2,,,,72,108
150140,note_on,,,,,48,0,3,,,,,2,,,,74,0
150141,note_on,,,,,0,0,7,,,,,6,,,,69,60
150141,note_on,,,,,192,0,7,,,,,6,,,,70,0
150149,note_on,,,,,192,0,6,,,,,5,,,,74,0
150149,note_on,,,,,0,0,6,,,,,5,,,,72,60
150188,note_on,,,,,48,0,3,,,,,2,,,,72,0
150188,note_on,,,,,0,0,3,,,,,2,,,,69,108
150236,note_on,,,,,0,0,3,,,,,2,,,,66,108
150236,note_on,,,,,48,0,3,,,,,2,,,,69,0
150284,note_on,,,,,48,0,3,,,,,2,,,,66,0
150284,note_on,,,,,0,0,3,,,,,2,,,,72,108
150287,note_on,,,,,336,0,8,,,,,7,,,,50,0
150288,note_on,,,,,336,0,5,,,,,4,,,,78,0
150292,note_on,,,,,336,0,4,,,,,3,,,,62,0
150292,note_on,,,,,0,0,4,,,,,3,,,,50,0
150294,note_on,,,,,336,0,9,,,,,8,,,,38,0
150301,note_on,,,,,160,0,7,,,,,6,,,,69,0
150309,note_on,,,,,160,0,6,,,,,5,,,,72,0
150332,note_on,,,,,48,0,3,,,,,2,,,,72,0
150332,note_on,,,,,0,0,3,,,,,2,,,,70,92
150333,note_on,,,,,32,0,7,,,,,6,,,,67,60
150335,note_on,,,,,48,0,8,,,,,7,,,,43,60
150336,note_on,,,,,48,0,5,,,,,4,,,,79,60
150340,note_on,,,,,48,0,4,,,,,3,,,,55,75
150341,note_on,,,,,32,0,6,,,,,5,,,,70,60
150342,note_on,,,,,48,0,9,,,,,8,,,,31,60
150380,note_on,,,,,48,0,3,,,,,2,,,,70,0
150380,note_on,,,,,0,0,3,,,,,2,,,,72,92
150428,note_on,,,,,48,0,3,,,,,2,,,,72,0
150428,note_on,,,,,0,0,3,,,,,2,,,,70,92
150476,note_on,,,,,48,0,3,,,,,2,,,,70,0
150476,note_on,,,,,0,0,3,,,,,2,,,,69,92
150493,note_on,,,,,160,0,7,,,,,6,,,,67,0
150495,note_on,,,,,160,0,8,,,,,7,,,,43,0
150496,note_on,,,,,160,0,5,,,,,4,,,,79,0
150500,note_on,,,,,160,0,4,,,,,3,,,,55,0
150501,note_on,,,,,160,0,6,,,,,5,,,,70,0
150502,note_on,,,,,160,0,9,,,,,8,,,,31,0
150524,note_on,,,,,0,0,3,,,,,2,,,,70,92
150524,note_on,,,,,48,0,3,,,,,2,,,,69,0
150572,note_on,,,,,48,0,3,,,,,2,,,,70,0
150572,note_on,,,,,0,0,3,,,,,2,,,,67,92
150620,note_on,,,,,48,0,3,,,,,2,,,,67,0
150620,note_on,,,,,0,0,3,,,,,2,,,,74,92
150628,note_on,,,,,128,0,4,,,,,3,,,,43,75
150668,note_on,,,,,48,0,3,,,,,2,,,,74,0
150668,note_on,,,,,0,0,3,,,,,2,,,,70,92
150716,note_on,,,,,48,0,3,,,,,2,,,,70,0
150716,note_on,,,,,0,0,3,,,,,2,,,,79,92
150722,note_on,,,,,94,0,4,,,,,3,,,,43,0
150724,note_on,,,,,2,0,4,,,,,3,,,,55,75
150764,note_on,,,,,48,0,3,,,,,2,,,,79,0
150764,note_on,,,,,0,0,3,,,,,2,,,,76,92
150812,note_on,,,,,48,0,3,,,,,2,,,,76,0
150812,note_on,,,,,0,0,3,,,,,2,,,,80,92
150818,note_on,,,,,94,0,4,,,,,3,,,,55,0
150820,note_on,,,,,2,0,4,,,,,3,,,,53,75
150860,note_on,,,,,48,0,3,,,,,2,,,,80,0
150860,note_on,,,,,0,0,3,,,,,2,,,,77,92
150908,note_on,,,,,48,0,3,,,,,2,,,,77,0
150908,note_on,,,,,0,0,3,,,,,2,,,,82,92
150914,note_on,,,,,94,0,4,,,,,3,,,,53,0
150916,note_on,,,,,2,0,4,,,,,3,,,,52,75
150956,note_on,,,,,48,0,3,,,,,2,,,,82,0
150956,note_on,,,,,0,0,3,,,,,2,,,,80,92
151004,note_on,,,,,48,0,3,,,,,2,,,,80,0
151004,note_on,,,,,0,0,3,,,,,2,,,,79,92
151052,note_on,,,,,48,0,3,,,,,2,,,,79,0
151052,note_on,,,,,0,0,3,,,,,2,,,,80,92
151076,note_on,,,,,160,0,4,,,,,3,,,,52,0
151100,note_on,,,,,48,0,3,,,,,2,,,,80,0
151100,note_on,,,,,0,0,3,,,,,2,,,,79,92
151104,note_on,,,,,608,0,5,,,,,4,,,,82,45
151109,note_on,,,,,608,0,6,,,,,5,,,,79,45
151148,note_on,,,,,0,0,3,,,,,2,,,,77,92
151148,note_on,,,,,48,0,3,,,,,2,,,,79,0
151196,note_on,,,,,0,0,3,,,,,2,,,,76,92
151196,note_on,,,,,48,0,3,,,,,2,,,,77,0
151204,note_on,,,,,128,0,4,,,,,3,,,,55,75
151244,note_on,,,,,48,0,3,,,,,2,,,,76,0
151244,note_on,,,,,0,0,3,,,,,2,,,,77,92
151292,note_on,,,,,0,0,3,,,,,2,,,,76,92
151292,note_on,,,,,48,0,3,,,,,2,,,,77,0
151296,note_on,,,,,0,0,5,,,,,4,,,,70,45
151296,note_on,,,,,192,0,5,,,,,4,,,,82,0
151298,note_on,,,,,94,0,4,,,,,3,,,,55,0
151300,note_on,,,,,2,0,4,,,,,3,,,,48,75
151301,note_on,,,,,0,0,6,,,,,5,,,,67,45
151301,note_on,,,,,192,0,6,,,,,5,,,,79,0
151340,note_on,,,,,0,0,3,,,,,2,,,,73,92
151340,note_on,,,,,48,0,3,,,,,2,,,,76,0
151388,note_on,,,,,0,0,3,,,,,2,,,,72,92
151388,note_on,,,,,48,0,3,,,,,2,,,,73,0
151394,note_on,,,,,94,0,4,,,,,3,,,,48,0
151396,note_on,,,,,2,0,4,,,,,3,,,,52,75
151436,note_on,,,,,48,0,3,,,,,2,,,,72,0
151436,note_on,,,,,0,0,3,,,,,2,,,,70,92
151456,note_on,,,,,160,0,5,,,,,4,,,,70,0
151461,note_on,,,,,160,0,6,,,,,5,,,,67,0
151484,note_on,,,,,0,0,3,,,,,2,,,,68,92
151484,note_on,,,,,48,0,3,,,,,2,,,,70,0
151488,note_on,,,,,32,0,5,,,,,4,,,,68,45
151490,note_on,,,,,94,0,4,,,,,3,,,,52,0
151492,note_on,,,,,2,0,4,,,,,3,,,,53,75
151493,note_on,,,,,32,0,6,,,,,5,,,,65,45
151532,note_on,,,,,48,0,3,,,,,2,,,,68,0
151532,note_on,,,,,0,0,3,,,,,2,,,,70,92
151580,note_on,,,,,48,0,3,,,,,2,,,,70,0
151580,note_on,,,,,0,0,3,,,,,2,,,,68,92
151628,note_on,,,,,48,0,3,,,,,2,,,,68,0
151628,note_on,,,,,0,0,3,,,,,2,,,,67,92
151648,note_on,,,,,160,0,5,,,,,4,,,,68,0
151652,note_on,,,,,160,0,4,,,,,3,,,,53,0
151653,note_on,,,,,160,0,6,,,,,5,,,,65,0
151676,note_on,,,,,0,0,3,,,,,2,,,,68,92
151676,note_on,,,,,48,0,3,,,,,2,,,,67,0
151724,note_on,,,,,0,0,3,,,,,2,,,,65,92
151724,note_on,,,,,48,0,3,,,,,2,,,,68,0
151772,note_on,,,,,48,0,3,,,,,2,,,,65,0
151772,note_on,,,,,0,0,3,,,,,2,,,,72,92
151780,note_on,,,,,128,0,4,,,,,3,,,,41,75
151820,note_on,,,,,48,0,3,,,,,2,,,,72,0
151820,note_on,,,,,0,0,3,,,,,2,,,,68,92
151868,note_on,,,,,48,0,3,,,,,2,,,,68,0
151868,note_on,,,,,0,0,3,,,,,2,,,,77,92
151874,note_on,,,,,94,0,4,,,,,3,,,,41,0
151876,note_on,,,,,2,0,4,,,,,3,,,,53,75
151916,note_on,,,,,48,0,3,,,,,2,,,,77,0
151916,note_on,,,,,0,0,3,,,,,2,,,,74,92
151964,note_on,,,,,48,0,3,,,,,2,,,,74,0
151964,note_on,,,,,0,0,3,,,,,2,,,,79,92
151970,note_on,,,,,94,0,4,,,,,3,,,,53,0
151972,note_on,,,,,2,0,4,,,,,3,,,,51,75
152012,note_on,,,,,48,0,3,,,,,2,,,,79,0
152012,note_on,,,,,0,0,3,,,,,2,,,,75,92
152060,note_on,,,,,48,0,3,,,,,2,,,,75,0
152060,note_on,,,,,0,0,3,,,,,2,,,,80,92
152066,note_on,,,,,94,0,4,,,,,3,,,,51,0
152068,note_on,,,,,2,0,4,,,,,3,,,,50,75
152108,note_on,,,,,0,0,3,,,,,2,,,,79,92
152108,note_on,,,,,48,0,3,,,,,2,,,,80,0
152156,note_on,,,,,0,0,3,,,,,2,,,,77,92
152156,note_on,,,,,48,0,3,,,,,2,,,,79,0
152204,note_on,,,,,0,0,3,,,,,2,,,,79,92
152204,note_on,,,,,48,0,3,,,,,2,,,,77,0
152228,note_on,,,,,160,0,4,,,,,3,,,,50,0
152252,note_on,,,,,0,0,3,,,,,2,,,,77,92
152252,note_on,,,,,48,0,3,,,,,2,,,,79,0
152256,note_on,,,,,608,0,5,,,,,4,,,,80,45
152261,note_on,,,,,608,0,6,,,,,5,,,,77,45
152300,note_on,,,,,0,0,3,,,,,2,,,,75,92
152300,note_on,,,,,48,0,3,,,,,2,,,,77,0
152348,note_on,,,,,0,0,3,,,,,2,,,,74,92
152348,note_on,,,,,48,0,3,,,,,2,,,,75,0
152356,note_on,,,,,128,0,4,,,,,3,,,,53,75
152396,note_on,,,,,48,0,3,,,,,2,,,,74,0
152396,note_on,,,,,0,0,3,,,,,2,,,,75,92
152444,note_on,,,,,0,0,3,,,,,2,,,,74,92
152444,note_on,,,,,48,0,3,,,,,2,,,,75,0
152448,note_on,,,,,0,0,5,,,,,4,,,,68,45
152448,note_on,,,,,192,0,5,,,,,4,,,,80,0
152450,note_on,,,,,94,0,4,,,,,3,,,,53,0
152452,note_on,,,,,2,0,4,,,,,3,,,,46,75
152453,note_on,,,,,0,0,6,,,,,5,,,,65,45
152453,note_on,,,,,192,0,6,,,,,5,,,,77,0
152492,note_on,,,,,48,0,3,,,,,2,,,,74,0
152492,note_on,,,,,0,0,3,,,,,2,,,,72,92
152540,note_on,,,,,0,0,3,,,,,2,,,,70,92
152540,note_on,,,,,48,0,3,,,,,2,,,,72,0
152546,note_on,,,,,94,0,4,,,,,3,,,,46,0
152548,note_on,,,,,2,0,4,,,,,3,,,,50,75
152588,note_on,,,,,0,0,3,,,,,2,,,,68,92
152588,note_on,,,,,48,0,3,,,,,2,,,,70,0
152608,note_on,,,,,160,0,5,,,,,4,,,,68,0
152613,note_on,,,,,160,0,6,,,,,5,,,,65,0
152636,note_on,,,,,0,0,3,,,,,2,,,,67,92
152636,note_on,,,,,48,0,3,,,,,2,,,,68,0
152640,note_on,,,,,32,0,5,,,,,4,,,,67,45
152642,note_on,,,,,94,0,4,,,,,3,,,,50,0
152644,note_on,,,,,2,0,4,,,,,3,,,,51,75
152645,note_on,,,,,32,0,6,,,,,5,,,,63,45
152684,note_on,,,,,48,0,3,,,,,2,,,,67,0
152684,note_on,,,,,0,0,3,,,,,2,,,,70,92
152732,note_on,,,,,48,0,3,,,,,2,,,,70,0
152732,note_on,,,,,0,0,3,,,,,2,,,,72,92
152780,note_on,,,,,0,0,3,,,,,2,,,,70,92
152780,note_on,,,,,48,0,3,,,,,2,,,,72,0
152800,note_on,,,,,160,0,5,,,,,4,,,,67,0
152804,note_on,,,,,160,0,4,,,,,3,,,,51,0
152805,note_on,,,,,160,0,6,,,,,5,,,,63,0
152828,note_on,,,,,0,0,3,,,,,2,,,,75,92
152828,note_on,,,,,48,0,3,,,,,2,,,,70,0
152876,note_on,,,,,48,0,3,,,,,2,,,,75,0
152876,note_on,,,,,0,0,3,,,,,2,,,,74,92
152924,note_on,,,,,0,0,3,,,,,2,,,,72,92
152924,note_on,,,,,48,0,3,,,,,2,,,,74,0
152932,note_on,,,,,128,0,4,,,,,3,,,,39,75
152972,note_on,,,,,0,0,3,,,,,2,,,,70,92
152972,note_on,,,,,48,0,3,,,,,2,,,,72,0
153020,note_on,,,,,48,0,3,,,,,2,,,,70,0
153020,note_on,,,,,0,0,3,,,,,2,,,,68,92
153026,note_on,,,,,94,0,4,,,,,3,,,,39,0
153028,note_on,,,,,2,0,4,,,,,3,,,,41,75
153068,note_on,,,,,48,0,3,,,,,2,,,,68,0
153068,note_on,,,,,0,0,3,,,,,2,,,,67,92
153116,note_on,,,,,0,0,3,,,,,2,,,,65,92
153116,note_on,,,,,48,0,3,,,,,2,,,,67,0
153122,note_on,,,,,94,0,4,,,,,3,,,,41,0
153124,note_on,,,,,2,0,4,,,,,3,,,,43,75
153164,note_on,,,,,0,0,3,,,,,2,,,,64,92
153164,note_on,,,,,48,0,3,,,,,2,,,,65,0
153212,note_on,,,,,0,0,3,,,,,2,,,,65,92
153212,note_on,,,,,48,0,3,,,,,2,,,,64,0
153218,note_on,,,,,94,0,4,,,,,3,,,,43,0
153220,note_on,,,,,2,0,4,,,,,3,,,,44,75
153260,note_on,,,,,0,0,3,,,,,2,,,,68,92
153260,note_on,,,,,48,0,3,,,,,2,,,,65,0
153308,note_on,,,,,48,0,3,,,,,2,,,,68,0
153308,note_on,,,,,0,0,3,,,,,2,,,,70,92
153356,note_on,,,,,48,0,3,,,,,2,,,,70,0
153356,note_on,,,,,0,0,3,,,,,2,,,,68,92
153380,note_on,,,,,160,0,4,,,,,3,,,,44,0
153404,note_on,,,,,48,0,3,,,,,2,,,,68,0
153404,note_on,,,,,0,0,3,,,,,2,,,,72,92
153452,note_on,,,,,48,0,3,,,,,2,,,,72,0
153452,note_on,,,,,0,0,3,,,,,2,,,,70,92
153500,note_on,,,,,48,0,3,,,,,2,,,,70,0
153500,note_on,,,,,0,0,3,,,,,2,,,,68,92
153508,note_on,,,,,128,0,4,,,,,3,,,,41,75
153548,note_on,,,,,48,0,3,,,,,2,,,,68,0
153548,note_on,,,,,0,0,3,,,,,2,,,,67,92
153596,note_on,,,,,48,0,3,,,,,2,,,,67,0
153596,note_on,,,,,0,0,3,,,,,2,,,,65,92
153600,set_tempo,,,,,6720,1,0,,447761,,,,,,,,
153602,note_on,,,,,94,0,4,,,,,3,,,,41,0
153604,note_on,,,,,2,0,4,,,,,3,,,,43,75
153644,note_on,,,,,0,0,3,,,,,2,,,,63,92
153644,note_on,,,,,48,0,3,,,,,2,,,,65,0
153692,note_on,,,,,48,0,3,,,,,2,,,,63,0
153692,note_on,,,,,0,0,3,,,,,2,,,,62,92
153698,note_on,,,,,94,0,4,,,,,3,,,,43,0
153700,note_on,,,,,2,0,4,,,,,3,,,,44,75
153740,note_on,,,,,48,0,3,,,,,2,,,,62,0
153740,note_on,,,,,0,0,3,,,,,2,,,,63,92
153788,note_on,,,,,48,0,3,,,,,2,,,,63,0
153788,note_on,,,,,0,0,3,,,,,2,,,,62,92
153788,note_on,,,,,0,0,3,,,,,2,,,,65,92
153788,note_on,,,,,0,0,3,,,,,2,,,,70,92
153794,note_on,,,,,94,0,4,,,,,3,,,,44,0
153796,note_on,,,,,2,0,4,,,,,3,,,,46,75
153888,note_on,,,,,1088,0,5,,,,,4,,,,72,60
153893,note_on,,,,,1088,0,6,,,,,5,,,,68,60
153956,note_on,,,,,160,0,4,,,,,3,,,,46,0
153980,note_on,,,,,0,0,3,,,,,2,,,,62,0
153980,note_on,,,,,0,0,3,,,,,2,,,,65,0
153980,note_on,,,,,192,0,3,,,,,2,,,,70,0
153980,note_on,,,,,0,0,3,,,,,2,,,,58,92
153984,note_on,,,,,96,0,5,,,,,4,,,,72,0
153984,note_on,,,,,0,0,5,,,,,4,,,,70,60
153989,note_on,,,,,96,0,6,,,,,5,,,,68,0
153989,note_on,,,,,0,0,6,,,,,5,,,,67,60
154080,note_on,,,,,96,0,5,,,,,4,,,,70,0
154080,note_on,,,,,0,0,5,,,,,4,,,,67,60
154085,note_on,,,,,0,0,6,,,,,5,,,,63,60
154085,note_on,,,,,96,0,6,,,,,5,,,,67,0
154172,note_on,,,,,192,0,3,,,,,2,,,,58,0
154176,note_on,,,,,0,0,5,,,,,4,,,,68,60
154176,note_on,,,,,96,0,5,,,,,4,,,,67,0
154181,note_on,,,,,0,0,6,,,,,5,,,,65,60
154181,note_on,,,,,96,0,6,,,,,5,,,,63,0
154272,note_on,,,,,0,0,5,,,,,4,,,,65,60
154272,note_on,,,,,96,0,5,,,,,4,,,,68,0
154277,note_on,,,,,96,0,6,,,,,5,,,,65,0
154277,note_on,,,,,0,0,6,,,,,5,,,,62,60
154364,note_on,,,,,192,0,3,,,,,2,,,,82,75
154366,note_on,,,,,94,0,5,,,,,4,,,,65,0
154368,note_on,,,,,2,0,5,,,,,4,,,,63,60
154368,set_tempo,,,,,768,1,0,,454545,,,,,,,,
154371,note_on,,,,,94,0,6,,,,,5,,,,62,0
154372,note_on,,,,,416,0,4,,,,,3,,,,63,60
154373,note_on,,,,,2,0,6,,,,,5,,,,63,60
154466,note_on,,,,,94,0,4,,,,,3,,,,63,0
154468,note_on,,,,,2,0,4,,,,,3,,,,70,60
154528,note_on,,,,,160,0,5,,,,,4,,,,63,0
154533,note_on,,,,,160,0,6,,,,,5,,,,63,0
154562,note_on,,,,,94,0,4,,,,,3,,,,70,0
154564,note_on,,,,,2,0,4,,,,,3,,,,67,60
154658,note_on,,,,,94,0,4,,,,,3,,,,67,0
154660,note_on,,,,,2,0,4,,,,,3,,,,70,60
154748,note_on,,,,,384,0,3,,,,,2,,,,82,0
154748,note_on,,,,,0,0,3,,,,,2,,,,84,75
154752,set_tempo,,,,,384,1,0,,512821,,,,,,,,
154754,note_on,,,,,94,0,4,,,,,3,,,,70,0
154756,note_on,,,,,2,0,4,,,,,3,,,,63,60
154772,note_on,,,,,24,0,3,,,,,2,,,,84,0
154772,note_on,,,,,0,0,3,,,,,2,,,,82,75
154776,set_tempo,,,,,24,1,0,,454545,,,,,,,,
154844,note_on,,,,,72,0,3,,,,,2,,,,82,0
154844,note_on,,,,,0,0,3,,,,,2,,,,80,75
154850,note_on,,,,,94,0,4,,,,,3,,,,63,0
154852,note_on,,,,,2,0,4,,,,,3,,,,70,60
154892,note_on,,,,,48,0,3,,,,,2,,,,80,0
154892,note_on,,,,,0,0,3,,,,,2,,,,79,75
154940,note_on,,,,,0,0,3,,,,,2,,,,85,75
154940,note_on,,,,,48,0,3,,,,,2,,,,79,0
154946,note_on,,,,,94,0,4,,,,,3,,,,70,0
154948,note_on,,,,,2,0,4,,,,,3,,,,64,60
155042,note_on,,,,,94,0,4,,,,,3,,,,64,0
155044,note_on,,,,,2,0,4,,,,,3,,,,72,60
155132,note_on,,,,,0,0,3,,,,,2,,,,84,75
155132,note_on,,,,,192,0,3,,,,,2,,,,85,0
155138,note_on,,,,,94,0,4,,,,,3,,,,72,0
155140,note_on,,,,,2,0,4,,,,,3,,,,67,60
155234,note_on,,,,,94,0,4,,,,,3,,,,67,0
155236,note_on,,,,,2,0,4,,,,,3,,,,72,60
155324,note_on,,,,,192,0,3,,,,,2,,,,84,0
155324,note_on,,,,,0,0,3,,,,,2,,,,79,75
155330,note_on,,,,,94,0,4,,,,,3,,,,72,0
155332,note_on,,,,,2,0,4,,,,,3,,,,64,60
155426,note_on,,,,,94,0,4,,,,,3,,,,64,0
155428,note_on,,,,,2,0,4,,,,,3,,,,72,60
155516,note_on,,,,,192,0,3,,,,,2,,,,79,0
155516,note_on,,,,,0,0,3,,,,,2,,,,82,75
155520,note_on,,,,,992,0,5,,,,,4,,,,84,37
155522,note_on,,,,,94,0,4,,,,,3,,,,72,0
155524,note_on,,,,,2,0,4,,,,,3,,,,65,60
155525,note_on,,,,,992,0,6,,,,,5,,,,72,37
155612,note_on,,,,,0,0,3,,,,,2,,,,80,75
155612,note_on,,,,,96,0,3,,,,,2,,,,82,0
155618,note_on,,,,,94,0,4,,,,,3,,,,65,0
155620,note_on,,,,,2,0,4,,,,,3,,,,72,60
155706,note_on,,,,,94,0,3,,,,,2,,,,80,0
155714,note_on,,,,,94,0,4,,,,,3,,,,72,0
155716,note_on,,,,,2,0,4,,,,,3,,,,68,60
155810,note_on,,,,,94,0,4,,,,,3,,,,68,0
155812,note_on,,,,,2,0,4,,,,,3,,,,72,60
155900,note_on,,,,,194,0,3,,,,,2,,,,84,75
155906,note_on,,,,,94,0,4,,,,,3,,,,72,0
155908,note_on,,,,,2,0,4,,,,,3,,,,64,60
155996,note_on,,,,,96,0,3,,,,,2,,,,84,0
155996,note_on,,,,,0,0,3,,,,,2,,,,79,75
156002,note_on,,,,,94,0,4,,,,,3,,,,64,0
156004,note_on,,,,,2,0,4,,,,,3,,,,72,60
156090,note_on,,,,,94,0,3,,,,,2,,,,79,0
156092,note_on,,,,,2,0,3,,,,,2,,,,82,75
156098,note_on,,,,,94,0,4,,,,,3,,,,72,0
156100,note_on,,,,,2,0,4,,,,,3,,,,65,60
156188,note_on,,,,,96,0,3,,,,,2,,,,82,0
156188,note_on,,,,,0,0,3,,,,,2,,,,80,75
156194,note_on,,,,,94,0,4,,,,,3,,,,65,0
156196,note_on,,,,,2,0,4,,,,,3,,,,72,60
156282,note_on,,,,,94,0,3,,,,,2,,,,80,0
156290,note_on,,,,,94,0,4,,,,,3,,,,72,0
156292,note_on,,,,,2,0,4,,,,,3,,,,68,60
156386,note_on,,,,,94,0,4,,,,,3,,,,68,0
156388,note_on,,,,,2,0,4,,,,,3,,,,72,60
156480,note_on,,,,,960,0,5,,,,,4,,,,84,0
156480,note_on,,,,,0,0,5,,,,,4,,,,83,37
156482,note_on,,,,,94,0,4,,,,,3,,,,72,0
156484,note_on,,,,,2,0,4,,,,,3,,,,63,60
156485,note_on,,,,,0,0,6,,,,,5,,,,71,37
156485,note_on,,,,,960,0,6,,,,,5,,,,72,0
156578,note_on,,,,,94,0,4,,,,,3,,,,63,0
156580,note_on,,,,,2,0,4,,,,,3,,,,71,60
156640,note_on,,,,,160,0,5,,,,,4,,,,83,0
156645,note_on,,,,,160,0,6,,,,,5,,,,71,0
156668,note_on,,,,,386,0,3,,,,,2,,,,80,75
156672,note_on,,,,,32,0,5,,,,,4,,,,82,45
156674,note_on,,,,,94,0,4,,,,,3,,,,71,0
156676,note_on,,,,,2,0,4,,,,,3,,,,62,60
156677,note_on,,,,,32,0,6,,,,,5,,,,70,45
156770,note_on,,,,,94,0,4,,,,,3,,,,62,0
156772,note_on,,,,,2,0,4,,,,,3,,,,70,60
156832,note_on,,,,,160,0,5,,,,,4,,,,82,0
156837,note_on,,,,,160,0,6,,,,,5,,,,70,0
156866,note_on,,,,,94,0,4,,,,,3,,,,70,0
156868,note_on,,,,,2,0,4,,,,,3,,,,65,60
156956,note_on,,,,,0,0,3,,,,,2,,,,79,75
156956,note_on,,,,,288,0,3,,,,,2,,,,80,0
156962,note_on,,,,,94,0,4,,,,,3,,,,65,0
156964,note_on,,,,,2,0,4,,,,,3,,,,70,60
157004,note_on,,,,,0,0,3,,,,,2,,,,80,75
157004,note_on,,,,,48,0,3,,,,,2,,,,79,0
157052,note_on,,,,,0,0,3,,,,,2,,,,82,75
157052,note_on,,,,,48,0,3,,,,,2,,,,80,0
157056,set_tempo,,,,,2280,1,0,,512821,,,,,,,,
157058,note_on,,,,,94,0,4,,,,,3,,,,70,0
157060,note_on,,,,,2,0,4,,,,,3,,,,62,60
157076,note_on,,,,,24,0,3,,,,,2,,,,82,0
157076,note_on,,,,,0,0,3,,,,,2,,,,80,75
157080,set_tempo,,,,,24,1,0,,454545,,,,,,,,
157148,note_on,,,,,72,0,3,,,,,2,,,,80,0
157148,note_on,,,,,0,0,3,,,,,2,,,,79,75
157154,note_on,,,,,94,0,4,,,,,3,,,,62,0
157156,note_on,,,,,2,0,4,,,,,3,,,,70,60
157196,note_on,,,,,48,0,3,,,,,2,,,,79,0
157196,note_on,,,,,0,0,3,,,,,2,,,,77,75
157244,note_on,,,,,0,0,3,,,,,2,,,,89,75
157244,note_on,,,,,48,0,3,,,,,2,,,,77,0
157250,note_on,,,,,94,0,4,,,,,3,,,,70,0
157252,note_on,,,,,2,0,4,,,,,3,,,,62,60
157346,note_on,,,,,94,0,4,,,,,3,,,,62,0
157348,note_on,,,,,2,0,4,,,,,3,,,,70,60
157436,note_on,,,,,192,0,3,,,,,2,,,,89,0
157436,note_on,,,,,0,0,3,,,,,2,,,,77,75
157442,note_on,,,,,94,0,4,,,,,3,,,,70,0
157444,note_on,,,,,2,0,4,,,,,3,,,,65,60
157538,note_on,,,,,94,0,4,,,,,3,,,,65,0
157540,note_on,,,,,2,0,4,,,,,3,,,,70,60
157628,note_on,,,,,0,0,3,,,,,2,,,,82,75
157628,note_on,,,,,192,0,3,,,,,2,,,,77,0
157634,note_on,,,,,94,0,4,,,,,3,,,,70,0
157636,note_on,,,,,2,0,4,,,,,3,,,,62,60
157730,note_on,,,,,94,0,4,,,,,3,,,,62,0
157732,note_on,,,,,2,0,4,,,,,3,,,,70,60
157820,note_on,,,,,192,0,3,,,,,2,,,,82,0
157820,note_on,,,,,0,0,3,,,,,2,,,,80,75
157824,note_on,,,,,992,0,5,,,,,4,,,,82,37
157826,note_on,,,,,94,0,4,,,,,3,,,,70,0
157828,note_on,,,,,2,0,4,,,,,3,,,,63,60
157829,note_on,,,,,992,0,6,,,,,5,,,,70,37
157916,note_on,,,,,96,0,3,,,,,2,,,,80,0
157916,note_on,,,,,0,0,3,,,,,2,,,,79,75
157922,note_on,,,,,94,0,4,,,,,3,,,,63,0
157924,note_on,,,,,2,0,4,,,,,3,,,,70,60
158010,note_on,,,,,94,0,3,,,,,2,,,,79,0
158018,note_on,,,,,94,0,4,,,,,3,,,,70,0
158020,note_on,,,,,2,0,4,,,,,3,,,,67,60
158114,note_on,,,,,94,0,4,,,,,3,,,,67,0
158116,note_on,,,,,2,0,4,,,,,3,,,,70,60
158204,note_on,,,,,194,0,3,,,,,2,,,,82,75
158210,note_on,,,,,94,0,4,,,,,3,,,,70,0
158212,note_on,,,,,2,0,4,,,,,3,,,,62,60
158300,note_on,,,,,96,0,3,,,,,2,,,,82,0
158300,note_on,,,,,0,0,3,,,,,2,,,,77,75
158306,note_on,,,,,94,0,4,,,,,3,,,,62,0
158308,note_on,,,,,2,0,4,,,,,3,,,,70,60
158394,note_on,,,,,94,0,3,,,,,2,,,,77,0
158396,note_on,,,,,2,0,3,,,,,2,,,,80,75
158402,note_on,,,,,94,0,4,,,,,3,,,,70,0
158404,note_on,,,,,2,0,4,,,,,3,,,,63,60
158492,note_on,,,,,96,0,3,,,,,2,,,,80,0
158492,note_on,,,,,0,0,3,,,,,2,,,,79,75
158498,note_on,,,,,94,0,4,,,,,3,,,,63,0
158500,note_on,,,,,2,0,4,,,,,3,,,,70,60
158560,note_on,,,,,736,0,5,,,,,4,,,,82,0
158586,note_on,,,,,94,0,3,,,,,2,,,,79,0
158592,note_on,,,,,32,0,5,,,,,4,,,,75,45
158594,note_on,,,,,94,0,4,,,,,3,,,,70,0
158596,note_on,,,,,2,0,4,,,,,3,,,,67,60
158690,note_on,,,,,94,0,4,,,,,3,,,,67,0
158692,note_on,,,,,2,0,4,,,,,3,,,,70,60
158784,note_on,,,,,0,0,5,,,,,4,,,,79,45
158784,note_on,,,,,192,0,5,,,,,4,,,,75,0
158786,note_on,,,,,94,0,4,,,,,3,,,,70,0
158788,note_on,,,,,2,0,4,,,,,3,,,,60,60
158789,note_on,,,,,960,0,6,,,,,5,,,,70,0
158789,note_on,,,,,0,0,6,,,,,5,,,,75,45
158882,note_on,,,,,94,0,4,,,,,3,,,,60,0
158884,note_on,,,,,2,0,4,,,,,3,,,,63,60
158944,note_on,,,,,160,0,5,,,,,4,,,,79,0
158949,note_on,,,,,160,0,6,,,,,5,,,,75,0
158972,note_on,,,,,386,0,3,,,,,2,,,,77,75
158973,note_on,,,,,8480,0,7,,,,,6,,,,68,60
158975,note_on,,,,,8480,0,8,,,,,7,,,,56,60
158976,note_on,,,,,32,0,5,,,,,4,,,,77,45
158978,note_on,,,,,94,0,4,,,,,3,,,,63,0
158980,note_on,,,,,2,0,4,,,,,3,,,,56,60
158981,note_on,,,,,32,0,6,,,,,5,,,,72,45
158982,note_on,,,,,8480,0,9,,,,,8,,,,44,60
159074,note_on,,,,,94,0,4,,,,,3,,,,56,0
159076,note_on,,,,,2,0,4,,,,,3,,,,65,60
159133,note_on,,,,,160,0,7,,,,,6,,,,68,0
159135,note_on,,,,,160,0,8,,,,,7,,,,56,0
159136,note_on,,,,,160,0,5,,,,,4,,,,77,0
159141,note_on,,,,,160,0,6,,,,,5,,,,72,0
159142,note_on,,,,,160,0,9,,,,,8,,,,44,0
159170,note_on,,,,,94,0,4,,,,,3,,,,65,0
159172,note_on,,,,,2,0,4,,,,,3,,,,60,60
159260,note_on,,,,,288,0,3,,,,,2,,,,77,0
159260,note_on,,,,,0,0,3,,,,,2,,,,80,75
159266,note_on,,,,,94,0,4,,,,,3,,,,60,0
159268,note_on,,,,,2,0,4,,,,,3,,,,65,60
159308,note_on,,,,,0,0,3,,,,,2,,,,79,75
159308,note_on,,,,,48,0,3,,,,,2,,,,80,0
159356,note_on,,,,,0,0,3,,,,,2,,,,82,75
159356,note_on,,,,,48,0,3,,,,,2,,,,79,0
159360,set_tempo,,,,,2280,1,0,,512821,,,,,,,,
159362,note_on,,,,,94,0,4,,,,,3,,,,65,0
159364,note_on,,,,,2,0,4,,,,,3,,,,56,60
159380,note_on,,,,,0,0,3,,,,,2,,,,80,75
159380,note_on,,,,,24,0,3,,,,,2,,,,82,0
159384,set_tempo,,,,,24,1,0,,454545,,,,,,,,
159452,note_on,,,,,0,0,3,,,,,2,,,,79,75
159452,note_on,,,,,72,0,3,,,,,2,,,,80,0
159458,note_on,,,,,94,0,4,,,,,3,,,,56,0
159460,note_on,,,,,2,0,4,,,,,3,,,,65,60
159500,note_on,,,,,0,0,3,,,,,2,,,,77,75
159500,note_on,,,,,48,0,3,,,,,2,,,,79,0
159548,note_on,,,,,0,0,3,,,,,2,,,,83,75
159548,note_on,,,,,48,0,3,,,,,2,,,,77,0
159549,note_on,,,,,416,0,7,,,,,6,,,,65,60
159551,note_on,,,,,416,0,8,,,,,7,,,,57,60
159552,note_on,,,,,416,0,5,,,,,4,,,,75,45
159554,note_on,,,,,94,0,4,,,,,3,,,,65,0
159556,note_on,,,,,2,0,4,,,,,3,,,,57,60
159557,note_on,,,,,416,0,6,,,,,5,,,,72,45
159558,note_on,,,,,416,0,9,,,,,8,,,,45,60
159650,note_on,,,,,94,0,4,,,,,3,,,,57,0
159652,note_on,,,,,2,0,4,,,,,3,,,,65,60
159709,note_on,,,,,160,0,7,,,,,6,,,,65,0
159711,note_on,,,,,160,0,8,,,,,7,,,,57,0
159712,note_on,,,,,160,0,5,,,,,4,,,,75,0
159717,note_on,,,,,160,0,6,,,,,5,,,,72,0
159718,note_on,,,,,160,0,9,,,,,8,,,,45,0
159740,note_on,,,,,0,0,3,,,,,2,,,,84,75
159740,note_on,,,,,192,0,3,,,,,2,,,,83,0
159746,note_on,,,,,94,0,4,,,,,3,,,,65,0
159748,note_on,,,,,2,0,4,,,,,3,,,,63,60
159842,note_on,,,,,94,0,4,,,,,3,,,,63,0
159844,note_on,,,,,2,0,4,,,,,3,,,,65,60
159932,note_on,,,,,0,0,3,,,,,2,,,,75,75
159932,note_on,,,,,192,0,3,,,,,2,,,,84,0
159938,note_on,,,,,94,0,4,,,,,3,,,,65,0
159940,note_on,,,,,2,0,4,,,,,3,,,,57,60
160034,note_on,,,,,94,0,4,,,,,3,,,,57,0
160036,note_on,,,,,2,0,4,,,,,3,,,,65,60
160092,note_on,,,,,160,0,3,,,,,2,,,,75,0
160124,note_on,,,,,32,0,3,,,,,2,,,,74,92
160125,note_on,,,,,416,0,7,,,,,6,,,,65,60
160127,note_on,,,,,416,0,8,,,,,7,,,,58,60
160128,note_on,,,,,416,0,5,,,,,4,,,,74,45
160128,set_tempo,,,,,744,1,0,,540541,,,,,,,,
160130,note_on,,,,,94,0,4,,,,,3,,,,65,0
160132,note_on,,,,,2,0,4,,,,,3,,,,58,75
160133,note_on,,,,,416,0,6,,,,,5,,,,70,45
160134,note_on,,,,,416,0,9,,,,,8,,,,46,60
160148,note_on,,,,,0,0,3,,,,,2,,,,77,92
160148,note_on,,,,,24,0,3,,,,,2,,,,74,0
160172,note_on,,,,,24,0,3,,,,,2,,,,77,0
160172,note_on,,,,,0,0,3,,,,,2,,,,82,92
160176,set_tempo,,,,,48,1,0,,441176,,,,,,,,
160285,note_on,,,,,160,0,7,,,,,6,,,,65,0
160287,note_on,,,,,160,0,8,,,,,7,,,,58,0
160288,note_on,,,,,160,0,5,,,,,4,,,,74,0
160292,note_on,,,,,160,0,4,,,,,3,,,,58,0
160293,note_on,,,,,160,0,6,,,,,5,,,,70,0
160294,note_on,,,,,160,0,9,,,,,8,,,,46,0
160314,note_on,,,,,142,0,3,,,,,2,,,,82,0
160316,note_on,,,,,2,0,3,,,,,2,,,,82,92
160320,note_on,,,,,32,0,5,,,,,4,,,,74,45
160325,note_on,,,,,32,0,6,,,,,5,,,,70,45
160348,note_on,,,,,32,0,3,,,,,2,,,,82,0
160352,note_on,,,,,32,0,5,,,,,4,,,,74,0
160357,note_on,,,,,32,0,6,,,,,5,,,,70,0
160412,note_on,,,,,64,0,3,,,,,2,,,,82,92
160416,note_on,,,,,64,0,5,,,,,4,,,,75,45
160421,note_on,,,,,64,0,6,,,,,5,,,,72,45
160444,note_on,,,,,32,0,3,,,,,2,,,,82,0
160448,note_on,,,,,32,0,5,,,,,4,,,,75,0
160453,note_on,,,,,32,0,6,,,,,5,,,,72,0
160508,note_on,,,,,64,0,3,,,,,2,,,,82,92
160512,note_on,,,,,64,0,5,,,,,4,,,,77,45
160517,note_on,,,,,64,0,6,,,,,5,,,,74,45
160540,note_on,,,,,32,0,3,,,,,2,,,,82,0
160544,note_on,,,,,32,0,5,,,,,4,,,,77,0
160549,note_on,,,,,32,0,6,,,,,5,,,,74,0
160604,note_on,,,,,64,0,3,,,,,2,,,,82,92
160608,note_on,,,,,64,0,5,,,,,4,,,,79,45
160613,note_on,,,,,64,0,6,,,,,5,,,,75,45
160636,note_on,,,,,32,0,3,,,,,2,,,,82,0
160640,note_on,,,,,32,0,5,,,,,4,,,,79,0
160645,note_on,,,,,32,0,6,,,,,5,,,,75,0
160700,note_on,,,,,64,0,3,,,,,2,,,,82,92
160701,note_on,,,,,416,0,7,,,,,6,,,,70,60
160703,note_on,,,,,416,0,8,,,,,7,,,,62,60
160704,note_on,,,,,64,0,5,,,,,4,,,,82,45
160709,note_on,,,,,64,0,6,,,,,5,,,,79,45
160710,note_on,,,,,416,0,9,,,,,8,,,,50,60
160732,note_on,,,,,32,0,3,,,,,2,,,,82,0
160795,note_on,,,,,94,0,7,,,,,6,,,,70,0
160796,note_on,,,,,64,0,3,,,,,2,,,,82,92
160797,note_on,,,,,94,0,8,,,,,7,,,,62,0
160800,note_on,,,,,0,0,5,,,,,4,,,,80,45
160800,note_on,,,,,96,0,5,,,,,4,,,,82,0
160804,note_on,,,,,94,0,9,,,,,8,,,,50,0
160805,note_on,,,,,0,0,6,,,,,5,,,,77,45
160805,note_on,,,,,96,0,6,,,,,5,,,,79,0
160828,note_on,,,,,32,0,3,,,,,2,,,,82,0
160892,note_on,,,,,64,0,3,,,,,2,,,,82,92
160893,note_on,,,,,98,0,7,,,,,6,,,,70,60
160894,note_on,,,,,94,0,5,,,,,4,,,,80,0
160895,note_on,,,,,98,0,8,,,,,7,,,,63,60
160896,note_on,,,,,2,0,5,,,,,4,,,,80,45
160899,note_on,,,,,94,0,6,,,,,5,,,,77,0
160901,note_on,,,,,2,0,6,,,,,5,,,,77,45
160902,note_on,,,,,98,0,9,,,,,8,,,,51,60
160924,note_on,,,,,32,0,3,,,,,2,,,,82,0
160987,note_on,,,,,94,0,7,,,,,6,,,,70,0
160988,note_on,,,,,64,0,3,,,,,2,,,,82,92
160989,note_on,,,,,94,0,8,,,,,7,,,,63,0
160992,note_on,,,,,96,0,5,,,,,4,,,,80,0
160992,note_on,,,,,0,0,5,,,,,4,,,,79,45
160996,note_on,,,,,94,0,9,,,,,8,,,,51,0
160997,note_on,,,,,96,0,6,,,,,5,,,,77,0
160997,note_on,,,,,0,0,6,,,,,5,,,,75,45
161020,note_on,,,,,32,0,3,,,,,2,,,,82,0
161084,note_on,,,,,64,0,3,,,,,2,,,,82,92
161085,note_on,,,,,98,0,7,,,,,6,,,,70,60
161086,note_on,,,,,94,0,5,,,,,4,,,,79,0
161087,note_on,,,,,98,0,8,,,,,7,,,,51,60
161088,note_on,,,,,2,0,5,,,,,4,,,,79,45
161091,note_on,,,,,94,0,6,,,,,5,,,,75,0
161093,note_on,,,,,2,0,6,,,,,5,,,,75,45
161094,note_on,,,,,98,0,9,,,,,8,,,,39,60
161116,note_on,,,,,32,0,3,,,,,2,,,,82,0
161179,note_on,,,,,94,0,7,,,,,6,,,,70,0
161180,note_on,,,,,64,0,3,,,,,2,,,,82,92
161181,note_on,,,,,94,0,8,,,,,7,,,,51,0
161184,note_on,,,,,96,0,5,,,,,4,,,,79,0
161184,note_on,,,,,0,0,5,,,,,4,,,,77,45
161188,note_on,,,,,94,0,9,,,,,8,,,,39,0
161189,note_on,,,,,96,0,6,,,,,5,,,,75,0
161189,note_on,,,,,0,0,6,,,,,5,,,,74,45
161212,note_on,,,,,32,0,3,,,,,2,,,,82,0
161276,note_on,,,,,64,0,3,,,,,2,,,,89,92
161277,note_on,,,,,98,0,7,,,,,6,,,,70,60
161278,note_on,,,,,94,0,5,,,,,4,,,,77,0
161279,note_on,,,,,98,0,8,,,,,7,,,,58,60
161280,set_tempo,,,,,1104,1,0,,540541,,,,,,,,
161280,note_on,,,,,2,0,5,,,,,4,,,,77,45
161283,note_on,,,,,94,0,6,,,,,5,,,,74,0
161284,note_on,,,,,0,0,4,,,,,3,,,,58,75
161284,note_on,,,,,992,0,4,,,,,3,,,,46,75
161285,note_on,,,,,2,0,6,,,,,5,,,,74,45
161286,note_on,,,,,98,0,9,,,,,8,,,,46,60
161300,note_on,,,,,0,0,3,,,,,2,,,,86,92
161300,note_on,,,,,24,0,3,,,,,2,,,,89,0
161324,note_on,,,,,0,0,3,,,,,2,,,,82,92
161324,note_on,,,,,24,0,3,,,,,2,,,,86,0
161328,set_tempo,,,,,48,1,0,,441176,,,,,,,,
161437,note_on,,,,,160,0,7,,,,,6,,,,70,0
161439,note_on,,,,,160,0,8,,,,,7,,,,58,0
161440,note_on,,,,,160,0,5,,,,,4,,,,77,0
161444,note_on,,,,,0,0,4,,,,,3,,,,46,0
161444,note_on,,,,,160,0,4,,,,,3,,,,58,0
161445,note_on,,,,,160,0,6,,,,,5,,,,74,0
161446,note_on,,,,,160,0,9,,,,,8,,,,46,0
161466,note_on,,,,,142,0,3,,,,,2,,,,82,0
161468,note_on,,,,,2,0,3,,,,,2,,,,70,92
161472,note_on,,,,,32,0,5,,,,,4,,,,62,45
161477,note_on,,,,,32,0,6,,,,,5,,,,58,45
161500,note_on,,,,,32,0,3,,,,,2,,,,70,0
161504,note_on,,,,,32,0,5,,,,,4,,,,62,0
161509,note_on,,,,,32,0,6,,,,,5,,,,58,0
161564,note_on,,,,,64,0,3,,,,,2,,,,70,92
161568,note_on,,,,,64,0,5,,,,,4,,,,63,45
161573,note_on,,,,,64,0,6,,,,,5,,,,60,45
161596,note_on,,,,,32,0,3,,,,,2,,,,70,0
161600,note_on,,,,,32,0,5,,,,,4,,,,63,0
161605,note_on,,,,,32,0,6,,,,,5,,,,60,0
161660,note_on,,,,,64,0,3,,,,,2,,,,70,92
161664,note_on,,,,,64,0,5,,,,,4,,,,65,45
161669,note_on,,,,,64,0,6,,,,,5,,,,62,45
161692,note_on,,,,,32,0,3,,,,,2,,,,70,0
161696,note_on,,,,,32,0,5,,,,,4,,,,65,0
161701,note_on,,,,,32,0,6,,,,,5,,,,62,0
161756,note_on,,,,,64,0,3,,,,,2,,,,70,92
161760,note_on,,,,,64,0,5,,,,,4,,,,67,45
161765,note_on,,,,,64,0,6,,,,,5,,,,63,45
161788,note_on,,,,,32,0,3,,,,,2,,,,70,0
161792,note_on,,,,,32,0,5,,,,,4,,,,67,0
161797,note_on,,,,,32,0,6,,,,,5,,,,63,0
161852,note_on,,,,,64,0,3,,,,,2,,,,70,92
161853,note_on,,,,,416,0,7,,,,,6,,,,58,60
161855,note_on,,,,,416,0,8,,,,,7,,,,50,60
161856,note_on,,,,,64,0,5,,,,,4,,,,70,45
161861,note_on,,,,,64,0,6,,,,,5,,,,67,45
161862,note_on,,,,,416,0,9,,,,,8,,,,38,60
161884,note_on,,,,,32,0,3,,,,,2,,,,70,0
161947,note_on,,,,,94,0,7,,,,,6,,,,58,0
161948,note_on,,,,,64,0,3,,,,,2,,,,70,92
161949,note_on,,,,,94,0,8,,,,,7,,,,50,0
161952,note_on,,,,,0,0,5,,,,,4,,,,68,45
161952,note_on,,,,,96,0,5,,,,,4,,,,70,0
161956,note_on,,,,,94,0,9,,,,,8,,,,38,0
161957,note_on,,,,,0,0,6,,,,,5,,,,65,45
161957,note_on,,,,,96,0,6,,,,,5,,,,67,0
161980,note_on,,,,,32,0,3,,,,,2,,,,70,0
162044,note_on,,,,,64,0,3,,,,,2,,,,70,92
162045,note_on,,,,,98,0,7,,,,,6,,,,58,60
162046,note_on,,,,,94,0,5,,,,,4,,,,68,0
162047,note_on,,,,,98,0,8,,,,,7,,,,51,60
162048,note_on,,,,,2,0,5,,,,,4,,,,68,45
162051,note_on,,,,,94,0,6,,,,,5,,,,65,0
162053,note_on,,,,,2,0,6,,,,,5,,,,65,45
162054,note_on,,,,,98,0,9,,,,,8,,,,39,60
162076,note_on,,,,,32,0,3,,,,,2,,,,70,0
162139,note_on,,,,,94,0,7,,,,,6,,,,58,0
162140,note_on,,,,,64,0,3,,,,,2,,,,70,92
162141,note_on,,,,,94,0,8,,,,,7,,,,51,0
162144,note_on,,,,,0,0,5,,,,,4,,,,67,45
162144,note_on,,,,,96,0,5,,,,,4,,,,68,0
162148,note_on,,,,,94,0,9,,,,,8,,,,39,0
162149,note_on,,,,,0,0,6,,,,,5,,,,63,45
162149,note_on,,,,,96,0,6,,,,,5,,,,65,0
162172,note_on,,,,,32,0,3,,,,,2,,,,70,0
162236,note_on,,,,,64,0,3,,,,,2,,,,70,92
162237,note_on,,,,,98,0,7,,,,,6,,,,58,60
162238,note_on,,,,,94,0,5,,,,,4,,,,67,0
162239,note_on,,,,,98,0,8,,,,,7,,,,39,60
162240,note_on,,,,,2,0,5,,,,,4,,,,67,45
162243,note_on,,,,,94,0,6,,,,,5,,,,63,0
162245,note_on,,,,,2,0,6,,,,,5,,,,63,45
162246,note_on,,,,,98,0,9,,,,,8,,,,27,60
162268,note_on,,,,,32,0,3,,,,,2,,,,70,0
162331,note_on,,,,,94,0,7,,,,,6,,,,58,0
162332,note_on,,,,,64,0,3,,,,,2,,,,70,92
162333,note_on,,,,,94,0,8,,,,,7,,,,39,0
162336,note_on,,,,,96,0,5,,,,,4,,,,67,0
162336,note_on,,,,,0,0,5,,,,,4,,,,65,45
162340,note_on,,,,,94,0,9,,,,,8,,,,27,0
162341,note_on,,,,,96,0,6,,,,,5,,,,63,0
162341,note_on,,,,,0,0,6,,,,,5,,,,62,45
162364,note_on,,,,,32,0,3,,,,,2,,,,70,0
162428,note_on,,,,,64,0,3,,,,,2,,,,77,92
162429,note_on,,,,,98,0,7,,,,,6,,,,58,60
162430,note_on,,,,,94,0,5,,,,,4,,,,65,0
162431,note_on,,,,,98,0,8,,,,,7,,,,46,60
162432,note_on,,,,,2,0,5,,,,,4,,,,65,45
162432,set_tempo,,,,,1104,1,0,,540541,,,,,,,,
162435,note_on,,,,,94,0,6,,,,,5,,,,62,0
162436,note_on,,,,,0,0,4,,,,,3,,,,46,75
162436,note_on,,,,,992,0,4,,,,,3,,,,34,75
162437,note_on,,,,,2,0,6,,,,,5,,,,62,45
162438,note_on,,,,,98,0,9,,,,,8,,,,34,60
162452,note_on,,,,,0,0,3,,,,,2,,,,74,92
162452,note_on,,,,,24,0,3,,,,,2,,,,77,0
162476,note_on,,,,,24,0,3,,,,,2,,,,74,0
162476,note_on,,,,,0,0,3,,,,,2,,,,70,92
162480,set_tempo,,,,,48,1,0,,441176,,,,,,,,
162589,note_on,,,,,160,0,7,,,,,6,,,,58,0
162591,note_on,,,,,160,0,8,,,,,7,,,,46,0
162592,note_on,,,,,160,0,5,,,,,4,,,,65,0
162596,note_on,,,,,0,0,4,,,,,3,,,,34,0
162596,note_on,,,,,160,0,4,,,,,3,,,,46,0
162597,note_on,,,,,160,0,6,,,,,5,,,,62,0
162598,note_on,,,,,160,0,9,,,,,8,,,,34,0
162618,note_on,,,,,142,0,3,,,,,2,,,,70,0
162620,note_on,,,,,2,0,3,,,,,2,,,,70,92
162652,note_on,,,,,32,0,3,,,,,2,,,,70,0
162716,note_on,,,,,64,0,3,,,,,2,,,,70,92
162748,note_on,,,,,32,0,3,,,,,2,,,,70,0
162812,note_on,,,,,64,0,3,,,,,2,,,,70,92
162844,note_on,,,,,32,0,3,,,,,2,,,,70,0
162908,note_on,,,,,64,0,3,,,,,2,,,,70,92
162940,note_on,,,,,32,0,3,,,,,2,,,,70,0
163004,note_on,,,,,64,0,3,,,,,2,,,,70,92
163100,note_on,,,,,0,0,3,,,,,2,,,,72,92
163100,note_on,,,,,96,0,3,,,,,2,,,,70,0
163196,note_on,,,,,96,0,3,,,,,2,,,,72,0
163196,note_on,,,,,0,0,3,,,,,2,,,,70,92
163292,note_on,,,,,96,0,3,,,,,2,,,,70,0
163292,note_on,,,,,0,0,3,,,,,2,,,,67,92
163388,note_on,,,,,96,0,3,,,,,2,,,,67,0
163388,note_on,,,,,0,0,3,,,,,2,,,,68,92
163484,note_on,,,,,0,0,3,,,,,2,,,,65,92
163484,note_on,,,,,96,0,3,,,,,2,,,,68,0
163578,note_on,,,,,94,0,3,,,,,2,,,,65,0
163580,note_on,,,,,2,0,3,,,,,2,,,,55,108
163580,note_on,,,,,0,0,3,,,,,2,,,,63,108
163584,set_tempo,,,,,1104,1,0,,434783,,,,,,,,
163588,note_on,,,,,992,0,4,,,,,3,,,,39,75
163682,note_on,,,,,94,0,4,,,,,3,,,,39,0
163684,note_on,,,,,2,0,4,,,,,3,,,,51,75
163778,note_on,,,,,94,0,4,,,,,3,,,,51,0
163780,note_on,,,,,2,0,4,,,,,3,,,,51,75
163836,note_on,,,,,0,0,3,,,,,2,,,,55,0
163836,note_on,,,,,256,0,3,,,,,2,,,,63,0
163868,note_on,,,,,0,0,3,,,,,2,,,,65,108
163868,note_on,,,,,32,0,3,,,,,2,,,,56,108
163874,note_on,,,,,94,0,4,,,,,3,,,,51,0
163876,note_on,,,,,2,0,4,,,,,3,,,,51,75
163962,note_on,,,,,0,0,3,,,,,2,,,,56,0
163962,note_on,,,,,94,0,3,,,,,2,,,,65,0
163964,note_on,,,,,2,0,3,,,,,2,,,,58,108
163964,note_on,,,,,0,0,3,,,,,2,,,,67,108
163970,note_on,,,,,94,0,4,,,,,3,,,,51,0
163972,note_on,,,,,2,0,4,,,,,3,,,,51,75
164066,note_on,,,,,94,0,4,,,,,3,,,,51,0
164068,note_on,,,,,2,0,4,,,,,3,,,,51,75
164124,note_on,,,,,0,0,3,,,,,2,,,,58,0
164124,note_on,,,,,160,0,3,,,,,2,,,,67,0
164156,note_on,,,,,32,0,3,,,,,2,,,,60,108
164156,note_on,,,,,0,0,3,,,,,2,,,,68,108
164162,note_on,,,,,94,0,4,,,,,3,,,,51,0
164164,note_on,,,,,2,0,4,,,,,3,,,,51,75
164258,note_on,,,,,94,0,4,,,,,3,,,,51,0
164260,note_on,,,,,2,0,4,,,,,3,,,,51,75
164348,note_on,,,,,192,0,3,,,,,2,,,,68,0
164348,note_on,,,,,0,0,3,,,,,2,,,,66,108
164348,note_on,,,,,0,0,3,,,,,2,,,,57,108
164348,note_on,,,,,0,0,3,,,,,2,,,,60,0
164354,note_on,,,,,94,0,4,,,,,3,,,,51,0
164356,note_on,,,,,2,0,4,,,,,3,,,,51,75
164450,note_on,,,,,94,0,4,,,,,3,,,,51,0
164452,note_on,,,,,2,0,4,,,,,3,,,,51,75
164540,note_on,,,,,192,0,3,,,,,2,,,,66,0
164540,note_on,,,,,0,0,3,,,,,2,,,,57,0
164540,note_on,,,,,0,0,3,,,,,2,,,,58,108
164540,note_on,,,,,0,0,3,,,,,2,,,,67,108
164546,note_on,,,,,94,0,4,,,,,3,,,,51,0
164548,note_on,,,,,2,0,4,,,,,3,,,,51,75
164642,note_on,,,,,94,0,4,,,,,3,,,,51,0
164644,note_on,,,,,2,0,4,,,,,3,,,,51,75
164700,note_on,,,,,0,0,3,,,,,2,,,,58,0
164700,note_on,,,,,160,0,3,,,,,2,,,,67,0
164732,note_on,,,,,0,0,3,,,,,2,,,,65,108
164732,note_on,,,,,32,0,3,,,,,2,,,,56,108
164738,note_on,,,,,94,0,4,,,,,3,,,,51,0
164740,note_on,,,,,2,0,4,,,,,3,,,,51,75
164834,note_on,,,,,94,0,4,,,,,3,,,,51,0
164836,note_on,,,,,2,0,4,,,,,3,,,,51,75
164924,note_on,,,,,192,0,3,,,,,2,,,,65,0
164924,note_on,,,,,0,0,3,,,,,2,,,,56,0
164924,note_on,,,,,0,0,3,,,,,2,,,,54,108
164924,note_on,,,,,0,0,3,,,,,2,,,,62,108
164930,note_on,,,,,94,0,4,,,,,3,,,,51,0
164932,note_on,,,,,2,0,4,,,,,3,,,,51,75
165026,note_on,,,,,94,0,4,,,,,3,,,,51,0
165028,note_on,,,,,2,0,4,,,,,3,,,,51,75
165116,note_on,,,,,192,0,3,,,,,2,,,,62,0
165116,note_on,,,,,0,0,3,,,,,2,,,,54,0
165116,note_on,,,,,0,0,3,,,,,2,,,,55,108
165116,note_on,,,,,0,0,3,,,,,2,,,,63,108
165122,note_on,,,,,94,0,4,,,,,3,,,,51,0
165124,note_on,,,,,2,0,4,,,,,3,,,,51,75
165218,note_on,,,,,94,0,4,,,,,3,,,,51,0
165220,note_on,,,,,2,0,4,,,,,3,,,,51,75
165276,note_on,,,,,160,0,3,,,,,2,,,,63,0
165276,note_on,,,,,0,0,3,,,,,2,,,,55,0
165312,note_on,,,,,2720,0,5,,,,,4,,,,63,53
165314,note_on,,,,,94,0,4,,,,,3,,,,51,0
165316,note_on,,,,,2,0,4,,,,,3,,,,51,75
165456,note_on,,,,,144,0,5,,,,,4,,,,63,0
165456,note_on,,,,,0,0,5,,,,,4,,,,62,53
165476,note_on,,,,,160,0,4,,,,,3,,,,51,0
165504,note_on,,,,,48,0,5,,,,,4,,,,62,0
165504,note_on,,,,,0,0,5,,,,,4,,,,65,53
165648,note_on,,,,,0,0,5,,,,,4,,,,63,53
165648,note_on,,,,,144,0,5,,,,,4,,,,65,0
165696,note_on,,,,,0,0,5,,,,,4,,,,68,53
165696,note_on,,,,,48,0,5,,,,,4,,,,63,0
165840,note_on,,,,,144,0,5,,,,,4,,,,68,0
165840,note_on,,,,,0,0,5,,,,,4,,,,67,53
165884,note_on,,,,,608,0,3,,,,,2,,,,63,108
165884,note_on,,,,,0,0,3,,,,,2,,,,67,108
165886,note_on,,,,,46,0,5,,,,,4,,,,67,0
165888,set_tempo,,,,,2304,1,0,,441176,,,,,,,,
165888,note_on,,,,,2,0,5,,,,,4,,,,67,53
165892,note_on,,,,,416,0,4,,,,,3,,,,39,75
165986,note_on,,,,,94,0,4,,,,,3,,,,39,0
165988,note_on,,,,,2,0,4,,,,,3,,,,51,75
166048,note_on,,,,,160,0,5,,,,,4,,,,67,0
166082,note_on,,,,,94,0,4,,,,,3,,,,51,0
166084,note_on,,,,,2,0,4,,,,,3,,,,51,75
166140,note_on,,,,,256,0,3,,,,,2,,,,67,0
166140,note_on,,,,,0,0,3,,,,,2,,,,63,0
166172,note_on,,,,,32,0,3,,,,,2,,,,65,108
166172,note_on,,,,,0,0,3,,,,,2,,,,68,108
166178,note_on,,,,,94,0,4,,,,,3,,,,51,0
166180,note_on,,,,,2,0,4,,,,,3,,,,51,75
166266,note_on,,,,,94,0,3,,,,,2,,,,68,0
166266,note_on,,,,,0,0,3,,,,,2,,,,65,0
166268,note_on,,,,,2,0,3,,,,,2,,,,67,108
166268,note_on,,,,,0,0,3,,,,,2,,,,70,108
166274,note_on,,,,,94,0,4,,,,,3,,,,51,0
166276,note_on,,,,,2,0,4,,,,,3,,,,51,75
166370,note_on,,,,,94,0,4,,,,,3,,,,51,0
166372,note_on,,,,,2,0,4,,,,,3,,,,51,75
166428,note_on,,,,,160,0,3,,,,,2,,,,70,0
166428,note_on,,,,,0,0,3,,,,,2,,,,67,0
166460,note_on,,,,,32,0,3,,,,,2,,,,68,108
166460,note_on,,,,,0,0,3,,,,,2,,,,72,108
166466,note_on,,,,,94,0,4,,,,,3,,,,51,0
166468,note_on,,,,,2,0,4,,,,,3,,,,51,75
166562,note_on,,,,,94,0,4,,,,,3,,,,51,0
166564,note_on,,,,,2,0,4,,,,,3,,,,51,75
166652,note_on,,,,,192,0,3,,,,,2,,,,72,0
166652,note_on,,,,,0,0,3,,,,,2,,,,68,0
166652,note_on,,,,,0,0,3,,,,,2,,,,66,108
166652,note_on,,,,,0,0,3,,,,,2,,,,69,108
166658,note_on,,,,,94,0,4,,,,,3,,,,51,0
166660,note_on,,,,,2,0,4,,,,,3,,,,51,75
166754,note_on,,,,,94,0,4,,,,,3,,,,51,0
166756,note_on,,,,,2,0,4,,,,,3,,,,51,75
166844,note_on,,,,,0,0,3,,,,,2,,,,70,108
166844,note_on,,,,,0,0,3,,,,,2,,,,67,108
166844,note_on,,,,,0,0,3,,,,,2,,,,66,0
166844,note_on,,,,,192,0,3,,,,,2,,,,69,0
166850,note_on,,,,,94,0,4,,,,,3,,,,51,0
166852,note_on,,,,,2,0,4,,,,,3,,,,51,75
166946,note_on,,,,,94,0,4,,,,,3,,,,51,0
166948,note_on,,,,,2,0,4,,,,,3,,,,51,75
167004,note_on,,,,,0,0,3,,,,,2,,,,67,0
167004,note_on,,,,,160,0,3,,,,,2,,,,70,0
167036,note_on,,,,,0,0,3,,,,,2,,,,68,108
167036,note_on,,,,,32,0,3,,,,,2,,,,65,108
167042,note_on,,,,,94,0,4,,,,,3,,,,51,0
167044,note_on,,,,,2,0,4,,,,,3,,,,51,75
167138,note_on,,,,,94,0,4,,,,,3,,,,51,0
167140,note_on,,,,,2,0,4,,,,,3,,,,51,75
167228,note_on,,,,,0,0,3,,,,,2,,,,65,0
167228,note_on,,,,,0,0,3,,,,,2,,,,66,108
167228,note_on,,,,,0,0,3,,,,,2,,,,62,108
167228,note_on,,,,,192,0,3,,,,,2,,,,68,0
167234,note_on,,,,,94,0,4,,,,,3,,,,51,0
167236,note_on,,,,,2,0,4,,,,,3,,,,51,75
167330,note_on,,,,,94,0,4,,,,,3,,,,51,0
167332,note_on,,,,,2,0,4,,,,,3,,,,51,75
167420,note_on,,,,,192,0,3,,,,,2,,,,66,0
167420,note_on,,,,,0,0,3,,,,,2,,,,63,108
167420,note_on,,,,,0,0,3,,,,,2,,,,62,0
167420,note_on,,,,,0,0,3,,,,,2,,,,67,108
167426,note_on,,,,,94,0,4,,,,,3,,,,51,0
167428,note_on,,,,,2,0,4,,,,,3,,,,51,75
167522,note_on,,,,,94,0,4,,,,,3,,,,51,0
167524,note_on,,,,,2,0,4,,,,,3,,,,51,75
167580,note_on,,,,,160,0,3,,,,,2,,,,67,0
167580,note_on,,,,,0,0,3,,,,,2,,,,63,0
167616,note_on,,,,,1568,0,5,,,,,4,,,,67,53
167618,note_on,,,,,94,0,4,,,,,3,,,,51,0
167620,note_on,,,,,2,0,4,,,,,3,,,,51,75
167621,note_on,,,,,5024,0,6,,,,,5,,,,63,53
167760,note_on,,,,,0,0,5,,,,,4,,,,65,53
167760,note_on,,,,,144,0,5,,,,,4,,,,67,0
167765,note_on,,,,,0,0,6,,,,,5,,,,62,53
167765,note_on,,,,,144,0,6,,,,,5,,,,63,0
167780,note_on,,,,,160,0,4,,,,,3,,,,51,0
167808,note_on,,,,,0,0,5,,,,,4,,,,68,53
167808,note_on,,,,,48,0,5,,,,,4,,,,65,0
167813,note_on,,,,,0,0,6,,,,,5,,,,65,53
167813,note_on,,,,,48,0,6,,,,,5,,,,62,0
167952,note_on,,,,,0,0,5,,,,,4,,,,67,53
167952,note_on,,,,,144,0,5,,,,,4,,,,68,0
167957,note_on,,,,,144,0,6,,,,,5,,,,65,0
167957,note_on,,,,,0,0,6,,,,,5,,,,63,53
168000,note_on,,,,,0,0,5,,,,,4,,,,72,53
168000,note_on,,,,,48,0,5,,,,,4,,,,67,0
168005,note_on,,,,,48,0,6,,,,,5,,,,63,0
168005,note_on,,,,,0,0,6,,,,,5,,,,68,53
168144,note_on,,,,,144,0,5,,,,,4,,,,72,0
168144,note_on,,,,,0,0,5,,,,,4,,,,70,53
168149,note_on,,,,,144,0,6,,,,,5,,,,68,0
168149,note_on,,,,,0,0,6,,,,,5,,,,67,53
168188,note_on,,,,,608,0,3,,,,,2,,,,75,108
168190,note_on,,,,,46,0,5,,,,,4,,,,70,0
168192,note_on,,,,,2,0,5,,,,,4,,,,70,53
168195,note_on,,,,,46,0,6,,,,,5,,,,67,0
168197,note_on,,,,,2,0,6,,,,,5,,,,67,53
168332,note_on,,,,,144,0,3,,,,,2,,,,75,0
168332,note_on,,,,,0,0,3,,,,,2,,,,74,108
168380,note_on,,,,,0,0,3,,,,,2,,,,80,108
168380,note_on,,,,,48,0,3,,,,,2,,,,74,0
168524,note_on,,,,,0,0,3,,,,,2,,,,79,108
168524,note_on,,,,,144,0,3,,,,,2,,,,80,0
168572,note_on,,,,,0,0,3,,,,,2,,,,87,108
168572,note_on,,,,,48,0,3,,,,,2,,,,79,0
168716,note_on,,,,,0,0,3,,,,,2,,,,85,108
168716,note_on,,,,,144,0,3,,,,,2,,,,87,0
168720,note_on,,,,,528,0,5,,,,,4,,,,70,0
168725,note_on,,,,,528,0,6,,,,,5,,,,67,0
168762,note_on,,,,,46,0,3,,,,,2,,,,85,0
168764,note_on,,,,,2,0,3,,,,,2,,,,85,108
168768,note_on,,,,,48,0,5,,,,,4,,,,82,45
168772,note_on,,,,,0,0,4,,,,,3,,,,67,75
168772,note_on,,,,,992,0,4,,,,,3,,,,63,75
168773,note_on,,,,,48,0,6,,,,,5,,,,79,45
168916,note_on,,,,,0,0,4,,,,,3,,,,62,75
168916,note_on,,,,,144,0,4,,,,,3,,,,63,0
168932,note_on,,,,,16,0,4,,,,,3,,,,67,0
168964,note_on,,,,,0,0,4,,,,,3,,,,68,75
168964,note_on,,,,,0,0,4,,,,,3,,,,65,75
168964,note_on,,,,,32,0,4,,,,,3,,,,62,0
169108,note_on,,,,,144,0,4,,,,,3,,,,65,0
169108,note_on,,,,,0,0,4,,,,,3,,,,63,75
169124,note_on,,,,,16,0,4,,,,,3,,,,68,0
169156,note_on,,,,,0,0,4,,,,,3,,,,67,75
169156,note_on,,,,,32,0,4,,,,,3,,,,63,0
169156,note_on,,,,,0,0,4,,,,,3,,,,70,75
169292,note_on,,,,,528,0,3,,,,,2,,,,85,0
169300,note_on,,,,,144,0,4,,,,,3,,,,67,0
169300,note_on,,,,,0,0,4,,,,,3,,,,65,75
169316,note_on,,,,,16,0,4,,,,,3,,,,70,0
169340,note_on,,,,,48,0,3,,,,,2,,,,85,108
169344,set_tempo,,,,,3456,1,0,,540541,,,,,,,,
169346,note_on,,,,,30,0,4,,,,,3,,,,65,0
169348,note_on,,,,,0,0,4,,,,,3,,,,67,75
169348,note_on,,,,,2,0,4,,,,,3,,,,64,75
169364,note_on,,,,,0,0,3,,,,,2,,,,87,108
169364,note_on,,,,,24,0,3,,,,,2,,,,85,0
169388,note_on,,,,,24,0,3,,,,,2,,,,87,0
169388,note_on,,,,,0,0,3,,,,,2,,,,85,108
169436,note_on,,,,,48,0,3,,,,,2,,,,85,0
169436,note_on,,,,,0,0,3,,,,,2,,,,84,108
169440,set_tempo,,,,,96,1,0,,441176,,,,,,,,
169530,note_on,,,,,94,0,3,,,,,2,,,,84,0
169532,note_on,,,,,2,0,3,,,,,2,,,,84,108
169536,note_on,,,,,768,0,5,,,,,4,,,,82,0
169536,note_on,,,,,0,0,5,,,,,4,,,,80,45
169540,note_on,,,,,192,0,4,,,,,3,,,,67,0
169540,note_on,,,,,0,0,4,,,,,3,,,,65,75
169540,note_on,,,,,0,0,4,,,,,3,,,,68,75
169540,note_on,,,,,0,0,4,,,,,3,,,,64,0
169541,note_on,,,,,768,0,6,,,,,5,,,,79,0
169541,note_on,,,,,0,0,6,,,,,5,,,,77,45
169626,note_on,,,,,94,0,3,,,,,2,,,,84,0
169628,note_on,,,,,2,0,3,,,,,2,,,,84,108
169696,note_on,,,,,160,0,5,,,,,4,,,,80,0
169700,note_on,,,,,160,0,4,,,,,3,,,,68,0
169700,note_on,,,,,0,0,4,,,,,3,,,,65,0
169701,note_on,,,,,160,0,6,,,,,5,,,,77,0
169722,note_on,,,,,94,0,3,,,,,2,,,,84,0
169724,note_on,,,,,2,0,3,,,,,2,,,,84,108
169818,note_on,,,,,94,0,3,,,,,2,,,,84,0
169820,note_on,,,,,2,0,3,,,,,2,,,,84,108
169914,note_on,,,,,94,0,3,,,,,2,,,,84,0
169916,note_on,,,,,2,0,3,,,,,2,,,,84,108
169920,note_on,,,,,224,0,5,,,,,4,,,,80,45
169920,set_tempo,,,,,480,1,0,,540541,,,,,,,,
169924,note_on,,,,,224,0,4,,,,,3,,,,62,75
169924,note_on,,,,,0,0,4,,,,,3,,,,65,75
169925,note_on,,,,,224,0,6,,,,,5,,,,77,45
169940,note_on,,,,,0,0,3,,,,,2,,,,86,108
169940,note_on,,,,,24,0,3,,,,,2,,,,84,0
169964,note_on,,,,,0,0,3,,,,,2,,,,84,108
169964,note_on,,,,,24,0,3,,,,,2,,,,86,0
170012,note_on,,,,,0,0,3,,,,,2,,,,82,108
170012,note_on,,,,,48,0,3,,,,,2,,,,84,0
170016,set_tempo,,,,,96,1,0,,441176,,,,,,,,
170106,note_on,,,,,94,0,3,,,,,2,,,,82,0
170108,note_on,,,,,2,0,3,,,,,2,,,,82,108
170112,note_on,,,,,0,0,5,,,,,4,,,,79,45
170112,note_on,,,,,192,0,5,,,,,4,,,,80,0
170116,note_on,,,,,192,0,4,,,,,3,,,,65,0
170116,note_on,,,,,0,0,4,,,,,3,,,,62,0
170116,note_on,,,,,0,0,4,,,,,3,,,,63,75
170116,note_on,,,,,0,0,4,,,,,3,,,,67,75
170117,note_on,,,,,192,0,6,,,,,5,,,,77,0
170117,note_on,,,,,0,0,6,,,,,5,,,,75,45
170202,note_on,,,,,94,0,3,,,,,2,,,,82,0
170204,note_on,,,,,2,0,3,,,,,2,,,,82,108
170272,note_on,,,,,160,0,5,,,,,4,,,,79,0
170276,note_on,,,,,160,0,4,,,,,3,,,,67,0
170276,note_on,,,,,0,0,4,,,,,3,,,,63,0
170277,note_on,,,,,160,0,6,,,,,5,,,,75,0
170298,note_on,,,,,94,0,3,,,,,2,,,,82,0
170300,note_on,,,,,2,0,3,,,,,2,,,,82,108
170394,note_on,,,,,94,0,3,,,,,2,,,,82,0
170396,note_on,,,,,2,0,3,,,,,2,,,,82,108
170490,note_on,,,,,94,0,3,,,,,2,,,,82,0
170492,note_on,,,,,0,0,3,,,,,2,,,,82,108
170492,note_on,,,,,2,0,3,,,,,2,,,,79,108
170500,note_on,,,,,224,0,4,,,,,3,,,,68,75
170588,note_on,,,,,96,0,3,,,,,2,,,,82,0
170588,note_on,,,,,0,0,3,,,,,2,,,,79,0
170588,note_on,,,,,0,0,3,,,,,2,,,,77,108
170588,note_on,,,,,0,0,3,,,,,2,,,,80,108
170660,note_on,,,,,160,0,4,,,,,3,,,,68,0
170682,note_on,,,,,0,0,3,,,,,2,,,,77,0
170682,note_on,,,,,94,0,3,,,,,2,,,,80,0
170684,note_on,,,,,0,0,3,,,,,2,,,,79,108
170684,note_on,,,,,2,0,3,,,,,2,,,,75,108
170692,note_on,,,,,32,0,4,,,,,3,,,,70,75
170844,note_on,,,,,160,0,3,,,,,2,,,,79,0
170844,note_on,,,,,0,0,3,,,,,2,,,,75,0
170852,note_on,,,,,160,0,4,,,,,3,,,,70,0
170876,note_on,,,,,32,0,3,,,,,2,,,,74,108
170876,note_on,,,,,0,0,3,,,,,2,,,,77,108
170884,note_on,,,,,32,0,4,,,,,3,,,,58,75
171036,note_on,,,,,160,0,3,,,,,2,,,,77,0
171036,note_on,,,,,0,0,3,,,,,2,,,,74,0
171044,note_on,,,,,160,0,4,,,,,3,,,,58,0
171068,note_on,,,,,0,0,3,,,,,2,,,,79,108
171068,note_on,,,,,32,0,3,,,,,2,,,,75,108
171076,note_on,,,,,32,0,4,,,,,3,,,,63,75
171116,note_on,,,,,48,0,3,,,,,2,,,,79,0
171116,note_on,,,,,0,0,3,,,,,2,,,,80,108
171164,note_on,,,,,48,0,3,,,,,2,,,,80,0
171164,note_on,,,,,0,0,3,,,,,2,,,,79,108
171212,note_on,,,,,48,0,3,,,,,2,,,,79,0
171212,note_on,,,,,0,0,3,,,,,2,,,,80,108
171228,note_on,,,,,16,0,3,,,,,2,,,,75,0
171236,note_on,,,,,160,0,4,,,,,3,,,,63,0
171260,note_on,,,,,32,0,3,,,,,2,,,,80,0
171260,note_on,,,,,0,0,3,,,,,2,,,,82,108
171354,note_on,,,,,94,0,3,,,,,2,,,,82,0
171356,note_on,,,,,2,0,3,,,,,2,,,,87,108
171450,note_on,,,,,94,0,3,,,,,2,,,,87,0
171452,note_on,,,,,2,0,3,,,,,2,,,,79,108
171452,note_on,,,,,0,0,3,,,,,2,,,,82,108
171546,note_on,,,,,94,0,3,,,,,2,,,,82,0
171546,note_on,,,,,0,0,3,,,,,2,,,,79,0
171645,note_on,,,,,9056,0,7,,,,,6,,,,67,60
171647,note_on,,,,,9056,0,8,,,,,7,,,,64,60
171648,note_on,,,,,1376,0,5,,,,,4,,,,73,45
171653,note_on,,,,,1376,0,6,,,,,5,,,,70,45
171654,note_on,,,,,9056,0,9,,,,,8,,,,52,60
171672,note_on,,,,,0,0,5,,,,,4,,,,75,45
171672,note_on,,,,,24,0,5,,,,,4,,,,73,0
171696,note_on,,,,,0,0,5,,,,,4,,,,73,45
171696,note_on,,,,,24,0,5,,,,,4,,,,75,0
171744,note_on,,,,,0,0,5,,,,,4,,,,72,45
171744,note_on,,,,,48,0,5,,,,,4,,,,73,0
171837,note_on,,,,,0,0,7,,,,,6,,,,68,60
171837,note_on,,,,,192,0,7,,,,,6,,,,67,0
171838,note_on,,,,,94,0,5,,,,,4,,,,72,0
171839,note_on,,,,,0,0,8,,,,,7,,,,65,60
171839,note_on,,,,,192,0,8,,,,,7,,,,64,0
171840,note_on,,,,,2,0,5,,,,,4,,,,72,45
171845,note_on,,,,,0,0,6,,,,,5,,,,68,45
171845,note_on,,,,,192,0,6,,,,,5,,,,70,0
171846,note_on,,,,,0,0,9,,,,,8,,,,53,60
171846,note_on,,,,,192,0,9,,,,,8,,,,52,0
171932,note_on,,,,,386,0,3,,,,,2,,,,84,108
171964,note_on,,,,,32,0,3,,,,,2,,,,84,0
171997,note_on,,,,,160,0,7,,,,,6,,,,68,0
171999,note_on,,,,,160,0,8,,,,,7,,,,65,0
172000,note_on,,,,,160,0,5,,,,,4,,,,72,0
172005,note_on,,,,,160,0,6,,,,,5,,,,68,0
172006,note_on,,,,,160,0,9,,,,,8,,,,53,0
172028,note_on,,,,,64,0,3,,,,,2,,,,76,108
172124,note_on,,,,,0,0,3,,,,,2,,,,77,108
172124,note_on,,,,,96,0,3,,,,,2,,,,76,0
172218,note_on,,,,,94,0,3,,,,,2,,,,77,0
172221,note_on,,,,,224,0,7,,,,,6,,,,65,60
172223,note_on,,,,,224,0,8,,,,,7,,,,62,60
172224,note_on,,,,,224,0,5,,,,,4,,,,72,45
172229,note_on,,,,,224,0,6,,,,,5,,,,68,45
172230,note_on,,,,,224,0,9,,,,,8,,,,50,60
172248,note_on,,,,,24,0,5,,,,,4,,,,72,0
172248,note_on,,,,,0,0,5,,,,,4,,,,74,45
172272,note_on,,,,,0,0,5,,,,,4,,,,72,45
172272,note_on,,,,,24,0,5,,,,,4,,,,74,0
172320,note_on,,,,,0,0,5,,,,,4,,,,70,45
172320,note_on,,,,,48,0,5,,,,,4,,,,72,0
172413,note_on,,,,,192,0,7,,,,,6,,,,65,0
172413,note_on,,,,,0,0,7,,,,,6,,,,67,60
172414,note_on,,,,,94,0,5,,,,,4,,,,70,0
172415,note_on,,,,,192,0,8,,,,,7,,,,62,0
172415,note_on,,,,,0,0,8,,,,,7,,,,63,60
172416,note_on,,,,,2,0,5,,,,,4,,,,70,45
172421,note_on,,,,,0,0,6,,,,,5,,,,67,45
172421,note_on,,,,,192,0,6,,,,,5,,,,68,0
172422,note_on,,,,,0,0,9,,,,,8,,,,51,60
172422,note_on,,,,,192,0,9,,,,,8,,,,50,0
172508,note_on,,,,,290,0,3,,,,,2,,,,82,108
172540,note_on,,,,,32,0,3,,,,,2,,,,82,0
172573,note_on,,,,,160,0,7,,,,,6,,,,67,0
172575,note_on,,,,,160,0,8,,,,,7,,,,63,0
172576,note_on,,,,,160,0,5,,,,,4,,,,70,0
172581,note_on,,,,,160,0,6,,,,,5,,,,67,0
172582,note_on,,,,,160,0,9,,,,,8,,,,51,0
172604,note_on,,,,,64,0,3,,,,,2,,,,74,108
172700,note_on,,,,,96,0,3,,,,,2,,,,74,0
172700,note_on,,,,,0,0,3,,,,,2,,,,75,108
172794,note_on,,,,,94,0,3,,,,,2,,,,75,0
172796,note_on,,,,,0,0,3,,,,,2,,,,70,108
172796,note_on,,,,,2,0,3,,,,,2,,,,67,108
172804,note_on,,,,,1568,0,4,,,,,3,,,,56,75
172890,note_on,,,,,94,0,3,,,,,2,,,,70,0
172890,note_on,,,,,0,0,3,,,,,2,,,,67,0
172892,note_on,,,,,2,0,3,,,,,2,,,,65,108
172892,note_on,,,,,0,0,3,,,,,2,,,,68,108
172964,note_on,,,,,160,0,4,,,,,3,,,,56,0
172986,note_on,,,,,94,0,3,,,,,2,,,,68,0
172986,note_on,,,,,0,0,3,,,,,2,,,,65,0
172988,note_on,,,,,2,0,3,,,,,2,,,,63,108
172988,note_on,,,,,0,0,3,,,,,2,,,,67,108
172996,note_on,,,,,32,0,4,,,,,3,,,,58,75
173148,note_on,,,,,0,0,3,,,,,2,,,,63,0
173148,note_on,,,,,160,0,3,,,,,2,,,,67,0
173156,note_on,,,,,160,0,4,,,,,3,,,,58,0
173180,note_on,,,,,32,0,3,,,,,2,,,,62,108
173180,note_on,,,,,0,0,3,,,,,2,,,,65,108
173188,note_on,,,,,32,0,4,,,,,3,,,,46,75
173340,note_on,,,,,160,0,3,,,,,2,,,,65,0
173340,note_on,,,,,0,0,3,,,,,2,,,,62,0
173348,note_on,,,,,160,0,4,,,,,3,,,,46,0
173372,note_on,,,,,32,0,3,,,,,2,,,,63,75
173376,set_tempo,,,,,3360,1,0,,413793,,,,,,,,
173380,note_on,,,,,32,0,4,,,,,3,,,,51,75
173420,note_on,,,,,48,0,3,,,,,2,,,,63,0
173420,note_on,,,,,0,0,3,,,,,2,,,,70,75
173468,note_on,,,,,0,0,3,,,,,2,,,,72,75
173468,note_on,,,,,48,0,3,,,,,2,,,,70,0
173516,note_on,,,,,48,0,3,,,,,2,,,,72,0
173516,note_on,,,,,0,0,3,,,,,2,,,,70,75
173564,note_on,,,,,48,0,3,,,,,2,,,,70,0
173564,note_on,,,,,0,0,3,,,,,2,,,,75,75
173572,note_on,,,,,192,0,4,,,,,3,,,,51,0
173612,note_on,,,,,0,0,3,,,,,2,,,,74,75
173612,note_on,,,,,48,0,3,,,,,2,,,,75,0
173660,note_on,,,,,48,0,3,,,,,2,,,,74,0
173660,note_on,,,,,0,0,3,,,,,2,,,,72,75
173708,note_on,,,,,48,0,3,,,,,2,,,,72,0
173708,note_on,,,,,0,0,3,,,,,2,,,,70,75
173756,note_on,,,,,48,0,3,,,,,2,,,,70,0
173756,note_on,,,,,0,0,3,,,,,2,,,,68,75
173804,note_on,,,,,48,0,3,,,,,2,,,,68,0
173804,note_on,,,,,0,0,3,,,,,2,,,,67,75
173852,note_on,,,,,48,0,3,,,,,2,,,,67,0
173852,note_on,,,,,0,0,3,,,,,2,,,,65,75
173900,note_on,,,,,0,0,3,,,,,2,,,,63,75
173900,note_on,,,,,48,0,3,,,,,2,,,,65,0
173948,note_on,,,,,0,0,3,,,,,2,,,,62,92
173948,note_on,,,,,48,0,3,,,,,2,,,,63,0
173952,set_tempo,,,,,576,1,0,,428571,,,,,,,,
173956,note_on,,,,,384,0,4,,,,,3,,,,46,75
173996,note_on,,,,,48,0,3,,,,,2,,,,62,0
173996,note_on,,,,,0,0,3,,,,,2,,,,70,92
174044,note_on,,,,,0,0,3,,,,,2,,,,63,92
174044,note_on,,,,,48,0,3,,,,,2,,,,70,0
174052,note_on,,,,,96,0,4,,,,,3,,,,46,0
174052,note_on,,,,,0,0,4,,,,,3,,,,48,75
174092,note_on,,,,,0,0,3,,,,,2,,,,70,92
174092,note_on,,,,,48,0,3,,,,,2,,,,63,0
174140,note_on,,,,,0,0,3,,,,,2,,,,65,92
174140,note_on,,,,,48,0,3,,,,,2,,,,70,0
174148,note_on,,,,,0,0,4,,,,,3,,,,50,75
174148,note_on,,,,,96,0,4,,,,,3,,,,48,0
174188,note_on,,,,,0,0,3,,,,,2,,,,70,92
174188,note_on,,,,,48,0,3,,,,,2,,,,65,0
174236,note_on,,,,,0,0,3,,,,,2,,,,67,92
174236,note_on,,,,,48,0,3,,,,,2,,,,70,0
174244,note_on,,,,,0,0,4,,,,,3,,,,51,75
174244,note_on,,,,,96,0,4,,,,,3,,,,50,0
174284,note_on,,,,,0,0,3,,,,,2,,,,70,92
174284,note_on,,,,,48,0,3,,,,,2,,,,67,0
174332,note_on,,,,,0,0,3,,,,,2,,,,68,92
174332,note_on,,,,,48,0,3,,,,,2,,,,70,0
174340,note_on,,,,,96,0,4,,,,,3,,,,51,0
174340,note_on,,,,,0,0,4,,,,,3,,,,53,75
174380,note_on,,,,,0,0,3,,,,,2,,,,70,92
174380,note_on,,,,,48,0,3,,,,,2,,,,68,0
174428,note_on,,,,,0,0,3,,,,,2,,,,65,92
174428,note_on,,,,,48,0,3,,,,,2,,,,70,0
174436,note_on,,,,,96,0,4,,,,,3,,,,53,0
174436,note_on,,,,,0,0,4,,,,,3,,,,50,75
174476,note_on,,,,,48,0,3,,,,,2,,,,65,0
174476,note_on,,,,,0,0,3,,,,,2,,,,70,92
174524,note_on,,,,,48,0,3,,,,,2,,,,70,0
174524,note_on,,,,,0,0,3,,,,,2,,,,67,75
174528,set_tempo,,,,,576,1,0,,413793,,,,,,,,
174532,note_on,,,,,96,0,4,,,,,3,,,,50,0
174532,note_on,,,,,0,0,4,,,,,3,,,,51,75
174572,note_on,,,,,48,0,3,,,,,2,,,,67,0
174572,note_on,,,,,0,0,3,,,,,2,,,,70,75
174620,note_on,,,,,48,0,3,,,,,2,,,,70,0
174620,note_on,,,,,0,0,3,,,,,2,,,,72,75
174668,note_on,,,,,0,0,3,,,,,2,,,,70,75
174668,note_on,,,,,48,0,3,,,,,2,,,,72,0
174716,note_on,,,,,0,0,3,,,,,2,,,,75,75
174716,note_on,,,,,48,0,3,,,,,2,,,,70,0
174724,note_on,,,,,192,0,4,,,,,3,,,,51,0
174764,note_on,,,,,0,0,3,,,,,2,,,,74,75
174764,note_on,,,,,48,0,3,,,,,2,,,,75,0
174812,note_on,,,,,0,0,3,,,,,2,,,,72,75
174812,note_on,,,,,48,0,3,,,,,2,,,,74,0
174860,note_on,,,,,48,0,3,,,,,2,,,,72,0
174860,note_on,,,,,0,0,3,,,,,2,,,,70,75
174908,note_on,,,,,0,0,3,,,,,2,,,,68,75
174908,note_on,,,,,48,0,3,,,,,2,,,,70,0
174956,note_on,,,,,48,0,3,,,,,2,,,,68,0
174956,note_on,,,,,0,0,3,,,,,2,,,,67,75
175004,note_on,,,,,48,0,3,,,,,2,,,,67,0
175004,note_on,,,,,0,0,3,,,,,2,,,,65,75
175052,note_on,,,,,48,0,3,,,,,2,,,,65,0
175052,note_on,,,,,0,0,3,,,,,2,,,,63,75
175100,note_on,,,,,48,0,3,,,,,2,,,,63,0
175100,note_on,,,,,0,0,3,,,,,2,,,,62,92
175104,set_tempo,,,,,576,1,0,,428571,,,,,,,,
175108,note_on,,,,,384,0,4,,,,,3,,,,46,75
175148,note_on,,,,,0,0,3,,,,,2,,,,70,92
175148,note_on,,,,,48,0,3,,,,,2,,,,62,0
175196,note_on,,,,,0,0,3,,,,,2,,,,63,92
175196,note_on,,,,,48,0,3,,,,,2,,,,70,0
175204,note_on,,,,,96,0,4,,,,,3,,,,46,0
175204,note_on,,,,,0,0,4,,,,,3,,,,48,75
175244,note_on,,,,,48,0,3,,,,,2,,,,63,0
175244,note_on,,,,,0,0,3,,,,,2,,,,70,92
175292,note_on,,,,,0,0,3,,,,,2,,,,65,92
175292,note_on,,,,,48,0,3,,,,,2,,,,70,0
175300,note_on,,,,,0,0,4,,,,,3,,,,50,75
175300,note_on,,,,,96,0,4,,,,,3,,,,48,0
175340,note_on,,,,,48,0,3,,,,,2,,,,65,0
175340,note_on,,,,,0,0,3,,,,,2,,,,70,92
175388,note_on,,,,,48,0,3,,,,,2,,,,70,0
175388,note_on,,,,,0,0,3,,,,,2,,,,67,92
175396,note_on,,,,,0,0,4,,,,,3,,,,51,75
175396,note_on,,,,,96,0,4,,,,,3,,,,50,0
175436,note_on,,,,,48,0,3,,,,,2,,,,67,0
175436,note_on,,,,,0,0,3,,,,,2,,,,70,92
175484,note_on,,,,,48,0,3,,,,,2,,,,70,0
175484,note_on,,,,,0,0,3,,,,,2,,,,68,92
175492,note_on,,,,,0,0,4,,,,,3,,,,53,75
175492,note_on,,,,,96,0,4,,,,,3,,,,51,0
175532,note_on,,,,,48,0,3,,,,,2,,,,68,0
175532,note_on,,,,,0,0,3,,,,,2,,,,70,92
175580,note_on,,,,,0,0,3,,,,,2,,,,65,92
175580,note_on,,,,,48,0,3,,,,,2,,,,70,0
175588,note_on,,,,,96,0,4,,,,,3,,,,53,0
175588,note_on,,,,,0,0,4,,,,,3,,,,50,75
175628,note_on,,,,,48,0,3,,,,,2,,,,65,0
175628,note_on,,,,,0,0,3,,,,,2,,,,70,92
175676,note_on,,,,,48,0,3,,,,,2,,,,70,0
175676,note_on,,,,,0,0,3,,,,,2,,,,67,92
175684,note_on,,,,,0,0,4,,,,,3,,,,51,75
175684,note_on,,,,,96,0,4,,,,,3,,,,50,0
175724,note_on,,,,,48,0,3,,,,,2,,,,67,0
175724,note_on,,,,,0,0,3,,,,,2,,,,75,93
175772,note_on,,,,,48,0,3,,,,,2,,,,75,0
175772,note_on,,,,,0,0,3,,,,,2,,,,68,94
175780,note_on,,,,,96,0,4,,,,,3,,,,51,0
175780,note_on,,,,,0,0,4,,,,,3,,,,53,78
175820,note_on,,,,,48,0,3,,,,,2,,,,68,0
175820,note_on,,,,,0,0,3,,,,,2,,,,75,95
175868,note_on,,,,,0,0,3,,,,,2,,,,70,96
175868,note_on,,,,,48,0,3,,,,,2,,,,75,0
175876,note_on,,,,,96,0,4,,,,,3,,,,53,0
175876,note_on,,,,,0,0,4,,,,,3,,,,55,81
175916,note_on,,,,,48,0,3,,,,,2,,,,70,0
175916,note_on,,,,,0,0,3,,,,,2,,,,75,97
175964,note_on,,,,,0,0,3,,,,,2,,,,72,99
175964,note_on,,,,,48,0,3,,,,,2,,,,75,0
175972,note_on,,,,,0,0,4,,,,,3,,,,56,84
175972,note_on,,,,,96,0,4,,,,,3,,,,55,0
176012,note_on,,,,,0,0,3,,,,,2,,,,75,101
176012,note_on,,,,,48,0,3,,,,,2,,,,72,0
176060,note_on,,,,,0,0,3,,,,,2,,,,73,103
176060,note_on,,,,,48,0,3,,,,,2,,,,75,0
176068,note_on,,,,,0,0,4,,,,,3,,,,58,87
176068,note_on,,,,,96,0,4,,,,,3,,,,56,0
176108,note_on,,,,,48,0,3,,,,,2,,,,73,0
176108,note_on,,,,,0,0,3,,,,,2,,,,75,105
176156,note_on,,,,,0,0,3,,,,,2,,,,70,107
176156,note_on,,,,,48,0,3,,,,,2,,,,75,0
176164,note_on,,,,,96,0,4,,,,,3,,,,58,0
176164,note_on,,,,,0,0,4,,,,,3,,,,55,90
176204,note_on,,,,,0,0,3,,,,,2,,,,75,109
176204,note_on,,,,,48,0,3,,,,,2,,,,70,0
176252,note_on,,,,,0,0,3,,,,,2,,,,72,111
176252,note_on,,,,,48,0,3,,,,,2,,,,75,0
176260,note_on,,,,,0,0,4,,,,,3,,,,56,93
176260,note_on,,,,,96,0,4,,,,,3,,,,55,0
176300,note_on,,,,,48,0,3,,,,,2,,,,72,0
176300,note_on,,,,,0,0,3,,,,,2,,,,80,113
176348,note_on,,,,,0,0,3,,,,,2,,,,74,115
176348,note_on,,,,,48,0,3,,,,,2,,,,80,0
176356,note_on,,,,,0,0,4,,,,,3,,,,58,96
176356,note_on,,,,,96,0,4,,,,,3,,,,56,0
176396,note_on,,,,,0,0,3,,,,,2,,,,80,117
176396,note_on,,,,,48,0,3,,,,,2,,,,74,0
176444,note_on,,,,,0,0,3,,,,,2,,,,75,119
176444,note_on,,,,,48,0,3,,,,,2,,,,80,0
176452,note_on,,,,,96,0,4,,,,,3,,,,58,0
176452,note_on,,,,,0,0,4,,,,,3,,,,60,100
176492,note_on,,,,,0,0,3,,,,,2,,,,80,121
176492,note_on,,,,,48,0,3,,,,,2,,,,75,0
176540,note_on,,,,,0,0,3,,,,,2,,,,74,123
176540,note_on,,,,,48,0,3,,,,,2,,,,80,0
176548,note_on,,,,,0,0,4,,,,,3,,,,58,104
176548,note_on,,,,,96,0,4,,,,,3,,,,60,0
176588,note_on,,,,,48,0,3,,,,,2,,,,74,0
176588,note_on,,,,,0,0,3,,,,,2,,,,80,125
176636,note_on,,,,,48,0,3,,,,,2,,,,80,0
176636,note_on,,,,,0,0,3,,,,,2,,,,75,127
176644,note_on,,,,,96,0,4,,,,,3,,,,58,0
176644,note_on,,,,,0,0,4,,,,,3,,,,60,108
176684,note_on,,,,,48,0,3,,,,,2,,,,75,0
176684,note_on,,,,,0,0,3,,,,,2,,,,80,127
176732,note_on,,,,,0,0,3,,,,,2,,,,72,127
176732,note_on,,,,,48,0,3,,,,,2,,,,80,0
176740,note_on,,,,,96,0,4,,,,,3,,,,60,0
176740,note_on,,,,,0,0,4,,,,,3,,,,56,108
176780,note_on,,,,,48,0,3,,,,,2,,,,72,0
176780,note_on,,,,,0,0,3,,,,,2,,,,80,127
176828,note_on,,,,,48,0,3,,,,,2,,,,80,0
176828,note_on,,,,,0,0,3,,,,,2,,,,74,127
176836,note_on,,,,,96,0,4,,,,,3,,,,56,0
176836,note_on,,,,,0,0,4,,,,,3,,,,58,108
176876,note_on,,,,,48,0,3,,,,,2,,,,74,0
176876,note_on,,,,,0,0,3,,,,,2,,,,77,125
176924,note_on,,,,,0,0,3,,,,,2,,,,80,123
176924,note_on,,,,,48,0,3,,,,,2,,,,77,0
176972,note_on,,,,,48,0,3,,,,,2,,,,80,0
176972,note_on,,,,,0,0,3,,,,,2,,,,77,121
177020,note_on,,,,,48,0,3,,,,,2,,,,77,0
177020,note_on,,,,,0,0,3,,,,,2,,,,74,119
177068,note_on,,,,,48,0,3,,,,,2,,,,74,0
177068,note_on,,,,,0,0,3,,,,,2,,,,72,117
177116,note_on,,,,,48,0,3,,,,,2,,,,72,0
177116,note_on,,,,,0,0,3,,,,,2,,,,70,115
177124,note_on,,,,,0,0,4,,,,,3,,,,50,100
177124,note_on,,,,,288,0,4,,,,,3,,,,58,0
177164,note_on,,,,,48,0,3,,,,,2,,,,70,0
177164,note_on,,,,,0,0,3,,,,,2,,,,68,113
177212,note_on,,,,,48,0,3,,,,,2,,,,68,0
177212,note_on,,,,,0,0,3,,,,,2,,,,67,111
177220,note_on,,,,,0,0,4,,,,,3,,,,51,98
177220,note_on,,,,,96,0,4,,,,,3,,,,50,0
177260,note_on,,,,,0,0,3,,,,,2,,,,70,109
177260,note_on,,,,,48,0,3,,,,,2,,,,67,0
177308,note_on,,,,,0,0,3,,,,,2,,,,75,107
177308,note_on,,,,,48,0,3,,,,,2,,,,70,0
177356,note_on,,,,,0,0,3,,,,,2,,,,70,105
177356,note_on,,,,,48,0,3,,,,,2,,,,75,0
177404,note_on,,,,,48,0,3,,,,,2,,,,70,0
177404,note_on,,,,,0,0,3,,,,,2,,,,73,103
177412,note_on,,,,,192,0,4,,,,,3,,,,51,0
177412,note_on,,,,,0,0,4,,,,,3,,,,51,93
177412,note_on,,,,,0,0,4,,,,,3,,,,44,93
177428,note_on,,,,,24,0,3,,,,,2,,,,73,0
177428,note_on,,,,,0,0,3,,,,,2,,,,72,102
177500,note_on,,,,,72,0,3,,,,,2,,,,72,0
177500,note_on,,,,,0,0,3,,,,,2,,,,70,99
177548,note_on,,,,,48,0,3,,,,,2,,,,70,0
177548,note_on,,,,,0,0,3,,,,,2,,,,68,97
177556,note_on,,,,,0,0,4,,,,,3,,,,53,89
177556,note_on,,,,,144,0,4,,,,,3,,,,51,0
177596,note_on,,,,,48,0,3,,,,,2,,,,68,0
177596,note_on,,,,,0,0,3,,,,,2,,,,67,95
177604,note_on,,,,,0,0,4,,,,,3,,,,46,88
177604,note_on,,,,,0,0,4,,,,,3,,,,51,88
177604,note_on,,,,,48,0,4,,,,,3,,,,53,0
177604,note_on,,,,,0,0,4,,,,,3,,,,44,0
177788,note_on,,,,,192,0,3,,,,,2,,,,67,0
177788,note_on,,,,,0,0,3,,,,,2,,,,65,87
177796,note_on,,,,,192,0,4,,,,,3,,,,51,0
177796,note_on,,,,,0,0,4,,,,,3,,,,50,82
177820,note_on,,,,,32,0,3,,,,,2,,,,65,0
177820,note_on,,,,,0,0,3,,,,,2,,,,67,86
177852,note_on,,,,,32,0,3,,,,,2,,,,67,0
177852,note_on,,,,,0,0,3,,,,,2,,,,65,85
177884,note_on,,,,,32,0,3,,,,,2,,,,65,0
177884,note_on,,,,,0,0,3,,,,,2,,,,63,84
177932,note_on,,,,,48,0,3,,,,,2,,,,63,0
177932,note_on,,,,,0,0,3,,,,,2,,,,65,81
177980,note_on,,,,,48,0,3,,,,,2,,,,65,0
177984,set_tempo,,,,,2880,1,0,,413793,,,,,,,,
177988,note_on,,,,,192,0,4,,,,,3,,,,50,0
177988,note_on,,,,,0,0,4,,,,,3,,,,46,0
177988,note_on,,,,,0,0,4,,,,,3,,,,55,75
177988,note_on,,,,,0,0,4,,,,,3,,,,51,75
178028,note_on,,,,,48,0,3,,,,,2,,,,82,75
178076,note_on,,,,,48,0,3,,,,,2,,,,82,0
178076,note_on,,,,,0,0,3,,,,,2,,,,84,75
178124,note_on,,,,,48,0,3,,,,,2,,,,84,0
178124,note_on,,,,,0,0,3,,,,,2,,,,82,75
178172,note_on,,,,,48,0,3,,,,,2,,,,82,0
178172,note_on,,,,,0,0,3,,,,,2,,,,87,75
178180,note_on,,,,,192,0,4,,,,,3,,,,55,0
178180,note_on,,,,,0,0,4,,,,,3,,,,51,0
178220,note_on,,,,,48,0,3,,,,,2,,,,87,0
178220,note_on,,,,,0,0,3,,,,,2,,,,86,75
178268,note_on,,,,,0,0,3,,,,,2,,,,84,75
178268,note_on,,,,,48,0,3,,,,,2,,,,86,0
178316,note_on,,,,,0,0,3,,,,,2,,,,82,75
178316,note_on,,,,,48,0,3,,,,,2,,,,84,0
178364,note_on,,,,,0,0,3,,,,,2,,,,80,75
178364,note_on,,,,,48,0,3,,,,,2,,,,82,0
178412,note_on,,,,,0,0,3,,,,,2,,,,79,75
178412,note_on,,,,,48,0,3,,,,,2,,,,80,0
178460,note_on,,,,,48,0,3,,,,,2,,,,79,0
178460,note_on,,,,,0,0,3,,,,,2,,,,77,75
178508,note_on,,,,,48,0,3,,,,,2,,,,77,0
178508,note_on,,,,,0,0,3,,,,,2,,,,75,75
178556,note_on,,,,,48,0,3,,,,,2,,,,75,0
178556,note_on,,,,,0,0,3,,,,,2,,,,74,108
178557,note_on,,,,,5984,0,7,,,,,6,,,,58,30
178560,note_on,,,,,5984,0,5,,,,,4,,,,74,30
178560,set_tempo,,,,,576,1,0,,428571,,,,,,,,
178564,note_on,,,,,384,0,4,,,,,3,,,,58,92
178565,note_on,,,,,5984,0,6,,,,,5,,,,70,30
178604,note_on,,,,,48,0,3,,,,,2,,,,74,0
178604,note_on,,,,,0,0,3,,,,,2,,,,82,108
178651,note_on,,,,,94,0,7,,,,,6,,,,58,0
178652,note_on,,,,,48,0,3,,,,,2,,,,82,0
178652,note_on,,,,,0,0,3,,,,,2,,,,75,108
178653,note_on,,,,,2,0,7,,,,,6,,,,60,30
178654,note_on,,,,,94,0,5,,,,,4,,,,74,0
178656,note_on,,,,,2,0,5,,,,,4,,,,75,30
178659,note_on,,,,,94,0,6,,,,,5,,,,70,0
178660,note_on,,,,,96,0,4,,,,,3,,,,58,0
178660,note_on,,,,,0,0,4,,,,,3,,,,60,92
178661,note_on,,,,,2,0,6,,,,,5,,,,70,30
178700,note_on,,,,,48,0,3,,,,,2,,,,75,0
178700,note_on,,,,,0,0,3,,,,,2,,,,82,108
178747,note_on,,,,,94,0,7,,,,,6,,,,60,0
178748,note_on,,,,,48,0,3,,,,,2,,,,82,0
178748,note_on,,,,,0,0,3,,,,,2,,,,77,108
178749,note_on,,,,,2,0,7,,,,,6,,,,62,30
178750,note_on,,,,,94,0,5,,,,,4,,,,75,0
178752,note_on,,,,,2,0,5,,,,,4,,,,77,30
178755,note_on,,,,,94,0,6,,,,,5,,,,70,0
178756,note_on,,,,,0,0,4,,,,,3,,,,62,92
178756,note_on,,,,,96,0,4,,,,,3,,,,60,0
178757,note_on,,,,,2,0,6,,,,,5,,,,70,30
178796,note_on,,,,,0,0,3,,,,,2,,,,82,108
178796,note_on,,,,,48,0,3,,,,,2,,,,77,0
178843,note_on,,,,,94,0,7,,,,,6,,,,62,0
178844,note_on,,,,,48,0,3,,,,,2,,,,82,0
178844,note_on,,,,,0,0,3,,,,,2,,,,79,108
178845,note_on,,,,,2,0,7,,,,,6,,,,63,30
178846,note_on,,,,,94,0,5,,,,,4,,,,77,0
178848,note_on,,,,,2,0,5,,,,,4,,,,79,30
178851,note_on,,,,,94,0,6,,,,,5,,,,70,0
178852,note_on,,,,,96,0,4,,,,,3,,,,62,0
178852,note_on,,,,,0,0,4,,,,,3,,,,63,92
178853,note_on,,,,,2,0,6,,,,,5,,,,70,30
178892,note_on,,,,,0,0,3,,,,,2,,,,82,108
178892,note_on,,,,,48,0,3,,,,,2,,,,79,0
178939,note_on,,,,,94,0,7,,,,,6,,,,63,0
178940,note_on,,,,,48,0,3,,,,,2,,,,82,0
178940,note_on,,,,,0,0,3,,,,,2,,,,80,108
178941,note_on,,,,,2,0,7,,,,,6,,,,65,30
178942,note_on,,,,,94,0,5,,,,,4,,,,79,0
178944,note_on,,,,,2,0,5,,,,,4,,,,80,30
178947,note_on,,,,,94,0,6,,,,,5,,,,70,0
178948,note_on,,,,,0,0,4,,,,,3,,,,65,92
178948,note_on,,,,,96,0,4,,,,,3,,,,63,0
178949,note_on,,,,,2,0,6,,,,,5,,,,70,30
178988,note_on,,,,,0,0,3,,,,,2,,,,82,108
178988,note_on,,,,,48,0,3,,,,,2,,,,80,0
179035,note_on,,,,,94,0,7,,,,,6,,,,65,0
179036,note_on,,,,,48,0,3,,,,,2,,,,82,0
179036,note_on,,,,,0,0,3,,,,,2,,,,77,108
179037,note_on,,,,,2,0,7,,,,,6,,,,62,30
179038,note_on,,,,,94,0,5,,,,,4,,,,80,0
179040,note_on,,,,,2,0,5,,,,,4,,,,77,30
179043,note_on,,,,,94,0,6,,,,,5,,,,70,0
179044,note_on,,,,,0,0,4,,,,,3,,,,62,92
179044,note_on,,,,,96,0,4,,,,,3,,,,65,0
179045,note_on,,,,,2,0,6,,,,,5,,,,70,30
179084,note_on,,,,,0,0,3,,,,,2,,,,82,108
179084,note_on,,,,,48,0,3,,,,,2,,,,77,0
179131,note_on,,,,,94,0,7,,,,,6,,,,62,0
179132,note_on,,,,,0,0,3,,,,,2,,,,79,75
179132,note_on,,,,,48,0,3,,,,,2,,,,82,0
179133,note_on,,,,,2,0,7,,,,,6,,,,63,30
179134,note_on,,,,,94,0,5,,,,,4,,,,77,0
179136,note_on,,,,,2,0,5,,,,,4,,,,79,30
179136,set_tempo,,,,,576,1,0,,413793,,,,,,,,
179139,note_on,,,,,94,0,6,,,,,5,,,,70,0
179140,note_on,,,,,96,0,4,,,,,3,,,,62,0
179140,note_on,,,,,0,0,4,,,,,3,,,,63,92
179141,note_on,,,,,2,0,6,,,,,5,,,,70,30
179180,note_on,,,,,0,0,3,,,,,2,,,,82,75
179180,note_on,,,,,48,0,3,,,,,2,,,,79,0
179228,note_on,,,,,48,0,3,,,,,2,,,,82,0
179228,note_on,,,,,0,0,3,,,,,2,,,,84,75
179276,note_on,,,,,0,0,3,,,,,2,,,,82,75
179276,note_on,,,,,48,0,3,,,,,2,,,,84,0
179293,note_on,,,,,160,0,7,,,,,6,,,,63,0
179296,note_on,,,,,160,0,5,,,,,4,,,,79,0
179301,note_on,,,,,160,0,6,,,,,5,,,,70,0
179324,note_on,,,,,48,0,3,,,,,2,,,,82,0
179324,note_on,,,,,0,0,3,,,,,2,,,,87,75
179332,note_on,,,,,192,0,4,,,,,3,,,,63,0
179372,note_on,,,,,48,0,3,,,,,2,,,,87,0
179372,note_on,,,,,0,0,3,,,,,2,,,,86,75
179420,note_on,,,,,48,0,3,,,,,2,,,,86,0
179420,note_on,,,,,0,0,3,,,,,2,,,,84,75
179468,note_on,,,,,48,0,3,,,,,2,,,,84,0
179468,note_on,,,,,0,0,3,,,,,2,,,,82,75
179516,note_on,,,,,48,0,3,,,,,2,,,,82,0
179516,note_on,,,,,0,0,3,,,,,2,,,,80,75
179564,note_on,,,,,0,0,3,,,,,2,,,,79,75
179564,note_on,,,,,48,0,3,,,,,2,,,,80,0
179612,note_on,,,,,0,0,3,,,,,2,,,,77,75
179612,note_on,,,,,48,0,3,,,,,2,,,,79,0
179660,note_on,,,,,48,0,3,,,,,2,,,,77,0
179660,note_on,,,,,0,0,3,,,,,2,,,,75,75
179708,note_on,,,,,48,0,3,,,,,2,,,,75,0
179708,note_on,,,,,0,0,3,,,,,2,,,,74,75
179709,note_on,,,,,416,0,7,,,,,6,,,,58,30
179712,set_tempo,,,,,576,1,0,,428571,,,,,,,,
179712,note_on,,,,,416,0,5,,,,,4,,,,74,30
179716,note_on,,,,,384,0,4,,,,,3,,,,58,92
179717,note_on,,,,,416,0,6,,,,,5,,,,70,30
179756,note_on,,,,,0,0,3,,,,,2,,,,82,75
179756,note_on,,,,,48,0,3,,,,,2,,,,74,0
179803,note_on,,,,,94,0,7,,,,,6,,,,58,0
179804,note_on,,,,,0,0,3,,,,,2,,,,75,75
179804,note_on,,,,,48,0,3,,,,,2,,,,82,0
179805,note_on,,,,,2,0,7,,,,,6,,,,60,30
179806,note_on,,,,,94,0,5,,,,,4,,,,74,0
179808,note_on,,,,,2,0,5,,,,,4,,,,75,30
179811,note_on,,,,,94,0,6,,,,,5,,,,70,0
179812,note_on,,,,,96,0,4,,,,,3,,,,58,0
179812,note_on,,,,,0,0,4,,,,,3,,,,60,92
179813,note_on,,,,,2,0,6,,,,,5,,,,70,30
179852,note_on,,,,,0,0,3,,,,,2,,,,82,75
179852,note_on,,,,,48,0,3,,,,,2,,,,75,0
179899,note_on,,,,,94,0,7,,,,,6,,,,60,0
179900,note_on,,,,,48,0,3,,,,,2,,,,82,0
179900,note_on,,,,,0,0,3,,,,,2,,,,77,75
179901,note_on,,,,,2,0,7,,,,,6,,,,62,30
179902,note_on,,,,,94,0,5,,,,,4,,,,75,0
179904,note_on,,,,,2,0,5,,,,,4,,,,77,30
179907,note_on,,,,,94,0,6,,,,,5,,,,70,0
179908,note_on,,,,,96,0,4,,,,,3,,,,60,0
179908,note_on,,,,,0,0,4,,,,,3,,,,62,92
179909,note_on,,,,,2,0,6,,,,,5,,,,70,30
179948,note_on,,,,,0,0,3,,,,,2,,,,82,76
179948,note_on,,,,,48,0,3,,,,,2,,,,77,0
179995,note_on,,,,,94,0,7,,,,,6,,,,62,0
179996,note_on,,,,,48,0,3,,,,,2,,,,82,0
179996,note_on,,,,,0,0,3,,,,,2,,,,79,77
179997,note_on,,,,,2,0,7,,,,,6,,,,63,30
179998,note_on,,,,,94,0,5,,,,,4,,,,77,0
180000,note_on,,,,,2,0,5,,,,,4,,,,79,30
180003,note_on,,,,,94,0,6,,,,,5,,,,70,0
180004,note_on,,,,,96,0,4,,,,,3,,,,62,0
180004,note_on,,,,,0,0,4,,,,,3,,,,63,92
180005,note_on,,,,,2,0,6,,,,,5,,,,70,30
180044,note_on,,,,,0,0,3,,,,,2,,,,82,77
180044,note_on,,,,,48,0,3,,,,,2,,,,79,0
180091,note_on,,,,,94,0,7,,,,,6,,,,63,0
180092,note_on,,,,,48,0,3,,,,,2,,,,82,0
180092,note_on,,,,,0,0,3,,,,,2,,,,80,78
180093,note_on,,,,,2,0,7,,,,,6,,,,65,30
180094,note_on,,,,,94,0,5,,,,,4,,,,79,0
180096,note_on,,,,,2,0,5,,,,,4,,,,80,30
180099,note_on,,,,,94,0,6,,,,,5,,,,70,0
180100,note_on,,,,,0,0,4,,,,,3,,,,65,92
180100,note_on,,,,,96,0,4,,,,,3,,,,63,0
180101,note_on,,,,,2,0,6,,,,,5,,,,70,30
180140,note_on,,,,,0,0,3,,,,,2,,,,82,79
180140,note_on,,,,,48,0,3,,,,,2,,,,80,0
180187,note_on,,,,,94,0,7,,,,,6,,,,65,0
180188,note_on,,,,,0,0,3,,,,,2,,,,77,80
180188,note_on,,,,,48,0,3,,,,,2,,,,82,0
180189,note_on,,,,,2,0,7,,,,,6,,,,62,30
180190,note_on,,,,,94,0,5,,,,,4,,,,80,0
180192,note_on,,,,,2,0,5,,,,,4,,,,77,30
180195,note_on,,,,,94,0,6,,,,,5,,,,70,0
180196,note_on,,,,,0,0,4,,,,,3,,,,62,92
180196,note_on,,,,,96,0,4,,,,,3,,,,65,0
180197,note_on,,,,,2,0,6,,,,,5,,,,70,30
180236,note_on,,,,,48,0,3,,,,,2,,,,77,0
180236,note_on,,,,,0,0,3,,,,,2,,,,82,81
180283,note_on,,,,,94,0,7,,,,,6,,,,62,0
180284,note_on,,,,,48,0,3,,,,,2,,,,82,0
180284,note_on,,,,,0,0,3,,,,,2,,,,79,82
180285,note_on,,,,,2,0,7,,,,,6,,,,63,30
180286,note_on,,,,,94,0,5,,,,,4,,,,77,0
180288,note_on,,,,,2,0,5,,,,,4,,,,79,30
180288,set_tempo,,,,,576,1,0,,434783,,,,,,,,
180291,note_on,,,,,94,0,6,,,,,5,,,,70,0
180292,note_on,,,,,0,0,4,,,,,3,,,,63,92
180292,note_on,,,,,96,0,4,,,,,3,,,,62,0
180293,note_on,,,,,2,0,6,,,,,5,,,,75,30
180332,note_on,,,,,0,0,3,,,,,2,,,,87,83
180332,note_on,,,,,48,0,3,,,,,2,,,,79,0
180379,note_on,,,,,94,0,7,,,,,6,,,,63,0
180380,note_on,,,,,0,0,3,,,,,2,,,,80,84
180380,note_on,,,,,48,0,3,,,,,2,,,,87,0
180381,note_on,,,,,2,0,7,,,,,6,,,,65,30
180382,note_on,,,,,94,0,5,,,,,4,,,,79,0
180384,note_on,,,,,2,0,5,,,,,4,,,,80,30
180387,note_on,,,,,94,0,6,,,,,5,,,,75,0
180388,note_on,,,,,96,0,4,,,,,3,,,,63,0
180388,note_on,,,,,0,0,4,,,,,3,,,,65,92
180389,note_on,,,,,2,0,6,,,,,5,,,,75,30
180428,note_on,,,,,48,0,3,,,,,2,,,,80,0
180428,note_on,,,,,0,0,3,,,,,2,,,,87,85
180475,note_on,,,,,94,0,7,,,,,6,,,,65,0
180476,note_on,,,,,48,0,3,,,,,2,,,,87,0
180476,note_on,,,,,0,0,3,,,,,2,,,,82,86
180477,note_on,,,,,2,0,7,,,,,6,,,,67,30
180478,note_on,,,,,94,0,5,,,,,4,,,,80,0
180480,note_on,,,,,2,0,5,,,,,4,,,,82,30
180483,note_on,,,,,94,0,6,,,,,5,,,,75,0
180484,note_on,,,,,96,0,4,,,,,3,,,,65,0
180484,note_on,,,,,0,0,4,,,,,3,,,,67,92
180485,note_on,,,,,2,0,6,,,,,5,,,,75,30
180524,note_on,,,,,48,0,3,,,,,2,,,,82,0
180524,note_on,,,,,0,0,3,,,,,2,,,,87,87
180571,note_on,,,,,94,0,7,,,,,6,,,,67,0
180572,note_on,,,,,0,0,3,,,,,2,,,,84,88
180572,note_on,,,,,48,0,3,,,,,2,,,,87,0
180573,note_on,,,,,2,0,7,,,,,6,,,,68,30
180574,note_on,,,,,94,0,5,,,,,4,,,,82,0
180576,note_on,,,,,2,0,5,,,,,4,,,,84,30
180579,note_on,,,,,94,0,6,,,,,5,,,,75,0
180580,note_on,,,,,96,0,4,,,,,3,,,,67,0
180580,note_on,,,,,0,0,4,,,,,3,,,,68,92
180581,note_on,,,,,2,0,6,,,,,5,,,,75,30
180620,note_on,,,,,48,0,3,,,,,2,,,,84,0
180620,note_on,,,,,0,0,3,,,,,2,,,,87,89
180667,note_on,,,,,94,0,7,,,,,6,,,,68,0
180668,note_on,,,,,48,0,3,,,,,2,,,,87,0
180668,note_on,,,,,0,0,3,,,,,2,,,,85,90
180669,note_on,,,,,2,0,7,,,,,6,,,,70,30
180670,note_on,,,,,94,0,5,,,,,4,,,,84,0
180672,note_on,,,,,2,0,5,,,,,4,,,,85,30
180675,note_on,,,,,94,0,6,,,,,5,,,,75,0
180676,note_on,,,,,0,0,4,,,,,3,,,,70,92
180676,note_on,,,,,96,0,4,,,,,3,,,,68,0
180677,note_on,,,,,2,0,6,,,,,5,,,,75,30
180716,note_on,,,,,48,0,3,,,,,2,,,,85,0
180716,note_on,,,,,0,0,3,,,,,2,,,,87,91
180763,note_on,,,,,94,0,7,,,,,6,,,,70,0
180764,note_on,,,,,48,0,3,,,,,2,,,,87,0
180764,note_on,,,,,0,0,3,,,,,2,,,,83,92
180765,note_on,,,,,2,0,7,,,,,6,,,,67,30
180766,note_on,,,,,94,0,5,,,,,4,,,,85,0
180768,note_on,,,,,2,0,5,,,,,4,,,,83,30
180771,note_on,,,,,94,0,6,,,,,5,,,,75,0
180772,note_on,,,,,0,0,4,,,,,3,,,,67,92
180772,note_on,,,,,96,0,4,,,,,3,,,,70,0
180773,note_on,,,,,2,0,6,,,,,5,,,,75,30
180812,note_on,,,,,0,0,3,,,,,2,,,,87,93
180812,note_on,,,,,48,0,3,,,,,2,,,,83,0
180859,note_on,,,,,94,0,7,,,,,6,,,,67,0
180860,note_on,,,,,48,0,3,,,,,2,,,,87,0
180860,note_on,,,,,0,0,3,,,,,2,,,,84,94
180861,note_on,,,,,2,0,7,,,,,6,,,,68,30
180862,note_on,,,,,94,0,5,,,,,4,,,,83,0
180864,set_tempo,,,,,576,1,0,,441176,,,,,,,,
180864,note_on,,,,,2,0,5,,,,,4,,,,84,30
180867,note_on,,,,,94,0,6,,,,,5,,,,75,0
180868,note_on,,,,,0,0,4,,,,,3,,,,68,92
180868,note_on,,,,,96,0,4,,,,,3,,,,67,0
180869,note_on,,,,,2,0,6,,,,,5,,,,75,30
180908,note_on,,,,,0,0,3,,,,,2,,,,87,95
180908,note_on,,,,,48,0,3,,,,,2,,,,84,0
180955,note_on,,,,,94,0,7,,,,,6,,,,68,0
180956,note_on,,,,,0,0,3,,,,,2,,,,83,96
180956,note_on,,,,,48,0,3,,,,,2,,,,87,0
180957,note_on,,,,,2,0,7,,,,,6,,,,67,30
180958,note_on,,,,,94,0,5,,,,,4,,,,84,0
180960,note_on,,,,,2,0,5,,,,,4,,,,83,30
180963,note_on,,,,,94,0,6,,,,,5,,,,75,0
180964,note_on,,,,,0,0,4,,,,,3,,,,67,92
180964,note_on,,,,,96,0,4,,,,,3,,,,68,0
180965,note_on,,,,,2,0,6,,,,,5,,,,75,30
181004,note_on,,,,,0,0,3,,,,,2,,,,87,97
181004,note_on,,,,,48,0,3,,,,,2,,,,83,0
181051,note_on,,,,,94,0,7,,,,,6,,,,67,0
181052,note_on,,,,,48,0,3,,,,,2,,,,87,0
181052,note_on,,,,,0,0,3,,,,,2,,,,84,98
181053,note_on,,,,,2,0,7,,,,,6,,,,68,30
181054,note_on,,,,,94,0,5,,,,,4,,,,83,0
181056,note_on,,,,,2,0,5,,,,,4,,,,84,30
181059,note_on,,,,,94,0,6,,,,,5,,,,75,0
181060,note_on,,,,,96,0,4,,,,,3,,,,67,0
181060,note_on,,,,,0,0,4,,,,,3,,,,68,92
181061,note_on,,,,,2,0,6,,,,,5,,,,75,30
181100,note_on,,,,,48,0,3,,,,,2,,,,84,0
181100,note_on,,,,,0,0,3,,,,,2,,,,87,99
181147,note_on,,,,,94,0,7,,,,,6,,,,68,0
181148,note_on,,,,,48,0,3,,,,,2,,,,87,0
181148,note_on,,,,,0,0,3,,,,,2,,,,79,100
181149,note_on,,,,,2,0,7,,,,,6,,,,64,30
181150,note_on,,,,,94,0,5,,,,,4,,,,84,0
181152,note_on,,,,,2,0,5,,,,,4,,,,79,30
181155,note_on,,,,,94,0,6,,,,,5,,,,75,0
181156,note_on,,,,,0,0,4,,,,,3,,,,64,92
181156,note_on,,,,,96,0,4,,,,,3,,,,68,0
181157,note_on,,,,,2,0,6,,,,,5,,,,72,30
181196,note_on,,,,,48,0,3,,,,,2,,,,79,0
181196,note_on,,,,,0,0,3,,,,,2,,,,84,101
181243,note_on,,,,,94,0,7,,,,,6,,,,64,0
181244,note_on,,,,,48,0,3,,,,,2,,,,84,0
181244,note_on,,,,,0,0,3,,,,,2,,,,80,102
181245,note_on,,,,,2,0,7,,,,,6,,,,65,30
181246,note_on,,,,,94,0,5,,,,,4,,,,79,0
181248,note_on,,,,,2,0,5,,,,,4,,,,80,30
181251,note_on,,,,,94,0,6,,,,,5,,,,72,0
181252,note_on,,,,,96,0,4,,,,,3,,,,64,0
181252,note_on,,,,,0,0,4,,,,,3,,,,65,92
181253,note_on,,,,,2,0,6,,,,,5,,,,72,30
181292,note_on,,,,,48,0,3,,,,,2,,,,80,0
181292,note_on,,,,,0,0,3,,,,,2,,,,84,103
181339,note_on,,,,,94,0,7,,,,,6,,,,65,0
181340,note_on,,,,,48,0,3,,,,,2,,,,84,0
181340,note_on,,,,,0,0,3,,,,,2,,,,79,104
181341,note_on,,,,,2,0,7,,,,,6,,,,64,30
181342,note_on,,,,,94,0,5,,,,,4,,,,80,0
181344,note_on,,,,,2,0,5,,,,,4,,,,79,30
181347,note_on,,,,,94,0,6,,,,,5,,,,72,0
181348,note_on,,,,,96,0,4,,,,,3,,,,65,0
181348,note_on,,,,,0,0,4,,,,,3,,,,64,92
181349,note_on,,,,,2,0,6,,,,,5,,,,72,30
181388,note_on,,,,,0,0,3,,,,,2,,,,84,105
181388,note_on,,,,,48,0,3,,,,,2,,,,79,0
181435,note_on,,,,,94,0,7,,,,,6,,,,64,0
181436,note_on,,,,,0,0,3,,,,,2,,,,80,106
181436,note_on,,,,,48,0,3,,,,,2,,,,84,0
181437,note_on,,,,,2,0,7,,,,,6,,,,65,30
181438,note_on,,,,,94,0,5,,,,,4,,,,79,0
181440,set_tempo,,,,,576,1,0,,447761,,,,,,,,
181440,note_on,,,,,2,0,5,,,,,4,,,,80,30
181443,note_on,,,,,94,0,6,,,,,5,,,,72,0
181444,note_on,,,,,0,0,4,,,,,3,,,,65,92
181444,note_on,,,,,96,0,4,,,,,3,,,,64,0
181445,note_on,,,,,2,0,6,,,,,5,,,,72,30
181484,note_on,,,,,48,0,3,,,,,2,,,,80,0
181484,note_on,,,,,0,0,3,,,,,2,,,,84,107
181531,note_on,,,,,94,0,7,,,,,6,,,,65,0
181532,note_on,,,,,48,0,3,,,,,2,,,,84,0
181532,note_on,,,,,0,0,3,,,,,2,,,,74,108
181533,note_on,,,,,2,0,7,,,,,6,,,,59,30
181534,note_on,,,,,94,0,5,,,,,4,,,,80,0
181536,note_on,,,,,2,0,5,,,,,4,,,,79,30
181539,note_on,,,,,94,0,6,,,,,5,,,,72,0
181540,note_on,,,,,0,0,4,,,,,3,,,,59,92
181540,note_on,,,,,96,0,4,,,,,3,,,,65,0
181541,note_on,,,,,2,0,6,,,,,5,,,,74,30
181580,note_on,,,,,0,0,3,,,,,2,,,,79,109
181580,note_on,,,,,48,0,3,,,,,2,,,,74,0
181627,note_on,,,,,94,0,7,,,,,6,,,,59,0
181628,note_on,,,,,0,0,3,,,,,2,,,,75,110
181628,note_on,,,,,48,0,3,,,,,2,,,,79,0
181629,note_on,,,,,2,0,7,,,,,6,,,,60,30
181630,note_on,,,,,94,0,5,,,,,4,,,,79,0
181632,note_on,,,,,2,0,5,,,,,4,,,,79,30
181635,note_on,,,,,94,0,6,,,,,5,,,,74,0
181636,note_on,,,,,96,0,4,,,,,3,,,,59,0
181636,note_on,,,,,0,0,4,,,,,3,,,,60,92
181637,note_on,,,,,2,0,6,,,,,5,,,,75,30
181676,note_on,,,,,0,0,3,,,,,2,,,,79,111
181676,note_on,,,,,48,0,3,,,,,2,,,,75,0
181723,note_on,,,,,94,0,7,,,,,6,,,,60,0
181724,note_on,,,,,48,0,3,,,,,2,,,,79,0
181724,note_on,,,,,0,0,3,,,,,2,,,,74,112
181725,note_on,,,,,2,0,7,,,,,6,,,,59,30
181726,note_on,,,,,94,0,5,,,,,4,,,,79,0
181728,note_on,,,,,2,0,5,,,,,4,,,,79,30
181731,note_on,,,,,94,0,6,,,,,5,,,,75,0
181732,note_on,,,,,0,0,4,,,,,3,,,,59,92
181732,note_on,,,,,96,0,4,,,,,3,,,,60,0
181733,note_on,,,,,2,0,6,,,,,5,,,,74,30
181772,note_on,,,,,48,0,3,,,,,2,,,,74,0
181772,note_on,,,,,0,0,3,,,,,2,,,,79,113
181819,note_on,,,,,94,0,7,,,,,6,,,,59,0
181820,note_on,,,,,48,0,3,,,,,2,,,,79,0
181820,note_on,,,,,0,0,3,,,,,2,,,,75,114
181821,note_on,,,,,2,0,7,,,,,6,,,,60,30
181822,note_on,,,,,94,0,5,,,,,4,,,,79,0
181824,note_on,,,,,2,0,5,,,,,4,,,,79,30
181827,note_on,,,,,94,0,6,,,,,5,,,,74,0
181828,note_on,,,,,96,0,4,,,,,3,,,,59,0
181828,note_on,,,,,0,0,4,,,,,3,,,,60,92
181829,note_on,,,,,2,0,6,,,,,5,,,,75,30
181868,note_on,,,,,48,0,3,,,,,2,,,,75,0
181868,note_on,,,,,0,0,3,,,,,2,,,,79,115
181915,note_on,,,,,94,0,7,,,,,6,,,,60,0
181916,note_on,,,,,0,0,3,,,,,2,,,,73,116
181916,note_on,,,,,48,0,3,,,,,2,,,,79,0
181917,note_on,,,,,2,0,7,,,,,6,,,,58,30
181918,note_on,,,,,94,0,5,,,,,4,,,,79,0
181920,note_on,,,,,2,0,5,,,,,4,,,,76,30
181923,note_on,,,,,94,0,6,,,,,5,,,,75,0
181924,note_on,,,,,96,0,4,,,,,3,,,,60,0
181924,note_on,,,,,0,0,4,,,,,3,,,,58,92
181925,note_on,,,,,2,0,6,,,,,5,,,,73,30
181964,note_on,,,,,48,0,3,,,,,2,,,,73,0
181964,note_on,,,,,0,0,3,,,,,2,,,,76,117
182011,note_on,,,,,94,0,7,,,,,6,,,,58,0
182012,note_on,,,,,48,0,3,,,,,2,,,,76,0
182012,note_on,,,,,0,0,3,,,,,2,,,,77,118
182013,note_on,,,,,2,0,7,,,,,6,,,,56,30
182014,note_on,,,,,94,0,5,,,,,4,,,,76,0
182016,set_tempo,,,,,576,1,0,,454545,,,,,,,,
182016,note_on,,,,,2,0,5,,,,,4,,,,77,30
182019,note_on,,,,,94,0,6,,,,,5,,,,73,0
182020,note_on,,,,,96,0,4,,,,,3,,,,58,0
182020,note_on,,,,,0,0,4,,,,,3,,,,56,92
182020,note_on,,,,,0,0,4,,,,,3,,,,60,92
182021,note_on,,,,,2,0,6,,,,,5,,,,72,30
182060,note_on,,,,,48,0,3,,,,,2,,,,77,0
182060,note_on,,,,,0,0,3,,,,,2,,,,72,119
182108,note_on,,,,,0,0,3,,,,,2,,,,80,120
182108,note_on,,,,,48,0,3,,,,,2,,,,72,0
182156,note_on,,,,,48,0,3,,,,,2,,,,80,0
182156,note_on,,,,,0,0,3,,,,,2,,,,79,121
182204,note_on,,,,,48,0,3,,,,,2,,,,79,0
182204,note_on,,,,,0,0,3,,,,,2,,,,80,122
182208,set_tempo,,,,,192,1,0,,461538,,,,,,,,
182252,note_on,,,,,48,0,3,,,,,2,,,,80,0
182252,note_on,,,,,0,0,3,,,,,2,,,,77,123
182300,note_on,,,,,48,0,3,,,,,2,,,,77,0
182300,note_on,,,,,0,0,3,,,,,2,,,,84,124
182348,note_on,,,,,0,0,3,,,,,2,,,,82,125
182348,note_on,,,,,48,0,3,,,,,2,,,,84,0
182396,note_on,,,,,0,0,3,,,,,2,,,,84,127
182396,note_on,,,,,48,0,3,,,,,2,,,,82,0
182400,set_tempo,,,,,192,1,0,,468750,,,,,,,,
182444,note_on,,,,,0,0,3,,,,,2,,,,80,127
182444,note_on,,,,,48,0,3,,,,,2,,,,84,0
182492,note_on,,,,,0,0,3,,,,,2,,,,87,127
182492,note_on,,,,,48,0,3,,,,,2,,,,80,0
182540,note_on,,,,,48,0,3,,,,,2,,,,87,0
182540,note_on,,,,,0,0,3,,,,,2,,,,86,127
182541,note_on,,,,,528,0,7,,,,,6,,,,56,0
182544,note_on,,,,,528,0,5,,,,,4,,,,77,0
182549,note_on,,,,,528,0,6,,,,,5,,,,72,0
182588,note_on,,,,,0,0,3,,,,,2,,,,87,127
182588,note_on,,,,,48,0,3,,,,,2,,,,86,0
182589,note_on,,,,,48,0,7,,,,,6,,,,60,30
182591,note_on,,,,,10016,0,8,,,,,7,,,,56,60
182592,set_tempo,,,,,192,1,0,,454545,,,,,,,,
182592,note_on,,,,,48,0,5,,,,,4,,,,65,30
182596,note_on,,,,,576,0,4,,,,,3,,,,60,0
182596,note_on,,,,,0,0,4,,,,,3,,,,60,92
182596,note_on,,,,,0,0,4,,,,,3,,,,65,92
182596,note_on,,,,,0,0,4,,,,,3,,,,63,92
182596,note_on,,,,,0,0,4,,,,,3,,,,56,92
182596,note_on,,,,,0,0,4,,,,,3,,,,56,0
182597,note_on,,,,,48,0,6,,,,,5,,,,63,30
182598,note_on,,,,,10016,0,9,,,,,8,,,,44,60
182636,note_on,,,,,0,0,3,,,,,2,,,,86,126
182636,note_on,,,,,48,0,3,,,,,2,,,,87,0
182684,note_on,,,,,48,0,3,,,,,2,,,,86,0
182684,note_on,,,,,0,0,3,,,,,2,,,,84,125
182732,note_on,,,,,48,0,3,,,,,2,,,,84,0
182732,note_on,,,,,0,0,3,,,,,2,,,,83,124
182780,note_on,,,,,48,0,3,,,,,2,,,,83,0
182780,note_on,,,,,0,0,3,,,,,2,,,,84,123
182784,set_tempo,,,,,192,1,0,,441176,,,,,,,,
182828,note_on,,,,,48,0,3,,,,,2,,,,84,0
182828,note_on,,,,,0,0,3,,,,,2,,,,82,122
182876,note_on,,,,,48,0,3,,,,,2,,,,82,0
182876,note_on,,,,,0,0,3,,,,,2,,,,80,121
182924,note_on,,,,,48,0,3,,,,,2,,,,80,0
182924,note_on,,,,,0,0,3,,,,,2,,,,79,119
182972,note_on,,,,,0,0,3,,,,,2,,,,77,117
182972,note_on,,,,,48,0,3,,,,,2,,,,79,0
182976,set_tempo,,,,,192,1,0,,428571,,,,,,,,
183020,note_on,,,,,0,0,3,,,,,2,,,,75,115
183020,note_on,,,,,48,0,3,,,,,2,,,,77,0
183068,note_on,,,,,48,0,3,,,,,2,,,,75,0
183068,note_on,,,,,0,0,3,,,,,2,,,,74,113
183116,note_on,,,,,0,0,3,,,,,2,,,,72,111
183116,note_on,,,,,48,0,3,,,,,2,,,,74,0
183164,note_on,,,,,0,0,3,,,,,2,,,,70,109
183164,note_on,,,,,48,0,3,,,,,2,,,,72,0
183165,note_on,,,,,576,0,7,,,,,6,,,,60,0
183165,note_on,,,,,0,0,7,,,,,6,,,,58,30
183167,note_on,,,,,0,0,8,,,,,7,,,,58,60
183167,note_on,,,,,576,0,8,,,,,7,,,,56,0
183168,note_on,,,,,576,0,5,,,,,4,,,,65,0
183168,note_on,,,,,0,0,5,,,,,4,,,,67,30
183172,note_on,,,,,0,0,4,,,,,3,,,,60,0
183172,note_on,,,,,0,0,4,,,,,3,,,,58,92
183172,note_on,,,,,0,0,4,,,,,3,,,,63,0
183172,note_on,,,,,0,0,4,,,,,3,,,,56,0
183172,note_on,,,,,576,0,4,,,,,3,,,,65,0
183174,note_on,,,,,0,0,9,,,,,8,,,,46,60
183174,note_on,,,,,576,0,9,,,,,8,,,,44,0
183220,note_on,,,,,48,0,4,,,,,3,,,,58,0
183220,note_on,,,,,0,0,4,,,,,3,,,,67,92
183260,note_on,,,,,0,0,3,,,,,2,,,,72,105
183260,note_on,,,,,96,0,3,,,,,2,,,,70,0
183268,note_on,,,,,0,0,4,,,,,3,,,,63,92
183268,note_on,,,,,48,0,4,,,,,3,,,,67,0
183308,note_on,,,,,0,0,3,,,,,2,,,,74,103
183308,note_on,,,,,48,0,3,,,,,2,,,,72,0
183316,note_on,,,,,0,0,4,,,,,3,,,,67,92
183316,note_on,,,,,48,0,4,,,,,3,,,,63,0
183325,note_on,,,,,160,0,7,,,,,6,,,,58,0
183327,note_on,,,,,160,0,8,,,,,7,,,,58,0
183328,note_on,,,,,160,0,5,,,,,4,,,,67,0
183333,note_on,,,,,736,0,6,,,,,5,,,,63,0
183334,note_on,,,,,160,0,9,,,,,8,,,,46,0
183356,note_on,,,,,0,0,3,,,,,2,,,,75,101
183356,note_on,,,,,48,0,3,,,,,2,,,,74,0
183360,set_tempo,,,,,384,1,0,,419580,,,,,,,,
183364,note_on,,,,,48,0,4,,,,,3,,,,67,0
183364,note_on,,,,,0,0,4,,,,,3,,,,58,92
183404,note_on,,,,,0,0,3,,,,,2,,,,77,99
183404,note_on,,,,,48,0,3,,,,,2,,,,75,0
183412,note_on,,,,,48,0,4,,,,,3,,,,58,0
183412,note_on,,,,,0,0,4,,,,,3,,,,67,92
183452,note_on,,,,,48,0,3,,,,,2,,,,77,0
183452,note_on,,,,,0,0,3,,,,,2,,,,79,97
183460,note_on,,,,,48,0,4,,,,,3,,,,67,0
183460,note_on,,,,,0,0,4,,,,,3,,,,63,92
183500,note_on,,,,,48,0,3,,,,,2,,,,79,0
183500,note_on,,,,,0,0,3,,,,,2,,,,80,95
183508,note_on,,,,,0,0,4,,,,,3,,,,67,92
183508,note_on,,,,,48,0,4,,,,,3,,,,63,0
183548,note_on,,,,,48,0,3,,,,,2,,,,80,0
183548,note_on,,,,,0,0,3,,,,,2,,,,82,93
183552,set_tempo,,,,,192,1,0,,410959,,,,,,,,
183556,note_on,,,,,48,0,4,,,,,3,,,,67,0
183556,note_on,,,,,0,0,4,,,,,3,,,,58,92
183596,note_on,,,,,48,0,3,,,,,2,,,,82,0
183596,note_on,,,,,0,0,3,,,,,2,,,,84,91
183604,note_on,,,,,48,0,4,,,,,3,,,,58,0
183604,note_on,,,,,0,0,4,,,,,3,,,,67,92
183644,note_on,,,,,48,0,3,,,,,2,,,,84,0
183644,note_on,,,,,0,0,3,,,,,2,,,,86,89
183652,note_on,,,,,48,0,4,,,,,3,,,,67,0
183652,note_on,,,,,0,0,4,,,,,3,,,,63,92
183692,note_on,,,,,48,0,3,,,,,2,,,,86,0
183692,note_on,,,,,0,0,3,,,,,2,,,,87,87
183700,note_on,,,,,48,0,4,,,,,3,,,,63,0
183700,note_on,,,,,0,0,4,,,,,3,,,,67,92
183740,note_on,,,,,0,0,3,,,,,2,,,,75,85
183740,note_on,,,,,48,0,3,,,,,2,,,,87,0
183744,set_tempo,,,,,192,1,0,,400000,,,,,,,,
183748,note_on,,,,,48,0,4,,,,,3,,,,67,0
183748,note_on,,,,,0,0,4,,,,,3,,,,58,92
183764,note_on,,,,,24,0,3,,,,,2,,,,75,0
183764,note_on,,,,,0,0,3,,,,,2,,,,77,84
183788,note_on,,,,,24,0,3,,,,,2,,,,77,0
183788,note_on,,,,,0,0,3,,,,,2,,,,79,83
183796,note_on,,,,,0,0,4,,,,,3,,,,72,92
183796,note_on,,,,,48,0,4,,,,,3,,,,58,0
183812,note_on,,,,,24,0,3,,,,,2,,,,79,0
183812,note_on,,,,,0,0,3,,,,,2,,,,77,82
183836,note_on,,,,,24,0,3,,,,,2,,,,77,0
183836,note_on,,,,,0,0,3,,,,,2,,,,79,81
183844,note_on,,,,,0,0,4,,,,,3,,,,62,92
183844,note_on,,,,,48,0,4,,,,,3,,,,72,0
183860,note_on,,,,,24,0,3,,,,,2,,,,79,0
183860,note_on,,,,,0,0,3,,,,,2,,,,77,80
183884,note_on,,,,,0,0,3,,,,,2,,,,79,79
183884,note_on,,,,,24,0,3,,,,,2,,,,77,0
183892,note_on,,,,,0,0,4,,,,,3,,,,72,92
183892,note_on,,,,,48,0,4,,,,,3,,,,62,0
183908,note_on,,,,,24,0,3,,,,,2,,,,79,0
183908,note_on,,,,,0,0,3,,,,,2,,,,77,78
183932,note_on,,,,,24,0,3,,,,,2,,,,77,0
183932,note_on,,,,,0,0,3,,,,,2,,,,79,77
183940,note_on,,,,,48,0,4,,,,,3,,,,72,0
183940,note_on,,,,,0,0,4,,,,,3,,,,59,92
183956,note_on,,,,,24,0,3,,,,,2,,,,79,0
183956,note_on,,,,,0,0,3,,,,,2,,,,77,76
183980,note_on,,,,,24,0,3,,,,,2,,,,77,0
183980,note_on,,,,,0,0,3,,,,,2,,,,79,75
183988,note_on,,,,,0,0,4,,,,,3,,,,67,92
183988,note_on,,,,,48,0,4,,,,,3,,,,59,0
184004,note_on,,,,,24,0,3,,,,,2,,,,79,0
184004,note_on,,,,,0,0,3,,,,,2,,,,77,74
184028,note_on,,,,,0,0,3,,,,,2,,,,79,73
184028,note_on,,,,,24,0,3,,,,,2,,,,77,0
184036,note_on,,,,,48,0,4,,,,,3,,,,67,0
184036,note_on,,,,,0,0,4,,,,,3,,,,62,92
184052,note_on,,,,,24,0,3,,,,,2,,,,79,0
184052,note_on,,,,,0,0,3,,,,,2,,,,77,72
184076,note_on,,,,,24,0,3,,,,,2,,,,77,0
184076,note_on,,,,,0,0,3,,,,,2,,,,79,71
184084,note_on,,,,,48,0,4,,,,,3,,,,62,0
184084,note_on,,,,,0,0,4,,,,,3,,,,67,92
184100,note_on,,,,,24,0,3,,,,,2,,,,79,0
184100,note_on,,,,,0,0,3,,,,,2,,,,77,70
184124,note_on,,,,,24,0,3,,,,,2,,,,77,0
184124,note_on,,,,,0,0,3,,,,,2,,,,79,69
184132,note_on,,,,,48,0,4,,,,,3,,,,67,0
184132,note_on,,,,,0,0,4,,,,,3,,,,59,92
184148,note_on,,,,,0,0,3,,,,,2,,,,77,68
184148,note_on,,,,,24,0,3,,,,,2,,,,79,0
184172,note_on,,,,,24,0,3,,,,,2,,,,77,0
184172,note_on,,,,,0,0,3,,,,,2,,,,79,67
184180,note_on,,,,,48,0,4,,,,,3,,,,59,0
184180,note_on,,,,,0,0,4,,,,,3,,,,67,92
184196,note_on,,,,,24,0,3,,,,,2,,,,79,0
184196,note_on,,,,,0,0,3,,,,,2,,,,77,66
184220,note_on,,,,,24,0,3,,,,,2,,,,77,0
184220,note_on,,,,,0,0,3,,,,,2,,,,79,65
184228,note_on,,,,,48,0,4,,,,,3,,,,67,0
184228,note_on,,,,,0,0,4,,,,,3,,,,62,92
184244,note_on,,,,,24,0,3,,,,,2,,,,79,0
184244,note_on,,,,,0,0,3,,,,,2,,,,77,64
184268,note_on,,,,,0,0,3,,,,,2,,,,75,63
184268,note_on,,,,,24,0,3,,,,,2,,,,77,0
184276,note_on,,,,,0,0,4,,,,,3,,,,67,92
184276,note_on,,,,,48,0,4,,,,,3,,,,62,0
184292,note_on,,,,,0,0,3,,,,,2,,,,77,62
184292,note_on,,,,,24,0,3,,,,,2,,,,75,0
184316,note_on,,,,,0,0,3,,,,,2,,,,75,60
184316,note_on,,,,,24,0,3,,,,,2,,,,77,0
184320,set_tempo,,,,,576,1,0,,428571,,,,,,,,
184324,note_on,,,,,48,0,4,,,,,3,,,,67,0
184324,note_on,,,,,0,0,4,,,,,3,,,,60,92
184508,note_on,,,,,192,0,3,,,,,2,,,,75,0
184509,note_on,,,,,1184,0,7,,,,,6,,,,55,92
184510,note_on,,,,,0,0,1,,,,,0,,,,77,92
184510,note_on,,,,,47472,0,1,,,,,0,,,,74,92
184511,note_on,,,,,1184,0,8,,,,,7,,,,43,92
184512,note_on,,,,,1184,0,5,,,,,4,,,,55,92
184514,note_on,,,,,0,0,2,,,,,1,,,,67,92
184514,note_on,,,,,47472,0,2,,,,,1,,,,55,92
184516,note_on,,,,,192,0,4,,,,,3,,,,60,0
184517,note_on,,,,,1184,0,6,,,,,5,,,,55,92
184518,note_on,,,,,1184,0,9,,,,,8,,,,31,92
184674,note_on,,,,,0,0,2,,,,,1,,,,55,0
184674,note_on,,,,,160,0,2,,,,,1,,,,67,0
184706,note_on,,,,,0,0,2,,,,,1,,,,67,92
184706,note_on,,,,,32,0,2,,,,,1,,,,55,92
184797,note_on,,,,,0,0,7,,,,,6,,,,57,92
184797,note_on,,,,,288,0,7,,,,,6,,,,55,0
184799,note_on,,,,,288,0,8,,,,,7,,,,43,0
184799,note_on,,,,,0,0,8,,,,,7,,,,45,92
184800,note_on,,,,,0,0,5,,,,,4,,,,57,92
184800,note_on,,,,,288,0,5,,,,,4,,,,55,0
184805,note_on,,,,,288,0,6,,,,,5,,,,55,0
184805,note_on,,,,,0,0,6,,,,,5,,,,57,92
184806,note_on,,,,,288,0,9,,,,,8,,,,31,0
184806,note_on,,,,,0,0,9,,,,,8,,,,33,92
184845,note_on,,,,,0,0,7,,,,,6,,,,59,92
184845,note_on,,,,,48,0,7,,,,,6,,,,57,0
184846,note_on,,,,,336,0,1,,,,,0,,,,77,0
184846,note_on,,,,,0,0,1,,,,,0,,,,74,0
184847,note_on,,,,,0,0,8,,,,,7,,,,47,92
184847,note_on,,,,,48,0,8,,,,,7,,,,45,0
184848,note_on,,,,,0,0,5,,,,,4,,,,59,92
184848,note_on,,,,,142,0,2,,,,,1,,,,67,0
184848,note_on,,,,,0,0,2,,,,,1,,,,55,0
184848,note_on,,,,,48,0,5,,,,,4,,,,57,0
184850,note_on,,,,,2,0,2,,,,,1,,,,55,92
184850,note_on,,,,,0,0,2,,,,,1,,,,67,92
184853,note_on,,,,,0,0,6,,,,,5,,,,59,92
184853,note_on,,,,,48,0,6,,,,,5,,,,57,0
184854,note_on,,,,,0,0,9,,,,,8,,,,35,92
184854,note_on,,,,,48,0,9,,,,,8,,,,33,0
184891,note_on,,,,,46,0,7,,,,,6,,,,59,0
184893,note_on,,,,,46,0,8,,,,,7,,,,47,0
184893,note_on,,,,,2,0,7,,,,,6,,,,60,92
184894,note_on,,,,,46,0,5,,,,,4,,,,59,0
184894,note_on,,,,,48,0,1,,,,,0,,,,72,108
184894,note_on,,,,,0,0,1,,,,,0,,,,75,108
184895,note_on,,,,,2,0,8,,,,,7,,,,48,92
184896,note_on,,,,,0,0,2,,,,,1,,,,55,0
184896,note_on,,,,,46,0,2,,,,,1,,,,67,0
184896,note_on,,,,,2,0,5,,,,,4,,,,60,108
184898,note_on,,,,,0,0,2,,,,,1,,,,67,108
184898,note_on,,,,,2,0,2,,,,,1,,,,55,108
184899,note_on,,,,,46,0,6,,,,,5,,,,59,0
184900,note_on,,,,,46,0,9,,,,,8,,,,35,0
184901,note_on,,,,,2,0,6,,,,,5,,,,60,92
184902,note_on,,,,,2,0,9,,,,,8,,,,36,92
184939,note_on,,,,,46,0,7,,,,,6,,,,60,0
184941,note_on,,,,,2,0,7,,,,,6,,,,51,92
184947,note_on,,,,,46,0,6,,,,,5,,,,60,0
184949,note_on,,,,,2,0,6,,,,,5,,,,55,92
184987,note_on,,,,,46,0,7,,,,,6,,,,51,0
184989,note_on,,,,,94,0,8,,,,,7,,,,48,0
184989,note_on,,,,,2,0,7,,,,,6,,,,51,92
184991,note_on,,,,,2,0,8,,,,,7,,,,48,92
184995,note_on,,,,,46,0,6,,,,,5,,,,55,0
184996,note_on,,,,,94,0,9,,,,,8,,,,36,0
184997,note_on,,,,,2,0,6,,,,,5,,,,55,92
184998,note_on,,,,,2,0,9,,,,,8,,,,36,92
185035,note_on,,,,,46,0,7,,,,,6,,,,51,0
185037,note_on,,,,,2,0,7,,,,,6,,,,51,92
185043,note_on,,,,,46,0,6,,,,,5,,,,55,0
185045,note_on,,,,,2,0,6,,,,,5,,,,55,92
185083,note_on,,,,,46,0,7,,,,,6,,,,51,0
185085,note_on,,,,,94,0,8,,,,,7,,,,48,0
185085,note_on,,,,,2,0,7,,,,,6,,,,51,92
185087,note_on,,,,,2,0,8,,,,,7,,,,48,92
185091,note_on,,,,,46,0,6,,,,,5,,,,55,0
185092,note_on,,,,,94,0,9,,,,,8,,,,36,0
185093,note_on,,,,,2,0,6,,,,,5,,,,55,92
185094,note_on,,,,,2,0,9,,,,,8,,,,36,92
185131,note_on,,,,,46,0,7,,,,,6,,,,51,0
185133,note_on,,,,,2,0,7,,,,,6,,,,51,92
185139,note_on,,,,,46,0,6,,,,,5,,,,55,0
185141,note_on,,,,,2,0,6,,,,,5,,,,55,92
185152,note_on,,,,,256,0,5,,,,,4,,,,60,0
185179,note_on,,,,,46,0,7,,,,,6,,,,51,0
185181,note_on,,,,,2,0,7,,,,,6,,,,51,92
185181,note_on,,,,,94,0,8,,,,,7,,,,48,0
185183,note_on,,,,,2,0,8,,,,,7,,,,48,92
185184,note_on,,,,,32,0,5,,,,,4,,,,72,92
185187,note_on,,,,,46,0,6,,,,,5,,,,55,0
185188,note_on,,,,,94,0,9,,,,,8,,,,36,0
185189,note_on,,,,,2,0,6,,,,,5,,,,55,92
185190,note_on,,,,,2,0,9,,,,,8,,,,36,92
185227,note_on,,,,,46,0,7,,,,,6,,,,51,0
185229,note_on,,,,,2,0,7,,,,,6,,,,51,92
185230,note_on,,,,,46,0,5,,,,,4,,,,72,0
185232,note_on,,,,,2,0,5,,,,,4,,,,75,92
185235,note_on,,,,,46,0,6,,,,,5,,,,55,0
185237,note_on,,,,,2,0,6,,,,,5,,,,55,92
185275,note_on,,,,,46,0,7,,,,,6,,,,51,0
185277,note_on,,,,,94,0,8,,,,,7,,,,48,0
185277,note_on,,,,,2,0,7,,,,,6,,,,51,92
185278,note_on,,,,,46,0,5,,,,,4,,,,75,0
185279,note_on,,,,,2,0,8,,,,,7,,,,48,92
185280,note_on,,,,,2,0,5,,,,,4,,,,79,92
185283,note_on,,,,,46,0,6,,,,,5,,,,55,0
185284,note_on,,,,,94,0,9,,,,,8,,,,36,0
185285,note_on,,,,,2,0,6,,,,,5,,,,55,92
185286,note_on,,,,,2,0,9,,,,,8,,,,36,92
185323,note_on,,,,,46,0,7,,,,,6,,,,51,0
185325,note_on,,,,,2,0,7,,,,,6,,,,51,92
185328,note_on,,,,,0,0,5,,,,,4,,,,75,92
185328,note_on,,,,,48,0,5,,,,,4,,,,79,0
185331,note_on,,,,,46,0,6,,,,,5,,,,55,0
185333,note_on,,,,,2,0,6,,,,,5,,,,55,92
185371,note_on,,,,,46,0,7,,,,,6,,,,51,0
185373,note_on,,,,,94,0,8,,,,,7,,,,48,0
185373,note_on,,,,,2,0,7,,,,,6,,,,51,92
185374,note_on,,,,,46,0,5,,,,,4,,,,75,0
185375,note_on,,,,,2,0,8,,,,,7,,,,48,92
185376,note_on,,,,,2,0,5,,,,,4,,,,79,92
185379,note_on,,,,,46,0,6,,,,,5,,,,55,0
185380,note_on,,,,,94,0,9,,,,,8,,,,36,0
185381,note_on,,,,,2,0,6,,,,,5,,,,55,92
185382,note_on,,,,,2,0,9,,,,,8,,,,36,92
185408,note_on,,,,,32,0,5,,,,,4,,,,79,0
185419,note_on,,,,,46,0,7,,,,,6,,,,51,0
185421,note_on,,,,,2,0,7,,,,,6,,,,51,92
185424,note_on,,,,,16,0,5,,,,,4,,,,75,92
185427,note_on,,,,,46,0,6,,,,,5,,,,55,0
185429,note_on,,,,,2,0,6,,,,,5,,,,55,92
185456,note_on,,,,,32,0,5,,,,,4,,,,75,0
185467,note_on,,,,,46,0,7,,,,,6,,,,51,0
185469,note_on,,,,,94,0,8,,,,,7,,,,48,0
185469,note_on,,,,,2,0,7,,,,,6,,,,51,92
185471,note_on,,,,,2,0,8,,,,,7,,,,48,92
185472,note_on,,,,,16,0,5,,,,,4,,,,79,92
185475,note_on,,,,,46,0,6,,,,,5,,,,55,0
185476,note_on,,,,,94,0,9,,,,,8,,,,36,0
185477,note_on,,,,,2,0,6,,,,,5,,,,55,92
185478,note_on,,,,,2,0,9,,,,,8,,,,36,92
185515,note_on,,,,,46,0,7,,,,,6,,,,51,0
185517,note_on,,,,,2,0,7,,,,,6,,,,51,92
185523,note_on,,,,,46,0,6,,,,,5,,,,55,0
185525,note_on,,,,,2,0,6,,,,,5,,,,55,92
185563,note_on,,,,,46,0,7,,,,,6,,,,51,0
185565,note_on,,,,,94,0,8,,,,,7,,,,48,0
185565,note_on,,,,,2,0,7,,,,,6,,,,51,92
185566,note_on,,,,,94,0,5,,,,,4,,,,79,0
185567,note_on,,,,,2,0,8,,,,,7,,,,48,92
185571,note_on,,,,,46,0,6,,,,,5,,,,55,0
185572,note_on,,,,,94,0,9,,,,,8,,,,36,0
185573,note_on,,,,,2,0,6,,,,,5,,,,55,92
185574,note_on,,,,,2,0,9,,,,,8,,,,36,92
185611,note_on,,,,,46,0,7,,,,,6,,,,51,0
185613,note_on,,,,,2,0,7,,,,,6,,,,51,92
185619,note_on,,,,,46,0,6,,,,,5,,,,55,0
185621,note_on,,,,,2,0,6,,,,,5,,,,55,92
185630,note_on,,,,,0,0,1,,,,,0,,,,72,0
185630,note_on,,,,,736,0,1,,,,,0,,,,75,0
185634,note_on,,,,,736,0,2,,,,,1,,,,67,0
185634,note_on,,,,,0,0,2,,,,,1,,,,55,0
185659,note_on,,,,,46,0,7,,,,,6,,,,51,0
185661,note_on,,,,,94,0,8,,,,,7,,,,48,0
185661,note_on,,,,,2,0,7,,,,,6,,,,51,92
185662,note_on,,,,,0,0,1,,,,,0,,,,75,92
185662,note_on,,,,,32,0,1,,,,,0,,,,72,92
185663,note_on,,,,,2,0,8,,,,,7,,,,48,92
185664,note_on,,,,,98,0,5,,,,,4,,,,75,92
185666,note_on,,,,,0,0,2,,,,,1,,,,67,92
185666,note_on,,,,,32,0,2,,,,,1,,,,63,92
185667,note_on,,,,,46,0,6,,,,,5,,,,55,0
185668,note_on,,,,,94,0,9,,,,,8,,,,36,0
185669,note_on,,,,,2,0,6,,,,,5,,,,55,92
185670,note_on,,,,,2,0,9,,,,,8,,,,36,92
185707,note_on,,,,,46,0,7,,,,,6,,,,51,0
185709,note_on,,,,,2,0,7,,,,,6,,,,51,92
185715,note_on,,,,,46,0,6,,,,,5,,,,55,0
185717,note_on,,,,,2,0,6,,,,,5,,,,55,92
185755,note_on,,,,,46,0,7,,,,,6,,,,51,0
185757,note_on,,,,,2,0,7,,,,,6,,,,51,92
185757,note_on,,,,,94,0,8,,,,,7,,,,48,0
185758,note_on,,,,,94,0,5,,,,,4,,,,75,0
185759,note_on,,,,,2,0,8,,,,,7,,,,48,92
185763,note_on,,,,,46,0,6,,,,,5,,,,55,0
185764,note_on,,,,,94,0,9,,,,,8,,,,36,0
185765,note_on,,,,,2,0,6,,,,,5,,,,55,92
185766,note_on,,,,,2,0,9,,,,,8,,,,36,92
185803,note_on,,,,,46,0,7,,,,,6,,,,51,0
185805,note_on,,,,,2,0,7,,,,,6,,,,51,92
185811,note_on,,,,,46,0,6,,,,,5,,,,55,0
185813,note_on,,,,,2,0,6,,,,,5,,,,55,92
185822,note_on,,,,,0,0,1,,,,,0,,,,72,0
185822,note_on,,,,,160,0,1,,,,,0,,,,75,0
185826,note_on,,,,,160,0,2,,,,,1,,,,67,0
185826,note_on,,,,,0,0,2,,,,,1,,,,63,0
185851,note_on,,,,,46,0,7,,,,,6,,,,51,0
185853,note_on,,,,,2,0,7,,,,,6,,,,51,92
185853,note_on,,,,,94,0,8,,,,,7,,,,48,0
185854,note_on,,,,,32,0,1,,,,,0,,,,72,92
185854,note_on,,,,,0,0,1,,,,,0,,,,75,92
185855,note_on,,,,,2,0,8,,,,,7,,,,48,92
185856,note_on,,,,,98,0,5,,,,,4,,,,72,92
185858,note_on,,,,,32,0,2,,,,,1,,,,63,92
185858,note_on,,,,,0,0,2,,,,,1,,,,67,92
185859,note_on,,,,,46,0,6,,,,,5,,,,55,0
185860,note_on,,,,,94,0,9,,,,,8,,,,36,0
185861,note_on,,,,,2,0,6,,,,,5,,,,55,92
185862,note_on,,,,,2,0,9,,,,,8,,,,36,92
185899,note_on,,,,,46,0,7,,,,,6,,,,51,0
185901,note_on,,,,,2,0,7,,,,,6,,,,51,92
185907,note_on,,,,,46,0,6,,,,,5,,,,55,0
185909,note_on,,,,,2,0,6,,,,,5,,,,55,92
185947,note_on,,,,,46,0,7,,,,,6,,,,51,0
185949,note_on,,,,,94,0,8,,,,,7,,,,48,0
185949,note_on,,,,,2,0,7,,,,,6,,,,51,92
185950,note_on,,,,,94,0,5,,,,,4,,,,72,0
185951,note_on,,,,,2,0,8,,,,,7,,,,48,92
185955,note_on,,,,,46,0,6,,,,,5,,,,55,0
185956,note_on,,,,,94,0,9,,,,,8,,,,36,0
185957,note_on,,,,,2,0,6,,,,,5,,,,55,92
185958,note_on,,,,,2,0,9,,,,,8,,,,36,92
185995,note_on,,,,,46,0,7,,,,,6,,,,51,0
185997,note_on,,,,,2,0,7,,,,,6,,,,51,92
186003,note_on,,,,,46,0,6,,,,,5,,,,55,0
186005,note_on,,,,,2,0,6,,,,,5,,,,55,92
186014,note_on,,,,,0,0,1,,,,,0,,,,72,0
186014,note_on,,,,,160,0,1,,,,,0,,,,75,0
186018,note_on,,,,,160,0,2,,,,,1,,,,67,0
186018,note_on,,,,,0,0,2,,,,,1,,,,63,0
186043,note_on,,,,,46,0,7,,,,,6,,,,51,0
186045,note_on,,,,,2,0,7,,,,,6,,,,55,92
186045,note_on,,,,,94,0,8,,,,,7,,,,48,0
186046,note_on,,,,,0,0,1,,,,,0,,,,75,92
186046,note_on,,,,,32,0,1,,,,,0,,,,73,92
186047,note_on,,,,,2,0,8,,,,,7,,,,46,92
186048,note_on,,,,,98,0,5,,,,,4,,,,58,92
186050,note_on,,,,,32,0,2,,,,,1,,,,63,92
186050,note_on,,,,,0,0,2,,,,,1,,,,67,92
186051,note_on,,,,,46,0,6,,,,,5,,,,55,0
186052,note_on,,,,,94,0,9,,,,,8,,,,36,0
186053,note_on,,,,,2,0,6,,,,,5,,,,61,92
186054,note_on,,,,,2,0,9,,,,,8,,,,34,92
186091,note_on,,,,,46,0,7,,,,,6,,,,55,0
186093,note_on,,,,,2,0,7,,,,,6,,,,55,92
186099,note_on,,,,,46,0,6,,,,,5,,,,61,0
186101,note_on,,,,,2,0,6,,,,,5,,,,61,92
186139,note_on,,,,,46,0,7,,,,,6,,,,55,0
186141,note_on,,,,,94,0,8,,,,,7,,,,46,0
186141,note_on,,,,,2,0,7,,,,,6,,,,55,92
186143,note_on,,,,,2,0,8,,,,,7,,,,46,92
186147,note_on,,,,,46,0,6,,,,,5,,,,61,0
186148,note_on,,,,,94,0,9,,,,,8,,,,34,0
186149,note_on,,,,,2,0,6,,,,,5,,,,61,92
186150,note_on,,,,,2,0,9,,,,,8,,,,34,92
186187,note_on,,,,,46,0,7,,,,,6,,,,55,0
186189,note_on,,,,,2,0,7,,,,,6,,,,55,92
186195,note_on,,,,,46,0,6,,,,,5,,,,61,0
186197,note_on,,,,,2,0,6,,,,,5,,,,61,92
186235,note_on,,,,,46,0,7,,,,,6,,,,55,0
186237,note_on,,,,,94,0,8,,,,,7,,,,46,0
186237,note_on,,,,,2,0,7,,,,,6,,,,55,92
186239,note_on,,,,,2,0,8,,,,,7,,,,46,92
186243,note_on,,,,,46,0,6,,,,,5,,,,61,0
186244,note_on,,,,,94,0,9,,,,,8,,,,34,0
186245,note_on,,,,,2,0,6,,,,,5,,,,61,92
186246,note_on,,,,,2,0,9,,,,,8,,,,34,92
186283,note_on,,,,,46,0,7,,,,,6,,,,55,0
186285,note_on,,,,,2,0,7,,,,,6,,,,55,92
186291,note_on,,,,,46,0,6,,,,,5,,,,61,0
186293,note_on,,,,,2,0,6,,,,,5,,,,61,92
186304,note_on,,,,,256,0,5,,,,,4,,,,58,0
186331,note_on,,,,,46,0,7,,,,,6,,,,55,0
186333,note_on,,,,,94,0,8,,,,,7,,,,46,0
186333,note_on,,,,,2,0,7,,,,,6,,,,55,92
186335,note_on,,,,,2,0,8,,,,,7,,,,46,92
186336,note_on,,,,,32,0,5,,,,,4,,,,75,92
186339,note_on,,,,,46,0,6,,,,,5,,,,61,0
186340,note_on,,,,,94,0,9,,,,,8,,,,34,0
186341,note_on,,,,,2,0,6,,,,,5,,,,61,92
186342,note_on,,,,,2,0,9,,,,,8,,,,34,92
186379,note_on,,,,,46,0,7,,,,,6,,,,55,0
186381,note_on,,,,,2,0,7,,,,,6,,,,55,92
186382,note_on,,,,,46,0,5,,,,,4,,,,75,0
186384,note_on,,,,,2,0,5,,,,,4,,,,82,92
186387,note_on,,,,,46,0,6,,,,,5,,,,61,0
186389,note_on,,,,,2,0,6,,,,,5,,,,61,92
186427,note_on,,,,,46,0,7,,,,,6,,,,55,0
186429,note_on,,,,,94,0,8,,,,,7,,,,46,0
186429,note_on,,,,,2,0,7,,,,,6,,,,55,92
186430,note_on,,,,,46,0,5,,,,,4,,,,82,0
186431,note_on,,,,,2,0,8,,,,,7,,,,46,92
186432,note_on,,,,,2,0,5,,,,,4,,,,85,92
186435,note_on,,,,,46,0,6,,,,,5,,,,61,0
186436,note_on,,,,,94,0,9,,,,,8,,,,34,0
186437,note_on,,,,,2,0,6,,,,,5,,,,61,92
186438,note_on,,,,,2,0,9,,,,,8,,,,34,92
186475,note_on,,,,,46,0,7,,,,,6,,,,55,0
186477,note_on,,,,,2,0,7,,,,,6,,,,55,92
186480,note_on,,,,,48,0,5,,,,,4,,,,85,0
186480,note_on,,,,,0,0,5,,,,,4,,,,82,92
186483,note_on,,,,,46,0,6,,,,,5,,,,61,0
186485,note_on,,,,,2,0,6,,,,,5,,,,61,92
186523,note_on,,,,,46,0,7,,,,,6,,,,55,0
186525,note_on,,,,,94,0,8,,,,,7,,,,46,0
186525,note_on,,,,,2,0,7,,,,,6,,,,55,92
186526,note_on,,,,,46,0,5,,,,,4,,,,82,0
186527,note_on,,,,,2,0,8,,,,,7,,,,46,92
186528,note_on,,,,,2,0,5,,,,,4,,,,85,92
186531,note_on,,,,,46,0,6,,,,,5,,,,61,0
186532,note_on,,,,,94,0,9,,,,,8,,,,34,0
186533,note_on,,,,,2,0,6,,,,,5,,,,61,92
186534,note_on,,,,,2,0,9,,,,,8,,,,34,92
186560,note_on,,,,,32,0,5,,,,,4,,,,85,0
186571,note_on,,,,,46,0,7,,,,,6,,,,55,0
186573,note_on,,,,,2,0,7,,,,,6,,,,55,92
186576,note_on,,,,,16,0,5,,,,,4,,,,82,92
186579,note_on,,,,,46,0,6,,,,,5,,,,61,0
186581,note_on,,,,,2,0,6,,,,,5,,,,61,92
186608,note_on,,,,,32,0,5,,,,,4,,,,82,0
186619,note_on,,,,,46,0,7,,,,,6,,,,55,0
186621,note_on,,,,,94,0,8,,,,,7,,,,46,0
186621,note_on,,,,,2,0,7,,,,,6,,,,55,92
186623,note_on,,,,,2,0,8,,,,,7,,,,46,92
186624,note_on,,,,,16,0,5,,,,,4,,,,85,92
186627,note_on,,,,,46,0,6,,,,,5,,,,61,0
186628,note_on,,,,,94,0,9,,,,,8,,,,34,0
186629,note_on,,,,,2,0,6,,,,,5,,,,61,92
186630,note_on,,,,,2,0,9,,,,,8,,,,34,92
186667,note_on,,,,,46,0,7,,,,,6,,,,55,0
186669,note_on,,,,,2,0,7,,,,,6,,,,55,92
186675,note_on,,,,,46,0,6,,,,,5,,,,61,0
186677,note_on,,,,,2,0,6,,,,,5,,,,61,92
186715,note_on,,,,,46,0,7,,,,,6,,,,55,0
186717,note_on,,,,,2,0,7,,,,,6,,,,55,92
186717,note_on,,,,,94,0,8,,,,,7,,,,46,0
186718,note_on,,,,,94,0,5,,,,,4,,,,85,0
186719,note_on,,,,,2,0,8,,,,,7,,,,46,92
186723,note_on,,,,,46,0,6,,,,,5,,,,61,0
186724,note_on,,,,,94,0,9,,,,,8,,,,34,0
186725,note_on,,,,,2,0,6,,,,,5,,,,61,92
186726,note_on,,,,,2,0,9,,,,,8,,,,34,92
186763,note_on,,,,,46,0,7,,,,,6,,,,55,0
186765,note_on,,,,,2,0,7,,,,,6,,,,55,92
186771,note_on,,,,,46,0,6,,,,,5,,,,61,0
186773,note_on,,,,,2,0,6,,,,,5,,,,61,92
186782,note_on,,,,,0,0,1,,,,,0,,,,73,0
186782,note_on,,,,,736,0,1,,,,,0,,,,75,0
186786,note_on,,,,,736,0,2,,,,,1,,,,67,0
186786,note_on,,,,,0,0,2,,,,,1,,,,63,0
186811,note_on,,,,,46,0,7,,,,,6,,,,55,0
186813,note_on,,,,,2,0,7,,,,,6,,,,55,92
186813,note_on,,,,,94,0,8,,,,,7,,,,46,0
186814,note_on,,,,,0,0,1,,,,,0,,,,75,92
186814,note_on,,,,,32,0,1,,,,,0,,,,73,92
186815,note_on,,,,,2,0,8,,,,,7,,,,46,92
186816,note_on,,,,,98,0,5,,,,,4,,,,82,92
186818,note_on,,,,,32,0,2,,,,,1,,,,63,92
186818,note_on,,,,,0,0,2,,,,,1,,,,67,92
186819,note_on,,,,,46,0,6,,,,,5,,,,61,0
186820,note_on,,,,,94,0,9,,,,,8,,,,34,0
186821,note_on,,,,,2,0,6,,,,,5,,,,61,92
186822,note_on,,,,,2,0,9,,,,,8,,,,34,92
186859,note_on,,,,,46,0,7,,,,,6,,,,55,0
186861,note_on,,,,,2,0,7,,,,,6,,,,55,92
186867,note_on,,,,,46,0,6,,,,,5,,,,61,0
186869,note_on,,,,,2,0,6,,,,,5,,,,61,92
186907,note_on,,,,,46,0,7,,,,,6,,,,55,0
186909,note_on,,,,,2,0,7,,,,,6,,,,55,92
186909,note_on,,,,,94,0,8,,,,,7,,,,46,0
186910,note_on,,,,,94,0,5,,,,,4,,,,82,0
186911,note_on,,,,,2,0,8,,,,,7,,,,46,92
186915,note_on,,,,,46,0,6,,,,,5,,,,61,0
186916,note_on,,,,,94,0,9,,,,,8,,,,34,0
186917,note_on,,,,,2,0,6,,,,,5,,,,61,92
186918,note_on,,,,,2,0,9,,,,,8,,,,34,92
186955,note_on,,,,,46,0,7,,,,,6,,,,55,0
186957,note_on,,,,,2,0,7,,,,,6,,,,55,92
186963,note_on,,,,,46,0,6,,,,,5,,,,61,0
186965,note_on,,,,,2,0,6,,,,,5,,,,61,92
186974,note_on,,,,,160,0,1,,,,,0,,,,75,0
186974,note_on,,,,,0,0,1,,,,,0,,,,73,0
186978,note_on,,,,,160,0,2,,,,,1,,,,67,0
186978,note_on,,,,,0,0,2,,,,,1,,,,63,0
187003,note_on,,,,,46,0,7,,,,,6,,,,55,0
187005,note_on,,,,,2,0,7,,,,,6,,,,55,92
187005,note_on,,,,,94,0,8,,,,,7,,,,46,0
187006,note_on,,,,,32,0,1,,,,,0,,,,73,92
187006,note_on,,,,,0,0,1,,,,,0,,,,75,92
187007,note_on,,,,,2,0,8,,,,,7,,,,46,92
187008,note_on,,,,,98,0,5,,,,,4,,,,75,92
187010,note_on,,,,,32,0,2,,,,,1,,,,63,92
187010,note_on,,,,,0,0,2,,,,,1,,,,67,92
187011,note_on,,,,,46,0,6,,,,,5,,,,61,0
187012,note_on,,,,,94,0,9,,,,,8,,,,34,0
187013,note_on,,,,,2,0,6,,,,,5,,,,61,92
187014,note_on,,,,,2,0,9,,,,,8,,,,34,92
187051,note_on,,,,,46,0,7,,,,,6,,,,55,0
187053,note_on,,,,,2,0,7,,,,,6,,,,55,92
187059,note_on,,,,,46,0,6,,,,,5,,,,61,0
187061,note_on,,,,,2,0,6,,,,,5,,,,61,92
187099,note_on,,,,,46,0,7,,,,,6,,,,55,0
187101,note_on,,,,,94,0,8,,,,,7,,,,46,0
187101,note_on,,,,,2,0,7,,,,,6,,,,55,92
187102,note_on,,,,,94,0,5,,,,,4,,,,75,0
187103,note_on,,,,,2,0,8,,,,,7,,,,46,92
187107,note_on,,,,,46,0,6,,,,,5,,,,61,0
187108,note_on,,,,,94,0,9,,,,,8,,,,34,0
187109,note_on,,,,,2,0,6,,,,,5,,,,61,92
187110,note_on,,,,,2,0,9,,,,,8,,,,34,92
187147,note_on,,,,,46,0,7,,,,,6,,,,55,0
187149,note_on,,,,,2,0,7,,,,,6,,,,55,92
187155,note_on,,,,,46,0,6,,,,,5,,,,61,0
187157,note_on,,,,,2,0,6,,,,,5,,,,61,92
187166,note_on,,,,,0,0,1,,,,,0,,,,73,0
187166,note_on,,,,,160,0,1,,,,,0,,,,75,0
187170,note_on,,,,,0,0,2,,,,,1,,,,63,0
187170,note_on,,,,,160,0,2,,,,,1,,,,67,0
187195,note_on,,,,,46,0,7,,,,,6,,,,55,0
187197,note_on,,,,,2,0,7,,,,,6,,,,56,92
187197,note_on,,,,,94,0,8,,,,,7,,,,46,0
187198,note_on,,,,,32,0,1,,,,,0,,,,72,92
187198,note_on,,,,,0,0,1,,,,,0,,,,75,92
187199,note_on,,,,,2,0,8,,,,,7,,,,44,92
187200,note_on,,,,,98,0,5,,,,,4,,,,56,92
187202,note_on,,,,,0,0,2,,,,,1,,,,68,92
187202,note_on,,,,,32,0,2,,,,,1,,,,63,92
187203,note_on,,,,,46,0,6,,,,,5,,,,61,0
187204,note_on,,,,,94,0,9,,,,,8,,,,34,0
187205,note_on,,,,,2,0,6,,,,,5,,,,60,92
187206,note_on,,,,,2,0,9,,,,,8,,,,32,92
187243,note_on,,,,,46,0,7,,,,,6,,,,56,0
187245,note_on,,,,,2,0,7,,,,,6,,,,56,92
187251,note_on,,,,,46,0,6,,,,,5,,,,60,0
187253,note_on,,,,,2,0,6,,,,,5,,,,60,92
187291,note_on,,,,,46,0,7,,,,,6,,,,56,0
187293,note_on,,,,,94,0,8,,,,,7,,,,44,0
187293,note_on,,,,,2,0,7,,,,,6,,,,56,92
187295,note_on,,,,,2,0,8,,,,,7,,,,44,92
187299,note_on,,,,,46,0,6,,,,,5,,,,60,0
187300,note_on,,,,,94,0,9,,,,,8,,,,32,0
187301,note_on,,,,,2,0,6,,,,,5,,,,60,92
187302,note_on,,,,,2,0,9,,,,,8,,,,32,92
187339,note_on,,,,,46,0,7,,,,,6,,,,56,0
187341,note_on,,,,,2,0,7,,,,,6,,,,56,92
187347,note_on,,,,,46,0,6,,,,,5,,,,60,0
187349,note_on,,,,,2,0,6,,,,,5,,,,60,92
187387,note_on,,,,,46,0,7,,,,,6,,,,56,0
187389,note_on,,,,,94,0,8,,,,,7,,,,44,0
187389,note_on,,,,,2,0,7,,,,,6,,,,56,92
187391,note_on,,,,,2,0,8,,,,,7,,,,44,92
187395,note_on,,,,,46,0,6,,,,,5,,,,60,0
187396,note_on,,,,,94,0,9,,,,,8,,,,32,0
187397,note_on,,,,,2,0,6,,,,,5,,,,60,92
187398,note_on,,,,,2,0,9,,,,,8,,,,32,92
187435,note_on,,,,,46,0,7,,,,,6,,,,56,0
187437,note_on,,,,,2,0,7,,,,,6,,,,56,92
187443,note_on,,,,,46,0,6,,,,,5,,,,60,0
187445,note_on,,,,,2,0,6,,,,,5,,,,60,92
187456,note_on,,,,,256,0,5,,,,,4,,,,56,0
187483,note_on,,,,,46,0,7,,,,,6,,,,56,0
187485,note_on,,,,,2,0,7,,,,,6,,,,56,92
187485,note_on,,,,,94,0,8,,,,,7,,,,44,0
187487,note_on,,,,,2,0,8,,,,,7,,,,44,92
187488,note_on,,,,,32,0,5,,,,,4,,,,75,92
187491,note_on,,,,,46,0,6,,,,,5,,,,60,0
187492,note_on,,,,,94,0,9,,,,,8,,,,32,0
187493,note_on,,,,,2,0,6,,,,,5,,,,60,92
187494,note_on,,,,,2,0,9,,,,,8,,,,32,92
187531,note_on,,,,,46,0,7,,,,,6,,,,56,0
187533,note_on,,,,,2,0,7,,,,,6,,,,56,92
187534,note_on,,,,,46,0,5,,,,,4,,,,75,0
187536,note_on,,,,,2,0,5,,,,,4,,,,80,92
187539,note_on,,,,,46,0,6,,,,,5,,,,60,0
187541,note_on,,,,,2,0,6,,,,,5,,,,60,92
187579,note_on,,,,,46,0,7,,,,,6,,,,56,0
187581,note_on,,,,,94,0,8,,,,,7,,,,44,0
187581,note_on,,,,,2,0,7,,,,,6,,,,56,92
187582,note_on,,,,,46,0,5,,,,,4,,,,80,0
187583,note_on,,,,,2,0,8,,,,,7,,,,44,92
187584,note_on,,,,,2,0,5,,,,,4,,,,84,92
187587,note_on,,,,,46,0,6,,,,,5,,,,60,0
187588,note_on,,,,,94,0,9,,,,,8,,,,32,0
187589,note_on,,,,,2,0,6,,,,,5,,,,60,92
187590,note_on,,,,,2,0,9,,,,,8,,,,32,92
187627,note_on,,,,,46,0,7,,,,,6,,,,56,0
187629,note_on,,,,,2,0,7,,,,,6,,,,56,92
187632,note_on,,,,,0,0,5,,,,,4,,,,80,92
187632,note_on,,,,,48,0,5,,,,,4,,,,84,0
187635,note_on,,,,,46,0,6,,,,,5,,,,60,0
187637,note_on,,,,,2,0,6,,,,,5,,,,60,92
187675,note_on,,,,,46,0,7,,,,,6,,,,56,0
187677,note_on,,,,,2,0,7,,,,,6,,,,56,92
187677,note_on,,,,,94,0,8,,,,,7,,,,44,0
187678,note_on,,,,,46,0,5,,,,,4,,,,80,0
187679,note_on,,,,,2,0,8,,,,,7,,,,44,92
187680,note_on,,,,,2,0,5,,,,,4,,,,84,92
187683,note_on,,,,,46,0,6,,,,,5,,,,60,0
187684,note_on,,,,,94,0,9,,,,,8,,,,32,0
187685,note_on,,,,,2,0,6,,,,,5,,,,60,92
187686,note_on,,,,,2,0,9,,,,,8,,,,32,92
187712,note_on,,,,,32,0,5,,,,,4,,,,84,0
187723,note_on,,,,,46,0,7,,,,,6,,,,56,0
187725,note_on,,,,,2,0,7,,,,,6,,,,56,92
187728,note_on,,,,,16,0,5,,,,,4,,,,80,92
187731,note_on,,,,,46,0,6,,,,,5,,,,60,0
187733,note_on,,,,,2,0,6,,,,,5,,,,60,92
187760,note_on,,,,,32,0,5,,,,,4,,,,80,0
187771,note_on,,,,,46,0,7,,,,,6,,,,56,0
187773,note_on,,,,,2,0,7,,,,,6,,,,56,92
187773,note_on,,,,,94,0,8,,,,,7,,,,44,0
187775,note_on,,,,,2,0,8,,,,,7,,,,44,92
187776,note_on,,,,,16,0,5,,,,,4,,,,84,92
187779,note_on,,,,,46,0,6,,,,,5,,,,60,0
187780,note_on,,,,,94,0,9,,,,,8,,,,32,0
187781,note_on,,,,,2,0,6,,,,,5,,,,60,92
187782,note_on,,,,,2,0,9,,,,,8,,,,32,92
187819,note_on,,,,,46,0,7,,,,,6,,,,56,0
187821,note_on,,,,,2,0,7,,,,,6,,,,56,92
187827,note_on,,,,,46,0,6,,,,,5,,,,60,0
187829,note_on,,,,,2,0,6,,,,,5,,,,60,92
187867,note_on,,,,,46,0,7,,,,,6,,,,56,0
187869,note_on,,,,,2,0,7,,,,,6,,,,56,92
187869,note_on,,,,,94,0,8,,,,,7,,,,44,0
187870,note_on,,,,,94,0,5,,,,,4,,,,84,0
187871,note_on,,,,,2,0,8,,,,,7,,,,44,92
187875,note_on,,,,,46,0,6,,,,,5,,,,60,0
187876,note_on,,,,,94,0,9,,,,,8,,,,32,0
187877,note_on,,,,,2,0,6,,,,,5,,,,60,92
187878,note_on,,,,,2,0,9,,,,,8,,,,32,92
187915,note_on,,,,,46,0,7,,,,,6,,,,56,0
187917,note_on,,,,,2,0,7,,,,,6,,,,56,92
187923,note_on,,,,,46,0,6,,,,,5,,,,60,0
187925,note_on,,,,,2,0,6,,,,,5,,,,60,92
187934,note_on,,,,,736,0,1,,,,,0,,,,75,0
187934,note_on,,,,,0,0,1,,,,,0,,,,72,0
187938,note_on,,,,,736,0,2,,,,,1,,,,68,0
187938,note_on,,,,,0,0,2,,,,,1,,,,63,0
187963,note_on,,,,,46,0,7,,,,,6,,,,56,0
187965,note_on,,,,,94,0,8,,,,,7,,,,44,0
187965,note_on,,,,,2,0,7,,,,,6,,,,56,92
187966,note_on,,,,,32,0,1,,,,,0,,,,72,92
187966,note_on,,,,,0,0,1,,,,,0,,,,75,92
187967,note_on,,,,,2,0,8,,,,,7,,,,44,92
187968,note_on,,,,,98,0,5,,,,,4,,,,80,92
187970,note_on,,,,,0,0,2,,,,,1,,,,68,92
187970,note_on,,,,,32,0,2,,,,,1,,,,63,92
187971,note_on,,,,,46,0,6,,,,,5,,,,60,0
187972,note_on,,,,,94,0,9,,,,,8,,,,32,0
187973,note_on,,,,,2,0,6,,,,,5,,,,60,92
187974,note_on,,,,,2,0,9,,,,,8,,,,32,92
188011,note_on,,,,,46,0,7,,,,,6,,,,56,0
188013,note_on,,,,,2,0,7,,,,,6,,,,56,92
188019,note_on,,,,,46,0,6,,,,,5,,,,60,0
188021,note_on,,,,,2,0,6,,,,,5,,,,60,92
188059,note_on,,,,,46,0,7,,,,,6,,,,56,0
188061,note_on,,,,,2,0,7,,,,,6,,,,56,92
188061,note_on,,,,,94,0,8,,,,,7,,,,44,0
188062,note_on,,,,,94,0,5,,,,,4,,,,80,0
188063,note_on,,,,,2,0,8,,,,,7,,,,44,92
188067,note_on,,,,,46,0,6,,,,,5,,,,60,0
188068,note_on,,,,,94,0,9,,,,,8,,,,32,0
188069,note_on,,,,,2,0,6,,,,,5,,,,60,92
188070,note_on,,,,,2,0,9,,,,,8,,,,32,92
188107,note_on,,,,,46,0,7,,,,,6,,,,56,0
188109,note_on,,,,,2,0,7,,,,,6,,,,56,92
188115,note_on,,,,,46,0,6,,,,,5,,,,60,0
188117,note_on,,,,,2,0,6,,,,,5,,,,60,92
188126,note_on,,,,,0,0,1,,,,,0,,,,72,0
188126,note_on,,,,,160,0,1,,,,,0,,,,75,0
188130,note_on,,,,,0,0,2,,,,,1,,,,63,0
188130,note_on,,,,,160,0,2,,,,,1,,,,68,0
188155,note_on,,,,,46,0,7,,,,,6,,,,56,0
188157,note_on,,,,,2,0,7,,,,,6,,,,56,92
188157,note_on,,,,,94,0,8,,,,,7,,,,44,0
188158,note_on,,,,,32,0,1,,,,,0,,,,72,92
188158,note_on,,,,,0,0,1,,,,,0,,,,75,92
188159,note_on,,,,,2,0,8,,,,,7,,,,44,92
188160,note_on,,,,,98,0,5,,,,,4,,,,75,92
188162,note_on,,,,,32,0,2,,,,,1,,,,63,92
188162,note_on,,,,,0,0,2,,,,,1,,,,68,92
188163,note_on,,,,,46,0,6,,,,,5,,,,60,0
188164,note_on,,,,,94,0,9,,,,,8,,,,32,0
188165,note_on,,,,,2,0,6,,,,,5,,,,60,92
188166,note_on,,,,,2,0,9,,,,,8,,,,32,92
188203,note_on,,,,,46,0,7,,,,,6,,,,56,0
188205,note_on,,,,,2,0,7,,,,,6,,,,56,92
188211,note_on,,,,,46,0,6,,,,,5,,,,60,0
188213,note_on,,,,,2,0,6,,,,,5,,,,60,92
188251,note_on,,,,,46,0,7,,,,,6,,,,56,0
188253,note_on,,,,,94,0,8,,,,,7,,,,44,0
188253,note_on,,,,,2,0,7,,,,,6,,,,56,92
188254,note_on,,,,,94,0,5,,,,,4,,,,75,0
188255,note_on,,,,,2,0,8,,,,,7,,,,44,92
188259,note_on,,,,,46,0,6,,,,,5,,,,60,0
188260,note_on,,,,,94,0,9,,,,,8,,,,32,0
188261,note_on,,,,,2,0,6,,,,,5,,,,60,92
188262,note_on,,,,,2,0,9,,,,,8,,,,32,92
188299,note_on,,,,,46,0,7,,,,,6,,,,56,0
188301,note_on,,,,,2,0,7,,,,,6,,,,56,92
188307,note_on,,,,,46,0,6,,,,,5,,,,60,0
188309,note_on,,,,,2,0,6,,,,,5,,,,60,92
188318,note_on,,,,,0,0,1,,,,,0,,,,72,0
188318,note_on,,,,,160,0,1,,,,,0,,,,75,0
188322,note_on,,,,,0,0,2,,,,,1,,,,63,0
188322,note_on,,,,,160,0,2,,,,,1,,,,68,0
188347,note_on,,,,,46,0,7,,,,,6,,,,56,0
188349,note_on,,,,,2,0,7,,,,,6,,,,63,92
188349,note_on,,,,,94,0,8,,,,,7,,,,44,0
188350,note_on,,,,,32,0,1,,,,,0,,,,72,92
188350,note_on,,,,,0,0,1,,,,,0,,,,75,92
188351,note_on,,,,,2,0,8,,,,,7,,,,45,92
188352,note_on,,,,,98,0,5,,,,,4,,,,57,92
188354,note_on,,,,,0,0,2,,,,,1,,,,65,92
188354,note_on,,,,,32,0,2,,,,,1,,,,63,92
188355,note_on,,,,,46,0,6,,,,,5,,,,60,0
188356,note_on,,,,,94,0,9,,,,,8,,,,32,0
188357,note_on,,,,,2,0,6,,,,,5,,,,65,92
188358,note_on,,,,,2,0,9,,,,,8,,,,33,92
188395,note_on,,,,,46,0,7,,,,,6,,,,63,0
188397,note_on,,,,,2,0,7,,,,,6,,,,63,92
188403,note_on,,,,,46,0,6,,,,,5,,,,65,0
188405,note_on,,,,,2,0,6,,,,,5,,,,65,92
188443,note_on,,,,,46,0,7,,,,,6,,,,63,0
188445,note_on,,,,,2,0,7,,,,,6,,,,63,92
188445,note_on,,,,,94,0,8,,,,,7,,,,45,0
188447,note_on,,,,,2,0,8,,,,,7,,,,45,92
188451,note_on,,,,,46,0,6,,,,,5,,,,65,0
188452,note_on,,,,,94,0,9,,,,,8,,,,33,0
188453,note_on,,,,,2,0,6,,,,,5,,,,65,92
188454,note_on,,,,,2,0,9,,,,,8,,,,33,92
188491,note_on,,,,,46,0,7,,,,,6,,,,63,0
188493,note_on,,,,,2,0,7,,,,,6,,,,63,92
188499,note_on,,,,,46,0,6,,,,,5,,,,65,0
188501,note_on,,,,,2,0,6,,,,,5,,,,65,92
188539,note_on,,,,,46,0,7,,,,,6,,,,63,0
188541,note_on,,,,,2,0,7,,,,,6,,,,63,92
188541,note_on,,,,,94,0,8,,,,,7,,,,45,0
188543,note_on,,,,,2,0,8,,,,,7,,,,45,92
188547,note_on,,,,,46,0,6,,,,,5,,,,65,0
188548,note_on,,,,,94,0,9,,,,,8,,,,33,0
188549,note_on,,,,,2,0,6,,,,,5,,,,65,92
188550,note_on,,,,,2,0,9,,,,,8,,,,33,92
188587,note_on,,,,,46,0,7,,,,,6,,,,63,0
188589,note_on,,,,,2,0,7,,,,,6,,,,63,92
188595,note_on,,,,,46,0,6,,,,,5,,,,65,0
188597,note_on,,,,,2,0,6,,,,,5,,,,65,92
188608,note_on,,,,,256,0,5,,,,,4,,,,57,0
188635,note_on,,,,,46,0,7,,,,,6,,,,63,0
188637,note_on,,,,,2,0,7,,,,,6,,,,63,92
188637,note_on,,,,,94,0,8,,,,,7,,,,45,0
188639,note_on,,,,,2,0,8,,,,,7,,,,45,92
188640,note_on,,,,,32,0,5,,,,,4,,,,81,92
188643,note_on,,,,,46,0,6,,,,,5,,,,65,0
188644,note_on,,,,,94,0,9,,,,,8,,,,33,0
188645,note_on,,,,,2,0,6,,,,,5,,,,65,92
188646,note_on,,,,,2,0,9,,,,,8,,,,33,92
188683,note_on,,,,,46,0,7,,,,,6,,,,63,0
188685,note_on,,,,,2,0,7,,,,,6,,,,63,92
188686,note_on,,,,,46,0,5,,,,,4,,,,81,0
188688,note_on,,,,,2,0,5,,,,,4,,,,84,92
188691,note_on,,,,,46,0,6,,,,,5,,,,65,0
188693,note_on,,,,,2,0,6,,,,,5,,,,65,92
188731,note_on,,,,,46,0,7,,,,,6,,,,63,0
188733,note_on,,,,,2,0,7,,,,,6,,,,63,92
188733,note_on,,,,,94,0,8,,,,,7,,,,45,0
188734,note_on,,,,,46,0,5,,,,,4,,,,84,0
188735,note_on,,,,,2,0,8,,,,,7,,,,45,92
188736,note_on,,,,,2,0,5,,,,,4,,,,87,92
188739,note_on,,,,,46,0,6,,,,,5,,,,65,0
188740,note_on,,,,,94,0,9,,,,,8,,,,33,0
188741,note_on,,,,,2,0,6,,,,,5,,,,65,92
188742,note_on,,,,,2,0,9,,,,,8,,,,33,92
188779,note_on,,,,,46,0,7,,,,,6,,,,63,0
188781,note_on,,,,,2,0,7,,,,,6,,,,63,92
188784,note_on,,,,,48,0,5,,,,,4,,,,87,0
188784,note_on,,,,,0,0,5,,,,,4,,,,84,92
188787,note_on,,,,,46,0,6,,,,,5,,,,65,0
188789,note_on,,,,,2,0,6,,,,,5,,,,65,92
188827,note_on,,,,,46,0,7,,,,,6,,,,63,0
188829,note_on,,,,,2,0,7,,,,,6,,,,63,92
188829,note_on,,,,,94,0,8,,,,,7,,,,45,0
188830,note_on,,,,,46,0,5,,,,,4,,,,84,0
188831,note_on,,,,,2,0,8,,,,,7,,,,45,92
188832,note_on,,,,,2,0,5,,,,,4,,,,87,92
188835,note_on,,,,,46,0,6,,,,,5,,,,65,0
188836,note_on,,,,,94,0,9,,,,,8,,,,33,0
188837,note_on,,,,,2,0,6,,,,,5,,,,65,92
188838,note_on,,,,,2,0,9,,,,,8,,,,33,92
188864,note_on,,,,,32,0,5,,,,,4,,,,87,0
188875,note_on,,,,,46,0,7,,,,,6,,,,63,0
188877,note_on,,,,,2,0,7,,,,,6,,,,63,92
188880,note_on,,,,,16,0,5,,,,,4,,,,84,92
188883,note_on,,,,,46,0,6,,,,,5,,,,65,0
188885,note_on,,,,,2,0,6,,,,,5,,,,65,92
188912,note_on,,,,,32,0,5,,,,,4,,,,84,0
188923,note_on,,,,,46,0,7,,,,,6,,,,63,0
188925,note_on,,,,,2,0,7,,,,,6,,,,63,92
188925,note_on,,,,,94,0,8,,,,,7,,,,45,0
188927,note_on,,,,,2,0,8,,,,,7,,,,45,92
188928,note_on,,,,,16,0,5,,,,,4,,,,87,92
188931,note_on,,,,,46,0,6,,,,,5,,,,65,0
188932,note_on,,,,,94,0,9,,,,,8,,,,33,0
188933,note_on,,,,,2,0,6,,,,,5,,,,65,92
188934,note_on,,,,,2,0,9,,,,,8,,,,33,92
188971,note_on,,,,,46,0,7,,,,,6,,,,63,0
188973,note_on,,,,,2,0,7,,,,,6,,,,63,92
188979,note_on,,,,,46,0,6,,,,,5,,,,65,0
188981,note_on,,,,,2,0,6,,,,,5,,,,65,92
189019,note_on,,,,,46,0,7,,,,,6,,,,63,0
189021,note_on,,,,,2,0,7,,,,,6,,,,63,92
189021,note_on,,,,,94,0,8,,,,,7,,,,45,0
189023,note_on,,,,,2,0,8,,,,,7,,,,45,92
189027,note_on,,,,,46,0,6,,,,,5,,,,65,0
189028,note_on,,,,,94,0,9,,,,,8,,,,33,0
189029,note_on,,,,,2,0,6,,,,,5,,,,65,92
189030,note_on,,,,,2,0,9,,,,,8,,,,33,92
189067,note_on,,,,,46,0,7,,,,,6,,,,63,0
189069,note_on,,,,,2,0,7,,,,,6,,,,63,92
189075,note_on,,,,,46,0,6,,,,,5,,,,65,0
189077,note_on,,,,,2,0,6,,,,,5,,,,65,92
189086,note_on,,,,,736,0,1,,,,,0,,,,75,0
189086,note_on,,,,,0,0,1,,,,,0,,,,72,0
189088,note_on,,,,,160,0,5,,,,,4,,,,87,0
189090,note_on,,,,,0,0,2,,,,,1,,,,63,0
189090,note_on,,,,,736,0,2,,,,,1,,,,65,0
189115,note_on,,,,,46,0,7,,,,,6,,,,63,0
189117,note_on,,,,,94,0,8,,,,,7,,,,45,0
189117,note_on,,,,,2,0,7,,,,,6,,,,63,92
189118,note_on,,,,,32,0,1,,,,,0,,,,72,92
189118,note_on,,,,,0,0,1,,,,,0,,,,75,92
189119,note_on,,,,,2,0,8,,,,,7,,,,45,92
189120,note_on,,,,,32,0,5,,,,,4,,,,69,92
189122,note_on,,,,,0,0,2,,,,,1,,,,65,92
189122,note_on,,,,,32,0,2,,,,,1,,,,63,92
189123,note_on,,,,,46,0,6,,,,,5,,,,65,0
189124,note_on,,,,,94,0,9,,,,,8,,,,33,0
189125,note_on,,,,,2,0,6,,,,,5,,,,65,92
189126,note_on,,,,,2,0,9,,,,,8,,,,33,92
189163,note_on,,,,,46,0,7,,,,,6,,,,63,0
189165,note_on,,,,,2,0,7,,,,,6,,,,63,92
189171,note_on,,,,,46,0,6,,,,,5,,,,65,0
189173,note_on,,,,,2,0,6,,,,,5,,,,65,92
189211,note_on,,,,,46,0,7,,,,,6,,,,63,0
189213,note_on,,,,,2,0,7,,,,,6,,,,63,92
189213,note_on,,,,,94,0,8,,,,,7,,,,45,0
189215,note_on,,,,,2,0,8,,,,,7,,,,45,92
189219,note_on,,,,,46,0,6,,,,,5,,,,65,0
189220,note_on,,,,,94,0,9,,,,,8,,,,33,0
189221,note_on,,,,,2,0,6,,,,,5,,,,65,92
189222,note_on,,,,,2,0,9,,,,,8,,,,33,92
189259,note_on,,,,,46,0,7,,,,,6,,,,63,0
189261,note_on,,,,,2,0,7,,,,,6,,,,63,92
189267,note_on,,,,,46,0,6,,,,,5,,,,65,0
189269,note_on,,,,,2,0,6,,,,,5,,,,65,92
189278,note_on,,,,,160,0,1,,,,,0,,,,75,0
189278,note_on,,,,,0,0,1,,,,,0,,,,72,0
189280,note_on,,,,,160,0,5,,,,,4,,,,69,0
189282,note_on,,,,,0,0,2,,,,,1,,,,63,0
189282,note_on,,,,,160,0,2,,,,,1,,,,65,0
189307,note_on,,,,,46,0,7,,,,,6,,,,63,0
189309,note_on,,,,,2,0,7,,,,,6,,,,63,92
189309,note_on,,,,,94,0,8,,,,,7,,,,45,0
189310,note_on,,,,,32,0,1,,,,,0,,,,72,92
189310,note_on,,,,,0,0,1,,,,,0,,,,75,92
189311,note_on,,,,,2,0,8,,,,,7,,,,45,92
189312,note_on,,,,,32,0,5,,,,,4,,,,84,92
189314,note_on,,,,,0,0,2,,,,,1,,,,65,92
189314,note_on,,,,,32,0,2,,,,,1,,,,63,92
189315,note_on,,,,,46,0,6,,,,,5,,,,65,0
189316,note_on,,,,,94,0,9,,,,,8,,,,33,0
189317,note_on,,,,,2,0,6,,,,,5,,,,65,92
189318,note_on,,,,,2,0,9,,,,,8,,,,33,92
189355,note_on,,,,,46,0,7,,,,,6,,,,63,0
189357,note_on,,,,,2,0,7,,,,,6,,,,63,92
189363,note_on,,,,,46,0,6,,,,,5,,,,65,0
189365,note_on,,,,,2,0,6,,,,,5,,,,65,92
189403,note_on,,,,,46,0,7,,,,,6,,,,63,0
189405,note_on,,,,,94,0,8,,,,,7,,,,45,0
189405,note_on,,,,,2,0,7,,,,,6,,,,63,92
189407,note_on,,,,,2,0,8,,,,,7,,,,45,92
189411,note_on,,,,,46,0,6,,,,,5,,,,65,0
189412,note_on,,,,,94,0,9,,,,,8,,,,33,0
189413,note_on,,,,,2,0,6,,,,,5,,,,65,92
189414,note_on,,,,,2,0,9,,,,,8,,,,33,92
189451,note_on,,,,,46,0,7,,,,,6,,,,63,0
189453,note_on,,,,,2,0,7,,,,,6,,,,63,92
189459,note_on,,,,,46,0,6,,,,,5,,,,65,0
189461,note_on,,,,,2,0,6,,,,,5,,,,65,92
189470,note_on,,,,,0,0,1,,,,,0,,,,72,0
189470,note_on,,,,,160,0,1,,,,,0,,,,75,0
189472,note_on,,,,,160,0,5,,,,,4,,,,84,0
189474,note_on,,,,,0,0,2,,,,,1,,,,63,0
189474,note_on,,,,,160,0,2,,,,,1,,,,65,0
189499,note_on,,,,,46,0,7,,,,,6,,,,63,0
189501,note_on,,,,,0,0,7,,,,,6,,,,63,92
189501,note_on,,,,,94,0,8,,,,,7,,,,45,0
189501,note_on,,,,,2,0,7,,,,,6,,,,58,92
189502,note_on,,,,,0,0,1,,,,,0,,,,75,92
189502,note_on,,,,,32,0,1,,,,,0,,,,70,92
189503,note_on,,,,,2,0,8,,,,,7,,,,46,92
189504,note_on,,,,,32,0,5,,,,,4,,,,58,92
189504,set_tempo,,,,,5184,1,0,,3000000,,,,,,,,
189506,note_on,,,,,32,0,2,,,,,1,,,,63,92
189506,note_on,,,,,0,0,2,,,,,1,,,,67,92
189507,note_on,,,,,46,0,6,,,,,5,,,,65,0
189508,note_on,,,,,94,0,9,,,,,8,,,,33,0
189509,note_on,,,,,2,0,6,,,,,5,,,,67,92
189510,note_on,,,,,2,0,9,,,,,8,,,,34,92
189661,note_on,,,,,160,0,7,,,,,6,,,,63,0
189661,note_on,,,,,0,0,7,,,,,6,,,,58,0
189662,note_on,,,,,0,0,1,,,,,0,,,,70,0
189662,note_on,,,,,160,0,1,,,,,0,,,,75,0
189663,note_on,,,,,160,0,8,,,,,7,,,,46,0
189664,note_on,,,,,160,0,5,,,,,4,,,,58,0
189666,note_on,,,,,0,0,2,,,,,1,,,,63,0
189666,note_on,,,,,160,0,2,,,,,1,,,,67,0
189669,note_on,,,,,160,0,6,,,,,5,,,,67,0
189670,note_on,,,,,160,0,9,,,,,8,,,,34,0
189696,set_tempo,,,,,192,1,0,,3000000,,,,,,,,
189788,note_on,,,,,5280,0,3,,,,,2,,,,75,60
189792,set_tempo,,,,,96,1,0,,428571,,,,,,,,
189796,note_on,,,,,5280,0,4,,,,,3,,,,46,92
189882,note_on,,,,,94,0,3,,,,,2,,,,75,0
189884,note_on,,,,,2,0,3,,,,,2,,,,79,60
189890,note_on,,,,,94,0,4,,,,,3,,,,46,0
189892,note_on,,,,,0,0,4,,,,,3,,,,62,92
189892,note_on,,,,,2,0,4,,,,,3,,,,58,92
189892,note_on,,,,,0,0,4,,,,,3,,,,68,92
189916,note_on,,,,,0,0,3,,,,,2,,,,77,60
189916,note_on,,,,,32,0,3,,,,,2,,,,79,0
189948,note_on,,,,,0,0,3,,,,,2,,,,79,60
189948,note_on,,,,,32,0,3,,,,,2,,,,77,0
189980,note_on,,,,,32,0,3,,,,,2,,,,79,0
189980,note_on,,,,,0,0,3,,,,,2,,,,77,60
190028,note_on,,,,,0,0,3,,,,,2,,,,75,60
190028,note_on,,,,,48,0,3,,,,,2,,,,77,0
190052,note_on,,,,,160,0,4,,,,,3,,,,68,0
190052,note_on,,,,,0,0,4,,,,,3,,,,62,0
190052,note_on,,,,,24,0,3,,,,,2,,,,75,0
190052,note_on,,,,,0,0,4,,,,,3,,,,58,0
190052,note_on,,,,,0,0,3,,,,,2,,,,77,60
190074,note_on,,,,,22,0,3,,,,,2,,,,77,0
190076,note_on,,,,,2,0,3,,,,,2,,,,75,60
190077,note_on,,,,,416,0,7,,,,,6,,,,58,92
190078,note_on,,,,,416,0,1,,,,,0,,,,67,92
190078,note_on,,,,,0,0,1,,,,,0,,,,75,92
190079,note_on,,,,,416,0,8,,,,,7,,,,51,92
190080,note_on,,,,,416,0,5,,,,,4,,,,55,92
190080,note_on,,,,,0,0,5,,,,,4,,,,63,92
190082,note_on,,,,,416,0,2,,,,,1,,,,51,92
190082,note_on,,,,,0,0,2,,,,,1,,,,63,92
190084,note_on,,,,,32,0,4,,,,,3,,,,63,92
190084,note_on,,,,,0,0,4,,,,,3,,,,67,92
190085,note_on,,,,,416,0,6,,,,,5,,,,63,92
190086,note_on,,,,,416,0,9,,,,,8,,,,39,92
190236,end_of_track,,,,,0,1,3,,,,,,,,,,
190236,note_on,,,,,160,0,3,,,,,2,,,,75,0
190237,note_on,,,,,160,0,7,,,,,6,,,,58,0
190238,note_on,,,,,160,0,1,,,,,0,,,,75,0
190238,note_on,,,,,0,0,1,,,,,0,,,,67,0
190239,note_on,,,,,160,0,8,,,,,7,,,,51,0
190240,note_on,,,,,160,0,5,,,,,4,,,,63,0
190240,note_on,,,,,0,0,5,,,,,4,,,,55,0
190242,note_on,,,,,160,0,2,,,,,1,,,,63,0
190242,note_on,,,,,0,0,2,,,,,1,,,,51,0
190244,note_on,,,,,0,0,4,,,,,3,,,,63,0
190244,end_of_track,,,,,0,1,4,,,,,,,,,,
190244,note_on,,,,,160,0,4,,,,,3,,,,67,0
190245,note_on,,,,,160,0,6,,,,,5,,,,63,0
190246,note_on,,,,,160,0,9,,,,,8,,,,39,0
190271,note_on,,,,,32,0,8,,,,,7,,,,63,92
190278,note_on,,,,,32,0,9,,,,,8,,,,51,92
190303,note_on,,,,,32,0,8,,,,,7,,,,63,0
190303,note_on,,,,,0,0,8,,,,,7,,,,65,92
190310,note_on,,,,,32,0,9,,,,,8,,,,51,0
190310,note_on,,,,,0,0,9,,,,,8,,,,53,92
190335,note_on,,,,,32,0,8,,,,,7,,,,65,0
190335,note_on,,,,,0,0,8,,,,,7,,,,63,92
190342,note_on,,,,,32,0,9,,,,,8,,,,53,0
190342,note_on,,,,,0,0,9,,,,,8,,,,51,92
190366,note_on,,,,,0,0,1,,,,,0,,,,79,92
190366,note_on,,,,,128,0,1,,,,,0,,,,75,92
190367,note_on,,,,,0,0,8,,,,,7,,,,65,92
190367,note_on,,,,,32,0,8,,,,,7,,,,63,0
190368,note_on,,,,,128,0,5,,,,,4,,,,79,92
190373,note_on,,,,,128,0,6,,,,,5,,,,75,92
190374,note_on,,,,,0,0,9,,,,,8,,,,53,92
190374,note_on,,,,,32,0,9,,,,,8,,,,51,0
190398,note_on,,,,,32,0,1,,,,,0,,,,79,0
190398,note_on,,,,,0,0,1,,,,,0,,,,75,0
190399,note_on,,,,,32,0,8,,,,,7,,,,65,0
190399,note_on,,,,,0,0,8,,,,,7,,,,63,92
190400,note_on,,,,,32,0,5,,,,,4,,,,79,0
190405,note_on,,,,,32,0,6,,,,,5,,,,75,0
190406,note_on,,,,,0,0,9,,,,,8,,,,51,92
190406,note_on,,,,,32,0,9,,,,,8,,,,53,0
190431,note_on,,,,,32,0,8,,,,,7,,,,63,0
190431,note_on,,,,,0,0,8,,,,,7,,,,65,92
190438,note_on,,,,,32,0,9,,,,,8,,,,51,0
190438,note_on,,,,,0,0,9,,,,,8,,,,53,92
190462,note_on,,,,,0,0,1,,,,,0,,,,79,92
190462,note_on,,,,,64,0,1,,,,,0,,,,75,92
190463,note_on,,,,,32,0,8,,,,,7,,,,65,0
190463,note_on,,,,,0,0,8,,,,,7,,,,63,92
190464,note_on,,,,,64,0,5,,,,,4,,,,79,92
190469,note_on,,,,,64,0,6,,,,,5,,,,75,92
190470,note_on,,,,,0,0,9,,,,,8,,,,51,92
190470,note_on,,,,,32,0,9,,,,,8,,,,53,0
190494,note_on,,,,,0,0,1,,,,,0,,,,75,0
190494,note_on,,,,,32,0,1,,,,,0,,,,79,0
190495,note_on,,,,,0,0,8,,,,,7,,,,65,92
190495,note_on,,,,,32,0,8,,,,,7,,,,63,0
190496,note_on,,,,,32,0,5,,,,,4,,,,79,0
190501,note_on,,,,,32,0,6,,,,,5,,,,75,0
190502,note_on,,,,,32,0,9,,,,,8,,,,51,0
190502,note_on,,,,,0,0,9,,,,,8,,,,53,92
190527,note_on,,,,,32,0,8,,,,,7,,,,65,0
190527,note_on,,,,,0,0,8,,,,,7,,,,63,92
190534,note_on,,,,,0,0,9,,,,,8,,,,51,92
190534,note_on,,,,,32,0,9,,,,,8,,,,53,0
190558,note_on,,,,,64,0,1,,,,,0,,,,75,92
190558,note_on,,,,,0,0,1,,,,,0,,,,79,92
190559,note_on,,,,,32,0,8,,,,,7,,,,63,0
190559,note_on,,,,,0,0,8,,,,,7,,,,62,92
190560,note_on,,,,,64,0,5,,,,,4,,,,79,92
190565,note_on,,,,,64,0,6,,,,,5,,,,75,92
190566,note_on,,,,,0,0,9,,,,,8,,,,50,92
190566,note_on,,,,,32,0,9,,,,,8,,,,51,0
190590,note_on,,,,,0,0,1,,,,,0,,,,75,0
190590,note_on,,,,,32,0,1,,,,,0,,,,79,0
190592,note_on,,,,,32,0,5,,,,,4,,,,79,0
190597,note_on,,,,,32,0,6,,,,,5,,,,75,0
190607,note_on,,,,,48,0,8,,,,,7,,,,62,0
190607,note_on,,,,,0,0,8,,,,,7,,,,60,92
190614,note_on,,,,,48,0,9,,,,,8,,,,50,0
190614,note_on,,,,,0,0,9,,,,,8,,,,48,92
190653,note_on,,,,,416,0,7,,,,,6,,,,67,92
190653,note_on,,,,,46,0,8,,,,,7,,,,60,0
190654,note_on,,,,,0,0,1,,,,,0,,,,79,92
190654,note_on,,,,,64,0,1,,,,,0,,,,75,92
190655,note_on,,,,,2,0,8,,,,,7,,,,59,92
190656,note_on,,,,,64,0,5,,,,,4,,,,79,92
190658,note_on,,,,,416,0,2,,,,,1,,,,55,92
190658,note_on,,,,,0,0,2,,,,,1,,,,67,92
190660,note_on,,,,,46,0,9,,,,,8,,,,48,0
190661,note_on,,,,,64,0,6,,,,,5,,,,75,92
190662,note_on,,,,,2,0,9,,,,,8,,,,47,92
190750,note_on,,,,,96,0,1,,,,,0,,,,79,0
190750,note_on,,,,,0,0,1,,,,,0,,,,75,0
190750,note_on,,,,,0,0,1,,,,,0,,,,74,92
190750,note_on,,,,,0,0,1,,,,,0,,,,77,92
190752,note_on,,,,,96,0,5,,,,,4,,,,79,0
190752,note_on,,,,,0,0,5,,,,,4,,,,77,92
190757,note_on,,,,,0,0,6,,,,,5,,,,74,92
190757,note_on,,,,,96,0,6,,,,,5,,,,75,0
190815,note_on,,,,,160,0,8,,,,,7,,,,59,0
190822,note_on,,,,,160,0,9,,,,,8,,,,47,0
190846,note_on,,,,,0,0,1,,,,,0,,,,75,92
190846,note_on,,,,,0,0,1,,,,,0,,,,72,92
190846,note_on,,,,,0,0,1,,,,,0,,,,74,0
190846,note_on,,,,,96,0,1,,,,,0,,,,77,0
190846,note_on,,,,,94,0,5,,,,,4,,,,77,0
190847,note_on,,,,,32,0,8,,,,,7,,,,60,92
190848,note_on,,,,,2,0,5,,,,,4,,,,75,92
190851,note_on,,,,,94,0,6,,,,,5,,,,74,0
190853,note_on,,,,,2,0,6,,,,,5,,,,72,92
190854,note_on,,,,,32,0,9,,,,,8,,,,48,92
190879,note_on,,,,,0,0,8,,,,,7,,,,62,92
190879,note_on,,,,,32,0,8,,,,,7,,,,60,0
190880,note_on,,,,,32,0,5,,,,,4,,,,75,0
190885,note_on,,,,,32,0,6,,,,,5,,,,72,0
190886,note_on,,,,,0,0,9,,,,,8,,,,50,92
190886,note_on,,,,,32,0,9,,,,,8,,,,48,0
190911,note_on,,,,,32,0,8,,,,,7,,,,62,0
190911,note_on,,,,,0,0,8,,,,,7,,,,60,92
190918,note_on,,,,,32,0,9,,,,,8,,,,50,0
190918,note_on,,,,,0,0,9,,,,,8,,,,48,92
190940,note_on,,,,,94,0,1,,,,,0,,,,75,0
190940,note_on,,,,,0,0,1,,,,,0,,,,72,0
190942,note_on,,,,,0,0,1,,,,,0,,,,75,92
190942,note_on,,,,,2,0,1,,,,,0,,,,72,92
190943,note_on,,,,,0,0,8,,,,,7,,,,62,92
190943,note_on,,,,,32,0,8,,,,,7,,,,60,0
190944,note_on,,,,,64,0,5,,,,,4,,,,75,92
190949,note_on,,,,,64,0,6,,,,,5,,,,72,92
190950,note_on,,,,,0,0,9,,,,,8,,,,50,92
190950,note_on,,,,,32,0,9,,,,,8,,,,48,0
190974,note_on,,,,,0,0,1,,,,,0,,,,72,0
190974,note_on,,,,,32,0,1,,,,,0,,,,75,0
190975,note_on,,,,,32,0,8,,,,,7,,,,62,0
190975,note_on,,,,,0,0,8,,,,,7,,,,60,92
190976,note_on,,,,,32,0,5,,,,,4,,,,75,0
190981,note_on,,,,,32,0,6,,,,,5,,,,72,0
190982,note_on,,,,,32,0,9,,,,,8,,,,50,0
190982,note_on,,,,,0,0,9,,,,,8,,,,48,92
190989,note_on,,,,,336,0,7,,,,,6,,,,67,0
191007,note_on,,,,,32,0,8,,,,,7,,,,60,0
191007,note_on,,,,,0,0,8,,,,,7,,,,62,92
191014,note_on,,,,,32,0,9,,,,,8,,,,48,0
191014,note_on,,,,,0,0,9,,,,,8,,,,50,92
191038,note_on,,,,,0,0,1,,,,,0,,,,75,92
191038,note_on,,,,,64,0,1,,,,,0,,,,72,92
191039,note_on,,,,,0,0,8,,,,,7,,,,60,92
191039,note_on,,,,,32,0,8,,,,,7,,,,62,0
191040,note_on,,,,,64,0,5,,,,,4,,,,75,92
191045,note_on,,,,,64,0,6,,,,,5,,,,72,92
191046,note_on,,,,,32,0,9,,,,,8,,,,50,0
191046,note_on,,,,,0,0,9,,,,,8,,,,48,92
191070,note_on,,,,,0,0,1,,,,,0,,,,72,0
191070,note_on,,,,,32,0,1,,,,,0,,,,75,0
191071,note_on,,,,,0,0,8,,,,,7,,,,62,92
191071,note_on,,,,,32,0,8,,,,,7,,,,60,0
191072,note_on,,,,,32,0,5,,,,,4,,,,75,0
191077,note_on,,,,,32,0,6,,,,,5,,,,72,0
191078,note_on,,,,,32,0,9,,,,,8,,,,48,0
191078,note_on,,,,,0,0,9,,,,,8,,,,50,92
191103,note_on,,,,,32,0,8,,,,,7,,,,62,0
191103,note_on,,,,,0,0,8,,,,,7,,,,60,92
191110,note_on,,,,,32,0,9,,,,,8,,,,50,0
191110,note_on,,,,,0,0,9,,,,,8,,,,48,92
191134,note_on,,,,,64,0,1,,,,,0,,,,72,92
191134,note_on,,,,,0,0,1,,,,,0,,,,75,92
191135,note_on,,,,,32,0,8,,,,,7,,,,60,0
191135,note_on,,,,,0,0,8,,,,,7,,,,58,92
191136,note_on,,,,,64,0,5,,,,,4,,,,75,92
191141,note_on,,,,,64,0,6,,,,,5,,,,72,92
191142,note_on,,,,,0,0,9,,,,,8,,,,46,92
191142,note_on,,,,,32,0,9,,,,,8,,,,48,0
191166,note_on,,,,,32,0,1,,,,,0,,,,75,0
191166,note_on,,,,,0,0,1,,,,,0,,,,72,0
191168,note_on,,,,,32,0,5,,,,,4,,,,75,0
191173,note_on,,,,,32,0,6,,,,,5,,,,72,0
191183,note_on,,,,,0,0,8,,,,,7,,,,56,92
191183,note_on,,,,,48,0,8,,,,,7,,,,58,0
191186,note_on,,,,,0,0,2,,,,,1,,,,55,0
191186,note_on,,,,,528,0,2,,,,,1,,,,67,0
191190,note_on,,,,,48,0,9,,,,,8,,,,46,0
191190,note_on,,,,,0,0,9,,,,,8,,,,44,92
191229,note_on,,,,,240,0,7,,,,,6,,,,63,92
191229,note_on,,,,,46,0,8,,,,,7,,,,56,0
191230,note_on,,,,,0,0,1,,,,,0,,,,75,92
191230,note_on,,,,,64,0,1,,,,,0,,,,72,92
191231,note_on,,,,,2,0,8,,,,,7,,,,55,92
191232,note_on,,,,,64,0,5,,,,,4,,,,75,92
191234,note_on,,,,,0,0,2,,,,,1,,,,63,92
191234,note_on,,,,,48,0,2,,,,,1,,,,51,92
191236,note_on,,,,,46,0,9,,,,,8,,,,44,0
191237,note_on,,,,,64,0,6,,,,,5,,,,72,92
191238,note_on,,,,,2,0,9,,,,,8,,,,43,92
191326,note_on,,,,,0,0,1,,,,,0,,,,70,92
191326,note_on,,,,,96,0,1,,,,,0,,,,75,0
191326,note_on,,,,,0,0,1,,,,,0,,,,72,0
191326,note_on,,,,,0,0,1,,,,,0,,,,73,92
191328,note_on,,,,,96,0,5,,,,,4,,,,75,0
191328,note_on,,,,,0,0,5,,,,,4,,,,73,92
191333,note_on,,,,,0,0,6,,,,,5,,,,70,92
191333,note_on,,,,,96,0,6,,,,,5,,,,72,0
191391,note_on,,,,,160,0,8,,,,,7,,,,55,0
191398,note_on,,,,,160,0,9,,,,,8,,,,43,0
191422,note_on,,,,,96,0,1,,,,,0,,,,73,0
191422,note_on,,,,,0,0,1,,,,,0,,,,68,92
191422,note_on,,,,,0,0,1,,,,,0,,,,72,92
191422,note_on,,,,,0,0,1,,,,,0,,,,70,0
191422,note_on,,,,,94,0,5,,,,,4,,,,73,0
191423,note_on,,,,,32,0,8,,,,,7,,,,56,92
191424,note_on,,,,,2,0,5,,,,,4,,,,72,92
191427,note_on,,,,,94,0,6,,,,,5,,,,70,0
191429,note_on,,,,,2,0,6,,,,,5,,,,68,92
191430,note_on,,,,,32,0,9,,,,,8,,,,44,92
191455,note_on,,,,,0,0,8,,,,,7,,,,58,92
191455,note_on,,,,,32,0,8,,,,,7,,,,56,0
191456,note_on,,,,,32,0,5,,,,,4,,,,72,0
191461,note_on,,,,,32,0,6,,,,,5,,,,68,0
191462,note_on,,,,,32,0,9,,,,,8,,,,44,0
191462,note_on,,,,,0,0,9,,,,,8,,,,46,92
191487,note_on,,,,,32,0,8,,,,,7,,,,58,0
191487,note_on,,,,,0,0,8,,,,,7,,,,56,92
191494,note_on,,,,,0,0,9,,,,,8,,,,44,92
191494,note_on,,,,,32,0,9,,,,,8,,,,46,0
191516,note_on,,,,,94,0,1,,,,,0,,,,72,0
191516,note_on,,,,,0,0,1,,,,,0,,,,68,0
191518,note_on,,,,,0,0,1,,,,,0,,,,84,92
191518,note_on,,,,,2,0,1,,,,,0,,,,80,92
191519,note_on,,,,,32,0,8,,,,,7,,,,56,0
191519,note_on,,,,,0,0,8,,,,,7,,,,58,92
191520,note_on,,,,,64,0,5,,,,,4,,,,72,92
191525,note_on,,,,,64,0,6,,,,,5,,,,68,92
191526,note_on,,,,,0,0,9,,,,,8,,,,46,92
191526,note_on,,,,,32,0,9,,,,,8,,,,44,0
191550,note_on,,,,,32,0,1,,,,,0,,,,84,0
191550,note_on,,,,,0,0,1,,,,,0,,,,80,0
191551,note_on,,,,,32,0,8,,,,,7,,,,58,0
191551,note_on,,,,,0,0,8,,,,,7,,,,56,92
191552,note_on,,,,,32,0,5,,,,,4,,,,72,0
191557,note_on,,,,,32,0,6,,,,,5,,,,68,0
191558,note_on,,,,,32,0,9,,,,,8,,,,46,0
191558,note_on,,,,,0,0,9,,,,,8,,,,44,92
191565,note_on,,,,,336,0,7,,,,,6,,,,63,0
191583,note_on,,,,,0,0,8,,,,,7,,,,58,92
191583,note_on,,,,,32,0,8,,,,,7,,,,56,0
191590,note_on,,,,,0,0,9,,,,,8,,,,46,92
191590,note_on,,,,,32,0,9,,,,,8,,,,44,0
191614,note_on,,,,,64,0,1,,,,,0,,,,80,92
191614,note_on,,,,,0,0,1,,,,,0,,,,84,92
191615,note_on,,,,,32,0,8,,,,,7,,,,58,0
191615,note_on,,,,,0,0,8,,,,,7,,,,56,92
191616,note_on,,,,,64,0,5,,,,,4,,,,72,92
191621,note_on,,,,,64,0,6,,,,,5,,,,68,92
191622,note_on,,,,,32,0,9,,,,,8,,,,46,0
191622,note_on,,,,,0,0,9,,,,,8,,,,44,92
191646,note_on,,,,,0,0,1,,,,,0,,,,80,0
191646,note_on,,,,,32,0,1,,,,,0,,,,84,0
191647,note_on,,,,,32,0,8,,,,,7,,,,56,0
191647,note_on,,,,,0,0,8,,,,,7,,,,58,92
191648,note_on,,,,,32,0,5,,,,,4,,,,72,0
191653,note_on,,,,,32,0,6,,,,,5,,,,68,0
191654,note_on,,,,,0,0,9,,,,,8,,,,46,92
191654,note_on,,,,,32,0,9,,,,,8,,,,44,0
191679,note_on,,,,,32,0,8,,,,,7,,,,58,0
191679,note_on,,,,,0,0,8,,,,,7,,,,56,92
191686,note_on,,,,,0,0,9,,,,,8,,,,44,92
191686,note_on,,,,,32,0,9,,,,,8,,,,46,0
191710,note_on,,,,,64,0,1,,,,,0,,,,80,92
191710,note_on,,,,,0,0,1,,,,,0,,,,84,92
191711,note_on,,,,,32,0,8,,,,,7,,,,56,0
191711,note_on,,,,,0,0,8,,,,,7,,,,55,92
191712,note_on,,,,,64,0,5,,,,,4,,,,72,92
191717,note_on,,,,,64,0,6,,,,,5,,,,68,92
191718,note_on,,,,,32,0,9,,,,,8,,,,44,0
191718,note_on,,,,,0,0,9,,,,,8,,,,43,92
191742,note_on,,,,,0,0,1,,,,,0,,,,80,0
191742,note_on,,,,,32,0,1,,,,,0,,,,84,0
191744,note_on,,,,,32,0,5,,,,,4,,,,72,0
191749,note_on,,,,,32,0,6,,,,,5,,,,68,0
191759,note_on,,,,,48,0,8,,,,,7,,,,55,0
191759,note_on,,,,,0,0,8,,,,,7,,,,53,92
191762,note_on,,,,,0,0,2,,,,,1,,,,51,0
191762,note_on,,,,,528,0,2,,,,,1,,,,63,0
191766,note_on,,,,,48,0,9,,,,,8,,,,43,0
191766,note_on,,,,,0,0,9,,,,,8,,,,41,92
191805,note_on,,,,,46,0,8,,,,,7,,,,53,0
191805,note_on,,,,,240,0,7,,,,,6,,,,60,92
191806,note_on,,,,,0,0,1,,,,,0,,,,84,92
191806,note_on,,,,,64,0,1,,,,,0,,,,80,92
191807,note_on,,,,,2,0,8,,,,,7,,,,52,92
191808,note_on,,,,,64,0,5,,,,,4,,,,72,92
191812,note_on,,,,,46,0,9,,,,,8,,,,41,0
191813,note_on,,,,,64,0,6,,,,,5,,,,68,92
191814,note_on,,,,,2,0,9,,,,,8,,,,40,92
191902,note_on,,,,,0,0,1,,,,,0,,,,80,0
191902,note_on,,,,,96,0,1,,,,,0,,,,84,0
191902,note_on,,,,,0,0,1,,,,,0,,,,79,92
191902,note_on,,,,,0,0,1,,,,,0,,,,82,92
191904,note_on,,,,,96,0,5,,,,,4,,,,72,0
191904,note_on,,,,,0,0,5,,,,,4,,,,70,92
191909,note_on,,,,,96,0,6,,,,,5,,,,68,0
191909,note_on,,,,,0,0,6,,,,,5,,,,67,92
191998,note_on,,,,,0,0,1,,,,,0,,,,80,92
191998,note_on,,,,,94,0,5,,,,,4,,,,70,0
191998,note_on,,,,,0,0,1,,,,,0,,,,77,92
191998,note_on,,,,,96,0,1,,,,,0,,,,82,0
191998,note_on,,,,,0,0,1,,,,,0,,,,79,0
191999,note_on,,,,,192,0,8,,,,,7,,,,52,0
191999,note_on,,,,,0,0,8,,,,,7,,,,53,92
192000,note_on,,,,,2,0,5,,,,,4,,,,68,92
192003,note_on,,,,,94,0,6,,,,,5,,,,67,0
192005,note_on,,,,,2,0,6,,,,,5,,,,65,92
192006,note_on,,,,,192,0,9,,,,,8,,,,40,0
192006,note_on,,,,,0,0,9,,,,,8,,,,41,92
192032,note_on,,,,,32,0,5,,,,,4,,,,68,0
192037,note_on,,,,,32,0,6,,,,,5,,,,65,0
192061,note_on,,,,,256,0,7,,,,,6,,,,60,0
192092,note_on,,,,,94,0,1,,,,,0,,,,80,0
192092,note_on,,,,,0,0,1,,,,,0,,,,77,0
192093,note_on,,,,,32,0,7,,,,,6,,,,60,92
192093,note_on,,,,,94,0,8,,,,,7,,,,53,0
192094,note_on,,,,,2,0,1,,,,,0,,,,72,92
192094,note_on,,,,,0,0,1,,,,,0,,,,80,92
192095,note_on,,,,,2,0,8,,,,,7,,,,51,92
192096,note_on,,,,,64,0,5,,,,,4,,,,80,92
192098,note_on,,,,,336,0,2,,,,,1,,,,65,92
192100,note_on,,,,,94,0,9,,,,,8,,,,41,0
192101,note_on,,,,,64,0,6,,,,,5,,,,77,92
192102,note_on,,,,,2,0,9,,,,,8,,,,39,92
192126,note_on,,,,,0,0,1,,,,,0,,,,72,0
192126,note_on,,,,,32,0,1,,,,,0,,,,80,0
192128,note_on,,,,,32,0,5,,,,,4,,,,80,0
192133,note_on,,,,,32,0,6,,,,,5,,,,77,0
192187,note_on,,,,,94,0,7,,,,,6,,,,60,0
192189,note_on,,,,,94,0,8,,,,,7,,,,51,0
192189,note_on,,,,,2,0,7,,,,,6,,,,65,92
192190,note_on,,,,,0,0,1,,,,,0,,,,80,92
192190,note_on,,,,,64,0,1,,,,,0,,,,77,92
192191,note_on,,,,,2,0,8,,,,,7,,,,50,92
192192,note_on,,,,,64,0,5,,,,,4,,,,80,92
192192,note_on,,,,,94,0,2,,,,,1,,,,65,0
192194,note_on,,,,,2,0,2,,,,,1,,,,65,92
192196,note_on,,,,,94,0,9,,,,,8,,,,39,0
192197,note_on,,,,,64,0,6,,,,,5,,,,77,92
192198,note_on,,,,,2,0,9,,,,,8,,,,38,92
192222,note_on,,,,,32,0,1,,,,,0,,,,80,0
192222,note_on,,,,,0,0,1,,,,,0,,,,77,0
192224,note_on,,,,,32,0,5,,,,,4,,,,80,0
192229,note_on,,,,,32,0,6,,,,,5,,,,77,0
192283,note_on,,,,,94,0,7,,,,,6,,,,65,0
192285,note_on,,,,,2,0,7,,,,,6,,,,63,92
192285,note_on,,,,,94,0,8,,,,,7,,,,50,0
192286,note_on,,,,,64,0,1,,,,,0,,,,75,92
192286,note_on,,,,,0,0,1,,,,,0,,,,80,92
192287,note_on,,,,,2,0,8,,,,,7,,,,48,92
192288,note_on,,,,,94,0,2,,,,,1,,,,65,0
192288,note_on,,,,,64,0,5,,,,,4,,,,80,92
192290,note_on,,,,,2,0,2,,,,,1,,,,65,92
192292,note_on,,,,,94,0,9,,,,,8,,,,38,0
192293,note_on,,,,,64,0,6,,,,,5,,,,77,92
192294,note_on,,,,,2,0,9,,,,,8,,,,36,92
192318,note_on,,,,,0,0,1,,,,,0,,,,75,0
192318,note_on,,,,,32,0,1,,,,,0,,,,80,0
192320,note_on,,,,,32,0,5,,,,,4,,,,80,0
192325,note_on,,,,,32,0,6,,,,,5,,,,77,0
192379,note_on,,,,,94,0,7,,,,,6,,,,63,0
192381,note_on,,,,,94,0,8,,,,,7,,,,48,0
192381,note_on,,,,,2,0,7,,,,,6,,,,62,92
192382,note_on,,,,,64,0,1,,,,,0,,,,74,92
192382,note_on,,,,,0,0,1,,,,,0,,,,80,92
192383,note_on,,,,,2,0,8,,,,,7,,,,46,92
192384,note_on,,,,,94,0,2,,,,,1,,,,65,0
192384,note_on,,,,,64,0,5,,,,,4,,,,80,92
192386,note_on,,,,,2,0,2,,,,,1,,,,58,92
192386,note_on,,,,,0,0,2,,,,,1,,,,65,92
192388,note_on,,,,,94,0,9,,,,,8,,,,36,0
192389,note_on,,,,,64,0,6,,,,,5,,,,77,92
192390,note_on,,,,,2,0,9,,,,,8,,,,34,92
192430,note_on,,,,,46,0,5,,,,,4,,,,80,0
192432,note_on,,,,,2,0,5,,,,,4,,,,79,92
192435,note_on,,,,,46,0,6,,,,,5,,,,77,0
192437,note_on,,,,,2,0,6,,,,,5,,,,75,92
192475,note_on,,,,,94,0,7,,,,,6,,,,62,0
192477,note_on,,,,,2,0,7,,,,,6,,,,62,92
192477,note_on,,,,,94,0,8,,,,,7,,,,46,0
192478,note_on,,,,,46,0,5,,,,,4,,,,79,0
192479,note_on,,,,,2,0,8,,,,,7,,,,46,92
192480,note_on,,,,,2,0,5,,,,,4,,,,77,92
192483,note_on,,,,,46,0,6,,,,,5,,,,75,0
192484,note_on,,,,,94,0,9,,,,,8,,,,34,0
192485,note_on,,,,,2,0,6,,,,,5,,,,74,92
192486,note_on,,,,,2,0,9,,,,,8,,,,34,92
192526,note_on,,,,,46,0,5,,,,,4,,,,77,0
192528,note_on,,,,,2,0,5,,,,,4,,,,75,92
192531,note_on,,,,,46,0,6,,,,,5,,,,74,0
192533,note_on,,,,,2,0,6,,,,,5,,,,72,92
192571,note_on,,,,,94,0,7,,,,,6,,,,62,0
192573,note_on,,,,,94,0,8,,,,,7,,,,46,0
192573,note_on,,,,,2,0,7,,,,,6,,,,62,92
192574,note_on,,,,,46,0,5,,,,,4,,,,75,0
192575,note_on,,,,,2,0,8,,,,,7,,,,46,92
192576,note_on,,,,,2,0,5,,,,,4,,,,74,92
192579,note_on,,,,,46,0,6,,,,,5,,,,72,0
192580,note_on,,,,,94,0,9,,,,,8,,,,34,0
192581,note_on,,,,,2,0,6,,,,,5,,,,70,92
192582,note_on,,,,,2,0,9,,,,,8,,,,34,92
192622,note_on,,,,,46,0,5,,,,,4,,,,74,0
192624,note_on,,,,,2,0,5,,,,,4,,,,72,92
192627,note_on,,,,,46,0,6,,,,,5,,,,70,0
192629,note_on,,,,,2,0,6,,,,,5,,,,68,92
192667,note_on,,,,,94,0,7,,,,,6,,,,62,0
192669,note_on,,,,,94,0,8,,,,,7,,,,46,0
192669,note_on,,,,,2,0,7,,,,,6,,,,62,92
192670,note_on,,,,,46,0,5,,,,,4,,,,72,0
192671,note_on,,,,,2,0,8,,,,,7,,,,46,92
192672,note_on,,,,,2,0,5,,,,,4,,,,70,92
192675,note_on,,,,,46,0,6,,,,,5,,,,68,0
192676,note_on,,,,,94,0,9,,,,,8,,,,34,0
192677,note_on,,,,,2,0,6,,,,,5,,,,67,92
192678,note_on,,,,,2,0,9,,,,,8,,,,34,92
192718,note_on,,,,,336,0,1,,,,,0,,,,80,0
192718,note_on,,,,,46,0,5,,,,,4,,,,70,0
192718,note_on,,,,,0,0,1,,,,,0,,,,74,0
192720,note_on,,,,,2,0,5,,,,,4,,,,68,92
192722,note_on,,,,,0,0,2,,,,,1,,,,58,0
192722,note_on,,,,,336,0,2,,,,,1,,,,65,0
192723,note_on,,,,,46,0,6,,,,,5,,,,67,0
192725,note_on,,,,,2,0,6,,,,,5,,,,65,92
192763,note_on,,,,,94,0,7,,,,,6,,,,62,0
192765,note_on,,,,,94,0,8,,,,,7,,,,46,0
192765,note_on,,,,,2,0,7,,,,,6,,,,63,92
192766,note_on,,,,,46,0,5,,,,,4,,,,68,0
192766,note_on,,,,,0,0,1,,,,,0,,,,79,92
192766,note_on,,,,,48,0,1,,,,,0,,,,75,92
192767,note_on,,,,,2,0,8,,,,,7,,,,48,92
192768,note_on,,,,,2,0,5,,,,,4,,,,67,92
192770,note_on,,,,,0,0,2,,,,,1,,,,63,92
192770,note_on,,,,,48,0,2,,,,,1,,,,51,92
192771,note_on,,,,,46,0,6,,,,,5,,,,65,0
192772,note_on,,,,,94,0,9,,,,,8,,,,34,0
192773,note_on,,,,,2,0,6,,,,,5,,,,63,92
192774,note_on,,,,,2,0,9,,,,,8,,,,36,92
192859,note_on,,,,,94,0,7,,,,,6,,,,63,0
192861,note_on,,,,,94,0,8,,,,,7,,,,48,0
192861,note_on,,,,,2,0,7,,,,,6,,,,63,92
192862,note_on,,,,,94,0,5,,,,,4,,,,67,0
192863,note_on,,,,,2,0,8,,,,,7,,,,48,92
192864,note_on,,,,,2,0,5,,,,,4,,,,75,92
192867,note_on,,,,,94,0,6,,,,,5,,,,63,0
192868,note_on,,,,,94,0,9,,,,,8,,,,36,0
192869,note_on,,,,,2,0,6,,,,,5,,,,67,92
192870,note_on,,,,,2,0,9,,,,,8,,,,36,92
192926,note_on,,,,,0,0,1,,,,,0,,,,75,0
192926,note_on,,,,,160,0,1,,,,,0,,,,79,0
192930,note_on,,,,,160,0,2,,,,,1,,,,63,0
192930,note_on,,,,,0,0,2,,,,,1,,,,51,0
192955,note_on,,,,,94,0,7,,,,,6,,,,63,0
192957,note_on,,,,,94,0,8,,,,,7,,,,48,0
192957,note_on,,,,,2,0,7,,,,,6,,,,63,92
192958,note_on,,,,,94,0,5,,,,,4,,,,75,0
192959,note_on,,,,,2,0,8,,,,,7,,,,44,92
192960,note_on,,,,,2,0,5,,,,,4,,,,74,92
192963,note_on,,,,,94,0,6,,,,,5,,,,67,0
192964,note_on,,,,,94,0,9,,,,,8,,,,36,0
192965,note_on,,,,,2,0,6,,,,,5,,,,70,92
192966,note_on,,,,,2,0,9,,,,,8,,,,32,92
192984,note_on,,,,,0,0,5,,,,,4,,,,72,92
192984,note_on,,,,,24,0,5,,,,,4,,,,74,0
192989,note_on,,,,,0,0,6,,,,,5,,,,68,92
192989,note_on,,,,,24,0,6,,,,,5,,,,70,0
193051,note_on,,,,,94,0,7,,,,,6,,,,63,0
193053,note_on,,,,,2,0,7,,,,,6,,,,60,92
193053,note_on,,,,,94,0,8,,,,,7,,,,44,0
193054,note_on,,,,,0,0,1,,,,,0,,,,80,92
193054,note_on,,,,,128,0,1,,,,,0,,,,77,92
193055,note_on,,,,,2,0,8,,,,,7,,,,44,92
193056,note_on,,,,,0,0,5,,,,,4,,,,70,92
193056,note_on,,,,,72,0,5,,,,,4,,,,72,0
193060,note_on,,,,,94,0,9,,,,,8,,,,32,0
193061,note_on,,,,,0,0,6,,,,,5,,,,67,92
193061,note_on,,,,,72,0,6,,,,,5,,,,68,0
193062,note_on,,,,,2,0,9,,,,,8,,,,32,92
193104,note_on,,,,,48,0,5,,,,,4,,,,70,0
193104,note_on,,,,,0,0,5,,,,,4,,,,68,92
193109,note_on,,,,,48,0,6,,,,,5,,,,67,0
193109,note_on,,,,,0,0,6,,,,,5,,,,65,92
193147,note_on,,,,,94,0,7,,,,,6,,,,60,0
193148,note_on,,,,,0,0,1,,,,,0,,,,77,0
193148,note_on,,,,,94,0,1,,,,,0,,,,80,0
193149,note_on,,,,,2,0,7,,,,,6,,,,58,92
193149,note_on,,,,,94,0,8,,,,,7,,,,44,0
193150,note_on,,,,,0,0,1,,,,,0,,,,79,92
193150,note_on,,,,,46,0,5,,,,,4,,,,68,0
193150,note_on,,,,,2,0,1,,,,,0,,,,75,92
193151,note_on,,,,,2,0,8,,,,,7,,,,46,92
193152,note_on,,,,,2,0,5,,,,,4,,,,67,92
193154,note_on,,,,,224,0,2,,,,,1,,,,63,92
193154,note_on,,,,,0,0,2,,,,,1,,,,67,92
193155,note_on,,,,,46,0,6,,,,,5,,,,65,0
193156,note_on,,,,,94,0,9,,,,,8,,,,32,0
193157,note_on,,,,,2,0,6,,,,,5,,,,63,92
193158,note_on,,,,,2,0,9,,,,,8,,,,34,92
193243,note_on,,,,,94,0,7,,,,,6,,,,58,0
193245,note_on,,,,,2,0,7,,,,,6,,,,58,92
193245,note_on,,,,,94,0,8,,,,,7,,,,46,0
193247,note_on,,,,,2,0,8,,,,,7,,,,46,92
193252,note_on,,,,,94,0,9,,,,,8,,,,34,0
193254,note_on,,,,,2,0,9,,,,,8,,,,34,92
193310,note_on,,,,,0,0,1,,,,,0,,,,75,0
193310,note_on,,,,,160,0,1,,,,,0,,,,79,0
193312,note_on,,,,,160,0,5,,,,,4,,,,67,0
193314,note_on,,,,,160,0,2,,,,,1,,,,67,0
193314,note_on,,,,,0,0,2,,,,,1,,,,63,0
193317,note_on,,,,,160,0,6,,,,,5,,,,63,0
193339,note_on,,,,,94,0,7,,,,,6,,,,58,0
193341,note_on,,,,,94,0,8,,,,,7,,,,46,0
193341,note_on,,,,,2,0,7,,,,,6,,,,56,92
193342,note_on,,,,,32,0,1,,,,,0,,,,74,92
193342,note_on,,,,,0,0,1,,,,,0,,,,77,92
193343,note_on,,,,,2,0,8,,,,,7,,,,46,92
193344,note_on,,,,,32,0,5,,,,,4,,,,67,92
193346,note_on,,,,,32,0,2,,,,,1,,,,58,92
193346,note_on,,,,,0,0,2,,,,,1,,,,65,92
193348,note_on,,,,,94,0,9,,,,,8,,,,34,0
193349,note_on,,,,,32,0,6,,,,,5,,,,62,92
193350,note_on,,,,,2,0,9,,,,,8,,,,34,92
193368,note_on,,,,,24,0,5,,,,,4,,,,67,0
193368,note_on,,,,,0,0,5,,,,,4,,,,65,92
193374,note_on,,,,,0,0,1,,,,,0,,,,75,92
193374,note_on,,,,,0,0,1,,,,,0,,,,79,92
193374,note_on,,,,,0,0,1,,,,,0,,,,74,0
193374,note_on,,,,,32,0,1,,,,,0,,,,77,0
193392,note_on,,,,,0,0,5,,,,,4,,,,67,92
193392,note_on,,,,,24,0,5,,,,,4,,,,65,0
193406,note_on,,,,,32,0,1,,,,,0,,,,79,0
193406,note_on,,,,,0,0,1,,,,,0,,,,77,92
193406,note_on,,,,,0,0,1,,,,,0,,,,75,0
193406,note_on,,,,,0,0,1,,,,,0,,,,74,92
193416,note_on,,,,,0,0,5,,,,,4,,,,65,92
193416,note_on,,,,,24,0,5,,,,,4,,,,67,0
193435,note_on,,,,,94,0,7,,,,,6,,,,56,0
193437,note_on,,,,,94,0,8,,,,,7,,,,46,0
193437,note_on,,,,,2,0,7,,,,,6,,,,56,92
193438,note_on,,,,,0,0,1,,,,,0,,,,75,92
193438,note_on,,,,,0,0,1,,,,,0,,,,72,92
193438,note_on,,,,,0,0,1,,,,,0,,,,74,0
193438,note_on,,,,,32,0,1,,,,,0,,,,77,0
193439,note_on,,,,,2,0,8,,,,,7,,,,46,92
193440,note_on,,,,,24,0,5,,,,,4,,,,65,0
193440,note_on,,,,,0,0,5,,,,,4,,,,67,92
193444,note_on,,,,,94,0,9,,,,,8,,,,34,0
193446,note_on,,,,,2,0,9,,,,,8,,,,34,92
193464,note_on,,,,,24,0,5,,,,,4,,,,67,0
193464,note_on,,,,,0,0,5,,,,,4,,,,65,92
193486,note_on,,,,,0,0,1,,,,,0,,,,77,92
193486,note_on,,,,,0,0,1,,,,,0,,,,72,0
193486,note_on,,,,,48,0,1,,,,,0,,,,75,0
193486,note_on,,,,,0,0,1,,,,,0,,,,74,92
193488,note_on,,,,,0,0,5,,,,,4,,,,63,92
193488,note_on,,,,,24,0,5,,,,,4,,,,65,0
193506,note_on,,,,,0,0,2,,,,,1,,,,58,0
193506,note_on,,,,,160,0,2,,,,,1,,,,65,0
193509,note_on,,,,,160,0,6,,,,,5,,,,62,0
193512,note_on,,,,,24,0,5,,,,,4,,,,63,0
193512,note_on,,,,,0,0,5,,,,,4,,,,65,92
193531,note_on,,,,,94,0,7,,,,,6,,,,56,0
193532,note_on,,,,,46,0,1,,,,,0,,,,77,0
193532,note_on,,,,,0,0,1,,,,,0,,,,74,0
193533,note_on,,,,,94,0,8,,,,,7,,,,46,0
193533,note_on,,,,,2,0,7,,,,,6,,,,55,92
193534,note_on,,,,,2,0,1,,,,,0,,,,75,92
193534,note_on,,,,,22,0,5,,,,,4,,,,65,0
193535,note_on,,,,,2,0,8,,,,,7,,,,51,92
193536,note_on,,,,,2,0,5,,,,,4,,,,63,92
193538,note_on,,,,,32,0,2,,,,,1,,,,51,92
193538,note_on,,,,,0,0,2,,,,,1,,,,63,92
193540,note_on,,,,,94,0,9,,,,,8,,,,34,0
193541,note_on,,,,,32,0,6,,,,,5,,,,63,92
193542,note_on,,,,,2,0,9,,,,,8,,,,39,92
193693,note_on,,,,,160,0,7,,,,,6,,,,55,0
193694,note_on,,,,,160,0,1,,,,,0,,,,75,0
193695,note_on,,,,,160,0,8,,,,,7,,,,51,0
193696,note_on,,,,,160,0,5,,,,,4,,,,63,0
193698,note_on,,,,,160,0,2,,,,,1,,,,63,0
193698,note_on,,,,,0,0,2,,,,,1,,,,51,0
193701,note_on,,,,,160,0,6,,,,,5,,,,63,0
193702,note_on,,,,,160,0,9,,,,,8,,,,39,0
193728,note_on,,,,,32,0,5,,,,,4,,,,75,45
193733,note_on,,,,,32,0,6,,,,,5,,,,63,45
193760,note_on,,,,,32,0,5,,,,,4,,,,75,0
193760,note_on,,,,,0,0,5,,,,,4,,,,77,45
193765,note_on,,,,,32,0,6,,,,,5,,,,63,0
193765,note_on,,,,,0,0,6,,,,,5,,,,65,45
193792,note_on,,,,,0,0,5,,,,,4,,,,75,45
193792,note_on,,,,,32,0,5,,,,,4,,,,77,0
193797,note_on,,,,,0,0,6,,,,,5,,,,63,45
193797,note_on,,,,,32,0,6,,,,,5,,,,65,0
193821,note_on,,,,,128,0,7,,,,,6,,,,67,45
193823,note_on,,,,,128,0,8,,,,,7,,,,63,45
193824,note_on,,,,,0,0,5,,,,,4,,,,77,45
193824,note_on,,,,,32,0,5,,,,,4,,,,75,0
193829,note_on,,,,,32,0,6,,,,,5,,,,63,0
193829,note_on,,,,,0,0,6,,,,,5,,,,65,45
193830,note_on,,,,,128,0,9,,,,,8,,,,51,45
193853,note_on,,,,,32,0,7,,,,,6,,,,67,0
193855,note_on,,,,,32,0,8,,,,,7,,,,63,0
193856,note_on,,,,,0,0,5,,,,,4,,,,75,45
193856,note_on,,,,,32,0,5,,,,,4,,,,77,0
193861,note_on,,,,,32,0,6,,,,,5,,,,65,0
193861,note_on,,,,,0,0,6,,,,,5,,,,63,45
193862,note_on,,,,,32,0,9,,,,,8,,,,51,0
193888,note_on,,,,,32,0,5,,,,,4,,,,75,0
193888,note_on,,,,,0,0,5,,,,,4,,,,77,45
193893,note_on,,,,,0,0,6,,,,,5,,,,65,45
193893,note_on,,,,,32,0,6,,,,,5,,,,63,0
193917,note_on,,,,,64,0,7,,,,,6,,,,67,45
193919,note_on,,,,,64,0,8,,,,,7,,,,63,45
193920,note_on,,,,,0,0,5,,,,,4,,,,75,45
193920,note_on,,,,,32,0,5,,,,,4,,,,77,0
193925,note_on,,,,,0,0,6,,,,,5,,,,63,45
193925,note_on,,,,,32,0,6,,,,,5,,,,65,0
193926,note_on,,,,,64,0,9,,,,,8,,,,51,45
193949,note_on,,,,,32,0,7,,,,,6,,,,67,0
193951,note_on,,,,,32,0,8,,,,,7,,,,63,0
193952,note_on,,,,,0,0,5,,,,,4,,,,77,45
193952,note_on,,,,,32,0,5,,,,,4,,,,75,0
193957,note_on,,,,,32,0,6,,,,,5,,,,63,0
193957,note_on,,,,,0,0,6,,,,,5,,,,65,45
193958,note_on,,,,,32,0,9,,,,,8,,,,51,0
193984,note_on,,,,,0,0,5,,,,,4,,,,75,45
193984,note_on,,,,,32,0,5,,,,,4,,,,77,0
193989,note_on,,,,,32,0,6,,,,,5,,,,65,0
193989,note_on,,,,,0,0,6,,,,,5,,,,63,45
194013,note_on,,,,,64,0,7,,,,,6,,,,67,45
194015,note_on,,,,,64,0,8,,,,,7,,,,63,45
194016,note_on,,,,,32,0,5,,,,,4,,,,75,0
194016,note_on,,,,,0,0,5,,,,,4,,,,74,45
194021,note_on,,,,,0,0,6,,,,,5,,,,62,45
194021,note_on,,,,,32,0,6,,,,,5,,,,63,0
194022,note_on,,,,,64,0,9,,,,,8,,,,51,45
194045,note_on,,,,,32,0,7,,,,,6,,,,67,0
194047,note_on,,,,,32,0,8,,,,,7,,,,63,0
194054,note_on,,,,,32,0,9,,,,,8,,,,51,0
194064,note_on,,,,,0,0,5,,,,,4,,,,72,45
194064,note_on,,,,,48,0,5,,,,,4,,,,74,0
194069,note_on,,,,,0,0,6,,,,,5,,,,60,45
194069,note_on,,,,,48,0,6,,,,,5,,,,62,0
194109,note_on,,,,,64,0,7,,,,,6,,,,67,45
194110,note_on,,,,,46,0,5,,,,,4,,,,72,0
194111,note_on,,,,,64,0,8,,,,,7,,,,63,45
194112,note_on,,,,,2,0,5,,,,,4,,,,71,45
194115,note_on,,,,,46,0,6,,,,,5,,,,60,0
194117,note_on,,,,,2,0,6,,,,,5,,,,59,45
194118,note_on,,,,,64,0,9,,,,,8,,,,51,45
194205,note_on,,,,,0,0,7,,,,,6,,,,65,45
194205,note_on,,,,,96,0,7,,,,,6,,,,67,0
194207,note_on,,,,,96,0,8,,,,,7,,,,63,0
194207,note_on,,,,,0,0,8,,,,,7,,,,62,45
194214,note_on,,,,,0,0,9,,,,,8,,,,50,45
194214,note_on,,,,,96,0,9,,,,,8,,,,51,0
194272,note_on,,,,,160,0,5,,,,,4,,,,71,0
194277,note_on,,,,,160,0,6,,,,,5,,,,59,0
194299,note_on,,,,,94,0,7,,,,,6,,,,65,0
194301,note_on,,,,,94,0,8,,,,,7,,,,62,0
194301,note_on,,,,,2,0,7,,,,,6,,,,63,45
194303,note_on,,,,,2,0,8,,,,,7,,,,60,45
194304,note_on,,,,,32,0,5,,,,,4,,,,72,45
194308,note_on,,,,,94,0,9,,,,,8,,,,50,0
194309,note_on,,,,,32,0,6,,,,,5,,,,60,45
194310,note_on,,,,,2,0,9,,,,,8,,,,48,45
194333,note_on,,,,,32,0,7,,,,,6,,,,63,0
194335,note_on,,,,,32,0,8,,,,,7,,,,60,0
194336,note_on,,,,,0,0,5,,,,,4,,,,74,45
194336,note_on,,,,,32,0,5,,,,,4,,,,72,0
194341,note_on,,,,,32,0,6,,,,,5,,,,60,0
194341,note_on,,,,,0,0,6,,,,,5,,,,62,45
194342,note_on,,,,,32,0,9,,,,,8,,,,48,0
194368,note_on,,,,,0,0,5,,,,,4,,,,72,45
194368,note_on,,,,,32,0,5,,,,,4,,,,74,0
194373,note_on,,,,,32,0,6,,,,,5,,,,62,0
194373,note_on,,,,,0,0,6,,,,,5,,,,60,45
194397,note_on,,,,,64,0,7,,,,,6,,,,63,45
194399,note_on,,,,,64,0,8,,,,,7,,,,60,45
194400,note_on,,,,,0,0,5,,,,,4,,,,74,45
194400,note_on,,,,,32,0,5,,,,,4,,,,72,0
194405,note_on,,,,,0,0,6,,,,,5,,,,62,45
194405,note_on,,,,,32,0,6,,,,,5,,,,60,0
194406,note_on,,,,,64,0,9,,,,,8,,,,48,45
194429,note_on,,,,,32,0,7,,,,,6,,,,63,0
194431,note_on,,,,,32,0,8,,,,,7,,,,60,0
194432,note_on,,,,,32,0,5,,,,,4,,,,74,0
194432,note_on,,,,,0,0,5,,,,,4,,,,72,45
194437,note_on,,,,,32,0,6,,,,,5,,,,62,0
194437,note_on,,,,,0,0,6,,,,,5,,,,60,45
194438,note_on,,,,,32,0,9,,,,,8,,,,48,0
194464,note_on,,,,,32,0,5,,,,,4,,,,72,0
194464,note_on,,,,,0,0,5,,,,,4,,,,74,45
194469,note_on,,,,,0,0,6,,,,,5,,,,62,45
194469,note_on,,,,,32,0,6,,,,,5,,,,60,0
194493,note_on,,,,,64,0,7,,,,,6,,,,63,45
194495,note_on,,,,,64,0,8,,,,,7,,,,60,45
194496,note_on,,,,,32,0,5,,,,,4,,,,74,0
194496,note_on,,,,,0,0,5,,,,,4,,,,72,45
194501,note_on,,,,,32,0,6,,,,,5,,,,62,0
194501,note_on,,,,,0,0,6,,,,,5,,,,60,45
194502,note_on,,,,,64,0,9,,,,,8,,,,48,45
194525,note_on,,,,,32,0,7,,,,,6,,,,63,0
194527,note_on,,,,,32,0,8,,,,,7,,,,60,0
194528,note_on,,,,,0,0,5,,,,,4,,,,74,45
194528,note_on,,,,,32,0,5,,,,,4,,,,72,0
194533,note_on,,,,,32,0,6,,,,,5,,,,60,0
194533,note_on,,,,,0,0,6,,,,,5,,,,62,45
194534,note_on,,,,,32,0,9,,,,,8,,,,48,0
194560,note_on,,,,,0,0,5,,,,,4,,,,72,45
194560,note_on,,,,,32,0,5,,,,,4,,,,74,0
194565,note_on,,,,,0,0,6,,,,,5,,,,60,45
194565,note_on,,,,,32,0,6,,,,,5,,,,62,0
194589,note_on,,,,,64,0,7,,,,,6,,,,63,45
194591,note_on,,,,,64,0,8,,,,,7,,,,60,45
194592,note_on,,,,,0,0,5,,,,,4,,,,70,45
194592,note_on,,,,,32,0,5,,,,,4,,,,72,0
194597,note_on,,,,,32,0,6,,,,,5,,,,60,0
194597,note_on,,,,,0,0,6,,,,,5,,,,58,45
194598,note_on,,,,,64,0,9,,,,,8,,,,48,45
194621,note_on,,,,,32,0,7,,,,,6,,,,63,0
194623,note_on,,,,,32,0,8,,,,,7,,,,60,0
194630,note_on,,,,,32,0,9,,,,,8,,,,48,0
194640,note_on,,,,,0,0,5,,,,,4,,,,68,45
194640,note_on,,,,,48,0,5,,,,,4,,,,70,0
194645,note_on,,,,,0,0,6,,,,,5,,,,56,45
194645,note_on,,,,,48,0,6,,,,,5,,,,58,0
194685,note_on,,,,,64,0,7,,,,,6,,,,63,45
194686,note_on,,,,,46,0,5,,,,,4,,,,68,0
194687,note_on,,,,,64,0,8,,,,,7,,,,60,45
194688,note_on,,,,,2,0,5,,,,,4,,,,67,45
194691,note_on,,,,,46,0,6,,,,,5,,,,56,0
194693,note_on,,,,,2,0,6,,,,,5,,,,55,45
194694,note_on,,,,,64,0,9,,,,,8,,,,48,45
194781,note_on,,,,,96,0,7,,,,,6,,,,63,0
194781,note_on,,,,,0,0,7,,,,,6,,,,61,45
194783,note_on,,,,,96,0,8,,,,,7,,,,60,0
194783,note_on,,,,,0,0,8,,,,,7,,,,58,45
194790,note_on,,,,,0,0,9,,,,,8,,,,46,45
194790,note_on,,,,,96,0,9,,,,,8,,,,48,0
194848,note_on,,,,,160,0,5,,,,,4,,,,67,0
194853,note_on,,,,,160,0,6,,,,,5,,,,55,0
194875,note_on,,,,,94,0,7,,,,,6,,,,61,0
194877,note_on,,,,,2,0,7,,,,,6,,,,60,45
194877,note_on,,,,,94,0,8,,,,,7,,,,58,0
194879,note_on,,,,,2,0,8,,,,,7,,,,56,45
194880,note_on,,,,,32,0,5,,,,,4,,,,80,45
194884,note_on,,,,,94,0,9,,,,,8,,,,46,0
194885,note_on,,,,,32,0,6,,,,,5,,,,68,45
194886,note_on,,,,,2,0,9,,,,,8,,,,44,45
194909,note_on,,,,,32,0,7,,,,,6,,,,60,0
194911,note_on,,,,,32,0,8,,,,,7,,,,56,0
194912,note_on,,,,,32,0,5,,,,,4,,,,80,0
194912,note_on,,,,,0,0,5,,,,,4,,,,82,45
194917,note_on,,,,,32,0,6,,,,,5,,,,68,0
194917,note_on,,,,,0,0,6,,,,,5,,,,70,45
194918,note_on,,,,,32,0,9,,,,,8,,,,44,0
194944,note_on,,,,,32,0,5,,,,,4,,,,82,0
194944,note_on,,,,,0,0,5,,,,,4,,,,80,45
194949,note_on,,,,,0,0,6,,,,,5,,,,68,45
194949,note_on,,,,,32,0,6,,,,,5,,,,70,0
194973,note_on,,,,,64,0,7,,,,,6,,,,60,45
194975,note_on,,,,,64,0,8,,,,,7,,,,56,45
194976,note_on,,,,,0,0,5,,,,,4,,,,82,45
194976,note_on,,,,,32,0,5,,,,,4,,,,80,0
194981,note_on,,,,,32,0,6,,,,,5,,,,68,0
194981,note_on,,,,,0,0,6,,,,,5,,,,70,45
194982,note_on,,,,,64,0,9,,,,,8,,,,44,45
195005,note_on,,,,,32,0,7,,,,,6,,,,60,0
195007,note_on,,,,,32,0,8,,,,,7,,,,56,0
195008,note_on,,,,,32,0,5,,,,,4,,,,82,0
195008,note_on,,,,,0,0,5,,,,,4,,,,80,45
195013,note_on,,,,,32,0,6,,,,,5,,,,70,0
195013,note_on,,,,,0,0,6,,,,,5,,,,68,45
195014,note_on,,,,,32,0,9,,,,,8,,,,44,0
195040,note_on,,,,,0,0,5,,,,,4,,,,82,45
195040,note_on,,,,,32,0,5,,,,,4,,,,80,0
195045,note_on,,,,,32,0,6,,,,,5,,,,68,0
195045,note_on,,,,,0,0,6,,,,,5,,,,70,45
195069,note_on,,,,,64,0,7,,,,,6,,,,60,45
195071,note_on,,,,,64,0,8,,,,,7,,,,56,45
195072,note_on,,,,,0,0,5,,,,,4,,,,80,45
195072,note_on,,,,,32,0,5,,,,,4,,,,82,0
195077,note_on,,,,,0,0,6,,,,,5,,,,68,45
195077,note_on,,,,,32,0,6,,,,,5,,,,70,0
195078,note_on,,,,,64,0,9,,,,,8,,,,44,45
195101,note_on,,,,,32,0,7,,,,,6,,,,60,0
195103,note_on,,,,,32,0,8,,,,,7,,,,56,0
195104,note_on,,,,,32,0,5,,,,,4,,,,80,0
195104,note_on,,,,,0,0,5,,,,,4,,,,82,45
195109,note_on,,,,,32,0,6,,,,,5,,,,68,0
195109,note_on,,,,,0,0,6,,,,,5,,,,70,45
195110,note_on,,,,,32,0,9,,,,,8,,,,44,0
195136,note_on,,,,,32,0,5,,,,,4,,,,82,0
195136,note_on,,,,,0,0,5,,,,,4,,,,80,45
195141,note_on,,,,,32,0,6,,,,,5,,,,70,0
195141,note_on,,,,,0,0,6,,,,,5,,,,68,45
195165,note_on,,,,,64,0,7,,,,,6,,,,60,45
195167,note_on,,,,,64,0,8,,,,,7,,,,56,45
195168,note_on,,,,,32,0,5,,,,,4,,,,80,0
195168,note_on,,,,,0,0,5,,,,,4,,,,79,45
195173,note_on,,,,,32,0,6,,,,,5,,,,68,0
195173,note_on,,,,,0,0,6,,,,,5,,,,67,45
195174,note_on,,,,,64,0,9,,,,,8,,,,44,45
195197,note_on,,,,,32,0,7,,,,,6,,,,60,0
195199,note_on,,,,,32,0,8,,,,,7,,,,56,0
195206,note_on,,,,,32,0,9,,,,,8,,,,44,0
195216,note_on,,,,,0,0,5,,,,,4,,,,77,45
195216,note_on,,,,,48,0,5,,,,,4,,,,79,0
195221,note_on,,,,,0,0,6,,,,,5,,,,65,45
195221,note_on,,,,,48,0,6,,,,,5,,,,67,0
195261,note_on,,,,,64,0,7,,,,,6,,,,60,45
195262,note_on,,,,,46,0,5,,,,,4,,,,77,0
195263,note_on,,,,,64,0,8,,,,,7,,,,56,45
195264,note_on,,,,,2,0,5,,,,,4,,,,76,45
195267,note_on,,,,,46,0,6,,,,,5,,,,65,0
195269,note_on,,,,,2,0,6,,,,,5,,,,64,45
195270,note_on,,,,,64,0,9,,,,,8,,,,44,45
195357,note_on,,,,,0,0,7,,,,,6,,,,58,45
195357,note_on,,,,,96,0,7,,,,,6,,,,60,0
195359,note_on,,,,,0,0,8,,,,,7,,,,55,45
195359,note_on,,,,,96,0,8,,,,,7,,,,56,0
195366,note_on,,,,,0,0,9,,,,,8,,,,43,45
195366,note_on,,,,,96,0,9,,,,,8,,,,44,0
195451,note_on,,,,,94,0,7,,,,,6,,,,58,0
195453,note_on,,,,,94,0,8,,,,,7,,,,55,0
195453,note_on,,,,,2,0,7,,,,,6,,,,56,60
195455,note_on,,,,,2,0,8,,,,,7,,,,53,60
195456,note_on,,,,,0,0,5,,,,,4,,,,77,60
195456,note_on,,,,,192,0,5,,,,,4,,,,76,0
195460,note_on,,,,,94,0,9,,,,,8,,,,43,0
195461,note_on,,,,,192,0,6,,,,,5,,,,64,0
195461,note_on,,,,,0,0,6,,,,,5,,,,65,60
195462,note_on,,,,,2,0,9,,,,,8,,,,41,60
195485,note_on,,,,,32,0,7,,,,,6,,,,56,0
195487,note_on,,,,,32,0,8,,,,,7,,,,53,0
195494,note_on,,,,,32,0,9,,,,,8,,,,41,0
195549,note_on,,,,,64,0,7,,,,,6,,,,60,60
195550,note_on,,,,,94,0,5,,,,,4,,,,77,0
195551,note_on,,,,,64,0,8,,,,,7,,,,52,60
195552,note_on,,,,,2,0,5,,,,,4,,,,79,60
195555,note_on,,,,,94,0,6,,,,,5,,,,65,0
195557,note_on,,,,,2,0,6,,,,,5,,,,70,60
195558,note_on,,,,,64,0,9,,,,,8,,,,40,60
195581,note_on,,,,,32,0,7,,,,,6,,,,60,0
195583,note_on,,,,,32,0,8,,,,,7,,,,52,0
195584,note_on,,,,,32,0,5,,,,,4,,,,79,0
195589,note_on,,,,,32,0,6,,,,,5,,,,70,0
195590,note_on,,,,,32,0,9,,,,,8,,,,40,0
195645,note_on,,,,,64,0,7,,,,,6,,,,60,60
195647,note_on,,,,,64,0,8,,,,,7,,,,53,60
195648,note_on,,,,,64,0,5,,,,,4,,,,80,60
195653,note_on,,,,,64,0,6,,,,,5,,,,68,60
195654,note_on,,,,,64,0,9,,,,,8,,,,41,60
195677,note_on,,,,,32,0,7,,,,,6,,,,60,0
195679,note_on,,,,,32,0,8,,,,,7,,,,53,0
195680,note_on,,,,,32,0,5,,,,,4,,,,80,0
195685,note_on,,,,,32,0,6,,,,,5,,,,68,0
195686,note_on,,,,,32,0,9,,,,,8,,,,41,0
195741,note_on,,,,,64,0,7,,,,,6,,,,65,60
195742,note_on,,,,,2048,0,1,,,,,0,,,,69,60
195742,note_on,,,,,0,0,1,,,,,0,,,,72,60
195743,note_on,,,,,64,0,8,,,,,7,,,,51,60
195744,note_on,,,,,64,0,5,,,,,4,,,,81,60
195746,note_on,,,,,2048,0,2,,,,,1,,,,65,60
195749,note_on,,,,,64,0,6,,,,,5,,,,72,60
195750,note_on,,,,,64,0,9,,,,,8,,,,39,60
195773,note_on,,,,,32,0,7,,,,,6,,,,65,0
195775,note_on,,,,,32,0,8,,,,,7,,,,51,0
195776,note_on,,,,,32,0,5,,,,,4,,,,81,0
195781,note_on,,,,,32,0,6,,,,,5,,,,72,0
195782,note_on,,,,,32,0,9,,,,,8,,,,39,0
195836,note_on,,,,,0,0,1,,,,,0,,,,69,0
195836,note_on,,,,,94,0,1,,,,,0,,,,72,0
195837,note_on,,,,,64,0,7,,,,,6,,,,65,75
195838,note_on,,,,,2,0,1,,,,,0,,,,70,75
195838,note_on,,,,,0,0,1,,,,,0,,,,74,75
195839,note_on,,,,,64,0,8,,,,,7,,,,50,75
195840,note_on,,,,,64,0,5,,,,,4,,,,82,75
195840,note_on,,,,,94,0,2,,,,,1,,,,65,0
195842,note_on,,,,,2,0,2,,,,,1,,,,65,75
195845,note_on,,,,,64,0,6,,,,,5,,,,70,75
195846,note_on,,,,,64,0,9,,,,,8,,,,38,75
195869,note_on,,,,,32,0,7,,,,,6,,,,65,0
195871,note_on,,,,,32,0,8,,,,,7,,,,50,0
195872,note_on,,,,,32,0,5,,,,,4,,,,82,0
195877,note_on,,,,,32,0,6,,,,,5,,,,70,0
195878,note_on,,,,,32,0,9,,,,,8,,,,38,0
195932,note_on,,,,,0,0,1,,,,,0,,,,70,0
195932,note_on,,,,,94,0,1,,,,,0,,,,74,0
195933,note_on,,,,,64,0,7,,,,,6,,,,74,75
195934,note_on,,,,,0,0,1,,,,,0,,,,77,75
195934,note_on,,,,,2,0,1,,,,,0,,,,74,75
195935,note_on,,,,,64,0,8,,,,,7,,,,55,75
195936,note_on,,,,,64,0,5,,,,,4,,,,83,75
195936,note_on,,,,,94,0,2,,,,,1,,,,65,0
195938,note_on,,,,,2,0,2,,,,,1,,,,67,75
195941,note_on,,,,,64,0,6,,,,,5,,,,77,75
195942,note_on,,,,,64,0,9,,,,,8,,,,43,75
195965,note_on,,,,,32,0,7,,,,,6,,,,74,0
195967,note_on,,,,,32,0,8,,,,,7,,,,55,0
195968,note_on,,,,,32,0,5,,,,,4,,,,83,0
195973,note_on,,,,,32,0,6,,,,,5,,,,77,0
195974,note_on,,,,,32,0,9,,,,,8,,,,43,0
196028,note_on,,,,,0,0,1,,,,,0,,,,74,0
196028,note_on,,,,,94,0,1,,,,,0,,,,77,0
196029,note_on,,,,,64,0,7,,,,,6,,,,72,75
196030,note_on,,,,,0,0,1,,,,,0,,,,75,75
196030,note_on,,,,,2,0,1,,,,,0,,,,72,75
196031,note_on,,,,,64,0,8,,,,,7,,,,56,75
196032,note_on,,,,,94,0,2,,,,,1,,,,67,0
196032,note_on,,,,,64,0,5,,,,,4,,,,84,75
196034,note_on,,,,,2,0,2,,,,,1,,,,63,75
196037,note_on,,,,,64,0,6,,,,,5,,,,75,75
196038,note_on,,,,,64,0,9,,,,,8,,,,44,75
196061,note_on,,,,,32,0,7,,,,,6,,,,72,0
196063,note_on,,,,,32,0,8,,,,,7,,,,56,0
196064,note_on,,,,,32,0,5,,,,,4,,,,84,0
196069,note_on,,,,,32,0,6,,,,,5,,,,75,0
196070,note_on,,,,,32,0,9,,,,,8,,,,44,0
196124,note_on,,,,,94,0,1,,,,,0,,,,75,0
196124,note_on,,,,,0,0,1,,,,,0,,,,72,0
196125,note_on,,,,,64,0,7,,,,,6,,,,70,92
196126,note_on,,,,,0,0,1,,,,,0,,,,80,92
196126,note_on,,,,,2,0,1,,,,,0,,,,74,92
196127,note_on,,,,,64,0,8,,,,,7,,,,53,92
196128,note_on,,,,,94,0,2,,,,,1,,,,63,0
196128,note_on,,,,,64,0,5,,,,,4,,,,86,92
196130,note_on,,,,,0,0,2,,,,,1,,,,68,92
196130,note_on,,,,,2,0,2,,,,,1,,,,58,92
196133,note_on,,,,,64,0,6,,,,,5,,,,80,92
196134,note_on,,,,,64,0,9,,,,,8,,,,41,92
196157,note_on,,,,,32,0,7,,,,,6,,,,70,0
196159,note_on,,,,,32,0,8,,,,,7,,,,53,0
196160,note_on,,,,,32,0,5,,,,,4,,,,86,0
196165,note_on,,,,,32,0,6,,,,,5,,,,80,0
196166,note_on,,,,,32,0,9,,,,,8,,,,41,0
196220,note_on,,,,,94,0,1,,,,,0,,,,80,0
196220,note_on,,,,,0,0,1,,,,,0,,,,74,0
196221,note_on,,,,,64,0,7,,,,,6,,,,70,92
196222,note_on,,,,,0,0,1,,,,,0,,,,79,92
196222,note_on,,,,,2,0,1,,,,,0,,,,75,92
196223,note_on,,,,,64,0,8,,,,,7,,,,55,92
196224,note_on,,,,,64,0,5,,,,,4,,,,87,92
196224,note_on,,,,,94,0,2,,,,,1,,,,68,0
196224,note_on,,,,,0,0,2,,,,,1,,,,58,0
196226,note_on,,,,,0,0,2,,,,,1,,,,67,92
196226,note_on,,,,,2,0,2,,,,,1,,,,58,92
196229,note_on,,,,,64,0,6,,,,,5,,,,79,92
196230,note_on,,,,,64,0,9,,,,,8,,,,43,92
196253,note_on,,,,,32,0,7,,,,,6,,,,70,0
196255,note_on,,,,,32,0,8,,,,,7,,,,55,0
196256,note_on,,,,,32,0,5,,,,,4,,,,87,0
196261,note_on,,,,,32,0,6,,,,,5,,,,79,0
196262,note_on,,,,,32,0,9,,,,,8,,,,43,0
196316,note_on,,,,,94,0,1,,,,,0,,,,79,0
196316,note_on,,,,,0,0,1,,,,,0,,,,75,0
196317,note_on,,,,,64,0,7,,,,,6,,,,63,92
196318,note_on,,,,,2,0,1,,,,,0,,,,75,92
196318,note_on,,,,,0,0,1,,,,,0,,,,79,92
196319,note_on,,,,,64,0,8,,,,,7,,,,48,92
196320,note_on,,,,,0,0,2,,,,,1,,,,58,0
196320,note_on,,,,,64,0,5,,,,,4,,,,55,92
196320,note_on,,,,,94,0,2,,,,,1,,,,67,0
196322,note_on,,,,,2,0,2,,,,,1,,,,51,92
196322,note_on,,,,,0,0,2,,,,,1,,,,63,92
196325,note_on,,,,,64,0,6,,,,,5,,,,67,92
196326,note_on,,,,,64,0,9,,,,,8,,,,36,92
196349,note_on,,,,,32,0,7,,,,,6,,,,63,0
196351,note_on,,,,,32,0,8,,,,,7,,,,48,0
196352,note_on,,,,,32,0,5,,,,,4,,,,55,0
196357,note_on,,,,,32,0,6,,,,,5,,,,67,0
196358,note_on,,,,,32,0,9,,,,,8,,,,36,0
196412,note_on,,,,,0,0,1,,,,,0,,,,75,0
196412,note_on,,,,,94,0,1,,,,,0,,,,79,0
196413,note_on,,,,,64,0,7,,,,,6,,,,63,108
196414,note_on,,,,,0,0,1,,,,,0,,,,78,108
196414,note_on,,,,,2,0,1,,,,,0,,,,72,108
196415,note_on,,,,,64,0,8,,,,,7,,,,45,108
196416,note_on,,,,,64,0,5,,,,,4,,,,57,108
196416,note_on,,,,,0,0,2,,,,,1,,,,51,0
196416,note_on,,,,,94,0,2,,,,,1,,,,63,0
196418,note_on,,,,,0,0,2,,,,,1,,,,63,108
196418,note_on,,,,,2,0,2,,,,,1,,,,51,108
196421,note_on,,,,,64,0,6,,,,,5,,,,66,108
196422,note_on,,,,,64,0,9,,,,,8,,,,33,108
196459,note_on,,,,,46,0,7,,,,,6,,,,63,0
196461,note_on,,,,,2,0,7,,,,,6,,,,63,108
196467,note_on,,,,,46,0,6,,,,,5,,,,66,0
196469,note_on,,,,,2,0,6,,,,,5,,,,66,108
196507,note_on,,,,,46,0,7,,,,,6,,,,63,0
196509,note_on,,,,,94,0,8,,,,,7,,,,45,0
196509,note_on,,,,,2,0,7,,,,,6,,,,63,108
196511,note_on,,,,,2,0,8,,,,,7,,,,45,108
196515,note_on,,,,,46,0,6,,,,,5,,,,66,0
196516,note_on,,,,,94,0,9,,,,,8,,,,33,0
196517,note_on,,,,,2,0,6,,,,,5,,,,66,108
196518,note_on,,,,,2,0,9,,,,,8,,,,33,108
196555,note_on,,,,,46,0,7,,,,,6,,,,63,0
196557,note_on,,,,,2,0,7,,,,,6,,,,63,108
196563,note_on,,,,,46,0,6,,,,,5,,,,66,0
196565,note_on,,,,,2,0,6,,,,,5,,,,66,108
196576,note_on,,,,,160,0,5,,,,,4,,,,57,0
196603,note_on,,,,,46,0,7,,,,,6,,,,63,0
196605,note_on,,,,,2,0,7,,,,,6,,,,63,108
196605,note_on,,,,,94,0,8,,,,,7,,,,45,0
196607,note_on,,,,,2,0,8,,,,,7,,,,45,108
196608,note_on,,,,,32,0,5,,,,,4,,,,84,108
196611,note_on,,,,,46,0,6,,,,,5,,,,66,0
196612,note_on,,,,,94,0,9,,,,,8,,,,33,0
196613,note_on,,,,,2,0,6,,,,,5,,,,66,108
196614,note_on,,,,,2,0,9,,,,,8,,,,33,108
196651,note_on,,,,,46,0,7,,,,,6,,,,63,0
196653,note_on,,,,,2,0,7,,,,,6,,,,63,108
196659,note_on,,,,,46,0,6,,,,,5,,,,66,0
196661,note_on,,,,,2,0,6,,,,,5,,,,66,108
196699,note_on,,,,,46,0,7,,,,,6,,,,63,0
196701,note_on,,,,,94,0,8,,,,,7,,,,45,0
196701,note_on,,,,,2,0,7,,,,,6,,,,63,108
196703,note_on,,,,,2,0,8,,,,,7,,,,45,108
196707,note_on,,,,,46,0,6,,,,,5,,,,66,0
196708,note_on,,,,,94,0,9,,,,,8,,,,33,0
196709,note_on,,,,,2,0,6,,,,,5,,,,66,108
196710,note_on,,,,,2,0,9,,,,,8,,,,33,108
196747,note_on,,,,,46,0,7,,,,,6,,,,63,0
196749,note_on,,,,,2,0,7,,,,,6,,,,63,108
196755,note_on,,,,,46,0,6,,,,,5,,,,66,0
196757,note_on,,,,,2,0,6,,,,,5,,,,66,108
196795,note_on,,,,,46,0,7,,,,,6,,,,63,0
196797,note_on,,,,,94,0,8,,,,,7,,,,45,0
196797,note_on,,,,,2,0,7,,,,,6,,,,63,108
196799,note_on,,,,,2,0,8,,,,,7,,,,45,108
196803,note_on,,,,,46,0,6,,,,,5,,,,66,0
196804,note_on,,,,,94,0,9,,,,,8,,,,33,0
196805,note_on,,,,,2,0,6,,,,,5,,,,66,108
196806,note_on,,,,,2,0,9,,,,,8,,,,33,108
196843,note_on,,,,,46,0,7,,,,,6,,,,63,0
196845,note_on,,,,,2,0,7,,,,,6,,,,63,108
196851,note_on,,,,,46,0,6,,,,,5,,,,66,0
196853,note_on,,,,,2,0,6,,,,,5,,,,66,108
196891,note_on,,,,,46,0,7,,,,,6,,,,63,0
196893,note_on,,,,,2,0,7,,,,,6,,,,63,108
196893,note_on,,,,,94,0,8,,,,,7,,,,45,0
196895,note_on,,,,,2,0,8,,,,,7,,,,45,108
196899,note_on,,,,,46,0,6,,,,,5,,,,66,0
196900,note_on,,,,,94,0,9,,,,,8,,,,33,0
196901,note_on,,,,,2,0,6,,,,,5,,,,66,108
196902,note_on,,,,,2,0,9,,,,,8,,,,33,108
196939,note_on,,,,,46,0,7,,,,,6,,,,63,0
196941,note_on,,,,,2,0,7,,,,,6,,,,63,108
196942,note_on,,,,,528,0,1,,,,,0,,,,78,0
196942,note_on,,,,,0,0,1,,,,,0,,,,72,0
196944,note_on,,,,,336,0,5,,,,,4,,,,84,0
196946,note_on,,,,,528,0,2,,,,,1,,,,63,0
196946,note_on,,,,,0,0,2,,,,,1,,,,51,0
196947,note_on,,,,,46,0,6,,,,,5,,,,66,0
196949,note_on,,,,,2,0,6,,,,,5,,,,66,108
196987,note_on,,,,,46,0,7,,,,,6,,,,63,0
196989,note_on,,,,,2,0,7,,,,,6,,,,63,108
196989,note_on,,,,,94,0,8,,,,,7,,,,45,0
196990,note_on,,,,,48,0,1,,,,,0,,,,75,108
196990,note_on,,,,,0,0,1,,,,,0,,,,79,108
196991,note_on,,,,,2,0,8,,,,,7,,,,46,108
196992,note_on,,,,,48,0,5,,,,,4,,,,58,108
196994,note_on,,,,,48,0,2,,,,,1,,,,63,108
196994,note_on,,,,,0,0,2,,,,,1,,,,67,108
196995,note_on,,,,,46,0,6,,,,,5,,,,66,0
196996,note_on,,,,,94,0,9,,,,,8,,,,33,0
196997,note_on,,,,,2,0,6,,,,,5,,,,67,108
196998,note_on,,,,,2,0,9,,,,,8,,,,34,108
197035,note_on,,,,,46,0,7,,,,,6,,,,63,0
197037,note_on,,,,,2,0,7,,,,,6,,,,63,108
197043,note_on,,,,,46,0,6,,,,,5,,,,67,0
197045,note_on,,,,,2,0,6,,,,,5,,,,67,108
197083,note_on,,,,,46,0,7,,,,,6,,,,63,0
197085,note_on,,,,,94,0,8,,,,,7,,,,46,0
197085,note_on,,,,,2,0,7,,,,,6,,,,63,108
197087,note_on,,,,,2,0,8,,,,,7,,,,46,108
197091,note_on,,,,,46,0,6,,,,,5,,,,67,0
197092,note_on,,,,,94,0,9,,,,,8,,,,34,0
197093,note_on,,,,,2,0,6,,,,,5,,,,67,108
197094,note_on,,,,,2,0,9,,,,,8,,,,34,108
197131,note_on,,,,,46,0,7,,,,,6,,,,63,0
197133,note_on,,,,,2,0,7,,,,,6,,,,63,108
197139,note_on,,,,,46,0,6,,,,,5,,,,67,0
197141,note_on,,,,,2,0,6,,,,,5,,,,67,108
197150,note_on,,,,,160,0,1,,,,,0,,,,79,0
197150,note_on,,,,,0,0,1,,,,,0,,,,75,0
197152,note_on,,,,,160,0,5,,,,,4,,,,58,0
197154,note_on,,,,,160,0,2,,,,,1,,,,67,0
197154,note_on,,,,,0,0,2,,,,,1,,,,63,0
197179,note_on,,,,,46,0,7,,,,,6,,,,63,0
197181,note_on,,,,,94,0,8,,,,,7,,,,46,0
197181,note_on,,,,,2,0,7,,,,,6,,,,63,108
197182,note_on,,,,,32,0,1,,,,,0,,,,75,108
197182,note_on,,,,,0,0,1,,,,,0,,,,79,108
197183,note_on,,,,,2,0,8,,,,,7,,,,46,108
197184,note_on,,,,,32,0,5,,,,,4,,,,82,108
197186,note_on,,,,,32,0,2,,,,,1,,,,63,108
197186,note_on,,,,,0,0,2,,,,,1,,,,67,108
197187,note_on,,,,,46,0,6,,,,,5,,,,67,0
197188,note_on,,,,,94,0,9,,,,,8,,,,34,0
197189,note_on,,,,,2,0,6,,,,,5,,,,67,108
197190,note_on,,,,,2,0,9,,,,,8,,,,34,108
197227,note_on,,,,,46,0,7,,,,,6,,,,63,0
197229,note_on,,,,,2,0,7,,,,,6,,,,63,108
197235,note_on,,,,,46,0,6,,,,,5,,,,67,0
197237,note_on,,,,,2,0,6,,,,,5,,,,67,108
197275,note_on,,,,,46,0,7,,,,,6,,,,63,0
197277,note_on,,,,,2,0,7,,,,,6,,,,63,108
197277,note_on,,,,,94,0,8,,,,,7,,,,46,0
197279,note_on,,,,,2,0,8,,,,,7,,,,46,108
197283,note_on,,,,,46,0,6,,,,,5,,,,67,0
197284,note_on,,,,,94,0,9,,,,,8,,,,34,0
197285,note_on,,,,,2,0,6,,,,,5,,,,67,108
197286,note_on,,,,,2,0,9,,,,,8,,,,34,108
197323,note_on,,,,,46,0,7,,,,,6,,,,63,0
197324,note_on,,,,,142,0,1,,,,,0,,,,79,0
197324,note_on,,,,,0,0,1,,,,,0,,,,75,0
197325,note_on,,,,,2,0,7,,,,,6,,,,63,108
197326,note_on,,,,,0,0,1,,,,,0,,,,79,108
197326,note_on,,,,,2,0,1,,,,,0,,,,75,108
197328,note_on,,,,,0,0,2,,,,,1,,,,63,0
197328,note_on,,,,,142,0,2,,,,,1,,,,67,0
197330,note_on,,,,,2,0,2,,,,,1,,,,63,108
197330,note_on,,,,,0,0,2,,,,,1,,,,67,108
197331,note_on,,,,,46,0,6,,,,,5,,,,67,0
197333,note_on,,,,,2,0,6,,,,,5,,,,67,108
197371,note_on,,,,,46,0,7,,,,,6,,,,63,0
197372,note_on,,,,,0,0,1,,,,,0,,,,75,0
197372,note_on,,,,,46,0,1,,,,,0,,,,79,0
197373,note_on,,,,,2,0,7,,,,,6,,,,63,108
197373,note_on,,,,,94,0,8,,,,,7,,,,46,0
197374,note_on,,,,,0,0,1,,,,,0,,,,79,108
197374,note_on,,,,,2,0,1,,,,,0,,,,75,108
197375,note_on,,,,,2,0,8,,,,,7,,,,46,108
197376,note_on,,,,,46,0,2,,,,,1,,,,67,0
197376,note_on,,,,,0,0,2,,,,,1,,,,63,0
197378,note_on,,,,,0,0,2,,,,,1,,,,67,108
197378,note_on,,,,,2,0,2,,,,,1,,,,63,108
197379,note_on,,,,,46,0,6,,,,,5,,,,67,0
197380,note_on,,,,,94,0,9,,,,,8,,,,34,0
197381,note_on,,,,,2,0,6,,,,,5,,,,67,108
197382,note_on,,,,,2,0,9,,,,,8,,,,34,108
197419,note_on,,,,,46,0,7,,,,,6,,,,63,0
197421,note_on,,,,,2,0,7,,,,,6,,,,63,108
197427,note_on,,,,,46,0,6,,,,,5,,,,67,0
197429,note_on,,,,,2,0,6,,,,,5,,,,67,108
197440,note_on,,,,,256,0,5,,,,,4,,,,82,0
197467,note_on,,,,,46,0,7,,,,,6,,,,63,0
197469,note_on,,,,,94,0,8,,,,,7,,,,46,0
197469,note_on,,,,,2,0,7,,,,,6,,,,63,108
197471,note_on,,,,,2,0,8,,,,,7,,,,46,108
197472,note_on,,,,,32,0,5,,,,,4,,,,79,108
197475,note_on,,,,,46,0,6,,,,,5,,,,67,0
197476,note_on,,,,,94,0,9,,,,,8,,,,34,0
197477,note_on,,,,,2,0,6,,,,,5,,,,67,108
197478,note_on,,,,,2,0,9,,,,,8,,,,34,108
197515,note_on,,,,,46,0,7,,,,,6,,,,63,0
197516,note_on,,,,,142,0,1,,,,,0,,,,79,0
197516,note_on,,,,,0,0,1,,,,,0,,,,75,0
197517,note_on,,,,,2,0,7,,,,,6,,,,63,108
197518,note_on,,,,,0,0,1,,,,,0,,,,79,108
197518,note_on,,,,,2,0,1,,,,,0,,,,75,108
197520,note_on,,,,,0,0,5,,,,,4,,,,75,108
197520,note_on,,,,,0,0,2,,,,,1,,,,63,0
197520,note_on,,,,,142,0,2,,,,,1,,,,67,0
197520,note_on,,,,,48,0,5,,,,,4,,,,79,0
197522,note_on,,,,,2,0,2,,,,,1,,,,63,108
197522,note_on,,,,,0,0,2,,,,,1,,,,67,108
197523,note_on,,,,,46,0,6,,,,,5,,,,67,0
197525,note_on,,,,,2,0,6,,,,,5,,,,67,108
197563,note_on,,,,,46,0,7,,,,,6,,,,63,0
197564,note_on,,,,,0,0,1,,,,,0,,,,75,0
197564,note_on,,,,,46,0,1,,,,,0,,,,79,0
197565,note_on,,,,,94,0,8,,,,,7,,,,46,0
197565,note_on,,,,,2,0,7,,,,,6,,,,63,108
197566,note_on,,,,,46,0,5,,,,,4,,,,75,0
197566,note_on,,,,,0,0,1,,,,,0,,,,79,108
197566,note_on,,,,,2,0,1,,,,,0,,,,75,108
197567,note_on,,,,,2,0,8,,,,,7,,,,46,108
197568,note_on,,,,,46,0,2,,,,,1,,,,67,0
197568,note_on,,,,,0,0,2,,,,,1,,,,63,0
197568,note_on,,,,,2,0,5,,,,,4,,,,82,108
197570,note_on,,,,,2,0,2,,,,,1,,,,63,108
197570,note_on,,,,,0,0,2,,,,,1,,,,67,108
197571,note_on,,,,,46,0,6,,,,,5,,,,67,0
197572,note_on,,,,,94,0,9,,,,,8,,,,34,0
197573,note_on,,,,,2,0,6,,,,,5,,,,67,108
197574,note_on,,,,,2,0,9,,,,,8,,,,34,108
197611,note_on,,,,,46,0,7,,,,,6,,,,63,0
197613,note_on,,,,,2,0,7,,,,,6,,,,63,108
197619,note_on,,,,,46,0,6,,,,,5,,,,67,0
197621,note_on,,,,,2,0,6,,,,,5,,,,67,108
197659,note_on,,,,,46,0,7,,,,,6,,,,63,0
197661,note_on,,,,,94,0,8,,,,,7,,,,46,0
197661,note_on,,,,,2,0,7,,,,,6,,,,63,108
197662,note_on,,,,,94,0,5,,,,,4,,,,82,0
197663,note_on,,,,,2,0,8,,,,,7,,,,46,108
197664,note_on,,,,,2,0,5,,,,,4,,,,79,108
197667,note_on,,,,,46,0,6,,,,,5,,,,67,0
197668,note_on,,,,,94,0,9,,,,,8,,,,34,0
197669,note_on,,,,,2,0,6,,,,,5,,,,67,108
197670,note_on,,,,,2,0,9,,,,,8,,,,34,108
197707,note_on,,,,,46,0,7,,,,,6,,,,63,0
197709,note_on,,,,,2,0,7,,,,,6,,,,63,108
197712,note_on,,,,,0,0,5,,,,,4,,,,75,108
197712,note_on,,,,,48,0,5,,,,,4,,,,79,0
197715,note_on,,,,,46,0,6,,,,,5,,,,67,0
197717,note_on,,,,,2,0,6,,,,,5,,,,67,108
197726,note_on,,,,,160,0,1,,,,,0,,,,79,0
197726,note_on,,,,,0,0,1,,,,,0,,,,75,0
197730,note_on,,,,,160,0,2,,,,,1,,,,67,0
197730,note_on,,,,,0,0,2,,,,,1,,,,63,0
197755,note_on,,,,,46,0,7,,,,,6,,,,63,0
197757,note_on,,,,,94,0,8,,,,,7,,,,46,0
197757,note_on,,,,,2,0,7,,,,,6,,,,63,108
197758,note_on,,,,,46,0,5,,,,,4,,,,75,0
197758,note_on,,,,,32,0,1,,,,,0,,,,75,108
197758,note_on,,,,,0,0,1,,,,,0,,,,79,108
197759,note_on,,,,,2,0,8,,,,,7,,,,46,108
197760,note_on,,,,,2,0,5,,,,,4,,,,70,108
197762,note_on,,,,,0,0,2,,,,,1,,,,67,108
197762,note_on,,,,,32,0,2,,,,,1,,,,63,108
197763,note_on,,,,,46,0,6,,,,,5,,,,67,0
197764,note_on,,,,,94,0,9,,,,,8,,,,34,0
197765,note_on,,,,,2,0,6,,,,,5,,,,67,108
197766,note_on,,,,,2,0,9,,,,,8,,,,34,108
197803,note_on,,,,,46,0,7,,,,,6,,,,63,0
197805,note_on,,,,,2,0,7,,,,,6,,,,63,108
197811,note_on,,,,,46,0,6,,,,,5,,,,67,0
197813,note_on,,,,,2,0,6,,,,,5,,,,67,108
197851,note_on,,,,,46,0,7,,,,,6,,,,63,0
197853,note_on,,,,,94,0,8,,,,,7,,,,46,0
197853,note_on,,,,,2,0,7,,,,,6,,,,63,108
197855,note_on,,,,,2,0,8,,,,,7,,,,46,108
197859,note_on,,,,,46,0,6,,,,,5,,,,67,0
197860,note_on,,,,,94,0,9,,,,,8,,,,34,0
197861,note_on,,,,,2,0,6,,,,,5,,,,67,108
197862,note_on,,,,,2,0,9,,,,,8,,,,34,108
197899,note_on,,,,,46,0,7,,,,,6,,,,63,0
197901,note_on,,,,,2,0,7,,,,,6,,,,63,108
197907,note_on,,,,,46,0,6,,,,,5,,,,67,0
197909,note_on,,,,,2,0,6,,,,,5,,,,67,108
197920,note_on,,,,,160,0,5,,,,,4,,,,70,0
197947,note_on,,,,,46,0,7,,,,,6,,,,63,0
197949,note_on,,,,,94,0,8,,,,,7,,,,46,0
197949,note_on,,,,,2,0,7,,,,,6,,,,62,108
197950,note_on,,,,,0,0,1,,,,,0,,,,74,108
197950,note_on,,,,,0,0,1,,,,,0,,,,75,0
197950,note_on,,,,,192,0,1,,,,,0,,,,79,0
197950,note_on,,,,,0,0,1,,,,,0,,,,77,108
197951,note_on,,,,,2,0,8,,,,,7,,,,46,108
197952,note_on,,,,,32,0,5,,,,,4,,,,79,108
197954,note_on,,,,,0,0,2,,,,,1,,,,65,108
197954,note_on,,,,,0,0,2,,,,,1,,,,62,108
197954,note_on,,,,,0,0,2,,,,,1,,,,63,0
197954,note_on,,,,,192,0,2,,,,,1,,,,67,0
197955,note_on,,,,,46,0,6,,,,,5,,,,67,0
197956,note_on,,,,,94,0,9,,,,,8,,,,34,0
197957,note_on,,,,,2,0,6,,,,,5,,,,65,108
197958,note_on,,,,,2,0,9,,,,,8,,,,34,108
197976,note_on,,,,,0,0,5,,,,,4,,,,77,108
197976,note_on,,,,,24,0,5,,,,,4,,,,79,0
197995,note_on,,,,,46,0,7,,,,,6,,,,62,0
197997,note_on,,,,,2,0,7,,,,,6,,,,62,108
198000,note_on,,,,,24,0,5,,,,,4,,,,77,0
198000,note_on,,,,,0,0,5,,,,,4,,,,79,108
198003,note_on,,,,,46,0,6,,,,,5,,,,65,0
198005,note_on,,,,,2,0,6,,,,,5,,,,65,108
198024,note_on,,,,,24,0,5,,,,,4,,,,79,0
198024,note_on,,,,,0,0,5,,,,,4,,,,77,108
198043,note_on,,,,,46,0,7,,,,,6,,,,62,0
198045,note_on,,,,,94,0,8,,,,,7,,,,46,0
198045,note_on,,,,,2,0,7,,,,,6,,,,62,108
198047,note_on,,,,,2,0,8,,,,,7,,,,46,108
198048,note_on,,,,,24,0,5,,,,,4,,,,77,0
198048,note_on,,,,,0,0,5,,,,,4,,,,79,108
198051,note_on,,,,,46,0,6,,,,,5,,,,65,0
198052,note_on,,,,,94,0,9,,,,,8,,,,34,0
198053,note_on,,,,,2,0,6,,,,,5,,,,65,108
198054,note_on,,,,,2,0,9,,,,,8,,,,34,108
198072,note_on,,,,,24,0,5,,,,,4,,,,79,0
198072,note_on,,,,,0,0,5,,,,,4,,,,77,108
198091,note_on,,,,,46,0,7,,,,,6,,,,62,0
198093,note_on,,,,,2,0,7,,,,,6,,,,62,108
198096,note_on,,,,,24,0,5,,,,,4,,,,77,0
198096,note_on,,,,,0,0,5,,,,,4,,,,75,108
198099,note_on,,,,,46,0,6,,,,,5,,,,65,0
198101,note_on,,,,,2,0,6,,,,,5,,,,65,108
198110,note_on,,,,,0,0,1,,,,,0,,,,74,0
198110,note_on,,,,,160,0,1,,,,,0,,,,77,0
198114,note_on,,,,,160,0,2,,,,,1,,,,65,0
198114,note_on,,,,,0,0,2,,,,,1,,,,62,0
198120,note_on,,,,,0,0,5,,,,,4,,,,77,108
198120,note_on,,,,,24,0,5,,,,,4,,,,75,0
198139,note_on,,,,,46,0,7,,,,,6,,,,62,0
198141,note_on,,,,,2,0,7,,,,,6,,,,63,108
198141,note_on,,,,,94,0,8,,,,,7,,,,46,0
198142,note_on,,,,,22,0,5,,,,,4,,,,77,0
198142,note_on,,,,,32,0,1,,,,,0,,,,75,108
198143,note_on,,,,,2,0,8,,,,,7,,,,51,108
198144,note_on,,,,,2,0,5,,,,,4,,,,75,108
198146,note_on,,,,,0,0,2,,,,,1,,,,63,108
198146,note_on,,,,,32,0,2,,,,,1,,,,55,108
198147,note_on,,,,,46,0,6,,,,,5,,,,65,0
198148,note_on,,,,,94,0,9,,,,,8,,,,34,0
198149,note_on,,,,,2,0,6,,,,,5,,,,63,108
198150,note_on,,,,,2,0,9,,,,,8,,,,39,108
198235,note_on,,,,,94,0,7,,,,,6,,,,63,0
198236,note_on,,,,,94,0,1,,,,,0,,,,75,0
198237,note_on,,,,,2,0,7,,,,,6,,,,55,108
198238,note_on,,,,,2,0,1,,,,,0,,,,70,108
198240,note_on,,,,,94,0,2,,,,,1,,,,63,0
198242,note_on,,,,,2,0,2,,,,,1,,,,58,108
198243,note_on,,,,,94,0,6,,,,,5,,,,63,0
198245,note_on,,,,,2,0,6,,,,,5,,,,63,108
198283,note_on,,,,,46,0,7,,,,,6,,,,55,0
198285,note_on,,,,,2,0,7,,,,,6,,,,55,108
198291,note_on,,,,,46,0,6,,,,,5,,,,63,0
198293,note_on,,,,,2,0,6,,,,,5,,,,63,108
198303,note_on,,,,,160,0,8,,,,,7,,,,51,0
198304,note_on,,,,,160,0,5,,,,,4,,,,75,0
198306,note_on,,,,,64,0,2,,,,,1,,,,55,0
198310,note_on,,,,,160,0,9,,,,,8,,,,39,0
198331,note_on,,,,,46,0,7,,,,,6,,,,55,0
198332,note_on,,,,,94,0,1,,,,,0,,,,70,0
198333,note_on,,,,,2,0,7,,,,,6,,,,55,108
198334,note_on,,,,,2,0,1,,,,,0,,,,75,108
198335,note_on,,,,,32,0,8,,,,,7,,,,39,108
198336,note_on,,,,,30,0,2,,,,,1,,,,58,0
198338,note_on,,,,,2,0,2,,,,,1,,,,63,108
198339,note_on,,,,,46,0,6,,,,,5,,,,63,0
198341,note_on,,,,,2,0,6,,,,,5,,,,63,108
198342,note_on,,,,,32,0,9,,,,,8,,,,27,108
198427,note_on,,,,,94,0,7,,,,,6,,,,55,0
198428,note_on,,,,,94,0,1,,,,,0,,,,75,0
198429,note_on,,,,,2,0,7,,,,,6,,,,63,108
198430,note_on,,,,,2,0,1,,,,,0,,,,70,108
198432,note_on,,,,,94,0,2,,,,,1,,,,63,0
198432,note_on,,,,,128,0,5,,,,,4,,,,70,108
198434,note_on,,,,,0,0,2,,,,,1,,,,58,108
198434,note_on,,,,,2,0,2,,,,,1,,,,46,108
198435,note_on,,,,,94,0,6,,,,,5,,,,63,0
198437,note_on,,,,,2,0,6,,,,,5,,,,67,108
198475,note_on,,,,,46,0,7,,,,,6,,,,63,0
198477,note_on,,,,,2,0,7,,,,,6,,,,63,108
198480,note_on,,,,,48,0,5,,,,,4,,,,70,0
198480,note_on,,,,,0,0,5,,,,,4,,,,75,108
198483,note_on,,,,,46,0,6,,,,,5,,,,67,0
198485,note_on,,,,,2,0,6,,,,,5,,,,67,108
198495,note_on,,,,,160,0,8,,,,,7,,,,39,0
198502,note_on,,,,,160,0,9,,,,,8,,,,27,0
198523,note_on,,,,,46,0,7,,,,,6,,,,63,0
198524,note_on,,,,,94,0,1,,,,,0,,,,70,0
198525,note_on,,,,,2,0,7,,,,,6,,,,63,108
198526,note_on,,,,,46,0,5,,,,,4,,,,75,0
198526,note_on,,,,,2,0,1,,,,,0,,,,75,108
198528,note_on,,,,,94,0,2,,,,,1,,,,58,0
198528,note_on,,,,,2,0,5,,,,,4,,,,79,108
198528,note_on,,,,,0,0,2,,,,,1,,,,46,0
198530,note_on,,,,,2,0,2,,,,,1,,,,51,108
198530,note_on,,,,,0,0,2,,,,,1,,,,63,108
198531,note_on,,,,,46,0,6,,,,,5,,,,67,0
198533,note_on,,,,,2,0,6,,,,,5,,,,67,108
198619,note_on,,,,,94,0,7,,,,,6,,,,63,0
198620,note_on,,,,,94,0,1,,,,,0,,,,75,0
198621,note_on,,,,,2,0,7,,,,,6,,,,67,108
198622,note_on,,,,,2,0,1,,,,,0,,,,79,108
198622,note_on,,,,,94,0,5,,,,,4,,,,79,0
198624,note_on,,,,,0,0,2,,,,,1,,,,51,0
198624,note_on,,,,,94,0,2,,,,,1,,,,63,0
198624,note_on,,,,,2,0,5,,,,,4,,,,75,108
198626,note_on,,,,,0,0,2,,,,,1,,,,67,108
198626,note_on,,,,,2,0,2,,,,,1,,,,55,108
198627,note_on,,,,,94,0,6,,,,,5,,,,67,0
198629,note_on,,,,,2,0,6,,,,,5,,,,70,108
198667,note_on,,,,,46,0,7,,,,,6,,,,67,0
198669,note_on,,,,,2,0,7,,,,,6,,,,67,108
198672,note_on,,,,,48,0,5,,,,,4,,,,75,0
198672,note_on,,,,,0,0,5,,,,,4,,,,79,108
198675,note_on,,,,,46,0,6,,,,,5,,,,70,0
198677,note_on,,,,,2,0,6,,,,,5,,,,70,108
198715,note_on,,,,,46,0,7,,,,,6,,,,67,0
198716,note_on,,,,,94,0,1,,,,,0,,,,79,0
198717,note_on,,,,,2,0,7,,,,,6,,,,67,108
198718,note_on,,,,,2,0,1,,,,,0,,,,82,108
198718,note_on,,,,,46,0,5,,,,,4,,,,79,0
198720,note_on,,,,,2,0,5,,,,,4,,,,82,108
198720,note_on,,,,,0,0,2,,,,,1,,,,55,0
198720,note_on,,,,,94,0,2,,,,,1,,,,67,0
198722,note_on,,,,,2,0,2,,,,,1,,,,58,108
198722,note_on,,,,,0,0,2,,,,,1,,,,70,108
198723,note_on,,,,,46,0,6,,,,,5,,,,70,0
198725,note_on,,,,,2,0,6,,,,,5,,,,70,108
198771,note_on,,,,,46,0,6,,,,,5,,,,70,0
198773,note_on,,,,,2,0,6,,,,,5,,,,75,108
198815,note_on,,,,,320,0,8,,,,,7,,,,51,108
198819,note_on,,,,,46,0,6,,,,,5,,,,75,0
198821,note_on,,,,,2,0,6,,,,,5,,,,74,108
198822,note_on,,,,,320,0,9,,,,,8,,,,39,108
198867,note_on,,,,,46,0,6,,,,,5,,,,74,0
198869,note_on,,,,,2,0,6,,,,,5,,,,72,108
198877,note_on,,,,,160,0,7,,,,,6,,,,67,0
198878,note_on,,,,,160,0,1,,,,,0,,,,82,0
198880,note_on,,,,,160,0,5,,,,,4,,,,82,0
198882,note_on,,,,,160,0,2,,,,,1,,,,70,0
198882,note_on,,,,,0,0,2,,,,,1,,,,58,0
198909,note_on,,,,,94,0,8,,,,,7,,,,51,0
198911,note_on,,,,,2,0,8,,,,,7,,,,55,108
198915,note_on,,,,,46,0,6,,,,,5,,,,72,0
198916,note_on,,,,,94,0,9,,,,,8,,,,39,0
198917,note_on,,,,,2,0,6,,,,,5,,,,70,108
198918,note_on,,,,,2,0,9,,,,,8,,,,43,108
198963,note_on,,,,,46,0,6,,,,,5,,,,70,0
198965,note_on,,,,,2,0,6,,,,,5,,,,70,108
199005,note_on,,,,,94,0,8,,,,,7,,,,55,0
199005,note_on,,,,,128,0,7,,,,,6,,,,70,108
199006,note_on,,,,,0,0,1,,,,,0,,,,79,108
199006,note_on,,,,,128,0,1,,,,,0,,,,75,108
199007,note_on,,,,,2,0,8,,,,,7,,,,51,108
199008,note_on,,,,,128,0,5,,,,,4,,,,75,108
199010,note_on,,,,,128,0,2,,,,,1,,,,63,108
199010,note_on,,,,,0,0,2,,,,,1,,,,67,108
199011,note_on,,,,,46,0,6,,,,,5,,,,70,0
199012,note_on,,,,,94,0,9,,,,,8,,,,43,0
199013,note_on,,,,,2,0,6,,,,,5,,,,67,108
199014,note_on,,,,,2,0,9,,,,,8,,,,39,108
199038,note_on,,,,,32,0,1,,,,,0,,,,79,0
199038,note_on,,,,,0,0,1,,,,,0,,,,75,0
199040,note_on,,,,,32,0,5,,,,,4,,,,75,0
199042,note_on,,,,,32,0,2,,,,,1,,,,67,0
199042,note_on,,,,,0,0,2,,,,,1,,,,63,0
199059,note_on,,,,,46,0,6,,,,,5,,,,67,0
199061,note_on,,,,,2,0,6,,,,,5,,,,70,108
199099,note_on,,,,,94,0,7,,,,,6,,,,70,0
199101,note_on,,,,,94,0,8,,,,,7,,,,51,0
199101,note_on,,,,,2,0,7,,,,,6,,,,70,108
199102,note_on,,,,,0,0,1,,,,,0,,,,80,108
199102,note_on,,,,,64,0,1,,,,,0,,,,77,108
199103,note_on,,,,,2,0,8,,,,,7,,,,58,108
199104,note_on,,,,,64,0,5,,,,,4,,,,77,108
199106,note_on,,,,,0,0,2,,,,,1,,,,68,108
199106,note_on,,,,,64,0,2,,,,,1,,,,65,108
199107,note_on,,,,,46,0,6,,,,,5,,,,70,0
199108,note_on,,,,,94,0,9,,,,,8,,,,39,0
199109,note_on,,,,,2,0,6,,,,,5,,,,68,108
199110,note_on,,,,,2,0,9,,,,,8,,,,46,108
199134,note_on,,,,,32,0,1,,,,,0,,,,80,0
199134,note_on,,,,,0,0,1,,,,,0,,,,77,0
199136,note_on,,,,,32,0,5,,,,,4,,,,77,0
199138,note_on,,,,,32,0,2,,,,,1,,,,68,0
199138,note_on,,,,,0,0,2,,,,,1,,,,65,0
199155,note_on,,,,,46,0,6,,,,,5,,,,68,0
199157,note_on,,,,,2,0,6,,,,,5,,,,70,108
199195,note_on,,,,,94,0,7,,,,,6,,,,70,0
199197,note_on,,,,,2,0,7,,,,,6,,,,70,108
199197,note_on,,,,,94,0,8,,,,,7,,,,58,0
199198,note_on,,,,,0,0,1,,,,,0,,,,77,108
199198,note_on,,,,,64,0,1,,,,,0,,,,74,108
199199,note_on,,,,,2,0,8,,,,,7,,,,46,108
199200,note_on,,,,,64,0,5,,,,,4,,,,74,108
199202,note_on,,,,,0,0,2,,,,,1,,,,65,108
199202,note_on,,,,,64,0,2,,,,,1,,,,58,108
199203,note_on,,,,,46,0,6,,,,,5,,,,70,0
199204,note_on,,,,,94,0,9,,,,,8,,,,46,0
199205,note_on,,,,,2,0,6,,,,,5,,,,65,108
199206,note_on,,,,,2,0,9,,,,,8,,,,34,108
199230,note_on,,,,,0,0,1,,,,,0,,,,74,0
199230,note_on,,,,,32,0,1,,,,,0,,,,77,0
199232,note_on,,,,,32,0,5,,,,,4,,,,74,0
199234,note_on,,,,,0,0,2,,,,,1,,,,58,0
199234,note_on,,,,,32,0,2,,,,,1,,,,65,0
199251,note_on,,,,,46,0,6,,,,,5,,,,65,0
199253,note_on,,,,,2,0,6,,,,,5,,,,70,108
199291,note_on,,,,,94,0,7,,,,,6,,,,70,0
199293,note_on,,,,,94,0,8,,,,,7,,,,46,0
199293,note_on,,,,,2,0,7,,,,,6,,,,70,108
199294,note_on,,,,,64,0,1,,,,,0,,,,75,108
199295,note_on,,,,,2,0,8,,,,,7,,,,51,108
199296,note_on,,,,,64,0,5,,,,,4,,,,75,108
199298,note_on,,,,,0,0,2,,,,,1,,,,63,108
199298,note_on,,,,,64,0,2,,,,,1,,,,55,108
199299,note_on,,,,,46,0,6,,,,,5,,,,70,0
199300,note_on,,,,,94,0,9,,,,,8,,,,34,0
199301,note_on,,,,,2,0,6,,,,,5,,,,67,108
199302,note_on,,,,,2,0,9,,,,,8,,,,39,108
199387,note_on,,,,,94,0,7,,,,,6,,,,70,0
199388,note_on,,,,,94,0,1,,,,,0,,,,75,0
199389,note_on,,,,,2,0,7,,,,,6,,,,55,108
199390,note_on,,,,,2,0,1,,,,,0,,,,70,108
199392,note_on,,,,,94,0,2,,,,,1,,,,63,0
199394,note_on,,,,,2,0,2,,,,,1,,,,58,108
199395,note_on,,,,,94,0,6,,,,,5,,,,67,0
199397,note_on,,,,,2,0,6,,,,,5,,,,63,108
199435,note_on,,,,,46,0,7,,,,,6,,,,55,0
199437,note_on,,,,,2,0,7,,,,,6,,,,55,108
199443,note_on,,,,,46,0,6,,,,,5,,,,63,0
199445,note_on,,,,,2,0,6,,,,,5,,,,63,108
199455,note_on,,,,,160,0,8,,,,,7,,,,51,0
199456,note_on,,,,,160,0,5,,,,,4,,,,75,0
199458,note_on,,,,,64,0,2,,,,,1,,,,55,0
199462,note_on,,,,,160,0,9,,,,,8,,,,39,0
199483,note_on,,,,,46,0,7,,,,,6,,,,55,0
199484,note_on,,,,,94,0,1,,,,,0,,,,70,0
199485,note_on,,,,,2,0,7,,,,,6,,,,55,108
199486,note_on,,,,,2,0,1,,,,,0,,,,75,108
199487,note_on,,,,,32,0,8,,,,,7,,,,39,108
199488,note_on,,,,,30,0,2,,,,,1,,,,58,0
199490,note_on,,,,,2,0,2,,,,,1,,,,63,108
199491,note_on,,,,,46,0,6,,,,,5,,,,63,0
199493,note_on,,,,,2,0,6,,,,,5,,,,63,108
199494,note_on,,,,,32,0,9,,,,,8,,,,27,108
199579,note_on,,,,,94,0,7,,,,,6,,,,55,0
199580,note_on,,,,,94,0,1,,,,,0,,,,75,0
199581,note_on,,,,,2,0,7,,,,,6,,,,63,108
199582,note_on,,,,,2,0,1,,,,,0,,,,70,108
199584,note_on,,,,,94,0,2,,,,,1,,,,63,0
199584,note_on,,,,,128,0,5,,,,,4,,,,70,108
199586,note_on,,,,,2,0,2,,,,,1,,,,46,108
199586,note_on,,,,,0,0,2,,,,,1,,,,58,108
199587,note_on,,,,,94,0,6,,,,,5,,,,63,0
199589,note_on,,,,,2,0,6,,,,,5,,,,67,108
199627,note_on,,,,,46,0,7,,,,,6,,,,63,0
199629,note_on,,,,,2,0,7,,,,,6,,,,63,108
199632,note_on,,,,,48,0,5,,,,,4,,,,70,0
199632,note_on,,,,,0,0,5,,,,,4,,,,75,108
199635,note_on,,,,,46,0,6,,,,,5,,,,67,0
199637,note_on,,,,,2,0,6,,,,,5,,,,67,108
199647,note_on,,,,,160,0,8,,,,,7,,,,39,0
199654,note_on,,,,,160,0,9,,,,,8,,,,27,0
199675,note_on,,,,,46,0,7,,,,,6,,,,63,0
199676,note_on,,,,,94,0,1,,,,,0,,,,70,0
199677,note_on,,,,,2,0,7,,,,,6,,,,63,108
199678,note_on,,,,,46,0,5,,,,,4,,,,75,0
199678,note_on,,,,,2,0,1,,,,,0,,,,75,108
199680,note_on,,,,,2,0,5,,,,,4,,,,79,108
199680,note_on,,,,,0,0,2,,,,,1,,,,46,0
199680,note_on,,,,,94,0,2,,,,,1,,,,58,0
199682,note_on,,,,,0,0,2,,,,,1,,,,63,108
199682,note_on,,,,,2,0,2,,,,,1,,,,51,108
199683,note_on,,,,,46,0,6,,,,,5,,,,67,0
199685,note_on,,,,,2,0,6,,,,,5,,,,67,108
199771,note_on,,,,,94,0,7,,,,,6,,,,63,0
199772,note_on,,,,,94,0,1,,,,,0,,,,75,0
199773,note_on,,,,,2,0,7,,,,,6,,,,67,108
199774,note_on,,,,,2,0,1,,,,,0,,,,79,108
199774,note_on,,,,,94,0,5,,,,,4,,,,79,0
199776,note_on,,,,,2,0,5,,,,,4,,,,75,108
199776,note_on,,,,,0,0,2,,,,,1,,,,51,0
199776,note_on,,,,,94,0,2,,,,,1,,,,63,0
199778,note_on,,,,,2,0,2,,,,,1,,,,55,108
199778,note_on,,,,,0,0,2,,,,,1,,,,67,108
199779,note_on,,,,,94,0,6,,,,,5,,,,67,0
199781,note_on,,,,,2,0,6,,,,,5,,,,70,108
199819,note_on,,,,,46,0,7,,,,,6,,,,67,0
199821,note_on,,,,,2,0,7,,,,,6,,,,67,108
199824,note_on,,,,,48,0,5,,,,,4,,,,75,0
199824,note_on,,,,,0,0,5,,,,,4,,,,79,108
199827,note_on,,,,,46,0,6,,,,,5,,,,70,0
199829,note_on,,,,,2,0,6,,,,,5,,,,70,108
199867,note_on,,,,,46,0,7,,,,,6,,,,67,0
199868,note_on,,,,,94,0,1,,,,,0,,,,79,0
199869,note_on,,,,,2,0,7,,,,,6,,,,67,108
199870,note_on,,,,,46,0,5,,,,,4,,,,79,0
199870,note_on,,,,,2,0,1,,,,,0,,,,82,108
199872,note_on,,,,,0,0,2,,,,,1,,,,55,0
199872,note_on,,,,,94,0,2,,,,,1,,,,67,0
199872,note_on,,,,,2,0,5,,,,,4,,,,82,108
199874,note_on,,,,,0,0,2,,,,,1,,,,70,108
199874,note_on,,,,,2,0,2,,,,,1,,,,58,108
199875,note_on,,,,,46,0,6,,,,,5,,,,70,0
199877,note_on,,,,,2,0,6,,,,,5,,,,70,108
199904,note_on,,,,,32,0,5,,,,,4,,,,82,0
199923,note_on,,,,,46,0,6,,,,,5,,,,70,0
199925,note_on,,,,,2,0,6,,,,,5,,,,75,108
199967,note_on,,,,,320,0,8,,,,,7,,,,51,108
199968,note_on,,,,,64,0,5,,,,,4,,,,82,108
199971,note_on,,,,,46,0,6,,,,,5,,,,75,0
199973,note_on,,,,,2,0,6,,,,,5,,,,74,108
199974,note_on,,,,,320,0,9,,,,,8,,,,39,108
200000,note_on,,,,,32,0,5,,,,,4,,,,82,0
200019,note_on,,,,,46,0,6,,,,,5,,,,74,0
200021,note_on,,,,,2,0,6,,,,,5,,,,72,108
200029,note_on,,,,,160,0,7,,,,,6,,,,67,0
200030,note_on,,,,,160,0,1,,,,,0,,,,82,0
200034,note_on,,,,,160,0,2,,,,,1,,,,70,0
200034,note_on,,,,,0,0,2,,,,,1,,,,58,0
200061,note_on,,,,,94,0,8,,,,,7,,,,51,0
200063,note_on,,,,,2,0,8,,,,,7,,,,55,108
200067,note_on,,,,,46,0,6,,,,,5,,,,72,0
200068,note_on,,,,,94,0,9,,,,,8,,,,39,0
200069,note_on,,,,,2,0,6,,,,,5,,,,70,108
200070,note_on,,,,,2,0,9,,,,,8,,,,43,108
200115,note_on,,,,,46,0,6,,,,,5,,,,70,0
200117,note_on,,,,,2,0,6,,,,,5,,,,70,108
200157,note_on,,,,,128,0,7,,,,,6,,,,70,108
200157,note_on,,,,,94,0,8,,,,,7,,,,55,0
200158,note_on,,,,,0,0,1,,,,,0,,,,79,108
200158,note_on,,,,,128,0,1,,,,,0,,,,75,108
200159,note_on,,,,,2,0,8,,,,,7,,,,51,108
200160,note_on,,,,,160,0,5,,,,,4,,,,80,108
200162,note_on,,,,,0,0,2,,,,,1,,,,67,108
200162,note_on,,,,,128,0,2,,,,,1,,,,63,108
200163,note_on,,,,,46,0,6,,,,,5,,,,70,0
200164,note_on,,,,,94,0,9,,,,,8,,,,43,0
200165,note_on,,,,,2,0,6,,,,,5,,,,63,108
200166,note_on,,,,,2,0,9,,,,,8,,,,39,108
200184,note_on,,,,,0,0,5,,,,,4,,,,79,108
200184,note_on,,,,,24,0,5,,,,,4,,,,80,0
200190,note_on,,,,,0,0,1,,,,,0,,,,75,0
200190,note_on,,,,,32,0,1,,,,,0,,,,79,0
200194,note_on,,,,,0,0,2,,,,,1,,,,63,0
200194,note_on,,,,,32,0,2,,,,,1,,,,67,0
200208,note_on,,,,,24,0,5,,,,,4,,,,79,0
200208,note_on,,,,,0,0,5,,,,,4,,,,80,108
200211,note_on,,,,,46,0,6,,,,,5,,,,63,0
200213,note_on,,,,,2,0,6,,,,,5,,,,70,108
200232,note_on,,,,,24,0,5,,,,,4,,,,80,0
200232,note_on,,,,,0,0,5,,,,,4,,,,79,108
200251,note_on,,,,,94,0,7,,,,,6,,,,70,0
200253,note_on,,,,,94,0,8,,,,,7,,,,51,0
200253,note_on,,,,,2,0,7,,,,,6,,,,70,108
200254,note_on,,,,,0,0,1,,,,,0,,,,80,108
200254,note_on,,,,,64,0,1,,,,,0,,,,77,108
200255,note_on,,,,,2,0,8,,,,,7,,,,58,108
200256,note_on,,,,,24,0,5,,,,,4,,,,79,0
200256,note_on,,,,,0,0,5,,,,,4,,,,80,108
200258,note_on,,,,,64,0,2,,,,,1,,,,65,108
200258,note_on,,,,,0,0,2,,,,,1,,,,68,108
200259,note_on,,,,,46,0,6,,,,,5,,,,70,0
200260,note_on,,,,,94,0,9,,,,,8,,,,39,0
200261,note_on,,,,,2,0,6,,,,,5,,,,65,108
200262,note_on,,,,,2,0,9,,,,,8,,,,46,108
200286,note_on,,,,,32,0,1,,,,,0,,,,80,0
200286,note_on,,,,,0,0,1,,,,,0,,,,77,0
200290,note_on,,,,,32,0,2,,,,,1,,,,68,0
200290,note_on,,,,,0,0,2,,,,,1,,,,65,0
200307,note_on,,,,,46,0,6,,,,,5,,,,65,0
200309,note_on,,,,,2,0,6,,,,,5,,,,70,108
200347,note_on,,,,,94,0,7,,,,,6,,,,70,0
200349,note_on,,,,,94,0,8,,,,,7,,,,58,0
200349,note_on,,,,,2,0,7,,,,,6,,,,70,108
200350,note_on,,,,,94,0,5,,,,,4,,,,80,0
200350,note_on,,,,,0,0,1,,,,,0,,,,77,108
200350,note_on,,,,,64,0,1,,,,,0,,,,74,108
200351,note_on,,,,,2,0,8,,,,,7,,,,46,108
200352,note_on,,,,,2,0,5,,,,,4,,,,77,108
200354,note_on,,,,,64,0,2,,,,,1,,,,58,108
200354,note_on,,,,,0,0,2,,,,,1,,,,65,108
200355,note_on,,,,,46,0,6,,,,,5,,,,70,0
200356,note_on,,,,,94,0,9,,,,,8,,,,46,0
200357,note_on,,,,,2,0,6,,,,,5,,,,62,108
200358,note_on,,,,,2,0,9,,,,,8,,,,34,108
200382,note_on,,,,,0,0,1,,,,,0,,,,74,0
200382,note_on,,,,,32,0,1,,,,,0,,,,77,0
200384,note_on,,,,,32,0,5,,,,,4,,,,77,0
200386,note_on,,,,,0,0,2,,,,,1,,,,58,0
200386,note_on,,,,,32,0,2,,,,,1,,,,65,0
200403,note_on,,,,,46,0,6,,,,,5,,,,62,0
200405,note_on,,,,,2,0,6,,,,,5,,,,70,108
200443,note_on,,,,,94,0,7,,,,,6,,,,70,0
200445,note_on,,,,,2,0,7,,,,,6,,,,67,108
200445,note_on,,,,,94,0,8,,,,,7,,,,46,0
200446,note_on,,,,,64,0,1,,,,,0,,,,75,108
200447,note_on,,,,,2,0,8,,,,,7,,,,51,108
200448,note_on,,,,,64,0,5,,,,,4,,,,75,108
200448,set_tempo,,,,,10656,1,0,,500000,,,,,,,,
200450,note_on,,,,,64,0,2,,,,,1,,,,55,108
200450,note_on,,,,,0,0,2,,,,,1,,,,63,108
200451,note_on,,,,,46,0,6,,,,,5,,,,70,0
200452,note_on,,,,,94,0,9,,,,,8,,,,34,0
200453,note_on,,,,,2,0,6,,,,,5,,,,63,108
200454,note_on,,,,,2,0,9,,,,,8,,,,39,108
200605,note_on,,,,,160,0,7,,,,,6,,,,67,0
200606,note_on,,,,,160,0,1,,,,,0,,,,75,0
200607,note_on,,,,,160,0,8,,,,,7,,,,51,0
200608,note_on,,,,,160,0,5,,,,,4,,,,75,0
200610,note_on,,,,,0,0,2,,,,,1,,,,55,0
200610,note_on,,,,,160,0,2,,,,,1,,,,63,0
200613,note_on,,,,,160,0,6,,,,,5,,,,63,0
200614,note_on,,,,,160,0,9,,,,,8,,,,39,0
200637,note_on,,,,,32,0,7,,,,,6,,,,51,108
200638,note_on,,,,,32,0,1,,,,,0,,,,75,108
200639,note_on,,,,,32,0,8,,,,,7,,,,39,108
200640,note_on,,,,,0,0,5,,,,,4,,,,63,108
200640,set_tempo,,,,,192,1,0,,600000,,,,,,,,
200640,note_on,,,,,32,0,5,,,,,4,,,,55,108
200640,end_of_track,,,,,0,1,0,,,,,,,,,,
200642,note_on,,,,,32,0,2,,,,,1,,,,51,108
200645,note_on,,,,,32,0,6,,,,,5,,,,55,108
200645,note_on,,,,,0,0,6,,,,,5,,,,63,108
200646,note_on,,,,,32,0,9,,,,,8,,,,27,10
200797,note_on,,,,,160,0,7,,,,,6,,,,51,0
200797,end_of_track,,,,,0,1,7,,,,,,,,,,
200798,end_of_track,,,,,0,1,1,,,,,,,,,,
200798,note_on,,,,,160,0,1,,,,,0,,,,75,0
200799,end_of_track,,,,,0,1,8,,,,,,,,,,
200799,note_on,,,,,160,0,8,,,,,7,,,,39,0
200800,note_on,,,,,160,0,5,,,,,4,,,,63,0
200800,note_on,,,,,0,0,5,,,,,4,,,,55,0
200800,end_of_track,,,,,0,1,5,,,,,,,,,,
200802,note_on,,,,,160,0,2,,,,,1,,,,51,0
200802,end_of_track,,,,,0,1,2,,,,,,,,,,
200805,note_on,,,,,160,0,6,,,,,5,,,,63,0
200805,note_on,,,,,0,0,6,,,,,5,,,,55,0
200805,end_of_track,,,,,0,1,6,,,,,,,,,,
200982,note_on,,,,,336,0,9,,,,,8,,,,27,0
200982,end_of_track,,,,,0,1,9,,,,,,,,,,
