tick,type,time,meta,track,numerator,denominator,clocks_per_click,notated_32nd_notes_per_beat,key,tempo,program,channel,control,value,note,velocity
0,track_name,0,1,0,,,,,,,,,,,,
0,control_change,0,0,9,,,,,,,,12,7,96,,
0,program_change,0,0,9,,,,,,,48,12,,,,
0,track_name,0,1,9,,,,,,,,,,,,
0,note_on,0,0,8,,,,,,,,11,,,79,44
0,control_change,0,0,8,,,,,,,,11,11,127,,
0,control_change,0,0,8,,,,,,,,11,121,0,,
0,control_change,0,0,8,,,,,,,,11,10,30,,
0,control_change,0,0,8,,,,,,,,11,7,96,,
0,program_change,0,0,8,,,,,,,48,11,,,,
0,control_change,0,0,9,,,,,,,,12,10,43,,
0,track_name,0,1,8,,,,,,,,,,,,
0,control_change,0,0,7,,,,,,,,2,121,0,,
0,control_change,0,0,7,,,,,,,,2,10,60,,
0,control_change,0,0,7,,,,,,,,2,7,112,,
0,program_change,0,0,7,,,,,,,56,2,,,,
0,track_name,0,1,7,,,,,,,,,,,,
0,control_change,0,0,6,,,,,,,,1,11,127,,
0,control_change,0,0,6,,,,,,,,1,121,0,,
0,control_change,0,0,6,,,,,,,,1,10,45,,
0,control_change,0,0,6,,,,,,,,1,7,104,,
0,control_change,0,0,7,,,,,,,,2,11,127,,
0,program_change,0,0,6,,,,,,,60,1,,,,
0,control_change,0,0,9,,,,,,,,12,121,0,,
0,note_on,0,0,9,,,,,,,,12,,,60,44
0,track_name,0,1,13,,,,,,,,,,,,
0,control_change,0,0,12,,,,,,,,15,11,127,,
0,control_change,0,0,12,,,,,,,,15,121,0,,
0,control_change,0,0,12,,,,,,,,15,10,83,,
0,control_change,0,0,12,,,,,,,,15,7,96,,
0,program_change,0,0,12,,,,,,,48,15,,,,
0,track_name,0,1,12,,,,,,,,,,,,
0,control_change,0,0,11,,,,,,,,14,11,127,,
0,control_change,0,0,11,,,,,,,,14,121,0,,
0,control_change,0,0,9,,,,,,,,12,11,127,,
0,control_change,0,0,11,,,,,,,,14,10,95,,
0,program_change,0,0,11,,,,,,,48,14,,,,
0,track_name,0,1,11,,,,,,,,,,,,
0,control_change,0,0,10,,,,,,,,13,11,127,,
0,control_change,0,0,10,,,,,,,,13,121,0,,
0,control_change,0,0,10,,,,,,,,13,10,85,,
0,control_change,0,0,10,,,,,,,,13,7,96,,
0,program_change,0,0,10,,,,,,,48,13,,,,
0,track_name,0,1,10,,,,,,,,,,,,
0,end_of_track,0,1,13,,,,,,,,,,,,
0,control_change,0,0,11,,,,,,,,14,7,96,,
0,track_name,0,1,6,,,,,,,,,,,,
0,end_of_track,0,1,14,,,,,,,,,,,,
0,track_name,0,1,1,,,,,,,,,,,,
0,end_of_track,0,1,1,,,,,,,,,,,,
0,control_change,0,0,5,,,,,,,,0,10,87,,
0,control_change,0,0,5,,,,,,,,0,7,96,,
0,track_name,0,1,5,,,,,,,,,,,,
0,end_of_track,0,1,4,,,,,,,,,,,,
0,end_of_track,0,1,3,,,,,,,,,,,,
0,track_name,0,1,3,,,,,,,,,,,,
0,time_signature,0,1,0,4,4,24,8,,,,,,,,
0,end_of_track,0,1,2,,,,,,,,,,,,
0,key_signature,0,1,0,,,,,C,,,,,,,
0,program_change,0,0,5,,,,,,,68,0,,,,
0,track_name,0,1,2,,,,,,,,,,,,
0,control_change,0,0,5,,,,,,,,0,121,0,,
0,control_change,0,0,5,,,,,,,,0,11,127,,
0,set_tempo,0,1,0,,,,,,240000,,,,,,
0,marker,0,1,0,,,,,,,,,,,,
39,note_on,39,0,8,,,,,,,,11,,,79,0
40,note_on,1,0,8,,,,,,,,11,,,81,44
79,note_on,39,0,8,,,,,,,,11,,,81,0
80,note_on,1,0,8,,,,,,,,11,,,79,44
99,note_on,99,0,9,,,,,,,,12,,,60,0
119,note_on,39,0,8,,,,,,,,11,,,79,0
120,note_on,1,0,8,,,,,,,,11,,,77,44
120,note_on,21,0,9,,,,,,,,12,,,62,44
179,note_on,59,0,8,,,,,,,,11,,,77,0
180,note_on,1,0,8,,,,,,,,11,,,79,44
219,note_on,99,0,9,,,,,,,,12,,,62,0
239,note_on,59,0,8,,,,,,,,11,,,79,0
240,note_on,21,0,9,,,,,,,,12,,,64,44
339,note_on,99,0,9,,,,,,,,12,,,64,0
360,note_on,21,0,9,,,,,,,,12,,,60,44
459,note_on,99,0,9,,,,,,,,12,,,60,0
480,note_on,21,0,9,,,,,,,,12,,,62,44
480,note_on,241,0,8,,,,,,,,11,,,77,44
519,note_on,39,0,8,,,,,,,,11,,,77,0
520,note_on,1,0,8,,,,,,,,11,,,79,44
559,note_on,39,0,8,,,,,,,,11,,,79,0
560,note_on,1,0,8,,,,,,,,11,,,77,44
579,note_on,99,0,9,,,,,,,,12,,,62,0
599,note_on,39,0,8,,,,,,,,11,,,77,0
600,note_on,21,0,9,,,,,,,,12,,,64,44
600,note_on,1,0,8,,,,,,,,11,,,76,44
659,note_on,59,0,8,,,,,,,,11,,,76,0
660,note_on,1,0,8,,,,,,,,11,,,77,44
699,note_on,99,0,9,,,,,,,,12,,,64,0
719,note_on,59,0,8,,,,,,,,11,,,77,0
720,note_on,21,0,9,,,,,,,,12,,,65,44
819,note_on,99,0,9,,,,,,,,12,,,65,0
840,note_on,21,0,9,,,,,,,,12,,,62,44
939,note_on,99,0,9,,,,,,,,12,,,62,0
960,note_on,21,0,9,,,,,,,,12,,,64,44
960,note_on,241,0,8,,,,,,,,11,,,76,44
999,note_on,39,0,8,,,,,,,,11,,,76,0
1000,note_on,1,0,8,,,,,,,,11,,,77,44
1039,note_on,39,0,8,,,,,,,,11,,,77,0
1040,note_on,1,0,8,,,,,,,,11,,,76,44
1059,note_on,99,0,9,,,,,,,,12,,,64,0
1079,note_on,39,0,8,,,,,,,,11,,,76,0
1080,note_on,21,0,9,,,,,,,,12,,,65,44
1080,note_on,1,0,8,,,,,,,,11,,,74,44
1139,note_on,59,0,8,,,,,,,,11,,,74,0
1140,note_on,1,0,8,,,,,,,,11,,,76,44
1179,note_on,99,0,9,,,,,,,,12,,,65,0
1199,note_on,59,0,8,,,,,,,,11,,,76,0
1200,note_on,21,0,9,,,,,,,,12,,,67,44
1299,note_on,99,0,9,,,,,,,,12,,,67,0
1320,note_on,21,0,9,,,,,,,,12,,,64,44
1419,note_on,99,0,9,,,,,,,,12,,,64,0
1440,note_on,241,0,8,,,,,,,,11,,,74,44
1440,note_on,21,0,9,,,,,,,,12,,,65,44
1479,note_on,39,0,8,,,,,,,,11,,,74,0
1480,note_on,1,0,8,,,,,,,,11,,,76,44
1519,note_on,39,0,8,,,,,,,,11,,,76,0
1520,note_on,1,0,8,,,,,,,,11,,,74,44
1539,note_on,99,0,9,,,,,,,,12,,,65,0
1559,note_on,39,0,8,,,,,,,,11,,,74,0
1560,note_on,1,0,8,,,,,,,,11,,,72,44
1560,note_on,21,0,9,,,,,,,,12,,,67,44
1619,note_on,59,0,8,,,,,,,,11,,,72,0
1620,note_on,1,0,8,,,,,,,,11,,,74,44
1659,note_on,99,0,9,,,,,,,,12,,,67,0
1679,note_on,59,0,8,,,,,,,,11,,,74,0
1680,note_on,21,0,9,,,,,,,,12,,,69,44
1779,note_on,99,0,9,,,,,,,,12,,,69,0
1800,note_on,21,0,9,,,,,,,,12,,,65,44
1899,note_on,99,0,9,,,,,,,,12,,,65,0
1920,note_on,21,0,9,,,,,,,,12,,,64,44
1920,note_on,241,0,8,,,,,,,,11,,,72,44
1959,note_on,39,0,8,,,,,,,,11,,,72,0
1960,note_on,1,0,8,,,,,,,,11,,,74,44
1999,note_on,39,0,8,,,,,,,,11,,,74,0
2000,note_on,1,0,8,,,,,,,,11,,,72,44
2019,note_on,99,0,9,,,,,,,,12,,,64,0
2039,note_on,39,0,8,,,,,,,,11,,,72,0
2040,note_on,1,0,8,,,,,,,,11,,,71,44
2040,note_on,21,0,9,,,,,,,,12,,,65,44
2099,note_on,59,0,8,,,,,,,,11,,,71,0
2100,note_on,1,0,8,,,,,,,,11,,,72,44
2139,note_on,99,0,9,,,,,,,,12,,,65,0
2159,note_on,59,0,8,,,,,,,,11,,,72,0
2160,note_on,21,0,9,,,,,,,,12,,,67,44
2259,note_on,99,0,9,,,,,,,,12,,,67,0
2280,note_on,21,0,9,,,,,,,,12,,,64,44
2379,note_on,99,0,9,,,,,,,,12,,,64,0
2400,note_on,241,0,8,,,,,,,,11,,,71,44
2400,note_on,21,0,9,,,,,,,,12,,,62,44
2439,note_on,39,0,8,,,,,,,,11,,,71,0
2440,note_on,1,0,8,,,,,,,,11,,,72,44
2479,note_on,39,0,8,,,,,,,,11,,,72,0
2480,note_on,1,0,8,,,,,,,,11,,,71,44
2499,note_on,99,0,9,,,,,,,,12,,,62,0
2519,note_on,39,0,8,,,,,,,,11,,,71,0
2520,note_on,21,0,9,,,,,,,,12,,,64,44
2520,note_on,1,0,8,,,,,,,,11,,,69,44
2579,note_on,59,0,8,,,,,,,,11,,,69,0
2580,note_on,1,0,8,,,,,,,,11,,,71,44
2619,note_on,99,0,9,,,,,,,,12,,,64,0
2639,note_on,59,0,8,,,,,,,,11,,,71,0
2640,note_on,21,0,9,,,,,,,,12,,,65,44
2739,note_on,99,0,9,,,,,,,,12,,,65,0
2760,note_on,21,0,9,,,,,,,,12,,,62,44
2859,note_on,99,0,9,,,,,,,,12,,,62,0
2880,note_on,21,0,9,,,,,,,,12,,,64,44
2880,note_on,241,0,8,,,,,,,,11,,,72,44
2979,note_on,99,0,9,,,,,,,,12,,,64,0
2999,note_on,119,0,8,,,,,,,,11,,,72,0
3000,note_on,21,0,9,,,,,,,,12,,,55,44
3099,note_on,99,0,9,,,,,,,,12,,,55,0
3120,note_on,121,0,8,,,,,,,,11,,,74,44
3120,note_on,21,0,9,,,,,,,,12,,,59,44
3219,note_on,99,0,9,,,,,,,,12,,,59,0
3239,note_on,119,0,8,,,,,,,,11,,,74,0
3240,note_on,21,0,9,,,,,,,,12,,,55,44
3339,note_on,99,0,9,,,,,,,,12,,,55,0
3360,note_on,121,0,8,,,,,,,,11,,,76,44
3360,note_on,21,0,9,,,,,,,,12,,,60,44
3459,note_on,99,0,9,,,,,,,,12,,,60,0
3479,note_on,119,0,8,,,,,,,,11,,,76,0
3480,note_on,21,0,9,,,,,,,,12,,,55,44
3579,note_on,99,0,9,,,,,,,,12,,,55,0
3600,note_on,121,0,8,,,,,,,,11,,,77,44
3600,note_on,21,0,9,,,,,,,,12,,,62,44
3699,note_on,99,0,9,,,,,,,,12,,,62,0
3719,note_on,119,0,8,,,,,,,,11,,,77,0
3720,note_on,21,0,9,,,,,,,,12,,,55,44
3819,note_on,99,0,9,,,,,,,,12,,,55,0
3840,note_on,21,0,9,,,,,,,,12,,,60,44
3840,note_on,121,0,8,,,,,,,,11,,,79,44
3879,note_on,39,0,8,,,,,,,,11,,,79,0
3880,note_on,1,0,8,,,,,,,,11,,,81,44
3919,note_on,39,0,8,,,,,,,,11,,,81,0
3920,note_on,1,0,8,,,,,,,,11,,,79,44
3939,note_on,99,0,9,,,,,,,,12,,,60,0
3959,note_on,39,0,8,,,,,,,,11,,,79,0
3960,note_on,21,0,9,,,,,,,,12,,,62,44
3960,note_on,1,0,8,,,,,,,,11,,,77,44
4019,note_on,59,0,8,,,,,,,,11,,,77,0
4020,note_on,1,0,8,,,,,,,,11,,,79,44
4059,note_on,99,0,9,,,,,,,,12,,,62,0
4079,note_on,59,0,8,,,,,,,,11,,,79,0
4080,note_on,21,0,9,,,,,,,,12,,,64,44
4179,note_on,99,0,9,,,,,,,,12,,,64,0
4200,note_on,21,0,9,,,,,,,,12,,,60,44
4299,note_on,99,0,9,,,,,,,,12,,,60,0
4320,note_on,21,0,9,,,,,,,,12,,,62,44
4320,note_on,241,0,8,,,,,,,,11,,,77,44
4359,note_on,39,0,8,,,,,,,,11,,,77,0
4360,note_on,1,0,8,,,,,,,,11,,,79,44
4399,note_on,39,0,8,,,,,,,,11,,,79,0
4400,note_on,1,0,8,,,,,,,,11,,,77,44
4419,note_on,99,0,9,,,,,,,,12,,,62,0
4439,note_on,39,0,8,,,,,,,,11,,,77,0
4440,note_on,21,0,9,,,,,,,,12,,,64,44
4440,note_on,1,0,8,,,,,,,,11,,,76,44
4499,note_on,59,0,8,,,,,,,,11,,,76,0
4500,note_on,1,0,8,,,,,,,,11,,,77,44
4539,note_on,99,0,9,,,,,,,,12,,,64,0
4559,note_on,59,0,8,,,,,,,,11,,,77,0
4560,note_on,21,0,9,,,,,,,,12,,,65,44
4659,note_on,99,0,9,,,,,,,,12,,,65,0
4680,note_on,21,0,9,,,,,,,,12,,,62,44
4779,note_on,99,0,9,,,,,,,,12,,,62,0
4800,note_on,241,0,8,,,,,,,,11,,,76,44
4800,note_on,21,0,9,,,,,,,,12,,,64,44
4839,note_on,39,0,8,,,,,,,,11,,,76,0
4840,note_on,1,0,8,,,,,,,,11,,,77,44
4879,note_on,39,0,8,,,,,,,,11,,,77,0
4880,note_on,1,0,8,,,,,,,,11,,,76,44
4899,note_on,99,0,9,,,,,,,,12,,,64,0
4919,note_on,39,0,8,,,,,,,,11,,,76,0
4920,note_on,21,0,9,,,,,,,,12,,,65,44
4920,note_on,1,0,8,,,,,,,,11,,,74,44
4979,note_on,59,0,8,,,,,,,,11,,,74,0
4980,note_on,1,0,8,,,,,,,,11,,,76,44
5019,note_on,99,0,9,,,,,,,,12,,,65,0
5039,note_on,59,0,8,,,,,,,,11,,,76,0
5040,note_on,21,0,9,,,,,,,,12,,,67,44
5139,note_on,99,0,9,,,,,,,,12,,,67,0
5160,note_on,21,0,9,,,,,,,,12,,,64,44
5259,note_on,99,0,9,,,,,,,,12,,,64,0
5280,note_on,241,0,8,,,,,,,,11,,,74,44
5280,note_on,21,0,9,,,,,,,,12,,,65,44
5319,note_on,39,0,8,,,,,,,,11,,,74,0
5320,note_on,1,0,8,,,,,,,,11,,,76,44
5359,note_on,39,0,8,,,,,,,,11,,,76,0
5360,note_on,1,0,8,,,,,,,,11,,,74,44
5379,note_on,99,0,9,,,,,,,,12,,,65,0
5399,note_on,39,0,8,,,,,,,,11,,,74,0
5400,note_on,1,0,8,,,,,,,,11,,,72,44
5400,note_on,21,0,9,,,,,,,,12,,,67,44
5459,note_on,59,0,8,,,,,,,,11,,,72,0
5460,note_on,1,0,8,,,,,,,,11,,,74,44
5499,note_on,99,0,9,,,,,,,,12,,,67,0
5519,note_on,59,0,8,,,,,,,,11,,,74,0
5520,note_on,21,0,9,,,,,,,,12,,,69,44
5619,note_on,99,0,9,,,,,,,,12,,,69,0
5640,note_on,21,0,9,,,,,,,,12,,,65,44
5739,note_on,99,0,9,,,,,,,,12,,,65,0
5760,note_on,241,0,8,,,,,,,,11,,,72,44
5760,note_on,21,0,9,,,,,,,,12,,,64,44
5799,note_on,39,0,8,,,,,,,,11,,,72,0
5800,note_on,1,0,8,,,,,,,,11,,,74,44
5839,note_on,39,0,8,,,,,,,,11,,,74,0
5840,note_on,1,0,8,,,,,,,,11,,,72,44
5859,note_on,99,0,9,,,,,,,,12,,,64,0
5879,note_on,39,0,8,,,,,,,,11,,,72,0
5880,note_on,1,0,8,,,,,,,,11,,,71,44
5880,note_on,21,0,9,,,,,,,,12,,,65,44
5939,note_on,59,0,8,,,,,,,,11,,,71,0
5940,note_on,1,0,8,,,,,,,,11,,,72,44
5979,note_on,99,0,9,,,,,,,,12,,,65,0
5999,note_on,59,0,8,,,,,,,,11,,,72,0
6000,note_on,21,0,9,,,,,,,,12,,,67,44
6099,note_on,99,0,9,,,,,,,,12,,,67,0
6120,note_on,21,0,9,,,,,,,,12,,,64,44
6219,note_on,99,0,9,,,,,,,,12,,,64,0
6240,note_on,241,0,8,,,,,,,,11,,,71,44
6240,note_on,21,0,9,,,,,,,,12,,,62,44
6279,note_on,39,0,8,,,,,,,,11,,,71,0
6280,note_on,1,0,8,,,,,,,,11,,,72,44
6319,note_on,39,0,8,,,,,,,,11,,,72,0
6320,note_on,1,0,8,,,,,,,,11,,,71,44
6339,note_on,99,0,9,,,,,,,,12,,,62,0
6359,note_on,39,0,8,,,,,,,,11,,,71,0
6360,note_on,1,0,8,,,,,,,,11,,,69,44
6360,note_on,21,0,9,,,,,,,,12,,,64,44
6419,note_on,59,0,8,,,,,,,,11,,,69,0
6420,note_on,1,0,8,,,,,,,,11,,,71,44
6459,note_on,99,0,9,,,,,,,,12,,,64,0
6479,note_on,59,0,8,,,,,,,,11,,,71,0
6480,note_on,21,0,9,,,,,,,,12,,,65,44
6579,note_on,99,0,9,,,,,,,,12,,,65,0
6600,note_on,21,0,9,,,,,,,,12,,,62,44
6699,note_on,99,0,9,,,,,,,,12,,,62,0
6720,note_on,241,0,8,,,,,,,,11,,,72,80
6720,note_on,6720,0,6,,,,,,,,1,,,60,80
6720,note_on,0,0,6,,,,,,,,1,,,48,80
6720,note_on,0,0,7,,,,,,,,2,,,60,80
6720,note_on,6720,0,11,,,,,,,,14,,,60,80
6720,note_on,6720,0,12,,,,,,,,15,,,48,80
6720,note_on,6720,0,5,,,,,,,,0,,,84,80
6720,note_on,6720,0,7,,,,,,,,2,,,72,80
6720,note_on,21,0,9,,,,,,,,12,,,60,80
6720,note_on,0,0,5,,,,,,,,0,,,72,80
6720,note_on,6720,0,10,,,,,,,,13,,,72,80
6819,note_on,99,0,9,,,,,,,,12,,,60,0
6819,note_on,99,0,11,,,,,,,,14,,,60,0
6819,note_on,99,0,10,,,,,,,,13,,,72,0
6819,note_on,99,0,12,,,,,,,,15,,,48,0
6819,note_on,99,0,8,,,,,,,,11,,,72,0
6840,note_on,21,0,10,,,,,,,,13,,,74,80
6840,note_on,21,0,9,,,,,,,,12,,,62,80
6840,note_on,21,0,8,,,,,,,,11,,,74,80
6840,note_on,21,0,11,,,,,,,,14,,,62,80
6840,note_on,21,0,12,,,,,,,,15,,,50,80
6939,note_on,99,0,12,,,,,,,,15,,,50,0
6939,note_on,99,0,9,,,,,,,,12,,,62,0
6939,note_on,99,0,10,,,,,,,,13,,,74,0
6939,note_on,99,0,8,,,,,,,,11,,,74,0
6939,note_on,99,0,11,,,,,,,,14,,,62,0
6960,note_on,21,0,12,,,,,,,,15,,,52,80
6960,note_on,21,0,9,,,,,,,,12,,,64,80
6960,note_on,21,0,8,,,,,,,,11,,,76,80
6960,note_on,21,0,10,,,,,,,,13,,,76,80
6960,note_on,21,0,11,,,,,,,,14,,,64,80
7059,note_on,99,0,11,,,,,,,,14,,,64,0
7059,note_on,99,0,12,,,,,,,,15,,,52,0
7059,note_on,99,0,8,,,,,,,,11,,,76,0
7059,note_on,99,0,10,,,,,,,,13,,,76,0
7059,note_on,99,0,9,,,,,,,,12,,,64,0
7080,note_on,21,0,12,,,,,,,,15,,,48,80
7080,note_on,21,0,11,,,,,,,,14,,,60,80
7080,note_on,21,0,8,,,,,,,,11,,,72,80
7080,note_on,21,0,10,,,,,,,,13,,,72,80
7080,note_on,21,0,9,,,,,,,,12,,,60,80
7179,note_on,459,0,5,,,,,,,,0,,,72,0
7179,note_on,99,0,8,,,,,,,,11,,,72,0
7179,note_on,0,0,7,,,,,,,,2,,,72,0
7179,note_on,459,0,6,,,,,,,,1,,,48,0
7179,note_on,0,0,6,,,,,,,,1,,,60,0
7179,note_on,99,0,10,,,,,,,,13,,,72,0
7179,note_on,99,0,11,,,,,,,,14,,,60,0
7179,note_on,0,0,5,,,,,,,,0,,,84,0
7179,note_on,99,0,12,,,,,,,,15,,,48,0
7179,note_on,99,0,9,,,,,,,,12,,,60,0
7179,note_on,459,0,7,,,,,,,,2,,,60,0
7200,note_on,21,0,10,,,,,,,,13,,,67,80
7200,note_on,0,0,7,,,,,,,,2,,,55,80
7200,note_on,21,0,7,,,,,,,,2,,,67,80
7200,note_on,21,0,12,,,,,,,,15,,,43,80
7200,note_on,21,0,11,,,,,,,,14,,,55,80
7200,note_on,0,0,6,,,,,,,,1,,,55,80
7200,note_on,21,0,6,,,,,,,,1,,,43,80
7200,note_on,21,0,8,,,,,,,,11,,,67,80
7200,note_on,0,0,5,,,,,,,,0,,,67,80
7200,note_on,21,0,5,,,,,,,,0,,,79,80
7200,note_on,21,0,9,,,,,,,,12,,,55,80
7299,note_on,99,0,10,,,,,,,,13,,,67,0
7299,note_on,99,0,8,,,,,,,,11,,,67,0
7299,note_on,99,0,12,,,,,,,,15,,,43,0
7299,note_on,99,0,9,,,,,,,,12,,,55,0
7299,note_on,99,0,11,,,,,,,,14,,,55,0
7320,note_on,21,0,12,,,,,,,,15,,,45,80
7320,note_on,21,0,8,,,,,,,,11,,,69,80
7320,note_on,21,0,9,,,,,,,,12,,,57,80
7320,note_on,21,0,10,,,,,,,,13,,,69,80
7320,note_on,21,0,11,,,,,,,,14,,,57,80
7419,note_on,99,0,12,,,,,,,,15,,,45,0
7419,note_on,99,0,10,,,,,,,,13,,,69,0
7419,note_on,99,0,9,,,,,,,,12,,,57,0
7419,note_on,99,0,8,,,,,,,,11,,,69,0
7419,note_on,99,0,11,,,,,,,,14,,,57,0
7440,note_on,21,0,9,,,,,,,,12,,,59,80
7440,note_on,21,0,10,,,,,,,,13,,,71,80
7440,note_on,21,0,8,,,,,,,,11,,,71,80
7440,note_on,21,0,12,,,,,,,,15,,,47,80
7440,note_on,21,0,11,,,,,,,,14,,,59,80
7539,note_on,99,0,12,,,,,,,,15,,,47,0
7539,note_on,99,0,11,,,,,,,,14,,,59,0
7539,note_on,99,0,9,,,,,,,,12,,,59,0
7539,note_on,99,0,8,,,,,,,,11,,,71,0
7539,note_on,99,0,10,,,,,,,,13,,,71,0
7560,note_on,21,0,9,,,,,,,,12,,,55,80
7560,note_on,21,0,11,,,,,,,,14,,,55,80
7560,note_on,21,0,10,,,,,,,,13,,,67,80
7560,note_on,21,0,8,,,,,,,,11,,,67,80
7560,note_on,21,0,12,,,,,,,,15,,,43,80
7659,note_on,99,0,11,,,,,,,,14,,,55,0
7659,note_on,0,0,6,,,,,,,,1,,,43,0
7659,note_on,459,0,6,,,,,,,,1,,,55,0
7659,note_on,99,0,10,,,,,,,,13,,,67,0
7659,note_on,0,0,7,,,,,,,,2,,,67,0
7659,note_on,99,0,12,,,,,,,,15,,,43,0
7659,note_on,459,0,5,,,,,,,,0,,,67,0
7659,note_on,0,0,5,,,,,,,,0,,,79,0
7659,note_on,459,0,7,,,,,,,,2,,,55,0
7659,note_on,99,0,8,,,,,,,,11,,,67,0
7659,note_on,99,0,9,,,,,,,,12,,,55,0
7680,note_on,21,0,5,,,,,,,,0,,,84,80
7680,note_on,0,0,5,,,,,,,,0,,,72,80
7680,note_on,21,0,6,,,,,,,,1,,,48,80
7680,note_on,21,0,8,,,,,,,,11,,,72,80
7680,note_on,0,0,6,,,,,,,,1,,,60,80
7680,note_on,21,0,11,,,,,,,,14,,,60,80
7680,note_on,21,0,9,,,,,,,,12,,,60,80
7680,note_on,21,0,12,,,,,,,,15,,,48,80
7680,note_on,21,0,10,,,,,,,,13,,,72,80
7680,note_on,21,0,7,,,,,,,,2,,,72,80
7680,note_on,0,0,7,,,,,,,,2,,,60,80
7779,note_on,99,0,12,,,,,,,,15,,,48,0
7779,note_on,99,0,8,,,,,,,,11,,,72,0
7779,note_on,99,0,9,,,,,,,,12,,,60,0
7779,note_on,99,0,10,,,,,,,,13,,,72,0
7779,note_on,99,0,11,,,,,,,,14,,,60,0
7800,note_on,21,0,11,,,,,,,,14,,,62,80
7800,note_on,21,0,9,,,,,,,,12,,,62,80
7800,note_on,21,0,12,,,,,,,,15,,,50,80
7800,note_on,21,0,8,,,,,,,,11,,,74,80
7800,note_on,21,0,10,,,,,,,,13,,,74,80
7899,note_on,99,0,12,,,,,,,,15,,,50,0
7899,note_on,99,0,10,,,,,,,,13,,,74,0
7899,note_on,99,0,11,,,,,,,,14,,,62,0
7899,note_on,99,0,9,,,,,,,,12,,,62,0
7899,note_on,99,0,8,,,,,,,,11,,,74,0
7920,note_on,21,0,8,,,,,,,,11,,,76,80
7920,note_on,21,0,12,,,,,,,,15,,,52,80
7920,note_on,21,0,11,,,,,,,,14,,,64,80
7920,note_on,21,0,10,,,,,,,,13,,,76,80
7920,note_on,21,0,9,,,,,,,,12,,,64,80
8019,note_on,99,0,10,,,,,,,,13,,,76,0
8019,note_on,99,0,8,,,,,,,,11,,,76,0
8019,note_on,99,0,12,,,,,,,,15,,,52,0
8019,note_on,99,0,11,,,,,,,,14,,,64,0
8019,note_on,99,0,9,,,,,,,,12,,,64,0
8040,note_on,21,0,9,,,,,,,,12,,,60,80
8040,note_on,21,0,12,,,,,,,,15,,,48,80
8040,note_on,21,0,10,,,,,,,,13,,,72,80
8040,note_on,21,0,8,,,,,,,,11,,,72,80
8040,note_on,21,0,11,,,,,,,,14,,,60,80
8139,note_on,0,0,5,,,,,,,,0,,,84,0
8139,note_on,99,0,9,,,,,,,,12,,,60,0
8139,note_on,99,0,12,,,,,,,,15,,,48,0
8139,note_on,99,0,8,,,,,,,,11,,,72,0
8139,note_on,99,0,11,,,,,,,,14,,,60,0
8139,note_on,459,0,7,,,,,,,,2,,,60,0
8139,note_on,459,0,5,,,,,,,,0,,,72,0
8139,note_on,459,0,6,,,,,,,,1,,,60,0
8139,note_on,0,0,6,,,,,,,,1,,,48,0
8139,note_on,0,0,7,,,,,,,,2,,,72,0
8139,note_on,99,0,10,,,,,,,,13,,,72,0
8160,note_on,21,0,7,,,,,,,,2,,,67,80
8160,note_on,21,0,8,,,,,,,,11,,,67,80
8160,note_on,21,0,9,,,,,,,,12,,,55,80
8160,note_on,21,0,6,,,,,,,,1,,,55,80
8160,note_on,0,0,6,,,,,,,,1,,,43,80
8160,note_on,21,0,12,,,,,,,,15,,,43,80
8160,note_on,0,0,5,,,,,,,,0,,,67,80
8160,note_on,21,0,10,,,,,,,,13,,,67,80
8160,note_on,0,0,7,,,,,,,,2,,,55,80
8160,note_on,21,0,5,,,,,,,,0,,,79,80
8160,note_on,21,0,11,,,,,,,,14,,,55,80
8259,note_on,99,0,10,,,,,,,,13,,,67,0
8259,note_on,99,0,9,,,,,,,,12,,,55,0
8259,note_on,99,0,8,,,,,,,,11,,,67,0
8259,note_on,99,0,11,,,,,,,,14,,,55,0
8259,note_on,99,0,12,,,,,,,,15,,,43,0
8280,note_on,21,0,10,,,,,,,,13,,,69,80
8280,note_on,21,0,9,,,,,,,,12,,,57,80
8280,note_on,21,0,12,,,,,,,,15,,,45,80
8280,note_on,21,0,8,,,,,,,,11,,,69,80
8280,note_on,21,0,11,,,,,,,,14,,,57,80
8379,note_on,99,0,11,,,,,,,,14,,,57,0
8379,note_on,99,0,8,,,,,,,,11,,,69,0
8379,note_on,99,0,12,,,,,,,,15,,,45,0
8379,note_on,99,0,9,,,,,,,,12,,,57,0
8379,note_on,99,0,10,,,,,,,,13,,,69,0
8400,note_on,21,0,12,,,,,,,,15,,,47,80
8400,note_on,21,0,11,,,,,,,,14,,,59,80
8400,note_on,21,0,10,,,,,,,,13,,,71,80
8400,note_on,21,0,9,,,,,,,,12,,,59,80
8400,note_on,21,0,8,,,,,,,,11,,,71,80
8499,note_on,99,0,12,,,,,,,,15,,,47,0
8499,note_on,99,0,10,,,,,,,,13,,,71,0
8499,note_on,99,0,8,,,,,,,,11,,,71,0
8499,note_on,99,0,11,,,,,,,,14,,,59,0
8499,note_on,99,0,9,,,,,,,,12,,,59,0
8520,note_on,21,0,10,,,,,,,,13,,,67,80
8520,note_on,21,0,11,,,,,,,,14,,,55,80
8520,note_on,21,0,8,,,,,,,,11,,,67,80
8520,note_on,21,0,9,,,,,,,,12,,,55,80
8520,note_on,21,0,12,,,,,,,,15,,,43,80
8619,note_on,99,0,12,,,,,,,,15,,,43,0
8619,note_on,99,0,10,,,,,,,,13,,,67,0
8619,note_on,99,0,8,,,,,,,,11,,,67,0
8619,note_on,99,0,11,,,,,,,,14,,,55,0
8619,note_on,99,0,9,,,,,,,,12,,,55,0
8639,note_on,0,0,6,,,,,,,,1,,,55,0
8639,note_on,0,0,5,,,,,,,,0,,,79,0
8639,note_on,479,0,6,,,,,,,,1,,,43,0
8639,note_on,479,0,7,,,,,,,,2,,,55,0
8639,note_on,479,0,5,,,,,,,,0,,,67,0
8639,note_on,0,0,7,,,,,,,,2,,,67,0
8640,note_on,21,0,9,,,,,,,,12,,,60,44
8640,note_on,21,0,8,,,,,,,,11,,,79,44
8640,note_on,21,0,12,,,,,,,,15,,,48,44
8640,note_on,21,0,10,,,,,,,,13,,,72,44
8640,note_on,21,0,11,,,,,,,,14,,,60,44
8679,note_on,39,0,8,,,,,,,,11,,,79,0
8680,note_on,1,0,8,,,,,,,,11,,,81,44
8719,note_on,39,0,8,,,,,,,,11,,,81,0
8720,note_on,1,0,8,,,,,,,,11,,,79,44
8739,note_on,99,0,9,,,,,,,,12,,,60,0
8759,note_on,39,0,8,,,,,,,,11,,,79,0
8760,note_on,21,0,9,,,,,,,,12,,,62,44
8760,note_on,1,0,8,,,,,,,,11,,,77,44
8819,note_on,59,0,8,,,,,,,,11,,,77,0
8820,note_on,1,0,8,,,,,,,,11,,,79,44
8859,note_on,99,0,9,,,,,,,,12,,,62,0
8879,note_on,59,0,8,,,,,,,,11,,,79,0
8879,note_on,239,0,12,,,,,,,,15,,,48,0
8879,note_on,239,0,10,,,,,,,,13,,,72,0
8879,note_on,239,0,11,,,,,,,,14,,,60,0
8880,note_on,21,0,9,,,,,,,,12,,,64,44
8979,note_on,99,0,9,,,,,,,,12,,,64,0
9000,note_on,21,0,9,,,,,,,,12,,,60,44
9099,note_on,99,0,9,,,,,,,,12,,,60,0
9120,note_on,21,0,9,,,,,,,,12,,,62,44
9120,note_on,241,0,8,,,,,,,,11,,,77,44
9159,note_on,39,0,8,,,,,,,,11,,,77,0
9160,note_on,1,0,8,,,,,,,,11,,,79,44
9199,note_on,39,0,8,,,,,,,,11,,,79,0
9200,note_on,1,0,8,,,,,,,,11,,,77,44
9219,note_on,99,0,9,,,,,,,,12,,,62,0
9239,note_on,39,0,8,,,,,,,,11,,,77,0
9240,note_on,1,0,8,,,,,,,,11,,,76,44
9240,note_on,21,0,9,,,,,,,,12,,,64,44
9299,note_on,59,0,8,,,,,,,,11,,,76,0
9300,note_on,1,0,8,,,,,,,,11,,,77,44
9339,note_on,99,0,9,,,,,,,,12,,,64,0
9359,note_on,59,0,8,,,,,,,,11,,,77,0
9360,note_on,21,0,9,,,,,,,,12,,,65,44
9459,note_on,99,0,9,,,,,,,,12,,,65,0
9480,note_on,21,0,9,,,,,,,,12,,,62,44
9579,note_on,99,0,9,,,,,,,,12,,,62,0
9600,note_on,21,0,9,,,,,,,,12,,,64,44
9600,note_on,241,0,8,,,,,,,,11,,,76,44
9639,note_on,39,0,8,,,,,,,,11,,,76,0
9640,note_on,1,0,8,,,,,,,,11,,,77,44
9679,note_on,39,0,8,,,,,,,,11,,,77,0
9680,note_on,1,0,8,,,,,,,,11,,,76,44
9699,note_on,99,0,9,,,,,,,,12,,,64,0
9719,note_on,39,0,8,,,,,,,,11,,,76,0
9720,note_on,1,0,8,,,,,,,,11,,,74,44
9720,note_on,21,0,9,,,,,,,,12,,,65,44
9779,note_on,59,0,8,,,,,,,,11,,,74,0
9780,note_on,1,0,8,,,,,,,,11,,,76,44
9819,note_on,99,0,9,,,,,,,,12,,,65,0
9839,note_on,59,0,8,,,,,,,,11,,,76,0
9840,note_on,21,0,9,,,,,,,,12,,,67,44
9939,note_on,99,0,9,,,,,,,,12,,,67,0
9960,note_on,21,0,9,,,,,,,,12,,,64,44
10059,note_on,99,0,9,,,,,,,,12,,,64,0
10080,note_on,21,0,9,,,,,,,,12,,,65,44
10080,note_on,241,0,8,,,,,,,,11,,,74,44
10119,note_on,39,0,8,,,,,,,,11,,,74,0
10120,note_on,1,0,8,,,,,,,,11,,,76,44
10159,note_on,39,0,8,,,,,,,,11,,,76,0
10160,note_on,1,0,8,,,,,,,,11,,,74,44
10179,note_on,99,0,9,,,,,,,,12,,,65,0
10199,note_on,39,0,8,,,,,,,,11,,,74,0
10200,note_on,1,0,8,,,,,,,,11,,,72,44
10200,note_on,21,0,9,,,,,,,,12,,,67,44
10259,note_on,59,0,8,,,,,,,,11,,,72,0
10260,note_on,1,0,8,,,,,,,,11,,,74,44
10299,note_on,99,0,9,,,,,,,,12,,,67,0
10319,note_on,59,0,8,,,,,,,,11,,,74,0
10320,note_on,21,0,9,,,,,,,,12,,,69,44
10419,note_on,99,0,9,,,,,,,,12,,,69,0
10440,note_on,21,0,9,,,,,,,,12,,,65,44
10539,note_on,99,0,9,,,,,,,,12,,,65,0
10560,note_on,21,0,9,,,,,,,,12,,,64,44
10560,note_on,241,0,8,,,,,,,,11,,,72,44
10599,note_on,39,0,8,,,,,,,,11,,,72,0
10600,note_on,1,0,8,,,,,,,,11,,,74,44
10639,note_on,39,0,8,,,,,,,,11,,,74,0
10640,note_on,1,0,8,,,,,,,,11,,,72,44
10659,note_on,99,0,9,,,,,,,,12,,,64,0
10679,note_on,39,0,8,,,,,,,,11,,,72,0
10680,note_on,1,0,8,,,,,,,,11,,,71,44
10680,note_on,21,0,9,,,,,,,,12,,,65,44
10739,note_on,59,0,8,,,,,,,,11,,,71,0
10740,note_on,1,0,8,,,,,,,,11,,,72,44
10779,note_on,99,0,9,,,,,,,,12,,,65,0
10799,note_on,59,0,8,,,,,,,,11,,,72,0
10800,note_on,21,0,9,,,,,,,,12,,,67,44
10899,note_on,99,0,9,,,,,,,,12,,,67,0
10920,note_on,21,0,9,,,,,,,,12,,,64,44
11019,note_on,99,0,9,,,,,,,,12,,,64,0
11040,note_on,21,0,9,,,,,,,,12,,,62,44
11040,note_on,241,0,8,,,,,,,,11,,,71,44
11079,note_on,39,0,8,,,,,,,,11,,,71,0
11080,note_on,1,0,8,,,,,,,,11,,,72,44
11119,note_on,39,0,8,,,,,,,,11,,,72,0
11120,note_on,1,0,8,,,,,,,,11,,,71,44
11139,note_on,99,0,9,,,,,,,,12,,,62,0
11159,note_on,39,0,8,,,,,,,,11,,,71,0
11160,note_on,1,0,8,,,,,,,,11,,,69,44
11160,note_on,21,0,9,,,,,,,,12,,,64,44
11219,note_on,59,0,8,,,,,,,,11,,,69,0
11220,note_on,1,0,8,,,,,,,,11,,,71,44
11259,note_on,99,0,9,,,,,,,,12,,,64,0
11279,note_on,59,0,8,,,,,,,,11,,,71,0
11280,note_on,21,0,9,,,,,,,,12,,,65,44
11379,note_on,99,0,9,,,,,,,,12,,,65,0
11400,note_on,21,0,9,,,,,,,,12,,,62,44
11499,note_on,99,0,9,,,,,,,,12,,,62,0
11520,note_on,21,0,9,,,,,,,,12,,,64,44
11520,note_on,241,0,8,,,,,,,,11,,,72,44
11619,note_on,99,0,9,,,,,,,,12,,,64,0
11639,note_on,119,0,8,,,,,,,,11,,,72,0
11640,note_on,21,0,9,,,,,,,,12,,,55,44
11739,note_on,99,0,9,,,,,,,,12,,,55,0
11760,note_on,21,0,9,,,,,,,,12,,,59,44
11760,note_on,121,0,8,,,,,,,,11,,,74,44
11859,note_on,99,0,9,,,,,,,,12,,,59,0
11879,note_on,119,0,8,,,,,,,,11,,,74,0
11880,note_on,21,0,9,,,,,,,,12,,,55,44
11979,note_on,99,0,9,,,,,,,,12,,,55,0
12000,note_on,21,0,9,,,,,,,,12,,,60,44
12000,note_on,121,0,8,,,,,,,,11,,,76,44
12099,note_on,99,0,9,,,,,,,,12,,,60,0
12119,note_on,119,0,8,,,,,,,,11,,,76,0
12120,note_on,21,0,9,,,,,,,,12,,,55,44
12219,note_on,99,0,9,,,,,,,,12,,,55,0
12240,note_on,121,0,8,,,,,,,,11,,,77,44
12240,note_on,21,0,9,,,,,,,,12,,,62,44
12339,note_on,99,0,9,,,,,,,,12,,,62,0
12359,note_on,119,0,8,,,,,,,,11,,,77,0
12360,note_on,21,0,9,,,,,,,,12,,,55,44
12459,note_on,99,0,9,,,,,,,,12,,,55,0
12480,note_on,121,0,8,,,,,,,,11,,,79,44
12480,note_on,21,0,9,,,,,,,,12,,,60,44
12519,note_on,39,0,8,,,,,,,,11,,,79,0
12520,note_on,1,0,8,,,,,,,,11,,,81,44
12559,note_on,39,0,8,,,,,,,,11,,,81,0
12560,note_on,1,0,8,,,,,,,,11,,,79,44
12579,note_on,99,0,9,,,,,,,,12,,,60,0
12599,note_on,39,0,8,,,,,,,,11,,,79,0
12600,note_on,21,0,9,,,,,,,,12,,,62,44
12600,note_on,1,0,8,,,,,,,,11,,,77,44
12659,note_on,59,0,8,,,,,,,,11,,,77,0
12660,note_on,1,0,8,,,,,,,,11,,,79,44
12699,note_on,99,0,9,,,,,,,,12,,,62,0
12719,note_on,59,0,8,,,,,,,,11,,,79,0
12720,note_on,21,0,9,,,,,,,,12,,,64,44
12819,note_on,99,0,9,,,,,,,,12,,,64,0
12840,note_on,21,0,9,,,,,,,,12,,,60,44
12939,note_on,99,0,9,,,,,,,,12,,,60,0
12960,note_on,241,0,8,,,,,,,,11,,,77,44
12960,note_on,21,0,9,,,,,,,,12,,,62,44
12999,note_on,39,0,8,,,,,,,,11,,,77,0
13000,note_on,1,0,8,,,,,,,,11,,,79,44
13039,note_on,39,0,8,,,,,,,,11,,,79,0
13040,note_on,1,0,8,,,,,,,,11,,,77,44
13059,note_on,99,0,9,,,,,,,,12,,,62,0
13079,note_on,39,0,8,,,,,,,,11,,,77,0
13080,note_on,1,0,8,,,,,,,,11,,,76,44
13080,note_on,21,0,9,,,,,,,,12,,,64,44
13139,note_on,59,0,8,,,,,,,,11,,,76,0
13140,note_on,1,0,8,,,,,,,,11,,,77,44
13179,note_on,99,0,9,,,,,,,,12,,,64,0
13199,note_on,59,0,8,,,,,,,,11,,,77,0
13200,note_on,21,0,9,,,,,,,,12,,,65,44
13299,note_on,99,0,9,,,,,,,,12,,,65,0
13320,note_on,21,0,9,,,,,,,,12,,,62,44
13419,note_on,99,0,9,,,,,,,,12,,,62,0
13440,note_on,21,0,9,,,,,,,,12,,,64,44
13440,note_on,241,0,8,,,,,,,,11,,,76,44
13479,note_on,39,0,8,,,,,,,,11,,,76,0
13480,note_on,1,0,8,,,,,,,,11,,,77,44
13519,note_on,39,0,8,,,,,,,,11,,,77,0
13520,note_on,1,0,8,,,,,,,,11,,,76,44
13539,note_on,99,0,9,,,,,,,,12,,,64,0
13559,note_on,39,0,8,,,,,,,,11,,,76,0
13560,note_on,1,0,8,,,,,,,,11,,,74,44
13560,note_on,21,0,9,,,,,,,,12,,,65,44
13619,note_on,59,0,8,,,,,,,,11,,,74,0
13620,note_on,1,0,8,,,,,,,,11,,,76,44
13659,note_on,99,0,9,,,,,,,,12,,,65,0
13679,note_on,59,0,8,,,,,,,,11,,,76,0
13680,note_on,21,0,9,,,,,,,,12,,,67,44
13779,note_on,99,0,9,,,,,,,,12,,,67,0
13800,note_on,21,0,9,,,,,,,,12,,,64,44
13899,note_on,99,0,9,,,,,,,,12,,,64,0
13920,note_on,241,0,8,,,,,,,,11,,,74,44
13920,note_on,21,0,9,,,,,,,,12,,,65,44
13959,note_on,39,0,8,,,,,,,,11,,,74,0
13960,note_on,1,0,8,,,,,,,,11,,,76,44
13999,note_on,39,0,8,,,,,,,,11,,,76,0
14000,note_on,1,0,8,,,,,,,,11,,,74,44
14019,note_on,99,0,9,,,,,,,,12,,,65,0
14039,note_on,39,0,8,,,,,,,,11,,,74,0
14040,note_on,21,0,9,,,,,,,,12,,,67,44
14040,note_on,1,0,8,,,,,,,,11,,,72,44
14099,note_on,59,0,8,,,,,,,,11,,,72,0
14100,note_on,1,0,8,,,,,,,,11,,,74,44
14139,note_on,99,0,9,,,,,,,,12,,,67,0
14159,note_on,59,0,8,,,,,,,,11,,,74,0
14160,note_on,21,0,9,,,,,,,,12,,,69,44
14259,note_on,99,0,9,,,,,,,,12,,,69,0
14280,note_on,21,0,9,,,,,,,,12,,,65,44
14379,note_on,99,0,9,,,,,,,,12,,,65,0
14400,note_on,241,0,8,,,,,,,,11,,,72,44
14400,note_on,21,0,9,,,,,,,,12,,,64,44
14439,note_on,39,0,8,,,,,,,,11,,,72,0
14440,note_on,1,0,8,,,,,,,,11,,,74,44
14479,note_on,39,0,8,,,,,,,,11,,,74,0
14480,note_on,1,0,8,,,,,,,,11,,,72,44
14499,note_on,99,0,9,,,,,,,,12,,,64,0
14519,note_on,39,0,8,,,,,,,,11,,,72,0
14520,note_on,21,0,9,,,,,,,,12,,,65,44
14520,note_on,1,0,8,,,,,,,,11,,,71,44
14579,note_on,59,0,8,,,,,,,,11,,,71,0
14580,note_on,1,0,8,,,,,,,,11,,,72,44
14619,note_on,99,0,9,,,,,,,,12,,,65,0
14639,note_on,59,0,8,,,,,,,,11,,,72,0
14640,note_on,21,0,9,,,,,,,,12,,,67,44
14739,note_on,99,0,9,,,,,,,,12,,,67,0
14760,note_on,21,0,9,,,,,,,,12,,,64,44
14859,note_on,99,0,9,,,,,,,,12,,,64,0
14880,note_on,241,0,8,,,,,,,,11,,,71,44
14880,note_on,21,0,9,,,,,,,,12,,,62,44
14919,note_on,39,0,8,,,,,,,,11,,,71,0
14920,note_on,1,0,8,,,,,,,,11,,,72,44
14959,note_on,39,0,8,,,,,,,,11,,,72,0
14960,note_on,1,0,8,,,,,,,,11,,,71,44
14979,note_on,99,0,9,,,,,,,,12,,,62,0
14999,note_on,39,0,8,,,,,,,,11,,,71,0
15000,note_on,21,0,9,,,,,,,,12,,,64,44
15000,note_on,1,0,8,,,,,,,,11,,,69,44
15059,note_on,59,0,8,,,,,,,,11,,,69,0
15060,note_on,1,0,8,,,,,,,,11,,,71,44
15099,note_on,99,0,9,,,,,,,,12,,,64,0
15119,note_on,59,0,8,,,,,,,,11,,,71,0
15120,note_on,21,0,9,,,,,,,,12,,,65,44
15219,note_on,99,0,9,,,,,,,,12,,,65,0
15240,note_on,21,0,9,,,,,,,,12,,,62,44
15339,note_on,99,0,9,,,,,,,,12,,,62,0
15360,note_on,6721,0,5,,,,,,,,0,,,84,80
15360,note_on,0,0,5,,,,,,,,0,,,72,80
15360,note_on,6481,0,12,,,,,,,,15,,,48,80
15360,note_on,6481,0,11,,,,,,,,14,,,60,80
15360,note_on,0,0,6,,,,,,,,1,,,48,80
15360,note_on,6721,0,6,,,,,,,,1,,,60,80
15360,note_on,241,0,8,,,,,,,,11,,,72,80
15360,note_on,0,0,7,,,,,,,,2,,,60,80
15360,note_on,6481,0,10,,,,,,,,13,,,72,80
15360,note_on,21,0,9,,,,,,,,12,,,60,80
15360,note_on,6721,0,7,,,,,,,,2,,,72,80
15459,note_on,99,0,11,,,,,,,,14,,,60,0
15459,note_on,99,0,10,,,,,,,,13,,,72,0
15459,note_on,99,0,8,,,,,,,,11,,,72,0
15459,note_on,99,0,12,,,,,,,,15,,,48,0
15459,note_on,99,0,9,,,,,,,,12,,,60,0
15480,note_on,21,0,12,,,,,,,,15,,,50,80
15480,note_on,21,0,9,,,,,,,,12,,,62,80
15480,note_on,21,0,10,,,,,,,,13,,,74,80
15480,note_on,21,0,11,,,,,,,,14,,,62,80
15480,note_on,21,0,8,,,,,,,,11,,,74,80
15579,note_on,99,0,10,,,,,,,,13,,,74,0
15579,note_on,99,0,11,,,,,,,,14,,,62,0
15579,note_on,99,0,12,,,,,,,,15,,,50,0
15579,note_on,99,0,8,,,,,,,,11,,,74,0
15579,note_on,99,0,9,,,,,,,,12,,,62,0
15600,note_on,21,0,11,,,,,,,,14,,,64,80
15600,note_on,21,0,9,,,,,,,,12,,,64,80
15600,note_on,21,0,12,,,,,,,,15,,,52,80
15600,note_on,21,0,8,,,,,,,,11,,,76,80
15600,note_on,21,0,10,,,,,,,,13,,,76,80
15699,note_on,99,0,9,,,,,,,,12,,,64,0
15699,note_on,99,0,12,,,,,,,,15,,,52,0
15699,note_on,99,0,8,,,,,,,,11,,,76,0
15699,note_on,99,0,10,,,,,,,,13,,,76,0
15699,note_on,99,0,11,,,,,,,,14,,,64,0
15720,note_on,21,0,10,,,,,,,,13,,,72,80
15720,note_on,21,0,12,,,,,,,,15,,,48,80
15720,note_on,21,0,9,,,,,,,,12,,,60,80
15720,note_on,21,0,8,,,,,,,,11,,,72,80
15720,note_on,21,0,11,,,,,,,,14,,,60,80
15819,note_on,459,0,7,,,,,,,,2,,,60,0
15819,note_on,99,0,11,,,,,,,,14,,,60,0
15819,note_on,0,0,6,,,,,,,,1,,,60,0
15819,note_on,459,0,6,,,,,,,,1,,,48,0
15819,note_on,0,0,7,,,,,,,,2,,,72,0
15819,note_on,459,0,5,,,,,,,,0,,,72,0
15819,note_on,99,0,9,,,,,,,,12,,,60,0
15819,note_on,99,0,8,,,,,,,,11,,,72,0
15819,note_on,99,0,10,,,,,,,,13,,,72,0
15819,note_on,99,0,12,,,,,,,,15,,,48,0
15819,note_on,0,0,5,,,,,,,,0,,,84,0
15840,note_on,21,0,7,,,,,,,,2,,,55,80
15840,note_on,0,0,5,,,,,,,,0,,,67,80
15840,note_on,21,0,11,,,,,,,,14,,,55,80
15840,note_on,21,0,8,,,,,,,,11,,,67,80
15840,note_on,21,0,10,,,,,,,,13,,,67,80
15840,note_on,21,0,6,,,,,,,,1,,,55,80
15840,note_on,21,0,5,,,,,,,,0,,,79,80
15840,note_on,21,0,9,,,,,,,,12,,,55,80
15840,note_on,0,0,7,,,,,,,,2,,,67,80
15840,note_on,0,0,6,,,,,,,,1,,,43,80
15840,note_on,21,0,12,,,,,,,,15,,,43,80
15939,note_on,99,0,10,,,,,,,,13,,,67,0
15939,note_on,99,0,8,,,,,,,,11,,,67,0
15939,note_on,99,0,11,,,,,,,,14,,,55,0
15939,note_on,99,0,12,,,,,,,,15,,,43,0
15939,note_on,99,0,9,,,,,,,,12,,,55,0
15960,note_on,21,0,11,,,,,,,,14,,,57,80
15960,note_on,21,0,12,,,,,,,,15,,,45,80
15960,note_on,21,0,8,,,,,,,,11,,,69,80
15960,note_on,21,0,10,,,,,,,,13,,,69,80
15960,note_on,21,0,9,,,,,,,,12,,,57,80
16059,note_on,99,0,11,,,,,,,,14,,,57,0
16059,note_on,99,0,10,,,,,,,,13,,,69,0
16059,note_on,99,0,8,,,,,,,,11,,,69,0
16059,note_on,99,0,12,,,,,,,,15,,,45,0
16059,note_on,99,0,9,,,,,,,,12,,,57,0
16080,note_on,21,0,8,,,,,,,,11,,,71,80
16080,note_on,21,0,10,,,,,,,,13,,,71,80
16080,note_on,21,0,11,,,,,,,,14,,,59,80
16080,note_on,21,0,9,,,,,,,,12,,,59,80
16080,note_on,21,0,12,,,,,,,,15,,,47,80
16179,note_on,99,0,8,,,,,,,,11,,,71,0
16179,note_on,99,0,12,,,,,,,,15,,,47,0
16179,note_on,99,0,9,,,,,,,,12,,,59,0
16179,note_on,99,0,11,,,,,,,,14,,,59,0
16179,note_on,99,0,10,,,,,,,,13,,,71,0
16200,note_on,21,0,12,,,,,,,,15,,,43,80
16200,note_on,21,0,8,,,,,,,,11,,,67,80
16200,note_on,21,0,10,,,,,,,,13,,,67,80
16200,note_on,21,0,9,,,,,,,,12,,,55,80
16200,note_on,21,0,11,,,,,,,,14,,,55,80
16299,note_on,99,0,9,,,,,,,,12,,,55,0
16299,note_on,0,0,6,,,,,,,,1,,,55,0
16299,note_on,0,0,5,,,,,,,,0,,,79,0
16299,note_on,459,0,6,,,,,,,,1,,,43,0
16299,note_on,99,0,12,,,,,,,,15,,,43,0
16299,note_on,459,0,5,,,,,,,,0,,,67,0
16299,note_on,459,0,7,,,,,,,,2,,,67,0
16299,note_on,99,0,11,,,,,,,,14,,,55,0
16299,note_on,99,0,10,,,,,,,,13,,,67,0
16299,note_on,99,0,8,,,,,,,,11,,,67,0
16299,note_on,0,0,7,,,,,,,,2,,,55,0
16320,note_on,21,0,12,,,,,,,,15,,,48,80
16320,note_on,21,0,8,,,,,,,,11,,,72,80
16320,note_on,0,0,7,,,,,,,,2,,,72,80
16320,note_on,21,0,11,,,,,,,,14,,,60,80
16320,note_on,0,0,6,,,,,,,,1,,,48,80
16320,note_on,21,0,6,,,,,,,,1,,,60,80
16320,note_on,21,0,5,,,,,,,,0,,,84,80
16320,note_on,21,0,7,,,,,,,,2,,,60,80
16320,note_on,21,0,10,,,,,,,,13,,,72,80
16320,note_on,0,0,5,,,,,,,,0,,,72,80
16320,note_on,21,0,9,,,,,,,,12,,,60,80
16419,note_on,99,0,11,,,,,,,,14,,,60,0
16419,note_on,99,0,12,,,,,,,,15,,,48,0
16419,note_on,99,0,10,,,,,,,,13,,,72,0
16419,note_on,99,0,8,,,,,,,,11,,,72,0
16419,note_on,99,0,9,,,,,,,,12,,,60,0
16440,note_on,21,0,11,,,,,,,,14,,,62,80
16440,note_on,21,0,12,,,,,,,,15,,,50,80
16440,note_on,21,0,10,,,,,,,,13,,,74,80
16440,note_on,21,0,8,,,,,,,,11,,,74,80
16440,note_on,21,0,9,,,,,,,,12,,,62,80
16539,note_on,99,0,11,,,,,,,,14,,,62,0
16539,note_on,99,0,10,,,,,,,,13,,,74,0
16539,note_on,99,0,8,,,,,,,,11,,,74,0
16539,note_on,99,0,9,,,,,,,,12,,,62,0
16539,note_on,99,0,12,,,,,,,,15,,,50,0
16560,note_on,21,0,9,,,,,,,,12,,,64,80
16560,note_on,21,0,11,,,,,,,,14,,,64,80
16560,note_on,21,0,12,,,,,,,,15,,,52,80
16560,note_on,21,0,10,,,,,,,,13,,,76,80
16560,note_on,21,0,8,,,,,,,,11,,,76,80
16659,note_on,99,0,12,,,,,,,,15,,,52,0
16659,note_on,99,0,10,,,,,,,,13,,,76,0
16659,note_on,99,0,11,,,,,,,,14,,,64,0
16659,note_on,99,0,9,,,,,,,,12,,,64,0
16659,note_on,99,0,8,,,,,,,,11,,,76,0
16680,note_on,21,0,9,,,,,,,,12,,,60,80
16680,note_on,21,0,11,,,,,,,,14,,,60,80
16680,note_on,21,0,10,,,,,,,,13,,,72,80
16680,note_on,21,0,8,,,,,,,,11,,,72,80
16680,note_on,21,0,12,,,,,,,,15,,,48,80
16779,note_on,459,0,7,,,,,,,,2,,,72,0
16779,note_on,0,0,7,,,,,,,,2,,,60,0
16779,note_on,459,0,6,,,,,,,,1,,,48,0
16779,note_on,99,0,11,,,,,,,,14,,,60,0
16779,note_on,99,0,10,,,,,,,,13,,,72,0
16779,note_on,99,0,8,,,,,,,,11,,,72,0
16779,note_on,459,0,5,,,,,,,,0,,,72,0
16779,note_on,0,0,5,,,,,,,,0,,,84,0
16779,note_on,99,0,9,,,,,,,,12,,,60,0
16779,note_on,0,0,6,,,,,,,,1,,,60,0
16779,note_on,99,0,12,,,,,,,,15,,,48,0
16800,note_on,0,0,6,,,,,,,,1,,,43,80
16800,note_on,21,0,11,,,,,,,,14,,,55,80
16800,note_on,0,0,7,,,,,,,,2,,,55,80
16800,note_on,21,0,8,,,,,,,,11,,,67,80
16800,note_on,0,0,5,,,,,,,,0,,,67,80
16800,note_on,21,0,9,,,,,,,,12,,,55,80
16800,note_on,21,0,5,,,,,,,,0,,,79,80
16800,note_on,21,0,6,,,,,,,,1,,,55,80
16800,note_on,21,0,10,,,,,,,,13,,,67,80
16800,note_on,21,0,12,,,,,,,,15,,,43,80
16800,note_on,21,0,7,,,,,,,,2,,,67,80
16899,note_on,99,0,11,,,,,,,,14,,,55,0
16899,note_on,99,0,9,,,,,,,,12,,,55,0
16899,note_on,99,0,8,,,,,,,,11,,,67,0
16899,note_on,99,0,10,,,,,,,,13,,,67,0
16899,note_on,99,0,12,,,,,,,,15,,,43,0
16920,note_on,21,0,8,,,,,,,,11,,,69,80
16920,note_on,21,0,9,,,,,,,,12,,,57,80
16920,note_on,21,0,11,,,,,,,,14,,,57,80
16920,note_on,21,0,10,,,,,,,,13,,,69,80
16920,note_on,21,0,12,,,,,,,,15,,,45,80
17019,note_on,99,0,8,,,,,,,,11,,,69,0
17019,note_on,99,0,10,,,,,,,,13,,,69,0
17019,note_on,99,0,12,,,,,,,,15,,,45,0
17019,note_on,99,0,11,,,,,,,,14,,,57,0
17019,note_on,99,0,9,,,,,,,,12,,,57,0
17040,note_on,21,0,12,,,,,,,,15,,,47,80
17040,note_on,21,0,11,,,,,,,,14,,,59,80
17040,note_on,21,0,10,,,,,,,,13,,,71,80
17040,note_on,21,0,9,,,,,,,,12,,,59,80
17040,note_on,21,0,8,,,,,,,,11,,,71,80
17139,note_on,99,0,12,,,,,,,,15,,,47,0
17139,note_on,99,0,11,,,,,,,,14,,,59,0
17139,note_on,99,0,8,,,,,,,,11,,,71,0
17139,note_on,99,0,9,,,,,,,,12,,,59,0
17139,note_on,99,0,10,,,,,,,,13,,,71,0
17160,note_on,21,0,11,,,,,,,,14,,,55,80
17160,note_on,21,0,9,,,,,,,,12,,,55,80
17160,note_on,21,0,12,,,,,,,,15,,,43,80
17160,note_on,21,0,8,,,,,,,,11,,,67,80
17160,note_on,21,0,10,,,,,,,,13,,,67,80
17259,note_on,99,0,8,,,,,,,,11,,,67,0
17259,note_on,99,0,11,,,,,,,,14,,,55,0
17259,note_on,99,0,12,,,,,,,,15,,,43,0
17259,note_on,99,0,10,,,,,,,,13,,,67,0
17259,note_on,99,0,9,,,,,,,,12,,,55,0
17279,note_on,479,0,7,,,,,,,,2,,,55,0
17279,note_on,0,0,7,,,,,,,,2,,,67,0
17279,note_on,479,0,6,,,,,,,,1,,,43,0
17279,note_on,479,0,5,,,,,,,,0,,,67,0
17279,note_on,0,0,5,,,,,,,,0,,,79,0
17279,note_on,0,0,6,,,,,,,,1,,,55,0
17280,note_on,21,0,11,,,,,,,,14,,,60,80
17280,note_on,21,0,8,,,,,,,,11,,,76,80
17280,note_on,21,0,12,,,,,,,,15,,,48,80
17280,note_on,21,0,9,,,,,,,,12,,,60,80
17280,note_on,21,0,10,,,,,,,,13,,,72,80
17379,note_on,99,0,8,,,,,,,,11,,,76,0
17379,note_on,99,0,9,,,,,,,,12,,,60,0
17400,note_on,21,0,9,,,,,,,,12,,,62,80
17400,note_on,21,0,8,,,,,,,,11,,,77,80
17499,note_on,99,0,8,,,,,,,,11,,,77,0
17499,note_on,99,0,9,,,,,,,,12,,,62,0
17520,note_on,21,0,9,,,,,,,,12,,,64,80
17520,note_on,21,0,8,,,,,,,,11,,,79,80
17619,note_on,99,0,9,,,,,,,,12,,,64,0
17619,note_on,99,0,8,,,,,,,,11,,,79,0
17640,note_on,21,0,9,,,,,,,,12,,,60,80
17640,note_on,21,0,8,,,,,,,,11,,,76,80
17739,note_on,99,0,9,,,,,,,,12,,,60,0
17739,note_on,99,0,8,,,,,,,,11,,,76,0
17759,note_on,479,0,11,,,,,,,,14,,,60,0
17759,note_on,479,0,12,,,,,,,,15,,,48,0
17759,note_on,479,0,10,,,,,,,,13,,,72,0
17760,note_on,21,0,9,,,,,,,,12,,,62,80
17760,note_on,21,0,8,,,,,,,,11,,,78,80
17859,note_on,99,0,9,,,,,,,,12,,,62,0
17859,note_on,99,0,8,,,,,,,,11,,,78,0
17880,note_on,21,0,9,,,,,,,,12,,,64,80
17880,note_on,21,0,8,,,,,,,,11,,,79,80
17979,note_on,99,0,9,,,,,,,,12,,,64,0
17979,note_on,99,0,8,,,,,,,,11,,,79,0
18000,note_on,21,0,9,,,,,,,,12,,,66,80
18000,note_on,21,0,8,,,,,,,,11,,,81,80
18099,note_on,99,0,8,,,,,,,,11,,,81,0
18099,note_on,99,0,9,,,,,,,,12,,,66,0
18120,note_on,21,0,9,,,,,,,,12,,,62,80
18120,note_on,21,0,8,,,,,,,,11,,,78,80
18219,note_on,99,0,9,,,,,,,,12,,,62,0
18219,note_on,99,0,8,,,,,,,,11,,,78,0
18240,note_on,21,0,8,,,,,,,,11,,,79,80
18240,note_on,21,0,9,,,,,,,,12,,,64,80
18339,note_on,99,0,8,,,,,,,,11,,,79,0
18339,note_on,99,0,9,,,,,,,,12,,,64,0
18360,note_on,21,0,8,,,,,,,,11,,,81,80
18360,note_on,21,0,9,,,,,,,,12,,,66,80
18459,note_on,99,0,8,,,,,,,,11,,,81,0
18459,note_on,99,0,9,,,,,,,,12,,,66,0
18480,note_on,21,0,8,,,,,,,,11,,,83,80
18480,note_on,21,0,9,,,,,,,,12,,,67,80
18579,note_on,99,0,8,,,,,,,,11,,,83,0
18579,note_on,99,0,9,,,,,,,,12,,,67,0
18600,note_on,21,0,8,,,,,,,,11,,,79,80
18600,note_on,21,0,9,,,,,,,,12,,,64,80
18699,note_on,99,0,9,,,,,,,,12,,,64,0
18699,note_on,99,0,8,,,,,,,,11,,,79,0
18720,note_on,21,0,8,,,,,,,,11,,,81,80
18720,note_on,21,0,9,,,,,,,,12,,,66,80
18819,note_on,99,0,8,,,,,,,,11,,,81,0
18819,note_on,99,0,9,,,,,,,,12,,,66,0
18840,note_on,21,0,9,,,,,,,,12,,,67,80
18840,note_on,21,0,8,,,,,,,,11,,,83,80
18939,note_on,99,0,8,,,,,,,,11,,,83,0
18939,note_on,99,0,9,,,,,,,,12,,,67,0
18960,note_on,21,0,9,,,,,,,,12,,,69,80
18960,note_on,21,0,8,,,,,,,,11,,,84,80
19059,note_on,99,0,9,,,,,,,,12,,,69,0
19059,note_on,99,0,8,,,,,,,,11,,,84,0
19080,note_on,21,0,9,,,,,,,,12,,,66,80
19080,note_on,21,0,8,,,,,,,,11,,,81,80
19179,note_on,99,0,9,,,,,,,,12,,,66,0
19179,note_on,99,0,8,,,,,,,,11,,,81,0
19200,note_on,21,0,9,,,,,,,,12,,,62,80
19200,note_on,1921,0,7,,,,,,,,2,,,67,80
19200,note_on,21,0,8,,,,,,,,11,,,83,80
19200,note_on,1441,0,11,,,,,,,,14,,,55,80
19200,note_on,0,0,6,,,,,,,,1,,,62,80
19200,note_on,1441,0,12,,,,,,,,15,,,43,80
19200,note_on,1441,0,10,,,,,,,,13,,,67,80
19200,note_on,1921,0,5,,,,,,,,0,,,74,80
19200,note_on,1921,0,6,,,,,,,,1,,,55,80
19299,note_on,99,0,8,,,,,,,,11,,,83,0
19299,note_on,99,0,12,,,,,,,,15,,,43,0
19299,note_on,99,0,11,,,,,,,,14,,,55,0
19299,note_on,99,0,10,,,,,,,,13,,,67,0
19320,note_on,21,0,12,,,,,,,,15,,,45,80
19320,note_on,21,0,11,,,,,,,,14,,,57,80
19320,note_on,21,0,8,,,,,,,,11,,,84,80
19320,note_on,21,0,10,,,,,,,,13,,,69,80
19419,note_on,99,0,10,,,,,,,,13,,,69,0
19419,note_on,99,0,8,,,,,,,,11,,,84,0
19419,note_on,99,0,12,,,,,,,,15,,,45,0
19419,note_on,99,0,11,,,,,,,,14,,,57,0
19419,note_on,219,0,9,,,,,,,,12,,,62,0
19439,note_on,239,0,7,,,,,,,,2,,,67,0
19440,note_on,21,0,8,,,,,,,,11,,,86,80
19440,note_on,21,0,9,,,,,,,,12,,,67,80
19440,note_on,21,0,11,,,,,,,,14,,,59,80
19440,note_on,21,0,10,,,,,,,,13,,,71,80
19440,note_on,21,0,12,,,,,,,,15,,,47,80
19539,note_on,99,0,10,,,,,,,,13,,,71,0
19539,note_on,99,0,8,,,,,,,,11,,,86,0
19539,note_on,99,0,11,,,,,,,,14,,,59,0
19539,note_on,99,0,12,,,,,,,,15,,,47,0
19560,note_on,21,0,11,,,,,,,,14,,,55,80
19560,note_on,21,0,12,,,,,,,,15,,,43,80
19560,note_on,21,0,8,,,,,,,,11,,,83,80
19560,note_on,21,0,10,,,,,,,,13,,,67,80
19659,note_on,99,0,10,,,,,,,,13,,,67,0
19659,note_on,99,0,8,,,,,,,,11,,,83,0
19659,note_on,459,0,6,,,,,,,,1,,,62,0
19659,note_on,99,0,12,,,,,,,,15,,,43,0
19659,note_on,99,0,11,,,,,,,,14,,,55,0
19680,note_on,480,0,5,,,,,,,,0,,,76,80
19680,note_on,21,0,10,,,,,,,,13,,,72,80
19680,note_on,21,0,11,,,,,,,,14,,,60,80
19680,note_on,21,0,6,,,,,,,,1,,,64,80
19680,note_on,21,0,8,,,,,,,,11,,,76,80
19680,note_on,21,0,12,,,,,,,,15,,,48,80
19779,note_on,99,0,12,,,,,,,,15,,,48,0
19779,note_on,99,0,11,,,,,,,,14,,,60,0
19779,note_on,99,0,8,,,,,,,,11,,,76,0
19779,note_on,99,0,10,,,,,,,,13,,,72,0
19800,note_on,21,0,11,,,,,,,,14,,,62,80
19800,note_on,21,0,12,,,,,,,,15,,,50,80
19800,note_on,21,0,10,,,,,,,,13,,,74,80
19800,note_on,21,0,8,,,,,,,,11,,,78,80
19899,note_on,99,0,10,,,,,,,,13,,,74,0
19899,note_on,99,0,8,,,,,,,,11,,,78,0
19899,note_on,459,0,9,,,,,,,,12,,,67,0
19899,note_on,99,0,11,,,,,,,,14,,,62,0
19899,note_on,99,0,12,,,,,,,,15,,,50,0
19920,note_on,21,0,11,,,,,,,,14,,,64,80
19920,note_on,21,0,9,,,,,,,,12,,,60,80
19920,note_on,21,0,10,,,,,,,,13,,,76,80
19920,note_on,21,0,12,,,,,,,,15,,,52,80
19920,note_on,21,0,8,,,,,,,,11,,,79,80
20019,note_on,99,0,10,,,,,,,,13,,,76,0
20019,note_on,99,0,12,,,,,,,,15,,,52,0
20019,note_on,99,0,11,,,,,,,,14,,,64,0
20019,note_on,99,0,8,,,,,,,,11,,,79,0
20040,note_on,21,0,8,,,,,,,,11,,,76,80
20040,note_on,21,0,10,,,,,,,,13,,,72,80
20040,note_on,21,0,12,,,,,,,,15,,,48,80
20040,note_on,21,0,11,,,,,,,,14,,,60,80
20139,note_on,99,0,11,,,,,,,,14,,,60,0
20139,note_on,99,0,10,,,,,,,,13,,,72,0
20139,note_on,459,0,6,,,,,,,,1,,,55,0
20139,note_on,459,0,5,,,,,,,,0,,,74,0
20139,note_on,99,0,8,,,,,,,,11,,,76,0
20139,note_on,99,0,12,,,,,,,,15,,,48,0
20160,note_on,21,0,6,,,,,,,,1,,,60,80
20160,note_on,21,0,11,,,,,,,,14,,,54,80
20160,note_on,21,0,8,,,,,,,,11,,,81,80
20160,note_on,21,0,5,,,,,,,,0,,,72,80
20160,note_on,21,0,12,,,,,,,,15,,,42,80
20160,note_on,21,0,10,,,,,,,,13,,,66,80
20259,note_on,99,0,11,,,,,,,,14,,,54,0
20259,note_on,99,0,8,,,,,,,,11,,,81,0
20259,note_on,99,0,12,,,,,,,,15,,,42,0
20259,note_on,99,0,10,,,,,,,,13,,,66,0
20280,note_on,21,0,8,,,,,,,,11,,,83,80
20280,note_on,21,0,12,,,,,,,,15,,,43,80
20280,note_on,21,0,11,,,,,,,,14,,,55,80
20280,note_on,21,0,10,,,,,,,,13,,,67,80
20379,note_on,99,0,12,,,,,,,,15,,,43,0
20379,note_on,99,0,11,,,,,,,,14,,,55,0
20379,note_on,99,0,8,,,,,,,,11,,,83,0
20379,note_on,459,0,9,,,,,,,,12,,,60,0
20379,note_on,99,0,10,,,,,,,,13,,,67,0
20400,note_on,21,0,11,,,,,,,,14,,,57,80
20400,note_on,21,0,9,,,,,,,,12,,,66,80
20400,note_on,21,0,8,,,,,,,,11,,,84,80
20400,note_on,21,0,10,,,,,,,,13,,,69,80
20400,note_on,21,0,12,,,,,,,,15,,,45,80
20499,note_on,99,0,12,,,,,,,,15,,,45,0
20499,note_on,99,0,10,,,,,,,,13,,,69,0
20499,note_on,99,0,8,,,,,,,,11,,,84,0
20499,note_on,99,0,11,,,,,,,,14,,,57,0
20520,note_on,21,0,11,,,,,,,,14,,,54,80
20520,note_on,21,0,8,,,,,,,,11,,,81,80
20520,note_on,21,0,10,,,,,,,,13,,,66,80
20520,note_on,21,0,12,,,,,,,,15,,,42,80
20619,note_on,99,0,10,,,,,,,,13,,,66,0
20619,note_on,459,0,5,,,,,,,,0,,,76,0
20619,note_on,99,0,8,,,,,,,,11,,,81,0
20619,note_on,99,0,11,,,,,,,,14,,,54,0
20619,note_on,459,0,6,,,,,,,,1,,,64,0
20619,note_on,99,0,12,,,,,,,,15,,,42,0
20640,note_on,21,0,8,,,,,,,,11,,,74,80
20640,note_on,21,0,6,,,,,,,,1,,,62,80
20640,note_on,21,0,5,,,,,,,,0,,,74,80
20640,note_on,21,0,10,,,,,,,,13,,,71,80
20640,note_on,21,0,11,,,,,,,,14,,,59,80
20640,note_on,21,0,12,,,,,,,,15,,,47,80
20739,note_on,99,0,8,,,,,,,,11,,,74,0
20739,note_on,99,0,11,,,,,,,,14,,,59,0
20739,note_on,99,0,12,,,,,,,,15,,,47,0
20739,note_on,99,0,10,,,,,,,,13,,,71,0
20760,note_on,21,0,12,,,,,,,,15,,,48,80
20760,note_on,21,0,10,,,,,,,,13,,,72,80
20760,note_on,21,0,11,,,,,,,,14,,,60,80
20760,note_on,21,0,8,,,,,,,,11,,,76,80
20859,note_on,99,0,8,,,,,,,,11,,,76,0
20859,note_on,459,0,9,,,,,,,,12,,,66,0
20859,note_on,99,0,11,,,,,,,,14,,,60,0
20859,note_on,99,0,10,,,,,,,,13,,,72,0
20859,note_on,99,0,12,,,,,,,,15,,,48,0
20880,note_on,21,0,10,,,,,,,,13,,,74,80
20880,note_on,21,0,12,,,,,,,,15,,,50,80
20880,note_on,21,0,8,,,,,,,,11,,,78,80
20880,note_on,21,0,9,,,,,,,,12,,,59,80
20880,note_on,21,0,11,,,,,,,,14,,,62,80
20979,note_on,99,0,8,,,,,,,,11,,,78,0
20979,note_on,99,0,10,,,,,,,,13,,,74,0
20979,note_on,99,0,11,,,,,,,,14,,,62,0
20979,note_on,99,0,12,,,,,,,,15,,,50,0
21000,note_on,21,0,11,,,,,,,,14,,,59,80
21000,note_on,21,0,10,,,,,,,,13,,,71,80
21000,note_on,21,0,12,,,,,,,,15,,,47,80
21000,note_on,21,0,8,,,,,,,,11,,,74,80
21099,note_on,99,0,11,,,,,,,,14,,,59,0
21099,note_on,459,0,6,,,,,,,,1,,,60,0
21099,note_on,99,0,10,,,,,,,,13,,,71,0
21099,note_on,459,0,5,,,,,,,,0,,,72,0
21099,note_on,99,0,12,,,,,,,,15,,,47,0
21099,note_on,99,0,8,,,,,,,,11,,,74,0
21120,note_on,21,0,10,,,,,,,,13,,,64,80
21120,note_on,21,0,6,,,,,,,,1,,,55,80
21120,note_on,21,0,5,,,,,,,,0,,,71,80
21120,note_on,21,0,12,,,,,,,,15,,,40,80
21120,note_on,21,0,11,,,,,,,,14,,,52,80
21120,note_on,21,0,8,,,,,,,,11,,,79,80
21219,note_on,99,0,11,,,,,,,,14,,,52,0
21219,note_on,99,0,10,,,,,,,,13,,,64,0
21219,note_on,99,0,8,,,,,,,,11,,,79,0
21219,note_on,99,0,12,,,,,,,,15,,,40,0
21240,note_on,21,0,12,,,,,,,,15,,,42,80
21240,note_on,21,0,8,,,,,,,,11,,,81,80
21240,note_on,21,0,11,,,,,,,,14,,,54,80
21240,note_on,21,0,10,,,,,,,,13,,,66,80
21339,note_on,99,0,12,,,,,,,,15,,,42,0
21339,note_on,99,0,11,,,,,,,,14,,,54,0
21339,note_on,99,0,10,,,,,,,,13,,,66,0
21339,note_on,99,0,8,,,,,,,,11,,,81,0
21339,note_on,459,0,9,,,,,,,,12,,,59,0
21360,note_on,21,0,10,,,,,,,,13,,,67,80
21360,note_on,21,0,11,,,,,,,,14,,,55,80
21360,note_on,21,0,9,,,,,,,,12,,,64,80
21360,note_on,21,0,8,,,,,,,,11,,,83,80
21360,note_on,21,0,12,,,,,,,,15,,,43,80
21459,note_on,99,0,10,,,,,,,,13,,,67,0
21459,note_on,99,0,11,,,,,,,,14,,,55,0
21459,note_on,99,0,8,,,,,,,,11,,,83,0
21459,note_on,99,0,12,,,,,,,,15,,,43,0
21480,note_on,21,0,10,,,,,,,,13,,,64,80
21480,note_on,21,0,11,,,,,,,,14,,,52,80
21480,note_on,21,0,8,,,,,,,,11,,,79,80
21480,note_on,21,0,12,,,,,,,,15,,,40,80
21579,note_on,99,0,10,,,,,,,,13,,,64,0
21579,note_on,0,0,6,,,,,,,,1,,,62,0
21579,note_on,459,0,6,,,,,,,,1,,,55,0
21579,note_on,99,0,8,,,,,,,,11,,,79,0
21579,note_on,459,0,5,,,,,,,,0,,,74,0
21579,note_on,99,0,11,,,,,,,,14,,,52,0
21579,note_on,99,0,12,,,,,,,,15,,,40,0
21600,note_on,21,0,12,,,,,,,,15,,,45,80
21600,note_on,21,0,5,,,,,,,,0,,,72,80
21600,note_on,21,0,10,,,,,,,,13,,,69,80
21600,note_on,21,0,6,,,,,,,,1,,,60,80
21600,note_on,21,0,8,,,,,,,,11,,,72,80
21600,note_on,21,0,11,,,,,,,,14,,,57,80
21699,note_on,99,0,11,,,,,,,,14,,,57,0
21699,note_on,99,0,8,,,,,,,,11,,,72,0
21699,note_on,99,0,12,,,,,,,,15,,,45,0
21699,note_on,99,0,10,,,,,,,,13,,,69,0
21720,note_on,21,0,8,,,,,,,,11,,,74,80
21720,note_on,21,0,12,,,,,,,,15,,,47,80
21720,note_on,21,0,10,,,,,,,,13,,,71,80
21720,note_on,21,0,11,,,,,,,,14,,,59,80
21819,note_on,99,0,10,,,,,,,,13,,,71,0
21819,note_on,99,0,11,,,,,,,,14,,,59,0
21819,note_on,99,0,12,,,,,,,,15,,,47,0
21819,note_on,99,0,8,,,,,,,,11,,,74,0
21819,note_on,459,0,9,,,,,,,,12,,,64,0
21840,note_on,21,0,12,,,,,,,,15,,,48,80
21840,note_on,21,0,10,,,,,,,,13,,,72,80
21840,note_on,21,0,9,,,,,,,,12,,,57,80
21840,note_on,21,0,11,,,,,,,,14,,,60,80
21840,note_on,21,0,8,,,,,,,,11,,,76,80
21939,note_on,99,0,12,,,,,,,,15,,,48,0
21939,note_on,99,0,10,,,,,,,,13,,,72,0
21939,note_on,99,0,8,,,,,,,,11,,,76,0
21939,note_on,99,0,11,,,,,,,,14,,,60,0
21960,note_on,21,0,12,,,,,,,,15,,,45,80
21960,note_on,21,0,8,,,,,,,,11,,,72,80
21960,note_on,21,0,11,,,,,,,,14,,,57,80
21960,note_on,21,0,10,,,,,,,,13,,,69,80
22059,note_on,99,0,10,,,,,,,,13,,,69,0
22059,note_on,99,0,12,,,,,,,,15,,,45,0
22059,note_on,459,0,5,,,,,,,,0,,,71,0
22059,note_on,99,0,8,,,,,,,,11,,,72,0
22059,note_on,459,0,6,,,,,,,,1,,,60,0
22059,note_on,99,0,11,,,,,,,,14,,,57,0
22080,note_on,21,0,5,,,,,,,,0,,,69,80
22080,note_on,21,0,8,,,,,,,,11,,,78,80
22080,note_on,21,0,12,,,,,,,,15,,,38,80
22080,note_on,21,0,10,,,,,,,,13,,,62,80
22080,note_on,0,0,6,,,,,,,,1,,,62,80
22080,note_on,21,0,11,,,,,,,,14,,,50,80
22080,note_on,21,0,6,,,,,,,,1,,,60,80
22179,note_on,99,0,11,,,,,,,,14,,,50,0
22179,note_on,99,0,12,,,,,,,,15,,,38,0
22179,note_on,99,0,10,,,,,,,,13,,,62,0
22179,note_on,99,0,8,,,,,,,,11,,,78,0
22200,note_on,21,0,10,,,,,,,,13,,,64,80
22200,note_on,21,0,12,,,,,,,,15,,,40,80
22200,note_on,21,0,11,,,,,,,,14,,,52,80
22200,note_on,21,0,8,,,,,,,,11,,,79,80
22299,note_on,99,0,10,,,,,,,,13,,,64,0
22299,note_on,99,0,12,,,,,,,,15,,,40,0
22299,note_on,99,0,11,,,,,,,,14,,,52,0
22299,note_on,459,0,9,,,,,,,,12,,,57,0
22299,note_on,99,0,8,,,,,,,,11,,,79,0
22320,note_on,21,0,8,,,,,,,,11,,,81,80
22320,note_on,21,0,11,,,,,,,,14,,,54,80
22320,note_on,21,0,9,,,,,,,,12,,,62,80
22320,note_on,21,0,12,,,,,,,,15,,,42,80
22320,note_on,21,0,10,,,,,,,,13,,,66,80
22419,note_on,99,0,11,,,,,,,,14,,,54,0
22419,note_on,99,0,10,,,,,,,,13,,,66,0
22419,note_on,99,0,8,,,,,,,,11,,,81,0
22419,note_on,99,0,12,,,,,,,,15,,,42,0
22440,note_on,21,0,11,,,,,,,,14,,,50,80
22440,note_on,21,0,12,,,,,,,,15,,,38,80
22440,note_on,21,0,8,,,,,,,,11,,,78,80
22440,note_on,21,0,10,,,,,,,,13,,,62,80
22539,note_on,99,0,10,,,,,,,,13,,,62,0
22539,note_on,99,0,8,,,,,,,,11,,,78,0
22539,note_on,0,0,6,,,,,,,,1,,,60,0
22539,note_on,459,0,6,,,,,,,,1,,,62,0
22539,note_on,459,0,5,,,,,,,,0,,,69,0
22539,note_on,99,0,11,,,,,,,,14,,,50,0
22539,note_on,0,0,5,,,,,,,,0,,,72,0
22539,note_on,99,0,12,,,,,,,,15,,,38,0
22560,note_on,0,0,5,,,,,,,,0,,,71,80
22560,note_on,21,0,12,,,,,,,,15,,,43,80
22560,note_on,21,0,11,,,,,,,,14,,,55,80
22560,note_on,21,0,8,,,,,,,,11,,,71,80
22560,note_on,21,0,6,,,,,,,,1,,,62,80
22560,note_on,21,0,10,,,,,,,,13,,,67,80
22560,note_on,21,0,5,,,,,,,,0,,,67,80
22560,note_on,0,0,6,,,,,,,,1,,,55,80
22659,note_on,99,0,11,,,,,,,,14,,,55,0
22659,note_on,99,0,8,,,,,,,,11,,,71,0
22659,note_on,99,0,10,,,,,,,,13,,,67,0
22659,note_on,99,0,12,,,,,,,,15,,,43,0
22680,note_on,21,0,10,,,,,,,,13,,,69,80
22680,note_on,21,0,12,,,,,,,,15,,,45,80
22680,note_on,21,0,11,,,,,,,,14,,,57,80
22680,note_on,21,0,8,,,,,,,,11,,,72,80
22779,note_on,99,0,8,,,,,,,,11,,,72,0
22779,note_on,99,0,12,,,,,,,,15,,,45,0
22779,note_on,99,0,11,,,,,,,,14,,,57,0
22779,note_on,459,0,9,,,,,,,,12,,,62,0
22779,note_on,99,0,10,,,,,,,,13,,,69,0
22800,note_on,21,0,11,,,,,,,,14,,,59,80
22800,note_on,21,0,8,,,,,,,,11,,,74,80
22800,note_on,21,0,12,,,,,,,,15,,,47,80
22800,note_on,21,0,9,,,,,,,,12,,,55,80
22800,note_on,21,0,10,,,,,,,,13,,,71,80
22899,note_on,99,0,11,,,,,,,,14,,,59,0
22899,note_on,99,0,8,,,,,,,,11,,,74,0
22899,note_on,99,0,12,,,,,,,,15,,,47,0
22899,note_on,99,0,10,,,,,,,,13,,,71,0
22920,note_on,21,0,10,,,,,,,,13,,,67,80
22920,note_on,21,0,11,,,,,,,,14,,,55,80
22920,note_on,21,0,8,,,,,,,,11,,,71,80
22920,note_on,21,0,12,,,,,,,,15,,,43,80
23019,note_on,99,0,8,,,,,,,,11,,,71,0
23019,note_on,99,0,11,,,,,,,,14,,,55,0
23019,note_on,459,0,6,,,,,,,,1,,,55,0
23019,note_on,0,0,6,,,,,,,,1,,,62,0
23019,note_on,219,0,9,,,,,,,,12,,,55,0
23019,note_on,99,0,10,,,,,,,,13,,,67,0
23019,note_on,99,0,12,,,,,,,,15,,,43,0
23019,note_on,459,0,5,,,,,,,,0,,,71,0
23019,note_on,0,0,5,,,,,,,,0,,,67,0
23040,note_on,21,0,6,,,,,,,,1,,,67,80
23040,note_on,0,0,6,,,,,,,,1,,,55,80
23040,note_on,21,0,12,,,,,,,,15,,,40,80
23040,note_on,3601,0,7,,,,,,,,2,,,67,80
23040,note_on,21,0,5,,,,,,,,0,,,79,80
23040,note_on,0,0,5,,,,,,,,0,,,73,80
23040,note_on,21,0,10,,,,,,,,13,,,64,80
23040,note_on,21,0,11,,,,,,,,14,,,52,80
23040,note_on,21,0,9,,,,,,,,12,,,67,80
23040,note_on,21,0,8,,,,,,,,11,,,73,80
23139,note_on,99,0,8,,,,,,,,11,,,73,0
23139,note_on,99,0,9,,,,,,,,12,,,67,0
23160,note_on,21,0,9,,,,,,,,12,,,66,80
23160,note_on,21,0,8,,,,,,,,11,,,74,80
23259,note_on,99,0,8,,,,,,,,11,,,74,0
23259,note_on,99,0,9,,,,,,,,12,,,66,0
23279,note_on,239,0,5,,,,,,,,0,,,73,0
23279,note_on,239,0,10,,,,,,,,13,,,64,0
23279,note_on,239,0,7,,,,,,,,2,,,67,0
23279,note_on,0,0,6,,,,,,,,1,,,67,0
23279,note_on,239,0,6,,,,,,,,1,,,55,0
23279,note_on,0,0,5,,,,,,,,0,,,79,0
23279,note_on,239,0,11,,,,,,,,14,,,52,0
23279,note_on,239,0,12,,,,,,,,15,,,40,0
23280,note_on,21,0,9,,,,,,,,12,,,64,80
23280,note_on,21,0,8,,,,,,,,11,,,76,80
23379,note_on,99,0,9,,,,,,,,12,,,64,0
23379,note_on,99,0,8,,,,,,,,11,,,76,0
23400,note_on,21,0,9,,,,,,,,12,,,62,80
23400,note_on,21,0,8,,,,,,,,11,,,78,80
23499,note_on,99,0,8,,,,,,,,11,,,78,0
23499,note_on,99,0,9,,,,,,,,12,,,62,0
23520,note_on,21,0,8,,,,,,,,11,,,79,80
23520,note_on,21,0,9,,,,,,,,12,,,61,80
23619,note_on,99,0,8,,,,,,,,11,,,79,0
23619,note_on,99,0,9,,,,,,,,12,,,61,0
23640,note_on,21,0,9,,,,,,,,12,,,64,80
23640,note_on,21,0,8,,,,,,,,11,,,76,80
23739,note_on,99,0,8,,,,,,,,11,,,76,0
23739,note_on,99,0,9,,,,,,,,12,,,64,0
23760,note_on,21,0,9,,,,,,,,12,,,66,80
23760,note_on,21,0,8,,,,,,,,11,,,74,80
23859,note_on,99,0,8,,,,,,,,11,,,74,0
23859,note_on,99,0,9,,,,,,,,12,,,66,0
23880,note_on,21,0,8,,,,,,,,11,,,73,80
23880,note_on,21,0,9,,,,,,,,12,,,67,80
23979,note_on,99,0,8,,,,,,,,11,,,73,0
23979,note_on,99,0,9,,,,,,,,12,,,67,0
24000,note_on,0,0,5,,,,,,,,0,,,78,80
24000,note_on,721,0,12,,,,,,,,15,,,38,80
24000,note_on,721,0,5,,,,,,,,0,,,74,80
24000,note_on,721,0,7,,,,,,,,2,,,74,80
24000,note_on,721,0,11,,,,,,,,14,,,50,80
24000,note_on,721,0,6,,,,,,,,1,,,62,80
24000,note_on,721,0,10,,,,,,,,13,,,62,80
24000,note_on,21,0,9,,,,,,,,12,,,66,80
24000,note_on,21,0,8,,,,,,,,11,,,74,80
24099,note_on,99,0,9,,,,,,,,12,,,66,0
24099,note_on,99,0,8,,,,,,,,11,,,74,0
24120,note_on,21,0,8,,,,,,,,11,,,76,80
24120,note_on,21,0,9,,,,,,,,12,,,61,80
24219,note_on,99,0,8,,,,,,,,11,,,76,0
24219,note_on,99,0,9,,,,,,,,12,,,61,0
24239,note_on,239,0,10,,,,,,,,13,,,62,0
24239,note_on,239,0,5,,,,,,,,0,,,78,0
24239,note_on,0,0,5,,,,,,,,0,,,74,0
24239,note_on,239,0,6,,,,,,,,1,,,62,0
24239,note_on,239,0,12,,,,,,,,15,,,38,0
24239,note_on,239,0,7,,,,,,,,2,,,74,0
24239,note_on,239,0,11,,,,,,,,14,,,50,0
24240,note_on,21,0,9,,,,,,,,12,,,62,80
24240,note_on,21,0,8,,,,,,,,11,,,78,80
24339,note_on,99,0,8,,,,,,,,11,,,78,0
24339,note_on,99,0,9,,,,,,,,12,,,62,0
24360,note_on,21,0,9,,,,,,,,12,,,64,80
24360,note_on,21,0,8,,,,,,,,11,,,79,80
24459,note_on,99,0,8,,,,,,,,11,,,79,0
24459,note_on,99,0,9,,,,,,,,12,,,64,0
24480,note_on,21,0,9,,,,,,,,12,,,66,80
24480,note_on,21,0,8,,,,,,,,11,,,81,80
24579,note_on,99,0,9,,,,,,,,12,,,66,0
24579,note_on,99,0,8,,,,,,,,11,,,81,0
24600,note_on,21,0,8,,,,,,,,11,,,78,80
24600,note_on,21,0,9,,,,,,,,12,,,69,80
24699,note_on,99,0,8,,,,,,,,11,,,78,0
24699,note_on,99,0,9,,,,,,,,12,,,69,0
24720,note_on,21,0,9,,,,,,,,12,,,67,80
24720,note_on,21,0,8,,,,,,,,11,,,76,80
24819,note_on,99,0,8,,,,,,,,11,,,76,0
24819,note_on,99,0,9,,,,,,,,12,,,67,0
24840,note_on,21,0,9,,,,,,,,12,,,66,80
24840,note_on,21,0,8,,,,,,,,11,,,74,80
24939,note_on,99,0,9,,,,,,,,12,,,66,0
24939,note_on,99,0,8,,,,,,,,11,,,74,0
24960,note_on,721,0,12,,,,,,,,15,,,40,80
24960,note_on,721,0,7,,,,,,,,2,,,67,80
24960,note_on,721,0,5,,,,,,,,0,,,73,80
24960,note_on,721,0,6,,,,,,,,1,,,67,80
24960,note_on,0,0,6,,,,,,,,1,,,55,80
24960,note_on,721,0,11,,,,,,,,14,,,52,80
24960,note_on,721,0,10,,,,,,,,13,,,64,80
24960,note_on,21,0,9,,,,,,,,12,,,67,80
24960,note_on,21,0,8,,,,,,,,11,,,73,80
24960,note_on,0,0,5,,,,,,,,0,,,79,80
25059,note_on,99,0,8,,,,,,,,11,,,73,0
25059,note_on,99,0,9,,,,,,,,12,,,67,0
25080,note_on,21,0,8,,,,,,,,11,,,74,80
25080,note_on,21,0,9,,,,,,,,12,,,66,80
25179,note_on,99,0,8,,,,,,,,11,,,74,0
25179,note_on,99,0,9,,,,,,,,12,,,66,0
25199,note_on,0,0,5,,,,,,,,0,,,73,0
25199,note_on,239,0,7,,,,,,,,2,,,67,0
25199,note_on,0,0,6,,,,,,,,1,,,67,0
25199,note_on,239,0,6,,,,,,,,1,,,55,0
25199,note_on,239,0,11,,,,,,,,14,,,52,0
25199,note_on,239,0,10,,,,,,,,13,,,64,0
25199,note_on,239,0,12,,,,,,,,15,,,40,0
25199,note_on,239,0,5,,,,,,,,0,,,79,0
25200,note_on,21,0,8,,,,,,,,11,,,76,80
25200,note_on,21,0,9,,,,,,,,12,,,64,80
25299,note_on,99,0,9,,,,,,,,12,,,64,0
25299,note_on,99,0,8,,,,,,,,11,,,76,0
25320,note_on,21,0,8,,,,,,,,11,,,78,80
25320,note_on,21,0,9,,,,,,,,12,,,62,80
25419,note_on,99,0,8,,,,,,,,11,,,78,0
25419,note_on,99,0,9,,,,,,,,12,,,62,0
25440,note_on,21,0,8,,,,,,,,11,,,79,80
25440,note_on,21,0,9,,,,,,,,12,,,61,80
25539,note_on,99,0,9,,,,,,,,12,,,61,0
25539,note_on,99,0,8,,,,,,,,11,,,79,0
25560,note_on,21,0,9,,,,,,,,12,,,64,80
25560,note_on,21,0,8,,,,,,,,11,,,76,80
25659,note_on,99,0,9,,,,,,,,12,,,64,0
25659,note_on,99,0,8,,,,,,,,11,,,76,0
25680,note_on,21,0,9,,,,,,,,12,,,66,80
25680,note_on,21,0,8,,,,,,,,11,,,74,80
25779,note_on,99,0,9,,,,,,,,12,,,66,0
25779,note_on,99,0,8,,,,,,,,11,,,74,0
25800,note_on,21,0,9,,,,,,,,12,,,67,80
25800,note_on,21,0,8,,,,,,,,11,,,73,80
25899,note_on,99,0,8,,,,,,,,11,,,73,0
25899,note_on,99,0,9,,,,,,,,12,,,67,0
25920,note_on,721,0,6,,,,,,,,1,,,62,80
25920,note_on,721,0,12,,,,,,,,15,,,38,80
25920,note_on,21,0,8,,,,,,,,11,,,74,80
25920,note_on,721,0,5,,,,,,,,0,,,74,80
25920,note_on,721,0,10,,,,,,,,13,,,62,80
25920,note_on,721,0,11,,,,,,,,14,,,50,80
25920,note_on,721,0,7,,,,,,,,2,,,74,80
25920,note_on,21,0,9,,,,,,,,12,,,62,80
26019,note_on,99,0,9,,,,,,,,12,,,62,0
26019,note_on,99,0,11,,,,,,,,14,,,50,0
26019,note_on,99,0,10,,,,,,,,13,,,62,0
26019,note_on,99,0,12,,,,,,,,15,,,38,0
26019,note_on,99,0,8,,,,,,,,11,,,74,0
26019,note_on,99,0,5,,,,,,,,0,,,74,0
26040,note_on,21,0,5,,,,,,,,0,,,76,80
26040,note_on,21,0,8,,,,,,,,11,,,76,80
26040,note_on,21,0,12,,,,,,,,15,,,40,80
26040,note_on,21,0,10,,,,,,,,13,,,64,80
26040,note_on,21,0,11,,,,,,,,14,,,52,80
26040,note_on,21,0,9,,,,,,,,12,,,64,80
26139,note_on,99,0,8,,,,,,,,11,,,76,0
26139,note_on,99,0,11,,,,,,,,14,,,52,0
26139,note_on,99,0,10,,,,,,,,13,,,64,0
26139,note_on,99,0,9,,,,,,,,12,,,64,0
26139,note_on,99,0,5,,,,,,,,0,,,76,0
26139,note_on,99,0,12,,,,,,,,15,,,40,0
26159,note_on,239,0,6,,,,,,,,1,,,62,0
26159,note_on,239,0,7,,,,,,,,2,,,74,0
26160,note_on,21,0,5,,,,,,,,0,,,78,80
26160,note_on,21,0,9,,,,,,,,12,,,66,80
26160,note_on,21,0,10,,,,,,,,13,,,66,80
26160,note_on,21,0,11,,,,,,,,14,,,54,80
26160,note_on,21,0,12,,,,,,,,15,,,42,80
26160,note_on,21,0,8,,,,,,,,11,,,78,80
26259,note_on,99,0,11,,,,,,,,14,,,54,0
26259,note_on,99,0,10,,,,,,,,13,,,66,0
26259,note_on,99,0,9,,,,,,,,12,,,66,0
26259,note_on,99,0,5,,,,,,,,0,,,78,0
26259,note_on,99,0,12,,,,,,,,15,,,42,0
26259,note_on,99,0,8,,,,,,,,11,,,78,0
26280,note_on,21,0,8,,,,,,,,11,,,79,80
26280,note_on,21,0,11,,,,,,,,14,,,55,80
26280,note_on,21,0,10,,,,,,,,13,,,67,80
26280,note_on,21,0,5,,,,,,,,0,,,79,80
26280,note_on,21,0,9,,,,,,,,12,,,67,80
26280,note_on,21,0,12,,,,,,,,15,,,43,80
26379,note_on,99,0,9,,,,,,,,12,,,67,0
26379,note_on,99,0,10,,,,,,,,13,,,67,0
26379,note_on,99,0,5,,,,,,,,0,,,79,0
26379,note_on,99,0,11,,,,,,,,14,,,55,0
26379,note_on,99,0,8,,,,,,,,11,,,79,0
26379,note_on,99,0,12,,,,,,,,15,,,43,0
26400,note_on,21,0,5,,,,,,,,0,,,81,80
26400,note_on,21,0,12,,,,,,,,15,,,45,80
26400,note_on,21,0,11,,,,,,,,14,,,57,80
26400,note_on,21,0,10,,,,,,,,13,,,69,80
26400,note_on,21,0,9,,,,,,,,12,,,69,80
26400,note_on,21,0,8,,,,,,,,11,,,81,80
26499,note_on,99,0,8,,,,,,,,11,,,81,0
26499,note_on,99,0,12,,,,,,,,15,,,45,0
26499,note_on,99,0,9,,,,,,,,12,,,69,0
26499,note_on,99,0,5,,,,,,,,0,,,81,0
26499,note_on,99,0,11,,,,,,,,14,,,57,0
26499,note_on,99,0,10,,,,,,,,13,,,69,0
26520,note_on,21,0,5,,,,,,,,0,,,83,80
26520,note_on,21,0,9,,,,,,,,12,,,71,80
26520,note_on,21,0,11,,,,,,,,14,,,59,80
26520,note_on,21,0,12,,,,,,,,15,,,47,80
26520,note_on,21,0,10,,,,,,,,13,,,71,80
26520,note_on,21,0,8,,,,,,,,11,,,83,80
26619,note_on,99,0,5,,,,,,,,0,,,83,0
26619,note_on,99,0,12,,,,,,,,15,,,47,0
26619,note_on,99,0,9,,,,,,,,12,,,71,0
26619,note_on,99,0,11,,,,,,,,14,,,59,0
26619,note_on,99,0,8,,,,,,,,11,,,83,0
26619,note_on,99,0,10,,,,,,,,13,,,71,0
26640,note_on,21,0,5,,,,,,,,0,,,85,80
26640,note_on,21,0,11,,,,,,,,14,,,61,80
26640,note_on,21,0,8,,,,,,,,11,,,85,80
26640,note_on,21,0,9,,,,,,,,12,,,73,80
26640,note_on,21,0,12,,,,,,,,15,,,49,80
26640,note_on,21,0,10,,,,,,,,13,,,73,80
26739,note_on,99,0,10,,,,,,,,13,,,73,0
26739,note_on,99,0,5,,,,,,,,0,,,85,0
26739,note_on,99,0,9,,,,,,,,12,,,73,0
26739,note_on,99,0,8,,,,,,,,11,,,85,0
26739,note_on,99,0,12,,,,,,,,15,,,49,0
26739,note_on,99,0,11,,,,,,,,14,,,61,0
26760,note_on,21,0,12,,,,,,,,15,,,50,80
26760,note_on,21,0,10,,,,,,,,13,,,74,80
26760,note_on,21,0,11,,,,,,,,14,,,62,80
26760,note_on,21,0,8,,,,,,,,11,,,86,80
26760,note_on,21,0,5,,,,,,,,0,,,86,80
26760,note_on,21,0,9,,,,,,,,12,,,74,80
26859,note_on,99,0,5,,,,,,,,0,,,86,0
26859,note_on,99,0,10,,,,,,,,13,,,74,0
26859,note_on,99,0,9,,,,,,,,12,,,74,0
26859,note_on,99,0,8,,,,,,,,11,,,86,0
26859,note_on,99,0,12,,,,,,,,15,,,50,0
26859,note_on,99,0,11,,,,,,,,14,,,62,0
26880,note_on,21,0,10,,,,,,,,13,,,73,80
26880,note_on,21,0,11,,,,,,,,14,,,61,80
26880,note_on,21,0,5,,,,,,,,0,,,85,80
26880,note_on,21,0,12,,,,,,,,15,,,49,80
26880,note_on,21,0,8,,,,,,,,11,,,85,80
26880,note_on,21,0,9,,,,,,,,12,,,73,80
26979,note_on,99,0,8,,,,,,,,11,,,85,0
26979,note_on,99,0,9,,,,,,,,12,,,73,0
27000,note_on,21,0,9,,,,,,,,12,,,73,80
27000,note_on,21,0,8,,,,,,,,11,,,85,80
27099,note_on,219,0,5,,,,,,,,0,,,85,0
27099,note_on,99,0,8,,,,,,,,11,,,85,0
27099,note_on,99,0,9,,,,,,,,12,,,73,0
27119,note_on,239,0,12,,,,,,,,15,,,49,0
27119,note_on,239,0,10,,,,,,,,13,,,73,0
27119,note_on,239,0,11,,,,,,,,14,,,61,0
27120,note_on,21,0,9,,,,,,,,12,,,81,80
27120,note_on,21,0,5,,,,,,,,0,,,81,80
27120,note_on,21,0,8,,,,,,,,11,,,81,80
27219,note_on,99,0,9,,,,,,,,12,,,81,0
27219,note_on,99,0,8,,,,,,,,11,,,81,0
27240,note_on,21,0,8,,,,,,,,11,,,81,80
27240,note_on,21,0,9,,,,,,,,12,,,81,80
27339,note_on,99,0,9,,,,,,,,12,,,81,0
27339,note_on,99,0,8,,,,,,,,11,,,81,0
27339,note_on,219,0,5,,,,,,,,0,,,81,0
27360,note_on,21,0,9,,,,,,,,12,,,79,80
27360,note_on,21,0,8,,,,,,,,11,,,79,80
27360,note_on,21,0,5,,,,,,,,0,,,79,80
27459,note_on,99,0,9,,,,,,,,12,,,79,0
27459,note_on,99,0,8,,,,,,,,11,,,79,0
27480,note_on,21,0,9,,,,,,,,12,,,79,80
27480,note_on,21,0,8,,,,,,,,11,,,79,80
27579,note_on,99,0,9,,,,,,,,12,,,79,0
27579,note_on,219,0,5,,,,,,,,0,,,79,0
27579,note_on,99,0,8,,,,,,,,11,,,79,0
27600,note_on,21,0,8,,,,,,,,11,,,76,80
27600,note_on,21,0,5,,,,,,,,0,,,76,80
27600,note_on,21,0,9,,,,,,,,12,,,76,80
27699,note_on,99,0,8,,,,,,,,11,,,76,0
27699,note_on,99,0,9,,,,,,,,12,,,76,0
27720,note_on,21,0,8,,,,,,,,11,,,76,80
27720,note_on,21,0,9,,,,,,,,12,,,76,80
27819,note_on,99,0,8,,,,,,,,11,,,76,0
27819,note_on,99,0,9,,,,,,,,12,,,76,0
27819,note_on,219,0,5,,,,,,,,0,,,76,0
27840,note_on,21,0,8,,,,,,,,11,,,73,80
27840,note_on,1681,0,6,,,,,,,,1,,,64,80
27840,note_on,21,0,9,,,,,,,,12,,,73,80
27840,note_on,1681,0,7,,,,,,,,2,,,67,80
27840,note_on,721,0,10,,,,,,,,13,,,73,80
27840,note_on,21,0,5,,,,,,,,0,,,73,80
27840,note_on,721,0,12,,,,,,,,15,,,49,80
27840,note_on,721,0,11,,,,,,,,14,,,61,80
27939,note_on,99,0,9,,,,,,,,12,,,73,0
27939,note_on,99,0,8,,,,,,,,11,,,73,0
27960,note_on,21,0,8,,,,,,,,11,,,73,80
27960,note_on,21,0,9,,,,,,,,12,,,73,80
28059,note_on,99,0,9,,,,,,,,12,,,73,0
28059,note_on,219,0,5,,,,,,,,0,,,73,0
28059,note_on,219,0,10,,,,,,,,13,,,73,0
28059,note_on,219,0,11,,,,,,,,14,,,61,0
28059,note_on,99,0,8,,,,,,,,11,,,73,0
28059,note_on,219,0,12,,,,,,,,15,,,49,0
28080,note_on,21,0,12,,,,,,,,15,,,45,80
28080,note_on,21,0,8,,,,,,,,11,,,69,80
28080,note_on,21,0,11,,,,,,,,14,,,57,80
28080,note_on,21,0,5,,,,,,,,0,,,69,80
28080,note_on,21,0,10,,,,,,,,13,,,69,80
28080,note_on,21,0,9,,,,,,,,12,,,69,80
28179,note_on,99,0,9,,,,,,,,12,,,69,0
28179,note_on,99,0,8,,,,,,,,11,,,69,0
28200,note_on,21,0,9,,,,,,,,12,,,69,80
28200,note_on,21,0,8,,,,,,,,11,,,69,80
28299,note_on,219,0,5,,,,,,,,0,,,69,0
28299,note_on,99,0,8,,,,,,,,11,,,69,0
28299,note_on,219,0,10,,,,,,,,13,,,69,0
28299,note_on,219,0,12,,,,,,,,15,,,45,0
28299,note_on,99,0,9,,,,,,,,12,,,69,0
28299,note_on,219,0,11,,,,,,,,14,,,57,0
28320,note_on,21,0,8,,,,,,,,11,,,67,80
28320,note_on,21,0,5,,,,,,,,0,,,67,80
28320,note_on,21,0,11,,,,,,,,14,,,55,80
28320,note_on,21,0,9,,,,,,,,12,,,67,80
28320,note_on,21,0,12,,,,,,,,15,,,43,80
28320,note_on,21,0,10,,,,,,,,13,,,67,80
28419,note_on,99,0,9,,,,,,,,12,,,67,0
28419,note_on,99,0,8,,,,,,,,11,,,67,0
28440,note_on,21,0,9,,,,,,,,12,,,67,80
28440,note_on,21,0,8,,,,,,,,11,,,67,80
28539,note_on,99,0,9,,,,,,,,12,,,67,0
28539,note_on,219,0,11,,,,,,,,14,,,55,0
28539,note_on,219,0,12,,,,,,,,15,,,43,0
28539,note_on,99,0,8,,,,,,,,11,,,67,0
28539,note_on,219,0,5,,,,,,,,0,,,67,0
28539,note_on,219,0,10,,,,,,,,13,,,67,0
28560,note_on,21,0,12,,,,,,,,15,,,40,80
28560,note_on,21,0,9,,,,,,,,12,,,64,80
28560,note_on,21,0,11,,,,,,,,14,,,52,80
28560,note_on,21,0,5,,,,,,,,0,,,64,80
28560,note_on,21,0,8,,,,,,,,11,,,64,80
28560,note_on,21,0,10,,,,,,,,13,,,64,80
28659,note_on,99,0,8,,,,,,,,11,,,64,0
28659,note_on,99,0,9,,,,,,,,12,,,64,0
28680,note_on,21,0,9,,,,,,,,12,,,64,80
28680,note_on,21,0,8,,,,,,,,11,,,64,80
28779,note_on,219,0,12,,,,,,,,15,,,40,0
28779,note_on,99,0,9,,,,,,,,12,,,64,0
28779,note_on,939,0,7,,,,,,,,2,,,67,0
28779,note_on,99,0,8,,,,,,,,11,,,64,0
28779,note_on,219,0,11,,,,,,,,14,,,52,0
28779,note_on,939,0,6,,,,,,,,1,,,64,0
28779,note_on,219,0,5,,,,,,,,0,,,64,0
28779,note_on,219,0,10,,,,,,,,13,,,64,0
28800,note_on,21,0,10,,,,,,,,13,,,62,80
28800,note_on,21,0,9,,,,,,,,12,,,62,80
28800,note_on,21,0,12,,,,,,,,15,,,38,80
28800,note_on,21,0,5,,,,,,,,0,,,62,80
28800,note_on,21,0,6,,,,,,,,1,,,62,80
28800,note_on,21,0,11,,,,,,,,14,,,50,80
28800,note_on,21,0,8,,,,,,,,11,,,62,80
28800,note_on,21,0,7,,,,,,,,2,,,74,80
29039,note_on,239,0,10,,,,,,,,13,,,62,0
29039,note_on,239,0,12,,,,,,,,15,,,38,0
29039,note_on,239,0,11,,,,,,,,14,,,50,0
29039,note_on,239,0,6,,,,,,,,1,,,62,0
29039,note_on,239,0,9,,,,,,,,12,,,62,0
29039,note_on,239,0,8,,,,,,,,11,,,62,0
29039,note_on,239,0,7,,,,,,,,2,,,74,0
29039,note_on,239,0,5,,,,,,,,0,,,62,0
29160,note_on,121,0,9,,,,,,,,12,,,74,80
29160,note_on,121,0,8,,,,,,,,11,,,78,80
29219,note_on,59,0,9,,,,,,,,12,,,74,0
29219,note_on,59,0,8,,,,,,,,11,,,78,0
29220,note_on,1,0,9,,,,,,,,12,,,76,80
29220,note_on,1,0,8,,,,,,,,11,,,79,80
29279,note_on,59,0,8,,,,,,,,11,,,79,0
29279,note_on,59,0,9,,,,,,,,12,,,76,0
29280,note_on,0,0,5,,,,,,,,0,,,81,80
29280,note_on,241,0,12,,,,,,,,15,,,48,80
29280,note_on,241,0,11,,,,,,,,14,,,60,80
29280,note_on,1,0,9,,,,,,,,12,,,78,80
29280,note_on,241,0,5,,,,,,,,0,,,78,80
29280,note_on,241,0,7,,,,,,,,2,,,74,80
29280,note_on,241,0,10,,,,,,,,13,,,72,80
29280,note_on,1,0,8,,,,,,,,11,,,81,80
29280,note_on,241,0,6,,,,,,,,1,,,62,80
29519,note_on,239,0,6,,,,,,,,1,,,62,0
29519,note_on,239,0,7,,,,,,,,2,,,74,0
29519,note_on,0,0,5,,,,,,,,0,,,78,0
29519,note_on,239,0,5,,,,,,,,0,,,81,0
29519,note_on,239,0,12,,,,,,,,15,,,48,0
29519,note_on,239,0,8,,,,,,,,11,,,81,0
29519,note_on,239,0,11,,,,,,,,14,,,60,0
29519,note_on,239,0,10,,,,,,,,13,,,72,0
29519,note_on,239,0,9,,,,,,,,12,,,78,0
29640,note_on,121,0,8,,,,,,,,11,,,81,80
29640,note_on,121,0,9,,,,,,,,12,,,78,80
29699,note_on,59,0,9,,,,,,,,12,,,78,0
29699,note_on,59,0,8,,,,,,,,11,,,81,0
29700,note_on,1,0,8,,,,,,,,11,,,83,80
29700,note_on,1,0,9,,,,,,,,12,,,79,80
29759,note_on,59,0,9,,,,,,,,12,,,79,0
29759,note_on,59,0,8,,,,,,,,11,,,83,0
29760,note_on,241,0,11,,,,,,,,14,,,54,80
29760,note_on,1,0,8,,,,,,,,11,,,84,80
29760,note_on,1,0,9,,,,,,,,12,,,81,80
29760,note_on,241,0,10,,,,,,,,13,,,66,80
29760,note_on,241,0,6,,,,,,,,1,,,62,80
29760,note_on,241,0,12,,,,,,,,15,,,42,80
29760,note_on,0,0,5,,,,,,,,0,,,84,80
29760,note_on,241,0,7,,,,,,,,2,,,74,80
29760,note_on,241,0,5,,,,,,,,0,,,81,80
30239,note_on,479,0,7,,,,,,,,2,,,74,0
30239,note_on,479,0,11,,,,,,,,14,,,54,0
30239,note_on,479,0,9,,,,,,,,12,,,81,0
30239,note_on,479,0,12,,,,,,,,15,,,42,0
30239,note_on,479,0,5,,,,,,,,0,,,84,0
30239,note_on,0,0,5,,,,,,,,0,,,81,0
30239,note_on,479,0,6,,,,,,,,1,,,62,0
30239,note_on,479,0,10,,,,,,,,13,,,66,0
30239,note_on,479,0,8,,,,,,,,11,,,84,0
30720,note_on,481,0,10,,,,,,,,13,,,67,44
30720,note_on,481,0,12,,,,,,,,15,,,43,44
30720,note_on,481,0,9,,,,,,,,12,,,55,44
30720,note_on,481,0,8,,,,,,,,11,,,74,44
30720,note_on,481,0,11,,,,,,,,14,,,55,44
30819,note_on,99,0,9,,,,,,,,12,,,55,0
30840,note_on,21,0,9,,,,,,,,12,,,62,44
30939,note_on,99,0,9,,,,,,,,12,,,62,0
30959,note_on,239,0,11,,,,,,,,14,,,55,0
30959,note_on,239,0,10,,,,,,,,13,,,67,0
30959,note_on,239,0,12,,,,,,,,15,,,43,0
30960,note_on,21,0,9,,,,,,,,12,,,59,44
31059,note_on,99,0,9,,,,,,,,12,,,59,0
31080,note_on,21,0,9,,,,,,,,12,,,62,44
31179,note_on,99,0,9,,,,,,,,12,,,62,0
31199,note_on,479,0,8,,,,,,,,11,,,74,0
31200,note_on,21,0,9,,,,,,,,12,,,55,44
31200,note_on,1,0,8,,,,,,,,11,,,71,44
31299,note_on,99,0,9,,,,,,,,12,,,55,0
31320,note_on,21,0,9,,,,,,,,12,,,62,44
31419,note_on,99,0,9,,,,,,,,12,,,62,0
31419,note_on,219,0,8,,,,,,,,11,,,71,0
31440,note_on,21,0,8,,,,,,,,11,,,74,44
31440,note_on,21,0,9,,,,,,,,12,,,59,44
31539,note_on,99,0,9,,,,,,,,12,,,59,0
31559,note_on,119,0,8,,,,,,,,11,,,74,0
31560,note_on,21,0,9,,,,,,,,12,,,62,44
31659,note_on,99,0,9,,,,,,,,12,,,62,0
31680,note_on,721,0,11,,,,,,,,14,,,55,44
31680,note_on,721,0,12,,,,,,,,15,,,43,44
31680,note_on,21,0,9,,,,,,,,12,,,55,44
31680,note_on,721,0,10,,,,,,,,13,,,67,44
31680,note_on,121,0,8,,,,,,,,11,,,79,44
31779,note_on,99,0,9,,,,,,,,12,,,55,0
31800,note_on,21,0,9,,,,,,,,12,,,62,44
31899,note_on,99,0,9,,,,,,,,12,,,62,0
31919,note_on,239,0,10,,,,,,,,13,,,67,0
31919,note_on,239,0,12,,,,,,,,15,,,43,0
31919,note_on,239,0,11,,,,,,,,14,,,55,0
31920,note_on,21,0,9,,,,,,,,12,,,59,44
32019,note_on,99,0,9,,,,,,,,12,,,59,0
32040,note_on,21,0,9,,,,,,,,12,,,62,44
32139,note_on,99,0,9,,,,,,,,12,,,62,0
32159,note_on,479,0,8,,,,,,,,11,,,79,0
32160,note_on,1,0,8,,,,,,,,11,,,74,44
32160,note_on,21,0,9,,,,,,,,12,,,55,44
32259,note_on,99,0,9,,,,,,,,12,,,55,0
32280,note_on,21,0,9,,,,,,,,12,,,62,44
32379,note_on,99,0,9,,,,,,,,12,,,62,0
32379,note_on,219,0,8,,,,,,,,11,,,74,0
32400,note_on,21,0,8,,,,,,,,11,,,79,44
32400,note_on,21,0,9,,,,,,,,12,,,59,44
32499,note_on,99,0,9,,,,,,,,12,,,59,0
32519,note_on,119,0,8,,,,,,,,11,,,79,0
32520,note_on,21,0,9,,,,,,,,12,,,62,44
32619,note_on,99,0,9,,,,,,,,12,,,62,0
32640,note_on,21,0,9,,,,,,,,12,,,55,44
32640,note_on,721,0,12,,,,,,,,15,,,43,44
32640,note_on,721,0,11,,,,,,,,14,,,55,44
32640,note_on,121,0,8,,,,,,,,11,,,76,44
32640,note_on,721,0,10,,,,,,,,13,,,67,44
32739,note_on,99,0,9,,,,,,,,12,,,55,0
32760,note_on,21,0,9,,,,,,,,12,,,64,44
32859,note_on,99,0,9,,,,,,,,12,,,64,0
32879,note_on,239,0,8,,,,,,,,11,,,76,0
32879,note_on,239,0,10,,,,,,,,13,,,67,0
32879,note_on,239,0,11,,,,,,,,14,,,55,0
32879,note_on,239,0,12,,,,,,,,15,,,43,0
32880,note_on,21,0,9,,,,,,,,12,,,60,44
32880,note_on,1,0,8,,,,,,,,11,,,72,44
32979,note_on,99,0,9,,,,,,,,12,,,60,0
33000,note_on,21,0,9,,,,,,,,12,,,64,44
33099,note_on,99,0,9,,,,,,,,12,,,64,0
33099,note_on,219,0,8,,,,,,,,11,,,72,0
33120,note_on,21,0,8,,,,,,,,11,,,79,44
33120,note_on,21,0,9,,,,,,,,12,,,55,44
33219,note_on,99,0,9,,,,,,,,12,,,55,0
33240,note_on,21,0,9,,,,,,,,12,,,64,44
33339,note_on,99,0,9,,,,,,,,12,,,64,0
33359,note_on,239,0,8,,,,,,,,11,,,79,0
33360,note_on,1,0,8,,,,,,,,11,,,76,44
33360,note_on,21,0,9,,,,,,,,12,,,60,44
33459,note_on,99,0,9,,,,,,,,12,,,60,0
33480,note_on,21,0,9,,,,,,,,12,,,64,44
33579,note_on,219,0,8,,,,,,,,11,,,76,0
33579,note_on,99,0,9,,,,,,,,12,,,64,0
33600,note_on,721,0,12,,,,,,,,15,,,43,44
33600,note_on,721,0,10,,,,,,,,13,,,67,44
33600,note_on,21,0,8,,,,,,,,11,,,74,44
33600,note_on,21,0,9,,,,,,,,12,,,55,44
33600,note_on,721,0,11,,,,,,,,14,,,55,44
33699,note_on,99,0,9,,,,,,,,12,,,55,0
33720,note_on,21,0,9,,,,,,,,12,,,62,44
33819,note_on,99,0,9,,,,,,,,12,,,62,0
33839,note_on,239,0,12,,,,,,,,15,,,43,0
33839,note_on,239,0,11,,,,,,,,14,,,55,0
33839,note_on,239,0,10,,,,,,,,13,,,67,0
33840,note_on,21,0,9,,,,,,,,12,,,59,44
33939,note_on,99,0,9,,,,,,,,12,,,59,0
33959,note_on,359,0,8,,,,,,,,11,,,74,0
33960,note_on,1,0,8,,,,,,,,11,,,71,44
33960,note_on,21,0,9,,,,,,,,12,,,62,44
34059,note_on,99,0,8,,,,,,,,11,,,71,0
34059,note_on,99,0,9,,,,,,,,12,,,62,0
34080,note_on,21,0,8,,,,,,,,11,,,67,44
34080,note_on,21,0,9,,,,,,,,12,,,55,44
34179,note_on,99,0,9,,,,,,,,12,,,55,0
34200,note_on,21,0,9,,,,,,,,12,,,62,44
34299,note_on,99,0,9,,,,,,,,12,,,62,0
34319,note_on,239,0,8,,,,,,,,11,,,67,0
34320,note_on,21,0,9,,,,,,,,12,,,59,44
34419,note_on,99,0,9,,,,,,,,12,,,59,0
34440,note_on,21,0,9,,,,,,,,12,,,62,44
34539,note_on,99,0,9,,,,,,,,12,,,62,0
34560,note_on,721,0,11,,,,,,,,14,,,50,44
34560,note_on,721,0,10,,,,,,,,13,,,62,44
34560,note_on,721,0,12,,,,,,,,15,,,38,44
34560,note_on,241,0,8,,,,,,,,11,,,84,44
34560,note_on,21,0,9,,,,,,,,12,,,57,44
34659,note_on,99,0,9,,,,,,,,12,,,57,0
34680,note_on,21,0,9,,,,,,,,12,,,62,44
34779,note_on,99,0,9,,,,,,,,12,,,62,0
34799,note_on,239,0,10,,,,,,,,13,,,62,0
34799,note_on,239,0,12,,,,,,,,15,,,38,0
34799,note_on,239,0,11,,,,,,,,14,,,50,0
34800,note_on,21,0,9,,,,,,,,12,,,60,44
34899,note_on,99,0,9,,,,,,,,12,,,60,0
34920,note_on,21,0,9,,,,,,,,12,,,62,44
35019,note_on,99,0,9,,,,,,,,12,,,62,0
35039,note_on,479,0,8,,,,,,,,11,,,84,0
35040,note_on,1,0,8,,,,,,,,11,,,81,44
35040,note_on,21,0,9,,,,,,,,12,,,57,44
35139,note_on,99,0,9,,,,,,,,12,,,57,0
35160,note_on,21,0,9,,,,,,,,12,,,62,44
35259,note_on,99,0,9,,,,,,,,12,,,62,0
35279,note_on,239,0,8,,,,,,,,11,,,81,0
35280,note_on,21,0,9,,,,,,,,12,,,60,44
35280,note_on,1,0,8,,,,,,,,11,,,78,44
35379,note_on,99,0,9,,,,,,,,12,,,60,0
35400,note_on,21,0,9,,,,,,,,12,,,62,44
35499,note_on,99,0,9,,,,,,,,12,,,62,0
35499,note_on,219,0,8,,,,,,,,11,,,78,0
35520,note_on,721,0,10,,,,,,,,13,,,55,44
35520,note_on,721,0,11,,,,,,,,14,,,43,44
35520,note_on,721,0,12,,,,,,,,15,,,31,44
35520,note_on,21,0,8,,,,,,,,11,,,79,44
35520,note_on,21,0,9,,,,,,,,12,,,55,44
35619,note_on,99,0,9,,,,,,,,12,,,55,0
35640,note_on,21,0,9,,,,,,,,12,,,62,44
35739,note_on,99,0,9,,,,,,,,12,,,62,0
35759,note_on,239,0,10,,,,,,,,13,,,55,0
35759,note_on,239,0,11,,,,,,,,14,,,43,0
35759,note_on,239,0,12,,,,,,,,15,,,31,0
35760,note_on,21,0,9,,,,,,,,12,,,59,44
35859,note_on,99,0,9,,,,,,,,12,,,59,0
35880,note_on,21,0,9,,,,,,,,12,,,62,44
35979,note_on,99,0,9,,,,,,,,12,,,62,0
35999,note_on,479,0,8,,,,,,,,11,,,79,0
36000,note_on,21,0,9,,,,,,,,12,,,55,44
36000,note_on,1,0,8,,,,,,,,11,,,74,44
36099,note_on,99,0,9,,,,,,,,12,,,55,0
36120,note_on,21,0,9,,,,,,,,12,,,62,44
36219,note_on,99,0,9,,,,,,,,12,,,62,0
36239,note_on,239,0,8,,,,,,,,11,,,74,0
36240,note_on,21,0,9,,,,,,,,12,,,59,44
36240,note_on,1,0,8,,,,,,,,11,,,71,44
36339,note_on,99,0,9,,,,,,,,12,,,59,0
36360,note_on,21,0,9,,,,,,,,12,,,62,44
36459,note_on,99,0,9,,,,,,,,12,,,62,0
36459,note_on,219,0,8,,,,,,,,11,,,71,0
36480,note_on,721,0,10,,,,,,,,13,,,60,44
36480,note_on,21,0,9,,,,,,,,12,,,55,44
36480,note_on,721,0,11,,,,,,,,14,,,48,44
36480,note_on,721,0,12,,,,,,,,15,,,36,44
36480,note_on,21,0,8,,,,,,,,11,,,76,44
36579,note_on,99,0,9,,,,,,,,12,,,55,0
36600,note_on,21,0,9,,,,,,,,12,,,64,44
36699,note_on,99,0,9,,,,,,,,12,,,64,0
36719,note_on,239,0,10,,,,,,,,13,,,60,0
36719,note_on,239,0,11,,,,,,,,14,,,48,0
36719,note_on,239,0,12,,,,,,,,15,,,36,0
36720,note_on,21,0,9,,,,,,,,12,,,60,44
36819,note_on,99,0,9,,,,,,,,12,,,60,0
36840,note_on,21,0,9,,,,,,,,12,,,64,44
36939,note_on,99,0,9,,,,,,,,12,,,64,0
36959,note_on,479,0,8,,,,,,,,11,,,76,0
36960,note_on,21,0,9,,,,,,,,12,,,57,44
36960,note_on,1,0,8,,,,,,,,11,,,72,44
37059,note_on,99,0,9,,,,,,,,12,,,57,0
37080,note_on,21,0,9,,,,,,,,12,,,64,44
37179,note_on,99,0,9,,,,,,,,12,,,64,0
37199,note_on,239,0,8,,,,,,,,11,,,72,0
37200,note_on,21,0,9,,,,,,,,12,,,60,44
37200,note_on,1,0,8,,,,,,,,11,,,69,44
37299,note_on,99,0,9,,,,,,,,12,,,60,0
37320,note_on,21,0,9,,,,,,,,12,,,64,44
37419,note_on,99,0,9,,,,,,,,12,,,64,0
37419,note_on,219,0,8,,,,,,,,11,,,69,0
37440,note_on,21,0,8,,,,,,,,11,,,67,44
37440,note_on,721,0,12,,,,,,,,15,,,38,44
37440,note_on,721,0,11,,,,,,,,14,,,50,44
37440,note_on,721,0,10,,,,,,,,13,,,62,44
37440,note_on,21,0,9,,,,,,,,12,,,59,44
37539,note_on,99,0,9,,,,,,,,12,,,59,0
37560,note_on,21,0,9,,,,,,,,12,,,62,44
37659,note_on,99,0,9,,,,,,,,12,,,62,0
37679,note_on,239,0,11,,,,,,,,14,,,50,0
37679,note_on,239,0,10,,,,,,,,13,,,62,0
37679,note_on,239,0,12,,,,,,,,15,,,38,0
37680,note_on,21,0,9,,,,,,,,12,,,59,44
37779,note_on,99,0,9,,,,,,,,12,,,59,0
37800,note_on,21,0,9,,,,,,,,12,,,55,44
37899,note_on,99,0,9,,,,,,,,12,,,55,0
37919,note_on,479,0,8,,,,,,,,11,,,67,0
37920,note_on,1,0,8,,,,,,,,11,,,66,44
37920,note_on,21,0,9,,,,,,,,12,,,60,44
38019,note_on,99,0,9,,,,,,,,12,,,60,0
38040,note_on,21,0,9,,,,,,,,12,,,62,44
38139,note_on,99,0,9,,,,,,,,12,,,62,0
38159,note_on,239,0,8,,,,,,,,11,,,66,0
38160,note_on,21,0,9,,,,,,,,12,,,60,44
38259,note_on,99,0,9,,,,,,,,12,,,60,0
38280,note_on,21,0,9,,,,,,,,12,,,57,44
38379,note_on,99,0,9,,,,,,,,12,,,57,0
38400,note_on,721,0,11,,,,,,,,14,,,43,44
38400,note_on,21,0,9,,,,,,,,12,,,55,44
38400,note_on,721,0,12,,,,,,,,15,,,31,44
38400,note_on,8161,0,5,,,,,,,,0,,,74,44
38400,note_on,0,0,5,,,,,,,,0,,,71,44
38400,note_on,0,0,6,,,,,,,,1,,,43,44
38400,note_on,241,0,8,,,,,,,,11,,,74,44
38400,note_on,8161,0,6,,,,,,,,1,,,55,44
38400,note_on,721,0,10,,,,,,,,13,,,55,44
38499,note_on,99,0,9,,,,,,,,12,,,55,0
38520,note_on,21,0,9,,,,,,,,12,,,62,44
38619,note_on,99,0,9,,,,,,,,12,,,62,0
38639,note_on,239,0,10,,,,,,,,13,,,55,0
38639,note_on,239,0,11,,,,,,,,14,,,43,0
38639,note_on,239,0,12,,,,,,,,15,,,31,0
38640,note_on,21,0,9,,,,,,,,12,,,59,44
38739,note_on,99,0,9,,,,,,,,12,,,59,0
38760,note_on,21,0,9,,,,,,,,12,,,62,44
38859,note_on,99,0,9,,,,,,,,12,,,62,0
38879,note_on,479,0,8,,,,,,,,11,,,74,0
38880,note_on,21,0,9,,,,,,,,12,,,55,44
38880,note_on,1,0,8,,,,,,,,11,,,71,44
38979,note_on,99,0,9,,,,,,,,12,,,55,0
39000,note_on,21,0,9,,,,,,,,12,,,62,44
39099,note_on,99,0,9,,,,,,,,12,,,62,0
39099,note_on,219,0,8,,,,,,,,11,,,71,0
39120,note_on,21,0,9,,,,,,,,12,,,59,44
39120,note_on,21,0,8,,,,,,,,11,,,74,44
39219,note_on,99,0,9,,,,,,,,12,,,59,0
39239,note_on,119,0,8,,,,,,,,11,,,74,0
39240,note_on,21,0,9,,,,,,,,12,,,62,44
39339,note_on,99,0,9,,,,,,,,12,,,62,0
39360,note_on,721,0,10,,,,,,,,13,,,55,44
39360,note_on,721,0,12,,,,,,,,15,,,31,44
39360,note_on,721,0,11,,,,,,,,14,,,43,44
39360,note_on,121,0,8,,,,,,,,11,,,79,44
39360,note_on,21,0,9,,,,,,,,12,,,55,44
39459,note_on,99,0,9,,,,,,,,12,,,55,0
39480,note_on,21,0,9,,,,,,,,12,,,62,44
39579,note_on,99,0,9,,,,,,,,12,,,62,0
39599,note_on,239,0,11,,,,,,,,14,,,43,0
39599,note_on,239,0,10,,,,,,,,13,,,55,0
39599,note_on,239,0,12,,,,,,,,15,,,31,0
39600,note_on,21,0,9,,,,,,,,12,,,59,44
39699,note_on,99,0,9,,,,,,,,12,,,59,0
39720,note_on,21,0,9,,,,,,,,12,,,62,44
39819,note_on,99,0,9,,,,,,,,12,,,62,0
39839,note_on,479,0,8,,,,,,,,11,,,79,0
39840,note_on,21,0,9,,,,,,,,12,,,55,44
39840,note_on,1,0,8,,,,,,,,11,,,74,44
39939,note_on,99,0,9,,,,,,,,12,,,55,0
39960,note_on,21,0,9,,,,,,,,12,,,62,44
40059,note_on,99,0,9,,,,,,,,12,,,62,0
40059,note_on,219,0,8,,,,,,,,11,,,74,0
40080,note_on,21,0,8,,,,,,,,11,,,79,44
40080,note_on,21,0,9,,,,,,,,12,,,59,44
40179,note_on,99,0,9,,,,,,,,12,,,59,0
40199,note_on,119,0,8,,,,,,,,11,,,79,0
40200,note_on,21,0,9,,,,,,,,12,,,62,44
40299,note_on,99,0,9,,,,,,,,12,,,62,0
40299,note_on,1899,0,5,,,,,,,,0,,,71,0
40299,note_on,0,0,5,,,,,,,,0,,,74,0
40320,note_on,721,0,12,,,,,,,,15,,,31,44
40320,note_on,121,0,8,,,,,,,,11,,,76,44
40320,note_on,21,0,5,,,,,,,,0,,,72,44
40320,note_on,0,0,5,,,,,,,,0,,,76,44
40320,note_on,721,0,10,,,,,,,,13,,,55,44
40320,note_on,21,0,9,,,,,,,,12,,,55,44
40320,note_on,721,0,11,,,,,,,,14,,,43,44
40419,note_on,99,0,9,,,,,,,,12,,,55,0
40440,note_on,21,0,9,,,,,,,,12,,,64,44
40539,note_on,99,0,9,,,,,,,,12,,,64,0
40559,note_on,239,0,8,,,,,,,,11,,,76,0
40559,note_on,239,0,12,,,,,,,,15,,,31,0
40559,note_on,239,0,10,,,,,,,,13,,,55,0
40559,note_on,239,0,11,,,,,,,,14,,,43,0
40560,note_on,1,0,8,,,,,,,,11,,,72,44
40560,note_on,21,0,9,,,,,,,,12,,,60,44
40659,note_on,99,0,9,,,,,,,,12,,,60,0
40680,note_on,21,0,9,,,,,,,,12,,,64,44
40779,note_on,219,0,8,,,,,,,,11,,,72,0
40779,note_on,99,0,9,,,,,,,,12,,,64,0
40800,note_on,21,0,9,,,,,,,,12,,,55,44
40800,note_on,21,0,8,,,,,,,,11,,,79,44
40899,note_on,99,0,9,,,,,,,,12,,,55,0
40920,note_on,21,0,9,,,,,,,,12,,,64,44
41019,note_on,99,0,9,,,,,,,,12,,,64,0
41039,note_on,239,0,8,,,,,,,,11,,,79,0
41040,note_on,21,0,9,,,,,,,,12,,,60,44
41040,note_on,1,0,8,,,,,,,,11,,,76,44
41139,note_on,99,0,9,,,,,,,,12,,,60,0
41160,note_on,21,0,9,,,,,,,,12,,,64,44
41259,note_on,939,0,5,,,,,,,,0,,,76,0
41259,note_on,0,0,5,,,,,,,,0,,,72,0
41259,note_on,219,0,8,,,,,,,,11,,,76,0
41259,note_on,99,0,9,,,,,,,,12,,,64,0
41280,note_on,721,0,12,,,,,,,,15,,,31,44
41280,note_on,721,0,11,,,,,,,,14,,,43,44
41280,note_on,21,0,9,,,,,,,,12,,,55,44
41280,note_on,21,0,5,,,,,,,,0,,,74,44
41280,note_on,0,0,5,,,,,,,,0,,,71,44
41280,note_on,721,0,10,,,,,,,,13,,,55,44
41280,note_on,21,0,8,,,,,,,,11,,,74,44
41379,note_on,99,0,9,,,,,,,,12,,,55,0
41400,note_on,21,0,9,,,,,,,,12,,,62,44
41499,note_on,99,0,9,,,,,,,,12,,,62,0
41519,note_on,239,0,11,,,,,,,,14,,,43,0
41519,note_on,239,0,10,,,,,,,,13,,,55,0
41519,note_on,239,0,12,,,,,,,,15,,,31,0
41520,note_on,21,0,9,,,,,,,,12,,,59,44
41619,note_on,99,0,9,,,,,,,,12,,,59,0
41639,note_on,359,0,8,,,,,,,,11,,,74,0
41640,note_on,21,0,9,,,,,,,,12,,,62,44
41640,note_on,1,0,8,,,,,,,,11,,,71,44
41739,note_on,99,0,8,,,,,,,,11,,,71,0
41739,note_on,99,0,9,,,,,,,,12,,,62,0
41760,note_on,21,0,8,,,,,,,,11,,,67,44
41760,note_on,21,0,9,,,,,,,,12,,,55,44
41859,note_on,99,0,9,,,,,,,,12,,,55,0
41880,note_on,21,0,9,,,,,,,,12,,,62,44
41979,note_on,99,0,9,,,,,,,,12,,,62,0
41999,note_on,239,0,8,,,,,,,,11,,,67,0
42000,note_on,21,0,9,,,,,,,,12,,,59,44
42099,note_on,99,0,9,,,,,,,,12,,,59,0
42120,note_on,21,0,9,,,,,,,,12,,,62,44
42219,note_on,0,0,5,,,,,,,,0,,,74,0
42219,note_on,99,0,9,,,,,,,,12,,,62,0
42219,note_on,939,0,5,,,,,,,,0,,,71,0
42239,note_on,3839,0,6,,,,,,,,1,,,43,0
42239,note_on,0,0,6,,,,,,,,1,,,55,0
42240,note_on,721,0,10,,,,,,,,13,,,62,44
42240,note_on,0,0,5,,,,,,,,0,,,72,44
42240,note_on,721,0,12,,,,,,,,15,,,38,44
42240,note_on,21,0,9,,,,,,,,12,,,57,44
42240,note_on,241,0,8,,,,,,,,11,,,84,44
42240,note_on,721,0,11,,,,,,,,14,,,50,44
42240,note_on,21,0,5,,,,,,,,0,,,69,44
42339,note_on,99,0,9,,,,,,,,12,,,57,0
42360,note_on,21,0,9,,,,,,,,12,,,62,44
42459,note_on,99,0,9,,,,,,,,12,,,62,0
42479,note_on,239,0,12,,,,,,,,15,,,38,0
42479,note_on,239,0,11,,,,,,,,14,,,50,0
42479,note_on,239,0,10,,,,,,,,13,,,62,0
42480,note_on,21,0,9,,,,,,,,12,,,60,44
42579,note_on,99,0,9,,,,,,,,12,,,60,0
42600,note_on,21,0,9,,,,,,,,12,,,62,44
42699,note_on,99,0,9,,,,,,,,12,,,62,0
42719,note_on,479,0,8,,,,,,,,11,,,84,0
42720,note_on,21,0,9,,,,,,,,12,,,57,44
42720,note_on,1,0,8,,,,,,,,11,,,81,44
42819,note_on,99,0,9,,,,,,,,12,,,57,0
42840,note_on,21,0,9,,,,,,,,12,,,62,44
42939,note_on,99,0,9,,,,,,,,12,,,62,0
42959,note_on,239,0,8,,,,,,,,11,,,81,0
42960,note_on,1,0,8,,,,,,,,11,,,78,44
42960,note_on,21,0,9,,,,,,,,12,,,60,44
43059,note_on,99,0,9,,,,,,,,12,,,60,0
43080,note_on,21,0,9,,,,,,,,12,,,62,44
43179,note_on,0,0,5,,,,,,,,0,,,69,0
43179,note_on,939,0,5,,,,,,,,0,,,72,0
43179,note_on,219,0,8,,,,,,,,11,,,78,0
43179,note_on,99,0,9,,,,,,,,12,,,62,0
43200,note_on,21,0,9,,,,,,,,12,,,55,44
43200,note_on,0,0,5,,,,,,,,0,,,67,44
43200,note_on,21,0,5,,,,,,,,0,,,71,44
43200,note_on,721,0,12,,,,,,,,15,,,43,44
43200,note_on,721,0,10,,,,,,,,13,,,67,44
43200,note_on,21,0,8,,,,,,,,11,,,79,44
43200,note_on,721,0,11,,,,,,,,14,,,55,44
43299,note_on,99,0,9,,,,,,,,12,,,55,0
43320,note_on,21,0,9,,,,,,,,12,,,62,44
43419,note_on,99,0,9,,,,,,,,12,,,62,0
43439,note_on,239,0,12,,,,,,,,15,,,43,0
43439,note_on,239,0,10,,,,,,,,13,,,67,0
43439,note_on,239,0,11,,,,,,,,14,,,55,0
43440,note_on,21,0,9,,,,,,,,12,,,59,44
43539,note_on,99,0,9,,,,,,,,12,,,59,0
43560,note_on,21,0,9,,,,,,,,12,,,62,44
43659,note_on,99,0,9,,,,,,,,12,,,62,0
43679,note_on,0,0,5,,,,,,,,0,,,71,0
43679,note_on,479,0,5,,,,,,,,0,,,67,0
43679,note_on,479,0,8,,,,,,,,11,,,79,0
43680,note_on,21,0,9,,,,,,,,12,,,55,44
43680,note_on,0,0,5,,,,,,,,0,,,74,44
43680,note_on,1,0,5,,,,,,,,0,,,83,44
43680,note_on,1,0,8,,,,,,,,11,,,74,44
43779,note_on,99,0,9,,,,,,,,12,,,55,0
43800,note_on,21,0,9,,,,,,,,12,,,62,44
43899,note_on,99,0,9,,,,,,,,12,,,62,0
43919,note_on,239,0,8,,,,,,,,11,,,74,0
43920,note_on,21,0,9,,,,,,,,12,,,59,44
43920,note_on,1,0,8,,,,,,,,11,,,71,44
44019,note_on,99,0,9,,,,,,,,12,,,59,0
44040,note_on,21,0,9,,,,,,,,12,,,62,44
44139,note_on,99,0,9,,,,,,,,12,,,62,0
44139,note_on,219,0,8,,,,,,,,11,,,71,0
44139,note_on,459,0,5,,,,,,,,0,,,74,0
44139,note_on,0,0,5,,,,,,,,0,,,83,0
44160,note_on,0,0,5,,,,,,,,0,,,81,44
44160,note_on,721,0,11,,,,,,,,14,,,48,44
44160,note_on,21,0,5,,,,,,,,0,,,72,44
44160,note_on,721,0,12,,,,,,,,15,,,36,44
44160,note_on,21,0,9,,,,,,,,12,,,55,44
44160,note_on,721,0,10,,,,,,,,13,,,60,44
44160,note_on,21,0,8,,,,,,,,11,,,69,44
44259,note_on,99,0,9,,,,,,,,12,,,55,0
44280,note_on,21,0,9,,,,,,,,12,,,64,44
44379,note_on,99,0,9,,,,,,,,12,,,64,0
44379,note_on,219,0,8,,,,,,,,11,,,69,0
44399,note_on,239,0,10,,,,,,,,13,,,60,0
44399,note_on,239,0,11,,,,,,,,14,,,48,0
44399,note_on,239,0,12,,,,,,,,15,,,36,0
44400,note_on,21,0,9,,,,,,,,12,,,60,44
44400,note_on,21,0,8,,,,,,,,11,,,76,44
44499,note_on,99,0,9,,,,,,,,12,,,60,0
44520,note_on,21,0,9,,,,,,,,12,,,57,44
44619,note_on,99,0,9,,,,,,,,12,,,57,0
44639,note_on,479,0,5,,,,,,,,0,,,81,0
44639,note_on,0,0,5,,,,,,,,0,,,72,0
44639,note_on,239,0,8,,,,,,,,11,,,76,0
44640,note_on,241,0,11,,,,,,,,14,,,50,44
44640,note_on,0,0,5,,,,,,,,0,,,79,44
44640,note_on,1,0,5,,,,,,,,0,,,71,44
44640,note_on,241,0,10,,,,,,,,13,,,62,44
44640,note_on,1,0,8,,,,,,,,11,,,74,44
44640,note_on,241,0,12,,,,,,,,15,,,38,44
44640,note_on,21,0,9,,,,,,,,12,,,59,44
44739,note_on,99,0,9,,,,,,,,12,,,59,0
44760,note_on,21,0,9,,,,,,,,12,,,62,44
44859,note_on,219,0,8,,,,,,,,11,,,74,0
44859,note_on,99,0,9,,,,,,,,12,,,62,0
44879,note_on,239,0,5,,,,,,,,0,,,79,0
44879,note_on,239,0,11,,,,,,,,14,,,50,0
44879,note_on,0,0,5,,,,,,,,0,,,71,0
44879,note_on,239,0,12,,,,,,,,15,,,38,0
44879,note_on,239,0,10,,,,,,,,13,,,62,0
44880,note_on,1,0,5,,,,,,,,0,,,69,44
44880,note_on,21,0,8,,,,,,,,11,,,66,44
44880,note_on,0,0,5,,,,,,,,0,,,78,44
44880,note_on,21,0,9,,,,,,,,12,,,60,44
44979,note_on,99,0,9,,,,,,,,12,,,60,0
45000,note_on,21,0,9,,,,,,,,12,,,57,44
45099,note_on,0,0,5,,,,,,,,0,,,69,0
45099,note_on,99,0,9,,,,,,,,12,,,57,0
45099,note_on,219,0,5,,,,,,,,0,,,78,0
45119,note_on,239,0,8,,,,,,,,11,,,66,0
45120,note_on,21,0,5,,,,,,,,0,,,79,44
45120,note_on,0,0,5,,,,,,,,0,,,71,44
45120,note_on,241,0,10,,,,,,,,13,,,62,44
45120,note_on,21,0,9,,,,,,,,12,,,59,44
45120,note_on,241,0,11,,,,,,,,14,,,43,44
45120,note_on,241,0,12,,,,,,,,15,,,31,44
45120,note_on,1,0,8,,,,,,,,11,,,67,44
45219,note_on,99,0,10,,,,,,,,13,,,62,0
45240,note_on,21,0,10,,,,,,,,13,,,62,44
45339,note_on,99,0,10,,,,,,,,13,,,62,0
45359,note_on,239,0,5,,,,,,,,0,,,71,0
45359,note_on,0,0,5,,,,,,,,0,,,79,0
45359,note_on,239,0,9,,,,,,,,12,,,59,0
45359,note_on,239,0,12,,,,,,,,15,,,31,0
45359,note_on,239,0,8,,,,,,,,11,,,67,0
45359,note_on,239,0,11,,,,,,,,14,,,43,0
45360,note_on,21,0,10,,,,,,,,13,,,62,44
45459,note_on,99,0,10,,,,,,,,13,,,62,0
45480,note_on,21,0,10,,,,,,,,13,,,62,44
45579,note_on,99,0,10,,,,,,,,13,,,62,0
45600,note_on,241,0,8,,,,,,,,11,,,84,80
45600,note_on,241,0,9,,,,,,,,12,,,81,80
45600,note_on,0,0,5,,,,,,,,0,,,81,80
45600,note_on,0,0,10,,,,,,,,13,,,62,80
45600,note_on,241,0,12,,,,,,,,15,,,42,80
45600,note_on,241,0,11,,,,,,,,14,,,54,80
45600,note_on,3361,0,6,,,,,,,,1,,,62,80
45600,note_on,21,0,10,,,,,,,,13,,,74,80
45600,note_on,15361,0,7,,,,,,,,2,,,74,80
45600,note_on,241,0,5,,,,,,,,0,,,84,80
45699,note_on,99,0,9,,,,,,,,12,,,81,0
45699,note_on,99,0,10,,,,,,,,13,,,62,0
45699,note_on,0,0,10,,,,,,,,13,,,74,0
45699,note_on,99,0,8,,,,,,,,11,,,84,0
45720,note_on,21,0,8,,,,,,,,11,,,84,80
45720,note_on,21,0,9,,,,,,,,12,,,81,80
45720,note_on,21,0,10,,,,,,,,13,,,74,80
45720,note_on,0,0,10,,,,,,,,13,,,62,80
45819,note_on,99,0,10,,,,,,,,13,,,62,0
45819,note_on,0,0,10,,,,,,,,13,,,74,0
45819,note_on,99,0,9,,,,,,,,12,,,81,0
45819,note_on,99,0,8,,,,,,,,11,,,84,0
45839,note_on,239,0,7,,,,,,,,2,,,74,0
45839,note_on,239,0,6,,,,,,,,1,,,62,0
45839,note_on,239,0,11,,,,,,,,14,,,54,0
45839,note_on,239,0,12,,,,,,,,15,,,42,0
45839,note_on,239,0,5,,,,,,,,0,,,81,0
45839,note_on,0,0,5,,,,,,,,0,,,84,0
45840,note_on,1,0,11,,,,,,,,14,,,55,80
45840,note_on,21,0,8,,,,,,,,11,,,83,80
45840,note_on,1,0,12,,,,,,,,15,,,43,80
45840,note_on,21,0,10,,,,,,,,13,,,62,80
45840,note_on,21,0,9,,,,,,,,12,,,79,80
45840,note_on,0,0,10,,,,,,,,13,,,74,80
45840,note_on,0,0,5,,,,,,,,0,,,83,80
45840,note_on,1,0,5,,,,,,,,0,,,79,80
45939,note_on,99,0,9,,,,,,,,12,,,79,0
45939,note_on,99,0,10,,,,,,,,13,,,74,0
45939,note_on,99,0,8,,,,,,,,11,,,83,0
45939,note_on,0,0,10,,,,,,,,13,,,62,0
45960,note_on,21,0,9,,,,,,,,12,,,79,80
45960,note_on,21,0,8,,,,,,,,11,,,83,80
45960,note_on,0,0,10,,,,,,,,13,,,62,80
45960,note_on,21,0,10,,,,,,,,13,,,74,80
46059,note_on,219,0,11,,,,,,,,14,,,55,0
46059,note_on,219,0,12,,,,,,,,15,,,43,0
46059,note_on,99,0,10,,,,,,,,13,,,62,0
46059,note_on,99,0,9,,,,,,,,12,,,79,0
46059,note_on,0,0,10,,,,,,,,13,,,74,0
46059,note_on,99,0,8,,,,,,,,11,,,83,0
46079,note_on,0,0,5,,,,,,,,0,,,79,0
46079,note_on,239,0,5,,,,,,,,0,,,83,0
46080,note_on,21,0,12,,,,,,,,15,,,48,44
46080,note_on,0,0,10,,,,,,,,13,,,74,44
46080,note_on,21,0,11,,,,,,,,14,,,60,44
46080,note_on,21,0,10,,,,,,,,13,,,62,44
46080,note_on,21,0,9,,,,,,,,12,,,78,44
46080,note_on,21,0,8,,,,,,,,11,,,81,44
46179,note_on,99,0,9,,,,,,,,12,,,78,0
46179,note_on,0,0,10,,,,,,,,13,,,62,0
46179,note_on,99,0,8,,,,,,,,11,,,81,0
46179,note_on,99,0,10,,,,,,,,13,,,74,0
46200,note_on,21,0,8,,,,,,,,11,,,81,44
46200,note_on,21,0,9,,,,,,,,12,,,78,44
46200,note_on,0,0,10,,,,,,,,13,,,62,44
46200,note_on,21,0,10,,,,,,,,13,,,74,44
46299,note_on,0,0,10,,,,,,,,13,,,74,0
46299,note_on,99,0,10,,,,,,,,13,,,62,0
46299,note_on,99,0,9,,,,,,,,12,,,78,0
46299,note_on,99,0,8,,,,,,,,11,,,81,0
46319,note_on,239,0,11,,,,,,,,14,,,60,0
46319,note_on,239,0,12,,,,,,,,15,,,48,0
46320,note_on,21,0,8,,,,,,,,11,,,79,44
46320,note_on,21,0,10,,,,,,,,13,,,74,44
46320,note_on,1,0,12,,,,,,,,15,,,47,44
46320,note_on,0,0,10,,,,,,,,13,,,62,44
46320,note_on,1,0,11,,,,,,,,14,,,59,44
46320,note_on,21,0,9,,,,,,,,12,,,79,44
46419,note_on,99,0,9,,,,,,,,12,,,79,0
46419,note_on,99,0,10,,,,,,,,13,,,62,0
46419,note_on,0,0,10,,,,,,,,13,,,74,0
46419,note_on,99,0,8,,,,,,,,11,,,79,0
46440,note_on,21,0,9,,,,,,,,12,,,79,44
46440,note_on,21,0,8,,,,,,,,11,,,79,44
46440,note_on,0,0,10,,,,,,,,13,,,62,44
46440,note_on,21,0,10,,,,,,,,13,,,74,44
46539,note_on,0,0,10,,,,,,,,13,,,74,0
46539,note_on,99,0,8,,,,,,,,11,,,79,0
46539,note_on,219,0,11,,,,,,,,14,,,59,0
46539,note_on,99,0,9,,,,,,,,12,,,79,0
46539,note_on,219,0,12,,,,,,,,15,,,47,0
46539,note_on,99,0,10,,,,,,,,13,,,62,0
46560,note_on,721,0,6,,,,,,,,1,,,62,80
46560,note_on,21,0,11,,,,,,,,14,,,54,80
46560,note_on,21,0,8,,,,,,,,11,,,84,80
46560,note_on,21,0,9,,,,,,,,12,,,81,80
46560,note_on,21,0,12,,,,,,,,15,,,42,80
46560,note_on,0,0,5,,,,,,,,0,,,81,80
46560,note_on,481,0,5,,,,,,,,0,,,84,80
46560,note_on,21,0,10,,,,,,,,13,,,74,80
46560,note_on,721,0,7,,,,,,,,2,,,74,80
46560,note_on,0,0,10,,,,,,,,13,,,62,80
46659,note_on,99,0,8,,,,,,,,11,,,84,0
46659,note_on,99,0,9,,,,,,,,12,,,81,0
46659,note_on,99,0,10,,,,,,,,13,,,62,0
46659,note_on,0,0,10,,,,,,,,13,,,74,0
46680,note_on,0,0,10,,,,,,,,13,,,62,80
46680,note_on,21,0,10,,,,,,,,13,,,74,80
46680,note_on,21,0,9,,,,,,,,12,,,81,80
46680,note_on,21,0,8,,,,,,,,11,,,84,80
46779,note_on,99,0,9,,,,,,,,12,,,81,0
46779,note_on,99,0,10,,,,,,,,13,,,62,0
46779,note_on,0,0,10,,,,,,,,13,,,74,0
46779,note_on,99,0,8,,,,,,,,11,,,84,0
46799,note_on,0,0,5,,,,,,,,0,,,84,0
46799,note_on,239,0,11,,,,,,,,14,,,54,0
46799,note_on,239,0,6,,,,,,,,1,,,62,0
46799,note_on,239,0,12,,,,,,,,15,,,42,0
46799,note_on,239,0,5,,,,,,,,0,,,81,0
46799,note_on,239,0,7,,,,,,,,2,,,74,0
46800,note_on,1,0,11,,,,,,,,14,,,55,80
46800,note_on,21,0,10,,,,,,,,13,,,74,80
46800,note_on,1,0,12,,,,,,,,15,,,43,80
46800,note_on,21,0,9,,,,,,,,12,,,79,80
46800,note_on,1,0,5,,,,,,,,0,,,83,80
46800,note_on,0,0,5,,,,,,,,0,,,79,80
46800,note_on,21,0,8,,,,,,,,11,,,83,80
46800,note_on,0,0,10,,,,,,,,13,,,62,80
46899,note_on,99,0,8,,,,,,,,11,,,83,0
46899,note_on,99,0,9,,,,,,,,12,,,79,0
46899,note_on,0,0,10,,,,,,,,13,,,74,0
46899,note_on,99,0,10,,,,,,,,13,,,62,0
46920,note_on,0,0,10,,,,,,,,13,,,62,80
46920,note_on,21,0,8,,,,,,,,11,,,83,80
46920,note_on,21,0,9,,,,,,,,12,,,79,80
46920,note_on,21,0,10,,,,,,,,13,,,74,80
47019,note_on,99,0,10,,,,,,,,13,,,62,0
47019,note_on,219,0,11,,,,,,,,14,,,55,0
47019,note_on,219,0,12,,,,,,,,15,,,43,0
47019,note_on,99,0,9,,,,,,,,12,,,79,0
47019,note_on,0,0,10,,,,,,,,13,,,74,0
47019,note_on,99,0,8,,,,,,,,11,,,83,0
47039,note_on,239,0,5,,,,,,,,0,,,79,0
47039,note_on,0,0,5,,,,,,,,0,,,83,0
47040,note_on,21,0,9,,,,,,,,12,,,78,44
47040,note_on,0,0,10,,,,,,,,13,,,74,44
47040,note_on,21,0,10,,,,,,,,13,,,62,44
47040,note_on,21,0,12,,,,,,,,15,,,48,44
47040,note_on,21,0,11,,,,,,,,14,,,60,44
47040,note_on,21,0,8,,,,,,,,11,,,81,44
47139,note_on,0,0,10,,,,,,,,13,,,62,0
47139,note_on,99,0,10,,,,,,,,13,,,74,0
47139,note_on,99,0,9,,,,,,,,12,,,78,0
47139,note_on,99,0,8,,,,,,,,11,,,81,0
47160,note_on,21,0,9,,,,,,,,12,,,78,44
47160,note_on,0,0,10,,,,,,,,13,,,74,44
47160,note_on,21,0,10,,,,,,,,13,,,62,44
47160,note_on,21,0,8,,,,,,,,11,,,81,44
47259,note_on,99,0,9,,,,,,,,12,,,78,0
47259,note_on,0,0,10,,,,,,,,13,,,62,0
47259,note_on,99,0,10,,,,,,,,13,,,74,0
47259,note_on,99,0,8,,,,,,,,11,,,81,0
47279,note_on,239,0,12,,,,,,,,15,,,48,0
47279,note_on,239,0,11,,,,,,,,14,,,60,0
47280,note_on,1,0,11,,,,,,,,14,,,59,44
47280,note_on,21,0,9,,,,,,,,12,,,79,44
47280,note_on,21,0,10,,,,,,,,13,,,74,44
47280,note_on,1,0,12,,,,,,,,15,,,47,44
47280,note_on,0,0,10,,,,,,,,13,,,62,44
47280,note_on,21,0,8,,,,,,,,11,,,79,44
47379,note_on,99,0,9,,,,,,,,12,,,79,0
47379,note_on,0,0,10,,,,,,,,13,,,74,0
47379,note_on,99,0,8,,,,,,,,11,,,79,0
47379,note_on,99,0,10,,,,,,,,13,,,62,0
47400,note_on,21,0,10,,,,,,,,13,,,62,44
47400,note_on,21,0,9,,,,,,,,12,,,79,44
47400,note_on,0,0,10,,,,,,,,13,,,74,44
47400,note_on,21,0,8,,,,,,,,11,,,79,44
47499,note_on,219,0,11,,,,,,,,14,,,59,0
47499,note_on,99,0,8,,,,,,,,11,,,79,0
47499,note_on,99,0,9,,,,,,,,12,,,79,0
47499,note_on,99,0,10,,,,,,,,13,,,74,0
47499,note_on,219,0,12,,,,,,,,15,,,47,0
47499,note_on,0,0,10,,,,,,,,13,,,62,0
47520,note_on,21,0,10,,,,,,,,13,,,62,80
47520,note_on,21,0,12,,,,,,,,15,,,42,80
47520,note_on,21,0,11,,,,,,,,14,,,54,80
47520,note_on,21,0,9,,,,,,,,12,,,81,80
47520,note_on,721,0,6,,,,,,,,1,,,62,80
47520,note_on,0,0,5,,,,,,,,0,,,84,80
47520,note_on,721,0,7,,,,,,,,2,,,74,80
47520,note_on,21,0,8,,,,,,,,11,,,84,80
47520,note_on,481,0,5,,,,,,,,0,,,81,80
47520,note_on,0,0,10,,,,,,,,13,,,74,80
47619,note_on,99,0,10,,,,,,,,13,,,74,0
47619,note_on,99,0,8,,,,,,,,11,,,84,0
47619,note_on,99,0,9,,,,,,,,12,,,81,0
47619,note_on,0,0,10,,,,,,,,13,,,62,0
47640,note_on,21,0,9,,,,,,,,12,,,81,80
47640,note_on,0,0,10,,,,,,,,13,,,74,80
47640,note_on,21,0,10,,,,,,,,13,,,62,80
47640,note_on,21,0,8,,,,,,,,11,,,84,80
47739,note_on,99,0,8,,,,,,,,11,,,84,0
47739,note_on,0,0,10,,,,,,,,13,,,62,0
47739,note_on,99,0,10,,,,,,,,13,,,74,0
47739,note_on,99,0,9,,,,,,,,12,,,81,0
47759,note_on,0,0,5,,,,,,,,0,,,81,0
47759,note_on,239,0,12,,,,,,,,15,,,42,0
47759,note_on,239,0,11,,,,,,,,14,,,54,0
47759,note_on,239,0,5,,,,,,,,0,,,84,0
47759,note_on,239,0,7,,,,,,,,2,,,74,0
47759,note_on,239,0,6,,,,,,,,1,,,62,0
47760,note_on,1,0,11,,,,,,,,14,,,55,80
47760,note_on,0,0,10,,,,,,,,13,,,74,80
47760,note_on,1,0,12,,,,,,,,15,,,43,80
47760,note_on,1,0,5,,,,,,,,0,,,79,80
47760,note_on,21,0,8,,,,,,,,11,,,83,80
47760,note_on,21,0,9,,,,,,,,12,,,79,80
47760,note_on,0,0,5,,,,,,,,0,,,83,80
47760,note_on,21,0,10,,,,,,,,13,,,62,80
47859,note_on,99,0,10,,,,,,,,13,,,74,0
47859,note_on,99,0,8,,,,,,,,11,,,83,0
47859,note_on,99,0,9,,,,,,,,12,,,79,0
47859,note_on,0,0,10,,,,,,,,13,,,62,0
47880,note_on,0,0,10,,,,,,,,13,,,62,80
47880,note_on,21,0,8,,,,,,,,11,,,83,80
47880,note_on,21,0,10,,,,,,,,13,,,74,80
47880,note_on,21,0,9,,,,,,,,12,,,79,80
47979,note_on,219,0,12,,,,,,,,15,,,43,0
47979,note_on,99,0,8,,,,,,,,11,,,83,0
47979,note_on,99,0,9,,,,,,,,12,,,79,0
47979,note_on,219,0,11,,,,,,,,14,,,55,0
47979,note_on,99,0,10,,,,,,,,13,,,62,0
47979,note_on,0,0,10,,,,,,,,13,,,74,0
47999,note_on,239,0,5,,,,,,,,0,,,83,0
47999,note_on,0,0,5,,,,,,,,0,,,79,0
48000,note_on,0,0,10,,,,,,,,13,,,74,44
48000,note_on,21,0,8,,,,,,,,11,,,81,44
48000,note_on,21,0,9,,,,,,,,12,,,78,44
48000,note_on,21,0,10,,,,,,,,13,,,62,44
48000,note_on,21,0,11,,,,,,,,14,,,60,44
48000,note_on,21,0,12,,,,,,,,15,,,48,44
48099,note_on,99,0,9,,,,,,,,12,,,78,0
48099,note_on,0,0,10,,,,,,,,13,,,62,0
48099,note_on,99,0,10,,,,,,,,13,,,74,0
48099,note_on,99,0,8,,,,,,,,11,,,81,0
48120,note_on,21,0,9,,,,,,,,12,,,78,44
48120,note_on,21,0,10,,,,,,,,13,,,62,44
48120,note_on,0,0,10,,,,,,,,13,,,74,44
48120,note_on,21,0,8,,,,,,,,11,,,81,44
48219,note_on,99,0,9,,,,,,,,12,,,78,0
48219,note_on,99,0,10,,,,,,,,13,,,74,0
48219,note_on,0,0,10,,,,,,,,13,,,62,0
48219,note_on,99,0,8,,,,,,,,11,,,81,0
48239,note_on,239,0,11,,,,,,,,14,,,60,0
48239,note_on,239,0,12,,,,,,,,15,,,48,0
48240,note_on,1,0,11,,,,,,,,14,,,59,44
48240,note_on,21,0,10,,,,,,,,13,,,62,44
48240,note_on,0,0,10,,,,,,,,13,,,74,44
48240,note_on,1,0,12,,,,,,,,15,,,47,44
48240,note_on,21,0,9,,,,,,,,12,,,79,44
48240,note_on,21,0,8,,,,,,,,11,,,79,44
48339,note_on,99,0,10,,,,,,,,13,,,74,0
48339,note_on,0,0,10,,,,,,,,13,,,62,0
48339,note_on,99,0,8,,,,,,,,11,,,79,0
48339,note_on,99,0,9,,,,,,,,12,,,79,0
48360,note_on,21,0,8,,,,,,,,11,,,79,44
48360,note_on,21,0,10,,,,,,,,13,,,74,44
48360,note_on,0,0,10,,,,,,,,13,,,62,44
48360,note_on,21,0,9,,,,,,,,12,,,79,44
48459,note_on,99,0,10,,,,,,,,13,,,62,0
48459,note_on,99,0,9,,,,,,,,12,,,79,0
48459,note_on,219,0,11,,,,,,,,14,,,59,0
48459,note_on,0,0,10,,,,,,,,13,,,74,0
48459,note_on,219,0,12,,,,,,,,15,,,47,0
48459,note_on,99,0,8,,,,,,,,11,,,79,0
48480,note_on,21,0,10,,,,,,,,13,,,74,80
48480,note_on,721,0,7,,,,,,,,2,,,74,80
48480,note_on,21,0,12,,,,,,,,15,,,42,80
48480,note_on,21,0,11,,,,,,,,14,,,54,80
48480,note_on,481,0,5,,,,,,,,0,,,81,80
48480,note_on,0,0,10,,,,,,,,13,,,62,80
48480,note_on,21,0,8,,,,,,,,11,,,84,80
48480,note_on,0,0,5,,,,,,,,0,,,84,80
48480,note_on,21,0,9,,,,,,,,12,,,81,80
48480,note_on,721,0,6,,,,,,,,1,,,62,80
48579,note_on,99,0,9,,,,,,,,12,,,81,0
48579,note_on,0,0,10,,,,,,,,13,,,74,0
48579,note_on,99,0,10,,,,,,,,13,,,62,0
48579,note_on,99,0,8,,,,,,,,11,,,84,0
48600,note_on,0,0,10,,,,,,,,13,,,62,80
48600,note_on,21,0,8,,,,,,,,11,,,84,80
48600,note_on,21,0,9,,,,,,,,12,,,81,80
48600,note_on,21,0,10,,,,,,,,13,,,74,80
48699,note_on,99,0,9,,,,,,,,12,,,81,0
48699,note_on,0,0,10,,,,,,,,13,,,74,0
48699,note_on,99,0,10,,,,,,,,13,,,62,0
48699,note_on,99,0,8,,,,,,,,11,,,84,0
48719,note_on,239,0,11,,,,,,,,14,,,54,0
48719,note_on,0,0,5,,,,,,,,0,,,81,0
48719,note_on,239,0,5,,,,,,,,0,,,84,0
48719,note_on,239,0,12,,,,,,,,15,,,42,0
48720,note_on,21,0,9,,,,,,,,12,,,79,80
48720,note_on,1,0,12,,,,,,,,15,,,43,80
48720,note_on,0,0,10,,,,,,,,13,,,62,80
48720,note_on,21,0,8,,,,,,,,11,,,83,80
48720,note_on,1,0,11,,,,,,,,14,,,55,80
48720,note_on,21,0,10,,,,,,,,13,,,74,80
48720,note_on,1,0,5,,,,,,,,0,,,79,80
48720,note_on,0,0,5,,,,,,,,0,,,83,80
48819,note_on,0,0,10,,,,,,,,13,,,74,0
48819,note_on,99,0,10,,,,,,,,13,,,62,0
48819,note_on,99,0,9,,,,,,,,12,,,79,0
48819,note_on,99,0,8,,,,,,,,11,,,83,0
48840,note_on,0,0,10,,,,,,,,13,,,74,80
48840,note_on,21,0,8,,,,,,,,11,,,83,80
48840,note_on,21,0,10,,,,,,,,13,,,62,80
48840,note_on,21,0,9,,,,,,,,12,,,79,80
48939,note_on,99,0,8,,,,,,,,11,,,83,0
48939,note_on,99,0,9,,,,,,,,12,,,79,0
48939,note_on,0,0,5,,,,,,,,0,,,79,0
48939,note_on,0,0,10,,,,,,,,13,,,62,0
48939,note_on,219,0,11,,,,,,,,14,,,55,0
48939,note_on,459,0,6,,,,,,,,1,,,62,0
48939,note_on,219,0,5,,,,,,,,0,,,83,0
48939,note_on,99,0,10,,,,,,,,13,,,74,0
48939,note_on,459,0,7,,,,,,,,2,,,74,0
48939,note_on,219,0,12,,,,,,,,15,,,43,0
48960,note_on,21,0,7,,,,,,,,2,,,67,80
48960,note_on,21,0,6,,,,,,,,1,,,64,80
48960,note_on,0,0,5,,,,,,,,0,,,76,80
48960,note_on,21,0,5,,,,,,,,0,,,81,80
48960,note_on,21,0,11,,,,,,,,14,,,48,80
48960,note_on,21,0,12,,,,,,,,15,,,36,80
48960,note_on,0,0,6,,,,,,,,1,,,60,80
48960,note_on,21,0,9,,,,,,,,12,,,79,80
48960,note_on,21,0,8,,,,,,,,11,,,88,80
48960,note_on,21,0,10,,,,,,,,13,,,72,80
49059,note_on,99,0,10,,,,,,,,13,,,72,0
49059,note_on,99,0,8,,,,,,,,11,,,88,0
49059,note_on,99,0,9,,,,,,,,12,,,79,0
49080,note_on,21,0,9,,,,,,,,12,,,79,80
49080,note_on,21,0,10,,,,,,,,13,,,72,80
49080,note_on,21,0,8,,,,,,,,11,,,88,80
49179,note_on,99,0,10,,,,,,,,13,,,72,0
49179,note_on,219,0,11,,,,,,,,14,,,48,0
49179,note_on,99,0,8,,,,,,,,11,,,88,0
49179,note_on,99,0,9,,,,,,,,12,,,79,0
49179,note_on,219,0,12,,,,,,,,15,,,36,0
49200,note_on,21,0,8,,,,,,,,11,,,84,80
49200,note_on,21,0,12,,,,,,,,15,,,52,80
49200,note_on,21,0,10,,,,,,,,13,,,76,80
49200,note_on,21,0,11,,,,,,,,14,,,64,80
49200,note_on,21,0,9,,,,,,,,12,,,79,80
49299,note_on,99,0,8,,,,,,,,11,,,84,0
49299,note_on,99,0,10,,,,,,,,13,,,76,0
49299,note_on,99,0,9,,,,,,,,12,,,79,0
49320,note_on,21,0,8,,,,,,,,11,,,84,80
49320,note_on,21,0,10,,,,,,,,13,,,76,80
49320,note_on,21,0,9,,,,,,,,12,,,79,80
49419,note_on,99,0,8,,,,,,,,11,,,84,0
49419,note_on,99,0,9,,,,,,,,12,,,79,0
49419,note_on,99,0,10,,,,,,,,13,,,76,0
49439,note_on,239,0,12,,,,,,,,15,,,52,0
49439,note_on,239,0,11,,,,,,,,14,,,64,0
49440,note_on,21,0,10,,,,,,,,13,,,72,80
49440,note_on,1,0,12,,,,,,,,15,,,48,80
49440,note_on,21,0,9,,,,,,,,12,,,79,80
49440,note_on,1,0,11,,,,,,,,14,,,60,80
49440,note_on,21,0,8,,,,,,,,11,,,81,80
49539,note_on,99,0,9,,,,,,,,12,,,79,0
49539,note_on,99,0,10,,,,,,,,13,,,72,0
49539,note_on,99,0,8,,,,,,,,11,,,81,0
49560,note_on,21,0,9,,,,,,,,12,,,79,80
49560,note_on,21,0,10,,,,,,,,13,,,72,80
49560,note_on,21,0,8,,,,,,,,11,,,81,80
49659,note_on,99,0,8,,,,,,,,11,,,81,0
49659,note_on,99,0,9,,,,,,,,12,,,79,0
49659,note_on,0,0,6,,,,,,,,1,,,64,0
49659,note_on,699,0,6,,,,,,,,1,,,60,0
49659,note_on,99,0,10,,,,,,,,13,,,72,0
49679,note_on,239,0,11,,,,,,,,14,,,60,0
49679,note_on,0,0,5,,,,,,,,0,,,81,0
49679,note_on,239,0,12,,,,,,,,15,,,48,0
49679,note_on,719,0,5,,,,,,,,0,,,76,0
49680,note_on,0,0,6,,,,,,,,1,,,67,80
49680,note_on,21,0,6,,,,,,,,1,,,64,80
49680,note_on,1,0,11,,,,,,,,14,,,57,80
49680,note_on,21,0,9,,,,,,,,12,,,79,80
49680,note_on,21,0,8,,,,,,,,11,,,84,80
49680,note_on,1,0,5,,,,,,,,0,,,84,80
49680,note_on,21,0,10,,,,,,,,13,,,69,80
49680,note_on,0,0,5,,,,,,,,0,,,72,80
49680,note_on,1,0,12,,,,,,,,15,,,45,80
49779,note_on,99,0,9,,,,,,,,12,,,79,0
49779,note_on,99,0,10,,,,,,,,13,,,69,0
49779,note_on,99,0,8,,,,,,,,11,,,84,0
49800,note_on,21,0,10,,,,,,,,13,,,69,80
49800,note_on,21,0,8,,,,,,,,11,,,84,80
49800,note_on,21,0,9,,,,,,,,12,,,79,80
49899,note_on,219,0,12,,,,,,,,15,,,45,0
49899,note_on,99,0,8,,,,,,,,11,,,84,0
49899,note_on,0,0,6,,,,,,,,1,,,64,0
49899,note_on,99,0,9,,,,,,,,12,,,79,0
49899,note_on,219,0,6,,,,,,,,1,,,67,0
49899,note_on,99,0,10,,,,,,,,13,,,69,0
49899,note_on,219,0,11,,,,,,,,14,,,57,0
49899,note_on,939,0,7,,,,,,,,2,,,67,0
49899,note_on,219,0,5,,,,,,,,0,,,72,0
49899,note_on,0,0,5,,,,,,,,0,,,84,0
49920,note_on,21,0,8,,,,,,,,11,,,83,80
49920,note_on,0,0,6,,,,,,,,1,,,62,80
49920,note_on,21,0,11,,,,,,,,14,,,62,80
49920,note_on,21,0,7,,,,,,,,2,,,74,80
49920,note_on,21,0,9,,,,,,,,12,,,79,80
49920,note_on,21,0,6,,,,,,,,1,,,67,80
49920,note_on,21,0,5,,,,,,,,0,,,83,80
49920,note_on,0,0,5,,,,,,,,0,,,79,80
49920,note_on,21,0,10,,,,,,,,13,,,74,80
49920,note_on,21,0,12,,,,,,,,15,,,50,80
50019,note_on,99,0,9,,,,,,,,12,,,79,0
50019,note_on,99,0,10,,,,,,,,13,,,74,0
50019,note_on,99,0,8,,,,,,,,11,,,83,0
50040,note_on,21,0,8,,,,,,,,11,,,83,80
50040,note_on,21,0,9,,,,,,,,12,,,79,80
50040,note_on,21,0,10,,,,,,,,13,,,74,80
50139,note_on,99,0,8,,,,,,,,11,,,83,0
50139,note_on,99,0,10,,,,,,,,13,,,74,0
50139,note_on,99,0,9,,,,,,,,12,,,79,0
50160,note_on,21,0,9,,,,,,,,12,,,83,80
50160,note_on,21,0,10,,,,,,,,13,,,74,80
50160,note_on,21,0,8,,,,,,,,11,,,86,80
50259,note_on,99,0,9,,,,,,,,12,,,83,0
50259,note_on,99,0,8,,,,,,,,11,,,86,0
50259,note_on,99,0,10,,,,,,,,13,,,74,0
50280,note_on,21,0,8,,,,,,,,11,,,86,80
50280,note_on,21,0,10,,,,,,,,13,,,74,80
50280,note_on,21,0,9,,,,,,,,12,,,83,80
50379,note_on,459,0,5,,,,,,,,0,,,79,0
50379,note_on,459,0,6,,,,,,,,1,,,67,0
50379,note_on,459,0,11,,,,,,,,14,,,62,0
50379,note_on,99,0,10,,,,,,,,13,,,74,0
50379,note_on,99,0,8,,,,,,,,11,,,86,0
50379,note_on,459,0,12,,,,,,,,15,,,50,0
50379,note_on,99,0,9,,,,,,,,12,,,83,0
50379,note_on,0,0,5,,,,,,,,0,,,83,0
50400,note_on,21,0,8,,,,,,,,11,,,84,80
50400,note_on,0,0,5,,,,,,,,0,,,81,80
50400,note_on,21,0,5,,,,,,,,0,,,78,80
50400,note_on,21,0,9,,,,,,,,12,,,81,80
50400,note_on,21,0,12,,,,,,,,15,,,38,80
50400,note_on,21,0,6,,,,,,,,1,,,66,80
50400,note_on,21,0,10,,,,,,,,13,,,62,80
50400,note_on,21,0,11,,,,,,,,14,,,50,80
50499,note_on,99,0,8,,,,,,,,11,,,84,0
50499,note_on,99,0,9,,,,,,,,12,,,81,0
50499,note_on,99,0,10,,,,,,,,13,,,62,0
50520,note_on,21,0,10,,,,,,,,13,,,62,80
50520,note_on,21,0,8,,,,,,,,11,,,84,80
50520,note_on,21,0,9,,,,,,,,12,,,81,80
50619,note_on,99,0,8,,,,,,,,11,,,84,0
50619,note_on,99,0,9,,,,,,,,12,,,81,0
50619,note_on,99,0,10,,,,,,,,13,,,62,0
50640,note_on,21,0,9,,,,,,,,12,,,78,80
50640,note_on,21,0,8,,,,,,,,11,,,81,80
50640,note_on,21,0,10,,,,,,,,13,,,62,80
50739,note_on,99,0,9,,,,,,,,12,,,78,0
50739,note_on,99,0,10,,,,,,,,13,,,62,0
50739,note_on,99,0,8,,,,,,,,11,,,81,0
50760,note_on,21,0,10,,,,,,,,13,,,62,80
50760,note_on,21,0,9,,,,,,,,12,,,78,80
50760,note_on,21,0,8,,,,,,,,11,,,81,80
50859,note_on,939,0,7,,,,,,,,2,,,74,0
50859,note_on,99,0,9,,,,,,,,12,,,78,0
50859,note_on,0,0,6,,,,,,,,1,,,62,0
50859,note_on,459,0,6,,,,,,,,1,,,66,0
50859,note_on,459,0,5,,,,,,,,0,,,81,0
50859,note_on,0,0,5,,,,,,,,0,,,78,0
50859,note_on,99,0,10,,,,,,,,13,,,62,0
50859,note_on,459,0,12,,,,,,,,15,,,38,0
50859,note_on,99,0,8,,,,,,,,11,,,81,0
50859,note_on,459,0,11,,,,,,,,14,,,50,0
50880,note_on,21,0,7,,,,,,,,2,,,67,80
50880,note_on,21,0,11,,,,,,,,14,,,55,80
50880,note_on,21,0,12,,,,,,,,15,,,43,80
50880,note_on,21,0,5,,,,,,,,0,,,79,80
50880,note_on,0,0,7,,,,,,,,2,,,74,80
50880,note_on,21,0,8,,,,,,,,11,,,79,80
50880,note_on,21,0,10,,,,,,,,13,,,55,80
50880,note_on,0,0,6,,,,,,,,1,,,67,80
50880,note_on,21,0,6,,,,,,,,1,,,55,80
50880,note_on,21,0,9,,,,,,,,12,,,79,80
50979,note_on,99,0,9,,,,,,,,12,,,79,0
51000,note_on,21,0,9,,,,,,,,12,,,62,44
51099,note_on,99,0,9,,,,,,,,12,,,62,0
51119,note_on,0,0,7,,,,,,,,2,,,67,0
51119,note_on,239,0,6,,,,,,,,1,,,67,0
51119,note_on,0,0,6,,,,,,,,1,,,55,0
51119,note_on,239,0,11,,,,,,,,14,,,55,0
51119,note_on,239,0,10,,,,,,,,13,,,55,0
51119,note_on,239,0,12,,,,,,,,15,,,43,0
51119,note_on,239,0,8,,,,,,,,11,,,79,0
51119,note_on,239,0,5,,,,,,,,0,,,79,0
51119,note_on,239,0,7,,,,,,,,2,,,74,0
51120,note_on,21,0,9,,,,,,,,12,,,62,44
51219,note_on,99,0,9,,,,,,,,12,,,62,0
51240,note_on,21,0,9,,,,,,,,12,,,62,44
51339,note_on,99,0,9,,,,,,,,12,,,62,0
51360,note_on,241,0,8,,,,,,,,11,,,72,44
51360,note_on,241,0,10,,,,,,,,13,,,54,44
51360,note_on,21,0,9,,,,,,,,12,,,69,44
51479,note_on,119,0,9,,,,,,,,12,,,69,0
51480,note_on,1,0,9,,,,,,,,12,,,62,44
51599,note_on,119,0,9,,,,,,,,12,,,62,0
51599,note_on,239,0,10,,,,,,,,13,,,54,0
51599,note_on,239,0,8,,,,,,,,11,,,72,0
51600,note_on,1,0,10,,,,,,,,13,,,55,44
51600,note_on,1,0,9,,,,,,,,12,,,67,44
51600,note_on,1,0,8,,,,,,,,11,,,71,44
51719,note_on,119,0,9,,,,,,,,12,,,67,0
51720,note_on,1,0,9,,,,,,,,12,,,62,44
51819,note_on,99,0,9,,,,,,,,12,,,62,0
51839,note_on,239,0,8,,,,,,,,11,,,71,0
51839,note_on,239,0,10,,,,,,,,13,,,55,0
51840,note_on,1,0,8,,,,,,,,11,,,69,44
51840,note_on,1,0,10,,,,,,,,13,,,60,44
51840,note_on,21,0,9,,,,,,,,12,,,66,44
51959,note_on,119,0,9,,,,,,,,12,,,66,0
51960,note_on,1,0,9,,,,,,,,12,,,62,44
52079,note_on,239,0,8,,,,,,,,11,,,69,0
52079,note_on,119,0,9,,,,,,,,12,,,62,0
52079,note_on,239,0,10,,,,,,,,13,,,60,0
52080,note_on,1,0,9,,,,,,,,12,,,67,44
52080,note_on,1,0,10,,,,,,,,13,,,59,44
52080,note_on,1,0,8,,,,,,,,11,,,67,44
52199,note_on,119,0,9,,,,,,,,12,,,67,0
52200,note_on,1,0,9,,,,,,,,12,,,62,44
52299,note_on,99,0,9,,,,,,,,12,,,62,0
52299,note_on,219,0,8,,,,,,,,11,,,67,0
52299,note_on,219,0,10,,,,,,,,13,,,59,0
52320,note_on,21,0,10,,,,,,,,13,,,54,44
52320,note_on,21,0,9,,,,,,,,12,,,69,44
52320,note_on,21,0,8,,,,,,,,11,,,72,44
52419,note_on,99,0,9,,,,,,,,12,,,69,0
52440,note_on,21,0,9,,,,,,,,12,,,62,44
52539,note_on,99,0,9,,,,,,,,12,,,62,0
52559,note_on,239,0,8,,,,,,,,11,,,72,0
52559,note_on,239,0,10,,,,,,,,13,,,54,0
52560,note_on,21,0,9,,,,,,,,12,,,67,44
52560,note_on,1,0,8,,,,,,,,11,,,71,44
52560,note_on,1,0,10,,,,,,,,13,,,55,44
52659,note_on,99,0,9,,,,,,,,12,,,67,0
52680,note_on,21,0,9,,,,,,,,12,,,62,44
52779,note_on,99,0,9,,,,,,,,12,,,62,0
52799,note_on,239,0,8,,,,,,,,11,,,71,0
52799,note_on,239,0,10,,,,,,,,13,,,55,0
52800,note_on,1,0,8,,,,,,,,11,,,69,44
52800,note_on,1,0,10,,,,,,,,13,,,60,44
52800,note_on,21,0,9,,,,,,,,12,,,66,44
52899,note_on,99,0,9,,,,,,,,12,,,66,0
52920,note_on,21,0,9,,,,,,,,12,,,62,44
53019,note_on,99,0,9,,,,,,,,12,,,62,0
53039,note_on,239,0,10,,,,,,,,13,,,60,0
53039,note_on,239,0,8,,,,,,,,11,,,69,0
53040,note_on,1,0,10,,,,,,,,13,,,59,44
53040,note_on,1,0,8,,,,,,,,11,,,67,44
53040,note_on,21,0,9,,,,,,,,12,,,67,44
53139,note_on,99,0,9,,,,,,,,12,,,67,0
53160,note_on,21,0,9,,,,,,,,12,,,62,44
53259,note_on,219,0,8,,,,,,,,11,,,67,0
53259,note_on,99,0,9,,,,,,,,12,,,62,0
53259,note_on,219,0,10,,,,,,,,13,,,59,0
53280,note_on,21,0,9,,,,,,,,12,,,69,44
53280,note_on,21,0,10,,,,,,,,13,,,54,44
53280,note_on,21,0,8,,,,,,,,11,,,72,44
53379,note_on,99,0,9,,,,,,,,12,,,69,0
53400,note_on,21,0,9,,,,,,,,12,,,62,44
53499,note_on,99,0,9,,,,,,,,12,,,62,0
53519,note_on,239,0,10,,,,,,,,13,,,54,0
53519,note_on,239,0,8,,,,,,,,11,,,72,0
53520,note_on,1,0,10,,,,,,,,13,,,55,44
53520,note_on,1,0,8,,,,,,,,11,,,71,44
53520,note_on,21,0,9,,,,,,,,12,,,67,44
53619,note_on,99,0,9,,,,,,,,12,,,67,0
53640,note_on,21,0,9,,,,,,,,12,,,62,44
53739,note_on,99,0,9,,,,,,,,12,,,62,0
53759,note_on,239,0,8,,,,,,,,11,,,71,0
53759,note_on,239,0,10,,,,,,,,13,,,55,0
53760,note_on,21,0,9,,,,,,,,12,,,66,44
53760,note_on,1,0,8,,,,,,,,11,,,69,44
53760,note_on,1,0,10,,,,,,,,13,,,60,44
53859,note_on,99,0,9,,,,,,,,12,,,66,0
53880,note_on,21,0,9,,,,,,,,12,,,62,44
53979,note_on,99,0,9,,,,,,,,12,,,62,0
53999,note_on,239,0,10,,,,,,,,13,,,60,0
53999,note_on,239,0,8,,,,,,,,11,,,69,0
54000,note_on,1,0,8,,,,,,,,11,,,67,44
54000,note_on,21,0,9,,,,,,,,12,,,67,44
54000,note_on,1,0,10,,,,,,,,13,,,59,44
54099,note_on,99,0,9,,,,,,,,12,,,67,0
54120,note_on,21,0,9,,,,,,,,12,,,62,44
54219,note_on,219,0,8,,,,,,,,11,,,67,0
54219,note_on,99,0,9,,,,,,,,12,,,62,0
54219,note_on,219,0,10,,,,,,,,13,,,59,0
54240,note_on,21,0,9,,,,,,,,12,,,69,44
54240,note_on,21,0,10,,,,,,,,13,,,54,44
54240,note_on,21,0,8,,,,,,,,11,,,72,44
54339,note_on,99,0,9,,,,,,,,12,,,69,0
54360,note_on,21,0,9,,,,,,,,12,,,62,44
54459,note_on,99,0,9,,,,,,,,12,,,62,0
54479,note_on,239,0,10,,,,,,,,13,,,54,0
54479,note_on,239,0,8,,,,,,,,11,,,72,0
54480,note_on,1,0,8,,,,,,,,11,,,71,44
54480,note_on,21,0,9,,,,,,,,12,,,67,44
54480,note_on,1,0,10,,,,,,,,13,,,55,44
54579,note_on,99,0,9,,,,,,,,12,,,67,0
54600,note_on,21,0,9,,,,,,,,12,,,62,44
54699,note_on,219,0,10,,,,,,,,13,,,55,0
54699,note_on,219,0,8,,,,,,,,11,,,71,0
54699,note_on,99,0,9,,,,,,,,12,,,62,0
54720,note_on,21,0,10,,,,,,,,13,,,48,44
54720,note_on,21,0,9,,,,,,,,12,,,67,44
54720,note_on,21,0,8,,,,,,,,11,,,76,44
54959,note_on,239,0,8,,,,,,,,11,,,76,0
54959,note_on,239,0,9,,,,,,,,12,,,67,0
54960,note_on,1,0,9,,,,,,,,12,,,64,44
54960,note_on,1,0,8,,,,,,,,11,,,72,44
55199,note_on,239,0,9,,,,,,,,12,,,64,0
55199,note_on,239,0,8,,,,,,,,11,,,72,0
55200,note_on,1,0,8,,,,,,,,11,,,69,44
55200,note_on,1,0,9,,,,,,,,12,,,60,44
55419,note_on,219,0,8,,,,,,,,11,,,69,0
55439,note_on,239,0,9,,,,,,,,12,,,60,0
55440,note_on,1,0,9,,,,,,,,12,,,57,44
55440,note_on,21,0,8,,,,,,,,11,,,72,44
55559,note_on,119,0,8,,,,,,,,11,,,72,0
55659,note_on,219,0,9,,,,,,,,12,,,57,0
55659,note_on,939,0,10,,,,,,,,13,,,48,0
55680,note_on,21,0,9,,,,,,,,12,,,55,44
55680,note_on,121,0,8,,,,,,,,11,,,71,44
55680,note_on,21,0,10,,,,,,,,13,,,50,44
55919,note_on,239,0,9,,,,,,,,12,,,55,0
55919,note_on,239,0,8,,,,,,,,11,,,71,0
55920,note_on,1,0,8,,,,,,,,11,,,74,44
55920,note_on,1,0,9,,,,,,,,12,,,59,44
56139,note_on,459,0,10,,,,,,,,13,,,50,0
56139,note_on,219,0,9,,,,,,,,12,,,59,0
56139,note_on,219,0,8,,,,,,,,11,,,74,0
56160,note_on,21,0,9,,,,,,,,12,,,57,44
56160,note_on,21,0,10,,,,,,,,13,,,50,44
56160,note_on,21,0,8,,,,,,,,11,,,66,44
56399,note_on,239,0,9,,,,,,,,12,,,57,0
56399,note_on,239,0,8,,,,,,,,11,,,66,0
56400,note_on,1,0,9,,,,,,,,12,,,60,44
56400,note_on,1,0,8,,,,,,,,11,,,69,44
56619,note_on,459,0,10,,,,,,,,13,,,50,0
56619,note_on,219,0,8,,,,,,,,11,,,69,0
56619,note_on,219,0,9,,,,,,,,12,,,60,0
56640,note_on,5521,0,12,,,,,,,,15,,,43,80
56640,note_on,5521,0,11,,,,,,,,14,,,55,80
56640,note_on,21,0,9,,,,,,,,12,,,59,80
56640,note_on,5521,0,6,,,,,,,,1,,,55,80
56640,note_on,0,0,6,,,,,,,,1,,,67,80
56640,note_on,5521,0,5,,,,,,,,0,,,79,80
56640,note_on,21,0,8,,,,,,,,11,,,67,80
56640,note_on,21,0,10,,,,,,,,13,,,67,80
56640,note_on,5521,0,7,,,,,,,,2,,,67,80
56739,note_on,99,0,12,,,,,,,,15,,,43,0
56739,note_on,99,0,10,,,,,,,,13,,,67,0
56739,note_on,99,0,11,,,,,,,,14,,,55,0
56739,note_on,99,0,8,,,,,,,,11,,,67,0
56760,note_on,21,0,10,,,,,,,,13,,,69,80
56760,note_on,21,0,12,,,,,,,,15,,,45,80
56760,note_on,21,0,11,,,,,,,,14,,,57,80
56760,note_on,21,0,8,,,,,,,,11,,,69,80
56859,note_on,99,0,12,,,,,,,,15,,,45,0
56859,note_on,99,0,8,,,,,,,,11,,,69,0
56859,note_on,99,0,11,,,,,,,,14,,,57,0
56859,note_on,99,0,10,,,,,,,,13,,,69,0
56859,note_on,219,0,9,,,,,,,,12,,,59,0
56880,note_on,21,0,10,,,,,,,,13,,,71,80
56880,note_on,21,0,8,,,,,,,,11,,,71,80
56880,note_on,21,0,11,,,,,,,,14,,,59,80
56880,note_on,21,0,12,,,,,,,,15,,,47,80
56880,note_on,21,0,9,,,,,,,,12,,,71,80
56979,note_on,99,0,10,,,,,,,,13,,,71,0
56979,note_on,99,0,8,,,,,,,,11,,,71,0
56979,note_on,99,0,11,,,,,,,,14,,,59,0
56979,note_on,99,0,12,,,,,,,,15,,,47,0
56979,note_on,99,0,9,,,,,,,,12,,,71,0
57000,note_on,21,0,8,,,,,,,,11,,,67,80
57000,note_on,21,0,11,,,,,,,,14,,,55,80
57000,note_on,21,0,12,,,,,,,,15,,,43,80
57000,note_on,21,0,10,,,,,,,,13,,,67,80
57000,note_on,21,0,9,,,,,,,,12,,,67,80
57099,note_on,99,0,9,,,,,,,,12,,,67,0
57099,note_on,99,0,8,,,,,,,,11,,,67,0
57099,note_on,459,0,6,,,,,,,,1,,,67,0
57099,note_on,0,0,6,,,,,,,,1,,,55,0
57099,note_on,99,0,10,,,,,,,,13,,,67,0
57099,note_on,459,0,7,,,,,,,,2,,,67,0
57099,note_on,99,0,12,,,,,,,,15,,,43,0
57099,note_on,99,0,11,,,,,,,,14,,,55,0
57099,note_on,459,0,5,,,,,,,,0,,,79,0
57120,note_on,21,0,8,,,,,,,,11,,,62,80
57120,note_on,21,0,10,,,,,,,,13,,,62,80
57120,note_on,21,0,12,,,,,,,,15,,,38,80
57120,note_on,21,0,6,,,,,,,,1,,,62,80
57120,note_on,21,0,5,,,,,,,,0,,,74,80
57120,note_on,21,0,7,,,,,,,,2,,,74,80
57120,note_on,21,0,9,,,,,,,,12,,,62,80
57120,note_on,21,0,11,,,,,,,,14,,,50,80
57219,note_on,99,0,12,,,,,,,,15,,,38,0
57219,note_on,99,0,11,,,,,,,,14,,,50,0
57219,note_on,99,0,8,,,,,,,,11,,,62,0
57219,note_on,99,0,10,,,,,,,,13,,,62,0
57219,note_on,99,0,9,,,,,,,,12,,,62,0
57240,note_on,21,0,9,,,,,,,,12,,,64,80
57240,note_on,21,0,8,,,,,,,,11,,,64,80
57240,note_on,21,0,11,,,,,,,,14,,,52,80
57240,note_on,21,0,10,,,,,,,,13,,,64,80
57240,note_on,21,0,12,,,,,,,,15,,,40,80
57339,note_on,99,0,12,,,,,,,,15,,,40,0
57339,note_on,99,0,8,,,,,,,,11,,,64,0
57339,note_on,99,0,11,,,,,,,,14,,,52,0
57339,note_on,99,0,9,,,,,,,,12,,,64,0
57339,note_on,99,0,10,,,,,,,,13,,,64,0
57360,note_on,21,0,12,,,,,,,,15,,,42,80
57360,note_on,21,0,9,,,,,,,,12,,,66,80
57360,note_on,21,0,10,,,,,,,,13,,,66,80
57360,note_on,21,0,11,,,,,,,,14,,,54,80
57360,note_on,21,0,8,,,,,,,,11,,,66,80
57459,note_on,99,0,11,,,,,,,,14,,,54,0
57459,note_on,99,0,9,,,,,,,,12,,,66,0
57459,note_on,99,0,10,,,,,,,,13,,,66,0
57459,note_on,99,0,8,,,,,,,,11,,,66,0
57459,note_on,99,0,12,,,,,,,,15,,,42,0
57480,note_on,21,0,10,,,,,,,,13,,,62,80
57480,note_on,21,0,8,,,,,,,,11,,,62,80
57480,note_on,21,0,12,,,,,,,,15,,,38,80
57480,note_on,21,0,11,,,,,,,,14,,,50,80
57480,note_on,21,0,9,,,,,,,,12,,,62,80
57579,note_on,459,0,7,,,,,,,,2,,,74,0
57579,note_on,99,0,10,,,,,,,,13,,,62,0
57579,note_on,99,0,12,,,,,,,,15,,,38,0
57579,note_on,459,0,5,,,,,,,,0,,,74,0
57579,note_on,99,0,11,,,,,,,,14,,,50,0
57579,note_on,99,0,8,,,,,,,,11,,,62,0
57579,note_on,99,0,9,,,,,,,,12,,,62,0
57579,note_on,459,0,6,,,,,,,,1,,,62,0
57600,note_on,21,0,6,,,,,,,,1,,,55,80
57600,note_on,21,0,9,,,,,,,,12,,,67,80
57600,note_on,21,0,10,,,,,,,,13,,,67,80
57600,note_on,21,0,5,,,,,,,,0,,,79,80
57600,note_on,21,0,11,,,,,,,,14,,,55,80
57600,note_on,0,0,6,,,,,,,,1,,,67,80
57600,note_on,21,0,8,,,,,,,,11,,,67,80
57600,note_on,21,0,7,,,,,,,,2,,,67,80
57600,note_on,21,0,12,,,,,,,,15,,,43,80
57699,note_on,99,0,9,,,,,,,,12,,,67,0
57699,note_on,99,0,11,,,,,,,,14,,,55,0
57699,note_on,99,0,12,,,,,,,,15,,,43,0
57699,note_on,99,0,10,,,,,,,,13,,,67,0
57699,note_on,99,0,8,,,,,,,,11,,,67,0
57720,note_on,21,0,12,,,,,,,,15,,,45,80
57720,note_on,21,0,9,,,,,,,,12,,,69,80
57720,note_on,21,0,10,,,,,,,,13,,,69,80
57720,note_on,21,0,8,,,,,,,,11,,,69,80
57720,note_on,21,0,11,,,,,,,,14,,,57,80
57819,note_on,99,0,12,,,,,,,,15,,,45,0
57819,note_on,99,0,9,,,,,,,,12,,,69,0
57819,note_on,99,0,8,,,,,,,,11,,,69,0
57819,note_on,99,0,11,,,,,,,,14,,,57,0
57819,note_on,99,0,10,,,,,,,,13,,,69,0
57840,note_on,21,0,10,,,,,,,,13,,,71,80
57840,note_on,21,0,11,,,,,,,,14,,,59,80
57840,note_on,21,0,9,,,,,,,,12,,,71,80
57840,note_on,21,0,8,,,,,,,,11,,,71,80
57840,note_on,21,0,12,,,,,,,,15,,,47,80
57939,note_on,99,0,10,,,,,,,,13,,,71,0
57939,note_on,99,0,9,,,,,,,,12,,,71,0
57939,note_on,99,0,8,,,,,,,,11,,,71,0
57939,note_on,99,0,11,,,,,,,,14,,,59,0
57939,note_on,99,0,12,,,,,,,,15,,,47,0
57960,note_on,21,0,8,,,,,,,,11,,,67,80
57960,note_on,21,0,9,,,,,,,,12,,,67,80
57960,note_on,21,0,10,,,,,,,,13,,,67,80
57960,note_on,21,0,11,,,,,,,,14,,,55,80
57960,note_on,21,0,12,,,,,,,,15,,,43,80
58059,note_on,99,0,8,,,,,,,,11,,,67,0
58059,note_on,459,0,6,,,,,,,,1,,,67,0
58059,note_on,0,0,6,,,,,,,,1,,,55,0
58059,note_on,99,0,11,,,,,,,,14,,,55,0
58059,note_on,99,0,12,,,,,,,,15,,,43,0
58059,note_on,459,0,7,,,,,,,,2,,,67,0
58059,note_on,459,0,5,,,,,,,,0,,,79,0
58059,note_on,99,0,10,,,,,,,,13,,,67,0
58059,note_on,99,0,9,,,,,,,,12,,,67,0
58080,note_on,21,0,8,,,,,,,,11,,,62,80
58080,note_on,21,0,6,,,,,,,,1,,,62,80
58080,note_on,21,0,11,,,,,,,,14,,,50,80
58080,note_on,21,0,5,,,,,,,,0,,,74,80
58080,note_on,21,0,10,,,,,,,,13,,,62,80
58080,note_on,21,0,12,,,,,,,,15,,,38,80
58080,note_on,21,0,9,,,,,,,,12,,,62,80
58080,note_on,21,0,7,,,,,,,,2,,,74,80
58179,note_on,99,0,11,,,,,,,,14,,,50,0
58179,note_on,99,0,8,,,,,,,,11,,,62,0
58179,note_on,99,0,12,,,,,,,,15,,,38,0
58179,note_on,99,0,9,,,,,,,,12,,,62,0
58179,note_on,99,0,10,,,,,,,,13,,,62,0
58200,note_on,21,0,12,,,,,,,,15,,,40,80
58200,note_on,21,0,9,,,,,,,,12,,,64,80
58200,note_on,21,0,8,,,,,,,,11,,,64,80
58200,note_on,21,0,11,,,,,,,,14,,,52,80
58200,note_on,21,0,10,,,,,,,,13,,,64,80
58299,note_on,99,0,11,,,,,,,,14,,,52,0
58299,note_on,99,0,12,,,,,,,,15,,,40,0
58299,note_on,99,0,10,,,,,,,,13,,,64,0
58299,note_on,99,0,9,,,,,,,,12,,,64,0
58299,note_on,99,0,8,,,,,,,,11,,,64,0
58320,note_on,21,0,9,,,,,,,,12,,,66,80
58320,note_on,21,0,11,,,,,,,,14,,,54,80
58320,note_on,21,0,12,,,,,,,,15,,,42,80
58320,note_on,21,0,8,,,,,,,,11,,,66,80
58320,note_on,21,0,10,,,,,,,,13,,,66,80
58419,note_on,99,0,8,,,,,,,,11,,,66,0
58419,note_on,99,0,10,,,,,,,,13,,,66,0
58419,note_on,99,0,11,,,,,,,,14,,,54,0
58419,note_on,99,0,12,,,,,,,,15,,,42,0
58419,note_on,99,0,9,,,,,,,,12,,,66,0
58440,note_on,21,0,9,,,,,,,,12,,,62,80
58440,note_on,21,0,8,,,,,,,,11,,,62,80
58440,note_on,21,0,11,,,,,,,,14,,,50,80
58440,note_on,21,0,10,,,,,,,,13,,,62,80
58440,note_on,21,0,12,,,,,,,,15,,,38,80
58539,note_on,99,0,12,,,,,,,,15,,,38,0
58539,note_on,99,0,8,,,,,,,,11,,,62,0
58539,note_on,99,0,11,,,,,,,,14,,,50,0
58539,note_on,99,0,10,,,,,,,,13,,,62,0
58539,note_on,99,0,9,,,,,,,,12,,,62,0
58559,note_on,479,0,7,,,,,,,,2,,,74,0
58559,note_on,479,0,6,,,,,,,,1,,,62,0
58559,note_on,479,0,5,,,,,,,,0,,,74,0
58560,note_on,21,0,9,,,,,,,,12,,,59,44
58560,note_on,21,0,10,,,,,,,,13,,,67,44
58560,note_on,21,0,8,,,,,,,,11,,,67,44
58560,note_on,21,0,11,,,,,,,,14,,,55,44
58560,note_on,21,0,12,,,,,,,,15,,,43,44
58679,note_on,119,0,9,,,,,,,,12,,,59,0
58679,note_on,119,0,8,,,,,,,,11,,,67,0
58680,note_on,1,0,9,,,,,,,,12,,,62,44
58680,note_on,1,0,8,,,,,,,,11,,,71,44
58799,note_on,119,0,8,,,,,,,,11,,,71,0
58799,note_on,119,0,9,,,,,,,,12,,,62,0
58800,note_on,1,0,8,,,,,,,,11,,,74,44
58800,note_on,1,0,9,,,,,,,,12,,,59,44
58899,note_on,99,0,8,,,,,,,,11,,,74,0
58919,note_on,119,0,9,,,,,,,,12,,,59,0
58920,note_on,21,0,8,,,,,,,,11,,,79,44
58920,note_on,1,0,9,,,,,,,,12,,,62,44
59009,note_on,89,0,8,,,,,,,,11,,,79,0
59019,note_on,99,0,9,,,,,,,,12,,,62,0
59040,note_on,21,0,9,,,,,,,,12,,,59,44
59040,note_on,31,0,8,,,,,,,,11,,,83,44
59159,note_on,119,0,9,,,,,,,,12,,,59,0
59159,note_on,119,0,8,,,,,,,,11,,,83,0
59160,note_on,1,0,8,,,,,,,,11,,,79,44
59160,note_on,1,0,9,,,,,,,,12,,,62,44
59259,note_on,99,0,8,,,,,,,,11,,,79,0
59279,note_on,119,0,9,,,,,,,,12,,,62,0
59280,note_on,21,0,8,,,,,,,,11,,,83,44
59280,note_on,1,0,9,,,,,,,,12,,,59,44
59399,note_on,119,0,9,,,,,,,,12,,,59,0
59399,note_on,119,0,8,,,,,,,,11,,,83,0
59400,note_on,1,0,8,,,,,,,,11,,,79,44
59400,note_on,1,0,9,,,,,,,,12,,,62,44
59499,note_on,99,0,8,,,,,,,,11,,,79,0
59499,note_on,99,0,9,,,,,,,,12,,,62,0
59499,note_on,939,0,10,,,,,,,,13,,,67,0
59499,note_on,939,0,11,,,,,,,,14,,,55,0
59499,note_on,939,0,12,,,,,,,,15,,,43,0
59520,note_on,21,0,12,,,,,,,,15,,,38,44
59520,note_on,21,0,10,,,,,,,,13,,,62,44
59520,note_on,21,0,8,,,,,,,,11,,,79,44
59520,note_on,21,0,11,,,,,,,,14,,,50,44
59520,note_on,21,0,9,,,,,,,,12,,,60,44
59579,note_on,59,0,8,,,,,,,,11,,,79,0
59580,note_on,1,0,8,,,,,,,,11,,,78,44
59639,note_on,119,0,9,,,,,,,,12,,,60,0
59640,note_on,1,0,9,,,,,,,,12,,,62,44
59739,note_on,159,0,8,,,,,,,,11,,,78,0
59759,note_on,119,0,9,,,,,,,,12,,,62,0
59760,note_on,21,0,8,,,,,,,,11,,,76,44
59760,note_on,1,0,9,,,,,,,,12,,,60,44
59859,note_on,99,0,8,,,,,,,,11,,,76,0
59879,note_on,119,0,9,,,,,,,,12,,,60,0
59880,note_on,1,0,9,,,,,,,,12,,,62,44
59880,note_on,21,0,8,,,,,,,,11,,,74,44
59979,note_on,99,0,9,,,,,,,,12,,,62,0
59979,note_on,99,0,8,,,,,,,,11,,,74,0
60000,note_on,21,0,8,,,,,,,,11,,,74,44
60000,note_on,21,0,9,,,,,,,,12,,,57,44
60059,note_on,59,0,8,,,,,,,,11,,,74,0
60060,note_on,1,0,8,,,,,,,,11,,,72,44
60119,note_on,119,0,9,,,,,,,,12,,,57,0
60120,note_on,1,0,9,,,,,,,,12,,,66,44
60219,note_on,159,0,8,,,,,,,,11,,,72,0
60239,note_on,119,0,9,,,,,,,,12,,,66,0
60240,note_on,1,0,9,,,,,,,,12,,,57,44
60240,note_on,21,0,8,,,,,,,,11,,,71,44
60339,note_on,99,0,8,,,,,,,,11,,,71,0
60359,note_on,119,0,9,,,,,,,,12,,,57,0
60360,note_on,21,0,8,,,,,,,,11,,,69,44
60360,note_on,1,0,9,,,,,,,,12,,,66,44
60459,note_on,99,0,8,,,,,,,,11,,,69,0
60459,note_on,939,0,12,,,,,,,,15,,,38,0
60459,note_on,939,0,10,,,,,,,,13,,,62,0
60459,note_on,99,0,9,,,,,,,,12,,,66,0
60459,note_on,939,0,11,,,,,,,,14,,,50,0
60480,note_on,21,0,10,,,,,,,,13,,,67,80
60480,note_on,1921,0,6,,,,,,,,1,,,67,80
60480,note_on,0,0,6,,,,,,,,1,,,55,80
60480,note_on,21,0,8,,,,,,,,11,,,67,80
60480,note_on,21,0,12,,,,,,,,15,,,43,80
60480,note_on,1921,0,5,,,,,,,,0,,,79,80
60480,note_on,21,0,11,,,,,,,,14,,,55,80
60480,note_on,21,0,9,,,,,,,,12,,,67,80
60480,note_on,1921,0,7,,,,,,,,2,,,67,80
60579,note_on,99,0,10,,,,,,,,13,,,67,0
60579,note_on,99,0,11,,,,,,,,14,,,55,0
60579,note_on,99,0,9,,,,,,,,12,,,67,0
60579,note_on,99,0,12,,,,,,,,15,,,43,0
60579,note_on,99,0,8,,,,,,,,11,,,67,0
60600,note_on,21,0,9,,,,,,,,12,,,69,80
60600,note_on,21,0,10,,,,,,,,13,,,69,80
60600,note_on,21,0,12,,,,,,,,15,,,45,80
60600,note_on,21,0,8,,,,,,,,11,,,69,80
60600,note_on,21,0,11,,,,,,,,14,,,57,80
60699,note_on,99,0,11,,,,,,,,14,,,57,0
60699,note_on,99,0,10,,,,,,,,13,,,69,0
60699,note_on,99,0,12,,,,,,,,15,,,45,0
60699,note_on,99,0,9,,,,,,,,12,,,69,0
60699,note_on,99,0,8,,,,,,,,11,,,69,0
60720,note_on,21,0,12,,,,,,,,15,,,47,80
60720,note_on,21,0,8,,,,,,,,11,,,71,80
60720,note_on,21,0,10,,,,,,,,13,,,71,80
60720,note_on,21,0,9,,,,,,,,12,,,71,80
60720,note_on,21,0,11,,,,,,,,14,,,59,80
60819,note_on,99,0,8,,,,,,,,11,,,71,0
60819,note_on,99,0,9,,,,,,,,12,,,71,0
60819,note_on,99,0,11,,,,,,,,14,,,59,0
60819,note_on,99,0,12,,,,,,,,15,,,47,0
60819,note_on,99,0,10,,,,,,,,13,,,71,0
60840,note_on,21,0,9,,,,,,,,12,,,67,80
60840,note_on,21,0,10,,,,,,,,13,,,67,80
60840,note_on,21,0,8,,,,,,,,11,,,67,80
60840,note_on,21,0,11,,,,,,,,14,,,55,80
60840,note_on,21,0,12,,,,,,,,15,,,43,80
60939,note_on,99,0,10,,,,,,,,13,,,67,0
60939,note_on,0,0,6,,,,,,,,1,,,67,0
60939,note_on,99,0,12,,,,,,,,15,,,43,0
60939,note_on,99,0,8,,,,,,,,11,,,67,0
60939,note_on,459,0,5,,,,,,,,0,,,79,0
60939,note_on,459,0,7,,,,,,,,2,,,67,0
60939,note_on,99,0,9,,,,,,,,12,,,67,0
60939,note_on,459,0,6,,,,,,,,1,,,55,0
60939,note_on,99,0,11,,,,,,,,14,,,55,0
60960,note_on,21,0,12,,,,,,,,15,,,38,80
60960,note_on,21,0,6,,,,,,,,1,,,62,80
60960,note_on,21,0,9,,,,,,,,12,,,62,80
60960,note_on,21,0,10,,,,,,,,13,,,62,80
60960,note_on,21,0,8,,,,,,,,11,,,62,80
60960,note_on,21,0,7,,,,,,,,2,,,74,80
60960,note_on,21,0,5,,,,,,,,0,,,74,80
60960,note_on,21,0,11,,,,,,,,14,,,50,80
61059,note_on,99,0,9,,,,,,,,12,,,62,0
61059,note_on,99,0,10,,,,,,,,13,,,62,0
61059,note_on,99,0,11,,,,,,,,14,,,50,0
61059,note_on,99,0,12,,,,,,,,15,,,38,0
61059,note_on,99,0,8,,,,,,,,11,,,62,0
61080,note_on,21,0,9,,,,,,,,12,,,64,80
61080,note_on,21,0,8,,,,,,,,11,,,64,80
61080,note_on,21,0,11,,,,,,,,14,,,52,80
61080,note_on,21,0,10,,,,,,,,13,,,64,80
61080,note_on,21,0,12,,,,,,,,15,,,40,80
61179,note_on,99,0,8,,,,,,,,11,,,64,0
61179,note_on,99,0,9,,,,,,,,12,,,64,0
61179,note_on,99,0,11,,,,,,,,14,,,52,0
61179,note_on,99,0,10,,,,,,,,13,,,64,0
61179,note_on,99,0,12,,,,,,,,15,,,40,0
61200,note_on,21,0,8,,,,,,,,11,,,66,80
61200,note_on,21,0,12,,,,,,,,15,,,42,80
61200,note_on,21,0,10,,,,,,,,13,,,66,80
61200,note_on,21,0,11,,,,,,,,14,,,54,80
61200,note_on,21,0,9,,,,,,,,12,,,66,80
61299,note_on,99,0,10,,,,,,,,13,,,66,0
61299,note_on,99,0,12,,,,,,,,15,,,42,0
61299,note_on,99,0,9,,,,,,,,12,,,66,0
61299,note_on,99,0,8,,,,,,,,11,,,66,0
61299,note_on,99,0,11,,,,,,,,14,,,54,0
61320,note_on,21,0,10,,,,,,,,13,,,62,80
61320,note_on,21,0,9,,,,,,,,12,,,62,80
61320,note_on,21,0,8,,,,,,,,11,,,62,80
61320,note_on,21,0,11,,,,,,,,14,,,50,80
61320,note_on,21,0,12,,,,,,,,15,,,38,80
61419,note_on,99,0,8,,,,,,,,11,,,62,0
61419,note_on,99,0,10,,,,,,,,13,,,62,0
61419,note_on,99,0,11,,,,,,,,14,,,50,0
61419,note_on,459,0,5,,,,,,,,0,,,74,0
61419,note_on,99,0,12,,,,,,,,15,,,38,0
61419,note_on,99,0,9,,,,,,,,12,,,62,0
61419,note_on,459,0,6,,,,,,,,1,,,62,0
61419,note_on,459,0,7,,,,,,,,2,,,74,0
61440,note_on,21,0,7,,,,,,,,2,,,67,80
61440,note_on,21,0,6,,,,,,,,1,,,55,80
61440,note_on,21,0,11,,,,,,,,14,,,55,80
61440,note_on,21,0,5,,,,,,,,0,,,79,80
61440,note_on,21,0,9,,,,,,,,12,,,67,80
61440,note_on,21,0,8,,,,,,,,11,,,67,80
61440,note_on,21,0,12,,,,,,,,15,,,43,80
61440,note_on,21,0,10,,,,,,,,13,,,67,80
61440,note_on,0,0,6,,,,,,,,1,,,67,80
61539,note_on,99,0,10,,,,,,,,13,,,67,0
61539,note_on,99,0,11,,,,,,,,14,,,55,0
61539,note_on,99,0,9,,,,,,,,12,,,67,0
61539,note_on,99,0,12,,,,,,,,15,,,43,0
61539,note_on,99,0,8,,,,,,,,11,,,67,0
61560,note_on,21,0,12,,,,,,,,15,,,45,80
61560,note_on,21,0,9,,,,,,,,12,,,69,80
61560,note_on,21,0,11,,,,,,,,14,,,57,80
61560,note_on,21,0,10,,,,,,,,13,,,69,80
61560,note_on,21,0,8,,,,,,,,11,,,69,80
61659,note_on,99,0,10,,,,,,,,13,,,69,0
61659,note_on,99,0,12,,,,,,,,15,,,45,0
61659,note_on,99,0,9,,,,,,,,12,,,69,0
61659,note_on,99,0,11,,,,,,,,14,,,57,0
61659,note_on,99,0,8,,,,,,,,11,,,69,0
61680,note_on,21,0,10,,,,,,,,13,,,71,80
61680,note_on,21,0,8,,,,,,,,11,,,71,80
61680,note_on,21,0,11,,,,,,,,14,,,59,80
61680,note_on,21,0,12,,,,,,,,15,,,47,80
61680,note_on,21,0,9,,,,,,,,12,,,71,80
61779,note_on,99,0,10,,,,,,,,13,,,71,0
61779,note_on,99,0,11,,,,,,,,14,,,59,0
61779,note_on,99,0,9,,,,,,,,12,,,71,0
61779,note_on,99,0,12,,,,,,,,15,,,47,0
61779,note_on,99,0,8,,,,,,,,11,,,71,0
61800,note_on,21,0,9,,,,,,,,12,,,67,80
61800,note_on,21,0,8,,,,,,,,11,,,67,80
61800,note_on,21,0,10,,,,,,,,13,,,67,80
61800,note_on,21,0,12,,,,,,,,15,,,43,80
61800,note_on,21,0,11,,,,,,,,14,,,55,80
61899,note_on,99,0,9,,,,,,,,12,,,67,0
61899,note_on,99,0,12,,,,,,,,15,,,43,0
61899,note_on,459,0,5,,,,,,,,0,,,79,0
61899,note_on,459,0,7,,,,,,,,2,,,67,0
61899,note_on,99,0,8,,,,,,,,11,,,67,0
61899,note_on,0,0,6,,,,,,,,1,,,55,0
61899,note_on,99,0,11,,,,,,,,14,,,55,0
61899,note_on,459,0,6,,,,,,,,1,,,67,0
61899,note_on,99,0,10,,,,,,,,13,,,67,0
61920,note_on,21,0,12,,,,,,,,15,,,38,80
61920,note_on,21,0,7,,,,,,,,2,,,74,80
61920,note_on,21,0,6,,,,,,,,1,,,62,80
61920,note_on,21,0,5,,,,,,,,0,,,74,80
61920,note_on,21,0,9,,,,,,,,12,,,62,80
61920,note_on,21,0,10,,,,,,,,13,,,62,80
61920,note_on,21,0,11,,,,,,,,14,,,50,80
61920,note_on,21,0,8,,,,,,,,11,,,62,80
62019,note_on,99,0,11,,,,,,,,14,,,50,0
62019,note_on,99,0,8,,,,,,,,11,,,62,0
62019,note_on,99,0,10,,,,,,,,13,,,62,0
62019,note_on,99,0,12,,,,,,,,15,,,38,0
62019,note_on,99,0,9,,,,,,,,12,,,62,0
62040,note_on,21,0,11,,,,,,,,14,,,52,80
62040,note_on,21,0,10,,,,,,,,13,,,64,80
62040,note_on,21,0,12,,,,,,,,15,,,40,80
62040,note_on,21,0,9,,,,,,,,12,,,64,80
62040,note_on,21,0,8,,,,,,,,11,,,64,80
62139,note_on,99,0,8,,,,,,,,11,,,64,0
62139,note_on,99,0,11,,,,,,,,14,,,52,0
62139,note_on,99,0,9,,,,,,,,12,,,64,0
62139,note_on,99,0,12,,,,,,,,15,,,40,0
62139,note_on,99,0,10,,,,,,,,13,,,64,0
62160,note_on,21,0,10,,,,,,,,13,,,66,80
62160,note_on,21,0,9,,,,,,,,12,,,66,80
62160,note_on,21,0,8,,,,,,,,11,,,66,80
62160,note_on,21,0,12,,,,,,,,15,,,42,80
62160,note_on,21,0,11,,,,,,,,14,,,54,80
62259,note_on,99,0,9,,,,,,,,12,,,66,0
62259,note_on,99,0,11,,,,,,,,14,,,54,0
62259,note_on,99,0,12,,,,,,,,15,,,42,0
62259,note_on,99,0,10,,,,,,,,13,,,66,0
62259,note_on,99,0,8,,,,,,,,11,,,66,0
62280,note_on,21,0,11,,,,,,,,14,,,50,80
62280,note_on,21,0,9,,,,,,,,12,,,62,80
62280,note_on,21,0,10,,,,,,,,13,,,62,80
62280,note_on,21,0,12,,,,,,,,15,,,38,80
62280,note_on,21,0,8,,,,,,,,11,,,62,80
62379,note_on,99,0,9,,,,,,,,12,,,62,0
62379,note_on,99,0,12,,,,,,,,15,,,38,0
62379,note_on,99,0,10,,,,,,,,13,,,62,0
62379,note_on,99,0,8,,,,,,,,11,,,62,0
62379,note_on,99,0,11,,,,,,,,14,,,50,0
62399,note_on,479,0,7,,,,,,,,2,,,74,0
62399,note_on,479,0,6,,,,,,,,1,,,62,0
62399,note_on,479,0,5,,,,,,,,0,,,74,0
62400,note_on,21,0,11,,,,,,,,14,,,55,44
62400,note_on,21,0,10,,,,,,,,13,,,67,44
62400,note_on,21,0,9,,,,,,,,12,,,59,44
62400,note_on,21,0,12,,,,,,,,15,,,43,44
62400,note_on,21,0,8,,,,,,,,11,,,67,44
62519,note_on,119,0,8,,,,,,,,11,,,67,0
62519,note_on,119,0,9,,,,,,,,12,,,59,0
62520,note_on,1,0,9,,,,,,,,12,,,62,44
62520,note_on,1,0,8,,,,,,,,11,,,71,44
62639,note_on,119,0,9,,,,,,,,12,,,62,0
62639,note_on,119,0,8,,,,,,,,11,,,71,0
62640,note_on,1,0,8,,,,,,,,11,,,74,44
62640,note_on,1,0,9,,,,,,,,12,,,59,44
62739,note_on,99,0,8,,,,,,,,11,,,74,0
62759,note_on,119,0,9,,,,,,,,12,,,59,0
62760,note_on,1,0,9,,,,,,,,12,,,62,44
62760,note_on,21,0,8,,,,,,,,11,,,79,44
62849,note_on,89,0,8,,,,,,,,11,,,79,0
62859,note_on,99,0,9,,,,,,,,12,,,62,0
62880,note_on,21,0,9,,,,,,,,12,,,59,44
62880,note_on,31,0,8,,,,,,,,11,,,83,44
62999,note_on,119,0,9,,,,,,,,12,,,59,0
62999,note_on,119,0,8,,,,,,,,11,,,83,0
63000,note_on,1,0,8,,,,,,,,11,,,79,44
63000,note_on,1,0,9,,,,,,,,12,,,62,44
63099,note_on,99,0,8,,,,,,,,11,,,79,0
63119,note_on,119,0,9,,,,,,,,12,,,62,0
63120,note_on,21,0,8,,,,,,,,11,,,83,44
63120,note_on,1,0,9,,,,,,,,12,,,59,44
63239,note_on,119,0,9,,,,,,,,12,,,59,0
63239,note_on,119,0,8,,,,,,,,11,,,83,0
63240,note_on,1,0,8,,,,,,,,11,,,79,44
63240,note_on,1,0,9,,,,,,,,12,,,62,44
63339,note_on,939,0,12,,,,,,,,15,,,43,0
63339,note_on,939,0,10,,,,,,,,13,,,67,0
63339,note_on,939,0,11,,,,,,,,14,,,55,0
63339,note_on,99,0,9,,,,,,,,12,,,62,0
63339,note_on,99,0,8,,,,,,,,11,,,79,0
63360,note_on,21,0,10,,,,,,,,13,,,62,44
63360,note_on,21,0,8,,,,,,,,11,,,79,44
63360,note_on,21,0,9,,,,,,,,12,,,60,44
63360,note_on,21,0,12,,,,,,,,15,,,38,44
63360,note_on,21,0,11,,,,,,,,14,,,50,44
63419,note_on,59,0,8,,,,,,,,11,,,79,0
63420,note_on,1,0,8,,,,,,,,11,,,78,44
63479,note_on,119,0,9,,,,,,,,12,,,60,0
63480,note_on,1,0,9,,,,,,,,12,,,62,44
63579,note_on,159,0,8,,,,,,,,11,,,78,0
63599,note_on,119,0,9,,,,,,,,12,,,62,0
63600,note_on,1,0,9,,,,,,,,12,,,60,44
63600,note_on,21,0,8,,,,,,,,11,,,76,44
63699,note_on,99,0,8,,,,,,,,11,,,76,0
63719,note_on,119,0,9,,,,,,,,12,,,60,0
63720,note_on,1,0,9,,,,,,,,12,,,62,44
63720,note_on,21,0,8,,,,,,,,11,,,74,44
63819,note_on,99,0,9,,,,,,,,12,,,62,0
63819,note_on,99,0,8,,,,,,,,11,,,74,0
63840,note_on,21,0,9,,,,,,,,12,,,57,44
63840,note_on,21,0,8,,,,,,,,11,,,74,44
63899,note_on,59,0,8,,,,,,,,11,,,74,0
63900,note_on,1,0,8,,,,,,,,11,,,72,44
63959,note_on,119,0,9,,,,,,,,12,,,57,0
63960,note_on,1,0,9,,,,,,,,12,,,66,44
64059,note_on,159,0,8,,,,,,,,11,,,72,0
64079,note_on,119,0,9,,,,,,,,12,,,66,0
64080,note_on,21,0,8,,,,,,,,11,,,71,44
64080,note_on,1,0,9,,,,,,,,12,,,57,44
64179,note_on,99,0,8,,,,,,,,11,,,71,0
64199,note_on,119,0,9,,,,,,,,12,,,57,0
64200,note_on,21,0,8,,,,,,,,11,,,69,44
64200,note_on,1,0,9,,,,,,,,12,,,66,44
64299,note_on,939,0,11,,,,,,,,14,,,50,0
64299,note_on,99,0,8,,,,,,,,11,,,69,0
64299,note_on,939,0,10,,,,,,,,13,,,62,0
64299,note_on,939,0,12,,,,,,,,15,,,38,0
64299,note_on,99,0,9,,,,,,,,12,,,66,0
64320,note_on,21,0,10,,,,,,,,13,,,67,80
64320,note_on,1921,0,6,,,,,,,,1,,,62,80
64320,note_on,0,0,6,,,,,,,,1,,,55,80
64320,note_on,21,0,12,,,,,,,,15,,,43,80
64320,note_on,21,0,9,,,,,,,,12,,,55,80
64320,note_on,21,0,11,,,,,,,,14,,,55,80
64320,note_on,21,0,8,,,,,,,,11,,,67,80
64320,note_on,1921,0,7,,,,,,,,2,,,67,80
64320,note_on,1921,0,5,,,,,,,,0,,,67,80
64320,note_on,0,0,9,,,,,,,,12,,,67,80
64379,note_on,59,0,8,,,,,,,,11,,,67,0
64380,note_on,1,0,8,,,,,,,,11,,,67,44
64419,note_on,39,0,8,,,,,,,,11,,,67,0
64440,note_on,21,0,8,,,,,,,,11,,,55,44
64539,note_on,99,0,8,,,,,,,,11,,,55,0
64559,note_on,239,0,12,,,,,,,,15,,,43,0
64559,note_on,239,0,11,,,,,,,,14,,,55,0
64559,note_on,239,0,6,,,,,,,,1,,,55,0
64559,note_on,239,0,7,,,,,,,,2,,,67,0
64559,note_on,0,0,9,,,,,,,,12,,,55,0
64559,note_on,239,0,5,,,,,,,,0,,,67,0
64559,note_on,0,0,6,,,,,,,,1,,,62,0
64559,note_on,239,0,9,,,,,,,,12,,,67,0
64559,note_on,239,0,10,,,,,,,,13,,,67,0
64560,note_on,21,0,8,,,,,,,,11,,,55,44
64659,note_on,99,0,8,,,,,,,,11,,,55,0
64680,note_on,21,0,8,,,,,,,,11,,,55,44
64779,note_on,99,0,8,,,,,,,,11,,,55,0
64800,note_on,21,0,8,,,,,,,,11,,,55,44
64899,note_on,99,0,8,,,,,,,,11,,,55,0
64920,note_on,21,0,8,,,,,,,,11,,,55,44
65019,note_on,99,0,8,,,,,,,,11,,,55,0
65040,note_on,21,0,8,,,,,,,,11,,,55,44
65139,note_on,99,0,8,,,,,,,,11,,,55,0
65160,note_on,21,0,8,,,,,,,,11,,,55,44
65259,note_on,99,0,8,,,,,,,,11,,,55,0
65280,note_on,721,0,10,,,,,,,,13,,,62,80
65280,note_on,21,0,8,,,,,,,,11,,,71,80
65280,note_on,721,0,12,,,,,,,,15,,,38,80
65280,note_on,721,0,7,,,,,,,,2,,,67,80
65280,note_on,721,0,9,,,,,,,,12,,,55,80
65280,note_on,721,0,5,,,,,,,,0,,,71,80
65280,note_on,0,0,5,,,,,,,,0,,,65,80
65280,note_on,721,0,6,,,,,,,,1,,,55,80
65280,note_on,0,0,9,,,,,,,,12,,,65,80
65280,note_on,721,0,11,,,,,,,,14,,,50,80
65339,note_on,59,0,8,,,,,,,,11,,,71,0
65340,note_on,1,0,8,,,,,,,,11,,,71,44
65379,note_on,39,0,8,,,,,,,,11,,,71,0
65400,note_on,21,0,8,,,,,,,,11,,,65,44
65499,note_on,99,0,8,,,,,,,,11,,,65,0
65519,note_on,239,0,10,,,,,,,,13,,,62,0
65519,note_on,239,0,12,,,,,,,,15,,,38,0
65519,note_on,239,0,6,,,,,,,,1,,,55,0
65519,note_on,239,0,5,,,,,,,,0,,,65,0
65519,note_on,239,0,7,,,,,,,,2,,,67,0
65519,note_on,239,0,9,,,,,,,,12,,,65,0
65519,note_on,0,0,5,,,,,,,,0,,,71,0
65519,note_on,0,0,9,,,,,,,,12,,,55,0
65519,note_on,239,0,11,,,,,,,,14,,,50,0
65520,note_on,21,0,8,,,,,,,,11,,,65,44
65619,note_on,99,0,8,,,,,,,,11,,,65,0
65640,note_on,21,0,8,,,,,,,,11,,,65,44
65739,note_on,99,0,8,,,,,,,,11,,,65,0
65760,note_on,21,0,8,,,,,,,,11,,,65,44
65859,note_on,99,0,8,,,,,,,,11,,,65,0
65880,note_on,21,0,8,,,,,,,,11,,,65,44
65979,note_on,99,0,8,,,,,,,,11,,,65,0
66000,note_on,21,0,8,,,,,,,,11,,,65,44
66099,note_on,99,0,8,,,,,,,,11,,,65,0
66120,note_on,21,0,8,,,,,,,,11,,,65,44
66219,note_on,99,0,8,,,,,,,,11,,,65,0
66240,note_on,21,0,8,,,,,,,,11,,,72,80
66240,note_on,721,0,11,,,,,,,,14,,,52,80
66240,note_on,0,0,7,,,,,,,,2,,,67,80
66240,note_on,721,0,10,,,,,,,,13,,,64,80
66240,note_on,721,0,12,,,,,,,,15,,,40,80
66240,note_on,0,0,6,,,,,,,,1,,,55,80
66240,note_on,721,0,6,,,,,,,,1,,,60,80
66240,note_on,721,0,5,,,,,,,,0,,,64,80
66240,note_on,0,0,5,,,,,,,,0,,,72,80
66240,note_on,721,0,9,,,,,,,,12,,,55,80
66240,note_on,0,0,9,,,,,,,,12,,,64,80
66240,note_on,721,0,7,,,,,,,,2,,,60,80
66299,note_on,59,0,8,,,,,,,,11,,,72,0
66300,note_on,1,0,8,,,,,,,,11,,,72,44
66339,note_on,39,0,8,,,,,,,,11,,,72,0
66360,note_on,21,0,8,,,,,,,,11,,,67,44
66459,note_on,99,0,8,,,,,,,,11,,,67,0
66479,note_on,239,0,9,,,,,,,,12,,,64,0
66479,note_on,239,0,7,,,,,,,,2,,,67,0
66479,note_on,0,0,7,,,,,,,,2,,,60,0
66479,note_on,239,0,10,,,,,,,,13,,,64,0
66479,note_on,239,0,12,,,,,,,,15,,,40,0
66479,note_on,0,0,6,,,,,,,,1,,,60,0
66479,note_on,239,0,6,,,,,,,,1,,,55,0
66479,note_on,239,0,11,,,,,,,,14,,,52,0
66479,note_on,0,0,5,,,,,,,,0,,,64,0
66479,note_on,239,0,5,,,,,,,,0,,,72,0
66479,note_on,0,0,9,,,,,,,,12,,,55,0
66480,note_on,21,0,8,,,,,,,,11,,,67,44
66579,note_on,99,0,8,,,,,,,,11,,,67,0
66600,note_on,21,0,8,,,,,,,,11,,,67,44
66699,note_on,99,0,8,,,,,,,,11,,,67,0
66720,note_on,21,0,8,,,,,,,,11,,,67,44
66819,note_on,99,0,8,,,,,,,,11,,,67,0
66840,note_on,21,0,8,,,,,,,,11,,,67,44
66939,note_on,99,0,8,,,,,,,,11,,,67,0
66960,note_on,21,0,8,,,,,,,,11,,,67,44
67059,note_on,99,0,8,,,,,,,,11,,,67,0
67080,note_on,21,0,8,,,,,,,,11,,,67,44
67179,note_on,99,0,8,,,,,,,,11,,,67,0
67200,note_on,721,0,7,,,,,,,,2,,,67,80
67200,note_on,0,0,9,,,,,,,,12,,,62,80
67200,note_on,721,0,11,,,,,,,,14,,,47,80
67200,note_on,0,0,9,,,,,,,,12,,,74,80
67200,note_on,721,0,10,,,,,,,,13,,,59,80
67200,note_on,721,0,12,,,,,,,,15,,,35,80
67200,note_on,0,0,7,,,,,,,,2,,,74,80
67200,note_on,721,0,5,,,,,,,,0,,,74,80
67200,note_on,0,0,5,,,,,,,,0,,,77,80
67200,note_on,721,0,9,,,,,,,,12,,,55,80
67200,note_on,21,0,8,,,,,,,,11,,,77,80
67200,note_on,721,0,6,,,,,,,,1,,,55,80
67200,note_on,0,0,6,,,,,,,,1,,,62,80
67259,note_on,59,0,8,,,,,,,,11,,,77,0
67260,note_on,1,0,8,,,,,,,,11,,,77,44
67299,note_on,39,0,8,,,,,,,,11,,,77,0
67320,note_on,21,0,8,,,,,,,,11,,,74,44
67419,note_on,99,0,8,,,,,,,,11,,,74,0
67439,note_on,0,0,6,,,,,,,,1,,,55,0
67439,note_on,239,0,12,,,,,,,,15,,,35,0
67439,note_on,0,0,7,,,,,,,,2,,,67,0
67439,note_on,239,0,6,,,,,,,,1,,,62,0
67439,note_on,239,0,7,,,,,,,,2,,,74,0
67439,note_on,239,0,11,,,,,,,,14,,,47,0
67439,note_on,0,0,9,,,,,,,,12,,,62,0
67439,note_on,239,0,9,,,,,,,,12,,,74,0
67439,note_on,0,0,5,,,,,,,,0,,,74,0
67439,note_on,239,0,5,,,,,,,,0,,,77,0
67439,note_on,0,0,9,,,,,,,,12,,,55,0
67439,note_on,239,0,10,,,,,,,,13,,,59,0
67440,note_on,21,0,8,,,,,,,,11,,,74,44
67539,note_on,99,0,8,,,,,,,,11,,,74,0
67560,note_on,21,0,8,,,,,,,,11,,,74,44
67659,note_on,99,0,8,,,,,,,,11,,,74,0
67680,note_on,21,0,8,,,,,,,,11,,,74,44
67779,note_on,99,0,8,,,,,,,,11,,,74,0
67800,note_on,21,0,8,,,,,,,,11,,,74,44
67899,note_on,99,0,8,,,,,,,,11,,,74,0
67920,note_on,21,0,8,,,,,,,,11,,,74,44
68019,note_on,99,0,8,,,,,,,,11,,,74,0
68040,note_on,21,0,8,,,,,,,,11,,,74,44
68139,note_on,99,0,8,,,,,,,,11,,,74,0
68160,note_on,721,0,9,,,,,,,,12,,,60,44
68160,note_on,21,0,8,,,,,,,,11,,,79,44
68199,note_on,39,0,8,,,,,,,,11,,,79,0
68200,note_on,1,0,8,,,,,,,,11,,,81,44
68239,note_on,39,0,8,,,,,,,,11,,,81,0
68240,note_on,1,0,8,,,,,,,,11,,,79,44
68259,note_on,99,0,9,,,,,,,,12,,,60,0
68279,note_on,39,0,8,,,,,,,,11,,,79,0
68280,note_on,1,0,8,,,,,,,,11,,,77,44
68280,note_on,21,0,9,,,,,,,,12,,,62,44
68339,note_on,59,0,8,,,,,,,,11,,,77,0
68340,note_on,1,0,8,,,,,,,,11,,,79,44
68379,note_on,99,0,9,,,,,,,,12,,,62,0
68399,note_on,59,0,8,,,,,,,,11,,,79,0
68400,note_on,21,0,9,,,,,,,,12,,,64,44
68499,note_on,99,0,9,,,,,,,,12,,,64,0
68520,note_on,21,0,9,,,,,,,,12,,,60,44
68619,note_on,99,0,9,,,,,,,,12,,,60,0
68640,note_on,21,0,9,,,,,,,,12,,,62,44
68640,note_on,241,0,8,,,,,,,,11,,,77,44
68679,note_on,39,0,8,,,,,,,,11,,,77,0
68680,note_on,1,0,8,,,,,,,,11,,,79,44
68719,note_on,39,0,8,,,,,,,,11,,,79,0
68720,note_on,1,0,8,,,,,,,,11,,,77,44
68739,note_on,99,0,9,,,,,,,,12,,,62,0
68759,note_on,39,0,8,,,,,,,,11,,,77,0
68760,note_on,1,0,8,,,,,,,,11,,,76,44
68760,note_on,21,0,9,,,,,,,,12,,,64,44
68819,note_on,59,0,8,,,,,,,,11,,,76,0
68820,note_on,1,0,8,,,,,,,,11,,,77,44
68859,note_on,99,0,9,,,,,,,,12,,,64,0
68879,note_on,59,0,8,,,,,,,,11,,,77,0
68880,note_on,21,0,9,,,,,,,,12,,,65,44
68979,note_on,99,0,9,,,,,,,,12,,,65,0
69000,note_on,21,0,9,,,,,,,,12,,,62,44
69099,note_on,99,0,9,,,,,,,,12,,,62,0
69120,note_on,241,0,8,,,,,,,,11,,,76,44
69120,note_on,21,0,9,,,,,,,,12,,,64,44
69159,note_on,39,0,8,,,,,,,,11,,,76,0
69160,note_on,1,0,8,,,,,,,,11,,,77,44
69199,note_on,39,0,8,,,,,,,,11,,,77,0
69200,note_on,1,0,8,,,,,,,,11,,,76,44
69219,note_on,99,0,9,,,,,,,,12,,,64,0
69239,note_on,39,0,8,,,,,,,,11,,,76,0
69240,note_on,1,0,8,,,,,,,,11,,,74,44
69240,note_on,21,0,9,,,,,,,,12,,,65,44
69299,note_on,59,0,8,,,,,,,,11,,,74,0
69300,note_on,1,0,8,,,,,,,,11,,,76,44
69339,note_on,99,0,9,,,,,,,,12,,,65,0
69359,note_on,59,0,8,,,,,,,,11,,,76,0
69360,note_on,21,0,9,,,,,,,,12,,,67,44
69459,note_on,99,0,9,,,,,,,,12,,,67,0
69480,note_on,21,0,9,,,,,,,,12,,,64,44
69579,note_on,99,0,9,,,,,,,,12,,,64,0
69600,note_on,21,0,9,,,,,,,,12,,,65,44
69600,note_on,241,0,8,,,,,,,,11,,,74,44
69639,note_on,39,0,8,,,,,,,,11,,,74,0
69640,note_on,1,0,8,,,,,,,,11,,,76,44
69679,note_on,39,0,8,,,,,,,,11,,,76,0
69680,note_on,1,0,8,,,,,,,,11,,,74,44
69699,note_on,99,0,9,,,,,,,,12,,,65,0
69719,note_on,39,0,8,,,,,,,,11,,,74,0
69720,note_on,1,0,8,,,,,,,,11,,,72,44
69720,note_on,21,0,9,,,,,,,,12,,,67,44
69779,note_on,59,0,8,,,,,,,,11,,,72,0
69780,note_on,1,0,8,,,,,,,,11,,,74,44
69819,note_on,99,0,9,,,,,,,,12,,,67,0
69839,note_on,59,0,8,,,,,,,,11,,,74,0
69840,note_on,21,0,9,,,,,,,,12,,,69,44
69939,note_on,99,0,9,,,,,,,,12,,,69,0
69960,note_on,21,0,9,,,,,,,,12,,,65,44
70059,note_on,99,0,9,,,,,,,,12,,,65,0
70080,note_on,241,0,8,,,,,,,,11,,,72,44
70080,note_on,21,0,9,,,,,,,,12,,,64,44
70119,note_on,39,0,8,,,,,,,,11,,,72,0
70120,note_on,1,0,8,,,,,,,,11,,,74,44
70159,note_on,39,0,8,,,,,,,,11,,,74,0
70160,note_on,1,0,8,,,,,,,,11,,,72,44
70179,note_on,99,0,9,,,,,,,,12,,,64,0
70199,note_on,39,0,8,,,,,,,,11,,,72,0
70200,note_on,21,0,9,,,,,,,,12,,,65,44
70200,note_on,1,0,8,,,,,,,,11,,,71,44
70259,note_on,59,0,8,,,,,,,,11,,,71,0
70260,note_on,1,0,8,,,,,,,,11,,,72,44
70299,note_on,99,0,9,,,,,,,,12,,,65,0
70319,note_on,59,0,8,,,,,,,,11,,,72,0
70320,note_on,21,0,9,,,,,,,,12,,,67,44
70419,note_on,99,0,9,,,,,,,,12,,,67,0
70440,note_on,21,0,9,,,,,,,,12,,,64,44
70539,note_on,99,0,9,,,,,,,,12,,,64,0
70560,note_on,21,0,9,,,,,,,,12,,,62,44
70560,note_on,241,0,8,,,,,,,,11,,,71,44
70599,note_on,39,0,8,,,,,,,,11,,,71,0
70600,note_on,1,0,8,,,,,,,,11,,,72,44
70639,note_on,39,0,8,,,,,,,,11,,,72,0
70640,note_on,1,0,8,,,,,,,,11,,,71,44
70659,note_on,99,0,9,,,,,,,,12,,,62,0
70679,note_on,39,0,8,,,,,,,,11,,,71,0
70680,note_on,1,0,8,,,,,,,,11,,,69,44
70680,note_on,21,0,9,,,,,,,,12,,,64,44
70739,note_on,59,0,8,,,,,,,,11,,,69,0
70740,note_on,1,0,8,,,,,,,,11,,,71,44
70779,note_on,99,0,9,,,,,,,,12,,,64,0
70799,note_on,59,0,8,,,,,,,,11,,,71,0
70800,note_on,21,0,9,,,,,,,,12,,,65,44
70899,note_on,99,0,9,,,,,,,,12,,,65,0
70920,note_on,21,0,9,,,,,,,,12,,,62,44
71019,note_on,99,0,9,,,,,,,,12,,,62,0
71040,note_on,21,0,9,,,,,,,,12,,,64,44
71040,note_on,241,0,8,,,,,,,,11,,,72,44
71139,note_on,99,0,9,,,,,,,,12,,,64,0
71159,note_on,119,0,8,,,,,,,,11,,,72,0
71160,note_on,21,0,9,,,,,,,,12,,,55,44
71259,note_on,99,0,9,,,,,,,,12,,,55,0
71280,note_on,21,0,9,,,,,,,,12,,,59,44
71280,note_on,121,0,8,,,,,,,,11,,,74,44
71379,note_on,99,0,9,,,,,,,,12,,,59,0
71399,note_on,119,0,8,,,,,,,,11,,,74,0
71400,note_on,21,0,9,,,,,,,,12,,,55,44
71499,note_on,99,0,9,,,,,,,,12,,,55,0
71520,note_on,121,0,8,,,,,,,,11,,,76,44
71520,note_on,21,0,9,,,,,,,,12,,,60,44
71619,note_on,99,0,9,,,,,,,,12,,,60,0
71639,note_on,119,0,8,,,,,,,,11,,,76,0
71640,note_on,21,0,9,,,,,,,,12,,,55,44
71739,note_on,99,0,9,,,,,,,,12,,,55,0
71760,note_on,121,0,8,,,,,,,,11,,,77,44
71760,note_on,21,0,9,,,,,,,,12,,,62,44
71859,note_on,99,0,9,,,,,,,,12,,,62,0
71879,note_on,119,0,8,,,,,,,,11,,,77,0
71880,note_on,21,0,9,,,,,,,,12,,,55,44
71979,note_on,99,0,9,,,,,,,,12,,,55,0
72000,note_on,21,0,9,,,,,,,,12,,,60,44
72000,note_on,121,0,8,,,,,,,,11,,,79,44
72039,note_on,39,0,8,,,,,,,,11,,,79,0
72040,note_on,1,0,8,,,,,,,,11,,,81,44
72079,note_on,39,0,8,,,,,,,,11,,,81,0
72080,note_on,1,0,8,,,,,,,,11,,,79,44
72099,note_on,99,0,9,,,,,,,,12,,,60,0
72119,note_on,39,0,8,,,,,,,,11,,,79,0
72120,note_on,1,0,8,,,,,,,,11,,,77,44
72120,note_on,21,0,9,,,,,,,,12,,,62,44
72179,note_on,59,0,8,,,,,,,,11,,,77,0
72180,note_on,1,0,8,,,,,,,,11,,,79,44
72219,note_on,99,0,9,,,,,,,,12,,,62,0
72239,note_on,59,0,8,,,,,,,,11,,,79,0
72240,note_on,21,0,9,,,,,,,,12,,,64,44
72339,note_on,99,0,9,,,,,,,,12,,,64,0
72360,note_on,21,0,9,,,,,,,,12,,,60,44
72459,note_on,99,0,9,,,,,,,,12,,,60,0
72480,note_on,21,0,9,,,,,,,,12,,,62,44
72480,note_on,241,0,8,,,,,,,,11,,,77,44
72519,note_on,39,0,8,,,,,,,,11,,,77,0
72520,note_on,1,0,8,,,,,,,,11,,,79,44
72559,note_on,39,0,8,,,,,,,,11,,,79,0
72560,note_on,1,0,8,,,,,,,,11,,,77,44
72579,note_on,99,0,9,,,,,,,,12,,,62,0
72599,note_on,39,0,8,,,,,,,,11,,,77,0
72600,note_on,21,0,9,,,,,,,,12,,,64,44
72600,note_on,1,0,8,,,,,,,,11,,,76,44
72659,note_on,59,0,8,,,,,,,,11,,,76,0
72660,note_on,1,0,8,,,,,,,,11,,,77,44
72699,note_on,99,0,9,,,,,,,,12,,,64,0
72719,note_on,59,0,8,,,,,,,,11,,,77,0
72720,note_on,21,0,9,,,,,,,,12,,,65,44
72819,note_on,99,0,9,,,,,,,,12,,,65,0
72840,note_on,21,0,9,,,,,,,,12,,,62,44
72939,note_on,99,0,9,,,,,,,,12,,,62,0
72960,note_on,241,0,8,,,,,,,,11,,,76,44
72960,note_on,21,0,9,,,,,,,,12,,,64,44
72999,note_on,39,0,8,,,,,,,,11,,,76,0
73000,note_on,1,0,8,,,,,,,,11,,,77,44
73039,note_on,39,0,8,,,,,,,,11,,,77,0
73040,note_on,1,0,8,,,,,,,,11,,,76,44
73059,note_on,99,0,9,,,,,,,,12,,,64,0
73079,note_on,39,0,8,,,,,,,,11,,,76,0
73080,note_on,21,0,9,,,,,,,,12,,,65,44
73080,note_on,1,0,8,,,,,,,,11,,,74,44
73139,note_on,59,0,8,,,,,,,,11,,,74,0
73140,note_on,1,0,8,,,,,,,,11,,,76,44
73179,note_on,99,0,9,,,,,,,,12,,,65,0
73199,note_on,59,0,8,,,,,,,,11,,,76,0
73200,note_on,21,0,9,,,,,,,,12,,,67,44
73299,note_on,99,0,9,,,,,,,,12,,,67,0
73320,note_on,21,0,9,,,,,,,,12,,,64,44
73419,note_on,99,0,9,,,,,,,,12,,,64,0
73440,note_on,21,0,9,,,,,,,,12,,,65,44
73440,note_on,241,0,8,,,,,,,,11,,,74,44
73479,note_on,39,0,8,,,,,,,,11,,,74,0
73480,note_on,1,0,8,,,,,,,,11,,,76,44
73519,note_on,39,0,8,,,,,,,,11,,,76,0
73520,note_on,1,0,8,,,,,,,,11,,,74,44
73539,note_on,99,0,9,,,,,,,,12,,,65,0
73559,note_on,39,0,8,,,,,,,,11,,,74,0
73560,note_on,1,0,8,,,,,,,,11,,,72,44
73560,note_on,21,0,9,,,,,,,,12,,,67,44
73619,note_on,59,0,8,,,,,,,,11,,,72,0
73620,note_on,1,0,8,,,,,,,,11,,,74,44
73659,note_on,99,0,9,,,,,,,,12,,,67,0
73679,note_on,59,0,8,,,,,,,,11,,,74,0
73680,note_on,21,0,9,,,,,,,,12,,,69,44
73779,note_on,99,0,9,,,,,,,,12,,,69,0
73800,note_on,21,0,9,,,,,,,,12,,,65,44
73899,note_on,99,0,9,,,,,,,,12,,,65,0
73920,note_on,21,0,9,,,,,,,,12,,,64,44
73920,note_on,241,0,8,,,,,,,,11,,,72,44
73959,note_on,39,0,8,,,,,,,,11,,,72,0
73960,note_on,1,0,8,,,,,,,,11,,,74,44
73999,note_on,39,0,8,,,,,,,,11,,,74,0
74000,note_on,1,0,8,,,,,,,,11,,,72,44
74019,note_on,99,0,9,,,,,,,,12,,,64,0
74039,note_on,39,0,8,,,,,,,,11,,,72,0
74040,note_on,1,0,8,,,,,,,,11,,,71,44
74040,note_on,21,0,9,,,,,,,,12,,,65,44
74099,note_on,59,0,8,,,,,,,,11,,,71,0
74100,note_on,1,0,8,,,,,,,,11,,,72,44
74139,note_on,99,0,9,,,,,,,,12,,,65,0
74159,note_on,59,0,8,,,,,,,,11,,,72,0
74160,note_on,21,0,9,,,,,,,,12,,,67,44
74259,note_on,99,0,9,,,,,,,,12,,,67,0
74280,note_on,21,0,9,,,,,,,,12,,,64,44
74379,note_on,99,0,9,,,,,,,,12,,,64,0
74400,note_on,21,0,9,,,,,,,,12,,,62,44
74400,note_on,241,0,8,,,,,,,,11,,,71,44
74439,note_on,39,0,8,,,,,,,,11,,,71,0
74440,note_on,1,0,8,,,,,,,,11,,,72,44
74479,note_on,39,0,8,,,,,,,,11,,,72,0
74480,note_on,1,0,8,,,,,,,,11,,,71,44
74499,note_on,99,0,9,,,,,,,,12,,,62,0
74519,note_on,39,0,8,,,,,,,,11,,,71,0
74520,note_on,21,0,9,,,,,,,,12,,,64,44
74520,note_on,1,0,8,,,,,,,,11,,,69,44
74579,note_on,59,0,8,,,,,,,,11,,,69,0
74580,note_on,1,0,8,,,,,,,,11,,,71,44
74619,note_on,99,0,9,,,,,,,,12,,,64,0
74639,note_on,59,0,8,,,,,,,,11,,,71,0
74640,note_on,21,0,9,,,,,,,,12,,,65,44
74739,note_on,99,0,9,,,,,,,,12,,,65,0
74760,note_on,21,0,9,,,,,,,,12,,,62,44
74859,note_on,99,0,9,,,,,,,,12,,,62,0
74880,note_on,7441,0,11,,,,,,,,14,,,60,80
74880,note_on,7441,0,10,,,,,,,,13,,,72,80
74880,note_on,7441,0,5,,,,,,,,0,,,84,80
74880,note_on,241,0,8,,,,,,,,11,,,72,80
74880,note_on,21,0,9,,,,,,,,12,,,60,80
74880,note_on,0,0,5,,,,,,,,0,,,72,80
74880,note_on,7441,0,12,,,,,,,,15,,,48,80
74880,note_on,7441,0,7,,,,,,,,2,,,72,80
74880,note_on,0,0,7,,,,,,,,2,,,60,80
74880,note_on,0,0,6,,,,,,,,1,,,48,80
74880,note_on,7441,0,6,,,,,,,,1,,,60,80
74979,note_on,99,0,11,,,,,,,,14,,,60,0
74979,note_on,99,0,12,,,,,,,,15,,,48,0
74979,note_on,99,0,9,,,,,,,,12,,,60,0
74979,note_on,99,0,8,,,,,,,,11,,,72,0
74979,note_on,99,0,10,,,,,,,,13,,,72,0
75000,note_on,21,0,8,,,,,,,,11,,,74,80
75000,note_on,21,0,10,,,,,,,,13,,,74,80
75000,note_on,21,0,11,,,,,,,,14,,,62,80
75000,note_on,21,0,9,,,,,,,,12,,,62,80
75000,note_on,21,0,12,,,,,,,,15,,,50,80
75099,note_on,99,0,11,,,,,,,,14,,,62,0
75099,note_on,99,0,8,,,,,,,,11,,,74,0
75099,note_on,99,0,12,,,,,,,,15,,,50,0
75099,note_on,99,0,9,,,,,,,,12,,,62,0
75099,note_on,99,0,10,,,,,,,,13,,,74,0
75120,note_on,21,0,12,,,,,,,,15,,,52,80
75120,note_on,21,0,11,,,,,,,,14,,,64,80
75120,note_on,21,0,10,,,,,,,,13,,,76,80
75120,note_on,21,0,9,,,,,,,,12,,,64,80
75120,note_on,21,0,8,,,,,,,,11,,,76,80
75219,note_on,99,0,12,,,,,,,,15,,,52,0
75219,note_on,99,0,10,,,,,,,,13,,,76,0
75219,note_on,99,0,11,,,,,,,,14,,,64,0
75219,note_on,99,0,9,,,,,,,,12,,,64,0
75219,note_on,99,0,8,,,,,,,,11,,,76,0
75240,note_on,21,0,9,,,,,,,,12,,,60,80
75240,note_on,21,0,12,,,,,,,,15,,,48,80
75240,note_on,21,0,8,,,,,,,,11,,,72,80
75240,note_on,21,0,10,,,,,,,,13,,,72,80
75240,note_on,21,0,11,,,,,,,,14,,,60,80
75339,note_on,99,0,12,,,,,,,,15,,,48,0
75339,note_on,0,0,7,,,,,,,,2,,,72,0
75339,note_on,459,0,7,,,,,,,,2,,,60,0
75339,note_on,459,0,6,,,,,,,,1,,,48,0
75339,note_on,0,0,6,,,,,,,,1,,,60,0
75339,note_on,99,0,9,,,,,,,,12,,,60,0
75339,note_on,0,0,5,,,,,,,,0,,,84,0
75339,note_on,99,0,11,,,,,,,,14,,,60,0
75339,note_on,99,0,10,,,,,,,,13,,,72,0
75339,note_on,99,0,8,,,,,,,,11,,,72,0
75339,note_on,459,0,5,,,,,,,,0,,,72,0
75360,note_on,21,0,10,,,,,,,,13,,,67,80
75360,note_on,21,0,7,,,,,,,,2,,,67,80
75360,note_on,0,0,7,,,,,,,,2,,,55,80
75360,note_on,21,0,8,,,,,,,,11,,,67,80
75360,note_on,21,0,6,,,,,,,,1,,,55,80
75360,note_on,0,0,6,,,,,,,,1,,,43,80
75360,note_on,21,0,5,,,,,,,,0,,,79,80
75360,note_on,21,0,12,,,,,,,,15,,,43,80
75360,note_on,0,0,5,,,,,,,,0,,,67,80
75360,note_on,21,0,11,,,,,,,,14,,,55,80
75360,note_on,21,0,9,,,,,,,,12,,,55,80
75459,note_on,99,0,12,,,,,,,,15,,,43,0
75459,note_on,99,0,8,,,,,,,,11,,,67,0
75459,note_on,99,0,9,,,,,,,,12,,,55,0
75459,note_on,99,0,11,,,,,,,,14,,,55,0
75459,note_on,99,0,10,,,,,,,,13,,,67,0
75480,note_on,21,0,8,,,,,,,,11,,,69,80
75480,note_on,21,0,9,,,,,,,,12,,,57,80
75480,note_on,21,0,10,,,,,,,,13,,,69,80
75480,note_on,21,0,11,,,,,,,,14,,,57,80
75480,note_on,21,0,12,,,,,,,,15,,,45,80
75579,note_on,99,0,11,,,,,,,,14,,,57,0
75579,note_on,99,0,9,,,,,,,,12,,,57,0
75579,note_on,99,0,12,,,,,,,,15,,,45,0
75579,note_on,99,0,10,,,,,,,,13,,,69,0
75579,note_on,99,0,8,,,,,,,,11,,,69,0
75600,note_on,21,0,10,,,,,,,,13,,,71,80
75600,note_on,21,0,8,,,,,,,,11,,,71,80
75600,note_on,21,0,11,,,,,,,,14,,,59,80
75600,note_on,21,0,9,,,,,,,,12,,,59,80
75600,note_on,21,0,12,,,,,,,,15,,,47,80
75699,note_on,99,0,10,,,,,,,,13,,,71,0
75699,note_on,99,0,11,,,,,,,,14,,,59,0
75699,note_on,99,0,12,,,,,,,,15,,,47,0
75699,note_on,99,0,8,,,,,,,,11,,,71,0
75699,note_on,99,0,9,,,,,,,,12,,,59,0
75720,note_on,21,0,9,,,,,,,,12,,,55,80
75720,note_on,21,0,12,,,,,,,,15,,,43,80
75720,note_on,21,0,11,,,,,,,,14,,,55,80
75720,note_on,21,0,8,,,,,,,,11,,,67,80
75720,note_on,21,0,10,,,,,,,,13,,,67,80
75819,note_on,0,0,5,,,,,,,,0,,,79,0
75819,note_on,459,0,6,,,,,,,,1,,,43,0
75819,note_on,0,0,6,,,,,,,,1,,,55,0
75819,note_on,99,0,9,,,,,,,,12,,,55,0
75819,note_on,99,0,12,,,,,,,,15,,,43,0
75819,note_on,99,0,10,,,,,,,,13,,,67,0
75819,note_on,99,0,8,,,,,,,,11,,,67,0
75819,note_on,459,0,5,,,,,,,,0,,,67,0
75819,note_on,99,0,11,,,,,,,,14,,,55,0
75819,note_on,459,0,7,,,,,,,,2,,,55,0
75819,note_on,0,0,7,,,,,,,,2,,,67,0
75840,note_on,21,0,11,,,,,,,,14,,,60,80
75840,note_on,0,0,7,,,,,,,,2,,,60,80
75840,note_on,0,0,5,,,,,,,,0,,,84,80
75840,note_on,21,0,8,,,,,,,,11,,,72,80
75840,note_on,0,0,6,,,,,,,,1,,,60,80
75840,note_on,21,0,6,,,,,,,,1,,,48,80
75840,note_on,21,0,5,,,,,,,,0,,,72,80
75840,note_on,21,0,10,,,,,,,,13,,,72,80
75840,note_on,21,0,7,,,,,,,,2,,,72,80
75840,note_on,21,0,9,,,,,,,,12,,,60,80
75840,note_on,21,0,12,,,,,,,,15,,,48,80
75939,note_on,99,0,8,,,,,,,,11,,,72,0
75939,note_on,99,0,12,,,,,,,,15,,,48,0
75939,note_on,99,0,9,,,,,,,,12,,,60,0
75939,note_on,99,0,10,,,,,,,,13,,,72,0
75939,note_on,99,0,11,,,,,,,,14,,,60,0
75960,note_on,21,0,8,,,,,,,,11,,,74,80
75960,note_on,21,0,9,,,,,,,,12,,,62,80
75960,note_on,21,0,10,,,,,,,,13,,,74,80
75960,note_on,21,0,12,,,,,,,,15,,,50,80
75960,note_on,21,0,11,,,,,,,,14,,,62,80
76059,note_on,99,0,9,,,,,,,,12,,,62,0
76059,note_on,99,0,10,,,,,,,,13,,,74,0
76059,note_on,99,0,11,,,,,,,,14,,,62,0
76059,note_on,99,0,8,,,,,,,,11,,,74,0
76059,note_on,99,0,12,,,,,,,,15,,,50,0
76080,note_on,21,0,10,,,,,,,,13,,,76,80
76080,note_on,21,0,11,,,,,,,,14,,,64,80
76080,note_on,21,0,8,,,,,,,,11,,,76,80
76080,note_on,21,0,12,,,,,,,,15,,,52,80
76080,note_on,21,0,9,,,,,,,,12,,,64,80
76179,note_on,99,0,12,,,,,,,,15,,,52,0
76179,note_on,99,0,9,,,,,,,,12,,,64,0
76179,note_on,99,0,10,,,,,,,,13,,,76,0
76179,note_on,99,0,8,,,,,,,,11,,,76,0
76179,note_on,99,0,11,,,,,,,,14,,,64,0
76200,note_on,21,0,9,,,,,,,,12,,,60,80
76200,note_on,21,0,11,,,,,,,,14,,,60,80
76200,note_on,21,0,10,,,,,,,,13,,,72,80
76200,note_on,21,0,12,,,,,,,,15,,,48,80
76200,note_on,21,0,8,,,,,,,,11,,,72,80
76299,note_on,459,0,5,,,,,,,,0,,,84,0
76299,note_on,99,0,9,,,,,,,,12,,,60,0
76299,note_on,459,0,6,,,,,,,,1,,,60,0
76299,note_on,0,0,6,,,,,,,,1,,,48,0
76299,note_on,0,0,5,,,,,,,,0,,,72,0
76299,note_on,99,0,8,,,,,,,,11,,,72,0
76299,note_on,99,0,12,,,,,,,,15,,,48,0
76299,note_on,0,0,7,,,,,,,,2,,,72,0
76299,note_on,459,0,7,,,,,,,,2,,,60,0
76299,note_on,99,0,10,,,,,,,,13,,,72,0
76299,note_on,99,0,11,,,,,,,,14,,,60,0
76320,note_on,21,0,8,,,,,,,,11,,,67,80
76320,note_on,21,0,12,,,,,,,,15,,,43,80
76320,note_on,0,0,7,,,,,,,,2,,,55,80
76320,note_on,21,0,7,,,,,,,,2,,,67,80
76320,note_on,0,0,5,,,,,,,,0,,,67,80
76320,note_on,21,0,5,,,,,,,,0,,,79,80
76320,note_on,21,0,10,,,,,,,,13,,,67,80
76320,note_on,21,0,11,,,,,,,,14,,,55,80
76320,note_on,21,0,6,,,,,,,,1,,,55,80
76320,note_on,0,0,6,,,,,,,,1,,,43,80
76320,note_on,21,0,9,,,,,,,,12,,,55,80
76419,note_on,99,0,10,,,,,,,,13,,,67,0
76419,note_on,99,0,8,,,,,,,,11,,,67,0
76419,note_on,99,0,12,,,,,,,,15,,,43,0
76419,note_on,99,0,9,,,,,,,,12,,,55,0
76419,note_on,99,0,11,,,,,,,,14,,,55,0
76440,note_on,21,0,10,,,,,,,,13,,,69,80
76440,note_on,21,0,8,,,,,,,,11,,,69,80
76440,note_on,21,0,12,,,,,,,,15,,,45,80
76440,note_on,21,0,9,,,,,,,,12,,,57,80
76440,note_on,21,0,11,,,,,,,,14,,,57,80
76539,note_on,99,0,12,,,,,,,,15,,,45,0
76539,note_on,99,0,8,,,,,,,,11,,,69,0
76539,note_on,99,0,10,,,,,,,,13,,,69,0
76539,note_on,99,0,11,,,,,,,,14,,,57,0
76539,note_on,99,0,9,,,,,,,,12,,,57,0
76560,note_on,21,0,12,,,,,,,,15,,,47,80
76560,note_on,21,0,10,,,,,,,,13,,,71,80
76560,note_on,21,0,9,,,,,,,,12,,,59,80
76560,note_on,21,0,11,,,,,,,,14,,,59,80
76560,note_on,21,0,8,,,,,,,,11,,,71,80
76659,note_on,99,0,10,,,,,,,,13,,,71,0
76659,note_on,99,0,11,,,,,,,,14,,,59,0
76659,note_on,99,0,8,,,,,,,,11,,,71,0
76659,note_on,99,0,9,,,,,,,,12,,,59,0
76659,note_on,99,0,12,,,,,,,,15,,,47,0
76680,note_on,21,0,11,,,,,,,,14,,,55,80
76680,note_on,21,0,10,,,,,,,,13,,,67,80
76680,note_on,21,0,9,,,,,,,,12,,,55,80
76680,note_on,21,0,12,,,,,,,,15,,,43,80
76680,note_on,21,0,8,,,,,,,,11,,,67,80
76779,note_on,99,0,9,,,,,,,,12,,,55,0
76779,note_on,99,0,11,,,,,,,,14,,,55,0
76779,note_on,99,0,10,,,,,,,,13,,,67,0
76779,note_on,99,0,12,,,,,,,,15,,,43,0
76779,note_on,99,0,8,,,,,,,,11,,,67,0
76799,note_on,0,0,7,,,,,,,,2,,,67,0
76799,note_on,479,0,7,,,,,,,,2,,,55,0
76799,note_on,479,0,5,,,,,,,,0,,,67,0
76799,note_on,0,0,6,,,,,,,,1,,,55,0
76799,note_on,479,0,6,,,,,,,,1,,,43,0
76799,note_on,0,0,5,,,,,,,,0,,,79,0
76800,note_on,21,0,9,,,,,,,,12,,,60,44
76800,note_on,21,0,10,,,,,,,,13,,,72,44
76800,note_on,21,0,12,,,,,,,,15,,,48,44
76800,note_on,21,0,11,,,,,,,,14,,,60,44
76800,note_on,21,0,8,,,,,,,,11,,,79,44
76839,note_on,39,0,8,,,,,,,,11,,,79,0
76840,note_on,1,0,8,,,,,,,,11,,,81,44
76879,note_on,39,0,8,,,,,,,,11,,,81,0
76880,note_on,1,0,8,,,,,,,,11,,,79,44
76899,note_on,99,0,9,,,,,,,,12,,,60,0
76919,note_on,39,0,8,,,,,,,,11,,,79,0
76920,note_on,1,0,8,,,,,,,,11,,,77,44
76920,note_on,21,0,9,,,,,,,,12,,,62,44
76979,note_on,59,0,8,,,,,,,,11,,,77,0
76980,note_on,1,0,8,,,,,,,,11,,,79,44
77019,note_on,99,0,9,,,,,,,,12,,,62,0
77039,note_on,239,0,12,,,,,,,,15,,,48,0
77039,note_on,239,0,10,,,,,,,,13,,,72,0
77039,note_on,59,0,8,,,,,,,,11,,,79,0
77039,note_on,239,0,11,,,,,,,,14,,,60,0
77040,note_on,21,0,9,,,,,,,,12,,,64,44
77139,note_on,99,0,9,,,,,,,,12,,,64,0
77160,note_on,21,0,9,,,,,,,,12,,,60,44
77259,note_on,99,0,9,,,,,,,,12,,,60,0
77280,note_on,21,0,9,,,,,,,,12,,,62,44
77280,note_on,241,0,8,,,,,,,,11,,,77,44
77319,note_on,39,0,8,,,,,,,,11,,,77,0
77320,note_on,1,0,8,,,,,,,,11,,,79,44
77359,note_on,39,0,8,,,,,,,,11,,,79,0
77360,note_on,1,0,8,,,,,,,,11,,,77,44
77379,note_on,99,0,9,,,,,,,,12,,,62,0
77399,note_on,39,0,8,,,,,,,,11,,,77,0
77400,note_on,21,0,9,,,,,,,,12,,,64,44
77400,note_on,1,0,8,,,,,,,,11,,,76,44
77459,note_on,59,0,8,,,,,,,,11,,,76,0
77460,note_on,1,0,8,,,,,,,,11,,,77,44
77499,note_on,99,0,9,,,,,,,,12,,,64,0
77519,note_on,59,0,8,,,,,,,,11,,,77,0
77520,note_on,21,0,9,,,,,,,,12,,,65,44
77619,note_on,99,0,9,,,,,,,,12,,,65,0
77640,note_on,21,0,9,,,,,,,,12,,,62,44
77739,note_on,99,0,9,,,,,,,,12,,,62,0
77760,note_on,241,0,8,,,,,,,,11,,,76,44
77760,note_on,21,0,9,,,,,,,,12,,,64,44
77799,note_on,39,0,8,,,,,,,,11,,,76,0
77800,note_on,1,0,8,,,,,,,,11,,,77,44
77839,note_on,39,0,8,,,,,,,,11,,,77,0
77840,note_on,1,0,8,,,,,,,,11,,,76,44
77859,note_on,99,0,9,,,,,,,,12,,,64,0
77879,note_on,39,0,8,,,,,,,,11,,,76,0
77880,note_on,21,0,9,,,,,,,,12,,,65,44
77880,note_on,1,0,8,,,,,,,,11,,,74,44
77939,note_on,59,0,8,,,,,,,,11,,,74,0
77940,note_on,1,0,8,,,,,,,,11,,,76,44
77979,note_on,99,0,9,,,,,,,,12,,,65,0
77999,note_on,59,0,8,,,,,,,,11,,,76,0
78000,note_on,21,0,9,,,,,,,,12,,,67,44
78099,note_on,99,0,9,,,,,,,,12,,,67,0
78120,note_on,21,0,9,,,,,,,,12,,,64,44
78219,note_on,99,0,9,,,,,,,,12,,,64,0
78240,note_on,241,0,8,,,,,,,,11,,,74,44
78240,note_on,21,0,9,,,,,,,,12,,,65,44
78279,note_on,39,0,8,,,,,,,,11,,,74,0
78280,note_on,1,0,8,,,,,,,,11,,,76,44
78319,note_on,39,0,8,,,,,,,,11,,,76,0
78320,note_on,1,0,8,,,,,,,,11,,,74,44
78339,note_on,99,0,9,,,,,,,,12,,,65,0
78359,note_on,39,0,8,,,,,,,,11,,,74,0
78360,note_on,21,0,9,,,,,,,,12,,,67,44
78360,note_on,1,0,8,,,,,,,,11,,,72,44
78419,note_on,59,0,8,,,,,,,,11,,,72,0
78420,note_on,1,0,8,,,,,,,,11,,,74,44
78459,note_on,99,0,9,,,,,,,,12,,,67,0
78479,note_on,59,0,8,,,,,,,,11,,,74,0
78480,note_on,21,0,9,,,,,,,,12,,,69,44
78579,note_on,99,0,9,,,,,,,,12,,,69,0
78600,note_on,21,0,9,,,,,,,,12,,,65,44
78699,note_on,99,0,9,,,,,,,,12,,,65,0
78720,note_on,21,0,9,,,,,,,,12,,,64,44
78720,note_on,241,0,8,,,,,,,,11,,,72,44
78759,note_on,39,0,8,,,,,,,,11,,,72,0
78760,note_on,1,0,8,,,,,,,,11,,,74,44
78799,note_on,39,0,8,,,,,,,,11,,,74,0
78800,note_on,1,0,8,,,,,,,,11,,,72,44
78819,note_on,99,0,9,,,,,,,,12,,,64,0
78839,note_on,39,0,8,,,,,,,,11,,,72,0
78840,note_on,1,0,8,,,,,,,,11,,,71,44
78840,note_on,21,0,9,,,,,,,,12,,,65,44
78899,note_on,59,0,8,,,,,,,,11,,,71,0
78900,note_on,1,0,8,,,,,,,,11,,,72,44
78939,note_on,99,0,9,,,,,,,,12,,,65,0
78959,note_on,59,0,8,,,,,,,,11,,,72,0
78960,note_on,21,0,9,,,,,,,,12,,,67,44
79059,note_on,99,0,9,,,,,,,,12,,,67,0
79080,note_on,21,0,9,,,,,,,,12,,,64,44
79179,note_on,99,0,9,,,,,,,,12,,,64,0
79200,note_on,21,0,9,,,,,,,,12,,,62,44
79200,note_on,241,0,8,,,,,,,,11,,,71,44
79239,note_on,39,0,8,,,,,,,,11,,,71,0
79240,note_on,1,0,8,,,,,,,,11,,,72,44
79279,note_on,39,0,8,,,,,,,,11,,,72,0
79280,note_on,1,0,8,,,,,,,,11,,,71,44
79299,note_on,99,0,9,,,,,,,,12,,,62,0
79319,note_on,39,0,8,,,,,,,,11,,,71,0
79320,note_on,1,0,8,,,,,,,,11,,,69,44
79320,note_on,21,0,9,,,,,,,,12,,,64,44
79379,note_on,59,0,8,,,,,,,,11,,,69,0
79380,note_on,1,0,8,,,,,,,,11,,,71,44
79419,note_on,99,0,9,,,,,,,,12,,,64,0
79439,note_on,59,0,8,,,,,,,,11,,,71,0
79440,note_on,21,0,9,,,,,,,,12,,,65,44
79539,note_on,99,0,9,,,,,,,,12,,,65,0
79560,note_on,21,0,9,,,,,,,,12,,,62,44
79659,note_on,99,0,9,,,,,,,,12,,,62,0
79680,note_on,21,0,9,,,,,,,,12,,,64,44
79680,note_on,241,0,8,,,,,,,,11,,,72,44
79779,note_on,99,0,9,,,,,,,,12,,,64,0
79799,note_on,119,0,8,,,,,,,,11,,,72,0
79800,note_on,21,0,9,,,,,,,,12,,,55,44
79899,note_on,99,0,9,,,,,,,,12,,,55,0
79920,note_on,21,0,9,,,,,,,,12,,,59,44
79920,note_on,121,0,8,,,,,,,,11,,,74,44
80019,note_on,99,0,9,,,,,,,,12,,,59,0
80039,note_on,119,0,8,,,,,,,,11,,,74,0
80040,note_on,21,0,9,,,,,,,,12,,,55,44
80139,note_on,99,0,9,,,,,,,,12,,,55,0
80160,note_on,121,0,8,,,,,,,,11,,,76,44
80160,note_on,21,0,9,,,,,,,,12,,,60,44
80259,note_on,99,0,9,,,,,,,,12,,,60,0
80279,note_on,119,0,8,,,,,,,,11,,,76,0
80280,note_on,21,0,9,,,,,,,,12,,,55,44
80379,note_on,99,0,9,,,,,,,,12,,,55,0
80400,note_on,121,0,8,,,,,,,,11,,,77,44
80400,note_on,21,0,9,,,,,,,,12,,,62,44
80499,note_on,99,0,9,,,,,,,,12,,,62,0
80519,note_on,119,0,8,,,,,,,,11,,,77,0
80520,note_on,21,0,9,,,,,,,,12,,,55,44
80619,note_on,99,0,9,,,,,,,,12,,,55,0
80640,note_on,121,0,8,,,,,,,,11,,,79,44
80640,note_on,21,0,9,,,,,,,,12,,,60,44
80679,note_on,39,0,8,,,,,,,,11,,,79,0
80680,note_on,1,0,8,,,,,,,,11,,,81,44
80719,note_on,39,0,8,,,,,,,,11,,,81,0
80720,note_on,1,0,8,,,,,,,,11,,,79,44
80739,note_on,99,0,9,,,,,,,,12,,,60,0
80759,note_on,39,0,8,,,,,,,,11,,,79,0
80760,note_on,21,0,9,,,,,,,,12,,,62,44
80760,note_on,1,0,8,,,,,,,,11,,,77,44
80819,note_on,59,0,8,,,,,,,,11,,,77,0
80820,note_on,1,0,8,,,,,,,,11,,,79,44
80859,note_on,99,0,9,,,,,,,,12,,,62,0
80879,note_on,59,0,8,,,,,,,,11,,,79,0
80880,note_on,21,0,9,,,,,,,,12,,,64,44
80979,note_on,99,0,9,,,,,,,,12,,,64,0
81000,note_on,21,0,9,,,,,,,,12,,,60,44
81099,note_on,99,0,9,,,,,,,,12,,,60,0
81120,note_on,21,0,9,,,,,,,,12,,,62,44
81120,note_on,241,0,8,,,,,,,,11,,,77,44
81159,note_on,39,0,8,,,,,,,,11,,,77,0
81160,note_on,1,0,8,,,,,,,,11,,,79,44
81199,note_on,39,0,8,,,,,,,,11,,,79,0
81200,note_on,1,0,8,,,,,,,,11,,,77,44
81219,note_on,99,0,9,,,,,,,,12,,,62,0
81239,note_on,39,0,8,,,,,,,,11,,,77,0
81240,note_on,21,0,9,,,,,,,,12,,,64,44
81240,note_on,1,0,8,,,,,,,,11,,,76,44
81299,note_on,59,0,8,,,,,,,,11,,,76,0
81300,note_on,1,0,8,,,,,,,,11,,,77,44
81339,note_on,99,0,9,,,,,,,,12,,,64,0
81359,note_on,59,0,8,,,,,,,,11,,,77,0
81360,note_on,21,0,9,,,,,,,,12,,,65,44
81459,note_on,99,0,9,,,,,,,,12,,,65,0
81480,note_on,21,0,9,,,,,,,,12,,,62,44
81579,note_on,99,0,9,,,,,,,,12,,,62,0
81600,note_on,21,0,9,,,,,,,,12,,,64,44
81600,note_on,241,0,8,,,,,,,,11,,,76,44
81639,note_on,39,0,8,,,,,,,,11,,,76,0
81640,note_on,1,0,8,,,,,,,,11,,,77,44
81679,note_on,39,0,8,,,,,,,,11,,,77,0
81680,note_on,1,0,8,,,,,,,,11,,,76,44
81699,note_on,99,0,9,,,,,,,,12,,,64,0
81719,note_on,39,0,8,,,,,,,,11,,,76,0
81720,note_on,21,0,9,,,,,,,,12,,,65,44
81720,note_on,1,0,8,,,,,,,,11,,,74,44
81779,note_on,59,0,8,,,,,,,,11,,,74,0
81780,note_on,1,0,8,,,,,,,,11,,,76,44
81819,note_on,99,0,9,,,,,,,,12,,,65,0
81839,note_on,59,0,8,,,,,,,,11,,,76,0
81840,note_on,21,0,9,,,,,,,,12,,,67,44
81939,note_on,99,0,9,,,,,,,,12,,,67,0
81960,note_on,21,0,9,,,,,,,,12,,,64,44
82059,note_on,99,0,9,,,,,,,,12,,,64,0
82080,note_on,21,0,9,,,,,,,,12,,,65,44
82080,note_on,241,0,8,,,,,,,,11,,,74,44
82119,note_on,39,0,8,,,,,,,,11,,,74,0
82120,note_on,1,0,8,,,,,,,,11,,,76,44
82159,note_on,39,0,8,,,,,,,,11,,,76,0
82160,note_on,1,0,8,,,,,,,,11,,,74,44
82179,note_on,99,0,9,,,,,,,,12,,,65,0
82199,note_on,39,0,8,,,,,,,,11,,,74,0
82200,note_on,1,0,8,,,,,,,,11,,,72,44
82200,note_on,21,0,9,,,,,,,,12,,,67,44
82259,note_on,59,0,8,,,,,,,,11,,,72,0
82260,note_on,1,0,8,,,,,,,,11,,,74,44
82299,note_on,99,0,9,,,,,,,,12,,,67,0
82319,note_on,59,0,8,,,,,,,,11,,,74,0
82320,note_on,21,0,9,,,,,,,,12,,,69,44
82419,note_on,99,0,9,,,,,,,,12,,,69,0
82440,note_on,21,0,9,,,,,,,,12,,,65,44
82539,note_on,99,0,9,,,,,,,,12,,,65,0
82560,note_on,21,0,9,,,,,,,,12,,,64,44
82560,note_on,241,0,8,,,,,,,,11,,,72,44
82599,note_on,39,0,8,,,,,,,,11,,,72,0
82600,note_on,1,0,8,,,,,,,,11,,,74,44
82639,note_on,39,0,8,,,,,,,,11,,,74,0
82640,note_on,1,0,8,,,,,,,,11,,,72,44
82659,note_on,99,0,9,,,,,,,,12,,,64,0
82679,note_on,39,0,8,,,,,,,,11,,,72,0
82680,note_on,21,0,9,,,,,,,,12,,,65,44
82680,note_on,1,0,8,,,,,,,,11,,,71,44
82739,note_on,59,0,8,,,,,,,,11,,,71,0
82740,note_on,1,0,8,,,,,,,,11,,,72,44
82779,note_on,99,0,9,,,,,,,,12,,,65,0
82799,note_on,59,0,8,,,,,,,,11,,,72,0
82800,note_on,21,0,9,,,,,,,,12,,,67,44
82899,note_on,99,0,9,,,,,,,,12,,,67,0
82920,note_on,21,0,9,,,,,,,,12,,,64,44
83019,note_on,99,0,9,,,,,,,,12,,,64,0
83040,note_on,241,0,8,,,,,,,,11,,,71,44
83040,note_on,21,0,9,,,,,,,,12,,,62,44
83079,note_on,39,0,8,,,,,,,,11,,,71,0
83080,note_on,1,0,8,,,,,,,,11,,,72,44
83119,note_on,39,0,8,,,,,,,,11,,,72,0
83120,note_on,1,0,8,,,,,,,,11,,,71,44
83139,note_on,99,0,9,,,,,,,,12,,,62,0
83159,note_on,39,0,8,,,,,,,,11,,,71,0
83160,note_on,1,0,8,,,,,,,,11,,,69,44
83160,note_on,21,0,9,,,,,,,,12,,,64,44
83219,note_on,59,0,8,,,,,,,,11,,,69,0
83220,note_on,1,0,8,,,,,,,,11,,,71,44
83259,note_on,99,0,9,,,,,,,,12,,,64,0
83279,note_on,59,0,8,,,,,,,,11,,,71,0
83280,note_on,21,0,9,,,,,,,,12,,,65,44
83379,note_on,99,0,9,,,,,,,,12,,,65,0
83400,note_on,21,0,9,,,,,,,,12,,,62,44
83499,note_on,99,0,9,,,,,,,,12,,,62,0
83520,note_on,6721,0,7,,,,,,,,2,,,72,80
83520,note_on,0,0,7,,,,,,,,2,,,60,80
83520,note_on,6721,0,5,,,,,,,,0,,,84,80
83520,note_on,0,0,6,,,,,,,,1,,,60,80
83520,note_on,0,0,5,,,,,,,,0,,,72,80
83520,note_on,6481,0,11,,,,,,,,14,,,60,80
83520,note_on,6721,0,6,,,,,,,,1,,,48,80
83520,note_on,6481,0,12,,,,,,,,15,,,48,80
83520,note_on,6481,0,10,,,,,,,,13,,,72,80
83520,note_on,21,0,9,,,,,,,,12,,,60,80
83520,note_on,241,0,8,,,,,,,,11,,,72,80
83619,note_on,99,0,8,,,,,,,,11,,,72,0
83619,note_on,99,0,12,,,,,,,,15,,,48,0
83619,note_on,99,0,9,,,,,,,,12,,,60,0
83619,note_on,99,0,10,,,,,,,,13,,,72,0
83619,note_on,99,0,11,,,,,,,,14,,,60,0
83640,note_on,21,0,12,,,,,,,,15,,,50,80
83640,note_on,21,0,9,,,,,,,,12,,,62,80
83640,note_on,21,0,8,,,,,,,,11,,,74,80
83640,note_on,21,0,11,,,,,,,,14,,,62,80
83640,note_on,21,0,10,,,,,,,,13,,,74,80
83739,note_on,99,0,8,,,,,,,,11,,,74,0
83739,note_on,99,0,11,,,,,,,,14,,,62,0
83739,note_on,99,0,10,,,,,,,,13,,,74,0
83739,note_on,99,0,12,,,,,,,,15,,,50,0
83739,note_on,99,0,9,,,,,,,,12,,,62,0
83760,note_on,21,0,11,,,,,,,,14,,,64,80
83760,note_on,21,0,12,,,,,,,,15,,,52,80
83760,note_on,21,0,9,,,,,,,,12,,,64,80
83760,note_on,21,0,10,,,,,,,,13,,,76,80
83760,note_on,21,0,8,,,,,,,,11,,,76,80
83859,note_on,99,0,12,,,,,,,,15,,,52,0
83859,note_on,99,0,9,,,,,,,,12,,,64,0
83859,note_on,99,0,10,,,,,,,,13,,,76,0
83859,note_on,99,0,11,,,,,,,,14,,,64,0
83859,note_on,99,0,8,,,,,,,,11,,,76,0
83880,note_on,21,0,11,,,,,,,,14,,,60,80
83880,note_on,21,0,9,,,,,,,,12,,,60,80
83880,note_on,21,0,10,,,,,,,,13,,,72,80
83880,note_on,21,0,8,,,,,,,,11,,,72,80
83880,note_on,21,0,12,,,,,,,,15,,,48,80
83979,note_on,0,0,5,,,,,,,,0,,,84,0
83979,note_on,99,0,11,,,,,,,,14,,,60,0
83979,note_on,99,0,9,,,,,,,,12,,,60,0
83979,note_on,459,0,5,,,,,,,,0,,,72,0
83979,note_on,459,0,7,,,,,,,,2,,,60,0
83979,note_on,0,0,6,,,,,,,,1,,,48,0
83979,note_on,459,0,6,,,,,,,,1,,,60,0
83979,note_on,99,0,8,,,,,,,,11,,,72,0
83979,note_on,99,0,12,,,,,,,,15,,,48,0
83979,note_on,0,0,7,,,,,,,,2,,,72,0
83979,note_on,99,0,10,,,,,,,,13,,,72,0
84000,note_on,21,0,12,,,,,,,,15,,,43,80
84000,note_on,0,0,7,,,,,,,,2,,,55,80
84000,note_on,21,0,7,,,,,,,,2,,,67,80
84000,note_on,0,0,6,,,,,,,,1,,,43,80
84000,note_on,21,0,6,,,,,,,,1,,,55,80
84000,note_on,21,0,8,,,,,,,,11,,,67,80
84000,note_on,21,0,10,,,,,,,,13,,,67,80
84000,note_on,21,0,11,,,,,,,,14,,,55,80
84000,note_on,21,0,5,,,,,,,,0,,,79,80
84000,note_on,0,0,5,,,,,,,,0,,,67,80
84000,note_on,21,0,9,,,,,,,,12,,,55,80
84099,note_on,99,0,12,,,,,,,,15,,,43,0
84099,note_on,99,0,10,,,,,,,,13,,,67,0
84099,note_on,99,0,9,,,,,,,,12,,,55,0
84099,note_on,99,0,8,,,,,,,,11,,,67,0
84099,note_on,99,0,11,,,,,,,,14,,,55,0
84120,note_on,21,0,8,,,,,,,,11,,,69,80
84120,note_on,21,0,12,,,,,,,,15,,,45,80
84120,note_on,21,0,11,,,,,,,,14,,,57,80
84120,note_on,21,0,9,,,,,,,,12,,,57,80
84120,note_on,21,0,10,,,,,,,,13,,,69,80
84219,note_on,99,0,9,,,,,,,,12,,,57,0
84219,note_on,99,0,10,,,,,,,,13,,,69,0
84219,note_on,99,0,11,,,,,,,,14,,,57,0
84219,note_on,99,0,12,,,,,,,,15,,,45,0
84219,note_on,99,0,8,,,,,,,,11,,,69,0
84240,note_on,21,0,9,,,,,,,,12,,,59,80
84240,note_on,21,0,10,,,,,,,,13,,,71,80
84240,note_on,21,0,12,,,,,,,,15,,,47,80
84240,note_on,21,0,11,,,,,,,,14,,,59,80
84240,note_on,21,0,8,,,,,,,,11,,,71,80
84339,note_on,99,0,12,,,,,,,,15,,,47,0
84339,note_on,99,0,11,,,,,,,,14,,,59,0
84339,note_on,99,0,10,,,,,,,,13,,,71,0
84339,note_on,99,0,8,,,,,,,,11,,,71,0
84339,note_on,99,0,9,,,,,,,,12,,,59,0
84360,note_on,21,0,8,,,,,,,,11,,,67,80
84360,note_on,21,0,10,,,,,,,,13,,,67,80
84360,note_on,21,0,12,,,,,,,,15,,,43,80
84360,note_on,21,0,9,,,,,,,,12,,,55,80
84360,note_on,21,0,11,,,,,,,,14,,,55,80
84459,note_on,99,0,9,,,,,,,,12,,,55,0
84459,note_on,0,0,7,,,,,,,,2,,,67,0
84459,note_on,0,0,6,,,,,,,,1,,,55,0
84459,note_on,99,0,12,,,,,,,,15,,,43,0
84459,note_on,99,0,10,,,,,,,,13,,,67,0
84459,note_on,99,0,8,,,,,,,,11,,,67,0
84459,note_on,99,0,11,,,,,,,,14,,,55,0
84459,note_on,0,0,5,,,,,,,,0,,,79,0
84459,note_on,459,0,6,,,,,,,,1,,,43,0
84459,note_on,459,0,5,,,,,,,,0,,,67,0
84459,note_on,459,0,7,,,,,,,,2,,,55,0
84480,note_on,0,0,7,,,,,,,,2,,,72,80
84480,note_on,21,0,7,,,,,,,,2,,,60,80
84480,note_on,21,0,6,,,,,,,,1,,,48,80
84480,note_on,21,0,10,,,,,,,,13,,,72,80
84480,note_on,21,0,5,,,,,,,,0,,,72,80
84480,note_on,21,0,12,,,,,,,,15,,,48,80
84480,note_on,0,0,5,,,,,,,,0,,,84,80
84480,note_on,21,0,9,,,,,,,,12,,,60,80
84480,note_on,21,0,8,,,,,,,,11,,,72,80
84480,note_on,21,0,11,,,,,,,,14,,,60,80
84480,note_on,0,0,6,,,,,,,,1,,,60,80
84579,note_on,99,0,9,,,,,,,,12,,,60,0
84579,note_on,99,0,11,,,,,,,,14,,,60,0
84579,note_on,99,0,12,,,,,,,,15,,,48,0
84579,note_on,99,0,8,,,,,,,,11,,,72,0
84579,note_on,99,0,10,,,,,,,,13,,,72,0
84600,note_on,21,0,10,,,,,,,,13,,,74,80
84600,note_on,21,0,11,,,,,,,,14,,,62,80
84600,note_on,21,0,8,,,,,,,,11,,,74,80
84600,note_on,21,0,9,,,,,,,,12,,,62,80
84600,note_on,21,0,12,,,,,,,,15,,,50,80
84699,note_on,99,0,11,,,,,,,,14,,,62,0
84699,note_on,99,0,9,,,,,,,,12,,,62,0
84699,note_on,99,0,12,,,,,,,,15,,,50,0
84699,note_on,99,0,10,,,,,,,,13,,,74,0
84699,note_on,99,0,8,,,,,,,,11,,,74,0
84720,note_on,21,0,12,,,,,,,,15,,,52,80
84720,note_on,21,0,9,,,,,,,,12,,,64,80
84720,note_on,21,0,10,,,,,,,,13,,,76,80
84720,note_on,21,0,8,,,,,,,,11,,,76,80
84720,note_on,21,0,11,,,,,,,,14,,,64,80
84819,note_on,99,0,10,,,,,,,,13,,,76,0
84819,note_on,99,0,11,,,,,,,,14,,,64,0
84819,note_on,99,0,9,,,,,,,,12,,,64,0
84819,note_on,99,0,8,,,,,,,,11,,,76,0
84819,note_on,99,0,12,,,,,,,,15,,,52,0
84840,note_on,21,0,8,,,,,,,,11,,,72,80
84840,note_on,21,0,12,,,,,,,,15,,,48,80
84840,note_on,21,0,10,,,,,,,,13,,,72,80
84840,note_on,21,0,9,,,,,,,,12,,,60,80
84840,note_on,21,0,11,,,,,,,,14,,,60,80
84939,note_on,99,0,10,,,,,,,,13,,,72,0
84939,note_on,459,0,7,,,,,,,,2,,,72,0
84939,note_on,459,0,6,,,,,,,,1,,,60,0
84939,note_on,0,0,6,,,,,,,,1,,,48,0
84939,note_on,0,0,7,,,,,,,,2,,,60,0
84939,note_on,459,0,5,,,,,,,,0,,,84,0
84939,note_on,0,0,5,,,,,,,,0,,,72,0
84939,note_on,99,0,11,,,,,,,,14,,,60,0
84939,note_on,99,0,8,,,,,,,,11,,,72,0
84939,note_on,99,0,9,,,,,,,,12,,,60,0
84939,note_on,99,0,12,,,,,,,,15,,,48,0
84960,note_on,21,0,6,,,,,,,,1,,,55,80
84960,note_on,0,0,6,,,,,,,,1,,,43,80
84960,note_on,21,0,12,,,,,,,,15,,,43,80
84960,note_on,21,0,7,,,,,,,,2,,,67,80
84960,note_on,0,0,5,,,,,,,,0,,,79,80
84960,note_on,0,0,7,,,,,,,,2,,,55,80
84960,note_on,21,0,8,,,,,,,,11,,,67,80
84960,note_on,21,0,9,,,,,,,,12,,,55,80
84960,note_on,21,0,10,,,,,,,,13,,,67,80
84960,note_on,21,0,11,,,,,,,,14,,,55,80
84960,note_on,21,0,5,,,,,,,,0,,,67,80
85059,note_on,99,0,10,,,,,,,,13,,,67,0
85059,note_on,99,0,12,,,,,,,,15,,,43,0
85059,note_on,99,0,8,,,,,,,,11,,,67,0
85059,note_on,99,0,9,,,,,,,,12,,,55,0
85059,note_on,99,0,11,,,,,,,,14,,,55,0
85080,note_on,21,0,12,,,,,,,,15,,,45,80
85080,note_on,21,0,9,,,,,,,,12,,,57,80
85080,note_on,21,0,11,,,,,,,,14,,,57,80
85080,note_on,21,0,10,,,,,,,,13,,,69,80
85080,note_on,21,0,8,,,,,,,,11,,,69,80
85179,note_on,99,0,10,,,,,,,,13,,,69,0
85179,note_on,99,0,11,,,,,,,,14,,,57,0
85179,note_on,99,0,9,,,,,,,,12,,,57,0
85179,note_on,99,0,8,,,,,,,,11,,,69,0
85179,note_on,99,0,12,,,,,,,,15,,,45,0
85200,note_on,21,0,9,,,,,,,,12,,,59,80
85200,note_on,21,0,10,,,,,,,,13,,,71,80
85200,note_on,21,0,12,,,,,,,,15,,,47,80
85200,note_on,21,0,8,,,,,,,,11,,,71,80
85200,note_on,21,0,11,,,,,,,,14,,,59,80
85299,note_on,99,0,11,,,,,,,,14,,,59,0
85299,note_on,99,0,12,,,,,,,,15,,,47,0
85299,note_on,99,0,10,,,,,,,,13,,,71,0
85299,note_on,99,0,9,,,,,,,,12,,,59,0
85299,note_on,99,0,8,,,,,,,,11,,,71,0
85320,note_on,21,0,12,,,,,,,,15,,,43,80
85320,note_on,21,0,11,,,,,,,,14,,,55,80
85320,note_on,21,0,10,,,,,,,,13,,,67,80
85320,note_on,21,0,9,,,,,,,,12,,,55,80
85320,note_on,21,0,8,,,,,,,,11,,,67,80
85419,note_on,99,0,10,,,,,,,,13,,,67,0
85419,note_on,99,0,11,,,,,,,,14,,,55,0
85419,note_on,99,0,12,,,,,,,,15,,,43,0
85419,note_on,99,0,9,,,,,,,,12,,,55,0
85419,note_on,99,0,8,,,,,,,,11,,,67,0
85439,note_on,0,0,5,,,,,,,,0,,,67,0
85439,note_on,0,0,6,,,,,,,,1,,,55,0
85439,note_on,479,0,6,,,,,,,,1,,,43,0
85439,note_on,479,0,5,,,,,,,,0,,,79,0
85439,note_on,0,0,7,,,,,,,,2,,,67,0
85439,note_on,479,0,7,,,,,,,,2,,,55,0
85440,note_on,21,0,9,,,,,,,,12,,,60,80
85440,note_on,21,0,12,,,,,,,,15,,,48,80
85440,note_on,21,0,11,,,,,,,,14,,,60,80
85440,note_on,21,0,8,,,,,,,,11,,,76,80
85440,note_on,21,0,10,,,,,,,,13,,,72,80
85539,note_on,99,0,9,,,,,,,,12,,,60,0
85539,note_on,99,0,8,,,,,,,,11,,,76,0
85560,note_on,21,0,9,,,,,,,,12,,,62,80
85560,note_on,21,0,8,,,,,,,,11,,,77,80
85659,note_on,99,0,8,,,,,,,,11,,,77,0
85659,note_on,99,0,9,,,,,,,,12,,,62,0
85680,note_on,21,0,9,,,,,,,,12,,,64,80
85680,note_on,21,0,8,,,,,,,,11,,,79,80
85779,note_on,99,0,9,,,,,,,,12,,,64,0
85779,note_on,99,0,8,,,,,,,,11,,,79,0
85800,note_on,21,0,8,,,,,,,,11,,,76,80
85800,note_on,21,0,9,,,,,,,,12,,,60,80
85899,note_on,99,0,9,,,,,,,,12,,,60,0
85899,note_on,99,0,8,,,,,,,,11,,,76,0
85919,note_on,479,0,11,,,,,,,,14,,,60,0
85919,note_on,479,0,10,,,,,,,,13,,,72,0
85919,note_on,479,0,12,,,,,,,,15,,,48,0
85920,note_on,21,0,8,,,,,,,,11,,,78,80
85920,note_on,21,0,9,,,,,,,,12,,,62,80
86019,note_on,99,0,9,,,,,,,,12,,,62,0
86019,note_on,99,0,8,,,,,,,,11,,,78,0
86040,note_on,21,0,8,,,,,,,,11,,,79,80
86040,note_on,21,0,9,,,,,,,,12,,,64,80
86139,note_on,99,0,9,,,,,,,,12,,,64,0
86139,note_on,99,0,8,,,,,,,,11,,,79,0
86160,note_on,21,0,9,,,,,,,,12,,,66,80
86160,note_on,21,0,8,,,,,,,,11,,,81,80
86259,note_on,99,0,8,,,,,,,,11,,,81,0
86259,note_on,99,0,9,,,,,,,,12,,,66,0
86280,note_on,21,0,9,,,,,,,,12,,,62,80
86280,note_on,21,0,8,,,,,,,,11,,,78,80
86379,note_on,99,0,9,,,,,,,,12,,,62,0
86379,note_on,99,0,8,,,,,,,,11,,,78,0
86400,note_on,21,0,9,,,,,,,,12,,,64,80
86400,note_on,21,0,8,,,,,,,,11,,,79,80
86499,note_on,99,0,8,,,,,,,,11,,,79,0
86499,note_on,99,0,9,,,,,,,,12,,,64,0
86520,note_on,21,0,9,,,,,,,,12,,,66,80
86520,note_on,21,0,8,,,,,,,,11,,,81,80
86619,note_on,99,0,8,,,,,,,,11,,,81,0
86619,note_on,99,0,9,,,,,,,,12,,,66,0
86640,note_on,21,0,9,,,,,,,,12,,,67,80
86640,note_on,21,0,8,,,,,,,,11,,,83,80
86739,note_on,99,0,9,,,,,,,,12,,,67,0
86739,note_on,99,0,8,,,,,,,,11,,,83,0
86760,note_on,21,0,8,,,,,,,,11,,,79,80
86760,note_on,21,0,9,,,,,,,,12,,,64,80
86859,note_on,99,0,9,,,,,,,,12,,,64,0
86859,note_on,99,0,8,,,,,,,,11,,,79,0
86880,note_on,21,0,9,,,,,,,,12,,,66,80
86880,note_on,21,0,8,,,,,,,,11,,,81,80
86979,note_on,99,0,9,,,,,,,,12,,,66,0
86979,note_on,99,0,8,,,,,,,,11,,,81,0
87000,note_on,21,0,9,,,,,,,,12,,,67,80
87000,note_on,21,0,8,,,,,,,,11,,,83,80
87099,note_on,99,0,8,,,,,,,,11,,,83,0
87099,note_on,99,0,9,,,,,,,,12,,,67,0
87120,note_on,21,0,9,,,,,,,,12,,,69,80
87120,note_on,21,0,8,,,,,,,,11,,,84,80
87219,note_on,99,0,9,,,,,,,,12,,,69,0
87219,note_on,99,0,8,,,,,,,,11,,,84,0
87240,note_on,21,0,8,,,,,,,,11,,,81,80
87240,note_on,21,0,9,,,,,,,,12,,,66,80
87339,note_on,99,0,9,,,,,,,,12,,,66,0
87339,note_on,99,0,8,,,,,,,,11,,,81,0
87360,note_on,1441,0,11,,,,,,,,14,,,55,80
87360,note_on,1921,0,7,,,,,,,,2,,,67,80
87360,note_on,1441,0,10,,,,,,,,13,,,67,80
87360,note_on,1921,0,6,,,,,,,,1,,,55,80
87360,note_on,0,0,6,,,,,,,,1,,,62,80
87360,note_on,1441,0,12,,,,,,,,15,,,43,80
87360,note_on,1921,0,5,,,,,,,,0,,,74,80
87360,note_on,21,0,9,,,,,,,,12,,,62,80
87360,note_on,21,0,8,,,,,,,,11,,,83,80
87459,note_on,99,0,12,,,,,,,,15,,,43,0
87459,note_on,99,0,10,,,,,,,,13,,,67,0
87459,note_on,99,0,11,,,,,,,,14,,,55,0
87459,note_on,99,0,8,,,,,,,,11,,,83,0
87480,note_on,21,0,8,,,,,,,,11,,,84,80
87480,note_on,21,0,11,,,,,,,,14,,,57,80
87480,note_on,21,0,10,,,,,,,,13,,,69,80
87480,note_on,21,0,12,,,,,,,,15,,,45,80
87579,note_on,99,0,12,,,,,,,,15,,,45,0
87579,note_on,99,0,10,,,,,,,,13,,,69,0
87579,note_on,99,0,8,,,,,,,,11,,,84,0
87579,note_on,219,0,9,,,,,,,,12,,,62,0
87579,note_on,99,0,11,,,,,,,,14,,,57,0
87599,note_on,239,0,7,,,,,,,,2,,,67,0
87600,note_on,21,0,8,,,,,,,,11,,,86,80
87600,note_on,21,0,10,,,,,,,,13,,,71,80
87600,note_on,21,0,12,,,,,,,,15,,,47,80
87600,note_on,21,0,11,,,,,,,,14,,,59,80
87600,note_on,21,0,9,,,,,,,,12,,,67,80
87699,note_on,99,0,8,,,,,,,,11,,,86,0
87699,note_on,99,0,12,,,,,,,,15,,,47,0
87699,note_on,99,0,11,,,,,,,,14,,,59,0
87699,note_on,99,0,10,,,,,,,,13,,,71,0
87720,note_on,21,0,8,,,,,,,,11,,,83,80
87720,note_on,21,0,12,,,,,,,,15,,,43,80
87720,note_on,21,0,11,,,,,,,,14,,,55,80
87720,note_on,21,0,10,,,,,,,,13,,,67,80
87819,note_on,99,0,8,,,,,,,,11,,,83,0
87819,note_on,99,0,11,,,,,,,,14,,,55,0
87819,note_on,99,0,10,,,,,,,,13,,,67,0
87819,note_on,459,0,6,,,,,,,,1,,,62,0
87819,note_on,99,0,12,,,,,,,,15,,,43,0
87840,note_on,21,0,6,,,,,,,,1,,,64,80
87840,note_on,21,0,11,,,,,,,,14,,,60,80
87840,note_on,21,0,12,,,,,,,,15,,,48,80
87840,note_on,480,0,5,,,,,,,,0,,,76,80
87840,note_on,21,0,10,,,,,,,,13,,,72,80
87840,note_on,21,0,8,,,,,,,,11,,,76,80
87939,note_on,99,0,8,,,,,,,,11,,,76,0
87939,note_on,99,0,11,,,,,,,,14,,,60,0
87939,note_on,99,0,12,,,,,,,,15,,,48,0
87939,note_on,99,0,10,,,,,,,,13,,,72,0
87960,note_on,21,0,8,,,,,,,,11,,,78,80
87960,note_on,21,0,11,,,,,,,,14,,,62,80
87960,note_on,21,0,10,,,,,,,,13,,,74,80
87960,note_on,21,0,12,,,,,,,,15,,,50,80
88059,note_on,99,0,12,,,,,,,,15,,,50,0
88059,note_on,99,0,8,,,,,,,,11,,,78,0
88059,note_on,99,0,11,,,,,,,,14,,,62,0
88059,note_on,459,0,9,,,,,,,,12,,,67,0
88059,note_on,99,0,10,,,,,,,,13,,,74,0
88080,note_on,21,0,8,,,,,,,,11,,,79,80
88080,note_on,21,0,9,,,,,,,,12,,,60,80
88080,note_on,21,0,12,,,,,,,,15,,,52,80
88080,note_on,21,0,10,,,,,,,,13,,,76,80
88080,note_on,21,0,11,,,,,,,,14,,,64,80
88179,note_on,99,0,12,,,,,,,,15,,,52,0
88179,note_on,99,0,10,,,,,,,,13,,,76,0
88179,note_on,99,0,11,,,,,,,,14,,,64,0
88179,note_on,99,0,8,,,,,,,,11,,,79,0
88200,note_on,21,0,12,,,,,,,,15,,,48,80
88200,note_on,21,0,10,,,,,,,,13,,,72,80
88200,note_on,21,0,11,,,,,,,,14,,,60,80
88200,note_on,21,0,8,,,,,,,,11,,,76,80
88299,note_on,459,0,6,,,,,,,,1,,,55,0
88299,note_on,99,0,11,,,,,,,,14,,,60,0
88299,note_on,99,0,12,,,,,,,,15,,,48,0
88299,note_on,459,0,5,,,,,,,,0,,,74,0
88299,note_on,99,0,10,,,,,,,,13,,,72,0
88299,note_on,99,0,8,,,,,,,,11,,,76,0
88320,note_on,21,0,6,,,,,,,,1,,,60,80
88320,note_on,21,0,10,,,,,,,,13,,,66,80
88320,note_on,21,0,8,,,,,,,,11,,,81,80
88320,note_on,21,0,12,,,,,,,,15,,,42,80
88320,note_on,21,0,11,,,,,,,,14,,,54,80
88320,note_on,21,0,5,,,,,,,,0,,,72,80
88419,note_on,99,0,10,,,,,,,,13,,,66,0
88419,note_on,99,0,12,,,,,,,,15,,,42,0
88419,note_on,99,0,11,,,,,,,,14,,,54,0
88419,note_on,99,0,8,,,,,,,,11,,,81,0
88440,note_on,21,0,12,,,,,,,,15,,,43,80
88440,note_on,21,0,10,,,,,,,,13,,,67,80
88440,note_on,21,0,11,,,,,,,,14,,,55,80
88440,note_on,21,0,8,,,,,,,,11,,,83,80
88539,note_on,459,0,9,,,,,,,,12,,,60,0
88539,note_on,99,0,8,,,,,,,,11,,,83,0
88539,note_on,99,0,11,,,,,,,,14,,,55,0
88539,note_on,99,0,12,,,,,,,,15,,,43,0
88539,note_on,99,0,10,,,,,,,,13,,,67,0
88560,note_on,21,0,10,,,,,,,,13,,,69,80
88560,note_on,21,0,8,,,,,,,,11,,,84,80
88560,note_on,21,0,12,,,,,,,,15,,,45,80
88560,note_on,21,0,9,,,,,,,,12,,,66,80
88560,note_on,21,0,11,,,,,,,,14,,,57,80
88659,note_on,99,0,12,,,,,,,,15,,,45,0
88659,note_on,99,0,8,,,,,,,,11,,,84,0
88659,note_on,99,0,10,,,,,,,,13,,,69,0
88659,note_on,99,0,11,,,,,,,,14,,,57,0
88680,note_on,21,0,10,,,,,,,,13,,,66,80
88680,note_on,21,0,11,,,,,,,,14,,,54,80
88680,note_on,21,0,8,,,,,,,,11,,,81,80
88680,note_on,21,0,12,,,,,,,,15,,,42,80
88779,note_on,459,0,5,,,,,,,,0,,,76,0
88779,note_on,99,0,10,,,,,,,,13,,,66,0
88779,note_on,99,0,8,,,,,,,,11,,,81,0
88779,note_on,459,0,6,,,,,,,,1,,,64,0
88779,note_on,99,0,11,,,,,,,,14,,,54,0
88779,note_on,99,0,12,,,,,,,,15,,,42,0
88800,note_on,21,0,11,,,,,,,,14,,,59,80
88800,note_on,21,0,10,,,,,,,,13,,,71,80
88800,note_on,21,0,5,,,,,,,,0,,,74,80
88800,note_on,21,0,8,,,,,,,,11,,,74,80
88800,note_on,21,0,6,,,,,,,,1,,,62,80
88800,note_on,21,0,12,,,,,,,,15,,,47,80
88899,note_on,99,0,12,,,,,,,,15,,,47,0
88899,note_on,99,0,11,,,,,,,,14,,,59,0
88899,note_on,99,0,8,,,,,,,,11,,,74,0
88899,note_on,99,0,10,,,,,,,,13,,,71,0
88920,note_on,21,0,8,,,,,,,,11,,,76,80
88920,note_on,21,0,10,,,,,,,,13,,,72,80
88920,note_on,21,0,11,,,,,,,,14,,,60,80
88920,note_on,21,0,12,,,,,,,,15,,,48,80
89019,note_on,99,0,10,,,,,,,,13,,,72,0
89019,note_on,459,0,9,,,,,,,,12,,,66,0
89019,note_on,99,0,11,,,,,,,,14,,,60,0
89019,note_on,99,0,12,,,,,,,,15,,,48,0
89019,note_on,99,0,8,,,,,,,,11,,,76,0
89040,note_on,21,0,10,,,,,,,,13,,,74,80
89040,note_on,21,0,9,,,,,,,,12,,,59,80
89040,note_on,21,0,11,,,,,,,,14,,,62,80
89040,note_on,21,0,12,,,,,,,,15,,,50,80
89040,note_on,21,0,8,,,,,,,,11,,,78,80
89139,note_on,99,0,10,,,,,,,,13,,,74,0
89139,note_on,99,0,8,,,,,,,,11,,,78,0
89139,note_on,99,0,12,,,,,,,,15,,,50,0
89139,note_on,99,0,11,,,,,,,,14,,,62,0
89160,note_on,21,0,12,,,,,,,,15,,,47,80
89160,note_on,21,0,10,,,,,,,,13,,,71,80
89160,note_on,21,0,8,,,,,,,,11,,,74,80
89160,note_on,21,0,11,,,,,,,,14,,,59,80
89259,note_on,99,0,8,,,,,,,,11,,,74,0
89259,note_on,99,0,11,,,,,,,,14,,,59,0
89259,note_on,99,0,12,,,,,,,,15,,,47,0
89259,note_on,99,0,10,,,,,,,,13,,,71,0
89259,note_on,459,0,6,,,,,,,,1,,,60,0
89259,note_on,459,0,5,,,,,,,,0,,,72,0
89280,note_on,21,0,6,,,,,,,,1,,,55,80
89280,note_on,21,0,12,,,,,,,,15,,,40,80
89280,note_on,21,0,8,,,,,,,,11,,,79,80
89280,note_on,21,0,11,,,,,,,,14,,,52,80
89280,note_on,21,0,5,,,,,,,,0,,,71,80
89280,note_on,21,0,10,,,,,,,,13,,,64,80
89379,note_on,99,0,8,,,,,,,,11,,,79,0
89379,note_on,99,0,11,,,,,,,,14,,,52,0
89379,note_on,99,0,10,,,,,,,,13,,,64,0
89379,note_on,99,0,12,,,,,,,,15,,,40,0
89400,note_on,21,0,12,,,,,,,,15,,,42,80
89400,note_on,21,0,11,,,,,,,,14,,,54,80
89400,note_on,21,0,8,,,,,,,,11,,,81,80
89400,note_on,21,0,10,,,,,,,,13,,,66,80
89499,note_on,99,0,11,,,,,,,,14,,,54,0
89499,note_on,459,0,9,,,,,,,,12,,,59,0
89499,note_on,99,0,12,,,,,,,,15,,,42,0
89499,note_on,99,0,8,,,,,,,,11,,,81,0
89499,note_on,99,0,10,,,,,,,,13,,,66,0
89520,note_on,21,0,8,,,,,,,,11,,,83,80
89520,note_on,21,0,9,,,,,,,,12,,,64,80
89520,note_on,21,0,12,,,,,,,,15,,,43,80
89520,note_on,21,0,11,,,,,,,,14,,,55,80
89520,note_on,21,0,10,,,,,,,,13,,,67,80
89619,note_on,99,0,10,,,,,,,,13,,,67,0
89619,note_on,99,0,12,,,,,,,,15,,,43,0
89619,note_on,99,0,8,,,,,,,,11,,,83,0
89619,note_on,99,0,11,,,,,,,,14,,,55,0
89640,note_on,21,0,12,,,,,,,,15,,,40,80
89640,note_on,21,0,11,,,,,,,,14,,,52,80
89640,note_on,21,0,8,,,,,,,,11,,,79,80
89640,note_on,21,0,10,,,,,,,,13,,,64,80
89739,note_on,99,0,8,,,,,,,,11,,,79,0
89739,note_on,459,0,5,,,,,,,,0,,,74,0
89739,note_on,0,0,6,,,,,,,,1,,,62,0
89739,note_on,459,0,6,,,,,,,,1,,,55,0
89739,note_on,99,0,10,,,,,,,,13,,,64,0
89739,note_on,99,0,12,,,,,,,,15,,,40,0
89739,note_on,99,0,11,,,,,,,,14,,,52,0
89760,note_on,21,0,5,,,,,,,,0,,,72,80
89760,note_on,21,0,6,,,,,,,,1,,,60,80
89760,note_on,21,0,12,,,,,,,,15,,,45,80
89760,note_on,21,0,8,,,,,,,,11,,,72,80
89760,note_on,21,0,11,,,,,,,,14,,,57,80
89760,note_on,21,0,10,,,,,,,,13,,,69,80
89859,note_on,99,0,8,,,,,,,,11,,,72,0
89859,note_on,99,0,12,,,,,,,,15,,,45,0
89859,note_on,99,0,10,,,,,,,,13,,,69,0
89859,note_on,99,0,11,,,,,,,,14,,,57,0
89880,note_on,21,0,8,,,,,,,,11,,,74,80
89880,note_on,21,0,11,,,,,,,,14,,,59,80
89880,note_on,21,0,12,,,,,,,,15,,,47,80
89880,note_on,21,0,10,,,,,,,,13,,,71,80
89979,note_on,99,0,8,,,,,,,,11,,,74,0
89979,note_on,459,0,9,,,,,,,,12,,,64,0
89979,note_on,99,0,12,,,,,,,,15,,,47,0
89979,note_on,99,0,10,,,,,,,,13,,,71,0
89979,note_on,99,0,11,,,,,,,,14,,,59,0
90000,note_on,21,0,12,,,,,,,,15,,,48,80
90000,note_on,21,0,8,,,,,,,,11,,,76,80
90000,note_on,21,0,10,,,,,,,,13,,,72,80
90000,note_on,21,0,9,,,,,,,,12,,,57,80
90000,note_on,21,0,11,,,,,,,,14,,,60,80
90099,note_on,99,0,8,,,,,,,,11,,,76,0
90099,note_on,99,0,12,,,,,,,,15,,,48,0
90099,note_on,99,0,10,,,,,,,,13,,,72,0
90099,note_on,99,0,11,,,,,,,,14,,,60,0
90120,note_on,21,0,11,,,,,,,,14,,,57,80
90120,note_on,21,0,8,,,,,,,,11,,,72,80
90120,note_on,21,0,12,,,,,,,,15,,,45,80
90120,note_on,21,0,10,,,,,,,,13,,,69,80
90219,note_on,99,0,8,,,,,,,,11,,,72,0
90219,note_on,99,0,10,,,,,,,,13,,,69,0
90219,note_on,459,0,5,,,,,,,,0,,,71,0
90219,note_on,99,0,12,,,,,,,,15,,,45,0
90219,note_on,99,0,11,,,,,,,,14,,,57,0
90219,note_on,459,0,6,,,,,,,,1,,,60,0
90240,note_on,21,0,6,,,,,,,,1,,,62,80
90240,note_on,21,0,8,,,,,,,,11,,,78,80
90240,note_on,21,0,5,,,,,,,,0,,,69,80
90240,note_on,21,0,12,,,,,,,,15,,,38,80
90240,note_on,21,0,10,,,,,,,,13,,,62,80
90240,note_on,21,0,11,,,,,,,,14,,,50,80
90240,note_on,0,0,6,,,,,,,,1,,,60,80
90339,note_on,99,0,8,,,,,,,,11,,,78,0
90339,note_on,99,0,12,,,,,,,,15,,,38,0
90339,note_on,99,0,11,,,,,,,,14,,,50,0
90339,note_on,99,0,10,,,,,,,,13,,,62,0
90360,note_on,21,0,10,,,,,,,,13,,,64,80
90360,note_on,21,0,11,,,,,,,,14,,,52,80
90360,note_on,21,0,12,,,,,,,,15,,,40,80
90360,note_on,21,0,8,,,,,,,,11,,,79,80
90459,note_on,99,0,11,,,,,,,,14,,,52,0
90459,note_on,99,0,12,,,,,,,,15,,,40,0
90459,note_on,99,0,10,,,,,,,,13,,,64,0
90459,note_on,459,0,9,,,,,,,,12,,,57,0
90459,note_on,99,0,8,,,,,,,,11,,,79,0
90480,note_on,21,0,12,,,,,,,,15,,,42,80
90480,note_on,21,0,8,,,,,,,,11,,,81,80
90480,note_on,21,0,9,,,,,,,,12,,,62,80
90480,note_on,21,0,10,,,,,,,,13,,,66,80
90480,note_on,21,0,11,,,,,,,,14,,,54,80
90579,note_on,99,0,8,,,,,,,,11,,,81,0
90579,note_on,99,0,10,,,,,,,,13,,,66,0
90579,note_on,99,0,12,,,,,,,,15,,,42,0
90579,note_on,99,0,11,,,,,,,,14,,,54,0
90600,note_on,21,0,10,,,,,,,,13,,,62,80
90600,note_on,21,0,12,,,,,,,,15,,,38,80
90600,note_on,21,0,11,,,,,,,,14,,,50,80
90600,note_on,21,0,8,,,,,,,,11,,,78,80
90699,note_on,99,0,12,,,,,,,,15,,,38,0
90699,note_on,459,0,5,,,,,,,,0,,,69,0
90699,note_on,99,0,11,,,,,,,,14,,,50,0
90699,note_on,0,0,5,,,,,,,,0,,,72,0
90699,note_on,99,0,8,,,,,,,,11,,,78,0
90699,note_on,99,0,10,,,,,,,,13,,,62,0
90699,note_on,459,0,6,,,,,,,,1,,,60,0
90699,note_on,0,0,6,,,,,,,,1,,,62,0
90720,note_on,21,0,8,,,,,,,,11,,,71,80
90720,note_on,21,0,5,,,,,,,,0,,,67,80
90720,note_on,0,0,5,,,,,,,,0,,,71,80
90720,note_on,21,0,10,,,,,,,,13,,,67,80
90720,note_on,21,0,12,,,,,,,,15,,,43,80
90720,note_on,21,0,11,,,,,,,,14,,,55,80
90720,note_on,0,0,6,,,,,,,,1,,,62,80
90720,note_on,21,0,6,,,,,,,,1,,,55,80
90819,note_on,99,0,12,,,,,,,,15,,,43,0
90819,note_on,99,0,11,,,,,,,,14,,,55,0
90819,note_on,99,0,10,,,,,,,,13,,,67,0
90819,note_on,99,0,8,,,,,,,,11,,,71,0
90840,note_on,21,0,12,,,,,,,,15,,,45,80
90840,note_on,21,0,11,,,,,,,,14,,,57,80
90840,note_on,21,0,10,,,,,,,,13,,,69,80
90840,note_on,21,0,8,,,,,,,,11,,,72,80
90939,note_on,99,0,12,,,,,,,,15,,,45,0
90939,note_on,459,0,9,,,,,,,,12,,,62,0
90939,note_on,99,0,11,,,,,,,,14,,,57,0
90939,note_on,99,0,10,,,,,,,,13,,,69,0
90939,note_on,99,0,8,,,,,,,,11,,,72,0
90960,note_on,21,0,12,,,,,,,,15,,,47,80
90960,note_on,21,0,8,,,,,,,,11,,,74,80
90960,note_on,21,0,9,,,,,,,,12,,,55,80
90960,note_on,21,0,11,,,,,,,,14,,,59,80
90960,note_on,21,0,10,,,,,,,,13,,,71,80
91059,note_on,99,0,11,,,,,,,,14,,,59,0
91059,note_on,99,0,8,,,,,,,,11,,,74,0
91059,note_on,99,0,10,,,,,,,,13,,,71,0
91059,note_on,99,0,12,,,,,,,,15,,,47,0
91080,note_on,21,0,11,,,,,,,,14,,,55,80
91080,note_on,21,0,8,,,,,,,,11,,,71,80
91080,note_on,21,0,12,,,,,,,,15,,,43,80
91080,note_on,21,0,10,,,,,,,,13,,,67,80
91179,note_on,99,0,10,,,,,,,,13,,,67,0
91179,note_on,0,0,5,,,,,,,,0,,,67,0
91179,note_on,99,0,12,,,,,,,,15,,,43,0
91179,note_on,459,0,6,,,,,,,,1,,,62,0
91179,note_on,99,0,8,,,,,,,,11,,,71,0
91179,note_on,459,0,5,,,,,,,,0,,,71,0
91179,note_on,219,0,9,,,,,,,,12,,,55,0
91179,note_on,0,0,6,,,,,,,,1,,,55,0
91179,note_on,99,0,11,,,,,,,,14,,,55,0
91200,note_on,21,0,10,,,,,,,,13,,,64,80
91200,note_on,21,0,6,,,,,,,,1,,,67,80
91200,note_on,21,0,12,,,,,,,,15,,,40,80
91200,note_on,0,0,6,,,,,,,,1,,,55,80
91200,note_on,21,0,11,,,,,,,,14,,,52,80
91200,note_on,21,0,8,,,,,,,,11,,,73,80
91200,note_on,21,0,9,,,,,,,,12,,,67,80
91200,note_on,21,0,5,,,,,,,,0,,,73,80
91200,note_on,0,0,5,,,,,,,,0,,,79,80
91200,note_on,3601,0,7,,,,,,,,2,,,67,80
91299,note_on,99,0,8,,,,,,,,11,,,73,0
91299,note_on,99,0,9,,,,,,,,12,,,67,0
91320,note_on,21,0,8,,,,,,,,11,,,74,80
91320,note_on,21,0,9,,,,,,,,12,,,66,80
91419,note_on,99,0,8,,,,,,,,11,,,74,0
91419,note_on,99,0,9,,,,,,,,12,,,66,0
91439,note_on,239,0,7,,,,,,,,2,,,67,0
91439,note_on,239,0,12,,,,,,,,15,,,40,0
91439,note_on,239,0,10,,,,,,,,13,,,64,0
91439,note_on,239,0,5,,,,,,,,0,,,79,0
91439,note_on,0,0,5,,,,,,,,0,,,73,0
91439,note_on,239,0,11,,,,,,,,14,,,52,0
91439,note_on,239,0,6,,,,,,,,1,,,55,0
91439,note_on,0,0,6,,,,,,,,1,,,67,0
91440,note_on,21,0,8,,,,,,,,11,,,76,80
91440,note_on,21,0,9,,,,,,,,12,,,64,80
91539,note_on,99,0,8,,,,,,,,11,,,76,0
91539,note_on,99,0,9,,,,,,,,12,,,64,0
91560,note_on,21,0,8,,,,,,,,11,,,78,80
91560,note_on,21,0,9,,,,,,,,12,,,62,80
91659,note_on,99,0,8,,,,,,,,11,,,78,0
91659,note_on,99,0,9,,,,,,,,12,,,62,0
91680,note_on,21,0,9,,,,,,,,12,,,61,80
91680,note_on,21,0,8,,,,,,,,11,,,79,80
91779,note_on,99,0,9,,,,,,,,12,,,61,0
91779,note_on,99,0,8,,,,,,,,11,,,79,0
91800,note_on,21,0,9,,,,,,,,12,,,64,80
91800,note_on,21,0,8,,,,,,,,11,,,76,80
91899,note_on,99,0,9,,,,,,,,12,,,64,0
91899,note_on,99,0,8,,,,,,,,11,,,76,0
91920,note_on,21,0,9,,,,,,,,12,,,66,80
91920,note_on,21,0,8,,,,,,,,11,,,74,80
92019,note_on,99,0,8,,,,,,,,11,,,74,0
92019,note_on,99,0,9,,,,,,,,12,,,66,0
92040,note_on,21,0,8,,,,,,,,11,,,73,80
92040,note_on,21,0,9,,,,,,,,12,,,67,80
92139,note_on,99,0,8,,,,,,,,11,,,73,0
92139,note_on,99,0,9,,,,,,,,12,,,67,0
92160,note_on,721,0,5,,,,,,,,0,,,74,80
92160,note_on,721,0,11,,,,,,,,14,,,50,80
92160,note_on,721,0,6,,,,,,,,1,,,62,80
92160,note_on,21,0,9,,,,,,,,12,,,66,80
92160,note_on,721,0,12,,,,,,,,15,,,38,80
92160,note_on,0,0,5,,,,,,,,0,,,78,80
92160,note_on,21,0,8,,,,,,,,11,,,74,80
92160,note_on,721,0,7,,,,,,,,2,,,74,80
92160,note_on,721,0,10,,,,,,,,13,,,62,80
92259,note_on,99,0,9,,,,,,,,12,,,66,0
92259,note_on,99,0,8,,,,,,,,11,,,74,0
92280,note_on,21,0,8,,,,,,,,11,,,76,80
92280,note_on,21,0,9,,,,,,,,12,,,61,80
92379,note_on,99,0,8,,,,,,,,11,,,76,0
92379,note_on,99,0,9,,,,,,,,12,,,61,0
92399,note_on,239,0,6,,,,,,,,1,,,62,0
92399,note_on,239,0,7,,,,,,,,2,,,74,0
92399,note_on,239,0,12,,,,,,,,15,,,38,0
92399,note_on,239,0,11,,,,,,,,14,,,50,0
92399,note_on,0,0,5,,,,,,,,0,,,74,0
92399,note_on,239,0,5,,,,,,,,0,,,78,0
92399,note_on,239,0,10,,,,,,,,13,,,62,0
92400,note_on,21,0,8,,,,,,,,11,,,78,80
92400,note_on,21,0,9,,,,,,,,12,,,62,80
92499,note_on,99,0,8,,,,,,,,11,,,78,0
92499,note_on,99,0,9,,,,,,,,12,,,62,0
92520,note_on,21,0,9,,,,,,,,12,,,64,80
92520,note_on,21,0,8,,,,,,,,11,,,79,80
92619,note_on,99,0,9,,,,,,,,12,,,64,0
92619,note_on,99,0,8,,,,,,,,11,,,79,0
92640,note_on,21,0,9,,,,,,,,12,,,66,80
92640,note_on,21,0,8,,,,,,,,11,,,81,80
92739,note_on,99,0,8,,,,,,,,11,,,81,0
92739,note_on,99,0,9,,,,,,,,12,,,66,0
92760,note_on,21,0,8,,,,,,,,11,,,78,80
92760,note_on,21,0,9,,,,,,,,12,,,69,80
92859,note_on,99,0,8,,,,,,,,11,,,78,0
92859,note_on,99,0,9,,,,,,,,12,,,69,0
92880,note_on,21,0,9,,,,,,,,12,,,67,80
92880,note_on,21,0,8,,,,,,,,11,,,76,80
92979,note_on,99,0,9,,,,,,,,12,,,67,0
92979,note_on,99,0,8,,,,,,,,11,,,76,0
93000,note_on,21,0,9,,,,,,,,12,,,66,80
93000,note_on,21,0,8,,,,,,,,11,,,74,80
93099,note_on,99,0,8,,,,,,,,11,,,74,0
93099,note_on,99,0,9,,,,,,,,12,,,66,0
93120,note_on,721,0,10,,,,,,,,13,,,64,80
93120,note_on,721,0,12,,,,,,,,15,,,40,80
93120,note_on,21,0,9,,,,,,,,12,,,67,80
93120,note_on,721,0,7,,,,,,,,2,,,67,80
93120,note_on,0,0,6,,,,,,,,1,,,55,80
93120,note_on,21,0,8,,,,,,,,11,,,73,80
93120,note_on,721,0,6,,,,,,,,1,,,67,80
93120,note_on,0,0,5,,,,,,,,0,,,73,80
93120,note_on,721,0,5,,,,,,,,0,,,79,80
93120,note_on,721,0,11,,,,,,,,14,,,52,80
93219,note_on,99,0,8,,,,,,,,11,,,73,0
93219,note_on,99,0,9,,,,,,,,12,,,67,0
93240,note_on,21,0,8,,,,,,,,11,,,74,80
93240,note_on,21,0,9,,,,,,,,12,,,66,80
93339,note_on,99,0,8,,,,,,,,11,,,74,0
93339,note_on,99,0,9,,,,,,,,12,,,66,0
93359,note_on,239,0,5,,,,,,,,0,,,73,0
93359,note_on,0,0,5,,,,,,,,0,,,79,0
93359,note_on,239,0,6,,,,,,,,1,,,55,0
93359,note_on,0,0,6,,,,,,,,1,,,67,0
93359,note_on,239,0,10,,,,,,,,13,,,64,0
93359,note_on,239,0,7,,,,,,,,2,,,67,0
93359,note_on,239,0,12,,,,,,,,15,,,40,0
93359,note_on,239,0,11,,,,,,,,14,,,52,0
93360,note_on,21,0,8,,,,,,,,11,,,76,80
93360,note_on,21,0,9,,,,,,,,12,,,64,80
93459,note_on,99,0,8,,,,,,,,11,,,76,0
93459,note_on,99,0,9,,,,,,,,12,,,64,0
93480,note_on,21,0,8,,,,,,,,11,,,78,80
93480,note_on,21,0,9,,,,,,,,12,,,62,80
93579,note_on,99,0,9,,,,,,,,12,,,62,0
93579,note_on,99,0,8,,,,,,,,11,,,78,0
93600,note_on,21,0,8,,,,,,,,11,,,79,80
93600,note_on,21,0,9,,,,,,,,12,,,61,80
93699,note_on,99,0,9,,,,,,,,12,,,61,0
93699,note_on,99,0,8,,,,,,,,11,,,79,0
93720,note_on,21,0,9,,,,,,,,12,,,64,80
93720,note_on,21,0,8,,,,,,,,11,,,76,80
93819,note_on,99,0,8,,,,,,,,11,,,76,0
93819,note_on,99,0,9,,,,,,,,12,,,64,0
93840,note_on,21,0,8,,,,,,,,11,,,74,80
93840,note_on,21,0,9,,,,,,,,12,,,66,80
93939,note_on,99,0,8,,,,,,,,11,,,74,0
93939,note_on,99,0,9,,,,,,,,12,,,66,0
93960,note_on,21,0,9,,,,,,,,12,,,67,80
93960,note_on,21,0,8,,,,,,,,11,,,73,80
94059,note_on,99,0,8,,,,,,,,11,,,73,0
94059,note_on,99,0,9,,,,,,,,12,,,67,0
94080,note_on,721,0,10,,,,,,,,13,,,62,80
94080,note_on,721,0,7,,,,,,,,2,,,74,80
94080,note_on,721,0,6,,,,,,,,1,,,62,80
94080,note_on,21,0,8,,,,,,,,11,,,74,80
94080,note_on,21,0,9,,,,,,,,12,,,62,80
94080,note_on,721,0,12,,,,,,,,15,,,38,80
94080,note_on,721,0,11,,,,,,,,14,,,50,80
94080,note_on,721,0,5,,,,,,,,0,,,74,80
94179,note_on,99,0,9,,,,,,,,12,,,62,0
94179,note_on,99,0,5,,,,,,,,0,,,74,0
94179,note_on,99,0,8,,,,,,,,11,,,74,0
94179,note_on,99,0,11,,,,,,,,14,,,50,0
94179,note_on,99,0,10,,,,,,,,13,,,62,0
94179,note_on,99,0,12,,,,,,,,15,,,38,0
94200,note_on,21,0,5,,,,,,,,0,,,76,80
94200,note_on,21,0,10,,,,,,,,13,,,64,80
94200,note_on,21,0,12,,,,,,,,15,,,40,80
94200,note_on,21,0,8,,,,,,,,11,,,76,80
94200,note_on,21,0,11,,,,,,,,14,,,52,80
94200,note_on,21,0,9,,,,,,,,12,,,64,80
94299,note_on,99,0,12,,,,,,,,15,,,40,0
94299,note_on,99,0,11,,,,,,,,14,,,52,0
94299,note_on,99,0,9,,,,,,,,12,,,64,0
94299,note_on,99,0,5,,,,,,,,0,,,76,0
94299,note_on,99,0,8,,,,,,,,11,,,76,0
94299,note_on,99,0,10,,,,,,,,13,,,64,0
94319,note_on,239,0,7,,,,,,,,2,,,74,0
94319,note_on,239,0,6,,,,,,,,1,,,62,0
94320,note_on,21,0,10,,,,,,,,13,,,66,80
94320,note_on,21,0,9,,,,,,,,12,,,66,80
94320,note_on,21,0,11,,,,,,,,14,,,54,80
94320,note_on,21,0,12,,,,,,,,15,,,42,80
94320,note_on,21,0,8,,,,,,,,11,,,78,80
94320,note_on,21,0,5,,,,,,,,0,,,78,80
94419,note_on,99,0,5,,,,,,,,0,,,78,0
94419,note_on,99,0,11,,,,,,,,14,,,54,0
94419,note_on,99,0,10,,,,,,,,13,,,66,0
94419,note_on,99,0,8,,,,,,,,11,,,78,0
94419,note_on,99,0,12,,,,,,,,15,,,42,0
94419,note_on,99,0,9,,,,,,,,12,,,66,0
94440,note_on,21,0,11,,,,,,,,14,,,55,80
94440,note_on,21,0,5,,,,,,,,0,,,79,80
94440,note_on,21,0,8,,,,,,,,11,,,79,80
94440,note_on,21,0,12,,,,,,,,15,,,43,80
94440,note_on,21,0,9,,,,,,,,12,,,67,80
94440,note_on,21,0,10,,,,,,,,13,,,67,80
94539,note_on,99,0,10,,,,,,,,13,,,67,0
94539,note_on,99,0,8,,,,,,,,11,,,79,0
94539,note_on,99,0,9,,,,,,,,12,,,67,0
94539,note_on,99,0,5,,,,,,,,0,,,79,0
94539,note_on,99,0,12,,,,,,,,15,,,43,0
94539,note_on,99,0,11,,,,,,,,14,,,55,0
94560,note_on,21,0,8,,,,,,,,11,,,81,80
94560,note_on,21,0,11,,,,,,,,14,,,57,80
94560,note_on,21,0,12,,,,,,,,15,,,45,80
94560,note_on,21,0,9,,,,,,,,12,,,69,80
94560,note_on,21,0,5,,,,,,,,0,,,81,80
94560,note_on,21,0,10,,,,,,,,13,,,69,80
94659,note_on,99,0,11,,,,,,,,14,,,57,0
94659,note_on,99,0,8,,,,,,,,11,,,81,0
94659,note_on,99,0,10,,,,,,,,13,,,69,0
94659,note_on,99,0,5,,,,,,,,0,,,81,0
94659,note_on,99,0,12,,,,,,,,15,,,45,0
94659,note_on,99,0,9,,,,,,,,12,,,69,0
94680,note_on,21,0,5,,,,,,,,0,,,83,80
94680,note_on,21,0,9,,,,,,,,12,,,71,80
94680,note_on,21,0,10,,,,,,,,13,,,71,80
94680,note_on,21,0,11,,,,,,,,14,,,59,80
94680,note_on,21,0,8,,,,,,,,11,,,83,80
94680,note_on,21,0,12,,,,,,,,15,,,47,80
94779,note_on,99,0,10,,,,,,,,13,,,71,0
94779,note_on,99,0,11,,,,,,,,14,,,59,0
94779,note_on,99,0,12,,,,,,,,15,,,47,0
94779,note_on,99,0,8,,,,,,,,11,,,83,0
94779,note_on,99,0,5,,,,,,,,0,,,83,0
94779,note_on,99,0,9,,,,,,,,12,,,71,0
94800,note_on,21,0,8,,,,,,,,11,,,85,80
94800,note_on,21,0,11,,,,,,,,14,,,61,80
94800,note_on,21,0,9,,,,,,,,12,,,73,80
94800,note_on,21,0,5,,,,,,,,0,,,85,80
94800,note_on,21,0,10,,,,,,,,13,,,73,80
94800,note_on,21,0,12,,,,,,,,15,,,49,80
94899,note_on,99,0,11,,,,,,,,14,,,61,0
94899,note_on,99,0,9,,,,,,,,12,,,73,0
94899,note_on,99,0,5,,,,,,,,0,,,85,0
94899,note_on,99,0,10,,,,,,,,13,,,73,0
94899,note_on,99,0,12,,,,,,,,15,,,49,0
94899,note_on,99,0,8,,,,,,,,11,,,85,0
94920,note_on,21,0,10,,,,,,,,13,,,74,80
94920,note_on,21,0,9,,,,,,,,12,,,74,80
94920,note_on,21,0,8,,,,,,,,11,,,86,80
94920,note_on,21,0,11,,,,,,,,14,,,62,80
94920,note_on,21,0,12,,,,,,,,15,,,50,80
94920,note_on,21,0,5,,,,,,,,0,,,86,80
95019,note_on,99,0,11,,,,,,,,14,,,62,0
95019,note_on,99,0,10,,,,,,,,13,,,74,0
95019,note_on,99,0,5,,,,,,,,0,,,86,0
95019,note_on,99,0,9,,,,,,,,12,,,74,0
95019,note_on,99,0,12,,,,,,,,15,,,50,0
95019,note_on,99,0,8,,,,,,,,11,,,86,0
95040,note_on,21,0,11,,,,,,,,14,,,61,80
95040,note_on,21,0,10,,,,,,,,13,,,73,80
95040,note_on,21,0,9,,,,,,,,12,,,73,80
95040,note_on,21,0,12,,,,,,,,15,,,49,80
95040,note_on,21,0,5,,,,,,,,0,,,85,80
95040,note_on,21,0,8,,,,,,,,11,,,85,80
95139,note_on,99,0,8,,,,,,,,11,,,85,0
95139,note_on,99,0,9,,,,,,,,12,,,73,0
95160,note_on,21,0,8,,,,,,,,11,,,85,80
95160,note_on,21,0,9,,,,,,,,12,,,73,80
95259,note_on,99,0,9,,,,,,,,12,,,73,0
95259,note_on,99,0,8,,,,,,,,11,,,85,0
95259,note_on,219,0,5,,,,,,,,0,,,85,0
95279,note_on,239,0,12,,,,,,,,15,,,49,0
95279,note_on,239,0,11,,,,,,,,14,,,61,0
95279,note_on,239,0,10,,,,,,,,13,,,73,0
95280,note_on,21,0,5,,,,,,,,0,,,81,80
95280,note_on,21,0,9,,,,,,,,12,,,81,80
95280,note_on,21,0,8,,,,,,,,11,,,81,80
95379,note_on,99,0,8,,,,,,,,11,,,81,0
95379,note_on,99,0,9,,,,,,,,12,,,81,0
95400,note_on,21,0,8,,,,,,,,11,,,81,80
95400,note_on,21,0,9,,,,,,,,12,,,81,80
95499,note_on,99,0,9,,,,,,,,12,,,81,0
95499,note_on,219,0,5,,,,,,,,0,,,81,0
95499,note_on,99,0,8,,,,,,,,11,,,81,0
95520,note_on,21,0,8,,,,,,,,11,,,79,80
95520,note_on,21,0,5,,,,,,,,0,,,79,80
95520,note_on,21,0,9,,,,,,,,12,,,79,80
95619,note_on,99,0,9,,,,,,,,12,,,79,0
95619,note_on,99,0,8,,,,,,,,11,,,79,0
95640,note_on,21,0,8,,,,,,,,11,,,79,80
95640,note_on,21,0,9,,,,,,,,12,,,79,80
95739,note_on,99,0,9,,,,,,,,12,,,79,0
95739,note_on,99,0,8,,,,,,,,11,,,79,0
95739,note_on,219,0,5,,,,,,,,0,,,79,0
95760,note_on,21,0,9,,,,,,,,12,,,76,80
95760,note_on,21,0,8,,,,,,,,11,,,76,80
95760,note_on,21,0,5,,,,,,,,0,,,76,80
95859,note_on,99,0,9,,,,,,,,12,,,76,0
95859,note_on,99,0,8,,,,,,,,11,,,76,0
95880,note_on,21,0,8,,,,,,,,11,,,76,80
95880,note_on,21,0,9,,,,,,,,12,,,76,80
95979,note_on,99,0,9,,,,,,,,12,,,76,0
95979,note_on,99,0,8,,,,,,,,11,,,76,0
95979,note_on,219,0,5,,,,,,,,0,,,76,0
96000,note_on,21,0,9,,,,,,,,12,,,73,80
96000,note_on,1681,0,7,,,,,,,,2,,,67,80
96000,note_on,21,0,5,,,,,,,,0,,,73,80
96000,note_on,721,0,10,,,,,,,,13,,,73,80
96000,note_on,721,0,12,,,,,,,,15,,,49,80
96000,note_on,21,0,8,,,,,,,,11,,,73,80
96000,note_on,1681,0,6,,,,,,,,1,,,64,80
96000,note_on,721,0,11,,,,,,,,14,,,61,80
96099,note_on,99,0,9,,,,,,,,12,,,73,0
96099,note_on,99,0,8,,,,,,,,11,,,73,0
96120,note_on,21,0,9,,,,,,,,12,,,73,80
96120,note_on,21,0,8,,,,,,,,11,,,73,80
96219,note_on,99,0,8,,,,,,,,11,,,73,0
96219,note_on,99,0,9,,,,,,,,12,,,73,0
96219,note_on,219,0,11,,,,,,,,14,,,61,0
96219,note_on,219,0,10,,,,,,,,13,,,73,0
96219,note_on,219,0,5,,,,,,,,0,,,73,0
96219,note_on,219,0,12,,,,,,,,15,,,49,0
96240,note_on,21,0,11,,,,,,,,14,,,57,80
96240,note_on,21,0,9,,,,,,,,12,,,69,80
96240,note_on,21,0,5,,,,,,,,0,,,69,80
96240,note_on,21,0,10,,,,,,,,13,,,69,80
96240,note_on,21,0,12,,,,,,,,15,,,45,80
96240,note_on,21,0,8,,,,,,,,11,,,69,80
96339,note_on,99,0,8,,,,,,,,11,,,69,0
96339,note_on,99,0,9,,,,,,,,12,,,69,0
96360,note_on,21,0,9,,,,,,,,12,,,69,80
96360,note_on,21,0,8,,,,,,,,11,,,69,80
96459,note_on,219,0,11,,,,,,,,14,,,57,0
96459,note_on,219,0,5,,,,,,,,0,,,69,0
96459,note_on,219,0,12,,,,,,,,15,,,45,0
96459,note_on,219,0,10,,,,,,,,13,,,69,0
96459,note_on,99,0,8,,,,,,,,11,,,69,0
96459,note_on,99,0,9,,,,,,,,12,,,69,0
96480,note_on,21,0,8,,,,,,,,11,,,67,80
96480,note_on,21,0,10,,,,,,,,13,,,67,80
96480,note_on,21,0,5,,,,,,,,0,,,67,80
96480,note_on,21,0,9,,,,,,,,12,,,67,80
96480,note_on,21,0,12,,,,,,,,15,,,43,80
96480,note_on,21,0,11,,,,,,,,14,,,55,80
96579,note_on,99,0,9,,,,,,,,12,,,67,0
96579,note_on,99,0,8,,,,,,,,11,,,67,0
96600,note_on,21,0,8,,,,,,,,11,,,67,80
96600,note_on,21,0,9,,,,,,,,12,,,67,80
96699,note_on,219,0,11,,,,,,,,14,,,55,0
96699,note_on,219,0,12,,,,,,,,15,,,43,0
96699,note_on,99,0,9,,,,,,,,12,,,67,0
96699,note_on,219,0,10,,,,,,,,13,,,67,0
96699,note_on,219,0,5,,,,,,,,0,,,67,0
96699,note_on,99,0,8,,,,,,,,11,,,67,0
96720,note_on,21,0,8,,,,,,,,11,,,64,80
96720,note_on,21,0,12,,,,,,,,15,,,40,80
96720,note_on,21,0,9,,,,,,,,12,,,64,80
96720,note_on,21,0,5,,,,,,,,0,,,64,80
96720,note_on,21,0,10,,,,,,,,13,,,64,80
96720,note_on,21,0,11,,,,,,,,14,,,52,80
96819,note_on,99,0,8,,,,,,,,11,,,64,0
96819,note_on,99,0,9,,,,,,,,12,,,64,0
96840,note_on,21,0,8,,,,,,,,11,,,64,80
96840,note_on,21,0,9,,,,,,,,12,,,64,80
96939,note_on,99,0,9,,,,,,,,12,,,64,0
96939,note_on,939,0,7,,,,,,,,2,,,67,0
96939,note_on,219,0,11,,,,,,,,14,,,52,0
96939,note_on,99,0,8,,,,,,,,11,,,64,0
96939,note_on,219,0,5,,,,,,,,0,,,64,0
96939,note_on,939,0,6,,,,,,,,1,,,64,0
96939,note_on,219,0,10,,,,,,,,13,,,64,0
96939,note_on,219,0,12,,,,,,,,15,,,40,0
96960,note_on,21,0,5,,,,,,,,0,,,62,80
96960,note_on,21,0,6,,,,,,,,1,,,62,80
96960,note_on,21,0,9,,,,,,,,12,,,62,80
96960,note_on,21,0,8,,,,,,,,11,,,62,80
96960,note_on,21,0,7,,,,,,,,2,,,74,80
96960,note_on,21,0,12,,,,,,,,15,,,38,80
96960,note_on,21,0,10,,,,,,,,13,,,62,80
96960,note_on,21,0,11,,,,,,,,14,,,50,80
97199,note_on,239,0,10,,,,,,,,13,,,62,0
97199,note_on,239,0,6,,,,,,,,1,,,62,0
97199,note_on,239,0,9,,,,,,,,12,,,62,0
97199,note_on,239,0,5,,,,,,,,0,,,62,0
97199,note_on,239,0,7,,,,,,,,2,,,74,0
97199,note_on,239,0,11,,,,,,,,14,,,50,0
97199,note_on,239,0,8,,,,,,,,11,,,62,0
97199,note_on,239,0,12,,,,,,,,15,,,38,0
97320,note_on,121,0,8,,,,,,,,11,,,78,80
97320,note_on,121,0,9,,,,,,,,12,,,74,80
97379,note_on,59,0,8,,,,,,,,11,,,78,0
97379,note_on,59,0,9,,,,,,,,12,,,74,0
97380,note_on,1,0,9,,,,,,,,12,,,76,80
97380,note_on,1,0,8,,,,,,,,11,,,79,80
97439,note_on,59,0,9,,,,,,,,12,,,76,0
97439,note_on,59,0,8,,,,,,,,11,,,79,0
97440,note_on,241,0,5,,,,,,,,0,,,78,80
97440,note_on,241,0,11,,,,,,,,14,,,60,80
97440,note_on,241,0,12,,,,,,,,15,,,48,80
97440,note_on,0,0,5,,,,,,,,0,,,81,80
97440,note_on,241,0,10,,,,,,,,13,,,72,80
97440,note_on,241,0,7,,,,,,,,2,,,74,80
97440,note_on,241,0,6,,,,,,,,1,,,62,80
97440,note_on,1,0,8,,,,,,,,11,,,81,80
97440,note_on,1,0,9,,,,,,,,12,,,78,80
97679,note_on,239,0,6,,,,,,,,1,,,62,0
97679,note_on,239,0,9,,,,,,,,12,,,78,0
97679,note_on,0,0,5,,,,,,,,0,,,78,0
97679,note_on,239,0,5,,,,,,,,0,,,81,0
97679,note_on,239,0,12,,,,,,,,15,,,48,0
97679,note_on,239,0,10,,,,,,,,13,,,72,0
97679,note_on,239,0,8,,,,,,,,11,,,81,0
97679,note_on,239,0,7,,,,,,,,2,,,74,0
97679,note_on,239,0,11,,,,,,,,14,,,60,0
97800,note_on,121,0,8,,,,,,,,11,,,81,80
97800,note_on,121,0,9,,,,,,,,12,,,78,80
97859,note_on,59,0,9,,,,,,,,12,,,78,0
97859,note_on,59,0,8,,,,,,,,11,,,81,0
97860,note_on,1,0,8,,,,,,,,11,,,83,80
97860,note_on,1,0,9,,,,,,,,12,,,79,80
97919,note_on,59,0,8,,,,,,,,11,,,83,0
97919,note_on,59,0,9,,,,,,,,12,,,79,0
97920,note_on,1,0,8,,,,,,,,11,,,84,80
97920,note_on,241,0,12,,,,,,,,15,,,42,80
97920,note_on,1,0,9,,,,,,,,12,,,81,80
97920,note_on,241,0,5,,,,,,,,0,,,81,80
97920,note_on,241,0,7,,,,,,,,2,,,74,80
97920,note_on,241,0,6,,,,,,,,1,,,62,80
97920,note_on,0,0,5,,,,,,,,0,,,84,80
97920,note_on,241,0,10,,,,,,,,13,,,66,80
97920,note_on,241,0,11,,,,,,,,14,,,54,80
98399,note_on,479,0,11,,,,,,,,14,,,54,0
98399,note_on,479,0,6,,,,,,,,1,,,62,0
98399,note_on,0,0,5,,,,,,,,0,,,81,0
98399,note_on,479,0,5,,,,,,,,0,,,84,0
98399,note_on,479,0,8,,,,,,,,11,,,84,0
98399,note_on,479,0,10,,,,,,,,13,,,66,0
98399,note_on,479,0,7,,,,,,,,2,,,74,0
98399,note_on,479,0,12,,,,,,,,15,,,42,0
98399,note_on,479,0,9,,,,,,,,12,,,81,0
98880,note_on,481,0,12,,,,,,,,15,,,43,44
98880,note_on,481,0,10,,,,,,,,13,,,67,44
98880,note_on,481,0,9,,,,,,,,12,,,55,44
98880,note_on,481,0,11,,,,,,,,14,,,55,44
98880,note_on,481,0,8,,,,,,,,11,,,74,44
98979,note_on,99,0,9,,,,,,,,12,,,55,0
99000,note_on,21,0,9,,,,,,,,12,,,62,44
99099,note_on,99,0,9,,,,,,,,12,,,62,0
99119,note_on,239,0,11,,,,,,,,14,,,55,0
99119,note_on,239,0,10,,,,,,,,13,,,67,0
99119,note_on,239,0,12,,,,,,,,15,,,43,0
99120,note_on,21,0,9,,,,,,,,12,,,59,44
99219,note_on,99,0,9,,,,,,,,12,,,59,0
99240,note_on,21,0,9,,,,,,,,12,,,62,44
99339,note_on,99,0,9,,,,,,,,12,,,62,0
99359,note_on,479,0,8,,,,,,,,11,,,74,0
99360,note_on,21,0,9,,,,,,,,12,,,55,44
99360,note_on,1,0,8,,,,,,,,11,,,71,44
99459,note_on,99,0,9,,,,,,,,12,,,55,0
99480,note_on,21,0,9,,,,,,,,12,,,62,44
99579,note_on,99,0,9,,,,,,,,12,,,62,0
99579,note_on,219,0,8,,,,,,,,11,,,71,0
99600,note_on,21,0,9,,,,,,,,12,,,59,44
99600,note_on,21,0,8,,,,,,,,11,,,74,44
99699,note_on,99,0,9,,,,,,,,12,,,59,0
99719,note_on,119,0,8,,,,,,,,11,,,74,0
99720,note_on,21,0,9,,,,,,,,12,,,62,44
99819,note_on,99,0,9,,,,,,,,12,,,62,0
99840,note_on,121,0,8,,,,,,,,11,,,79,44
99840,note_on,721,0,12,,,,,,,,15,,,43,44
99840,note_on,721,0,11,,,,,,,,14,,,55,44
99840,note_on,721,0,10,,,,,,,,13,,,67,44
99840,note_on,21,0,9,,,,,,,,12,,,55,44
99939,note_on,99,0,9,,,,,,,,12,,,55,0
99960,note_on,21,0,9,,,,,,,,12,,,62,44
100059,note_on,99,0,9,,,,,,,,12,,,62,0
100079,note_on,239,0,11,,,,,,,,14,,,55,0
100079,note_on,239,0,10,,,,,,,,13,,,67,0
100079,note_on,239,0,12,,,,,,,,15,,,43,0
100080,note_on,21,0,9,,,,,,,,12,,,59,44
100179,note_on,99,0,9,,,,,,,,12,,,59,0
100200,note_on,21,0,9,,,,,,,,12,,,62,44
100299,note_on,99,0,9,,,,,,,,12,,,62,0
100319,note_on,479,0,8,,,,,,,,11,,,79,0
100320,note_on,1,0,8,,,,,,,,11,,,74,44
100320,note_on,21,0,9,,,,,,,,12,,,55,44
100419,note_on,99,0,9,,,,,,,,12,,,55,0
100440,note_on,21,0,9,,,,,,,,12,,,62,44
100539,note_on,219,0,8,,,,,,,,11,,,74,0
100539,note_on,99,0,9,,,,,,,,12,,,62,0
100560,note_on,21,0,8,,,,,,,,11,,,79,44
100560,note_on,21,0,9,,,,,,,,12,,,59,44
100659,note_on,99,0,9,,,,,,,,12,,,59,0
100679,note_on,119,0,8,,,,,,,,11,,,79,0
100680,note_on,21,0,9,,,,,,,,12,,,62,44
100779,note_on,99,0,9,,,,,,,,12,,,62,0
100800,note_on,21,0,9,,,,,,,,12,,,55,44
100800,note_on,721,0,11,,,,,,,,14,,,55,44
100800,note_on,721,0,12,,,,,,,,15,,,43,44
100800,note_on,121,0,8,,,,,,,,11,,,76,44
100800,note_on,721,0,10,,,,,,,,13,,,67,44
100899,note_on,99,0,9,,,,,,,,12,,,55,0
100920,note_on,21,0,9,,,,,,,,12,,,64,44
101019,note_on,99,0,9,,,,,,,,12,,,64,0
101039,note_on,239,0,10,,,,,,,,13,,,67,0
101039,note_on,239,0,8,,,,,,,,11,,,76,0
101039,note_on,239,0,12,,,,,,,,15,,,43,0
101039,note_on,239,0,11,,,,,,,,14,,,55,0
101040,note_on,1,0,8,,,,,,,,11,,,72,44
101040,note_on,21,0,9,,,,,,,,12,,,60,44
101139,note_on,99,0,9,,,,,,,,12,,,60,0
101160,note_on,21,0,9,,,,,,,,12,,,64,44
101259,note_on,99,0,9,,,,,,,,12,,,64,0
101259,note_on,219,0,8,,,,,,,,11,,,72,0
101280,note_on,21,0,9,,,,,,,,12,,,55,44
101280,note_on,21,0,8,,,,,,,,11,,,79,44
101379,note_on,99,0,9,,,,,,,,12,,,55,0
101400,note_on,21,0,9,,,,,,,,12,,,64,44
101499,note_on,99,0,9,,,,,,,,12,,,64,0
101519,note_on,239,0,8,,,,,,,,11,,,79,0
101520,note_on,21,0,9,,,,,,,,12,,,60,44
101520,note_on,1,0,8,,,,,,,,11,,,76,44
101619,note_on,99,0,9,,,,,,,,12,,,60,0
101640,note_on,21,0,9,,,,,,,,12,,,64,44
101739,note_on,219,0,8,,,,,,,,11,,,76,0
101739,note_on,99,0,9,,,,,,,,12,,,64,0
101760,note_on,21,0,8,,,,,,,,11,,,74,44
101760,note_on,721,0,12,,,,,,,,15,,,43,44
101760,note_on,721,0,10,,,,,,,,13,,,67,44
101760,note_on,21,0,9,,,,,,,,12,,,55,44
101760,note_on,721,0,11,,,,,,,,14,,,55,44
101859,note_on,99,0,9,,,,,,,,12,,,55,0
101880,note_on,21,0,9,,,,,,,,12,,,62,44
101979,note_on,99,0,9,,,,,,,,12,,,62,0
101999,note_on,239,0,12,,,,,,,,15,,,43,0
101999,note_on,239,0,10,,,,,,,,13,,,67,0
101999,note_on,239,0,11,,,,,,,,14,,,55,0
102000,note_on,21,0,9,,,,,,,,12,,,59,44
102099,note_on,99,0,9,,,,,,,,12,,,59,0
102119,note_on,359,0,8,,,,,,,,11,,,74,0
102120,note_on,21,0,9,,,,,,,,12,,,62,44
102120,note_on,1,0,8,,,,,,,,11,,,71,44
102219,note_on,99,0,9,,,,,,,,12,,,62,0
102219,note_on,99,0,8,,,,,,,,11,,,71,0
102240,note_on,21,0,8,,,,,,,,11,,,67,44
102240,note_on,21,0,9,,,,,,,,12,,,55,44
102339,note_on,99,0,9,,,,,,,,12,,,55,0
102360,note_on,21,0,9,,,,,,,,12,,,62,44
102459,note_on,99,0,9,,,,,,,,12,,,62,0
102479,note_on,239,0,8,,,,,,,,11,,,67,0
102480,note_on,21,0,9,,,,,,,,12,,,59,44
102579,note_on,99,0,9,,,,,,,,12,,,59,0
102600,note_on,21,0,9,,,,,,,,12,,,62,44
102699,note_on,99,0,9,,,,,,,,12,,,62,0
102720,note_on,721,0,11,,,,,,,,14,,,50,44
102720,note_on,21,0,9,,,,,,,,12,,,57,44
102720,note_on,721,0,12,,,,,,,,15,,,38,44
102720,note_on,241,0,8,,,,,,,,11,,,84,44
102720,note_on,721,0,10,,,,,,,,13,,,62,44
102819,note_on,99,0,9,,,,,,,,12,,,57,0
102840,note_on,21,0,9,,,,,,,,12,,,62,44
102939,note_on,99,0,9,,,,,,,,12,,,62,0
102959,note_on,239,0,10,,,,,,,,13,,,62,0
102959,note_on,239,0,11,,,,,,,,14,,,50,0
102959,note_on,239,0,12,,,,,,,,15,,,38,0
102960,note_on,21,0,9,,,,,,,,12,,,60,44
103059,note_on,99,0,9,,,,,,,,12,,,60,0
103080,note_on,21,0,9,,,,,,,,12,,,62,44
103179,note_on,99,0,9,,,,,,,,12,,,62,0
103199,note_on,479,0,8,,,,,,,,11,,,84,0
103200,note_on,1,0,8,,,,,,,,11,,,81,44
103200,note_on,21,0,9,,,,,,,,12,,,57,44
103299,note_on,99,0,9,,,,,,,,12,,,57,0
103320,note_on,21,0,9,,,,,,,,12,,,62,44
103419,note_on,99,0,9,,,,,,,,12,,,62,0
103439,note_on,239,0,8,,,,,,,,11,,,81,0
103440,note_on,21,0,9,,,,,,,,12,,,60,44
103440,note_on,1,0,8,,,,,,,,11,,,78,44
103539,note_on,99,0,9,,,,,,,,12,,,60,0
103560,note_on,21,0,9,,,,,,,,12,,,62,44
103659,note_on,99,0,9,,,,,,,,12,,,62,0
103659,note_on,219,0,8,,,,,,,,11,,,78,0
103680,note_on,21,0,8,,,,,,,,11,,,79,44
103680,note_on,721,0,11,,,,,,,,14,,,43,44
103680,note_on,721,0,10,,,,,,,,13,,,55,44
103680,note_on,721,0,12,,,,,,,,15,,,31,44
103680,note_on,21,0,9,,,,,,,,12,,,55,44
103779,note_on,99,0,9,,,,,,,,12,,,55,0
103800,note_on,21,0,9,,,,,,,,12,,,62,44
103899,note_on,99,0,9,,,,,,,,12,,,62,0
103919,note_on,239,0,10,,,,,,,,13,,,55,0
103919,note_on,239,0,12,,,,,,,,15,,,31,0
103919,note_on,239,0,11,,,,,,,,14,,,43,0
103920,note_on,21,0,9,,,,,,,,12,,,59,44
104019,note_on,99,0,9,,,,,,,,12,,,59,0
104040,note_on,21,0,9,,,,,,,,12,,,62,44
104139,note_on,99,0,9,,,,,,,,12,,,62,0
104159,note_on,479,0,8,,,,,,,,11,,,79,0
104160,note_on,21,0,9,,,,,,,,12,,,55,44
104160,note_on,1,0,8,,,,,,,,11,,,74,44
104259,note_on,99,0,9,,,,,,,,12,,,55,0
104280,note_on,21,0,9,,,,,,,,12,,,62,44
104379,note_on,99,0,9,,,,,,,,12,,,62,0
104399,note_on,239,0,8,,,,,,,,11,,,74,0
104400,note_on,21,0,9,,,,,,,,12,,,59,44
104400,note_on,1,0,8,,,,,,,,11,,,71,44
104499,note_on,99,0,9,,,,,,,,12,,,59,0
104520,note_on,21,0,9,,,,,,,,12,,,62,44
104619,note_on,219,0,8,,,,,,,,11,,,71,0
104619,note_on,99,0,9,,,,,,,,12,,,62,0
104640,note_on,21,0,8,,,,,,,,11,,,76,44
104640,note_on,721,0,10,,,,,,,,13,,,60,44
104640,note_on,721,0,11,,,,,,,,14,,,48,44
104640,note_on,721,0,12,,,,,,,,15,,,36,44
104640,note_on,21,0,9,,,,,,,,12,,,55,44
104739,note_on,99,0,9,,,,,,,,12,,,55,0
104760,note_on,21,0,9,,,,,,,,12,,,64,44
104859,note_on,99,0,9,,,,,,,,12,,,64,0
104879,note_on,239,0,10,,,,,,,,13,,,60,0
104879,note_on,239,0,11,,,,,,,,14,,,48,0
104879,note_on,239,0,12,,,,,,,,15,,,36,0
104880,note_on,21,0,9,,,,,,,,12,,,60,44
104979,note_on,99,0,9,,,,,,,,12,,,60,0
105000,note_on,21,0,9,,,,,,,,12,,,64,44
105099,note_on,99,0,9,,,,,,,,12,,,64,0
105119,note_on,479,0,8,,,,,,,,11,,,76,0
105120,note_on,21,0,9,,,,,,,,12,,,57,44
105120,note_on,1,0,8,,,,,,,,11,,,72,44
105219,note_on,99,0,9,,,,,,,,12,,,57,0
105240,note_on,21,0,9,,,,,,,,12,,,64,44
105339,note_on,99,0,9,,,,,,,,12,,,64,0
105359,note_on,239,0,8,,,,,,,,11,,,72,0
105360,note_on,1,0,8,,,,,,,,11,,,69,44
105360,note_on,21,0,9,,,,,,,,12,,,60,44
105459,note_on,99,0,9,,,,,,,,12,,,60,0
105480,note_on,21,0,9,,,,,,,,12,,,64,44
105579,note_on,99,0,9,,,,,,,,12,,,64,0
105579,note_on,219,0,8,,,,,,,,11,,,69,0
105600,note_on,721,0,10,,,,,,,,13,,,62,44
105600,note_on,21,0,9,,,,,,,,12,,,59,44
105600,note_on,21,0,8,,,,,,,,11,,,67,44
105600,note_on,721,0,12,,,,,,,,15,,,38,44
105600,note_on,721,0,11,,,,,,,,14,,,50,44
105699,note_on,99,0,9,,,,,,,,12,,,59,0
105720,note_on,21,0,9,,,,,,,,12,,,62,44
105819,note_on,99,0,9,,,,,,,,12,,,62,0
105839,note_on,239,0,11,,,,,,,,14,,,50,0
105839,note_on,239,0,10,,,,,,,,13,,,62,0
105839,note_on,239,0,12,,,,,,,,15,,,38,0
105840,note_on,21,0,9,,,,,,,,12,,,59,44
105939,note_on,99,0,9,,,,,,,,12,,,59,0
105960,note_on,21,0,9,,,,,,,,12,,,55,44
106059,note_on,99,0,9,,,,,,,,12,,,55,0
106079,note_on,479,0,8,,,,,,,,11,,,67,0
106080,note_on,1,0,8,,,,,,,,11,,,66,44
106080,note_on,21,0,9,,,,,,,,12,,,60,44
106179,note_on,99,0,9,,,,,,,,12,,,60,0
106200,note_on,21,0,9,,,,,,,,12,,,62,44
106299,note_on,99,0,9,,,,,,,,12,,,62,0
106319,note_on,239,0,8,,,,,,,,11,,,66,0
106320,note_on,21,0,9,,,,,,,,12,,,60,44
106419,note_on,99,0,9,,,,,,,,12,,,60,0
106440,note_on,21,0,9,,,,,,,,12,,,57,44
106539,note_on,99,0,9,,,,,,,,12,,,57,0
106560,note_on,721,0,10,,,,,,,,13,,,55,44
106560,note_on,8161,0,6,,,,,,,,1,,,55,44
106560,note_on,0,0,6,,,,,,,,1,,,43,44
106560,note_on,721,0,12,,,,,,,,15,,,31,44
106560,note_on,21,0,9,,,,,,,,12,,,55,44
106560,note_on,8161,0,5,,,,,,,,0,,,74,44
106560,note_on,721,0,11,,,,,,,,14,,,43,44
106560,note_on,0,0,5,,,,,,,,0,,,71,44
106560,note_on,241,0,8,,,,,,,,11,,,74,44
106659,note_on,99,0,9,,,,,,,,12,,,55,0
106680,note_on,21,0,9,,,,,,,,12,,,62,44
106779,note_on,99,0,9,,,,,,,,12,,,62,0
106799,note_on,239,0,11,,,,,,,,14,,,43,0
106799,note_on,239,0,10,,,,,,,,13,,,55,0
106799,note_on,239,0,12,,,,,,,,15,,,31,0
106800,note_on,21,0,9,,,,,,,,12,,,59,44
106899,note_on,99,0,9,,,,,,,,12,,,59,0
106920,note_on,21,0,9,,,,,,,,12,,,62,44
107019,note_on,99,0,9,,,,,,,,12,,,62,0
107039,note_on,479,0,8,,,,,,,,11,,,74,0
107040,note_on,21,0,9,,,,,,,,12,,,55,44
107040,note_on,1,0,8,,,,,,,,11,,,71,44
107139,note_on,99,0,9,,,,,,,,12,,,55,0
107160,note_on,21,0,9,,,,,,,,12,,,62,44
107259,note_on,99,0,9,,,,,,,,12,,,62,0
107259,note_on,219,0,8,,,,,,,,11,,,71,0
107280,note_on,21,0,9,,,,,,,,12,,,59,44
107280,note_on,21,0,8,,,,,,,,11,,,74,44
107379,note_on,99,0,9,,,,,,,,12,,,59,0
107399,note_on,119,0,8,,,,,,,,11,,,74,0
107400,note_on,21,0,9,,,,,,,,12,,,62,44
107499,note_on,99,0,9,,,,,,,,12,,,62,0
107520,note_on,721,0,12,,,,,,,,15,,,31,44
107520,note_on,121,0,8,,,,,,,,11,,,79,44
107520,note_on,721,0,11,,,,,,,,14,,,43,44
107520,note_on,721,0,10,,,,,,,,13,,,55,44
107520,note_on,21,0,9,,,,,,,,12,,,55,44
107619,note_on,99,0,9,,,,,,,,12,,,55,0
107640,note_on,21,0,9,,,,,,,,12,,,62,44
107739,note_on,99,0,9,,,,,,,,12,,,62,0
107759,note_on,239,0,12,,,,,,,,15,,,31,0
107759,note_on,239,0,10,,,,,,,,13,,,55,0
107759,note_on,239,0,11,,,,,,,,14,,,43,0
107760,note_on,21,0,9,,,,,,,,12,,,59,44
107859,note_on,99,0,9,,,,,,,,12,,,59,0
107880,note_on,21,0,9,,,,,,,,12,,,62,44
107979,note_on,99,0,9,,,,,,,,12,,,62,0
107999,note_on,479,0,8,,,,,,,,11,,,79,0
108000,note_on,21,0,9,,,,,,,,12,,,55,44
108000,note_on,1,0,8,,,,,,,,11,,,74,44
108099,note_on,99,0,9,,,,,,,,12,,,55,0
108120,note_on,21,0,9,,,,,,,,12,,,62,44
108219,note_on,219,0,8,,,,,,,,11,,,74,0
108219,note_on,99,0,9,,,,,,,,12,,,62,0
108240,note_on,21,0,9,,,,,,,,12,,,59,44
108240,note_on,21,0,8,,,,,,,,11,,,79,44
108339,note_on,99,0,9,,,,,,,,12,,,59,0
108359,note_on,119,0,8,,,,,,,,11,,,79,0
108360,note_on,21,0,9,,,,,,,,12,,,62,44
108459,note_on,1899,0,5,,,,,,,,0,,,71,0
108459,note_on,0,0,5,,,,,,,,0,,,74,0
108459,note_on,99,0,9,,,,,,,,12,,,62,0
108480,note_on,721,0,12,,,,,,,,15,,,31,44
108480,note_on,721,0,10,,,,,,,,13,,,55,44
108480,note_on,0,0,5,,,,,,,,0,,,76,44
108480,note_on,721,0,11,,,,,,,,14,,,43,44
108480,note_on,121,0,8,,,,,,,,11,,,76,44
108480,note_on,21,0,5,,,,,,,,0,,,72,44
108480,note_on,21,0,9,,,,,,,,12,,,55,44
108579,note_on,99,0,9,,,,,,,,12,,,55,0
108600,note_on,21,0,9,,,,,,,,12,,,64,44
108699,note_on,99,0,9,,,,,,,,12,,,64,0
108719,note_on,239,0,10,,,,,,,,13,,,55,0
108719,note_on,239,0,12,,,,,,,,15,,,31,0
108719,note_on,239,0,11,,,,,,,,14,,,43,0
108719,note_on,239,0,8,,,,,,,,11,,,76,0
108720,note_on,1,0,8,,,,,,,,11,,,72,44
108720,note_on,21,0,9,,,,,,,,12,,,60,44
108819,note_on,99,0,9,,,,,,,,12,,,60,0
108840,note_on,21,0,9,,,,,,,,12,,,64,44
108939,note_on,219,0,8,,,,,,,,11,,,72,0
108939,note_on,99,0,9,,,,,,,,12,,,64,0
108960,note_on,21,0,8,,,,,,,,11,,,79,44
108960,note_on,21,0,9,,,,,,,,12,,,55,44
109059,note_on,99,0,9,,,,,,,,12,,,55,0
109080,note_on,21,0,9,,,,,,,,12,,,64,44
109179,note_on,99,0,9,,,,,,,,12,,,64,0
109199,note_on,239,0,8,,,,,,,,11,,,79,0
109200,note_on,1,0,8,,,,,,,,11,,,76,44
109200,note_on,21,0,9,,,,,,,,12,,,60,44
109299,note_on,99,0,9,,,,,,,,12,,,60,0
109320,note_on,21,0,9,,,,,,,,12,,,64,44
109419,note_on,0,0,5,,,,,,,,0,,,72,0
109419,note_on,219,0,8,,,,,,,,11,,,76,0
109419,note_on,99,0,9,,,,,,,,12,,,64,0
109419,note_on,939,0,5,,,,,,,,0,,,76,0
109440,note_on,21,0,8,,,,,,,,11,,,74,44
109440,note_on,21,0,9,,,,,,,,12,,,55,44
109440,note_on,21,0,5,,,,,,,,0,,,74,44
109440,note_on,721,0,11,,,,,,,,14,,,43,44
109440,note_on,0,0,5,,,,,,,,0,,,71,44
109440,note_on,721,0,12,,,,,,,,15,,,31,44
109440,note_on,721,0,10,,,,,,,,13,,,55,44
109539,note_on,99,0,9,,,,,,,,12,,,55,0
109560,note_on,21,0,9,,,,,,,,12,,,62,44
109659,note_on,99,0,9,,,,,,,,12,,,62,0
109679,note_on,239,0,10,,,,,,,,13,,,55,0
109679,note_on,239,0,12,,,,,,,,15,,,31,0
109679,note_on,239,0,11,,,,,,,,14,,,43,0
109680,note_on,21,0,9,,,,,,,,12,,,59,44
109779,note_on,99,0,9,,,,,,,,12,,,59,0
109799,note_on,359,0,8,,,,,,,,11,,,74,0
109800,note_on,1,0,8,,,,,,,,11,,,71,44
109800,note_on,21,0,9,,,,,,,,12,,,62,44
109899,note_on,99,0,9,,,,,,,,12,,,62,0
109899,note_on,99,0,8,,,,,,,,11,,,71,0
109920,note_on,21,0,9,,,,,,,,12,,,55,44
109920,note_on,21,0,8,,,,,,,,11,,,67,44
110019,note_on,99,0,9,,,,,,,,12,,,55,0
110040,note_on,21,0,9,,,,,,,,12,,,62,44
110139,note_on,99,0,9,,,,,,,,12,,,62,0
110159,note_on,239,0,8,,,,,,,,11,,,67,0
110160,note_on,21,0,9,,,,,,,,12,,,59,44
110259,note_on,99,0,9,,,,,,,,12,,,59,0
110280,note_on,21,0,9,,,,,,,,12,,,62,44
110379,note_on,0,0,5,,,,,,,,0,,,74,0
110379,note_on,99,0,9,,,,,,,,12,,,62,0
110379,note_on,939,0,5,,,,,,,,0,,,71,0
110399,note_on,3839,0,6,,,,,,,,1,,,43,0
110399,note_on,0,0,6,,,,,,,,1,,,55,0
110400,note_on,0,0,5,,,,,,,,0,,,72,44
110400,note_on,21,0,9,,,,,,,,12,,,57,44
110400,note_on,721,0,12,,,,,,,,15,,,38,44
110400,note_on,21,0,5,,,,,,,,0,,,69,44
110400,note_on,721,0,11,,,,,,,,14,,,50,44
110400,note_on,241,0,8,,,,,,,,11,,,84,44
110400,note_on,721,0,10,,,,,,,,13,,,62,44
110499,note_on,99,0,9,,,,,,,,12,,,57,0
110520,note_on,21,0,9,,,,,,,,12,,,62,44
110619,note_on,99,0,9,,,,,,,,12,,,62,0
110639,note_on,239,0,12,,,,,,,,15,,,38,0
110639,note_on,239,0,10,,,,,,,,13,,,62,0
110639,note_on,239,0,11,,,,,,,,14,,,50,0
110640,note_on,21,0,9,,,,,,,,12,,,60,44
110739,note_on,99,0,9,,,,,,,,12,,,60,0
110760,note_on,21,0,9,,,,,,,,12,,,62,44
110859,note_on,99,0,9,,,,,,,,12,,,62,0
110879,note_on,479,0,8,,,,,,,,11,,,84,0
110880,note_on,1,0,8,,,,,,,,11,,,81,44
110880,note_on,21,0,9,,,,,,,,12,,,57,44
110979,note_on,99,0,9,,,,,,,,12,,,57,0
111000,note_on,21,0,9,,,,,,,,12,,,62,44
111099,note_on,99,0,9,,,,,,,,12,,,62,0
111119,note_on,239,0,8,,,,,,,,11,,,81,0
111120,note_on,21,0,9,,,,,,,,12,,,60,44
111120,note_on,1,0,8,,,,,,,,11,,,78,44
111219,note_on,99,0,9,,,,,,,,12,,,60,0
111240,note_on,21,0,9,,,,,,,,12,,,62,44
111339,note_on,0,0,5,,,,,,,,0,,,69,0
111339,note_on,219,0,8,,,,,,,,11,,,78,0
111339,note_on,99,0,9,,,,,,,,12,,,62,0
111339,note_on,939,0,5,,,,,,,,0,,,72,0
111360,note_on,721,0,12,,,,,,,,15,,,43,44
111360,note_on,21,0,8,,,,,,,,11,,,79,44
111360,note_on,21,0,5,,,,,,,,0,,,71,44
111360,note_on,721,0,11,,,,,,,,14,,,55,44
111360,note_on,21,0,9,,,,,,,,12,,,55,44
111360,note_on,0,0,5,,,,,,,,0,,,67,44
111360,note_on,721,0,10,,,,,,,,13,,,67,44
111459,note_on,99,0,9,,,,,,,,12,,,55,0
111480,note_on,21,0,9,,,,,,,,12,,,62,44
111579,note_on,99,0,9,,,,,,,,12,,,62,0
111599,note_on,239,0,11,,,,,,,,14,,,55,0
111599,note_on,239,0,10,,,,,,,,13,,,67,0
111599,note_on,239,0,12,,,,,,,,15,,,43,0
111600,note_on,21,0,9,,,,,,,,12,,,59,44
111699,note_on,99,0,9,,,,,,,,12,,,59,0
111720,note_on,21,0,9,,,,,,,,12,,,62,44
111819,note_on,99,0,9,,,,,,,,12,,,62,0
111839,note_on,479,0,8,,,,,,,,11,,,79,0
111839,note_on,479,0,5,,,,,,,,0,,,67,0
111839,note_on,0,0,5,,,,,,,,0,,,71,0
111840,note_on,1,0,8,,,,,,,,11,,,74,44
111840,note_on,1,0,5,,,,,,,,0,,,83,44
111840,note_on,0,0,5,,,,,,,,0,,,74,44
111840,note_on,21,0,9,,,,,,,,12,,,55,44
111939,note_on,99,0,9,,,,,,,,12,,,55,0
111960,note_on,21,0,9,,,,,,,,12,,,62,44
112059,note_on,99,0,9,,,,,,,,12,,,62,0
112079,note_on,239,0,8,,,,,,,,11,,,74,0
112080,note_on,1,0,8,,,,,,,,11,,,71,44
112080,note_on,21,0,9,,,,,,,,12,,,59,44
112179,note_on,99,0,9,,,,,,,,12,,,59,0
112200,note_on,21,0,9,,,,,,,,12,,,62,44
112299,note_on,459,0,5,,,,,,,,0,,,74,0
112299,note_on,0,0,5,,,,,,,,0,,,83,0
112299,note_on,219,0,8,,,,,,,,11,,,71,0
112299,note_on,99,0,9,,,,,,,,12,,,62,0
112320,note_on,721,0,12,,,,,,,,15,,,36,44
112320,note_on,721,0,10,,,,,,,,13,,,60,44
112320,note_on,721,0,11,,,,,,,,14,,,48,44
112320,note_on,21,0,9,,,,,,,,12,,,55,44
112320,note_on,21,0,5,,,,,,,,0,,,72,44
112320,note_on,0,0,5,,,,,,,,0,,,81,44
112320,note_on,21,0,8,,,,,,,,11,,,69,44
112419,note_on,99,0,9,,,,,,,,12,,,55,0
112440,note_on,21,0,9,,,,,,,,12,,,64,44
112539,note_on,99,0,9,,,,,,,,12,,,64,0
112539,note_on,219,0,8,,,,,,,,11,,,69,0
112559,note_on,239,0,12,,,,,,,,15,,,36,0
112559,note_on,239,0,10,,,,,,,,13,,,60,0
112559,note_on,239,0,11,,,,,,,,14,,,48,0
112560,note_on,21,0,8,,,,,,,,11,,,76,44
112560,note_on,21,0,9,,,,,,,,12,,,60,44
112659,note_on,99,0,9,,,,,,,,12,,,60,0
112680,note_on,21,0,9,,,,,,,,12,,,57,44
112779,note_on,99,0,9,,,,,,,,12,,,57,0
112799,note_on,479,0,5,,,,,,,,0,,,81,0
112799,note_on,0,0,5,,,,,,,,0,,,72,0
112799,note_on,239,0,8,,,,,,,,11,,,76,0
112800,note_on,1,0,5,,,,,,,,0,,,71,44
112800,note_on,241,0,11,,,,,,,,14,,,50,44
112800,note_on,21,0,9,,,,,,,,12,,,59,44
112800,note_on,241,0,10,,,,,,,,13,,,62,44
112800,note_on,1,0,8,,,,,,,,11,,,74,44
112800,note_on,0,0,5,,,,,,,,0,,,79,44
112800,note_on,241,0,12,,,,,,,,15,,,38,44
112899,note_on,99,0,9,,,,,,,,12,,,59,0
112920,note_on,21,0,9,,,,,,,,12,,,62,44
113019,note_on,99,0,9,,,,,,,,12,,,62,0
113019,note_on,219,0,8,,,,,,,,11,,,74,0
113039,note_on,239,0,11,,,,,,,,14,,,50,0
113039,note_on,0,0,5,,,,,,,,0,,,71,0
113039,note_on,239,0,5,,,,,,,,0,,,79,0
113039,note_on,239,0,10,,,,,,,,13,,,62,0
113039,note_on,239,0,12,,,,,,,,15,,,38,0
113040,note_on,0,0,5,,,,,,,,0,,,69,44
113040,note_on,1,0,5,,,,,,,,0,,,78,44
113040,note_on,21,0,8,,,,,,,,11,,,66,44
113040,note_on,21,0,9,,,,,,,,12,,,60,44
113139,note_on,99,0,9,,,,,,,,12,,,60,0
113160,note_on,21,0,9,,,,,,,,12,,,57,44
113259,note_on,99,0,9,,,,,,,,12,,,57,0
113259,note_on,219,0,5,,,,,,,,0,,,69,0
113259,note_on,0,0,5,,,,,,,,0,,,78,0
113279,note_on,239,0,8,,,,,,,,11,,,66,0
113280,note_on,0,0,5,,,,,,,,0,,,79,44
113280,note_on,241,0,10,,,,,,,,13,,,62,44
113280,note_on,21,0,5,,,,,,,,0,,,71,44
113280,note_on,21,0,9,,,,,,,,12,,,59,44
113280,note_on,1,0,8,,,,,,,,11,,,67,44
113280,note_on,241,0,11,,,,,,,,14,,,43,44
113280,note_on,241,0,12,,,,,,,,15,,,31,44
113379,note_on,99,0,10,,,,,,,,13,,,62,0
113400,note_on,21,0,10,,,,,,,,13,,,62,44
113499,note_on,99,0,10,,,,,,,,13,,,62,0
113519,note_on,239,0,5,,,,,,,,0,,,79,0
113519,note_on,239,0,9,,,,,,,,12,,,59,0
113519,note_on,239,0,8,,,,,,,,11,,,67,0
113519,note_on,239,0,11,,,,,,,,14,,,43,0
113519,note_on,239,0,12,,,,,,,,15,,,31,0
113519,note_on,0,0,5,,,,,,,,0,,,71,0
113520,note_on,21,0,10,,,,,,,,13,,,62,44
113619,note_on,99,0,10,,,,,,,,13,,,62,0
113640,note_on,21,0,10,,,,,,,,13,,,62,44
113739,note_on,99,0,10,,,,,,,,13,,,62,0
113760,note_on,241,0,9,,,,,,,,12,,,81,80
113760,note_on,15361,0,7,,,,,,,,2,,,74,80
113760,note_on,3361,0,6,,,,,,,,1,,,62,80
113760,note_on,21,0,10,,,,,,,,13,,,62,80
113760,note_on,0,0,10,,,,,,,,13,,,74,80
113760,note_on,241,0,8,,,,,,,,11,,,84,80
113760,note_on,241,0,12,,,,,,,,15,,,42,80
113760,note_on,241,0,11,,,,,,,,14,,,54,80
113760,note_on,0,0,5,,,,,,,,0,,,84,80
113760,note_on,241,0,5,,,,,,,,0,,,81,80
113859,note_on,99,0,8,,,,,,,,11,,,84,0
113859,note_on,0,0,10,,,,,,,,13,,,62,0
113859,note_on,99,0,10,,,,,,,,13,,,74,0
113859,note_on,99,0,9,,,,,,,,12,,,81,0
113880,note_on,21,0,9,,,,,,,,12,,,81,80
113880,note_on,21,0,8,,,,,,,,11,,,84,80
113880,note_on,0,0,10,,,,,,,,13,,,74,80
113880,note_on,21,0,10,,,,,,,,13,,,62,80
113979,note_on,99,0,9,,,,,,,,12,,,81,0
113979,note_on,99,0,10,,,,,,,,13,,,74,0
113979,note_on,99,0,8,,,,,,,,11,,,84,0
113979,note_on,0,0,10,,,,,,,,13,,,62,0
113999,note_on,0,0,5,,,,,,,,0,,,81,0
113999,note_on,239,0,12,,,,,,,,15,,,42,0
113999,note_on,239,0,7,,,,,,,,2,,,74,0
113999,note_on,239,0,11,,,,,,,,14,,,54,0
113999,note_on,239,0,5,,,,,,,,0,,,84,0
113999,note_on,239,0,6,,,,,,,,1,,,62,0
114000,note_on,21,0,10,,,,,,,,13,,,62,80
114000,note_on,0,0,10,,,,,,,,13,,,74,80
114000,note_on,1,0,5,,,,,,,,0,,,79,80
114000,note_on,0,0,5,,,,,,,,0,,,83,80
114000,note_on,1,0,12,,,,,,,,15,,,43,80
114000,note_on,21,0,9,,,,,,,,12,,,79,80
114000,note_on,21,0,8,,,,,,,,11,,,83,80
114000,note_on,1,0,11,,,,,,,,14,,,55,80
114099,note_on,99,0,8,,,,,,,,11,,,83,0
114099,note_on,0,0,10,,,,,,,,13,,,62,0
114099,note_on,99,0,10,,,,,,,,13,,,74,0
114099,note_on,99,0,9,,,,,,,,12,,,79,0
114120,note_on,0,0,10,,,,,,,,13,,,74,80
114120,note_on,21,0,10,,,,,,,,13,,,62,80
114120,note_on,21,0,9,,,,,,,,12,,,79,80
114120,note_on,21,0,8,,,,,,,,11,,,83,80
114219,note_on,99,0,9,,,,,,,,12,,,79,0
114219,note_on,219,0,12,,,,,,,,15,,,43,0
114219,note_on,0,0,10,,,,,,,,13,,,62,0
114219,note_on,99,0,10,,,,,,,,13,,,74,0
114219,note_on,219,0,11,,,,,,,,14,,,55,0
114219,note_on,99,0,8,,,,,,,,11,,,83,0
114239,note_on,239,0,5,,,,,,,,0,,,83,0
114239,note_on,0,0,5,,,,,,,,0,,,79,0
114240,note_on,21,0,10,,,,,,,,13,,,74,44
114240,note_on,0,0,10,,,,,,,,13,,,62,44
114240,note_on,21,0,11,,,,,,,,14,,,60,44
114240,note_on,21,0,9,,,,,,,,12,,,78,44
114240,note_on,21,0,12,,,,,,,,15,,,48,44
114240,note_on,21,0,8,,,,,,,,11,,,81,44
114339,note_on,99,0,9,,,,,,,,12,,,78,0
114339,note_on,99,0,10,,,,,,,,13,,,62,0
114339,note_on,0,0,10,,,,,,,,13,,,74,0
114339,note_on,99,0,8,,,,,,,,11,,,81,0
114360,note_on,21,0,8,,,,,,,,11,,,81,44
114360,note_on,21,0,9,,,,,,,,12,,,78,44
114360,note_on,21,0,10,,,,,,,,13,,,74,44
114360,note_on,0,0,10,,,,,,,,13,,,62,44
114459,note_on,99,0,9,,,,,,,,12,,,78,0
114459,note_on,99,0,10,,,,,,,,13,,,62,0
114459,note_on,99,0,8,,,,,,,,11,,,81,0
114459,note_on,0,0,10,,,,,,,,13,,,74,0
114479,note_on,239,0,11,,,,,,,,14,,,60,0
114479,note_on,239,0,12,,,,,,,,15,,,48,0
114480,note_on,21,0,10,,,,,,,,13,,,74,44
114480,note_on,1,0,12,,,,,,,,15,,,47,44
114480,note_on,1,0,11,,,,,,,,14,,,59,44
114480,note_on,21,0,8,,,,,,,,11,,,79,44
114480,note_on,21,0,9,,,,,,,,12,,,79,44
114480,note_on,0,0,10,,,,,,,,13,,,62,44
114579,note_on,99,0,9,,,,,,,,12,,,79,0
114579,note_on,99,0,8,,,,,,,,11,,,79,0
114579,note_on,0,0,10,,,,,,,,13,,,74,0
114579,note_on,99,0,10,,,,,,,,13,,,62,0
114600,note_on,21,0,8,,,,,,,,11,,,79,44
114600,note_on,21,0,10,,,,,,,,13,,,74,44
114600,note_on,21,0,9,,,,,,,,12,,,79,44
114600,note_on,0,0,10,,,,,,,,13,,,62,44
114699,note_on,99,0,10,,,,,,,,13,,,62,0
114699,note_on,99,0,8,,,,,,,,11,,,79,0
114699,note_on,219,0,12,,,,,,,,15,,,47,0
114699,note_on,99,0,9,,,,,,,,12,,,79,0
114699,note_on,219,0,11,,,,,,,,14,,,59,0
114699,note_on,0,0,10,,,,,,,,13,,,74,0
114720,note_on,21,0,9,,,,,,,,12,,,81,80
114720,note_on,21,0,10,,,,,,,,13,,,74,80
114720,note_on,0,0,10,,,,,,,,13,,,62,80
114720,note_on,721,0,7,,,,,,,,2,,,74,80
114720,note_on,21,0,12,,,,,,,,15,,,42,80
114720,note_on,21,0,11,,,,,,,,14,,,54,80
114720,note_on,0,0,5,,,,,,,,0,,,81,80
114720,note_on,481,0,5,,,,,,,,0,,,84,80
114720,note_on,721,0,6,,,,,,,,1,,,62,80
114720,note_on,21,0,8,,,,,,,,11,,,84,80
114819,note_on,99,0,8,,,,,,,,11,,,84,0
114819,note_on,99,0,9,,,,,,,,12,,,81,0
114819,note_on,99,0,10,,,,,,,,13,,,62,0
114819,note_on,0,0,10,,,,,,,,13,,,74,0
114840,note_on,0,0,10,,,,,,,,13,,,62,80
114840,note_on,21,0,10,,,,,,,,13,,,74,80
114840,note_on,21,0,8,,,,,,,,11,,,84,80
114840,note_on,21,0,9,,,,,,,,12,,,81,80
114939,note_on,99,0,9,,,,,,,,12,,,81,0
114939,note_on,99,0,10,,,,,,,,13,,,62,0
114939,note_on,99,0,8,,,,,,,,11,,,84,0
114939,note_on,0,0,10,,,,,,,,13,,,74,0
114959,note_on,239,0,12,,,,,,,,15,,,42,0
114959,note_on,239,0,7,,,,,,,,2,,,74,0
114959,note_on,239,0,5,,,,,,,,0,,,81,0
114959,note_on,0,0,5,,,,,,,,0,,,84,0
114959,note_on,239,0,6,,,,,,,,1,,,62,0
114959,note_on,239,0,11,,,,,,,,14,,,54,0
114960,note_on,21,0,9,,,,,,,,12,,,79,80
114960,note_on,1,0,12,,,,,,,,15,,,43,80
114960,note_on,21,0,10,,,,,,,,13,,,62,80
114960,note_on,1,0,5,,,,,,,,0,,,79,80
114960,note_on,1,0,11,,,,,,,,14,,,55,80
114960,note_on,0,0,10,,,,,,,,13,,,74,80
114960,note_on,21,0,8,,,,,,,,11,,,83,80
114960,note_on,0,0,5,,,,,,,,0,,,83,80
115059,note_on,0,0,10,,,,,,,,13,,,62,0
115059,note_on,99,0,10,,,,,,,,13,,,74,0
115059,note_on,99,0,9,,,,,,,,12,,,79,0
115059,note_on,99,0,8,,,,,,,,11,,,83,0
115080,note_on,0,0,10,,,,,,,,13,,,74,80
115080,note_on,21,0,10,,,,,,,,13,,,62,80
115080,note_on,21,0,9,,,,,,,,12,,,79,80
115080,note_on,21,0,8,,,,,,,,11,,,83,80
115179,note_on,0,0,10,,,,,,,,13,,,62,0
115179,note_on,99,0,8,,,,,,,,11,,,83,0
115179,note_on,99,0,10,,,,,,,,13,,,74,0
115179,note_on,219,0,12,,,,,,,,15,,,43,0
115179,note_on,219,0,11,,,,,,,,14,,,55,0
115179,note_on,99,0,9,,,,,,,,12,,,79,0
115199,note_on,0,0,5,,,,,,,,0,,,79,0
115199,note_on,239,0,5,,,,,,,,0,,,83,0
115200,note_on,21,0,12,,,,,,,,15,,,48,44
115200,note_on,0,0,10,,,,,,,,13,,,74,44
115200,note_on,21,0,11,,,,,,,,14,,,60,44
115200,note_on,21,0,10,,,,,,,,13,,,62,44
115200,note_on,21,0,8,,,,,,,,11,,,81,44
115200,note_on,21,0,9,,,,,,,,12,,,78,44
115299,note_on,99,0,10,,,,,,,,13,,,74,0
115299,note_on,99,0,8,,,,,,,,11,,,81,0
115299,note_on,0,0,10,,,,,,,,13,,,62,0
115299,note_on,99,0,9,,,,,,,,12,,,78,0
115320,note_on,21,0,8,,,,,,,,11,,,81,44
115320,note_on,21,0,10,,,,,,,,13,,,74,44
115320,note_on,21,0,9,,,,,,,,12,,,78,44
115320,note_on,0,0,10,,,,,,,,13,,,62,44
115419,note_on,99,0,10,,,,,,,,13,,,62,0
115419,note_on,99,0,9,,,,,,,,12,,,78,0
115419,note_on,99,0,8,,,,,,,,11,,,81,0
115419,note_on,0,0,10,,,,,,,,13,,,74,0
115439,note_on,239,0,11,,,,,,,,14,,,60,0
115439,note_on,239,0,12,,,,,,,,15,,,48,0
115440,note_on,21,0,10,,,,,,,,13,,,74,44
115440,note_on,0,0,10,,,,,,,,13,,,62,44
115440,note_on,21,0,9,,,,,,,,12,,,79,44
115440,note_on,1,0,11,,,,,,,,14,,,59,44
115440,note_on,1,0,12,,,,,,,,15,,,47,44
115440,note_on,21,0,8,,,,,,,,11,,,79,44
115539,note_on,0,0,10,,,,,,,,13,,,74,0
115539,note_on,99,0,10,,,,,,,,13,,,62,0
115539,note_on,99,0,8,,,,,,,,11,,,79,0
115539,note_on,99,0,9,,,,,,,,12,,,79,0
115560,note_on,0,0,10,,,,,,,,13,,,74,44
115560,note_on,21,0,10,,,,,,,,13,,,62,44
115560,note_on,21,0,9,,,,,,,,12,,,79,44
115560,note_on,21,0,8,,,,,,,,11,,,79,44
115659,note_on,0,0,10,,,,,,,,13,,,62,0
115659,note_on,99,0,8,,,,,,,,11,,,79,0
115659,note_on,219,0,11,,,,,,,,14,,,59,0
115659,note_on,219,0,12,,,,,,,,15,,,47,0
115659,note_on,99,0,9,,,,,,,,12,,,79,0
115659,note_on,99,0,10,,,,,,,,13,,,74,0
115680,note_on,721,0,6,,,,,,,,1,,,62,80
115680,note_on,21,0,12,,,,,,,,15,,,42,80
115680,note_on,21,0,9,,,,,,,,12,,,81,80
115680,note_on,721,0,7,,,,,,,,2,,,74,80
115680,note_on,0,0,10,,,,,,,,13,,,62,80
115680,note_on,0,0,5,,,,,,,,0,,,81,80
115680,note_on,481,0,5,,,,,,,,0,,,84,80
115680,note_on,21,0,11,,,,,,,,14,,,54,80
115680,note_on,21,0,10,,,,,,,,13,,,74,80
115680,note_on,21,0,8,,,,,,,,11,,,84,80
115779,note_on,99,0,10,,,,,,,,13,,,62,0
115779,note_on,0,0,10,,,,,,,,13,,,74,0
115779,note_on,99,0,9,,,,,,,,12,,,81,0
115779,note_on,99,0,8,,,,,,,,11,,,84,0
115800,note_on,21,0,9,,,,,,,,12,,,81,80
115800,note_on,21,0,8,,,,,,,,11,,,84,80
115800,note_on,21,0,10,,,,,,,,13,,,62,80
115800,note_on,0,0,10,,,,,,,,13,,,74,80
115899,note_on,99,0,9,,,,,,,,12,,,81,0
115899,note_on,0,0,10,,,,,,,,13,,,62,0
115899,note_on,99,0,8,,,,,,,,11,,,84,0
115899,note_on,99,0,10,,,,,,,,13,,,74,0
115919,note_on,239,0,5,,,,,,,,0,,,81,0
115919,note_on,239,0,7,,,,,,,,2,,,74,0
115919,note_on,0,0,5,,,,,,,,0,,,84,0
115919,note_on,239,0,12,,,,,,,,15,,,42,0
115919,note_on,239,0,6,,,,,,,,1,,,62,0
115919,note_on,239,0,11,,,,,,,,14,,,54,0
115920,note_on,1,0,5,,,,,,,,0,,,83,80
115920,note_on,0,0,5,,,,,,,,0,,,79,80
115920,note_on,21,0,8,,,,,,,,11,,,83,80
115920,note_on,21,0,10,,,,,,,,13,,,62,80
115920,note_on,1,0,12,,,,,,,,15,,,43,80
115920,note_on,21,0,9,,,,,,,,12,,,79,80
115920,note_on,1,0,11,,,,,,,,14,,,55,80
115920,note_on,0,0,10,,,,,,,,13,,,74,80
116019,note_on,99,0,8,,,,,,,,11,,,83,0
116019,note_on,0,0,10,,,,,,,,13,,,62,0
116019,note_on,99,0,9,,,,,,,,12,,,79,0
116019,note_on,99,0,10,,,,,,,,13,,,74,0
116040,note_on,21,0,10,,,,,,,,13,,,74,80
116040,note_on,0,0,10,,,,,,,,13,,,62,80
116040,note_on,21,0,9,,,,,,,,12,,,79,80
116040,note_on,21,0,8,,,,,,,,11,,,83,80
116139,note_on,219,0,11,,,,,,,,14,,,55,0
116139,note_on,99,0,10,,,,,,,,13,,,62,0
116139,note_on,99,0,9,,,,,,,,12,,,79,0
116139,note_on,219,0,12,,,,,,,,15,,,43,0
116139,note_on,99,0,8,,,,,,,,11,,,83,0
116139,note_on,0,0,10,,,,,,,,13,,,74,0
116159,note_on,0,0,5,,,,,,,,0,,,83,0
116159,note_on,239,0,5,,,,,,,,0,,,79,0
116160,note_on,21,0,11,,,,,,,,14,,,60,44
116160,note_on,21,0,9,,,,,,,,12,,,78,44
116160,note_on,21,0,12,,,,,,,,15,,,48,44
116160,note_on,21,0,8,,,,,,,,11,,,81,44
116160,note_on,21,0,10,,,,,,,,13,,,62,44
116160,note_on,0,0,10,,,,,,,,13,,,74,44
116259,note_on,99,0,9,,,,,,,,12,,,78,0
116259,note_on,0,0,10,,,,,,,,13,,,62,0
116259,note_on,99,0,8,,,,,,,,11,,,81,0
116259,note_on,99,0,10,,,,,,,,13,,,74,0
116280,note_on,21,0,10,,,,,,,,13,,,62,44
116280,note_on,21,0,8,,,,,,,,11,,,81,44
116280,note_on,0,0,10,,,,,,,,13,,,74,44
116280,note_on,21,0,9,,,,,,,,12,,,78,44
116379,note_on,99,0,9,,,,,,,,12,,,78,0
116379,note_on,99,0,8,,,,,,,,11,,,81,0
116379,note_on,0,0,10,,,,,,,,13,,,62,0
116379,note_on,99,0,10,,,,,,,,13,,,74,0
116399,note_on,239,0,11,,,,,,,,14,,,60,0
116399,note_on,239,0,12,,,,,,,,15,,,48,0
116400,note_on,1,0,11,,,,,,,,14,,,59,44
116400,note_on,21,0,9,,,,,,,,12,,,79,44
116400,note_on,0,0,10,,,,,,,,13,,,62,44
116400,note_on,1,0,12,,,,,,,,15,,,47,44
116400,note_on,21,0,8,,,,,,,,11,,,79,44
116400,note_on,21,0,10,,,,,,,,13,,,74,44
116499,note_on,0,0,10,,,,,,,,13,,,74,0
116499,note_on,99,0,9,,,,,,,,12,,,79,0
116499,note_on,99,0,10,,,,,,,,13,,,62,0
116499,note_on,99,0,8,,,,,,,,11,,,79,0
116520,note_on,21,0,10,,,,,,,,13,,,62,44
116520,note_on,21,0,8,,,,,,,,11,,,79,44
116520,note_on,21,0,9,,,,,,,,12,,,79,44
116520,note_on,0,0,10,,,,,,,,13,,,74,44
116619,note_on,99,0,9,,,,,,,,12,,,79,0
116619,note_on,219,0,11,,,,,,,,14,,,59,0
116619,note_on,0,0,10,,,,,,,,13,,,62,0
116619,note_on,219,0,12,,,,,,,,15,,,47,0
116619,note_on,99,0,10,,,,,,,,13,,,74,0
116619,note_on,99,0,8,,,,,,,,11,,,79,0
116640,note_on,21,0,9,,,,,,,,12,,,81,80
116640,note_on,21,0,11,,,,,,,,14,,,54,80
116640,note_on,0,0,5,,,,,,,,0,,,81,80
116640,note_on,721,0,6,,,,,,,,1,,,62,80
116640,note_on,21,0,10,,,,,,,,13,,,74,80
116640,note_on,0,0,10,,,,,,,,13,,,62,80
116640,note_on,721,0,7,,,,,,,,2,,,74,80
116640,note_on,21,0,8,,,,,,,,11,,,84,80
116640,note_on,481,0,5,,,,,,,,0,,,84,80
116640,note_on,21,0,12,,,,,,,,15,,,42,80
116739,note_on,0,0,10,,,,,,,,13,,,74,0
116739,note_on,99,0,10,,,,,,,,13,,,62,0
116739,note_on,99,0,8,,,,,,,,11,,,84,0
116739,note_on,99,0,9,,,,,,,,12,,,81,0
116760,note_on,21,0,9,,,,,,,,12,,,81,80
116760,note_on,0,0,10,,,,,,,,13,,,62,80
116760,note_on,21,0,10,,,,,,,,13,,,74,80
116760,note_on,21,0,8,,,,,,,,11,,,84,80
116859,note_on,0,0,10,,,,,,,,13,,,74,0
116859,note_on,99,0,9,,,,,,,,12,,,81,0
116859,note_on,99,0,8,,,,,,,,11,,,84,0
116859,note_on,99,0,10,,,,,,,,13,,,62,0
116879,note_on,239,0,12,,,,,,,,15,,,42,0
116879,note_on,0,0,5,,,,,,,,0,,,84,0
116879,note_on,239,0,5,,,,,,,,0,,,81,0
116879,note_on,239,0,11,,,,,,,,14,,,54,0
116880,note_on,21,0,8,,,,,,,,11,,,83,80
116880,note_on,21,0,9,,,,,,,,12,,,79,80
116880,note_on,0,0,5,,,,,,,,0,,,79,80
116880,note_on,1,0,5,,,,,,,,0,,,83,80
116880,note_on,1,0,12,,,,,,,,15,,,43,80
116880,note_on,21,0,10,,,,,,,,13,,,62,80
116880,note_on,1,0,11,,,,,,,,14,,,55,80
116880,note_on,0,0,10,,,,,,,,13,,,74,80
116979,note_on,99,0,10,,,,,,,,13,,,74,0
116979,note_on,99,0,9,,,,,,,,12,,,79,0
116979,note_on,99,0,8,,,,,,,,11,,,83,0
116979,note_on,0,0,10,,,,,,,,13,,,62,0
117000,note_on,21,0,9,,,,,,,,12,,,79,80
117000,note_on,21,0,8,,,,,,,,11,,,83,80
117000,note_on,21,0,10,,,,,,,,13,,,74,80
117000,note_on,0,0,10,,,,,,,,13,,,62,80
117099,note_on,459,0,7,,,,,,,,2,,,74,0
117099,note_on,219,0,12,,,,,,,,15,,,43,0
117099,note_on,99,0,10,,,,,,,,13,,,62,0
117099,note_on,219,0,5,,,,,,,,0,,,79,0
117099,note_on,0,0,5,,,,,,,,0,,,83,0
117099,note_on,99,0,8,,,,,,,,11,,,83,0
117099,note_on,459,0,6,,,,,,,,1,,,62,0
117099,note_on,0,0,10,,,,,,,,13,,,74,0
117099,note_on,219,0,11,,,,,,,,14,,,55,0
117099,note_on,99,0,9,,,,,,,,12,,,79,0
117120,note_on,21,0,11,,,,,,,,14,,,48,80
117120,note_on,21,0,9,,,,,,,,12,,,79,80
117120,note_on,0,0,6,,,,,,,,1,,,60,80
117120,note_on,21,0,8,,,,,,,,11,,,88,80
117120,note_on,21,0,7,,,,,,,,2,,,67,80
117120,note_on,21,0,12,,,,,,,,15,,,36,80
117120,note_on,21,0,6,,,,,,,,1,,,64,80
117120,note_on,21,0,10,,,,,,,,13,,,72,80
117120,note_on,0,0,5,,,,,,,,0,,,76,80
117120,note_on,21,0,5,,,,,,,,0,,,81,80
117219,note_on,99,0,8,,,,,,,,11,,,88,0
117219,note_on,99,0,10,,,,,,,,13,,,72,0
117219,note_on,99,0,9,,,,,,,,12,,,79,0
117240,note_on,21,0,9,,,,,,,,12,,,79,80
117240,note_on,21,0,10,,,,,,,,13,,,72,80
117240,note_on,21,0,8,,,,,,,,11,,,88,80
117339,note_on,99,0,10,,,,,,,,13,,,72,0
117339,note_on,219,0,11,,,,,,,,14,,,48,0
117339,note_on,219,0,12,,,,,,,,15,,,36,0
117339,note_on,99,0,8,,,,,,,,11,,,88,0
117339,note_on,99,0,9,,,,,,,,12,,,79,0
117360,note_on,21,0,11,,,,,,,,14,,,64,80
117360,note_on,21,0,10,,,,,,,,13,,,76,80
117360,note_on,21,0,9,,,,,,,,12,,,79,80
117360,note_on,21,0,12,,,,,,,,15,,,52,80
117360,note_on,21,0,8,,,,,,,,11,,,84,80
117459,note_on,99,0,9,,,,,,,,12,,,79,0
117459,note_on,99,0,10,,,,,,,,13,,,76,0
117459,note_on,99,0,8,,,,,,,,11,,,84,0
117480,note_on,21,0,8,,,,,,,,11,,,84,80
117480,note_on,21,0,9,,,,,,,,12,,,79,80
117480,note_on,21,0,10,,,,,,,,13,,,76,80
117579,note_on,99,0,10,,,,,,,,13,,,76,0
117579,note_on,99,0,9,,,,,,,,12,,,79,0
117579,note_on,99,0,8,,,,,,,,11,,,84,0
117599,note_on,239,0,12,,,,,,,,15,,,52,0
117599,note_on,239,0,11,,,,,,,,14,,,64,0
117600,note_on,1,0,11,,,,,,,,14,,,60,80
117600,note_on,1,0,12,,,,,,,,15,,,48,80
117600,note_on,21,0,9,,,,,,,,12,,,79,80
117600,note_on,21,0,10,,,,,,,,13,,,72,80
117600,note_on,21,0,8,,,,,,,,11,,,81,80
117699,note_on,99,0,8,,,,,,,,11,,,81,0
117699,note_on,99,0,9,,,,,,,,12,,,79,0
117699,note_on,99,0,10,,,,,,,,13,,,72,0
117720,note_on,21,0,10,,,,,,,,13,,,72,80
117720,note_on,21,0,9,,,,,,,,12,,,79,80
117720,note_on,21,0,8,,,,,,,,11,,,81,80
117819,note_on,699,0,6,,,,,,,,1,,,60,0
117819,note_on,0,0,6,,,,,,,,1,,,64,0
117819,note_on,99,0,9,,,,,,,,12,,,79,0
117819,note_on,99,0,10,,,,,,,,13,,,72,0
117819,note_on,99,0,8,,,,,,,,11,,,81,0
117839,note_on,239,0,11,,,,,,,,14,,,60,0
117839,note_on,239,0,12,,,,,,,,15,,,48,0
117839,note_on,719,0,5,,,,,,,,0,,,76,0
117839,note_on,0,0,5,,,,,,,,0,,,81,0
117840,note_on,21,0,9,,,,,,,,12,,,79,80
117840,note_on,1,0,12,,,,,,,,15,,,45,80
117840,note_on,1,0,5,,,,,,,,0,,,72,80
117840,note_on,0,0,5,,,,,,,,0,,,84,80
117840,note_on,21,0,8,,,,,,,,11,,,84,80
117840,note_on,1,0,11,,,,,,,,14,,,57,80
117840,note_on,21,0,10,,,,,,,,13,,,69,80
117840,note_on,21,0,6,,,,,,,,1,,,64,80
117840,note_on,0,0,6,,,,,,,,1,,,67,80
117939,note_on,99,0,10,,,,,,,,13,,,69,0
117939,note_on,99,0,9,,,,,,,,12,,,79,0
117939,note_on,99,0,8,,,,,,,,11,,,84,0
117960,note_on,21,0,9,,,,,,,,12,,,79,80
117960,note_on,21,0,10,,,,,,,,13,,,69,80
117960,note_on,21,0,8,,,,,,,,11,,,84,80
118059,note_on,0,0,6,,,,,,,,1,,,64,0
118059,note_on,99,0,10,,,,,,,,13,,,69,0
118059,note_on,99,0,8,,,,,,,,11,,,84,0
118059,note_on,219,0,6,,,,,,,,1,,,67,0
118059,note_on,939,0,7,,,,,,,,2,,,67,0
118059,note_on,219,0,12,,,,,,,,15,,,45,0
118059,note_on,99,0,9,,,,,,,,12,,,79,0
118059,note_on,219,0,5,,,,,,,,0,,,84,0
118059,note_on,0,0,5,,,,,,,,0,,,72,0
118059,note_on,219,0,11,,,,,,,,14,,,57,0
118080,note_on,0,0,5,,,,,,,,0,,,79,80
118080,note_on,21,0,8,,,,,,,,11,,,83,80
118080,note_on,21,0,5,,,,,,,,0,,,83,80
118080,note_on,0,0,6,,,,,,,,1,,,67,80
118080,note_on,21,0,6,,,,,,,,1,,,62,80
118080,note_on,21,0,10,,,,,,,,13,,,74,80
118080,note_on,21,0,11,,,,,,,,14,,,62,80
118080,note_on,21,0,12,,,,,,,,15,,,50,80
118080,note_on,21,0,7,,,,,,,,2,,,74,80
118080,note_on,21,0,9,,,,,,,,12,,,79,80
118179,note_on,99,0,10,,,,,,,,13,,,74,0
118179,note_on,99,0,9,,,,,,,,12,,,79,0
118179,note_on,99,0,8,,,,,,,,11,,,83,0
118200,note_on,21,0,9,,,,,,,,12,,,79,80
118200,note_on,21,0,8,,,,,,,,11,,,83,80
118200,note_on,21,0,10,,,,,,,,13,,,74,80
118299,note_on,99,0,8,,,,,,,,11,,,83,0
118299,note_on,99,0,10,,,,,,,,13,,,74,0
118299,note_on,99,0,9,,,,,,,,12,,,79,0
118320,note_on,21,0,9,,,,,,,,12,,,83,80
118320,note_on,21,0,10,,,,,,,,13,,,74,80
118320,note_on,21,0,8,,,,,,,,11,,,86,80
118419,note_on,99,0,8,,,,,,,,11,,,86,0
118419,note_on,99,0,10,,,,,,,,13,,,74,0
118419,note_on,99,0,9,,,,,,,,12,,,83,0
118440,note_on,21,0,8,,,,,,,,11,,,86,80
118440,note_on,21,0,9,,,,,,,,12,,,83,80
118440,note_on,21,0,10,,,,,,,,13,,,74,80
118539,note_on,99,0,8,,,,,,,,11,,,86,0
118539,note_on,99,0,10,,,,,,,,13,,,74,0
118539,note_on,459,0,11,,,,,,,,14,,,62,0
118539,note_on,99,0,9,,,,,,,,12,,,83,0
118539,note_on,459,0,12,,,,,,,,15,,,50,0
118539,note_on,459,0,6,,,,,,,,1,,,67,0
118539,note_on,0,0,5,,,,,,,,0,,,83,0
118539,note_on,459,0,5,,,,,,,,0,,,79,0
118560,note_on,21,0,6,,,,,,,,1,,,66,80
118560,note_on,21,0,12,,,,,,,,15,,,38,80
118560,note_on,21,0,10,,,,,,,,13,,,62,80
118560,note_on,21,0,5,,,,,,,,0,,,81,80
118560,note_on,0,0,5,,,,,,,,0,,,78,80
118560,note_on,21,0,9,,,,,,,,12,,,81,80
118560,note_on,21,0,8,,,,,,,,11,,,84,80
118560,note_on,21,0,11,,,,,,,,14,,,50,80
118659,note_on,99,0,9,,,,,,,,12,,,81,0
118659,note_on,99,0,8,,,,,,,,11,,,84,0
118659,note_on,99,0,10,,,,,,,,13,,,62,0
118680,note_on,21,0,8,,,,,,,,11,,,84,80
118680,note_on,21,0,9,,,,,,,,12,,,81,80
118680,note_on,21,0,10,,,,,,,,13,,,62,80
118779,note_on,99,0,8,,,,,,,,11,,,84,0
118779,note_on,99,0,10,,,,,,,,13,,,62,0
118779,note_on,99,0,9,,,,,,,,12,,,81,0
118800,note_on,21,0,8,,,,,,,,11,,,81,80
118800,note_on,21,0,10,,,,,,,,13,,,62,80
118800,note_on,21,0,9,,,,,,,,12,,,78,80
118899,note_on,99,0,10,,,,,,,,13,,,62,0
118899,note_on,99,0,8,,,,,,,,11,,,81,0
118899,note_on,99,0,9,,,,,,,,12,,,78,0
118920,note_on,21,0,9,,,,,,,,12,,,78,80
118920,note_on,21,0,10,,,,,,,,13,,,62,80
118920,note_on,21,0,8,,,,,,,,11,,,81,80
119019,note_on,459,0,6,,,,,,,,1,,,66,0
119019,note_on,459,0,11,,,,,,,,14,,,50,0
119019,note_on,99,0,9,,,,,,,,12,,,78,0
119019,note_on,99,0,10,,,,,,,,13,,,62,0
119019,note_on,459,0,5,,,,,,,,0,,,78,0
119019,note_on,0,0,5,,,,,,,,0,,,81,0
119019,note_on,0,0,6,,,,,,,,1,,,62,0
119019,note_on,459,0,12,,,,,,,,15,,,38,0
119019,note_on,99,0,8,,,,,,,,11,,,81,0
119019,note_on,939,0,7,,,,,,,,2,,,74,0
119040,note_on,21,0,9,,,,,,,,12,,,79,80
119040,note_on,21,0,10,,,,,,,,13,,,55,80
119040,note_on,21,0,5,,,,,,,,0,,,79,80
119040,note_on,21,0,12,,,,,,,,15,,,43,80
119040,note_on,0,0,7,,,,,,,,2,,,67,80
119040,note_on,21,0,7,,,,,,,,2,,,74,80
119040,note_on,21,0,11,,,,,,,,14,,,55,80
119040,note_on,21,0,6,,,,,,,,1,,,55,80
119040,note_on,0,0,6,,,,,,,,1,,,67,80
119040,note_on,21,0,8,,,,,,,,11,,,79,80
119139,note_on,99,0,9,,,,,,,,12,,,79,0
119160,note_on,21,0,9,,,,,,,,12,,,62,44
119259,note_on,99,0,9,,,,,,,,12,,,62,0
119279,note_on,239,0,6,,,,,,,,1,,,67,0
119279,note_on,239,0,10,,,,,,,,13,,,55,0
119279,note_on,239,0,11,,,,,,,,14,,,55,0
119279,note_on,239,0,12,,,,,,,,15,,,43,0
119279,note_on,0,0,6,,,,,,,,1,,,55,0
119279,note_on,0,0,7,,,,,,,,2,,,74,0
119279,note_on,239,0,7,,,,,,,,2,,,67,0
119279,note_on,239,0,8,,,,,,,,11,,,79,0
119279,note_on,239,0,5,,,,,,,,0,,,79,0
119280,note_on,21,0,9,,,,,,,,12,,,62,44
119379,note_on,99,0,9,,,,,,,,12,,,62,0
119400,note_on,21,0,9,,,,,,,,12,,,62,44
119499,note_on,99,0,9,,,,,,,,12,,,62,0
119520,note_on,21,0,9,,,,,,,,12,,,69,44
119520,note_on,241,0,10,,,,,,,,13,,,54,44
119520,note_on,241,0,8,,,,,,,,11,,,72,44
119639,note_on,119,0,9,,,,,,,,12,,,69,0
119640,note_on,1,0,9,,,,,,,,12,,,62,44
119759,note_on,239,0,10,,,,,,,,13,,,54,0
119759,note_on,119,0,9,,,,,,,,12,,,62,0
119759,note_on,239,0,8,,,,,,,,11,,,72,0
119760,note_on,1,0,10,,,,,,,,13,,,55,44
119760,note_on,1,0,9,,,,,,,,12,,,67,44
119760,note_on,1,0,8,,,,,,,,11,,,71,44
119879,note_on,119,0,9,,,,,,,,12,,,67,0
119880,note_on,1,0,9,,,,,,,,12,,,62,44
119979,note_on,99,0,9,,,,,,,,12,,,62,0
119999,note_on,239,0,8,,,,,,,,11,,,71,0
119999,note_on,239,0,10,,,,,,,,13,,,55,0
120000,note_on,1,0,8,,,,,,,,11,,,69,44
120000,note_on,21,0,9,,,,,,,,12,,,66,44
120000,note_on,1,0,10,,,,,,,,13,,,60,44
120119,note_on,119,0,9,,,,,,,,12,,,66,0
120120,note_on,1,0,9,,,,,,,,12,,,62,44
120239,note_on,239,0,10,,,,,,,,13,,,60,0
120239,note_on,239,0,8,,,,,,,,11,,,69,0
120239,note_on,119,0,9,,,,,,,,12,,,62,0
120240,note_on,1,0,9,,,,,,,,12,,,67,44
120240,note_on,1,0,10,,,,,,,,13,,,59,44
120240,note_on,1,0,8,,,,,,,,11,,,67,44
120359,note_on,119,0,9,,,,,,,,12,,,67,0
120360,note_on,1,0,9,,,,,,,,12,,,62,44
120459,note_on,219,0,8,,,,,,,,11,,,67,0
120459,note_on,99,0,9,,,,,,,,12,,,62,0
120459,note_on,219,0,10,,,,,,,,13,,,59,0
120480,note_on,21,0,10,,,,,,,,13,,,54,44
120480,note_on,21,0,8,,,,,,,,11,,,72,44
120480,note_on,21,0,9,,,,,,,,12,,,69,44
120579,note_on,99,0,9,,,,,,,,12,,,69,0
120600,note_on,21,0,9,,,,,,,,12,,,62,44
120699,note_on,99,0,9,,,,,,,,12,,,62,0
120719,note_on,239,0,8,,,,,,,,11,,,72,0
120719,note_on,239,0,10,,,,,,,,13,,,54,0
120720,note_on,1,0,10,,,,,,,,13,,,55,44
120720,note_on,21,0,9,,,,,,,,12,,,67,44
120720,note_on,1,0,8,,,,,,,,11,,,71,44
120819,note_on,99,0,9,,,,,,,,12,,,67,0
120840,note_on,21,0,9,,,,,,,,12,,,62,44
120939,note_on,99,0,9,,,,,,,,12,,,62,0
120959,note_on,239,0,10,,,,,,,,13,,,55,0
120959,note_on,239,0,8,,,,,,,,11,,,71,0
120960,note_on,1,0,10,,,,,,,,13,,,60,44
120960,note_on,21,0,9,,,,,,,,12,,,66,44
120960,note_on,1,0,8,,,,,,,,11,,,69,44
121059,note_on,99,0,9,,,,,,,,12,,,66,0
121080,note_on,21,0,9,,,,,,,,12,,,62,44
121179,note_on,99,0,9,,,,,,,,12,,,62,0
121199,note_on,239,0,10,,,,,,,,13,,,60,0
121199,note_on,239,0,8,,,,,,,,11,,,69,0
121200,note_on,1,0,8,,,,,,,,11,,,67,44
121200,note_on,21,0,9,,,,,,,,12,,,67,44
121200,note_on,1,0,10,,,,,,,,13,,,59,44
121299,note_on,99,0,9,,,,,,,,12,,,67,0
121320,note_on,21,0,9,,,,,,,,12,,,62,44
121419,note_on,219,0,10,,,,,,,,13,,,59,0
121419,note_on,99,0,9,,,,,,,,12,,,62,0
121419,note_on,219,0,8,,,,,,,,11,,,67,0
121440,note_on,21,0,8,,,,,,,,11,,,72,44
121440,note_on,21,0,10,,,,,,,,13,,,54,44
121440,note_on,21,0,9,,,,,,,,12,,,69,44
121539,note_on,99,0,9,,,,,,,,12,,,69,0
121560,note_on,21,0,9,,,,,,,,12,,,62,44
121659,note_on,99,0,9,,,,,,,,12,,,62,0
121679,note_on,239,0,8,,,,,,,,11,,,72,0
121679,note_on,239,0,10,,,,,,,,13,,,54,0
121680,note_on,21,0,9,,,,,,,,12,,,67,44
121680,note_on,1,0,8,,,,,,,,11,,,71,44
121680,note_on,1,0,10,,,,,,,,13,,,55,44
121779,note_on,99,0,9,,,,,,,,12,,,67,0
121800,note_on,21,0,9,,,,,,,,12,,,62,44
121899,note_on,99,0,9,,,,,,,,12,,,62,0
121919,note_on,239,0,10,,,,,,,,13,,,55,0
121919,note_on,239,0,8,,,,,,,,11,,,71,0
121920,note_on,1,0,8,,,,,,,,11,,,69,44
121920,note_on,1,0,10,,,,,,,,13,,,60,44
121920,note_on,21,0,9,,,,,,,,12,,,66,44
122019,note_on,99,0,9,,,,,,,,12,,,66,0
122040,note_on,21,0,9,,,,,,,,12,,,62,44
122139,note_on,99,0,9,,,,,,,,12,,,62,0
122159,note_on,239,0,10,,,,,,,,13,,,60,0
122159,note_on,239,0,8,,,,,,,,11,,,69,0
122160,note_on,1,0,8,,,,,,,,11,,,67,44
122160,note_on,21,0,9,,,,,,,,12,,,67,44
122160,note_on,1,0,10,,,,,,,,13,,,59,44
122259,note_on,99,0,9,,,,,,,,12,,,67,0
122280,note_on,21,0,9,,,,,,,,12,,,62,44
122379,note_on,219,0,8,,,,,,,,11,,,67,0
122379,note_on,99,0,9,,,,,,,,12,,,62,0
122379,note_on,219,0,10,,,,,,,,13,,,59,0
122400,note_on,21,0,9,,,,,,,,12,,,69,44
122400,note_on,21,0,10,,,,,,,,13,,,54,44
122400,note_on,21,0,8,,,,,,,,11,,,72,44
122499,note_on,99,0,9,,,,,,,,12,,,69,0
122520,note_on,21,0,9,,,,,,,,12,,,62,44
122619,note_on,99,0,9,,,,,,,,12,,,62,0
122639,note_on,239,0,10,,,,,,,,13,,,54,0
122639,note_on,239,0,8,,,,,,,,11,,,72,0
122640,note_on,1,0,10,,,,,,,,13,,,55,44
122640,note_on,21,0,9,,,,,,,,12,,,67,44
122640,note_on,1,0,8,,,,,,,,11,,,71,44
122739,note_on,99,0,9,,,,,,,,12,,,67,0
122760,note_on,21,0,9,,,,,,,,12,,,62,44
122859,note_on,219,0,10,,,,,,,,13,,,55,0
122859,note_on,219,0,8,,,,,,,,11,,,71,0
122859,note_on,99,0,9,,,,,,,,12,,,62,0
122880,note_on,21,0,10,,,,,,,,13,,,48,44
122880,note_on,21,0,8,,,,,,,,11,,,76,44
122880,note_on,21,0,9,,,,,,,,12,,,67,44
123119,note_on,239,0,8,,,,,,,,11,,,76,0
123119,note_on,239,0,9,,,,,,,,12,,,67,0
123120,note_on,1,0,9,,,,,,,,12,,,64,44
123120,note_on,1,0,8,,,,,,,,11,,,72,44
123359,note_on,239,0,9,,,,,,,,12,,,64,0
123359,note_on,239,0,8,,,,,,,,11,,,72,0
123360,note_on,1,0,9,,,,,,,,12,,,60,44
123360,note_on,1,0,8,,,,,,,,11,,,69,44
123579,note_on,219,0,8,,,,,,,,11,,,69,0
123599,note_on,239,0,9,,,,,,,,12,,,60,0
123600,note_on,21,0,8,,,,,,,,11,,,72,44
123600,note_on,1,0,9,,,,,,,,12,,,57,44
123719,note_on,119,0,8,,,,,,,,11,,,72,0
123819,note_on,219,0,9,,,,,,,,12,,,57,0
123819,note_on,939,0,10,,,,,,,,13,,,48,0
123840,note_on,21,0,9,,,,,,,,12,,,55,44
123840,note_on,21,0,10,,,,,,,,13,,,50,44
123840,note_on,121,0,8,,,,,,,,11,,,71,44
124079,note_on,239,0,8,,,,,,,,11,,,71,0
124079,note_on,239,0,9,,,,,,,,12,,,55,0
124080,note_on,1,0,9,,,,,,,,12,,,59,44
124080,note_on,1,0,8,,,,,,,,11,,,74,44
124299,note_on,219,0,9,,,,,,,,12,,,59,0
124299,note_on,459,0,10,,,,,,,,13,,,50,0
124299,note_on,219,0,8,,,,,,,,11,,,74,0
124320,note_on,21,0,10,,,,,,,,13,,,50,44
124320,note_on,21,0,8,,,,,,,,11,,,66,44
124320,note_on,21,0,9,,,,,,,,12,,,57,44
124559,note_on,239,0,8,,,,,,,,11,,,66,0
124559,note_on,239,0,9,,,,,,,,12,,,57,0
124560,note_on,1,0,8,,,,,,,,11,,,69,44
124560,note_on,1,0,9,,,,,,,,12,,,60,44
124779,note_on,219,0,8,,,,,,,,11,,,69,0
124779,note_on,219,0,9,,,,,,,,12,,,60,0
124779,note_on,459,0,10,,,,,,,,13,,,50,0
124800,note_on,5521,0,5,,,,,,,,0,,,79,80
124800,note_on,21,0,9,,,,,,,,12,,,59,80
124800,note_on,5521,0,7,,,,,,,,2,,,67,80
124800,note_on,21,0,8,,,,,,,,11,,,67,80
124800,note_on,21,0,10,,,,,,,,13,,,67,80
124800,note_on,5521,0,12,,,,,,,,15,,,43,80
124800,note_on,0,0,6,,,,,,,,1,,,67,80
124800,note_on,5521,0,6,,,,,,,,1,,,55,80
124800,note_on,5521,0,11,,,,,,,,14,,,55,80
124899,note_on,99,0,10,,,,,,,,13,,,67,0
124899,note_on,99,0,11,,,,,,,,14,,,55,0
124899,note_on,99,0,12,,,,,,,,15,,,43,0
124899,note_on,99,0,8,,,,,,,,11,,,67,0
124920,note_on,21,0,10,,,,,,,,13,,,69,80
124920,note_on,21,0,12,,,,,,,,15,,,45,80
124920,note_on,21,0,8,,,,,,,,11,,,69,80
124920,note_on,21,0,11,,,,,,,,14,,,57,80
125019,note_on,99,0,12,,,,,,,,15,,,45,0
125019,note_on,219,0,9,,,,,,,,12,,,59,0
125019,note_on,99,0,8,,,,,,,,11,,,69,0
125019,note_on,99,0,10,,,,,,,,13,,,69,0
125019,note_on,99,0,11,,,,,,,,14,,,57,0
125040,note_on,21,0,12,,,,,,,,15,,,47,80
125040,note_on,21,0,9,,,,,,,,12,,,71,80
125040,note_on,21,0,8,,,,,,,,11,,,71,80
125040,note_on,21,0,10,,,,,,,,13,,,71,80
125040,note_on,21,0,11,,,,,,,,14,,,59,80
125139,note_on,99,0,8,,,,,,,,11,,,71,0
125139,note_on,99,0,10,,,,,,,,13,,,71,0
125139,note_on,99,0,11,,,,,,,,14,,,59,0
125139,note_on,99,0,12,,,,,,,,15,,,47,0
125139,note_on,99,0,9,,,,,,,,12,,,71,0
125160,note_on,21,0,12,,,,,,,,15,,,43,80
125160,note_on,21,0,11,,,,,,,,14,,,55,80
125160,note_on,21,0,8,,,,,,,,11,,,67,80
125160,note_on,21,0,9,,,,,,,,12,,,67,80
125160,note_on,21,0,10,,,,,,,,13,,,67,80
125259,note_on,99,0,11,,,,,,,,14,,,55,0
125259,note_on,459,0,5,,,,,,,,0,,,79,0
125259,note_on,459,0,6,,,,,,,,1,,,67,0
125259,note_on,99,0,10,,,,,,,,13,,,67,0
125259,note_on,99,0,8,,,,,,,,11,,,67,0
125259,note_on,0,0,6,,,,,,,,1,,,55,0
125259,note_on,459,0,7,,,,,,,,2,,,67,0
125259,note_on,99,0,12,,,,,,,,15,,,43,0
125259,note_on,99,0,9,,,,,,,,12,,,67,0
125280,note_on,21,0,10,,,,,,,,13,,,62,80
125280,note_on,21,0,8,,,,,,,,11,,,62,80
125280,note_on,21,0,11,,,,,,,,14,,,50,80
125280,note_on,21,0,6,,,,,,,,1,,,62,80
125280,note_on,21,0,7,,,,,,,,2,,,74,80
125280,note_on,21,0,12,,,,,,,,15,,,38,80
125280,note_on,21,0,9,,,,,,,,12,,,62,80
125280,note_on,21,0,5,,,,,,,,0,,,74,80
125379,note_on,99,0,12,,,,,,,,15,,,38,0
125379,note_on,99,0,11,,,,,,,,14,,,50,0
125379,note_on,99,0,9,,,,,,,,12,,,62,0
125379,note_on,99,0,8,,,,,,,,11,,,62,0
125379,note_on,99,0,10,,,,,,,,13,,,62,0
125400,note_on,21,0,12,,,,,,,,15,,,40,80
125400,note_on,21,0,11,,,,,,,,14,,,52,80
125400,note_on,21,0,8,,,,,,,,11,,,64,80
125400,note_on,21,0,9,,,,,,,,12,,,64,80
125400,note_on,21,0,10,,,,,,,,13,,,64,80
125499,note_on,99,0,12,,,,,,,,15,,,40,0
125499,note_on,99,0,11,,,,,,,,14,,,52,0
125499,note_on,99,0,9,,,,,,,,12,,,64,0
125499,note_on,99,0,8,,,,,,,,11,,,64,0
125499,note_on,99,0,10,,,,,,,,13,,,64,0
125520,note_on,21,0,11,,,,,,,,14,,,54,80
125520,note_on,21,0,12,,,,,,,,15,,,42,80
125520,note_on,21,0,8,,,,,,,,11,,,66,80
125520,note_on,21,0,10,,,,,,,,13,,,66,80
125520,note_on,21,0,9,,,,,,,,12,,,66,80
125619,note_on,99,0,8,,,,,,,,11,,,66,0
125619,note_on,99,0,9,,,,,,,,12,,,66,0
125619,note_on,99,0,11,,,,,,,,14,,,54,0
125619,note_on,99,0,10,,,,,,,,13,,,66,0
125619,note_on,99,0,12,,,,,,,,15,,,42,0
125640,note_on,21,0,10,,,,,,,,13,,,62,80
125640,note_on,21,0,12,,,,,,,,15,,,38,80
125640,note_on,21,0,9,,,,,,,,12,,,62,80
125640,note_on,21,0,8,,,,,,,,11,,,62,80
125640,note_on,21,0,11,,,,,,,,14,,,50,80
125739,note_on,99,0,9,,,,,,,,12,,,62,0
125739,note_on,99,0,8,,,,,,,,11,,,62,0
125739,note_on,459,0,6,,,,,,,,1,,,62,0
125739,note_on,99,0,10,,,,,,,,13,,,62,0
125739,note_on,99,0,12,,,,,,,,15,,,38,0
125739,note_on,459,0,5,,,,,,,,0,,,74,0
125739,note_on,459,0,7,,,,,,,,2,,,74,0
125739,note_on,99,0,11,,,,,,,,14,,,50,0
125760,note_on,21,0,6,,,,,,,,1,,,67,80
125760,note_on,21,0,10,,,,,,,,13,,,67,80
125760,note_on,21,0,5,,,,,,,,0,,,79,80
125760,note_on,21,0,7,,,,,,,,2,,,67,80
125760,note_on,21,0,12,,,,,,,,15,,,43,80
125760,note_on,21,0,8,,,,,,,,11,,,67,80
125760,note_on,0,0,6,,,,,,,,1,,,55,80
125760,note_on,21,0,11,,,,,,,,14,,,55,80
125760,note_on,21,0,9,,,,,,,,12,,,67,80
125859,note_on,99,0,11,,,,,,,,14,,,55,0
125859,note_on,99,0,9,,,,,,,,12,,,67,0
125859,note_on,99,0,10,,,,,,,,13,,,67,0
125859,note_on,99,0,12,,,,,,,,15,,,43,0
125859,note_on,99,0,8,,,,,,,,11,,,67,0
125880,note_on,21,0,10,,,,,,,,13,,,69,80
125880,note_on,21,0,8,,,,,,,,11,,,69,80
125880,note_on,21,0,11,,,,,,,,14,,,57,80
125880,note_on,21,0,12,,,,,,,,15,,,45,80
125880,note_on,21,0,9,,,,,,,,12,,,69,80
125979,note_on,99,0,9,,,,,,,,12,,,69,0
125979,note_on,99,0,11,,,,,,,,14,,,57,0
125979,note_on,99,0,8,,,,,,,,11,,,69,0
125979,note_on,99,0,10,,,,,,,,13,,,69,0
125979,note_on,99,0,12,,,,,,,,15,,,45,0
126000,note_on,21,0,8,,,,,,,,11,,,71,80
126000,note_on,21,0,9,,,,,,,,12,,,71,80
126000,note_on,21,0,10,,,,,,,,13,,,71,80
126000,note_on,21,0,12,,,,,,,,15,,,47,80
126000,note_on,21,0,11,,,,,,,,14,,,59,80
126099,note_on,99,0,10,,,,,,,,13,,,71,0
126099,note_on,99,0,12,,,,,,,,15,,,47,0
126099,note_on,99,0,11,,,,,,,,14,,,59,0
126099,note_on,99,0,9,,,,,,,,12,,,71,0
126099,note_on,99,0,8,,,,,,,,11,,,71,0
126120,note_on,21,0,12,,,,,,,,15,,,43,80
126120,note_on,21,0,9,,,,,,,,12,,,67,80
126120,note_on,21,0,10,,,,,,,,13,,,67,80
126120,note_on,21,0,11,,,,,,,,14,,,55,80
126120,note_on,21,0,8,,,,,,,,11,,,67,80
126219,note_on,99,0,10,,,,,,,,13,,,67,0
126219,note_on,99,0,8,,,,,,,,11,,,67,0
126219,note_on,99,0,11,,,,,,,,14,,,55,0
126219,note_on,459,0,6,,,,,,,,1,,,55,0
126219,note_on,459,0,5,,,,,,,,0,,,79,0
126219,note_on,459,0,7,,,,,,,,2,,,67,0
126219,note_on,99,0,12,,,,,,,,15,,,43,0
126219,note_on,0,0,6,,,,,,,,1,,,67,0
126219,note_on,99,0,9,,,,,,,,12,,,67,0
126240,note_on,21,0,9,,,,,,,,12,,,62,80
126240,note_on,21,0,8,,,,,,,,11,,,62,80
126240,note_on,21,0,5,,,,,,,,0,,,74,80
126240,note_on,21,0,7,,,,,,,,2,,,74,80
126240,note_on,21,0,10,,,,,,,,13,,,62,80
126240,note_on,21,0,11,,,,,,,,14,,,50,80
126240,note_on,21,0,12,,,,,,,,15,,,38,80
126240,note_on,21,0,6,,,,,,,,1,,,62,80
126339,note_on,99,0,9,,,,,,,,12,,,62,0
126339,note_on,99,0,12,,,,,,,,15,,,38,0
126339,note_on,99,0,11,,,,,,,,14,,,50,0
126339,note_on,99,0,10,,,,,,,,13,,,62,0
126339,note_on,99,0,8,,,,,,,,11,,,62,0
126360,note_on,21,0,9,,,,,,,,12,,,64,80
126360,note_on,21,0,8,,,,,,,,11,,,64,80
126360,note_on,21,0,10,,,,,,,,13,,,64,80
126360,note_on,21,0,12,,,,,,,,15,,,40,80
126360,note_on,21,0,11,,,,,,,,14,,,52,80
126459,note_on,99,0,8,,,,,,,,11,,,64,0
126459,note_on,99,0,9,,,,,,,,12,,,64,0
126459,note_on,99,0,12,,,,,,,,15,,,40,0
126459,note_on,99,0,11,,,,,,,,14,,,52,0
126459,note_on,99,0,10,,,,,,,,13,,,64,0
126480,note_on,21,0,12,,,,,,,,15,,,42,80
126480,note_on,21,0,8,,,,,,,,11,,,66,80
126480,note_on,21,0,10,,,,,,,,13,,,66,80
126480,note_on,21,0,11,,,,,,,,14,,,54,80
126480,note_on,21,0,9,,,,,,,,12,,,66,80
126579,note_on,99,0,10,,,,,,,,13,,,66,0
126579,note_on,99,0,12,,,,,,,,15,,,42,0
126579,note_on,99,0,11,,,,,,,,14,,,54,0
126579,note_on,99,0,8,,,,,,,,11,,,66,0
126579,note_on,99,0,9,,,,,,,,12,,,66,0
126600,note_on,21,0,10,,,,,,,,13,,,62,80
126600,note_on,21,0,12,,,,,,,,15,,,38,80
126600,note_on,21,0,8,,,,,,,,11,,,62,80
126600,note_on,21,0,11,,,,,,,,14,,,50,80
126600,note_on,21,0,9,,,,,,,,12,,,62,80
126699,note_on,99,0,8,,,,,,,,11,,,62,0
126699,note_on,99,0,9,,,,,,,,12,,,62,0
126699,note_on,99,0,10,,,,,,,,13,,,62,0
126699,note_on,99,0,11,,,,,,,,14,,,50,0
126699,note_on,99,0,12,,,,,,,,15,,,38,0
126719,note_on,479,0,7,,,,,,,,2,,,74,0
126719,note_on,479,0,5,,,,,,,,0,,,74,0
126719,note_on,479,0,6,,,,,,,,1,,,62,0
126720,note_on,21,0,9,,,,,,,,12,,,59,44
126720,note_on,21,0,8,,,,,,,,11,,,67,44
126720,note_on,21,0,11,,,,,,,,14,,,55,44
126720,note_on,21,0,12,,,,,,,,15,,,43,44
126720,note_on,21,0,10,,,,,,,,13,,,67,44
126839,note_on,119,0,8,,,,,,,,11,,,67,0
126839,note_on,119,0,9,,,,,,,,12,,,59,0
126840,note_on,1,0,9,,,,,,,,12,,,62,44
126840,note_on,1,0,8,,,,,,,,11,,,71,44
126959,note_on,119,0,9,,,,,,,,12,,,62,0
126959,note_on,119,0,8,,,,,,,,11,,,71,0
126960,note_on,1,0,9,,,,,,,,12,,,59,44
126960,note_on,1,0,8,,,,,,,,11,,,74,44
127059,note_on,99,0,8,,,,,,,,11,,,74,0
127079,note_on,119,0,9,,,,,,,,12,,,59,0
127080,note_on,1,0,9,,,,,,,,12,,,62,44
127080,note_on,21,0,8,,,,,,,,11,,,79,44
127169,note_on,89,0,8,,,,,,,,11,,,79,0
127179,note_on,99,0,9,,,,,,,,12,,,62,0
127200,note_on,21,0,9,,,,,,,,12,,,59,44
127200,note_on,31,0,8,,,,,,,,11,,,83,44
127319,note_on,119,0,9,,,,,,,,12,,,59,0
127319,note_on,119,0,8,,,,,,,,11,,,83,0
127320,note_on,1,0,9,,,,,,,,12,,,62,44
127320,note_on,1,0,8,,,,,,,,11,,,79,44
127419,note_on,99,0,8,,,,,,,,11,,,79,0
127439,note_on,119,0,9,,,,,,,,12,,,62,0
127440,note_on,1,0,9,,,,,,,,12,,,59,44
127440,note_on,21,0,8,,,,,,,,11,,,83,44
127559,note_on,119,0,8,,,,,,,,11,,,83,0
127559,note_on,119,0,9,,,,,,,,12,,,59,0
127560,note_on,1,0,9,,,,,,,,12,,,62,44
127560,note_on,1,0,8,,,,,,,,11,,,79,44
127659,note_on,99,0,9,,,,,,,,12,,,62,0
127659,note_on,939,0,10,,,,,,,,13,,,67,0
127659,note_on,939,0,11,,,,,,,,14,,,55,0
127659,note_on,939,0,12,,,,,,,,15,,,43,0
127659,note_on,99,0,8,,,,,,,,11,,,79,0
127680,note_on,21,0,9,,,,,,,,12,,,60,44
127680,note_on,21,0,12,,,,,,,,15,,,38,44
127680,note_on,21,0,11,,,,,,,,14,,,50,44
127680,note_on,21,0,8,,,,,,,,11,,,79,44
127680,note_on,21,0,10,,,,,,,,13,,,62,44
127739,note_on,59,0,8,,,,,,,,11,,,79,0
127740,note_on,1,0,8,,,,,,,,11,,,78,44
127799,note_on,119,0,9,,,,,,,,12,,,60,0
127800,note_on,1,0,9,,,,,,,,12,,,62,44
127899,note_on,159,0,8,,,,,,,,11,,,78,0
127919,note_on,119,0,9,,,,,,,,12,,,62,0
127920,note_on,1,0,9,,,,,,,,12,,,60,44
127920,note_on,21,0,8,,,,,,,,11,,,76,44
128019,note_on,99,0,8,,,,,,,,11,,,76,0
128039,note_on,119,0,9,,,,,,,,12,,,60,0
128040,note_on,21,0,8,,,,,,,,11,,,74,44
128040,note_on,1,0,9,,,,,,,,12,,,62,44
128139,note_on,99,0,8,,,,,,,,11,,,74,0
128139,note_on,99,0,9,,,,,,,,12,,,62,0
128160,note_on,21,0,9,,,,,,,,12,,,57,44
128160,note_on,21,0,8,,,,,,,,11,,,74,44
128219,note_on,59,0,8,,,,,,,,11,,,74,0
128220,note_on,1,0,8,,,,,,,,11,,,72,44
128279,note_on,119,0,9,,,,,,,,12,,,57,0
128280,note_on,1,0,9,,,,,,,,12,,,66,44
128379,note_on,159,0,8,,,,,,,,11,,,72,0
128399,note_on,119,0,9,,,,,,,,12,,,66,0
128400,note_on,1,0,9,,,,,,,,12,,,57,44
128400,note_on,21,0,8,,,,,,,,11,,,71,44
128499,note_on,99,0,8,,,,,,,,11,,,71,0
128519,note_on,119,0,9,,,,,,,,12,,,57,0
128520,note_on,21,0,8,,,,,,,,11,,,69,44
128520,note_on,1,0,9,,,,,,,,12,,,66,44
128619,note_on,939,0,11,,,,,,,,14,,,50,0
128619,note_on,99,0,9,,,,,,,,12,,,66,0
128619,note_on,939,0,10,,,,,,,,13,,,62,0
128619,note_on,939,0,12,,,,,,,,15,,,38,0
128619,note_on,99,0,8,,,,,,,,11,,,69,0
128640,note_on,21,0,12,,,,,,,,15,,,43,80
128640,note_on,21,0,10,,,,,,,,13,,,67,80
128640,note_on,21,0,8,,,,,,,,11,,,67,80
128640,note_on,0,0,6,,,,,,,,1,,,67,80
128640,note_on,1921,0,6,,,,,,,,1,,,55,80
128640,note_on,1921,0,7,,,,,,,,2,,,67,80
128640,note_on,21,0,9,,,,,,,,12,,,67,80
128640,note_on,1921,0,5,,,,,,,,0,,,79,80
128640,note_on,21,0,11,,,,,,,,14,,,55,80
128739,note_on,99,0,11,,,,,,,,14,,,55,0
128739,note_on,99,0,8,,,,,,,,11,,,67,0
128739,note_on,99,0,12,,,,,,,,15,,,43,0
128739,note_on,99,0,9,,,,,,,,12,,,67,0
128739,note_on,99,0,10,,,,,,,,13,,,67,0
128760,note_on,21,0,11,,,,,,,,14,,,57,80
128760,note_on,21,0,12,,,,,,,,15,,,45,80
128760,note_on,21,0,9,,,,,,,,12,,,69,80
128760,note_on,21,0,10,,,,,,,,13,,,69,80
128760,note_on,21,0,8,,,,,,,,11,,,69,80
128859,note_on,99,0,8,,,,,,,,11,,,69,0
128859,note_on,99,0,10,,,,,,,,13,,,69,0
128859,note_on,99,0,11,,,,,,,,14,,,57,0
128859,note_on,99,0,9,,,,,,,,12,,,69,0
128859,note_on,99,0,12,,,,,,,,15,,,45,0
128880,note_on,21,0,8,,,,,,,,11,,,71,80
128880,note_on,21,0,11,,,,,,,,14,,,59,80
128880,note_on,21,0,12,,,,,,,,15,,,47,80
128880,note_on,21,0,10,,,,,,,,13,,,71,80
128880,note_on,21,0,9,,,,,,,,12,,,71,80
128979,note_on,99,0,9,,,,,,,,12,,,71,0
128979,note_on,99,0,12,,,,,,,,15,,,47,0
128979,note_on,99,0,10,,,,,,,,13,,,71,0
128979,note_on,99,0,8,,,,,,,,11,,,71,0
128979,note_on,99,0,11,,,,,,,,14,,,59,0
129000,note_on,21,0,9,,,,,,,,12,,,67,80
129000,note_on,21,0,11,,,,,,,,14,,,55,80
129000,note_on,21,0,8,,,,,,,,11,,,67,80
129000,note_on,21,0,12,,,,,,,,15,,,43,80
129000,note_on,21,0,10,,,,,,,,13,,,67,80
129099,note_on,459,0,5,,,,,,,,0,,,79,0
129099,note_on,99,0,12,,,,,,,,15,,,43,0
129099,note_on,99,0,11,,,,,,,,14,,,55,0
129099,note_on,99,0,10,,,,,,,,13,,,67,0
129099,note_on,459,0,6,,,,,,,,1,,,67,0
129099,note_on,0,0,6,,,,,,,,1,,,55,0
129099,note_on,99,0,9,,,,,,,,12,,,67,0
129099,note_on,99,0,8,,,,,,,,11,,,67,0
129099,note_on,459,0,7,,,,,,,,2,,,67,0
129120,note_on,21,0,7,,,,,,,,2,,,74,80
129120,note_on,21,0,11,,,,,,,,14,,,50,80
129120,note_on,21,0,12,,,,,,,,15,,,38,80
129120,note_on,21,0,5,,,,,,,,0,,,74,80
129120,note_on,21,0,6,,,,,,,,1,,,62,80
129120,note_on,21,0,10,,,,,,,,13,,,62,80
129120,note_on,21,0,8,,,,,,,,11,,,62,80
129120,note_on,21,0,9,,,,,,,,12,,,62,80
129219,note_on,99,0,8,,,,,,,,11,,,62,0
129219,note_on,99,0,10,,,,,,,,13,,,62,0
129219,note_on,99,0,9,,,,,,,,12,,,62,0
129219,note_on,99,0,11,,,,,,,,14,,,50,0
129219,note_on,99,0,12,,,,,,,,15,,,38,0
129240,note_on,21,0,9,,,,,,,,12,,,64,80
129240,note_on,21,0,10,,,,,,,,13,,,64,80
129240,note_on,21,0,12,,,,,,,,15,,,40,80
129240,note_on,21,0,8,,,,,,,,11,,,64,80
129240,note_on,21,0,11,,,,,,,,14,,,52,80
129339,note_on,99,0,12,,,,,,,,15,,,40,0
129339,note_on,99,0,9,,,,,,,,12,,,64,0
129339,note_on,99,0,10,,,,,,,,13,,,64,0
129339,note_on,99,0,8,,,,,,,,11,,,64,0
129339,note_on,99,0,11,,,,,,,,14,,,52,0
129360,note_on,21,0,9,,,,,,,,12,,,66,80
129360,note_on,21,0,12,,,,,,,,15,,,42,80
129360,note_on,21,0,11,,,,,,,,14,,,54,80
129360,note_on,21,0,8,,,,,,,,11,,,66,80
129360,note_on,21,0,10,,,,,,,,13,,,66,80
129459,note_on,99,0,12,,,,,,,,15,,,42,0
129459,note_on,99,0,11,,,,,,,,14,,,54,0
129459,note_on,99,0,9,,,,,,,,12,,,66,0
129459,note_on,99,0,8,,,,,,,,11,,,66,0
129459,note_on,99,0,10,,,,,,,,13,,,66,0
129480,note_on,21,0,10,,,,,,,,13,,,62,80
129480,note_on,21,0,11,,,,,,,,14,,,50,80
129480,note_on,21,0,8,,,,,,,,11,,,62,80
129480,note_on,21,0,12,,,,,,,,15,,,38,80
129480,note_on,21,0,9,,,,,,,,12,,,62,80
129579,note_on,459,0,5,,,,,,,,0,,,74,0
129579,note_on,99,0,12,,,,,,,,15,,,38,0
129579,note_on,99,0,11,,,,,,,,14,,,50,0
129579,note_on,99,0,9,,,,,,,,12,,,62,0
129579,note_on,459,0,7,,,,,,,,2,,,74,0
129579,note_on,99,0,10,,,,,,,,13,,,62,0
129579,note_on,459,0,6,,,,,,,,1,,,62,0
129579,note_on,99,0,8,,,,,,,,11,,,62,0
129600,note_on,21,0,12,,,,,,,,15,,,43,80
129600,note_on,21,0,11,,,,,,,,14,,,55,80
129600,note_on,21,0,7,,,,,,,,2,,,67,80
129600,note_on,0,0,6,,,,,,,,1,,,67,80
129600,note_on,21,0,6,,,,,,,,1,,,55,80
129600,note_on,21,0,8,,,,,,,,11,,,67,80
129600,note_on,21,0,5,,,,,,,,0,,,79,80
129600,note_on,21,0,9,,,,,,,,12,,,67,80
129600,note_on,21,0,10,,,,,,,,13,,,67,80
129699,note_on,99,0,8,,,,,,,,11,,,67,0
129699,note_on,99,0,11,,,,,,,,14,,,55,0
129699,note_on,99,0,12,,,,,,,,15,,,43,0
129699,note_on,99,0,10,,,,,,,,13,,,67,0
129699,note_on,99,0,9,,,,,,,,12,,,67,0
129720,note_on,21,0,10,,,,,,,,13,,,69,80
129720,note_on,21,0,12,,,,,,,,15,,,45,80
129720,note_on,21,0,8,,,,,,,,11,,,69,80
129720,note_on,21,0,11,,,,,,,,14,,,57,80
129720,note_on,21,0,9,,,,,,,,12,,,69,80
129819,note_on,99,0,9,,,,,,,,12,,,69,0
129819,note_on,99,0,10,,,,,,,,13,,,69,0
129819,note_on,99,0,8,,,,,,,,11,,,69,0
129819,note_on,99,0,12,,,,,,,,15,,,45,0
129819,note_on,99,0,11,,,,,,,,14,,,57,0
129840,note_on,21,0,11,,,,,,,,14,,,59,80
129840,note_on,21,0,9,,,,,,,,12,,,71,80
129840,note_on,21,0,10,,,,,,,,13,,,71,80
129840,note_on,21,0,8,,,,,,,,11,,,71,80
129840,note_on,21,0,12,,,,,,,,15,,,47,80
129939,note_on,99,0,12,,,,,,,,15,,,47,0
129939,note_on,99,0,9,,,,,,,,12,,,71,0
129939,note_on,99,0,10,,,,,,,,13,,,71,0
129939,note_on,99,0,11,,,,,,,,14,,,59,0
129939,note_on,99,0,8,,,,,,,,11,,,71,0
129960,note_on,21,0,11,,,,,,,,14,,,55,80
129960,note_on,21,0,8,,,,,,,,11,,,67,80
129960,note_on,21,0,9,,,,,,,,12,,,67,80
129960,note_on,21,0,12,,,,,,,,15,,,43,80
129960,note_on,21,0,10,,,,,,,,13,,,67,80
130059,note_on,459,0,7,,,,,,,,2,,,67,0
130059,note_on,99,0,11,,,,,,,,14,,,55,0
130059,note_on,99,0,9,,,,,,,,12,,,67,0
130059,note_on,99,0,12,,,,,,,,15,,,43,0
130059,note_on,0,0,6,,,,,,,,1,,,55,0
130059,note_on,459,0,6,,,,,,,,1,,,67,0
130059,note_on,99,0,8,,,,,,,,11,,,67,0
130059,note_on,99,0,10,,,,,,,,13,,,67,0
130059,note_on,459,0,5,,,,,,,,0,,,79,0
130080,note_on,21,0,7,,,,,,,,2,,,74,80
130080,note_on,21,0,12,,,,,,,,15,,,38,80
130080,note_on,21,0,6,,,,,,,,1,,,62,80
130080,note_on,21,0,8,,,,,,,,11,,,62,80
130080,note_on,21,0,5,,,,,,,,0,,,74,80
130080,note_on,21,0,10,,,,,,,,13,,,62,80
130080,note_on,21,0,11,,,,,,,,14,,,50,80
130080,note_on,21,0,9,,,,,,,,12,,,62,80
130179,note_on,99,0,10,,,,,,,,13,,,62,0
130179,note_on,99,0,9,,,,,,,,12,,,62,0
130179,note_on,99,0,12,,,,,,,,15,,,38,0
130179,note_on,99,0,11,,,,,,,,14,,,50,0
130179,note_on,99,0,8,,,,,,,,11,,,62,0
130200,note_on,21,0,9,,,,,,,,12,,,64,80
130200,note_on,21,0,11,,,,,,,,14,,,52,80
130200,note_on,21,0,10,,,,,,,,13,,,64,80
130200,note_on,21,0,12,,,,,,,,15,,,40,80
130200,note_on,21,0,8,,,,,,,,11,,,64,80
130299,note_on,99,0,12,,,,,,,,15,,,40,0
130299,note_on,99,0,10,,,,,,,,13,,,64,0
130299,note_on,99,0,8,,,,,,,,11,,,64,0
130299,note_on,99,0,11,,,,,,,,14,,,52,0
130299,note_on,99,0,9,,,,,,,,12,,,64,0
130320,note_on,21,0,10,,,,,,,,13,,,66,80
130320,note_on,21,0,8,,,,,,,,11,,,66,80
130320,note_on,21,0,11,,,,,,,,14,,,54,80
130320,note_on,21,0,9,,,,,,,,12,,,66,80
130320,note_on,21,0,12,,,,,,,,15,,,42,80
130419,note_on,99,0,8,,,,,,,,11,,,66,0
130419,note_on,99,0,10,,,,,,,,13,,,66,0
130419,note_on,99,0,11,,,,,,,,14,,,54,0
130419,note_on,99,0,9,,,,,,,,12,,,66,0
130419,note_on,99,0,12,,,,,,,,15,,,42,0
130440,note_on,21,0,12,,,,,,,,15,,,38,80
130440,note_on,21,0,10,,,,,,,,13,,,62,80
130440,note_on,21,0,11,,,,,,,,14,,,50,80
130440,note_on,21,0,9,,,,,,,,12,,,62,80
130440,note_on,21,0,8,,,,,,,,11,,,62,80
130539,note_on,99,0,11,,,,,,,,14,,,50,0
130539,note_on,99,0,10,,,,,,,,13,,,62,0
130539,note_on,99,0,12,,,,,,,,15,,,38,0
130539,note_on,99,0,9,,,,,,,,12,,,62,0
130539,note_on,99,0,8,,,,,,,,11,,,62,0
130559,note_on,479,0,5,,,,,,,,0,,,74,0
130559,note_on,479,0,6,,,,,,,,1,,,62,0
130559,note_on,479,0,7,,,,,,,,2,,,74,0
130560,note_on,21,0,10,,,,,,,,13,,,67,44
130560,note_on,21,0,12,,,,,,,,15,,,43,44
130560,note_on,21,0,11,,,,,,,,14,,,55,44
130560,note_on,21,0,9,,,,,,,,12,,,59,44
130560,note_on,21,0,8,,,,,,,,11,,,67,44
130679,note_on,119,0,8,,,,,,,,11,,,67,0
130679,note_on,119,0,9,,,,,,,,12,,,59,0
130680,note_on,1,0,9,,,,,,,,12,,,62,44
130680,note_on,1,0,8,,,,,,,,11,,,71,44
130799,note_on,119,0,8,,,,,,,,11,,,71,0
130799,note_on,119,0,9,,,,,,,,12,,,62,0
130800,note_on,1,0,8,,,,,,,,11,,,74,44
130800,note_on,1,0,9,,,,,,,,12,,,59,44
130899,note_on,99,0,8,,,,,,,,11,,,74,0
130919,note_on,119,0,9,,,,,,,,12,,,59,0
130920,note_on,21,0,8,,,,,,,,11,,,79,44
130920,note_on,1,0,9,,,,,,,,12,,,62,44
131009,note_on,89,0,8,,,,,,,,11,,,79,0
131019,note_on,99,0,9,,,,,,,,12,,,62,0
131040,note_on,31,0,8,,,,,,,,11,,,83,44
131040,note_on,21,0,9,,,,,,,,12,,,59,44
131159,note_on,119,0,8,,,,,,,,11,,,83,0
131159,note_on,119,0,9,,,,,,,,12,,,59,0
131160,note_on,1,0,8,,,,,,,,11,,,79,44
131160,note_on,1,0,9,,,,,,,,12,,,62,44
131259,note_on,99,0,8,,,,,,,,11,,,79,0
131279,note_on,119,0,9,,,,,,,,12,,,62,0
131280,note_on,21,0,8,,,,,,,,11,,,83,44
131280,note_on,1,0,9,,,,,,,,12,,,59,44
131399,note_on,119,0,9,,,,,,,,12,,,59,0
131399,note_on,119,0,8,,,,,,,,11,,,83,0
131400,note_on,1,0,9,,,,,,,,12,,,62,44
131400,note_on,1,0,8,,,,,,,,11,,,79,44
131499,note_on,99,0,8,,,,,,,,11,,,79,0
131499,note_on,939,0,10,,,,,,,,13,,,67,0
131499,note_on,99,0,9,,,,,,,,12,,,62,0
131499,note_on,939,0,12,,,,,,,,15,,,43,0
131499,note_on,939,0,11,,,,,,,,14,,,55,0
131520,note_on,21,0,8,,,,,,,,11,,,79,44
131520,note_on,21,0,12,,,,,,,,15,,,38,44
131520,note_on,21,0,10,,,,,,,,13,,,62,44
131520,note_on,21,0,11,,,,,,,,14,,,50,44
131520,note_on,21,0,9,,,,,,,,12,,,60,44
131579,note_on,59,0,8,,,,,,,,11,,,79,0
131580,note_on,1,0,8,,,,,,,,11,,,78,44
131639,note_on,119,0,9,,,,,,,,12,,,60,0
131640,note_on,1,0,9,,,,,,,,12,,,62,44
131739,note_on,159,0,8,,,,,,,,11,,,78,0
131759,note_on,119,0,9,,,,,,,,12,,,62,0
131760,note_on,1,0,9,,,,,,,,12,,,60,44
131760,note_on,21,0,8,,,,,,,,11,,,76,44
131859,note_on,99,0,8,,,,,,,,11,,,76,0
131879,note_on,119,0,9,,,,,,,,12,,,60,0
131880,note_on,21,0,8,,,,,,,,11,,,74,44
131880,note_on,1,0,9,,,,,,,,12,,,62,44
131979,note_on,99,0,9,,,,,,,,12,,,62,0
131979,note_on,99,0,8,,,,,,,,11,,,74,0
132000,note_on,21,0,8,,,,,,,,11,,,74,44
132000,note_on,21,0,9,,,,,,,,12,,,57,44
132059,note_on,59,0,8,,,,,,,,11,,,74,0
132060,note_on,1,0,8,,,,,,,,11,,,72,44
132119,note_on,119,0,9,,,,,,,,12,,,57,0
132120,note_on,1,0,9,,,,,,,,12,,,66,44
132219,note_on,159,0,8,,,,,,,,11,,,72,0
132239,note_on,119,0,9,,,,,,,,12,,,66,0
132240,note_on,21,0,8,,,,,,,,11,,,71,44
132240,note_on,1,0,9,,,,,,,,12,,,57,44
132339,note_on,99,0,8,,,,,,,,11,,,71,0
132359,note_on,119,0,9,,,,,,,,12,,,57,0
132360,note_on,1,0,9,,,,,,,,12,,,66,44
132360,note_on,21,0,8,,,,,,,,11,,,69,44
132459,note_on,939,0,10,,,,,,,,13,,,62,0
132459,note_on,939,0,11,,,,,,,,14,,,50,0
132459,note_on,99,0,8,,,,,,,,11,,,69,0
132459,note_on,939,0,12,,,,,,,,15,,,38,0
132459,note_on,99,0,9,,,,,,,,12,,,66,0
132480,note_on,1921,0,5,,,,,,,,0,,,67,80
132480,note_on,1921,0,7,,,,,,,,2,,,67,80
132480,note_on,21,0,12,,,,,,,,15,,,43,80
132480,note_on,0,0,6,,,,,,,,1,,,55,80
132480,note_on,21,0,8,,,,,,,,11,,,67,80
132480,note_on,21,0,10,,,,,,,,13,,,67,80
132480,note_on,1921,0,6,,,,,,,,1,,,62,80
132480,note_on,21,0,9,,,,,,,,12,,,67,80
132480,note_on,0,0,9,,,,,,,,12,,,55,80
132480,note_on,21,0,11,,,,,,,,14,,,55,80
132539,note_on,59,0,8,,,,,,,,11,,,67,0
132540,note_on,1,0,8,,,,,,,,11,,,67,44
132579,note_on,39,0,8,,,,,,,,11,,,67,0
132600,note_on,21,0,8,,,,,,,,11,,,55,44
132699,note_on,99,0,8,,,,,,,,11,,,55,0
132719,note_on,239,0,10,,,,,,,,13,,,67,0
132719,note_on,0,0,9,,,,,,,,12,,,67,0
132719,note_on,239,0,11,,,,,,,,14,,,55,0
132719,note_on,0,0,6,,,,,,,,1,,,62,0
132719,note_on,239,0,6,,,,,,,,1,,,55,0
132719,note_on,239,0,12,,,,,,,,15,,,43,0
132719,note_on,239,0,5,,,,,,,,0,,,67,0
132719,note_on,239,0,7,,,,,,,,2,,,67,0
132719,note_on,239,0,9,,,,,,,,12,,,55,0
132720,note_on,21,0,8,,,,,,,,11,,,55,44
132819,note_on,99,0,8,,,,,,,,11,,,55,0
132840,note_on,21,0,8,,,,,,,,11,,,55,44
132939,note_on,99,0,8,,,,,,,,11,,,55,0
132960,note_on,21,0,8,,,,,,,,11,,,55,44
133059,note_on,99,0,8,,,,,,,,11,,,55,0
133080,note_on,21,0,8,,,,,,,,11,,,55,44
133179,note_on,99,0,8,,,,,,,,11,,,55,0
133200,note_on,21,0,8,,,,,,,,11,,,55,44
133299,note_on,99,0,8,,,,,,,,11,,,55,0
133320,note_on,21,0,8,,,,,,,,11,,,55,44
133419,note_on,99,0,8,,,,,,,,11,,,55,0
133440,note_on,0,0,9,,,,,,,,12,,,55,80
133440,note_on,721,0,10,,,,,,,,13,,,62,80
133440,note_on,721,0,9,,,,,,,,12,,,65,80
133440,note_on,21,0,8,,,,,,,,11,,,71,80
133440,note_on,721,0,11,,,,,,,,14,,,50,80
133440,note_on,721,0,7,,,,,,,,2,,,67,80
133440,note_on,721,0,6,,,,,,,,1,,,55,80
133440,note_on,0,0,5,,,,,,,,0,,,71,80
133440,note_on,721,0,12,,,,,,,,15,,,38,80
133440,note_on,721,0,5,,,,,,,,0,,,65,80
133499,note_on,59,0,8,,,,,,,,11,,,71,0
133500,note_on,1,0,8,,,,,,,,11,,,71,44
133539,note_on,39,0,8,,,,,,,,11,,,71,0
133560,note_on,21,0,8,,,,,,,,11,,,65,44
133659,note_on,99,0,8,,,,,,,,11,,,65,0
133679,note_on,239,0,5,,,,,,,,0,,,71,0
133679,note_on,0,0,5,,,,,,,,0,,,65,0
133679,note_on,239,0,11,,,,,,,,14,,,50,0
133679,note_on,239,0,6,,,,,,,,1,,,55,0
133679,note_on,239,0,7,,,,,,,,2,,,67,0
133679,note_on,239,0,10,,,,,,,,13,,,62,0
133679,note_on,0,0,9,,,,,,,,12,,,65,0
133679,note_on,239,0,9,,,,,,,,12,,,55,0
133679,note_on,239,0,12,,,,,,,,15,,,38,0
133680,note_on,21,0,8,,,,,,,,11,,,65,44
133779,note_on,99,0,8,,,,,,,,11,,,65,0
133800,note_on,21,0,8,,,,,,,,11,,,65,44
133899,note_on,99,0,8,,,,,,,,11,,,65,0
133920,note_on,21,0,8,,,,,,,,11,,,65,44
134019,note_on,99,0,8,,,,,,,,11,,,65,0
134040,note_on,21,0,8,,,,,,,,11,,,65,44
134139,note_on,99,0,8,,,,,,,,11,,,65,0
134160,note_on,21,0,8,,,,,,,,11,,,65,44
134259,note_on,99,0,8,,,,,,,,11,,,65,0
134280,note_on,21,0,8,,,,,,,,11,,,65,44
134379,note_on,99,0,8,,,,,,,,11,,,65,0
134400,note_on,21,0,8,,,,,,,,11,,,72,80
134400,note_on,721,0,7,,,,,,,,2,,,67,80
134400,note_on,721,0,9,,,,,,,,12,,,55,80
134400,note_on,0,0,7,,,,,,,,2,,,60,80
134400,note_on,0,0,9,,,,,,,,12,,,64,80
134400,note_on,721,0,10,,,,,,,,13,,,64,80
134400,note_on,721,0,11,,,,,,,,14,,,52,80
134400,note_on,0,0,6,,,,,,,,1,,,60,80
134400,note_on,721,0,6,,,,,,,,1,,,55,80
134400,note_on,0,0,5,,,,,,,,0,,,64,80
134400,note_on,721,0,5,,,,,,,,0,,,72,80
134400,note_on,721,0,12,,,,,,,,15,,,40,80
134459,note_on,59,0,8,,,,,,,,11,,,72,0
134460,note_on,1,0,8,,,,,,,,11,,,72,44
134499,note_on,39,0,8,,,,,,,,11,,,72,0
134520,note_on,21,0,8,,,,,,,,11,,,67,44
134619,note_on,99,0,8,,,,,,,,11,,,67,0
134639,note_on,0,0,9,,,,,,,,12,,,55,0
134639,note_on,239,0,11,,,,,,,,14,,,52,0
134639,note_on,239,0,9,,,,,,,,12,,,64,0
134639,note_on,239,0,5,,,,,,,,0,,,64,0
134639,note_on,0,0,7,,,,,,,,2,,,67,0
134639,note_on,239,0,7,,,,,,,,2,,,60,0
134639,note_on,239,0,12,,,,,,,,15,,,40,0
134639,note_on,239,0,6,,,,,,,,1,,,60,0
134639,note_on,0,0,5,,,,,,,,0,,,72,0
134639,note_on,239,0,10,,,,,,,,13,,,64,0
134639,note_on,0,0,6,,,,,,,,1,,,55,0
134640,note_on,21,0,8,,,,,,,,11,,,67,44
134739,note_on,99,0,8,,,,,,,,11,,,67,0
134760,note_on,21,0,8,,,,,,,,11,,,67,44
134859,note_on,99,0,8,,,,,,,,11,,,67,0
134880,note_on,21,0,8,,,,,,,,11,,,67,44
134979,note_on,99,0,8,,,,,,,,11,,,67,0
135000,note_on,21,0,8,,,,,,,,11,,,67,44
135099,note_on,99,0,8,,,,,,,,11,,,67,0
135120,note_on,21,0,8,,,,,,,,11,,,67,44
135219,note_on,99,0,8,,,,,,,,11,,,67,0
135240,note_on,21,0,8,,,,,,,,11,,,67,44
135339,note_on,99,0,8,,,,,,,,11,,,67,0
135360,note_on,721,0,6,,,,,,,,1,,,62,80
135360,note_on,721,0,7,,,,,,,,2,,,67,80
135360,note_on,721,0,10,,,,,,,,13,,,59,80
135360,note_on,721,0,9,,,,,,,,12,,,74,80
135360,note_on,721,0,12,,,,,,,,15,,,35,80
135360,note_on,721,0,11,,,,,,,,14,,,47,80
135360,note_on,0,0,9,,,,,,,,12,,,62,80
135360,note_on,0,0,9,,,,,,,,12,,,55,80
135360,note_on,0,0,7,,,,,,,,2,,,74,80
135360,note_on,0,0,6,,,,,,,,1,,,55,80
135360,note_on,0,0,5,,,,,,,,0,,,77,80
135360,note_on,21,0,8,,,,,,,,11,,,77,80
135360,note_on,721,0,5,,,,,,,,0,,,74,80
135419,note_on,59,0,8,,,,,,,,11,,,77,0
135420,note_on,1,0,8,,,,,,,,11,,,77,44
135459,note_on,39,0,8,,,,,,,,11,,,77,0
135480,note_on,21,0,8,,,,,,,,11,,,74,44
135579,note_on,99,0,8,,,,,,,,11,,,74,0
135599,note_on,239,0,6,,,,,,,,1,,,55,0
135599,note_on,0,0,9,,,,,,,,12,,,62,0
135599,note_on,239,0,9,,,,,,,,12,,,55,0
135599,note_on,239,0,11,,,,,,,,14,,,47,0
135599,note_on,239,0,12,,,,,,,,15,,,35,0
135599,note_on,0,0,9,,,,,,,,12,,,74,0
135599,note_on,0,0,5,,,,,,,,0,,,74,0
135599,note_on,239,0,5,,,,,,,,0,,,77,0
135599,note_on,239,0,7,,,,,,,,2,,,74,0
135599,note_on,0,0,7,,,,,,,,2,,,67,0
135599,note_on,239,0,10,,,,,,,,13,,,59,0
135599,note_on,0,0,6,,,,,,,,1,,,62,0
135600,note_on,21,0,8,,,,,,,,11,,,74,44
135699,note_on,99,0,8,,,,,,,,11,,,74,0
135720,note_on,21,0,8,,,,,,,,11,,,74,44
135819,note_on,99,0,8,,,,,,,,11,,,74,0
135840,note_on,21,0,8,,,,,,,,11,,,74,44
135939,note_on,99,0,8,,,,,,,,11,,,74,0
135960,note_on,21,0,8,,,,,,,,11,,,74,44
136059,note_on,99,0,8,,,,,,,,11,,,74,0
136080,note_on,21,0,8,,,,,,,,11,,,74,44
136179,note_on,99,0,8,,,,,,,,11,,,74,0
136200,note_on,21,0,8,,,,,,,,11,,,74,44
136299,note_on,99,0,8,,,,,,,,11,,,74,0
136320,note_on,721,0,9,,,,,,,,12,,,60,44
136320,note_on,21,0,8,,,,,,,,11,,,79,44
136359,note_on,39,0,8,,,,,,,,11,,,79,0
136360,note_on,1,0,8,,,,,,,,11,,,81,44
136399,note_on,39,0,8,,,,,,,,11,,,81,0
136400,note_on,1,0,8,,,,,,,,11,,,79,44
136419,note_on,99,0,9,,,,,,,,12,,,60,0
136439,note_on,39,0,8,,,,,,,,11,,,79,0
136440,note_on,21,0,9,,,,,,,,12,,,62,44
136440,note_on,1,0,8,,,,,,,,11,,,77,44
136499,note_on,59,0,8,,,,,,,,11,,,77,0
136500,note_on,1,0,8,,,,,,,,11,,,79,44
136539,note_on,99,0,9,,,,,,,,12,,,62,0
136559,note_on,59,0,8,,,,,,,,11,,,79,0
136560,note_on,21,0,9,,,,,,,,12,,,64,44
136659,note_on,99,0,9,,,,,,,,12,,,64,0
136680,note_on,21,0,9,,,,,,,,12,,,60,44
136779,note_on,99,0,9,,,,,,,,12,,,60,0
136800,note_on,21,0,9,,,,,,,,12,,,62,44
136800,note_on,241,0,8,,,,,,,,11,,,77,44
136839,note_on,39,0,8,,,,,,,,11,,,77,0
136840,note_on,1,0,8,,,,,,,,11,,,79,44
136879,note_on,39,0,8,,,,,,,,11,,,79,0
136880,note_on,1,0,8,,,,,,,,11,,,77,44
136899,note_on,99,0,9,,,,,,,,12,,,62,0
136919,note_on,39,0,8,,,,,,,,11,,,77,0
136920,note_on,1,0,8,,,,,,,,11,,,76,44
136920,note_on,21,0,9,,,,,,,,12,,,64,44
136979,note_on,59,0,8,,,,,,,,11,,,76,0
136980,note_on,1,0,8,,,,,,,,11,,,77,44
137019,note_on,99,0,9,,,,,,,,12,,,64,0
137039,note_on,59,0,8,,,,,,,,11,,,77,0
137040,note_on,21,0,9,,,,,,,,12,,,65,44
137139,note_on,99,0,9,,,,,,,,12,,,65,0
137160,note_on,21,0,9,,,,,,,,12,,,62,44
137259,note_on,99,0,9,,,,,,,,12,,,62,0
137280,note_on,241,0,8,,,,,,,,11,,,76,44
137280,note_on,21,0,9,,,,,,,,12,,,64,44
137319,note_on,39,0,8,,,,,,,,11,,,76,0
137320,note_on,1,0,8,,,,,,,,11,,,77,44
137359,note_on,39,0,8,,,,,,,,11,,,77,0
137360,note_on,1,0,8,,,,,,,,11,,,76,44
137379,note_on,99,0,9,,,,,,,,12,,,64,0
137399,note_on,39,0,8,,,,,,,,11,,,76,0
137400,note_on,1,0,8,,,,,,,,11,,,74,44
137400,note_on,21,0,9,,,,,,,,12,,,65,44
137459,note_on,59,0,8,,,,,,,,11,,,74,0
137460,note_on,1,0,8,,,,,,,,11,,,76,44
137499,note_on,99,0,9,,,,,,,,12,,,65,0
137519,note_on,59,0,8,,,,,,,,11,,,76,0
137520,note_on,21,0,9,,,,,,,,12,,,67,44
137619,note_on,99,0,9,,,,,,,,12,,,67,0
137640,note_on,21,0,9,,,,,,,,12,,,64,44
137739,note_on,99,0,9,,,,,,,,12,,,64,0
137760,note_on,21,0,9,,,,,,,,12,,,65,44
137760,note_on,241,0,8,,,,,,,,11,,,74,44
137799,note_on,39,0,8,,,,,,,,11,,,74,0
137800,note_on,1,0,8,,,,,,,,11,,,76,44
137839,note_on,39,0,8,,,,,,,,11,,,76,0
137840,note_on,1,0,8,,,,,,,,11,,,74,44
137859,note_on,99,0,9,,,,,,,,12,,,65,0
137879,note_on,39,0,8,,,,,,,,11,,,74,0
137880,note_on,21,0,9,,,,,,,,12,,,67,44
137880,note_on,1,0,8,,,,,,,,11,,,72,44
137939,note_on,59,0,8,,,,,,,,11,,,72,0
137940,note_on,1,0,8,,,,,,,,11,,,74,44
137979,note_on,99,0,9,,,,,,,,12,,,67,0
137999,note_on,59,0,8,,,,,,,,11,,,74,0
138000,note_on,21,0,9,,,,,,,,12,,,69,44
138099,note_on,99,0,9,,,,,,,,12,,,69,0
138120,note_on,21,0,9,,,,,,,,12,,,65,44
138219,note_on,99,0,9,,,,,,,,12,,,65,0
138240,note_on,241,0,8,,,,,,,,11,,,72,44
138240,note_on,21,0,9,,,,,,,,12,,,64,44
138279,note_on,39,0,8,,,,,,,,11,,,72,0
138280,note_on,1,0,8,,,,,,,,11,,,74,44
138319,note_on,39,0,8,,,,,,,,11,,,74,0
138320,note_on,1,0,8,,,,,,,,11,,,72,44
138339,note_on,99,0,9,,,,,,,,12,,,64,0
138359,note_on,39,0,8,,,,,,,,11,,,72,0
138360,note_on,1,0,8,,,,,,,,11,,,71,44
138360,note_on,21,0,9,,,,,,,,12,,,65,44
138419,note_on,59,0,8,,,,,,,,11,,,71,0
138420,note_on,1,0,8,,,,,,,,11,,,72,44
138459,note_on,99,0,9,,,,,,,,12,,,65,0
138479,note_on,59,0,8,,,,,,,,11,,,72,0
138480,note_on,21,0,9,,,,,,,,12,,,67,44
138579,note_on,99,0,9,,,,,,,,12,,,67,0
138600,note_on,21,0,9,,,,,,,,12,,,64,44
138699,note_on,99,0,9,,,,,,,,12,,,64,0
138720,note_on,241,0,8,,,,,,,,11,,,71,44
138720,note_on,21,0,9,,,,,,,,12,,,62,44
138759,note_on,39,0,8,,,,,,,,11,,,71,0
138760,note_on,1,0,8,,,,,,,,11,,,72,44
138799,note_on,39,0,8,,,,,,,,11,,,72,0
138800,note_on,1,0,8,,,,,,,,11,,,71,44
138819,note_on,99,0,9,,,,,,,,12,,,62,0
138839,note_on,39,0,8,,,,,,,,11,,,71,0
138840,note_on,1,0,8,,,,,,,,11,,,69,44
138840,note_on,21,0,9,,,,,,,,12,,,64,44
138899,note_on,59,0,8,,,,,,,,11,,,69,0
138900,note_on,1,0,8,,,,,,,,11,,,71,44
138939,note_on,99,0,9,,,,,,,,12,,,64,0
138959,note_on,59,0,8,,,,,,,,11,,,71,0
138960,note_on,21,0,9,,,,,,,,12,,,65,44
139059,note_on,99,0,9,,,,,,,,12,,,65,0
139080,note_on,21,0,9,,,,,,,,12,,,62,44
139179,note_on,99,0,9,,,,,,,,12,,,62,0
139200,note_on,0,0,8,,,,,,,,11,,,64,80
139200,note_on,0,0,8,,,,,,,,11,,,55,80
139200,note_on,3601,0,10,,,,,,,,13,,,72,80
139200,note_on,0,0,6,,,,,,,,1,,,48,80
139200,note_on,3601,0,6,,,,,,,,1,,,60,80
139200,note_on,3601,0,12,,,,,,,,15,,,48,80
139200,note_on,3601,0,7,,,,,,,,2,,,60,80
139200,note_on,0,0,7,,,,,,,,2,,,72,80
139200,note_on,3601,0,5,,,,,,,,0,,,72,80
139200,note_on,241,0,8,,,,,,,,11,,,72,80
139200,note_on,0,0,5,,,,,,,,0,,,84,80
139200,note_on,21,0,9,,,,,,,,12,,,64,80
139200,note_on,0,0,9,,,,,,,,12,,,72,80
139200,note_on,0,0,9,,,,,,,,12,,,55,80
139200,note_on,3601,0,11,,,,,,,,14,,,60,80
139299,note_on,99,0,10,,,,,,,,13,,,72,0
139299,note_on,99,0,11,,,,,,,,14,,,60,0
139299,note_on,99,0,12,,,,,,,,15,,,48,0
139320,note_on,21,0,10,,,,,,,,13,,,74,80
139320,note_on,21,0,11,,,,,,,,14,,,62,80
139320,note_on,21,0,12,,,,,,,,15,,,50,80
139419,note_on,99,0,12,,,,,,,,15,,,50,0
139419,note_on,99,0,11,,,,,,,,14,,,62,0
139419,note_on,99,0,10,,,,,,,,13,,,74,0
139439,note_on,239,0,8,,,,,,,,11,,,55,0
139439,note_on,0,0,9,,,,,,,,12,,,72,0
139439,note_on,0,0,9,,,,,,,,12,,,64,0
139439,note_on,0,0,8,,,,,,,,11,,,72,0
139439,note_on,239,0,9,,,,,,,,12,,,55,0
139439,note_on,0,0,8,,,,,,,,11,,,64,0
139440,note_on,21,0,11,,,,,,,,14,,,64,80
139440,note_on,21,0,10,,,,,,,,13,,,76,80
139440,note_on,21,0,12,,,,,,,,15,,,52,80
139539,note_on,99,0,12,,,,,,,,15,,,52,0
139539,note_on,99,0,11,,,,,,,,14,,,64,0
139539,note_on,99,0,10,,,,,,,,13,,,76,0
139560,note_on,21,0,10,,,,,,,,13,,,72,80
139560,note_on,21,0,12,,,,,,,,15,,,48,80
139560,note_on,21,0,11,,,,,,,,14,,,60,80
139659,note_on,99,0,10,,,,,,,,13,,,72,0
139659,note_on,99,0,11,,,,,,,,14,,,60,0
139659,note_on,99,0,12,,,,,,,,15,,,48,0
139680,note_on,0,0,9,,,,,,,,12,,,67,80
139680,note_on,241,0,8,,,,,,,,11,,,72,80
139680,note_on,0,0,8,,,,,,,,11,,,76,80
139680,note_on,21,0,11,,,,,,,,14,,,58,80
139680,note_on,241,0,9,,,,,,,,12,,,72,80
139680,note_on,21,0,12,,,,,,,,15,,,46,80
139680,note_on,21,0,10,,,,,,,,13,,,70,80
139680,note_on,0,0,8,,,,,,,,11,,,67,80
139680,note_on,0,0,9,,,,,,,,12,,,76,80
139779,note_on,99,0,10,,,,,,,,13,,,70,0
139779,note_on,99,0,12,,,,,,,,15,,,46,0
139779,note_on,99,0,11,,,,,,,,14,,,58,0
139800,note_on,21,0,12,,,,,,,,15,,,48,80
139800,note_on,21,0,11,,,,,,,,14,,,60,80
139800,note_on,21,0,10,,,,,,,,13,,,72,80
139899,note_on,99,0,12,,,,,,,,15,,,48,0
139899,note_on,99,0,10,,,,,,,,13,,,72,0
139899,note_on,99,0,11,,,,,,,,14,,,60,0
139919,note_on,0,0,9,,,,,,,,12,,,72,0
139919,note_on,0,0,9,,,,,,,,12,,,67,0
139919,note_on,239,0,9,,,,,,,,12,,,76,0
139919,note_on,239,0,8,,,,,,,,11,,,67,0
139919,note_on,0,0,8,,,,,,,,11,,,76,0
139919,note_on,0,0,8,,,,,,,,11,,,72,0
139920,note_on,21,0,11,,,,,,,,14,,,62,80
139920,note_on,21,0,10,,,,,,,,13,,,74,80
139920,note_on,21,0,12,,,,,,,,15,,,50,80
140019,note_on,99,0,11,,,,,,,,14,,,62,0
140019,note_on,99,0,10,,,,,,,,13,,,74,0
140019,note_on,99,0,12,,,,,,,,15,,,50,0
140040,note_on,21,0,10,,,,,,,,13,,,70,80
140040,note_on,21,0,11,,,,,,,,14,,,58,80
140040,note_on,21,0,12,,,,,,,,15,,,46,80
140139,note_on,99,0,12,,,,,,,,15,,,46,0
140139,note_on,99,0,11,,,,,,,,14,,,58,0
140139,note_on,99,0,10,,,,,,,,13,,,70,0
140160,note_on,21,0,12,,,,,,,,15,,,45,80
140160,note_on,0,0,8,,,,,,,,11,,,72,80
140160,note_on,0,0,9,,,,,,,,12,,,65,80
140160,note_on,0,0,8,,,,,,,,11,,,65,80
140160,note_on,241,0,8,,,,,,,,11,,,77,80
140160,note_on,241,0,9,,,,,,,,12,,,77,80
140160,note_on,21,0,10,,,,,,,,13,,,69,80
140160,note_on,0,0,9,,,,,,,,12,,,72,80
140160,note_on,21,0,11,,,,,,,,14,,,57,80
140259,note_on,99,0,11,,,,,,,,14,,,57,0
140259,note_on,99,0,12,,,,,,,,15,,,45,0
140259,note_on,99,0,10,,,,,,,,13,,,69,0
140280,note_on,21,0,12,,,,,,,,15,,,46,80
140280,note_on,21,0,11,,,,,,,,14,,,58,80
140280,note_on,21,0,10,,,,,,,,13,,,70,80
140379,note_on,99,0,12,,,,,,,,15,,,46,0
140379,note_on,99,0,10,,,,,,,,13,,,70,0
140379,note_on,99,0,11,,,,,,,,14,,,58,0
140399,note_on,0,0,8,,,,,,,,11,,,77,0
140399,note_on,0,0,9,,,,,,,,12,,,65,0
140399,note_on,239,0,9,,,,,,,,12,,,72,0
140399,note_on,239,0,8,,,,,,,,11,,,72,0
140399,note_on,0,0,9,,,,,,,,12,,,77,0
140399,note_on,0,0,8,,,,,,,,11,,,65,0
140400,note_on,21,0,11,,,,,,,,14,,,60,80
140400,note_on,21,0,10,,,,,,,,13,,,72,80
140400,note_on,21,0,12,,,,,,,,15,,,48,80
140499,note_on,99,0,11,,,,,,,,14,,,60,0
140499,note_on,99,0,10,,,,,,,,13,,,72,0
140499,note_on,99,0,12,,,,,,,,15,,,48,0
140520,note_on,21,0,10,,,,,,,,13,,,69,80
140520,note_on,21,0,11,,,,,,,,14,,,57,80
140520,note_on,21,0,12,,,,,,,,15,,,45,80
140619,note_on,99,0,12,,,,,,,,15,,,45,0
140619,note_on,99,0,10,,,,,,,,13,,,69,0
140619,note_on,99,0,11,,,,,,,,14,,,57,0
140640,note_on,21,0,12,,,,,,,,15,,,43,80
140640,note_on,241,0,9,,,,,,,,12,,,64,80
140640,note_on,0,0,9,,,,,,,,12,,,82,80
140640,note_on,0,0,9,,,,,,,,12,,,72,80
140640,note_on,0,0,8,,,,,,,,11,,,64,80
140640,note_on,241,0,8,,,,,,,,11,,,82,80
140640,note_on,21,0,11,,,,,,,,14,,,55,80
140640,note_on,21,0,10,,,,,,,,13,,,67,80
140640,note_on,0,0,8,,,,,,,,11,,,72,80
140739,note_on,99,0,12,,,,,,,,15,,,43,0
140739,note_on,99,0,10,,,,,,,,13,,,67,0
140739,note_on,99,0,11,,,,,,,,14,,,55,0
140760,note_on,21,0,11,,,,,,,,14,,,57,80
140760,note_on,21,0,10,,,,,,,,13,,,69,80
140760,note_on,21,0,12,,,,,,,,15,,,45,80
140859,note_on,99,0,10,,,,,,,,13,,,69,0
140859,note_on,99,0,11,,,,,,,,14,,,57,0
140859,note_on,99,0,12,,,,,,,,15,,,45,0
140879,note_on,0,0,8,,,,,,,,11,,,64,0
140879,note_on,0,0,9,,,,,,,,12,,,64,0
140879,note_on,0,0,9,,,,,,,,12,,,82,0
140879,note_on,239,0,9,,,,,,,,12,,,72,0
140879,note_on,0,0,8,,,,,,,,11,,,82,0
140879,note_on,239,0,8,,,,,,,,11,,,72,0
140880,note_on,21,0,11,,,,,,,,14,,,58,80
140880,note_on,21,0,12,,,,,,,,15,,,46,80
140880,note_on,21,0,10,,,,,,,,13,,,70,80
140979,note_on,99,0,11,,,,,,,,14,,,58,0
140979,note_on,99,0,12,,,,,,,,15,,,46,0
140979,note_on,99,0,10,,,,,,,,13,,,70,0
141000,note_on,21,0,10,,,,,,,,13,,,67,80
141000,note_on,21,0,12,,,,,,,,15,,,43,80
141000,note_on,21,0,11,,,,,,,,14,,,55,80
141099,note_on,99,0,12,,,,,,,,15,,,43,0
141099,note_on,99,0,10,,,,,,,,13,,,67,0
141099,note_on,99,0,11,,,,,,,,14,,,55,0
141119,note_on,1919,0,5,,,,,,,,0,,,84,0
141119,note_on,0,0,5,,,,,,,,0,,,72,0
141119,note_on,1919,0,7,,,,,,,,2,,,72,0
141119,note_on,1919,0,6,,,,,,,,1,,,48,0
141119,note_on,0,0,6,,,,,,,,1,,,60,0
141119,note_on,0,0,7,,,,,,,,2,,,60,0
141120,note_on,21,0,10,,,,,,,,13,,,65,44
141120,note_on,21,0,12,,,,,,,,15,,,41,44
141120,note_on,21,0,11,,,,,,,,14,,,53,44
141120,note_on,241,0,8,,,,,,,,11,,,84,44
141120,note_on,241,0,9,,,,,,,,12,,,65,44
141159,note_on,39,0,8,,,,,,,,11,,,84,0
141160,note_on,1,0,8,,,,,,,,11,,,86,44
141199,note_on,39,0,8,,,,,,,,11,,,86,0
141200,note_on,1,0,8,,,,,,,,11,,,84,44
141219,note_on,99,0,9,,,,,,,,12,,,65,0
141239,note_on,39,0,8,,,,,,,,11,,,84,0
141240,note_on,21,0,9,,,,,,,,12,,,67,44
141240,note_on,1,0,8,,,,,,,,11,,,82,44
141299,note_on,59,0,8,,,,,,,,11,,,82,0
141300,note_on,1,0,8,,,,,,,,11,,,84,44
141339,note_on,99,0,9,,,,,,,,12,,,67,0
141359,note_on,59,0,8,,,,,,,,11,,,84,0
141360,note_on,21,0,9,,,,,,,,12,,,69,44
141459,note_on,99,0,9,,,,,,,,12,,,69,0
141480,note_on,21,0,9,,,,,,,,12,,,65,44
141579,note_on,99,0,9,,,,,,,,12,,,65,0
141599,note_on,479,0,11,,,,,,,,14,,,53,0
141599,note_on,479,0,12,,,,,,,,15,,,41,0
141599,note_on,479,0,10,,,,,,,,13,,,65,0
141600,note_on,21,0,9,,,,,,,,12,,,67,44
141600,note_on,241,0,8,,,,,,,,11,,,82,44
141639,note_on,39,0,8,,,,,,,,11,,,82,0
141640,note_on,1,0,8,,,,,,,,11,,,84,44
141679,note_on,39,0,8,,,,,,,,11,,,84,0
141680,note_on,1,0,8,,,,,,,,11,,,82,44
141699,note_on,99,0,9,,,,,,,,12,,,67,0
141719,note_on,39,0,8,,,,,,,,11,,,82,0
141720,note_on,1,0,8,,,,,,,,11,,,81,44
141720,note_on,21,0,9,,,,,,,,12,,,69,44
141779,note_on,59,0,8,,,,,,,,11,,,81,0
141780,note_on,1,0,8,,,,,,,,11,,,82,44
141819,note_on,99,0,9,,,,,,,,12,,,69,0
141839,note_on,59,0,8,,,,,,,,11,,,82,0
141840,note_on,21,0,9,,,,,,,,12,,,70,44
141939,note_on,99,0,9,,,,,,,,12,,,70,0
141960,note_on,21,0,9,,,,,,,,12,,,67,44
142059,note_on,99,0,9,,,,,,,,12,,,67,0
142080,note_on,21,0,9,,,,,,,,12,,,69,44
142080,note_on,241,0,8,,,,,,,,11,,,81,44
142119,note_on,39,0,8,,,,,,,,11,,,81,0
142120,note_on,1,0,8,,,,,,,,11,,,82,44
142159,note_on,39,0,8,,,,,,,,11,,,82,0
142160,note_on,1,0,8,,,,,,,,11,,,81,44
142179,note_on,99,0,9,,,,,,,,12,,,69,0
142199,note_on,39,0,8,,,,,,,,11,,,81,0
142200,note_on,1,0,8,,,,,,,,11,,,79,44
142200,note_on,21,0,9,,,,,,,,12,,,70,44
142259,note_on,59,0,8,,,,,,,,11,,,79,0
142260,note_on,1,0,8,,,,,,,,11,,,81,44
142299,note_on,99,0,9,,,,,,,,12,,,70,0
142319,note_on,59,0,8,,,,,,,,11,,,81,0
142320,note_on,21,0,9,,,,,,,,12,,,72,44
142419,note_on,99,0,9,,,,,,,,12,,,72,0
142440,note_on,21,0,9,,,,,,,,12,,,69,44
142539,note_on,99,0,9,,,,,,,,12,,,69,0
142560,note_on,241,0,8,,,,,,,,11,,,79,44
142560,note_on,21,0,9,,,,,,,,12,,,70,44
142599,note_on,39,0,8,,,,,,,,11,,,79,0
142600,note_on,1,0,8,,,,,,,,11,,,81,44
142639,note_on,39,0,8,,,,,,,,11,,,81,0
142640,note_on,1,0,8,,,,,,,,11,,,79,44
142659,note_on,99,0,9,,,,,,,,12,,,70,0
142679,note_on,39,0,8,,,,,,,,11,,,79,0
142680,note_on,21,0,9,,,,,,,,12,,,72,44
142680,note_on,1,0,8,,,,,,,,11,,,77,44
142739,note_on,59,0,8,,,,,,,,11,,,77,0
142740,note_on,1,0,8,,,,,,,,11,,,79,44
142779,note_on,99,0,9,,,,,,,,12,,,72,0
142799,note_on,59,0,8,,,,,,,,11,,,79,0
142800,note_on,21,0,9,,,,,,,,12,,,74,44
142899,note_on,99,0,9,,,,,,,,12,,,74,0
142920,note_on,21,0,9,,,,,,,,12,,,70,44
143019,note_on,99,0,9,,,,,,,,12,,,70,0
143040,note_on,21,0,9,,,,,,,,12,,,69,44
143040,note_on,241,0,8,,,,,,,,11,,,77,44
143079,note_on,39,0,8,,,,,,,,11,,,77,0
143080,note_on,1,0,8,,,,,,,,11,,,79,44
143119,note_on,39,0,8,,,,,,,,11,,,79,0
143120,note_on,1,0,8,,,,,,,,11,,,77,44
143139,note_on,99,0,9,,,,,,,,12,,,69,0
143159,note_on,39,0,8,,,,,,,,11,,,77,0
143160,note_on,1,0,8,,,,,,,,11,,,76,44
143160,note_on,21,0,9,,,,,,,,12,,,70,44
143219,note_on,59,0,8,,,,,,,,11,,,76,0
143220,note_on,1,0,8,,,,,,,,11,,,77,44
143259,note_on,99,0,9,,,,,,,,12,,,70,0
143279,note_on,59,0,8,,,,,,,,11,,,77,0
143280,note_on,21,0,9,,,,,,,,12,,,72,44
143379,note_on,99,0,9,,,,,,,,12,,,72,0
143400,note_on,21,0,9,,,,,,,,12,,,69,44
143499,note_on,99,0,9,,,,,,,,12,,,69,0
143520,note_on,21,0,9,,,,,,,,12,,,67,44
143520,note_on,241,0,8,,,,,,,,11,,,76,44
143559,note_on,39,0,8,,,,,,,,11,,,76,0
143560,note_on,1,0,8,,,,,,,,11,,,77,44
143599,note_on,39,0,8,,,,,,,,11,,,77,0
143600,note_on,1,0,8,,,,,,,,11,,,76,44
143619,note_on,99,0,9,,,,,,,,12,,,67,0
143639,note_on,39,0,8,,,,,,,,11,,,76,0
143640,note_on,21,0,9,,,,,,,,12,,,69,44
143640,note_on,1,0,8,,,,,,,,11,,,74,44
143699,note_on,59,0,8,,,,,,,,11,,,74,0
143700,note_on,1,0,8,,,,,,,,11,,,76,44
143739,note_on,99,0,9,,,,,,,,12,,,69,0
143759,note_on,59,0,8,,,,,,,,11,,,76,0
143760,note_on,21,0,9,,,,,,,,12,,,70,44
143859,note_on,99,0,9,,,,,,,,12,,,70,0
143880,note_on,21,0,9,,,,,,,,12,,,67,44
143979,note_on,99,0,9,,,,,,,,12,,,67,0
144000,note_on,0,0,8,,,,,,,,11,,,72,80
144000,note_on,0,0,8,,,,,,,,11,,,77,80
144000,note_on,0,0,5,,,,,,,,0,,,81,80
144000,note_on,2881,0,5,,,,,,,,0,,,69,80
144000,note_on,2401,0,10,,,,,,,,13,,,69,80
144000,note_on,241,0,8,,,,,,,,11,,,65,80
144000,note_on,0,0,9,,,,,,,,12,,,65,80
144000,note_on,2401,0,11,,,,,,,,14,,,57,80
144000,note_on,21,0,9,,,,,,,,12,,,77,80
144000,note_on,2401,0,12,,,,,,,,15,,,45,80
144000,note_on,0,0,9,,,,,,,,12,,,72,80
144099,note_on,99,0,11,,,,,,,,14,,,57,0
144099,note_on,99,0,10,,,,,,,,13,,,69,0
144099,note_on,99,0,12,,,,,,,,15,,,45,0
144120,note_on,21,0,10,,,,,,,,13,,,70,80
144120,note_on,21,0,12,,,,,,,,15,,,46,80
144120,note_on,21,0,11,,,,,,,,14,,,58,80
144219,note_on,99,0,10,,,,,,,,13,,,70,0
144219,note_on,99,0,12,,,,,,,,15,,,46,0
144219,note_on,99,0,11,,,,,,,,14,,,58,0
144239,note_on,0,0,8,,,,,,,,11,,,65,0
144239,note_on,0,0,8,,,,,,,,11,,,72,0
144239,note_on,239,0,8,,,,,,,,11,,,77,0
144239,note_on,0,0,9,,,,,,,,12,,,77,0
144239,note_on,0,0,9,,,,,,,,12,,,65,0
144239,note_on,239,0,9,,,,,,,,12,,,72,0
144240,note_on,21,0,10,,,,,,,,13,,,72,80
144240,note_on,21,0,11,,,,,,,,14,,,60,80
144240,note_on,21,0,12,,,,,,,,15,,,48,80
144339,note_on,99,0,10,,,,,,,,13,,,72,0
144339,note_on,99,0,12,,,,,,,,15,,,48,0
144339,note_on,99,0,11,,,,,,,,14,,,60,0
144360,note_on,21,0,11,,,,,,,,14,,,57,80
144360,note_on,21,0,12,,,,,,,,15,,,45,80
144360,note_on,21,0,10,,,,,,,,13,,,69,80
144459,note_on,99,0,12,,,,,,,,15,,,45,0
144459,note_on,99,0,11,,,,,,,,14,,,57,0
144459,note_on,99,0,10,,,,,,,,13,,,69,0
144480,note_on,0,0,8,,,,,,,,11,,,73,80
144480,note_on,241,0,9,,,,,,,,12,,,76,80
144480,note_on,21,0,11,,,,,,,,14,,,55,80
144480,note_on,21,0,12,,,,,,,,15,,,43,80
144480,note_on,0,0,9,,,,,,,,12,,,73,80
144480,note_on,0,0,9,,,,,,,,12,,,69,80
144480,note_on,241,0,8,,,,,,,,11,,,76,80
144480,note_on,21,0,10,,,,,,,,13,,,67,80
144480,note_on,0,0,8,,,,,,,,11,,,69,80
144579,note_on,99,0,10,,,,,,,,13,,,67,0
144579,note_on,99,0,11,,,,,,,,14,,,55,0
144579,note_on,99,0,12,,,,,,,,15,,,43,0
144600,note_on,21,0,12,,,,,,,,15,,,45,80
144600,note_on,21,0,10,,,,,,,,13,,,69,80
144600,note_on,21,0,11,,,,,,,,14,,,57,80
144699,note_on,99,0,12,,,,,,,,15,,,45,0
144699,note_on,99,0,10,,,,,,,,13,,,69,0
144699,note_on,99,0,11,,,,,,,,14,,,57,0
144719,note_on,0,0,8,,,,,,,,11,,,73,0
144719,note_on,0,0,8,,,,,,,,11,,,76,0
144719,note_on,239,0,9,,,,,,,,12,,,73,0
144719,note_on,0,0,9,,,,,,,,12,,,69,0
144719,note_on,239,0,8,,,,,,,,11,,,69,0
144719,note_on,0,0,9,,,,,,,,12,,,76,0
144720,note_on,21,0,11,,,,,,,,14,,,58,80
144720,note_on,21,0,12,,,,,,,,15,,,46,80
144720,note_on,21,0,10,,,,,,,,13,,,70,80
144819,note_on,99,0,10,,,,,,,,13,,,70,0
144819,note_on,99,0,12,,,,,,,,15,,,46,0
144819,note_on,99,0,11,,,,,,,,14,,,58,0
144840,note_on,21,0,12,,,,,,,,15,,,43,80
144840,note_on,21,0,11,,,,,,,,14,,,55,80
144840,note_on,21,0,10,,,,,,,,13,,,67,80
144939,note_on,99,0,12,,,,,,,,15,,,43,0
144939,note_on,99,0,11,,,,,,,,14,,,55,0
144939,note_on,99,0,10,,,,,,,,13,,,67,0
144960,note_on,0,0,9,,,,,,,,12,,,77,80
144960,note_on,0,0,8,,,,,,,,11,,,77,80
144960,note_on,21,0,11,,,,,,,,14,,,53,80
144960,note_on,21,0,10,,,,,,,,13,,,65,80
144960,note_on,0,0,8,,,,,,,,11,,,62,80
144960,note_on,21,0,12,,,,,,,,15,,,41,80
144960,note_on,241,0,8,,,,,,,,11,,,69,80
144960,note_on,0,0,9,,,,,,,,12,,,62,80
144960,note_on,241,0,9,,,,,,,,12,,,69,80
145059,note_on,99,0,11,,,,,,,,14,,,53,0
145059,note_on,99,0,10,,,,,,,,13,,,65,0
145059,note_on,99,0,12,,,,,,,,15,,,41,0
145080,note_on,21,0,10,,,,,,,,13,,,67,80
145080,note_on,21,0,11,,,,,,,,14,,,55,80
145080,note_on,21,0,12,,,,,,,,15,,,43,80
145179,note_on,99,0,11,,,,,,,,14,,,55,0
145179,note_on,99,0,10,,,,,,,,13,,,67,0
145179,note_on,99,0,12,,,,,,,,15,,,43,0
145199,note_on,0,0,8,,,,,,,,11,,,62,0
145199,note_on,239,0,9,,,,,,,,12,,,77,0
145199,note_on,0,0,9,,,,,,,,12,,,62,0
145199,note_on,0,0,9,,,,,,,,12,,,69,0
145199,note_on,0,0,8,,,,,,,,11,,,69,0
145199,note_on,239,0,8,,,,,,,,11,,,77,0
145200,note_on,21,0,11,,,,,,,,14,,,57,80
145200,note_on,21,0,10,,,,,,,,13,,,69,80
145200,note_on,21,0,12,,,,,,,,15,,,45,80
145299,note_on,99,0,11,,,,,,,,14,,,57,0
145299,note_on,99,0,10,,,,,,,,13,,,69,0
145299,note_on,99,0,12,,,,,,,,15,,,45,0
145320,note_on,21,0,10,,,,,,,,13,,,65,80
145320,note_on,21,0,12,,,,,,,,15,,,41,80
145320,note_on,21,0,11,,,,,,,,14,,,53,80
145419,note_on,99,0,11,,,,,,,,14,,,53,0
145419,note_on,99,0,12,,,,,,,,15,,,41,0
145419,note_on,99,0,10,,,,,,,,13,,,65,0
145440,note_on,0,0,9,,,,,,,,12,,,73,80
145440,note_on,21,0,10,,,,,,,,13,,,64,80
145440,note_on,21,0,11,,,,,,,,14,,,52,80
145440,note_on,241,0,9,,,,,,,,12,,,76,80
145440,note_on,0,0,8,,,,,,,,11,,,69,80
145440,note_on,241,0,8,,,,,,,,11,,,79,80
145440,note_on,21,0,12,,,,,,,,15,,,40,80
145539,note_on,99,0,10,,,,,,,,13,,,64,0
145539,note_on,99,0,12,,,,,,,,15,,,40,0
145539,note_on,99,0,11,,,,,,,,14,,,52,0
145560,note_on,21,0,12,,,,,,,,15,,,41,80
145560,note_on,21,0,10,,,,,,,,13,,,65,80
145560,note_on,21,0,11,,,,,,,,14,,,53,80
145659,note_on,99,0,12,,,,,,,,15,,,41,0
145659,note_on,99,0,11,,,,,,,,14,,,53,0
145659,note_on,99,0,10,,,,,,,,13,,,65,0
145679,note_on,0,0,8,,,,,,,,11,,,79,0
145679,note_on,239,0,9,,,,,,,,12,,,73,0
145679,note_on,0,0,9,,,,,,,,12,,,76,0
145679,note_on,239,0,8,,,,,,,,11,,,69,0
145680,note_on,21,0,10,,,,,,,,13,,,67,80
145680,note_on,21,0,12,,,,,,,,15,,,43,80
145680,note_on,21,0,11,,,,,,,,14,,,55,80
145779,note_on,99,0,11,,,,,,,,14,,,55,0
145779,note_on,99,0,10,,,,,,,,13,,,67,0
145779,note_on,99,0,12,,,,,,,,15,,,43,0
145800,note_on,21,0,11,,,,,,,,14,,,52,80
145800,note_on,21,0,10,,,,,,,,13,,,64,80
145800,note_on,21,0,12,,,,,,,,15,,,40,80
145899,note_on,99,0,10,,,,,,,,13,,,64,0
145899,note_on,99,0,12,,,,,,,,15,,,40,0
145899,note_on,99,0,11,,,,,,,,14,,,52,0
145919,note_on,1919,0,5,,,,,,,,0,,,81,0
145919,note_on,0,0,5,,,,,,,,0,,,69,0
145920,note_on,21,0,10,,,,,,,,13,,,62,44
145920,note_on,241,0,9,,,,,,,,12,,,62,44
145920,note_on,21,0,12,,,,,,,,15,,,38,44
145920,note_on,241,0,8,,,,,,,,11,,,81,44
145920,note_on,21,0,11,,,,,,,,14,,,50,44
145959,note_on,39,0,8,,,,,,,,11,,,81,0
145960,note_on,1,0,8,,,,,,,,11,,,82,44
145999,note_on,39,0,8,,,,,,,,11,,,82,0
146000,note_on,1,0,8,,,,,,,,11,,,81,44
146019,note_on,99,0,9,,,,,,,,12,,,62,0
146039,note_on,39,0,8,,,,,,,,11,,,81,0
146040,note_on,1,0,8,,,,,,,,11,,,79,44
146040,note_on,21,0,9,,,,,,,,12,,,64,44
146099,note_on,59,0,8,,,,,,,,11,,,79,0
146100,note_on,1,0,8,,,,,,,,11,,,81,44
146139,note_on,99,0,9,,,,,,,,12,,,64,0
146159,note_on,59,0,8,,,,,,,,11,,,81,0
146160,note_on,21,0,9,,,,,,,,12,,,65,44
146259,note_on,99,0,9,,,,,,,,12,,,65,0
146280,note_on,21,0,9,,,,,,,,12,,,62,44
146379,note_on,99,0,9,,,,,,,,12,,,62,0
146399,note_on,479,0,12,,,,,,,,15,,,38,0
146399,note_on,479,0,10,,,,,,,,13,,,62,0
146399,note_on,479,0,11,,,,,,,,14,,,50,0
146400,note_on,241,0,8,,,,,,,,11,,,79,44
146400,note_on,21,0,9,,,,,,,,12,,,64,44
146439,note_on,39,0,8,,,,,,,,11,,,79,0
146440,note_on,1,0,8,,,,,,,,11,,,81,44
146479,note_on,39,0,8,,,,,,,,11,,,81,0
146480,note_on,1,0,8,,,,,,,,11,,,79,44
146499,note_on,99,0,9,,,,,,,,12,,,64,0
146519,note_on,39,0,8,,,,,,,,11,,,79,0
146520,note_on,1,0,8,,,,,,,,11,,,77,44
146520,note_on,21,0,9,,,,,,,,12,,,65,44
146579,note_on,59,0,8,,,,,,,,11,,,77,0
146580,note_on,1,0,8,,,,,,,,11,,,79,44
146619,note_on,99,0,9,,,,,,,,12,,,65,0
146639,note_on,59,0,8,,,,,,,,11,,,79,0
146640,note_on,21,0,9,,,,,,,,12,,,67,44
146739,note_on,99,0,9,,,,,,,,12,,,67,0
146760,note_on,21,0,9,,,,,,,,12,,,64,44
146859,note_on,99,0,9,,,,,,,,12,,,64,0
146880,note_on,241,0,8,,,,,,,,11,,,77,44
146880,note_on,21,0,9,,,,,,,,12,,,65,44
146919,note_on,39,0,8,,,,,,,,11,,,77,0
146920,note_on,1,0,8,,,,,,,,11,,,79,44
146959,note_on,39,0,8,,,,,,,,11,,,79,0
146960,note_on,1,0,8,,,,,,,,11,,,77,44
146979,note_on,99,0,9,,,,,,,,12,,,65,0
146999,note_on,39,0,8,,,,,,,,11,,,77,0
147000,note_on,21,0,9,,,,,,,,12,,,67,44
147000,note_on,1,0,8,,,,,,,,11,,,76,44
147059,note_on,59,0,8,,,,,,,,11,,,76,0
147060,note_on,1,0,8,,,,,,,,11,,,77,44
147099,note_on,99,0,9,,,,,,,,12,,,67,0
147119,note_on,59,0,8,,,,,,,,11,,,77,0
147120,note_on,21,0,9,,,,,,,,12,,,69,44
147219,note_on,99,0,9,,,,,,,,12,,,69,0
147240,note_on,21,0,9,,,,,,,,12,,,65,44
147339,note_on,99,0,9,,,,,,,,12,,,65,0
147360,note_on,241,0,8,,,,,,,,11,,,76,44
147360,note_on,21,0,9,,,,,,,,12,,,67,44
147399,note_on,39,0,8,,,,,,,,11,,,76,0
147400,note_on,1,0,8,,,,,,,,11,,,77,44
147439,note_on,39,0,8,,,,,,,,11,,,77,0
147440,note_on,1,0,8,,,,,,,,11,,,76,44
147459,note_on,99,0,9,,,,,,,,12,,,67,0
147479,note_on,39,0,8,,,,,,,,11,,,76,0
147480,note_on,21,0,9,,,,,,,,12,,,69,44
147480,note_on,1,0,8,,,,,,,,11,,,74,44
147539,note_on,59,0,8,,,,,,,,11,,,74,0
147540,note_on,1,0,8,,,,,,,,11,,,76,44
147579,note_on,99,0,9,,,,,,,,12,,,69,0
147599,note_on,59,0,8,,,,,,,,11,,,76,0
147600,note_on,21,0,9,,,,,,,,12,,,70,44
147699,note_on,99,0,9,,,,,,,,12,,,70,0
147720,note_on,21,0,9,,,,,,,,12,,,67,44
147819,note_on,99,0,9,,,,,,,,12,,,67,0
147840,note_on,21,0,9,,,,,,,,12,,,65,44
147840,note_on,241,0,8,,,,,,,,11,,,74,44
147879,note_on,39,0,8,,,,,,,,11,,,74,0
147880,note_on,1,0,8,,,,,,,,11,,,76,44
147919,note_on,39,0,8,,,,,,,,11,,,76,0
147920,note_on,1,0,8,,,,,,,,11,,,74,44
147939,note_on,99,0,9,,,,,,,,12,,,65,0
147959,note_on,39,0,8,,,,,,,,11,,,74,0
147960,note_on,21,0,9,,,,,,,,12,,,67,44
147960,note_on,1,0,8,,,,,,,,11,,,73,44
148019,note_on,59,0,8,,,,,,,,11,,,73,0
148020,note_on,1,0,8,,,,,,,,11,,,74,44
148059,note_on,99,0,9,,,,,,,,12,,,67,0
148079,note_on,59,0,8,,,,,,,,11,,,74,0
148080,note_on,21,0,9,,,,,,,,12,,,69,44
148179,note_on,99,0,9,,,,,,,,12,,,69,0
148200,note_on,21,0,9,,,,,,,,12,,,65,44
148299,note_on,99,0,9,,,,,,,,12,,,65,0
148320,note_on,241,0,8,,,,,,,,11,,,73,44
148320,note_on,21,0,9,,,,,,,,12,,,64,44
148359,note_on,39,0,8,,,,,,,,11,,,73,0
148360,note_on,1,0,8,,,,,,,,11,,,74,44
148399,note_on,39,0,8,,,,,,,,11,,,74,0
148400,note_on,1,0,8,,,,,,,,11,,,73,44
148419,note_on,99,0,9,,,,,,,,12,,,64,0
148439,note_on,39,0,8,,,,,,,,11,,,73,0
148440,note_on,21,0,9,,,,,,,,12,,,65,44
148440,note_on,1,0,8,,,,,,,,11,,,71,44
148499,note_on,59,0,8,,,,,,,,11,,,71,0
148500,note_on,1,0,8,,,,,,,,11,,,73,44
148539,note_on,99,0,9,,,,,,,,12,,,65,0
148559,note_on,59,0,8,,,,,,,,11,,,73,0
148560,note_on,21,0,9,,,,,,,,12,,,67,44
148659,note_on,99,0,9,,,,,,,,12,,,67,0
148680,note_on,21,0,9,,,,,,,,12,,,64,44
148779,note_on,99,0,9,,,,,,,,12,,,64,0
148800,note_on,2881,0,5,,,,,,,,0,,,74,80
148800,note_on,2401,0,11,,,,,,,,14,,,62,80
148800,note_on,7681,0,6,,,,,,,,1,,,62,80
148800,note_on,0,0,5,,,,,,,,0,,,86,80
148800,note_on,21,0,9,,,,,,,,12,,,74,80
148800,note_on,0,0,9,,,,,,,,12,,,62,80
148800,note_on,2401,0,12,,,,,,,,15,,,50,80
148800,note_on,0,0,8,,,,,,,,11,,,62,80
148800,note_on,241,0,8,,,,,,,,11,,,74,80
148800,note_on,7681,0,7,,,,,,,,2,,,74,80
148800,note_on,2401,0,10,,,,,,,,13,,,74,80
148899,note_on,99,0,12,,,,,,,,15,,,50,0
148899,note_on,99,0,10,,,,,,,,13,,,74,0
148899,note_on,99,0,11,,,,,,,,14,,,62,0
148920,note_on,21,0,10,,,,,,,,13,,,76,80
148920,note_on,21,0,12,,,,,,,,15,,,52,80
148920,note_on,21,0,11,,,,,,,,14,,,64,80
149019,note_on,99,0,11,,,,,,,,14,,,64,0
149019,note_on,99,0,10,,,,,,,,13,,,76,0
149019,note_on,99,0,12,,,,,,,,15,,,52,0
149039,note_on,239,0,9,,,,,,,,12,,,62,0
149039,note_on,0,0,9,,,,,,,,12,,,74,0
149039,note_on,239,0,8,,,,,,,,11,,,62,0
149039,note_on,0,0,8,,,,,,,,11,,,74,0
149040,note_on,21,0,11,,,,,,,,14,,,65,80
149040,note_on,21,0,10,,,,,,,,13,,,77,80
149040,note_on,21,0,12,,,,,,,,15,,,53,80
149139,note_on,99,0,10,,,,,,,,13,,,77,0
149139,note_on,99,0,12,,,,,,,,15,,,53,0
149139,note_on,99,0,11,,,,,,,,14,,,65,0
149160,note_on,21,0,10,,,,,,,,13,,,74,80
149160,note_on,21,0,12,,,,,,,,15,,,50,80
149160,note_on,21,0,11,,,,,,,,14,,,62,80
149259,note_on,99,0,10,,,,,,,,13,,,74,0
149259,note_on,99,0,12,,,,,,,,15,,,50,0
149259,note_on,99,0,11,,,,,,,,14,,,62,0
149280,note_on,0,0,9,,,,,,,,12,,,62,80
149280,note_on,241,0,8,,,,,,,,11,,,62,80
149280,note_on,241,0,9,,,,,,,,12,,,78,80
149280,note_on,0,0,9,,,,,,,,12,,,69,80
149280,note_on,0,0,8,,,,,,,,11,,,69,80
149280,note_on,0,0,8,,,,,,,,11,,,78,80
149280,note_on,21,0,10,,,,,,,,13,,,72,80
149280,note_on,21,0,12,,,,,,,,15,,,48,80
149280,note_on,21,0,11,,,,,,,,14,,,60,80
149379,note_on,99,0,10,,,,,,,,13,,,72,0
149379,note_on,99,0,11,,,,,,,,14,,,60,0
149379,note_on,99,0,12,,,,,,,,15,,,48,0
149400,note_on,21,0,11,,,,,,,,14,,,62,80
149400,note_on,21,0,12,,,,,,,,15,,,50,80
149400,note_on,21,0,10,,,,,,,,13,,,74,80
149499,note_on,99,0,12,,,,,,,,15,,,50,0
149499,note_on,99,0,11,,,,,,,,14,,,62,0
149499,note_on,99,0,10,,,,,,,,13,,,74,0
149519,note_on,0,0,8,,,,,,,,11,,,78,0
149519,note_on,0,0,8,,,,,,,,11,,,62,0
149519,note_on,239,0,9,,,,,,,,12,,,62,0
149519,note_on,0,0,9,,,,,,,,12,,,69,0
149519,note_on,0,0,9,,,,,,,,12,,,78,0
149519,note_on,239,0,8,,,,,,,,11,,,69,0
149520,note_on,21,0,11,,,,,,,,14,,,64,80
149520,note_on,21,0,12,,,,,,,,15,,,52,80
149520,note_on,21,0,10,,,,,,,,13,,,76,80
149619,note_on,99,0,10,,,,,,,,13,,,76,0
149619,note_on,99,0,11,,,,,,,,14,,,64,0
149619,note_on,99,0,12,,,,,,,,15,,,52,0
149640,note_on,21,0,10,,,,,,,,13,,,72,80
149640,note_on,21,0,12,,,,,,,,15,,,48,80
149640,note_on,21,0,11,,,,,,,,14,,,60,80
149739,note_on,99,0,12,,,,,,,,15,,,48,0
149739,note_on,99,0,11,,,,,,,,14,,,60,0
149739,note_on,99,0,10,,,,,,,,13,,,72,0
149760,note_on,21,0,11,,,,,,,,14,,,59,80
149760,note_on,21,0,12,,,,,,,,15,,,47,80
149760,note_on,241,0,8,,,,,,,,11,,,71,80
149760,note_on,0,0,8,,,,,,,,11,,,79,80
149760,note_on,0,0,8,,,,,,,,11,,,62,80
149760,note_on,21,0,10,,,,,,,,13,,,71,80
149760,note_on,241,0,9,,,,,,,,12,,,79,80
149760,note_on,0,0,9,,,,,,,,12,,,62,80
149760,note_on,0,0,9,,,,,,,,12,,,71,80
149859,note_on,99,0,12,,,,,,,,15,,,47,0
149859,note_on,99,0,10,,,,,,,,13,,,71,0
149859,note_on,99,0,11,,,,,,,,14,,,59,0
149880,note_on,21,0,10,,,,,,,,13,,,72,80
149880,note_on,21,0,12,,,,,,,,15,,,48,80
149880,note_on,21,0,11,,,,,,,,14,,,60,80
149979,note_on,99,0,12,,,,,,,,15,,,48,0
149979,note_on,99,0,10,,,,,,,,13,,,72,0
149979,note_on,99,0,11,,,,,,,,14,,,60,0
149999,note_on,0,0,9,,,,,,,,12,,,62,0
149999,note_on,0,0,9,,,,,,,,12,,,79,0
149999,note_on,0,0,8,,,,,,,,11,,,71,0
149999,note_on,0,0,8,,,,,,,,11,,,79,0
149999,note_on,239,0,8,,,,,,,,11,,,62,0
149999,note_on,239,0,9,,,,,,,,12,,,71,0
150000,note_on,21,0,11,,,,,,,,14,,,62,80
150000,note_on,21,0,10,,,,,,,,13,,,74,80
150000,note_on,21,0,12,,,,,,,,15,,,50,80
150099,note_on,99,0,12,,,,,,,,15,,,50,0
150099,note_on,99,0,10,,,,,,,,13,,,74,0
150099,note_on,99,0,11,,,,,,,,14,,,62,0
150120,note_on,21,0,11,,,,,,,,14,,,59,80
150120,note_on,21,0,12,,,,,,,,15,,,47,80
150120,note_on,21,0,10,,,,,,,,13,,,71,80
150219,note_on,99,0,12,,,,,,,,15,,,47,0
150219,note_on,99,0,11,,,,,,,,14,,,59,0
150219,note_on,99,0,10,,,,,,,,13,,,71,0
150240,note_on,21,0,11,,,,,,,,14,,,57,80
150240,note_on,0,0,9,,,,,,,,12,,,62,80
150240,note_on,241,0,8,,,,,,,,11,,,84,80
150240,note_on,0,0,8,,,,,,,,11,,,62,80
150240,note_on,0,0,8,,,,,,,,11,,,74,80
150240,note_on,21,0,10,,,,,,,,13,,,69,80
150240,note_on,21,0,12,,,,,,,,15,,,45,80
150240,note_on,0,0,9,,,,,,,,12,,,69,80
150240,note_on,241,0,9,,,,,,,,12,,,78,80
150339,note_on,99,0,10,,,,,,,,13,,,69,0
150339,note_on,99,0,11,,,,,,,,14,,,57,0
150339,note_on,99,0,12,,,,,,,,15,,,45,0
150360,note_on,21,0,10,,,,,,,,13,,,71,80
150360,note_on,21,0,11,,,,,,,,14,,,59,80
150360,note_on,21,0,12,,,,,,,,15,,,47,80
150459,note_on,99,0,11,,,,,,,,14,,,59,0
150459,note_on,99,0,10,,,,,,,,13,,,71,0
150459,note_on,99,0,12,,,,,,,,15,,,47,0
150479,note_on,239,0,8,,,,,,,,11,,,74,0
150479,note_on,0,0,8,,,,,,,,11,,,62,0
150479,note_on,0,0,9,,,,,,,,12,,,69,0
150479,note_on,239,0,9,,,,,,,,12,,,62,0
150479,note_on,0,0,8,,,,,,,,11,,,84,0
150479,note_on,0,0,9,,,,,,,,12,,,78,0
150480,note_on,21,0,10,,,,,,,,13,,,72,80
150480,note_on,21,0,11,,,,,,,,14,,,60,80
150480,note_on,21,0,12,,,,,,,,15,,,48,80
150579,note_on,99,0,10,,,,,,,,13,,,72,0
150579,note_on,99,0,12,,,,,,,,15,,,48,0
150579,note_on,99,0,11,,,,,,,,14,,,60,0
150600,note_on,21,0,12,,,,,,,,15,,,45,80
150600,note_on,21,0,10,,,,,,,,13,,,69,80
150600,note_on,21,0,11,,,,,,,,14,,,57,80
150699,note_on,99,0,11,,,,,,,,14,,,57,0
150699,note_on,99,0,12,,,,,,,,15,,,45,0
150699,note_on,99,0,10,,,,,,,,13,,,69,0
150719,note_on,1919,0,6,,,,,,,,1,,,62,0
150719,note_on,1919,0,5,,,,,,,,0,,,86,0
150719,note_on,0,0,5,,,,,,,,0,,,74,0
150719,note_on,1919,0,7,,,,,,,,2,,,74,0
150720,note_on,241,0,8,,,,,,,,11,,,86,44
150720,note_on,21,0,10,,,,,,,,13,,,67,44
150720,note_on,241,0,9,,,,,,,,12,,,67,44
150720,note_on,21,0,12,,,,,,,,15,,,43,44
150720,note_on,21,0,11,,,,,,,,14,,,55,44
150759,note_on,39,0,8,,,,,,,,11,,,86,0
150760,note_on,1,0,8,,,,,,,,11,,,88,44
150799,note_on,39,0,8,,,,,,,,11,,,88,0
150800,note_on,1,0,8,,,,,,,,11,,,86,44
150819,note_on,99,0,9,,,,,,,,12,,,67,0
150839,note_on,39,0,8,,,,,,,,11,,,86,0
150840,note_on,1,0,8,,,,,,,,11,,,84,44
150840,note_on,21,0,9,,,,,,,,12,,,69,44
150899,note_on,59,0,8,,,,,,,,11,,,84,0
150900,note_on,1,0,8,,,,,,,,11,,,86,44
150939,note_on,99,0,9,,,,,,,,12,,,69,0
150959,note_on,59,0,8,,,,,,,,11,,,86,0
150960,note_on,21,0,9,,,,,,,,12,,,71,44
151059,note_on,99,0,9,,,,,,,,12,,,71,0
151080,note_on,21,0,9,,,,,,,,12,,,67,44
151179,note_on,99,0,9,,,,,,,,12,,,67,0
151199,note_on,479,0,10,,,,,,,,13,,,67,0
151199,note_on,479,0,12,,,,,,,,15,,,43,0
151199,note_on,479,0,11,,,,,,,,14,,,55,0
151200,note_on,241,0,8,,,,,,,,11,,,84,44
151200,note_on,21,0,9,,,,,,,,12,,,69,44
151239,note_on,39,0,8,,,,,,,,11,,,84,0
151240,note_on,1,0,8,,,,,,,,11,,,86,44
151279,note_on,39,0,8,,,,,,,,11,,,86,0
151280,note_on,1,0,8,,,,,,,,11,,,84,44
151299,note_on,99,0,9,,,,,,,,12,,,69,0
151319,note_on,39,0,8,,,,,,,,11,,,84,0
151320,note_on,1,0,8,,,,,,,,11,,,83,44
151320,note_on,21,0,9,,,,,,,,12,,,71,44
151379,note_on,59,0,8,,,,,,,,11,,,83,0
151380,note_on,1,0,8,,,,,,,,11,,,84,44
151419,note_on,99,0,9,,,,,,,,12,,,71,0
151439,note_on,59,0,8,,,,,,,,11,,,84,0
151440,note_on,21,0,9,,,,,,,,12,,,72,44
151539,note_on,99,0,9,,,,,,,,12,,,72,0
151560,note_on,21,0,9,,,,,,,,12,,,69,44
151659,note_on,99,0,9,,,,,,,,12,,,69,0
151680,note_on,21,0,9,,,,,,,,12,,,71,44
151680,note_on,241,0,8,,,,,,,,11,,,83,44
151719,note_on,39,0,8,,,,,,,,11,,,83,0
151720,note_on,1,0,8,,,,,,,,11,,,84,44
151759,note_on,39,0,8,,,,,,,,11,,,84,0
151760,note_on,1,0,8,,,,,,,,11,,,83,44
151779,note_on,99,0,9,,,,,,,,12,,,71,0
151799,note_on,39,0,8,,,,,,,,11,,,83,0
151800,note_on,21,0,9,,,,,,,,12,,,72,44
151800,note_on,1,0,8,,,,,,,,11,,,81,44
151859,note_on,59,0,8,,,,,,,,11,,,81,0
151860,note_on,1,0,8,,,,,,,,11,,,83,44
151899,note_on,99,0,9,,,,,,,,12,,,72,0
151919,note_on,59,0,8,,,,,,,,11,,,83,0
151920,note_on,21,0,9,,,,,,,,12,,,74,44
152019,note_on,99,0,9,,,,,,,,12,,,74,0
152040,note_on,21,0,9,,,,,,,,12,,,71,44
152139,note_on,99,0,9,,,,,,,,12,,,71,0
152160,note_on,241,0,8,,,,,,,,11,,,81,44
152160,note_on,21,0,9,,,,,,,,12,,,72,44
152199,note_on,39,0,8,,,,,,,,11,,,81,0
152200,note_on,1,0,8,,,,,,,,11,,,83,44
152239,note_on,39,0,8,,,,,,,,11,,,83,0
152240,note_on,1,0,8,,,,,,,,11,,,81,44
152259,note_on,99,0,9,,,,,,,,12,,,72,0
152279,note_on,39,0,8,,,,,,,,11,,,81,0
152280,note_on,21,0,9,,,,,,,,12,,,74,44
152280,note_on,1,0,8,,,,,,,,11,,,79,44
152339,note_on,59,0,8,,,,,,,,11,,,79,0
152340,note_on,1,0,8,,,,,,,,11,,,81,44
152379,note_on,99,0,9,,,,,,,,12,,,74,0
152399,note_on,59,0,8,,,,,,,,11,,,81,0
152400,note_on,21,0,9,,,,,,,,12,,,76,44
152499,note_on,99,0,9,,,,,,,,12,,,76,0
152520,note_on,21,0,9,,,,,,,,12,,,72,44
152619,note_on,99,0,9,,,,,,,,12,,,72,0
152640,note_on,21,0,9,,,,,,,,12,,,71,44
152640,note_on,241,0,8,,,,,,,,11,,,79,44
152679,note_on,39,0,8,,,,,,,,11,,,79,0
152680,note_on,1,0,8,,,,,,,,11,,,81,44
152719,note_on,39,0,8,,,,,,,,11,,,81,0
152720,note_on,1,0,8,,,,,,,,11,,,79,44
152739,note_on,99,0,9,,,,,,,,12,,,71,0
152759,note_on,39,0,8,,,,,,,,11,,,79,0
152760,note_on,21,0,9,,,,,,,,12,,,72,44
152760,note_on,1,0,8,,,,,,,,11,,,78,44
152819,note_on,59,0,8,,,,,,,,11,,,78,0
152820,note_on,1,0,8,,,,,,,,11,,,79,44
152859,note_on,99,0,9,,,,,,,,12,,,72,0
152879,note_on,59,0,8,,,,,,,,11,,,79,0
152880,note_on,21,0,9,,,,,,,,12,,,74,44
152979,note_on,99,0,9,,,,,,,,12,,,74,0
153000,note_on,21,0,9,,,,,,,,12,,,71,44
153099,note_on,99,0,9,,,,,,,,12,,,71,0
153120,note_on,241,0,8,,,,,,,,11,,,78,44
153120,note_on,21,0,9,,,,,,,,12,,,69,44
153159,note_on,39,0,8,,,,,,,,11,,,78,0
153160,note_on,1,0,8,,,,,,,,11,,,79,44
153199,note_on,39,0,8,,,,,,,,11,,,79,0
153200,note_on,1,0,8,,,,,,,,11,,,78,44
153219,note_on,99,0,9,,,,,,,,12,,,69,0
153239,note_on,39,0,8,,,,,,,,11,,,78,0
153240,note_on,1,0,8,,,,,,,,11,,,76,44
153240,note_on,21,0,9,,,,,,,,12,,,71,44
153299,note_on,59,0,8,,,,,,,,11,,,76,0
153300,note_on,1,0,8,,,,,,,,11,,,78,44
153339,note_on,99,0,9,,,,,,,,12,,,71,0
153359,note_on,59,0,8,,,,,,,,11,,,78,0
153360,note_on,21,0,9,,,,,,,,12,,,72,44
153459,note_on,99,0,9,,,,,,,,12,,,72,0
153480,note_on,21,0,9,,,,,,,,12,,,69,44
153579,note_on,99,0,9,,,,,,,,12,,,69,0
153600,note_on,2881,0,7,,,,,,,,2,,,67,80
153600,note_on,2881,0,5,,,,,,,,0,,,79,80
153600,note_on,21,0,9,,,,,,,,12,,,67,80
153600,note_on,241,0,8,,,,,,,,11,,,67,80
153600,note_on,2401,0,11,,,,,,,,14,,,55,80
153600,note_on,2881,0,6,,,,,,,,1,,,67,80
153600,note_on,2401,0,12,,,,,,,,15,,,43,80
153600,note_on,2401,0,10,,,,,,,,13,,,67,80
153600,note_on,0,0,6,,,,,,,,1,,,55,80
153699,note_on,99,0,8,,,,,,,,11,,,67,0
153699,note_on,99,0,9,,,,,,,,12,,,67,0
153699,note_on,99,0,11,,,,,,,,14,,,55,0
153699,note_on,99,0,12,,,,,,,,15,,,43,0
153699,note_on,99,0,10,,,,,,,,13,,,67,0
153720,note_on,21,0,11,,,,,,,,14,,,57,80
153720,note_on,21,0,8,,,,,,,,11,,,69,80
153720,note_on,21,0,9,,,,,,,,12,,,69,80
153720,note_on,21,0,10,,,,,,,,13,,,69,80
153720,note_on,21,0,12,,,,,,,,15,,,45,80
153819,note_on,99,0,8,,,,,,,,11,,,69,0
153819,note_on,99,0,10,,,,,,,,13,,,69,0
153819,note_on,99,0,11,,,,,,,,14,,,57,0
153819,note_on,99,0,12,,,,,,,,15,,,45,0
153819,note_on,99,0,9,,,,,,,,12,,,69,0
153840,note_on,21,0,8,,,,,,,,11,,,71,80
153840,note_on,21,0,11,,,,,,,,14,,,59,80
153840,note_on,21,0,10,,,,,,,,13,,,71,80
153840,note_on,21,0,9,,,,,,,,12,,,71,80
153840,note_on,21,0,12,,,,,,,,15,,,47,80
153939,note_on,99,0,8,,,,,,,,11,,,71,0
153939,note_on,99,0,10,,,,,,,,13,,,71,0
153939,note_on,99,0,12,,,,,,,,15,,,47,0
153939,note_on,99,0,9,,,,,,,,12,,,71,0
153939,note_on,99,0,11,,,,,,,,14,,,59,0
153960,note_on,21,0,9,,,,,,,,12,,,67,80
153960,note_on,21,0,11,,,,,,,,14,,,55,80
153960,note_on,21,0,12,,,,,,,,15,,,43,80
153960,note_on,21,0,8,,,,,,,,11,,,67,80
153960,note_on,21,0,10,,,,,,,,13,,,67,80
154059,note_on,99,0,11,,,,,,,,14,,,55,0
154059,note_on,459,0,5,,,,,,,,0,,,79,0
154059,note_on,0,0,6,,,,,,,,1,,,67,0
154059,note_on,99,0,12,,,,,,,,15,,,43,0
154059,note_on,459,0,6,,,,,,,,1,,,55,0
154059,note_on,459,0,7,,,,,,,,2,,,67,0
154059,note_on,99,0,9,,,,,,,,12,,,67,0
154059,note_on,99,0,8,,,,,,,,11,,,67,0
154059,note_on,99,0,10,,,,,,,,13,,,67,0
154080,note_on,21,0,5,,,,,,,,0,,,74,80
154080,note_on,21,0,12,,,,,,,,15,,,38,80
154080,note_on,21,0,7,,,,,,,,2,,,74,80
154080,note_on,21,0,10,,,,,,,,13,,,62,80
154080,note_on,21,0,6,,,,,,,,1,,,62,80
154080,note_on,21,0,9,,,,,,,,12,,,62,80
154080,note_on,21,0,8,,,,,,,,11,,,62,80
154080,note_on,21,0,11,,,,,,,,14,,,50,80
154179,note_on,99,0,9,,,,,,,,12,,,62,0
154179,note_on,99,0,12,,,,,,,,15,,,38,0
154179,note_on,99,0,11,,,,,,,,14,,,50,0
154179,note_on,99,0,8,,,,,,,,11,,,62,0
154179,note_on,99,0,10,,,,,,,,13,,,62,0
154200,note_on,21,0,10,,,,,,,,13,,,64,80
154200,note_on,21,0,9,,,,,,,,12,,,64,80
154200,note_on,21,0,12,,,,,,,,15,,,40,80
154200,note_on,21,0,8,,,,,,,,11,,,64,80
154200,note_on,21,0,11,,,,,,,,14,,,52,80
154299,note_on,99,0,10,,,,,,,,13,,,64,0
154299,note_on,99,0,9,,,,,,,,12,,,64,0
154299,note_on,99,0,8,,,,,,,,11,,,64,0
154299,note_on,99,0,12,,,,,,,,15,,,40,0
154299,note_on,99,0,11,,,,,,,,14,,,52,0
154320,note_on,21,0,11,,,,,,,,14,,,54,80
154320,note_on,21,0,8,,,,,,,,11,,,66,80
154320,note_on,21,0,12,,,,,,,,15,,,42,80
154320,note_on,21,0,10,,,,,,,,13,,,66,80
154320,note_on,21,0,9,,,,,,,,12,,,66,80
154419,note_on,99,0,12,,,,,,,,15,,,42,0
154419,note_on,99,0,8,,,,,,,,11,,,66,0
154419,note_on,99,0,9,,,,,,,,12,,,66,0
154419,note_on,99,0,10,,,,,,,,13,,,66,0
154419,note_on,99,0,11,,,,,,,,14,,,54,0
154440,note_on,21,0,11,,,,,,,,14,,,50,80
154440,note_on,21,0,9,,,,,,,,12,,,62,80
154440,note_on,21,0,12,,,,,,,,15,,,38,80
154440,note_on,21,0,10,,,,,,,,13,,,62,80
154440,note_on,21,0,8,,,,,,,,11,,,62,80
154539,note_on,99,0,10,,,,,,,,13,,,62,0
154539,note_on,99,0,12,,,,,,,,15,,,38,0
154539,note_on,459,0,7,,,,,,,,2,,,74,0
154539,note_on,459,0,5,,,,,,,,0,,,74,0
154539,note_on,459,0,6,,,,,,,,1,,,62,0
154539,note_on,99,0,11,,,,,,,,14,,,50,0
154539,note_on,99,0,8,,,,,,,,11,,,62,0
154539,note_on,99,0,9,,,,,,,,12,,,62,0
154560,note_on,21,0,8,,,,,,,,11,,,67,80
154560,note_on,21,0,5,,,,,,,,0,,,79,80
154560,note_on,21,0,7,,,,,,,,2,,,67,80
154560,note_on,21,0,11,,,,,,,,14,,,55,80
154560,note_on,21,0,12,,,,,,,,15,,,43,80
154560,note_on,21,0,10,,,,,,,,13,,,67,80
154560,note_on,0,0,6,,,,,,,,1,,,55,80
154560,note_on,21,0,6,,,,,,,,1,,,67,80
154560,note_on,21,0,9,,,,,,,,12,,,67,80
154659,note_on,99,0,9,,,,,,,,12,,,67,0
154659,note_on,99,0,11,,,,,,,,14,,,55,0
154659,note_on,99,0,8,,,,,,,,11,,,67,0
154659,note_on,99,0,10,,,,,,,,13,,,67,0
154659,note_on,99,0,12,,,,,,,,15,,,43,0
154680,note_on,21,0,8,,,,,,,,11,,,69,80
154680,note_on,21,0,9,,,,,,,,12,,,69,80
154680,note_on,21,0,10,,,,,,,,13,,,69,80
154680,note_on,21,0,12,,,,,,,,15,,,45,80
154680,note_on,21,0,11,,,,,,,,14,,,57,80
154779,note_on,99,0,12,,,,,,,,15,,,45,0
154779,note_on,99,0,10,,,,,,,,13,,,69,0
154779,note_on,99,0,11,,,,,,,,14,,,57,0
154779,note_on,99,0,9,,,,,,,,12,,,69,0
154779,note_on,99,0,8,,,,,,,,11,,,69,0
154800,note_on,21,0,10,,,,,,,,13,,,71,80
154800,note_on,21,0,8,,,,,,,,11,,,71,80
154800,note_on,21,0,11,,,,,,,,14,,,59,80
154800,note_on,21,0,9,,,,,,,,12,,,71,80
154800,note_on,21,0,12,,,,,,,,15,,,47,80
154899,note_on,99,0,9,,,,,,,,12,,,71,0
154899,note_on,99,0,11,,,,,,,,14,,,59,0
154899,note_on,99,0,8,,,,,,,,11,,,71,0
154899,note_on,99,0,12,,,,,,,,15,,,47,0
154899,note_on,99,0,10,,,,,,,,13,,,71,0
154920,note_on,21,0,9,,,,,,,,12,,,67,80
154920,note_on,21,0,11,,,,,,,,14,,,55,80
154920,note_on,21,0,12,,,,,,,,15,,,43,80
154920,note_on,21,0,10,,,,,,,,13,,,67,80
154920,note_on,21,0,8,,,,,,,,11,,,67,80
155019,note_on,0,0,6,,,,,,,,1,,,67,0
155019,note_on,99,0,9,,,,,,,,12,,,67,0
155019,note_on,99,0,10,,,,,,,,13,,,67,0
155019,note_on,459,0,6,,,,,,,,1,,,55,0
155019,note_on,459,0,5,,,,,,,,0,,,79,0
155019,note_on,99,0,8,,,,,,,,11,,,67,0
155019,note_on,99,0,11,,,,,,,,14,,,55,0
155019,note_on,99,0,12,,,,,,,,15,,,43,0
155019,note_on,459,0,7,,,,,,,,2,,,67,0
155040,note_on,21,0,11,,,,,,,,14,,,50,80
155040,note_on,21,0,9,,,,,,,,12,,,62,80
155040,note_on,21,0,8,,,,,,,,11,,,62,80
155040,note_on,21,0,10,,,,,,,,13,,,62,80
155040,note_on,21,0,5,,,,,,,,0,,,74,80
155040,note_on,21,0,6,,,,,,,,1,,,62,80
155040,note_on,21,0,7,,,,,,,,2,,,74,80
155040,note_on,21,0,12,,,,,,,,15,,,38,80
155139,note_on,99,0,10,,,,,,,,13,,,62,0
155139,note_on,99,0,11,,,,,,,,14,,,50,0
155139,note_on,99,0,8,,,,,,,,11,,,62,0
155139,note_on,99,0,9,,,,,,,,12,,,62,0
155139,note_on,99,0,12,,,,,,,,15,,,38,0
155160,note_on,21,0,12,,,,,,,,15,,,40,80
155160,note_on,21,0,11,,,,,,,,14,,,52,80
155160,note_on,21,0,9,,,,,,,,12,,,64,80
155160,note_on,21,0,8,,,,,,,,11,,,64,80
155160,note_on,21,0,10,,,,,,,,13,,,64,80
155259,note_on,99,0,11,,,,,,,,14,,,52,0
155259,note_on,99,0,9,,,,,,,,12,,,64,0
155259,note_on,99,0,10,,,,,,,,13,,,64,0
155259,note_on,99,0,8,,,,,,,,11,,,64,0
155259,note_on,99,0,12,,,,,,,,15,,,40,0
155280,note_on,21,0,10,,,,,,,,13,,,66,80
155280,note_on,21,0,8,,,,,,,,11,,,66,80
155280,note_on,21,0,11,,,,,,,,14,,,54,80
155280,note_on,21,0,9,,,,,,,,12,,,66,80
155280,note_on,21,0,12,,,,,,,,15,,,42,80
155379,note_on,99,0,11,,,,,,,,14,,,54,0
155379,note_on,99,0,8,,,,,,,,11,,,66,0
155379,note_on,99,0,12,,,,,,,,15,,,42,0
155379,note_on,99,0,10,,,,,,,,13,,,66,0
155379,note_on,99,0,9,,,,,,,,12,,,66,0
155400,note_on,21,0,12,,,,,,,,15,,,38,80
155400,note_on,21,0,10,,,,,,,,13,,,62,80
155400,note_on,21,0,11,,,,,,,,14,,,50,80
155400,note_on,21,0,8,,,,,,,,11,,,62,80
155400,note_on,21,0,9,,,,,,,,12,,,62,80
155499,note_on,99,0,9,,,,,,,,12,,,62,0
155499,note_on,459,0,5,,,,,,,,0,,,74,0
155499,note_on,99,0,12,,,,,,,,15,,,38,0
155499,note_on,99,0,10,,,,,,,,13,,,62,0
155499,note_on,459,0,6,,,,,,,,1,,,62,0
155499,note_on,459,0,7,,,,,,,,2,,,74,0
155499,note_on,99,0,8,,,,,,,,11,,,62,0
155499,note_on,99,0,11,,,,,,,,14,,,50,0
155520,note_on,21,0,12,,,,,,,,15,,,43,80
155520,note_on,0,0,5,,,,,,,,0,,,71,80
155520,note_on,21,0,5,,,,,,,,0,,,79,80
155520,note_on,21,0,7,,,,,,,,2,,,67,80
155520,note_on,21,0,6,,,,,,,,1,,,67,80
155520,note_on,0,0,6,,,,,,,,1,,,55,80
155520,note_on,21,0,11,,,,,,,,14,,,55,80
155520,note_on,21,0,9,,,,,,,,12,,,67,80
155520,note_on,21,0,8,,,,,,,,11,,,67,80
155520,note_on,21,0,10,,,,,,,,13,,,67,80
155619,note_on,99,0,9,,,,,,,,12,,,67,0
155619,note_on,99,0,8,,,,,,,,11,,,67,0
155640,note_on,21,0,9,,,,,,,,12,,,62,80
155640,note_on,21,0,8,,,,,,,,11,,,71,80
155739,note_on,99,0,9,,,,,,,,12,,,62,0
155739,note_on,99,0,8,,,,,,,,11,,,71,0
155760,note_on,21,0,8,,,,,,,,11,,,74,80
155760,note_on,21,0,9,,,,,,,,12,,,67,80
155859,note_on,99,0,8,,,,,,,,11,,,74,0
155859,note_on,99,0,9,,,,,,,,12,,,67,0
155880,note_on,21,0,9,,,,,,,,12,,,71,80
155880,note_on,21,0,8,,,,,,,,11,,,79,80
155979,note_on,459,0,6,,,,,,,,1,,,55,0
155979,note_on,0,0,6,,,,,,,,1,,,67,0
155979,note_on,459,0,11,,,,,,,,14,,,55,0
155979,note_on,459,0,10,,,,,,,,13,,,67,0
155979,note_on,99,0,9,,,,,,,,12,,,71,0
155979,note_on,459,0,12,,,,,,,,15,,,43,0
155979,note_on,99,0,8,,,,,,,,11,,,79,0
155979,note_on,459,0,5,,,,,,,,0,,,71,0
155999,note_on,479,0,7,,,,,,,,2,,,67,0
156000,note_on,21,0,9,,,,,,,,12,,,74,80
156000,note_on,21,0,12,,,,,,,,15,,,47,80
156000,note_on,21,0,5,,,,,,,,0,,,77,80
156000,note_on,0,0,6,,,,,,,,1,,,62,80
156000,note_on,21,0,11,,,,,,,,14,,,59,80
156000,note_on,21,0,6,,,,,,,,1,,,65,80
156000,note_on,21,0,8,,,,,,,,11,,,77,80
156000,note_on,21,0,10,,,,,,,,13,,,71,80
156219,note_on,219,0,10,,,,,,,,13,,,71,0
156219,note_on,219,0,11,,,,,,,,14,,,59,0
156219,note_on,219,0,5,,,,,,,,0,,,77,0
156219,note_on,219,0,12,,,,,,,,15,,,47,0
156219,note_on,219,0,8,,,,,,,,11,,,77,0
156219,note_on,219,0,6,,,,,,,,1,,,62,0
156219,note_on,0,0,6,,,,,,,,1,,,65,0
156219,note_on,219,0,9,,,,,,,,12,,,74,0
156240,note_on,21,0,11,,,,,,,,14,,,60,80
156240,note_on,21,0,5,,,,,,,,0,,,76,80
156240,note_on,21,0,12,,,,,,,,15,,,48,80
156240,note_on,21,0,8,,,,,,,,11,,,76,80
156240,note_on,21,0,9,,,,,,,,12,,,72,80
156240,note_on,21,0,10,,,,,,,,13,,,72,80
156240,note_on,0,0,6,,,,,,,,1,,,60,80
156240,note_on,21,0,6,,,,,,,,1,,,64,80
156459,note_on,219,0,12,,,,,,,,15,,,48,0
156459,note_on,219,0,11,,,,,,,,14,,,60,0
156459,note_on,219,0,6,,,,,,,,1,,,60,0
156459,note_on,219,0,9,,,,,,,,12,,,72,0
156459,note_on,219,0,8,,,,,,,,11,,,76,0
156459,note_on,219,0,5,,,,,,,,0,,,76,0
156459,note_on,219,0,10,,,,,,,,13,,,72,0
156459,note_on,0,0,6,,,,,,,,1,,,64,0
156480,note_on,21,0,11,,,,,,,,14,,,53,80
156480,note_on,21,0,9,,,,,,,,12,,,71,80
156480,note_on,21,0,5,,,,,,,,0,,,71,80
156480,note_on,21,0,12,,,,,,,,15,,,41,80
156480,note_on,21,0,6,,,,,,,,1,,,62,80
156480,note_on,21,0,10,,,,,,,,13,,,65,80
156480,note_on,0,0,6,,,,,,,,1,,,55,80
156480,note_on,21,0,8,,,,,,,,11,,,74,80
156699,note_on,219,0,12,,,,,,,,15,,,41,0
156699,note_on,219,0,5,,,,,,,,0,,,71,0
156699,note_on,219,0,10,,,,,,,,13,,,65,0
156699,note_on,219,0,8,,,,,,,,11,,,74,0
156699,note_on,219,0,11,,,,,,,,14,,,53,0
156699,note_on,0,0,6,,,,,,,,1,,,62,0
156699,note_on,219,0,6,,,,,,,,1,,,55,0
156699,note_on,219,0,9,,,,,,,,12,,,71,0
156720,note_on,21,0,12,,,,,,,,15,,,40,80
156720,note_on,21,0,8,,,,,,,,11,,,72,80
156720,note_on,21,0,10,,,,,,,,13,,,64,80
156720,note_on,21,0,5,,,,,,,,0,,,72,80
156720,note_on,21,0,9,,,,,,,,12,,,72,80
156720,note_on,21,0,11,,,,,,,,14,,,52,80
156720,note_on,0,0,6,,,,,,,,1,,,64,80
156720,note_on,21,0,6,,,,,,,,1,,,60,80
156939,note_on,0,0,5,,,,,,,,0,,,79,0
156939,note_on,219,0,11,,,,,,,,14,,,52,0
156939,note_on,219,0,8,,,,,,,,11,,,72,0
156939,note_on,219,0,5,,,,,,,,0,,,72,0
156939,note_on,219,0,10,,,,,,,,13,,,64,0
156939,note_on,0,0,6,,,,,,,,1,,,60,0
156939,note_on,219,0,6,,,,,,,,1,,,64,0
156939,note_on,219,0,12,,,,,,,,15,,,40,0
156939,note_on,219,0,9,,,,,,,,12,,,72,0
156960,note_on,0,0,6,,,,,,,,1,,,65,80
156960,note_on,21,0,8,,,,,,,,11,,,76,80
156960,note_on,21,0,10,,,,,,,,13,,,65,80
156960,note_on,0,0,5,,,,,,,,0,,,69,80
156960,note_on,21,0,12,,,,,,,,15,,,41,80
156960,note_on,21,0,6,,,,,,,,1,,,62,80
156960,note_on,21,0,5,,,,,,,,0,,,79,80
156960,note_on,21,0,9,,,,,,,,12,,,69,80
156960,note_on,21,0,11,,,,,,,,14,,,53,80
157019,note_on,59,0,5,,,,,,,,0,,,79,0
157019,note_on,59,0,8,,,,,,,,11,,,76,0
157020,note_on,1,0,8,,,,,,,,11,,,74,80
157020,note_on,1,0,5,,,,,,,,0,,,77,80
157079,note_on,119,0,9,,,,,,,,12,,,69,0
157079,note_on,59,0,5,,,,,,,,0,,,69,0
157080,note_on,1,0,9,,,,,,,,12,,,65,80
157080,note_on,1,0,5,,,,,,,,0,,,74,80
157179,note_on,219,0,11,,,,,,,,14,,,53,0
157179,note_on,219,0,10,,,,,,,,13,,,65,0
157179,note_on,159,0,8,,,,,,,,11,,,74,0
157179,note_on,99,0,9,,,,,,,,12,,,65,0
157179,note_on,219,0,12,,,,,,,,15,,,41,0
157179,note_on,0,0,6,,,,,,,,1,,,62,0
157179,note_on,99,0,5,,,,,,,,0,,,74,0
157179,note_on,0,0,5,,,,,,,,0,,,77,0
157179,note_on,219,0,6,,,,,,,,1,,,65,0
157200,note_on,0,0,5,,,,,,,,0,,,76,80
157200,note_on,21,0,10,,,,,,,,13,,,67,80
157200,note_on,21,0,5,,,,,,,,0,,,72,80
157200,note_on,21,0,8,,,,,,,,11,,,72,80
157200,note_on,21,0,11,,,,,,,,14,,,55,80
157200,note_on,21,0,9,,,,,,,,12,,,64,80
157200,note_on,0,0,6,,,,,,,,1,,,60,80
157200,note_on,21,0,6,,,,,,,,1,,,64,80
157200,note_on,21,0,12,,,,,,,,15,,,43,80
157299,note_on,99,0,5,,,,,,,,0,,,76,0
157299,note_on,99,0,9,,,,,,,,12,,,64,0
157299,note_on,0,0,5,,,,,,,,0,,,72,0
157299,note_on,99,0,8,,,,,,,,11,,,72,0
157299,note_on,99,0,6,,,,,,,,1,,,60,0
157299,note_on,0,0,6,,,,,,,,1,,,64,0
157320,note_on,21,0,5,,,,,,,,0,,,71,80
157320,note_on,21,0,8,,,,,,,,11,,,71,80
157320,note_on,21,0,9,,,,,,,,12,,,62,80
157320,note_on,21,0,6,,,,,,,,1,,,55,80
157320,note_on,0,0,5,,,,,,,,0,,,74,80
157320,note_on,0,0,6,,,,,,,,1,,,62,80
157419,note_on,99,0,8,,,,,,,,11,,,71,0
157419,note_on,219,0,10,,,,,,,,13,,,67,0
157419,note_on,99,0,5,,,,,,,,0,,,74,0
157419,note_on,0,0,5,,,,,,,,0,,,71,0
157419,note_on,0,0,6,,,,,,,,1,,,55,0
157419,note_on,99,0,6,,,,,,,,1,,,62,0
157419,note_on,219,0,11,,,,,,,,14,,,55,0
157419,note_on,99,0,9,,,,,,,,12,,,62,0
157419,note_on,219,0,12,,,,,,,,15,,,43,0
157440,note_on,21,0,9,,,,,,,,12,,,60,80
157440,note_on,21,0,5,,,,,,,,0,,,84,80
157440,note_on,21,0,11,,,,,,,,14,,,60,80
157440,note_on,0,0,5,,,,,,,,0,,,72,80
157440,note_on,1441,0,7,,,,,,,,2,,,72,80
157440,note_on,21,0,12,,,,,,,,15,,,48,80
157440,note_on,0,0,7,,,,,,,,2,,,60,80
157440,note_on,21,0,6,,,,,,,,1,,,60,80
157440,note_on,0,0,6,,,,,,,,1,,,48,80
157440,note_on,21,0,10,,,,,,,,13,,,72,80
157440,note_on,21,0,8,,,,,,,,11,,,72,80
157539,note_on,99,0,9,,,,,,,,12,,,60,0
157539,note_on,99,0,12,,,,,,,,15,,,48,0
157539,note_on,99,0,10,,,,,,,,13,,,72,0
157539,note_on,99,0,8,,,,,,,,11,,,72,0
157539,note_on,99,0,11,,,,,,,,14,,,60,0
157560,note_on,21,0,11,,,,,,,,14,,,62,80
157560,note_on,21,0,10,,,,,,,,13,,,74,80
157560,note_on,21,0,9,,,,,,,,12,,,62,80
157560,note_on,21,0,12,,,,,,,,15,,,50,80
157560,note_on,21,0,8,,,,,,,,11,,,74,80
157659,note_on,99,0,12,,,,,,,,15,,,50,0
157659,note_on,99,0,11,,,,,,,,14,,,62,0
157659,note_on,99,0,10,,,,,,,,13,,,74,0
157659,note_on,99,0,9,,,,,,,,12,,,62,0
157659,note_on,99,0,8,,,,,,,,11,,,74,0
157680,note_on,21,0,12,,,,,,,,15,,,52,80
157680,note_on,21,0,10,,,,,,,,13,,,76,80
157680,note_on,21,0,11,,,,,,,,14,,,64,80
157680,note_on,21,0,8,,,,,,,,11,,,76,80
157680,note_on,21,0,9,,,,,,,,12,,,64,80
157779,note_on,99,0,8,,,,,,,,11,,,76,0
157779,note_on,99,0,12,,,,,,,,15,,,52,0
157779,note_on,99,0,10,,,,,,,,13,,,76,0
157779,note_on,99,0,11,,,,,,,,14,,,64,0
157779,note_on,99,0,9,,,,,,,,12,,,64,0
157800,note_on,21,0,9,,,,,,,,12,,,60,80
157800,note_on,21,0,12,,,,,,,,15,,,48,80
157800,note_on,21,0,8,,,,,,,,11,,,72,80
157800,note_on,21,0,10,,,,,,,,13,,,72,80
157800,note_on,21,0,11,,,,,,,,14,,,60,80
157899,note_on,99,0,12,,,,,,,,15,,,48,0
157899,note_on,459,0,6,,,,,,,,1,,,48,0
157899,note_on,0,0,7,,,,,,,,2,,,72,0
157899,note_on,0,0,5,,,,,,,,0,,,84,0
157899,note_on,99,0,10,,,,,,,,13,,,72,0
157899,note_on,459,0,5,,,,,,,,0,,,72,0
157899,note_on,99,0,9,,,,,,,,12,,,60,0
157899,note_on,0,0,6,,,,,,,,1,,,60,0
157899,note_on,459,0,7,,,,,,,,2,,,60,0
157899,note_on,99,0,11,,,,,,,,14,,,60,0
157899,note_on,99,0,8,,,,,,,,11,,,72,0
157920,note_on,21,0,8,,,,,,,,11,,,67,80
157920,note_on,21,0,11,,,,,,,,14,,,55,80
157920,note_on,21,0,5,,,,,,,,0,,,67,80
157920,note_on,0,0,5,,,,,,,,0,,,79,80
157920,note_on,0,0,6,,,,,,,,1,,,43,80
157920,note_on,21,0,6,,,,,,,,1,,,55,80
157920,note_on,21,0,12,,,,,,,,15,,,43,80
157920,note_on,21,0,10,,,,,,,,13,,,67,80
157920,note_on,21,0,9,,,,,,,,12,,,55,80
157920,note_on,21,0,7,,,,,,,,2,,,55,80
157920,note_on,0,0,7,,,,,,,,2,,,67,80
158019,note_on,99,0,12,,,,,,,,15,,,43,0
158019,note_on,99,0,9,,,,,,,,12,,,55,0
158019,note_on,99,0,8,,,,,,,,11,,,67,0
158019,note_on,99,0,11,,,,,,,,14,,,55,0
158019,note_on,99,0,10,,,,,,,,13,,,67,0
158040,note_on,21,0,9,,,,,,,,12,,,57,80
158040,note_on,21,0,12,,,,,,,,15,,,45,80
158040,note_on,21,0,10,,,,,,,,13,,,69,80
158040,note_on,21,0,8,,,,,,,,11,,,69,80
158040,note_on,21,0,11,,,,,,,,14,,,57,80
158139,note_on,99,0,12,,,,,,,,15,,,45,0
158139,note_on,99,0,10,,,,,,,,13,,,69,0
158139,note_on,99,0,11,,,,,,,,14,,,57,0
158139,note_on,99,0,9,,,,,,,,12,,,57,0
158139,note_on,99,0,8,,,,,,,,11,,,69,0
158160,note_on,21,0,12,,,,,,,,15,,,47,80
158160,note_on,21,0,8,,,,,,,,11,,,71,80
158160,note_on,21,0,11,,,,,,,,14,,,59,80
158160,note_on,21,0,10,,,,,,,,13,,,71,80
158160,note_on,21,0,9,,,,,,,,12,,,59,80
158259,note_on,99,0,11,,,,,,,,14,,,59,0
158259,note_on,99,0,8,,,,,,,,11,,,71,0
158259,note_on,99,0,9,,,,,,,,12,,,59,0
158259,note_on,99,0,12,,,,,,,,15,,,47,0
158259,note_on,99,0,10,,,,,,,,13,,,71,0
158280,note_on,21,0,9,,,,,,,,12,,,55,80
158280,note_on,21,0,11,,,,,,,,14,,,55,80
158280,note_on,21,0,10,,,,,,,,13,,,67,80
158280,note_on,21,0,8,,,,,,,,11,,,67,80
158280,note_on,21,0,12,,,,,,,,15,,,43,80
158379,note_on,99,0,9,,,,,,,,12,,,55,0
158379,note_on,0,0,5,,,,,,,,0,,,67,0
158379,note_on,459,0,5,,,,,,,,0,,,79,0
158379,note_on,459,0,6,,,,,,,,1,,,43,0
158379,note_on,0,0,6,,,,,,,,1,,,55,0
158379,note_on,99,0,8,,,,,,,,11,,,67,0
158379,note_on,99,0,11,,,,,,,,14,,,55,0
158379,note_on,99,0,12,,,,,,,,15,,,43,0
158379,note_on,459,0,7,,,,,,,,2,,,67,0
158379,note_on,99,0,10,,,,,,,,13,,,67,0
158379,note_on,0,0,7,,,,,,,,2,,,55,0
158400,note_on,21,0,12,,,,,,,,15,,,48,80
158400,note_on,21,0,9,,,,,,,,12,,,60,80
158400,note_on,21,0,8,,,,,,,,11,,,72,80
158400,note_on,21,0,5,,,,,,,,0,,,72,80
158400,note_on,0,0,6,,,,,,,,1,,,48,80
158400,note_on,21,0,6,,,,,,,,1,,,60,80
158400,note_on,0,0,5,,,,,,,,0,,,84,80
158400,note_on,21,0,10,,,,,,,,13,,,72,80
158400,note_on,21,0,7,,,,,,,,2,,,72,80
158400,note_on,0,0,7,,,,,,,,2,,,60,80
158400,note_on,21,0,11,,,,,,,,14,,,60,80
158499,note_on,99,0,10,,,,,,,,13,,,72,0
158499,note_on,99,0,8,,,,,,,,11,,,72,0
158499,note_on,99,0,11,,,,,,,,14,,,60,0
158499,note_on,99,0,12,,,,,,,,15,,,48,0
158499,note_on,99,0,9,,,,,,,,12,,,60,0
158520,note_on,21,0,8,,,,,,,,11,,,74,80
158520,note_on,21,0,10,,,,,,,,13,,,74,80
158520,note_on,21,0,11,,,,,,,,14,,,62,80
158520,note_on,21,0,12,,,,,,,,15,,,50,80
158520,note_on,21,0,9,,,,,,,,12,,,62,80
158619,note_on,99,0,11,,,,,,,,14,,,62,0
158619,note_on,99,0,12,,,,,,,,15,,,50,0
158619,note_on,99,0,8,,,,,,,,11,,,74,0
158619,note_on,99,0,9,,,,,,,,12,,,62,0
158619,note_on,99,0,10,,,,,,,,13,,,74,0
158640,note_on,21,0,12,,,,,,,,15,,,52,80
158640,note_on,21,0,9,,,,,,,,12,,,64,80
158640,note_on,21,0,8,,,,,,,,11,,,76,80
158640,note_on,21,0,11,,,,,,,,14,,,64,80
158640,note_on,21,0,10,,,,,,,,13,,,76,80
158739,note_on,99,0,10,,,,,,,,13,,,76,0
158739,note_on,99,0,8,,,,,,,,11,,,76,0
158739,note_on,99,0,9,,,,,,,,12,,,64,0
158739,note_on,99,0,12,,,,,,,,15,,,52,0
158739,note_on,99,0,11,,,,,,,,14,,,64,0
158760,note_on,21,0,10,,,,,,,,13,,,72,80
158760,note_on,21,0,9,,,,,,,,12,,,60,80
158760,note_on,21,0,11,,,,,,,,14,,,60,80
158760,note_on,21,0,8,,,,,,,,11,,,72,80
158760,note_on,21,0,12,,,,,,,,15,,,48,80
158859,note_on,99,0,12,,,,,,,,15,,,48,0
158859,note_on,99,0,11,,,,,,,,14,,,60,0
158859,note_on,459,0,6,,,,,,,,1,,,48,0
158859,note_on,0,0,6,,,,,,,,1,,,60,0
158859,note_on,0,0,7,,,,,,,,2,,,72,0
158859,note_on,459,0,7,,,,,,,,2,,,60,0
158859,note_on,99,0,9,,,,,,,,12,,,60,0
158859,note_on,0,0,5,,,,,,,,0,,,72,0
158859,note_on,99,0,8,,,,,,,,11,,,72,0
158859,note_on,459,0,5,,,,,,,,0,,,84,0
158859,note_on,99,0,10,,,,,,,,13,,,72,0
158880,note_on,0,0,7,,,,,,,,2,,,67,80
158880,note_on,21,0,7,,,,,,,,2,,,55,80
158880,note_on,21,0,10,,,,,,,,13,,,67,80
158880,note_on,21,0,11,,,,,,,,14,,,55,80
158880,note_on,21,0,12,,,,,,,,15,,,43,80
158880,note_on,21,0,8,,,,,,,,11,,,67,80
158880,note_on,21,0,9,,,,,,,,12,,,55,80
158880,note_on,0,0,6,,,,,,,,1,,,43,80
158880,note_on,21,0,6,,,,,,,,1,,,55,80
158880,note_on,0,0,5,,,,,,,,0,,,67,80
158880,note_on,21,0,5,,,,,,,,0,,,79,80
158979,note_on,99,0,10,,,,,,,,13,,,67,0
158979,note_on,99,0,11,,,,,,,,14,,,55,0
158979,note_on,99,0,9,,,,,,,,12,,,55,0
158979,note_on,99,0,8,,,,,,,,11,,,67,0
158979,note_on,99,0,12,,,,,,,,15,,,43,0
159000,note_on,21,0,10,,,,,,,,13,,,69,80
159000,note_on,21,0,9,,,,,,,,12,,,57,80
159000,note_on,21,0,8,,,,,,,,11,,,69,80
159000,note_on,21,0,12,,,,,,,,15,,,45,80
159000,note_on,21,0,11,,,,,,,,14,,,57,80
159099,note_on,99,0,11,,,,,,,,14,,,57,0
159099,note_on,99,0,8,,,,,,,,11,,,69,0
159099,note_on,99,0,12,,,,,,,,15,,,45,0
159099,note_on,99,0,10,,,,,,,,13,,,69,0
159099,note_on,99,0,9,,,,,,,,12,,,57,0
159120,note_on,21,0,9,,,,,,,,12,,,59,80
159120,note_on,21,0,11,,,,,,,,14,,,59,80
159120,note_on,21,0,10,,,,,,,,13,,,71,80
159120,note_on,21,0,12,,,,,,,,15,,,47,80
159120,note_on,21,0,8,,,,,,,,11,,,71,80
159219,note_on,99,0,10,,,,,,,,13,,,71,0
159219,note_on,99,0,9,,,,,,,,12,,,59,0
159219,note_on,99,0,12,,,,,,,,15,,,47,0
159219,note_on,99,0,8,,,,,,,,11,,,71,0
159219,note_on,99,0,11,,,,,,,,14,,,59,0
159240,note_on,21,0,8,,,,,,,,11,,,67,80
159240,note_on,21,0,11,,,,,,,,14,,,55,80
159240,note_on,21,0,10,,,,,,,,13,,,67,80
159240,note_on,21,0,12,,,,,,,,15,,,43,80
159240,note_on,21,0,9,,,,,,,,12,,,55,80
159339,note_on,99,0,11,,,,,,,,14,,,55,0
159339,note_on,0,0,7,,,,,,,,2,,,55,0
159339,note_on,0,0,6,,,,,,,,1,,,55,0
159339,note_on,459,0,6,,,,,,,,1,,,43,0
159339,note_on,459,0,7,,,,,,,,2,,,67,0
159339,note_on,0,0,5,,,,,,,,0,,,79,0
159339,note_on,459,0,5,,,,,,,,0,,,67,0
159339,note_on,99,0,8,,,,,,,,11,,,67,0
159339,note_on,99,0,12,,,,,,,,15,,,43,0
159339,note_on,99,0,10,,,,,,,,13,,,67,0
159339,note_on,99,0,9,,,,,,,,12,,,55,0
159360,note_on,21,0,8,,,,,,,,11,,,72,80
159360,note_on,21,0,5,,,,,,,,0,,,72,80
159360,note_on,21,0,12,,,,,,,,15,,,48,80
159360,note_on,0,0,6,,,,,,,,1,,,48,80
159360,note_on,0,0,7,,,,,,,,2,,,72,80
159360,note_on,21,0,7,,,,,,,,2,,,60,80
159360,note_on,0,0,5,,,,,,,,0,,,84,80
159360,note_on,21,0,10,,,,,,,,13,,,72,80
159360,note_on,21,0,6,,,,,,,,1,,,60,80
159360,note_on,21,0,11,,,,,,,,14,,,60,80
159360,note_on,21,0,9,,,,,,,,12,,,60,80
159459,note_on,99,0,8,,,,,,,,11,,,72,0
159459,note_on,99,0,9,,,,,,,,12,,,60,0
159480,note_on,21,0,8,,,,,,,,11,,,76,80
159480,note_on,21,0,9,,,,,,,,12,,,67,80
159579,note_on,99,0,9,,,,,,,,12,,,67,0
159579,note_on,99,0,8,,,,,,,,11,,,76,0
159600,note_on,21,0,8,,,,,,,,11,,,79,80
159600,note_on,21,0,9,,,,,,,,12,,,72,80
159699,note_on,99,0,9,,,,,,,,12,,,72,0
159699,note_on,99,0,8,,,,,,,,11,,,79,0
159720,note_on,21,0,8,,,,,,,,11,,,84,80
159720,note_on,21,0,9,,,,,,,,12,,,76,80
159819,note_on,459,0,12,,,,,,,,15,,,48,0
159819,note_on,459,0,5,,,,,,,,0,,,72,0
159819,note_on,99,0,8,,,,,,,,11,,,84,0
159819,note_on,459,0,10,,,,,,,,13,,,72,0
159819,note_on,99,0,9,,,,,,,,12,,,76,0
159819,note_on,459,0,11,,,,,,,,14,,,60,0
159839,note_on,0,0,7,,,,,,,,2,,,60,0
159839,note_on,479,0,7,,,,,,,,2,,,72,0
159840,note_on,21,0,8,,,,,,,,11,,,82,80
159840,note_on,21,0,10,,,,,,,,13,,,76,80
159840,note_on,21,0,9,,,,,,,,12,,,79,80
159840,note_on,21,0,11,,,,,,,,14,,,64,80
159840,note_on,21,0,5,,,,,,,,0,,,82,80
159840,note_on,21,0,12,,,,,,,,15,,,52,80
160059,note_on,219,0,10,,,,,,,,13,,,76,0
160059,note_on,219,0,12,,,,,,,,15,,,52,0
160059,note_on,219,0,9,,,,,,,,12,,,79,0
160059,note_on,219,0,8,,,,,,,,11,,,82,0
160059,note_on,219,0,11,,,,,,,,14,,,64,0
160059,note_on,219,0,5,,,,,,,,0,,,82,0
160080,note_on,21,0,9,,,,,,,,12,,,77,80
160080,note_on,21,0,10,,,,,,,,13,,,77,80
160080,note_on,21,0,5,,,,,,,,0,,,81,80
160080,note_on,21,0,8,,,,,,,,11,,,81,80
160080,note_on,21,0,12,,,,,,,,15,,,53,80
160080,note_on,21,0,11,,,,,,,,14,,,65,80
160299,note_on,0,0,6,,,,,,,,1,,,60,0
160299,note_on,219,0,5,,,,,,,,0,,,81,0
160299,note_on,219,0,9,,,,,,,,12,,,77,0
160299,note_on,219,0,11,,,,,,,,14,,,65,0
160299,note_on,219,0,12,,,,,,,,15,,,53,0
160299,note_on,219,0,8,,,,,,,,11,,,81,0
160299,note_on,939,0,6,,,,,,,,1,,,48,0
160299,note_on,219,0,10,,,,,,,,13,,,77,0
160320,note_on,21,0,10,,,,,,,,13,,,70,80
160320,note_on,0,0,6,,,,,,,,1,,,67,80
160320,note_on,21,0,8,,,,,,,,11,,,79,80
160320,note_on,21,0,5,,,,,,,,0,,,76,80
160320,note_on,21,0,12,,,,,,,,15,,,46,80
160320,note_on,21,0,9,,,,,,,,12,,,76,80
160320,note_on,21,0,11,,,,,,,,14,,,58,80
160320,note_on,21,0,6,,,,,,,,1,,,60,80
160539,note_on,219,0,12,,,,,,,,15,,,46,0
160539,note_on,219,0,8,,,,,,,,11,,,79,0
160539,note_on,219,0,6,,,,,,,,1,,,67,0
160539,note_on,219,0,11,,,,,,,,14,,,58,0
160539,note_on,219,0,9,,,,,,,,12,,,76,0
160539,note_on,219,0,10,,,,,,,,13,,,70,0
160539,note_on,219,0,5,,,,,,,,0,,,76,0
160560,note_on,21,0,12,,,,,,,,15,,,45,80
160560,note_on,21,0,8,,,,,,,,11,,,77,80
160560,note_on,21,0,9,,,,,,,,12,,,77,80
160560,note_on,21,0,6,,,,,,,,1,,,65,80
160560,note_on,21,0,11,,,,,,,,14,,,57,80
160560,note_on,21,0,5,,,,,,,,0,,,77,80
160560,note_on,21,0,10,,,,,,,,13,,,69,80
160779,note_on,219,0,6,,,,,,,,1,,,65,0
160779,note_on,0,0,6,,,,,,,,1,,,60,0
160779,note_on,219,0,11,,,,,,,,14,,,57,0
160779,note_on,219,0,9,,,,,,,,12,,,77,0
160779,note_on,219,0,10,,,,,,,,13,,,69,0
160779,note_on,0,0,5,,,,,,,,0,,,84,0
160779,note_on,219,0,5,,,,,,,,0,,,77,0
160779,note_on,219,0,12,,,,,,,,15,,,45,0
160779,note_on,219,0,8,,,,,,,,11,,,77,0
160800,note_on,21,0,9,,,,,,,,12,,,74,80
160800,note_on,21,0,11,,,,,,,,14,,,58,80
160800,note_on,21,0,5,,,,,,,,0,,,79,80
160800,note_on,21,0,6,,,,,,,,1,,,62,80
160800,note_on,21,0,10,,,,,,,,13,,,70,80
160800,note_on,21,0,12,,,,,,,,15,,,46,80
160800,note_on,0,0,5,,,,,,,,0,,,82,80
160800,note_on,21,0,8,,,,,,,,11,,,81,80
160859,note_on,59,0,8,,,,,,,,11,,,81,0
160860,note_on,1,0,8,,,,,,,,11,,,79,80
160919,note_on,119,0,9,,,,,,,,12,,,74,0
160920,note_on,1,0,9,,,,,,,,12,,,70,80
161019,note_on,219,0,12,,,,,,,,15,,,46,0
161019,note_on,219,0,10,,,,,,,,13,,,70,0
161019,note_on,219,0,5,,,,,,,,0,,,82,0
161019,note_on,0,0,5,,,,,,,,0,,,79,0
161019,note_on,219,0,11,,,,,,,,14,,,58,0
161019,note_on,159,0,8,,,,,,,,11,,,79,0
161019,note_on,219,0,6,,,,,,,,1,,,62,0
161019,note_on,99,0,9,,,,,,,,12,,,70,0
161040,note_on,21,0,6,,,,,,,,1,,,60,80
161040,note_on,21,0,5,,,,,,,,0,,,81,80
161040,note_on,21,0,12,,,,,,,,15,,,48,80
161040,note_on,0,0,5,,,,,,,,0,,,77,80
161040,note_on,21,0,11,,,,,,,,14,,,60,80
161040,note_on,21,0,9,,,,,,,,12,,,69,80
161040,note_on,21,0,10,,,,,,,,13,,,72,80
161040,note_on,21,0,8,,,,,,,,11,,,77,80
161129,note_on,89,0,9,,,,,,,,12,,,69,0
161139,note_on,99,0,5,,,,,,,,0,,,77,0
161139,note_on,0,0,5,,,,,,,,0,,,81,0
161139,note_on,99,0,8,,,,,,,,11,,,77,0
161160,note_on,31,0,9,,,,,,,,12,,,67,80
161160,note_on,21,0,8,,,,,,,,11,,,76,80
161160,note_on,21,0,5,,,,,,,,0,,,79,80
161160,note_on,0,0,5,,,,,,,,0,,,76,80
161249,note_on,89,0,9,,,,,,,,12,,,67,0
161259,note_on,219,0,6,,,,,,,,1,,,60,0
161259,note_on,0,0,5,,,,,,,,0,,,79,0
161259,note_on,219,0,10,,,,,,,,13,,,72,0
161259,note_on,219,0,12,,,,,,,,15,,,48,0
161259,note_on,219,0,11,,,,,,,,14,,,60,0
161259,note_on,99,0,8,,,,,,,,11,,,76,0
161259,note_on,99,0,5,,,,,,,,0,,,76,0
161280,note_on,21,0,5,,,,,,,,0,,,77,80
161280,note_on,21,0,12,,,,,,,,15,,,41,80
161280,note_on,21,0,8,,,,,,,,11,,,77,80
161280,note_on,31,0,9,,,,,,,,12,,,69,80
161280,note_on,21,0,10,,,,,,,,13,,,65,80
161280,note_on,21,0,6,,,,,,,,1,,,60,80
161280,note_on,21,0,11,,,,,,,,14,,,53,80
161379,note_on,99,0,9,,,,,,,,12,,,69,0
161400,note_on,21,0,9,,,,,,,,12,,,72,80
161499,note_on,99,0,9,,,,,,,,12,,,72,0
161519,note_on,239,0,12,,,,,,,,15,,,41,0
161519,note_on,239,0,8,,,,,,,,11,,,77,0
161519,note_on,239,0,5,,,,,,,,0,,,77,0
161519,note_on,239,0,11,,,,,,,,14,,,53,0
161519,note_on,239,0,6,,,,,,,,1,,,60,0
161519,note_on,239,0,10,,,,,,,,13,,,65,0
161520,note_on,21,0,9,,,,,,,,12,,,72,80
161619,note_on,99,0,9,,,,,,,,12,,,72,0
161640,note_on,21,0,9,,,,,,,,12,,,72,80
161739,note_on,99,0,9,,,,,,,,12,,,72,0
161760,note_on,241,0,11,,,,,,,,14,,,53,80
161760,note_on,241,0,12,,,,,,,,15,,,41,80
161760,note_on,241,0,8,,,,,,,,11,,,81,80
161760,note_on,241,0,10,,,,,,,,13,,,65,80
161760,note_on,1921,0,7,,,,,,,,2,,,72,80
161760,note_on,0,0,6,,,,,,,,1,,,48,80
161760,note_on,241,0,6,,,,,,,,1,,,60,80
161760,note_on,241,0,5,,,,,,,,0,,,81,80
161760,note_on,0,0,7,,,,,,,,2,,,60,80
161760,note_on,21,0,9,,,,,,,,12,,,72,80
161859,note_on,99,0,8,,,,,,,,11,,,81,0
161859,note_on,99,0,9,,,,,,,,12,,,72,0
161880,note_on,21,0,8,,,,,,,,11,,,81,80
161880,note_on,21,0,9,,,,,,,,12,,,72,80
161979,note_on,99,0,8,,,,,,,,11,,,81,0
161979,note_on,99,0,9,,,,,,,,12,,,72,0
161999,note_on,239,0,12,,,,,,,,15,,,41,0
161999,note_on,239,0,11,,,,,,,,14,,,53,0
161999,note_on,239,0,10,,,,,,,,13,,,65,0
161999,note_on,239,0,5,,,,,,,,0,,,81,0
162000,note_on,21,0,8,,,,,,,,11,,,79,80
162000,note_on,1,0,10,,,,,,,,13,,,64,80
162000,note_on,21,0,9,,,,,,,,12,,,72,80
162000,note_on,1,0,11,,,,,,,,14,,,52,80
162000,note_on,1,0,12,,,,,,,,15,,,40,80
162000,note_on,1,0,5,,,,,,,,0,,,79,80
162099,note_on,99,0,9,,,,,,,,12,,,72,0
162099,note_on,99,0,8,,,,,,,,11,,,79,0
162120,note_on,21,0,9,,,,,,,,12,,,72,80
162120,note_on,21,0,8,,,,,,,,11,,,79,80
162219,note_on,219,0,11,,,,,,,,14,,,52,0
162219,note_on,219,0,10,,,,,,,,13,,,64,0
162219,note_on,219,0,12,,,,,,,,15,,,40,0
162219,note_on,99,0,9,,,,,,,,12,,,72,0
162219,note_on,99,0,8,,,,,,,,11,,,79,0
162239,note_on,0,0,6,,,,,,,,1,,,60,0
162239,note_on,479,0,6,,,,,,,,1,,,48,0
162239,note_on,0,0,7,,,,,,,,2,,,72,0
162239,note_on,479,0,7,,,,,,,,2,,,60,0
162239,note_on,239,0,5,,,,,,,,0,,,79,0
162240,note_on,21,0,11,,,,,,,,14,,,57,44
162240,note_on,21,0,9,,,,,,,,12,,,72,44
162240,note_on,21,0,8,,,,,,,,11,,,77,44
162240,note_on,21,0,12,,,,,,,,15,,,45,44
162240,note_on,21,0,10,,,,,,,,13,,,69,44
162339,note_on,99,0,9,,,,,,,,12,,,72,0
162339,note_on,99,0,8,,,,,,,,11,,,77,0
162360,note_on,21,0,8,,,,,,,,11,,,77,44
162360,note_on,21,0,9,,,,,,,,12,,,72,44
162459,note_on,99,0,9,,,,,,,,12,,,72,0
162459,note_on,99,0,8,,,,,,,,11,,,77,0
162479,note_on,239,0,10,,,,,,,,13,,,69,0
162479,note_on,239,0,12,,,,,,,,15,,,45,0
162479,note_on,239,0,11,,,,,,,,14,,,57,0
162480,note_on,1,0,12,,,,,,,,15,,,43,44
162480,note_on,21,0,9,,,,,,,,12,,,72,44
162480,note_on,21,0,8,,,,,,,,11,,,76,44
162480,note_on,1,0,10,,,,,,,,13,,,67,44
162480,note_on,1,0,11,,,,,,,,14,,,55,44
162579,note_on,99,0,9,,,,,,,,12,,,72,0
162579,note_on,99,0,8,,,,,,,,11,,,76,0
162600,note_on,21,0,8,,,,,,,,11,,,76,44
162600,note_on,21,0,9,,,,,,,,12,,,72,44
162699,note_on,99,0,8,,,,,,,,11,,,76,0
162699,note_on,219,0,11,,,,,,,,14,,,55,0
162699,note_on,99,0,9,,,,,,,,12,,,72,0
162699,note_on,219,0,10,,,,,,,,13,,,67,0
162699,note_on,219,0,12,,,,,,,,15,,,43,0
162720,note_on,481,0,6,,,,,,,,1,,,60,80
162720,note_on,0,0,7,,,,,,,,2,,,72,80
162720,note_on,0,0,6,,,,,,,,1,,,48,80
162720,note_on,21,0,11,,,,,,,,14,,,53,80
162720,note_on,21,0,12,,,,,,,,15,,,41,80
162720,note_on,481,0,7,,,,,,,,2,,,60,80
162720,note_on,21,0,9,,,,,,,,12,,,60,80
162720,note_on,481,0,5,,,,,,,,0,,,81,80
162720,note_on,21,0,8,,,,,,,,11,,,81,80
162720,note_on,21,0,10,,,,,,,,13,,,65,80
162819,note_on,99,0,8,,,,,,,,11,,,81,0
162819,note_on,99,0,9,,,,,,,,12,,,60,0
162840,note_on,21,0,8,,,,,,,,11,,,81,80
162840,note_on,21,0,9,,,,,,,,12,,,60,80
162939,note_on,99,0,8,,,,,,,,11,,,81,0
162939,note_on,99,0,9,,,,,,,,12,,,60,0
162959,note_on,239,0,12,,,,,,,,15,,,41,0
162959,note_on,239,0,11,,,,,,,,14,,,53,0
162959,note_on,239,0,5,,,,,,,,0,,,81,0
162959,note_on,239,0,10,,,,,,,,13,,,65,0
162960,note_on,21,0,8,,,,,,,,11,,,79,80
162960,note_on,1,0,10,,,,,,,,13,,,64,80
162960,note_on,1,0,5,,,,,,,,0,,,79,80
162960,note_on,21,0,9,,,,,,,,12,,,60,80
162960,note_on,1,0,12,,,,,,,,15,,,40,80
162960,note_on,1,0,11,,,,,,,,14,,,52,80
163059,note_on,99,0,8,,,,,,,,11,,,79,0
163059,note_on,99,0,9,,,,,,,,12,,,60,0
163080,note_on,21,0,8,,,,,,,,11,,,79,80
163080,note_on,21,0,9,,,,,,,,12,,,60,80
163179,note_on,219,0,11,,,,,,,,14,,,52,0
163179,note_on,99,0,8,,,,,,,,11,,,79,0
163179,note_on,219,0,10,,,,,,,,13,,,64,0
163179,note_on,99,0,9,,,,,,,,12,,,60,0
163179,note_on,219,0,12,,,,,,,,15,,,40,0
163199,note_on,479,0,6,,,,,,,,1,,,48,0
163199,note_on,0,0,6,,,,,,,,1,,,60,0
163199,note_on,0,0,7,,,,,,,,2,,,60,0
163199,note_on,239,0,5,,,,,,,,0,,,79,0
163199,note_on,479,0,7,,,,,,,,2,,,72,0
163200,note_on,21,0,8,,,,,,,,11,,,77,44
163200,note_on,21,0,9,,,,,,,,12,,,60,44
163200,note_on,21,0,12,,,,,,,,15,,,45,44
163200,note_on,21,0,11,,,,,,,,14,,,57,44
163200,note_on,21,0,10,,,,,,,,13,,,69,44
163299,note_on,99,0,9,,,,,,,,12,,,60,0
163299,note_on,99,0,8,,,,,,,,11,,,77,0
163320,note_on,21,0,9,,,,,,,,12,,,60,44
163320,note_on,21,0,8,,,,,,,,11,,,77,44
163419,note_on,99,0,8,,,,,,,,11,,,77,0
163419,note_on,99,0,9,,,,,,,,12,,,60,0
163439,note_on,239,0,10,,,,,,,,13,,,69,0
163439,note_on,239,0,12,,,,,,,,15,,,45,0
163439,note_on,239,0,11,,,,,,,,14,,,57,0
163440,note_on,1,0,10,,,,,,,,13,,,67,44
163440,note_on,1,0,11,,,,,,,,14,,,55,44
163440,note_on,1,0,12,,,,,,,,15,,,43,44
163440,note_on,21,0,9,,,,,,,,12,,,60,44
163440,note_on,21,0,8,,,,,,,,11,,,76,44
163539,note_on,99,0,9,,,,,,,,12,,,60,0
163539,note_on,99,0,8,,,,,,,,11,,,76,0
163560,note_on,21,0,8,,,,,,,,11,,,76,44
163560,note_on,21,0,9,,,,,,,,12,,,60,44
163659,note_on,219,0,10,,,,,,,,13,,,67,0
163659,note_on,99,0,9,,,,,,,,12,,,60,0
163659,note_on,99,0,8,,,,,,,,11,,,76,0
163659,note_on,219,0,12,,,,,,,,15,,,43,0
163659,note_on,219,0,11,,,,,,,,14,,,55,0
163680,note_on,21,0,10,,,,,,,,13,,,65,80
163680,note_on,21,0,11,,,,,,,,14,,,53,80
163680,note_on,0,0,7,,,,,,,,2,,,60,80
163680,note_on,21,0,8,,,,,,,,11,,,81,80
163680,note_on,21,0,12,,,,,,,,15,,,41,80
163680,note_on,481,0,5,,,,,,,,0,,,81,80
163680,note_on,481,0,6,,,,,,,,1,,,60,80
163680,note_on,0,0,6,,,,,,,,1,,,48,80
163680,note_on,481,0,7,,,,,,,,2,,,72,80
163680,note_on,21,0,9,,,,,,,,12,,,72,80
163779,note_on,99,0,8,,,,,,,,11,,,81,0
163779,note_on,99,0,9,,,,,,,,12,,,72,0
163800,note_on,21,0,9,,,,,,,,12,,,72,80
163800,note_on,21,0,8,,,,,,,,11,,,81,80
163899,note_on,99,0,9,,,,,,,,12,,,72,0
163899,note_on,99,0,8,,,,,,,,11,,,81,0
163919,note_on,239,0,12,,,,,,,,15,,,41,0
163919,note_on,239,0,5,,,,,,,,0,,,81,0
163919,note_on,239,0,10,,,,,,,,13,,,65,0
163919,note_on,239,0,11,,,,,,,,14,,,53,0
163920,note_on,1,0,10,,,,,,,,13,,,64,80
163920,note_on,21,0,9,,,,,,,,12,,,72,80
163920,note_on,1,0,5,,,,,,,,0,,,79,80
163920,note_on,1,0,11,,,,,,,,14,,,52,80
163920,note_on,1,0,12,,,,,,,,15,,,40,80
163920,note_on,21,0,8,,,,,,,,11,,,79,80
164019,note_on,99,0,8,,,,,,,,11,,,79,0
164019,note_on,99,0,9,,,,,,,,12,,,72,0
164040,note_on,21,0,8,,,,,,,,11,,,79,80
164040,note_on,21,0,9,,,,,,,,12,,,72,80
164139,note_on,99,0,9,,,,,,,,12,,,72,0
164139,note_on,219,0,11,,,,,,,,14,,,52,0
164139,note_on,219,0,12,,,,,,,,15,,,40,0
164139,note_on,99,0,8,,,,,,,,11,,,79,0
164139,note_on,219,0,10,,,,,,,,13,,,64,0
164139,note_on,219,0,5,,,,,,,,0,,,79,0
164160,note_on,21,0,12,,,,,,,,15,,,45,80
164160,note_on,21,0,8,,,,,,,,11,,,77,80
164160,note_on,21,0,9,,,,,,,,12,,,72,80
164160,note_on,21,0,5,,,,,,,,0,,,77,80
164160,note_on,21,0,10,,,,,,,,13,,,69,80
164160,note_on,21,0,11,,,,,,,,14,,,57,80
164259,note_on,99,0,8,,,,,,,,11,,,77,0
164259,note_on,99,0,9,,,,,,,,12,,,72,0
164280,note_on,21,0,9,,,,,,,,12,,,72,80
164280,note_on,21,0,8,,,,,,,,11,,,77,80
164379,note_on,99,0,8,,,,,,,,11,,,77,0
164379,note_on,99,0,9,,,,,,,,12,,,72,0
164399,note_on,239,0,5,,,,,,,,0,,,77,0
164399,note_on,239,0,12,,,,,,,,15,,,45,0
164399,note_on,239,0,10,,,,,,,,13,,,69,0
164399,note_on,239,0,11,,,,,,,,14,,,57,0
164400,note_on,1,0,5,,,,,,,,0,,,76,80
164400,note_on,21,0,9,,,,,,,,12,,,72,80
164400,note_on,1,0,10,,,,,,,,13,,,67,80
164400,note_on,1,0,11,,,,,,,,14,,,55,80
164400,note_on,1,0,12,,,,,,,,15,,,43,80
164400,note_on,21,0,8,,,,,,,,11,,,76,80
164499,note_on,99,0,8,,,,,,,,11,,,76,0
164499,note_on,99,0,9,,,,,,,,12,,,72,0
164520,note_on,21,0,9,,,,,,,,12,,,72,80
164520,note_on,21,0,8,,,,,,,,11,,,76,80
164619,note_on,219,0,12,,,,,,,,15,,,43,0
164619,note_on,219,0,10,,,,,,,,13,,,67,0
164619,note_on,99,0,9,,,,,,,,12,,,72,0
164619,note_on,219,0,11,,,,,,,,14,,,55,0
164619,note_on,99,0,8,,,,,,,,11,,,76,0
164639,note_on,239,0,5,,,,,,,,0,,,76,0
164640,note_on,21,0,11,,,,,,,,14,,,53,80
164640,note_on,21,0,9,,,,,,,,12,,,72,80
164640,note_on,21,0,8,,,,,,,,11,,,74,80
164640,note_on,21,0,10,,,,,,,,13,,,65,80
164640,note_on,21,0,12,,,,,,,,15,,,41,80
164640,note_on,1,0,5,,,,,,,,0,,,74,80
164739,note_on,99,0,8,,,,,,,,11,,,74,0
164739,note_on,99,0,9,,,,,,,,12,,,72,0
164760,note_on,21,0,8,,,,,,,,11,,,74,80
164760,note_on,21,0,9,,,,,,,,12,,,72,80
164859,note_on,99,0,8,,,,,,,,11,,,74,0
164859,note_on,99,0,9,,,,,,,,12,,,72,0
164879,note_on,239,0,10,,,,,,,,13,,,65,0
164879,note_on,239,0,12,,,,,,,,15,,,41,0
164879,note_on,239,0,11,,,,,,,,14,,,53,0
164879,note_on,239,0,5,,,,,,,,0,,,74,0
164880,note_on,1,0,5,,,,,,,,0,,,76,80
164880,note_on,0,0,5,,,,,,,,0,,,72,80
164880,note_on,1,0,12,,,,,,,,15,,,42,80
164880,note_on,1,0,10,,,,,,,,13,,,66,80
164880,note_on,21,0,9,,,,,,,,12,,,72,80
164880,note_on,21,0,8,,,,,,,,11,,,76,80
164880,note_on,1,0,11,,,,,,,,14,,,54,80
164979,note_on,99,0,8,,,,,,,,11,,,76,0
164979,note_on,99,0,9,,,,,,,,12,,,72,0
165000,note_on,21,0,9,,,,,,,,12,,,72,80
165000,note_on,21,0,8,,,,,,,,11,,,76,80
165099,note_on,99,0,9,,,,,,,,12,,,72,0
165099,note_on,99,0,8,,,,,,,,11,,,76,0
165099,note_on,0,0,7,,,,,,,,2,,,72,0
165099,note_on,219,0,10,,,,,,,,13,,,66,0
165099,note_on,0,0,6,,,,,,,,1,,,60,0
165099,note_on,219,0,5,,,,,,,,0,,,72,0
165099,note_on,0,0,5,,,,,,,,0,,,76,0
165099,note_on,219,0,11,,,,,,,,14,,,54,0
165099,note_on,219,0,12,,,,,,,,15,,,42,0
165099,note_on,1419,0,7,,,,,,,,2,,,60,0
165099,note_on,1419,0,6,,,,,,,,1,,,48,0
165120,note_on,0,0,7,,,,,,,,2,,,55,80
165120,note_on,21,0,11,,,,,,,,14,,,55,80
165120,note_on,21,0,7,,,,,,,,2,,,67,80
165120,note_on,0,0,6,,,,,,,,1,,,43,80
165120,note_on,21,0,12,,,,,,,,15,,,43,80
165120,note_on,21,0,6,,,,,,,,1,,,55,80
165120,note_on,21,0,9,,,,,,,,12,,,71,44
165120,note_on,0,0,5,,,,,,,,0,,,74,80
165120,note_on,21,0,10,,,,,,,,13,,,67,80
165120,note_on,21,0,8,,,,,,,,11,,,74,44
165120,note_on,21,0,5,,,,,,,,0,,,71,80
165239,note_on,119,0,9,,,,,,,,12,,,71,0
165239,note_on,119,0,8,,,,,,,,11,,,74,0
165240,note_on,1,0,9,,,,,,,,12,,,72,44
165240,note_on,1,0,8,,,,,,,,11,,,76,44
165359,note_on,119,0,8,,,,,,,,11,,,76,0
165359,note_on,0,0,6,,,,,,,,1,,,55,0
165359,note_on,239,0,10,,,,,,,,13,,,67,0
165359,note_on,239,0,5,,,,,,,,0,,,74,0
165359,note_on,0,0,5,,,,,,,,0,,,71,0
165359,note_on,239,0,7,,,,,,,,2,,,55,0
165359,note_on,239,0,6,,,,,,,,1,,,43,0
165359,note_on,239,0,11,,,,,,,,14,,,55,0
165359,note_on,0,0,7,,,,,,,,2,,,67,0
165359,note_on,119,0,9,,,,,,,,12,,,72,0
165359,note_on,239,0,12,,,,,,,,15,,,43,0
165360,note_on,1,0,9,,,,,,,,12,,,71,44
165360,note_on,1,0,8,,,,,,,,11,,,74,44
165479,note_on,119,0,9,,,,,,,,12,,,71,0
165479,note_on,119,0,8,,,,,,,,11,,,74,0
165480,note_on,1,0,9,,,,,,,,12,,,72,44
165480,note_on,1,0,8,,,,,,,,11,,,76,44
165599,note_on,119,0,9,,,,,,,,12,,,72,0
165599,note_on,119,0,8,,,,,,,,11,,,76,0
165600,note_on,1,0,8,,,,,,,,11,,,74,44
165600,note_on,1,0,9,,,,,,,,12,,,71,44
165719,note_on,119,0,8,,,,,,,,11,,,74,0
165719,note_on,119,0,9,,,,,,,,12,,,71,0
165720,note_on,1,0,9,,,,,,,,12,,,72,44
165720,note_on,1,0,8,,,,,,,,11,,,76,44
165839,note_on,119,0,9,,,,,,,,12,,,72,0
165839,note_on,119,0,8,,,,,,,,11,,,76,0
165840,note_on,1,0,9,,,,,,,,12,,,71,44
165840,note_on,1,0,8,,,,,,,,11,,,74,44
165959,note_on,119,0,9,,,,,,,,12,,,71,0
165959,note_on,119,0,8,,,,,,,,11,,,74,0
165960,note_on,1,0,8,,,,,,,,11,,,76,44
165960,note_on,1,0,9,,,,,,,,12,,,72,44
166079,note_on,119,0,9,,,,,,,,12,,,72,0
166079,note_on,119,0,8,,,,,,,,11,,,76,0
166080,note_on,721,0,5,,,,,,,,0,,,79,44
166080,note_on,1,0,9,,,,,,,,12,,,71,44
166080,note_on,1,0,8,,,,,,,,11,,,74,44
166119,note_on,39,0,5,,,,,,,,0,,,79,0
166120,note_on,1,0,5,,,,,,,,0,,,81,44
166159,note_on,39,0,5,,,,,,,,0,,,81,0
166160,note_on,1,0,5,,,,,,,,0,,,79,44
166199,note_on,39,0,5,,,,,,,,0,,,79,0
166199,note_on,119,0,9,,,,,,,,12,,,71,0
166199,note_on,119,0,8,,,,,,,,11,,,74,0
166200,note_on,1,0,8,,,,,,,,11,,,76,44
166200,note_on,1,0,5,,,,,,,,0,,,78,44
166200,note_on,1,0,9,,,,,,,,12,,,72,44
166259,note_on,59,0,5,,,,,,,,0,,,78,0
166260,note_on,1,0,5,,,,,,,,0,,,79,44
166319,note_on,119,0,8,,,,,,,,11,,,76,0
166319,note_on,59,0,5,,,,,,,,0,,,79,0
166319,note_on,119,0,9,,,,,,,,12,,,72,0
166320,note_on,1,0,8,,,,,,,,11,,,74,44
166320,note_on,1,0,9,,,,,,,,12,,,71,44
166439,note_on,119,0,8,,,,,,,,11,,,74,0
166439,note_on,119,0,9,,,,,,,,12,,,71,0
166440,note_on,1,0,8,,,,,,,,11,,,76,44
166440,note_on,1,0,9,,,,,,,,12,,,72,44
166559,note_on,119,0,8,,,,,,,,11,,,76,0
166559,note_on,119,0,9,,,,,,,,12,,,72,0
166560,note_on,1,0,9,,,,,,,,12,,,71,44
166560,note_on,1,0,8,,,,,,,,11,,,74,44
166679,note_on,119,0,9,,,,,,,,12,,,71,0
166679,note_on,119,0,8,,,,,,,,11,,,74,0
166680,note_on,1,0,9,,,,,,,,12,,,72,44
166680,note_on,1,0,8,,,,,,,,11,,,76,44
166799,note_on,119,0,9,,,,,,,,12,,,72,0
166799,note_on,119,0,8,,,,,,,,11,,,76,0
166800,note_on,1,0,9,,,,,,,,12,,,71,44
166800,note_on,1,0,8,,,,,,,,11,,,74,44
166919,note_on,119,0,9,,,,,,,,12,,,71,0
166919,note_on,119,0,8,,,,,,,,11,,,74,0
166920,note_on,1,0,8,,,,,,,,11,,,76,44
166920,note_on,1,0,9,,,,,,,,12,,,72,44
167039,note_on,119,0,8,,,,,,,,11,,,76,0
167039,note_on,119,0,9,,,,,,,,12,,,72,0
167040,note_on,721,0,5,,,,,,,,0,,,79,44
167040,note_on,1,0,8,,,,,,,,11,,,74,44
167040,note_on,1,0,9,,,,,,,,12,,,71,44
167079,note_on,39,0,5,,,,,,,,0,,,79,0
167080,note_on,1,0,5,,,,,,,,0,,,81,44
167119,note_on,39,0,5,,,,,,,,0,,,81,0
167120,note_on,1,0,5,,,,,,,,0,,,79,44
167159,note_on,39,0,5,,,,,,,,0,,,79,0
167159,note_on,119,0,9,,,,,,,,12,,,71,0
167159,note_on,119,0,8,,,,,,,,11,,,74,0
167160,note_on,1,0,9,,,,,,,,12,,,72,44
167160,note_on,1,0,5,,,,,,,,0,,,78,44
167160,note_on,1,0,8,,,,,,,,11,,,76,44
167219,note_on,59,0,5,,,,,,,,0,,,78,0
167220,note_on,1,0,5,,,,,,,,0,,,79,44
167279,note_on,119,0,8,,,,,,,,11,,,76,0
167279,note_on,59,0,5,,,,,,,,0,,,79,0
167279,note_on,119,0,9,,,,,,,,12,,,72,0
167280,note_on,1,0,8,,,,,,,,11,,,74,44
167280,note_on,1,0,9,,,,,,,,12,,,71,44
167399,note_on,119,0,9,,,,,,,,12,,,71,0
167399,note_on,119,0,8,,,,,,,,11,,,74,0
167400,note_on,1,0,9,,,,,,,,12,,,72,44
167400,note_on,1,0,8,,,,,,,,11,,,76,44
167519,note_on,119,0,9,,,,,,,,12,,,72,0
167519,note_on,119,0,8,,,,,,,,11,,,76,0
167520,note_on,1,0,8,,,,,,,,11,,,74,44
167520,note_on,1,0,9,,,,,,,,12,,,71,44
167639,note_on,119,0,9,,,,,,,,12,,,71,0
167639,note_on,119,0,8,,,,,,,,11,,,74,0
167640,note_on,1,0,9,,,,,,,,12,,,72,44
167640,note_on,1,0,8,,,,,,,,11,,,76,44
167759,note_on,119,0,8,,,,,,,,11,,,76,0
167759,note_on,119,0,9,,,,,,,,12,,,72,0
167760,note_on,1,0,9,,,,,,,,12,,,71,44
167760,note_on,1,0,8,,,,,,,,11,,,74,44
167879,note_on,119,0,8,,,,,,,,11,,,74,0
167879,note_on,119,0,9,,,,,,,,12,,,71,0
167880,note_on,1,0,9,,,,,,,,12,,,72,44
167880,note_on,1,0,8,,,,,,,,11,,,76,44
167999,note_on,119,0,8,,,,,,,,11,,,76,0
167999,note_on,119,0,9,,,,,,,,12,,,72,0
168000,note_on,1,0,9,,,,,,,,12,,,71,44
168000,note_on,721,0,5,,,,,,,,0,,,79,44
168000,note_on,1,0,8,,,,,,,,11,,,74,44
168039,note_on,39,0,5,,,,,,,,0,,,79,0
168040,note_on,1,0,5,,,,,,,,0,,,81,44
168079,note_on,39,0,5,,,,,,,,0,,,81,0
168080,note_on,1,0,5,,,,,,,,0,,,79,44
168119,note_on,119,0,9,,,,,,,,12,,,71,0
168119,note_on,39,0,5,,,,,,,,0,,,79,0
168119,note_on,119,0,8,,,,,,,,11,,,74,0
168120,note_on,1,0,8,,,,,,,,11,,,76,44
168120,note_on,1,0,9,,,,,,,,12,,,72,44
168120,note_on,1,0,5,,,,,,,,0,,,78,44
168179,note_on,59,0,5,,,,,,,,0,,,78,0
168180,note_on,1,0,5,,,,,,,,0,,,79,44
168239,note_on,59,0,5,,,,,,,,0,,,79,0
168239,note_on,119,0,8,,,,,,,,11,,,76,0
168239,note_on,119,0,9,,,,,,,,12,,,72,0
168240,note_on,1,0,9,,,,,,,,12,,,71,44
168240,note_on,1,0,8,,,,,,,,11,,,74,44
168359,note_on,119,0,9,,,,,,,,12,,,71,0
168359,note_on,119,0,8,,,,,,,,11,,,74,0
168360,note_on,1,0,8,,,,,,,,11,,,76,44
168360,note_on,1,0,9,,,,,,,,12,,,72,44
168479,note_on,119,0,9,,,,,,,,12,,,72,0
168479,note_on,119,0,8,,,,,,,,11,,,76,0
168480,note_on,1,0,9,,,,,,,,12,,,71,44
168480,note_on,241,0,5,,,,,,,,0,,,79,44
168480,note_on,1,0,8,,,,,,,,11,,,74,44
168519,note_on,39,0,5,,,,,,,,0,,,79,0
168520,note_on,1,0,5,,,,,,,,0,,,81,44
168559,note_on,39,0,5,,,,,,,,0,,,81,0
168560,note_on,1,0,5,,,,,,,,0,,,79,44
168599,note_on,119,0,8,,,,,,,,11,,,74,0
168599,note_on,39,0,5,,,,,,,,0,,,79,0
168599,note_on,119,0,9,,,,,,,,12,,,71,0
168600,note_on,1,0,5,,,,,,,,0,,,78,44
168600,note_on,1,0,9,,,,,,,,12,,,72,44
168600,note_on,1,0,8,,,,,,,,11,,,76,44
168659,note_on,59,0,5,,,,,,,,0,,,78,0
168660,note_on,1,0,5,,,,,,,,0,,,79,44
168719,note_on,59,0,5,,,,,,,,0,,,79,0
168719,note_on,119,0,9,,,,,,,,12,,,72,0
168719,note_on,119,0,8,,,,,,,,11,,,76,0
168720,note_on,1,0,8,,,,,,,,11,,,77,44
168720,note_on,1,0,9,,,,,,,,12,,,74,44
168839,note_on,119,0,8,,,,,,,,11,,,77,0
168839,note_on,119,0,9,,,,,,,,12,,,74,0
168840,note_on,1,0,9,,,,,,,,12,,,71,44
168840,note_on,1,0,8,,,,,,,,11,,,74,44
168939,note_on,99,0,9,,,,,,,,12,,,71,0
168939,note_on,99,0,8,,,,,,,,11,,,74,0
168960,note_on,21,0,8,,,,,,,,11,,,79,44
168960,note_on,21,0,9,,,,,,,,12,,,60,44
168999,note_on,39,0,8,,,,,,,,11,,,79,0
169000,note_on,1,0,8,,,,,,,,11,,,81,44
169039,note_on,39,0,8,,,,,,,,11,,,81,0
169040,note_on,1,0,8,,,,,,,,11,,,79,44
169059,note_on,99,0,9,,,,,,,,12,,,60,0
169079,note_on,39,0,8,,,,,,,,11,,,79,0
169080,note_on,1,0,8,,,,,,,,11,,,77,44
169080,note_on,21,0,9,,,,,,,,12,,,62,44
169139,note_on,59,0,8,,,,,,,,11,,,77,0
169140,note_on,1,0,8,,,,,,,,11,,,79,44
169179,note_on,99,0,9,,,,,,,,12,,,62,0
169199,note_on,59,0,8,,,,,,,,11,,,79,0
169200,note_on,21,0,9,,,,,,,,12,,,64,44
169299,note_on,99,0,9,,,,,,,,12,,,64,0
169320,note_on,21,0,9,,,,,,,,12,,,60,44
169419,note_on,99,0,9,,,,,,,,12,,,60,0
169440,note_on,21,0,9,,,,,,,,12,,,62,44
169440,note_on,241,0,8,,,,,,,,11,,,77,44
169479,note_on,39,0,8,,,,,,,,11,,,77,0
169480,note_on,1,0,8,,,,,,,,11,,,79,44
169519,note_on,39,0,8,,,,,,,,11,,,79,0
169520,note_on,1,0,8,,,,,,,,11,,,77,44
169539,note_on,99,0,9,,,,,,,,12,,,62,0
169559,note_on,39,0,8,,,,,,,,11,,,77,0
169560,note_on,21,0,9,,,,,,,,12,,,64,44
169560,note_on,1,0,8,,,,,,,,11,,,76,44
169619,note_on,59,0,8,,,,,,,,11,,,76,0
169620,note_on,1,0,8,,,,,,,,11,,,77,44
169659,note_on,99,0,9,,,,,,,,12,,,64,0
169679,note_on,59,0,8,,,,,,,,11,,,77,0
169680,note_on,21,0,9,,,,,,,,12,,,65,44
169779,note_on,99,0,9,,,,,,,,12,,,65,0
169800,note_on,21,0,9,,,,,,,,12,,,62,44
169899,note_on,99,0,9,,,,,,,,12,,,62,0
169920,note_on,21,0,9,,,,,,,,12,,,64,44
169920,note_on,241,0,8,,,,,,,,11,,,76,44
169959,note_on,39,0,8,,,,,,,,11,,,76,0
169960,note_on,1,0,8,,,,,,,,11,,,77,44
169999,note_on,39,0,8,,,,,,,,11,,,77,0
170000,note_on,1,0,8,,,,,,,,11,,,76,44
170019,note_on,99,0,9,,,,,,,,12,,,64,0
170039,note_on,39,0,8,,,,,,,,11,,,76,0
170040,note_on,1,0,8,,,,,,,,11,,,74,44
170040,note_on,21,0,9,,,,,,,,12,,,65,44
170099,note_on,59,0,8,,,,,,,,11,,,74,0
170100,note_on,1,0,8,,,,,,,,11,,,76,44
170139,note_on,99,0,9,,,,,,,,12,,,65,0
170159,note_on,59,0,8,,,,,,,,11,,,76,0
170160,note_on,21,0,9,,,,,,,,12,,,67,44
170259,note_on,99,0,9,,,,,,,,12,,,67,0
170280,note_on,21,0,9,,,,,,,,12,,,64,44
170379,note_on,99,0,9,,,,,,,,12,,,64,0
170400,note_on,21,0,9,,,,,,,,12,,,65,44
170400,note_on,241,0,8,,,,,,,,11,,,74,44
170439,note_on,39,0,8,,,,,,,,11,,,74,0
170440,note_on,1,0,8,,,,,,,,11,,,76,44
170479,note_on,39,0,8,,,,,,,,11,,,76,0
170480,note_on,1,0,8,,,,,,,,11,,,74,44
170499,note_on,99,0,9,,,,,,,,12,,,65,0
170519,note_on,39,0,8,,,,,,,,11,,,74,0
170520,note_on,21,0,9,,,,,,,,12,,,67,44
170520,note_on,1,0,8,,,,,,,,11,,,72,44
170579,note_on,59,0,8,,,,,,,,11,,,72,0
170580,note_on,1,0,8,,,,,,,,11,,,74,44
170619,note_on,99,0,9,,,,,,,,12,,,67,0
170639,note_on,59,0,8,,,,,,,,11,,,74,0
170640,note_on,21,0,9,,,,,,,,12,,,69,44
170739,note_on,99,0,9,,,,,,,,12,,,69,0
170760,note_on,21,0,9,,,,,,,,12,,,65,44
170859,note_on,99,0,9,,,,,,,,12,,,65,0
170880,note_on,241,0,8,,,,,,,,11,,,72,44
170880,note_on,21,0,9,,,,,,,,12,,,64,44
170919,note_on,39,0,8,,,,,,,,11,,,72,0
170920,note_on,1,0,8,,,,,,,,11,,,74,44
170959,note_on,39,0,8,,,,,,,,11,,,74,0
170960,note_on,1,0,8,,,,,,,,11,,,72,44
170979,note_on,99,0,9,,,,,,,,12,,,64,0
170999,note_on,39,0,8,,,,,,,,11,,,72,0
171000,note_on,1,0,8,,,,,,,,11,,,71,44
171000,note_on,21,0,9,,,,,,,,12,,,65,44
171059,note_on,59,0,8,,,,,,,,11,,,71,0
171060,note_on,1,0,8,,,,,,,,11,,,72,44
171099,note_on,99,0,9,,,,,,,,12,,,65,0
171119,note_on,59,0,8,,,,,,,,11,,,72,0
171120,note_on,21,0,9,,,,,,,,12,,,67,44
171219,note_on,99,0,9,,,,,,,,12,,,67,0
171240,note_on,21,0,9,,,,,,,,12,,,64,44
171339,note_on,99,0,9,,,,,,,,12,,,64,0
171360,note_on,241,0,8,,,,,,,,11,,,71,44
171360,note_on,21,0,9,,,,,,,,12,,,62,44
171399,note_on,39,0,8,,,,,,,,11,,,71,0
171400,note_on,1,0,8,,,,,,,,11,,,72,44
171439,note_on,39,0,8,,,,,,,,11,,,72,0
171440,note_on,1,0,8,,,,,,,,11,,,71,44
171459,note_on,99,0,9,,,,,,,,12,,,62,0
171479,note_on,39,0,8,,,,,,,,11,,,71,0
171480,note_on,21,0,9,,,,,,,,12,,,64,44
171480,note_on,1,0,8,,,,,,,,11,,,69,44
171539,note_on,59,0,8,,,,,,,,11,,,69,0
171540,note_on,1,0,8,,,,,,,,11,,,71,44
171579,note_on,99,0,9,,,,,,,,12,,,64,0
171599,note_on,59,0,8,,,,,,,,11,,,71,0
171600,note_on,21,0,9,,,,,,,,12,,,65,44
171699,note_on,99,0,9,,,,,,,,12,,,65,0
171720,note_on,21,0,9,,,,,,,,12,,,62,44
171819,note_on,99,0,9,,,,,,,,12,,,62,0
171840,note_on,241,0,8,,,,,,,,11,,,72,44
171840,note_on,21,0,9,,,,,,,,12,,,64,44
171939,note_on,99,0,9,,,,,,,,12,,,64,0
171959,note_on,119,0,8,,,,,,,,11,,,72,0
171960,note_on,21,0,9,,,,,,,,12,,,55,44
172059,note_on,99,0,9,,,,,,,,12,,,55,0
172080,note_on,121,0,8,,,,,,,,11,,,74,44
172080,note_on,21,0,9,,,,,,,,12,,,59,44
172179,note_on,99,0,9,,,,,,,,12,,,59,0
172199,note_on,119,0,8,,,,,,,,11,,,74,0
172200,note_on,21,0,9,,,,,,,,12,,,55,44
172299,note_on,99,0,9,,,,,,,,12,,,55,0
172320,note_on,121,0,8,,,,,,,,11,,,76,44
172320,note_on,21,0,9,,,,,,,,12,,,60,44
172419,note_on,99,0,9,,,,,,,,12,,,60,0
172439,note_on,119,0,8,,,,,,,,11,,,76,0
172440,note_on,21,0,9,,,,,,,,12,,,55,44
172539,note_on,99,0,9,,,,,,,,12,,,55,0
172560,note_on,21,0,9,,,,,,,,12,,,62,44
172560,note_on,121,0,8,,,,,,,,11,,,77,44
172659,note_on,99,0,9,,,,,,,,12,,,62,0
172679,note_on,119,0,8,,,,,,,,11,,,77,0
172680,note_on,21,0,9,,,,,,,,12,,,55,44
172779,note_on,99,0,9,,,,,,,,12,,,55,0
172800,note_on,121,0,8,,,,,,,,11,,,79,44
172800,note_on,21,0,9,,,,,,,,12,,,60,44
172839,note_on,39,0,8,,,,,,,,11,,,79,0
172840,note_on,1,0,8,,,,,,,,11,,,81,44
172879,note_on,39,0,8,,,,,,,,11,,,81,0
172880,note_on,1,0,8,,,,,,,,11,,,79,44
172899,note_on,99,0,9,,,,,,,,12,,,60,0
172919,note_on,39,0,8,,,,,,,,11,,,79,0
172920,note_on,21,0,9,,,,,,,,12,,,62,44
172920,note_on,1,0,8,,,,,,,,11,,,77,44
172979,note_on,59,0,8,,,,,,,,11,,,77,0
172980,note_on,1,0,8,,,,,,,,11,,,79,44
173019,note_on,99,0,9,,,,,,,,12,,,62,0
173039,note_on,59,0,8,,,,,,,,11,,,79,0
173040,note_on,21,0,9,,,,,,,,12,,,64,44
173139,note_on,99,0,9,,,,,,,,12,,,64,0
173160,note_on,21,0,9,,,,,,,,12,,,60,44
173259,note_on,99,0,9,,,,,,,,12,,,60,0
173280,note_on,241,0,8,,,,,,,,11,,,77,44
173280,note_on,21,0,9,,,,,,,,12,,,62,44
173319,note_on,39,0,8,,,,,,,,11,,,77,0
173320,note_on,1,0,8,,,,,,,,11,,,79,44
173359,note_on,39,0,8,,,,,,,,11,,,79,0
173360,note_on,1,0,8,,,,,,,,11,,,77,44
173379,note_on,99,0,9,,,,,,,,12,,,62,0
173399,note_on,39,0,8,,,,,,,,11,,,77,0
173400,note_on,21,0,9,,,,,,,,12,,,64,44
173400,note_on,1,0,8,,,,,,,,11,,,76,44
173459,note_on,59,0,8,,,,,,,,11,,,76,0
173460,note_on,1,0,8,,,,,,,,11,,,77,44
173499,note_on,99,0,9,,,,,,,,12,,,64,0
173519,note_on,59,0,8,,,,,,,,11,,,77,0
173520,note_on,21,0,9,,,,,,,,12,,,65,44
173619,note_on,99,0,9,,,,,,,,12,,,65,0
173640,note_on,21,0,9,,,,,,,,12,,,62,44
173739,note_on,99,0,9,,,,,,,,12,,,62,0
173760,note_on,21,0,9,,,,,,,,12,,,64,44
173760,note_on,241,0,8,,,,,,,,11,,,76,44
173799,note_on,39,0,8,,,,,,,,11,,,76,0
173800,note_on,1,0,8,,,,,,,,11,,,77,44
173839,note_on,39,0,8,,,,,,,,11,,,77,0
173840,note_on,1,0,8,,,,,,,,11,,,76,44
173859,note_on,99,0,9,,,,,,,,12,,,64,0
173879,note_on,39,0,8,,,,,,,,11,,,76,0
173880,note_on,1,0,8,,,,,,,,11,,,74,44
173880,note_on,21,0,9,,,,,,,,12,,,65,44
173939,note_on,59,0,8,,,,,,,,11,,,74,0
173940,note_on,1,0,8,,,,,,,,11,,,76,44
173979,note_on,99,0,9,,,,,,,,12,,,65,0
173999,note_on,59,0,8,,,,,,,,11,,,76,0
174000,note_on,21,0,9,,,,,,,,12,,,67,44
174099,note_on,99,0,9,,,,,,,,12,,,67,0
174120,note_on,21,0,9,,,,,,,,12,,,64,44
174219,note_on,99,0,9,,,,,,,,12,,,64,0
174240,note_on,241,0,8,,,,,,,,11,,,74,44
174240,note_on,21,0,9,,,,,,,,12,,,65,44
174279,note_on,39,0,8,,,,,,,,11,,,74,0
174280,note_on,1,0,8,,,,,,,,11,,,76,44
174319,note_on,39,0,8,,,,,,,,11,,,76,0
174320,note_on,1,0,8,,,,,,,,11,,,74,44
174339,note_on,99,0,9,,,,,,,,12,,,65,0
174359,note_on,39,0,8,,,,,,,,11,,,74,0
174360,note_on,21,0,9,,,,,,,,12,,,67,44
174360,note_on,1,0,8,,,,,,,,11,,,72,44
174419,note_on,59,0,8,,,,,,,,11,,,72,0
174420,note_on,1,0,8,,,,,,,,11,,,74,44
174459,note_on,99,0,9,,,,,,,,12,,,67,0
174479,note_on,59,0,8,,,,,,,,11,,,74,0
174480,note_on,21,0,9,,,,,,,,12,,,69,44
174579,note_on,99,0,9,,,,,,,,12,,,69,0
174600,note_on,21,0,9,,,,,,,,12,,,65,44
174699,note_on,99,0,9,,,,,,,,12,,,65,0
174720,note_on,21,0,9,,,,,,,,12,,,64,44
174720,note_on,241,0,8,,,,,,,,11,,,72,44
174759,note_on,39,0,8,,,,,,,,11,,,72,0
174760,note_on,1,0,8,,,,,,,,11,,,74,44
174799,note_on,39,0,8,,,,,,,,11,,,74,0
174800,note_on,1,0,8,,,,,,,,11,,,72,44
174819,note_on,99,0,9,,,,,,,,12,,,64,0
174839,note_on,39,0,8,,,,,,,,11,,,72,0
174840,note_on,1,0,8,,,,,,,,11,,,71,44
174840,note_on,21,0,9,,,,,,,,12,,,65,44
174899,note_on,59,0,8,,,,,,,,11,,,71,0
174900,note_on,1,0,8,,,,,,,,11,,,72,44
174939,note_on,99,0,9,,,,,,,,12,,,65,0
174959,note_on,59,0,8,,,,,,,,11,,,72,0
174960,note_on,21,0,9,,,,,,,,12,,,67,44
175059,note_on,99,0,9,,,,,,,,12,,,67,0
175080,note_on,21,0,9,,,,,,,,12,,,64,44
175179,note_on,99,0,9,,,,,,,,12,,,64,0
175200,note_on,241,0,8,,,,,,,,11,,,71,44
175200,note_on,21,0,9,,,,,,,,12,,,62,44
175239,note_on,39,0,8,,,,,,,,11,,,71,0
175240,note_on,1,0,8,,,,,,,,11,,,72,44
175279,note_on,39,0,8,,,,,,,,11,,,72,0
175280,note_on,1,0,8,,,,,,,,11,,,71,44
175299,note_on,99,0,9,,,,,,,,12,,,62,0
175319,note_on,39,0,8,,,,,,,,11,,,71,0
175320,note_on,1,0,8,,,,,,,,11,,,69,44
175320,note_on,21,0,9,,,,,,,,12,,,64,44
175379,note_on,59,0,8,,,,,,,,11,,,69,0
175380,note_on,1,0,8,,,,,,,,11,,,71,44
175419,note_on,99,0,9,,,,,,,,12,,,64,0
175439,note_on,59,0,8,,,,,,,,11,,,71,0
175440,note_on,21,0,9,,,,,,,,12,,,65,44
175539,note_on,99,0,9,,,,,,,,12,,,65,0
175560,note_on,21,0,9,,,,,,,,12,,,62,44
175659,note_on,99,0,9,,,,,,,,12,,,62,0
175680,note_on,10321,0,7,,,,,,,,2,,,60,80
175680,note_on,10321,0,10,,,,,,,,13,,,72,80
175680,note_on,10321,0,6,,,,,,,,1,,,48,80
175680,note_on,10321,0,11,,,,,,,,14,,,60,80
175680,note_on,21,0,9,,,,,,,,12,,,60,80
175680,note_on,6961,0,5,,,,,,,,0,,,84,80
175680,note_on,0,0,5,,,,,,,,0,,,72,80
175680,note_on,241,0,8,,,,,,,,11,,,72,80
175680,note_on,0,0,7,,,,,,,,2,,,72,80
175680,note_on,0,0,6,,,,,,,,1,,,60,80
175680,note_on,10321,0,12,,,,,,,,15,,,48,80
175779,note_on,99,0,11,,,,,,,,14,,,60,0
175779,note_on,99,0,10,,,,,,,,13,,,72,0
175779,note_on,99,0,8,,,,,,,,11,,,72,0
175779,note_on,99,0,9,,,,,,,,12,,,60,0
175779,note_on,99,0,12,,,,,,,,15,,,48,0
175800,note_on,21,0,12,,,,,,,,15,,,50,80
175800,note_on,21,0,9,,,,,,,,12,,,62,80
175800,note_on,21,0,11,,,,,,,,14,,,62,80
175800,note_on,21,0,10,,,,,,,,13,,,74,80
175800,note_on,21,0,8,,,,,,,,11,,,74,80
175899,note_on,99,0,8,,,,,,,,11,,,74,0
175899,note_on,99,0,11,,,,,,,,14,,,62,0
175899,note_on,99,0,12,,,,,,,,15,,,50,0
175899,note_on,99,0,9,,,,,,,,12,,,62,0
175899,note_on,99,0,10,,,,,,,,13,,,74,0
175920,note_on,21,0,8,,,,,,,,11,,,76,80
175920,note_on,21,0,9,,,,,,,,12,,,64,80
175920,note_on,21,0,11,,,,,,,,14,,,64,80
175920,note_on,21,0,12,,,,,,,,15,,,52,80
175920,note_on,21,0,10,,,,,,,,13,,,76,80
176019,note_on,99,0,8,,,,,,,,11,,,76,0
176019,note_on,99,0,11,,,,,,,,14,,,64,0
176019,note_on,99,0,12,,,,,,,,15,,,52,0
176019,note_on,99,0,9,,,,,,,,12,,,64,0
176019,note_on,99,0,10,,,,,,,,13,,,76,0
176040,note_on,21,0,10,,,,,,,,13,,,72,80
176040,note_on,21,0,11,,,,,,,,14,,,60,80
176040,note_on,21,0,12,,,,,,,,15,,,48,80
176040,note_on,21,0,8,,,,,,,,11,,,72,80
176040,note_on,21,0,9,,,,,,,,12,,,60,80
176139,note_on,99,0,11,,,,,,,,14,,,60,0
176139,note_on,0,0,6,,,,,,,,1,,,48,0
176139,note_on,459,0,6,,,,,,,,1,,,60,0
176139,note_on,99,0,12,,,,,,,,15,,,48,0
176139,note_on,99,0,8,,,,,,,,11,,,72,0
176139,note_on,459,0,7,,,,,,,,2,,,72,0
176139,note_on,0,0,7,,,,,,,,2,,,60,0
176139,note_on,0,0,5,,,,,,,,0,,,84,0
176139,note_on,459,0,5,,,,,,,,0,,,72,0
176139,note_on,99,0,9,,,,,,,,12,,,60,0
176139,note_on,99,0,10,,,,,,,,13,,,72,0
176160,note_on,21,0,6,,,,,,,,1,,,43,80
176160,note_on,21,0,9,,,,,,,,12,,,55,80
176160,note_on,0,0,6,,,,,,,,1,,,55,80
176160,note_on,21,0,10,,,,,,,,13,,,67,80
176160,note_on,0,0,5,,,,,,,,0,,,79,80
176160,note_on,21,0,11,,,,,,,,14,,,55,80
176160,note_on,21,0,7,,,,,,,,2,,,55,80
176160,note_on,0,0,7,,,,,,,,2,,,67,80
176160,note_on,21,0,5,,,,,,,,0,,,67,80
176160,note_on,21,0,8,,,,,,,,11,,,67,80
176160,note_on,21,0,12,,,,,,,,15,,,43,80
176259,note_on,99,0,10,,,,,,,,13,,,67,0
176259,note_on,99,0,9,,,,,,,,12,,,55,0
176259,note_on,99,0,12,,,,,,,,15,,,43,0
176259,note_on,99,0,8,,,,,,,,11,,,67,0
176259,note_on,99,0,11,,,,,,,,14,,,55,0
176280,note_on,21,0,12,,,,,,,,15,,,45,80
176280,note_on,21,0,8,,,,,,,,11,,,69,80
176280,note_on,21,0,10,,,,,,,,13,,,69,80
176280,note_on,21,0,9,,,,,,,,12,,,57,80
176280,note_on,21,0,11,,,,,,,,14,,,57,80
176379,note_on,99,0,10,,,,,,,,13,,,69,0
176379,note_on,99,0,11,,,,,,,,14,,,57,0
176379,note_on,99,0,12,,,,,,,,15,,,45,0
176379,note_on,99,0,9,,,,,,,,12,,,57,0
176379,note_on,99,0,8,,,,,,,,11,,,69,0
176400,note_on,21,0,9,,,,,,,,12,,,59,80
176400,note_on,21,0,8,,,,,,,,11,,,71,80
176400,note_on,21,0,11,,,,,,,,14,,,59,80
176400,note_on,21,0,12,,,,,,,,15,,,47,80
176400,note_on,21,0,10,,,,,,,,13,,,71,80
176499,note_on,99,0,8,,,,,,,,11,,,71,0
176499,note_on,99,0,10,,,,,,,,13,,,71,0
176499,note_on,99,0,9,,,,,,,,12,,,59,0
176499,note_on,99,0,11,,,,,,,,14,,,59,0
176499,note_on,99,0,12,,,,,,,,15,,,47,0
176520,note_on,21,0,8,,,,,,,,11,,,67,80
176520,note_on,21,0,9,,,,,,,,12,,,55,80
176520,note_on,21,0,10,,,,,,,,13,,,67,80
176520,note_on,21,0,11,,,,,,,,14,,,55,80
176520,note_on,21,0,12,,,,,,,,15,,,43,80
176619,note_on,459,0,5,,,,,,,,0,,,79,0
176619,note_on,0,0,6,,,,,,,,1,,,43,0
176619,note_on,99,0,9,,,,,,,,12,,,55,0
176619,note_on,0,0,5,,,,,,,,0,,,67,0
176619,note_on,459,0,7,,,,,,,,2,,,67,0
176619,note_on,99,0,12,,,,,,,,15,,,43,0
176619,note_on,459,0,6,,,,,,,,1,,,55,0
176619,note_on,99,0,10,,,,,,,,13,,,67,0
176619,note_on,0,0,7,,,,,,,,2,,,55,0
176619,note_on,99,0,8,,,,,,,,11,,,67,0
176619,note_on,99,0,11,,,,,,,,14,,,55,0
176640,note_on,21,0,7,,,,,,,,2,,,72,80
176640,note_on,0,0,7,,,,,,,,2,,,60,80
176640,note_on,21,0,6,,,,,,,,1,,,48,80
176640,note_on,21,0,5,,,,,,,,0,,,84,80
176640,note_on,0,0,5,,,,,,,,0,,,72,80
176640,note_on,21,0,9,,,,,,,,12,,,60,80
176640,note_on,21,0,11,,,,,,,,14,,,60,80
176640,note_on,21,0,10,,,,,,,,13,,,72,80
176640,note_on,0,0,6,,,,,,,,1,,,60,80
176640,note_on,21,0,8,,,,,,,,11,,,72,80
176640,note_on,21,0,12,,,,,,,,15,,,48,80
176739,note_on,99,0,11,,,,,,,,14,,,60,0
176739,note_on,99,0,10,,,,,,,,13,,,72,0
176739,note_on,99,0,9,,,,,,,,12,,,60,0
176739,note_on,99,0,8,,,,,,,,11,,,72,0
176739,note_on,99,0,12,,,,,,,,15,,,48,0
176760,note_on,21,0,12,,,,,,,,15,,,50,80
176760,note_on,21,0,9,,,,,,,,12,,,62,80
176760,note_on,21,0,11,,,,,,,,14,,,62,80
176760,note_on,21,0,10,,,,,,,,13,,,74,80
176760,note_on,21,0,8,,,,,,,,11,,,74,80
176859,note_on,99,0,12,,,,,,,,15,,,50,0
176859,note_on,99,0,10,,,,,,,,13,,,74,0
176859,note_on,99,0,11,,,,,,,,14,,,62,0
176859,note_on,99,0,8,,,,,,,,11,,,74,0
176859,note_on,99,0,9,,,,,,,,12,,,62,0
176880,note_on,21,0,10,,,,,,,,13,,,76,80
176880,note_on,21,0,11,,,,,,,,14,,,64,80
176880,note_on,21,0,9,,,,,,,,12,,,64,80
176880,note_on,21,0,8,,,,,,,,11,,,76,80
176880,note_on,21,0,12,,,,,,,,15,,,52,80
176979,note_on,99,0,11,,,,,,,,14,,,64,0
176979,note_on,99,0,9,,,,,,,,12,,,64,0
176979,note_on,99,0,12,,,,,,,,15,,,52,0
176979,note_on,99,0,10,,,,,,,,13,,,76,0
176979,note_on,99,0,8,,,,,,,,11,,,76,0
177000,note_on,21,0,10,,,,,,,,13,,,72,80
177000,note_on,21,0,8,,,,,,,,11,,,72,80
177000,note_on,21,0,9,,,,,,,,12,,,60,80
177000,note_on,21,0,12,,,,,,,,15,,,48,80
177000,note_on,21,0,11,,,,,,,,14,,,60,80
177099,note_on,99,0,8,,,,,,,,11,,,72,0
177099,note_on,99,0,12,,,,,,,,15,,,48,0
177099,note_on,459,0,6,,,,,,,,1,,,60,0
177099,note_on,99,0,11,,,,,,,,14,,,60,0
177099,note_on,459,0,7,,,,,,,,2,,,60,0
177099,note_on,0,0,6,,,,,,,,1,,,48,0
177099,note_on,0,0,5,,,,,,,,0,,,84,0
177099,note_on,459,0,5,,,,,,,,0,,,72,0
177099,note_on,0,0,7,,,,,,,,2,,,72,0
177099,note_on,99,0,10,,,,,,,,13,,,72,0
177099,note_on,99,0,9,,,,,,,,12,,,60,0
177120,note_on,21,0,11,,,,,,,,14,,,55,80
177120,note_on,21,0,7,,,,,,,,2,,,67,80
177120,note_on,0,0,7,,,,,,,,2,,,55,80
177120,note_on,21,0,8,,,,,,,,11,,,67,80
177120,note_on,21,0,10,,,,,,,,13,,,67,80
177120,note_on,0,0,6,,,,,,,,1,,,55,80
177120,note_on,21,0,12,,,,,,,,15,,,43,80
177120,note_on,21,0,5,,,,,,,,0,,,67,80
177120,note_on,21,0,6,,,,,,,,1,,,43,80
177120,note_on,21,0,9,,,,,,,,12,,,55,80
177120,note_on,0,0,5,,,,,,,,0,,,79,80
177219,note_on,99,0,11,,,,,,,,14,,,55,0
177219,note_on,99,0,8,,,,,,,,11,,,67,0
177219,note_on,99,0,12,,,,,,,,15,,,43,0
177219,note_on,99,0,10,,,,,,,,13,,,67,0
177219,note_on,99,0,9,,,,,,,,12,,,55,0
177240,note_on,21,0,8,,,,,,,,11,,,69,80
177240,note_on,21,0,10,,,,,,,,13,,,69,80
177240,note_on,21,0,12,,,,,,,,15,,,45,80
177240,note_on,21,0,9,,,,,,,,12,,,57,80
177240,note_on,21,0,11,,,,,,,,14,,,57,80
177339,note_on,99,0,9,,,,,,,,12,,,57,0
177339,note_on,99,0,8,,,,,,,,11,,,69,0
177339,note_on,99,0,12,,,,,,,,15,,,45,0
177339,note_on,99,0,11,,,,,,,,14,,,57,0
177339,note_on,99,0,10,,,,,,,,13,,,69,0
177360,note_on,21,0,10,,,,,,,,13,,,71,80
177360,note_on,21,0,11,,,,,,,,14,,,59,80
177360,note_on,21,0,9,,,,,,,,12,,,59,80
177360,note_on,21,0,12,,,,,,,,15,,,47,80
177360,note_on,21,0,8,,,,,,,,11,,,71,80
177459,note_on,99,0,8,,,,,,,,11,,,71,0
177459,note_on,99,0,10,,,,,,,,13,,,71,0
177459,note_on,99,0,11,,,,,,,,14,,,59,0
177459,note_on,99,0,9,,,,,,,,12,,,59,0
177459,note_on,99,0,12,,,,,,,,15,,,47,0
177480,note_on,21,0,10,,,,,,,,13,,,67,80
177480,note_on,21,0,9,,,,,,,,12,,,55,80
177480,note_on,21,0,11,,,,,,,,14,,,55,80
177480,note_on,21,0,8,,,,,,,,11,,,67,80
177480,note_on,21,0,12,,,,,,,,15,,,43,80
177579,note_on,99,0,11,,,,,,,,14,,,55,0
177579,note_on,99,0,10,,,,,,,,13,,,67,0
177579,note_on,459,0,7,,,,,,,,2,,,55,0
177579,note_on,0,0,7,,,,,,,,2,,,67,0
177579,note_on,459,0,6,,,,,,,,1,,,55,0
177579,note_on,0,0,6,,,,,,,,1,,,43,0
177579,note_on,99,0,12,,,,,,,,15,,,43,0
177579,note_on,99,0,9,,,,,,,,12,,,55,0
177579,note_on,0,0,5,,,,,,,,0,,,67,0
177579,note_on,99,0,8,,,,,,,,11,,,67,0
177579,note_on,459,0,5,,,,,,,,0,,,79,0
177600,note_on,21,0,9,,,,,,,,12,,,60,80
177600,note_on,0,0,5,,,,,,,,0,,,72,80
177600,note_on,21,0,11,,,,,,,,14,,,60,80
177600,note_on,21,0,10,,,,,,,,13,,,72,80
177600,note_on,0,0,6,,,,,,,,1,,,48,80
177600,note_on,21,0,6,,,,,,,,1,,,60,80
177600,note_on,21,0,5,,,,,,,,0,,,84,80
177600,note_on,0,0,7,,,,,,,,2,,,60,80
177600,note_on,21,0,7,,,,,,,,2,,,72,80
177600,note_on,21,0,8,,,,,,,,11,,,72,80
177600,note_on,21,0,12,,,,,,,,15,,,48,80
177699,note_on,99,0,8,,,,,,,,11,,,72,0
177699,note_on,99,0,9,,,,,,,,12,,,60,0
177720,note_on,21,0,9,,,,,,,,12,,,62,80
177720,note_on,21,0,8,,,,,,,,11,,,74,80
177819,note_on,99,0,9,,,,,,,,12,,,62,0
177819,note_on,99,0,8,,,,,,,,11,,,74,0
177840,note_on,21,0,9,,,,,,,,12,,,64,80
177840,note_on,21,0,8,,,,,,,,11,,,76,80
177939,note_on,99,0,9,,,,,,,,12,,,64,0
177939,note_on,99,0,8,,,,,,,,11,,,76,0
177960,note_on,21,0,8,,,,,,,,11,,,72,80
177960,note_on,21,0,9,,,,,,,,12,,,60,80
178059,note_on,99,0,9,,,,,,,,12,,,60,0
178059,note_on,99,0,8,,,,,,,,11,,,72,0
178079,note_on,479,0,11,,,,,,,,14,,,60,0
178079,note_on,479,0,12,,,,,,,,15,,,48,0
178079,note_on,479,0,10,,,,,,,,13,,,72,0
178079,note_on,0,0,5,,,,,,,,0,,,84,0
178079,note_on,479,0,5,,,,,,,,0,,,72,0
178079,note_on,479,0,7,,,,,,,,2,,,60,0
178079,note_on,479,0,6,,,,,,,,1,,,48,0
178079,note_on,0,0,6,,,,,,,,1,,,60,0
178079,note_on,0,0,7,,,,,,,,2,,,72,0
178080,note_on,21,0,9,,,,,,,,12,,,67,80
178080,note_on,21,0,8,,,,,,,,11,,,76,80
178179,note_on,99,0,9,,,,,,,,12,,,67,0
178179,note_on,99,0,8,,,,,,,,11,,,76,0
178200,note_on,21,0,8,,,,,,,,11,,,77,80
178200,note_on,21,0,9,,,,,,,,12,,,69,80
178299,note_on,99,0,8,,,,,,,,11,,,77,0
178299,note_on,99,0,9,,,,,,,,12,,,69,0
178320,note_on,21,0,9,,,,,,,,12,,,70,80
178320,note_on,21,0,8,,,,,,,,11,,,79,80
178419,note_on,99,0,8,,,,,,,,11,,,79,0
178419,note_on,99,0,9,,,,,,,,12,,,70,0
178440,note_on,21,0,8,,,,,,,,11,,,76,80
178440,note_on,21,0,9,,,,,,,,12,,,67,80
178539,note_on,99,0,8,,,,,,,,11,,,76,0
178539,note_on,99,0,9,,,,,,,,12,,,67,0
178560,note_on,21,0,9,,,,,,,,12,,,69,80
178560,note_on,21,0,8,,,,,,,,11,,,77,80
178659,note_on,99,0,9,,,,,,,,12,,,69,0
178659,note_on,99,0,8,,,,,,,,11,,,77,0
178680,note_on,21,0,9,,,,,,,,12,,,70,80
178680,note_on,21,0,8,,,,,,,,11,,,79,80
178779,note_on,99,0,8,,,,,,,,11,,,79,0
178779,note_on,99,0,9,,,,,,,,12,,,70,0
178800,note_on,21,0,9,,,,,,,,12,,,72,80
178800,note_on,21,0,8,,,,,,,,11,,,81,80
178899,note_on,99,0,9,,,,,,,,12,,,72,0
178899,note_on,99,0,8,,,,,,,,11,,,81,0
178920,note_on,21,0,9,,,,,,,,12,,,69,80
178920,note_on,21,0,8,,,,,,,,11,,,77,80
179019,note_on,99,0,9,,,,,,,,12,,,69,0
179019,note_on,99,0,8,,,,,,,,11,,,77,0
179040,note_on,0,0,6,,,,,,,,1,,,64,80
179040,note_on,961,0,6,,,,,,,,1,,,60,80
179040,note_on,21,0,8,,,,,,,,11,,,79,80
179040,note_on,0,0,7,,,,,,,,2,,,72,80
179040,note_on,961,0,5,,,,,,,,0,,,82,80
179040,note_on,0,0,5,,,,,,,,0,,,76,80
179040,note_on,961,0,10,,,,,,,,13,,,60,80
179040,note_on,961,0,12,,,,,,,,15,,,36,80
179040,note_on,961,0,11,,,,,,,,14,,,48,80
179040,note_on,961,0,7,,,,,,,,2,,,60,80
179040,note_on,21,0,9,,,,,,,,12,,,64,80
179139,note_on,99,0,9,,,,,,,,12,,,64,0
179139,note_on,99,0,8,,,,,,,,11,,,79,0
179160,note_on,21,0,8,,,,,,,,11,,,81,80
179160,note_on,21,0,9,,,,,,,,12,,,65,80
179259,note_on,99,0,8,,,,,,,,11,,,81,0
179259,note_on,99,0,9,,,,,,,,12,,,65,0
179280,note_on,21,0,8,,,,,,,,11,,,82,80
179280,note_on,21,0,9,,,,,,,,12,,,67,80
179379,note_on,99,0,9,,,,,,,,12,,,67,0
179379,note_on,99,0,8,,,,,,,,11,,,82,0
179400,note_on,21,0,8,,,,,,,,11,,,79,80
179400,note_on,21,0,9,,,,,,,,12,,,64,80
179499,note_on,459,0,10,,,,,,,,13,,,60,0
179499,note_on,99,0,8,,,,,,,,11,,,79,0
179499,note_on,0,0,7,,,,,,,,2,,,60,0
179499,note_on,459,0,6,,,,,,,,1,,,64,0
179499,note_on,99,0,9,,,,,,,,12,,,64,0
179499,note_on,459,0,11,,,,,,,,14,,,48,0
179499,note_on,459,0,7,,,,,,,,2,,,72,0
179499,note_on,459,0,12,,,,,,,,15,,,36,0
179499,note_on,0,0,6,,,,,,,,1,,,60,0
179519,note_on,0,0,5,,,,,,,,0,,,82,0
179519,note_on,479,0,5,,,,,,,,0,,,76,0
179520,note_on,0,0,6,,,,,,,,1,,,60,80
179520,note_on,21,0,12,,,,,,,,15,,,41,80
179520,note_on,21,0,6,,,,,,,,1,,,65,80
179520,note_on,21,0,8,,,,,,,,11,,,81,80
179520,note_on,21,0,9,,,,,,,,12,,,65,80
179520,note_on,21,0,10,,,,,,,,13,,,65,80
179520,note_on,21,0,7,,,,,,,,2,,,72,80
179520,note_on,21,0,11,,,,,,,,14,,,53,80
179520,note_on,0,0,5,,,,,,,,0,,,81,80
179520,note_on,1,0,5,,,,,,,,0,,,77,80
179520,note_on,0,0,7,,,,,,,,2,,,60,80
179619,note_on,99,0,9,,,,,,,,12,,,65,0
179619,note_on,99,0,8,,,,,,,,11,,,81,0
179640,note_on,21,0,9,,,,,,,,12,,,67,80
179640,note_on,21,0,8,,,,,,,,11,,,82,80
179739,note_on,99,0,9,,,,,,,,12,,,67,0
179739,note_on,99,0,8,,,,,,,,11,,,82,0
179760,note_on,21,0,9,,,,,,,,12,,,69,80
179760,note_on,21,0,8,,,,,,,,11,,,84,80
179859,note_on,99,0,9,,,,,,,,12,,,69,0
179859,note_on,99,0,8,,,,,,,,11,,,84,0
179880,note_on,21,0,9,,,,,,,,12,,,65,80
179880,note_on,21,0,8,,,,,,,,11,,,81,80
179979,note_on,99,0,8,,,,,,,,11,,,81,0
179979,note_on,99,0,9,,,,,,,,12,,,65,0
179999,note_on,0,0,6,,,,,,,,1,,,65,0
179999,note_on,479,0,6,,,,,,,,1,,,60,0
179999,note_on,0,0,7,,,,,,,,2,,,72,0
179999,note_on,479,0,7,,,,,,,,2,,,60,0
179999,note_on,479,0,10,,,,,,,,13,,,65,0
179999,note_on,479,0,11,,,,,,,,14,,,53,0
179999,note_on,0,0,5,,,,,,,,0,,,77,0
179999,note_on,479,0,5,,,,,,,,0,,,81,0
179999,note_on,479,0,12,,,,,,,,15,,,41,0
180000,note_on,21,0,8,,,,,,,,11,,,78,80
180000,note_on,21,0,9,,,,,,,,12,,,69,80
180099,note_on,99,0,9,,,,,,,,12,,,69,0
180099,note_on,99,0,8,,,,,,,,11,,,78,0
180120,note_on,21,0,9,,,,,,,,12,,,71,80
180120,note_on,21,0,8,,,,,,,,11,,,79,80
180219,note_on,99,0,9,,,,,,,,12,,,71,0
180219,note_on,99,0,8,,,,,,,,11,,,79,0
180240,note_on,21,0,8,,,,,,,,11,,,81,80
180240,note_on,21,0,9,,,,,,,,12,,,72,80
180339,note_on,99,0,9,,,,,,,,12,,,72,0
180339,note_on,99,0,8,,,,,,,,11,,,81,0
180360,note_on,21,0,8,,,,,,,,11,,,78,80
180360,note_on,21,0,9,,,,,,,,12,,,69,80
180459,note_on,99,0,9,,,,,,,,12,,,69,0
180459,note_on,99,0,8,,,,,,,,11,,,78,0
180480,note_on,21,0,9,,,,,,,,12,,,71,80
180480,note_on,21,0,8,,,,,,,,11,,,79,80
180579,note_on,99,0,8,,,,,,,,11,,,79,0
180579,note_on,99,0,9,,,,,,,,12,,,71,0
180600,note_on,21,0,8,,,,,,,,11,,,81,80
180600,note_on,21,0,9,,,,,,,,12,,,72,80
180699,note_on,99,0,9,,,,,,,,12,,,72,0
180699,note_on,99,0,8,,,,,,,,11,,,81,0
180720,note_on,21,0,8,,,,,,,,11,,,83,80
180720,note_on,21,0,9,,,,,,,,12,,,74,80
180819,note_on,99,0,8,,,,,,,,11,,,83,0
180819,note_on,99,0,9,,,,,,,,12,,,74,0
180840,note_on,21,0,9,,,,,,,,12,,,71,80
180840,note_on,21,0,8,,,,,,,,11,,,79,80
180939,note_on,99,0,8,,,,,,,,11,,,79,0
180939,note_on,99,0,9,,,,,,,,12,,,71,0
180960,note_on,961,0,12,,,,,,,,15,,,38,80
180960,note_on,961,0,5,,,,,,,,0,,,78,80
180960,note_on,0,0,6,,,,,,,,1,,,62,80
180960,note_on,961,0,6,,,,,,,,1,,,66,80
180960,note_on,21,0,9,,,,,,,,12,,,66,80
180960,note_on,961,0,11,,,,,,,,14,,,50,80
180960,note_on,0,0,5,,,,,,,,0,,,84,80
180960,note_on,961,0,10,,,,,,,,13,,,62,80
180960,note_on,961,0,7,,,,,,,,2,,,74,80
180960,note_on,21,0,8,,,,,,,,11,,,81,80
181059,note_on,99,0,8,,,,,,,,11,,,81,0
181059,note_on,99,0,9,,,,,,,,12,,,66,0
181080,note_on,21,0,9,,,,,,,,12,,,67,80
181080,note_on,21,0,8,,,,,,,,11,,,83,80
181179,note_on,99,0,8,,,,,,,,11,,,83,0
181179,note_on,99,0,9,,,,,,,,12,,,67,0
181200,note_on,21,0,9,,,,,,,,12,,,69,80
181200,note_on,21,0,8,,,,,,,,11,,,84,80
181299,note_on,99,0,9,,,,,,,,12,,,69,0
181299,note_on,99,0,8,,,,,,,,11,,,84,0
181320,note_on,21,0,9,,,,,,,,12,,,66,80
181320,note_on,21,0,8,,,,,,,,11,,,81,80
181419,note_on,459,0,7,,,,,,,,2,,,74,0
181419,note_on,99,0,9,,,,,,,,12,,,66,0
181419,note_on,459,0,10,,,,,,,,13,,,62,0
181419,note_on,459,0,12,,,,,,,,15,,,38,0
181419,note_on,99,0,8,,,,,,,,11,,,81,0
181419,note_on,0,0,6,,,,,,,,1,,,66,0
181419,note_on,459,0,6,,,,,,,,1,,,62,0
181419,note_on,459,0,11,,,,,,,,14,,,50,0
181439,note_on,479,0,5,,,,,,,,0,,,84,0
181439,note_on,0,0,5,,,,,,,,0,,,78,0
181440,note_on,21,0,6,,,,,,,,1,,,67,80
181440,note_on,0,0,5,,,,,,,,0,,,79,80
181440,note_on,21,0,12,,,,,,,,15,,,43,80
181440,note_on,21,0,10,,,,,,,,13,,,67,80
181440,note_on,21,0,7,,,,,,,,2,,,67,80
181440,note_on,0,0,7,,,,,,,,2,,,74,80
181440,note_on,0,0,6,,,,,,,,1,,,62,80
181440,note_on,21,0,9,,,,,,,,12,,,67,80
181440,note_on,21,0,11,,,,,,,,14,,,55,80
181440,note_on,21,0,8,,,,,,,,11,,,83,80
181440,note_on,1,0,5,,,,,,,,0,,,83,80
181539,note_on,99,0,8,,,,,,,,11,,,83,0
181539,note_on,99,0,9,,,,,,,,12,,,67,0
181560,note_on,21,0,9,,,,,,,,12,,,69,80
181560,note_on,21,0,8,,,,,,,,11,,,84,80
181659,note_on,99,0,9,,,,,,,,12,,,69,0
181659,note_on,99,0,8,,,,,,,,11,,,84,0
181680,note_on,21,0,9,,,,,,,,12,,,71,80
181680,note_on,21,0,8,,,,,,,,11,,,86,80
181779,note_on,99,0,9,,,,,,,,12,,,71,0
181779,note_on,99,0,8,,,,,,,,11,,,86,0
181800,note_on,21,0,9,,,,,,,,12,,,67,80
181800,note_on,21,0,8,,,,,,,,11,,,83,80
181899,note_on,99,0,8,,,,,,,,11,,,83,0
181899,note_on,99,0,9,,,,,,,,12,,,67,0
181919,note_on,0,0,6,,,,,,,,1,,,67,0
181919,note_on,479,0,6,,,,,,,,1,,,62,0
181919,note_on,479,0,11,,,,,,,,14,,,55,0
181919,note_on,0,0,7,,,,,,,,2,,,67,0
181919,note_on,479,0,7,,,,,,,,2,,,74,0
181919,note_on,479,0,5,,,,,,,,0,,,79,0
181919,note_on,0,0,5,,,,,,,,0,,,83,0
181919,note_on,479,0,10,,,,,,,,13,,,67,0
181919,note_on,479,0,12,,,,,,,,15,,,43,0
181920,note_on,21,0,9,,,,,,,,12,,,62,80
181920,note_on,21,0,8,,,,,,,,11,,,71,80
182019,note_on,99,0,9,,,,,,,,12,,,62,0
182019,note_on,99,0,8,,,,,,,,11,,,71,0
182040,note_on,21,0,8,,,,,,,,11,,,72,80
182040,note_on,21,0,9,,,,,,,,12,,,64,80
182139,note_on,99,0,8,,,,,,,,11,,,72,0
182139,note_on,99,0,9,,,,,,,,12,,,64,0
182160,note_on,21,0,9,,,,,,,,12,,,65,80
182160,note_on,21,0,8,,,,,,,,11,,,74,80
182259,note_on,99,0,9,,,,,,,,12,,,65,0
182259,note_on,99,0,8,,,,,,,,11,,,74,0
182280,note_on,21,0,9,,,,,,,,12,,,62,80
182280,note_on,21,0,8,,,,,,,,11,,,71,80
182379,note_on,99,0,9,,,,,,,,12,,,62,0
182379,note_on,99,0,8,,,,,,,,11,,,71,0
182400,note_on,21,0,9,,,,,,,,12,,,64,80
182400,note_on,21,0,8,,,,,,,,11,,,72,80
182499,note_on,99,0,8,,,,,,,,11,,,72,0
182499,note_on,99,0,9,,,,,,,,12,,,64,0
182520,note_on,21,0,8,,,,,,,,11,,,74,80
182520,note_on,21,0,9,,,,,,,,12,,,65,80
182619,note_on,99,0,9,,,,,,,,12,,,65,0
182619,note_on,99,0,8,,,,,,,,11,,,74,0
182640,note_on,21,0,9,,,,,,,,12,,,67,80
182640,note_on,21,0,8,,,,,,,,11,,,76,80
182739,note_on,99,0,9,,,,,,,,12,,,67,0
182739,note_on,99,0,8,,,,,,,,11,,,76,0
182760,note_on,21,0,9,,,,,,,,12,,,64,80
182760,note_on,21,0,8,,,,,,,,11,,,72,80
182859,note_on,99,0,9,,,,,,,,12,,,64,0
182859,note_on,99,0,8,,,,,,,,11,,,72,0
182880,note_on,21,0,9,,,,,,,,12,,,59,80
182880,note_on,21,0,8,,,,,,,,11,,,74,80
182979,note_on,99,0,8,,,,,,,,11,,,74,0
182979,note_on,99,0,9,,,,,,,,12,,,59,0
183000,note_on,21,0,8,,,,,,,,11,,,76,80
183000,note_on,21,0,9,,,,,,,,12,,,60,80
183099,note_on,99,0,8,,,,,,,,11,,,76,0
183099,note_on,99,0,9,,,,,,,,12,,,60,0
183120,note_on,21,0,8,,,,,,,,11,,,77,80
183120,note_on,21,0,9,,,,,,,,12,,,62,80
183219,note_on,99,0,8,,,,,,,,11,,,77,0
183219,note_on,99,0,9,,,,,,,,12,,,62,0
183240,note_on,21,0,9,,,,,,,,12,,,59,80
183240,note_on,21,0,8,,,,,,,,11,,,74,80
183339,note_on,99,0,9,,,,,,,,12,,,59,0
183339,note_on,99,0,8,,,,,,,,11,,,74,0
183360,note_on,0,0,7,,,,,,,,2,,,72,80
183360,note_on,1441,0,5,,,,,,,,0,,,79,80
183360,note_on,1441,0,10,,,,,,,,13,,,72,80
183360,note_on,1441,0,12,,,,,,,,15,,,48,80
183360,note_on,1441,0,11,,,,,,,,14,,,60,80
183360,note_on,21,0,8,,,,,,,,11,,,76,80
183360,note_on,1441,0,7,,,,,,,,2,,,60,80
183360,note_on,1441,0,6,,,,,,,,1,,,60,80
183360,note_on,21,0,9,,,,,,,,12,,,60,80
183360,note_on,0,0,6,,,,,,,,1,,,48,80
183459,note_on,99,0,8,,,,,,,,11,,,76,0
183459,note_on,99,0,10,,,,,,,,13,,,72,0
183459,note_on,99,0,11,,,,,,,,14,,,60,0
183459,note_on,99,0,12,,,,,,,,15,,,48,0
183480,note_on,21,0,10,,,,,,,,13,,,74,80
183480,note_on,21,0,12,,,,,,,,15,,,50,80
183480,note_on,21,0,11,,,,,,,,14,,,62,80
183480,note_on,21,0,8,,,,,,,,11,,,77,80
183579,note_on,99,0,8,,,,,,,,11,,,77,0
183579,note_on,99,0,12,,,,,,,,15,,,50,0
183579,note_on,99,0,10,,,,,,,,13,,,74,0
183579,note_on,219,0,9,,,,,,,,12,,,60,0
183579,note_on,99,0,11,,,,,,,,14,,,62,0
183599,note_on,0,0,7,,,,,,,,2,,,60,0
183599,note_on,239,0,7,,,,,,,,2,,,72,0
183600,note_on,21,0,9,,,,,,,,12,,,72,80
183600,note_on,21,0,8,,,,,,,,11,,,79,80
183600,note_on,21,0,11,,,,,,,,14,,,64,80
183600,note_on,21,0,10,,,,,,,,13,,,76,80
183600,note_on,21,0,12,,,,,,,,15,,,52,80
183699,note_on,99,0,12,,,,,,,,15,,,52,0
183699,note_on,99,0,11,,,,,,,,14,,,64,0
183699,note_on,99,0,10,,,,,,,,13,,,76,0
183699,note_on,99,0,8,,,,,,,,11,,,79,0
183720,note_on,21,0,10,,,,,,,,13,,,72,80
183720,note_on,21,0,8,,,,,,,,11,,,76,80
183720,note_on,21,0,12,,,,,,,,15,,,48,80
183720,note_on,21,0,11,,,,,,,,14,,,60,80
183819,note_on,99,0,8,,,,,,,,11,,,76,0
183819,note_on,99,0,10,,,,,,,,13,,,72,0
183819,note_on,99,0,12,,,,,,,,15,,,48,0
183819,note_on,99,0,11,,,,,,,,14,,,60,0
183840,note_on,21,0,8,,,,,,,,11,,,81,80
183840,note_on,21,0,11,,,,,,,,14,,,53,80
183840,note_on,21,0,10,,,,,,,,13,,,65,80
183840,note_on,480,0,5,,,,,,,,0,,,81,80
183840,note_on,21,0,12,,,,,,,,15,,,41,80
183939,note_on,99,0,10,,,,,,,,13,,,65,0
183939,note_on,99,0,8,,,,,,,,11,,,81,0
183939,note_on,99,0,11,,,,,,,,14,,,53,0
183939,note_on,99,0,12,,,,,,,,15,,,41,0
183960,note_on,21,0,11,,,,,,,,14,,,55,80
183960,note_on,21,0,12,,,,,,,,15,,,43,80
183960,note_on,21,0,8,,,,,,,,11,,,83,80
183960,note_on,21,0,10,,,,,,,,13,,,67,80
184059,note_on,99,0,12,,,,,,,,15,,,43,0
184059,note_on,99,0,8,,,,,,,,11,,,83,0
184059,note_on,99,0,10,,,,,,,,13,,,67,0
184059,note_on,459,0,9,,,,,,,,12,,,72,0
184059,note_on,99,0,11,,,,,,,,14,,,55,0
184080,note_on,21,0,12,,,,,,,,15,,,45,80
184080,note_on,21,0,11,,,,,,,,14,,,57,80
184080,note_on,21,0,8,,,,,,,,11,,,84,80
184080,note_on,21,0,9,,,,,,,,12,,,65,80
184080,note_on,21,0,10,,,,,,,,13,,,69,80
184179,note_on,99,0,12,,,,,,,,15,,,45,0
184179,note_on,99,0,10,,,,,,,,13,,,69,0
184179,note_on,99,0,8,,,,,,,,11,,,84,0
184179,note_on,99,0,11,,,,,,,,14,,,57,0
184200,note_on,21,0,10,,,,,,,,13,,,65,80
184200,note_on,21,0,8,,,,,,,,11,,,81,80
184200,note_on,21,0,11,,,,,,,,14,,,53,80
184200,note_on,21,0,12,,,,,,,,15,,,41,80
184299,note_on,99,0,11,,,,,,,,14,,,53,0
184299,note_on,459,0,5,,,,,,,,0,,,79,0
184299,note_on,99,0,10,,,,,,,,13,,,65,0
184299,note_on,939,0,6,,,,,,,,1,,,48,0
184299,note_on,0,0,6,,,,,,,,1,,,60,0
184299,note_on,99,0,8,,,,,,,,11,,,81,0
184299,note_on,99,0,12,,,,,,,,15,,,41,0
184320,note_on,21,0,12,,,,,,,,15,,,47,80
184320,note_on,21,0,11,,,,,,,,14,,,59,80
184320,note_on,21,0,10,,,,,,,,13,,,71,80
184320,note_on,21,0,5,,,,,,,,0,,,77,80
184320,note_on,21,0,8,,,,,,,,11,,,74,80
184320,note_on,0,0,6,,,,,,,,1,,,62,80
184320,note_on,21,0,6,,,,,,,,1,,,65,80
184419,note_on,99,0,11,,,,,,,,14,,,59,0
184419,note_on,99,0,10,,,,,,,,13,,,71,0
184419,note_on,99,0,8,,,,,,,,11,,,74,0
184419,note_on,99,0,12,,,,,,,,15,,,47,0
184440,note_on,21,0,10,,,,,,,,13,,,72,80
184440,note_on,21,0,11,,,,,,,,14,,,60,80
184440,note_on,21,0,12,,,,,,,,15,,,48,80
184440,note_on,21,0,8,,,,,,,,11,,,76,80
184539,note_on,99,0,8,,,,,,,,11,,,76,0
184539,note_on,99,0,12,,,,,,,,15,,,48,0
184539,note_on,99,0,11,,,,,,,,14,,,60,0
184539,note_on,99,0,10,,,,,,,,13,,,72,0
184539,note_on,459,0,9,,,,,,,,12,,,65,0
184560,note_on,21,0,12,,,,,,,,15,,,50,80
184560,note_on,21,0,11,,,,,,,,14,,,62,80
184560,note_on,21,0,8,,,,,,,,11,,,77,80
184560,note_on,21,0,10,,,,,,,,13,,,74,80
184560,note_on,21,0,9,,,,,,,,12,,,71,80
184659,note_on,99,0,11,,,,,,,,14,,,62,0
184659,note_on,99,0,10,,,,,,,,13,,,74,0
184659,note_on,99,0,8,,,,,,,,11,,,77,0
184659,note_on,99,0,12,,,,,,,,15,,,50,0
184680,note_on,21,0,8,,,,,,,,11,,,74,80
184680,note_on,21,0,12,,,,,,,,15,,,47,80
184680,note_on,21,0,10,,,,,,,,13,,,71,80
184680,note_on,21,0,11,,,,,,,,14,,,59,80
184779,note_on,459,0,6,,,,,,,,1,,,65,0
184779,note_on,459,0,5,,,,,,,,0,,,81,0
184779,note_on,99,0,8,,,,,,,,11,,,74,0
184779,note_on,99,0,10,,,,,,,,13,,,71,0
184779,note_on,99,0,12,,,,,,,,15,,,47,0
184779,note_on,99,0,11,,,,,,,,14,,,59,0
184800,note_on,21,0,5,,,,,,,,0,,,79,80
184800,note_on,21,0,12,,,,,,,,15,,,40,80
184800,note_on,21,0,8,,,,,,,,11,,,79,80
184800,note_on,21,0,6,,,,,,,,1,,,64,80
184800,note_on,21,0,10,,,,,,,,13,,,64,80
184800,note_on,21,0,11,,,,,,,,14,,,52,80
184899,note_on,99,0,8,,,,,,,,11,,,79,0
184899,note_on,99,0,12,,,,,,,,15,,,40,0
184899,note_on,99,0,10,,,,,,,,13,,,64,0
184899,note_on,99,0,11,,,,,,,,14,,,52,0
184920,note_on,21,0,10,,,,,,,,13,,,65,80
184920,note_on,21,0,8,,,,,,,,11,,,81,80
184920,note_on,21,0,12,,,,,,,,15,,,41,80
184920,note_on,21,0,11,,,,,,,,14,,,53,80
185019,note_on,99,0,8,,,,,,,,11,,,81,0
185019,note_on,99,0,10,,,,,,,,13,,,65,0
185019,note_on,459,0,9,,,,,,,,12,,,71,0
185019,note_on,99,0,11,,,,,,,,14,,,53,0
185019,note_on,99,0,12,,,,,,,,15,,,41,0
185040,note_on,21,0,9,,,,,,,,12,,,64,80
185040,note_on,21,0,8,,,,,,,,11,,,83,80
185040,note_on,21,0,12,,,,,,,,15,,,43,80
185040,note_on,21,0,11,,,,,,,,14,,,55,80
185040,note_on,21,0,10,,,,,,,,13,,,67,80
185139,note_on,99,0,12,,,,,,,,15,,,43,0
185139,note_on,99,0,11,,,,,,,,14,,,55,0
185139,note_on,99,0,10,,,,,,,,13,,,67,0
185139,note_on,99,0,8,,,,,,,,11,,,83,0
185160,note_on,21,0,12,,,,,,,,15,,,40,80
185160,note_on,21,0,11,,,,,,,,14,,,52,80
185160,note_on,21,0,8,,,,,,,,11,,,79,80
185160,note_on,21,0,10,,,,,,,,13,,,64,80
185259,note_on,99,0,12,,,,,,,,15,,,40,0
185259,note_on,459,0,5,,,,,,,,0,,,77,0
185259,note_on,99,0,10,,,,,,,,13,,,64,0
185259,note_on,99,0,8,,,,,,,,11,,,79,0
185259,note_on,99,0,11,,,,,,,,14,,,52,0
185259,note_on,459,0,6,,,,,,,,1,,,62,0
185280,note_on,21,0,8,,,,,,,,11,,,72,80
185280,note_on,21,0,10,,,,,,,,13,,,69,80
185280,note_on,21,0,11,,,,,,,,14,,,57,80
185280,note_on,21,0,5,,,,,,,,0,,,76,80
185280,note_on,21,0,12,,,,,,,,15,,,45,80
185280,note_on,21,0,6,,,,,,,,1,,,60,80
185379,note_on,99,0,10,,,,,,,,13,,,69,0
185379,note_on,99,0,12,,,,,,,,15,,,45,0
185379,note_on,99,0,11,,,,,,,,14,,,57,0
185379,note_on,99,0,8,,,,,,,,11,,,72,0
185400,note_on,21,0,11,,,,,,,,14,,,59,80
185400,note_on,21,0,10,,,,,,,,13,,,71,80
185400,note_on,21,0,8,,,,,,,,11,,,74,80
185400,note_on,21,0,12,,,,,,,,15,,,47,80
185499,note_on,99,0,10,,,,,,,,13,,,71,0
185499,note_on,99,0,12,,,,,,,,15,,,47,0
185499,note_on,99,0,11,,,,,,,,14,,,59,0
185499,note_on,459,0,9,,,,,,,,12,,,64,0
185499,note_on,99,0,8,,,,,,,,11,,,74,0
185520,note_on,21,0,11,,,,,,,,14,,,60,80
185520,note_on,21,0,12,,,,,,,,15,,,48,80
185520,note_on,21,0,9,,,,,,,,12,,,69,80
185520,note_on,21,0,10,,,,,,,,13,,,72,80
185520,note_on,21,0,8,,,,,,,,11,,,76,80
185619,note_on,99,0,12,,,,,,,,15,,,48,0
185619,note_on,99,0,8,,,,,,,,11,,,76,0
185619,note_on,99,0,11,,,,,,,,14,,,60,0
185619,note_on,99,0,10,,,,,,,,13,,,72,0
185640,note_on,21,0,8,,,,,,,,11,,,72,80
185640,note_on,21,0,10,,,,,,,,13,,,69,80
185640,note_on,21,0,11,,,,,,,,14,,,57,80
185640,note_on,21,0,12,,,,,,,,15,,,45,80
185739,note_on,99,0,10,,,,,,,,13,,,69,0
185739,note_on,459,0,5,,,,,,,,0,,,79,0
185739,note_on,99,0,12,,,,,,,,15,,,45,0
185739,note_on,459,0,6,,,,,,,,1,,,64,0
185739,note_on,99,0,11,,,,,,,,14,,,57,0
185739,note_on,99,0,8,,,,,,,,11,,,72,0
185760,note_on,21,0,8,,,,,,,,11,,,77,80
185760,note_on,21,0,6,,,,,,,,1,,,62,80
185760,note_on,21,0,11,,,,,,,,14,,,50,80
185760,note_on,21,0,5,,,,,,,,0,,,77,80
185760,note_on,21,0,12,,,,,,,,15,,,38,80
185760,note_on,21,0,10,,,,,,,,13,,,62,80
185859,note_on,99,0,11,,,,,,,,14,,,50,0
185859,note_on,99,0,12,,,,,,,,15,,,38,0
185859,note_on,99,0,8,,,,,,,,11,,,77,0
185859,note_on,99,0,10,,,,,,,,13,,,62,0
185880,note_on,21,0,10,,,,,,,,13,,,64,80
185880,note_on,21,0,8,,,,,,,,11,,,79,80
185880,note_on,21,0,12,,,,,,,,15,,,40,80
185880,note_on,21,0,11,,,,,,,,14,,,52,80
185979,note_on,459,0,9,,,,,,,,12,,,69,0
185979,note_on,99,0,10,,,,,,,,13,,,64,0
185979,note_on,99,0,8,,,,,,,,11,,,79,0
185979,note_on,99,0,12,,,,,,,,15,,,40,0
185979,note_on,99,0,11,,,,,,,,14,,,52,0
186000,note_on,21,0,12,,,,,,,,15,,,41,80
186000,note_on,21,0,8,,,,,,,,11,,,81,80
186000,note_on,21,0,9,,,,,,,,12,,,62,80
186000,note_on,21,0,10,,,,,,,,13,,,65,80
186000,note_on,21,0,11,,,,,,,,14,,,53,80
186099,note_on,99,0,8,,,,,,,,11,,,81,0
186099,note_on,99,0,12,,,,,,,,15,,,41,0
186099,note_on,99,0,11,,,,,,,,14,,,53,0
186099,note_on,99,0,10,,,,,,,,13,,,65,0
186120,note_on,21,0,12,,,,,,,,15,,,38,80
186120,note_on,21,0,11,,,,,,,,14,,,50,80
186120,note_on,21,0,10,,,,,,,,13,,,62,80
186120,note_on,21,0,8,,,,,,,,11,,,77,80
186219,note_on,459,0,5,,,,,,,,0,,,76,0
186219,note_on,459,0,6,,,,,,,,1,,,60,0
186219,note_on,99,0,10,,,,,,,,13,,,62,0
186219,note_on,99,0,12,,,,,,,,15,,,38,0
186219,note_on,99,0,11,,,,,,,,14,,,50,0
186219,note_on,99,0,8,,,,,,,,11,,,77,0
186240,note_on,21,0,6,,,,,,,,1,,,55,80
186240,note_on,21,0,10,,,,,,,,13,,,67,80
186240,note_on,21,0,5,,,,,,,,0,,,74,80
186240,note_on,21,0,12,,,,,,,,15,,,43,80
186240,note_on,21,0,11,,,,,,,,14,,,55,80
186240,note_on,21,0,8,,,,,,,,11,,,71,80
186339,note_on,99,0,10,,,,,,,,13,,,67,0
186339,note_on,99,0,11,,,,,,,,14,,,55,0
186339,note_on,99,0,12,,,,,,,,15,,,43,0
186339,note_on,99,0,8,,,,,,,,11,,,71,0
186360,note_on,21,0,11,,,,,,,,14,,,57,80
186360,note_on,21,0,12,,,,,,,,15,,,45,80
186360,note_on,21,0,10,,,,,,,,13,,,69,80
186360,note_on,21,0,8,,,,,,,,11,,,72,80
186459,note_on,99,0,10,,,,,,,,13,,,69,0
186459,note_on,99,0,8,,,,,,,,11,,,72,0
186459,note_on,99,0,12,,,,,,,,15,,,45,0
186459,note_on,459,0,9,,,,,,,,12,,,62,0
186459,note_on,99,0,11,,,,,,,,14,,,57,0
186480,note_on,21,0,8,,,,,,,,11,,,74,80
186480,note_on,21,0,10,,,,,,,,13,,,71,80
186480,note_on,21,0,11,,,,,,,,14,,,59,80
186480,note_on,21,0,9,,,,,,,,12,,,67,80
186480,note_on,21,0,12,,,,,,,,15,,,47,80
186579,note_on,99,0,8,,,,,,,,11,,,74,0
186579,note_on,99,0,11,,,,,,,,14,,,59,0
186579,note_on,99,0,12,,,,,,,,15,,,47,0
186579,note_on,99,0,10,,,,,,,,13,,,71,0
186600,note_on,21,0,11,,,,,,,,14,,,55,80
186600,note_on,21,0,8,,,,,,,,11,,,71,80
186600,note_on,21,0,12,,,,,,,,15,,,43,80
186600,note_on,21,0,10,,,,,,,,13,,,67,80
186699,note_on,459,0,5,,,,,,,,0,,,74,0
186699,note_on,0,0,5,,,,,,,,0,,,77,0
186699,note_on,0,0,6,,,,,,,,1,,,62,0
186699,note_on,99,0,11,,,,,,,,14,,,55,0
186699,note_on,99,0,8,,,,,,,,11,,,71,0
186699,note_on,99,0,10,,,,,,,,13,,,67,0
186699,note_on,99,0,12,,,,,,,,15,,,43,0
186699,note_on,459,0,6,,,,,,,,1,,,55,0
186720,note_on,21,0,6,,,,,,,,1,,,64,80
186720,note_on,21,0,10,,,,,,,,13,,,60,80
186720,note_on,21,0,8,,,,,,,,11,,,76,80
186720,note_on,21,0,11,,,,,,,,14,,,48,80
186720,note_on,21,0,12,,,,,,,,15,,,36,80
186720,note_on,21,0,5,,,,,,,,0,,,72,80
186720,note_on,0,0,6,,,,,,,,1,,,60,80
186720,note_on,0,0,5,,,,,,,,0,,,76,80
186819,note_on,99,0,11,,,,,,,,14,,,48,0
186819,note_on,99,0,10,,,,,,,,13,,,60,0
186819,note_on,99,0,12,,,,,,,,15,,,36,0
186819,note_on,99,0,8,,,,,,,,11,,,76,0
186840,note_on,21,0,11,,,,,,,,14,,,50,80
186840,note_on,21,0,10,,,,,,,,13,,,62,80
186840,note_on,21,0,12,,,,,,,,15,,,38,80
186840,note_on,21,0,8,,,,,,,,11,,,77,80
186939,note_on,99,0,12,,,,,,,,15,,,38,0
186939,note_on,99,0,10,,,,,,,,13,,,62,0
186939,note_on,99,0,8,,,,,,,,11,,,77,0
186939,note_on,99,0,11,,,,,,,,14,,,50,0
186939,note_on,459,0,9,,,,,,,,12,,,67,0
186960,note_on,21,0,11,,,,,,,,14,,,52,80
186960,note_on,21,0,8,,,,,,,,11,,,79,80
186960,note_on,21,0,12,,,,,,,,15,,,40,80
186960,note_on,21,0,9,,,,,,,,12,,,60,80
186960,note_on,21,0,10,,,,,,,,13,,,64,80
187059,note_on,99,0,10,,,,,,,,13,,,64,0
187059,note_on,99,0,12,,,,,,,,15,,,40,0
187059,note_on,99,0,11,,,,,,,,14,,,52,0
187059,note_on,99,0,8,,,,,,,,11,,,79,0
187080,note_on,21,0,12,,,,,,,,15,,,36,80
187080,note_on,21,0,11,,,,,,,,14,,,48,80
187080,note_on,21,0,10,,,,,,,,13,,,60,80
187080,note_on,21,0,8,,,,,,,,11,,,76,80
187179,note_on,99,0,12,,,,,,,,15,,,36,0
187179,note_on,459,0,6,,,,,,,,1,,,60,0
187179,note_on,99,0,10,,,,,,,,13,,,60,0
187179,note_on,99,0,11,,,,,,,,14,,,48,0
187179,note_on,0,0,6,,,,,,,,1,,,64,0
187179,note_on,99,0,8,,,,,,,,11,,,76,0
187179,note_on,0,0,5,,,,,,,,0,,,72,0
187179,note_on,459,0,5,,,,,,,,0,,,76,0
187179,note_on,219,0,9,,,,,,,,12,,,60,0
187200,note_on,21,0,12,,,,,,,,15,,,45,80
187200,note_on,21,0,6,,,,,,,,1,,,60,80
187200,note_on,0,0,6,,,,,,,,1,,,48,80
187200,note_on,21,0,9,,,,,,,,12,,,72,80
187200,note_on,21,0,8,,,,,,,,11,,,78,80
187200,note_on,21,0,11,,,,,,,,14,,,57,80
187200,note_on,0,0,7,,,,,,,,2,,,72,80
187200,note_on,21,0,5,,,,,,,,0,,,72,80
187200,note_on,21,0,10,,,,,,,,13,,,69,80
187200,note_on,0,0,5,,,,,,,,0,,,78,80
187200,note_on,3601,0,7,,,,,,,,2,,,60,80
187299,note_on,99,0,8,,,,,,,,11,,,78,0
187299,note_on,99,0,9,,,,,,,,12,,,72,0
187320,note_on,21,0,9,,,,,,,,12,,,71,80
187320,note_on,21,0,8,,,,,,,,11,,,79,80
187419,note_on,99,0,9,,,,,,,,12,,,71,0
187419,note_on,99,0,8,,,,,,,,11,,,79,0
187439,note_on,239,0,10,,,,,,,,13,,,69,0
187439,note_on,239,0,12,,,,,,,,15,,,45,0
187439,note_on,239,0,7,,,,,,,,2,,,72,0
187439,note_on,0,0,7,,,,,,,,2,,,60,0
187439,note_on,0,0,5,,,,,,,,0,,,72,0
187439,note_on,239,0,5,,,,,,,,0,,,78,0
187439,note_on,0,0,6,,,,,,,,1,,,60,0
187439,note_on,239,0,6,,,,,,,,1,,,48,0
187439,note_on,239,0,11,,,,,,,,14,,,57,0
187440,note_on,21,0,8,,,,,,,,11,,,81,80
187440,note_on,21,0,9,,,,,,,,12,,,69,80
187539,note_on,99,0,8,,,,,,,,11,,,81,0
187539,note_on,99,0,9,,,,,,,,12,,,69,0
187560,note_on,21,0,8,,,,,,,,11,,,83,80
187560,note_on,21,0,9,,,,,,,,12,,,67,80
187659,note_on,99,0,9,,,,,,,,12,,,67,0
187659,note_on,99,0,8,,,,,,,,11,,,83,0
187680,note_on,21,0,8,,,,,,,,11,,,84,80
187680,note_on,21,0,9,,,,,,,,12,,,66,80
187779,note_on,99,0,8,,,,,,,,11,,,84,0
187779,note_on,99,0,9,,,,,,,,12,,,66,0
187800,note_on,21,0,8,,,,,,,,11,,,81,80
187800,note_on,21,0,9,,,,,,,,12,,,69,80
187899,note_on,99,0,8,,,,,,,,11,,,81,0
187899,note_on,99,0,9,,,,,,,,12,,,69,0
187920,note_on,21,0,9,,,,,,,,12,,,71,80
187920,note_on,21,0,8,,,,,,,,11,,,79,80
188019,note_on,99,0,8,,,,,,,,11,,,79,0
188019,note_on,99,0,9,,,,,,,,12,,,71,0
188040,note_on,21,0,8,,,,,,,,11,,,78,80
188040,note_on,21,0,9,,,,,,,,12,,,72,80
188139,note_on,99,0,8,,,,,,,,11,,,78,0
188139,note_on,99,0,9,,,,,,,,12,,,72,0
188160,note_on,0,0,6,,,,,,,,1,,,55,80
188160,note_on,0,0,5,,,,,,,,0,,,71,80
188160,note_on,721,0,5,,,,,,,,0,,,79,80
188160,note_on,721,0,6,,,,,,,,1,,,62,80
188160,note_on,721,0,10,,,,,,,,13,,,67,80
188160,note_on,721,0,11,,,,,,,,14,,,55,80
188160,note_on,721,0,7,,,,,,,,2,,,74,80
188160,note_on,21,0,9,,,,,,,,12,,,71,80
188160,note_on,721,0,12,,,,,,,,15,,,43,80
188160,note_on,0,0,7,,,,,,,,2,,,67,80
188160,note_on,21,0,8,,,,,,,,11,,,79,80
188259,note_on,99,0,8,,,,,,,,11,,,79,0
188259,note_on,99,0,9,,,,,,,,12,,,71,0
188280,note_on,21,0,8,,,,,,,,11,,,78,80
188280,note_on,21,0,9,,,,,,,,12,,,69,80
188379,note_on,99,0,9,,,,,,,,12,,,69,0
188379,note_on,99,0,8,,,,,,,,11,,,78,0
188399,note_on,239,0,11,,,,,,,,14,,,55,0
188399,note_on,239,0,7,,,,,,,,2,,,67,0
188399,note_on,0,0,6,,,,,,,,1,,,62,0
188399,note_on,239,0,6,,,,,,,,1,,,55,0
188399,note_on,239,0,10,,,,,,,,13,,,67,0
188399,note_on,239,0,5,,,,,,,,0,,,71,0
188399,note_on,239,0,12,,,,,,,,15,,,43,0
188399,note_on,0,0,7,,,,,,,,2,,,74,0
188399,note_on,0,0,5,,,,,,,,0,,,79,0
188400,note_on,21,0,9,,,,,,,,12,,,67,80
188400,note_on,21,0,8,,,,,,,,11,,,76,80
188499,note_on,99,0,8,,,,,,,,11,,,76,0
188499,note_on,99,0,9,,,,,,,,12,,,67,0
188520,note_on,21,0,8,,,,,,,,11,,,74,80
188520,note_on,21,0,9,,,,,,,,12,,,66,80
188619,note_on,99,0,8,,,,,,,,11,,,74,0
188619,note_on,99,0,9,,,,,,,,12,,,66,0
188640,note_on,21,0,8,,,,,,,,11,,,72,80
188640,note_on,21,0,9,,,,,,,,12,,,64,80
188739,note_on,99,0,9,,,,,,,,12,,,64,0
188739,note_on,99,0,8,,,,,,,,11,,,72,0
188760,note_on,21,0,9,,,,,,,,12,,,62,80
188760,note_on,21,0,8,,,,,,,,11,,,71,80
188859,note_on,99,0,8,,,,,,,,11,,,71,0
188859,note_on,99,0,9,,,,,,,,12,,,62,0
188880,note_on,21,0,8,,,,,,,,11,,,69,80
188880,note_on,21,0,9,,,,,,,,12,,,60,80
188979,note_on,99,0,8,,,,,,,,11,,,69,0
188979,note_on,99,0,9,,,,,,,,12,,,60,0
189000,note_on,21,0,8,,,,,,,,11,,,67,80
189000,note_on,21,0,9,,,,,,,,12,,,59,80
189099,note_on,99,0,8,,,,,,,,11,,,67,0
189099,note_on,99,0,9,,,,,,,,12,,,59,0
189120,note_on,0,0,6,,,,,,,,1,,,60,80
189120,note_on,721,0,6,,,,,,,,1,,,48,80
189120,note_on,721,0,7,,,,,,,,2,,,72,80
189120,note_on,721,0,11,,,,,,,,14,,,45,80
189120,note_on,0,0,7,,,,,,,,2,,,60,80
189120,note_on,21,0,8,,,,,,,,11,,,66,80
189120,note_on,0,0,5,,,,,,,,0,,,78,80
189120,note_on,721,0,5,,,,,,,,0,,,72,80
189120,note_on,721,0,10,,,,,,,,13,,,57,80
189120,note_on,721,0,12,,,,,,,,15,,,33,80
189120,note_on,21,0,9,,,,,,,,12,,,57,80
189219,note_on,99,0,9,,,,,,,,12,,,57,0
189219,note_on,99,0,8,,,,,,,,11,,,66,0
189240,note_on,21,0,8,,,,,,,,11,,,67,80
189240,note_on,21,0,9,,,,,,,,12,,,59,80
189339,note_on,99,0,8,,,,,,,,11,,,67,0
189339,note_on,99,0,9,,,,,,,,12,,,59,0
189359,note_on,239,0,12,,,,,,,,15,,,33,0
189359,note_on,239,0,5,,,,,,,,0,,,78,0
189359,note_on,0,0,5,,,,,,,,0,,,72,0
189359,note_on,239,0,10,,,,,,,,13,,,57,0
189359,note_on,239,0,11,,,,,,,,14,,,45,0
189359,note_on,0,0,7,,,,,,,,2,,,72,0
189359,note_on,0,0,6,,,,,,,,1,,,48,0
189359,note_on,239,0,6,,,,,,,,1,,,60,0
189359,note_on,239,0,7,,,,,,,,2,,,60,0
189360,note_on,21,0,8,,,,,,,,11,,,69,80
189360,note_on,21,0,9,,,,,,,,12,,,60,80
189459,note_on,99,0,9,,,,,,,,12,,,60,0
189459,note_on,99,0,8,,,,,,,,11,,,69,0
189480,note_on,21,0,8,,,,,,,,11,,,71,80
189480,note_on,21,0,9,,,,,,,,12,,,59,80
189579,note_on,99,0,8,,,,,,,,11,,,71,0
189579,note_on,99,0,9,,,,,,,,12,,,59,0
189600,note_on,21,0,9,,,,,,,,12,,,57,80
189600,note_on,21,0,8,,,,,,,,11,,,72,80
189699,note_on,99,0,8,,,,,,,,11,,,72,0
189699,note_on,99,0,9,,,,,,,,12,,,57,0
189720,note_on,21,0,8,,,,,,,,11,,,69,80
189720,note_on,21,0,9,,,,,,,,12,,,60,80
189819,note_on,99,0,9,,,,,,,,12,,,60,0
189819,note_on,99,0,8,,,,,,,,11,,,69,0
189840,note_on,21,0,9,,,,,,,,12,,,59,80
189840,note_on,21,0,8,,,,,,,,11,,,67,80
189939,note_on,99,0,9,,,,,,,,12,,,59,0
189939,note_on,99,0,8,,,,,,,,11,,,67,0
189960,note_on,21,0,9,,,,,,,,12,,,57,80
189960,note_on,21,0,8,,,,,,,,11,,,66,80
190059,note_on,99,0,9,,,,,,,,12,,,57,0
190059,note_on,99,0,8,,,,,,,,11,,,66,0
190080,note_on,21,0,8,,,,,,,,11,,,67,80
190080,note_on,0,0,6,,,,,,,,1,,,43,80
190080,note_on,721,0,11,,,,,,,,14,,,43,80
190080,note_on,0,0,7,,,,,,,,2,,,67,80
190080,note_on,721,0,7,,,,,,,,2,,,55,80
190080,note_on,721,0,10,,,,,,,,13,,,55,80
190080,note_on,21,0,9,,,,,,,,12,,,55,80
190080,note_on,721,0,12,,,,,,,,15,,,31,80
190080,note_on,721,0,5,,,,,,,,0,,,67,80
190080,note_on,721,0,6,,,,,,,,1,,,55,80
190179,note_on,99,0,9,,,,,,,,12,,,55,0
190179,note_on,99,0,5,,,,,,,,0,,,67,0
190179,note_on,99,0,11,,,,,,,,14,,,43,0
190179,note_on,99,0,10,,,,,,,,13,,,55,0
190179,note_on,99,0,12,,,,,,,,15,,,31,0
190179,note_on,99,0,8,,,,,,,,11,,,67,0
190200,note_on,21,0,5,,,,,,,,0,,,69,80
190200,note_on,21,0,8,,,,,,,,11,,,69,80
190200,note_on,21,0,11,,,,,,,,14,,,45,80
190200,note_on,21,0,9,,,,,,,,12,,,57,80
190200,note_on,21,0,12,,,,,,,,15,,,33,80
190200,note_on,21,0,10,,,,,,,,13,,,57,80
190299,note_on,99,0,12,,,,,,,,15,,,33,0
190299,note_on,99,0,9,,,,,,,,12,,,57,0
190299,note_on,99,0,5,,,,,,,,0,,,69,0
190299,note_on,99,0,11,,,,,,,,14,,,45,0
190299,note_on,99,0,8,,,,,,,,11,,,69,0
190299,note_on,99,0,10,,,,,,,,13,,,57,0
190319,note_on,0,0,7,,,,,,,,2,,,55,0
190319,note_on,239,0,6,,,,,,,,1,,,43,0
190319,note_on,0,0,6,,,,,,,,1,,,55,0
190319,note_on,239,0,7,,,,,,,,2,,,67,0
190320,note_on,21,0,10,,,,,,,,13,,,59,80
190320,note_on,21,0,5,,,,,,,,0,,,71,80
190320,note_on,21,0,12,,,,,,,,15,,,35,80
190320,note_on,21,0,11,,,,,,,,14,,,47,80
190320,note_on,21,0,8,,,,,,,,11,,,71,80
190320,note_on,21,0,9,,,,,,,,12,,,59,80
190419,note_on,99,0,10,,,,,,,,13,,,59,0
190419,note_on,99,0,8,,,,,,,,11,,,71,0
190419,note_on,99,0,11,,,,,,,,14,,,47,0
190419,note_on,99,0,5,,,,,,,,0,,,71,0
190419,note_on,99,0,12,,,,,,,,15,,,35,0
190419,note_on,99,0,9,,,,,,,,12,,,59,0
190440,note_on,21,0,11,,,,,,,,14,,,48,80
190440,note_on,21,0,9,,,,,,,,12,,,60,80
190440,note_on,21,0,10,,,,,,,,13,,,60,80
190440,note_on,21,0,5,,,,,,,,0,,,72,80
190440,note_on,21,0,8,,,,,,,,11,,,72,80
190440,note_on,21,0,12,,,,,,,,15,,,36,80
190539,note_on,99,0,10,,,,,,,,13,,,60,0
190539,note_on,99,0,5,,,,,,,,0,,,72,0
190539,note_on,99,0,12,,,,,,,,15,,,36,0
190539,note_on,99,0,11,,,,,,,,14,,,48,0
190539,note_on,99,0,8,,,,,,,,11,,,72,0
190539,note_on,99,0,9,,,,,,,,12,,,60,0
190560,note_on,21,0,11,,,,,,,,14,,,50,80
190560,note_on,21,0,5,,,,,,,,0,,,74,80
190560,note_on,21,0,9,,,,,,,,12,,,62,80
190560,note_on,21,0,12,,,,,,,,15,,,38,80
190560,note_on,21,0,8,,,,,,,,11,,,74,80
190560,note_on,21,0,10,,,,,,,,13,,,62,80
190659,note_on,99,0,5,,,,,,,,0,,,74,0
190659,note_on,99,0,12,,,,,,,,15,,,38,0
190659,note_on,99,0,11,,,,,,,,14,,,50,0
190659,note_on,99,0,9,,,,,,,,12,,,62,0
190659,note_on,99,0,10,,,,,,,,13,,,62,0
190659,note_on,99,0,8,,,,,,,,11,,,74,0
190680,note_on,21,0,12,,,,,,,,15,,,40,80
190680,note_on,21,0,11,,,,,,,,14,,,52,80
190680,note_on,21,0,9,,,,,,,,12,,,64,80
190680,note_on,21,0,10,,,,,,,,13,,,64,80
190680,note_on,21,0,5,,,,,,,,0,,,76,80
190680,note_on,21,0,8,,,,,,,,11,,,76,80
190779,note_on,99,0,12,,,,,,,,15,,,40,0
190779,note_on,99,0,5,,,,,,,,0,,,76,0
190779,note_on,99,0,11,,,,,,,,14,,,52,0
190779,note_on,99,0,8,,,,,,,,11,,,76,0
190779,note_on,99,0,9,,,,,,,,12,,,64,0
190779,note_on,99,0,10,,,,,,,,13,,,64,0
190800,note_on,21,0,12,,,,,,,,15,,,42,80
190800,note_on,21,0,5,,,,,,,,0,,,78,80
190800,note_on,21,0,8,,,,,,,,11,,,78,80
190800,note_on,21,0,11,,,,,,,,14,,,54,80
190800,note_on,21,0,10,,,,,,,,13,,,66,80
190800,note_on,21,0,9,,,,,,,,12,,,66,80
190899,note_on,99,0,9,,,,,,,,12,,,66,0
190899,note_on,99,0,10,,,,,,,,13,,,66,0
190899,note_on,99,0,12,,,,,,,,15,,,42,0
190899,note_on,99,0,5,,,,,,,,0,,,78,0
190899,note_on,99,0,11,,,,,,,,14,,,54,0
190899,note_on,99,0,8,,,,,,,,11,,,78,0
190920,note_on,21,0,12,,,,,,,,15,,,43,80
190920,note_on,21,0,5,,,,,,,,0,,,79,80
190920,note_on,21,0,9,,,,,,,,12,,,67,80
190920,note_on,21,0,10,,,,,,,,13,,,67,80
190920,note_on,21,0,8,,,,,,,,11,,,79,80
190920,note_on,21,0,11,,,,,,,,14,,,55,80
191019,note_on,99,0,8,,,,,,,,11,,,79,0
191019,note_on,99,0,5,,,,,,,,0,,,79,0
191019,note_on,99,0,12,,,,,,,,15,,,43,0
191019,note_on,99,0,9,,,,,,,,12,,,67,0
191019,note_on,99,0,11,,,,,,,,14,,,55,0
191019,note_on,99,0,10,,,,,,,,13,,,67,0
191040,note_on,21,0,11,,,,,,,,14,,,54,80
191040,note_on,21,0,10,,,,,,,,13,,,66,80
191040,note_on,21,0,9,,,,,,,,12,,,66,80
191040,note_on,21,0,8,,,,,,,,11,,,78,80
191040,note_on,21,0,5,,,,,,,,0,,,78,80
191040,note_on,21,0,12,,,,,,,,15,,,42,80
191139,note_on,99,0,9,,,,,,,,12,,,66,0
191139,note_on,99,0,8,,,,,,,,11,,,78,0
191160,note_on,21,0,9,,,,,,,,12,,,66,80
191160,note_on,21,0,8,,,,,,,,11,,,78,80
191259,note_on,99,0,9,,,,,,,,12,,,66,0
191259,note_on,99,0,8,,,,,,,,11,,,78,0
191259,note_on,219,0,5,,,,,,,,0,,,78,0
191279,note_on,239,0,11,,,,,,,,14,,,54,0
191279,note_on,239,0,10,,,,,,,,13,,,66,0
191279,note_on,239,0,12,,,,,,,,15,,,42,0
191280,note_on,21,0,9,,,,,,,,12,,,84,80
191280,note_on,21,0,8,,,,,,,,11,,,84,80
191280,note_on,21,0,5,,,,,,,,0,,,84,80
191379,note_on,99,0,8,,,,,,,,11,,,84,0
191379,note_on,99,0,9,,,,,,,,12,,,84,0
191400,note_on,21,0,9,,,,,,,,12,,,84,80
191400,note_on,21,0,8,,,,,,,,11,,,84,80
191499,note_on,99,0,9,,,,,,,,12,,,84,0
191499,note_on,219,0,5,,,,,,,,0,,,84,0
191499,note_on,99,0,8,,,,,,,,11,,,84,0
191520,note_on,21,0,9,,,,,,,,12,,,81,80
191520,note_on,21,0,5,,,,,,,,0,,,81,80
191520,note_on,21,0,8,,,,,,,,11,,,81,80
191619,note_on,99,0,8,,,,,,,,11,,,81,0
191619,note_on,99,0,9,,,,,,,,12,,,81,0
191640,note_on,21,0,8,,,,,,,,11,,,81,80
191640,note_on,21,0,9,,,,,,,,12,,,81,80
191739,note_on,219,0,5,,,,,,,,0,,,81,0
191739,note_on,99,0,8,,,,,,,,11,,,81,0
191739,note_on,99,0,9,,,,,,,,12,,,81,0
191760,note_on,21,0,5,,,,,,,,0,,,78,80
191760,note_on,21,0,8,,,,,,,,11,,,78,80
191760,note_on,21,0,9,,,,,,,,12,,,78,80
191859,note_on,99,0,8,,,,,,,,11,,,78,0
191859,note_on,99,0,9,,,,,,,,12,,,78,0
191880,note_on,21,0,8,,,,,,,,11,,,78,80
191880,note_on,21,0,9,,,,,,,,12,,,78,80
191979,note_on,99,0,8,,,,,,,,11,,,78,0
191979,note_on,99,0,9,,,,,,,,12,,,78,0
191979,note_on,219,0,5,,,,,,,,0,,,78,0
192000,note_on,1681,0,7,,,,,,,,2,,,72,80
192000,note_on,0,0,7,,,,,,,,2,,,60,80
192000,note_on,721,0,11,,,,,,,,14,,,62,80
192000,note_on,721,0,10,,,,,,,,13,,,74,80
192000,note_on,21,0,8,,,,,,,,11,,,74,80
192000,note_on,21,0,9,,,,,,,,12,,,74,80
192000,note_on,1681,0,6,,,,,,,,1,,,62,80
192000,note_on,21,0,5,,,,,,,,0,,,74,80
192000,note_on,721,0,12,,,,,,,,15,,,50,80
192099,note_on,99,0,8,,,,,,,,11,,,74,0
192099,note_on,99,0,9,,,,,,,,12,,,74,0
192120,note_on,21,0,8,,,,,,,,11,,,74,80
192120,note_on,21,0,9,,,,,,,,12,,,74,80
192219,note_on,219,0,10,,,,,,,,13,,,74,0
192219,note_on,219,0,5,,,,,,,,0,,,74,0
192219,note_on,219,0,12,,,,,,,,15,,,50,0
192219,note_on,99,0,8,,,,,,,,11,,,74,0
192219,note_on,99,0,9,,,,,,,,12,,,74,0
192219,note_on,219,0,11,,,,,,,,14,,,62,0
192240,note_on,21,0,11,,,,,,,,14,,,60,80
192240,note_on,21,0,5,,,,,,,,0,,,72,80
192240,note_on,21,0,8,,,,,,,,11,,,72,80
192240,note_on,21,0,9,,,,,,,,12,,,72,80
192240,note_on,21,0,10,,,,,,,,13,,,72,80
192240,note_on,21,0,12,,,,,,,,15,,,48,80
192339,note_on,99,0,9,,,,,,,,12,,,72,0
192339,note_on,99,0,8,,,,,,,,11,,,72,0
192360,note_on,21,0,8,,,,,,,,11,,,72,80
192360,note_on,21,0,9,,,,,,,,12,,,72,80
192459,note_on,99,0,8,,,,,,,,11,,,72,0
192459,note_on,219,0,10,,,,,,,,13,,,72,0
192459,note_on,99,0,9,,,,,,,,12,,,72,0
192459,note_on,219,0,11,,,,,,,,14,,,60,0
192459,note_on,219,0,12,,,,,,,,15,,,48,0
192459,note_on,219,0,5,,,,,,,,0,,,72,0
192480,note_on,21,0,8,,,,,,,,11,,,69,80
192480,note_on,21,0,10,,,,,,,,13,,,69,80
192480,note_on,21,0,5,,,,,,,,0,,,69,80
192480,note_on,21,0,9,,,,,,,,12,,,69,80
192480,note_on,21,0,11,,,,,,,,14,,,57,80
192480,note_on,21,0,12,,,,,,,,15,,,45,80
192579,note_on,99,0,9,,,,,,,,12,,,69,0
192579,note_on,99,0,8,,,,,,,,11,,,69,0
192600,note_on,21,0,9,,,,,,,,12,,,69,80
192600,note_on,21,0,8,,,,,,,,11,,,69,80
192699,note_on,99,0,8,,,,,,,,11,,,69,0
192699,note_on,219,0,5,,,,,,,,0,,,69,0
192699,note_on,219,0,10,,,,,,,,13,,,69,0
192699,note_on,219,0,12,,,,,,,,15,,,45,0
192699,note_on,219,0,11,,,,,,,,14,,,57,0
192699,note_on,99,0,9,,,,,,,,12,,,69,0
192720,note_on,21,0,12,,,,,,,,15,,,42,80
192720,note_on,21,0,11,,,,,,,,14,,,54,80
192720,note_on,21,0,5,,,,,,,,0,,,66,80
192720,note_on,21,0,8,,,,,,,,11,,,66,80
192720,note_on,21,0,10,,,,,,,,13,,,66,80
192720,note_on,21,0,9,,,,,,,,12,,,66,80
192819,note_on,99,0,9,,,,,,,,12,,,66,0
192819,note_on,99,0,8,,,,,,,,11,,,66,0
192840,note_on,21,0,9,,,,,,,,12,,,66,80
192840,note_on,21,0,8,,,,,,,,11,,,66,80
192939,note_on,219,0,12,,,,,,,,15,,,42,0
192939,note_on,219,0,5,,,,,,,,0,,,66,0
192939,note_on,219,0,10,,,,,,,,13,,,66,0
192939,note_on,939,0,7,,,,,,,,2,,,60,0
192939,note_on,99,0,8,,,,,,,,11,,,66,0
192939,note_on,939,0,6,,,,,,,,1,,,62,0
192939,note_on,0,0,7,,,,,,,,2,,,72,0
192939,note_on,219,0,11,,,,,,,,14,,,54,0
192939,note_on,99,0,9,,,,,,,,12,,,66,0
192960,note_on,21,0,8,,,,,,,,11,,,65,80
192960,note_on,0,0,6,,,,,,,,1,,,67,80
192960,note_on,21,0,6,,,,,,,,1,,,55,80
192960,note_on,21,0,7,,,,,,,,2,,,55,80
192960,note_on,21,0,11,,,,,,,,14,,,53,80
192960,note_on,21,0,12,,,,,,,,15,,,41,80
192960,note_on,0,0,7,,,,,,,,2,,,67,80
192960,note_on,21,0,10,,,,,,,,13,,,65,80
192960,note_on,21,0,5,,,,,,,,0,,,65,80
192960,note_on,21,0,9,,,,,,,,12,,,65,80
193199,note_on,239,0,9,,,,,,,,12,,,65,0
193199,note_on,239,0,6,,,,,,,,1,,,67,0
193199,note_on,0,0,6,,,,,,,,1,,,55,0
193199,note_on,239,0,8,,,,,,,,11,,,65,0
193199,note_on,239,0,5,,,,,,,,0,,,65,0
193199,note_on,239,0,11,,,,,,,,14,,,53,0
193199,note_on,239,0,12,,,,,,,,15,,,41,0
193199,note_on,239,0,10,,,,,,,,13,,,65,0
193199,note_on,239,0,7,,,,,,,,2,,,67,0
193199,note_on,0,0,7,,,,,,,,2,,,55,0
193320,note_on,121,0,8,,,,,,,,11,,,71,80
193320,note_on,121,0,9,,,,,,,,12,,,67,80
193379,note_on,59,0,9,,,,,,,,12,,,67,0
193379,note_on,59,0,8,,,,,,,,11,,,71,0
193380,note_on,1,0,8,,,,,,,,11,,,72,80
193380,note_on,1,0,9,,,,,,,,12,,,69,80
193439,note_on,59,0,9,,,,,,,,12,,,69,0
193439,note_on,59,0,8,,,,,,,,11,,,72,0
193440,note_on,241,0,5,,,,,,,,0,,,71,80
193440,note_on,1,0,9,,,,,,,,12,,,71,80
193440,note_on,241,0,7,,,,,,,,2,,,67,80
193440,note_on,0,0,7,,,,,,,,2,,,74,80
193440,note_on,241,0,11,,,,,,,,14,,,50,80
193440,note_on,241,0,10,,,,,,,,13,,,62,80
193440,note_on,241,0,12,,,,,,,,15,,,38,80
193440,note_on,241,0,6,,,,,,,,1,,,62,80
193440,note_on,0,0,6,,,,,,,,1,,,55,80
193440,note_on,0,0,5,,,,,,,,0,,,74,80
193440,note_on,1,0,8,,,,,,,,11,,,74,80
193679,note_on,239,0,11,,,,,,,,14,,,50,0
193679,note_on,0,0,6,,,,,,,,1,,,62,0
193679,note_on,239,0,5,,,,,,,,0,,,74,0
193679,note_on,239,0,12,,,,,,,,15,,,38,0
193679,note_on,239,0,8,,,,,,,,11,,,74,0
193679,note_on,239,0,10,,,,,,,,13,,,62,0
193679,note_on,0,0,5,,,,,,,,0,,,71,0
193679,note_on,239,0,6,,,,,,,,1,,,55,0
193679,note_on,0,0,7,,,,,,,,2,,,67,0
193679,note_on,239,0,7,,,,,,,,2,,,74,0
193679,note_on,239,0,9,,,,,,,,12,,,71,0
193800,note_on,121,0,8,,,,,,,,11,,,74,80
193800,note_on,121,0,9,,,,,,,,12,,,71,80
193859,note_on,59,0,9,,,,,,,,12,,,71,0
193859,note_on,59,0,8,,,,,,,,11,,,74,0
193860,note_on,1,0,8,,,,,,,,11,,,76,80
193860,note_on,1,0,9,,,,,,,,12,,,72,80
193919,note_on,59,0,8,,,,,,,,11,,,76,0
193919,note_on,59,0,9,,,,,,,,12,,,72,0
193920,note_on,0,0,7,,,,,,,,2,,,74,80
193920,note_on,241,0,7,,,,,,,,2,,,67,80
193920,note_on,241,0,5,,,,,,,,0,,,77,80
193920,note_on,241,0,11,,,,,,,,14,,,47,80
193920,note_on,0,0,5,,,,,,,,0,,,74,80
193920,note_on,0,0,6,,,,,,,,1,,,62,80
193920,note_on,241,0,10,,,,,,,,13,,,59,80
193920,note_on,1,0,8,,,,,,,,11,,,77,80
193920,note_on,241,0,12,,,,,,,,15,,,35,80
193920,note_on,1,0,9,,,,,,,,12,,,74,80
193920,note_on,241,0,6,,,,,,,,1,,,55,80
194399,note_on,0,0,5,,,,,,,,0,,,77,0
194399,note_on,479,0,8,,,,,,,,11,,,77,0
194399,note_on,479,0,7,,,,,,,,2,,,74,0
194399,note_on,479,0,9,,,,,,,,12,,,74,0
194399,note_on,479,0,5,,,,,,,,0,,,74,0
194399,note_on,479,0,10,,,,,,,,13,,,59,0
194399,note_on,0,0,7,,,,,,,,2,,,67,0
194399,note_on,479,0,11,,,,,,,,14,,,47,0
194399,note_on,479,0,6,,,,,,,,1,,,62,0
194399,note_on,0,0,6,,,,,,,,1,,,55,0
194399,note_on,479,0,12,,,,,,,,15,,,35,0
194880,note_on,481,0,11,,,,,,,,14,,,48,44
194880,note_on,481,0,9,,,,,,,,12,,,55,44
194880,note_on,481,0,8,,,,,,,,11,,,67,44
194880,note_on,481,0,12,,,,,,,,15,,,36,44
194880,note_on,481,0,10,,,,,,,,13,,,60,44
194979,note_on,99,0,9,,,,,,,,12,,,55,0
195000,note_on,21,0,9,,,,,,,,12,,,64,44
195099,note_on,99,0,9,,,,,,,,12,,,64,0
195119,note_on,239,0,11,,,,,,,,14,,,48,0
195119,note_on,239,0,10,,,,,,,,13,,,60,0
195119,note_on,239,0,12,,,,,,,,15,,,36,0
195120,note_on,21,0,9,,,,,,,,12,,,60,44
195219,note_on,99,0,9,,,,,,,,12,,,60,0
195240,note_on,21,0,9,,,,,,,,12,,,64,44
195339,note_on,99,0,9,,,,,,,,12,,,64,0
195359,note_on,479,0,8,,,,,,,,11,,,67,0
195360,note_on,1,0,8,,,,,,,,11,,,64,44
195360,note_on,21,0,9,,,,,,,,12,,,55,44
195459,note_on,99,0,9,,,,,,,,12,,,55,0
195480,note_on,21,0,9,,,,,,,,12,,,64,44
195579,note_on,99,0,9,,,,,,,,12,,,64,0
195579,note_on,219,0,8,,,,,,,,11,,,64,0
195600,note_on,21,0,9,,,,,,,,12,,,60,44
195600,note_on,21,0,8,,,,,,,,11,,,67,44
195699,note_on,99,0,9,,,,,,,,12,,,60,0
195719,note_on,119,0,8,,,,,,,,11,,,67,0
195720,note_on,21,0,9,,,,,,,,12,,,64,44
195819,note_on,99,0,9,,,,,,,,12,,,64,0
195840,note_on,721,0,10,,,,,,,,13,,,60,44
195840,note_on,21,0,9,,,,,,,,12,,,55,44
195840,note_on,721,0,12,,,,,,,,15,,,36,44
195840,note_on,721,0,11,,,,,,,,14,,,48,44
195840,note_on,121,0,8,,,,,,,,11,,,72,44
195939,note_on,99,0,9,,,,,,,,12,,,55,0
195960,note_on,21,0,9,,,,,,,,12,,,64,44
196059,note_on,99,0,9,,,,,,,,12,,,64,0
196079,note_on,239,0,10,,,,,,,,13,,,60,0
196079,note_on,239,0,11,,,,,,,,14,,,48,0
196079,note_on,239,0,12,,,,,,,,15,,,36,0
196080,note_on,21,0,9,,,,,,,,12,,,60,44
196179,note_on,99,0,9,,,,,,,,12,,,60,0
196200,note_on,21,0,9,,,,,,,,12,,,64,44
196299,note_on,99,0,9,,,,,,,,12,,,64,0
196319,note_on,479,0,8,,,,,,,,11,,,72,0
196320,note_on,1,0,8,,,,,,,,11,,,67,44
196320,note_on,21,0,9,,,,,,,,12,,,55,44
196419,note_on,99,0,9,,,,,,,,12,,,55,0
196440,note_on,21,0,9,,,,,,,,12,,,64,44
196539,note_on,219,0,8,,,,,,,,11,,,67,0
196539,note_on,99,0,9,,,,,,,,12,,,64,0
196560,note_on,21,0,8,,,,,,,,11,,,72,44
196560,note_on,21,0,9,,,,,,,,12,,,60,44
196659,note_on,99,0,9,,,,,,,,12,,,60,0
196679,note_on,119,0,8,,,,,,,,11,,,72,0
196680,note_on,21,0,9,,,,,,,,12,,,64,44
196779,note_on,99,0,9,,,,,,,,12,,,64,0
196800,note_on,721,0,12,,,,,,,,15,,,36,44
196800,note_on,721,0,11,,,,,,,,14,,,48,44
196800,note_on,121,0,8,,,,,,,,11,,,69,44
196800,note_on,721,0,10,,,,,,,,13,,,60,44
196800,note_on,21,0,9,,,,,,,,12,,,57,44
196899,note_on,99,0,9,,,,,,,,12,,,57,0
196920,note_on,21,0,9,,,,,,,,12,,,65,44
197019,note_on,99,0,9,,,,,,,,12,,,65,0
197039,note_on,239,0,11,,,,,,,,14,,,48,0
197039,note_on,239,0,8,,,,,,,,11,,,69,0
197039,note_on,239,0,10,,,,,,,,13,,,60,0
197039,note_on,239,0,12,,,,,,,,15,,,36,0
197040,note_on,1,0,8,,,,,,,,11,,,65,44
197040,note_on,21,0,9,,,,,,,,12,,,60,44
197139,note_on,99,0,9,,,,,,,,12,,,60,0
197160,note_on,21,0,9,,,,,,,,12,,,65,44
197259,note_on,99,0,9,,,,,,,,12,,,65,0
197259,note_on,219,0,8,,,,,,,,11,,,65,0
197280,note_on,21,0,9,,,,,,,,12,,,57,44
197280,note_on,21,0,8,,,,,,,,11,,,72,44
197379,note_on,99,0,9,,,,,,,,12,,,57,0
197400,note_on,21,0,9,,,,,,,,12,,,65,44
197499,note_on,99,0,9,,,,,,,,12,,,65,0
197519,note_on,239,0,8,,,,,,,,11,,,72,0
197520,note_on,1,0,8,,,,,,,,11,,,69,44
197520,note_on,21,0,9,,,,,,,,12,,,60,44
197619,note_on,99,0,9,,,,,,,,12,,,60,0
197640,note_on,21,0,9,,,,,,,,12,,,65,44
197739,note_on,219,0,8,,,,,,,,11,,,69,0
197739,note_on,99,0,9,,,,,,,,12,,,65,0
197760,note_on,21,0,9,,,,,,,,12,,,55,44
197760,note_on,21,0,8,,,,,,,,11,,,67,44
197760,note_on,721,0,11,,,,,,,,14,,,48,44
197760,note_on,721,0,12,,,,,,,,15,,,36,44
197760,note_on,721,0,10,,,,,,,,13,,,60,44
197859,note_on,99,0,9,,,,,,,,12,,,55,0
197880,note_on,21,0,9,,,,,,,,12,,,64,44
197979,note_on,99,0,9,,,,,,,,12,,,64,0
197999,note_on,239,0,12,,,,,,,,15,,,36,0
197999,note_on,239,0,10,,,,,,,,13,,,60,0
197999,note_on,239,0,11,,,,,,,,14,,,48,0
198000,note_on,21,0,9,,,,,,,,12,,,60,44
198099,note_on,99,0,9,,,,,,,,12,,,60,0
198119,note_on,359,0,8,,,,,,,,11,,,67,0
198120,note_on,1,0,8,,,,,,,,11,,,64,44
198120,note_on,21,0,9,,,,,,,,12,,,64,44
198219,note_on,99,0,8,,,,,,,,11,,,64,0
198219,note_on,99,0,9,,,,,,,,12,,,64,0
198240,note_on,21,0,8,,,,,,,,11,,,60,44
198240,note_on,21,0,9,,,,,,,,12,,,55,44
198339,note_on,99,0,9,,,,,,,,12,,,55,0
198360,note_on,21,0,9,,,,,,,,12,,,64,44
198459,note_on,99,0,9,,,,,,,,12,,,64,0
198479,note_on,239,0,8,,,,,,,,11,,,60,0
198480,note_on,21,0,9,,,,,,,,12,,,60,44
198579,note_on,99,0,9,,,,,,,,12,,,60,0
198600,note_on,21,0,9,,,,,,,,12,,,64,44
198699,note_on,99,0,9,,,,,,,,12,,,64,0
198720,note_on,241,0,8,,,,,,,,11,,,77,44
198720,note_on,721,0,10,,,,,,,,13,,,62,44
198720,note_on,721,0,12,,,,,,,,15,,,38,44
198720,note_on,721,0,11,,,,,,,,14,,,50,44
198720,note_on,21,0,9,,,,,,,,12,,,55,44
198819,note_on,99,0,9,,,,,,,,12,,,55,0
198840,note_on,21,0,9,,,,,,,,12,,,62,44
198939,note_on,99,0,9,,,,,,,,12,,,62,0
198959,note_on,239,0,10,,,,,,,,13,,,62,0
198959,note_on,239,0,12,,,,,,,,15,,,38,0
198959,note_on,239,0,11,,,,,,,,14,,,50,0
198960,note_on,21,0,9,,,,,,,,12,,,59,44
199059,note_on,99,0,9,,,,,,,,12,,,59,0
199080,note_on,21,0,9,,,,,,,,12,,,62,44
199179,note_on,99,0,9,,,,,,,,12,,,62,0
199199,note_on,479,0,8,,,,,,,,11,,,77,0
199200,note_on,21,0,9,,,,,,,,12,,,55,44
199200,note_on,1,0,8,,,,,,,,11,,,74,44
199299,note_on,99,0,9,,,,,,,,12,,,55,0
199320,note_on,21,0,9,,,,,,,,12,,,65,44
199419,note_on,99,0,9,,,,,,,,12,,,65,0
199439,note_on,239,0,8,,,,,,,,11,,,74,0
199440,note_on,1,0,8,,,,,,,,11,,,71,44
199440,note_on,21,0,9,,,,,,,,12,,,62,44
199539,note_on,99,0,9,,,,,,,,12,,,62,0
199560,note_on,21,0,9,,,,,,,,12,,,65,44
199659,note_on,99,0,9,,,,,,,,12,,,65,0
199659,note_on,219,0,8,,,,,,,,11,,,71,0
199680,note_on,21,0,9,,,,,,,,12,,,55,44
199680,note_on,721,0,10,,,,,,,,13,,,64,44
199680,note_on,21,0,8,,,,,,,,11,,,79,44
199680,note_on,721,0,12,,,,,,,,15,,,40,44
199680,note_on,721,0,11,,,,,,,,14,,,52,44
199779,note_on,99,0,9,,,,,,,,12,,,55,0
199800,note_on,21,0,9,,,,,,,,12,,,64,44
199899,note_on,99,0,9,,,,,,,,12,,,64,0
199919,note_on,239,0,12,,,,,,,,15,,,40,0
199919,note_on,239,0,11,,,,,,,,14,,,52,0
199919,note_on,239,0,10,,,,,,,,13,,,64,0
199920,note_on,21,0,9,,,,,,,,12,,,60,44
200019,note_on,99,0,9,,,,,,,,12,,,60,0
200040,note_on,21,0,9,,,,,,,,12,,,64,44
200139,note_on,99,0,9,,,,,,,,12,,,64,0
200159,note_on,479,0,8,,,,,,,,11,,,79,0
200160,note_on,1,0,8,,,,,,,,11,,,76,44
200160,note_on,21,0,9,,,,,,,,12,,,55,44
200259,note_on,99,0,9,,,,,,,,12,,,55,0
200280,note_on,21,0,9,,,,,,,,12,,,67,44
200379,note_on,99,0,9,,,,,,,,12,,,67,0
200399,note_on,239,0,8,,,,,,,,11,,,76,0
200400,note_on,21,0,9,,,,,,,,12,,,64,44
200400,note_on,1,0,8,,,,,,,,11,,,72,44
200499,note_on,99,0,9,,,,,,,,12,,,64,0
200520,note_on,21,0,9,,,,,,,,12,,,67,44
200619,note_on,219,0,8,,,,,,,,11,,,72,0
200619,note_on,99,0,9,,,,,,,,12,,,67,0
200640,note_on,21,0,8,,,,,,,,11,,,81,44
200640,note_on,721,0,11,,,,,,,,14,,,53,44
200640,note_on,21,0,9,,,,,,,,12,,,60,44
200640,note_on,721,0,10,,,,,,,,13,,,65,44
200640,note_on,721,0,12,,,,,,,,15,,,41,44
200739,note_on,99,0,9,,,,,,,,12,,,60,0
200760,note_on,21,0,9,,,,,,,,12,,,69,44
200859,note_on,99,0,9,,,,,,,,12,,,69,0
200879,note_on,239,0,12,,,,,,,,15,,,41,0
200879,note_on,239,0,11,,,,,,,,14,,,53,0
200879,note_on,239,0,10,,,,,,,,13,,,65,0
200880,note_on,21,0,9,,,,,,,,12,,,65,44
200979,note_on,99,0,9,,,,,,,,12,,,65,0
201000,note_on,21,0,9,,,,,,,,12,,,69,44
201099,note_on,99,0,9,,,,,,,,12,,,69,0
201119,note_on,479,0,8,,,,,,,,11,,,81,0
201120,note_on,21,0,9,,,,,,,,12,,,62,44
201120,note_on,1,0,8,,,,,,,,11,,,77,44
201219,note_on,99,0,9,,,,,,,,12,,,62,0
201240,note_on,21,0,9,,,,,,,,12,,,69,44
201339,note_on,99,0,9,,,,,,,,12,,,69,0
201359,note_on,239,0,8,,,,,,,,11,,,77,0
201360,note_on,21,0,9,,,,,,,,12,,,65,44
201360,note_on,1,0,8,,,,,,,,11,,,74,44
201459,note_on,99,0,9,,,,,,,,12,,,65,0
201480,note_on,21,0,9,,,,,,,,12,,,69,44
201579,note_on,99,0,9,,,,,,,,12,,,69,0
201579,note_on,219,0,8,,,,,,,,11,,,74,0
201600,note_on,21,0,9,,,,,,,,12,,,64,44
201600,note_on,21,0,8,,,,,,,,11,,,72,44
201600,note_on,721,0,11,,,,,,,,14,,,55,44
201600,note_on,721,0,10,,,,,,,,13,,,67,44
201600,note_on,721,0,12,,,,,,,,15,,,43,44
201699,note_on,99,0,9,,,,,,,,12,,,64,0
201720,note_on,21,0,9,,,,,,,,12,,,67,44
201819,note_on,99,0,9,,,,,,,,12,,,67,0
201839,note_on,239,0,10,,,,,,,,13,,,67,0
201839,note_on,239,0,12,,,,,,,,15,,,43,0
201839,note_on,239,0,11,,,,,,,,14,,,55,0
201840,note_on,21,0,9,,,,,,,,12,,,64,44
201939,note_on,99,0,9,,,,,,,,12,,,64,0
201960,note_on,21,0,9,,,,,,,,12,,,60,44
202059,note_on,99,0,9,,,,,,,,12,,,60,0
202079,note_on,479,0,8,,,,,,,,11,,,72,0
202080,note_on,21,0,9,,,,,,,,12,,,65,44
202080,note_on,1,0,8,,,,,,,,11,,,71,44
202179,note_on,99,0,9,,,,,,,,12,,,65,0
202200,note_on,21,0,9,,,,,,,,12,,,67,44
202299,note_on,99,0,9,,,,,,,,12,,,67,0
202319,note_on,239,0,8,,,,,,,,11,,,71,0
202320,note_on,21,0,9,,,,,,,,12,,,65,44
202419,note_on,99,0,9,,,,,,,,12,,,65,0
202440,note_on,21,0,9,,,,,,,,12,,,62,44
202539,note_on,99,0,9,,,,,,,,12,,,62,0
202560,note_on,21,0,9,,,,,,,,12,,,55,44
202560,note_on,8161,0,5,,,,,,,,0,,,76,44
202560,note_on,0,0,5,,,,,,,,0,,,79,44
202560,note_on,241,0,8,,,,,,,,11,,,67,44
202560,note_on,721,0,10,,,,,,,,13,,,60,44
202560,note_on,8161,0,6,,,,,,,,1,,,60,44
202560,note_on,0,0,6,,,,,,,,1,,,48,44
202560,note_on,721,0,11,,,,,,,,14,,,48,44
202560,note_on,721,0,12,,,,,,,,15,,,36,44
202659,note_on,99,0,9,,,,,,,,12,,,55,0
202680,note_on,21,0,9,,,,,,,,12,,,64,44
202779,note_on,99,0,9,,,,,,,,12,,,64,0
202799,note_on,239,0,12,,,,,,,,15,,,36,0
202799,note_on,239,0,11,,,,,,,,14,,,48,0
202799,note_on,239,0,10,,,,,,,,13,,,60,0
202800,note_on,21,0,9,,,,,,,,12,,,60,44
202899,note_on,99,0,9,,,,,,,,12,,,60,0
202920,note_on,21,0,9,,,,,,,,12,,,64,44
203019,note_on,99,0,9,,,,,,,,12,,,64,0
203039,note_on,479,0,8,,,,,,,,11,,,67,0
203040,note_on,1,0,8,,,,,,,,11,,,64,44
203040,note_on,21,0,9,,,,,,,,12,,,55,44
203139,note_on,99,0,9,,,,,,,,12,,,55,0
203160,note_on,21,0,9,,,,,,,,12,,,64,44
203259,note_on,99,0,9,,,,,,,,12,,,64,0
203259,note_on,219,0,8,,,,,,,,11,,,64,0
203280,note_on,21,0,8,,,,,,,,11,,,67,44
203280,note_on,21,0,9,,,,,,,,12,,,60,44
203379,note_on,99,0,9,,,,,,,,12,,,60,0
203399,note_on,119,0,8,,,,,,,,11,,,67,0
203400,note_on,21,0,9,,,,,,,,12,,,64,44
203499,note_on,99,0,9,,,,,,,,12,,,64,0
203520,note_on,721,0,11,,,,,,,,14,,,48,44
203520,note_on,21,0,9,,,,,,,,12,,,55,44
203520,note_on,721,0,10,,,,,,,,13,,,60,44
203520,note_on,721,0,12,,,,,,,,15,,,36,44
203520,note_on,121,0,8,,,,,,,,11,,,72,44
203619,note_on,99,0,9,,,,,,,,12,,,55,0
203640,note_on,21,0,9,,,,,,,,12,,,64,44
203739,note_on,99,0,9,,,,,,,,12,,,64,0
203759,note_on,239,0,12,,,,,,,,15,,,36,0
203759,note_on,239,0,10,,,,,,,,13,,,60,0
203759,note_on,239,0,11,,,,,,,,14,,,48,0
203760,note_on,21,0,9,,,,,,,,12,,,60,44
203859,note_on,99,0,9,,,,,,,,12,,,60,0
203880,note_on,21,0,9,,,,,,,,12,,,64,44
203979,note_on,99,0,9,,,,,,,,12,,,64,0
203999,note_on,479,0,8,,,,,,,,11,,,72,0
204000,note_on,1,0,8,,,,,,,,11,,,67,44
204000,note_on,21,0,9,,,,,,,,12,,,55,44
204099,note_on,99,0,9,,,,,,,,12,,,55,0
204120,note_on,21,0,9,,,,,,,,12,,,64,44
204219,note_on,99,0,9,,,,,,,,12,,,64,0
204219,note_on,219,0,8,,,,,,,,11,,,67,0
204240,note_on,21,0,8,,,,,,,,11,,,72,44
204240,note_on,21,0,9,,,,,,,,12,,,60,44
204339,note_on,99,0,9,,,,,,,,12,,,60,0
204359,note_on,119,0,8,,,,,,,,11,,,72,0
204360,note_on,21,0,9,,,,,,,,12,,,64,44
204459,note_on,0,0,5,,,,,,,,0,,,76,0
204459,note_on,1899,0,5,,,,,,,,0,,,79,0
204459,note_on,99,0,9,,,,,,,,12,,,64,0
204480,note_on,0,0,5,,,,,,,,0,,,77,44
204480,note_on,21,0,9,,,,,,,,12,,,57,44
204480,note_on,721,0,10,,,,,,,,13,,,60,44
204480,note_on,121,0,8,,,,,,,,11,,,69,44
204480,note_on,721,0,11,,,,,,,,14,,,48,44
204480,note_on,21,0,5,,,,,,,,0,,,81,44
204480,note_on,721,0,12,,,,,,,,15,,,36,44
204579,note_on,99,0,9,,,,,,,,12,,,57,0
204600,note_on,21,0,9,,,,,,,,12,,,65,44
204699,note_on,99,0,9,,,,,,,,12,,,65,0
204719,note_on,239,0,11,,,,,,,,14,,,48,0
204719,note_on,239,0,10,,,,,,,,13,,,60,0
204719,note_on,239,0,8,,,,,,,,11,,,69,0
204719,note_on,239,0,12,,,,,,,,15,,,36,0
204720,note_on,21,0,9,,,,,,,,12,,,60,44
204720,note_on,1,0,8,,,,,,,,11,,,65,44
204819,note_on,99,0,9,,,,,,,,12,,,60,0
204840,note_on,21,0,9,,,,,,,,12,,,65,44
204939,note_on,219,0,8,,,,,,,,11,,,65,0
204939,note_on,99,0,9,,,,,,,,12,,,65,0
204960,note_on,21,0,8,,,,,,,,11,,,72,44
204960,note_on,21,0,9,,,,,,,,12,,,57,44
205059,note_on,99,0,9,,,,,,,,12,,,57,0
205080,note_on,21,0,9,,,,,,,,12,,,65,44
205179,note_on,99,0,9,,,,,,,,12,,,65,0
205199,note_on,239,0,8,,,,,,,,11,,,72,0
205200,note_on,1,0,8,,,,,,,,11,,,69,44
205200,note_on,21,0,9,,,,,,,,12,,,60,44
205299,note_on,99,0,9,,,,,,,,12,,,60,0
205320,note_on,21,0,9,,,,,,,,12,,,65,44
205419,note_on,99,0,9,,,,,,,,12,,,65,0
205419,note_on,0,0,5,,,,,,,,0,,,81,0
205419,note_on,219,0,8,,,,,,,,11,,,69,0
205419,note_on,939,0,5,,,,,,,,0,,,77,0
205440,note_on,21,0,5,,,,,,,,0,,,79,44
205440,note_on,21,0,8,,,,,,,,11,,,67,44
205440,note_on,721,0,11,,,,,,,,14,,,48,44
205440,note_on,721,0,10,,,,,,,,13,,,60,44
205440,note_on,721,0,12,,,,,,,,15,,,36,44
205440,note_on,21,0,9,,,,,,,,12,,,55,44
205440,note_on,0,0,5,,,,,,,,0,,,76,44
205539,note_on,99,0,9,,,,,,,,12,,,55,0
205560,note_on,21,0,9,,,,,,,,12,,,64,44
205659,note_on,99,0,9,,,,,,,,12,,,64,0
205679,note_on,239,0,12,,,,,,,,15,,,36,0
205679,note_on,239,0,10,,,,,,,,13,,,60,0
205679,note_on,239,0,11,,,,,,,,14,,,48,0
205680,note_on,21,0,9,,,,,,,,12,,,60,44
205779,note_on,99,0,9,,,,,,,,12,,,60,0
205799,note_on,359,0,8,,,,,,,,11,,,67,0
205800,note_on,21,0,9,,,,,,,,12,,,64,44
205800,note_on,1,0,8,,,,,,,,11,,,64,44
205899,note_on,99,0,8,,,,,,,,11,,,64,0
205899,note_on,99,0,9,,,,,,,,12,,,64,0
205920,note_on,21,0,8,,,,,,,,11,,,60,44
205920,note_on,21,0,9,,,,,,,,12,,,55,44
206019,note_on,99,0,9,,,,,,,,12,,,55,0
206040,note_on,21,0,9,,,,,,,,12,,,64,44
206139,note_on,99,0,9,,,,,,,,12,,,64,0
206159,note_on,239,0,8,,,,,,,,11,,,60,0
206160,note_on,21,0,9,,,,,,,,12,,,60,44
206259,note_on,99,0,9,,,,,,,,12,,,60,0
206280,note_on,21,0,9,,,,,,,,12,,,64,44
206379,note_on,0,0,5,,,,,,,,0,,,79,0
206379,note_on,939,0,5,,,,,,,,0,,,76,0
206379,note_on,99,0,9,,,,,,,,12,,,64,0
206399,note_on,3839,0,6,,,,,,,,1,,,48,0
206399,note_on,0,0,6,,,,,,,,1,,,60,0
206400,note_on,21,0,9,,,,,,,,12,,,55,44
206400,note_on,0,0,5,,,,,,,,0,,,74,44
206400,note_on,721,0,10,,,,,,,,13,,,55,44
206400,note_on,721,0,12,,,,,,,,15,,,31,44
206400,note_on,241,0,8,,,,,,,,11,,,77,44
206400,note_on,21,0,5,,,,,,,,0,,,77,44
206400,note_on,721,0,11,,,,,,,,14,,,43,44
206499,note_on,99,0,9,,,,,,,,12,,,55,0
206520,note_on,21,0,9,,,,,,,,12,,,67,44
206619,note_on,99,0,9,,,,,,,,12,,,67,0
206639,note_on,239,0,12,,,,,,,,15,,,31,0
206639,note_on,239,0,11,,,,,,,,14,,,43,0
206639,note_on,239,0,10,,,,,,,,13,,,55,0
206640,note_on,21,0,9,,,,,,,,12,,,59,44
206739,note_on,99,0,9,,,,,,,,12,,,59,0
206760,note_on,21,0,9,,,,,,,,12,,,67,44
206859,note_on,99,0,9,,,,,,,,12,,,67,0
206879,note_on,479,0,8,,,,,,,,11,,,77,0
206880,note_on,21,0,9,,,,,,,,12,,,62,44
206880,note_on,1,0,8,,,,,,,,11,,,74,44
206979,note_on,99,0,9,,,,,,,,12,,,62,0
207000,note_on,21,0,9,,,,,,,,12,,,67,44
207099,note_on,99,0,9,,,,,,,,12,,,67,0
207119,note_on,239,0,8,,,,,,,,11,,,74,0
207120,note_on,21,0,9,,,,,,,,12,,,65,44
207120,note_on,1,0,8,,,,,,,,11,,,71,44
207219,note_on,99,0,9,,,,,,,,12,,,65,0
207240,note_on,21,0,9,,,,,,,,12,,,67,44
207339,note_on,219,0,8,,,,,,,,11,,,71,0
207339,note_on,0,0,5,,,,,,,,0,,,77,0
207339,note_on,939,0,5,,,,,,,,0,,,74,0
207339,note_on,99,0,9,,,,,,,,12,,,67,0
207360,note_on,21,0,9,,,,,,,,12,,,64,44
207360,note_on,721,0,11,,,,,,,,14,,,48,44
207360,note_on,721,0,10,,,,,,,,13,,,60,44
207360,note_on,721,0,12,,,,,,,,15,,,36,44
207360,note_on,21,0,8,,,,,,,,11,,,72,44
207360,note_on,0,0,5,,,,,,,,0,,,72,44
207360,note_on,21,0,5,,,,,,,,0,,,76,44
207459,note_on,99,0,9,,,,,,,,12,,,64,0
207480,note_on,21,0,9,,,,,,,,12,,,67,44
207579,note_on,99,0,9,,,,,,,,12,,,67,0
207599,note_on,239,0,10,,,,,,,,13,,,60,0
207599,note_on,239,0,12,,,,,,,,15,,,36,0
207599,note_on,239,0,11,,,,,,,,14,,,48,0
207600,note_on,21,0,9,,,,,,,,12,,,60,44
207699,note_on,99,0,9,,,,,,,,12,,,60,0
207720,note_on,21,0,9,,,,,,,,12,,,64,44
207819,note_on,99,0,9,,,,,,,,12,,,64,0
207839,note_on,479,0,8,,,,,,,,11,,,72,0
207839,note_on,479,0,5,,,,,,,,0,,,72,0
207839,note_on,0,0,5,,,,,,,,0,,,76,0
207840,note_on,1,0,5,,,,,,,,0,,,79,44
207840,note_on,21,0,9,,,,,,,,12,,,55,44
207840,note_on,0,0,5,,,,,,,,0,,,76,44
207840,note_on,1,0,8,,,,,,,,11,,,67,44
207939,note_on,99,0,9,,,,,,,,12,,,55,0
207960,note_on,21,0,9,,,,,,,,12,,,64,44
208059,note_on,99,0,9,,,,,,,,12,,,64,0
208079,note_on,239,0,8,,,,,,,,11,,,67,0
208080,note_on,1,0,8,,,,,,,,11,,,64,44
208080,note_on,21,0,9,,,,,,,,12,,,60,44
208179,note_on,99,0,9,,,,,,,,12,,,60,0
208200,note_on,21,0,9,,,,,,,,12,,,64,44
208299,note_on,99,0,9,,,,,,,,12,,,64,0
208299,note_on,0,0,5,,,,,,,,0,,,79,0
208299,note_on,459,0,5,,,,,,,,0,,,76,0
208299,note_on,219,0,8,,,,,,,,11,,,64,0
208320,note_on,721,0,10,,,,,,,,13,,,53,44
208320,note_on,21,0,8,,,,,,,,11,,,62,44
208320,note_on,721,0,11,,,,,,,,14,,,53,44
208320,note_on,21,0,5,,,,,,,,0,,,77,44
208320,note_on,0,0,5,,,,,,,,0,,,74,44
208320,note_on,21,0,9,,,,,,,,12,,,57,44
208320,note_on,721,0,12,,,,,,,,15,,,41,44
208419,note_on,99,0,9,,,,,,,,12,,,57,0
208440,note_on,21,0,9,,,,,,,,12,,,65,44
208539,note_on,99,0,9,,,,,,,,12,,,65,0
208539,note_on,219,0,8,,,,,,,,11,,,62,0
208559,note_on,239,0,12,,,,,,,,15,,,41,0
208559,note_on,239,0,10,,,,,,,,13,,,53,0
208559,note_on,239,0,11,,,,,,,,14,,,53,0
208560,note_on,21,0,8,,,,,,,,11,,,69,44
208560,note_on,21,0,9,,,,,,,,12,,,62,44
208659,note_on,99,0,9,,,,,,,,12,,,62,0
208680,note_on,21,0,9,,,,,,,,12,,,65,44
208779,note_on,99,0,9,,,,,,,,12,,,65,0
208799,note_on,239,0,8,,,,,,,,11,,,69,0
208799,note_on,479,0,5,,,,,,,,0,,,74,0
208799,note_on,0,0,5,,,,,,,,0,,,77,0
208800,note_on,21,0,9,,,,,,,,12,,,64,44
208800,note_on,241,0,11,,,,,,,,14,,,55,44
208800,note_on,1,0,5,,,,,,,,0,,,76,44
208800,note_on,241,0,10,,,,,,,,13,,,55,44
208800,note_on,1,0,8,,,,,,,,11,,,67,44
208800,note_on,241,0,12,,,,,,,,15,,,43,44
208800,note_on,0,0,5,,,,,,,,0,,,72,44
208899,note_on,99,0,9,,,,,,,,12,,,64,0
208920,note_on,21,0,9,,,,,,,,12,,,60,44
209019,note_on,99,0,9,,,,,,,,12,,,60,0
209019,note_on,219,0,8,,,,,,,,11,,,67,0
209039,note_on,239,0,10,,,,,,,,13,,,55,0
209039,note_on,239,0,11,,,,,,,,14,,,55,0
209039,note_on,239,0,5,,,,,,,,0,,,72,0
209039,note_on,0,0,5,,,,,,,,0,,,76,0
209039,note_on,239,0,12,,,,,,,,15,,,43,0
209040,note_on,21,0,8,,,,,,,,11,,,59,44
209040,note_on,21,0,9,,,,,,,,12,,,65,44
209040,note_on,0,0,5,,,,,,,,0,,,71,44
209040,note_on,1,0,5,,,,,,,,0,,,74,44
209139,note_on,99,0,9,,,,,,,,12,,,65,0
209160,note_on,21,0,9,,,,,,,,12,,,62,44
209259,note_on,219,0,5,,,,,,,,0,,,71,0
209259,note_on,99,0,9,,,,,,,,12,,,62,0
209259,note_on,0,0,5,,,,,,,,0,,,74,0
209279,note_on,239,0,8,,,,,,,,11,,,59,0
209280,note_on,21,0,5,,,,,,,,0,,,72,44
209280,note_on,241,0,10,,,,,,,,13,,,55,44
209280,note_on,1,0,8,,,,,,,,11,,,60,44
209280,note_on,21,0,9,,,,,,,,12,,,60,44
209280,note_on,241,0,12,,,,,,,,15,,,36,44
209280,note_on,241,0,11,,,,,,,,14,,,48,44
209379,note_on,99,0,10,,,,,,,,13,,,55,0
209400,note_on,21,0,10,,,,,,,,13,,,55,44
209499,note_on,99,0,10,,,,,,,,13,,,55,0
209519,note_on,239,0,5,,,,,,,,0,,,72,0
209519,note_on,239,0,9,,,,,,,,12,,,60,0
209519,note_on,239,0,8,,,,,,,,11,,,60,0
209519,note_on,239,0,11,,,,,,,,14,,,48,0
209519,note_on,239,0,12,,,,,,,,15,,,36,0
209520,note_on,21,0,10,,,,,,,,13,,,55,44
209619,note_on,99,0,10,,,,,,,,13,,,55,0
209640,note_on,21,0,10,,,,,,,,13,,,55,44
209739,note_on,99,0,10,,,,,,,,13,,,55,0
209760,note_on,0,0,10,,,,,,,,13,,,55,80
209760,note_on,241,0,11,,,,,,,,14,,,59,80
209760,note_on,21,0,10,,,,,,,,13,,,67,80
209760,note_on,15361,0,7,,,,,,,,2,,,67,80
209760,note_on,241,0,9,,,,,,,,12,,,74,80
209760,note_on,241,0,8,,,,,,,,11,,,77,80
209760,note_on,0,0,5,,,,,,,,0,,,77,80
209760,note_on,241,0,5,,,,,,,,0,,,74,80
209760,note_on,241,0,12,,,,,,,,15,,,47,80
209760,note_on,3361,0,6,,,,,,,,1,,,55,80
209859,note_on,99,0,9,,,,,,,,12,,,74,0
209859,note_on,99,0,8,,,,,,,,11,,,77,0
209859,note_on,99,0,10,,,,,,,,13,,,55,0
209859,note_on,0,0,10,,,,,,,,13,,,67,0
209880,note_on,21,0,10,,,,,,,,13,,,55,80
209880,note_on,21,0,9,,,,,,,,12,,,74,80
209880,note_on,21,0,8,,,,,,,,11,,,77,80
209880,note_on,0,0,10,,,,,,,,13,,,67,80
209979,note_on,99,0,10,,,,,,,,13,,,67,0
209979,note_on,0,0,10,,,,,,,,13,,,55,0
209979,note_on,99,0,9,,,,,,,,12,,,74,0
209979,note_on,99,0,8,,,,,,,,11,,,77,0
209999,note_on,239,0,11,,,,,,,,14,,,59,0
209999,note_on,239,0,12,,,,,,,,15,,,47,0
209999,note_on,0,0,5,,,,,,,,0,,,74,0
209999,note_on,239,0,5,,,,,,,,0,,,77,0
209999,note_on,239,0,6,,,,,,,,1,,,55,0
209999,note_on,239,0,7,,,,,,,,2,,,67,0
210000,note_on,21,0,10,,,,,,,,13,,,55,80
210000,note_on,21,0,8,,,,,,,,11,,,76,80
210000,note_on,21,0,9,,,,,,,,12,,,72,80
210000,note_on,1,0,11,,,,,,,,14,,,60,80
210000,note_on,0,0,5,,,,,,,,0,,,72,80
210000,note_on,1,0,5,,,,,,,,0,,,76,80
210000,note_on,0,0,10,,,,,,,,13,,,67,80
210000,note_on,1,0,12,,,,,,,,15,,,48,80
210099,note_on,99,0,9,,,,,,,,12,,,72,0
210099,note_on,99,0,10,,,,,,,,13,,,67,0
210099,note_on,99,0,8,,,,,,,,11,,,76,0
210099,note_on,0,0,10,,,,,,,,13,,,55,0
210120,note_on,0,0,10,,,,,,,,13,,,55,80
210120,note_on,21,0,10,,,,,,,,13,,,67,80
210120,note_on,21,0,9,,,,,,,,12,,,72,80
210120,note_on,21,0,8,,,,,,,,11,,,76,80
210219,note_on,219,0,11,,,,,,,,14,,,60,0
210219,note_on,99,0,8,,,,,,,,11,,,76,0
210219,note_on,99,0,9,,,,,,,,12,,,72,0
210219,note_on,99,0,10,,,,,,,,13,,,55,0
210219,note_on,0,0,10,,,,,,,,13,,,67,0
210219,note_on,219,0,12,,,,,,,,15,,,48,0
210239,note_on,239,0,5,,,,,,,,0,,,72,0
210239,note_on,0,0,5,,,,,,,,0,,,76,0
210240,note_on,0,0,10,,,,,,,,13,,,67,44
210240,note_on,21,0,10,,,,,,,,13,,,55,44
210240,note_on,21,0,8,,,,,,,,11,,,74,44
210240,note_on,21,0,9,,,,,,,,12,,,71,44
210240,note_on,21,0,12,,,,,,,,15,,,53,44
210240,note_on,21,0,11,,,,,,,,14,,,65,44
210339,note_on,99,0,8,,,,,,,,11,,,74,0
210339,note_on,0,0,10,,,,,,,,13,,,55,0
210339,note_on,99,0,9,,,,,,,,12,,,71,0
210339,note_on,99,0,10,,,,,,,,13,,,67,0
210360,note_on,21,0,8,,,,,,,,11,,,74,44
210360,note_on,21,0,10,,,,,,,,13,,,67,44
210360,note_on,0,0,10,,,,,,,,13,,,55,44
210360,note_on,21,0,9,,,,,,,,12,,,71,44
210459,note_on,99,0,9,,,,,,,,12,,,71,0
210459,note_on,99,0,8,,,,,,,,11,,,74,0
210459,note_on,0,0,10,,,,,,,,13,,,67,0
210459,note_on,99,0,10,,,,,,,,13,,,55,0
210479,note_on,239,0,11,,,,,,,,14,,,65,0
210479,note_on,239,0,12,,,,,,,,15,,,53,0
210480,note_on,1,0,12,,,,,,,,15,,,52,44
210480,note_on,1,0,11,,,,,,,,14,,,64,44
210480,note_on,21,0,8,,,,,,,,11,,,72,44
210480,note_on,21,0,10,,,,,,,,13,,,55,44
210480,note_on,0,0,10,,,,,,,,13,,,67,44
210480,note_on,21,0,9,,,,,,,,12,,,72,44
210579,note_on,0,0,10,,,,,,,,13,,,55,0
210579,note_on,99,0,10,,,,,,,,13,,,67,0
210579,note_on,99,0,8,,,,,,,,11,,,72,0
210579,note_on,99,0,9,,,,,,,,12,,,72,0
210600,note_on,21,0,10,,,,,,,,13,,,67,44
210600,note_on,21,0,9,,,,,,,,12,,,72,44
210600,note_on,21,0,8,,,,,,,,11,,,72,44
210600,note_on,0,0,10,,,,,,,,13,,,55,44
210699,note_on,99,0,8,,,,,,,,11,,,72,0
210699,note_on,0,0,10,,,,,,,,13,,,67,0
210699,note_on,99,0,9,,,,,,,,12,,,72,0
210699,note_on,219,0,11,,,,,,,,14,,,64,0
210699,note_on,219,0,12,,,,,,,,15,,,52,0
210699,note_on,99,0,10,,,,,,,,13,,,55,0
210720,note_on,0,0,5,,,,,,,,0,,,74,80
210720,note_on,21,0,8,,,,,,,,11,,,77,80
210720,note_on,481,0,5,,,,,,,,0,,,77,80
210720,note_on,721,0,7,,,,,,,,2,,,67,80
210720,note_on,0,0,10,,,,,,,,13,,,55,80
210720,note_on,21,0,10,,,,,,,,13,,,67,80
210720,note_on,721,0,6,,,,,,,,1,,,55,80
210720,note_on,21,0,11,,,,,,,,14,,,59,80
210720,note_on,21,0,12,,,,,,,,15,,,47,80
210720,note_on,21,0,9,,,,,,,,12,,,74,80
210819,note_on,99,0,10,,,,,,,,13,,,55,0
210819,note_on,0,0,10,,,,,,,,13,,,67,0
210819,note_on,99,0,8,,,,,,,,11,,,77,0
210819,note_on,99,0,9,,,,,,,,12,,,74,0
210840,note_on,21,0,8,,,,,,,,11,,,77,80
210840,note_on,21,0,9,,,,,,,,12,,,74,80
210840,note_on,21,0,10,,,,,,,,13,,,55,80
210840,note_on,0,0,10,,,,,,,,13,,,67,80
210939,note_on,99,0,9,,,,,,,,12,,,74,0
210939,note_on,99,0,10,,,,,,,,13,,,67,0
210939,note_on,0,0,10,,,,,,,,13,,,55,0
210939,note_on,99,0,8,,,,,,,,11,,,77,0
210959,note_on,239,0,7,,,,,,,,2,,,67,0
210959,note_on,239,0,6,,,,,,,,1,,,55,0
210959,note_on,239,0,11,,,,,,,,14,,,59,0
210959,note_on,0,0,5,,,,,,,,0,,,77,0
210959,note_on,239,0,12,,,,,,,,15,,,47,0
210959,note_on,239,0,5,,,,,,,,0,,,74,0
210960,note_on,0,0,10,,,,,,,,13,,,67,80
210960,note_on,21,0,9,,,,,,,,12,,,72,80
210960,note_on,1,0,12,,,,,,,,15,,,48,80
210960,note_on,21,0,8,,,,,,,,11,,,76,80
210960,note_on,1,0,11,,,,,,,,14,,,60,80
210960,note_on,0,0,5,,,,,,,,0,,,76,80
210960,note_on,1,0,5,,,,,,,,0,,,72,80
210960,note_on,21,0,10,,,,,,,,13,,,55,80
211059,note_on,99,0,9,,,,,,,,12,,,72,0
211059,note_on,0,0,10,,,,,,,,13,,,55,0
211059,note_on,99,0,10,,,,,,,,13,,,67,0
211059,note_on,99,0,8,,,,,,,,11,,,76,0
211080,note_on,21,0,9,,,,,,,,12,,,72,80
211080,note_on,21,0,10,,,,,,,,13,,,55,80
211080,note_on,0,0,10,,,,,,,,13,,,67,80
211080,note_on,21,0,8,,,,,,,,11,,,76,80
211179,note_on,99,0,8,,,,,,,,11,,,76,0
211179,note_on,219,0,12,,,,,,,,15,,,48,0
211179,note_on,219,0,11,,,,,,,,14,,,60,0
211179,note_on,99,0,9,,,,,,,,12,,,72,0
211179,note_on,0,0,10,,,,,,,,13,,,55,0
211179,note_on,99,0,10,,,,,,,,13,,,67,0
211199,note_on,239,0,5,,,,,,,,0,,,76,0
211199,note_on,0,0,5,,,,,,,,0,,,72,0
211200,note_on,21,0,8,,,,,,,,11,,,74,44
211200,note_on,21,0,12,,,,,,,,15,,,53,44
211200,note_on,21,0,11,,,,,,,,14,,,65,44
211200,note_on,0,0,10,,,,,,,,13,,,67,44
211200,note_on,21,0,10,,,,,,,,13,,,55,44
211200,note_on,21,0,9,,,,,,,,12,,,71,44
211299,note_on,99,0,8,,,,,,,,11,,,74,0
211299,note_on,0,0,10,,,,,,,,13,,,55,0
211299,note_on,99,0,10,,,,,,,,13,,,67,0
211299,note_on,99,0,9,,,,,,,,12,,,71,0
211320,note_on,0,0,10,,,,,,,,13,,,55,44
211320,note_on,21,0,8,,,,,,,,11,,,74,44
211320,note_on,21,0,10,,,,,,,,13,,,67,44
211320,note_on,21,0,9,,,,,,,,12,,,71,44
211419,note_on,99,0,8,,,,,,,,11,,,74,0
211419,note_on,99,0,9,,,,,,,,12,,,71,0
211419,note_on,0,0,10,,,,,,,,13,,,67,0
211419,note_on,99,0,10,,,,,,,,13,,,55,0
211439,note_on,239,0,11,,,,,,,,14,,,65,0
211439,note_on,239,0,12,,,,,,,,15,,,53,0
211440,note_on,1,0,11,,,,,,,,14,,,64,44
211440,note_on,0,0,10,,,,,,,,13,,,67,44
211440,note_on,21,0,9,,,,,,,,12,,,72,44
211440,note_on,1,0,12,,,,,,,,15,,,52,44
211440,note_on,21,0,8,,,,,,,,11,,,72,44
211440,note_on,21,0,10,,,,,,,,13,,,55,44
211539,note_on,99,0,8,,,,,,,,11,,,72,0
211539,note_on,99,0,9,,,,,,,,12,,,72,0
211539,note_on,99,0,10,,,,,,,,13,,,67,0
211539,note_on,0,0,10,,,,,,,,13,,,55,0
211560,note_on,21,0,8,,,,,,,,11,,,72,44
211560,note_on,21,0,10,,,,,,,,13,,,67,44
211560,note_on,0,0,10,,,,,,,,13,,,55,44
211560,note_on,21,0,9,,,,,,,,12,,,72,44
211659,note_on,99,0,8,,,,,,,,11,,,72,0
211659,note_on,99,0,10,,,,,,,,13,,,55,0
211659,note_on,0,0,10,,,,,,,,13,,,67,0
211659,note_on,219,0,11,,,,,,,,14,,,64,0
211659,note_on,219,0,12,,,,,,,,15,,,52,0
211659,note_on,99,0,9,,,,,,,,12,,,72,0
211680,note_on,721,0,6,,,,,,,,1,,,55,80
211680,note_on,481,0,5,,,,,,,,0,,,77,80
211680,note_on,0,0,5,,,,,,,,0,,,74,80
211680,note_on,21,0,11,,,,,,,,14,,,59,80
211680,note_on,21,0,9,,,,,,,,12,,,74,80
211680,note_on,21,0,8,,,,,,,,11,,,77,80
211680,note_on,21,0,12,,,,,,,,15,,,47,80
211680,note_on,21,0,10,,,,,,,,13,,,67,80
211680,note_on,0,0,10,,,,,,,,13,,,55,80
211680,note_on,721,0,7,,,,,,,,2,,,67,80
211779,note_on,0,0,10,,,,,,,,13,,,67,0
211779,note_on,99,0,10,,,,,,,,13,,,55,0
211779,note_on,99,0,8,,,,,,,,11,,,77,0
211779,note_on,99,0,9,,,,,,,,12,,,74,0
211800,note_on,21,0,9,,,,,,,,12,,,74,80
211800,note_on,21,0,10,,,,,,,,13,,,67,80
211800,note_on,0,0,10,,,,,,,,13,,,55,80
211800,note_on,21,0,8,,,,,,,,11,,,77,80
211899,note_on,99,0,8,,,,,,,,11,,,77,0
211899,note_on,99,0,10,,,,,,,,13,,,55,0
211899,note_on,0,0,10,,,,,,,,13,,,67,0
211899,note_on,99,0,9,,,,,,,,12,,,74,0
211919,note_on,239,0,6,,,,,,,,1,,,55,0
211919,note_on,239,0,12,,,,,,,,15,,,47,0
211919,note_on,239,0,11,,,,,,,,14,,,59,0
211919,note_on,239,0,5,,,,,,,,0,,,74,0
211919,note_on,0,0,5,,,,,,,,0,,,77,0
211919,note_on,239,0,7,,,,,,,,2,,,67,0
211920,note_on,1,0,11,,,,,,,,14,,,60,80
211920,note_on,1,0,12,,,,,,,,15,,,48,80
211920,note_on,1,0,5,,,,,,,,0,,,72,80
211920,note_on,0,0,5,,,,,,,,0,,,76,80
211920,note_on,21,0,10,,,,,,,,13,,,67,80
211920,note_on,0,0,10,,,,,,,,13,,,55,80
211920,note_on,21,0,9,,,,,,,,12,,,72,80
211920,note_on,21,0,8,,,,,,,,11,,,76,80
212019,note_on,99,0,8,,,,,,,,11,,,76,0
212019,note_on,0,0,10,,,,,,,,13,,,67,0
212019,note_on,99,0,10,,,,,,,,13,,,55,0
212019,note_on,99,0,9,,,,,,,,12,,,72,0
212040,note_on,21,0,8,,,,,,,,11,,,76,80
212040,note_on,21,0,9,,,,,,,,12,,,72,80
212040,note_on,0,0,10,,,,,,,,13,,,67,80
212040,note_on,21,0,10,,,,,,,,13,,,55,80
212139,note_on,99,0,8,,,,,,,,11,,,76,0
212139,note_on,219,0,12,,,,,,,,15,,,48,0
212139,note_on,99,0,9,,,,,,,,12,,,72,0
212139,note_on,0,0,10,,,,,,,,13,,,55,0
212139,note_on,99,0,10,,,,,,,,13,,,67,0
212139,note_on,219,0,11,,,,,,,,14,,,60,0
212159,note_on,0,0,5,,,,,,,,0,,,72,0
212159,note_on,239,0,5,,,,,,,,0,,,76,0
212160,note_on,21,0,12,,,,,,,,15,,,53,44
212160,note_on,21,0,9,,,,,,,,12,,,71,44
212160,note_on,21,0,11,,,,,,,,14,,,65,44
212160,note_on,21,0,8,,,,,,,,11,,,74,44
212160,note_on,0,0,10,,,,,,,,13,,,55,44
212160,note_on,21,0,10,,,,,,,,13,,,67,44
212259,note_on,99,0,8,,,,,,,,11,,,74,0
212259,note_on,99,0,9,,,,,,,,12,,,71,0
212259,note_on,0,0,10,,,,,,,,13,,,67,0
212259,note_on,99,0,10,,,,,,,,13,,,55,0
212280,note_on,21,0,9,,,,,,,,12,,,71,44
212280,note_on,21,0,10,,,,,,,,13,,,67,44
212280,note_on,0,0,10,,,,,,,,13,,,55,44
212280,note_on,21,0,8,,,,,,,,11,,,74,44
212379,note_on,99,0,9,,,,,,,,12,,,71,0
212379,note_on,0,0,10,,,,,,,,13,,,67,0
212379,note_on,99,0,10,,,,,,,,13,,,55,0
212379,note_on,99,0,8,,,,,,,,11,,,74,0
212399,note_on,239,0,12,,,,,,,,15,,,53,0
212399,note_on,239,0,11,,,,,,,,14,,,65,0
212400,note_on,0,0,10,,,,,,,,13,,,67,44
212400,note_on,21,0,9,,,,,,,,12,,,72,44
212400,note_on,21,0,8,,,,,,,,11,,,72,44
212400,note_on,21,0,10,,,,,,,,13,,,55,44
212400,note_on,1,0,11,,,,,,,,14,,,64,44
212400,note_on,1,0,12,,,,,,,,15,,,52,44
212499,note_on,99,0,10,,,,,,,,13,,,67,0
212499,note_on,0,0,10,,,,,,,,13,,,55,0
212499,note_on,99,0,8,,,,,,,,11,,,72,0
212499,note_on,99,0,9,,,,,,,,12,,,72,0
212520,note_on,21,0,10,,,,,,,,13,,,67,44
212520,note_on,0,0,10,,,,,,,,13,,,55,44
212520,note_on,21,0,9,,,,,,,,12,,,72,44
212520,note_on,21,0,8,,,,,,,,11,,,72,44
212619,note_on,219,0,11,,,,,,,,14,,,64,0
212619,note_on,99,0,8,,,,,,,,11,,,72,0
212619,note_on,99,0,10,,,,,,,,13,,,55,0
212619,note_on,219,0,12,,,,,,,,15,,,52,0
212619,note_on,99,0,9,,,,,,,,12,,,72,0
212619,note_on,0,0,10,,,,,,,,13,,,67,0
212640,note_on,21,0,8,,,,,,,,11,,,77,80
212640,note_on,721,0,7,,,,,,,,2,,,67,80
212640,note_on,721,0,6,,,,,,,,1,,,55,80
212640,note_on,21,0,12,,,,,,,,15,,,47,80
212640,note_on,0,0,5,,,,,,,,0,,,77,80
212640,note_on,481,0,5,,,,,,,,0,,,74,80
212640,note_on,21,0,10,,,,,,,,13,,,67,80
212640,note_on,0,0,10,,,,,,,,13,,,55,80
212640,note_on,21,0,11,,,,,,,,14,,,59,80
212640,note_on,21,0,9,,,,,,,,12,,,74,80
212739,note_on,99,0,9,,,,,,,,12,,,74,0
212739,note_on,99,0,8,,,,,,,,11,,,77,0
212739,note_on,99,0,10,,,,,,,,13,,,55,0
212739,note_on,0,0,10,,,,,,,,13,,,67,0
212760,note_on,21,0,9,,,,,,,,12,,,74,80
212760,note_on,21,0,8,,,,,,,,11,,,77,80
212760,note_on,21,0,10,,,,,,,,13,,,67,80
212760,note_on,0,0,10,,,,,,,,13,,,55,80
212859,note_on,99,0,10,,,,,,,,13,,,55,0
212859,note_on,0,0,10,,,,,,,,13,,,67,0
212859,note_on,99,0,8,,,,,,,,11,,,77,0
212859,note_on,99,0,9,,,,,,,,12,,,74,0
212879,note_on,239,0,12,,,,,,,,15,,,47,0
212879,note_on,0,0,5,,,,,,,,0,,,74,0
212879,note_on,239,0,5,,,,,,,,0,,,77,0
212879,note_on,239,0,11,,,,,,,,14,,,59,0
212880,note_on,21,0,10,,,,,,,,13,,,67,80
212880,note_on,21,0,9,,,,,,,,12,,,72,80
212880,note_on,1,0,11,,,,,,,,14,,,60,80
212880,note_on,21,0,8,,,,,,,,11,,,76,80
212880,note_on,0,0,10,,,,,,,,13,,,55,80
212880,note_on,0,0,5,,,,,,,,0,,,72,80
212880,note_on,1,0,5,,,,,,,,0,,,76,80
212880,note_on,1,0,12,,,,,,,,15,,,48,80
212979,note_on,99,0,8,,,,,,,,11,,,76,0
212979,note_on,99,0,10,,,,,,,,13,,,55,0
212979,note_on,99,0,9,,,,,,,,12,,,72,0
212979,note_on,0,0,10,,,,,,,,13,,,67,0
213000,note_on,21,0,10,,,,,,,,13,,,67,80
213000,note_on,21,0,8,,,,,,,,11,,,76,80
213000,note_on,21,0,9,,,,,,,,12,,,72,80
213000,note_on,0,0,10,,,,,,,,13,,,55,80
213099,note_on,0,0,5,,,,,,,,0,,,76,0
213099,note_on,99,0,8,,,,,,,,11,,,76,0
213099,note_on,99,0,10,,,,,,,,13,,,55,0
213099,note_on,219,0,5,,,,,,,,0,,,72,0
213099,note_on,0,0,10,,,,,,,,13,,,67,0
213099,note_on,459,0,6,,,,,,,,1,,,55,0
213099,note_on,99,0,9,,,,,,,,12,,,72,0
213099,note_on,219,0,11,,,,,,,,14,,,60,0
213099,note_on,459,0,7,,,,,,,,2,,,67,0
213099,note_on,219,0,12,,,,,,,,15,,,48,0
213120,note_on,21,0,11,,,,,,,,14,,,53,80
213120,note_on,21,0,6,,,,,,,,1,,,60,80
213120,note_on,21,0,9,,,,,,,,12,,,72,80
213120,note_on,21,0,5,,,,,,,,0,,,74,80
213120,note_on,0,0,5,,,,,,,,0,,,69,80
213120,note_on,21,0,12,,,,,,,,15,,,41,80
213120,note_on,0,0,7,,,,,,,,2,,,72,80
213120,note_on,0,0,6,,,,,,,,1,,,48,80
213120,note_on,21,0,7,,,,,,,,2,,,60,80
213120,note_on,21,0,10,,,,,,,,13,,,65,80
213120,note_on,21,0,8,,,,,,,,11,,,81,80
213219,note_on,99,0,9,,,,,,,,12,,,72,0
213219,note_on,99,0,8,,,,,,,,11,,,81,0
213219,note_on,99,0,10,,,,,,,,13,,,65,0
213240,note_on,21,0,9,,,,,,,,12,,,72,80
213240,note_on,21,0,8,,,,,,,,11,,,81,80
213240,note_on,21,0,10,,,,,,,,13,,,65,80
213339,note_on,219,0,12,,,,,,,,15,,,41,0
213339,note_on,219,0,11,,,,,,,,14,,,53,0
213339,note_on,99,0,9,,,,,,,,12,,,72,0
213339,note_on,99,0,10,,,,,,,,13,,,65,0
213339,note_on,99,0,8,,,,,,,,11,,,81,0
213360,note_on,21,0,9,,,,,,,,12,,,72,80
213360,note_on,21,0,12,,,,,,,,15,,,45,80
213360,note_on,21,0,8,,,,,,,,11,,,77,80
213360,note_on,21,0,10,,,,,,,,13,,,69,80
213360,note_on,21,0,11,,,,,,,,14,,,57,80
213459,note_on,99,0,9,,,,,,,,12,,,72,0
213459,note_on,99,0,8,,,,,,,,11,,,77,0
213459,note_on,99,0,10,,,,,,,,13,,,69,0
213480,note_on,21,0,10,,,,,,,,13,,,69,80
213480,note_on,21,0,9,,,,,,,,12,,,72,80
213480,note_on,21,0,8,,,,,,,,11,,,77,80
213579,note_on,99,0,8,,,,,,,,11,,,77,0
213579,note_on,99,0,9,,,,,,,,12,,,72,0
213579,note_on,219,0,12,,,,,,,,15,,,45,0
213579,note_on,99,0,10,,,,,,,,13,,,69,0
213579,note_on,219,0,11,,,,,,,,14,,,57,0
213600,note_on,21,0,10,,,,,,,,13,,,65,80
213600,note_on,21,0,11,,,,,,,,14,,,53,80
213600,note_on,21,0,12,,,,,,,,15,,,41,80
213600,note_on,21,0,9,,,,,,,,12,,,72,80
213600,note_on,21,0,8,,,,,,,,11,,,74,80
213699,note_on,99,0,9,,,,,,,,12,,,72,0
213699,note_on,99,0,10,,,,,,,,13,,,65,0
213699,note_on,99,0,8,,,,,,,,11,,,74,0
213720,note_on,21,0,8,,,,,,,,11,,,74,80
213720,note_on,21,0,9,,,,,,,,12,,,72,80
213720,note_on,21,0,10,,,,,,,,13,,,65,80
213819,note_on,699,0,5,,,,,,,,0,,,69,0
213819,note_on,99,0,10,,,,,,,,13,,,65,0
213819,note_on,99,0,9,,,,,,,,12,,,72,0
213819,note_on,99,0,8,,,,,,,,11,,,74,0
213819,note_on,0,0,5,,,,,,,,0,,,74,0
213819,note_on,219,0,12,,,,,,,,15,,,41,0
213819,note_on,219,0,11,,,,,,,,14,,,53,0
213840,note_on,21,0,11,,,,,,,,14,,,50,80
213840,note_on,21,0,8,,,,,,,,11,,,77,80
213840,note_on,0,0,5,,,,,,,,0,,,65,80
213840,note_on,21,0,10,,,,,,,,13,,,62,80
213840,note_on,21,0,5,,,,,,,,0,,,77,80
213840,note_on,21,0,12,,,,,,,,15,,,38,80
213840,note_on,21,0,9,,,,,,,,12,,,72,80
213939,note_on,99,0,8,,,,,,,,11,,,77,0
213939,note_on,99,0,9,,,,,,,,12,,,72,0
213939,note_on,99,0,10,,,,,,,,13,,,62,0
213960,note_on,21,0,10,,,,,,,,13,,,62,80
213960,note_on,21,0,8,,,,,,,,11,,,77,80
213960,note_on,21,0,9,,,,,,,,12,,,72,80
214059,note_on,939,0,6,,,,,,,,1,,,48,0
214059,note_on,0,0,6,,,,,,,,1,,,60,0
214059,note_on,99,0,10,,,,,,,,13,,,62,0
214059,note_on,219,0,12,,,,,,,,15,,,38,0
214059,note_on,99,0,9,,,,,,,,12,,,72,0
214059,note_on,99,0,8,,,,,,,,11,,,77,0
214059,note_on,0,0,7,,,,,,,,2,,,60,0
214059,note_on,0,0,5,,,,,,,,0,,,77,0
214059,note_on,219,0,5,,,,,,,,0,,,65,0
214059,note_on,219,0,11,,,,,,,,14,,,50,0
214059,note_on,939,0,7,,,,,,,,2,,,72,0
214080,note_on,21,0,6,,,,,,,,1,,,64,80
214080,note_on,0,0,5,,,,,,,,0,,,72,80
214080,note_on,21,0,5,,,,,,,,0,,,76,80
214080,note_on,21,0,11,,,,,,,,14,,,55,80
214080,note_on,21,0,8,,,,,,,,11,,,76,80
214080,note_on,21,0,10,,,,,,,,13,,,67,80
214080,note_on,0,0,6,,,,,,,,1,,,60,80
214080,note_on,0,0,7,,,,,,,,2,,,67,80
214080,note_on,21,0,7,,,,,,,,2,,,55,80
214080,note_on,21,0,9,,,,,,,,12,,,72,80
214080,note_on,21,0,12,,,,,,,,15,,,43,80
214179,note_on,99,0,10,,,,,,,,13,,,67,0
214179,note_on,99,0,9,,,,,,,,12,,,72,0
214179,note_on,99,0,8,,,,,,,,11,,,76,0
214200,note_on,21,0,10,,,,,,,,13,,,67,80
214200,note_on,21,0,9,,,,,,,,12,,,72,80
214200,note_on,21,0,8,,,,,,,,11,,,76,80
214299,note_on,99,0,10,,,,,,,,13,,,67,0
214299,note_on,99,0,8,,,,,,,,11,,,76,0
214299,note_on,99,0,9,,,,,,,,12,,,72,0
214320,note_on,21,0,9,,,,,,,,12,,,76,80
214320,note_on,21,0,10,,,,,,,,13,,,67,80
214320,note_on,21,0,8,,,,,,,,11,,,79,80
214419,note_on,99,0,10,,,,,,,,13,,,67,0
214419,note_on,99,0,8,,,,,,,,11,,,79,0
214419,note_on,99,0,9,,,,,,,,12,,,76,0
214440,note_on,21,0,10,,,,,,,,13,,,67,80
214440,note_on,21,0,9,,,,,,,,12,,,76,80
214440,note_on,21,0,8,,,,,,,,11,,,79,80
214539,note_on,0,0,6,,,,,,,,1,,,64,0
214539,note_on,459,0,6,,,,,,,,1,,,60,0
214539,note_on,459,0,12,,,,,,,,15,,,43,0
214539,note_on,0,0,5,,,,,,,,0,,,76,0
214539,note_on,99,0,10,,,,,,,,13,,,67,0
214539,note_on,459,0,5,,,,,,,,0,,,72,0
214539,note_on,99,0,9,,,,,,,,12,,,76,0
214539,note_on,99,0,8,,,,,,,,11,,,79,0
214539,note_on,459,0,11,,,,,,,,14,,,55,0
214560,note_on,21,0,6,,,,,,,,1,,,62,80
214560,note_on,0,0,6,,,,,,,,1,,,55,80
214560,note_on,21,0,5,,,,,,,,0,,,71,80
214560,note_on,0,0,5,,,,,,,,0,,,74,80
214560,note_on,21,0,12,,,,,,,,15,,,31,80
214560,note_on,21,0,8,,,,,,,,11,,,77,80
214560,note_on,21,0,10,,,,,,,,13,,,55,80
214560,note_on,21,0,9,,,,,,,,12,,,74,80
214560,note_on,21,0,11,,,,,,,,14,,,43,80
214659,note_on,99,0,10,,,,,,,,13,,,55,0
214659,note_on,99,0,8,,,,,,,,11,,,77,0
214659,note_on,99,0,9,,,,,,,,12,,,74,0
214680,note_on,21,0,10,,,,,,,,13,,,55,80
214680,note_on,21,0,8,,,,,,,,11,,,77,80
214680,note_on,21,0,9,,,,,,,,12,,,74,80
214779,note_on,99,0,9,,,,,,,,12,,,74,0
214779,note_on,99,0,10,,,,,,,,13,,,55,0
214779,note_on,99,0,8,,,,,,,,11,,,77,0
214800,note_on,21,0,9,,,,,,,,12,,,71,80
214800,note_on,21,0,10,,,,,,,,13,,,55,80
214800,note_on,21,0,8,,,,,,,,11,,,74,80
214899,note_on,99,0,9,,,,,,,,12,,,71,0
214899,note_on,99,0,8,,,,,,,,11,,,74,0
214899,note_on,99,0,10,,,,,,,,13,,,55,0
214920,note_on,21,0,10,,,,,,,,13,,,55,80
214920,note_on,21,0,9,,,,,,,,12,,,71,80
214920,note_on,21,0,8,,,,,,,,11,,,74,80
215019,note_on,0,0,5,,,,,,,,0,,,71,0
215019,note_on,939,0,7,,,,,,,,2,,,67,0
215019,note_on,0,0,7,,,,,,,,2,,,55,0
215019,note_on,99,0,9,,,,,,,,12,,,71,0
215019,note_on,459,0,5,,,,,,,,0,,,74,0
215019,note_on,459,0,6,,,,,,,,1,,,55,0
215019,note_on,99,0,10,,,,,,,,13,,,55,0
215019,note_on,0,0,6,,,,,,,,1,,,62,0
215019,note_on,459,0,11,,,,,,,,14,,,43,0
215019,note_on,99,0,8,,,,,,,,11,,,74,0
215019,note_on,459,0,12,,,,,,,,15,,,31,0
215040,note_on,0,0,6,,,,,,,,1,,,52,80
215040,note_on,21,0,6,,,,,,,,1,,,60,80
215040,note_on,21,0,5,,,,,,,,0,,,72,80
215040,note_on,21,0,12,,,,,,,,15,,,36,80
215040,note_on,21,0,7,,,,,,,,2,,,60,80
215040,note_on,21,0,10,,,,,,,,13,,,48,80
215040,note_on,21,0,9,,,,,,,,12,,,72,80
215040,note_on,21,0,8,,,,,,,,11,,,72,80
215040,note_on,0,0,7,,,,,,,,2,,,64,80
215040,note_on,21,0,11,,,,,,,,14,,,48,80
215139,note_on,99,0,9,,,,,,,,12,,,72,0
215160,note_on,21,0,9,,,,,,,,12,,,55,44
215259,note_on,99,0,9,,,,,,,,12,,,55,0
215279,note_on,0,0,6,,,,,,,,1,,,60,0
215279,note_on,239,0,10,,,,,,,,13,,,48,0
215279,note_on,239,0,6,,,,,,,,1,,,52,0
215279,note_on,239,0,7,,,,,,,,2,,,64,0
215279,note_on,0,0,7,,,,,,,,2,,,60,0
215279,note_on,239,0,8,,,,,,,,11,,,72,0
215279,note_on,239,0,5,,,,,,,,0,,,72,0
215279,note_on,239,0,12,,,,,,,,15,,,36,0
215279,note_on,239,0,11,,,,,,,,14,,,48,0
215280,note_on,21,0,9,,,,,,,,12,,,55,44
215379,note_on,99,0,9,,,,,,,,12,,,55,0
215400,note_on,21,0,9,,,,,,,,12,,,55,44
215499,note_on,99,0,9,,,,,,,,12,,,55,0
215520,note_on,241,0,8,,,,,,,,11,,,65,44
215520,note_on,21,0,9,,,,,,,,12,,,62,44
215520,note_on,241,0,10,,,,,,,,13,,,59,44
215639,note_on,119,0,9,,,,,,,,12,,,62,0
215640,note_on,1,0,9,,,,,,,,12,,,55,44
215759,note_on,239,0,10,,,,,,,,13,,,59,0
215759,note_on,239,0,8,,,,,,,,11,,,65,0
215759,note_on,119,0,9,,,,,,,,12,,,55,0
215760,note_on,1,0,10,,,,,,,,13,,,60,44
215760,note_on,1,0,8,,,,,,,,11,,,64,44
215760,note_on,1,0,9,,,,,,,,12,,,60,44
215879,note_on,119,0,9,,,,,,,,12,,,60,0
215880,note_on,1,0,9,,,,,,,,12,,,55,44
215979,note_on,99,0,9,,,,,,,,12,,,55,0
215999,note_on,239,0,10,,,,,,,,13,,,60,0
215999,note_on,239,0,8,,,,,,,,11,,,64,0
216000,note_on,1,0,10,,,,,,,,13,,,53,44
216000,note_on,21,0,9,,,,,,,,12,,,59,44
216000,note_on,1,0,8,,,,,,,,11,,,62,44
216119,note_on,119,0,9,,,,,,,,12,,,59,0
216120,note_on,1,0,9,,,,,,,,12,,,55,44
216239,note_on,239,0,8,,,,,,,,11,,,62,0
216239,note_on,119,0,9,,,,,,,,12,,,55,0
216239,note_on,239,0,10,,,,,,,,13,,,53,0
216240,note_on,1,0,10,,,,,,,,13,,,52,44
216240,note_on,1,0,8,,,,,,,,11,,,60,44
216240,note_on,1,0,9,,,,,,,,12,,,60,44
216359,note_on,119,0,9,,,,,,,,12,,,60,0
216360,note_on,1,0,9,,,,,,,,12,,,55,44
216459,note_on,219,0,8,,,,,,,,11,,,60,0
216459,note_on,99,0,9,,,,,,,,12,,,55,0
216459,note_on,219,0,10,,,,,,,,13,,,52,0
216480,note_on,21,0,10,,,,,,,,13,,,59,44
216480,note_on,21,0,8,,,,,,,,11,,,65,44
216480,note_on,21,0,9,,,,,,,,12,,,62,44
216599,note_on,119,0,9,,,,,,,,12,,,62,0
216600,note_on,1,0,9,,,,,,,,12,,,55,44
216719,note_on,119,0,9,,,,,,,,12,,,55,0
216719,note_on,239,0,8,,,,,,,,11,,,65,0
216719,note_on,239,0,10,,,,,,,,13,,,59,0
216720,note_on,1,0,9,,,,,,,,12,,,60,44
216720,note_on,1,0,8,,,,,,,,11,,,64,44
216720,note_on,1,0,10,,,,,,,,13,,,60,44
216839,note_on,119,0,9,,,,,,,,12,,,60,0
216840,note_on,1,0,9,,,,,,,,12,,,55,44
216939,note_on,99,0,9,,,,,,,,12,,,55,0
216959,note_on,239,0,8,,,,,,,,11,,,64,0
216959,note_on,239,0,10,,,,,,,,13,,,60,0
216960,note_on,1,0,8,,,,,,,,11,,,62,44
216960,note_on,1,0,10,,,,,,,,13,,,53,44
216960,note_on,21,0,9,,,,,,,,12,,,59,44
217079,note_on,119,0,9,,,,,,,,12,,,59,0
217080,note_on,1,0,9,,,,,,,,12,,,55,44
217199,note_on,239,0,8,,,,,,,,11,,,62,0
217199,note_on,239,0,10,,,,,,,,13,,,53,0
217199,note_on,119,0,9,,,,,,,,12,,,55,0
217200,note_on,1,0,8,,,,,,,,11,,,60,44
217200,note_on,1,0,9,,,,,,,,12,,,60,44
217200,note_on,1,0,10,,,,,,,,13,,,52,44
217319,note_on,119,0,9,,,,,,,,12,,,60,0
217320,note_on,1,0,9,,,,,,,,12,,,55,44
217419,note_on,219,0,8,,,,,,,,11,,,60,0
217419,note_on,219,0,10,,,,,,,,13,,,52,0
217419,note_on,99,0,9,,,,,,,,12,,,55,0
217440,note_on,21,0,8,,,,,,,,11,,,65,44
217440,note_on,21,0,9,,,,,,,,12,,,62,44
217440,note_on,21,0,10,,,,,,,,13,,,59,44
217559,note_on,119,0,9,,,,,,,,12,,,62,0
217560,note_on,1,0,9,,,,,,,,12,,,55,44
217679,note_on,119,0,9,,,,,,,,12,,,55,0
217679,note_on,239,0,8,,,,,,,,11,,,65,0
217679,note_on,239,0,10,,,,,,,,13,,,59,0
217680,note_on,1,0,8,,,,,,,,11,,,64,44
217680,note_on,1,0,9,,,,,,,,12,,,60,44
217680,note_on,1,0,10,,,,,,,,13,,,60,44
217799,note_on,119,0,9,,,,,,,,12,,,60,0
217800,note_on,1,0,9,,,,,,,,12,,,55,44
217899,note_on,99,0,9,,,,,,,,12,,,55,0
217919,note_on,239,0,8,,,,,,,,11,,,64,0
217919,note_on,239,0,10,,,,,,,,13,,,60,0
217920,note_on,21,0,9,,,,,,,,12,,,59,44
217920,note_on,1,0,8,,,,,,,,11,,,62,44
217920,note_on,1,0,10,,,,,,,,13,,,53,44
218039,note_on,119,0,9,,,,,,,,12,,,59,0
218040,note_on,1,0,9,,,,,,,,12,,,55,44
218159,note_on,119,0,9,,,,,,,,12,,,55,0
218159,note_on,239,0,8,,,,,,,,11,,,62,0
218159,note_on,239,0,10,,,,,,,,13,,,53,0
218160,note_on,1,0,8,,,,,,,,11,,,60,44
218160,note_on,1,0,10,,,,,,,,13,,,52,44
218160,note_on,1,0,9,,,,,,,,12,,,60,44
218279,note_on,119,0,9,,,,,,,,12,,,60,0
218280,note_on,1,0,9,,,,,,,,12,,,55,44
218379,note_on,219,0,8,,,,,,,,11,,,60,0
218379,note_on,219,0,10,,,,,,,,13,,,52,0
218379,note_on,99,0,9,,,,,,,,12,,,55,0
218400,note_on,21,0,8,,,,,,,,11,,,65,44
218400,note_on,21,0,9,,,,,,,,12,,,62,44
218400,note_on,21,0,10,,,,,,,,13,,,59,44
218519,note_on,119,0,9,,,,,,,,12,,,62,0
218520,note_on,1,0,9,,,,,,,,12,,,55,44
218639,note_on,119,0,9,,,,,,,,12,,,55,0
218639,note_on,239,0,10,,,,,,,,13,,,59,0
218639,note_on,239,0,8,,,,,,,,11,,,65,0
218640,note_on,1,0,9,,,,,,,,12,,,60,44
218640,note_on,1,0,8,,,,,,,,11,,,64,44
218640,note_on,1,0,10,,,,,,,,13,,,60,44
218759,note_on,119,0,9,,,,,,,,12,,,60,0
218760,note_on,1,0,9,,,,,,,,12,,,55,44
218859,note_on,219,0,10,,,,,,,,13,,,60,0
218859,note_on,99,0,9,,,,,,,,12,,,55,0
218859,note_on,219,0,8,,,,,,,,11,,,64,0
218880,note_on,21,0,10,,,,,,,,13,,,53,44
218880,note_on,21,0,8,,,,,,,,11,,,69,44
218880,note_on,21,0,9,,,,,,,,12,,,60,44
219099,note_on,219,0,9,,,,,,,,12,,,60,0
219119,note_on,239,0,8,,,,,,,,11,,,69,0
219120,note_on,1,0,8,,,,,,,,11,,,65,44
219120,note_on,21,0,9,,,,,,,,12,,,57,44
219359,note_on,239,0,8,,,,,,,,11,,,65,0
219360,note_on,1,0,8,,,,,,,,11,,,62,44
219579,note_on,219,0,8,,,,,,,,11,,,62,0
219599,note_on,479,0,9,,,,,,,,12,,,57,0
219600,note_on,1,0,9,,,,,,,,12,,,62,44
219600,note_on,21,0,8,,,,,,,,11,,,65,44
219719,note_on,119,0,8,,,,,,,,11,,,65,0
219819,note_on,939,0,10,,,,,,,,13,,,53,0
219819,note_on,219,0,9,,,,,,,,12,,,62,0
219840,note_on,21,0,10,,,,,,,,13,,,55,44
219840,note_on,121,0,8,,,,,,,,11,,,64,44
219840,note_on,21,0,9,,,,,,,,12,,,60,44
220079,note_on,239,0,9,,,,,,,,12,,,60,0
220079,note_on,239,0,8,,,,,,,,11,,,64,0
220080,note_on,1,0,9,,,,,,,,12,,,64,44
220080,note_on,1,0,8,,,,,,,,11,,,67,44
220299,note_on,459,0,10,,,,,,,,13,,,55,0
220299,note_on,219,0,8,,,,,,,,11,,,67,0
220299,note_on,219,0,9,,,,,,,,12,,,64,0
220320,note_on,21,0,8,,,,,,,,11,,,65,44
220320,note_on,21,0,9,,,,,,,,12,,,62,44
220320,note_on,21,0,10,,,,,,,,13,,,55,44
220559,note_on,239,0,8,,,,,,,,11,,,65,0
220559,note_on,239,0,9,,,,,,,,12,,,62,0
220560,note_on,1,0,9,,,,,,,,12,,,59,44
220560,note_on,1,0,8,,,,,,,,11,,,62,44
220779,note_on,219,0,8,,,,,,,,11,,,62,0
220779,note_on,219,0,9,,,,,,,,12,,,59,0
220779,note_on,459,0,10,,,,,,,,13,,,55,0
220800,note_on,21,0,9,,,,,,,,12,,,60,80
220800,note_on,5521,0,5,,,,,,,,0,,,72,80
220800,note_on,5521,0,11,,,,,,,,14,,,60,80
220800,note_on,21,0,10,,,,,,,,13,,,60,80
220800,note_on,5521,0,12,,,,,,,,15,,,48,80
220800,note_on,21,0,8,,,,,,,,11,,,60,80
220800,note_on,0,0,5,,,,,,,,0,,,84,80
220800,note_on,5521,0,6,,,,,,,,1,,,60,80
220800,note_on,0,0,6,,,,,,,,1,,,48,80
220800,note_on,0,0,7,,,,,,,,2,,,60,80
220800,note_on,5521,0,7,,,,,,,,2,,,72,80
220899,note_on,99,0,8,,,,,,,,11,,,60,0
220899,note_on,99,0,10,,,,,,,,13,,,60,0
220899,note_on,99,0,12,,,,,,,,15,,,48,0
220899,note_on,99,0,11,,,,,,,,14,,,60,0
220899,note_on,99,0,9,,,,,,,,12,,,60,0
220920,note_on,21,0,11,,,,,,,,14,,,62,80
220920,note_on,21,0,12,,,,,,,,15,,,50,80
220920,note_on,21,0,10,,,,,,,,13,,,62,80
220920,note_on,21,0,9,,,,,,,,12,,,62,80
220920,note_on,21,0,8,,,,,,,,11,,,62,80
221019,note_on,99,0,11,,,,,,,,14,,,62,0
221019,note_on,99,0,8,,,,,,,,11,,,62,0
221019,note_on,99,0,9,,,,,,,,12,,,62,0
221019,note_on,99,0,12,,,,,,,,15,,,50,0
221019,note_on,99,0,10,,,,,,,,13,,,62,0
221040,note_on,21,0,10,,,,,,,,13,,,64,80
221040,note_on,21,0,8,,,,,,,,11,,,64,80
221040,note_on,21,0,9,,,,,,,,12,,,64,80
221040,note_on,21,0,12,,,,,,,,15,,,52,80
221040,note_on,21,0,11,,,,,,,,14,,,64,80
221139,note_on,99,0,8,,,,,,,,11,,,64,0
221139,note_on,99,0,12,,,,,,,,15,,,52,0
221139,note_on,99,0,10,,,,,,,,13,,,64,0
221139,note_on,99,0,11,,,,,,,,14,,,64,0
221139,note_on,99,0,9,,,,,,,,12,,,64,0
221160,note_on,21,0,10,,,,,,,,13,,,60,80
221160,note_on,21,0,9,,,,,,,,12,,,60,80
221160,note_on,21,0,11,,,,,,,,14,,,60,80
221160,note_on,21,0,8,,,,,,,,11,,,60,80
221160,note_on,21,0,12,,,,,,,,15,,,48,80
221259,note_on,99,0,11,,,,,,,,14,,,60,0
221259,note_on,459,0,6,,,,,,,,1,,,48,0
221259,note_on,0,0,6,,,,,,,,1,,,60,0
221259,note_on,459,0,5,,,,,,,,0,,,84,0
221259,note_on,99,0,10,,,,,,,,13,,,60,0
221259,note_on,99,0,8,,,,,,,,11,,,60,0
221259,note_on,0,0,5,,,,,,,,0,,,72,0
221259,note_on,99,0,12,,,,,,,,15,,,48,0
221259,note_on,459,0,7,,,,,,,,2,,,60,0
221259,note_on,0,0,7,,,,,,,,2,,,72,0
221259,note_on,99,0,9,,,,,,,,12,,,60,0
221280,note_on,21,0,12,,,,,,,,15,,,43,80
221280,note_on,21,0,10,,,,,,,,13,,,55,80
221280,note_on,0,0,5,,,,,,,,0,,,79,80
221280,note_on,21,0,9,,,,,,,,12,,,55,80
221280,note_on,21,0,5,,,,,,,,0,,,67,80
221280,note_on,21,0,6,,,,,,,,1,,,55,80
221280,note_on,21,0,11,,,,,,,,14,,,55,80
221280,note_on,21,0,8,,,,,,,,11,,,55,80
221280,note_on,0,0,7,,,,,,,,2,,,67,80
221280,note_on,0,0,6,,,,,,,,1,,,43,80
221280,note_on,21,0,7,,,,,,,,2,,,55,80
221379,note_on,99,0,12,,,,,,,,15,,,43,0
221379,note_on,99,0,11,,,,,,,,14,,,55,0
221379,note_on,99,0,8,,,,,,,,11,,,55,0
221379,note_on,99,0,9,,,,,,,,12,,,55,0
221379,note_on,99,0,10,,,,,,,,13,,,55,0
221400,note_on,21,0,10,,,,,,,,13,,,57,80
221400,note_on,21,0,11,,,,,,,,14,,,57,80
221400,note_on,21,0,8,,,,,,,,11,,,57,80
221400,note_on,21,0,12,,,,,,,,15,,,45,80
221400,note_on,21,0,9,,,,,,,,12,,,57,80
221499,note_on,99,0,12,,,,,,,,15,,,45,0
221499,note_on,99,0,9,,,,,,,,12,,,57,0
221499,note_on,99,0,10,,,,,,,,13,,,57,0
221499,note_on,99,0,8,,,,,,,,11,,,57,0
221499,note_on,99,0,11,,,,,,,,14,,,57,0
221520,note_on,21,0,10,,,,,,,,13,,,59,80
221520,note_on,21,0,12,,,,,,,,15,,,47,80
221520,note_on,21,0,11,,,,,,,,14,,,59,80
221520,note_on,21,0,8,,,,,,,,11,,,59,80
221520,note_on,21,0,9,,,,,,,,12,,,59,80
221619,note_on,99,0,11,,,,,,,,14,,,59,0
221619,note_on,99,0,12,,,,,,,,15,,,47,0
221619,note_on,99,0,9,,,,,,,,12,,,59,0
221619,note_on,99,0,10,,,,,,,,13,,,59,0
221619,note_on,99,0,8,,,,,,,,11,,,59,0
221640,note_on,21,0,9,,,,,,,,12,,,55,80
221640,note_on,21,0,12,,,,,,,,15,,,43,80
221640,note_on,21,0,10,,,,,,,,13,,,55,80
221640,note_on,21,0,11,,,,,,,,14,,,55,80
221640,note_on,21,0,8,,,,,,,,11,,,55,80
221739,note_on,459,0,5,,,,,,,,0,,,79,0
221739,note_on,99,0,8,,,,,,,,11,,,55,0
221739,note_on,99,0,12,,,,,,,,15,,,43,0
221739,note_on,99,0,11,,,,,,,,14,,,55,0
221739,note_on,99,0,10,,,,,,,,13,,,55,0
221739,note_on,99,0,9,,,,,,,,12,,,55,0
221739,note_on,0,0,7,,,,,,,,2,,,55,0
221739,note_on,459,0,7,,,,,,,,2,,,67,0
221739,note_on,459,0,6,,,,,,,,1,,,43,0
221739,note_on,0,0,6,,,,,,,,1,,,55,0
221739,note_on,0,0,5,,,,,,,,0,,,67,0
221760,note_on,21,0,12,,,,,,,,15,,,48,80
221760,note_on,21,0,10,,,,,,,,13,,,60,80
221760,note_on,0,0,7,,,,,,,,2,,,60,80
221760,note_on,21,0,11,,,,,,,,14,,,60,80
221760,note_on,21,0,8,,,,,,,,11,,,60,80
221760,note_on,0,0,6,,,,,,,,1,,,48,80
221760,note_on,21,0,6,,,,,,,,1,,,60,80
221760,note_on,21,0,9,,,,,,,,12,,,60,80
221760,note_on,21,0,7,,,,,,,,2,,,72,80
221760,note_on,21,0,5,,,,,,,,0,,,72,80
221760,note_on,0,0,5,,,,,,,,0,,,84,80
221859,note_on,99,0,8,,,,,,,,11,,,60,0
221859,note_on,99,0,10,,,,,,,,13,,,60,0
221859,note_on,99,0,11,,,,,,,,14,,,60,0
221859,note_on,99,0,9,,,,,,,,12,,,60,0
221859,note_on,99,0,12,,,,,,,,15,,,48,0
221880,note_on,21,0,9,,,,,,,,12,,,62,80
221880,note_on,21,0,10,,,,,,,,13,,,62,80
221880,note_on,21,0,8,,,,,,,,11,,,62,80
221880,note_on,21,0,11,,,,,,,,14,,,62,80
221880,note_on,21,0,12,,,,,,,,15,,,50,80
221979,note_on,99,0,8,,,,,,,,11,,,62,0
221979,note_on,99,0,12,,,,,,,,15,,,50,0
221979,note_on,99,0,11,,,,,,,,14,,,62,0
221979,note_on,99,0,9,,,,,,,,12,,,62,0
221979,note_on,99,0,10,,,,,,,,13,,,62,0
222000,note_on,21,0,9,,,,,,,,12,,,64,80
222000,note_on,21,0,11,,,,,,,,14,,,64,80
222000,note_on,21,0,10,,,,,,,,13,,,64,80
222000,note_on,21,0,12,,,,,,,,15,,,52,80
222000,note_on,21,0,8,,,,,,,,11,,,64,80
222099,note_on,99,0,11,,,,,,,,14,,,64,0
222099,note_on,99,0,9,,,,,,,,12,,,64,0
222099,note_on,99,0,12,,,,,,,,15,,,52,0
222099,note_on,99,0,10,,,,,,,,13,,,64,0
222099,note_on,99,0,8,,,,,,,,11,,,64,0
222120,note_on,21,0,9,,,,,,,,12,,,60,80
222120,note_on,21,0,11,,,,,,,,14,,,60,80
222120,note_on,21,0,12,,,,,,,,15,,,48,80
222120,note_on,21,0,8,,,,,,,,11,,,60,80
222120,note_on,21,0,10,,,,,,,,13,,,60,80
222219,note_on,459,0,7,,,,,,,,2,,,60,0
222219,note_on,0,0,7,,,,,,,,2,,,72,0
222219,note_on,99,0,11,,,,,,,,14,,,60,0
222219,note_on,99,0,8,,,,,,,,11,,,60,0
222219,note_on,0,0,6,,,,,,,,1,,,60,0
222219,note_on,459,0,6,,,,,,,,1,,,48,0
222219,note_on,459,0,5,,,,,,,,0,,,84,0
222219,note_on,0,0,5,,,,,,,,0,,,72,0
222219,note_on,99,0,9,,,,,,,,12,,,60,0
222219,note_on,99,0,12,,,,,,,,15,,,48,0
222219,note_on,99,0,10,,,,,,,,13,,,60,0
222240,note_on,0,0,7,,,,,,,,2,,,67,80
222240,note_on,21,0,7,,,,,,,,2,,,55,80
222240,note_on,21,0,11,,,,,,,,14,,,55,80
222240,note_on,21,0,8,,,,,,,,11,,,55,80
222240,note_on,21,0,12,,,,,,,,15,,,43,80
222240,note_on,21,0,5,,,,,,,,0,,,79,80
222240,note_on,0,0,5,,,,,,,,0,,,67,80
222240,note_on,0,0,6,,,,,,,,1,,,43,80
222240,note_on,21,0,6,,,,,,,,1,,,55,80
222240,note_on,21,0,10,,,,,,,,13,,,55,80
222240,note_on,21,0,9,,,,,,,,12,,,55,80
222339,note_on,99,0,10,,,,,,,,13,,,55,0
222339,note_on,99,0,12,,,,,,,,15,,,43,0
222339,note_on,99,0,8,,,,,,,,11,,,55,0
222339,note_on,99,0,9,,,,,,,,12,,,55,0
222339,note_on,99,0,11,,,,,,,,14,,,55,0
222360,note_on,21,0,12,,,,,,,,15,,,45,80
222360,note_on,21,0,8,,,,,,,,11,,,57,80
222360,note_on,21,0,11,,,,,,,,14,,,57,80
222360,note_on,21,0,10,,,,,,,,13,,,57,80
222360,note_on,21,0,9,,,,,,,,12,,,57,80
222459,note_on,99,0,12,,,,,,,,15,,,45,0
222459,note_on,99,0,11,,,,,,,,14,,,57,0
222459,note_on,99,0,10,,,,,,,,13,,,57,0
222459,note_on,99,0,8,,,,,,,,11,,,57,0
222459,note_on,99,0,9,,,,,,,,12,,,57,0
222480,note_on,21,0,9,,,,,,,,12,,,59,80
222480,note_on,21,0,10,,,,,,,,13,,,59,80
222480,note_on,21,0,12,,,,,,,,15,,,47,80
222480,note_on,21,0,8,,,,,,,,11,,,59,80
222480,note_on,21,0,11,,,,,,,,14,,,59,80
222579,note_on,99,0,9,,,,,,,,12,,,59,0
222579,note_on,99,0,12,,,,,,,,15,,,47,0
222579,note_on,99,0,10,,,,,,,,13,,,59,0
222579,note_on,99,0,11,,,,,,,,14,,,59,0
222579,note_on,99,0,8,,,,,,,,11,,,59,0
222600,note_on,21,0,12,,,,,,,,15,,,43,80
222600,note_on,21,0,8,,,,,,,,11,,,55,80
222600,note_on,21,0,11,,,,,,,,14,,,55,80
222600,note_on,21,0,10,,,,,,,,13,,,55,80
222600,note_on,21,0,9,,,,,,,,12,,,55,80
222699,note_on,99,0,11,,,,,,,,14,,,55,0
222699,note_on,99,0,9,,,,,,,,12,,,55,0
222699,note_on,99,0,12,,,,,,,,15,,,43,0
222699,note_on,99,0,8,,,,,,,,11,,,55,0
222699,note_on,99,0,10,,,,,,,,13,,,55,0
222719,note_on,0,0,7,,,,,,,,2,,,55,0
222719,note_on,479,0,7,,,,,,,,2,,,67,0
222719,note_on,0,0,6,,,,,,,,1,,,55,0
222719,note_on,479,0,6,,,,,,,,1,,,43,0
222719,note_on,479,0,5,,,,,,,,0,,,67,0
222719,note_on,0,0,5,,,,,,,,0,,,79,0
222720,note_on,21,0,11,,,,,,,,14,,,48,44
222720,note_on,21,0,9,,,,,,,,12,,,60,44
222720,note_on,21,0,10,,,,,,,,13,,,48,44
222720,note_on,21,0,12,,,,,,,,15,,,36,44
222720,note_on,21,0,8,,,,,,,,11,,,60,44
222839,note_on,119,0,8,,,,,,,,11,,,60,0
222839,note_on,119,0,9,,,,,,,,12,,,60,0
222840,note_on,1,0,9,,,,,,,,12,,,55,44
222840,note_on,1,0,8,,,,,,,,11,,,64,44
222959,note_on,119,0,9,,,,,,,,12,,,55,0
222959,note_on,119,0,8,,,,,,,,11,,,64,0
222960,note_on,1,0,9,,,,,,,,12,,,60,44
222960,note_on,1,0,8,,,,,,,,11,,,67,44
223059,note_on,99,0,8,,,,,,,,11,,,67,0
223079,note_on,119,0,9,,,,,,,,12,,,60,0
223080,note_on,1,0,9,,,,,,,,12,,,64,44
223080,note_on,21,0,8,,,,,,,,11,,,72,44
223169,note_on,89,0,8,,,,,,,,11,,,72,0
223179,note_on,99,0,9,,,,,,,,12,,,64,0
223200,note_on,21,0,9,,,,,,,,12,,,67,44
223200,note_on,31,0,8,,,,,,,,11,,,76,44
223319,note_on,119,0,9,,,,,,,,12,,,67,0
223319,note_on,119,0,8,,,,,,,,11,,,76,0
223320,note_on,1,0,9,,,,,,,,12,,,64,44
223320,note_on,1,0,8,,,,,,,,11,,,72,44
223419,note_on,99,0,8,,,,,,,,11,,,72,0
223439,note_on,119,0,9,,,,,,,,12,,,64,0
223440,note_on,21,0,8,,,,,,,,11,,,76,44
223440,note_on,1,0,9,,,,,,,,12,,,67,44
223559,note_on,119,0,8,,,,,,,,11,,,76,0
223559,note_on,119,0,9,,,,,,,,12,,,67,0
223560,note_on,1,0,9,,,,,,,,12,,,64,44
223560,note_on,1,0,8,,,,,,,,11,,,72,44
223659,note_on,939,0,11,,,,,,,,14,,,48,0
223659,note_on,939,0,10,,,,,,,,13,,,48,0
223659,note_on,99,0,9,,,,,,,,12,,,64,0
223659,note_on,99,0,8,,,,,,,,11,,,72,0
223659,note_on,939,0,12,,,,,,,,15,,,36,0
223680,note_on,21,0,10,,,,,,,,13,,,55,44
223680,note_on,21,0,11,,,,,,,,14,,,55,44
223680,note_on,21,0,9,,,,,,,,12,,,65,44
223680,note_on,21,0,8,,,,,,,,11,,,72,44
223680,note_on,21,0,12,,,,,,,,15,,,43,44
223739,note_on,59,0,8,,,,,,,,11,,,72,0
223740,note_on,1,0,8,,,,,,,,11,,,71,44
223799,note_on,119,0,9,,,,,,,,12,,,65,0
223800,note_on,1,0,9,,,,,,,,12,,,55,44
223899,note_on,99,0,9,,,,,,,,12,,,55,0
223899,note_on,159,0,8,,,,,,,,11,,,71,0
223920,note_on,21,0,9,,,,,,,,12,,,65,44
223920,note_on,21,0,8,,,,,,,,11,,,69,44
224009,note_on,89,0,9,,,,,,,,12,,,65,0
224019,note_on,99,0,8,,,,,,,,11,,,69,0
224040,note_on,31,0,9,,,,,,,,12,,,64,44
224040,note_on,21,0,8,,,,,,,,11,,,67,44
224129,note_on,89,0,9,,,,,,,,12,,,64,0
224139,note_on,99,0,8,,,,,,,,11,,,67,0
224160,note_on,31,0,9,,,,,,,,12,,,64,44
224160,note_on,21,0,8,,,,,,,,11,,,67,44
224219,note_on,59,0,8,,,,,,,,11,,,67,0
224219,note_on,59,0,9,,,,,,,,12,,,64,0
224220,note_on,1,0,8,,,,,,,,11,,,65,44
224220,note_on,1,0,9,,,,,,,,12,,,62,44
224379,note_on,159,0,8,,,,,,,,11,,,65,0
224379,note_on,159,0,9,,,,,,,,12,,,62,0
224400,note_on,21,0,8,,,,,,,,11,,,64,44
224400,note_on,21,0,9,,,,,,,,12,,,60,44
224499,note_on,99,0,8,,,,,,,,11,,,64,0
224499,note_on,99,0,9,,,,,,,,12,,,60,0
224520,note_on,21,0,8,,,,,,,,11,,,62,44
224520,note_on,21,0,9,,,,,,,,12,,,59,44
224619,note_on,939,0,11,,,,,,,,14,,,55,0
224619,note_on,99,0,9,,,,,,,,12,,,59,0
224619,note_on,939,0,12,,,,,,,,15,,,43,0
224619,note_on,99,0,8,,,,,,,,11,,,62,0
224619,note_on,939,0,10,,,,,,,,13,,,55,0
224640,note_on,1921,0,6,,,,,,,,1,,,60,80
224640,note_on,1921,0,7,,,,,,,,2,,,72,80
224640,note_on,0,0,7,,,,,,,,2,,,60,80
224640,note_on,21,0,12,,,,,,,,15,,,48,80
224640,note_on,21,0,8,,,,,,,,11,,,60,80
224640,note_on,21,0,10,,,,,,,,13,,,60,80
224640,note_on,0,0,6,,,,,,,,1,,,48,80
224640,note_on,21,0,11,,,,,,,,14,,,60,80
224640,note_on,1921,0,5,,,,,,,,0,,,72,80
224640,note_on,0,0,5,,,,,,,,0,,,84,80
224640,note_on,21,0,9,,,,,,,,12,,,60,80
224739,note_on,99,0,8,,,,,,,,11,,,60,0
224739,note_on,99,0,10,,,,,,,,13,,,60,0
224739,note_on,99,0,11,,,,,,,,14,,,60,0
224739,note_on,99,0,9,,,,,,,,12,,,60,0
224739,note_on,99,0,12,,,,,,,,15,,,48,0
224760,note_on,21,0,10,,,,,,,,13,,,62,80
224760,note_on,21,0,11,,,,,,,,14,,,62,80
224760,note_on,21,0,12,,,,,,,,15,,,50,80
224760,note_on,21,0,8,,,,,,,,11,,,62,80
224760,note_on,21,0,9,,,,,,,,12,,,62,80
224859,note_on,99,0,12,,,,,,,,15,,,50,0
224859,note_on,99,0,9,,,,,,,,12,,,62,0
224859,note_on,99,0,11,,,,,,,,14,,,62,0
224859,note_on,99,0,8,,,,,,,,11,,,62,0
224859,note_on,99,0,10,,,,,,,,13,,,62,0
224880,note_on,21,0,12,,,,,,,,15,,,52,80
224880,note_on,21,0,10,,,,,,,,13,,,64,80
224880,note_on,21,0,9,,,,,,,,12,,,64,80
224880,note_on,21,0,8,,,,,,,,11,,,64,80
224880,note_on,21,0,11,,,,,,,,14,,,64,80
224979,note_on,99,0,11,,,,,,,,14,,,64,0
224979,note_on,99,0,10,,,,,,,,13,,,64,0
224979,note_on,99,0,12,,,,,,,,15,,,52,0
224979,note_on,99,0,9,,,,,,,,12,,,64,0
224979,note_on,99,0,8,,,,,,,,11,,,64,0
225000,note_on,21,0,10,,,,,,,,13,,,60,80
225000,note_on,21,0,9,,,,,,,,12,,,60,80
225000,note_on,21,0,11,,,,,,,,14,,,60,80
225000,note_on,21,0,8,,,,,,,,11,,,60,80
225000,note_on,21,0,12,,,,,,,,15,,,48,80
225099,note_on,459,0,5,,,,,,,,0,,,84,0
225099,note_on,0,0,5,,,,,,,,0,,,72,0
225099,note_on,99,0,10,,,,,,,,13,,,60,0
225099,note_on,459,0,6,,,,,,,,1,,,48,0
225099,note_on,99,0,11,,,,,,,,14,,,60,0
225099,note_on,0,0,6,,,,,,,,1,,,60,0
225099,note_on,459,0,7,,,,,,,,2,,,60,0
225099,note_on,99,0,8,,,,,,,,11,,,60,0
225099,note_on,99,0,9,,,,,,,,12,,,60,0
225099,note_on,99,0,12,,,,,,,,15,,,48,0
225099,note_on,0,0,7,,,,,,,,2,,,72,0
225120,note_on,21,0,6,,,,,,,,1,,,55,80
225120,note_on,0,0,5,,,,,,,,0,,,67,80
225120,note_on,21,0,8,,,,,,,,11,,,55,80
225120,note_on,0,0,7,,,,,,,,2,,,67,80
225120,note_on,21,0,7,,,,,,,,2,,,55,80
225120,note_on,21,0,11,,,,,,,,14,,,55,80
225120,note_on,21,0,12,,,,,,,,15,,,43,80
225120,note_on,21,0,9,,,,,,,,12,,,55,80
225120,note_on,21,0,5,,,,,,,,0,,,79,80
225120,note_on,0,0,6,,,,,,,,1,,,43,80
225120,note_on,21,0,10,,,,,,,,13,,,55,80
225219,note_on,99,0,12,,,,,,,,15,,,43,0
225219,note_on,99,0,11,,,,,,,,14,,,55,0
225219,note_on,99,0,8,,,,,,,,11,,,55,0
225219,note_on,99,0,9,,,,,,,,12,,,55,0
225219,note_on,99,0,10,,,,,,,,13,,,55,0
225240,note_on,21,0,10,,,,,,,,13,,,57,80
225240,note_on,21,0,12,,,,,,,,15,,,45,80
225240,note_on,21,0,9,,,,,,,,12,,,57,80
225240,note_on,21,0,11,,,,,,,,14,,,57,80
225240,note_on,21,0,8,,,,,,,,11,,,57,80
225339,note_on,99,0,9,,,,,,,,12,,,57,0
225339,note_on,99,0,8,,,,,,,,11,,,57,0
225339,note_on,99,0,10,,,,,,,,13,,,57,0
225339,note_on,99,0,12,,,,,,,,15,,,45,0
225339,note_on,99,0,11,,,,,,,,14,,,57,0
225360,note_on,21,0,11,,,,,,,,14,,,59,80
225360,note_on,21,0,9,,,,,,,,12,,,59,80
225360,note_on,21,0,12,,,,,,,,15,,,47,80
225360,note_on,21,0,10,,,,,,,,13,,,59,80
225360,note_on,21,0,8,,,,,,,,11,,,59,80
225459,note_on,99,0,10,,,,,,,,13,,,59,0
225459,note_on,99,0,9,,,,,,,,12,,,59,0
225459,note_on,99,0,12,,,,,,,,15,,,47,0
225459,note_on,99,0,8,,,,,,,,11,,,59,0
225459,note_on,99,0,11,,,,,,,,14,,,59,0
225480,note_on,21,0,9,,,,,,,,12,,,55,80
225480,note_on,21,0,12,,,,,,,,15,,,43,80
225480,note_on,21,0,10,,,,,,,,13,,,55,80
225480,note_on,21,0,8,,,,,,,,11,,,55,80
225480,note_on,21,0,11,,,,,,,,14,,,55,80
225579,note_on,0,0,7,,,,,,,,2,,,55,0
225579,note_on,99,0,10,,,,,,,,13,,,55,0
225579,note_on,459,0,7,,,,,,,,2,,,67,0
225579,note_on,99,0,8,,,,,,,,11,,,55,0
225579,note_on,99,0,12,,,,,,,,15,,,43,0
225579,note_on,459,0,6,,,,,,,,1,,,43,0
225579,note_on,0,0,6,,,,,,,,1,,,55,0
225579,note_on,0,0,5,,,,,,,,0,,,79,0
225579,note_on,459,0,5,,,,,,,,0,,,67,0
225579,note_on,99,0,11,,,,,,,,14,,,55,0
225579,note_on,99,0,9,,,,,,,,12,,,55,0
225600,note_on,21,0,11,,,,,,,,14,,,60,80
225600,note_on,21,0,12,,,,,,,,15,,,48,80
225600,note_on,21,0,10,,,,,,,,13,,,60,80
225600,note_on,21,0,7,,,,,,,,2,,,72,80
225600,note_on,0,0,7,,,,,,,,2,,,60,80
225600,note_on,21,0,8,,,,,,,,11,,,60,80
225600,note_on,21,0,6,,,,,,,,1,,,60,80
225600,note_on,0,0,6,,,,,,,,1,,,48,80
225600,note_on,0,0,5,,,,,,,,0,,,72,80
225600,note_on,21,0,9,,,,,,,,12,,,60,80
225600,note_on,21,0,5,,,,,,,,0,,,84,80
225699,note_on,99,0,11,,,,,,,,14,,,60,0
225699,note_on,99,0,10,,,,,,,,13,,,60,0
225699,note_on,99,0,12,,,,,,,,15,,,48,0
225699,note_on,99,0,8,,,,,,,,11,,,60,0
225699,note_on,99,0,9,,,,,,,,12,,,60,0
225720,note_on,21,0,12,,,,,,,,15,,,50,80
225720,note_on,21,0,10,,,,,,,,13,,,62,80
225720,note_on,21,0,8,,,,,,,,11,,,62,80
225720,note_on,21,0,9,,,,,,,,12,,,62,80
225720,note_on,21,0,11,,,,,,,,14,,,62,80
225819,note_on,99,0,8,,,,,,,,11,,,62,0
225819,note_on,99,0,9,,,,,,,,12,,,62,0
225819,note_on,99,0,12,,,,,,,,15,,,50,0
225819,note_on,99,0,10,,,,,,,,13,,,62,0
225819,note_on,99,0,11,,,,,,,,14,,,62,0
225840,note_on,21,0,10,,,,,,,,13,,,64,80
225840,note_on,21,0,9,,,,,,,,12,,,64,80
225840,note_on,21,0,11,,,,,,,,14,,,64,80
225840,note_on,21,0,12,,,,,,,,15,,,52,80
225840,note_on,21,0,8,,,,,,,,11,,,64,80
225939,note_on,99,0,9,,,,,,,,12,,,64,0
225939,note_on,99,0,10,,,,,,,,13,,,64,0
225939,note_on,99,0,11,,,,,,,,14,,,64,0
225939,note_on,99,0,12,,,,,,,,15,,,52,0
225939,note_on,99,0,8,,,,,,,,11,,,64,0
225960,note_on,21,0,8,,,,,,,,11,,,60,80
225960,note_on,21,0,10,,,,,,,,13,,,60,80
225960,note_on,21,0,11,,,,,,,,14,,,60,80
225960,note_on,21,0,9,,,,,,,,12,,,60,80
225960,note_on,21,0,12,,,,,,,,15,,,48,80
226059,note_on,99,0,8,,,,,,,,11,,,60,0
226059,note_on,99,0,11,,,,,,,,14,,,60,0
226059,note_on,99,0,10,,,,,,,,13,,,60,0
226059,note_on,459,0,6,,,,,,,,1,,,48,0
226059,note_on,459,0,7,,,,,,,,2,,,60,0
226059,note_on,0,0,6,,,,,,,,1,,,60,0
226059,note_on,0,0,5,,,,,,,,0,,,84,0
226059,note_on,99,0,12,,,,,,,,15,,,48,0
226059,note_on,459,0,5,,,,,,,,0,,,72,0
226059,note_on,0,0,7,,,,,,,,2,,,72,0
226059,note_on,99,0,9,,,,,,,,12,,,60,0
226080,note_on,21,0,8,,,,,,,,11,,,55,80
226080,note_on,0,0,5,,,,,,,,0,,,79,80
226080,note_on,21,0,12,,,,,,,,15,,,43,80
226080,note_on,0,0,6,,,,,,,,1,,,43,80
226080,note_on,21,0,10,,,,,,,,13,,,55,80
226080,note_on,21,0,7,,,,,,,,2,,,67,80
226080,note_on,21,0,11,,,,,,,,14,,,55,80
226080,note_on,0,0,7,,,,,,,,2,,,55,80
226080,note_on,21,0,5,,,,,,,,0,,,67,80
226080,note_on,21,0,6,,,,,,,,1,,,55,80
226080,note_on,21,0,9,,,,,,,,12,,,55,80
226179,note_on,99,0,10,,,,,,,,13,,,55,0
226179,note_on,99,0,8,,,,,,,,11,,,55,0
226179,note_on,99,0,12,,,,,,,,15,,,43,0
226179,note_on,99,0,11,,,,,,,,14,,,55,0
226179,note_on,99,0,9,,,,,,,,12,,,55,0
226200,note_on,21,0,9,,,,,,,,12,,,57,80
226200,note_on,21,0,12,,,,,,,,15,,,45,80
226200,note_on,21,0,11,,,,,,,,14,,,57,80
226200,note_on,21,0,10,,,,,,,,13,,,57,80
226200,note_on,21,0,8,,,,,,,,11,,,57,80
226299,note_on,99,0,11,,,,,,,,14,,,57,0
226299,note_on,99,0,10,,,,,,,,13,,,57,0
226299,note_on,99,0,12,,,,,,,,15,,,45,0
226299,note_on,99,0,9,,,,,,,,12,,,57,0
226299,note_on,99,0,8,,,,,,,,11,,,57,0
226320,note_on,21,0,8,,,,,,,,11,,,59,80
226320,note_on,21,0,9,,,,,,,,12,,,59,80
226320,note_on,21,0,10,,,,,,,,13,,,59,80
226320,note_on,21,0,12,,,,,,,,15,,,47,80
226320,note_on,21,0,11,,,,,,,,14,,,59,80
226419,note_on,99,0,12,,,,,,,,15,,,47,0
226419,note_on,99,0,9,,,,,,,,12,,,59,0
226419,note_on,99,0,10,,,,,,,,13,,,59,0
226419,note_on,99,0,8,,,,,,,,11,,,59,0
226419,note_on,99,0,11,,,,,,,,14,,,59,0
226440,note_on,21,0,11,,,,,,,,14,,,55,80
226440,note_on,21,0,9,,,,,,,,12,,,55,80
226440,note_on,21,0,10,,,,,,,,13,,,55,80
226440,note_on,21,0,12,,,,,,,,15,,,43,80
226440,note_on,21,0,8,,,,,,,,11,,,55,80
226539,note_on,99,0,10,,,,,,,,13,,,55,0
226539,note_on,99,0,9,,,,,,,,12,,,55,0
226539,note_on,99,0,11,,,,,,,,14,,,55,0
226539,note_on,99,0,8,,,,,,,,11,,,55,0
226539,note_on,99,0,12,,,,,,,,15,,,43,0
226559,note_on,479,0,5,,,,,,,,0,,,79,0
226559,note_on,0,0,7,,,,,,,,2,,,67,0
226559,note_on,0,0,5,,,,,,,,0,,,67,0
226559,note_on,0,0,6,,,,,,,,1,,,55,0
226559,note_on,479,0,6,,,,,,,,1,,,43,0
226559,note_on,479,0,7,,,,,,,,2,,,55,0
226560,note_on,21,0,10,,,,,,,,13,,,48,44
226560,note_on,21,0,12,,,,,,,,15,,,36,44
226560,note_on,21,0,8,,,,,,,,11,,,60,44
226560,note_on,21,0,9,,,,,,,,12,,,60,44
226560,note_on,21,0,11,,,,,,,,14,,,48,44
226679,note_on,119,0,8,,,,,,,,11,,,60,0
226679,note_on,119,0,9,,,,,,,,12,,,60,0
226680,note_on,1,0,9,,,,,,,,12,,,55,44
226680,note_on,1,0,8,,,,,,,,11,,,64,44
226799,note_on,119,0,9,,,,,,,,12,,,55,0
226799,note_on,119,0,8,,,,,,,,11,,,64,0
226800,note_on,1,0,9,,,,,,,,12,,,60,44
226800,note_on,1,0,8,,,,,,,,11,,,67,44
226899,note_on,99,0,8,,,,,,,,11,,,67,0
226919,note_on,119,0,9,,,,,,,,12,,,60,0
226920,note_on,21,0,8,,,,,,,,11,,,72,44
226920,note_on,1,0,9,,,,,,,,12,,,64,44
227009,note_on,89,0,8,,,,,,,,11,,,72,0
227019,note_on,99,0,9,,,,,,,,12,,,64,0
227040,note_on,31,0,8,,,,,,,,11,,,76,44
227040,note_on,21,0,9,,,,,,,,12,,,67,44
227159,note_on,119,0,8,,,,,,,,11,,,76,0
227159,note_on,119,0,9,,,,,,,,12,,,67,0
227160,note_on,1,0,9,,,,,,,,12,,,64,44
227160,note_on,1,0,8,,,,,,,,11,,,72,44
227259,note_on,99,0,8,,,,,,,,11,,,72,0
227279,note_on,119,0,9,,,,,,,,12,,,64,0
227280,note_on,21,0,8,,,,,,,,11,,,76,44
227280,note_on,1,0,9,,,,,,,,12,,,67,44
227399,note_on,119,0,9,,,,,,,,12,,,67,0
227399,note_on,119,0,8,,,,,,,,11,,,76,0
227400,note_on,1,0,8,,,,,,,,11,,,72,44
227400,note_on,1,0,9,,,,,,,,12,,,64,44
227499,note_on,939,0,12,,,,,,,,15,,,36,0
227499,note_on,99,0,8,,,,,,,,11,,,72,0
227499,note_on,99,0,9,,,,,,,,12,,,64,0
227499,note_on,939,0,11,,,,,,,,14,,,48,0
227499,note_on,939,0,10,,,,,,,,13,,,48,0
227520,note_on,21,0,8,,,,,,,,11,,,72,44
227520,note_on,21,0,12,,,,,,,,15,,,43,44
227520,note_on,21,0,9,,,,,,,,12,,,65,44
227520,note_on,21,0,10,,,,,,,,13,,,55,44
227520,note_on,21,0,11,,,,,,,,14,,,55,44
227579,note_on,59,0,8,,,,,,,,11,,,72,0
227580,note_on,1,0,8,,,,,,,,11,,,71,44
227639,note_on,119,0,9,,,,,,,,12,,,65,0
227640,note_on,1,0,9,,,,,,,,12,,,55,44
227739,note_on,159,0,8,,,,,,,,11,,,71,0
227739,note_on,99,0,9,,,,,,,,12,,,55,0
227760,note_on,21,0,9,,,,,,,,12,,,65,44
227760,note_on,21,0,8,,,,,,,,11,,,69,44
227849,note_on,89,0,9,,,,,,,,12,,,65,0
227859,note_on,99,0,8,,,,,,,,11,,,69,0
227880,note_on,21,0,8,,,,,,,,11,,,67,44
227880,note_on,31,0,9,,,,,,,,12,,,64,44
227969,note_on,89,0,9,,,,,,,,12,,,64,0
227979,note_on,99,0,8,,,,,,,,11,,,67,0
228000,note_on,21,0,8,,,,,,,,11,,,67,44
228000,note_on,31,0,9,,,,,,,,12,,,64,44
228059,note_on,59,0,8,,,,,,,,11,,,67,0
228059,note_on,59,0,9,,,,,,,,12,,,64,0
228060,note_on,1,0,9,,,,,,,,12,,,62,44
228060,note_on,1,0,8,,,,,,,,11,,,65,44
228219,note_on,159,0,9,,,,,,,,12,,,62,0
228219,note_on,159,0,8,,,,,,,,11,,,65,0
228240,note_on,21,0,9,,,,,,,,12,,,60,44
228240,note_on,21,0,8,,,,,,,,11,,,64,44
228339,note_on,99,0,9,,,,,,,,12,,,60,0
228339,note_on,99,0,8,,,,,,,,11,,,64,0
228360,note_on,21,0,8,,,,,,,,11,,,62,44
228360,note_on,21,0,9,,,,,,,,12,,,59,44
228459,note_on,99,0,9,,,,,,,,12,,,59,0
228459,note_on,99,0,8,,,,,,,,11,,,62,0
228479,note_on,959,0,11,,,,,,,,14,,,55,0
228479,note_on,959,0,10,,,,,,,,13,,,55,0
228479,note_on,959,0,12,,,,,,,,15,,,43,0
228480,note_on,0,0,7,,,,,,,,2,,,64,80
228480,note_on,1921,0,6,,,,,,,,1,,,60,80
228480,note_on,0,0,6,,,,,,,,1,,,52,80
228480,note_on,1921,0,7,,,,,,,,2,,,72,80
228480,note_on,0,0,9,,,,,,,,12,,,55,80
228480,note_on,1921,0,5,,,,,,,,0,,,67,80
228480,note_on,1,0,12,,,,,,,,15,,,48,80
228480,note_on,21,0,9,,,,,,,,12,,,72,80
228480,note_on,0,0,5,,,,,,,,0,,,64,80
228480,note_on,1,0,10,,,,,,,,13,,,60,80
228480,note_on,0,0,9,,,,,,,,12,,,64,80
228480,note_on,21,0,8,,,,,,,,11,,,60,80
228480,note_on,1,0,11,,,,,,,,14,,,60,80
228539,note_on,59,0,8,,,,,,,,11,,,60,0
228540,note_on,1,0,8,,,,,,,,11,,,60,44
228579,note_on,39,0,8,,,,,,,,11,,,60,0
228600,note_on,21,0,8,,,,,,,,11,,,55,44
228699,note_on,99,0,8,,,,,,,,11,,,55,0
228719,note_on,0,0,9,,,,,,,,12,,,72,0
228719,note_on,239,0,9,,,,,,,,12,,,55,0
228719,note_on,239,0,12,,,,,,,,15,,,48,0
228719,note_on,0,0,9,,,,,,,,12,,,64,0
228719,note_on,0,0,7,,,,,,,,2,,,72,0
228719,note_on,239,0,11,,,,,,,,14,,,60,0
228719,note_on,239,0,5,,,,,,,,0,,,64,0
228719,note_on,0,0,5,,,,,,,,0,,,67,0
228719,note_on,239,0,6,,,,,,,,1,,,52,0
228719,note_on,0,0,6,,,,,,,,1,,,60,0
228719,note_on,239,0,10,,,,,,,,13,,,60,0
228719,note_on,239,0,7,,,,,,,,2,,,64,0
228720,note_on,21,0,8,,,,,,,,11,,,55,44
228819,note_on,99,0,8,,,,,,,,11,,,55,0
228840,note_on,21,0,8,,,,,,,,11,,,55,44
228939,note_on,99,0,8,,,,,,,,11,,,55,0
228960,note_on,21,0,8,,,,,,,,11,,,55,44
229059,note_on,99,0,8,,,,,,,,11,,,55,0
229080,note_on,21,0,8,,,,,,,,11,,,55,44
229179,note_on,99,0,8,,,,,,,,11,,,55,0
229200,note_on,21,0,8,,,,,,,,11,,,55,44
229299,note_on,99,0,8,,,,,,,,11,,,55,0
229320,note_on,21,0,8,,,,,,,,11,,,55,44
229419,note_on,99,0,8,,,,,,,,11,,,55,0
229440,note_on,21,0,8,,,,,,,,11,,,71,80
229440,note_on,0,0,6,,,,,,,,1,,,55,80
229440,note_on,721,0,6,,,,,,,,1,,,62,80
229440,note_on,721,0,9,,,,,,,,12,,,65,80
229440,note_on,721,0,10,,,,,,,,13,,,62,80
229440,note_on,721,0,7,,,,,,,,2,,,67,80
229440,note_on,721,0,5,,,,,,,,0,,,71,80
229440,note_on,721,0,11,,,,,,,,14,,,62,80
229440,note_on,721,0,12,,,,,,,,15,,,50,80
229440,note_on,0,0,9,,,,,,,,12,,,55,80
229440,note_on,0,0,5,,,,,,,,0,,,65,80
229499,note_on,59,0,8,,,,,,,,11,,,71,0
229500,note_on,1,0,8,,,,,,,,11,,,71,44
229539,note_on,39,0,8,,,,,,,,11,,,71,0
229560,note_on,21,0,8,,,,,,,,11,,,65,44
229659,note_on,99,0,8,,,,,,,,11,,,65,0
229679,note_on,0,0,5,,,,,,,,0,,,71,0
229679,note_on,239,0,5,,,,,,,,0,,,65,0
229679,note_on,239,0,6,,,,,,,,1,,,55,0
229679,note_on,0,0,6,,,,,,,,1,,,62,0
229679,note_on,239,0,12,,,,,,,,15,,,50,0
229679,note_on,239,0,9,,,,,,,,12,,,55,0
229679,note_on,0,0,9,,,,,,,,12,,,65,0
229679,note_on,239,0,10,,,,,,,,13,,,62,0
229679,note_on,239,0,11,,,,,,,,14,,,62,0
229679,note_on,239,0,7,,,,,,,,2,,,67,0
229680,note_on,21,0,8,,,,,,,,11,,,65,44
229779,note_on,99,0,8,,,,,,,,11,,,65,0
229800,note_on,21,0,8,,,,,,,,11,,,65,44
229899,note_on,99,0,8,,,,,,,,11,,,65,0
229920,note_on,21,0,8,,,,,,,,11,,,65,44
230019,note_on,99,0,8,,,,,,,,11,,,65,0
230040,note_on,21,0,8,,,,,,,,11,,,65,44
230139,note_on,99,0,8,,,,,,,,11,,,65,0
230160,note_on,21,0,8,,,,,,,,11,,,65,44
230259,note_on,99,0,8,,,,,,,,11,,,65,0
230280,note_on,21,0,8,,,,,,,,11,,,65,44
230379,note_on,99,0,8,,,,,,,,11,,,65,0
230400,note_on,721,0,5,,,,,,,,0,,,72,80
230400,note_on,0,0,9,,,,,,,,12,,,55,80
230400,note_on,21,0,8,,,,,,,,11,,,72,80
230400,note_on,721,0,10,,,,,,,,13,,,64,80
230400,note_on,721,0,9,,,,,,,,12,,,64,80
230400,note_on,0,0,6,,,,,,,,1,,,55,80
230400,note_on,721,0,6,,,,,,,,1,,,60,80
230400,note_on,721,0,12,,,,,,,,15,,,52,80
230400,note_on,721,0,11,,,,,,,,14,,,64,80
230400,note_on,0,0,5,,,,,,,,0,,,67,80
230400,note_on,0,0,7,,,,,,,,2,,,60,80
230400,note_on,721,0,7,,,,,,,,2,,,67,80
230459,note_on,59,0,8,,,,,,,,11,,,72,0
230460,note_on,1,0,8,,,,,,,,11,,,72,44
230499,note_on,39,0,8,,,,,,,,11,,,72,0
230520,note_on,21,0,8,,,,,,,,11,,,67,44
230619,note_on,99,0,8,,,,,,,,11,,,67,0
230639,note_on,239,0,6,,,,,,,,1,,,55,0
230639,note_on,0,0,6,,,,,,,,1,,,60,0
230639,note_on,239,0,7,,,,,,,,2,,,60,0
230639,note_on,239,0,10,,,,,,,,13,,,64,0
230639,note_on,0,0,7,,,,,,,,2,,,67,0
230639,note_on,0,0,5,,,,,,,,0,,,72,0
230639,note_on,0,0,9,,,,,,,,12,,,64,0
230639,note_on,239,0,12,,,,,,,,15,,,52,0
230639,note_on,239,0,5,,,,,,,,0,,,67,0
230639,note_on,239,0,9,,,,,,,,12,,,55,0
230639,note_on,239,0,11,,,,,,,,14,,,64,0
230640,note_on,21,0,8,,,,,,,,11,,,67,44
230739,note_on,99,0,8,,,,,,,,11,,,67,0
230760,note_on,21,0,8,,,,,,,,11,,,67,44
230859,note_on,99,0,8,,,,,,,,11,,,67,0
230880,note_on,21,0,8,,,,,,,,11,,,67,44
230979,note_on,99,0,8,,,,,,,,11,,,67,0
231000,note_on,21,0,8,,,,,,,,11,,,67,44
231099,note_on,99,0,8,,,,,,,,11,,,67,0
231120,note_on,21,0,8,,,,,,,,11,,,67,44
231219,note_on,99,0,8,,,,,,,,11,,,67,0
231240,note_on,21,0,8,,,,,,,,11,,,67,44
231339,note_on,99,0,8,,,,,,,,11,,,67,0
231360,note_on,21,0,8,,,,,,,,11,,,77,80
231360,note_on,721,0,5,,,,,,,,0,,,74,80
231360,note_on,0,0,5,,,,,,,,0,,,77,80
231360,note_on,0,0,7,,,,,,,,2,,,67,80
231360,note_on,0,0,9,,,,,,,,12,,,55,80
231360,note_on,0,0,6,,,,,,,,1,,,55,80
231360,note_on,721,0,6,,,,,,,,1,,,62,80
231360,note_on,721,0,7,,,,,,,,2,,,74,80
231360,note_on,721,0,11,,,,,,,,14,,,59,80
231360,note_on,721,0,10,,,,,,,,13,,,59,80
231360,note_on,721,0,12,,,,,,,,15,,,47,80
231360,note_on,0,0,9,,,,,,,,12,,,62,80
231360,note_on,721,0,9,,,,,,,,12,,,74,80
231419,note_on,59,0,8,,,,,,,,11,,,77,0
231420,note_on,1,0,8,,,,,,,,11,,,77,44
231459,note_on,39,0,8,,,,,,,,11,,,77,0
231480,note_on,21,0,8,,,,,,,,11,,,74,44
231579,note_on,99,0,8,,,,,,,,11,,,74,0
231599,note_on,239,0,10,,,,,,,,13,,,59,0
231599,note_on,239,0,5,,,,,,,,0,,,77,0
231599,note_on,0,0,6,,,,,,,,1,,,62,0
231599,note_on,239,0,6,,,,,,,,1,,,55,0
231599,note_on,0,0,7,,,,,,,,2,,,74,0
231599,note_on,0,0,5,,,,,,,,0,,,74,0
231599,note_on,239,0,11,,,,,,,,14,,,59,0
231599,note_on,239,0,9,,,,,,,,12,,,62,0
231599,note_on,0,0,9,,,,,,,,12,,,55,0
231599,note_on,0,0,9,,,,,,,,12,,,74,0
231599,note_on,239,0,7,,,,,,,,2,,,67,0
231599,note_on,239,0,12,,,,,,,,15,,,47,0
231600,note_on,21,0,8,,,,,,,,11,,,74,44
231699,note_on,99,0,8,,,,,,,,11,,,74,0
231720,note_on,21,0,8,,,,,,,,11,,,74,44
231819,note_on,99,0,8,,,,,,,,11,,,74,0
231840,note_on,21,0,8,,,,,,,,11,,,74,44
231939,note_on,99,0,8,,,,,,,,11,,,74,0
231960,note_on,21,0,8,,,,,,,,11,,,74,44
232059,note_on,99,0,8,,,,,,,,11,,,74,0
232080,note_on,21,0,8,,,,,,,,11,,,74,44
232179,note_on,99,0,8,,,,,,,,11,,,74,0
232200,note_on,21,0,8,,,,,,,,11,,,74,44
232299,note_on,99,0,8,,,,,,,,11,,,74,0
232320,note_on,21,0,8,,,,,,,,11,,,79,44
232320,note_on,721,0,9,,,,,,,,12,,,60,44
232359,note_on,39,0,8,,,,,,,,11,,,79,0
232360,note_on,1,0,8,,,,,,,,11,,,81,44
232399,note_on,39,0,8,,,,,,,,11,,,81,0
232400,note_on,1,0,8,,,,,,,,11,,,79,44
232419,note_on,99,0,9,,,,,,,,12,,,60,0
232439,note_on,39,0,8,,,,,,,,11,,,79,0
232440,note_on,1,0,8,,,,,,,,11,,,77,44
232440,note_on,21,0,9,,,,,,,,12,,,62,44
232499,note_on,59,0,8,,,,,,,,11,,,77,0
232500,note_on,1,0,8,,,,,,,,11,,,79,44
232539,note_on,99,0,9,,,,,,,,12,,,62,0
232559,note_on,59,0,8,,,,,,,,11,,,79,0
232560,note_on,21,0,9,,,,,,,,12,,,64,44
232659,note_on,99,0,9,,,,,,,,12,,,64,0
232680,note_on,21,0,9,,,,,,,,12,,,60,44
232779,note_on,99,0,9,,,,,,,,12,,,60,0
232800,note_on,21,0,9,,,,,,,,12,,,62,44
232800,note_on,241,0,8,,,,,,,,11,,,77,44
232839,note_on,39,0,8,,,,,,,,11,,,77,0
232840,note_on,1,0,8,,,,,,,,11,,,79,44
232879,note_on,39,0,8,,,,,,,,11,,,79,0
232880,note_on,1,0,8,,,,,,,,11,,,77,44
232899,note_on,99,0,9,,,,,,,,12,,,62,0
232919,note_on,39,0,8,,,,,,,,11,,,77,0
232920,note_on,1,0,8,,,,,,,,11,,,76,44
232920,note_on,21,0,9,,,,,,,,12,,,64,44
232979,note_on,59,0,8,,,,,,,,11,,,76,0
232980,note_on,1,0,8,,,,,,,,11,,,77,44
233019,note_on,99,0,9,,,,,,,,12,,,64,0
233039,note_on,59,0,8,,,,,,,,11,,,77,0
233040,note_on,21,0,9,,,,,,,,12,,,65,44
233139,note_on,99,0,9,,,,,,,,12,,,65,0
233160,note_on,21,0,9,,,,,,,,12,,,62,44
233259,note_on,99,0,9,,,,,,,,12,,,62,0
233280,note_on,241,0,8,,,,,,,,11,,,76,44
233280,note_on,21,0,9,,,,,,,,12,,,64,44
233319,note_on,39,0,8,,,,,,,,11,,,76,0
233320,note_on,1,0,8,,,,,,,,11,,,77,44
233359,note_on,39,0,8,,,,,,,,11,,,77,0
233360,note_on,1,0,8,,,,,,,,11,,,76,44
233379,note_on,99,0,9,,,,,,,,12,,,64,0
233399,note_on,39,0,8,,,,,,,,11,,,76,0
233400,note_on,1,0,8,,,,,,,,11,,,74,44
233400,note_on,21,0,9,,,,,,,,12,,,65,44
233459,note_on,59,0,8,,,,,,,,11,,,74,0
233460,note_on,1,0,8,,,,,,,,11,,,76,44
233499,note_on,99,0,9,,,,,,,,12,,,65,0
233519,note_on,59,0,8,,,,,,,,11,,,76,0
233520,note_on,21,0,9,,,,,,,,12,,,67,44
233619,note_on,99,0,9,,,,,,,,12,,,67,0
233640,note_on,21,0,9,,,,,,,,12,,,64,44
233739,note_on,99,0,9,,,,,,,,12,,,64,0
233760,note_on,21,0,9,,,,,,,,12,,,65,44
233760,note_on,241,0,8,,,,,,,,11,,,74,44
233799,note_on,39,0,8,,,,,,,,11,,,74,0
233800,note_on,1,0,8,,,,,,,,11,,,76,44
233839,note_on,39,0,8,,,,,,,,11,,,76,0
233840,note_on,1,0,8,,,,,,,,11,,,74,44
233859,note_on,99,0,9,,,,,,,,12,,,65,0
233879,note_on,39,0,8,,,,,,,,11,,,74,0
233880,note_on,21,0,9,,,,,,,,12,,,67,44
233880,note_on,1,0,8,,,,,,,,11,,,72,44
233939,note_on,59,0,8,,,,,,,,11,,,72,0
233940,note_on,1,0,8,,,,,,,,11,,,74,44
233979,note_on,99,0,9,,,,,,,,12,,,67,0
233999,note_on,59,0,8,,,,,,,,11,,,74,0
234000,note_on,21,0,9,,,,,,,,12,,,69,44
234099,note_on,99,0,9,,,,,,,,12,,,69,0
234120,note_on,21,0,9,,,,,,,,12,,,65,44
234219,note_on,99,0,9,,,,,,,,12,,,65,0
234240,note_on,21,0,9,,,,,,,,12,,,64,44
234240,note_on,241,0,8,,,,,,,,11,,,72,44
234279,note_on,39,0,8,,,,,,,,11,,,72,0
234280,note_on,1,0,8,,,,,,,,11,,,74,44
234319,note_on,39,0,8,,,,,,,,11,,,74,0
234320,note_on,1,0,8,,,,,,,,11,,,72,44
234339,note_on,99,0,9,,,,,,,,12,,,64,0
234359,note_on,39,0,8,,,,,,,,11,,,72,0
234360,note_on,1,0,8,,,,,,,,11,,,71,44
234360,note_on,21,0,9,,,,,,,,12,,,65,44
234419,note_on,59,0,8,,,,,,,,11,,,71,0
234420,note_on,1,0,8,,,,,,,,11,,,72,44
234459,note_on,99,0,9,,,,,,,,12,,,65,0
234479,note_on,59,0,8,,,,,,,,11,,,72,0
234480,note_on,21,0,9,,,,,,,,12,,,67,44
234579,note_on,99,0,9,,,,,,,,12,,,67,0
234600,note_on,21,0,9,,,,,,,,12,,,64,44
234699,note_on,99,0,9,,,,,,,,12,,,64,0
234720,note_on,21,0,9,,,,,,,,12,,,62,44
234720,note_on,241,0,8,,,,,,,,11,,,71,44
234759,note_on,39,0,8,,,,,,,,11,,,71,0
234760,note_on,1,0,8,,,,,,,,11,,,72,44
234799,note_on,39,0,8,,,,,,,,11,,,72,0
234800,note_on,1,0,8,,,,,,,,11,,,71,44
234819,note_on,99,0,9,,,,,,,,12,,,62,0
234839,note_on,39,0,8,,,,,,,,11,,,71,0
234840,note_on,21,0,9,,,,,,,,12,,,64,44
234840,note_on,1,0,8,,,,,,,,11,,,69,44
234899,note_on,59,0,8,,,,,,,,11,,,69,0
234900,note_on,1,0,8,,,,,,,,11,,,71,44
234939,note_on,99,0,9,,,,,,,,12,,,64,0
234959,note_on,59,0,8,,,,,,,,11,,,71,0
234960,note_on,21,0,9,,,,,,,,12,,,65,44
235059,note_on,99,0,9,,,,,,,,12,,,65,0
235080,note_on,21,0,9,,,,,,,,12,,,62,44
235179,note_on,99,0,9,,,,,,,,12,,,62,0
235200,note_on,241,0,8,,,,,,,,11,,,72,44
235200,note_on,21,0,9,,,,,,,,12,,,64,44
235299,note_on,99,0,9,,,,,,,,12,,,64,0
235320,note_on,21,0,9,,,,,,,,12,,,55,44
235419,note_on,219,0,8,,,,,,,,11,,,72,0
235419,note_on,99,0,9,,,,,,,,12,,,55,0
235440,note_on,21,0,8,,,,,,,,11,,,74,44
235440,note_on,21,0,9,,,,,,,,12,,,59,44
235539,note_on,99,0,9,,,,,,,,12,,,59,0
235560,note_on,21,0,9,,,,,,,,12,,,55,44
235659,note_on,219,0,8,,,,,,,,11,,,74,0
235659,note_on,99,0,9,,,,,,,,12,,,55,0
235680,note_on,21,0,8,,,,,,,,11,,,76,44
235680,note_on,21,0,9,,,,,,,,12,,,60,44
235779,note_on,99,0,9,,,,,,,,12,,,60,0
235800,note_on,21,0,9,,,,,,,,12,,,55,44
235899,note_on,219,0,8,,,,,,,,11,,,76,0
235899,note_on,99,0,9,,,,,,,,12,,,55,0
235920,note_on,21,0,9,,,,,,,,12,,,62,44
235920,note_on,21,0,8,,,,,,,,11,,,77,44
236019,note_on,99,0,9,,,,,,,,12,,,62,0
236040,note_on,21,0,9,,,,,,,,12,,,55,44
236139,note_on,219,0,8,,,,,,,,11,,,77,0
236139,note_on,99,0,9,,,,,,,,12,,,55,0
236160,note_on,4561,0,7,,,,,,,,2,,,76,80
236160,note_on,0,0,7,,,,,,,,2,,,79,80
236160,note_on,0,0,6,,,,,,,,1,,,64,80
236160,note_on,4561,0,6,,,,,,,,1,,,67,80
236160,note_on,4561,0,11,,,,,,,,14,,,48,80
236160,note_on,4561,0,10,,,,,,,,13,,,60,80
236160,note_on,4561,0,5,,,,,,,,0,,,79,80
236160,note_on,21,0,8,,,,,,,,11,,,79,80
236160,note_on,21,0,9,,,,,,,,12,,,67,80
236160,note_on,4561,0,12,,,,,,,,15,,,36,80
236199,note_on,39,0,8,,,,,,,,11,,,79,0
236199,note_on,39,0,9,,,,,,,,12,,,67,0
236199,note_on,39,0,5,,,,,,,,0,,,79,0
236200,note_on,1,0,5,,,,,,,,0,,,81,80
236200,note_on,1,0,8,,,,,,,,11,,,81,80
236200,note_on,1,0,9,,,,,,,,12,,,69,80
236239,note_on,39,0,9,,,,,,,,12,,,69,0
236239,note_on,39,0,5,,,,,,,,0,,,81,0
236239,note_on,39,0,8,,,,,,,,11,,,81,0
236240,note_on,1,0,5,,,,,,,,0,,,79,80
236240,note_on,1,0,9,,,,,,,,12,,,67,80
236240,note_on,1,0,8,,,,,,,,11,,,79,80
236259,note_on,99,0,12,,,,,,,,15,,,36,0
236259,note_on,99,0,11,,,,,,,,14,,,48,0
236259,note_on,99,0,10,,,,,,,,13,,,60,0
236279,note_on,39,0,8,,,,,,,,11,,,79,0
236279,note_on,39,0,5,,,,,,,,0,,,79,0
236279,note_on,39,0,9,,,,,,,,12,,,67,0
236280,note_on,1,0,5,,,,,,,,0,,,77,80
236280,note_on,1,0,8,,,,,,,,11,,,77,80
236280,note_on,21,0,12,,,,,,,,15,,,38,80
236280,note_on,1,0,9,,,,,,,,12,,,65,80
236280,note_on,21,0,11,,,,,,,,14,,,50,80
236280,note_on,21,0,10,,,,,,,,13,,,62,80
236339,note_on,59,0,9,,,,,,,,12,,,65,0
236339,note_on,59,0,5,,,,,,,,0,,,77,0
236339,note_on,59,0,8,,,,,,,,11,,,77,0
236340,note_on,1,0,9,,,,,,,,12,,,67,80
236340,note_on,1,0,5,,,,,,,,0,,,79,80
236340,note_on,1,0,8,,,,,,,,11,,,79,80
236379,note_on,99,0,12,,,,,,,,15,,,38,0
236379,note_on,99,0,10,,,,,,,,13,,,62,0
236379,note_on,99,0,11,,,,,,,,14,,,50,0
236399,note_on,0,0,6,,,,,,,,1,,,67,0
236399,note_on,59,0,8,,,,,,,,11,,,79,0
236399,note_on,239,0,6,,,,,,,,1,,,64,0
236399,note_on,59,0,5,,,,,,,,0,,,79,0
236399,note_on,59,0,9,,,,,,,,12,,,67,0
236399,note_on,0,0,7,,,,,,,,2,,,76,0
236399,note_on,239,0,7,,,,,,,,2,,,79,0
236400,note_on,21,0,10,,,,,,,,13,,,64,80
236400,note_on,21,0,11,,,,,,,,14,,,52,80
236400,note_on,21,0,12,,,,,,,,15,,,40,80
236499,note_on,99,0,11,,,,,,,,14,,,52,0
236499,note_on,99,0,10,,,,,,,,13,,,64,0
236499,note_on,99,0,12,,,,,,,,15,,,40,0
236520,note_on,21,0,11,,,,,,,,14,,,48,80
236520,note_on,21,0,12,,,,,,,,15,,,36,80
236520,note_on,21,0,10,,,,,,,,13,,,60,80
236619,note_on,99,0,10,,,,,,,,13,,,60,0
236619,note_on,99,0,12,,,,,,,,15,,,36,0
236619,note_on,99,0,11,,,,,,,,14,,,48,0
236640,note_on,241,0,9,,,,,,,,12,,,65,80
236640,note_on,0,0,6,,,,,,,,1,,,62,80
236640,note_on,241,0,6,,,,,,,,1,,,65,80
236640,note_on,21,0,11,,,,,,,,14,,,50,80
236640,note_on,21,0,10,,,,,,,,13,,,62,80
236640,note_on,241,0,7,,,,,,,,2,,,74,80
236640,note_on,0,0,7,,,,,,,,2,,,77,80
236640,note_on,241,0,5,,,,,,,,0,,,77,80
236640,note_on,21,0,12,,,,,,,,15,,,38,80
236640,note_on,241,0,8,,,,,,,,11,,,77,80
236679,note_on,39,0,8,,,,,,,,11,,,77,0
236679,note_on,39,0,9,,,,,,,,12,,,65,0
236679,note_on,39,0,5,,,,,,,,0,,,77,0
236680,note_on,1,0,5,,,,,,,,0,,,79,80
236680,note_on,1,0,9,,,,,,,,12,,,67,80
236680,note_on,1,0,8,,,,,,,,11,,,79,80
236719,note_on,39,0,9,,,,,,,,12,,,67,0
236719,note_on,39,0,8,,,,,,,,11,,,79,0
236719,note_on,39,0,5,,,,,,,,0,,,79,0
236720,note_on,1,0,9,,,,,,,,12,,,65,80
236720,note_on,1,0,5,,,,,,,,0,,,77,80
236720,note_on,1,0,8,,,,,,,,11,,,77,80
236739,note_on,99,0,10,,,,,,,,13,,,62,0
236739,note_on,99,0,12,,,,,,,,15,,,38,0
236739,note_on,99,0,11,,,,,,,,14,,,50,0
236759,note_on,39,0,8,,,,,,,,11,,,77,0
236759,note_on,39,0,5,,,,,,,,0,,,77,0
236759,note_on,39,0,9,,,,,,,,12,,,65,0
236760,note_on,1,0,5,,,,,,,,0,,,76,80
236760,note_on,21,0,10,,,,,,,,13,,,64,80
236760,note_on,21,0,11,,,,,,,,14,,,52,80
236760,note_on,1,0,9,,,,,,,,12,,,64,80
236760,note_on,1,0,8,,,,,,,,11,,,76,80
236760,note_on,21,0,12,,,,,,,,15,,,40,80
236819,note_on,59,0,5,,,,,,,,0,,,76,0
236819,note_on,59,0,9,,,,,,,,12,,,64,0
236819,note_on,59,0,8,,,,,,,,11,,,76,0
236820,note_on,1,0,8,,,,,,,,11,,,77,80
236820,note_on,1,0,9,,,,,,,,12,,,65,80
236820,note_on,1,0,5,,,,,,,,0,,,77,80
236859,note_on,99,0,10,,,,,,,,13,,,64,0
236859,note_on,99,0,12,,,,,,,,15,,,40,0
236859,note_on,99,0,11,,,,,,,,14,,,52,0
236879,note_on,239,0,6,,,,,,,,1,,,62,0
236879,note_on,59,0,9,,,,,,,,12,,,65,0
236879,note_on,0,0,6,,,,,,,,1,,,65,0
236879,note_on,239,0,7,,,,,,,,2,,,77,0
236879,note_on,59,0,8,,,,,,,,11,,,77,0
236879,note_on,0,0,7,,,,,,,,2,,,74,0
236879,note_on,59,0,5,,,,,,,,0,,,77,0
236880,note_on,21,0,10,,,,,,,,13,,,65,80
236880,note_on,21,0,11,,,,,,,,14,,,53,80
236880,note_on,21,0,12,,,,,,,,15,,,41,80
236979,note_on,99,0,10,,,,,,,,13,,,65,0
236979,note_on,99,0,11,,,,,,,,14,,,53,0
236979,note_on,99,0,12,,,,,,,,15,,,41,0
237000,note_on,21,0,10,,,,,,,,13,,,62,80
237000,note_on,21,0,11,,,,,,,,14,,,50,80
237000,note_on,21,0,12,,,,,,,,15,,,38,80
237099,note_on,99,0,10,,,,,,,,13,,,62,0
237099,note_on,99,0,11,,,,,,,,14,,,50,0
237099,note_on,99,0,12,,,,,,,,15,,,38,0
237120,note_on,0,0,7,,,,,,,,2,,,76,80
237120,note_on,0,0,6,,,,,,,,1,,,60,80
237120,note_on,241,0,6,,,,,,,,1,,,64,80
237120,note_on,21,0,10,,,,,,,,13,,,64,80
237120,note_on,21,0,11,,,,,,,,14,,,52,80
237120,note_on,241,0,5,,,,,,,,0,,,76,80
237120,note_on,21,0,12,,,,,,,,15,,,40,80
237120,note_on,241,0,8,,,,,,,,11,,,76,80
237120,note_on,241,0,9,,,,,,,,12,,,64,80
237120,note_on,241,0,7,,,,,,,,2,,,72,80
237159,note_on,39,0,9,,,,,,,,12,,,64,0
237159,note_on,39,0,5,,,,,,,,0,,,76,0
237159,note_on,39,0,8,,,,,,,,11,,,76,0
237160,note_on,1,0,9,,,,,,,,12,,,65,80
237160,note_on,1,0,5,,,,,,,,0,,,77,80
237160,note_on,1,0,8,,,,,,,,11,,,77,80
237199,note_on,39,0,5,,,,,,,,0,,,77,0
237199,note_on,39,0,9,,,,,,,,12,,,65,0
237199,note_on,39,0,8,,,,,,,,11,,,77,0
237200,note_on,1,0,5,,,,,,,,0,,,76,80
237200,note_on,1,0,9,,,,,,,,12,,,64,80
237200,note_on,1,0,8,,,,,,,,11,,,76,80
237219,note_on,99,0,12,,,,,,,,15,,,40,0
237219,note_on,99,0,10,,,,,,,,13,,,64,0
237219,note_on,99,0,11,,,,,,,,14,,,52,0
237239,note_on,39,0,5,,,,,,,,0,,,76,0
237239,note_on,39,0,9,,,,,,,,12,,,64,0
237239,note_on,39,0,8,,,,,,,,11,,,76,0
237240,note_on,1,0,9,,,,,,,,12,,,62,80
237240,note_on,1,0,5,,,,,,,,0,,,74,80
237240,note_on,21,0,11,,,,,,,,14,,,53,80
237240,note_on,21,0,12,,,,,,,,15,,,41,80
237240,note_on,21,0,10,,,,,,,,13,,,65,80
237240,note_on,1,0,8,,,,,,,,11,,,74,80
237299,note_on,59,0,8,,,,,,,,11,,,74,0
237299,note_on,59,0,9,,,,,,,,12,,,62,0
237299,note_on,59,0,5,,,,,,,,0,,,74,0
237300,note_on,1,0,8,,,,,,,,11,,,76,80
237300,note_on,1,0,5,,,,,,,,0,,,76,80
237300,note_on,1,0,9,,,,,,,,12,,,64,80
237339,note_on,99,0,10,,,,,,,,13,,,65,0
237339,note_on,99,0,11,,,,,,,,14,,,53,0
237339,note_on,99,0,12,,,,,,,,15,,,41,0
237359,note_on,239,0,7,,,,,,,,2,,,76,0
237359,note_on,59,0,9,,,,,,,,12,,,64,0
237359,note_on,239,0,6,,,,,,,,1,,,60,0
237359,note_on,0,0,6,,,,,,,,1,,,64,0
237359,note_on,59,0,5,,,,,,,,0,,,76,0
237359,note_on,0,0,7,,,,,,,,2,,,72,0
237359,note_on,59,0,8,,,,,,,,11,,,76,0
237360,note_on,21,0,10,,,,,,,,13,,,67,80
237360,note_on,21,0,11,,,,,,,,14,,,55,80
237360,note_on,21,0,12,,,,,,,,15,,,43,80
237459,note_on,99,0,11,,,,,,,,14,,,55,0
237459,note_on,99,0,10,,,,,,,,13,,,67,0
237459,note_on,99,0,12,,,,,,,,15,,,43,0
237480,note_on,21,0,10,,,,,,,,13,,,64,80
237480,note_on,21,0,12,,,,,,,,15,,,40,80
237480,note_on,21,0,11,,,,,,,,14,,,52,80
237579,note_on,99,0,11,,,,,,,,14,,,52,0
237579,note_on,99,0,12,,,,,,,,15,,,40,0
237579,note_on,99,0,10,,,,,,,,13,,,64,0
237600,note_on,241,0,7,,,,,,,,2,,,74,80
237600,note_on,21,0,12,,,,,,,,15,,,41,80
237600,note_on,0,0,6,,,,,,,,1,,,62,80
237600,note_on,241,0,6,,,,,,,,1,,,65,80
237600,note_on,21,0,10,,,,,,,,13,,,65,80
237600,note_on,241,0,8,,,,,,,,11,,,74,80
237600,note_on,241,0,9,,,,,,,,12,,,62,80
237600,note_on,241,0,5,,,,,,,,0,,,74,80
237600,note_on,21,0,11,,,,,,,,14,,,53,80
237639,note_on,39,0,8,,,,,,,,11,,,74,0
237639,note_on,39,0,9,,,,,,,,12,,,62,0
237639,note_on,39,0,5,,,,,,,,0,,,74,0
237640,note_on,1,0,9,,,,,,,,12,,,64,80
237640,note_on,1,0,8,,,,,,,,11,,,76,80
237640,note_on,1,0,5,,,,,,,,0,,,76,80
237679,note_on,39,0,8,,,,,,,,11,,,76,0
237679,note_on,39,0,9,,,,,,,,12,,,64,0
237679,note_on,39,0,5,,,,,,,,0,,,76,0
237680,note_on,1,0,9,,,,,,,,12,,,62,80
237680,note_on,1,0,8,,,,,,,,11,,,74,80
237680,note_on,1,0,5,,,,,,,,0,,,74,80
237699,note_on,99,0,11,,,,,,,,14,,,53,0
237699,note_on,99,0,10,,,,,,,,13,,,65,0
237699,note_on,99,0,12,,,,,,,,15,,,41,0
237719,note_on,39,0,5,,,,,,,,0,,,74,0
237719,note_on,39,0,8,,,,,,,,11,,,74,0
237719,note_on,39,0,9,,,,,,,,12,,,62,0
237720,note_on,1,0,9,,,,,,,,12,,,60,80
237720,note_on,1,0,5,,,,,,,,0,,,72,80
237720,note_on,21,0,12,,,,,,,,15,,,43,80
237720,note_on,21,0,10,,,,,,,,13,,,67,80
237720,note_on,1,0,8,,,,,,,,11,,,72,80
237720,note_on,21,0,11,,,,,,,,14,,,55,80
237779,note_on,59,0,8,,,,,,,,11,,,72,0
237779,note_on,59,0,5,,,,,,,,0,,,72,0
237779,note_on,59,0,9,,,,,,,,12,,,60,0
237780,note_on,1,0,8,,,,,,,,11,,,74,80
237780,note_on,1,0,9,,,,,,,,12,,,62,80
237780,note_on,1,0,5,,,,,,,,0,,,74,80
237819,note_on,99,0,10,,,,,,,,13,,,67,0
237819,note_on,99,0,12,,,,,,,,15,,,43,0
237819,note_on,99,0,11,,,,,,,,14,,,55,0
237839,note_on,239,0,7,,,,,,,,2,,,74,0
237839,note_on,59,0,8,,,,,,,,11,,,74,0
237839,note_on,0,0,6,,,,,,,,1,,,65,0
237839,note_on,59,0,5,,,,,,,,0,,,74,0
237839,note_on,239,0,6,,,,,,,,1,,,62,0
237839,note_on,59,0,9,,,,,,,,12,,,62,0
237840,note_on,21,0,12,,,,,,,,15,,,45,80
237840,note_on,21,0,11,,,,,,,,14,,,57,80
237840,note_on,21,0,10,,,,,,,,13,,,69,80
237939,note_on,99,0,10,,,,,,,,13,,,69,0
237939,note_on,99,0,11,,,,,,,,14,,,57,0
237939,note_on,99,0,12,,,,,,,,15,,,45,0
237960,note_on,21,0,10,,,,,,,,13,,,65,80
237960,note_on,21,0,12,,,,,,,,15,,,41,80
237960,note_on,21,0,11,,,,,,,,14,,,53,80
238059,note_on,99,0,12,,,,,,,,15,,,41,0
238059,note_on,99,0,11,,,,,,,,14,,,53,0
238059,note_on,99,0,10,,,,,,,,13,,,65,0
238080,note_on,0,0,7,,,,,,,,2,,,72,80
238080,note_on,241,0,7,,,,,,,,2,,,64,80
238080,note_on,241,0,9,,,,,,,,12,,,60,80
238080,note_on,0,0,6,,,,,,,,1,,,60,80
238080,note_on,241,0,6,,,,,,,,1,,,64,80
238080,note_on,21,0,12,,,,,,,,15,,,40,80
238080,note_on,241,0,8,,,,,,,,11,,,72,80
238080,note_on,21,0,10,,,,,,,,13,,,64,80
238080,note_on,241,0,5,,,,,,,,0,,,72,80
238080,note_on,21,0,11,,,,,,,,14,,,52,80
238119,note_on,39,0,9,,,,,,,,12,,,60,0
238119,note_on,39,0,5,,,,,,,,0,,,72,0
238119,note_on,39,0,8,,,,,,,,11,,,72,0
238120,note_on,1,0,8,,,,,,,,11,,,74,80
238120,note_on,1,0,9,,,,,,,,12,,,62,80
238120,note_on,1,0,5,,,,,,,,0,,,74,80
238159,note_on,39,0,5,,,,,,,,0,,,74,0
238159,note_on,39,0,8,,,,,,,,11,,,74,0
238159,note_on,39,0,9,,,,,,,,12,,,62,0
238160,note_on,1,0,5,,,,,,,,0,,,72,80
238160,note_on,1,0,8,,,,,,,,11,,,72,80
238160,note_on,1,0,9,,,,,,,,12,,,60,80
238179,note_on,99,0,11,,,,,,,,14,,,52,0
238179,note_on,99,0,12,,,,,,,,15,,,40,0
238179,note_on,99,0,10,,,,,,,,13,,,64,0
238199,note_on,39,0,5,,,,,,,,0,,,72,0
238199,note_on,39,0,8,,,,,,,,11,,,72,0
238199,note_on,39,0,9,,,,,,,,12,,,60,0
238200,note_on,21,0,12,,,,,,,,15,,,38,80
238200,note_on,21,0,10,,,,,,,,13,,,62,80
238200,note_on,1,0,9,,,,,,,,12,,,59,80
238200,note_on,1,0,5,,,,,,,,0,,,71,80
238200,note_on,1,0,8,,,,,,,,11,,,71,80
238200,note_on,21,0,11,,,,,,,,14,,,50,80
238259,note_on,59,0,8,,,,,,,,11,,,71,0
238259,note_on,59,0,9,,,,,,,,12,,,59,0
238259,note_on,59,0,5,,,,,,,,0,,,71,0
238260,note_on,1,0,5,,,,,,,,0,,,72,80
238260,note_on,1,0,8,,,,,,,,11,,,72,80
238260,note_on,1,0,9,,,,,,,,12,,,60,80
238299,note_on,99,0,12,,,,,,,,15,,,38,0
238299,note_on,99,0,11,,,,,,,,14,,,50,0
238299,note_on,99,0,10,,,,,,,,13,,,62,0
238319,note_on,59,0,8,,,,,,,,11,,,72,0
238319,note_on,59,0,5,,,,,,,,0,,,72,0
238319,note_on,239,0,6,,,,,,,,1,,,60,0
238319,note_on,59,0,9,,,,,,,,12,,,60,0
238319,note_on,239,0,7,,,,,,,,2,,,72,0
238319,note_on,0,0,7,,,,,,,,2,,,64,0
238319,note_on,0,0,6,,,,,,,,1,,,64,0
238320,note_on,21,0,12,,,,,,,,15,,,40,80
238320,note_on,21,0,10,,,,,,,,13,,,64,80
238320,note_on,21,0,11,,,,,,,,14,,,52,80
238419,note_on,99,0,12,,,,,,,,15,,,40,0
238419,note_on,99,0,10,,,,,,,,13,,,64,0
238419,note_on,99,0,11,,,,,,,,14,,,52,0
238440,note_on,21,0,10,,,,,,,,13,,,60,80
238440,note_on,21,0,12,,,,,,,,15,,,36,80
238440,note_on,21,0,11,,,,,,,,14,,,48,80
238539,note_on,99,0,12,,,,,,,,15,,,36,0
238539,note_on,99,0,10,,,,,,,,13,,,60,0
238539,note_on,99,0,11,,,,,,,,14,,,48,0
238560,note_on,241,0,8,,,,,,,,11,,,71,80
238560,note_on,241,0,5,,,,,,,,0,,,71,80
238560,note_on,21,0,12,,,,,,,,15,,,43,80
238560,note_on,241,0,7,,,,,,,,2,,,67,80
238560,note_on,241,0,6,,,,,,,,1,,,62,80
238560,note_on,21,0,10,,,,,,,,13,,,67,80
238560,note_on,241,0,9,,,,,,,,12,,,59,80
238560,note_on,0,0,6,,,,,,,,1,,,55,80
238560,note_on,21,0,11,,,,,,,,14,,,55,80
238599,note_on,39,0,9,,,,,,,,12,,,59,0
238599,note_on,39,0,8,,,,,,,,11,,,71,0
238599,note_on,39,0,5,,,,,,,,0,,,71,0
238600,note_on,1,0,9,,,,,,,,12,,,60,80
238600,note_on,1,0,5,,,,,,,,0,,,72,80
238600,note_on,1,0,8,,,,,,,,11,,,72,80
238639,note_on,39,0,9,,,,,,,,12,,,60,0
238639,note_on,39,0,5,,,,,,,,0,,,72,0
238639,note_on,39,0,8,,,,,,,,11,,,72,0
238640,note_on,1,0,9,,,,,,,,12,,,59,80
238640,note_on,1,0,5,,,,,,,,0,,,71,80
238640,note_on,1,0,8,,,,,,,,11,,,71,80
238659,note_on,99,0,12,,,,,,,,15,,,43,0
238659,note_on,99,0,10,,,,,,,,13,,,67,0
238659,note_on,99,0,11,,,,,,,,14,,,55,0
238679,note_on,39,0,8,,,,,,,,11,,,71,0
238679,note_on,39,0,9,,,,,,,,12,,,59,0
238679,note_on,39,0,5,,,,,,,,0,,,71,0
238680,note_on,1,0,8,,,,,,,,11,,,69,80
238680,note_on,1,0,5,,,,,,,,0,,,69,80
238680,note_on,21,0,12,,,,,,,,15,,,41,80
238680,note_on,21,0,11,,,,,,,,14,,,53,80
238680,note_on,21,0,10,,,,,,,,13,,,65,80
238680,note_on,1,0,9,,,,,,,,12,,,57,80
238739,note_on,59,0,9,,,,,,,,12,,,57,0
238739,note_on,59,0,8,,,,,,,,11,,,69,0
238739,note_on,59,0,5,,,,,,,,0,,,69,0
238740,note_on,1,0,5,,,,,,,,0,,,71,80
238740,note_on,1,0,8,,,,,,,,11,,,71,80
238740,note_on,1,0,9,,,,,,,,12,,,59,80
238779,note_on,99,0,12,,,,,,,,15,,,41,0
238779,note_on,99,0,10,,,,,,,,13,,,65,0
238779,note_on,99,0,11,,,,,,,,14,,,53,0
238799,note_on,59,0,9,,,,,,,,12,,,59,0
238799,note_on,239,0,6,,,,,,,,1,,,55,0
238799,note_on,0,0,6,,,,,,,,1,,,62,0
238799,note_on,239,0,7,,,,,,,,2,,,67,0
238799,note_on,59,0,5,,,,,,,,0,,,71,0
238799,note_on,59,0,8,,,,,,,,11,,,71,0
238800,note_on,21,0,11,,,,,,,,14,,,55,80
238800,note_on,21,0,12,,,,,,,,15,,,43,80
238800,note_on,21,0,10,,,,,,,,13,,,67,80
238899,note_on,99,0,11,,,,,,,,14,,,55,0
238899,note_on,99,0,12,,,,,,,,15,,,43,0
238899,note_on,99,0,10,,,,,,,,13,,,67,0
238920,note_on,21,0,12,,,,,,,,15,,,31,80
238920,note_on,21,0,10,,,,,,,,13,,,55,80
238920,note_on,21,0,11,,,,,,,,14,,,43,80
239019,note_on,99,0,10,,,,,,,,13,,,55,0
239019,note_on,99,0,11,,,,,,,,14,,,43,0
239019,note_on,99,0,12,,,,,,,,15,,,31,0
239040,note_on,21,0,10,,,,,,,,13,,,60,80
239040,note_on,21,0,11,,,,,,,,14,,,48,80
239040,note_on,0,0,10,,,,,,,,13,,,48,80
239040,note_on,241,0,9,,,,,,,,12,,,60,44
239040,note_on,21,0,12,,,,,,,,15,,,36,80
239040,note_on,241,0,8,,,,,,,,11,,,72,44
239139,note_on,99,0,9,,,,,,,,12,,,60,0
239139,note_on,99,0,8,,,,,,,,11,,,72,0
239160,note_on,21,0,9,,,,,,,,12,,,62,44
239160,note_on,21,0,8,,,,,,,,11,,,74,44
239259,note_on,99,0,9,,,,,,,,12,,,62,0
239259,note_on,99,0,8,,,,,,,,11,,,74,0
239280,note_on,21,0,9,,,,,,,,12,,,64,44
239280,note_on,21,0,8,,,,,,,,11,,,76,44
239379,note_on,99,0,8,,,,,,,,11,,,76,0
239379,note_on,99,0,9,,,,,,,,12,,,64,0
239400,note_on,21,0,8,,,,,,,,11,,,72,44
239400,note_on,21,0,9,,,,,,,,12,,,60,44
239499,note_on,99,0,9,,,,,,,,12,,,60,0
239499,note_on,99,0,8,,,,,,,,11,,,72,0
239519,note_on,479,0,11,,,,,,,,14,,,48,0
239519,note_on,479,0,10,,,,,,,,13,,,48,0
239519,note_on,0,0,10,,,,,,,,13,,,60,0
239519,note_on,479,0,12,,,,,,,,15,,,36,0
239520,note_on,21,0,8,,,,,,,,11,,,67,44
239520,note_on,21,0,9,,,,,,,,12,,,55,44
239619,note_on,99,0,8,,,,,,,,11,,,67,0
239619,note_on,99,0,9,,,,,,,,12,,,55,0
239640,note_on,21,0,8,,,,,,,,11,,,69,44
239640,note_on,21,0,9,,,,,,,,12,,,57,44
239739,note_on,99,0,8,,,,,,,,11,,,69,0
239739,note_on,99,0,9,,,,,,,,12,,,57,0
239760,note_on,21,0,8,,,,,,,,11,,,71,44
239760,note_on,21,0,9,,,,,,,,12,,,59,44
239859,note_on,99,0,8,,,,,,,,11,,,71,0
239859,note_on,99,0,9,,,,,,,,12,,,59,0
239880,note_on,21,0,8,,,,,,,,11,,,67,44
239880,note_on,21,0,9,,,,,,,,12,,,55,44
239979,note_on,99,0,8,,,,,,,,11,,,67,0
239979,note_on,99,0,9,,,,,,,,12,,,55,0
240000,note_on,21,0,9,,,,,,,,12,,,60,44
240000,note_on,21,0,8,,,,,,,,11,,,72,44
240099,note_on,99,0,8,,,,,,,,11,,,72,0
240099,note_on,99,0,9,,,,,,,,12,,,60,0
240120,note_on,21,0,9,,,,,,,,12,,,62,44
240120,note_on,21,0,8,,,,,,,,11,,,74,44
240219,note_on,99,0,8,,,,,,,,11,,,74,0
240219,note_on,99,0,9,,,,,,,,12,,,62,0
240240,note_on,21,0,9,,,,,,,,12,,,64,44
240240,note_on,21,0,8,,,,,,,,11,,,76,44
240339,note_on,99,0,9,,,,,,,,12,,,64,0
240339,note_on,99,0,8,,,,,,,,11,,,76,0
240360,note_on,21,0,9,,,,,,,,12,,,60,44
240360,note_on,21,0,8,,,,,,,,11,,,72,44
240459,note_on,99,0,9,,,,,,,,12,,,60,0
240459,note_on,99,0,8,,,,,,,,11,,,72,0
240480,note_on,21,0,8,,,,,,,,11,,,67,44
240480,note_on,21,0,9,,,,,,,,12,,,55,44
240579,note_on,99,0,8,,,,,,,,11,,,67,0
240579,note_on,99,0,9,,,,,,,,12,,,55,0
240600,note_on,21,0,8,,,,,,,,11,,,69,44
240600,note_on,21,0,9,,,,,,,,12,,,57,44
240699,note_on,99,0,9,,,,,,,,12,,,57,0
240699,note_on,99,0,8,,,,,,,,11,,,69,0
240720,note_on,21,0,8,,,,,,,,11,,,71,44
240720,note_on,21,0,9,,,,,,,,12,,,59,44
240819,note_on,99,0,8,,,,,,,,11,,,71,0
240819,note_on,99,0,9,,,,,,,,12,,,59,0
240840,note_on,21,0,8,,,,,,,,11,,,67,44
240840,note_on,21,0,9,,,,,,,,12,,,55,44
240939,note_on,99,0,9,,,,,,,,12,,,55,0
240939,note_on,99,0,8,,,,,,,,11,,,67,0
240960,note_on,21,0,9,,,,,,,,12,,,60,44
240960,note_on,1441,0,12,,,,,,,,15,,,48,44
240960,note_on,1441,0,11,,,,,,,,14,,,60,44
240960,note_on,21,0,8,,,,,,,,11,,,72,44
241059,note_on,99,0,9,,,,,,,,12,,,60,0
241059,note_on,99,0,8,,,,,,,,11,,,72,0
241059,note_on,99,0,11,,,,,,,,14,,,60,0
241059,note_on,99,0,12,,,,,,,,15,,,48,0
241080,note_on,21,0,11,,,,,,,,14,,,62,44
241080,note_on,21,0,8,,,,,,,,11,,,74,44
241080,note_on,21,0,12,,,,,,,,15,,,50,44
241080,note_on,21,0,9,,,,,,,,12,,,62,44
241179,note_on,99,0,11,,,,,,,,14,,,62,0
241179,note_on,99,0,8,,,,,,,,11,,,74,0
241179,note_on,99,0,12,,,,,,,,15,,,50,0
241179,note_on,99,0,9,,,,,,,,12,,,62,0
241200,note_on,21,0,9,,,,,,,,12,,,64,44
241200,note_on,21,0,11,,,,,,,,14,,,64,44
241200,note_on,21,0,8,,,,,,,,11,,,76,44
241200,note_on,21,0,12,,,,,,,,15,,,52,44
241299,note_on,99,0,11,,,,,,,,14,,,64,0
241299,note_on,99,0,8,,,,,,,,11,,,76,0
241299,note_on,99,0,9,,,,,,,,12,,,64,0
241299,note_on,99,0,12,,,,,,,,15,,,52,0
241320,note_on,21,0,8,,,,,,,,11,,,72,44
241320,note_on,21,0,11,,,,,,,,14,,,60,44
241320,note_on,21,0,9,,,,,,,,12,,,60,44
241320,note_on,21,0,12,,,,,,,,15,,,48,44
241419,note_on,99,0,8,,,,,,,,11,,,72,0
241419,note_on,99,0,12,,,,,,,,15,,,48,0
241419,note_on,99,0,11,,,,,,,,14,,,60,0
241419,note_on,99,0,9,,,,,,,,12,,,60,0
241440,note_on,21,0,9,,,,,,,,12,,,55,44
241440,note_on,21,0,12,,,,,,,,15,,,43,44
241440,note_on,21,0,11,,,,,,,,14,,,55,44
241440,note_on,21,0,8,,,,,,,,11,,,67,44
241539,note_on,99,0,11,,,,,,,,14,,,55,0
241539,note_on,99,0,9,,,,,,,,12,,,55,0
241539,note_on,99,0,12,,,,,,,,15,,,43,0
241539,note_on,99,0,8,,,,,,,,11,,,67,0
241560,note_on,21,0,8,,,,,,,,11,,,69,44
241560,note_on,21,0,9,,,,,,,,12,,,57,44
241560,note_on,21,0,11,,,,,,,,14,,,57,44
241560,note_on,21,0,12,,,,,,,,15,,,45,44
241659,note_on,99,0,9,,,,,,,,12,,,57,0
241659,note_on,99,0,11,,,,,,,,14,,,57,0
241659,note_on,99,0,8,,,,,,,,11,,,69,0
241659,note_on,99,0,12,,,,,,,,15,,,45,0
241680,note_on,21,0,12,,,,,,,,15,,,47,44
241680,note_on,21,0,11,,,,,,,,14,,,59,44
241680,note_on,21,0,9,,,,,,,,12,,,59,44
241680,note_on,21,0,8,,,,,,,,11,,,71,44
241779,note_on,99,0,12,,,,,,,,15,,,47,0
241779,note_on,99,0,9,,,,,,,,12,,,59,0
241779,note_on,99,0,11,,,,,,,,14,,,59,0
241779,note_on,99,0,8,,,,,,,,11,,,71,0
241800,note_on,21,0,12,,,,,,,,15,,,43,44
241800,note_on,21,0,11,,,,,,,,14,,,55,44
241800,note_on,21,0,9,,,,,,,,12,,,55,44
241800,note_on,21,0,8,,,,,,,,11,,,67,44
241899,note_on,99,0,11,,,,,,,,14,,,55,0
241899,note_on,99,0,12,,,,,,,,15,,,43,0
241899,note_on,99,0,8,,,,,,,,11,,,67,0
241899,note_on,99,0,9,,,,,,,,12,,,55,0
241920,note_on,21,0,9,,,,,,,,12,,,60,44
241920,note_on,21,0,12,,,,,,,,15,,,48,44
241920,note_on,21,0,11,,,,,,,,14,,,60,44
241920,note_on,21,0,8,,,,,,,,11,,,72,44
242019,note_on,99,0,11,,,,,,,,14,,,60,0
242019,note_on,99,0,9,,,,,,,,12,,,60,0
242019,note_on,99,0,8,,,,,,,,11,,,72,0
242019,note_on,99,0,12,,,,,,,,15,,,48,0
242040,note_on,21,0,9,,,,,,,,12,,,62,45
242040,note_on,21,0,8,,,,,,,,11,,,74,45
242040,note_on,21,0,11,,,,,,,,14,,,62,45
242040,note_on,21,0,12,,,,,,,,15,,,50,45
242139,note_on,99,0,11,,,,,,,,14,,,62,0
242139,note_on,99,0,9,,,,,,,,12,,,62,0
242139,note_on,99,0,12,,,,,,,,15,,,50,0
242139,note_on,99,0,8,,,,,,,,11,,,74,0
242160,note_on,21,0,8,,,,,,,,11,,,76,47
242160,note_on,21,0,11,,,,,,,,14,,,64,47
242160,note_on,21,0,12,,,,,,,,15,,,52,47
242160,note_on,21,0,9,,,,,,,,12,,,64,47
242259,note_on,99,0,9,,,,,,,,12,,,64,0
242259,note_on,99,0,12,,,,,,,,15,,,52,0
242259,note_on,99,0,8,,,,,,,,11,,,76,0
242259,note_on,99,0,11,,,,,,,,14,,,64,0
242280,note_on,21,0,8,,,,,,,,11,,,72,48
242280,note_on,21,0,9,,,,,,,,12,,,60,48
242280,note_on,21,0,11,,,,,,,,14,,,60,48
242280,note_on,21,0,12,,,,,,,,15,,,48,48
242379,note_on,99,0,11,,,,,,,,14,,,60,0
242379,note_on,99,0,9,,,,,,,,12,,,60,0
242379,note_on,99,0,8,,,,,,,,11,,,72,0
242379,note_on,99,0,12,,,,,,,,15,,,48,0
242400,note_on,21,0,9,,,,,,,,12,,,55,50
242400,note_on,21,0,11,,,,,,,,14,,,55,50
242400,note_on,21,0,12,,,,,,,,15,,,43,50
242400,note_on,21,0,8,,,,,,,,11,,,67,50
242499,note_on,99,0,12,,,,,,,,15,,,43,0
242499,note_on,99,0,8,,,,,,,,11,,,67,0
242499,note_on,99,0,9,,,,,,,,12,,,55,0
242499,note_on,99,0,11,,,,,,,,14,,,55,0
242520,note_on,21,0,11,,,,,,,,14,,,57,51
242520,note_on,21,0,8,,,,,,,,11,,,69,51
242520,note_on,21,0,9,,,,,,,,12,,,57,51
242520,note_on,21,0,12,,,,,,,,15,,,45,51
242619,note_on,99,0,11,,,,,,,,14,,,57,0
242619,note_on,99,0,8,,,,,,,,11,,,69,0
242619,note_on,99,0,12,,,,,,,,15,,,45,0
242619,note_on,99,0,9,,,,,,,,12,,,57,0
242640,note_on,21,0,11,,,,,,,,14,,,59,53
242640,note_on,21,0,8,,,,,,,,11,,,71,53
242640,note_on,21,0,12,,,,,,,,15,,,47,53
242640,note_on,21,0,9,,,,,,,,12,,,59,53
242739,note_on,99,0,12,,,,,,,,15,,,47,0
242739,note_on,99,0,9,,,,,,,,12,,,59,0
242739,note_on,99,0,8,,,,,,,,11,,,71,0
242739,note_on,99,0,11,,,,,,,,14,,,59,0
242760,note_on,21,0,11,,,,,,,,14,,,55,54
242760,note_on,21,0,9,,,,,,,,12,,,55,54
242760,note_on,21,0,12,,,,,,,,15,,,43,54
242760,note_on,21,0,8,,,,,,,,11,,,67,54
242859,note_on,99,0,8,,,,,,,,11,,,67,0
242859,note_on,99,0,11,,,,,,,,14,,,55,0
242859,note_on,99,0,9,,,,,,,,12,,,55,0
242859,note_on,99,0,12,,,,,,,,15,,,43,0
242880,note_on,21,0,8,,,,,,,,11,,,72,56
242880,note_on,21,0,11,,,,,,,,14,,,60,56
242880,note_on,3361,0,10,,,,,,,,13,,,72,56
242880,note_on,21,0,12,,,,,,,,15,,,48,56
242880,note_on,21,0,9,,,,,,,,12,,,60,56
242979,note_on,99,0,12,,,,,,,,15,,,48,0
242979,note_on,99,0,9,,,,,,,,12,,,60,0
242979,note_on,99,0,10,,,,,,,,13,,,72,0
242979,note_on,99,0,8,,,,,,,,11,,,72,0
242979,note_on,99,0,11,,,,,,,,14,,,60,0
243000,note_on,21,0,8,,,,,,,,11,,,74,57
243000,note_on,21,0,12,,,,,,,,15,,,50,57
243000,note_on,21,0,9,,,,,,,,12,,,62,57
243000,note_on,21,0,10,,,,,,,,13,,,74,57
243000,note_on,21,0,11,,,,,,,,14,,,62,57
243099,note_on,99,0,12,,,,,,,,15,,,50,0
243099,note_on,99,0,10,,,,,,,,13,,,74,0
243099,note_on,99,0,8,,,,,,,,11,,,74,0
243099,note_on,99,0,9,,,,,,,,12,,,62,0
243099,note_on,99,0,11,,,,,,,,14,,,62,0
243120,note_on,21,0,9,,,,,,,,12,,,64,59
243120,note_on,21,0,8,,,,,,,,11,,,76,59
243120,note_on,21,0,12,,,,,,,,15,,,52,59
243120,note_on,21,0,11,,,,,,,,14,,,64,59
243120,note_on,21,0,10,,,,,,,,13,,,76,59
243219,note_on,99,0,12,,,,,,,,15,,,52,0
243219,note_on,99,0,8,,,,,,,,11,,,76,0
243219,note_on,99,0,11,,,,,,,,14,,,64,0
243219,note_on,99,0,10,,,,,,,,13,,,76,0
243219,note_on,99,0,9,,,,,,,,12,,,64,0
243240,note_on,21,0,10,,,,,,,,13,,,72,60
243240,note_on,21,0,11,,,,,,,,14,,,60,60
243240,note_on,21,0,9,,,,,,,,12,,,60,60
243240,note_on,21,0,12,,,,,,,,15,,,48,60
243240,note_on,21,0,8,,,,,,,,11,,,72,60
243339,note_on,99,0,10,,,,,,,,13,,,72,0
243339,note_on,99,0,8,,,,,,,,11,,,72,0
243339,note_on,99,0,12,,,,,,,,15,,,48,0
243339,note_on,99,0,11,,,,,,,,14,,,60,0
243339,note_on,99,0,9,,,,,,,,12,,,60,0
243360,note_on,21,0,8,,,,,,,,11,,,67,62
243360,note_on,21,0,10,,,,,,,,13,,,67,62
243360,note_on,21,0,11,,,,,,,,14,,,55,62
243360,note_on,21,0,12,,,,,,,,15,,,43,62
243360,note_on,21,0,9,,,,,,,,12,,,55,62
243459,note_on,99,0,10,,,,,,,,13,,,67,0
243459,note_on,99,0,12,,,,,,,,15,,,43,0
243459,note_on,99,0,9,,,,,,,,12,,,55,0
243459,note_on,99,0,8,,,,,,,,11,,,67,0
243459,note_on,99,0,11,,,,,,,,14,,,55,0
243480,note_on,21,0,11,,,,,,,,14,,,57,63
243480,note_on,21,0,9,,,,,,,,12,,,57,63
243480,note_on,21,0,8,,,,,,,,11,,,69,63
243480,note_on,21,0,12,,,,,,,,15,,,45,63
243480,note_on,21,0,10,,,,,,,,13,,,69,63
243579,note_on,99,0,9,,,,,,,,12,,,57,0
243579,note_on,99,0,12,,,,,,,,15,,,45,0
243579,note_on,99,0,8,,,,,,,,11,,,69,0
243579,note_on,99,0,11,,,,,,,,14,,,57,0
243579,note_on,99,0,10,,,,,,,,13,,,69,0
243600,note_on,21,0,11,,,,,,,,14,,,59,65
243600,note_on,21,0,9,,,,,,,,12,,,59,65
243600,note_on,21,0,8,,,,,,,,11,,,71,65
243600,note_on,21,0,12,,,,,,,,15,,,47,65
243600,note_on,21,0,10,,,,,,,,13,,,71,65
243699,note_on,99,0,11,,,,,,,,14,,,59,0
243699,note_on,99,0,12,,,,,,,,15,,,47,0
243699,note_on,99,0,8,,,,,,,,11,,,71,0
243699,note_on,99,0,9,,,,,,,,12,,,59,0
243699,note_on,99,0,10,,,,,,,,13,,,71,0
243720,note_on,21,0,10,,,,,,,,13,,,67,66
243720,note_on,21,0,9,,,,,,,,12,,,55,66
243720,note_on,21,0,12,,,,,,,,15,,,43,66
243720,note_on,21,0,8,,,,,,,,11,,,67,66
243720,note_on,21,0,11,,,,,,,,14,,,55,66
243819,note_on,99,0,11,,,,,,,,14,,,55,0
243819,note_on,99,0,10,,,,,,,,13,,,67,0
243819,note_on,99,0,8,,,,,,,,11,,,67,0
243819,note_on,99,0,9,,,,,,,,12,,,55,0
243819,note_on,99,0,12,,,,,,,,15,,,43,0
243840,note_on,21,0,11,,,,,,,,14,,,60,68
243840,note_on,21,0,8,,,,,,,,11,,,72,68
243840,note_on,21,0,10,,,,,,,,13,,,72,68
243840,note_on,21,0,12,,,,,,,,15,,,48,68
243840,note_on,21,0,9,,,,,,,,12,,,60,68
243939,note_on,99,0,8,,,,,,,,11,,,72,0
243939,note_on,99,0,12,,,,,,,,15,,,48,0
243939,note_on,99,0,10,,,,,,,,13,,,72,0
243939,note_on,99,0,9,,,,,,,,12,,,60,0
243939,note_on,99,0,11,,,,,,,,14,,,60,0
243960,note_on,21,0,12,,,,,,,,15,,,50,69
243960,note_on,21,0,11,,,,,,,,14,,,62,69
243960,note_on,21,0,10,,,,,,,,13,,,74,69
243960,note_on,21,0,9,,,,,,,,12,,,62,69
243960,note_on,21,0,8,,,,,,,,11,,,74,69
244059,note_on,99,0,11,,,,,,,,14,,,62,0
244059,note_on,99,0,8,,,,,,,,11,,,74,0
244059,note_on,99,0,9,,,,,,,,12,,,62,0
244059,note_on,99,0,12,,,,,,,,15,,,50,0
244059,note_on,99,0,10,,,,,,,,13,,,74,0
244080,note_on,21,0,12,,,,,,,,15,,,52,71
244080,note_on,21,0,9,,,,,,,,12,,,64,71
244080,note_on,21,0,10,,,,,,,,13,,,76,71
244080,note_on,21,0,11,,,,,,,,14,,,64,71
244080,note_on,21,0,8,,,,,,,,11,,,76,71
244179,note_on,99,0,12,,,,,,,,15,,,52,0
244179,note_on,99,0,10,,,,,,,,13,,,76,0
244179,note_on,99,0,9,,,,,,,,12,,,64,0
244179,note_on,99,0,11,,,,,,,,14,,,64,0
244179,note_on,99,0,8,,,,,,,,11,,,76,0
244200,note_on,21,0,10,,,,,,,,13,,,72,72
244200,note_on,21,0,9,,,,,,,,12,,,60,72
244200,note_on,21,0,8,,,,,,,,11,,,72,72
244200,note_on,21,0,11,,,,,,,,14,,,60,72
244200,note_on,21,0,12,,,,,,,,15,,,48,72
244299,note_on,99,0,12,,,,,,,,15,,,48,0
244299,note_on,99,0,10,,,,,,,,13,,,72,0
244299,note_on,99,0,11,,,,,,,,14,,,60,0
244299,note_on,99,0,9,,,,,,,,12,,,60,0
244299,note_on,99,0,8,,,,,,,,11,,,72,0
244320,note_on,21,0,12,,,,,,,,15,,,43,74
244320,note_on,21,0,10,,,,,,,,13,,,67,74
244320,note_on,21,0,9,,,,,,,,12,,,55,74
244320,note_on,21,0,11,,,,,,,,14,,,55,74
244320,note_on,21,0,8,,,,,,,,11,,,67,74
244419,note_on,99,0,10,,,,,,,,13,,,67,0
244419,note_on,99,0,11,,,,,,,,14,,,55,0
244419,note_on,99,0,9,,,,,,,,12,,,55,0
244419,note_on,99,0,8,,,,,,,,11,,,67,0
244419,note_on,99,0,12,,,,,,,,15,,,43,0
244440,note_on,21,0,8,,,,,,,,11,,,69,75
244440,note_on,21,0,11,,,,,,,,14,,,57,75
244440,note_on,21,0,10,,,,,,,,13,,,69,75
244440,note_on,21,0,9,,,,,,,,12,,,57,75
244440,note_on,21,0,12,,,,,,,,15,,,45,75
244539,note_on,99,0,10,,,,,,,,13,,,69,0
244539,note_on,99,0,9,,,,,,,,12,,,57,0
244539,note_on,99,0,11,,,,,,,,14,,,57,0
244539,note_on,99,0,12,,,,,,,,15,,,45,0
244539,note_on,99,0,8,,,,,,,,11,,,69,0
244560,note_on,21,0,10,,,,,,,,13,,,71,77
244560,note_on,21,0,8,,,,,,,,11,,,71,77
244560,note_on,21,0,9,,,,,,,,12,,,59,77
244560,note_on,21,0,11,,,,,,,,14,,,59,77
244560,note_on,21,0,12,,,,,,,,15,,,47,77
244659,note_on,99,0,11,,,,,,,,14,,,59,0
244659,note_on,99,0,12,,,,,,,,15,,,47,0
244659,note_on,99,0,10,,,,,,,,13,,,71,0
244659,note_on,99,0,9,,,,,,,,12,,,59,0
244659,note_on,99,0,8,,,,,,,,11,,,71,0
244680,note_on,21,0,11,,,,,,,,14,,,55,78
244680,note_on,21,0,8,,,,,,,,11,,,67,78
244680,note_on,21,0,12,,,,,,,,15,,,43,78
244680,note_on,21,0,10,,,,,,,,13,,,67,78
244680,note_on,21,0,9,,,,,,,,12,,,55,78
244779,note_on,99,0,9,,,,,,,,12,,,55,0
244779,note_on,99,0,12,,,,,,,,15,,,43,0
244779,note_on,99,0,8,,,,,,,,11,,,67,0
244779,note_on,99,0,10,,,,,,,,13,,,67,0
244779,note_on,99,0,11,,,,,,,,14,,,55,0
244800,note_on,21,0,9,,,,,,,,12,,,60,80
244800,note_on,21,0,8,,,,,,,,11,,,72,80
244800,note_on,21,0,10,,,,,,,,13,,,72,80
244800,note_on,0,0,6,,,,,,,,1,,,48,80
244800,note_on,6001,0,6,,,,,,,,1,,,60,80
244800,note_on,21,0,12,,,,,,,,15,,,48,80
244800,note_on,21,0,11,,,,,,,,14,,,60,80
244899,note_on,99,0,11,,,,,,,,14,,,60,0
244899,note_on,99,0,10,,,,,,,,13,,,72,0
244899,note_on,99,0,12,,,,,,,,15,,,48,0
244899,note_on,99,0,8,,,,,,,,11,,,72,0
244899,note_on,99,0,9,,,,,,,,12,,,60,0
244920,note_on,21,0,10,,,,,,,,13,,,74,80
244920,note_on,21,0,9,,,,,,,,12,,,62,80
244920,note_on,21,0,8,,,,,,,,11,,,74,80
244920,note_on,21,0,11,,,,,,,,14,,,62,80
244920,note_on,21,0,12,,,,,,,,15,,,50,80
245019,note_on,99,0,9,,,,,,,,12,,,62,0
245019,note_on,99,0,8,,,,,,,,11,,,74,0
245019,note_on,99,0,10,,,,,,,,13,,,74,0
245019,note_on,99,0,11,,,,,,,,14,,,62,0
245019,note_on,99,0,12,,,,,,,,15,,,50,0
245040,note_on,21,0,9,,,,,,,,12,,,64,81
245040,note_on,21,0,8,,,,,,,,11,,,76,81
245040,note_on,21,0,10,,,,,,,,13,,,76,81
245040,note_on,21,0,11,,,,,,,,14,,,64,81
245040,note_on,21,0,12,,,,,,,,15,,,52,81
245139,note_on,99,0,11,,,,,,,,14,,,64,0
245139,note_on,99,0,12,,,,,,,,15,,,52,0
245139,note_on,99,0,10,,,,,,,,13,,,76,0
245139,note_on,99,0,9,,,,,,,,12,,,64,0
245139,note_on,99,0,8,,,,,,,,11,,,76,0
245160,note_on,21,0,12,,,,,,,,15,,,48,82
245160,note_on,21,0,8,,,,,,,,11,,,72,82
245160,note_on,21,0,11,,,,,,,,14,,,60,82
245160,note_on,21,0,10,,,,,,,,13,,,72,82
245160,note_on,21,0,9,,,,,,,,12,,,60,82
245259,note_on,99,0,10,,,,,,,,13,,,72,0
245259,note_on,99,0,9,,,,,,,,12,,,60,0
245259,note_on,99,0,11,,,,,,,,14,,,60,0
245259,note_on,0,0,6,,,,,,,,1,,,60,0
245259,note_on,459,0,6,,,,,,,,1,,,48,0
245259,note_on,99,0,12,,,,,,,,15,,,48,0
245259,note_on,99,0,8,,,,,,,,11,,,72,0
245280,note_on,21,0,8,,,,,,,,11,,,67,83
245280,note_on,21,0,11,,,,,,,,14,,,55,83
245280,note_on,0,0,6,,,,,,,,1,,,43,80
245280,note_on,21,0,12,,,,,,,,15,,,43,83
245280,note_on,21,0,9,,,,,,,,12,,,55,83
245280,note_on,21,0,10,,,,,,,,13,,,67,83
245280,note_on,21,0,6,,,,,,,,1,,,55,80
245379,note_on,99,0,9,,,,,,,,12,,,55,0
245379,note_on,99,0,10,,,,,,,,13,,,67,0
245379,note_on,99,0,11,,,,,,,,14,,,55,0
245379,note_on,99,0,8,,,,,,,,11,,,67,0
245379,note_on,99,0,12,,,,,,,,15,,,43,0
245400,note_on,21,0,12,,,,,,,,15,,,45,83
245400,note_on,21,0,10,,,,,,,,13,,,69,83
245400,note_on,21,0,8,,,,,,,,11,,,69,83
245400,note_on,21,0,9,,,,,,,,12,,,57,83
245400,note_on,21,0,11,,,,,,,,14,,,57,83
245499,note_on,99,0,11,,,,,,,,14,,,57,0
245499,note_on,99,0,9,,,,,,,,12,,,57,0
245499,note_on,99,0,8,,,,,,,,11,,,69,0
245499,note_on,99,0,10,,,,,,,,13,,,69,0
245499,note_on,99,0,12,,,,,,,,15,,,45,0
245520,note_on,21,0,10,,,,,,,,13,,,71,84
245520,note_on,21,0,8,,,,,,,,11,,,71,84
245520,note_on,21,0,12,,,,,,,,15,,,47,84
245520,note_on,21,0,11,,,,,,,,14,,,59,84
245520,note_on,21,0,9,,,,,,,,12,,,59,84
245619,note_on,99,0,8,,,,,,,,11,,,71,0
245619,note_on,99,0,12,,,,,,,,15,,,47,0
245619,note_on,99,0,11,,,,,,,,14,,,59,0
245619,note_on,99,0,9,,,,,,,,12,,,59,0
245619,note_on,99,0,10,,,,,,,,13,,,71,0
245640,note_on,21,0,8,,,,,,,,11,,,67,85
245640,note_on,21,0,11,,,,,,,,14,,,55,85
245640,note_on,21,0,12,,,,,,,,15,,,43,85
245640,note_on,21,0,9,,,,,,,,12,,,55,85
245640,note_on,21,0,10,,,,,,,,13,,,67,85
245739,note_on,99,0,10,,,,,,,,13,,,67,0
245739,note_on,99,0,9,,,,,,,,12,,,55,0
245739,note_on,459,0,6,,,,,,,,1,,,43,0
245739,note_on,99,0,12,,,,,,,,15,,,43,0
245739,note_on,99,0,11,,,,,,,,14,,,55,0
245739,note_on,99,0,8,,,,,,,,11,,,67,0
245739,note_on,0,0,6,,,,,,,,1,,,55,0
245760,note_on,21,0,6,,,,,,,,1,,,60,80
245760,note_on,0,0,6,,,,,,,,1,,,48,80
245760,note_on,21,0,12,,,,,,,,15,,,48,86
245760,note_on,21,0,10,,,,,,,,13,,,72,86
245760,note_on,21,0,9,,,,,,,,12,,,60,86
245760,note_on,21,0,8,,,,,,,,11,,,72,86
245760,note_on,21,0,11,,,,,,,,14,,,60,86
245859,note_on,99,0,8,,,,,,,,11,,,72,0
245859,note_on,99,0,12,,,,,,,,15,,,48,0
245859,note_on,99,0,11,,,,,,,,14,,,60,0
245859,note_on,99,0,10,,,,,,,,13,,,72,0
245859,note_on,99,0,9,,,,,,,,12,,,60,0
245880,note_on,21,0,10,,,,,,,,13,,,74,86
245880,note_on,21,0,12,,,,,,,,15,,,50,86
245880,note_on,21,0,11,,,,,,,,14,,,62,86
245880,note_on,21,0,8,,,,,,,,11,,,74,86
245880,note_on,21,0,9,,,,,,,,12,,,62,86
245979,note_on,99,0,12,,,,,,,,15,,,50,0
245979,note_on,99,0,11,,,,,,,,14,,,62,0
245979,note_on,99,0,9,,,,,,,,12,,,62,0
245979,note_on,99,0,8,,,,,,,,11,,,74,0
245979,note_on,99,0,10,,,,,,,,13,,,74,0
246000,note_on,21,0,11,,,,,,,,14,,,64,87
246000,note_on,21,0,10,,,,,,,,13,,,76,87
246000,note_on,21,0,8,,,,,,,,11,,,76,87
246000,note_on,21,0,12,,,,,,,,15,,,52,87
246000,note_on,21,0,9,,,,,,,,12,,,64,87
246099,note_on,99,0,12,,,,,,,,15,,,52,0
246099,note_on,99,0,11,,,,,,,,14,,,64,0
246099,note_on,99,0,8,,,,,,,,11,,,76,0
246099,note_on,99,0,9,,,,,,,,12,,,64,0
246099,note_on,99,0,10,,,,,,,,13,,,76,0
246120,note_on,21,0,12,,,,,,,,15,,,48,88
246120,note_on,21,0,8,,,,,,,,11,,,72,88
246120,note_on,21,0,9,,,,,,,,12,,,60,88
246120,note_on,21,0,11,,,,,,,,14,,,60,88
246120,note_on,21,0,10,,,,,,,,13,,,72,88
246219,note_on,459,0,6,,,,,,,,1,,,48,0
246219,note_on,99,0,12,,,,,,,,15,,,48,0
246219,note_on,99,0,11,,,,,,,,14,,,60,0
246219,note_on,0,0,6,,,,,,,,1,,,60,0
246219,note_on,99,0,9,,,,,,,,12,,,60,0
246219,note_on,99,0,10,,,,,,,,13,,,72,0
246219,note_on,99,0,8,,,,,,,,11,,,72,0
246240,note_on,21,0,12,,,,,,,,15,,,43,89
246240,note_on,21,0,9,,,,,,,,12,,,55,89
246240,note_on,21,0,8,,,,,,,,11,,,67,89
246240,note_on,0,0,6,,,,,,,,1,,,43,80
246240,note_on,21,0,11,,,,,,,,14,,,55,89
246240,note_on,21,0,6,,,,,,,,1,,,55,80
246240,note_on,21,0,10,,,,,,,,13,,,67,89
246339,note_on,99,0,10,,,,,,,,13,,,67,0
246339,note_on,99,0,11,,,,,,,,14,,,55,0
246339,note_on,99,0,12,,,,,,,,15,,,43,0
246339,note_on,99,0,9,,,,,,,,12,,,55,0
246339,note_on,99,0,8,,,,,,,,11,,,67,0
246360,note_on,21,0,10,,,,,,,,13,,,69,89
246360,note_on,21,0,8,,,,,,,,11,,,69,89
246360,note_on,21,0,12,,,,,,,,15,,,45,89
246360,note_on,21,0,9,,,,,,,,12,,,57,89
246360,note_on,21,0,11,,,,,,,,14,,,57,89
246459,note_on,99,0,9,,,,,,,,12,,,57,0
246459,note_on,99,0,12,,,,,,,,15,,,45,0
246459,note_on,99,0,10,,,,,,,,13,,,69,0
246459,note_on,99,0,11,,,,,,,,14,,,57,0
246459,note_on,99,0,8,,,,,,,,11,,,69,0
246480,note_on,21,0,10,,,,,,,,13,,,71,90
246480,note_on,21,0,12,,,,,,,,15,,,47,90
246480,note_on,21,0,9,,,,,,,,12,,,59,90
246480,note_on,21,0,11,,,,,,,,14,,,59,90
246480,note_on,21,0,8,,,,,,,,11,,,71,90
246579,note_on,99,0,9,,,,,,,,12,,,59,0
246579,note_on,99,0,12,,,,,,,,15,,,47,0
246579,note_on,99,0,10,,,,,,,,13,,,71,0
246579,note_on,99,0,8,,,,,,,,11,,,71,0
246579,note_on,99,0,11,,,,,,,,14,,,59,0
246600,note_on,21,0,10,,,,,,,,13,,,67,91
246600,note_on,21,0,9,,,,,,,,12,,,55,91
246600,note_on,21,0,8,,,,,,,,11,,,67,91
246600,note_on,21,0,11,,,,,,,,14,,,55,91
246600,note_on,21,0,12,,,,,,,,15,,,43,91
246699,note_on,99,0,11,,,,,,,,14,,,55,0
246699,note_on,99,0,10,,,,,,,,13,,,67,0
246699,note_on,459,0,6,,,,,,,,1,,,43,0
246699,note_on,99,0,9,,,,,,,,12,,,55,0
246699,note_on,0,0,6,,,,,,,,1,,,55,0
246699,note_on,99,0,8,,,,,,,,11,,,67,0
246699,note_on,99,0,12,,,,,,,,15,,,43,0
246720,note_on,21,0,11,,,,,,,,14,,,60,92
246720,note_on,21,0,8,,,,,,,,11,,,72,92
246720,note_on,7921,0,7,,,,,,,,2,,,72,92
246720,note_on,7921,0,5,,,,,,,,0,,,84,92
246720,note_on,0,0,5,,,,,,,,0,,,72,92
246720,note_on,21,0,10,,,,,,,,13,,,72,92
246720,note_on,21,0,12,,,,,,,,15,,,48,92
246720,note_on,0,0,7,,,,,,,,2,,,60,92
246720,note_on,21,0,9,,,,,,,,12,,,60,92
246720,note_on,21,0,6,,,,,,,,1,,,60,92
246720,note_on,0,0,6,,,,,,,,1,,,48,92
246819,note_on,99,0,10,,,,,,,,13,,,72,0
246819,note_on,99,0,11,,,,,,,,14,,,60,0
246819,note_on,99,0,8,,,,,,,,11,,,72,0
246819,note_on,99,0,9,,,,,,,,12,,,60,0
246819,note_on,99,0,12,,,,,,,,15,,,48,0
246840,note_on,21,0,12,,,,,,,,15,,,50,92
246840,note_on,21,0,10,,,,,,,,13,,,74,92
246840,note_on,21,0,11,,,,,,,,14,,,62,92
246840,note_on,21,0,8,,,,,,,,11,,,74,92
246840,note_on,21,0,9,,,,,,,,12,,,62,92
246939,note_on,99,0,12,,,,,,,,15,,,50,0
246939,note_on,99,0,11,,,,,,,,14,,,62,0
246939,note_on,99,0,8,,,,,,,,11,,,74,0
246939,note_on,99,0,9,,,,,,,,12,,,62,0
246939,note_on,99,0,10,,,,,,,,13,,,74,0
246960,note_on,21,0,8,,,,,,,,11,,,76,92
246960,note_on,21,0,10,,,,,,,,13,,,76,92
246960,note_on,21,0,11,,,,,,,,14,,,64,92
246960,note_on,21,0,9,,,,,,,,12,,,64,92
246960,note_on,21,0,12,,,,,,,,15,,,52,92
247059,note_on,99,0,8,,,,,,,,11,,,76,0
247059,note_on,99,0,10,,,,,,,,13,,,76,0
247059,note_on,99,0,11,,,,,,,,14,,,64,0
247059,note_on,99,0,9,,,,,,,,12,,,64,0
247059,note_on,99,0,12,,,,,,,,15,,,52,0
247080,note_on,21,0,11,,,,,,,,14,,,60,92
247080,note_on,21,0,10,,,,,,,,13,,,72,92
247080,note_on,21,0,9,,,,,,,,12,,,60,92
247080,note_on,21,0,12,,,,,,,,15,,,48,92
247080,note_on,21,0,8,,,,,,,,11,,,72,92
247179,note_on,99,0,10,,,,,,,,13,,,72,0
247179,note_on,459,0,5,,,,,,,,0,,,72,0
247179,note_on,459,0,7,,,,,,,,2,,,60,0
247179,note_on,0,0,7,,,,,,,,2,,,72,0
247179,note_on,0,0,5,,,,,,,,0,,,84,0
247179,note_on,99,0,11,,,,,,,,14,,,60,0
247179,note_on,99,0,8,,,,,,,,11,,,72,0
247179,note_on,99,0,12,,,,,,,,15,,,48,0
247179,note_on,459,0,6,,,,,,,,1,,,48,0
247179,note_on,0,0,6,,,,,,,,1,,,60,0
247179,note_on,99,0,9,,,,,,,,12,,,60,0
247200,note_on,21,0,5,,,,,,,,0,,,79,92
247200,note_on,21,0,6,,,,,,,,1,,,55,92
247200,note_on,0,0,5,,,,,,,,0,,,67,92
247200,note_on,21,0,10,,,,,,,,13,,,67,92
247200,note_on,21,0,12,,,,,,,,15,,,43,92
247200,note_on,0,0,6,,,,,,,,1,,,43,92
247200,note_on,0,0,7,,,,,,,,2,,,67,92
247200,note_on,21,0,7,,,,,,,,2,,,55,92
247200,note_on,21,0,9,,,,,,,,12,,,55,92
247200,note_on,21,0,8,,,,,,,,11,,,67,92
247200,note_on,21,0,11,,,,,,,,14,,,55,92
247299,note_on,99,0,12,,,,,,,,15,,,43,0
247299,note_on,99,0,10,,,,,,,,13,,,67,0
247299,note_on,99,0,9,,,,,,,,12,,,55,0
247299,note_on,99,0,8,,,,,,,,11,,,67,0
247299,note_on,99,0,11,,,,,,,,14,,,55,0
247320,note_on,21,0,8,,,,,,,,11,,,69,92
247320,note_on,21,0,10,,,,,,,,13,,,69,92
247320,note_on,21,0,9,,,,,,,,12,,,57,92
247320,note_on,21,0,12,,,,,,,,15,,,45,92
247320,note_on,21,0,11,,,,,,,,14,,,57,92
247419,note_on,99,0,9,,,,,,,,12,,,57,0
247419,note_on,99,0,10,,,,,,,,13,,,69,0
247419,note_on,99,0,8,,,,,,,,11,,,69,0
247419,note_on,99,0,12,,,,,,,,15,,,45,0
247419,note_on,99,0,11,,,,,,,,14,,,57,0
247440,note_on,21,0,8,,,,,,,,11,,,71,92
247440,note_on,21,0,10,,,,,,,,13,,,71,92
247440,note_on,21,0,9,,,,,,,,12,,,59,92
247440,note_on,21,0,12,,,,,,,,15,,,47,92
247440,note_on,21,0,11,,,,,,,,14,,,59,92
247539,note_on,99,0,11,,,,,,,,14,,,59,0
247539,note_on,99,0,10,,,,,,,,13,,,71,0
247539,note_on,99,0,9,,,,,,,,12,,,59,0
247539,note_on,99,0,8,,,,,,,,11,,,71,0
247539,note_on,99,0,12,,,,,,,,15,,,47,0
247560,note_on,21,0,8,,,,,,,,11,,,67,92
247560,note_on,21,0,9,,,,,,,,12,,,55,92
247560,note_on,21,0,10,,,,,,,,13,,,67,92
247560,note_on,21,0,11,,,,,,,,14,,,55,92
247560,note_on,21,0,12,,,,,,,,15,,,43,92
247659,note_on,99,0,12,,,,,,,,15,,,43,0
247659,note_on,99,0,11,,,,,,,,14,,,55,0
247659,note_on,0,0,5,,,,,,,,0,,,79,0
247659,note_on,459,0,5,,,,,,,,0,,,67,0
247659,note_on,459,0,7,,,,,,,,2,,,67,0
247659,note_on,0,0,7,,,,,,,,2,,,55,0
247659,note_on,0,0,6,,,,,,,,1,,,55,0
247659,note_on,99,0,9,,,,,,,,12,,,55,0
247659,note_on,99,0,10,,,,,,,,13,,,67,0
247659,note_on,459,0,6,,,,,,,,1,,,43,0
247659,note_on,99,0,8,,,,,,,,11,,,67,0
247680,note_on,21,0,11,,,,,,,,14,,,60,92
247680,note_on,21,0,6,,,,,,,,1,,,60,92
247680,note_on,0,0,6,,,,,,,,1,,,48,92
247680,note_on,0,0,7,,,,,,,,2,,,72,92
247680,note_on,21,0,9,,,,,,,,12,,,60,92
247680,note_on,0,0,5,,,,,,,,0,,,72,92
247680,note_on,21,0,5,,,,,,,,0,,,84,92
247680,note_on,21,0,7,,,,,,,,2,,,60,92
247680,note_on,21,0,12,,,,,,,,15,,,48,92
247680,note_on,21,0,10,,,,,,,,13,,,72,92
247680,note_on,21,0,8,,,,,,,,11,,,72,92
247779,note_on,99,0,8,,,,,,,,11,,,72,0
247779,note_on,99,0,11,,,,,,,,14,,,60,0
247779,note_on,99,0,9,,,,,,,,12,,,60,0
247779,note_on,99,0,12,,,,,,,,15,,,48,0
247779,note_on,99,0,10,,,,,,,,13,,,72,0
247800,note_on,21,0,10,,,,,,,,13,,,74,92
247800,note_on,21,0,11,,,,,,,,14,,,62,92
247800,note_on,21,0,9,,,,,,,,12,,,62,92
247800,note_on,21,0,8,,,,,,,,11,,,74,92
247800,note_on,21,0,12,,,,,,,,15,,,50,92
247899,note_on,99,0,10,,,,,,,,13,,,74,0
247899,note_on,99,0,9,,,,,,,,12,,,62,0
247899,note_on,99,0,8,,,,,,,,11,,,74,0
247899,note_on,99,0,12,,,,,,,,15,,,50,0
247899,note_on,99,0,11,,,,,,,,14,,,62,0
247920,note_on,21,0,9,,,,,,,,12,,,64,92
247920,note_on,21,0,12,,,,,,,,15,,,52,92
247920,note_on,21,0,8,,,,,,,,11,,,76,92
247920,note_on,21,0,10,,,,,,,,13,,,76,92
247920,note_on,21,0,11,,,,,,,,14,,,64,92
248019,note_on,99,0,11,,,,,,,,14,,,64,0
248019,note_on,99,0,12,,,,,,,,15,,,52,0
248019,note_on,99,0,9,,,,,,,,12,,,64,0
248019,note_on,99,0,8,,,,,,,,11,,,76,0
248019,note_on,99,0,10,,,,,,,,13,,,76,0
248040,note_on,21,0,12,,,,,,,,15,,,48,92
248040,note_on,21,0,11,,,,,,,,14,,,60,92
248040,note_on,21,0,8,,,,,,,,11,,,72,92
248040,note_on,21,0,9,,,,,,,,12,,,60,92
248040,note_on,21,0,10,,,,,,,,13,,,72,92
248139,note_on,99,0,11,,,,,,,,14,,,60,0
248139,note_on,99,0,8,,,,,,,,11,,,72,0
248139,note_on,0,0,6,,,,,,,,1,,,60,0
248139,note_on,459,0,6,,,,,,,,1,,,48,0
248139,note_on,459,0,7,,,,,,,,2,,,72,0
248139,note_on,0,0,5,,,,,,,,0,,,84,0
248139,note_on,99,0,10,,,,,,,,13,,,72,0
248139,note_on,459,0,5,,,,,,,,0,,,72,0
248139,note_on,99,0,9,,,,,,,,12,,,60,0
248139,note_on,0,0,7,,,,,,,,2,,,60,0
248139,note_on,99,0,12,,,,,,,,15,,,48,0
248160,note_on,21,0,12,,,,,,,,15,,,43,92
248160,note_on,21,0,6,,,,,,,,1,,,55,92
248160,note_on,21,0,7,,,,,,,,2,,,67,92
248160,note_on,0,0,6,,,,,,,,1,,,43,92
248160,note_on,21,0,5,,,,,,,,0,,,79,92
248160,note_on,0,0,5,,,,,,,,0,,,67,92
248160,note_on,21,0,9,,,,,,,,12,,,55,92
248160,note_on,21,0,8,,,,,,,,11,,,67,92
248160,note_on,21,0,10,,,,,,,,13,,,67,92
248160,note_on,0,0,7,,,,,,,,2,,,55,92
248160,note_on,21,0,11,,,,,,,,14,,,55,92
248259,note_on,99,0,9,,,,,,,,12,,,55,0
248259,note_on,99,0,12,,,,,,,,15,,,43,0
248259,note_on,99,0,8,,,,,,,,11,,,67,0
248259,note_on,99,0,10,,,,,,,,13,,,67,0
248259,note_on,99,0,11,,,,,,,,14,,,55,0
248280,note_on,21,0,12,,,,,,,,15,,,45,92
248280,note_on,21,0,9,,,,,,,,12,,,57,92
248280,note_on,21,0,10,,,,,,,,13,,,69,92
248280,note_on,21,0,11,,,,,,,,14,,,57,92
248280,note_on,21,0,8,,,,,,,,11,,,69,92
248379,note_on,99,0,12,,,,,,,,15,,,45,0
248379,note_on,99,0,9,,,,,,,,12,,,57,0
248379,note_on,99,0,8,,,,,,,,11,,,69,0
248379,note_on,99,0,10,,,,,,,,13,,,69,0
248379,note_on,99,0,11,,,,,,,,14,,,57,0
248400,note_on,21,0,8,,,,,,,,11,,,71,92
248400,note_on,21,0,12,,,,,,,,15,,,47,92
248400,note_on,21,0,11,,,,,,,,14,,,59,92
248400,note_on,21,0,9,,,,,,,,12,,,59,92
248400,note_on,21,0,10,,,,,,,,13,,,71,92
248499,note_on,99,0,8,,,,,,,,11,,,71,0
248499,note_on,99,0,9,,,,,,,,12,,,59,0
248499,note_on,99,0,12,,,,,,,,15,,,47,0
248499,note_on,99,0,11,,,,,,,,14,,,59,0
248499,note_on,99,0,10,,,,,,,,13,,,71,0
248520,note_on,21,0,10,,,,,,,,13,,,67,92
248520,note_on,21,0,12,,,,,,,,15,,,43,92
248520,note_on,21,0,9,,,,,,,,12,,,55,92
248520,note_on,21,0,8,,,,,,,,11,,,67,92
248520,note_on,21,0,11,,,,,,,,14,,,55,92
248619,note_on,99,0,12,,,,,,,,15,,,43,0
248619,note_on,0,0,5,,,,,,,,0,,,79,0
248619,note_on,459,0,5,,,,,,,,0,,,67,0
248619,note_on,0,0,7,,,,,,,,2,,,67,0
248619,note_on,459,0,7,,,,,,,,2,,,55,0
248619,note_on,459,0,6,,,,,,,,1,,,43,0
248619,note_on,99,0,11,,,,,,,,14,,,55,0
248619,note_on,0,0,6,,,,,,,,1,,,55,0
248619,note_on,99,0,8,,,,,,,,11,,,67,0
248619,note_on,99,0,9,,,,,,,,12,,,55,0
248619,note_on,99,0,10,,,,,,,,13,,,67,0
248640,note_on,21,0,8,,,,,,,,11,,,72,92
248640,note_on,21,0,9,,,,,,,,12,,,60,92
248640,note_on,0,0,5,,,,,,,,0,,,72,92
248640,note_on,21,0,5,,,,,,,,0,,,84,92
248640,note_on,0,0,7,,,,,,,,2,,,60,92
248640,note_on,21,0,7,,,,,,,,2,,,72,92
248640,note_on,21,0,12,,,,,,,,15,,,48,92
248640,note_on,0,0,6,,,,,,,,1,,,48,92
248640,note_on,21,0,11,,,,,,,,14,,,60,92
248640,note_on,21,0,6,,,,,,,,1,,,60,92
248640,note_on,21,0,10,,,,,,,,13,,,72,92
249099,note_on,459,0,10,,,,,,,,13,,,72,0
249099,note_on,459,0,12,,,,,,,,15,,,48,0
249099,note_on,459,0,11,,,,,,,,14,,,60,0
249099,note_on,459,0,7,,,,,,,,2,,,60,0
249099,note_on,459,0,8,,,,,,,,11,,,72,0
249099,note_on,0,0,7,,,,,,,,2,,,72,0
249099,note_on,0,0,5,,,,,,,,0,,,84,0
249099,note_on,459,0,5,,,,,,,,0,,,72,0
249099,note_on,459,0,6,,,,,,,,1,,,48,0
249099,note_on,0,0,6,,,,,,,,1,,,60,0
249099,note_on,459,0,9,,,,,,,,12,,,60,0
249120,note_on,21,0,7,,,,,,,,2,,,72,92
249120,set_tempo,249120,1,0,,,,,,240000,,,,,,
249120,note_on,21,0,11,,,,,,,,14,,,48,92
249120,note_on,21,0,6,,,,,,,,1,,,60,92
249120,note_on,0,0,8,,,,,,,,11,,,76,92
249120,note_on,21,0,8,,,,,,,,11,,,84,92
249120,note_on,0,0,6,,,,,,,,1,,,52,92
249120,note_on,21,0,9,,,,,,,,12,,,76,92
249120,note_on,0,0,7,,,,,,,,2,,,64,92
249120,note_on,0,0,9,,,,,,,,12,,,67,92
249120,note_on,0,0,5,,,,,,,,0,,,76,92
249120,note_on,21,0,5,,,,,,,,0,,,84,92
249120,note_on,21,0,10,,,,,,,,13,,,60,92
249120,note_on,21,0,12,,,,,,,,15,,,36,92
249120,note_on,0,0,9,,,,,,,,12,,,72,92
249579,note_on,459,0,12,,,,,,,,15,,,36,0
249579,note_on,0,0,6,,,,,,,,1,,,60,0
249579,note_on,459,0,7,,,,,,,,2,,,64,0
249579,note_on,0,0,7,,,,,,,,2,,,72,0
249579,note_on,459,0,6,,,,,,,,1,,,52,0
249579,note_on,459,0,11,,,,,,,,14,,,48,0
249579,note_on,0,0,8,,,,,,,,11,,,84,0
249579,note_on,459,0,8,,,,,,,,11,,,76,0
249579,note_on,0,0,9,,,,,,,,12,,,76,0
249579,note_on,0,0,9,,,,,,,,12,,,72,0
249579,note_on,0,0,5,,,,,,,,0,,,84,0
249579,note_on,459,0,9,,,,,,,,12,,,67,0
249579,note_on,459,0,10,,,,,,,,13,,,60,0
249579,note_on,459,0,5,,,,,,,,0,,,76,0
249600,note_on,21,0,12,,,,,,,,15,,,36,92
249600,set_tempo,480,1,0,,,,,,312500,,,,,,
249600,note_on,21,0,7,,,,,,,,2,,,72,92
249600,note_on,0,0,9,,,,,,,,12,,,67,92
249600,note_on,0,0,9,,,,,,,,12,,,72,92
249600,note_on,21,0,9,,,,,,,,12,,,76,92
249600,note_on,0,0,5,,,,,,,,0,,,76,92
249600,note_on,0,0,7,,,,,,,,2,,,64,92
249600,note_on,21,0,6,,,,,,,,1,,,60,92
249600,note_on,0,0,6,,,,,,,,1,,,52,92
249600,note_on,0,0,8,,,,,,,,11,,,76,92
249600,note_on,21,0,8,,,,,,,,11,,,84,92
249600,note_on,21,0,11,,,,,,,,14,,,48,92
249600,note_on,21,0,5,,,,,,,,0,,,84,92
249600,note_on,21,0,10,,,,,,,,13,,,60,92
250059,end_of_track,0,1,8,,,,,,,,,,,,
250059,note_on,0,0,8,,,,,,,,11,,,84,0
250059,note_on,459,0,8,,,,,,,,11,,,76,0
250079,end_of_track,0,1,10,,,,,,,,,,,,
250079,note_on,479,0,11,,,,,,,,14,,,48,0
250079,note_on,479,0,6,,,,,,,,1,,,52,0
250079,note_on,0,0,6,,,,,,,,1,,,60,0
250079,note_on,479,0,12,,,,,,,,15,,,36,0
250079,end_of_track,0,1,12,,,,,,,,,,,,
250079,note_on,479,0,10,,,,,,,,13,,,60,0
250079,end_of_track,0,1,5,,,,,,,,,,,,
250079,end_of_track,0,1,9,,,,,,,,,,,,
250079,note_on,479,0,5,,,,,,,,0,,,76,0
250079,end_of_track,0,1,11,,,,,,,,,,,,
250079,note_on,0,0,9,,,,,,,,12,,,76,0
250079,note_on,0,0,9,,,,,,,,12,,,72,0
250079,note_on,479,0,9,,,,,,,,12,,,67,0
250079,note_on,479,0,7,,,,,,,,2,,,64,0
250079,note_on,0,0,7,,,,,,,,2,,,72,0
250079,end_of_track,0,1,7,,,,,,,,,,,,
250079,note_on,0,0,5,,,,,,,,0,,,84,0
250079,end_of_track,0,1,6,,,,,,,,,,,,
250080,set_tempo,480,1,0,,,,,,500000,,,,,,
250560,set_tempo,480,1,0,,,,,,2000000,,,,,,
250560,end_of_track,0,1,0,,,,,,,,,,,,
