tick,type,time,meta,track,numerator,denominator,clocks_per_click,notated_32nd_notes_per_beat,key,tempo,port,program,channel,control,value,note,velocity
0,track_name,0,1,0,,,,,,,,,,,,,
0,track_name,0,1,5,,,,,,,,,,,,,
0,midi_port,0,1,5,,,,,,,0,,,,,,
0,note_on,0,0,4,,,,,,,,,3,,,72,100
0,note_on,0,0,4,,,,,,,,,3,,,64,100
0,note_on,0,0,4,,,,,,,,,3,,,55,100
0,control_change,0,0,4,,,,,,,,,3,10,50,,
0,control_change,0,0,4,,,,,,,,,3,7,127,,
0,program_change,0,0,4,,,,,,,,48,3,,,,
0,track_name,0,1,4,,,,,,,,,,,,,
0,midi_port,0,1,4,,,,,,,0,,,,,,
0,note_on,0,0,3,,,,,,,,,2,,,60,100
0,control_change,0,0,3,,,,,,,,,2,10,70,,
0,control_change,0,0,3,,,,,,,,,2,7,115,,
0,program_change,0,0,3,,,,,,,,56,2,,,,
0,track_name,0,1,3,,,,,,,,,,,,,
0,midi_port,0,1,3,,,,,,,0,,,,,,
0,note_on,0,0,2,,,,,,,,,1,,,72,100
0,note_on,0,0,2,,,,,,,,,1,,,60,100
0,control_change,0,0,2,,,,,,,,,1,10,64,,
0,control_change,0,0,2,,,,,,,,,1,7,115,,
0,program_change,0,0,2,,,,,,,,60,1,,,,
0,program_change,0,0,5,,,,,,,,48,4,,,,
0,track_name,0,1,2,,,,,,,,,,,,,
0,control_change,0,0,5,,,,,,,,,4,7,127,,
0,note_on,0,0,5,,,,,,,,,4,,,60,100
0,note_on,0,0,8,,,,,,,,,7,,,48,100
0,note_on,0,0,8,,,,,,,,,7,,,36,100
0,control_change,0,0,8,,,,,,,,,7,10,112,,
0,control_change,0,0,8,,,,,,,,,7,7,127,,
0,program_change,0,0,8,,,,,,,,43,7,,,,
0,track_name,0,1,8,,,,,,,,,,,,,
0,midi_port,0,1,8,,,,,,,0,,,,,,
0,note_on,0,0,7,,,,,,,,,6,,,48,100
0,note_on,0,0,7,,,,,,,,,6,,,36,100
0,control_change,0,0,7,,,,,,,,,6,10,105,,
0,control_change,0,0,7,,,,,,,,,6,7,127,,
0,program_change,0,0,7,,,,,,,,48,6,,,,
0,track_name,0,1,7,,,,,,,,,,,,,
0,midi_port,0,1,7,,,,,,,0,,,,,,
0,midi_port,0,1,9,,,,,,,0,,,,,,
0,note_on,0,0,6,,,,,,,,,5,,,60,100
0,control_change,0,0,6,,,,,,,,,5,10,88,,
0,control_change,0,0,6,,,,,,,,,5,7,127,,
0,program_change,0,0,6,,,,,,,,48,5,,,,
0,track_name,0,1,6,,,,,,,,,,,,,
0,midi_port,0,1,6,,,,,,,0,,,,,,
0,control_change,0,0,5,,,,,,,,,4,10,45,,
0,midi_port,0,1,2,,,,,,,0,,,,,,
0,end_of_track,0,1,9,,,,,,,,,,,,,
0,note_on,0,0,1,,,,,,,,,0,,,72,100
0,copyright,0,1,0,,,,,,,,,,,,,
0,text,0,1,0,,,,,,,,,,,,,
0,time_signature,0,1,0,6,8,12,8,,,,,,,,,
0,key_signature,0,1,0,,,,,C,,,,,,,,
0,set_tempo,0,1,0,,,,,,240000,,,,,,,
0,end_of_track,0,1,0,,,,,,,,,,,,,
0,midi_port,0,1,1,,,,,,,0,,,,,,
0,control_change,0,0,1,,,,,,,,,0,10,68,,
0,control_change,0,0,1,,,,,,,,,0,7,115,,
0,program_change,0,0,1,,,,,,,,68,0,,,,
0,track_name,0,1,1,,,,,,,,,,,,,
120,note_on,0,0,3,,,,,,,,,2,,,64,100
120,note_on,120,0,8,,,,,,,,,7,,,48,0
120,note_on,0,0,8,,,,,,,,,7,,,52,100
120,note_on,0,0,4,,,,,,,,,3,,,64,0
120,note_on,0,0,4,,,,,,,,,3,,,55,0
120,note_on,120,0,6,,,,,,,,,5,,,60,0
120,note_on,0,0,8,,,,,,,,,7,,,40,100
120,note_on,0,0,8,,,,,,,,,7,,,36,0
120,note_on,0,0,6,,,,,,,,,5,,,64,100
120,note_on,120,0,4,,,,,,,,,3,,,72,0
120,note_on,0,0,2,,,,,,,,,1,,,76,100
120,note_on,120,0,3,,,,,,,,,2,,,60,0
120,note_on,0,0,1,,,,,,,,,0,,,76,100
120,note_on,0,0,4,,,,,,,,,3,,,76,100
120,note_on,120,0,5,,,,,,,,,4,,,60,0
120,note_on,120,0,2,,,,,,,,,1,,,72,0
120,note_on,0,0,2,,,,,,,,,1,,,60,0
120,note_on,0,0,7,,,,,,,,,6,,,52,100
120,note_on,0,0,7,,,,,,,,,6,,,40,100
120,note_on,0,0,2,,,,,,,,,1,,,64,100
120,note_on,0,0,7,,,,,,,,,6,,,36,0
120,note_on,120,0,1,,,,,,,,,0,,,72,0
120,note_on,120,0,7,,,,,,,,,6,,,48,0
120,note_on,0,0,5,,,,,,,,,4,,,64,100
180,note_on,0,0,6,,,,,,,,,5,,,67,100
180,note_on,0,0,2,,,,,,,,,1,,,79,100
180,note_on,0,0,2,,,,,,,,,1,,,67,100
180,note_on,0,0,2,,,,,,,,,1,,,64,0
180,note_on,60,0,2,,,,,,,,,1,,,76,0
180,note_on,60,0,6,,,,,,,,,5,,,64,0
180,note_on,0,0,7,,,,,,,,,6,,,55,100
180,note_on,0,0,5,,,,,,,,,4,,,67,100
180,note_on,0,0,4,,,,,,,,,3,,,79,100
180,note_on,60,0,4,,,,,,,,,3,,,76,0
180,note_on,0,0,8,,,,,,,,,7,,,55,100
180,note_on,0,0,7,,,,,,,,,6,,,43,100
180,note_on,60,0,5,,,,,,,,,4,,,64,0
180,note_on,60,0,7,,,,,,,,,6,,,52,0
180,note_on,60,0,1,,,,,,,,,0,,,76,0
180,note_on,0,0,7,,,,,,,,,6,,,40,0
180,note_on,0,0,8,,,,,,,,,7,,,40,0
180,note_on,60,0,8,,,,,,,,,7,,,52,0
180,note_on,0,0,3,,,,,,,,,2,,,67,100
180,note_on,60,0,3,,,,,,,,,2,,,64,0
180,note_on,0,0,8,,,,,,,,,7,,,43,100
180,note_on,0,0,1,,,,,,,,,0,,,79,100
300,note_on,0,0,6,,,,,,,,,5,,,64,100
300,note_on,120,0,8,,,,,,,,,7,,,55,0
300,note_on,0,0,8,,,,,,,,,7,,,43,0
300,note_on,0,0,8,,,,,,,,,7,,,40,100
300,note_on,0,0,8,,,,,,,,,7,,,52,100
300,note_on,120,0,6,,,,,,,,,5,,,67,0
300,note_on,120,0,2,,,,,,,,,1,,,79,0
300,note_on,0,0,1,,,,,,,,,0,,,76,100
300,note_on,0,0,7,,,,,,,,,6,,,52,100
300,note_on,0,0,7,,,,,,,,,6,,,40,100
300,note_on,0,0,7,,,,,,,,,6,,,43,0
300,note_on,120,0,7,,,,,,,,,6,,,55,0
300,note_on,120,0,1,,,,,,,,,0,,,79,0
300,note_on,0,0,3,,,,,,,,,2,,,64,100
300,note_on,120,0,3,,,,,,,,,2,,,67,0
300,note_on,120,0,4,,,,,,,,,3,,,79,0
300,note_on,0,0,5,,,,,,,,,4,,,64,100
300,note_on,120,0,5,,,,,,,,,4,,,67,0
300,note_on,0,0,2,,,,,,,,,1,,,64,100
300,note_on,0,0,2,,,,,,,,,1,,,76,100
300,note_on,0,0,2,,,,,,,,,1,,,67,0
300,note_on,0,0,4,,,,,,,,,3,,,76,100
360,note_on,60,0,5,,,,,,,,,4,,,64,0
360,note_on,0,0,7,,,,,,,,,6,,,48,100
360,note_on,0,0,7,,,,,,,,,6,,,36,100
360,note_on,0,0,7,,,,,,,,,6,,,40,0
360,note_on,0,0,8,,,,,,,,,7,,,48,100
360,note_on,60,0,7,,,,,,,,,6,,,52,0
360,note_on,60,0,8,,,,,,,,,7,,,52,0
360,note_on,0,0,5,,,,,,,,,4,,,60,100
360,note_on,60,0,3,,,,,,,,,2,,,64,0
360,note_on,0,0,8,,,,,,,,,7,,,36,100
360,note_on,0,0,3,,,,,,,,,2,,,60,100
360,note_on,0,0,8,,,,,,,,,7,,,40,0
360,note_on,0,0,4,,,,,,,,,3,,,72,100
360,note_on,0,0,2,,,,,,,,,1,,,72,100
360,note_on,0,0,2,,,,,,,,,1,,,76,0
360,note_on,60,0,2,,,,,,,,,1,,,64,0
360,note_on,0,0,6,,,,,,,,,5,,,60,100
360,note_on,0,0,2,,,,,,,,,1,,,60,100
360,note_on,60,0,6,,,,,,,,,5,,,64,0
360,note_on,60,0,4,,,,,,,,,3,,,76,0
360,note_on,60,0,1,,,,,,,,,0,,,76,0
360,note_on,0,0,1,,,,,,,,,0,,,72,100
480,note_on,0,0,4,,,,,,,,,3,,,76,100
480,note_on,120,0,3,,,,,,,,,2,,,60,0
480,note_on,120,0,6,,,,,,,,,5,,,60,0
480,note_on,0,0,6,,,,,,,,,5,,,64,100
480,note_on,0,0,1,,,,,,,,,0,,,76,100
480,note_on,120,0,4,,,,,,,,,3,,,72,0
480,note_on,0,0,3,,,,,,,,,2,,,64,100
480,note_on,120,0,1,,,,,,,,,0,,,72,0
480,note_on,0,0,2,,,,,,,,,1,,,64,100
480,note_on,0,0,8,,,,,,,,,7,,,40,100
480,note_on,0,0,7,,,,,,,,,6,,,52,100
480,note_on,0,0,7,,,,,,,,,6,,,40,100
480,note_on,0,0,8,,,,,,,,,7,,,36,0
480,note_on,120,0,7,,,,,,,,,6,,,48,0
480,note_on,0,0,5,,,,,,,,,4,,,64,100
480,note_on,0,0,7,,,,,,,,,6,,,36,0
480,note_on,120,0,5,,,,,,,,,4,,,60,0
480,note_on,0,0,2,,,,,,,,,1,,,76,100
480,note_on,0,0,2,,,,,,,,,1,,,72,0
480,note_on,120,0,2,,,,,,,,,1,,,60,0
480,note_on,0,0,8,,,,,,,,,7,,,52,100
480,note_on,120,0,8,,,,,,,,,7,,,48,0
540,note_on,60,0,4,,,,,,,,,3,,,76,0
540,note_on,60,0,5,,,,,,,,,4,,,64,0
540,note_on,0,0,5,,,,,,,,,4,,,67,100
540,note_on,0,0,2,,,,,,,,,1,,,79,100
540,note_on,0,0,2,,,,,,,,,1,,,67,100
540,note_on,0,0,2,,,,,,,,,1,,,76,0
540,note_on,0,0,4,,,,,,,,,3,,,79,100
540,note_on,0,0,1,,,,,,,,,0,,,79,100
540,note_on,60,0,2,,,,,,,,,1,,,64,0
540,note_on,0,0,7,,,,,,,,,6,,,55,100
540,note_on,0,0,7,,,,,,,,,6,,,43,100
540,note_on,0,0,7,,,,,,,,,6,,,40,0
540,note_on,60,0,7,,,,,,,,,6,,,52,0
540,note_on,0,0,8,,,,,,,,,7,,,55,100
540,note_on,0,0,8,,,,,,,,,7,,,40,0
540,note_on,60,0,8,,,,,,,,,7,,,52,0
540,note_on,0,0,8,,,,,,,,,7,,,43,100
540,note_on,0,0,3,,,,,,,,,2,,,67,100
540,note_on,60,0,3,,,,,,,,,2,,,64,0
540,note_on,0,0,6,,,,,,,,,5,,,67,100
540,note_on,60,0,6,,,,,,,,,5,,,64,0
540,note_on,60,0,1,,,,,,,,,0,,,76,0
660,note_on,120,0,3,,,,,,,,,2,,,67,0
660,note_on,0,0,2,,,,,,,,,1,,,76,100
660,note_on,0,0,4,,,,,,,,,3,,,76,100
660,note_on,0,0,2,,,,,,,,,1,,,64,100
660,note_on,0,0,2,,,,,,,,,1,,,67,0
660,note_on,120,0,7,,,,,,,,,6,,,55,0
660,note_on,0,0,7,,,,,,,,,6,,,43,0
660,note_on,0,0,3,,,,,,,,,2,,,64,100
660,note_on,120,0,2,,,,,,,,,1,,,79,0
660,note_on,0,0,7,,,,,,,,,6,,,40,100
660,note_on,0,0,1,,,,,,,,,0,,,76,100
660,note_on,0,0,8,,,,,,,,,7,,,40,100
660,note_on,0,0,5,,,,,,,,,4,,,64,100
660,note_on,120,0,5,,,,,,,,,4,,,67,0
660,note_on,120,0,4,,,,,,,,,3,,,79,0
660,note_on,0,0,8,,,,,,,,,7,,,52,100
660,note_on,120,0,8,,,,,,,,,7,,,55,0
660,note_on,0,0,6,,,,,,,,,5,,,64,100
660,note_on,0,0,8,,,,,,,,,7,,,43,0
660,note_on,120,0,1,,,,,,,,,0,,,79,0
660,note_on,120,0,6,,,,,,,,,5,,,67,0
660,note_on,0,0,7,,,,,,,,,6,,,52,100
720,note_on,0,0,2,,,,,,,,,1,,,60,100
720,note_on,0,0,7,,,,,,,,,6,,,48,100
720,note_on,0,0,1,,,,,,,,,0,,,72,100
720,note_on,0,0,4,,,,,,,,,3,,,72,100
720,note_on,0,0,6,,,,,,,,,5,,,60,100
720,note_on,60,0,8,,,,,,,,,7,,,52,0
720,note_on,0,0,8,,,,,,,,,7,,,40,0
720,note_on,60,0,4,,,,,,,,,3,,,76,0
720,note_on,0,0,2,,,,,,,,,1,,,72,100
720,note_on,60,0,3,,,,,,,,,2,,,64,0
720,note_on,0,0,7,,,,,,,,,6,,,40,0
720,note_on,0,0,3,,,,,,,,,2,,,60,100
720,note_on,0,0,8,,,,,,,,,7,,,48,100
720,note_on,60,0,6,,,,,,,,,5,,,64,0
720,note_on,0,0,2,,,,,,,,,1,,,64,0
720,note_on,60,0,2,,,,,,,,,1,,,76,0
720,note_on,60,0,1,,,,,,,,,0,,,76,0
720,note_on,60,0,5,,,,,,,,,4,,,64,0
720,note_on,0,0,5,,,,,,,,,4,,,60,100
720,note_on,60,0,7,,,,,,,,,6,,,52,0
720,note_on,0,0,7,,,,,,,,,6,,,36,100
720,note_on,0,0,8,,,,,,,,,7,,,36,100
840,note_on,0,0,5,,,,,,,,,4,,,60,40
840,note_on,0,0,8,,,,,,,,,7,,,36,0
840,note_on,0,0,7,,,,,,,,,6,,,36,0
840,note_on,120,0,7,,,,,,,,,6,,,48,0
840,note_on,120,0,8,,,,,,,,,7,,,48,0
840,note_on,0,0,4,,,,,,,,,3,,,76,40
840,note_on,120,0,6,,,,,,,,,5,,,60,0
840,note_on,120,0,1,,,,,,,,,0,,,72,0
840,note_on,120,0,4,,,,,,,,,3,,,72,0
840,note_on,0,0,2,,,,,,,,,1,,,72,0
840,note_on,120,0,2,,,,,,,,,1,,,60,0
840,note_on,120,0,3,,,,,,,,,2,,,60,0
840,note_on,120,0,5,,,,,,,,,4,,,60,0
900,note_on,60,0,5,,,,,,,,,4,,,60,0
900,note_on,0,0,5,,,,,,,,,4,,,60,42
900,note_on,60,0,4,,,,,,,,,3,,,76,0
900,note_on,0,0,4,,,,,,,,,3,,,76,43
930,note_on,30,0,5,,,,,,,,,4,,,60,0
930,note_on,30,0,4,,,,,,,,,3,,,76,0
960,note_on,30,0,4,,,,,,,,,3,,,77,44
960,note_on,30,0,5,,,,,,,,,4,,,62,42
990,note_on,30,0,4,,,,,,,,,3,,,77,0
990,note_on,30,0,5,,,,,,,,,4,,,62,0
1020,note_on,30,0,5,,,,,,,,,4,,,64,42
1020,note_on,30,0,4,,,,,,,,,3,,,79,45
1050,note_on,30,0,4,,,,,,,,,3,,,79,0
1050,note_on,30,0,5,,,,,,,,,4,,,64,0
1080,note_on,30,0,5,,,,,,,,,4,,,64,42
1080,note_on,30,0,4,,,,,,,,,3,,,79,47
1140,note_on,0,0,5,,,,,,,,,4,,,65,42
1140,note_on,0,0,4,,,,,,,,,3,,,81,48
1140,note_on,60,0,4,,,,,,,,,3,,,79,0
1140,note_on,60,0,5,,,,,,,,,4,,,64,0
1200,note_on,0,0,5,,,,,,,,,4,,,64,43
1200,note_on,0,0,4,,,,,,,,,3,,,79,48
1200,note_on,60,0,4,,,,,,,,,3,,,81,0
1200,note_on,60,0,5,,,,,,,,,4,,,65,0
1260,note_on,0,0,4,,,,,,,,,3,,,76,48
1260,note_on,60,0,4,,,,,,,,,3,,,79,0
1260,note_on,0,0,5,,,,,,,,,4,,,60,46
1260,note_on,60,0,5,,,,,,,,,4,,,64,0
1290,note_on,30,0,4,,,,,,,,,3,,,76,0
1290,note_on,30,0,5,,,,,,,,,4,,,60,0
1320,note_on,30,0,5,,,,,,,,,4,,,62,47
1320,note_on,30,0,4,,,,,,,,,3,,,77,48
1350,note_on,30,0,4,,,,,,,,,3,,,77,0
1350,note_on,30,0,5,,,,,,,,,4,,,62,0
1380,note_on,30,0,4,,,,,,,,,3,,,79,48
1380,note_on,30,0,5,,,,,,,,,4,,,64,47
1410,note_on,30,0,5,,,,,,,,,4,,,64,0
1410,note_on,30,0,4,,,,,,,,,3,,,79,0
1440,note_on,30,0,4,,,,,,,,,3,,,79,48
1440,note_on,30,0,5,,,,,,,,,4,,,64,48
1500,note_on,60,0,5,,,,,,,,,4,,,64,0
1500,note_on,0,0,5,,,,,,,,,4,,,65,49
1500,note_on,60,0,4,,,,,,,,,3,,,79,0
1500,note_on,0,0,4,,,,,,,,,3,,,81,48
1560,note_on,60,0,5,,,,,,,,,4,,,65,0
1560,note_on,0,0,4,,,,,,,,,3,,,79,47
1560,note_on,60,0,4,,,,,,,,,3,,,81,0
1560,note_on,0,0,5,,,,,,,,,4,,,64,49
1620,note_on,0,0,4,,,,,,,,,3,,,76,45
1620,note_on,60,0,4,,,,,,,,,3,,,79,0
1620,note_on,0,0,5,,,,,,,,,4,,,60,50
1620,note_on,60,0,5,,,,,,,,,4,,,64,0
1650,note_on,30,0,4,,,,,,,,,3,,,76,0
1650,note_on,30,0,5,,,,,,,,,4,,,60,0
1680,note_on,30,0,4,,,,,,,,,3,,,77,45
1680,note_on,30,0,5,,,,,,,,,4,,,62,50
1710,note_on,30,0,4,,,,,,,,,3,,,77,0
1710,note_on,30,0,5,,,,,,,,,4,,,62,0
1740,note_on,30,0,4,,,,,,,,,3,,,79,45
1740,note_on,30,0,5,,,,,,,,,4,,,64,51
1770,note_on,30,0,4,,,,,,,,,3,,,79,0
1770,note_on,30,0,5,,,,,,,,,4,,,64,0
1800,note_on,30,0,5,,,,,,,,,4,,,64,58
1800,note_on,30,0,4,,,,,,,,,3,,,79,45
1860,note_on,0,0,4,,,,,,,,,3,,,81,45
1860,note_on,0,0,5,,,,,,,,,4,,,65,59
1860,note_on,60,0,5,,,,,,,,,4,,,64,0
1860,note_on,60,0,4,,,,,,,,,3,,,79,0
1920,note_on,0,0,5,,,,,,,,,4,,,64,61
1920,note_on,60,0,5,,,,,,,,,4,,,65,0
1920,note_on,60,0,4,,,,,,,,,3,,,81,0
1920,note_on,0,0,4,,,,,,,,,3,,,79,51
1980,note_on,0,0,5,,,,,,,,,4,,,62,62
1980,note_on,60,0,4,,,,,,,,,3,,,79,0
1980,note_on,60,0,5,,,,,,,,,4,,,64,0
1980,note_on,0,0,4,,,,,,,,,3,,,77,57
2010,note_on,30,0,4,,,,,,,,,3,,,77,0
2010,note_on,30,0,5,,,,,,,,,4,,,62,0
2040,note_on,30,0,4,,,,,,,,,3,,,76,59
2040,note_on,30,0,5,,,,,,,,,4,,,60,62
2070,note_on,30,0,4,,,,,,,,,3,,,76,0
2070,note_on,30,0,5,,,,,,,,,4,,,60,0
2100,note_on,30,0,5,,,,,,,,,4,,,59,62
2100,note_on,30,0,4,,,,,,,,,3,,,74,65
2130,note_on,30,0,4,,,,,,,,,3,,,74,0
2130,note_on,30,0,5,,,,,,,,,4,,,59,0
2160,note_on,1320,0,6,,,,,,,,,5,,,60,100
2160,note_on,30,0,5,,,,,,,,,4,,,60,100
2160,note_on,1320,0,7,,,,,,,,,6,,,36,100
2160,note_on,30,0,4,,,,,,,,,3,,,55,100
2160,note_on,0,0,2,,,,,,,,,1,,,72,100
2160,note_on,1320,0,2,,,,,,,,,1,,,60,100
2160,note_on,0,0,4,,,,,,,,,3,,,72,100
2160,note_on,0,0,4,,,,,,,,,3,,,64,100
2160,note_on,0,0,7,,,,,,,,,6,,,48,100
2160,note_on,1320,0,1,,,,,,,,,0,,,72,100
2160,note_on,0,0,8,,,,,,,,,7,,,48,100
2160,note_on,1320,0,8,,,,,,,,,7,,,36,100
2160,note_on,1320,0,3,,,,,,,,,2,,,60,100
2280,note_on,0,0,8,,,,,,,,,7,,,52,100
2280,note_on,0,0,7,,,,,,,,,6,,,40,100
2280,note_on,0,0,4,,,,,,,,,3,,,76,100
2280,note_on,0,0,4,,,,,,,,,3,,,55,0
2280,note_on,0,0,4,,,,,,,,,3,,,64,0
2280,note_on,120,0,4,,,,,,,,,3,,,72,0
2280,note_on,120,0,7,,,,,,,,,6,,,48,0
2280,note_on,0,0,7,,,,,,,,,6,,,36,0
2280,note_on,0,0,1,,,,,,,,,0,,,76,100
2280,note_on,120,0,1,,,,,,,,,0,,,72,0
2280,note_on,120,0,3,,,,,,,,,2,,,60,0
2280,note_on,120,0,2,,,,,,,,,1,,,72,0
2280,note_on,0,0,2,,,,,,,,,1,,,60,0
2280,note_on,0,0,5,,,,,,,,,4,,,64,100
2280,note_on,120,0,5,,,,,,,,,4,,,60,0
2280,note_on,0,0,2,,,,,,,,,1,,,64,100
2280,note_on,0,0,2,,,,,,,,,1,,,76,100
2280,note_on,0,0,3,,,,,,,,,2,,,64,100
2280,note_on,120,0,8,,,,,,,,,7,,,48,0
2280,note_on,120,0,6,,,,,,,,,5,,,60,0
2280,note_on,0,0,6,,,,,,,,,5,,,64,100
2280,note_on,0,0,8,,,,,,,,,7,,,36,0
2280,note_on,0,0,8,,,,,,,,,7,,,40,100
2280,note_on,0,0,7,,,,,,,,,6,,,52,100
2340,note_on,60,0,2,,,,,,,,,1,,,76,0
2340,note_on,0,0,2,,,,,,,,,1,,,79,100
2340,note_on,0,0,2,,,,,,,,,1,,,64,0
2340,note_on,0,0,2,,,,,,,,,1,,,67,100
2340,note_on,60,0,7,,,,,,,,,6,,,52,0
2340,note_on,60,0,3,,,,,,,,,2,,,64,0
2340,note_on,0,0,7,,,,,,,,,6,,,43,100
2340,note_on,0,0,3,,,,,,,,,2,,,67,100
2340,note_on,0,0,1,,,,,,,,,0,,,79,100
2340,note_on,60,0,1,,,,,,,,,0,,,76,0
2340,note_on,0,0,6,,,,,,,,,5,,,67,100
2340,note_on,60,0,6,,,,,,,,,5,,,64,0
2340,note_on,0,0,8,,,,,,,,,7,,,40,0
2340,note_on,0,0,7,,,,,,,,,6,,,40,0
2340,note_on,0,0,8,,,,,,,,,7,,,43,100
2340,note_on,60,0,5,,,,,,,,,4,,,64,0
2340,note_on,0,0,5,,,,,,,,,4,,,67,100
2340,note_on,0,0,7,,,,,,,,,6,,,55,100
2340,note_on,60,0,4,,,,,,,,,3,,,76,0
2340,note_on,0,0,4,,,,,,,,,3,,,79,100
2340,note_on,0,0,8,,,,,,,,,7,,,55,100
2340,note_on,60,0,8,,,,,,,,,7,,,52,0
2460,note_on,120,0,5,,,,,,,,,4,,,67,0
2460,note_on,0,0,8,,,,,,,,,7,,,43,0
2460,note_on,0,0,6,,,,,,,,,5,,,64,100
2460,note_on,120,0,7,,,,,,,,,6,,,55,0
2460,note_on,0,0,7,,,,,,,,,6,,,43,0
2460,note_on,0,0,7,,,,,,,,,6,,,40,100
2460,note_on,0,0,7,,,,,,,,,6,,,52,100
2460,note_on,0,0,3,,,,,,,,,2,,,64,100
2460,note_on,120,0,3,,,,,,,,,2,,,67,0
2460,note_on,120,0,1,,,,,,,,,0,,,79,0
2460,note_on,0,0,1,,,,,,,,,0,,,76,100
2460,note_on,120,0,6,,,,,,,,,5,,,67,0
2460,note_on,120,0,8,,,,,,,,,7,,,55,0
2460,note_on,0,0,8,,,,,,,,,7,,,40,100
2460,note_on,0,0,8,,,,,,,,,7,,,52,100
2460,note_on,0,0,5,,,,,,,,,4,,,64,100
2460,note_on,0,0,2,,,,,,,,,1,,,67,0
2460,note_on,120,0,4,,,,,,,,,3,,,79,0
2460,note_on,0,0,4,,,,,,,,,3,,,76,100
2460,note_on,0,0,2,,,,,,,,,1,,,64,100
2460,note_on,120,0,2,,,,,,,,,1,,,79,0
2460,note_on,0,0,2,,,,,,,,,1,,,76,100
2520,note_on,0,0,5,,,,,,,,,4,,,60,100
2520,note_on,0,0,2,,,,,,,,,1,,,72,100
2520,note_on,0,0,2,,,,,,,,,1,,,60,100
2520,note_on,60,0,7,,,,,,,,,6,,,52,0
2520,note_on,0,0,7,,,,,,,,,6,,,40,0
2520,note_on,0,0,7,,,,,,,,,6,,,36,100
2520,note_on,0,0,7,,,,,,,,,6,,,48,100
2520,note_on,60,0,5,,,,,,,,,4,,,64,0
2520,note_on,0,0,3,,,,,,,,,2,,,60,100
2520,note_on,60,0,3,,,,,,,,,2,,,64,0
2520,note_on,0,0,8,,,,,,,,,7,,,36,100
2520,note_on,60,0,1,,,,,,,,,0,,,76,0
2520,note_on,0,0,1,,,,,,,,,0,,,72,100
2520,note_on,0,0,6,,,,,,,,,5,,,60,100
2520,note_on,60,0,6,,,,,,,,,5,,,64,0
2520,note_on,60,0,2,,,,,,,,,1,,,64,0
2520,note_on,0,0,4,,,,,,,,,3,,,72,100
2520,note_on,60,0,4,,,,,,,,,3,,,76,0
2520,note_on,60,0,8,,,,,,,,,7,,,52,0
2520,note_on,0,0,8,,,,,,,,,7,,,40,0
2520,note_on,0,0,8,,,,,,,,,7,,,48,100
2520,note_on,0,0,2,,,,,,,,,1,,,76,0
2640,note_on,120,0,4,,,,,,,,,3,,,72,0
2640,note_on,0,0,4,,,,,,,,,3,,,76,100
2640,note_on,0,0,2,,,,,,,,,1,,,76,100
2640,note_on,0,0,5,,,,,,,,,4,,,64,100
2640,note_on,0,0,7,,,,,,,,,6,,,40,100
2640,note_on,0,0,7,,,,,,,,,6,,,36,0
2640,note_on,120,0,7,,,,,,,,,6,,,48,0
2640,note_on,0,0,3,,,,,,,,,2,,,64,100
2640,note_on,120,0,3,,,,,,,,,2,,,60,0
2640,note_on,120,0,1,,,,,,,,,0,,,72,0
2640,note_on,0,0,1,,,,,,,,,0,,,76,100
2640,note_on,120,0,5,,,,,,,,,4,,,60,0
2640,note_on,0,0,7,,,,,,,,,6,,,52,100
2640,note_on,120,0,8,,,,,,,,,7,,,48,0
2640,note_on,0,0,8,,,,,,,,,7,,,36,0
2640,note_on,0,0,8,,,,,,,,,7,,,40,100
2640,note_on,0,0,2,,,,,,,,,1,,,64,100
2640,note_on,0,0,6,,,,,,,,,5,,,64,100
2640,note_on,120,0,6,,,,,,,,,5,,,60,0
2640,note_on,0,0,2,,,,,,,,,1,,,72,0
2640,note_on,120,0,2,,,,,,,,,1,,,60,0
2640,note_on,0,0,8,,,,,,,,,7,,,52,100
2700,note_on,0,0,4,,,,,,,,,3,,,79,100
2700,note_on,60,0,4,,,,,,,,,3,,,76,0
2700,note_on,0,0,7,,,,,,,,,6,,,43,100
2700,note_on,0,0,1,,,,,,,,,0,,,79,100
2700,note_on,0,0,7,,,,,,,,,6,,,55,100
2700,note_on,0,0,8,,,,,,,,,7,,,43,100
2700,note_on,0,0,8,,,,,,,,,7,,,40,0
2700,note_on,60,0,8,,,,,,,,,7,,,52,0
2700,note_on,0,0,2,,,,,,,,,1,,,79,100
2700,note_on,0,0,2,,,,,,,,,1,,,67,100
2700,note_on,0,0,2,,,,,,,,,1,,,76,0
2700,note_on,60,0,2,,,,,,,,,1,,,64,0
2700,note_on,0,0,8,,,,,,,,,7,,,55,100
2700,note_on,0,0,7,,,,,,,,,6,,,40,0
2700,note_on,60,0,1,,,,,,,,,0,,,76,0
2700,note_on,60,0,3,,,,,,,,,2,,,64,0
2700,note_on,60,0,7,,,,,,,,,6,,,52,0
2700,note_on,0,0,6,,,,,,,,,5,,,67,100
2700,note_on,60,0,6,,,,,,,,,5,,,64,0
2700,note_on,0,0,5,,,,,,,,,4,,,67,100
2700,note_on,60,0,5,,,,,,,,,4,,,64,0
2700,note_on,0,0,3,,,,,,,,,2,,,67,100
2820,note_on,120,0,2,,,,,,,,,1,,,79,0
2820,note_on,120,0,1,,,,,,,,,0,,,79,0
2820,note_on,0,0,2,,,,,,,,,1,,,76,100
2820,note_on,0,0,2,,,,,,,,,1,,,64,100
2820,note_on,0,0,5,,,,,,,,,4,,,64,100
2820,note_on,0,0,1,,,,,,,,,0,,,76,100
2820,note_on,120,0,8,,,,,,,,,7,,,55,0
2820,note_on,120,0,5,,,,,,,,,4,,,67,0
2820,note_on,0,0,2,,,,,,,,,1,,,67,0
2820,note_on,0,0,6,,,,,,,,,5,,,64,100
2820,note_on,120,0,4,,,,,,,,,3,,,79,0
2820,note_on,0,0,8,,,,,,,,,7,,,43,0
2820,note_on,120,0,7,,,,,,,,,6,,,55,0
2820,note_on,0,0,7,,,,,,,,,6,,,43,0
2820,note_on,0,0,7,,,,,,,,,6,,,40,100
2820,note_on,0,0,7,,,,,,,,,6,,,52,100
2820,note_on,0,0,4,,,,,,,,,3,,,76,100
2820,note_on,120,0,6,,,,,,,,,5,,,67,0
2820,note_on,0,0,8,,,,,,,,,7,,,40,100
2820,note_on,120,0,3,,,,,,,,,2,,,67,0
2820,note_on,0,0,3,,,,,,,,,2,,,64,100
2820,note_on,0,0,8,,,,,,,,,7,,,52,100
2880,note_on,60,0,8,,,,,,,,,7,,,52,0
2880,note_on,0,0,8,,,,,,,,,7,,,36,100
2880,note_on,0,0,8,,,,,,,,,7,,,48,100
2880,note_on,0,0,5,,,,,,,,,4,,,60,100
2880,note_on,60,0,5,,,,,,,,,4,,,64,0
2880,note_on,0,0,8,,,,,,,,,7,,,40,0
2880,note_on,0,0,1,,,,,,,,,0,,,72,100
2880,note_on,0,0,6,,,,,,,,,5,,,60,100
2880,note_on,0,0,3,,,,,,,,,2,,,60,100
2880,note_on,60,0,2,,,,,,,,,1,,,76,0
2880,note_on,0,0,2,,,,,,,,,1,,,64,0
2880,note_on,0,0,2,,,,,,,,,1,,,72,100
2880,note_on,0,0,2,,,,,,,,,1,,,60,100
2880,note_on,60,0,3,,,,,,,,,2,,,64,0
2880,note_on,60,0,4,,,,,,,,,3,,,76,0
2880,note_on,0,0,4,,,,,,,,,3,,,72,100
2880,note_on,0,0,7,,,,,,,,,6,,,48,100
2880,note_on,0,0,7,,,,,,,,,6,,,36,100
2880,note_on,0,0,7,,,,,,,,,6,,,40,0
2880,note_on,60,0,7,,,,,,,,,6,,,52,0
2880,note_on,60,0,6,,,,,,,,,5,,,64,0
2880,note_on,60,0,1,,,,,,,,,0,,,76,0
3000,note_on,120,0,1,,,,,,,,,0,,,72,0
3000,note_on,120,0,8,,,,,,,,,7,,,48,0
3000,note_on,120,0,5,,,,,,,,,4,,,60,0
3000,note_on,0,0,5,,,,,,,,,4,,,60,40
3000,note_on,120,0,4,,,,,,,,,3,,,72,0
3000,note_on,120,0,6,,,,,,,,,5,,,60,0
3000,note_on,120,0,3,,,,,,,,,2,,,60,0
3000,note_on,120,0,2,,,,,,,,,1,,,60,0
3000,note_on,0,0,2,,,,,,,,,1,,,72,0
3000,note_on,0,0,7,,,,,,,,,6,,,36,0
3000,note_on,120,0,7,,,,,,,,,6,,,48,0
3000,note_on,0,0,8,,,,,,,,,7,,,36,0
3000,note_on,0,0,4,,,,,,,,,3,,,76,40
3060,note_on,60,0,4,,,,,,,,,3,,,76,0
3060,note_on,0,0,4,,,,,,,,,3,,,76,43
3060,note_on,0,0,5,,,,,,,,,4,,,60,42
3060,note_on,60,0,5,,,,,,,,,4,,,60,0
3090,note_on,30,0,4,,,,,,,,,3,,,76,0
3090,note_on,30,0,5,,,,,,,,,4,,,60,0
3120,note_on,30,0,4,,,,,,,,,3,,,77,44
3120,note_on,30,0,5,,,,,,,,,4,,,62,42
3150,note_on,30,0,5,,,,,,,,,4,,,62,0
3150,note_on,30,0,4,,,,,,,,,3,,,77,0
3180,note_on,30,0,5,,,,,,,,,4,,,64,42
3180,note_on,30,0,4,,,,,,,,,3,,,79,45
3210,note_on,30,0,5,,,,,,,,,4,,,64,0
3210,note_on,30,0,4,,,,,,,,,3,,,79,0
3240,note_on,30,0,5,,,,,,,,,4,,,64,42
3240,note_on,30,0,4,,,,,,,,,3,,,79,47
3300,note_on,60,0,4,,,,,,,,,3,,,79,0
3300,note_on,0,0,5,,,,,,,,,4,,,65,42
3300,note_on,60,0,5,,,,,,,,,4,,,64,0
3300,note_on,0,0,4,,,,,,,,,3,,,81,48
3360,note_on,60,0,4,,,,,,,,,3,,,81,0
3360,note_on,0,0,4,,,,,,,,,3,,,79,48
3360,note_on,60,0,5,,,,,,,,,4,,,65,0
3360,note_on,0,0,5,,,,,,,,,4,,,64,43
3420,note_on,60,0,5,,,,,,,,,4,,,64,0
3420,note_on,0,0,5,,,,,,,,,4,,,60,46
3420,note_on,60,0,4,,,,,,,,,3,,,79,0
3420,note_on,0,0,4,,,,,,,,,3,,,76,48
3450,note_on,30,0,4,,,,,,,,,3,,,76,0
3450,note_on,30,0,5,,,,,,,,,4,,,60,0
3480,note_on,30,0,4,,,,,,,,,3,,,77,48
3480,note_on,30,0,5,,,,,,,,,4,,,62,47
3510,note_on,30,0,4,,,,,,,,,3,,,77,0
3510,note_on,30,0,5,,,,,,,,,4,,,62,0
3540,note_on,30,0,4,,,,,,,,,3,,,79,48
3540,note_on,30,0,5,,,,,,,,,4,,,64,47
3570,note_on,30,0,4,,,,,,,,,3,,,79,0
3570,note_on,30,0,5,,,,,,,,,4,,,64,0
3600,note_on,30,0,4,,,,,,,,,3,,,79,48
3600,note_on,30,0,5,,,,,,,,,4,,,64,48
3660,note_on,60,0,4,,,,,,,,,3,,,79,0
3660,note_on,60,0,5,,,,,,,,,4,,,64,0
3660,note_on,0,0,4,,,,,,,,,3,,,81,48
3660,note_on,0,0,5,,,,,,,,,4,,,65,49
3720,note_on,60,0,4,,,,,,,,,3,,,81,0
3720,note_on,0,0,5,,,,,,,,,4,,,64,49
3720,note_on,60,0,5,,,,,,,,,4,,,65,0
3720,note_on,0,0,4,,,,,,,,,3,,,79,47
3780,note_on,60,0,4,,,,,,,,,3,,,79,0
3780,note_on,0,0,4,,,,,,,,,3,,,76,45
3780,note_on,60,0,5,,,,,,,,,4,,,64,0
3780,note_on,0,0,5,,,,,,,,,4,,,60,50
3810,note_on,30,0,5,,,,,,,,,4,,,60,0
3810,note_on,30,0,4,,,,,,,,,3,,,76,0
3840,note_on,30,0,5,,,,,,,,,4,,,62,50
3840,note_on,30,0,4,,,,,,,,,3,,,77,45
3870,note_on,30,0,5,,,,,,,,,4,,,62,0
3870,note_on,30,0,4,,,,,,,,,3,,,77,0
3900,note_on,30,0,5,,,,,,,,,4,,,64,51
3900,note_on,30,0,4,,,,,,,,,3,,,79,45
3930,note_on,30,0,4,,,,,,,,,3,,,79,0
3930,note_on,30,0,5,,,,,,,,,4,,,64,0
3960,note_on,30,0,5,,,,,,,,,4,,,64,58
3960,note_on,30,0,4,,,,,,,,,3,,,79,45
4020,note_on,60,0,5,,,,,,,,,4,,,64,0
4020,note_on,0,0,5,,,,,,,,,4,,,65,59
4020,note_on,60,0,4,,,,,,,,,3,,,79,0
4020,note_on,0,0,4,,,,,,,,,3,,,81,45
4080,note_on,60,0,5,,,,,,,,,4,,,65,0
4080,note_on,60,0,4,,,,,,,,,3,,,81,0
4080,note_on,0,0,4,,,,,,,,,3,,,79,51
4080,note_on,0,0,5,,,,,,,,,4,,,64,61
4140,note_on,60,0,5,,,,,,,,,4,,,64,0
4140,note_on,0,0,4,,,,,,,,,3,,,77,57
4140,note_on,60,0,4,,,,,,,,,3,,,79,0
4140,note_on,0,0,5,,,,,,,,,4,,,62,62
4170,note_on,30,0,4,,,,,,,,,3,,,77,0
4170,note_on,30,0,5,,,,,,,,,4,,,62,0
4200,note_on,30,0,4,,,,,,,,,3,,,76,59
4200,note_on,30,0,5,,,,,,,,,4,,,60,62
4230,note_on,30,0,4,,,,,,,,,3,,,76,0
4230,note_on,30,0,5,,,,,,,,,4,,,60,0
4260,note_on,30,0,5,,,,,,,,,4,,,59,62
4260,note_on,30,0,4,,,,,,,,,3,,,74,65
4290,note_on,30,0,4,,,,,,,,,3,,,74,0
4290,note_on,30,0,5,,,,,,,,,4,,,59,0
4320,note_on,1320,0,6,,,,,,,,,5,,,60,100
4320,note_on,1320,0,7,,,,,,,,,6,,,36,100
4320,note_on,1320,0,8,,,,,,,,,7,,,36,100
4320,note_on,0,0,8,,,,,,,,,7,,,48,100
4320,note_on,30,0,4,,,,,,,,,3,,,72,100
4320,note_on,0,0,7,,,,,,,,,6,,,48,100
4320,note_on,30,0,5,,,,,,,,,4,,,60,100
4380,note_on,60,0,7,,,,,,,,,6,,,48,0
4380,note_on,60,0,8,,,,,,,,,7,,,48,0
4380,note_on,0,0,8,,,,,,,,,7,,,36,100
4380,note_on,0,0,7,,,,,,,,,6,,,36,100
4380,note_on,0,0,6,,,,,,,,,5,,,60,100
4380,note_on,60,0,6,,,,,,,,,5,,,60,0
4380,note_on,0,0,8,,,,,,,,,7,,,48,100
4380,note_on,0,0,7,,,,,,,,,6,,,48,100
4380,note_on,0,0,8,,,,,,,,,7,,,36,0
4380,note_on,0,0,7,,,,,,,,,6,,,36,0
4440,note_on,120,0,5,,,,,,,,,4,,,60,0
4440,note_on,0,0,8,,,,,,,,,7,,,38,100
4440,note_on,0,0,8,,,,,,,,,7,,,50,100
4440,note_on,0,0,7,,,,,,,,,6,,,50,100
4440,note_on,60,0,8,,,,,,,,,7,,,48,0
4440,note_on,60,0,6,,,,,,,,,5,,,60,0
4440,note_on,0,0,7,,,,,,,,,6,,,38,100
4440,note_on,0,0,7,,,,,,,,,6,,,36,0
4440,note_on,60,0,7,,,,,,,,,6,,,48,0
4440,note_on,120,0,4,,,,,,,,,3,,,72,0
4440,note_on,0,0,8,,,,,,,,,7,,,36,0
4440,note_on,0,0,6,,,,,,,,,5,,,62,100
4500,note_on,0,0,2,,,,,,,,,1,,,76,100
4500,note_on,0,0,1,,,,,,,,,0,,,84,100
4500,note_on,0,0,7,,,,,,,,,6,,,38,0
4500,note_on,1500,0,1,,,,,,,,,0,,,76,100
4500,note_on,0,0,3,,,,,,,,,2,,,72,100
4500,note_on,1500,0,3,,,,,,,,,2,,,64,100
4500,note_on,0,0,7,,,,,,,,,6,,,52,100
4500,note_on,1500,0,2,,,,,,,,,1,,,72,100
4500,note_on,0,0,7,,,,,,,,,6,,,40,100
4500,note_on,0,0,6,,,,,,,,,5,,,64,100
4500,note_on,60,0,7,,,,,,,,,6,,,50,0
4500,note_on,0,0,8,,,,,,,,,7,,,38,0
4500,note_on,0,0,8,,,,,,,,,7,,,40,100
4500,note_on,0,0,8,,,,,,,,,7,,,52,100
4500,note_on,60,0,4,,,,,,,,,3,,,84,100
4500,note_on,60,0,5,,,,,,,,,4,,,76,100
4500,note_on,60,0,8,,,,,,,,,7,,,50,0
4500,note_on,60,0,6,,,,,,,,,5,,,62,0
4560,note_on,0,0,7,,,,,,,,,6,,,50,100
4560,note_on,0,0,7,,,,,,,,,6,,,38,100
4560,note_on,0,0,8,,,,,,,,,7,,,50,100
4560,note_on,60,0,7,,,,,,,,,6,,,52,0
4560,note_on,0,0,8,,,,,,,,,7,,,40,0
4560,note_on,0,0,6,,,,,,,,,5,,,62,100
4560,note_on,0,0,8,,,,,,,,,7,,,38,100
4560,note_on,0,0,7,,,,,,,,,6,,,40,0
4560,note_on,60,0,8,,,,,,,,,7,,,52,0
4560,note_on,60,0,6,,,,,,,,,5,,,64,0
4620,note_on,60,0,6,,,,,,,,,5,,,62,0
4620,note_on,0,0,8,,,,,,,,,7,,,38,0
4620,note_on,0,0,8,,,,,,,,,7,,,36,100
4620,note_on,0,0,8,,,,,,,,,7,,,48,100
4620,note_on,0,0,6,,,,,,,,,5,,,60,100
4620,note_on,60,0,7,,,,,,,,,6,,,50,0
4620,note_on,0,0,7,,,,,,,,,6,,,38,0
4620,note_on,0,0,7,,,,,,,,,6,,,36,100
4620,note_on,0,0,7,,,,,,,,,6,,,48,100
4620,note_on,60,0,8,,,,,,,,,7,,,50,0
4680,note_on,0,0,8,,,,,,,,,7,,,43,100
4680,note_on,0,0,2,,,,,,,,,1,,,77,100
4680,note_on,0,0,2,,,,,,,,,1,,,72,0
4680,note_on,180,0,2,,,,,,,,,1,,,76,0
4680,note_on,0,0,8,,,,,,,,,7,,,36,0
4680,note_on,60,0,8,,,,,,,,,7,,,48,0
4680,note_on,0,0,7,,,,,,,,,6,,,55,100
4680,note_on,0,0,1,,,,,,,,,0,,,76,0
4680,note_on,0,0,1,,,,,,,,,0,,,74,101
4680,note_on,0,0,1,,,,,,,,,0,,,83,101
4680,note_on,0,0,8,,,,,,,,,7,,,55,100
4680,note_on,0,0,2,,,,,,,,,1,,,74,100
4680,note_on,0,0,7,,,,,,,,,6,,,43,100
4680,note_on,180,0,1,,,,,,,,,0,,,84,0
4680,note_on,60,0,7,,,,,,,,,6,,,48,0
4680,note_on,0,0,3,,,,,,,,,2,,,74,100
4680,note_on,0,0,3,,,,,,,,,2,,,67,100
4680,note_on,0,0,3,,,,,,,,,2,,,64,0
4680,note_on,180,0,3,,,,,,,,,2,,,72,0
4680,note_on,0,0,6,,,,,,,,,5,,,67,100
4680,note_on,60,0,6,,,,,,,,,5,,,60,0
4680,note_on,0,0,5,,,,,,,,,4,,,77,100
4680,note_on,180,0,5,,,,,,,,,4,,,76,0
4680,note_on,0,0,7,,,,,,,,,6,,,36,0
4680,note_on,180,0,4,,,,,,,,,3,,,84,0
4680,note_on,0,0,4,,,,,,,,,3,,,86,100
4740,note_on,60,0,4,,,,,,,,,3,,,86,0
4740,note_on,0,0,3,,,,,,,,,2,,,67,0
4740,note_on,60,0,3,,,,,,,,,2,,,74,0
4740,note_on,60,0,7,,,,,,,,,6,,,55,0
4740,note_on,0,0,7,,,,,,,,,6,,,43,0
4740,note_on,0,0,7,,,,,,,,,6,,,43,100
4740,note_on,0,0,6,,,,,,,,,5,,,67,100
4740,note_on,60,0,6,,,,,,,,,5,,,67,0
4740,note_on,0,0,7,,,,,,,,,6,,,55,100
4740,note_on,60,0,5,,,,,,,,,4,,,77,0
4740,note_on,60,0,8,,,,,,,,,7,,,55,0
4740,note_on,0,0,8,,,,,,,,,7,,,43,100
4740,note_on,0,0,8,,,,,,,,,7,,,55,100
4740,note_on,0,0,8,,,,,,,,,7,,,43,0
4740,note_on,60,0,1,,,,,,,,,0,,,83,0
4740,note_on,0,0,1,,,,,,,,,0,,,74,0
4740,note_on,0,0,2,,,,,,,,,1,,,77,0
4740,note_on,60,0,2,,,,,,,,,1,,,74,0
4800,note_on,0,0,8,,,,,,,,,7,,,43,0
4800,note_on,60,0,6,,,,,,,,,5,,,67,0
4800,note_on,60,0,8,,,,,,,,,7,,,55,0
4800,note_on,0,0,7,,,,,,,,,6,,,43,0
4800,note_on,60,0,7,,,,,,,,,6,,,55,0
4800,note_on,0,0,7,,,,,,,,,6,,,45,100
4800,note_on,0,0,8,,,,,,,,,7,,,57,100
4800,note_on,0,0,7,,,,,,,,,6,,,57,100
4800,note_on,0,0,6,,,,,,,,,5,,,69,100
4800,note_on,0,0,8,,,,,,,,,7,,,45,100
4860,note_on,0,0,8,,,,,,,,,7,,,45,0
4860,note_on,0,0,8,,,,,,,,,7,,,47,100
4860,note_on,0,0,8,,,,,,,,,7,,,59,100
4860,note_on,0,0,1,,,,,,,,,0,,,77,100
4860,note_on,60,0,8,,,,,,,,,7,,,57,0
4860,note_on,120,0,4,,,,,,,,,3,,,77,100
4860,note_on,120,0,1,,,,,,,,,0,,,71,100
4860,note_on,120,0,5,,,,,,,,,4,,,74,100
4860,note_on,60,0,6,,,,,,,,,5,,,69,0
4860,note_on,0,0,6,,,,,,,,,5,,,71,100
4860,note_on,0,0,7,,,,,,,,,6,,,59,100
4860,note_on,0,0,7,,,,,,,,,6,,,47,100
4860,note_on,0,0,7,,,,,,,,,6,,,45,0
4860,note_on,60,0,7,,,,,,,,,6,,,57,0
4860,note_on,0,0,2,,,,,,,,,1,,,74,100
4860,note_on,120,0,2,,,,,,,,,1,,,67,100
4860,note_on,120,0,3,,,,,,,,,2,,,67,100
4860,note_on,0,0,3,,,,,,,,,2,,,74,100
4920,note_on,0,0,8,,,,,,,,,7,,,47,0
4920,note_on,60,0,7,,,,,,,,,6,,,59,0
4920,note_on,0,0,6,,,,,,,,,5,,,69,100
4920,note_on,60,0,6,,,,,,,,,5,,,71,0
4920,note_on,0,0,8,,,,,,,,,7,,,45,100
4920,note_on,0,0,8,,,,,,,,,7,,,57,100
4920,note_on,60,0,8,,,,,,,,,7,,,59,0
4920,note_on,0,0,7,,,,,,,,,6,,,45,100
4920,note_on,0,0,7,,,,,,,,,6,,,47,0
4920,note_on,0,0,7,,,,,,,,,6,,,57,100
4980,note_on,0,0,8,,,,,,,,,7,,,43,100
4980,note_on,0,0,8,,,,,,,,,7,,,45,0
4980,note_on,60,0,8,,,,,,,,,7,,,57,0
4980,note_on,0,0,6,,,,,,,,,5,,,67,100
4980,note_on,0,0,7,,,,,,,,,6,,,55,100
4980,note_on,60,0,6,,,,,,,,,5,,,69,0
4980,note_on,0,0,7,,,,,,,,,6,,,43,100
4980,note_on,0,0,7,,,,,,,,,6,,,45,0
4980,note_on,60,0,7,,,,,,,,,6,,,57,0
4980,note_on,0,0,8,,,,,,,,,7,,,55,100
5040,note_on,0,0,6,,,,,,,,,5,,,72,100
5040,note_on,180,0,2,,,,,,,,,1,,,74,0
5040,note_on,0,0,2,,,,,,,,,1,,,67,0
5040,note_on,0,0,2,,,,,,,,,1,,,72,100
5040,note_on,0,0,2,,,,,,,,,1,,,76,100
5040,note_on,0,0,8,,,,,,,,,7,,,60,100
5040,note_on,0,0,8,,,,,,,,,7,,,48,100
5040,note_on,0,0,8,,,,,,,,,7,,,43,0
5040,note_on,180,0,3,,,,,,,,,2,,,74,0
5040,note_on,0,0,3,,,,,,,,,2,,,67,0
5040,note_on,180,0,4,,,,,,,,,3,,,77,0
5040,note_on,0,0,4,,,,,,,,,3,,,76,100
5040,note_on,180,0,5,,,,,,,,,4,,,74,0
5040,note_on,0,0,5,,,,,,,,,4,,,72,100
5040,note_on,60,0,7,,,,,,,,,6,,,55,0
5040,note_on,0,0,7,,,,,,,,,6,,,43,0
5040,note_on,0,0,7,,,,,,,,,6,,,48,100
5040,note_on,0,0,7,,,,,,,,,6,,,60,100
5040,note_on,0,0,3,,,,,,,,,2,,,76,100
5040,note_on,60,0,8,,,,,,,,,7,,,55,0
5040,note_on,0,0,3,,,,,,,,,2,,,72,100
5040,note_on,60,0,6,,,,,,,,,5,,,67,0
5040,note_on,0,0,1,,,,,,,,,0,,,76,100
5040,note_on,0,0,1,,,,,,,,,0,,,72,100
5040,note_on,0,0,1,,,,,,,,,0,,,71,0
5040,note_on,180,0,1,,,,,,,,,0,,,77,0
5100,note_on,60,0,3,,,,,,,,,2,,,76,0
5100,note_on,0,0,7,,,,,,,,,6,,,48,100
5100,note_on,0,0,7,,,,,,,,,6,,,36,100
5100,note_on,0,0,7,,,,,,,,,6,,,48,0
5100,note_on,60,0,7,,,,,,,,,6,,,60,0
5100,note_on,0,0,2,,,,,,,,,1,,,72,0
5100,note_on,60,0,2,,,,,,,,,1,,,76,0
5100,note_on,0,0,3,,,,,,,,,2,,,72,0
5100,note_on,0,0,1,,,,,,,,,0,,,72,0
5100,note_on,60,0,1,,,,,,,,,0,,,76,0
5100,note_on,60,0,4,,,,,,,,,3,,,76,0
5100,note_on,60,0,8,,,,,,,,,7,,,60,0
5100,note_on,60,0,5,,,,,,,,,4,,,72,0
5100,note_on,0,0,8,,,,,,,,,7,,,36,100
5100,note_on,0,0,8,,,,,,,,,7,,,48,100
5100,note_on,60,0,6,,,,,,,,,5,,,72,0
5100,note_on,0,0,6,,,,,,,,,5,,,60,100
5100,note_on,0,0,8,,,,,,,,,7,,,48,0
5160,note_on,0,0,7,,,,,,,,,6,,,50,100
5160,note_on,0,0,7,,,,,,,,,6,,,38,100
5160,note_on,0,0,7,,,,,,,,,6,,,36,0
5160,note_on,60,0,7,,,,,,,,,6,,,48,0
5160,note_on,60,0,6,,,,,,,,,5,,,60,0
5160,note_on,0,0,6,,,,,,,,,5,,,62,100
5160,note_on,0,0,8,,,,,,,,,7,,,50,100
5160,note_on,0,0,8,,,,,,,,,7,,,38,100
5160,note_on,0,0,8,,,,,,,,,7,,,36,0
5160,note_on,60,0,8,,,,,,,,,7,,,48,0
5220,note_on,0,0,8,,,,,,,,,7,,,38,0
5220,note_on,120,0,1,,,,,,,,,0,,,76,100
5220,note_on,60,0,8,,,,,,,,,7,,,50,0
5220,note_on,0,0,8,,,,,,,,,7,,,40,100
5220,note_on,0,0,8,,,,,,,,,7,,,52,100
5220,note_on,0,0,7,,,,,,,,,6,,,40,100
5220,note_on,0,0,7,,,,,,,,,6,,,38,0
5220,note_on,0,0,1,,,,,,,,,0,,,84,100
5220,note_on,0,0,7,,,,,,,,,6,,,52,100
5220,note_on,60,0,7,,,,,,,,,6,,,50,0
5220,note_on,0,0,6,,,,,,,,,5,,,64,100
5220,note_on,60,0,6,,,,,,,,,5,,,62,0
5220,note_on,0,0,3,,,,,,,,,2,,,72,100
5220,note_on,120,0,3,,,,,,,,,2,,,64,100
5220,note_on,120,0,5,,,,,,,,,4,,,76,100
5220,note_on,120,0,4,,,,,,,,,3,,,84,100
5220,note_on,0,0,2,,,,,,,,,1,,,72,100
5220,note_on,120,0,2,,,,,,,,,1,,,76,100
5280,note_on,0,0,7,,,,,,,,,6,,,40,0
5280,note_on,60,0,6,,,,,,,,,5,,,64,0
5280,note_on,60,0,7,,,,,,,,,6,,,52,0
5280,note_on,60,0,8,,,,,,,,,7,,,52,0
5280,note_on,0,0,8,,,,,,,,,7,,,40,0
5280,note_on,0,0,8,,,,,,,,,7,,,38,100
5280,note_on,0,0,8,,,,,,,,,7,,,50,100
5280,note_on,0,0,6,,,,,,,,,5,,,62,100
5280,note_on,0,0,7,,,,,,,,,6,,,50,100
5280,note_on,0,0,7,,,,,,,,,6,,,38,100
5340,note_on,0,0,8,,,,,,,,,7,,,38,0
5340,note_on,0,0,8,,,,,,,,,7,,,36,100
5340,note_on,0,0,8,,,,,,,,,7,,,48,100
5340,note_on,0,0,7,,,,,,,,,6,,,48,100
5340,note_on,0,0,7,,,,,,,,,6,,,36,100
5340,note_on,0,0,7,,,,,,,,,6,,,38,0
5340,note_on,60,0,7,,,,,,,,,6,,,50,0
5340,note_on,0,0,6,,,,,,,,,5,,,60,100
5340,note_on,60,0,6,,,,,,,,,5,,,62,0
5340,note_on,60,0,8,,,,,,,,,7,,,50,0
5400,note_on,60,0,8,,,,,,,,,7,,,48,0
5400,note_on,0,0,8,,,,,,,,,7,,,36,0
5400,note_on,0,0,3,,,,,,,,,2,,,74,100
5400,note_on,0,0,3,,,,,,,,,2,,,64,0
5400,note_on,0,0,3,,,,,,,,,2,,,67,100
5400,note_on,0,0,5,,,,,,,,,4,,,77,100
5400,note_on,180,0,5,,,,,,,,,4,,,76,0
5400,note_on,180,0,4,,,,,,,,,3,,,84,0
5400,note_on,0,0,4,,,,,,,,,3,,,86,100
5400,note_on,0,0,7,,,,,,,,,6,,,55,100
5400,note_on,0,0,7,,,,,,,,,6,,,36,0
5400,note_on,180,0,1,,,,,,,,,0,,,84,0
5400,note_on,0,0,1,,,,,,,,,0,,,76,0
5400,note_on,0,0,1,,,,,,,,,0,,,74,100
5400,note_on,0,0,1,,,,,,,,,0,,,83,100
5400,note_on,60,0,7,,,,,,,,,6,,,48,0
5400,note_on,0,0,8,,,,,,,,,7,,,43,100
5400,note_on,180,0,3,,,,,,,,,2,,,72,0
5400,note_on,0,0,8,,,,,,,,,7,,,55,100
5400,note_on,0,0,7,,,,,,,,,6,,,43,100
5400,note_on,60,0,6,,,,,,,,,5,,,60,0
5400,note_on,0,0,6,,,,,,,,,5,,,67,100
5400,note_on,0,0,2,,,,,,,,,1,,,77,100
5400,note_on,0,0,2,,,,,,,,,1,,,74,100
5400,note_on,0,0,2,,,,,,,,,1,,,76,0
5400,note_on,180,0,2,,,,,,,,,1,,,72,0
5460,note_on,60,0,4,,,,,,,,,3,,,86,0
5460,note_on,60,0,5,,,,,,,,,4,,,77,0
5460,note_on,0,0,8,,,,,,,,,7,,,55,100
5460,note_on,0,0,8,,,,,,,,,7,,,43,100
5460,note_on,0,0,8,,,,,,,,,7,,,43,0
5460,note_on,60,0,8,,,,,,,,,7,,,55,0
5460,note_on,60,0,1,,,,,,,,,0,,,83,0
5460,note_on,0,0,1,,,,,,,,,0,,,74,0
5460,note_on,60,0,2,,,,,,,,,1,,,77,0
5460,note_on,0,0,2,,,,,,,,,1,,,74,0
5460,note_on,60,0,6,,,,,,,,,5,,,67,0
5460,note_on,60,0,7,,,,,,,,,6,,,55,0
5460,note_on,0,0,7,,,,,,,,,6,,,43,0
5460,note_on,0,0,7,,,,,,,,,6,,,43,100
5460,note_on,0,0,7,,,,,,,,,6,,,55,100
5460,note_on,0,0,6,,,,,,,,,5,,,67,100
5460,note_on,60,0,3,,,,,,,,,2,,,74,0
5460,note_on,0,0,3,,,,,,,,,2,,,67,0
5520,note_on,0,0,7,,,,,,,,,6,,,57,100
5520,note_on,0,0,8,,,,,,,,,7,,,45,100
5520,note_on,0,0,8,,,,,,,,,7,,,57,100
5520,note_on,0,0,7,,,,,,,,,6,,,45,100
5520,note_on,0,0,8,,,,,,,,,7,,,43,0
5520,note_on,60,0,8,,,,,,,,,7,,,55,0
5520,note_on,60,0,6,,,,,,,,,5,,,67,0
5520,note_on,0,0,6,,,,,,,,,5,,,69,100
5520,note_on,60,0,7,,,,,,,,,6,,,55,0
5520,note_on,0,0,7,,,,,,,,,6,,,43,0
5580,note_on,60,0,8,,,,,,,,,7,,,57,0
5580,note_on,0,0,8,,,,,,,,,7,,,45,0
5580,note_on,0,0,7,,,,,,,,,6,,,59,100
5580,note_on,60,0,7,,,,,,,,,6,,,57,0
5580,note_on,120,0,4,,,,,,,,,3,,,77,100
5580,note_on,120,0,1,,,,,,,,,0,,,71,100
5580,note_on,0,0,1,,,,,,,,,0,,,77,100
5580,note_on,0,0,2,,,,,,,,,1,,,74,100
5580,note_on,120,0,2,,,,,,,,,1,,,67,100
5580,note_on,0,0,8,,,,,,,,,7,,,47,100
5580,note_on,0,0,7,,,,,,,,,6,,,47,100
5580,note_on,0,0,8,,,,,,,,,7,,,59,100
5580,note_on,0,0,7,,,,,,,,,6,,,45,0
5580,note_on,0,0,6,,,,,,,,,5,,,71,100
5580,note_on,120,0,3,,,,,,,,,2,,,74,100
5580,note_on,0,0,3,,,,,,,,,2,,,67,100
5580,note_on,60,0,6,,,,,,,,,5,,,69,0
5580,note_on,120,0,5,,,,,,,,,4,,,74,100
5640,note_on,0,0,7,,,,,,,,,6,,,45,100
5640,note_on,0,0,7,,,,,,,,,6,,,57,100
5640,note_on,60,0,8,,,,,,,,,7,,,59,0
5640,note_on,0,0,7,,,,,,,,,6,,,47,0
5640,note_on,60,0,7,,,,,,,,,6,,,59,0
5640,note_on,0,0,8,,,,,,,,,7,,,45,100
5640,note_on,0,0,8,,,,,,,,,7,,,47,0
5640,note_on,0,0,6,,,,,,,,,5,,,69,100
5640,note_on,60,0,6,,,,,,,,,5,,,71,0
5640,note_on,0,0,8,,,,,,,,,7,,,57,100
5700,note_on,60,0,8,,,,,,,,,7,,,57,0
5700,note_on,0,0,8,,,,,,,,,7,,,45,0
5700,note_on,0,0,8,,,,,,,,,7,,,43,100
5700,note_on,0,0,8,,,,,,,,,7,,,55,100
5700,note_on,0,0,7,,,,,,,,,6,,,45,0
5700,note_on,0,0,7,,,,,,,,,6,,,43,100
5700,note_on,0,0,7,,,,,,,,,6,,,55,100
5700,note_on,0,0,6,,,,,,,,,5,,,67,100
5700,note_on,60,0,6,,,,,,,,,5,,,69,0
5700,note_on,60,0,7,,,,,,,,,6,,,57,0
5760,note_on,0,0,2,,,,,,,,,1,,,76,100
5760,note_on,180,0,4,,,,,,,,,3,,,77,0
5760,note_on,0,0,6,,,,,,,,,5,,,72,100
5760,note_on,0,0,2,,,,,,,,,1,,,72,100
5760,note_on,60,0,7,,,,,,,,,6,,,55,0
5760,note_on,0,0,7,,,,,,,,,6,,,43,0
5760,note_on,0,0,7,,,,,,,,,6,,,48,100
5760,note_on,0,0,7,,,,,,,,,6,,,60,100
5760,note_on,0,0,1,,,,,,,,,0,,,76,100
5760,note_on,0,0,1,,,,,,,,,0,,,72,100
5760,note_on,0,0,1,,,,,,,,,0,,,71,0
5760,note_on,0,0,4,,,,,,,,,3,,,76,100
5760,note_on,0,0,2,,,,,,,,,1,,,67,0
5760,note_on,60,0,6,,,,,,,,,5,,,67,0
5760,note_on,180,0,1,,,,,,,,,0,,,77,0
5760,note_on,0,0,8,,,,,,,,,7,,,60,100
5760,note_on,0,0,8,,,,,,,,,7,,,48,100
5760,note_on,0,0,8,,,,,,,,,7,,,43,0
5760,note_on,60,0,8,,,,,,,,,7,,,55,0
5760,note_on,0,0,3,,,,,,,,,2,,,76,100
5760,note_on,180,0,2,,,,,,,,,1,,,74,0
5760,note_on,180,0,5,,,,,,,,,4,,,74,0
5760,note_on,0,0,5,,,,,,,,,4,,,72,100
5760,note_on,0,0,3,,,,,,,,,2,,,72,100
5760,note_on,0,0,3,,,,,,,,,2,,,74,0
5760,note_on,180,0,3,,,,,,,,,2,,,67,0
5820,note_on,0,0,7,,,,,,,,,6,,,48,100
5820,note_on,0,0,8,,,,,,,,,7,,,48,100
5820,note_on,60,0,7,,,,,,,,,6,,,60,0
5820,note_on,0,0,8,,,,,,,,,7,,,60,100
5820,note_on,0,0,7,,,,,,,,,6,,,60,100
5820,note_on,0,0,7,,,,,,,,,6,,,48,0
5820,note_on,0,0,8,,,,,,,,,7,,,48,0
5820,note_on,60,0,5,,,,,,,,,4,,,72,0
5820,note_on,0,0,5,,,,,,,,,4,,,76,100
5820,note_on,0,0,6,,,,,,,,,5,,,72,100
5820,note_on,60,0,8,,,,,,,,,7,,,60,0
5820,note_on,60,0,6,,,,,,,,,5,,,72,0
5880,note_on,0,0,2,,,,,,,,,1,,,79,100
5880,note_on,0,0,3,,,,,,,,,2,,,72,0
5880,note_on,120,0,3,,,,,,,,,2,,,76,0
5880,note_on,0,0,2,,,,,,,,,1,,,67,100
5880,note_on,0,0,2,,,,,,,,,1,,,72,0
5880,note_on,0,0,6,,,,,,,,,5,,,74,100
5880,note_on,60,0,6,,,,,,,,,5,,,72,0
5880,note_on,120,0,2,,,,,,,,,1,,,76,0
5880,note_on,0,0,1,,,,,,,,,0,,,79,100
5880,note_on,0,0,1,,,,,,,,,0,,,72,0
5880,note_on,120,0,1,,,,,,,,,0,,,76,0
5880,note_on,0,0,7,,,,,,,,,6,,,50,100
5880,note_on,0,0,8,,,,,,,,,7,,,48,0
5880,note_on,0,0,5,,,,,,,,,4,,,78,100
5880,note_on,60,0,5,,,,,,,,,4,,,76,0
5880,note_on,60,0,8,,,,,,,,,7,,,60,0
5880,note_on,0,0,4,,,,,,,,,3,,,79,100
5880,note_on,0,0,8,,,,,,,,,7,,,50,100
5880,note_on,0,0,8,,,,,,,,,7,,,62,100
5880,note_on,0,0,7,,,,,,,,,6,,,62,100
5880,note_on,120,0,4,,,,,,,,,3,,,76,0
5880,note_on,0,0,7,,,,,,,,,6,,,48,0
5880,note_on,60,0,7,,,,,,,,,6,,,60,0
5940,note_on,60,0,7,,,,,,,,,6,,,62,0
5940,note_on,60,0,4,,,,,,,,,3,,,79,0
5940,note_on,60,0,2,,,,,,,,,1,,,79,0
5940,note_on,0,0,2,,,,,,,,,1,,,67,0
5940,note_on,0,0,5,,,,,,,,,4,,,79,100
5940,note_on,0,0,2,,,,,,,,,1,,,79,100
5940,note_on,0,0,4,,,,,,,,,3,,,79,100
5940,note_on,60,0,5,,,,,,,,,4,,,78,0
5940,note_on,0,0,8,,,,,,,,,7,,,64,100
5940,note_on,60,0,8,,,,,,,,,7,,,62,0
5940,note_on,60,0,6,,,,,,,,,5,,,74,0
5940,note_on,0,0,8,,,,,,,,,7,,,52,100
5940,note_on,0,0,8,,,,,,,,,7,,,50,0
5940,note_on,0,0,7,,,,,,,,,6,,,64,100
5940,note_on,0,0,7,,,,,,,,,6,,,52,100
5940,note_on,0,0,7,,,,,,,,,6,,,50,0
5940,note_on,0,0,1,,,,,,,,,0,,,79,100
5940,note_on,60,0,1,,,,,,,,,0,,,79,0
5940,note_on,0,0,6,,,,,,,,,5,,,76,100
5940,note_on,0,0,2,,,,,,,,,1,,,67,100
6000,note_on,60,0,6,,,,,,,,,5,,,76,0
6000,note_on,0,0,8,,,,,,,,,7,,,62,100
6000,note_on,0,0,6,,,,,,,,,5,,,74,100
6000,note_on,60,0,8,,,,,,,,,7,,,64,0
6000,note_on,0,0,1,,,,,,,,,0,,,79,100
6000,note_on,0,0,8,,,,,,,,,7,,,52,0
6000,note_on,0,0,5,,,,,,,,,4,,,78,100
6000,note_on,0,0,2,,,,,,,,,1,,,67,0
6000,note_on,0,0,2,,,,,,,,,1,,,67,100
6000,note_on,0,0,2,,,,,,,,,1,,,79,100
6000,note_on,0,0,8,,,,,,,,,7,,,50,100
6000,note_on,60,0,1,,,,,,,,,0,,,79,0
6000,note_on,60,0,7,,,,,,,,,6,,,64,0
6000,note_on,0,0,7,,,,,,,,,6,,,52,0
6000,note_on,60,0,5,,,,,,,,,4,,,79,0
6000,note_on,0,0,7,,,,,,,,,6,,,62,100
6000,note_on,0,0,7,,,,,,,,,6,,,50,100
6000,note_on,0,0,4,,,,,,,,,3,,,79,100
6000,note_on,60,0,4,,,,,,,,,3,,,79,0
6000,note_on,60,0,2,,,,,,,,,1,,,79,0
6060,note_on,0,0,7,,,,,,,,,6,,,50,0
6060,note_on,0,0,7,,,,,,,,,6,,,48,100
6060,note_on,60,0,6,,,,,,,,,5,,,74,0
6060,note_on,0,0,6,,,,,,,,,5,,,72,100
6060,note_on,0,0,4,,,,,,,,,3,,,79,100
6060,note_on,0,0,1,,,,,,,,,0,,,79,100
6060,note_on,60,0,4,,,,,,,,,3,,,79,0
6060,note_on,60,0,1,,,,,,,,,0,,,79,0
6060,note_on,0,0,5,,,,,,,,,4,,,76,100
6060,note_on,60,0,7,,,,,,,,,6,,,62,0
6060,note_on,60,0,5,,,,,,,,,4,,,78,0
6060,note_on,0,0,7,,,,,,,,,6,,,60,100
6060,note_on,0,0,2,,,,,,,,,1,,,79,100
6060,note_on,60,0,8,,,,,,,,,7,,,62,0
6060,note_on,0,0,2,,,,,,,,,1,,,67,0
6060,note_on,60,0,2,,,,,,,,,1,,,79,0
6060,note_on,0,0,8,,,,,,,,,7,,,50,0
6060,note_on,0,0,8,,,,,,,,,7,,,48,100
6060,note_on,0,0,8,,,,,,,,,7,,,60,100
6060,note_on,0,0,2,,,,,,,,,1,,,67,100
6120,note_on,0,0,2,,,,,,,,,1,,,67,0
6120,note_on,0,0,2,,,,,,,,,1,,,67,100
6120,note_on,0,0,2,,,,,,,,,1,,,79,100
6120,note_on,60,0,5,,,,,,,,,4,,,76,0
6120,note_on,60,0,7,,,,,,,,,6,,,60,0
6120,note_on,0,0,7,,,,,,,,,6,,,48,0
6120,note_on,0,0,7,,,,,,,,,6,,,47,100
6120,note_on,0,0,7,,,,,,,,,6,,,59,100
6120,note_on,0,0,8,,,,,,,,,7,,,48,0
6120,note_on,0,0,8,,,,,,,,,7,,,47,100
6120,note_on,0,0,8,,,,,,,,,7,,,59,100
6120,note_on,0,0,5,,,,,,,,,4,,,74,100
6120,note_on,60,0,8,,,,,,,,,7,,,60,0
6120,note_on,60,0,2,,,,,,,,,1,,,79,0
6120,note_on,0,0,3,,,,,,,,,2,,,74,100
6120,note_on,0,0,4,,,,,,,,,3,,,79,100
6120,note_on,0,0,1,,,,,,,,,0,,,79,100
6120,note_on,60,0,4,,,,,,,,,3,,,79,0
6120,note_on,240,0,3,,,,,,,,,2,,,67,100
6120,note_on,0,0,6,,,,,,,,,5,,,71,100
6120,note_on,60,0,1,,,,,,,,,0,,,79,0
6120,note_on,60,0,6,,,,,,,,,5,,,72,0
6135,note_on,0,0,4,,,,,,,,,3,,,81,100
6135,note_on,15,0,4,,,,,,,,,3,,,79,0
6135,note_on,15,0,1,,,,,,,,,0,,,79,0
6135,note_on,0,0,1,,,,,,,,,0,,,81,100
6150,note_on,0,0,1,,,,,,,,,0,,,83,100
6150,note_on,15,0,1,,,,,,,,,0,,,81,0
6150,note_on,0,0,4,,,,,,,,,3,,,83,100
6150,note_on,15,0,4,,,,,,,,,3,,,81,0
6180,note_on,60,0,8,,,,,,,,,7,,,59,0
6180,note_on,0,0,8,,,,,,,,,7,,,47,0
6180,note_on,30,0,4,,,,,,,,,3,,,83,0
6180,note_on,30,0,1,,,,,,,,,0,,,83,0
6180,note_on,0,0,8,,,,,,,,,7,,,45,100
6180,note_on,0,0,8,,,,,,,,,7,,,57,100
6180,note_on,0,0,5,,,,,,,,,4,,,72,100
6180,note_on,60,0,6,,,,,,,,,5,,,71,0
6180,note_on,0,0,6,,,,,,,,,5,,,69,100
6180,note_on,60,0,5,,,,,,,,,4,,,74,0
6180,note_on,60,0,7,,,,,,,,,6,,,59,0
6180,note_on,0,0,7,,,,,,,,,6,,,47,0
6180,note_on,0,0,7,,,,,,,,,6,,,45,100
6180,note_on,0,0,7,,,,,,,,,6,,,57,100
6240,note_on,60,0,5,,,,,,,,,4,,,72,0
6240,note_on,120,0,2,,,,,,,,,1,,,79,0
6240,note_on,60,0,6,,,,,,,,,5,,,69,0
6240,note_on,0,0,6,,,,,,,,,5,,,67,100
6240,note_on,0,0,7,,,,,,,,,6,,,55,100
6240,note_on,0,0,7,,,,,,,,,6,,,45,0
6240,note_on,60,0,7,,,,,,,,,6,,,57,0
6240,note_on,60,0,8,,,,,,,,,7,,,57,0
6240,note_on,0,0,8,,,,,,,,,7,,,45,0
6240,note_on,0,0,8,,,,,,,,,7,,,43,100
6240,note_on,0,0,8,,,,,,,,,7,,,55,100
6240,note_on,120,0,3,,,,,,,,,2,,,74,0
6240,note_on,0,0,5,,,,,,,,,4,,,71,100
6240,note_on,0,0,3,,,,,,,,,2,,,67,0
6240,note_on,0,0,7,,,,,,,,,6,,,43,100
6240,note_on,0,0,2,,,,,,,,,1,,,67,0
6300,note_on,0,0,6,,,,,,,,,5,,,66,100
6300,note_on,0,0,5,,,,,,,,,4,,,69,100
6300,note_on,60,0,6,,,,,,,,,5,,,67,0
6300,note_on,60,0,5,,,,,,,,,4,,,71,0
6300,note_on,120,0,4,,,,,,,,,3,,,81,100
6300,note_on,60,0,3,,,,,,,,,2,,,74,100
6300,note_on,60,0,7,,,,,,,,,6,,,55,0
6300,note_on,120,0,1,,,,,,,,,0,,,81,100
6300,note_on,0,0,7,,,,,,,,,6,,,43,0
6300,note_on,0,0,7,,,,,,,,,6,,,42,100
6300,note_on,0,0,7,,,,,,,,,6,,,54,100
6300,note_on,0,0,8,,,,,,,,,7,,,42,100
6300,note_on,0,0,8,,,,,,,,,7,,,43,0
6300,note_on,60,0,8,,,,,,,,,7,,,55,0
6300,note_on,0,0,8,,,,,,,,,7,,,54,100
6300,note_on,60,0,2,,,,,,,,,1,,,74,100
6315,note_on,15,0,4,,,,,,,,,3,,,81,0
6315,note_on,15,0,1,,,,,,,,,0,,,81,0
6315,note_on,0,0,1,,,,,,,,,0,,,83,100
6315,note_on,0,0,4,,,,,,,,,3,,,83,100
6330,note_on,15,0,4,,,,,,,,,3,,,83,0
6330,note_on,0,0,4,,,,,,,,,3,,,84,100
6330,note_on,0,0,1,,,,,,,,,0,,,84,100
6330,note_on,15,0,1,,,,,,,,,0,,,83,0
6360,note_on,0,0,8,,,,,,,,,7,,,42,0
6360,note_on,0,0,5,,,,,,,,,4,,,67,100
6360,note_on,60,0,6,,,,,,,,,5,,,66,0
6360,note_on,0,0,6,,,,,,,,,5,,,64,100
6360,note_on,60,0,5,,,,,,,,,4,,,69,0
6360,note_on,0,0,8,,,,,,,,,7,,,52,100
6360,note_on,0,0,8,,,,,,,,,7,,,40,100
6360,note_on,60,0,8,,,,,,,,,7,,,54,0
6360,note_on,30,0,1,,,,,,,,,0,,,84,0
6360,note_on,60,0,7,,,,,,,,,6,,,54,0
6360,note_on,0,0,7,,,,,,,,,6,,,52,100
6360,note_on,0,0,7,,,,,,,,,6,,,40,100
6360,note_on,0,0,7,,,,,,,,,6,,,42,0
6360,note_on,30,0,4,,,,,,,,,3,,,84,0
6420,note_on,0,0,5,,,,,,,,,4,,,66,100
6420,note_on,0,0,7,,,,,,,,,6,,,50,100
6420,note_on,0,0,7,,,,,,,,,6,,,38,100
6420,note_on,0,0,7,,,,,,,,,6,,,40,0
6420,note_on,60,0,7,,,,,,,,,6,,,52,0
6420,note_on,60,0,5,,,,,,,,,4,,,67,0
6420,note_on,120,0,3,,,,,,,,,2,,,74,0
6420,note_on,60,0,8,,,,,,,,,7,,,52,0
6420,note_on,60,0,6,,,,,,,,,5,,,64,0
6420,note_on,0,0,8,,,,,,,,,7,,,40,0
6420,note_on,0,0,8,,,,,,,,,7,,,38,100
6420,note_on,0,0,8,,,,,,,,,7,,,50,100
6420,note_on,120,0,2,,,,,,,,,1,,,74,0
6420,note_on,0,0,6,,,,,,,,,5,,,62,100
6480,note_on,60,0,5,,,,,,,,,4,,,66,0
6480,note_on,0,0,7,,,,,,,,,6,,,43,100
6480,note_on,60,0,6,,,,,,,,,5,,,62,0
6480,note_on,0,0,7,,,,,,,,,6,,,38,0
6480,note_on,60,0,2,,,,,,,,,1,,,67,100
6480,note_on,0,0,8,,,,,,,,,7,,,38,0
6480,note_on,60,0,8,,,,,,,,,7,,,50,0
6480,note_on,0,0,5,,,,,,,,,4,,,67,100
6480,note_on,0,0,2,,,,,,,,,1,,,74,100
6480,note_on,60,0,7,,,,,,,,,6,,,50,0
6480,note_on,0,0,6,,,,,,,,,5,,,55,100
6480,note_on,0,0,7,,,,,,,,,6,,,31,100
6480,note_on,60,0,3,,,,,,,,,2,,,74,100
6480,note_on,120,0,4,,,,,,,,,3,,,83,100
6480,note_on,0,0,8,,,,,,,,,7,,,31,100
6480,note_on,0,0,8,,,,,,,,,7,,,43,100
6480,note_on,120,0,1,,,,,,,,,0,,,83,100
6495,note_on,0,0,4,,,,,,,,,3,,,84,100
6495,note_on,15,0,4,,,,,,,,,3,,,83,0
6495,note_on,0,0,1,,,,,,,,,0,,,84,100
6495,note_on,15,0,1,,,,,,,,,0,,,83,0
6510,note_on,15,0,4,,,,,,,,,3,,,84,0
6510,note_on,0,0,4,,,,,,,,,3,,,86,100
6510,note_on,15,0,1,,,,,,,,,0,,,84,0
6510,note_on,0,0,1,,,,,,,,,0,,,86,100
6540,note_on,0,0,8,,,,,,,,,7,,,31,0
6540,note_on,30,0,1,,,,,,,,,0,,,86,0
6540,note_on,0,0,8,,,,,,,,,7,,,55,100
6540,note_on,0,0,6,,,,,,,,,5,,,67,100
6540,note_on,60,0,8,,,,,,,,,7,,,43,0
6540,note_on,0,0,8,,,,,,,,,7,,,43,100
6540,note_on,60,0,7,,,,,,,,,6,,,43,0
6540,note_on,0,0,7,,,,,,,,,6,,,31,0
6540,note_on,0,0,7,,,,,,,,,6,,,43,100
6540,note_on,0,0,7,,,,,,,,,6,,,55,100
6540,note_on,30,0,4,,,,,,,,,3,,,86,0
6540,note_on,60,0,5,,,,,,,,,4,,,67,0
6540,note_on,0,0,5,,,,,,,,,4,,,71,100
6540,note_on,60,0,6,,,,,,,,,5,,,55,0
6600,note_on,120,0,3,,,,,,,,,2,,,74,0
6600,note_on,0,0,8,,,,,,,,,7,,,59,100
6600,note_on,0,0,2,,,,,,,,,1,,,79,100
6600,note_on,0,0,8,,,,,,,,,7,,,47,100
6600,note_on,0,0,8,,,,,,,,,7,,,43,0
6600,note_on,0,0,5,,,,,,,,,4,,,74,100
6600,note_on,60,0,1,,,,,,,,,0,,,79,100
6600,note_on,0,0,2,,,,,,,,,1,,,67,0
6600,note_on,120,0,2,,,,,,,,,1,,,74,0
6600,note_on,60,0,8,,,,,,,,,7,,,55,0
6600,note_on,0,0,6,,,,,,,,,5,,,71,100
6600,note_on,60,0,6,,,,,,,,,5,,,67,0
6600,note_on,60,0,5,,,,,,,,,4,,,71,0
6600,note_on,60,0,7,,,,,,,,,6,,,55,0
6600,note_on,0,0,7,,,,,,,,,6,,,43,0
6600,note_on,0,0,7,,,,,,,,,6,,,47,100
6600,note_on,0,0,7,,,,,,,,,6,,,59,100
6600,note_on,0,0,2,,,,,,,,,1,,,67,100
6600,note_on,60,0,4,,,,,,,,,3,,,79,100
6660,note_on,0,0,6,,,,,,,,,5,,,76,100
6660,note_on,60,0,6,,,,,,,,,5,,,71,0
6660,note_on,0,0,8,,,,,,,,,7,,,64,100
6660,note_on,0,0,2,,,,,,,,,1,,,67,0
6660,note_on,0,0,4,,,,,,,,,3,,,79,100
6660,note_on,60,0,2,,,,,,,,,1,,,79,0
6660,note_on,0,0,5,,,,,,,,,4,,,79,100
6660,note_on,60,0,5,,,,,,,,,4,,,74,0
6660,note_on,0,0,7,,,,,,,,,6,,,64,100
6660,note_on,0,0,7,,,,,,,,,6,,,52,100
6660,note_on,60,0,4,,,,,,,,,3,,,79,0
6660,note_on,0,0,7,,,,,,,,,6,,,47,0
6660,note_on,60,0,1,,,,,,,,,0,,,79,0
6660,note_on,0,0,1,,,,,,,,,0,,,79,100
6660,note_on,0,0,2,,,,,,,,,1,,,79,100
6660,note_on,60,0,8,,,,,,,,,7,,,59,0
6660,note_on,0,0,8,,,,,,,,,7,,,47,0
6660,note_on,0,0,8,,,,,,,,,7,,,52,100
6660,note_on,60,0,7,,,,,,,,,6,,,59,0
6660,note_on,0,0,2,,,,,,,,,1,,,67,100
6720,note_on,60,0,5,,,,,,,,,4,,,79,0
6720,note_on,0,0,5,,,,,,,,,4,,,78,100
6720,note_on,60,0,8,,,,,,,,,7,,,64,0
6720,note_on,0,0,7,,,,,,,,,6,,,52,0
6720,note_on,0,0,2,,,,,,,,,1,,,67,0
6720,note_on,60,0,2,,,,,,,,,1,,,79,0
6720,note_on,0,0,7,,,,,,,,,6,,,62,100
6720,note_on,0,0,7,,,,,,,,,6,,,50,100
6720,note_on,0,0,8,,,,,,,,,7,,,62,100
6720,note_on,0,0,8,,,,,,,,,7,,,50,100
6720,note_on,0,0,2,,,,,,,,,1,,,67,100
6720,note_on,60,0,1,,,,,,,,,0,,,79,0
6720,note_on,0,0,1,,,,,,,,,0,,,79,100
6720,note_on,0,0,2,,,,,,,,,1,,,79,100
6720,note_on,0,0,8,,,,,,,,,7,,,52,0
6720,note_on,0,0,4,,,,,,,,,3,,,79,100
6720,note_on,60,0,6,,,,,,,,,5,,,76,0
6720,note_on,0,0,6,,,,,,,,,5,,,74,100
6720,note_on,60,0,4,,,,,,,,,3,,,79,0
6720,note_on,60,0,7,,,,,,,,,6,,,64,0
6780,note_on,0,0,4,,,,,,,,,3,,,79,100
6780,note_on,60,0,4,,,,,,,,,3,,,79,0
6780,note_on,60,0,7,,,,,,,,,6,,,62,0
6780,note_on,0,0,7,,,,,,,,,6,,,50,0
6780,note_on,0,0,7,,,,,,,,,6,,,48,100
6780,note_on,0,0,7,,,,,,,,,6,,,60,100
6780,note_on,0,0,8,,,,,,,,,7,,,50,0
6780,note_on,0,0,2,,,,,,,,,1,,,67,0
6780,note_on,0,0,8,,,,,,,,,7,,,48,100
6780,note_on,60,0,1,,,,,,,,,0,,,79,0
6780,note_on,0,0,6,,,,,,,,,5,,,72,100
6780,note_on,60,0,6,,,,,,,,,5,,,74,0
6780,note_on,0,0,5,,,,,,,,,4,,,76,100
6780,note_on,60,0,5,,,,,,,,,4,,,78,0
6780,note_on,0,0,2,,,,,,,,,1,,,67,100
6780,note_on,0,0,2,,,,,,,,,1,,,79,100
6780,note_on,60,0,8,,,,,,,,,7,,,62,0
6780,note_on,0,0,8,,,,,,,,,7,,,60,100
6780,note_on,60,0,2,,,,,,,,,1,,,79,0
6780,note_on,0,0,1,,,,,,,,,0,,,79,100
6840,note_on,0,0,8,,,,,,,,,7,,,47,100
6840,note_on,0,0,8,,,,,,,,,7,,,59,100
6840,note_on,0,0,8,,,,,,,,,7,,,48,0
6840,note_on,0,0,1,,,,,,,,,0,,,79,100
6840,note_on,0,0,6,,,,,,,,,5,,,71,100
6840,note_on,60,0,4,,,,,,,,,3,,,79,0
6840,note_on,0,0,4,,,,,,,,,3,,,79,100
6840,note_on,60,0,5,,,,,,,,,4,,,76,0
6840,note_on,0,0,5,,,,,,,,,4,,,74,100
6840,note_on,0,0,3,,,,,,,,,2,,,74,100
6840,note_on,240,0,3,,,,,,,,,2,,,67,100
6840,note_on,60,0,1,,,,,,,,,0,,,79,0
6840,note_on,60,0,6,,,,,,,,,5,,,72,0
6840,note_on,60,0,8,,,,,,,,,7,,,60,0
6840,note_on,60,0,7,,,,,,,,,6,,,60,0
6840,note_on,60,0,2,,,,,,,,,1,,,79,0
6840,note_on,0,0,7,,,,,,,,,6,,,59,100
6840,note_on,0,0,7,,,,,,,,,6,,,47,100
6840,note_on,0,0,7,,,,,,,,,6,,,48,0
6840,note_on,0,0,2,,,,,,,,,1,,,79,100
6840,note_on,0,0,2,,,,,,,,,1,,,67,100
6840,note_on,0,0,2,,,,,,,,,1,,,67,0
6855,note_on,0,0,1,,,,,,,,,0,,,81,100
6855,note_on,0,0,4,,,,,,,,,3,,,81,100
6855,note_on,15,0,4,,,,,,,,,3,,,79,0
6855,note_on,15,0,1,,,,,,,,,0,,,79,0
6870,note_on,15,0,4,,,,,,,,,3,,,81,0
6870,note_on,0,0,1,,,,,,,,,0,,,83,100
6870,note_on,15,0,1,,,,,,,,,0,,,81,0
6870,note_on,0,0,4,,,,,,,,,3,,,83,100
6900,note_on,60,0,5,,,,,,,,,4,,,74,0
6900,note_on,60,0,7,,,,,,,,,6,,,59,0
6900,note_on,0,0,7,,,,,,,,,6,,,47,0
6900,note_on,30,0,4,,,,,,,,,3,,,83,0
6900,note_on,0,0,6,,,,,,,,,5,,,69,100
6900,note_on,0,0,7,,,,,,,,,6,,,45,100
6900,note_on,60,0,6,,,,,,,,,5,,,71,0
6900,note_on,30,0,1,,,,,,,,,0,,,83,0
6900,note_on,0,0,5,,,,,,,,,4,,,72,100
6900,note_on,0,0,8,,,,,,,,,7,,,57,100
6900,note_on,0,0,8,,,,,,,,,7,,,45,100
6900,note_on,0,0,8,,,,,,,,,7,,,47,0
6900,note_on,60,0,8,,,,,,,,,7,,,59,0
6900,note_on,0,0,7,,,,,,,,,6,,,57,100
6960,note_on,0,0,5,,,,,,,,,4,,,71,100
6960,note_on,0,0,7,,,,,,,,,6,,,45,0
6960,note_on,60,0,7,,,,,,,,,6,,,57,0
6960,note_on,120,0,3,,,,,,,,,2,,,74,0
6960,note_on,0,0,3,,,,,,,,,2,,,67,0
6960,note_on,120,0,2,,,,,,,,,1,,,79,0
6960,note_on,0,0,7,,,,,,,,,6,,,55,100
6960,note_on,0,0,7,,,,,,,,,6,,,43,100
6960,note_on,0,0,2,,,,,,,,,1,,,67,0
6960,note_on,60,0,8,,,,,,,,,7,,,57,0
6960,note_on,0,0,8,,,,,,,,,7,,,45,0
6960,note_on,0,0,6,,,,,,,,,5,,,67,100
6960,note_on,60,0,6,,,,,,,,,5,,,69,0
6960,note_on,0,0,8,,,,,,,,,7,,,43,100
6960,note_on,0,0,8,,,,,,,,,7,,,55,100
6960,note_on,60,0,5,,,,,,,,,4,,,72,0
7020,note_on,120,0,1,,,,,,,,,0,,,81,100
7020,note_on,60,0,7,,,,,,,,,6,,,55,0
7020,note_on,0,0,7,,,,,,,,,6,,,43,0
7020,note_on,0,0,7,,,,,,,,,6,,,42,100
7020,note_on,0,0,7,,,,,,,,,6,,,54,100
7020,note_on,60,0,6,,,,,,,,,5,,,67,0
7020,note_on,0,0,5,,,,,,,,,4,,,69,100
7020,note_on,120,0,4,,,,,,,,,3,,,81,100
7020,note_on,60,0,2,,,,,,,,,1,,,74,100
7020,note_on,0,0,6,,,,,,,,,5,,,66,100
7020,note_on,60,0,5,,,,,,,,,4,,,71,0
7020,note_on,0,0,8,,,,,,,,,7,,,54,100
7020,note_on,0,0,8,,,,,,,,,7,,,42,100
7020,note_on,60,0,8,,,,,,,,,7,,,55,0
7020,note_on,0,0,8,,,,,,,,,7,,,43,0
7020,note_on,60,0,3,,,,,,,,,2,,,74,100
7035,note_on,15,0,1,,,,,,,,,0,,,81,0
7035,note_on,15,0,4,,,,,,,,,3,,,81,0
7035,note_on,0,0,4,,,,,,,,,3,,,83,100
7035,note_on,0,0,1,,,,,,,,,0,,,83,100
7050,note_on,0,0,4,,,,,,,,,3,,,84,100
7050,note_on,15,0,4,,,,,,,,,3,,,83,0
7050,note_on,15,0,1,,,,,,,,,0,,,83,0
7050,note_on,0,0,1,,,,,,,,,0,,,84,100
7080,note_on,60,0,7,,,,,,,,,6,,,54,0
7080,note_on,0,0,7,,,,,,,,,6,,,40,100
7080,note_on,0,0,7,,,,,,,,,6,,,52,100
7080,note_on,0,0,8,,,,,,,,,7,,,52,100
7080,note_on,0,0,8,,,,,,,,,7,,,40,100
7080,note_on,0,0,5,,,,,,,,,4,,,67,100
7080,note_on,60,0,5,,,,,,,,,4,,,69,0
7080,note_on,0,0,6,,,,,,,,,5,,,64,100
7080,note_on,60,0,6,,,,,,,,,5,,,66,0
7080,note_on,0,0,8,,,,,,,,,7,,,42,0
7080,note_on,60,0,8,,,,,,,,,7,,,54,0
7080,note_on,0,0,7,,,,,,,,,6,,,42,0
7080,note_on,30,0,1,,,,,,,,,0,,,84,0
7080,note_on,30,0,4,,,,,,,,,3,,,84,0
7140,note_on,0,0,5,,,,,,,,,4,,,66,100
7140,note_on,60,0,7,,,,,,,,,6,,,52,0
7140,note_on,0,0,7,,,,,,,,,6,,,40,0
7140,note_on,0,0,6,,,,,,,,,5,,,62,100
7140,note_on,60,0,6,,,,,,,,,5,,,64,0
7140,note_on,0,0,7,,,,,,,,,6,,,38,100
7140,note_on,60,0,8,,,,,,,,,7,,,52,0
7140,note_on,120,0,2,,,,,,,,,1,,,74,0
7140,note_on,0,0,7,,,,,,,,,6,,,50,100
7140,note_on,0,0,8,,,,,,,,,7,,,50,100
7140,note_on,0,0,8,,,,,,,,,7,,,38,100
7140,note_on,0,0,8,,,,,,,,,7,,,40,0
7140,note_on,60,0,5,,,,,,,,,4,,,67,0
7140,note_on,120,0,3,,,,,,,,,2,,,74,0
7200,note_on,60,0,5,,,,,,,,,4,,,66,0
7200,note_on,60,0,6,,,,,,,,,5,,,62,0
7200,note_on,0,0,7,,,,,,,,,6,,,55,100
7200,note_on,0,0,6,,,,,,,,,5,,,67,100
7200,note_on,0,0,8,,,,,,,,,7,,,43,100
7200,note_on,60,0,3,,,,,,,,,2,,,67,100
7200,note_on,0,0,3,,,,,,,,,2,,,74,100
7200,note_on,60,0,8,,,,,,,,,7,,,50,0
7200,note_on,0,0,8,,,,,,,,,7,,,38,0
7200,note_on,0,0,8,,,,,,,,,7,,,55,100
7200,note_on,0,0,7,,,,,,,,,6,,,38,0
7200,note_on,60,0,7,,,,,,,,,6,,,50,0
7200,note_on,0,0,5,,,,,,,,,4,,,67,100
7200,note_on,120,0,4,,,,,,,,,3,,,83,100
7200,note_on,0,0,2,,,,,,,,,1,,,74,100
7200,note_on,60,0,2,,,,,,,,,1,,,67,100
7200,note_on,120,0,1,,,,,,,,,0,,,83,100
7200,note_on,0,0,7,,,,,,,,,6,,,43,100
7215,note_on,15,0,4,,,,,,,,,3,,,83,0
7215,note_on,15,0,1,,,,,,,,,0,,,83,0
7215,note_on,0,0,1,,,,,,,,,0,,,84,100
7215,note_on,0,0,4,,,,,,,,,3,,,84,100
7215,note_on,0,0,5,,,,,,,,,4,,,69,100
7215,note_on,15,0,5,,,,,,,,,4,,,67,0
7230,note_on,0,0,5,,,,,,,,,4,,,71,100
7230,note_on,15,0,5,,,,,,,,,4,,,69,0
7230,note_on,0,0,1,,,,,,,,,0,,,86,100
7230,note_on,0,0,4,,,,,,,,,3,,,86,100
7230,note_on,15,0,4,,,,,,,,,3,,,84,0
7230,note_on,15,0,1,,,,,,,,,0,,,84,0
7260,note_on,0,0,7,,,,,,,,,6,,,43,0
7260,note_on,60,0,7,,,,,,,,,6,,,55,0
7260,note_on,0,0,7,,,,,,,,,6,,,59,100
7260,note_on,0,0,7,,,,,,,,,6,,,47,100
7260,note_on,0,0,8,,,,,,,,,7,,,43,0
7260,note_on,60,0,6,,,,,,,,,5,,,67,0
7260,note_on,0,0,6,,,,,,,,,5,,,71,100
7260,note_on,30,0,1,,,,,,,,,0,,,86,0
7260,note_on,60,0,8,,,,,,,,,7,,,55,0
7260,note_on,0,0,8,,,,,,,,,7,,,47,100
7260,note_on,30,0,5,,,,,,,,,4,,,71,0
7260,note_on,30,0,4,,,,,,,,,3,,,86,0
7260,note_on,0,0,8,,,,,,,,,7,,,59,100
7320,note_on,120,0,2,,,,,,,,,1,,,74,0
7320,note_on,0,0,2,,,,,,,,,1,,,67,0
7320,note_on,0,0,8,,,,,,,,,7,,,55,100
7320,note_on,0,0,8,,,,,,,,,7,,,43,100
7320,note_on,0,0,8,,,,,,,,,7,,,47,0
7320,note_on,60,0,8,,,,,,,,,7,,,59,0
7320,note_on,120,0,3,,,,,,,,,2,,,74,0
7320,note_on,0,0,7,,,,,,,,,6,,,55,100
7320,note_on,0,0,7,,,,,,,,,6,,,43,100
7320,note_on,0,0,7,,,,,,,,,6,,,47,0
7320,note_on,60,0,7,,,,,,,,,6,,,59,0
7320,note_on,0,0,3,,,,,,,,,2,,,67,0
7320,note_on,0,0,6,,,,,,,,,5,,,67,100
7320,note_on,60,0,6,,,,,,,,,5,,,71,0
7380,note_on,60,0,2,,,,,,,,,1,,,74,100
7380,note_on,0,0,5,,,,,,,,,4,,,81,100
7380,note_on,120,0,5,,,,,,,,,4,,,74,100
7380,note_on,0,0,7,,,,,,,,,6,,,42,100
7380,note_on,0,0,6,,,,,,,,,5,,,66,100
7380,note_on,60,0,8,,,,,,,,,7,,,55,0
7380,note_on,0,0,8,,,,,,,,,7,,,43,0
7380,note_on,0,0,8,,,,,,,,,7,,,42,100
7380,note_on,0,0,8,,,,,,,,,7,,,54,100
7380,note_on,60,0,3,,,,,,,,,2,,,74,100
7380,note_on,60,0,6,,,,,,,,,5,,,67,0
7380,note_on,120,0,1,,,,,,,,,0,,,81,100
7380,note_on,0,0,1,,,,,,,,,0,,,84,100
7380,note_on,0,0,4,,,,,,,,,3,,,84,100
7380,note_on,0,0,7,,,,,,,,,6,,,54,100
7380,note_on,120,0,4,,,,,,,,,3,,,74,100
7380,note_on,0,0,7,,,,,,,,,6,,,43,0
7380,note_on,60,0,7,,,,,,,,,6,,,55,0
7440,note_on,60,0,6,,,,,,,,,5,,,66,0
7440,note_on,0,0,6,,,,,,,,,5,,,62,100
7440,note_on,60,0,8,,,,,,,,,7,,,54,0
7440,note_on,0,0,8,,,,,,,,,7,,,42,0
7440,note_on,0,0,8,,,,,,,,,7,,,38,100
7440,note_on,0,0,8,,,,,,,,,7,,,50,100
7440,note_on,60,0,7,,,,,,,,,6,,,54,0
7440,note_on,0,0,7,,,,,,,,,6,,,42,0
7440,note_on,0,0,7,,,,,,,,,6,,,38,100
7440,note_on,0,0,7,,,,,,,,,6,,,50,100
7500,note_on,60,0,7,,,,,,,,,6,,,50,0
7500,note_on,60,0,6,,,,,,,,,5,,,62,0
7500,note_on,0,0,6,,,,,,,,,5,,,66,100
7500,note_on,0,0,7,,,,,,,,,6,,,38,0
7500,note_on,0,0,8,,,,,,,,,7,,,54,100
7500,note_on,60,0,8,,,,,,,,,7,,,50,0
7500,note_on,0,0,8,,,,,,,,,7,,,38,0
7500,note_on,0,0,8,,,,,,,,,7,,,42,100
7500,note_on,0,0,7,,,,,,,,,6,,,54,100
7500,note_on,0,0,7,,,,,,,,,6,,,42,100
7560,note_on,0,0,1,,,,,,,,,0,,,81,0
7560,note_on,0,0,1,,,,,,,,,0,,,79,100
7560,note_on,0,0,1,,,,,,,,,0,,,83,100
7560,note_on,180,0,1,,,,,,,,,0,,,84,0
7560,note_on,180,0,4,,,,,,,,,3,,,84,0
7560,note_on,0,0,4,,,,,,,,,3,,,74,100
7560,note_on,0,0,8,,,,,,,,,7,,,43,100
7560,note_on,0,0,8,,,,,,,,,7,,,55,100
7560,note_on,0,0,4,,,,,,,,,3,,,74,0
7560,note_on,0,0,8,,,,,,,,,7,,,42,0
7560,note_on,0,0,7,,,,,,,,,6,,,43,100
7560,note_on,0,0,7,,,,,,,,,6,,,55,100
7560,note_on,0,0,7,,,,,,,,,6,,,42,0
7560,note_on,0,0,6,,,,,,,,,5,,,67,100
7560,note_on,60,0,6,,,,,,,,,5,,,66,0
7560,note_on,180,0,5,,,,,,,,,4,,,81,0
7560,note_on,60,0,7,,,,,,,,,6,,,54,0
7560,note_on,0,0,5,,,,,,,,,4,,,79,100
7560,note_on,0,0,4,,,,,,,,,3,,,83,100
7560,note_on,60,0,8,,,,,,,,,7,,,54,0
7560,note_on,0,0,5,,,,,,,,,4,,,74,0
7620,note_on,0,0,1,,,,,,,,,0,,,79,0
7620,note_on,0,0,8,,,,,,,,,7,,,47,100
7620,note_on,0,0,8,,,,,,,,,7,,,59,100
7620,note_on,0,0,8,,,,,,,,,7,,,55,0
7620,note_on,60,0,8,,,,,,,,,7,,,43,0
7620,note_on,60,0,4,,,,,,,,,3,,,83,0
7620,note_on,0,0,4,,,,,,,,,3,,,74,0
7620,note_on,60,0,1,,,,,,,,,0,,,83,0
7620,note_on,0,0,7,,,,,,,,,6,,,47,100
7620,note_on,0,0,7,,,,,,,,,6,,,59,100
7620,note_on,60,0,7,,,,,,,,,6,,,43,0
7620,note_on,240,0,2,,,,,,,,,1,,,74,0
7620,note_on,240,0,3,,,,,,,,,2,,,74,0
7620,note_on,0,0,6,,,,,,,,,5,,,71,100
7620,note_on,60,0,6,,,,,,,,,5,,,67,0
7620,note_on,60,0,5,,,,,,,,,4,,,79,0
7620,note_on,0,0,7,,,,,,,,,6,,,55,0
7680,note_on,0,0,6,,,,,,,,,5,,,67,100
7680,note_on,0,0,8,,,,,,,,,7,,,55,100
7680,note_on,60,0,8,,,,,,,,,7,,,47,0
7680,note_on,0,0,8,,,,,,,,,7,,,59,0
7680,note_on,0,0,8,,,,,,,,,7,,,43,100
7680,note_on,0,0,7,,,,,,,,,6,,,59,0
7680,note_on,0,0,7,,,,,,,,,6,,,43,100
7680,note_on,0,0,7,,,,,,,,,6,,,55,100
7680,note_on,60,0,7,,,,,,,,,6,,,47,0
7680,note_on,60,0,6,,,,,,,,,5,,,71,0
7740,note_on,0,0,8,,,,,,,,,7,,,55,0
7740,note_on,0,0,8,,,,,,,,,7,,,54,100
7740,note_on,0,0,8,,,,,,,,,7,,,42,100
7740,note_on,0,0,7,,,,,,,,,6,,,42,100
7740,note_on,0,0,7,,,,,,,,,6,,,54,100
7740,note_on,0,0,7,,,,,,,,,6,,,55,0
7740,note_on,60,0,7,,,,,,,,,6,,,43,0
7740,note_on,120,0,2,,,,,,,,,1,,,74,100
7740,note_on,0,0,4,,,,,,,,,3,,,84,100
7740,note_on,120,0,4,,,,,,,,,3,,,74,100
7740,note_on,60,0,8,,,,,,,,,7,,,43,0
7740,note_on,120,0,1,,,,,,,,,0,,,81,100
7740,note_on,0,0,1,,,,,,,,,0,,,84,100
7740,note_on,60,0,6,,,,,,,,,5,,,67,0
7740,note_on,0,0,5,,,,,,,,,4,,,81,100
7740,note_on,120,0,5,,,,,,,,,4,,,74,100
7740,note_on,0,0,6,,,,,,,,,5,,,66,100
7740,note_on,120,0,3,,,,,,,,,2,,,74,100
7800,note_on,60,0,7,,,,,,,,,6,,,42,0
7800,note_on,0,0,8,,,,,,,,,7,,,38,100
7800,note_on,0,0,8,,,,,,,,,7,,,50,100
7800,note_on,0,0,6,,,,,,,,,5,,,62,100
7800,note_on,0,0,8,,,,,,,,,7,,,54,0
7800,note_on,0,0,7,,,,,,,,,6,,,54,0
7800,note_on,60,0,6,,,,,,,,,5,,,66,0
7800,note_on,60,0,8,,,,,,,,,7,,,42,0
7800,note_on,0,0,7,,,,,,,,,6,,,38,100
7800,note_on,0,0,7,,,,,,,,,6,,,50,100
7860,note_on,60,0,7,,,,,,,,,6,,,38,0
7860,note_on,60,0,6,,,,,,,,,5,,,62,0
7860,note_on,0,0,7,,,,,,,,,6,,,50,0
7860,note_on,0,0,7,,,,,,,,,6,,,54,100
7860,note_on,0,0,7,,,,,,,,,6,,,42,100
7860,note_on,0,0,6,,,,,,,,,5,,,66,100
7860,note_on,60,0,8,,,,,,,,,7,,,38,0
7860,note_on,0,0,8,,,,,,,,,7,,,50,0
7860,note_on,0,0,8,,,,,,,,,7,,,54,100
7860,note_on,0,0,8,,,,,,,,,7,,,42,100
7920,note_on,0,0,5,,,,,,,,,4,,,74,0
7920,note_on,180,0,5,,,,,,,,,4,,,81,0
7920,note_on,0,0,7,,,,,,,,,6,,,43,100
7920,note_on,60,0,7,,,,,,,,,6,,,42,0
7920,note_on,0,0,7,,,,,,,,,6,,,54,0
7920,note_on,0,0,5,,,,,,,,,4,,,79,100
7920,note_on,0,0,6,,,,,,,,,5,,,67,100
7920,note_on,60,0,6,,,,,,,,,5,,,66,0
7920,note_on,0,0,7,,,,,,,,,6,,,55,100
7920,note_on,0,0,4,,,,,,,,,3,,,83,100
7920,note_on,0,0,8,,,,,,,,,7,,,55,100
7920,note_on,0,0,1,,,,,,,,,0,,,83,100
7920,note_on,0,0,4,,,,,,,,,3,,,74,0
7920,note_on,0,0,1,,,,,,,,,0,,,81,0
7920,note_on,180,0,1,,,,,,,,,0,,,84,0
7920,note_on,0,0,1,,,,,,,,,0,,,79,100
7920,note_on,0,0,8,,,,,,,,,7,,,43,100
7920,note_on,0,0,8,,,,,,,,,7,,,54,0
7920,note_on,60,0,8,,,,,,,,,7,,,42,0
7920,note_on,0,0,4,,,,,,,,,3,,,74,100
7920,note_on,180,0,4,,,,,,,,,3,,,84,0
7980,note_on,0,0,7,,,,,,,,,6,,,47,100
7980,note_on,0,0,7,,,,,,,,,6,,,59,100
7980,note_on,0,0,7,,,,,,,,,6,,,43,0
7980,note_on,60,0,7,,,,,,,,,6,,,55,0
7980,note_on,240,0,3,,,,,,,,,2,,,74,0
7980,note_on,0,0,8,,,,,,,,,7,,,47,100
7980,note_on,0,0,8,,,,,,,,,7,,,43,0
7980,note_on,0,0,6,,,,,,,,,5,,,71,100
7980,note_on,60,0,6,,,,,,,,,5,,,67,0
7980,note_on,0,0,1,,,,,,,,,0,,,79,0
7980,note_on,60,0,5,,,,,,,,,4,,,79,0
7980,note_on,60,0,1,,,,,,,,,0,,,83,0
7980,note_on,240,0,2,,,,,,,,,1,,,74,0
7980,note_on,60,0,4,,,,,,,,,3,,,74,0
7980,note_on,0,0,4,,,,,,,,,3,,,83,0
7980,note_on,0,0,8,,,,,,,,,7,,,59,100
7980,note_on,60,0,8,,,,,,,,,7,,,55,0
8040,note_on,60,0,7,,,,,,,,,6,,,59,0
8040,note_on,0,0,7,,,,,,,,,6,,,47,0
8040,note_on,0,0,7,,,,,,,,,6,,,43,100
8040,note_on,0,0,7,,,,,,,,,6,,,55,100
8040,note_on,0,0,8,,,,,,,,,7,,,47,0
8040,note_on,0,0,8,,,,,,,,,7,,,43,100
8040,note_on,0,0,8,,,,,,,,,7,,,55,100
8040,note_on,0,0,6,,,,,,,,,5,,,67,100
8040,note_on,60,0,6,,,,,,,,,5,,,71,0
8040,note_on,60,0,8,,,,,,,,,7,,,59,0
8100,note_on,120,0,4,,,,,,,,,3,,,74,100
8100,note_on,60,0,7,,,,,,,,,6,,,55,0
8100,note_on,120,0,5,,,,,,,,,4,,,74,100
8100,note_on,60,0,8,,,,,,,,,7,,,55,0
8100,note_on,0,0,8,,,,,,,,,7,,,43,0
8100,note_on,0,0,8,,,,,,,,,7,,,42,100
8100,note_on,0,0,8,,,,,,,,,7,,,54,100
8100,note_on,0,0,7,,,,,,,,,6,,,54,100
8100,note_on,0,0,4,,,,,,,,,3,,,84,100
8100,note_on,120,0,3,,,,,,,,,2,,,74,100
8100,note_on,0,0,7,,,,,,,,,6,,,43,0
8100,note_on,0,0,1,,,,,,,,,0,,,84,100
8100,note_on,120,0,1,,,,,,,,,0,,,81,100
8100,note_on,0,0,6,,,,,,,,,5,,,66,100
8100,note_on,60,0,6,,,,,,,,,5,,,67,0
8100,note_on,0,0,5,,,,,,,,,4,,,81,100
8100,note_on,120,0,2,,,,,,,,,1,,,74,100
8100,note_on,0,0,7,,,,,,,,,6,,,42,100
8160,note_on,60,0,7,,,,,,,,,6,,,54,0
8160,note_on,0,0,7,,,,,,,,,6,,,42,0
8160,note_on,0,0,7,,,,,,,,,6,,,38,100
8160,note_on,0,0,8,,,,,,,,,7,,,42,0
8160,note_on,0,0,8,,,,,,,,,7,,,50,100
8160,note_on,60,0,8,,,,,,,,,7,,,54,0
8160,note_on,0,0,8,,,,,,,,,7,,,38,100
8160,note_on,0,0,7,,,,,,,,,6,,,50,100
8160,note_on,0,0,6,,,,,,,,,5,,,62,100
8160,note_on,60,0,6,,,,,,,,,5,,,66,0
8220,note_on,0,0,6,,,,,,,,,5,,,66,100
8220,note_on,120,0,3,,,,,,,,,2,,,74,0
8220,note_on,0,0,8,,,,,,,,,7,,,54,100
8220,note_on,0,0,8,,,,,,,,,7,,,42,100
8220,note_on,60,0,8,,,,,,,,,7,,,50,0
8220,note_on,60,0,7,,,,,,,,,6,,,50,0
8220,note_on,0,0,7,,,,,,,,,6,,,38,0
8220,note_on,0,0,8,,,,,,,,,7,,,38,0
8220,note_on,0,0,7,,,,,,,,,6,,,54,100
8220,note_on,60,0,6,,,,,,,,,5,,,62,0
8220,note_on,0,0,7,,,,,,,,,6,,,42,100
8280,note_on,180,0,1,,,,,,,,,0,,,84,0
8280,note_on,0,0,5,,,,,,,,,4,,,74,0
8280,note_on,0,0,6,,,,,,,,,5,,,67,100
8280,note_on,0,0,3,,,,,,,,,2,,,74,100
8280,note_on,60,0,3,,,,,,,,,2,,,67,100
8280,note_on,180,0,5,,,,,,,,,4,,,81,0
8280,note_on,0,0,4,,,,,,,,,3,,,74,0
8280,note_on,180,0,2,,,,,,,,,1,,,74,0
8280,note_on,0,0,2,,,,,,,,,1,,,67,100
8280,note_on,0,0,1,,,,,,,,,0,,,81,0
8280,note_on,0,0,2,,,,,,,,,1,,,74,100
8280,note_on,0,0,4,,,,,,,,,3,,,83,100
8280,note_on,180,0,4,,,,,,,,,3,,,84,0
8280,note_on,0,0,1,,,,,,,,,0,,,79,100
8280,note_on,0,0,1,,,,,,,,,0,,,83,100
8280,note_on,0,0,5,,,,,,,,,4,,,79,100
8280,note_on,0,0,7,,,,,,,,,6,,,55,100
8280,note_on,0,0,7,,,,,,,,,6,,,43,100
8280,note_on,0,0,7,,,,,,,,,6,,,42,0
8280,note_on,0,0,8,,,,,,,,,7,,,55,100
8280,note_on,0,0,8,,,,,,,,,7,,,43,100
8280,note_on,60,0,7,,,,,,,,,6,,,54,0
8280,note_on,0,0,8,,,,,,,,,7,,,42,0
8280,note_on,60,0,8,,,,,,,,,7,,,54,0
8280,note_on,60,0,6,,,,,,,,,5,,,66,0
8340,note_on,0,0,1,,,,,,,,,0,,,81,100
8340,note_on,0,0,6,,,,,,,,,5,,,69,100
8340,note_on,0,0,7,,,,,,,,,6,,,57,100
8340,note_on,0,0,1,,,,,,,,,0,,,79,0
8340,note_on,60,0,4,,,,,,,,,3,,,83,0
8340,note_on,60,0,6,,,,,,,,,5,,,67,0
8340,note_on,60,0,8,,,,,,,,,7,,,55,0
8340,note_on,0,0,8,,,,,,,,,7,,,43,0
8340,note_on,0,0,8,,,,,,,,,7,,,45,100
8340,note_on,0,0,8,,,,,,,,,7,,,57,100
8340,note_on,60,0,1,,,,,,,,,0,,,83,0
8340,note_on,0,0,4,,,,,,,,,3,,,81,100
8340,note_on,0,0,5,,,,,,,,,4,,,81,100
8340,note_on,0,0,7,,,,,,,,,6,,,45,100
8340,note_on,60,0,7,,,,,,,,,6,,,55,0
8340,note_on,60,0,5,,,,,,,,,4,,,79,0
8340,note_on,0,0,7,,,,,,,,,6,,,43,0
8400,note_on,0,0,3,,,,,,,,,2,,,67,0
8400,note_on,0,0,5,,,,,,,,,4,,,79,100
8400,note_on,0,0,7,,,,,,,,,6,,,55,100
8400,note_on,0,0,1,,,,,,,,,0,,,79,100
8400,note_on,60,0,1,,,,,,,,,0,,,81,0
8400,note_on,60,0,5,,,,,,,,,4,,,81,0
8400,note_on,60,0,6,,,,,,,,,5,,,69,0
8400,note_on,60,0,7,,,,,,,,,6,,,57,0
8400,note_on,0,0,8,,,,,,,,,7,,,55,100
8400,note_on,0,0,8,,,,,,,,,7,,,43,100
8400,note_on,0,0,8,,,,,,,,,7,,,45,0
8400,note_on,60,0,8,,,,,,,,,7,,,57,0
8400,note_on,0,0,7,,,,,,,,,6,,,45,0
8400,note_on,120,0,3,,,,,,,,,2,,,74,0
8400,note_on,60,0,4,,,,,,,,,3,,,81,0
8400,note_on,0,0,7,,,,,,,,,6,,,43,100
8400,note_on,0,0,6,,,,,,,,,5,,,67,100
8400,note_on,120,0,2,,,,,,,,,1,,,74,0
8400,note_on,0,0,4,,,,,,,,,3,,,79,100
8400,note_on,0,0,2,,,,,,,,,1,,,67,0
8460,note_on,0,0,1,,,,,,,,,0,,,83,100
8460,note_on,60,0,7,,,,,,,,,6,,,55,0
8460,note_on,0,0,7,,,,,,,,,6,,,43,0
8460,note_on,0,0,7,,,,,,,,,6,,,47,100
8460,note_on,0,0,7,,,,,,,,,6,,,59,100
8460,note_on,60,0,6,,,,,,,,,5,,,67,0
8460,note_on,0,0,6,,,,,,,,,5,,,71,100
8460,note_on,60,0,8,,,,,,,,,7,,,55,0
8460,note_on,0,0,8,,,,,,,,,7,,,43,0
8460,note_on,0,0,8,,,,,,,,,7,,,47,100
8460,note_on,0,0,8,,,,,,,,,7,,,59,100
8460,note_on,0,0,3,,,,,,,,,2,,,74,100
8460,note_on,0,0,2,,,,,,,,,1,,,74,100
8460,note_on,60,0,5,,,,,,,,,4,,,79,0
8460,note_on,0,0,5,,,,,,,,,4,,,83,100
8460,note_on,60,0,1,,,,,,,,,0,,,79,0
8460,note_on,60,0,4,,,,,,,,,3,,,79,0
8460,note_on,60,0,2,,,,,,,,,1,,,67,100
8460,note_on,60,0,3,,,,,,,,,2,,,67,100
8460,note_on,0,0,4,,,,,,,,,3,,,83,100
8520,note_on,60,0,4,,,,,,,,,3,,,83,0
8520,note_on,60,0,1,,,,,,,,,0,,,83,0
8520,note_on,60,0,6,,,,,,,,,5,,,71,0
8520,note_on,0,0,1,,,,,,,,,0,,,81,100
8520,note_on,60,0,8,,,,,,,,,7,,,59,0
8520,note_on,0,0,6,,,,,,,,,5,,,69,100
8520,note_on,0,0,7,,,,,,,,,6,,,57,100
8520,note_on,0,0,7,,,,,,,,,6,,,45,100
8520,note_on,0,0,7,,,,,,,,,6,,,47,0
8520,note_on,60,0,7,,,,,,,,,6,,,59,0
8520,note_on,0,0,5,,,,,,,,,4,,,81,100
8520,note_on,60,0,5,,,,,,,,,4,,,83,0
8520,note_on,0,0,8,,,,,,,,,7,,,45,100
8520,note_on,0,0,8,,,,,,,,,7,,,57,100
8520,note_on,0,0,4,,,,,,,,,3,,,81,100
8520,note_on,0,0,8,,,,,,,,,7,,,47,0
8580,note_on,0,0,7,,,,,,,,,6,,,45,0
8580,note_on,0,0,7,,,,,,,,,6,,,43,100
8580,note_on,0,0,7,,,,,,,,,6,,,55,100
8580,note_on,0,0,3,,,,,,,,,2,,,67,0
8580,note_on,120,0,3,,,,,,,,,2,,,74,0
8580,note_on,0,0,6,,,,,,,,,5,,,67,100
8580,note_on,60,0,6,,,,,,,,,5,,,69,0
8580,note_on,60,0,4,,,,,,,,,3,,,81,0
8580,note_on,0,0,4,,,,,,,,,3,,,79,100
8580,note_on,0,0,2,,,,,,,,,1,,,67,0
8580,note_on,60,0,7,,,,,,,,,6,,,57,0
8580,note_on,120,0,2,,,,,,,,,1,,,74,0
8580,note_on,0,0,1,,,,,,,,,0,,,79,100
8580,note_on,0,0,8,,,,,,,,,7,,,45,0
8580,note_on,0,0,5,,,,,,,,,4,,,79,100
8580,note_on,0,0,8,,,,,,,,,7,,,43,100
8580,note_on,60,0,5,,,,,,,,,4,,,81,0
8580,note_on,60,0,8,,,,,,,,,7,,,57,0
8580,note_on,60,0,1,,,,,,,,,0,,,81,0
8580,note_on,0,0,8,,,,,,,,,7,,,55,100
8640,note_on,0,0,8,,,,,,,,,7,,,50,100
8640,note_on,0,0,6,,,,,,,,,5,,,66,100
8640,note_on,60,0,8,,,,,,,,,7,,,55,0
8640,note_on,0,0,8,,,,,,,,,7,,,43,0
8640,note_on,60,0,3,,,,,,,,,2,,,74,100
8640,note_on,0,0,8,,,,,,,,,7,,,62,100
8640,note_on,0,0,1,,,,,,,,,0,,,86,100
8640,note_on,60,0,6,,,,,,,,,5,,,67,0
8640,note_on,0,0,5,,,,,,,,,4,,,74,100
8640,note_on,0,0,1,,,,,,,,,0,,,74,100
8640,note_on,0,0,4,,,,,,,,,3,,,86,100
8640,note_on,60,0,1,,,,,,,,,0,,,79,0
8640,note_on,0,0,7,,,,,,,,,6,,,62,100
8640,note_on,0,0,7,,,,,,,,,6,,,50,100
8640,note_on,0,0,7,,,,,,,,,6,,,43,0
8640,note_on,60,0,7,,,,,,,,,6,,,55,0
8640,note_on,0,0,5,,,,,,,,,4,,,62,100
8640,note_on,60,0,5,,,,,,,,,4,,,79,0
8640,note_on,60,0,4,,,,,,,,,3,,,79,0
8640,note_on,60,0,2,,,,,,,,,1,,,74,100
8700,note_on,0,0,8,,,,,,,,,7,,,64,100
8700,note_on,0,0,8,,,,,,,,,7,,,52,100
8700,note_on,0,0,8,,,,,,,,,7,,,50,0
8700,note_on,60,0,8,,,,,,,,,7,,,62,0
8700,note_on,60,0,6,,,,,,,,,5,,,66,0
8700,note_on,0,0,6,,,,,,,,,5,,,67,100
8700,note_on,0,0,7,,,,,,,,,6,,,64,100
8700,note_on,0,0,7,,,,,,,,,6,,,52,100
8700,note_on,60,0,7,,,,,,,,,6,,,62,0
8700,note_on,0,0,7,,,,,,,,,6,,,50,0
8760,note_on,0,0,7,,,,,,,,,6,,,62,100
8760,note_on,120,0,5,,,,,,,,,4,,,74,0
8760,note_on,60,0,8,,,,,,,,,7,,,64,0
8760,note_on,60,0,6,,,,,,,,,5,,,67,0
8760,note_on,0,0,6,,,,,,,,,5,,,66,100
8760,note_on,120,0,4,,,,,,,,,3,,,86,0
8760,note_on,120,0,1,,,,,,,,,0,,,86,0
8760,note_on,0,0,1,,,,,,,,,0,,,74,0
8760,note_on,60,0,7,,,,,,,,,6,,,64,0
8760,note_on,0,0,7,,,,,,,,,6,,,52,0
8760,note_on,120,0,3,,,,,,,,,2,,,74,0
8760,note_on,0,0,8,,,,,,,,,7,,,50,100
8760,note_on,0,0,8,,,,,,,,,7,,,62,100
8760,note_on,0,0,8,,,,,,,,,7,,,52,0
8760,note_on,0,0,7,,,,,,,,,6,,,50,100
8760,note_on,120,0,2,,,,,,,,,1,,,74,0
8760,note_on,0,0,5,,,,,,,,,4,,,62,0
8820,note_on,60,0,7,,,,,,,,,6,,,62,0
8820,note_on,0,0,7,,,,,,,,,6,,,48,100
8820,note_on,0,0,7,,,,,,,,,6,,,50,0
8820,note_on,0,0,8,,,,,,,,,7,,,50,0
8820,note_on,0,0,7,,,,,,,,,6,,,60,100
8820,note_on,60,0,6,,,,,,,,,5,,,66,0
8820,note_on,0,0,6,,,,,,,,,5,,,64,100
8820,note_on,60,0,8,,,,,,,,,7,,,62,0
8820,note_on,0,0,8,,,,,,,,,7,,,48,100
8820,note_on,0,0,8,,,,,,,,,7,,,60,100
8880,note_on,0,0,8,,,,,,,,,7,,,59,100
8880,note_on,0,0,8,,,,,,,,,7,,,47,100
8880,note_on,0,0,8,,,,,,,,,7,,,48,0
8880,note_on,0,0,7,,,,,,,,,6,,,59,100
8880,note_on,0,0,6,,,,,,,,,5,,,62,100
8880,note_on,60,0,7,,,,,,,,,6,,,60,0
8880,note_on,0,0,7,,,,,,,,,6,,,48,0
8880,note_on,0,0,7,,,,,,,,,6,,,47,100
8880,note_on,60,0,8,,,,,,,,,7,,,60,0
8880,note_on,60,0,6,,,,,,,,,5,,,64,0
8940,note_on,60,0,8,,,,,,,,,7,,,59,0
8940,note_on,0,0,7,,,,,,,,,6,,,57,100
8940,note_on,0,0,6,,,,,,,,,5,,,60,100
8940,note_on,60,0,6,,,,,,,,,5,,,62,0
8940,note_on,0,0,7,,,,,,,,,6,,,45,100
8940,note_on,0,0,7,,,,,,,,,6,,,47,0
8940,note_on,60,0,7,,,,,,,,,6,,,59,0
8940,note_on,0,0,8,,,,,,,,,7,,,47,0
8940,note_on,0,0,8,,,,,,,,,7,,,45,100
8940,note_on,0,0,8,,,,,,,,,7,,,57,100
9000,note_on,0,0,6,,,,,,,,,5,,,59,100
9000,note_on,0,0,7,,,,,,,,,6,,,45,0
9000,note_on,0,0,8,,,,,,,,,7,,,55,100
9000,note_on,0,0,8,,,,,,,,,7,,,43,100
9000,note_on,0,0,8,,,,,,,,,7,,,45,0
9000,note_on,0,0,7,,,,,,,,,6,,,43,100
9000,note_on,0,0,7,,,,,,,,,6,,,55,100
9000,note_on,60,0,7,,,,,,,,,6,,,57,0
9000,note_on,60,0,6,,,,,,,,,5,,,60,0
9000,note_on,60,0,8,,,,,,,,,7,,,57,0
9120,note_on,0,0,7,,,,,,,,,6,,,43,0
9120,note_on,120,0,7,,,,,,,,,6,,,55,0
9120,note_on,0,0,8,,,,,,,,,7,,,43,0
9120,note_on,360,0,5,,,,,,,,,4,,,71,36
9120,note_on,120,0,6,,,,,,,,,5,,,59,0
9120,note_on,120,0,8,,,,,,,,,7,,,55,0
9120,note_on,360,0,4,,,,,,,,,3,,,74,100
9150,note_on,30,0,4,,,,,,,,,3,,,74,0
9150,note_on,30,0,5,,,,,,,,,4,,,71,0
9180,note_on,30,0,4,,,,,,,,,3,,,71,44
9180,note_on,30,0,5,,,,,,,,,4,,,67,36
9180,note_on,60,0,6,,,,,,,,,5,,,62,42
9300,note_on,0,0,5,,,,,,,,,4,,,69,38
9300,note_on,120,0,5,,,,,,,,,4,,,67,0
9300,note_on,120,0,6,,,,,,,,,5,,,62,0
9300,note_on,0,0,6,,,,,,,,,5,,,60,44
9300,note_on,0,0,4,,,,,,,,,3,,,72,45
9300,note_on,120,0,4,,,,,,,,,3,,,71,0
9360,note_on,0,0,6,,,,,,,,,5,,,59,44
9360,note_on,60,0,6,,,,,,,,,5,,,60,0
9360,note_on,240,0,8,,,,,,,,,7,,,55,42
9360,note_on,0,0,4,,,,,,,,,3,,,74,45
9360,note_on,60,0,4,,,,,,,,,3,,,72,0
9360,note_on,240,0,7,,,,,,,,,6,,,55,42
9360,note_on,60,0,5,,,,,,,,,4,,,69,0
9360,note_on,0,0,5,,,,,,,,,4,,,71,39
9480,note_on,120,0,8,,,,,,,,,7,,,55,0
9480,note_on,120,0,6,,,,,,,,,5,,,59,0
9480,note_on,120,0,5,,,,,,,,,4,,,71,0
9480,note_on,0,0,5,,,,,,,,,4,,,74,39
9480,note_on,0,0,4,,,,,,,,,3,,,79,45
9480,note_on,120,0,4,,,,,,,,,3,,,74,0
9480,note_on,120,0,7,,,,,,,,,6,,,55,0
9540,note_on,60,0,5,,,,,,,,,4,,,74,0
9540,note_on,0,0,4,,,,,,,,,3,,,71,45
9540,note_on,60,0,4,,,,,,,,,3,,,79,0
9540,note_on,60,0,6,,,,,,,,,5,,,62,40
9540,note_on,0,0,5,,,,,,,,,4,,,67,39
9660,note_on,120,0,6,,,,,,,,,5,,,62,0
9660,note_on,0,0,6,,,,,,,,,5,,,60,40
9660,note_on,0,0,5,,,,,,,,,4,,,69,40
9660,note_on,120,0,5,,,,,,,,,4,,,67,0
9660,note_on,0,0,4,,,,,,,,,3,,,72,44
9660,note_on,120,0,4,,,,,,,,,3,,,71,0
9720,note_on,0,0,6,,,,,,,,,5,,,59,40
9720,note_on,240,0,7,,,,,,,,,6,,,55,41
9720,note_on,60,0,5,,,,,,,,,4,,,69,0
9720,note_on,240,0,8,,,,,,,,,7,,,55,41
9720,note_on,60,0,6,,,,,,,,,5,,,60,0
9720,note_on,0,0,5,,,,,,,,,4,,,71,40
9720,note_on,60,0,4,,,,,,,,,3,,,72,0
9720,note_on,0,0,4,,,,,,,,,3,,,74,43
9840,note_on,0,0,4,,,,,,,,,3,,,79,41
9840,note_on,0,0,5,,,,,,,,,4,,,74,43
9840,note_on,120,0,5,,,,,,,,,4,,,71,0
9840,note_on,120,0,6,,,,,,,,,5,,,59,0
9840,note_on,120,0,4,,,,,,,,,3,,,74,0
9900,note_on,180,0,8,,,,,,,,,7,,,55,0
9900,note_on,0,0,8,,,,,,,,,7,,,55,46
9900,note_on,60,0,4,,,,,,,,,3,,,79,0
9900,note_on,0,0,5,,,,,,,,,4,,,71,44
9900,note_on,60,0,5,,,,,,,,,4,,,74,0
9900,note_on,0,0,7,,,,,,,,,6,,,55,46
9900,note_on,180,0,7,,,,,,,,,6,,,55,0
9900,note_on,0,0,4,,,,,,,,,3,,,74,40
9900,note_on,60,0,6,,,,,,,,,5,,,55,40
10020,note_on,120,0,5,,,,,,,,,4,,,71,0
10020,note_on,120,0,6,,,,,,,,,5,,,55,0
10020,note_on,120,0,4,,,,,,,,,3,,,74,0
10020,note_on,0,0,4,,,,,,,,,3,,,79,39
10020,note_on,0,0,5,,,,,,,,,4,,,74,47
10080,note_on,180,0,8,,,,,,,,,7,,,55,0
10080,note_on,0,0,8,,,,,,,,,7,,,48,47
10080,note_on,0,0,7,,,,,,,,,6,,,48,47
10080,note_on,180,0,7,,,,,,,,,6,,,55,0
10080,note_on,0,0,5,,,,,,,,,4,,,72,47
10080,note_on,60,0,6,,,,,,,,,5,,,55,40
10080,note_on,60,0,4,,,,,,,,,3,,,79,0
10080,note_on,0,0,4,,,,,,,,,3,,,76,39
10080,note_on,60,0,5,,,,,,,,,4,,,74,0
10140,note_on,0,0,5,,,,,,,,,4,,,71,47
10140,note_on,0,0,4,,,,,,,,,3,,,74,39
10140,note_on,60,0,5,,,,,,,,,4,,,72,0
10140,note_on,60,0,4,,,,,,,,,3,,,76,0
10200,note_on,60,0,5,,,,,,,,,4,,,71,0
10200,note_on,0,0,4,,,,,,,,,3,,,72,39
10200,note_on,60,0,4,,,,,,,,,3,,,74,0
10200,note_on,0,0,5,,,,,,,,,4,,,69,47
10260,note_on,60,0,5,,,,,,,,,4,,,69,0
10260,note_on,180,0,7,,,,,,,,,6,,,48,0
10260,note_on,0,0,7,,,,,,,,,6,,,52,44
10260,note_on,0,0,8,,,,,,,,,7,,,52,44
10260,note_on,180,0,8,,,,,,,,,7,,,48,0
10260,note_on,0,0,6,,,,,,,,,5,,,64,40
10260,note_on,180,0,6,,,,,,,,,5,,,55,0
10260,note_on,0,0,5,,,,,,,,,4,,,67,47
10260,note_on,60,0,4,,,,,,,,,3,,,72,0
10260,note_on,0,0,4,,,,,,,,,3,,,71,39
10320,note_on,60,0,5,,,,,,,,,4,,,67,0
10320,note_on,0,0,4,,,,,,,,,3,,,69,39
10320,note_on,0,0,5,,,,,,,,,4,,,66,46
10320,note_on,60,0,4,,,,,,,,,3,,,71,0
10380,note_on,0,0,5,,,,,,,,,4,,,67,44
10380,note_on,60,0,4,,,,,,,,,3,,,69,0
10380,note_on,0,0,4,,,,,,,,,3,,,67,40
10380,note_on,60,0,5,,,,,,,,,4,,,66,0
10440,note_on,0,0,6,,,,,,,,,5,,,62,44
10440,note_on,180,0,6,,,,,,,,,5,,,64,0
10440,note_on,180,0,7,,,,,,,,,6,,,52,0
10440,note_on,0,0,7,,,,,,,,,6,,,50,44
10440,note_on,180,0,8,,,,,,,,,7,,,52,0
10440,note_on,0,0,8,,,,,,,,,7,,,50,44
10440,note_on,60,0,4,,,,,,,,,3,,,67,0
10440,note_on,0,0,4,,,,,,,,,3,,,69,41
10440,note_on,0,0,5,,,,,,,,,4,,,66,40
10440,note_on,60,0,5,,,,,,,,,4,,,67,0
10560,note_on,0,0,5,,,,,,,,,4,,,59,39
10560,note_on,0,0,1,,,,,,,,,0,,,71,41
10560,note_on,1800,0,1,,,,,,,,,0,,,74,41
10560,note_on,120,0,8,,,,,,,,,7,,,50,0
10560,note_on,120,0,5,,,,,,,,,4,,,66,0
10560,note_on,120,0,7,,,,,,,,,6,,,50,0
10560,note_on,120,0,4,,,,,,,,,3,,,69,0
10560,note_on,0,0,4,,,,,,,,,3,,,62,43
10560,note_on,120,0,6,,,,,,,,,5,,,62,0
10590,note_on,30,0,1,,,,,,,,,0,,,71,0
10590,note_on,30,0,5,,,,,,,,,4,,,59,0
10590,note_on,0,0,1,,,,,,,,,0,,,74,0
10590,note_on,30,0,4,,,,,,,,,3,,,62,0
10620,note_on,30,0,5,,,,,,,,,4,,,55,39
10620,note_on,0,0,1,,,,,,,,,0,,,71,41
10620,note_on,30,0,4,,,,,,,,,3,,,59,43
10620,note_on,30,0,1,,,,,,,,,0,,,67,41
10740,note_on,0,0,5,,,,,,,,,4,,,57,39
10740,note_on,120,0,5,,,,,,,,,4,,,55,0
10740,note_on,0,0,1,,,,,,,,,0,,,67,0
10740,note_on,0,0,1,,,,,,,,,0,,,69,43
10740,note_on,0,0,1,,,,,,,,,0,,,72,43
10740,note_on,0,0,4,,,,,,,,,3,,,60,44
10740,note_on,120,0,4,,,,,,,,,3,,,59,0
10740,note_on,120,0,1,,,,,,,,,0,,,71,0
10800,note_on,240,0,8,,,,,,,,,7,,,43,47
10800,note_on,240,0,6,,,,,,,,,5,,,67,44
10800,note_on,0,0,5,,,,,,,,,4,,,59,39
10800,note_on,0,0,4,,,,,,,,,3,,,62,47
10800,note_on,60,0,4,,,,,,,,,3,,,60,0
10800,note_on,240,0,7,,,,,,,,,6,,,43,47
10800,note_on,60,0,5,,,,,,,,,4,,,57,0
10800,note_on,2040,0,2,,,,,,,,,1,,,55,43
10800,note_on,0,0,2,,,,,,,,,1,,,67,43
10800,note_on,60,0,1,,,,,,,,,0,,,72,0
10800,note_on,0,0,1,,,,,,,,,0,,,69,0
10800,note_on,0,0,1,,,,,,,,,0,,,74,46
10800,note_on,0,0,1,,,,,,,,,0,,,71,46
10920,note_on,0,0,5,,,,,,,,,4,,,62,39
10920,note_on,120,0,5,,,,,,,,,4,,,59,0
10920,note_on,0,0,4,,,,,,,,,3,,,67,47
10920,note_on,120,0,4,,,,,,,,,3,,,62,0
10920,note_on,120,0,7,,,,,,,,,6,,,43,0
10920,note_on,120,0,8,,,,,,,,,7,,,43,0
10920,note_on,0,0,1,,,,,,,,,0,,,71,0
10920,note_on,0,0,1,,,,,,,,,0,,,74,47
10920,note_on,0,0,1,,,,,,,,,0,,,79,47
10920,note_on,120,0,1,,,,,,,,,0,,,74,0
10980,note_on,0,0,5,,,,,,,,,4,,,55,39
10980,note_on,60,0,5,,,,,,,,,4,,,62,0
10980,note_on,0,0,1,,,,,,,,,0,,,74,0
10980,note_on,0,0,4,,,,,,,,,3,,,59,47
10980,note_on,60,0,4,,,,,,,,,3,,,67,0
10980,note_on,60,0,1,,,,,,,,,0,,,79,0
10980,note_on,0,0,1,,,,,,,,,0,,,67,47
10980,note_on,0,0,1,,,,,,,,,0,,,71,47
11100,note_on,0,0,1,,,,,,,,,0,,,67,0
11100,note_on,0,0,1,,,,,,,,,0,,,72,45
11100,note_on,120,0,1,,,,,,,,,0,,,71,0
11100,note_on,0,0,1,,,,,,,,,0,,,69,45
11100,note_on,0,0,4,,,,,,,,,3,,,60,48
11100,note_on,120,0,4,,,,,,,,,3,,,59,0
11100,note_on,120,0,5,,,,,,,,,4,,,55,0
11100,note_on,0,0,5,,,,,,,,,4,,,57,39
11160,note_on,60,0,1,,,,,,,,,0,,,72,0
11160,note_on,0,0,1,,,,,,,,,0,,,69,0
11160,note_on,0,0,1,,,,,,,,,0,,,71,45
11160,note_on,0,0,1,,,,,,,,,0,,,74,45
11160,note_on,0,0,5,,,,,,,,,4,,,59,39
11160,note_on,60,0,4,,,,,,,,,3,,,60,0
11160,note_on,0,0,4,,,,,,,,,3,,,62,49
11160,note_on,240,0,8,,,,,,,,,7,,,43,49
11160,note_on,240,0,7,,,,,,,,,6,,,43,49
11160,note_on,60,0,5,,,,,,,,,4,,,57,0
11280,note_on,120,0,1,,,,,,,,,0,,,74,0
11280,note_on,0,0,1,,,,,,,,,0,,,79,44
11280,note_on,0,0,1,,,,,,,,,0,,,71,0
11280,note_on,120,0,5,,,,,,,,,4,,,59,0
11280,note_on,0,0,1,,,,,,,,,0,,,74,44
11280,note_on,0,0,5,,,,,,,,,4,,,62,39
11280,note_on,0,0,4,,,,,,,,,3,,,67,49
11280,note_on,120,0,4,,,,,,,,,3,,,62,0
11340,note_on,60,0,5,,,,,,,,,4,,,62,0
11340,note_on,0,0,5,,,,,,,,,4,,,59,41
11340,note_on,60,0,1,,,,,,,,,0,,,79,0
11340,note_on,0,0,1,,,,,,,,,0,,,74,0
11340,note_on,0,0,1,,,,,,,,,0,,,71,43
11340,note_on,0,0,1,,,,,,,,,0,,,74,43
11340,note_on,0,0,8,,,,,,,,,7,,,43,49
11340,note_on,180,0,8,,,,,,,,,7,,,43,0
11340,note_on,0,0,7,,,,,,,,,6,,,43,49
11340,note_on,180,0,7,,,,,,,,,6,,,43,0
11340,note_on,60,0,4,,,,,,,,,3,,,67,0
11340,note_on,0,0,4,,,,,,,,,3,,,62,49
11460,note_on,0,0,1,,,,,,,,,0,,,71,0
11460,note_on,0,0,1,,,,,,,,,0,,,74,41
11460,note_on,0,0,5,,,,,,,,,4,,,62,44
11460,note_on,120,0,5,,,,,,,,,4,,,59,0
11460,note_on,120,0,4,,,,,,,,,3,,,62,0
11460,note_on,0,0,4,,,,,,,,,3,,,67,49
11460,note_on,120,0,1,,,,,,,,,0,,,74,0
11460,note_on,0,0,1,,,,,,,,,0,,,79,41
11520,note_on,60,0,1,,,,,,,,,0,,,79,0
11520,note_on,0,0,1,,,,,,,,,0,,,74,0
11520,note_on,0,0,1,,,,,,,,,0,,,76,41
11520,note_on,0,0,8,,,,,,,,,7,,,48,47
11520,note_on,720,0,2,,,,,,,,,1,,,67,0
11520,note_on,0,0,2,,,,,,,,,1,,,55,0
11520,note_on,180,0,8,,,,,,,,,7,,,43,0
11520,note_on,0,0,1,,,,,,,,,0,,,72,41
11520,note_on,0,0,7,,,,,,,,,6,,,48,47
11520,note_on,180,0,7,,,,,,,,,6,,,43,0
11520,note_on,0,0,4,,,,,,,,,3,,,64,49
11520,note_on,60,0,4,,,,,,,,,3,,,67,0
11520,note_on,0,0,5,,,,,,,,,4,,,60,47
11520,note_on,60,0,5,,,,,,,,,4,,,62,0
11520,note_on,720,0,6,,,,,,,,,5,,,67,0
11580,note_on,60,0,4,,,,,,,,,3,,,64,0
11580,note_on,0,0,4,,,,,,,,,3,,,66,49
11580,note_on,0,0,1,,,,,,,,,0,,,74,42
11580,note_on,0,0,1,,,,,,,,,0,,,72,0
11580,note_on,0,0,1,,,,,,,,,0,,,78,42
11580,note_on,60,0,1,,,,,,,,,0,,,76,0
11580,note_on,0,0,5,,,,,,,,,4,,,62,47
11580,note_on,60,0,5,,,,,,,,,4,,,60,0
11640,note_on,60,0,4,,,,,,,,,3,,,66,0
11640,note_on,120,0,7,,,,,,,,,6,,,48,0
11640,note_on,120,0,8,,,,,,,,,7,,,48,0
11640,note_on,60,0,5,,,,,,,,,4,,,62,0
11640,note_on,0,0,5,,,,,,,,,4,,,64,48
11640,note_on,0,0,4,,,,,,,,,3,,,67,49
11640,note_on,60,0,1,,,,,,,,,0,,,78,0
11640,note_on,0,0,1,,,,,,,,,0,,,74,0
11640,note_on,0,0,1,,,,,,,,,0,,,76,44
11640,note_on,0,0,1,,,,,,,,,0,,,79,44
11700,note_on,0,0,4,,,,,,,,,3,,,69,49
11700,note_on,60,0,7,,,,,,,,,6,,,50,46
11700,note_on,0,0,1,,,,,,,,,0,,,81,45
11700,note_on,0,0,5,,,,,,,,,4,,,60,48
11700,note_on,60,0,8,,,,,,,,,7,,,50,46
11700,note_on,60,0,4,,,,,,,,,3,,,67,0
11700,note_on,60,0,1,,,,,,,,,0,,,79,0
11700,note_on,0,0,1,,,,,,,,,0,,,76,0
11700,note_on,0,0,1,,,,,,,,,0,,,72,45
11700,note_on,60,0,5,,,,,,,,,4,,,64,0
11760,note_on,60,0,5,,,,,,,,,4,,,60,0
11760,note_on,0,0,5,,,,,,,,,4,,,59,48
11760,note_on,0,0,1,,,,,,,,,0,,,79,46
11760,note_on,0,0,1,,,,,,,,,0,,,71,46
11760,note_on,0,0,4,,,,,,,,,3,,,67,49
11760,note_on,60,0,4,,,,,,,,,3,,,69,0
11760,note_on,0,0,1,,,,,,,,,0,,,72,0
11760,note_on,60,0,1,,,,,,,,,0,,,81,0
11820,note_on,60,0,5,,,,,,,,,4,,,59,0
11820,note_on,0,0,5,,,,,,,,,4,,,57,48
11820,note_on,0,0,1,,,,,,,,,0,,,69,47
11820,note_on,120,0,7,,,,,,,,,6,,,50,0
11820,note_on,0,0,1,,,,,,,,,0,,,78,47
11820,note_on,120,0,8,,,,,,,,,7,,,50,0
11820,note_on,0,0,4,,,,,,,,,3,,,66,49
11820,note_on,0,0,1,,,,,,,,,0,,,71,0
11820,note_on,60,0,1,,,,,,,,,0,,,79,0
11820,note_on,60,0,4,,,,,,,,,3,,,67,0
11880,note_on,0,0,3,,,,,,,,,2,,,67,100
11880,note_on,60,0,7,,,,,,,,,6,,,43,100
11880,note_on,60,0,8,,,,,,,,,7,,,43,100
11880,note_on,0,0,8,,,,,,,,,7,,,55,100
11880,note_on,3120,0,3,,,,,,,,,2,,,55,100
11880,note_on,0,0,7,,,,,,,,,6,,,55,100
11880,note_on,360,0,6,,,,,,,,,5,,,67,100
11880,note_on,0,0,2,,,,,,,,,1,,,67,100
11880,note_on,60,0,5,,,,,,,,,4,,,57,0
11880,note_on,360,0,2,,,,,,,,,1,,,74,100
11880,note_on,0,0,1,,,,,,,,,0,,,79,100
11880,note_on,0,0,1,,,,,,,,,0,,,71,100
11880,note_on,0,0,1,,,,,,,,,0,,,69,0
11880,note_on,0,0,5,,,,,,,,,4,,,59,100
11880,note_on,0,0,4,,,,,,,,,3,,,67,100
11880,note_on,60,0,1,,,,,,,,,0,,,78,0
11880,note_on,60,0,4,,,,,,,,,3,,,66,0
11940,note_on,0,0,6,,,,,,,,,5,,,67,100
11940,note_on,0,0,7,,,,,,,,,6,,,43,0
11940,note_on,60,0,7,,,,,,,,,6,,,55,0
11940,note_on,60,0,8,,,,,,,,,7,,,55,0
11940,note_on,0,0,8,,,,,,,,,7,,,43,0
11940,note_on,0,0,8,,,,,,,,,7,,,43,100
11940,note_on,0,0,8,,,,,,,,,7,,,55,100
11940,note_on,60,0,6,,,,,,,,,5,,,67,0
11940,note_on,0,0,7,,,,,,,,,6,,,55,100
11940,note_on,0,0,7,,,,,,,,,6,,,43,100
12000,note_on,0,0,5,,,,,,,,,4,,,79,100
12000,note_on,120,0,3,,,,,,,,,2,,,67,0
12000,note_on,60,0,6,,,,,,,,,5,,,67,0
12000,note_on,60,0,8,,,,,,,,,7,,,55,0
12000,note_on,0,0,8,,,,,,,,,7,,,43,0
12000,note_on,0,0,8,,,,,,,,,7,,,43,100
12000,note_on,0,0,8,,,,,,,,,7,,,55,100
12000,note_on,120,0,5,,,,,,,,,4,,,59,0
12000,note_on,0,0,3,,,,,,,,,2,,,55,0
12000,note_on,120,0,1,,,,,,,,,0,,,79,0
12000,note_on,0,0,1,,,,,,,,,0,,,83,100
12000,note_on,0,0,1,,,,,,,,,0,,,71,0
12000,note_on,0,0,6,,,,,,,,,5,,,67,100
12000,note_on,60,0,7,,,,,,,,,6,,,55,0
12000,note_on,0,0,7,,,,,,,,,6,,,43,0
12000,note_on,0,0,7,,,,,,,,,6,,,43,100
12000,note_on,0,0,7,,,,,,,,,6,,,55,100
12000,note_on,0,0,4,,,,,,,,,3,,,83,100
12000,note_on,120,0,4,,,,,,,,,3,,,67,0
12000,note_on,0,0,1,,,,,,,,,0,,,79,100
12060,note_on,0,0,7,,,,,,,,,6,,,47,100
12060,note_on,60,0,7,,,,,,,,,6,,,55,0
12060,note_on,0,0,7,,,,,,,,,6,,,35,100
12060,note_on,0,0,5,,,,,,,,,4,,,79,100
12060,note_on,60,0,4,,,,,,,,,3,,,83,0
12060,note_on,0,0,4,,,,,,,,,3,,,83,100
12060,note_on,0,0,1,,,,,,,,,0,,,79,100
12060,note_on,0,0,1,,,,,,,,,0,,,83,100
12060,note_on,0,0,1,,,,,,,,,0,,,83,0
12060,note_on,60,0,1,,,,,,,,,0,,,79,0
12060,note_on,0,0,7,,,,,,,,,6,,,43,0
12060,note_on,0,0,8,,,,,,,,,7,,,47,100
12060,note_on,60,0,5,,,,,,,,,4,,,79,0
12060,note_on,0,0,8,,,,,,,,,7,,,43,0
12060,note_on,60,0,6,,,,,,,,,5,,,67,0
12060,note_on,60,0,8,,,,,,,,,7,,,55,0
12060,note_on,0,0,6,,,,,,,,,5,,,62,100
12060,note_on,0,0,8,,,,,,,,,7,,,35,100
12120,note_on,60,0,7,,,,,,,,,6,,,47,0
12120,note_on,0,0,5,,,,,,,,,4,,,79,100
12120,note_on,0,0,7,,,,,,,,,6,,,47,100
12120,note_on,60,0,5,,,,,,,,,4,,,79,0
12120,note_on,0,0,1,,,,,,,,,0,,,79,100
12120,note_on,0,0,7,,,,,,,,,6,,,35,0
12120,note_on,60,0,4,,,,,,,,,3,,,83,0
12120,note_on,0,0,4,,,,,,,,,3,,,83,100
12120,note_on,0,0,1,,,,,,,,,0,,,83,0
12120,note_on,60,0,1,,,,,,,,,0,,,79,0
12120,note_on,60,0,6,,,,,,,,,5,,,62,0
12120,note_on,0,0,6,,,,,,,,,5,,,62,100
12120,note_on,0,0,8,,,,,,,,,7,,,47,100
12120,note_on,0,0,8,,,,,,,,,7,,,35,100
12120,note_on,0,0,8,,,,,,,,,7,,,35,0
12120,note_on,60,0,8,,,,,,,,,7,,,47,0
12120,note_on,0,0,1,,,,,,,,,0,,,83,100
12120,note_on,0,0,7,,,,,,,,,6,,,35,100
12180,note_on,60,0,6,,,,,,,,,5,,,62,0
12180,note_on,0,0,7,,,,,,,,,6,,,47,100
12180,note_on,0,0,7,,,,,,,,,6,,,35,100
12180,note_on,0,0,7,,,,,,,,,6,,,35,0
12180,note_on,0,0,6,,,,,,,,,5,,,62,100
12180,note_on,60,0,7,,,,,,,,,6,,,47,0
12180,note_on,0,0,1,,,,,,,,,0,,,79,100
12180,note_on,60,0,5,,,,,,,,,4,,,79,0
12180,note_on,0,0,1,,,,,,,,,0,,,83,100
12180,note_on,0,0,1,,,,,,,,,0,,,83,0
12180,note_on,60,0,1,,,,,,,,,0,,,79,0
12180,note_on,0,0,4,,,,,,,,,3,,,83,100
12180,note_on,60,0,4,,,,,,,,,3,,,83,0
12180,note_on,0,0,8,,,,,,,,,7,,,47,100
12180,note_on,0,0,8,,,,,,,,,7,,,35,100
12180,note_on,0,0,8,,,,,,,,,7,,,35,0
12180,note_on,60,0,8,,,,,,,,,7,,,47,0
12180,note_on,0,0,5,,,,,,,,,4,,,79,100
12240,note_on,360,0,2,,,,,,,,,1,,,74,0
12240,note_on,0,0,2,,,,,,,,,1,,,76,100
12240,note_on,0,0,1,,,,,,,,,0,,,79,100
12240,note_on,60,0,6,,,,,,,,,5,,,62,0
12240,note_on,0,0,1,,,,,,,,,0,,,83,100
12240,note_on,0,0,1,,,,,,,,,0,,,83,0
12240,note_on,60,0,1,,,,,,,,,0,,,79,0
12240,note_on,0,0,6,,,,,,,,,5,,,64,100
12240,note_on,0,0,7,,,,,,,,,6,,,48,100
12240,note_on,240,0,3,,,,,,,,,2,,,55,100
12240,note_on,60,0,5,,,,,,,,,4,,,79,0
12240,note_on,60,0,8,,,,,,,,,7,,,47,0
12240,note_on,0,0,8,,,,,,,,,7,,,35,0
12240,note_on,0,0,8,,,,,,,,,7,,,36,100
12240,note_on,0,0,8,,,,,,,,,7,,,48,100
12240,note_on,60,0,4,,,,,,,,,3,,,83,0
12240,note_on,0,0,4,,,,,,,,,3,,,83,100
12240,note_on,0,0,7,,,,,,,,,6,,,36,100
12240,note_on,0,0,7,,,,,,,,,6,,,35,0
12240,note_on,60,0,7,,,,,,,,,6,,,47,0
12240,note_on,0,0,5,,,,,,,,,4,,,79,100
12240,note_on,0,0,3,,,,,,,,,2,,,67,100
12245,note_on,0,0,4,,,,,,,,,3,,,84,100
12245,note_on,5,0,5,,,,,,,,,4,,,79,0
12245,note_on,0,0,5,,,,,,,,,4,,,81,100
12245,note_on,5,0,4,,,,,,,,,3,,,83,0
12250,note_on,0,0,5,,,,,,,,,4,,,79,100
12250,note_on,5,0,5,,,,,,,,,4,,,81,0
12250,note_on,0,0,4,,,,,,,,,3,,,83,100
12250,note_on,5,0,4,,,,,,,,,3,,,84,0
12255,note_on,0,0,5,,,,,,,,,4,,,78,100
12255,note_on,0,0,4,,,,,,,,,3,,,81,100
12255,note_on,5,0,4,,,,,,,,,3,,,83,0
12255,note_on,5,0,5,,,,,,,,,4,,,79,0
12270,note_on,0,0,4,,,,,,,,,3,,,83,100
12270,note_on,15,0,4,,,,,,,,,3,,,81,0
12270,note_on,0,0,5,,,,,,,,,4,,,79,100
12270,note_on,15,0,5,,,,,,,,,4,,,78,0
12300,note_on,30,0,4,,,,,,,,,3,,,83,0
12300,note_on,60,0,6,,,,,,,,,5,,,64,0
12300,note_on,0,0,8,,,,,,,,,7,,,36,100
12300,note_on,0,0,7,,,,,,,,,6,,,48,100
12300,note_on,0,0,7,,,,,,,,,6,,,36,100
12300,note_on,60,0,7,,,,,,,,,6,,,48,0
12300,note_on,0,0,6,,,,,,,,,5,,,64,100
12300,note_on,0,0,8,,,,,,,,,7,,,36,0
12300,note_on,30,0,5,,,,,,,,,4,,,79,0
12300,note_on,0,0,7,,,,,,,,,6,,,36,0
12300,note_on,60,0,8,,,,,,,,,7,,,48,0
12300,note_on,0,0,8,,,,,,,,,7,,,48,100
12360,note_on,60,0,8,,,,,,,,,7,,,48,0
12360,note_on,0,0,8,,,,,,,,,7,,,36,0
12360,note_on,0,0,8,,,,,,,,,7,,,36,100
12360,note_on,0,0,8,,,,,,,,,7,,,48,100
12360,note_on,0,0,7,,,,,,,,,6,,,36,0
12360,note_on,60,0,7,,,,,,,,,6,,,48,0
12360,note_on,120,0,3,,,,,,,,,2,,,67,0
12360,note_on,0,0,3,,,,,,,,,2,,,55,0
12360,note_on,0,0,7,,,,,,,,,6,,,48,100
12360,note_on,0,0,7,,,,,,,,,6,,,36,100
12360,note_on,60,0,6,,,,,,,,,5,,,64,0
12360,note_on,0,0,6,,,,,,,,,5,,,64,100
12420,note_on,0,0,7,,,,,,,,,6,,,38,100
12420,note_on,60,0,8,,,,,,,,,7,,,48,0
12420,note_on,0,0,8,,,,,,,,,7,,,36,0
12420,note_on,0,0,8,,,,,,,,,7,,,38,100
12420,note_on,180,0,2,,,,,,,,,1,,,76,0
12420,note_on,0,0,7,,,,,,,,,6,,,36,0
12420,note_on,0,0,2,,,,,,,,,1,,,78,100
12420,note_on,120,0,4,,,,,,,,,3,,,83,100
12420,note_on,60,0,6,,,,,,,,,5,,,64,0
12420,note_on,120,0,5,,,,,,,,,4,,,79,100
12420,note_on,0,0,6,,,,,,,,,5,,,66,100
12420,note_on,60,0,7,,,,,,,,,6,,,48,0
12420,note_on,0,0,8,,,,,,,,,7,,,50,100
12420,note_on,0,0,7,,,,,,,,,6,,,50,100
12425,note_on,5,0,4,,,,,,,,,3,,,83,0
12425,note_on,5,0,5,,,,,,,,,4,,,79,0
12425,note_on,0,0,4,,,,,,,,,3,,,84,100
12425,note_on,0,0,5,,,,,,,,,4,,,81,100
12430,note_on,5,0,4,,,,,,,,,3,,,84,0
12430,note_on,0,0,4,,,,,,,,,3,,,83,100
12430,note_on,5,0,5,,,,,,,,,4,,,81,0
12430,note_on,0,0,5,,,,,,,,,4,,,79,100
12435,note_on,5,0,4,,,,,,,,,3,,,83,0
12435,note_on,0,0,5,,,,,,,,,4,,,78,100
12435,note_on,5,0,5,,,,,,,,,4,,,79,0
12435,note_on,0,0,4,,,,,,,,,3,,,81,100
12450,note_on,15,0,5,,,,,,,,,4,,,78,0
12450,note_on,0,0,5,,,,,,,,,4,,,79,100
12450,note_on,0,0,4,,,,,,,,,3,,,83,100
12450,note_on,15,0,4,,,,,,,,,3,,,81,0
12480,note_on,0,0,8,,,,,,,,,7,,,38,100
12480,note_on,30,0,5,,,,,,,,,4,,,79,0
12480,note_on,0,0,8,,,,,,,,,7,,,50,100
12480,note_on,0,0,6,,,,,,,,,5,,,66,100
12480,note_on,60,0,6,,,,,,,,,5,,,66,0
12480,note_on,30,0,4,,,,,,,,,3,,,83,0
12480,note_on,0,0,7,,,,,,,,,6,,,38,0
12480,note_on,0,0,7,,,,,,,,,6,,,38,100
12480,note_on,0,0,7,,,,,,,,,6,,,50,100
12480,note_on,0,0,8,,,,,,,,,7,,,38,0
12480,note_on,60,0,8,,,,,,,,,7,,,50,0
12480,note_on,60,0,7,,,,,,,,,6,,,50,0
12540,note_on,0,0,8,,,,,,,,,7,,,50,100
12540,note_on,60,0,7,,,,,,,,,6,,,50,0
12540,note_on,60,0,6,,,,,,,,,5,,,66,0
12540,note_on,0,0,6,,,,,,,,,5,,,66,100
12540,note_on,0,0,7,,,,,,,,,6,,,38,0
12540,note_on,60,0,8,,,,,,,,,7,,,50,0
12540,note_on,0,0,7,,,,,,,,,6,,,38,100
12540,note_on,0,0,8,,,,,,,,,7,,,38,0
12540,note_on,0,0,7,,,,,,,,,6,,,50,100
12540,note_on,0,0,8,,,,,,,,,7,,,38,100
12600,note_on,0,0,7,,,,,,,,,6,,,40,100
12600,note_on,60,0,8,,,,,,,,,7,,,50,0
12600,note_on,0,0,8,,,,,,,,,7,,,38,0
12600,note_on,240,0,3,,,,,,,,,2,,,55,100
12600,note_on,60,0,6,,,,,,,,,5,,,66,0
12600,note_on,0,0,6,,,,,,,,,5,,,67,100
12600,note_on,180,0,2,,,,,,,,,1,,,78,0
12600,note_on,0,0,2,,,,,,,,,1,,,79,100
12600,note_on,0,0,7,,,,,,,,,6,,,52,100
12600,note_on,120,0,5,,,,,,,,,4,,,79,100
12600,note_on,120,0,4,,,,,,,,,3,,,83,100
12600,note_on,0,0,8,,,,,,,,,7,,,52,100
12600,note_on,60,0,7,,,,,,,,,6,,,50,0
12600,note_on,0,0,7,,,,,,,,,6,,,38,0
12600,note_on,0,0,8,,,,,,,,,7,,,40,100
12600,note_on,0,0,3,,,,,,,,,2,,,67,100
12605,note_on,5,0,5,,,,,,,,,4,,,79,0
12605,note_on,0,0,5,,,,,,,,,4,,,81,100
12605,note_on,0,0,4,,,,,,,,,3,,,84,100
12605,note_on,5,0,4,,,,,,,,,3,,,83,0
12610,note_on,0,0,5,,,,,,,,,4,,,79,100
12610,note_on,5,0,5,,,,,,,,,4,,,81,0
12610,note_on,5,0,4,,,,,,,,,3,,,84,0
12610,note_on,0,0,4,,,,,,,,,3,,,83,100
12615,note_on,5,0,5,,,,,,,,,4,,,79,0
12615,note_on,0,0,5,,,,,,,,,4,,,78,100
12615,note_on,0,0,4,,,,,,,,,3,,,81,100
12615,note_on,5,0,4,,,,,,,,,3,,,83,0
12630,note_on,0,0,5,,,,,,,,,4,,,79,100
12630,note_on,0,0,4,,,,,,,,,3,,,83,100
12630,note_on,15,0,5,,,,,,,,,4,,,78,0
12630,note_on,15,0,4,,,,,,,,,3,,,81,0
12660,note_on,0,0,8,,,,,,,,,7,,,40,100
12660,note_on,30,0,4,,,,,,,,,3,,,83,0
12660,note_on,0,0,6,,,,,,,,,5,,,67,100
12660,note_on,0,0,8,,,,,,,,,7,,,40,0
12660,note_on,0,0,8,,,,,,,,,7,,,52,100
12660,note_on,0,0,7,,,,,,,,,6,,,52,100
12660,note_on,0,0,7,,,,,,,,,6,,,40,100
12660,note_on,0,0,7,,,,,,,,,6,,,40,0
12660,note_on,30,0,5,,,,,,,,,4,,,79,0
12660,note_on,60,0,8,,,,,,,,,7,,,52,0
12660,note_on,60,0,6,,,,,,,,,5,,,67,0
12660,note_on,60,0,7,,,,,,,,,6,,,52,0
12720,note_on,0,0,7,,,,,,,,,6,,,52,100
12720,note_on,60,0,6,,,,,,,,,5,,,67,0
12720,note_on,0,0,6,,,,,,,,,5,,,67,100
12720,note_on,0,0,1,,,,,,,,,0,,,79,0
12720,note_on,480,0,1,,,,,,,,,0,,,83,0
12720,note_on,60,0,8,,,,,,,,,7,,,52,0
12720,note_on,0,0,1,,,,,,,,,0,,,83,100
12720,note_on,0,0,8,,,,,,,,,7,,,40,0
12720,note_on,60,0,4,,,,,,,,,3,,,83,100
12720,note_on,0,0,8,,,,,,,,,7,,,40,100
12720,note_on,0,0,8,,,,,,,,,7,,,52,100
12720,note_on,0,0,3,,,,,,,,,2,,,55,0
12720,note_on,120,0,3,,,,,,,,,2,,,67,0
12720,note_on,0,0,7,,,,,,,,,6,,,40,100
12720,note_on,0,0,1,,,,,,,,,0,,,79,100
12720,note_on,60,0,5,,,,,,,,,4,,,79,100
12720,note_on,60,0,7,,,,,,,,,6,,,52,0
12720,note_on,0,0,7,,,,,,,,,6,,,40,0
12780,note_on,0,0,1,,,,,,,,,0,,,83,100
12780,note_on,0,0,8,,,,,,,,,7,,,40,0
12780,note_on,60,0,8,,,,,,,,,7,,,52,0
12780,note_on,0,0,7,,,,,,,,,6,,,47,100
12780,note_on,0,0,7,,,,,,,,,6,,,40,0
12780,note_on,0,0,2,,,,,,,,,1,,,74,100
12780,note_on,60,0,7,,,,,,,,,6,,,52,0
12780,note_on,0,0,8,,,,,,,,,7,,,35,100
12780,note_on,60,0,6,,,,,,,,,5,,,67,0
12780,note_on,0,0,6,,,,,,,,,5,,,62,100
12780,note_on,60,0,1,,,,,,,,,0,,,83,0
12780,note_on,0,0,1,,,,,,,,,0,,,79,0
12780,note_on,0,0,1,,,,,,,,,0,,,79,100
12780,note_on,60,0,4,,,,,,,,,3,,,83,0
12780,note_on,0,0,4,,,,,,,,,3,,,83,100
12780,note_on,180,0,2,,,,,,,,,1,,,79,0
12780,note_on,0,0,5,,,,,,,,,4,,,79,100
12780,note_on,60,0,5,,,,,,,,,4,,,79,0
12780,note_on,0,0,7,,,,,,,,,6,,,35,100
12780,note_on,0,0,8,,,,,,,,,7,,,47,100
12840,note_on,60,0,8,,,,,,,,,7,,,47,0
12840,note_on,0,0,8,,,,,,,,,7,,,35,100
12840,note_on,60,0,4,,,,,,,,,3,,,83,0
12840,note_on,0,0,4,,,,,,,,,3,,,83,100
12840,note_on,60,0,1,,,,,,,,,0,,,83,0
12840,note_on,0,0,1,,,,,,,,,0,,,79,0
12840,note_on,0,0,1,,,,,,,,,0,,,83,100
12840,note_on,0,0,8,,,,,,,,,7,,,35,0
12840,note_on,60,0,5,,,,,,,,,4,,,79,0
12840,note_on,0,0,5,,,,,,,,,4,,,79,100
12840,note_on,0,0,6,,,,,,,,,5,,,62,100
12840,note_on,60,0,6,,,,,,,,,5,,,62,0
12840,note_on,60,0,7,,,,,,,,,6,,,47,0
12840,note_on,0,0,7,,,,,,,,,6,,,35,0
12840,note_on,0,0,7,,,,,,,,,6,,,35,100
12840,note_on,0,0,1,,,,,,,,,0,,,79,100
12840,note_on,0,0,7,,,,,,,,,6,,,47,100
12840,note_on,0,0,8,,,,,,,,,7,,,47,100
12900,note_on,0,0,7,,,,,,,,,6,,,35,0
12900,note_on,60,0,7,,,,,,,,,6,,,47,0
12900,note_on,0,0,7,,,,,,,,,6,,,47,100
12900,note_on,0,0,8,,,,,,,,,7,,,47,100
12900,note_on,60,0,4,,,,,,,,,3,,,83,0
12900,note_on,0,0,8,,,,,,,,,7,,,35,100
12900,note_on,0,0,8,,,,,,,,,7,,,35,0
12900,note_on,60,0,8,,,,,,,,,7,,,47,0
12900,note_on,60,0,6,,,,,,,,,5,,,62,0
12900,note_on,0,0,6,,,,,,,,,5,,,62,100
12900,note_on,0,0,5,,,,,,,,,4,,,79,100
12900,note_on,60,0,5,,,,,,,,,4,,,79,0
12900,note_on,60,0,1,,,,,,,,,0,,,83,0
12900,note_on,0,0,7,,,,,,,,,6,,,35,100
12900,note_on,0,0,4,,,,,,,,,3,,,83,100
12900,note_on,0,0,1,,,,,,,,,0,,,79,0
12900,note_on,0,0,1,,,,,,,,,0,,,79,100
12900,note_on,0,0,1,,,,,,,,,0,,,83,100
12960,note_on,0,0,2,,,,,,,,,1,,,76,100
12960,note_on,60,0,4,,,,,,,,,3,,,83,0
12960,note_on,0,0,1,,,,,,,,,0,,,79,0
12960,note_on,0,0,1,,,,,,,,,0,,,81,100
12960,note_on,0,0,1,,,,,,,,,0,,,79,100
12960,note_on,60,0,5,,,,,,,,,4,,,79,0
12960,note_on,0,0,5,,,,,,,,,4,,,72,100
12960,note_on,0,0,8,,,,,,,,,7,,,48,100
12960,note_on,0,0,8,,,,,,,,,7,,,36,100
12960,note_on,0,0,8,,,,,,,,,7,,,35,0
12960,note_on,60,0,8,,,,,,,,,7,,,47,0
12960,note_on,240,0,3,,,,,,,,,2,,,72,100
12960,note_on,0,0,2,,,,,,,,,1,,,72,100
12960,note_on,0,0,4,,,,,,,,,3,,,81,100
12960,note_on,0,0,2,,,,,,,,,1,,,67,0
12960,note_on,180,0,2,,,,,,,,,1,,,74,0
12960,note_on,60,0,6,,,,,,,,,5,,,62,0
12960,note_on,0,0,3,,,,,,,,,2,,,76,100
12960,note_on,0,0,7,,,,,,,,,6,,,48,100
12960,note_on,0,0,7,,,,,,,,,6,,,36,100
12960,note_on,60,0,7,,,,,,,,,6,,,47,0
12960,note_on,0,0,7,,,,,,,,,6,,,35,0
12960,note_on,60,0,1,,,,,,,,,0,,,83,0
12960,note_on,0,0,6,,,,,,,,,5,,,64,100
12965,note_on,0,0,5,,,,,,,,,4,,,74,100
12965,note_on,5,0,5,,,,,,,,,4,,,72,0
12965,note_on,0,0,4,,,,,,,,,3,,,83,100
12965,note_on,5,0,4,,,,,,,,,3,,,81,0
12970,note_on,5,0,4,,,,,,,,,3,,,83,0
12970,note_on,0,0,4,,,,,,,,,3,,,81,100
12970,note_on,5,0,5,,,,,,,,,4,,,74,0
12970,note_on,0,0,5,,,,,,,,,4,,,72,100
12975,note_on,5,0,4,,,,,,,,,3,,,81,0
12975,note_on,0,0,4,,,,,,,,,3,,,79,100
12975,note_on,5,0,5,,,,,,,,,4,,,72,0
12975,note_on,0,0,5,,,,,,,,,4,,,71,100
12990,note_on,0,0,5,,,,,,,,,4,,,72,100
12990,note_on,15,0,5,,,,,,,,,4,,,71,0
12990,note_on,0,0,4,,,,,,,,,3,,,81,100
12990,note_on,15,0,4,,,,,,,,,3,,,79,0
13020,note_on,0,0,7,,,,,,,,,6,,,36,0
13020,note_on,60,0,8,,,,,,,,,7,,,48,0
13020,note_on,0,0,7,,,,,,,,,6,,,36,100
13020,note_on,0,0,7,,,,,,,,,6,,,48,100
13020,note_on,60,0,6,,,,,,,,,5,,,64,0
13020,note_on,0,0,8,,,,,,,,,7,,,36,100
13020,note_on,0,0,8,,,,,,,,,7,,,36,0
13020,note_on,60,0,7,,,,,,,,,6,,,48,0
13020,note_on,0,0,8,,,,,,,,,7,,,48,100
13020,note_on,0,0,6,,,,,,,,,5,,,64,100
13020,note_on,30,0,4,,,,,,,,,3,,,81,0
13020,note_on,30,0,5,,,,,,,,,4,,,72,0
13080,note_on,0,0,8,,,,,,,,,7,,,48,100
13080,note_on,0,0,8,,,,,,,,,7,,,36,100
13080,note_on,0,0,8,,,,,,,,,7,,,36,0
13080,note_on,60,0,6,,,,,,,,,5,,,64,0
13080,note_on,60,0,7,,,,,,,,,6,,,48,0
13080,note_on,0,0,6,,,,,,,,,5,,,64,100
13080,note_on,60,0,8,,,,,,,,,7,,,48,0
13080,note_on,0,0,7,,,,,,,,,6,,,36,0
13080,note_on,0,0,7,,,,,,,,,6,,,36,100
13080,note_on,0,0,7,,,,,,,,,6,,,48,100
13140,note_on,0,0,7,,,,,,,,,6,,,50,100
13140,note_on,0,0,3,,,,,,,,,2,,,74,100
13140,note_on,0,0,2,,,,,,,,,1,,,74,100
13140,note_on,0,0,8,,,,,,,,,7,,,50,100
13140,note_on,0,0,8,,,,,,,,,7,,,38,100
13140,note_on,0,0,8,,,,,,,,,7,,,36,0
13140,note_on,60,0,8,,,,,,,,,7,,,48,0
13140,note_on,60,0,6,,,,,,,,,5,,,64,0
13140,note_on,0,0,6,,,,,,,,,5,,,60,100
13140,note_on,120,0,4,,,,,,,,,3,,,81,100
13140,note_on,60,0,7,,,,,,,,,6,,,48,0
13140,note_on,180,0,1,,,,,,,,,0,,,79,0
13140,note_on,0,0,2,,,,,,,,,1,,,72,0
13140,note_on,0,0,7,,,,,,,,,6,,,36,0
13140,note_on,180,0,3,,,,,,,,,2,,,76,0
13140,note_on,120,0,5,,,,,,,,,4,,,78,100
13140,note_on,0,0,1,,,,,,,,,0,,,78,100
13140,note_on,0,0,7,,,,,,,,,6,,,38,100
13140,note_on,180,0,2,,,,,,,,,1,,,76,0
13140,note_on,0,0,3,,,,,,,,,2,,,72,0
13145,note_on,0,0,4,,,,,,,,,3,,,83,100
13145,note_on,5,0,4,,,,,,,,,3,,,81,0
13145,note_on,5,0,5,,,,,,,,,4,,,78,0
13145,note_on,0,0,5,,,,,,,,,4,,,79,100
13150,note_on,5,0,4,,,,,,,,,3,,,83,0
13150,note_on,0,0,5,,,,,,,,,4,,,78,100
13150,note_on,5,0,5,,,,,,,,,4,,,79,0
13150,note_on,0,0,4,,,,,,,,,3,,,81,100
13155,note_on,5,0,4,,,,,,,,,3,,,81,0
13155,note_on,0,0,4,,,,,,,,,3,,,79,100
13155,note_on,0,0,5,,,,,,,,,4,,,76,100
13155,note_on,5,0,5,,,,,,,,,4,,,78,0
13170,note_on,0,0,5,,,,,,,,,4,,,78,100
13170,note_on,15,0,5,,,,,,,,,4,,,76,0
13170,note_on,15,0,4,,,,,,,,,3,,,79,0
13170,note_on,0,0,4,,,,,,,,,3,,,81,100
13200,note_on,60,0,6,,,,,,,,,5,,,60,0
13200,note_on,0,0,7,,,,,,,,,6,,,38,0
13200,note_on,60,0,7,,,,,,,,,6,,,50,0
13200,note_on,60,0,8,,,,,,,,,7,,,50,0
13200,note_on,0,0,8,,,,,,,,,7,,,38,0
13200,note_on,0,0,8,,,,,,,,,7,,,38,100
13200,note_on,0,0,8,,,,,,,,,7,,,50,100
13200,note_on,30,0,4,,,,,,,,,3,,,81,0
13200,note_on,30,0,5,,,,,,,,,4,,,78,0
13200,note_on,0,0,6,,,,,,,,,5,,,60,100
13200,note_on,0,0,7,,,,,,,,,6,,,38,100
13200,note_on,0,0,7,,,,,,,,,6,,,50,100
13260,note_on,0,0,6,,,,,,,,,5,,,60,100
13260,note_on,60,0,6,,,,,,,,,5,,,60,0
13260,note_on,0,0,8,,,,,,,,,7,,,50,100
13260,note_on,0,0,7,,,,,,,,,6,,,38,0
13260,note_on,0,0,7,,,,,,,,,6,,,50,100
13260,note_on,60,0,8,,,,,,,,,7,,,50,0
13260,note_on,0,0,8,,,,,,,,,7,,,38,0
13260,note_on,0,0,8,,,,,,,,,7,,,38,100
13260,note_on,60,0,7,,,,,,,,,6,,,50,0
13260,note_on,0,0,7,,,,,,,,,6,,,38,100
13320,note_on,120,0,4,,,,,,,,,3,,,79,100
13320,note_on,120,0,5,,,,,,,,,4,,,79,100
13320,note_on,0,0,3,,,,,,,,,2,,,67,100
13320,note_on,0,0,3,,,,,,,,,2,,,74,100
13320,note_on,0,0,2,,,,,,,,,1,,,74,100
13320,note_on,0,0,7,,,,,,,,,6,,,38,0
13320,note_on,60,0,6,,,,,,,,,5,,,60,0
13320,note_on,0,0,6,,,,,,,,,5,,,59,100
13320,note_on,0,0,1,,,,,,,,,0,,,79,100
13320,note_on,0,0,1,,,,,,,,,0,,,81,0
13320,note_on,60,0,8,,,,,,,,,7,,,50,0
13320,note_on,0,0,8,,,,,,,,,7,,,38,0
13320,note_on,60,0,7,,,,,,,,,6,,,50,0
13320,note_on,0,0,8,,,,,,,,,7,,,31,100
13320,note_on,180,0,1,,,,,,,,,0,,,78,0
13320,note_on,0,0,2,,,,,,,,,1,,,67,100
13320,note_on,180,0,2,,,,,,,,,1,,,74,0
13320,note_on,180,0,3,,,,,,,,,2,,,74,0
13320,note_on,0,0,7,,,,,,,,,6,,,43,100
13320,note_on,0,0,7,,,,,,,,,6,,,31,100
13320,note_on,0,0,8,,,,,,,,,7,,,43,100
13380,note_on,0,0,7,,,,,,,,,6,,,31,100
13380,note_on,0,0,8,,,,,,,,,7,,,31,100
13380,note_on,60,0,8,,,,,,,,,7,,,43,0
13380,note_on,0,0,7,,,,,,,,,6,,,31,0
13380,note_on,0,0,7,,,,,,,,,6,,,43,100
13380,note_on,60,0,7,,,,,,,,,6,,,43,0
13380,note_on,0,0,8,,,,,,,,,7,,,43,100
13380,note_on,0,0,8,,,,,,,,,7,,,31,0
13380,note_on,60,0,6,,,,,,,,,5,,,59,0
13380,note_on,0,0,6,,,,,,,,,5,,,59,100
13440,note_on,120,0,3,,,,,,,,,2,,,74,0
13440,note_on,120,0,1,,,,,,,,,0,,,79,0
13440,note_on,60,0,6,,,,,,,,,5,,,59,0
13440,note_on,0,0,6,,,,,,,,,5,,,59,100
13440,note_on,0,0,7,,,,,,,,,6,,,31,0
13440,note_on,60,0,7,,,,,,,,,6,,,43,0
13440,note_on,120,0,4,,,,,,,,,3,,,79,0
13440,note_on,0,0,4,,,,,,,,,3,,,71,100
13440,note_on,0,0,7,,,,,,,,,6,,,31,100
13440,note_on,0,0,7,,,,,,,,,6,,,43,100
13440,note_on,0,0,3,,,,,,,,,2,,,67,0
13440,note_on,0,0,2,,,,,,,,,1,,,67,0
13440,note_on,0,0,5,,,,,,,,,4,,,67,100
13440,note_on,120,0,2,,,,,,,,,1,,,74,0
13440,note_on,0,0,8,,,,,,,,,7,,,31,0
13440,note_on,0,0,8,,,,,,,,,7,,,31,100
13440,note_on,120,0,5,,,,,,,,,4,,,79,0
13440,note_on,60,0,8,,,,,,,,,7,,,43,0
13440,note_on,0,0,8,,,,,,,,,7,,,43,100
13500,note_on,0,0,4,,,,,,,,,3,,,71,100
13500,note_on,60,0,4,,,,,,,,,3,,,71,0
13500,note_on,0,0,8,,,,,,,,,7,,,47,100
13500,note_on,0,0,8,,,,,,,,,7,,,35,100
13500,note_on,0,0,8,,,,,,,,,7,,,31,0
13500,note_on,60,0,8,,,,,,,,,7,,,43,0
13500,note_on,0,0,7,,,,,,,,,6,,,35,100
13500,note_on,0,0,7,,,,,,,,,6,,,31,0
13500,note_on,0,0,7,,,,,,,,,6,,,47,100
13500,note_on,60,0,5,,,,,,,,,4,,,67,0
13500,note_on,60,0,6,,,,,,,,,5,,,59,0
13500,note_on,0,0,6,,,,,,,,,5,,,50,100
13500,note_on,60,0,7,,,,,,,,,6,,,43,0
13500,note_on,0,0,5,,,,,,,,,4,,,67,100
13560,note_on,60,0,7,,,,,,,,,6,,,47,0
13560,note_on,0,0,7,,,,,,,,,6,,,35,0
13560,note_on,0,0,7,,,,,,,,,6,,,35,100
13560,note_on,0,0,7,,,,,,,,,6,,,47,100
13560,note_on,60,0,6,,,,,,,,,5,,,50,0
13560,note_on,0,0,6,,,,,,,,,5,,,50,100
13560,note_on,0,0,4,,,,,,,,,3,,,71,100
13560,note_on,0,0,8,,,,,,,,,7,,,47,100
13560,note_on,0,0,8,,,,,,,,,7,,,35,100
13560,note_on,0,0,8,,,,,,,,,7,,,35,0
13560,note_on,60,0,8,,,,,,,,,7,,,47,0
13560,note_on,60,0,5,,,,,,,,,4,,,67,0
13560,note_on,60,0,4,,,,,,,,,3,,,71,0
13560,note_on,0,0,5,,,,,,,,,4,,,67,100
13620,note_on,0,0,4,,,,,,,,,3,,,71,100
13620,note_on,60,0,4,,,,,,,,,3,,,71,0
13620,note_on,60,0,7,,,,,,,,,6,,,47,0
13620,note_on,60,0,8,,,,,,,,,7,,,47,0
13620,note_on,0,0,8,,,,,,,,,7,,,35,0
13620,note_on,0,0,8,,,,,,,,,7,,,35,100
13620,note_on,0,0,7,,,,,,,,,6,,,35,0
13620,note_on,0,0,7,,,,,,,,,6,,,35,100
13620,note_on,0,0,8,,,,,,,,,7,,,47,100
13620,note_on,0,0,5,,,,,,,,,4,,,67,100
13620,note_on,60,0,6,,,,,,,,,5,,,50,0
13620,note_on,0,0,6,,,,,,,,,5,,,50,100
13620,note_on,60,0,5,,,,,,,,,4,,,67,0
13620,note_on,0,0,7,,,,,,,,,6,,,47,100
13680,note_on,0,0,8,,,,,,,,,7,,,35,0
13680,note_on,0,0,8,,,,,,,,,7,,,36,100
13680,note_on,0,0,8,,,,,,,,,7,,,48,100
13680,note_on,60,0,6,,,,,,,,,5,,,50,0
13680,note_on,0,0,6,,,,,,,,,5,,,52,100
13680,note_on,0,0,5,,,,,,,,,4,,,67,100
13680,note_on,60,0,7,,,,,,,,,6,,,47,0
13680,note_on,0,0,7,,,,,,,,,6,,,48,100
13680,note_on,0,0,7,,,,,,,,,6,,,35,0
13680,note_on,60,0,4,,,,,,,,,3,,,71,0
13680,note_on,0,0,4,,,,,,,,,3,,,71,100
13680,note_on,60,0,8,,,,,,,,,7,,,47,0
13680,note_on,60,0,5,,,,,,,,,4,,,67,0
13680,note_on,0,0,7,,,,,,,,,6,,,36,100
13685,note_on,5,0,5,,,,,,,,,4,,,67,0
13685,note_on,5,0,4,,,,,,,,,3,,,71,0
13685,note_on,0,0,4,,,,,,,,,3,,,72,100
13685,note_on,0,0,5,,,,,,,,,4,,,69,100
13690,note_on,0,0,4,,,,,,,,,3,,,71,100
13690,note_on,5,0,4,,,,,,,,,3,,,72,0
13690,note_on,0,0,5,,,,,,,,,4,,,67,100
13690,note_on,5,0,5,,,,,,,,,4,,,69,0
13695,note_on,5,0,5,,,,,,,,,4,,,67,0
13695,note_on,5,0,4,,,,,,,,,3,,,71,0
13695,note_on,0,0,4,,,,,,,,,3,,,69,100
13695,note_on,0,0,5,,,,,,,,,4,,,66,100
13710,note_on,0,0,4,,,,,,,,,3,,,71,100
13710,note_on,0,0,5,,,,,,,,,4,,,67,100
13710,note_on,15,0,5,,,,,,,,,4,,,66,0
13710,note_on,15,0,4,,,,,,,,,3,,,69,0
13740,note_on,30,0,4,,,,,,,,,3,,,71,0
13740,note_on,60,0,8,,,,,,,,,7,,,48,0
13740,note_on,30,0,5,,,,,,,,,4,,,67,0
13740,note_on,60,0,7,,,,,,,,,6,,,48,0
13740,note_on,0,0,7,,,,,,,,,6,,,36,0
13740,note_on,0,0,7,,,,,,,,,6,,,36,100
13740,note_on,0,0,7,,,,,,,,,6,,,48,100
13740,note_on,0,0,8,,,,,,,,,7,,,36,0
13740,note_on,0,0,6,,,,,,,,,5,,,52,100
13740,note_on,60,0,6,,,,,,,,,5,,,52,0
13740,note_on,0,0,8,,,,,,,,,7,,,36,100
13740,note_on,0,0,8,,,,,,,,,7,,,48,100
13800,note_on,0,0,6,,,,,,,,,5,,,52,100
13800,note_on,0,0,7,,,,,,,,,6,,,48,100
13800,note_on,0,0,7,,,,,,,,,6,,,36,100
13800,note_on,0,0,7,,,,,,,,,6,,,36,0
13800,note_on,60,0,7,,,,,,,,,6,,,48,0
13800,note_on,60,0,8,,,,,,,,,7,,,48,0
13800,note_on,0,0,8,,,,,,,,,7,,,36,0
13800,note_on,0,0,8,,,,,,,,,7,,,36,100
13800,note_on,0,0,8,,,,,,,,,7,,,48,100
13800,note_on,60,0,6,,,,,,,,,5,,,52,0
13860,note_on,0,0,6,,,,,,,,,5,,,54,100
13860,note_on,120,0,4,,,,,,,,,3,,,71,100
13860,note_on,120,0,5,,,,,,,,,4,,,67,100
13860,note_on,60,0,6,,,,,,,,,5,,,52,0
13860,note_on,0,0,7,,,,,,,,,6,,,50,100
13860,note_on,60,0,7,,,,,,,,,6,,,48,0
13860,note_on,0,0,7,,,,,,,,,6,,,36,0
13860,note_on,60,0,8,,,,,,,,,7,,,48,0
13860,note_on,0,0,8,,,,,,,,,7,,,36,0
13860,note_on,0,0,8,,,,,,,,,7,,,38,100
13860,note_on,0,0,8,,,,,,,,,7,,,50,100
13860,note_on,0,0,7,,,,,,,,,6,,,38,100
13865,note_on,5,0,5,,,,,,,,,4,,,67,0
13865,note_on,0,0,5,,,,,,,,,4,,,69,100
13865,note_on,5,0,4,,,,,,,,,3,,,71,0
13865,note_on,0,0,4,,,,,,,,,3,,,72,100
13870,note_on,0,0,5,,,,,,,,,4,,,67,100
13870,note_on,0,0,4,,,,,,,,,3,,,71,100
13870,note_on,5,0,4,,,,,,,,,3,,,72,0
13870,note_on,5,0,5,,,,,,,,,4,,,69,0
13875,note_on,5,0,5,,,,,,,,,4,,,67,0
13875,note_on,0,0,4,,,,,,,,,3,,,69,100
13875,note_on,5,0,4,,,,,,,,,3,,,71,0
13875,note_on,0,0,5,,,,,,,,,4,,,66,100
13890,note_on,0,0,4,,,,,,,,,3,,,71,100
13890,note_on,15,0,5,,,,,,,,,4,,,66,0
13890,note_on,0,0,5,,,,,,,,,4,,,67,100
13890,note_on,15,0,4,,,,,,,,,3,,,69,0
13920,note_on,0,0,8,,,,,,,,,7,,,38,100
13920,note_on,60,0,7,,,,,,,,,6,,,50,0
13920,note_on,30,0,4,,,,,,,,,3,,,71,0
13920,note_on,0,0,7,,,,,,,,,6,,,38,0
13920,note_on,0,0,7,,,,,,,,,6,,,38,100
13920,note_on,30,0,5,,,,,,,,,4,,,67,0
13920,note_on,0,0,6,,,,,,,,,5,,,54,100
13920,note_on,60,0,6,,,,,,,,,5,,,54,0
13920,note_on,0,0,8,,,,,,,,,7,,,50,100
13920,note_on,60,0,8,,,,,,,,,7,,,50,0
13920,note_on,0,0,8,,,,,,,,,7,,,38,0
13920,note_on,0,0,7,,,,,,,,,6,,,50,100
13980,note_on,0,0,8,,,,,,,,,7,,,38,0
13980,note_on,60,0,8,,,,,,,,,7,,,50,0
13980,note_on,0,0,8,,,,,,,,,7,,,38,100
13980,note_on,0,0,8,,,,,,,,,7,,,50,100
13980,note_on,60,0,7,,,,,,,,,6,,,50,0
13980,note_on,0,0,7,,,,,,,,,6,,,38,100
13980,note_on,0,0,7,,,,,,,,,6,,,50,100
13980,note_on,0,0,6,,,,,,,,,5,,,54,100
13980,note_on,60,0,6,,,,,,,,,5,,,54,0
13980,note_on,0,0,7,,,,,,,,,6,,,38,0
14040,note_on,60,0,8,,,,,,,,,7,,,50,0
14040,note_on,120,0,4,,,,,,,,,3,,,71,100
14040,note_on,60,0,7,,,,,,,,,6,,,50,0
14040,note_on,120,0,5,,,,,,,,,4,,,67,100
14040,note_on,0,0,8,,,,,,,,,7,,,38,0
14040,note_on,0,0,6,,,,,,,,,5,,,55,100
14040,note_on,60,0,6,,,,,,,,,5,,,54,0
14040,note_on,0,0,8,,,,,,,,,7,,,52,100
14040,note_on,0,0,8,,,,,,,,,7,,,40,100
14040,note_on,0,0,7,,,,,,,,,6,,,52,100
14040,note_on,0,0,7,,,,,,,,,6,,,40,100
14040,note_on,0,0,7,,,,,,,,,6,,,38,0
14045,note_on,0,0,5,,,,,,,,,4,,,69,100
14045,note_on,0,0,4,,,,,,,,,3,,,72,100
14045,note_on,5,0,5,,,,,,,,,4,,,67,0
14045,note_on,5,0,4,,,,,,,,,3,,,71,0
14050,note_on,5,0,5,,,,,,,,,4,,,69,0
14050,note_on,5,0,4,,,,,,,,,3,,,72,0
14050,note_on,0,0,4,,,,,,,,,3,,,71,100
14050,note_on,0,0,5,,,,,,,,,4,,,67,100
14055,note_on,0,0,4,,,,,,,,,3,,,69,100
14055,note_on,0,0,5,,,,,,,,,4,,,66,100
14055,note_on,5,0,5,,,,,,,,,4,,,67,0
14055,note_on,5,0,4,,,,,,,,,3,,,71,0
14070,note_on,15,0,4,,,,,,,,,3,,,69,0
14070,note_on,0,0,4,,,,,,,,,3,,,71,100
14070,note_on,15,0,5,,,,,,,,,4,,,66,0
14070,note_on,0,0,5,,,,,,,,,4,,,67,100
14100,note_on,30,0,5,,,,,,,,,4,,,67,0
14100,note_on,0,0,6,,,,,,,,,5,,,55,100
14100,note_on,60,0,6,,,,,,,,,5,,,55,0
14100,note_on,0,0,7,,,,,,,,,6,,,40,0
14100,note_on,0,0,8,,,,,,,,,7,,,40,100
14100,note_on,0,0,8,,,,,,,,,7,,,52,100
14100,note_on,0,0,7,,,,,,,,,6,,,52,100
14100,note_on,60,0,8,,,,,,,,,7,,,52,0
14100,note_on,0,0,8,,,,,,,,,7,,,40,0
14100,note_on,0,0,7,,,,,,,,,6,,,40,100
14100,note_on,60,0,7,,,,,,,,,6,,,52,0
14100,note_on,30,0,4,,,,,,,,,3,,,71,0
14160,note_on,60,0,5,,,,,,,,,4,,,67,100
14160,note_on,0,0,8,,,,,,,,,7,,,40,100
14160,note_on,0,0,8,,,,,,,,,7,,,40,0
14160,note_on,60,0,8,,,,,,,,,7,,,52,0
14160,note_on,0,0,6,,,,,,,,,5,,,55,100
14160,note_on,60,0,6,,,,,,,,,5,,,55,0
14160,note_on,0,0,7,,,,,,,,,6,,,52,100
14160,note_on,0,0,7,,,,,,,,,6,,,40,100
14160,note_on,60,0,7,,,,,,,,,6,,,52,0
14160,note_on,60,0,4,,,,,,,,,3,,,71,100
14160,note_on,0,0,8,,,,,,,,,7,,,52,100
14160,note_on,0,0,7,,,,,,,,,6,,,40,0
14220,note_on,60,0,8,,,,,,,,,7,,,52,0
14220,note_on,0,0,8,,,,,,,,,7,,,40,0
14220,note_on,60,0,4,,,,,,,,,3,,,71,0
14220,note_on,0,0,4,,,,,,,,,3,,,71,100
14220,note_on,60,0,7,,,,,,,,,6,,,52,0
14220,note_on,60,0,6,,,,,,,,,5,,,55,0
14220,note_on,0,0,6,,,,,,,,,5,,,50,100
14220,note_on,0,0,5,,,,,,,,,4,,,67,100
14220,note_on,60,0,5,,,,,,,,,4,,,67,0
14220,note_on,0,0,7,,,,,,,,,6,,,40,0
14220,note_on,0,0,7,,,,,,,,,6,,,35,100
14220,note_on,0,0,7,,,,,,,,,6,,,47,100
14220,note_on,0,0,8,,,,,,,,,7,,,47,100
14220,note_on,0,0,8,,,,,,,,,7,,,35,100
14280,note_on,0,0,7,,,,,,,,,6,,,47,100
14280,note_on,0,0,6,,,,,,,,,5,,,50,100
14280,note_on,60,0,7,,,,,,,,,6,,,47,0
14280,note_on,0,0,7,,,,,,,,,6,,,35,0
14280,note_on,0,0,7,,,,,,,,,6,,,35,100
14280,note_on,0,0,8,,,,,,,,,7,,,47,100
14280,note_on,0,0,8,,,,,,,,,7,,,35,100
14280,note_on,0,0,8,,,,,,,,,7,,,35,0
14280,note_on,60,0,4,,,,,,,,,3,,,71,0
14280,note_on,60,0,8,,,,,,,,,7,,,47,0
14280,note_on,60,0,5,,,,,,,,,4,,,67,0
14280,note_on,0,0,5,,,,,,,,,4,,,67,100
14280,note_on,0,0,4,,,,,,,,,3,,,71,100
14280,note_on,60,0,6,,,,,,,,,5,,,50,0
14340,note_on,0,0,8,,,,,,,,,7,,,35,0
14340,note_on,60,0,4,,,,,,,,,3,,,71,0
14340,note_on,0,0,4,,,,,,,,,3,,,71,100
14340,note_on,60,0,5,,,,,,,,,4,,,67,0
14340,note_on,0,0,5,,,,,,,,,4,,,67,100
14340,note_on,60,0,8,,,,,,,,,7,,,47,0
14340,note_on,0,0,8,,,,,,,,,7,,,35,100
14340,note_on,60,0,6,,,,,,,,,5,,,50,0
14340,note_on,60,0,7,,,,,,,,,6,,,47,0
14340,note_on,0,0,7,,,,,,,,,6,,,35,0
14340,note_on,0,0,7,,,,,,,,,6,,,35,100
14340,note_on,0,0,7,,,,,,,,,6,,,47,100
14340,note_on,0,0,6,,,,,,,,,5,,,50,100
14340,note_on,0,0,8,,,,,,,,,7,,,47,100
14400,note_on,60,0,8,,,,,,,,,7,,,47,0
14400,note_on,60,0,5,,,,,,,,,4,,,67,0
14400,note_on,60,0,6,,,,,,,,,5,,,50,0
14400,note_on,0,0,6,,,,,,,,,5,,,52,100
14400,note_on,0,0,4,,,,,,,,,3,,,69,100
14400,note_on,0,0,7,,,,,,,,,6,,,36,100
14400,note_on,0,0,7,,,,,,,,,6,,,48,100
14400,note_on,0,0,7,,,,,,,,,6,,,35,0
14400,note_on,60,0,7,,,,,,,,,6,,,47,0
14400,note_on,0,0,5,,,,,,,,,4,,,60,100
14400,note_on,0,0,8,,,,,,,,,7,,,36,100
14400,note_on,0,0,8,,,,,,,,,7,,,35,0
14400,note_on,60,0,4,,,,,,,,,3,,,71,0
14400,note_on,0,0,8,,,,,,,,,7,,,48,100
14405,note_on,5,0,5,,,,,,,,,4,,,60,0
14405,note_on,0,0,4,,,,,,,,,3,,,71,100
14405,note_on,5,0,4,,,,,,,,,3,,,69,0
14405,note_on,0,0,5,,,,,,,,,4,,,62,100
14410,note_on,0,0,5,,,,,,,,,4,,,60,100
14410,note_on,5,0,4,,,,,,,,,3,,,71,0
14410,note_on,0,0,4,,,,,,,,,3,,,69,100
14410,note_on,5,0,5,,,,,,,,,4,,,62,0
14415,note_on,5,0,5,,,,,,,,,4,,,60,0
14415,note_on,0,0,5,,,,,,,,,4,,,59,100
14415,note_on,5,0,4,,,,,,,,,3,,,69,0
14415,note_on,0,0,4,,,,,,,,,3,,,67,100
14430,note_on,15,0,4,,,,,,,,,3,,,67,0
14430,note_on,0,0,4,,,,,,,,,3,,,69,100
14430,note_on,15,0,5,,,,,,,,,4,,,59,0
14430,note_on,0,0,5,,,,,,,,,4,,,60,100
14460,note_on,60,0,7,,,,,,,,,6,,,48,0
14460,note_on,60,0,8,,,,,,,,,7,,,48,0
14460,note_on,30,0,5,,,,,,,,,4,,,60,0
14460,note_on,0,0,7,,,,,,,,,6,,,36,0
14460,note_on,0,0,8,,,,,,,,,7,,,48,100
14460,note_on,60,0,6,,,,,,,,,5,,,52,0
14460,note_on,0,0,6,,,,,,,,,5,,,52,100
14460,note_on,0,0,8,,,,,,,,,7,,,36,0
14460,note_on,30,0,4,,,,,,,,,3,,,69,0
14460,note_on,0,0,7,,,,,,,,,6,,,36,100
14460,note_on,0,0,7,,,,,,,,,6,,,48,100
14460,note_on,0,0,8,,,,,,,,,7,,,36,100
14520,note_on,60,0,6,,,,,,,,,5,,,52,0
14520,note_on,0,0,8,,,,,,,,,7,,,48,100
14520,note_on,0,0,8,,,,,,,,,7,,,36,0
14520,note_on,0,0,6,,,,,,,,,5,,,52,100
14520,note_on,0,0,8,,,,,,,,,7,,,36,100
14520,note_on,60,0,8,,,,,,,,,7,,,48,0
14520,note_on,60,0,7,,,,,,,,,6,,,48,0
14520,note_on,0,0,7,,,,,,,,,6,,,36,0
14520,note_on,0,0,7,,,,,,,,,6,,,36,100
14520,note_on,0,0,7,,,,,,,,,6,,,48,100
14580,note_on,0,0,8,,,,,,,,,7,,,38,100
14580,note_on,60,0,6,,,,,,,,,5,,,52,0
14580,note_on,0,0,6,,,,,,,,,5,,,60,100
14580,note_on,0,0,8,,,,,,,,,7,,,36,0
14580,note_on,60,0,8,,,,,,,,,7,,,48,0
14580,note_on,120,0,4,,,,,,,,,3,,,69,100
14580,note_on,0,0,7,,,,,,,,,6,,,50,100
14580,note_on,0,0,7,,,,,,,,,6,,,38,100
14580,note_on,120,0,5,,,,,,,,,4,,,66,100
14580,note_on,0,0,7,,,,,,,,,6,,,36,0
14580,note_on,60,0,7,,,,,,,,,6,,,48,0
14580,note_on,0,0,8,,,,,,,,,7,,,50,100
14585,note_on,0,0,5,,,,,,,,,4,,,67,100
14585,note_on,5,0,4,,,,,,,,,3,,,69,0
14585,note_on,0,0,4,,,,,,,,,3,,,71,100
14585,note_on,5,0,5,,,,,,,,,4,,,66,0
14590,note_on,5,0,5,,,,,,,,,4,,,67,0
14590,note_on,5,0,4,,,,,,,,,3,,,71,0
14590,note_on,0,0,4,,,,,,,,,3,,,69,100
14590,note_on,0,0,5,,,,,,,,,4,,,66,100
14595,note_on,5,0,4,,,,,,,,,3,,,69,0
14595,note_on,0,0,4,,,,,,,,,3,,,67,100
14595,note_on,5,0,5,,,,,,,,,4,,,66,0
14595,note_on,0,0,5,,,,,,,,,4,,,64,100
14610,note_on,15,0,5,,,,,,,,,4,,,64,0
14610,note_on,0,0,5,,,,,,,,,4,,,66,100
14610,note_on,0,0,4,,,,,,,,,3,,,69,100
14610,note_on,15,0,4,,,,,,,,,3,,,67,0
14640,note_on,0,0,7,,,,,,,,,6,,,50,100
14640,note_on,0,0,7,,,,,,,,,6,,,38,100
14640,note_on,0,0,7,,,,,,,,,6,,,38,0
14640,note_on,60,0,7,,,,,,,,,6,,,50,0
14640,note_on,60,0,8,,,,,,,,,7,,,50,0
14640,note_on,30,0,5,,,,,,,,,4,,,66,0
14640,note_on,0,0,8,,,,,,,,,7,,,38,0
14640,note_on,30,0,4,,,,,,,,,3,,,69,0
14640,note_on,0,0,8,,,,,,,,,7,,,50,100
14640,note_on,0,0,8,,,,,,,,,7,,,38,100
14640,note_on,0,0,6,,,,,,,,,5,,,60,100
14640,note_on,60,0,6,,,,,,,,,5,,,60,0
14700,note_on,0,0,7,,,,,,,,,6,,,50,100
14700,note_on,60,0,6,,,,,,,,,5,,,60,0
14700,note_on,60,0,8,,,,,,,,,7,,,50,0
14700,note_on,0,0,8,,,,,,,,,7,,,38,0
14700,note_on,0,0,6,,,,,,,,,5,,,60,100
14700,note_on,60,0,7,,,,,,,,,6,,,50,0
14700,note_on,0,0,7,,,,,,,,,6,,,38,0
14700,note_on,0,0,7,,,,,,,,,6,,,38,100
14700,note_on,0,0,8,,,,,,,,,7,,,38,100
14700,note_on,0,0,8,,,,,,,,,7,,,50,100
14760,note_on,0,0,8,,,,,,,,,7,,,38,0
14760,note_on,60,0,6,,,,,,,,,5,,,60,0
14760,note_on,60,0,8,,,,,,,,,7,,,50,0
14760,note_on,0,0,6,,,,,,,,,5,,,59,100
14760,note_on,0,0,7,,,,,,,,,6,,,43,100
14760,note_on,0,0,8,,,,,,,,,7,,,43,100
14760,note_on,1320,0,3,,,,,,,,,2,,,67,100
14760,note_on,120,0,5,,,,,,,,,4,,,67,100
14760,note_on,1320,0,2,,,,,,,,,1,,,67,100
14760,note_on,0,0,2,,,,,,,,,1,,,74,100
14760,note_on,60,0,7,,,,,,,,,6,,,50,0
14760,note_on,120,0,4,,,,,,,,,3,,,67,100
14760,note_on,0,0,7,,,,,,,,,6,,,31,100
14760,note_on,0,0,8,,,,,,,,,7,,,31,100
14760,note_on,1320,0,1,,,,,,,,,0,,,83,100
14760,note_on,0,0,1,,,,,,,,,0,,,86,100
14760,note_on,0,0,7,,,,,,,,,6,,,38,0
14820,note_on,60,0,4,,,,,,,,,3,,,67,0
14820,note_on,0,0,5,,,,,,,,,4,,,83,100
14820,note_on,60,0,5,,,,,,,,,4,,,67,0
14820,note_on,0,0,4,,,,,,,,,3,,,86,100
14850,note_on,0,0,5,,,,,,,,,4,,,79,100
14850,note_on,30,0,5,,,,,,,,,4,,,83,0
14850,note_on,0,0,4,,,,,,,,,3,,,83,100
14850,note_on,30,0,4,,,,,,,,,3,,,86,0
14880,note_on,0,0,4,,,,,,,,,3,,,79,100
14880,note_on,30,0,4,,,,,,,,,3,,,83,0
14880,note_on,0,0,8,,,,,,,,,7,,,31,0
14880,note_on,120,0,3,,,,,,,,,2,,,67,0
14880,note_on,120,0,6,,,,,,,,,5,,,59,0
14880,note_on,30,0,5,,,,,,,,,4,,,79,0
14880,note_on,0,0,5,,,,,,,,,4,,,74,100
14880,note_on,120,0,7,,,,,,,,,6,,,43,0
14880,note_on,0,0,7,,,,,,,,,6,,,31,0
14880,note_on,120,0,8,,,,,,,,,7,,,43,0
14940,note_on,0,0,7,,,,,,,,,6,,,55,100
14940,note_on,180,0,1,,,,,,,,,0,,,86,0
14940,note_on,0,0,1,,,,,,,,,0,,,83,0
14940,note_on,60,0,7,,,,,,,,,6,,,43,100
14940,note_on,0,0,1,,,,,,,,,0,,,83,100
14940,note_on,0,0,8,,,,,,,,,7,,,55,100
14940,note_on,60,0,5,,,,,,,,,4,,,74,0
14940,note_on,60,0,8,,,,,,,,,7,,,43,100
14940,note_on,60,0,3,,,,,,,,,2,,,67,100
14940,note_on,60,0,4,,,,,,,,,3,,,79,0
14940,note_on,0,0,1,,,,,,,,,0,,,79,100
14940,note_on,60,0,6,,,,,,,,,5,,,62,100
15000,note_on,60,0,4,,,,,,,,,3,,,83,100
15000,note_on,60,0,5,,,,,,,,,4,,,79,100
15030,note_on,0,0,4,,,,,,,,,3,,,79,100
15030,note_on,30,0,4,,,,,,,,,3,,,83,0
15030,note_on,0,0,5,,,,,,,,,4,,,74,100
15030,note_on,30,0,5,,,,,,,,,4,,,79,0
15060,note_on,120,0,3,,,,,,,,,2,,,67,0
15060,note_on,0,0,4,,,,,,,,,3,,,74,100
15060,note_on,0,0,8,,,,,,,,,7,,,43,0
15060,note_on,120,0,8,,,,,,,,,7,,,55,0
15060,note_on,30,0,4,,,,,,,,,3,,,79,0
15060,note_on,120,0,6,,,,,,,,,5,,,62,0
15060,note_on,0,0,5,,,,,,,,,4,,,71,100
15060,note_on,30,0,5,,,,,,,,,4,,,74,0
15060,note_on,0,0,7,,,,,,,,,6,,,43,0
15060,note_on,120,0,7,,,,,,,,,6,,,55,0
15120,note_on,0,0,1,,,,,,,,,0,,,79,0
15120,note_on,60,0,4,,,,,,,,,3,,,74,0
15120,note_on,0,0,1,,,,,,,,,0,,,79,100
15120,note_on,0,0,1,,,,,,,,,0,,,74,100
15120,note_on,0,0,7,,,,,,,,,6,,,43,100
15120,note_on,60,0,5,,,,,,,,,4,,,71,0
15120,note_on,60,0,7,,,,,,,,,6,,,31,100
15120,note_on,60,0,3,,,,,,,,,2,,,67,100
15120,note_on,180,0,1,,,,,,,,,0,,,83,0
15120,note_on,0,0,8,,,,,,,,,7,,,43,100
15120,note_on,60,0,8,,,,,,,,,7,,,31,100
15120,note_on,60,0,6,,,,,,,,,5,,,59,100
15180,note_on,60,0,5,,,,,,,,,4,,,74,100
15180,note_on,60,0,4,,,,,,,,,3,,,79,100
15210,note_on,0,0,5,,,,,,,,,4,,,71,100
15210,note_on,30,0,4,,,,,,,,,3,,,79,0
15210,note_on,0,0,4,,,,,,,,,3,,,74,100
15210,note_on,30,0,5,,,,,,,,,4,,,74,0
15240,note_on,30,0,4,,,,,,,,,3,,,74,0
15240,note_on,0,0,4,,,,,,,,,3,,,71,100
15240,note_on,0,0,8,,,,,,,,,7,,,31,0
15240,note_on,120,0,7,,,,,,,,,6,,,43,0
15240,note_on,0,0,7,,,,,,,,,6,,,31,0
15240,note_on,30,0,5,,,,,,,,,4,,,71,0
15240,note_on,0,0,5,,,,,,,,,4,,,67,100
15240,note_on,120,0,8,,,,,,,,,7,,,43,0
15240,note_on,120,0,6,,,,,,,,,5,,,59,0
15240,note_on,120,0,3,,,,,,,,,2,,,67,0
15300,note_on,60,0,5,,,,,,,,,4,,,67,0
15300,note_on,0,0,8,,,,,,,,,7,,,55,100
15300,note_on,60,0,8,,,,,,,,,7,,,43,100
15300,note_on,60,0,4,,,,,,,,,3,,,71,0
15300,note_on,0,0,7,,,,,,,,,6,,,55,100
15300,note_on,60,0,6,,,,,,,,,5,,,67,100
15300,note_on,60,0,3,,,,,,,,,2,,,67,100
15300,note_on,60,0,7,,,,,,,,,6,,,43,100
15300,note_on,180,0,1,,,,,,,,,0,,,79,0
15300,note_on,0,0,1,,,,,,,,,0,,,74,0
15300,note_on,0,0,1,,,,,,,,,0,,,74,100
15300,note_on,0,0,1,,,,,,,,,0,,,71,100
15360,note_on,60,0,4,,,,,,,,,3,,,74,100
15360,note_on,60,0,5,,,,,,,,,4,,,71,100
15390,note_on,30,0,4,,,,,,,,,3,,,74,0
15390,note_on,30,0,5,,,,,,,,,4,,,71,0
15390,note_on,0,0,4,,,,,,,,,3,,,71,100
15390,note_on,0,0,5,,,,,,,,,4,,,67,100
15420,note_on,30,0,5,,,,,,,,,4,,,67,0
15420,note_on,120,0,3,,,,,,,,,2,,,67,0
15420,note_on,120,0,8,,,,,,,,,7,,,55,0
15420,note_on,120,0,6,,,,,,,,,5,,,67,0
15420,note_on,0,0,5,,,,,,,,,4,,,62,100
15420,note_on,0,0,8,,,,,,,,,7,,,43,0
15420,note_on,30,0,4,,,,,,,,,3,,,71,0
15420,note_on,120,0,7,,,,,,,,,6,,,55,0
15420,note_on,0,0,7,,,,,,,,,6,,,43,0
15420,note_on,0,0,4,,,,,,,,,3,,,67,100
15480,note_on,60,0,6,,,,,,,,,5,,,62,100
15480,note_on,60,0,4,,,,,,,,,3,,,67,0
15480,note_on,60,0,7,,,,,,,,,6,,,31,100
15480,note_on,60,0,5,,,,,,,,,4,,,62,0
15480,note_on,0,0,7,,,,,,,,,6,,,43,100
15480,note_on,0,0,8,,,,,,,,,7,,,43,100
15480,note_on,60,0,3,,,,,,,,,2,,,67,100
15480,note_on,0,0,1,,,,,,,,,0,,,71,100
15480,note_on,0,0,1,,,,,,,,,0,,,67,100
15480,note_on,0,0,1,,,,,,,,,0,,,71,0
15480,note_on,180,0,1,,,,,,,,,0,,,74,0
15480,note_on,60,0,8,,,,,,,,,7,,,31,100
15540,note_on,60,0,4,,,,,,,,,3,,,71,100
15540,note_on,60,0,5,,,,,,,,,4,,,67,100
15570,note_on,30,0,5,,,,,,,,,4,,,67,0
15570,note_on,0,0,4,,,,,,,,,3,,,67,100
15570,note_on,30,0,4,,,,,,,,,3,,,71,0
15570,note_on,0,0,5,,,,,,,,,4,,,62,100
15600,note_on,0,0,7,,,,,,,,,6,,,31,0
15600,note_on,120,0,8,,,,,,,,,7,,,43,0
15600,note_on,0,0,5,,,,,,,,,4,,,59,100
15600,note_on,0,0,4,,,,,,,,,3,,,62,100
15600,note_on,120,0,7,,,,,,,,,6,,,43,0
15600,note_on,120,0,6,,,,,,,,,5,,,62,0
15600,note_on,120,0,3,,,,,,,,,2,,,67,0
15600,note_on,0,0,8,,,,,,,,,7,,,31,0
15600,note_on,30,0,5,,,,,,,,,4,,,62,0
15600,note_on,30,0,4,,,,,,,,,3,,,67,0
15660,note_on,60,0,3,,,,,,,,,2,,,67,100
15660,note_on,60,0,4,,,,,,,,,3,,,62,0
15660,note_on,0,0,8,,,,,,,,,7,,,55,100
15660,note_on,60,0,8,,,,,,,,,7,,,43,100
15660,note_on,60,0,5,,,,,,,,,4,,,59,0
15660,note_on,0,0,7,,,,,,,,,6,,,55,100
15660,note_on,180,0,1,,,,,,,,,0,,,71,0
15660,note_on,0,0,1,,,,,,,,,0,,,67,0
15660,note_on,0,0,1,,,,,,,,,0,,,62,100
15660,note_on,0,0,1,,,,,,,,,0,,,67,100
15660,note_on,60,0,7,,,,,,,,,6,,,43,100
15660,note_on,60,0,6,,,,,,,,,5,,,59,100
15720,note_on,60,0,4,,,,,,,,,3,,,67,100
15720,note_on,60,0,5,,,,,,,,,4,,,62,100
15750,note_on,0,0,4,,,,,,,,,3,,,62,100
15750,note_on,30,0,4,,,,,,,,,3,,,67,0
15750,note_on,30,0,5,,,,,,,,,4,,,62,0
15750,note_on,0,0,5,,,,,,,,,4,,,59,100
15780,note_on,0,0,4,,,,,,,,,3,,,59,100
15780,note_on,30,0,5,,,,,,,,,4,,,59,0
15780,note_on,120,0,3,,,,,,,,,2,,,67,0
15780,note_on,0,0,8,,,,,,,,,7,,,43,0
15780,note_on,120,0,8,,,,,,,,,7,,,55,0
15780,note_on,0,0,5,,,,,,,,,4,,,55,100
15780,note_on,30,0,4,,,,,,,,,3,,,62,0
15780,note_on,120,0,6,,,,,,,,,5,,,59,0
15780,note_on,120,0,7,,,,,,,,,6,,,55,0
15780,note_on,0,0,7,,,,,,,,,6,,,43,0
15840,note_on,0,0,6,,,,,,,,,5,,,62,100
15840,note_on,0,0,5,,,,,,,,,4,,,55,100
15840,note_on,0,0,5,,,,,,,,,4,,,79,100
15840,note_on,0,0,1,,,,,,,,,0,,,62,0
15840,note_on,180,0,1,,,,,,,,,0,,,67,0
15840,note_on,60,0,5,,,,,,,,,4,,,55,0
15840,note_on,0,0,5,,,,,,,,,4,,,62,100
15840,note_on,0,0,5,,,,,,,,,4,,,71,100
15840,note_on,60,0,7,,,,,,,,,6,,,31,100
15840,note_on,60,0,6,,,,,,,,,5,,,55,100
15840,note_on,0,0,7,,,,,,,,,6,,,43,100
15840,note_on,0,0,1,,,,,,,,,0,,,79,100
15840,note_on,60,0,8,,,,,,,,,7,,,31,100
15840,note_on,0,0,1,,,,,,,,,0,,,71,100
15840,note_on,0,0,4,,,,,,,,,3,,,62,100
15840,note_on,0,0,8,,,,,,,,,7,,,43,100
15840,note_on,0,0,4,,,,,,,,,3,,,71,100
15840,note_on,0,0,4,,,,,,,,,3,,,79,100
15840,note_on,60,0,3,,,,,,,,,2,,,67,100
15840,note_on,60,0,4,,,,,,,,,3,,,59,0
15840,note_on,0,0,4,,,,,,,,,3,,,55,100
15840,note_on,0,0,2,,,,,,,,,1,,,74,100
15840,note_on,0,0,2,,,,,,,,,1,,,67,100
15840,note_on,0,0,2,,,,,,,,,1,,,67,0
15840,note_on,1080,0,2,,,,,,,,,1,,,74,0
15960,note_on,0,0,5,,,,,,,,,4,,,62,0
15960,note_on,0,0,4,,,,,,,,,3,,,55,0
15960,note_on,0,0,5,,,,,,,,,4,,,55,0
15960,note_on,120,0,4,,,,,,,,,3,,,79,0
15960,note_on,0,0,5,,,,,,,,,4,,,71,0
15960,note_on,0,0,4,,,,,,,,,3,,,71,0
15960,note_on,0,0,4,,,,,,,,,3,,,62,0
15960,note_on,120,0,5,,,,,,,,,4,,,79,0
15960,note_on,120,0,8,,,,,,,,,7,,,43,0
15960,note_on,0,0,8,,,,,,,,,7,,,31,0
15960,note_on,120,0,3,,,,,,,,,2,,,67,0
15960,note_on,120,0,6,,,,,,,,,5,,,62,0
15960,note_on,0,0,6,,,,,,,,,5,,,55,0
15960,note_on,120,0,7,,,,,,,,,6,,,43,0
15960,note_on,0,0,7,,,,,,,,,6,,,31,0
15960,note_on,0,0,2,,,,,,,,,1,,,67,0
15960,note_on,120,0,2,,,,,,,,,1,,,74,0
15960,note_on,120,0,1,,,,,,,,,0,,,79,0
15960,note_on,0,0,1,,,,,,,,,0,,,71,0
16200,note_on,240,0,4,,,,,,,,,3,,,79,39
16200,note_on,240,0,5,,,,,,,,,4,,,64,40
16320,note_on,120,0,5,,,,,,,,,4,,,64,0
16320,note_on,0,0,5,,,,,,,,,4,,,64,42
16320,note_on,0,0,4,,,,,,,,,3,,,79,43
16320,note_on,120,0,4,,,,,,,,,3,,,79,0
16380,note_on,60,0,4,,,,,,,,,3,,,79,0
16380,note_on,0,0,4,,,,,,,,,3,,,79,44
16380,note_on,60,0,5,,,,,,,,,4,,,64,0
16380,note_on,0,0,5,,,,,,,,,4,,,64,43
16440,note_on,60,0,4,,,,,,,,,3,,,79,0
16440,note_on,0,0,4,,,,,,,,,3,,,81,46
16440,note_on,60,0,5,,,,,,,,,4,,,64,0
16440,note_on,0,0,5,,,,,,,,,4,,,65,43
16500,note_on,60,0,4,,,,,,,,,3,,,81,0
16500,note_on,60,0,5,,,,,,,,,4,,,65,0
16500,note_on,0,0,4,,,,,,,,,3,,,79,46
16500,note_on,0,0,5,,,,,,,,,4,,,64,43
16530,note_on,30,0,4,,,,,,,,,3,,,79,0
16530,note_on,30,0,5,,,,,,,,,4,,,64,0
16560,note_on,30,0,5,,,,,,,,,4,,,69,43
16560,note_on,30,0,4,,,,,,,,,3,,,84,47
16680,note_on,120,0,5,,,,,,,,,4,,,69,0
16680,note_on,0,0,5,,,,,,,,,4,,,67,43
16680,note_on,0,0,4,,,,,,,,,3,,,83,48
16680,note_on,120,0,4,,,,,,,,,3,,,84,0
16740,note_on,60,0,5,,,,,,,,,4,,,67,0
16740,note_on,0,0,5,,,,,,,,,4,,,65,43
16740,note_on,0,0,4,,,,,,,,,3,,,81,49
16740,note_on,60,0,4,,,,,,,,,3,,,83,0
16860,note_on,120,0,4,,,,,,,,,3,,,81,0
16860,note_on,0,0,4,,,,,,,,,3,,,79,51
16860,note_on,0,0,5,,,,,,,,,4,,,64,43
16860,note_on,120,0,5,,,,,,,,,4,,,65,0
16920,note_on,0,0,1,,,,,,,,,0,,,79,100
16920,note_on,960,0,1,,,,,,,,,0,,,76,100
16920,note_on,960,0,6,,,,,,,,,5,,,61,100
16920,note_on,0,0,2,,,,,,,,,1,,,79,100
16920,note_on,960,0,2,,,,,,,,,1,,,76,100
16920,note_on,960,0,7,,,,,,,,,6,,,33,100
16920,note_on,0,0,7,,,,,,,,,6,,,45,100
16920,note_on,0,0,5,,,,,,,,,4,,,69,100
16920,note_on,0,0,5,,,,,,,,,4,,,64,100
16920,note_on,0,0,8,,,,,,,,,7,,,45,100
16920,note_on,60,0,5,,,,,,,,,4,,,64,0
16920,note_on,960,0,8,,,,,,,,,7,,,33,100
16920,note_on,0,0,4,,,,,,,,,3,,,79,100
16920,note_on,0,0,4,,,,,,,,,3,,,69,100
16920,note_on,60,0,4,,,,,,,,,3,,,79,0
16980,note_on,60,0,8,,,,,,,,,7,,,45,0
16980,note_on,0,0,8,,,,,,,,,7,,,33,0
16980,note_on,0,0,8,,,,,,,,,7,,,35,100
16980,note_on,0,0,8,,,,,,,,,7,,,47,100
16980,note_on,0,0,7,,,,,,,,,6,,,47,100
16980,note_on,60,0,6,,,,,,,,,5,,,61,0
16980,note_on,0,0,7,,,,,,,,,6,,,35,100
16980,note_on,60,0,7,,,,,,,,,6,,,45,0
16980,note_on,0,0,7,,,,,,,,,6,,,33,0
16980,note_on,0,0,6,,,,,,,,,5,,,62,100
17040,note_on,0,0,7,,,,,,,,,6,,,37,100
17040,note_on,60,0,6,,,,,,,,,5,,,62,0
17040,note_on,0,0,6,,,,,,,,,5,,,64,100
17040,note_on,0,0,8,,,,,,,,,7,,,37,100
17040,note_on,0,0,8,,,,,,,,,7,,,35,0
17040,note_on,60,0,8,,,,,,,,,7,,,47,0
17040,note_on,0,0,7,,,,,,,,,6,,,35,0
17040,note_on,60,0,7,,,,,,,,,6,,,47,0
17040,note_on,0,0,7,,,,,,,,,6,,,49,100
17040,note_on,0,0,8,,,,,,,,,7,,,49,100
17100,note_on,0,0,8,,,,,,,,,7,,,33,100
17100,note_on,0,0,8,,,,,,,,,7,,,37,0
17100,note_on,60,0,8,,,,,,,,,7,,,49,0
17100,note_on,60,0,6,,,,,,,,,5,,,64,0
17100,note_on,60,0,7,,,,,,,,,6,,,49,0
17100,note_on,0,0,7,,,,,,,,,6,,,33,100
17100,note_on,0,0,7,,,,,,,,,6,,,45,100
17100,note_on,0,0,7,,,,,,,,,6,,,37,0
17100,note_on,0,0,6,,,,,,,,,5,,,61,100
17100,note_on,0,0,8,,,,,,,,,7,,,45,100
17160,note_on,0,0,7,,,,,,,,,6,,,33,0
17160,note_on,60,0,8,,,,,,,,,7,,,45,0
17160,note_on,0,0,7,,,,,,,,,6,,,35,100
17160,note_on,0,0,7,,,,,,,,,6,,,47,100
17160,note_on,0,0,6,,,,,,,,,5,,,62,100
17160,note_on,60,0,6,,,,,,,,,5,,,61,0
17160,note_on,0,0,8,,,,,,,,,7,,,47,100
17160,note_on,0,0,8,,,,,,,,,7,,,35,100
17160,note_on,0,0,8,,,,,,,,,7,,,33,0
17160,note_on,60,0,7,,,,,,,,,6,,,45,0
17220,note_on,0,0,8,,,,,,,,,7,,,35,0
17220,note_on,60,0,8,,,,,,,,,7,,,47,0
17220,note_on,0,0,8,,,,,,,,,7,,,37,100
17220,note_on,0,0,8,,,,,,,,,7,,,49,100
17220,note_on,60,0,7,,,,,,,,,6,,,47,0
17220,note_on,0,0,7,,,,,,,,,6,,,35,0
17220,note_on,0,0,7,,,,,,,,,6,,,37,100
17220,note_on,60,0,6,,,,,,,,,5,,,62,0
17220,note_on,0,0,7,,,,,,,,,6,,,49,100
17220,note_on,0,0,6,,,,,,,,,5,,,64,100
17280,note_on,360,0,2,,,,,,,,,1,,,79,0
17280,note_on,0,0,8,,,,,,,,,7,,,50,100
17280,note_on,0,0,8,,,,,,,,,7,,,38,100
17280,note_on,0,0,8,,,,,,,,,7,,,37,0
17280,note_on,60,0,8,,,,,,,,,7,,,49,0
17280,note_on,0,0,4,,,,,,,,,3,,,77,100
17280,note_on,0,0,1,,,,,,,,,0,,,74,100
17280,note_on,0,0,1,,,,,,,,,0,,,77,100
17280,note_on,60,0,6,,,,,,,,,5,,,64,0
17280,note_on,0,0,7,,,,,,,,,6,,,50,100
17280,note_on,0,0,7,,,,,,,,,6,,,38,100
17280,note_on,0,0,2,,,,,,,,,1,,,76,0
17280,note_on,0,0,2,,,,,,,,,1,,,74,100
17280,note_on,0,0,2,,,,,,,,,1,,,77,100
17280,note_on,0,0,1,,,,,,,,,0,,,76,0
17280,note_on,0,0,5,,,,,,,,,4,,,62,100
17280,note_on,360,0,5,,,,,,,,,4,,,64,0
17280,note_on,0,0,4,,,,,,,,,3,,,69,0
17280,note_on,360,0,4,,,,,,,,,3,,,79,0
17280,note_on,0,0,6,,,,,,,,,5,,,62,100
17280,note_on,0,0,4,,,,,,,,,3,,,69,100
17280,note_on,0,0,7,,,,,,,,,6,,,37,0
17280,note_on,360,0,1,,,,,,,,,0,,,79,0
17280,note_on,60,0,7,,,,,,,,,6,,,49,0
17340,note_on,60,0,5,,,,,,,,,4,,,62,0
17340,note_on,60,0,8,,,,,,,,,7,,,50,0
17340,note_on,60,0,6,,,,,,,,,5,,,62,0
17340,note_on,0,0,2,,,,,,,,,1,,,74,0
17340,note_on,60,0,1,,,,,,,,,0,,,77,0
17340,note_on,60,0,4,,,,,,,,,3,,,77,0
17340,note_on,0,0,1,,,,,,,,,0,,,74,0
17340,note_on,0,0,4,,,,,,,,,3,,,69,0
17340,note_on,0,0,7,,,,,,,,,6,,,38,0
17340,note_on,60,0,7,,,,,,,,,6,,,50,0
17340,note_on,0,0,5,,,,,,,,,4,,,69,0
17340,note_on,60,0,2,,,,,,,,,1,,,77,0
17340,note_on,0,0,8,,,,,,,,,7,,,38,0
17640,note_on,300,0,5,,,,,,,,,4,,,62,44
17640,note_on,300,0,4,,,,,,,,,3,,,77,41
17760,note_on,120,0,5,,,,,,,,,4,,,62,0
17760,note_on,0,0,4,,,,,,,,,3,,,77,43
17760,note_on,0,0,5,,,,,,,,,4,,,62,48
17760,note_on,120,0,4,,,,,,,,,3,,,77,0
17820,note_on,60,0,4,,,,,,,,,3,,,77,0
17820,note_on,0,0,5,,,,,,,,,4,,,62,49
17820,note_on,0,0,4,,,,,,,,,3,,,77,43
17820,note_on,60,0,5,,,,,,,,,4,,,62,0
17880,note_on,0,0,5,,,,,,,,,4,,,64,49
17880,note_on,0,0,4,,,,,,,,,3,,,79,43
17880,note_on,60,0,5,,,,,,,,,4,,,62,0
17880,note_on,60,0,4,,,,,,,,,3,,,77,0
17940,note_on,0,0,4,,,,,,,,,3,,,77,43
17940,note_on,60,0,5,,,,,,,,,4,,,64,0
17940,note_on,0,0,5,,,,,,,,,4,,,62,49
17940,note_on,60,0,4,,,,,,,,,3,,,79,0
17970,note_on,30,0,4,,,,,,,,,3,,,77,0
17970,note_on,30,0,5,,,,,,,,,4,,,62,0
18000,note_on,30,0,4,,,,,,,,,3,,,86,43
18000,note_on,30,0,5,,,,,,,,,4,,,71,49
18120,note_on,120,0,4,,,,,,,,,3,,,86,0
18120,note_on,0,0,4,,,,,,,,,3,,,83,43
18120,note_on,120,0,5,,,,,,,,,4,,,71,0
18120,note_on,0,0,5,,,,,,,,,4,,,67,46
18180,note_on,0,0,5,,,,,,,,,4,,,64,45
18180,note_on,60,0,5,,,,,,,,,4,,,67,0
18180,note_on,60,0,4,,,,,,,,,3,,,83,0
18180,note_on,0,0,4,,,,,,,,,3,,,79,43
18300,note_on,120,0,4,,,,,,,,,3,,,79,0
18300,note_on,0,0,5,,,,,,,,,4,,,62,43
18300,note_on,120,0,5,,,,,,,,,4,,,64,0
18300,note_on,0,0,4,,,,,,,,,3,,,77,43
18360,note_on,0,0,7,,,,,,,,,6,,,43,100
18360,note_on,1020,0,6,,,,,,,,,5,,,59,100
18360,note_on,1020,0,7,,,,,,,,,6,,,31,100
18360,note_on,0,0,8,,,,,,,,,7,,,43,100
18360,note_on,0,0,1,,,,,,,,,0,,,77,100
18360,note_on,60,0,5,,,,,,,,,4,,,62,0
18360,note_on,0,0,5,,,,,,,,,4,,,55,100
18360,note_on,0,0,5,,,,,,,,,4,,,62,100
18360,note_on,60,0,4,,,,,,,,,3,,,77,0
18360,note_on,0,0,4,,,,,,,,,3,,,67,100
18360,note_on,0,0,4,,,,,,,,,3,,,77,100
18360,note_on,0,0,2,,,,,,,,,1,,,77,100
18360,note_on,1020,0,2,,,,,,,,,1,,,74,100
18360,note_on,0,0,3,,,,,,,,,2,,,74,100
18360,note_on,2400,0,3,,,,,,,,,2,,,67,100
18360,note_on,1020,0,8,,,,,,,,,7,,,31,100
18360,note_on,1020,0,1,,,,,,,,,0,,,74,100
18420,note_on,0,0,6,,,,,,,,,5,,,60,100
18420,note_on,60,0,6,,,,,,,,,5,,,59,0
18420,note_on,60,0,8,,,,,,,,,7,,,43,0
18420,note_on,0,0,7,,,,,,,,,6,,,45,100
18420,note_on,0,0,7,,,,,,,,,6,,,33,100
18420,note_on,0,0,7,,,,,,,,,6,,,31,0
18420,note_on,60,0,7,,,,,,,,,6,,,43,0
18420,note_on,0,0,8,,,,,,,,,7,,,33,100
18420,note_on,0,0,8,,,,,,,,,7,,,45,100
18420,note_on,0,0,8,,,,,,,,,7,,,31,0
18480,note_on,0,0,7,,,,,,,,,6,,,47,100
18480,note_on,0,0,7,,,,,,,,,6,,,35,100
18480,note_on,0,0,7,,,,,,,,,6,,,33,0
18480,note_on,60,0,6,,,,,,,,,5,,,60,0
18480,note_on,60,0,8,,,,,,,,,7,,,45,0
18480,note_on,0,0,8,,,,,,,,,7,,,33,0
18480,note_on,0,0,8,,,,,,,,,7,,,35,100
18480,note_on,0,0,8,,,,,,,,,7,,,47,100
18480,note_on,0,0,6,,,,,,,,,5,,,62,100
18480,note_on,60,0,7,,,,,,,,,6,,,45,0
18540,note_on,60,0,8,,,,,,,,,7,,,47,0
18540,note_on,0,0,7,,,,,,,,,6,,,35,0
18540,note_on,60,0,7,,,,,,,,,6,,,47,0
18540,note_on,0,0,7,,,,,,,,,6,,,43,100
18540,note_on,0,0,8,,,,,,,,,7,,,35,0
18540,note_on,0,0,8,,,,,,,,,7,,,31,100
18540,note_on,0,0,8,,,,,,,,,7,,,43,100
18540,note_on,60,0,6,,,,,,,,,5,,,62,0
18540,note_on,0,0,6,,,,,,,,,5,,,59,100
18540,note_on,0,0,7,,,,,,,,,6,,,31,100
18600,note_on,0,0,6,,,,,,,,,5,,,60,100
18600,note_on,60,0,7,,,,,,,,,6,,,43,0
18600,note_on,0,0,7,,,,,,,,,6,,,31,0
18600,note_on,0,0,8,,,,,,,,,7,,,31,0
18600,note_on,60,0,8,,,,,,,,,7,,,43,0
18600,note_on,0,0,7,,,,,,,,,6,,,33,100
18600,note_on,0,0,7,,,,,,,,,6,,,45,100
18600,note_on,0,0,8,,,,,,,,,7,,,33,100
18600,note_on,0,0,8,,,,,,,,,7,,,45,100
18600,note_on,60,0,6,,,,,,,,,5,,,59,0
18660,note_on,0,0,7,,,,,,,,,6,,,47,100
18660,note_on,60,0,8,,,,,,,,,7,,,45,0
18660,note_on,0,0,8,,,,,,,,,7,,,33,0
18660,note_on,0,0,8,,,,,,,,,7,,,47,100
18660,note_on,0,0,6,,,,,,,,,5,,,62,100
18660,note_on,60,0,6,,,,,,,,,5,,,60,0
18660,note_on,60,0,7,,,,,,,,,6,,,45,0
18660,note_on,0,0,7,,,,,,,,,6,,,33,0
18660,note_on,0,0,8,,,,,,,,,7,,,35,100
18660,note_on,0,0,7,,,,,,,,,6,,,35,100
18720,note_on,0,0,3,,,,,,,,,2,,,76,100
18720,note_on,360,0,3,,,,,,,,,2,,,74,0
18720,note_on,0,0,7,,,,,,,,,6,,,36,100
18720,note_on,0,0,7,,,,,,,,,6,,,35,0
18720,note_on,60,0,7,,,,,,,,,6,,,47,0
18720,note_on,0,0,7,,,,,,,,,6,,,48,100
18720,note_on,0,0,3,,,,,,,,,2,,,72,100
18720,note_on,0,0,3,,,,,,,,,2,,,67,0
18720,note_on,0,0,5,,,,,,,,,4,,,55,0
18720,note_on,0,0,6,,,,,,,,,5,,,60,100
18720,note_on,60,0,6,,,,,,,,,5,,,62,0
18720,note_on,0,0,8,,,,,,,,,7,,,48,100
18720,note_on,0,0,8,,,,,,,,,7,,,36,100
18720,note_on,0,0,8,,,,,,,,,7,,,35,0
18720,note_on,60,0,8,,,,,,,,,7,,,47,0
18720,note_on,0,0,5,,,,,,,,,4,,,60,100
18720,note_on,360,0,4,,,,,,,,,3,,,77,0
18720,note_on,0,0,4,,,,,,,,,3,,,76,100
18720,note_on,0,0,2,,,,,,,,,1,,,74,0
18720,note_on,0,0,2,,,,,,,,,1,,,72,100
18720,note_on,0,0,2,,,,,,,,,1,,,76,100
18720,note_on,0,0,1,,,,,,,,,0,,,72,100
18720,note_on,0,0,1,,,,,,,,,0,,,74,0
18720,note_on,360,0,1,,,,,,,,,0,,,77,0
18720,note_on,360,0,5,,,,,,,,,4,,,62,0
18720,note_on,360,0,2,,,,,,,,,1,,,77,0
18720,note_on,0,0,1,,,,,,,,,0,,,76,100
18780,note_on,60,0,8,,,,,,,,,7,,,48,0
18780,note_on,0,0,8,,,,,,,,,7,,,36,0
18780,note_on,60,0,3,,,,,,,,,2,,,72,0
18780,note_on,0,0,7,,,,,,,,,6,,,36,0
18780,note_on,0,0,3,,,,,,,,,2,,,76,0
18780,note_on,60,0,6,,,,,,,,,5,,,60,0
18780,note_on,60,0,5,,,,,,,,,4,,,60,0
18780,note_on,60,0,1,,,,,,,,,0,,,76,0
18780,note_on,0,0,1,,,,,,,,,0,,,72,0
18780,note_on,0,0,4,,,,,,,,,3,,,67,0
18780,note_on,60,0,4,,,,,,,,,3,,,76,0
18780,note_on,60,0,7,,,,,,,,,6,,,48,0
18780,note_on,60,0,2,,,,,,,,,1,,,76,0
18780,note_on,0,0,2,,,,,,,,,1,,,72,0
19080,note_on,0,0,4,,,,,,,,,3,,,83,100
19080,note_on,0,0,4,,,,,,,,,3,,,74,100
19080,note_on,300,0,4,,,,,,,,,3,,,67,100
19080,note_on,0,0,2,,,,,,,,,1,,,74,100
19080,note_on,0,0,1,,,,,,,,,0,,,74,100
19080,note_on,300,0,1,,,,,,,,,0,,,71,100
19080,note_on,300,0,5,,,,,,,,,4,,,79,100
19080,note_on,0,0,3,,,,,,,,,2,,,74,100
19080,note_on,300,0,3,,,,,,,,,2,,,67,100
19080,note_on,300,0,8,,,,,,,,,7,,,43,100
19080,note_on,300,0,2,,,,,,,,,1,,,67,100
19080,note_on,0,0,8,,,,,,,,,7,,,55,100
19080,note_on,0,0,6,,,,,,,,,5,,,62,100
19080,note_on,300,0,7,,,,,,,,,6,,,43,100
19080,note_on,0,0,7,,,,,,,,,6,,,55,100
19080,note_on,300,0,6,,,,,,,,,5,,,59,100
19140,note_on,0,0,5,,,,,,,,,4,,,79,100
19140,note_on,60,0,5,,,,,,,,,4,,,79,0
19200,note_on,60,0,5,,,,,,,,,4,,,79,0
19200,note_on,0,0,1,,,,,,,,,0,,,77,100
19200,note_on,120,0,6,,,,,,,,,5,,,62,0
19200,note_on,0,0,1,,,,,,,,,0,,,74,100
19200,note_on,0,0,3,,,,,,,,,2,,,67,0
19200,note_on,120,0,7,,,,,,,,,6,,,55,0
19200,note_on,120,0,1,,,,,,,,,0,,,74,0
19200,note_on,0,0,2,,,,,,,,,1,,,77,100
19200,note_on,0,0,2,,,,,,,,,1,,,74,100
19200,note_on,0,0,2,,,,,,,,,1,,,67,0
19200,note_on,120,0,2,,,,,,,,,1,,,74,0
19200,note_on,120,0,8,,,,,,,,,7,,,55,0
19200,note_on,0,0,7,,,,,,,,,6,,,43,0
19200,note_on,0,0,1,,,,,,,,,0,,,71,0
19200,note_on,120,0,3,,,,,,,,,2,,,74,0
19200,note_on,120,0,4,,,,,,,,,3,,,83,0
19200,note_on,0,0,5,,,,,,,,,4,,,79,100
19200,note_on,0,0,4,,,,,,,,,3,,,67,0
19200,note_on,0,0,4,,,,,,,,,3,,,74,0
19200,note_on,0,0,6,,,,,,,,,5,,,59,0
19200,note_on,0,0,6,,,,,,,,,5,,,62,100
19200,note_on,0,0,6,,,,,,,,,5,,,65,100
19200,note_on,0,0,8,,,,,,,,,7,,,43,0
19260,note_on,0,0,6,,,,,,,,,5,,,62,0
19260,note_on,60,0,5,,,,,,,,,4,,,79,0
19260,note_on,0,0,5,,,,,,,,,4,,,79,100
19260,note_on,0,0,1,,,,,,,,,0,,,77,100
19260,note_on,0,0,1,,,,,,,,,0,,,74,100
19260,note_on,0,0,1,,,,,,,,,0,,,74,0
19260,note_on,60,0,6,,,,,,,,,5,,,65,0
19260,note_on,60,0,1,,,,,,,,,0,,,77,0
19260,note_on,0,0,6,,,,,,,,,5,,,62,100
19260,note_on,0,0,2,,,,,,,,,1,,,77,100
19260,note_on,0,0,2,,,,,,,,,1,,,74,100
19260,note_on,0,0,2,,,,,,,,,1,,,74,0
19260,note_on,60,0,2,,,,,,,,,1,,,77,0
19260,note_on,0,0,6,,,,,,,,,5,,,65,100
19265,note_on,0,0,5,,,,,,,,,4,,,81,100
19265,note_on,5,0,5,,,,,,,,,4,,,79,0
19270,note_on,0,0,5,,,,,,,,,4,,,79,100
19270,note_on,5,0,5,,,,,,,,,4,,,81,0
19275,note_on,5,0,5,,,,,,,,,4,,,79,0
19275,note_on,0,0,5,,,,,,,,,4,,,78,100
19290,note_on,15,0,5,,,,,,,,,4,,,78,0
19290,note_on,0,0,5,,,,,,,,,4,,,79,100
19320,note_on,60,0,2,,,,,,,,,1,,,77,0
19320,note_on,0,0,2,,,,,,,,,1,,,76,100
19320,note_on,60,0,1,,,,,,,,,0,,,77,0
19320,note_on,0,0,1,,,,,,,,,0,,,74,0
19320,note_on,0,0,1,,,,,,,,,0,,,72,100
19320,note_on,0,0,1,,,,,,,,,0,,,76,100
19320,note_on,0,0,2,,,,,,,,,1,,,72,100
19320,note_on,30,0,5,,,,,,,,,4,,,79,0
19320,note_on,0,0,6,,,,,,,,,5,,,60,100
19320,note_on,0,0,6,,,,,,,,,5,,,62,0
19320,note_on,60,0,6,,,,,,,,,5,,,65,0
19320,note_on,0,0,6,,,,,,,,,5,,,64,100
19320,note_on,0,0,2,,,,,,,,,1,,,74,0
19380,note_on,60,0,1,,,,,,,,,0,,,76,0
19380,note_on,0,0,1,,,,,,,,,0,,,72,0
19380,note_on,0,0,1,,,,,,,,,0,,,71,100
19380,note_on,0,0,2,,,,,,,,,1,,,74,100
19380,note_on,0,0,2,,,,,,,,,1,,,67,100
19380,note_on,0,0,2,,,,,,,,,1,,,72,0
19380,note_on,0,0,1,,,,,,,,,0,,,74,100
19380,note_on,60,0,2,,,,,,,,,1,,,76,0
19380,note_on,0,0,6,,,,,,,,,5,,,62,100
19380,note_on,0,0,6,,,,,,,,,5,,,59,100
19380,note_on,0,0,6,,,,,,,,,5,,,60,0
19380,note_on,60,0,6,,,,,,,,,5,,,64,0
19440,note_on,0,0,1,,,,,,,,,0,,,71,0
19440,note_on,60,0,1,,,,,,,,,0,,,74,0
19440,note_on,0,0,4,,,,,,,,,3,,,84,100
19440,note_on,0,0,4,,,,,,,,,3,,,76,100
19440,note_on,240,0,4,,,,,,,,,3,,,67,100
19440,note_on,120,0,5,,,,,,,,,4,,,79,100
19440,note_on,0,0,6,,,,,,,,,5,,,60,100
19440,note_on,0,0,6,,,,,,,,,5,,,59,0
19440,note_on,0,0,3,,,,,,,,,2,,,72,100
19440,note_on,60,0,2,,,,,,,,,1,,,74,0
19440,note_on,240,0,3,,,,,,,,,2,,,76,100
19440,note_on,240,0,8,,,,,,,,,7,,,40,100
19440,note_on,60,0,6,,,,,,,,,5,,,62,0
19440,note_on,0,0,1,,,,,,,,,0,,,72,100
19440,note_on,0,0,1,,,,,,,,,0,,,76,100
19440,note_on,0,0,8,,,,,,,,,7,,,52,100
19440,note_on,0,0,7,,,,,,,,,6,,,52,100
19440,note_on,0,0,2,,,,,,,,,1,,,72,100
19440,note_on,0,0,2,,,,,,,,,1,,,76,100
19440,note_on,0,0,2,,,,,,,,,1,,,67,0
19440,note_on,0,0,6,,,,,,,,,5,,,64,100
19440,note_on,240,0,7,,,,,,,,,6,,,40,100
19500,note_on,0,0,5,,,,,,,,,4,,,79,100
19500,note_on,60,0,5,,,,,,,,,4,,,79,0
19560,note_on,120,0,2,,,,,,,,,1,,,76,0
19560,note_on,0,0,8,,,,,,,,,7,,,40,0
19560,note_on,0,0,1,,,,,,,,,0,,,72,0
19560,note_on,120,0,3,,,,,,,,,2,,,72,0
19560,note_on,0,0,3,,,,,,,,,2,,,76,0
19560,note_on,0,0,2,,,,,,,,,1,,,72,0
19560,note_on,0,0,6,,,,,,,,,5,,,64,100
19560,note_on,60,0,5,,,,,,,,,4,,,79,0
19560,note_on,0,0,5,,,,,,,,,4,,,79,100
19560,note_on,0,0,6,,,,,,,,,5,,,60,0
19560,note_on,120,0,6,,,,,,,,,5,,,64,0
19560,note_on,0,0,7,,,,,,,,,6,,,40,0
19560,note_on,0,0,2,,,,,,,,,1,,,76,100
19560,note_on,0,0,1,,,,,,,,,0,,,76,100
19560,note_on,0,0,1,,,,,,,,,0,,,79,100
19560,note_on,0,0,4,,,,,,,,,3,,,67,0
19560,note_on,0,0,4,,,,,,,,,3,,,76,0
19560,note_on,120,0,4,,,,,,,,,3,,,84,0
19560,note_on,120,0,1,,,,,,,,,0,,,76,0
19560,note_on,120,0,8,,,,,,,,,7,,,52,0
19560,note_on,0,0,6,,,,,,,,,5,,,67,100
19560,note_on,0,0,2,,,,,,,,,1,,,79,100
19560,note_on,120,0,7,,,,,,,,,6,,,52,0
19620,note_on,0,0,6,,,,,,,,,5,,,64,100
19620,note_on,0,0,6,,,,,,,,,5,,,64,0
19620,note_on,60,0,6,,,,,,,,,5,,,67,0
19620,note_on,60,0,5,,,,,,,,,4,,,79,0
19620,note_on,0,0,6,,,,,,,,,5,,,67,100
19620,note_on,0,0,5,,,,,,,,,4,,,79,100
19620,note_on,0,0,2,,,,,,,,,1,,,79,100
19620,note_on,60,0,2,,,,,,,,,1,,,79,0
19620,note_on,60,0,1,,,,,,,,,0,,,79,0
19620,note_on,0,0,1,,,,,,,,,0,,,76,0
19620,note_on,0,0,1,,,,,,,,,0,,,76,100
19620,note_on,0,0,1,,,,,,,,,0,,,79,100
19620,note_on,0,0,2,,,,,,,,,1,,,76,0
19620,note_on,0,0,2,,,,,,,,,1,,,76,100
19625,note_on,5,0,5,,,,,,,,,4,,,79,0
19625,note_on,0,0,5,,,,,,,,,4,,,81,100
19630,note_on,5,0,5,,,,,,,,,4,,,81,0
19630,note_on,0,0,5,,,,,,,,,4,,,79,100
19635,note_on,5,0,5,,,,,,,,,4,,,79,0
19635,note_on,0,0,5,,,,,,,,,4,,,78,100
19650,note_on,15,0,5,,,,,,,,,4,,,78,0
19650,note_on,0,0,5,,,,,,,,,4,,,79,100
19680,note_on,0,0,1,,,,,,,,,0,,,76,0
19680,note_on,0,0,6,,,,,,,,,5,,,65,100
19680,note_on,0,0,6,,,,,,,,,5,,,62,100
19680,note_on,0,0,6,,,,,,,,,5,,,64,0
19680,note_on,60,0,6,,,,,,,,,5,,,67,0
19680,note_on,0,0,1,,,,,,,,,0,,,74,100
19680,note_on,0,0,2,,,,,,,,,1,,,74,100
19680,note_on,0,0,2,,,,,,,,,1,,,76,0
19680,note_on,60,0,2,,,,,,,,,1,,,79,0
19680,note_on,30,0,5,,,,,,,,,4,,,79,0
19680,note_on,0,0,2,,,,,,,,,1,,,77,100
19680,note_on,0,0,1,,,,,,,,,0,,,77,100
19680,note_on,60,0,1,,,,,,,,,0,,,79,0
19740,note_on,60,0,1,,,,,,,,,0,,,77,0
19740,note_on,0,0,1,,,,,,,,,0,,,74,0
19740,note_on,0,0,1,,,,,,,,,0,,,72,100
19740,note_on,0,0,1,,,,,,,,,0,,,76,100
19740,note_on,0,0,2,,,,,,,,,1,,,74,0
19740,note_on,60,0,2,,,,,,,,,1,,,77,0
19740,note_on,0,0,6,,,,,,,,,5,,,62,0
19740,note_on,0,0,2,,,,,,,,,1,,,72,100
19740,note_on,0,0,6,,,,,,,,,5,,,60,100
19740,note_on,0,0,2,,,,,,,,,1,,,76,100
19740,note_on,60,0,6,,,,,,,,,5,,,65,0
19740,note_on,0,0,6,,,,,,,,,5,,,64,100
19800,note_on,0,0,2,,,,,,,,,1,,,77,100
19800,note_on,0,0,7,,,,,,,,,6,,,47,100
19800,note_on,240,0,7,,,,,,,,,6,,,35,100
19800,note_on,120,0,5,,,,,,,,,4,,,79,100
19800,note_on,0,0,2,,,,,,,,,1,,,72,0
19800,note_on,0,0,1,,,,,,,,,0,,,77,100
19800,note_on,60,0,6,,,,,,,,,5,,,64,0
19800,note_on,0,0,6,,,,,,,,,5,,,60,0
19800,note_on,0,0,6,,,,,,,,,5,,,62,100
19800,note_on,0,0,6,,,,,,,,,5,,,65,100
19800,note_on,0,0,1,,,,,,,,,0,,,72,0
19800,note_on,60,0,1,,,,,,,,,0,,,76,0
19800,note_on,60,0,2,,,,,,,,,1,,,76,0
19800,note_on,0,0,1,,,,,,,,,0,,,74,100
19800,note_on,240,0,3,,,,,,,,,2,,,67,100
19800,note_on,0,0,2,,,,,,,,,1,,,74,100
19800,note_on,240,0,4,,,,,,,,,3,,,67,100
19800,note_on,0,0,8,,,,,,,,,7,,,47,100
19800,note_on,0,0,3,,,,,,,,,2,,,74,100
19800,note_on,240,0,8,,,,,,,,,7,,,35,100
19800,note_on,0,0,4,,,,,,,,,3,,,86,100
19800,note_on,0,0,4,,,,,,,,,3,,,77,100
19805,note_on,0,0,5,,,,,,,,,4,,,81,100
19805,note_on,5,0,5,,,,,,,,,4,,,79,0
19810,note_on,5,0,5,,,,,,,,,4,,,81,0
19810,note_on,0,0,5,,,,,,,,,4,,,79,100
19815,note_on,5,0,5,,,,,,,,,4,,,79,0
19815,note_on,0,0,5,,,,,,,,,4,,,78,100
19830,note_on,0,0,5,,,,,,,,,4,,,79,100
19830,note_on,15,0,5,,,,,,,,,4,,,78,0
19860,note_on,30,0,5,,,,,,,,,4,,,79,0
19920,note_on,0,0,4,,,,,,,,,3,,,67,0
19920,note_on,0,0,6,,,,,,,,,5,,,62,0
19920,note_on,0,0,2,,,,,,,,,1,,,77,0
19920,note_on,120,0,6,,,,,,,,,5,,,65,0
19920,note_on,0,0,8,,,,,,,,,7,,,35,0
19920,note_on,120,0,8,,,,,,,,,7,,,47,0
19920,note_on,0,0,7,,,,,,,,,6,,,35,0
19920,note_on,0,0,4,,,,,,,,,3,,,77,0
19920,note_on,0,0,3,,,,,,,,,2,,,67,0
19920,note_on,120,0,1,,,,,,,,,0,,,77,0
19920,note_on,0,0,1,,,,,,,,,0,,,74,0
19920,note_on,120,0,3,,,,,,,,,2,,,74,0
19920,note_on,120,0,7,,,,,,,,,6,,,47,0
19920,note_on,120,0,4,,,,,,,,,3,,,86,0
19920,note_on,120,0,2,,,,,,,,,1,,,74,0
19980,note_on,60,0,1,,,,,,,,,0,,,72,100
19980,note_on,0,0,1,,,,,,,,,0,,,76,100
19980,note_on,0,0,2,,,,,,,,,1,,,72,100
19980,note_on,60,0,8,,,,,,,,,7,,,36,100
19980,note_on,0,0,8,,,,,,,,,7,,,48,100
19980,note_on,60,0,2,,,,,,,,,1,,,76,100
19980,note_on,0,0,7,,,,,,,,,6,,,48,100
19980,note_on,0,0,6,,,,,,,,,5,,,64,100
19980,note_on,60,0,6,,,,,,,,,5,,,60,100
19980,note_on,0,0,4,,,,,,,,,3,,,84,100
19980,note_on,0,0,4,,,,,,,,,3,,,76,100
19980,note_on,60,0,4,,,,,,,,,3,,,67,100
19980,note_on,0,0,3,,,,,,,,,2,,,76,100
19980,note_on,60,0,3,,,,,,,,,2,,,72,100
19980,note_on,60,0,7,,,,,,,,,6,,,36,100
19980,note_on,120,0,5,,,,,,,,,4,,,79,100
19985,note_on,5,0,5,,,,,,,,,4,,,79,0
19985,note_on,0,0,5,,,,,,,,,4,,,81,100
19990,note_on,0,0,5,,,,,,,,,4,,,79,100
19990,note_on,5,0,5,,,,,,,,,4,,,81,0
19995,note_on,5,0,5,,,,,,,,,4,,,79,0
19995,note_on,0,0,5,,,,,,,,,4,,,78,100
20010,note_on,15,0,5,,,,,,,,,4,,,78,0
20010,note_on,0,0,5,,,,,,,,,4,,,79,100
20040,note_on,30,0,5,,,,,,,,,4,,,79,0
20100,note_on,120,0,2,,,,,,,,,1,,,72,0
20100,note_on,0,0,2,,,,,,,,,1,,,76,0
20100,note_on,120,0,4,,,,,,,,,3,,,84,0
20100,note_on,0,0,4,,,,,,,,,3,,,76,0
20100,note_on,0,0,4,,,,,,,,,3,,,67,0
20100,note_on,0,0,6,,,,,,,,,5,,,60,0
20100,note_on,120,0,6,,,,,,,,,5,,,64,0
20100,note_on,0,0,1,,,,,,,,,0,,,72,0
20100,note_on,120,0,3,,,,,,,,,2,,,76,0
20100,note_on,120,0,7,,,,,,,,,6,,,48,0
20100,note_on,0,0,7,,,,,,,,,6,,,36,0
20100,note_on,0,0,3,,,,,,,,,2,,,72,0
20100,note_on,0,0,8,,,,,,,,,7,,,36,0
20100,note_on,120,0,8,,,,,,,,,7,,,48,0
20100,note_on,120,0,1,,,,,,,,,0,,,76,0
20160,note_on,0,0,2,,,,,,,,,1,,,67,100
20160,note_on,60,0,6,,,,,,,,,5,,,59,100
20160,note_on,0,0,6,,,,,,,,,5,,,62,100
20160,note_on,60,0,3,,,,,,,,,2,,,67,100
20160,note_on,120,0,5,,,,,,,,,4,,,79,100
20160,note_on,60,0,2,,,,,,,,,1,,,74,100
20160,note_on,60,0,1,,,,,,,,,0,,,71,100
20160,note_on,0,0,1,,,,,,,,,0,,,74,100
20160,note_on,0,0,3,,,,,,,,,2,,,74,100
20160,note_on,60,0,8,,,,,,,,,7,,,31,100
20160,note_on,0,0,7,,,,,,,,,6,,,43,100
20160,note_on,60,0,7,,,,,,,,,6,,,31,100
20160,note_on,60,0,4,,,,,,,,,3,,,67,100
20160,note_on,0,0,4,,,,,,,,,3,,,74,100
20160,note_on,0,0,4,,,,,,,,,3,,,83,100
20160,note_on,0,0,8,,,,,,,,,7,,,43,100
20165,note_on,5,0,5,,,,,,,,,4,,,79,0
20165,note_on,0,0,5,,,,,,,,,4,,,81,100
20170,note_on,5,0,5,,,,,,,,,4,,,81,0
20170,note_on,0,0,5,,,,,,,,,4,,,79,100
20175,note_on,0,0,5,,,,,,,,,4,,,78,100
20175,note_on,5,0,5,,,,,,,,,4,,,79,0
20190,note_on,15,0,5,,,,,,,,,4,,,78,0
20190,note_on,0,0,5,,,,,,,,,4,,,79,100
20220,note_on,0,0,7,,,,,,,,,6,,,31,0
20220,note_on,60,0,7,,,,,,,,,6,,,43,0
20220,note_on,0,0,7,,,,,,,,,6,,,31,40
20220,note_on,60,0,8,,,,,,,,,7,,,43,0
20220,note_on,30,0,5,,,,,,,,,4,,,79,0
20220,note_on,0,0,8,,,,,,,,,7,,,31,0
20220,note_on,0,0,8,,,,,,,,,7,,,31,40
20220,note_on,0,0,8,,,,,,,,,7,,,43,40
20220,note_on,0,0,7,,,,,,,,,6,,,43,40
20280,note_on,120,0,4,,,,,,,,,3,,,83,0
20280,note_on,60,0,8,,,,,,,,,7,,,43,0
20280,note_on,0,0,8,,,,,,,,,7,,,31,0
20280,note_on,0,0,8,,,,,,,,,7,,,31,40
20280,note_on,0,0,8,,,,,,,,,7,,,43,40
20280,note_on,120,0,3,,,,,,,,,2,,,74,0
20280,note_on,0,0,4,,,,,,,,,3,,,74,0
20280,note_on,120,0,2,,,,,,,,,1,,,67,0
20280,note_on,0,0,2,,,,,,,,,1,,,74,0
20280,note_on,0,0,6,,,,,,,,,5,,,59,0
20280,note_on,120,0,6,,,,,,,,,5,,,62,0
20280,note_on,0,0,3,,,,,,,,,2,,,67,0
20280,note_on,0,0,4,,,,,,,,,3,,,67,0
20280,note_on,120,0,1,,,,,,,,,0,,,74,0
20280,note_on,0,0,7,,,,,,,,,6,,,31,40
20280,note_on,0,0,1,,,,,,,,,0,,,71,0
20280,note_on,60,0,7,,,,,,,,,6,,,43,0
20280,note_on,0,0,7,,,,,,,,,6,,,31,0
20280,note_on,0,0,7,,,,,,,,,6,,,43,40
20340,note_on,0,0,8,,,,,,,,,7,,,43,40
20340,note_on,0,0,8,,,,,,,,,7,,,31,40
20340,note_on,0,0,8,,,,,,,,,7,,,31,0
20340,note_on,60,0,8,,,,,,,,,7,,,43,0
20340,note_on,60,0,4,,,,,,,,,3,,,67,43
20340,note_on,60,0,6,,,,,,,,,5,,,59,100
20340,note_on,0,0,7,,,,,,,,,6,,,31,0
20340,note_on,0,0,7,,,,,,,,,6,,,31,40
20340,note_on,0,0,7,,,,,,,,,6,,,43,40
20340,note_on,120,0,5,,,,,,,,,4,,,67,44
20340,note_on,60,0,7,,,,,,,,,6,,,43,0
20400,note_on,60,0,7,,,,,,,,,6,,,43,0
20400,note_on,0,0,7,,,,,,,,,6,,,31,0
20400,note_on,0,0,7,,,,,,,,,6,,,31,40
20400,note_on,0,0,7,,,,,,,,,6,,,43,40
20400,note_on,60,0,8,,,,,,,,,7,,,43,0
20400,note_on,0,0,8,,,,,,,,,7,,,31,0
20400,note_on,0,0,8,,,,,,,,,7,,,31,40
20400,note_on,0,0,8,,,,,,,,,7,,,43,40
20460,note_on,0,0,7,,,,,,,,,6,,,31,0
20460,note_on,0,0,8,,,,,,,,,7,,,43,40
20460,note_on,0,0,7,,,,,,,,,6,,,31,40
20460,note_on,0,0,8,,,,,,,,,7,,,31,0
20460,note_on,60,0,8,,,,,,,,,7,,,43,0
20460,note_on,60,0,7,,,,,,,,,6,,,43,0
20460,note_on,0,0,8,,,,,,,,,7,,,31,40
20460,note_on,0,0,7,,,,,,,,,6,,,43,40
20520,note_on,180,0,6,,,,,,,,,5,,,59,0
20520,note_on,0,0,6,,,,,,,,,5,,,60,41
20520,note_on,0,0,7,,,,,,,,,6,,,31,40
20520,note_on,0,0,7,,,,,,,,,6,,,43,40
20520,note_on,60,0,8,,,,,,,,,7,,,43,0
20520,note_on,60,0,7,,,,,,,,,6,,,43,0
20520,note_on,0,0,8,,,,,,,,,7,,,31,0
20520,note_on,0,0,7,,,,,,,,,6,,,31,0
20520,note_on,0,0,4,,,,,,,,,3,,,68,43
20520,note_on,180,0,4,,,,,,,,,3,,,67,0
20520,note_on,0,0,8,,,,,,,,,7,,,43,40
20520,note_on,0,0,8,,,,,,,,,7,,,31,40
20580,note_on,0,0,7,,,,,,,,,6,,,43,0
20580,note_on,60,0,7,,,,,,,,,6,,,31,0
20580,note_on,60,0,8,,,,,,,,,7,,,31,0
20580,note_on,0,0,8,,,,,,,,,7,,,43,0
20580,note_on,0,0,8,,,,,,,,,7,,,43,40
20580,note_on,0,0,8,,,,,,,,,7,,,31,40
20580,note_on,0,0,7,,,,,,,,,6,,,43,40
20580,note_on,0,0,7,,,,,,,,,6,,,31,40
20640,note_on,60,0,7,,,,,,,,,6,,,31,0
20640,note_on,0,0,7,,,,,,,,,6,,,43,40
20640,note_on,0,0,7,,,,,,,,,6,,,31,40
20640,note_on,0,0,8,,,,,,,,,7,,,43,0
20640,note_on,0,0,8,,,,,,,,,7,,,43,40
20640,note_on,0,0,8,,,,,,,,,7,,,31,40
20640,note_on,0,0,7,,,,,,,,,6,,,43,0
20640,note_on,60,0,8,,,,,,,,,7,,,31,0
20700,note_on,0,0,5,,,,,,,,,4,,,65,44
20700,note_on,60,0,7,,,,,,,,,6,,,31,0
20700,note_on,0,0,7,,,,,,,,,6,,,43,0
20700,note_on,0,0,7,,,,,,,,,6,,,43,40
20700,note_on,0,0,7,,,,,,,,,6,,,31,40
20700,note_on,360,0,5,,,,,,,,,4,,,67,0
20700,note_on,60,0,8,,,,,,,,,7,,,31,0
20700,note_on,0,0,8,,,,,,,,,7,,,43,40
20700,note_on,0,0,8,,,,,,,,,7,,,31,40
20700,note_on,0,0,6,,,,,,,,,5,,,62,42
20700,note_on,180,0,6,,,,,,,,,5,,,60,0
20700,note_on,0,0,8,,,,,,,,,7,,,43,0
20760,note_on,0,0,7,,,,,,,,,6,,,43,0
20760,note_on,60,0,7,,,,,,,,,6,,,31,0
20760,note_on,0,0,7,,,,,,,,,6,,,43,40
20760,note_on,0,0,7,,,,,,,,,6,,,31,40
20760,note_on,0,0,8,,,,,,,,,7,,,31,40
20760,note_on,0,0,8,,,,,,,,,7,,,43,40
20760,note_on,0,0,8,,,,,,,,,7,,,43,0
20760,note_on,60,0,8,,,,,,,,,7,,,31,0
20820,note_on,0,0,8,,,,,,,,,7,,,43,0
20820,note_on,0,0,8,,,,,,,,,7,,,43,40
20820,note_on,0,0,8,,,,,,,,,7,,,31,40
20820,note_on,60,0,8,,,,,,,,,7,,,31,0
20820,note_on,60,0,7,,,,,,,,,6,,,31,0
20820,note_on,0,0,7,,,,,,,,,6,,,43,0
20820,note_on,0,0,7,,,,,,,,,6,,,43,40
20820,note_on,0,0,7,,,,,,,,,6,,,31,40
20880,note_on,0,0,4,,,,,,,,,3,,,67,43
20880,note_on,0,0,7,,,,,,,,,6,,,43,40
20880,note_on,360,0,4,,,,,,,,,3,,,68,0
20880,note_on,0,0,7,,,,,,,,,6,,,43,0
20880,note_on,0,0,8,,,,,,,,,7,,,43,40
20880,note_on,0,0,8,,,,,,,,,7,,,31,40
20880,note_on,0,0,8,,,,,,,,,7,,,43,0
20880,note_on,60,0,8,,,,,,,,,7,,,31,0
20880,note_on,0,0,7,,,,,,,,,6,,,31,40
20880,note_on,0,0,6,,,,,,,,,5,,,59,43
20880,note_on,180,0,6,,,,,,,,,5,,,62,0
20880,note_on,60,0,7,,,,,,,,,6,,,31,0
20940,note_on,0,0,7,,,,,,,,,6,,,31,40
20940,note_on,0,0,7,,,,,,,,,6,,,31,0
20940,note_on,0,0,7,,,,,,,,,6,,,43,40
20940,note_on,60,0,7,,,,,,,,,6,,,43,0
20940,note_on,60,0,8,,,,,,,,,7,,,43,0
20940,note_on,0,0,8,,,,,,,,,7,,,31,0
20940,note_on,0,0,8,,,,,,,,,7,,,31,40
20940,note_on,0,0,8,,,,,,,,,7,,,43,40
21000,note_on,0,0,7,,,,,,,,,6,,,43,40
21000,note_on,60,0,8,,,,,,,,,7,,,43,0
21000,note_on,0,0,8,,,,,,,,,7,,,31,0
21000,note_on,0,0,8,,,,,,,,,7,,,31,40
21000,note_on,60,0,7,,,,,,,,,6,,,43,0
21000,note_on,0,0,7,,,,,,,,,6,,,31,0
21000,note_on,0,0,7,,,,,,,,,6,,,31,40
21000,note_on,0,0,8,,,,,,,,,7,,,43,40
21060,note_on,0,0,7,,,,,,,,,6,,,43,40
21060,note_on,0,0,6,,,,,,,,,5,,,60,43
21060,note_on,0,0,7,,,,,,,,,6,,,31,0
21060,note_on,0,0,7,,,,,,,,,6,,,31,40
21060,note_on,180,0,6,,,,,,,,,5,,,59,0
21060,note_on,60,0,7,,,,,,,,,6,,,43,0
21060,note_on,0,0,8,,,,,,,,,7,,,31,40
21060,note_on,0,0,8,,,,,,,,,7,,,43,40
21060,note_on,60,0,8,,,,,,,,,7,,,43,0
21060,note_on,0,0,5,,,,,,,,,4,,,63,39
21060,note_on,360,0,5,,,,,,,,,4,,,65,0
21060,note_on,0,0,8,,,,,,,,,7,,,31,0
21120,note_on,0,0,8,,,,,,,,,7,,,43,40
21120,note_on,0,0,7,,,,,,,,,6,,,31,0
21120,note_on,60,0,8,,,,,,,,,7,,,43,0
21120,note_on,0,0,7,,,,,,,,,6,,,43,40
21120,note_on,60,0,7,,,,,,,,,6,,,43,0
21120,note_on,0,0,8,,,,,,,,,7,,,31,40
21120,note_on,0,0,8,,,,,,,,,7,,,31,0
21120,note_on,0,0,7,,,,,,,,,6,,,31,40
21180,note_on,0,0,7,,,,,,,,,6,,,31,0
21180,note_on,0,0,8,,,,,,,,,7,,,43,40
21180,note_on,0,0,8,,,,,,,,,7,,,31,40
21180,note_on,0,0,8,,,,,,,,,7,,,31,0
21180,note_on,0,0,7,,,,,,,,,6,,,43,40
21180,note_on,0,0,7,,,,,,,,,6,,,31,40
21180,note_on,60,0,7,,,,,,,,,6,,,43,0
21180,note_on,60,0,8,,,,,,,,,7,,,43,0
21240,note_on,0,0,6,,,,,,,,,5,,,59,43
21240,note_on,0,0,7,,,,,,,,,6,,,31,40
21240,note_on,0,0,7,,,,,,,,,6,,,43,40
21240,note_on,0,0,7,,,,,,,,,6,,,31,0
21240,note_on,60,0,7,,,,,,,,,6,,,43,0
21240,note_on,0,0,4,,,,,,,,,3,,,65,40
21240,note_on,360,0,4,,,,,,,,,3,,,67,0
21240,note_on,180,0,5,,,,,,,,,4,,,63,0
21240,note_on,60,0,8,,,,,,,,,7,,,43,0
21240,note_on,0,0,5,,,,,,,,,4,,,62,38
21240,note_on,960,0,2,,,,,,,,,1,,,55,43
21240,note_on,0,0,2,,,,,,,,,1,,,67,43
21240,note_on,0,0,8,,,,,,,,,7,,,31,40
21240,note_on,0,0,8,,,,,,,,,7,,,43,40
21240,note_on,0,0,8,,,,,,,,,7,,,31,0
21240,note_on,180,0,6,,,,,,,,,5,,,60,0
21300,note_on,0,0,8,,,,,,,,,7,,,43,40
21300,note_on,0,0,8,,,,,,,,,7,,,43,0
21300,note_on,60,0,8,,,,,,,,,7,,,31,0
21300,note_on,0,0,8,,,,,,,,,7,,,31,40
21300,note_on,0,0,7,,,,,,,,,6,,,31,40
21300,note_on,0,0,7,,,,,,,,,6,,,43,0
21300,note_on,60,0,5,,,,,,,,,4,,,62,0
21300,note_on,60,0,6,,,,,,,,,5,,,59,0
21300,note_on,0,0,7,,,,,,,,,6,,,43,40
21300,note_on,60,0,7,,,,,,,,,6,,,31,0
21300,note_on,60,0,4,,,,,,,,,3,,,65,0
21360,note_on,60,0,8,,,,,,,,,7,,,31,0
21360,note_on,0,0,7,,,,,,,,,6,,,31,40
21360,note_on,0,0,7,,,,,,,,,6,,,43,40
21360,note_on,0,0,8,,,,,,,,,7,,,43,40
21360,note_on,0,0,8,,,,,,,,,7,,,31,40
21360,note_on,0,0,7,,,,,,,,,6,,,43,0
21360,note_on,0,0,8,,,,,,,,,7,,,43,0
21360,note_on,60,0,7,,,,,,,,,6,,,31,0
21420,note_on,1140,0,1,,,,,,,,,0,,,79,42
21420,note_on,60,0,8,,,,,,,,,7,,,31,0
21420,note_on,0,0,8,,,,,,,,,7,,,43,0
21420,note_on,0,0,8,,,,,,,,,7,,,43,40
21420,note_on,0,0,8,,,,,,,,,7,,,31,40
21420,note_on,0,0,7,,,,,,,,,6,,,43,0
21420,note_on,120,0,6,,,,,,,,,5,,,60,43
21420,note_on,0,0,7,,,,,,,,,6,,,31,40
21420,note_on,0,0,7,,,,,,,,,6,,,43,40
21420,note_on,120,0,4,,,,,,,,,3,,,63,39
21420,note_on,60,0,7,,,,,,,,,6,,,31,0
21420,note_on,120,0,5,,,,,,,,,4,,,60,38
21480,note_on,0,0,8,,,,,,,,,7,,,43,0
21480,note_on,0,0,8,,,,,,,,,7,,,43,40
21480,note_on,0,0,8,,,,,,,,,7,,,31,40
21480,note_on,60,0,6,,,,,,,,,5,,,60,0
21480,note_on,60,0,8,,,,,,,,,7,,,31,0
21480,note_on,60,0,5,,,,,,,,,4,,,60,0
21480,note_on,60,0,4,,,,,,,,,3,,,63,0
21480,note_on,0,0,7,,,,,,,,,6,,,43,40
21480,note_on,0,0,7,,,,,,,,,6,,,31,40
21480,note_on,0,0,7,,,,,,,,,6,,,43,0
21480,note_on,60,0,7,,,,,,,,,6,,,31,0
21540,note_on,60,0,7,,,,,,,,,6,,,31,0
21540,note_on,0,0,7,,,,,,,,,6,,,43,0
21540,note_on,0,0,7,,,,,,,,,6,,,43,40
21540,note_on,0,0,7,,,,,,,,,6,,,31,40
21540,note_on,0,0,8,,,,,,,,,7,,,43,40
21540,note_on,60,0,8,,,,,,,,,7,,,31,0
21540,note_on,0,0,8,,,,,,,,,7,,,43,0
21540,note_on,0,0,8,,,,,,,,,7,,,31,40
21600,note_on,0,0,7,,,,,,,,,6,,,43,0
21600,note_on,0,0,7,,,,,,,,,6,,,31,40
21600,note_on,60,0,8,,,,,,,,,7,,,31,0
21600,note_on,0,0,8,,,,,,,,,7,,,43,0
21600,note_on,0,0,8,,,,,,,,,7,,,31,40
21600,note_on,0,0,8,,,,,,,,,7,,,43,40
21600,note_on,60,0,7,,,,,,,,,6,,,31,0
21600,note_on,120,0,5,,,,,,,,,4,,,59,38
21600,note_on,0,0,7,,,,,,,,,6,,,43,40
21600,note_on,120,0,6,,,,,,,,,5,,,55,43
21600,note_on,180,0,1,,,,,,,,,0,,,80,43
21600,note_on,120,0,4,,,,,,,,,3,,,62,40
21660,note_on,60,0,7,,,,,,,,,6,,,43,0
21660,note_on,0,0,7,,,,,,,,,6,,,31,0
21660,note_on,0,0,7,,,,,,,,,6,,,31,40
21660,note_on,0,0,7,,,,,,,,,6,,,43,40
21660,note_on,60,0,6,,,,,,,,,5,,,55,0
21660,note_on,60,0,8,,,,,,,,,7,,,43,0
21660,note_on,0,0,8,,,,,,,,,7,,,31,0
21660,note_on,0,0,8,,,,,,,,,7,,,31,40
21660,note_on,60,0,4,,,,,,,,,3,,,62,0
21660,note_on,60,0,5,,,,,,,,,4,,,59,0
21660,note_on,0,0,8,,,,,,,,,7,,,43,40
21720,note_on,120,0,1,,,,,,,,,0,,,79,0
21720,note_on,60,0,7,,,,,,,,,6,,,43,0
21720,note_on,0,0,7,,,,,,,,,6,,,31,0
21720,note_on,0,0,7,,,,,,,,,6,,,31,40
21720,note_on,60,0,8,,,,,,,,,7,,,43,0
21720,note_on,0,0,8,,,,,,,,,7,,,31,0
21720,note_on,0,0,8,,,,,,,,,7,,,43,40
21720,note_on,0,0,8,,,,,,,,,7,,,31,40
21720,note_on,0,0,7,,,,,,,,,6,,,43,40
21780,note_on,0,0,7,,,,,,,,,6,,,31,0
21780,note_on,60,0,7,,,,,,,,,6,,,43,0
21780,note_on,60,0,8,,,,,,,,,7,,,43,0
21780,note_on,120,0,4,,,,,,,,,3,,,67,40
21780,note_on,0,0,8,,,,,,,,,7,,,31,0
21780,note_on,0,0,8,,,,,,,,,7,,,31,40
21780,note_on,0,0,8,,,,,,,,,7,,,43,40
21780,note_on,60,0,1,,,,,,,,,0,,,77,43
21780,note_on,0,0,7,,,,,,,,,6,,,43,40
21780,note_on,120,0,5,,,,,,,,,4,,,59,38
21780,note_on,0,0,7,,,,,,,,,6,,,31,40
21780,note_on,120,0,6,,,,,,,,,5,,,62,43
21840,note_on,0,0,8,,,,,,,,,7,,,31,40
21840,note_on,60,0,8,,,,,,,,,7,,,43,0
21840,note_on,0,0,8,,,,,,,,,7,,,31,0
21840,note_on,0,0,8,,,,,,,,,7,,,43,40
21840,note_on,0,0,7,,,,,,,,,6,,,31,0
21840,note_on,60,0,7,,,,,,,,,6,,,43,0
21840,note_on,0,0,7,,,,,,,,,6,,,31,40
21840,note_on,0,0,7,,,,,,,,,6,,,43,40
21900,note_on,0,0,7,,,,,,,,,6,,,43,40
21900,note_on,0,0,8,,,,,,,,,7,,,31,0
21900,note_on,0,0,8,,,,,,,,,7,,,31,40
21900,note_on,0,0,8,,,,,,,,,7,,,43,40
21900,note_on,60,0,8,,,,,,,,,7,,,43,0
21900,note_on,0,0,7,,,,,,,,,6,,,31,40
21900,note_on,60,0,7,,,,,,,,,6,,,43,0
21900,note_on,0,0,7,,,,,,,,,6,,,31,0
21960,note_on,180,0,4,,,,,,,,,3,,,67,0
21960,note_on,0,0,8,,,,,,,,,7,,,31,0
21960,note_on,60,0,8,,,,,,,,,7,,,43,0
21960,note_on,0,0,7,,,,,,,,,6,,,43,40
21960,note_on,0,0,4,,,,,,,,,3,,,68,41
21960,note_on,0,0,1,,,,,,,,,0,,,79,44
21960,note_on,180,0,1,,,,,,,,,0,,,80,0
21960,note_on,180,0,6,,,,,,,,,5,,,62,0
21960,note_on,180,0,5,,,,,,,,,4,,,59,0
21960,note_on,0,0,5,,,,,,,,,4,,,60,38
21960,note_on,0,0,6,,,,,,,,,5,,,63,43
21960,note_on,0,0,7,,,,,,,,,6,,,31,40
21960,note_on,0,0,7,,,,,,,,,6,,,31,0
21960,note_on,60,0,7,,,,,,,,,6,,,43,0
21960,note_on,0,0,8,,,,,,,,,7,,,43,40
21960,note_on,0,0,8,,,,,,,,,7,,,31,40
22020,note_on,0,0,7,,,,,,,,,6,,,43,41
22020,note_on,0,0,7,,,,,,,,,6,,,31,41
22020,note_on,0,0,8,,,,,,,,,7,,,31,41
22020,note_on,60,0,7,,,,,,,,,6,,,31,0
22020,note_on,0,0,8,,,,,,,,,7,,,43,41
22020,note_on,0,0,7,,,,,,,,,6,,,43,0
22020,note_on,60,0,8,,,,,,,,,7,,,31,0
22020,note_on,0,0,8,,,,,,,,,7,,,43,0
22080,note_on,0,0,8,,,,,,,,,7,,,43,41
22080,note_on,0,0,8,,,,,,,,,7,,,31,41
22080,note_on,0,0,8,,,,,,,,,7,,,43,0
22080,note_on,60,0,8,,,,,,,,,7,,,31,0
22080,note_on,0,0,7,,,,,,,,,6,,,43,0
22080,note_on,0,0,7,,,,,,,,,6,,,43,41
22080,note_on,0,0,7,,,,,,,,,6,,,31,41
22080,note_on,60,0,7,,,,,,,,,6,,,31,0
22140,note_on,0,0,8,,,,,,,,,7,,,43,0
22140,note_on,0,0,8,,,,,,,,,7,,,43,41
22140,note_on,0,0,7,,,,,,,,,6,,,31,41
22140,note_on,0,0,8,,,,,,,,,7,,,31,41
22140,note_on,180,0,5,,,,,,,,,4,,,60,0
22140,note_on,0,0,6,,,,,,,,,5,,,65,43
22140,note_on,0,0,1,,,,,,,,,0,,,75,44
22140,note_on,0,0,7,,,,,,,,,6,,,43,41
22140,note_on,0,0,7,,,,,,,,,6,,,43,0
22140,note_on,0,0,5,,,,,,,,,4,,,62,38
22140,note_on,180,0,6,,,,,,,,,5,,,63,0
22140,note_on,60,0,7,,,,,,,,,6,,,31,0
22140,note_on,180,0,1,,,,,,,,,0,,,77,0
22140,note_on,60,0,8,,,,,,,,,7,,,31,0
22200,note_on,0,0,8,,,,,,,,,7,,,31,41
22200,note_on,0,0,8,,,,,,,,,7,,,43,41
22200,note_on,0,0,8,,,,,,,,,7,,,43,0
22200,note_on,60,0,8,,,,,,,,,7,,,31,0
22200,note_on,60,0,7,,,,,,,,,6,,,31,0
22200,note_on,0,0,7,,,,,,,,,6,,,43,41
22200,note_on,0,0,7,,,,,,,,,6,,,43,0
22200,note_on,0,0,7,,,,,,,,,6,,,31,41
22260,note_on,0,0,7,,,,,,,,,6,,,31,41
22260,note_on,0,0,7,,,,,,,,,6,,,43,41
22260,note_on,0,0,7,,,,,,,,,6,,,43,0
22260,note_on,0,0,8,,,,,,,,,7,,,31,41
22260,note_on,0,0,8,,,,,,,,,7,,,43,41
22260,note_on,60,0,7,,,,,,,,,6,,,31,0
22260,note_on,60,0,8,,,,,,,,,7,,,31,0
22260,note_on,0,0,8,,,,,,,,,7,,,43,0
22320,note_on,0,0,1,,,,,,,,,0,,,79,0
22320,note_on,0,0,1,,,,,,,,,0,,,74,44
22320,note_on,0,0,1,,,,,,,,,0,,,77,44
22320,note_on,0,0,4,,,,,,,,,3,,,67,41
22320,note_on,360,0,4,,,,,,,,,3,,,68,0
22320,note_on,60,0,7,,,,,,,,,6,,,31,0
22320,note_on,0,0,7,,,,,,,,,6,,,43,0
22320,note_on,180,0,1,,,,,,,,,0,,,75,0
22320,note_on,1080,0,2,,,,,,,,,1,,,67,0
22320,note_on,0,0,2,,,,,,,,,1,,,55,0
22320,note_on,0,0,2,,,,,,,,,1,,,55,43
22320,note_on,0,0,2,,,,,,,,,1,,,67,43
22320,note_on,180,0,6,,,,,,,,,5,,,65,0
22320,note_on,0,0,7,,,,,,,,,6,,,31,41
22320,note_on,0,0,6,,,,,,,,,5,,,62,43
22320,note_on,180,0,5,,,,,,,,,4,,,62,0
22320,note_on,0,0,5,,,,,,,,,4,,,59,38
22320,note_on,0,0,7,,,,,,,,,6,,,43,41
22320,note_on,60,0,8,,,,,,,,,7,,,31,0
22320,note_on,0,0,8,,,,,,,,,7,,,43,0
22320,note_on,0,0,8,,,,,,,,,7,,,43,41
22320,note_on,0,0,8,,,,,,,,,7,,,31,41
22380,note_on,0,0,7,,,,,,,,,6,,,43,0
22380,note_on,60,0,7,,,,,,,,,6,,,31,0
22380,note_on,0,0,1,,,,,,,,,0,,,74,0
22380,note_on,60,0,1,,,,,,,,,0,,,77,0
22380,note_on,0,0,8,,,,,,,,,7,,,43,0
22380,note_on,0,0,7,,,,,,,,,6,,,43,41
22380,note_on,0,0,8,,,,,,,,,7,,,43,41
22380,note_on,0,0,8,,,,,,,,,7,,,31,41
22380,note_on,60,0,2,,,,,,,,,1,,,67,0
22380,note_on,0,0,2,,,,,,,,,1,,,55,0
22380,note_on,60,0,8,,,,,,,,,7,,,31,0
22380,note_on,0,0,7,,,,,,,,,6,,,31,41
22440,note_on,60,0,7,,,,,,,,,6,,,31,0
22440,note_on,0,0,7,,,,,,,,,6,,,43,0
22440,note_on,0,0,7,,,,,,,,,6,,,43,41
22440,note_on,0,0,7,,,,,,,,,6,,,31,41
22440,note_on,0,0,8,,,,,,,,,7,,,43,41
22440,note_on,60,0,8,,,,,,,,,7,,,31,0
22440,note_on,0,0,8,,,,,,,,,7,,,43,0
22440,note_on,0,0,8,,,,,,,,,7,,,31,41
22500,note_on,60,0,8,,,,,,,,,7,,,31,0
22500,note_on,0,0,1,,,,,,,,,0,,,75,44
22500,note_on,120,0,2,,,,,,,,,1,,,60,43
22500,note_on,0,0,5,,,,,,,,,4,,,60,38
22500,note_on,180,0,5,,,,,,,,,4,,,59,0
22500,note_on,0,0,2,,,,,,,,,1,,,72,43
22500,note_on,0,0,8,,,,,,,,,7,,,31,41
22500,note_on,0,0,6,,,,,,,,,5,,,63,43
22500,note_on,180,0,6,,,,,,,,,5,,,62,0
22500,note_on,0,0,8,,,,,,,,,7,,,43,41
22500,note_on,120,0,1,,,,,,,,,0,,,72,44
22500,note_on,0,0,8,,,,,,,,,7,,,43,0
22500,note_on,0,0,7,,,,,,,,,6,,,43,0
22500,note_on,60,0,7,,,,,,,,,6,,,31,0
22500,note_on,0,0,7,,,,,,,,,6,,,43,41
22500,note_on,0,0,7,,,,,,,,,6,,,31,41
22560,note_on,0,0,7,,,,,,,,,6,,,43,0
22560,note_on,0,0,7,,,,,,,,,6,,,43,42
22560,note_on,0,0,1,,,,,,,,,0,,,72,0
22560,note_on,60,0,1,,,,,,,,,0,,,75,0
22560,note_on,0,0,7,,,,,,,,,6,,,31,42
22560,note_on,0,0,2,,,,,,,,,1,,,60,0
22560,note_on,60,0,7,,,,,,,,,6,,,31,0
22560,note_on,60,0,8,,,,,,,,,7,,,31,0
22560,note_on,0,0,8,,,,,,,,,7,,,43,0
22560,note_on,0,0,8,,,,,,,,,7,,,43,42
22560,note_on,0,0,8,,,,,,,,,7,,,31,42
22560,note_on,60,0,2,,,,,,,,,1,,,72,0
22620,note_on,0,0,8,,,,,,,,,7,,,43,0
22620,note_on,0,0,8,,,,,,,,,7,,,31,42
22620,note_on,60,0,8,,,,,,,,,7,,,31,0
22620,note_on,60,0,7,,,,,,,,,6,,,31,0
22620,note_on,0,0,7,,,,,,,,,6,,,43,42
22620,note_on,0,0,7,,,,,,,,,6,,,31,42
22620,note_on,0,0,8,,,,,,,,,7,,,43,42
22620,note_on,0,0,7,,,,,,,,,6,,,43,0
22680,note_on,60,0,7,,,,,,,,,6,,,31,0
22680,note_on,0,0,7,,,,,,,,,6,,,43,42
22680,note_on,0,0,7,,,,,,,,,6,,,55,42
22680,note_on,0,0,7,,,,,,,,,6,,,43,0
22680,note_on,180,0,6,,,,,,,,,5,,,63,0
22680,note_on,0,0,5,,,,,,,,,4,,,62,38
22680,note_on,0,0,8,,,,,,,,,7,,,55,42
22680,note_on,0,0,8,,,,,,,,,7,,,43,42
22680,note_on,0,0,8,,,,,,,,,7,,,43,0
22680,note_on,60,0,8,,,,,,,,,7,,,31,0
22680,note_on,0,0,6,,,,,,,,,5,,,59,43
22680,note_on,120,0,1,,,,,,,,,0,,,71,44
22680,note_on,0,0,1,,,,,,,,,0,,,74,44
22680,note_on,0,0,2,,,,,,,,,1,,,67,43
22680,note_on,120,0,2,,,,,,,,,1,,,55,43
22680,note_on,0,0,4,,,,,,,,,3,,,65,41
22680,note_on,360,0,4,,,,,,,,,3,,,67,0
22680,note_on,180,0,5,,,,,,,,,4,,,60,0
22740,note_on,0,0,2,,,,,,,,,1,,,55,0
22740,note_on,60,0,5,,,,,,,,,4,,,62,0
22740,note_on,60,0,2,,,,,,,,,1,,,67,0
22740,note_on,60,0,8,,,,,,,,,7,,,55,0
22740,note_on,60,0,1,,,,,,,,,0,,,74,0
22740,note_on,0,0,1,,,,,,,,,0,,,71,0
22740,note_on,0,0,8,,,,,,,,,7,,,43,0
22740,note_on,60,0,6,,,,,,,,,5,,,59,0
22740,note_on,60,0,4,,,,,,,,,3,,,65,0
22740,note_on,60,0,7,,,,,,,,,6,,,55,0
22740,note_on,0,0,7,,,,,,,,,6,,,43,0
22860,note_on,0,0,8,,,,,,,,,7,,,54,48
22860,note_on,120,0,6,,,,,,,,,5,,,60,42
22860,note_on,120,0,4,,,,,,,,,3,,,63,42
22860,note_on,120,0,5,,,,,,,,,4,,,57,41
22860,note_on,120,0,8,,,,,,,,,7,,,42,48
22860,note_on,0,0,7,,,,,,,,,6,,,54,48
22860,note_on,120,0,7,,,,,,,,,6,,,42,48
22920,note_on,60,0,6,,,,,,,,,5,,,60,0
22920,note_on,60,0,4,,,,,,,,,3,,,63,0
22920,note_on,0,0,8,,,,,,,,,7,,,42,0
22920,note_on,0,0,7,,,,,,,,,6,,,42,0
22920,note_on,60,0,7,,,,,,,,,6,,,54,0
22920,note_on,60,0,8,,,,,,,,,7,,,54,0
22920,note_on,60,0,5,,,,,,,,,4,,,57,0
23040,note_on,120,0,4,,,,,,,,,3,,,62,42
23040,note_on,120,0,7,,,,,,,,,6,,,43,46
23040,note_on,120,0,8,,,,,,,,,7,,,43,46
23040,note_on,0,0,8,,,,,,,,,7,,,55,46
23040,note_on,120,0,5,,,,,,,,,4,,,59,43
23040,note_on,0,0,7,,,,,,,,,6,,,55,46
23040,note_on,120,0,6,,,,,,,,,5,,,55,41
23100,note_on,60,0,5,,,,,,,,,4,,,59,0
23100,note_on,0,0,7,,,,,,,,,6,,,43,0
23100,note_on,60,0,4,,,,,,,,,3,,,62,0
23100,note_on,60,0,6,,,,,,,,,5,,,55,0
23100,note_on,0,0,8,,,,,,,,,7,,,43,0
23100,note_on,60,0,7,,,,,,,,,6,,,55,0
23100,note_on,60,0,8,,,,,,,,,7,,,55,0
23400,note_on,300,0,8,,,,,,,,,7,,,36,100
23400,note_on,0,0,8,,,,,,,,,7,,,48,100
23400,note_on,300,0,6,,,,,,,,,5,,,60,100
23400,note_on,300,0,5,,,,,,,,,4,,,60,100
23400,note_on,0,0,7,,,,,,,,,6,,,48,100
23400,note_on,3120,0,3,,,,,,,,,2,,,60,100
23400,note_on,660,0,1,,,,,,,,,0,,,72,100
23400,note_on,0,0,4,,,,,,,,,3,,,72,100
23400,note_on,0,0,4,,,,,,,,,3,,,64,100
23400,note_on,300,0,4,,,,,,,,,3,,,55,100
23400,note_on,300,0,7,,,,,,,,,6,,,36,100
23400,note_on,660,0,2,,,,,,,,,1,,,60,100
23400,note_on,0,0,2,,,,,,,,,1,,,72,100
23520,note_on,0,0,7,,,,,,,,,6,,,40,100
23520,note_on,0,0,6,,,,,,,,,5,,,64,100
23520,note_on,120,0,7,,,,,,,,,6,,,48,0
23520,note_on,120,0,6,,,,,,,,,5,,,60,0
23520,note_on,120,0,5,,,,,,,,,4,,,60,0
23520,note_on,0,0,5,,,,,,,,,4,,,64,100
23520,note_on,0,0,7,,,,,,,,,6,,,36,0
23520,note_on,0,0,7,,,,,,,,,6,,,52,100
23520,note_on,120,0,3,,,,,,,,,2,,,60,0
23520,note_on,0,0,8,,,,,,,,,7,,,36,0
23520,note_on,0,0,2,,,,,,,,,1,,,60,0
23520,note_on,120,0,2,,,,,,,,,1,,,72,0
23520,note_on,120,0,8,,,,,,,,,7,,,48,0
23520,note_on,0,0,4,,,,,,,,,3,,,55,0
23520,note_on,0,0,4,,,,,,,,,3,,,76,100
23520,note_on,0,0,4,,,,,,,,,3,,,64,0
23520,note_on,0,0,2,,,,,,,,,1,,,64,100
23520,note_on,0,0,2,,,,,,,,,1,,,76,100
23520,note_on,0,0,3,,,,,,,,,2,,,64,100
23520,note_on,0,0,1,,,,,,,,,0,,,76,100
23520,note_on,120,0,1,,,,,,,,,0,,,72,0
23520,note_on,120,0,4,,,,,,,,,3,,,72,0
23520,note_on,0,0,8,,,,,,,,,7,,,52,100
23520,note_on,0,0,8,,,,,,,,,7,,,40,100
23580,note_on,0,0,7,,,,,,,,,6,,,55,100
23580,note_on,0,0,7,,,,,,,,,6,,,40,0
23580,note_on,60,0,7,,,,,,,,,6,,,52,0
23580,note_on,60,0,1,,,,,,,,,0,,,76,0
23580,note_on,0,0,1,,,,,,,,,0,,,79,100
23580,note_on,0,0,7,,,,,,,,,6,,,43,100
23580,note_on,0,0,2,,,,,,,,,1,,,64,0
23580,note_on,60,0,6,,,,,,,,,5,,,64,0
23580,note_on,0,0,2,,,,,,,,,1,,,67,100
23580,note_on,0,0,2,,,,,,,,,1,,,79,100
23580,note_on,60,0,4,,,,,,,,,3,,,76,0
23580,note_on,0,0,4,,,,,,,,,3,,,79,100
23580,note_on,0,0,3,,,,,,,,,2,,,67,100
23580,note_on,60,0,3,,,,,,,,,2,,,64,0
23580,note_on,60,0,5,,,,,,,,,4,,,64,0
23580,note_on,0,0,5,,,,,,,,,4,,,67,100
23580,note_on,0,0,8,,,,,,,,,7,,,55,100
23580,note_on,0,0,8,,,,,,,,,7,,,43,100
23580,note_on,0,0,8,,,,,,,,,7,,,40,0
23580,note_on,60,0,8,,,,,,,,,7,,,52,0
23580,note_on,60,0,2,,,,,,,,,1,,,76,0
23580,note_on,0,0,6,,,,,,,,,5,,,67,100
23700,note_on,0,0,1,,,,,,,,,0,,,76,100
23700,note_on,0,0,6,,,,,,,,,5,,,64,100
23700,note_on,120,0,1,,,,,,,,,0,,,79,0
23700,note_on,120,0,2,,,,,,,,,1,,,79,0
23700,note_on,0,0,2,,,,,,,,,1,,,76,100
23700,note_on,0,0,2,,,,,,,,,1,,,64,100
23700,note_on,0,0,8,,,,,,,,,7,,,52,100
23700,note_on,0,0,8,,,,,,,,,7,,,40,100
23700,note_on,0,0,8,,,,,,,,,7,,,43,0
23700,note_on,120,0,8,,,,,,,,,7,,,55,0
23700,note_on,120,0,6,,,,,,,,,5,,,67,0
23700,note_on,0,0,2,,,,,,,,,1,,,67,0
23700,note_on,120,0,4,,,,,,,,,3,,,79,0
23700,note_on,120,0,3,,,,,,,,,2,,,67,0
23700,note_on,0,0,5,,,,,,,,,4,,,64,100
23700,note_on,120,0,5,,,,,,,,,4,,,67,0
23700,note_on,120,0,7,,,,,,,,,6,,,55,0
23700,note_on,0,0,7,,,,,,,,,6,,,43,0
23700,note_on,0,0,7,,,,,,,,,6,,,40,100
23700,note_on,0,0,7,,,,,,,,,6,,,52,100
23700,note_on,0,0,3,,,,,,,,,2,,,64,100
23700,note_on,0,0,4,,,,,,,,,3,,,76,100
23760,note_on,60,0,8,,,,,,,,,7,,,52,0
23760,note_on,0,0,3,,,,,,,,,2,,,60,100
23760,note_on,60,0,7,,,,,,,,,6,,,52,0
23760,note_on,0,0,8,,,,,,,,,7,,,48,100
23760,note_on,0,0,1,,,,,,,,,0,,,72,100
23760,note_on,60,0,4,,,,,,,,,3,,,76,0
23760,note_on,60,0,3,,,,,,,,,2,,,64,0
23760,note_on,0,0,8,,,,,,,,,7,,,40,0
23760,note_on,60,0,5,,,,,,,,,4,,,64,0
23760,note_on,0,0,6,,,,,,,,,5,,,60,100
23760,note_on,0,0,8,,,,,,,,,7,,,36,100
23760,note_on,0,0,2,,,,,,,,,1,,,60,100
23760,note_on,0,0,2,,,,,,,,,1,,,72,100
23760,note_on,0,0,2,,,,,,,,,1,,,76,0
23760,note_on,0,0,4,,,,,,,,,3,,,72,100
23760,note_on,60,0,2,,,,,,,,,1,,,64,0
23760,note_on,0,0,5,,,,,,,,,4,,,60,100
23760,note_on,0,0,7,,,,,,,,,6,,,48,100
23760,note_on,0,0,7,,,,,,,,,6,,,36,100
23760,note_on,0,0,7,,,,,,,,,6,,,40,0
23760,note_on,60,0,6,,,,,,,,,5,,,64,0
23760,note_on,60,0,1,,,,,,,,,0,,,76,0
23880,note_on,0,0,4,,,,,,,,,3,,,76,100
23880,note_on,120,0,4,,,,,,,,,3,,,72,0
23880,note_on,0,0,8,,,,,,,,,7,,,52,100
23880,note_on,0,0,1,,,,,,,,,0,,,76,100
23880,note_on,120,0,1,,,,,,,,,0,,,72,0
23880,note_on,120,0,2,,,,,,,,,1,,,60,0
23880,note_on,0,0,2,,,,,,,,,1,,,64,100
23880,note_on,120,0,3,,,,,,,,,2,,,60,0
23880,note_on,0,0,8,,,,,,,,,7,,,36,0
23880,note_on,0,0,5,,,,,,,,,4,,,64,100
23880,note_on,120,0,5,,,,,,,,,4,,,60,0
23880,note_on,0,0,7,,,,,,,,,6,,,52,100
23880,note_on,0,0,7,,,,,,,,,6,,,40,100
23880,note_on,0,0,8,,,,,,,,,7,,,40,100
23880,note_on,0,0,7,,,,,,,,,6,,,36,0
23880,note_on,0,0,2,,,,,,,,,1,,,76,100
23880,note_on,120,0,6,,,,,,,,,5,,,60,0
23880,note_on,0,0,6,,,,,,,,,5,,,64,100
23880,note_on,0,0,2,,,,,,,,,1,,,72,0
23880,note_on,0,0,3,,,,,,,,,2,,,64,100
23880,note_on,120,0,8,,,,,,,,,7,,,48,0
23880,note_on,120,0,7,,,,,,,,,6,,,48,0
23940,note_on,0,0,2,,,,,,,,,1,,,67,100
23940,note_on,60,0,2,,,,,,,,,1,,,64,0
23940,note_on,60,0,8,,,,,,,,,7,,,52,0
23940,note_on,60,0,5,,,,,,,,,4,,,64,0
23940,note_on,0,0,5,,,,,,,,,4,,,67,100
23940,note_on,0,0,2,,,,,,,,,1,,,79,100
23940,note_on,0,0,2,,,,,,,,,1,,,76,0
23940,note_on,60,0,3,,,,,,,,,2,,,64,0
23940,note_on,0,0,8,,,,,,,,,7,,,40,0
23940,note_on,0,0,3,,,,,,,,,2,,,67,100
23940,note_on,0,0,6,,,,,,,,,5,,,67,100
23940,note_on,60,0,6,,,,,,,,,5,,,64,0
23940,note_on,60,0,1,,,,,,,,,0,,,76,0
23940,note_on,0,0,1,,,,,,,,,0,,,79,100
23940,note_on,0,0,8,,,,,,,,,7,,,43,100
23940,note_on,60,0,7,,,,,,,,,6,,,52,0
23940,note_on,0,0,7,,,,,,,,,6,,,43,100
23940,note_on,0,0,7,,,,,,,,,6,,,55,100
23940,note_on,60,0,4,,,,,,,,,3,,,76,0
23940,note_on,0,0,4,,,,,,,,,3,,,79,100
23940,note_on,0,0,7,,,,,,,,,6,,,40,0
23940,note_on,0,0,8,,,,,,,,,7,,,55,100
24060,note_on,0,0,8,,,,,,,,,7,,,40,100
24060,note_on,0,0,8,,,,,,,,,7,,,43,0
24060,note_on,0,0,8,,,,,,,,,7,,,52,100
24060,note_on,120,0,4,,,,,,,,,3,,,79,0
24060,note_on,0,0,4,,,,,,,,,3,,,76,100
24060,note_on,120,0,3,,,,,,,,,2,,,67,0
24060,note_on,0,0,3,,,,,,,,,2,,,64,100
24060,note_on,0,0,2,,,,,,,,,1,,,76,100
24060,note_on,0,0,2,,,,,,,,,1,,,64,100
24060,note_on,120,0,1,,,,,,,,,0,,,79,0
24060,note_on,0,0,2,,,,,,,,,1,,,67,0
24060,note_on,120,0,2,,,,,,,,,1,,,79,0
24060,note_on,0,0,7,,,,,,,,,6,,,52,100
24060,note_on,120,0,8,,,,,,,,,7,,,55,0
24060,note_on,0,0,1,,,,,,,,,0,,,76,100
24060,note_on,0,0,7,,,,,,,,,6,,,40,100
24060,note_on,0,0,5,,,,,,,,,4,,,64,100
24060,note_on,120,0,7,,,,,,,,,6,,,55,0
24060,note_on,0,0,7,,,,,,,,,6,,,43,0
24060,note_on,120,0,6,,,,,,,,,5,,,67,0
24060,note_on,0,0,6,,,,,,,,,5,,,64,100
24060,note_on,120,0,5,,,,,,,,,4,,,67,0
24120,note_on,60,0,6,,,,,,,,,5,,,64,0
24120,note_on,0,0,6,,,,,,,,,5,,,60,100
24120,note_on,60,0,7,,,,,,,,,6,,,52,0
24120,note_on,0,0,7,,,,,,,,,6,,,40,0
24120,note_on,0,0,7,,,,,,,,,6,,,48,100
24120,note_on,0,0,7,,,,,,,,,6,,,36,100
24120,note_on,60,0,1,,,,,,,,,0,,,76,0
24120,note_on,0,0,1,,,,,,,,,0,,,72,100
24120,note_on,0,0,2,,,,,,,,,1,,,60,100
24120,note_on,0,0,2,,,,,,,,,1,,,72,100
24120,note_on,0,0,2,,,,,,,,,1,,,64,0
24120,note_on,60,0,2,,,,,,,,,1,,,76,0
24120,note_on,60,0,4,,,,,,,,,3,,,76,0
24120,note_on,0,0,4,,,,,,,,,3,,,72,100
24120,note_on,0,0,3,,,,,,,,,2,,,60,100
24120,note_on,60,0,3,,,,,,,,,2,,,64,0
24120,note_on,0,0,5,,,,,,,,,4,,,60,100
24120,note_on,60,0,8,,,,,,,,,7,,,52,0
24120,note_on,0,0,8,,,,,,,,,7,,,40,0
24120,note_on,0,0,8,,,,,,,,,7,,,36,100
24120,note_on,0,0,8,,,,,,,,,7,,,48,100
24120,note_on,60,0,5,,,,,,,,,4,,,64,0
24240,note_on,0,0,4,,,,,,,,,3,,,76,40
24240,note_on,120,0,4,,,,,,,,,3,,,72,0
24240,note_on,0,0,5,,,,,,,,,4,,,60,40
24240,note_on,120,0,1,,,,,,,,,0,,,72,0
24240,note_on,120,0,2,,,,,,,,,1,,,60,0
24240,note_on,0,0,2,,,,,,,,,1,,,72,0
24240,note_on,0,0,7,,,,,,,,,6,,,36,0
24240,note_on,120,0,5,,,,,,,,,4,,,60,0
24240,note_on,120,0,8,,,,,,,,,7,,,48,0
24240,note_on,120,0,7,,,,,,,,,6,,,48,0
24240,note_on,120,0,6,,,,,,,,,5,,,60,0
24240,note_on,120,0,3,,,,,,,,,2,,,60,0
24240,note_on,0,0,8,,,,,,,,,7,,,36,0
24300,note_on,0,0,4,,,,,,,,,3,,,76,43
24300,note_on,60,0,4,,,,,,,,,3,,,76,0
24300,note_on,0,0,5,,,,,,,,,4,,,60,42
24300,note_on,60,0,5,,,,,,,,,4,,,60,0
24330,note_on,30,0,4,,,,,,,,,3,,,76,0
24330,note_on,30,0,5,,,,,,,,,4,,,60,0
24360,note_on,30,0,4,,,,,,,,,3,,,77,44
24360,note_on,30,0,5,,,,,,,,,4,,,62,42
24390,note_on,30,0,5,,,,,,,,,4,,,62,0
24390,note_on,30,0,4,,,,,,,,,3,,,77,0
24420,note_on,30,0,5,,,,,,,,,4,,,64,42
24420,note_on,30,0,4,,,,,,,,,3,,,79,45
24450,note_on,30,0,5,,,,,,,,,4,,,64,0
24450,note_on,30,0,4,,,,,,,,,3,,,79,0
24480,note_on,30,0,4,,,,,,,,,3,,,79,47
24480,note_on,30,0,5,,,,,,,,,4,,,64,42
24540,note_on,0,0,5,,,,,,,,,4,,,65,42
24540,note_on,60,0,5,,,,,,,,,4,,,64,0
24540,note_on,60,0,4,,,,,,,,,3,,,79,0
24540,note_on,0,0,4,,,,,,,,,3,,,81,48
24600,note_on,60,0,4,,,,,,,,,3,,,81,0
24600,note_on,0,0,4,,,,,,,,,3,,,79,48
24600,note_on,0,0,5,,,,,,,,,4,,,64,43
24600,note_on,60,0,5,,,,,,,,,4,,,65,0
24660,note_on,0,0,4,,,,,,,,,3,,,76,48
24660,note_on,60,0,5,,,,,,,,,4,,,64,0
24660,note_on,60,0,4,,,,,,,,,3,,,79,0
24660,note_on,0,0,5,,,,,,,,,4,,,60,46
24690,note_on,30,0,5,,,,,,,,,4,,,60,0
24690,note_on,30,0,4,,,,,,,,,3,,,76,0
24720,note_on,30,0,5,,,,,,,,,4,,,62,47
24720,note_on,30,0,4,,,,,,,,,3,,,77,48
24750,note_on,30,0,5,,,,,,,,,4,,,62,0
24750,note_on,30,0,4,,,,,,,,,3,,,77,0
24780,note_on,30,0,4,,,,,,,,,3,,,79,48
24780,note_on,30,0,5,,,,,,,,,4,,,64,47
24810,note_on,30,0,5,,,,,,,,,4,,,64,0
24810,note_on,30,0,4,,,,,,,,,3,,,79,0
24840,note_on,30,0,4,,,,,,,,,3,,,79,48
24840,note_on,30,0,5,,,,,,,,,4,,,64,48
24900,note_on,60,0,5,,,,,,,,,4,,,64,0
24900,note_on,60,0,4,,,,,,,,,3,,,79,0
24900,note_on,0,0,4,,,,,,,,,3,,,81,48
24900,note_on,0,0,5,,,,,,,,,4,,,65,49
24960,note_on,0,0,4,,,,,,,,,3,,,79,47
24960,note_on,60,0,4,,,,,,,,,3,,,81,0
24960,note_on,60,0,5,,,,,,,,,4,,,65,0
24960,note_on,0,0,5,,,,,,,,,4,,,64,49
25020,note_on,0,0,4,,,,,,,,,3,,,76,45
25020,note_on,60,0,5,,,,,,,,,4,,,64,0
25020,note_on,0,0,5,,,,,,,,,4,,,60,50
25020,note_on,60,0,4,,,,,,,,,3,,,79,0
25050,note_on,30,0,5,,,,,,,,,4,,,60,0
25050,note_on,30,0,4,,,,,,,,,3,,,76,0
25080,note_on,30,0,5,,,,,,,,,4,,,62,50
25080,note_on,30,0,4,,,,,,,,,3,,,77,45
25110,note_on,30,0,5,,,,,,,,,4,,,62,0
25110,note_on,30,0,4,,,,,,,,,3,,,77,0
25140,note_on,30,0,4,,,,,,,,,3,,,79,45
25140,note_on,30,0,5,,,,,,,,,4,,,64,51
25170,note_on,30,0,5,,,,,,,,,4,,,64,0
25170,note_on,30,0,4,,,,,,,,,3,,,79,0
25200,note_on,30,0,5,,,,,,,,,4,,,64,58
25200,note_on,30,0,4,,,,,,,,,3,,,79,45
25260,note_on,60,0,5,,,,,,,,,4,,,64,0
25260,note_on,0,0,5,,,,,,,,,4,,,65,59
25260,note_on,60,0,4,,,,,,,,,3,,,79,0
25260,note_on,0,0,4,,,,,,,,,3,,,81,45
25320,note_on,60,0,4,,,,,,,,,3,,,81,0
25320,note_on,0,0,4,,,,,,,,,3,,,79,51
25320,note_on,0,0,5,,,,,,,,,4,,,64,61
25320,note_on,60,0,5,,,,,,,,,4,,,65,0
25380,note_on,0,0,4,,,,,,,,,3,,,77,57
25380,note_on,60,0,5,,,,,,,,,4,,,64,0
25380,note_on,0,0,5,,,,,,,,,4,,,62,62
25380,note_on,60,0,4,,,,,,,,,3,,,79,0
25410,note_on,30,0,4,,,,,,,,,3,,,77,0
25410,note_on,30,0,5,,,,,,,,,4,,,62,0
25440,note_on,30,0,5,,,,,,,,,4,,,60,62
25440,note_on,30,0,4,,,,,,,,,3,,,76,59
25470,note_on,30,0,4,,,,,,,,,3,,,76,0
25470,note_on,30,0,5,,,,,,,,,4,,,60,0
25500,note_on,30,0,5,,,,,,,,,4,,,59,62
25500,note_on,30,0,4,,,,,,,,,3,,,74,65
25530,note_on,30,0,4,,,,,,,,,3,,,74,0
25530,note_on,30,0,5,,,,,,,,,4,,,59,0
25560,note_on,30,0,5,,,,,,,,,4,,,60,100
25560,note_on,1320,0,6,,,,,,,,,5,,,60,100
25560,note_on,1320,0,7,,,,,,,,,6,,,36,100
25560,note_on,30,0,4,,,,,,,,,3,,,55,100
25560,note_on,0,0,7,,,,,,,,,6,,,48,100
25560,note_on,0,0,4,,,,,,,,,3,,,72,100
25560,note_on,1320,0,3,,,,,,,,,2,,,60,100
25560,note_on,0,0,2,,,,,,,,,1,,,72,100
25560,note_on,1320,0,2,,,,,,,,,1,,,60,100
25560,note_on,1320,0,1,,,,,,,,,0,,,72,100
25560,note_on,1320,0,8,,,,,,,,,7,,,36,100
25560,note_on,0,0,8,,,,,,,,,7,,,48,100
25560,note_on,0,0,4,,,,,,,,,3,,,64,100
25680,note_on,0,0,2,,,,,,,,,1,,,64,100
25680,note_on,0,0,2,,,,,,,,,1,,,76,100
25680,note_on,0,0,8,,,,,,,,,7,,,52,100
25680,note_on,0,0,6,,,,,,,,,5,,,64,100
25680,note_on,0,0,8,,,,,,,,,7,,,40,100
25680,note_on,120,0,4,,,,,,,,,3,,,72,0
25680,note_on,0,0,8,,,,,,,,,7,,,36,0
25680,note_on,0,0,4,,,,,,,,,3,,,76,100
25680,note_on,0,0,4,,,,,,,,,3,,,55,0
25680,note_on,0,0,4,,,,,,,,,3,,,64,0
25680,note_on,120,0,6,,,,,,,,,5,,,60,0
25680,note_on,120,0,8,,,,,,,,,7,,,48,0
25680,note_on,0,0,2,,,,,,,,,1,,,60,0
25680,note_on,0,0,3,,,,,,,,,2,,,64,100
25680,note_on,0,0,1,,,,,,,,,0,,,76,100
25680,note_on,120,0,3,,,,,,,,,2,,,60,0
25680,note_on,0,0,7,,,,,,,,,6,,,52,100
25680,note_on,0,0,7,,,,,,,,,6,,,40,100
25680,note_on,0,0,7,,,,,,,,,6,,,36,0
25680,note_on,120,0,7,,,,,,,,,6,,,48,0
25680,note_on,120,0,5,,,,,,,,,4,,,60,0
25680,note_on,0,0,5,,,,,,,,,4,,,64,100
25680,note_on,120,0,1,,,,,,,,,0,,,72,0
25680,note_on,120,0,2,,,,,,,,,1,,,72,0
25740,note_on,0,0,5,,,,,,,,,4,,,67,100
25740,note_on,0,0,8,,,,,,,,,7,,,55,100
25740,note_on,0,0,8,,,,,,,,,7,,,43,100
25740,note_on,0,0,8,,,,,,,,,7,,,40,0
25740,note_on,60,0,8,,,,,,,,,7,,,52,0
25740,note_on,60,0,4,,,,,,,,,3,,,76,0
25740,note_on,0,0,4,,,,,,,,,3,,,79,100
25740,note_on,0,0,3,,,,,,,,,2,,,67,100
25740,note_on,0,0,7,,,,,,,,,6,,,55,100
25740,note_on,0,0,1,,,,,,,,,0,,,79,100
25740,note_on,60,0,1,,,,,,,,,0,,,76,0
25740,note_on,0,0,7,,,,,,,,,6,,,40,0
25740,note_on,0,0,7,,,,,,,,,6,,,43,100
25740,note_on,60,0,5,,,,,,,,,4,,,64,0
25740,note_on,60,0,6,,,,,,,,,5,,,64,0
25740,note_on,0,0,6,,,,,,,,,5,,,67,100
25740,note_on,60,0,2,,,,,,,,,1,,,76,0
25740,note_on,0,0,2,,,,,,,,,1,,,79,100
25740,note_on,60,0,3,,,,,,,,,2,,,64,0
25740,note_on,0,0,2,,,,,,,,,1,,,64,0
25740,note_on,60,0,7,,,,,,,,,6,,,52,0
25740,note_on,0,0,2,,,,,,,,,1,,,67,100
25860,note_on,0,0,7,,,,,,,,,6,,,52,100
25860,note_on,0,0,7,,,,,,,,,6,,,40,100
25860,note_on,0,0,7,,,,,,,,,6,,,43,0
25860,note_on,120,0,8,,,,,,,,,7,,,55,0
25860,note_on,0,0,8,,,,,,,,,7,,,43,0
25860,note_on,0,0,8,,,,,,,,,7,,,40,100
25860,note_on,0,0,8,,,,,,,,,7,,,52,100
25860,note_on,120,0,7,,,,,,,,,6,,,55,0
25860,note_on,0,0,6,,,,,,,,,5,,,64,100
25860,note_on,120,0,4,,,,,,,,,3,,,79,0
25860,note_on,120,0,3,,,,,,,,,2,,,67,0
25860,note_on,0,0,3,,,,,,,,,2,,,64,100
25860,note_on,0,0,4,,,,,,,,,3,,,76,100
25860,note_on,0,0,5,,,,,,,,,4,,,64,100
25860,note_on,120,0,5,,,,,,,,,4,,,67,0
25860,note_on,120,0,1,,,,,,,,,0,,,79,0
25860,note_on,0,0,1,,,,,,,,,0,,,76,100
25860,note_on,120,0,2,,,,,,,,,1,,,79,0
25860,note_on,0,0,2,,,,,,,,,1,,,67,0
25860,note_on,120,0,6,,,,,,,,,5,,,67,0
25860,note_on,0,0,2,,,,,,,,,1,,,76,100
25860,note_on,0,0,2,,,,,,,,,1,,,64,100
25920,note_on,0,0,5,,,,,,,,,4,,,60,100
25920,note_on,60,0,2,,,,,,,,,1,,,64,0
25920,note_on,0,0,2,,,,,,,,,1,,,76,0
25920,note_on,0,0,1,,,,,,,,,0,,,72,100
25920,note_on,0,0,7,,,,,,,,,6,,,40,0
25920,note_on,60,0,7,,,,,,,,,6,,,52,0
25920,note_on,60,0,4,,,,,,,,,3,,,76,0
25920,note_on,60,0,1,,,,,,,,,0,,,76,0
25920,note_on,60,0,6,,,,,,,,,5,,,64,0
25920,note_on,0,0,6,,,,,,,,,5,,,60,100
25920,note_on,60,0,5,,,,,,,,,4,,,64,0
25920,note_on,0,0,2,,,,,,,,,1,,,72,100
25920,note_on,0,0,4,,,,,,,,,3,,,72,100
25920,note_on,0,0,2,,,,,,,,,1,,,60,100
25920,note_on,0,0,3,,,,,,,,,2,,,60,100
25920,note_on,0,0,7,,,,,,,,,6,,,36,100
25920,note_on,0,0,7,,,,,,,,,6,,,48,100
25920,note_on,60,0,8,,,,,,,,,7,,,52,0
25920,note_on,0,0,8,,,,,,,,,7,,,40,0
25920,note_on,0,0,8,,,,,,,,,7,,,36,100
25920,note_on,0,0,8,,,,,,,,,7,,,48,100
25920,note_on,60,0,3,,,,,,,,,2,,,64,0
26040,note_on,0,0,7,,,,,,,,,6,,,40,100
26040,note_on,0,0,1,,,,,,,,,0,,,76,100
26040,note_on,0,0,7,,,,,,,,,6,,,52,100
26040,note_on,120,0,6,,,,,,,,,5,,,60,0
26040,note_on,0,0,4,,,,,,,,,3,,,76,100
26040,note_on,0,0,3,,,,,,,,,2,,,64,100
26040,note_on,120,0,3,,,,,,,,,2,,,60,0
26040,note_on,0,0,7,,,,,,,,,6,,,36,0
26040,note_on,0,0,6,,,,,,,,,5,,,64,100
26040,note_on,120,0,7,,,,,,,,,6,,,48,0
26040,note_on,120,0,5,,,,,,,,,4,,,60,0
26040,note_on,0,0,5,,,,,,,,,4,,,64,100
26040,note_on,120,0,4,,,,,,,,,3,,,72,0
26040,note_on,0,0,8,,,,,,,,,7,,,52,100
26040,note_on,0,0,2,,,,,,,,,1,,,64,100
26040,note_on,0,0,2,,,,,,,,,1,,,76,100
26040,note_on,0,0,2,,,,,,,,,1,,,72,0
26040,note_on,120,0,2,,,,,,,,,1,,,60,0
26040,note_on,0,0,8,,,,,,,,,7,,,40,100
26040,note_on,0,0,8,,,,,,,,,7,,,36,0
26040,note_on,120,0,8,,,,,,,,,7,,,48,0
26040,note_on,120,0,1,,,,,,,,,0,,,72,0
26100,note_on,0,0,5,,,,,,,,,4,,,67,100
26100,note_on,60,0,7,,,,,,,,,6,,,52,0
26100,note_on,60,0,5,,,,,,,,,4,,,64,0
26100,note_on,0,0,8,,,,,,,,,7,,,55,100
26100,note_on,0,0,2,,,,,,,,,1,,,67,100
26100,note_on,0,0,2,,,,,,,,,1,,,76,0
26100,note_on,60,0,2,,,,,,,,,1,,,64,0
26100,note_on,0,0,7,,,,,,,,,6,,,43,100
26100,note_on,60,0,4,,,,,,,,,3,,,76,0
26100,note_on,0,0,4,,,,,,,,,3,,,79,100
26100,note_on,60,0,8,,,,,,,,,7,,,52,0
26100,note_on,0,0,8,,,,,,,,,7,,,40,0
26100,note_on,0,0,8,,,,,,,,,7,,,43,100
26100,note_on,60,0,1,,,,,,,,,0,,,76,0
26100,note_on,0,0,1,,,,,,,,,0,,,79,100
26100,note_on,0,0,2,,,,,,,,,1,,,79,100
26100,note_on,0,0,7,,,,,,,,,6,,,55,100
26100,note_on,0,0,7,,,,,,,,,6,,,40,0
26100,note_on,60,0,3,,,,,,,,,2,,,64,0
26100,note_on,0,0,3,,,,,,,,,2,,,67,100
26100,note_on,60,0,6,,,,,,,,,5,,,64,0
26100,note_on,0,0,6,,,,,,,,,5,,,67,100
26220,note_on,0,0,2,,,,,,,,,1,,,67,0
26220,note_on,0,0,2,,,,,,,,,1,,,76,100
26220,note_on,0,0,2,,,,,,,,,1,,,64,100
26220,note_on,0,0,7,,,,,,,,,6,,,52,100
26220,note_on,120,0,2,,,,,,,,,1,,,79,0
26220,note_on,120,0,4,,,,,,,,,3,,,79,0
26220,note_on,0,0,4,,,,,,,,,3,,,76,100
26220,note_on,0,0,7,,,,,,,,,6,,,40,100
26220,note_on,0,0,7,,,,,,,,,6,,,43,0
26220,note_on,120,0,7,,,,,,,,,6,,,55,0
26220,note_on,120,0,6,,,,,,,,,5,,,67,0
26220,note_on,120,0,3,,,,,,,,,2,,,67,0
26220,note_on,0,0,3,,,,,,,,,2,,,64,100
26220,note_on,120,0,5,,,,,,,,,4,,,67,0
26220,note_on,0,0,8,,,,,,,,,7,,,43,0
26220,note_on,0,0,8,,,,,,,,,7,,,40,100
26220,note_on,0,0,8,,,,,,,,,7,,,52,100
26220,note_on,0,0,6,,,,,,,,,5,,,64,100
26220,note_on,120,0,8,,,,,,,,,7,,,55,0
26220,note_on,0,0,5,,,,,,,,,4,,,64,100
26220,note_on,0,0,1,,,,,,,,,0,,,76,100
26220,note_on,120,0,1,,,,,,,,,0,,,79,0
26280,note_on,0,0,7,,,,,,,,,6,,,40,0
26280,note_on,60,0,7,,,,,,,,,6,,,52,0
26280,note_on,0,0,5,,,,,,,,,4,,,60,100
26280,note_on,0,0,7,,,,,,,,,6,,,36,100
26280,note_on,0,0,6,,,,,,,,,5,,,60,100
26280,note_on,60,0,6,,,,,,,,,5,,,64,0
26280,note_on,0,0,1,,,,,,,,,0,,,72,100
26280,note_on,60,0,5,,,,,,,,,4,,,64,0
26280,note_on,0,0,7,,,,,,,,,6,,,48,100
26280,note_on,60,0,2,,,,,,,,,1,,,76,0
26280,note_on,0,0,3,,,,,,,,,2,,,60,100
26280,note_on,0,0,2,,,,,,,,,1,,,60,100
26280,note_on,0,0,2,,,,,,,,,1,,,72,100
26280,note_on,0,0,2,,,,,,,,,1,,,64,0
26280,note_on,60,0,1,,,,,,,,,0,,,76,0
26280,note_on,60,0,4,,,,,,,,,3,,,76,0
26280,note_on,0,0,4,,,,,,,,,3,,,72,100
26280,note_on,0,0,8,,,,,,,,,7,,,48,100
26280,note_on,60,0,3,,,,,,,,,2,,,64,0
26280,note_on,60,0,8,,,,,,,,,7,,,52,0
26280,note_on,0,0,8,,,,,,,,,7,,,40,0
26280,note_on,0,0,8,,,,,,,,,7,,,36,100
26400,note_on,0,0,8,,,,,,,,,7,,,36,0
26400,note_on,120,0,8,,,,,,,,,7,,,48,0
26400,note_on,120,0,6,,,,,,,,,5,,,60,0
26400,note_on,120,0,2,,,,,,,,,1,,,60,0
26400,note_on,120,0,3,,,,,,,,,2,,,60,0
26400,note_on,0,0,4,,,,,,,,,3,,,76,40
26400,note_on,120,0,4,,,,,,,,,3,,,72,0
26400,note_on,120,0,5,,,,,,,,,4,,,60,0
26400,note_on,0,0,2,,,,,,,,,1,,,72,0
26400,note_on,0,0,5,,,,,,,,,4,,,60,40
26400,note_on,120,0,1,,,,,,,,,0,,,72,0
26400,note_on,0,0,7,,,,,,,,,6,,,36,0
26400,note_on,120,0,7,,,,,,,,,6,,,48,0
26460,note_on,0,0,5,,,,,,,,,4,,,60,42
26460,note_on,0,0,4,,,,,,,,,3,,,76,43
26460,note_on,60,0,4,,,,,,,,,3,,,76,0
26460,note_on,60,0,5,,,,,,,,,4,,,60,0
26490,note_on,30,0,5,,,,,,,,,4,,,60,0
26490,note_on,30,0,4,,,,,,,,,3,,,76,0
26520,note_on,30,0,4,,,,,,,,,3,,,77,44
26520,note_on,30,0,5,,,,,,,,,4,,,62,42
26550,note_on,30,0,4,,,,,,,,,3,,,77,0
26550,note_on,30,0,5,,,,,,,,,4,,,62,0
26580,note_on,30,0,4,,,,,,,,,3,,,79,45
26580,note_on,30,0,5,,,,,,,,,4,,,64,42
26610,note_on,30,0,4,,,,,,,,,3,,,79,0
26610,note_on,30,0,5,,,,,,,,,4,,,64,0
26640,note_on,30,0,5,,,,,,,,,4,,,64,42
26640,note_on,30,0,4,,,,,,,,,3,,,79,47
26700,note_on,0,0,5,,,,,,,,,4,,,65,42
26700,note_on,60,0,4,,,,,,,,,3,,,79,0
26700,note_on,0,0,4,,,,,,,,,3,,,81,48
26700,note_on,60,0,5,,,,,,,,,4,,,64,0
26760,note_on,0,0,5,,,,,,,,,4,,,64,43
26760,note_on,60,0,4,,,,,,,,,3,,,81,0
26760,note_on,0,0,4,,,,,,,,,3,,,79,48
26760,note_on,60,0,5,,,,,,,,,4,,,65,0
26820,note_on,0,0,4,,,,,,,,,3,,,76,48
26820,note_on,60,0,4,,,,,,,,,3,,,79,0
26820,note_on,0,0,5,,,,,,,,,4,,,60,46
26820,note_on,60,0,5,,,,,,,,,4,,,64,0
26850,note_on,30,0,4,,,,,,,,,3,,,76,0
26850,note_on,30,0,5,,,,,,,,,4,,,60,0
26880,note_on,30,0,4,,,,,,,,,3,,,77,48
26880,note_on,30,0,5,,,,,,,,,4,,,62,47
26910,note_on,30,0,5,,,,,,,,,4,,,62,0
26910,note_on,30,0,4,,,,,,,,,3,,,77,0
26940,note_on,30,0,5,,,,,,,,,4,,,64,47
26940,note_on,30,0,4,,,,,,,,,3,,,79,48
26970,note_on,30,0,5,,,,,,,,,4,,,64,0
26970,note_on,30,0,4,,,,,,,,,3,,,79,0
27000,note_on,30,0,5,,,,,,,,,4,,,64,48
27000,note_on,30,0,4,,,,,,,,,3,,,79,48
27060,note_on,60,0,4,,,,,,,,,3,,,79,0
27060,note_on,0,0,4,,,,,,,,,3,,,81,48
27060,note_on,60,0,5,,,,,,,,,4,,,64,0
27060,note_on,0,0,5,,,,,,,,,4,,,65,49
27120,note_on,60,0,4,,,,,,,,,3,,,81,0
27120,note_on,60,0,5,,,,,,,,,4,,,65,0
27120,note_on,0,0,4,,,,,,,,,3,,,79,47
27120,note_on,0,0,5,,,,,,,,,4,,,64,49
27180,note_on,0,0,5,,,,,,,,,4,,,60,50
27180,note_on,0,0,4,,,,,,,,,3,,,76,45
27180,note_on,60,0,4,,,,,,,,,3,,,79,0
27180,note_on,60,0,5,,,,,,,,,4,,,64,0
27210,note_on,30,0,4,,,,,,,,,3,,,76,0
27210,note_on,30,0,5,,,,,,,,,4,,,60,0
27240,note_on,30,0,4,,,,,,,,,3,,,77,45
27240,note_on,30,0,5,,,,,,,,,4,,,62,50
27270,note_on,30,0,4,,,,,,,,,3,,,77,0
27270,note_on,30,0,5,,,,,,,,,4,,,62,0
27300,note_on,30,0,5,,,,,,,,,4,,,64,51
27300,note_on,30,0,4,,,,,,,,,3,,,79,45
27330,note_on,30,0,5,,,,,,,,,4,,,64,0
27330,note_on,30,0,4,,,,,,,,,3,,,79,0
27360,note_on,30,0,5,,,,,,,,,4,,,64,58
27360,note_on,30,0,4,,,,,,,,,3,,,79,45
27420,note_on,0,0,4,,,,,,,,,3,,,81,45
27420,note_on,0,0,5,,,,,,,,,4,,,65,59
27420,note_on,60,0,5,,,,,,,,,4,,,64,0
27420,note_on,60,0,4,,,,,,,,,3,,,79,0
27480,note_on,60,0,4,,,,,,,,,3,,,81,0
27480,note_on,0,0,4,,,,,,,,,3,,,79,51
27480,note_on,60,0,5,,,,,,,,,4,,,65,0
27480,note_on,0,0,5,,,,,,,,,4,,,64,61
27540,note_on,0,0,5,,,,,,,,,4,,,62,62
27540,note_on,0,0,4,,,,,,,,,3,,,77,57
27540,note_on,60,0,5,,,,,,,,,4,,,64,0
27540,note_on,60,0,4,,,,,,,,,3,,,79,0
27570,note_on,30,0,4,,,,,,,,,3,,,77,0
27570,note_on,30,0,5,,,,,,,,,4,,,62,0
27600,note_on,30,0,5,,,,,,,,,4,,,60,62
27600,note_on,30,0,4,,,,,,,,,3,,,76,59
27630,note_on,30,0,5,,,,,,,,,4,,,60,0
27630,note_on,30,0,4,,,,,,,,,3,,,76,0
27660,note_on,30,0,5,,,,,,,,,4,,,59,62
27660,note_on,30,0,4,,,,,,,,,3,,,74,65
27690,note_on,30,0,5,,,,,,,,,4,,,59,0
27690,note_on,30,0,4,,,,,,,,,3,,,74,0
27720,note_on,30,0,5,,,,,,,,,4,,,60,100
27720,note_on,1320,0,6,,,,,,,,,5,,,60,100
27720,note_on,30,0,4,,,,,,,,,3,,,72,100
27720,note_on,1320,0,7,,,,,,,,,6,,,36,100
27720,note_on,0,0,7,,,,,,,,,6,,,48,100
27720,note_on,1320,0,8,,,,,,,,,7,,,36,100
27720,note_on,0,0,8,,,,,,,,,7,,,48,100
27780,note_on,60,0,7,,,,,,,,,6,,,48,0
27780,note_on,0,0,8,,,,,,,,,7,,,48,100
27780,note_on,0,0,8,,,,,,,,,7,,,36,100
27780,note_on,0,0,8,,,,,,,,,7,,,36,0
27780,note_on,0,0,7,,,,,,,,,6,,,36,0
27780,note_on,0,0,7,,,,,,,,,6,,,36,100
27780,note_on,0,0,7,,,,,,,,,6,,,48,100
27780,note_on,60,0,6,,,,,,,,,5,,,60,0
27780,note_on,0,0,6,,,,,,,,,5,,,60,100
27780,note_on,60,0,8,,,,,,,,,7,,,48,0
27840,note_on,60,0,6,,,,,,,,,5,,,60,0
27840,note_on,120,0,5,,,,,,,,,4,,,60,0
27840,note_on,120,0,4,,,,,,,,,3,,,72,0
27840,note_on,0,0,6,,,,,,,,,5,,,62,100
27840,note_on,60,0,7,,,,,,,,,6,,,48,0
27840,note_on,0,0,8,,,,,,,,,7,,,38,100
27840,note_on,0,0,8,,,,,,,,,7,,,36,0
27840,note_on,0,0,7,,,,,,,,,6,,,36,0
27840,note_on,0,0,7,,,,,,,,,6,,,38,100
27840,note_on,60,0,8,,,,,,,,,7,,,48,0
27840,note_on,0,0,7,,,,,,,,,6,,,50,100
27840,note_on,0,0,8,,,,,,,,,7,,,50,100
27900,note_on,60,0,8,,,,,,,,,7,,,50,0
27900,note_on,0,0,8,,,,,,,,,7,,,38,0
27900,note_on,1500,0,1,,,,,,,,,0,,,76,100
27900,note_on,0,0,1,,,,,,,,,0,,,84,100
27900,note_on,0,0,7,,,,,,,,,6,,,52,100
27900,note_on,1500,0,2,,,,,,,,,1,,,72,100
27900,note_on,0,0,2,,,,,,,,,1,,,76,100
27900,note_on,0,0,8,,,,,,,,,7,,,40,100
27900,note_on,60,0,7,,,,,,,,,6,,,50,0
27900,note_on,0,0,6,,,,,,,,,5,,,64,100
27900,note_on,0,0,3,,,,,,,,,2,,,72,100
27900,note_on,1500,0,3,,,,,,,,,2,,,64,100
27900,note_on,60,0,4,,,,,,,,,3,,,84,100
27900,note_on,60,0,6,,,,,,,,,5,,,62,0
27900,note_on,0,0,8,,,,,,,,,7,,,52,100
27900,note_on,60,0,5,,,,,,,,,4,,,76,100
27900,note_on,0,0,7,,,,,,,,,6,,,40,100
27900,note_on,0,0,7,,,,,,,,,6,,,38,0
27960,note_on,0,0,8,,,,,,,,,7,,,40,0
27960,note_on,0,0,8,,,,,,,,,7,,,50,100
27960,note_on,60,0,7,,,,,,,,,6,,,52,0
27960,note_on,0,0,7,,,,,,,,,6,,,40,0
27960,note_on,0,0,7,,,,,,,,,6,,,50,100
27960,note_on,0,0,7,,,,,,,,,6,,,38,100
27960,note_on,60,0,6,,,,,,,,,5,,,64,0
27960,note_on,0,0,6,,,,,,,,,5,,,62,100
27960,note_on,60,0,8,,,,,,,,,7,,,52,0
27960,note_on,0,0,8,,,,,,,,,7,,,38,100
28020,note_on,60,0,7,,,,,,,,,6,,,38,0
28020,note_on,0,0,7,,,,,,,,,6,,,50,0
28020,note_on,0,0,7,,,,,,,,,6,,,48,100
28020,note_on,0,0,7,,,,,,,,,6,,,36,100
28020,note_on,60,0,6,,,,,,,,,5,,,62,0
28020,note_on,0,0,6,,,,,,,,,5,,,60,100
28020,note_on,0,0,8,,,,,,,,,7,,,48,100
28020,note_on,0,0,8,,,,,,,,,7,,,50,0
28020,note_on,0,0,8,,,,,,,,,7,,,36,100
28020,note_on,60,0,8,,,,,,,,,7,,,38,0
28080,note_on,0,0,7,,,,,,,,,6,,,48,0
28080,note_on,0,0,8,,,,,,,,,7,,,43,100
28080,note_on,0,0,8,,,,,,,,,7,,,48,0
28080,note_on,60,0,8,,,,,,,,,7,,,36,0
28080,note_on,0,0,6,,,,,,,,,5,,,67,100
28080,note_on,60,0,6,,,,,,,,,5,,,60,0
28080,note_on,180,0,3,,,,,,,,,2,,,72,0
28080,note_on,0,0,3,,,,,,,,,2,,,64,0
28080,note_on,0,0,3,,,,,,,,,2,,,67,100
28080,note_on,0,0,7,,,,,,,,,6,,,55,100
28080,note_on,0,0,7,,,,,,,,,6,,,43,100
28080,note_on,60,0,7,,,,,,,,,6,,,36,0
28080,note_on,0,0,3,,,,,,,,,2,,,74,100
28080,note_on,0,0,1,,,,,,,,,0,,,83,101
28080,note_on,0,0,8,,,,,,,,,7,,,55,100
28080,note_on,0,0,1,,,,,,,,,0,,,76,0
28080,note_on,0,0,4,,,,,,,,,3,,,86,100
28080,note_on,180,0,5,,,,,,,,,4,,,76,0
28080,note_on,0,0,2,,,,,,,,,1,,,74,100
28080,note_on,0,0,1,,,,,,,,,0,,,74,101
28080,note_on,0,0,2,,,,,,,,,1,,,72,0
28080,note_on,0,0,2,,,,,,,,,1,,,77,100
28080,note_on,180,0,1,,,,,,,,,0,,,84,0
28080,note_on,0,0,5,,,,,,,,,4,,,77,100
28080,note_on,180,0,2,,,,,,,,,1,,,76,0
28080,note_on,180,0,4,,,,,,,,,3,,,84,0
28140,note_on,60,0,5,,,,,,,,,4,,,77,0
28140,note_on,0,0,6,,,,,,,,,5,,,67,100
28140,note_on,60,0,6,,,,,,,,,5,,,67,0
28140,note_on,60,0,8,,,,,,,,,7,,,55,0
28140,note_on,0,0,8,,,,,,,,,7,,,43,0
28140,note_on,0,0,8,,,,,,,,,7,,,43,100
28140,note_on,0,0,2,,,,,,,,,1,,,77,0
28140,note_on,60,0,2,,,,,,,,,1,,,74,0
28140,note_on,0,0,7,,,,,,,,,6,,,43,100
28140,note_on,0,0,7,,,,,,,,,6,,,55,100
28140,note_on,0,0,7,,,,,,,,,6,,,43,0
28140,note_on,60,0,7,,,,,,,,,6,,,55,0
28140,note_on,60,0,3,,,,,,,,,2,,,74,0
28140,note_on,0,0,3,,,,,,,,,2,,,67,0
28140,note_on,0,0,1,,,,,,,,,0,,,74,0
28140,note_on,60,0,1,,,,,,,,,0,,,83,0
28140,note_on,0,0,8,,,,,,,,,7,,,55,100
28140,note_on,60,0,4,,,,,,,,,3,,,86,0
28200,note_on,60,0,6,,,,,,,,,5,,,67,0
28200,note_on,0,0,6,,,,,,,,,5,,,69,100
28200,note_on,0,0,8,,,,,,,,,7,,,57,100
28200,note_on,0,0,8,,,,,,,,,7,,,45,100
28200,note_on,0,0,8,,,,,,,,,7,,,55,0
28200,note_on,60,0,8,,,,,,,,,7,,,43,0
28200,note_on,60,0,7,,,,,,,,,6,,,43,0
28200,note_on,0,0,7,,,,,,,,,6,,,55,0
28200,note_on,0,0,7,,,,,,,,,6,,,45,100
28200,note_on,0,0,7,,,,,,,,,6,,,57,100
28260,note_on,0,0,8,,,,,,,,,7,,,45,0
28260,note_on,0,0,8,,,,,,,,,7,,,47,100
28260,note_on,0,0,8,,,,,,,,,7,,,59,100
28260,note_on,120,0,5,,,,,,,,,4,,,74,100
28260,note_on,60,0,8,,,,,,,,,7,,,57,0
28260,note_on,120,0,4,,,,,,,,,3,,,77,100
28260,note_on,60,0,7,,,,,,,,,6,,,57,0
28260,note_on,0,0,7,,,,,,,,,6,,,59,100
28260,note_on,0,0,7,,,,,,,,,6,,,47,100
28260,note_on,0,0,7,,,,,,,,,6,,,45,0
28260,note_on,120,0,3,,,,,,,,,2,,,67,100
28260,note_on,60,0,6,,,,,,,,,5,,,69,0
28260,note_on,0,0,1,,,,,,,,,0,,,77,100
28260,note_on,0,0,6,,,,,,,,,5,,,71,100
28260,note_on,120,0,1,,,,,,,,,0,,,71,100
28260,note_on,0,0,2,,,,,,,,,1,,,74,100
28260,note_on,120,0,2,,,,,,,,,1,,,67,100
28260,note_on,0,0,3,,,,,,,,,2,,,74,100
28320,note_on,60,0,8,,,,,,,,,7,,,47,0
28320,note_on,0,0,7,,,,,,,,,6,,,45,100
28320,note_on,0,0,7,,,,,,,,,6,,,59,0
28320,note_on,60,0,7,,,,,,,,,6,,,47,0
28320,note_on,0,0,6,,,,,,,,,5,,,69,100
28320,note_on,60,0,6,,,,,,,,,5,,,71,0
28320,note_on,0,0,8,,,,,,,,,7,,,45,100
28320,note_on,0,0,7,,,,,,,,,6,,,57,100
28320,note_on,0,0,8,,,,,,,,,7,,,59,0
28320,note_on,0,0,8,,,,,,,,,7,,,57,100
28380,note_on,0,0,7,,,,,,,,,6,,,43,100
28380,note_on,0,0,8,,,,,,,,,7,,,55,100
28380,note_on,0,0,8,,,,,,,,,7,,,43,100
28380,note_on,0,0,8,,,,,,,,,7,,,57,0
28380,note_on,60,0,8,,,,,,,,,7,,,45,0
28380,note_on,0,0,7,,,,,,,,,6,,,57,0
28380,note_on,60,0,7,,,,,,,,,6,,,45,0
28380,note_on,0,0,6,,,,,,,,,5,,,67,100
28380,note_on,60,0,6,,,,,,,,,5,,,69,0
28380,note_on,0,0,7,,,,,,,,,6,,,55,100
28440,note_on,0,0,6,,,,,,,,,5,,,72,100
28440,note_on,180,0,2,,,,,,,,,1,,,74,0
28440,note_on,0,0,2,,,,,,,,,1,,,67,0
28440,note_on,180,0,4,,,,,,,,,3,,,77,0
28440,note_on,0,0,4,,,,,,,,,3,,,76,100
28440,note_on,60,0,6,,,,,,,,,5,,,67,0
28440,note_on,0,0,2,,,,,,,,,1,,,72,100
28440,note_on,0,0,2,,,,,,,,,1,,,76,100
28440,note_on,180,0,3,,,,,,,,,2,,,74,0
28440,note_on,0,0,3,,,,,,,,,2,,,67,0
28440,note_on,60,0,7,,,,,,,,,6,,,55,0
28440,note_on,180,0,1,,,,,,,,,0,,,77,0
28440,note_on,0,0,5,,,,,,,,,4,,,72,100
28440,note_on,180,0,5,,,,,,,,,4,,,74,0
28440,note_on,0,0,7,,,,,,,,,6,,,43,0
28440,note_on,0,0,7,,,,,,,,,6,,,60,100
28440,note_on,0,0,7,,,,,,,,,6,,,48,100
28440,note_on,0,0,1,,,,,,,,,0,,,71,0
28440,note_on,0,0,1,,,,,,,,,0,,,72,100
28440,note_on,0,0,8,,,,,,,,,7,,,43,0
28440,note_on,60,0,8,,,,,,,,,7,,,55,0
28440,note_on,0,0,1,,,,,,,,,0,,,76,100
28440,note_on,0,0,3,,,,,,,,,2,,,72,100
28440,note_on,0,0,3,,,,,,,,,2,,,76,100
28440,note_on,0,0,8,,,,,,,,,7,,,60,100
28440,note_on,0,0,8,,,,,,,,,7,,,48,100
28500,note_on,60,0,8,,,,,,,,,7,,,48,0
28500,note_on,60,0,6,,,,,,,,,5,,,72,0
28500,note_on,60,0,1,,,,,,,,,0,,,76,0
28500,note_on,0,0,1,,,,,,,,,0,,,72,0
28500,note_on,60,0,3,,,,,,,,,2,,,76,0
28500,note_on,0,0,3,,,,,,,,,2,,,72,0
28500,note_on,0,0,6,,,,,,,,,5,,,60,100
28500,note_on,60,0,2,,,,,,,,,1,,,76,0
28500,note_on,0,0,7,,,,,,,,,6,,,48,100
28500,note_on,0,0,7,,,,,,,,,6,,,36,100
28500,note_on,0,0,7,,,,,,,,,6,,,60,0
28500,note_on,0,0,8,,,,,,,,,7,,,48,100
28500,note_on,0,0,8,,,,,,,,,7,,,36,100
28500,note_on,0,0,8,,,,,,,,,7,,,60,0
28500,note_on,60,0,7,,,,,,,,,6,,,48,0
28500,note_on,60,0,4,,,,,,,,,3,,,76,0
28500,note_on,60,0,5,,,,,,,,,4,,,72,0
28500,note_on,0,0,2,,,,,,,,,1,,,72,0
28560,note_on,0,0,7,,,,,,,,,6,,,36,0
28560,note_on,0,0,6,,,,,,,,,5,,,62,100
28560,note_on,60,0,7,,,,,,,,,6,,,48,0
28560,note_on,0,0,8,,,,,,,,,7,,,38,100
28560,note_on,0,0,8,,,,,,,,,7,,,50,100
28560,note_on,0,0,7,,,,,,,,,6,,,38,100
28560,note_on,60,0,8,,,,,,,,,7,,,48,0
28560,note_on,0,0,8,,,,,,,,,7,,,36,0
28560,note_on,60,0,6,,,,,,,,,5,,,60,0
28560,note_on,0,0,7,,,,,,,,,6,,,50,100
28620,note_on,0,0,8,,,,,,,,,7,,,40,100
28620,note_on,0,0,8,,,,,,,,,7,,,52,100
28620,note_on,0,0,8,,,,,,,,,7,,,50,0
28620,note_on,60,0,8,,,,,,,,,7,,,38,0
28620,note_on,0,0,1,,,,,,,,,0,,,84,100
28620,note_on,0,0,7,,,,,,,,,6,,,40,100
28620,note_on,0,0,3,,,,,,,,,2,,,72,100
28620,note_on,120,0,2,,,,,,,,,1,,,76,100
28620,note_on,120,0,5,,,,,,,,,4,,,76,100
28620,note_on,60,0,6,,,,,,,,,5,,,62,0
28620,note_on,0,0,6,,,,,,,,,5,,,64,100
28620,note_on,120,0,4,,,,,,,,,3,,,84,100
28620,note_on,120,0,3,,,,,,,,,2,,,64,100
28620,note_on,0,0,2,,,,,,,,,1,,,72,100
28620,note_on,120,0,1,,,,,,,,,0,,,76,100
28620,note_on,0,0,7,,,,,,,,,6,,,52,100
28620,note_on,0,0,7,,,,,,,,,6,,,50,0
28620,note_on,60,0,7,,,,,,,,,6,,,38,0
28680,note_on,60,0,8,,,,,,,,,7,,,40,0
28680,note_on,0,0,7,,,,,,,,,6,,,52,0
28680,note_on,0,0,7,,,,,,,,,6,,,38,100
28680,note_on,0,0,7,,,,,,,,,6,,,50,100
28680,note_on,60,0,7,,,,,,,,,6,,,40,0
28680,note_on,0,0,8,,,,,,,,,7,,,52,0
28680,note_on,0,0,8,,,,,,,,,7,,,38,100
28680,note_on,0,0,8,,,,,,,,,7,,,50,100
28680,note_on,0,0,6,,,,,,,,,5,,,62,100
28680,note_on,60,0,6,,,,,,,,,5,,,64,0
28740,note_on,0,0,8,,,,,,,,,7,,,48,100
28740,note_on,0,0,8,,,,,,,,,7,,,36,100
28740,note_on,0,0,6,,,,,,,,,5,,,60,100
28740,note_on,60,0,6,,,,,,,,,5,,,62,0
28740,note_on,60,0,8,,,,,,,,,7,,,50,0
28740,note_on,60,0,7,,,,,,,,,6,,,50,0
28740,note_on,0,0,7,,,,,,,,,6,,,38,0
28740,note_on,0,0,7,,,,,,,,,6,,,48,100
28740,note_on,0,0,7,,,,,,,,,6,,,36,100
28740,note_on,0,0,8,,,,,,,,,7,,,38,0
28800,note_on,0,0,3,,,,,,,,,2,,,64,0
28800,note_on,60,0,8,,,,,,,,,7,,,36,0
28800,note_on,0,0,8,,,,,,,,,7,,,48,0
28800,note_on,180,0,3,,,,,,,,,2,,,72,0
28800,note_on,0,0,3,,,,,,,,,2,,,67,100
28800,note_on,180,0,4,,,,,,,,,3,,,84,0
28800,note_on,0,0,7,,,,,,,,,6,,,55,100
28800,note_on,0,0,4,,,,,,,,,3,,,86,100
28800,note_on,0,0,5,,,,,,,,,4,,,77,100
28800,note_on,0,0,8,,,,,,,,,7,,,43,100
28800,note_on,180,0,1,,,,,,,,,0,,,84,0
28800,note_on,0,0,1,,,,,,,,,0,,,76,0
28800,note_on,0,0,1,,,,,,,,,0,,,74,100
28800,note_on,0,0,3,,,,,,,,,2,,,74,100
28800,note_on,0,0,1,,,,,,,,,0,,,83,100
28800,note_on,0,0,2,,,,,,,,,1,,,76,0
28800,note_on,0,0,2,,,,,,,,,1,,,74,100
28800,note_on,0,0,2,,,,,,,,,1,,,77,100
28800,note_on,60,0,7,,,,,,,,,6,,,36,0
28800,note_on,0,0,7,,,,,,,,,6,,,48,0
28800,note_on,0,0,7,,,,,,,,,6,,,43,100
28800,note_on,180,0,2,,,,,,,,,1,,,72,0
28800,note_on,0,0,8,,,,,,,,,7,,,55,100
28800,note_on,180,0,5,,,,,,,,,4,,,76,0
28800,note_on,0,0,6,,,,,,,,,5,,,67,100
28800,note_on,60,0,6,,,,,,,,,5,,,60,0
28860,note_on,0,0,7,,,,,,,,,6,,,55,100
28860,note_on,60,0,5,,,,,,,,,4,,,77,0
28860,note_on,60,0,1,,,,,,,,,0,,,83,0
28860,note_on,0,0,1,,,,,,,,,0,,,74,0
28860,note_on,0,0,7,,,,,,,,,6,,,43,100
28860,note_on,60,0,3,,,,,,,,,2,,,74,0
28860,note_on,0,0,3,,,,,,,,,2,,,67,0
28860,note_on,60,0,4,,,,,,,,,3,,,86,0
28860,note_on,60,0,6,,,,,,,,,5,,,67,0
28860,note_on,60,0,2,,,,,,,,,1,,,77,0
28860,note_on,0,0,6,,,,,,,,,5,,,67,100
28860,note_on,60,0,7,,,,,,,,,6,,,55,0
28860,note_on,0,0,7,,,,,,,,,6,,,43,0
28860,note_on,60,0,8,,,,,,,,,7,,,55,0
28860,note_on,0,0,8,,,,,,,,,7,,,43,0
28860,note_on,0,0,8,,,,,,,,,7,,,55,100
28860,note_on,0,0,8,,,,,,,,,7,,,43,100
28860,note_on,0,0,2,,,,,,,,,1,,,74,0
28920,note_on,0,0,7,,,,,,,,,6,,,45,100
28920,note_on,0,0,7,,,,,,,,,6,,,57,100
28920,note_on,0,0,7,,,,,,,,,6,,,55,0
28920,note_on,0,0,6,,,,,,,,,5,,,69,100
28920,note_on,60,0,6,,,,,,,,,5,,,67,0
28920,note_on,60,0,7,,,,,,,,,6,,,43,0
28920,note_on,0,0,8,,,,,,,,,7,,,57,100
28920,note_on,0,0,8,,,,,,,,,7,,,55,0
28920,note_on,60,0,8,,,,,,,,,7,,,43,0
28920,note_on,0,0,8,,,,,,,,,7,,,45,100
28980,note_on,120,0,3,,,,,,,,,2,,,74,100
28980,note_on,0,0,7,,,,,,,,,6,,,59,100
28980,note_on,0,0,7,,,,,,,,,6,,,47,100
28980,note_on,0,0,3,,,,,,,,,2,,,67,100
28980,note_on,0,0,8,,,,,,,,,7,,,47,100
28980,note_on,120,0,4,,,,,,,,,3,,,77,100
28980,note_on,120,0,5,,,,,,,,,4,,,74,100
28980,note_on,0,0,7,,,,,,,,,6,,,57,0
28980,note_on,60,0,7,,,,,,,,,6,,,45,0
28980,note_on,0,0,8,,,,,,,,,7,,,57,0
28980,note_on,0,0,1,,,,,,,,,0,,,77,100
28980,note_on,120,0,1,,,,,,,,,0,,,71,100
28980,note_on,60,0,8,,,,,,,,,7,,,45,0
28980,note_on,120,0,2,,,,,,,,,1,,,67,100
28980,note_on,0,0,2,,,,,,,,,1,,,74,100
28980,note_on,0,0,8,,,,,,,,,7,,,59,100
28980,note_on,0,0,6,,,,,,,,,5,,,71,100
28980,note_on,60,0,6,,,,,,,,,5,,,69,0
29040,note_on,0,0,8,,,,,,,,,7,,,45,100
29040,note_on,0,0,8,,,,,,,,,7,,,47,0
29040,note_on,60,0,8,,,,,,,,,7,,,59,0
29040,note_on,0,0,7,,,,,,,,,6,,,57,100
29040,note_on,0,0,7,,,,,,,,,6,,,45,100
29040,note_on,0,0,8,,,,,,,,,7,,,57,100
29040,note_on,60,0,7,,,,,,,,,6,,,59,0
29040,note_on,0,0,6,,,,,,,,,5,,,69,100
29040,note_on,60,0,6,,,,,,,,,5,,,71,0
29040,note_on,0,0,7,,,,,,,,,6,,,47,0
29100,note_on,60,0,8,,,,,,,,,7,,,57,0
29100,note_on,0,0,8,,,,,,,,,7,,,45,0
29100,note_on,0,0,8,,,,,,,,,7,,,43,100
29100,note_on,0,0,8,,,,,,,,,7,,,55,100
29100,note_on,0,0,6,,,,,,,,,5,,,67,100
29100,note_on,60,0,6,,,,,,,,,5,,,69,0
29100,note_on,60,0,7,,,,,,,,,6,,,57,0
29100,note_on,0,0,7,,,,,,,,,6,,,45,0
29100,note_on,0,0,7,,,,,,,,,6,,,43,100
29100,note_on,0,0,7,,,,,,,,,6,,,55,100
29160,note_on,180,0,5,,,,,,,,,4,,,74,0
29160,note_on,0,0,2,,,,,,,,,1,,,67,0
29160,note_on,180,0,2,,,,,,,,,1,,,74,0
29160,note_on,180,0,4,,,,,,,,,3,,,77,0
29160,note_on,0,0,4,,,,,,,,,3,,,76,100
29160,note_on,0,0,3,,,,,,,,,2,,,76,100
29160,note_on,0,0,3,,,,,,,,,2,,,72,100
29160,note_on,0,0,3,,,,,,,,,2,,,74,0
29160,note_on,180,0,3,,,,,,,,,2,,,67,0
29160,note_on,0,0,1,,,,,,,,,0,,,76,100
29160,note_on,0,0,1,,,,,,,,,0,,,72,100
29160,note_on,180,0,1,,,,,,,,,0,,,77,0
29160,note_on,0,0,5,,,,,,,,,4,,,72,100
29160,note_on,0,0,6,,,,,,,,,5,,,72,100
29160,note_on,60,0,6,,,,,,,,,5,,,67,0
29160,note_on,0,0,2,,,,,,,,,1,,,72,100
29160,note_on,0,0,1,,,,,,,,,0,,,71,0
29160,note_on,0,0,2,,,,,,,,,1,,,76,100
29160,note_on,0,0,7,,,,,,,,,6,,,43,0
29160,note_on,60,0,7,,,,,,,,,6,,,55,0
29160,note_on,0,0,8,,,,,,,,,7,,,60,100
29160,note_on,0,0,8,,,,,,,,,7,,,48,100
29160,note_on,0,0,8,,,,,,,,,7,,,43,0
29160,note_on,0,0,7,,,,,,,,,6,,,60,100
29160,note_on,0,0,7,,,,,,,,,6,,,48,100
29160,note_on,60,0,8,,,,,,,,,7,,,55,0
29220,note_on,60,0,5,,,,,,,,,4,,,72,0
29220,note_on,0,0,5,,,,,,,,,4,,,70,100
29280,note_on,120,0,3,,,,,,,,,2,,,76,0
29280,note_on,0,0,8,,,,,,,,,7,,,48,0
29280,note_on,0,0,8,,,,,,,,,7,,,48,100
29280,note_on,60,0,5,,,,,,,,,4,,,70,0
29280,note_on,0,0,5,,,,,,,,,4,,,69,100
29280,note_on,0,0,8,,,,,,,,,7,,,60,100
29280,note_on,0,0,4,,,,,,,,,3,,,72,127
29280,note_on,120,0,4,,,,,,,,,3,,,76,0
29280,note_on,120,0,8,,,,,,,,,7,,,60,0
29280,note_on,0,0,1,,,,,,,,,0,,,72,124
29280,note_on,0,0,1,,,,,,,,,0,,,72,0
29280,note_on,0,0,3,,,,,,,,,2,,,72,0
29280,note_on,120,0,6,,,,,,,,,5,,,72,0
29280,note_on,0,0,7,,,,,,,,,6,,,60,100
29280,note_on,0,0,2,,,,,,,,,1,,,72,100
29280,note_on,0,0,2,,,,,,,,,1,,,72,0
29280,note_on,0,0,7,,,,,,,,,6,,,48,100
29280,note_on,0,0,7,,,,,,,,,6,,,48,0
29280,note_on,120,0,2,,,,,,,,,1,,,76,0
29280,note_on,120,0,1,,,,,,,,,0,,,76,0
29280,note_on,120,0,7,,,,,,,,,6,,,60,0
29280,note_on,0,0,6,,,,,,,,,5,,,72,100
29340,note_on,0,0,6,,,,,,,,,5,,,70,100
29340,note_on,60,0,8,,,,,,,,,7,,,60,0
29340,note_on,0,0,8,,,,,,,,,7,,,48,0
29340,note_on,0,0,8,,,,,,,,,7,,,46,100
29340,note_on,0,0,8,,,,,,,,,7,,,58,100
29340,note_on,0,0,1,,,,,,,,,0,,,72,127
29340,note_on,60,0,6,,,,,,,,,5,,,72,0
29340,note_on,60,0,1,,,,,,,,,0,,,72,0
29340,note_on,60,0,2,,,,,,,,,1,,,72,0
29340,note_on,0,0,5,,,,,,,,,4,,,67,100
29340,note_on,60,0,7,,,,,,,,,6,,,60,0
29340,note_on,0,0,7,,,,,,,,,6,,,48,0
29340,note_on,0,0,4,,,,,,,,,3,,,72,127
29340,note_on,60,0,4,,,,,,,,,3,,,72,0
29340,note_on,60,0,5,,,,,,,,,4,,,69,0
29340,note_on,0,0,7,,,,,,,,,6,,,46,100
29340,note_on,0,0,7,,,,,,,,,6,,,58,100
29340,note_on,0,0,2,,,,,,,,,1,,,72,100
29400,note_on,0,0,7,,,,,,,,,6,,,45,100
29400,note_on,60,0,6,,,,,,,,,5,,,70,0
29400,note_on,60,0,2,,,,,,,,,1,,,72,0
29400,note_on,0,0,2,,,,,,,,,1,,,72,100
29400,note_on,0,0,8,,,,,,,,,7,,,57,100
29400,note_on,60,0,7,,,,,,,,,6,,,58,0
29400,note_on,60,0,1,,,,,,,,,0,,,72,0
29400,note_on,0,0,1,,,,,,,,,0,,,72,127
29400,note_on,0,0,8,,,,,,,,,7,,,45,100
29400,note_on,0,0,8,,,,,,,,,7,,,46,0
29400,note_on,60,0,8,,,,,,,,,7,,,58,0
29400,note_on,0,0,7,,,,,,,,,6,,,46,0
29400,note_on,60,0,4,,,,,,,,,3,,,72,0
29400,note_on,0,0,4,,,,,,,,,3,,,72,127
29400,note_on,0,0,6,,,,,,,,,5,,,69,100
29400,note_on,60,0,5,,,,,,,,,4,,,67,0
29400,note_on,0,0,5,,,,,,,,,4,,,65,100
29400,note_on,0,0,7,,,,,,,,,6,,,57,100
29460,note_on,60,0,8,,,,,,,,,7,,,57,0
29460,note_on,0,0,8,,,,,,,,,7,,,45,0
29460,note_on,60,0,5,,,,,,,,,4,,,65,0
29460,note_on,0,0,5,,,,,,,,,4,,,64,100
29460,note_on,60,0,6,,,,,,,,,5,,,69,0
29460,note_on,60,0,1,,,,,,,,,0,,,72,0
29460,note_on,0,0,7,,,,,,,,,6,,,55,100
29460,note_on,0,0,7,,,,,,,,,6,,,45,0
29460,note_on,60,0,7,,,,,,,,,6,,,57,0
29460,note_on,0,0,4,,,,,,,,,3,,,72,127
29460,note_on,0,0,1,,,,,,,,,0,,,72,127
29460,note_on,0,0,7,,,,,,,,,6,,,43,100
29460,note_on,60,0,4,,,,,,,,,3,,,72,0
29460,note_on,0,0,2,,,,,,,,,1,,,72,100
29460,note_on,0,0,8,,,,,,,,,7,,,55,100
29460,note_on,0,0,8,,,,,,,,,7,,,43,100
29460,note_on,60,0,2,,,,,,,,,1,,,72,0
29460,note_on,0,0,6,,,,,,,,,5,,,67,100
29520,note_on,60,0,5,,,,,,,,,4,,,64,0
29520,note_on,0,0,3,,,,,,,,,2,,,72,100
29520,note_on,60,0,2,,,,,,,,,1,,,72,0
29520,note_on,60,0,4,,,,,,,,,3,,,72,0
29520,note_on,0,0,4,,,,,,,,,3,,,77,127
29520,note_on,240,0,3,,,,,,,,,2,,,60,100
29520,note_on,0,0,2,,,,,,,,,1,,,72,100
29520,note_on,60,0,6,,,,,,,,,5,,,67,0
29520,note_on,0,0,7,,,,,,,,,6,,,43,0
29520,note_on,0,0,6,,,,,,,,,5,,,69,100
29520,note_on,60,0,8,,,,,,,,,7,,,55,0
29520,note_on,0,0,8,,,,,,,,,7,,,43,0
29520,note_on,0,0,8,,,,,,,,,7,,,45,100
29520,note_on,0,0,8,,,,,,,,,7,,,57,100
29520,note_on,0,0,7,,,,,,,,,6,,,57,100
29520,note_on,60,0,7,,,,,,,,,6,,,55,0
29520,note_on,0,0,7,,,,,,,,,6,,,45,100
29520,note_on,0,0,1,,,,,,,,,0,,,77,127
29520,note_on,60,0,1,,,,,,,,,0,,,72,0
29520,note_on,0,0,5,,,,,,,,,4,,,72,100
29535,note_on,15,0,1,,,,,,,,,0,,,77,0
29535,note_on,15,0,4,,,,,,,,,3,,,77,0
29535,note_on,0,0,4,,,,,,,,,3,,,79,127
29535,note_on,0,0,1,,,,,,,,,0,,,79,127
29550,note_on,0,0,1,,,,,,,,,0,,,81,127
29550,note_on,15,0,1,,,,,,,,,0,,,79,0
29550,note_on,0,0,4,,,,,,,,,3,,,81,127
29550,note_on,15,0,4,,,,,,,,,3,,,79,0
29580,note_on,0,0,8,,,,,,,,,7,,,43,100
29580,note_on,0,0,8,,,,,,,,,7,,,45,0
29580,note_on,60,0,8,,,,,,,,,7,,,57,0
29580,note_on,60,0,7,,,,,,,,,6,,,57,0
29580,note_on,0,0,7,,,,,,,,,6,,,45,0
29580,note_on,30,0,4,,,,,,,,,3,,,81,0
29580,note_on,0,0,6,,,,,,,,,5,,,67,100
29580,note_on,60,0,6,,,,,,,,,5,,,69,0
29580,note_on,0,0,8,,,,,,,,,7,,,55,100
29580,note_on,60,0,5,,,,,,,,,4,,,72,0
29580,note_on,0,0,5,,,,,,,,,4,,,70,100
29580,note_on,0,0,7,,,,,,,,,6,,,55,100
29580,note_on,0,0,7,,,,,,,,,6,,,43,100
29580,note_on,30,0,1,,,,,,,,,0,,,81,0
29640,note_on,0,0,7,,,,,,,,,6,,,53,100
29640,note_on,0,0,6,,,,,,,,,5,,,65,100
29640,note_on,0,0,7,,,,,,,,,6,,,43,0
29640,note_on,0,0,7,,,,,,,,,6,,,41,100
29640,note_on,60,0,6,,,,,,,,,5,,,67,0
29640,note_on,60,0,7,,,,,,,,,6,,,55,0
29640,note_on,60,0,8,,,,,,,,,7,,,55,0
29640,note_on,0,0,8,,,,,,,,,7,,,43,0
29640,note_on,0,0,8,,,,,,,,,7,,,41,100
29640,note_on,0,0,8,,,,,,,,,7,,,53,100
29640,note_on,0,0,5,,,,,,,,,4,,,69,100
29640,note_on,60,0,5,,,,,,,,,4,,,70,0
29640,note_on,0,0,3,,,,,,,,,2,,,60,0
29640,note_on,120,0,3,,,,,,,,,2,,,72,0
29640,note_on,120,0,2,,,,,,,,,1,,,72,0
29700,note_on,60,0,3,,,,,,,,,2,,,60,100
29700,note_on,0,0,5,,,,,,,,,4,,,67,100
29700,note_on,120,0,4,,,,,,,,,3,,,79,127
29700,note_on,0,0,7,,,,,,,,,6,,,52,100
29700,note_on,0,0,7,,,,,,,,,6,,,40,100
29700,note_on,0,0,7,,,,,,,,,6,,,41,0
29700,note_on,0,0,6,,,,,,,,,5,,,64,100
29700,note_on,0,0,3,,,,,,,,,2,,,72,100
29700,note_on,60,0,5,,,,,,,,,4,,,69,0
29700,note_on,0,0,8,,,,,,,,,7,,,40,100
29700,note_on,60,0,2,,,,,,,,,1,,,72,100
29700,note_on,120,0,1,,,,,,,,,0,,,79,127
29700,note_on,60,0,7,,,,,,,,,6,,,53,0
29700,note_on,0,0,8,,,,,,,,,7,,,52,100
29700,note_on,0,0,8,,,,,,,,,7,,,41,0
29700,note_on,60,0,6,,,,,,,,,5,,,65,0
29700,note_on,60,0,8,,,,,,,,,7,,,53,0
29715,note_on,0,0,4,,,,,,,,,3,,,81,127
29715,note_on,15,0,4,,,,,,,,,3,,,79,0
29715,note_on,0,0,1,,,,,,,,,0,,,81,127
29715,note_on,15,0,1,,,,,,,,,0,,,79,0
29730,note_on,0,0,4,,,,,,,,,3,,,82,127
29730,note_on,15,0,4,,,,,,,,,3,,,81,0
29730,note_on,0,0,1,,,,,,,,,0,,,82,127
29730,note_on,15,0,1,,,,,,,,,0,,,81,0
29760,note_on,30,0,1,,,,,,,,,0,,,82,0
29760,note_on,60,0,6,,,,,,,,,5,,,64,0
29760,note_on,0,0,6,,,,,,,,,5,,,62,100
29760,note_on,0,0,8,,,,,,,,,7,,,50,100
29760,note_on,0,0,8,,,,,,,,,7,,,38,100
29760,note_on,0,0,7,,,,,,,,,6,,,50,100
29760,note_on,0,0,8,,,,,,,,,7,,,40,0
29760,note_on,0,0,7,,,,,,,,,6,,,38,100
29760,note_on,0,0,7,,,,,,,,,6,,,40,0
29760,note_on,30,0,4,,,,,,,,,3,,,82,0
29760,note_on,60,0,7,,,,,,,,,6,,,52,0
29760,note_on,0,0,5,,,,,,,,,4,,,65,100
29760,note_on,60,0,5,,,,,,,,,4,,,67,0
29760,note_on,60,0,8,,,,,,,,,7,,,52,0
29820,note_on,60,0,6,,,,,,,,,5,,,62,0
29820,note_on,0,0,6,,,,,,,,,5,,,60,100
29820,note_on,0,0,7,,,,,,,,,6,,,38,0
29820,note_on,60,0,7,,,,,,,,,6,,,50,0
29820,note_on,0,0,7,,,,,,,,,6,,,48,100
29820,note_on,0,0,8,,,,,,,,,7,,,38,0
29820,note_on,0,0,7,,,,,,,,,6,,,36,100
29820,note_on,0,0,8,,,,,,,,,7,,,48,100
29820,note_on,0,0,3,,,,,,,,,2,,,60,0
29820,note_on,120,0,3,,,,,,,,,2,,,72,0
29820,note_on,0,0,8,,,,,,,,,7,,,36,100
29820,note_on,60,0,5,,,,,,,,,4,,,65,0
29820,note_on,0,0,5,,,,,,,,,4,,,64,100
29820,note_on,120,0,2,,,,,,,,,1,,,72,0
29820,note_on,60,0,8,,,,,,,,,7,,,50,0
29880,note_on,120,0,1,,,,,,,,,0,,,81,127
29880,note_on,0,0,3,,,,,,,,,2,,,60,100
29880,note_on,60,0,3,,,,,,,,,2,,,72,100
29880,note_on,0,0,8,,,,,,,,,7,,,53,100
29880,note_on,0,0,7,,,,,,,,,6,,,53,100
29880,note_on,0,0,7,,,,,,,,,6,,,36,0
29880,note_on,0,0,5,,,,,,,,,4,,,69,100
29880,note_on,60,0,5,,,,,,,,,4,,,64,0
29880,note_on,120,0,4,,,,,,,,,3,,,81,127
29880,note_on,60,0,7,,,,,,,,,6,,,48,0
29880,note_on,0,0,8,,,,,,,,,7,,,36,0
29880,note_on,0,0,8,,,,,,,,,7,,,41,100
29880,note_on,60,0,6,,,,,,,,,5,,,60,0
29880,note_on,0,0,6,,,,,,,,,5,,,65,100
29880,note_on,60,0,2,,,,,,,,,1,,,72,100
29880,note_on,0,0,7,,,,,,,,,6,,,41,100
29880,note_on,60,0,8,,,,,,,,,7,,,48,0
29940,note_on,0,0,6,,,,,,,,,5,,,67,100
29940,note_on,0,0,7,,,,,,,,,6,,,43,100
29940,note_on,0,0,7,,,,,,,,,6,,,41,0
29940,note_on,60,0,6,,,,,,,,,5,,,65,0
29940,note_on,0,0,7,,,,,,,,,6,,,55,100
29940,note_on,60,0,7,,,,,,,,,6,,,53,0
29940,note_on,0,0,8,,,,,,,,,7,,,55,100
29940,note_on,0,0,5,,,,,,,,,4,,,67,100
29940,note_on,60,0,5,,,,,,,,,4,,,69,0
29940,note_on,60,0,8,,,,,,,,,7,,,53,0
29940,note_on,0,0,8,,,,,,,,,7,,,41,0
29940,note_on,0,0,8,,,,,,,,,7,,,43,100
30000,note_on,60,0,8,,,,,,,,,7,,,55,0
30000,note_on,120,0,4,,,,,,,,,3,,,81,0
30000,note_on,0,0,4,,,,,,,,,3,,,69,127
30000,note_on,120,0,2,,,,,,,,,1,,,72,0
30000,note_on,120,0,3,,,,,,,,,2,,,60,0
30000,note_on,0,0,6,,,,,,,,,5,,,69,100
30000,note_on,60,0,6,,,,,,,,,5,,,67,0
30000,note_on,60,0,7,,,,,,,,,6,,,55,0
30000,note_on,60,0,5,,,,,,,,,4,,,67,0
30000,note_on,0,0,5,,,,,,,,,4,,,65,100
30000,note_on,0,0,8,,,,,,,,,7,,,45,100
30000,note_on,0,0,8,,,,,,,,,7,,,57,100
30000,note_on,0,0,7,,,,,,,,,6,,,43,0
30000,note_on,0,0,7,,,,,,,,,6,,,45,100
30000,note_on,0,0,7,,,,,,,,,6,,,57,100
30000,note_on,0,0,1,,,,,,,,,0,,,69,127
30000,note_on,120,0,1,,,,,,,,,0,,,81,0
30000,note_on,0,0,3,,,,,,,,,2,,,72,0
30000,note_on,0,0,8,,,,,,,,,7,,,43,0
30060,note_on,60,0,7,,,,,,,,,6,,,57,0
30060,note_on,0,0,5,,,,,,,,,4,,,64,100
30060,note_on,0,0,7,,,,,,,,,6,,,45,0
30060,note_on,0,0,7,,,,,,,,,6,,,43,100
30060,note_on,0,0,7,,,,,,,,,6,,,55,100
30060,note_on,60,0,4,,,,,,,,,3,,,69,0
30060,note_on,0,0,8,,,,,,,,,7,,,45,0
30060,note_on,0,0,6,,,,,,,,,5,,,67,100
30060,note_on,0,0,4,,,,,,,,,3,,,69,127
30060,note_on,60,0,5,,,,,,,,,4,,,65,0
30060,note_on,60,0,1,,,,,,,,,0,,,69,0
30060,note_on,0,0,1,,,,,,,,,0,,,69,127
30060,note_on,0,0,8,,,,,,,,,7,,,43,100
30060,note_on,60,0,8,,,,,,,,,7,,,57,0
30060,note_on,0,0,8,,,,,,,,,7,,,55,100
30060,note_on,60,0,6,,,,,,,,,5,,,69,0
30120,note_on,0,0,1,,,,,,,,,0,,,69,127
30120,note_on,60,0,4,,,,,,,,,3,,,69,0
30120,note_on,60,0,7,,,,,,,,,6,,,55,0
30120,note_on,0,0,7,,,,,,,,,6,,,43,0
30120,note_on,0,0,7,,,,,,,,,6,,,41,100
30120,note_on,0,0,7,,,,,,,,,6,,,53,100
30120,note_on,60,0,1,,,,,,,,,0,,,69,0
30120,note_on,0,0,4,,,,,,,,,3,,,69,127
30120,note_on,0,0,8,,,,,,,,,7,,,43,0
30120,note_on,60,0,8,,,,,,,,,7,,,55,0
30120,note_on,0,0,8,,,,,,,,,7,,,53,100
30120,note_on,60,0,5,,,,,,,,,4,,,64,0
30120,note_on,60,0,6,,,,,,,,,5,,,67,0
30120,note_on,0,0,6,,,,,,,,,5,,,65,100
30120,note_on,0,0,8,,,,,,,,,7,,,41,100
30120,note_on,0,0,5,,,,,,,,,4,,,62,100
30180,note_on,60,0,7,,,,,,,,,6,,,53,0
30180,note_on,0,0,1,,,,,,,,,0,,,69,127
30180,note_on,60,0,1,,,,,,,,,0,,,69,0
30180,note_on,0,0,7,,,,,,,,,6,,,52,100
30180,note_on,60,0,5,,,,,,,,,4,,,62,0
30180,note_on,0,0,8,,,,,,,,,7,,,52,100
30180,note_on,0,0,8,,,,,,,,,7,,,40,100
30180,note_on,0,0,8,,,,,,,,,7,,,41,0
30180,note_on,60,0,8,,,,,,,,,7,,,53,0
30180,note_on,60,0,4,,,,,,,,,3,,,69,0
30180,note_on,0,0,4,,,,,,,,,3,,,69,127
30180,note_on,0,0,5,,,,,,,,,4,,,61,100
30180,note_on,0,0,7,,,,,,,,,6,,,40,100
30180,note_on,0,0,7,,,,,,,,,6,,,41,0
30180,note_on,0,0,6,,,,,,,,,5,,,64,100
30180,note_on,60,0,6,,,,,,,,,5,,,65,0
30240,note_on,0,0,8,,,,,,,,,7,,,40,0
30240,note_on,0,0,7,,,,,,,,,6,,,53,100
30240,note_on,0,0,7,,,,,,,,,6,,,41,100
30240,note_on,0,0,7,,,,,,,,,6,,,40,0
30240,note_on,60,0,7,,,,,,,,,6,,,52,0
30240,note_on,60,0,1,,,,,,,,,0,,,69,0
30240,note_on,0,0,1,,,,,,,,,0,,,74,127
30240,note_on,60,0,8,,,,,,,,,7,,,52,0
30240,note_on,60,0,4,,,,,,,,,3,,,69,0
30240,note_on,0,0,4,,,,,,,,,3,,,74,127
30240,note_on,0,0,8,,,,,,,,,7,,,53,100
30240,note_on,0,0,6,,,,,,,,,5,,,65,100
30240,note_on,0,0,8,,,,,,,,,7,,,41,100
30240,note_on,60,0,5,,,,,,,,,4,,,61,0
30240,note_on,60,0,6,,,,,,,,,5,,,64,0
30240,note_on,0,0,5,,,,,,,,,4,,,69,100
30255,note_on,15,0,4,,,,,,,,,3,,,74,0
30255,note_on,0,0,1,,,,,,,,,0,,,76,127
30255,note_on,0,0,4,,,,,,,,,3,,,76,127
30255,note_on,15,0,1,,,,,,,,,0,,,74,0
30270,note_on,0,0,1,,,,,,,,,0,,,77,127
30270,note_on,0,0,4,,,,,,,,,3,,,77,127
30270,note_on,15,0,4,,,,,,,,,3,,,76,0
30270,note_on,15,0,1,,,,,,,,,0,,,76,0
30300,note_on,0,0,5,,,,,,,,,4,,,67,100
30300,note_on,60,0,5,,,,,,,,,4,,,69,0
30300,note_on,60,0,8,,,,,,,,,7,,,53,0
30300,note_on,30,0,1,,,,,,,,,0,,,77,0
30300,note_on,0,0,8,,,,,,,,,7,,,41,0
30300,note_on,0,0,7,,,,,,,,,6,,,52,100
30300,note_on,0,0,7,,,,,,,,,6,,,41,0
30300,note_on,60,0,6,,,,,,,,,5,,,65,0
30300,note_on,0,0,7,,,,,,,,,6,,,40,100
30300,note_on,60,0,7,,,,,,,,,6,,,53,0
30300,note_on,0,0,8,,,,,,,,,7,,,40,100
30300,note_on,0,0,8,,,,,,,,,7,,,52,100
30300,note_on,0,0,6,,,,,,,,,5,,,64,100
30300,note_on,30,0,4,,,,,,,,,3,,,77,0
30360,note_on,60,0,5,,,,,,,,,4,,,67,0
30360,note_on,0,0,5,,,,,,,,,4,,,65,100
30360,note_on,0,0,8,,,,,,,,,7,,,50,100
30360,note_on,60,0,6,,,,,,,,,5,,,64,0
30360,note_on,0,0,6,,,,,,,,,5,,,62,100
30360,note_on,0,0,8,,,,,,,,,7,,,40,0
30360,note_on,60,0,8,,,,,,,,,7,,,52,0
30360,note_on,0,0,7,,,,,,,,,6,,,50,100
30360,note_on,0,0,7,,,,,,,,,6,,,38,100
30360,note_on,0,0,7,,,,,,,,,6,,,40,0
30360,note_on,60,0,7,,,,,,,,,6,,,52,0
30360,note_on,0,0,8,,,,,,,,,7,,,38,100
30420,note_on,60,0,8,,,,,,,,,7,,,50,0
30420,note_on,0,0,8,,,,,,,,,7,,,38,0
30420,note_on,120,0,4,,,,,,,,,3,,,76,127
30420,note_on,0,0,7,,,,,,,,,6,,,49,100
30420,note_on,0,0,5,,,,,,,,,4,,,64,100
30420,note_on,0,0,7,,,,,,,,,6,,,38,0
30420,note_on,60,0,7,,,,,,,,,6,,,50,0
30420,note_on,60,0,5,,,,,,,,,4,,,65,0
30420,note_on,0,0,8,,,,,,,,,7,,,37,100
30420,note_on,120,0,1,,,,,,,,,0,,,76,127
30420,note_on,60,0,6,,,,,,,,,5,,,62,0
30420,note_on,0,0,6,,,,,,,,,5,,,61,100
30420,note_on,0,0,7,,,,,,,,,6,,,37,100
30420,note_on,0,0,8,,,,,,,,,7,,,49,100
30435,note_on,0,0,4,,,,,,,,,3,,,77,127
30435,note_on,0,0,1,,,,,,,,,0,,,77,127
30435,note_on,15,0,4,,,,,,,,,3,,,76,0
30435,note_on,15,0,1,,,,,,,,,0,,,76,0
30450,note_on,0,0,4,,,,,,,,,3,,,79,127
30450,note_on,15,0,4,,,,,,,,,3,,,77,0
30450,note_on,15,0,1,,,,,,,,,0,,,77,0
30450,note_on,0,0,1,,,,,,,,,0,,,79,127
30480,note_on,0,0,8,,,,,,,,,7,,,35,100
30480,note_on,0,0,6,,,,,,,,,5,,,59,100
30480,note_on,60,0,8,,,,,,,,,7,,,49,0
30480,note_on,0,0,8,,,,,,,,,7,,,47,100
30480,note_on,30,0,1,,,,,,,,,0,,,79,0
30480,note_on,60,0,6,,,,,,,,,5,,,61,0
30480,note_on,0,0,7,,,,,,,,,6,,,47,100
30480,note_on,0,0,7,,,,,,,,,6,,,35,100
30480,note_on,0,0,7,,,,,,,,,6,,,37,0
30480,note_on,60,0,7,,,,,,,,,6,,,49,0
30480,note_on,60,0,5,,,,,,,,,4,,,64,0
30480,note_on,0,0,5,,,,,,,,,4,,,62,100
30480,note_on,0,0,8,,,,,,,,,7,,,37,0
30480,note_on,30,0,4,,,,,,,,,3,,,79,0
30540,note_on,60,0,8,,,,,,,,,7,,,47,0
30540,note_on,60,0,5,,,,,,,,,4,,,62,0
30540,note_on,60,0,6,,,,,,,,,5,,,59,0
30540,note_on,0,0,6,,,,,,,,,5,,,57,100
30540,note_on,0,0,7,,,,,,,,,6,,,45,100
30540,note_on,0,0,7,,,,,,,,,6,,,33,100
30540,note_on,0,0,7,,,,,,,,,6,,,35,0
30540,note_on,60,0,7,,,,,,,,,6,,,47,0
30540,note_on,0,0,8,,,,,,,,,7,,,35,0
30540,note_on,0,0,8,,,,,,,,,7,,,33,100
30540,note_on,0,0,8,,,,,,,,,7,,,45,100
30540,note_on,0,0,5,,,,,,,,,4,,,61,100
30600,note_on,60,0,6,,,,,,,,,5,,,57,0
30600,note_on,0,0,5,,,,,,,,,4,,,69,100
30600,note_on,0,0,6,,,,,,,,,5,,,62,100
30600,note_on,60,0,5,,,,,,,,,4,,,61,0
30600,note_on,120,0,4,,,,,,,,,3,,,77,127
30600,note_on,60,0,8,,,,,,,,,7,,,45,0
30600,note_on,120,0,1,,,,,,,,,0,,,77,127
30600,note_on,60,0,7,,,,,,,,,6,,,45,0
30600,note_on,0,0,7,,,,,,,,,6,,,33,0
30600,note_on,0,0,7,,,,,,,,,6,,,38,100
30600,note_on,0,0,8,,,,,,,,,7,,,50,100
30600,note_on,0,0,8,,,,,,,,,7,,,38,100
30600,note_on,0,0,7,,,,,,,,,6,,,50,100
30600,note_on,0,0,8,,,,,,,,,7,,,33,0
30660,note_on,0,0,6,,,,,,,,,5,,,62,100
30660,note_on,60,0,6,,,,,,,,,5,,,62,0
30660,note_on,60,0,7,,,,,,,,,6,,,50,0
30660,note_on,0,0,8,,,,,,,,,7,,,50,100
30660,note_on,0,0,7,,,,,,,,,6,,,50,100
30660,note_on,60,0,8,,,,,,,,,7,,,50,0
30660,note_on,0,0,8,,,,,,,,,7,,,38,0
30660,note_on,0,0,8,,,,,,,,,7,,,38,100
30660,note_on,0,0,5,,,,,,,,,4,,,65,100
30660,note_on,60,0,5,,,,,,,,,4,,,69,0
30660,note_on,0,0,7,,,,,,,,,6,,,38,0
30660,note_on,0,0,7,,,,,,,,,6,,,38,100
30720,note_on,0,0,8,,,,,,,,,7,,,52,100
30720,note_on,0,0,4,,,,,,,,,3,,,67,127
30720,note_on,60,0,8,,,,,,,,,7,,,50,0
30720,note_on,0,0,8,,,,,,,,,7,,,38,0
30720,note_on,0,0,8,,,,,,,,,7,,,40,100
30720,note_on,0,0,5,,,,,,,,,4,,,64,100
30720,note_on,0,0,7,,,,,,,,,6,,,38,0
30720,note_on,0,0,7,,,,,,,,,6,,,40,100
30720,note_on,0,0,7,,,,,,,,,6,,,52,100
30720,note_on,60,0,7,,,,,,,,,6,,,50,0
30720,note_on,60,0,6,,,,,,,,,5,,,62,0
30720,note_on,0,0,6,,,,,,,,,5,,,64,100
30720,note_on,120,0,4,,,,,,,,,3,,,77,0
30720,note_on,120,0,1,,,,,,,,,0,,,77,0
30720,note_on,60,0,5,,,,,,,,,4,,,65,0
30720,note_on,720,0,2,,,,,,,,,1,,,67,100
30720,note_on,0,0,2,,,,,,,,,1,,,79,100
30720,note_on,0,0,1,,,,,,,,,0,,,67,127
30780,note_on,0,0,2,,,,,,,,,1,,,67,0
30780,note_on,60,0,1,,,,,,,,,0,,,67,0
30780,note_on,60,0,8,,,,,,,,,7,,,52,0
30780,note_on,0,0,8,,,,,,,,,7,,,40,0
30780,note_on,0,0,8,,,,,,,,,7,,,41,100
30780,note_on,0,0,8,,,,,,,,,7,,,53,100
30780,note_on,60,0,2,,,,,,,,,1,,,79,0
30780,note_on,60,0,5,,,,,,,,,4,,,64,0
30780,note_on,0,0,5,,,,,,,,,4,,,62,100
30780,note_on,0,0,2,,,,,,,,,1,,,67,100
30780,note_on,0,0,1,,,,,,,,,0,,,67,127
30780,note_on,60,0,7,,,,,,,,,6,,,52,0
30780,note_on,0,0,7,,,,,,,,,6,,,40,0
30780,note_on,0,0,4,,,,,,,,,3,,,67,127
30780,note_on,60,0,4,,,,,,,,,3,,,67,0
30780,note_on,60,0,6,,,,,,,,,5,,,64,0
30780,note_on,0,0,6,,,,,,,,,5,,,65,100
30780,note_on,0,0,7,,,,,,,,,6,,,41,100
30780,note_on,0,0,7,,,,,,,,,6,,,53,100
30780,note_on,0,0,2,,,,,,,,,1,,,79,100
30840,note_on,0,0,5,,,,,,,,,4,,,60,100
30840,note_on,60,0,5,,,,,,,,,4,,,62,0
30840,note_on,0,0,7,,,,,,,,,6,,,52,100
30840,note_on,0,0,7,,,,,,,,,6,,,40,100
30840,note_on,0,0,7,,,,,,,,,6,,,41,0
30840,note_on,60,0,7,,,,,,,,,6,,,53,0
30840,note_on,0,0,8,,,,,,,,,7,,,40,100
30840,note_on,0,0,8,,,,,,,,,7,,,41,0
30840,note_on,60,0,2,,,,,,,,,1,,,79,0
30840,note_on,0,0,2,,,,,,,,,1,,,67,0
30840,note_on,0,0,2,,,,,,,,,1,,,67,100
30840,note_on,0,0,2,,,,,,,,,1,,,79,100
30840,note_on,0,0,6,,,,,,,,,5,,,64,100
30840,note_on,60,0,8,,,,,,,,,7,,,53,0
30840,note_on,60,0,4,,,,,,,,,3,,,67,0
30840,note_on,60,0,6,,,,,,,,,5,,,65,0
30840,note_on,0,0,8,,,,,,,,,7,,,52,100
30840,note_on,0,0,1,,,,,,,,,0,,,67,127
30840,note_on,0,0,4,,,,,,,,,3,,,67,127
30840,note_on,60,0,1,,,,,,,,,0,,,67,0
30900,note_on,0,0,8,,,,,,,,,7,,,50,100
30900,note_on,0,0,8,,,,,,,,,7,,,38,100
30900,note_on,0,0,8,,,,,,,,,7,,,40,0
30900,note_on,60,0,8,,,,,,,,,7,,,52,0
30900,note_on,60,0,7,,,,,,,,,6,,,52,0
30900,note_on,0,0,7,,,,,,,,,6,,,40,0
30900,note_on,0,0,7,,,,,,,,,6,,,50,100
30900,note_on,0,0,4,,,,,,,,,3,,,67,127
30900,note_on,0,0,7,,,,,,,,,6,,,38,100
30900,note_on,60,0,2,,,,,,,,,1,,,79,0
30900,note_on,60,0,1,,,,,,,,,0,,,67,0
30900,note_on,0,0,1,,,,,,,,,0,,,67,127
30900,note_on,0,0,6,,,,,,,,,5,,,62,100
30900,note_on,60,0,6,,,,,,,,,5,,,64,0
30900,note_on,60,0,4,,,,,,,,,3,,,67,0
30900,note_on,0,0,2,,,,,,,,,1,,,79,100
30900,note_on,0,0,2,,,,,,,,,1,,,67,100
30900,note_on,60,0,5,,,,,,,,,4,,,60,0
30900,note_on,0,0,5,,,,,,,,,4,,,59,100
30900,note_on,0,0,2,,,,,,,,,1,,,67,0
30960,note_on,0,0,5,,,,,,,,,4,,,67,100
30960,note_on,60,0,5,,,,,,,,,4,,,59,0
30960,note_on,0,0,4,,,,,,,,,3,,,72,127
30960,note_on,0,0,2,,,,,,,,,1,,,79,100
30960,note_on,60,0,4,,,,,,,,,3,,,67,0
30960,note_on,0,0,7,,,,,,,,,6,,,52,100
30960,note_on,0,0,7,,,,,,,,,6,,,40,100
30960,note_on,0,0,7,,,,,,,,,6,,,38,0
30960,note_on,60,0,7,,,,,,,,,6,,,50,0
30960,note_on,60,0,1,,,,,,,,,0,,,67,0
30960,note_on,0,0,1,,,,,,,,,0,,,72,127
30960,note_on,0,0,6,,,,,,,,,5,,,64,100
30960,note_on,0,0,2,,,,,,,,,1,,,67,100
30960,note_on,60,0,6,,,,,,,,,5,,,62,0
30960,note_on,0,0,8,,,,,,,,,7,,,52,100
30960,note_on,0,0,8,,,,,,,,,7,,,40,100
30960,note_on,60,0,2,,,,,,,,,1,,,79,0
30960,note_on,0,0,8,,,,,,,,,7,,,38,0
30960,note_on,60,0,8,,,,,,,,,7,,,50,0
30960,note_on,0,0,2,,,,,,,,,1,,,67,0
30975,note_on,15,0,1,,,,,,,,,0,,,72,0
30975,note_on,0,0,1,,,,,,,,,0,,,74,127
30975,note_on,15,0,4,,,,,,,,,3,,,72,0
30975,note_on,0,0,4,,,,,,,,,3,,,74,127
30990,note_on,0,0,4,,,,,,,,,3,,,76,127
30990,note_on,15,0,1,,,,,,,,,0,,,74,0
30990,note_on,0,0,1,,,,,,,,,0,,,76,127
30990,note_on,15,0,4,,,,,,,,,3,,,74,0
31020,note_on,0,0,6,,,,,,,,,5,,,62,100
31020,note_on,30,0,1,,,,,,,,,0,,,76,0
31020,note_on,60,0,6,,,,,,,,,5,,,64,0
31020,note_on,30,0,4,,,,,,,,,3,,,76,0
31020,note_on,60,0,7,,,,,,,,,6,,,52,0
31020,note_on,60,0,8,,,,,,,,,7,,,52,0
31020,note_on,0,0,7,,,,,,,,,6,,,50,100
31020,note_on,0,0,7,,,,,,,,,6,,,38,100
31020,note_on,0,0,5,,,,,,,,,4,,,65,100
31020,note_on,0,0,7,,,,,,,,,6,,,40,0
31020,note_on,0,0,8,,,,,,,,,7,,,40,0
31020,note_on,0,0,8,,,,,,,,,7,,,38,100
31020,note_on,0,0,8,,,,,,,,,7,,,50,100
31020,note_on,60,0,5,,,,,,,,,4,,,67,0
31080,note_on,0,0,7,,,,,,,,,6,,,36,100
31080,note_on,0,0,6,,,,,,,,,5,,,60,100
31080,note_on,60,0,6,,,,,,,,,5,,,62,0
31080,note_on,60,0,8,,,,,,,,,7,,,50,0
31080,note_on,0,0,8,,,,,,,,,7,,,38,0
31080,note_on,0,0,8,,,,,,,,,7,,,36,100
31080,note_on,0,0,8,,,,,,,,,7,,,48,100
31080,note_on,0,0,5,,,,,,,,,4,,,64,100
31080,note_on,60,0,5,,,,,,,,,4,,,65,0
31080,note_on,0,0,7,,,,,,,,,6,,,38,0
31080,note_on,0,0,7,,,,,,,,,6,,,48,100
31080,note_on,60,0,7,,,,,,,,,6,,,50,0
31140,note_on,0,0,7,,,,,,,,,6,,,36,0
31140,note_on,0,0,7,,,,,,,,,6,,,35,100
31140,note_on,0,0,7,,,,,,,,,6,,,47,100
31140,note_on,60,0,7,,,,,,,,,6,,,48,0
31140,note_on,120,0,1,,,,,,,,,0,,,74,127
31140,note_on,0,0,8,,,,,,,,,7,,,47,100
31140,note_on,0,0,8,,,,,,,,,7,,,36,0
31140,note_on,60,0,8,,,,,,,,,7,,,48,0
31140,note_on,60,0,5,,,,,,,,,4,,,64,0
31140,note_on,0,0,5,,,,,,,,,4,,,62,100
31140,note_on,0,0,6,,,,,,,,,5,,,59,100
31140,note_on,60,0,6,,,,,,,,,5,,,60,0
31140,note_on,0,0,8,,,,,,,,,7,,,35,100
31140,note_on,120,0,4,,,,,,,,,3,,,74,127
31155,note_on,0,0,1,,,,,,,,,0,,,76,127
31155,note_on,15,0,1,,,,,,,,,0,,,74,0
31155,note_on,15,0,4,,,,,,,,,3,,,74,0
31155,note_on,0,0,4,,,,,,,,,3,,,76,127
31170,note_on,0,0,4,,,,,,,,,3,,,77,127
31170,note_on,0,0,1,,,,,,,,,0,,,77,127
31170,note_on,15,0,1,,,,,,,,,0,,,76,0
31170,note_on,15,0,4,,,,,,,,,3,,,76,0
31200,note_on,60,0,5,,,,,,,,,4,,,62,0
31200,note_on,0,0,5,,,,,,,,,4,,,60,100
31200,note_on,0,0,8,,,,,,,,,7,,,45,100
31200,note_on,30,0,1,,,,,,,,,0,,,77,0
31200,note_on,0,0,8,,,,,,,,,7,,,35,0
31200,note_on,0,0,8,,,,,,,,,7,,,33,100
31200,note_on,30,0,4,,,,,,,,,3,,,77,0
31200,note_on,60,0,6,,,,,,,,,5,,,59,0
31200,note_on,60,0,7,,,,,,,,,6,,,47,0
31200,note_on,0,0,7,,,,,,,,,6,,,35,0
31200,note_on,0,0,7,,,,,,,,,6,,,33,100
31200,note_on,0,0,7,,,,,,,,,6,,,45,100
31200,note_on,0,0,6,,,,,,,,,5,,,57,100
31200,note_on,60,0,8,,,,,,,,,7,,,47,0
31260,note_on,0,0,6,,,,,,,,,5,,,55,100
31260,note_on,60,0,5,,,,,,,,,4,,,60,0
31260,note_on,60,0,6,,,,,,,,,5,,,57,0
31260,note_on,0,0,5,,,,,,,,,4,,,59,100
31260,note_on,0,0,7,,,,,,,,,6,,,43,100
31260,note_on,0,0,7,,,,,,,,,6,,,31,100
31260,note_on,0,0,8,,,,,,,,,7,,,43,100
31260,note_on,0,0,8,,,,,,,,,7,,,31,100
31260,note_on,0,0,8,,,,,,,,,7,,,33,0
31260,note_on,0,0,7,,,,,,,,,6,,,33,0
31260,note_on,60,0,7,,,,,,,,,6,,,45,0
31260,note_on,60,0,8,,,,,,,,,7,,,45,0
31320,note_on,60,0,8,,,,,,,,,7,,,43,0
31320,note_on,0,0,8,,,,,,,,,7,,,48,100
31320,note_on,0,0,8,,,,,,,,,7,,,36,100
31320,note_on,0,0,8,,,,,,,,,7,,,31,0
31320,note_on,0,0,3,,,,,,,,,2,,,76,127
31320,note_on,120,0,4,,,,,,,,,3,,,76,127
31320,note_on,60,0,5,,,,,,,,,4,,,59,0
31320,note_on,0,0,7,,,,,,,,,6,,,31,0
31320,note_on,1320,0,3,,,,,,,,,2,,,72,127
31320,note_on,0,0,5,,,,,,,,,4,,,60,100
31320,note_on,60,0,6,,,,,,,,,5,,,55,0
31320,note_on,0,0,6,,,,,,,,,5,,,60,100
31320,note_on,60,0,7,,,,,,,,,6,,,43,0
31320,note_on,0,0,7,,,,,,,,,6,,,36,100
31320,note_on,0,0,7,,,,,,,,,6,,,48,100
31320,note_on,120,0,1,,,,,,,,,0,,,76,127
31380,note_on,60,0,6,,,,,,,,,5,,,60,0
31380,note_on,0,0,6,,,,,,,,,5,,,64,100
31380,note_on,0,0,8,,,,,,,,,7,,,52,100
31380,note_on,0,0,8,,,,,,,,,7,,,40,100
31380,note_on,60,0,7,,,,,,,,,6,,,48,0
31380,note_on,60,0,8,,,,,,,,,7,,,48,0
31380,note_on,0,0,7,,,,,,,,,6,,,36,0
31380,note_on,0,0,7,,,,,,,,,6,,,52,100
31380,note_on,0,0,7,,,,,,,,,6,,,40,100
31380,note_on,0,0,8,,,,,,,,,7,,,36,0
31440,note_on,60,0,8,,,,,,,,,7,,,52,0
31440,note_on,0,0,8,,,,,,,,,7,,,40,0
31440,note_on,0,0,8,,,,,,,,,7,,,36,100
31440,note_on,0,0,8,,,,,,,,,7,,,48,100
31440,note_on,60,0,6,,,,,,,,,5,,,64,0
31440,note_on,120,0,5,,,,,,,,,4,,,60,0
31440,note_on,0,0,7,,,,,,,,,6,,,48,100
31440,note_on,0,0,7,,,,,,,,,6,,,36,100
31440,note_on,0,0,7,,,,,,,,,6,,,40,0
31440,note_on,60,0,7,,,,,,,,,6,,,52,0
31440,note_on,0,0,6,,,,,,,,,5,,,60,100
31440,note_on,120,0,1,,,,,,,,,0,,,76,0
31440,note_on,120,0,3,,,,,,,,,2,,,76,0
31440,note_on,0,0,3,,,,,,,,,2,,,72,0
31440,note_on,120,0,4,,,,,,,,,3,,,76,0
31500,note_on,0,0,2,,,,,,,,,1,,,74,127
31500,note_on,0,0,8,,,,,,,,,7,,,36,0
31500,note_on,60,0,8,,,,,,,,,7,,,48,0
31500,note_on,0,0,2,,,,,,,,,1,,,67,127
31500,note_on,60,0,5,,,,,,,,,4,,,74,125
31500,note_on,60,0,3,,,,,,,,,2,,,67,127
31500,note_on,60,0,1,,,,,,,,,0,,,74,127
31500,note_on,0,0,3,,,,,,,,,2,,,74,127
31500,note_on,0,0,8,,,,,,,,,7,,,55,107
31500,note_on,0,0,7,,,,,,,,,6,,,55,102
31500,note_on,0,0,7,,,,,,,,,6,,,36,0
31500,note_on,60,0,4,,,,,,,,,3,,,77,127
31500,note_on,60,0,7,,,,,,,,,6,,,48,0
31500,note_on,60,0,6,,,,,,,,,5,,,60,0
31500,note_on,0,0,6,,,,,,,,,5,,,67,104
31500,note_on,0,0,1,,,,,,,,,0,,,77,127
31500,note_on,540,0,2,,,,,,,,,1,,,79,0
31500,note_on,0,0,2,,,,,,,,,1,,,67,0
31500,note_on,0,0,7,,,,,,,,,6,,,43,102
31500,note_on,0,0,8,,,,,,,,,7,,,43,107
31560,note_on,0,0,7,,,,,,,,,6,,,47,108
31560,note_on,0,0,7,,,,,,,,,6,,,59,108
31560,note_on,0,0,7,,,,,,,,,6,,,43,0
31560,note_on,0,0,8,,,,,,,,,7,,,43,0
31560,note_on,0,0,8,,,,,,,,,7,,,47,114
31560,note_on,0,0,8,,,,,,,,,7,,,59,114
31560,note_on,60,0,7,,,,,,,,,6,,,55,0
31560,note_on,60,0,6,,,,,,,,,5,,,67,0
31560,note_on,0,0,6,,,,,,,,,5,,,71,108
31560,note_on,60,0,8,,,,,,,,,7,,,55,0
31620,note_on,0,0,7,,,,,,,,,6,,,47,0
31620,note_on,0,0,7,,,,,,,,,6,,,43,111
31620,note_on,60,0,7,,,,,,,,,6,,,59,0
31620,note_on,0,0,7,,,,,,,,,6,,,55,111
31620,note_on,60,0,6,,,,,,,,,5,,,71,0
31620,note_on,0,0,8,,,,,,,,,7,,,55,127
31620,note_on,0,0,8,,,,,,,,,7,,,43,127
31620,note_on,0,0,8,,,,,,,,,7,,,47,0
31620,note_on,0,0,6,,,,,,,,,5,,,67,116
31620,note_on,60,0,8,,,,,,,,,7,,,59,0
31680,note_on,0,0,5,,,,,,,,,4,,,72,127
31680,note_on,0,0,6,,,,,,,,,5,,,72,124
31680,note_on,180,0,4,,,,,,,,,3,,,77,0
31680,note_on,0,0,4,,,,,,,,,3,,,76,127
31680,note_on,0,0,8,,,,,,,,,7,,,48,127
31680,note_on,0,0,8,,,,,,,,,7,,,43,0
31680,note_on,60,0,8,,,,,,,,,7,,,55,0
31680,note_on,180,0,5,,,,,,,,,4,,,74,0
31680,note_on,180,0,3,,,,,,,,,2,,,74,0
31680,note_on,0,0,3,,,,,,,,,2,,,67,0
31680,note_on,0,0,3,,,,,,,,,2,,,72,127
31680,note_on,0,0,3,,,,,,,,,2,,,76,127
31680,note_on,0,0,7,,,,,,,,,6,,,43,0
31680,note_on,0,0,1,,,,,,,,,0,,,76,127
31680,note_on,0,0,1,,,,,,,,,0,,,72,127
31680,note_on,180,0,2,,,,,,,,,1,,,74,0
31680,note_on,0,0,2,,,,,,,,,1,,,67,0
31680,note_on,0,0,2,,,,,,,,,1,,,72,127
31680,note_on,0,0,7,,,,,,,,,6,,,48,112
31680,note_on,0,0,2,,,,,,,,,1,,,76,127
31680,note_on,0,0,1,,,,,,,,,0,,,74,0
31680,note_on,180,0,1,,,,,,,,,0,,,77,0
31680,note_on,0,0,7,,,,,,,,,6,,,60,112
31680,note_on,0,0,8,,,,,,,,,7,,,60,127
31680,note_on,60,0,6,,,,,,,,,5,,,67,0
31680,note_on,60,0,7,,,,,,,,,6,,,55,0
31740,note_on,0,0,7,,,,,,,,,6,,,48,0
31740,note_on,0,0,3,,,,,,,,,2,,,72,0
31740,note_on,0,0,7,,,,,,,,,6,,,64,116
31740,note_on,60,0,2,,,,,,,,,1,,,76,0
31740,note_on,0,0,2,,,,,,,,,1,,,72,0
31740,note_on,60,0,7,,,,,,,,,6,,,60,0
31740,note_on,60,0,3,,,,,,,,,2,,,76,0
31740,note_on,0,0,7,,,,,,,,,6,,,52,116
31740,note_on,60,0,1,,,,,,,,,0,,,76,0
31740,note_on,60,0,6,,,,,,,,,5,,,72,0
31740,note_on,0,0,8,,,,,,,,,7,,,64,127
31740,note_on,0,0,1,,,,,,,,,0,,,72,0
31740,note_on,60,0,4,,,,,,,,,3,,,76,0
31740,note_on,0,0,8,,,,,,,,,7,,,52,127
31740,note_on,0,0,8,,,,,,,,,7,,,48,0
31740,note_on,0,0,6,,,,,,,,,5,,,76,127
31740,note_on,60,0,8,,,,,,,,,7,,,60,0
31740,note_on,60,0,5,,,,,,,,,4,,,72,0
31800,note_on,60,0,8,,,,,,,,,7,,,64,0
31800,note_on,60,0,7,,,,,,,,,6,,,64,0
31800,note_on,60,0,6,,,,,,,,,5,,,76,0
31800,note_on,0,0,6,,,,,,,,,5,,,72,127
31800,note_on,0,0,7,,,,,,,,,6,,,60,119
31800,note_on,0,0,7,,,,,,,,,6,,,48,119
31800,note_on,0,0,8,,,,,,,,,7,,,52,0
31800,note_on,0,0,8,,,,,,,,,7,,,48,127
31800,note_on,0,0,7,,,,,,,,,6,,,52,0
31800,note_on,0,0,8,,,,,,,,,7,,,60,127
31860,note_on,60,0,8,,,,,,,,,7,,,60,0
31860,note_on,120,0,4,,,,,,,,,3,,,86,127
31860,note_on,0,0,7,,,,,,,,,6,,,55,122
31860,note_on,0,0,6,,,,,,,,,5,,,67,127
31860,note_on,60,0,6,,,,,,,,,5,,,72,0
31860,note_on,0,0,7,,,,,,,,,6,,,43,122
31860,note_on,0,0,1,,,,,,,,,0,,,86,127
31860,note_on,120,0,1,,,,,,,,,0,,,77,127
31860,note_on,120,0,3,,,,,,,,,2,,,67,127
31860,note_on,0,0,7,,,,,,,,,6,,,48,0
31860,note_on,120,0,5,,,,,,,,,4,,,77,127
31860,note_on,60,0,7,,,,,,,,,6,,,60,0
31860,note_on,120,0,2,,,,,,,,,1,,,74,127
31860,note_on,0,0,2,,,,,,,,,1,,,77,127
31860,note_on,0,0,8,,,,,,,,,7,,,55,127
31860,note_on,0,0,8,,,,,,,,,7,,,43,127
31860,note_on,0,0,8,,,,,,,,,7,,,48,0
31860,note_on,0,0,3,,,,,,,,,2,,,74,127
31920,note_on,60,0,7,,,,,,,,,6,,,55,0
31920,note_on,0,0,7,,,,,,,,,6,,,43,0
31920,note_on,0,0,6,,,,,,,,,5,,,71,127
31920,note_on,0,0,7,,,,,,,,,6,,,59,125
31920,note_on,60,0,8,,,,,,,,,7,,,55,0
31920,note_on,0,0,8,,,,,,,,,7,,,43,0
31920,note_on,60,0,6,,,,,,,,,5,,,67,0
31920,note_on,0,0,8,,,,,,,,,7,,,47,127
31920,note_on,0,0,8,,,,,,,,,7,,,59,127
31920,note_on,0,0,7,,,,,,,,,6,,,47,125
31980,note_on,0,0,7,,,,,,,,,6,,,47,0
31980,note_on,60,0,7,,,,,,,,,6,,,59,0
31980,note_on,0,0,7,,,,,,,,,6,,,43,127
31980,note_on,0,0,8,,,,,,,,,7,,,47,0
31980,note_on,0,0,8,,,,,,,,,7,,,43,127
31980,note_on,0,0,7,,,,,,,,,6,,,55,127
31980,note_on,0,0,8,,,,,,,,,7,,,55,127
31980,note_on,60,0,6,,,,,,,,,5,,,71,0
31980,note_on,60,0,8,,,,,,,,,7,,,59,0
31980,note_on,0,0,6,,,,,,,,,5,,,67,127
32040,note_on,0,0,8,,,,,,,,,7,,,48,127
32040,note_on,0,0,3,,,,,,,,,2,,,76,127
32040,note_on,0,0,3,,,,,,,,,2,,,72,127
32040,note_on,180,0,3,,,,,,,,,2,,,74,0
32040,note_on,0,0,4,,,,,,,,,3,,,84,127
32040,note_on,180,0,4,,,,,,,,,3,,,86,0
32040,note_on,0,0,2,,,,,,,,,1,,,76,127
32040,note_on,0,0,2,,,,,,,,,1,,,72,127
32040,note_on,0,0,6,,,,,,,,,5,,,60,127
32040,note_on,60,0,6,,,,,,,,,5,,,67,0
32040,note_on,180,0,2,,,,,,,,,1,,,77,0
32040,note_on,180,0,5,,,,,,,,,4,,,77,0
32040,note_on,0,0,5,,,,,,,,,4,,,76,127
32040,note_on,0,0,7,,,,,,,,,6,,,48,127
32040,note_on,0,0,7,,,,,,,,,6,,,36,127
32040,note_on,0,0,3,,,,,,,,,2,,,67,0
32040,note_on,60,0,7,,,,,,,,,6,,,55,0
32040,note_on,0,0,8,,,,,,,,,7,,,36,127
32040,note_on,0,0,8,,,,,,,,,7,,,43,0
32040,note_on,60,0,8,,,,,,,,,7,,,55,0
32040,note_on,0,0,7,,,,,,,,,6,,,43,0
32040,note_on,0,0,1,,,,,,,,,0,,,84,127
32040,note_on,0,0,1,,,,,,,,,0,,,76,127
32040,note_on,0,0,1,,,,,,,,,0,,,77,0
32040,note_on,180,0,1,,,,,,,,,0,,,86,0
32040,note_on,0,0,2,,,,,,,,,1,,,74,0
32100,note_on,0,0,6,,,,,,,,,5,,,64,127
32100,note_on,60,0,8,,,,,,,,,7,,,48,0
32100,note_on,60,0,4,,,,,,,,,3,,,84,0
32100,note_on,0,0,7,,,,,,,,,6,,,52,127
32100,note_on,0,0,7,,,,,,,,,6,,,40,127
32100,note_on,0,0,8,,,,,,,,,7,,,36,0
32100,note_on,0,0,8,,,,,,,,,7,,,40,127
32100,note_on,60,0,3,,,,,,,,,2,,,76,0
32100,note_on,0,0,8,,,,,,,,,7,,,52,127
32100,note_on,0,0,3,,,,,,,,,2,,,72,0
32100,note_on,60,0,7,,,,,,,,,6,,,48,0
32100,note_on,60,0,5,,,,,,,,,4,,,76,0
32100,note_on,60,0,2,,,,,,,,,1,,,76,0
32100,note_on,60,0,1,,,,,,,,,0,,,84,0
32100,note_on,0,0,1,,,,,,,,,0,,,76,0
32100,note_on,60,0,6,,,,,,,,,5,,,60,0
32100,note_on,0,0,2,,,,,,,,,1,,,72,0
32100,note_on,0,0,7,,,,,,,,,6,,,36,0
32160,note_on,0,0,7,,,,,,,,,6,,,36,127
32160,note_on,0,0,7,,,,,,,,,6,,,40,0
32160,note_on,0,0,8,,,,,,,,,7,,,48,127
32160,note_on,0,0,6,,,,,,,,,5,,,60,127
32160,note_on,60,0,8,,,,,,,,,7,,,52,0
32160,note_on,0,0,7,,,,,,,,,6,,,48,127
32160,note_on,0,0,8,,,,,,,,,7,,,36,127
32160,note_on,60,0,7,,,,,,,,,6,,,52,0
32160,note_on,60,0,6,,,,,,,,,5,,,64,0
32160,note_on,0,0,8,,,,,,,,,7,,,40,0
32220,note_on,60,0,7,,,,,,,,,6,,,48,0
32220,note_on,60,0,8,,,,,,,,,7,,,48,0
32220,note_on,0,0,8,,,,,,,,,7,,,36,0
32220,note_on,0,0,8,,,,,,,,,7,,,31,127
32220,note_on,0,0,8,,,,,,,,,7,,,43,127
32220,note_on,60,0,6,,,,,,,,,5,,,60,0
32220,note_on,0,0,6,,,,,,,,,5,,,55,127
32220,note_on,0,0,2,,,,,,,,,1,,,74,127
32220,note_on,120,0,4,,,,,,,,,3,,,77,127
32220,note_on,120,0,2,,,,,,,,,1,,,67,127
32220,note_on,0,0,7,,,,,,,,,6,,,36,0
32220,note_on,120,0,5,,,,,,,,,4,,,74,127
32220,note_on,0,0,7,,,,,,,,,6,,,31,127
32220,note_on,120,0,1,,,,,,,,,0,,,74,127
32220,note_on,0,0,1,,,,,,,,,0,,,77,127
32220,note_on,0,0,7,,,,,,,,,6,,,43,127
32220,note_on,120,0,3,,,,,,,,,2,,,67,127
32220,note_on,0,0,3,,,,,,,,,2,,,74,127
32280,note_on,0,0,7,,,,,,,,,6,,,31,0
32280,note_on,60,0,8,,,,,,,,,7,,,43,0
32280,note_on,0,0,8,,,,,,,,,7,,,31,0
32280,note_on,0,0,8,,,,,,,,,7,,,47,127
32280,note_on,60,0,7,,,,,,,,,6,,,43,0
32280,note_on,60,0,6,,,,,,,,,5,,,55,0
32280,note_on,0,0,6,,,,,,,,,5,,,59,127
32280,note_on,0,0,7,,,,,,,,,6,,,47,127
32280,note_on,0,0,7,,,,,,,,,6,,,35,127
32280,note_on,0,0,8,,,,,,,,,7,,,35,127
32340,note_on,0,0,7,,,,,,,,,6,,,43,127
32340,note_on,60,0,8,,,,,,,,,7,,,47,0
32340,note_on,0,0,7,,,,,,,,,6,,,35,0
32340,note_on,60,0,6,,,,,,,,,5,,,59,0
32340,note_on,0,0,8,,,,,,,,,7,,,35,0
32340,note_on,0,0,8,,,,,,,,,7,,,31,127
32340,note_on,60,0,7,,,,,,,,,6,,,47,0
32340,note_on,0,0,7,,,,,,,,,6,,,31,127
32340,note_on,0,0,6,,,,,,,,,5,,,55,127
32340,note_on,0,0,8,,,,,,,,,7,,,43,127
32400,note_on,0,0,6,,,,,,,,,5,,,60,127
32400,note_on,0,0,8,,,,,,,,,7,,,48,127
32400,note_on,0,0,8,,,,,,,,,7,,,36,127
32400,note_on,0,0,8,,,,,,,,,7,,,31,0
32400,note_on,60,0,8,,,,,,,,,7,,,43,0
32400,note_on,0,0,2,,,,,,,,,1,,,76,127
32400,note_on,0,0,2,,,,,,,,,1,,,72,127
32400,note_on,0,0,2,,,,,,,,,1,,,67,0
32400,note_on,180,0,2,,,,,,,,,1,,,74,0
32400,note_on,180,0,1,,,,,,,,,0,,,77,0
32400,note_on,0,0,1,,,,,,,,,0,,,74,0
32400,note_on,0,0,1,,,,,,,,,0,,,72,127
32400,note_on,0,0,1,,,,,,,,,0,,,76,127
32400,note_on,0,0,4,,,,,,,,,3,,,76,127
32400,note_on,180,0,4,,,,,,,,,3,,,77,0
32400,note_on,0,0,3,,,,,,,,,2,,,67,0
32400,note_on,60,0,6,,,,,,,,,5,,,55,0
32400,note_on,0,0,3,,,,,,,,,2,,,76,127
32400,note_on,0,0,7,,,,,,,,,6,,,31,0
32400,note_on,0,0,7,,,,,,,,,6,,,36,127
32400,note_on,0,0,7,,,,,,,,,6,,,48,127
32400,note_on,180,0,3,,,,,,,,,2,,,74,0
32400,note_on,60,0,7,,,,,,,,,6,,,43,0
32400,note_on,0,0,3,,,,,,,,,2,,,72,127
32400,note_on,180,0,5,,,,,,,,,4,,,74,0
32400,note_on,0,0,5,,,,,,,,,4,,,72,127
32460,note_on,0,0,2,,,,,,,,,1,,,72,0
32460,note_on,0,0,5,,,,,,,,,4,,,74,127
32460,note_on,60,0,5,,,,,,,,,4,,,72,0
32460,note_on,0,0,1,,,,,,,,,0,,,74,127
32460,note_on,0,0,3,,,,,,,,,2,,,74,127
32460,note_on,0,0,3,,,,,,,,,2,,,72,0
32460,note_on,0,0,2,,,,,,,,,1,,,74,127
32460,note_on,60,0,1,,,,,,,,,0,,,76,0
32460,note_on,0,0,1,,,,,,,,,0,,,72,0
32460,note_on,60,0,2,,,,,,,,,1,,,76,0
32460,note_on,60,0,6,,,,,,,,,5,,,60,0
32460,note_on,60,0,3,,,,,,,,,2,,,76,0
32460,note_on,0,0,7,,,,,,,,,6,,,50,127
32460,note_on,0,0,7,,,,,,,,,6,,,36,0
32460,note_on,60,0,4,,,,,,,,,3,,,76,0
32460,note_on,0,0,4,,,,,,,,,3,,,74,127
32460,note_on,60,0,8,,,,,,,,,7,,,48,0
32460,note_on,0,0,6,,,,,,,,,5,,,62,127
32460,note_on,0,0,8,,,,,,,,,7,,,36,0
32460,note_on,0,0,8,,,,,,,,,7,,,50,127
32460,note_on,60,0,7,,,,,,,,,6,,,48,0
32460,note_on,0,0,7,,,,,,,,,6,,,38,127
32460,note_on,0,0,8,,,,,,,,,7,,,38,127
32520,note_on,60,0,3,,,,,,,,,2,,,74,0
32520,note_on,0,0,1,,,,,,,,,0,,,72,127
32520,note_on,60,0,1,,,,,,,,,0,,,74,0
32520,note_on,0,0,4,,,,,,,,,3,,,72,127
32520,note_on,60,0,4,,,,,,,,,3,,,74,0
32520,note_on,0,0,7,,,,,,,,,6,,,48,127
32520,note_on,0,0,3,,,,,,,,,2,,,72,127
32520,note_on,60,0,7,,,,,,,,,6,,,50,0
32520,note_on,60,0,8,,,,,,,,,7,,,50,0
32520,note_on,0,0,5,,,,,,,,,4,,,72,127
32520,note_on,0,0,8,,,,,,,,,7,,,38,0
32520,note_on,0,0,8,,,,,,,,,7,,,36,127
32520,note_on,0,0,8,,,,,,,,,7,,,48,127
32520,note_on,0,0,7,,,,,,,,,6,,,36,127
32520,note_on,60,0,5,,,,,,,,,4,,,74,0
32520,note_on,0,0,7,,,,,,,,,6,,,38,0
32520,note_on,0,0,2,,,,,,,,,1,,,72,127
32520,note_on,60,0,2,,,,,,,,,1,,,74,0
32520,note_on,0,0,6,,,,,,,,,5,,,60,127
32520,note_on,60,0,6,,,,,,,,,5,,,62,0
32580,note_on,60,0,1,,,,,,,,,0,,,72,0
32580,note_on,60,0,5,,,,,,,,,4,,,72,0
32580,note_on,0,0,5,,,,,,,,,4,,,76,127
32580,note_on,0,0,3,,,,,,,,,2,,,76,127
32580,note_on,0,0,1,,,,,,,,,0,,,76,127
32580,note_on,60,0,6,,,,,,,,,5,,,60,0
32580,note_on,0,0,7,,,,,,,,,6,,,40,127
32580,note_on,60,0,3,,,,,,,,,2,,,72,0
32580,note_on,60,0,8,,,,,,,,,7,,,48,0
32580,note_on,0,0,8,,,,,,,,,7,,,36,0
32580,note_on,0,0,8,,,,,,,,,7,,,40,127
32580,note_on,0,0,8,,,,,,,,,7,,,52,127
32580,note_on,60,0,2,,,,,,,,,1,,,72,0
32580,note_on,0,0,7,,,,,,,,,6,,,52,127
32580,note_on,0,0,7,,,,,,,,,6,,,36,0
32580,note_on,0,0,2,,,,,,,,,1,,,76,127
32580,note_on,0,0,4,,,,,,,,,3,,,76,127
32580,note_on,0,0,6,,,,,,,,,5,,,64,127
32580,note_on,60,0,4,,,,,,,,,3,,,72,0
32580,note_on,60,0,7,,,,,,,,,6,,,48,0
32640,note_on,0,0,4,,,,,,,,,3,,,74,127
32640,note_on,60,0,3,,,,,,,,,2,,,76,0
32640,note_on,60,0,2,,,,,,,,,1,,,76,0
32640,note_on,0,0,2,,,,,,,,,1,,,74,127
32640,note_on,0,0,1,,,,,,,,,0,,,74,127
32640,note_on,60,0,1,,,,,,,,,0,,,76,0
32640,note_on,60,0,4,,,,,,,,,3,,,76,0
32640,note_on,0,0,3,,,,,,,,,2,,,74,127
32640,note_on,0,0,8,,,,,,,,,7,,,40,0
32640,note_on,60,0,6,,,,,,,,,5,,,64,0
32640,note_on,0,0,6,,,,,,,,,5,,,62,127
32640,note_on,0,0,5,,,,,,,,,4,,,74,127
32640,note_on,60,0,5,,,,,,,,,4,,,76,0
32640,note_on,60,0,7,,,,,,,,,6,,,52,0
32640,note_on,0,0,8,,,,,,,,,7,,,38,127
32640,note_on,0,0,7,,,,,,,,,6,,,40,0
32640,note_on,0,0,8,,,,,,,,,7,,,50,127
32640,note_on,0,0,7,,,,,,,,,6,,,50,127
32640,note_on,60,0,8,,,,,,,,,7,,,52,0
32640,note_on,0,0,7,,,,,,,,,6,,,38,127
32700,note_on,60,0,5,,,,,,,,,4,,,74,0
32700,note_on,60,0,7,,,,,,,,,6,,,50,0
32700,note_on,0,0,7,,,,,,,,,6,,,38,0
32700,note_on,0,0,1,,,,,,,,,0,,,72,127
32700,note_on,0,0,7,,,,,,,,,6,,,36,127
32700,note_on,0,0,7,,,,,,,,,6,,,48,127
32700,note_on,0,0,5,,,,,,,,,4,,,72,127
32700,note_on,0,0,4,,,,,,,,,3,,,72,127
32700,note_on,0,0,2,,,,,,,,,1,,,72,127
32700,note_on,60,0,2,,,,,,,,,1,,,74,0
32700,note_on,0,0,8,,,,,,,,,7,,,48,127
32700,note_on,0,0,8,,,,,,,,,7,,,36,127
32700,note_on,0,0,8,,,,,,,,,7,,,38,0
32700,note_on,60,0,6,,,,,,,,,5,,,62,0
32700,note_on,0,0,6,,,,,,,,,5,,,60,127
32700,note_on,60,0,8,,,,,,,,,7,,,50,0
32700,note_on,0,0,3,,,,,,,,,2,,,72,127
32700,note_on,60,0,1,,,,,,,,,0,,,74,0
32700,note_on,60,0,4,,,,,,,,,3,,,74,0
32700,note_on,60,0,3,,,,,,,,,2,,,74,0
32760,note_on,0,0,5,,,,,,,,,4,,,71,127
32760,note_on,0,0,8,,,,,,,,,7,,,43,127
32760,note_on,60,0,5,,,,,,,,,4,,,72,0
32760,note_on,0,0,8,,,,,,,,,7,,,55,127
32760,note_on,0,0,7,,,,,,,,,6,,,43,127
32760,note_on,0,0,7,,,,,,,,,6,,,55,127
32760,note_on,0,0,5,,,,,,,,,4,,,55,127
32760,note_on,0,0,5,,,,,,,,,4,,,62,127
32760,note_on,60,0,4,,,,,,,,,3,,,72,0
32760,note_on,0,0,7,,,,,,,,,6,,,36,0
32760,note_on,0,0,8,,,,,,,,,7,,,36,0
32760,note_on,60,0,6,,,,,,,,,5,,,60,0
32760,note_on,0,0,1,,,,,,,,,0,,,79,127
32760,note_on,0,0,4,,,,,,,,,3,,,79,127
32760,note_on,0,0,1,,,,,,,,,0,,,71,127
32760,note_on,0,0,3,,,,,,,,,2,,,79,127
32760,note_on,0,0,3,,,,,,,,,2,,,67,127
32760,note_on,60,0,2,,,,,,,,,1,,,72,0
32760,note_on,60,0,1,,,,,,,,,0,,,72,0
32760,note_on,60,0,8,,,,,,,,,7,,,48,0
32760,note_on,60,0,7,,,,,,,,,6,,,48,0
32760,note_on,0,0,2,,,,,,,,,1,,,67,127
32760,note_on,0,0,6,,,,,,,,,5,,,59,127
32760,note_on,60,0,3,,,,,,,,,2,,,72,0
32760,note_on,0,0,2,,,,,,,,,1,,,74,127
32820,note_on,60,0,6,,,,,,,,,5,,,59,0
32820,note_on,0,0,7,,,,,,,,,6,,,57,127
32820,note_on,0,0,7,,,,,,,,,6,,,45,127
32820,note_on,0,0,8,,,,,,,,,7,,,57,127
32820,note_on,0,0,8,,,,,,,,,7,,,45,127
32820,note_on,0,0,8,,,,,,,,,7,,,43,0
32820,note_on,60,0,8,,,,,,,,,7,,,55,0
32820,note_on,0,0,7,,,,,,,,,6,,,43,0
32820,note_on,0,0,6,,,,,,,,,5,,,60,127
32820,note_on,60,0,7,,,,,,,,,6,,,55,0
32880,note_on,120,0,4,,,,,,,,,3,,,79,0
32880,note_on,0,0,1,,,,,,,,,0,,,71,0
32880,note_on,0,0,6,,,,,,,,,5,,,59,127
32880,note_on,60,0,6,,,,,,,,,5,,,60,0
32880,note_on,60,0,8,,,,,,,,,7,,,57,0
32880,note_on,0,0,8,,,,,,,,,7,,,43,127
32880,note_on,0,0,8,,,,,,,,,7,,,55,127
32880,note_on,120,0,1,,,,,,,,,0,,,79,0
32880,note_on,0,0,8,,,,,,,,,7,,,45,0
32880,note_on,0,0,7,,,,,,,,,6,,,43,127
32880,note_on,0,0,5,,,,,,,,,4,,,62,0
32880,note_on,0,0,3,,,,,,,,,2,,,67,0
32880,note_on,120,0,3,,,,,,,,,2,,,79,0
32880,note_on,0,0,5,,,,,,,,,4,,,55,0
32880,note_on,120,0,5,,,,,,,,,4,,,71,0
32880,note_on,60,0,7,,,,,,,,,6,,,57,0
32880,note_on,120,0,2,,,,,,,,,1,,,74,0
32880,note_on,0,0,7,,,,,,,,,6,,,45,0
32880,note_on,0,0,7,,,,,,,,,6,,,55,127
32880,note_on,0,0,2,,,,,,,,,1,,,67,0
32940,note_on,60,0,8,,,,,,,,,7,,,55,0
32940,note_on,0,0,8,,,,,,,,,7,,,43,0
32940,note_on,60,0,7,,,,,,,,,6,,,55,0
32940,note_on,0,0,7,,,,,,,,,6,,,43,0
32940,note_on,0,0,7,,,,,,,,,6,,,41,127
32940,note_on,0,0,6,,,,,,,,,5,,,57,127
32940,note_on,0,0,7,,,,,,,,,6,,,53,127
32940,note_on,60,0,6,,,,,,,,,5,,,59,0
32940,note_on,0,0,8,,,,,,,,,7,,,41,127
32940,note_on,0,0,8,,,,,,,,,7,,,53,127
33000,note_on,0,0,8,,,,,,,,,7,,,41,0
33000,note_on,60,0,8,,,,,,,,,7,,,53,0
33000,note_on,0,0,8,,,,,,,,,7,,,40,127
33000,note_on,0,0,7,,,,,,,,,6,,,40,127
33000,note_on,0,0,7,,,,,,,,,6,,,52,127
33000,note_on,0,0,6,,,,,,,,,5,,,55,127
33000,note_on,60,0,7,,,,,,,,,6,,,53,0
33000,note_on,0,0,7,,,,,,,,,6,,,41,0
33000,note_on,0,0,8,,,,,,,,,7,,,52,127
33000,note_on,60,0,6,,,,,,,,,5,,,57,0
33060,note_on,0,0,7,,,,,,,,,6,,,40,0
33060,note_on,60,0,8,,,,,,,,,7,,,52,0
33060,note_on,0,0,7,,,,,,,,,6,,,38,100
33060,note_on,60,0,7,,,,,,,,,6,,,52,0
33060,note_on,0,0,7,,,,,,,,,6,,,50,100
33060,note_on,60,0,6,,,,,,,,,5,,,55,0
33060,note_on,0,0,6,,,,,,,,,5,,,53,100
33060,note_on,0,0,8,,,,,,,,,7,,,50,100
33060,note_on,0,0,8,,,,,,,,,7,,,40,0
33060,note_on,0,0,8,,,,,,,,,7,,,38,100
33120,note_on,0,0,6,,,,,,,,,5,,,52,100
33120,note_on,60,0,6,,,,,,,,,5,,,53,0
33120,note_on,60,0,7,,,,,,,,,6,,,50,0
33120,note_on,0,0,7,,,,,,,,,6,,,38,0
33120,note_on,0,0,7,,,,,,,,,6,,,36,100
33120,note_on,0,0,7,,,,,,,,,6,,,48,100
33120,note_on,0,0,8,,,,,,,,,7,,,48,100
33120,note_on,0,0,8,,,,,,,,,7,,,36,100
33120,note_on,0,0,8,,,,,,,,,7,,,38,0
33120,note_on,60,0,8,,,,,,,,,7,,,50,0
33240,note_on,0,0,8,,,,,,,,,7,,,36,0
33240,note_on,120,0,7,,,,,,,,,6,,,48,0
33240,note_on,0,0,7,,,,,,,,,6,,,36,0
33240,note_on,120,0,8,,,,,,,,,7,,,48,0
33240,note_on,360,0,5,,,,,,,,,4,,,76,36
33240,note_on,120,0,6,,,,,,,,,5,,,52,0
33240,note_on,360,0,4,,,,,,,,,3,,,79,100
33270,note_on,30,0,5,,,,,,,,,4,,,76,0
33270,note_on,30,0,4,,,,,,,,,3,,,79,0
33300,note_on,30,0,5,,,,,,,,,4,,,72,36
33300,note_on,60,0,6,,,,,,,,,5,,,67,42
33300,note_on,30,0,4,,,,,,,,,3,,,76,44
33420,note_on,120,0,5,,,,,,,,,4,,,72,0
33420,note_on,0,0,5,,,,,,,,,4,,,74,38
33420,note_on,0,0,6,,,,,,,,,5,,,65,44
33420,note_on,120,0,6,,,,,,,,,5,,,67,0
33420,note_on,120,0,4,,,,,,,,,3,,,76,0
33420,note_on,0,0,4,,,,,,,,,3,,,77,45
33480,note_on,60,0,6,,,,,,,,,5,,,65,0
33480,note_on,0,0,5,,,,,,,,,4,,,76,39
33480,note_on,60,0,5,,,,,,,,,4,,,74,0
33480,note_on,0,0,6,,,,,,,,,5,,,64,44
33480,note_on,240,0,8,,,,,,,,,7,,,48,42
33480,note_on,240,0,7,,,,,,,,,6,,,48,42
33480,note_on,60,0,4,,,,,,,,,3,,,77,0
33480,note_on,0,0,4,,,,,,,,,3,,,79,45
33600,note_on,120,0,6,,,,,,,,,5,,,64,0
33600,note_on,0,0,5,,,,,,,,,4,,,79,39
33600,note_on,0,0,4,,,,,,,,,3,,,84,45
33600,note_on,120,0,4,,,,,,,,,3,,,79,0
33600,note_on,120,0,5,,,,,,,,,4,,,76,0
33600,note_on,120,0,7,,,,,,,,,6,,,48,0
33600,note_on,120,0,8,,,,,,,,,7,,,48,0
33660,note_on,0,0,5,,,,,,,,,4,,,72,39
33660,note_on,60,0,6,,,,,,,,,5,,,67,40
33660,note_on,60,0,5,,,,,,,,,4,,,79,0
33660,note_on,0,0,4,,,,,,,,,3,,,76,45
33660,note_on,60,0,4,,,,,,,,,3,,,84,0
33780,note_on,120,0,4,,,,,,,,,3,,,76,0
33780,note_on,120,0,6,,,,,,,,,5,,,67,0
33780,note_on,0,0,6,,,,,,,,,5,,,65,40
33780,note_on,0,0,4,,,,,,,,,3,,,77,44
33780,note_on,120,0,5,,,,,,,,,4,,,72,0
33780,note_on,0,0,5,,,,,,,,,4,,,74,40
33840,note_on,240,0,8,,,,,,,,,7,,,48,42
33840,note_on,0,0,6,,,,,,,,,5,,,64,40
33840,note_on,60,0,4,,,,,,,,,3,,,77,0
33840,note_on,0,0,5,,,,,,,,,4,,,76,40
33840,note_on,60,0,5,,,,,,,,,4,,,74,0
33840,note_on,60,0,6,,,,,,,,,5,,,65,0
33840,note_on,0,0,4,,,,,,,,,3,,,79,43
33840,note_on,240,0,7,,,,,,,,,6,,,48,42
33960,note_on,120,0,5,,,,,,,,,4,,,76,0
33960,note_on,0,0,5,,,,,,,,,4,,,79,43
33960,note_on,0,0,4,,,,,,,,,3,,,84,41
33960,note_on,120,0,4,,,,,,,,,3,,,79,0
33960,note_on,120,0,8,,,,,,,,,7,,,48,0
33960,note_on,120,0,7,,,,,,,,,6,,,48,0
34020,note_on,0,0,4,,,,,,,,,3,,,79,40
34020,note_on,180,0,6,,,,,,,,,5,,,64,0
34020,note_on,60,0,5,,,,,,,,,4,,,79,0
34020,note_on,0,0,6,,,,,,,,,5,,,60,40
34020,note_on,60,0,7,,,,,,,,,6,,,48,42
34020,note_on,60,0,8,,,,,,,,,7,,,48,42
34020,note_on,0,0,5,,,,,,,,,4,,,76,44
34020,note_on,60,0,4,,,,,,,,,3,,,84,0
34140,note_on,120,0,4,,,,,,,,,3,,,79,0
34140,note_on,120,0,8,,,,,,,,,7,,,48,0
34140,note_on,0,0,5,,,,,,,,,4,,,79,47
34140,note_on,120,0,5,,,,,,,,,4,,,76,0
34140,note_on,120,0,7,,,,,,,,,6,,,48,0
34140,note_on,0,0,4,,,,,,,,,3,,,84,39
34200,note_on,60,0,4,,,,,,,,,3,,,84,0
34200,note_on,0,0,4,,,,,,,,,3,,,81,39
34200,note_on,180,0,6,,,,,,,,,5,,,60,0
34200,note_on,60,0,8,,,,,,,,,7,,,53,42
34200,note_on,0,0,6,,,,,,,,,5,,,60,40
34200,note_on,60,0,5,,,,,,,,,4,,,79,0
34200,note_on,0,0,5,,,,,,,,,4,,,77,47
34200,note_on,60,0,7,,,,,,,,,6,,,53,42
34260,note_on,0,0,4,,,,,,,,,3,,,79,39
34260,note_on,60,0,4,,,,,,,,,3,,,81,0
34260,note_on,60,0,5,,,,,,,,,4,,,77,0
34260,note_on,0,0,5,,,,,,,,,4,,,76,47
34320,note_on,120,0,6,,,,,,,,,5,,,60,0
34320,note_on,60,0,5,,,,,,,,,4,,,76,0
34320,note_on,60,0,4,,,,,,,,,3,,,79,0
34320,note_on,0,0,4,,,,,,,,,3,,,77,39
34320,note_on,0,0,5,,,,,,,,,4,,,74,47
34380,note_on,60,0,6,,,,,,,,,5,,,57,40
34380,note_on,0,0,8,,,,,,,,,7,,,57,42
34380,note_on,180,0,8,,,,,,,,,7,,,53,0
34380,note_on,0,0,7,,,,,,,,,6,,,57,42
34380,note_on,180,0,7,,,,,,,,,6,,,53,0
34380,note_on,60,0,4,,,,,,,,,3,,,77,0
34380,note_on,0,0,4,,,,,,,,,3,,,76,39
34380,note_on,0,0,5,,,,,,,,,4,,,72,47
34380,note_on,60,0,5,,,,,,,,,4,,,74,0
34440,note_on,60,0,5,,,,,,,,,4,,,72,0
34440,note_on,0,0,4,,,,,,,,,3,,,74,39
34440,note_on,0,0,5,,,,,,,,,4,,,71,46
34440,note_on,60,0,4,,,,,,,,,3,,,76,0
34500,note_on,60,0,4,,,,,,,,,3,,,74,0
34500,note_on,0,0,5,,,,,,,,,4,,,72,44
34500,note_on,0,0,4,,,,,,,,,3,,,72,40
34500,note_on,60,0,5,,,,,,,,,4,,,71,0
34500,note_on,120,0,6,,,,,,,,,5,,,57,0
34560,note_on,180,0,7,,,,,,,,,6,,,57,0
34560,note_on,180,0,8,,,,,,,,,7,,,57,0
34560,note_on,0,0,8,,,,,,,,,7,,,55,47
34560,note_on,0,0,7,,,,,,,,,6,,,55,47
34560,note_on,60,0,4,,,,,,,,,3,,,72,0
34560,note_on,0,0,4,,,,,,,,,3,,,74,41
34560,note_on,60,0,5,,,,,,,,,4,,,72,0
34560,note_on,0,0,5,,,,,,,,,4,,,71,40
34560,note_on,60,0,6,,,,,,,,,5,,,55,41
34680,note_on,120,0,6,,,,,,,,,5,,,55,0
34680,note_on,0,0,5,,,,,,,,,4,,,64,39
34680,note_on,120,0,4,,,,,,,,,3,,,74,0
34680,note_on,0,0,4,,,,,,,,,3,,,67,43
34680,note_on,120,0,5,,,,,,,,,4,,,71,0
34680,note_on,120,0,8,,,,,,,,,7,,,55,0
34680,note_on,0,0,1,,,,,,,,,0,,,76,41
34680,note_on,1800,0,1,,,,,,,,,0,,,79,41
34680,note_on,120,0,7,,,,,,,,,6,,,55,0
34710,note_on,0,0,1,,,,,,,,,0,,,79,0
34710,note_on,30,0,1,,,,,,,,,0,,,76,0
34710,note_on,30,0,5,,,,,,,,,4,,,64,0
34710,note_on,30,0,4,,,,,,,,,3,,,67,0
34740,note_on,60,0,6,,,,,,,,,5,,,55,41
34740,note_on,30,0,4,,,,,,,,,3,,,64,43
34740,note_on,30,0,5,,,,,,,,,4,,,60,39
34740,note_on,30,0,1,,,,,,,,,0,,,72,41
34740,note_on,0,0,1,,,,,,,,,0,,,76,41
34860,note_on,120,0,5,,,,,,,,,4,,,60,0
34860,note_on,0,0,5,,,,,,,,,4,,,62,39
34860,note_on,0,0,6,,,,,,,,,5,,,53,41
34860,note_on,0,0,1,,,,,,,,,0,,,77,43
34860,note_on,0,0,4,,,,,,,,,3,,,65,44
34860,note_on,0,0,1,,,,,,,,,0,,,74,43
34860,note_on,120,0,1,,,,,,,,,0,,,76,0
34860,note_on,120,0,6,,,,,,,,,5,,,55,0
34860,note_on,120,0,4,,,,,,,,,3,,,64,0
34860,note_on,0,0,1,,,,,,,,,0,,,72,0
34920,note_on,60,0,1,,,,,,,,,0,,,77,0
34920,note_on,0,0,1,,,,,,,,,0,,,74,0
34920,note_on,0,0,1,,,,,,,,,0,,,76,46
34920,note_on,0,0,1,,,,,,,,,0,,,79,46
34920,note_on,240,0,7,,,,,,,,,6,,,48,47
34920,note_on,0,0,6,,,,,,,,,5,,,52,41
34920,note_on,0,0,4,,,,,,,,,3,,,67,47
34920,note_on,60,0,4,,,,,,,,,3,,,65,0
34920,note_on,60,0,6,,,,,,,,,5,,,53,0
34920,note_on,0,0,5,,,,,,,,,4,,,64,39
34920,note_on,2040,0,2,,,,,,,,,1,,,60,43
34920,note_on,0,0,2,,,,,,,,,1,,,72,43
34920,note_on,240,0,8,,,,,,,,,7,,,48,47
34920,note_on,60,0,5,,,,,,,,,4,,,62,0
35040,note_on,120,0,6,,,,,,,,,5,,,52,0
35040,note_on,120,0,8,,,,,,,,,7,,,48,0
35040,note_on,120,0,4,,,,,,,,,3,,,67,0
35040,note_on,0,0,4,,,,,,,,,3,,,72,47
35040,note_on,0,0,1,,,,,,,,,0,,,84,47
35040,note_on,120,0,7,,,,,,,,,6,,,48,0
35040,note_on,0,0,1,,,,,,,,,0,,,76,0
35040,note_on,120,0,5,,,,,,,,,4,,,64,0
35040,note_on,120,0,1,,,,,,,,,0,,,79,0
35040,note_on,0,0,5,,,,,,,,,4,,,67,39
35040,note_on,0,0,1,,,,,,,,,0,,,79,47
35100,note_on,60,0,6,,,,,,,,,5,,,55,41
35100,note_on,60,0,5,,,,,,,,,4,,,67,0
35100,note_on,0,0,5,,,,,,,,,4,,,60,39
35100,note_on,0,0,4,,,,,,,,,3,,,64,47
35100,note_on,60,0,4,,,,,,,,,3,,,72,0
35100,note_on,60,0,1,,,,,,,,,0,,,84,0
35100,note_on,0,0,1,,,,,,,,,0,,,79,0
35100,note_on,0,0,1,,,,,,,,,0,,,72,47
35100,note_on,0,0,1,,,,,,,,,0,,,76,47
35220,note_on,0,0,1,,,,,,,,,0,,,77,45
35220,note_on,120,0,1,,,,,,,,,0,,,76,0
35220,note_on,0,0,1,,,,,,,,,0,,,74,45
35220,note_on,120,0,6,,,,,,,,,5,,,55,0
35220,note_on,0,0,1,,,,,,,,,0,,,72,0
35220,note_on,120,0,5,,,,,,,,,4,,,60,0
35220,note_on,0,0,6,,,,,,,,,5,,,53,41
35220,note_on,0,0,5,,,,,,,,,4,,,62,39
35220,note_on,120,0,4,,,,,,,,,3,,,64,0
35220,note_on,0,0,4,,,,,,,,,3,,,65,48
35280,note_on,0,0,1,,,,,,,,,0,,,74,0
35280,note_on,240,0,8,,,,,,,,,7,,,48,49
35280,note_on,0,0,1,,,,,,,,,0,,,79,45
35280,note_on,60,0,1,,,,,,,,,0,,,77,0
35280,note_on,0,0,1,,,,,,,,,0,,,76,45
35280,note_on,60,0,6,,,,,,,,,5,,,53,0
35280,note_on,240,0,7,,,,,,,,,6,,,48,49
35280,note_on,0,0,6,,,,,,,,,5,,,52,41
35280,note_on,60,0,5,,,,,,,,,4,,,62,0
35280,note_on,60,0,4,,,,,,,,,3,,,65,0
35280,note_on,0,0,4,,,,,,,,,3,,,67,49
35280,note_on,0,0,5,,,,,,,,,4,,,64,39
35400,note_on,0,0,5,,,,,,,,,4,,,67,39
35400,note_on,120,0,8,,,,,,,,,7,,,48,0
35400,note_on,120,0,1,,,,,,,,,0,,,79,0
35400,note_on,0,0,1,,,,,,,,,0,,,76,0
35400,note_on,0,0,1,,,,,,,,,0,,,79,44
35400,note_on,0,0,1,,,,,,,,,0,,,84,44
35400,note_on,120,0,5,,,,,,,,,4,,,64,0
35400,note_on,120,0,6,,,,,,,,,5,,,52,0
35400,note_on,120,0,4,,,,,,,,,3,,,67,0
35400,note_on,120,0,7,,,,,,,,,6,,,48,0
35400,note_on,0,0,4,,,,,,,,,3,,,72,49
35460,note_on,0,0,1,,,,,,,,,0,,,79,43
35460,note_on,60,0,5,,,,,,,,,4,,,67,0
35460,note_on,0,0,5,,,,,,,,,4,,,64,41
35460,note_on,60,0,8,,,,,,,,,7,,,48,49
35460,note_on,60,0,6,,,,,,,,,5,,,48,41
35460,note_on,0,0,4,,,,,,,,,3,,,67,49
35460,note_on,60,0,7,,,,,,,,,6,,,48,49
35460,note_on,0,0,1,,,,,,,,,0,,,79,0
35460,note_on,0,0,1,,,,,,,,,0,,,76,43
35460,note_on,60,0,1,,,,,,,,,0,,,84,0
35460,note_on,60,0,4,,,,,,,,,3,,,72,0
35580,note_on,0,0,1,,,,,,,,,0,,,76,0
35580,note_on,120,0,1,,,,,,,,,0,,,79,0
35580,note_on,0,0,1,,,,,,,,,0,,,79,41
35580,note_on,0,0,5,,,,,,,,,4,,,67,44
35580,note_on,120,0,5,,,,,,,,,4,,,64,0
35580,note_on,0,0,1,,,,,,,,,0,,,84,41
35580,note_on,120,0,8,,,,,,,,,7,,,48,0
35580,note_on,120,0,7,,,,,,,,,6,,,48,0
35580,note_on,0,0,4,,,,,,,,,3,,,72,49
35580,note_on,120,0,4,,,,,,,,,3,,,67,0
35580,note_on,120,0,6,,,,,,,,,5,,,48,0
35640,note_on,0,0,4,,,,,,,,,3,,,69,49
35640,note_on,60,0,4,,,,,,,,,3,,,72,0
35640,note_on,60,0,8,,,,,,,,,7,,,53,47
35640,note_on,720,0,2,,,,,,,,,1,,,72,0
35640,note_on,60,0,7,,,,,,,,,6,,,53,47
35640,note_on,0,0,2,,,,,,,,,1,,,60,0
35640,note_on,0,0,5,,,,,,,,,4,,,65,47
35640,note_on,60,0,5,,,,,,,,,4,,,67,0
35640,note_on,60,0,1,,,,,,,,,0,,,84,0
35640,note_on,0,0,1,,,,,,,,,0,,,79,0
35640,note_on,0,0,1,,,,,,,,,0,,,77,41
35640,note_on,60,0,6,,,,,,,,,5,,,64,41
35640,note_on,0,0,1,,,,,,,,,0,,,81,41
35700,note_on,0,0,1,,,,,,,,,0,,,77,0
35700,note_on,60,0,4,,,,,,,,,3,,,69,0
35700,note_on,0,0,4,,,,,,,,,3,,,67,49
35700,note_on,0,0,1,,,,,,,,,0,,,79,42
35700,note_on,60,0,1,,,,,,,,,0,,,81,0
35700,note_on,60,0,5,,,,,,,,,4,,,65,0
35700,note_on,0,0,5,,,,,,,,,4,,,64,47
35700,note_on,0,0,1,,,,,,,,,0,,,76,42
35760,note_on,120,0,6,,,,,,,,,5,,,64,0
35760,note_on,60,0,5,,,,,,,,,4,,,64,0
35760,note_on,60,0,1,,,,,,,,,0,,,79,0
35760,note_on,0,0,6,,,,,,,,,5,,,57,41
35760,note_on,0,0,4,,,,,,,,,3,,,65,49
35760,note_on,60,0,4,,,,,,,,,3,,,67,0
35760,note_on,0,0,1,,,,,,,,,0,,,74,44
35760,note_on,0,0,1,,,,,,,,,0,,,76,0
35760,note_on,0,0,1,,,,,,,,,0,,,77,44
35760,note_on,0,0,5,,,,,,,,,4,,,62,48
35820,note_on,0,0,6,,,,,,,,,5,,,55,41
35820,note_on,60,0,1,,,,,,,,,0,,,77,0
35820,note_on,0,0,1,,,,,,,,,0,,,74,0
35820,note_on,0,0,1,,,,,,,,,0,,,72,45
35820,note_on,0,0,1,,,,,,,,,0,,,76,45
35820,note_on,60,0,6,,,,,,,,,5,,,57,0
35820,note_on,180,0,7,,,,,,,,,6,,,53,0
35820,note_on,0,0,4,,,,,,,,,3,,,64,49
35820,note_on,60,0,4,,,,,,,,,3,,,65,0
35820,note_on,180,0,8,,,,,,,,,7,,,53,0
35820,note_on,60,0,5,,,,,,,,,4,,,62,0
35820,note_on,0,0,5,,,,,,,,,4,,,60,48
35820,note_on,0,0,8,,,,,,,,,7,,,55,47
35820,note_on,0,0,7,,,,,,,,,6,,,55,47
35880,note_on,0,0,5,,,,,,,,,4,,,62,48
35880,note_on,60,0,4,,,,,,,,,3,,,64,0
35880,note_on,60,0,1,,,,,,,,,0,,,76,0
35880,note_on,0,0,1,,,,,,,,,0,,,72,0
35880,note_on,0,0,1,,,,,,,,,0,,,74,46
35880,note_on,0,0,1,,,,,,,,,0,,,77,46
35880,note_on,60,0,5,,,,,,,,,4,,,60,0
35880,note_on,0,0,4,,,,,,,,,3,,,65,49
35940,note_on,60,0,5,,,,,,,,,4,,,62,0
35940,note_on,0,0,5,,,,,,,,,4,,,59,48
35940,note_on,0,0,6,,,,,,,,,5,,,53,41
35940,note_on,120,0,6,,,,,,,,,5,,,55,0
35940,note_on,60,0,1,,,,,,,,,0,,,77,0
35940,note_on,0,0,1,,,,,,,,,0,,,74,0
35940,note_on,0,0,1,,,,,,,,,0,,,74,47
35940,note_on,0,0,4,,,,,,,,,3,,,62,49
35940,note_on,0,0,1,,,,,,,,,0,,,71,47
35940,note_on,60,0,4,,,,,,,,,3,,,65,0
36000,note_on,0,0,6,,,,,,,,,5,,,52,100
36000,note_on,60,0,6,,,,,,,,,5,,,53,0
36000,note_on,0,0,8,,,,,,,,,7,,,60,100
36000,note_on,0,0,5,,,,,,,,,4,,,60,100
36000,note_on,60,0,5,,,,,,,,,4,,,59,0
36000,note_on,0,0,1,,,,,,,,,0,,,72,100
36000,note_on,0,0,1,,,,,,,,,0,,,71,0
36000,note_on,60,0,1,,,,,,,,,0,,,74,0
36000,note_on,180,0,7,,,,,,,,,6,,,55,0
36000,note_on,0,0,7,,,,,,,,,6,,,48,100
36000,note_on,0,0,7,,,,,,,,,6,,,60,100
36000,note_on,180,0,8,,,,,,,,,7,,,55,0
36000,note_on,3120,0,3,,,,,,,,,2,,,60,100
36000,note_on,0,0,8,,,,,,,,,7,,,48,100
36000,note_on,0,0,3,,,,,,,,,2,,,72,100
36000,note_on,60,0,4,,,,,,,,,3,,,62,0
36000,note_on,0,0,4,,,,,,,,,3,,,60,100
36060,note_on,60,0,6,,,,,,,,,5,,,52,0
36060,note_on,0,0,6,,,,,,,,,5,,,52,100
36060,note_on,0,0,7,,,,,,,,,6,,,48,100
36060,note_on,0,0,7,,,,,,,,,6,,,60,100
36060,note_on,0,0,7,,,,,,,,,6,,,48,0
36060,note_on,60,0,7,,,,,,,,,6,,,60,0
36060,note_on,60,0,8,,,,,,,,,7,,,60,0
36060,note_on,0,0,8,,,,,,,,,7,,,60,100
36060,note_on,0,0,8,,,,,,,,,7,,,48,100
36060,note_on,0,0,8,,,,,,,,,7,,,48,0
36120,note_on,120,0,4,,,,,,,,,3,,,60,0
36120,note_on,120,0,3,,,,,,,,,2,,,72,0
36120,note_on,0,0,1,,,,,,,,,0,,,76,100
36120,note_on,0,0,5,,,,,,,,,4,,,76,100
36120,note_on,60,0,6,,,,,,,,,5,,,52,0
36120,note_on,480,0,2,,,,,,,,,1,,,72,101
36120,note_on,0,0,1,,,,,,,,,0,,,72,100
36120,note_on,0,0,6,,,,,,,,,5,,,52,100
36120,note_on,120,0,5,,,,,,,,,4,,,60,0
36120,note_on,0,0,2,,,,,,,,,1,,,76,101
36120,note_on,120,0,1,,,,,,,,,0,,,72,0
36120,note_on,0,0,7,,,,,,,,,6,,,48,100
36120,note_on,0,0,7,,,,,,,,,6,,,60,100
36120,note_on,0,0,7,,,,,,,,,6,,,60,0
36120,note_on,0,0,8,,,,,,,,,7,,,48,100
36120,note_on,0,0,8,,,,,,,,,7,,,60,100
36120,note_on,60,0,7,,,,,,,,,6,,,48,0
36120,note_on,0,0,3,,,,,,,,,2,,,60,0
36120,note_on,60,0,8,,,,,,,,,7,,,48,0
36120,note_on,0,0,4,,,,,,,,,3,,,84,100
36120,note_on,0,0,8,,,,,,,,,7,,,60,0
36180,note_on,0,0,8,,,,,,,,,7,,,52,100
36180,note_on,60,0,1,,,,,,,,,0,,,72,0
36180,note_on,0,0,1,,,,,,,,,0,,,76,0
36180,note_on,0,0,1,,,,,,,,,0,,,72,100
36180,note_on,0,0,1,,,,,,,,,0,,,76,100
36180,note_on,60,0,8,,,,,,,,,7,,,48,0
36180,note_on,0,0,8,,,,,,,,,7,,,60,0
36180,note_on,0,0,2,,,,,,,,,1,,,76,101
36180,note_on,0,0,2,,,,,,,,,1,,,72,101
36180,note_on,0,0,6,,,,,,,,,5,,,67,100
36180,note_on,60,0,2,,,,,,,,,1,,,76,0
36180,note_on,60,0,4,,,,,,,,,3,,,84,0
36180,note_on,0,0,4,,,,,,,,,3,,,84,100
36180,note_on,0,0,7,,,,,,,,,6,,,64,100
36180,note_on,0,0,7,,,,,,,,,6,,,52,100
36180,note_on,0,0,7,,,,,,,,,6,,,60,0
36180,note_on,0,0,2,,,,,,,,,1,,,72,0
36180,note_on,60,0,5,,,,,,,,,4,,,76,0
36180,note_on,0,0,5,,,,,,,,,4,,,76,100
36180,note_on,60,0,7,,,,,,,,,6,,,48,0
36180,note_on,0,0,8,,,,,,,,,7,,,64,100
36180,note_on,60,0,6,,,,,,,,,5,,,52,0
36240,note_on,0,0,8,,,,,,,,,7,,,52,0
36240,note_on,0,0,8,,,,,,,,,7,,,52,100
36240,note_on,0,0,8,,,,,,,,,7,,,64,100
36240,note_on,60,0,2,,,,,,,,,1,,,76,0
36240,note_on,60,0,4,,,,,,,,,3,,,84,0
36240,note_on,0,0,4,,,,,,,,,3,,,84,100
36240,note_on,0,0,7,,,,,,,,,6,,,64,100
36240,note_on,0,0,7,,,,,,,,,6,,,52,100
36240,note_on,0,0,7,,,,,,,,,6,,,52,0
36240,note_on,60,0,7,,,,,,,,,6,,,64,0
36240,note_on,0,0,2,,,,,,,,,1,,,72,101
36240,note_on,0,0,2,,,,,,,,,1,,,72,0
36240,note_on,0,0,6,,,,,,,,,5,,,67,100
36240,note_on,0,0,5,,,,,,,,,4,,,76,100
36240,note_on,60,0,1,,,,,,,,,0,,,76,0
36240,note_on,60,0,8,,,,,,,,,7,,,64,0
36240,note_on,0,0,1,,,,,,,,,0,,,72,0
36240,note_on,0,0,1,,,,,,,,,0,,,76,100
36240,note_on,60,0,6,,,,,,,,,5,,,67,0
36240,note_on,0,0,1,,,,,,,,,0,,,72,100
36240,note_on,0,0,2,,,,,,,,,1,,,76,101
36240,note_on,60,0,5,,,,,,,,,4,,,76,0
36300,note_on,0,0,2,,,,,,,,,1,,,72,101
36300,note_on,0,0,7,,,,,,,,,6,,,52,100
36300,note_on,0,0,2,,,,,,,,,1,,,72,0
36300,note_on,0,0,2,,,,,,,,,1,,,76,101
36300,note_on,60,0,6,,,,,,,,,5,,,67,0
36300,note_on,60,0,7,,,,,,,,,6,,,64,0
36300,note_on,0,0,6,,,,,,,,,5,,,67,100
36300,note_on,0,0,7,,,,,,,,,6,,,64,100
36300,note_on,0,0,8,,,,,,,,,7,,,52,0
36300,note_on,0,0,1,,,,,,,,,0,,,72,100
36300,note_on,60,0,1,,,,,,,,,0,,,72,0
36300,note_on,60,0,8,,,,,,,,,7,,,64,0
36300,note_on,0,0,5,,,,,,,,,4,,,76,100
36300,note_on,60,0,5,,,,,,,,,4,,,76,0
36300,note_on,60,0,2,,,,,,,,,1,,,76,0
36300,note_on,0,0,1,,,,,,,,,0,,,76,100
36300,note_on,0,0,7,,,,,,,,,6,,,52,0
36300,note_on,0,0,4,,,,,,,,,3,,,84,100
36300,note_on,60,0,4,,,,,,,,,3,,,84,0
36300,note_on,0,0,8,,,,,,,,,7,,,52,100
36300,note_on,0,0,8,,,,,,,,,7,,,64,100
36300,note_on,0,0,1,,,,,,,,,0,,,76,0
36360,note_on,0,0,7,,,,,,,,,6,,,64,0
36360,note_on,0,0,1,,,,,,,,,0,,,76,100
36360,note_on,0,0,7,,,,,,,,,6,,,53,100
36360,note_on,0,0,7,,,,,,,,,6,,,41,100
36360,note_on,0,0,4,,,,,,,,,3,,,84,100
36360,note_on,60,0,4,,,,,,,,,3,,,84,0
36360,note_on,0,0,6,,,,,,,,,5,,,69,100
36360,note_on,60,0,6,,,,,,,,,5,,,67,0
36360,note_on,60,0,5,,,,,,,,,4,,,76,0
36360,note_on,60,0,7,,,,,,,,,6,,,52,0
36360,note_on,0,0,5,,,,,,,,,4,,,76,100
36360,note_on,0,0,8,,,,,,,,,7,,,64,0
36360,note_on,60,0,1,,,,,,,,,0,,,72,0
36360,note_on,0,0,3,,,,,,,,,2,,,72,100
36360,note_on,240,0,3,,,,,,,,,2,,,60,100
36360,note_on,0,0,8,,,,,,,,,7,,,53,100
36360,note_on,0,0,8,,,,,,,,,7,,,41,100
36360,note_on,0,0,1,,,,,,,,,0,,,72,100
36360,note_on,0,0,1,,,,,,,,,0,,,76,0
36360,note_on,60,0,8,,,,,,,,,7,,,52,0
36360,note_on,0,0,2,,,,,,,,,1,,,72,0
36360,note_on,60,0,2,,,,,,,,,1,,,76,0
36360,note_on,0,0,2,,,,,,,,,1,,,76,100
36360,note_on,0,0,2,,,,,,,,,1,,,72,100
36365,note_on,0,0,4,,,,,,,,,3,,,86,100
36365,note_on,5,0,5,,,,,,,,,4,,,76,0
36365,note_on,0,0,5,,,,,,,,,4,,,77,100
36365,note_on,5,0,4,,,,,,,,,3,,,84,0
36370,note_on,0,0,4,,,,,,,,,3,,,84,100
36370,note_on,5,0,5,,,,,,,,,4,,,77,0
36370,note_on,0,0,5,,,,,,,,,4,,,76,100
36370,note_on,5,0,4,,,,,,,,,3,,,86,0
36375,note_on,5,0,5,,,,,,,,,4,,,76,0
36375,note_on,0,0,5,,,,,,,,,4,,,74,100
36375,note_on,5,0,4,,,,,,,,,3,,,84,0
36375,note_on,0,0,4,,,,,,,,,3,,,83,100
36390,note_on,0,0,4,,,,,,,,,3,,,84,100
36390,note_on,15,0,5,,,,,,,,,4,,,74,0
36390,note_on,0,0,5,,,,,,,,,4,,,76,100
36390,note_on,15,0,4,,,,,,,,,3,,,83,0
36420,note_on,30,0,5,,,,,,,,,4,,,76,0
36420,note_on,60,0,7,,,,,,,,,6,,,53,0
36420,note_on,0,0,7,,,,,,,,,6,,,41,100
36420,note_on,0,0,7,,,,,,,,,6,,,53,100
36420,note_on,0,0,7,,,,,,,,,6,,,41,0
36420,note_on,60,0,8,,,,,,,,,7,,,53,0
36420,note_on,0,0,8,,,,,,,,,7,,,41,0
36420,note_on,0,0,8,,,,,,,,,7,,,41,100
36420,note_on,0,0,6,,,,,,,,,5,,,69,100
36420,note_on,60,0,6,,,,,,,,,5,,,69,0
36420,note_on,30,0,4,,,,,,,,,3,,,84,0
36420,note_on,0,0,8,,,,,,,,,7,,,53,100
36480,note_on,0,0,7,,,,,,,,,6,,,41,100
36480,note_on,0,0,7,,,,,,,,,6,,,53,100
36480,note_on,0,0,7,,,,,,,,,6,,,53,0
36480,note_on,60,0,7,,,,,,,,,6,,,41,0
36480,note_on,120,0,3,,,,,,,,,2,,,72,0
36480,note_on,0,0,6,,,,,,,,,5,,,69,100
36480,note_on,60,0,6,,,,,,,,,5,,,69,0
36480,note_on,60,0,8,,,,,,,,,7,,,41,0
36480,note_on,0,0,3,,,,,,,,,2,,,60,0
36480,note_on,0,0,8,,,,,,,,,7,,,53,0
36480,note_on,0,0,8,,,,,,,,,7,,,53,100
36480,note_on,0,0,8,,,,,,,,,7,,,41,100
36540,note_on,0,0,7,,,,,,,,,6,,,55,100
36540,note_on,60,0,7,,,,,,,,,6,,,41,0
36540,note_on,120,0,5,,,,,,,,,4,,,76,100
36540,note_on,0,0,7,,,,,,,,,6,,,53,0
36540,note_on,60,0,8,,,,,,,,,7,,,41,0
36540,note_on,120,0,4,,,,,,,,,3,,,84,100
36540,note_on,0,0,8,,,,,,,,,7,,,55,100
36540,note_on,0,0,8,,,,,,,,,7,,,43,100
36540,note_on,0,0,7,,,,,,,,,6,,,43,100
36540,note_on,0,0,6,,,,,,,,,5,,,71,100
36540,note_on,0,0,8,,,,,,,,,7,,,53,0
36540,note_on,60,0,6,,,,,,,,,5,,,69,0
36545,note_on,0,0,4,,,,,,,,,3,,,86,100
36545,note_on,5,0,5,,,,,,,,,4,,,76,0
36545,note_on,0,0,5,,,,,,,,,4,,,77,100
36545,note_on,5,0,4,,,,,,,,,3,,,84,0
36550,note_on,5,0,5,,,,,,,,,4,,,77,0
36550,note_on,0,0,4,,,,,,,,,3,,,84,100
36550,note_on,5,0,4,,,,,,,,,3,,,86,0
36550,note_on,0,0,5,,,,,,,,,4,,,76,100
36555,note_on,5,0,5,,,,,,,,,4,,,76,0
36555,note_on,0,0,4,,,,,,,,,3,,,83,100
36555,note_on,5,0,4,,,,,,,,,3,,,84,0
36555,note_on,0,0,5,,,,,,,,,4,,,74,100
36570,note_on,15,0,5,,,,,,,,,4,,,74,0
36570,note_on,0,0,5,,,,,,,,,4,,,76,100
36570,note_on,0,0,4,,,,,,,,,3,,,84,100
36570,note_on,15,0,4,,,,,,,,,3,,,83,0
36600,note_on,0,0,7,,,,,,,,,6,,,55,0
36600,note_on,0,0,7,,,,,,,,,6,,,55,100
36600,note_on,60,0,7,,,,,,,,,6,,,43,0
36600,note_on,0,0,8,,,,,,,,,7,,,43,100
36600,note_on,0,0,6,,,,,,,,,5,,,71,100
36600,note_on,30,0,5,,,,,,,,,4,,,76,0
36600,note_on,60,0,8,,,,,,,,,7,,,43,0
36600,note_on,0,0,8,,,,,,,,,7,,,55,0
36600,note_on,0,0,8,,,,,,,,,7,,,55,100
36600,note_on,60,0,6,,,,,,,,,5,,,71,0
36600,note_on,30,0,4,,,,,,,,,3,,,84,0
36600,note_on,0,0,7,,,,,,,,,6,,,43,100
36660,note_on,60,0,6,,,,,,,,,5,,,71,0
36660,note_on,60,0,7,,,,,,,,,6,,,43,0
36660,note_on,0,0,6,,,,,,,,,5,,,71,100
36660,note_on,60,0,8,,,,,,,,,7,,,43,0
36660,note_on,0,0,8,,,,,,,,,7,,,55,0
36660,note_on,0,0,8,,,,,,,,,7,,,43,100
36660,note_on,0,0,8,,,,,,,,,7,,,55,100
36660,note_on,0,0,7,,,,,,,,,6,,,55,0
36660,note_on,0,0,7,,,,,,,,,6,,,43,100
36660,note_on,0,0,7,,,,,,,,,6,,,55,100
36720,note_on,60,0,8,,,,,,,,,7,,,55,0
36720,note_on,0,0,8,,,,,,,,,7,,,43,0
36720,note_on,0,0,8,,,,,,,,,7,,,57,100
36720,note_on,0,0,8,,,,,,,,,7,,,45,100
36720,note_on,0,0,7,,,,,,,,,6,,,45,100
36720,note_on,0,0,7,,,,,,,,,6,,,43,0
36720,note_on,240,0,3,,,,,,,,,2,,,60,100
36720,note_on,60,0,7,,,,,,,,,6,,,55,0
36720,note_on,120,0,4,,,,,,,,,3,,,84,100
36720,note_on,120,0,5,,,,,,,,,4,,,76,100
36720,note_on,0,0,6,,,,,,,,,5,,,72,100
36720,note_on,60,0,6,,,,,,,,,5,,,71,0
36720,note_on,0,0,7,,,,,,,,,6,,,57,100
36720,note_on,0,0,3,,,,,,,,,2,,,72,100
36725,note_on,5,0,5,,,,,,,,,4,,,76,0
36725,note_on,0,0,5,,,,,,,,,4,,,77,100
36725,note_on,5,0,4,,,,,,,,,3,,,84,0
36725,note_on,0,0,4,,,,,,,,,3,,,86,100
36730,note_on,5,0,4,,,,,,,,,3,,,86,0
36730,note_on,0,0,4,,,,,,,,,3,,,84,100
36730,note_on,5,0,5,,,,,,,,,4,,,77,0
36730,note_on,0,0,5,,,,,,,,,4,,,76,100
36735,note_on,0,0,4,,,,,,,,,3,,,83,100
36735,note_on,5,0,4,,,,,,,,,3,,,84,0
36735,note_on,5,0,5,,,,,,,,,4,,,76,0
36735,note_on,0,0,5,,,,,,,,,4,,,74,100
36750,note_on,15,0,4,,,,,,,,,3,,,83,0
36750,note_on,0,0,4,,,,,,,,,3,,,84,100
36750,note_on,0,0,5,,,,,,,,,4,,,76,100
36750,note_on,15,0,5,,,,,,,,,4,,,74,0
36780,note_on,0,0,7,,,,,,,,,6,,,57,0
36780,note_on,0,0,7,,,,,,,,,6,,,57,100
36780,note_on,0,0,7,,,,,,,,,6,,,45,100
36780,note_on,60,0,8,,,,,,,,,7,,,45,0
36780,note_on,0,0,8,,,,,,,,,7,,,57,100
36780,note_on,0,0,6,,,,,,,,,5,,,72,100
36780,note_on,60,0,6,,,,,,,,,5,,,72,0
36780,note_on,0,0,8,,,,,,,,,7,,,57,0
36780,note_on,60,0,7,,,,,,,,,6,,,45,0
36780,note_on,0,0,8,,,,,,,,,7,,,45,100
36780,note_on,30,0,5,,,,,,,,,4,,,76,0
36780,note_on,30,0,4,,,,,,,,,3,,,84,0
36840,note_on,60,0,4,,,,,,,,,3,,,84,100
36840,note_on,0,0,8,,,,,,,,,7,,,57,100
36840,note_on,0,0,8,,,,,,,,,7,,,45,100
36840,note_on,0,0,3,,,,,,,,,2,,,60,0
36840,note_on,120,0,3,,,,,,,,,2,,,72,0
36840,note_on,60,0,7,,,,,,,,,6,,,45,0
36840,note_on,480,0,2,,,,,,,,,1,,,76,0
36840,note_on,0,0,7,,,,,,,,,6,,,45,100
36840,note_on,0,0,1,,,,,,,,,0,,,72,0
36840,note_on,0,0,2,,,,,,,,,1,,,76,100
36840,note_on,0,0,2,,,,,,,,,1,,,72,100
36840,note_on,0,0,8,,,,,,,,,7,,,57,0
36840,note_on,60,0,8,,,,,,,,,7,,,45,0
36840,note_on,0,0,2,,,,,,,,,1,,,72,0
36840,note_on,0,0,7,,,,,,,,,6,,,57,0
36840,note_on,0,0,7,,,,,,,,,6,,,57,100
36840,note_on,480,0,1,,,,,,,,,0,,,76,0
36840,note_on,0,0,1,,,,,,,,,0,,,76,100
36840,note_on,60,0,6,,,,,,,,,5,,,72,0
36840,note_on,60,0,5,,,,,,,,,4,,,76,100
36840,note_on,0,0,6,,,,,,,,,5,,,72,100
36840,note_on,0,0,1,,,,,,,,,0,,,72,100
36900,note_on,0,0,6,,,,,,,,,5,,,67,100
36900,note_on,0,0,7,,,,,,,,,6,,,40,100
36900,note_on,0,0,7,,,,,,,,,6,,,52,100
36900,note_on,60,0,2,,,,,,,,,1,,,76,0
36900,note_on,60,0,7,,,,,,,,,6,,,45,0
36900,note_on,0,0,2,,,,,,,,,1,,,76,100
36900,note_on,0,0,1,,,,,,,,,0,,,72,0
36900,note_on,0,0,1,,,,,,,,,0,,,72,100
36900,note_on,0,0,1,,,,,,,,,0,,,76,100
36900,note_on,60,0,1,,,,,,,,,0,,,76,0
36900,note_on,60,0,6,,,,,,,,,5,,,72,0
36900,note_on,0,0,7,,,,,,,,,6,,,57,0
36900,note_on,0,0,2,,,,,,,,,1,,,72,0
36900,note_on,60,0,5,,,,,,,,,4,,,76,0
36900,note_on,60,0,8,,,,,,,,,7,,,45,0
36900,note_on,0,0,8,,,,,,,,,7,,,57,0
36900,note_on,0,0,8,,,,,,,,,7,,,52,100
36900,note_on,0,0,8,,,,,,,,,7,,,40,100
36900,note_on,0,0,2,,,,,,,,,1,,,72,100
36900,note_on,0,0,4,,,,,,,,,3,,,84,100
36900,note_on,60,0,4,,,,,,,,,3,,,84,0
36900,note_on,0,0,5,,,,,,,,,4,,,76,100
36960,note_on,0,0,5,,,,,,,,,4,,,76,100
36960,note_on,60,0,5,,,,,,,,,4,,,76,0
36960,note_on,60,0,6,,,,,,,,,5,,,67,0
36960,note_on,0,0,8,,,,,,,,,7,,,52,100
36960,note_on,0,0,8,,,,,,,,,7,,,52,0
36960,note_on,60,0,8,,,,,,,,,7,,,40,0
36960,note_on,0,0,8,,,,,,,,,7,,,40,100
36960,note_on,0,0,2,,,,,,,,,1,,,72,0
36960,note_on,0,0,7,,,,,,,,,6,,,52,100
36960,note_on,0,0,1,,,,,,,,,0,,,76,100
36960,note_on,60,0,2,,,,,,,,,1,,,76,0
36960,note_on,0,0,1,,,,,,,,,0,,,72,100
36960,note_on,0,0,4,,,,,,,,,3,,,84,100
36960,note_on,60,0,1,,,,,,,,,0,,,76,0
36960,note_on,0,0,2,,,,,,,,,1,,,76,100
36960,note_on,0,0,1,,,,,,,,,0,,,72,0
36960,note_on,0,0,6,,,,,,,,,5,,,67,100
36960,note_on,60,0,7,,,,,,,,,6,,,40,0
36960,note_on,0,0,7,,,,,,,,,6,,,52,0
36960,note_on,0,0,7,,,,,,,,,6,,,40,100
36960,note_on,0,0,2,,,,,,,,,1,,,72,100
36960,note_on,60,0,4,,,,,,,,,3,,,84,0
37020,note_on,0,0,7,,,,,,,,,6,,,40,0
37020,note_on,0,0,7,,,,,,,,,6,,,52,100
37020,note_on,0,0,7,,,,,,,,,6,,,40,100
37020,note_on,0,0,1,,,,,,,,,0,,,76,100
37020,note_on,0,0,1,,,,,,,,,0,,,72,100
37020,note_on,60,0,5,,,,,,,,,4,,,76,0
37020,note_on,0,0,2,,,,,,,,,1,,,72,100
37020,note_on,60,0,7,,,,,,,,,6,,,52,0
37020,note_on,60,0,1,,,,,,,,,0,,,76,0
37020,note_on,0,0,2,,,,,,,,,1,,,72,0
37020,note_on,60,0,2,,,,,,,,,1,,,76,0
37020,note_on,0,0,1,,,,,,,,,0,,,72,0
37020,note_on,0,0,2,,,,,,,,,1,,,76,100
37020,note_on,0,0,5,,,,,,,,,4,,,76,100
37020,note_on,60,0,4,,,,,,,,,3,,,84,0
37020,note_on,0,0,8,,,,,,,,,7,,,40,100
37020,note_on,60,0,6,,,,,,,,,5,,,67,0
37020,note_on,0,0,6,,,,,,,,,5,,,67,100
37020,note_on,0,0,4,,,,,,,,,3,,,84,100
37020,note_on,60,0,8,,,,,,,,,7,,,52,0
37020,note_on,0,0,8,,,,,,,,,7,,,40,0
37020,note_on,0,0,8,,,,,,,,,7,,,52,100
37080,note_on,0,0,8,,,,,,,,,7,,,41,100
37080,note_on,60,0,2,,,,,,,,,1,,,76,0
37080,note_on,0,0,2,,,,,,,,,1,,,72,0
37080,note_on,0,0,2,,,,,,,,,1,,,74,100
37080,note_on,0,0,2,,,,,,,,,1,,,72,100
37080,note_on,0,0,1,,,,,,,,,0,,,72,100
37080,note_on,0,0,1,,,,,,,,,0,,,74,100
37080,note_on,0,0,1,,,,,,,,,0,,,72,0
37080,note_on,60,0,1,,,,,,,,,0,,,76,0
37080,note_on,0,0,6,,,,,,,,,5,,,65,100
37080,note_on,60,0,6,,,,,,,,,5,,,67,0
37080,note_on,0,0,5,,,,,,,,,4,,,72,100
37080,note_on,60,0,5,,,,,,,,,4,,,76,0
37080,note_on,0,0,3,,,,,,,,,2,,,74,100
37080,note_on,240,0,3,,,,,,,,,2,,,72,100
37080,note_on,0,0,8,,,,,,,,,7,,,53,100
37080,note_on,60,0,4,,,,,,,,,3,,,84,0
37080,note_on,0,0,8,,,,,,,,,7,,,52,0
37080,note_on,60,0,8,,,,,,,,,7,,,40,0
37080,note_on,0,0,4,,,,,,,,,3,,,81,100
37080,note_on,60,0,7,,,,,,,,,6,,,40,0
37080,note_on,0,0,7,,,,,,,,,6,,,52,0
37080,note_on,0,0,7,,,,,,,,,6,,,53,100
37080,note_on,0,0,7,,,,,,,,,6,,,41,100
37085,note_on,0,0,4,,,,,,,,,3,,,83,100
37085,note_on,5,0,4,,,,,,,,,3,,,81,0
37085,note_on,5,0,5,,,,,,,,,4,,,72,0
37085,note_on,0,0,5,,,,,,,,,4,,,74,100
37090,note_on,0,0,4,,,,,,,,,3,,,81,100
37090,note_on,5,0,4,,,,,,,,,3,,,83,0
37090,note_on,5,0,5,,,,,,,,,4,,,74,0
37090,note_on,0,0,5,,,,,,,,,4,,,72,100
37095,note_on,0,0,4,,,,,,,,,3,,,79,100
37095,note_on,0,0,5,,,,,,,,,4,,,71,100
37095,note_on,5,0,4,,,,,,,,,3,,,81,0
37095,note_on,5,0,5,,,,,,,,,4,,,72,0
37110,note_on,15,0,4,,,,,,,,,3,,,79,0
37110,note_on,0,0,5,,,,,,,,,4,,,72,100
37110,note_on,0,0,4,,,,,,,,,3,,,81,100
37110,note_on,15,0,5,,,,,,,,,4,,,71,0
37140,note_on,60,0,7,,,,,,,,,6,,,41,0
37140,note_on,0,0,7,,,,,,,,,6,,,53,0
37140,note_on,0,0,7,,,,,,,,,6,,,53,100
37140,note_on,0,0,7,,,,,,,,,6,,,41,100
37140,note_on,30,0,5,,,,,,,,,4,,,72,0
37140,note_on,30,0,4,,,,,,,,,3,,,81,0
37140,note_on,60,0,8,,,,,,,,,7,,,41,0
37140,note_on,0,0,8,,,,,,,,,7,,,53,0
37140,note_on,0,0,6,,,,,,,,,5,,,65,100
37140,note_on,60,0,6,,,,,,,,,5,,,65,0
37140,note_on,0,0,8,,,,,,,,,7,,,53,100
37140,note_on,0,0,8,,,,,,,,,7,,,41,100
37200,note_on,0,0,8,,,,,,,,,7,,,53,0
37200,note_on,0,0,6,,,,,,,,,5,,,65,100
37200,note_on,60,0,6,,,,,,,,,5,,,65,0
37200,note_on,60,0,8,,,,,,,,,7,,,41,0
37200,note_on,0,0,8,,,,,,,,,7,,,41,100
37200,note_on,60,0,7,,,,,,,,,6,,,41,0
37200,note_on,0,0,7,,,,,,,,,6,,,53,0
37200,note_on,0,0,8,,,,,,,,,7,,,53,100
37200,note_on,0,0,7,,,,,,,,,6,,,41,100
37200,note_on,0,0,7,,,,,,,,,6,,,53,100
37260,note_on,120,0,5,,,,,,,,,4,,,71,100
37260,note_on,0,0,3,,,,,,,,,2,,,67,100
37260,note_on,0,0,6,,,,,,,,,5,,,65,100
37260,note_on,60,0,6,,,,,,,,,5,,,65,0
37260,note_on,120,0,4,,,,,,,,,3,,,74,100
37260,note_on,180,0,3,,,,,,,,,2,,,72,0
37260,note_on,0,0,1,,,,,,,,,0,,,71,100
37260,note_on,0,0,7,,,,,,,,,6,,,55,100
37260,note_on,180,0,1,,,,,,,,,0,,,72,0
37260,note_on,60,0,8,,,,,,,,,7,,,41,0
37260,note_on,0,0,8,,,,,,,,,7,,,55,100
37260,note_on,0,0,8,,,,,,,,,7,,,43,100
37260,note_on,0,0,8,,,,,,,,,7,,,53,0
37260,note_on,0,0,7,,,,,,,,,6,,,53,0
37260,note_on,0,0,2,,,,,,,,,1,,,67,100
37260,note_on,0,0,7,,,,,,,,,6,,,43,100
37260,note_on,60,0,7,,,,,,,,,6,,,41,0
37260,note_on,180,0,2,,,,,,,,,1,,,72,0
37265,note_on,0,0,5,,,,,,,,,4,,,72,100
37265,note_on,5,0,4,,,,,,,,,3,,,74,0
37265,note_on,0,0,4,,,,,,,,,3,,,76,100
37265,note_on,5,0,5,,,,,,,,,4,,,71,0
37270,note_on,5,0,4,,,,,,,,,3,,,76,0
37270,note_on,0,0,4,,,,,,,,,3,,,74,100
37270,note_on,5,0,5,,,,,,,,,4,,,72,0
37270,note_on,0,0,5,,,,,,,,,4,,,71,100
37275,note_on,5,0,5,,,,,,,,,4,,,71,0
37275,note_on,5,0,4,,,,,,,,,3,,,74,0
37275,note_on,0,0,4,,,,,,,,,3,,,72,100
37275,note_on,0,0,5,,,,,,,,,4,,,69,100
37290,note_on,15,0,5,,,,,,,,,4,,,69,0
37290,note_on,0,0,5,,,,,,,,,4,,,71,100
37290,note_on,0,0,4,,,,,,,,,3,,,74,100
37290,note_on,15,0,4,,,,,,,,,3,,,72,0
37320,note_on,0,0,7,,,,,,,,,6,,,43,0
37320,note_on,0,0,8,,,,,,,,,7,,,55,100
37320,note_on,0,0,6,,,,,,,,,5,,,65,100
37320,note_on,0,0,8,,,,,,,,,7,,,43,100
37320,note_on,30,0,4,,,,,,,,,3,,,74,0
37320,note_on,60,0,6,,,,,,,,,5,,,65,0
37320,note_on,60,0,7,,,,,,,,,6,,,55,0
37320,note_on,60,0,8,,,,,,,,,7,,,55,0
37320,note_on,0,0,7,,,,,,,,,6,,,55,100
37320,note_on,0,0,8,,,,,,,,,7,,,43,0
37320,note_on,0,0,7,,,,,,,,,6,,,43,100
37320,note_on,30,0,5,,,,,,,,,4,,,71,0
37380,note_on,60,0,7,,,,,,,,,6,,,43,0
37380,note_on,0,0,7,,,,,,,,,6,,,55,0
37380,note_on,0,0,7,,,,,,,,,6,,,55,100
37380,note_on,0,0,6,,,,,,,,,5,,,65,100
37380,note_on,60,0,6,,,,,,,,,5,,,65,0
37380,note_on,0,0,7,,,,,,,,,6,,,43,100
37380,note_on,0,0,8,,,,,,,,,7,,,43,100
37380,note_on,0,0,8,,,,,,,,,7,,,55,0
37380,note_on,60,0,8,,,,,,,,,7,,,43,0
37380,note_on,0,0,8,,,,,,,,,7,,,55,100
37440,note_on,120,0,4,,,,,,,,,3,,,72,100
37440,note_on,60,0,7,,,,,,,,,6,,,43,0
37440,note_on,0,0,7,,,,,,,,,6,,,55,0
37440,note_on,0,0,7,,,,,,,,,6,,,48,100
37440,note_on,0,0,8,,,,,,,,,7,,,36,100
37440,note_on,0,0,3,,,,,,,,,2,,,72,100
37440,note_on,120,0,5,,,,,,,,,4,,,72,100
37440,note_on,180,0,2,,,,,,,,,1,,,67,0
37440,note_on,0,0,2,,,,,,,,,1,,,74,0
37440,note_on,60,0,6,,,,,,,,,5,,,65,0
37440,note_on,0,0,6,,,,,,,,,5,,,64,100
37440,note_on,0,0,2,,,,,,,,,1,,,64,100
37440,note_on,0,0,2,,,,,,,,,1,,,72,100
37440,note_on,0,0,3,,,,,,,,,2,,,64,100
37440,note_on,0,0,7,,,,,,,,,6,,,36,100
37440,note_on,180,0,3,,,,,,,,,2,,,67,0
37440,note_on,0,0,1,,,,,,,,,0,,,72,100
37440,note_on,0,0,1,,,,,,,,,0,,,74,0
37440,note_on,180,0,1,,,,,,,,,0,,,71,0
37440,note_on,60,0,8,,,,,,,,,7,,,43,0
37440,note_on,0,0,8,,,,,,,,,7,,,55,0
37440,note_on,0,0,8,,,,,,,,,7,,,48,100
37440,note_on,0,0,3,,,,,,,,,2,,,74,0
37500,note_on,0,0,7,,,,,,,,,6,,,36,100
37500,note_on,0,0,7,,,,,,,,,6,,,48,0
37500,note_on,0,0,7,,,,,,,,,6,,,48,100
37500,note_on,0,0,6,,,,,,,,,5,,,64,100
37500,note_on,60,0,6,,,,,,,,,5,,,64,0
37500,note_on,60,0,8,,,,,,,,,7,,,36,0
37500,note_on,0,0,8,,,,,,,,,7,,,48,0
37500,note_on,0,0,8,,,,,,,,,7,,,48,100
37500,note_on,0,0,8,,,,,,,,,7,,,36,100
37500,note_on,60,0,7,,,,,,,,,6,,,36,0
37560,note_on,0,0,3,,,,,,,,,2,,,72,0
37560,note_on,120,0,4,,,,,,,,,3,,,72,0
37560,note_on,0,0,4,,,,,,,,,3,,,72,40
37560,note_on,0,0,8,,,,,,,,,7,,,48,40
37560,note_on,0,0,8,,,,,,,,,7,,,36,40
37560,note_on,0,0,8,,,,,,,,,7,,,48,0
37560,note_on,60,0,7,,,,,,,,,6,,,36,0
37560,note_on,0,0,7,,,,,,,,,6,,,36,40
37560,note_on,0,0,7,,,,,,,,,6,,,48,0
37560,note_on,60,0,8,,,,,,,,,7,,,36,0
37560,note_on,120,0,5,,,,,,,,,4,,,72,0
37560,note_on,0,0,5,,,,,,,,,4,,,64,39
37560,note_on,0,0,7,,,,,,,,,6,,,48,40
37560,note_on,120,0,3,,,,,,,,,2,,,64,0
37560,note_on,120,0,2,,,,,,,,,1,,,72,0
37560,note_on,0,0,6,,,,,,,,,5,,,64,42
37560,note_on,60,0,6,,,,,,,,,5,,,64,0
37560,note_on,120,0,1,,,,,,,,,0,,,72,0
37560,note_on,0,0,2,,,,,,,,,1,,,64,0
37620,note_on,0,0,8,,,,,,,,,7,,,40,40
37620,note_on,0,0,8,,,,,,,,,7,,,52,40
37620,note_on,0,0,4,,,,,,,,,3,,,72,40
37620,note_on,60,0,4,,,,,,,,,3,,,72,0
37620,note_on,0,0,5,,,,,,,,,4,,,64,41
37620,note_on,60,0,5,,,,,,,,,4,,,64,0
37620,note_on,60,0,8,,,,,,,,,7,,,48,0
37620,note_on,60,0,7,,,,,,,,,6,,,48,0
37620,note_on,0,0,7,,,,,,,,,6,,,36,0
37620,note_on,0,0,7,,,,,,,,,6,,,40,40
37620,note_on,0,0,7,,,,,,,,,6,,,52,40
37620,note_on,0,0,8,,,,,,,,,7,,,36,0
37620,note_on,60,0,6,,,,,,,,,5,,,64,0
37620,note_on,0,0,6,,,,,,,,,5,,,55,43
37680,note_on,0,0,7,,,,,,,,,6,,,40,0
37680,note_on,60,0,6,,,,,,,,,5,,,55,0
37680,note_on,60,0,8,,,,,,,,,7,,,52,0
37680,note_on,0,0,8,,,,,,,,,7,,,40,0
37680,note_on,0,0,8,,,,,,,,,7,,,52,40
37680,note_on,0,0,8,,,,,,,,,7,,,40,40
37680,note_on,0,0,6,,,,,,,,,5,,,55,43
37680,note_on,0,0,5,,,,,,,,,4,,,64,41
37680,note_on,0,0,7,,,,,,,,,6,,,52,40
37680,note_on,60,0,5,,,,,,,,,4,,,64,0
37680,note_on,60,0,7,,,,,,,,,6,,,52,0
37680,note_on,0,0,7,,,,,,,,,6,,,40,40
37680,note_on,0,0,4,,,,,,,,,3,,,72,40
37680,note_on,60,0,4,,,,,,,,,3,,,72,0
37740,note_on,0,0,8,,,,,,,,,7,,,52,40
37740,note_on,60,0,6,,,,,,,,,5,,,55,0
37740,note_on,0,0,6,,,,,,,,,5,,,55,43
37740,note_on,60,0,8,,,,,,,,,7,,,40,0
37740,note_on,0,0,8,,,,,,,,,7,,,52,0
37740,note_on,0,0,8,,,,,,,,,7,,,40,40
37740,note_on,0,0,5,,,,,,,,,4,,,64,41
37740,note_on,0,0,7,,,,,,,,,6,,,52,40
37740,note_on,60,0,5,,,,,,,,,4,,,64,0
37740,note_on,0,0,7,,,,,,,,,6,,,40,40
37740,note_on,60,0,4,,,,,,,,,3,,,72,0
37740,note_on,0,0,4,,,,,,,,,3,,,72,40
37740,note_on,60,0,7,,,,,,,,,6,,,40,0
37740,note_on,0,0,7,,,,,,,,,6,,,52,0
37800,note_on,60,0,4,,,,,,,,,3,,,72,0
37800,note_on,0,0,8,,,,,,,,,7,,,53,40
37800,note_on,0,0,8,,,,,,,,,7,,,52,0
37800,note_on,0,0,4,,,,,,,,,3,,,72,40
37800,note_on,60,0,8,,,,,,,,,7,,,40,0
37800,note_on,0,0,5,,,,,,,,,4,,,64,41
37800,note_on,0,0,6,,,,,,,,,5,,,57,43
37800,note_on,0,0,7,,,,,,,,,6,,,52,0
37800,note_on,0,0,7,,,,,,,,,6,,,53,40
37800,note_on,60,0,6,,,,,,,,,5,,,55,0
37800,note_on,60,0,5,,,,,,,,,4,,,64,0
37800,note_on,0,0,8,,,,,,,,,7,,,41,40
37800,note_on,60,0,7,,,,,,,,,6,,,40,0
37800,note_on,0,0,7,,,,,,,,,6,,,41,40
37805,note_on,5,0,5,,,,,,,,,4,,,64,0
37805,note_on,0,0,4,,,,,,,,,3,,,74,40
37805,note_on,5,0,4,,,,,,,,,3,,,72,0
37805,note_on,0,0,5,,,,,,,,,4,,,65,41
37810,note_on,5,0,5,,,,,,,,,4,,,65,0
37810,note_on,0,0,5,,,,,,,,,4,,,64,41
37810,note_on,0,0,4,,,,,,,,,3,,,72,40
37810,note_on,5,0,4,,,,,,,,,3,,,74,0
37815,note_on,5,0,5,,,,,,,,,4,,,64,0
37815,note_on,0,0,5,,,,,,,,,4,,,62,41
37815,note_on,0,0,4,,,,,,,,,3,,,71,40
37815,note_on,5,0,4,,,,,,,,,3,,,72,0
37830,note_on,0,0,5,,,,,,,,,4,,,64,41
37830,note_on,15,0,4,,,,,,,,,3,,,71,0
37830,note_on,0,0,4,,,,,,,,,3,,,72,40
37830,note_on,15,0,5,,,,,,,,,4,,,62,0
37860,note_on,30,0,5,,,,,,,,,4,,,64,0
37860,note_on,60,0,8,,,,,,,,,7,,,41,0
37860,note_on,30,0,4,,,,,,,,,3,,,72,0
37860,note_on,0,0,8,,,,,,,,,7,,,53,40
37860,note_on,0,0,7,,,,,,,,,6,,,41,40
37860,note_on,0,0,7,,,,,,,,,6,,,53,40
37860,note_on,0,0,8,,,,,,,,,7,,,53,0
37860,note_on,0,0,6,,,,,,,,,5,,,57,43
37860,note_on,60,0,6,,,,,,,,,5,,,57,0
37860,note_on,60,0,7,,,,,,,,,6,,,41,0
37860,note_on,0,0,7,,,,,,,,,6,,,53,0
37860,note_on,0,0,8,,,,,,,,,7,,,41,40
37920,note_on,0,0,7,,,,,,,,,6,,,53,0
37920,note_on,0,0,8,,,,,,,,,7,,,41,40
37920,note_on,60,0,6,,,,,,,,,5,,,57,0
37920,note_on,0,0,6,,,,,,,,,5,,,57,43
37920,note_on,0,0,8,,,,,,,,,7,,,53,0
37920,note_on,60,0,8,,,,,,,,,7,,,41,0
37920,note_on,60,0,7,,,,,,,,,6,,,41,0
37920,note_on,0,0,8,,,,,,,,,7,,,53,40
37920,note_on,0,0,7,,,,,,,,,6,,,41,40
37920,note_on,0,0,7,,,,,,,,,6,,,53,40
37980,note_on,120,0,5,,,,,,,,,4,,,64,41
37980,note_on,0,0,7,,,,,,,,,6,,,43,40
37980,note_on,0,0,6,,,,,,,,,5,,,59,43
37980,note_on,0,0,7,,,,,,,,,6,,,41,0
37980,note_on,60,0,7,,,,,,,,,6,,,53,0
37980,note_on,0,0,7,,,,,,,,,6,,,55,40
37980,note_on,0,0,8,,,,,,,,,7,,,43,40
37980,note_on,60,0,6,,,,,,,,,5,,,57,0
37980,note_on,0,0,8,,,,,,,,,7,,,41,0
37980,note_on,60,0,8,,,,,,,,,7,,,53,0
37980,note_on,120,0,4,,,,,,,,,3,,,72,40
37980,note_on,0,0,8,,,,,,,,,7,,,55,40
37985,note_on,0,0,5,,,,,,,,,4,,,65,41
37985,note_on,5,0,4,,,,,,,,,3,,,72,0
37985,note_on,0,0,4,,,,,,,,,3,,,74,40
37985,note_on,5,0,5,,,,,,,,,4,,,64,0
37990,note_on,0,0,5,,,,,,,,,4,,,64,41
37990,note_on,5,0,5,,,,,,,,,4,,,65,0
37990,note_on,0,0,4,,,,,,,,,3,,,72,40
37990,note_on,5,0,4,,,,,,,,,3,,,74,0
37995,note_on,0,0,4,,,,,,,,,3,,,71,40
37995,note_on,5,0,5,,,,,,,,,4,,,64,0
37995,note_on,0,0,5,,,,,,,,,4,,,62,41
37995,note_on,5,0,4,,,,,,,,,3,,,72,0
38010,note_on,15,0,4,,,,,,,,,3,,,71,0
38010,note_on,0,0,4,,,,,,,,,3,,,72,40
38010,note_on,15,0,5,,,,,,,,,4,,,62,0
38010,note_on,0,0,5,,,,,,,,,4,,,64,41
38040,note_on,0,0,6,,,,,,,,,5,,,59,43
38040,note_on,60,0,6,,,,,,,,,5,,,59,0
38040,note_on,0,0,7,,,,,,,,,6,,,43,40
38040,note_on,0,0,7,,,,,,,,,6,,,55,40
38040,note_on,60,0,7,,,,,,,,,6,,,43,0
38040,note_on,0,0,8,,,,,,,,,7,,,55,0
38040,note_on,30,0,4,,,,,,,,,3,,,72,0
38040,note_on,0,0,7,,,,,,,,,6,,,55,0
38040,note_on,0,0,8,,,,,,,,,7,,,43,40
38040,note_on,60,0,8,,,,,,,,,7,,,43,0
38040,note_on,0,0,8,,,,,,,,,7,,,55,40
38040,note_on,30,0,5,,,,,,,,,4,,,64,0
38100,note_on,60,0,6,,,,,,,,,5,,,59,0
38100,note_on,0,0,6,,,,,,,,,5,,,59,43
38100,note_on,0,0,8,,,,,,,,,7,,,43,40
38100,note_on,0,0,8,,,,,,,,,7,,,55,40
38100,note_on,0,0,8,,,,,,,,,7,,,55,0
38100,note_on,60,0,8,,,,,,,,,7,,,43,0
38100,note_on,0,0,7,,,,,,,,,6,,,55,40
38100,note_on,0,0,7,,,,,,,,,6,,,55,0
38100,note_on,60,0,7,,,,,,,,,6,,,43,0
38100,note_on,0,0,7,,,,,,,,,6,,,43,40
38160,note_on,0,0,8,,,,,,,,,7,,,57,40
38160,note_on,0,0,7,,,,,,,,,6,,,45,40
38160,note_on,0,0,7,,,,,,,,,6,,,57,40
38160,note_on,0,0,7,,,,,,,,,6,,,55,0
38160,note_on,60,0,7,,,,,,,,,6,,,43,0
38160,note_on,60,0,6,,,,,,,,,5,,,59,0
38160,note_on,0,0,8,,,,,,,,,7,,,45,40
38160,note_on,0,0,8,,,,,,,,,7,,,55,0
38160,note_on,60,0,8,,,,,,,,,7,,,43,0
38160,note_on,120,0,5,,,,,,,,,4,,,64,41
38160,note_on,120,0,4,,,,,,,,,3,,,72,40
38160,note_on,0,0,6,,,,,,,,,5,,,60,43
38165,note_on,0,0,5,,,,,,,,,4,,,65,41
38165,note_on,5,0,5,,,,,,,,,4,,,64,0
38165,note_on,0,0,4,,,,,,,,,3,,,74,40
38165,note_on,5,0,4,,,,,,,,,3,,,72,0
38170,note_on,0,0,4,,,,,,,,,3,,,72,40
38170,note_on,5,0,4,,,,,,,,,3,,,74,0
38170,note_on,5,0,5,,,,,,,,,4,,,65,0
38170,note_on,0,0,5,,,,,,,,,4,,,64,41
38175,note_on,5,0,4,,,,,,,,,3,,,72,0
38175,note_on,0,0,5,,,,,,,,,4,,,62,41
38175,note_on,0,0,4,,,,,,,,,3,,,71,40
38175,note_on,5,0,5,,,,,,,,,4,,,64,0
38190,note_on,15,0,5,,,,,,,,,4,,,62,0
38190,note_on,15,0,4,,,,,,,,,3,,,71,0
38190,note_on,0,0,4,,,,,,,,,3,,,72,40
38190,note_on,0,0,5,,,,,,,,,4,,,64,41
38220,note_on,0,0,7,,,,,,,,,6,,,57,40
38220,note_on,0,0,7,,,,,,,,,6,,,45,40
38220,note_on,0,0,7,,,,,,,,,6,,,57,0
38220,note_on,60,0,7,,,,,,,,,6,,,45,0
38220,note_on,0,0,6,,,,,,,,,5,,,60,43
38220,note_on,30,0,5,,,,,,,,,4,,,64,0
38220,note_on,60,0,6,,,,,,,,,5,,,60,0
38220,note_on,0,0,8,,,,,,,,,7,,,57,0
38220,note_on,0,0,8,,,,,,,,,7,,,45,40
38220,note_on,0,0,8,,,,,,,,,7,,,57,40
38220,note_on,30,0,4,,,,,,,,,3,,,72,0
38220,note_on,60,0,8,,,,,,,,,7,,,45,0
38280,note_on,60,0,4,,,,,,,,,3,,,72,40
38280,note_on,0,0,7,,,,,,,,,6,,,45,40
38280,note_on,0,0,7,,,,,,,,,6,,,57,40
38280,note_on,0,0,7,,,,,,,,,6,,,45,0
38280,note_on,0,0,8,,,,,,,,,7,,,45,40
38280,note_on,60,0,7,,,,,,,,,6,,,57,0
38280,note_on,0,0,6,,,,,,,,,5,,,60,43
38280,note_on,60,0,6,,,,,,,,,5,,,60,0
38280,note_on,60,0,8,,,,,,,,,7,,,57,0
38280,note_on,0,0,8,,,,,,,,,7,,,45,0
38280,note_on,0,0,8,,,,,,,,,7,,,57,40
38280,note_on,60,0,5,,,,,,,,,4,,,64,41
38340,note_on,0,0,7,,,,,,,,,6,,,40,40
38340,note_on,60,0,7,,,,,,,,,6,,,45,0
38340,note_on,0,0,7,,,,,,,,,6,,,57,0
38340,note_on,0,0,7,,,,,,,,,6,,,52,40
38340,note_on,0,0,8,,,,,,,,,7,,,57,0
38340,note_on,0,0,4,,,,,,,,,3,,,72,40
38340,note_on,0,0,8,,,,,,,,,7,,,52,40
38340,note_on,0,0,8,,,,,,,,,7,,,40,40
38340,note_on,60,0,4,,,,,,,,,3,,,72,0
38340,note_on,0,0,5,,,,,,,,,4,,,64,41
38340,note_on,60,0,5,,,,,,,,,4,,,64,0
38340,note_on,0,0,6,,,,,,,,,5,,,55,43
38340,note_on,60,0,6,,,,,,,,,5,,,60,0
38340,note_on,60,0,8,,,,,,,,,7,,,45,0
38400,note_on,60,0,8,,,,,,,,,7,,,40,0
38400,note_on,0,0,8,,,,,,,,,7,,,52,0
38400,note_on,0,0,8,,,,,,,,,7,,,52,40
38400,note_on,0,0,8,,,,,,,,,7,,,40,40
38400,note_on,0,0,7,,,,,,,,,6,,,40,40
38400,note_on,0,0,7,,,,,,,,,6,,,52,40
38400,note_on,0,0,7,,,,,,,,,6,,,52,0
38400,note_on,0,0,5,,,,,,,,,4,,,64,41
38400,note_on,60,0,7,,,,,,,,,6,,,40,0
38400,note_on,60,0,4,,,,,,,,,3,,,72,0
38400,note_on,0,0,4,,,,,,,,,3,,,72,41
38400,note_on,0,0,6,,,,,,,,,5,,,55,43
38400,note_on,60,0,6,,,,,,,,,5,,,55,0
38400,note_on,60,0,5,,,,,,,,,4,,,64,0
38460,note_on,60,0,6,,,,,,,,,5,,,55,0
38460,note_on,0,0,6,,,,,,,,,5,,,55,43
38460,note_on,0,0,8,,,,,,,,,7,,,40,40
38460,note_on,0,0,8,,,,,,,,,7,,,52,40
38460,note_on,0,0,8,,,,,,,,,7,,,52,0
38460,note_on,60,0,5,,,,,,,,,4,,,64,0
38460,note_on,0,0,5,,,,,,,,,4,,,64,41
38460,note_on,60,0,8,,,,,,,,,7,,,40,0
38460,note_on,0,0,4,,,,,,,,,3,,,72,41
38460,note_on,60,0,7,,,,,,,,,6,,,40,0
38460,note_on,0,0,7,,,,,,,,,6,,,52,0
38460,note_on,60,0,4,,,,,,,,,3,,,72,0
38460,note_on,0,0,7,,,,,,,,,6,,,52,40
38460,note_on,0,0,7,,,,,,,,,6,,,40,40
38520,note_on,0,0,6,,,,,,,,,5,,,62,43
38520,note_on,0,0,8,,,,,,,,,7,,,53,40
38520,note_on,0,0,4,,,,,,,,,3,,,69,41
38520,note_on,60,0,4,,,,,,,,,3,,,72,0
38520,note_on,60,0,6,,,,,,,,,5,,,55,0
38520,note_on,60,0,7,,,,,,,,,6,,,40,0
38520,note_on,0,0,7,,,,,,,,,6,,,41,40
38520,note_on,0,0,7,,,,,,,,,6,,,53,40
38520,note_on,60,0,5,,,,,,,,,4,,,64,0
38520,note_on,0,0,5,,,,,,,,,4,,,60,41
38520,note_on,60,0,8,,,,,,,,,7,,,40,0
38520,note_on,0,0,8,,,,,,,,,7,,,52,0
38520,note_on,0,0,8,,,,,,,,,7,,,41,40
38520,note_on,0,0,7,,,,,,,,,6,,,52,0
38525,note_on,5,0,4,,,,,,,,,3,,,69,0
38525,note_on,0,0,4,,,,,,,,,3,,,71,41
38525,note_on,5,0,5,,,,,,,,,4,,,60,0
38525,note_on,0,0,5,,,,,,,,,4,,,62,41
38530,note_on,5,0,4,,,,,,,,,3,,,71,0
38530,note_on,5,0,5,,,,,,,,,4,,,62,0
38530,note_on,0,0,5,,,,,,,,,4,,,60,41
38530,note_on,0,0,4,,,,,,,,,3,,,69,41
38535,note_on,0,0,5,,,,,,,,,4,,,59,41
38535,note_on,5,0,5,,,,,,,,,4,,,60,0
38535,note_on,0,0,4,,,,,,,,,3,,,67,41
38535,note_on,5,0,4,,,,,,,,,3,,,69,0
38550,note_on,0,0,4,,,,,,,,,3,,,69,41
38550,note_on,15,0,4,,,,,,,,,3,,,67,0
38550,note_on,0,0,5,,,,,,,,,4,,,60,41
38550,note_on,15,0,5,,,,,,,,,4,,,59,0
38580,note_on,0,0,8,,,,,,,,,7,,,41,40
38580,note_on,0,0,8,,,,,,,,,7,,,53,40
38580,note_on,0,0,8,,,,,,,,,7,,,41,0
38580,note_on,60,0,7,,,,,,,,,6,,,53,0
38580,note_on,30,0,4,,,,,,,,,3,,,69,0
38580,note_on,0,0,7,,,,,,,,,6,,,41,0
38580,note_on,0,0,7,,,,,,,,,6,,,53,40
38580,note_on,30,0,5,,,,,,,,,4,,,60,0
38580,note_on,60,0,8,,,,,,,,,7,,,53,0
38580,note_on,0,0,7,,,,,,,,,6,,,41,40
38580,note_on,0,0,6,,,,,,,,,5,,,62,43
38580,note_on,60,0,6,,,,,,,,,5,,,62,0
38640,note_on,0,0,6,,,,,,,,,5,,,62,42
38640,note_on,60,0,8,,,,,,,,,7,,,41,0
38640,note_on,0,0,8,,,,,,,,,7,,,41,40
38640,note_on,0,0,8,,,,,,,,,7,,,53,40
38640,note_on,60,0,6,,,,,,,,,5,,,62,0
38640,note_on,0,0,7,,,,,,,,,6,,,41,40
38640,note_on,0,0,7,,,,,,,,,6,,,53,0
38640,note_on,0,0,7,,,,,,,,,6,,,53,40
38640,note_on,0,0,8,,,,,,,,,7,,,53,0
38640,note_on,60,0,7,,,,,,,,,6,,,41,0
38700,note_on,0,0,7,,,,,,,,,6,,,43,40
38700,note_on,60,0,7,,,,,,,,,6,,,41,0
38700,note_on,0,0,8,,,,,,,,,7,,,43,40
38700,note_on,0,0,8,,,,,,,,,7,,,55,40
38700,note_on,0,0,7,,,,,,,,,6,,,55,40
38700,note_on,120,0,5,,,,,,,,,4,,,59,41
38700,note_on,0,0,6,,,,,,,,,5,,,53,42
38700,note_on,60,0,6,,,,,,,,,5,,,62,0
38700,note_on,120,0,4,,,,,,,,,3,,,62,41
38700,note_on,60,0,8,,,,,,,,,7,,,41,0
38700,note_on,0,0,7,,,,,,,,,6,,,53,0
38700,note_on,0,0,8,,,,,,,,,7,,,53,0
38705,note_on,5,0,5,,,,,,,,,4,,,59,0
38705,note_on,0,0,5,,,,,,,,,4,,,60,41
38705,note_on,5,0,4,,,,,,,,,3,,,62,0
38705,note_on,0,0,4,,,,,,,,,3,,,64,41
38710,note_on,5,0,4,,,,,,,,,3,,,64,0
38710,note_on,0,0,4,,,,,,,,,3,,,62,41
38710,note_on,0,0,5,,,,,,,,,4,,,59,41
38710,note_on,5,0,5,,,,,,,,,4,,,60,0
38715,note_on,5,0,5,,,,,,,,,4,,,59,0
38715,note_on,5,0,4,,,,,,,,,3,,,62,0
38715,note_on,0,0,4,,,,,,,,,3,,,60,41
38715,note_on,0,0,5,,,,,,,,,4,,,57,41
38730,note_on,15,0,5,,,,,,,,,4,,,57,0
38730,note_on,0,0,5,,,,,,,,,4,,,59,41
38730,note_on,0,0,4,,,,,,,,,3,,,62,41
38730,note_on,15,0,4,,,,,,,,,3,,,60,0
38760,note_on,60,0,8,,,,,,,,,7,,,43,0
38760,note_on,60,0,7,,,,,,,,,6,,,43,0
38760,note_on,30,0,5,,,,,,,,,4,,,59,0
38760,note_on,0,0,6,,,,,,,,,5,,,53,41
38760,note_on,60,0,6,,,,,,,,,5,,,53,0
38760,note_on,0,0,7,,,,,,,,,6,,,55,0
38760,note_on,0,0,7,,,,,,,,,6,,,55,40
38760,note_on,30,0,4,,,,,,,,,3,,,62,0
38760,note_on,0,0,7,,,,,,,,,6,,,43,40
38760,note_on,0,0,8,,,,,,,,,7,,,43,40
38760,note_on,0,0,8,,,,,,,,,7,,,55,40
38760,note_on,0,0,8,,,,,,,,,7,,,55,0
38820,note_on,60,0,6,,,,,,,,,5,,,53,0
38820,note_on,0,0,8,,,,,,,,,7,,,43,40
38820,note_on,0,0,8,,,,,,,,,7,,,55,40
38820,note_on,60,0,8,,,,,,,,,7,,,43,0
38820,note_on,0,0,8,,,,,,,,,7,,,55,0
38820,note_on,0,0,7,,,,,,,,,6,,,43,40
38820,note_on,0,0,7,,,,,,,,,6,,,55,0
38820,note_on,0,0,6,,,,,,,,,5,,,53,39
38820,note_on,0,0,7,,,,,,,,,6,,,55,40
38820,note_on,60,0,7,,,,,,,,,6,,,43,0
38880,note_on,60,0,7,,,,,,,,,6,,,55,0
38880,note_on,0,0,7,,,,,,,,,6,,,43,0
38880,note_on,0,0,7,,,,,,,,,6,,,48,100
38880,note_on,60,0,8,,,,,,,,,7,,,55,0
38880,note_on,0,0,8,,,,,,,,,7,,,43,0
38880,note_on,0,0,8,,,,,,,,,7,,,48,100
38880,note_on,0,0,2,,,,,,,,,1,,,72,100
38880,note_on,1320,0,1,,,,,,,,,0,,,60,100
38880,note_on,1320,0,3,,,,,,,,,2,,,60,100
38880,note_on,0,0,3,,,,,,,,,2,,,72,100
38880,note_on,0,0,6,,,,,,,,,5,,,52,38
38880,note_on,1320,0,2,,,,,,,,,1,,,64,100
38880,note_on,60,0,6,,,,,,,,,5,,,53,0
38880,note_on,120,0,4,,,,,,,,,3,,,60,100
38880,note_on,120,0,5,,,,,,,,,4,,,60,100
38940,note_on,0,0,5,,,,,,,,,4,,,55,100
38940,note_on,60,0,5,,,,,,,,,4,,,60,0
38940,note_on,60,0,4,,,,,,,,,3,,,60,0
38940,note_on,0,0,4,,,,,,,,,3,,,60,100
38970,note_on,0,0,5,,,,,,,,,4,,,60,100
38970,note_on,30,0,5,,,,,,,,,4,,,55,0
38970,note_on,30,0,4,,,,,,,,,3,,,60,0
38970,note_on,0,0,4,,,,,,,,,3,,,64,100
39000,note_on,0,0,5,,,,,,,,,4,,,64,100
39000,note_on,30,0,4,,,,,,,,,3,,,64,0
39000,note_on,0,0,4,,,,,,,,,3,,,67,100
39000,note_on,120,0,7,,,,,,,,,6,,,48,0
39000,note_on,120,0,8,,,,,,,,,7,,,48,0
39000,note_on,120,0,3,,,,,,,,,2,,,72,0
39000,note_on,0,0,3,,,,,,,,,2,,,60,0
39000,note_on,30,0,5,,,,,,,,,4,,,60,0
39060,note_on,60,0,4,,,,,,,,,3,,,67,0
39060,note_on,60,0,7,,,,,,,,,6,,,60,100
39060,note_on,60,0,8,,,,,,,,,7,,,60,100
39060,note_on,180,0,1,,,,,,,,,0,,,64,100
39060,note_on,60,0,3,,,,,,,,,2,,,60,100
39060,note_on,0,0,3,,,,,,,,,2,,,72,100
39060,note_on,60,0,5,,,,,,,,,4,,,64,0
39060,note_on,0,0,6,,,,,,,,,5,,,55,100
39060,note_on,180,0,6,,,,,,,,,5,,,52,0
39120,note_on,60,0,5,,,,,,,,,4,,,60,100
39120,note_on,60,0,4,,,,,,,,,3,,,64,100
39150,note_on,0,0,5,,,,,,,,,4,,,64,100
39150,note_on,30,0,4,,,,,,,,,3,,,64,0
39150,note_on,30,0,5,,,,,,,,,4,,,60,0
39150,note_on,0,0,4,,,,,,,,,3,,,67,100
39180,note_on,0,0,3,,,,,,,,,2,,,60,0
39180,note_on,120,0,3,,,,,,,,,2,,,72,0
39180,note_on,30,0,4,,,,,,,,,3,,,67,0
39180,note_on,120,0,8,,,,,,,,,7,,,60,0
39180,note_on,120,0,7,,,,,,,,,6,,,60,0
39180,note_on,0,0,5,,,,,,,,,4,,,67,100
39180,note_on,30,0,5,,,,,,,,,4,,,64,0
39180,note_on,0,0,4,,,,,,,,,3,,,72,100
39240,note_on,60,0,8,,,,,,,,,7,,,48,100
39240,note_on,0,0,6,,,,,,,,,5,,,60,100
39240,note_on,180,0,6,,,,,,,,,5,,,55,0
39240,note_on,60,0,3,,,,,,,,,2,,,60,100
39240,note_on,0,0,3,,,,,,,,,2,,,72,100
39240,note_on,60,0,7,,,,,,,,,6,,,48,100
39240,note_on,0,0,1,,,,,,,,,0,,,64,100
39240,note_on,0,0,1,,,,,,,,,0,,,60,0
39240,note_on,0,0,1,,,,,,,,,0,,,67,100
39240,note_on,60,0,4,,,,,,,,,3,,,72,0
39240,note_on,60,0,5,,,,,,,,,4,,,67,0
39240,note_on,180,0,1,,,,,,,,,0,,,64,0
39300,note_on,60,0,4,,,,,,,,,3,,,67,100
39300,note_on,60,0,5,,,,,,,,,4,,,64,100
39330,note_on,0,0,4,,,,,,,,,3,,,72,100
39330,note_on,30,0,4,,,,,,,,,3,,,67,0
39330,note_on,30,0,5,,,,,,,,,4,,,64,0
39330,note_on,0,0,5,,,,,,,,,4,,,67,100
39360,note_on,0,0,4,,,,,,,,,3,,,76,100
39360,note_on,120,0,8,,,,,,,,,7,,,48,0
39360,note_on,120,0,6,,,,,,,,,5,,,60,0
39360,note_on,0,0,5,,,,,,,,,4,,,72,100
39360,note_on,30,0,5,,,,,,,,,4,,,67,0
39360,note_on,30,0,4,,,,,,,,,3,,,72,0
39360,note_on,120,0,7,,,,,,,,,6,,,48,0
39360,note_on,120,0,3,,,,,,,,,2,,,72,0
39360,note_on,0,0,3,,,,,,,,,2,,,60,0
39420,note_on,0,0,1,,,,,,,,,0,,,67,100
39420,note_on,0,0,1,,,,,,,,,0,,,72,100
39420,note_on,0,0,1,,,,,,,,,0,,,64,0
39420,note_on,180,0,1,,,,,,,,,0,,,67,0
39420,note_on,60,0,5,,,,,,,,,4,,,72,0
39420,note_on,60,0,4,,,,,,,,,3,,,76,0
39420,note_on,60,0,3,,,,,,,,,2,,,60,100
39420,note_on,0,0,3,,,,,,,,,2,,,72,100
39420,note_on,60,0,6,,,,,,,,,5,,,64,100
39420,note_on,60,0,7,,,,,,,,,6,,,60,100
39420,note_on,60,0,8,,,,,,,,,7,,,60,100
39480,note_on,60,0,5,,,,,,,,,4,,,67,100
39480,note_on,60,0,4,,,,,,,,,3,,,72,100
39510,note_on,0,0,5,,,,,,,,,4,,,72,100
39510,note_on,30,0,4,,,,,,,,,3,,,72,0
39510,note_on,0,0,4,,,,,,,,,3,,,76,100
39510,note_on,30,0,5,,,,,,,,,4,,,67,0
39540,note_on,0,0,5,,,,,,,,,4,,,76,100
39540,note_on,30,0,4,,,,,,,,,3,,,76,0
39540,note_on,120,0,6,,,,,,,,,5,,,64,0
39540,note_on,30,0,5,,,,,,,,,4,,,72,0
39540,note_on,120,0,7,,,,,,,,,6,,,60,0
39540,note_on,0,0,4,,,,,,,,,3,,,79,100
39540,note_on,120,0,8,,,,,,,,,7,,,60,0
39540,note_on,120,0,3,,,,,,,,,2,,,72,0
39540,note_on,0,0,3,,,,,,,,,2,,,60,0
39600,note_on,60,0,7,,,,,,,,,6,,,48,100
39600,note_on,0,0,1,,,,,,,,,0,,,72,100
39600,note_on,60,0,5,,,,,,,,,4,,,76,0
39600,note_on,60,0,8,,,,,,,,,7,,,48,100
39600,note_on,0,0,1,,,,,,,,,0,,,76,100
39600,note_on,60,0,6,,,,,,,,,5,,,64,100
39600,note_on,0,0,3,,,,,,,,,2,,,72,100
39600,note_on,60,0,3,,,,,,,,,2,,,60,100
39600,note_on,60,0,4,,,,,,,,,3,,,79,0
39600,note_on,0,0,1,,,,,,,,,0,,,72,0
39600,note_on,180,0,1,,,,,,,,,0,,,67,0
39660,note_on,60,0,5,,,,,,,,,4,,,79,100
39660,note_on,60,0,4,,,,,,,,,3,,,84,100
39690,note_on,30,0,5,,,,,,,,,4,,,79,0
39690,note_on,0,0,5,,,,,,,,,4,,,76,100
39690,note_on,0,0,4,,,,,,,,,3,,,79,100
39690,note_on,30,0,4,,,,,,,,,3,,,84,0
39720,note_on,0,0,3,,,,,,,,,2,,,60,0
39720,note_on,0,0,4,,,,,,,,,3,,,76,100
39720,note_on,30,0,4,,,,,,,,,3,,,79,0
39720,note_on,30,0,5,,,,,,,,,4,,,76,0
39720,note_on,0,0,5,,,,,,,,,4,,,72,100
39720,note_on,120,0,6,,,,,,,,,5,,,64,0
39720,note_on,120,0,7,,,,,,,,,6,,,48,0
39720,note_on,120,0,3,,,,,,,,,2,,,72,0
39720,note_on,120,0,8,,,,,,,,,7,,,48,0
39780,note_on,60,0,7,,,,,,,,,6,,,60,100
39780,note_on,60,0,4,,,,,,,,,3,,,76,0
39780,note_on,180,0,1,,,,,,,,,0,,,76,0
39780,note_on,60,0,5,,,,,,,,,4,,,72,0
39780,note_on,60,0,6,,,,,,,,,5,,,60,100
39780,note_on,60,0,8,,,,,,,,,7,,,60,100
39780,note_on,0,0,1,,,,,,,,,0,,,72,0
39780,note_on,60,0,3,,,,,,,,,2,,,60,100
39780,note_on,0,0,3,,,,,,,,,2,,,72,100
39780,note_on,0,0,1,,,,,,,,,0,,,76,100
39780,note_on,0,0,1,,,,,,,,,0,,,79,100
39840,note_on,60,0,5,,,,,,,,,4,,,76,100
39840,note_on,60,0,4,,,,,,,,,3,,,79,100
39870,note_on,30,0,5,,,,,,,,,4,,,76,0
39870,note_on,0,0,5,,,,,,,,,4,,,72,100
39870,note_on,0,0,4,,,,,,,,,3,,,76,100
39870,note_on,30,0,4,,,,,,,,,3,,,79,0
39900,note_on,120,0,7,,,,,,,,,6,,,60,0
39900,note_on,120,0,3,,,,,,,,,2,,,72,0
39900,note_on,0,0,3,,,,,,,,,2,,,60,0
39900,note_on,30,0,4,,,,,,,,,3,,,76,0
39900,note_on,0,0,5,,,,,,,,,4,,,67,100
39900,note_on,30,0,5,,,,,,,,,4,,,72,0
39900,note_on,120,0,8,,,,,,,,,7,,,60,0
39900,note_on,120,0,6,,,,,,,,,5,,,60,0
39900,note_on,0,0,4,,,,,,,,,3,,,72,100
39960,note_on,60,0,3,,,,,,,,,2,,,60,100
39960,note_on,60,0,4,,,,,,,,,3,,,72,0
39960,note_on,0,0,3,,,,,,,,,2,,,72,100
39960,note_on,0,0,1,,,,,,,,,0,,,76,100
39960,note_on,60,0,5,,,,,,,,,4,,,67,0
39960,note_on,180,0,1,,,,,,,,,0,,,79,0
39960,note_on,0,0,1,,,,,,,,,0,,,76,0
39960,note_on,60,0,7,,,,,,,,,6,,,48,100
39960,note_on,0,0,1,,,,,,,,,0,,,72,100
39960,note_on,60,0,6,,,,,,,,,5,,,67,100
39960,note_on,60,0,8,,,,,,,,,7,,,48,100
40020,note_on,60,0,5,,,,,,,,,4,,,72,100
40020,note_on,60,0,4,,,,,,,,,3,,,76,100
40050,note_on,30,0,5,,,,,,,,,4,,,72,0
40050,note_on,0,0,5,,,,,,,,,4,,,67,100
40050,note_on,0,0,4,,,,,,,,,3,,,72,100
40050,note_on,30,0,4,,,,,,,,,3,,,76,0
40080,note_on,120,0,8,,,,,,,,,7,,,48,0
40080,note_on,120,0,6,,,,,,,,,5,,,67,0
40080,note_on,120,0,7,,,,,,,,,6,,,48,0
40080,note_on,0,0,4,,,,,,,,,3,,,67,100
40080,note_on,30,0,5,,,,,,,,,4,,,67,0
40080,note_on,0,0,5,,,,,,,,,4,,,64,100
40080,note_on,120,0,3,,,,,,,,,2,,,72,0
40080,note_on,0,0,3,,,,,,,,,2,,,60,0
40080,note_on,30,0,4,,,,,,,,,3,,,72,0
40140,note_on,60,0,8,,,,,,,,,7,,,60,100
40140,note_on,60,0,7,,,,,,,,,6,,,60,100
40140,note_on,180,0,1,,,,,,,,,0,,,76,0
40140,note_on,0,0,3,,,,,,,,,2,,,72,100
40140,note_on,60,0,5,,,,,,,,,4,,,64,0
40140,note_on,0,0,1,,,,,,,,,0,,,72,0
40140,note_on,60,0,4,,,,,,,,,3,,,67,0
40140,note_on,60,0,3,,,,,,,,,2,,,60,100
40140,note_on,0,0,1,,,,,,,,,0,,,72,100
40140,note_on,60,0,6,,,,,,,,,5,,,64,100
40140,note_on,0,0,1,,,,,,,,,0,,,67,100
40200,note_on,60,0,4,,,,,,,,,3,,,72,100
40200,note_on,60,0,5,,,,,,,,,4,,,67,100
40230,note_on,30,0,4,,,,,,,,,3,,,72,0
40230,note_on,0,0,4,,,,,,,,,3,,,67,100
40230,note_on,0,0,5,,,,,,,,,4,,,64,100
40230,note_on,30,0,5,,,,,,,,,4,,,67,0
40260,note_on,120,0,7,,,,,,,,,6,,,60,0
40260,note_on,0,0,5,,,,,,,,,4,,,60,100
40260,note_on,30,0,5,,,,,,,,,4,,,64,0
40260,note_on,120,0,3,,,,,,,,,2,,,72,0
40260,note_on,0,0,4,,,,,,,,,3,,,64,100
40260,note_on,0,0,3,,,,,,,,,2,,,60,0
40260,note_on,120,0,6,,,,,,,,,5,,,64,0
40260,note_on,120,0,8,,,,,,,,,7,,,60,0
40260,note_on,30,0,4,,,,,,,,,3,,,67,0
40320,note_on,60,0,8,,,,,,,,,7,,,36,100
40320,note_on,60,0,3,,,,,,,,,2,,,60,100
40320,note_on,60,0,6,,,,,,,,,5,,,52,101
40320,note_on,0,0,8,,,,,,,,,7,,,48,100
40320,note_on,0,0,2,,,,,,,,,1,,,72,100
40320,note_on,0,0,5,,,,,,,,,4,,,55,100
40320,note_on,0,0,2,,,,,,,,,1,,,64,0
40320,note_on,1440,0,2,,,,,,,,,1,,,72,0
40320,note_on,0,0,1,,,,,,,,,0,,,64,100
40320,note_on,0,0,1,,,,,,,,,0,,,67,100
40320,note_on,0,0,3,,,,,,,,,2,,,72,100
40320,note_on,180,0,1,,,,,,,,,0,,,72,0
40320,note_on,60,0,5,,,,,,,,,4,,,60,0
40320,note_on,0,0,4,,,,,,,,,3,,,60,100
40320,note_on,60,0,4,,,,,,,,,3,,,64,0
40320,note_on,60,0,7,,,,,,,,,6,,,36,100
40320,note_on,0,0,7,,,,,,,,,6,,,48,100
40320,note_on,0,0,2,,,,,,,,,1,,,64,100
40320,note_on,0,0,1,,,,,,,,,0,,,67,0
40380,note_on,60,0,7,,,,,,,,,6,,,48,0
40380,note_on,0,0,7,,,,,,,,,6,,,36,0
40380,note_on,0,0,7,,,,,,,,,6,,,50,104
40380,note_on,0,0,7,,,,,,,,,6,,,38,104
40380,note_on,0,0,8,,,,,,,,,7,,,36,0
40380,note_on,0,0,8,,,,,,,,,7,,,50,104
40380,note_on,60,0,8,,,,,,,,,7,,,48,0
40380,note_on,60,0,6,,,,,,,,,5,,,52,0
40380,note_on,0,0,6,,,,,,,,,5,,,50,103
40380,note_on,0,0,8,,,,,,,,,7,,,38,104
40440,note_on,0,0,2,,,,,,,,,1,,,64,0
40440,note_on,0,0,7,,,,,,,,,6,,,40,107
40440,note_on,0,0,1,,,,,,,,,0,,,64,0
40440,note_on,120,0,5,,,,,,,,,4,,,55,0
40440,note_on,60,0,8,,,,,,,,,7,,,50,0
40440,note_on,0,0,8,,,,,,,,,7,,,38,0
40440,note_on,0,0,8,,,,,,,,,7,,,40,107
40440,note_on,0,0,3,,,,,,,,,2,,,60,0
40440,note_on,120,0,3,,,,,,,,,2,,,72,0
40440,note_on,120,0,1,,,,,,,,,0,,,67,0
40440,note_on,120,0,2,,,,,,,,,1,,,72,0
40440,note_on,0,0,7,,,,,,,,,6,,,38,0
40440,note_on,60,0,7,,,,,,,,,6,,,50,0
40440,note_on,0,0,7,,,,,,,,,6,,,52,107
40440,note_on,60,0,6,,,,,,,,,5,,,50,0
40440,note_on,0,0,6,,,,,,,,,5,,,52,109
40440,note_on,120,0,4,,,,,,,,,3,,,60,0
40440,note_on,0,0,8,,,,,,,,,7,,,52,107
40500,note_on,60,0,6,,,,,,,,,5,,,52,0
40500,note_on,0,0,8,,,,,,,,,7,,,40,0
40500,note_on,0,0,7,,,,,,,,,6,,,40,0
40500,note_on,0,0,8,,,,,,,,,7,,,53,108
40500,note_on,0,0,7,,,,,,,,,6,,,53,108
40500,note_on,0,0,8,,,,,,,,,7,,,41,108
40500,note_on,60,0,7,,,,,,,,,6,,,52,0
40500,note_on,0,0,7,,,,,,,,,6,,,41,108
40500,note_on,60,0,8,,,,,,,,,7,,,52,0
40500,note_on,0,0,6,,,,,,,,,5,,,53,110
40560,note_on,60,0,6,,,,,,,,,5,,,53,0
40560,note_on,60,0,7,,,,,,,,,6,,,53,0
40560,note_on,0,0,7,,,,,,,,,6,,,41,0
40560,note_on,0,0,6,,,,,,,,,5,,,50,114
40560,note_on,0,0,7,,,,,,,,,6,,,38,116
40560,note_on,0,0,8,,,,,,,,,7,,,50,116
40560,note_on,0,0,7,,,,,,,,,6,,,50,116
40560,note_on,0,0,8,,,,,,,,,7,,,38,116
40560,note_on,0,0,8,,,,,,,,,7,,,41,0
40560,note_on,60,0,8,,,,,,,,,7,,,53,0
40620,note_on,180,0,5,,,,,,,,,4,,,74,127
40620,note_on,0,0,8,,,,,,,,,7,,,55,122
40620,note_on,0,0,8,,,,,,,,,7,,,43,122
40620,note_on,0,0,8,,,,,,,,,7,,,38,0
40620,note_on,60,0,8,,,,,,,,,7,,,50,0
40620,note_on,60,0,6,,,,,,,,,5,,,50,0
40620,note_on,0,0,7,,,,,,,,,6,,,43,122
40620,note_on,180,0,1,,,,,,,,,0,,,71,127
40620,note_on,0,0,7,,,,,,,,,6,,,38,0
40620,note_on,60,0,7,,,,,,,,,6,,,50,0
40620,note_on,180,0,4,,,,,,,,,3,,,67,127
40620,note_on,0,0,4,,,,,,,,,3,,,74,127
40620,note_on,0,0,4,,,,,,,,,3,,,83,127
40620,note_on,0,0,7,,,,,,,,,6,,,55,122
40620,note_on,0,0,2,,,,,,,,,1,,,74,127
40620,note_on,180,0,2,,,,,,,,,1,,,67,127
40620,note_on,0,0,5,,,,,,,,,4,,,67,127
40620,note_on,0,0,6,,,,,,,,,5,,,55,124
40620,note_on,0,0,1,,,,,,,,,0,,,74,127
40680,note_on,0,0,4,,,,,,,,,3,,,76,127
40680,note_on,0,0,8,,,,,,,,,7,,,43,0
40680,note_on,60,0,4,,,,,,,,,3,,,83,0
40680,note_on,0,0,4,,,,,,,,,3,,,67,0
40680,note_on,0,0,4,,,,,,,,,3,,,67,127
40680,note_on,0,0,4,,,,,,,,,3,,,84,127
40680,note_on,60,0,5,,,,,,,,,4,,,67,0
40680,note_on,0,0,5,,,,,,,,,4,,,74,0
40680,note_on,0,0,5,,,,,,,,,4,,,72,127
40680,note_on,0,0,5,,,,,,,,,4,,,76,127
40680,note_on,0,0,8,,,,,,,,,7,,,48,126
40680,note_on,0,0,6,,,,,,,,,5,,,48,127
40680,note_on,60,0,6,,,,,,,,,5,,,55,0
40680,note_on,60,0,8,,,,,,,,,7,,,55,0
40680,note_on,60,0,7,,,,,,,,,6,,,55,0
40680,note_on,0,0,4,,,,,,,,,3,,,74,0
40680,note_on,0,0,7,,,,,,,,,6,,,36,126
40680,note_on,0,0,1,,,,,,,,,0,,,76,127
40680,note_on,0,0,1,,,,,,,,,0,,,72,127
40680,note_on,0,0,1,,,,,,,,,0,,,71,0
40680,note_on,60,0,1,,,,,,,,,0,,,74,0
40680,note_on,60,0,2,,,,,,,,,1,,,74,0
40680,note_on,0,0,2,,,,,,,,,1,,,67,0
40680,note_on,0,0,2,,,,,,,,,1,,,76,127
40680,note_on,0,0,2,,,,,,,,,1,,,72,127
40680,note_on,0,0,7,,,,,,,,,6,,,43,0
40680,note_on,240,0,3,,,,,,,,,2,,,60,125
40680,note_on,0,0,3,,,,,,,,,2,,,72,125
40680,note_on,0,0,8,,,,,,,,,7,,,36,126
40680,note_on,0,0,7,,,,,,,,,6,,,48,126
40740,note_on,0,0,8,,,,,,,,,7,,,36,0
40740,note_on,60,0,8,,,,,,,,,7,,,48,0
40740,note_on,0,0,6,,,,,,,,,5,,,50,127
40740,note_on,60,0,6,,,,,,,,,5,,,48,0
40740,note_on,0,0,8,,,,,,,,,7,,,50,127
40740,note_on,0,0,7,,,,,,,,,6,,,50,127
40740,note_on,0,0,8,,,,,,,,,7,,,38,127
40740,note_on,0,0,7,,,,,,,,,6,,,36,0
40740,note_on,60,0,7,,,,,,,,,6,,,48,0
40740,note_on,0,0,7,,,,,,,,,6,,,38,127
40800,note_on,0,0,7,,,,,,,,,6,,,52,127
40800,note_on,0,0,5,,,,,,,,,4,,,72,0
40800,note_on,0,0,4,,,,,,,,,3,,,76,0
40800,note_on,120,0,4,,,,,,,,,3,,,84,0
40800,note_on,120,0,3,,,,,,,,,2,,,72,0
40800,note_on,0,0,8,,,,,,,,,7,,,52,127
40800,note_on,0,0,8,,,,,,,,,7,,,40,127
40800,note_on,0,0,8,,,,,,,,,7,,,38,0
40800,note_on,60,0,8,,,,,,,,,7,,,50,0
40800,note_on,0,0,3,,,,,,,,,2,,,60,0
40800,note_on,0,0,4,,,,,,,,,3,,,67,0
40800,note_on,120,0,5,,,,,,,,,4,,,76,0
40800,note_on,0,0,7,,,,,,,,,6,,,40,127
40800,note_on,0,0,1,,,,,,,,,0,,,72,0
40800,note_on,0,0,6,,,,,,,,,5,,,52,127
40800,note_on,60,0,6,,,,,,,,,5,,,50,0
40800,note_on,120,0,1,,,,,,,,,0,,,76,0
40800,note_on,0,0,2,,,,,,,,,1,,,76,0
40800,note_on,120,0,2,,,,,,,,,1,,,72,0
40800,note_on,60,0,7,,,,,,,,,6,,,50,0
40800,note_on,0,0,7,,,,,,,,,6,,,38,0
40860,note_on,0,0,7,,,,,,,,,6,,,40,0
40860,note_on,60,0,7,,,,,,,,,6,,,52,0
40860,note_on,0,0,6,,,,,,,,,5,,,53,127
40860,note_on,0,0,8,,,,,,,,,7,,,41,127
40860,note_on,0,0,8,,,,,,,,,7,,,40,0
40860,note_on,60,0,8,,,,,,,,,7,,,52,0
40860,note_on,60,0,6,,,,,,,,,5,,,52,0
40860,note_on,0,0,7,,,,,,,,,6,,,41,127
40860,note_on,0,0,8,,,,,,,,,7,,,53,127
40860,note_on,0,0,7,,,,,,,,,6,,,53,127
40920,note_on,0,0,7,,,,,,,,,6,,,41,0
40920,note_on,0,0,7,,,,,,,,,6,,,38,127
40920,note_on,60,0,7,,,,,,,,,6,,,53,0
40920,note_on,0,0,7,,,,,,,,,6,,,50,127
40920,note_on,60,0,8,,,,,,,,,7,,,53,0
40920,note_on,0,0,8,,,,,,,,,7,,,41,0
40920,note_on,0,0,8,,,,,,,,,7,,,50,127
40920,note_on,0,0,6,,,,,,,,,5,,,50,127
40920,note_on,60,0,6,,,,,,,,,5,,,53,0
40920,note_on,0,0,8,,,,,,,,,7,,,38,127
40980,note_on,0,0,4,,,,,,,,,3,,,83,127
40980,note_on,0,0,4,,,,,,,,,3,,,74,127
40980,note_on,180,0,5,,,,,,,,,4,,,67,127
40980,note_on,60,0,7,,,,,,,,,6,,,50,0
40980,note_on,0,0,8,,,,,,,,,7,,,43,127
40980,note_on,0,0,8,,,,,,,,,7,,,38,0
40980,note_on,60,0,8,,,,,,,,,7,,,50,0
40980,note_on,0,0,2,,,,,,,,,1,,,74,127
40980,note_on,0,0,7,,,,,,,,,6,,,38,0
40980,note_on,180,0,2,,,,,,,,,1,,,67,127
40980,note_on,0,0,5,,,,,,,,,4,,,74,127
40980,note_on,180,0,1,,,,,,,,,0,,,71,127
40980,note_on,0,0,1,,,,,,,,,0,,,74,127
40980,note_on,0,0,7,,,,,,,,,6,,,43,127
40980,note_on,0,0,7,,,,,,,,,6,,,55,127
40980,note_on,0,0,6,,,,,,,,,5,,,55,127
40980,note_on,60,0,6,,,,,,,,,5,,,50,0
40980,note_on,180,0,4,,,,,,,,,3,,,67,127
40980,note_on,0,0,8,,,,,,,,,7,,,55,127
41040,note_on,0,0,8,,,,,,,,,7,,,43,0
41040,note_on,0,0,8,,,,,,,,,7,,,36,127
41040,note_on,0,0,5,,,,,,,,,4,,,76,127
41040,note_on,0,0,8,,,,,,,,,7,,,48,127
41040,note_on,0,0,2,,,,,,,,,1,,,67,0
41040,note_on,0,0,2,,,,,,,,,1,,,64,127
41040,note_on,0,0,2,,,,,,,,,1,,,72,127
41040,note_on,0,0,6,,,,,,,,,5,,,48,127
41040,note_on,60,0,6,,,,,,,,,5,,,55,0
41040,note_on,60,0,8,,,,,,,,,7,,,55,0
41040,note_on,60,0,2,,,,,,,,,1,,,74,0
41040,note_on,0,0,5,,,,,,,,,4,,,72,127
41040,note_on,0,0,7,,,,,,,,,6,,,36,127
41040,note_on,0,0,1,,,,,,,,,0,,,76,127
41040,note_on,0,0,1,,,,,,,,,0,,,72,127
41040,note_on,0,0,1,,,,,,,,,0,,,71,0
41040,note_on,0,0,4,,,,,,,,,3,,,84,127
41040,note_on,0,0,4,,,,,,,,,3,,,76,127
41040,note_on,60,0,1,,,,,,,,,0,,,74,0
41040,note_on,0,0,7,,,,,,,,,6,,,48,127
41040,note_on,240,0,3,,,,,,,,,2,,,60,127
41040,note_on,0,0,3,,,,,,,,,2,,,72,127
41040,note_on,0,0,4,,,,,,,,,3,,,67,0
41040,note_on,0,0,4,,,,,,,,,3,,,74,0
41040,note_on,60,0,4,,,,,,,,,3,,,83,0
41040,note_on,60,0,5,,,,,,,,,4,,,74,0
41040,note_on,0,0,5,,,,,,,,,4,,,67,0
41040,note_on,60,0,7,,,,,,,,,6,,,55,0
41040,note_on,0,0,7,,,,,,,,,6,,,43,0
41040,note_on,0,0,4,,,,,,,,,3,,,67,127
41160,note_on,120,0,2,,,,,,,,,1,,,72,0
41160,note_on,120,0,7,,,,,,,,,6,,,48,0
41160,note_on,120,0,1,,,,,,,,,0,,,76,0
41160,note_on,0,0,1,,,,,,,,,0,,,72,0
41160,note_on,0,0,2,,,,,,,,,1,,,64,0
41160,note_on,0,0,7,,,,,,,,,6,,,36,0
41160,note_on,0,0,4,,,,,,,,,3,,,76,0
41160,note_on,120,0,5,,,,,,,,,4,,,76,0
41160,note_on,120,0,8,,,,,,,,,7,,,48,0
41160,note_on,120,0,3,,,,,,,,,2,,,72,0
41160,note_on,0,0,3,,,,,,,,,2,,,60,0
41160,note_on,120,0,4,,,,,,,,,3,,,84,0
41160,note_on,0,0,5,,,,,,,,,4,,,72,0
41160,note_on,120,0,6,,,,,,,,,5,,,48,0
41160,note_on,0,0,4,,,,,,,,,3,,,67,0
41160,note_on,0,0,8,,,,,,,,,7,,,36,0
41220,note_on,0,0,3,,,,,,,,,2,,,72,127
41220,note_on,60,0,3,,,,,,,,,2,,,60,127
41220,note_on,0,0,4,,,,,,,,,3,,,84,127
41220,note_on,60,0,4,,,,,,,,,3,,,76,127
41220,note_on,60,0,1,,,,,,,,,0,,,76,127
41220,note_on,60,0,8,,,,,,,,,7,,,36,127
41220,note_on,0,0,8,,,,,,,,,7,,,48,127
41220,note_on,0,0,1,,,,,,,,,0,,,79,127
41220,note_on,60,0,7,,,,,,,,,6,,,36,127
41220,note_on,60,0,5,,,,,,,,,4,,,76,127
41220,note_on,0,0,7,,,,,,,,,6,,,48,127
41220,note_on,60,0,6,,,,,,,,,5,,,55,127
41220,note_on,0,0,6,,,,,,,,,5,,,67,127
41220,note_on,60,0,2,,,,,,,,,1,,,64,127
41220,note_on,0,0,2,,,,,,,,,1,,,72,127
41220,note_on,0,0,5,,,,,,,,,4,,,72,127
41340,note_on,0,0,1,,,,,,,,,0,,,76,0
41340,note_on,120,0,1,,,,,,,,,0,,,79,0
41340,note_on,120,0,7,,,,,,,,,6,,,48,0
41340,note_on,0,0,8,,,,,,,,,7,,,36,0
41340,note_on,0,0,2,,,,,,,,,1,,,64,0
41340,note_on,120,0,2,,,,,,,,,1,,,72,0
41340,note_on,120,0,4,,,,,,,,,3,,,84,0
41340,note_on,120,0,5,,,,,,,,,4,,,72,0
41340,note_on,120,0,3,,,,,,,,,2,,,72,0
41340,note_on,0,0,7,,,,,,,,,6,,,36,0
41340,note_on,120,0,6,,,,,,,,,5,,,67,0
41340,note_on,0,0,6,,,,,,,,,5,,,55,0
41340,note_on,120,0,8,,,,,,,,,7,,,48,0
41340,note_on,0,0,5,,,,,,,,,4,,,76,0
41340,note_on,0,0,3,,,,,,,,,2,,,60,0
41340,note_on,0,0,4,,,,,,,,,3,,,76,0
41400,note_on,60,0,8,,,,,,,,,7,,,36,127
41400,note_on,0,0,8,,,,,,,,,7,,,48,127
41400,note_on,0,0,1,,,,,,,,,0,,,76,127
41400,note_on,0,0,6,,,,,,,,,5,,,67,127
41400,note_on,60,0,6,,,,,,,,,5,,,55,127
41400,note_on,0,0,7,,,,,,,,,6,,,48,127
41400,note_on,60,0,7,,,,,,,,,6,,,36,127
41400,note_on,60,0,1,,,,,,,,,0,,,72,127
41400,note_on,60,0,2,,,,,,,,,1,,,72,127
41400,note_on,0,0,2,,,,,,,,,1,,,64,127
41400,note_on,0,0,3,,,,,,,,,2,,,60,127
41400,note_on,0,0,5,,,,,,,,,4,,,72,127
41400,note_on,60,0,5,,,,,,,,,4,,,76,127
41400,note_on,60,0,4,,,,,,,,,3,,,84,127
41400,note_on,0,0,4,,,,,,,,,3,,,76,127
41400,note_on,60,0,3,,,,,,,,,2,,,72,127
41520,note_on,0,0,2,,,,,,,,,1,,,72,0
41520,note_on,120,0,3,,,,,,,,,2,,,60,0
41520,note_on,120,0,2,,,,,,,,,1,,,64,0
41520,note_on,120,0,8,,,,,,,,,7,,,48,0
41520,note_on,0,0,8,,,,,,,,,7,,,36,0
41520,end_of_track,0,1,8,,,,,,,,,,,,,
41520,end_of_track,0,1,2,,,,,,,,,,,,,
41520,note_on,0,0,3,,,,,,,,,2,,,72,0
41520,note_on,120,0,7,,,,,,,,,6,,,48,0
41520,end_of_track,0,1,7,,,,,,,,,,,,,
41520,note_on,0,0,7,,,,,,,,,6,,,36,0
41520,note_on,120,0,1,,,,,,,,,0,,,76,0
41520,note_on,120,0,4,,,,,,,,,3,,,76,0
41520,note_on,0,0,4,,,,,,,,,3,,,84,0
41520,end_of_track,0,1,4,,,,,,,,,,,,,
41520,note_on,120,0,5,,,,,,,,,4,,,72,0
41520,note_on,0,0,5,,,,,,,,,4,,,76,0
41520,end_of_track,0,1,5,,,,,,,,,,,,,
41520,end_of_track,0,1,1,,,,,,,,,,,,,
41520,end_of_track,0,1,6,,,,,,,,,,,,,
41520,note_on,0,0,6,,,,,,,,,5,,,55,0
41520,note_on,120,0,6,,,,,,,,,5,,,67,0
41520,end_of_track,0,1,3,,,,,,,,,,,,,
41520,note_on,0,0,1,,,,,,,,,0,,,72,0
