,note,step,duration,channel,velocity
0,66.0,30.0,30.0,0.0,0.0
1,78.0,30.0,30.0,0.0,0.0
2,74.0,30.0,30.0,0.0,0.0
3,75.0,30.0,30.0,0.0,0.0
4,70.0,90.0,30.0,0.0,0.0
5,71.0,30.0,90.0,0.0,0.0
6,47.0,30.0,180.0,0.0,0.0
7,51.0,0.0,150.0,0.0,0.0
8,54.0,0.0,120.0,0.0,0.0
9,66.0,30.0,30.0,0.0,0.0
10,78.0,30.0,30.0,0.0,0.0
11,74.0,0.0,30.0,0.0,0.0
12,75.0,30.0,30.0,0.0,0.0
13,70.0,90.0,30.0,0.0,0.0
14,59.0,0.0,180.0,0.0,0.0
15,71.0,30.0,90.0,0.0,0.0
16,63.0,0.0,150.0,0.0,0.0
17,66.0,30.0,120.0,0.0,0.0
18,68.0,30.0,30.0,0.0,0.0
19,80.0,30.0,30.0,0.0,0.0
20,75.0,0.0,30.0,0.0,0.0
21,76.0,30.0,30.0,0.0,0.0
22,72.0,90.0,30.0,0.0,0.0
23,73.0,30.0,90.0,0.0,0.0
24,47.0,0.0,180.0,0.0,0.0
25,52.0,0.0,150.0,0.0,0.0
26,56.0,0.0,120.0,0.0,0.0
27,68.0,30.0,30.0,0.0,0.0
28,80.0,30.0,30.0,0.0,0.0
29,75.0,30.0,30.0,0.0,0.0
30,76.0,30.0,30.0,0.0,0.0
31,72.0,90.0,30.0,0.0,0.0
32,59.0,60.0,180.0,0.0,0.0
33,73.0,30.0,90.0,0.0,0.0
34,64.0,0.0,150.0,0.0,0.0
35,68.0,0.0,120.0,0.0,0.0
36,73.0,15.0,30.0,0.0,0.0
37,88.0,30.0,15.0,0.0,0.0
38,87.0,15.0,15.0,0.0,0.0
39,85.0,0.0,90.0,0.0,0.0
40,58.0,30.0,30.0,0.0,0.0
41,61.0,30.0,30.0,0.0,0.0
42,66.0,30.0,30.0,0.0,0.0
43,83.0,0.0,30.0,0.0,0.0
44,82.0,30.0,30.0,0.0,0.0
45,54.0,0.0,30.0,0.0,0.0
46,80.0,30.0,30.0,0.0,0.0
47,61.0,0.0,30.0,0.0,0.0
48,78.0,26.0,30.0,0.0,0.0
49,76.0,4.0,30.0,0.0,0.0
50,64.0,4.0,30.0,0.0,0.0
51,78.0,26.0,15.0,0.0,0.0
52,76.0,30.0,30.0,0.0,0.0
53,59.0,30.0,30.0,0.0,0.0
54,75.0,0.0,60.0,0.0,0.0
55,63.0,30.0,30.0,0.0,0.0
56,66.0,0.0,30.0,0.0,0.0
57,83.0,30.0,30.0,0.0,0.0
58,83.0,30.0,30.0,0.0,0.0
59,73.0,0.0,60.0,0.0,0.0
60,52.0,30.0,30.0,0.0,0.0
61,56.0,30.0,30.0,0.0,0.0
62,80.0,30.0,30.0,0.0,0.0
63,61.0,0.0,30.0,0.0,0.0
64,80.0,30.0,30.0,0.0,0.0
65,71.0,30.0,60.0,0.0,0.0
66,54.0,30.0,30.0,0.0,0.0
67,59.0,0.0,30.0,0.0,0.0
68,78.0,30.0,30.0,0.0,0.0
69,63.0,0.0,30.0,0.0,0.0
70,78.0,30.0,30.0,0.0,0.0
71,64.0,30.0,60.0,0.0,0.0
72,42.0,30.0,30.0,0.0,0.0
73,49.0,0.0,30.0,0.0,0.0
74,70.0,30.0,30.0,0.0,0.0
75,54.0,0.0,30.0,0.0,0.0
76,47.0,30.0,30.0,0.0,0.0
77,63.0,30.0,120.0,0.0,0.0
78,71.0,0.0,120.0,0.0,0.0
79,51.0,30.0,30.0,0.0,0.0
80,54.0,30.0,30.0,0.0,0.0
81,51.0,0.0,30.0,0.0,0.0
82,47.0,30.0,30.0,0.0,0.0
83,51.0,30.0,30.0,0.0,0.0
84,78.0,30.0,60.0,0.0,0.0
85,54.0,30.0,30.0,0.0,0.0
86,51.0,0.0,30.0,0.0,0.0
87,78.0,30.0,30.0,0.0,0.0
88,47.0,0.0,30.0,0.0,0.0
89,51.0,30.0,30.0,0.0,0.0
90,78.0,30.0,30.0,0.0,0.0
91,54.0,0.0,30.0,0.0,0.0
92,51.0,30.0,30.0,0.0,0.0
93,47.0,0.0,30.0,0.0,0.0
94,78.0,30.0,30.0,0.0,0.0
95,51.0,12.0,30.0,0.0,0.0
96,54.0,6.0,30.0,0.0,0.0
97,78.0,12.0,15.0,0.0,0.0
98,80.0,6.0,15.0,0.0,0.0
99,78.0,12.0,15.0,0.0,0.0
100,51.0,30.0,30.0,0.0,0.0
101,77.0,12.0,15.0,0.0,0.0
102,78.0,0.0,15.0,0.0,0.0
103,80.0,30.0,120.0,0.0,0.0
104,49.0,30.0,30.0,0.0,0.0
105,52.0,30.0,30.0,0.0,0.0
106,58.0,30.0,30.0,0.0,0.0
107,52.0,0.0,30.0,0.0,0.0
108,78.0,30.0,60.0,0.0,0.0
109,49.0,30.0,30.0,0.0,0.0
110,52.0,0.0,30.0,0.0,0.0
111,58.0,30.0,30.0,0.0,0.0
112,52.0,30.0,30.0,0.0,0.0
113,49.0,30.0,30.0,0.0,0.0
114,52.0,30.0,30.0,0.0,0.0
115,58.0,15.0,30.0,0.0,0.0
116,78.0,15.0,15.0,0.0,0.0
117,52.0,15.0,30.0,0.0,0.0
118,78.0,15.0,15.0,0.0,0.0
119,49.0,15.0,30.0,0.0,0.0
120,78.0,15.0,15.0,0.0,0.0
121,52.0,15.0,30.0,0.0,0.0
122,78.0,15.0,15.0,0.0,0.0
123,58.0,15.0,30.0,0.0,0.0
124,78.0,15.0,15.0,0.0,0.0
125,52.0,30.0,30.0,0.0,0.0
126,51.0,30.0,30.0,0.0,0.0
127,80.0,30.0,120.0,0.0,0.0
128,54.0,30.0,30.0,0.0,0.0
129,59.0,30.0,30.0,0.0,0.0
130,54.0,0.0,30.0,0.0,0.0
131,78.0,30.0,60.0,0.0,0.0
132,51.0,30.0,30.0,0.0,0.0
133,54.0,0.0,30.0,0.0,0.0
134,59.0,30.0,30.0,0.0,0.0
135,54.0,30.0,30.0,0.0,0.0
136,51.0,30.0,30.0,0.0,0.0
137,54.0,30.0,30.0,0.0,0.0
138,78.0,15.0,90.0,0.0,0.0
139,59.0,30.0,30.0,0.0,0.0
140,54.0,30.0,30.0,0.0,0.0
141,51.0,0.0,30.0,0.0,0.0
142,80.0,15.0,15.0,0.0,0.0
143,54.0,15.0,30.0,0.0,0.0
144,78.0,0.0,15.0,0.0,0.0
145,76.0,15.0,15.0,0.0,0.0
146,59.0,15.0,30.0,0.0,0.0
147,54.0,30.0,30.0,0.0,0.0
148,75.0,15.0,15.0,0.0,0.0
149,52.0,30.0,30.0,0.0,0.0
150,75.0,30.0,60.0,0.0,0.0
151,56.0,0.0,30.0,0.0,0.0
152,73.0,30.0,120.0,0.0,0.0
153,61.0,30.0,30.0,0.0,0.0
154,56.0,30.0,30.0,0.0,0.0
155,53.0,30.0,30.0,0.0,0.0
156,56.0,0.0,30.0,0.0,0.0
157,71.0,10.0,30.0,0.0,0.0
158,61.0,5.0,30.0,0.0,0.0
159,56.0,5.0,30.0,0.0,0.0
160,70.0,10.0,15.0,0.0,0.0
161,71.0,5.0,15.0,0.0,0.0
162,73.0,25.0,15.0,0.0,0.0
163,54.0,30.0,30.0,0.0,0.0
164,71.0,30.0,60.0,0.0,0.0
165,58.0,0.0,30.0,0.0,0.0
166,70.0,30.0,120.0,0.0,0.0
167,61.0,30.0,30.0,0.0,0.0
168,58.0,30.0,30.0,0.0,0.0
169,54.0,30.0,30.0,0.0,0.0
170,58.0,0.0,30.0,0.0,0.0
171,78.0,0.0,60.0,0.0,0.0
172,63.0,30.0,30.0,0.0,0.0
173,58.0,30.0,30.0,0.0,0.0
174,78.0,30.0,60.0,0.0,0.0
175,56.0,30.0,30.0,0.0,0.0
176,59.0,0.0,30.0,0.0,0.0
177,77.0,0.0,120.0,0.0,0.0
178,63.0,30.0,30.0,0.0,0.0
179,59.0,30.0,30.0,0.0,0.0
180,56.0,30.0,30.0,0.0,0.0
181,59.0,30.0,30.0,0.0,0.0
182,75.0,10.0,30.0,0.0,0.0
183,65.0,5.0,30.0,0.0,0.0
184,59.0,5.0,30.0,0.0,0.0
185,73.0,10.0,15.0,0.0,0.0
186,75.0,5.0,15.0,0.0,0.0
187,77.0,25.0,15.0,0.0,0.0
188,58.0,30.0,30.0,0.0,0.0
189,75.0,30.0,60.0,0.0,0.0
190,61.0,0.0,30.0,0.0,0.0
191,65.0,30.0,30.0,0.0,0.0
192,73.0,30.0,120.0,0.0,0.0
193,61.0,30.0,30.0,0.0,0.0
194,58.0,30.0,30.0,0.0,0.0
195,61.0,0.0,30.0,0.0,0.0
196,82.0,0.0,60.0,0.0,0.0
197,66.0,30.0,30.0,0.0,0.0
198,61.0,30.0,30.0,0.0,0.0
199,59.0,30.0,30.0,0.0,0.0
200,82.0,30.0,60.0,0.0,0.0
201,63.0,0.0,30.0,0.0,0.0
202,80.0,30.0,120.0,0.0,0.0
203,68.0,30.0,30.0,0.0,0.0
204,63.0,30.0,30.0,0.0,0.0
205,60.0,30.0,30.0,0.0,0.0
206,63.0,0.0,30.0,0.0,0.0
207,78.0,0.0,60.0,0.0,0.0
208,68.0,30.0,30.0,0.0,0.0
209,63.0,30.0,30.0,0.0,0.0
210,78.0,0.0,60.0,0.0,0.0
211,61.0,30.0,30.0,0.0,0.0
212,68.0,30.0,30.0,0.0,0.0
213,77.0,0.0,120.0,0.0,0.0
214,73.0,30.0,30.0,0.0,0.0
215,68.0,30.0,30.0,0.0,0.0
216,61.0,30.0,30.0,0.0,0.0
217,66.0,30.0,30.0,0.0,0.0
218,72.0,30.0,30.0,0.0,0.0
219,75.0,30.0,60.0,0.0,0.0
220,66.0,0.0,30.0,0.0,0.0
221,75.0,0.0,60.0,0.0,0.0
222,61.0,30.0,30.0,0.0,0.0
223,65.0,30.0,30.0,0.0,0.0
224,73.0,0.0,60.0,0.0,0.0
225,68.0,30.0,30.0,0.0,0.0
226,65.0,30.0,30.0,0.0,0.0
227,61.0,10.0,30.0,0.0,0.0
228,78.0,20.0,20.0,0.0,0.0
229,68.0,20.0,30.0,0.0,0.0
230,80.0,0.0,20.0,0.0,0.0
231,82.0,10.0,20.0,0.0,0.0
232,72.0,10.0,30.0,0.0,0.0
233,80.0,20.0,20.0,0.0,0.0
234,68.0,0.0,30.0,0.0,0.0
235,78.0,30.0,20.0,0.0,0.0
236,61.0,30.0,30.0,0.0,0.0
237,78.0,30.0,60.0,0.0,0.0
238,68.0,0.0,30.0,0.0,0.0
239,77.0,30.0,60.0,0.0,0.0
240,73.0,30.0,30.0,0.0,0.0
241,68.0,0.0,30.0,0.0,0.0
242,61.0,10.0,30.0,0.0,0.0
243,75.0,20.0,20.0,0.0,0.0
244,66.0,20.0,30.0,0.0,0.0
245,77.0,0.0,20.0,0.0,0.0
246,72.0,10.0,30.0,0.0,0.0
247,78.0,10.0,20.0,0.0,0.0
248,77.0,20.0,20.0,0.0,0.0
249,66.0,30.0,30.0,0.0,0.0
250,75.0,0.0,20.0,0.0,0.0
251,75.0,0.0,60.0,0.0,0.0
252,61.0,30.0,30.0,0.0,0.0
253,65.0,30.0,30.0,0.0,0.0
254,68.0,30.0,30.0,0.0,0.0
255,73.0,30.0,60.0,0.0,0.0
256,65.0,0.0,30.0,0.0,0.0
257,61.0,10.0,30.0,0.0,0.0
258,78.0,20.0,20.0,0.0,0.0
259,68.0,20.0,30.0,0.0,0.0
260,80.0,0.0,20.0,0.0,0.0
261,82.0,10.0,20.0,0.0,0.0
262,72.0,10.0,30.0,0.0,0.0
263,80.0,20.0,20.0,0.0,0.0
264,68.0,20.0,30.0,0.0,0.0
265,78.0,0.0,20.0,0.0,0.0
266,61.0,10.0,30.0,0.0,0.0
267,78.0,10.0,20.0,0.0,0.0
268,77.0,20.0,20.0,0.0,0.0
269,68.0,20.0,30.0,0.0,0.0
270,78.0,0.0,20.0,0.0,0.0
271,80.0,10.0,20.0,0.0,0.0
272,73.0,10.0,30.0,0.0,0.0
273,78.0,20.0,20.0,0.0,0.0
274,68.0,20.0,30.0,0.0,0.0
275,77.0,0.0,20.0,0.0,0.0
276,77.0,10.0,20.0,0.0,0.0
277,61.0,10.0,30.0,0.0,0.0
278,75.0,20.0,20.0,0.0,0.0
279,66.0,0.0,30.0,0.0,0.0
280,77.0,20.0,20.0,0.0,0.0
281,72.0,10.0,30.0,0.0,0.0
282,78.0,10.0,20.0,0.0,0.0
283,77.0,20.0,20.0,0.0,0.0
284,66.0,20.0,30.0,0.0,0.0
285,75.0,0.0,20.0,0.0,0.0
286,68.0,0.0,60.0,0.0,0.0
287,61.0,0.0,60.0,0.0,0.0
288,75.0,20.0,20.0,0.0,0.0
289,65.0,0.0,60.0,0.0,0.0
290,73.0,20.0,20.0,0.0,0.0
291,72.0,20.0,20.0,0.0,0.0
292,73.0,20.0,20.0,0.0,0.0
293,75.0,20.0,20.0,0.0,0.0
294,77.0,20.0,20.0,0.0,0.0
295,78.0,20.0,20.0,0.0,0.0
296,79.0,20.0,20.0,0.0,0.0
297,80.0,15.0,20.0,0.0,0.0
298,81.0,15.0,15.0,0.0,0.0
299,82.0,15.0,15.0,0.0,0.0
300,83.0,15.0,15.0,0.0,0.0
301,84.0,60.0,15.0,0.0,0.0
302,85.0,60.0,60.0,0.0,0.0
303,85.0,60.0,60.0,0.0,0.0
304,85.0,60.0,60.0,0.0,0.0
305,85.0,60.0,60.0,0.0,0.0
306,82.0,10.0,90.0,0.0,0.0
307,85.0,0.0,90.0,0.0,0.0
308,42.0,30.0,30.0,0.0,0.0
309,54.0,0.0,30.0,0.0,0.0
310,81.0,80.0,15.0,0.0,0.0
311,84.0,0.0,15.0,0.0,0.0
312,82.0,10.0,90.0,0.0,0.0
313,85.0,0.0,90.0,0.0,0.0
314,54.0,30.0,30.0,0.0,0.0
315,66.0,0.0,30.0,0.0,0.0
316,81.0,80.0,15.0,0.0,0.0
317,84.0,0.0,15.0,0.0,0.0
318,85.0,10.0,90.0,0.0,0.0
319,82.0,0.0,90.0,0.0,0.0
320,66.0,30.0,30.0,0.0,0.0
321,78.0,0.0,30.0,0.0,0.0
322,83.0,50.0,15.0,0.0,0.0
323,80.0,0.0,15.0,0.0,0.0
324,80.0,10.0,30.0,0.0,0.0
325,83.0,0.0,30.0,0.0,0.0
326,78.0,50.0,15.0,0.0,0.0
327,82.0,0.0,15.0,0.0,0.0
328,78.0,10.0,30.0,0.0,0.0
329,82.0,0.0,30.0,0.0,0.0
330,77.0,50.0,15.0,0.0,0.0
331,80.0,0.0,15.0,0.0,0.0
332,80.0,10.0,30.0,0.0,0.0
333,77.0,0.0,30.0,0.0,0.0
334,75.0,50.0,15.0,0.0,0.0
335,78.0,0.0,15.0,0.0,0.0
336,75.0,10.0,30.0,0.0,0.0
337,78.0,0.0,30.0,0.0,0.0
338,73.0,0.0,15.0,0.0,0.0
339,77.0,50.0,15.0,0.0,0.0
340,73.0,10.0,30.0,0.0,0.0
341,77.0,0.0,30.0,0.0,0.0
342,71.0,50.0,15.0,0.0,0.0
343,75.0,0.0,15.0,0.0,0.0
344,71.0,10.0,30.0,0.0,0.0
345,75.0,0.0,30.0,0.0,0.0
346,73.0,0.0,15.0,0.0,0.0
347,70.0,110.0,15.0,0.0,0.0
348,67.0,30.0,120.0,0.0,0.0
349,70.0,0.0,120.0,0.0,0.0
350,37.0,30.0,30.0,0.0,0.0
351,71.0,0.0,60.0,0.0,0.0
352,68.0,30.0,60.0,0.0,0.0
353,37.0,30.0,30.0,0.0,0.0
354,37.0,90.0,30.0,0.0,0.0
355,80.0,10.0,90.0,0.0,0.0
356,83.0,0.0,90.0,0.0,0.0
357,37.0,30.0,30.0,0.0,0.0
358,49.0,0.0,30.0,0.0,0.0
359,79.0,80.0,15.0,0.0,0.0
360,82.0,0.0,15.0,0.0,0.0
361,80.0,10.0,90.0,0.0,0.0
362,83.0,0.0,90.0,0.0,0.0
363,49.0,30.0,30.0,0.0,0.0
364,61.0,0.0,30.0,0.0,0.0
365,79.0,80.0,15.0,0.0,0.0
366,82.0,0.0,15.0,0.0,0.0
367,83.0,0.0,90.0,0.0,0.0
368,80.0,10.0,90.0,0.0,0.0
369,61.0,30.0,30.0,0.0,0.0
370,73.0,0.0,30.0,0.0,0.0
371,78.0,50.0,15.0,0.0,0.0
372,82.0,0.0,15.0,0.0,0.0
373,82.0,0.0,30.0,0.0,0.0
374,78.0,10.0,30.0,0.0,0.0
375,77.0,50.0,15.0,0.0,0.0
376,80.0,0.0,15.0,0.0,0.0
377,77.0,10.0,30.0,0.0,0.0
378,80.0,0.0,30.0,0.0,0.0
379,75.0,50.0,15.0,0.0,0.0
380,78.0,0.0,15.0,0.0,0.0
381,75.0,10.0,30.0,0.0,0.0
382,78.0,0.0,30.0,0.0,0.0
383,77.0,0.0,15.0,0.0,0.0
384,73.0,50.0,15.0,0.0,0.0
385,77.0,10.0,30.0,0.0,0.0
386,73.0,0.0,30.0,0.0,0.0
387,75.0,0.0,15.0,0.0,0.0
388,71.0,50.0,15.0,0.0,0.0
389,71.0,10.0,30.0,0.0,0.0
390,75.0,0.0,30.0,0.0,0.0
391,70.0,0.0,15.0,0.0,0.0
392,73.0,50.0,15.0,0.0,0.0
393,70.0,10.0,30.0,0.0,0.0
394,73.0,0.0,30.0,0.0,0.0
395,68.0,80.0,15.0,0.0,0.0
396,71.0,0.0,15.0,0.0,0.0
397,70.0,0.0,60.0,0.0,0.0
398,66.0,0.0,60.0,0.0,0.0
399,61.0,30.0,30.0,0.0,0.0
400,75.0,30.0,60.0,0.0,0.0
401,70.0,0.0,60.0,0.0,0.0
402,54.0,30.0,30.0,0.0,0.0
403,61.0,0.0,30.0,0.0,0.0
404,73.0,30.0,60.0,0.0,0.0
405,68.0,0.0,60.0,0.0,0.0
406,53.0,30.0,30.0,0.0,0.0
407,61.0,0.0,30.0,0.0,0.0
408,71.0,0.0,60.0,0.0,0.0
409,65.0,0.0,60.0,0.0,0.0
410,49.0,30.0,30.0,0.0,0.0
411,61.0,60.0,30.0,0.0,0.0
412,70.0,30.0,60.0,0.0,0.0
413,66.0,0.0,60.0,0.0,0.0
414,61.0,0.0,30.0,0.0,0.0
415,54.0,30.0,30.0,0.0,0.0
416,75.0,30.0,60.0,0.0,0.0
417,70.0,0.0,60.0,0.0,0.0
418,61.0,0.0,30.0,0.0,0.0
419,73.0,0.0,60.0,0.0,0.0
420,68.0,30.0,60.0,0.0,0.0
421,53.0,30.0,30.0,0.0,0.0
422,61.0,0.0,30.0,0.0,0.0
423,71.0,60.0,60.0,0.0,0.0
424,65.0,0.0,60.0,0.0,0.0
425,49.0,30.0,30.0,0.0,0.0
426,61.0,0.0,30.0,0.0,0.0
427,70.0,30.0,60.0,0.0,0.0
428,54.0,30.0,120.0,0.0,0.0
429,66.0,0.0,30.0,0.0,0.0
430,75.0,0.0,60.0,0.0,0.0
431,70.0,30.0,30.0,0.0,0.0
432,66.0,0.0,30.0,0.0,0.0
433,56.0,0.0,120.0,0.0,0.0
434,73.0,30.0,60.0,0.0,0.0
435,65.0,30.0,30.0,0.0,0.0
436,68.0,0.0,30.0,0.0,0.0
437,72.0,30.0,60.0,0.0,0.0
438,63.0,30.0,30.0,0.0,0.0
439,66.0,0.0,30.0,0.0,0.0
440,61.0,30.0,30.0,0.0,0.0
441,73.0,0.0,30.0,0.0,0.0
442,68.0,30.0,30.0,0.0,0.0
443,71.0,0.0,30.0,0.0,0.0
444,73.0,30.0,30.0,0.0,0.0
445,66.0,30.0,30.0,0.0,0.0
446,70.0,0.0,30.0,0.0,0.0
447,73.0,30.0,30.0,0.0,0.0
448,65.0,0.0,30.0,0.0,0.0
449,68.0,30.0,30.0,0.0,0.0
450,73.0,30.0,30.0,0.0,0.0
451,82.0,30.0,60.0,0.0,0.0
452,66.0,30.0,30.0,0.0,0.0
453,70.0,0.0,30.0,0.0,0.0
454,73.0,0.0,30.0,0.0,0.0
455,87.0,0.0,60.0,0.0,0.0
456,66.0,0.0,30.0,0.0,0.0
457,70.0,30.0,30.0,0.0,0.0
458,73.0,30.0,30.0,0.0,0.0
459,65.0,30.0,30.0,0.0,0.0
460,68.0,0.0,30.0,0.0,0.0
461,85.0,30.0,60.0,0.0,0.0
462,73.0,0.0,30.0,0.0,0.0
463,68.0,0.0,30.0,0.0,0.0
464,77.0,30.0,60.0,0.0,0.0
465,83.0,0.0,60.0,0.0,0.0
466,61.0,30.0,30.0,0.0,0.0
467,73.0,0.0,30.0,0.0,0.0
468,82.0,30.0,60.0,0.0,0.0
469,78.0,0.0,60.0,0.0,0.0
470,66.0,0.0,30.0,0.0,0.0
471,70.0,30.0,30.0,0.0,0.0
472,73.0,0.0,30.0,0.0,0.0
473,66.0,30.0,30.0,0.0,0.0
474,70.0,0.0,30.0,0.0,0.0
475,87.0,30.0,60.0,0.0,0.0
476,73.0,0.0,30.0,0.0,0.0
477,85.0,30.0,60.0,0.0,0.0
478,65.0,0.0,30.0,0.0,0.0
479,68.0,30.0,30.0,0.0,0.0
480,73.0,0.0,30.0,0.0,0.0
481,77.0,0.0,60.0,0.0,0.0
482,61.0,30.0,30.0,0.0,0.0
483,68.0,0.0,30.0,0.0,0.0
484,83.0,30.0,60.0,0.0,0.0
485,73.0,0.0,30.0,0.0,0.0
486,66.0,30.0,30.0,0.0,0.0
487,70.0,0.0,30.0,0.0,0.0
488,82.0,0.0,60.0,0.0,0.0
489,78.0,0.0,30.0,0.0,0.0
490,90.0,30.0,120.0,0.0,0.0
491,71.0,30.0,30.0,0.0,0.0
492,68.0,0.0,30.0,0.0,0.0
493,78.0,30.0,30.0,0.0,0.0
494,73.0,30.0,30.0,0.0,0.0
495,70.0,0.0,30.0,0.0,0.0
496,78.0,0.0,30.0,0.0,0.0
497,90.0,30.0,120.0,0.0,0.0
498,75.0,30.0,30.0,0.0,0.0
499,71.0,0.0,30.0,0.0,0.0
500,78.0,30.0,30.0,0.0,0.0
501,76.0,0.0,30.0,0.0,0.0
502,73.0,30.0,30.0,0.0,0.0
503,78.0,0.0,30.0,0.0,0.0
504,90.0,30.0,30.0,0.0,0.0
505,72.0,0.0,30.0,0.0,0.0
506,75.0,0.0,30.0,0.0,0.0
507,78.0,30.0,30.0,0.0,0.0
508,90.0,30.0,30.0,0.0,0.0
509,73.0,0.0,30.0,0.0,0.0
510,76.0,0.0,30.0,0.0,0.0
511,78.0,30.0,30.0,0.0,0.0
512,90.0,0.0,30.0,0.0,0.0
513,70.0,30.0,30.0,0.0,0.0
514,74.0,0.0,30.0,0.0,0.0
515,78.0,15.0,30.0,0.0,0.0
516,71.0,0.0,60.0,0.0,0.0
517,75.0,15.0,60.0,0.0,0.0
518,87.0,15.0,15.0,0.0,0.0
519,89.0,15.0,15.0,0.0,0.0
520,87.0,15.0,15.0,0.0,0.0
521,86.0,0.0,15.0,0.0,0.0
522,87.0,15.0,15.0,0.0,0.0
523,89.0,15.0,15.0,0.0,0.0
524,90.0,15.0,15.0,0.0,0.0
525,89.0,15.0,15.0,0.0,0.0
526,87.0,15.0,15.0,0.0,0.0
527,78.0,0.0,60.0,0.0,0.0
528,75.0,0.0,60.0,0.0,0.0
529,71.0,0.0,60.0,0.0,0.0
530,89.0,15.0,15.0,0.0,0.0
531,87.0,15.0,15.0,0.0,0.0
532,86.0,15.0,15.0,0.0,0.0
533,87.0,15.0,15.0,0.0,0.0
534,89.0,15.0,15.0,0.0,0.0
535,90.0,15.0,15.0,0.0,0.0
536,89.0,15.0,15.0,0.0,0.0
537,72.0,15.0,60.0,0.0,0.0
538,81.0,0.0,60.0,0.0,0.0
539,90.0,15.0,15.0,0.0,0.0
540,78.0,0.0,60.0,0.0,0.0
541,75.0,0.0,60.0,0.0,0.0
542,92.0,15.0,15.0,0.0,0.0
543,90.0,15.0,15.0,0.0,0.0
544,89.0,0.0,15.0,0.0,0.0
545,90.0,15.0,15.0,0.0,0.0
546,92.0,15.0,15.0,0.0,0.0
547,93.0,15.0,15.0,0.0,0.0
548,92.0,15.0,15.0,0.0,0.0
549,90.0,15.0,15.0,0.0,0.0
550,75.0,0.0,60.0,0.0,0.0
551,78.0,0.0,60.0,0.0,0.0
552,81.0,0.0,60.0,0.0,0.0
553,72.0,15.0,60.0,0.0,0.0
554,92.0,15.0,15.0,0.0,0.0
555,90.0,15.0,15.0,0.0,0.0
556,89.0,0.0,15.0,0.0,0.0
557,90.0,15.0,15.0,0.0,0.0
558,92.0,15.0,15.0,0.0,0.0
559,93.0,15.0,15.0,0.0,0.0
560,92.0,15.0,15.0,0.0,0.0
561,78.0,0.0,60.0,0.0,0.0
562,82.0,15.0,60.0,0.0,0.0
563,90.0,15.0,15.0,0.0,0.0
564,73.0,0.0,60.0,0.0,0.0
565,92.0,15.0,15.0,0.0,0.0
566,90.0,15.0,15.0,0.0,0.0
567,89.0,0.0,15.0,0.0,0.0
568,90.0,15.0,15.0,0.0,0.0
569,89.0,15.0,15.0,0.0,0.0
570,90.0,15.0,15.0,0.0,0.0
571,89.0,15.0,15.0,0.0,0.0
572,90.0,15.0,15.0,0.0,0.0
573,89.0,15.0,15.0,0.0,0.0
574,87.0,15.0,15.0,0.0,0.0
575,85.0,15.0,15.0,0.0,0.0
576,83.0,15.0,15.0,0.0,0.0
577,82.0,15.0,15.0,0.0,0.0
578,80.0,15.0,15.0,0.0,0.0
579,78.0,120.0,15.0,0.0,0.0
580,78.0,120.0,120.0,0.0,0.0
581,82.0,0.0,120.0,0.0,0.0
582,73.0,0.0,120.0,0.0,0.0
583,61.0,0.0,240.0,0.0,0.0
584,77.0,15.0,120.0,0.0,0.0
585,80.0,0.0,120.0,0.0,0.0
586,71.0,0.0,120.0,0.0,0.0
587,66.0,0.0,60.0,0.0,0.0
588,78.0,15.0,15.0,0.0,0.0
589,70.0,15.0,60.0,0.0,0.0
590,80.0,15.0,15.0,0.0,0.0
591,82.0,15.0,15.0,0.0,0.0
592,83.0,0.0,15.0,0.0,0.0
593,85.0,15.0,15.0,0.0,0.0
594,83.0,15.0,15.0,0.0,0.0
595,82.0,15.0,15.0,0.0,0.0
596,80.0,15.0,15.0,0.0,0.0
597,78.0,15.0,15.0,0.0,0.0
598,77.0,15.0,15.0,0.0,0.0
599,75.0,15.0,15.0,0.0,0.0
600,73.0,15.0,15.0,0.0,0.0
601,71.0,15.0,15.0,0.0,0.0
602,70.0,15.0,15.0,0.0,0.0
603,68.0,15.0,15.0,0.0,0.0
604,66.0,120.0,15.0,0.0,0.0
605,66.0,0.0,120.0,0.0,0.0
606,70.0,0.0,120.0,0.0,0.0
607,61.0,120.0,120.0,0.0,0.0
608,49.0,0.0,240.0,0.0,0.0
609,65.0,0.0,120.0,0.0,0.0
610,59.0,30.0,120.0,0.0,0.0
611,68.0,0.0,120.0,0.0,0.0
612,58.0,0.0,60.0,0.0,0.0
613,54.0,30.0,60.0,0.0,0.0
614,66.0,30.0,30.0,0.0,0.0
615,61.0,0.0,30.0,0.0,0.0
616,70.0,30.0,30.0,0.0,0.0
617,66.0,0.0,30.0,0.0,0.0
618,61.0,30.0,30.0,0.0,0.0
619,68.0,30.0,30.0,0.0,0.0
620,71.0,0.0,30.0,0.0,0.0
621,61.0,30.0,30.0,0.0,0.0
622,69.0,30.0,30.0,0.0,0.0
623,72.0,0.0,30.0,0.0,0.0
624,61.0,70.0,30.0,0.0,0.0
625,70.0,0.0,300.0,0.0,0.0
626,73.0,30.0,300.0,0.0,0.0
627,61.0,50.0,40.0,0.0,0.0
628,42.0,10.0,60.0,0.0,0.0
629,61.0,50.0,40.0,0.0,0.0
630,46.0,10.0,60.0,0.0,0.0
631,61.0,50.0,40.0,0.0,0.0
632,49.0,10.0,60.0,0.0,0.0
633,61.0,50.0,40.0,0.0,0.0
634,54.0,60.0,240.0,0.0,0.0
635,61.0,0.0,30.0,0.0,0.0
636,66.0,30.0,30.0,0.0,0.0
637,70.0,30.0,60.0,0.0,0.0
638,61.0,0.0,30.0,0.0,0.0
639,75.0,30.0,60.0,0.0,0.0
640,71.0,30.0,30.0,0.0,0.0
641,61.0,0.0,30.0,0.0,0.0
642,73.0,10.0,60.0,0.0,0.0
643,70.0,30.0,30.0,0.0,0.0
644,61.0,0.0,30.0,0.0,0.0
645,68.0,0.0,300.0,0.0,0.0
646,71.0,0.0,300.0,0.0,0.0
647,61.0,50.0,40.0,0.0,0.0
648,54.0,10.0,60.0,0.0,0.0
649,61.0,50.0,40.0,0.0,0.0
650,53.0,10.0,60.0,0.0,0.0
651,61.0,50.0,40.0,0.0,0.0
652,51.0,10.0,60.0,0.0,0.0
653,61.0,50.0,40.0,0.0,0.0
654,53.0,30.0,120.0,0.0,0.0
655,61.0,30.0,30.0,0.0,0.0
656,71.0,0.0,60.0,0.0,0.0
657,68.0,30.0,30.0,0.0,0.0
658,61.0,0.0,30.0,0.0,0.0
659,73.0,30.0,60.0,0.0,0.0
660,70.0,30.0,30.0,0.0,0.0
661,49.0,60.0,180.0,0.0,0.0
662,61.0,0.0,30.0,0.0,0.0
663,71.0,60.0,60.0,0.0,0.0
664,68.0,30.0,30.0,0.0,0.0
665,61.0,0.0,30.0,0.0,0.0
666,66.0,0.0,300.0,0.0,0.0
667,70.0,0.0,300.0,0.0,0.0
668,61.0,0.0,30.0,0.0,0.0
669,50.0,60.0,60.0,0.0,0.0
670,62.0,0.0,30.0,0.0,0.0
671,51.0,0.0,60.0,0.0,0.0
672,63.0,60.0,30.0,0.0,0.0
673,46.0,0.0,60.0,0.0,0.0
674,58.0,60.0,30.0,0.0,0.0
675,47.0,30.0,60.0,0.0,0.0
676,59.0,0.0,30.0,0.0,0.0
677,68.0,30.0,60.0,0.0,0.0
678,66.0,30.0,30.0,0.0,0.0
679,48.0,0.0,60.0,0.0,0.0
680,60.0,0.0,30.0,0.0,0.0
681,49.0,0.0,180.0,0.0,0.0
682,66.0,30.0,30.0,0.0,0.0
683,68.0,30.0,60.0,0.0,0.0
684,61.0,0.0,30.0,0.0,0.0
685,71.0,0.0,60.0,0.0,0.0
686,65.0,30.0,30.0,0.0,0.0
687,61.0,60.0,30.0,0.0,0.0
688,70.0,0.0,300.0,0.0,0.0
689,66.0,0.0,300.0,0.0,0.0
690,61.0,60.0,30.0,0.0,0.0
691,50.0,0.0,60.0,0.0,0.0
692,62.0,60.0,30.0,0.0,0.0
693,51.0,60.0,60.0,0.0,0.0
694,63.0,0.0,30.0,0.0,0.0
695,46.0,60.0,60.0,0.0,0.0
696,58.0,0.0,30.0,0.0,0.0
697,47.0,30.0,60.0,0.0,0.0
698,59.0,0.0,30.0,0.0,0.0
699,66.0,30.0,30.0,0.0,0.0
700,48.0,0.0,60.0,0.0,0.0
701,68.0,30.0,60.0,0.0,0.0
702,60.0,0.0,30.0,0.0,0.0
703,68.0,30.0,60.0,0.0,0.0
704,66.0,30.0,30.0,0.0,0.0
705,49.0,60.0,180.0,0.0,0.0
706,61.0,0.0,30.0,0.0,0.0
707,71.0,60.0,60.0,0.0,0.0
708,65.0,30.0,30.0,0.0,0.0
709,61.0,0.0,30.0,0.0,0.0
710,70.0,0.0,300.0,0.0,0.0
711,66.0,0.0,300.0,0.0,0.0
712,61.0,0.0,30.0,0.0,0.0
713,50.0,60.0,60.0,0.0,0.0
714,62.0,0.0,30.0,0.0,0.0
715,51.0,0.0,60.0,0.0,0.0
716,63.0,60.0,30.0,0.0,0.0
717,52.0,60.0,60.0,0.0,0.0
718,64.0,0.0,30.0,0.0,0.0
719,51.0,0.0,60.0,0.0,0.0
720,63.0,30.0,30.0,0.0,0.0
721,71.0,0.0,60.0,0.0,0.0
722,68.0,30.0,30.0,0.0,0.0
723,47.0,0.0,60.0,0.0,0.0
724,63.0,30.0,30.0,0.0,0.0
725,70.0,30.0,60.0,0.0,0.0
726,66.0,30.0,30.0,0.0,0.0
727,49.0,0.0,60.0,0.0,0.0
728,61.0,0.0,30.0,0.0,0.0
729,65.0,30.0,30.0,0.0,0.0
730,68.0,30.0,60.0,0.0,0.0
731,37.0,0.0,60.0,0.0,0.0
732,59.0,0.0,30.0,0.0,0.0
733,66.0,30.0,180.0,0.0,0.0
734,58.0,30.0,30.0,0.0,0.0
735,42.0,30.0,480.0,0.0,0.0
736,61.0,30.0,30.0,0.0,0.0
737,58.0,30.0,30.0,0.0,0.0
738,61.0,30.0,30.0,0.0,0.0
739,58.0,30.0,30.0,0.0,0.0
740,61.0,0.0,30.0,0.0,0.0
741,68.0,30.0,60.0,0.0,0.0
742,59.0,30.0,30.0,0.0,0.0
743,54.0,0.0,60.0,0.0,0.0
744,65.0,0.0,30.0,0.0,0.0
745,54.0,0.0,180.0,0.0,0.0
746,70.0,0.0,180.0,0.0,0.0
747,61.0,30.0,30.0,0.0,0.0
748,66.0,30.0,30.0,0.0,0.0
749,61.0,30.0,30.0,0.0,0.0
750,66.0,30.0,30.0,0.0,0.0
751,61.0,30.0,30.0,0.0,0.0
752,66.0,30.0,30.0,0.0,0.0
753,68.0,0.0,60.0,0.0,0.0
754,59.0,30.0,30.0,0.0,0.0
755,54.0,0.0,60.0,0.0,0.0
756,65.0,0.0,30.0,0.0,0.0
757,66.0,30.0,180.0,0.0,0.0
758,58.0,30.0,30.0,0.0,0.0
759,54.0,0.0,180.0,0.0,0.0
760,61.0,30.0,30.0,0.0,0.0
761,58.0,30.0,30.0,0.0,0.0
762,61.0,30.0,30.0,0.0,0.0
763,58.0,30.0,30.0,0.0,0.0
764,61.0,0.0,30.0,0.0,0.0
765,68.0,0.0,60.0,0.0,0.0
766,77.0,0.0,60.0,0.0,0.0
767,59.0,30.0,30.0,0.0,0.0
768,54.0,30.0,120.0,0.0,0.0
769,61.0,30.0,30.0,0.0,0.0
770,66.0,0.0,60.0,0.0,0.0
771,78.0,0.0,60.0,0.0,0.0
772,58.0,30.0,30.0,0.0,0.0
773,61.0,0.0,30.0,0.0,0.0
774,54.0,0.0,120.0,0.0,0.0
775,77.0,0.0,60.0,0.0,0.0
776,59.0,30.0,30.0,0.0,0.0
777,68.0,30.0,60.0,0.0,0.0
778,61.0,0.0,30.0,0.0,0.0
779,58.0,30.0,30.0,0.0,0.0
780,78.0,8.0,60.0,0.0,0.0
781,66.0,0.0,60.0,0.0,0.0
782,61.0,0.0,30.0,0.0,0.0
783,77.0,8.0,15.0,0.0,0.0
784,59.0,2.0,30.0,0.0,0.0
785,54.0,240.0,60.0,0.0,0.0
786,68.0,0.0,60.0,0.0,0.0
787,78.0,8.0,15.0,0.0,0.0
788,77.0,6.0,15.0,0.0,0.0
789,78.0,9.0,15.0,0.0,0.0
790,61.0,0.0,30.0,0.0,0.0
791,77.0,9.0,15.0,0.0,0.0
792,75.0,10.0,15.0,0.0,0.0
793,77.0,0.0,15.0,0.0,0.0
794,80.0,60.0,240.0,0.0,0.0
795,71.0,0.0,240.0,0.0,0.0
796,61.0,0.0,300.0,0.0,0.0
797,65.0,0.0,240.0,0.0,0.0
798,54.0,0.0,300.0,0.0,0.0
799,70.0,0.0,60.0,0.0,0.0
800,78.0,0.0,60.0,0.0,0.0
801,66.0,120.0,60.0,0.0,0.0
802,66.0,30.0,30.0,0.0,0.0
803,78.0,30.0,30.0,0.0,0.0
804,74.0,30.0,30.0,0.0,0.0
805,75.0,30.0,30.0,0.0,0.0
806,70.0,90.0,30.0,0.0,0.0
807,71.0,30.0,90.0,0.0,0.0
808,47.0,30.0,180.0,0.0,0.0
809,51.0,0.0,150.0,0.0,0.0
810,54.0,0.0,120.0,0.0,0.0
811,66.0,30.0,30.0,0.0,0.0
812,78.0,30.0,30.0,0.0,0.0
813,74.0,0.0,30.0,0.0,0.0
814,75.0,30.0,30.0,0.0,0.0
815,70.0,90.0,30.0,0.0,0.0
816,59.0,0.0,180.0,0.0,0.0
817,71.0,30.0,90.0,0.0,0.0
818,63.0,0.0,150.0,0.0,0.0
819,66.0,30.0,120.0,0.0,0.0
820,68.0,30.0,30.0,0.0,0.0
821,80.0,30.0,30.0,0.0,0.0
822,75.0,0.0,30.0,0.0,0.0
823,76.0,30.0,30.0,0.0,0.0
824,72.0,90.0,30.0,0.0,0.0
825,73.0,30.0,90.0,0.0,0.0
826,47.0,30.0,180.0,0.0,0.0
827,52.0,0.0,150.0,0.0,0.0
828,56.0,0.0,120.0,0.0,0.0
829,68.0,30.0,30.0,0.0,0.0
830,80.0,30.0,30.0,0.0,0.0
831,75.0,0.0,30.0,0.0,0.0
832,76.0,30.0,30.0,0.0,0.0
833,72.0,90.0,30.0,0.0,0.0
834,73.0,30.0,90.0,0.0,0.0
835,59.0,60.0,180.0,0.0,0.0
836,64.0,0.0,150.0,0.0,0.0
837,68.0,0.0,120.0,0.0,0.0
838,73.0,15.0,30.0,0.0,0.0
839,88.0,30.0,15.0,0.0,0.0
840,87.0,15.0,15.0,0.0,0.0
841,85.0,30.0,90.0,0.0,0.0
842,58.0,30.0,30.0,0.0,0.0
843,61.0,0.0,30.0,0.0,0.0
844,66.0,0.0,30.0,0.0,0.0
845,83.0,30.0,30.0,0.0,0.0
846,82.0,30.0,30.0,0.0,0.0
847,80.0,30.0,30.0,0.0,0.0
848,54.0,0.0,30.0,0.0,0.0
849,78.0,26.0,30.0,0.0,0.0
850,61.0,0.0,30.0,0.0,0.0
851,64.0,4.0,30.0,0.0,0.0
852,76.0,4.0,30.0,0.0,0.0
853,78.0,26.0,15.0,0.0,0.0
854,76.0,30.0,30.0,0.0,0.0
855,75.0,0.0,60.0,0.0,0.0
856,59.0,30.0,30.0,0.0,0.0
857,63.0,30.0,30.0,0.0,0.0
858,83.0,30.0,30.0,0.0,0.0
859,66.0,0.0,30.0,0.0,0.0
860,83.0,30.0,30.0,0.0,0.0
861,73.0,30.0,60.0,0.0,0.0
862,52.0,30.0,30.0,0.0,0.0
863,56.0,0.0,30.0,0.0,0.0
864,80.0,30.0,30.0,0.0,0.0
865,61.0,0.0,30.0,0.0,0.0
866,80.0,30.0,30.0,0.0,0.0
867,71.0,30.0,60.0,0.0,0.0
868,54.0,30.0,30.0,0.0,0.0
869,59.0,0.0,30.0,0.0,0.0
870,63.0,30.0,30.0,0.0,0.0
871,78.0,0.0,30.0,0.0,0.0
872,78.0,30.0,30.0,0.0,0.0
873,64.0,0.0,60.0,0.0,0.0
874,42.0,30.0,30.0,0.0,0.0
875,49.0,30.0,30.0,0.0,0.0
876,70.0,30.0,30.0,0.0,0.0
877,54.0,0.0,30.0,0.0,0.0
878,63.0,30.0,120.0,0.0,0.0
879,71.0,0.0,120.0,0.0,0.0
880,47.0,30.0,30.0,0.0,0.0
881,51.0,30.0,30.0,0.0,0.0
882,54.0,30.0,30.0,0.0,0.0
883,51.0,0.0,30.0,0.0,0.0
884,47.0,30.0,30.0,0.0,0.0
885,51.0,30.0,30.0,0.0,0.0
886,78.0,0.0,60.0,0.0,0.0
887,54.0,30.0,30.0,0.0,0.0
888,51.0,30.0,30.0,0.0,0.0
889,78.0,30.0,30.0,0.0,0.0
890,47.0,0.0,30.0,0.0,0.0
891,51.0,30.0,30.0,0.0,0.0
892,78.0,30.0,30.0,0.0,0.0
893,54.0,0.0,30.0,0.0,0.0
894,51.0,30.0,30.0,0.0,0.0
895,78.0,0.0,30.0,0.0,0.0
896,47.0,30.0,30.0,0.0,0.0
897,51.0,12.0,30.0,0.0,0.0
898,78.0,12.0,15.0,0.0,0.0
899,54.0,6.0,30.0,0.0,0.0
900,80.0,6.0,15.0,0.0,0.0
901,78.0,12.0,15.0,0.0,0.0
902,51.0,0.0,30.0,0.0,0.0
903,77.0,12.0,15.0,0.0,0.0
904,78.0,30.0,15.0,0.0,0.0
905,80.0,30.0,120.0,0.0,0.0
906,49.0,30.0,30.0,0.0,0.0
907,52.0,30.0,30.0,0.0,0.0
908,58.0,30.0,30.0,0.0,0.0
909,52.0,0.0,30.0,0.0,0.0
910,78.0,0.0,60.0,0.0,0.0
911,49.0,30.0,30.0,0.0,0.0
912,52.0,30.0,30.0,0.0,0.0
913,58.0,30.0,30.0,0.0,0.0
914,52.0,30.0,30.0,0.0,0.0
915,49.0,30.0,30.0,0.0,0.0
916,52.0,30.0,30.0,0.0,0.0
917,58.0,15.0,30.0,0.0,0.0
918,78.0,15.0,15.0,0.0,0.0
919,52.0,15.0,30.0,0.0,0.0
920,78.0,15.0,15.0,0.0,0.0
921,49.0,15.0,30.0,0.0,0.0
922,52.0,15.0,30.0,0.0,0.0
923,78.0,15.0,15.0,0.0,0.0
924,78.0,15.0,15.0,0.0,0.0
925,58.0,15.0,30.0,0.0,0.0
926,78.0,15.0,15.0,0.0,0.0
927,52.0,30.0,30.0,0.0,0.0
928,80.0,30.0,120.0,0.0,0.0
929,51.0,30.0,30.0,0.0,0.0
930,54.0,30.0,30.0,0.0,0.0
931,59.0,30.0,30.0,0.0,0.0
932,54.0,0.0,30.0,0.0,0.0
933,78.0,30.0,60.0,0.0,0.0
934,51.0,30.0,30.0,0.0,0.0
935,54.0,0.0,30.0,0.0,0.0
936,59.0,30.0,30.0,0.0,0.0
937,54.0,30.0,30.0,0.0,0.0
938,51.0,30.0,30.0,0.0,0.0
939,54.0,30.0,30.0,0.0,0.0
940,59.0,30.0,30.0,0.0,0.0
941,78.0,15.0,90.0,0.0,0.0
942,54.0,30.0,30.0,0.0,0.0
943,51.0,0.0,30.0,0.0,0.0
944,80.0,15.0,15.0,0.0,0.0
945,54.0,15.0,30.0,0.0,0.0
946,78.0,0.0,15.0,0.0,0.0
947,59.0,15.0,30.0,0.0,0.0
948,76.0,15.0,15.0,0.0,0.0
949,75.0,15.0,15.0,0.0,0.0
950,54.0,30.0,30.0,0.0,0.0
951,75.0,30.0,60.0,0.0,0.0
952,52.0,30.0,30.0,0.0,0.0
953,56.0,0.0,30.0,0.0,0.0
954,73.0,30.0,120.0,0.0,0.0
955,61.0,30.0,30.0,0.0,0.0
956,56.0,30.0,30.0,0.0,0.0
957,53.0,30.0,30.0,0.0,0.0
958,56.0,0.0,30.0,0.0,0.0
959,71.0,10.0,30.0,0.0,0.0
960,61.0,5.0,30.0,0.0,0.0
961,56.0,5.0,30.0,0.0,0.0
962,70.0,10.0,15.0,0.0,0.0
963,71.0,5.0,15.0,0.0,0.0
964,73.0,25.0,15.0,0.0,0.0
965,54.0,30.0,30.0,0.0,0.0
966,71.0,29.0,60.0,0.0,0.0
967,58.0,1.0,30.0,0.0,0.0
968,70.0,30.0,120.0,0.0,0.0
969,61.0,30.0,30.0,0.0,0.0
970,58.0,30.0,30.0,0.0,0.0
971,54.0,30.0,30.0,0.0,0.0
972,58.0,0.0,30.0,0.0,0.0
973,63.0,30.0,30.0,0.0,0.0
974,78.0,30.0,60.0,0.0,0.0
975,58.0,0.0,30.0,0.0,0.0
976,78.0,30.0,60.0,0.0,0.0
977,56.0,30.0,30.0,0.0,0.0
978,59.0,0.0,30.0,0.0,0.0
979,63.0,30.0,30.0,0.0,0.0
980,77.0,30.0,120.0,0.0,0.0
981,59.0,30.0,30.0,0.0,0.0
982,56.0,30.0,30.0,0.0,0.0
983,59.0,0.0,30.0,0.0,0.0
984,75.0,10.0,30.0,0.0,0.0
985,65.0,5.0,30.0,0.0,0.0
986,59.0,5.0,30.0,0.0,0.0
987,73.0,10.0,15.0,0.0,0.0
988,75.0,5.0,15.0,0.0,0.0
989,77.0,25.0,15.0,0.0,0.0
990,58.0,30.0,30.0,0.0,0.0
991,75.0,0.0,60.0,0.0,0.0
992,61.0,30.0,30.0,0.0,0.0
993,65.0,30.0,30.0,0.0,0.0
994,73.0,30.0,120.0,0.0,0.0
995,61.0,30.0,30.0,0.0,0.0
996,58.0,30.0,30.0,0.0,0.0
997,61.0,0.0,30.0,0.0,0.0
998,82.0,0.0,60.0,0.0,0.0
999,66.0,30.0,30.0,0.0,0.0
1000,61.0,30.0,30.0,0.0,0.0
1001,82.0,30.0,60.0,0.0,0.0
1002,59.0,30.0,30.0,0.0,0.0
1003,63.0,0.0,30.0,0.0,0.0
1004,80.0,0.0,120.0,0.0,0.0
1005,68.0,30.0,30.0,0.0,0.0
1006,63.0,30.0,30.0,0.0,0.0
1007,60.0,30.0,30.0,0.0,0.0
1008,63.0,30.0,30.0,0.0,0.0
1009,78.0,30.0,60.0,0.0,0.0
1010,68.0,30.0,30.0,0.0,0.0
1011,63.0,0.0,30.0,0.0,0.0
1012,78.0,30.0,60.0,0.0,0.0
1013,61.0,30.0,30.0,0.0,0.0
1014,68.0,0.0,30.0,0.0,0.0
1015,77.0,30.0,120.0,0.0,0.0
1016,73.0,30.0,30.0,0.0,0.0
1017,68.0,30.0,30.0,0.0,0.0
1018,61.0,30.0,30.0,0.0,0.0
1019,66.0,0.0,30.0,0.0,0.0
1020,75.0,30.0,60.0,0.0,0.0
1021,72.0,30.0,30.0,0.0,0.0
1022,66.0,0.0,30.0,0.0,0.0
1023,61.0,30.0,30.0,0.0,0.0
1024,75.0,30.0,60.0,0.0,0.0
1025,65.0,0.0,30.0,0.0,0.0
1026,73.0,30.0,60.0,0.0,0.0
1027,68.0,30.0,30.0,0.0,0.0
1028,65.0,0.0,30.0,0.0,0.0
1029,61.0,10.0,30.0,0.0,0.0
1030,78.0,20.0,20.0,0.0,0.0
1031,68.0,20.0,30.0,0.0,0.0
1032,80.0,0.0,20.0,0.0,0.0
1033,82.0,10.0,20.0,0.0,0.0
1034,72.0,10.0,30.0,0.0,0.0
1035,80.0,20.0,20.0,0.0,0.0
1036,68.0,30.0,30.0,0.0,0.0
1037,78.0,0.0,20.0,0.0,0.0
1038,78.0,30.0,60.0,0.0,0.0
1039,61.0,30.0,30.0,0.0,0.0
1040,68.0,0.0,30.0,0.0,0.0
1041,77.0,30.0,60.0,0.0,0.0
1042,73.0,30.0,30.0,0.0,0.0
1043,68.0,0.0,30.0,0.0,0.0
1044,61.0,10.0,30.0,0.0,0.0
1045,75.0,20.0,20.0,0.0,0.0
1046,66.0,20.0,30.0,0.0,0.0
1047,77.0,0.0,20.0,0.0,0.0
1048,78.0,10.0,20.0,0.0,0.0
1049,72.0,10.0,30.0,0.0,0.0
1050,77.0,20.0,20.0,0.0,0.0
1051,66.0,0.0,30.0,0.0,0.0
1052,75.0,30.0,20.0,0.0,0.0
1053,75.0,0.0,60.0,0.0,0.0
1054,61.0,30.0,30.0,0.0,0.0
1055,65.0,30.0,30.0,0.0,0.0
1056,68.0,30.0,30.0,0.0,0.0
1057,73.0,0.0,60.0,0.0,0.0
1058,65.0,30.0,30.0,0.0,0.0
1059,61.0,10.0,30.0,0.0,0.0
1060,78.0,20.0,20.0,0.0,0.0
1061,68.0,20.0,30.0,0.0,0.0
1062,80.0,0.0,20.0,0.0,0.0
1063,82.0,10.0,20.0,0.0,0.0
1064,72.0,10.0,30.0,0.0,0.0
1065,80.0,20.0,20.0,0.0,0.0
1066,68.0,0.0,30.0,0.0,0.0
1067,78.0,20.0,20.0,0.0,0.0
1068,78.0,10.0,20.0,0.0,0.0
1069,61.0,10.0,30.0,0.0,0.0
1070,77.0,20.0,20.0,0.0,0.0
1071,68.0,0.0,30.0,0.0,0.0
1072,78.0,20.0,20.0,0.0,0.0
1073,73.0,10.0,30.0,0.0,0.0
1074,80.0,10.0,20.0,0.0,0.0
1075,78.0,20.0,20.0,0.0,0.0
1076,68.0,20.0,30.0,0.0,0.0
1077,77.0,0.0,20.0,0.0,0.0
1078,77.0,10.0,20.0,0.0,0.0
1079,61.0,10.0,30.0,0.0,0.0
1080,75.0,20.0,20.0,0.0,0.0
1081,66.0,20.0,30.0,0.0,0.0
1082,77.0,0.0,20.0,0.0,0.0
1083,78.0,10.0,20.0,0.0,0.0
1084,72.0,10.0,30.0,0.0,0.0
1085,77.0,20.0,20.0,0.0,0.0
1086,66.0,20.0,30.0,0.0,0.0
1087,75.0,0.0,20.0,0.0,0.0
1088,61.0,0.0,60.0,0.0,0.0
1089,65.0,0.0,60.0,0.0,0.0
1090,68.0,20.0,60.0,0.0,0.0
1091,75.0,20.0,20.0,0.0,0.0
1092,73.0,20.0,20.0,0.0,0.0
1093,72.0,0.0,20.0,0.0,0.0
1094,73.0,20.0,20.0,0.0,0.0
1095,75.0,20.0,20.0,0.0,0.0
1096,77.0,20.0,20.0,0.0,0.0
1097,78.0,20.0,20.0,0.0,0.0
1098,79.0,20.0,20.0,0.0,0.0
1099,80.0,15.0,20.0,0.0,0.0
1100,81.0,15.0,15.0,0.0,0.0
1101,82.0,15.0,15.0,0.0,0.0
1102,83.0,15.0,15.0,0.0,0.0
1103,84.0,60.0,15.0,0.0,0.0
1104,85.0,60.0,60.0,0.0,0.0
1105,85.0,60.0,60.0,0.0,0.0
1106,85.0,60.0,60.0,0.0,0.0
1107,85.0,60.0,60.0,0.0,0.0
1108,85.0,0.0,90.0,0.0,0.0
1109,82.0,10.0,90.0,0.0,0.0
1110,42.0,30.0,30.0,0.0,0.0
1111,54.0,0.0,30.0,0.0,0.0
1112,81.0,80.0,15.0,0.0,0.0
1113,84.0,0.0,15.0,0.0,0.0
1114,82.0,0.0,90.0,0.0,0.0
1115,85.0,10.0,90.0,0.0,0.0
1116,54.0,30.0,30.0,0.0,0.0
1117,66.0,0.0,30.0,0.0,0.0
1118,84.0,80.0,15.0,0.0,0.0
1119,81.0,0.0,15.0,0.0,0.0
1120,82.0,0.0,90.0,0.0,0.0
1121,85.0,10.0,90.0,0.0,0.0
1122,66.0,30.0,30.0,0.0,0.0
1123,78.0,0.0,30.0,0.0,0.0
1124,83.0,50.0,15.0,0.0,0.0
1125,80.0,0.0,15.0,0.0,0.0
1126,80.0,10.0,30.0,0.0,0.0
1127,83.0,0.0,30.0,0.0,0.0
1128,78.0,50.0,15.0,0.0,0.0
1129,82.0,0.0,15.0,0.0,0.0
1130,78.0,0.0,30.0,0.0,0.0
1131,82.0,10.0,30.0,0.0,0.0
1132,80.0,0.0,15.0,0.0,0.0
1133,77.0,50.0,15.0,0.0,0.0
1134,80.0,0.0,30.0,0.0,0.0
1135,77.0,10.0,30.0,0.0,0.0
1136,78.0,0.0,15.0,0.0,0.0
1137,75.0,50.0,15.0,0.0,0.0
1138,75.0,10.0,30.0,0.0,0.0
1139,78.0,0.0,30.0,0.0,0.0
1140,73.0,0.0,15.0,0.0,0.0
1141,77.0,50.0,15.0,0.0,0.0
1142,73.0,10.0,30.0,0.0,0.0
1143,77.0,0.0,30.0,0.0,0.0
1144,71.0,50.0,15.0,0.0,0.0
1145,75.0,0.0,15.0,0.0,0.0
1146,71.0,10.0,30.0,0.0,0.0
1147,75.0,0.0,30.0,0.0,0.0
1148,73.0,0.0,15.0,0.0,0.0
1149,70.0,110.0,15.0,0.0,0.0
1150,67.0,30.0,120.0,0.0,0.0
1151,70.0,0.0,120.0,0.0,0.0
1152,37.0,30.0,30.0,0.0,0.0
1153,71.0,30.0,60.0,0.0,0.0
1154,68.0,0.0,60.0,0.0,0.0
1155,37.0,30.0,30.0,0.0,0.0
1156,37.0,90.0,30.0,0.0,0.0
1157,83.0,0.0,90.0,0.0,0.0
1158,80.0,10.0,90.0,0.0,0.0
1159,37.0,30.0,30.0,0.0,0.0
1160,49.0,0.0,30.0,0.0,0.0
1161,79.0,0.0,15.0,0.0,0.0
1162,82.0,80.0,15.0,0.0,0.0
1163,80.0,10.0,90.0,0.0,0.0
1164,83.0,0.0,90.0,0.0,0.0
1165,49.0,30.0,30.0,0.0,0.0
1166,61.0,0.0,30.0,0.0,0.0
1167,79.0,80.0,15.0,0.0,0.0
1168,82.0,0.0,15.0,0.0,0.0
1169,80.0,10.0,90.0,0.0,0.0
1170,83.0,0.0,90.0,0.0,0.0
1171,61.0,30.0,30.0,0.0,0.0
1172,73.0,0.0,30.0,0.0,0.0
1173,78.0,50.0,15.0,0.0,0.0
1174,82.0,0.0,15.0,0.0,0.0
1175,82.0,10.0,30.0,0.0,0.0
1176,78.0,0.0,30.0,0.0,0.0
1177,80.0,0.0,15.0,0.0,0.0
1178,77.0,50.0,15.0,0.0,0.0
1179,77.0,10.0,30.0,0.0,0.0
1180,80.0,0.0,30.0,0.0,0.0
1181,75.0,0.0,15.0,0.0,0.0
1182,78.0,50.0,15.0,0.0,0.0
1183,78.0,0.0,30.0,0.0,0.0
1184,75.0,10.0,30.0,0.0,0.0
1185,73.0,50.0,15.0,0.0,0.0
1186,77.0,0.0,15.0,0.0,0.0
1187,77.0,0.0,30.0,0.0,0.0
1188,73.0,10.0,30.0,0.0,0.0
1189,71.0,50.0,15.0,0.0,0.0
1190,75.0,0.0,15.0,0.0,0.0
1191,71.0,10.0,30.0,0.0,0.0
1192,75.0,0.0,30.0,0.0,0.0
1193,70.0,50.0,15.0,0.0,0.0
1194,73.0,0.0,15.0,0.0,0.0
1195,70.0,10.0,30.0,0.0,0.0
1196,73.0,0.0,30.0,0.0,0.0
1197,68.0,0.0,15.0,0.0,0.0
1198,71.0,80.0,15.0,0.0,0.0
1199,70.0,0.0,60.0,0.0,0.0
1200,66.0,30.0,60.0,0.0,0.0
1201,61.0,0.0,30.0,0.0,0.0
1202,54.0,30.0,30.0,0.0,0.0
1203,70.0,0.0,60.0,0.0,0.0
1204,75.0,0.0,60.0,0.0,0.0
1205,61.0,30.0,30.0,0.0,0.0
1206,73.0,0.0,60.0,0.0,0.0
1207,53.0,30.0,30.0,0.0,0.0
1208,68.0,30.0,60.0,0.0,0.0
1209,61.0,0.0,30.0,0.0,0.0
1210,71.0,60.0,60.0,0.0,0.0
1211,65.0,0.0,60.0,0.0,0.0
1212,49.0,30.0,30.0,0.0,0.0
1213,61.0,0.0,30.0,0.0,0.0
1214,66.0,0.0,60.0,0.0,0.0
1215,70.0,0.0,60.0,0.0,0.0
1216,61.0,30.0,30.0,0.0,0.0
1217,75.0,30.0,60.0,0.0,0.0
1218,70.0,0.0,60.0,0.0,0.0
1219,54.0,30.0,30.0,0.0,0.0
1220,61.0,0.0,30.0,0.0,0.0
1221,73.0,0.0,60.0,0.0,0.0
1222,68.0,0.0,60.0,0.0,0.0
1223,53.0,30.0,30.0,0.0,0.0
1224,61.0,30.0,30.0,0.0,0.0
1225,71.0,60.0,60.0,0.0,0.0
1226,65.0,0.0,60.0,0.0,0.0
1227,49.0,30.0,30.0,0.0,0.0
1228,61.0,0.0,30.0,0.0,0.0
1229,54.0,30.0,120.0,0.0,0.0
1230,70.0,0.0,60.0,0.0,0.0
1231,66.0,30.0,30.0,0.0,0.0
1232,75.0,0.0,60.0,0.0,0.0
1233,70.0,30.0,30.0,0.0,0.0
1234,66.0,0.0,30.0,0.0,0.0
1235,65.0,30.0,30.0,0.0,0.0
1236,56.0,0.0,120.0,0.0,0.0
1237,73.0,30.0,60.0,0.0,0.0
1238,68.0,0.0,30.0,0.0,0.0
1239,63.0,30.0,30.0,0.0,0.0
1240,72.0,0.0,60.0,0.0,0.0
1241,66.0,30.0,30.0,0.0,0.0
1242,61.0,30.0,30.0,0.0,0.0
1243,73.0,0.0,30.0,0.0,0.0
1244,71.0,30.0,30.0,0.0,0.0
1245,68.0,0.0,30.0,0.0,0.0
1246,73.0,30.0,30.0,0.0,0.0
1247,70.0,30.0,30.0,0.0,0.0
1248,66.0,0.0,30.0,0.0,0.0
1249,73.0,30.0,30.0,0.0,0.0
1250,65.0,30.0,30.0,0.0,0.0
1251,68.0,0.0,30.0,0.0,0.0
1252,73.0,30.0,30.0,0.0,0.0
1253,66.0,0.0,30.0,0.0,0.0
1254,70.0,30.0,30.0,0.0,0.0
1255,82.0,30.0,60.0,0.0,0.0
1256,73.0,0.0,30.0,0.0,0.0
1257,87.0,30.0,60.0,0.0,0.0
1258,66.0,30.0,30.0,0.0,0.0
1259,70.0,0.0,30.0,0.0,0.0
1260,73.0,0.0,30.0,0.0,0.0
1261,68.0,0.0,30.0,0.0,0.0
1262,85.0,30.0,60.0,0.0,0.0
1263,65.0,30.0,30.0,0.0,0.0
1264,73.0,0.0,30.0,0.0,0.0
1265,61.0,30.0,30.0,0.0,0.0
1266,83.0,30.0,60.0,0.0,0.0
1267,77.0,0.0,60.0,0.0,0.0
1268,68.0,0.0,30.0,0.0,0.0
1269,73.0,0.0,30.0,0.0,0.0
1270,66.0,30.0,30.0,0.0,0.0
1271,78.0,0.0,60.0,0.0,0.0
1272,82.0,0.0,60.0,0.0,0.0
1273,70.0,0.0,30.0,0.0,0.0
1274,73.0,30.0,30.0,0.0,0.0
1275,87.0,30.0,60.0,0.0,0.0
1276,66.0,30.0,30.0,0.0,0.0
1277,70.0,0.0,30.0,0.0,0.0
1278,73.0,0.0,30.0,0.0,0.0
1279,85.0,30.0,60.0,0.0,0.0
1280,65.0,30.0,30.0,0.0,0.0
1281,68.0,0.0,30.0,0.0,0.0
1282,73.0,0.0,30.0,0.0,0.0
1283,83.0,30.0,60.0,0.0,0.0
1284,77.0,0.0,60.0,0.0,0.0
1285,61.0,30.0,30.0,0.0,0.0
1286,68.0,0.0,30.0,0.0,0.0
1287,73.0,0.0,30.0,0.0,0.0
1288,70.0,30.0,30.0,0.0,0.0
1289,66.0,0.0,30.0,0.0,0.0
1290,82.0,30.0,60.0,0.0,0.0
1291,78.0,0.0,30.0,0.0,0.0
1292,90.0,0.0,120.0,0.0,0.0
1293,71.0,30.0,30.0,0.0,0.0
1294,68.0,0.0,30.0,0.0,0.0
1295,78.0,30.0,30.0,0.0,0.0
1296,73.0,30.0,30.0,0.0,0.0
1297,70.0,0.0,30.0,0.0,0.0
1298,78.0,30.0,30.0,0.0,0.0
1299,71.0,0.0,30.0,0.0,0.0
1300,90.0,30.0,120.0,0.0,0.0
1301,75.0,30.0,30.0,0.0,0.0
1302,78.0,30.0,30.0,0.0,0.0
1303,73.0,30.0,30.0,0.0,0.0
1304,76.0,0.0,30.0,0.0,0.0
1305,78.0,0.0,30.0,0.0,0.0
1306,72.0,0.0,30.0,0.0,0.0
1307,75.0,0.0,30.0,0.0,0.0
1308,90.0,30.0,30.0,0.0,0.0
1309,78.0,30.0,30.0,0.0,0.0
1310,76.0,30.0,30.0,0.0,0.0
1311,90.0,0.0,30.0,0.0,0.0
1312,73.0,0.0,30.0,0.0,0.0
1313,78.0,30.0,30.0,0.0,0.0
1314,90.0,30.0,30.0,0.0,0.0
1315,70.0,0.0,30.0,0.0,0.0
1316,74.0,0.0,30.0,0.0,0.0
1317,78.0,15.0,30.0,0.0,0.0
1318,71.0,0.0,60.0,0.0,0.0
1319,75.0,15.0,60.0,0.0,0.0
1320,87.0,15.0,15.0,0.0,0.0
1321,89.0,15.0,15.0,0.0,0.0
1322,87.0,15.0,15.0,0.0,0.0
1323,86.0,0.0,15.0,0.0,0.0
1324,87.0,15.0,15.0,0.0,0.0
1325,89.0,15.0,15.0,0.0,0.0
1326,90.0,15.0,15.0,0.0,0.0
1327,89.0,15.0,15.0,0.0,0.0
1328,87.0,15.0,15.0,0.0,0.0
1329,78.0,0.0,60.0,0.0,0.0
1330,75.0,0.0,60.0,0.0,0.0
1331,71.0,15.0,60.0,0.0,0.0
1332,89.0,15.0,15.0,0.0,0.0
1333,87.0,15.0,15.0,0.0,0.0
1334,86.0,0.0,15.0,0.0,0.0
1335,87.0,15.0,15.0,0.0,0.0
1336,89.0,15.0,15.0,0.0,0.0
1337,90.0,15.0,15.0,0.0,0.0
1338,89.0,15.0,15.0,0.0,0.0
1339,90.0,15.0,15.0,0.0,0.0
1340,72.0,0.0,60.0,0.0,0.0
1341,75.0,0.0,60.0,0.0,0.0
1342,81.0,0.0,60.0,0.0,0.0
1343,78.0,15.0,60.0,0.0,0.0
1344,92.0,15.0,15.0,0.0,0.0
1345,90.0,15.0,15.0,0.0,0.0
1346,89.0,0.0,15.0,0.0,0.0
1347,90.0,15.0,15.0,0.0,0.0
1348,92.0,15.0,15.0,0.0,0.0
1349,93.0,15.0,15.0,0.0,0.0
1350,92.0,15.0,15.0,0.0,0.0
1351,90.0,15.0,15.0,0.0,0.0
1352,75.0,0.0,60.0,0.0,0.0
1353,78.0,0.0,60.0,0.0,0.0
1354,81.0,15.0,60.0,0.0,0.0
1355,72.0,0.0,60.0,0.0,0.0
1356,92.0,15.0,15.0,0.0,0.0
1357,90.0,15.0,15.0,0.0,0.0
1358,89.0,0.0,15.0,0.0,0.0
1359,90.0,15.0,15.0,0.0,0.0
1360,92.0,15.0,15.0,0.0,0.0
1361,93.0,15.0,15.0,0.0,0.0
1362,92.0,15.0,15.0,0.0,0.0
1363,90.0,15.0,15.0,0.0,0.0
1364,82.0,15.0,60.0,0.0,0.0
1365,78.0,0.0,60.0,0.0,0.0
1366,73.0,0.0,60.0,0.0,0.0
1367,92.0,15.0,15.0,0.0,0.0
1368,90.0,15.0,15.0,0.0,0.0
1369,89.0,0.0,15.0,0.0,0.0
1370,90.0,15.0,15.0,0.0,0.0
1371,89.0,15.0,15.0,0.0,0.0
1372,90.0,15.0,15.0,0.0,0.0
1373,89.0,15.0,15.0,0.0,0.0
1374,90.0,15.0,15.0,0.0,0.0
1375,89.0,15.0,15.0,0.0,0.0
1376,87.0,15.0,15.0,0.0,0.0
1377,85.0,15.0,15.0,0.0,0.0
1378,83.0,15.0,15.0,0.0,0.0
1379,82.0,15.0,15.0,0.0,0.0
1380,80.0,15.0,15.0,0.0,0.0
1381,78.0,120.0,15.0,0.0,0.0
1382,61.0,0.0,240.0,0.0,0.0
1383,73.0,0.0,120.0,0.0,0.0
1384,78.0,120.0,120.0,0.0,0.0
1385,82.0,0.0,120.0,0.0,0.0
1386,77.0,0.0,120.0,0.0,0.0
1387,80.0,15.0,120.0,0.0,0.0
1388,71.0,0.0,120.0,0.0,0.0
1389,70.0,15.0,60.0,0.0,0.0
1390,78.0,15.0,15.0,0.0,0.0
1391,66.0,0.0,60.0,0.0,0.0
1392,80.0,15.0,15.0,0.0,0.0
1393,82.0,15.0,15.0,0.0,0.0
1394,83.0,0.0,15.0,0.0,0.0
1395,85.0,15.0,15.0,0.0,0.0
1396,83.0,15.0,15.0,0.0,0.0
1397,82.0,15.0,15.0,0.0,0.0
1398,80.0,15.0,15.0,0.0,0.0
1399,78.0,15.0,15.0,0.0,0.0
1400,77.0,15.0,15.0,0.0,0.0
1401,75.0,15.0,15.0,0.0,0.0
1402,73.0,15.0,15.0,0.0,0.0
1403,71.0,15.0,15.0,0.0,0.0
1404,70.0,15.0,15.0,0.0,0.0
1405,68.0,15.0,15.0,0.0,0.0
1406,66.0,120.0,15.0,0.0,0.0
1407,49.0,0.0,240.0,0.0,0.0
1408,66.0,0.0,120.0,0.0,0.0
1409,70.0,0.0,120.0,0.0,0.0
1410,61.0,120.0,120.0,0.0,0.0
1411,68.0,30.0,120.0,0.0,0.0
1412,59.0,0.0,120.0,0.0,0.0
1413,65.0,0.0,120.0,0.0,0.0
1414,66.0,30.0,30.0,0.0,0.0
1415,54.0,0.0,60.0,0.0,0.0
1416,58.0,0.0,60.0,0.0,0.0
1417,61.0,30.0,30.0,0.0,0.0
1418,70.0,30.0,30.0,0.0,0.0
1419,66.0,0.0,30.0,0.0,0.0
1420,61.0,30.0,30.0,0.0,0.0
1421,68.0,30.0,30.0,0.0,0.0
1422,71.0,0.0,30.0,0.0,0.0
1423,61.0,30.0,30.0,0.0,0.0
1424,69.0,30.0,30.0,0.0,0.0
1425,72.0,0.0,30.0,0.0,0.0
1426,61.0,70.0,30.0,0.0,0.0
1427,70.0,0.0,300.0,0.0,0.0
1428,73.0,0.0,300.0,0.0,0.0
1429,61.0,50.0,40.0,0.0,0.0
1430,42.0,10.0,60.0,0.0,0.0
1431,61.0,50.0,40.0,0.0,0.0
1432,46.0,10.0,60.0,0.0,0.0
1433,61.0,50.0,40.0,0.0,0.0
1434,49.0,10.0,60.0,0.0,0.0
1435,61.0,50.0,40.0,0.0,0.0
1436,54.0,60.0,240.0,0.0,0.0
1437,61.0,30.0,30.0,0.0,0.0
1438,70.0,30.0,60.0,0.0,0.0
1439,66.0,30.0,30.0,0.0,0.0
1440,61.0,0.0,30.0,0.0,0.0
1441,71.0,30.0,30.0,0.0,0.0
1442,75.0,30.0,60.0,0.0,0.0
1443,61.0,0.0,30.0,0.0,0.0
1444,73.0,10.0,60.0,0.0,0.0
1445,70.0,30.0,30.0,0.0,0.0
1446,61.0,0.0,30.0,0.0,0.0
1447,68.0,0.0,300.0,0.0,0.0
1448,71.0,30.0,300.0,0.0,0.0
1449,61.0,50.0,40.0,0.0,0.0
1450,54.0,10.0,60.0,0.0,0.0
1451,61.0,50.0,40.0,0.0,0.0
1452,53.0,10.0,60.0,0.0,0.0
1453,61.0,50.0,40.0,0.0,0.0
1454,51.0,10.0,60.0,0.0,0.0
1455,61.0,50.0,40.0,0.0,0.0
1456,53.0,30.0,120.0,0.0,0.0
1457,61.0,0.0,30.0,0.0,0.0
1458,71.0,0.0,60.0,0.0,0.0
1459,68.0,30.0,30.0,0.0,0.0
1460,61.0,0.0,30.0,0.0,0.0
1461,73.0,30.0,60.0,0.0,0.0
1462,70.0,30.0,30.0,0.0,0.0
1463,49.0,60.0,180.0,0.0,0.0
1464,61.0,0.0,30.0,0.0,0.0
1465,71.0,60.0,60.0,0.0,0.0
1466,68.0,30.0,30.0,0.0,0.0
1467,61.0,0.0,30.0,0.0,0.0
1468,66.0,0.0,300.0,0.0,0.0
1469,70.0,0.0,300.0,0.0,0.0
1470,61.0,0.0,30.0,0.0,0.0
1471,50.0,60.0,60.0,0.0,0.0
1472,62.0,0.0,30.0,0.0,0.0
1473,51.0,60.0,60.0,0.0,0.0
1474,63.0,0.0,30.0,0.0,0.0
1475,46.0,60.0,60.0,0.0,0.0
1476,58.0,0.0,30.0,0.0,0.0
1477,47.0,30.0,60.0,0.0,0.0
1478,59.0,0.0,30.0,0.0,0.0
1479,68.0,30.0,60.0,0.0,0.0
1480,48.0,0.0,60.0,0.0,0.0
1481,66.0,30.0,30.0,0.0,0.0
1482,60.0,0.0,30.0,0.0,0.0
1483,49.0,0.0,180.0,0.0,0.0
1484,68.0,0.0,60.0,0.0,0.0
1485,66.0,30.0,30.0,0.0,0.0
1486,61.0,30.0,30.0,0.0,0.0
1487,71.0,60.0,60.0,0.0,0.0
1488,65.0,30.0,30.0,0.0,0.0
1489,61.0,0.0,30.0,0.0,0.0
1490,66.0,0.0,300.0,0.0,0.0
1491,70.0,0.0,300.0,0.0,0.0
1492,61.0,60.0,30.0,0.0,0.0
1493,50.0,60.0,60.0,0.0,0.0
1494,62.0,0.0,30.0,0.0,0.0
1495,51.0,0.0,60.0,0.0,0.0
1496,63.0,60.0,30.0,0.0,0.0
1497,46.0,60.0,60.0,0.0,0.0
1498,58.0,0.0,30.0,0.0,0.0
1499,47.0,30.0,60.0,0.0,0.0
1500,59.0,0.0,30.0,0.0,0.0
1501,66.0,30.0,30.0,0.0,0.0
1502,48.0,0.0,60.0,0.0,0.0
1503,68.0,0.0,60.0,0.0,0.0
1504,60.0,30.0,30.0,0.0,0.0
1505,68.0,30.0,60.0,0.0,0.0
1506,66.0,30.0,30.0,0.0,0.0
1507,49.0,0.0,180.0,0.0,0.0
1508,61.0,0.0,30.0,0.0,0.0
1509,65.0,30.0,30.0,0.0,0.0
1510,71.0,60.0,60.0,0.0,0.0
1511,61.0,0.0,30.0,0.0,0.0
1512,66.0,0.0,300.0,0.0,0.0
1513,70.0,0.0,300.0,0.0,0.0
1514,61.0,60.0,30.0,0.0,0.0
1515,50.0,60.0,60.0,0.0,0.0
1516,62.0,0.0,30.0,0.0,0.0
1517,51.0,0.0,60.0,0.0,0.0
1518,63.0,60.0,30.0,0.0,0.0
1519,52.0,0.0,60.0,0.0,0.0
1520,64.0,60.0,30.0,0.0,0.0
1521,51.0,30.0,60.0,0.0,0.0
1522,63.0,0.0,30.0,0.0,0.0
1523,71.0,30.0,60.0,0.0,0.0
1524,68.0,30.0,30.0,0.0,0.0
1525,47.0,0.0,60.0,0.0,0.0
1526,63.0,0.0,30.0,0.0,0.0
1527,70.0,0.0,60.0,0.0,0.0
1528,66.0,30.0,30.0,0.0,0.0
1529,49.0,0.0,60.0,0.0,0.0
1530,61.0,30.0,30.0,0.0,0.0
1531,37.0,0.0,60.0,0.0,0.0
1532,65.0,30.0,30.0,0.0,0.0
1533,68.0,0.0,60.0,0.0,0.0
1534,59.0,30.0,30.0,0.0,0.0
1535,66.0,0.0,180.0,0.0,0.0
1536,58.0,30.0,30.0,0.0,0.0
1537,42.0,30.0,480.0,0.0,0.0
1538,61.0,30.0,30.0,0.0,0.0
1539,58.0,30.0,30.0,0.0,0.0
1540,61.0,30.0,30.0,0.0,0.0
1541,58.0,30.0,30.0,0.0,0.0
1542,61.0,30.0,30.0,0.0,0.0
1543,54.0,0.0,60.0,0.0,0.0
1544,59.0,30.0,30.0,0.0,0.0
1545,68.0,30.0,60.0,0.0,0.0
1546,65.0,0.0,30.0,0.0,0.0
1547,54.0,0.0,180.0,0.0,0.0
1548,70.0,30.0,180.0,0.0,0.0
1549,61.0,30.0,30.0,0.0,0.0
1550,66.0,30.0,30.0,0.0,0.0
1551,61.0,30.0,30.0,0.0,0.0
1552,66.0,30.0,30.0,0.0,0.0
1553,61.0,30.0,30.0,0.0,0.0
1554,66.0,0.0,30.0,0.0,0.0
1555,68.0,0.0,60.0,0.0,0.0
1556,59.0,30.0,30.0,0.0,0.0
1557,54.0,0.0,60.0,0.0,0.0
1558,65.0,0.0,30.0,0.0,0.0
1559,66.0,0.0,180.0,0.0,0.0
1560,58.0,30.0,30.0,0.0,0.0
1561,54.0,30.0,180.0,0.0,0.0
1562,61.0,30.0,30.0,0.0,0.0
1563,58.0,30.0,30.0,0.0,0.0
1564,61.0,30.0,30.0,0.0,0.0
1565,58.0,30.0,30.0,0.0,0.0
1566,61.0,0.0,30.0,0.0,0.0
1567,77.0,30.0,60.0,0.0,0.0
1568,68.0,0.0,60.0,0.0,0.0
1569,59.0,30.0,30.0,0.0,0.0
1570,54.0,30.0,120.0,0.0,0.0
1571,61.0,0.0,30.0,0.0,0.0
1572,66.0,0.0,60.0,0.0,0.0
1573,78.0,0.0,60.0,0.0,0.0
1574,58.0,30.0,30.0,0.0,0.0
1575,61.0,0.0,30.0,0.0,0.0
1576,68.0,0.0,60.0,0.0,0.0
1577,77.0,0.0,60.0,0.0,0.0
1578,59.0,30.0,30.0,0.0,0.0
1579,54.0,8.0,120.0,0.0,0.0
1580,61.0,30.0,30.0,0.0,0.0
1581,66.0,0.0,60.0,0.0,0.0
1582,78.0,0.0,60.0,0.0,0.0
1583,58.0,30.0,30.0,0.0,0.0
1584,61.0,0.0,30.0,0.0,0.0
1585,54.0,0.0,60.0,0.0,0.0
1586,59.0,2.0,30.0,0.0,0.0
1587,68.0,240.0,60.0,0.0,0.0
1588,77.0,8.0,15.0,0.0,0.0
1589,78.0,8.0,15.0,0.0,0.0
1590,77.0,6.0,15.0,0.0,0.0
1591,78.0,9.0,15.0,0.0,0.0
1592,61.0,0.0,30.0,0.0,0.0
1593,77.0,9.0,15.0,0.0,0.0
1594,75.0,10.0,15.0,0.0,0.0
1595,77.0,0.0,15.0,0.0,0.0
1596,80.0,60.0,240.0,0.0,0.0
1597,54.0,120.0,300.0,0.0,0.0
1598,65.0,0.0,240.0,0.0,0.0
1599,61.0,0.0,300.0,0.0,0.0
1600,71.0,0.0,240.0,0.0,0.0
1601,70.0,0.0,60.0,0.0,0.0
1602,78.0,0.0,60.0,0.0,0.0
1603,66.0,0.0,60.0,0.0,0.0
1604,66.0,30.0,30.0,0.0,0.0
1605,78.0,30.0,30.0,0.0,0.0
1606,73.0,30.0,30.0,0.0,0.0
1607,74.0,30.0,30.0,0.0,0.0
1608,70.0,90.0,30.0,0.0,0.0
1609,71.0,30.0,90.0,0.0,0.0
1610,47.0,0.0,180.0,0.0,0.0
1611,50.0,0.0,150.0,0.0,0.0
1612,54.0,30.0,120.0,0.0,0.0
1613,66.0,30.0,30.0,0.0,0.0
1614,78.0,30.0,30.0,0.0,0.0
1615,73.0,0.0,30.0,0.0,0.0
1616,74.0,30.0,30.0,0.0,0.0
1617,70.0,90.0,30.0,0.0,0.0
1618,71.0,30.0,90.0,0.0,0.0
1619,59.0,0.0,180.0,0.0,0.0
1620,62.0,0.0,150.0,0.0,0.0
1621,66.0,30.0,120.0,0.0,0.0
1622,71.0,30.0,30.0,0.0,0.0
1623,83.0,30.0,30.0,0.0,0.0
1624,78.0,0.0,30.0,0.0,0.0
1625,79.0,30.0,30.0,0.0,0.0
1626,75.0,90.0,30.0,0.0,0.0
1627,76.0,30.0,90.0,0.0,0.0
1628,47.0,30.0,180.0,0.0,0.0
1629,52.0,0.0,150.0,0.0,0.0
1630,55.0,0.0,120.0,0.0,0.0
1631,71.0,30.0,30.0,0.0,0.0
1632,83.0,30.0,30.0,0.0,0.0
1633,78.0,0.0,30.0,0.0,0.0
1634,79.0,30.0,30.0,0.0,0.0
1635,75.0,90.0,30.0,0.0,0.0
1636,59.0,120.0,240.0,0.0,0.0
1637,76.0,30.0,90.0,0.0,0.0
1638,64.0,0.0,210.0,0.0,0.0
1639,67.0,0.0,180.0,0.0,0.0
1640,90.0,30.0,30.0,0.0,0.0
1641,91.0,30.0,30.0,0.0,0.0
1642,87.0,30.0,30.0,0.0,0.0
1643,88.0,30.0,30.0,0.0,0.0
1644,58.0,0.0,240.0,0.0,0.0
1645,64.0,0.0,210.0,0.0,0.0
1646,67.0,120.0,180.0,0.0,0.0
1647,78.0,30.0,30.0,0.0,0.0
1648,79.0,30.0,30.0,0.0,0.0
1649,75.0,30.0,30.0,0.0,0.0
1650,76.0,30.0,30.0,0.0,0.0
1651,64.0,0.0,210.0,0.0,0.0
1652,67.0,30.0,180.0,0.0,0.0
1653,90.0,30.0,30.0,0.0,0.0
1654,91.0,30.0,30.0,0.0,0.0
1655,87.0,30.0,30.0,0.0,0.0
1656,88.0,30.0,30.0,0.0,0.0
1657,57.0,0.0,30.0,0.0,0.0
1658,67.0,30.0,30.0,0.0,0.0
1659,63.0,30.0,30.0,0.0,0.0
1660,64.0,30.0,30.0,0.0,0.0
1661,69.0,30.0,30.0,0.0,0.0
1662,60.0,0.0,30.0,0.0,0.0
1663,79.0,30.0,30.0,0.0,0.0
1664,61.0,30.0,90.0,0.0,0.0
1665,75.0,30.0,30.0,0.0,0.0
1666,76.0,0.0,30.0,0.0,0.0
1667,72.0,30.0,30.0,0.0,0.0
1668,57.0,0.0,30.0,0.0,0.0
1669,67.0,30.0,30.0,0.0,0.0
1670,73.0,30.0,90.0,0.0,0.0
1671,63.0,30.0,30.0,0.0,0.0
1672,64.0,0.0,30.0,0.0,0.0
1673,69.0,0.0,30.0,0.0,0.0
1674,60.0,30.0,30.0,0.0,0.0
1675,79.0,30.0,30.0,0.0,0.0
1676,61.0,30.0,90.0,0.0,0.0
1677,75.0,30.0,30.0,0.0,0.0
1678,76.0,0.0,30.0,0.0,0.0
1679,57.0,0.0,30.0,0.0,0.0
1680,72.0,30.0,30.0,0.0,0.0
1681,73.0,30.0,60.0,0.0,0.0
1682,67.0,30.0,30.0,0.0,0.0
1683,63.0,0.0,30.0,0.0,0.0
1684,64.0,30.0,30.0,0.0,0.0
1685,60.0,30.0,30.0,0.0,0.0
1686,61.0,30.0,30.0,0.0,0.0
1687,56.0,30.0,30.0,0.0,0.0
1688,57.0,30.0,30.0,0.0,0.0
1689,58.0,30.0,30.0,0.0,0.0
1690,59.0,30.0,30.0,0.0,0.0
1691,55.0,30.0,30.0,0.0,0.0
1692,57.0,30.0,30.0,0.0,0.0
1693,54.0,30.0,30.0,0.0,0.0
1694,55.0,30.0,30.0,0.0,0.0
1695,52.0,60.0,30.0,0.0,0.0
1696,78.0,0.0,90.0,0.0,0.0
1697,81.0,10.0,90.0,0.0,0.0
1698,50.0,30.0,30.0,0.0,0.0
1699,62.0,0.0,30.0,0.0,0.0
1700,77.0,80.0,15.0,0.0,0.0
1701,80.0,0.0,15.0,0.0,0.0
1702,78.0,0.0,90.0,0.0,0.0
1703,81.0,0.0,90.0,0.0,0.0
1704,62.0,30.0,30.0,0.0,0.0
1705,74.0,10.0,30.0,0.0,0.0
1706,77.0,80.0,15.0,0.0,0.0
1707,80.0,0.0,15.0,0.0,0.0
1708,78.0,0.0,90.0,0.0,0.0
1709,81.0,0.0,90.0,0.0,0.0
1710,74.0,30.0,30.0,0.0,0.0
1711,86.0,10.0,30.0,0.0,0.0
1712,79.0,50.0,15.0,0.0,0.0
1713,76.0,0.0,15.0,0.0,0.0
1714,76.0,10.0,30.0,0.0,0.0
1715,79.0,0.0,30.0,0.0,0.0
1716,74.0,50.0,15.0,0.0,0.0
1717,78.0,0.0,15.0,0.0,0.0
1718,78.0,0.0,30.0,0.0,0.0
1719,74.0,10.0,30.0,0.0,0.0
1720,73.0,50.0,15.0,0.0,0.0
1721,76.0,0.0,15.0,0.0,0.0
1722,73.0,10.0,30.0,0.0,0.0
1723,76.0,0.0,30.0,0.0,0.0
1724,74.0,0.0,15.0,0.0,0.0
1725,71.0,50.0,15.0,0.0,0.0
1726,74.0,10.0,30.0,0.0,0.0
1727,71.0,0.0,30.0,0.0,0.0
1728,73.0,0.0,15.0,0.0,0.0
1729,69.0,50.0,15.0,0.0,0.0
1730,73.0,0.0,30.0,0.0,0.0
1731,69.0,10.0,30.0,0.0,0.0
1732,67.0,50.0,15.0,0.0,0.0
1733,71.0,0.0,15.0,0.0,0.0
1734,67.0,10.0,30.0,0.0,0.0
1735,71.0,0.0,30.0,0.0,0.0
1736,66.0,110.0,15.0,0.0,0.0
1737,69.0,0.0,15.0,0.0,0.0
1738,66.0,30.0,120.0,0.0,0.0
1739,63.0,0.0,120.0,0.0,0.0
1740,45.0,30.0,30.0,0.0,0.0
1741,64.0,0.0,60.0,0.0,0.0
1742,45.0,30.0,30.0,0.0,0.0
1743,67.0,30.0,60.0,0.0,0.0
1744,45.0,90.0,30.0,0.0,0.0
1745,79.0,0.0,90.0,0.0,0.0
1746,76.0,10.0,90.0,0.0,0.0
1747,45.0,30.0,30.0,0.0,0.0
1748,57.0,0.0,30.0,0.0,0.0
1749,78.0,80.0,15.0,0.0,0.0
1750,75.0,0.0,15.0,0.0,0.0
1751,79.0,10.0,90.0,0.0,0.0
1752,76.0,0.0,90.0,0.0,0.0
1753,57.0,30.0,30.0,0.0,0.0
1754,69.0,0.0,30.0,0.0,0.0
1755,75.0,0.0,15.0,0.0,0.0
1756,78.0,80.0,15.0,0.0,0.0
1757,76.0,10.0,90.0,0.0,0.0
1758,79.0,0.0,90.0,0.0,0.0
1759,58.0,30.0,30.0,0.0,0.0
1760,70.0,0.0,30.0,0.0,0.0
1761,78.0,0.0,15.0,0.0,0.0
1762,75.0,80.0,15.0,0.0,0.0
1763,76.0,0.0,90.0,0.0,0.0
1764,79.0,10.0,90.0,0.0,0.0
1765,58.0,30.0,30.0,0.0,0.0
1766,70.0,0.0,30.0,0.0,0.0
1767,75.0,80.0,15.0,0.0,0.0
1768,78.0,0.0,15.0,0.0,0.0
1769,76.0,10.0,90.0,0.0,0.0
1770,79.0,0.0,90.0,0.0,0.0
1771,59.0,30.0,30.0,0.0,0.0
1772,71.0,0.0,30.0,0.0,0.0
1773,75.0,80.0,15.0,0.0,0.0
1774,78.0,0.0,15.0,0.0,0.0
1775,76.0,10.0,90.0,0.0,0.0
1776,79.0,0.0,90.0,0.0,0.0
1777,59.0,30.0,30.0,0.0,0.0
1778,71.0,0.0,30.0,0.0,0.0
1779,78.0,40.0,15.0,0.0,0.0
1780,75.0,0.0,15.0,0.0,0.0
1781,79.0,20.0,20.0,0.0,0.0
1782,48.0,10.0,150.0,0.0,0.0
1783,60.0,0.0,150.0,0.0,0.0
1784,76.0,20.0,20.0,0.0,0.0
1785,67.0,20.0,20.0,0.0,0.0
1786,79.0,20.0,20.0,0.0,0.0
1787,76.0,20.0,20.0,0.0,0.0
1788,67.0,20.0,20.0,0.0,0.0
1789,79.0,10.0,20.0,0.0,0.0
1790,76.0,20.0,20.0,0.0,0.0
1791,54.0,0.0,30.0,0.0,0.0
1792,67.0,20.0,20.0,0.0,0.0
1793,79.0,10.0,20.0,0.0,0.0
1794,55.0,10.0,30.0,0.0,0.0
1795,76.0,20.0,20.0,0.0,0.0
1796,51.0,20.0,30.0,0.0,0.0
1797,67.0,0.0,20.0,0.0,0.0
1798,79.0,10.0,20.0,0.0,0.0
1799,52.0,10.0,30.0,0.0,0.0
1800,76.0,20.0,20.0,0.0,0.0
1801,47.0,20.0,30.0,0.0,0.0
1802,67.0,0.0,20.0,0.0,0.0
1803,79.0,20.0,20.0,0.0,0.0
1804,48.0,10.0,90.0,0.0,0.0
1805,76.0,20.0,20.0,0.0,0.0
1806,67.0,20.0,20.0,0.0,0.0
1807,79.0,10.0,20.0,0.0,0.0
1808,76.0,20.0,20.0,0.0,0.0
1809,54.0,0.0,30.0,0.0,0.0
1810,67.0,20.0,20.0,0.0,0.0
1811,79.0,10.0,20.0,0.0,0.0
1812,55.0,10.0,30.0,0.0,0.0
1813,76.0,20.0,20.0,0.0,0.0
1814,51.0,20.0,30.0,0.0,0.0
1815,67.0,0.0,20.0,0.0,0.0
1816,79.0,10.0,20.0,0.0,0.0
1817,52.0,10.0,30.0,0.0,0.0
1818,76.0,20.0,20.0,0.0,0.0
1819,47.0,20.0,30.0,0.0,0.0
1820,67.0,0.0,20.0,0.0,0.0
1821,79.0,20.0,20.0,0.0,0.0
1822,48.0,10.0,90.0,0.0,0.0
1823,76.0,20.0,20.0,0.0,0.0
1824,67.0,20.0,20.0,0.0,0.0
1825,79.0,10.0,20.0,0.0,0.0
1826,76.0,20.0,20.0,0.0,0.0
1827,52.0,0.0,30.0,0.0,0.0
1828,67.0,20.0,20.0,0.0,0.0
1829,79.0,10.0,20.0,0.0,0.0
1830,48.0,10.0,30.0,0.0,0.0
1831,76.0,20.0,20.0,0.0,0.0
1832,47.0,15.0,30.0,0.0,0.0
1833,67.0,0.0,20.0,0.0,0.0
1834,78.0,20.0,20.0,0.0,0.0
1835,46.0,5.0,15.0,0.0,0.0
1836,76.0,5.0,20.0,0.0,0.0
1837,42.0,15.0,15.0,0.0,0.0
1838,66.0,15.0,20.0,0.0,0.0
1839,78.0,20.0,20.0,0.0,0.0
1840,46.0,5.0,15.0,0.0,0.0
1841,76.0,5.0,20.0,0.0,0.0
1842,49.0,15.0,15.0,0.0,0.0
1843,66.0,15.0,20.0,0.0,0.0
1844,78.0,20.0,20.0,0.0,0.0
1845,54.0,5.0,15.0,0.0,0.0
1846,76.0,5.0,20.0,0.0,0.0
1847,56.0,15.0,15.0,0.0,0.0
1848,66.0,15.0,20.0,0.0,0.0
1849,58.0,5.0,15.0,0.0,0.0
1850,78.0,20.0,20.0,0.0,0.0
1851,76.0,5.0,20.0,0.0,0.0
1852,59.0,15.0,15.0,0.0,0.0
1853,66.0,15.0,20.0,0.0,0.0
1854,78.0,20.0,20.0,0.0,0.0
1855,61.0,5.0,15.0,0.0,0.0
1856,76.0,5.0,20.0,0.0,0.0
1857,59.0,15.0,15.0,0.0,0.0
1858,66.0,15.0,20.0,0.0,0.0
1859,58.0,5.0,15.0,0.0,0.0
1860,78.0,20.0,20.0,0.0,0.0
1861,76.0,5.0,20.0,0.0,0.0
1862,55.0,15.0,15.0,0.0,0.0
1863,66.0,15.0,20.0,0.0,0.0
1864,78.0,20.0,20.0,0.0,0.0
1865,54.0,5.0,15.0,0.0,0.0
1866,76.0,5.0,20.0,0.0,0.0
1867,52.0,15.0,15.0,0.0,0.0
1868,66.0,15.0,20.0,0.0,0.0
1869,78.0,20.0,20.0,0.0,0.0
1870,50.0,5.0,15.0,0.0,0.0
1871,76.0,5.0,20.0,0.0,0.0
1872,49.0,15.0,15.0,0.0,0.0
1873,66.0,20.0,20.0,0.0,0.0
1874,47.0,10.0,150.0,0.0,0.0
1875,78.0,20.0,20.0,0.0,0.0
1876,74.0,20.0,20.0,0.0,0.0
1877,66.0,20.0,20.0,0.0,0.0
1878,78.0,20.0,20.0,0.0,0.0
1879,74.0,20.0,20.0,0.0,0.0
1880,71.0,20.0,20.0,0.0,0.0
1881,78.0,10.0,20.0,0.0,0.0
1882,74.0,20.0,20.0,0.0,0.0
1883,65.0,20.0,30.0,0.0,0.0
1884,71.0,0.0,20.0,0.0,0.0
1885,66.0,10.0,30.0,0.0,0.0
1886,78.0,10.0,20.0,0.0,0.0
1887,74.0,20.0,20.0,0.0,0.0
1888,61.0,0.0,30.0,0.0,0.0
1889,71.0,20.0,20.0,0.0,0.0
1890,78.0,10.0,20.0,0.0,0.0
1891,62.0,10.0,30.0,0.0,0.0
1892,74.0,20.0,20.0,0.0,0.0
1893,58.0,20.0,30.0,0.0,0.0
1894,71.0,0.0,20.0,0.0,0.0
1895,59.0,10.0,90.0,0.0,0.0
1896,78.0,20.0,20.0,0.0,0.0
1897,74.0,20.0,20.0,0.0,0.0
1898,71.0,20.0,20.0,0.0,0.0
1899,78.0,10.0,20.0,0.0,0.0
1900,74.0,20.0,20.0,0.0,0.0
1901,65.0,20.0,30.0,0.0,0.0
1902,71.0,0.0,20.0,0.0,0.0
1903,78.0,10.0,20.0,0.0,0.0
1904,66.0,10.0,30.0,0.0,0.0
1905,74.0,20.0,20.0,0.0,0.0
1906,61.0,20.0,30.0,0.0,0.0
1907,71.0,0.0,20.0,0.0,0.0
1908,62.0,10.0,30.0,0.0,0.0
1909,78.0,10.0,20.0,0.0,0.0
1910,74.0,20.0,20.0,0.0,0.0
1911,58.0,20.0,30.0,0.0,0.0
1912,71.0,0.0,20.0,0.0,0.0
1913,59.0,10.0,90.0,0.0,0.0
1914,78.0,20.0,20.0,0.0,0.0
1915,74.0,20.0,20.0,0.0,0.0
1916,71.0,20.0,20.0,0.0,0.0
1917,78.0,10.0,20.0,0.0,0.0
1918,74.0,20.0,20.0,0.0,0.0
1919,62.0,0.0,30.0,0.0,0.0
1920,71.0,20.0,20.0,0.0,0.0
1921,78.0,10.0,20.0,0.0,0.0
1922,59.0,10.0,30.0,0.0,0.0
1923,74.0,20.0,20.0,0.0,0.0
1924,57.0,15.0,30.0,0.0,0.0
1925,71.0,0.0,20.0,0.0,0.0
1926,76.0,20.0,20.0,0.0,0.0
1927,56.0,5.0,15.0,0.0,0.0
1928,74.0,5.0,20.0,0.0,0.0
1929,52.0,15.0,15.0,0.0,0.0
1930,71.0,15.0,20.0,0.0,0.0
1931,76.0,20.0,20.0,0.0,0.0
1932,56.0,5.0,15.0,0.0,0.0
1933,74.0,5.0,20.0,0.0,0.0
1934,59.0,15.0,15.0,0.0,0.0
1935,71.0,15.0,20.0,0.0,0.0
1936,76.0,20.0,20.0,0.0,0.0
1937,64.0,5.0,15.0,0.0,0.0
1938,74.0,5.0,20.0,0.0,0.0
1939,66.0,15.0,15.0,0.0,0.0
1940,71.0,15.0,20.0,0.0,0.0
1941,76.0,20.0,20.0,0.0,0.0
1942,68.0,5.0,15.0,0.0,0.0
1943,74.0,5.0,20.0,0.0,0.0
1944,69.0,15.0,15.0,0.0,0.0
1945,71.0,15.0,20.0,0.0,0.0
1946,76.0,20.0,20.0,0.0,0.0
1947,71.0,5.0,15.0,0.0,0.0
1948,74.0,5.0,20.0,0.0,0.0
1949,69.0,15.0,15.0,0.0,0.0
1950,71.0,15.0,20.0,0.0,0.0
1951,68.0,5.0,15.0,0.0,0.0
1952,80.0,20.0,20.0,0.0,0.0
1953,74.0,5.0,20.0,0.0,0.0
1954,65.0,15.0,15.0,0.0,0.0
1955,71.0,15.0,20.0,0.0,0.0
1956,80.0,20.0,20.0,0.0,0.0
1957,64.0,5.0,15.0,0.0,0.0
1958,74.0,5.0,20.0,0.0,0.0
1959,62.0,15.0,15.0,0.0,0.0
1960,71.0,15.0,20.0,0.0,0.0
1961,60.0,5.0,15.0,0.0,0.0
1962,80.0,20.0,20.0,0.0,0.0
1963,74.0,5.0,20.0,0.0,0.0
1964,59.0,15.0,15.0,0.0,0.0
1965,71.0,15.0,20.0,0.0,0.0
1966,81.0,20.0,20.0,0.0,0.0
1967,57.0,5.0,15.0,0.0,0.0
1968,72.0,5.0,20.0,0.0,0.0
1969,45.0,15.0,15.0,0.0,0.0
1970,69.0,15.0,20.0,0.0,0.0
1971,81.0,20.0,20.0,0.0,0.0
1972,48.0,5.0,15.0,0.0,0.0
1973,72.0,5.0,20.0,0.0,0.0
1974,52.0,15.0,15.0,0.0,0.0
1975,69.0,15.0,20.0,0.0,0.0
1976,81.0,20.0,20.0,0.0,0.0
1977,57.0,5.0,15.0,0.0,0.0
1978,72.0,5.0,20.0,0.0,0.0
1979,59.0,15.0,15.0,0.0,0.0
1980,69.0,15.0,20.0,0.0,0.0
1981,81.0,20.0,20.0,0.0,0.0
1982,60.0,5.0,15.0,0.0,0.0
1983,72.0,5.0,20.0,0.0,0.0
1984,62.0,15.0,15.0,0.0,0.0
1985,69.0,15.0,20.0,0.0,0.0
1986,64.0,5.0,15.0,0.0,0.0
1987,81.0,20.0,20.0,0.0,0.0
1988,73.0,5.0,20.0,0.0,0.0
1989,62.0,15.0,15.0,0.0,0.0
1990,69.0,15.0,20.0,0.0,0.0
1991,61.0,5.0,15.0,0.0,0.0
1992,79.0,20.0,20.0,0.0,0.0
1993,73.0,5.0,20.0,0.0,0.0
1994,59.0,15.0,15.0,0.0,0.0
1995,69.0,15.0,20.0,0.0,0.0
1996,57.0,5.0,15.0,0.0,0.0
1997,79.0,20.0,20.0,0.0,0.0
1998,73.0,5.0,20.0,0.0,0.0
1999,55.0,15.0,15.0,0.0,0.0
2000,69.0,15.0,20.0,0.0,0.0
2001,79.0,20.0,20.0,0.0,0.0
2002,54.0,5.0,15.0,0.0,0.0
2003,73.0,5.0,20.0,0.0,0.0
2004,52.0,15.0,15.0,0.0,0.0
2005,69.0,15.0,20.0,0.0,0.0
2006,79.0,20.0,20.0,0.0,0.0
2007,50.0,5.0,15.0,0.0,0.0
2008,74.0,5.0,20.0,0.0,0.0
2009,38.0,15.0,15.0,0.0,0.0
2010,69.0,15.0,20.0,0.0,0.0
2011,78.0,20.0,20.0,0.0,0.0
2012,42.0,5.0,15.0,0.0,0.0
2013,74.0,5.0,20.0,0.0,0.0
2014,45.0,15.0,15.0,0.0,0.0
2015,69.0,15.0,20.0,0.0,0.0
2016,78.0,20.0,20.0,0.0,0.0
2017,50.0,5.0,15.0,0.0,0.0
2018,74.0,5.0,20.0,0.0,0.0
2019,52.0,15.0,15.0,0.0,0.0
2020,69.0,15.0,20.0,0.0,0.0
2021,78.0,20.0,20.0,0.0,0.0
2022,54.0,5.0,15.0,0.0,0.0
2023,74.0,5.0,20.0,0.0,0.0
2024,55.0,15.0,15.0,0.0,0.0
2025,69.0,15.0,20.0,0.0,0.0
2026,78.0,20.0,20.0,0.0,0.0
2027,57.0,5.0,15.0,0.0,0.0
2028,74.0,5.0,20.0,0.0,0.0
2029,55.0,15.0,15.0,0.0,0.0
2030,69.0,15.0,20.0,0.0,0.0
2031,78.0,20.0,20.0,0.0,0.0
2032,54.0,5.0,15.0,0.0,0.0
2033,74.0,5.0,20.0,0.0,0.0
2034,52.0,15.0,15.0,0.0,0.0
2035,69.0,15.0,20.0,0.0,0.0
2036,78.0,20.0,20.0,0.0,0.0
2037,50.0,5.0,15.0,0.0,0.0
2038,74.0,5.0,20.0,0.0,0.0
2039,52.0,15.0,15.0,0.0,0.0
2040,69.0,15.0,20.0,0.0,0.0
2041,78.0,20.0,20.0,0.0,0.0
2042,54.0,5.0,15.0,0.0,0.0
2043,74.0,5.0,20.0,0.0,0.0
2044,55.0,15.0,15.0,0.0,0.0
2045,69.0,15.0,20.0,0.0,0.0
2046,78.0,20.0,20.0,0.0,0.0
2047,57.0,5.0,15.0,0.0,0.0
2048,74.0,5.0,20.0,0.0,0.0
2049,55.0,15.0,15.0,0.0,0.0
2050,69.0,15.0,20.0,0.0,0.0
2051,81.0,20.0,20.0,0.0,0.0
2052,54.0,5.0,15.0,0.0,0.0
2053,78.0,5.0,20.0,0.0,0.0
2054,52.0,15.0,15.0,0.0,0.0
2055,74.0,15.0,20.0,0.0,0.0
2056,81.0,20.0,20.0,0.0,0.0
2057,50.0,5.0,15.0,0.0,0.0
2058,78.0,5.0,20.0,0.0,0.0
2059,52.0,15.0,15.0,0.0,0.0
2060,74.0,15.0,20.0,0.0,0.0
2061,81.0,20.0,20.0,0.0,0.0
2062,54.0,5.0,15.0,0.0,0.0
2063,78.0,5.0,20.0,0.0,0.0
2064,55.0,15.0,15.0,0.0,0.0
2065,74.0,15.0,20.0,0.0,0.0
2066,81.0,20.0,20.0,0.0,0.0
2067,57.0,5.0,15.0,0.0,0.0
2068,78.0,5.0,20.0,0.0,0.0
2069,55.0,15.0,15.0,0.0,0.0
2070,74.0,15.0,20.0,0.0,0.0
2071,84.0,20.0,20.0,0.0,0.0
2072,54.0,5.0,15.0,0.0,0.0
2073,78.0,5.0,20.0,0.0,0.0
2074,52.0,15.0,15.0,0.0,0.0
2075,74.0,15.0,20.0,0.0,0.0
2076,84.0,20.0,20.0,0.0,0.0
2077,50.0,5.0,15.0,0.0,0.0
2078,78.0,5.0,20.0,0.0,0.0
2079,52.0,15.0,15.0,0.0,0.0
2080,74.0,15.0,20.0,0.0,0.0
2081,54.0,5.0,15.0,0.0,0.0
2082,84.0,20.0,20.0,0.0,0.0
2083,78.0,5.0,20.0,0.0,0.0
2084,55.0,15.0,15.0,0.0,0.0
2085,74.0,20.0,20.0,0.0,0.0
2086,57.0,10.0,30.0,0.0,0.0
2087,84.0,10.0,20.0,0.0,0.0
2088,78.0,20.0,20.0,0.0,0.0
2089,59.0,20.0,30.0,0.0,0.0
2090,74.0,0.0,20.0,0.0,0.0
2091,81.0,10.0,20.0,0.0,0.0
2092,60.0,10.0,30.0,0.0,0.0
2093,50.0,20.0,60.0,0.0,0.0
2094,78.0,20.0,20.0,0.0,0.0
2095,59.0,0.0,30.0,0.0,0.0
2096,74.0,0.0,20.0,0.0,0.0
2097,81.0,10.0,20.0,0.0,0.0
2098,60.0,10.0,30.0,0.0,0.0
2099,50.0,20.0,60.0,0.0,0.0
2100,78.0,20.0,20.0,0.0,0.0
2101,59.0,0.0,30.0,0.0,0.0
2102,74.0,0.0,20.0,0.0,0.0
2103,81.0,10.0,20.0,0.0,0.0
2104,60.0,10.0,30.0,0.0,0.0
2105,50.0,0.0,60.0,0.0,0.0
2106,78.0,20.0,20.0,0.0,0.0
2107,59.0,0.0,30.0,0.0,0.0
2108,74.0,120.0,20.0,0.0,0.0
2109,60.0,0.0,120.0,0.0,0.0
2110,50.0,0.0,120.0,0.0,0.0
2111,74.0,0.0,120.0,0.0,0.0
2112,78.0,60.0,120.0,0.0,0.0
2113,81.0,0.0,120.0,0.0,0.0
2114,74.0,30.0,30.0,0.0,0.0
2115,86.0,30.0,30.0,0.0,0.0
2116,82.0,30.0,30.0,0.0,0.0
2117,83.0,30.0,30.0,0.0,0.0
2118,78.0,90.0,30.0,0.0,0.0
2119,79.0,30.0,90.0,0.0,0.0
2120,55.0,0.0,180.0,0.0,0.0
2121,59.0,0.0,150.0,0.0,0.0
2122,62.0,0.0,120.0,0.0,0.0
2123,74.0,30.0,30.0,0.0,0.0
2124,86.0,30.0,30.0,0.0,0.0
2125,82.0,30.0,30.0,0.0,0.0
2126,83.0,30.0,30.0,0.0,0.0
2127,78.0,90.0,30.0,0.0,0.0
2128,79.0,30.0,90.0,0.0,0.0
2129,67.0,30.0,180.0,0.0,0.0
2130,71.0,0.0,150.0,0.0,0.0
2131,74.0,0.0,120.0,0.0,0.0
2132,76.0,30.0,30.0,0.0,0.0
2133,88.0,30.0,30.0,0.0,0.0
2134,83.0,0.0,30.0,0.0,0.0
2135,84.0,30.0,30.0,0.0,0.0
2136,80.0,90.0,30.0,0.0,0.0
2137,81.0,30.0,90.0,0.0,0.0
2138,55.0,0.0,180.0,0.0,0.0
2139,60.0,0.0,150.0,0.0,0.0
2140,64.0,0.0,120.0,0.0,0.0
2141,76.0,30.0,30.0,0.0,0.0
2142,88.0,30.0,30.0,0.0,0.0
2143,83.0,30.0,30.0,0.0,0.0
2144,84.0,30.0,30.0,0.0,0.0
2145,80.0,90.0,30.0,0.0,0.0
2146,81.0,30.0,90.0,0.0,0.0
2147,67.0,60.0,180.0,0.0,0.0
2148,72.0,0.0,150.0,0.0,0.0
2149,76.0,0.0,120.0,0.0,0.0
2150,81.0,15.0,30.0,0.0,0.0
2151,93.0,30.0,15.0,0.0,0.0
2152,93.0,15.0,15.0,0.0,0.0
2153,93.0,30.0,90.0,0.0,0.0
2154,66.0,30.0,30.0,0.0,0.0
2155,69.0,0.0,30.0,0.0,0.0
2156,91.0,30.0,30.0,0.0,0.0
2157,74.0,0.0,30.0,0.0,0.0
2158,90.0,30.0,30.0,0.0,0.0
2159,62.0,30.0,30.0,0.0,0.0
2160,88.0,0.0,30.0,0.0,0.0
2161,66.0,30.0,30.0,0.0,0.0
2162,86.0,0.0,30.0,0.0,0.0
2163,69.0,0.0,30.0,0.0,0.0
2164,84.0,60.0,30.0,0.0,0.0
2165,83.0,30.0,90.0,0.0,0.0
2166,63.0,30.0,30.0,0.0,0.0
2167,66.0,0.0,30.0,0.0,0.0
2168,81.0,30.0,30.0,0.0,0.0
2169,71.0,0.0,30.0,0.0,0.0
2170,79.0,30.0,30.0,0.0,0.0
2171,78.0,30.0,30.0,0.0,0.0
2172,64.0,0.0,30.0,0.0,0.0
2173,76.0,30.0,30.0,0.0,0.0
2174,67.0,0.0,30.0,0.0,0.0
2175,59.0,60.0,30.0,0.0,0.0
2176,74.0,0.0,30.0,0.0,0.0
2177,73.0,0.0,90.0,0.0,0.0
2178,58.0,30.0,30.0,0.0,0.0
2179,61.0,30.0,30.0,0.0,0.0
2180,71.0,0.0,30.0,0.0,0.0
2181,66.0,30.0,30.0,0.0,0.0
2182,70.0,30.0,30.0,0.0,0.0
2183,54.0,0.0,30.0,0.0,0.0
2184,67.0,30.0,30.0,0.0,0.0
2185,66.0,30.0,30.0,0.0,0.0
2186,58.0,0.0,30.0,0.0,0.0
2187,64.0,60.0,30.0,0.0,0.0
2188,61.0,0.0,30.0,0.0,0.0
2189,62.0,0.0,90.0,0.0,0.0
2190,47.0,30.0,30.0,0.0,0.0
2191,50.0,30.0,30.0,0.0,0.0
2192,61.0,30.0,30.0,0.0,0.0
2193,54.0,0.0,30.0,0.0,0.0
2194,59.0,30.0,30.0,0.0,0.0
2195,61.0,0.0,30.0,0.0,0.0
2196,43.0,15.0,30.0,0.0,0.0
2197,62.0,15.0,30.0,0.0,0.0
2198,55.0,15.0,15.0,0.0,0.0
2199,65.0,30.0,30.0,0.0,0.0
2200,55.0,15.0,15.0,0.0,0.0
2201,42.0,15.0,60.0,0.0,0.0
2202,66.0,15.0,15.0,0.0,0.0
2203,68.0,15.0,15.0,0.0,0.0
2204,70.0,0.0,15.0,0.0,0.0
2205,71.0,15.0,15.0,0.0,0.0
2206,54.0,0.0,420.0,0.0,0.0
2207,73.0,15.0,15.0,0.0,0.0
2208,75.0,15.0,15.0,0.0,0.0
2209,77.0,15.0,15.0,0.0,0.0
2210,78.0,15.0,15.0,0.0,0.0
2211,80.0,15.0,15.0,0.0,0.0
2212,82.0,15.0,15.0,0.0,0.0
2213,83.0,15.0,15.0,0.0,0.0
2214,85.0,15.0,15.0,0.0,0.0
2215,64.0,15.0,60.0,0.0,0.0
2216,78.0,15.0,15.0,0.0,0.0
2217,80.0,15.0,15.0,0.0,0.0
2218,82.0,0.0,15.0,0.0,0.0
2219,62.0,15.0,60.0,0.0,0.0
2220,83.0,15.0,15.0,0.0,0.0
2221,85.0,15.0,15.0,0.0,0.0
2222,86.0,15.0,15.0,0.0,0.0
2223,88.0,0.0,15.0,0.0,0.0
2224,90.0,15.0,15.0,0.0,0.0
2225,58.0,15.0,60.0,0.0,0.0
2226,91.0,15.0,15.0,0.0,0.0
2227,90.0,15.0,15.0,0.0,0.0
2228,88.0,0.0,15.0,0.0,0.0
2229,86.0,15.0,15.0,0.0,0.0
2230,59.0,0.0,60.0,0.0,0.0
2231,88.0,15.0,15.0,0.0,0.0
2232,86.0,15.0,15.0,0.0,0.0
2233,85.0,15.0,15.0,0.0,0.0
2234,65.0,0.0,60.0,0.0,0.0
2235,83.0,15.0,15.0,0.0,0.0
2236,86.0,15.0,15.0,0.0,0.0
2237,85.0,15.0,15.0,0.0,0.0
2238,83.0,8.0,15.0,0.0,0.0
2239,82.0,22.0,15.0,0.0,0.0
2240,54.0,8.0,480.0,0.0,0.0
2241,66.0,15.0,15.0,0.0,0.0
2242,68.0,15.0,15.0,0.0,0.0
2243,70.0,15.0,15.0,0.0,0.0
2244,71.0,15.0,15.0,0.0,0.0
2245,66.0,15.0,120.0,0.0,0.0
2246,73.0,15.0,15.0,0.0,0.0
2247,75.0,15.0,15.0,0.0,0.0
2248,77.0,15.0,15.0,0.0,0.0
2249,78.0,15.0,15.0,0.0,0.0
2250,80.0,15.0,15.0,0.0,0.0
2251,82.0,15.0,15.0,0.0,0.0
2252,83.0,0.0,15.0,0.0,0.0
2253,85.0,15.0,15.0,0.0,0.0
2254,64.0,0.0,60.0,0.0,0.0
2255,78.0,15.0,15.0,0.0,0.0
2256,80.0,15.0,15.0,0.0,0.0
2257,82.0,15.0,15.0,0.0,0.0
2258,62.0,15.0,60.0,0.0,0.0
2259,83.0,15.0,15.0,0.0,0.0
2260,85.0,15.0,15.0,0.0,0.0
2261,86.0,15.0,15.0,0.0,0.0
2262,88.0,0.0,15.0,0.0,0.0
2263,58.0,0.0,60.0,0.0,0.0
2264,90.0,15.0,15.0,0.0,0.0
2265,91.0,15.0,15.0,0.0,0.0
2266,90.0,15.0,15.0,0.0,0.0
2267,88.0,15.0,15.0,0.0,0.0
2268,59.0,15.0,60.0,0.0,0.0
2269,86.0,15.0,15.0,0.0,0.0
2270,88.0,15.0,15.0,0.0,0.0
2271,86.0,15.0,15.0,0.0,0.0
2272,85.0,0.0,15.0,0.0,0.0
2273,83.0,15.0,15.0,0.0,0.0
2274,65.0,0.0,60.0,0.0,0.0
2275,86.0,15.0,15.0,0.0,0.0
2276,85.0,15.0,15.0,0.0,0.0
2277,83.0,0.0,15.0,0.0,0.0
2278,82.0,22.0,15.0,0.0,0.0
2279,54.0,15.0,480.0,0.0,0.0
2280,66.0,15.0,15.0,0.0,0.0
2281,68.0,15.0,15.0,0.0,0.0
2282,70.0,15.0,15.0,0.0,0.0
2283,66.0,15.0,120.0,0.0,0.0
2284,71.0,15.0,15.0,0.0,0.0
2285,73.0,15.0,15.0,0.0,0.0
2286,75.0,15.0,15.0,0.0,0.0
2287,77.0,15.0,15.0,0.0,0.0
2288,78.0,15.0,15.0,0.0,0.0
2289,80.0,15.0,15.0,0.0,0.0
2290,82.0,15.0,15.0,0.0,0.0
2291,83.0,0.0,15.0,0.0,0.0
2292,85.0,15.0,15.0,0.0,0.0
2293,64.0,0.0,60.0,0.0,0.0
2294,78.0,15.0,15.0,0.0,0.0
2295,80.0,15.0,15.0,0.0,0.0
2296,82.0,15.0,15.0,0.0,0.0
2297,62.0,15.0,60.0,0.0,0.0
2298,83.0,15.0,15.0,0.0,0.0
2299,85.0,15.0,15.0,0.0,0.0
2300,86.0,15.0,15.0,0.0,0.0
2301,88.0,0.0,15.0,0.0,0.0
2302,90.0,15.0,15.0,0.0,0.0
2303,58.0,15.0,60.0,0.0,0.0
2304,91.0,15.0,15.0,0.0,0.0
2305,90.0,15.0,15.0,0.0,0.0
2306,88.0,0.0,15.0,0.0,0.0
2307,86.0,15.0,15.0,0.0,0.0
2308,59.0,15.0,60.0,0.0,0.0
2309,88.0,15.0,15.0,0.0,0.0
2310,86.0,15.0,15.0,0.0,0.0
2311,85.0,0.0,15.0,0.0,0.0
2312,83.0,15.0,15.0,0.0,0.0
2313,65.0,0.0,60.0,0.0,0.0
2314,86.0,15.0,15.0,0.0,0.0
2315,85.0,15.0,15.0,0.0,0.0
2316,83.0,0.0,15.0,0.0,0.0
2317,82.0,15.0,15.0,0.0,0.0
2318,54.0,0.0,480.0,0.0,0.0
2319,66.0,15.0,60.0,0.0,0.0
2320,85.0,15.0,15.0,0.0,0.0
2321,83.0,15.0,15.0,0.0,0.0
2322,82.0,0.0,15.0,0.0,0.0
2323,83.0,15.0,15.0,0.0,0.0
2324,65.0,15.0,60.0,0.0,0.0
2325,86.0,15.0,15.0,0.0,0.0
2326,85.0,15.0,15.0,0.0,0.0
2327,83.0,0.0,15.0,0.0,0.0
2328,66.0,15.0,60.0,0.0,0.0
2329,82.0,15.0,15.0,0.0,0.0
2330,85.0,15.0,15.0,0.0,0.0
2331,83.0,15.0,15.0,0.0,0.0
2332,82.0,0.0,15.0,0.0,0.0
2333,83.0,15.0,15.0,0.0,0.0
2334,65.0,15.0,60.0,0.0,0.0
2335,86.0,15.0,15.0,0.0,0.0
2336,85.0,15.0,15.0,0.0,0.0
2337,83.0,0.0,15.0,0.0,0.0
2338,82.0,15.0,15.0,0.0,0.0
2339,66.0,0.0,60.0,0.0,0.0
2340,85.0,15.0,15.0,0.0,0.0
2341,83.0,15.0,15.0,0.0,0.0
2342,82.0,15.0,15.0,0.0,0.0
2343,83.0,15.0,15.0,0.0,0.0
2344,65.0,0.0,60.0,0.0,0.0
2345,86.0,15.0,15.0,0.0,0.0
2346,85.0,15.0,15.0,0.0,0.0
2347,83.0,15.0,15.0,0.0,0.0
2348,66.0,15.0,60.0,0.0,0.0
2349,82.0,15.0,15.0,0.0,0.0
2350,85.0,15.0,15.0,0.0,0.0
2351,83.0,15.0,15.0,0.0,0.0
2352,82.0,0.0,15.0,0.0,0.0
2353,65.0,0.0,60.0,0.0,0.0
2354,83.0,15.0,15.0,0.0,0.0
2355,86.0,15.0,15.0,0.0,0.0
2356,85.0,15.0,15.0,0.0,0.0
2357,83.0,20.0,15.0,0.0,0.0
2358,66.0,10.0,20.0,0.0,0.0
2359,82.0,10.0,30.0,0.0,0.0
2360,70.0,20.0,20.0,0.0,0.0
2361,73.0,20.0,20.0,0.0,0.0
2362,66.0,20.0,20.0,0.0,0.0
2363,70.0,20.0,20.0,0.0,0.0
2364,73.0,20.0,20.0,0.0,0.0
2365,66.0,20.0,20.0,0.0,0.0
2366,70.0,20.0,20.0,0.0,0.0
2367,60.0,20.0,30.0,0.0,0.0
2368,73.0,0.0,20.0,0.0,0.0
2369,61.0,10.0,30.0,0.0,0.0
2370,66.0,10.0,20.0,0.0,0.0
2371,70.0,20.0,20.0,0.0,0.0
2372,57.0,0.0,30.0,0.0,0.0
2373,73.0,20.0,20.0,0.0,0.0
2374,58.0,10.0,30.0,0.0,0.0
2375,66.0,10.0,20.0,0.0,0.0
2376,70.0,20.0,20.0,0.0,0.0
2377,73.0,20.0,20.0,0.0,0.0
2378,66.0,20.0,20.0,0.0,0.0
2379,70.0,20.0,20.0,0.0,0.0
2380,73.0,20.0,20.0,0.0,0.0
2381,66.0,20.0,20.0,0.0,0.0
2382,70.0,20.0,20.0,0.0,0.0
2383,84.0,0.0,30.0,0.0,0.0
2384,73.0,20.0,20.0,0.0,0.0
2385,85.0,10.0,30.0,0.0,0.0
2386,66.0,10.0,20.0,0.0,0.0
2387,70.0,20.0,20.0,0.0,0.0
2388,81.0,0.0,30.0,0.0,0.0
2389,73.0,20.0,20.0,0.0,0.0
2390,82.0,10.0,30.0,0.0,0.0
2391,66.0,10.0,20.0,0.0,0.0
2392,73.0,20.0,20.0,0.0,0.0
2393,76.0,20.0,20.0,0.0,0.0
2394,66.0,20.0,20.0,0.0,0.0
2395,73.0,20.0,20.0,0.0,0.0
2396,76.0,20.0,20.0,0.0,0.0
2397,66.0,20.0,20.0,0.0,0.0
2398,73.0,20.0,20.0,0.0,0.0
2399,63.0,0.0,30.0,0.0,0.0
2400,76.0,20.0,20.0,0.0,0.0
2401,64.0,10.0,30.0,0.0,0.0
2402,66.0,10.0,20.0,0.0,0.0
2403,73.0,20.0,20.0,0.0,0.0
2404,60.0,20.0,30.0,0.0,0.0
2405,76.0,0.0,20.0,0.0,0.0
2406,61.0,10.0,30.0,0.0,0.0
2407,66.0,10.0,20.0,0.0,0.0
2408,73.0,20.0,20.0,0.0,0.0
2409,76.0,20.0,20.0,0.0,0.0
2410,66.0,20.0,20.0,0.0,0.0
2411,73.0,20.0,20.0,0.0,0.0
2412,76.0,20.0,20.0,0.0,0.0
2413,66.0,20.0,20.0,0.0,0.0
2414,73.0,20.0,20.0,0.0,0.0
2415,87.0,0.0,30.0,0.0,0.0
2416,76.0,20.0,20.0,0.0,0.0
2417,66.0,10.0,20.0,0.0,0.0
2418,88.0,10.0,30.0,0.0,0.0
2419,73.0,20.0,20.0,0.0,0.0
2420,84.0,0.0,30.0,0.0,0.0
2421,76.0,15.0,20.0,0.0,0.0
2422,85.0,5.0,15.0,0.0,0.0
2423,66.0,20.0,20.0,0.0,0.0
2424,73.0,20.0,20.0,0.0,0.0
2425,63.0,0.0,30.0,0.0,0.0
2426,76.0,20.0,20.0,0.0,0.0
2427,66.0,10.0,20.0,0.0,0.0
2428,64.0,10.0,30.0,0.0,0.0
2429,73.0,20.0,20.0,0.0,0.0
2430,60.0,0.0,30.0,0.0,0.0
2431,76.0,15.0,20.0,0.0,0.0
2432,61.0,5.0,15.0,0.0,0.0
2433,66.0,20.0,20.0,0.0,0.0
2434,73.0,20.0,20.0,0.0,0.0
2435,87.0,20.0,30.0,0.0,0.0
2436,76.0,0.0,20.0,0.0,0.0
2437,88.0,10.0,30.0,0.0,0.0
2438,66.0,10.0,20.0,0.0,0.0
2439,73.0,20.0,20.0,0.0,0.0
2440,84.0,15.0,30.0,0.0,0.0
2441,76.0,0.0,20.0,0.0,0.0
2442,66.0,20.0,20.0,0.0,0.0
2443,85.0,5.0,15.0,0.0,0.0
2444,73.0,20.0,20.0,0.0,0.0
2445,63.0,0.0,30.0,0.0,0.0
2446,76.0,20.0,20.0,0.0,0.0
2447,66.0,10.0,20.0,0.0,0.0
2448,64.0,10.0,30.0,0.0,0.0
2449,73.0,20.0,20.0,0.0,0.0
2450,60.0,15.0,30.0,0.0,0.0
2451,76.0,0.0,20.0,0.0,0.0
2452,61.0,5.0,15.0,0.0,0.0
2453,66.0,20.0,20.0,0.0,0.0
2454,73.0,20.0,20.0,0.0,0.0
2455,87.0,20.0,30.0,0.0,0.0
2456,76.0,0.0,20.0,0.0,0.0
2457,88.0,10.0,30.0,0.0,0.0
2458,66.0,10.0,20.0,0.0,0.0
2459,73.0,20.0,20.0,0.0,0.0
2460,84.0,0.0,30.0,0.0,0.0
2461,76.0,15.0,20.0,0.0,0.0
2462,66.0,30.0,60.0,0.0,0.0
2463,76.0,0.0,60.0,0.0,0.0
2464,73.0,0.0,60.0,0.0,0.0
2465,85.0,45.0,15.0,0.0,0.0
2466,91.0,0.0,30.0,0.0,0.0
2467,92.0,30.0,30.0,0.0,0.0
2468,87.0,15.0,30.0,0.0,0.0
2469,88.0,45.0,15.0,0.0,0.0
2470,91.0,30.0,30.0,0.0,0.0
2471,92.0,30.0,30.0,0.0,0.0
2472,87.0,15.0,30.0,0.0,0.0
2473,88.0,45.0,15.0,0.0,0.0
2474,91.0,15.0,30.0,0.0,0.0
2475,92.0,45.0,15.0,0.0,0.0
2476,87.0,15.0,30.0,0.0,0.0
2477,88.0,45.0,15.0,0.0,0.0
2478,84.0,15.0,30.0,0.0,0.0
2479,85.0,45.0,15.0,0.0,0.0
2480,81.0,15.0,30.0,0.0,0.0
2481,82.0,45.0,15.0,0.0,0.0
2482,79.0,15.0,30.0,0.0,0.0
2483,80.0,45.0,15.0,0.0,0.0
2484,75.0,15.0,30.0,0.0,0.0
2485,76.0,45.0,15.0,0.0,0.0
2486,72.0,30.0,30.0,0.0,0.0
2487,73.0,15.0,30.0,0.0,0.0
2488,74.0,30.0,15.0,0.0,0.0
2489,75.0,30.0,15.0,0.0,0.0
2490,76.0,96.0,15.0,0.0,0.0
2491,77.0,39.0,90.0,0.0,0.0
2492,66.0,30.0,30.0,0.0,0.0
2493,78.0,30.0,30.0,0.0,0.0
2494,74.0,30.0,30.0,0.0,0.0
2495,75.0,30.0,30.0,0.0,0.0
2496,70.0,90.0,30.0,0.0,0.0
2497,71.0,30.0,90.0,0.0,0.0
2498,47.0,30.0,180.0,0.0,0.0
2499,51.0,0.0,150.0,0.0,0.0
2500,54.0,0.0,120.0,0.0,0.0
2501,66.0,30.0,30.0,0.0,0.0
2502,78.0,30.0,30.0,0.0,0.0
2503,74.0,0.0,30.0,0.0,0.0
2504,75.0,30.0,30.0,0.0,0.0
2505,70.0,90.0,30.0,0.0,0.0
2506,59.0,30.0,180.0,0.0,0.0
2507,71.0,30.0,90.0,0.0,0.0
2508,63.0,0.0,150.0,0.0,0.0
2509,66.0,0.0,120.0,0.0,0.0
2510,68.0,30.0,30.0,0.0,0.0
2511,80.0,30.0,30.0,0.0,0.0
2512,75.0,0.0,30.0,0.0,0.0
2513,76.0,30.0,30.0,0.0,0.0
2514,72.0,90.0,30.0,0.0,0.0
2515,73.0,30.0,90.0,0.0,0.0
2516,47.0,30.0,180.0,0.0,0.0
2517,52.0,0.0,150.0,0.0,0.0
2518,56.0,0.0,120.0,0.0,0.0
2519,68.0,30.0,30.0,0.0,0.0
2520,80.0,30.0,30.0,0.0,0.0
2521,75.0,0.0,30.0,0.0,0.0
2522,76.0,30.0,30.0,0.0,0.0
2523,72.0,90.0,30.0,0.0,0.0
2524,59.0,0.0,180.0,0.0,0.0
2525,73.0,30.0,90.0,0.0,0.0
2526,64.0,0.0,150.0,0.0,0.0
2527,68.0,60.0,120.0,0.0,0.0
2528,73.0,15.0,30.0,0.0,0.0
2529,88.0,30.0,15.0,0.0,0.0
2530,87.0,15.0,15.0,0.0,0.0
2531,85.0,30.0,90.0,0.0,0.0
2532,58.0,30.0,30.0,0.0,0.0
2533,61.0,0.0,30.0,0.0,0.0
2534,83.0,30.0,30.0,0.0,0.0
2535,66.0,0.0,30.0,0.0,0.0
2536,82.0,30.0,30.0,0.0,0.0
2537,54.0,30.0,30.0,0.0,0.0
2538,80.0,0.0,30.0,0.0,0.0
2539,78.0,26.0,30.0,0.0,0.0
2540,61.0,0.0,30.0,0.0,0.0
2541,76.0,4.0,30.0,0.0,0.0
2542,64.0,4.0,30.0,0.0,0.0
2543,78.0,26.0,15.0,0.0,0.0
2544,76.0,30.0,30.0,0.0,0.0
2545,75.0,30.0,60.0,0.0,0.0
2546,59.0,30.0,30.0,0.0,0.0
2547,63.0,0.0,30.0,0.0,0.0
2548,83.0,0.0,30.0,0.0,0.0
2549,66.0,30.0,30.0,0.0,0.0
2550,83.0,30.0,30.0,0.0,0.0
2551,73.0,30.0,60.0,0.0,0.0
2552,52.0,30.0,30.0,0.0,0.0
2553,56.0,0.0,30.0,0.0,0.0
2554,61.0,0.0,30.0,0.0,0.0
2555,80.0,30.0,30.0,0.0,0.0
2556,80.0,30.0,30.0,0.0,0.0
2557,71.0,0.0,60.0,0.0,0.0
2558,54.0,30.0,30.0,0.0,0.0
2559,59.0,30.0,30.0,0.0,0.0
2560,63.0,30.0,30.0,0.0,0.0
2561,78.0,0.0,30.0,0.0,0.0
2562,78.0,30.0,30.0,0.0,0.0
2563,42.0,30.0,30.0,0.0,0.0
2564,64.0,0.0,60.0,0.0,0.0
2565,49.0,30.0,30.0,0.0,0.0
2566,70.0,0.0,30.0,0.0,0.0
2567,54.0,30.0,30.0,0.0,0.0
2568,47.0,30.0,30.0,0.0,0.0
2569,71.0,0.0,120.0,0.0,0.0
2570,63.0,0.0,120.0,0.0,0.0
2571,51.0,30.0,30.0,0.0,0.0
2572,54.0,30.0,30.0,0.0,0.0
2573,51.0,30.0,30.0,0.0,0.0
2574,47.0,30.0,30.0,0.0,0.0
2575,51.0,30.0,30.0,0.0,0.0
2576,78.0,30.0,60.0,0.0,0.0
2577,54.0,30.0,30.0,0.0,0.0
2578,51.0,0.0,30.0,0.0,0.0
2579,78.0,0.0,30.0,0.0,0.0
2580,47.0,30.0,30.0,0.0,0.0
2581,51.0,30.0,30.0,0.0,0.0
2582,54.0,30.0,30.0,0.0,0.0
2583,78.0,0.0,30.0,0.0,0.0
2584,51.0,30.0,30.0,0.0,0.0
2585,47.0,30.0,30.0,0.0,0.0
2586,78.0,0.0,30.0,0.0,0.0
2587,51.0,12.0,30.0,0.0,0.0
2588,54.0,6.0,30.0,0.0,0.0
2589,78.0,12.0,15.0,0.0,0.0
2590,80.0,6.0,15.0,0.0,0.0
2591,78.0,12.0,15.0,0.0,0.0
2592,51.0,30.0,30.0,0.0,0.0
2593,77.0,12.0,15.0,0.0,0.0
2594,78.0,0.0,15.0,0.0,0.0
2595,80.0,30.0,120.0,0.0,0.0
2596,49.0,30.0,30.0,0.0,0.0
2597,52.0,30.0,30.0,0.0,0.0
2598,58.0,30.0,30.0,0.0,0.0
2599,52.0,0.0,30.0,0.0,0.0
2600,49.0,30.0,30.0,0.0,0.0
2601,78.0,0.0,60.0,0.0,0.0
2602,52.0,30.0,30.0,0.0,0.0
2603,58.0,30.0,30.0,0.0,0.0
2604,52.0,30.0,30.0,0.0,0.0
2605,49.0,30.0,30.0,0.0,0.0
2606,52.0,30.0,30.0,0.0,0.0
2607,58.0,15.0,30.0,0.0,0.0
2608,52.0,15.0,30.0,0.0,0.0
2609,78.0,15.0,15.0,0.0,0.0
2610,49.0,15.0,30.0,0.0,0.0
2611,78.0,15.0,15.0,0.0,0.0
2612,52.0,15.0,30.0,0.0,0.0
2613,78.0,15.0,15.0,0.0,0.0
2614,58.0,15.0,30.0,0.0,0.0
2615,78.0,15.0,15.0,0.0,0.0
2616,52.0,30.0,30.0,0.0,0.0
2617,78.0,15.0,15.0,0.0,0.0
2618,80.0,0.0,120.0,0.0,0.0
2619,51.0,30.0,30.0,0.0,0.0
2620,54.0,30.0,30.0,0.0,0.0
2621,59.0,30.0,30.0,0.0,0.0
2622,54.0,30.0,30.0,0.0,0.0
2623,51.0,30.0,30.0,0.0,0.0
2624,78.0,0.0,60.0,0.0,0.0
2625,54.0,30.0,30.0,0.0,0.0
2626,59.0,30.0,30.0,0.0,0.0
2627,54.0,30.0,30.0,0.0,0.0
2628,51.0,30.0,30.0,0.0,0.0
2629,57.0,30.0,30.0,0.0,0.0
2630,59.0,0.0,30.0,0.0,0.0
2631,83.0,30.0,30.0,0.0,0.0
2632,57.0,30.0,30.0,0.0,0.0
2633,83.0,0.0,30.0,0.0,0.0
2634,51.0,30.0,30.0,0.0,0.0
2635,57.0,12.0,30.0,0.0,0.0
2636,83.0,12.0,15.0,0.0,0.0
2637,59.0,6.0,30.0,0.0,0.0
2638,85.0,6.0,15.0,0.0,0.0
2639,83.0,12.0,15.0,0.0,0.0
2640,57.0,0.0,30.0,0.0,0.0
2641,82.0,12.0,15.0,0.0,0.0
2642,83.0,30.0,15.0,0.0,0.0
2643,52.0,30.0,30.0,0.0,0.0
2644,85.0,0.0,120.0,0.0,0.0
2645,56.0,30.0,30.0,0.0,0.0
2646,59.0,30.0,30.0,0.0,0.0
2647,56.0,30.0,30.0,0.0,0.0
2648,52.0,30.0,30.0,0.0,0.0
2649,83.0,30.0,60.0,0.0,0.0
2650,56.0,0.0,30.0,0.0,0.0
2651,59.0,30.0,30.0,0.0,0.0
2652,56.0,30.0,30.0,0.0,0.0
2653,54.0,30.0,30.0,0.0,0.0
2654,57.0,30.0,30.0,0.0,0.0
2655,63.0,15.0,30.0,0.0,0.0
2656,57.0,15.0,30.0,0.0,0.0
2657,83.0,15.0,15.0,0.0,0.0
2658,54.0,15.0,30.0,0.0,0.0
2659,83.0,15.0,15.0,0.0,0.0
2660,57.0,15.0,30.0,0.0,0.0
2661,83.0,15.0,15.0,0.0,0.0
2662,63.0,15.0,30.0,0.0,0.0
2663,83.0,15.0,15.0,0.0,0.0
2664,57.0,30.0,30.0,0.0,0.0
2665,83.0,15.0,15.0,0.0,0.0
2666,56.0,30.0,30.0,0.0,0.0
2667,85.0,0.0,60.0,0.0,0.0
2668,59.0,30.0,30.0,0.0,0.0
2669,64.0,30.0,30.0,0.0,0.0
2670,83.0,0.0,90.0,0.0,0.0
2671,59.0,30.0,30.0,0.0,0.0
2672,56.0,15.0,30.0,0.0,0.0
2673,59.0,0.0,30.0,0.0,0.0
2674,85.0,15.0,15.0,0.0,0.0
2675,83.0,15.0,15.0,0.0,0.0
2676,64.0,15.0,30.0,0.0,0.0
2677,81.0,15.0,15.0,0.0,0.0
2678,59.0,30.0,30.0,0.0,0.0
2679,80.0,15.0,15.0,0.0,0.0
2680,57.0,30.0,30.0,0.0,0.0
2681,80.0,30.0,60.0,0.0,0.0
2682,61.0,0.0,30.0,0.0,0.0
2683,78.0,0.0,120.0,0.0,0.0
2684,66.0,30.0,30.0,0.0,0.0
2685,61.0,30.0,30.0,0.0,0.0
2686,58.0,30.0,30.0,0.0,0.0
2687,61.0,30.0,30.0,0.0,0.0
2688,66.0,5.0,30.0,0.0,0.0
2689,76.0,10.0,30.0,0.0,0.0
2690,61.0,5.0,30.0,0.0,0.0
2691,75.0,10.0,15.0,0.0,0.0
2692,76.0,5.0,15.0,0.0,0.0
2693,78.0,25.0,15.0,0.0,0.0
2694,59.0,30.0,30.0,0.0,0.0
2695,76.0,0.0,60.0,0.0,0.0
2696,63.0,30.0,30.0,0.0,0.0
2697,75.0,0.0,120.0,0.0,0.0
2698,66.0,30.0,30.0,0.0,0.0
2699,63.0,30.0,30.0,0.0,0.0
2700,59.0,30.0,30.0,0.0,0.0
2701,63.0,30.0,30.0,0.0,0.0
2702,83.0,30.0,60.0,0.0,0.0
2703,68.0,30.0,30.0,0.0,0.0
2704,63.0,0.0,30.0,0.0,0.0
2705,83.0,30.0,60.0,0.0,0.0
2706,61.0,30.0,30.0,0.0,0.0
2707,64.0,0.0,30.0,0.0,0.0
2708,82.0,0.0,120.0,0.0,0.0
2709,68.0,30.0,30.0,0.0,0.0
2710,64.0,30.0,30.0,0.0,0.0
2711,61.0,30.0,30.0,0.0,0.0
2712,64.0,30.0,30.0,0.0,0.0
2713,70.0,5.0,30.0,0.0,0.0
2714,80.0,10.0,30.0,0.0,0.0
2715,64.0,5.0,30.0,0.0,0.0
2716,78.0,10.0,15.0,0.0,0.0
2717,80.0,5.0,15.0,0.0,0.0
2718,82.0,25.0,15.0,0.0,0.0
2719,63.0,30.0,30.0,0.0,0.0
2720,80.0,0.0,60.0,0.0,0.0
2721,66.0,30.0,30.0,0.0,0.0
2722,70.0,30.0,30.0,0.0,0.0
2723,78.0,0.0,120.0,0.0,0.0
2724,66.0,30.0,30.0,0.0,0.0
2725,63.0,30.0,30.0,0.0,0.0
2726,66.0,30.0,30.0,0.0,0.0
2727,87.0,0.0,60.0,0.0,0.0
2728,71.0,30.0,30.0,0.0,0.0
2729,66.0,30.0,30.0,0.0,0.0
2730,64.0,30.0,30.0,0.0,0.0
2731,87.0,0.0,60.0,0.0,0.0
2732,68.0,30.0,30.0,0.0,0.0
2733,73.0,30.0,30.0,0.0,0.0
2734,85.0,30.0,120.0,0.0,0.0
2735,68.0,30.0,30.0,0.0,0.0
2736,65.0,30.0,30.0,0.0,0.0
2737,68.0,0.0,30.0,0.0,0.0
2738,73.0,30.0,30.0,0.0,0.0
2739,83.0,0.0,60.0,0.0,0.0
2740,68.0,30.0,30.0,0.0,0.0
2741,66.0,30.0,30.0,0.0,0.0
2742,83.0,0.0,60.0,0.0,0.0
2743,73.0,30.0,30.0,0.0,0.0
2744,78.0,30.0,30.0,0.0,0.0
2745,82.0,30.0,120.0,0.0,0.0
2746,73.0,30.0,30.0,0.0,0.0
2747,66.0,30.0,30.0,0.0,0.0
2748,71.0,0.0,30.0,0.0,0.0
2749,80.0,30.0,60.0,0.0,0.0
2750,77.0,30.0,30.0,0.0,0.0
2751,71.0,0.0,30.0,0.0,0.0
2752,80.0,30.0,60.0,0.0,0.0
2753,66.0,30.0,30.0,0.0,0.0
2754,70.0,0.0,30.0,0.0,0.0
2755,78.0,0.0,60.0,0.0,0.0
2756,73.0,30.0,30.0,0.0,0.0
2757,70.0,30.0,30.0,0.0,0.0
2758,66.0,10.0,30.0,0.0,0.0
2759,83.0,20.0,20.0,0.0,0.0
2760,73.0,0.0,30.0,0.0,0.0
2761,85.0,20.0,20.0,0.0,0.0
2762,77.0,10.0,30.0,0.0,0.0
2763,87.0,10.0,20.0,0.0,0.0
2764,85.0,20.0,20.0,0.0,0.0
2765,73.0,30.0,30.0,0.0,0.0
2766,83.0,0.0,20.0,0.0,0.0
2767,66.0,30.0,30.0,0.0,0.0
2768,83.0,0.0,60.0,0.0,0.0
2769,73.0,30.0,30.0,0.0,0.0
2770,78.0,30.0,30.0,0.0,0.0
2771,82.0,0.0,60.0,0.0,0.0
2772,73.0,30.0,30.0,0.0,0.0
2773,66.0,10.0,30.0,0.0,0.0
2774,80.0,20.0,20.0,0.0,0.0
2775,71.0,20.0,30.0,0.0,0.0
2776,82.0,0.0,20.0,0.0,0.0
2777,83.0,10.0,20.0,0.0,0.0
2778,77.0,10.0,30.0,0.0,0.0
2779,82.0,20.0,20.0,0.0,0.0
2780,71.0,30.0,30.0,0.0,0.0
2781,80.0,0.0,20.0,0.0,0.0
2782,80.0,0.0,60.0,0.0,0.0
2783,66.0,30.0,30.0,0.0,0.0
2784,70.0,30.0,30.0,0.0,0.0
2785,73.0,30.0,30.0,0.0,0.0
2786,78.0,0.0,60.0,0.0,0.0
2787,70.0,30.0,30.0,0.0,0.0
2788,66.0,10.0,30.0,0.0,0.0
2789,83.0,20.0,20.0,0.0,0.0
2790,73.0,20.0,30.0,0.0,0.0
2791,85.0,0.0,20.0,0.0,0.0
2792,87.0,10.0,20.0,0.0,0.0
2793,77.0,10.0,30.0,0.0,0.0
2794,85.0,20.0,20.0,0.0,0.0
2795,73.0,20.0,30.0,0.0,0.0
2796,83.0,0.0,20.0,0.0,0.0
2797,66.0,10.0,30.0,0.0,0.0
2798,83.0,10.0,20.0,0.0,0.0
2799,82.0,20.0,20.0,0.0,0.0
2800,73.0,20.0,30.0,0.0,0.0
2801,83.0,0.0,20.0,0.0,0.0
2802,78.0,10.0,30.0,0.0,0.0
2803,85.0,10.0,20.0,0.0,0.0
2804,83.0,20.0,20.0,0.0,0.0
2805,73.0,0.0,30.0,0.0,0.0
2806,82.0,20.0,20.0,0.0,0.0
2807,82.0,10.0,20.0,0.0,0.0
2808,66.0,10.0,30.0,0.0,0.0
2809,80.0,20.0,20.0,0.0,0.0
2810,71.0,20.0,30.0,0.0,0.0
2811,82.0,0.0,20.0,0.0,0.0
2812,77.0,10.0,30.0,0.0,0.0
2813,83.0,10.0,20.0,0.0,0.0
2814,82.0,20.0,20.0,0.0,0.0
2815,71.0,0.0,30.0,0.0,0.0
2816,80.0,20.0,20.0,0.0,0.0
2817,70.0,0.0,60.0,0.0,0.0
2818,66.0,0.0,60.0,0.0,0.0
2819,80.0,20.0,20.0,0.0,0.0
2820,73.0,0.0,60.0,0.0,0.0
2821,78.0,20.0,20.0,0.0,0.0
2822,77.0,20.0,20.0,0.0,0.0
2823,78.0,20.0,20.0,0.0,0.0
2824,80.0,20.0,20.0,0.0,0.0
2825,82.0,20.0,20.0,0.0,0.0
2826,83.0,20.0,20.0,0.0,0.0
2827,84.0,20.0,20.0,0.0,0.0
2828,85.0,15.0,20.0,0.0,0.0
2829,86.0,15.0,15.0,0.0,0.0
2830,87.0,15.0,15.0,0.0,0.0
2831,88.0,15.0,15.0,0.0,0.0
2832,89.0,60.0,15.0,0.0,0.0
2833,90.0,60.0,60.0,0.0,0.0
2834,90.0,60.0,60.0,0.0,0.0
2835,90.0,60.0,60.0,0.0,0.0
2836,90.0,60.0,60.0,0.0,0.0
2837,87.0,10.0,90.0,0.0,0.0
2838,90.0,0.0,90.0,0.0,0.0
2839,47.0,30.0,30.0,0.0,0.0
2840,59.0,0.0,30.0,0.0,0.0
2841,86.0,80.0,15.0,0.0,0.0
2842,89.0,0.0,15.0,0.0,0.0
2843,87.0,0.0,90.0,0.0,0.0
2844,90.0,10.0,90.0,0.0,0.0
2845,59.0,30.0,30.0,0.0,0.0
2846,71.0,0.0,30.0,0.0,0.0
2847,89.0,80.0,15.0,0.0,0.0
2848,86.0,0.0,15.0,0.0,0.0
2849,90.0,0.0,90.0,0.0,0.0
2850,87.0,10.0,90.0,0.0,0.0
2851,71.0,30.0,30.0,0.0,0.0
2852,83.0,0.0,30.0,0.0,0.0
2853,88.0,50.0,15.0,0.0,0.0
2854,85.0,0.0,15.0,0.0,0.0
2855,85.0,10.0,30.0,0.0,0.0
2856,88.0,0.0,30.0,0.0,0.0
2857,83.0,0.0,15.0,0.0,0.0
2858,87.0,50.0,15.0,0.0,0.0
2859,83.0,10.0,30.0,0.0,0.0
2860,87.0,0.0,30.0,0.0,0.0
2861,82.0,50.0,15.0,0.0,0.0
2862,85.0,0.0,15.0,0.0,0.0
2863,82.0,0.0,30.0,0.0,0.0
2864,85.0,10.0,30.0,0.0,0.0
2865,80.0,0.0,15.0,0.0,0.0
2866,83.0,50.0,15.0,0.0,0.0
2867,80.0,10.0,30.0,0.0,0.0
2868,83.0,0.0,30.0,0.0,0.0
2869,78.0,50.0,15.0,0.0,0.0
2870,82.0,0.0,15.0,0.0,0.0
2871,78.0,10.0,30.0,0.0,0.0
2872,82.0,0.0,30.0,0.0,0.0
2873,76.0,50.0,15.0,0.0,0.0
2874,80.0,0.0,15.0,0.0,0.0
2875,80.0,0.0,30.0,0.0,0.0
2876,76.0,10.0,30.0,0.0,0.0
2877,78.0,0.0,15.0,0.0,0.0
2878,75.0,110.0,15.0,0.0,0.0
2879,72.0,30.0,120.0,0.0,0.0
2880,75.0,0.0,120.0,0.0,0.0
2881,42.0,30.0,30.0,0.0,0.0
2882,42.0,30.0,30.0,0.0,0.0
2883,73.0,0.0,60.0,0.0,0.0
2884,76.0,30.0,60.0,0.0,0.0
2885,42.0,90.0,30.0,0.0,0.0
2886,85.0,0.0,90.0,0.0,0.0
2887,88.0,0.0,90.0,0.0,0.0
2888,42.0,30.0,30.0,0.0,0.0
2889,54.0,10.0,30.0,0.0,0.0
2890,87.0,80.0,15.0,0.0,0.0
2891,84.0,0.0,15.0,0.0,0.0
2892,85.0,10.0,90.0,0.0,0.0
2893,88.0,0.0,90.0,0.0,0.0
2894,54.0,30.0,30.0,0.0,0.0
2895,66.0,0.0,30.0,0.0,0.0
2896,84.0,80.0,15.0,0.0,0.0
2897,87.0,0.0,15.0,0.0,0.0
2898,88.0,10.0,90.0,0.0,0.0
2899,85.0,0.0,90.0,0.0,0.0
2900,66.0,30.0,30.0,0.0,0.0
2901,78.0,0.0,30.0,0.0,0.0
2902,83.0,50.0,15.0,0.0,0.0
2903,87.0,0.0,15.0,0.0,0.0
2904,83.0,10.0,30.0,0.0,0.0
2905,87.0,0.0,30.0,0.0,0.0
2906,82.0,50.0,15.0,0.0,0.0
2907,85.0,0.0,15.0,0.0,0.0
2908,82.0,0.0,30.0,0.0,0.0
2909,85.0,10.0,30.0,0.0,0.0
2910,83.0,50.0,15.0,0.0,0.0
2911,80.0,0.0,15.0,0.0,0.0
2912,80.0,0.0,30.0,0.0,0.0
2913,83.0,10.0,30.0,0.0,0.0
2914,82.0,50.0,15.0,0.0,0.0
2915,78.0,0.0,15.0,0.0,0.0
2916,78.0,0.0,30.0,0.0,0.0
2917,82.0,10.0,30.0,0.0,0.0
2918,76.0,50.0,15.0,0.0,0.0
2919,80.0,0.0,15.0,0.0,0.0
2920,80.0,10.0,30.0,0.0,0.0
2921,76.0,0.0,30.0,0.0,0.0
2922,78.0,0.0,15.0,0.0,0.0
2923,75.0,50.0,15.0,0.0,0.0
2924,75.0,10.0,30.0,0.0,0.0
2925,78.0,0.0,30.0,0.0,0.0
2926,73.0,80.0,15.0,0.0,0.0
2927,76.0,0.0,15.0,0.0,0.0
2928,75.0,0.0,60.0,0.0,0.0
2929,71.0,30.0,60.0,0.0,0.0
2930,66.0,0.0,30.0,0.0,0.0
2931,59.0,30.0,30.0,0.0,0.0
2932,75.0,0.0,60.0,0.0,0.0
2933,80.0,0.0,60.0,0.0,0.0
2934,66.0,30.0,30.0,0.0,0.0
2935,73.0,30.0,60.0,0.0,0.0
2936,58.0,30.0,30.0,0.0,0.0
2937,78.0,0.0,60.0,0.0,0.0
2938,66.0,0.0,30.0,0.0,0.0
2939,70.0,0.0,60.0,0.0,0.0
2940,54.0,30.0,30.0,0.0,0.0
2941,76.0,60.0,60.0,0.0,0.0
2942,66.0,0.0,30.0,0.0,0.0
2943,75.0,0.0,60.0,0.0,0.0
2944,71.0,30.0,60.0,0.0,0.0
2945,66.0,0.0,30.0,0.0,0.0
2946,80.0,0.0,60.0,0.0,0.0
2947,75.0,30.0,60.0,0.0,0.0
2948,59.0,30.0,30.0,0.0,0.0
2949,66.0,0.0,30.0,0.0,0.0
2950,78.0,30.0,60.0,0.0,0.0
2951,58.0,30.0,30.0,0.0,0.0
2952,73.0,0.0,60.0,0.0,0.0
2953,66.0,0.0,30.0,0.0,0.0
2954,54.0,30.0,30.0,0.0,0.0
2955,76.0,0.0,60.0,0.0,0.0
2956,70.0,0.0,60.0,0.0,0.0
2957,66.0,60.0,30.0,0.0,0.0
2958,75.0,30.0,60.0,0.0,0.0
2959,59.0,30.0,120.0,0.0,0.0
2960,71.0,0.0,30.0,0.0,0.0
2961,80.0,0.0,60.0,0.0,0.0
2962,75.0,30.0,30.0,0.0,0.0
2963,71.0,0.0,30.0,0.0,0.0
2964,78.0,30.0,60.0,0.0,0.0
2965,61.0,30.0,120.0,0.0,0.0
2966,70.0,30.0,30.0,0.0,0.0
2967,73.0,0.0,30.0,0.0,0.0
2968,77.0,0.0,60.0,0.0,0.0
2969,68.0,30.0,30.0,0.0,0.0
2970,71.0,0.0,30.0,0.0,0.0
2971,54.0,0.0,60.0,0.0,0.0
2972,70.0,30.0,30.0,0.0,0.0
2973,78.0,0.0,60.0,0.0,0.0
2974,66.0,30.0,30.0,0.0,0.0
2975,73.0,30.0,30.0,0.0,0.0
2976,76.0,0.0,30.0,0.0,0.0
2977,66.0,30.0,30.0,0.0,0.0
2978,71.0,0.0,30.0,0.0,0.0
2979,75.0,30.0,30.0,0.0,0.0
2980,66.0,30.0,30.0,0.0,0.0
2981,70.0,0.0,30.0,0.0,0.0
2982,73.0,30.0,30.0,0.0,0.0
2983,66.0,30.0,30.0,0.0,0.0
2984,75.0,30.0,30.0,0.0,0.0
2985,71.0,0.0,30.0,0.0,0.0
2986,87.0,30.0,60.0,0.0,0.0
2987,66.0,0.0,30.0,0.0,0.0
2988,92.0,0.0,60.0,0.0,0.0
2989,80.0,0.0,60.0,0.0,0.0
2990,71.0,0.0,30.0,0.0,0.0
2991,75.0,30.0,30.0,0.0,0.0
2992,66.0,30.0,30.0,0.0,0.0
2993,90.0,0.0,60.0,0.0,0.0
2994,70.0,0.0,30.0,0.0,0.0
2995,73.0,30.0,30.0,0.0,0.0
2996,78.0,30.0,60.0,0.0,0.0
2997,66.0,0.0,30.0,0.0,0.0
2998,73.0,30.0,30.0,0.0,0.0
2999,76.0,0.0,30.0,0.0,0.0
3000,82.0,0.0,60.0,0.0,0.0
3001,88.0,30.0,60.0,0.0,0.0
3002,66.0,0.0,30.0,0.0,0.0
3003,71.0,30.0,30.0,0.0,0.0
3004,75.0,0.0,30.0,0.0,0.0
3005,83.0,30.0,60.0,0.0,0.0
3006,87.0,0.0,60.0,0.0,0.0
3007,66.0,0.0,30.0,0.0,0.0
3008,75.0,30.0,30.0,0.0,0.0
3009,71.0,0.0,30.0,0.0,0.0
3010,92.0,0.0,60.0,0.0,0.0
3011,80.0,30.0,60.0,0.0,0.0
3012,66.0,0.0,30.0,0.0,0.0
3013,73.0,30.0,30.0,0.0,0.0
3014,70.0,0.0,30.0,0.0,0.0
3015,78.0,30.0,60.0,0.0,0.0
3016,90.0,0.0,60.0,0.0,0.0
3017,66.0,0.0,30.0,0.0,0.0
3018,73.0,30.0,30.0,0.0,0.0
3019,88.0,0.0,60.0,0.0,0.0
3020,82.0,30.0,60.0,0.0,0.0
3021,76.0,0.0,30.0,0.0,0.0
3022,66.0,0.0,30.0,0.0,0.0
3023,87.0,0.0,60.0,0.0,0.0
3024,71.0,30.0,30.0,0.0,0.0
3025,83.0,30.0,60.0,0.0,0.0
3026,75.0,0.0,30.0,0.0,0.0
3027,83.0,30.0,120.0,0.0,0.0
3028,73.0,30.0,30.0,0.0,0.0
3029,76.0,30.0,30.0,0.0,0.0
3030,75.0,30.0,30.0,0.0,0.0
3031,78.0,0.0,30.0,0.0,0.0
3032,83.0,0.0,120.0,0.0,0.0
3033,76.0,30.0,30.0,0.0,0.0
3034,80.0,30.0,30.0,0.0,0.0
3035,78.0,30.0,30.0,0.0,0.0
3036,81.0,30.0,30.0,0.0,0.0
3037,77.0,30.0,30.0,0.0,0.0
3038,83.0,0.0,30.0,0.0,0.0
3039,80.0,30.0,30.0,0.0,0.0
3040,78.0,0.0,30.0,0.0,0.0
3041,83.0,30.0,30.0,0.0,0.0
3042,81.0,30.0,30.0,0.0,0.0
3043,83.0,30.0,30.0,0.0,0.0
3044,75.0,0.0,30.0,0.0,0.0
3045,79.0,15.0,30.0,0.0,0.0
3046,76.0,0.0,60.0,0.0,0.0
3047,80.0,15.0,15.0,0.0,0.0
3048,82.0,15.0,15.0,0.0,0.0
3049,80.0,15.0,15.0,0.0,0.0
3050,79.0,15.0,15.0,0.0,0.0
3051,80.0,15.0,15.0,0.0,0.0
3052,82.0,15.0,15.0,0.0,0.0
3053,83.0,15.0,15.0,0.0,0.0
3054,82.0,15.0,15.0,0.0,0.0
3055,80.0,15.0,15.0,0.0,0.0
3056,71.0,0.0,60.0,0.0,0.0
3057,68.0,0.0,60.0,0.0,0.0
3058,64.0,15.0,60.0,0.0,0.0
3059,82.0,15.0,15.0,0.0,0.0
3060,80.0,15.0,15.0,0.0,0.0
3061,79.0,0.0,15.0,0.0,0.0
3062,80.0,15.0,15.0,0.0,0.0
3063,82.0,15.0,15.0,0.0,0.0
3064,83.0,15.0,15.0,0.0,0.0
3065,82.0,15.0,15.0,0.0,0.0
3066,74.0,0.0,60.0,0.0,0.0
3067,83.0,15.0,15.0,0.0,0.0
3068,65.0,15.0,60.0,0.0,0.0
3069,68.0,0.0,60.0,0.0,0.0
3070,71.0,0.0,60.0,0.0,0.0
3071,85.0,15.0,15.0,0.0,0.0
3072,83.0,15.0,15.0,0.0,0.0
3073,82.0,0.0,15.0,0.0,0.0
3074,83.0,15.0,15.0,0.0,0.0
3075,85.0,15.0,15.0,0.0,0.0
3076,86.0,15.0,15.0,0.0,0.0
3077,85.0,15.0,15.0,0.0,0.0
3078,83.0,15.0,15.0,0.0,0.0
3079,71.0,0.0,60.0,0.0,0.0
3080,74.0,0.0,60.0,0.0,0.0
3081,65.0,0.0,60.0,0.0,0.0
3082,68.0,0.0,60.0,0.0,0.0
3083,85.0,15.0,15.0,0.0,0.0
3084,83.0,15.0,15.0,0.0,0.0
3085,82.0,15.0,15.0,0.0,0.0
3086,83.0,15.0,15.0,0.0,0.0
3087,85.0,15.0,15.0,0.0,0.0
3088,86.0,15.0,15.0,0.0,0.0
3089,85.0,15.0,15.0,0.0,0.0
3090,66.0,15.0,60.0,0.0,0.0
3091,83.0,15.0,15.0,0.0,0.0
3092,75.0,0.0,60.0,0.0,0.0
3093,71.0,0.0,60.0,0.0,0.0
3094,85.0,15.0,15.0,0.0,0.0
3095,83.0,15.0,15.0,0.0,0.0
3096,82.0,0.0,15.0,0.0,0.0
3097,83.0,15.0,15.0,0.0,0.0
3098,82.0,15.0,15.0,0.0,0.0
3099,83.0,15.0,15.0,0.0,0.0
3100,82.0,15.0,15.0,0.0,0.0
3101,83.0,15.0,15.0,0.0,0.0
3102,82.0,15.0,15.0,0.0,0.0
3103,80.0,15.0,15.0,0.0,0.0
3104,78.0,15.0,15.0,0.0,0.0
3105,76.0,15.0,15.0,0.0,0.0
3106,75.0,15.0,15.0,0.0,0.0
3107,73.0,15.0,15.0,0.0,0.0
3108,71.0,120.0,15.0,0.0,0.0
3109,66.0,0.0,120.0,0.0,0.0
3110,54.0,0.0,240.0,0.0,0.0
3111,75.0,120.0,120.0,0.0,0.0
3112,71.0,0.0,120.0,0.0,0.0
3113,70.0,0.0,120.0,0.0,0.0
3114,73.0,15.0,120.0,0.0,0.0
3115,64.0,0.0,120.0,0.0,0.0
3116,59.0,15.0,60.0,0.0,0.0
3117,63.0,0.0,60.0,0.0,0.0
3118,71.0,15.0,15.0,0.0,0.0
3119,73.0,15.0,15.0,0.0,0.0
3120,75.0,15.0,15.0,0.0,0.0
3121,76.0,0.0,15.0,0.0,0.0
3122,78.0,15.0,15.0,0.0,0.0
3123,76.0,15.0,15.0,0.0,0.0
3124,75.0,15.0,15.0,0.0,0.0
3125,73.0,15.0,15.0,0.0,0.0
3126,71.0,15.0,15.0,0.0,0.0
3127,70.0,15.0,15.0,0.0,0.0
3128,68.0,15.0,15.0,0.0,0.0
3129,66.0,15.0,15.0,0.0,0.0
3130,64.0,15.0,15.0,0.0,0.0
3131,63.0,15.0,15.0,0.0,0.0
3132,61.0,15.0,15.0,0.0,0.0
3133,59.0,120.0,15.0,0.0,0.0
3134,59.0,120.0,120.0,0.0,0.0
3135,63.0,0.0,120.0,0.0,0.0
3136,42.0,0.0,240.0,0.0,0.0
3137,54.0,0.0,120.0,0.0,0.0
3138,58.0,0.0,120.0,0.0,0.0
3139,61.0,30.0,120.0,0.0,0.0
3140,52.0,0.0,120.0,0.0,0.0
3141,51.0,30.0,60.0,0.0,0.0
3142,47.0,0.0,60.0,0.0,0.0
3143,59.0,30.0,30.0,0.0,0.0
3144,54.0,0.0,30.0,0.0,0.0
3145,59.0,30.0,30.0,0.0,0.0
3146,63.0,0.0,30.0,0.0,0.0
3147,54.0,30.0,30.0,0.0,0.0
3148,61.0,0.0,30.0,0.0,0.0
3149,64.0,30.0,30.0,0.0,0.0
3150,54.0,30.0,30.0,0.0,0.0
3151,65.0,30.0,30.0,0.0,0.0
3152,62.0,0.0,30.0,0.0,0.0
3153,54.0,70.0,30.0,0.0,0.0
3154,63.0,30.0,300.0,0.0,0.0
3155,66.0,0.0,300.0,0.0,0.0
3156,54.0,50.0,40.0,0.0,0.0
3157,35.0,10.0,60.0,0.0,0.0
3158,54.0,50.0,40.0,0.0,0.0
3159,39.0,10.0,60.0,0.0,0.0
3160,54.0,50.0,40.0,0.0,0.0
3161,42.0,10.0,60.0,0.0,0.0
3162,54.0,50.0,40.0,0.0,0.0
3163,47.0,60.0,240.0,0.0,0.0
3164,54.0,0.0,30.0,0.0,0.0
3165,63.0,30.0,60.0,0.0,0.0
3166,59.0,30.0,30.0,0.0,0.0
3167,54.0,0.0,30.0,0.0,0.0
3168,68.0,30.0,60.0,0.0,0.0
3169,64.0,30.0,30.0,0.0,0.0
3170,54.0,0.0,30.0,0.0,0.0
3171,66.0,10.0,60.0,0.0,0.0
3172,63.0,30.0,30.0,0.0,0.0
3173,54.0,0.0,30.0,0.0,0.0
3174,61.0,0.0,300.0,0.0,0.0
3175,64.0,0.0,300.0,0.0,0.0
3176,54.0,50.0,40.0,0.0,0.0
3177,47.0,10.0,60.0,0.0,0.0
3178,54.0,50.0,40.0,0.0,0.0
3179,46.0,10.0,60.0,0.0,0.0
3180,54.0,50.0,40.0,0.0,0.0
3181,44.0,10.0,60.0,0.0,0.0
3182,54.0,50.0,40.0,0.0,0.0
3183,46.0,30.0,120.0,0.0,0.0
3184,54.0,30.0,30.0,0.0,0.0
3185,64.0,0.0,60.0,0.0,0.0
3186,61.0,30.0,30.0,0.0,0.0
3187,54.0,0.0,30.0,0.0,0.0
3188,66.0,0.0,60.0,0.0,0.0
3189,63.0,30.0,30.0,0.0,0.0
3190,42.0,60.0,180.0,0.0,0.0
3191,54.0,30.0,30.0,0.0,0.0
3192,61.0,30.0,30.0,0.0,0.0
3193,64.0,60.0,60.0,0.0,0.0
3194,54.0,0.0,30.0,0.0,0.0
3195,59.0,30.0,300.0,0.0,0.0
3196,63.0,0.0,300.0,0.0,0.0
3197,54.0,0.0,30.0,0.0,0.0
3198,43.0,0.0,60.0,0.0,0.0
3199,55.0,60.0,30.0,0.0,0.0
3200,44.0,60.0,60.0,0.0,0.0
3201,56.0,0.0,30.0,0.0,0.0
3202,39.0,60.0,60.0,0.0,0.0
3203,51.0,0.0,30.0,0.0,0.0
3204,40.0,0.0,60.0,0.0,0.0
3205,52.0,0.0,30.0,0.0,0.0
3206,59.0,30.0,30.0,0.0,0.0
3207,41.0,0.0,60.0,0.0,0.0
3208,61.0,30.0,60.0,0.0,0.0
3209,53.0,0.0,30.0,0.0,0.0
3210,61.0,30.0,60.0,0.0,0.0
3211,59.0,30.0,30.0,0.0,0.0
3212,42.0,60.0,180.0,0.0,0.0
3213,54.0,0.0,30.0,0.0,0.0
3214,64.0,60.0,60.0,0.0,0.0
3215,58.0,30.0,30.0,0.0,0.0
3216,54.0,0.0,30.0,0.0,0.0
3217,59.0,0.0,300.0,0.0,0.0
3218,63.0,0.0,300.0,0.0,0.0
3219,54.0,0.0,30.0,0.0,0.0
3220,43.0,60.0,60.0,0.0,0.0
3221,55.0,0.0,30.0,0.0,0.0
3222,44.0,60.0,60.0,0.0,0.0
3223,56.0,0.0,30.0,0.0,0.0
3224,39.0,60.0,60.0,0.0,0.0
3225,51.0,0.0,30.0,0.0,0.0
3226,40.0,0.0,60.0,0.0,0.0
3227,52.0,30.0,30.0,0.0,0.0
3228,59.0,30.0,30.0,0.0,0.0
3229,61.0,30.0,60.0,0.0,0.0
3230,41.0,0.0,60.0,0.0,0.0
3231,53.0,0.0,30.0,0.0,0.0
3232,61.0,0.0,60.0,0.0,0.0
3233,59.0,30.0,30.0,0.0,0.0
3234,42.0,60.0,180.0,0.0,0.0
3235,54.0,30.0,30.0,0.0,0.0
3236,58.0,30.0,30.0,0.0,0.0
3237,64.0,60.0,60.0,0.0,0.0
3238,54.0,0.0,30.0,0.0,0.0
3239,59.0,30.0,300.0,0.0,0.0
3240,63.0,0.0,300.0,0.0,0.0
3241,54.0,0.0,30.0,0.0,0.0
3242,43.0,0.0,60.0,0.0,0.0
3243,55.0,60.0,30.0,0.0,0.0
3244,44.0,60.0,60.0,0.0,0.0
3245,56.0,0.0,30.0,0.0,0.0
3246,45.0,60.0,60.0,0.0,0.0
3247,57.0,0.0,30.0,0.0,0.0
3248,44.0,0.0,60.0,0.0,0.0
3249,56.0,0.0,30.0,0.0,0.0
3250,59.0,30.0,30.0,0.0,0.0
3251,45.0,0.0,60.0,0.0,0.0
3252,63.0,30.0,60.0,0.0,0.0
3253,54.0,0.0,30.0,0.0,0.0
3254,59.0,30.0,30.0,0.0,0.0
3255,64.0,0.0,60.0,0.0,0.0
3256,44.0,0.0,60.0,0.0,0.0
3257,56.0,30.0,30.0,0.0,0.0
3258,42.0,0.0,60.0,0.0,0.0
3259,63.0,30.0,30.0,0.0,0.0
3260,66.0,30.0,60.0,0.0,0.0
3261,57.0,0.0,30.0,0.0,0.0
3262,68.0,0.0,120.0,0.0,0.0
3263,59.0,30.0,30.0,0.0,0.0
3264,40.0,30.0,120.0,0.0,0.0
3265,56.0,30.0,30.0,0.0,0.0
3266,59.0,30.0,30.0,0.0,0.0
3267,56.0,0.0,30.0,0.0,0.0
3268,61.0,30.0,120.0,0.0,0.0
3269,41.0,0.0,120.0,0.0,0.0
3270,59.0,30.0,30.0,0.0,0.0
3271,56.0,30.0,30.0,0.0,0.0
3272,59.0,30.0,30.0,0.0,0.0
3273,56.0,0.0,30.0,0.0,0.0
3274,59.0,30.0,30.0,0.0,0.0
3275,63.0,0.0,120.0,0.0,0.0
3276,42.0,0.0,120.0,0.0,0.0
3277,54.0,30.0,30.0,0.0,0.0
3278,59.0,30.0,30.0,0.0,0.0
3279,54.0,30.0,30.0,0.0,0.0
3280,42.0,0.0,120.0,0.0,0.0
3281,58.0,30.0,30.0,0.0,0.0
3282,64.0,30.0,90.0,0.0,0.0
3283,54.0,30.0,30.0,0.0,0.0
3284,58.0,0.0,30.0,0.0,0.0
3285,54.0,0.0,30.0,0.0,0.0
3286,61.0,120.0,30.0,0.0,0.0
3287,59.0,60.0,120.0,0.0,0.0
3288,47.0,0.0,180.0,0.0,0.0
3289,51.0,0.0,150.0,0.0,0.0
3290,54.0,150.0,120.0,0.0,0.0
3291,66.0,30.0,30.0,0.0,0.0
3292,78.0,30.0,30.0,0.0,0.0
3293,74.0,0.0,30.0,0.0,0.0
3294,75.0,30.0,150.0,0.0,0.0
3295,47.0,0.0,180.0,0.0,0.0
3296,54.0,0.0,150.0,0.0,0.0
3297,57.0,0.0,120.0,0.0,0.0
3298,71.0,30.0,30.0,0.0,0.0
3299,83.0,30.0,30.0,0.0,0.0
3300,75.0,150.0,30.0,0.0,0.0
3301,76.0,30.0,150.0,0.0,0.0
3302,47.0,90.0,180.0,0.0,0.0
3303,52.0,0.0,150.0,0.0,0.0
3304,56.0,0.0,120.0,0.0,0.0
3305,76.0,15.0,30.0,0.0,0.0
3306,88.0,30.0,15.0,0.0,0.0
3307,87.0,15.0,15.0,0.0,0.0
3308,85.0,30.0,90.0,0.0,0.0
3309,47.0,60.0,180.0,0.0,0.0
3310,83.0,15.0,30.0,0.0,0.0
3311,54.0,0.0,150.0,0.0,0.0
3312,82.0,30.0,15.0,0.0,0.0
3313,58.0,0.0,120.0,0.0,0.0
3314,80.0,30.0,15.0,0.0,0.0
3315,78.0,30.0,15.0,0.0,0.0
3316,76.0,15.0,15.0,0.0,0.0
3317,74.0,60.0,60.0,0.0,0.0
3318,75.0,60.0,60.0,0.0,0.0
3319,47.0,0.0,180.0,0.0,0.0
3320,54.0,0.0,150.0,0.0,0.0
3321,59.0,150.0,120.0,0.0,0.0
3322,71.0,30.0,30.0,0.0,0.0
3323,78.0,30.0,30.0,0.0,0.0
3324,74.0,0.0,30.0,0.0,0.0
3325,75.0,30.0,150.0,0.0,0.0
3326,47.0,0.0,180.0,0.0,0.0
3327,54.0,0.0,150.0,0.0,0.0
3328,57.0,0.0,120.0,0.0,0.0
3329,71.0,30.0,30.0,0.0,0.0
3330,83.0,30.0,30.0,0.0,0.0
3331,75.0,150.0,30.0,0.0,0.0
3332,76.0,30.0,150.0,0.0,0.0
3333,47.0,150.0,180.0,0.0,0.0
3334,52.0,0.0,150.0,0.0,0.0
3335,56.0,0.0,120.0,0.0,0.0
3336,76.0,15.0,30.0,0.0,0.0
3337,92.0,30.0,15.0,0.0,0.0
3338,90.0,15.0,15.0,0.0,0.0
3339,88.0,15.0,150.0,0.0,0.0
3340,47.0,0.0,660.0,0.0,0.0
3341,49.0,0.0,630.0,0.0,0.0
3342,58.0,60.0,600.0,0.0,0.0
3343,87.0,30.0,15.0,0.0,0.0
3344,85.0,30.0,15.0,0.0,0.0
3345,83.0,30.0,15.0,0.0,0.0
3346,82.0,30.0,15.0,0.0,0.0
3347,80.0,30.0,15.0,0.0,0.0
3348,78.0,30.0,15.0,0.0,0.0
3349,76.0,30.0,15.0,0.0,0.0
3350,75.0,30.0,15.0,0.0,0.0
3351,73.0,30.0,15.0,0.0,0.0
3352,71.0,30.0,15.0,0.0,0.0
3353,70.0,45.0,15.0,0.0,0.0
3354,68.0,30.0,30.0,0.0,0.0
3355,66.0,30.0,30.0,0.0,0.0
3356,65.0,30.0,30.0,0.0,0.0
3357,66.0,30.0,30.0,0.0,0.0
3358,65.0,30.0,30.0,0.0,0.0
3359,66.0,30.0,30.0,0.0,0.0
3360,68.0,30.0,30.0,0.0,0.0
3361,64.0,0.0,30.0,0.0,0.0
3362,59.0,0.0,60.0,0.0,0.0
3363,63.0,0.0,60.0,0.0,0.0
3364,47.0,0.0,60.0,0.0,0.0
3365,51.0,0.0,60.0,0.0,0.0
3366,54.0,120.0,60.0,0.0,0.0
3367,66.0,30.0,120.0,0.0,0.0
3368,70.0,0.0,120.0,0.0,0.0
3369,79.0,30.0,30.0,0.0,0.0
3370,80.0,30.0,30.0,0.0,0.0
3371,76.0,0.0,30.0,0.0,0.0
3372,59.0,0.0,30.0,0.0,0.0
3373,71.0,0.0,30.0,0.0,0.0
3374,75.0,150.0,30.0,0.0,0.0
3375,82.0,180.0,120.0,0.0,0.0
3376,78.0,0.0,120.0,0.0,0.0
3377,91.0,30.0,30.0,0.0,0.0
3378,92.0,30.0,30.0,0.0,0.0
3379,88.0,0.0,30.0,0.0,0.0
3380,82.0,0.0,240.0,0.0,0.0
3381,78.0,0.0,240.0,0.0,0.0
3382,88.0,15.0,180.0,0.0,0.0
3383,87.0,15.0,15.0,0.0,0.0
3384,88.0,15.0,15.0,0.0,0.0
3385,90.0,15.0,15.0,0.0,0.0
3386,88.0,30.0,15.0,0.0,0.0
3387,83.0,0.0,30.0,0.0,0.0
3388,71.0,0.0,30.0,0.0,0.0
3389,87.0,0.0,30.0,0.0,0.0
