,note,step,duration,channel,velocity
0,55.0,0.0,90.0,14.0,0.0
1,55.0,26.0,90.0,13.0,0.0
2,60.0,94.0,30.0,14.0,0.0
3,60.0,0.0,30.0,13.0,0.0
4,64.0,0.0,90.0,14.0,0.0
5,36.0,90.0,240.0,15.0,0.0
6,64.0,120.0,90.0,13.0,0.0
7,64.0,0.0,90.0,13.0,0.0
8,64.0,30.0,90.0,14.0,0.0
9,62.0,0.0,30.0,13.0,0.0
10,62.0,0.0,30.0,14.0,0.0
11,60.0,26.0,90.0,13.0,0.0
12,60.0,0.0,90.0,14.0,0.0
13,64.0,0.0,30.0,13.0,0.0
14,64.0,214.0,30.0,14.0,0.0
15,57.0,0.0,210.0,13.0,0.0
16,41.0,0.0,240.0,15.0,0.0
17,57.0,30.0,210.0,14.0,0.0
18,61.0,90.0,30.0,13.0,0.0
19,61.0,0.0,30.0,14.0,0.0
20,62.0,26.0,90.0,14.0,0.0
21,62.0,0.0,90.0,13.0,0.0
22,64.0,0.0,30.0,13.0,0.0
23,64.0,94.0,30.0,14.0,0.0
24,65.0,0.0,90.0,13.0,0.0
25,38.0,90.0,120.0,15.0,0.0
26,65.0,26.0,90.0,14.0,0.0
27,64.0,4.0,30.0,13.0,0.0
28,64.0,0.0,30.0,14.0,0.0
29,35.0,0.0,120.0,15.0,0.0
30,62.0,30.0,90.0,13.0,0.0
31,62.0,0.0,90.0,14.0,0.0
32,65.0,0.0,30.0,13.0,0.0
33,65.0,90.0,30.0,14.0,0.0
34,59.0,26.0,90.0,13.0,0.0
35,38.0,90.0,120.0,15.0,0.0
36,59.0,0.0,90.0,14.0,0.0
37,62.0,4.0,30.0,13.0,0.0
38,62.0,0.0,30.0,14.0,0.0
39,40.0,90.0,240.0,15.0,0.0
40,56.0,0.0,90.0,14.0,0.0
41,56.0,26.0,90.0,13.0,0.0
42,59.0,0.0,30.0,14.0,0.0
43,59.0,124.0,30.0,13.0,0.0
44,64.0,0.0,210.0,14.0,0.0
45,64.0,26.0,210.0,13.0,0.0
46,62.0,0.0,30.0,13.0,0.0
47,62.0,94.0,30.0,14.0,0.0
48,61.0,0.0,90.0,13.0,0.0
49,45.0,120.0,120.0,15.0,0.0
50,61.0,26.0,90.0,14.0,0.0
51,57.0,0.0,30.0,13.0,0.0
52,57.0,4.0,30.0,14.0,0.0
53,38.0,60.0,120.0,15.0,0.0
54,62.0,0.0,180.0,14.0,0.0
55,62.0,56.0,180.0,13.0,0.0
56,65.0,0.0,60.0,14.0,0.0
57,65.0,94.0,60.0,13.0,0.0
58,59.0,0.0,90.0,13.0,0.0
59,59.0,26.0,90.0,14.0,0.0
60,43.0,112.0,120.0,15.0,0.0
61,55.0,0.0,30.0,13.0,0.0
62,55.0,4.0,30.0,14.0,0.0
63,60.0,0.0,120.0,14.0,0.0
64,60.0,8.0,120.0,13.0,0.0
65,36.0,90.0,120.0,15.0,0.0
66,60.0,26.0,90.0,14.0,0.0
67,60.0,0.0,90.0,13.0,0.0
68,64.0,0.0,30.0,13.0,0.0
69,64.0,124.0,30.0,14.0,0.0
70,31.0,232.0,120.0,15.0,0.0
71,67.0,8.0,360.0,13.0,0.0
72,67.0,120.0,360.0,14.0,0.0
73,36.0,210.0,120.0,15.0,0.0
74,64.0,0.0,120.0,14.0,0.0
75,64.0,0.0,120.0,13.0,0.0
76,52.0,0.0,90.0,14.0,0.0
77,60.0,0.0,90.0,3.0,0.0
78,40.0,0.0,90.0,15.0,0.0
79,72.0,0.0,90.0,11.0,0.0
80,67.0,0.0,90.0,12.0,0.0
81,64.0,26.0,90.0,13.0,0.0
82,55.0,0.0,120.0,13.0,0.0
83,36.0,0.0,30.0,15.0,0.0
84,76.0,0.0,30.0,11.0,0.0
85,64.0,0.0,30.0,12.0,0.0
86,60.0,0.0,30.0,13.0,0.0
87,48.0,0.0,30.0,14.0,0.0
88,64.0,364.0,30.0,3.0,0.0
89,31.0,0.0,360.0,15.0,0.0
90,79.0,120.0,360.0,11.0,0.0
91,59.0,0.0,360.0,13.0,0.0
92,62.0,0.0,360.0,12.0,0.0
93,67.0,0.0,360.0,3.0,0.0
94,55.0,0.0,360.0,13.0,0.0
95,43.0,0.0,360.0,14.0,0.0
96,48.0,0.0,120.0,14.0,0.0
97,55.0,0.0,120.0,13.0,0.0
98,60.0,0.0,120.0,13.0,0.0
99,36.0,0.0,120.0,15.0,0.0
100,64.0,206.0,120.0,3.0,0.0
101,76.0,0.0,120.0,11.0,0.0
102,64.0,0.0,120.0,12.0,0.0
103,76.0,0.0,90.0,2.0,0.0
104,79.0,0.0,90.0,2.0,0.0
105,79.0,4.0,120.0,1.0,0.0
106,84.0,22.0,90.0,0.0,0.0
107,72.0,4.0,90.0,3.0,0.0
108,72.0,0.0,30.0,2.0,0.0
109,76.0,0.0,30.0,2.0,0.0
110,72.0,0.0,30.0,3.0,0.0
111,88.0,244.0,30.0,0.0,0.0
112,79.0,4.0,360.0,2.0,0.0
113,74.0,0.0,360.0,2.0,0.0
114,79.0,60.0,240.0,1.0,0.0
115,71.0,0.0,360.0,3.0,0.0
116,67.0,0.0,360.0,3.0,0.0
117,91.0,0.0,360.0,0.0,0.0
118,81.0,52.0,60.0,1.0,0.0
119,83.0,124.0,60.0,1.0,0.0
120,89.0,0.0,120.0,0.0,0.0
121,72.0,0.0,360.0,2.0,0.0
122,69.0,128.0,360.0,3.0,0.0
123,84.0,0.0,360.0,1.0,0.0
124,77.0,232.0,120.0,2.0,0.0
125,76.0,0.0,240.0,2.0,0.0
126,88.0,0.0,240.0,0.0,0.0
127,74.0,0.0,120.0,2.0,0.0
128,79.0,120.0,360.0,1.0,0.0
129,64.0,0.0,360.0,3.0,0.0
130,86.0,232.0,120.0,0.0,0.0
131,67.0,0.0,360.0,2.0,0.0
132,84.0,0.0,240.0,0.0,0.0
133,72.0,0.0,240.0,2.0,0.0
134,74.0,0.0,120.0,2.0,0.0
135,77.0,120.0,120.0,2.0,0.0
136,79.0,0.0,120.0,1.0,0.0
137,83.0,48.0,240.0,0.0,0.0
138,67.0,0.0,120.0,3.0,0.0
139,74.0,0.0,120.0,2.0,0.0
140,77.0,0.0,120.0,2.0,0.0
141,67.0,0.0,120.0,3.0,0.0
142,79.0,0.0,120.0,1.0,0.0
143,74.0,22.0,90.0,2.0,0.0
144,67.0,0.0,120.0,3.0,0.0
145,77.0,0.0,120.0,2.0,0.0
146,83.0,40.0,30.0,0.0,0.0
147,79.0,4.0,120.0,1.0,0.0
148,84.0,10.0,30.0,0.0,0.0
149,86.0,0.0,30.0,0.0,0.0
150,71.0,124.0,30.0,2.0,0.0
151,72.0,0.0,120.0,2.0,0.0
152,84.0,0.0,120.0,0.0,0.0
153,79.0,0.0,120.0,1.0,0.0
154,60.0,120.0,120.0,3.0,0.0
155,67.0,0.0,120.0,3.0,0.0
156,76.0,0.0,120.0,2.0,0.0
157,72.0,0.0,60.0,11.0,0.0
158,60.0,60.0,60.0,12.0,0.0
159,64.0,0.0,60.0,12.0,0.0
160,76.0,56.0,60.0,11.0,0.0
161,79.0,64.0,60.0,11.0,0.0
162,67.0,0.0,60.0,12.0,0.0
163,48.0,0.0,360.0,3.0,0.0
164,60.0,0.0,360.0,3.0,0.0
165,72.0,4.0,360.0,13.0,0.0
166,57.0,0.0,360.0,14.0,0.0
167,67.0,0.0,60.0,12.0,0.0
168,79.0,56.0,60.0,11.0,0.0
169,45.0,0.0,360.0,15.0,0.0
170,77.0,0.0,60.0,11.0,0.0
171,65.0,180.0,60.0,12.0,0.0
172,64.0,0.0,180.0,12.0,0.0
173,76.0,56.0,180.0,11.0,0.0
174,64.0,64.0,60.0,12.0,0.0
175,76.0,0.0,60.0,11.0,0.0
176,52.0,0.0,360.0,14.0,0.0
177,64.0,0.0,60.0,12.0,0.0
178,55.0,4.0,360.0,3.0,0.0
179,60.0,0.0,360.0,3.0,0.0
180,67.0,0.0,360.0,13.0,0.0
181,76.0,56.0,60.0,11.0,0.0
182,40.0,0.0,360.0,15.0,0.0
183,74.0,0.0,60.0,11.0,0.0
184,62.0,180.0,60.0,12.0,0.0
185,72.0,0.0,180.0,11.0,0.0
186,60.0,56.0,180.0,12.0,0.0
187,64.0,0.0,120.0,2.0,0.0
188,67.0,0.0,120.0,2.0,0.0
189,60.0,0.0,60.0,12.0,0.0
190,72.0,116.0,60.0,11.0,0.0
191,67.0,0.0,120.0,2.0,0.0
192,55.0,0.0,120.0,3.0,0.0
193,62.0,0.0,120.0,3.0,0.0
194,62.0,0.0,120.0,13.0,0.0
195,71.0,0.0,240.0,11.0,0.0
196,59.0,0.0,240.0,12.0,0.0
197,65.0,0.0,120.0,13.0,0.0
198,55.0,120.0,120.0,14.0,0.0
199,43.0,0.0,120.0,15.0,0.0
200,65.0,0.0,120.0,2.0,0.0
201,67.0,0.0,120.0,2.0,0.0
202,62.0,0.0,120.0,13.0,0.0
203,55.0,0.0,120.0,3.0,0.0
204,62.0,48.0,120.0,3.0,0.0
205,43.0,0.0,120.0,15.0,0.0
206,65.0,0.0,120.0,13.0,0.0
207,65.0,0.0,120.0,2.0,0.0
208,55.0,0.0,120.0,14.0,0.0
209,71.0,0.0,30.0,11.0,0.0
210,65.0,0.0,120.0,13.0,0.0
211,62.0,22.0,90.0,13.0,0.0
212,55.0,0.0,120.0,3.0,0.0
213,62.0,0.0,90.0,3.0,0.0
214,43.0,0.0,120.0,15.0,0.0
215,65.0,4.0,120.0,2.0,0.0
216,59.0,40.0,30.0,12.0,0.0
217,67.0,0.0,120.0,2.0,0.0
218,55.0,120.0,120.0,14.0,0.0
219,60.0,10.0,30.0,12.0,0.0
220,72.0,0.0,30.0,11.0,0.0
221,74.0,0.0,30.0,11.0,0.0
222,62.0,0.0,30.0,12.0,0.0
223,59.0,0.0,30.0,13.0,0.0
224,59.0,4.0,30.0,3.0,0.0
225,60.0,0.0,120.0,3.0,0.0
226,55.0,0.0,120.0,3.0,0.0
227,60.0,0.0,120.0,12.0,0.0
228,48.0,0.0,120.0,14.0,0.0
229,36.0,0.0,120.0,15.0,0.0
230,72.0,160.0,120.0,11.0,0.0
231,67.0,0.0,120.0,2.0,0.0
232,60.0,0.0,120.0,13.0,0.0
233,64.0,0.0,120.0,13.0,0.0
234,64.0,0.0,120.0,2.0,0.0
235,83.0,40.0,30.0,0.0,0.0
236,79.0,0.0,240.0,1.0,0.0
237,74.0,26.0,90.0,2.0,0.0
238,77.0,120.0,120.0,2.0,0.0
239,67.0,0.0,240.0,3.0,0.0
240,84.0,10.0,30.0,0.0,0.0
241,86.0,4.0,30.0,0.0,0.0
242,71.0,0.0,30.0,2.0,0.0
243,72.0,0.0,120.0,2.0,0.0
244,76.0,0.0,120.0,2.0,0.0
245,60.0,160.0,120.0,3.0,0.0
246,84.0,0.0,120.0,0.0,0.0
247,43.0,0.0,120.0,15.0,0.0
248,67.0,0.0,180.0,3.0,0.0
249,55.0,0.0,180.0,3.0,0.0
250,83.0,0.0,120.0,1.0,0.0
251,74.0,0.0,120.0,1.0,0.0
252,71.0,40.0,30.0,11.0,0.0
253,59.0,0.0,120.0,2.0,0.0
254,55.0,0.0,120.0,14.0,0.0
255,62.0,0.0,120.0,2.0,0.0
256,86.0,0.0,120.0,0.0,0.0
257,53.0,0.0,30.0,13.0,0.0
258,83.0,60.0,120.0,0.0,0.0
259,62.0,0.0,30.0,12.0,0.0
260,72.0,0.0,30.0,11.0,0.0
261,52.0,0.0,30.0,13.0,0.0
262,60.0,36.0,30.0,12.0,0.0
263,74.0,0.0,30.0,11.0,0.0
264,53.0,0.0,30.0,13.0,0.0
265,59.0,4.0,30.0,12.0,0.0
266,48.0,0.0,60.0,14.0,0.0
267,84.0,0.0,60.0,1.0,0.0
268,60.0,0.0,60.0,2.0,0.0
269,64.0,0.0,60.0,2.0,0.0
270,36.0,0.0,60.0,15.0,0.0
271,60.0,0.0,60.0,12.0,0.0
272,52.0,0.0,60.0,13.0,0.0
273,76.0,120.0,60.0,1.0,0.0
274,72.0,0.0,60.0,11.0,0.0
275,84.0,0.0,60.0,0.0,0.0
276,48.0,0.0,60.0,14.0,0.0
277,64.0,0.0,60.0,3.0,0.0
278,55.0,0.0,60.0,3.0,0.0
279,52.0,120.0,60.0,13.0,0.0
280,60.0,0.0,60.0,12.0,0.0
281,72.0,0.0,60.0,11.0,0.0
282,76.0,0.0,60.0,1.0,0.0
283,79.0,0.0,60.0,1.0,0.0
284,64.0,0.0,60.0,2.0,0.0
285,60.0,0.0,60.0,2.0,0.0
286,84.0,0.0,60.0,0.0,0.0
287,72.0,0.0,60.0,0.0,0.0
288,36.0,0.0,60.0,15.0,0.0
289,79.0,0.0,60.0,1.0,0.0
290,55.0,0.0,60.0,3.0,0.0
291,64.0,0.0,60.0,3.0,0.0
292,76.0,0.0,60.0,1.0,0.0
293,72.0,180.0,60.0,11.0,0.0
294,36.0,0.0,60.0,15.0,0.0
295,48.0,0.0,60.0,14.0,0.0
296,64.0,0.0,60.0,2.0,0.0
297,60.0,0.0,60.0,2.0,0.0
298,72.0,0.0,60.0,0.0,0.0
299,60.0,0.0,60.0,12.0,0.0
300,84.0,0.0,60.0,0.0,0.0
301,52.0,0.0,60.0,13.0,0.0
302,79.0,0.0,120.0,1.0,0.0
303,76.0,210.0,120.0,1.0,0.0
304,48.0,0.0,120.0,14.0,0.0
305,60.0,0.0,120.0,3.0,0.0
306,36.0,0.0,120.0,15.0,0.0
307,72.0,0.0,120.0,0.0,0.0
308,84.0,0.0,120.0,0.0,0.0
309,52.0,0.0,120.0,3.0,0.0
310,60.0,0.0,120.0,12.0,0.0
311,72.0,0.0,120.0,11.0,0.0
312,64.0,0.0,120.0,2.0,0.0
313,60.0,0.0,120.0,2.0,0.0
314,52.0,0.0,120.0,13.0,0.0
315,55.0,0.0,90.0,3.0,0.0
316,67.0,26.0,90.0,2.0,0.0
317,71.0,34.0,30.0,2.0,0.0
318,59.0,0.0,30.0,3.0,0.0
319,67.0,8.0,120.0,2.0,0.0
320,52.0,40.0,30.0,13.0,0.0
321,60.0,0.0,120.0,14.0,0.0
322,48.0,30.0,120.0,15.0,0.0
323,52.0,0.0,120.0,3.0,0.0
324,60.0,0.0,120.0,3.0,0.0
325,72.0,0.0,120.0,2.0,0.0
326,60.0,40.0,30.0,13.0,0.0
327,55.0,2.0,30.0,13.0,0.0
328,72.0,0.0,120.0,2.0,0.0
329,67.0,30.0,120.0,2.0,0.0
330,60.0,0.0,120.0,3.0,0.0
331,52.0,0.0,120.0,3.0,0.0
332,60.0,0.0,120.0,14.0,0.0
333,48.0,0.0,120.0,15.0,0.0
334,52.0,40.0,30.0,13.0,0.0
335,72.0,0.0,120.0,11.0,0.0
336,67.0,0.0,120.0,12.0,0.0
337,60.0,40.0,30.0,13.0,0.0
338,55.0,10.0,30.0,13.0,0.0
339,55.0,40.0,30.0,13.0,0.0
340,62.0,0.0,120.0,3.0,0.0
341,55.0,0.0,120.0,3.0,0.0
342,71.0,0.0,120.0,2.0,0.0
343,74.0,0.0,120.0,2.0,0.0
344,74.0,0.0,120.0,11.0,0.0
345,55.0,30.0,120.0,14.0,0.0
346,71.0,0.0,120.0,12.0,0.0
347,43.0,0.0,120.0,15.0,0.0
348,62.0,40.0,30.0,13.0,0.0
349,59.0,10.0,30.0,13.0,0.0
350,64.0,38.0,240.0,3.0,0.0
351,72.0,0.0,240.0,2.0,0.0
352,76.0,0.0,240.0,2.0,0.0
353,48.0,0.0,120.0,14.0,0.0
354,55.0,40.0,30.0,13.0,0.0
355,72.0,0.0,120.0,12.0,0.0
356,76.0,0.0,120.0,11.0,0.0
357,36.0,30.0,120.0,15.0,0.0
358,60.0,0.0,240.0,3.0,0.0
359,64.0,40.0,30.0,13.0,0.0
360,60.0,10.0,30.0,13.0,0.0
361,55.0,40.0,30.0,13.0,0.0
362,60.0,40.0,30.0,13.0,0.0
363,52.0,2.0,30.0,13.0,0.0
364,55.0,40.0,30.0,13.0,0.0
365,52.0,20.0,90.0,3.0,0.0
366,60.0,0.0,90.0,3.0,0.0
367,72.0,0.0,90.0,2.0,0.0
368,67.0,0.0,90.0,2.0,0.0
369,60.0,20.0,30.0,13.0,0.0
370,62.0,6.0,30.0,13.0,0.0
371,71.0,0.0,30.0,2.0,0.0
372,74.0,34.0,30.0,2.0,0.0
373,62.0,0.0,30.0,3.0,0.0
374,55.0,0.0,30.0,3.0,0.0
375,72.0,8.0,120.0,2.0,0.0
376,60.0,0.0,120.0,14.0,0.0
377,55.0,40.0,30.0,13.0,0.0
378,48.0,30.0,120.0,15.0,0.0
379,76.0,0.0,120.0,2.0,0.0
380,60.0,0.0,120.0,3.0,0.0
381,64.0,0.0,120.0,3.0,0.0
382,64.0,40.0,30.0,13.0,0.0
383,60.0,2.0,30.0,13.0,0.0
384,76.0,0.0,120.0,2.0,0.0
385,55.0,40.0,30.0,13.0,0.0
386,76.0,0.0,120.0,11.0,0.0
387,48.0,0.0,120.0,15.0,0.0
388,60.0,0.0,120.0,3.0,0.0
389,64.0,0.0,120.0,3.0,0.0
390,72.0,0.0,120.0,12.0,0.0
391,60.0,30.0,120.0,14.0,0.0
392,72.0,0.0,120.0,2.0,0.0
393,64.0,40.0,30.0,13.0,0.0
394,60.0,10.0,30.0,13.0,0.0
395,60.0,0.0,120.0,14.0,0.0
396,77.0,0.0,120.0,2.0,0.0
397,48.0,0.0,120.0,15.0,0.0
398,62.0,0.0,120.0,3.0,0.0
399,65.0,30.0,120.0,3.0,0.0
400,74.0,0.0,120.0,12.0,0.0
401,77.0,0.0,120.0,11.0,0.0
402,55.0,40.0,30.0,13.0,0.0
403,74.0,0.0,120.0,2.0,0.0
404,65.0,40.0,30.0,13.0,0.0
405,62.0,10.0,30.0,13.0,0.0
406,48.0,0.0,240.0,15.0,0.0
407,79.0,0.0,120.0,11.0,0.0
408,60.0,0.0,240.0,14.0,0.0
409,76.0,30.0,120.0,12.0,0.0
410,55.0,40.0,30.0,13.0,0.0
411,67.0,90.0,240.0,3.0,0.0
412,64.0,0.0,240.0,3.0,0.0
413,76.0,8.0,240.0,2.0,0.0
414,79.0,0.0,240.0,2.0,0.0
415,67.0,40.0,30.0,13.0,0.0
416,64.0,10.0,30.0,13.0,0.0
417,60.0,40.0,30.0,13.0,0.0
418,64.0,40.0,30.0,13.0,0.0
419,67.0,2.0,30.0,13.0,0.0
420,79.0,98.0,360.0,2.0,0.0
421,79.0,26.0,90.0,11.0,0.0
422,76.0,0.0,360.0,2.0,0.0
423,72.0,232.0,120.0,13.0,0.0
424,81.0,4.0,30.0,11.0,0.0
425,82.0,0.0,240.0,11.0,0.0
426,73.0,0.0,240.0,13.0,0.0
427,73.0,232.0,240.0,12.0,0.0
428,79.0,0.0,360.0,2.0,0.0
429,79.0,26.0,90.0,11.0,0.0
430,76.0,90.0,360.0,2.0,0.0
431,81.0,4.0,30.0,11.0,0.0
432,82.0,8.0,240.0,11.0,0.0
433,73.0,0.0,240.0,12.0,0.0
434,73.0,4.0,240.0,13.0,0.0
435,67.0,22.0,90.0,3.0,0.0
436,79.0,0.0,90.0,1.0,0.0
437,79.0,0.0,90.0,11.0,0.0
438,91.0,0.0,90.0,0.0,0.0
439,93.0,19.0,30.0,0.0,0.0
440,81.0,0.0,30.0,11.0,0.0
441,69.0,0.0,30.0,3.0,0.0
442,81.0,0.0,30.0,1.0,0.0
443,82.0,0.0,360.0,11.0,0.0
444,94.0,0.0,360.0,0.0,0.0
445,91.0,8.0,360.0,0.0,0.0
446,64.0,0.0,360.0,3.0,0.0
447,76.0,0.0,360.0,2.0,0.0
448,70.0,0.0,360.0,3.0,0.0
449,67.0,0.0,360.0,2.0,0.0
450,48.0,0.0,360.0,14.0,0.0
451,64.0,0.0,360.0,5.0,0.0
452,76.0,0.0,360.0,5.0,0.0
453,36.0,0.0,360.0,15.0,0.0
454,52.0,15.0,15.0,6.0,0.0
455,64.0,0.0,360.0,4.0,0.0
456,82.0,0.0,360.0,1.0,0.0
457,79.0,0.0,360.0,1.0,0.0
458,79.0,0.0,360.0,12.0,0.0
459,76.0,0.0,360.0,13.0,0.0
460,52.0,0.0,360.0,4.0,0.0
461,52.0,15.0,15.0,6.0,0.0
462,52.0,15.0,15.0,6.0,0.0
463,52.0,15.0,15.0,6.0,0.0
464,52.0,15.0,15.0,6.0,0.0
465,52.0,15.0,15.0,6.0,0.0
466,52.0,15.0,15.0,6.0,0.0
467,52.0,15.0,15.0,6.0,0.0
468,52.0,15.0,15.0,6.0,0.0
469,52.0,15.0,15.0,6.0,0.0
470,52.0,15.0,15.0,6.0,0.0
471,52.0,15.0,15.0,6.0,0.0
472,52.0,15.0,15.0,6.0,0.0
473,52.0,15.0,15.0,6.0,0.0
474,52.0,15.0,15.0,6.0,0.0
475,52.0,15.0,15.0,6.0,0.0
476,52.0,15.0,15.0,6.0,0.0
477,52.0,15.0,15.0,6.0,0.0
478,52.0,15.0,15.0,6.0,0.0
479,52.0,15.0,15.0,6.0,0.0
480,52.0,15.0,15.0,6.0,0.0
481,52.0,15.0,15.0,6.0,0.0
482,52.0,7.0,15.0,6.0,0.0
483,52.0,67.0,15.0,6.0,0.0
484,71.0,0.0,90.0,3.0,0.0
485,80.0,0.0,90.0,1.0,0.0
486,83.0,0.0,90.0,1.0,0.0
487,47.0,0.0,90.0,6.0,0.0
488,76.0,0.0,90.0,5.0,0.0
489,76.0,0.0,90.0,13.0,0.0
490,52.0,0.0,90.0,4.0,0.0
491,64.0,22.0,90.0,4.0,0.0
492,68.0,4.0,90.0,3.0,0.0
493,64.0,0.0,90.0,5.0,0.0
494,47.0,0.0,90.0,14.0,0.0
495,35.0,0.0,90.0,15.0,0.0
496,95.0,0.0,90.0,0.0,0.0
497,92.0,0.0,90.0,0.0,0.0
498,76.0,0.0,90.0,2.0,0.0
499,68.0,0.0,90.0,2.0,0.0
500,83.0,19.0,60.0,11.0,0.0
501,80.0,0.0,90.0,12.0,0.0
502,71.0,0.0,30.0,13.0,0.0
503,76.0,0.0,30.0,12.0,0.0
504,64.0,0.0,30.0,3.0,0.0
505,76.0,0.0,30.0,1.0,0.0
506,80.0,0.0,30.0,1.0,0.0
507,80.0,4.0,20.0,11.0,0.0
508,92.0,0.0,30.0,0.0,0.0
509,88.0,0.0,30.0,0.0,0.0
510,68.0,94.0,30.0,3.0,0.0
511,64.0,0.0,90.0,3.0,0.0
512,76.0,0.0,90.0,1.0,0.0
513,71.0,0.0,90.0,1.0,0.0
514,59.0,0.0,90.0,3.0,0.0
515,68.0,0.0,90.0,13.0,0.0
516,71.0,0.0,90.0,12.0,0.0
517,68.0,0.0,90.0,2.0,0.0
518,35.0,0.0,90.0,15.0,0.0
519,76.0,0.0,90.0,11.0,0.0
520,76.0,0.0,90.0,5.0,0.0
521,68.0,0.0,90.0,5.0,0.0
522,47.0,0.0,90.0,14.0,0.0
523,88.0,0.0,90.0,0.0,0.0
524,59.0,0.0,90.0,11.0,0.0
525,83.0,0.0,90.0,0.0,0.0
526,47.0,0.0,90.0,6.0,0.0
527,71.0,120.0,90.0,2.0,0.0
528,68.0,0.0,90.0,11.0,0.0
529,64.0,0.0,90.0,4.0,0.0
530,56.0,0.0,90.0,4.0,0.0
531,87.0,0.0,90.0,0.0,0.0
532,63.0,0.0,90.0,3.0,0.0
533,71.0,0.0,90.0,5.0,0.0
534,59.0,0.0,90.0,13.0,0.0
535,69.0,0.0,90.0,13.0,0.0
536,47.0,142.0,90.0,6.0,0.0
537,47.0,0.0,90.0,14.0,0.0
538,90.0,0.0,90.0,0.0,0.0
539,66.0,0.0,90.0,3.0,0.0
540,78.0,0.0,90.0,5.0,0.0
541,69.0,0.0,90.0,11.0,0.0
542,75.0,0.0,90.0,12.0,0.0
543,59.0,0.0,90.0,11.0,0.0
544,78.0,0.0,90.0,11.0,0.0
545,35.0,0.0,90.0,15.0,0.0
546,69.0,0.0,90.0,2.0,0.0
547,71.0,0.0,90.0,2.0,0.0
548,59.0,0.0,90.0,12.0,0.0
549,66.0,0.0,90.0,4.0,0.0
550,78.0,0.0,90.0,1.0,0.0
551,75.0,0.0,90.0,1.0,0.0
552,59.0,0.0,90.0,4.0,0.0
553,69.0,0.0,90.0,12.0,0.0
554,64.0,0.0,120.0,4.0,0.0
555,68.0,0.0,120.0,13.0,0.0
556,40.0,8.0,120.0,15.0,0.0
557,71.0,0.0,120.0,2.0,0.0
558,68.0,0.0,120.0,2.0,0.0
559,56.0,0.0,120.0,4.0,0.0
560,52.0,0.0,120.0,14.0,0.0
561,88.0,0.0,120.0,0.0,0.0
562,80.0,0.0,120.0,0.0,0.0
563,68.0,0.0,120.0,11.0,0.0
564,59.0,0.0,120.0,11.0,0.0
565,76.0,0.0,120.0,11.0,0.0
566,52.0,0.0,120.0,6.0,0.0
567,76.0,0.0,120.0,5.0,0.0
568,59.0,0.0,120.0,13.0,0.0
569,68.0,0.0,120.0,5.0,0.0
570,64.0,0.0,120.0,3.0,0.0
571,76.0,0.0,120.0,12.0,0.0
572,52.0,0.0,120.0,13.0,0.0
573,76.0,0.0,120.0,1.0,0.0
574,68.0,120.0,120.0,12.0,0.0
575,71.0,0.0,120.0,1.0,0.0
576,59.0,0.0,120.0,12.0,0.0
577,28.0,0.0,120.0,15.0,0.0
578,40.0,86.0,120.0,14.0,0.0
579,68.0,0.0,90.0,1.0,0.0
580,56.0,0.0,90.0,4.0,0.0
581,68.0,30.0,90.0,5.0,0.0
582,71.0,34.0,30.0,1.0,0.0
583,59.0,0.0,30.0,4.0,0.0
584,71.0,0.0,30.0,5.0,0.0
585,68.0,40.0,30.0,12.0,0.0
586,68.0,0.0,30.0,11.0,0.0
587,64.0,0.0,120.0,4.0,0.0
588,76.0,0.0,120.0,5.0,0.0
589,52.0,30.0,120.0,6.0,0.0
590,40.0,0.0,120.0,15.0,0.0
591,56.0,0.0,120.0,4.0,0.0
592,68.0,0.0,120.0,1.0,0.0
593,76.0,8.0,120.0,1.0,0.0
594,52.0,0.0,120.0,14.0,0.0
595,56.0,0.0,30.0,13.0,0.0
596,68.0,0.0,120.0,5.0,0.0
597,76.0,40.0,30.0,12.0,0.0
598,64.0,0.0,30.0,13.0,0.0
599,76.0,0.0,30.0,11.0,0.0
600,59.0,0.0,30.0,13.0,0.0
601,71.0,2.0,30.0,11.0,0.0
602,71.0,0.0,30.0,12.0,0.0
603,68.0,0.0,30.0,12.0,0.0
604,68.0,0.0,30.0,11.0,0.0
605,52.0,30.0,120.0,6.0,0.0
606,64.0,0.0,120.0,4.0,0.0
607,76.0,0.0,120.0,1.0,0.0
608,68.0,0.0,120.0,1.0,0.0
609,76.0,0.0,120.0,5.0,0.0
610,68.0,0.0,120.0,5.0,0.0
611,52.0,8.0,120.0,14.0,0.0
612,56.0,0.0,120.0,4.0,0.0
613,56.0,40.0,30.0,13.0,0.0
614,40.0,0.0,120.0,15.0,0.0
615,64.0,40.0,30.0,13.0,0.0
616,76.0,0.0,30.0,12.0,0.0
617,76.0,0.0,30.0,11.0,0.0
618,71.0,2.0,30.0,12.0,0.0
619,71.0,0.0,30.0,11.0,0.0
620,59.0,0.0,30.0,13.0,0.0
621,47.0,8.0,120.0,14.0,0.0
622,71.0,0.0,30.0,12.0,0.0
623,71.0,0.0,120.0,1.0,0.0
624,59.0,40.0,30.0,13.0,0.0
625,35.0,0.0,120.0,15.0,0.0
626,78.0,0.0,120.0,1.0,0.0
627,59.0,0.0,120.0,4.0,0.0
628,71.0,0.0,30.0,11.0,0.0
629,66.0,0.0,120.0,4.0,0.0
630,78.0,0.0,120.0,5.0,0.0
631,47.0,30.0,120.0,6.0,0.0
632,71.0,0.0,120.0,5.0,0.0
633,78.0,40.0,30.0,12.0,0.0
634,78.0,0.0,30.0,11.0,0.0
635,66.0,0.0,30.0,13.0,0.0
636,75.0,0.0,30.0,11.0,0.0
637,75.0,2.0,30.0,12.0,0.0
638,63.0,0.0,30.0,13.0,0.0
639,40.0,0.0,240.0,15.0,0.0
640,71.0,0.0,30.0,12.0,0.0
641,64.0,38.0,240.0,4.0,0.0
642,68.0,0.0,240.0,4.0,0.0
643,52.0,30.0,120.0,6.0,0.0
644,71.0,0.0,30.0,11.0,0.0
645,80.0,0.0,240.0,5.0,0.0
646,76.0,0.0,240.0,5.0,0.0
647,80.0,0.0,240.0,1.0,0.0
648,52.0,0.0,240.0,14.0,0.0
649,76.0,0.0,240.0,1.0,0.0
650,59.0,40.0,30.0,13.0,0.0
651,80.0,0.0,30.0,12.0,0.0
652,68.0,40.0,30.0,13.0,0.0
653,80.0,0.0,30.0,11.0,0.0
654,64.0,0.0,30.0,13.0,0.0
655,76.0,0.0,30.0,11.0,0.0
656,76.0,10.0,30.0,12.0,0.0
657,71.0,0.0,30.0,12.0,0.0
658,71.0,0.0,30.0,11.0,0.0
659,59.0,40.0,30.0,13.0,0.0
660,68.0,0.0,30.0,12.0,0.0
661,68.0,0.0,30.0,11.0,0.0
662,56.0,40.0,30.0,13.0,0.0
663,64.0,2.0,30.0,11.0,0.0
664,64.0,0.0,30.0,12.0,0.0
665,52.0,0.0,30.0,13.0,0.0
666,68.0,0.0,90.0,5.0,0.0
667,52.0,4.0,90.0,14.0,0.0
668,40.0,0.0,90.0,15.0,0.0
669,76.0,0.0,90.0,1.0,0.0
670,64.0,0.0,90.0,4.0,0.0
671,52.0,20.0,90.0,6.0,0.0
672,59.0,0.0,30.0,13.0,0.0
673,71.0,0.0,30.0,11.0,0.0
674,68.0,0.0,90.0,1.0,0.0
675,71.0,40.0,30.0,12.0,0.0
676,56.0,0.0,90.0,4.0,0.0
677,76.0,0.0,90.0,5.0,0.0
678,64.0,0.0,30.0,13.0,0.0
679,76.0,0.0,30.0,11.0,0.0
680,76.0,16.0,30.0,12.0,0.0
681,66.0,0.0,30.0,13.0,0.0
682,78.0,0.0,30.0,11.0,0.0
683,78.0,6.0,30.0,12.0,0.0
684,52.0,30.0,30.0,6.0,0.0
685,71.0,0.0,30.0,5.0,0.0
686,78.0,4.0,30.0,5.0,0.0
687,40.0,0.0,30.0,15.0,0.0
688,78.0,0.0,30.0,1.0,0.0
689,52.0,0.0,30.0,14.0,0.0
690,71.0,0.0,30.0,1.0,0.0
691,66.0,0.0,30.0,4.0,0.0
692,59.0,0.0,30.0,4.0,0.0
693,64.0,0.0,120.0,4.0,0.0
694,40.0,0.0,120.0,15.0,0.0
695,80.0,8.0,120.0,5.0,0.0
696,68.0,0.0,120.0,4.0,0.0
697,76.0,0.0,120.0,5.0,0.0
698,71.0,0.0,30.0,11.0,0.0
699,80.0,0.0,120.0,1.0,0.0
700,52.0,0.0,120.0,14.0,0.0
701,52.0,30.0,120.0,6.0,0.0
702,76.0,0.0,120.0,1.0,0.0
703,71.0,0.0,30.0,12.0,0.0
704,59.0,40.0,30.0,13.0,0.0
705,80.0,0.0,30.0,11.0,0.0
706,80.0,0.0,30.0,12.0,0.0
707,68.0,40.0,30.0,13.0,0.0
708,76.0,2.0,30.0,12.0,0.0
709,76.0,0.0,30.0,11.0,0.0
710,64.0,0.0,30.0,13.0,0.0
711,80.0,0.0,120.0,1.0,0.0
712,40.0,8.0,120.0,15.0,0.0
713,76.0,0.0,120.0,1.0,0.0
714,52.0,30.0,120.0,6.0,0.0
715,52.0,0.0,120.0,14.0,0.0
716,64.0,0.0,120.0,4.0,0.0
717,68.0,0.0,120.0,4.0,0.0
718,80.0,0.0,120.0,5.0,0.0
719,76.0,0.0,120.0,5.0,0.0
720,71.0,0.0,30.0,11.0,0.0
721,71.0,40.0,30.0,12.0,0.0
722,59.0,0.0,30.0,13.0,0.0
723,80.0,0.0,30.0,11.0,0.0
724,80.0,0.0,30.0,12.0,0.0
725,68.0,40.0,30.0,13.0,0.0
726,76.0,0.0,30.0,12.0,0.0
727,64.0,2.0,30.0,13.0,0.0
728,76.0,0.0,30.0,11.0,0.0
729,78.0,0.0,120.0,1.0,0.0
730,78.0,0.0,120.0,5.0,0.0
731,66.0,0.0,120.0,4.0,0.0
732,40.0,0.0,120.0,15.0,0.0
733,52.0,8.0,120.0,14.0,0.0
734,71.0,0.0,30.0,12.0,0.0
735,71.0,0.0,30.0,11.0,0.0
736,59.0,40.0,30.0,13.0,0.0
737,81.0,0.0,120.0,5.0,0.0
738,69.0,0.0,120.0,4.0,0.0
739,52.0,15.0,120.0,6.0,0.0
740,81.0,0.0,120.0,1.0,0.0
741,81.0,0.0,30.0,12.0,0.0
742,81.0,40.0,30.0,11.0,0.0
743,69.0,0.0,30.0,13.0,0.0
744,66.0,0.0,30.0,13.0,0.0
745,78.0,2.0,30.0,11.0,0.0
746,78.0,0.0,30.0,12.0,0.0
747,52.0,0.0,240.0,14.0,0.0
748,83.0,0.0,210.0,1.0,0.0
749,71.0,0.0,30.0,11.0,0.0
750,40.0,8.0,240.0,15.0,0.0
751,71.0,0.0,210.0,4.0,0.0
752,68.0,0.0,210.0,4.0,0.0
753,52.0,15.0,15.0,6.0,0.0
754,59.0,0.0,30.0,13.0,0.0
755,80.0,0.0,210.0,5.0,0.0
756,71.0,15.0,30.0,12.0,0.0
757,83.0,0.0,210.0,5.0,0.0
758,80.0,0.0,210.0,1.0,0.0
759,52.0,0.0,15.0,6.0,0.0
760,52.0,15.0,15.0,6.0,0.0
761,83.0,0.0,30.0,12.0,0.0
762,83.0,0.0,30.0,11.0,0.0
763,71.0,5.0,30.0,13.0,0.0
764,52.0,10.0,15.0,6.0,0.0
765,52.0,15.0,15.0,6.0,0.0
766,52.0,15.0,15.0,6.0,0.0
767,80.0,0.0,30.0,12.0,0.0
768,80.0,10.0,30.0,11.0,0.0
769,68.0,0.0,30.0,13.0,0.0
770,52.0,5.0,15.0,6.0,0.0
771,52.0,15.0,15.0,6.0,0.0
772,52.0,15.0,15.0,6.0,0.0
773,64.0,0.0,30.0,13.0,0.0
774,76.0,0.0,30.0,12.0,0.0
775,76.0,0.0,30.0,11.0,0.0
776,52.0,15.0,15.0,6.0,0.0
777,52.0,15.0,15.0,6.0,0.0
778,59.0,0.0,30.0,13.0,0.0
779,71.0,0.0,30.0,11.0,0.0
780,71.0,5.0,30.0,12.0,0.0
781,52.0,10.0,15.0,6.0,0.0
782,52.0,15.0,15.0,6.0,0.0
783,52.0,15.0,15.0,6.0,0.0
784,56.0,0.0,30.0,13.0,0.0
785,68.0,0.0,30.0,11.0,0.0
786,68.0,2.0,30.0,12.0,0.0
787,52.0,5.0,15.0,6.0,0.0
788,52.0,30.0,15.0,6.0,0.0
789,76.0,0.0,90.0,1.0,0.0
790,40.0,4.0,90.0,15.0,0.0
791,52.0,0.0,30.0,13.0,0.0
792,68.0,0.0,90.0,4.0,0.0
793,64.0,40.0,30.0,12.0,0.0
794,76.0,0.0,90.0,5.0,0.0
795,80.0,0.0,90.0,5.0,0.0
796,80.0,0.0,90.0,1.0,0.0
797,64.0,0.0,90.0,4.0,0.0
798,64.0,0.0,30.0,11.0,0.0
799,52.0,0.0,90.0,14.0,0.0
800,52.0,20.0,90.0,6.0,0.0
801,80.0,16.0,30.0,11.0,0.0
802,68.0,0.0,30.0,13.0,0.0
803,80.0,0.0,30.0,12.0,0.0
804,81.0,0.0,30.0,12.0,0.0
805,81.0,6.0,30.0,11.0,0.0
806,69.0,0.0,30.0,13.0,0.0
807,69.0,0.0,30.0,4.0,0.0
808,66.0,0.0,30.0,4.0,0.0
809,78.0,0.0,30.0,5.0,0.0
810,52.0,15.0,30.0,6.0,0.0
811,40.0,0.0,30.0,15.0,0.0
812,52.0,0.0,30.0,14.0,0.0
813,81.0,0.0,30.0,1.0,0.0
814,78.0,0.0,30.0,1.0,0.0
815,81.0,4.0,30.0,5.0,0.0
816,52.0,8.0,240.0,14.0,0.0
817,64.0,15.0,30.0,12.0,0.0
818,80.0,5.0,210.0,5.0,0.0
819,52.0,15.0,15.0,6.0,0.0
820,83.0,0.0,210.0,5.0,0.0
821,52.0,0.0,30.0,13.0,0.0
822,40.0,0.0,240.0,15.0,0.0
823,64.0,0.0,30.0,11.0,0.0
824,71.0,0.0,210.0,4.0,0.0
825,83.0,0.0,210.0,1.0,0.0
826,80.0,0.0,210.0,1.0,0.0
827,68.0,0.0,210.0,4.0,0.0
828,52.0,0.0,15.0,6.0,0.0
829,52.0,15.0,15.0,6.0,0.0
830,83.0,0.0,30.0,11.0,0.0
831,83.0,5.0,30.0,12.0,0.0
832,71.0,0.0,30.0,13.0,0.0
833,52.0,10.0,15.0,6.0,0.0
834,52.0,15.0,15.0,6.0,0.0
835,52.0,15.0,15.0,6.0,0.0
836,80.0,0.0,30.0,11.0,0.0
837,68.0,0.0,30.0,13.0,0.0
838,80.0,10.0,30.0,12.0,0.0
839,52.0,5.0,15.0,6.0,0.0
840,52.0,15.0,15.0,6.0,0.0
841,64.0,0.0,30.0,13.0,0.0
842,76.0,0.0,30.0,11.0,0.0
843,76.0,15.0,30.0,12.0,0.0
844,52.0,15.0,15.0,6.0,0.0
845,52.0,0.0,15.0,6.0,0.0
846,52.0,15.0,15.0,6.0,0.0
847,71.0,0.0,30.0,12.0,0.0
848,71.0,0.0,30.0,11.0,0.0
849,59.0,5.0,30.0,13.0,0.0
850,52.0,10.0,15.0,6.0,0.0
851,52.0,15.0,15.0,6.0,0.0
852,52.0,15.0,15.0,6.0,0.0
853,68.0,2.0,30.0,11.0,0.0
854,68.0,0.0,30.0,12.0,0.0
855,56.0,0.0,30.0,13.0,0.0
856,52.0,0.0,15.0,6.0,0.0
857,52.0,30.0,15.0,6.0,0.0
858,40.0,4.0,90.0,15.0,0.0
859,64.0,40.0,30.0,12.0,0.0
860,80.0,0.0,90.0,1.0,0.0
861,76.0,0.0,90.0,1.0,0.0
862,52.0,0.0,30.0,13.0,0.0
863,52.0,20.0,90.0,6.0,0.0
864,80.0,0.0,90.0,5.0,0.0
865,64.0,0.0,30.0,11.0,0.0
866,52.0,0.0,90.0,14.0,0.0
867,68.0,0.0,90.0,4.0,0.0
868,64.0,0.0,90.0,4.0,0.0
869,76.0,0.0,90.0,5.0,0.0
870,76.0,0.0,30.0,12.0,0.0
871,64.0,0.0,30.0,13.0,0.0
872,68.0,16.0,30.0,13.0,0.0
873,80.0,0.0,30.0,11.0,0.0
874,66.0,0.0,30.0,13.0,0.0
875,78.0,0.0,30.0,12.0,0.0
876,81.0,0.0,30.0,11.0,0.0
877,69.0,6.0,30.0,13.0,0.0
878,52.0,120.0,30.0,6.0,0.0
879,40.0,0.0,30.0,15.0,0.0
880,52.0,0.0,30.0,14.0,0.0
881,66.0,4.0,30.0,4.0,0.0
882,81.0,0.0,30.0,1.0,0.0
883,69.0,0.0,30.0,4.0,0.0
884,78.0,0.0,30.0,5.0,0.0
885,81.0,0.0,30.0,5.0,0.0
886,78.0,0.0,30.0,1.0,0.0
887,52.0,0.0,120.0,14.0,0.0
888,83.0,210.0,480.0,5.0,0.0
889,68.0,0.0,120.0,11.0,0.0
890,76.0,0.0,120.0,11.0,0.0
891,83.0,0.0,120.0,11.0,0.0
892,80.0,0.0,480.0,5.0,0.0
893,68.0,0.0,120.0,13.0,0.0
894,52.0,0.0,120.0,6.0,0.0
895,68.0,0.0,840.0,4.0,0.0
896,71.0,112.0,840.0,4.0,0.0
897,83.0,0.0,480.0,1.0,0.0
898,80.0,0.0,480.0,1.0,0.0
899,80.0,360.0,120.0,12.0,0.0
900,71.0,0.0,120.0,13.0,0.0
901,40.0,0.0,120.0,15.0,0.0
902,74.0,26.0,90.0,11.0,0.0
903,71.0,98.0,360.0,13.0,0.0
904,74.0,0.0,360.0,12.0,0.0
905,76.0,124.0,30.0,11.0,0.0
906,59.0,232.0,840.0,3.0,0.0
907,56.0,120.0,720.0,3.0,0.0
908,77.0,0.0,240.0,11.0,0.0
909,44.0,232.0,240.0,14.0,0.0
910,71.0,98.0,360.0,13.0,0.0
911,74.0,0.0,360.0,12.0,0.0
912,74.0,26.0,90.0,11.0,0.0
913,76.0,4.0,30.0,11.0,0.0
914,77.0,0.0,240.0,11.0,0.0
915,44.0,360.0,600.0,14.0,0.0
916,71.0,0.0,480.0,13.0,0.0
917,74.0,26.0,90.0,11.0,0.0
918,74.0,0.0,480.0,12.0,0.0
919,76.0,4.0,30.0,11.0,0.0
920,56.0,8.0,360.0,3.0,0.0
921,77.0,0.0,360.0,11.0,0.0
922,62.0,0.0,240.0,3.0,0.0
923,75.0,8.0,720.0,12.0,0.0
924,72.0,0.0,720.0,13.0,0.0
925,56.0,0.0,360.0,3.0,0.0
926,78.0,352.0,360.0,11.0,0.0
927,44.0,0.0,360.0,14.0,0.0
928,63.0,0.0,720.0,3.0,0.0
929,55.0,0.0,360.0,3.0,0.0
930,43.0,0.0,360.0,14.0,0.0
931,79.0,360.0,360.0,11.0,0.0
932,54.0,0.0,360.0,3.0,0.0
933,42.0,0.0,360.0,14.0,0.0
934,81.0,0.0,360.0,11.0,0.0
935,75.0,0.0,360.0,12.0,0.0
936,63.0,0.0,360.0,3.0,0.0
937,72.0,352.0,360.0,13.0,0.0
938,53.0,0.0,360.0,3.0,0.0
939,68.0,0.0,360.0,3.0,0.0
940,83.0,360.0,360.0,11.0,0.0
941,74.0,8.0,360.0,12.0,0.0
942,41.0,0.0,360.0,14.0,0.0
943,68.0,0.0,360.0,13.0,0.0
944,52.0,352.0,360.0,3.0,0.0
945,67.0,0.0,360.0,3.0,0.0
946,67.0,0.0,360.0,13.0,0.0
947,72.0,98.0,720.0,12.0,0.0
948,84.0,0.0,360.0,11.0,0.0
949,40.0,0.0,360.0,14.0,0.0
950,81.0,0.0,360.0,11.0,0.0
951,65.0,0.0,360.0,3.0,0.0
952,53.0,0.0,360.0,3.0,0.0
953,41.0,0.0,360.0,14.0,0.0
954,65.0,0.0,360.0,13.0,0.0
955,43.0,30.0,90.0,14.0,0.0
956,43.0,0.0,120.0,15.0,0.0
957,55.0,0.0,120.0,3.0,0.0
958,62.0,0.0,120.0,3.0,0.0
959,79.0,0.0,120.0,11.0,0.0
960,62.0,0.0,90.0,13.0,0.0
961,71.0,120.0,120.0,12.0,0.0
962,55.0,90.0,120.0,13.0,0.0
963,55.0,0.0,120.0,14.0,0.0
964,67.0,330.0,90.0,3.0,0.0
965,79.0,60.0,720.0,2.0,0.0
966,36.0,0.0,120.0,15.0,0.0
967,76.0,0.0,120.0,11.0,0.0
968,55.0,0.0,60.0,13.0,0.0
969,55.0,60.0,60.0,14.0,0.0
970,64.0,0.0,120.0,12.0,0.0
971,60.0,0.0,60.0,14.0,0.0
972,60.0,60.0,60.0,13.0,0.0
973,64.0,0.0,60.0,14.0,0.0
974,36.0,0.0,240.0,15.0,0.0
975,64.0,60.0,60.0,13.0,0.0
976,64.0,0.0,120.0,12.0,0.0
977,76.0,0.0,120.0,11.0,0.0
978,62.0,0.0,60.0,14.0,0.0
979,62.0,60.0,60.0,13.0,0.0
980,60.0,0.0,60.0,13.0,0.0
981,60.0,60.0,60.0,14.0,0.0
982,59.0,60.0,60.0,14.0,0.0
983,59.0,0.0,60.0,13.0,0.0
984,60.0,56.0,60.0,13.0,0.0
985,60.0,0.0,60.0,14.0,0.0
986,64.0,4.0,60.0,13.0,0.0
987,64.0,0.0,60.0,14.0,0.0
988,41.0,0.0,240.0,15.0,0.0
989,69.0,0.0,120.0,12.0,0.0
990,69.0,60.0,120.0,11.0,0.0
991,57.0,60.0,60.0,14.0,0.0
992,79.0,0.0,720.0,2.0,0.0
993,57.0,0.0,60.0,13.0,0.0
994,61.0,0.0,60.0,14.0,0.0
995,61.0,0.0,60.0,13.0,0.0
996,62.0,0.0,60.0,14.0,0.0
997,62.0,60.0,60.0,13.0,0.0
998,61.0,0.0,60.0,13.0,0.0
999,61.0,60.0,60.0,14.0,0.0
1000,62.0,0.0,60.0,14.0,0.0
1001,62.0,56.0,60.0,13.0,0.0
1002,64.0,0.0,60.0,13.0,0.0
1003,64.0,64.0,60.0,14.0,0.0
1004,65.0,0.0,60.0,14.0,0.0
1005,38.0,0.0,120.0,15.0,0.0
1006,65.0,60.0,60.0,13.0,0.0
1007,77.0,0.0,120.0,11.0,0.0
1008,65.0,60.0,120.0,12.0,0.0
1009,64.0,0.0,60.0,13.0,0.0
1010,64.0,0.0,60.0,14.0,0.0
1011,62.0,0.0,120.0,12.0,0.0
1012,62.0,0.0,60.0,13.0,0.0
1013,74.0,60.0,120.0,11.0,0.0
1014,35.0,0.0,120.0,15.0,0.0
1015,62.0,60.0,60.0,14.0,0.0
1016,65.0,0.0,60.0,14.0,0.0
1017,65.0,0.0,60.0,13.0,0.0
1018,59.0,56.0,60.0,13.0,0.0
1019,38.0,0.0,120.0,15.0,0.0
1020,59.0,0.0,60.0,14.0,0.0
1021,65.0,60.0,120.0,12.0,0.0
1022,77.0,0.0,120.0,11.0,0.0
1023,62.0,4.0,60.0,13.0,0.0
1024,62.0,0.0,60.0,14.0,0.0
1025,56.0,60.0,60.0,14.0,0.0
1026,71.0,0.0,120.0,11.0,0.0
1027,40.0,0.0,120.0,15.0,0.0
1028,59.0,60.0,120.0,12.0,0.0
1029,56.0,0.0,60.0,13.0,0.0
1030,80.0,0.0,360.0,2.0,0.0
1031,59.0,0.0,60.0,14.0,0.0
1032,59.0,0.0,60.0,13.0,0.0
1033,64.0,60.0,60.0,14.0,0.0
1034,64.0,0.0,60.0,13.0,0.0
1035,59.0,60.0,60.0,13.0,0.0
1036,59.0,0.0,60.0,14.0,0.0
1037,40.0,60.0,120.0,15.0,0.0
1038,64.0,0.0,120.0,12.0,0.0
1039,76.0,0.0,120.0,11.0,0.0
1040,64.0,0.0,60.0,14.0,0.0
1041,64.0,56.0,60.0,13.0,0.0
1042,62.0,0.0,60.0,14.0,0.0
1043,62.0,4.0,60.0,13.0,0.0
1044,64.0,0.0,120.0,12.0,0.0
1045,61.0,0.0,60.0,14.0,0.0
1046,61.0,60.0,60.0,13.0,0.0
1047,76.0,0.0,120.0,11.0,0.0
1048,81.0,8.0,480.0,2.0,0.0
1049,45.0,60.0,120.0,15.0,0.0
1050,57.0,0.0,60.0,14.0,0.0
1051,57.0,0.0,60.0,13.0,0.0
1052,77.0,0.0,120.0,11.0,0.0
1053,62.0,0.0,60.0,14.0,0.0
1054,38.0,60.0,120.0,15.0,0.0
1055,65.0,0.0,120.0,12.0,0.0
1056,62.0,60.0,60.0,13.0,0.0
1057,64.0,0.0,60.0,14.0,0.0
1058,64.0,0.0,60.0,13.0,0.0
1059,65.0,0.0,60.0,13.0,0.0
1060,65.0,56.0,60.0,14.0,0.0
1061,62.0,64.0,60.0,14.0,0.0
1062,62.0,0.0,60.0,13.0,0.0
1063,74.0,0.0,120.0,11.0,0.0
1064,59.0,0.0,60.0,13.0,0.0
1065,43.0,0.0,120.0,15.0,0.0
1066,59.0,40.0,60.0,14.0,0.0
1067,62.0,60.0,120.0,12.0,0.0
1068,55.0,12.0,30.0,13.0,0.0
1069,55.0,0.0,30.0,14.0,0.0
1070,62.0,0.0,20.0,14.0,0.0
1071,62.0,0.0,20.0,13.0,0.0
1072,36.0,0.0,120.0,15.0,0.0
1073,60.0,60.0,60.0,13.0,0.0
1074,64.0,0.0,120.0,12.0,0.0
1075,76.0,0.0,120.0,11.0,0.0
1076,60.0,0.0,60.0,14.0,0.0
1077,79.0,0.0,300.0,2.0,0.0
1078,59.0,0.0,60.0,13.0,0.0
1079,59.0,60.0,60.0,14.0,0.0
1080,60.0,0.0,60.0,13.0,0.0
1081,60.0,56.0,60.0,14.0,0.0
1082,64.0,64.0,60.0,13.0,0.0
1083,64.0,0.0,60.0,14.0,0.0
1084,71.0,8.0,120.0,2.0,0.0
1085,66.0,0.0,60.0,13.0,0.0
1086,67.0,0.0,90.0,12.0,0.0
1087,71.0,0.0,120.0,1.0,0.0
1088,62.0,0.0,120.0,3.0,0.0
1089,74.0,0.0,120.0,1.0,0.0
1090,31.0,0.0,90.0,15.0,0.0
1091,66.0,30.0,60.0,14.0,0.0
1092,59.0,22.0,90.0,11.0,0.0
1093,67.0,0.0,90.0,11.0,0.0
1094,74.0,0.0,90.0,12.0,0.0
1095,55.0,0.0,120.0,3.0,0.0
1096,67.0,60.0,60.0,13.0,0.0
1097,79.0,0.0,60.0,2.0,0.0
1098,67.0,0.0,60.0,14.0,0.0
1099,59.0,0.0,90.0,11.0,0.0
1100,67.0,0.0,90.0,11.0,0.0
1101,67.0,22.0,90.0,12.0,0.0
1102,69.0,0.0,60.0,14.0,0.0
1103,31.0,0.0,90.0,15.0,0.0
1104,71.0,8.0,120.0,1.0,0.0
1105,74.0,0.0,120.0,1.0,0.0
1106,69.0,0.0,60.0,13.0,0.0
1107,74.0,0.0,90.0,12.0,0.0
1108,71.0,0.0,120.0,2.0,0.0
1109,62.0,0.0,120.0,3.0,0.0
1110,55.0,0.0,120.0,3.0,0.0
1111,81.0,30.0,60.0,2.0,0.0
1112,67.0,60.0,60.0,14.0,0.0
1113,67.0,0.0,60.0,13.0,0.0
1114,79.0,0.0,60.0,2.0,0.0
1115,31.0,0.0,90.0,15.0,0.0
1116,74.0,0.0,90.0,12.0,0.0
1117,78.0,30.0,60.0,2.0,0.0
1118,74.0,4.0,120.0,1.0,0.0
1119,71.0,0.0,120.0,1.0,0.0
1120,66.0,0.0,60.0,14.0,0.0
1121,62.0,0.0,120.0,3.0,0.0
1122,71.0,0.0,120.0,2.0,0.0
1123,67.0,0.0,90.0,11.0,0.0
1124,59.0,22.0,90.0,11.0,0.0
1125,55.0,0.0,120.0,3.0,0.0
1126,67.0,0.0,90.0,12.0,0.0
1127,66.0,0.0,60.0,13.0,0.0
1128,67.0,49.0,60.0,13.0,0.0
1129,67.0,0.0,60.0,14.0,0.0
1130,79.0,0.0,60.0,2.0,0.0
1131,55.0,0.0,60.0,3.0,0.0
1132,76.0,0.0,240.0,2.0,0.0
1133,76.0,0.0,240.0,1.0,0.0
1134,67.0,0.0,120.0,12.0,0.0
1135,76.0,0.0,120.0,12.0,0.0
1136,72.0,0.0,240.0,2.0,0.0
1137,64.0,44.0,60.0,3.0,0.0
1138,72.0,0.0,240.0,1.0,0.0
1139,64.0,0.0,120.0,13.0,0.0
1140,36.0,0.0,120.0,15.0,0.0
1141,64.0,0.0,120.0,14.0,0.0
1142,60.0,11.0,30.0,11.0,0.0
1143,71.0,0.0,30.0,11.0,0.0
1144,59.0,20.0,30.0,3.0,0.0
1145,62.0,60.0,20.0,3.0,0.0
1146,74.0,0.0,20.0,11.0,0.0
1147,60.0,45.0,60.0,3.0,0.0
1148,72.0,0.0,60.0,11.0,0.0
1149,40.0,0.0,30.0,15.0,0.0
1150,64.0,15.0,30.0,13.0,0.0
1151,59.0,60.0,60.0,3.0,0.0
1152,52.0,0.0,30.0,14.0,0.0
1153,67.0,0.0,30.0,12.0,0.0
1154,71.0,0.0,60.0,11.0,0.0
1155,60.0,0.0,60.0,3.0,0.0
1156,40.0,56.0,60.0,15.0,0.0
1157,72.0,0.0,60.0,11.0,0.0
1158,64.0,0.0,60.0,13.0,0.0
1159,67.0,0.0,60.0,12.0,0.0
1160,52.0,0.0,60.0,14.0,0.0
1161,64.0,0.0,60.0,12.0,0.0
1162,76.0,0.0,60.0,11.0,0.0
1163,48.0,0.0,60.0,14.0,0.0
1164,36.0,0.0,60.0,15.0,0.0
1165,60.0,0.0,60.0,13.0,0.0
1166,64.0,64.0,60.0,3.0,0.0
1167,43.0,0.0,360.0,14.0,0.0
1168,62.0,0.0,360.0,12.0,0.0
1169,55.0,0.0,360.0,13.0,0.0
1170,78.0,0.0,60.0,11.0,0.0
1171,31.0,0.0,360.0,15.0,0.0
1172,59.0,4.0,360.0,13.0,0.0
1173,66.0,60.0,60.0,3.0,0.0
1174,67.0,60.0,60.0,3.0,0.0
1175,79.0,0.0,60.0,11.0,0.0
1176,69.0,0.0,60.0,3.0,0.0
1177,81.0,60.0,60.0,11.0,0.0
1178,67.0,0.0,60.0,3.0,0.0
1179,79.0,60.0,60.0,11.0,0.0
1180,78.0,52.0,60.0,11.0,0.0
1181,66.0,0.0,60.0,3.0,0.0
1182,67.0,0.0,60.0,3.0,0.0
1183,79.0,104.0,60.0,11.0,0.0
1184,55.0,0.0,120.0,13.0,0.0
1185,36.0,0.0,120.0,15.0,0.0
1186,64.0,0.0,120.0,3.0,0.0
1187,64.0,0.0,120.0,12.0,0.0
1188,48.0,0.0,120.0,14.0,0.0
1189,60.0,60.0,120.0,13.0,0.0
1190,76.0,0.0,120.0,11.0,0.0
1191,83.0,20.0,30.0,0.0,0.0
1192,86.0,0.0,20.0,0.0,0.0
1193,84.0,45.0,60.0,0.0,0.0
1194,76.0,11.0,30.0,2.0,0.0
1195,72.0,4.0,60.0,3.0,0.0
1196,79.0,0.0,60.0,1.0,0.0
1197,83.0,56.0,60.0,0.0,0.0
1198,79.0,0.0,30.0,2.0,0.0
1199,76.0,56.0,60.0,2.0,0.0
1200,79.0,0.0,60.0,2.0,0.0
1201,79.0,0.0,60.0,1.0,0.0
1202,72.0,4.0,60.0,3.0,0.0
1203,84.0,0.0,60.0,0.0,0.0
1204,79.0,0.0,60.0,1.0,0.0
1205,76.0,64.0,60.0,2.0,0.0
1206,72.0,0.0,60.0,2.0,0.0
1207,72.0,0.0,60.0,3.0,0.0
1208,88.0,0.0,60.0,0.0,0.0
1209,74.0,0.0,360.0,2.0,0.0
1210,90.0,60.0,60.0,0.0,0.0
1211,79.0,4.0,360.0,2.0,0.0
1212,67.0,0.0,360.0,3.0,0.0
1213,71.0,0.0,360.0,3.0,0.0
1214,79.0,0.0,240.0,1.0,0.0
1215,91.0,60.0,60.0,0.0,0.0
1216,93.0,60.0,60.0,0.0,0.0
1217,91.0,60.0,60.0,0.0,0.0
1218,90.0,0.0,60.0,0.0,0.0
1219,81.0,52.0,60.0,1.0,0.0
1220,91.0,0.0,60.0,0.0,0.0
1221,83.0,124.0,60.0,1.0,0.0
1222,72.0,0.0,360.0,2.0,0.0
1223,89.0,0.0,120.0,0.0,0.0
1224,77.0,232.0,120.0,2.0,0.0
1225,69.0,0.0,360.0,3.0,0.0
1226,84.0,0.0,360.0,1.0,0.0
1227,88.0,128.0,240.0,0.0,0.0
1228,76.0,0.0,240.0,2.0,0.0
1229,67.0,0.0,360.0,2.0,0.0
1230,74.0,0.0,120.0,2.0,0.0
1231,64.0,0.0,360.0,3.0,0.0
1232,86.0,232.0,120.0,0.0,0.0
1233,79.0,0.0,360.0,1.0,0.0
1234,72.0,0.0,240.0,2.0,0.0
1235,84.0,120.0,240.0,0.0,0.0
1236,77.0,0.0,120.0,2.0,0.0
1237,67.0,0.0,120.0,3.0,0.0
1238,83.0,0.0,240.0,0.0,0.0
1239,79.0,0.0,120.0,1.0,0.0
1240,74.0,120.0,120.0,2.0,0.0
1241,79.0,0.0,120.0,1.0,0.0
1242,74.0,0.0,120.0,2.0,0.0
1243,67.0,48.0,120.0,3.0,0.0
1244,77.0,0.0,120.0,2.0,0.0
1245,83.0,40.0,30.0,0.0,0.0
1246,79.0,0.0,120.0,1.0,0.0
1247,74.0,22.0,90.0,2.0,0.0
1248,67.0,0.0,120.0,3.0,0.0
1249,77.0,4.0,120.0,2.0,0.0
1250,84.0,10.0,30.0,0.0,0.0
1251,86.0,124.0,30.0,0.0,0.0
1252,71.0,0.0,30.0,2.0,0.0
1253,76.0,0.0,120.0,2.0,0.0
1254,79.0,0.0,120.0,1.0,0.0
1255,84.0,0.0,120.0,0.0,0.0
1256,72.0,120.0,120.0,2.0,0.0
1257,67.0,0.0,120.0,3.0,0.0
1258,60.0,0.0,120.0,3.0,0.0
1259,72.0,60.0,60.0,11.0,0.0
1260,60.0,0.0,60.0,12.0,0.0
1261,76.0,56.0,60.0,11.0,0.0
1262,64.0,0.0,60.0,12.0,0.0
1263,67.0,64.0,60.0,12.0,0.0
1264,79.0,0.0,60.0,11.0,0.0
1265,57.0,0.0,360.0,14.0,0.0
1266,72.0,4.0,360.0,13.0,0.0
1267,48.0,0.0,360.0,3.0,0.0
1268,60.0,0.0,360.0,3.0,0.0
1269,79.0,0.0,60.0,11.0,0.0
1270,45.0,0.0,360.0,15.0,0.0
1271,67.0,56.0,60.0,12.0,0.0
1272,65.0,180.0,60.0,12.0,0.0
1273,77.0,0.0,60.0,11.0,0.0
1274,64.0,56.0,180.0,12.0,0.0
1275,76.0,0.0,180.0,11.0,0.0
1276,76.0,0.0,60.0,11.0,0.0
1277,64.0,64.0,60.0,12.0,0.0
1278,64.0,0.0,60.0,12.0,0.0
1279,60.0,0.0,360.0,3.0,0.0
1280,52.0,0.0,360.0,14.0,0.0
1281,40.0,4.0,360.0,15.0,0.0
1282,67.0,0.0,360.0,13.0,0.0
1283,55.0,0.0,360.0,3.0,0.0
1284,76.0,56.0,60.0,11.0,0.0
1285,62.0,0.0,60.0,12.0,0.0
1286,74.0,180.0,60.0,11.0,0.0
1287,60.0,0.0,180.0,12.0,0.0
1288,72.0,56.0,180.0,11.0,0.0
1289,67.0,0.0,120.0,2.0,0.0
1290,64.0,0.0,120.0,2.0,0.0
1291,72.0,116.0,60.0,11.0,0.0
1292,60.0,0.0,60.0,12.0,0.0
1293,65.0,0.0,120.0,13.0,0.0
1294,65.0,0.0,120.0,2.0,0.0
1295,67.0,0.0,120.0,2.0,0.0
1296,62.0,0.0,120.0,13.0,0.0
1297,55.0,0.0,120.0,14.0,0.0
1298,55.0,0.0,120.0,3.0,0.0
1299,62.0,120.0,120.0,3.0,0.0
1300,71.0,0.0,240.0,11.0,0.0
1301,59.0,0.0,240.0,12.0,0.0
1302,43.0,0.0,120.0,15.0,0.0
1303,55.0,0.0,120.0,14.0,0.0
1304,65.0,0.0,120.0,13.0,0.0
1305,43.0,0.0,120.0,15.0,0.0
1306,67.0,0.0,120.0,2.0,0.0
1307,65.0,0.0,120.0,2.0,0.0
1308,62.0,0.0,120.0,3.0,0.0
1309,62.0,48.0,120.0,13.0,0.0
1310,55.0,0.0,120.0,3.0,0.0
1311,55.0,0.0,120.0,3.0,0.0
1312,62.0,0.0,90.0,3.0,0.0
1313,62.0,22.0,90.0,13.0,0.0
1314,71.0,0.0,30.0,11.0,0.0
1315,65.0,0.0,120.0,13.0,0.0
1316,55.0,0.0,120.0,14.0,0.0
1317,59.0,40.0,30.0,12.0,0.0
1318,67.0,0.0,120.0,2.0,0.0
1319,65.0,4.0,120.0,2.0,0.0
1320,43.0,120.0,120.0,15.0,0.0
1321,72.0,0.0,30.0,11.0,0.0
1322,60.0,10.0,30.0,12.0,0.0
1323,62.0,4.0,30.0,12.0,0.0
1324,74.0,0.0,30.0,11.0,0.0
1325,59.0,0.0,30.0,13.0,0.0
1326,59.0,0.0,30.0,3.0,0.0
1327,55.0,0.0,120.0,3.0,0.0
1328,48.0,160.0,120.0,14.0,0.0
1329,60.0,0.0,120.0,13.0,0.0
1330,64.0,0.0,120.0,13.0,0.0
1331,64.0,0.0,120.0,2.0,0.0
1332,60.0,0.0,120.0,3.0,0.0
1333,67.0,0.0,120.0,2.0,0.0
1334,60.0,0.0,120.0,12.0,0.0
1335,72.0,0.0,120.0,11.0,0.0
1336,36.0,0.0,120.0,15.0,0.0
1337,83.0,40.0,30.0,0.0,0.0
1338,74.0,26.0,90.0,2.0,0.0
1339,77.0,120.0,120.0,2.0,0.0
1340,67.0,0.0,240.0,3.0,0.0
1341,79.0,0.0,240.0,1.0,0.0
1342,84.0,10.0,30.0,0.0,0.0
1343,86.0,4.0,30.0,0.0,0.0
1344,71.0,0.0,30.0,2.0,0.0
1345,84.0,160.0,120.0,0.0,0.0
1346,76.0,0.0,120.0,2.0,0.0
1347,72.0,0.0,120.0,2.0,0.0
1348,60.0,0.0,120.0,3.0,0.0
1349,83.0,0.0,120.0,0.0,0.0
1350,59.0,0.0,120.0,2.0,0.0
1351,62.0,0.0,120.0,2.0,0.0
1352,55.0,0.0,180.0,3.0,0.0
1353,74.0,0.0,120.0,1.0,0.0
1354,55.0,0.0,120.0,14.0,0.0
1355,71.0,0.0,30.0,11.0,0.0
1356,53.0,0.0,30.0,13.0,0.0
1357,62.0,40.0,30.0,12.0,0.0
1358,67.0,0.0,180.0,3.0,0.0
1359,83.0,0.0,120.0,1.0,0.0
1360,43.0,60.0,120.0,15.0,0.0
1361,86.0,0.0,120.0,0.0,0.0
1362,72.0,0.0,30.0,11.0,0.0
1363,60.0,0.0,30.0,12.0,0.0
1364,52.0,36.0,30.0,13.0,0.0
1365,59.0,0.0,30.0,12.0,0.0
1366,53.0,4.0,30.0,13.0,0.0
1367,74.0,0.0,30.0,11.0,0.0
1368,52.0,0.0,60.0,13.0,0.0
1369,72.0,120.0,60.0,11.0,0.0
1370,36.0,0.0,60.0,15.0,0.0
1371,48.0,0.0,60.0,14.0,0.0
1372,76.0,0.0,60.0,1.0,0.0
1373,84.0,0.0,60.0,0.0,0.0
1374,60.0,0.0,60.0,12.0,0.0
1375,60.0,0.0,60.0,2.0,0.0
1376,64.0,0.0,60.0,2.0,0.0
1377,84.0,0.0,60.0,1.0,0.0
1378,76.0,120.0,60.0,1.0,0.0
1379,64.0,0.0,60.0,2.0,0.0
1380,79.0,0.0,60.0,1.0,0.0
1381,84.0,0.0,60.0,0.0,0.0
1382,72.0,0.0,60.0,0.0,0.0
1383,60.0,0.0,60.0,2.0,0.0
1384,36.0,0.0,60.0,15.0,0.0
1385,48.0,0.0,60.0,14.0,0.0
1386,72.0,0.0,60.0,11.0,0.0
1387,64.0,0.0,60.0,3.0,0.0
1388,55.0,0.0,60.0,3.0,0.0
1389,52.0,0.0,60.0,13.0,0.0
1390,60.0,0.0,60.0,12.0,0.0
1391,60.0,0.0,60.0,2.0,0.0
1392,72.0,180.0,60.0,0.0,0.0
1393,76.0,0.0,60.0,1.0,0.0
1394,79.0,0.0,60.0,1.0,0.0
1395,72.0,0.0,60.0,11.0,0.0
1396,52.0,0.0,60.0,13.0,0.0
1397,84.0,0.0,60.0,0.0,0.0
1398,64.0,0.0,60.0,2.0,0.0
1399,60.0,0.0,60.0,12.0,0.0
1400,55.0,0.0,60.0,3.0,0.0
1401,64.0,0.0,60.0,3.0,0.0
1402,36.0,0.0,60.0,15.0,0.0
1403,48.0,0.0,60.0,14.0,0.0
1404,76.0,0.0,120.0,1.0,0.0
1405,60.0,0.0,120.0,12.0,0.0
1406,60.0,0.0,120.0,3.0,0.0
1407,52.0,0.0,120.0,3.0,0.0
1408,64.0,0.0,120.0,2.0,0.0
1409,60.0,210.0,120.0,2.0,0.0
1410,84.0,0.0,120.0,0.0,0.0
1411,72.0,0.0,120.0,0.0,0.0
1412,72.0,0.0,120.0,11.0,0.0
1413,79.0,0.0,120.0,1.0,0.0
1414,48.0,0.0,120.0,14.0,0.0
1415,52.0,0.0,120.0,13.0,0.0
1416,36.0,0.0,120.0,15.0,0.0
1417,55.0,0.0,90.0,3.0,0.0
1418,67.0,26.0,90.0,2.0,0.0
1419,59.0,34.0,30.0,3.0,0.0
1420,71.0,0.0,30.0,2.0,0.0
1421,67.0,0.0,120.0,2.0,0.0
1422,52.0,30.0,30.0,13.0,0.0
1423,72.0,4.0,120.0,2.0,0.0
1424,60.0,0.0,120.0,3.0,0.0
1425,52.0,0.0,120.0,3.0,0.0
1426,48.0,30.0,120.0,15.0,0.0
1427,60.0,0.0,120.0,14.0,0.0
1428,55.0,30.0,30.0,13.0,0.0
1429,60.0,22.0,30.0,13.0,0.0
1430,55.0,4.0,30.0,13.0,0.0
1431,60.0,0.0,120.0,14.0,0.0
1432,67.0,0.0,120.0,2.0,0.0
1433,72.0,30.0,120.0,2.0,0.0
1434,67.0,0.0,120.0,12.0,0.0
1435,72.0,0.0,120.0,11.0,0.0
1436,52.0,30.0,30.0,13.0,0.0
1437,48.0,0.0,120.0,15.0,0.0
1438,60.0,0.0,120.0,3.0,0.0
1439,52.0,0.0,120.0,3.0,0.0
1440,55.0,30.0,30.0,13.0,0.0
1441,60.0,26.0,30.0,13.0,0.0
1442,55.0,4.0,30.0,13.0,0.0
1443,55.0,0.0,120.0,14.0,0.0
1444,43.0,0.0,120.0,15.0,0.0
1445,55.0,30.0,30.0,13.0,0.0
1446,71.0,0.0,120.0,2.0,0.0
1447,74.0,30.0,120.0,2.0,0.0
1448,62.0,0.0,120.0,3.0,0.0
1449,55.0,0.0,120.0,3.0,0.0
1450,71.0,0.0,120.0,12.0,0.0
1451,74.0,0.0,120.0,11.0,0.0
1452,59.0,30.0,30.0,13.0,0.0
1453,62.0,26.0,30.0,13.0,0.0
1454,59.0,4.0,30.0,13.0,0.0
1455,72.0,0.0,120.0,12.0,0.0
1456,48.0,0.0,120.0,14.0,0.0
1457,76.0,30.0,120.0,11.0,0.0
1458,36.0,0.0,120.0,15.0,0.0
1459,60.0,0.0,240.0,3.0,0.0
1460,76.0,0.0,240.0,2.0,0.0
1461,72.0,0.0,240.0,2.0,0.0
1462,64.0,4.0,240.0,3.0,0.0
1463,55.0,30.0,30.0,13.0,0.0
1464,60.0,30.0,30.0,13.0,0.0
1465,64.0,30.0,30.0,13.0,0.0
1466,60.0,0.0,30.0,13.0,0.0
1467,55.0,30.0,30.0,13.0,0.0
1468,60.0,30.0,30.0,13.0,0.0
1469,55.0,22.0,30.0,13.0,0.0
1470,52.0,34.0,30.0,13.0,0.0
1471,60.0,26.0,90.0,3.0,0.0
1472,52.0,0.0,90.0,3.0,0.0
1473,67.0,0.0,90.0,2.0,0.0
1474,72.0,0.0,90.0,2.0,0.0
1475,52.0,30.0,30.0,13.0,0.0
1476,60.0,30.0,30.0,13.0,0.0
1477,55.0,0.0,30.0,13.0,0.0
1478,62.0,0.0,30.0,13.0,0.0
1479,55.0,4.0,30.0,3.0,0.0
1480,62.0,0.0,30.0,3.0,0.0
1481,74.0,0.0,30.0,2.0,0.0
1482,71.0,30.0,30.0,2.0,0.0
1483,72.0,0.0,120.0,2.0,0.0
1484,76.0,4.0,120.0,2.0,0.0
1485,60.0,0.0,120.0,3.0,0.0
1486,64.0,0.0,120.0,3.0,0.0
1487,48.0,0.0,120.0,14.0,0.0
1488,55.0,30.0,30.0,13.0,0.0
1489,36.0,30.0,120.0,15.0,0.0
1490,60.0,30.0,30.0,13.0,0.0
1491,64.0,22.0,30.0,13.0,0.0
1492,60.0,4.0,30.0,13.0,0.0
1493,76.0,0.0,120.0,11.0,0.0
1494,60.0,0.0,120.0,14.0,0.0
1495,64.0,0.0,120.0,3.0,0.0
1496,72.0,0.0,120.0,12.0,0.0
1497,76.0,0.0,120.0,2.0,0.0
1498,55.0,30.0,30.0,13.0,0.0
1499,72.0,0.0,120.0,2.0,0.0
1500,48.0,0.0,120.0,15.0,0.0
1501,60.0,30.0,120.0,3.0,0.0
1502,60.0,30.0,30.0,13.0,0.0
1503,64.0,26.0,30.0,13.0,0.0
1504,60.0,4.0,30.0,13.0,0.0
1505,74.0,0.0,120.0,12.0,0.0
1506,60.0,30.0,120.0,14.0,0.0
1507,48.0,0.0,120.0,15.0,0.0
1508,65.0,0.0,120.0,3.0,0.0
1509,77.0,0.0,120.0,2.0,0.0
1510,55.0,30.0,30.0,13.0,0.0
1511,62.0,0.0,120.0,3.0,0.0
1512,77.0,0.0,120.0,11.0,0.0
1513,74.0,0.0,120.0,2.0,0.0
1514,62.0,30.0,30.0,13.0,0.0
1515,65.0,26.0,30.0,13.0,0.0
1516,62.0,4.0,30.0,13.0,0.0
1517,55.0,30.0,30.0,13.0,0.0
1518,60.0,30.0,120.0,14.0,0.0
1519,76.0,0.0,120.0,12.0,0.0
1520,79.0,0.0,120.0,11.0,0.0
1521,79.0,0.0,240.0,2.0,0.0
1522,76.0,8.0,240.0,2.0,0.0
1523,64.0,0.0,240.0,3.0,0.0
1524,67.0,0.0,240.0,3.0,0.0
1525,48.0,0.0,120.0,15.0,0.0
1526,64.0,30.0,30.0,13.0,0.0
1527,67.0,30.0,30.0,13.0,0.0
1528,64.0,0.0,30.0,13.0,0.0
1529,60.0,30.0,30.0,13.0,0.0
1530,64.0,30.0,30.0,13.0,0.0
1531,67.0,22.0,30.0,13.0,0.0
1532,71.0,90.0,30.0,13.0,0.0
1533,72.0,56.0,120.0,13.0,0.0
1534,79.0,26.0,90.0,11.0,0.0
1535,76.0,0.0,360.0,2.0,0.0
1536,79.0,0.0,360.0,2.0,0.0
1537,81.0,4.0,30.0,11.0,0.0
1538,82.0,4.0,240.0,11.0,0.0
1539,73.0,30.0,30.0,13.0,0.0
1540,73.0,0.0,30.0,12.0,0.0
1541,73.0,0.0,30.0,12.0,0.0
1542,73.0,30.0,30.0,13.0,0.0
1543,73.0,0.0,30.0,12.0,0.0
1544,73.0,60.0,30.0,13.0,0.0
1545,73.0,56.0,60.0,12.0,0.0
1546,73.0,0.0,60.0,13.0,0.0
1547,73.0,0.0,60.0,13.0,0.0
1548,73.0,64.0,60.0,12.0,0.0
1549,73.0,30.0,60.0,12.0,0.0
1550,76.0,60.0,360.0,2.0,0.0
1551,79.0,0.0,360.0,2.0,0.0
1552,79.0,26.0,90.0,11.0,0.0
1553,73.0,0.0,60.0,13.0,0.0
1554,81.0,60.0,30.0,11.0,0.0
1555,82.0,4.0,240.0,11.0,0.0
1556,73.0,0.0,30.0,13.0,0.0
1557,73.0,30.0,30.0,12.0,0.0
1558,73.0,0.0,30.0,13.0,0.0
1559,73.0,30.0,30.0,12.0,0.0
1560,73.0,60.0,30.0,13.0,0.0
1561,73.0,0.0,30.0,12.0,0.0
1562,73.0,0.0,60.0,13.0,0.0
1563,73.0,56.0,60.0,12.0,0.0
1564,73.0,0.0,60.0,13.0,0.0
1565,73.0,4.0,60.0,12.0,0.0
1566,67.0,26.0,90.0,3.0,0.0
1567,79.0,0.0,90.0,1.0,0.0
1568,79.0,0.0,90.0,11.0,0.0
1569,91.0,0.0,90.0,0.0,0.0
1570,73.0,30.0,60.0,12.0,0.0
1571,73.0,0.0,60.0,13.0,0.0
1572,69.0,19.0,30.0,3.0,0.0
1573,81.0,0.0,30.0,11.0,0.0
1574,81.0,0.0,30.0,1.0,0.0
1575,93.0,0.0,30.0,0.0,0.0
1576,91.0,0.0,360.0,0.0,0.0
1577,52.0,11.0,15.0,6.0,0.0
1578,64.0,0.0,360.0,4.0,0.0
1579,48.0,0.0,30.0,14.0,0.0
1580,79.0,0.0,360.0,1.0,0.0
1581,76.0,0.0,30.0,13.0,0.0
1582,82.0,4.0,360.0,11.0,0.0
1583,94.0,0.0,360.0,0.0,0.0
1584,67.0,0.0,360.0,2.0,0.0
1585,76.0,0.0,360.0,2.0,0.0
1586,52.0,0.0,360.0,4.0,0.0
1587,82.0,0.0,360.0,1.0,0.0
1588,76.0,0.0,360.0,5.0,0.0
1589,64.0,0.0,360.0,5.0,0.0
1590,70.0,0.0,360.0,3.0,0.0
1591,64.0,0.0,360.0,3.0,0.0
1592,80.0,0.0,30.0,12.0,0.0
1593,36.0,4.0,30.0,15.0,0.0
1594,52.0,15.0,15.0,6.0,0.0
1595,48.0,0.0,30.0,14.0,0.0
1596,36.0,0.0,30.0,15.0,0.0
1597,80.0,4.0,30.0,12.0,0.0
1598,52.0,11.0,15.0,6.0,0.0
1599,76.0,0.0,30.0,13.0,0.0
1600,52.0,15.0,15.0,6.0,0.0
1601,76.0,0.0,30.0,13.0,0.0
1602,80.0,0.0,30.0,12.0,0.0
1603,48.0,0.0,30.0,14.0,0.0
1604,36.0,4.0,30.0,15.0,0.0
1605,52.0,11.0,15.0,6.0,0.0
1606,52.0,15.0,15.0,6.0,0.0
1607,80.0,4.0,30.0,12.0,0.0
1608,76.0,0.0,30.0,13.0,0.0
1609,48.0,0.0,30.0,14.0,0.0
1610,36.0,0.0,30.0,15.0,0.0
1611,52.0,11.0,15.0,6.0,0.0
1612,52.0,15.0,15.0,6.0,0.0
1613,80.0,0.0,30.0,12.0,0.0
1614,48.0,4.0,30.0,14.0,0.0
1615,76.0,0.0,30.0,13.0,0.0
1616,36.0,0.0,30.0,15.0,0.0
1617,52.0,11.0,15.0,6.0,0.0
1618,52.0,15.0,15.0,6.0,0.0
1619,52.0,11.0,15.0,6.0,0.0
1620,36.0,0.0,30.0,15.0,0.0
1621,48.0,0.0,30.0,14.0,0.0
1622,80.0,0.0,30.0,12.0,0.0
1623,76.0,4.0,30.0,13.0,0.0
1624,52.0,15.0,15.0,6.0,0.0
1625,76.0,4.0,30.0,13.0,0.0
1626,52.0,11.0,15.0,6.0,0.0
1627,36.0,0.0,30.0,15.0,0.0
1628,48.0,0.0,30.0,14.0,0.0
1629,80.0,0.0,30.0,12.0,0.0
1630,52.0,15.0,15.0,6.0,0.0
1631,48.0,0.0,30.0,14.0,0.0
1632,80.0,4.0,30.0,12.0,0.0
1633,52.0,11.0,15.0,6.0,0.0
1634,76.0,0.0,30.0,13.0,0.0
1635,36.0,0.0,30.0,15.0,0.0
1636,52.0,15.0,15.0,6.0,0.0
1637,52.0,11.0,15.0,6.0,0.0
1638,76.0,4.0,30.0,13.0,0.0
1639,48.0,0.0,30.0,14.0,0.0
1640,80.0,0.0,30.0,12.0,0.0
1641,36.0,0.0,30.0,15.0,0.0
1642,52.0,15.0,15.0,6.0,0.0
1643,76.0,4.0,30.0,13.0,0.0
1644,48.0,0.0,30.0,14.0,0.0
1645,52.0,11.0,15.0,6.0,0.0
1646,80.0,0.0,30.0,12.0,0.0
1647,36.0,0.0,30.0,15.0,0.0
1648,52.0,15.0,15.0,6.0,0.0
1649,36.0,0.0,30.0,15.0,0.0
1650,48.0,4.0,30.0,14.0,0.0
1651,76.0,0.0,30.0,13.0,0.0
1652,80.0,0.0,30.0,12.0,0.0
1653,52.0,11.0,15.0,6.0,0.0
1654,52.0,15.0,15.0,6.0,0.0
1655,80.0,0.0,30.0,12.0,0.0
1656,76.0,0.0,30.0,13.0,0.0
1657,52.0,7.0,15.0,6.0,0.0
1658,36.0,4.0,30.0,15.0,0.0
1659,48.0,0.0,30.0,14.0,0.0
1660,52.0,26.0,15.0,6.0,0.0
1661,64.0,0.0,90.0,5.0,0.0
1662,76.0,26.0,90.0,5.0,0.0
1663,68.0,0.0,90.0,2.0,0.0
1664,83.0,0.0,90.0,11.0,0.0
1665,52.0,0.0,90.0,4.0,0.0
1666,68.0,0.0,60.0,3.0,0.0
1667,83.0,0.0,90.0,1.0,0.0
1668,80.0,0.0,90.0,1.0,0.0
1669,76.0,30.0,30.0,13.0,0.0
1670,80.0,0.0,30.0,12.0,0.0
1671,64.0,0.0,90.0,4.0,0.0
1672,71.0,19.0,60.0,3.0,0.0
1673,76.0,0.0,90.0,2.0,0.0
1674,35.0,0.0,60.0,15.0,0.0
1675,92.0,0.0,90.0,0.0,0.0
1676,47.0,0.0,90.0,6.0,0.0
1677,95.0,0.0,90.0,0.0,0.0
1678,47.0,0.0,60.0,14.0,0.0
1679,76.0,0.0,30.0,13.0,0.0
1680,80.0,11.0,30.0,12.0,0.0
1681,40.0,0.0,30.0,15.0,0.0
1682,52.0,0.0,30.0,14.0,0.0
1683,76.0,0.0,30.0,13.0,0.0
1684,80.0,4.0,30.0,12.0,0.0
1685,56.0,0.0,30.0,14.0,0.0
1686,88.0,4.0,30.0,0.0,0.0
1687,80.0,0.0,30.0,1.0,0.0
1688,76.0,0.0,30.0,1.0,0.0
1689,80.0,0.0,30.0,11.0,0.0
1690,92.0,0.0,30.0,0.0,0.0
1691,71.0,0.0,30.0,13.0,0.0
1692,44.0,0.0,30.0,15.0,0.0
1693,64.0,0.0,30.0,3.0,0.0
1694,68.0,26.0,30.0,3.0,0.0
1695,76.0,0.0,30.0,12.0,0.0
1696,68.0,30.0,30.0,13.0,0.0
1697,71.0,0.0,90.0,2.0,0.0
1698,68.0,0.0,90.0,2.0,0.0
1699,64.0,0.0,90.0,3.0,0.0
1700,47.0,0.0,90.0,15.0,0.0
1701,47.0,0.0,90.0,6.0,0.0
1702,59.0,0.0,90.0,3.0,0.0
1703,68.0,0.0,90.0,5.0,0.0
1704,76.0,26.0,90.0,5.0,0.0
1705,83.0,0.0,90.0,0.0,0.0
1706,76.0,0.0,90.0,11.0,0.0
1707,71.0,0.0,30.0,12.0,0.0
1708,71.0,0.0,90.0,1.0,0.0
1709,68.0,0.0,90.0,11.0,0.0
1710,59.0,0.0,90.0,11.0,0.0
1711,76.0,0.0,90.0,1.0,0.0
1712,64.0,0.0,90.0,4.0,0.0
1713,88.0,0.0,90.0,0.0,0.0
1714,59.0,0.0,90.0,14.0,0.0
1715,56.0,0.0,90.0,4.0,0.0
1716,71.0,30.0,30.0,12.0,0.0
1717,68.0,0.0,30.0,13.0,0.0
1718,71.0,0.0,30.0,12.0,0.0
1719,68.0,4.0,30.0,13.0,0.0
1720,64.0,30.0,30.0,13.0,0.0
1721,68.0,0.0,30.0,12.0,0.0
1722,75.0,0.0,30.0,12.0,0.0
1723,66.0,0.0,90.0,4.0,0.0
1724,59.0,0.0,90.0,4.0,0.0
1725,71.0,0.0,90.0,5.0,0.0
1726,35.0,0.0,90.0,15.0,0.0
1727,69.0,0.0,90.0,11.0,0.0
1728,69.0,30.0,30.0,12.0,0.0
1729,71.0,0.0,30.0,13.0,0.0
1730,71.0,0.0,90.0,2.0,0.0
1731,78.0,0.0,90.0,5.0,0.0
1732,78.0,0.0,90.0,11.0,0.0
1733,59.0,0.0,90.0,11.0,0.0
1734,90.0,0.0,90.0,0.0,0.0
1735,87.0,0.0,90.0,0.0,0.0
1736,47.0,26.0,90.0,6.0,0.0
1737,47.0,0.0,90.0,14.0,0.0
1738,78.0,0.0,90.0,1.0,0.0
1739,75.0,0.0,90.0,1.0,0.0
1740,63.0,0.0,90.0,3.0,0.0
1741,69.0,0.0,90.0,2.0,0.0
1742,66.0,0.0,90.0,3.0,0.0
1743,59.0,0.0,30.0,13.0,0.0
1744,75.0,0.0,30.0,12.0,0.0
1745,69.0,30.0,30.0,12.0,0.0
1746,69.0,0.0,30.0,12.0,0.0
1747,75.0,0.0,30.0,12.0,0.0
1748,71.0,4.0,30.0,13.0,0.0
1749,75.0,116.0,30.0,12.0,0.0
1750,69.0,0.0,30.0,12.0,0.0
1751,71.0,0.0,30.0,13.0,0.0
1752,68.0,0.0,120.0,5.0,0.0
1753,88.0,0.0,120.0,0.0,0.0
1754,52.0,0.0,120.0,14.0,0.0
1755,80.0,0.0,120.0,0.0,0.0
1756,52.0,120.0,120.0,6.0,0.0
1757,76.0,0.0,120.0,1.0,0.0
1758,68.0,0.0,120.0,11.0,0.0
1759,71.0,0.0,120.0,2.0,0.0
1760,64.0,0.0,120.0,4.0,0.0
1761,56.0,0.0,120.0,4.0,0.0
1762,64.0,0.0,120.0,13.0,0.0
1763,68.0,0.0,120.0,12.0,0.0
1764,68.0,0.0,120.0,2.0,0.0
1765,40.0,8.0,120.0,15.0,0.0
1766,64.0,0.0,120.0,3.0,0.0
1767,59.0,0.0,120.0,11.0,0.0
1768,76.0,0.0,120.0,11.0,0.0
1769,76.0,0.0,120.0,5.0,0.0
1770,71.0,0.0,120.0,1.0,0.0
1771,76.0,0.0,120.0,12.0,0.0
1772,40.0,0.0,120.0,15.0,0.0
1773,40.0,86.0,120.0,14.0,0.0
1774,56.0,30.0,90.0,4.0,0.0
1775,68.0,0.0,90.0,1.0,0.0
1776,68.0,0.0,90.0,5.0,0.0
1777,59.0,0.0,30.0,4.0,0.0
1778,71.0,26.0,30.0,5.0,0.0
1779,71.0,0.0,30.0,1.0,0.0
1780,56.0,0.0,120.0,4.0,0.0
1781,64.0,8.0,120.0,4.0,0.0
1782,76.0,0.0,120.0,5.0,0.0
1783,68.0,0.0,20.0,11.0,0.0
1784,52.0,0.0,120.0,14.0,0.0
1785,68.0,0.0,120.0,5.0,0.0
1786,68.0,0.0,120.0,1.0,0.0
1787,68.0,0.0,20.0,12.0,0.0
1788,40.0,0.0,120.0,15.0,0.0
1789,76.0,0.0,120.0,1.0,0.0
1790,56.0,30.0,20.0,13.0,0.0
1791,52.0,22.0,120.0,6.0,0.0
1792,71.0,0.0,20.0,12.0,0.0
1793,71.0,0.0,20.0,11.0,0.0
1794,59.0,30.0,20.0,13.0,0.0
1795,76.0,0.0,20.0,12.0,0.0
1796,64.0,0.0,20.0,13.0,0.0
1797,76.0,30.0,20.0,11.0,0.0
1798,59.0,0.0,20.0,13.0,0.0
1799,71.0,0.0,20.0,12.0,0.0
1800,71.0,0.0,20.0,11.0,0.0
1801,52.0,0.0,120.0,14.0,0.0
1802,68.0,30.0,20.0,11.0,0.0
1803,56.0,0.0,120.0,4.0,0.0
1804,40.0,0.0,120.0,15.0,0.0
1805,64.0,0.0,120.0,4.0,0.0
1806,68.0,0.0,120.0,1.0,0.0
1807,76.0,0.0,120.0,5.0,0.0
1808,68.0,0.0,120.0,5.0,0.0
1809,68.0,0.0,20.0,12.0,0.0
1810,76.0,0.0,120.0,1.0,0.0
1811,52.0,22.0,120.0,6.0,0.0
1812,56.0,0.0,20.0,13.0,0.0
1813,71.0,0.0,20.0,12.0,0.0
1814,71.0,0.0,20.0,11.0,0.0
1815,59.0,30.0,20.0,13.0,0.0
1816,76.0,0.0,20.0,11.0,0.0
1817,64.0,0.0,20.0,13.0,0.0
1818,76.0,30.0,20.0,12.0,0.0
1819,71.0,0.0,20.0,11.0,0.0
1820,59.0,0.0,20.0,13.0,0.0
1821,71.0,8.0,20.0,12.0,0.0
1822,71.0,30.0,20.0,12.0,0.0
1823,59.0,0.0,20.0,13.0,0.0
1824,47.0,0.0,120.0,14.0,0.0
1825,66.0,0.0,120.0,4.0,0.0
1826,71.0,0.0,120.0,1.0,0.0
1827,78.0,0.0,120.0,1.0,0.0
1828,71.0,0.0,120.0,5.0,0.0
1829,47.0,22.0,120.0,6.0,0.0
1830,35.0,0.0,120.0,15.0,0.0
1831,59.0,0.0,120.0,4.0,0.0
1832,78.0,0.0,120.0,5.0,0.0
1833,71.0,0.0,20.0,11.0,0.0
1834,75.0,0.0,20.0,12.0,0.0
1835,63.0,30.0,20.0,13.0,0.0
1836,75.0,0.0,20.0,11.0,0.0
1837,66.0,0.0,20.0,13.0,0.0
1838,78.0,30.0,20.0,12.0,0.0
1839,78.0,0.0,20.0,11.0,0.0
1840,75.0,0.0,20.0,11.0,0.0
1841,63.0,8.0,20.0,13.0,0.0
1842,75.0,0.0,20.0,12.0,0.0
1843,71.0,0.0,20.0,11.0,0.0
1844,71.0,0.0,20.0,12.0,0.0
1845,59.0,30.0,20.0,13.0,0.0
1846,76.0,0.0,240.0,1.0,0.0
1847,52.0,22.0,120.0,6.0,0.0
1848,80.0,0.0,240.0,1.0,0.0
1849,52.0,0.0,240.0,14.0,0.0
1850,40.0,0.0,240.0,15.0,0.0
1851,64.0,0.0,240.0,4.0,0.0
1852,68.0,0.0,240.0,4.0,0.0
1853,80.0,0.0,240.0,5.0,0.0
1854,76.0,0.0,240.0,5.0,0.0
1855,64.0,0.0,20.0,13.0,0.0
1856,76.0,0.0,20.0,11.0,0.0
1857,76.0,30.0,20.0,12.0,0.0
1858,80.0,0.0,20.0,11.0,0.0
1859,80.0,30.0,20.0,12.0,0.0
1860,68.0,0.0,20.0,13.0,0.0
1861,76.0,0.0,20.0,11.0,0.0
1862,64.0,0.0,20.0,13.0,0.0
1863,76.0,8.0,20.0,12.0,0.0
1864,71.0,0.0,20.0,11.0,0.0
1865,71.0,0.0,20.0,12.0,0.0
1866,59.0,30.0,20.0,13.0,0.0
1867,64.0,30.0,20.0,13.0,0.0
1868,76.0,0.0,20.0,12.0,0.0
1869,76.0,0.0,20.0,11.0,0.0
1870,59.0,0.0,20.0,13.0,0.0
1871,71.0,30.0,20.0,11.0,0.0
1872,71.0,0.0,20.0,12.0,0.0
1873,56.0,0.0,20.0,13.0,0.0
1874,68.0,0.0,20.0,11.0,0.0
1875,68.0,30.0,20.0,12.0,0.0
1876,52.0,22.0,90.0,6.0,0.0
1877,68.0,0.0,90.0,1.0,0.0
1878,76.0,0.0,90.0,1.0,0.0
1879,76.0,0.0,90.0,5.0,0.0
1880,40.0,0.0,90.0,15.0,0.0
1881,64.0,4.0,90.0,4.0,0.0
1882,68.0,0.0,90.0,5.0,0.0
1883,56.0,0.0,90.0,4.0,0.0
1884,52.0,0.0,20.0,13.0,0.0
1885,52.0,0.0,90.0,14.0,0.0
1886,64.0,30.0,20.0,11.0,0.0
1887,64.0,0.0,20.0,12.0,0.0
1888,59.0,30.0,20.0,13.0,0.0
1889,71.0,0.0,20.0,11.0,0.0
1890,71.0,0.0,20.0,12.0,0.0
1891,76.0,0.0,20.0,11.0,0.0
1892,64.0,0.0,20.0,13.0,0.0
1893,76.0,4.0,20.0,12.0,0.0
1894,40.0,4.0,30.0,15.0,0.0
1895,52.0,0.0,30.0,14.0,0.0
1896,71.0,0.0,30.0,5.0,0.0
1897,52.0,22.0,30.0,6.0,0.0
1898,71.0,0.0,30.0,1.0,0.0
1899,78.0,0.0,30.0,1.0,0.0
1900,78.0,0.0,20.0,12.0,0.0
1901,66.0,0.0,30.0,4.0,0.0
1902,78.0,4.0,20.0,11.0,0.0
1903,78.0,0.0,30.0,5.0,0.0
1904,59.0,0.0,30.0,4.0,0.0
1905,66.0,0.0,20.0,13.0,0.0
1906,59.0,30.0,20.0,13.0,0.0
1907,76.0,8.0,120.0,5.0,0.0
1908,80.0,0.0,120.0,5.0,0.0
1909,52.0,0.0,120.0,14.0,0.0
1910,76.0,0.0,120.0,1.0,0.0
1911,80.0,0.0,120.0,1.0,0.0
1912,52.0,22.0,120.0,6.0,0.0
1913,64.0,0.0,120.0,4.0,0.0
1914,71.0,0.0,20.0,11.0,0.0
1915,71.0,0.0,20.0,12.0,0.0
1916,68.0,0.0,120.0,4.0,0.0
1917,40.0,0.0,120.0,15.0,0.0
1918,76.0,30.0,20.0,11.0,0.0
1919,76.0,0.0,20.0,12.0,0.0
1920,64.0,0.0,20.0,13.0,0.0
1921,68.0,30.0,20.0,13.0,0.0
1922,80.0,0.0,20.0,11.0,0.0
1923,80.0,0.0,20.0,12.0,0.0
1924,76.0,0.0,20.0,12.0,0.0
1925,76.0,0.0,20.0,11.0,0.0
1926,64.0,0.0,20.0,13.0,0.0
1927,52.0,0.0,120.0,14.0,0.0
1928,71.0,30.0,20.0,12.0,0.0
1929,80.0,0.0,120.0,1.0,0.0
1930,76.0,0.0,120.0,1.0,0.0
1931,68.0,0.0,120.0,4.0,0.0
1932,59.0,0.0,20.0,13.0,0.0
1933,40.0,0.0,120.0,15.0,0.0
1934,64.0,0.0,120.0,4.0,0.0
1935,80.0,0.0,120.0,5.0,0.0
1936,71.0,0.0,20.0,11.0,0.0
1937,52.0,22.0,120.0,6.0,0.0
1938,76.0,0.0,120.0,5.0,0.0
1939,76.0,0.0,20.0,12.0,0.0
1940,64.0,30.0,20.0,13.0,0.0
1941,76.0,0.0,20.0,11.0,0.0
1942,68.0,30.0,20.0,13.0,0.0
1943,80.0,0.0,20.0,12.0,0.0
1944,80.0,0.0,20.0,11.0,0.0
1945,64.0,0.0,20.0,13.0,0.0
1946,76.0,0.0,20.0,12.0,0.0
1947,76.0,8.0,20.0,11.0,0.0
1948,66.0,0.0,120.0,4.0,0.0
1949,71.0,0.0,20.0,12.0,0.0
1950,59.0,0.0,20.0,13.0,0.0
1951,69.0,0.0,120.0,4.0,0.0
1952,52.0,0.0,120.0,14.0,0.0
1953,78.0,0.0,120.0,5.0,0.0
1954,81.0,0.0,120.0,1.0,0.0
1955,78.0,0.0,120.0,1.0,0.0
1956,81.0,8.0,120.0,5.0,0.0
1957,52.0,15.0,120.0,6.0,0.0
1958,40.0,0.0,120.0,15.0,0.0
1959,71.0,30.0,20.0,11.0,0.0
1960,78.0,30.0,20.0,12.0,0.0
1961,78.0,0.0,20.0,11.0,0.0
1962,66.0,0.0,20.0,13.0,0.0
1963,69.0,0.0,20.0,13.0,0.0
1964,81.0,30.0,20.0,11.0,0.0
1965,81.0,0.0,20.0,12.0,0.0
1966,78.0,0.0,20.0,11.0,0.0
1967,78.0,0.0,20.0,12.0,0.0
1968,66.0,0.0,20.0,13.0,0.0
1969,71.0,0.0,20.0,12.0,0.0
1970,71.0,0.0,20.0,11.0,0.0
1971,40.0,0.0,30.0,15.0,0.0
1972,52.0,7.0,15.0,6.0,0.0
1973,80.0,7.0,210.0,5.0,0.0
1974,71.0,0.0,210.0,4.0,0.0
1975,59.0,8.0,20.0,13.0,0.0
1976,68.0,0.0,210.0,4.0,0.0
1977,80.0,0.0,210.0,1.0,0.0
1978,52.0,15.0,30.0,14.0,0.0
1979,83.0,0.0,210.0,1.0,0.0
1980,83.0,0.0,210.0,5.0,0.0
1981,52.0,0.0,15.0,6.0,0.0
1982,80.0,8.0,20.0,12.0,0.0
1983,52.0,8.0,210.0,14.0,0.0
1984,68.0,0.0,20.0,13.0,0.0
1985,52.0,7.0,15.0,6.0,0.0
1986,80.0,0.0,20.0,11.0,0.0
1987,40.0,0.0,210.0,15.0,0.0
1988,52.0,15.0,15.0,6.0,0.0
1989,71.0,0.0,20.0,13.0,0.0
1990,52.0,7.0,15.0,6.0,0.0
1991,83.0,0.0,20.0,11.0,0.0
1992,83.0,8.0,20.0,12.0,0.0
1993,52.0,15.0,15.0,6.0,0.0
1994,80.0,8.0,20.0,11.0,0.0
1995,80.0,0.0,20.0,12.0,0.0
1996,68.0,0.0,20.0,13.0,0.0
1997,52.0,7.0,15.0,6.0,0.0
1998,52.0,15.0,15.0,6.0,0.0
1999,76.0,8.0,20.0,11.0,0.0
2000,64.0,0.0,20.0,13.0,0.0
2001,76.0,0.0,20.0,12.0,0.0
2002,52.0,7.0,15.0,6.0,0.0
2003,52.0,15.0,15.0,6.0,0.0
2004,52.0,7.0,15.0,6.0,0.0
2005,71.0,8.0,20.0,11.0,0.0
2006,59.0,0.0,20.0,13.0,0.0
2007,71.0,0.0,20.0,12.0,0.0
2008,52.0,15.0,15.0,6.0,0.0
2009,68.0,0.0,20.0,12.0,0.0
2010,68.0,8.0,20.0,11.0,0.0
2011,56.0,0.0,20.0,13.0,0.0
2012,52.0,7.0,15.0,6.0,0.0
2013,52.0,15.0,15.0,6.0,0.0
2014,71.0,0.0,20.0,12.0,0.0
2015,52.0,0.0,15.0,6.0,0.0
2016,71.0,0.0,20.0,11.0,0.0
2017,59.0,0.0,20.0,13.0,0.0
2018,52.0,22.0,15.0,6.0,0.0
2019,76.0,0.0,90.0,1.0,0.0
2020,76.0,0.0,90.0,5.0,0.0
2021,64.0,30.0,20.0,11.0,0.0
2022,80.0,0.0,90.0,1.0,0.0
2023,80.0,0.0,90.0,5.0,0.0
2024,52.0,4.0,90.0,14.0,0.0
2025,40.0,0.0,90.0,15.0,0.0
2026,52.0,0.0,20.0,13.0,0.0
2027,64.0,0.0,90.0,4.0,0.0
2028,52.0,22.0,90.0,6.0,0.0
2029,64.0,0.0,20.0,12.0,0.0
2030,68.0,0.0,90.0,4.0,0.0
2031,64.0,0.0,20.0,13.0,0.0
2032,76.0,0.0,20.0,12.0,0.0
2033,76.0,30.0,20.0,11.0,0.0
2034,80.0,0.0,20.0,12.0,0.0
2035,80.0,4.0,20.0,11.0,0.0
2036,68.0,0.0,20.0,13.0,0.0
2037,52.0,0.0,30.0,14.0,0.0
2038,52.0,15.0,30.0,6.0,0.0
2039,81.0,4.0,20.0,12.0,0.0
2040,81.0,0.0,20.0,11.0,0.0
2041,69.0,0.0,20.0,13.0,0.0
2042,40.0,0.0,30.0,15.0,0.0
2043,78.0,0.0,30.0,1.0,0.0
2044,66.0,0.0,30.0,4.0,0.0
2045,69.0,0.0,30.0,4.0,0.0
2046,81.0,0.0,30.0,1.0,0.0
2047,81.0,4.0,30.0,5.0,0.0
2048,78.0,0.0,30.0,5.0,0.0
2049,71.0,0.0,210.0,4.0,0.0
2050,68.0,0.0,210.0,4.0,0.0
2051,80.0,0.0,210.0,1.0,0.0
2052,83.0,0.0,210.0,1.0,0.0
2053,71.0,8.0,20.0,11.0,0.0
2054,71.0,0.0,20.0,12.0,0.0
2055,52.0,7.0,15.0,6.0,0.0
2056,59.0,0.0,20.0,13.0,0.0
2057,80.0,0.0,210.0,5.0,0.0
2058,83.0,0.0,210.0,5.0,0.0
2059,52.0,0.0,30.0,14.0,0.0
2060,40.0,0.0,30.0,15.0,0.0
2061,52.0,15.0,15.0,6.0,0.0
2062,52.0,7.0,15.0,6.0,0.0
2063,80.0,0.0,20.0,12.0,0.0
2064,80.0,8.0,20.0,11.0,0.0
2065,68.0,0.0,20.0,13.0,0.0
2066,52.0,0.0,210.0,14.0,0.0
2067,40.0,8.0,210.0,15.0,0.0
2068,52.0,15.0,15.0,6.0,0.0
2069,71.0,0.0,20.0,13.0,0.0
2070,83.0,0.0,20.0,11.0,0.0
2071,52.0,7.0,15.0,6.0,0.0
2072,83.0,8.0,20.0,12.0,0.0
2073,52.0,15.0,15.0,6.0,0.0
2074,52.0,7.0,15.0,6.0,0.0
2075,80.0,8.0,20.0,12.0,0.0
2076,68.0,0.0,20.0,13.0,0.0
2077,80.0,0.0,20.0,11.0,0.0
2078,52.0,15.0,15.0,6.0,0.0
2079,52.0,7.0,15.0,6.0,0.0
2080,64.0,8.0,20.0,13.0,0.0
2081,76.0,0.0,20.0,11.0,0.0
2082,76.0,0.0,20.0,12.0,0.0
2083,52.0,15.0,15.0,6.0,0.0
2084,59.0,0.0,20.0,13.0,0.0
2085,71.0,0.0,20.0,11.0,0.0
2086,52.0,7.0,15.0,6.0,0.0
2087,71.0,8.0,20.0,12.0,0.0
2088,52.0,15.0,15.0,6.0,0.0
2089,68.0,0.0,20.0,11.0,0.0
2090,56.0,0.0,20.0,13.0,0.0
2091,52.0,7.0,15.0,6.0,0.0
2092,68.0,8.0,20.0,12.0,0.0
2093,52.0,15.0,15.0,6.0,0.0
2094,71.0,0.0,20.0,12.0,0.0
2095,71.0,0.0,20.0,11.0,0.0
2096,59.0,0.0,20.0,13.0,0.0
2097,52.0,7.0,15.0,6.0,0.0
2098,52.0,22.0,15.0,6.0,0.0
2099,52.0,0.0,90.0,14.0,0.0
2100,76.0,4.0,90.0,5.0,0.0
2101,52.0,0.0,20.0,13.0,0.0
2102,64.0,0.0,90.0,4.0,0.0
2103,40.0,0.0,90.0,15.0,0.0
2104,80.0,0.0,90.0,5.0,0.0
2105,64.0,30.0,20.0,11.0,0.0
2106,68.0,0.0,90.0,4.0,0.0
2107,52.0,22.0,90.0,6.0,0.0
2108,80.0,0.0,90.0,1.0,0.0
2109,76.0,0.0,90.0,1.0,0.0
2110,64.0,0.0,20.0,12.0,0.0
2111,76.0,0.0,20.0,11.0,0.0
2112,76.0,0.0,20.0,12.0,0.0
2113,64.0,30.0,20.0,13.0,0.0
2114,64.0,0.0,20.0,13.0,0.0
2115,68.0,0.0,20.0,13.0,0.0
2116,76.0,0.0,20.0,12.0,0.0
2117,80.0,4.0,20.0,11.0,0.0
2118,52.0,0.0,30.0,14.0,0.0
2119,78.0,0.0,30.0,1.0,0.0
2120,81.0,0.0,30.0,5.0,0.0
2121,69.0,0.0,20.0,13.0,0.0
2122,52.0,120.0,30.0,6.0,0.0
2123,78.0,0.0,30.0,5.0,0.0
2124,66.0,0.0,20.0,13.0,0.0
2125,81.0,0.0,20.0,11.0,0.0
2126,66.0,0.0,30.0,4.0,0.0
2127,40.0,4.0,30.0,15.0,0.0
2128,78.0,4.0,20.0,12.0,0.0
2129,69.0,0.0,30.0,4.0,0.0
2130,81.0,0.0,30.0,1.0,0.0
2131,68.0,0.0,120.0,13.0,0.0
2132,71.0,0.0,120.0,13.0,0.0
2133,52.0,0.0,120.0,14.0,0.0
2134,80.0,0.0,480.0,5.0,0.0
2135,83.0,0.0,480.0,5.0,0.0
2136,71.0,0.0,840.0,4.0,0.0
2137,40.0,0.0,120.0,15.0,0.0
2138,68.0,0.0,120.0,11.0,0.0
2139,83.0,0.0,120.0,11.0,0.0
2140,68.0,56.0,840.0,4.0,0.0
2141,76.0,0.0,120.0,11.0,0.0
2142,80.0,0.0,480.0,1.0,0.0
2143,83.0,210.0,480.0,1.0,0.0
2144,80.0,360.0,120.0,12.0,0.0
2145,52.0,0.0,120.0,6.0,0.0
2146,74.0,0.0,360.0,12.0,0.0
2147,74.0,26.0,90.0,11.0,0.0
2148,71.0,0.0,360.0,13.0,0.0
2149,76.0,60.0,30.0,11.0,0.0
2150,77.0,4.0,240.0,11.0,0.0
2151,59.0,56.0,840.0,3.0,0.0
2152,56.0,56.0,720.0,3.0,0.0
2153,44.0,30.0,30.0,14.0,0.0
2154,44.0,30.0,30.0,14.0,0.0
2155,44.0,4.0,30.0,14.0,0.0
2156,44.0,56.0,60.0,14.0,0.0
2157,44.0,64.0,60.0,14.0,0.0
2158,74.0,0.0,360.0,12.0,0.0
2159,71.0,4.0,360.0,13.0,0.0
2160,74.0,26.0,90.0,11.0,0.0
2161,44.0,30.0,60.0,14.0,0.0
2162,76.0,60.0,30.0,11.0,0.0
2163,77.0,0.0,240.0,11.0,0.0
2164,44.0,30.0,30.0,14.0,0.0
2165,44.0,30.0,30.0,14.0,0.0
2166,44.0,60.0,30.0,14.0,0.0
2167,44.0,56.0,60.0,14.0,0.0
2168,44.0,64.0,60.0,14.0,0.0
2169,74.0,8.0,480.0,12.0,0.0
2170,71.0,0.0,480.0,13.0,0.0
2171,44.0,30.0,60.0,14.0,0.0
2172,74.0,26.0,90.0,11.0,0.0
2173,76.0,4.0,30.0,11.0,0.0
2174,77.0,0.0,360.0,11.0,0.0
2175,56.0,56.0,720.0,3.0,0.0
2176,44.0,30.0,30.0,14.0,0.0
2177,44.0,30.0,30.0,14.0,0.0
2178,44.0,4.0,30.0,14.0,0.0
2179,62.0,0.0,240.0,3.0,0.0
2180,44.0,60.0,60.0,14.0,0.0
2181,44.0,60.0,60.0,14.0,0.0
2182,44.0,56.0,60.0,14.0,0.0
2183,44.0,56.0,60.0,14.0,0.0
2184,63.0,0.0,720.0,3.0,0.0
2185,78.0,0.0,360.0,11.0,0.0
2186,75.0,8.0,720.0,12.0,0.0
2187,72.0,0.0,720.0,13.0,0.0
2188,44.0,30.0,30.0,14.0,0.0
2189,44.0,30.0,30.0,14.0,0.0
2190,44.0,60.0,30.0,14.0,0.0
2191,44.0,60.0,60.0,14.0,0.0
2192,44.0,60.0,60.0,14.0,0.0
2193,44.0,64.0,60.0,14.0,0.0
2194,44.0,0.0,60.0,14.0,0.0
2195,79.0,56.0,360.0,11.0,0.0
2196,55.0,0.0,360.0,3.0,0.0
2197,43.0,30.0,30.0,14.0,0.0
2198,43.0,30.0,30.0,14.0,0.0
2199,43.0,60.0,30.0,14.0,0.0
2200,43.0,60.0,60.0,14.0,0.0
2201,43.0,60.0,60.0,14.0,0.0
2202,43.0,56.0,60.0,14.0,0.0
2203,43.0,0.0,60.0,14.0,0.0
2204,75.0,0.0,360.0,12.0,0.0
2205,72.0,0.0,360.0,13.0,0.0
2206,63.0,0.0,360.0,3.0,0.0
2207,54.0,0.0,360.0,3.0,0.0
2208,81.0,56.0,360.0,11.0,0.0
2209,42.0,30.0,30.0,14.0,0.0
2210,42.0,30.0,30.0,14.0,0.0
2211,42.0,60.0,30.0,14.0,0.0
2212,42.0,60.0,60.0,14.0,0.0
2213,42.0,60.0,60.0,14.0,0.0
2214,42.0,64.0,60.0,14.0,0.0
2215,42.0,0.0,60.0,14.0,0.0
2216,74.0,8.0,360.0,12.0,0.0
2217,68.0,0.0,360.0,3.0,0.0
2218,53.0,0.0,360.0,3.0,0.0
2219,83.0,56.0,360.0,11.0,0.0
2220,68.0,0.0,360.0,13.0,0.0
2221,41.0,30.0,30.0,14.0,0.0
2222,41.0,30.0,30.0,14.0,0.0
2223,41.0,60.0,30.0,14.0,0.0
2224,41.0,60.0,60.0,14.0,0.0
2225,41.0,60.0,60.0,14.0,0.0
2226,41.0,56.0,60.0,14.0,0.0
2227,41.0,0.0,60.0,14.0,0.0
2228,52.0,0.0,360.0,3.0,0.0
2229,67.0,56.0,360.0,3.0,0.0
2230,67.0,0.0,360.0,13.0,0.0
2231,84.0,0.0,360.0,11.0,0.0
2232,72.0,0.0,720.0,12.0,0.0
2233,40.0,30.0,30.0,14.0,0.0
2234,40.0,30.0,30.0,14.0,0.0
2235,40.0,60.0,30.0,14.0,0.0
2236,40.0,60.0,60.0,14.0,0.0
2237,40.0,60.0,60.0,14.0,0.0
2238,40.0,64.0,60.0,14.0,0.0
2239,40.0,0.0,60.0,14.0,0.0
2240,65.0,0.0,360.0,3.0,0.0
2241,53.0,0.0,360.0,3.0,0.0
2242,65.0,4.0,360.0,13.0,0.0
2243,81.0,0.0,360.0,11.0,0.0
2244,41.0,30.0,30.0,14.0,0.0
2245,41.0,30.0,30.0,14.0,0.0
2246,41.0,60.0,30.0,14.0,0.0
2247,41.0,60.0,60.0,14.0,0.0
2248,41.0,60.0,60.0,14.0,0.0
2249,41.0,56.0,60.0,14.0,0.0
2250,41.0,56.0,60.0,14.0,0.0
2251,43.0,49.0,60.0,14.0,0.0
2252,43.0,0.0,120.0,15.0,0.0
2253,79.0,45.0,120.0,11.0,0.0
2254,62.0,0.0,60.0,13.0,0.0
2255,62.0,4.0,60.0,3.0,0.0
2256,55.0,0.0,60.0,3.0,0.0
2257,71.0,0.0,120.0,12.0,0.0
2258,55.0,0.0,30.0,3.0,0.0
2259,55.0,0.0,30.0,14.0,0.0
2260,55.0,15.0,30.0,13.0,0.0
2261,67.0,60.0,30.0,13.0,0.0
2262,67.0,0.0,30.0,3.0,0.0
2263,67.0,0.0,30.0,14.0,0.0
2264,67.0,60.0,30.0,2.0,0.0
2265,79.0,60.0,30.0,2.0,0.0
2266,79.0,0.0,30.0,1.0,0.0
2267,79.0,285.0,30.0,0.0,0.0
2268,67.0,0.0,720.0,3.0,0.0
2269,79.0,0.0,720.0,1.0,0.0
2270,91.0,30.0,720.0,0.0,0.0
2271,55.0,0.0,30.0,13.0,0.0
2272,76.0,30.0,120.0,11.0,0.0
2273,36.0,0.0,120.0,15.0,0.0
2274,64.0,0.0,120.0,12.0,0.0
2275,55.0,30.0,30.0,14.0,0.0
2276,59.0,30.0,30.0,14.0,0.0
2277,59.0,0.0,30.0,13.0,0.0
2278,60.0,0.0,30.0,13.0,0.0
2279,60.0,26.0,30.0,14.0,0.0
2280,62.0,0.0,30.0,14.0,0.0
2281,62.0,4.0,30.0,13.0,0.0
2282,64.0,0.0,30.0,13.0,0.0
2283,64.0,30.0,30.0,14.0,0.0
2284,36.0,0.0,120.0,15.0,0.0
2285,64.0,0.0,120.0,12.0,0.0
2286,76.0,0.0,120.0,11.0,0.0
2287,62.0,30.0,30.0,13.0,0.0
2288,62.0,0.0,30.0,14.0,0.0
2289,60.0,0.0,30.0,13.0,0.0
2290,60.0,30.0,30.0,14.0,0.0
2291,59.0,0.0,30.0,13.0,0.0
2292,59.0,30.0,30.0,14.0,0.0
2293,76.0,0.0,120.0,11.0,0.0
2294,36.0,0.0,120.0,15.0,0.0
2295,64.0,0.0,120.0,12.0,0.0
2296,60.0,0.0,30.0,13.0,0.0
2297,60.0,30.0,30.0,14.0,0.0
2298,62.0,0.0,30.0,14.0,0.0
2299,62.0,30.0,30.0,13.0,0.0
2300,60.0,0.0,30.0,14.0,0.0
2301,60.0,30.0,30.0,13.0,0.0
2302,59.0,0.0,30.0,14.0,0.0
2303,59.0,30.0,30.0,13.0,0.0
2304,60.0,0.0,30.0,14.0,0.0
2305,60.0,30.0,30.0,13.0,0.0
2306,62.0,0.0,30.0,14.0,0.0
2307,62.0,30.0,30.0,13.0,0.0
2308,64.0,0.0,30.0,13.0,0.0
2309,76.0,0.0,60.0,11.0,0.0
2310,64.0,0.0,60.0,12.0,0.0
2311,36.0,0.0,60.0,15.0,0.0
2312,64.0,26.0,30.0,14.0,0.0
2313,60.0,0.0,30.0,13.0,0.0
2314,60.0,4.0,30.0,14.0,0.0
2315,41.0,0.0,120.0,15.0,0.0
2316,67.0,0.0,720.0,3.0,0.0
2317,91.0,0.0,720.0,0.0,0.0
2318,57.0,0.0,30.0,14.0,0.0
2319,69.0,0.0,120.0,12.0,0.0
2320,57.0,30.0,30.0,13.0,0.0
2321,79.0,0.0,720.0,1.0,0.0
2322,69.0,0.0,120.0,11.0,0.0
2323,59.0,0.0,30.0,13.0,0.0
2324,59.0,30.0,30.0,14.0,0.0
2325,57.0,30.0,30.0,14.0,0.0
2326,57.0,0.0,30.0,13.0,0.0
2327,56.0,30.0,30.0,14.0,0.0
2328,56.0,0.0,30.0,13.0,0.0
2329,57.0,30.0,30.0,14.0,0.0
2330,69.0,0.0,120.0,12.0,0.0
2331,57.0,0.0,30.0,13.0,0.0
2332,69.0,0.0,120.0,11.0,0.0
2333,41.0,0.0,120.0,15.0,0.0
2334,61.0,0.0,30.0,14.0,0.0
2335,61.0,30.0,30.0,13.0,0.0
2336,62.0,0.0,30.0,14.0,0.0
2337,62.0,30.0,30.0,13.0,0.0
2338,61.0,30.0,30.0,13.0,0.0
2339,61.0,0.0,30.0,14.0,0.0
2340,62.0,0.0,30.0,13.0,0.0
2341,62.0,30.0,30.0,14.0,0.0
2342,64.0,30.0,30.0,13.0,0.0
2343,64.0,0.0,30.0,14.0,0.0
2344,65.0,0.0,30.0,13.0,0.0
2345,41.0,0.0,60.0,15.0,0.0
2346,65.0,26.0,30.0,14.0,0.0
2347,69.0,0.0,60.0,11.0,0.0
2348,69.0,30.0,60.0,12.0,0.0
2349,64.0,0.0,30.0,13.0,0.0
2350,64.0,4.0,30.0,14.0,0.0
2351,65.0,0.0,120.0,12.0,0.0
2352,38.0,0.0,120.0,15.0,0.0
2353,77.0,0.0,120.0,11.0,0.0
2354,65.0,30.0,30.0,13.0,0.0
2355,65.0,0.0,30.0,14.0,0.0
2356,64.0,0.0,30.0,14.0,0.0
2357,64.0,30.0,30.0,13.0,0.0
2358,65.0,30.0,30.0,13.0,0.0
2359,65.0,0.0,30.0,14.0,0.0
2360,64.0,0.0,30.0,13.0,0.0
2361,64.0,30.0,30.0,14.0,0.0
2362,77.0,0.0,120.0,11.0,0.0
2363,62.0,0.0,30.0,13.0,0.0
2364,38.0,0.0,120.0,15.0,0.0
2365,65.0,0.0,120.0,12.0,0.0
2366,62.0,30.0,30.0,14.0,0.0
2367,65.0,0.0,30.0,13.0,0.0
2368,65.0,30.0,30.0,14.0,0.0
2369,60.0,30.0,30.0,14.0,0.0
2370,60.0,0.0,30.0,13.0,0.0
2371,65.0,30.0,30.0,14.0,0.0
2372,65.0,0.0,30.0,13.0,0.0
2373,59.0,0.0,30.0,13.0,0.0
2374,59.0,30.0,30.0,14.0,0.0
2375,65.0,0.0,30.0,14.0,0.0
2376,65.0,30.0,30.0,13.0,0.0
2377,77.0,30.0,60.0,11.0,0.0
2378,57.0,26.0,30.0,13.0,0.0
2379,57.0,0.0,30.0,14.0,0.0
2380,38.0,0.0,60.0,15.0,0.0
2381,65.0,0.0,60.0,12.0,0.0
2382,65.0,4.0,30.0,14.0,0.0
2383,65.0,0.0,30.0,13.0,0.0
2384,80.0,0.0,360.0,1.0,0.0
2385,56.0,0.0,30.0,14.0,0.0
2386,68.0,4.0,360.0,3.0,0.0
2387,40.0,30.0,120.0,15.0,0.0
2388,56.0,30.0,30.0,13.0,0.0
2389,92.0,0.0,360.0,0.0,0.0
2390,76.0,0.0,120.0,11.0,0.0
2391,64.0,0.0,120.0,12.0,0.0
2392,59.0,0.0,30.0,14.0,0.0
2393,59.0,30.0,30.0,13.0,0.0
2394,61.0,30.0,30.0,13.0,0.0
2395,61.0,0.0,30.0,14.0,0.0
2396,63.0,0.0,30.0,13.0,0.0
2397,63.0,0.0,30.0,14.0,0.0
2398,76.0,0.0,120.0,11.0,0.0
2399,64.0,0.0,30.0,13.0,0.0
2400,40.0,0.0,120.0,15.0,0.0
2401,64.0,30.0,30.0,14.0,0.0
2402,64.0,30.0,120.0,12.0,0.0
2403,59.0,0.0,30.0,14.0,0.0
2404,59.0,30.0,30.0,13.0,0.0
2405,61.0,30.0,30.0,14.0,0.0
2406,61.0,0.0,30.0,13.0,0.0
2407,63.0,0.0,30.0,13.0,0.0
2408,63.0,0.0,30.0,14.0,0.0
2409,64.0,30.0,30.0,13.0,0.0
2410,64.0,0.0,30.0,14.0,0.0
2411,59.0,0.0,30.0,13.0,0.0
2412,59.0,30.0,30.0,14.0,0.0
2413,64.0,0.0,30.0,14.0,0.0
2414,64.0,0.0,60.0,12.0,0.0
2415,76.0,30.0,60.0,11.0,0.0
2416,40.0,0.0,60.0,15.0,0.0
2417,64.0,22.0,30.0,13.0,0.0
2418,62.0,0.0,30.0,14.0,0.0
2419,62.0,4.0,30.0,13.0,0.0
2420,81.0,0.0,480.0,1.0,0.0
2421,93.0,0.0,480.0,0.0,0.0
2422,76.0,0.0,120.0,11.0,0.0
2423,61.0,30.0,30.0,14.0,0.0
2424,73.0,0.0,120.0,12.0,0.0
2425,69.0,8.0,480.0,3.0,0.0
2426,61.0,0.0,30.0,13.0,0.0
2427,45.0,0.0,120.0,15.0,0.0
2428,64.0,0.0,30.0,13.0,0.0
2429,64.0,30.0,30.0,14.0,0.0
2430,57.0,30.0,30.0,13.0,0.0
2431,57.0,0.0,30.0,14.0,0.0
2432,64.0,0.0,30.0,14.0,0.0
2433,64.0,30.0,30.0,13.0,0.0
2434,38.0,0.0,120.0,15.0,0.0
2435,62.0,30.0,30.0,13.0,0.0
2436,62.0,0.0,30.0,14.0,0.0
2437,74.0,0.0,120.0,12.0,0.0
2438,77.0,0.0,120.0,11.0,0.0
2439,65.0,30.0,30.0,13.0,0.0
2440,65.0,0.0,30.0,14.0,0.0
2441,57.0,30.0,30.0,14.0,0.0
2442,57.0,0.0,30.0,13.0,0.0
2443,65.0,0.0,30.0,13.0,0.0
2444,65.0,30.0,30.0,14.0,0.0
2445,64.0,30.0,30.0,14.0,0.0
2446,62.0,0.0,30.0,13.0,0.0
2447,65.0,0.0,30.0,13.0,0.0
2448,65.0,30.0,30.0,14.0,0.0
2449,60.0,26.0,30.0,13.0,0.0
2450,74.0,0.0,60.0,12.0,0.0
2451,77.0,0.0,60.0,11.0,0.0
2452,38.0,30.0,60.0,15.0,0.0
2453,60.0,0.0,30.0,14.0,0.0
2454,65.0,4.0,30.0,14.0,0.0
2455,65.0,0.0,30.0,13.0,0.0
2456,74.0,30.0,120.0,11.0,0.0
2457,59.0,30.0,30.0,13.0,0.0
2458,59.0,0.0,30.0,14.0,0.0
2459,43.0,0.0,120.0,15.0,0.0
2460,71.0,0.0,120.0,12.0,0.0
2461,64.0,30.0,30.0,14.0,0.0
2462,62.0,0.0,30.0,13.0,0.0
2463,55.0,0.0,30.0,14.0,0.0
2464,55.0,22.0,30.0,13.0,0.0
2465,62.0,0.0,30.0,14.0,0.0
2466,62.0,0.0,30.0,13.0,0.0
2467,76.0,30.0,120.0,11.0,0.0
2468,72.0,0.0,120.0,12.0,0.0
2469,60.0,30.0,30.0,14.0,0.0
2470,60.0,0.0,30.0,13.0,0.0
2471,91.0,30.0,240.0,0.0,0.0
2472,67.0,0.0,240.0,3.0,0.0
2473,36.0,0.0,120.0,15.0,0.0
2474,79.0,0.0,240.0,1.0,0.0
2475,64.0,30.0,30.0,14.0,0.0
2476,64.0,0.0,30.0,13.0,0.0
2477,55.0,30.0,30.0,13.0,0.0
2478,55.0,0.0,30.0,14.0,0.0
2479,64.0,0.0,30.0,13.0,0.0
2480,64.0,0.0,30.0,14.0,0.0
2481,60.0,0.0,30.0,13.0,0.0
2482,60.0,30.0,30.0,14.0,0.0
2483,64.0,30.0,30.0,14.0,0.0
2484,64.0,0.0,30.0,13.0,0.0
2485,72.0,0.0,60.0,12.0,0.0
2486,55.0,0.0,30.0,13.0,0.0
2487,55.0,26.0,30.0,14.0,0.0
2488,36.0,0.0,60.0,15.0,0.0
2489,76.0,0.0,60.0,11.0,0.0
2490,64.0,0.0,30.0,14.0,0.0
2491,64.0,4.0,30.0,13.0,0.0
2492,74.0,0.0,120.0,11.0,0.0
2493,91.0,4.0,360.0,0.0,0.0
2494,59.0,30.0,30.0,13.0,0.0
2495,31.0,0.0,120.0,15.0,0.0
2496,59.0,0.0,30.0,14.0,0.0
2497,67.0,0.0,360.0,3.0,0.0
2498,71.0,30.0,120.0,12.0,0.0
2499,79.0,0.0,360.0,1.0,0.0
2500,67.0,0.0,30.0,13.0,0.0
2501,67.0,30.0,30.0,14.0,0.0
2502,62.0,30.0,30.0,14.0,0.0
2503,62.0,0.0,30.0,13.0,0.0
2504,67.0,0.0,30.0,14.0,0.0
2505,67.0,0.0,30.0,13.0,0.0
2506,31.0,0.0,120.0,15.0,0.0
2507,59.0,0.0,30.0,14.0,0.0
2508,71.0,0.0,120.0,12.0,0.0
2509,74.0,0.0,120.0,12.0,0.0
2510,59.0,30.0,30.0,13.0,0.0
2511,74.0,0.0,120.0,11.0,0.0
2512,67.0,0.0,30.0,14.0,0.0
2513,67.0,30.0,30.0,13.0,0.0
2514,62.0,0.0,30.0,14.0,0.0
2515,62.0,30.0,30.0,13.0,0.0
2516,67.0,30.0,30.0,13.0,0.0
2517,67.0,0.0,30.0,14.0,0.0
2518,31.0,0.0,120.0,15.0,0.0
2519,59.0,0.0,30.0,13.0,0.0
2520,67.0,0.0,120.0,12.0,0.0
2521,59.0,30.0,30.0,14.0,0.0
2522,59.0,0.0,120.0,12.0,0.0
2523,74.0,0.0,120.0,12.0,0.0
2524,74.0,22.0,120.0,11.0,0.0
2525,67.0,0.0,30.0,14.0,0.0
2526,67.0,30.0,30.0,13.0,0.0
2527,62.0,22.0,30.0,13.0,0.0
2528,62.0,0.0,30.0,14.0,0.0
2529,67.0,4.0,30.0,13.0,0.0
2530,67.0,0.0,30.0,14.0,0.0
2531,76.0,38.0,20.0,11.0,0.0
2532,64.0,0.0,120.0,13.0,0.0
2533,64.0,0.0,120.0,14.0,0.0
2534,36.0,0.0,120.0,15.0,0.0
2535,88.0,30.0,120.0,0.0,0.0
2536,64.0,0.0,120.0,3.0,0.0
2537,76.0,0.0,120.0,1.0,0.0
2538,67.0,0.0,120.0,12.0,0.0
2539,76.0,0.0,120.0,12.0,0.0
2540,60.0,0.0,120.0,12.0,0.0
2541,67.0,30.0,30.0,11.0,0.0
2542,65.0,30.0,30.0,11.0,0.0
2543,64.0,0.0,30.0,11.0,0.0
2544,65.0,30.0,30.0,11.0,0.0
2545,67.0,30.0,30.0,11.0,0.0
2546,69.0,20.0,30.0,11.0,0.0
2547,71.0,10.0,20.0,11.0,0.0
2548,74.0,30.0,15.0,11.0,0.0
2549,72.0,30.0,30.0,11.0,0.0
2550,71.0,30.0,30.0,11.0,0.0
2551,72.0,26.0,30.0,11.0,0.0
2552,74.0,34.0,30.0,11.0,0.0
2553,55.0,30.0,60.0,13.0,0.0
2554,36.0,4.0,360.0,15.0,0.0
2555,52.0,0.0,60.0,14.0,0.0
2556,72.0,8.0,480.0,12.0,0.0
2557,76.0,30.0,30.0,11.0,0.0
2558,74.0,0.0,30.0,11.0,0.0
2559,52.0,15.0,30.0,3.0,0.0
2560,55.0,0.0,60.0,14.0,0.0
2561,60.0,0.0,60.0,13.0,0.0
2562,72.0,15.0,30.0,11.0,0.0
2563,71.0,30.0,30.0,11.0,0.0
2564,52.0,30.0,60.0,14.0,0.0
2565,64.0,15.0,30.0,3.0,0.0
2566,72.0,15.0,30.0,11.0,0.0
2567,55.0,0.0,60.0,13.0,0.0
2568,74.0,0.0,30.0,11.0,0.0
2569,60.0,0.0,60.0,13.0,0.0
2570,72.0,15.0,30.0,11.0,0.0
2571,64.0,15.0,30.0,2.0,0.0
2572,55.0,30.0,60.0,14.0,0.0
2573,71.0,0.0,30.0,11.0,0.0
2574,76.0,15.0,30.0,2.0,0.0
2575,72.0,15.0,30.0,11.0,0.0
2576,52.0,30.0,60.0,14.0,0.0
2577,55.0,0.0,60.0,13.0,0.0
2578,74.0,0.0,30.0,11.0,0.0
2579,55.0,0.0,60.0,14.0,0.0
2580,60.0,30.0,60.0,13.0,0.0
2581,76.0,22.0,30.0,11.0,0.0
2582,72.0,4.0,30.0,11.0,0.0
2583,53.0,0.0,60.0,14.0,0.0
2584,41.0,4.0,360.0,15.0,0.0
2585,69.0,30.0,30.0,11.0,0.0
2586,57.0,0.0,60.0,13.0,0.0
2587,71.0,30.0,30.0,11.0,0.0
2588,57.0,30.0,60.0,14.0,0.0
2589,60.0,0.0,60.0,13.0,0.0
2590,69.0,15.0,30.0,11.0,0.0
2591,57.0,7.0,30.0,3.0,0.0
2592,68.0,0.0,30.0,11.0,0.0
2593,69.0,15.0,30.0,11.0,0.0
2594,69.0,15.0,30.0,3.0,0.0
2595,53.0,0.0,60.0,14.0,0.0
2596,57.0,30.0,60.0,13.0,0.0
2597,74.0,30.0,240.0,12.0,0.0
2598,73.0,0.0,30.0,11.0,0.0
2599,74.0,15.0,30.0,11.0,0.0
2600,57.0,0.0,60.0,14.0,0.0
2601,62.0,0.0,60.0,13.0,0.0
2602,69.0,15.0,30.0,2.0,0.0
2603,73.0,30.0,30.0,11.0,0.0
2604,57.0,0.0,60.0,13.0,0.0
2605,74.0,15.0,30.0,11.0,0.0
2606,53.0,0.0,60.0,14.0,0.0
2607,81.0,15.0,30.0,2.0,0.0
2608,76.0,30.0,30.0,11.0,0.0
2609,62.0,0.0,60.0,13.0,0.0
2610,57.0,0.0,60.0,14.0,0.0
2611,77.0,22.0,30.0,11.0,0.0
2612,76.0,4.0,30.0,11.0,0.0
2613,77.0,30.0,30.0,11.0,0.0
2614,53.0,0.0,60.0,14.0,0.0
2615,38.0,4.0,360.0,15.0,0.0
2616,74.0,0.0,360.0,12.0,0.0
2617,57.0,30.0,60.0,13.0,0.0
2618,76.0,0.0,30.0,11.0,0.0
2619,59.0,0.0,60.0,13.0,0.0
2620,53.0,15.0,30.0,3.0,0.0
2621,57.0,30.0,60.0,14.0,0.0
2622,77.0,15.0,30.0,11.0,0.0
2623,76.0,0.0,30.0,11.0,0.0
2624,53.0,0.0,60.0,14.0,0.0
2625,65.0,15.0,30.0,3.0,0.0
2626,74.0,15.0,30.0,11.0,0.0
2627,57.0,30.0,60.0,13.0,0.0
2628,77.0,0.0,30.0,11.0,0.0
2629,57.0,0.0,60.0,14.0,0.0
2630,72.0,15.0,30.0,11.0,0.0
2631,65.0,15.0,30.0,2.0,0.0
2632,59.0,0.0,60.0,13.0,0.0
2633,77.0,30.0,30.0,11.0,0.0
2634,57.0,0.0,60.0,13.0,0.0
2635,53.0,30.0,60.0,14.0,0.0
2636,77.0,15.0,30.0,2.0,0.0
2637,71.0,15.0,30.0,11.0,0.0
2638,77.0,0.0,30.0,11.0,0.0
2639,59.0,0.0,60.0,13.0,0.0
2640,57.0,30.0,60.0,14.0,0.0
2641,69.0,22.0,30.0,11.0,0.0
2642,77.0,4.0,30.0,11.0,0.0
2643,71.0,0.0,240.0,12.0,0.0
2644,68.0,30.0,30.0,11.0,0.0
2645,56.0,0.0,60.0,14.0,0.0
2646,59.0,0.0,60.0,13.0,0.0
2647,40.0,4.0,360.0,15.0,0.0
2648,76.0,30.0,30.0,11.0,0.0
2649,64.0,0.0,60.0,13.0,0.0
2650,71.0,15.0,30.0,11.0,0.0
2651,52.0,15.0,30.0,3.0,0.0
2652,59.0,0.0,60.0,14.0,0.0
2653,76.0,30.0,30.0,11.0,0.0
2654,59.0,0.0,60.0,13.0,0.0
2655,56.0,30.0,60.0,14.0,0.0
2656,75.0,15.0,30.0,11.0,0.0
2657,64.0,15.0,30.0,3.0,0.0
2658,76.0,0.0,30.0,11.0,0.0
2659,64.0,0.0,60.0,13.0,0.0
2660,59.0,0.0,60.0,14.0,0.0
2661,64.0,15.0,30.0,2.0,0.0
2662,71.0,15.0,30.0,11.0,0.0
2663,76.0,30.0,30.0,11.0,0.0
2664,76.0,0.0,240.0,12.0,0.0
2665,59.0,30.0,60.0,13.0,0.0
2666,76.0,15.0,30.0,2.0,0.0
2667,56.0,0.0,60.0,14.0,0.0
2668,74.0,15.0,30.0,11.0,0.0
2669,76.0,0.0,30.0,11.0,0.0
2670,71.0,22.0,30.0,11.0,0.0
2671,59.0,30.0,60.0,14.0,0.0
2672,64.0,0.0,60.0,13.0,0.0
2673,76.0,4.0,30.0,11.0,0.0
2674,55.0,0.0,60.0,14.0,0.0
2675,45.0,0.0,120.0,15.0,0.0
2676,73.0,30.0,30.0,11.0,0.0
2677,57.0,30.0,60.0,13.0,0.0
2678,76.0,0.0,30.0,11.0,0.0
2679,57.0,15.0,30.0,3.0,0.0
2680,69.0,15.0,30.0,11.0,0.0
2681,57.0,0.0,60.0,14.0,0.0
2682,64.0,0.0,60.0,13.0,0.0
2683,76.0,30.0,30.0,11.0,0.0
2684,77.0,4.0,240.0,12.0,0.0
2685,74.0,15.0,30.0,11.0,0.0
2686,53.0,0.0,60.0,14.0,0.0
2687,57.0,30.0,60.0,13.0,0.0
2688,69.0,15.0,30.0,3.0,0.0
2689,38.0,0.0,240.0,15.0,0.0
2690,77.0,0.0,30.0,11.0,0.0
2691,65.0,15.0,30.0,2.0,0.0
2692,62.0,0.0,60.0,13.0,0.0
2693,69.0,15.0,30.0,11.0,0.0
2694,57.0,30.0,60.0,14.0,0.0
2695,77.0,0.0,30.0,11.0,0.0
2696,57.0,0.0,60.0,13.0,0.0
2697,77.0,15.0,30.0,2.0,0.0
2698,53.0,0.0,60.0,14.0,0.0
2699,74.0,15.0,30.0,11.0,0.0
2700,77.0,30.0,30.0,11.0,0.0
2701,62.0,0.0,60.0,13.0,0.0
2702,72.0,22.0,30.0,11.0,0.0
2703,57.0,30.0,60.0,14.0,0.0
2704,77.0,4.0,30.0,11.0,0.0
2705,43.0,30.0,120.0,15.0,0.0
2706,71.0,30.0,30.0,11.0,0.0
2707,55.0,0.0,60.0,13.0,0.0
2708,74.0,0.0,120.0,12.0,0.0
2709,53.0,0.0,60.0,14.0,0.0
2710,74.0,30.0,30.0,11.0,0.0
2711,67.0,15.0,30.0,11.0,0.0
2712,55.0,0.0,60.0,14.0,0.0
2713,55.0,15.0,30.0,3.0,0.0
2714,62.0,0.0,60.0,13.0,0.0
2715,74.0,0.0,30.0,11.0,0.0
2716,52.0,30.0,60.0,14.0,0.0
2717,67.0,15.0,30.0,3.0,0.0
2718,36.0,0.0,240.0,15.0,0.0
2719,72.0,15.0,30.0,11.0,0.0
2720,76.0,4.0,240.0,12.0,0.0
2721,55.0,0.0,60.0,13.0,0.0
2722,76.0,0.0,30.0,11.0,0.0
2723,64.0,15.0,30.0,2.0,0.0
2724,60.0,0.0,60.0,13.0,0.0
2725,67.0,15.0,30.0,11.0,0.0
2726,55.0,0.0,60.0,14.0,0.0
2727,76.0,30.0,30.0,11.0,0.0
2728,52.0,0.0,60.0,14.0,0.0
2729,76.0,15.0,30.0,2.0,0.0
2730,72.0,15.0,30.0,11.0,0.0
2731,55.0,0.0,60.0,13.0,0.0
2732,76.0,30.0,30.0,11.0,0.0
2733,55.0,30.0,60.0,14.0,0.0
2734,60.0,0.0,60.0,13.0,0.0
2735,67.0,22.0,30.0,11.0,0.0
2736,76.0,4.0,30.0,11.0,0.0
2737,67.0,0.0,360.0,12.0,0.0
2738,55.0,30.0,60.0,13.0,0.0
2739,31.0,0.0,360.0,15.0,0.0
2740,74.0,0.0,360.0,12.0,0.0
2741,71.0,30.0,30.0,11.0,0.0
2742,43.0,0.0,60.0,14.0,0.0
2743,50.0,0.0,60.0,14.0,0.0
2744,79.0,0.0,30.0,11.0,0.0
2745,59.0,0.0,60.0,13.0,0.0
2746,55.0,15.0,30.0,3.0,0.0
2747,55.0,0.0,60.0,14.0,0.0
2748,74.0,15.0,30.0,11.0,0.0
2749,79.0,30.0,30.0,11.0,0.0
2750,67.0,15.0,30.0,3.0,0.0
2751,50.0,0.0,60.0,14.0,0.0
2752,55.0,0.0,60.0,13.0,0.0
2753,71.0,15.0,30.0,11.0,0.0
2754,43.0,30.0,60.0,14.0,0.0
2755,79.0,0.0,30.0,11.0,0.0
2756,59.0,0.0,60.0,13.0,0.0
2757,74.0,15.0,30.0,11.0,0.0
2758,67.0,15.0,30.0,2.0,0.0
2759,55.0,30.0,60.0,14.0,0.0
2760,79.0,0.0,30.0,11.0,0.0
2761,55.0,30.0,60.0,13.0,0.0
2762,79.0,15.0,30.0,2.0,0.0
2763,50.0,0.0,60.0,14.0,0.0
2764,43.0,0.0,60.0,14.0,0.0
2765,71.0,15.0,30.0,11.0,0.0
2766,79.0,0.0,30.0,11.0,0.0
2767,74.0,22.0,30.0,11.0,0.0
2768,79.0,0.0,60.0,2.0,0.0
2769,55.0,56.0,60.0,14.0,0.0
2770,67.0,4.0,60.0,3.0,0.0
2771,59.0,4.0,60.0,13.0,0.0
2772,79.0,0.0,30.0,11.0,0.0
2773,48.0,0.0,120.0,14.0,0.0
2774,36.0,56.0,120.0,15.0,0.0
2775,76.0,0.0,60.0,11.0,0.0
2776,67.0,0.0,60.0,12.0,0.0
2777,76.0,60.0,60.0,12.0,0.0
2778,64.0,0.0,60.0,3.0,0.0
2779,60.0,0.0,60.0,13.0,0.0
2780,76.0,0.0,60.0,2.0,0.0
2781,52.0,0.0,60.0,6.0,0.0
2782,64.0,0.0,60.0,13.0,0.0
2783,60.0,0.0,60.0,13.0,0.0
2784,88.0,0.0,60.0,11.0,0.0
2785,79.0,0.0,60.0,11.0,0.0
2786,76.0,0.0,60.0,2.0,0.0
2787,88.0,0.0,60.0,0.0,0.0
2788,84.0,4.0,60.0,0.0,0.0
2789,76.0,0.0,60.0,1.0,0.0
2790,79.0,0.0,60.0,1.0,0.0
2791,76.0,0.0,60.0,12.0,0.0
2792,64.0,0.0,60.0,4.0,0.0
2793,76.0,0.0,60.0,5.0,0.0
2794,67.0,0.0,60.0,3.0,0.0
2795,64.0,0.0,60.0,3.0,0.0
2796,67.0,0.0,60.0,12.0,0.0
2797,72.0,0.0,60.0,2.0,0.0
2798,64.0,0.0,60.0,5.0,0.0
2799,52.0,30.0,60.0,6.0,0.0
2800,64.0,0.0,60.0,5.0,0.0
2801,79.0,0.0,60.0,11.0,0.0
2802,76.0,0.0,60.0,5.0,0.0
2803,64.0,0.0,60.0,4.0,0.0
2804,64.0,0.0,60.0,3.0,0.0
2805,76.0,0.0,60.0,2.0,0.0
2806,72.0,0.0,60.0,2.0,0.0
2807,67.0,0.0,60.0,12.0,0.0
2808,76.0,0.0,60.0,1.0,0.0
2809,79.0,4.0,60.0,1.0,0.0
2810,88.0,0.0,60.0,11.0,0.0
2811,67.0,0.0,60.0,3.0,0.0
2812,76.0,0.0,60.0,12.0,0.0
2813,88.0,0.0,60.0,0.0,0.0
2814,60.0,0.0,60.0,13.0,0.0
2815,84.0,0.0,60.0,0.0,0.0
2816,64.0,0.0,60.0,13.0,0.0
2817,55.0,0.0,30.0,14.0,0.0
2818,43.0,0.0,30.0,15.0,0.0
2819,88.0,0.0,60.0,0.0,0.0
2820,72.0,0.0,60.0,2.0,0.0
2821,76.0,0.0,60.0,2.0,0.0
2822,64.0,0.0,60.0,3.0,0.0
2823,64.0,0.0,60.0,4.0,0.0
2824,79.0,0.0,60.0,11.0,0.0
2825,88.0,0.0,60.0,11.0,0.0
2826,76.0,0.0,60.0,12.0,0.0
2827,60.0,4.0,60.0,13.0,0.0
2828,67.0,0.0,60.0,12.0,0.0
2829,84.0,0.0,60.0,0.0,0.0
2830,67.0,0.0,60.0,3.0,0.0
2831,76.0,0.0,60.0,1.0,0.0
2832,64.0,0.0,60.0,13.0,0.0
2833,79.0,0.0,60.0,1.0,0.0
2834,76.0,0.0,60.0,5.0,0.0
2835,45.0,0.0,30.0,15.0,0.0
2836,52.0,0.0,60.0,6.0,0.0
2837,64.0,0.0,60.0,5.0,0.0
2838,57.0,20.0,30.0,14.0,0.0
2839,47.0,6.0,20.0,15.0,0.0
2840,59.0,0.0,20.0,14.0,0.0
2841,50.0,30.0,15.0,15.0,0.0
2842,62.0,0.0,15.0,14.0,0.0
2843,76.0,0.0,60.0,1.0,0.0
2844,79.0,0.0,60.0,1.0,0.0
2845,60.0,0.0,60.0,13.0,0.0
2846,48.0,26.0,30.0,15.0,0.0
2847,84.0,0.0,60.0,0.0,0.0
2848,88.0,4.0,60.0,0.0,0.0
2849,60.0,0.0,30.0,14.0,0.0
2850,67.0,0.0,60.0,3.0,0.0
2851,64.0,0.0,60.0,13.0,0.0
2852,88.0,0.0,60.0,11.0,0.0
2853,52.0,0.0,60.0,6.0,0.0
2854,76.0,0.0,60.0,5.0,0.0
2855,64.0,0.0,60.0,5.0,0.0
2856,72.0,0.0,60.0,2.0,0.0
2857,64.0,0.0,60.0,4.0,0.0
2858,76.0,0.0,60.0,2.0,0.0
2859,79.0,0.0,60.0,11.0,0.0
2860,64.0,0.0,60.0,3.0,0.0
2861,76.0,0.0,60.0,12.0,0.0
2862,67.0,0.0,60.0,12.0,0.0
2863,59.0,30.0,30.0,14.0,0.0
2864,47.0,0.0,30.0,15.0,0.0
2865,84.0,0.0,60.0,0.0,0.0
2866,88.0,4.0,60.0,0.0,0.0
2867,88.0,0.0,60.0,11.0,0.0
2868,79.0,0.0,60.0,1.0,0.0
2869,76.0,0.0,60.0,1.0,0.0
2870,60.0,0.0,30.0,14.0,0.0
2871,48.0,26.0,30.0,15.0,0.0
2872,72.0,0.0,60.0,2.0,0.0
2873,76.0,0.0,60.0,2.0,0.0
2874,76.0,0.0,60.0,12.0,0.0
2875,52.0,30.0,60.0,6.0,0.0
2876,79.0,0.0,60.0,11.0,0.0
2877,67.0,0.0,60.0,12.0,0.0
2878,60.0,0.0,60.0,13.0,0.0
2879,64.0,0.0,60.0,13.0,0.0
2880,64.0,0.0,60.0,5.0,0.0
2881,76.0,0.0,60.0,5.0,0.0
2882,64.0,0.0,60.0,3.0,0.0
2883,67.0,0.0,60.0,3.0,0.0
2884,64.0,0.0,60.0,4.0,0.0
2885,50.0,0.0,30.0,15.0,0.0
2886,62.0,0.0,30.0,14.0,0.0
2887,79.0,0.0,60.0,1.0,0.0
2888,76.0,0.0,60.0,1.0,0.0
2889,88.0,0.0,60.0,0.0,0.0
2890,52.0,0.0,30.0,15.0,0.0
2891,52.0,0.0,60.0,6.0,0.0
2892,67.0,0.0,60.0,12.0,0.0
2893,76.0,0.0,60.0,12.0,0.0
2894,88.0,0.0,60.0,11.0,0.0
2895,79.0,4.0,60.0,11.0,0.0
2896,76.0,0.0,60.0,5.0,0.0
2897,67.0,0.0,60.0,3.0,0.0
2898,84.0,0.0,60.0,0.0,0.0
2899,64.0,0.0,60.0,3.0,0.0
2900,64.0,0.0,60.0,4.0,0.0
2901,76.0,0.0,60.0,2.0,0.0
2902,60.0,0.0,60.0,13.0,0.0
2903,64.0,0.0,60.0,13.0,0.0
2904,72.0,0.0,60.0,2.0,0.0
2905,64.0,0.0,60.0,5.0,0.0
2906,64.0,26.0,30.0,14.0,0.0
2907,62.0,0.0,30.0,14.0,0.0
2908,50.0,30.0,30.0,15.0,0.0
2909,79.0,0.0,60.0,1.0,0.0
2910,76.0,0.0,60.0,5.0,0.0
2911,79.0,0.0,60.0,11.0,0.0
2912,67.0,0.0,60.0,12.0,0.0
2913,76.0,0.0,60.0,12.0,0.0
2914,72.0,4.0,60.0,2.0,0.0
2915,76.0,0.0,60.0,2.0,0.0
2916,67.0,0.0,60.0,3.0,0.0
2917,76.0,0.0,60.0,1.0,0.0
2918,48.0,0.0,30.0,15.0,0.0
2919,88.0,0.0,60.0,11.0,0.0
2920,64.0,0.0,60.0,4.0,0.0
2921,64.0,0.0,60.0,13.0,0.0
2922,60.0,0.0,60.0,13.0,0.0
2923,52.0,0.0,60.0,6.0,0.0
2924,84.0,0.0,60.0,0.0,0.0
2925,64.0,0.0,60.0,3.0,0.0
2926,64.0,0.0,60.0,5.0,0.0
2927,88.0,0.0,60.0,0.0,0.0
2928,60.0,26.0,30.0,14.0,0.0
2929,59.0,0.0,30.0,14.0,0.0
2930,47.0,30.0,30.0,15.0,0.0
2931,76.0,0.0,60.0,2.0,0.0
2932,72.0,0.0,60.0,2.0,0.0
2933,76.0,4.0,60.0,1.0,0.0
2934,79.0,0.0,60.0,1.0,0.0
2935,84.0,0.0,60.0,0.0,0.0
2936,64.0,0.0,60.0,3.0,0.0
2937,48.0,0.0,30.0,15.0,0.0
2938,88.0,0.0,60.0,11.0,0.0
2939,52.0,0.0,60.0,6.0,0.0
2940,76.0,0.0,60.0,5.0,0.0
2941,88.0,0.0,60.0,0.0,0.0
2942,60.0,0.0,60.0,13.0,0.0
2943,67.0,0.0,60.0,3.0,0.0
2944,79.0,0.0,60.0,11.0,0.0
2945,64.0,0.0,60.0,13.0,0.0
2946,67.0,0.0,60.0,12.0,0.0
2947,76.0,0.0,60.0,12.0,0.0
2948,64.0,0.0,60.0,5.0,0.0
2949,64.0,0.0,60.0,4.0,0.0
2950,60.0,26.0,30.0,14.0,0.0
2951,50.0,0.0,30.0,15.0,0.0
2952,62.0,30.0,30.0,14.0,0.0
2953,76.0,0.0,60.0,5.0,0.0
2954,76.0,0.0,60.0,12.0,0.0
2955,67.0,0.0,60.0,12.0,0.0
2956,72.0,0.0,60.0,2.0,0.0
2957,67.0,0.0,60.0,3.0,0.0
2958,64.0,0.0,60.0,3.0,0.0
2959,88.0,0.0,60.0,11.0,0.0
2960,88.0,0.0,60.0,0.0,0.0
2961,84.0,4.0,60.0,0.0,0.0
2962,76.0,0.0,60.0,1.0,0.0
2963,79.0,0.0,60.0,1.0,0.0
2964,52.0,0.0,60.0,6.0,0.0
2965,64.0,0.0,60.0,13.0,0.0
2966,60.0,0.0,60.0,13.0,0.0
2967,64.0,0.0,60.0,5.0,0.0
2968,48.0,0.0,30.0,15.0,0.0
2969,64.0,0.0,60.0,4.0,0.0
2970,60.0,26.0,30.0,14.0,0.0
2971,79.0,0.0,60.0,11.0,0.0
2972,76.0,0.0,60.0,2.0,0.0
2973,59.0,0.0,30.0,14.0,0.0
2974,47.0,30.0,30.0,15.0,0.0
2975,84.0,0.0,60.0,0.0,0.0
2976,76.0,0.0,60.0,2.0,0.0
2977,72.0,4.0,60.0,2.0,0.0
2978,64.0,0.0,60.0,13.0,0.0
2979,60.0,0.0,60.0,13.0,0.0
2980,67.0,0.0,60.0,3.0,0.0
2981,60.0,26.0,30.0,14.0,0.0
2982,48.0,0.0,30.0,15.0,0.0
2983,88.0,0.0,60.0,11.0,0.0
2984,79.0,0.0,60.0,11.0,0.0
2985,67.0,0.0,60.0,12.0,0.0
2986,76.0,0.0,60.0,12.0,0.0
2987,64.0,0.0,60.0,5.0,0.0
2988,76.0,0.0,60.0,5.0,0.0
2989,76.0,0.0,60.0,1.0,0.0
2990,64.0,0.0,60.0,4.0,0.0
2991,79.0,0.0,60.0,1.0,0.0
2992,52.0,0.0,60.0,6.0,0.0
2993,88.0,0.0,60.0,0.0,0.0
2994,64.0,0.0,60.0,3.0,0.0
2995,62.0,0.0,30.0,14.0,0.0
2996,50.0,30.0,30.0,15.0,0.0
2997,64.0,0.0,60.0,13.0,0.0
2998,64.0,26.0,30.0,14.0,0.0
2999,88.0,0.0,60.0,11.0,0.0
3000,84.0,0.0,60.0,0.0,0.0
3001,67.0,0.0,60.0,3.0,0.0
3002,64.0,0.0,60.0,3.0,0.0
3003,79.0,0.0,60.0,11.0,0.0
3004,52.0,30.0,60.0,6.0,0.0
3005,79.0,0.0,60.0,1.0,0.0
3006,76.0,0.0,60.0,5.0,0.0
3007,64.0,0.0,60.0,5.0,0.0
3008,52.0,0.0,30.0,15.0,0.0
3009,88.0,0.0,60.0,0.0,0.0
3010,72.0,0.0,60.0,2.0,0.0
3011,76.0,0.0,60.0,2.0,0.0
3012,67.0,0.0,60.0,12.0,0.0
3013,64.0,4.0,60.0,4.0,0.0
3014,60.0,0.0,60.0,13.0,0.0
3015,76.0,0.0,60.0,12.0,0.0
3016,76.0,0.0,60.0,1.0,0.0
3017,60.0,0.0,30.0,14.0,0.0
3018,48.0,0.0,30.0,15.0,0.0
3019,85.0,0.0,60.0,0.0,0.0
3020,45.0,0.0,30.0,15.0,0.0
3021,76.0,0.0,60.0,12.0,0.0
3022,67.0,0.0,60.0,12.0,0.0
3023,79.0,0.0,60.0,11.0,0.0
3024,88.0,0.0,60.0,11.0,0.0
3025,81.0,0.0,60.0,1.0,0.0
3026,76.0,0.0,60.0,2.0,0.0
3027,73.0,4.0,60.0,2.0,0.0
3028,64.0,0.0,60.0,13.0,0.0
3029,57.0,26.0,30.0,14.0,0.0
3030,61.0,0.0,60.0,13.0,0.0
3031,88.0,0.0,60.0,0.0,0.0
3032,64.0,0.0,60.0,3.0,0.0
3033,67.0,0.0,60.0,3.0,0.0
3034,79.0,0.0,60.0,1.0,0.0
3035,69.0,0.0,60.0,4.0,0.0
3036,59.0,30.0,30.0,14.0,0.0
3037,47.0,0.0,30.0,15.0,0.0
3038,67.0,0.0,60.0,3.0,0.0
3039,45.0,26.0,30.0,15.0,0.0
3040,88.0,0.0,60.0,11.0,0.0
3041,79.0,0.0,60.0,11.0,0.0
3042,64.0,0.0,60.0,3.0,0.0
3043,81.0,0.0,60.0,1.0,0.0
3044,79.0,0.0,60.0,1.0,0.0
3045,69.0,0.0,60.0,4.0,0.0
3046,57.0,0.0,30.0,14.0,0.0
3047,79.0,0.0,60.0,12.0,0.0
3048,76.0,0.0,60.0,2.0,0.0
3049,73.0,0.0,60.0,2.0,0.0
3050,64.0,0.0,60.0,13.0,0.0
3051,61.0,4.0,60.0,13.0,0.0
3052,85.0,0.0,60.0,0.0,0.0
3053,88.0,0.0,60.0,0.0,0.0
3054,44.0,30.0,30.0,15.0,0.0
3055,56.0,0.0,30.0,14.0,0.0
3056,77.0,0.0,60.0,2.0,0.0
3057,74.0,0.0,60.0,2.0,0.0
3058,57.0,26.0,30.0,14.0,0.0
3059,45.0,0.0,30.0,15.0,0.0
3060,69.0,0.0,60.0,4.0,0.0
3061,77.0,0.0,60.0,12.0,0.0
3062,89.0,0.0,60.0,0.0,0.0
3063,65.0,4.0,60.0,13.0,0.0
3064,62.0,0.0,60.0,13.0,0.0
3065,62.0,0.0,60.0,3.0,0.0
3066,77.0,0.0,60.0,1.0,0.0
3067,86.0,0.0,60.0,0.0,0.0
3068,81.0,0.0,60.0,1.0,0.0
3069,86.0,0.0,60.0,11.0,0.0
3070,65.0,0.0,60.0,3.0,0.0
3071,49.0,30.0,30.0,15.0,0.0
3072,61.0,0.0,30.0,14.0,0.0
3073,74.0,0.0,60.0,2.0,0.0
3074,77.0,0.0,60.0,12.0,0.0
3075,86.0,0.0,60.0,11.0,0.0
3076,77.0,0.0,60.0,2.0,0.0
3077,86.0,0.0,60.0,0.0,0.0
3078,62.0,0.0,30.0,14.0,0.0
3079,62.0,0.0,60.0,13.0,0.0
3080,65.0,0.0,60.0,13.0,0.0
3081,50.0,26.0,30.0,15.0,0.0
3082,89.0,0.0,60.0,0.0,0.0
3083,69.0,4.0,60.0,4.0,0.0
3084,77.0,0.0,60.0,1.0,0.0
3085,62.0,0.0,60.0,3.0,0.0
3086,81.0,0.0,60.0,1.0,0.0
3087,65.0,0.0,60.0,3.0,0.0
3088,61.0,0.0,30.0,14.0,0.0
3089,49.0,30.0,30.0,15.0,0.0
3090,89.0,0.0,60.0,0.0,0.0
3091,69.0,0.0,60.0,4.0,0.0
3092,62.0,26.0,30.0,14.0,0.0
3093,50.0,0.0,30.0,15.0,0.0
3094,81.0,0.0,60.0,1.0,0.0
3095,77.0,0.0,60.0,1.0,0.0
3096,86.0,0.0,60.0,11.0,0.0
3097,65.0,0.0,60.0,13.0,0.0
3098,74.0,0.0,60.0,2.0,0.0
3099,77.0,0.0,60.0,2.0,0.0
3100,62.0,0.0,60.0,13.0,0.0
3101,62.0,4.0,60.0,3.0,0.0
3102,65.0,0.0,60.0,3.0,0.0
3103,86.0,0.0,60.0,0.0,0.0
3104,77.0,0.0,60.0,12.0,0.0
3105,52.0,0.0,30.0,15.0,0.0
3106,64.0,30.0,30.0,14.0,0.0
3107,77.0,0.0,60.0,12.0,0.0
3108,65.0,0.0,60.0,13.0,0.0
3109,62.0,0.0,60.0,13.0,0.0
3110,86.0,0.0,60.0,11.0,0.0
3111,69.0,0.0,60.0,4.0,0.0
3112,65.0,0.0,30.0,14.0,0.0
3113,81.0,0.0,60.0,1.0,0.0
3114,77.0,0.0,60.0,1.0,0.0
3115,53.0,26.0,30.0,15.0,0.0
3116,65.0,0.0,60.0,3.0,0.0
3117,89.0,0.0,60.0,0.0,0.0
3118,74.0,34.0,60.0,2.0,0.0
3119,62.0,0.0,60.0,3.0,0.0
3120,77.0,0.0,60.0,2.0,0.0
3121,86.0,0.0,60.0,0.0,0.0
3122,52.0,0.0,30.0,15.0,0.0
3123,64.0,0.0,30.0,14.0,0.0
3124,86.0,0.0,60.0,0.0,0.0
3125,89.0,0.0,60.0,0.0,0.0
3126,74.0,0.0,60.0,2.0,0.0
3127,69.0,0.0,60.0,4.0,0.0
3128,62.0,0.0,60.0,3.0,0.0
3129,77.0,4.0,60.0,2.0,0.0
3130,65.0,0.0,60.0,3.0,0.0
3131,77.0,0.0,60.0,1.0,0.0
3132,81.0,0.0,60.0,1.0,0.0
3133,65.0,0.0,30.0,14.0,0.0
3134,77.0,0.0,60.0,12.0,0.0
3135,86.0,0.0,60.0,11.0,0.0
3136,53.0,26.0,30.0,15.0,0.0
3137,62.0,0.0,60.0,13.0,0.0
3138,65.0,0.0,60.0,13.0,0.0
3139,64.0,30.0,30.0,14.0,0.0
3140,52.0,0.0,30.0,15.0,0.0
3141,69.0,0.0,60.0,4.0,0.0
3142,53.0,0.0,30.0,15.0,0.0
3143,81.0,0.0,60.0,1.0,0.0
3144,77.0,0.0,60.0,1.0,0.0
3145,89.0,0.0,60.0,0.0,0.0
3146,74.0,4.0,60.0,2.0,0.0
3147,62.0,0.0,60.0,13.0,0.0
3148,65.0,0.0,60.0,13.0,0.0
3149,77.0,0.0,60.0,12.0,0.0
3150,62.0,0.0,60.0,3.0,0.0
3151,86.0,0.0,60.0,11.0,0.0
3152,65.0,26.0,30.0,14.0,0.0
3153,65.0,0.0,60.0,3.0,0.0
3154,77.0,0.0,60.0,2.0,0.0
3155,86.0,0.0,60.0,0.0,0.0
3156,52.0,30.0,30.0,15.0,0.0
3157,64.0,0.0,30.0,14.0,0.0
3158,77.0,0.0,60.0,12.0,0.0
3159,86.0,0.0,60.0,11.0,0.0
3160,62.0,26.0,30.0,14.0,0.0
3161,81.0,0.0,60.0,1.0,0.0
3162,77.0,0.0,60.0,2.0,0.0
3163,77.0,0.0,60.0,1.0,0.0
3164,50.0,0.0,30.0,15.0,0.0
3165,89.0,4.0,60.0,0.0,0.0
3166,62.0,0.0,60.0,13.0,0.0
3167,86.0,0.0,60.0,0.0,0.0
3168,74.0,0.0,60.0,2.0,0.0
3169,62.0,0.0,60.0,3.0,0.0
3170,65.0,0.0,60.0,13.0,0.0
3171,69.0,0.0,60.0,4.0,0.0
3172,65.0,0.0,60.0,3.0,0.0
3173,65.0,30.0,30.0,14.0,0.0
3174,53.0,0.0,30.0,15.0,0.0
3175,69.0,0.0,60.0,4.0,0.0
3176,60.0,26.0,30.0,14.0,0.0
3177,60.0,0.0,60.0,13.0,0.0
3178,65.0,0.0,60.0,13.0,0.0
3179,74.0,0.0,60.0,2.0,0.0
3180,62.0,0.0,60.0,3.0,0.0
3181,65.0,0.0,60.0,3.0,0.0
3182,77.0,0.0,60.0,2.0,0.0
3183,86.0,0.0,60.0,0.0,0.0
3184,86.0,0.0,60.0,11.0,0.0
3185,77.0,0.0,60.0,12.0,0.0
3186,77.0,0.0,60.0,1.0,0.0
3187,81.0,4.0,60.0,1.0,0.0
3188,48.0,0.0,30.0,15.0,0.0
3189,89.0,0.0,60.0,0.0,0.0
3190,50.0,30.0,30.0,15.0,0.0
3191,62.0,0.0,30.0,14.0,0.0
3192,59.0,0.0,60.0,13.0,0.0
3193,78.0,0.0,60.0,2.0,0.0
3194,75.0,0.0,60.0,2.0,0.0
3195,66.0,0.0,60.0,3.0,0.0
3196,71.0,0.0,60.0,4.0,0.0
3197,66.0,4.0,60.0,13.0,0.0
3198,63.0,0.0,60.0,3.0,0.0
3199,47.0,0.0,60.0,6.0,0.0
3200,59.0,26.0,30.0,14.0,0.0
3201,47.0,0.0,30.0,15.0,0.0
3202,78.0,0.0,60.0,12.0,0.0
3203,83.0,0.0,60.0,1.0,0.0
3204,87.0,0.0,60.0,11.0,0.0
3205,78.0,0.0,60.0,1.0,0.0
3206,71.0,0.0,60.0,5.0,0.0
3207,87.0,0.0,60.0,0.0,0.0
3208,90.0,0.0,60.0,0.0,0.0
3209,59.0,0.0,60.0,4.0,0.0
3210,60.0,0.0,30.0,14.0,0.0
3211,48.0,30.0,30.0,15.0,0.0
3212,83.0,0.0,60.0,1.0,0.0
3213,71.0,0.0,60.0,5.0,0.0
3214,66.0,0.0,60.0,3.0,0.0
3215,78.0,0.0,60.0,1.0,0.0
3216,59.0,0.0,60.0,4.0,0.0
3217,71.0,0.0,60.0,4.0,0.0
3218,90.0,4.0,60.0,0.0,0.0
3219,47.0,30.0,60.0,6.0,0.0
3220,63.0,0.0,60.0,3.0,0.0
3221,78.0,0.0,60.0,2.0,0.0
3222,78.0,0.0,60.0,12.0,0.0
3223,87.0,0.0,60.0,0.0,0.0
3224,57.0,0.0,30.0,14.0,0.0
3225,45.0,26.0,30.0,15.0,0.0
3226,75.0,0.0,60.0,2.0,0.0
3227,57.0,0.0,60.0,13.0,0.0
3228,87.0,0.0,60.0,11.0,0.0
3229,59.0,0.0,60.0,13.0,0.0
3230,47.0,0.0,30.0,15.0,0.0
3231,59.0,0.0,30.0,14.0,0.0
3232,88.0,0.0,60.0,11.0,0.0
3233,56.0,0.0,30.0,14.0,0.0
3234,88.0,0.0,60.0,0.0,0.0
3235,68.0,0.0,60.0,3.0,0.0
3236,64.0,4.0,60.0,3.0,0.0
3237,92.0,0.0,60.0,0.0,0.0
3238,44.0,26.0,30.0,15.0,0.0
3239,71.0,0.0,60.0,2.0,0.0
3240,76.0,0.0,60.0,2.0,0.0
3241,80.0,0.0,60.0,12.0,0.0
3242,59.0,0.0,60.0,13.0,0.0
3243,56.0,0.0,60.0,13.0,0.0
3244,64.0,0.0,60.0,5.0,0.0
3245,80.0,0.0,60.0,1.0,0.0
3246,83.0,0.0,60.0,1.0,0.0
3247,76.0,0.0,60.0,5.0,0.0
3248,52.0,0.0,60.0,6.0,0.0
3249,64.0,0.0,60.0,4.0,0.0
3250,71.0,0.0,60.0,4.0,0.0
3251,45.0,30.0,30.0,15.0,0.0
3252,57.0,0.0,30.0,14.0,0.0
3253,64.0,0.0,60.0,13.0,0.0
3254,92.0,0.0,60.0,0.0,0.0
3255,88.0,0.0,60.0,0.0,0.0
3256,80.0,0.0,60.0,12.0,0.0
3257,76.0,0.0,60.0,12.0,0.0
3258,52.0,30.0,60.0,6.0,0.0
3259,47.0,0.0,30.0,15.0,0.0
3260,64.0,0.0,60.0,5.0,0.0
3261,71.0,0.0,60.0,4.0,0.0
3262,64.0,0.0,60.0,4.0,0.0
3263,88.0,0.0,60.0,11.0,0.0
3264,76.0,0.0,60.0,5.0,0.0
3265,68.0,0.0,60.0,3.0,0.0
3266,71.0,0.0,60.0,2.0,0.0
3267,64.0,4.0,60.0,3.0,0.0
3268,83.0,0.0,60.0,1.0,0.0
3269,80.0,0.0,60.0,1.0,0.0
3270,59.0,26.0,30.0,14.0,0.0
3271,52.0,0.0,60.0,13.0,0.0
3272,76.0,0.0,60.0,2.0,0.0
3273,44.0,0.0,30.0,15.0,0.0
3274,56.0,0.0,30.0,14.0,0.0
3275,40.0,0.0,30.0,15.0,0.0
3276,83.0,0.0,60.0,1.0,0.0
3277,80.0,0.0,60.0,1.0,0.0
3278,52.0,0.0,60.0,13.0,0.0
3279,64.0,0.0,60.0,4.0,0.0
3280,71.0,0.0,60.0,2.0,0.0
3281,88.0,0.0,60.0,11.0,0.0
3282,71.0,0.0,60.0,4.0,0.0
3283,64.0,0.0,60.0,13.0,0.0
3284,64.0,0.0,60.0,3.0,0.0
3285,52.0,26.0,30.0,14.0,0.0
3286,76.0,0.0,60.0,12.0,0.0
3287,80.0,0.0,60.0,12.0,0.0
3288,76.0,0.0,60.0,2.0,0.0
3289,52.0,0.0,60.0,6.0,0.0
3290,92.0,0.0,60.0,0.0,0.0
3291,88.0,0.0,60.0,0.0,0.0
3292,76.0,4.0,60.0,5.0,0.0
3293,64.0,0.0,60.0,5.0,0.0
3294,68.0,0.0,60.0,3.0,0.0
3295,56.0,0.0,30.0,14.0,0.0
3296,44.0,30.0,30.0,15.0,0.0
3297,83.0,0.0,60.0,1.0,0.0
3298,88.0,0.0,60.0,11.0,0.0
3299,76.0,0.0,60.0,2.0,0.0
3300,80.0,0.0,60.0,1.0,0.0
3301,71.0,0.0,60.0,2.0,0.0
3302,88.0,4.0,60.0,0.0,0.0
3303,64.0,0.0,60.0,13.0,0.0
3304,59.0,0.0,30.0,14.0,0.0
3305,64.0,0.0,60.0,3.0,0.0
3306,68.0,0.0,60.0,3.0,0.0
3307,76.0,0.0,60.0,5.0,0.0
3308,47.0,26.0,30.0,15.0,0.0
3309,64.0,0.0,60.0,5.0,0.0
3310,71.0,0.0,60.0,4.0,0.0
3311,64.0,0.0,60.0,4.0,0.0
3312,52.0,0.0,60.0,6.0,0.0
3313,80.0,0.0,60.0,12.0,0.0
3314,76.0,0.0,60.0,12.0,0.0
3315,92.0,0.0,60.0,0.0,0.0
3316,52.0,0.0,60.0,13.0,0.0
3317,63.0,0.0,30.0,14.0,0.0
3318,51.0,30.0,30.0,15.0,0.0
3319,64.0,26.0,30.0,14.0,0.0
3320,71.0,0.0,60.0,4.0,0.0
3321,64.0,0.0,60.0,4.0,0.0
3322,52.0,30.0,60.0,6.0,0.0
3323,52.0,0.0,30.0,15.0,0.0
3324,52.0,0.0,60.0,13.0,0.0
3325,80.0,0.0,60.0,12.0,0.0
3326,76.0,0.0,60.0,12.0,0.0
3327,64.0,0.0,60.0,5.0,0.0
3328,76.0,0.0,60.0,5.0,0.0
3329,64.0,0.0,60.0,3.0,0.0
3330,68.0,0.0,60.0,3.0,0.0
3331,64.0,0.0,60.0,13.0,0.0
3332,76.0,0.0,60.0,2.0,0.0
3333,80.0,0.0,60.0,1.0,0.0
3334,88.0,0.0,60.0,0.0,0.0
3335,71.0,0.0,60.0,2.0,0.0
3336,88.0,0.0,60.0,11.0,0.0
3337,83.0,0.0,60.0,1.0,0.0
3338,92.0,4.0,60.0,0.0,0.0
3339,59.0,0.0,30.0,14.0,0.0
3340,47.0,0.0,30.0,15.0,0.0
3341,76.0,30.0,60.0,5.0,0.0
3342,64.0,0.0,60.0,5.0,0.0
3343,52.0,0.0,60.0,6.0,0.0
3344,68.0,0.0,60.0,3.0,0.0
3345,83.0,0.0,60.0,1.0,0.0
3346,88.0,0.0,60.0,0.0,0.0
3347,76.0,0.0,60.0,12.0,0.0
3348,80.0,0.0,60.0,12.0,0.0
3349,64.0,0.0,60.0,13.0,0.0
3350,52.0,0.0,60.0,13.0,0.0
3351,80.0,4.0,60.0,1.0,0.0
3352,88.0,0.0,60.0,11.0,0.0
3353,52.0,26.0,30.0,15.0,0.0
3354,71.0,0.0,60.0,4.0,0.0
3355,64.0,0.0,60.0,3.0,0.0
3356,76.0,0.0,60.0,2.0,0.0
3357,71.0,0.0,60.0,2.0,0.0
3358,64.0,0.0,30.0,14.0,0.0
3359,92.0,0.0,60.0,0.0,0.0
3360,64.0,0.0,60.0,4.0,0.0
3361,50.0,0.0,30.0,15.0,0.0
3362,62.0,0.0,30.0,14.0,0.0
3363,67.0,0.0,60.0,3.0,0.0
3364,88.0,0.0,60.0,11.0,0.0
3365,79.0,0.0,60.0,2.0,0.0
3366,79.0,0.0,60.0,12.0,0.0
3367,64.0,0.0,60.0,3.0,0.0
3368,61.0,26.0,30.0,14.0,0.0
3369,76.0,0.0,60.0,2.0,0.0
3370,49.0,0.0,30.0,15.0,0.0
3371,69.0,0.0,60.0,4.0,0.0
3372,88.0,0.0,60.0,0.0,0.0
3373,93.0,0.0,60.0,0.0,0.0
3374,79.0,0.0,60.0,1.0,0.0
3375,81.0,0.0,60.0,1.0,0.0
3376,64.0,4.0,60.0,13.0,0.0
3377,61.0,0.0,60.0,13.0,0.0
3378,59.0,30.0,30.0,14.0,0.0
3379,47.0,0.0,30.0,15.0,0.0
3380,69.0,0.0,60.0,4.0,0.0
3381,61.0,0.0,60.0,13.0,0.0
3382,67.0,0.0,60.0,3.0,0.0
3383,49.0,26.0,30.0,15.0,0.0
3384,79.0,0.0,60.0,12.0,0.0
3385,64.0,0.0,60.0,13.0,0.0
3386,79.0,0.0,60.0,2.0,0.0
3387,91.0,0.0,60.0,0.0,0.0
3388,93.0,0.0,60.0,0.0,0.0
3389,61.0,0.0,30.0,14.0,0.0
3390,88.0,0.0,60.0,11.0,0.0
3391,76.0,0.0,60.0,2.0,0.0
3392,79.0,0.0,60.0,1.0,0.0
3393,88.0,0.0,60.0,1.0,0.0
3394,64.0,4.0,60.0,3.0,0.0
3395,45.0,30.0,30.0,15.0,0.0
3396,57.0,0.0,30.0,14.0,0.0
3397,69.0,0.0,60.0,4.0,0.0
3398,77.0,0.0,60.0,12.0,0.0
3399,64.0,0.0,60.0,3.0,0.0
3400,50.0,0.0,30.0,15.0,0.0
3401,62.0,4.0,60.0,13.0,0.0
3402,65.0,0.0,60.0,3.0,0.0
3403,88.0,0.0,60.0,1.0,0.0
3404,89.0,0.0,60.0,0.0,0.0
3405,62.0,26.0,30.0,14.0,0.0
3406,77.0,0.0,60.0,1.0,0.0
3407,88.0,0.0,60.0,11.0,0.0
3408,93.0,0.0,60.0,0.0,0.0
3409,76.0,0.0,60.0,2.0,0.0
3410,77.0,0.0,60.0,2.0,0.0
3411,64.0,30.0,30.0,14.0,0.0
3412,52.0,0.0,30.0,15.0,0.0
3413,62.0,0.0,60.0,13.0,0.0
3414,69.0,0.0,60.0,4.0,0.0
3415,50.0,0.0,30.0,15.0,0.0
3416,77.0,0.0,60.0,12.0,0.0
3417,88.0,0.0,60.0,11.0,0.0
3418,64.0,0.0,60.0,3.0,0.0
3419,65.0,0.0,60.0,3.0,0.0
3420,76.0,0.0,60.0,2.0,0.0
3421,77.0,0.0,60.0,2.0,0.0
3422,62.0,26.0,30.0,14.0,0.0
3423,88.0,0.0,60.0,1.0,0.0
3424,77.0,4.0,60.0,1.0,0.0
3425,93.0,0.0,60.0,0.0,0.0
3426,89.0,0.0,60.0,0.0,0.0
3427,49.0,30.0,30.0,15.0,0.0
3428,61.0,0.0,30.0,14.0,0.0
3429,50.0,26.0,30.0,15.0,0.0
3430,65.0,0.0,60.0,3.0,0.0
3431,86.0,0.0,60.0,11.0,0.0
3432,62.0,0.0,30.0,14.0,0.0
3433,77.0,0.0,60.0,1.0,0.0
3434,89.0,0.0,60.0,0.0,0.0
3435,62.0,4.0,60.0,13.0,0.0
3436,69.0,0.0,60.0,4.0,0.0
3437,93.0,0.0,60.0,0.0,0.0
3438,77.0,0.0,60.0,12.0,0.0
3439,77.0,0.0,60.0,2.0,0.0
3440,86.0,0.0,60.0,1.0,0.0
3441,74.0,0.0,60.0,2.0,0.0
3442,62.0,0.0,60.0,3.0,0.0
3443,64.0,30.0,30.0,14.0,0.0
3444,52.0,0.0,30.0,15.0,0.0
3445,77.0,0.0,60.0,2.0,0.0
3446,74.0,0.0,60.0,2.0,0.0
3447,69.0,0.0,60.0,4.0,0.0
3448,86.0,0.0,60.0,1.0,0.0
3449,77.0,0.0,60.0,12.0,0.0
3450,77.0,0.0,60.0,1.0,0.0
3451,93.0,0.0,60.0,0.0,0.0
3452,62.0,0.0,60.0,13.0,0.0
3453,89.0,0.0,60.0,0.0,0.0
3454,53.0,26.0,30.0,15.0,0.0
3455,65.0,0.0,30.0,14.0,0.0
3456,65.0,0.0,60.0,3.0,0.0
3457,62.0,0.0,60.0,3.0,0.0
3458,86.0,34.0,60.0,11.0,0.0
3459,50.0,0.0,30.0,15.0,0.0
3460,62.0,0.0,30.0,14.0,0.0
3461,77.0,4.0,60.0,1.0,0.0
3462,74.0,0.0,60.0,2.0,0.0
3463,77.0,0.0,60.0,2.0,0.0
3464,59.0,0.0,60.0,13.0,0.0
3465,89.0,0.0,60.0,0.0,0.0
3466,86.0,0.0,60.0,11.0,0.0
3467,47.0,0.0,30.0,15.0,0.0
3468,71.0,0.0,60.0,4.0,0.0
3469,77.0,0.0,60.0,12.0,0.0
3470,65.0,0.0,60.0,3.0,0.0
3471,62.0,0.0,60.0,13.0,0.0
3472,86.0,0.0,60.0,1.0,0.0
3473,62.0,0.0,60.0,3.0,0.0
3474,59.0,26.0,30.0,14.0,0.0
3475,93.0,0.0,60.0,0.0,0.0
3476,45.0,30.0,30.0,15.0,0.0
3477,57.0,0.0,30.0,14.0,0.0
3478,65.0,0.0,60.0,3.0,0.0
3479,59.0,0.0,60.0,13.0,0.0
3480,62.0,0.0,60.0,13.0,0.0
3481,62.0,0.0,60.0,3.0,0.0
3482,77.0,0.0,60.0,12.0,0.0
3483,77.0,0.0,60.0,2.0,0.0
3484,59.0,26.0,30.0,14.0,0.0
3485,74.0,0.0,60.0,2.0,0.0
3486,47.0,0.0,30.0,15.0,0.0
3487,59.0,4.0,60.0,4.0,0.0
3488,86.0,0.0,60.0,11.0,0.0
3489,91.0,0.0,60.0,0.0,0.0
3490,89.0,0.0,60.0,0.0,0.0
3491,86.0,0.0,60.0,1.0,0.0
3492,77.0,0.0,60.0,1.0,0.0
3493,43.0,30.0,30.0,15.0,0.0
3494,55.0,0.0,30.0,14.0,0.0
3495,76.0,0.0,60.0,2.0,0.0
3496,52.0,0.0,60.0,6.0,0.0
3497,86.0,0.0,60.0,11.0,0.0
3498,48.0,26.0,30.0,15.0,0.0
3499,74.0,0.0,60.0,2.0,0.0
3500,76.0,0.0,60.0,12.0,0.0
3501,64.0,0.0,60.0,5.0,0.0
3502,60.0,0.0,30.0,14.0,0.0
3503,88.0,0.0,60.0,0.0,0.0
3504,64.0,0.0,60.0,13.0,0.0
3505,60.0,0.0,60.0,13.0,0.0
3506,64.0,0.0,60.0,3.0,0.0
3507,62.0,0.0,60.0,3.0,0.0
3508,64.0,0.0,60.0,4.0,0.0
3509,52.0,4.0,60.0,4.0,0.0
3510,91.0,0.0,60.0,0.0,0.0
3511,76.0,0.0,60.0,1.0,0.0
3512,76.0,0.0,60.0,5.0,0.0
3513,86.0,0.0,60.0,1.0,0.0
3514,38.0,30.0,30.0,15.0,0.0
3515,50.0,0.0,30.0,14.0,0.0
3516,36.0,26.0,30.0,15.0,0.0
3517,48.0,0.0,30.0,14.0,0.0
3518,76.0,0.0,60.0,12.0,0.0
3519,76.0,0.0,60.0,5.0,0.0
3520,64.0,0.0,60.0,5.0,0.0
3521,76.0,4.0,60.0,1.0,0.0
3522,64.0,0.0,60.0,3.0,0.0
3523,86.0,0.0,60.0,1.0,0.0
3524,91.0,0.0,60.0,0.0,0.0
3525,88.0,0.0,60.0,0.0,0.0
3526,62.0,0.0,60.0,3.0,0.0
3527,64.0,0.0,60.0,4.0,0.0
3528,67.0,0.0,60.0,13.0,0.0
3529,55.0,0.0,60.0,13.0,0.0
3530,52.0,0.0,60.0,4.0,0.0
3531,86.0,0.0,60.0,11.0,0.0
3532,52.0,0.0,60.0,6.0,0.0
3533,76.0,0.0,60.0,2.0,0.0
3534,74.0,0.0,60.0,2.0,0.0
3535,47.0,0.0,30.0,14.0,0.0
3536,35.0,30.0,30.0,15.0,0.0
3537,84.0,0.0,60.0,1.0,0.0
3538,76.0,0.0,60.0,1.0,0.0
3539,60.0,0.0,60.0,3.0,0.0
3540,52.0,0.0,60.0,4.0,0.0
3541,64.0,4.0,60.0,4.0,0.0
3542,48.0,0.0,30.0,14.0,0.0
3543,64.0,0.0,60.0,3.0,0.0
3544,64.0,0.0,60.0,5.0,0.0
3545,91.0,0.0,60.0,0.0,0.0
3546,55.0,0.0,60.0,13.0,0.0
3547,67.0,0.0,60.0,13.0,0.0
3548,84.0,0.0,60.0,11.0,0.0
3549,52.0,0.0,60.0,6.0,0.0
3550,88.0,0.0,60.0,0.0,0.0
3551,36.0,26.0,30.0,15.0,0.0
3552,72.0,0.0,60.0,2.0,0.0
3553,76.0,0.0,60.0,2.0,0.0
3554,76.0,0.0,60.0,5.0,0.0
3555,76.0,0.0,60.0,12.0,0.0
3556,50.0,30.0,30.0,14.0,0.0
3557,38.0,0.0,30.0,15.0,0.0
3558,55.0,0.0,60.0,13.0,0.0
3559,67.0,0.0,60.0,13.0,0.0
3560,84.0,0.0,60.0,1.0,0.0
3561,76.0,0.0,60.0,1.0,0.0
3562,76.0,0.0,60.0,12.0,0.0
3563,60.0,0.0,60.0,3.0,0.0
3564,84.0,0.0,60.0,11.0,0.0
3565,88.0,0.0,60.0,0.0,0.0
3566,91.0,0.0,60.0,0.0,0.0
3567,40.0,26.0,30.0,15.0,0.0
3568,76.0,0.0,60.0,2.0,0.0
3569,72.0,4.0,60.0,2.0,0.0
3570,64.0,0.0,60.0,5.0,0.0
3571,52.0,120.0,60.0,6.0,0.0
3572,64.0,0.0,60.0,4.0,0.0
3573,52.0,0.0,60.0,4.0,0.0
3574,52.0,0.0,30.0,14.0,0.0
3575,64.0,0.0,60.0,3.0,0.0
3576,76.0,0.0,60.0,5.0,0.0
3577,54.0,0.0,30.0,14.0,0.0
3578,42.0,0.0,30.0,15.0,0.0
3579,71.0,180.0,360.0,2.0,0.0
3580,55.0,0.0,360.0,14.0,0.0
3581,62.0,4.0,360.0,3.0,0.0
3582,59.0,0.0,360.0,3.0,0.0
3583,67.0,0.0,120.0,11.0,0.0
3584,74.0,0.0,120.0,11.0,0.0
3585,83.0,0.0,120.0,11.0,0.0
3586,59.0,0.0,120.0,4.0,0.0
3587,55.0,0.0,150.0,13.0,0.0
3588,91.0,0.0,360.0,0.0,0.0
3589,74.0,4.0,180.0,12.0,0.0
3590,67.0,30.0,150.0,13.0,0.0
3591,83.0,0.0,360.0,1.0,0.0
3592,86.0,0.0,360.0,0.0,0.0
3593,79.0,0.0,360.0,1.0,0.0
3594,74.0,0.0,360.0,2.0,0.0
3595,43.0,0.0,360.0,15.0,0.0
3596,71.0,26.0,120.0,5.0,0.0
3597,47.0,0.0,120.0,6.0,0.0
3598,59.0,0.0,120.0,5.0,0.0
3599,83.0,0.0,30.0,11.0,0.0
3600,67.0,0.0,30.0,12.0,0.0
3601,55.0,30.0,30.0,13.0,0.0
3602,67.0,0.0,30.0,11.0,0.0
3603,69.0,0.0,30.0,12.0,0.0
3604,69.0,30.0,30.0,11.0,0.0
3605,57.0,0.0,30.0,13.0,0.0
3606,71.0,30.0,30.0,11.0,0.0
3607,71.0,0.0,30.0,12.0,0.0
3608,59.0,0.0,30.0,13.0,0.0
3609,72.0,30.0,30.0,12.0,0.0
3610,72.0,0.0,30.0,11.0,0.0
3611,60.0,0.0,30.0,13.0,0.0
3612,74.0,30.0,30.0,11.0,0.0
3613,62.0,0.0,30.0,13.0,0.0
3614,74.0,0.0,30.0,12.0,0.0
3615,76.0,0.0,30.0,12.0,0.0
3616,76.0,22.0,30.0,11.0,0.0
3617,64.0,0.0,30.0,13.0,0.0
3618,66.0,0.0,30.0,13.0,0.0
3619,78.0,4.0,30.0,12.0,0.0
3620,78.0,0.0,30.0,11.0,0.0
3621,67.0,0.0,180.0,2.0,0.0
3622,79.0,0.0,180.0,0.0,0.0
3623,67.0,0.0,180.0,0.0,0.0
3624,55.0,0.0,180.0,14.0,0.0
3625,67.0,30.0,180.0,13.0,0.0
3626,79.0,0.0,180.0,12.0,0.0
3627,43.0,0.0,180.0,15.0,0.0
3628,55.0,0.0,180.0,3.0,0.0
3629,67.0,0.0,180.0,1.0,0.0
3630,79.0,0.0,180.0,11.0,0.0
3631,81.0,0.0,30.0,11.0,0.0
3632,69.0,0.0,30.0,1.0,0.0
3633,81.0,0.0,30.0,12.0,0.0
3634,69.0,0.0,30.0,0.0,0.0
3635,69.0,0.0,30.0,2.0,0.0
3636,81.0,30.0,30.0,0.0,0.0
3637,45.0,0.0,30.0,15.0,0.0
3638,57.0,0.0,30.0,3.0,0.0
3639,69.0,0.0,30.0,13.0,0.0
3640,57.0,0.0,30.0,14.0,0.0
3641,59.0,0.0,30.0,3.0,0.0
3642,71.0,0.0,30.0,2.0,0.0
3643,59.0,0.0,30.0,14.0,0.0
3644,71.0,0.0,30.0,13.0,0.0
3645,47.0,0.0,30.0,15.0,0.0
3646,83.0,0.0,30.0,12.0,0.0
3647,71.0,30.0,30.0,1.0,0.0
3648,71.0,0.0,30.0,0.0,0.0
3649,83.0,0.0,30.0,0.0,0.0
3650,83.0,0.0,30.0,11.0,0.0
3651,84.0,0.0,30.0,0.0,0.0
3652,60.0,0.0,30.0,14.0,0.0
3653,72.0,0.0,30.0,1.0,0.0
3654,84.0,0.0,30.0,12.0,0.0
3655,60.0,0.0,30.0,3.0,0.0
3656,72.0,30.0,30.0,13.0,0.0
3657,72.0,0.0,30.0,2.0,0.0
3658,72.0,0.0,30.0,0.0,0.0
3659,48.0,0.0,30.0,15.0,0.0
3660,84.0,0.0,30.0,11.0,0.0
3661,74.0,0.0,30.0,13.0,0.0
3662,62.0,30.0,30.0,14.0,0.0
3663,74.0,0.0,30.0,2.0,0.0
3664,74.0,0.0,30.0,1.0,0.0
3665,50.0,0.0,30.0,15.0,0.0
3666,86.0,0.0,30.0,12.0,0.0
3667,86.0,0.0,30.0,11.0,0.0
3668,86.0,0.0,30.0,0.0,0.0
3669,74.0,0.0,30.0,0.0,0.0
3670,62.0,0.0,30.0,3.0,0.0
3671,52.0,0.0,30.0,15.0,0.0
3672,64.0,0.0,30.0,14.0,0.0
3673,88.0,0.0,30.0,12.0,0.0
3674,76.0,0.0,30.0,0.0,0.0
3675,76.0,0.0,30.0,13.0,0.0
3676,64.0,0.0,30.0,3.0,0.0
3677,88.0,0.0,30.0,11.0,0.0
3678,76.0,0.0,30.0,2.0,0.0
3679,88.0,0.0,30.0,0.0,0.0
3680,76.0,26.0,30.0,1.0,0.0
3681,78.0,0.0,30.0,1.0,0.0
3682,78.0,0.0,30.0,13.0,0.0
3683,66.0,229.0,30.0,14.0,0.0
3684,78.0,0.0,30.0,2.0,0.0
3685,78.0,0.0,30.0,0.0,0.0
3686,54.0,0.0,30.0,15.0,0.0
3687,90.0,0.0,30.0,11.0,0.0
3688,66.0,0.0,30.0,3.0,0.0
3689,90.0,0.0,30.0,12.0,0.0
3690,90.0,0.0,30.0,0.0,0.0
3691,55.0,0.0,240.0,3.0,0.0
3692,79.0,0.0,240.0,2.0,0.0
3693,67.0,0.0,240.0,3.0,0.0
3694,79.0,0.0,240.0,1.0,0.0
3695,79.0,0.0,240.0,0.0,0.0
3696,91.0,112.0,240.0,0.0,0.0
3697,79.0,0.0,210.0,13.0,0.0
3698,91.0,0.0,210.0,11.0,0.0
3699,55.0,15.0,210.0,15.0,0.0
3700,67.0,0.0,210.0,14.0,0.0
3701,91.0,0.0,210.0,12.0,0.0
3702,43.0,128.0,120.0,15.0,0.0
3703,55.0,0.0,120.0,14.0,0.0
3704,59.0,0.0,120.0,13.0,0.0
3705,65.0,0.0,120.0,11.0,0.0
3706,62.0,0.0,120.0,12.0,0.0
3707,62.0,0.0,120.0,12.0,0.0
3708,65.0,232.0,120.0,11.0,0.0
3709,55.0,0.0,120.0,14.0,0.0
3710,59.0,0.0,120.0,13.0,0.0
3711,43.0,0.0,120.0,15.0,0.0
3712,55.0,0.0,120.0,14.0,0.0
3713,59.0,0.0,120.0,13.0,0.0
3714,65.0,128.0,120.0,11.0,0.0
3715,43.0,0.0,120.0,15.0,0.0
3716,62.0,0.0,120.0,12.0,0.0
3717,59.0,0.0,120.0,13.0,0.0
3718,55.0,0.0,120.0,14.0,0.0
3719,43.0,232.0,120.0,15.0,0.0
3720,62.0,0.0,120.0,12.0,0.0
3721,65.0,0.0,120.0,11.0,0.0
3722,65.0,0.0,120.0,11.0,0.0
3723,59.0,128.0,120.0,13.0,0.0
3724,43.0,0.0,120.0,15.0,0.0
3725,62.0,0.0,120.0,12.0,0.0
3726,55.0,0.0,120.0,14.0,0.0
3727,55.0,0.0,120.0,14.0,0.0
3728,65.0,0.0,120.0,11.0,0.0
3729,43.0,0.0,120.0,15.0,0.0
3730,59.0,0.0,120.0,13.0,0.0
3731,62.0,232.0,120.0,12.0,0.0
3732,62.0,0.0,120.0,12.0,0.0
3733,43.0,0.0,120.0,15.0,0.0
3734,55.0,0.0,120.0,14.0,0.0
3735,65.0,0.0,120.0,11.0,0.0
3736,59.0,128.0,120.0,13.0,0.0
3737,62.0,0.0,120.0,12.0,0.0
3738,55.0,0.0,120.0,14.0,0.0
3739,43.0,0.0,120.0,15.0,0.0
3740,59.0,0.0,120.0,13.0,0.0
3741,65.0,180.0,120.0,11.0,0.0
3742,67.0,52.0,60.0,2.0,0.0
3743,62.0,0.0,120.0,12.0,0.0
3744,65.0,0.0,120.0,11.0,0.0
3745,43.0,0.0,120.0,15.0,0.0
3746,59.0,8.0,120.0,13.0,0.0
3747,55.0,0.0,120.0,14.0,0.0
3748,71.0,90.0,60.0,2.0,0.0
3749,65.0,0.0,120.0,11.0,0.0
3750,55.0,0.0,120.0,14.0,0.0
3751,43.0,60.0,120.0,15.0,0.0
3752,74.0,30.0,90.0,2.0,0.0
3753,59.0,0.0,120.0,13.0,0.0
3754,62.0,0.0,120.0,12.0,0.0
3755,74.0,60.0,60.0,2.0,0.0
3756,72.0,60.0,60.0,2.0,0.0
3757,71.0,52.0,60.0,2.0,0.0
3758,55.0,0.0,120.0,14.0,0.0
3759,62.0,0.0,120.0,12.0,0.0
3760,59.0,0.0,120.0,13.0,0.0
3761,43.0,0.0,120.0,15.0,0.0
3762,65.0,4.0,120.0,11.0,0.0
3763,74.0,124.0,60.0,2.0,0.0
3764,65.0,120.0,120.0,11.0,0.0
3765,59.0,0.0,120.0,13.0,0.0
3766,62.0,0.0,120.0,12.0,0.0
3767,55.0,0.0,120.0,14.0,0.0
3768,43.0,0.0,120.0,15.0,0.0
3769,77.0,60.0,240.0,2.0,0.0
3770,64.0,0.0,120.0,11.0,0.0
3771,55.0,0.0,120.0,14.0,0.0
3772,55.0,52.0,60.0,3.0,0.0
3773,43.0,8.0,120.0,15.0,0.0
3774,55.0,0.0,120.0,13.0,0.0
3775,60.0,0.0,120.0,12.0,0.0
3776,60.0,90.0,60.0,3.0,0.0
3777,55.0,0.0,120.0,13.0,0.0
3778,43.0,0.0,120.0,15.0,0.0
3779,64.0,30.0,90.0,3.0,0.0
3780,64.0,0.0,120.0,11.0,0.0
3781,55.0,60.0,120.0,14.0,0.0
3782,60.0,0.0,120.0,12.0,0.0
3783,64.0,60.0,60.0,3.0,0.0
3784,62.0,60.0,60.0,3.0,0.0
3785,64.0,0.0,120.0,11.0,0.0
3786,60.0,52.0,60.0,3.0,0.0
3787,55.0,0.0,120.0,13.0,0.0
3788,43.0,0.0,120.0,15.0,0.0
3789,60.0,0.0,120.0,12.0,0.0
3790,55.0,4.0,120.0,14.0,0.0
3791,64.0,124.0,60.0,3.0,0.0
3792,67.0,60.0,240.0,3.0,0.0
3793,55.0,0.0,120.0,14.0,0.0
3794,64.0,0.0,120.0,11.0,0.0
3795,43.0,0.0,120.0,15.0,0.0
3796,55.0,120.0,120.0,13.0,0.0
3797,60.0,0.0,120.0,12.0,0.0
3798,72.0,52.0,60.0,0.0,0.0
3799,69.0,0.0,120.0,11.0,0.0
3800,60.0,0.0,120.0,11.0,0.0
3801,55.0,0.0,120.0,13.0,0.0
3802,43.0,8.0,120.0,15.0,0.0
3803,55.0,0.0,120.0,14.0,0.0
3804,66.0,0.0,120.0,12.0,0.0
3805,78.0,90.0,60.0,0.0,0.0
3806,43.0,8.0,120.0,15.0,0.0
3807,66.0,0.0,120.0,12.0,0.0
3808,60.0,60.0,120.0,11.0,0.0
3809,69.0,0.0,120.0,11.0,0.0
3810,55.0,0.0,120.0,13.0,0.0
3811,81.0,22.0,90.0,0.0,0.0
3812,55.0,0.0,120.0,14.0,0.0
3813,81.0,60.0,60.0,0.0,0.0
3814,79.0,60.0,60.0,0.0,0.0
3815,78.0,0.0,60.0,0.0,0.0
3816,72.0,60.0,60.0,1.0,0.0
3817,78.0,90.0,60.0,1.0,0.0
3818,81.0,0.0,60.0,0.0,0.0
3819,81.0,90.0,90.0,1.0,0.0
3820,84.0,0.0,90.0,0.0,0.0
3821,81.0,0.0,60.0,1.0,0.0
3822,84.0,60.0,60.0,0.0,0.0
3823,79.0,60.0,60.0,1.0,0.0
3824,83.0,0.0,60.0,0.0,0.0
3825,76.0,0.0,60.0,2.0,0.0
3826,72.0,0.0,60.0,2.0,0.0
3827,78.0,0.0,60.0,1.0,0.0
3828,81.0,60.0,60.0,0.0,0.0
3829,69.0,0.0,60.0,2.0,0.0
3830,81.0,90.0,60.0,1.0,0.0
3831,72.0,0.0,60.0,2.0,0.0
3832,84.0,0.0,60.0,0.0,0.0
3833,66.0,0.0,90.0,2.0,0.0
3834,69.0,22.0,90.0,2.0,0.0
3835,84.0,68.0,120.0,1.0,0.0
3836,88.0,0.0,120.0,0.0,0.0
3837,88.0,0.0,60.0,0.0,0.0
3838,69.0,0.0,60.0,2.0,0.0
3839,84.0,0.0,60.0,1.0,0.0
3840,66.0,60.0,60.0,2.0,0.0
3841,71.0,0.0,60.0,2.0,0.0
3842,67.0,0.0,60.0,2.0,0.0
3843,83.0,0.0,60.0,1.0,0.0
3844,86.0,60.0,60.0,0.0,0.0
3845,84.0,60.0,60.0,0.0,0.0
3846,81.0,0.0,60.0,1.0,0.0
3847,72.0,0.0,60.0,2.0,0.0
3848,69.0,0.0,60.0,2.0,0.0
3849,83.0,0.0,60.0,0.0,0.0
3850,74.0,112.0,60.0,2.0,0.0
3851,71.0,0.0,60.0,2.0,0.0
3852,79.0,0.0,60.0,1.0,0.0
3853,81.0,68.0,120.0,0.0,0.0
3854,78.0,0.0,120.0,1.0,0.0
3855,76.0,0.0,120.0,2.0,0.0
3856,72.0,0.0,120.0,2.0,0.0
3857,72.0,60.0,60.0,2.0,0.0
3858,78.0,0.0,60.0,1.0,0.0
3859,81.0,0.0,60.0,0.0,0.0
3860,76.0,0.0,60.0,2.0,0.0
3861,83.0,0.0,60.0,0.0,0.0
3862,71.0,0.0,60.0,2.0,0.0
3863,74.0,60.0,60.0,2.0,0.0
3864,79.0,0.0,60.0,1.0,0.0
3865,84.0,56.0,60.0,0.0,0.0
3866,81.0,0.0,60.0,1.0,0.0
3867,72.0,0.0,60.0,2.0,0.0
3868,69.0,0.0,60.0,2.0,0.0
3869,67.0,0.0,60.0,2.0,0.0
3870,83.0,64.0,60.0,1.0,0.0
3871,86.0,0.0,60.0,0.0,0.0
3872,71.0,0.0,60.0,2.0,0.0
3873,88.0,0.0,60.0,0.0,0.0
3874,84.0,0.0,60.0,1.0,0.0
3875,66.0,60.0,60.0,2.0,0.0
3876,69.0,0.0,60.0,2.0,0.0
3877,71.0,0.0,60.0,2.0,0.0
3878,67.0,60.0,60.0,2.0,0.0
3879,86.0,0.0,60.0,0.0,0.0
3880,83.0,0.0,60.0,1.0,0.0
3881,69.0,60.0,60.0,2.0,0.0
3882,72.0,0.0,60.0,2.0,0.0
3883,84.0,0.0,60.0,0.0,0.0
3884,81.0,0.0,60.0,1.0,0.0
3885,79.0,60.0,60.0,1.0,0.0
3886,83.0,0.0,60.0,0.0,0.0
3887,71.0,0.0,60.0,2.0,0.0
3888,74.0,0.0,60.0,2.0,0.0
3889,78.0,0.0,60.0,1.0,0.0
3890,72.0,60.0,60.0,2.0,0.0
3891,76.0,0.0,60.0,2.0,0.0
3892,81.0,0.0,60.0,0.0,0.0
3893,74.0,60.0,60.0,2.0,0.0
3894,71.0,0.0,60.0,2.0,0.0
3895,83.0,0.0,60.0,0.0,0.0
3896,79.0,0.0,60.0,1.0,0.0
3897,81.0,0.0,60.0,1.0,0.0
3898,69.0,0.0,60.0,2.0,0.0
3899,84.0,60.0,60.0,0.0,0.0
3900,72.0,0.0,60.0,2.0,0.0
3901,86.0,56.0,60.0,0.0,0.0
3902,83.0,0.0,60.0,1.0,0.0
3903,71.0,0.0,60.0,2.0,0.0
3904,67.0,0.0,60.0,2.0,0.0
3905,69.0,0.0,60.0,2.0,0.0
3906,88.0,0.0,60.0,0.0,0.0
3907,66.0,64.0,60.0,2.0,0.0
3908,84.0,0.0,60.0,1.0,0.0
3909,66.0,0.0,60.0,2.0,0.0
3910,62.0,0.0,60.0,2.0,0.0
3911,84.0,60.0,60.0,1.0,0.0
3912,88.0,0.0,60.0,0.0,0.0
3913,67.0,0.0,60.0,2.0,0.0
3914,64.0,0.0,60.0,2.0,0.0
3915,83.0,60.0,60.0,1.0,0.0
3916,86.0,0.0,60.0,0.0,0.0
3917,69.0,60.0,60.0,2.0,0.0
3918,84.0,0.0,60.0,0.0,0.0
3919,81.0,0.0,60.0,1.0,0.0
3920,66.0,0.0,60.0,2.0,0.0
3921,71.0,60.0,60.0,2.0,0.0
3922,79.0,4.0,420.0,1.0,0.0
3923,67.0,0.0,60.0,2.0,0.0
3924,83.0,52.0,420.0,0.0,0.0
3925,69.0,60.0,60.0,2.0,0.0
3926,72.0,0.0,60.0,2.0,0.0
3927,71.0,60.0,60.0,2.0,0.0
3928,74.0,0.0,60.0,2.0,0.0
3929,76.0,0.0,60.0,2.0,0.0
3930,72.0,60.0,60.0,2.0,0.0
3931,74.0,60.0,60.0,2.0,0.0
3932,77.0,0.0,60.0,2.0,0.0
3933,79.0,56.0,60.0,2.0,0.0
3934,76.0,0.0,60.0,2.0,0.0
3935,81.0,8.0,120.0,2.0,0.0
3936,77.0,0.0,120.0,2.0,0.0
3937,84.0,0.0,60.0,0.0,0.0
3938,81.0,60.0,60.0,1.0,0.0
3939,83.0,0.0,60.0,1.0,0.0
3940,86.0,0.0,60.0,0.0,0.0
3941,81.0,60.0,60.0,2.0,0.0
3942,77.0,0.0,60.0,2.0,0.0
3943,84.0,0.0,60.0,1.0,0.0
3944,79.0,60.0,60.0,2.0,0.0
3945,76.0,0.0,60.0,2.0,0.0
3946,88.0,0.0,60.0,0.0,0.0
3947,89.0,60.0,60.0,0.0,0.0
3948,86.0,0.0,60.0,1.0,0.0
3949,74.0,0.0,60.0,2.0,0.0
3950,77.0,0.0,60.0,2.0,0.0
3951,88.0,112.0,60.0,1.0,0.0
3952,91.0,0.0,60.0,0.0,0.0
3953,76.0,0.0,60.0,2.0,0.0
3954,72.0,0.0,60.0,2.0,0.0
3955,71.0,0.0,120.0,2.0,0.0
3956,74.0,68.0,120.0,2.0,0.0
3957,93.0,0.0,120.0,0.0,0.0
3958,89.0,0.0,120.0,1.0,0.0
3959,89.0,60.0,60.0,1.0,0.0
3960,93.0,0.0,60.0,0.0,0.0
3961,74.0,0.0,60.0,2.0,0.0
3962,71.0,0.0,60.0,2.0,0.0
3963,76.0,0.0,60.0,2.0,0.0
3964,72.0,0.0,60.0,2.0,0.0
3965,91.0,60.0,60.0,0.0,0.0
3966,88.0,0.0,60.0,1.0,0.0
3967,86.0,0.0,60.0,1.0,0.0
3968,77.0,0.0,60.0,2.0,0.0
3969,74.0,0.0,60.0,2.0,0.0
3970,89.0,60.0,60.0,0.0,0.0
3971,76.0,0.0,60.0,2.0,0.0
3972,79.0,60.0,60.0,2.0,0.0
3973,88.0,0.0,60.0,0.0,0.0
3974,84.0,0.0,60.0,1.0,0.0
3975,81.0,0.0,60.0,2.0,0.0
3976,77.0,60.0,60.0,2.0,0.0
3977,83.0,0.0,60.0,1.0,0.0
3978,86.0,0.0,60.0,0.0,0.0
3979,79.0,0.0,60.0,2.0,0.0
3980,76.0,60.0,60.0,2.0,0.0
3981,84.0,0.0,60.0,1.0,0.0
3982,88.0,0.0,60.0,0.0,0.0
3983,86.0,0.0,60.0,1.0,0.0
3984,74.0,0.0,60.0,2.0,0.0
3985,77.0,60.0,60.0,2.0,0.0
3986,89.0,0.0,60.0,0.0,0.0
3987,72.0,0.0,60.0,2.0,0.0
3988,91.0,60.0,60.0,0.0,0.0
3989,76.0,0.0,60.0,2.0,0.0
3990,88.0,0.0,60.0,1.0,0.0
3991,89.0,0.0,60.0,1.0,0.0
3992,74.0,60.0,60.0,2.0,0.0
3993,93.0,0.0,60.0,0.0,0.0
3994,71.0,0.0,60.0,2.0,0.0
3995,88.0,0.0,60.0,1.0,0.0
3996,76.0,60.0,60.0,2.0,0.0
3997,72.0,0.0,60.0,2.0,0.0
3998,91.0,0.0,60.0,0.0,0.0
3999,74.0,60.0,60.0,2.0,0.0
4000,89.0,0.0,60.0,0.0,0.0
4001,86.0,0.0,60.0,1.0,0.0
4002,77.0,0.0,60.0,2.0,0.0
4003,79.0,0.0,60.0,2.0,0.0
4004,76.0,0.0,60.0,2.0,0.0
4005,84.0,56.0,60.0,1.0,0.0
4006,88.0,0.0,60.0,0.0,0.0
4007,83.0,0.0,60.0,1.0,0.0
4008,77.0,49.0,60.0,2.0,0.0
4009,81.0,0.0,60.0,2.0,0.0
4010,86.0,0.0,60.0,0.0,0.0
4011,93.0,0.0,30.0,0.0,0.0
4012,71.0,0.0,30.0,2.0,0.0
4013,74.0,0.0,30.0,2.0,0.0
4014,89.0,60.0,30.0,1.0,0.0
4015,76.0,60.0,30.0,2.0,0.0
4016,72.0,0.0,30.0,2.0,0.0
4017,91.0,0.0,30.0,0.0,0.0
4018,88.0,0.0,30.0,1.0,0.0
4019,86.0,0.0,30.0,1.0,0.0
4020,77.0,0.0,30.0,2.0,0.0
4021,74.0,0.0,30.0,2.0,0.0
4022,89.0,60.0,30.0,0.0,0.0
4023,76.0,0.0,30.0,2.0,0.0
4024,88.0,60.0,30.0,0.0,0.0
4025,79.0,0.0,30.0,2.0,0.0
4026,84.0,0.0,30.0,1.0,0.0
4027,88.0,0.0,30.0,1.0,0.0
4028,72.0,60.0,30.0,2.0,0.0
4029,69.0,0.0,30.0,2.0,0.0
4030,91.0,0.0,30.0,0.0,0.0
4031,89.0,0.0,30.0,0.0,0.0
4032,86.0,60.0,30.0,1.0,0.0
4033,71.0,0.0,30.0,2.0,0.0
4034,74.0,0.0,30.0,2.0,0.0
4035,84.0,60.0,30.0,1.0,0.0
4036,72.0,0.0,30.0,2.0,0.0
4037,76.0,0.0,30.0,2.0,0.0
4038,88.0,0.0,30.0,0.0,0.0
4039,77.0,0.0,30.0,2.0,0.0
4040,86.0,0.0,30.0,0.0,0.0
4041,83.0,0.0,30.0,1.0,0.0
4042,74.0,60.0,30.0,2.0,0.0
4043,77.0,0.0,30.0,11.0,0.0
4044,74.0,0.0,30.0,12.0,0.0
4045,44.0,0.0,30.0,15.0,0.0
4046,56.0,0.0,30.0,14.0,0.0
4047,59.0,60.0,30.0,13.0,0.0
4048,45.0,0.0,30.0,15.0,0.0
4049,72.0,0.0,30.0,12.0,0.0
4050,60.0,60.0,30.0,13.0,0.0
4051,57.0,0.0,30.0,14.0,0.0
4052,76.0,0.0,30.0,11.0,0.0
4053,71.0,0.0,30.0,12.0,0.0
4054,62.0,0.0,30.0,13.0,0.0
4055,59.0,60.0,30.0,14.0,0.0
4056,74.0,0.0,30.0,11.0,0.0
4057,47.0,0.0,30.0,15.0,0.0
4058,60.0,0.0,30.0,14.0,0.0
4059,48.0,60.0,30.0,15.0,0.0
4060,72.0,0.0,30.0,11.0,0.0
4061,64.0,0.0,30.0,13.0,0.0
4062,69.0,0.0,30.0,12.0,0.0
4063,84.0,0.0,30.0,1.0,0.0
4064,72.0,0.0,30.0,2.0,0.0
4065,69.0,0.0,30.0,2.0,0.0
4066,88.0,60.0,30.0,0.0,0.0
4067,86.0,0.0,30.0,0.0,0.0
4068,71.0,0.0,30.0,2.0,0.0
4069,83.0,0.0,30.0,1.0,0.0
4070,74.0,60.0,30.0,2.0,0.0
4071,84.0,71.0,30.0,0.0,0.0
4072,76.0,0.0,30.0,2.0,0.0
4073,72.0,0.0,30.0,2.0,0.0
4074,81.0,0.0,30.0,1.0,0.0
4075,77.0,0.0,60.0,2.0,0.0
4076,81.0,0.0,60.0,1.0,0.0
4077,83.0,0.0,60.0,0.0,0.0
4078,74.0,60.0,60.0,2.0,0.0
4079,81.0,0.0,60.0,1.0,0.0
4080,83.0,0.0,60.0,0.0,0.0
4081,77.0,0.0,60.0,2.0,0.0
4082,74.0,60.0,60.0,2.0,0.0
4083,77.0,0.0,60.0,2.0,0.0
4084,74.0,0.0,60.0,2.0,0.0
4085,83.0,0.0,60.0,0.0,0.0
4086,81.0,60.0,60.0,1.0,0.0
4087,77.0,0.0,60.0,2.0,0.0
4088,74.0,60.0,60.0,2.0,0.0
4089,81.0,0.0,60.0,1.0,0.0
4090,83.0,0.0,60.0,0.0,0.0
4091,81.0,0.0,60.0,1.0,0.0
4092,83.0,0.0,60.0,0.0,0.0
4093,77.0,0.0,60.0,2.0,0.0
4094,74.0,60.0,60.0,2.0,0.0
4095,77.0,0.0,60.0,2.0,0.0
4096,74.0,0.0,60.0,2.0,0.0
4097,83.0,0.0,60.0,0.0,0.0
4098,81.0,60.0,60.0,1.0,0.0
4099,75.0,0.0,60.0,2.0,0.0
4100,78.0,0.0,60.0,2.0,0.0
4101,83.0,60.0,60.0,0.0,0.0
4102,81.0,0.0,60.0,1.0,0.0
4103,81.0,0.0,60.0,1.0,0.0
4104,83.0,0.0,60.0,0.0,0.0
4105,78.0,60.0,60.0,2.0,0.0
4106,75.0,0.0,60.0,2.0,0.0
4107,78.0,0.0,60.0,2.0,0.0
4108,75.0,0.0,60.0,2.0,0.0
4109,81.0,64.0,60.0,1.0,0.0
4110,83.0,0.0,60.0,0.0,0.0
4111,83.0,0.0,60.0,0.0,0.0
4112,78.0,56.0,60.0,2.0,0.0
4113,75.0,0.0,60.0,2.0,0.0
4114,81.0,0.0,60.0,1.0,0.0
4115,71.0,60.0,60.0,4.0,0.0
4116,59.0,0.0,60.0,4.0,0.0
4117,71.0,60.0,60.0,4.0,0.0
4118,59.0,0.0,60.0,4.0,0.0
4119,71.0,0.0,60.0,4.0,0.0
4120,59.0,60.0,60.0,4.0,0.0
4121,71.0,60.0,60.0,4.0,0.0
4122,59.0,0.0,60.0,4.0,0.0
4123,71.0,60.0,60.0,4.0,0.0
4124,59.0,0.0,60.0,4.0,0.0
4125,71.0,0.0,60.0,4.0,0.0
4126,59.0,60.0,60.0,4.0,0.0
4127,52.0,0.0,90.0,14.0,0.0
4128,68.0,0.0,90.0,12.0,0.0
4129,68.0,0.0,90.0,1.0,0.0
4130,56.0,0.0,90.0,13.0,0.0
4131,40.0,0.0,90.0,15.0,0.0
4132,52.0,4.0,60.0,4.0,0.0
4133,64.0,0.0,60.0,4.0,0.0
4134,64.0,0.0,60.0,5.0,0.0
4135,52.0,26.0,60.0,6.0,0.0
4136,80.0,0.0,90.0,0.0,0.0
4137,56.0,0.0,90.0,3.0,0.0
4138,68.0,30.0,90.0,11.0,0.0
4139,76.0,0.0,60.0,5.0,0.0
4140,52.0,112.0,60.0,6.0,0.0
4141,76.0,0.0,60.0,5.0,0.0
4142,64.0,0.0,60.0,4.0,0.0
4143,64.0,0.0,60.0,5.0,0.0
4144,52.0,0.0,60.0,4.0,0.0
4145,59.0,0.0,30.0,13.0,0.0
4146,40.0,0.0,30.0,15.0,0.0
4147,59.0,0.0,30.0,3.0,0.0
4148,71.0,0.0,30.0,11.0,0.0
4149,71.0,0.0,30.0,1.0,0.0
4150,83.0,0.0,30.0,0.0,0.0
4151,52.0,0.0,30.0,14.0,0.0
4152,71.0,4.0,30.0,12.0,0.0
4153,40.0,0.0,120.0,15.0,0.0
4154,64.0,0.0,120.0,4.0,0.0
4155,52.0,0.0,120.0,4.0,0.0
4156,76.0,0.0,120.0,12.0,0.0
4157,68.0,0.0,120.0,1.0,0.0
4158,76.0,0.0,120.0,11.0,0.0
4159,64.0,0.0,120.0,2.0,0.0
4160,64.0,0.0,120.0,3.0,0.0
4161,56.0,0.0,120.0,3.0,0.0
4162,52.0,112.0,120.0,6.0,0.0
4163,88.0,0.0,120.0,0.0,0.0
4164,68.0,0.0,120.0,11.0,0.0
4165,64.0,0.0,120.0,5.0,0.0
4166,64.0,0.0,120.0,13.0,0.0
4167,68.0,0.0,120.0,12.0,0.0
4168,59.0,0.0,120.0,12.0,0.0
4169,80.0,0.0,120.0,0.0,0.0
4170,52.0,8.0,120.0,14.0,0.0
4171,76.0,0.0,120.0,1.0,0.0
4172,76.0,0.0,120.0,5.0,0.0
4173,59.0,0.0,120.0,11.0,0.0
4174,64.0,0.0,120.0,2.0,0.0
4175,76.0,0.0,120.0,11.0,0.0
4176,59.0,0.0,120.0,11.0,0.0
4177,68.0,0.0,120.0,11.0,0.0
4178,64.0,0.0,120.0,4.0,0.0
4179,56.0,8.0,120.0,4.0,0.0
4180,68.0,0.0,120.0,5.0,0.0
4181,56.0,0.0,120.0,3.0,0.0
4182,76.0,0.0,120.0,1.0,0.0
4183,68.0,0.0,120.0,1.0,0.0
4184,64.0,0.0,120.0,3.0,0.0
4185,76.0,0.0,120.0,5.0,0.0
4186,52.0,112.0,120.0,6.0,0.0
4187,64.0,0.0,120.0,13.0,0.0
4188,80.0,0.0,120.0,0.0,0.0
4189,88.0,0.0,120.0,0.0,0.0
4190,68.0,0.0,120.0,12.0,0.0
4191,59.0,0.0,120.0,12.0,0.0
4192,40.0,0.0,120.0,15.0,0.0
4193,76.0,0.0,120.0,12.0,0.0
4194,52.0,0.0,120.0,14.0,0.0
4195,90.0,0.0,120.0,0.0,0.0
4196,35.0,0.0,120.0,15.0,0.0
4197,66.0,8.0,120.0,2.0,0.0
4198,63.0,0.0,120.0,2.0,0.0
4199,59.0,0.0,120.0,4.0,0.0
4200,59.0,0.0,120.0,13.0,0.0
4201,71.0,0.0,120.0,5.0,0.0
4202,78.0,0.0,120.0,5.0,0.0
4203,66.0,0.0,120.0,4.0,0.0
4204,75.0,0.0,120.0,1.0,0.0
4205,59.0,0.0,120.0,12.0,0.0
4206,47.0,15.0,120.0,6.0,0.0
4207,78.0,0.0,120.0,1.0,0.0
4208,63.0,0.0,120.0,11.0,0.0
4209,54.0,0.0,120.0,3.0,0.0
4210,63.0,0.0,120.0,3.0,0.0
4211,78.0,0.0,120.0,11.0,0.0
4212,71.0,0.0,120.0,11.0,0.0
4213,75.0,0.0,120.0,12.0,0.0
4214,87.0,0.0,120.0,0.0,0.0
4215,66.0,0.0,120.0,12.0,0.0
4216,47.0,0.0,120.0,14.0,0.0
4217,64.0,0.0,600.0,4.0,0.0
4218,40.0,0.0,600.0,15.0,0.0
4219,80.0,0.0,600.0,5.0,0.0
4220,71.0,0.0,240.0,11.0,0.0
4221,76.0,0.0,600.0,5.0,0.0
4222,80.0,94.0,600.0,1.0,0.0
4223,76.0,0.0,600.0,1.0,0.0
4224,52.0,15.0,15.0,6.0,0.0
4225,52.0,0.0,600.0,14.0,0.0
4226,56.0,0.0,600.0,3.0,0.0
4227,64.0,0.0,600.0,3.0,0.0
4228,64.0,0.0,600.0,2.0,0.0
4229,76.0,0.0,600.0,12.0,0.0
4230,59.0,0.0,240.0,12.0,0.0
4231,68.0,0.0,240.0,12.0,0.0
4232,68.0,0.0,600.0,4.0,0.0
4233,52.0,0.0,600.0,13.0,0.0
4234,68.0,0.0,600.0,2.0,0.0
4235,88.0,0.0,600.0,0.0,0.0
4236,92.0,0.0,600.0,0.0,0.0
4237,64.0,0.0,600.0,13.0,0.0
4238,64.0,0.0,240.0,11.0,0.0
4239,80.0,0.0,600.0,11.0,0.0
4240,52.0,15.0,15.0,6.0,0.0
4241,52.0,15.0,15.0,6.0,0.0
4242,52.0,15.0,15.0,6.0,0.0
4243,52.0,15.0,15.0,6.0,0.0
4244,52.0,15.0,15.0,6.0,0.0
4245,52.0,15.0,15.0,6.0,0.0
4246,52.0,15.0,15.0,6.0,0.0
4247,52.0,15.0,15.0,6.0,0.0
4248,52.0,15.0,15.0,6.0,0.0
4249,52.0,15.0,15.0,6.0,0.0
4250,52.0,15.0,15.0,6.0,0.0
4251,52.0,15.0,15.0,6.0,0.0
4252,52.0,15.0,15.0,6.0,0.0
4253,52.0,15.0,15.0,6.0,0.0
4254,52.0,15.0,15.0,6.0,0.0
4255,52.0,15.0,15.0,6.0,0.0
4256,52.0,15.0,15.0,6.0,0.0
4257,52.0,15.0,15.0,6.0,0.0
4258,52.0,15.0,15.0,6.0,0.0
4259,52.0,15.0,15.0,6.0,0.0
4260,52.0,15.0,15.0,6.0,0.0
4261,52.0,15.0,15.0,6.0,0.0
4262,52.0,120.0,15.0,6.0,0.0
4263,52.0,112.0,120.0,6.0,0.0
4264,68.0,0.0,90.0,12.0,0.0
4265,40.0,4.0,90.0,15.0,0.0
4266,68.0,0.0,90.0,5.0,0.0
4267,52.0,26.0,90.0,6.0,0.0
4268,56.0,0.0,90.0,3.0,0.0
4269,56.0,0.0,90.0,4.0,0.0
4270,64.0,0.0,90.0,4.0,0.0
4271,76.0,0.0,90.0,11.0,0.0
4272,76.0,0.0,90.0,5.0,0.0
4273,64.0,0.0,90.0,2.0,0.0
4274,64.0,0.0,90.0,3.0,0.0
4275,88.0,0.0,90.0,0.0,0.0
4276,52.0,0.0,90.0,14.0,0.0
4277,68.0,0.0,90.0,1.0,0.0
4278,64.0,0.0,90.0,13.0,0.0
4279,76.0,0.0,90.0,1.0,0.0
4280,80.0,0.0,90.0,0.0,0.0
4281,54.0,0.0,30.0,3.0,0.0
4282,63.0,0.0,30.0,3.0,0.0
4283,47.0,0.0,30.0,14.0,0.0
4284,78.0,4.0,30.0,11.0,0.0
4285,59.0,0.0,30.0,13.0,0.0
4286,63.0,0.0,30.0,2.0,0.0
4287,66.0,0.0,30.0,2.0,0.0
4288,59.0,0.0,30.0,4.0,0.0
4289,35.0,0.0,30.0,15.0,0.0
4290,78.0,0.0,30.0,5.0,0.0
4291,75.0,0.0,30.0,1.0,0.0
4292,78.0,0.0,30.0,1.0,0.0
4293,71.0,0.0,30.0,5.0,0.0
4294,47.0,112.0,30.0,6.0,0.0
4295,87.0,0.0,30.0,0.0,0.0
4296,66.0,0.0,30.0,4.0,0.0
4297,75.0,0.0,30.0,12.0,0.0
4298,90.0,0.0,30.0,0.0,0.0
4299,76.0,0.0,120.0,11.0,0.0
4300,52.0,0.0,120.0,14.0,0.0
4301,68.0,0.0,120.0,11.0,0.0
4302,80.0,0.0,120.0,11.0,0.0
4303,64.0,0.0,120.0,13.0,0.0
4304,52.0,0.0,120.0,13.0,0.0
4305,68.0,0.0,120.0,12.0,0.0
4306,64.0,0.0,120.0,4.0,0.0
4307,76.0,0.0,120.0,12.0,0.0
4308,59.0,0.0,120.0,12.0,0.0
4309,76.0,0.0,120.0,1.0,0.0
4310,80.0,8.0,120.0,1.0,0.0
4311,52.0,112.0,120.0,6.0,0.0
4312,92.0,0.0,120.0,0.0,0.0
4313,88.0,0.0,120.0,0.0,0.0
4314,68.0,0.0,120.0,2.0,0.0
4315,40.0,0.0,120.0,15.0,0.0
4316,64.0,0.0,120.0,2.0,0.0
4317,76.0,0.0,120.0,5.0,0.0
4318,80.0,0.0,120.0,5.0,0.0
4319,56.0,0.0,120.0,3.0,0.0
4320,64.0,0.0,120.0,3.0,0.0
4321,68.0,0.0,120.0,4.0,0.0
4322,92.0,0.0,120.0,0.0,0.0
4323,52.0,0.0,120.0,3.0,0.0
4324,56.0,0.0,120.0,3.0,0.0
4325,59.0,0.0,120.0,12.0,0.0
4326,64.0,0.0,120.0,4.0,0.0
4327,68.0,0.0,120.0,4.0,0.0
4328,88.0,0.0,120.0,0.0,0.0
4329,68.0,0.0,120.0,12.0,0.0
4330,76.0,0.0,120.0,12.0,0.0
4331,64.0,0.0,120.0,2.0,0.0
4332,68.0,0.0,120.0,2.0,0.0
4333,76.0,0.0,120.0,1.0,0.0
4334,52.0,112.0,120.0,6.0,0.0
4335,40.0,0.0,120.0,15.0,0.0
4336,80.0,0.0,120.0,11.0,0.0
4337,80.0,0.0,120.0,1.0,0.0
4338,52.0,0.0,120.0,13.0,0.0
4339,80.0,0.0,120.0,5.0,0.0
4340,76.0,0.0,120.0,5.0,0.0
4341,76.0,0.0,120.0,11.0,0.0
4342,52.0,0.0,120.0,14.0,0.0
4343,64.0,0.0,120.0,13.0,0.0
4344,68.0,8.0,120.0,11.0,0.0
4345,69.0,0.0,120.0,2.0,0.0
4346,81.0,0.0,120.0,11.0,0.0
4347,76.0,8.0,120.0,11.0,0.0
4348,78.0,0.0,120.0,5.0,0.0
4349,90.0,0.0,120.0,0.0,0.0
4350,78.0,0.0,120.0,1.0,0.0
4351,81.0,0.0,120.0,1.0,0.0
4352,52.0,15.0,120.0,6.0,0.0
4353,81.0,0.0,120.0,5.0,0.0
4354,66.0,0.0,120.0,2.0,0.0
4355,69.0,0.0,120.0,11.0,0.0
4356,69.0,0.0,120.0,4.0,0.0
4357,64.0,0.0,120.0,13.0,0.0
4358,52.0,0.0,120.0,13.0,0.0
4359,69.0,0.0,120.0,12.0,0.0
4360,54.0,0.0,120.0,3.0,0.0
4361,57.0,0.0,120.0,3.0,0.0
4362,52.0,0.0,120.0,14.0,0.0
4363,93.0,0.0,120.0,0.0,0.0
4364,59.0,0.0,120.0,12.0,0.0
4365,78.0,0.0,120.0,12.0,0.0
4366,40.0,0.0,120.0,15.0,0.0
4367,66.0,0.0,120.0,4.0,0.0
4368,40.0,94.0,600.0,15.0,0.0
4369,59.0,0.0,600.0,3.0,0.0
4370,56.0,0.0,600.0,3.0,0.0
4371,64.0,0.0,600.0,13.0,0.0
4372,52.0,0.0,600.0,13.0,0.0
4373,59.0,15.0,240.0,12.0,0.0
4374,80.0,0.0,600.0,12.0,0.0
4375,83.0,0.0,600.0,5.0,0.0
4376,80.0,0.0,600.0,5.0,0.0
4377,68.0,0.0,600.0,4.0,0.0
4378,71.0,0.0,600.0,4.0,0.0
4379,52.0,15.0,15.0,6.0,0.0
4380,52.0,0.0,600.0,14.0,0.0
4381,71.0,0.0,240.0,12.0,0.0
4382,95.0,0.0,600.0,0.0,0.0
4383,68.0,0.0,600.0,2.0,0.0
4384,71.0,0.0,600.0,2.0,0.0
4385,80.0,0.0,600.0,1.0,0.0
4386,83.0,0.0,600.0,1.0,0.0
4387,68.0,0.0,240.0,11.0,0.0
4388,83.0,0.0,600.0,11.0,0.0
4389,92.0,0.0,600.0,0.0,0.0
4390,76.0,0.0,240.0,11.0,0.0
4391,52.0,15.0,15.0,6.0,0.0
4392,52.0,15.0,15.0,6.0,0.0
4393,52.0,15.0,15.0,6.0,0.0
4394,52.0,15.0,15.0,6.0,0.0
4395,52.0,15.0,15.0,6.0,0.0
4396,52.0,15.0,15.0,6.0,0.0
4397,52.0,15.0,15.0,6.0,0.0
4398,52.0,15.0,15.0,6.0,0.0
4399,52.0,15.0,15.0,6.0,0.0
4400,52.0,15.0,15.0,6.0,0.0
4401,52.0,15.0,15.0,6.0,0.0
4402,52.0,15.0,15.0,6.0,0.0
4403,52.0,15.0,15.0,6.0,0.0
4404,52.0,15.0,15.0,6.0,0.0
4405,52.0,0.0,15.0,6.0,0.0
4406,52.0,15.0,15.0,6.0,0.0
4407,52.0,15.0,15.0,6.0,0.0
4408,52.0,15.0,15.0,6.0,0.0
4409,52.0,15.0,15.0,6.0,0.0
4410,52.0,15.0,15.0,6.0,0.0
4411,52.0,15.0,15.0,6.0,0.0
4412,52.0,15.0,15.0,6.0,0.0
4413,52.0,120.0,15.0,6.0,0.0
4414,52.0,112.0,120.0,6.0,0.0
4415,68.0,4.0,90.0,2.0,0.0
4416,64.0,0.0,90.0,2.0,0.0
4417,52.0,26.0,90.0,6.0,0.0
4418,52.0,0.0,90.0,3.0,0.0
4419,56.0,0.0,90.0,3.0,0.0
4420,52.0,0.0,90.0,14.0,0.0
4421,76.0,0.0,90.0,12.0,0.0
4422,80.0,0.0,90.0,1.0,0.0
4423,64.0,0.0,90.0,13.0,0.0
4424,64.0,0.0,90.0,4.0,0.0
4425,88.0,0.0,90.0,0.0,0.0
4426,92.0,0.0,90.0,0.0,0.0
4427,80.0,0.0,90.0,11.0,0.0
4428,80.0,0.0,90.0,5.0,0.0
4429,76.0,0.0,90.0,5.0,0.0
4430,40.0,0.0,90.0,15.0,0.0
4431,52.0,0.0,90.0,13.0,0.0
4432,68.0,0.0,90.0,4.0,0.0
4433,76.0,0.0,90.0,1.0,0.0
4434,64.0,0.0,30.0,13.0,0.0
4435,81.0,0.0,30.0,1.0,0.0
4436,52.0,4.0,30.0,13.0,0.0
4437,52.0,15.0,30.0,6.0,0.0
4438,54.0,0.0,30.0,3.0,0.0
4439,81.0,0.0,30.0,11.0,0.0
4440,78.0,0.0,30.0,1.0,0.0
4441,78.0,0.0,30.0,12.0,0.0
4442,40.0,0.0,30.0,15.0,0.0
4443,66.0,0.0,30.0,4.0,0.0
4444,69.0,0.0,30.0,4.0,0.0
4445,78.0,0.0,30.0,5.0,0.0
4446,81.0,0.0,30.0,5.0,0.0
4447,66.0,0.0,30.0,2.0,0.0
4448,69.0,0.0,30.0,2.0,0.0
4449,52.0,0.0,30.0,14.0,0.0
4450,90.0,0.0,30.0,0.0,0.0
4451,93.0,0.0,30.0,0.0,0.0
4452,57.0,0.0,30.0,3.0,0.0
4453,52.0,0.0,240.0,13.0,0.0
4454,80.0,0.0,240.0,12.0,0.0
4455,80.0,0.0,240.0,5.0,0.0
4456,83.0,8.0,240.0,5.0,0.0
4457,59.0,0.0,240.0,12.0,0.0
4458,68.0,0.0,240.0,11.0,0.0
4459,83.0,0.0,240.0,11.0,0.0
4460,76.0,0.0,240.0,11.0,0.0
4461,83.0,0.0,240.0,1.0,0.0
4462,80.0,0.0,240.0,1.0,0.0
4463,59.0,0.0,240.0,3.0,0.0
4464,68.0,0.0,240.0,2.0,0.0
4465,40.0,0.0,240.0,15.0,0.0
4466,68.0,0.0,240.0,4.0,0.0
4467,71.0,0.0,240.0,4.0,0.0
4468,52.0,15.0,15.0,6.0,0.0
4469,52.0,0.0,240.0,14.0,0.0
4470,56.0,0.0,240.0,3.0,0.0
4471,95.0,0.0,240.0,0.0,0.0
4472,92.0,0.0,240.0,0.0,0.0
4473,64.0,0.0,240.0,13.0,0.0
4474,71.0,0.0,240.0,2.0,0.0
4475,71.0,0.0,240.0,12.0,0.0
4476,52.0,15.0,15.0,6.0,0.0
4477,52.0,15.0,15.0,6.0,0.0
4478,52.0,15.0,15.0,6.0,0.0
4479,52.0,15.0,15.0,6.0,0.0
4480,52.0,15.0,15.0,6.0,0.0
4481,52.0,15.0,15.0,6.0,0.0
4482,52.0,112.0,15.0,6.0,0.0
4483,52.0,86.0,120.0,6.0,0.0
4484,52.0,0.0,90.0,6.0,0.0
4485,40.0,26.0,90.0,15.0,0.0
4486,88.0,0.0,90.0,0.0,0.0
4487,80.0,0.0,90.0,11.0,0.0
4488,80.0,0.0,90.0,1.0,0.0
4489,76.0,0.0,90.0,5.0,0.0
4490,76.0,0.0,90.0,1.0,0.0
4491,80.0,4.0,90.0,5.0,0.0
4492,52.0,0.0,90.0,14.0,0.0
4493,56.0,0.0,90.0,3.0,0.0
4494,52.0,0.0,90.0,3.0,0.0
4495,68.0,0.0,90.0,4.0,0.0
4496,92.0,0.0,90.0,0.0,0.0
4497,76.0,0.0,90.0,12.0,0.0
4498,64.0,0.0,90.0,4.0,0.0
4499,68.0,0.0,90.0,2.0,0.0
4500,64.0,0.0,90.0,13.0,0.0
4501,64.0,0.0,90.0,2.0,0.0
4502,52.0,0.0,90.0,13.0,0.0
4503,40.0,0.0,30.0,15.0,0.0
4504,69.0,0.0,30.0,4.0,0.0
4505,66.0,0.0,30.0,4.0,0.0
4506,54.0,0.0,30.0,3.0,0.0
4507,57.0,0.0,30.0,3.0,0.0
4508,81.0,0.0,30.0,11.0,0.0
4509,78.0,0.0,30.0,12.0,0.0
4510,69.0,4.0,30.0,2.0,0.0
4511,66.0,0.0,30.0,2.0,0.0
4512,78.0,0.0,30.0,1.0,0.0
4513,81.0,0.0,30.0,1.0,0.0
4514,52.0,0.0,30.0,14.0,0.0
4515,81.0,0.0,30.0,5.0,0.0
4516,78.0,0.0,30.0,5.0,0.0
4517,52.0,15.0,30.0,6.0,0.0
4518,90.0,0.0,30.0,0.0,0.0
4519,93.0,0.0,30.0,0.0,0.0
4520,52.0,0.0,30.0,13.0,0.0
4521,64.0,0.0,30.0,13.0,0.0
4522,68.0,0.0,240.0,2.0,0.0
4523,80.0,0.0,240.0,5.0,0.0
4524,83.0,0.0,240.0,5.0,0.0
4525,71.0,0.0,240.0,12.0,0.0
4526,59.0,0.0,240.0,12.0,0.0
4527,80.0,0.0,240.0,12.0,0.0
4528,52.0,0.0,240.0,13.0,0.0
4529,64.0,0.0,240.0,13.0,0.0
4530,71.0,0.0,240.0,2.0,0.0
4531,52.0,0.0,240.0,14.0,0.0
4532,68.0,8.0,240.0,11.0,0.0
4533,92.0,0.0,240.0,0.0,0.0
4534,83.0,0.0,240.0,11.0,0.0
4535,83.0,0.0,240.0,1.0,0.0
4536,80.0,0.0,240.0,1.0,0.0
4537,68.0,0.0,240.0,4.0,0.0
4538,71.0,0.0,240.0,4.0,0.0
4539,76.0,0.0,240.0,11.0,0.0
4540,59.0,0.0,240.0,3.0,0.0
4541,52.0,15.0,15.0,6.0,0.0
4542,40.0,0.0,240.0,15.0,0.0
4543,56.0,0.0,240.0,3.0,0.0
4544,95.0,0.0,240.0,0.0,0.0
4545,52.0,15.0,15.0,6.0,0.0
4546,52.0,15.0,15.0,6.0,0.0
4547,52.0,15.0,15.0,6.0,0.0
4548,52.0,15.0,15.0,6.0,0.0
4549,52.0,15.0,15.0,6.0,0.0
4550,52.0,15.0,15.0,6.0,0.0
4551,52.0,112.0,15.0,6.0,0.0
4552,52.0,86.0,120.0,6.0,0.0
4553,80.0,4.0,90.0,11.0,0.0
4554,52.0,0.0,90.0,13.0,0.0
4555,52.0,0.0,90.0,3.0,0.0
4556,56.0,0.0,90.0,3.0,0.0
4557,64.0,0.0,90.0,13.0,0.0
4558,52.0,0.0,90.0,14.0,0.0
4559,40.0,0.0,90.0,15.0,0.0
4560,68.0,0.0,90.0,4.0,0.0
4561,76.0,0.0,90.0,12.0,0.0
4562,52.0,26.0,90.0,6.0,0.0
4563,64.0,0.0,90.0,4.0,0.0
4564,76.0,0.0,90.0,1.0,0.0
4565,80.0,0.0,90.0,1.0,0.0
4566,64.0,0.0,90.0,2.0,0.0
4567,68.0,0.0,90.0,2.0,0.0
4568,76.0,0.0,90.0,5.0,0.0
4569,80.0,0.0,90.0,5.0,0.0
4570,92.0,0.0,90.0,0.0,0.0
4571,88.0,0.0,90.0,0.0,0.0
4572,57.0,0.0,30.0,3.0,0.0
4573,78.0,0.0,30.0,12.0,0.0
4574,78.0,0.0,30.0,1.0,0.0
4575,81.0,0.0,30.0,1.0,0.0
4576,69.0,0.0,30.0,4.0,0.0
4577,52.0,0.0,30.0,14.0,0.0
4578,93.0,0.0,30.0,0.0,0.0
4579,81.0,4.0,30.0,11.0,0.0
4580,54.0,0.0,30.0,3.0,0.0
4581,69.0,0.0,30.0,2.0,0.0
4582,66.0,0.0,30.0,2.0,0.0
4583,66.0,0.0,30.0,4.0,0.0
4584,64.0,0.0,30.0,13.0,0.0
4585,52.0,0.0,30.0,13.0,0.0
4586,78.0,0.0,30.0,5.0,0.0
4587,81.0,0.0,30.0,5.0,0.0
4588,52.0,15.0,30.0,6.0,0.0
4589,90.0,0.0,30.0,0.0,0.0
4590,40.0,0.0,30.0,15.0,0.0
4591,80.0,0.0,840.0,1.0,0.0
4592,64.0,0.0,240.0,13.0,0.0
4593,52.0,0.0,240.0,13.0,0.0
4594,95.0,0.0,840.0,0.0,0.0
4595,52.0,15.0,360.0,14.0,0.0
4596,92.0,0.0,840.0,0.0,0.0
4597,59.0,0.0,840.0,3.0,0.0
4598,76.0,0.0,240.0,11.0,0.0
4599,80.0,0.0,840.0,5.0,0.0
4600,83.0,0.0,840.0,5.0,0.0
4601,83.0,0.0,840.0,1.0,0.0
4602,68.0,0.0,240.0,11.0,0.0
4603,56.0,0.0,840.0,3.0,0.0
4604,83.0,0.0,240.0,11.0,0.0
4605,68.0,0.0,840.0,4.0,0.0
4606,71.0,0.0,840.0,4.0,0.0
4607,71.0,0.0,240.0,12.0,0.0
4608,59.0,0.0,240.0,12.0,0.0
4609,80.0,15.0,240.0,12.0,0.0
4610,52.0,15.0,15.0,6.0,0.0
4611,40.0,0.0,360.0,15.0,0.0
4612,68.0,15.0,120.0,2.0,0.0
4613,71.0,0.0,120.0,2.0,0.0
4614,52.0,15.0,15.0,6.0,0.0
4615,52.0,15.0,15.0,6.0,0.0
4616,52.0,15.0,15.0,6.0,0.0
4617,52.0,15.0,15.0,6.0,0.0
4618,52.0,15.0,15.0,6.0,0.0
4619,52.0,15.0,15.0,6.0,0.0
4620,52.0,0.0,15.0,6.0,0.0
4621,52.0,15.0,15.0,6.0,0.0
4622,52.0,15.0,15.0,6.0,0.0
4623,52.0,15.0,15.0,6.0,0.0
4624,52.0,15.0,15.0,6.0,0.0
4625,52.0,15.0,15.0,6.0,0.0
4626,52.0,15.0,15.0,6.0,0.0
4627,52.0,15.0,15.0,6.0,0.0
4628,52.0,0.0,15.0,6.0,0.0
4629,52.0,15.0,15.0,6.0,0.0
4630,52.0,15.0,15.0,6.0,0.0
4631,52.0,15.0,15.0,6.0,0.0
4632,52.0,15.0,15.0,6.0,0.0
4633,52.0,15.0,15.0,6.0,0.0
4634,52.0,15.0,15.0,6.0,0.0
4635,52.0,15.0,15.0,6.0,0.0
4636,52.0,0.0,15.0,6.0,0.0
4637,40.0,8.0,360.0,15.0,0.0
4638,52.0,15.0,15.0,6.0,0.0
4639,52.0,0.0,360.0,14.0,0.0
4640,52.0,15.0,15.0,6.0,0.0
4641,52.0,15.0,15.0,6.0,0.0
4642,52.0,15.0,15.0,6.0,0.0
4643,52.0,15.0,15.0,6.0,0.0
4644,52.0,15.0,15.0,6.0,0.0
4645,52.0,15.0,15.0,6.0,0.0
4646,52.0,15.0,15.0,6.0,0.0
4647,52.0,15.0,15.0,6.0,0.0
4648,52.0,15.0,15.0,6.0,0.0
4649,52.0,15.0,15.0,6.0,0.0
4650,52.0,15.0,15.0,6.0,0.0
4651,52.0,15.0,15.0,6.0,0.0
4652,52.0,15.0,15.0,6.0,0.0
4653,52.0,15.0,15.0,6.0,0.0
4654,52.0,15.0,15.0,6.0,0.0
4655,52.0,15.0,90.0,13.0,0.0
4656,52.0,15.0,15.0,6.0,0.0
4657,64.0,0.0,90.0,11.0,0.0
4658,52.0,15.0,15.0,6.0,0.0
4659,52.0,15.0,15.0,6.0,0.0
4660,52.0,15.0,15.0,6.0,0.0
4661,52.0,15.0,15.0,6.0,0.0
4662,52.0,0.0,15.0,6.0,0.0
4663,52.0,7.0,15.0,6.0,0.0
4664,68.0,0.0,30.0,11.0,0.0
4665,56.0,0.0,30.0,13.0,0.0
4666,52.0,90.0,15.0,6.0,0.0
4667,68.0,0.0,120.0,12.0,0.0
4668,59.0,0.0,120.0,12.0,0.0
4669,52.0,0.0,120.0,14.0,0.0
4670,40.0,210.0,120.0,15.0,0.0
4671,52.0,0.0,120.0,6.0,0.0
4672,71.0,30.0,90.0,11.0,0.0
4673,59.0,0.0,90.0,13.0,0.0
4674,52.0,30.0,90.0,13.0,0.0
4675,64.0,0.0,90.0,11.0,0.0
4676,69.0,0.0,30.0,11.0,0.0
4677,57.0,90.0,30.0,13.0,0.0
4678,57.0,210.0,120.0,14.0,0.0
4679,45.0,0.0,120.0,15.0,0.0
4680,60.0,0.0,120.0,12.0,0.0
4681,72.0,30.0,90.0,11.0,0.0
4682,69.0,0.0,120.0,12.0,0.0
4683,60.0,0.0,90.0,13.0,0.0
4684,55.0,0.0,90.0,13.0,0.0
4685,67.0,26.0,90.0,11.0,0.0
4686,71.0,34.0,30.0,11.0,0.0
4687,59.0,0.0,30.0,13.0,0.0
4688,62.0,0.0,120.0,12.0,0.0
4689,71.0,30.0,120.0,12.0,0.0
4690,43.0,0.0,120.0,15.0,0.0
4691,55.0,0.0,120.0,14.0,0.0
4692,74.0,0.0,30.0,11.0,0.0
4693,62.0,40.0,30.0,13.0,0.0
4694,67.0,40.0,30.0,11.0,0.0
4695,55.0,0.0,30.0,13.0,0.0
4696,59.0,10.0,30.0,13.0,0.0
4697,71.0,0.0,30.0,11.0,0.0
4698,74.0,40.0,30.0,11.0,0.0
4699,62.0,0.0,30.0,13.0,0.0
4700,55.0,40.0,30.0,13.0,0.0
4701,67.0,0.0,30.0,11.0,0.0
4702,71.0,0.0,30.0,11.0,0.0
4703,59.0,40.0,30.0,13.0,0.0
4704,62.0,40.0,30.0,13.0,0.0
4705,74.0,0.0,30.0,11.0,0.0
4706,67.0,40.0,30.0,11.0,0.0
4707,55.0,0.0,30.0,13.0,0.0
4708,71.0,40.0,30.0,11.0,0.0
4709,59.0,0.0,30.0,13.0,0.0
4710,74.0,0.0,30.0,11.0,0.0
4711,62.0,40.0,30.0,13.0,0.0
4712,67.0,0.0,30.0,11.0,0.0
4713,55.0,40.0,30.0,13.0,0.0
4714,71.0,0.0,30.0,11.0,0.0
4715,59.0,40.0,30.0,13.0,0.0
4716,74.0,40.0,30.0,11.0,0.0
4717,62.0,0.0,30.0,13.0,0.0
4718,67.0,0.0,30.0,11.0,0.0
4719,55.0,40.0,30.0,13.0,0.0
4720,71.0,0.0,30.0,11.0,0.0
4721,59.0,40.0,30.0,13.0,0.0
4722,62.0,40.0,30.0,13.0,0.0
4723,74.0,0.0,30.0,11.0,0.0
4724,67.0,0.0,30.0,11.0,0.0
4725,55.0,40.0,30.0,13.0,0.0
4726,59.0,0.0,30.0,13.0,0.0
4727,71.0,40.0,30.0,11.0,0.0
4728,62.0,30.0,30.0,13.0,0.0
4729,74.0,0.0,30.0,11.0,0.0
4730,59.0,0.0,30.0,13.0,0.0
4731,71.0,30.0,30.0,11.0,0.0
4732,67.0,26.0,30.0,11.0,0.0
4733,55.0,0.0,30.0,13.0,0.0
4734,71.0,0.0,30.0,11.0,0.0
4735,59.0,34.0,30.0,13.0,0.0
4736,74.0,0.0,30.0,11.0,0.0
4737,62.0,30.0,30.0,13.0,0.0
4738,71.0,30.0,30.0,11.0,0.0
4739,59.0,0.0,30.0,13.0,0.0
4740,55.0,0.0,30.0,13.0,0.0
4741,67.0,26.0,30.0,11.0,0.0
4742,59.0,34.0,30.0,13.0,0.0
4743,71.0,0.0,30.0,11.0,0.0
4744,62.0,30.0,30.0,13.0,0.0
4745,74.0,0.0,30.0,11.0,0.0
4746,59.0,0.0,30.0,13.0,0.0
4747,71.0,30.0,30.0,11.0,0.0
4748,67.0,0.0,30.0,11.0,0.0
4749,55.0,26.0,30.0,13.0,0.0
4750,59.0,34.0,30.0,13.0,0.0
4751,71.0,0.0,30.0,11.0,0.0
4752,50.0,30.0,30.0,14.0,0.0
4753,74.0,0.0,120.0,11.0,0.0
4754,62.0,30.0,120.0,13.0,0.0
4755,47.0,30.0,30.0,14.0,0.0
4756,43.0,26.0,30.0,14.0,0.0
4757,47.0,4.0,30.0,14.0,0.0
4758,50.0,30.0,30.0,14.0,0.0
4759,47.0,30.0,30.0,14.0,0.0
4760,43.0,26.0,30.0,14.0,0.0
4761,47.0,34.0,30.0,14.0,0.0
4762,50.0,30.0,30.0,14.0,0.0
4763,47.0,30.0,30.0,14.0,0.0
4764,43.0,26.0,30.0,14.0,0.0
4765,47.0,34.0,30.0,14.0,0.0
4766,50.0,30.0,120.0,14.0,0.0
4767,74.0,30.0,30.0,11.0,0.0
4768,71.0,30.0,30.0,11.0,0.0
4769,67.0,30.0,30.0,11.0,0.0
4770,71.0,0.0,30.0,11.0,0.0
4771,74.0,30.0,30.0,11.0,0.0
4772,71.0,30.0,30.0,11.0,0.0
4773,67.0,30.0,30.0,11.0,0.0
4774,71.0,30.0,30.0,11.0,0.0
4775,74.0,30.0,30.0,11.0,0.0
4776,71.0,30.0,30.0,11.0,0.0
4777,67.0,30.0,30.0,11.0,0.0
4778,71.0,30.0,30.0,11.0,0.0
4779,74.0,30.0,30.0,11.0,0.0
4780,71.0,30.0,30.0,11.0,0.0
4781,67.0,30.0,30.0,11.0,0.0
4782,71.0,30.0,30.0,11.0,0.0
4783,74.0,30.0,30.0,11.0,0.0
4784,71.0,30.0,30.0,11.0,0.0
4785,67.0,30.0,30.0,11.0,0.0
4786,71.0,30.0,30.0,11.0,0.0
4787,74.0,30.0,30.0,11.0,0.0
4788,71.0,30.0,30.0,11.0,0.0
4789,67.0,26.0,30.0,11.0,0.0
4790,71.0,34.0,30.0,11.0,0.0
4791,74.0,30.0,30.0,11.0,0.0
4792,71.0,30.0,30.0,11.0,0.0
4793,67.0,30.0,30.0,11.0,0.0
4794,71.0,30.0,30.0,11.0,0.0
4795,74.0,30.0,30.0,11.0,0.0
4796,71.0,30.0,30.0,11.0,0.0
4797,67.0,30.0,30.0,11.0,0.0
4798,71.0,30.0,30.0,11.0,0.0
4799,67.0,0.0,30.0,2.0,0.0
4800,55.0,0.0,120.0,13.0,0.0
4801,60.0,30.0,120.0,13.0,0.0
4802,36.0,0.0,120.0,15.0,0.0
4803,48.0,0.0,120.0,14.0,0.0
4804,79.0,0.0,30.0,0.0,0.0
4805,55.0,15.0,30.0,3.0,0.0
4806,63.0,0.0,120.0,12.0,0.0
4807,75.0,15.0,30.0,11.0,0.0
4808,72.0,30.0,30.0,11.0,0.0
4809,67.0,22.0,30.0,11.0,0.0
4810,84.0,0.0,20.0,0.0,0.0
4811,60.0,4.0,20.0,3.0,0.0
4812,72.0,0.0,20.0,2.0,0.0
4813,72.0,4.0,30.0,11.0,0.0
4814,48.0,0.0,120.0,14.0,0.0
4815,75.0,30.0,30.0,11.0,0.0
4816,87.0,8.0,120.0,0.0,0.0
4817,36.0,0.0,120.0,15.0,0.0
4818,55.0,0.0,120.0,13.0,0.0
4819,60.0,0.0,120.0,13.0,0.0
4820,63.0,0.0,120.0,3.0,0.0
4821,75.0,0.0,120.0,2.0,0.0
4822,63.0,0.0,120.0,12.0,0.0
4823,72.0,30.0,30.0,11.0,0.0
4824,67.0,22.0,30.0,11.0,0.0
4825,72.0,30.0,30.0,11.0,0.0
4826,87.0,0.0,30.0,0.0,0.0
4827,48.0,0.0,120.0,14.0,0.0
4828,79.0,30.0,60.0,1.0,0.0
4829,63.0,0.0,120.0,12.0,0.0
4830,36.0,30.0,120.0,15.0,0.0
4831,55.0,0.0,120.0,13.0,0.0
4832,63.0,0.0,30.0,3.0,0.0
4833,75.0,15.0,30.0,11.0,0.0
4834,60.0,0.0,120.0,13.0,0.0
4835,75.0,15.0,30.0,2.0,0.0
4836,72.0,0.0,30.0,11.0,0.0
4837,67.0,22.0,30.0,11.0,0.0
4838,62.0,0.0,20.0,3.0,0.0
4839,86.0,0.0,20.0,0.0,0.0
4840,72.0,0.0,30.0,11.0,0.0
4841,74.0,8.0,20.0,2.0,0.0
4842,60.0,0.0,120.0,13.0,0.0
4843,75.0,15.0,30.0,11.0,0.0
4844,63.0,0.0,120.0,12.0,0.0
4845,48.0,0.0,120.0,14.0,0.0
4846,36.0,30.0,120.0,15.0,0.0
4847,72.0,0.0,30.0,2.0,0.0
4848,84.0,15.0,30.0,0.0,0.0
4849,55.0,0.0,120.0,13.0,0.0
4850,60.0,0.0,30.0,3.0,0.0
4851,72.0,30.0,30.0,11.0,0.0
4852,67.0,22.0,30.0,11.0,0.0
4853,72.0,4.0,30.0,11.0,0.0
4854,63.0,0.0,20.0,3.0,0.0
4855,75.0,0.0,20.0,2.0,0.0
4856,87.0,4.0,20.0,0.0,0.0
4857,55.0,0.0,120.0,14.0,0.0
4858,74.0,30.0,30.0,11.0,0.0
4859,83.0,8.0,240.0,0.0,0.0
4860,71.0,0.0,240.0,2.0,0.0
4861,55.0,0.0,120.0,13.0,0.0
4862,59.0,0.0,120.0,13.0,0.0
4863,62.0,30.0,120.0,12.0,0.0
4864,59.0,0.0,240.0,3.0,0.0
4865,43.0,0.0,120.0,15.0,0.0
4866,71.0,30.0,30.0,11.0,0.0
4867,67.0,30.0,30.0,11.0,0.0
4868,71.0,0.0,30.0,11.0,0.0
4869,55.0,0.0,120.0,14.0,0.0
4870,79.0,30.0,60.0,1.0,0.0
4871,74.0,30.0,30.0,11.0,0.0
4872,62.0,0.0,120.0,12.0,0.0
4873,43.0,0.0,120.0,15.0,0.0
4874,55.0,0.0,120.0,13.0,0.0
4875,59.0,30.0,120.0,13.0,0.0
4876,71.0,0.0,30.0,11.0,0.0
4877,67.0,22.0,30.0,11.0,0.0
4878,71.0,0.0,30.0,11.0,0.0
4879,55.0,0.0,120.0,14.0,0.0
4880,59.0,0.0,120.0,13.0,0.0
4881,55.0,30.0,120.0,13.0,0.0
4882,62.0,0.0,120.0,12.0,0.0
4883,72.0,0.0,30.0,2.0,0.0
4884,43.0,0.0,120.0,15.0,0.0
4885,60.0,0.0,30.0,3.0,0.0
4886,84.0,15.0,30.0,0.0,0.0
4887,74.0,15.0,30.0,11.0,0.0
4888,71.0,30.0,30.0,11.0,0.0
4889,67.0,22.0,30.0,11.0,0.0
4890,62.0,0.0,20.0,3.0,0.0
4891,71.0,4.0,30.0,11.0,0.0
4892,74.0,4.0,20.0,2.0,0.0
4893,86.0,0.0,20.0,0.0,0.0
4894,60.0,0.0,120.0,14.0,0.0
4895,87.0,0.0,120.0,0.0,0.0
4896,63.0,0.0,120.0,3.0,0.0
4897,75.0,8.0,120.0,2.0,0.0
4898,48.0,0.0,120.0,15.0,0.0
4899,55.0,0.0,120.0,13.0,0.0
4900,60.0,30.0,120.0,13.0,0.0
4901,63.0,0.0,120.0,12.0,0.0
4902,75.0,30.0,30.0,11.0,0.0
4903,72.0,30.0,30.0,11.0,0.0
4904,67.0,22.0,30.0,11.0,0.0
4905,72.0,0.0,30.0,11.0,0.0
4906,60.0,0.0,120.0,14.0,0.0
4907,87.0,0.0,30.0,0.0,0.0
4908,60.0,0.0,120.0,13.0,0.0
4909,79.0,30.0,60.0,1.0,0.0
4910,63.0,15.0,30.0,3.0,0.0
4911,55.0,0.0,120.0,13.0,0.0
4912,63.0,0.0,120.0,12.0,0.0
4913,75.0,0.0,30.0,2.0,0.0
4914,48.0,30.0,120.0,15.0,0.0
4915,75.0,15.0,30.0,11.0,0.0
4916,72.0,0.0,30.0,11.0,0.0
4917,67.0,22.0,30.0,11.0,0.0
4918,74.0,0.0,20.0,2.0,0.0
4919,72.0,0.0,30.0,11.0,0.0
4920,86.0,0.0,20.0,0.0,0.0
4921,62.0,8.0,20.0,3.0,0.0
4922,84.0,0.0,30.0,0.0,0.0
4923,72.0,0.0,30.0,2.0,0.0
4924,55.0,0.0,120.0,13.0,0.0
4925,60.0,0.0,120.0,13.0,0.0
4926,75.0,15.0,30.0,11.0,0.0
4927,63.0,0.0,120.0,12.0,0.0
4928,60.0,15.0,30.0,3.0,0.0
4929,60.0,0.0,120.0,14.0,0.0
4930,48.0,30.0,120.0,15.0,0.0
4931,72.0,30.0,30.0,11.0,0.0
4932,67.0,22.0,30.0,11.0,0.0
4933,76.0,4.0,30.0,11.0,0.0
4934,87.0,0.0,20.0,0.0,0.0
4935,63.0,0.0,20.0,3.0,0.0
4936,75.0,4.0,20.0,2.0,0.0
4937,65.0,8.0,240.0,3.0,0.0
4938,46.0,0.0,120.0,15.0,0.0
4939,65.0,0.0,120.0,12.0,0.0
4940,77.0,0.0,240.0,2.0,0.0
4941,58.0,0.0,120.0,14.0,0.0
4942,89.0,0.0,240.0,0.0,0.0
4943,77.0,30.0,30.0,11.0,0.0
4944,62.0,0.0,120.0,13.0,0.0
4945,58.0,30.0,120.0,13.0,0.0
4946,74.0,30.0,30.0,11.0,0.0
4947,70.0,30.0,30.0,11.0,0.0
4948,74.0,0.0,30.0,11.0,0.0
4949,65.0,0.0,120.0,12.0,0.0
4950,58.0,0.0,120.0,14.0,0.0
4951,46.0,0.0,120.0,15.0,0.0
4952,77.0,30.0,30.0,11.0,0.0
4953,58.0,0.0,120.0,13.0,0.0
4954,82.0,30.0,60.0,1.0,0.0
4955,62.0,0.0,120.0,13.0,0.0
4956,74.0,0.0,30.0,11.0,0.0
4957,70.0,22.0,30.0,11.0,0.0
4958,74.0,30.0,30.0,11.0,0.0
4959,65.0,30.0,120.0,12.0,0.0
4960,75.0,0.0,30.0,2.0,0.0
4961,58.0,0.0,120.0,14.0,0.0
4962,77.0,15.0,30.0,11.0,0.0
4963,46.0,0.0,120.0,15.0,0.0
4964,62.0,0.0,120.0,13.0,0.0
4965,58.0,0.0,120.0,13.0,0.0
4966,87.0,0.0,30.0,0.0,0.0
4967,63.0,15.0,30.0,3.0,0.0
4968,74.0,30.0,30.0,11.0,0.0
4969,70.0,22.0,30.0,11.0,0.0
4970,65.0,0.0,20.0,3.0,0.0
4971,77.0,4.0,20.0,2.0,0.0
4972,89.0,0.0,20.0,0.0,0.0
4973,74.0,4.0,30.0,11.0,0.0
4974,58.0,30.0,120.0,13.0,0.0
4975,51.0,0.0,120.0,15.0,0.0
4976,67.0,0.0,120.0,12.0,0.0
4977,67.0,8.0,120.0,3.0,0.0
4978,79.0,0.0,120.0,2.0,0.0
4979,63.0,0.0,120.0,13.0,0.0
4980,79.0,30.0,30.0,11.0,0.0
4981,63.0,0.0,120.0,14.0,0.0
4982,91.0,0.0,120.0,0.0,0.0
4983,75.0,30.0,30.0,11.0,0.0
4984,70.0,22.0,30.0,11.0,0.0
4985,75.0,0.0,30.0,11.0,0.0
4986,63.0,30.0,120.0,13.0,0.0
4987,58.0,0.0,120.0,13.0,0.0
4988,63.0,0.0,120.0,14.0,0.0
4989,79.0,15.0,30.0,11.0,0.0
4990,67.0,0.0,120.0,12.0,0.0
4991,51.0,0.0,120.0,15.0,0.0
4992,82.0,30.0,60.0,1.0,0.0
4993,67.0,0.0,30.0,3.0,0.0
4994,79.0,15.0,30.0,2.0,0.0
4995,91.0,0.0,30.0,0.0,0.0
4996,75.0,0.0,30.0,11.0,0.0
4997,70.0,22.0,30.0,11.0,0.0
4998,75.0,0.0,30.0,11.0,0.0
4999,77.0,0.0,20.0,2.0,0.0
5000,65.0,8.0,20.0,3.0,0.0
5001,89.0,0.0,20.0,0.0,0.0
5002,63.0,15.0,30.0,3.0,0.0
5003,75.0,0.0,30.0,2.0,0.0
5004,79.0,15.0,30.0,11.0,0.0
5005,58.0,0.0,120.0,13.0,0.0
5006,67.0,0.0,120.0,12.0,0.0
5007,51.0,30.0,120.0,15.0,0.0
5008,63.0,0.0,120.0,13.0,0.0
5009,63.0,0.0,120.0,14.0,0.0
5010,87.0,0.0,30.0,0.0,0.0
5011,75.0,30.0,30.0,11.0,0.0
5012,70.0,22.0,30.0,11.0,0.0
5013,79.0,4.0,30.0,11.0,0.0
5014,91.0,0.0,20.0,0.0,0.0
5015,67.0,4.0,20.0,3.0,0.0
5016,79.0,0.0,20.0,2.0,0.0
5017,65.0,8.0,240.0,3.0,0.0
5018,77.0,0.0,240.0,2.0,0.0
5019,58.0,0.0,120.0,14.0,0.0
5020,77.0,30.0,30.0,11.0,0.0
5021,46.0,0.0,120.0,15.0,0.0
5022,62.0,0.0,120.0,13.0,0.0
5023,58.0,0.0,120.0,13.0,0.0
5024,89.0,0.0,240.0,0.0,0.0
5025,65.0,30.0,120.0,12.0,0.0
5026,74.0,30.0,30.0,11.0,0.0
5027,70.0,30.0,30.0,11.0,0.0
5028,74.0,0.0,30.0,11.0,0.0
5029,46.0,30.0,120.0,15.0,0.0
5030,58.0,0.0,120.0,14.0,0.0
5031,82.0,0.0,60.0,1.0,0.0
5032,58.0,0.0,120.0,13.0,0.0
5033,77.0,30.0,30.0,11.0,0.0
5034,62.0,0.0,120.0,13.0,0.0
5035,65.0,0.0,120.0,12.0,0.0
5036,74.0,30.0,30.0,11.0,0.0
5037,70.0,22.0,30.0,11.0,0.0
5038,74.0,0.0,30.0,11.0,0.0
5039,77.0,15.0,30.0,11.0,0.0
5040,58.0,0.0,120.0,14.0,0.0
5041,62.0,0.0,120.0,13.0,0.0
5042,58.0,0.0,120.0,13.0,0.0
5043,46.0,30.0,120.0,15.0,0.0
5044,65.0,0.0,120.0,12.0,0.0
5045,67.0,0.0,30.0,3.0,0.0
5046,91.0,0.0,30.0,0.0,0.0
5047,79.0,15.0,30.0,2.0,0.0
5048,74.0,30.0,30.0,11.0,0.0
5049,70.0,22.0,30.0,11.0,0.0
5050,77.0,0.0,20.0,2.0,0.0
5051,77.0,4.0,30.0,11.0,0.0
5052,89.0,0.0,20.0,0.0,0.0
5053,65.0,4.0,20.0,3.0,0.0
5054,63.0,0.0,120.0,12.0,0.0
5055,75.0,8.0,120.0,2.0,0.0
5056,87.0,0.0,120.0,0.0,0.0
5057,60.0,0.0,120.0,14.0,0.0
5058,48.0,0.0,120.0,15.0,0.0
5059,60.0,0.0,120.0,13.0,0.0
5060,75.0,30.0,30.0,11.0,0.0
5061,55.0,0.0,120.0,13.0,0.0
5062,63.0,0.0,120.0,3.0,0.0
5063,72.0,30.0,30.0,11.0,0.0
5064,67.0,22.0,30.0,11.0,0.0
5065,72.0,30.0,30.0,11.0,0.0
5066,60.0,0.0,120.0,13.0,0.0
5067,63.0,15.0,30.0,3.0,0.0
5068,75.0,15.0,30.0,11.0,0.0
5069,48.0,30.0,120.0,15.0,0.0
5070,87.0,0.0,30.0,0.0,0.0
5071,55.0,0.0,120.0,13.0,0.0
5072,63.0,0.0,120.0,12.0,0.0
5073,75.0,0.0,30.0,2.0,0.0
5074,60.0,0.0,120.0,14.0,0.0
5075,79.0,30.0,60.0,1.0,0.0
5076,72.0,0.0,30.0,11.0,0.0
5077,67.0,22.0,30.0,11.0,0.0
5078,74.0,8.0,20.0,2.0,0.0
5079,62.0,0.0,20.0,3.0,0.0
5080,72.0,0.0,30.0,11.0,0.0
5081,86.0,0.0,20.0,0.0,0.0
5082,60.0,30.0,120.0,14.0,0.0
5083,55.0,0.0,120.0,13.0,0.0
5084,60.0,0.0,120.0,13.0,0.0
5085,48.0,0.0,120.0,15.0,0.0
5086,72.0,0.0,30.0,2.0,0.0
5087,75.0,15.0,30.0,11.0,0.0
5088,60.0,15.0,30.0,3.0,0.0
5089,84.0,0.0,30.0,0.0,0.0
5090,63.0,0.0,120.0,12.0,0.0
5091,72.0,30.0,30.0,11.0,0.0
5092,67.0,22.0,30.0,11.0,0.0
5093,76.0,4.0,30.0,11.0,0.0
5094,63.0,0.0,20.0,3.0,0.0
5095,87.0,0.0,20.0,0.0,0.0
5096,75.0,4.0,20.0,2.0,0.0
5097,59.0,0.0,120.0,13.0,0.0
5098,74.0,0.0,180.0,2.0,0.0
5099,55.0,0.0,120.0,13.0,0.0
5100,43.0,0.0,120.0,15.0,0.0
5101,55.0,30.0,120.0,14.0,0.0
5102,62.0,0.0,180.0,3.0,0.0
5103,86.0,0.0,180.0,0.0,0.0
5104,74.0,30.0,30.0,11.0,0.0
5105,62.0,0.0,120.0,12.0,0.0
5106,55.0,4.0,300.0,3.0,0.0
5107,71.0,30.0,30.0,11.0,0.0
5108,67.0,30.0,30.0,11.0,0.0
5109,71.0,0.0,30.0,11.0,0.0
5110,74.0,30.0,30.0,11.0,0.0
5111,55.0,0.0,60.0,13.0,0.0
5112,59.0,0.0,60.0,13.0,0.0
5113,79.0,0.0,60.0,1.0,0.0
5114,62.0,0.0,60.0,12.0,0.0
5115,43.0,0.0,60.0,15.0,0.0
5116,55.0,0.0,60.0,14.0,0.0
5117,67.0,30.0,30.0,11.0,0.0
5118,55.0,0.0,60.0,13.0,0.0
5119,75.0,30.0,30.0,11.0,0.0
5120,87.0,0.0,60.0,0.0,0.0
5121,36.0,30.0,60.0,15.0,0.0
5122,63.0,0.0,60.0,3.0,0.0
5123,60.0,0.0,60.0,13.0,0.0
5124,63.0,0.0,60.0,12.0,0.0
5125,75.0,0.0,60.0,2.0,0.0
5126,48.0,0.0,60.0,14.0,0.0
5127,67.0,0.0,30.0,11.0,0.0
5128,48.0,0.0,60.0,15.0,0.0
5129,60.0,0.0,60.0,13.0,0.0
5130,63.0,0.0,60.0,12.0,0.0
5131,60.0,0.0,60.0,14.0,0.0
5132,55.0,0.0,60.0,13.0,0.0
5133,72.0,26.0,30.0,11.0,0.0
5134,60.0,0.0,60.0,3.0,0.0
5135,72.0,0.0,60.0,2.0,0.0
5136,84.0,30.0,60.0,0.0,0.0
5137,67.0,0.0,30.0,11.0,0.0
5138,63.0,30.0,60.0,12.0,0.0
5139,55.0,0.0,60.0,13.0,0.0
5140,60.0,0.0,60.0,13.0,0.0
5141,60.0,0.0,60.0,14.0,0.0
5142,72.0,0.0,60.0,2.0,0.0
5143,87.0,0.0,60.0,0.0,0.0
5144,63.0,0.0,60.0,3.0,0.0
5145,60.0,0.0,60.0,3.0,0.0
5146,48.0,0.0,60.0,15.0,0.0
5147,75.0,0.0,60.0,2.0,0.0
5148,84.0,0.0,60.0,0.0,0.0
5149,75.0,26.0,30.0,11.0,0.0
5150,67.0,4.0,30.0,11.0,0.0
5151,86.0,0.0,180.0,0.0,0.0
5152,83.0,0.0,180.0,0.0,0.0
5153,43.0,0.0,120.0,15.0,0.0
5154,62.0,0.0,180.0,3.0,0.0
5155,59.0,0.0,180.0,3.0,0.0
5156,55.0,0.0,120.0,13.0,0.0
5157,59.0,0.0,120.0,13.0,0.0
5158,74.0,30.0,30.0,11.0,0.0
5159,74.0,0.0,180.0,2.0,0.0
5160,71.0,0.0,180.0,2.0,0.0
5161,55.0,30.0,120.0,14.0,0.0
5162,62.0,0.0,120.0,12.0,0.0
5163,71.0,30.0,30.0,11.0,0.0
5164,67.0,30.0,30.0,11.0,0.0
5165,71.0,0.0,30.0,11.0,0.0
5166,62.0,0.0,60.0,12.0,0.0
5167,43.0,30.0,60.0,15.0,0.0
5168,79.0,0.0,120.0,1.0,0.0
5169,59.0,0.0,60.0,13.0,0.0
5170,55.0,0.0,60.0,13.0,0.0
5171,74.0,30.0,30.0,11.0,0.0
5172,55.0,0.0,60.0,14.0,0.0
5173,67.0,0.0,30.0,11.0,0.0
5174,43.0,30.0,60.0,15.0,0.0
5175,75.0,0.0,60.0,2.0,0.0
5176,84.0,0.0,60.0,0.0,0.0
5177,60.0,0.0,60.0,13.0,0.0
5178,55.0,0.0,60.0,13.0,0.0
5179,63.0,0.0,60.0,3.0,0.0
5180,60.0,0.0,60.0,3.0,0.0
5181,55.0,0.0,60.0,14.0,0.0
5182,63.0,0.0,60.0,12.0,0.0
5183,72.0,0.0,60.0,2.0,0.0
5184,87.0,0.0,60.0,0.0,0.0
5185,75.0,30.0,30.0,11.0,0.0
5186,67.0,0.0,30.0,11.0,0.0
5187,72.0,30.0,30.0,11.0,0.0
5188,67.0,0.0,60.0,2.0,0.0
5189,63.0,0.0,60.0,12.0,0.0
5190,55.0,0.0,60.0,3.0,0.0
5191,60.0,30.0,60.0,14.0,0.0
5192,72.0,0.0,60.0,2.0,0.0
5193,55.0,0.0,60.0,13.0,0.0
5194,60.0,0.0,60.0,13.0,0.0
5195,60.0,0.0,60.0,3.0,0.0
5196,84.0,0.0,60.0,0.0,0.0
5197,79.0,0.0,60.0,0.0,0.0
5198,48.0,0.0,60.0,15.0,0.0
5199,67.0,0.0,30.0,11.0,0.0
5200,87.0,0.0,60.0,0.0,0.0
5201,75.0,26.0,30.0,11.0,0.0
5202,63.0,0.0,60.0,12.0,0.0
5203,36.0,0.0,60.0,15.0,0.0
5204,60.0,0.0,60.0,3.0,0.0
5205,60.0,0.0,60.0,13.0,0.0
5206,55.0,0.0,60.0,13.0,0.0
5207,84.0,4.0,60.0,0.0,0.0
5208,63.0,0.0,60.0,3.0,0.0
5209,72.0,0.0,60.0,2.0,0.0
5210,79.0,0.0,60.0,1.0,0.0
5211,75.0,0.0,60.0,2.0,0.0
5212,48.0,45.0,60.0,14.0,0.0
5213,67.0,0.0,30.0,11.0,0.0
5214,59.0,0.0,30.0,13.0,0.0
5215,55.0,0.0,30.0,13.0,0.0
5216,55.0,0.0,30.0,14.0,0.0
5217,62.0,0.0,30.0,3.0,0.0
5218,59.0,0.0,30.0,3.0,0.0
5219,74.0,0.0,30.0,11.0,0.0
5220,43.0,0.0,30.0,15.0,0.0
5221,62.0,0.0,30.0,12.0,0.0
5222,74.0,0.0,30.0,2.0,0.0
5223,79.0,49.0,60.0,1.0,0.0
5224,71.0,11.0,30.0,2.0,0.0
5225,86.0,0.0,60.0,0.0,0.0
5226,83.0,0.0,60.0,0.0,0.0
5227,71.0,0.0,30.0,2.0,0.0
5228,67.0,0.0,30.0,3.0,0.0
5229,67.0,15.0,30.0,12.0,0.0
5230,59.0,0.0,30.0,12.0,0.0
5231,59.0,0.0,30.0,3.0,0.0
5232,59.0,0.0,30.0,13.0,0.0
5233,55.0,0.0,30.0,13.0,0.0
5234,43.0,0.0,30.0,15.0,0.0
5235,79.0,60.0,120.0,1.0,0.0
5236,79.0,56.0,60.0,0.0,0.0
5237,79.0,0.0,30.0,11.0,0.0
5238,67.0,0.0,30.0,11.0,0.0
5239,55.0,0.0,30.0,14.0,0.0
5240,79.0,0.0,30.0,2.0,0.0
5241,79.0,4.0,60.0,0.0,0.0
5242,78.0,60.0,60.0,0.0,0.0
5243,79.0,60.0,60.0,0.0,0.0
5244,80.0,60.0,60.0,0.0,0.0
5245,81.0,60.0,60.0,0.0,0.0
5246,82.0,60.0,60.0,0.0,0.0
5247,83.0,60.0,60.0,0.0,0.0
5248,84.0,60.0,60.0,0.0,0.0
5249,73.0,60.0,60.0,2.0,0.0
5250,85.0,0.0,60.0,0.0,0.0
5251,86.0,0.0,60.0,0.0,0.0
5252,74.0,60.0,60.0,2.0,0.0
5253,76.0,0.0,60.0,2.0,0.0
5254,88.0,60.0,60.0,0.0,0.0
5255,89.0,0.0,60.0,0.0,0.0
5256,77.0,60.0,60.0,2.0,0.0
5257,91.0,0.0,60.0,0.0,0.0
5258,79.0,56.0,60.0,2.0,0.0
5259,93.0,0.0,60.0,0.0,0.0
5260,81.0,64.0,60.0,2.0,0.0
5261,73.0,0.0,60.0,2.0,0.0
5262,85.0,60.0,60.0,0.0,0.0
5263,74.0,0.0,60.0,2.0,0.0
5264,86.0,60.0,60.0,0.0,0.0
5265,88.0,0.0,60.0,0.0,0.0
5266,76.0,60.0,60.0,2.0,0.0
5267,77.0,0.0,60.0,2.0,0.0
5268,89.0,60.0,60.0,0.0,0.0
5269,64.0,60.0,60.0,12.0,0.0
5270,76.0,0.0,60.0,11.0,0.0
5271,77.0,0.0,60.0,11.0,0.0
5272,65.0,60.0,60.0,12.0,0.0
5273,79.0,56.0,60.0,11.0,0.0
5274,67.0,0.0,60.0,12.0,0.0
5275,81.0,64.0,60.0,11.0,0.0
5276,69.0,0.0,60.0,12.0,0.0
5277,73.0,0.0,60.0,11.0,0.0
5278,61.0,60.0,60.0,12.0,0.0
5279,74.0,0.0,60.0,11.0,0.0
5280,62.0,60.0,60.0,12.0,0.0
5281,76.0,60.0,60.0,11.0,0.0
5282,64.0,0.0,60.0,12.0,0.0
5283,65.0,60.0,60.0,12.0,0.0
5284,77.0,0.0,60.0,11.0,0.0
5285,61.0,60.0,60.0,14.0,0.0
5286,49.0,0.0,60.0,15.0,0.0
5287,62.0,60.0,60.0,14.0,0.0
5288,50.0,0.0,60.0,15.0,0.0
5289,64.0,0.0,60.0,14.0,0.0
5290,52.0,60.0,60.0,15.0,0.0
5291,65.0,60.0,60.0,14.0,0.0
5292,53.0,0.0,60.0,15.0,0.0
5293,55.0,0.0,60.0,15.0,0.0
5294,67.0,60.0,60.0,14.0,0.0
5295,69.0,0.0,60.0,14.0,0.0
5296,57.0,60.0,60.0,15.0,0.0
5297,67.0,0.0,60.0,14.0,0.0
5298,55.0,0.0,60.0,15.0,0.0
5299,55.0,30.0,30.0,13.0,0.0
5300,53.0,0.0,60.0,15.0,0.0
5301,65.0,30.0,60.0,14.0,0.0
5302,57.0,30.0,30.0,13.0,0.0
5303,59.0,0.0,30.0,13.0,0.0
5304,52.0,0.0,60.0,15.0,0.0
5305,64.0,30.0,60.0,14.0,0.0
5306,60.0,30.0,30.0,13.0,0.0
5307,62.0,0.0,30.0,13.0,0.0
5308,62.0,0.0,60.0,14.0,0.0
5309,64.0,30.0,30.0,13.0,0.0
5310,50.0,0.0,60.0,15.0,0.0
5311,65.0,60.0,30.0,13.0,0.0
5312,60.0,0.0,60.0,14.0,0.0
5313,67.0,0.0,180.0,13.0,0.0
5314,48.0,60.0,60.0,15.0,0.0
5315,59.0,0.0,60.0,14.0,0.0
5316,47.0,60.0,60.0,15.0,0.0
5317,45.0,30.0,60.0,15.0,0.0
5318,57.0,0.0,60.0,14.0,0.0
5319,67.0,0.0,30.0,12.0,0.0
5320,55.0,0.0,60.0,14.0,0.0
5321,69.0,30.0,30.0,12.0,0.0
5322,43.0,0.0,60.0,15.0,0.0
5323,71.0,30.0,30.0,12.0,0.0
5324,53.0,0.0,60.0,14.0,0.0
5325,41.0,30.0,60.0,15.0,0.0
5326,72.0,30.0,30.0,12.0,0.0
5327,74.0,0.0,30.0,12.0,0.0
5328,52.0,0.0,60.0,14.0,0.0
5329,40.0,60.0,60.0,15.0,0.0
5330,76.0,30.0,30.0,12.0,0.0
5331,77.0,0.0,30.0,12.0,0.0
5332,50.0,0.0,60.0,14.0,0.0
5333,38.0,60.0,60.0,15.0,0.0
5334,79.0,30.0,180.0,12.0,0.0
5335,36.0,0.0,60.0,15.0,0.0
5336,48.0,60.0,60.0,14.0,0.0
5337,35.0,0.0,60.0,15.0,0.0
5338,47.0,0.0,60.0,14.0,0.0
5339,79.0,0.0,30.0,11.0,0.0
5340,55.0,4.0,60.0,13.0,0.0
5341,81.0,26.0,30.0,11.0,0.0
5342,33.0,0.0,60.0,15.0,0.0
5343,45.0,0.0,60.0,14.0,0.0
5344,67.0,0.0,60.0,13.0,0.0
5345,83.0,30.0,30.0,11.0,0.0
5346,43.0,0.0,60.0,14.0,0.0
5347,55.0,4.0,60.0,13.0,0.0
5348,67.0,0.0,60.0,13.0,0.0
5349,84.0,26.0,30.0,11.0,0.0
5350,31.0,0.0,60.0,15.0,0.0
5351,86.0,30.0,30.0,11.0,0.0
5352,79.0,4.0,120.0,12.0,0.0
5353,55.0,0.0,60.0,13.0,0.0
5354,67.0,0.0,60.0,13.0,0.0
5355,41.0,0.0,60.0,15.0,0.0
5356,53.0,30.0,60.0,14.0,0.0
5357,88.0,26.0,30.0,11.0,0.0
5358,89.0,4.0,30.0,11.0,0.0
5359,91.0,0.0,180.0,11.0,0.0
5360,52.0,0.0,60.0,14.0,0.0
5361,74.0,0.0,30.0,0.0,0.0
5362,50.0,0.0,30.0,3.0,0.0
5363,55.0,0.0,60.0,13.0,0.0
5364,67.0,4.0,60.0,13.0,0.0
5365,62.0,22.0,30.0,2.0,0.0
5366,40.0,0.0,60.0,15.0,0.0
5367,76.0,0.0,30.0,0.0,0.0
5368,64.0,0.0,30.0,2.0,0.0
5369,52.0,30.0,30.0,3.0,0.0
5370,77.0,0.0,30.0,0.0,0.0
5371,55.0,0.0,60.0,13.0,0.0
5372,53.0,26.0,30.0,3.0,0.0
5373,79.0,0.0,120.0,12.0,0.0
5374,50.0,0.0,60.0,14.0,0.0
5375,79.0,0.0,60.0,1.0,0.0
5376,67.0,0.0,60.0,1.0,0.0
5377,38.0,0.0,60.0,15.0,0.0
5378,65.0,0.0,30.0,2.0,0.0
5379,67.0,4.0,60.0,13.0,0.0
5380,67.0,0.0,30.0,2.0,0.0
5381,79.0,0.0,30.0,0.0,0.0
5382,55.0,30.0,30.0,3.0,0.0
5383,57.0,26.0,30.0,3.0,0.0
5384,69.0,0.0,30.0,2.0,0.0
5385,55.0,0.0,60.0,13.0,0.0
5386,67.0,0.0,60.0,13.0,0.0
5387,79.0,4.0,60.0,1.0,0.0
5388,67.0,0.0,60.0,1.0,0.0
5389,81.0,0.0,30.0,0.0,0.0
5390,48.0,0.0,60.0,14.0,0.0
5391,36.0,0.0,60.0,15.0,0.0
5392,59.0,0.0,30.0,3.0,0.0
5393,71.0,30.0,30.0,2.0,0.0
5394,83.0,0.0,30.0,0.0,0.0
5395,77.0,0.0,60.0,12.0,0.0
5396,67.0,0.0,60.0,13.0,0.0
5397,55.0,0.0,60.0,13.0,0.0
5398,60.0,26.0,30.0,3.0,0.0
5399,35.0,0.0,60.0,15.0,0.0
5400,47.0,0.0,60.0,14.0,0.0
5401,89.0,0.0,60.0,11.0,0.0
5402,72.0,0.0,30.0,2.0,0.0
5403,84.0,0.0,30.0,0.0,0.0
5404,79.0,0.0,60.0,1.0,0.0
5405,67.0,30.0,60.0,1.0,0.0
5406,74.0,0.0,30.0,2.0,0.0
5407,86.0,0.0,30.0,0.0,0.0
5408,62.0,0.0,30.0,3.0,0.0
5409,67.0,4.0,360.0,1.0,0.0
5410,36.0,0.0,30.0,15.0,0.0
5411,88.0,0.0,450.0,0.0,0.0
5412,52.0,26.0,120.0,6.0,0.0
5413,67.0,0.0,30.0,13.0,0.0
5414,88.0,4.0,120.0,11.0,0.0
5415,79.0,0.0,360.0,1.0,0.0
5416,76.0,26.0,450.0,2.0,0.0
5417,64.0,0.0,30.0,13.0,0.0
5418,55.0,0.0,30.0,13.0,0.0
5419,48.0,30.0,30.0,14.0,0.0
5420,64.0,0.0,450.0,3.0,0.0
5421,52.0,0.0,360.0,4.0,0.0
5422,67.0,0.0,120.0,12.0,0.0
5423,76.0,0.0,120.0,12.0,0.0
5424,64.0,0.0,360.0,5.0,0.0
5425,76.0,26.0,360.0,5.0,0.0
5426,64.0,0.0,360.0,4.0,0.0
5427,67.0,0.0,30.0,13.0,0.0
5428,64.0,30.0,30.0,13.0,0.0
5429,36.0,0.0,30.0,15.0,0.0
5430,48.0,0.0,30.0,14.0,0.0
5431,55.0,0.0,30.0,13.0,0.0
5432,67.0,0.0,30.0,13.0,0.0
5433,36.0,26.0,30.0,15.0,0.0
5434,55.0,0.0,30.0,13.0,0.0
5435,64.0,0.0,30.0,13.0,0.0
5436,48.0,0.0,30.0,14.0,0.0
5437,36.0,0.0,30.0,15.0,0.0
5438,67.0,0.0,30.0,13.0,0.0
5439,64.0,0.0,30.0,13.0,0.0
5440,48.0,0.0,30.0,14.0,0.0
5441,55.0,4.0,30.0,13.0,0.0
5442,88.0,26.0,90.0,11.0,0.0
5443,76.0,0.0,90.0,12.0,0.0
5444,64.0,0.0,30.0,13.0,0.0
5445,48.0,0.0,30.0,14.0,0.0
5446,36.0,30.0,30.0,15.0,0.0
5447,67.0,0.0,30.0,13.0,0.0
5448,55.0,0.0,30.0,13.0,0.0
5449,64.0,0.0,30.0,13.0,0.0
5450,36.0,0.0,30.0,15.0,0.0
5451,67.0,0.0,30.0,13.0,0.0
5452,48.0,30.0,30.0,14.0,0.0
5453,55.0,0.0,30.0,13.0,0.0
5454,64.0,0.0,30.0,13.0,0.0
5455,55.0,0.0,30.0,13.0,0.0
5456,67.0,0.0,30.0,13.0,0.0
5457,36.0,4.0,30.0,15.0,0.0
5458,48.0,0.0,30.0,14.0,0.0
5459,48.0,0.0,30.0,14.0,0.0
5460,67.0,0.0,30.0,13.0,0.0
5461,55.0,0.0,30.0,13.0,0.0
5462,74.0,0.0,30.0,12.0,0.0
5463,64.0,4.0,30.0,13.0,0.0
5464,86.0,26.0,30.0,11.0,0.0
5465,36.0,0.0,30.0,15.0,0.0
5466,72.0,22.0,90.0,12.0,0.0
5467,36.0,0.0,30.0,15.0,0.0
5468,84.0,0.0,90.0,11.0,0.0
5469,48.0,0.0,30.0,14.0,0.0
5470,67.0,0.0,30.0,13.0,0.0
5471,64.0,0.0,30.0,13.0,0.0
5472,55.0,30.0,30.0,13.0,0.0
5473,67.0,0.0,30.0,13.0,0.0
5474,64.0,0.0,30.0,13.0,0.0
5475,48.0,30.0,30.0,14.0,0.0
5476,36.0,0.0,30.0,15.0,0.0
5477,55.0,0.0,30.0,13.0,0.0
5478,36.0,4.0,30.0,15.0,0.0
5479,48.0,0.0,30.0,14.0,0.0
5480,64.0,0.0,30.0,13.0,0.0
5481,67.0,0.0,30.0,13.0,0.0
5482,55.0,0.0,30.0,13.0,0.0
5483,36.0,0.0,30.0,15.0,0.0
5484,48.0,4.0,30.0,14.0,0.0
5485,76.0,0.0,30.0,12.0,0.0
5486,88.0,0.0,30.0,11.0,0.0
5487,55.0,0.0,30.0,13.0,0.0
5488,64.0,0.0,30.0,13.0,0.0
5489,67.0,0.0,30.0,13.0,0.0
5490,81.0,0.0,210.0,11.0,0.0
5491,69.0,0.0,210.0,12.0,0.0
5492,69.0,4.0,360.0,4.0,0.0
5493,41.0,30.0,30.0,15.0,0.0
5494,53.0,0.0,30.0,14.0,0.0
5495,81.0,0.0,360.0,1.0,0.0
5496,69.0,0.0,360.0,1.0,0.0
5497,69.0,0.0,30.0,13.0,0.0
5498,57.0,0.0,30.0,13.0,0.0
5499,57.0,0.0,30.0,13.0,0.0
5500,53.0,30.0,30.0,14.0,0.0
5501,41.0,0.0,30.0,15.0,0.0
5502,69.0,0.0,30.0,13.0,0.0
5503,57.0,0.0,30.0,13.0,0.0
5504,53.0,0.0,30.0,14.0,0.0
5505,41.0,0.0,30.0,15.0,0.0
5506,69.0,4.0,30.0,13.0,0.0
5507,62.0,0.0,30.0,3.0,0.0
5508,86.0,26.0,30.0,0.0,0.0
5509,57.0,0.0,30.0,13.0,0.0
5510,53.0,0.0,30.0,14.0,0.0
5511,74.0,0.0,30.0,2.0,0.0
5512,41.0,4.0,30.0,15.0,0.0
5513,69.0,0.0,30.0,13.0,0.0
5514,41.0,0.0,30.0,15.0,0.0
5515,53.0,30.0,30.0,14.0,0.0
5516,60.0,26.0,90.0,3.0,0.0
5517,69.0,0.0,30.0,13.0,0.0
5518,57.0,0.0,30.0,13.0,0.0
5519,84.0,0.0,90.0,0.0,0.0
5520,72.0,0.0,90.0,2.0,0.0
5521,41.0,0.0,30.0,15.0,0.0
5522,57.0,0.0,30.0,13.0,0.0
5523,69.0,30.0,30.0,13.0,0.0
5524,53.0,0.0,30.0,14.0,0.0
5525,57.0,0.0,30.0,13.0,0.0
5526,41.0,0.0,30.0,15.0,0.0
5527,53.0,0.0,30.0,14.0,0.0
5528,69.0,4.0,30.0,13.0,0.0
5529,85.0,26.0,30.0,11.0,0.0
5530,88.0,0.0,30.0,0.0,0.0
5531,41.0,0.0,30.0,15.0,0.0
5532,76.0,0.0,30.0,2.0,0.0
5533,53.0,4.0,30.0,14.0,0.0
5534,69.0,0.0,30.0,13.0,0.0
5535,57.0,0.0,30.0,13.0,0.0
5536,73.0,0.0,30.0,12.0,0.0
5537,64.0,0.0,30.0,3.0,0.0
5538,69.0,0.0,30.0,13.0,0.0
5539,74.0,0.0,90.0,12.0,0.0
5540,86.0,22.0,90.0,11.0,0.0
5541,53.0,0.0,30.0,14.0,0.0
5542,69.0,0.0,240.0,2.0,0.0
5543,57.0,0.0,30.0,13.0,0.0
5544,81.0,0.0,240.0,0.0,0.0
5545,57.0,0.0,240.0,3.0,0.0
5546,41.0,30.0,30.0,15.0,0.0
5547,57.0,30.0,30.0,13.0,0.0
5548,69.0,0.0,30.0,13.0,0.0
5549,53.0,0.0,30.0,14.0,0.0
5550,41.0,0.0,30.0,15.0,0.0
5551,69.0,0.0,30.0,13.0,0.0
5552,41.0,4.0,30.0,15.0,0.0
5553,53.0,0.0,30.0,14.0,0.0
5554,57.0,0.0,30.0,13.0,0.0
5555,53.0,0.0,30.0,14.0,0.0
5556,69.0,30.0,30.0,13.0,0.0
5557,76.0,0.0,30.0,12.0,0.0
5558,57.0,0.0,30.0,13.0,0.0
5559,41.0,0.0,30.0,15.0,0.0
5560,88.0,0.0,30.0,11.0,0.0
5561,71.0,0.0,360.0,4.0,0.0
5562,62.0,0.0,30.0,13.0,0.0
5563,81.0,0.0,360.0,1.0,0.0
5564,69.0,4.0,360.0,4.0,0.0
5565,83.0,0.0,360.0,1.0,0.0
5566,65.0,30.0,30.0,13.0,0.0
5567,50.0,0.0,30.0,14.0,0.0
5568,89.0,0.0,90.0,11.0,0.0
5569,47.0,0.0,120.0,6.0,0.0
5570,59.0,4.0,120.0,5.0,0.0
5571,71.0,0.0,120.0,5.0,0.0
5572,77.0,22.0,90.0,12.0,0.0
5573,38.0,0.0,30.0,15.0,0.0
5574,38.0,30.0,30.0,15.0,0.0
5575,50.0,0.0,30.0,14.0,0.0
5576,65.0,0.0,30.0,13.0,0.0
5577,62.0,0.0,30.0,13.0,0.0
5578,50.0,0.0,30.0,14.0,0.0
5579,38.0,0.0,30.0,15.0,0.0
5580,65.0,0.0,30.0,13.0,0.0
5581,62.0,4.0,30.0,13.0,0.0
5582,88.0,26.0,30.0,11.0,0.0
5583,38.0,4.0,30.0,15.0,0.0
5584,62.0,0.0,30.0,13.0,0.0
5585,50.0,0.0,30.0,14.0,0.0
5586,65.0,0.0,30.0,13.0,0.0
5587,76.0,0.0,30.0,12.0,0.0
5588,74.0,0.0,90.0,12.0,0.0
5589,77.0,0.0,90.0,2.0,0.0
5590,89.0,0.0,90.0,0.0,0.0
5591,47.0,0.0,30.0,14.0,0.0
5592,65.0,30.0,30.0,13.0,0.0
5593,53.0,0.0,30.0,13.0,0.0
5594,65.0,22.0,90.0,3.0,0.0
5595,35.0,0.0,30.0,15.0,0.0
5596,47.0,0.0,120.0,6.0,0.0
5597,86.0,0.0,90.0,11.0,0.0
5598,59.0,4.0,120.0,5.0,0.0
5599,71.0,0.0,120.0,5.0,0.0
5600,47.0,30.0,30.0,14.0,0.0
5601,65.0,0.0,30.0,13.0,0.0
5602,35.0,0.0,30.0,15.0,0.0
5603,53.0,0.0,30.0,13.0,0.0
5604,47.0,0.0,30.0,14.0,0.0
5605,65.0,0.0,30.0,13.0,0.0
5606,53.0,4.0,30.0,13.0,0.0
5607,35.0,0.0,30.0,15.0,0.0
5608,53.0,4.0,30.0,13.0,0.0
5609,65.0,0.0,30.0,13.0,0.0
5610,35.0,0.0,30.0,15.0,0.0
5611,89.0,0.0,30.0,11.0,0.0
5612,77.0,0.0,30.0,12.0,0.0
5613,76.0,26.0,30.0,2.0,0.0
5614,64.0,0.0,30.0,3.0,0.0
5615,47.0,0.0,30.0,14.0,0.0
5616,88.0,0.0,30.0,0.0,0.0
5617,86.0,0.0,90.0,0.0,0.0
5618,38.0,0.0,30.0,15.0,0.0
5619,71.0,0.0,120.0,5.0,0.0
5620,71.0,22.0,90.0,12.0,0.0
5621,65.0,0.0,30.0,13.0,0.0
5622,62.0,0.0,90.0,3.0,0.0
5623,74.0,0.0,90.0,2.0,0.0
5624,50.0,30.0,30.0,14.0,0.0
5625,53.0,0.0,30.0,13.0,0.0
5626,59.0,0.0,120.0,5.0,0.0
5627,47.0,26.0,120.0,6.0,0.0
5628,83.0,0.0,90.0,11.0,0.0
5629,53.0,0.0,30.0,13.0,0.0
5630,50.0,30.0,30.0,14.0,0.0
5631,38.0,0.0,30.0,15.0,0.0
5632,65.0,0.0,30.0,13.0,0.0
5633,53.0,0.0,30.0,13.0,0.0
5634,50.0,0.0,30.0,14.0,0.0
5635,38.0,0.0,30.0,15.0,0.0
5636,65.0,4.0,30.0,13.0,0.0
5637,53.0,0.0,30.0,13.0,0.0
5638,65.0,0.0,30.0,13.0,0.0
5639,65.0,0.0,30.0,3.0,0.0
5640,74.0,4.0,30.0,12.0,0.0
5641,50.0,0.0,30.0,14.0,0.0
5642,77.0,0.0,30.0,2.0,0.0
5643,38.0,0.0,30.0,15.0,0.0
5644,86.0,0.0,30.0,11.0,0.0
5645,89.0,0.0,30.0,0.0,0.0
5646,52.0,0.0,120.0,6.0,0.0
5647,83.0,0.0,360.0,1.0,0.0
5648,80.0,4.0,240.0,1.0,0.0
5649,59.0,0.0,90.0,3.0,0.0
5650,64.0,0.0,30.0,13.0,0.0
5651,40.0,30.0,30.0,15.0,0.0
5652,68.0,0.0,90.0,12.0,0.0
5653,83.0,22.0,90.0,0.0,0.0
5654,71.0,0.0,90.0,2.0,0.0
5655,64.0,4.0,120.0,5.0,0.0
5656,76.0,0.0,120.0,5.0,0.0
5657,64.0,0.0,360.0,4.0,0.0
5658,71.0,4.0,360.0,4.0,0.0
5659,52.0,0.0,30.0,14.0,0.0
5660,52.0,0.0,30.0,13.0,0.0
5661,80.0,0.0,90.0,11.0,0.0
5662,56.0,30.0,30.0,13.0,0.0
5663,52.0,0.0,30.0,14.0,0.0
5664,59.0,0.0,30.0,13.0,0.0
5665,40.0,0.0,30.0,15.0,0.0
5666,40.0,0.0,30.0,15.0,0.0
5667,59.0,0.0,30.0,13.0,0.0
5668,56.0,4.0,30.0,13.0,0.0
5669,52.0,0.0,30.0,14.0,0.0
5670,74.0,0.0,30.0,2.0,0.0
5671,52.0,0.0,30.0,14.0,0.0
5672,62.0,26.0,30.0,3.0,0.0
5673,56.0,0.0,30.0,13.0,0.0
5674,71.0,0.0,30.0,12.0,0.0
5675,59.0,0.0,30.0,13.0,0.0
5676,83.0,4.0,30.0,11.0,0.0
5677,86.0,0.0,30.0,0.0,0.0
5678,40.0,0.0,30.0,15.0,0.0
5679,76.0,0.0,210.0,12.0,0.0
5680,76.0,0.0,120.0,5.0,0.0
5681,64.0,0.0,120.0,5.0,0.0
5682,56.0,0.0,30.0,13.0,0.0
5683,59.0,0.0,30.0,13.0,0.0
5684,88.0,0.0,210.0,11.0,0.0
5685,40.0,0.0,30.0,15.0,0.0
5686,80.0,0.0,90.0,0.0,0.0
5687,56.0,22.0,90.0,3.0,0.0
5688,68.0,0.0,90.0,2.0,0.0
5689,52.0,26.0,120.0,6.0,0.0
5690,52.0,30.0,30.0,14.0,0.0
5691,56.0,30.0,30.0,13.0,0.0
5692,52.0,0.0,30.0,14.0,0.0
5693,59.0,0.0,30.0,13.0,0.0
5694,40.0,0.0,30.0,15.0,0.0
5695,59.0,4.0,30.0,13.0,0.0
5696,40.0,0.0,30.0,15.0,0.0
5697,52.0,0.0,30.0,14.0,0.0
5698,56.0,0.0,30.0,13.0,0.0
5699,59.0,0.0,30.0,13.0,0.0
5700,56.0,4.0,30.0,13.0,0.0
5701,83.0,0.0,30.0,0.0,0.0
5702,59.0,0.0,30.0,3.0,0.0
5703,40.0,0.0,30.0,15.0,0.0
5704,52.0,0.0,30.0,14.0,0.0
5705,71.0,0.0,30.0,2.0,0.0
5706,40.0,0.0,30.0,15.0,0.0
5707,59.0,0.0,30.0,13.0,0.0
5708,76.0,0.0,240.0,2.0,0.0
5709,64.0,0.0,120.0,5.0,0.0
5710,76.0,26.0,120.0,5.0,0.0
5711,88.0,0.0,240.0,0.0,0.0
5712,52.0,0.0,120.0,6.0,0.0
5713,52.0,30.0,30.0,14.0,0.0
5714,64.0,4.0,240.0,3.0,0.0
5715,76.0,0.0,240.0,1.0,0.0
5716,56.0,0.0,30.0,13.0,0.0
5717,52.0,30.0,30.0,14.0,0.0
5718,64.0,0.0,30.0,13.0,0.0
5719,59.0,0.0,30.0,13.0,0.0
5720,40.0,0.0,30.0,15.0,0.0
5721,59.0,26.0,30.0,13.0,0.0
5722,64.0,0.0,30.0,13.0,0.0
5723,52.0,0.0,30.0,14.0,0.0
5724,40.0,0.0,30.0,15.0,0.0
5725,74.0,0.0,30.0,12.0,0.0
5726,40.0,0.0,30.0,15.0,0.0
5727,86.0,0.0,30.0,11.0,0.0
5728,64.0,4.0,30.0,13.0,0.0
5729,52.0,0.0,30.0,14.0,0.0
5730,59.0,0.0,30.0,13.0,0.0
5731,69.0,0.0,360.0,4.0,0.0
5732,85.0,22.0,90.0,11.0,0.0
5733,64.0,0.0,30.0,13.0,0.0
5734,43.0,0.0,30.0,15.0,0.0
5735,61.0,0.0,30.0,13.0,0.0
5736,73.0,0.0,90.0,12.0,0.0
5737,81.0,0.0,360.0,1.0,0.0
5738,55.0,30.0,30.0,14.0,0.0
5739,55.0,30.0,30.0,14.0,0.0
5740,61.0,0.0,30.0,13.0,0.0
5741,43.0,0.0,30.0,15.0,0.0
5742,57.0,0.0,30.0,13.0,0.0
5743,55.0,4.0,30.0,14.0,0.0
5744,43.0,0.0,30.0,15.0,0.0
5745,57.0,0.0,30.0,13.0,0.0
5746,61.0,0.0,30.0,13.0,0.0
5747,81.0,0.0,30.0,11.0,0.0
5748,61.0,0.0,30.0,13.0,0.0
5749,69.0,0.0,30.0,12.0,0.0
5750,57.0,0.0,30.0,13.0,0.0
5751,43.0,30.0,30.0,15.0,0.0
5752,55.0,0.0,30.0,14.0,0.0
5753,69.0,0.0,30.0,13.0,0.0
5754,53.0,0.0,30.0,14.0,0.0
5755,77.0,0.0,90.0,2.0,0.0
5756,89.0,0.0,90.0,0.0,0.0
5757,86.0,0.0,180.0,11.0,0.0
5758,74.0,26.0,180.0,12.0,0.0
5759,41.0,30.0,30.0,15.0,0.0
5760,81.0,4.0,120.0,5.0,0.0
5761,77.0,0.0,240.0,1.0,0.0
5762,57.0,0.0,30.0,13.0,0.0
5763,65.0,22.0,90.0,3.0,0.0
5764,69.0,0.0,30.0,13.0,0.0
5765,41.0,0.0,30.0,15.0,0.0
5766,53.0,0.0,30.0,14.0,0.0
5767,57.0,30.0,30.0,13.0,0.0
5768,41.0,0.0,30.0,15.0,0.0
5769,69.0,0.0,30.0,13.0,0.0
5770,57.0,4.0,30.0,13.0,0.0
5771,53.0,0.0,30.0,14.0,0.0
5772,69.0,0.0,30.0,13.0,0.0
5773,57.0,0.0,30.0,13.0,0.0
5774,53.0,0.0,30.0,14.0,0.0
5775,86.0,30.0,30.0,0.0,0.0
5776,41.0,0.0,30.0,15.0,0.0
5777,62.0,0.0,30.0,3.0,0.0
5778,74.0,0.0,30.0,2.0,0.0
5779,81.0,0.0,120.0,2.0,0.0
5780,38.0,0.0,30.0,15.0,0.0
5781,53.0,30.0,30.0,13.0,0.0
5782,81.0,0.0,120.0,5.0,0.0
5783,93.0,0.0,120.0,0.0,0.0
5784,65.0,0.0,30.0,13.0,0.0
5785,50.0,0.0,30.0,14.0,0.0
5786,69.0,4.0,120.0,3.0,0.0
5787,65.0,0.0,30.0,13.0,0.0
5788,53.0,4.0,30.0,13.0,0.0
5789,38.0,0.0,30.0,15.0,0.0
5790,50.0,0.0,30.0,14.0,0.0
5791,38.0,0.0,30.0,15.0,0.0
5792,77.0,0.0,60.0,12.0,0.0
5793,50.0,0.0,30.0,14.0,0.0
5794,53.0,26.0,30.0,13.0,0.0
5795,65.0,0.0,30.0,13.0,0.0
5796,89.0,0.0,60.0,11.0,0.0
5797,53.0,30.0,30.0,13.0,0.0
5798,65.0,0.0,30.0,13.0,0.0
5799,50.0,0.0,30.0,14.0,0.0
5800,38.0,0.0,30.0,15.0,0.0
5801,55.0,30.0,30.0,13.0,0.0
5802,53.0,0.0,30.0,14.0,0.0
5803,79.0,0.0,360.0,1.0,0.0
5804,83.0,0.0,90.0,11.0,0.0
5805,67.0,0.0,30.0,13.0,0.0
5806,74.0,4.0,120.0,1.0,0.0
5807,62.0,0.0,120.0,3.0,0.0
5808,59.0,0.0,120.0,5.0,0.0
5809,71.0,0.0,120.0,5.0,0.0
5810,86.0,0.0,120.0,0.0,0.0
5811,71.0,22.0,90.0,12.0,0.0
5812,71.0,0.0,120.0,4.0,0.0
5813,47.0,26.0,120.0,6.0,0.0
5814,41.0,0.0,30.0,15.0,0.0
5815,74.0,0.0,120.0,2.0,0.0
5816,53.0,0.0,30.0,14.0,0.0
5817,41.0,30.0,30.0,15.0,0.0
5818,55.0,0.0,30.0,13.0,0.0
5819,67.0,0.0,30.0,13.0,0.0
5820,41.0,4.0,30.0,15.0,0.0
5821,53.0,0.0,30.0,14.0,0.0
5822,55.0,0.0,30.0,13.0,0.0
5823,67.0,0.0,30.0,13.0,0.0
5824,67.0,0.0,30.0,13.0,0.0
5825,53.0,4.0,30.0,14.0,0.0
5826,67.0,0.0,30.0,12.0,0.0
5827,41.0,0.0,30.0,15.0,0.0
5828,55.0,0.0,30.0,13.0,0.0
5829,79.0,0.0,30.0,11.0,0.0
5830,76.0,0.0,240.0,4.0,0.0
5831,84.0,4.0,120.0,11.0,0.0
5832,88.0,0.0,90.0,0.0,0.0
5833,40.0,0.0,30.0,15.0,0.0
5834,76.0,22.0,90.0,2.0,0.0
5835,72.0,0.0,120.0,12.0,0.0
5836,64.0,0.0,240.0,4.0,0.0
5837,67.0,30.0,30.0,13.0,0.0
5838,64.0,0.0,90.0,3.0,0.0
5839,64.0,0.0,120.0,5.0,0.0
5840,76.0,0.0,120.0,5.0,0.0
5841,52.0,26.0,120.0,6.0,0.0
5842,52.0,0.0,30.0,14.0,0.0
5843,76.0,0.0,240.0,1.0,0.0
5844,55.0,0.0,30.0,13.0,0.0
5845,40.0,0.0,30.0,15.0,0.0
5846,67.0,0.0,30.0,13.0,0.0
5847,52.0,30.0,30.0,14.0,0.0
5848,55.0,0.0,30.0,13.0,0.0
5849,55.0,0.0,30.0,13.0,0.0
5850,67.0,0.0,30.0,13.0,0.0
5851,52.0,4.0,30.0,14.0,0.0
5852,40.0,0.0,30.0,15.0,0.0
5853,40.0,0.0,30.0,15.0,0.0
5854,67.0,0.0,30.0,13.0,0.0
5855,55.0,0.0,30.0,13.0,0.0
5856,84.0,4.0,30.0,0.0,0.0
5857,60.0,0.0,30.0,3.0,0.0
5858,52.0,0.0,30.0,14.0,0.0
5859,72.0,0.0,30.0,2.0,0.0
5860,84.0,22.0,90.0,11.0,0.0
5861,52.0,26.0,120.0,6.0,0.0
5862,91.0,0.0,120.0,0.0,0.0
5863,76.0,0.0,120.0,5.0,0.0
5864,67.0,0.0,120.0,3.0,0.0
5865,36.0,0.0,30.0,15.0,0.0
5866,64.0,4.0,120.0,5.0,0.0
5867,48.0,0.0,30.0,14.0,0.0
5868,79.0,0.0,120.0,2.0,0.0
5869,52.0,0.0,30.0,13.0,0.0
5870,64.0,30.0,30.0,13.0,0.0
5871,72.0,0.0,90.0,12.0,0.0
5872,52.0,0.0,30.0,13.0,0.0
5873,64.0,0.0,30.0,13.0,0.0
5874,36.0,30.0,30.0,15.0,0.0
5875,48.0,0.0,30.0,14.0,0.0
5876,36.0,0.0,30.0,15.0,0.0
5877,48.0,0.0,30.0,14.0,0.0
5878,52.0,4.0,30.0,13.0,0.0
5879,64.0,0.0,30.0,13.0,0.0
5880,64.0,4.0,30.0,13.0,0.0
5881,52.0,0.0,30.0,13.0,0.0
5882,36.0,0.0,30.0,15.0,0.0
5883,88.0,0.0,30.0,11.0,0.0
5884,48.0,0.0,30.0,14.0,0.0
5885,76.0,0.0,30.0,12.0,0.0
5886,55.0,0.0,30.0,13.0,0.0
5887,62.0,0.0,30.0,13.0,0.0
5888,59.0,0.0,30.0,13.0,0.0
5889,62.0,0.0,120.0,3.0,0.0
5890,59.0,0.0,120.0,3.0,0.0
5891,67.0,0.0,30.0,13.0,0.0
5892,91.0,0.0,60.0,11.0,0.0
5893,86.0,26.0,120.0,0.0,0.0
5894,31.0,30.0,30.0,15.0,0.0
5895,86.0,0.0,120.0,1.0,0.0
5896,79.0,0.0,120.0,1.0,0.0
5897,47.0,0.0,120.0,6.0,0.0
5898,71.0,4.0,360.0,4.0,0.0
5899,71.0,0.0,120.0,5.0,0.0
5900,59.0,0.0,120.0,5.0,0.0
5901,43.0,0.0,30.0,14.0,0.0
5902,91.0,0.0,120.0,0.0,0.0
5903,79.0,0.0,120.0,2.0,0.0
5904,74.0,0.0,120.0,2.0,0.0
5905,79.0,26.0,60.0,12.0,0.0
5906,67.0,0.0,30.0,13.0,0.0
5907,42.0,0.0,30.0,14.0,0.0
5908,30.0,4.0,30.0,15.0,0.0
5909,55.0,0.0,30.0,13.0,0.0
5910,59.0,0.0,30.0,13.0,0.0
5911,62.0,0.0,30.0,13.0,0.0
5912,91.0,0.0,300.0,11.0,0.0
5913,31.0,0.0,30.0,15.0,0.0
5914,55.0,30.0,30.0,13.0,0.0
5915,43.0,0.0,30.0,14.0,0.0
5916,59.0,0.0,30.0,13.0,0.0
5917,67.0,0.0,30.0,13.0,0.0
5918,79.0,0.0,300.0,12.0,0.0
5919,62.0,0.0,30.0,13.0,0.0
5920,55.0,0.0,30.0,13.0,0.0
5921,59.0,0.0,30.0,13.0,0.0
5922,67.0,0.0,30.0,13.0,0.0
5923,62.0,4.0,30.0,13.0,0.0
5924,33.0,0.0,30.0,15.0,0.0
5925,45.0,0.0,30.0,14.0,0.0
5926,35.0,30.0,30.0,15.0,0.0
5927,62.0,0.0,30.0,13.0,0.0
5928,55.0,0.0,30.0,13.0,0.0
5929,47.0,0.0,30.0,14.0,0.0
5930,59.0,0.0,30.0,13.0,0.0
5931,67.0,0.0,30.0,13.0,0.0
5932,59.0,0.0,30.0,13.0,0.0
5933,67.0,30.0,30.0,13.0,0.0
5934,62.0,0.0,30.0,13.0,0.0
5935,55.0,0.0,30.0,13.0,0.0
5936,36.0,0.0,30.0,15.0,0.0
5937,48.0,0.0,30.0,14.0,0.0
5938,50.0,0.0,30.0,14.0,0.0
5939,38.0,30.0,30.0,15.0,0.0
5940,62.0,0.0,30.0,13.0,0.0
5941,55.0,0.0,30.0,13.0,0.0
5942,67.0,0.0,30.0,13.0,0.0
5943,59.0,0.0,30.0,13.0,0.0
5944,59.0,0.0,30.0,13.0,0.0
5945,52.0,0.0,30.0,14.0,0.0
5946,67.0,0.0,30.0,13.0,0.0
5947,55.0,0.0,30.0,13.0,0.0
5948,40.0,30.0,30.0,15.0,0.0
5949,62.0,0.0,30.0,13.0,0.0
5950,41.0,0.0,30.0,15.0,0.0
5951,53.0,0.0,30.0,14.0,0.0
5952,62.0,0.0,30.0,13.0,0.0
5953,55.0,0.0,30.0,13.0,0.0
5954,59.0,0.0,30.0,13.0,0.0
5955,67.0,30.0,30.0,13.0,0.0
5956,55.0,30.0,30.0,14.0,0.0
5957,59.0,0.0,30.0,13.0,0.0
5958,55.0,0.0,30.0,13.0,0.0
5959,67.0,0.0,30.0,13.0,0.0
5960,43.0,0.0,30.0,15.0,0.0
5961,62.0,0.0,30.0,13.0,0.0
5962,57.0,0.0,30.0,14.0,0.0
5963,45.0,0.0,30.0,15.0,0.0
5964,67.0,0.0,30.0,13.0,0.0
5965,55.0,26.0,30.0,13.0,0.0
5966,62.0,0.0,30.0,13.0,0.0
5967,59.0,0.0,30.0,13.0,0.0
5968,59.0,0.0,30.0,14.0,0.0
5969,55.0,30.0,30.0,13.0,0.0
5970,59.0,0.0,30.0,13.0,0.0
5971,67.0,0.0,30.0,13.0,0.0
5972,47.0,0.0,30.0,15.0,0.0
5973,62.0,0.0,30.0,13.0,0.0
5974,60.0,0.0,120.0,3.0,0.0
5975,76.0,0.0,120.0,5.0,0.0
5976,64.0,0.0,120.0,5.0,0.0
5977,48.0,0.0,120.0,15.0,0.0
5978,76.0,0.0,120.0,2.0,0.0
5979,79.0,0.0,120.0,2.0,0.0
5980,52.0,0.0,120.0,6.0,0.0
5981,76.0,30.0,30.0,12.0,0.0
5982,88.0,0.0,30.0,11.0,0.0
5983,64.0,0.0,120.0,3.0,0.0
5984,64.0,4.0,360.0,4.0,0.0
5985,76.0,0.0,360.0,4.0,0.0
5986,60.0,0.0,120.0,14.0,0.0
5987,64.0,0.0,30.0,13.0,0.0
5988,88.0,0.0,120.0,1.0,0.0
5989,79.0,26.0,120.0,1.0,0.0
5990,84.0,0.0,120.0,0.0,0.0
5991,88.0,0.0,120.0,0.0,0.0
5992,60.0,0.0,30.0,13.0,0.0
5993,67.0,0.0,30.0,13.0,0.0
5994,60.0,0.0,30.0,13.0,0.0
5995,67.0,0.0,30.0,12.0,0.0
5996,60.0,0.0,30.0,11.0,0.0
5997,55.0,30.0,30.0,13.0,0.0
5998,64.0,0.0,30.0,12.0,0.0
5999,62.0,0.0,30.0,11.0,0.0
6000,64.0,0.0,30.0,12.0,0.0
6001,67.0,0.0,30.0,12.0,0.0
6002,60.0,30.0,30.0,13.0,0.0
6003,55.0,0.0,30.0,13.0,0.0
6004,60.0,0.0,30.0,13.0,0.0
6005,64.0,4.0,30.0,11.0,0.0
6006,55.0,0.0,30.0,13.0,0.0
6007,64.0,0.0,30.0,12.0,0.0
6008,67.0,0.0,30.0,12.0,0.0
6009,55.0,0.0,30.0,13.0,0.0
6010,60.0,30.0,30.0,13.0,0.0
6011,65.0,0.0,30.0,11.0,0.0
6012,64.0,0.0,30.0,12.0,0.0
6013,67.0,0.0,30.0,12.0,0.0
6014,60.0,0.0,30.0,13.0,0.0
6015,55.0,30.0,30.0,13.0,0.0
6016,67.0,0.0,30.0,12.0,0.0
6017,64.0,0.0,30.0,12.0,0.0
6018,67.0,0.0,30.0,11.0,0.0
6019,69.0,0.0,30.0,11.0,0.0
6020,60.0,30.0,30.0,13.0,0.0
6021,67.0,0.0,30.0,12.0,0.0
6022,55.0,0.0,30.0,13.0,0.0
6023,64.0,0.0,30.0,12.0,0.0
6024,71.0,30.0,30.0,11.0,0.0
6025,67.0,0.0,30.0,12.0,0.0
6026,64.0,0.0,30.0,12.0,0.0
6027,60.0,0.0,30.0,13.0,0.0
6028,55.0,0.0,30.0,13.0,0.0
6029,67.0,0.0,30.0,12.0,0.0
6030,72.0,0.0,30.0,11.0,0.0
6031,60.0,0.0,90.0,14.0,0.0
6032,55.0,0.0,30.0,13.0,0.0
6033,48.0,0.0,90.0,15.0,0.0
6034,60.0,0.0,30.0,13.0,0.0
6035,64.0,30.0,30.0,12.0,0.0
6036,60.0,0.0,30.0,13.0,0.0
6037,64.0,30.0,30.0,12.0,0.0
6038,67.0,0.0,30.0,12.0,0.0
6039,74.0,0.0,30.0,11.0,0.0
6040,55.0,0.0,30.0,13.0,0.0
6041,60.0,0.0,30.0,13.0,0.0
6042,55.0,0.0,30.0,13.0,0.0
6043,76.0,0.0,30.0,11.0,0.0
6044,64.0,26.0,30.0,12.0,0.0
6045,67.0,0.0,30.0,12.0,0.0
6046,64.0,0.0,30.0,14.0,0.0
6047,52.0,30.0,30.0,15.0,0.0
6048,67.0,0.0,30.0,12.0,0.0
6049,55.0,0.0,30.0,13.0,0.0
6050,60.0,0.0,30.0,13.0,0.0
6051,77.0,0.0,30.0,11.0,0.0
6052,64.0,0.0,30.0,12.0,0.0
6053,55.0,0.0,30.0,13.0,0.0
6054,59.0,0.0,30.0,13.0,0.0
6055,62.0,0.0,30.0,12.0,0.0
6056,67.0,30.0,30.0,12.0,0.0
6057,86.0,26.0,120.0,1.0,0.0
6058,79.0,0.0,120.0,1.0,0.0
6059,83.0,0.0,120.0,0.0,0.0
6060,86.0,0.0,60.0,0.0,0.0
6061,67.0,0.0,120.0,11.0,0.0
6062,79.0,0.0,120.0,11.0,0.0
6063,71.0,4.0,360.0,4.0,0.0
6064,55.0,0.0,60.0,15.0,0.0
6065,55.0,0.0,30.0,3.0,0.0
6066,67.0,26.0,60.0,14.0,0.0
6067,67.0,0.0,30.0,2.0,0.0
6068,66.0,4.0,30.0,2.0,0.0
6069,59.0,0.0,30.0,13.0,0.0
6070,55.0,0.0,30.0,13.0,0.0
6071,67.0,0.0,30.0,12.0,0.0
6072,62.0,0.0,30.0,12.0,0.0
6073,54.0,0.0,30.0,3.0,0.0
6074,55.0,0.0,300.0,15.0,0.0
6075,55.0,0.0,30.0,13.0,0.0
6076,67.0,0.0,30.0,12.0,0.0
6077,67.0,30.0,30.0,2.0,0.0
6078,55.0,0.0,30.0,3.0,0.0
6079,59.0,0.0,30.0,13.0,0.0
6080,67.0,0.0,300.0,14.0,0.0
6081,62.0,0.0,30.0,12.0,0.0
6082,67.0,0.0,30.0,12.0,0.0
6083,62.0,0.0,30.0,12.0,0.0
6084,59.0,0.0,30.0,13.0,0.0
6085,57.0,0.0,30.0,3.0,0.0
6086,55.0,0.0,30.0,13.0,0.0
6087,69.0,4.0,30.0,2.0,0.0
6088,55.0,0.0,30.0,13.0,0.0
6089,67.0,0.0,30.0,12.0,0.0
6090,62.0,0.0,30.0,12.0,0.0
6091,71.0,30.0,30.0,2.0,0.0
6092,59.0,0.0,30.0,13.0,0.0
6093,59.0,0.0,30.0,3.0,0.0
6094,67.0,0.0,30.0,12.0,0.0
6095,72.0,0.0,30.0,2.0,0.0
6096,59.0,0.0,30.0,13.0,0.0
6097,60.0,0.0,30.0,3.0,0.0
6098,62.0,0.0,30.0,12.0,0.0
6099,55.0,30.0,30.0,13.0,0.0
6100,62.0,0.0,30.0,3.0,0.0
6101,67.0,0.0,30.0,12.0,0.0
6102,59.0,0.0,30.0,13.0,0.0
6103,74.0,0.0,30.0,2.0,0.0
6104,74.0,0.0,30.0,0.0,0.0
6105,62.0,30.0,30.0,2.0,0.0
6106,62.0,0.0,30.0,12.0,0.0
6107,55.0,0.0,30.0,13.0,0.0
6108,64.0,30.0,30.0,3.0,0.0
6109,67.0,0.0,30.0,12.0,0.0
6110,62.0,0.0,30.0,12.0,0.0
6111,76.0,0.0,30.0,0.0,0.0
6112,76.0,0.0,30.0,2.0,0.0
6113,64.0,0.0,30.0,2.0,0.0
6114,59.0,0.0,30.0,13.0,0.0
6115,55.0,0.0,30.0,13.0,0.0
6116,65.0,0.0,30.0,2.0,0.0
6117,62.0,30.0,30.0,12.0,0.0
6118,77.0,0.0,30.0,2.0,0.0
6119,67.0,0.0,30.0,12.0,0.0
6120,77.0,0.0,30.0,0.0,0.0
6121,65.0,0.0,30.0,3.0,0.0
6122,55.0,0.0,30.0,13.0,0.0
6123,59.0,0.0,30.0,13.0,0.0
6124,62.0,0.0,30.0,12.0,0.0
6125,67.0,30.0,30.0,12.0,0.0
6126,55.0,0.0,30.0,3.0,0.0
6127,79.0,0.0,30.0,2.0,0.0
6128,67.0,0.0,30.0,2.0,0.0
6129,59.0,0.0,30.0,13.0,0.0
6130,79.0,0.0,30.0,0.0,0.0
6131,55.0,0.0,30.0,13.0,0.0
6132,81.0,0.0,30.0,2.0,0.0
6133,62.0,0.0,30.0,12.0,0.0
6134,81.0,26.0,30.0,0.0,0.0
6135,69.0,0.0,30.0,2.0,0.0
6136,67.0,0.0,30.0,12.0,0.0
6137,59.0,0.0,30.0,13.0,0.0
6138,55.0,0.0,30.0,13.0,0.0
6139,57.0,0.0,30.0,3.0,0.0
6140,59.0,0.0,30.0,3.0,0.0
6141,71.0,0.0,30.0,2.0,0.0
6142,83.0,0.0,30.0,2.0,0.0
6143,55.0,0.0,30.0,13.0,0.0
6144,59.0,30.0,30.0,13.0,0.0
6145,67.0,0.0,30.0,12.0,0.0
6146,62.0,0.0,30.0,12.0,0.0
6147,83.0,0.0,30.0,0.0,0.0
6148,52.0,0.0,120.0,6.0,0.0
6149,48.0,0.0,120.0,3.0,0.0
6150,60.0,0.0,120.0,3.0,0.0
6151,60.0,0.0,30.0,11.0,0.0
6152,84.0,0.0,120.0,2.0,0.0
6153,52.0,0.0,30.0,15.0,0.0
6154,64.0,0.0,120.0,5.0,0.0
6155,76.0,0.0,120.0,5.0,0.0
6156,67.0,0.0,30.0,11.0,0.0
6157,76.0,0.0,30.0,11.0,0.0
6158,64.0,0.0,30.0,12.0,0.0
6159,67.0,0.0,30.0,12.0,0.0
6160,64.0,120.0,360.0,4.0,0.0
6161,60.0,30.0,30.0,13.0,0.0
6162,72.0,0.0,120.0,2.0,0.0
6163,84.0,26.0,120.0,0.0,0.0
6164,64.0,0.0,30.0,14.0,0.0
6165,88.0,0.0,120.0,1.0,0.0
6166,79.0,0.0,120.0,1.0,0.0
6167,72.0,0.0,30.0,11.0,0.0
6168,60.0,0.0,30.0,12.0,0.0
6169,60.0,0.0,30.0,13.0,0.0
6170,48.0,0.0,30.0,14.0,0.0
6171,36.0,30.0,30.0,15.0,0.0
6172,74.0,0.0,30.0,11.0,0.0
6173,38.0,0.0,30.0,15.0,0.0
6174,62.0,0.0,30.0,12.0,0.0
6175,62.0,0.0,30.0,13.0,0.0
6176,50.0,30.0,30.0,14.0,0.0
6177,40.0,0.0,30.0,15.0,0.0
6178,52.0,0.0,30.0,14.0,0.0
6179,76.0,4.0,30.0,11.0,0.0
6180,52.0,0.0,30.0,13.0,0.0
6181,64.0,0.0,30.0,12.0,0.0
6182,77.0,0.0,30.0,11.0,0.0
6183,53.0,0.0,30.0,13.0,0.0
6184,41.0,0.0,30.0,15.0,0.0
6185,65.0,30.0,30.0,12.0,0.0
6186,53.0,0.0,30.0,14.0,0.0
6187,55.0,30.0,30.0,13.0,0.0
6188,55.0,0.0,30.0,14.0,0.0
6189,43.0,0.0,30.0,15.0,0.0
6190,79.0,0.0,30.0,11.0,0.0
6191,67.0,0.0,30.0,12.0,0.0
6192,57.0,0.0,30.0,13.0,0.0
6193,45.0,0.0,30.0,15.0,0.0
6194,57.0,0.0,30.0,14.0,0.0
6195,69.0,0.0,30.0,12.0,0.0
6196,81.0,30.0,30.0,11.0,0.0
6197,71.0,0.0,30.0,12.0,0.0
6198,59.0,30.0,30.0,13.0,0.0
6199,83.0,0.0,30.0,11.0,0.0
6200,59.0,0.0,30.0,14.0,0.0
6201,47.0,0.0,30.0,15.0,0.0
6202,60.0,30.0,30.0,14.0,0.0
6203,84.0,0.0,90.0,0.0,0.0
6204,72.0,0.0,90.0,1.0,0.0
6205,60.0,0.0,90.0,2.0,0.0
6206,60.0,0.0,30.0,13.0,0.0
6207,72.0,26.0,90.0,2.0,0.0
6208,48.0,0.0,30.0,15.0,0.0
6209,72.0,0.0,90.0,0.0,0.0
6210,48.0,0.0,90.0,3.0,0.0
6211,60.0,0.0,90.0,3.0,0.0
6212,72.0,0.0,30.0,12.0,0.0
6213,84.0,0.0,30.0,11.0,0.0
6214,86.0,0.0,30.0,11.0,0.0
6215,50.0,30.0,30.0,15.0,0.0
6216,62.0,0.0,30.0,13.0,0.0
6217,62.0,0.0,30.0,14.0,0.0
6218,74.0,0.0,30.0,12.0,0.0
6219,64.0,0.0,30.0,13.0,0.0
6220,88.0,0.0,30.0,11.0,0.0
6221,76.0,0.0,30.0,12.0,0.0
6222,64.0,0.0,30.0,14.0,0.0
6223,52.0,4.0,30.0,15.0,0.0
6224,64.0,0.0,30.0,2.0,0.0
6225,89.0,0.0,30.0,11.0,0.0
6226,76.0,0.0,30.0,2.0,0.0
6227,53.0,0.0,30.0,15.0,0.0
6228,77.0,0.0,30.0,12.0,0.0
6229,65.0,0.0,30.0,13.0,0.0
6230,76.0,0.0,30.0,0.0,0.0
6231,65.0,0.0,30.0,14.0,0.0
6232,88.0,4.0,30.0,0.0,0.0
6233,52.0,0.0,30.0,3.0,0.0
6234,64.0,0.0,30.0,3.0,0.0
6235,76.0,0.0,30.0,1.0,0.0
6236,67.0,8.0,360.0,3.0,0.0
6237,91.0,0.0,360.0,0.0,0.0
6238,67.0,0.0,120.0,13.0,0.0
6239,79.0,60.0,240.0,1.0,0.0
6240,79.0,120.0,120.0,0.0,0.0
6241,79.0,0.0,360.0,2.0,0.0
6242,67.0,0.0,120.0,2.0,0.0
6243,79.0,0.0,120.0,12.0,0.0
6244,55.0,0.0,120.0,15.0,0.0
6245,91.0,0.0,120.0,11.0,0.0
6246,67.0,0.0,120.0,14.0,0.0
6247,81.0,52.0,60.0,1.0,0.0
6248,83.0,120.0,60.0,1.0,0.0
6249,89.0,0.0,120.0,0.0,0.0
6250,69.0,128.0,360.0,3.0,0.0
6251,72.0,0.0,360.0,2.0,0.0
6252,84.0,0.0,360.0,1.0,0.0
6253,77.0,232.0,120.0,2.0,0.0
6254,88.0,0.0,240.0,0.0,0.0
6255,76.0,0.0,240.0,2.0,0.0
6256,64.0,0.0,360.0,3.0,0.0
6257,74.0,232.0,120.0,2.0,0.0
6258,67.0,0.0,360.0,2.0,0.0
6259,86.0,0.0,120.0,0.0,0.0
6260,79.0,120.0,360.0,1.0,0.0
6261,72.0,0.0,240.0,2.0,0.0
6262,84.0,0.0,240.0,0.0,0.0
6263,77.0,120.0,120.0,2.0,0.0
6264,83.0,0.0,240.0,0.0,0.0
6265,74.0,0.0,120.0,2.0,0.0
6266,67.0,0.0,120.0,3.0,0.0
6267,79.0,0.0,120.0,1.0,0.0
6268,79.0,0.0,120.0,1.0,0.0
6269,74.0,0.0,120.0,2.0,0.0
6270,77.0,0.0,120.0,2.0,0.0
6271,67.0,48.0,120.0,3.0,0.0
6272,67.0,4.0,120.0,3.0,0.0
6273,79.0,0.0,120.0,1.0,0.0
6274,74.0,22.0,90.0,2.0,0.0
6275,77.0,0.0,120.0,2.0,0.0
6276,83.0,40.0,30.0,0.0,0.0
6277,84.0,10.0,30.0,0.0,0.0
6278,86.0,124.0,30.0,0.0,0.0
6279,71.0,0.0,30.0,2.0,0.0
6280,67.0,0.0,120.0,3.0,0.0
6281,84.0,0.0,120.0,0.0,0.0
6282,72.0,0.0,120.0,2.0,0.0
6283,76.0,0.0,120.0,2.0,0.0
6284,60.0,0.0,120.0,3.0,0.0
6285,79.0,120.0,120.0,1.0,0.0
6286,72.0,0.0,60.0,11.0,0.0
6287,60.0,60.0,60.0,13.0,0.0
6288,76.0,56.0,60.0,11.0,0.0
6289,64.0,0.0,60.0,13.0,0.0
6290,67.0,64.0,60.0,13.0,0.0
6291,79.0,0.0,60.0,11.0,0.0
6292,45.0,4.0,360.0,15.0,0.0
6293,60.0,0.0,360.0,12.0,0.0
6294,79.0,56.0,60.0,11.0,0.0
6295,67.0,0.0,60.0,13.0,0.0
6296,72.0,0.0,360.0,12.0,0.0
6297,57.0,0.0,360.0,14.0,0.0
6298,77.0,0.0,60.0,11.0,0.0
6299,65.0,180.0,60.0,13.0,0.0
6300,64.0,56.0,180.0,13.0,0.0
6301,76.0,0.0,180.0,11.0,0.0
6302,76.0,0.0,60.0,11.0,0.0
6303,64.0,64.0,60.0,13.0,0.0
6304,64.0,0.0,60.0,13.0,0.0
6305,40.0,0.0,360.0,15.0,0.0
6306,67.0,0.0,360.0,12.0,0.0
6307,76.0,56.0,60.0,11.0,0.0
6308,52.0,4.0,360.0,14.0,0.0
6309,74.0,0.0,60.0,11.0,0.0
6310,62.0,180.0,60.0,13.0,0.0
6311,60.0,0.0,180.0,13.0,0.0
6312,72.0,56.0,180.0,11.0,0.0
6313,60.0,116.0,60.0,13.0,0.0
6314,72.0,0.0,60.0,11.0,0.0
6315,43.0,120.0,120.0,15.0,0.0
6316,65.0,0.0,120.0,12.0,0.0
6317,71.0,0.0,240.0,11.0,0.0
6318,67.0,0.0,120.0,12.0,0.0
6319,55.0,0.0,120.0,14.0,0.0
6320,62.0,0.0,120.0,13.0,0.0
6321,55.0,0.0,120.0,14.0,0.0
6322,43.0,48.0,120.0,15.0,0.0
6323,65.0,0.0,120.0,12.0,0.0
6324,62.0,0.0,120.0,13.0,0.0
6325,67.0,0.0,120.0,12.0,0.0
6326,55.0,0.0,120.0,14.0,0.0
6327,43.0,0.0,120.0,15.0,0.0
6328,71.0,40.0,30.0,11.0,0.0
6329,65.0,0.0,120.0,12.0,0.0
6330,62.0,22.0,90.0,13.0,0.0
6331,67.0,4.0,120.0,12.0,0.0
6332,72.0,10.0,30.0,11.0,0.0
6333,74.0,0.0,30.0,11.0,0.0
6334,59.0,124.0,30.0,13.0,0.0
6335,72.0,0.0,120.0,11.0,0.0
6336,36.0,0.0,120.0,15.0,0.0
6337,60.0,0.0,120.0,13.0,0.0
6338,64.0,160.0,120.0,12.0,0.0
6339,48.0,0.0,120.0,14.0,0.0
6340,67.0,0.0,120.0,12.0,0.0
6341,55.0,0.0,120.0,3.0,0.0
6342,67.0,4.0,120.0,3.0,0.0
6343,43.0,120.0,120.0,15.0,0.0
6344,62.0,22.0,90.0,13.0,0.0
6345,83.0,0.0,30.0,0.0,0.0
6346,71.0,0.0,30.0,11.0,0.0
6347,65.0,0.0,120.0,12.0,0.0
6348,77.0,40.0,30.0,2.0,0.0
6349,55.0,0.0,120.0,14.0,0.0
6350,76.0,10.0,30.0,2.0,0.0
6351,84.0,0.0,30.0,0.0,0.0
6352,72.0,0.0,30.0,11.0,0.0
6353,74.0,0.0,30.0,11.0,0.0
6354,86.0,0.0,30.0,0.0,0.0
6355,77.0,4.0,30.0,2.0,0.0
6356,59.0,0.0,30.0,13.0,0.0
6357,67.0,0.0,120.0,3.0,0.0
6358,55.0,0.0,120.0,3.0,0.0
6359,64.0,0.0,120.0,12.0,0.0
6360,48.0,0.0,120.0,14.0,0.0
6361,60.0,0.0,120.0,13.0,0.0
6362,72.0,0.0,120.0,11.0,0.0
6363,36.0,0.0,120.0,15.0,0.0
6364,76.0,0.0,120.0,2.0,0.0
6365,84.0,160.0,120.0,0.0,0.0
6366,43.0,0.0,120.0,14.0,0.0
6367,71.0,0.0,30.0,11.0,0.0
6368,53.0,0.0,30.0,13.0,0.0
6369,62.0,40.0,30.0,12.0,0.0
6370,31.0,56.0,120.0,15.0,0.0
6371,60.0,0.0,30.0,12.0,0.0
6372,52.0,0.0,30.0,13.0,0.0
6373,72.0,36.0,30.0,11.0,0.0
6374,74.0,0.0,30.0,11.0,0.0
6375,59.0,4.0,30.0,12.0,0.0
6376,53.0,0.0,30.0,13.0,0.0
6377,48.0,60.0,60.0,14.0,0.0
6378,36.0,0.0,60.0,15.0,0.0
6379,60.0,0.0,60.0,12.0,0.0
6380,52.0,0.0,60.0,13.0,0.0
6381,72.0,4.0,60.0,11.0,0.0
6382,67.0,0.0,60.0,12.0,0.0
6383,64.0,60.0,60.0,13.0,0.0
6384,72.0,0.0,60.0,11.0,0.0
6385,36.0,0.0,60.0,15.0,0.0
6386,48.0,60.0,60.0,14.0,0.0
6387,72.0,0.0,60.0,11.0,0.0
6388,64.0,60.0,60.0,13.0,0.0
6389,67.0,0.0,60.0,12.0,0.0
6390,36.0,60.0,60.0,15.0,0.0
6391,64.0,0.0,60.0,3.0,0.0
6392,48.0,0.0,60.0,14.0,0.0
6393,64.0,60.0,60.0,13.0,0.0
6394,72.0,0.0,60.0,11.0,0.0
6395,67.0,0.0,60.0,3.0,0.0
6396,67.0,0.0,60.0,12.0,0.0
6397,70.0,10.0,120.0,3.0,0.0
6398,48.0,50.0,60.0,14.0,0.0
6399,36.0,0.0,60.0,15.0,0.0
6400,72.0,0.0,60.0,11.0,0.0
6401,67.0,0.0,60.0,12.0,0.0
6402,64.0,60.0,60.0,13.0,0.0
6403,36.0,0.0,60.0,15.0,0.0
6404,70.0,0.0,60.0,3.0,0.0
6405,48.0,60.0,60.0,14.0,0.0
6406,64.0,0.0,60.0,13.0,0.0
6407,69.0,0.0,60.0,3.0,0.0
6408,72.0,0.0,60.0,11.0,0.0
6409,67.0,60.0,60.0,12.0,0.0
6410,48.0,0.0,60.0,14.0,0.0
6411,36.0,0.0,60.0,15.0,0.0
6412,67.0,60.0,60.0,3.0,0.0
6413,72.0,0.0,60.0,11.0,0.0
6414,64.0,0.0,60.0,13.0,0.0
6415,67.0,60.0,60.0,12.0,0.0
6416,70.0,0.0,60.0,3.0,0.0
6417,48.0,0.0,60.0,14.0,0.0
6418,36.0,60.0,60.0,15.0,0.0
6419,69.0,10.0,240.0,3.0,0.0
6420,65.0,0.0,60.0,13.0,0.0
6421,69.0,0.0,60.0,12.0,0.0
6422,72.0,60.0,60.0,11.0,0.0
6423,48.0,0.0,60.0,14.0,0.0
6424,36.0,50.0,60.0,15.0,0.0
6425,72.0,0.0,60.0,11.0,0.0
6426,69.0,0.0,60.0,12.0,0.0
6427,65.0,60.0,60.0,13.0,0.0
6428,36.0,0.0,60.0,15.0,0.0
6429,48.0,0.0,60.0,14.0,0.0
6430,65.0,60.0,60.0,3.0,0.0
6431,69.0,60.0,60.0,12.0,0.0
6432,65.0,0.0,60.0,13.0,0.0
6433,72.0,0.0,60.0,11.0,0.0
6434,67.0,0.0,60.0,3.0,0.0
6435,68.0,10.0,120.0,3.0,0.0
6436,36.0,50.0,60.0,15.0,0.0
6437,48.0,0.0,60.0,14.0,0.0
6438,68.0,0.0,60.0,12.0,0.0
6439,71.0,55.0,60.0,11.0,0.0
6440,65.0,0.0,60.0,13.0,0.0
6441,36.0,0.0,60.0,15.0,0.0
6442,48.0,55.0,60.0,14.0,0.0
6443,68.0,5.0,60.0,3.0,0.0
6444,71.0,55.0,60.0,11.0,0.0
6445,65.0,0.0,60.0,13.0,0.0
6446,68.0,0.0,60.0,12.0,0.0
6447,67.0,5.0,60.0,3.0,0.0
6448,65.0,5.0,60.0,3.0,0.0
6449,48.0,0.0,60.0,14.0,0.0
6450,36.0,55.0,60.0,15.0,0.0
6451,68.0,60.0,60.0,12.0,0.0
6452,65.0,0.0,60.0,13.0,0.0
6453,71.0,0.0,60.0,11.0,0.0
6454,68.0,5.0,60.0,3.0,0.0
6455,67.0,0.0,240.0,3.0,0.0
6456,48.0,60.0,60.0,14.0,0.0
6457,36.0,0.0,60.0,15.0,0.0
6458,64.0,0.0,60.0,13.0,0.0
6459,72.0,60.0,60.0,11.0,0.0
6460,67.0,0.0,60.0,12.0,0.0
6461,48.0,0.0,60.0,14.0,0.0
6462,36.0,56.0,60.0,15.0,0.0
6463,72.0,0.0,60.0,11.0,0.0
6464,64.0,4.0,60.0,13.0,0.0
6465,67.0,45.0,60.0,12.0,0.0
6466,55.0,10.0,30.0,14.0,0.0
6467,48.0,5.0,60.0,3.0,0.0
6468,55.0,0.0,30.0,13.0,0.0
6469,36.0,45.0,60.0,15.0,0.0
6470,72.0,0.0,60.0,11.0,0.0
6471,48.0,5.0,60.0,3.0,0.0
6472,57.0,0.0,30.0,13.0,0.0
6473,57.0,10.0,30.0,14.0,0.0
6474,64.0,0.0,60.0,12.0,0.0
6475,67.0,45.0,60.0,12.0,0.0
6476,58.0,0.0,30.0,14.0,0.0
6477,36.0,45.0,60.0,15.0,0.0
6478,58.0,10.0,30.0,13.0,0.0
6479,48.0,5.0,60.0,3.0,0.0
6480,57.0,0.0,30.0,13.0,0.0
6481,57.0,10.0,30.0,14.0,0.0
6482,64.0,0.0,60.0,12.0,0.0
6483,72.0,0.0,60.0,11.0,0.0
6484,48.0,5.0,60.0,3.0,0.0
6485,67.0,45.0,60.0,12.0,0.0
6486,79.0,0.0,15.0,1.0,0.0
6487,81.0,0.0,15.0,1.0,0.0
6488,36.0,30.0,60.0,15.0,0.0
6489,64.0,45.0,120.0,3.0,0.0
6490,48.0,5.0,60.0,3.0,0.0
6491,82.0,15.0,90.0,1.0,0.0
6492,55.0,0.0,30.0,13.0,0.0
6493,55.0,10.0,30.0,14.0,0.0
6494,48.0,5.0,60.0,3.0,0.0
6495,57.0,0.0,30.0,14.0,0.0
6496,67.0,0.0,60.0,12.0,0.0
6497,64.0,0.0,60.0,12.0,0.0
6498,57.0,10.0,30.0,13.0,0.0
6499,72.0,0.0,60.0,11.0,0.0
6500,58.0,10.0,30.0,13.0,0.0
6501,58.0,0.0,30.0,14.0,0.0
6502,36.0,45.0,60.0,15.0,0.0
6503,48.0,5.0,60.0,3.0,0.0
6504,55.0,0.0,30.0,14.0,0.0
6505,72.0,0.0,60.0,11.0,0.0
6506,64.0,0.0,60.0,12.0,0.0
6507,67.0,45.0,60.0,12.0,0.0
6508,48.0,5.0,60.0,3.0,0.0
6509,55.0,10.0,30.0,13.0,0.0
6510,36.0,45.0,60.0,15.0,0.0
6511,57.0,10.0,30.0,13.0,0.0
6512,48.0,5.0,60.0,3.0,0.0
6513,57.0,0.0,30.0,14.0,0.0
6514,65.0,0.0,60.0,12.0,0.0
6515,55.0,10.0,30.0,13.0,0.0
6516,72.0,0.0,60.0,11.0,0.0
6517,48.0,5.0,60.0,3.0,0.0
6518,55.0,0.0,30.0,14.0,0.0
6519,69.0,45.0,60.0,12.0,0.0
6520,77.0,0.0,15.0,1.0,0.0
6521,79.0,0.0,15.0,1.0,0.0
6522,48.0,5.0,60.0,3.0,0.0
6523,65.0,0.0,120.0,3.0,0.0
6524,53.0,0.0,30.0,13.0,0.0
6525,36.0,30.0,60.0,15.0,0.0
6526,53.0,10.0,30.0,14.0,0.0
6527,81.0,15.0,90.0,1.0,0.0
6528,72.0,45.0,60.0,11.0,0.0
6529,48.0,5.0,60.0,3.0,0.0
6530,69.0,0.0,60.0,12.0,0.0
6531,55.0,0.0,30.0,14.0,0.0
6532,55.0,10.0,30.0,13.0,0.0
6533,65.0,0.0,60.0,12.0,0.0
6534,36.0,45.0,60.0,15.0,0.0
6535,48.0,5.0,60.0,3.0,0.0
6536,57.0,0.0,30.0,13.0,0.0
6537,57.0,10.0,30.0,14.0,0.0
6538,65.0,0.0,60.0,12.0,0.0
6539,53.0,10.0,30.0,14.0,0.0
6540,69.0,0.0,60.0,12.0,0.0
6541,48.0,5.0,60.0,3.0,0.0
6542,72.0,45.0,60.0,11.0,0.0
6543,53.0,0.0,30.0,13.0,0.0
6544,48.0,5.0,60.0,3.0,0.0
6545,56.0,10.0,30.0,14.0,0.0
6546,56.0,0.0,30.0,13.0,0.0
6547,36.0,45.0,60.0,15.0,0.0
6548,71.0,0.0,60.0,11.0,0.0
6549,62.0,0.0,60.0,11.0,0.0
6550,65.0,0.0,60.0,12.0,0.0
6551,55.0,10.0,30.0,14.0,0.0
6552,55.0,0.0,30.0,13.0,0.0
6553,48.0,5.0,60.0,3.0,0.0
6554,77.0,0.0,15.0,1.0,0.0
6555,79.0,45.0,15.0,1.0,0.0
6556,53.0,0.0,30.0,13.0,0.0
6557,80.0,15.0,90.0,1.0,0.0
6558,36.0,30.0,60.0,15.0,0.0
6559,53.0,10.0,30.0,14.0,0.0
6560,48.0,5.0,60.0,3.0,0.0
6561,65.0,45.0,120.0,3.0,0.0
6562,71.0,0.0,60.0,11.0,0.0
6563,55.0,0.0,30.0,14.0,0.0
6564,48.0,5.0,60.0,3.0,0.0
6565,55.0,10.0,30.0,13.0,0.0
6566,65.0,0.0,60.0,12.0,0.0
6567,62.0,0.0,60.0,11.0,0.0
6568,48.0,5.0,60.0,3.0,0.0
6569,56.0,0.0,30.0,13.0,0.0
6570,56.0,10.0,30.0,14.0,0.0
6571,36.0,45.0,60.0,15.0,0.0
6572,65.0,30.0,60.0,12.0,0.0
6573,53.0,0.0,30.0,13.0,0.0
6574,53.0,10.0,30.0,14.0,0.0
6575,48.0,1.0,60.0,3.0,0.0
6576,71.0,0.0,60.0,11.0,0.0
6577,62.0,0.0,60.0,11.0,0.0
6578,55.0,0.0,30.0,13.0,0.0
6579,72.0,0.0,120.0,11.0,0.0
6580,64.0,0.0,120.0,11.0,0.0
6581,64.0,0.0,120.0,3.0,0.0
6582,48.0,0.0,120.0,3.0,0.0
6583,79.0,26.0,120.0,1.0,0.0
6584,64.0,30.0,30.0,12.0,0.0
6585,55.0,0.0,120.0,14.0,0.0
6586,36.0,0.0,120.0,15.0,0.0
6587,64.0,0.0,30.0,12.0,0.0
6588,67.0,0.0,30.0,12.0,0.0
6589,55.0,0.0,30.0,13.0,0.0
6590,60.0,30.0,30.0,13.0,0.0
6591,64.0,30.0,30.0,12.0,0.0
6592,67.0,0.0,30.0,12.0,0.0
6593,60.0,0.0,30.0,13.0,0.0
6594,55.0,0.0,30.0,13.0,0.0
6595,64.0,0.0,30.0,12.0,0.0
6596,60.0,4.0,30.0,13.0,0.0
6597,55.0,0.0,30.0,13.0,0.0
6598,67.0,0.0,30.0,12.0,0.0
6599,55.0,30.0,30.0,13.0,0.0
6600,67.0,0.0,30.0,12.0,0.0
6601,64.0,0.0,30.0,12.0,0.0
6602,60.0,0.0,30.0,13.0,0.0
6603,60.0,0.0,30.0,13.0,0.0
6604,64.0,30.0,30.0,12.0,0.0
6605,67.0,0.0,30.0,12.0,0.0
6606,55.0,0.0,30.0,13.0,0.0
6607,55.0,0.0,30.0,13.0,0.0
6608,64.0,0.0,30.0,12.0,0.0
6609,67.0,0.0,30.0,12.0,0.0
6610,60.0,30.0,30.0,13.0,0.0
6611,60.0,0.0,30.0,13.0,0.0
6612,48.0,0.0,30.0,14.0,0.0
6613,60.0,26.0,30.0,11.0,0.0
6614,64.0,0.0,30.0,12.0,0.0
6615,67.0,0.0,30.0,12.0,0.0
6616,55.0,4.0,30.0,13.0,0.0
6617,67.0,0.0,30.0,12.0,0.0
6618,60.0,0.0,30.0,13.0,0.0
6619,52.0,26.0,90.0,14.0,0.0
6620,64.0,30.0,30.0,12.0,0.0
6621,55.0,0.0,30.0,13.0,0.0
6622,64.0,0.0,90.0,11.0,0.0
6623,55.0,0.0,30.0,13.0,0.0
6624,64.0,30.0,30.0,12.0,0.0
6625,67.0,0.0,30.0,12.0,0.0
6626,60.0,0.0,30.0,13.0,0.0
6627,55.0,0.0,30.0,13.0,0.0
6628,60.0,0.0,30.0,13.0,0.0
6629,64.0,0.0,30.0,12.0,0.0
6630,67.0,4.0,30.0,12.0,0.0
6631,60.0,0.0,30.0,13.0,0.0
6632,67.0,26.0,30.0,11.0,0.0
6633,55.0,0.0,30.0,14.0,0.0
6634,55.0,0.0,30.0,13.0,0.0
6635,67.0,4.0,30.0,12.0,0.0
6636,64.0,0.0,30.0,12.0,0.0
6637,60.0,0.0,30.0,13.0,0.0
6638,55.0,30.0,30.0,13.0,0.0
6639,72.0,26.0,120.0,11.0,0.0
6640,60.0,0.0,120.0,14.0,0.0
6641,67.0,0.0,30.0,12.0,0.0
6642,64.0,0.0,30.0,12.0,0.0
6643,55.0,0.0,30.0,13.0,0.0
6644,67.0,0.0,30.0,12.0,0.0
6645,64.0,30.0,30.0,12.0,0.0
6646,60.0,0.0,30.0,13.0,0.0
6647,55.0,0.0,30.0,13.0,0.0
6648,67.0,30.0,30.0,12.0,0.0
6649,64.0,0.0,30.0,12.0,0.0
6650,60.0,0.0,30.0,13.0,0.0
6651,60.0,0.0,30.0,13.0,0.0
6652,55.0,0.0,30.0,13.0,0.0
6653,64.0,0.0,30.0,12.0,0.0
6654,67.0,4.0,30.0,12.0,0.0
6655,64.0,0.0,30.0,12.0,0.0
6656,67.0,0.0,30.0,12.0,0.0
6657,60.0,0.0,30.0,13.0,0.0
6658,64.0,26.0,120.0,14.0,0.0
6659,55.0,30.0,30.0,13.0,0.0
6660,76.0,0.0,120.0,11.0,0.0
6661,55.0,0.0,30.0,13.0,0.0
6662,60.0,0.0,30.0,13.0,0.0
6663,64.0,30.0,30.0,12.0,0.0
6664,67.0,0.0,30.0,12.0,0.0
6665,55.0,0.0,30.0,13.0,0.0
6666,60.0,0.0,30.0,13.0,0.0
6667,67.0,0.0,30.0,12.0,0.0
6668,64.0,30.0,30.0,12.0,0.0
6669,60.0,4.0,30.0,13.0,0.0
6670,55.0,0.0,30.0,13.0,0.0
6671,64.0,0.0,30.0,12.0,0.0
6672,67.0,0.0,30.0,12.0,0.0
6673,71.0,0.0,120.0,4.0,0.0
6674,74.0,0.0,120.0,1.0,0.0
6675,67.0,0.0,120.0,14.0,0.0
6676,79.0,26.0,120.0,2.0,0.0
6677,67.0,0.0,120.0,3.0,0.0
6678,79.0,0.0,120.0,11.0,0.0
6679,79.0,0.0,120.0,0.0,0.0
6680,74.0,0.0,120.0,0.0,0.0
6681,79.0,0.0,120.0,1.0,0.0
6682,59.0,0.0,30.0,13.0,0.0
6683,55.0,0.0,30.0,13.0,0.0
6684,59.0,0.0,120.0,3.0,0.0
6685,62.0,0.0,30.0,12.0,0.0
6686,71.0,0.0,120.0,2.0,0.0
6687,67.0,30.0,30.0,12.0,0.0
6688,43.0,0.0,120.0,15.0,0.0
6689,67.0,30.0,30.0,12.0,0.0
6690,59.0,0.0,30.0,13.0,0.0
6691,55.0,0.0,30.0,13.0,0.0
6692,62.0,0.0,30.0,12.0,0.0
6693,67.0,30.0,30.0,12.0,0.0
6694,62.0,0.0,30.0,12.0,0.0
6695,55.0,0.0,30.0,13.0,0.0
6696,59.0,0.0,30.0,13.0,0.0
6697,55.0,0.0,30.0,13.0,0.0
6698,67.0,0.0,30.0,12.0,0.0
6699,59.0,0.0,30.0,13.0,0.0
6700,62.0,4.0,30.0,12.0,0.0
6701,72.0,0.0,120.0,2.0,0.0
6702,76.0,0.0,120.0,2.0,0.0
6703,48.0,26.0,120.0,15.0,0.0
6704,72.0,0.0,120.0,1.0,0.0
6705,60.0,0.0,120.0,3.0,0.0
6706,76.0,0.0,120.0,1.0,0.0
6707,76.0,0.0,120.0,11.0,0.0
6708,76.0,0.0,120.0,0.0,0.0
6709,64.0,0.0,120.0,3.0,0.0
6710,64.0,0.0,120.0,14.0,0.0
6711,52.0,0.0,120.0,6.0,0.0
6712,60.0,0.0,30.0,13.0,0.0
6713,64.0,0.0,30.0,12.0,0.0
6714,64.0,0.0,120.0,4.0,0.0
6715,76.0,0.0,120.0,5.0,0.0
6716,64.0,0.0,120.0,5.0,0.0
6717,55.0,30.0,30.0,13.0,0.0
6718,67.0,0.0,30.0,12.0,0.0
6719,67.0,0.0,30.0,12.0,0.0
6720,55.0,30.0,30.0,13.0,0.0
6721,60.0,0.0,30.0,13.0,0.0
6722,64.0,0.0,30.0,12.0,0.0
6723,60.0,0.0,30.0,13.0,0.0
6724,55.0,0.0,30.0,13.0,0.0
6725,64.0,30.0,30.0,12.0,0.0
6726,67.0,0.0,30.0,12.0,0.0
6727,60.0,0.0,30.0,13.0,0.0
6728,55.0,0.0,30.0,13.0,0.0
6729,67.0,0.0,30.0,12.0,0.0
6730,64.0,4.0,30.0,12.0,0.0
6731,67.0,0.0,30.0,12.0,0.0
6732,60.0,0.0,30.0,13.0,0.0
6733,55.0,0.0,30.0,13.0,0.0
6734,64.0,30.0,30.0,12.0,0.0
6735,64.0,0.0,30.0,12.0,0.0
6736,67.0,0.0,30.0,12.0,0.0
6737,60.0,30.0,30.0,13.0,0.0
6738,55.0,0.0,30.0,13.0,0.0
6739,64.0,30.0,30.0,12.0,0.0
6740,67.0,0.0,30.0,12.0,0.0
6741,60.0,0.0,30.0,13.0,0.0
6742,55.0,0.0,30.0,13.0,0.0
6743,60.0,0.0,30.0,13.0,0.0
6744,64.0,0.0,30.0,12.0,0.0
6745,48.0,0.0,30.0,14.0,0.0
6746,55.0,0.0,30.0,13.0,0.0
6747,60.0,26.0,30.0,11.0,0.0
6748,67.0,4.0,30.0,12.0,0.0
6749,55.0,0.0,30.0,13.0,0.0
6750,64.0,0.0,90.0,11.0,0.0
6751,67.0,0.0,30.0,12.0,0.0
6752,64.0,0.0,30.0,12.0,0.0
6753,52.0,26.0,90.0,14.0,0.0
6754,60.0,30.0,30.0,13.0,0.0
6755,64.0,0.0,30.0,12.0,0.0
6756,67.0,0.0,30.0,12.0,0.0
6757,60.0,30.0,30.0,13.0,0.0
6758,55.0,0.0,30.0,13.0,0.0
6759,60.0,4.0,30.0,13.0,0.0
6760,67.0,0.0,30.0,12.0,0.0
6761,64.0,0.0,30.0,12.0,0.0
6762,55.0,0.0,30.0,13.0,0.0
6763,64.0,0.0,30.0,12.0,0.0
6764,67.0,30.0,30.0,12.0,0.0
6765,55.0,0.0,30.0,13.0,0.0
6766,67.0,0.0,30.0,11.0,0.0
6767,60.0,0.0,30.0,13.0,0.0
6768,55.0,0.0,30.0,14.0,0.0
6769,72.0,16.0,30.0,11.0,0.0
6770,64.0,0.0,30.0,12.0,0.0
6771,55.0,14.0,30.0,13.0,0.0
6772,60.0,0.0,30.0,13.0,0.0
6773,67.0,0.0,30.0,12.0,0.0
6774,60.0,0.0,30.0,14.0,0.0
6775,60.0,24.0,30.0,13.0,0.0
6776,55.0,0.0,30.0,13.0,0.0
6777,64.0,0.0,30.0,12.0,0.0
6778,67.0,0.0,30.0,12.0,0.0
6779,76.0,6.0,30.0,11.0,0.0
6780,64.0,0.0,30.0,14.0,0.0
6781,55.0,30.0,30.0,13.0,0.0
6782,67.0,0.0,30.0,12.0,0.0
6783,64.0,0.0,30.0,12.0,0.0
6784,60.0,0.0,30.0,13.0,0.0
6785,79.0,0.0,30.0,11.0,0.0
6786,67.0,0.0,30.0,14.0,0.0
6787,67.0,0.0,30.0,12.0,0.0
6788,64.0,30.0,30.0,12.0,0.0
6789,55.0,0.0,30.0,13.0,0.0
6790,60.0,0.0,30.0,13.0,0.0
6791,60.0,0.0,30.0,13.0,0.0
6792,55.0,0.0,30.0,13.0,0.0
6793,67.0,0.0,30.0,12.0,0.0
6794,60.0,0.0,120.0,14.0,0.0
6795,64.0,30.0,30.0,12.0,0.0
6796,84.0,26.0,120.0,11.0,0.0
6797,67.0,0.0,30.0,12.0,0.0
6798,55.0,30.0,30.0,13.0,0.0
6799,60.0,0.0,30.0,13.0,0.0
6800,64.0,0.0,30.0,12.0,0.0
6801,67.0,0.0,30.0,12.0,0.0
6802,64.0,0.0,30.0,12.0,0.0
6803,55.0,0.0,30.0,13.0,0.0
6804,60.0,30.0,30.0,13.0,0.0
6805,60.0,0.0,30.0,13.0,0.0
6806,55.0,0.0,30.0,13.0,0.0
6807,64.0,0.0,30.0,12.0,0.0
6808,67.0,4.0,30.0,12.0,0.0
6809,55.0,0.0,30.0,13.0,0.0
6810,59.0,0.0,30.0,13.0,0.0
6811,86.0,0.0,120.0,0.0,0.0
6812,83.0,0.0,120.0,0.0,0.0
6813,83.0,0.0,120.0,1.0,0.0
6814,86.0,0.0,120.0,1.0,0.0
6815,86.0,0.0,120.0,11.0,0.0
6816,43.0,26.0,120.0,15.0,0.0
6817,79.0,0.0,240.0,2.0,0.0
6818,74.0,0.0,120.0,2.0,0.0
6819,67.0,0.0,30.0,12.0,0.0
6820,59.0,0.0,120.0,3.0,0.0
6821,62.0,30.0,30.0,12.0,0.0
6822,62.0,0.0,120.0,3.0,0.0
6823,55.0,0.0,120.0,14.0,0.0
6824,62.0,0.0,30.0,12.0,0.0
6825,55.0,0.0,30.0,13.0,0.0
6826,59.0,30.0,30.0,13.0,0.0
6827,67.0,0.0,30.0,12.0,0.0
6828,55.0,30.0,30.0,13.0,0.0
6829,59.0,0.0,30.0,13.0,0.0
6830,62.0,0.0,30.0,12.0,0.0
6831,67.0,0.0,30.0,12.0,0.0
6832,62.0,0.0,30.0,12.0,0.0
6833,67.0,4.0,30.0,12.0,0.0
6834,59.0,0.0,30.0,13.0,0.0
6835,55.0,0.0,30.0,13.0,0.0
6836,88.0,0.0,120.0,1.0,0.0
6837,84.0,0.0,120.0,1.0,0.0
6838,60.0,0.0,30.0,13.0,0.0
6839,52.0,0.0,120.0,6.0,0.0
6840,55.0,0.0,30.0,13.0,0.0
6841,64.0,0.0,120.0,3.0,0.0
6842,88.0,0.0,120.0,0.0,0.0
6843,60.0,0.0,120.0,3.0,0.0
6844,60.0,0.0,120.0,14.0,0.0
6845,64.0,0.0,30.0,12.0,0.0
6846,67.0,30.0,30.0,12.0,0.0
6847,88.0,0.0,120.0,11.0,0.0
6848,76.0,0.0,120.0,2.0,0.0
6849,64.0,0.0,120.0,5.0,0.0
6850,76.0,0.0,120.0,5.0,0.0
6851,48.0,0.0,120.0,15.0,0.0
6852,64.0,26.0,120.0,4.0,0.0
6853,84.0,0.0,120.0,0.0,0.0
6854,55.0,0.0,30.0,13.0,0.0
6855,64.0,0.0,30.0,12.0,0.0
6856,67.0,0.0,30.0,12.0,0.0
6857,60.0,30.0,30.0,13.0,0.0
6858,60.0,0.0,30.0,13.0,0.0
6859,67.0,30.0,30.0,12.0,0.0
6860,64.0,0.0,30.0,12.0,0.0
6861,55.0,0.0,30.0,13.0,0.0
6862,67.0,4.0,30.0,12.0,0.0
6863,64.0,0.0,30.0,12.0,0.0
6864,55.0,0.0,30.0,13.0,0.0
6865,60.0,0.0,30.0,13.0,0.0
6866,67.0,30.0,30.0,12.0,0.0
6867,64.0,0.0,30.0,12.0,0.0
6868,55.0,0.0,30.0,13.0,0.0
6869,60.0,0.0,30.0,13.0,0.0
6870,67.0,24.0,30.0,12.0,0.0
6871,55.0,0.0,30.0,13.0,0.0
6872,64.0,0.0,30.0,12.0,0.0
6873,60.0,0.0,30.0,13.0,0.0
6874,48.0,0.0,30.0,14.0,0.0
6875,60.0,0.0,30.0,11.0,0.0
6876,48.0,0.0,30.0,3.0,0.0
6877,60.0,6.0,30.0,2.0,0.0
6878,64.0,0.0,30.0,12.0,0.0
6879,60.0,0.0,30.0,13.0,0.0
6880,55.0,0.0,30.0,13.0,0.0
6881,67.0,30.0,30.0,12.0,0.0
6882,64.0,26.0,30.0,2.0,0.0
6883,52.0,0.0,30.0,3.0,0.0
6884,64.0,0.0,30.0,11.0,0.0
6885,52.0,0.0,30.0,14.0,0.0
6886,60.0,4.0,30.0,13.0,0.0
6887,67.0,0.0,30.0,12.0,0.0
6888,64.0,0.0,30.0,12.0,0.0
6889,55.0,0.0,30.0,13.0,0.0
6890,67.0,16.0,30.0,2.0,0.0
6891,55.0,0.0,30.0,14.0,0.0
6892,64.0,14.0,30.0,12.0,0.0
6893,67.0,0.0,30.0,12.0,0.0
6894,55.0,0.0,30.0,3.0,0.0
6895,60.0,0.0,30.0,13.0,0.0
6896,67.0,0.0,30.0,11.0,0.0
6897,55.0,0.0,30.0,13.0,0.0
6898,67.0,0.0,30.0,12.0,0.0
6899,55.0,0.0,30.0,13.0,0.0
6900,60.0,0.0,30.0,13.0,0.0
6901,64.0,24.0,30.0,12.0,0.0
6902,36.0,0.0,30.0,15.0,0.0
6903,60.0,0.0,30.0,14.0,0.0
6904,72.0,6.0,30.0,11.0,0.0
6905,72.0,0.0,30.0,2.0,0.0
6906,60.0,0.0,30.0,3.0,0.0
6907,60.0,28.0,30.0,13.0,0.0
6908,55.0,0.0,30.0,13.0,0.0
6909,67.0,0.0,30.0,12.0,0.0
6910,64.0,0.0,30.0,12.0,0.0
6911,52.0,0.0,30.0,3.0,0.0
6912,64.0,0.0,30.0,3.0,0.0
6913,64.0,30.0,30.0,14.0,0.0
6914,76.0,2.0,30.0,0.0,0.0
6915,76.0,0.0,30.0,2.0,0.0
6916,64.0,0.0,30.0,2.0,0.0
6917,40.0,0.0,30.0,15.0,0.0
6918,76.0,0.0,30.0,11.0,0.0
6919,60.0,0.0,30.0,13.0,0.0
6920,67.0,0.0,30.0,12.0,0.0
6921,55.0,0.0,30.0,13.0,0.0
6922,64.0,0.0,30.0,12.0,0.0
6923,43.0,0.0,30.0,15.0,0.0
6924,64.0,0.0,30.0,12.0,0.0
6925,67.0,0.0,30.0,12.0,0.0
6926,79.0,0.0,30.0,11.0,0.0
6927,67.0,0.0,30.0,2.0,0.0
6928,79.0,0.0,30.0,0.0,0.0
6929,79.0,4.0,120.0,1.0,0.0
6930,60.0,14.0,30.0,13.0,0.0
6931,55.0,16.0,30.0,14.0,0.0
6932,55.0,0.0,30.0,13.0,0.0
6933,55.0,0.0,30.0,3.0,0.0
6934,76.0,0.0,120.0,1.0,0.0
6935,60.0,0.0,30.0,13.0,0.0
6936,67.0,0.0,30.0,12.0,0.0
6937,64.0,24.0,30.0,12.0,0.0
6938,55.0,0.0,30.0,13.0,0.0
6939,60.0,6.0,30.0,3.0,0.0
6940,60.0,0.0,30.0,14.0,0.0
6941,48.0,0.0,30.0,15.0,0.0
6942,84.0,0.0,30.0,0.0,0.0
6943,72.0,0.0,30.0,2.0,0.0
6944,84.0,0.0,30.0,11.0,0.0
6945,67.0,0.0,30.0,12.0,0.0
6946,55.0,0.0,30.0,13.0,0.0
6947,60.0,0.0,30.0,13.0,0.0
6948,64.0,24.0,30.0,12.0,0.0
6949,64.0,0.0,30.0,14.0,0.0
6950,52.0,0.0,30.0,15.0,0.0
6951,88.0,0.0,30.0,11.0,0.0
6952,76.0,0.0,30.0,2.0,0.0
6953,88.0,2.0,30.0,0.0,0.0
6954,64.0,0.0,30.0,3.0,0.0
6955,64.0,0.0,30.0,12.0,0.0
6956,67.0,0.0,30.0,12.0,0.0
6957,60.0,124.0,30.0,13.0,0.0
6958,55.0,0.0,30.0,13.0,0.0
6959,55.0,0.0,120.0,15.0,0.0
6960,79.0,0.0,120.0,1.0,0.0
6961,74.0,0.0,120.0,1.0,0.0
6962,67.0,0.0,120.0,14.0,0.0
6963,67.0,0.0,120.0,12.0,0.0
6964,67.0,0.0,120.0,3.0,0.0
6965,62.0,0.0,120.0,12.0,0.0
6966,91.0,4.0,600.0,0.0,0.0
6967,59.0,0.0,120.0,13.0,0.0
6968,55.0,0.0,120.0,13.0,0.0
6969,91.0,0.0,120.0,11.0,0.0
6970,79.0,240.0,120.0,2.0,0.0
6971,71.0,0.0,480.0,2.0,0.0
6972,74.0,120.0,120.0,2.0,0.0
6973,79.0,60.0,120.0,1.0,0.0
6974,79.0,0.0,240.0,2.0,0.0
6975,81.0,52.0,60.0,1.0,0.0
6976,83.0,124.0,60.0,1.0,0.0
6977,69.0,0.0,360.0,3.0,0.0
6978,89.0,0.0,120.0,0.0,0.0
6979,77.0,232.0,120.0,2.0,0.0
6980,84.0,0.0,360.0,1.0,0.0
6981,72.0,0.0,360.0,2.0,0.0
6982,88.0,128.0,240.0,0.0,0.0
6983,76.0,0.0,240.0,2.0,0.0
6984,79.0,0.0,360.0,1.0,0.0
6985,64.0,120.0,360.0,3.0,0.0
6986,86.0,232.0,120.0,0.0,0.0
6987,67.0,0.0,360.0,2.0,0.0
6988,74.0,0.0,120.0,2.0,0.0
6989,84.0,0.0,240.0,0.0,0.0
6990,72.0,0.0,240.0,2.0,0.0
6991,79.0,0.0,120.0,1.0,0.0
6992,67.0,0.0,120.0,3.0,0.0
6993,74.0,0.0,120.0,2.0,0.0
6994,77.0,120.0,120.0,2.0,0.0
6995,83.0,0.0,240.0,0.0,0.0
6996,74.0,0.0,120.0,2.0,0.0
6997,79.0,0.0,120.0,1.0,0.0
6998,67.0,48.0,120.0,3.0,0.0
6999,77.0,0.0,120.0,2.0,0.0
7000,67.0,0.0,120.0,3.0,0.0
7001,74.0,22.0,90.0,2.0,0.0
7002,79.0,4.0,120.0,1.0,0.0
7003,83.0,40.0,30.0,0.0,0.0
7004,77.0,0.0,120.0,2.0,0.0
7005,84.0,10.0,30.0,0.0,0.0
7006,86.0,124.0,30.0,0.0,0.0
7007,71.0,0.0,30.0,2.0,0.0
7008,72.0,0.0,120.0,2.0,0.0
7009,76.0,120.0,120.0,2.0,0.0
7010,84.0,0.0,120.0,0.0,0.0
7011,60.0,0.0,120.0,3.0,0.0
7012,79.0,0.0,120.0,1.0,0.0
7013,67.0,0.0,120.0,3.0,0.0
7014,72.0,60.0,60.0,11.0,0.0
7015,60.0,0.0,60.0,13.0,0.0
7016,76.0,56.0,60.0,11.0,0.0
7017,64.0,0.0,60.0,13.0,0.0
7018,67.0,64.0,60.0,13.0,0.0
7019,79.0,0.0,60.0,11.0,0.0
7020,72.0,0.0,300.0,12.0,0.0
7021,60.0,0.0,300.0,3.0,0.0
7022,57.0,4.0,360.0,14.0,0.0
7023,45.0,0.0,360.0,15.0,0.0
7024,48.0,0.0,300.0,3.0,0.0
7025,60.0,56.0,300.0,13.0,0.0
7026,67.0,0.0,60.0,13.0,0.0
7027,79.0,60.0,60.0,11.0,0.0
7028,77.0,176.0,60.0,11.0,0.0
7029,65.0,0.0,60.0,13.0,0.0
7030,76.0,0.0,180.0,11.0,0.0
7031,64.0,0.0,180.0,13.0,0.0
7032,60.0,0.0,60.0,13.0,0.0
7033,76.0,0.0,60.0,11.0,0.0
7034,64.0,64.0,60.0,3.0,0.0
7035,72.0,0.0,60.0,12.0,0.0
7036,64.0,0.0,60.0,13.0,0.0
7037,60.0,0.0,60.0,3.0,0.0
7038,65.0,0.0,120.0,3.0,0.0
7039,67.0,0.0,60.0,13.0,0.0
7040,83.0,0.0,60.0,11.0,0.0
7041,53.0,0.0,120.0,14.0,0.0
7042,69.0,0.0,120.0,3.0,0.0
7043,71.0,60.0,60.0,13.0,0.0
7044,41.0,0.0,120.0,15.0,0.0
7045,79.0,0.0,60.0,12.0,0.0
7046,81.0,0.0,60.0,11.0,0.0
7047,69.0,60.0,60.0,13.0,0.0
7048,65.0,0.0,60.0,13.0,0.0
7049,77.0,0.0,60.0,12.0,0.0
7050,79.0,0.0,60.0,11.0,0.0
7051,64.0,112.0,60.0,13.0,0.0
7052,64.0,0.0,180.0,3.0,0.0
7053,76.0,0.0,60.0,12.0,0.0
7054,48.0,0.0,60.0,15.0,0.0
7055,60.0,0.0,60.0,14.0,0.0
7056,67.0,0.0,60.0,13.0,0.0
7057,67.0,0.0,180.0,3.0,0.0
7058,79.0,0.0,120.0,11.0,0.0
7059,48.0,4.0,120.0,15.0,0.0
7060,76.0,0.0,120.0,12.0,0.0
7061,60.0,0.0,120.0,14.0,0.0
7062,67.0,0.0,120.0,13.0,0.0
7063,64.0,60.0,120.0,13.0,0.0
7064,48.0,0.0,60.0,15.0,0.0
7065,67.0,0.0,60.0,13.0,0.0
7066,64.0,0.0,60.0,3.0,0.0
7067,67.0,0.0,60.0,3.0,0.0
7068,55.0,0.0,60.0,13.0,0.0
7069,76.0,0.0,60.0,2.0,0.0
7070,79.0,0.0,60.0,2.0,0.0
7071,76.0,0.0,60.0,12.0,0.0
7072,79.0,64.0,60.0,1.0,0.0
7073,91.0,0.0,60.0,0.0,0.0
7074,60.0,0.0,60.0,14.0,0.0
7075,79.0,0.0,60.0,11.0,0.0
7076,79.0,52.0,60.0,11.0,0.0
7077,59.0,0.0,120.0,3.0,0.0
7078,67.0,0.0,60.0,3.0,0.0
7079,79.0,8.0,120.0,1.0,0.0
7080,71.0,60.0,120.0,12.0,0.0
7081,83.0,0.0,120.0,1.0,0.0
7082,91.0,0.0,60.0,0.0,0.0
7083,62.0,0.0,120.0,14.0,0.0
7084,67.0,0.0,120.0,13.0,0.0
7085,55.0,0.0,120.0,13.0,0.0
7086,50.0,0.0,120.0,15.0,0.0
7087,71.0,0.0,120.0,2.0,0.0
7088,79.0,0.0,60.0,2.0,0.0
7089,89.0,0.0,60.0,0.0,0.0
7090,65.0,0.0,60.0,3.0,0.0
7091,77.0,0.0,60.0,11.0,0.0
7092,77.0,0.0,60.0,2.0,0.0
7093,64.0,0.0,60.0,14.0,0.0
7094,72.0,0.0,180.0,2.0,0.0
7095,55.0,0.0,60.0,13.0,0.0
7096,67.0,0.0,60.0,13.0,0.0
7097,76.0,0.0,180.0,2.0,0.0
7098,52.0,0.0,60.0,15.0,0.0
7099,60.0,0.0,180.0,3.0,0.0
7100,79.0,0.0,180.0,1.0,0.0
7101,84.0,0.0,180.0,1.0,0.0
7102,88.0,0.0,180.0,0.0,0.0
7103,64.0,56.0,180.0,3.0,0.0
7104,72.0,0.0,60.0,12.0,0.0
7105,76.0,112.0,60.0,11.0,0.0
7106,67.0,0.0,120.0,13.0,0.0
7107,64.0,0.0,120.0,14.0,0.0
7108,52.0,4.0,120.0,15.0,0.0
7109,76.0,0.0,120.0,11.0,0.0
7110,72.0,0.0,120.0,12.0,0.0
7111,55.0,4.0,120.0,13.0,0.0
7112,67.0,120.0,60.0,12.0,0.0
7113,55.0,0.0,60.0,13.0,0.0
7114,52.0,0.0,60.0,14.0,0.0
7115,76.0,0.0,60.0,11.0,0.0
7116,40.0,4.0,60.0,15.0,0.0
7117,53.0,0.0,120.0,14.0,0.0
7118,65.0,0.0,120.0,12.0,0.0
7119,57.0,0.0,120.0,13.0,0.0
7120,74.0,360.0,120.0,11.0,0.0
7121,41.0,0.0,120.0,15.0,0.0
7122,43.0,0.0,120.0,15.0,0.0
7123,59.0,0.0,120.0,13.0,0.0
7124,67.0,0.0,120.0,11.0,0.0
7125,65.0,540.0,120.0,12.0,0.0
7126,55.0,0.0,120.0,14.0,0.0
7127,55.0,0.0,360.0,13.0,0.0
7128,72.0,0.0,360.0,11.0,0.0
7129,64.0,112.0,360.0,12.0,0.0
7130,48.0,0.0,360.0,14.0,0.0
7131,36.0,0.0,360.0,15.0,0.0
7132,67.0,0.0,60.0,2.0,0.0
7133,55.0,60.0,60.0,3.0,0.0
7134,60.0,0.0,60.0,3.0,0.0
7135,72.0,0.0,60.0,2.0,0.0
7136,36.0,0.0,240.0,15.0,0.0
7137,64.0,0.0,120.0,3.0,0.0
7138,55.0,0.0,240.0,13.0,0.0
7139,60.0,0.0,120.0,3.0,0.0
7140,48.0,0.0,240.0,14.0,0.0
7141,64.0,8.0,240.0,12.0,0.0
7142,76.0,68.0,120.0,2.0,0.0
7143,72.0,0.0,240.0,11.0,0.0
7144,72.0,0.0,120.0,2.0,0.0
7145,64.0,0.0,60.0,3.0,0.0
7146,60.0,52.0,60.0,3.0,0.0
7147,76.0,0.0,60.0,2.0,0.0
7148,72.0,0.0,60.0,2.0,0.0
7149,55.0,0.0,60.0,3.0,0.0
7150,62.0,0.0,60.0,3.0,0.0
7151,67.0,86.0,60.0,2.0,0.0
7152,74.0,0.0,60.0,2.0,0.0
7153,48.0,4.0,90.0,14.0,0.0
7154,64.0,0.0,90.0,12.0,0.0
7155,52.0,0.0,90.0,3.0,0.0
7156,60.0,0.0,90.0,3.0,0.0
7157,72.0,0.0,90.0,11.0,0.0
7158,55.0,0.0,90.0,13.0,0.0
7159,36.0,0.0,90.0,15.0,0.0
7160,72.0,26.0,90.0,2.0,0.0
7161,64.0,0.0,90.0,2.0,0.0
7162,72.0,0.0,30.0,2.0,0.0
7163,64.0,0.0,30.0,3.0,0.0
7164,60.0,232.0,30.0,3.0,0.0
7165,76.0,0.0,30.0,2.0,0.0
7166,36.0,0.0,30.0,15.0,0.0
7167,72.0,4.0,30.0,12.0,0.0
7168,76.0,0.0,30.0,11.0,0.0
7169,55.0,0.0,30.0,13.0,0.0
7170,48.0,0.0,30.0,14.0,0.0
7171,48.0,0.0,360.0,14.0,0.0
7172,67.0,0.0,240.0,3.0,0.0
7173,76.0,0.0,240.0,2.0,0.0
7174,79.0,68.0,240.0,2.0,0.0
7175,55.0,0.0,360.0,13.0,0.0
7176,36.0,112.0,360.0,15.0,0.0
7177,79.0,0.0,360.0,11.0,0.0
7178,64.0,0.0,240.0,3.0,0.0
7179,76.0,0.0,360.0,12.0,0.0
7180,72.0,0.0,60.0,2.0,0.0
7181,52.0,0.0,60.0,3.0,0.0
7182,60.0,0.0,60.0,3.0,0.0
7183,64.0,60.0,60.0,2.0,0.0
7184,76.0,0.0,60.0,2.0,0.0
7185,64.0,0.0,60.0,3.0,0.0
7186,60.0,0.0,60.0,3.0,0.0
7187,72.0,0.0,60.0,2.0,0.0
7188,67.0,68.0,120.0,3.0,0.0
7189,64.0,0.0,120.0,3.0,0.0
7190,55.0,0.0,240.0,13.0,0.0
7191,76.0,0.0,120.0,2.0,0.0
7192,48.0,0.0,240.0,14.0,0.0
7193,79.0,0.0,240.0,11.0,0.0
7194,79.0,0.0,120.0,2.0,0.0
7195,76.0,8.0,240.0,12.0,0.0
7196,36.0,0.0,240.0,15.0,0.0
7197,67.0,0.0,60.0,3.0,0.0
7198,79.0,0.0,60.0,2.0,0.0
7199,64.0,0.0,60.0,3.0,0.0
7200,76.0,52.0,60.0,2.0,0.0
7201,65.0,0.0,60.0,3.0,0.0
7202,74.0,0.0,60.0,2.0,0.0
7203,77.0,86.0,60.0,2.0,0.0
7204,62.0,0.0,60.0,3.0,0.0
7205,55.0,0.0,90.0,13.0,0.0
7206,72.0,0.0,90.0,2.0,0.0
7207,64.0,26.0,90.0,3.0,0.0
7208,60.0,0.0,90.0,3.0,0.0
7209,76.0,0.0,90.0,11.0,0.0
7210,72.0,0.0,90.0,12.0,0.0
7211,76.0,0.0,90.0,2.0,0.0
7212,48.0,0.0,90.0,14.0,0.0
7213,36.0,4.0,90.0,15.0,0.0
7214,76.0,0.0,30.0,12.0,0.0
7215,79.0,0.0,30.0,2.0,0.0
7216,76.0,0.0,30.0,2.0,0.0
7217,48.0,0.0,30.0,14.0,0.0
7218,79.0,232.0,30.0,11.0,0.0
7219,64.0,4.0,30.0,3.0,0.0
7220,36.0,0.0,30.0,15.0,0.0
7221,67.0,0.0,30.0,3.0,0.0
7222,55.0,0.0,30.0,13.0,0.0
7223,84.0,0.0,720.0,2.0,0.0
7224,76.0,0.0,720.0,2.0,0.0
7225,48.0,0.0,360.0,14.0,0.0
7226,55.0,0.0,360.0,13.0,0.0
7227,67.0,0.0,720.0,3.0,0.0
7228,60.0,0.0,720.0,3.0,0.0
7229,84.0,98.0,240.0,11.0,0.0
7230,76.0,0.0,360.0,12.0,0.0
7231,36.0,232.0,360.0,15.0,0.0
7232,76.0,30.0,90.0,11.0,0.0
7233,79.0,0.0,30.0,11.0,0.0
7234,48.0,0.0,360.0,14.0,0.0
7235,76.0,8.0,240.0,12.0,0.0
7236,84.0,90.0,240.0,11.0,0.0
7237,55.0,232.0,360.0,13.0,0.0
7238,36.0,0.0,360.0,15.0,0.0
7239,64.0,26.0,90.0,12.0,0.0
7240,67.0,4.0,30.0,12.0,0.0
7241,84.0,0.0,720.0,2.0,0.0
7242,60.0,0.0,720.0,3.0,0.0
7243,55.0,0.0,240.0,13.0,0.0
7244,36.0,0.0,240.0,15.0,0.0
7245,76.0,8.0,720.0,2.0,0.0
7246,72.0,90.0,240.0,12.0,0.0
7247,67.0,0.0,720.0,3.0,0.0
7248,48.0,8.0,240.0,14.0,0.0
7249,40.0,0.0,90.0,15.0,0.0
7250,52.0,0.0,90.0,13.0,0.0
7251,40.0,30.0,90.0,14.0,0.0
7252,43.0,232.0,30.0,15.0,0.0
7253,55.0,0.0,30.0,13.0,0.0
7254,43.0,0.0,30.0,14.0,0.0
7255,48.0,98.0,240.0,14.0,0.0
7256,60.0,0.0,240.0,13.0,0.0
7257,48.0,0.0,240.0,15.0,0.0
7258,40.0,22.0,90.0,15.0,0.0
7259,40.0,0.0,90.0,14.0,0.0
7260,52.0,0.0,90.0,13.0,0.0
7261,43.0,112.0,30.0,15.0,0.0
7262,43.0,0.0,30.0,14.0,0.0
7263,55.0,0.0,30.0,13.0,0.0
7264,48.0,0.0,120.0,14.0,0.0
7265,60.0,0.0,120.0,3.0,0.0
7266,48.0,0.0,120.0,15.0,0.0
7267,60.0,0.0,120.0,13.0,0.0
7268,67.0,98.0,120.0,3.0,0.0
7269,84.0,0.0,120.0,2.0,0.0
7270,76.0,0.0,120.0,2.0,0.0
7271,76.0,0.0,120.0,2.0,0.0
7272,84.0,8.0,120.0,2.0,0.0
7273,40.0,0.0,90.0,15.0,0.0
7274,52.0,0.0,90.0,13.0,0.0
7275,60.0,0.0,120.0,3.0,0.0
7276,40.0,22.0,90.0,14.0,0.0
7277,67.0,0.0,120.0,3.0,0.0
7278,43.0,112.0,30.0,14.0,0.0
7279,43.0,0.0,30.0,15.0,0.0
7280,55.0,0.0,30.0,13.0,0.0
7281,76.0,0.0,120.0,2.0,0.0
7282,84.0,0.0,120.0,2.0,0.0
7283,60.0,98.0,120.0,3.0,0.0
7284,67.0,0.0,120.0,3.0,0.0
7285,60.0,0.0,120.0,13.0,0.0
7286,48.0,0.0,120.0,15.0,0.0
7287,48.0,0.0,120.0,14.0,0.0
7288,84.0,0.0,120.0,2.0,0.0
7289,76.0,0.0,120.0,2.0,0.0
7290,67.0,8.0,120.0,3.0,0.0
7291,60.0,0.0,120.0,3.0,0.0
7292,40.0,0.0,90.0,15.0,0.0
7293,40.0,0.0,90.0,14.0,0.0
7294,52.0,22.0,90.0,13.0,0.0
7295,55.0,112.0,30.0,13.0,0.0
7296,43.0,0.0,30.0,14.0,0.0
7297,43.0,0.0,30.0,15.0,0.0
7298,48.0,0.0,120.0,15.0,0.0
7299,60.0,0.0,120.0,13.0,0.0
7300,76.0,0.0,120.0,2.0,0.0
7301,84.0,0.0,120.0,2.0,0.0
7302,48.0,0.0,120.0,14.0,0.0
7303,67.0,98.0,120.0,3.0,0.0
7304,60.0,0.0,120.0,3.0,0.0
7305,52.0,22.0,90.0,13.0,0.0
7306,60.0,8.0,120.0,3.0,0.0
7307,67.0,0.0,120.0,3.0,0.0
7308,84.0,0.0,120.0,2.0,0.0
7309,76.0,0.0,120.0,2.0,0.0
7310,40.0,0.0,90.0,15.0,0.0
7311,40.0,0.0,90.0,14.0,0.0
7312,55.0,32.0,30.0,13.0,0.0
7313,43.0,0.0,30.0,15.0,0.0
7314,43.0,0.0,30.0,14.0,0.0
7315,67.0,0.0,30.0,3.0,0.0
7316,60.0,4.0,30.0,13.0,0.0
7317,48.0,0.0,30.0,14.0,0.0
7318,84.0,0.0,30.0,2.0,0.0
7319,48.0,0.0,30.0,15.0,0.0
7320,60.0,0.0,30.0,3.0,0.0
7321,76.0,36.0,30.0,2.0,0.0
7322,40.0,0.0,30.0,14.0,0.0
7323,76.0,36.0,30.0,2.0,0.0
7324,67.0,0.0,30.0,3.0,0.0
7325,60.0,0.0,30.0,3.0,0.0
7326,40.0,0.0,30.0,15.0,0.0
7327,52.0,4.0,30.0,13.0,0.0
7328,84.0,0.0,30.0,2.0,0.0
7329,67.0,0.0,30.0,3.0,0.0
7330,60.0,0.0,30.0,3.0,0.0
7331,43.0,0.0,30.0,14.0,0.0
7332,43.0,0.0,30.0,15.0,0.0
7333,55.0,4.0,30.0,13.0,0.0
7334,84.0,0.0,30.0,2.0,0.0
7335,76.0,36.0,30.0,2.0,0.0
7336,60.0,4.0,30.0,13.0,0.0
7337,67.0,0.0,30.0,3.0,0.0
7338,76.0,36.0,30.0,2.0,0.0
7339,48.0,0.0,30.0,14.0,0.0
7340,84.0,0.0,30.0,2.0,0.0
7341,48.0,0.0,30.0,15.0,0.0
7342,60.0,0.0,30.0,3.0,0.0
7343,40.0,0.0,30.0,15.0,0.0
7344,67.0,36.0,30.0,3.0,0.0
7345,52.0,4.0,30.0,13.0,0.0
7346,60.0,0.0,30.0,3.0,0.0
7347,40.0,0.0,30.0,14.0,0.0
7348,84.0,0.0,30.0,2.0,0.0
7349,76.0,0.0,30.0,2.0,0.0
7350,84.0,36.0,30.0,2.0,0.0
7351,76.0,0.0,30.0,2.0,0.0
7352,55.0,0.0,30.0,13.0,0.0
7353,43.0,4.0,30.0,15.0,0.0
7354,60.0,0.0,30.0,3.0,0.0
7355,43.0,0.0,30.0,14.0,0.0
7356,67.0,0.0,30.0,3.0,0.0
7357,60.0,0.0,30.0,3.0,0.0
7358,48.0,4.0,30.0,14.0,0.0
7359,67.0,0.0,30.0,3.0,0.0
7360,60.0,0.0,30.0,13.0,0.0
7361,48.0,0.0,30.0,15.0,0.0
7362,76.0,0.0,30.0,2.0,0.0
7363,84.0,36.0,30.0,2.0,0.0
7364,76.0,36.0,30.0,2.0,0.0
7365,84.0,0.0,30.0,2.0,0.0
7366,40.0,0.0,30.0,14.0,0.0
7367,52.0,0.0,30.0,13.0,0.0
7368,60.0,0.0,30.0,3.0,0.0
7369,40.0,4.0,30.0,15.0,0.0
7370,67.0,0.0,30.0,3.0,0.0
7371,60.0,0.0,30.0,3.0,0.0
7372,43.0,0.0,30.0,15.0,0.0
7373,84.0,0.0,30.0,2.0,0.0
7374,76.0,36.0,30.0,2.0,0.0
7375,43.0,4.0,30.0,14.0,0.0
7376,55.0,0.0,30.0,13.0,0.0
7377,67.0,0.0,30.0,3.0,0.0
7378,67.0,0.0,30.0,3.0,0.0
7379,60.0,0.0,30.0,13.0,0.0
7380,76.0,36.0,30.0,2.0,0.0
7381,84.0,0.0,30.0,2.0,0.0
7382,60.0,0.0,30.0,3.0,0.0
7383,48.0,0.0,30.0,14.0,0.0
7384,48.0,4.0,30.0,15.0,0.0
7385,52.0,4.0,30.0,13.0,0.0
7386,40.0,0.0,30.0,14.0,0.0
7387,76.0,0.0,30.0,2.0,0.0
7388,84.0,0.0,30.0,2.0,0.0
7389,40.0,0.0,30.0,15.0,0.0
7390,67.0,36.0,30.0,3.0,0.0
7391,60.0,0.0,30.0,3.0,0.0
7392,67.0,0.0,30.0,3.0,0.0
7393,84.0,0.0,30.0,2.0,0.0
7394,76.0,0.0,30.0,2.0,0.0
7395,60.0,36.0,30.0,3.0,0.0
7396,55.0,4.0,30.0,13.0,0.0
7397,43.0,0.0,30.0,15.0,0.0
7398,43.0,0.0,30.0,14.0,0.0
7399,60.0,4.0,30.0,13.0,0.0
7400,84.0,0.0,30.0,2.0,0.0
7401,60.0,0.0,30.0,3.0,0.0
7402,67.0,36.0,30.0,3.0,0.0
7403,48.0,0.0,30.0,14.0,0.0
7404,76.0,0.0,30.0,2.0,0.0
7405,36.0,0.0,30.0,15.0,0.0
7406,84.0,0.0,30.0,2.0,0.0
7407,64.0,4.0,30.0,13.0,0.0
7408,76.0,36.0,30.0,2.0,0.0
7409,60.0,0.0,30.0,3.0,0.0
7410,67.0,0.0,30.0,3.0,0.0
7411,40.0,0.0,30.0,15.0,0.0
7412,52.0,0.0,30.0,14.0,0.0
7413,55.0,0.0,30.0,14.0,0.0
7414,84.0,0.0,30.0,2.0,0.0
7415,76.0,0.0,30.0,2.0,0.0
7416,67.0,4.0,30.0,13.0,0.0
7417,60.0,36.0,30.0,3.0,0.0
7418,43.0,0.0,30.0,15.0,0.0
7419,67.0,0.0,30.0,3.0,0.0
7420,79.0,0.0,30.0,1.0,0.0
7421,76.0,0.0,30.0,1.0,0.0
7422,52.0,32.0,30.0,6.0,0.0
7423,84.0,0.0,30.0,0.0,0.0
7424,48.0,0.0,30.0,15.0,0.0
7425,64.0,0.0,30.0,5.0,0.0
7426,72.0,0.0,30.0,11.0,0.0
7427,76.0,0.0,30.0,2.0,0.0
7428,84.0,0.0,30.0,2.0,0.0
7429,60.0,4.0,30.0,14.0,0.0
7430,72.0,0.0,30.0,12.0,0.0
7431,72.0,0.0,30.0,13.0,0.0
7432,76.0,0.0,30.0,5.0,0.0
7433,67.0,4.0,30.0,3.0,0.0
7434,60.0,0.0,30.0,3.0,0.0
7435,64.0,0.0,30.0,4.0,0.0
7436,60.0,4.0,30.0,3.0,0.0
7437,84.0,0.0,30.0,2.0,0.0
7438,76.0,0.0,30.0,2.0,0.0
7439,60.0,0.0,30.0,14.0,0.0
7440,67.0,4.0,30.0,13.0,0.0
7441,64.0,0.0,30.0,13.0,0.0
7442,64.0,32.0,30.0,5.0,0.0
7443,76.0,0.0,30.0,5.0,0.0
7444,48.0,0.0,30.0,15.0,0.0
7445,67.0,0.0,30.0,3.0,0.0
7446,64.0,0.0,30.0,4.0,0.0
7447,79.0,0.0,30.0,1.0,0.0
7448,84.0,0.0,30.0,0.0,0.0
7449,52.0,0.0,30.0,6.0,0.0
7450,64.0,0.0,30.0,11.0,0.0
7451,64.0,0.0,30.0,12.0,0.0
7452,76.0,0.0,30.0,1.0,0.0
7453,64.0,0.0,30.0,4.0,0.0
7454,67.0,0.0,30.0,11.0,0.0
7455,79.0,0.0,30.0,1.0,0.0
7456,76.0,0.0,30.0,1.0,0.0
7457,60.0,0.0,30.0,14.0,0.0
7458,52.0,32.0,30.0,6.0,0.0
7459,64.0,0.0,30.0,5.0,0.0
7460,84.0,0.0,30.0,2.0,0.0
7461,76.0,0.0,30.0,5.0,0.0
7462,60.0,0.0,30.0,3.0,0.0
7463,67.0,0.0,30.0,3.0,0.0
7464,67.0,0.0,30.0,12.0,0.0
7465,67.0,4.0,30.0,13.0,0.0
7466,64.0,0.0,30.0,13.0,0.0
7467,76.0,0.0,30.0,2.0,0.0
7468,48.0,0.0,30.0,15.0,0.0
7469,84.0,4.0,30.0,0.0,0.0
7470,60.0,0.0,30.0,14.0,0.0
7471,84.0,0.0,30.0,2.0,0.0
7472,76.0,0.0,30.0,2.0,0.0
7473,79.0,0.0,30.0,1.0,0.0
7474,76.0,0.0,30.0,1.0,0.0
7475,72.0,0.0,30.0,12.0,0.0
7476,67.0,0.0,30.0,3.0,0.0
7477,60.0,36.0,30.0,3.0,0.0
7478,67.0,0.0,30.0,13.0,0.0
7479,48.0,0.0,30.0,15.0,0.0
7480,64.0,0.0,120.0,5.0,0.0
7481,64.0,4.0,30.0,13.0,0.0
7482,76.0,0.0,120.0,5.0,0.0
7483,64.0,0.0,30.0,4.0,0.0
7484,52.0,32.0,120.0,6.0,0.0
7485,84.0,0.0,30.0,0.0,0.0
7486,72.0,0.0,30.0,11.0,0.0
7487,76.0,0.0,30.0,12.0,0.0
7488,67.0,0.0,30.0,12.0,0.0
7489,64.0,4.0,30.0,13.0,0.0
7490,67.0,0.0,30.0,13.0,0.0
7491,60.0,0.0,30.0,14.0,0.0
7492,64.0,0.0,30.0,4.0,0.0
7493,76.0,0.0,30.0,2.0,0.0
7494,76.0,0.0,30.0,1.0,0.0
7495,79.0,0.0,30.0,1.0,0.0
7496,48.0,0.0,30.0,15.0,0.0
7497,84.0,36.0,30.0,0.0,0.0
7498,67.0,0.0,30.0,3.0,0.0
7499,60.0,0.0,30.0,3.0,0.0
7500,64.0,0.0,30.0,11.0,0.0
7501,84.0,0.0,30.0,2.0,0.0
7502,84.0,0.0,30.0,0.0,0.0
7503,67.0,0.0,30.0,12.0,0.0
7504,48.0,0.0,30.0,15.0,0.0
7505,67.0,0.0,30.0,3.0,0.0
7506,60.0,0.0,30.0,3.0,0.0
7507,76.0,0.0,30.0,12.0,0.0
7508,84.0,0.0,30.0,2.0,0.0
7509,60.0,4.0,30.0,14.0,0.0
7510,64.0,0.0,30.0,4.0,0.0
7511,79.0,4.0,30.0,1.0,0.0
7512,76.0,0.0,30.0,2.0,0.0
7513,64.0,0.0,30.0,13.0,0.0
7514,76.0,0.0,30.0,1.0,0.0
7515,67.0,0.0,30.0,11.0,0.0
7516,67.0,0.0,30.0,13.0,0.0
7517,67.0,0.0,30.0,3.0,0.0
7518,64.0,0.0,30.0,4.0,0.0
7519,84.0,0.0,30.0,2.0,0.0
7520,64.0,0.0,30.0,13.0,0.0
7521,67.0,0.0,30.0,13.0,0.0
7522,43.0,0.0,30.0,15.0,0.0
7523,76.0,0.0,30.0,2.0,0.0
7524,55.0,0.0,30.0,14.0,0.0
7525,60.0,36.0,30.0,3.0,0.0
7526,72.0,0.0,30.0,11.0,0.0
7527,67.0,0.0,30.0,12.0,0.0
7528,52.0,30.0,120.0,6.0,0.0
7529,76.0,4.0,30.0,12.0,0.0
7530,64.0,0.0,120.0,5.0,0.0
7531,76.0,0.0,120.0,5.0,0.0
7532,84.0,0.0,30.0,0.0,0.0
7533,76.0,0.0,30.0,1.0,0.0
7534,79.0,0.0,30.0,1.0,0.0
7535,79.0,0.0,30.0,1.0,0.0
7536,76.0,0.0,30.0,1.0,0.0
7537,67.0,0.0,30.0,13.0,0.0
7538,76.0,0.0,30.0,11.0,0.0
7539,76.0,0.0,30.0,2.0,0.0
7540,60.0,0.0,30.0,3.0,0.0
7541,67.0,0.0,30.0,3.0,0.0
7542,84.0,36.0,30.0,2.0,0.0
7543,43.0,0.0,30.0,15.0,0.0
7544,64.0,0.0,30.0,13.0,0.0
7545,67.0,0.0,30.0,12.0,0.0
7546,64.0,0.0,30.0,4.0,0.0
7547,86.0,0.0,30.0,0.0,0.0
7548,76.0,4.0,30.0,12.0,0.0
7549,55.0,0.0,30.0,14.0,0.0
7550,43.0,0.0,30.0,15.0,0.0
7551,55.0,0.0,30.0,14.0,0.0
7552,76.0,0.0,30.0,12.0,0.0
7553,67.0,0.0,30.0,13.0,0.0
7554,64.0,4.0,30.0,13.0,0.0
7555,79.0,0.0,30.0,11.0,0.0
7556,64.0,4.0,30.0,4.0,0.0
7557,84.0,0.0,30.0,2.0,0.0
7558,60.0,0.0,30.0,3.0,0.0
7559,76.0,0.0,30.0,1.0,0.0
7560,79.0,0.0,30.0,1.0,0.0
7561,67.0,0.0,30.0,3.0,0.0
7562,67.0,0.0,30.0,12.0,0.0
7563,84.0,0.0,30.0,0.0,0.0
7564,76.0,0.0,30.0,2.0,0.0
7565,76.0,0.0,30.0,11.0,0.0
7566,52.0,0.0,30.0,14.0,0.0
7567,60.0,2.0,30.0,3.0,0.0
7568,84.0,0.0,30.0,11.0,0.0
7569,76.0,0.0,120.0,5.0,0.0
7570,52.0,120.0,120.0,6.0,0.0
7571,64.0,0.0,30.0,4.0,0.0
7572,67.0,0.0,30.0,13.0,0.0
7573,64.0,0.0,30.0,13.0,0.0
7574,40.0,0.0,30.0,15.0,0.0
7575,76.0,0.0,30.0,12.0,0.0
7576,76.0,0.0,30.0,1.0,0.0
7577,79.0,34.0,30.0,1.0,0.0
7578,67.0,4.0,30.0,12.0,0.0
7579,84.0,0.0,30.0,0.0,0.0
7580,64.0,0.0,120.0,5.0,0.0
7581,72.0,0.0,30.0,2.0,0.0
7582,76.0,0.0,30.0,12.0,0.0
7583,40.0,0.0,30.0,15.0,0.0
7584,76.0,0.0,30.0,11.0,0.0
7585,84.0,0.0,30.0,11.0,0.0
7586,64.0,0.0,30.0,4.0,0.0
7587,76.0,34.0,30.0,1.0,0.0
7588,79.0,0.0,30.0,1.0,0.0
7589,52.0,0.0,30.0,14.0,0.0
7590,76.0,0.0,30.0,2.0,0.0
7591,64.0,0.0,30.0,13.0,0.0
7592,67.0,4.0,30.0,13.0,0.0
7593,67.0,0.0,30.0,12.0,0.0
7594,76.0,0.0,30.0,0.0,0.0
7595,88.0,0.0,30.0,0.0,0.0
7596,64.0,2.0,30.0,3.0,0.0
7597,52.0,0.0,30.0,14.0,0.0
7598,79.0,2.0,30.0,0.0,0.0
7599,79.0,4.0,30.0,1.0,0.0
7600,76.0,0.0,30.0,1.0,0.0
7601,64.0,4.0,30.0,13.0,0.0
7602,84.0,0.0,30.0,11.0,0.0
7603,79.0,0.0,30.0,2.0,0.0
7604,67.0,0.0,30.0,12.0,0.0
7605,67.0,0.0,30.0,13.0,0.0
7606,91.0,0.0,30.0,0.0,0.0
7607,64.0,0.0,30.0,4.0,0.0
7608,67.0,0.0,30.0,3.0,0.0
7609,40.0,0.0,30.0,15.0,0.0
7610,76.0,0.0,30.0,11.0,0.0
7611,76.0,0.0,30.0,12.0,0.0
7612,84.0,0.0,120.0,0.0,0.0
7613,67.0,0.0,120.0,12.0,0.0
7614,76.0,0.0,120.0,12.0,0.0
7615,96.0,0.0,120.0,0.0,0.0
7616,84.0,0.0,120.0,2.0,0.0
7617,48.0,0.0,120.0,14.0,0.0
7618,60.0,0.0,120.0,3.0,0.0
7619,72.0,206.0,120.0,3.0,0.0
7620,72.0,0.0,120.0,2.0,0.0
7621,64.0,0.0,120.0,13.0,0.0
7622,84.0,0.0,120.0,11.0,0.0
7623,64.0,0.0,120.0,4.0,0.0
7624,76.0,0.0,120.0,1.0,0.0
7625,79.0,0.0,120.0,1.0,0.0
7626,76.0,0.0,120.0,5.0,0.0
7627,64.0,0.0,120.0,5.0,0.0
7628,52.0,0.0,120.0,6.0,0.0
7629,76.0,0.0,120.0,11.0,0.0
7630,67.0,0.0,120.0,13.0,0.0
7631,36.0,0.0,120.0,15.0,0.0
7632,72.0,0.0,90.0,2.0,0.0
7633,60.0,0.0,90.0,3.0,0.0
7634,84.0,30.0,90.0,0.0,0.0
7635,88.0,0.0,30.0,0.0,0.0
7636,64.0,124.0,30.0,3.0,0.0
7637,76.0,0.0,30.0,2.0,0.0
7638,67.0,0.0,330.0,3.0,0.0
7639,67.0,0.0,120.0,13.0,0.0
7640,43.0,0.0,120.0,15.0,0.0
7641,67.0,0.0,120.0,12.0,0.0
7642,74.0,0.0,120.0,12.0,0.0
7643,83.0,0.0,120.0,12.0,0.0
7644,79.0,135.0,330.0,1.0,0.0
7645,79.0,0.0,330.0,0.0,0.0
7646,79.0,0.0,120.0,11.0,0.0
7647,79.0,0.0,330.0,2.0,0.0
7648,71.0,0.0,120.0,11.0,0.0
7649,86.0,0.0,120.0,11.0,0.0
7650,55.0,225.0,120.0,14.0,0.0
7651,91.0,0.0,330.0,0.0,0.0
7652,72.0,0.0,120.0,11.0,0.0
7653,76.0,0.0,120.0,2.0,0.0
7654,64.0,0.0,120.0,4.0,0.0
7655,52.0,0.0,120.0,6.0,0.0
7656,48.0,0.0,120.0,15.0,0.0
7657,60.0,0.0,120.0,14.0,0.0
7658,76.0,0.0,120.0,5.0,0.0
7659,88.0,0.0,120.0,0.0,0.0
7660,76.0,0.0,120.0,0.0,0.0
7661,72.0,0.0,120.0,13.0,0.0
7662,64.0,0.0,120.0,5.0,0.0
7663,76.0,0.0,120.0,1.0,0.0
7664,76.0,0.0,120.0,12.0,0.0
7665,64.0,0.0,120.0,3.0,0.0
7666,67.0,0.0,120.0,12.0,0.0
7667,88.0,0.0,120.0,11.0,0.0
7668,79.0,0.0,120.0,11.0,0.0
7669,84.0,210.0,120.0,12.0,0.0
7670,67.0,0.0,90.0,12.0,0.0
7671,83.0,0.0,90.0,0.0,0.0
7672,91.0,0.0,90.0,0.0,0.0
7673,86.0,0.0,90.0,11.0,0.0
7674,71.0,0.0,90.0,11.0,0.0
7675,79.0,0.0,90.0,11.0,0.0
7676,67.0,120.0,90.0,13.0,0.0
7677,79.0,0.0,90.0,1.0,0.0
7678,71.0,0.0,90.0,1.0,0.0
7679,71.0,0.0,90.0,2.0,0.0
7680,74.0,0.0,90.0,12.0,0.0
7681,55.0,0.0,90.0,14.0,0.0
7682,74.0,0.0,90.0,2.0,0.0
7683,67.0,0.0,90.0,3.0,0.0
7684,59.0,0.0,90.0,3.0,0.0
7685,43.0,0.0,90.0,15.0,0.0
7686,83.0,0.0,90.0,12.0,0.0
7687,72.0,0.0,90.0,13.0,0.0
7688,48.0,0.0,90.0,15.0,0.0
7689,88.0,0.0,90.0,0.0,0.0
7690,76.0,0.0,90.0,2.0,0.0
7691,79.0,0.0,90.0,11.0,0.0
7692,72.0,0.0,90.0,11.0,0.0
7693,88.0,0.0,90.0,11.0,0.0
7694,72.0,0.0,90.0,2.0,0.0
7695,60.0,0.0,90.0,14.0,0.0
7696,60.0,0.0,90.0,3.0,0.0
7697,67.0,0.0,90.0,12.0,0.0
7698,76.0,0.0,90.0,12.0,0.0
7699,84.0,0.0,90.0,12.0,0.0
7700,72.0,0.0,90.0,1.0,0.0
7701,76.0,0.0,90.0,1.0,0.0
7702,84.0,236.0,90.0,0.0,0.0
7703,64.0,0.0,90.0,3.0,0.0
7704,84.0,0.0,90.0,0.0,0.0
7705,60.0,30.0,90.0,3.0,0.0
7706,72.0,0.0,90.0,2.0,0.0
7707,72.0,0.0,90.0,1.0,0.0
7708,76.0,0.0,30.0,2.0,0.0
7709,88.0,0.0,30.0,0.0,0.0
7710,64.0,0.0,30.0,3.0,0.0
7711,76.0,124.0,30.0,1.0,0.0
7712,79.0,0.0,360.0,0.0,0.0
7713,83.0,0.0,120.0,12.0,0.0
7714,74.0,0.0,120.0,12.0,0.0
7715,67.0,0.0,120.0,12.0,0.0
7716,43.0,0.0,120.0,15.0,0.0
7717,91.0,0.0,360.0,0.0,0.0
7718,79.0,0.0,360.0,1.0,0.0
7719,55.0,232.0,120.0,14.0,0.0
7720,67.0,0.0,120.0,13.0,0.0
7721,83.0,0.0,120.0,11.0,0.0
7722,74.0,0.0,120.0,11.0,0.0
7723,67.0,0.0,120.0,11.0,0.0
7724,79.0,128.0,360.0,2.0,0.0
7725,67.0,0.0,360.0,3.0,0.0
7726,76.0,0.0,120.0,12.0,0.0
7727,67.0,0.0,120.0,12.0,0.0
7728,60.0,0.0,120.0,11.0,0.0
7729,60.0,0.0,120.0,12.0,0.0
7730,84.0,0.0,120.0,11.0,0.0
7731,36.0,0.0,120.0,15.0,0.0
7732,84.0,0.0,120.0,12.0,0.0
7733,52.0,0.0,120.0,6.0,0.0
7734,64.0,0.0,120.0,5.0,0.0
7735,76.0,0.0,120.0,5.0,0.0
7736,84.0,0.0,120.0,0.0,0.0
7737,72.0,0.0,120.0,0.0,0.0
7738,60.0,0.0,120.0,13.0,0.0
7739,64.0,301.0,120.0,4.0,0.0
7740,60.0,0.0,120.0,3.0,0.0
7741,84.0,0.0,120.0,1.0,0.0
7742,76.0,0.0,120.0,1.0,0.0
7743,48.0,0.0,120.0,14.0,0.0
7744,72.0,0.0,120.0,2.0,0.0
7745,67.0,0.0,120.0,11.0,0.0
7746,76.0,0.0,120.0,11.0,0.0
7747,83.0,0.0,60.0,2.0,0.0
