,note,step,duration,channel,velocity
0,42.0,0.0,210.0,10.0,0.0
1,72.0,8.0,150.0,0.0,0.0
2,80.0,2.0,120.0,0.0,0.0
3,56.0,0.0,240.0,6.0,0.0
4,68.0,0.0,240.0,6.0,0.0
5,60.0,0.0,240.0,2.0,0.0
6,30.0,0.0,210.0,11.0,0.0
7,54.0,16.0,150.0,8.0,0.0
8,42.0,0.0,210.0,3.0,0.0
9,68.0,0.0,240.0,2.0,0.0
10,60.0,20.0,180.0,4.0,0.0
11,72.0,28.0,210.0,1.0,0.0
12,60.0,0.0,210.0,8.0,0.0
13,68.0,10.0,210.0,1.0,0.0
14,44.0,0.0,240.0,7.0,0.0
15,44.0,0.0,240.0,5.0,0.0
16,56.0,2800.0,240.0,5.0,0.0
17,56.0,10.0,150.0,4.0,0.0
18,51.0,10.0,150.0,8.0,0.0
19,73.0,10.0,150.0,0.0,0.0
20,41.0,6.0,210.0,3.0,0.0
21,61.0,24.0,210.0,4.0,0.0
22,61.0,6.0,180.0,8.0,0.0
23,68.0,0.0,240.0,2.0,0.0
24,61.0,120.0,240.0,2.0,0.0
25,56.0,14.0,210.0,4.0,0.0
26,68.0,0.0,240.0,6.0,0.0
27,56.0,0.0,240.0,6.0,0.0
28,73.0,2.0,180.0,1.0,0.0
29,44.0,2654.0,360.0,5.0,0.0
30,53.0,2.0,150.0,8.0,0.0
31,41.0,0.0,210.0,10.0,0.0
32,68.0,8.0,180.0,1.0,0.0
33,80.0,2.0,180.0,0.0,0.0
34,44.0,0.0,360.0,7.0,0.0
35,29.0,0.0,210.0,11.0,0.0
36,56.0,0.0,360.0,5.0,0.0
37,68.0,2.0,150.0,1.0,0.0
38,74.0,6.0,150.0,1.0,0.0
39,40.0,0.0,270.0,3.0,0.0
40,62.0,60.0,180.0,8.0,0.0
41,52.0,2.0,150.0,8.0,0.0
42,56.0,6.0,150.0,4.0,0.0
43,62.0,6.0,180.0,4.0,0.0
44,62.0,0.0,240.0,2.0,0.0
45,68.0,30.0,240.0,2.0,0.0
46,44.0,0.0,120.0,7.0,0.0
47,68.0,0.0,120.0,6.0,0.0
48,40.0,0.0,270.0,10.0,0.0
49,44.0,0.0,120.0,5.0,0.0
50,56.0,0.0,120.0,5.0,0.0
51,80.0,8.0,150.0,0.0,0.0
52,56.0,8.0,120.0,6.0,0.0
53,28.0,794.0,270.0,11.0,0.0
54,86.0,4.0,150.0,0.0,0.0
55,40.0,16.0,150.0,11.0,0.0
56,44.0,22.0,90.0,7.0,0.0
57,68.0,6.0,180.0,8.0,0.0
58,68.0,0.0,90.0,6.0,0.0
59,56.0,0.0,90.0,6.0,0.0
60,68.0,0.0,240.0,2.0,0.0
61,62.0,832.0,240.0,2.0,0.0
62,74.0,30.0,180.0,8.0,0.0
63,74.0,4.0,150.0,1.0,0.0
64,56.0,0.0,90.0,5.0,0.0
65,44.0,0.0,90.0,5.0,0.0
66,56.0,8.0,180.0,4.0,0.0
67,52.0,0.0,150.0,10.0,0.0
68,68.0,8.0,120.0,1.0,0.0
69,52.0,4.0,150.0,8.0,0.0
70,52.0,0.0,150.0,3.0,0.0
71,68.0,26.0,210.0,4.0,0.0
72,80.0,8.0,120.0,0.0,0.0
73,56.0,0.0,120.0,5.0,0.0
74,44.0,0.0,120.0,5.0,0.0
75,68.0,2.0,150.0,1.0,0.0
76,68.0,2.0,150.0,8.0,0.0
77,52.0,8.0,120.0,8.0,0.0
78,52.0,0.0,150.0,3.0,0.0
79,52.0,4.0,150.0,10.0,0.0
80,56.0,0.0,150.0,4.0,0.0
81,68.0,0.0,240.0,2.0,0.0
82,62.0,810.0,240.0,2.0,0.0
83,68.0,56.0,180.0,4.0,0.0
84,74.0,20.0,150.0,8.0,0.0
85,74.0,4.0,150.0,1.0,0.0
86,68.0,0.0,120.0,6.0,0.0
87,56.0,0.0,120.0,6.0,0.0
88,80.0,4.0,150.0,0.0,0.0
89,86.0,8.0,150.0,0.0,0.0
90,44.0,20.0,120.0,7.0,0.0
91,40.0,0.0,150.0,11.0,0.0
92,55.0,38.0,120.0,4.0,0.0
93,67.0,10.0,150.0,4.0,0.0
94,63.0,0.0,90.0,6.0,0.0
95,39.0,0.0,90.0,5.0,0.0
96,51.0,0.0,90.0,5.0,0.0
97,63.0,0.0,240.0,2.0,0.0
98,67.0,672.0,240.0,2.0,0.0
99,75.0,2.0,210.0,8.0,0.0
100,67.0,36.0,210.0,8.0,0.0
101,58.0,0.0,180.0,8.0,0.0
102,87.0,8.0,180.0,0.0,0.0
103,79.0,2.0,180.0,0.0,0.0
104,39.0,6.0,180.0,11.0,0.0
105,39.0,34.0,90.0,7.0,0.0
106,67.0,2.0,180.0,1.0,0.0
107,51.0,8.0,180.0,8.0,0.0
108,51.0,0.0,90.0,6.0,0.0
109,51.0,0.0,180.0,10.0,0.0
110,51.0,0.0,180.0,3.0,0.0
111,75.0,4.0,180.0,1.0,0.0
112,51.0,6.0,90.0,2.0,0.0
113,39.0,0.0,90.0,7.0,0.0
114,51.0,0.0,90.0,6.0,0.0
115,75.0,2.0,90.0,1.0,0.0
116,39.0,0.0,90.0,3.0,0.0
117,39.0,18.0,90.0,10.0,0.0
118,27.0,0.0,90.0,11.0,0.0
119,51.0,0.0,90.0,5.0,0.0
120,39.0,0.0,90.0,5.0,0.0
121,51.0,0.0,90.0,8.0,0.0
122,51.0,54.0,120.0,4.0,0.0
123,63.0,6.0,90.0,1.0,0.0
124,63.0,0.0,90.0,6.0,0.0
125,75.0,10.0,60.0,0.0,0.0
126,39.0,60.0,60.0,7.0,0.0
127,51.0,134.0,2160.0,6.0,0.0
128,39.0,0.0,2280.0,3.0,0.0
129,51.0,0.0,2280.0,2.0,0.0
130,39.0,1690.0,2280.0,10.0,0.0
131,63.0,0.0,2160.0,6.0,0.0
132,51.0,0.0,2280.0,4.0,0.0
133,75.0,0.0,2280.0,0.0,0.0
134,63.0,0.0,2280.0,1.0,0.0
135,75.0,0.0,2280.0,1.0,0.0
136,51.0,0.0,2280.0,8.0,0.0
137,27.0,0.0,2280.0,11.0,0.0
138,39.0,0.0,2160.0,5.0,0.0
139,51.0,0.0,2160.0,5.0,0.0
140,39.0,60.0,60.0,7.0,0.0
141,39.0,60.0,60.0,7.0,0.0
142,39.0,60.0,60.0,7.0,0.0
143,39.0,60.0,60.0,7.0,0.0
144,39.0,60.0,60.0,7.0,0.0
145,39.0,60.0,60.0,7.0,0.0
146,39.0,60.0,60.0,7.0,0.0
147,39.0,60.0,60.0,7.0,0.0
148,39.0,60.0,60.0,7.0,0.0
149,39.0,60.0,60.0,7.0,0.0
150,39.0,60.0,60.0,7.0,0.0
151,39.0,60.0,60.0,7.0,0.0
152,39.0,60.0,60.0,7.0,0.0
153,39.0,60.0,60.0,7.0,0.0
154,39.0,60.0,60.0,7.0,0.0
155,39.0,60.0,60.0,7.0,0.0
156,39.0,60.0,60.0,7.0,0.0
157,39.0,60.0,60.0,7.0,0.0
158,39.0,60.0,60.0,7.0,0.0
159,39.0,60.0,60.0,7.0,0.0
160,39.0,60.0,60.0,7.0,0.0
161,39.0,0.0,60.0,7.0,0.0
162,39.0,60.0,60.0,7.0,0.0
163,39.0,60.0,60.0,7.0,0.0
164,39.0,60.0,60.0,7.0,0.0
165,39.0,60.0,60.0,7.0,0.0
166,39.0,60.0,60.0,7.0,0.0
167,39.0,60.0,60.0,7.0,0.0
168,39.0,60.0,60.0,7.0,0.0
169,39.0,60.0,60.0,7.0,0.0
170,39.0,60.0,60.0,7.0,0.0
171,39.0,60.0,60.0,7.0,0.0
172,39.0,118.0,60.0,7.0,0.0
173,48.0,28.0,870.0,8.0,0.0
174,44.0,730.0,120.0,7.0,0.0
175,32.0,0.0,1920.0,11.0,0.0
176,44.0,36.0,1920.0,10.0,0.0
177,51.0,0.0,960.0,5.0,0.0
178,44.0,72.0,900.0,8.0,0.0
179,63.0,0.0,1650.0,4.0,0.0
180,51.0,262.0,1650.0,4.0,0.0
181,56.0,39.0,1080.0,8.0,0.0
182,48.0,22.0,1020.0,8.0,0.0
183,56.0,12.0,960.0,5.0,0.0
184,68.0,0.0,960.0,1.0,0.0
185,63.0,97.0,15.0,1.0,0.0
186,48.0,0.0,960.0,5.0,0.0
187,51.0,601.0,90.0,8.0,0.0
188,39.0,663.0,180.0,7.0,0.0
189,39.0,0.0,1050.0,10.0,0.0
190,58.0,0.0,960.0,5.0,0.0
191,58.0,7.0,1140.0,8.0,0.0
192,27.0,101.0,1050.0,11.0,0.0
193,51.0,0.0,960.0,5.0,0.0
194,63.0,0.0,840.0,4.0,0.0
195,51.0,131.0,840.0,4.0,0.0
196,55.0,0.0,960.0,8.0,0.0
197,46.0,46.0,990.0,8.0,0.0
198,67.0,34.0,960.0,1.0,0.0
199,70.0,0.0,960.0,1.0,0.0
200,48.0,110.0,1830.0,8.0,0.0
201,56.0,4.0,1830.0,8.0,0.0
202,56.0,80.0,840.0,5.0,0.0
203,60.0,0.0,840.0,5.0,0.0
204,68.0,0.0,840.0,1.0,0.0
205,72.0,0.0,840.0,1.0,0.0
206,32.0,118.0,1710.0,11.0,0.0
207,63.0,0.0,1650.0,4.0,0.0
208,51.0,54.0,1650.0,4.0,0.0
209,44.0,644.0,210.0,7.0,0.0
210,44.0,0.0,1710.0,10.0,0.0
211,58.0,49.0,120.0,5.0,0.0
212,70.0,689.0,180.0,1.0,0.0
213,67.0,0.0,180.0,1.0,0.0
214,51.0,0.0,120.0,5.0,0.0
215,68.0,16.0,990.0,1.0,0.0
216,48.0,67.0,990.0,5.0,0.0
217,63.0,0.0,990.0,1.0,0.0
218,56.0,0.0,990.0,5.0,0.0
219,60.0,7.0,120.0,8.0,0.0
220,32.0,16.0,960.0,11.0,0.0
221,44.0,0.0,960.0,10.0,0.0
222,48.0,101.0,990.0,8.0,0.0
223,56.0,715.0,120.0,8.0,0.0
224,51.0,141.0,840.0,4.0,0.0
225,63.0,0.0,840.0,4.0,0.0
226,46.0,2.0,1950.0,8.0,0.0
227,51.0,17.0,990.0,8.0,0.0
228,63.0,214.0,1650.0,4.0,0.0
229,51.0,0.0,1650.0,4.0,0.0
230,70.0,40.0,960.0,1.0,0.0
231,31.0,0.0,750.0,11.0,0.0
232,51.0,30.0,930.0,5.0,0.0
233,63.0,0.0,930.0,1.0,0.0
234,43.0,194.0,750.0,10.0,0.0
235,27.0,224.0,990.0,11.0,0.0
236,58.0,0.0,15.0,5.0,0.0
237,39.0,0.0,990.0,10.0,0.0
238,61.0,0.0,900.0,5.0,0.0
239,58.0,435.0,60.0,8.0,0.0
240,39.0,206.0,480.0,7.0,0.0
241,73.0,0.0,960.0,1.0,0.0
242,70.0,0.0,960.0,1.0,0.0
243,63.0,141.0,840.0,4.0,0.0
244,51.0,0.0,840.0,4.0,0.0
245,44.0,70.0,420.0,7.0,0.0
246,61.0,0.0,270.0,5.0,0.0
247,58.0,18.0,300.0,8.0,0.0
248,44.0,6.0,960.0,10.0,0.0
249,48.0,358.0,1080.0,8.0,0.0
250,61.0,36.0,15.0,8.0,0.0
251,73.0,34.0,270.0,1.0,0.0
252,70.0,0.0,300.0,1.0,0.0
253,58.0,9.0,300.0,5.0,0.0
254,32.0,0.0,960.0,11.0,0.0
255,60.0,48.0,300.0,5.0,0.0
256,56.0,36.0,270.0,8.0,0.0
257,68.0,22.0,240.0,1.0,0.0
258,72.0,0.0,300.0,1.0,0.0
259,56.0,0.0,240.0,5.0,0.0
260,60.0,154.0,360.0,8.0,0.0
261,55.0,42.0,270.0,8.0,0.0
262,70.0,0.0,300.0,1.0,0.0
263,67.0,4.0,270.0,1.0,0.0
264,58.0,29.0,330.0,8.0,0.0
265,55.0,0.0,270.0,5.0,0.0
266,58.0,8.0,300.0,5.0,0.0
267,60.0,24.0,270.0,8.0,0.0
268,56.0,66.0,300.0,8.0,0.0
269,68.0,0.0,270.0,1.0,0.0
270,72.0,0.0,270.0,1.0,0.0
271,56.0,0.0,270.0,5.0,0.0
272,60.0,10.0,270.0,5.0,0.0
273,58.0,107.0,1020.0,8.0,0.0
274,27.0,0.0,1110.0,11.0,0.0
275,39.0,543.0,480.0,7.0,0.0
276,58.0,0.0,1800.0,5.0,0.0
277,51.0,30.0,1800.0,5.0,0.0
278,70.0,0.0,1920.0,1.0,0.0
279,51.0,33.0,1440.0,4.0,0.0
280,63.0,4.0,1440.0,4.0,0.0
281,39.0,266.0,1110.0,10.0,0.0
282,46.0,212.0,1470.0,8.0,0.0
283,55.0,24.0,1380.0,8.0,0.0
284,51.0,11.0,450.0,8.0,0.0
285,27.0,0.0,240.0,11.0,0.0
286,63.0,40.0,390.0,4.0,0.0
287,39.0,126.0,240.0,10.0,0.0
288,51.0,1.0,420.0,8.0,0.0
289,63.0,58.0,360.0,4.0,0.0
290,39.0,0.0,210.0,10.0,0.0
291,27.0,144.0,210.0,11.0,0.0
292,67.0,218.0,15.0,1.0,0.0
293,71.0,86.0,960.0,1.0,0.0
294,51.0,120.0,420.0,8.0,0.0
295,27.0,0.0,270.0,11.0,0.0
296,51.0,202.0,60.0,8.0,0.0
297,63.0,24.0,570.0,4.0,0.0
298,39.0,218.0,270.0,10.0,0.0
299,60.0,795.0,1140.0,4.0,0.0
300,68.0,139.0,1980.0,1.0,0.0
301,60.0,72.0,2100.0,8.0,0.0
302,44.0,0.0,1050.0,10.0,0.0
303,72.0,73.0,1050.0,1.0,0.0
304,48.0,4.0,1920.0,5.0,0.0
305,56.0,0.0,1920.0,5.0,0.0
306,44.0,0.0,720.0,7.0,0.0
307,32.0,10.0,1050.0,11.0,0.0
308,56.0,0.0,720.0,6.0,0.0
309,68.0,320.0,720.0,6.0,0.0
310,44.0,4.0,1830.0,8.0,0.0
311,48.0,24.0,1800.0,8.0,0.0
312,56.0,191.0,2070.0,8.0,0.0
313,75.0,87.0,1500.0,1.0,0.0
314,36.0,22.0,990.0,11.0,0.0
315,63.0,70.0,1620.0,4.0,0.0
316,48.0,0.0,990.0,10.0,0.0
317,46.0,6.0,990.0,8.0,0.0
318,51.0,0.0,960.0,5.0,0.0
319,55.0,41.0,630.0,8.0,0.0
320,51.0,34.0,930.0,10.0,0.0
321,58.0,16.0,960.0,5.0,0.0
322,39.0,0.0,930.0,11.0,0.0
323,49.0,16.0,990.0,8.0,0.0
324,39.0,0.0,450.0,7.0,0.0
325,51.0,0.0,450.0,6.0,0.0
326,63.0,80.0,450.0,6.0,0.0
327,63.0,192.0,720.0,1.0,0.0
328,58.0,354.0,630.0,8.0,0.0
329,61.0,0.0,630.0,4.0,0.0
330,70.0,82.0,540.0,1.0,0.0
331,73.0,8.0,540.0,1.0,0.0
332,44.0,16.0,2010.0,8.0,0.0
333,48.0,74.0,1920.0,8.0,0.0
334,44.0,0.0,510.0,7.0,0.0
335,72.0,121.0,810.0,1.0,0.0
336,60.0,16.0,960.0,5.0,0.0
337,32.0,944.0,990.0,11.0,0.0
338,60.0,0.0,750.0,4.0,0.0
339,51.0,18.0,15.0,4.0,0.0
340,60.0,32.0,2190.0,8.0,0.0
341,56.0,160.0,2220.0,8.0,0.0
342,56.0,0.0,960.0,5.0,0.0
343,44.0,0.0,990.0,10.0,0.0
344,68.0,6.0,1980.0,1.0,0.0
345,56.0,262.0,510.0,6.0,0.0
346,68.0,0.0,510.0,6.0,0.0
347,75.0,26.0,210.0,1.0,0.0
348,63.0,11.0,15.0,4.0,0.0
349,48.0,0.0,960.0,5.0,0.0
350,48.0,182.0,1050.0,10.0,0.0
351,36.0,0.0,1050.0,11.0,0.0
352,75.0,66.0,1500.0,1.0,0.0
353,56.0,0.0,960.0,5.0,0.0
354,51.0,22.0,960.0,5.0,0.0
355,58.0,0.0,960.0,5.0,0.0
356,39.0,74.0,480.0,7.0,0.0
357,39.0,0.0,870.0,11.0,0.0
358,51.0,0.0,480.0,6.0,0.0
359,63.0,0.0,480.0,6.0,0.0
360,55.0,14.0,600.0,8.0,0.0
361,51.0,84.0,870.0,10.0,0.0
362,49.0,10.0,990.0,8.0,0.0
363,46.0,14.0,990.0,8.0,0.0
364,63.0,19.0,630.0,1.0,0.0
365,61.0,2.0,660.0,4.0,0.0
366,70.0,60.0,540.0,1.0,0.0
367,73.0,24.0,540.0,1.0,0.0
368,58.0,344.0,600.0,8.0,0.0
369,56.0,176.0,810.0,8.0,0.0
370,56.0,0.0,480.0,5.0,0.0
371,60.0,0.0,480.0,5.0,0.0
372,60.0,391.0,1050.0,4.0,0.0
373,60.0,196.0,480.0,3.0,0.0
374,32.0,142.0,690.0,11.0,0.0
375,68.0,0.0,480.0,6.0,0.0
376,56.0,0.0,480.0,6.0,0.0
377,44.0,4.0,480.0,7.0,0.0
378,44.0,262.0,1470.0,8.0,0.0
379,72.0,39.0,1020.0,1.0,0.0
380,44.0,0.0,690.0,10.0,0.0
381,68.0,16.0,990.0,1.0,0.0
382,56.0,0.0,480.0,3.0,0.0
383,77.0,56.0,990.0,1.0,0.0
384,37.0,192.0,780.0,10.0,0.0
385,65.0,38.0,1260.0,1.0,0.0
386,56.0,26.0,480.0,3.0,0.0
387,25.0,0.0,780.0,11.0,0.0
388,65.0,75.0,1140.0,4.0,0.0
389,57.0,38.0,480.0,3.0,0.0
390,45.0,73.0,570.0,8.0,0.0
391,37.0,0.0,660.0,10.0,0.0
392,46.0,6.0,570.0,8.0,0.0
393,75.0,46.0,240.0,1.0,0.0
394,63.0,154.0,330.0,4.0,0.0
395,58.0,9.0,480.0,3.0,0.0
396,25.0,63.0,660.0,11.0,0.0
397,73.0,33.0,240.0,1.0,0.0
398,61.0,98.0,330.0,4.0,0.0
399,60.0,109.0,300.0,4.0,0.0
400,72.0,55.0,240.0,1.0,0.0
401,65.0,61.0,510.0,1.0,0.0
402,49.0,14.0,570.0,8.0,0.0
403,61.0,0.0,480.0,5.0,0.0
404,49.0,0.0,15.0,3.0,0.0
405,58.0,0.0,480.0,5.0,0.0
406,53.0,40.0,30.0,8.0,0.0
407,61.0,0.0,480.0,3.0,0.0
408,58.0,386.0,330.0,4.0,0.0
409,70.0,10.0,240.0,1.0,0.0
410,56.0,0.0,960.0,5.0,0.0
411,60.0,52.0,900.0,1.0,0.0
412,68.0,88.0,990.0,1.0,0.0
413,60.0,0.0,960.0,5.0,0.0
414,27.0,0.0,1080.0,11.0,0.0
415,60.0,428.0,480.0,3.0,0.0
416,39.0,54.0,1080.0,10.0,0.0
417,56.0,30.0,1140.0,4.0,0.0
418,51.0,0.0,1440.0,3.0,0.0
419,48.0,0.0,960.0,8.0,0.0
420,51.0,64.0,1170.0,8.0,0.0
421,62.0,38.0,480.0,3.0,0.0
422,55.0,110.0,270.0,4.0,0.0
423,67.0,445.0,510.0,1.0,0.0
424,46.0,86.0,390.0,8.0,0.0
425,63.0,10.0,390.0,3.0,0.0
426,58.0,25.0,480.0,1.0,0.0
427,58.0,10.0,480.0,5.0,0.0
428,51.0,0.0,480.0,5.0,0.0
429,73.0,410.0,540.0,8.0,0.0
430,53.0,14.0,480.0,3.0,0.0
431,77.0,56.0,480.0,4.0,0.0
432,49.0,0.0,480.0,3.0,0.0
433,48.0,0.0,480.0,3.0,0.0
434,72.0,8.0,540.0,8.0,0.0
435,75.0,402.0,570.0,4.0,0.0
436,51.0,70.0,480.0,3.0,0.0
437,46.0,0.0,480.0,3.0,0.0
438,73.0,0.0,480.0,4.0,0.0
439,49.0,10.0,480.0,3.0,0.0
440,70.0,824.0,480.0,8.0,0.0
441,44.0,126.0,840.0,7.0,0.0
442,56.0,0.0,960.0,5.0,0.0
443,32.0,0.0,1500.0,11.0,0.0
444,80.0,0.0,960.0,0.0,0.0
445,44.0,0.0,960.0,3.0,0.0
446,72.0,0.0,960.0,1.0,0.0
447,68.0,26.0,960.0,1.0,0.0
448,48.0,0.0,960.0,3.0,0.0
449,44.0,10.0,1500.0,10.0,0.0
450,72.0,28.0,990.0,4.0,0.0
451,56.0,0.0,960.0,2.0,0.0
452,68.0,436.0,1020.0,8.0,0.0
453,56.0,40.0,1440.0,8.0,0.0
454,60.0,0.0,15.0,5.0,0.0
455,63.0,0.0,1440.0,5.0,0.0
456,84.0,0.0,15.0,0.0,0.0
457,87.0,22.0,1470.0,0.0,0.0
458,60.0,0.0,15.0,2.0,0.0
459,63.0,0.0,1440.0,2.0,0.0
460,51.0,0.0,1440.0,3.0,0.0
461,48.0,0.0,1440.0,3.0,0.0
462,63.0,0.0,1140.0,6.0,0.0
463,75.0,34.0,1440.0,1.0,0.0
464,72.0,0.0,1440.0,1.0,0.0
465,51.0,74.0,1140.0,6.0,0.0
466,75.0,76.0,330.0,4.0,0.0
467,63.0,24.0,300.0,8.0,0.0
468,44.0,122.0,150.0,7.0,0.0
469,60.0,12.0,510.0,8.0,0.0
470,74.0,196.0,330.0,4.0,0.0
471,48.0,0.0,540.0,10.0,0.0
472,36.0,4.0,540.0,11.0,0.0
473,62.0,34.0,270.0,8.0,0.0
474,75.0,72.0,330.0,4.0,0.0
475,39.0,0.0,540.0,11.0,0.0
476,74.0,8.0,270.0,4.0,0.0
477,39.0,42.0,150.0,7.0,0.0
478,51.0,18.0,540.0,10.0,0.0
479,63.0,30.0,30.0,8.0,0.0
480,62.0,206.0,270.0,8.0,0.0
481,63.0,0.0,270.0,8.0,0.0
482,75.0,50.0,330.0,4.0,0.0
483,63.0,0.0,390.0,6.0,0.0
484,58.0,0.0,450.0,5.0,0.0
485,61.0,0.0,450.0,5.0,0.0
486,39.0,152.0,120.0,7.0,0.0
487,51.0,52.0,390.0,6.0,0.0
488,85.0,28.0,480.0,0.0,0.0
489,46.0,0.0,450.0,3.0,0.0
490,51.0,10.0,510.0,8.0,0.0
491,77.0,52.0,330.0,4.0,0.0
492,82.0,8.0,480.0,0.0,0.0
493,27.0,30.0,510.0,11.0,0.0
494,65.0,48.0,270.0,8.0,0.0
495,58.0,10.0,450.0,2.0,0.0
496,73.0,24.0,450.0,1.0,0.0
497,70.0,0.0,450.0,1.0,0.0
498,61.0,0.0,450.0,2.0,0.0
499,49.0,0.0,450.0,3.0,0.0
500,39.0,0.0,510.0,10.0,0.0
501,79.0,0.0,240.0,4.0,0.0
502,67.0,186.0,300.0,8.0,0.0
503,48.0,0.0,840.0,3.0,0.0
504,56.0,24.0,1440.0,8.0,0.0
505,80.0,92.0,690.0,4.0,0.0
506,44.0,0.0,840.0,3.0,0.0
507,56.0,0.0,840.0,2.0,0.0
508,60.0,0.0,840.0,2.0,0.0
509,68.0,184.0,480.0,8.0,0.0
510,56.0,0.0,840.0,5.0,0.0
511,51.0,72.0,780.0,6.0,0.0
512,84.0,0.0,840.0,0.0,0.0
513,80.0,0.0,840.0,0.0,0.0
514,44.0,240.0,240.0,7.0,0.0
515,63.0,0.0,780.0,6.0,0.0
516,68.0,0.0,840.0,1.0,0.0
517,32.0,0.0,1440.0,11.0,0.0
518,44.0,36.0,1440.0,10.0,0.0
519,87.0,466.0,120.0,0.0,0.0
520,51.0,0.0,120.0,3.0,0.0
521,84.0,0.0,120.0,0.0,0.0
522,60.0,0.0,120.0,2.0,0.0
523,60.0,120.0,15.0,5.0,0.0
524,63.0,0.0,120.0,2.0,0.0
525,72.0,0.0,15.0,1.0,0.0
526,75.0,0.0,120.0,1.0,0.0
527,72.0,0.0,1440.0,1.0,0.0
528,75.0,0.0,1440.0,1.0,0.0
529,63.0,0.0,15.0,5.0,0.0
530,60.0,0.0,15.0,5.0,0.0
531,63.0,0.0,1440.0,2.0,0.0
532,60.0,0.0,1440.0,2.0,0.0
533,48.0,0.0,15.0,3.0,0.0
534,51.0,0.0,1440.0,3.0,0.0
535,87.0,16.0,1440.0,0.0,0.0
536,84.0,0.0,1440.0,0.0,0.0
537,63.0,148.0,300.0,8.0,0.0
538,75.0,2.0,240.0,4.0,0.0
539,36.0,32.0,510.0,11.0,0.0
540,74.0,60.0,240.0,4.0,0.0
541,60.0,0.0,480.0,8.0,0.0
542,48.0,0.0,510.0,10.0,0.0
543,44.0,30.0,210.0,7.0,0.0
544,63.0,0.0,780.0,6.0,0.0
545,51.0,178.0,780.0,6.0,0.0
546,62.0,180.0,300.0,8.0,0.0
547,75.0,38.0,240.0,4.0,0.0
548,39.0,0.0,480.0,11.0,0.0
549,62.0,34.0,240.0,8.0,0.0
550,74.0,28.0,240.0,4.0,0.0
551,39.0,92.0,120.0,7.0,0.0
552,51.0,6.0,480.0,10.0,0.0
553,63.0,78.0,60.0,8.0,0.0
554,75.0,14.0,240.0,4.0,0.0
555,63.0,40.0,270.0,8.0,0.0
556,70.0,0.0,450.0,1.0,0.0
557,73.0,0.0,450.0,1.0,0.0
558,27.0,0.0,480.0,11.0,0.0
559,82.0,20.0,510.0,0.0,0.0
560,85.0,78.0,570.0,0.0,0.0
561,63.0,0.0,390.0,6.0,0.0
562,51.0,70.0,390.0,6.0,0.0
563,46.0,0.0,450.0,3.0,0.0
564,49.0,0.0,450.0,3.0,0.0
565,77.0,70.0,240.0,4.0,0.0
566,61.0,0.0,450.0,5.0,0.0
567,61.0,6.0,450.0,2.0,0.0
568,65.0,88.0,300.0,8.0,0.0
569,58.0,0.0,450.0,2.0,0.0
570,58.0,6.0,450.0,5.0,0.0
571,39.0,24.0,480.0,10.0,0.0
572,39.0,112.0,120.0,7.0,0.0
573,51.0,8.0,480.0,8.0,0.0
574,67.0,38.0,270.0,8.0,0.0
575,79.0,2.0,240.0,4.0,0.0
576,56.0,36.0,390.0,6.0,0.0
577,48.0,0.0,450.0,3.0,0.0
578,56.0,0.0,420.0,2.0,0.0
579,60.0,0.0,450.0,2.0,0.0
580,44.0,30.0,420.0,3.0,0.0
581,44.0,220.0,150.0,7.0,0.0
582,53.0,0.0,450.0,8.0,0.0
583,80.0,22.0,480.0,0.0,0.0
584,60.0,14.0,450.0,5.0,0.0
585,56.0,0.0,420.0,5.0,0.0
586,80.0,8.0,480.0,4.0,0.0
587,68.0,0.0,420.0,1.0,0.0
588,72.0,0.0,450.0,1.0,0.0
589,41.0,8.0,450.0,10.0,0.0
590,29.0,0.0,450.0,11.0,0.0
591,68.0,8.0,390.0,8.0,0.0
592,84.0,506.0,510.0,0.0,0.0
593,59.0,48.0,960.0,8.0,0.0
594,71.0,0.0,960.0,8.0,0.0
595,77.0,0.0,1920.0,4.0,0.0
596,65.0,0.0,1920.0,4.0,0.0
597,62.0,0.0,1920.0,8.0,0.0
598,44.0,0.0,1530.0,5.0,0.0
599,56.0,0.0,1530.0,5.0,0.0
600,38.0,0.0,1920.0,11.0,0.0
601,50.0,64.0,1920.0,10.0,0.0
602,68.0,12.0,1530.0,6.0,0.0
603,56.0,0.0,1530.0,6.0,0.0
604,44.0,60.0,60.0,7.0,0.0
605,44.0,60.0,60.0,7.0,0.0
606,44.0,60.0,60.0,7.0,0.0
607,44.0,60.0,60.0,7.0,0.0
608,44.0,60.0,60.0,7.0,0.0
609,44.0,60.0,60.0,7.0,0.0
610,44.0,60.0,60.0,7.0,0.0
611,44.0,60.0,60.0,7.0,0.0
612,44.0,60.0,60.0,7.0,0.0
613,44.0,60.0,60.0,7.0,0.0
614,44.0,60.0,60.0,7.0,0.0
615,44.0,60.0,60.0,7.0,0.0
616,44.0,60.0,60.0,7.0,0.0
617,44.0,0.0,60.0,7.0,0.0
618,44.0,60.0,60.0,7.0,0.0
619,44.0,12.0,60.0,7.0,0.0
620,47.0,0.0,1020.0,3.0,0.0
621,44.0,60.0,60.0,7.0,0.0
622,59.0,0.0,1020.0,2.0,0.0
623,71.0,22.0,1020.0,1.0,0.0
624,44.0,0.0,2910.0,3.0,0.0
625,56.0,0.0,2910.0,2.0,0.0
626,68.0,10.0,2910.0,1.0,0.0
627,80.0,0.0,2910.0,0.0,0.0
628,83.0,26.0,1050.0,0.0,0.0
629,56.0,48.0,1830.0,8.0,0.0
630,44.0,60.0,60.0,7.0,0.0
631,44.0,60.0,60.0,7.0,0.0
632,44.0,60.0,60.0,7.0,0.0
633,44.0,0.0,60.0,7.0,0.0
634,44.0,60.0,60.0,7.0,0.0
635,44.0,60.0,60.0,7.0,0.0
636,44.0,60.0,60.0,7.0,0.0
637,44.0,48.0,60.0,7.0,0.0
638,44.0,60.0,60.0,7.0,0.0
639,44.0,60.0,60.0,7.0,0.0
640,44.0,60.0,60.0,7.0,0.0
641,44.0,60.0,60.0,7.0,0.0
642,44.0,60.0,60.0,7.0,0.0
643,44.0,0.0,60.0,7.0,0.0
644,44.0,12.0,60.0,7.0,0.0
645,51.0,188.0,120.0,6.0,0.0
646,63.0,60.0,330.0,8.0,0.0
647,39.0,0.0,300.0,11.0,0.0
648,60.0,46.0,660.0,4.0,0.0
649,51.0,266.0,390.0,5.0,0.0
650,39.0,0.0,390.0,5.0,0.0
651,84.0,14.0,1980.0,0.0,0.0
652,51.0,24.0,300.0,10.0,0.0
653,63.0,0.0,120.0,6.0,0.0
654,72.0,0.0,1920.0,1.0,0.0
655,48.0,0.0,1920.0,3.0,0.0
656,60.0,42.0,1920.0,2.0,0.0
657,39.0,0.0,120.0,7.0,0.0
658,56.0,168.0,210.0,5.0,0.0
659,44.0,0.0,210.0,5.0,0.0
660,48.0,386.0,60.0,5.0,0.0
661,60.0,0.0,60.0,5.0,0.0
662,51.0,20.0,330.0,8.0,0.0
663,27.0,0.0,360.0,11.0,0.0
664,56.0,0.0,960.0,8.0,0.0
665,63.0,0.0,390.0,5.0,0.0
666,51.0,218.0,390.0,5.0,0.0
667,60.0,46.0,1020.0,4.0,0.0
668,39.0,26.0,360.0,10.0,0.0
669,39.0,96.0,390.0,5.0,0.0
670,51.0,0.0,390.0,5.0,0.0
671,39.0,262.0,120.0,7.0,0.0
672,61.0,82.0,780.0,4.0,0.0
673,61.0,0.0,720.0,2.0,0.0
674,58.0,84.0,870.0,8.0,0.0
675,51.0,56.0,270.0,8.0,0.0
676,73.0,0.0,720.0,1.0,0.0
677,49.0,0.0,720.0,3.0,0.0
678,39.0,0.0,330.0,10.0,0.0
679,51.0,208.0,390.0,5.0,0.0
680,85.0,0.0,720.0,0.0,0.0
681,46.0,0.0,720.0,3.0,0.0
682,39.0,0.0,390.0,5.0,0.0
683,39.0,172.0,120.0,7.0,0.0
684,27.0,44.0,330.0,11.0,0.0
685,39.0,128.0,120.0,7.0,0.0
686,51.0,12.0,390.0,5.0,0.0
687,39.0,0.0,390.0,5.0,0.0
688,67.0,0.0,240.0,1.0,0.0
689,70.0,62.0,15.0,1.0,0.0
690,82.0,0.0,15.0,0.0,0.0
691,79.0,0.0,240.0,0.0,0.0
692,43.0,72.0,240.0,3.0,0.0
693,55.0,0.0,240.0,2.0,0.0
694,58.0,0.0,15.0,2.0,0.0
695,46.0,0.0,240.0,3.0,0.0
696,44.0,0.0,240.0,5.0,0.0
697,56.0,0.0,240.0,5.0,0.0
698,48.0,0.0,240.0,3.0,0.0
699,44.0,0.0,240.0,3.0,0.0
700,56.0,30.0,60.0,4.0,0.0
701,44.0,0.0,240.0,7.0,0.0
702,32.0,0.0,90.0,11.0,0.0
703,48.0,72.0,120.0,8.0,0.0
704,56.0,0.0,240.0,2.0,0.0
705,80.0,0.0,240.0,0.0,0.0
706,51.0,0.0,120.0,8.0,0.0
707,44.0,18.0,90.0,10.0,0.0
708,68.0,86.0,240.0,1.0,0.0
709,51.0,34.0,60.0,4.0,0.0
710,53.0,120.0,60.0,4.0,0.0
711,55.0,120.0,60.0,4.0,0.0
712,56.0,120.0,60.0,4.0,0.0
713,58.0,120.0,60.0,4.0,0.0
714,60.0,120.0,60.0,4.0,0.0
715,58.0,120.0,60.0,4.0,0.0
716,56.0,24.0,60.0,4.0,0.0
717,32.0,10.0,120.0,11.0,0.0
718,44.0,0.0,120.0,10.0,0.0
719,51.0,14.0,90.0,8.0,0.0
720,48.0,72.0,120.0,8.0,0.0
721,51.0,120.0,60.0,4.0,0.0
722,53.0,120.0,60.0,4.0,0.0
723,55.0,120.0,60.0,4.0,0.0
724,56.0,120.0,60.0,4.0,0.0
725,58.0,120.0,60.0,4.0,0.0
726,60.0,120.0,60.0,4.0,0.0
727,58.0,120.0,60.0,4.0,0.0
728,44.0,26.0,90.0,10.0,0.0
729,32.0,0.0,90.0,11.0,0.0
730,48.0,72.0,120.0,8.0,0.0
731,56.0,8.0,60.0,4.0,0.0
732,51.0,14.0,90.0,8.0,0.0
733,51.0,120.0,60.0,4.0,0.0
734,53.0,120.0,60.0,4.0,0.0
735,55.0,120.0,60.0,4.0,0.0
736,56.0,24.0,60.0,4.0,0.0
737,48.0,72.0,120.0,8.0,0.0
738,32.0,20.0,90.0,11.0,0.0
739,51.0,4.0,90.0,8.0,0.0
740,44.0,0.0,90.0,10.0,0.0
741,58.0,120.0,60.0,4.0,0.0
742,60.0,120.0,60.0,4.0,0.0
743,61.0,120.0,60.0,4.0,0.0
744,63.0,22.0,60.0,4.0,0.0
745,44.0,0.0,90.0,10.0,0.0
746,48.0,72.0,120.0,8.0,0.0
747,51.0,24.0,90.0,8.0,0.0
748,32.0,2.0,90.0,11.0,0.0
749,62.0,120.0,60.0,4.0,0.0
750,65.0,120.0,60.0,4.0,0.0
751,63.0,120.0,60.0,4.0,0.0
752,61.0,120.0,60.0,4.0,0.0
753,60.0,120.0,60.0,4.0,0.0
754,58.0,120.0,60.0,4.0,0.0
755,56.0,120.0,60.0,4.0,0.0
756,44.0,96.0,90.0,10.0,0.0
757,53.0,0.0,90.0,8.0,0.0
758,58.0,18.0,60.0,4.0,0.0
759,32.0,0.0,90.0,11.0,0.0
760,49.0,6.0,90.0,8.0,0.0
761,53.0,120.0,60.0,4.0,0.0
762,55.0,120.0,60.0,4.0,0.0
763,57.0,120.0,60.0,4.0,0.0
764,58.0,120.0,60.0,4.0,0.0
765,60.0,120.0,60.0,4.0,0.0
766,61.0,120.0,60.0,4.0,0.0
767,60.0,120.0,60.0,4.0,0.0
768,49.0,0.0,90.0,8.0,0.0
769,44.0,6.0,90.0,10.0,0.0
770,32.0,0.0,90.0,11.0,0.0
771,58.0,0.0,90.0,8.0,0.0
772,58.0,22.0,60.0,4.0,0.0
773,53.0,92.0,90.0,8.0,0.0
774,53.0,120.0,60.0,4.0,0.0
775,55.0,120.0,60.0,4.0,0.0
776,57.0,120.0,60.0,4.0,0.0
777,58.0,120.0,60.0,4.0,0.0
778,60.0,120.0,60.0,4.0,0.0
779,61.0,120.0,60.0,4.0,0.0
780,60.0,120.0,60.0,4.0,0.0
781,43.0,0.0,90.0,10.0,0.0
782,51.0,0.0,90.0,8.0,0.0
783,31.0,6.0,90.0,11.0,0.0
784,58.0,100.0,90.0,8.0,0.0
785,49.0,0.0,90.0,8.0,0.0
786,58.0,14.0,60.0,4.0,0.0
787,58.0,120.0,60.0,4.0,0.0
788,60.0,120.0,60.0,4.0,0.0
789,61.0,120.0,60.0,4.0,0.0
790,51.0,0.0,90.0,8.0,0.0
791,58.0,0.0,90.0,8.0,0.0
792,43.0,0.0,90.0,10.0,0.0
793,49.0,106.0,90.0,8.0,0.0
794,31.0,2.0,90.0,11.0,0.0
795,63.0,12.0,60.0,4.0,0.0
796,65.0,120.0,60.0,4.0,0.0
797,67.0,120.0,60.0,4.0,0.0
798,68.0,120.0,60.0,4.0,0.0
799,51.0,0.0,90.0,8.0,0.0
800,58.0,0.0,90.0,8.0,0.0
801,49.0,0.0,90.0,8.0,0.0
802,31.0,106.0,90.0,11.0,0.0
803,43.0,0.0,90.0,10.0,0.0
804,70.0,14.0,60.0,4.0,0.0
805,72.0,120.0,60.0,4.0,0.0
806,70.0,120.0,60.0,4.0,0.0
807,68.0,120.0,60.0,4.0,0.0
808,67.0,120.0,60.0,4.0,0.0
809,65.0,120.0,60.0,4.0,0.0
810,63.0,120.0,60.0,4.0,0.0
811,61.0,122.0,60.0,4.0,0.0
812,60.0,6.0,90.0,4.0,0.0
813,44.0,8.0,90.0,10.0,0.0
814,56.0,2.0,60.0,8.0,0.0
815,32.0,0.0,90.0,11.0,0.0
816,51.0,114.0,90.0,4.0,0.0
817,72.0,120.0,90.0,4.0,0.0
818,44.0,50.0,510.0,11.0,0.0
819,56.0,0.0,510.0,10.0,0.0
820,56.0,8.0,420.0,8.0,0.0
821,56.0,22.0,420.0,4.0,0.0
822,70.0,120.0,90.0,4.0,0.0
823,68.0,120.0,90.0,4.0,0.0
824,67.0,90.0,90.0,4.0,0.0
825,65.0,68.0,90.0,4.0,0.0
826,43.0,0.0,90.0,11.0,0.0
827,55.0,114.0,90.0,4.0,0.0
828,55.0,2.0,90.0,8.0,0.0
829,55.0,0.0,90.0,10.0,0.0
830,63.0,6.0,90.0,4.0,0.0
831,61.0,110.0,90.0,4.0,0.0
832,56.0,0.0,90.0,10.0,0.0
833,56.0,6.0,60.0,8.0,0.0
834,60.0,120.0,90.0,4.0,0.0
835,56.0,2.0,90.0,4.0,0.0
836,44.0,2.0,90.0,11.0,0.0
837,72.0,120.0,90.0,4.0,0.0
838,44.0,0.0,390.0,11.0,0.0
839,56.0,40.0,390.0,10.0,0.0
840,56.0,62.0,330.0,8.0,0.0
841,70.0,110.0,90.0,4.0,0.0
842,56.0,10.0,180.0,4.0,0.0
843,68.0,120.0,90.0,4.0,0.0
844,67.0,18.0,90.0,4.0,0.0
845,65.0,106.0,90.0,4.0,0.0
846,63.0,2.0,90.0,4.0,0.0
847,55.0,0.0,60.0,10.0,0.0
848,55.0,110.0,90.0,4.0,0.0
849,43.0,14.0,60.0,11.0,0.0
850,55.0,8.0,90.0,8.0,0.0
851,61.0,108.0,90.0,4.0,0.0
852,56.0,0.0,60.0,10.0,0.0
853,44.0,2.0,60.0,11.0,0.0
854,56.0,4.0,90.0,8.0,0.0
855,56.0,6.0,60.0,4.0,0.0
856,60.0,120.0,90.0,4.0,0.0
857,61.0,106.0,90.0,4.0,0.0
858,55.0,118.0,90.0,8.0,0.0
859,55.0,2.0,90.0,4.0,0.0
860,43.0,0.0,60.0,11.0,0.0
861,63.0,0.0,90.0,4.0,0.0
862,55.0,14.0,60.0,10.0,0.0
863,60.0,116.0,90.0,4.0,0.0
864,53.0,0.0,90.0,8.0,0.0
865,41.0,118.0,90.0,11.0,0.0
866,53.0,4.0,90.0,4.0,0.0
867,62.0,2.0,90.0,4.0,0.0
868,53.0,0.0,90.0,10.0,0.0
869,63.0,102.0,90.0,4.0,0.0
870,58.0,0.0,60.0,10.0,0.0
871,58.0,114.0,90.0,8.0,0.0
872,46.0,14.0,60.0,11.0,0.0
873,58.0,4.0,90.0,4.0,0.0
874,65.0,6.0,90.0,4.0,0.0
875,62.0,110.0,90.0,4.0,0.0
876,51.0,0.0,60.0,10.0,0.0
877,39.0,10.0,60.0,11.0,0.0
878,63.0,2.0,90.0,4.0,0.0
879,51.0,6.0,90.0,4.0,0.0
880,51.0,112.0,90.0,8.0,0.0
881,65.0,120.0,90.0,4.0,0.0
882,61.0,120.0,90.0,4.0,0.0
883,63.0,120.0,90.0,4.0,0.0
884,60.0,120.0,90.0,4.0,0.0
885,61.0,120.0,90.0,4.0,0.0
886,58.0,120.0,90.0,4.0,0.0
887,60.0,108.0,90.0,4.0,0.0
888,56.0,2.0,60.0,4.0,0.0
889,75.0,8.0,1980.0,0.0,0.0
890,80.0,6.0,1980.0,0.0,0.0
891,44.0,0.0,90.0,10.0,0.0
892,63.0,24.0,1950.0,2.0,0.0
893,60.0,0.0,1950.0,2.0,0.0
894,32.0,2.0,90.0,11.0,0.0
895,56.0,6.0,1980.0,5.0,0.0
896,48.0,2.0,2010.0,3.0,0.0
897,44.0,92.0,2010.0,3.0,0.0
898,72.0,12.0,1980.0,1.0,0.0
899,68.0,0.0,1980.0,1.0,0.0
900,68.0,0.0,90.0,6.0,0.0
901,56.0,96.0,90.0,6.0,0.0
902,44.0,0.0,90.0,7.0,0.0
903,51.0,18.0,60.0,8.0,0.0
904,48.0,22.0,60.0,8.0,0.0
905,63.0,2.0,60.0,4.0,0.0
906,32.0,0.0,90.0,11.0,0.0
907,44.0,96.0,90.0,10.0,0.0
908,51.0,2.0,60.0,8.0,0.0
909,44.0,98.0,90.0,10.0,0.0
910,32.0,0.0,90.0,11.0,0.0
911,53.0,2.0,60.0,4.0,0.0
912,51.0,18.0,60.0,8.0,0.0
913,65.0,0.0,60.0,4.0,0.0
914,48.0,0.0,60.0,8.0,0.0
915,32.0,98.0,90.0,11.0,0.0
916,51.0,18.0,60.0,8.0,0.0
917,48.0,2.0,60.0,8.0,0.0
918,55.0,0.0,60.0,4.0,0.0
919,44.0,0.0,90.0,10.0,0.0
920,67.0,2.0,60.0,4.0,0.0
921,68.0,2.0,60.0,4.0,0.0
922,56.0,0.0,60.0,4.0,0.0
923,44.0,0.0,90.0,10.0,0.0
924,32.0,100.0,90.0,11.0,0.0
925,51.0,18.0,60.0,8.0,0.0
926,48.0,2.0,60.0,8.0,0.0
927,58.0,0.0,60.0,4.0,0.0
928,70.0,0.0,60.0,4.0,0.0
929,48.0,14.0,60.0,8.0,0.0
930,51.0,0.0,60.0,8.0,0.0
931,44.0,0.0,90.0,10.0,0.0
932,32.0,106.0,90.0,11.0,0.0
933,32.0,102.0,90.0,11.0,0.0
934,48.0,0.0,60.0,8.0,0.0
935,72.0,2.0,60.0,4.0,0.0
936,51.0,16.0,60.0,8.0,0.0
937,44.0,0.0,90.0,10.0,0.0
938,60.0,0.0,60.0,4.0,0.0
939,70.0,0.0,60.0,4.0,0.0
940,51.0,16.0,90.0,8.0,0.0
941,48.0,4.0,60.0,8.0,0.0
942,44.0,100.0,90.0,10.0,0.0
943,32.0,0.0,90.0,11.0,0.0
944,58.0,0.0,60.0,4.0,0.0
945,48.0,2.0,60.0,8.0,0.0
946,68.0,0.0,60.0,4.0,0.0
947,56.0,2.0,60.0,4.0,0.0
948,56.0,0.0,90.0,6.0,0.0
949,68.0,96.0,90.0,6.0,0.0
950,44.0,0.0,90.0,7.0,0.0
951,51.0,18.0,90.0,8.0,0.0
952,32.0,2.0,90.0,11.0,0.0
953,44.0,0.0,90.0,10.0,0.0
954,48.0,12.0,90.0,8.0,0.0
955,51.0,0.0,90.0,8.0,0.0
956,32.0,100.0,90.0,11.0,0.0
957,44.0,0.0,90.0,10.0,0.0
958,63.0,0.0,60.0,4.0,0.0
959,51.0,8.0,60.0,4.0,0.0
960,65.0,0.0,60.0,4.0,0.0
961,53.0,2.0,60.0,4.0,0.0
962,48.0,6.0,90.0,8.0,0.0
963,51.0,6.0,60.0,8.0,0.0
964,44.0,0.0,90.0,10.0,0.0
965,32.0,106.0,90.0,11.0,0.0
966,55.0,8.0,60.0,4.0,0.0
967,32.0,108.0,90.0,11.0,0.0
968,51.0,0.0,90.0,8.0,0.0
969,67.0,0.0,60.0,4.0,0.0
970,44.0,0.0,90.0,10.0,0.0
971,48.0,4.0,90.0,8.0,0.0
972,48.0,0.0,60.0,8.0,0.0
973,32.0,0.0,90.0,11.0,0.0
974,51.0,16.0,60.0,8.0,0.0
975,56.0,0.0,60.0,4.0,0.0
976,68.0,2.0,60.0,4.0,0.0
977,44.0,100.0,90.0,10.0,0.0
978,32.0,106.0,90.0,11.0,0.0
979,70.0,0.0,60.0,4.0,0.0
980,48.0,2.0,60.0,8.0,0.0
981,58.0,8.0,60.0,4.0,0.0
982,44.0,0.0,90.0,10.0,0.0
983,51.0,6.0,90.0,8.0,0.0
984,60.0,2.0,60.0,4.0,0.0
985,32.0,108.0,90.0,11.0,0.0
986,48.0,8.0,90.0,8.0,0.0
987,51.0,2.0,60.0,8.0,0.0
988,44.0,0.0,90.0,10.0,0.0
989,72.0,0.0,60.0,4.0,0.0
990,44.0,58.0,90.0,10.0,0.0
991,70.0,0.0,60.0,4.0,0.0
992,48.0,8.0,90.0,8.0,0.0
993,51.0,0.0,90.0,8.0,0.0
994,32.0,0.0,90.0,11.0,0.0
995,58.0,4.0,60.0,4.0,0.0
996,44.0,12.0,90.0,10.0,0.0
997,44.0,0.0,90.0,7.0,0.0
998,68.0,0.0,60.0,4.0,0.0
999,32.0,0.0,90.0,11.0,0.0
1000,68.0,4.0,90.0,6.0,0.0
1001,56.0,0.0,90.0,6.0,0.0
1002,48.0,2.0,90.0,8.0,0.0
1003,51.0,2.0,60.0,8.0,0.0
1004,56.0,0.0,60.0,4.0,0.0
1005,51.0,4.0,60.0,8.0,0.0
1006,48.0,10.0,90.0,8.0,0.0
1007,32.0,0.0,90.0,11.0,0.0
1008,51.0,0.0,60.0,4.0,0.0
1009,44.0,106.0,90.0,10.0,0.0
1010,63.0,0.0,60.0,4.0,0.0
1011,44.0,0.0,90.0,10.0,0.0
1012,48.0,0.0,60.0,8.0,0.0
1013,51.0,10.0,90.0,8.0,0.0
1014,65.0,0.0,60.0,4.0,0.0
1015,53.0,4.0,60.0,4.0,0.0
1016,32.0,106.0,90.0,11.0,0.0
1017,55.0,2.0,60.0,4.0,0.0
1018,32.0,0.0,90.0,11.0,0.0
1019,44.0,92.0,90.0,10.0,0.0
1020,51.0,0.0,60.0,8.0,0.0
1021,48.0,8.0,60.0,8.0,0.0
1022,67.0,0.0,60.0,4.0,0.0
1023,56.0,10.0,60.0,5.0,0.0
1024,56.0,10.0,90.0,6.0,0.0
1025,44.0,4.0,90.0,3.0,0.0
1026,44.0,0.0,90.0,7.0,0.0
1027,48.0,86.0,120.0,3.0,0.0
1028,68.0,0.0,90.0,6.0,0.0
1029,63.0,0.0,60.0,2.0,0.0
1030,60.0,0.0,60.0,2.0,0.0
1031,68.0,2.0,60.0,4.0,0.0
1032,56.0,0.0,60.0,4.0,0.0
1033,75.0,10.0,90.0,0.0,0.0
1034,32.0,0.0,90.0,11.0,0.0
1035,72.0,0.0,90.0,1.0,0.0
1036,68.0,6.0,60.0,1.0,0.0
1037,80.0,0.0,60.0,0.0,0.0
1038,44.0,2.0,90.0,10.0,0.0
1039,51.0,2.0,60.0,8.0,0.0
1040,48.0,6.0,60.0,8.0,0.0
1041,48.0,8.0,90.0,8.0,0.0
1042,51.0,0.0,90.0,8.0,0.0
1043,44.0,0.0,90.0,10.0,0.0
1044,58.0,0.0,60.0,4.0,0.0
1045,32.0,108.0,90.0,11.0,0.0
1046,70.0,4.0,60.0,4.0,0.0
1047,51.0,0.0,60.0,8.0,0.0
1048,48.0,16.0,60.0,8.0,0.0
1049,32.0,102.0,90.0,11.0,0.0
1050,72.0,2.0,60.0,4.0,0.0
1051,60.0,0.0,60.0,4.0,0.0
1052,44.0,0.0,90.0,10.0,0.0
1053,44.0,84.0,90.0,10.0,0.0
1054,61.0,0.0,60.0,4.0,0.0
1055,32.0,0.0,90.0,11.0,0.0
1056,48.0,10.0,90.0,8.0,0.0
1057,73.0,8.0,60.0,4.0,0.0
1058,51.0,0.0,90.0,8.0,0.0
1059,56.0,10.0,60.0,5.0,0.0
1060,72.0,0.0,60.0,1.0,0.0
1061,44.0,6.0,90.0,10.0,0.0
1062,63.0,0.0,60.0,4.0,0.0
1063,75.0,2.0,60.0,4.0,0.0
1064,44.0,0.0,90.0,7.0,0.0
1065,68.0,0.0,60.0,1.0,0.0
1066,56.0,0.0,90.0,6.0,0.0
1067,51.0,2.0,90.0,8.0,0.0
1068,60.0,8.0,60.0,2.0,0.0
1069,48.0,0.0,90.0,8.0,0.0
1070,63.0,6.0,60.0,2.0,0.0
1071,68.0,0.0,90.0,6.0,0.0
1072,32.0,0.0,90.0,11.0,0.0
1073,48.0,96.0,90.0,3.0,0.0
1074,75.0,0.0,90.0,0.0,0.0
1075,80.0,0.0,90.0,0.0,0.0
1076,44.0,8.0,90.0,3.0,0.0
1077,44.0,0.0,90.0,10.0,0.0
1078,32.0,0.0,90.0,11.0,0.0
1079,51.0,110.0,90.0,8.0,0.0
1080,48.0,2.0,90.0,8.0,0.0
1081,74.0,8.0,60.0,4.0,0.0
1082,62.0,0.0,60.0,4.0,0.0
1083,77.0,0.0,60.0,4.0,0.0
1084,51.0,6.0,60.0,8.0,0.0
1085,48.0,4.0,90.0,8.0,0.0
1086,65.0,2.0,60.0,4.0,0.0
1087,32.0,108.0,90.0,11.0,0.0
1088,44.0,0.0,90.0,10.0,0.0
1089,44.0,0.0,90.0,10.0,0.0
1090,32.0,112.0,90.0,11.0,0.0
1091,63.0,0.0,60.0,4.0,0.0
1092,51.0,4.0,90.0,8.0,0.0
1093,48.0,4.0,60.0,8.0,0.0
1094,75.0,0.0,60.0,4.0,0.0
1095,73.0,0.0,60.0,4.0,0.0
1096,44.0,106.0,90.0,10.0,0.0
1097,32.0,0.0,90.0,11.0,0.0
1098,48.0,0.0,60.0,8.0,0.0
1099,51.0,10.0,60.0,8.0,0.0
1100,61.0,2.0,60.0,4.0,0.0
1101,51.0,2.0,60.0,8.0,0.0
1102,72.0,0.0,60.0,4.0,0.0
1103,60.0,2.0,60.0,4.0,0.0
1104,44.0,0.0,90.0,10.0,0.0
1105,32.0,102.0,90.0,11.0,0.0
1106,48.0,10.0,60.0,8.0,0.0
1107,44.0,0.0,90.0,10.0,0.0
1108,51.0,14.0,90.0,8.0,0.0
1109,48.0,6.0,60.0,8.0,0.0
1110,70.0,4.0,60.0,4.0,0.0
1111,58.0,0.0,60.0,4.0,0.0
1112,32.0,102.0,90.0,11.0,0.0
1113,32.0,0.0,90.0,11.0,0.0
1114,51.0,10.0,60.0,8.0,0.0
1115,44.0,110.0,90.0,10.0,0.0
1116,68.0,2.0,60.0,4.0,0.0
1117,56.0,0.0,60.0,4.0,0.0
1118,48.0,0.0,60.0,8.0,0.0
1119,53.0,6.0,60.0,8.0,0.0
1120,32.0,0.0,90.0,11.0,0.0
1121,49.0,44.0,2070.0,3.0,0.0
1122,44.0,2.0,1830.0,3.0,0.0
1123,44.0,94.0,90.0,7.0,0.0
1124,58.0,40.0,1920.0,5.0,0.0
1125,77.0,4.0,1830.0,0.0,0.0
1126,82.0,6.0,2040.0,0.0,0.0
1127,44.0,0.0,90.0,10.0,0.0
1128,68.0,0.0,90.0,6.0,0.0
1129,65.0,56.0,1710.0,1.0,0.0
1130,65.0,0.0,1830.0,2.0,0.0
1131,49.0,0.0,60.0,8.0,0.0
1132,73.0,36.0,1830.0,1.0,0.0
1133,56.0,0.0,90.0,6.0,0.0
1134,61.0,6.0,1830.0,2.0,0.0
1135,70.0,8.0,90.0,4.0,0.0
1136,58.0,4.0,90.0,4.0,0.0
1137,32.0,0.0,90.0,11.0,0.0
1138,44.0,110.0,90.0,10.0,0.0
1139,65.0,0.0,90.0,4.0,0.0
1140,53.0,0.0,90.0,4.0,0.0
1141,49.0,14.0,60.0,8.0,0.0
1142,53.0,4.0,90.0,8.0,0.0
1143,32.0,0.0,90.0,11.0,0.0
1144,67.0,110.0,90.0,4.0,0.0
1145,55.0,2.0,90.0,4.0,0.0
1146,53.0,6.0,60.0,8.0,0.0
1147,44.0,2.0,90.0,10.0,0.0
1148,49.0,0.0,60.0,8.0,0.0
1149,69.0,2.0,90.0,4.0,0.0
1150,57.0,4.0,90.0,4.0,0.0
1151,49.0,0.0,60.0,8.0,0.0
1152,44.0,0.0,90.0,10.0,0.0
1153,32.0,106.0,90.0,11.0,0.0
1154,53.0,6.0,60.0,8.0,0.0
1155,49.0,8.0,60.0,8.0,0.0
1156,70.0,12.0,90.0,4.0,0.0
1157,58.0,94.0,90.0,4.0,0.0
1158,44.0,0.0,90.0,10.0,0.0
1159,53.0,0.0,60.0,8.0,0.0
1160,32.0,4.0,90.0,11.0,0.0
1161,53.0,8.0,90.0,8.0,0.0
1162,44.0,0.0,60.0,10.0,0.0
1163,72.0,108.0,90.0,4.0,0.0
1164,60.0,0.0,90.0,4.0,0.0
1165,49.0,4.0,60.0,8.0,0.0
1166,32.0,2.0,60.0,11.0,0.0
1167,49.0,2.0,60.0,8.0,0.0
1168,32.0,8.0,90.0,11.0,0.0
1169,44.0,0.0,90.0,10.0,0.0
1170,73.0,110.0,90.0,4.0,0.0
1171,61.0,0.0,90.0,4.0,0.0
1172,53.0,2.0,60.0,8.0,0.0
1173,44.0,110.0,90.0,10.0,0.0
1174,32.0,0.0,90.0,11.0,0.0
1175,53.0,2.0,60.0,8.0,0.0
1176,60.0,8.0,90.0,4.0,0.0
1177,72.0,0.0,90.0,4.0,0.0
1178,49.0,0.0,60.0,8.0,0.0
1179,68.0,0.0,90.0,6.0,0.0
1180,58.0,0.0,90.0,4.0,0.0
1181,70.0,0.0,90.0,4.0,0.0
1182,49.0,6.0,60.0,8.0,0.0
1183,32.0,10.0,90.0,11.0,0.0
1184,56.0,0.0,90.0,6.0,0.0
1185,44.0,96.0,90.0,7.0,0.0
1186,44.0,0.0,90.0,10.0,0.0
1187,53.0,4.0,90.0,8.0,0.0
1188,53.0,6.0,60.0,8.0,0.0
1189,44.0,0.0,90.0,10.0,0.0
1190,32.0,4.0,90.0,11.0,0.0
1191,65.0,106.0,90.0,4.0,0.0
1192,53.0,0.0,90.0,4.0,0.0
1193,49.0,4.0,60.0,8.0,0.0
1194,55.0,108.0,90.0,4.0,0.0
1195,44.0,0.0,90.0,10.0,0.0
1196,67.0,0.0,90.0,4.0,0.0
1197,53.0,10.0,60.0,8.0,0.0
1198,49.0,4.0,60.0,8.0,0.0
1199,32.0,0.0,90.0,11.0,0.0
1200,69.0,116.0,90.0,4.0,0.0
1201,57.0,6.0,90.0,4.0,0.0
1202,32.0,2.0,90.0,11.0,0.0
1203,53.0,4.0,60.0,8.0,0.0
1204,44.0,0.0,90.0,10.0,0.0
1205,49.0,0.0,60.0,8.0,0.0
1206,32.0,10.0,90.0,11.0,0.0
1207,49.0,0.0,90.0,8.0,0.0
1208,53.0,4.0,90.0,8.0,0.0
1209,70.0,0.0,90.0,4.0,0.0
1210,58.0,96.0,90.0,4.0,0.0
1211,44.0,0.0,90.0,10.0,0.0
1212,44.0,0.0,90.0,10.0,0.0
1213,53.0,2.0,60.0,8.0,0.0
1214,49.0,4.0,60.0,8.0,0.0
1215,32.0,0.0,90.0,11.0,0.0
1216,72.0,56.0,90.0,4.0,0.0
1217,60.0,8.0,90.0,4.0,0.0
1218,49.0,6.0,90.0,8.0,0.0
1219,61.0,0.0,90.0,4.0,0.0
1220,73.0,0.0,90.0,4.0,0.0
1221,53.0,2.0,90.0,8.0,0.0
1222,32.0,60.0,90.0,11.0,0.0
1223,44.0,0.0,90.0,10.0,0.0
1224,53.0,0.0,60.0,8.0,0.0
1225,32.0,46.0,90.0,11.0,0.0
1226,60.0,10.0,60.0,4.0,0.0
1227,72.0,2.0,90.0,4.0,0.0
1228,49.0,2.0,60.0,8.0,0.0
1229,44.0,0.0,90.0,10.0,0.0
1230,49.0,2.0,60.0,8.0,0.0
1231,73.0,8.0,60.0,1.0,0.0
1232,43.0,34.0,120.0,3.0,0.0
1233,58.0,0.0,90.0,4.0,0.0
1234,70.0,6.0,90.0,4.0,0.0
1235,51.0,4.0,90.0,8.0,0.0
1236,63.0,0.0,90.0,6.0,0.0
1237,70.0,12.0,60.0,1.0,0.0
1238,51.0,0.0,90.0,6.0,0.0
1239,75.0,4.0,90.0,0.0,0.0
1240,63.0,2.0,60.0,2.0,0.0
1241,61.0,0.0,60.0,2.0,0.0
1242,31.0,18.0,90.0,11.0,0.0
1243,43.0,0.0,90.0,10.0,0.0
1244,39.0,2.0,90.0,7.0,0.0
1245,70.0,6.0,90.0,4.0,0.0
1246,43.0,0.0,90.0,10.0,0.0
1247,58.0,104.0,90.0,4.0,0.0
1248,49.0,6.0,60.0,8.0,0.0
1249,51.0,4.0,90.0,8.0,0.0
1250,31.0,0.0,90.0,11.0,0.0
1251,31.0,0.0,90.0,11.0,0.0
1252,60.0,110.0,90.0,4.0,0.0
1253,49.0,0.0,60.0,8.0,0.0
1254,72.0,0.0,90.0,4.0,0.0
1255,43.0,4.0,90.0,10.0,0.0
1256,51.0,6.0,60.0,8.0,0.0
1257,61.0,90.0,90.0,4.0,0.0
1258,31.0,0.0,60.0,11.0,0.0
1259,43.0,0.0,60.0,10.0,0.0
1260,51.0,0.0,60.0,8.0,0.0
1261,49.0,10.0,60.0,8.0,0.0
1262,73.0,2.0,90.0,4.0,0.0
1263,70.0,14.0,60.0,1.0,0.0
1264,58.0,4.0,90.0,5.0,0.0
1265,63.0,0.0,90.0,4.0,0.0
1266,75.0,2.0,90.0,4.0,0.0
1267,39.0,2.0,90.0,7.0,0.0
1268,51.0,2.0,60.0,5.0,0.0
1269,73.0,6.0,60.0,1.0,0.0
1270,63.0,0.0,90.0,2.0,0.0
1271,49.0,0.0,60.0,8.0,0.0
1272,51.0,0.0,90.0,6.0,0.0
1273,61.0,0.0,90.0,2.0,0.0
1274,43.0,0.0,60.0,10.0,0.0
1275,51.0,0.0,60.0,8.0,0.0
1276,43.0,100.0,90.0,3.0,0.0
1277,49.0,4.0,90.0,3.0,0.0
1278,82.0,0.0,60.0,0.0,0.0
1279,31.0,2.0,60.0,11.0,0.0
1280,63.0,0.0,90.0,6.0,0.0
1281,75.0,0.0,90.0,0.0,0.0
1282,77.0,108.0,90.0,4.0,0.0
1283,65.0,2.0,90.0,4.0,0.0
1284,31.0,0.0,90.0,11.0,0.0
1285,43.0,2.0,90.0,10.0,0.0
1286,51.0,0.0,60.0,8.0,0.0
1287,49.0,8.0,60.0,8.0,0.0
1288,79.0,110.0,90.0,4.0,0.0
1289,67.0,2.0,90.0,4.0,0.0
1290,43.0,0.0,90.0,10.0,0.0
1291,49.0,0.0,60.0,8.0,0.0
1292,51.0,10.0,60.0,8.0,0.0
1293,31.0,0.0,90.0,11.0,0.0
1294,68.0,2.0,60.0,4.0,0.0
1295,80.0,86.0,90.0,4.0,0.0
1296,51.0,2.0,90.0,8.0,0.0
1297,43.0,0.0,90.0,10.0,0.0
1298,49.0,4.0,90.0,8.0,0.0
1299,31.0,2.0,90.0,11.0,0.0
1300,49.0,0.0,90.0,8.0,0.0
1301,49.0,0.0,60.0,3.0,0.0
1302,39.0,0.0,90.0,7.0,0.0
1303,51.0,0.0,90.0,8.0,0.0
1304,63.0,2.0,60.0,2.0,0.0
1305,43.0,0.0,90.0,10.0,0.0
1306,31.0,2.0,90.0,11.0,0.0
1307,43.0,2.0,60.0,3.0,0.0
1308,51.0,0.0,90.0,6.0,0.0
1309,82.0,2.0,90.0,4.0,0.0
1310,51.0,4.0,90.0,5.0,0.0
1311,58.0,2.0,60.0,5.0,0.0
1312,61.0,6.0,60.0,2.0,0.0
1313,82.0,0.0,90.0,0.0,0.0
1314,75.0,2.0,90.0,0.0,0.0
1315,70.0,0.0,60.0,4.0,0.0
1316,63.0,100.0,90.0,6.0,0.0
1317,70.0,10.0,60.0,1.0,0.0
1318,73.0,4.0,60.0,1.0,0.0
1319,80.0,0.0,90.0,4.0,0.0
1320,68.0,4.0,60.0,4.0,0.0
1321,49.0,2.0,60.0,8.0,0.0
1322,51.0,12.0,60.0,8.0,0.0
1323,31.0,98.0,90.0,11.0,0.0
1324,43.0,0.0,90.0,10.0,0.0
1325,31.0,2.0,90.0,11.0,0.0
1326,49.0,10.0,60.0,8.0,0.0
1327,51.0,4.0,60.0,8.0,0.0
1328,43.0,0.0,90.0,10.0,0.0
1329,79.0,100.0,90.0,4.0,0.0
1330,67.0,6.0,60.0,4.0,0.0
1331,77.0,112.0,90.0,4.0,0.0
1332,65.0,8.0,60.0,4.0,0.0
1333,43.0,4.0,90.0,10.0,0.0
1334,49.0,6.0,60.0,8.0,0.0
1335,51.0,2.0,60.0,8.0,0.0
1336,31.0,0.0,90.0,11.0,0.0
1337,75.0,8.0,90.0,4.0,0.0
1338,43.0,4.0,90.0,10.0,0.0
1339,63.0,94.0,90.0,4.0,0.0
1340,49.0,4.0,90.0,8.0,0.0
1341,51.0,0.0,90.0,8.0,0.0
1342,31.0,0.0,90.0,11.0,0.0
1343,43.0,8.0,90.0,10.0,0.0
1344,61.0,8.0,60.0,4.0,0.0
1345,73.0,100.0,90.0,4.0,0.0
1346,49.0,0.0,60.0,8.0,0.0
1347,31.0,0.0,90.0,11.0,0.0
1348,51.0,2.0,60.0,8.0,0.0
1349,72.0,102.0,90.0,4.0,0.0
1350,60.0,4.0,90.0,4.0,0.0
1351,51.0,8.0,60.0,8.0,0.0
1352,49.0,2.0,60.0,8.0,0.0
1353,31.0,0.0,60.0,11.0,0.0
1354,43.0,6.0,60.0,10.0,0.0
1355,49.0,0.0,90.0,8.0,0.0
1356,51.0,8.0,60.0,8.0,0.0
1357,31.0,2.0,90.0,11.0,0.0
1358,43.0,0.0,90.0,10.0,0.0
1359,58.0,8.0,60.0,4.0,0.0
1360,70.0,76.0,90.0,4.0,0.0
1361,56.0,0.0,90.0,6.0,0.0
1362,44.0,0.0,90.0,7.0,0.0
1363,32.0,0.0,60.0,11.0,0.0
1364,72.0,0.0,60.0,1.0,0.0
1365,68.0,4.0,60.0,1.0,0.0
1366,44.0,8.0,60.0,10.0,0.0
1367,60.0,2.0,60.0,5.0,0.0
1368,60.0,2.0,60.0,2.0,0.0
1369,68.0,0.0,90.0,6.0,0.0
1370,63.0,4.0,60.0,2.0,0.0
1371,48.0,4.0,60.0,3.0,0.0
1372,44.0,0.0,60.0,3.0,0.0
1373,60.0,4.0,90.0,4.0,0.0
1374,48.0,0.0,60.0,8.0,0.0
1375,51.0,6.0,60.0,8.0,0.0
1376,84.0,0.0,60.0,0.0,0.0
1377,75.0,0.0,60.0,0.0,0.0
1378,56.0,10.0,30.0,5.0,0.0
1379,72.0,110.0,90.0,4.0,0.0
1380,72.0,10.0,60.0,4.0,0.0
1381,84.0,110.0,90.0,4.0,0.0
1382,60.0,4.0,390.0,2.0,0.0
1383,56.0,0.0,390.0,10.0,0.0
1384,68.0,10.0,390.0,8.0,0.0
1385,72.0,8.0,390.0,1.0,0.0
1386,75.0,2.0,390.0,1.0,0.0
1387,51.0,26.0,360.0,5.0,0.0
1388,63.0,6.0,390.0,5.0,0.0
1389,63.0,4.0,390.0,2.0,0.0
1390,84.0,2.0,390.0,0.0,0.0
1391,75.0,18.0,420.0,0.0,0.0
1392,82.0,120.0,90.0,4.0,0.0
1393,70.0,10.0,60.0,4.0,0.0
1394,60.0,0.0,390.0,3.0,0.0
1395,56.0,8.0,420.0,3.0,0.0
1396,44.0,2.0,390.0,11.0,0.0
1397,80.0,2.0,90.0,4.0,0.0
1398,68.0,106.0,90.0,4.0,0.0
1399,67.0,12.0,60.0,4.0,0.0
1400,79.0,26.0,90.0,4.0,0.0
1401,77.0,90.0,90.0,4.0,0.0
1402,65.0,4.0,90.0,4.0,0.0
1403,70.0,2.0,60.0,1.0,0.0
1404,51.0,2.0,60.0,5.0,0.0
1405,75.0,2.0,60.0,0.0,0.0
1406,63.0,0.0,60.0,2.0,0.0
1407,58.0,2.0,60.0,2.0,0.0
1408,67.0,104.0,90.0,8.0,0.0
1409,55.0,2.0,60.0,3.0,0.0
1410,43.0,4.0,60.0,11.0,0.0
1411,55.0,0.0,60.0,10.0,0.0
1412,58.0,4.0,60.0,3.0,0.0
1413,75.0,4.0,60.0,1.0,0.0
1414,63.0,0.0,60.0,5.0,0.0
1415,82.0,0.0,60.0,0.0,0.0
1416,63.0,8.0,90.0,4.0,0.0
1417,75.0,8.0,90.0,4.0,0.0
1418,73.0,60.0,90.0,4.0,0.0
1419,61.0,8.0,90.0,4.0,0.0
1420,60.0,0.0,60.0,5.0,0.0
1421,72.0,2.0,60.0,1.0,0.0
1422,56.0,0.0,60.0,10.0,0.0
1423,60.0,2.0,60.0,3.0,0.0
1424,56.0,6.0,60.0,3.0,0.0
1425,68.0,6.0,60.0,8.0,0.0
1426,60.0,2.0,60.0,2.0,0.0
1427,72.0,12.0,90.0,4.0,0.0
1428,72.0,2.0,60.0,0.0,0.0
1429,44.0,0.0,60.0,11.0,0.0
1430,68.0,98.0,90.0,6.0,0.0
1431,75.0,22.0,20.0,1.0,0.0
1432,84.0,0.0,60.0,0.0,0.0
1433,48.0,6.0,60.0,5.0,0.0
1434,56.0,0.0,90.0,6.0,0.0
1435,60.0,12.0,60.0,4.0,0.0
1436,44.0,0.0,90.0,7.0,0.0
1437,68.0,10.0,60.0,4.0,0.0
1438,80.0,106.0,90.0,4.0,0.0
1439,68.0,6.0,390.0,2.0,0.0
1440,48.0,2.0,300.0,5.0,0.0
1441,60.0,36.0,330.0,5.0,0.0
1442,53.0,4.0,390.0,10.0,0.0
1443,79.0,120.0,90.0,4.0,0.0
1444,67.0,14.0,60.0,4.0,0.0
1445,53.0,10.0,390.0,3.0,0.0
1446,41.0,0.0,390.0,11.0,0.0
1447,65.0,24.0,420.0,8.0,0.0
1448,68.0,12.0,360.0,1.0,0.0
1449,72.0,16.0,390.0,0.0,0.0
1450,80.0,4.0,420.0,0.0,0.0
1451,56.0,4.0,390.0,3.0,0.0
1452,72.0,0.0,390.0,1.0,0.0
1453,60.0,2.0,360.0,2.0,0.0
1454,65.0,102.0,90.0,4.0,0.0
1455,77.0,6.0,90.0,4.0,0.0
1456,75.0,2.0,90.0,4.0,0.0
1457,63.0,10.0,60.0,4.0,0.0
1458,73.0,78.0,90.0,4.0,0.0
1459,61.0,0.0,90.0,4.0,0.0
1460,64.0,118.0,90.0,8.0,0.0
1461,60.0,0.0,60.0,2.0,0.0
1462,60.0,12.0,60.0,4.0,0.0
1463,72.0,0.0,90.0,4.0,0.0
1464,67.0,2.0,60.0,2.0,0.0
1465,72.0,0.0,60.0,0.0,0.0
1466,79.0,6.0,60.0,0.0,0.0
1467,52.0,0.0,90.0,10.0,0.0
1468,55.0,0.0,60.0,3.0,0.0
1469,40.0,2.0,90.0,11.0,0.0
1470,52.0,4.0,60.0,3.0,0.0
1471,72.0,10.0,60.0,1.0,0.0
1472,67.0,4.0,30.0,1.0,0.0
1473,48.0,4.0,60.0,5.0,0.0
1474,60.0,0.0,60.0,5.0,0.0
1475,58.0,72.0,90.0,4.0,0.0
1476,70.0,0.0,90.0,4.0,0.0
1477,68.0,6.0,60.0,1.0,0.0
1478,56.0,2.0,60.0,3.0,0.0
1479,44.0,4.0,60.0,5.0,0.0
1480,53.0,2.0,60.0,10.0,0.0
1481,68.0,0.0,60.0,2.0,0.0
1482,53.0,0.0,60.0,3.0,0.0
1483,65.0,10.0,60.0,8.0,0.0
1484,68.0,6.0,60.0,0.0,0.0
1485,44.0,0.0,90.0,7.0,0.0
1486,56.0,10.0,30.0,5.0,0.0
1487,68.0,16.0,90.0,4.0,0.0
1488,56.0,4.0,60.0,4.0,0.0
1489,80.0,0.0,60.0,0.0,0.0
1490,68.0,0.0,90.0,6.0,0.0
1491,56.0,94.0,90.0,6.0,0.0
1492,41.0,0.0,60.0,11.0,0.0
1493,56.0,4.0,60.0,2.0,0.0
1494,77.0,110.0,90.0,4.0,0.0
1495,65.0,10.0,60.0,4.0,0.0
1496,37.0,4.0,360.0,11.0,0.0
1497,63.0,10.0,60.0,4.0,0.0
1498,49.0,0.0,360.0,10.0,0.0
1499,77.0,18.0,330.0,1.0,0.0
1500,75.0,120.0,90.0,4.0,0.0
1501,61.0,30.0,480.0,8.0,0.0
1502,53.0,10.0,390.0,3.0,0.0
1503,49.0,32.0,360.0,3.0,0.0
1504,68.0,2.0,360.0,1.0,0.0
1505,68.0,2.0,360.0,0.0,0.0
1506,56.0,6.0,360.0,5.0,0.0
1507,44.0,4.0,360.0,5.0,0.0
1508,68.0,2.0,330.0,2.0,0.0
1509,65.0,0.0,360.0,2.0,0.0
1510,77.0,30.0,420.0,0.0,0.0
1511,61.0,110.0,90.0,4.0,0.0
1512,73.0,10.0,90.0,4.0,0.0
1513,60.0,8.0,90.0,4.0,0.0
1514,72.0,2.0,90.0,4.0,0.0
1515,58.0,42.0,90.0,4.0,0.0
1516,70.0,8.0,90.0,4.0,0.0
1517,44.0,4.0,60.0,5.0,0.0
1518,36.0,0.0,90.0,11.0,0.0
1519,78.0,8.0,60.0,1.0,0.0
1520,48.0,2.0,90.0,10.0,0.0
1521,48.0,0.0,60.0,3.0,0.0
1522,51.0,0.0,60.0,3.0,0.0
1523,56.0,2.0,30.0,5.0,0.0
1524,68.0,4.0,60.0,2.0,0.0
1525,63.0,10.0,60.0,2.0,0.0
1526,68.0,6.0,60.0,1.0,0.0
1527,60.0,108.0,90.0,8.0,0.0
1528,56.0,2.0,60.0,4.0,0.0
1529,78.0,0.0,60.0,0.0,0.0
1530,68.0,2.0,60.0,0.0,0.0
1531,68.0,10.0,90.0,4.0,0.0
1532,66.0,82.0,90.0,4.0,0.0
1533,54.0,2.0,90.0,4.0,0.0
1534,56.0,0.0,90.0,6.0,0.0
1535,77.0,0.0,60.0,1.0,0.0
1536,68.0,10.0,60.0,0.0,0.0
1537,56.0,0.0,60.0,5.0,0.0
1538,44.0,6.0,60.0,5.0,0.0
1539,61.0,4.0,90.0,8.0,0.0
1540,53.0,0.0,90.0,4.0,0.0
1541,65.0,8.0,60.0,2.0,0.0
1542,68.0,2.0,60.0,2.0,0.0
1543,44.0,92.0,90.0,7.0,0.0
1544,68.0,0.0,60.0,1.0,0.0
1545,49.0,0.0,90.0,10.0,0.0
1546,37.0,12.0,90.0,11.0,0.0
1547,77.0,0.0,60.0,0.0,0.0
1548,49.0,2.0,60.0,3.0,0.0
1549,53.0,0.0,60.0,3.0,0.0
1550,65.0,2.0,60.0,4.0,0.0
1551,68.0,0.0,90.0,6.0,0.0
1552,51.0,16.0,60.0,4.0,0.0
1553,63.0,72.0,90.0,4.0,0.0
1554,49.0,6.0,60.0,3.0,0.0
1555,84.0,0.0,60.0,0.0,0.0
1556,77.0,4.0,30.0,0.0,0.0
1557,85.0,10.0,30.0,0.0,0.0
1558,58.0,14.0,90.0,8.0,0.0
1559,34.0,86.0,90.0,11.0,0.0
1560,46.0,0.0,90.0,10.0,0.0
1561,51.0,10.0,60.0,4.0,0.0
1562,49.0,0.0,60.0,4.0,0.0
1563,61.0,0.0,90.0,4.0,0.0
1564,77.0,10.0,60.0,1.0,0.0
1565,65.0,4.0,60.0,2.0,0.0
1566,61.0,0.0,60.0,2.0,0.0
1567,60.0,76.0,90.0,4.0,0.0
1568,48.0,28.0,60.0,4.0,0.0
1569,73.0,4.0,60.0,0.0,0.0
1570,58.0,6.0,60.0,4.0,0.0
1571,61.0,6.0,60.0,2.0,0.0
1572,82.0,0.0,60.0,0.0,0.0
1573,58.0,6.0,60.0,2.0,0.0
1574,37.0,0.0,90.0,11.0,0.0
1575,70.0,8.0,60.0,1.0,0.0
1576,73.0,2.0,30.0,1.0,0.0
1577,49.0,6.0,90.0,10.0,0.0
1578,46.0,4.0,30.0,3.0,0.0
1579,61.0,110.0,90.0,8.0,0.0
1580,60.0,90.0,60.0,4.0,0.0
1581,72.0,8.0,60.0,0.0,0.0
1582,38.0,0.0,60.0,11.0,0.0
1583,50.0,2.0,60.0,10.0,0.0
1584,56.0,8.0,60.0,4.0,0.0
1585,80.0,8.0,60.0,0.0,0.0
1586,62.0,98.0,90.0,8.0,0.0
1587,50.0,2.0,60.0,3.0,0.0
1588,56.0,4.0,60.0,2.0,0.0
1589,72.0,2.0,60.0,1.0,0.0
1590,68.0,2.0,60.0,1.0,0.0
1591,60.0,4.0,30.0,2.0,0.0
1592,58.0,102.0,60.0,4.0,0.0
1593,51.0,48.0,90.0,6.0,0.0
1594,70.0,6.0,60.0,1.0,0.0
1595,63.0,2.0,90.0,8.0,0.0
1596,55.0,6.0,60.0,4.0,0.0
1597,70.0,4.0,60.0,0.0,0.0
1598,79.0,0.0,60.0,0.0,0.0
1599,58.0,0.0,60.0,2.0,0.0
1600,39.0,4.0,60.0,5.0,0.0
1601,39.0,0.0,90.0,7.0,0.0
1602,51.0,2.0,60.0,5.0,0.0
1603,63.0,0.0,90.0,6.0,0.0
1604,67.0,4.0,60.0,1.0,0.0
1605,51.0,10.0,60.0,3.0,0.0
1606,39.0,68.0,120.0,10.0,0.0
1607,27.0,0.0,120.0,11.0,0.0
1608,55.0,4.0,30.0,2.0,0.0
1609,39.0,0.0,90.0,11.0,0.0
1610,51.0,112.0,90.0,10.0,0.0
1611,67.0,30.0,420.0,2.0,0.0
1612,61.0,32.0,360.0,4.0,0.0
1613,61.0,6.0,420.0,2.0,0.0
1614,58.0,10.0,60.0,4.0,0.0
1615,51.0,0.0,90.0,10.0,0.0
1616,39.0,108.0,90.0,11.0,0.0
1617,39.0,112.0,90.0,11.0,0.0
1618,51.0,0.0,90.0,10.0,0.0
1619,56.0,10.0,60.0,4.0,0.0
1620,55.0,60.0,60.0,4.0,0.0
1621,51.0,0.0,60.0,10.0,0.0
1622,39.0,2.0,60.0,11.0,0.0
1623,51.0,2.0,90.0,10.0,0.0
1624,51.0,96.0,90.0,4.0,0.0
1625,39.0,0.0,90.0,11.0,0.0
1626,61.0,2.0,60.0,2.0,0.0
1627,61.0,2.0,60.0,4.0,0.0
1628,51.0,0.0,90.0,10.0,0.0
1629,53.0,6.0,90.0,4.0,0.0
1630,67.0,12.0,60.0,2.0,0.0
1631,39.0,102.0,90.0,11.0,0.0
1632,55.0,18.0,60.0,4.0,0.0
1633,39.0,0.0,90.0,11.0,0.0
1634,51.0,92.0,90.0,10.0,0.0
1635,68.0,6.0,90.0,2.0,0.0
1636,63.0,16.0,90.0,6.0,0.0
1637,60.0,14.0,60.0,2.0,0.0
1638,39.0,0.0,90.0,7.0,0.0
1639,39.0,10.0,60.0,5.0,0.0
1640,27.0,0.0,120.0,11.0,0.0
1641,56.0,0.0,60.0,4.0,0.0
1642,51.0,6.0,60.0,5.0,0.0
1643,51.0,0.0,90.0,6.0,0.0
1644,39.0,90.0,120.0,10.0,0.0
1645,60.0,0.0,60.0,4.0,0.0
1646,51.0,110.0,90.0,10.0,0.0
1647,55.0,6.0,90.0,4.0,0.0
1648,39.0,0.0,90.0,11.0,0.0
1649,48.0,2.0,360.0,3.0,0.0
1650,56.0,0.0,360.0,3.0,0.0
1651,44.0,6.0,90.0,8.0,0.0
1652,39.0,112.0,90.0,11.0,0.0
1653,51.0,0.0,90.0,10.0,0.0
1654,68.0,70.0,360.0,4.0,0.0
1655,56.0,4.0,60.0,4.0,0.0
1656,46.0,2.0,60.0,8.0,0.0
1657,39.0,0.0,90.0,11.0,0.0
1658,51.0,114.0,90.0,10.0,0.0
1659,58.0,4.0,90.0,4.0,0.0
1660,51.0,0.0,90.0,10.0,0.0
1661,48.0,0.0,90.0,8.0,0.0
1662,60.0,2.0,60.0,4.0,0.0
1663,39.0,44.0,90.0,11.0,0.0
1664,39.0,0.0,60.0,11.0,0.0
1665,46.0,6.0,90.0,8.0,0.0
1666,51.0,8.0,60.0,10.0,0.0
1667,58.0,96.0,90.0,4.0,0.0
1668,68.0,4.0,60.0,4.0,0.0
1669,60.0,12.0,60.0,4.0,0.0
1670,56.0,2.0,60.0,3.0,0.0
1671,39.0,106.0,90.0,11.0,0.0
1672,51.0,0.0,90.0,10.0,0.0
1673,48.0,6.0,60.0,3.0,0.0
1674,48.0,0.0,60.0,8.0,0.0
1675,62.0,2.0,90.0,4.0,0.0
1676,39.0,0.0,90.0,11.0,0.0
1677,50.0,10.0,60.0,8.0,0.0
1678,51.0,92.0,90.0,10.0,0.0
1679,67.0,8.0,60.0,4.0,0.0
1680,39.0,0.0,90.0,7.0,0.0
1681,51.0,22.0,90.0,6.0,0.0
1682,63.0,0.0,90.0,6.0,0.0
1683,39.0,82.0,120.0,10.0,0.0
1684,63.0,2.0,90.0,4.0,0.0
1685,27.0,0.0,120.0,11.0,0.0
1686,51.0,4.0,60.0,8.0,0.0
1687,39.0,14.0,60.0,5.0,0.0
1688,51.0,0.0,60.0,5.0,0.0
1689,55.0,6.0,120.0,3.0,0.0
1690,46.0,2.0,120.0,3.0,0.0
1691,62.0,8.0,90.0,4.0,0.0
1692,51.0,0.0,90.0,10.0,0.0
1693,39.0,108.0,90.0,11.0,0.0
1694,50.0,0.0,90.0,8.0,0.0
1695,82.0,2.0,420.0,0.0,0.0
1696,73.0,8.0,420.0,4.0,0.0
1697,51.0,2.0,90.0,8.0,0.0
1698,79.0,0.0,390.0,0.0,0.0
1699,63.0,92.0,90.0,4.0,0.0
1700,67.0,10.0,420.0,2.0,0.0
1701,61.0,2.0,390.0,2.0,0.0
1702,70.0,16.0,390.0,1.0,0.0
1703,73.0,2.0,390.0,1.0,0.0
1704,51.0,0.0,90.0,10.0,0.0
1705,39.0,10.0,90.0,11.0,0.0
1706,51.0,10.0,60.0,3.0,0.0
1707,65.0,0.0,60.0,4.0,0.0
1708,51.0,106.0,90.0,10.0,0.0
1709,39.0,0.0,90.0,11.0,0.0
1710,53.0,6.0,60.0,8.0,0.0
1711,51.0,8.0,60.0,3.0,0.0
1712,51.0,6.0,60.0,3.0,0.0
1713,67.0,8.0,60.0,4.0,0.0
1714,55.0,2.0,60.0,8.0,0.0
1715,51.0,64.0,90.0,10.0,0.0
1716,39.0,0.0,90.0,11.0,0.0
1717,51.0,0.0,90.0,10.0,0.0
1718,51.0,14.0,60.0,3.0,0.0
1719,63.0,2.0,90.0,4.0,0.0
1720,39.0,2.0,90.0,11.0,0.0
1721,51.0,92.0,90.0,8.0,0.0
1722,82.0,4.0,60.0,0.0,0.0
1723,51.0,6.0,90.0,10.0,0.0
1724,53.0,2.0,60.0,8.0,0.0
1725,79.0,0.0,60.0,0.0,0.0
1726,39.0,0.0,90.0,11.0,0.0
1727,51.0,4.0,60.0,3.0,0.0
1728,61.0,2.0,60.0,2.0,0.0
1729,70.0,4.0,60.0,1.0,0.0
1730,73.0,0.0,60.0,1.0,0.0
1731,67.0,2.0,60.0,2.0,0.0
1732,65.0,2.0,60.0,4.0,0.0
1733,73.0,108.0,90.0,4.0,0.0
1734,39.0,0.0,90.0,11.0,0.0
1735,51.0,4.0,60.0,3.0,0.0
1736,67.0,0.0,90.0,4.0,0.0
1737,51.0,82.0,90.0,10.0,0.0
1738,55.0,6.0,60.0,8.0,0.0
1739,27.0,92.0,120.0,11.0,0.0
1740,68.0,6.0,90.0,4.0,0.0
1741,72.0,4.0,90.0,4.0,0.0
1742,51.0,2.0,60.0,3.0,0.0
1743,68.0,6.0,60.0,2.0,0.0
1744,68.0,10.0,30.0,1.0,0.0
1745,51.0,2.0,60.0,5.0,0.0
1746,39.0,0.0,60.0,5.0,0.0
1747,60.0,0.0,60.0,2.0,0.0
1748,80.0,2.0,60.0,0.0,0.0
1749,84.0,6.0,60.0,0.0,0.0
1750,51.0,0.0,90.0,6.0,0.0
1751,63.0,20.0,90.0,6.0,0.0
1752,39.0,0.0,120.0,10.0,0.0
1753,56.0,8.0,60.0,8.0,0.0
1754,72.0,2.0,60.0,1.0,0.0
1755,39.0,0.0,90.0,7.0,0.0
1756,51.0,0.0,90.0,3.0,0.0
1757,67.0,98.0,90.0,4.0,0.0
1758,39.0,0.0,90.0,11.0,0.0
1759,51.0,2.0,90.0,10.0,0.0
1760,55.0,2.0,90.0,8.0,0.0
1761,80.0,26.0,360.0,1.0,0.0
1762,84.0,8.0,420.0,0.0,0.0
1763,68.0,4.0,60.0,4.0,0.0
1764,60.0,16.0,390.0,2.0,0.0
1765,68.0,4.0,390.0,2.0,0.0
1766,80.0,0.0,420.0,0.0,0.0
1767,80.0,4.0,390.0,4.0,0.0
1768,72.0,0.0,330.0,1.0,0.0
1769,56.0,6.0,90.0,8.0,0.0
1770,56.0,8.0,60.0,3.0,0.0
1771,51.0,0.0,90.0,10.0,0.0
1772,39.0,88.0,90.0,11.0,0.0
1773,58.0,6.0,90.0,8.0,0.0
1774,39.0,84.0,90.0,11.0,0.0
1775,70.0,2.0,60.0,4.0,0.0
1776,51.0,18.0,60.0,3.0,0.0
1777,58.0,6.0,60.0,3.0,0.0
1778,51.0,0.0,90.0,10.0,0.0
1779,60.0,6.0,90.0,8.0,0.0
1780,51.0,0.0,90.0,10.0,0.0
1781,60.0,10.0,60.0,3.0,0.0
1782,51.0,18.0,60.0,3.0,0.0
1783,39.0,34.0,90.0,11.0,0.0
1784,72.0,2.0,60.0,4.0,0.0
1785,39.0,8.0,90.0,11.0,0.0
1786,51.0,0.0,90.0,10.0,0.0
1787,70.0,76.0,90.0,4.0,0.0
1788,51.0,6.0,60.0,3.0,0.0
1789,58.0,22.0,60.0,3.0,0.0
1790,58.0,0.0,90.0,8.0,0.0
1791,72.0,10.0,90.0,4.0,0.0
1792,80.0,80.0,90.0,4.0,0.0
1793,84.0,0.0,60.0,0.0,0.0
1794,60.0,2.0,60.0,8.0,0.0
1795,80.0,2.0,60.0,0.0,0.0
1796,60.0,4.0,60.0,2.0,0.0
1797,51.0,10.0,60.0,3.0,0.0
1798,80.0,2.0,60.0,1.0,0.0
1799,60.0,0.0,60.0,3.0,0.0
1800,68.0,8.0,60.0,2.0,0.0
1801,51.0,0.0,90.0,10.0,0.0
1802,72.0,2.0,60.0,1.0,0.0
1803,39.0,4.0,90.0,11.0,0.0
1804,39.0,0.0,90.0,11.0,0.0
1805,51.0,10.0,60.0,3.0,0.0
1806,74.0,56.0,90.0,4.0,0.0
1807,62.0,16.0,60.0,3.0,0.0
1808,51.0,0.0,90.0,10.0,0.0
1809,62.0,10.0,90.0,8.0,0.0
1810,79.0,2.0,90.0,4.0,0.0
1811,51.0,0.0,90.0,6.0,0.0
1812,63.0,6.0,90.0,6.0,0.0
1813,39.0,0.0,90.0,11.0,0.0
1814,39.0,0.0,90.0,7.0,0.0
1815,63.0,2.0,90.0,8.0,0.0
1816,75.0,4.0,90.0,4.0,0.0
1817,70.0,4.0,60.0,1.0,0.0
1818,79.0,6.0,60.0,1.0,0.0
1819,63.0,4.0,60.0,3.0,0.0
1820,51.0,0.0,90.0,10.0,0.0
1821,51.0,6.0,60.0,3.0,0.0
1822,58.0,10.0,60.0,2.0,0.0
1823,67.0,118.0,90.0,2.0,0.0
1824,51.0,0.0,60.0,5.0,0.0
1825,39.0,28.0,20.0,5.0,0.0
1826,79.0,0.0,60.0,0.0,0.0
1827,82.0,2.0,60.0,0.0,0.0
1828,58.0,22.0,90.0,8.0,0.0
1829,75.0,50.0,120.0,4.0,0.0
1830,46.0,0.0,90.0,10.0,0.0
1831,53.0,0.0,90.0,3.0,0.0
1832,74.0,8.0,60.0,1.0,0.0
1833,65.0,0.0,60.0,1.0,0.0
1834,58.0,8.0,90.0,8.0,0.0
1835,80.0,6.0,90.0,4.0,0.0
1836,74.0,2.0,90.0,4.0,0.0
1837,70.0,6.0,90.0,4.0,0.0
1838,62.0,0.0,90.0,2.0,0.0
1839,82.0,2.0,60.0,0.0,0.0
1840,80.0,16.0,60.0,0.0,0.0
1841,58.0,8.0,60.0,5.0,0.0
1842,34.0,2.0,90.0,11.0,0.0
1843,65.0,112.0,90.0,2.0,0.0
1844,58.0,0.0,90.0,8.0,0.0
1845,74.0,50.0,90.0,4.0,0.0
1846,82.0,8.0,60.0,0.0,0.0
1847,51.0,0.0,90.0,10.0,0.0
1848,79.0,6.0,60.0,0.0,0.0
1849,39.0,2.0,90.0,11.0,0.0
1850,58.0,4.0,90.0,8.0,0.0
1851,63.0,2.0,90.0,2.0,0.0
1852,67.0,106.0,90.0,2.0,0.0
1853,70.0,8.0,90.0,4.0,0.0
1854,67.0,4.0,60.0,1.0,0.0
1855,75.0,4.0,60.0,1.0,0.0
1856,73.0,26.0,30.0,1.0,0.0
1857,55.0,0.0,60.0,3.0,0.0
1858,79.0,4.0,90.0,4.0,0.0
1859,51.0,0.0,60.0,3.0,0.0
1860,75.0,0.0,90.0,4.0,0.0
1861,58.0,2.0,60.0,5.0,0.0
1862,75.0,76.0,90.0,4.0,0.0
1863,58.0,12.0,90.0,8.0,0.0
1864,58.0,6.0,60.0,5.0,0.0
1865,62.0,0.0,60.0,2.0,0.0
1866,53.0,0.0,60.0,3.0,0.0
1867,56.0,6.0,60.0,3.0,0.0
1868,65.0,4.0,60.0,1.0,0.0
1869,74.0,2.0,60.0,1.0,0.0
1870,80.0,6.0,90.0,4.0,0.0
1871,70.0,8.0,90.0,4.0,0.0
1872,65.0,6.0,60.0,2.0,0.0
1873,74.0,2.0,90.0,4.0,0.0
1874,46.0,110.0,90.0,10.0,0.0
1875,80.0,0.0,60.0,0.0,0.0
1876,58.0,2.0,90.0,8.0,0.0
1877,34.0,0.0,90.0,11.0,0.0
1878,82.0,2.0,60.0,0.0,0.0
1879,58.0,10.0,90.0,8.0,0.0
1880,74.0,78.0,90.0,4.0,0.0
1881,58.0,6.0,90.0,8.0,0.0
1882,75.0,2.0,60.0,1.0,0.0
1883,63.0,110.0,90.0,6.0,0.0
1884,63.0,2.0,60.0,2.0,0.0
1885,51.0,0.0,90.0,6.0,0.0
1886,67.0,0.0,60.0,1.0,0.0
1887,39.0,4.0,90.0,11.0,0.0
1888,39.0,0.0,90.0,7.0,0.0
1889,67.0,2.0,60.0,2.0,0.0
1890,55.0,6.0,60.0,3.0,0.0
1891,51.0,0.0,60.0,3.0,0.0
1892,79.0,6.0,90.0,4.0,0.0
1893,70.0,0.0,60.0,4.0,0.0
1894,51.0,0.0,90.0,10.0,0.0
1895,75.0,0.0,90.0,4.0,0.0
1896,82.0,10.0,60.0,0.0,0.0
1897,79.0,6.0,60.0,0.0,0.0
1898,58.0,0.0,60.0,5.0,0.0
1899,75.0,80.0,90.0,4.0,0.0
1900,58.0,0.0,90.0,8.0,0.0
1901,74.0,2.0,60.0,1.0,0.0
1902,65.0,6.0,60.0,1.0,0.0
1903,82.0,2.0,60.0,0.0,0.0
1904,34.0,0.0,90.0,11.0,0.0
1905,80.0,8.0,60.0,0.0,0.0
1906,65.0,6.0,60.0,2.0,0.0
1907,74.0,6.0,90.0,4.0,0.0
1908,46.0,108.0,90.0,10.0,0.0
1909,56.0,0.0,60.0,3.0,0.0
1910,53.0,0.0,60.0,3.0,0.0
1911,58.0,4.0,90.0,8.0,0.0
1912,62.0,2.0,60.0,2.0,0.0
1913,70.0,10.0,60.0,4.0,0.0
1914,80.0,2.0,90.0,4.0,0.0
1915,58.0,0.0,60.0,5.0,0.0
1916,58.0,8.0,90.0,8.0,0.0
1917,74.0,84.0,90.0,4.0,0.0
1918,82.0,2.0,60.0,0.0,0.0
1919,67.0,4.0,60.0,1.0,0.0
1920,79.0,4.0,60.0,0.0,0.0
1921,58.0,2.0,60.0,5.0,0.0
1922,75.0,0.0,60.0,1.0,0.0
1923,58.0,4.0,90.0,8.0,0.0
1924,51.0,4.0,60.0,3.0,0.0
1925,70.0,8.0,60.0,4.0,0.0
1926,39.0,110.0,90.0,11.0,0.0
1927,51.0,0.0,90.0,10.0,0.0
1928,79.0,4.0,90.0,4.0,0.0
1929,55.0,0.0,60.0,3.0,0.0
1930,63.0,0.0,60.0,2.0,0.0
1931,75.0,0.0,90.0,4.0,0.0
1932,67.0,4.0,60.0,2.0,0.0
1933,58.0,6.0,90.0,8.0,0.0
1934,75.0,90.0,90.0,4.0,0.0
1935,80.0,14.0,90.0,4.0,0.0
1936,56.0,0.0,60.0,3.0,0.0
1937,53.0,0.0,60.0,3.0,0.0
1938,70.0,2.0,60.0,4.0,0.0
1939,58.0,0.0,60.0,5.0,0.0
1940,58.0,6.0,90.0,8.0,0.0
1941,46.0,0.0,90.0,10.0,0.0
1942,82.0,4.0,60.0,0.0,0.0
1943,65.0,4.0,60.0,1.0,0.0
1944,65.0,2.0,60.0,2.0,0.0
1945,62.0,0.0,60.0,2.0,0.0
1946,34.0,106.0,90.0,11.0,0.0
1947,74.0,0.0,60.0,1.0,0.0
1948,80.0,6.0,60.0,0.0,0.0
1949,74.0,2.0,60.0,4.0,0.0
1950,58.0,2.0,90.0,8.0,0.0
1951,74.0,92.0,90.0,4.0,0.0
1952,63.0,0.0,90.0,6.0,0.0
1953,79.0,0.0,60.0,0.0,0.0
1954,75.0,0.0,90.0,1.0,0.0
1955,67.0,0.0,60.0,1.0,0.0
1956,51.0,0.0,90.0,10.0,0.0
1957,55.0,4.0,90.0,3.0,0.0
1958,51.0,2.0,90.0,3.0,0.0
1959,58.0,16.0,120.0,8.0,0.0
1960,51.0,4.0,90.0,6.0,0.0
1961,79.0,10.0,90.0,4.0,0.0
1962,70.0,0.0,90.0,4.0,0.0
1963,82.0,10.0,60.0,0.0,0.0
1964,51.0,4.0,60.0,5.0,0.0
1965,63.0,0.0,90.0,2.0,0.0
1966,39.0,0.0,90.0,11.0,0.0
1967,58.0,16.0,60.0,5.0,0.0
1968,75.0,408.0,120.0,4.0,0.0
1969,39.0,0.0,90.0,7.0,0.0
1970,67.0,0.0,90.0,2.0,0.0
1971,58.0,410.0,150.0,4.0,0.0
1972,63.0,10.0,90.0,2.0,0.0
1973,75.0,0.0,90.0,2.0,0.0
1974,75.0,2.0,90.0,1.0,0.0
1975,51.0,0.0,90.0,6.0,0.0
1976,63.0,0.0,90.0,6.0,0.0
1977,39.0,10.0,120.0,3.0,0.0
1978,67.0,2.0,90.0,1.0,0.0
1979,51.0,4.0,90.0,8.0,0.0
1980,79.0,4.0,60.0,0.0,0.0
1981,87.0,20.0,60.0,0.0,0.0
1982,39.0,6.0,120.0,10.0,0.0
1983,27.0,0.0,120.0,11.0,0.0
1984,51.0,6.0,60.0,5.0,0.0
1985,63.0,12.0,90.0,5.0,0.0
1986,51.0,2.0,120.0,4.0,0.0
1987,75.0,4.0,120.0,4.0,0.0
1988,67.0,4.0,120.0,4.0,0.0
1989,39.0,0.0,90.0,7.0,0.0
1990,51.0,12.0,90.0,4.0,0.0
1991,51.0,6.0,90.0,8.0,0.0
1992,39.0,10.0,120.0,3.0,0.0
1993,51.0,0.0,90.0,2.0,0.0
1994,63.0,0.0,90.0,2.0,0.0
1995,63.0,6.0,90.0,1.0,0.0
1996,39.0,910.0,120.0,10.0,0.0
1997,39.0,0.0,90.0,7.0,0.0
1998,51.0,0.0,90.0,6.0,0.0
1999,27.0,0.0,120.0,11.0,0.0
2000,63.0,8.0,90.0,6.0,0.0
2001,51.0,4.0,90.0,5.0,0.0
2002,75.0,10.0,60.0,0.0,0.0
2003,39.0,0.0,90.0,11.0,0.0
2004,63.0,18.0,60.0,4.0,0.0
2005,51.0,6.0,90.0,8.0,0.0
2006,51.0,24.0,90.0,10.0,0.0
2007,63.0,156.0,120.0,1.0,0.0
2008,51.0,10.0,120.0,3.0,0.0
2009,67.0,234.0,60.0,0.0,0.0
2010,70.0,6.0,60.0,0.0,0.0
2011,70.0,4.0,60.0,0.0,0.0
2012,75.0,240.0,60.0,0.0,0.0
2013,75.0,0.0,60.0,0.0,0.0
2014,79.0,502.0,60.0,0.0,0.0
2015,82.0,16.0,960.0,0.0,0.0
2016,79.0,34.0,990.0,0.0,0.0
2017,63.0,224.0,60.0,1.0,0.0
2018,67.0,240.0,60.0,1.0,0.0
2019,70.0,198.0,60.0,1.0,0.0
2020,75.0,18.0,60.0,4.0,0.0
2021,75.0,470.0,90.0,1.0,0.0
2022,82.0,398.0,390.0,0.0,0.0
2023,79.0,50.0,360.0,0.0,0.0
2024,71.0,32.0,90.0,1.0,0.0
2025,71.0,10.0,60.0,4.0,0.0
2026,80.0,34.0,330.0,0.0,0.0
2027,77.0,412.0,360.0,0.0,0.0
2028,72.0,0.0,90.0,4.0,0.0
2029,72.0,18.0,90.0,1.0,0.0
2030,79.0,34.0,330.0,0.0,0.0
2031,75.0,164.0,360.0,0.0,0.0
2032,68.0,16.0,60.0,1.0,0.0
2033,68.0,14.0,90.0,4.0,0.0
2034,77.0,226.0,60.0,0.0,0.0
2035,80.0,6.0,60.0,0.0,0.0
2036,77.0,4.0,60.0,0.0,0.0
2037,74.0,24.0,60.0,0.0,0.0
2038,70.0,200.0,90.0,1.0,0.0
2039,70.0,10.0,60.0,4.0,0.0
2040,70.0,234.0,60.0,0.0,0.0
2041,74.0,16.0,30.0,0.0,0.0
2042,77.0,8.0,60.0,0.0,0.0
2043,74.0,230.0,60.0,0.0,0.0
2044,77.0,4.0,60.0,0.0,0.0
2045,80.0,498.0,60.0,0.0,0.0
2046,80.0,398.0,1080.0,0.0,0.0
2047,84.0,10.0,1050.0,0.0,0.0
2048,70.0,228.0,60.0,1.0,0.0
2049,72.0,232.0,60.0,1.0,0.0
2050,74.0,262.0,60.0,1.0,0.0
2051,75.0,30.0,90.0,1.0,0.0
2052,75.0,0.0,90.0,4.0,0.0
2053,82.0,34.0,300.0,0.0,0.0
2054,79.0,18.0,270.0,0.0,0.0
2055,68.0,6.0,90.0,4.0,0.0
2056,68.0,468.0,90.0,1.0,0.0
2057,77.0,454.0,330.0,0.0,0.0
2058,80.0,6.0,330.0,0.0,0.0
2059,70.0,14.0,90.0,4.0,0.0
2060,70.0,2.0,90.0,1.0,0.0
2061,79.0,0.0,330.0,0.0,0.0
2062,75.0,194.0,330.0,0.0,0.0
2063,58.0,16.0,90.0,4.0,0.0
2064,58.0,8.0,90.0,1.0,0.0
2065,74.0,6.0,60.0,0.0,0.0
2066,77.0,234.0,60.0,0.0,0.0
2067,39.0,0.0,90.0,11.0,0.0
2068,63.0,4.0,90.0,4.0,0.0
2069,79.0,6.0,60.0,0.0,0.0
2070,75.0,20.0,60.0,0.0,0.0
2071,51.0,158.0,120.0,4.0,0.0
2072,63.0,16.0,90.0,1.0,0.0
2073,51.0,26.0,90.0,10.0,0.0
2074,51.0,0.0,120.0,8.0,0.0
2075,58.0,2.0,30.0,2.0,0.0
2076,43.0,4.0,60.0,3.0,0.0
2077,46.0,224.0,60.0,3.0,0.0
2078,55.0,0.0,60.0,2.0,0.0
2079,58.0,10.0,60.0,2.0,0.0
2080,51.0,234.0,60.0,3.0,0.0
2081,63.0,12.0,30.0,2.0,0.0
2082,46.0,0.0,60.0,3.0,0.0
2083,63.0,0.0,60.0,2.0,0.0
2084,67.0,8.0,60.0,2.0,0.0
2085,70.0,0.0,60.0,0.0,0.0
2086,67.0,0.0,60.0,0.0,0.0
2087,51.0,4.0,60.0,3.0,0.0
2088,55.0,222.0,60.0,3.0,0.0
2089,67.0,76.0,1440.0,2.0,0.0
2090,58.0,0.0,1440.0,3.0,0.0
2091,70.0,0.0,1440.0,2.0,0.0
2092,75.0,236.0,60.0,0.0,0.0
2093,55.0,0.0,1440.0,3.0,0.0
2094,70.0,6.0,30.0,0.0,0.0
2095,51.0,12.0,60.0,4.0,0.0
2096,39.0,0.0,90.0,10.0,0.0
2097,27.0,208.0,90.0,11.0,0.0
2098,75.0,0.0,60.0,0.0,0.0
2099,79.0,26.0,60.0,0.0,0.0
2100,31.0,0.0,90.0,11.0,0.0
2101,55.0,12.0,60.0,4.0,0.0
2102,43.0,210.0,90.0,10.0,0.0
2103,55.0,0.0,60.0,8.0,0.0
2104,75.0,22.0,60.0,0.0,0.0
2105,82.0,0.0,540.0,0.0,0.0
2106,58.0,8.0,60.0,4.0,0.0
2107,58.0,8.0,60.0,8.0,0.0
2108,34.0,0.0,90.0,11.0,0.0
2109,79.0,10.0,60.0,0.0,0.0
2110,46.0,232.0,90.0,10.0,0.0
2111,39.0,2.0,60.0,11.0,0.0
2112,63.0,220.0,90.0,4.0,0.0
2113,51.0,0.0,60.0,10.0,0.0
2114,63.0,6.0,90.0,8.0,0.0
2115,58.0,2.0,60.0,4.0,0.0
2116,82.0,4.0,60.0,0.0,0.0
2117,70.0,168.0,60.0,4.0,0.0
2118,79.0,4.0,60.0,0.0,0.0
2119,47.0,0.0,90.0,10.0,0.0
2120,59.0,220.0,90.0,8.0,0.0
2121,35.0,4.0,90.0,11.0,0.0
2122,56.0,6.0,480.0,3.0,0.0
2123,53.0,52.0,510.0,3.0,0.0
2124,65.0,16.0,510.0,2.0,0.0
2125,68.0,4.0,480.0,2.0,0.0
2126,74.0,170.0,90.0,4.0,0.0
2127,80.0,6.0,60.0,0.0,0.0
2128,77.0,8.0,60.0,0.0,0.0
2129,62.0,2.0,60.0,4.0,0.0
2130,67.0,2.0,540.0,2.0,0.0
2131,63.0,34.0,510.0,2.0,0.0
2132,48.0,218.0,90.0,10.0,0.0
2133,55.0,22.0,540.0,3.0,0.0
2134,51.0,10.0,510.0,3.0,0.0
2135,36.0,0.0,90.0,11.0,0.0
2136,60.0,0.0,90.0,8.0,0.0
2137,75.0,10.0,60.0,0.0,0.0
2138,79.0,4.0,60.0,0.0,0.0
2139,75.0,180.0,90.0,4.0,0.0
2140,63.0,0.0,90.0,4.0,0.0
2141,56.0,40.0,480.0,3.0,0.0
2142,53.0,42.0,420.0,3.0,0.0
2143,32.0,196.0,90.0,11.0,0.0
2144,56.0,16.0,90.0,8.0,0.0
2145,68.0,38.0,450.0,2.0,0.0
2146,44.0,0.0,90.0,10.0,0.0
2147,65.0,18.0,390.0,2.0,0.0
2148,80.0,16.0,60.0,0.0,0.0
2149,77.0,4.0,60.0,0.0,0.0
2150,72.0,4.0,90.0,4.0,0.0
2151,60.0,72.0,90.0,4.0,0.0
2152,50.0,8.0,60.0,3.0,0.0
2153,53.0,10.0,60.0,3.0,0.0
2154,58.0,0.0,90.0,8.0,0.0
2155,77.0,0.0,60.0,0.0,0.0
2156,65.0,6.0,90.0,4.0,0.0
2157,46.0,202.0,90.0,10.0,0.0
2158,65.0,4.0,60.0,2.0,0.0
2159,62.0,6.0,60.0,2.0,0.0
2160,34.0,0.0,90.0,11.0,0.0
2161,74.0,6.0,60.0,0.0,0.0
2162,53.0,0.0,90.0,4.0,0.0
2163,50.0,2.0,60.0,3.0,0.0
2164,46.0,222.0,60.0,3.0,0.0
2165,58.0,2.0,60.0,2.0,0.0
2166,62.0,6.0,60.0,2.0,0.0
2167,53.0,224.0,60.0,3.0,0.0
2168,50.0,4.0,60.0,3.0,0.0
2169,62.0,8.0,30.0,2.0,0.0
2170,65.0,14.0,60.0,2.0,0.0
2171,68.0,2.0,60.0,2.0,0.0
2172,65.0,6.0,60.0,2.0,0.0
2173,53.0,4.0,60.0,3.0,0.0
2174,56.0,224.0,60.0,3.0,0.0
2175,74.0,0.0,60.0,0.0,0.0
2176,80.0,4.0,60.0,0.0,0.0
2177,56.0,54.0,1110.0,3.0,0.0
2178,72.0,8.0,1170.0,2.0,0.0
2179,68.0,68.0,1170.0,2.0,0.0
2180,77.0,270.0,60.0,0.0,0.0
2181,60.0,6.0,1110.0,3.0,0.0
2182,84.0,18.0,870.0,0.0,0.0
2183,46.0,2.0,90.0,10.0,0.0
2184,46.0,230.0,90.0,8.0,0.0
2185,58.0,0.0,90.0,4.0,0.0
2186,80.0,30.0,840.0,0.0,0.0
2187,34.0,0.0,90.0,11.0,0.0
2188,48.0,36.0,90.0,8.0,0.0
2189,48.0,0.0,90.0,10.0,0.0
2190,60.0,0.0,90.0,4.0,0.0
2191,36.0,8.0,90.0,11.0,0.0
2192,62.0,4.0,90.0,4.0,0.0
2193,50.0,4.0,60.0,8.0,0.0
2194,50.0,244.0,90.0,10.0,0.0
2195,38.0,0.0,90.0,11.0,0.0
2196,51.0,16.0,90.0,8.0,0.0
2197,39.0,6.0,90.0,11.0,0.0
2198,63.0,0.0,90.0,4.0,0.0
2199,51.0,0.0,90.0,10.0,0.0
2200,70.0,20.0,420.0,2.0,0.0
2201,58.0,238.0,90.0,4.0,0.0
2202,70.0,8.0,90.0,4.0,0.0
2203,67.0,22.0,390.0,2.0,0.0
2204,79.0,16.0,60.0,0.0,0.0
2205,82.0,10.0,60.0,0.0,0.0
2206,58.0,12.0,420.0,3.0,0.0
2207,55.0,88.0,450.0,3.0,0.0
2208,32.0,0.0,90.0,11.0,0.0
2209,44.0,58.0,90.0,10.0,0.0
2210,56.0,12.0,90.0,8.0,0.0
2211,68.0,26.0,420.0,2.0,0.0
2212,65.0,94.0,450.0,2.0,0.0
2213,80.0,14.0,60.0,0.0,0.0
2214,53.0,18.0,390.0,3.0,0.0
2215,77.0,6.0,60.0,0.0,0.0
2216,72.0,238.0,90.0,4.0,0.0
2217,60.0,2.0,60.0,4.0,0.0
2218,56.0,26.0,360.0,3.0,0.0
2219,34.0,44.0,90.0,11.0,0.0
2220,46.0,0.0,90.0,10.0,0.0
2221,58.0,12.0,60.0,8.0,0.0
2222,55.0,6.0,420.0,3.0,0.0
2223,63.0,112.0,420.0,2.0,0.0
2224,67.0,34.0,390.0,2.0,0.0
2225,58.0,2.0,60.0,8.0,0.0
2226,75.0,8.0,60.0,0.0,0.0
2227,63.0,8.0,60.0,4.0,0.0
2228,55.0,248.0,90.0,4.0,0.0
2229,51.0,6.0,360.0,3.0,0.0
2230,79.0,10.0,60.0,0.0,0.0
2231,34.0,44.0,90.0,11.0,0.0
2232,46.0,0.0,90.0,10.0,0.0
2233,62.0,4.0,90.0,2.0,0.0
2234,53.0,6.0,120.0,3.0,0.0
2235,50.0,20.0,90.0,3.0,0.0
2236,58.0,6.0,60.0,8.0,0.0
2237,77.0,8.0,60.0,0.0,0.0
2238,74.0,10.0,60.0,0.0,0.0
2239,62.0,10.0,90.0,4.0,0.0
2240,65.0,176.0,120.0,2.0,0.0
2241,56.0,4.0,90.0,4.0,0.0
2242,39.0,110.0,90.0,11.0,0.0
2243,51.0,6.0,90.0,3.0,0.0
2244,51.0,0.0,90.0,10.0,0.0
2245,63.0,2.0,60.0,4.0,0.0
2246,75.0,14.0,60.0,0.0,0.0
2247,55.0,4.0,60.0,4.0,0.0
2248,58.0,68.0,3120.0,5.0,0.0
2249,51.0,8.0,90.0,8.0,0.0
2250,58.0,30.0,3330.0,2.0,0.0
2251,70.0,0.0,2010.0,2.0,0.0
2252,55.0,100.0,90.0,4.0,0.0
2253,70.0,6.0,60.0,4.0,0.0
2254,58.0,4.0,60.0,4.0,0.0
2255,58.0,122.0,60.0,8.0,0.0
2256,58.0,118.0,60.0,4.0,0.0
2257,75.0,2.0,60.0,4.0,0.0
2258,51.0,106.0,90.0,4.0,0.0
2259,63.0,12.0,60.0,8.0,0.0
2260,55.0,112.0,60.0,4.0,0.0
2261,79.0,10.0,60.0,4.0,0.0
2262,58.0,4.0,60.0,4.0,0.0
2263,67.0,110.0,90.0,8.0,0.0
2264,55.0,128.0,60.0,4.0,0.0
2265,70.0,6.0,60.0,8.0,0.0
2266,55.0,74.0,120.0,10.0,0.0
2267,51.0,0.0,90.0,4.0,0.0
2268,82.0,32.0,90.0,4.0,0.0
2269,43.0,0.0,120.0,11.0,0.0
2270,55.0,106.0,60.0,4.0,0.0
2271,58.0,26.0,90.0,1.0,0.0
2272,58.0,10.0,60.0,4.0,0.0
2273,46.0,92.0,90.0,3.0,0.0
2274,70.0,14.0,60.0,0.0,0.0
2275,55.0,96.0,60.0,4.0,0.0
2276,51.0,114.0,90.0,4.0,0.0
2277,63.0,20.0,60.0,1.0,0.0
2278,51.0,8.0,60.0,3.0,0.0
2279,75.0,2.0,60.0,0.0,0.0
2280,55.0,98.0,60.0,4.0,0.0
2281,55.0,0.0,60.0,3.0,0.0
2282,79.0,16.0,60.0,0.0,0.0
2283,67.0,2.0,60.0,1.0,0.0
2284,58.0,124.0,60.0,4.0,0.0
2285,55.0,118.0,60.0,4.0,0.0
2286,41.0,22.0,90.0,11.0,0.0
2287,56.0,70.0,120.0,3.0,0.0
2288,68.0,12.0,60.0,1.0,0.0
2289,80.0,8.0,90.0,0.0,0.0
2290,53.0,10.0,90.0,4.0,0.0
2291,70.0,40.0,5910.0,1.0,0.0
2292,53.0,0.0,90.0,10.0,0.0
2293,56.0,116.0,60.0,4.0,0.0
2294,58.0,2.0,60.0,4.0,0.0
2295,65.0,70.0,480.0,2.0,0.0
2296,70.0,12.0,60.0,4.0,0.0
2297,58.0,106.0,90.0,8.0,0.0
2298,56.0,110.0,60.0,4.0,0.0
2299,62.0,0.0,90.0,8.0,0.0
2300,74.0,16.0,90.0,4.0,0.0
2301,53.0,100.0,90.0,4.0,0.0
2302,62.0,16.0,60.0,2.0,0.0
2303,56.0,52.0,60.0,4.0,0.0
2304,77.0,114.0,90.0,4.0,0.0
2305,58.0,2.0,60.0,4.0,0.0
2306,65.0,0.0,60.0,8.0,0.0
2307,56.0,132.0,60.0,4.0,0.0
2308,34.0,82.0,120.0,11.0,0.0
2309,80.0,24.0,90.0,4.0,0.0
2310,53.0,4.0,90.0,4.0,0.0
2311,46.0,0.0,120.0,10.0,0.0
2312,68.0,0.0,90.0,8.0,0.0
2313,56.0,50.0,60.0,4.0,0.0
2314,65.0,14.0,240.0,2.0,0.0
2315,53.0,8.0,240.0,3.0,0.0
2316,77.0,30.0,270.0,1.0,0.0
2317,58.0,116.0,60.0,4.0,0.0
2318,56.0,28.0,60.0,4.0,0.0
2319,62.0,6.0,60.0,2.0,0.0
2320,50.0,8.0,60.0,3.0,0.0
2321,74.0,6.0,60.0,1.0,0.0
2322,58.0,34.0,240.0,5.0,0.0
2323,53.0,118.0,90.0,4.0,0.0
2324,56.0,52.0,60.0,4.0,0.0
2325,74.0,2.0,270.0,0.0,0.0
2326,86.0,22.0,270.0,0.0,0.0
2327,44.0,2.0,60.0,3.0,0.0
2328,56.0,2.0,60.0,2.0,0.0
2329,68.0,30.0,30.0,1.0,0.0
2330,58.0,110.0,60.0,4.0,0.0
2331,56.0,78.0,60.0,4.0,0.0
2332,75.0,12.0,60.0,0.0,0.0
2333,87.0,20.0,60.0,0.0,0.0
2334,67.0,52.0,390.0,1.0,0.0
2335,55.0,64.0,120.0,2.0,0.0
2336,39.0,34.0,90.0,11.0,0.0
2337,43.0,12.0,90.0,3.0,0.0
2338,51.0,0.0,90.0,10.0,0.0
2339,51.0,6.0,60.0,4.0,0.0
2340,58.0,12.0,3060.0,5.0,0.0
2341,55.0,116.0,60.0,4.0,0.0
2342,58.0,64.0,90.0,8.0,0.0
2343,70.0,2.0,60.0,4.0,0.0
2344,58.0,8.0,60.0,4.0,0.0
2345,55.0,116.0,90.0,4.0,0.0
2346,75.0,4.0,90.0,4.0,0.0
2347,51.0,110.0,90.0,4.0,0.0
2348,63.0,8.0,60.0,8.0,0.0
2349,55.0,118.0,60.0,4.0,0.0
2350,79.0,6.0,60.0,4.0,0.0
2351,58.0,2.0,60.0,4.0,0.0
2352,67.0,110.0,90.0,8.0,0.0
2353,55.0,132.0,60.0,4.0,0.0
2354,55.0,88.0,120.0,10.0,0.0
2355,70.0,2.0,90.0,8.0,0.0
2356,43.0,0.0,120.0,11.0,0.0
2357,82.0,22.0,90.0,4.0,0.0
2358,51.0,0.0,90.0,4.0,0.0
2359,55.0,98.0,60.0,4.0,0.0
2360,46.0,0.0,60.0,3.0,0.0
2361,58.0,114.0,60.0,4.0,0.0
2362,58.0,16.0,60.0,1.0,0.0
2363,70.0,4.0,60.0,0.0,0.0
2364,55.0,100.0,60.0,4.0,0.0
2365,63.0,8.0,60.0,1.0,0.0
2366,51.0,30.0,60.0,3.0,0.0
2367,75.0,0.0,60.0,0.0,0.0
2368,51.0,110.0,90.0,4.0,0.0
2369,55.0,90.0,60.0,4.0,0.0
2370,79.0,2.0,30.0,0.0,0.0
2371,58.0,130.0,60.0,4.0,0.0
2372,55.0,4.0,60.0,3.0,0.0
2373,67.0,16.0,60.0,1.0,0.0
2374,55.0,100.0,90.0,4.0,0.0
2375,53.0,2.0,90.0,4.0,0.0
2376,41.0,90.0,120.0,11.0,0.0
2377,56.0,24.0,90.0,3.0,0.0
2378,68.0,4.0,90.0,1.0,0.0
2379,53.0,0.0,120.0,10.0,0.0
2380,80.0,24.0,60.0,0.0,0.0
2381,56.0,94.0,90.0,4.0,0.0
2382,70.0,20.0,60.0,4.0,0.0
2383,58.0,2.0,60.0,4.0,0.0
2384,58.0,110.0,90.0,8.0,0.0
2385,56.0,128.0,60.0,4.0,0.0
2386,53.0,8.0,60.0,4.0,0.0
2387,62.0,102.0,90.0,8.0,0.0
2388,74.0,2.0,90.0,4.0,0.0
2389,56.0,114.0,60.0,4.0,0.0
2390,77.0,106.0,90.0,4.0,0.0
2391,65.0,14.0,60.0,8.0,0.0
2392,58.0,10.0,60.0,4.0,0.0
2393,56.0,122.0,60.0,4.0,0.0
2394,80.0,4.0,60.0,4.0,0.0
2395,68.0,6.0,90.0,8.0,0.0
2396,46.0,82.0,90.0,10.0,0.0
2397,34.0,0.0,90.0,11.0,0.0
2398,53.0,20.0,90.0,4.0,0.0
2399,56.0,100.0,90.0,4.0,0.0
2400,77.0,0.0,240.0,1.0,0.0
2401,65.0,18.0,210.0,2.0,0.0
2402,58.0,138.0,60.0,4.0,0.0
2403,53.0,46.0,240.0,3.0,0.0
2404,56.0,28.0,60.0,4.0,0.0
2405,74.0,10.0,60.0,1.0,0.0
2406,50.0,18.0,60.0,3.0,0.0
2407,53.0,118.0,60.0,4.0,0.0
2408,62.0,0.0,60.0,2.0,0.0
2409,58.0,76.0,360.0,5.0,0.0
2410,56.0,90.0,60.0,4.0,0.0
2411,86.0,52.0,240.0,0.0,0.0
2412,74.0,4.0,240.0,0.0,0.0
2413,44.0,48.0,60.0,3.0,0.0
2414,68.0,12.0,30.0,1.0,0.0
2415,56.0,10.0,60.0,2.0,0.0
2416,58.0,2.0,60.0,4.0,0.0
2417,56.0,60.0,60.0,4.0,0.0
2418,70.0,10.0,780.0,4.0,0.0
2419,42.0,6.0,210.0,3.0,0.0
2420,54.0,0.0,90.0,8.0,0.0
2421,39.0,60.0,90.0,10.0,0.0
2422,87.0,4.0,60.0,0.0,0.0
2423,58.0,44.0,750.0,4.0,0.0
2424,75.0,12.0,90.0,0.0,0.0
2425,54.0,18.0,300.0,2.0,0.0
2426,27.0,0.0,90.0,11.0,0.0
2427,58.0,2.0,60.0,5.0,0.0
2428,66.0,12.0,60.0,1.0,0.0
2429,39.0,10.0,90.0,11.0,0.0
2430,54.0,80.0,90.0,8.0,0.0
2431,51.0,0.0,90.0,10.0,0.0
2432,39.0,0.0,60.0,11.0,0.0
2433,51.0,20.0,60.0,10.0,0.0
2434,54.0,106.0,90.0,8.0,0.0
2435,54.0,110.0,90.0,8.0,0.0
2436,39.0,10.0,90.0,11.0,0.0
2437,51.0,0.0,90.0,10.0,0.0
2438,51.0,10.0,90.0,10.0,0.0
2439,39.0,0.0,90.0,11.0,0.0
2440,54.0,114.0,90.0,8.0,0.0
2441,54.0,56.0,90.0,8.0,0.0
2442,39.0,0.0,90.0,11.0,0.0
2443,51.0,10.0,90.0,10.0,0.0
2444,69.0,26.0,300.0,4.0,0.0
2445,51.0,0.0,90.0,10.0,0.0
2446,57.0,6.0,300.0,4.0,0.0
2447,39.0,10.0,90.0,11.0,0.0
2448,54.0,116.0,90.0,8.0,0.0
2449,39.0,0.0,90.0,11.0,0.0
2450,51.0,4.0,90.0,10.0,0.0
2451,54.0,84.0,90.0,8.0,0.0
2452,70.0,18.0,780.0,4.0,0.0
2453,58.0,12.0,780.0,4.0,0.0
2454,39.0,0.0,90.0,11.0,0.0
2455,54.0,108.0,90.0,8.0,0.0
2456,51.0,8.0,90.0,10.0,0.0
2457,54.0,114.0,90.0,8.0,0.0
2458,51.0,0.0,90.0,10.0,0.0
2459,39.0,10.0,90.0,11.0,0.0
2460,51.0,0.0,90.0,10.0,0.0
2461,39.0,4.0,90.0,11.0,0.0
2462,54.0,110.0,90.0,8.0,0.0
2463,51.0,0.0,90.0,10.0,0.0
2464,54.0,112.0,90.0,8.0,0.0
2465,39.0,12.0,90.0,11.0,0.0
2466,54.0,114.0,90.0,8.0,0.0
2467,39.0,0.0,90.0,11.0,0.0
2468,51.0,6.0,90.0,10.0,0.0
2469,39.0,10.0,90.0,11.0,0.0
2470,54.0,78.0,90.0,8.0,0.0
2471,51.0,0.0,90.0,10.0,0.0
2472,51.0,8.0,90.0,10.0,0.0
2473,59.0,10.0,300.0,4.0,0.0
2474,54.0,120.0,90.0,8.0,0.0
2475,71.0,20.0,300.0,4.0,0.0
2476,39.0,0.0,90.0,11.0,0.0
2477,54.0,80.0,90.0,8.0,0.0
2478,51.0,0.0,90.0,10.0,0.0
2479,39.0,6.0,90.0,11.0,0.0
2480,52.0,110.0,90.0,8.0,0.0
2481,70.0,12.0,780.0,4.0,0.0
2482,58.0,6.0,780.0,4.0,0.0
2483,37.0,0.0,90.0,11.0,0.0
2484,49.0,8.0,90.0,10.0,0.0
2485,78.0,8.0,3900.0,1.0,0.0
2486,37.0,120.0,90.0,11.0,0.0
2487,52.0,0.0,90.0,8.0,0.0
2488,49.0,0.0,90.0,10.0,0.0
2489,52.0,112.0,90.0,8.0,0.0
2490,49.0,0.0,90.0,10.0,0.0
2491,37.0,8.0,90.0,11.0,0.0
2492,52.0,118.0,90.0,8.0,0.0
2493,49.0,0.0,90.0,10.0,0.0
2494,37.0,0.0,90.0,11.0,0.0
2495,49.0,0.0,90.0,10.0,0.0
2496,52.0,114.0,90.0,8.0,0.0
2497,37.0,0.0,90.0,11.0,0.0
2498,49.0,0.0,90.0,10.0,0.0
2499,37.0,6.0,90.0,11.0,0.0
2500,52.0,92.0,90.0,8.0,0.0
2501,37.0,0.0,60.0,11.0,0.0
2502,57.0,12.0,300.0,4.0,0.0
2503,69.0,6.0,300.0,4.0,0.0
2504,49.0,4.0,60.0,10.0,0.0
2505,52.0,124.0,90.0,8.0,0.0
2506,49.0,0.0,90.0,10.0,0.0
2507,37.0,94.0,90.0,11.0,0.0
2508,52.0,0.0,90.0,8.0,0.0
2509,54.0,26.0,2670.0,3.0,0.0
2510,70.0,4.0,780.0,4.0,0.0
2511,49.0,14.0,60.0,10.0,0.0
2512,37.0,0.0,60.0,11.0,0.0
2513,58.0,6.0,780.0,4.0,0.0
2514,52.0,106.0,90.0,8.0,0.0
2515,52.0,104.0,90.0,8.0,0.0
2516,37.0,0.0,60.0,11.0,0.0
2517,49.0,8.0,60.0,10.0,0.0
2518,49.0,16.0,60.0,10.0,0.0
2519,52.0,112.0,90.0,8.0,0.0
2520,37.0,0.0,60.0,11.0,0.0
2521,37.0,0.0,60.0,11.0,0.0
2522,49.0,4.0,60.0,10.0,0.0
2523,52.0,116.0,90.0,8.0,0.0
2524,37.0,0.0,60.0,11.0,0.0
2525,49.0,8.0,60.0,10.0,0.0
2526,52.0,120.0,90.0,8.0,0.0
2527,52.0,2.0,90.0,8.0,0.0
2528,49.0,0.0,90.0,10.0,0.0
2529,37.0,104.0,90.0,11.0,0.0
2530,71.0,24.0,300.0,4.0,0.0
2531,59.0,2.0,300.0,4.0,0.0
2532,35.0,120.0,90.0,11.0,0.0
2533,47.0,0.0,90.0,10.0,0.0
2534,52.0,0.0,90.0,8.0,0.0
2535,47.0,0.0,90.0,10.0,0.0
2536,52.0,88.0,90.0,8.0,0.0
2537,35.0,10.0,90.0,11.0,0.0
2538,46.0,0.0,90.0,10.0,0.0
2539,34.0,20.0,90.0,11.0,0.0
2540,49.0,94.0,90.0,8.0,0.0
2541,61.0,20.0,780.0,4.0,0.0
2542,66.0,28.0,1980.0,1.0,0.0
2543,73.0,8.0,780.0,4.0,0.0
2544,46.0,0.0,60.0,10.0,0.0
2545,34.0,8.0,60.0,11.0,0.0
2546,49.0,102.0,90.0,8.0,0.0
2547,34.0,26.0,60.0,11.0,0.0
2548,46.0,0.0,60.0,10.0,0.0
2549,49.0,102.0,90.0,8.0,0.0
2550,34.0,0.0,60.0,11.0,0.0
2551,46.0,22.0,60.0,10.0,0.0
2552,49.0,96.0,90.0,8.0,0.0
2553,46.0,0.0,60.0,10.0,0.0
2554,49.0,106.0,90.0,8.0,0.0
2555,34.0,14.0,60.0,11.0,0.0
2556,46.0,4.0,60.0,10.0,0.0
2557,34.0,0.0,60.0,11.0,0.0
2558,49.0,98.0,60.0,8.0,0.0
2559,63.0,4.0,300.0,4.0,0.0
2560,47.0,10.0,90.0,8.0,0.0
2561,32.0,0.0,90.0,11.0,0.0
2562,44.0,106.0,90.0,10.0,0.0
2563,75.0,16.0,300.0,4.0,0.0
2564,47.0,6.0,90.0,8.0,0.0
2565,44.0,0.0,90.0,10.0,0.0
2566,32.0,88.0,90.0,11.0,0.0
2567,46.0,106.0,90.0,8.0,0.0
2568,76.0,22.0,780.0,4.0,0.0
2569,42.0,16.0,60.0,10.0,0.0
2570,64.0,4.0,780.0,4.0,0.0
2571,30.0,0.0,60.0,11.0,0.0
2572,30.0,118.0,90.0,11.0,0.0
2573,42.0,0.0,90.0,10.0,0.0
2574,46.0,4.0,60.0,8.0,0.0
2575,42.0,0.0,60.0,10.0,0.0
2576,58.0,112.0,90.0,8.0,0.0
2577,30.0,10.0,60.0,11.0,0.0
2578,58.0,110.0,90.0,8.0,0.0
2579,30.0,6.0,90.0,11.0,0.0
2580,42.0,0.0,90.0,10.0,0.0
2581,58.0,118.0,60.0,8.0,0.0
2582,42.0,0.0,60.0,10.0,0.0
2583,30.0,2.0,60.0,11.0,0.0
2584,42.0,0.0,90.0,10.0,0.0
2585,58.0,8.0,60.0,8.0,0.0
2586,30.0,60.0,90.0,11.0,0.0
2587,40.0,0.0,60.0,10.0,0.0
2588,28.0,70.0,60.0,11.0,0.0
2589,58.0,18.0,150.0,3.0,0.0
2590,58.0,2.0,60.0,8.0,0.0
2591,61.0,22.0,150.0,4.0,0.0
2592,73.0,24.0,180.0,4.0,0.0
2593,40.0,76.0,90.0,10.0,0.0
2594,58.0,2.0,60.0,8.0,0.0
2595,28.0,0.0,90.0,11.0,0.0
2596,27.0,28.0,120.0,11.0,0.0
2597,39.0,0.0,120.0,10.0,0.0
2598,59.0,44.0,90.0,8.0,0.0
2599,66.0,6.0,270.0,4.0,0.0
2600,78.0,4.0,270.0,4.0,0.0
2601,59.0,122.0,150.0,3.0,0.0
2602,63.0,266.0,90.0,4.0,0.0
2603,54.0,6.0,60.0,8.0,0.0
2604,59.0,10.0,60.0,8.0,0.0
2605,75.0,14.0,60.0,4.0,0.0
2606,61.0,36.0,270.0,4.0,0.0
2607,73.0,12.0,270.0,4.0,0.0
2608,40.0,162.0,90.0,10.0,0.0
2609,28.0,0.0,90.0,11.0,0.0
2610,52.0,2.0,90.0,8.0,0.0
2611,56.0,6.0,90.0,8.0,0.0
2612,76.0,4.0,60.0,4.0,0.0
2613,64.0,240.0,90.0,4.0,0.0
2614,59.0,24.0,300.0,4.0,0.0
2615,30.0,200.0,90.0,11.0,0.0
2616,42.0,0.0,90.0,10.0,0.0
2617,71.0,6.0,270.0,4.0,0.0
2618,54.0,0.0,90.0,8.0,0.0
2619,63.0,248.0,90.0,4.0,0.0
2620,75.0,0.0,90.0,4.0,0.0
2621,51.0,2.0,60.0,8.0,0.0
2622,42.0,190.0,90.0,10.0,0.0
2623,30.0,0.0,90.0,11.0,0.0
2624,70.0,22.0,270.0,4.0,0.0
2625,58.0,10.0,300.0,4.0,0.0
2626,52.0,0.0,90.0,8.0,0.0
2627,49.0,0.0,60.0,8.0,0.0
2628,73.0,236.0,90.0,4.0,0.0
2629,61.0,10.0,60.0,4.0,0.0
2630,55.0,12.0,1140.0,8.0,0.0
2631,43.0,0.0,1110.0,11.0,0.0
2632,51.0,0.0,60.0,6.0,0.0
2633,63.0,0.0,60.0,6.0,0.0
2634,73.0,96.0,90.0,4.0,0.0
2635,55.0,28.0,1080.0,3.0,0.0
2636,82.0,12.0,1800.0,1.0,0.0
2637,51.0,4.0,2010.0,5.0,0.0
2638,63.0,4.0,2010.0,5.0,0.0
2639,85.0,16.0,1860.0,0.0,0.0
2640,87.0,6.0,1950.0,0.0,0.0
2641,75.0,6.0,90.0,4.0,0.0
2642,70.0,0.0,90.0,4.0,0.0
2643,55.0,30.0,1110.0,10.0,0.0
2644,70.0,2.0,1800.0,2.0,0.0
2645,73.0,6.0,1800.0,2.0,0.0
2646,39.0,22.0,60.0,7.0,0.0
2647,73.0,34.0,1770.0,1.0,0.0
2648,63.0,16.0,90.0,6.0,0.0
2649,39.0,0.0,90.0,7.0,0.0
2650,70.0,2.0,90.0,4.0,0.0
2651,75.0,98.0,90.0,4.0,0.0
2652,73.0,0.0,90.0,4.0,0.0
2653,51.0,0.0,90.0,6.0,0.0
2654,75.0,4.0,90.0,4.0,0.0
2655,70.0,4.0,90.0,4.0,0.0
2656,73.0,102.0,90.0,4.0,0.0
2657,63.0,14.0,60.0,6.0,0.0
2658,39.0,0.0,60.0,7.0,0.0
2659,51.0,0.0,60.0,6.0,0.0
2660,75.0,0.0,90.0,4.0,0.0
2661,51.0,0.0,90.0,6.0,0.0
2662,63.0,0.0,90.0,6.0,0.0
2663,73.0,104.0,90.0,4.0,0.0
2664,39.0,10.0,90.0,7.0,0.0
2665,70.0,10.0,90.0,4.0,0.0
2666,73.0,100.0,90.0,4.0,0.0
2667,75.0,10.0,90.0,4.0,0.0
2668,70.0,2.0,90.0,4.0,0.0
2669,39.0,0.0,90.0,7.0,0.0
2670,51.0,2.0,90.0,6.0,0.0
2671,63.0,0.0,90.0,6.0,0.0
2672,73.0,2.0,90.0,4.0,0.0
2673,75.0,100.0,90.0,4.0,0.0
2674,39.0,0.0,60.0,7.0,0.0
2675,51.0,10.0,60.0,6.0,0.0
2676,70.0,8.0,90.0,4.0,0.0
2677,63.0,0.0,60.0,6.0,0.0
2678,51.0,0.0,60.0,6.0,0.0
2679,63.0,0.0,60.0,6.0,0.0
2680,70.0,8.0,90.0,4.0,0.0
2681,39.0,10.0,60.0,7.0,0.0
2682,73.0,104.0,90.0,4.0,0.0
2683,75.0,0.0,90.0,4.0,0.0
2684,75.0,2.0,90.0,4.0,0.0
2685,73.0,102.0,90.0,4.0,0.0
2686,70.0,8.0,90.0,4.0,0.0
2687,39.0,8.0,90.0,7.0,0.0
2688,63.0,0.0,90.0,6.0,0.0
2689,51.0,0.0,90.0,6.0,0.0
2690,51.0,0.0,90.0,6.0,0.0
2691,73.0,24.0,90.0,4.0,0.0
2692,75.0,8.0,90.0,4.0,0.0
2693,70.0,10.0,90.0,4.0,0.0
2694,39.0,0.0,90.0,7.0,0.0
2695,63.0,8.0,90.0,6.0,0.0
2696,63.0,0.0,90.0,6.0,0.0
2697,75.0,8.0,90.0,4.0,0.0
2698,73.0,44.0,90.0,4.0,0.0
2699,70.0,10.0,90.0,4.0,0.0
2700,56.0,4.0,180.0,8.0,0.0
2701,39.0,8.0,90.0,7.0,0.0
2702,56.0,0.0,150.0,10.0,0.0
2703,56.0,16.0,150.0,3.0,0.0
2704,51.0,0.0,90.0,6.0,0.0
2705,44.0,30.0,150.0,11.0,0.0
2706,39.0,0.0,90.0,7.0,0.0
2707,63.0,8.0,90.0,6.0,0.0
2708,51.0,0.0,90.0,6.0,0.0
2709,58.0,20.0,180.0,10.0,0.0
2710,75.0,2.0,90.0,4.0,0.0
2711,73.0,50.0,90.0,4.0,0.0
2712,70.0,6.0,90.0,4.0,0.0
2713,46.0,0.0,180.0,11.0,0.0
2714,58.0,28.0,150.0,3.0,0.0
2715,58.0,8.0,210.0,8.0,0.0
2716,75.0,0.0,90.0,4.0,0.0
2717,56.0,16.0,150.0,3.0,0.0
2718,70.0,2.0,90.0,4.0,0.0
2719,63.0,6.0,60.0,6.0,0.0
2720,73.0,74.0,90.0,4.0,0.0
2721,56.0,10.0,210.0,8.0,0.0
2722,56.0,8.0,180.0,10.0,0.0
2723,44.0,0.0,180.0,11.0,0.0
2724,39.0,0.0,60.0,7.0,0.0
2725,51.0,0.0,60.0,6.0,0.0
2726,55.0,0.0,150.0,3.0,0.0
2727,55.0,0.0,150.0,10.0,0.0
2728,55.0,26.0,150.0,8.0,0.0
2729,75.0,0.0,90.0,4.0,0.0
2730,73.0,62.0,90.0,4.0,0.0
2731,70.0,4.0,90.0,4.0,0.0
2732,43.0,8.0,150.0,11.0,0.0
2733,51.0,0.0,60.0,6.0,0.0
2734,39.0,16.0,60.0,7.0,0.0
2735,63.0,0.0,60.0,6.0,0.0
2736,39.0,0.0,60.0,7.0,0.0
2737,51.0,4.0,180.0,8.0,0.0
2738,70.0,64.0,90.0,4.0,0.0
2739,75.0,2.0,90.0,4.0,0.0
2740,73.0,0.0,90.0,4.0,0.0
2741,51.0,0.0,180.0,10.0,0.0
2742,51.0,14.0,60.0,6.0,0.0
2743,63.0,0.0,60.0,6.0,0.0
2744,39.0,10.0,180.0,11.0,0.0
2745,51.0,26.0,150.0,3.0,0.0
2746,51.0,0.0,60.0,6.0,0.0
2747,70.0,6.0,90.0,4.0,0.0
2748,53.0,6.0,150.0,3.0,0.0
2749,75.0,2.0,90.0,4.0,0.0
2750,63.0,0.0,60.0,6.0,0.0
2751,39.0,6.0,60.0,7.0,0.0
2752,53.0,14.0,180.0,8.0,0.0
2753,53.0,0.0,150.0,10.0,0.0
2754,41.0,16.0,150.0,11.0,0.0
2755,73.0,6.0,90.0,4.0,0.0
2756,55.0,0.0,150.0,3.0,0.0
2757,51.0,0.0,150.0,6.0,0.0
2758,55.0,26.0,180.0,10.0,0.0
2759,63.0,0.0,150.0,6.0,0.0
2760,55.0,10.0,150.0,8.0,0.0
2761,39.0,8.0,150.0,7.0,0.0
2762,73.0,64.0,90.0,4.0,0.0
2763,43.0,0.0,180.0,11.0,0.0
2764,75.0,0.0,90.0,4.0,0.0
2765,70.0,6.0,90.0,4.0,0.0
2766,56.0,0.0,90.0,10.0,0.0
2767,71.0,6.0,90.0,2.0,0.0
2768,83.0,8.0,90.0,0.0,0.0
2769,44.0,0.0,90.0,11.0,0.0
2770,68.0,96.0,120.0,2.0,0.0
2771,71.0,40.0,270.0,4.0,0.0
2772,56.0,20.0,210.0,3.0,0.0
2773,71.0,6.0,90.0,1.0,0.0
2774,80.0,4.0,90.0,1.0,0.0
2775,56.0,2.0,90.0,8.0,0.0
2776,75.0,28.0,270.0,4.0,0.0
2777,56.0,30.0,120.0,6.0,0.0
2778,68.0,0.0,120.0,6.0,0.0
2779,44.0,0.0,120.0,7.0,0.0
2780,51.0,0.0,90.0,8.0,0.0
2781,59.0,8.0,90.0,4.0,0.0
2782,56.0,240.0,90.0,8.0,0.0
2783,37.0,0.0,90.0,11.0,0.0
2784,82.0,4.0,270.0,0.0,0.0
2785,58.0,14.0,240.0,3.0,0.0
2786,49.0,160.0,90.0,10.0,0.0
2787,70.0,18.0,270.0,4.0,0.0
2788,58.0,6.0,270.0,4.0,0.0
2789,61.0,0.0,90.0,4.0,0.0
2790,73.0,10.0,60.0,4.0,0.0
2791,85.0,2.0,60.0,0.0,0.0
2792,61.0,10.0,60.0,3.0,0.0
2793,52.0,240.0,90.0,8.0,0.0
2794,49.0,10.0,90.0,8.0,0.0
2795,80.0,8.0,240.0,0.0,0.0
2796,68.0,6.0,300.0,4.0,0.0
2797,56.0,8.0,300.0,4.0,0.0
2798,51.0,156.0,90.0,10.0,0.0
2799,39.0,0.0,90.0,11.0,0.0
2800,56.0,36.0,240.0,3.0,0.0
2801,51.0,6.0,90.0,8.0,0.0
2802,47.0,4.0,90.0,8.0,0.0
2803,59.0,10.0,60.0,3.0,0.0
2804,59.0,238.0,90.0,4.0,0.0
2805,83.0,2.0,60.0,0.0,0.0
2806,71.0,4.0,60.0,4.0,0.0
2807,79.0,22.0,240.0,0.0,0.0
2808,67.0,6.0,300.0,4.0,0.0
2809,55.0,22.0,270.0,3.0,0.0
2810,39.0,0.0,90.0,10.0,0.0
2811,27.0,158.0,90.0,11.0,0.0
2812,55.0,4.0,300.0,4.0,0.0
2813,58.0,2.0,60.0,4.0,0.0
2814,82.0,0.0,60.0,0.0,0.0
2815,49.0,230.0,60.0,8.0,0.0
2816,58.0,6.0,60.0,3.0,0.0
2817,46.0,4.0,60.0,8.0,0.0
2818,70.0,6.0,60.0,4.0,0.0
2819,62.0,12.0,1140.0,8.0,0.0
2820,50.0,20.0,1110.0,3.0,0.0
2821,80.0,22.0,1830.0,0.0,0.0
2822,82.0,14.0,1950.0,0.0,0.0
2823,65.0,0.0,1830.0,2.0,0.0
2824,38.0,22.0,1140.0,11.0,0.0
2825,68.0,22.0,1800.0,2.0,0.0
2826,80.0,36.0,60.0,4.0,0.0
2827,58.0,30.0,1920.0,5.0,0.0
2828,70.0,0.0,60.0,4.0,0.0
2829,82.0,92.0,90.0,4.0,0.0
2830,50.0,0.0,1140.0,10.0,0.0
2831,68.0,24.0,1770.0,1.0,0.0
2832,77.0,8.0,1830.0,1.0,0.0
2833,70.0,10.0,90.0,4.0,0.0
2834,82.0,94.0,90.0,4.0,0.0
2835,80.0,8.0,60.0,4.0,0.0
2836,82.0,102.0,90.0,4.0,0.0
2837,80.0,12.0,90.0,4.0,0.0
2838,70.0,16.0,60.0,4.0,0.0
2839,80.0,10.0,90.0,4.0,0.0
2840,70.0,8.0,60.0,4.0,0.0
2841,82.0,110.0,90.0,4.0,0.0
2842,82.0,108.0,90.0,4.0,0.0
2843,70.0,8.0,90.0,4.0,0.0
2844,80.0,2.0,90.0,4.0,0.0
2845,82.0,110.0,90.0,4.0,0.0
2846,70.0,6.0,90.0,4.0,0.0
2847,80.0,4.0,90.0,4.0,0.0
2848,80.0,4.0,90.0,4.0,0.0
2849,82.0,102.0,90.0,4.0,0.0
2850,70.0,6.0,90.0,4.0,0.0
2851,80.0,2.0,90.0,4.0,0.0
2852,82.0,98.0,90.0,4.0,0.0
2853,70.0,18.0,60.0,4.0,0.0
2854,80.0,56.0,90.0,4.0,0.0
2855,82.0,0.0,90.0,4.0,0.0
2856,70.0,24.0,60.0,4.0,0.0
2857,63.0,2.0,150.0,8.0,0.0
2858,51.0,10.0,150.0,3.0,0.0
2859,51.0,0.0,180.0,10.0,0.0
2860,39.0,26.0,180.0,11.0,0.0
2861,70.0,12.0,90.0,4.0,0.0
2862,80.0,4.0,90.0,4.0,0.0
2863,82.0,54.0,90.0,4.0,0.0
2864,80.0,46.0,90.0,4.0,0.0
2865,65.0,2.0,150.0,8.0,0.0
2866,41.0,24.0,150.0,11.0,0.0
2867,53.0,20.0,150.0,3.0,0.0
2868,53.0,0.0,150.0,10.0,0.0
2869,70.0,22.0,60.0,4.0,0.0
2870,82.0,0.0,90.0,4.0,0.0
2871,82.0,48.0,90.0,4.0,0.0
2872,80.0,6.0,90.0,4.0,0.0
2873,51.0,40.0,150.0,3.0,0.0
2874,39.0,0.0,180.0,11.0,0.0
2875,70.0,24.0,60.0,4.0,0.0
2876,51.0,16.0,180.0,10.0,0.0
2877,63.0,4.0,180.0,8.0,0.0
2878,38.0,22.0,150.0,11.0,0.0
2879,62.0,18.0,180.0,8.0,0.0
2880,50.0,24.0,120.0,3.0,0.0
2881,50.0,0.0,150.0,10.0,0.0
2882,70.0,2.0,60.0,4.0,0.0
2883,82.0,36.0,90.0,4.0,0.0
2884,80.0,4.0,90.0,4.0,0.0
2885,34.0,0.0,150.0,11.0,0.0
2886,46.0,20.0,150.0,3.0,0.0
2887,46.0,12.0,150.0,10.0,0.0
2888,58.0,18.0,180.0,8.0,0.0
2889,82.0,46.0,90.0,4.0,0.0
2890,70.0,10.0,60.0,4.0,0.0
2891,80.0,14.0,90.0,4.0,0.0
2892,82.0,6.0,90.0,4.0,0.0
2893,48.0,6.0,150.0,3.0,0.0
2894,60.0,20.0,180.0,8.0,0.0
2895,36.0,0.0,150.0,11.0,0.0
2896,48.0,2.0,150.0,10.0,0.0
2897,70.0,6.0,60.0,4.0,0.0
2898,80.0,8.0,90.0,4.0,0.0
2899,50.0,0.0,180.0,10.0,0.0
2900,62.0,6.0,180.0,8.0,0.0
2901,80.0,4.0,90.0,4.0,0.0
2902,38.0,2.0,180.0,11.0,0.0
2903,82.0,36.0,90.0,4.0,0.0
2904,70.0,12.0,60.0,4.0,0.0
2905,50.0,14.0,180.0,3.0,0.0
2906,51.0,0.0,150.0,10.0,0.0
2907,78.0,4.0,90.0,0.0,0.0
2908,63.0,36.0,120.0,2.0,0.0
2909,66.0,10.0,90.0,2.0,0.0
2910,78.0,72.0,210.0,4.0,0.0
2911,78.0,2.0,60.0,1.0,0.0
2912,66.0,6.0,60.0,1.0,0.0
2913,39.0,52.0,150.0,11.0,0.0
2914,63.0,12.0,90.0,8.0,0.0
2915,51.0,10.0,150.0,3.0,0.0
2916,70.0,14.0,270.0,4.0,0.0
2917,82.0,24.0,300.0,4.0,0.0
2918,78.0,290.0,90.0,4.0,0.0
2919,54.0,8.0,60.0,8.0,0.0
2920,66.0,0.0,60.0,4.0,0.0
2921,58.0,0.0,90.0,8.0,0.0
2922,32.0,0.0,120.0,11.0,0.0
2923,65.0,4.0,270.0,4.0,0.0
2924,65.0,22.0,240.0,1.0,0.0
2925,77.0,14.0,270.0,4.0,0.0
2926,53.0,6.0,270.0,3.0,0.0
2927,44.0,2.0,240.0,3.0,0.0
2928,44.0,110.0,120.0,10.0,0.0
2929,68.0,2.0,60.0,1.0,0.0
2930,80.0,2.0,60.0,4.0,0.0
2931,56.0,6.0,60.0,8.0,0.0
2932,59.0,274.0,90.0,8.0,0.0
2933,56.0,18.0,60.0,3.0,0.0
2934,68.0,2.0,60.0,4.0,0.0
2935,46.0,4.0,240.0,3.0,0.0
2936,51.0,28.0,270.0,3.0,0.0
2937,63.0,2.0,240.0,1.0,0.0
2938,63.0,8.0,270.0,4.0,0.0
2939,46.0,0.0,120.0,10.0,0.0
2940,75.0,4.0,300.0,4.0,0.0
2941,34.0,136.0,120.0,11.0,0.0
2942,54.0,2.0,60.0,3.0,0.0
2943,78.0,4.0,60.0,4.0,0.0
2944,58.0,4.0,90.0,8.0,0.0
2945,66.0,260.0,90.0,4.0,0.0
2946,66.0,12.0,60.0,1.0,0.0
2947,54.0,6.0,60.0,8.0,0.0
2948,34.0,142.0,90.0,11.0,0.0
2949,46.0,2.0,240.0,3.0,0.0
2950,50.0,12.0,240.0,3.0,0.0
2951,62.0,6.0,240.0,1.0,0.0
2952,74.0,10.0,270.0,4.0,0.0
2953,62.0,22.0,270.0,4.0,0.0
2954,46.0,0.0,90.0,10.0,0.0
2955,65.0,4.0,30.0,1.0,0.0
2956,77.0,4.0,60.0,4.0,0.0
2957,65.0,212.0,90.0,4.0,0.0
2958,53.0,8.0,60.0,3.0,0.0
2959,56.0,0.0,60.0,8.0,0.0
2960,58.0,6.0,60.0,8.0,0.0
2961,63.0,2.0,90.0,4.0,0.0
2962,75.0,0.0,90.0,4.0,0.0
2963,51.0,62.0,150.0,3.0,0.0
2964,63.0,32.0,60.0,1.0,0.0
2965,51.0,48.0,90.0,10.0,0.0
2966,39.0,0.0,90.0,11.0,0.0
2967,55.0,6.0,90.0,8.0,0.0
2968,58.0,0.0,90.0,8.0,0.0
2969,39.0,2.0,90.0,3.0,0.0
2970,58.0,120.0,90.0,4.0,0.0
2971,60.0,120.0,90.0,4.0,0.0
2972,62.0,120.0,90.0,4.0,0.0
2973,63.0,120.0,90.0,4.0,0.0
2974,65.0,78.0,90.0,4.0,0.0
2975,62.0,0.0,60.0,2.0,0.0
2976,65.0,10.0,60.0,2.0,0.0
2977,46.0,2.0,60.0,3.0,0.0
2978,74.0,10.0,60.0,1.0,0.0
2979,70.0,18.0,30.0,1.0,0.0
2980,67.0,120.0,90.0,4.0,0.0
2981,58.0,0.0,60.0,3.0,0.0
2982,77.0,2.0,60.0,0.0,0.0
2983,65.0,70.0,90.0,4.0,0.0
2984,58.0,14.0,60.0,5.0,0.0
2985,63.0,10.0,60.0,2.0,0.0
2986,67.0,102.0,90.0,2.0,0.0
2987,46.0,8.0,60.0,3.0,0.0
2988,79.0,0.0,60.0,0.0,0.0
2989,63.0,18.0,90.0,4.0,0.0
2990,75.0,16.0,30.0,1.0,0.0
2991,58.0,2.0,60.0,3.0,0.0
2992,58.0,120.0,90.0,4.0,0.0
2993,60.0,120.0,90.0,4.0,0.0
2994,62.0,120.0,90.0,4.0,0.0
2995,63.0,120.0,90.0,4.0,0.0
2996,65.0,106.0,90.0,4.0,0.0
2997,36.0,0.0,90.0,11.0,0.0
2998,55.0,114.0,90.0,8.0,0.0
2999,58.0,0.0,90.0,4.0,0.0
3000,67.0,0.0,90.0,4.0,0.0
3001,82.0,14.0,60.0,0.0,0.0
3002,48.0,6.0,90.0,10.0,0.0
3003,64.0,92.0,90.0,4.0,0.0
3004,53.0,0.0,60.0,10.0,0.0
3005,41.0,10.0,60.0,11.0,0.0
3006,82.0,12.0,60.0,0.0,0.0
3007,79.0,6.0,60.0,0.0,0.0
3008,53.0,104.0,90.0,8.0,0.0
3009,65.0,0.0,90.0,4.0,0.0
3010,56.0,16.0,90.0,4.0,0.0
3011,60.0,120.0,90.0,4.0,0.0
3012,62.0,120.0,90.0,4.0,0.0
3013,64.0,120.0,90.0,4.0,0.0
3014,65.0,120.0,90.0,4.0,0.0
3015,67.0,92.0,90.0,4.0,0.0
3016,48.0,6.0,90.0,3.0,0.0
3017,67.0,4.0,60.0,1.0,0.0
3018,64.0,0.0,90.0,2.0,0.0
3019,67.0,12.0,60.0,2.0,0.0
3020,79.0,6.0,60.0,0.0,0.0
3021,58.0,114.0,90.0,3.0,0.0
3022,60.0,2.0,60.0,5.0,0.0
3023,68.0,0.0,90.0,4.0,0.0
3024,76.0,4.0,60.0,1.0,0.0
3025,67.0,98.0,90.0,4.0,0.0
3026,60.0,4.0,60.0,5.0,0.0
3027,68.0,108.0,90.0,2.0,0.0
3028,65.0,0.0,90.0,2.0,0.0
3029,77.0,0.0,90.0,1.0,0.0
3030,65.0,2.0,90.0,4.0,0.0
3031,68.0,10.0,60.0,1.0,0.0
3032,56.0,0.0,90.0,3.0,0.0
3033,80.0,10.0,90.0,0.0,0.0
3034,53.0,8.0,90.0,3.0,0.0
3035,60.0,120.0,90.0,4.0,0.0
3036,62.0,120.0,90.0,4.0,0.0
3037,64.0,120.0,90.0,4.0,0.0
3038,65.0,120.0,90.0,4.0,0.0
3039,67.0,112.0,90.0,4.0,0.0
3040,60.0,120.0,90.0,4.0,0.0
3041,69.0,0.0,90.0,4.0,0.0
3042,57.0,4.0,90.0,8.0,0.0
3043,38.0,0.0,90.0,11.0,0.0
3044,50.0,4.0,90.0,10.0,0.0
3045,66.0,120.0,90.0,4.0,0.0
3046,43.0,0.0,90.0,11.0,0.0
3047,55.0,8.0,90.0,10.0,0.0
3048,58.0,2.0,90.0,4.0,0.0
3049,55.0,110.0,90.0,8.0,0.0
3050,67.0,0.0,90.0,4.0,0.0
3051,62.0,120.0,90.0,4.0,0.0
3052,64.0,120.0,90.0,4.0,0.0
3053,66.0,120.0,90.0,4.0,0.0
3054,67.0,120.0,90.0,4.0,0.0
3055,69.0,98.0,90.0,4.0,0.0
3056,69.0,2.0,60.0,1.0,0.0
3057,62.0,2.0,60.0,3.0,0.0
3058,50.0,10.0,60.0,3.0,0.0
3059,81.0,6.0,60.0,0.0,0.0
3060,78.0,2.0,60.0,1.0,0.0
3061,70.0,120.0,90.0,4.0,0.0
3062,69.0,96.0,90.0,4.0,0.0
3063,79.0,8.0,90.0,1.0,0.0
3064,70.0,10.0,60.0,1.0,0.0
3065,82.0,6.0,60.0,0.0,0.0
3066,62.0,0.0,90.0,3.0,0.0
3067,55.0,0.0,90.0,3.0,0.0
3068,67.0,120.0,90.0,4.0,0.0
3069,62.0,120.0,90.0,4.0,0.0
3070,64.0,120.0,90.0,4.0,0.0
3071,66.0,120.0,90.0,4.0,0.0
3072,67.0,120.0,90.0,4.0,0.0
3073,68.0,70.0,90.0,4.0,0.0
3074,58.0,0.0,90.0,8.0,0.0
3075,86.0,6.0,30.0,0.0,0.0
3076,81.0,44.0,30.0,0.0,0.0
3077,70.0,0.0,90.0,4.0,0.0
3078,61.0,8.0,90.0,4.0,0.0
3079,51.0,0.0,90.0,10.0,0.0
3080,39.0,112.0,90.0,11.0,0.0
3081,67.0,68.0,90.0,4.0,0.0
3082,82.0,24.0,30.0,0.0,0.0
3083,56.0,0.0,90.0,10.0,0.0
3084,68.0,120.0,90.0,4.0,0.0
3085,60.0,0.0,90.0,4.0,0.0
3086,56.0,0.0,90.0,8.0,0.0
3087,86.0,28.0,60.0,0.0,0.0
3088,44.0,0.0,90.0,11.0,0.0
3089,63.0,120.0,90.0,4.0,0.0
3090,65.0,120.0,90.0,4.0,0.0
3091,67.0,120.0,90.0,4.0,0.0
3092,68.0,120.0,90.0,4.0,0.0
3093,70.0,96.0,90.0,4.0,0.0
3094,69.0,4.0,60.0,1.0,0.0
3095,81.0,2.0,60.0,0.0,0.0
3096,53.0,12.0,60.0,3.0,0.0
3097,72.0,0.0,60.0,1.0,0.0
3098,63.0,4.0,60.0,2.0,0.0
3099,60.0,2.0,60.0,2.0,0.0
3100,53.0,0.0,90.0,10.0,0.0
3101,60.0,2.0,90.0,8.0,0.0
3102,41.0,112.0,90.0,11.0,0.0
3103,63.0,0.0,90.0,4.0,0.0
3104,72.0,6.0,90.0,4.0,0.0
3105,69.0,102.0,90.0,4.0,0.0
3106,58.0,0.0,90.0,8.0,0.0
3107,46.0,0.0,90.0,11.0,0.0
3108,58.0,4.0,90.0,2.0,0.0
3109,70.0,0.0,60.0,1.0,0.0
3110,62.0,0.0,90.0,4.0,0.0
3111,70.0,120.0,90.0,4.0,0.0
3112,62.0,0.0,90.0,2.0,0.0
3113,58.0,2.0,90.0,10.0,0.0
3114,58.0,2.0,90.0,3.0,0.0
3115,82.0,4.0,60.0,0.0,0.0
3116,74.0,6.0,60.0,1.0,0.0
3117,65.0,120.0,90.0,4.0,0.0
3118,67.0,120.0,90.0,4.0,0.0
3119,69.0,120.0,90.0,4.0,0.0
3120,70.0,120.0,90.0,4.0,0.0
3121,72.0,86.0,90.0,4.0,0.0
3122,65.0,0.0,90.0,4.0,0.0
3123,74.0,10.0,90.0,4.0,0.0
3124,71.0,4.0,60.0,1.0,0.0
3125,55.0,110.0,90.0,10.0,0.0
3126,65.0,0.0,60.0,2.0,0.0
3127,74.0,12.0,60.0,1.0,0.0
3128,55.0,4.0,90.0,3.0,0.0
3129,43.0,0.0,90.0,11.0,0.0
3130,83.0,0.0,90.0,0.0,0.0
3131,62.0,0.0,60.0,2.0,0.0
3132,43.0,10.0,60.0,3.0,0.0
3133,62.0,4.0,90.0,8.0,0.0
3134,71.0,88.0,90.0,4.0,0.0
3135,63.0,18.0,90.0,4.0,0.0
3136,72.0,100.0,120.0,4.0,0.0
3137,72.0,18.0,60.0,1.0,0.0
3138,36.0,0.0,90.0,11.0,0.0
3139,75.0,4.0,90.0,1.0,0.0
3140,48.0,6.0,90.0,10.0,0.0
3141,48.0,4.0,90.0,3.0,0.0
3142,84.0,6.0,90.0,0.0,0.0
3143,63.0,2.0,60.0,2.0,0.0
3144,60.0,4.0,60.0,2.0,0.0
3145,60.0,6.0,90.0,3.0,0.0
3146,63.0,0.0,90.0,8.0,0.0
3147,63.0,20.0,90.0,4.0,0.0
3148,72.0,56.0,120.0,4.0,0.0
3149,71.0,102.0,120.0,4.0,0.0
3150,59.0,26.0,90.0,4.0,0.0
3151,59.0,6.0,90.0,8.0,0.0
3152,59.0,8.0,60.0,2.0,0.0
3153,47.0,2.0,90.0,10.0,0.0
3154,47.0,6.0,90.0,3.0,0.0
3155,71.0,16.0,60.0,1.0,0.0
3156,35.0,0.0,90.0,11.0,0.0
3157,59.0,18.0,90.0,4.0,0.0
3158,71.0,74.0,120.0,4.0,0.0
3159,60.0,10.0,90.0,8.0,0.0
3160,60.0,8.0,60.0,2.0,0.0
3161,48.0,6.0,90.0,3.0,0.0
3162,48.0,4.0,90.0,10.0,0.0
3163,36.0,0.0,90.0,11.0,0.0
3164,72.0,100.0,120.0,4.0,0.0
3165,60.0,18.0,90.0,4.0,0.0
3166,72.0,0.0,60.0,1.0,0.0
3167,72.0,60.0,120.0,4.0,0.0
3168,60.0,20.0,90.0,4.0,0.0
3169,62.0,2.0,90.0,8.0,0.0
3170,50.0,0.0,90.0,10.0,0.0
3171,38.0,4.0,90.0,11.0,0.0
3172,74.0,2.0,60.0,1.0,0.0
3173,62.0,24.0,60.0,2.0,0.0
3174,50.0,24.0,90.0,3.0,0.0
3175,62.0,4.0,90.0,4.0,0.0
3176,74.0,92.0,15.0,4.0,0.0
3177,62.0,28.0,90.0,4.0,0.0
3178,63.0,26.0,90.0,4.0,0.0
3179,39.0,2.0,90.0,11.0,0.0
3180,51.0,8.0,90.0,3.0,0.0
3181,51.0,0.0,90.0,10.0,0.0
3182,63.0,4.0,60.0,2.0,0.0
3183,75.0,18.0,60.0,1.0,0.0
3184,63.0,2.0,90.0,8.0,0.0
3185,75.0,96.0,15.0,4.0,0.0
3186,63.0,24.0,90.0,4.0,0.0
3187,74.0,6.0,60.0,1.0,0.0
3188,62.0,26.0,90.0,4.0,0.0
3189,62.0,4.0,90.0,8.0,0.0
3190,38.0,0.0,90.0,11.0,0.0
3191,62.0,4.0,60.0,2.0,0.0
3192,50.0,8.0,90.0,10.0,0.0
3193,50.0,10.0,60.0,3.0,0.0
3194,74.0,90.0,15.0,4.0,0.0
3195,62.0,30.0,90.0,4.0,0.0
3196,63.0,0.0,90.0,8.0,0.0
3197,63.0,0.0,60.0,2.0,0.0
3198,63.0,28.0,90.0,4.0,0.0
3199,75.0,102.0,120.0,4.0,0.0
3200,39.0,0.0,90.0,11.0,0.0
3201,51.0,16.0,90.0,10.0,0.0
3202,51.0,4.0,60.0,3.0,0.0
3203,75.0,18.0,60.0,1.0,0.0
3204,75.0,56.0,120.0,4.0,0.0
3205,63.0,18.0,90.0,4.0,0.0
3206,53.0,0.0,60.0,3.0,0.0
3207,65.0,16.0,60.0,2.0,0.0
3208,41.0,0.0,90.0,11.0,0.0
3209,77.0,12.0,60.0,1.0,0.0
3210,65.0,2.0,90.0,8.0,0.0
3211,77.0,90.0,120.0,4.0,0.0
3212,65.0,8.0,90.0,4.0,0.0
3213,53.0,26.0,90.0,10.0,0.0
3214,77.0,26.0,120.0,4.0,0.0
3215,65.0,30.0,90.0,4.0,0.0
3216,67.0,2.0,90.0,4.0,0.0
3217,43.0,0.0,90.0,11.0,0.0
3218,55.0,4.0,90.0,10.0,0.0
3219,79.0,4.0,60.0,1.0,0.0
3220,67.0,28.0,90.0,8.0,0.0
3221,55.0,6.0,60.0,3.0,0.0
3222,67.0,14.0,60.0,2.0,0.0
3223,77.0,36.0,30.0,1.0,0.0
3224,79.0,86.0,15.0,4.0,0.0
3225,67.0,34.0,90.0,4.0,0.0
3226,38.0,4.0,90.0,11.0,0.0
3227,62.0,24.0,90.0,8.0,0.0
3228,62.0,0.0,90.0,4.0,0.0
3229,74.0,26.0,60.0,0.0,0.0
3230,50.0,0.0,60.0,3.0,0.0
3231,50.0,0.0,90.0,10.0,0.0
3232,62.0,2.0,60.0,2.0,0.0
3233,74.0,2.0,60.0,1.0,0.0
3234,74.0,100.0,15.0,4.0,0.0
3235,62.0,20.0,90.0,4.0,0.0
3236,63.0,4.0,90.0,4.0,0.0
3237,51.0,16.0,90.0,10.0,0.0
3238,75.0,14.0,90.0,1.0,0.0
3239,75.0,10.0,60.0,0.0,0.0
3240,63.0,2.0,90.0,8.0,0.0
3241,63.0,4.0,90.0,2.0,0.0
3242,39.0,0.0,90.0,11.0,0.0
3243,51.0,4.0,60.0,3.0,0.0
3244,63.0,18.0,90.0,4.0,0.0
3245,75.0,102.0,15.0,4.0,0.0
3246,65.0,0.0,90.0,4.0,0.0
3247,65.0,30.0,90.0,8.0,0.0
3248,77.0,18.0,60.0,0.0,0.0
3249,77.0,86.0,120.0,4.0,0.0
3250,41.0,0.0,90.0,11.0,0.0
3251,53.0,6.0,60.0,3.0,0.0
3252,65.0,4.0,60.0,2.0,0.0
3253,53.0,0.0,90.0,10.0,0.0
3254,77.0,6.0,60.0,1.0,0.0
3255,77.0,62.0,120.0,4.0,0.0
3256,65.0,34.0,90.0,4.0,0.0
3257,67.0,8.0,60.0,2.0,0.0
3258,79.0,2.0,90.0,0.0,0.0
3259,43.0,4.0,90.0,11.0,0.0
3260,55.0,0.0,90.0,10.0,0.0
3261,79.0,4.0,60.0,1.0,0.0
3262,67.0,6.0,90.0,8.0,0.0
3263,55.0,6.0,60.0,3.0,0.0
3264,79.0,86.0,120.0,4.0,0.0
3265,67.0,28.0,90.0,4.0,0.0
3266,67.0,34.0,90.0,4.0,0.0
3267,79.0,56.0,120.0,4.0,0.0
3268,77.0,8.0,60.0,1.0,0.0
3269,65.0,8.0,60.0,2.0,0.0
3270,41.0,34.0,90.0,11.0,0.0
3271,65.0,0.0,90.0,4.0,0.0
3272,65.0,4.0,90.0,8.0,0.0
3273,77.0,86.0,120.0,4.0,0.0
3274,53.0,6.0,90.0,3.0,0.0
3275,53.0,0.0,90.0,10.0,0.0
3276,77.0,4.0,60.0,0.0,0.0
3277,65.0,34.0,90.0,4.0,0.0
3278,77.0,52.0,120.0,4.0,0.0
3279,67.0,6.0,90.0,4.0,0.0
3280,67.0,4.0,60.0,2.0,0.0
3281,79.0,10.0,60.0,1.0,0.0
3282,79.0,8.0,90.0,0.0,0.0
3283,55.0,0.0,90.0,10.0,0.0
3284,43.0,2.0,90.0,11.0,0.0
3285,67.0,28.0,90.0,8.0,0.0
3286,55.0,10.0,60.0,3.0,0.0
3287,79.0,86.0,120.0,4.0,0.0
3288,67.0,34.0,90.0,4.0,0.0
3289,79.0,56.0,120.0,4.0,0.0
3290,68.0,4.0,60.0,4.0,0.0
3291,68.0,20.0,90.0,8.0,0.0
3292,44.0,10.0,90.0,11.0,0.0
3293,56.0,4.0,60.0,3.0,0.0
3294,80.0,8.0,90.0,0.0,0.0
3295,80.0,6.0,90.0,1.0,0.0
3296,68.0,6.0,60.0,2.0,0.0
3297,67.0,6.0,60.0,4.0,0.0
3298,56.0,0.0,90.0,10.0,0.0
3299,68.0,46.0,60.0,4.0,0.0
3300,80.0,74.0,15.0,4.0,0.0
3301,70.0,14.0,90.0,4.0,0.0
3302,58.0,6.0,60.0,3.0,0.0
3303,70.0,12.0,60.0,8.0,0.0
3304,82.0,16.0,120.0,4.0,0.0
3305,58.0,98.0,1080.0,5.0,0.0
3306,82.0,90.0,150.0,0.0,0.0
3307,79.0,20.0,90.0,4.0,0.0
3308,58.0,2.0,60.0,10.0,0.0
3309,82.0,4.0,60.0,1.0,0.0
3310,70.0,2.0,60.0,2.0,0.0
3311,46.0,0.0,60.0,11.0,0.0
3312,79.0,14.0,120.0,4.0,0.0
3313,82.0,100.0,120.0,4.0,0.0
3314,26.0,40.0,300.0,11.0,0.0
3315,38.0,0.0,300.0,10.0,0.0
3316,79.0,20.0,90.0,4.0,0.0
3317,62.0,2.0,270.0,1.0,0.0
3318,38.0,8.0,270.0,3.0,0.0
3319,50.0,2.0,270.0,3.0,0.0
3320,50.0,12.0,270.0,8.0,0.0
3321,82.0,94.0,15.0,4.0,0.0
3322,79.0,26.0,90.0,4.0,0.0
3323,39.0,0.0,300.0,10.0,0.0
3324,51.0,46.0,300.0,8.0,0.0
3325,27.0,2.0,300.0,11.0,0.0
3326,51.0,0.0,270.0,3.0,0.0
3327,39.0,8.0,270.0,3.0,0.0
3328,63.0,18.0,270.0,1.0,0.0
3329,79.0,24.0,90.0,4.0,0.0
3330,82.0,102.0,15.0,4.0,0.0
3331,79.0,18.0,90.0,4.0,0.0
3332,43.0,10.0,270.0,3.0,0.0
3333,31.0,0.0,270.0,11.0,0.0
3334,67.0,6.0,240.0,1.0,0.0
3335,55.0,6.0,270.0,3.0,0.0
3336,43.0,30.0,270.0,10.0,0.0
3337,82.0,26.0,15.0,4.0,0.0
3338,79.0,20.0,90.0,4.0,0.0
3339,55.0,34.0,300.0,8.0,0.0
3340,82.0,102.0,15.0,4.0,0.0
3341,79.0,12.0,90.0,4.0,0.0
3342,46.0,16.0,630.0,10.0,0.0
3343,34.0,0.0,630.0,11.0,0.0
3344,79.0,14.0,120.0,4.0,0.0
3345,70.0,18.0,570.0,1.0,0.0
3346,58.0,18.0,600.0,8.0,0.0
3347,46.0,54.0,660.0,3.0,0.0
3348,58.0,6.0,630.0,3.0,0.0
3349,82.0,4.0,120.0,4.0,0.0
3350,82.0,100.0,120.0,4.0,0.0
3351,79.0,18.0,90.0,4.0,0.0
3352,79.0,20.0,90.0,4.0,0.0
3353,82.0,94.0,15.0,4.0,0.0
3354,79.0,26.0,90.0,4.0,0.0
3355,82.0,94.0,15.0,4.0,0.0
3356,79.0,8.0,90.0,4.0,0.0
3357,79.0,20.0,90.0,4.0,0.0
3358,82.0,86.0,120.0,4.0,0.0
3359,47.0,72.0,150.0,10.0,0.0
3360,71.0,6.0,90.0,1.0,0.0
3361,59.0,18.0,120.0,8.0,0.0
3362,59.0,18.0,90.0,2.0,0.0
3363,35.0,0.0,150.0,11.0,0.0
3364,47.0,2.0,90.0,3.0,0.0
3365,59.0,4.0,90.0,3.0,0.0
3366,80.0,4.0,120.0,4.0,0.0
3367,77.0,4.0,90.0,4.0,0.0
3368,80.0,92.0,120.0,4.0,0.0
3369,77.0,26.0,90.0,4.0,0.0
3370,75.0,8.0,90.0,4.0,0.0
3371,72.0,14.0,270.0,1.0,0.0
3372,79.0,52.0,120.0,4.0,0.0
3373,36.0,26.0,300.0,11.0,0.0
3374,60.0,6.0,270.0,2.0,0.0
3375,51.0,14.0,1020.0,5.0,0.0
3376,63.0,20.0,1050.0,5.0,0.0
3377,48.0,38.0,180.0,3.0,0.0
3378,60.0,20.0,90.0,3.0,0.0
3379,60.0,10.0,300.0,8.0,0.0
3380,48.0,0.0,300.0,10.0,0.0
3381,75.0,30.0,90.0,4.0,0.0
3382,47.0,0.0,300.0,10.0,0.0
3383,75.0,34.0,90.0,4.0,0.0
3384,47.0,2.0,270.0,3.0,0.0
3385,79.0,30.0,15.0,4.0,0.0
3386,59.0,48.0,270.0,2.0,0.0
3387,59.0,12.0,300.0,8.0,0.0
3388,35.0,2.0,300.0,11.0,0.0
3389,71.0,4.0,270.0,1.0,0.0
3390,79.0,82.0,15.0,4.0,0.0
3391,75.0,38.0,90.0,4.0,0.0
3392,36.0,6.0,300.0,11.0,0.0
3393,60.0,28.0,270.0,2.0,0.0
3394,60.0,4.0,330.0,8.0,0.0
3395,48.0,22.0,240.0,3.0,0.0
3396,48.0,0.0,300.0,10.0,0.0
3397,75.0,36.0,90.0,4.0,0.0
3398,72.0,22.0,300.0,1.0,0.0
3399,79.0,86.0,120.0,4.0,0.0
3400,79.0,4.0,120.0,4.0,0.0
3401,75.0,34.0,90.0,4.0,0.0
3402,75.0,34.0,90.0,4.0,0.0
3403,79.0,80.0,120.0,4.0,0.0
3404,51.0,4.0,270.0,3.0,0.0
3405,39.0,26.0,300.0,11.0,0.0
3406,63.0,20.0,210.0,8.0,0.0
3407,75.0,6.0,270.0,1.0,0.0
3408,63.0,20.0,270.0,2.0,0.0
3409,51.0,0.0,300.0,10.0,0.0
3410,79.0,16.0,120.0,4.0,0.0
3411,75.0,20.0,90.0,4.0,0.0
3412,75.0,14.0,90.0,4.0,0.0
3413,79.0,86.0,120.0,4.0,0.0
3414,67.0,16.0,540.0,2.0,0.0
3415,55.0,18.0,570.0,3.0,0.0
3416,43.0,0.0,480.0,11.0,0.0
3417,79.0,14.0,480.0,1.0,0.0
3418,55.0,66.0,480.0,10.0,0.0
3419,67.0,86.0,600.0,8.0,0.0
3420,75.0,34.0,90.0,4.0,0.0
3421,75.0,34.0,90.0,4.0,0.0
3422,79.0,86.0,15.0,4.0,0.0
3423,79.0,90.0,15.0,4.0,0.0
3424,75.0,16.0,90.0,4.0,0.0
3425,75.0,20.0,90.0,4.0,0.0
3426,79.0,10.0,15.0,4.0,0.0
3427,75.0,24.0,90.0,4.0,0.0
3428,55.0,0.0,90.0,10.0,0.0
3429,74.0,6.0,90.0,4.0,0.0
3430,67.0,2.0,60.0,1.0,0.0
3431,77.0,90.0,120.0,4.0,0.0
3432,55.0,12.0,60.0,3.0,0.0
3433,67.0,0.0,60.0,2.0,0.0
3434,67.0,16.0,90.0,8.0,0.0
3435,43.0,14.0,90.0,11.0,0.0
3436,77.0,104.0,120.0,4.0,0.0
3437,74.0,30.0,90.0,4.0,0.0
3438,56.0,2.0,630.0,10.0,0.0
3439,68.0,44.0,630.0,8.0,0.0
3440,68.0,0.0,630.0,2.0,0.0
3441,44.0,0.0,630.0,11.0,0.0
3442,68.0,12.0,630.0,1.0,0.0
3443,56.0,6.0,630.0,3.0,0.0
3444,75.0,96.0,120.0,4.0,0.0
3445,72.0,16.0,90.0,4.0,0.0
3446,72.0,24.0,90.0,4.0,0.0
3447,75.0,94.0,120.0,4.0,0.0
3448,72.0,26.0,90.0,4.0,0.0
3449,75.0,90.0,15.0,4.0,0.0
3450,72.0,30.0,90.0,4.0,0.0
3451,77.0,34.0,90.0,4.0,0.0
3452,80.0,22.0,120.0,4.0,0.0
3453,65.0,6.0,150.0,2.0,0.0
3454,53.0,4.0,210.0,10.0,0.0
3455,65.0,4.0,180.0,8.0,0.0
3456,41.0,0.0,210.0,11.0,0.0
3457,65.0,36.0,150.0,1.0,0.0
3458,77.0,34.0,90.0,4.0,0.0
3459,53.0,6.0,150.0,3.0,0.0
3460,43.0,0.0,180.0,11.0,0.0
3461,67.0,4.0,150.0,2.0,0.0
3462,80.0,24.0,15.0,4.0,0.0
3463,77.0,40.0,90.0,4.0,0.0
3464,67.0,4.0,210.0,8.0,0.0
3465,55.0,24.0,180.0,3.0,0.0
3466,67.0,16.0,150.0,1.0,0.0
3467,55.0,0.0,180.0,10.0,0.0
3468,77.0,40.0,90.0,4.0,0.0
3469,80.0,32.0,15.0,4.0,0.0
3470,68.0,10.0,120.0,1.0,0.0
3471,68.0,26.0,180.0,8.0,0.0
3472,56.0,34.0,150.0,3.0,0.0
3473,56.0,0.0,180.0,10.0,0.0
3474,68.0,6.0,120.0,2.0,0.0
3475,44.0,6.0,180.0,11.0,0.0
3476,70.0,4.0,120.0,1.0,0.0
3477,75.0,34.0,90.0,4.0,0.0
3478,58.0,6.0,150.0,3.0,0.0
3479,70.0,30.0,150.0,2.0,0.0
3480,46.0,2.0,180.0,11.0,0.0
3481,70.0,26.0,180.0,8.0,0.0
3482,58.0,0.0,180.0,10.0,0.0
3483,69.0,2.0,180.0,8.0,0.0
3484,57.0,6.0,150.0,3.0,0.0
3485,45.0,10.0,180.0,11.0,0.0
3486,57.0,0.0,180.0,10.0,0.0
3487,69.0,8.0,120.0,1.0,0.0
3488,75.0,40.0,90.0,4.0,0.0
3489,79.0,12.0,15.0,4.0,0.0
3490,69.0,38.0,150.0,2.0,0.0
3491,79.0,12.0,15.0,4.0,0.0
3492,58.0,2.0,120.0,3.0,0.0
3493,75.0,44.0,90.0,4.0,0.0
3494,46.0,0.0,180.0,11.0,0.0
3495,70.0,30.0,150.0,1.0,0.0
3496,70.0,0.0,180.0,8.0,0.0
3497,58.0,24.0,180.0,10.0,0.0
3498,70.0,8.0,120.0,2.0,0.0
3499,45.0,0.0,150.0,11.0,0.0
3500,79.0,10.0,15.0,4.0,0.0
3501,75.0,46.0,60.0,4.0,0.0
3502,57.0,10.0,150.0,3.0,0.0
3503,69.0,16.0,150.0,1.0,0.0
3504,57.0,0.0,150.0,10.0,0.0
3505,69.0,2.0,180.0,8.0,0.0
3506,69.0,22.0,150.0,2.0,0.0
3507,70.0,2.0,270.0,8.0,0.0
3508,74.0,2.0,90.0,4.0,0.0
3509,58.0,14.0,60.0,3.0,0.0
3510,70.0,4.0,60.0,2.0,0.0
3511,46.0,0.0,120.0,11.0,0.0
3512,70.0,28.0,90.0,1.0,0.0
3513,58.0,6.0,120.0,10.0,0.0
3514,74.0,34.0,90.0,4.0,0.0
3515,77.0,86.0,15.0,4.0,0.0
3516,77.0,34.0,15.0,4.0,0.0
3517,58.0,8.0,90.0,8.0,0.0
3518,56.0,10.0,30.0,2.0,0.0
3519,58.0,18.0,60.0,2.0,0.0
3520,70.0,0.0,60.0,2.0,0.0
3521,70.0,2.0,60.0,1.0,0.0
3522,46.0,0.0,90.0,10.0,0.0
3523,58.0,6.0,60.0,1.0,0.0
3524,34.0,16.0,90.0,11.0,0.0
3525,74.0,10.0,90.0,4.0,0.0
3526,46.0,14.0,60.0,3.0,0.0
3527,74.0,26.0,90.0,4.0,0.0
3528,77.0,92.0,120.0,4.0,0.0
3529,82.0,4.0,120.0,4.0,0.0
3530,63.0,8.0,150.0,2.0,0.0
3531,51.0,18.0,150.0,8.0,0.0
3532,39.0,6.0,120.0,7.0,0.0
3533,79.0,0.0,1560.0,0.0,0.0
3534,27.0,44.0,180.0,11.0,0.0
3535,79.0,22.0,90.0,4.0,0.0
3536,82.0,10.0,1530.0,0.0,0.0
3537,63.0,0.0,120.0,6.0,0.0
3538,51.0,0.0,120.0,6.0,0.0
3539,39.0,20.0,120.0,3.0,0.0
3540,51.0,0.0,120.0,3.0,0.0
3541,58.0,2.0,990.0,5.0,0.0
3542,39.0,0.0,180.0,10.0,0.0
3543,53.0,0.0,150.0,3.0,0.0
3544,79.0,26.0,90.0,4.0,0.0
3545,29.0,0.0,180.0,11.0,0.0
3546,41.0,46.0,180.0,10.0,0.0
3547,41.0,12.0,150.0,3.0,0.0
3548,53.0,2.0,150.0,8.0,0.0
3549,65.0,20.0,120.0,2.0,0.0
3550,51.0,26.0,150.0,3.0,0.0
3551,39.0,6.0,120.0,3.0,0.0
3552,39.0,0.0,180.0,10.0,0.0
3553,63.0,0.0,150.0,2.0,0.0
3554,51.0,0.0,180.0,8.0,0.0
3555,82.0,12.0,15.0,4.0,0.0
3556,79.0,28.0,90.0,4.0,0.0
3557,27.0,48.0,180.0,11.0,0.0
3558,62.0,10.0,150.0,2.0,0.0
3559,50.0,38.0,180.0,8.0,0.0
3560,38.0,10.0,150.0,10.0,0.0
3561,82.0,14.0,15.0,4.0,0.0
3562,79.0,26.0,90.0,4.0,0.0
3563,50.0,4.0,120.0,3.0,0.0
3564,26.0,0.0,150.0,11.0,0.0
3565,38.0,18.0,150.0,3.0,0.0
3566,79.0,28.0,90.0,4.0,0.0
3567,39.0,0.0,180.0,10.0,0.0
3568,27.0,22.0,180.0,11.0,0.0
3569,82.0,12.0,15.0,4.0,0.0
3570,51.0,2.0,150.0,3.0,0.0
3571,39.0,14.0,120.0,3.0,0.0
3572,51.0,22.0,150.0,8.0,0.0
3573,63.0,16.0,150.0,2.0,0.0
3574,29.0,0.0,180.0,11.0,0.0
3575,53.0,36.0,210.0,8.0,0.0
3576,41.0,24.0,180.0,10.0,0.0
3577,82.0,10.0,15.0,4.0,0.0
3578,79.0,34.0,90.0,4.0,0.0
3579,41.0,6.0,180.0,3.0,0.0
3580,53.0,26.0,150.0,3.0,0.0
3581,65.0,12.0,150.0,2.0,0.0
3582,55.0,0.0,150.0,8.0,0.0
3583,67.0,0.0,150.0,2.0,0.0
3584,43.0,0.0,180.0,10.0,0.0
3585,82.0,24.0,120.0,4.0,0.0
3586,79.0,0.0,90.0,4.0,0.0
3587,43.0,10.0,150.0,3.0,0.0
3588,31.0,26.0,180.0,11.0,0.0
3589,55.0,22.0,150.0,3.0,0.0
3590,44.0,10.0,150.0,3.0,0.0
3591,56.0,0.0,180.0,3.0,0.0
3592,44.0,0.0,210.0,10.0,0.0
3593,32.0,40.0,210.0,11.0,0.0
3594,68.0,2.0,150.0,2.0,0.0
3595,79.0,38.0,90.0,4.0,0.0
3596,82.0,40.0,120.0,4.0,0.0
3597,56.0,26.0,180.0,8.0,0.0
3598,34.0,0.0,600.0,11.0,0.0
3599,46.0,90.0,600.0,10.0,0.0
3600,46.0,8.0,570.0,3.0,0.0
3601,58.0,18.0,540.0,3.0,0.0
3602,82.0,82.0,120.0,4.0,0.0
3603,58.0,8.0,600.0,8.0,0.0
3604,70.0,14.0,540.0,2.0,0.0
3605,79.0,0.0,90.0,4.0,0.0
3606,82.0,80.0,120.0,4.0,0.0
3607,79.0,38.0,90.0,4.0,0.0
3608,79.0,40.0,90.0,4.0,0.0
3609,79.0,34.0,90.0,4.0,0.0
3610,82.0,86.0,15.0,4.0,0.0
3611,82.0,52.0,15.0,4.0,0.0
3612,79.0,10.0,90.0,4.0,0.0
3613,82.0,62.0,120.0,4.0,0.0
3614,79.0,30.0,90.0,4.0,0.0
3615,77.0,12.0,90.0,4.0,0.0
3616,86.0,22.0,90.0,0.0,0.0
3617,47.0,0.0,90.0,3.0,0.0
3618,35.0,0.0,120.0,11.0,0.0
3619,71.0,2.0,90.0,2.0,0.0
3620,47.0,4.0,120.0,10.0,0.0
3621,80.0,0.0,120.0,0.0,0.0
3622,59.0,50.0,150.0,8.0,0.0
3623,59.0,18.0,60.0,3.0,0.0
3624,80.0,32.0,15.0,4.0,0.0
3625,77.0,38.0,90.0,4.0,0.0
3626,36.0,0.0,150.0,11.0,0.0
3627,39.0,0.0,120.0,7.0,0.0
3628,75.0,34.0,90.0,4.0,0.0
3629,87.0,32.0,1470.0,0.0,0.0
3630,79.0,4.0,120.0,4.0,0.0
3631,48.0,8.0,150.0,10.0,0.0
3632,60.0,36.0,180.0,8.0,0.0
3633,63.0,0.0,120.0,6.0,0.0
3634,48.0,6.0,150.0,3.0,0.0
3635,60.0,10.0,120.0,3.0,0.0
3636,72.0,20.0,150.0,1.0,0.0
3637,63.0,36.0,1350.0,5.0,0.0
3638,72.0,2.0,120.0,2.0,0.0
3639,51.0,4.0,120.0,6.0,0.0
3640,79.0,2.0,1500.0,0.0,0.0
3641,51.0,14.0,1350.0,5.0,0.0
3642,62.0,34.0,180.0,8.0,0.0
3643,50.0,0.0,150.0,3.0,0.0
3644,50.0,0.0,150.0,10.0,0.0
3645,62.0,14.0,120.0,2.0,0.0
3646,38.0,10.0,150.0,11.0,0.0
3647,75.0,34.0,90.0,4.0,0.0
3648,74.0,20.0,150.0,1.0,0.0
3649,48.0,6.0,150.0,3.0,0.0
3650,60.0,2.0,150.0,8.0,0.0
3651,72.0,4.0,150.0,1.0,0.0
3652,36.0,40.0,150.0,11.0,0.0
3653,79.0,6.0,15.0,4.0,0.0
3654,60.0,18.0,120.0,2.0,0.0
3655,48.0,0.0,150.0,10.0,0.0
3656,75.0,36.0,90.0,4.0,0.0
3657,71.0,6.0,150.0,1.0,0.0
3658,59.0,32.0,180.0,8.0,0.0
3659,75.0,38.0,90.0,4.0,0.0
3660,47.0,22.0,150.0,3.0,0.0
3661,79.0,12.0,15.0,4.0,0.0
3662,47.0,0.0,150.0,10.0,0.0
3663,59.0,12.0,120.0,2.0,0.0
3664,35.0,8.0,150.0,11.0,0.0
3665,48.0,28.0,120.0,3.0,0.0
3666,79.0,4.0,15.0,4.0,0.0
3667,60.0,4.0,120.0,2.0,0.0
3668,60.0,12.0,150.0,8.0,0.0
3669,36.0,24.0,180.0,11.0,0.0
3670,75.0,36.0,90.0,4.0,0.0
3671,72.0,8.0,150.0,1.0,0.0
3672,48.0,0.0,180.0,10.0,0.0
3673,62.0,14.0,150.0,2.0,0.0
3674,62.0,4.0,180.0,8.0,0.0
3675,75.0,44.0,90.0,4.0,0.0
3676,79.0,16.0,120.0,4.0,0.0
3677,74.0,12.0,150.0,1.0,0.0
3678,50.0,0.0,180.0,10.0,0.0
3679,38.0,26.0,180.0,11.0,0.0
3680,50.0,10.0,150.0,3.0,0.0
3681,63.0,6.0,150.0,2.0,0.0
3682,63.0,0.0,180.0,8.0,0.0
3683,51.0,20.0,150.0,3.0,0.0
3684,51.0,30.0,180.0,10.0,0.0
3685,75.0,18.0,120.0,1.0,0.0
3686,75.0,38.0,90.0,4.0,0.0
3687,39.0,0.0,180.0,11.0,0.0
3688,75.0,44.0,90.0,4.0,0.0
3689,65.0,14.0,150.0,2.0,0.0
3690,77.0,10.0,180.0,1.0,0.0
3691,79.0,2.0,15.0,4.0,0.0
3692,53.0,8.0,150.0,3.0,0.0
3693,65.0,4.0,180.0,8.0,0.0
3694,53.0,0.0,180.0,10.0,0.0
3695,41.0,16.0,180.0,11.0,0.0
3696,75.0,44.0,90.0,4.0,0.0
3697,67.0,8.0,600.0,8.0,0.0
3698,55.0,6.0,540.0,3.0,0.0
3699,67.0,8.0,570.0,2.0,0.0
3700,79.0,76.0,120.0,4.0,0.0
3701,55.0,0.0,540.0,10.0,0.0
3702,43.0,0.0,540.0,11.0,0.0
3703,79.0,16.0,540.0,1.0,0.0
3704,75.0,44.0,90.0,4.0,0.0
3705,79.0,82.0,15.0,4.0,0.0
3706,75.0,38.0,90.0,4.0,0.0
3707,79.0,26.0,15.0,4.0,0.0
3708,75.0,44.0,90.0,4.0,0.0
3709,75.0,28.0,90.0,4.0,0.0
3710,79.0,82.0,15.0,4.0,0.0
3711,75.0,38.0,90.0,4.0,0.0
3712,43.0,0.0,60.0,11.0,0.0
3713,67.0,2.0,60.0,1.0,0.0
3714,55.0,8.0,60.0,10.0,0.0
3715,74.0,28.0,90.0,4.0,0.0
3716,67.0,10.0,120.0,8.0,0.0
3717,67.0,6.0,60.0,2.0,0.0
3718,83.0,0.0,60.0,0.0,0.0
3719,55.0,4.0,60.0,3.0,0.0
3720,77.0,0.0,90.0,0.0,0.0
3721,74.0,34.0,90.0,4.0,0.0
3722,77.0,86.0,15.0,4.0,0.0
3723,75.0,20.0,120.0,4.0,0.0
3724,68.0,8.0,120.0,1.0,0.0
3725,56.0,0.0,150.0,10.0,0.0
3726,44.0,50.0,150.0,11.0,0.0
3727,84.0,10.0,390.0,0.0,0.0
3728,72.0,12.0,90.0,4.0,0.0
3729,68.0,0.0,90.0,6.0,0.0
3730,68.0,4.0,150.0,2.0,0.0
3731,44.0,4.0,90.0,7.0,0.0
3732,68.0,8.0,150.0,8.0,0.0
3733,56.0,10.0,150.0,3.0,0.0
3734,75.0,6.0,360.0,0.0,0.0
3735,56.0,0.0,90.0,6.0,0.0
3736,55.0,0.0,180.0,10.0,0.0
3737,43.0,0.0,180.0,11.0,0.0
3738,55.0,12.0,150.0,3.0,0.0
3739,67.0,36.0,180.0,8.0,0.0
3740,72.0,28.0,90.0,4.0,0.0
3741,67.0,16.0,150.0,2.0,0.0
3742,68.0,8.0,150.0,8.0,0.0
3743,75.0,32.0,15.0,4.0,0.0
3744,56.0,20.0,120.0,3.0,0.0
3745,72.0,18.0,90.0,4.0,0.0
3746,44.0,0.0,180.0,11.0,0.0
3747,68.0,4.0,150.0,2.0,0.0
3748,56.0,28.0,180.0,10.0,0.0
3749,67.0,2.0,180.0,8.0,0.0
3750,55.0,16.0,150.0,3.0,0.0
3751,75.0,12.0,15.0,4.0,0.0
3752,72.0,38.0,90.0,4.0,0.0
3753,67.0,2.0,180.0,2.0,0.0
3754,55.0,0.0,180.0,10.0,0.0
3755,43.0,40.0,180.0,11.0,0.0
3756,44.0,0.0,150.0,11.0,0.0
3757,77.0,26.0,90.0,4.0,0.0
3758,80.0,0.0,390.0,1.0,0.0
3759,68.0,10.0,150.0,2.0,0.0
3760,77.0,8.0,390.0,1.0,0.0
3761,60.0,20.0,330.0,5.0,0.0
3762,56.0,14.0,330.0,5.0,0.0
3763,56.0,14.0,150.0,3.0,0.0
3764,89.0,2.0,390.0,0.0,0.0
3765,80.0,8.0,390.0,0.0,0.0
3766,56.0,32.0,150.0,10.0,0.0
3767,68.0,8.0,180.0,8.0,0.0
3768,80.0,16.0,15.0,4.0,0.0
3769,77.0,40.0,90.0,4.0,0.0
3770,53.0,10.0,150.0,3.0,0.0
3771,41.0,0.0,180.0,11.0,0.0
3772,65.0,2.0,150.0,8.0,0.0
3773,65.0,20.0,150.0,2.0,0.0
3774,53.0,12.0,180.0,10.0,0.0
3775,55.0,22.0,150.0,3.0,0.0
3776,67.0,4.0,180.0,2.0,0.0
3777,80.0,32.0,15.0,4.0,0.0
3778,77.0,10.0,90.0,4.0,0.0
3779,67.0,6.0,210.0,8.0,0.0
3780,43.0,4.0,180.0,11.0,0.0
3781,55.0,0.0,180.0,10.0,0.0
3782,68.0,16.0,180.0,8.0,0.0
3783,80.0,22.0,15.0,4.0,0.0
3784,56.0,0.0,150.0,10.0,0.0
3785,68.0,10.0,60.0,2.0,0.0
3786,44.0,26.0,150.0,11.0,0.0
3787,56.0,14.0,150.0,3.0,0.0
3788,77.0,34.0,90.0,4.0,0.0
3789,58.0,6.0,360.0,5.0,0.0
3790,87.0,0.0,390.0,0.0,0.0
3791,58.0,0.0,150.0,10.0,0.0
3792,79.0,8.0,420.0,1.0,0.0
3793,79.0,4.0,390.0,0.0,0.0
3794,75.0,4.0,420.0,1.0,0.0
3795,79.0,22.0,120.0,4.0,0.0
3796,58.0,0.0,150.0,3.0,0.0
3797,70.0,26.0,180.0,8.0,0.0
3798,75.0,44.0,90.0,4.0,0.0
3799,46.0,10.0,150.0,11.0,0.0
3800,70.0,22.0,150.0,2.0,0.0
3801,69.0,10.0,150.0,2.0,0.0
3802,75.0,40.0,90.0,4.0,0.0
3803,45.0,38.0,150.0,11.0,0.0
3804,57.0,6.0,150.0,3.0,0.0
3805,57.0,0.0,150.0,10.0,0.0
3806,69.0,4.0,180.0,8.0,0.0
3807,70.0,4.0,150.0,2.0,0.0
3808,46.0,6.0,150.0,11.0,0.0
3809,75.0,40.0,60.0,4.0,0.0
3810,79.0,16.0,15.0,4.0,0.0
3811,70.0,26.0,150.0,8.0,0.0
3812,58.0,6.0,150.0,3.0,0.0
3813,58.0,0.0,150.0,10.0,0.0
3814,69.0,8.0,210.0,2.0,0.0
3815,69.0,20.0,180.0,8.0,0.0
3816,79.0,16.0,15.0,4.0,0.0
3817,57.0,20.0,150.0,3.0,0.0
3818,75.0,46.0,60.0,4.0,0.0
3819,45.0,2.0,180.0,11.0,0.0
3820,57.0,0.0,180.0,10.0,0.0
3821,74.0,0.0,330.0,1.0,0.0
3822,74.0,26.0,90.0,4.0,0.0
3823,58.0,0.0,330.0,5.0,0.0
3824,70.0,2.0,90.0,2.0,0.0
3825,58.0,0.0,60.0,10.0,0.0
3826,58.0,0.0,90.0,3.0,0.0
3827,77.0,62.0,390.0,1.0,0.0
3828,70.0,8.0,120.0,8.0,0.0
3829,77.0,4.0,360.0,0.0,0.0
3830,46.0,2.0,60.0,11.0,0.0
3831,86.0,8.0,330.0,0.0,0.0
3832,74.0,44.0,90.0,4.0,0.0
3833,77.0,76.0,15.0,4.0,0.0
3834,46.0,0.0,90.0,10.0,0.0
3835,74.0,4.0,90.0,4.0,0.0
3836,58.0,16.0,90.0,8.0,0.0
3837,70.0,20.0,60.0,2.0,0.0
3838,34.0,8.0,90.0,11.0,0.0
3839,77.0,20.0,120.0,4.0,0.0
3840,46.0,6.0,60.0,3.0,0.0
3841,74.0,38.0,90.0,4.0,0.0
3842,77.0,56.0,120.0,4.0,0.0
3843,87.0,6.0,60.0,0.0,0.0
3844,27.0,0.0,330.0,11.0,0.0
3845,79.0,10.0,120.0,0.0,0.0
3846,51.0,20.0,60.0,3.0,0.0
3847,75.0,16.0,120.0,4.0,0.0
3848,63.0,200.0,150.0,2.0,0.0
3849,63.0,4.0,120.0,8.0,0.0
3850,75.0,10.0,60.0,1.0,0.0
3851,51.0,12.0,90.0,5.0,0.0
3852,58.0,2.0,90.0,5.0,0.0
3853,39.0,238.0,330.0,10.0,0.0
3854,58.0,148.0,390.0,4.0,0.0
3855,55.0,0.0,390.0,4.0,0.0
3856,70.0,12.0,360.0,1.0,0.0
3857,58.0,36.0,330.0,3.0,0.0
3858,58.0,236.0,60.0,3.0,0.0
3859,58.0,6.0,360.0,4.0,0.0
3860,70.0,10.0,60.0,1.0,0.0
3861,55.0,168.0,360.0,4.0,0.0
3862,68.0,0.0,60.0,1.0,0.0
3863,56.0,70.0,60.0,3.0,0.0
3864,55.0,0.0,60.0,3.0,0.0
3865,58.0,0.0,60.0,4.0,0.0
3866,67.0,12.0,60.0,1.0,0.0
3867,55.0,224.0,60.0,4.0,0.0
3868,55.0,232.0,60.0,4.0,0.0
3869,58.0,6.0,60.0,4.0,0.0
3870,65.0,10.0,60.0,1.0,0.0
3871,53.0,0.0,60.0,3.0,0.0
3872,58.0,2.0,60.0,4.0,0.0
3873,51.0,216.0,60.0,3.0,0.0
3874,55.0,0.0,60.0,4.0,0.0
3875,63.0,8.0,60.0,1.0,0.0
3876,62.0,8.0,60.0,1.0,0.0
3877,74.0,0.0,60.0,0.0,0.0
3878,56.0,458.0,90.0,8.0,0.0
3879,58.0,0.0,60.0,4.0,0.0
3880,34.0,6.0,90.0,11.0,0.0
3881,56.0,8.0,60.0,4.0,0.0
3882,62.0,4.0,60.0,4.0,0.0
3883,46.0,0.0,90.0,10.0,0.0
3884,50.0,10.0,60.0,3.0,0.0
3885,47.0,2.0,360.0,10.0,0.0
3886,59.0,30.0,300.0,4.0,0.0
3887,35.0,0.0,360.0,11.0,0.0
3888,83.0,16.0,330.0,0.0,0.0
3889,59.0,156.0,390.0,8.0,0.0
3890,71.0,44.0,360.0,4.0,0.0
3891,83.0,8.0,60.0,0.0,0.0
3892,59.0,0.0,90.0,4.0,0.0
3893,71.0,12.0,90.0,4.0,0.0
3894,59.0,210.0,90.0,8.0,0.0
3895,47.0,4.0,90.0,10.0,0.0
3896,35.0,0.0,90.0,11.0,0.0
3897,34.0,0.0,60.0,11.0,0.0
3898,46.0,0.0,60.0,10.0,0.0
3899,58.0,6.0,60.0,4.0,0.0
3900,58.0,218.0,90.0,8.0,0.0
3901,70.0,2.0,90.0,4.0,0.0
3902,82.0,8.0,60.0,0.0,0.0
3903,44.0,0.0,60.0,10.0,0.0
3904,80.0,14.0,60.0,0.0,0.0
3905,56.0,212.0,90.0,8.0,0.0
3906,56.0,0.0,90.0,4.0,0.0
3907,32.0,4.0,60.0,11.0,0.0
3908,68.0,12.0,90.0,4.0,0.0
3909,67.0,2.0,90.0,4.0,0.0
3910,31.0,0.0,90.0,11.0,0.0
3911,55.0,218.0,90.0,8.0,0.0
3912,43.0,0.0,90.0,10.0,0.0
3913,55.0,0.0,60.0,4.0,0.0
3914,79.0,20.0,60.0,0.0,0.0
3915,29.0,0.0,90.0,11.0,0.0
3916,41.0,2.0,90.0,10.0,0.0
3917,77.0,16.0,60.0,0.0,0.0
3918,65.0,2.0,90.0,4.0,0.0
3919,53.0,206.0,90.0,8.0,0.0
3920,53.0,12.0,90.0,4.0,0.0
3921,51.0,6.0,90.0,4.0,0.0
3922,27.0,4.0,90.0,11.0,0.0
3923,63.0,8.0,90.0,4.0,0.0
3924,39.0,0.0,90.0,10.0,0.0
3925,75.0,16.0,60.0,0.0,0.0
3926,51.0,450.0,90.0,8.0,0.0
3927,58.0,148.0,390.0,3.0,0.0
3928,58.0,0.0,300.0,4.0,0.0
3929,55.0,82.0,300.0,4.0,0.0
3930,70.0,6.0,390.0,1.0,0.0
3931,58.0,2.0,360.0,4.0,0.0
3932,55.0,164.0,360.0,4.0,0.0
3933,70.0,4.0,60.0,1.0,0.0
3934,58.0,232.0,60.0,3.0,0.0
3935,68.0,66.0,60.0,1.0,0.0
3936,56.0,8.0,60.0,3.0,0.0
3937,67.0,6.0,60.0,1.0,0.0
3938,55.0,228.0,60.0,4.0,0.0
3939,55.0,0.0,60.0,3.0,0.0
3940,58.0,4.0,60.0,4.0,0.0
3941,65.0,6.0,60.0,1.0,0.0
3942,58.0,234.0,60.0,4.0,0.0
3943,55.0,6.0,60.0,4.0,0.0
3944,53.0,6.0,60.0,3.0,0.0
3945,55.0,216.0,90.0,4.0,0.0
3946,58.0,0.0,60.0,4.0,0.0
3947,51.0,4.0,60.0,3.0,0.0
3948,63.0,6.0,60.0,1.0,0.0
3949,62.0,12.0,60.0,1.0,0.0
3950,50.0,4.0,60.0,3.0,0.0
3951,62.0,0.0,90.0,4.0,0.0
3952,58.0,0.0,60.0,4.0,0.0
3953,46.0,8.0,90.0,10.0,0.0
3954,56.0,4.0,60.0,4.0,0.0
3955,74.0,4.0,60.0,0.0,0.0
3956,34.0,0.0,90.0,11.0,0.0
3957,56.0,466.0,90.0,8.0,0.0
3958,59.0,12.0,300.0,4.0,0.0
3959,71.0,20.0,360.0,4.0,0.0
3960,47.0,2.0,300.0,10.0,0.0
3961,83.0,42.0,330.0,0.0,0.0
3962,59.0,158.0,390.0,8.0,0.0
3963,35.0,0.0,300.0,11.0,0.0
3964,59.0,2.0,90.0,8.0,0.0
3965,35.0,218.0,90.0,11.0,0.0
3966,59.0,4.0,90.0,4.0,0.0
3967,83.0,16.0,60.0,0.0,0.0
3968,71.0,0.0,90.0,4.0,0.0
3969,47.0,0.0,90.0,10.0,0.0
3970,82.0,8.0,60.0,0.0,0.0
3971,34.0,0.0,60.0,11.0,0.0
3972,58.0,2.0,60.0,4.0,0.0
3973,46.0,2.0,60.0,10.0,0.0
3974,70.0,204.0,90.0,4.0,0.0
3975,58.0,14.0,90.0,8.0,0.0
3976,80.0,18.0,60.0,0.0,0.0
3977,56.0,208.0,90.0,4.0,0.0
3978,68.0,8.0,90.0,4.0,0.0
3979,32.0,0.0,60.0,11.0,0.0
3980,44.0,6.0,60.0,10.0,0.0
3981,56.0,0.0,90.0,8.0,0.0
3982,79.0,22.0,60.0,0.0,0.0
3983,43.0,0.0,90.0,10.0,0.0
3984,55.0,0.0,90.0,8.0,0.0
3985,55.0,6.0,90.0,4.0,0.0
3986,67.0,0.0,90.0,4.0,0.0
3987,31.0,220.0,90.0,11.0,0.0
3988,29.0,6.0,60.0,11.0,0.0
3989,53.0,0.0,90.0,4.0,0.0
3990,65.0,6.0,90.0,4.0,0.0
3991,77.0,12.0,60.0,0.0,0.0
3992,41.0,0.0,60.0,10.0,0.0
3993,53.0,206.0,90.0,8.0,0.0
3994,64.0,12.0,60.0,4.0,0.0
3995,52.0,506.0,90.0,4.0,0.0
3996,28.0,4.0,60.0,11.0,0.0
3997,52.0,2.0,60.0,8.0,0.0
3998,76.0,6.0,60.0,0.0,0.0
3999,40.0,0.0,60.0,10.0,0.0
4000,61.0,2.0,360.0,8.0,0.0
4001,73.0,4.0,330.0,4.0,0.0
4002,49.0,12.0,360.0,10.0,0.0
4003,61.0,14.0,360.0,4.0,0.0
4004,85.0,170.0,360.0,0.0,0.0
4005,37.0,0.0,360.0,11.0,0.0
4006,73.0,4.0,90.0,4.0,0.0
4007,61.0,222.0,90.0,8.0,0.0
4008,37.0,6.0,60.0,11.0,0.0
4009,61.0,4.0,60.0,4.0,0.0
4010,49.0,0.0,60.0,10.0,0.0
4011,85.0,6.0,60.0,0.0,0.0
4012,36.0,0.0,60.0,11.0,0.0
4013,60.0,2.0,60.0,4.0,0.0
4014,72.0,224.0,90.0,4.0,0.0
4015,84.0,6.0,60.0,0.0,0.0
4016,60.0,0.0,60.0,8.0,0.0
4017,48.0,2.0,60.0,10.0,0.0
4018,82.0,12.0,60.0,0.0,0.0
4019,34.0,4.0,90.0,11.0,0.0
4020,58.0,212.0,90.0,8.0,0.0
4021,58.0,0.0,90.0,4.0,0.0
4022,46.0,0.0,90.0,10.0,0.0
4023,70.0,4.0,60.0,4.0,0.0
4024,44.0,0.0,90.0,10.0,0.0
4025,68.0,4.0,60.0,4.0,0.0
4026,32.0,210.0,90.0,11.0,0.0
4027,56.0,0.0,90.0,4.0,0.0
4028,80.0,20.0,60.0,0.0,0.0
4029,56.0,6.0,90.0,8.0,0.0
4030,79.0,22.0,60.0,0.0,0.0
4031,55.0,6.0,60.0,4.0,0.0
4032,67.0,4.0,90.0,4.0,0.0
4033,31.0,0.0,90.0,11.0,0.0
4034,43.0,198.0,90.0,10.0,0.0
4035,55.0,0.0,90.0,8.0,0.0
4036,54.0,494.0,90.0,8.0,0.0
4037,66.0,14.0,30.0,4.0,0.0
4038,78.0,8.0,60.0,0.0,0.0
4039,54.0,6.0,60.0,4.0,0.0
4040,42.0,0.0,60.0,10.0,0.0
4041,30.0,10.0,60.0,11.0,0.0
4042,39.0,14.0,390.0,11.0,0.0
4043,87.0,26.0,360.0,0.0,0.0
4044,51.0,0.0,390.0,10.0,0.0
4045,75.0,12.0,330.0,4.0,0.0
4046,63.0,4.0,360.0,8.0,0.0
4047,63.0,152.0,390.0,4.0,0.0
4048,63.0,218.0,90.0,8.0,0.0
4049,39.0,0.0,60.0,11.0,0.0
4050,63.0,12.0,60.0,4.0,0.0
4051,75.0,4.0,90.0,4.0,0.0
4052,87.0,0.0,60.0,0.0,0.0
4053,51.0,4.0,60.0,10.0,0.0
4054,61.0,220.0,90.0,8.0,0.0
4055,49.0,0.0,60.0,10.0,0.0
4056,85.0,10.0,60.0,0.0,0.0
4057,73.0,2.0,60.0,4.0,0.0
4058,61.0,2.0,60.0,4.0,0.0
4059,37.0,2.0,60.0,11.0,0.0
4060,36.0,0.0,60.0,11.0,0.0
4061,60.0,6.0,60.0,4.0,0.0
4062,72.0,6.0,90.0,4.0,0.0
4063,84.0,16.0,60.0,0.0,0.0
4064,48.0,2.0,60.0,10.0,0.0
4065,60.0,210.0,90.0,8.0,0.0
4066,70.0,10.0,60.0,4.0,0.0
4067,46.0,0.0,60.0,10.0,0.0
4068,58.0,210.0,90.0,8.0,0.0
4069,82.0,14.0,60.0,0.0,0.0
4070,34.0,2.0,60.0,11.0,0.0
4071,58.0,0.0,60.0,4.0,0.0
4072,56.0,2.0,90.0,4.0,0.0
4073,80.0,20.0,60.0,0.0,0.0
4074,56.0,212.0,90.0,8.0,0.0
4075,68.0,8.0,60.0,4.0,0.0
4076,32.0,0.0,60.0,11.0,0.0
4077,44.0,0.0,60.0,10.0,0.0
4078,67.0,4.0,90.0,4.0,0.0
4079,55.0,6.0,90.0,4.0,0.0
4080,31.0,6.0,60.0,11.0,0.0
4081,43.0,0.0,60.0,10.0,0.0
4082,79.0,16.0,60.0,0.0,0.0
4083,55.0,506.0,90.0,8.0,0.0
4084,65.0,18.0,360.0,2.0,0.0
4085,77.0,4.0,360.0,1.0,0.0
4086,53.0,148.0,390.0,3.0,0.0
4087,65.0,12.0,360.0,3.0,0.0
4088,89.0,0.0,360.0,0.0,0.0
4089,63.0,0.0,60.0,3.0,0.0
4090,75.0,2.0,60.0,1.0,0.0
4091,87.0,0.0,60.0,0.0,0.0
4092,63.0,220.0,60.0,2.0,0.0
4093,51.0,4.0,60.0,3.0,0.0
4094,85.0,232.0,60.0,0.0,0.0
4095,61.0,4.0,60.0,2.0,0.0
4096,73.0,4.0,30.0,1.0,0.0
4097,49.0,4.0,60.0,3.0,0.0
4098,61.0,2.0,30.0,3.0,0.0
4099,60.0,10.0,60.0,3.0,0.0
4100,72.0,0.0,60.0,1.0,0.0
4101,60.0,2.0,60.0,2.0,0.0
4102,84.0,220.0,60.0,0.0,0.0
4103,48.0,4.0,60.0,3.0,0.0
4104,58.0,4.0,30.0,3.0,0.0
4105,46.0,4.0,60.0,3.0,0.0
4106,82.0,218.0,60.0,0.0,0.0
4107,70.0,0.0,60.0,1.0,0.0
4108,58.0,6.0,60.0,2.0,0.0
4109,44.0,8.0,60.0,3.0,0.0
4110,68.0,6.0,60.0,1.0,0.0
4111,56.0,10.0,30.0,2.0,0.0
4112,80.0,222.0,60.0,0.0,0.0
4113,56.0,2.0,30.0,3.0,0.0
4114,55.0,4.0,60.0,3.0,0.0
4115,43.0,214.0,60.0,3.0,0.0
4116,55.0,4.0,60.0,2.0,0.0
4117,79.0,0.0,60.0,0.0,0.0
4118,67.0,10.0,30.0,1.0,0.0
4119,77.0,230.0,60.0,0.0,0.0
4120,41.0,2.0,60.0,3.0,0.0
4121,53.0,2.0,60.0,3.0,0.0
4122,65.0,8.0,30.0,1.0,0.0
4123,65.0,8.0,30.0,2.0,0.0
4124,63.0,40.0,60.0,1.0,0.0
4125,61.0,128.0,150.0,4.0,0.0
4126,39.0,0.0,90.0,11.0,0.0
4127,58.0,10.0,120.0,4.0,0.0
4128,51.0,22.0,120.0,8.0,0.0
4129,63.0,0.0,30.0,2.0,0.0
4130,51.0,2.0,60.0,3.0,0.0
4131,39.0,2.0,60.0,3.0,0.0
4132,75.0,6.0,30.0,0.0,0.0
4133,51.0,28.0,90.0,10.0,0.0
4134,50.0,0.0,60.0,3.0,0.0
4135,74.0,0.0,60.0,0.0,0.0
4136,62.0,4.0,30.0,2.0,0.0
4137,38.0,238.0,60.0,3.0,0.0
4138,62.0,6.0,60.0,1.0,0.0
4139,75.0,2.0,60.0,0.0,0.0
4140,63.0,4.0,60.0,2.0,0.0
4141,39.0,4.0,60.0,3.0,0.0
4142,51.0,0.0,60.0,3.0,0.0
4143,63.0,226.0,60.0,1.0,0.0
4144,41.0,236.0,60.0,3.0,0.0
4145,53.0,2.0,60.0,3.0,0.0
4146,77.0,4.0,60.0,0.0,0.0
4147,65.0,0.0,60.0,2.0,0.0
4148,65.0,4.0,60.0,1.0,0.0
4149,39.0,0.0,90.0,11.0,0.0
4150,67.0,0.0,60.0,2.0,0.0
4151,58.0,52.0,120.0,4.0,0.0
4152,79.0,32.0,60.0,0.0,0.0
4153,51.0,42.0,90.0,10.0,0.0
4154,67.0,4.0,60.0,1.0,0.0
4155,55.0,0.0,60.0,3.0,0.0
4156,61.0,26.0,180.0,4.0,0.0
4157,51.0,80.0,210.0,8.0,0.0
4158,43.0,4.0,60.0,3.0,0.0
4159,68.0,8.0,60.0,2.0,0.0
4160,80.0,220.0,60.0,0.0,0.0
4161,44.0,4.0,60.0,3.0,0.0
4162,56.0,0.0,60.0,3.0,0.0
4163,68.0,2.0,60.0,1.0,0.0
4164,82.0,216.0,60.0,0.0,0.0
4165,58.0,14.0,60.0,3.0,0.0
4166,46.0,8.0,60.0,3.0,0.0
4167,70.0,2.0,60.0,2.0,0.0
4168,70.0,4.0,60.0,1.0,0.0
4169,68.0,10.0,60.0,1.0,0.0
4170,68.0,4.0,60.0,2.0,0.0
4171,56.0,2.0,60.0,3.0,0.0
4172,44.0,0.0,60.0,3.0,0.0
4173,80.0,220.0,60.0,0.0,0.0
4174,67.0,4.0,60.0,2.0,0.0
4175,51.0,66.0,210.0,8.0,0.0
4176,55.0,2.0,60.0,3.0,0.0
4177,43.0,38.0,60.0,3.0,0.0
4178,79.0,2.0,60.0,0.0,0.0
4179,51.0,82.0,90.0,10.0,0.0
4180,61.0,26.0,180.0,4.0,0.0
4181,39.0,0.0,90.0,11.0,0.0
4182,58.0,8.0,180.0,4.0,0.0
4183,67.0,8.0,60.0,1.0,0.0
4184,41.0,230.0,60.0,3.0,0.0
4185,77.0,0.0,60.0,0.0,0.0
4186,65.0,12.0,60.0,2.0,0.0
4187,65.0,8.0,60.0,1.0,0.0
4188,53.0,10.0,30.0,3.0,0.0
4189,51.0,0.0,60.0,3.0,0.0
4190,75.0,6.0,60.0,0.0,0.0
4191,39.0,0.0,60.0,3.0,0.0
4192,63.0,222.0,60.0,2.0,0.0
4193,63.0,4.0,60.0,1.0,0.0
4194,65.0,0.0,60.0,2.0,0.0
4195,53.0,6.0,60.0,3.0,0.0
4196,41.0,4.0,60.0,3.0,0.0
4197,65.0,2.0,60.0,1.0,0.0
4198,77.0,224.0,60.0,0.0,0.0
4199,55.0,2.0,60.0,3.0,0.0
4200,58.0,40.0,150.0,4.0,0.0
4201,79.0,4.0,60.0,0.0,0.0
4202,39.0,58.0,90.0,11.0,0.0
4203,51.0,6.0,150.0,8.0,0.0
4204,43.0,30.0,60.0,3.0,0.0
4205,51.0,0.0,90.0,10.0,0.0
4206,61.0,94.0,210.0,4.0,0.0
4207,67.0,6.0,60.0,2.0,0.0
4208,67.0,4.0,60.0,1.0,0.0
4209,44.0,228.0,60.0,3.0,0.0
4210,68.0,0.0,60.0,1.0,0.0
4211,80.0,2.0,60.0,0.0,0.0
4212,56.0,6.0,60.0,3.0,0.0
4213,68.0,4.0,60.0,2.0,0.0
4214,70.0,6.0,60.0,2.0,0.0
4215,82.0,218.0,60.0,0.0,0.0
4216,70.0,0.0,60.0,1.0,0.0
4217,58.0,8.0,60.0,3.0,0.0
4218,46.0,4.0,60.0,3.0,0.0
4219,39.0,16.0,1830.0,5.0,0.0
4220,51.0,0.0,1830.0,5.0,0.0
4221,56.0,6.0,60.0,3.0,0.0
4222,68.0,2.0,60.0,1.0,0.0
4223,68.0,2.0,60.0,2.0,0.0
4224,80.0,6.0,60.0,0.0,0.0
4225,44.0,220.0,60.0,3.0,0.0
4226,67.0,6.0,60.0,1.0,0.0
4227,43.0,4.0,60.0,3.0,0.0
4228,79.0,220.0,60.0,0.0,0.0
4229,67.0,10.0,60.0,2.0,0.0
4230,55.0,4.0,60.0,3.0,0.0
4231,53.0,2.0,60.0,3.0,0.0
4232,41.0,10.0,60.0,3.0,0.0
4233,77.0,2.0,60.0,1.0,0.0
4234,65.0,6.0,60.0,1.0,0.0
4235,65.0,2.0,60.0,2.0,0.0
4236,77.0,212.0,60.0,0.0,0.0
4237,63.0,0.0,30.0,1.0,0.0
4238,75.0,10.0,30.0,1.0,0.0
4239,51.0,0.0,60.0,3.0,0.0
4240,55.0,80.0,90.0,4.0,0.0
4241,63.0,6.0,60.0,2.0,0.0
4242,75.0,2.0,60.0,0.0,0.0
4243,39.0,18.0,60.0,3.0,0.0
4244,56.0,80.0,90.0,4.0,0.0
4245,55.0,34.0,90.0,4.0,0.0
4246,56.0,80.0,90.0,4.0,0.0
4247,85.0,18.0,60.0,0.0,0.0
4248,37.0,6.0,60.0,3.0,0.0
4249,49.0,2.0,60.0,3.0,0.0
4250,61.0,12.0,30.0,1.0,0.0
4251,61.0,2.0,60.0,2.0,0.0
4252,73.0,6.0,30.0,1.0,0.0
4253,55.0,80.0,90.0,4.0,0.0
4254,56.0,40.0,90.0,4.0,0.0
4255,60.0,10.0,30.0,1.0,0.0
4256,36.0,0.0,60.0,3.0,0.0
4257,48.0,2.0,60.0,3.0,0.0
4258,55.0,0.0,90.0,4.0,0.0
4259,72.0,4.0,60.0,1.0,0.0
4260,84.0,24.0,60.0,0.0,0.0
4261,60.0,80.0,90.0,2.0,0.0
4262,56.0,80.0,90.0,4.0,0.0
4263,55.0,34.0,90.0,4.0,0.0
4264,34.0,0.0,60.0,3.0,0.0
4265,70.0,8.0,30.0,1.0,0.0
4266,58.0,12.0,30.0,1.0,0.0
4267,58.0,2.0,60.0,2.0,0.0
4268,46.0,0.0,60.0,3.0,0.0
4269,82.0,24.0,60.0,0.0,0.0
4270,56.0,64.0,90.0,4.0,0.0
4271,53.0,80.0,90.0,4.0,0.0
4272,55.0,24.0,90.0,4.0,0.0
4273,44.0,6.0,90.0,10.0,0.0
4274,32.0,0.0,90.0,11.0,0.0
4275,51.0,30.0,90.0,4.0,0.0
4276,56.0,16.0,20.0,1.0,0.0
4277,56.0,0.0,90.0,4.0,0.0
4278,32.0,74.0,120.0,3.0,0.0
4279,44.0,8.0,90.0,3.0,0.0
4280,56.0,4.0,120.0,2.0,0.0
4281,48.0,6.0,120.0,8.0,0.0
4282,44.0,10.0,60.0,5.0,0.0
4283,56.0,0.0,60.0,5.0,0.0
4284,80.0,20.0,60.0,0.0,0.0
4285,68.0,6.0,30.0,1.0,0.0
4286,51.0,120.0,90.0,4.0,0.0
4287,53.0,120.0,90.0,4.0,0.0
4288,55.0,120.0,90.0,4.0,0.0
4289,56.0,120.0,90.0,4.0,0.0
4290,58.0,120.0,90.0,4.0,0.0
4291,60.0,120.0,90.0,4.0,0.0
4292,58.0,122.0,90.0,4.0,0.0
4293,51.0,6.0,120.0,4.0,0.0
4294,56.0,0.0,120.0,4.0,0.0
4295,44.0,0.0,90.0,10.0,0.0
4296,32.0,28.0,90.0,11.0,0.0
4297,48.0,84.0,120.0,8.0,0.0
4298,51.0,120.0,90.0,4.0,0.0
4299,53.0,120.0,90.0,4.0,0.0
4300,55.0,120.0,90.0,4.0,0.0
4301,56.0,120.0,90.0,4.0,0.0
4302,58.0,120.0,90.0,4.0,0.0
4303,60.0,132.0,90.0,4.0,0.0
4304,58.0,116.0,90.0,4.0,0.0
4305,32.0,0.0,90.0,11.0,0.0
4306,48.0,84.0,120.0,8.0,0.0
4307,44.0,22.0,90.0,10.0,0.0
4308,56.0,6.0,120.0,4.0,0.0
4309,51.0,0.0,120.0,4.0,0.0
4310,51.0,120.0,90.0,4.0,0.0
4311,53.0,120.0,90.0,4.0,0.0
4312,55.0,120.0,90.0,4.0,0.0
4313,56.0,16.0,90.0,4.0,0.0
4314,51.0,0.0,90.0,4.0,0.0
4315,44.0,0.0,90.0,10.0,0.0
4316,48.0,84.0,120.0,8.0,0.0
4317,32.0,20.0,90.0,11.0,0.0
4318,58.0,120.0,90.0,4.0,0.0
4319,60.0,132.0,90.0,4.0,0.0
4320,61.0,108.0,90.0,4.0,0.0
4321,44.0,6.0,90.0,10.0,0.0
4322,48.0,14.0,90.0,8.0,0.0
4323,32.0,0.0,90.0,11.0,0.0
4324,51.0,90.0,120.0,4.0,0.0
4325,63.0,10.0,90.0,4.0,0.0
4326,62.0,120.0,90.0,4.0,0.0
4327,65.0,120.0,90.0,4.0,0.0
4328,63.0,120.0,90.0,4.0,0.0
4329,61.0,120.0,90.0,4.0,0.0
4330,60.0,120.0,90.0,4.0,0.0
4331,58.0,120.0,90.0,4.0,0.0
4332,56.0,126.0,90.0,4.0,0.0
4333,32.0,0.0,90.0,11.0,0.0
4334,49.0,94.0,120.0,8.0,0.0
4335,44.0,24.0,90.0,10.0,0.0
4336,53.0,0.0,120.0,4.0,0.0
4337,58.0,8.0,120.0,4.0,0.0
4338,53.0,108.0,90.0,4.0,0.0
4339,55.0,120.0,90.0,4.0,0.0
4340,57.0,120.0,90.0,4.0,0.0
4341,58.0,120.0,90.0,4.0,0.0
4342,60.0,120.0,90.0,4.0,0.0
4343,61.0,120.0,90.0,4.0,0.0
4344,60.0,126.0,90.0,4.0,0.0
4345,32.0,0.0,90.0,11.0,0.0
4346,49.0,72.0,150.0,8.0,0.0
4347,58.0,30.0,120.0,4.0,0.0
4348,53.0,0.0,120.0,4.0,0.0
4349,44.0,24.0,90.0,10.0,0.0
4350,53.0,108.0,90.0,4.0,0.0
4351,55.0,120.0,90.0,4.0,0.0
4352,57.0,120.0,90.0,4.0,0.0
4353,58.0,120.0,90.0,4.0,0.0
4354,60.0,120.0,90.0,4.0,0.0
4355,61.0,120.0,90.0,4.0,0.0
4356,60.0,120.0,90.0,4.0,0.0
4357,43.0,0.0,90.0,10.0,0.0
4358,49.0,88.0,120.0,8.0,0.0
4359,58.0,0.0,90.0,4.0,0.0
4360,51.0,14.0,90.0,4.0,0.0
4361,31.0,18.0,90.0,11.0,0.0
4362,58.0,120.0,90.0,4.0,0.0
4363,60.0,120.0,90.0,4.0,0.0
4364,61.0,120.0,90.0,4.0,0.0
4365,31.0,14.0,90.0,11.0,0.0
4366,58.0,6.0,120.0,4.0,0.0
4367,51.0,6.0,90.0,4.0,0.0
4368,43.0,0.0,90.0,10.0,0.0
4369,63.0,2.0,90.0,4.0,0.0
4370,49.0,92.0,120.0,8.0,0.0
4371,65.0,120.0,90.0,4.0,0.0
4372,67.0,120.0,90.0,4.0,0.0
4373,68.0,120.0,90.0,4.0,0.0
4374,51.0,4.0,90.0,4.0,0.0
4375,58.0,22.0,90.0,4.0,0.0
4376,49.0,88.0,120.0,8.0,0.0
4377,43.0,0.0,90.0,10.0,0.0
4378,31.0,0.0,90.0,11.0,0.0
4379,70.0,6.0,90.0,4.0,0.0
4380,72.0,120.0,90.0,4.0,0.0
4381,70.0,120.0,90.0,4.0,0.0
4382,68.0,120.0,90.0,4.0,0.0
4383,67.0,120.0,90.0,4.0,0.0
4384,65.0,120.0,90.0,4.0,0.0
4385,63.0,120.0,90.0,4.0,0.0
4386,61.0,120.0,90.0,4.0,0.0
4387,80.0,0.0,2010.0,0.0,0.0
4388,59.0,0.0,1980.0,2.0,0.0
4389,44.0,0.0,90.0,10.0,0.0
4390,56.0,8.0,1950.0,5.0,0.0
4391,44.0,14.0,1950.0,5.0,0.0
4392,32.0,0.0,90.0,11.0,0.0
4393,63.0,10.0,1980.0,2.0,0.0
4394,68.0,2.0,1980.0,1.0,0.0
4395,75.0,10.0,1980.0,0.0,0.0
4396,71.0,2.0,1980.0,1.0,0.0
4397,59.0,0.0,90.0,4.0,0.0
4398,51.0,0.0,90.0,8.0,0.0
4399,47.0,112.0,90.0,8.0,0.0
4400,47.0,4.0,2010.0,3.0,0.0
4401,51.0,0.0,2010.0,3.0,0.0
4402,56.0,8.0,90.0,4.0,0.0
4403,44.0,0.0,90.0,7.0,0.0
4404,51.0,104.0,90.0,8.0,0.0
4405,32.0,0.0,90.0,11.0,0.0
4406,44.0,4.0,90.0,10.0,0.0
4407,47.0,0.0,90.0,8.0,0.0
4408,56.0,4.0,90.0,6.0,0.0
4409,68.0,0.0,90.0,6.0,0.0
4410,51.0,2.0,90.0,4.0,0.0
4411,63.0,2.0,90.0,4.0,0.0
4412,32.0,2.0,90.0,11.0,0.0
4413,65.0,2.0,90.0,4.0,0.0
4414,51.0,108.0,90.0,8.0,0.0
4415,44.0,0.0,90.0,10.0,0.0
4416,47.0,0.0,90.0,8.0,0.0
4417,53.0,2.0,90.0,4.0,0.0
4418,67.0,2.0,90.0,4.0,0.0
4419,44.0,0.0,90.0,10.0,0.0
4420,32.0,2.0,90.0,11.0,0.0
4421,55.0,8.0,60.0,4.0,0.0
4422,51.0,118.0,90.0,8.0,0.0
4423,47.0,0.0,90.0,8.0,0.0
4424,68.0,0.0,90.0,4.0,0.0
4425,56.0,6.0,90.0,4.0,0.0
4426,32.0,0.0,90.0,11.0,0.0
4427,44.0,6.0,90.0,10.0,0.0
4428,47.0,0.0,90.0,8.0,0.0
4429,51.0,98.0,90.0,8.0,0.0
4430,70.0,0.0,90.0,4.0,0.0
4431,58.0,0.0,60.0,4.0,0.0
4432,47.0,10.0,90.0,8.0,0.0
4433,51.0,110.0,90.0,8.0,0.0
4434,44.0,10.0,60.0,10.0,0.0
4435,32.0,0.0,60.0,11.0,0.0
4436,32.0,0.0,90.0,11.0,0.0
4437,59.0,104.0,90.0,4.0,0.0
4438,71.0,0.0,90.0,4.0,0.0
4439,44.0,2.0,90.0,10.0,0.0
4440,51.0,2.0,90.0,8.0,0.0
4441,47.0,4.0,90.0,8.0,0.0
4442,47.0,0.0,90.0,8.0,0.0
4443,32.0,2.0,90.0,11.0,0.0
4444,51.0,102.0,90.0,8.0,0.0
4445,44.0,0.0,90.0,10.0,0.0
4446,58.0,6.0,90.0,4.0,0.0
4447,70.0,10.0,90.0,4.0,0.0
4448,68.0,0.0,90.0,6.0,0.0
4449,68.0,2.0,90.0,4.0,0.0
4450,56.0,8.0,90.0,4.0,0.0
4451,51.0,110.0,90.0,8.0,0.0
4452,44.0,0.0,90.0,10.0,0.0
4453,47.0,4.0,90.0,8.0,0.0
4454,32.0,4.0,90.0,11.0,0.0
4455,44.0,0.0,90.0,7.0,0.0
4456,56.0,0.0,90.0,6.0,0.0
4457,44.0,8.0,90.0,10.0,0.0
4458,47.0,0.0,90.0,8.0,0.0
4459,51.0,108.0,90.0,8.0,0.0
4460,63.0,2.0,90.0,4.0,0.0
4461,51.0,0.0,90.0,4.0,0.0
4462,32.0,0.0,90.0,11.0,0.0
4463,32.0,0.0,90.0,11.0,0.0
4464,51.0,106.0,90.0,8.0,0.0
4465,47.0,0.0,90.0,8.0,0.0
4466,44.0,6.0,90.0,10.0,0.0
4467,65.0,0.0,90.0,4.0,0.0
4468,53.0,2.0,90.0,4.0,0.0
4469,47.0,8.0,90.0,8.0,0.0
4470,51.0,112.0,90.0,8.0,0.0
4471,55.0,6.0,90.0,4.0,0.0
4472,67.0,0.0,90.0,4.0,0.0
4473,44.0,0.0,90.0,10.0,0.0
4474,32.0,2.0,90.0,11.0,0.0
4475,56.0,8.0,90.0,4.0,0.0
4476,44.0,0.0,90.0,10.0,0.0
4477,51.0,100.0,90.0,8.0,0.0
4478,68.0,2.0,90.0,4.0,0.0
4479,32.0,0.0,90.0,11.0,0.0
4480,47.0,6.0,90.0,8.0,0.0
4481,47.0,2.0,90.0,8.0,0.0
4482,51.0,112.0,90.0,8.0,0.0
4483,58.0,2.0,90.0,4.0,0.0
4484,70.0,8.0,90.0,4.0,0.0
4485,32.0,0.0,90.0,11.0,0.0
4486,44.0,0.0,90.0,10.0,0.0
4487,47.0,10.0,90.0,8.0,0.0
4488,44.0,2.0,90.0,10.0,0.0
4489,51.0,100.0,90.0,8.0,0.0
4490,32.0,0.0,90.0,11.0,0.0
4491,59.0,0.0,90.0,4.0,0.0
4492,71.0,0.0,90.0,4.0,0.0
4493,70.0,6.0,90.0,4.0,0.0
4494,44.0,0.0,90.0,10.0,0.0
4495,58.0,8.0,90.0,4.0,0.0
4496,51.0,56.0,90.0,8.0,0.0
4497,47.0,2.0,90.0,8.0,0.0
4498,32.0,2.0,90.0,11.0,0.0
4499,44.0,0.0,90.0,7.0,0.0
4500,44.0,0.0,90.0,10.0,0.0
4501,68.0,0.0,90.0,4.0,0.0
4502,56.0,2.0,90.0,4.0,0.0
4503,56.0,0.0,90.0,6.0,0.0
4504,47.0,6.0,90.0,8.0,0.0
4505,51.0,104.0,90.0,8.0,0.0
4506,68.0,2.0,90.0,6.0,0.0
4507,32.0,2.0,90.0,11.0,0.0
4508,32.0,2.0,90.0,11.0,0.0
4509,44.0,0.0,90.0,10.0,0.0
4510,51.0,106.0,90.0,8.0,0.0
4511,47.0,8.0,90.0,8.0,0.0
4512,63.0,2.0,90.0,4.0,0.0
4513,51.0,6.0,90.0,4.0,0.0
4514,53.0,2.0,90.0,4.0,0.0
4515,65.0,2.0,90.0,4.0,0.0
4516,32.0,0.0,90.0,11.0,0.0
4517,51.0,100.0,90.0,8.0,0.0
4518,44.0,2.0,90.0,10.0,0.0
4519,47.0,6.0,90.0,8.0,0.0
4520,44.0,0.0,90.0,10.0,0.0
4521,51.0,78.0,90.0,8.0,0.0
4522,47.0,2.0,90.0,8.0,0.0
4523,67.0,2.0,90.0,4.0,0.0
4524,55.0,10.0,60.0,4.0,0.0
4525,32.0,0.0,90.0,11.0,0.0
4526,51.0,10.0,90.0,8.0,0.0
4527,51.0,6.0,90.0,3.0,0.0
4528,44.0,12.0,30.0,5.0,0.0
4529,63.0,12.0,90.0,2.0,0.0
4530,75.0,6.0,60.0,0.0,0.0
4531,47.0,2.0,90.0,8.0,0.0
4532,80.0,70.0,120.0,0.0,0.0
4533,32.0,0.0,90.0,11.0,0.0
4534,44.0,0.0,90.0,10.0,0.0
4535,56.0,0.0,30.0,5.0,0.0
4536,68.0,4.0,60.0,6.0,0.0
4537,56.0,0.0,60.0,6.0,0.0
4538,59.0,8.0,90.0,2.0,0.0
4539,47.0,4.0,60.0,3.0,0.0
4540,71.0,0.0,60.0,1.0,0.0
4541,68.0,4.0,60.0,1.0,0.0
4542,44.0,0.0,60.0,7.0,0.0
4543,56.0,2.0,60.0,4.0,0.0
4544,68.0,2.0,90.0,4.0,0.0
4545,70.0,2.0,90.0,4.0,0.0
4546,58.0,16.0,60.0,4.0,0.0
4547,32.0,2.0,90.0,11.0,0.0
4548,47.0,8.0,90.0,8.0,0.0
4549,51.0,108.0,90.0,8.0,0.0
4550,44.0,0.0,90.0,10.0,0.0
4551,51.0,2.0,90.0,8.0,0.0
4552,59.0,110.0,90.0,4.0,0.0
4553,44.0,2.0,90.0,10.0,0.0
4554,32.0,0.0,90.0,11.0,0.0
4555,47.0,0.0,90.0,8.0,0.0
4556,71.0,0.0,90.0,4.0,0.0
4557,32.0,0.0,90.0,11.0,0.0
4558,61.0,4.0,90.0,4.0,0.0
4559,73.0,6.0,90.0,4.0,0.0
4560,47.0,2.0,90.0,8.0,0.0
4561,51.0,80.0,90.0,8.0,0.0
4562,44.0,2.0,90.0,10.0,0.0
4563,51.0,6.0,90.0,3.0,0.0
4564,44.0,8.0,60.0,10.0,0.0
4565,51.0,4.0,90.0,8.0,0.0
4566,47.0,2.0,90.0,8.0,0.0
4567,68.0,10.0,60.0,1.0,0.0
4568,71.0,2.0,60.0,1.0,0.0
4569,56.0,4.0,60.0,5.0,0.0
4570,47.0,0.0,60.0,3.0,0.0
4571,63.0,12.0,120.0,2.0,0.0
4572,68.0,0.0,60.0,6.0,0.0
4573,59.0,14.0,90.0,2.0,0.0
4574,75.0,0.0,90.0,4.0,0.0
4575,63.0,2.0,90.0,4.0,0.0
4576,44.0,6.0,60.0,7.0,0.0
4577,56.0,0.0,60.0,6.0,0.0
4578,80.0,80.0,120.0,0.0,0.0
4579,75.0,0.0,90.0,0.0,0.0
4580,32.0,0.0,60.0,11.0,0.0
4581,44.0,2.0,60.0,5.0,0.0
4582,32.0,0.0,90.0,11.0,0.0
4583,74.0,2.0,90.0,4.0,0.0
4584,62.0,0.0,90.0,4.0,0.0
4585,44.0,2.0,90.0,10.0,0.0
4586,51.0,108.0,90.0,8.0,0.0
4587,47.0,8.0,90.0,8.0,0.0
4588,51.0,6.0,90.0,8.0,0.0
4589,44.0,0.0,90.0,10.0,0.0
4590,32.0,0.0,90.0,11.0,0.0
4591,64.0,110.0,90.0,4.0,0.0
4592,76.0,2.0,90.0,4.0,0.0
4593,47.0,2.0,90.0,8.0,0.0
4594,63.0,0.0,90.0,4.0,0.0
4595,32.0,2.0,90.0,11.0,0.0
4596,51.0,106.0,90.0,8.0,0.0
4597,44.0,0.0,90.0,10.0,0.0
4598,75.0,6.0,90.0,4.0,0.0
4599,47.0,0.0,90.0,8.0,0.0
4600,51.0,2.0,90.0,8.0,0.0
4601,47.0,8.0,90.0,8.0,0.0
4602,32.0,8.0,90.0,11.0,0.0
4603,61.0,100.0,90.0,4.0,0.0
4604,44.0,0.0,90.0,10.0,0.0
4605,73.0,0.0,90.0,4.0,0.0
4606,59.0,0.0,90.0,4.0,0.0
4607,71.0,2.0,90.0,4.0,0.0
4608,47.0,6.0,60.0,8.0,0.0
4609,32.0,0.0,90.0,11.0,0.0
4610,44.0,4.0,90.0,10.0,0.0
4611,51.0,108.0,90.0,8.0,0.0
4612,51.0,114.0,90.0,8.0,0.0
4613,58.0,4.0,90.0,4.0,0.0
4614,47.0,2.0,60.0,8.0,0.0
4615,44.0,4.0,90.0,10.0,0.0
4616,70.0,2.0,90.0,4.0,0.0
4617,32.0,0.0,90.0,11.0,0.0
4618,44.0,0.0,90.0,10.0,0.0
4619,51.0,4.0,90.0,8.0,0.0
4620,47.0,2.0,90.0,8.0,0.0
4621,32.0,0.0,90.0,11.0,0.0
4622,68.0,0.0,90.0,4.0,0.0
4623,56.0,108.0,90.0,4.0,0.0
4624,64.0,4.0,2010.0,2.0,0.0
4625,61.0,6.0,1980.0,2.0,0.0
4626,73.0,2.0,2010.0,1.0,0.0
4627,70.0,102.0,2010.0,1.0,0.0
4628,70.0,6.0,90.0,4.0,0.0
4629,52.0,104.0,90.0,8.0,0.0
4630,58.0,8.0,60.0,4.0,0.0
4631,82.0,2.0,1980.0,0.0,0.0
4632,76.0,14.0,1950.0,0.0,0.0
4633,49.0,6.0,1980.0,3.0,0.0
4634,52.0,12.0,1980.0,3.0,0.0
4635,49.0,0.0,90.0,8.0,0.0
4636,30.0,2.0,90.0,11.0,0.0
4637,42.0,0.0,90.0,10.0,0.0
4638,68.0,2.0,90.0,4.0,0.0
4639,49.0,102.0,90.0,8.0,0.0
4640,56.0,8.0,90.0,4.0,0.0
4641,52.0,8.0,60.0,8.0,0.0
4642,42.0,0.0,90.0,10.0,0.0
4643,30.0,2.0,90.0,11.0,0.0
4644,54.0,6.0,90.0,4.0,0.0
4645,49.0,110.0,90.0,8.0,0.0
4646,42.0,2.0,90.0,10.0,0.0
4647,52.0,0.0,90.0,8.0,0.0
4648,30.0,0.0,90.0,11.0,0.0
4649,66.0,6.0,90.0,4.0,0.0
4650,53.0,106.0,90.0,4.0,0.0
4651,65.0,2.0,90.0,4.0,0.0
4652,30.0,0.0,90.0,11.0,0.0
4653,42.0,4.0,90.0,10.0,0.0
4654,49.0,4.0,90.0,8.0,0.0
4655,52.0,0.0,90.0,8.0,0.0
4656,30.0,4.0,90.0,11.0,0.0
4657,54.0,4.0,90.0,4.0,0.0
4658,66.0,10.0,90.0,4.0,0.0
4659,52.0,0.0,90.0,8.0,0.0
4660,49.0,98.0,90.0,8.0,0.0
4661,42.0,0.0,90.0,10.0,0.0
4662,42.0,0.0,90.0,10.0,0.0
4663,56.0,8.0,60.0,4.0,0.0
4664,68.0,2.0,90.0,4.0,0.0
4665,52.0,0.0,90.0,8.0,0.0
4666,30.0,4.0,90.0,11.0,0.0
4667,49.0,100.0,90.0,8.0,0.0
4668,52.0,2.0,90.0,8.0,0.0
4669,49.0,104.0,90.0,8.0,0.0
4670,42.0,0.0,60.0,10.0,0.0
4671,58.0,8.0,60.0,4.0,0.0
4672,70.0,8.0,90.0,4.0,0.0
4673,30.0,8.0,60.0,11.0,0.0
4674,52.0,2.0,90.0,8.0,0.0
4675,49.0,110.0,90.0,8.0,0.0
4676,42.0,6.0,90.0,10.0,0.0
4677,59.0,0.0,90.0,4.0,0.0
4678,71.0,2.0,90.0,4.0,0.0
4679,30.0,0.0,90.0,11.0,0.0
4680,42.0,0.0,90.0,10.0,0.0
4681,61.0,0.0,90.0,4.0,0.0
4682,73.0,2.0,90.0,4.0,0.0
4683,30.0,8.0,90.0,11.0,0.0
4684,52.0,4.0,90.0,8.0,0.0
4685,49.0,104.0,90.0,8.0,0.0
4686,71.0,2.0,90.0,4.0,0.0
4687,59.0,4.0,90.0,4.0,0.0
4688,30.0,6.0,60.0,11.0,0.0
4689,52.0,106.0,90.0,8.0,0.0
4690,42.0,0.0,60.0,10.0,0.0
4691,49.0,0.0,90.0,8.0,0.0
4692,42.0,12.0,60.0,10.0,0.0
4693,30.0,0.0,60.0,11.0,0.0
4694,58.0,6.0,90.0,4.0,0.0
4695,70.0,0.0,90.0,4.0,0.0
4696,52.0,0.0,90.0,8.0,0.0
4697,49.0,104.0,90.0,8.0,0.0
4698,30.0,2.0,60.0,11.0,0.0
4699,52.0,110.0,90.0,8.0,0.0
4700,49.0,0.0,90.0,8.0,0.0
4701,68.0,6.0,90.0,4.0,0.0
4702,42.0,0.0,60.0,10.0,0.0
4703,56.0,8.0,90.0,4.0,0.0
4704,70.0,2.0,90.0,4.0,0.0
4705,52.0,0.0,90.0,8.0,0.0
4706,42.0,4.0,90.0,10.0,0.0
4707,58.0,0.0,90.0,4.0,0.0
4708,30.0,0.0,90.0,11.0,0.0
4709,49.0,114.0,90.0,8.0,0.0
4710,59.0,100.0,90.0,4.0,0.0
4711,71.0,0.0,90.0,4.0,0.0
4712,30.0,0.0,90.0,11.0,0.0
4713,52.0,2.0,90.0,8.0,0.0
4714,49.0,2.0,90.0,8.0,0.0
4715,42.0,2.0,90.0,10.0,0.0
4716,42.0,0.0,60.0,10.0,0.0
4717,49.0,18.0,90.0,8.0,0.0
4718,30.0,16.0,60.0,11.0,0.0
4719,61.0,88.0,90.0,4.0,0.0
4720,52.0,2.0,90.0,8.0,0.0
4721,73.0,0.0,90.0,4.0,0.0
4722,30.0,0.0,60.0,11.0,0.0
4723,52.0,2.0,90.0,8.0,0.0
4724,49.0,0.0,90.0,8.0,0.0
4725,42.0,14.0,60.0,10.0,0.0
4726,75.0,0.0,90.0,4.0,0.0
4727,63.0,66.0,90.0,4.0,0.0
4728,76.0,2.0,90.0,4.0,0.0
4729,49.0,4.0,90.0,8.0,0.0
4730,52.0,0.0,90.0,8.0,0.0
4731,42.0,0.0,60.0,10.0,0.0
4732,30.0,8.0,60.0,11.0,0.0
4733,64.0,2.0,90.0,4.0,0.0
4734,30.0,8.0,90.0,11.0,0.0
4735,42.0,0.0,90.0,10.0,0.0
4736,78.0,2.0,90.0,4.0,0.0
4737,66.0,0.0,90.0,4.0,0.0
4738,52.0,114.0,90.0,8.0,0.0
4739,49.0,0.0,90.0,8.0,0.0
4740,68.0,0.0,90.0,4.0,0.0
4741,80.0,0.0,90.0,4.0,0.0
4742,30.0,0.0,90.0,11.0,0.0
4743,49.0,2.0,90.0,8.0,0.0
4744,52.0,114.0,90.0,8.0,0.0
4745,42.0,4.0,90.0,10.0,0.0
4746,66.0,0.0,90.0,4.0,0.0
4747,78.0,0.0,90.0,4.0,0.0
4748,42.0,4.0,90.0,10.0,0.0
4749,52.0,94.0,90.0,8.0,0.0
4750,30.0,0.0,90.0,11.0,0.0
4751,49.0,2.0,90.0,8.0,0.0
4752,76.0,2.0,90.0,4.0,0.0
4753,30.0,0.0,60.0,11.0,0.0
4754,64.0,4.0,90.0,2.0,0.0
4755,61.0,4.0,90.0,2.0,0.0
4756,82.0,0.0,90.0,0.0,0.0
4757,76.0,0.0,90.0,0.0,0.0
4758,64.0,100.0,90.0,4.0,0.0
4759,42.0,4.0,60.0,10.0,0.0
4760,52.0,4.0,90.0,8.0,0.0
4761,49.0,4.0,90.0,8.0,0.0
4762,73.0,6.0,60.0,1.0,0.0
4763,70.0,0.0,60.0,1.0,0.0
4764,52.0,2.0,60.0,3.0,0.0
4765,49.0,4.0,60.0,3.0,0.0
4766,63.0,108.0,90.0,4.0,0.0
4767,75.0,2.0,90.0,4.0,0.0
4768,30.0,6.0,60.0,11.0,0.0
4769,42.0,0.0,60.0,10.0,0.0
4770,52.0,0.0,90.0,8.0,0.0
4771,49.0,4.0,90.0,8.0,0.0
4772,30.0,0.0,60.0,11.0,0.0
4773,42.0,10.0,60.0,10.0,0.0
4774,49.0,2.0,90.0,8.0,0.0
4775,73.0,0.0,90.0,4.0,0.0
4776,61.0,108.0,90.0,4.0,0.0
4777,52.0,8.0,90.0,8.0,0.0
4778,71.0,0.0,90.0,4.0,0.0
4779,42.0,2.0,90.0,10.0,0.0
4780,49.0,96.0,90.0,8.0,0.0
4781,30.0,0.0,90.0,11.0,0.0
4782,59.0,0.0,90.0,4.0,0.0
4783,52.0,0.0,90.0,8.0,0.0
4784,52.0,2.0,90.0,8.0,0.0
4785,70.0,2.0,90.0,4.0,0.0
4786,49.0,6.0,60.0,3.0,0.0
4787,52.0,0.0,90.0,3.0,0.0
4788,73.0,0.0,60.0,1.0,0.0
4789,82.0,4.0,90.0,0.0,0.0
4790,76.0,4.0,90.0,0.0,0.0
4791,49.0,0.0,90.0,8.0,0.0
4792,58.0,104.0,90.0,4.0,0.0
4793,42.0,0.0,90.0,10.0,0.0
4794,30.0,0.0,90.0,11.0,0.0
4795,64.0,0.0,90.0,2.0,0.0
4796,61.0,8.0,60.0,2.0,0.0
4797,70.0,6.0,60.0,1.0,0.0
4798,71.0,112.0,90.0,4.0,0.0
4799,59.0,4.0,90.0,4.0,0.0
4800,52.0,0.0,90.0,8.0,0.0
4801,49.0,0.0,90.0,8.0,0.0
4802,42.0,4.0,90.0,10.0,0.0
4803,30.0,0.0,90.0,11.0,0.0
4804,42.0,4.0,90.0,10.0,0.0
4805,49.0,2.0,90.0,8.0,0.0
4806,30.0,0.0,90.0,11.0,0.0
4807,52.0,0.0,90.0,8.0,0.0
4808,73.0,112.0,90.0,4.0,0.0
4809,61.0,2.0,90.0,4.0,0.0
4810,49.0,0.0,90.0,8.0,0.0
4811,52.0,2.0,90.0,8.0,0.0
4812,30.0,4.0,90.0,11.0,0.0
4813,42.0,0.0,90.0,10.0,0.0
4814,59.0,2.0,90.0,4.0,0.0
4815,71.0,112.0,90.0,4.0,0.0
4816,30.0,8.0,90.0,11.0,0.0
4817,58.0,4.0,90.0,4.0,0.0
4818,52.0,0.0,90.0,8.0,0.0
4819,49.0,90.0,90.0,8.0,0.0
4820,70.0,2.0,90.0,4.0,0.0
4821,42.0,0.0,90.0,10.0,0.0
4822,49.0,2.0,90.0,8.0,0.0
4823,56.0,24.0,60.0,4.0,0.0
4824,42.0,114.0,90.0,10.0,0.0
4825,68.0,0.0,90.0,4.0,0.0
4826,30.0,0.0,90.0,11.0,0.0
4827,52.0,0.0,90.0,8.0,0.0
4828,49.0,2.0,90.0,8.0,0.0
4829,42.0,0.0,90.0,10.0,0.0
4830,30.0,0.0,90.0,11.0,0.0
4831,54.0,0.0,90.0,4.0,0.0
4832,66.0,112.0,90.0,4.0,0.0
4833,52.0,2.0,90.0,8.0,0.0
4834,52.0,4.0,90.0,4.0,0.0
4835,64.0,6.0,90.0,4.0,0.0
4836,30.0,8.0,90.0,11.0,0.0
4837,42.0,0.0,90.0,10.0,0.0
4838,49.0,2.0,90.0,8.0,0.0
4839,52.0,58.0,90.0,8.0,0.0
4840,59.0,4.0,60.0,2.0,0.0
4841,51.0,0.0,60.0,3.0,0.0
4842,47.0,6.0,60.0,3.0,0.0
4843,47.0,8.0,150.0,8.0,0.0
4844,51.0,400.0,150.0,8.0,0.0
4845,83.0,2.0,60.0,0.0,0.0
4846,71.0,12.0,30.0,1.0,0.0
4847,47.0,10.0,90.0,10.0,0.0
4848,63.0,12.0,90.0,4.0,0.0
4849,51.0,38.0,120.0,4.0,0.0
4850,75.0,10.0,60.0,1.0,0.0
4851,35.0,0.0,90.0,11.0,0.0
4852,75.0,4.0,60.0,0.0,0.0
4853,63.0,12.0,60.0,2.0,0.0
4854,66.0,0.0,300.0,1.0,0.0
4855,75.0,74.0,300.0,1.0,0.0
4856,59.0,138.0,390.0,3.0,0.0
4857,66.0,12.0,30.0,1.0,0.0
4858,74.0,6.0,60.0,1.0,0.0
4859,58.0,228.0,60.0,3.0,0.0
4860,75.0,8.0,60.0,1.0,0.0
4861,66.0,6.0,60.0,1.0,0.0
4862,59.0,228.0,60.0,3.0,0.0
4863,54.0,4.0,180.0,4.0,0.0
4864,73.0,2.0,60.0,1.0,0.0
4865,58.0,122.0,60.0,3.0,0.0
4866,56.0,108.0,180.0,4.0,0.0
4867,66.0,2.0,60.0,1.0,0.0
4868,58.0,2.0,180.0,4.0,0.0
4869,71.0,20.0,60.0,1.0,0.0
4870,66.0,0.0,60.0,1.0,0.0
4871,56.0,94.0,60.0,3.0,0.0
4872,59.0,116.0,180.0,4.0,0.0
4873,61.0,16.0,180.0,4.0,0.0
4874,63.0,110.0,150.0,4.0,0.0
4875,61.0,4.0,30.0,3.0,0.0
4876,49.0,0.0,90.0,10.0,0.0
4877,37.0,80.0,90.0,11.0,0.0
4878,63.0,0.0,60.0,3.0,0.0
4879,65.0,18.0,60.0,1.0,0.0
4880,71.0,0.0,60.0,1.0,0.0
4881,59.0,32.0,150.0,4.0,0.0
4882,66.0,10.0,30.0,1.0,0.0
4883,70.0,0.0,30.0,1.0,0.0
4884,42.0,0.0,60.0,10.0,0.0
4885,54.0,2.0,60.0,3.0,0.0
4886,58.0,466.0,90.0,4.0,0.0
4887,30.0,16.0,60.0,11.0,0.0
4888,49.0,8.0,330.0,8.0,0.0
4889,54.0,12.0,390.0,10.0,0.0
4890,57.0,16.0,330.0,8.0,0.0
4891,81.0,12.0,330.0,0.0,0.0
4892,73.0,0.0,330.0,0.0,0.0
4893,69.0,136.0,390.0,4.0,0.0
4894,42.0,0.0,390.0,11.0,0.0
4895,61.0,24.0,360.0,2.0,0.0
4896,69.0,8.0,390.0,2.0,0.0
4897,73.0,10.0,60.0,0.0,0.0
4898,49.0,0.0,60.0,8.0,0.0
4899,56.0,0.0,60.0,8.0,0.0
4900,68.0,204.0,90.0,4.0,0.0
4901,41.0,0.0,60.0,11.0,0.0
4902,80.0,0.0,60.0,0.0,0.0
4903,68.0,8.0,60.0,2.0,0.0
4904,61.0,2.0,60.0,2.0,0.0
4905,53.0,10.0,60.0,10.0,0.0
4906,69.0,2.0,60.0,4.0,0.0
4907,81.0,8.0,60.0,0.0,0.0
4908,73.0,4.0,60.0,0.0,0.0
4909,57.0,10.0,60.0,8.0,0.0
4910,42.0,0.0,90.0,11.0,0.0
4911,69.0,6.0,60.0,2.0,0.0
4912,61.0,6.0,60.0,2.0,0.0
4913,54.0,178.0,90.0,10.0,0.0
4914,49.0,2.0,60.0,8.0,0.0
4915,61.0,28.0,150.0,4.0,0.0
4916,73.0,8.0,60.0,0.0,0.0
4917,80.0,2.0,60.0,0.0,0.0
4918,52.0,60.0,90.0,10.0,0.0
4919,61.0,2.0,60.0,2.0,0.0
4920,40.0,0.0,90.0,11.0,0.0
4921,56.0,10.0,60.0,8.0,0.0
4922,49.0,0.0,60.0,8.0,0.0
4923,63.0,120.0,150.0,4.0,0.0
4924,68.0,2.0,60.0,4.0,0.0
4925,68.0,8.0,60.0,2.0,0.0
4926,64.0,28.0,150.0,4.0,0.0
4927,78.0,6.0,60.0,0.0,0.0
4928,66.0,8.0,60.0,2.0,0.0
4929,39.0,0.0,90.0,11.0,0.0
4930,49.0,2.0,60.0,8.0,0.0
4931,66.0,2.0,60.0,4.0,0.0
4932,61.0,0.0,60.0,2.0,0.0
4933,51.0,186.0,90.0,10.0,0.0
4934,54.0,2.0,60.0,8.0,0.0
4935,73.0,6.0,60.0,0.0,0.0
4936,68.0,30.0,150.0,4.0,0.0
4937,72.0,2.0,60.0,0.0,0.0
4938,44.0,4.0,90.0,11.0,0.0
4939,56.0,0.0,90.0,10.0,0.0
4940,60.0,6.0,60.0,2.0,0.0
4941,78.0,4.0,60.0,0.0,0.0
4942,66.0,10.0,60.0,2.0,0.0
4943,48.0,42.0,90.0,8.0,0.0
4944,54.0,16.0,90.0,8.0,0.0
4945,69.0,120.0,150.0,4.0,0.0
4946,66.0,6.0,60.0,4.0,0.0
4947,66.0,28.0,150.0,4.0,0.0
4948,49.0,2.0,90.0,10.0,0.0
4949,73.0,24.0,60.0,0.0,0.0
4950,37.0,0.0,90.0,11.0,0.0
4951,76.0,10.0,60.0,0.0,0.0
4952,49.0,0.0,90.0,8.0,0.0
4953,52.0,0.0,90.0,8.0,0.0
4954,64.0,0.0,90.0,2.0,0.0
4955,61.0,10.0,90.0,2.0,0.0
4956,64.0,464.0,90.0,4.0,0.0
4957,76.0,22.0,330.0,1.0,0.0
4958,68.0,20.0,330.0,1.0,0.0
4959,61.0,168.0,360.0,3.0,0.0
4960,60.0,212.0,60.0,3.0,0.0
4961,68.0,14.0,60.0,1.0,0.0
4962,75.0,6.0,60.0,1.0,0.0
4963,61.0,220.0,60.0,3.0,0.0
4964,68.0,12.0,30.0,1.0,0.0
4965,76.0,16.0,60.0,1.0,0.0
4966,56.0,14.0,180.0,4.0,0.0
4967,68.0,6.0,60.0,1.0,0.0
4968,59.0,88.0,60.0,3.0,0.0
4969,58.0,132.0,150.0,4.0,0.0
4970,75.0,4.0,60.0,1.0,0.0
4971,59.0,20.0,180.0,4.0,0.0
4972,61.0,108.0,180.0,4.0,0.0
4973,68.0,2.0,60.0,1.0,0.0
4974,73.0,4.0,60.0,1.0,0.0
4975,58.0,104.0,90.0,3.0,0.0
4976,63.0,2.0,180.0,4.0,0.0
4977,73.0,8.0,60.0,1.0,0.0
4978,63.0,20.0,60.0,3.0,0.0
4979,51.0,50.0,90.0,8.0,0.0
4980,27.0,0.0,90.0,11.0,0.0
4981,64.0,136.0,150.0,4.0,0.0
4982,67.0,2.0,60.0,1.0,0.0
4983,39.0,6.0,90.0,10.0,0.0
4984,61.0,18.0,150.0,4.0,0.0
4985,44.0,0.0,60.0,10.0,0.0
4986,71.0,2.0,60.0,1.0,0.0
4987,68.0,10.0,60.0,1.0,0.0
4988,32.0,2.0,60.0,11.0,0.0
4989,56.0,116.0,60.0,8.0,0.0
4990,59.0,130.0,180.0,4.0,0.0
4991,56.0,6.0,60.0,3.0,0.0
4992,56.0,0.0,360.0,3.0,0.0
4993,59.0,4.0,360.0,3.0,0.0
4994,56.0,274.0,90.0,8.0,0.0
4995,83.0,10.0,360.0,0.0,0.0
4996,75.0,12.0,360.0,0.0,0.0
4997,71.0,24.0,390.0,2.0,0.0
4998,44.0,126.0,420.0,11.0,0.0
4999,63.0,2.0,360.0,2.0,0.0
5000,56.0,0.0,420.0,10.0,0.0
5001,55.0,0.0,60.0,10.0,0.0
5002,75.0,0.0,60.0,0.0,0.0
5003,55.0,216.0,60.0,8.0,0.0
5004,63.0,4.0,60.0,2.0,0.0
5005,58.0,8.0,60.0,3.0,0.0
5006,55.0,0.0,60.0,3.0,0.0
5007,70.0,2.0,60.0,2.0,0.0
5008,82.0,0.0,60.0,0.0,0.0
5009,43.0,8.0,60.0,11.0,0.0
5010,56.0,0.0,60.0,10.0,0.0
5011,59.0,4.0,60.0,3.0,0.0
5012,83.0,4.0,60.0,0.0,0.0
5013,56.0,2.0,60.0,3.0,0.0
5014,75.0,6.0,60.0,0.0,0.0
5015,44.0,10.0,60.0,11.0,0.0
5016,63.0,2.0,60.0,2.0,0.0
5017,56.0,182.0,90.0,8.0,0.0
5018,71.0,2.0,60.0,2.0,0.0
5019,67.0,28.0,150.0,4.0,0.0
5020,54.0,68.0,60.0,8.0,0.0
5021,54.0,0.0,60.0,3.0,0.0
5022,68.0,120.0,150.0,4.0,0.0
5023,42.0,0.0,60.0,11.0,0.0
5024,58.0,4.0,60.0,3.0,0.0
5025,54.0,2.0,60.0,10.0,0.0
5026,75.0,2.0,60.0,0.0,0.0
5027,82.0,12.0,60.0,0.0,0.0
5028,63.0,2.0,60.0,2.0,0.0
5029,70.0,2.0,60.0,2.0,0.0
5030,70.0,28.0,150.0,4.0,0.0
5031,53.0,62.0,90.0,8.0,0.0
5032,68.0,10.0,60.0,2.0,0.0
5033,63.0,0.0,60.0,2.0,0.0
5034,75.0,2.0,60.0,0.0,0.0
5035,53.0,8.0,60.0,10.0,0.0
5036,32.0,6.0,300.0,5.0,0.0
5037,44.0,2.0,300.0,5.0,0.0
5038,53.0,6.0,60.0,3.0,0.0
5039,71.0,120.0,150.0,4.0,0.0
5040,56.0,2.0,60.0,3.0,0.0
5041,80.0,2.0,60.0,0.0,0.0
5042,41.0,0.0,60.0,11.0,0.0
5043,72.0,22.0,150.0,4.0,0.0
5044,52.0,0.0,60.0,10.0,0.0
5045,40.0,2.0,60.0,11.0,0.0
5046,68.0,0.0,60.0,2.0,0.0
5047,62.0,10.0,30.0,2.0,0.0
5048,52.0,72.0,60.0,8.0,0.0
5049,73.0,120.0,150.0,4.0,0.0
5050,52.0,0.0,60.0,3.0,0.0
5051,74.0,0.0,30.0,0.0,0.0
5052,56.0,4.0,60.0,3.0,0.0
5053,80.0,2.0,60.0,0.0,0.0
5054,74.0,28.0,150.0,4.0,0.0
5055,75.0,54.0,150.0,4.0,0.0
5056,63.0,4.0,60.0,2.0,0.0
5057,51.0,0.0,60.0,5.0,0.0
5058,51.0,10.0,120.0,3.0,0.0
5059,55.0,22.0,120.0,3.0,0.0
5060,79.0,30.0,60.0,0.0,0.0
5061,75.0,6.0,60.0,0.0,0.0
5062,27.0,0.0,120.0,11.0,0.0
5063,51.0,14.0,90.0,8.0,0.0
5064,67.0,0.0,60.0,2.0,0.0
5065,39.0,2.0,60.0,5.0,0.0
5066,39.0,4.0,120.0,10.0,0.0
5067,39.0,0.0,90.0,11.0,0.0
5068,51.0,116.0,90.0,10.0,0.0
5069,51.0,0.0,90.0,10.0,0.0
5070,58.0,4.0,60.0,4.0,0.0
5071,39.0,116.0,90.0,11.0,0.0
5072,61.0,46.0,390.0,4.0,0.0
5073,56.0,4.0,60.0,4.0,0.0
5074,39.0,116.0,90.0,11.0,0.0
5075,51.0,0.0,90.0,10.0,0.0
5076,51.0,0.0,90.0,10.0,0.0
5077,55.0,10.0,60.0,4.0,0.0
5078,39.0,62.0,90.0,11.0,0.0
5079,51.0,2.0,60.0,4.0,0.0
5080,51.0,0.0,60.0,10.0,0.0
5081,39.0,114.0,60.0,11.0,0.0
5082,61.0,110.0,90.0,4.0,0.0
5083,51.0,0.0,60.0,10.0,0.0
5084,39.0,10.0,60.0,11.0,0.0
5085,53.0,8.0,90.0,4.0,0.0
5086,55.0,20.0,60.0,4.0,0.0
5087,51.0,102.0,90.0,10.0,0.0
5088,39.0,0.0,90.0,11.0,0.0
5089,27.0,80.0,120.0,11.0,0.0
5090,39.0,0.0,120.0,10.0,0.0
5091,56.0,8.0,90.0,4.0,0.0
5092,59.0,30.0,90.0,4.0,0.0
5093,39.0,116.0,90.0,11.0,0.0
5094,55.0,2.0,60.0,4.0,0.0
5095,51.0,0.0,90.0,10.0,0.0
5096,68.0,50.0,390.0,4.0,0.0
5097,56.0,4.0,60.0,4.0,0.0
5098,44.0,94.0,90.0,8.0,0.0
5099,39.0,24.0,90.0,11.0,0.0
5100,51.0,0.0,90.0,10.0,0.0
5101,51.0,2.0,90.0,10.0,0.0
5102,46.0,108.0,90.0,8.0,0.0
5103,58.0,6.0,60.0,4.0,0.0
5104,39.0,0.0,90.0,11.0,0.0
5105,47.0,58.0,90.0,8.0,0.0
5106,39.0,10.0,90.0,11.0,0.0
5107,59.0,6.0,60.0,4.0,0.0
5108,51.0,0.0,90.0,10.0,0.0
5109,58.0,0.0,60.0,4.0,0.0
5110,46.0,100.0,90.0,8.0,0.0
5111,51.0,12.0,60.0,10.0,0.0
5112,39.0,0.0,60.0,11.0,0.0
5113,47.0,2.0,90.0,8.0,0.0
5114,68.0,110.0,90.0,4.0,0.0
5115,59.0,14.0,60.0,4.0,0.0
5116,51.0,2.0,90.0,10.0,0.0
5117,39.0,0.0,90.0,11.0,0.0
5118,49.0,0.0,60.0,8.0,0.0
5119,51.0,102.0,90.0,10.0,0.0
5120,39.0,0.0,90.0,11.0,0.0
5121,62.0,10.0,60.0,4.0,0.0
5122,67.0,0.0,90.0,4.0,0.0
5123,39.0,0.0,90.0,7.0,0.0
5124,27.0,0.0,90.0,11.0,0.0
5125,51.0,0.0,1980.0,5.0,0.0
5126,63.0,4.0,1980.0,5.0,0.0
5127,63.0,0.0,90.0,6.0,0.0
5128,51.0,10.0,90.0,8.0,0.0
5129,39.0,0.0,90.0,10.0,0.0
5130,51.0,92.0,90.0,6.0,0.0
5131,63.0,18.0,60.0,4.0,0.0
5132,50.0,118.0,90.0,8.0,0.0
5133,51.0,0.0,90.0,10.0,0.0
5134,62.0,10.0,60.0,4.0,0.0
5135,39.0,0.0,90.0,11.0,0.0
5136,51.0,0.0,60.0,10.0,0.0
5137,79.0,12.0,420.0,0.0,0.0
5138,58.0,6.0,420.0,3.0,0.0
5139,73.0,20.0,390.0,4.0,0.0
5140,63.0,6.0,90.0,4.0,0.0
5141,61.0,0.0,420.0,3.0,0.0
5142,73.0,2.0,420.0,1.0,0.0
5143,51.0,100.0,90.0,8.0,0.0
5144,39.0,10.0,60.0,11.0,0.0
5145,67.0,12.0,390.0,1.0,0.0
5146,51.0,2.0,90.0,10.0,0.0
5147,53.0,110.0,90.0,8.0,0.0
5148,39.0,0.0,90.0,11.0,0.0
5149,65.0,10.0,60.0,4.0,0.0
5150,51.0,2.0,60.0,10.0,0.0
5151,39.0,0.0,60.0,11.0,0.0
5152,67.0,2.0,60.0,4.0,0.0
5153,55.0,68.0,90.0,8.0,0.0
5154,51.0,0.0,90.0,10.0,0.0
5155,51.0,80.0,90.0,8.0,0.0
5156,39.0,8.0,90.0,11.0,0.0
5157,63.0,6.0,90.0,4.0,0.0
5158,51.0,8.0,90.0,10.0,0.0
5159,73.0,0.0,60.0,1.0,0.0
5160,67.0,14.0,60.0,1.0,0.0
5161,65.0,2.0,60.0,4.0,0.0
5162,73.0,110.0,90.0,4.0,0.0
5163,39.0,0.0,90.0,11.0,0.0
5164,79.0,2.0,60.0,0.0,0.0
5165,61.0,2.0,60.0,3.0,0.0
5166,58.0,4.0,60.0,3.0,0.0
5167,53.0,2.0,60.0,8.0,0.0
5168,55.0,0.0,90.0,8.0,0.0
5169,51.0,0.0,90.0,10.0,0.0
5170,67.0,6.0,60.0,4.0,0.0
5171,39.0,92.0,90.0,11.0,0.0
5172,68.0,2.0,60.0,1.0,0.0
5173,68.0,4.0,60.0,4.0,0.0
5174,63.0,100.0,90.0,6.0,0.0
5175,51.0,0.0,90.0,6.0,0.0
5176,71.0,8.0,60.0,1.0,0.0
5177,80.0,8.0,60.0,0.0,0.0
5178,59.0,4.0,60.0,3.0,0.0
5179,71.0,2.0,90.0,4.0,0.0
5180,39.0,0.0,90.0,10.0,0.0
5181,56.0,4.0,90.0,8.0,0.0
5182,39.0,0.0,90.0,7.0,0.0
5183,56.0,2.0,60.0,3.0,0.0
5184,27.0,10.0,90.0,11.0,0.0
5185,55.0,96.0,90.0,8.0,0.0
5186,51.0,0.0,90.0,10.0,0.0
5187,39.0,8.0,90.0,11.0,0.0
5188,67.0,6.0,90.0,4.0,0.0
5189,80.0,6.0,390.0,0.0,0.0
5190,39.0,4.0,60.0,11.0,0.0
5191,56.0,4.0,390.0,3.0,0.0
5192,71.0,16.0,360.0,1.0,0.0
5193,68.0,6.0,360.0,2.0,0.0
5194,80.0,6.0,390.0,1.0,0.0
5195,80.0,12.0,390.0,4.0,0.0
5196,68.0,4.0,60.0,4.0,0.0
5197,56.0,112.0,60.0,8.0,0.0
5198,71.0,2.0,390.0,2.0,0.0
5199,59.0,4.0,420.0,3.0,0.0
5200,83.0,24.0,420.0,0.0,0.0
5201,51.0,0.0,60.0,10.0,0.0
5202,58.0,4.0,60.0,8.0,0.0
5203,39.0,110.0,90.0,11.0,0.0
5204,70.0,6.0,60.0,4.0,0.0
5205,51.0,0.0,90.0,10.0,0.0
5206,59.0,10.0,60.0,8.0,0.0
5207,71.0,8.0,60.0,4.0,0.0
5208,51.0,30.0,90.0,10.0,0.0
5209,39.0,0.0,90.0,11.0,0.0
5210,51.0,100.0,90.0,10.0,0.0
5211,58.0,2.0,90.0,8.0,0.0
5212,39.0,0.0,90.0,11.0,0.0
5213,70.0,6.0,60.0,4.0,0.0
5214,83.0,2.0,60.0,0.0,0.0
5215,80.0,0.0,90.0,0.0,0.0
5216,59.0,4.0,60.0,3.0,0.0
5217,80.0,110.0,90.0,4.0,0.0
5218,56.0,0.0,60.0,3.0,0.0
5219,71.0,2.0,60.0,1.0,0.0
5220,80.0,4.0,90.0,1.0,0.0
5221,71.0,2.0,90.0,2.0,0.0
5222,68.0,6.0,60.0,2.0,0.0
5223,39.0,0.0,90.0,11.0,0.0
5224,51.0,2.0,90.0,10.0,0.0
5225,71.0,0.0,90.0,4.0,0.0
5226,59.0,0.0,90.0,8.0,0.0
5227,51.0,0.0,90.0,10.0,0.0
5228,62.0,0.0,90.0,8.0,0.0
5229,74.0,10.0,60.0,4.0,0.0
5230,39.0,88.0,90.0,11.0,0.0
5231,63.0,6.0,90.0,8.0,0.0
5232,55.0,0.0,60.0,3.0,0.0
5233,39.0,0.0,90.0,7.0,0.0
5234,67.0,0.0,60.0,2.0,0.0
5235,70.0,4.0,60.0,2.0,0.0
5236,75.0,8.0,90.0,4.0,0.0
5237,82.0,4.0,60.0,0.0,0.0
5238,79.0,2.0,60.0,0.0,0.0
5239,51.0,28.0,90.0,6.0,0.0
5240,70.0,4.0,60.0,1.0,0.0
5241,79.0,0.0,90.0,1.0,0.0
5242,51.0,0.0,90.0,10.0,0.0
5243,63.0,0.0,90.0,6.0,0.0
5244,39.0,2.0,90.0,11.0,0.0
5245,58.0,6.0,60.0,3.0,0.0
5246,79.0,104.0,15.0,4.0,0.0
5247,75.0,16.0,90.0,4.0,0.0
5248,80.0,2.0,90.0,1.0,0.0
5249,75.0,2.0,90.0,4.0,0.0
5250,44.0,0.0,90.0,10.0,0.0
5251,56.0,8.0,30.0,5.0,0.0
5252,44.0,6.0,60.0,5.0,0.0
5253,68.0,0.0,120.0,6.0,0.0
5254,56.0,0.0,120.0,6.0,0.0
5255,71.0,10.0,60.0,1.0,0.0
5256,59.0,18.0,90.0,8.0,0.0
5257,44.0,8.0,120.0,7.0,0.0
5258,59.0,4.0,60.0,3.0,0.0
5259,83.0,2.0,60.0,0.0,0.0
5260,80.0,4.0,60.0,0.0,0.0
5261,32.0,6.0,90.0,11.0,0.0
5262,56.0,0.0,60.0,3.0,0.0
5263,71.0,4.0,60.0,2.0,0.0
5264,68.0,2.0,60.0,2.0,0.0
5265,75.0,10.0,90.0,4.0,0.0
5266,59.0,16.0,90.0,8.0,0.0
5267,80.0,94.0,15.0,4.0,0.0
5268,70.0,0.0,60.0,1.0,0.0
5269,51.0,6.0,60.0,5.0,0.0
5270,75.0,2.0,90.0,4.0,0.0
5271,82.0,2.0,60.0,0.0,0.0
5272,58.0,2.0,60.0,3.0,0.0
5273,79.0,10.0,90.0,1.0,0.0
5274,79.0,8.0,60.0,0.0,0.0
5275,51.0,0.0,90.0,6.0,0.0
5276,39.0,6.0,30.0,5.0,0.0
5277,39.0,0.0,90.0,11.0,0.0
5278,51.0,8.0,90.0,10.0,0.0
5279,67.0,0.0,60.0,2.0,0.0
5280,63.0,0.0,90.0,6.0,0.0
5281,55.0,8.0,60.0,3.0,0.0
5282,58.0,0.0,90.0,8.0,0.0
5283,39.0,20.0,90.0,7.0,0.0
5284,70.0,4.0,60.0,2.0,0.0
5285,79.0,96.0,15.0,4.0,0.0
5286,75.0,10.0,90.0,4.0,0.0
5287,58.0,14.0,120.0,8.0,0.0
5288,56.0,10.0,60.0,5.0,0.0
5289,80.0,4.0,90.0,0.0,0.0
5290,83.0,2.0,60.0,0.0,0.0
5291,32.0,10.0,90.0,11.0,0.0
5292,44.0,8.0,30.0,5.0,0.0
5293,44.0,0.0,90.0,10.0,0.0
5294,59.0,6.0,60.0,3.0,0.0
5295,75.0,2.0,90.0,4.0,0.0
5296,44.0,0.0,90.0,7.0,0.0
5297,56.0,0.0,90.0,6.0,0.0
5298,71.0,2.0,60.0,1.0,0.0
5299,71.0,4.0,90.0,2.0,0.0
5300,68.0,2.0,60.0,2.0,0.0
5301,68.0,18.0,90.0,6.0,0.0
5302,80.0,0.0,90.0,1.0,0.0
5303,56.0,2.0,60.0,3.0,0.0
5304,59.0,6.0,90.0,8.0,0.0
5305,59.0,16.0,90.0,8.0,0.0
5306,80.0,94.0,15.0,4.0,0.0
5307,75.0,10.0,90.0,4.0,0.0
5308,79.0,100.0,120.0,4.0,0.0
5309,70.0,6.0,60.0,1.0,0.0
5310,79.0,4.0,90.0,1.0,0.0
5311,75.0,24.0,90.0,4.0,0.0
5312,58.0,2.0,60.0,3.0,0.0
5313,51.0,0.0,90.0,6.0,0.0
5314,55.0,0.0,60.0,3.0,0.0
5315,39.0,8.0,60.0,5.0,0.0
5316,51.0,0.0,60.0,5.0,0.0
5317,70.0,4.0,60.0,2.0,0.0
5318,67.0,0.0,60.0,2.0,0.0
5319,39.0,8.0,90.0,11.0,0.0
5320,39.0,2.0,90.0,7.0,0.0
5321,58.0,0.0,90.0,8.0,0.0
5322,63.0,0.0,90.0,6.0,0.0
5323,79.0,10.0,60.0,0.0,0.0
5324,82.0,0.0,60.0,0.0,0.0
5325,51.0,0.0,90.0,10.0,0.0
5326,58.0,20.0,90.0,8.0,0.0
5327,75.0,0.0,90.0,4.0,0.0
5328,79.0,44.0,120.0,4.0,0.0
5329,59.0,4.0,60.0,3.0,0.0
5330,56.0,0.0,90.0,6.0,0.0
5331,80.0,0.0,90.0,1.0,0.0
5332,75.0,2.0,90.0,4.0,0.0
5333,80.0,90.0,120.0,4.0,0.0
5334,59.0,10.0,90.0,8.0,0.0
5335,71.0,0.0,60.0,1.0,0.0
5336,44.0,8.0,30.0,5.0,0.0
5337,56.0,0.0,30.0,5.0,0.0
5338,68.0,0.0,90.0,6.0,0.0
5339,44.0,14.0,90.0,10.0,0.0
5340,68.0,10.0,60.0,2.0,0.0
5341,71.0,2.0,60.0,2.0,0.0
5342,56.0,0.0,60.0,3.0,0.0
5343,44.0,18.0,90.0,7.0,0.0
5344,32.0,0.0,90.0,11.0,0.0
5345,80.0,0.0,90.0,0.0,0.0
5346,83.0,8.0,60.0,0.0,0.0
5347,59.0,6.0,90.0,8.0,0.0
5348,80.0,52.0,120.0,4.0,0.0
5349,75.0,24.0,90.0,4.0,0.0
5350,82.0,8.0,60.0,0.0,0.0
5351,55.0,0.0,60.0,3.0,0.0
5352,58.0,0.0,90.0,8.0,0.0
5353,39.0,4.0,90.0,7.0,0.0
5354,67.0,0.0,60.0,2.0,0.0
5355,70.0,6.0,60.0,2.0,0.0
5356,51.0,2.0,60.0,5.0,0.0
5357,79.0,6.0,90.0,1.0,0.0
5358,39.0,0.0,60.0,5.0,0.0
5359,39.0,4.0,90.0,11.0,0.0
5360,75.0,30.0,90.0,4.0,0.0
5361,51.0,0.0,90.0,10.0,0.0
5362,58.0,2.0,60.0,3.0,0.0
5363,63.0,0.0,90.0,6.0,0.0
5364,70.0,2.0,60.0,1.0,0.0
5365,79.0,4.0,60.0,0.0,0.0
5366,51.0,0.0,90.0,6.0,0.0
5367,79.0,92.0,15.0,4.0,0.0
5368,58.0,0.0,90.0,8.0,0.0
5369,75.0,28.0,90.0,4.0,0.0
5370,59.0,4.0,90.0,8.0,0.0
5371,44.0,2.0,30.0,5.0,0.0
5372,56.0,4.0,60.0,5.0,0.0
5373,32.0,0.0,90.0,11.0,0.0
5374,83.0,0.0,60.0,0.0,0.0
5375,80.0,6.0,60.0,0.0,0.0
5376,44.0,0.0,90.0,7.0,0.0
5377,56.0,8.0,60.0,3.0,0.0
5378,44.0,0.0,90.0,10.0,0.0
5379,68.0,4.0,60.0,2.0,0.0
5380,71.0,4.0,60.0,2.0,0.0
5381,59.0,2.0,60.0,3.0,0.0
5382,71.0,2.0,60.0,1.0,0.0
5383,80.0,4.0,90.0,1.0,0.0
5384,75.0,10.0,90.0,4.0,0.0
5385,56.0,26.0,90.0,6.0,0.0
5386,68.0,0.0,90.0,6.0,0.0
5387,59.0,28.0,90.0,8.0,0.0
5388,75.0,6.0,90.0,4.0,0.0
5389,80.0,86.0,15.0,4.0,0.0
5390,55.0,2.0,90.0,3.0,0.0
5391,58.0,4.0,90.0,3.0,0.0
5392,51.0,8.0,90.0,10.0,0.0
5393,79.0,14.0,120.0,1.0,0.0
5394,70.0,10.0,60.0,1.0,0.0
5395,39.0,0.0,60.0,5.0,0.0
5396,58.0,0.0,90.0,8.0,0.0
5397,39.0,0.0,90.0,11.0,0.0
5398,75.0,2.0,90.0,4.0,0.0
5399,39.0,0.0,90.0,7.0,0.0
5400,79.0,414.0,120.0,4.0,0.0
5401,51.0,18.0,60.0,5.0,0.0
5402,82.0,6.0,60.0,0.0,0.0
5403,79.0,2.0,90.0,0.0,0.0
5404,63.0,0.0,90.0,6.0,0.0
5405,67.0,4.0,90.0,2.0,0.0
5406,51.0,2.0,90.0,6.0,0.0
5407,70.0,2.0,90.0,2.0,0.0
5408,51.0,0.0,90.0,10.0,0.0
5409,79.0,0.0,90.0,0.0,0.0
5410,87.0,0.0,90.0,0.0,0.0
5411,58.0,360.0,180.0,4.0,0.0
5412,51.0,18.0,60.0,5.0,0.0
5413,39.0,0.0,60.0,5.0,0.0
5414,67.0,0.0,120.0,4.0,0.0
5415,51.0,0.0,90.0,6.0,0.0
5416,63.0,2.0,90.0,6.0,0.0
5417,63.0,6.0,90.0,2.0,0.0
5418,39.0,8.0,90.0,11.0,0.0
5419,51.0,12.0,90.0,3.0,0.0
5420,63.0,0.0,90.0,3.0,0.0
5421,39.0,0.0,90.0,7.0,0.0
5422,75.0,12.0,60.0,1.0,0.0
5423,51.0,10.0,150.0,4.0,0.0
5424,75.0,44.0,120.0,4.0,0.0
5425,75.0,6.0,120.0,2.0,0.0
5426,63.0,2.0,90.0,8.0,0.0
5427,39.0,0.0,90.0,10.0,0.0
5428,39.0,0.0,90.0,7.0,0.0
5429,51.0,20.0,90.0,8.0,0.0
5430,39.0,4.0,90.0,3.0,0.0
5431,51.0,902.0,120.0,4.0,0.0
5432,63.0,4.0,90.0,6.0,0.0
5433,51.0,0.0,90.0,6.0,0.0
5434,27.0,4.0,90.0,11.0,0.0
5435,75.0,2.0,90.0,0.0,0.0
5436,51.0,0.0,60.0,5.0,0.0
5437,39.0,20.0,60.0,5.0,0.0
5438,51.0,6.0,90.0,3.0,0.0
5439,63.0,0.0,90.0,2.0,0.0
5440,63.0,6.0,60.0,1.0,0.0
5441,56.0,190.0,90.0,8.0,0.0
5442,44.0,0.0,90.0,10.0,0.0
5443,68.0,14.0,60.0,1.0,0.0
5444,56.0,16.0,90.0,4.0,0.0
5445,32.0,4.0,90.0,11.0,0.0
5446,72.0,26.0,60.0,0.0,0.0
5447,75.0,214.0,60.0,0.0,0.0
5448,80.0,244.0,60.0,0.0,0.0
5449,75.0,10.0,60.0,0.0,0.0
5450,80.0,476.0,60.0,0.0,0.0
5451,84.0,0.0,60.0,0.0,0.0
5452,87.0,48.0,990.0,0.0,0.0
5453,84.0,10.0,990.0,0.0,0.0
5454,68.0,238.0,60.0,1.0,0.0
5455,72.0,242.0,60.0,1.0,0.0
5456,75.0,206.0,60.0,1.0,0.0
5457,68.0,446.0,120.0,4.0,0.0
5458,80.0,26.0,90.0,1.0,0.0
5459,84.0,80.0,330.0,0.0,0.0
5460,87.0,362.0,420.0,0.0,0.0
5461,76.0,20.0,60.0,1.0,0.0
5462,64.0,10.0,90.0,4.0,0.0
5463,85.0,362.0,420.0,0.0,0.0
5464,82.0,40.0,390.0,0.0,0.0
5465,65.0,58.0,90.0,4.0,0.0
5466,77.0,20.0,60.0,1.0,0.0
5467,80.0,46.0,360.0,0.0,0.0
5468,84.0,144.0,390.0,0.0,0.0
5469,61.0,10.0,120.0,4.0,0.0
5470,73.0,42.0,60.0,1.0,0.0
5471,85.0,236.0,60.0,0.0,0.0
5472,82.0,0.0,60.0,0.0,0.0
5473,75.0,28.0,60.0,1.0,0.0
5474,27.0,50.0,120.0,11.0,0.0
5475,39.0,0.0,120.0,10.0,0.0
5476,79.0,8.0,60.0,0.0,0.0
5477,82.0,2.0,60.0,0.0,0.0
5478,51.0,110.0,150.0,8.0,0.0
5479,63.0,14.0,90.0,4.0,0.0
5480,63.0,2.0,30.0,1.0,0.0
5481,67.0,244.0,30.0,1.0,0.0
5482,70.0,0.0,30.0,1.0,0.0
5483,67.0,246.0,30.0,1.0,0.0
5484,73.0,506.0,60.0,1.0,0.0
5485,70.0,4.0,60.0,1.0,0.0
5486,77.0,8.0,540.0,1.0,0.0
5487,73.0,6.0,540.0,1.0,0.0
5488,63.0,210.0,90.0,2.0,0.0
5489,65.0,250.0,60.0,2.0,0.0
5490,73.0,8.0,450.0,1.0,0.0
5491,77.0,354.0,450.0,1.0,0.0
5492,67.0,276.0,60.0,2.0,0.0
5493,68.0,102.0,120.0,4.0,0.0
5494,68.0,6.0,120.0,2.0,0.0
5495,72.0,410.0,420.0,1.0,0.0
5496,75.0,10.0,390.0,1.0,0.0
5497,61.0,20.0,90.0,2.0,0.0
5498,61.0,44.0,120.0,4.0,0.0
5499,73.0,22.0,360.0,1.0,0.0
5500,70.0,410.0,390.0,1.0,0.0
5501,63.0,10.0,90.0,2.0,0.0
5502,63.0,24.0,120.0,4.0,0.0
5503,68.0,28.0,390.0,1.0,0.0
5504,72.0,124.0,420.0,1.0,0.0
5505,51.0,20.0,90.0,2.0,0.0
5506,51.0,32.0,120.0,4.0,0.0
5507,63.0,14.0,120.0,2.0,0.0
5508,67.0,12.0,60.0,1.0,0.0
5509,70.0,218.0,90.0,1.0,0.0
5510,56.0,10.0,90.0,4.0,0.0
5511,56.0,112.0,180.0,8.0,0.0
5512,32.0,0.0,120.0,11.0,0.0
5513,72.0,28.0,60.0,1.0,0.0
5514,56.0,10.0,60.0,2.0,0.0
5515,68.0,8.0,60.0,1.0,0.0
5516,44.0,70.0,120.0,10.0,0.0
5517,60.0,2.0,60.0,2.0,0.0
5518,48.0,230.0,60.0,5.0,0.0
5519,51.0,0.0,60.0,5.0,0.0
5520,63.0,18.0,60.0,2.0,0.0
5521,63.0,10.0,60.0,2.0,0.0
5522,68.0,0.0,60.0,2.0,0.0
5523,56.0,228.0,60.0,5.0,0.0
5524,51.0,0.0,60.0,5.0,0.0
5525,72.0,2.0,60.0,2.0,0.0
5526,60.0,0.0,60.0,5.0,0.0
5527,56.0,2.0,60.0,5.0,0.0
5528,68.0,4.0,60.0,2.0,0.0
5529,72.0,6.0,60.0,0.0,0.0
5530,75.0,222.0,60.0,0.0,0.0
5531,60.0,10.0,1260.0,5.0,0.0
5532,75.0,14.0,60.0,0.0,0.0
5533,80.0,232.0,60.0,0.0,0.0
5534,63.0,6.0,1260.0,5.0,0.0
5535,75.0,76.0,1440.0,2.0,0.0
5536,72.0,4.0,1440.0,2.0,0.0
5537,32.0,206.0,90.0,11.0,0.0
5538,44.0,0.0,90.0,10.0,0.0
5539,56.0,14.0,90.0,4.0,0.0
5540,56.0,4.0,90.0,8.0,0.0
5541,80.0,4.0,60.0,0.0,0.0
5542,84.0,10.0,60.0,0.0,0.0
5543,60.0,226.0,90.0,4.0,0.0
5544,80.0,12.0,60.0,0.0,0.0
5545,87.0,24.0,540.0,0.0,0.0
5546,48.0,0.0,90.0,10.0,0.0
5547,36.0,4.0,90.0,11.0,0.0
5548,60.0,4.0,60.0,8.0,0.0
5549,51.0,208.0,90.0,10.0,0.0
5550,63.0,0.0,90.0,8.0,0.0
5551,84.0,16.0,270.0,0.0,0.0
5552,39.0,0.0,90.0,11.0,0.0
5553,63.0,10.0,60.0,4.0,0.0
5554,44.0,2.0,90.0,11.0,0.0
5555,68.0,0.0,90.0,4.0,0.0
5556,56.0,0.0,90.0,10.0,0.0
5557,68.0,208.0,90.0,8.0,0.0
5558,87.0,120.0,120.0,0.0,0.0
5559,84.0,12.0,60.0,0.0,0.0
5560,75.0,18.0,90.0,4.0,0.0
5561,63.0,20.0,90.0,4.0,0.0
5562,73.0,6.0,480.0,2.0,0.0
5563,70.0,20.0,510.0,2.0,0.0
5564,58.0,20.0,480.0,5.0,0.0
5565,55.0,40.0,510.0,3.0,0.0
5566,61.0,6.0,480.0,5.0,0.0
5567,40.0,0.0,90.0,11.0,0.0
5568,64.0,10.0,90.0,8.0,0.0
5569,52.0,216.0,90.0,10.0,0.0
5570,79.0,2.0,90.0,4.0,0.0
5571,67.0,10.0,90.0,4.0,0.0
5572,82.0,14.0,60.0,0.0,0.0
5573,85.0,138.0,90.0,0.0,0.0
5574,72.0,8.0,570.0,2.0,0.0
5575,56.0,22.0,510.0,3.0,0.0
5576,60.0,78.0,450.0,5.0,0.0
5577,56.0,22.0,420.0,5.0,0.0
5578,68.0,18.0,540.0,2.0,0.0
5579,53.0,222.0,90.0,10.0,0.0
5580,65.0,2.0,90.0,8.0,0.0
5581,41.0,0.0,90.0,11.0,0.0
5582,68.0,8.0,60.0,1.0,0.0
5583,80.0,2.0,90.0,4.0,0.0
5584,68.0,82.0,90.0,4.0,0.0
5585,72.0,0.0,90.0,1.0,0.0
5586,84.0,14.0,90.0,0.0,0.0
5587,80.0,2.0,60.0,0.0,0.0
5588,49.0,210.0,90.0,10.0,0.0
5589,37.0,0.0,90.0,11.0,0.0
5590,53.0,0.0,510.0,3.0,0.0
5591,58.0,24.0,390.0,5.0,0.0
5592,70.0,10.0,420.0,2.0,0.0
5593,73.0,98.0,420.0,2.0,0.0
5594,61.0,2.0,60.0,8.0,0.0
5595,61.0,10.0,420.0,5.0,0.0
5596,65.0,0.0,90.0,4.0,0.0
5597,77.0,60.0,90.0,4.0,0.0
5598,73.0,10.0,60.0,1.0,0.0
5599,70.0,10.0,60.0,1.0,0.0
5600,85.0,6.0,90.0,0.0,0.0
5601,82.0,2.0,60.0,0.0,0.0
5602,79.0,0.0,60.0,0.0,0.0
5603,67.0,10.0,30.0,1.0,0.0
5604,82.0,24.0,60.0,0.0,0.0
5605,58.0,0.0,120.0,5.0,0.0
5606,39.0,10.0,90.0,11.0,0.0
5607,70.0,6.0,60.0,2.0,0.0
5608,51.0,20.0,120.0,5.0,0.0
5609,51.0,0.0,90.0,10.0,0.0
5610,51.0,130.0,120.0,3.0,0.0
5611,70.0,2.0,60.0,1.0,0.0
5612,58.0,2.0,90.0,4.0,0.0
5613,55.0,0.0,90.0,8.0,0.0
5614,70.0,8.0,90.0,4.0,0.0
5615,67.0,4.0,60.0,2.0,0.0
5616,67.0,4.0,60.0,1.0,0.0
5617,63.0,226.0,60.0,1.0,0.0
5618,51.0,26.0,30.0,2.0,0.0
5619,55.0,6.0,20.0,2.0,0.0
5620,55.0,4.0,30.0,2.0,0.0
5621,67.0,240.0,60.0,1.0,0.0
5622,70.0,0.0,60.0,1.0,0.0
5623,58.0,6.0,60.0,2.0,0.0
5624,73.0,2.0,60.0,1.0,0.0
5625,70.0,0.0,60.0,1.0,0.0
5626,79.0,0.0,60.0,0.0,0.0
5627,61.0,232.0,60.0,2.0,0.0
5628,58.0,2.0,60.0,2.0,0.0
5629,82.0,4.0,60.0,0.0,0.0
5630,65.0,20.0,1200.0,2.0,0.0
5631,61.0,22.0,1230.0,2.0,0.0
5632,73.0,8.0,1050.0,1.0,0.0
5633,77.0,8.0,1050.0,1.0,0.0
5634,82.0,2.0,60.0,0.0,0.0
5635,85.0,256.0,60.0,0.0,0.0
5636,51.0,18.0,90.0,8.0,0.0
5637,89.0,2.0,810.0,0.0,0.0
5638,85.0,6.0,810.0,0.0,0.0
5639,51.0,0.0,90.0,10.0,0.0
5640,39.0,212.0,90.0,11.0,0.0
5641,39.0,6.0,60.0,3.0,0.0
5642,51.0,4.0,60.0,3.0,0.0
5643,55.0,2.0,90.0,4.0,0.0
5644,53.0,2.0,60.0,8.0,0.0
5645,53.0,6.0,60.0,3.0,0.0
5646,41.0,0.0,90.0,3.0,0.0
5647,53.0,222.0,90.0,10.0,0.0
5648,56.0,10.0,90.0,4.0,0.0
5649,41.0,0.0,90.0,11.0,0.0
5650,55.0,0.0,90.0,8.0,0.0
5651,58.0,4.0,90.0,4.0,0.0
5652,43.0,226.0,90.0,11.0,0.0
5653,43.0,4.0,90.0,3.0,0.0
5654,55.0,4.0,60.0,3.0,0.0
5655,55.0,0.0,90.0,10.0,0.0
5656,56.0,0.0,90.0,10.0,0.0
5657,60.0,2.0,90.0,4.0,0.0
5658,56.0,4.0,90.0,3.0,0.0
5659,44.0,142.0,120.0,3.0,0.0
5660,44.0,0.0,90.0,11.0,0.0
5661,56.0,10.0,60.0,8.0,0.0
5662,75.0,8.0,300.0,1.0,0.0
5663,63.0,6.0,390.0,2.0,0.0
5664,84.0,6.0,60.0,0.0,0.0
5665,87.0,16.0,60.0,0.0,0.0
5666,60.0,136.0,420.0,2.0,0.0
5667,72.0,228.0,90.0,4.0,0.0
5668,72.0,0.0,300.0,1.0,0.0
5669,60.0,0.0,90.0,4.0,0.0
5670,61.0,74.0,90.0,8.0,0.0
5671,53.0,12.0,510.0,3.0,0.0
5672,49.0,2.0,90.0,10.0,0.0
5673,49.0,12.0,60.0,3.0,0.0
5674,37.0,0.0,90.0,11.0,0.0
5675,73.0,8.0,300.0,1.0,0.0
5676,82.0,8.0,60.0,0.0,0.0
5677,70.0,20.0,300.0,1.0,0.0
5678,65.0,28.0,90.0,4.0,0.0
5679,85.0,6.0,60.0,0.0,0.0
5680,58.0,104.0,420.0,2.0,0.0
5681,61.0,8.0,420.0,2.0,0.0
5682,77.0,176.0,90.0,4.0,0.0
5683,51.0,30.0,510.0,3.0,0.0
5684,39.0,0.0,90.0,11.0,0.0
5685,48.0,64.0,120.0,8.0,0.0
5686,51.0,40.0,90.0,10.0,0.0
5687,84.0,18.0,60.0,0.0,0.0
5688,68.0,10.0,300.0,1.0,0.0
5689,80.0,8.0,60.0,0.0,0.0
5690,56.0,120.0,390.0,2.0,0.0
5691,72.0,12.0,300.0,1.0,0.0
5692,60.0,22.0,390.0,2.0,0.0
5693,51.0,184.0,90.0,4.0,0.0
5694,56.0,4.0,90.0,4.0,0.0
5695,27.0,0.0,90.0,11.0,0.0
5696,49.0,56.0,90.0,8.0,0.0
5697,39.0,2.0,90.0,10.0,0.0
5698,49.0,28.0,510.0,3.0,0.0
5699,39.0,2.0,60.0,3.0,0.0
5700,79.0,8.0,60.0,0.0,0.0
5701,82.0,10.0,60.0,0.0,0.0
5702,58.0,6.0,90.0,2.0,0.0
5703,55.0,6.0,60.0,2.0,0.0
5704,51.0,0.0,90.0,4.0,0.0
5705,70.0,6.0,60.0,1.0,0.0
5706,67.0,2.0,30.0,1.0,0.0
5707,55.0,184.0,90.0,4.0,0.0
5708,68.0,52.0,150.0,1.0,0.0
5709,44.0,20.0,90.0,10.0,0.0
5710,44.0,2.0,120.0,3.0,0.0
5711,48.0,12.0,120.0,3.0,0.0
5712,80.0,20.0,60.0,0.0,0.0
5713,51.0,2.0,60.0,4.0,0.0
5714,56.0,8.0,90.0,4.0,0.0
5715,60.0,18.0,150.0,1.0,0.0
5716,51.0,102.0,3210.0,5.0,0.0
5717,39.0,2.0,3210.0,5.0,0.0
5718,56.0,18.0,90.0,2.0,0.0
5719,32.0,0.0,90.0,11.0,0.0
5720,48.0,106.0,90.0,8.0,0.0
5721,51.0,6.0,90.0,4.0,0.0
5722,51.0,8.0,60.0,8.0,0.0
5723,63.0,108.0,90.0,4.0,0.0
5724,48.0,122.0,60.0,8.0,0.0
5725,44.0,8.0,90.0,8.0,0.0
5726,56.0,0.0,90.0,4.0,0.0
5727,68.0,110.0,90.0,4.0,0.0
5728,48.0,116.0,60.0,8.0,0.0
5729,60.0,16.0,90.0,4.0,0.0
5730,51.0,6.0,60.0,8.0,0.0
5731,72.0,108.0,90.0,4.0,0.0
5732,48.0,122.0,90.0,8.0,0.0
5733,75.0,12.0,90.0,4.0,0.0
5734,56.0,60.0,870.0,2.0,0.0
5735,68.0,102.0,930.0,2.0,0.0
5736,48.0,0.0,120.0,10.0,0.0
5737,44.0,10.0,90.0,8.0,0.0
5738,63.0,2.0,90.0,4.0,0.0
5739,36.0,90.0,120.0,11.0,0.0
5740,48.0,110.0,90.0,8.0,0.0
5741,63.0,0.0,60.0,1.0,0.0
5742,51.0,12.0,60.0,8.0,0.0
5743,75.0,8.0,60.0,0.0,0.0
5744,51.0,114.0,90.0,3.0,0.0
5745,48.0,100.0,90.0,8.0,0.0
5746,68.0,6.0,60.0,1.0,0.0
5747,80.0,4.0,60.0,0.0,0.0
5748,44.0,112.0,90.0,8.0,0.0
5749,56.0,12.0,60.0,3.0,0.0
5750,48.0,110.0,60.0,8.0,0.0
5751,84.0,16.0,60.0,0.0,0.0
5752,60.0,58.0,90.0,3.0,0.0
5753,72.0,2.0,60.0,1.0,0.0
5754,51.0,0.0,60.0,8.0,0.0
5755,48.0,14.0,90.0,8.0,0.0
5756,55.0,10.0,1710.0,2.0,0.0
5757,46.0,8.0,90.0,8.0,0.0
5758,67.0,36.0,1830.0,2.0,0.0
5759,34.0,0.0,90.0,11.0,0.0
5760,85.0,4.0,90.0,0.0,0.0
5761,73.0,80.0,120.0,1.0,0.0
5762,61.0,6.0,90.0,3.0,0.0
5763,46.0,18.0,90.0,10.0,0.0
5764,49.0,128.0,60.0,8.0,0.0
5765,51.0,4.0,90.0,4.0,0.0
5766,63.0,106.0,90.0,4.0,0.0
5767,51.0,10.0,90.0,8.0,0.0
5768,49.0,116.0,90.0,8.0,0.0
5769,55.0,6.0,90.0,4.0,0.0
5770,46.0,114.0,90.0,8.0,0.0
5771,67.0,4.0,90.0,4.0,0.0
5772,49.0,112.0,90.0,8.0,0.0
5773,51.0,0.0,60.0,8.0,0.0
5774,70.0,110.0,90.0,4.0,0.0
5775,58.0,14.0,60.0,4.0,0.0
5776,49.0,128.0,90.0,8.0,0.0
5777,73.0,90.0,90.0,4.0,0.0
5778,61.0,0.0,90.0,4.0,0.0
5779,27.0,0.0,90.0,11.0,0.0
5780,46.0,8.0,90.0,8.0,0.0
5781,39.0,12.0,90.0,10.0,0.0
5782,49.0,120.0,60.0,8.0,0.0
5783,82.0,14.0,240.0,0.0,0.0
5784,58.0,0.0,240.0,3.0,0.0
5785,70.0,30.0,270.0,1.0,0.0
5786,51.0,16.0,60.0,8.0,0.0
5787,49.0,48.0,60.0,8.0,0.0
5788,51.0,84.0,330.0,5.0,0.0
5789,39.0,0.0,330.0,5.0,0.0
5790,67.0,2.0,60.0,1.0,0.0
5791,55.0,26.0,60.0,3.0,0.0
5792,79.0,6.0,60.0,0.0,0.0
5793,46.0,112.0,90.0,8.0,0.0
5794,49.0,84.0,60.0,8.0,0.0
5795,51.0,4.0,90.0,8.0,0.0
5796,61.0,18.0,60.0,1.0,0.0
5797,49.0,6.0,60.0,3.0,0.0
5798,73.0,6.0,60.0,0.0,0.0
5799,49.0,92.0,90.0,8.0,0.0
5800,68.0,16.0,1860.0,2.0,0.0
5801,32.0,0.0,120.0,11.0,0.0
5802,44.0,12.0,90.0,8.0,0.0
5803,44.0,90.0,120.0,10.0,0.0
5804,60.0,26.0,60.0,1.0,0.0
5805,51.0,88.0,3240.0,5.0,0.0
5806,39.0,4.0,3210.0,5.0,0.0
5807,72.0,4.0,60.0,0.0,0.0
5808,48.0,12.0,90.0,3.0,0.0
5809,56.0,60.0,1800.0,2.0,0.0
5810,48.0,120.0,90.0,8.0,0.0
5811,51.0,8.0,90.0,4.0,0.0
5812,51.0,16.0,90.0,8.0,0.0
5813,63.0,94.0,90.0,4.0,0.0
5814,48.0,126.0,60.0,8.0,0.0
5815,56.0,2.0,90.0,4.0,0.0
5816,44.0,110.0,90.0,8.0,0.0
5817,68.0,0.0,90.0,4.0,0.0
5818,48.0,124.0,60.0,8.0,0.0
5819,51.0,8.0,90.0,8.0,0.0
5820,72.0,100.0,90.0,4.0,0.0
5821,60.0,16.0,90.0,4.0,0.0
5822,48.0,124.0,90.0,8.0,0.0
5823,75.0,12.0,90.0,4.0,0.0
5824,36.0,86.0,90.0,11.0,0.0
5825,44.0,2.0,90.0,8.0,0.0
5826,63.0,6.0,90.0,4.0,0.0
5827,48.0,0.0,90.0,10.0,0.0
5828,48.0,114.0,60.0,8.0,0.0
5829,63.0,6.0,60.0,1.0,0.0
5830,75.0,0.0,60.0,0.0,0.0
5831,51.0,120.0,90.0,3.0,0.0
5832,51.0,12.0,60.0,8.0,0.0
5833,48.0,80.0,90.0,8.0,0.0
5834,80.0,10.0,60.0,0.0,0.0
5835,68.0,4.0,30.0,1.0,0.0
5836,56.0,30.0,60.0,3.0,0.0
5837,44.0,104.0,90.0,8.0,0.0
5838,48.0,100.0,60.0,8.0,0.0
5839,60.0,2.0,60.0,3.0,0.0
5840,72.0,2.0,60.0,1.0,0.0
5841,51.0,50.0,60.0,8.0,0.0
5842,84.0,12.0,60.0,0.0,0.0
5843,48.0,118.0,60.0,8.0,0.0
5844,67.0,106.0,1890.0,2.0,0.0
5845,85.0,2.0,60.0,0.0,0.0
5846,46.0,0.0,90.0,10.0,0.0
5847,34.0,20.0,90.0,11.0,0.0
5848,61.0,72.0,120.0,3.0,0.0
5849,46.0,14.0,90.0,8.0,0.0
5850,55.0,16.0,1830.0,2.0,0.0
5851,73.0,14.0,60.0,1.0,0.0
5852,49.0,124.0,60.0,8.0,0.0
5853,51.0,96.0,90.0,4.0,0.0
5854,63.0,0.0,90.0,4.0,0.0
5855,51.0,14.0,90.0,8.0,0.0
5856,49.0,128.0,60.0,8.0,0.0
5857,46.0,110.0,90.0,8.0,0.0
5858,55.0,6.0,90.0,4.0,0.0
5859,67.0,2.0,60.0,4.0,0.0
5860,49.0,108.0,60.0,8.0,0.0
5861,51.0,10.0,60.0,8.0,0.0
5862,70.0,112.0,90.0,4.0,0.0
5863,58.0,10.0,60.0,4.0,0.0
5864,49.0,124.0,60.0,8.0,0.0
5865,39.0,98.0,90.0,10.0,0.0
5866,61.0,2.0,90.0,4.0,0.0
5867,73.0,8.0,90.0,4.0,0.0
5868,27.0,0.0,90.0,11.0,0.0
5869,46.0,6.0,90.0,8.0,0.0
5870,49.0,120.0,60.0,8.0,0.0
5871,51.0,32.0,60.0,8.0,0.0
5872,58.0,10.0,210.0,3.0,0.0
5873,70.0,22.0,240.0,1.0,0.0
5874,82.0,36.0,270.0,0.0,0.0
5875,49.0,30.0,60.0,8.0,0.0
5876,79.0,4.0,60.0,0.0,0.0
5877,55.0,12.0,60.0,3.0,0.0
5878,39.0,30.0,390.0,5.0,0.0
5879,51.0,0.0,390.0,5.0,0.0
5880,67.0,4.0,60.0,1.0,0.0
5881,46.0,120.0,60.0,8.0,0.0
5882,49.0,114.0,60.0,8.0,0.0
5883,49.0,64.0,90.0,3.0,0.0
5884,73.0,0.0,60.0,0.0,0.0
5885,61.0,10.0,60.0,1.0,0.0
5886,51.0,0.0,60.0,8.0,0.0
5887,49.0,10.0,60.0,8.0,0.0
5888,47.0,0.0,120.0,8.0,0.0
5889,63.0,8.0,780.0,4.0,0.0
5890,68.0,30.0,150.0,2.0,0.0
5891,44.0,0.0,120.0,10.0,0.0
5892,56.0,4.0,150.0,2.0,0.0
5893,47.0,30.0,120.0,3.0,0.0
5894,51.0,16.0,60.0,5.0,0.0
5895,39.0,4.0,60.0,5.0,0.0
5896,71.0,8.0,120.0,0.0,0.0
5897,75.0,6.0,780.0,4.0,0.0
5898,59.0,24.0,90.0,1.0,0.0
5899,32.0,16.0,120.0,11.0,0.0
5900,44.0,10.0,60.0,11.0,0.0
5901,56.0,0.0,60.0,10.0,0.0
5902,59.0,116.0,90.0,8.0,0.0
5903,59.0,108.0,90.0,8.0,0.0
5904,56.0,6.0,90.0,10.0,0.0
5905,44.0,0.0,90.0,11.0,0.0
5906,56.0,120.0,90.0,10.0,0.0
5907,59.0,2.0,60.0,8.0,0.0
5908,44.0,0.0,90.0,11.0,0.0
5909,56.0,0.0,90.0,10.0,0.0
5910,59.0,114.0,90.0,8.0,0.0
5911,44.0,10.0,90.0,11.0,0.0
5912,59.0,104.0,90.0,8.0,0.0
5913,56.0,2.0,90.0,10.0,0.0
5914,44.0,0.0,90.0,11.0,0.0
5915,44.0,0.0,90.0,11.0,0.0
5916,56.0,116.0,90.0,10.0,0.0
5917,62.0,6.0,330.0,4.0,0.0
5918,59.0,4.0,90.0,8.0,0.0
5919,74.0,26.0,300.0,4.0,0.0
5920,59.0,6.0,90.0,8.0,0.0
5921,44.0,84.0,90.0,11.0,0.0
5922,56.0,0.0,90.0,10.0,0.0
5923,75.0,2.0,810.0,4.0,0.0
5924,59.0,118.0,90.0,8.0,0.0
5925,56.0,0.0,90.0,10.0,0.0
5926,63.0,10.0,780.0,4.0,0.0
5927,71.0,20.0,4830.0,1.0,0.0
5928,44.0,2.0,90.0,11.0,0.0
5929,59.0,38.0,3150.0,3.0,0.0
5930,56.0,0.0,90.0,10.0,0.0
5931,44.0,118.0,90.0,11.0,0.0
5932,59.0,0.0,90.0,8.0,0.0
5933,59.0,6.0,90.0,8.0,0.0
5934,44.0,0.0,90.0,11.0,0.0
5935,56.0,116.0,90.0,10.0,0.0
5936,59.0,0.0,90.0,8.0,0.0
5937,56.0,0.0,90.0,10.0,0.0
5938,44.0,122.0,90.0,11.0,0.0
5939,59.0,0.0,90.0,8.0,0.0
5940,44.0,0.0,90.0,11.0,0.0
5941,56.0,116.0,90.0,10.0,0.0
5942,56.0,4.0,90.0,10.0,0.0
5943,59.0,106.0,90.0,8.0,0.0
5944,44.0,0.0,90.0,11.0,0.0
5945,59.0,124.0,90.0,8.0,0.0
5946,76.0,6.0,300.0,4.0,0.0
5947,64.0,14.0,300.0,4.0,0.0
5948,56.0,4.0,90.0,10.0,0.0
5949,44.0,0.0,90.0,11.0,0.0
5950,56.0,2.0,90.0,10.0,0.0
5951,44.0,0.0,90.0,11.0,0.0
5952,59.0,94.0,90.0,8.0,0.0
5953,42.0,0.0,90.0,11.0,0.0
5954,57.0,0.0,90.0,8.0,0.0
5955,54.0,116.0,90.0,10.0,0.0
5956,83.0,36.0,3900.0,0.0,0.0
5957,63.0,48.0,750.0,4.0,0.0
5958,75.0,108.0,810.0,4.0,0.0
5959,57.0,82.0,1680.0,3.0,0.0
5960,57.0,110.0,90.0,8.0,0.0
5961,42.0,4.0,90.0,11.0,0.0
5962,54.0,0.0,90.0,10.0,0.0
5963,42.0,0.0,90.0,11.0,0.0
5964,57.0,4.0,90.0,8.0,0.0
5965,54.0,120.0,90.0,10.0,0.0
5966,42.0,2.0,90.0,11.0,0.0
5967,54.0,0.0,90.0,10.0,0.0
5968,57.0,118.0,90.0,8.0,0.0
5969,57.0,0.0,90.0,8.0,0.0
5970,54.0,0.0,90.0,10.0,0.0
5971,42.0,120.0,90.0,11.0,0.0
5972,42.0,72.0,90.0,11.0,0.0
5973,57.0,0.0,90.0,8.0,0.0
5974,54.0,0.0,90.0,10.0,0.0
5975,42.0,4.0,90.0,11.0,0.0
5976,57.0,10.0,90.0,8.0,0.0
5977,74.0,4.0,300.0,4.0,0.0
5978,62.0,18.0,300.0,4.0,0.0
5979,54.0,0.0,90.0,10.0,0.0
5980,54.0,0.0,90.0,10.0,0.0
5981,42.0,98.0,90.0,11.0,0.0
5982,57.0,0.0,90.0,8.0,0.0
5983,57.0,8.0,90.0,8.0,0.0
5984,54.0,0.0,90.0,10.0,0.0
5985,42.0,114.0,90.0,11.0,0.0
5986,63.0,10.0,810.0,4.0,0.0
5987,75.0,2.0,780.0,4.0,0.0
5988,57.0,6.0,90.0,8.0,0.0
5989,42.0,0.0,90.0,11.0,0.0
5990,54.0,106.0,90.0,10.0,0.0
5991,42.0,6.0,90.0,11.0,0.0
5992,54.0,0.0,90.0,10.0,0.0
5993,57.0,120.0,90.0,8.0,0.0
5994,54.0,0.0,90.0,10.0,0.0
5995,42.0,116.0,90.0,11.0,0.0
5996,57.0,4.0,90.0,8.0,0.0
5997,57.0,8.0,90.0,8.0,0.0
5998,42.0,116.0,90.0,11.0,0.0
5999,54.0,0.0,90.0,10.0,0.0
6000,57.0,16.0,90.0,8.0,0.0
6001,54.0,0.0,90.0,10.0,0.0
6002,42.0,10.0,90.0,11.0,0.0
6003,40.0,0.0,90.0,11.0,0.0
6004,52.0,6.0,90.0,10.0,0.0
6005,64.0,22.0,300.0,4.0,0.0
6006,76.0,2.0,330.0,4.0,0.0
6007,56.0,98.0,90.0,8.0,0.0
6008,56.0,0.0,330.0,3.0,0.0
6009,56.0,80.0,90.0,8.0,0.0
6010,52.0,30.0,60.0,10.0,0.0
6011,40.0,0.0,60.0,11.0,0.0
6012,51.0,0.0,90.0,10.0,0.0
6013,54.0,98.0,90.0,8.0,0.0
6014,78.0,26.0,750.0,4.0,0.0
6015,54.0,4.0,750.0,3.0,0.0
6016,39.0,10.0,90.0,11.0,0.0
6017,66.0,16.0,780.0,4.0,0.0
6018,54.0,68.0,90.0,8.0,0.0
6019,39.0,0.0,60.0,11.0,0.0
6020,51.0,14.0,60.0,10.0,0.0
6021,39.0,14.0,60.0,11.0,0.0
6022,51.0,0.0,60.0,10.0,0.0
6023,54.0,114.0,90.0,8.0,0.0
6024,54.0,0.0,90.0,8.0,0.0
6025,59.0,74.0,1740.0,3.0,0.0
6026,51.0,112.0,90.0,10.0,0.0
6027,39.0,0.0,90.0,11.0,0.0
6028,54.0,114.0,90.0,8.0,0.0
6029,51.0,10.0,60.0,10.0,0.0
6030,39.0,0.0,60.0,11.0,0.0
6031,51.0,0.0,90.0,10.0,0.0
6032,39.0,18.0,90.0,11.0,0.0
6033,54.0,62.0,90.0,8.0,0.0
6034,52.0,34.0,270.0,3.0,0.0
6035,37.0,0.0,90.0,11.0,0.0
6036,80.0,2.0,330.0,4.0,0.0
6037,52.0,114.0,90.0,8.0,0.0
6038,49.0,4.0,90.0,10.0,0.0
6039,68.0,20.0,300.0,4.0,0.0
6040,52.0,60.0,90.0,8.0,0.0
6041,37.0,10.0,90.0,11.0,0.0
6042,49.0,0.0,90.0,10.0,0.0
6043,47.0,0.0,90.0,10.0,0.0
6044,51.0,36.0,630.0,3.0,0.0
6045,81.0,46.0,750.0,4.0,0.0
6046,69.0,22.0,810.0,4.0,0.0
6047,35.0,14.0,90.0,11.0,0.0
6048,51.0,102.0,90.0,8.0,0.0
6049,35.0,4.0,90.0,11.0,0.0
6050,51.0,110.0,90.0,8.0,0.0
6051,47.0,0.0,90.0,10.0,0.0
6052,51.0,120.0,90.0,8.0,0.0
6053,47.0,4.0,90.0,10.0,0.0
6054,35.0,0.0,90.0,11.0,0.0
6055,51.0,112.0,90.0,8.0,0.0
6056,35.0,0.0,90.0,11.0,0.0
6057,47.0,2.0,90.0,10.0,0.0
6058,51.0,0.0,60.0,8.0,0.0
6059,47.0,0.0,60.0,10.0,0.0
6060,35.0,90.0,60.0,11.0,0.0
6061,35.0,0.0,90.0,11.0,0.0
6062,47.0,2.0,90.0,10.0,0.0
6063,51.0,74.0,90.0,8.0,0.0
6064,78.0,60.0,150.0,4.0,0.0
6065,66.0,6.0,150.0,4.0,0.0
6066,51.0,12.0,120.0,3.0,0.0
6067,33.0,0.0,90.0,11.0,0.0
6068,45.0,20.0,90.0,10.0,0.0
6069,45.0,8.0,90.0,10.0,0.0
6070,63.0,60.0,90.0,8.0,0.0
6071,33.0,0.0,90.0,11.0,0.0
6072,64.0,46.0,90.0,8.0,0.0
6073,44.0,28.0,150.0,10.0,0.0
6074,32.0,0.0,150.0,11.0,0.0
6075,83.0,42.0,270.0,4.0,0.0
6076,71.0,16.0,270.0,4.0,0.0
6077,52.0,32.0,120.0,3.0,0.0
6078,80.0,18.0,90.0,4.0,0.0
6079,68.0,0.0,90.0,4.0,0.0
6080,64.0,286.0,90.0,8.0,0.0
6081,59.0,2.0,90.0,8.0,0.0
6082,45.0,132.0,150.0,10.0,0.0
6083,33.0,0.0,150.0,11.0,0.0
6084,78.0,4.0,270.0,4.0,0.0
6085,66.0,26.0,300.0,4.0,0.0
6086,57.0,288.0,60.0,8.0,0.0
6087,61.0,0.0,60.0,8.0,0.0
6088,81.0,0.0,60.0,4.0,0.0
6089,69.0,2.0,60.0,4.0,0.0
6090,35.0,164.0,120.0,11.0,0.0
6091,64.0,34.0,300.0,4.0,0.0
6092,76.0,0.0,300.0,4.0,0.0
6093,47.0,0.0,120.0,10.0,0.0
6094,68.0,6.0,90.0,4.0,0.0
6095,59.0,4.0,90.0,8.0,0.0
6096,56.0,286.0,90.0,8.0,0.0
6097,80.0,0.0,90.0,4.0,0.0
6098,75.0,10.0,300.0,4.0,0.0
6099,35.0,0.0,150.0,11.0,0.0
6100,47.0,158.0,150.0,10.0,0.0
6101,63.0,2.0,300.0,4.0,0.0
6102,78.0,4.0,60.0,4.0,0.0
6103,66.0,6.0,60.0,4.0,0.0
6104,54.0,0.0,60.0,8.0,0.0
6105,57.0,234.0,90.0,8.0,0.0
6106,78.0,94.0,120.0,4.0,0.0
6107,68.0,0.0,60.0,6.0,0.0
6108,80.0,24.0,90.0,4.0,0.0
6109,48.0,10.0,1110.0,3.0,0.0
6110,56.0,10.0,60.0,6.0,0.0
6111,48.0,0.0,1110.0,10.0,0.0
6112,68.0,2.0,90.0,4.0,0.0
6113,80.0,4.0,1980.0,0.0,0.0
6114,78.0,8.0,1800.0,0.0,0.0
6115,56.0,0.0,2010.0,5.0,0.0
6116,68.0,8.0,2070.0,2.0,0.0
6117,63.0,50.0,1890.0,2.0,0.0
6118,44.0,6.0,2010.0,5.0,0.0
6119,66.0,8.0,1740.0,1.0,0.0
6120,75.0,2.0,1770.0,1.0,0.0
6121,36.0,22.0,1110.0,11.0,0.0
6122,60.0,8.0,1170.0,8.0,0.0
6123,44.0,0.0,60.0,7.0,0.0
6124,80.0,92.0,90.0,4.0,0.0
6125,68.0,10.0,90.0,4.0,0.0
6126,78.0,8.0,90.0,4.0,0.0
6127,68.0,0.0,90.0,6.0,0.0
6128,56.0,0.0,90.0,6.0,0.0
6129,44.0,2.0,90.0,7.0,0.0
6130,44.0,0.0,60.0,7.0,0.0
6131,68.0,10.0,60.0,6.0,0.0
6132,56.0,0.0,60.0,6.0,0.0
6133,78.0,10.0,90.0,4.0,0.0
6134,80.0,92.0,90.0,4.0,0.0
6135,68.0,8.0,90.0,4.0,0.0
6136,78.0,2.0,90.0,4.0,0.0
6137,80.0,100.0,90.0,4.0,0.0
6138,44.0,0.0,60.0,7.0,0.0
6139,56.0,12.0,60.0,6.0,0.0
6140,68.0,0.0,60.0,6.0,0.0
6141,68.0,10.0,90.0,4.0,0.0
6142,78.0,90.0,90.0,4.0,0.0
6143,56.0,10.0,90.0,6.0,0.0
6144,68.0,0.0,90.0,6.0,0.0
6145,80.0,2.0,90.0,4.0,0.0
6146,68.0,8.0,90.0,4.0,0.0
6147,44.0,0.0,90.0,7.0,0.0
6148,80.0,104.0,90.0,4.0,0.0
6149,78.0,6.0,90.0,4.0,0.0
6150,68.0,4.0,90.0,4.0,0.0
6151,68.0,0.0,60.0,6.0,0.0
6152,56.0,0.0,60.0,6.0,0.0
6153,44.0,20.0,60.0,7.0,0.0
6154,44.0,0.0,90.0,7.0,0.0
6155,68.0,2.0,90.0,4.0,0.0
6156,80.0,90.0,90.0,4.0,0.0
6157,78.0,2.0,90.0,4.0,0.0
6158,68.0,10.0,90.0,6.0,0.0
6159,56.0,0.0,90.0,6.0,0.0
6160,80.0,96.0,90.0,4.0,0.0
6161,78.0,6.0,90.0,4.0,0.0
6162,68.0,0.0,90.0,4.0,0.0
6163,68.0,0.0,60.0,6.0,0.0
6164,56.0,0.0,60.0,6.0,0.0
6165,44.0,26.0,60.0,7.0,0.0
6166,78.0,16.0,90.0,4.0,0.0
6167,80.0,46.0,120.0,4.0,0.0
6168,68.0,14.0,60.0,6.0,0.0
6169,56.0,0.0,60.0,6.0,0.0
6170,44.0,0.0,60.0,7.0,0.0
6171,68.0,4.0,90.0,4.0,0.0
6172,37.0,20.0,180.0,11.0,0.0
6173,68.0,0.0,60.0,6.0,0.0
6174,56.0,12.0,60.0,6.0,0.0
6175,49.0,0.0,180.0,10.0,0.0
6176,61.0,10.0,180.0,8.0,0.0
6177,49.0,30.0,150.0,3.0,0.0
6178,44.0,0.0,60.0,7.0,0.0
6179,78.0,12.0,90.0,4.0,0.0
6180,80.0,38.0,90.0,4.0,0.0
6181,68.0,8.0,90.0,4.0,0.0
6182,56.0,0.0,90.0,6.0,0.0
6183,63.0,18.0,210.0,8.0,0.0
6184,68.0,0.0,90.0,6.0,0.0
6185,44.0,2.0,90.0,7.0,0.0
6186,39.0,8.0,180.0,11.0,0.0
6187,51.0,26.0,150.0,3.0,0.0
6188,51.0,0.0,180.0,10.0,0.0
6189,80.0,50.0,90.0,4.0,0.0
6190,78.0,14.0,90.0,4.0,0.0
6191,68.0,2.0,90.0,4.0,0.0
6192,61.0,8.0,180.0,8.0,0.0
6193,49.0,10.0,180.0,10.0,0.0
6194,80.0,48.0,90.0,4.0,0.0
6195,37.0,0.0,180.0,11.0,0.0
6196,78.0,2.0,90.0,4.0,0.0
6197,44.0,0.0,60.0,7.0,0.0
6198,68.0,2.0,90.0,4.0,0.0
6199,49.0,24.0,150.0,3.0,0.0
6200,56.0,0.0,60.0,6.0,0.0
6201,68.0,18.0,60.0,6.0,0.0
6202,44.0,6.0,60.0,7.0,0.0
6203,48.0,0.0,180.0,10.0,0.0
6204,68.0,0.0,60.0,6.0,0.0
6205,36.0,28.0,180.0,11.0,0.0
6206,56.0,0.0,60.0,6.0,0.0
6207,68.0,6.0,90.0,4.0,0.0
6208,78.0,16.0,90.0,4.0,0.0
6209,48.0,22.0,150.0,3.0,0.0
6210,80.0,40.0,90.0,4.0,0.0
6211,60.0,2.0,150.0,8.0,0.0
6212,68.0,0.0,90.0,6.0,0.0
6213,44.0,0.0,90.0,7.0,0.0
6214,32.0,0.0,180.0,11.0,0.0
6215,56.0,22.0,150.0,8.0,0.0
6216,56.0,6.0,90.0,6.0,0.0
6217,44.0,0.0,180.0,10.0,0.0
6218,80.0,52.0,90.0,4.0,0.0
6219,78.0,14.0,90.0,4.0,0.0
6220,68.0,6.0,60.0,4.0,0.0
6221,44.0,10.0,150.0,3.0,0.0
6222,80.0,24.0,90.0,4.0,0.0
6223,46.0,14.0,180.0,10.0,0.0
6224,78.0,16.0,90.0,4.0,0.0
6225,68.0,8.0,90.0,4.0,0.0
6226,44.0,0.0,60.0,7.0,0.0
6227,68.0,4.0,60.0,6.0,0.0
6228,56.0,0.0,60.0,6.0,0.0
6229,46.0,28.0,120.0,3.0,0.0
6230,34.0,0.0,180.0,11.0,0.0
6231,58.0,18.0,150.0,8.0,0.0
6232,68.0,0.0,90.0,6.0,0.0
6233,48.0,14.0,150.0,10.0,0.0
6234,48.0,8.0,150.0,3.0,0.0
6235,80.0,2.0,90.0,4.0,0.0
6236,60.0,2.0,150.0,8.0,0.0
6237,44.0,16.0,90.0,7.0,0.0
6238,78.0,2.0,90.0,4.0,0.0
6239,36.0,0.0,150.0,11.0,0.0
6240,68.0,8.0,60.0,4.0,0.0
6241,56.0,0.0,90.0,6.0,0.0
6242,61.0,4.0,90.0,8.0,0.0
6243,73.0,26.0,90.0,1.0,0.0
6244,64.0,58.0,150.0,2.0,0.0
6245,49.0,12.0,120.0,3.0,0.0
6246,64.0,10.0,90.0,1.0,0.0
6247,49.0,4.0,150.0,10.0,0.0
6248,80.0,12.0,300.0,4.0,0.0
6249,68.0,0.0,60.0,6.0,0.0
6250,56.0,16.0,60.0,6.0,0.0
6251,37.0,0.0,150.0,11.0,0.0
6252,76.0,8.0,90.0,0.0,0.0
6253,68.0,24.0,270.0,4.0,0.0
6254,76.0,58.0,210.0,4.0,0.0
6255,44.0,0.0,60.0,7.0,0.0
6256,56.0,324.0,90.0,8.0,0.0
6257,76.0,14.0,60.0,4.0,0.0
6258,64.0,6.0,60.0,4.0,0.0
6259,30.0,50.0,180.0,11.0,0.0
6260,42.0,0.0,180.0,10.0,0.0
6261,42.0,32.0,210.0,3.0,0.0
6262,51.0,18.0,240.0,3.0,0.0
6263,75.0,6.0,270.0,4.0,0.0
6264,63.0,14.0,270.0,2.0,0.0
6265,63.0,4.0,270.0,4.0,0.0
6266,66.0,8.0,60.0,2.0,0.0
6267,54.0,8.0,60.0,3.0,0.0
6268,66.0,2.0,60.0,4.0,0.0
6269,57.0,320.0,90.0,8.0,0.0
6270,54.0,2.0,60.0,8.0,0.0
6271,78.0,2.0,60.0,4.0,0.0
6272,73.0,10.0,270.0,4.0,0.0
6273,61.0,0.0,300.0,4.0,0.0
6274,44.0,0.0,150.0,10.0,0.0
6275,61.0,16.0,270.0,2.0,0.0
6276,44.0,22.0,240.0,3.0,0.0
6277,49.0,10.0,270.0,3.0,0.0
6278,32.0,78.0,150.0,11.0,0.0
6279,52.0,10.0,60.0,3.0,0.0
6280,52.0,14.0,60.0,8.0,0.0
6281,56.0,6.0,90.0,8.0,0.0
6282,76.0,328.0,90.0,4.0,0.0
6283,64.0,2.0,60.0,4.0,0.0
6284,64.0,2.0,60.0,2.0,0.0
6285,32.0,68.0,180.0,11.0,0.0
6286,60.0,6.0,300.0,2.0,0.0
6287,72.0,0.0,300.0,4.0,0.0
6288,48.0,28.0,240.0,3.0,0.0
6289,44.0,10.0,240.0,3.0,0.0
6290,60.0,10.0,270.0,4.0,0.0
6291,44.0,0.0,180.0,10.0,0.0
6292,75.0,224.0,90.0,4.0,0.0
6293,63.0,6.0,60.0,4.0,0.0
6294,56.0,18.0,60.0,8.0,0.0
6295,63.0,6.0,60.0,2.0,0.0
6296,51.0,2.0,60.0,3.0,0.0
6297,54.0,4.0,60.0,8.0,0.0
6298,82.0,12.0,1800.0,1.0,0.0
6299,85.0,30.0,1830.0,0.0,0.0
6300,70.0,8.0,90.0,4.0,0.0
6301,87.0,16.0,1950.0,0.0,0.0
6302,73.0,8.0,90.0,4.0,0.0
6303,55.0,0.0,1140.0,8.0,0.0
6304,31.0,0.0,1140.0,11.0,0.0
6305,43.0,12.0,1140.0,10.0,0.0
6306,43.0,14.0,1140.0,3.0,0.0
6307,51.0,8.0,1980.0,5.0,0.0
6308,63.0,4.0,2010.0,5.0,0.0
6309,70.0,8.0,1740.0,2.0,0.0
6310,61.0,8.0,1860.0,2.0,0.0
6311,75.0,112.0,90.0,4.0,0.0
6312,73.0,6.0,1710.0,1.0,0.0
6313,70.0,6.0,90.0,4.0,0.0
6314,75.0,110.0,90.0,4.0,0.0
6315,73.0,2.0,90.0,4.0,0.0
6316,73.0,0.0,90.0,4.0,0.0
6317,75.0,112.0,90.0,4.0,0.0
6318,70.0,8.0,90.0,4.0,0.0
6319,73.0,14.0,90.0,4.0,0.0
6320,75.0,96.0,90.0,4.0,0.0
6321,70.0,0.0,90.0,4.0,0.0
6322,70.0,4.0,60.0,4.0,0.0
6323,73.0,26.0,90.0,4.0,0.0
6324,75.0,94.0,90.0,4.0,0.0
6325,75.0,96.0,90.0,4.0,0.0
6326,70.0,16.0,90.0,4.0,0.0
6327,73.0,8.0,90.0,4.0,0.0
6328,73.0,8.0,90.0,4.0,0.0
6329,70.0,16.0,90.0,4.0,0.0
6330,75.0,102.0,90.0,4.0,0.0
6331,73.0,0.0,90.0,4.0,0.0
6332,75.0,104.0,90.0,4.0,0.0
6333,70.0,14.0,90.0,4.0,0.0
6334,75.0,74.0,90.0,4.0,0.0
6335,73.0,18.0,90.0,4.0,0.0
6336,70.0,2.0,90.0,4.0,0.0
6337,44.0,26.0,150.0,3.0,0.0
6338,56.0,4.0,180.0,8.0,0.0
6339,73.0,16.0,90.0,4.0,0.0
6340,70.0,4.0,90.0,4.0,0.0
6341,75.0,50.0,90.0,4.0,0.0
6342,32.0,0.0,180.0,11.0,0.0
6343,44.0,14.0,180.0,10.0,0.0
6344,46.0,8.0,180.0,10.0,0.0
6345,58.0,4.0,180.0,8.0,0.0
6346,46.0,10.0,180.0,3.0,0.0
6347,70.0,10.0,60.0,4.0,0.0
6348,34.0,0.0,180.0,11.0,0.0
6349,73.0,10.0,90.0,4.0,0.0
6350,75.0,78.0,90.0,4.0,0.0
6351,32.0,18.0,180.0,11.0,0.0
6352,56.0,4.0,210.0,8.0,0.0
6353,44.0,14.0,150.0,3.0,0.0
6354,44.0,0.0,180.0,10.0,0.0
6355,75.0,68.0,90.0,4.0,0.0
6356,70.0,2.0,60.0,4.0,0.0
6357,73.0,18.0,90.0,4.0,0.0
6358,55.0,4.0,150.0,8.0,0.0
6359,31.0,36.0,150.0,11.0,0.0
6360,75.0,68.0,90.0,4.0,0.0
6361,70.0,2.0,60.0,4.0,0.0
6362,43.0,6.0,150.0,3.0,0.0
6363,43.0,0.0,150.0,10.0,0.0
6364,73.0,6.0,90.0,4.0,0.0
6365,51.0,0.0,180.0,8.0,0.0
6366,73.0,4.0,90.0,4.0,0.0
6367,70.0,0.0,90.0,4.0,0.0
6368,75.0,60.0,90.0,4.0,0.0
6369,39.0,0.0,180.0,10.0,0.0
6370,39.0,34.0,150.0,3.0,0.0
6371,27.0,2.0,180.0,11.0,0.0
6372,41.0,6.0,180.0,10.0,0.0
6373,75.0,40.0,90.0,4.0,0.0
6374,29.0,0.0,180.0,11.0,0.0
6375,70.0,0.0,60.0,4.0,0.0
6376,41.0,2.0,120.0,3.0,0.0
6377,53.0,2.0,180.0,8.0,0.0
6378,73.0,16.0,60.0,4.0,0.0
6379,70.0,2.0,60.0,4.0,0.0
6380,75.0,18.0,90.0,4.0,0.0
6381,31.0,20.0,180.0,11.0,0.0
6382,43.0,8.0,180.0,3.0,0.0
6383,73.0,14.0,60.0,4.0,0.0
6384,43.0,0.0,180.0,10.0,0.0
6385,55.0,46.0,90.0,8.0,0.0
6386,32.0,24.0,120.0,11.0,0.0
6387,80.0,4.0,120.0,1.0,0.0
6388,71.0,20.0,90.0,1.0,0.0
6389,75.0,44.0,270.0,4.0,0.0
6390,44.0,0.0,120.0,10.0,0.0
6391,44.0,110.0,180.0,3.0,0.0
6392,83.0,10.0,90.0,0.0,0.0
6393,59.0,0.0,120.0,2.0,0.0
6394,68.0,22.0,150.0,2.0,0.0
6395,71.0,0.0,270.0,4.0,0.0
6396,56.0,0.0,60.0,8.0,0.0
6397,51.0,272.0,90.0,8.0,0.0
6398,59.0,2.0,90.0,4.0,0.0
6399,58.0,8.0,270.0,3.0,0.0
6400,49.0,0.0,270.0,3.0,0.0
6401,58.0,8.0,270.0,4.0,0.0
6402,70.0,10.0,270.0,4.0,0.0
6403,82.0,0.0,240.0,0.0,0.0
6404,37.0,0.0,120.0,11.0,0.0
6405,49.0,140.0,120.0,10.0,0.0
6406,70.0,2.0,240.0,1.0,0.0
6407,61.0,12.0,60.0,3.0,0.0
6408,61.0,8.0,60.0,4.0,0.0
6409,73.0,4.0,30.0,1.0,0.0
6410,52.0,276.0,90.0,8.0,0.0
6411,49.0,4.0,90.0,8.0,0.0
6412,73.0,6.0,60.0,4.0,0.0
6413,85.0,8.0,60.0,0.0,0.0
6414,51.0,6.0,240.0,3.0,0.0
6415,51.0,126.0,120.0,10.0,0.0
6416,56.0,14.0,270.0,4.0,0.0
6417,68.0,0.0,300.0,4.0,0.0
6418,39.0,0.0,120.0,11.0,0.0
6419,80.0,10.0,270.0,0.0,0.0
6420,56.0,10.0,270.0,3.0,0.0
6421,68.0,8.0,240.0,1.0,0.0
6422,71.0,10.0,60.0,1.0,0.0
6423,47.0,0.0,90.0,8.0,0.0
6424,71.0,288.0,90.0,4.0,0.0
6425,51.0,2.0,60.0,8.0,0.0
6426,59.0,0.0,60.0,3.0,0.0
6427,59.0,2.0,60.0,4.0,0.0
6428,83.0,8.0,60.0,0.0,0.0
6429,67.0,4.0,240.0,1.0,0.0
6430,67.0,18.0,270.0,4.0,0.0
6431,27.0,0.0,120.0,11.0,0.0
6432,55.0,10.0,270.0,4.0,0.0
6433,79.0,10.0,240.0,0.0,0.0
6434,39.0,8.0,240.0,3.0,0.0
6435,55.0,4.0,240.0,3.0,0.0
6436,39.0,112.0,120.0,10.0,0.0
6437,58.0,6.0,60.0,3.0,0.0
6438,70.0,4.0,90.0,4.0,0.0
6439,51.0,0.0,60.0,8.0,0.0
6440,49.0,10.0,60.0,8.0,0.0
6441,82.0,10.0,60.0,0.0,0.0
6442,58.0,220.0,90.0,4.0,0.0
6443,70.0,0.0,60.0,1.0,0.0
6444,32.0,4.0,120.0,11.0,0.0
6445,44.0,68.0,150.0,3.0,0.0
6446,56.0,26.0,120.0,3.0,0.0
6447,80.0,12.0,60.0,0.0,0.0
6448,44.0,0.0,120.0,10.0,0.0
6449,68.0,8.0,60.0,1.0,0.0
6450,51.0,2.0,90.0,8.0,0.0
6451,48.0,2.0,90.0,8.0,0.0
6452,68.0,10.0,90.0,4.0,0.0
6453,56.0,6.0,90.0,4.0,0.0
6454,63.0,120.0,90.0,4.0,0.0
6455,65.0,120.0,90.0,4.0,0.0
6456,67.0,120.0,90.0,4.0,0.0
6457,68.0,120.0,90.0,4.0,0.0
6458,70.0,50.0,90.0,4.0,0.0
6459,72.0,0.0,90.0,4.0,0.0
6460,79.0,18.0,60.0,0.0,0.0
6461,58.0,2.0,90.0,3.0,0.0
6462,39.0,6.0,90.0,7.0,0.0
6463,51.0,8.0,60.0,5.0,0.0
6464,39.0,10.0,60.0,5.0,0.0
6465,63.0,0.0,90.0,6.0,0.0
6466,51.0,0.0,90.0,6.0,0.0
6467,61.0,4.0,90.0,2.0,0.0
6468,73.0,8.0,15.0,1.0,0.0
6469,70.0,24.0,20.0,1.0,0.0
6470,55.0,110.0,90.0,3.0,0.0
6471,58.0,0.0,90.0,2.0,0.0
6472,70.0,82.0,90.0,4.0,0.0
6473,56.0,6.0,90.0,3.0,0.0
6474,60.0,4.0,90.0,3.0,0.0
6475,68.0,4.0,60.0,1.0,0.0
6476,68.0,0.0,90.0,4.0,0.0
6477,68.0,0.0,90.0,6.0,0.0
6478,56.0,0.0,90.0,6.0,0.0
6479,44.0,108.0,90.0,7.0,0.0
6480,39.0,4.0,60.0,5.0,0.0
6481,51.0,0.0,60.0,5.0,0.0
6482,56.0,2.0,90.0,2.0,0.0
6483,60.0,0.0,90.0,2.0,0.0
6484,80.0,20.0,60.0,0.0,0.0
6485,72.0,10.0,60.0,1.0,0.0
6486,63.0,120.0,90.0,4.0,0.0
6487,65.0,120.0,90.0,4.0,0.0
6488,67.0,120.0,90.0,4.0,0.0
6489,68.0,120.0,90.0,4.0,0.0
6490,70.0,116.0,90.0,4.0,0.0
6491,72.0,8.0,90.0,4.0,0.0
6492,41.0,0.0,90.0,10.0,0.0
6493,53.0,2.0,90.0,4.0,0.0
6494,63.0,0.0,90.0,4.0,0.0
6495,29.0,112.0,90.0,11.0,0.0
6496,53.0,2.0,90.0,8.0,0.0
6497,69.0,110.0,90.0,4.0,0.0
6498,53.0,10.0,90.0,4.0,0.0
6499,46.0,0.0,90.0,10.0,0.0
6500,58.0,10.0,60.0,8.0,0.0
6501,61.0,6.0,90.0,4.0,0.0
6502,34.0,104.0,90.0,11.0,0.0
6503,70.0,0.0,90.0,4.0,0.0
6504,65.0,120.0,90.0,4.0,0.0
6505,67.0,120.0,90.0,4.0,0.0
6506,69.0,120.0,90.0,4.0,0.0
6507,70.0,120.0,90.0,4.0,0.0
6508,72.0,76.0,90.0,4.0,0.0
6509,41.0,2.0,90.0,3.0,0.0
6510,53.0,12.0,90.0,3.0,0.0
6511,81.0,0.0,60.0,0.0,0.0
6512,75.0,16.0,30.0,0.0,0.0
6513,57.0,0.0,90.0,2.0,0.0
6514,72.0,6.0,60.0,1.0,0.0
6515,60.0,108.0,90.0,2.0,0.0
6516,69.0,20.0,60.0,1.0,0.0
6517,73.0,0.0,90.0,4.0,0.0
6518,72.0,76.0,90.0,4.0,0.0
6519,58.0,8.0,90.0,2.0,0.0
6520,61.0,110.0,90.0,2.0,0.0
6521,73.0,22.0,30.0,0.0,0.0
6522,46.0,2.0,90.0,3.0,0.0
6523,58.0,2.0,90.0,3.0,0.0
6524,73.0,4.0,90.0,1.0,0.0
6525,70.0,14.0,60.0,1.0,0.0
6526,82.0,0.0,60.0,0.0,0.0
6527,70.0,2.0,90.0,4.0,0.0
6528,65.0,120.0,90.0,4.0,0.0
6529,67.0,120.0,90.0,4.0,0.0
6530,69.0,120.0,90.0,4.0,0.0
6531,70.0,120.0,90.0,4.0,0.0
6532,72.0,118.0,90.0,4.0,0.0
6533,43.0,0.0,120.0,10.0,0.0
6534,74.0,2.0,90.0,4.0,0.0
6535,55.0,2.0,90.0,4.0,0.0
6536,65.0,4.0,90.0,4.0,0.0
6537,55.0,16.0,90.0,8.0,0.0
6538,31.0,98.0,120.0,11.0,0.0
6539,71.0,116.0,90.0,4.0,0.0
6540,72.0,10.0,90.0,4.0,0.0
6541,63.0,2.0,90.0,4.0,0.0
6542,36.0,0.0,90.0,11.0,0.0
6543,60.0,4.0,90.0,8.0,0.0
6544,55.0,0.0,90.0,4.0,0.0
6545,48.0,108.0,90.0,10.0,0.0
6546,67.0,120.0,90.0,4.0,0.0
6547,69.0,120.0,90.0,4.0,0.0
6548,71.0,120.0,90.0,4.0,0.0
6549,72.0,120.0,90.0,4.0,0.0
6550,74.0,88.0,90.0,4.0,0.0
6551,55.0,2.0,90.0,3.0,0.0
6552,83.0,4.0,60.0,0.0,0.0
6553,77.0,4.0,60.0,0.0,0.0
6554,75.0,120.0,90.0,4.0,0.0
6555,62.0,16.0,60.0,2.0,0.0
6556,65.0,2.0,60.0,2.0,0.0
6557,43.0,2.0,60.0,3.0,0.0
6558,74.0,2.0,60.0,1.0,0.0
6559,71.0,0.0,60.0,1.0,0.0
6560,74.0,88.0,90.0,4.0,0.0
6561,63.0,0.0,60.0,2.0,0.0
6562,72.0,120.0,90.0,4.0,0.0
6563,60.0,0.0,60.0,2.0,0.0
6564,84.0,6.0,60.0,0.0,0.0
6565,75.0,12.0,60.0,0.0,0.0
6566,75.0,2.0,60.0,1.0,0.0
6567,72.0,10.0,60.0,1.0,0.0
6568,48.0,0.0,90.0,3.0,0.0
6569,60.0,2.0,90.0,3.0,0.0
6570,67.0,120.0,90.0,4.0,0.0
6571,69.0,120.0,90.0,4.0,0.0
6572,71.0,120.0,90.0,4.0,0.0
6573,72.0,120.0,90.0,4.0,0.0
6574,73.0,112.0,90.0,4.0,0.0
6575,44.0,0.0,90.0,10.0,0.0
6576,56.0,2.0,90.0,8.0,0.0
6577,63.0,4.0,90.0,4.0,0.0
6578,66.0,2.0,90.0,4.0,0.0
6579,75.0,18.0,90.0,4.0,0.0
6580,32.0,102.0,90.0,11.0,0.0
6581,72.0,118.0,90.0,4.0,0.0
6582,65.0,2.0,90.0,4.0,0.0
6583,73.0,0.0,90.0,4.0,0.0
6584,61.0,6.0,90.0,4.0,0.0
6585,37.0,0.0,90.0,11.0,0.0
6586,56.0,2.0,90.0,8.0,0.0
6587,49.0,112.0,90.0,10.0,0.0
6588,68.0,120.0,90.0,4.0,0.0
6589,70.0,120.0,90.0,4.0,0.0
6590,72.0,120.0,90.0,4.0,0.0
6591,73.0,120.0,90.0,4.0,0.0
6592,75.0,80.0,90.0,4.0,0.0
6593,65.0,4.0,60.0,2.0,0.0
6594,46.0,0.0,60.0,5.0,0.0
6595,68.0,6.0,60.0,1.0,0.0
6596,77.0,4.0,60.0,1.0,0.0
6597,46.0,112.0,90.0,10.0,0.0
6598,58.0,4.0,60.0,3.0,0.0
6599,62.0,6.0,60.0,2.0,0.0
6600,34.0,0.0,90.0,11.0,0.0
6601,86.0,10.0,60.0,0.0,0.0
6602,80.0,2.0,30.0,0.0,0.0
6603,65.0,0.0,60.0,8.0,0.0
6604,68.0,4.0,90.0,4.0,0.0
6605,58.0,0.0,90.0,4.0,0.0
6606,77.0,8.0,90.0,4.0,0.0
6607,74.0,82.0,90.0,4.0,0.0
6608,46.0,4.0,60.0,5.0,0.0
6609,75.0,12.0,90.0,4.0,0.0
6610,79.0,12.0,60.0,0.0,0.0
6611,87.0,4.0,60.0,0.0,0.0
6612,67.0,8.0,60.0,1.0,0.0
6613,75.0,4.0,90.0,1.0,0.0
6614,67.0,0.0,90.0,4.0,0.0
6615,63.0,0.0,90.0,3.0,0.0
6616,51.0,108.0,90.0,10.0,0.0
6617,51.0,0.0,60.0,3.0,0.0
6618,39.0,0.0,90.0,11.0,0.0
6619,58.0,2.0,60.0,4.0,0.0
6620,63.0,0.0,90.0,2.0,0.0
6621,67.0,2.0,90.0,2.0,0.0
6622,63.0,2.0,90.0,8.0,0.0
6623,70.0,6.0,90.0,4.0,0.0
6624,58.0,106.0,90.0,4.0,0.0
6625,60.0,8.0,90.0,4.0,0.0
6626,72.0,108.0,90.0,4.0,0.0
6627,62.0,12.0,60.0,4.0,0.0
6628,74.0,120.0,90.0,4.0,0.0
6629,63.0,0.0,90.0,4.0,0.0
6630,75.0,108.0,90.0,4.0,0.0
6631,65.0,12.0,60.0,4.0,0.0
6632,77.0,88.0,90.0,4.0,0.0
6633,67.0,0.0,60.0,2.0,0.0
6634,70.0,2.0,90.0,2.0,0.0
6635,36.0,0.0,90.0,11.0,0.0
6636,48.0,2.0,60.0,5.0,0.0
6637,79.0,10.0,90.0,1.0,0.0
6638,60.0,6.0,60.0,3.0,0.0
6639,60.0,2.0,90.0,8.0,0.0
6640,48.0,4.0,90.0,3.0,0.0
6641,70.0,6.0,60.0,1.0,0.0
6642,82.0,0.0,60.0,0.0,0.0
6643,48.0,108.0,90.0,10.0,0.0
6644,67.0,4.0,60.0,4.0,0.0
6645,79.0,2.0,90.0,4.0,0.0
6646,88.0,6.0,60.0,0.0,0.0
6647,64.0,0.0,90.0,4.0,0.0
6648,76.0,90.0,90.0,4.0,0.0
6649,53.0,0.0,90.0,3.0,0.0
6650,53.0,6.0,90.0,10.0,0.0
6651,68.0,10.0,60.0,1.0,0.0
6652,89.0,14.0,120.0,0.0,0.0
6653,80.0,6.0,60.0,0.0,0.0
6654,65.0,6.0,90.0,4.0,0.0
6655,68.0,0.0,90.0,2.0,0.0
6656,65.0,2.0,90.0,2.0,0.0
6657,41.0,0.0,90.0,11.0,0.0
6658,48.0,10.0,60.0,5.0,0.0
6659,77.0,10.0,90.0,1.0,0.0
6660,65.0,2.0,90.0,8.0,0.0
6661,77.0,102.0,15.0,4.0,0.0
6662,65.0,18.0,90.0,4.0,0.0
6663,64.0,8.0,90.0,8.0,0.0
6664,64.0,2.0,90.0,4.0,0.0
6665,52.0,18.0,90.0,10.0,0.0
6666,40.0,0.0,90.0,11.0,0.0
6667,52.0,26.0,60.0,3.0,0.0
6668,64.0,20.0,90.0,4.0,0.0
6669,76.0,100.0,15.0,4.0,0.0
6670,41.0,24.0,90.0,11.0,0.0
6671,53.0,0.0,90.0,10.0,0.0
6672,65.0,2.0,90.0,4.0,0.0
6673,53.0,0.0,90.0,3.0,0.0
6674,65.0,14.0,90.0,8.0,0.0
6675,77.0,96.0,15.0,4.0,0.0
6676,65.0,24.0,90.0,4.0,0.0
6677,55.0,0.0,90.0,10.0,0.0
6678,43.0,34.0,90.0,11.0,0.0
6679,67.0,0.0,90.0,4.0,0.0
6680,79.0,92.0,120.0,4.0,0.0
6681,67.0,4.0,90.0,8.0,0.0
6682,55.0,12.0,60.0,3.0,0.0
6683,79.0,72.0,120.0,4.0,0.0
6684,67.0,28.0,90.0,4.0,0.0
6685,68.0,10.0,90.0,8.0,0.0
6686,56.0,10.0,60.0,3.0,0.0
6687,56.0,0.0,90.0,10.0,0.0
6688,44.0,4.0,90.0,11.0,0.0
6689,68.0,24.0,90.0,4.0,0.0
6690,80.0,90.0,15.0,4.0,0.0
6691,68.0,30.0,90.0,4.0,0.0
6692,67.0,14.0,90.0,8.0,0.0
6693,67.0,0.0,90.0,4.0,0.0
6694,55.0,0.0,90.0,10.0,0.0
6695,43.0,20.0,90.0,11.0,0.0
6696,55.0,16.0,60.0,3.0,0.0
6697,79.0,92.0,15.0,4.0,0.0
6698,67.0,28.0,90.0,4.0,0.0
6699,56.0,20.0,60.0,3.0,0.0
6700,44.0,0.0,90.0,11.0,0.0
6701,68.0,30.0,90.0,8.0,0.0
6702,56.0,0.0,90.0,10.0,0.0
6703,68.0,4.0,90.0,4.0,0.0
6704,80.0,90.0,15.0,4.0,0.0
6705,68.0,30.0,90.0,4.0,0.0
6706,58.0,6.0,90.0,3.0,0.0
6707,70.0,0.0,90.0,4.0,0.0
6708,58.0,0.0,90.0,10.0,0.0
6709,46.0,26.0,90.0,11.0,0.0
6710,70.0,8.0,90.0,8.0,0.0
6711,70.0,30.0,90.0,4.0,0.0
6712,82.0,90.0,15.0,4.0,0.0
6713,60.0,0.0,90.0,10.0,0.0
6714,72.0,14.0,90.0,8.0,0.0
6715,60.0,4.0,60.0,3.0,0.0
6716,48.0,4.0,90.0,11.0,0.0
6717,72.0,26.0,90.0,4.0,0.0
6718,84.0,90.0,15.0,4.0,0.0
6719,72.0,30.0,90.0,4.0,0.0
6720,67.0,4.0,90.0,2.0,0.0
6721,55.0,10.0,90.0,8.0,0.0
6722,31.0,0.0,120.0,11.0,0.0
6723,55.0,2.0,90.0,2.0,0.0
6724,67.0,0.0,90.0,4.0,0.0
6725,79.0,2.0,90.0,0.0,0.0
6726,67.0,6.0,90.0,1.0,0.0
6727,79.0,96.0,120.0,4.0,0.0
6728,43.0,14.0,120.0,10.0,0.0
6729,43.0,2.0,90.0,3.0,0.0
6730,55.0,6.0,60.0,3.0,0.0
6731,67.0,24.0,90.0,4.0,0.0
6732,79.0,60.0,120.0,4.0,0.0
6733,68.0,10.0,90.0,4.0,0.0
6734,80.0,4.0,60.0,0.0,0.0
6735,56.0,0.0,90.0,8.0,0.0
6736,56.0,0.0,60.0,2.0,0.0
6737,44.0,2.0,60.0,3.0,0.0
6738,68.0,2.0,90.0,1.0,0.0
6739,44.0,28.0,90.0,10.0,0.0
6740,68.0,4.0,90.0,2.0,0.0
6741,56.0,10.0,60.0,3.0,0.0
6742,32.0,0.0,90.0,11.0,0.0
6743,68.0,40.0,90.0,4.0,0.0
6744,80.0,80.0,15.0,4.0,0.0
6745,70.0,0.0,90.0,2.0,0.0
6746,58.0,4.0,90.0,8.0,0.0
6747,46.0,34.0,90.0,10.0,0.0
6748,58.0,2.0,60.0,3.0,0.0
6749,46.0,10.0,60.0,3.0,0.0
6750,70.0,0.0,90.0,4.0,0.0
6751,58.0,4.0,60.0,2.0,0.0
6752,70.0,2.0,90.0,1.0,0.0
6753,34.0,0.0,90.0,11.0,0.0
6754,82.0,4.0,90.0,0.0,0.0
6755,70.0,44.0,90.0,4.0,0.0
6756,82.0,76.0,15.0,4.0,0.0
6757,48.0,34.0,90.0,10.0,0.0
6758,36.0,0.0,90.0,11.0,0.0
6759,48.0,0.0,60.0,3.0,0.0
6760,60.0,8.0,60.0,3.0,0.0
6761,60.0,2.0,90.0,8.0,0.0
6762,72.0,2.0,90.0,2.0,0.0
6763,60.0,0.0,60.0,2.0,0.0
6764,84.0,0.0,90.0,0.0,0.0
6765,72.0,0.0,90.0,4.0,0.0
6766,84.0,92.0,120.0,4.0,0.0
6767,72.0,10.0,60.0,1.0,0.0
6768,72.0,28.0,90.0,4.0,0.0
6769,84.0,60.0,120.0,4.0,0.0
6770,58.0,0.0,60.0,3.0,0.0
6771,46.0,0.0,60.0,3.0,0.0
6772,34.0,0.0,90.0,11.0,0.0
6773,70.0,4.0,90.0,2.0,0.0
6774,58.0,10.0,60.0,2.0,0.0
6775,70.0,4.0,60.0,1.0,0.0
6776,82.0,0.0,60.0,0.0,0.0
6777,46.0,26.0,90.0,10.0,0.0
6778,58.0,2.0,60.0,8.0,0.0
6779,82.0,84.0,120.0,4.0,0.0
6780,70.0,14.0,90.0,4.0,0.0
6781,82.0,54.0,120.0,4.0,0.0
6782,70.0,36.0,90.0,4.0,0.0
6783,60.0,8.0,60.0,3.0,0.0
6784,60.0,4.0,90.0,8.0,0.0
6785,72.0,2.0,60.0,1.0,0.0
6786,72.0,0.0,90.0,4.0,0.0
6787,48.0,34.0,90.0,10.0,0.0
6788,60.0,14.0,60.0,2.0,0.0
6789,36.0,0.0,90.0,11.0,0.0
6790,84.0,74.0,120.0,4.0,0.0
6791,48.0,2.0,60.0,3.0,0.0
6792,72.0,2.0,90.0,2.0,0.0
6793,84.0,0.0,90.0,0.0,0.0
6794,84.0,60.0,120.0,4.0,0.0
6795,72.0,46.0,60.0,4.0,0.0
6796,85.0,76.0,120.0,4.0,0.0
6797,73.0,2.0,60.0,1.0,0.0
6798,37.0,34.0,90.0,11.0,0.0
6799,73.0,8.0,90.0,4.0,0.0
6800,49.0,10.0,60.0,3.0,0.0
6801,49.0,0.0,90.0,10.0,0.0
6802,61.0,0.0,60.0,2.0,0.0
6803,85.0,2.0,60.0,0.0,0.0
6804,61.0,0.0,90.0,8.0,0.0
6805,61.0,2.0,60.0,3.0,0.0
6806,73.0,2.0,90.0,2.0,0.0
6807,73.0,44.0,90.0,4.0,0.0
6808,85.0,52.0,120.0,4.0,0.0
6809,44.0,0.0,90.0,7.0,0.0
6810,51.0,4.0,60.0,3.0,0.0
6811,75.0,4.0,60.0,1.0,0.0
6812,63.0,8.0,90.0,8.0,0.0
6813,63.0,16.0,60.0,3.0,0.0
6814,51.0,0.0,90.0,10.0,0.0
6815,56.0,0.0,90.0,6.0,0.0
6816,75.0,2.0,90.0,4.0,0.0
6817,39.0,6.0,90.0,11.0,0.0
6818,87.0,100.0,120.0,4.0,0.0
6819,84.0,10.0,90.0,4.0,0.0
6820,75.0,10.0,120.0,2.0,0.0
6821,63.0,2.0,90.0,2.0,0.0
6822,87.0,52.0,1590.0,0.0,0.0
6823,84.0,18.0,1530.0,0.0,0.0
6824,68.0,6.0,90.0,6.0,0.0
6825,63.0,16.0,990.0,5.0,0.0
6826,51.0,6.0,990.0,5.0,0.0
6827,84.0,6.0,90.0,4.0,0.0
6828,87.0,100.0,15.0,4.0,0.0
6829,67.0,14.0,270.0,1.0,0.0
6830,43.0,16.0,240.0,3.0,0.0
6831,55.0,30.0,270.0,3.0,0.0
6832,84.0,20.0,90.0,4.0,0.0
6833,55.0,12.0,300.0,8.0,0.0
6834,31.0,10.0,330.0,11.0,0.0
6835,43.0,0.0,330.0,10.0,0.0
6836,87.0,100.0,15.0,4.0,0.0
6837,84.0,20.0,90.0,4.0,0.0
6838,44.0,14.0,330.0,10.0,0.0
6839,32.0,0.0,330.0,11.0,0.0
6840,56.0,20.0,270.0,3.0,0.0
6841,84.0,24.0,90.0,4.0,0.0
6842,87.0,90.0,120.0,4.0,0.0
6843,68.0,6.0,270.0,1.0,0.0
6844,56.0,10.0,300.0,8.0,0.0
6845,44.0,20.0,300.0,3.0,0.0
6846,84.0,30.0,90.0,4.0,0.0
6847,60.0,2.0,270.0,8.0,0.0
6848,36.0,42.0,300.0,11.0,0.0
6849,72.0,8.0,270.0,1.0,0.0
6850,48.0,14.0,240.0,3.0,0.0
6851,87.0,24.0,15.0,4.0,0.0
6852,48.0,0.0,300.0,10.0,0.0
6853,60.0,8.0,240.0,3.0,0.0
6854,84.0,26.0,90.0,4.0,0.0
6855,87.0,92.0,15.0,4.0,0.0
6856,84.0,20.0,90.0,4.0,0.0
6857,63.0,8.0,720.0,8.0,0.0
6858,63.0,0.0,720.0,3.0,0.0
6859,51.0,14.0,630.0,3.0,0.0
6860,51.0,20.0,690.0,10.0,0.0
6861,84.0,26.0,90.0,4.0,0.0
6862,75.0,8.0,600.0,1.0,0.0
6863,75.0,4.0,630.0,2.0,0.0
6864,39.0,0.0,690.0,11.0,0.0
6865,72.0,4.0,600.0,2.0,0.0
6866,84.0,20.0,90.0,4.0,0.0
6867,87.0,100.0,15.0,4.0,0.0
6868,87.0,94.0,15.0,4.0,0.0
6869,84.0,26.0,90.0,4.0,0.0
6870,84.0,26.0,90.0,4.0,0.0
6871,87.0,76.0,120.0,4.0,0.0
6872,84.0,26.0,90.0,4.0,0.0
6873,84.0,6.0,120.0,4.0,0.0
6874,87.0,4.0,15.0,4.0,0.0
6875,76.0,2.0,90.0,1.0,0.0
6876,82.0,4.0,90.0,4.0,0.0
6877,64.0,0.0,90.0,3.0,0.0
6878,52.0,6.0,90.0,3.0,0.0
6879,70.0,2.0,150.0,2.0,0.0
6880,82.0,26.0,150.0,0.0,0.0
6881,52.0,0.0,90.0,10.0,0.0
6882,85.0,34.0,120.0,4.0,0.0
6883,64.0,18.0,90.0,8.0,0.0
6884,73.0,0.0,150.0,2.0,0.0
6885,85.0,28.0,180.0,0.0,0.0
6886,40.0,4.0,90.0,11.0,0.0
6887,85.0,80.0,120.0,4.0,0.0
6888,82.0,30.0,90.0,4.0,0.0
6889,48.0,18.0,990.0,5.0,0.0
6890,41.0,4.0,90.0,11.0,0.0
6891,68.0,0.0,90.0,6.0,0.0
6892,56.0,20.0,90.0,6.0,0.0
6893,68.0,0.0,90.0,2.0,0.0
6894,53.0,0.0,90.0,10.0,0.0
6895,77.0,0.0,90.0,1.0,0.0
6896,72.0,2.0,90.0,2.0,0.0
6897,60.0,44.0,1020.0,5.0,0.0
6898,44.0,0.0,90.0,7.0,0.0
6899,80.0,22.0,300.0,0.0,0.0
6900,84.0,56.0,150.0,0.0,0.0
6901,53.0,2.0,90.0,3.0,0.0
6902,65.0,2.0,90.0,3.0,0.0
6903,65.0,22.0,300.0,8.0,0.0
6904,80.0,10.0,90.0,4.0,0.0
6905,84.0,34.0,15.0,4.0,0.0
6906,80.0,30.0,90.0,4.0,0.0
6907,84.0,50.0,15.0,4.0,0.0
6908,80.0,26.0,90.0,4.0,0.0
6909,52.0,0.0,270.0,10.0,0.0
6910,40.0,8.0,270.0,11.0,0.0
6911,64.0,20.0,300.0,8.0,0.0
6912,64.0,10.0,240.0,2.0,0.0
6913,52.0,10.0,210.0,2.0,0.0
6914,42.0,58.0,30.0,3.0,0.0
6915,40.0,18.0,150.0,3.0,0.0
6916,52.0,12.0,210.0,3.0,0.0
6917,80.0,8.0,90.0,4.0,0.0
6918,84.0,34.0,15.0,4.0,0.0
6919,76.0,0.0,15.0,0.0,0.0
6920,65.0,24.0,300.0,8.0,0.0
6921,84.0,36.0,15.0,4.0,0.0
6922,80.0,0.0,90.0,4.0,0.0
6923,53.0,6.0,150.0,2.0,0.0
6924,53.0,6.0,180.0,3.0,0.0
6925,41.0,12.0,150.0,3.0,0.0
6926,77.0,38.0,240.0,0.0,0.0
6927,41.0,18.0,300.0,11.0,0.0
6928,53.0,0.0,300.0,10.0,0.0
6929,65.0,28.0,180.0,2.0,0.0
6930,80.0,36.0,90.0,4.0,0.0
6931,84.0,32.0,15.0,4.0,0.0
6932,44.0,18.0,120.0,3.0,0.0
6933,56.0,2.0,300.0,10.0,0.0
6934,44.0,0.0,300.0,11.0,0.0
6935,68.0,44.0,150.0,2.0,0.0
6936,56.0,10.0,150.0,2.0,0.0
6937,80.0,14.0,270.0,0.0,0.0
6938,68.0,2.0,270.0,8.0,0.0
6939,84.0,14.0,15.0,4.0,0.0
6940,80.0,26.0,90.0,4.0,0.0
6941,56.0,2.0,150.0,3.0,0.0
6942,80.0,34.0,90.0,4.0,0.0
6943,72.0,16.0,600.0,1.0,0.0
6944,60.0,6.0,600.0,2.0,0.0
6945,84.0,4.0,540.0,0.0,0.0
6946,48.0,8.0,600.0,11.0,0.0
6947,72.0,10.0,540.0,8.0,0.0
6948,60.0,2.0,570.0,3.0,0.0
6949,48.0,14.0,570.0,3.0,0.0
6950,84.0,16.0,15.0,4.0,0.0
6951,80.0,24.0,90.0,4.0,0.0
6952,72.0,66.0,630.0,2.0,0.0
6953,60.0,0.0,600.0,10.0,0.0
6954,80.0,26.0,90.0,4.0,0.0
6955,84.0,90.0,15.0,4.0,0.0
6956,80.0,30.0,90.0,4.0,0.0
6957,56.0,16.0,180.0,3.0,0.0
6958,84.0,54.0,120.0,4.0,0.0
6959,80.0,30.0,90.0,4.0,0.0
6960,80.0,6.0,90.0,4.0,0.0
6961,84.0,4.0,120.0,4.0,0.0
6962,80.0,34.0,90.0,4.0,0.0
6963,84.0,70.0,120.0,4.0,0.0
6964,60.0,12.0,90.0,8.0,0.0
6965,36.0,4.0,90.0,11.0,0.0
6966,72.0,6.0,90.0,2.0,0.0
6967,60.0,12.0,60.0,2.0,0.0
6968,72.0,2.0,90.0,0.0,0.0
6969,79.0,4.0,90.0,4.0,0.0
6970,55.0,2.0,90.0,3.0,0.0
6971,58.0,0.0,90.0,3.0,0.0
6972,76.0,8.0,120.0,1.0,0.0
6973,48.0,0.0,90.0,10.0,0.0
6974,82.0,84.0,120.0,4.0,0.0
6975,79.0,36.0,90.0,4.0,0.0
6976,82.0,106.0,120.0,4.0,0.0
6977,53.0,0.0,210.0,3.0,0.0
6978,61.0,28.0,660.0,8.0,0.0
6979,49.0,10.0,660.0,10.0,0.0
6980,80.0,50.0,120.0,4.0,0.0
6981,77.0,14.0,120.0,4.0,0.0
6982,73.0,4.0,600.0,0.0,0.0
6983,37.0,0.0,660.0,11.0,0.0
6984,56.0,16.0,210.0,3.0,0.0
6985,73.0,16.0,600.0,2.0,0.0
6986,61.0,16.0,630.0,2.0,0.0
6987,77.0,52.0,180.0,1.0,0.0
6988,77.0,2.0,90.0,4.0,0.0
6989,77.0,30.0,90.0,4.0,0.0
6990,80.0,90.0,15.0,4.0,0.0
6991,77.0,30.0,90.0,4.0,0.0
6992,80.0,100.0,120.0,4.0,0.0
6993,49.0,0.0,150.0,3.0,0.0
6994,82.0,16.0,90.0,4.0,0.0
6995,58.0,4.0,330.0,5.0,0.0
6996,61.0,14.0,360.0,5.0,0.0
6997,61.0,18.0,150.0,3.0,0.0
6998,73.0,0.0,360.0,6.0,0.0
6999,70.0,0.0,330.0,6.0,0.0
7000,85.0,6.0,15.0,4.0,0.0
7001,34.0,0.0,180.0,11.0,0.0
7002,46.0,6.0,150.0,3.0,0.0
7003,70.0,34.0,150.0,0.0,0.0
7004,58.0,10.0,210.0,8.0,0.0
7005,82.0,26.0,90.0,4.0,0.0
7006,58.0,2.0,150.0,3.0,0.0
7007,58.0,22.0,120.0,2.0,0.0
7008,46.0,6.0,180.0,10.0,0.0
7009,70.0,0.0,150.0,2.0,0.0
7010,48.0,6.0,150.0,3.0,0.0
7011,60.0,4.0,150.0,3.0,0.0
7012,72.0,24.0,180.0,0.0,0.0
7013,72.0,8.0,150.0,2.0,0.0
7014,48.0,0.0,180.0,10.0,0.0
7015,82.0,12.0,90.0,4.0,0.0
7016,60.0,6.0,150.0,2.0,0.0
7017,60.0,14.0,210.0,8.0,0.0
7018,36.0,6.0,180.0,11.0,0.0
7019,61.0,18.0,150.0,2.0,0.0
7020,73.0,4.0,150.0,0.0,0.0
7021,73.0,6.0,150.0,2.0,0.0
7022,61.0,0.0,150.0,3.0,0.0
7023,37.0,2.0,150.0,11.0,0.0
7024,82.0,26.0,90.0,4.0,0.0
7025,85.0,26.0,15.0,4.0,0.0
7026,49.0,0.0,150.0,10.0,0.0
7027,61.0,36.0,180.0,8.0,0.0
7028,49.0,8.0,180.0,3.0,0.0
7029,63.0,6.0,150.0,2.0,0.0
7030,68.0,0.0,390.0,6.0,0.0
7031,84.0,16.0,120.0,4.0,0.0
7032,80.0,30.0,90.0,4.0,0.0
7033,72.0,0.0,360.0,6.0,0.0
7034,51.0,8.0,150.0,3.0,0.0
7035,75.0,10.0,150.0,2.0,0.0
7036,51.0,0.0,180.0,10.0,0.0
7037,63.0,8.0,150.0,8.0,0.0
7038,75.0,4.0,150.0,0.0,0.0
7039,63.0,0.0,150.0,3.0,0.0
7040,60.0,6.0,360.0,5.0,0.0
7041,56.0,2.0,390.0,5.0,0.0
7042,39.0,30.0,180.0,11.0,0.0
7043,74.0,18.0,150.0,2.0,0.0
7044,62.0,8.0,150.0,3.0,0.0
7045,62.0,10.0,180.0,8.0,0.0
7046,74.0,4.0,120.0,0.0,0.0
7047,80.0,30.0,90.0,4.0,0.0
7048,84.0,12.0,120.0,4.0,0.0
7049,50.0,8.0,150.0,3.0,0.0
7050,38.0,22.0,180.0,11.0,0.0
7051,50.0,0.0,180.0,10.0,0.0
7052,39.0,8.0,90.0,7.0,0.0
7053,62.0,0.0,150.0,2.0,0.0
7054,51.0,0.0,120.0,3.0,0.0
7055,75.0,16.0,150.0,2.0,0.0
7056,63.0,8.0,120.0,2.0,0.0
7057,63.0,0.0,150.0,8.0,0.0
7058,75.0,0.0,120.0,0.0,0.0
7059,39.0,14.0,90.0,7.0,0.0
7060,63.0,20.0,120.0,3.0,0.0
7061,51.0,40.0,150.0,10.0,0.0
7062,84.0,6.0,120.0,4.0,0.0
7063,80.0,10.0,90.0,4.0,0.0
7064,39.0,0.0,150.0,11.0,0.0
7065,39.0,0.0,90.0,7.0,0.0
7066,50.0,4.0,150.0,3.0,0.0
7067,62.0,6.0,120.0,3.0,0.0
7068,62.0,2.0,180.0,8.0,0.0
7069,74.0,24.0,150.0,0.0,0.0
7070,50.0,0.0,180.0,10.0,0.0
7071,84.0,10.0,120.0,4.0,0.0
7072,62.0,14.0,180.0,2.0,0.0
7073,74.0,10.0,150.0,2.0,0.0
7074,80.0,36.0,90.0,4.0,0.0
7075,38.0,4.0,180.0,11.0,0.0
7076,63.0,2.0,60.0,3.0,0.0
7077,58.0,0.0,300.0,5.0,0.0
7078,51.0,10.0,90.0,3.0,0.0
7079,51.0,4.0,300.0,5.0,0.0
7080,79.0,14.0,90.0,4.0,0.0
7081,63.0,0.0,300.0,6.0,0.0
7082,51.0,10.0,120.0,10.0,0.0
7083,75.0,0.0,60.0,0.0,0.0
7084,39.0,0.0,120.0,11.0,0.0
7085,63.0,4.0,90.0,2.0,0.0
7086,75.0,2.0,90.0,2.0,0.0
7087,63.0,4.0,90.0,8.0,0.0
7088,70.0,0.0,300.0,6.0,0.0
7089,39.0,0.0,60.0,7.0,0.0
7090,82.0,82.0,15.0,4.0,0.0
7091,79.0,30.0,90.0,4.0,0.0
7092,39.0,8.0,90.0,7.0,0.0
7093,39.0,24.0,90.0,10.0,0.0
7094,51.0,4.0,60.0,3.0,0.0
7095,63.0,10.0,60.0,2.0,0.0
7096,51.0,6.0,90.0,8.0,0.0
7097,63.0,4.0,60.0,0.0,0.0
7098,79.0,4.0,90.0,4.0,0.0
7099,51.0,0.0,60.0,2.0,0.0
7100,39.0,6.0,90.0,7.0,0.0
7101,39.0,2.0,60.0,3.0,0.0
7102,27.0,0.0,90.0,11.0,0.0
7103,39.0,18.0,60.0,7.0,0.0
7104,79.0,28.0,90.0,4.0,0.0
7105,82.0,74.0,15.0,4.0,0.0
7106,56.0,34.0,180.0,8.0,0.0
7107,87.0,30.0,1500.0,0.0,0.0
7108,84.0,8.0,90.0,4.0,0.0
7109,84.0,16.0,1560.0,0.0,0.0
7110,56.0,34.0,570.0,5.0,0.0
7111,44.0,2.0,570.0,5.0,0.0
7112,44.0,20.0,90.0,7.0,0.0
7113,68.0,0.0,570.0,6.0,0.0
7114,56.0,0.0,570.0,6.0,0.0
7115,44.0,0.0,180.0,10.0,0.0
7116,32.0,0.0,180.0,11.0,0.0
7117,44.0,8.0,150.0,3.0,0.0
7118,75.0,14.0,1530.0,1.0,0.0
7119,72.0,10.0,1560.0,1.0,0.0
7120,56.0,10.0,150.0,2.0,0.0
7121,87.0,22.0,120.0,4.0,0.0
7122,68.0,10.0,150.0,2.0,0.0
7123,46.0,0.0,180.0,10.0,0.0
7124,34.0,8.0,180.0,11.0,0.0
7125,70.0,28.0,150.0,2.0,0.0
7126,46.0,0.0,150.0,3.0,0.0
7127,58.0,24.0,180.0,8.0,0.0
7128,84.0,36.0,90.0,4.0,0.0
7129,58.0,6.0,150.0,2.0,0.0
7130,68.0,4.0,150.0,2.0,0.0
7131,44.0,0.0,180.0,10.0,0.0
7132,56.0,6.0,150.0,2.0,0.0
7133,87.0,20.0,15.0,4.0,0.0
7134,84.0,34.0,90.0,4.0,0.0
7135,56.0,12.0,150.0,8.0,0.0
7136,44.0,12.0,150.0,3.0,0.0
7137,32.0,28.0,180.0,11.0,0.0
7138,67.0,4.0,150.0,2.0,0.0
7139,43.0,0.0,150.0,10.0,0.0
7140,55.0,0.0,150.0,8.0,0.0
7141,31.0,8.0,150.0,11.0,0.0
7142,55.0,2.0,150.0,2.0,0.0
7143,43.0,42.0,150.0,3.0,0.0
7144,84.0,36.0,90.0,4.0,0.0
7145,44.0,14.0,150.0,3.0,0.0
7146,68.0,2.0,150.0,2.0,0.0
7147,56.0,8.0,150.0,8.0,0.0
7148,44.0,0.0,180.0,10.0,0.0
7149,87.0,26.0,15.0,4.0,0.0
7150,84.0,2.0,90.0,4.0,0.0
7151,56.0,0.0,120.0,2.0,0.0
7152,32.0,40.0,180.0,11.0,0.0
7153,34.0,0.0,180.0,11.0,0.0
7154,58.0,2.0,180.0,8.0,0.0
7155,46.0,0.0,180.0,10.0,0.0
7156,87.0,22.0,15.0,4.0,0.0
7157,84.0,34.0,90.0,4.0,0.0
7158,70.0,10.0,180.0,2.0,0.0
7159,46.0,14.0,150.0,3.0,0.0
7160,58.0,16.0,180.0,2.0,0.0
7161,60.0,0.0,60.0,5.0,0.0
7162,60.0,4.0,180.0,8.0,0.0
7163,48.0,18.0,150.0,3.0,0.0
7164,60.0,4.0,150.0,2.0,0.0
7165,72.0,4.0,60.0,6.0,0.0
7166,60.0,4.0,60.0,6.0,0.0
7167,72.0,18.0,150.0,2.0,0.0
7168,84.0,34.0,90.0,4.0,0.0
7169,48.0,0.0,60.0,5.0,0.0
7170,48.0,28.0,180.0,10.0,0.0
7171,36.0,0.0,180.0,11.0,0.0
7172,84.0,26.0,90.0,4.0,0.0
7173,87.0,22.0,15.0,4.0,0.0
7174,37.0,2.0,180.0,11.0,0.0
7175,49.0,8.0,150.0,3.0,0.0
7176,61.0,12.0,150.0,8.0,0.0
7177,49.0,0.0,180.0,10.0,0.0
7178,73.0,16.0,120.0,2.0,0.0
7179,61.0,10.0,150.0,2.0,0.0
7180,63.0,28.0,690.0,2.0,0.0
7181,51.0,32.0,630.0,3.0,0.0
7182,87.0,84.0,120.0,4.0,0.0
7183,63.0,4.0,60.0,6.0,0.0
7184,75.0,28.0,60.0,6.0,0.0
7185,39.0,4.0,600.0,11.0,0.0
7186,63.0,0.0,600.0,8.0,0.0
7187,51.0,0.0,600.0,10.0,0.0
7188,75.0,34.0,660.0,2.0,0.0
7189,84.0,30.0,90.0,4.0,0.0
7190,84.0,36.0,90.0,4.0,0.0
7191,87.0,90.0,120.0,4.0,0.0
7192,84.0,30.0,90.0,4.0,0.0
7193,87.0,84.0,120.0,4.0,0.0
7194,84.0,36.0,90.0,4.0,0.0
7195,87.0,54.0,15.0,4.0,0.0
7196,84.0,8.0,90.0,4.0,0.0
7197,87.0,4.0,15.0,4.0,0.0
7198,84.0,6.0,90.0,4.0,0.0
7199,82.0,4.0,120.0,0.0,0.0
7200,64.0,12.0,90.0,8.0,0.0
7201,64.0,58.0,270.0,2.0,0.0
7202,76.0,6.0,210.0,2.0,0.0
7203,52.0,0.0,90.0,10.0,0.0
7204,61.0,0.0,120.0,5.0,0.0
7205,58.0,0.0,150.0,5.0,0.0
7206,85.0,4.0,90.0,0.0,0.0
7207,70.0,52.0,150.0,1.0,0.0
7208,85.0,6.0,120.0,4.0,0.0
7209,73.0,26.0,120.0,1.0,0.0
7210,40.0,10.0,90.0,11.0,0.0
7211,82.0,10.0,90.0,4.0,0.0
7212,52.0,4.0,120.0,3.0,0.0
7213,82.0,30.0,90.0,4.0,0.0
7214,85.0,36.0,120.0,4.0,0.0
7215,65.0,6.0,180.0,2.0,0.0
7216,53.0,28.0,180.0,10.0,0.0
7217,72.0,0.0,1140.0,6.0,0.0
7218,60.0,4.0,1140.0,6.0,0.0
7219,56.0,14.0,1200.0,5.0,0.0
7220,44.0,20.0,90.0,7.0,0.0
7221,77.0,6.0,120.0,2.0,0.0
7222,60.0,0.0,1200.0,5.0,0.0
7223,84.0,0.0,180.0,0.0,0.0
7224,84.0,30.0,120.0,4.0,0.0
7225,53.0,16.0,150.0,3.0,0.0
7226,65.0,8.0,180.0,8.0,0.0
7227,80.0,0.0,90.0,4.0,0.0
7228,72.0,2.0,690.0,1.0,0.0
7229,68.0,18.0,660.0,1.0,0.0
7230,41.0,0.0,180.0,11.0,0.0
7231,80.0,2.0,180.0,0.0,0.0
7232,43.0,20.0,150.0,11.0,0.0
7233,67.0,32.0,180.0,8.0,0.0
7234,67.0,2.0,150.0,2.0,0.0
7235,55.0,0.0,150.0,10.0,0.0
7236,80.0,30.0,90.0,4.0,0.0
7237,84.0,32.0,15.0,4.0,0.0
7238,65.0,8.0,150.0,8.0,0.0
7239,41.0,0.0,180.0,11.0,0.0
7240,53.0,30.0,180.0,10.0,0.0
7241,80.0,34.0,90.0,4.0,0.0
7242,77.0,16.0,150.0,0.0,0.0
7243,65.0,10.0,150.0,2.0,0.0
7244,40.0,10.0,180.0,11.0,0.0
7245,76.0,30.0,150.0,0.0,0.0
7246,80.0,40.0,90.0,4.0,0.0
7247,52.0,0.0,180.0,10.0,0.0
7248,64.0,2.0,120.0,2.0,0.0
7249,64.0,28.0,180.0,8.0,0.0
7250,84.0,14.0,15.0,4.0,0.0
7251,65.0,14.0,150.0,8.0,0.0
7252,80.0,36.0,90.0,4.0,0.0
7253,53.0,0.0,180.0,10.0,0.0
7254,60.0,4.0,1020.0,3.0,0.0
7255,65.0,8.0,150.0,2.0,0.0
7256,41.0,10.0,180.0,11.0,0.0
7257,56.0,4.0,1080.0,3.0,0.0
7258,77.0,2.0,150.0,0.0,0.0
7259,67.0,18.0,150.0,2.0,0.0
7260,80.0,36.0,90.0,4.0,0.0
7261,55.0,40.0,210.0,10.0,0.0
7262,43.0,0.0,210.0,11.0,0.0
7263,79.0,24.0,180.0,0.0,0.0
7264,67.0,2.0,180.0,8.0,0.0
7265,84.0,32.0,120.0,4.0,0.0
7266,68.0,6.0,180.0,8.0,0.0
7267,80.0,4.0,90.0,4.0,0.0
7268,84.0,32.0,120.0,4.0,0.0
7269,44.0,18.0,180.0,11.0,0.0
7270,56.0,0.0,180.0,10.0,0.0
7271,80.0,8.0,150.0,0.0,0.0
7272,68.0,10.0,150.0,2.0,0.0
7273,70.0,12.0,180.0,8.0,0.0
7274,82.0,8.0,180.0,0.0,0.0
7275,70.0,18.0,150.0,2.0,0.0
7276,46.0,0.0,180.0,11.0,0.0
7277,80.0,46.0,60.0,4.0,0.0
7278,58.0,8.0,180.0,10.0,0.0
7279,80.0,4.0,90.0,4.0,0.0
7280,44.0,34.0,90.0,7.0,0.0
7281,48.0,0.0,570.0,11.0,0.0
7282,84.0,58.0,630.0,0.0,0.0
7283,84.0,36.0,15.0,4.0,0.0
7284,68.0,4.0,570.0,1.0,0.0
7285,72.0,12.0,600.0,2.0,0.0
7286,72.0,20.0,450.0,8.0,0.0
7287,72.0,2.0,630.0,1.0,0.0
7288,60.0,4.0,570.0,10.0,0.0
7289,80.0,30.0,90.0,4.0,0.0
7290,84.0,72.0,15.0,4.0,0.0
7291,80.0,34.0,90.0,4.0,0.0
7292,84.0,86.0,15.0,4.0,0.0
7293,80.0,18.0,90.0,4.0,0.0
7294,84.0,72.0,15.0,4.0,0.0
7295,80.0,32.0,90.0,4.0,0.0
7296,84.0,82.0,120.0,4.0,0.0
7297,80.0,36.0,90.0,4.0,0.0
7298,36.0,8.0,90.0,11.0,0.0
7299,76.0,8.0,90.0,1.0,0.0
7300,67.0,2.0,90.0,1.0,0.0
7301,60.0,0.0,90.0,8.0,0.0
7302,79.0,4.0,90.0,4.0,0.0
7303,82.0,24.0,120.0,4.0,0.0
7304,60.0,0.0,90.0,2.0,0.0
7305,72.0,6.0,90.0,2.0,0.0
7306,58.0,2.0,120.0,3.0,0.0
7307,55.0,68.0,150.0,3.0,0.0
7308,48.0,0.0,90.0,10.0,0.0
7309,88.0,0.0,90.0,0.0,0.0
7310,82.0,8.0,120.0,0.0,0.0
7311,79.0,28.0,90.0,4.0,0.0
7312,82.0,96.0,120.0,4.0,0.0
7313,61.0,14.0,120.0,2.0,0.0
7314,44.0,0.0,90.0,7.0,0.0
7315,49.0,10.0,150.0,10.0,0.0
7316,89.0,2.0,330.0,0.0,0.0
7317,53.0,2.0,300.0,3.0,0.0
7318,56.0,12.0,300.0,3.0,0.0
7319,61.0,30.0,180.0,8.0,0.0
7320,80.0,34.0,420.0,0.0,0.0
7321,73.0,12.0,150.0,2.0,0.0
7322,37.0,0.0,150.0,11.0,0.0
7323,80.0,10.0,120.0,4.0,0.0
7324,77.0,24.0,90.0,4.0,0.0
7325,77.0,8.0,210.0,1.0,0.0
7326,65.0,10.0,210.0,1.0,0.0
7327,77.0,26.0,90.0,4.0,0.0
7328,48.0,6.0,180.0,10.0,0.0
7329,80.0,10.0,120.0,4.0,0.0
7330,36.0,0.0,180.0,11.0,0.0
7331,72.0,26.0,150.0,2.0,0.0
7332,60.0,24.0,120.0,2.0,0.0
7333,60.0,4.0,180.0,8.0,0.0
7334,49.0,2.0,150.0,10.0,0.0
7335,37.0,0.0,150.0,11.0,0.0
7336,61.0,8.0,120.0,2.0,0.0
7337,80.0,4.0,120.0,4.0,0.0
7338,77.0,34.0,90.0,4.0,0.0
7339,73.0,32.0,120.0,2.0,0.0
7340,61.0,4.0,180.0,8.0,0.0
7341,48.0,0.0,180.0,10.0,0.0
7342,36.0,10.0,180.0,11.0,0.0
7343,60.0,18.0,180.0,8.0,0.0
7344,60.0,20.0,120.0,2.0,0.0
7345,72.0,28.0,150.0,2.0,0.0
7346,80.0,6.0,120.0,4.0,0.0
7347,77.0,36.0,90.0,4.0,0.0
7348,82.0,30.0,90.0,4.0,0.0
7349,73.0,6.0,420.0,6.0,0.0
7350,70.0,0.0,450.0,6.0,0.0
7351,82.0,16.0,360.0,0.0,0.0
7352,85.0,18.0,270.0,0.0,0.0
7353,44.0,8.0,90.0,7.0,0.0
7354,73.0,20.0,120.0,2.0,0.0
7355,61.0,34.0,180.0,8.0,0.0
7356,61.0,0.0,420.0,5.0,0.0
7357,37.0,2.0,150.0,11.0,0.0
7358,61.0,16.0,150.0,2.0,0.0
7359,49.0,0.0,120.0,3.0,0.0
7360,49.0,0.0,150.0,10.0,0.0
7361,58.0,0.0,450.0,5.0,0.0
7362,46.0,20.0,180.0,10.0,0.0
7363,58.0,6.0,150.0,2.0,0.0
7364,58.0,2.0,180.0,8.0,0.0
7365,70.0,14.0,150.0,2.0,0.0
7366,85.0,14.0,15.0,4.0,0.0
7367,34.0,0.0,180.0,11.0,0.0
7368,82.0,34.0,90.0,4.0,0.0
7369,46.0,4.0,150.0,3.0,0.0
7370,48.0,0.0,180.0,10.0,0.0
7371,60.0,12.0,150.0,2.0,0.0
7372,72.0,24.0,150.0,2.0,0.0
7373,60.0,0.0,210.0,8.0,0.0
7374,82.0,36.0,90.0,4.0,0.0
7375,48.0,4.0,150.0,3.0,0.0
7376,85.0,4.0,120.0,4.0,0.0
7377,36.0,14.0,180.0,11.0,0.0
7378,49.0,10.0,150.0,3.0,0.0
7379,85.0,16.0,120.0,4.0,0.0
7380,82.0,34.0,90.0,4.0,0.0
7381,37.0,26.0,150.0,11.0,0.0
7382,61.0,6.0,90.0,2.0,0.0
7383,73.0,4.0,150.0,2.0,0.0
7384,61.0,34.0,180.0,8.0,0.0
7385,49.0,0.0,150.0,10.0,0.0
7386,56.0,6.0,420.0,5.0,0.0
7387,72.0,0.0,390.0,6.0,0.0
7388,68.0,0.0,420.0,6.0,0.0
7389,63.0,14.0,180.0,8.0,0.0
7390,51.0,6.0,180.0,10.0,0.0
7391,84.0,18.0,330.0,0.0,0.0
7392,80.0,12.0,90.0,4.0,0.0
7393,80.0,8.0,390.0,0.0,0.0
7394,39.0,10.0,90.0,7.0,0.0
7395,39.0,0.0,180.0,11.0,0.0
7396,60.0,0.0,390.0,5.0,0.0
7397,63.0,8.0,120.0,2.0,0.0
7398,75.0,4.0,150.0,2.0,0.0
7399,51.0,26.0,150.0,3.0,0.0
7400,62.0,16.0,180.0,8.0,0.0
7401,50.0,40.0,120.0,3.0,0.0
7402,84.0,26.0,15.0,4.0,0.0
7403,80.0,38.0,90.0,4.0,0.0
7404,39.0,6.0,90.0,7.0,0.0
7405,38.0,0.0,180.0,11.0,0.0
7406,74.0,4.0,120.0,2.0,0.0
7407,62.0,0.0,120.0,2.0,0.0
7408,50.0,18.0,180.0,10.0,0.0
7409,51.0,8.0,150.0,3.0,0.0
7410,63.0,10.0,120.0,2.0,0.0
7411,63.0,6.0,150.0,8.0,0.0
7412,80.0,10.0,90.0,4.0,0.0
7413,39.0,2.0,90.0,7.0,0.0
7414,39.0,0.0,150.0,11.0,0.0
7415,51.0,0.0,150.0,10.0,0.0
7416,75.0,12.0,150.0,2.0,0.0
7417,39.0,6.0,90.0,7.0,0.0
7418,50.0,0.0,180.0,10.0,0.0
7419,62.0,0.0,180.0,8.0,0.0
7420,80.0,38.0,90.0,4.0,0.0
7421,84.0,16.0,15.0,4.0,0.0
7422,74.0,20.0,150.0,2.0,0.0
7423,62.0,14.0,150.0,2.0,0.0
7424,50.0,20.0,60.0,3.0,0.0
7425,38.0,30.0,180.0,11.0,0.0
7426,39.0,2.0,120.0,11.0,0.0
7427,51.0,2.0,330.0,5.0,0.0
7428,58.0,0.0,330.0,5.0,0.0
7429,82.0,10.0,120.0,4.0,0.0
7430,82.0,4.0,330.0,0.0,0.0
7431,79.0,58.0,390.0,0.0,0.0
7432,39.0,18.0,90.0,7.0,0.0
7433,63.0,58.0,150.0,8.0,0.0
7434,70.0,0.0,330.0,6.0,0.0
7435,51.0,0.0,120.0,10.0,0.0
7436,63.0,0.0,330.0,6.0,0.0
7437,51.0,12.0,120.0,3.0,0.0
7438,75.0,2.0,90.0,2.0,0.0
7439,63.0,4.0,120.0,2.0,0.0
7440,79.0,10.0,90.0,4.0,0.0
7441,39.0,30.0,90.0,7.0,0.0
7442,82.0,80.0,120.0,4.0,0.0
7443,79.0,10.0,90.0,4.0,0.0
7444,63.0,8.0,120.0,2.0,0.0
7445,51.0,10.0,90.0,2.0,0.0
7446,39.0,2.0,90.0,3.0,0.0
7447,39.0,6.0,90.0,7.0,0.0
7448,39.0,2.0,120.0,10.0,0.0
7449,51.0,2.0,90.0,8.0,0.0
7450,27.0,0.0,120.0,11.0,0.0
7451,79.0,4.0,90.0,4.0,0.0
7452,79.0,38.0,90.0,4.0,0.0
7453,39.0,8.0,60.0,7.0,0.0
7454,82.0,16.0,15.0,4.0,0.0
7455,80.0,452.0,120.0,4.0,0.0
7456,44.0,6.0,90.0,7.0,0.0
7457,56.0,4.0,60.0,8.0,0.0
7458,68.0,0.0,60.0,2.0,0.0
7459,56.0,10.0,90.0,2.0,0.0
7460,44.0,2.0,60.0,3.0,0.0
7461,80.0,8.0,90.0,0.0,0.0
7462,32.0,0.0,90.0,11.0,0.0
7463,48.0,2.0,60.0,5.0,0.0
7464,56.0,14.0,60.0,5.0,0.0
7465,44.0,20.0,90.0,10.0,0.0
7466,56.0,0.0,90.0,6.0,0.0
7467,68.0,0.0,90.0,6.0,0.0
7468,51.0,18.0,330.0,4.0,0.0
7469,63.0,10.0,360.0,3.0,0.0
7470,75.0,180.0,360.0,1.0,0.0
7471,63.0,2.0,60.0,3.0,0.0
7472,48.0,52.0,300.0,8.0,0.0
7473,75.0,228.0,60.0,1.0,0.0
7474,51.0,158.0,360.0,4.0,0.0
7475,73.0,20.0,60.0,1.0,0.0
7476,61.0,4.0,60.0,3.0,0.0
7477,60.0,2.0,60.0,3.0,0.0
7478,48.0,206.0,90.0,8.0,0.0
7479,51.0,14.0,60.0,4.0,0.0
7480,72.0,20.0,30.0,1.0,0.0
7481,48.0,210.0,60.0,8.0,0.0
7482,70.0,18.0,60.0,1.0,0.0
7483,51.0,8.0,60.0,4.0,0.0
7484,58.0,2.0,60.0,3.0,0.0
7485,48.0,210.0,90.0,8.0,0.0
7486,56.0,10.0,60.0,3.0,0.0
7487,51.0,10.0,60.0,4.0,0.0
7488,68.0,16.0,30.0,1.0,0.0
7489,49.0,10.0,60.0,8.0,0.0
7490,39.0,0.0,60.0,11.0,0.0
7491,51.0,8.0,60.0,4.0,0.0
7492,67.0,10.0,90.0,4.0,0.0
7493,51.0,0.0,60.0,10.0,0.0
7494,55.0,484.0,90.0,3.0,0.0
7495,67.0,14.0,60.0,1.0,0.0
7496,40.0,0.0,330.0,11.0,0.0
7497,76.0,160.0,390.0,4.0,0.0
7498,52.0,22.0,360.0,8.0,0.0
7499,64.0,0.0,360.0,4.0,0.0
7500,52.0,24.0,330.0,10.0,0.0
7501,40.0,2.0,60.0,11.0,0.0
7502,76.0,4.0,90.0,4.0,0.0
7503,64.0,12.0,60.0,4.0,0.0
7504,52.0,222.0,90.0,8.0,0.0
7505,52.0,0.0,60.0,10.0,0.0
7506,39.0,0.0,60.0,11.0,0.0
7507,51.0,0.0,60.0,10.0,0.0
7508,75.0,8.0,60.0,4.0,0.0
7509,63.0,10.0,60.0,4.0,0.0
7510,79.0,80.0,90.0,0.0,0.0
7511,51.0,0.0,60.0,8.0,0.0
7512,80.0,80.0,90.0,0.0,0.0
7513,79.0,66.0,90.0,0.0,0.0
7514,49.0,2.0,60.0,8.0,0.0
7515,49.0,0.0,60.0,10.0,0.0
7516,37.0,0.0,60.0,11.0,0.0
7517,80.0,80.0,90.0,0.0,0.0
7518,73.0,8.0,60.0,4.0,0.0
7519,61.0,4.0,60.0,4.0,0.0
7520,79.0,80.0,90.0,0.0,0.0
7521,80.0,64.0,90.0,0.0,0.0
7522,36.0,4.0,90.0,11.0,0.0
7523,48.0,0.0,90.0,10.0,0.0
7524,60.0,2.0,60.0,4.0,0.0
7525,72.0,6.0,60.0,4.0,0.0
7526,79.0,80.0,90.0,0.0,0.0
7527,48.0,4.0,60.0,8.0,0.0
7528,80.0,80.0,90.0,0.0,0.0
7529,79.0,64.0,90.0,0.0,0.0
7530,34.0,78.0,90.0,11.0,0.0
7531,70.0,8.0,60.0,4.0,0.0
7532,58.0,8.0,60.0,4.0,0.0
7533,46.0,0.0,60.0,8.0,0.0
7534,46.0,0.0,90.0,10.0,0.0
7535,80.0,2.0,90.0,0.0,0.0
7536,77.0,80.0,90.0,0.0,0.0
7537,79.0,2.0,90.0,0.0,0.0
7538,68.0,4.0,60.0,4.0,0.0
7539,44.0,4.0,60.0,8.0,0.0
7540,44.0,0.0,90.0,10.0,0.0
7541,32.0,438.0,90.0,11.0,0.0
7542,56.0,0.0,60.0,4.0,0.0
7543,79.0,64.0,15.0,0.0,0.0
7544,80.0,12.0,60.0,0.0,0.0
7545,75.0,152.0,390.0,1.0,0.0
7546,51.0,70.0,300.0,4.0,0.0
7547,63.0,18.0,360.0,3.0,0.0
7548,48.0,12.0,270.0,8.0,0.0
7549,63.0,236.0,60.0,3.0,0.0
7550,75.0,8.0,60.0,1.0,0.0
7551,51.0,32.0,330.0,4.0,0.0
7552,48.0,162.0,360.0,8.0,0.0
7553,61.0,6.0,60.0,3.0,0.0
7554,73.0,34.0,60.0,1.0,0.0
7555,51.0,8.0,60.0,4.0,0.0
7556,60.0,10.0,60.0,3.0,0.0
7557,72.0,2.0,60.0,1.0,0.0
7558,48.0,222.0,60.0,8.0,0.0
7559,51.0,4.0,60.0,4.0,0.0
7560,58.0,10.0,60.0,3.0,0.0
7561,48.0,226.0,60.0,8.0,0.0
7562,70.0,0.0,60.0,1.0,0.0
7563,48.0,226.0,60.0,8.0,0.0
7564,56.0,4.0,60.0,3.0,0.0
7565,51.0,2.0,60.0,4.0,0.0
7566,68.0,4.0,60.0,1.0,0.0
7567,49.0,2.0,60.0,8.0,0.0
7568,51.0,6.0,60.0,4.0,0.0
7569,67.0,510.0,60.0,4.0,0.0
7570,67.0,8.0,60.0,1.0,0.0
7571,51.0,0.0,60.0,10.0,0.0
7572,55.0,6.0,60.0,3.0,0.0
7573,39.0,0.0,60.0,11.0,0.0
7574,64.0,46.0,360.0,4.0,0.0
7575,40.0,0.0,330.0,11.0,0.0
7576,76.0,134.0,420.0,4.0,0.0
7577,52.0,16.0,360.0,8.0,0.0
7578,52.0,6.0,330.0,10.0,0.0
7579,52.0,2.0,90.0,10.0,0.0
7580,52.0,6.0,90.0,8.0,0.0
7581,40.0,0.0,90.0,11.0,0.0
7582,76.0,228.0,90.0,4.0,0.0
7583,64.0,10.0,60.0,4.0,0.0
7584,51.0,2.0,60.0,8.0,0.0
7585,63.0,0.0,60.0,4.0,0.0
7586,75.0,6.0,60.0,4.0,0.0
7587,51.0,226.0,90.0,10.0,0.0
7588,39.0,0.0,90.0,11.0,0.0
7589,61.0,2.0,60.0,4.0,0.0
7590,37.0,0.0,60.0,11.0,0.0
7591,49.0,4.0,60.0,8.0,0.0
7592,49.0,2.0,60.0,10.0,0.0
7593,73.0,240.0,60.0,4.0,0.0
7594,48.0,0.0,90.0,8.0,0.0
7595,60.0,6.0,60.0,4.0,0.0
7596,48.0,0.0,90.0,10.0,0.0
7597,72.0,234.0,90.0,4.0,0.0
7598,36.0,0.0,90.0,11.0,0.0
7599,46.0,0.0,60.0,8.0,0.0
7600,70.0,8.0,60.0,4.0,0.0
7601,46.0,0.0,90.0,10.0,0.0
7602,58.0,0.0,60.0,4.0,0.0
7603,34.0,224.0,90.0,11.0,0.0
7604,45.0,0.0,60.0,10.0,0.0
7605,33.0,0.0,60.0,11.0,0.0
7606,69.0,488.0,60.0,4.0,0.0
7607,57.0,4.0,60.0,4.0,0.0
7608,45.0,4.0,60.0,8.0,0.0
7609,42.0,0.0,390.0,11.0,0.0
7610,54.0,158.0,390.0,10.0,0.0
7611,78.0,2.0,390.0,4.0,0.0
7612,66.0,2.0,390.0,4.0,0.0
7613,54.0,68.0,330.0,8.0,0.0
7614,54.0,0.0,90.0,10.0,0.0
7615,78.0,0.0,90.0,4.0,0.0
7616,66.0,2.0,60.0,4.0,0.0
7617,42.0,234.0,90.0,11.0,0.0
7618,54.0,2.0,60.0,8.0,0.0
7619,53.0,0.0,60.0,10.0,0.0
7620,53.0,236.0,90.0,8.0,0.0
7621,65.0,4.0,60.0,4.0,0.0
7622,77.0,0.0,90.0,4.0,0.0
7623,41.0,2.0,60.0,11.0,0.0
7624,51.0,0.0,60.0,10.0,0.0
7625,51.0,8.0,60.0,8.0,0.0
7626,39.0,0.0,60.0,11.0,0.0
7627,63.0,2.0,60.0,4.0,0.0
7628,75.0,230.0,90.0,4.0,0.0
7629,37.0,0.0,60.0,11.0,0.0
7630,49.0,0.0,60.0,10.0,0.0
7631,49.0,216.0,60.0,8.0,0.0
7632,61.0,2.0,60.0,4.0,0.0
7633,73.0,0.0,60.0,4.0,0.0
7634,60.0,0.0,60.0,4.0,0.0
7635,48.0,0.0,60.0,10.0,0.0
7636,49.0,20.0,60.0,8.0,0.0
7637,48.0,0.0,60.0,8.0,0.0
7638,36.0,240.0,60.0,11.0,0.0
7639,72.0,4.0,60.0,4.0,0.0
7640,47.0,0.0,60.0,10.0,0.0
7641,59.0,2.0,60.0,4.0,0.0
7642,71.0,0.0,60.0,4.0,0.0
7643,47.0,514.0,90.0,8.0,0.0
7644,35.0,0.0,60.0,11.0,0.0
7645,56.0,12.0,360.0,8.0,0.0
7646,68.0,10.0,360.0,4.0,0.0
7647,68.0,18.0,390.0,1.0,0.0
7648,80.0,148.0,390.0,4.0,0.0
7649,44.0,0.0,360.0,11.0,0.0
7650,56.0,4.0,360.0,10.0,0.0
7651,80.0,0.0,390.0,0.0,0.0
7652,68.0,6.0,60.0,1.0,0.0
7653,80.0,2.0,60.0,0.0,0.0
7654,68.0,4.0,60.0,4.0,0.0
7655,80.0,6.0,90.0,4.0,0.0
7656,44.0,0.0,60.0,11.0,0.0
7657,56.0,6.0,60.0,10.0,0.0
7658,56.0,226.0,90.0,8.0,0.0
7659,72.0,494.0,90.0,4.0,0.0
7660,36.0,0.0,60.0,11.0,0.0
7661,48.0,4.0,90.0,8.0,0.0
7662,60.0,8.0,60.0,4.0,0.0
7663,48.0,2.0,60.0,10.0,0.0
7664,57.0,16.0,330.0,8.0,0.0
7665,81.0,140.0,390.0,0.0,0.0
7666,69.0,0.0,360.0,1.0,0.0
7667,57.0,10.0,360.0,3.0,0.0
7668,45.0,4.0,360.0,11.0,0.0
7669,57.0,0.0,360.0,10.0,0.0
7670,69.0,2.0,360.0,4.0,0.0
7671,81.0,20.0,360.0,4.0,0.0
7672,69.0,10.0,60.0,1.0,0.0
7673,57.0,18.0,60.0,3.0,0.0
7674,69.0,2.0,90.0,4.0,0.0
7675,57.0,6.0,90.0,8.0,0.0
7676,81.0,2.0,90.0,4.0,0.0
7677,45.0,0.0,90.0,11.0,0.0
7678,57.0,196.0,90.0,10.0,0.0
7679,81.0,4.0,60.0,0.0,0.0
7680,49.0,486.0,90.0,10.0,0.0
7681,49.0,6.0,90.0,8.0,0.0
7682,61.0,8.0,90.0,4.0,0.0
7683,73.0,26.0,60.0,4.0,0.0
7684,37.0,0.0,90.0,11.0,0.0
7685,82.0,8.0,330.0,0.0,0.0
7686,46.0,10.0,330.0,11.0,0.0
7687,70.0,14.0,360.0,1.0,0.0
7688,82.0,6.0,360.0,4.0,0.0
7689,58.0,12.0,360.0,3.0,0.0
7690,58.0,0.0,330.0,10.0,0.0
7691,58.0,0.0,360.0,8.0,0.0
7692,70.0,146.0,390.0,4.0,0.0
7693,58.0,0.0,90.0,10.0,0.0
7694,82.0,6.0,60.0,0.0,0.0
7695,70.0,4.0,90.0,4.0,0.0
7696,58.0,4.0,60.0,3.0,0.0
7697,58.0,4.0,90.0,8.0,0.0
7698,70.0,14.0,60.0,1.0,0.0
7699,46.0,0.0,90.0,11.0,0.0
7700,82.0,240.0,90.0,4.0,0.0
7701,38.0,0.0,90.0,11.0,0.0
7702,50.0,444.0,90.0,10.0,0.0
7703,62.0,8.0,90.0,4.0,0.0
7704,74.0,0.0,90.0,4.0,0.0
7705,50.0,0.0,90.0,8.0,0.0
7706,71.0,46.0,300.0,1.0,0.0
7707,47.0,4.0,360.0,11.0,0.0
7708,59.0,16.0,360.0,3.0,0.0
7709,71.0,152.0,390.0,4.0,0.0
7710,83.0,2.0,390.0,0.0,0.0
7711,59.0,0.0,360.0,10.0,0.0
7712,59.0,18.0,300.0,8.0,0.0
7713,83.0,10.0,390.0,4.0,0.0
7714,71.0,22.0,90.0,4.0,0.0
7715,59.0,4.0,60.0,3.0,0.0
7716,47.0,8.0,90.0,11.0,0.0
7717,71.0,2.0,60.0,1.0,0.0
7718,83.0,6.0,60.0,0.0,0.0
7719,59.0,0.0,90.0,8.0,0.0
7720,59.0,0.0,90.0,10.0,0.0
7721,83.0,208.0,120.0,4.0,0.0
7722,62.0,10.0,1170.0,8.0,0.0
7723,50.0,0.0,1080.0,10.0,0.0
7724,83.0,96.0,90.0,4.0,0.0
7725,80.0,8.0,90.0,4.0,0.0
7726,71.0,22.0,60.0,4.0,0.0
7727,50.0,6.0,1050.0,3.0,0.0
7728,38.0,72.0,1080.0,11.0,0.0
7729,71.0,10.0,1890.0,2.0,0.0
7730,76.0,30.0,2070.0,1.0,0.0
7731,68.0,18.0,1860.0,2.0,0.0
7732,80.0,6.0,90.0,4.0,0.0
7733,71.0,20.0,90.0,4.0,0.0
7734,83.0,96.0,120.0,4.0,0.0
7735,83.0,94.0,90.0,4.0,0.0
7736,71.0,10.0,90.0,4.0,0.0
7737,80.0,10.0,90.0,4.0,0.0
7738,80.0,4.0,90.0,4.0,0.0
7739,83.0,96.0,90.0,4.0,0.0
7740,71.0,20.0,90.0,4.0,0.0
7741,80.0,2.0,90.0,4.0,0.0
7742,83.0,98.0,90.0,4.0,0.0
7743,71.0,18.0,90.0,4.0,0.0
7744,71.0,16.0,60.0,4.0,0.0
7745,80.0,12.0,90.0,4.0,0.0
7746,83.0,100.0,90.0,4.0,0.0
7747,83.0,106.0,90.0,4.0,0.0
7748,80.0,4.0,90.0,4.0,0.0
7749,71.0,8.0,90.0,4.0,0.0
7750,80.0,6.0,90.0,4.0,0.0
7751,71.0,16.0,90.0,4.0,0.0
7752,83.0,94.0,90.0,4.0,0.0
7753,83.0,24.0,120.0,4.0,0.0
7754,88.0,6.0,1260.0,0.0,0.0
7755,80.0,14.0,90.0,4.0,0.0
7756,71.0,10.0,90.0,4.0,0.0
7757,80.0,20.0,90.0,4.0,0.0
7758,83.0,90.0,120.0,4.0,0.0
7759,71.0,0.0,90.0,4.0,0.0
7760,83.0,104.0,90.0,4.0,0.0
7761,80.0,10.0,90.0,4.0,0.0
7762,50.0,28.0,270.0,3.0,0.0
7763,38.0,10.0,330.0,11.0,0.0
7764,50.0,0.0,330.0,10.0,0.0
7765,62.0,14.0,300.0,8.0,0.0
7766,71.0,8.0,90.0,4.0,0.0
7767,83.0,4.0,90.0,4.0,0.0
7768,71.0,6.0,90.0,4.0,0.0
7769,80.0,58.0,90.0,4.0,0.0
7770,83.0,38.0,390.0,0.0,0.0
7771,80.0,108.0,90.0,4.0,0.0
7772,83.0,8.0,90.0,4.0,0.0
7773,52.0,0.0,300.0,10.0,0.0
7774,40.0,8.0,300.0,11.0,0.0
7775,52.0,34.0,270.0,3.0,0.0
7776,71.0,2.0,60.0,4.0,0.0
7777,64.0,10.0,300.0,8.0,0.0
7778,83.0,2.0,90.0,4.0,0.0
7779,80.0,58.0,90.0,4.0,0.0
7780,71.0,8.0,90.0,4.0,0.0
7781,38.0,0.0,300.0,11.0,0.0
7782,62.0,50.0,240.0,8.0,0.0
7783,50.0,10.0,300.0,3.0,0.0
7784,50.0,38.0,300.0,10.0,0.0
7785,83.0,54.0,90.0,4.0,0.0
7786,71.0,2.0,90.0,4.0,0.0
7787,80.0,6.0,90.0,4.0,0.0
7788,83.0,16.0,90.0,4.0,0.0
7789,80.0,8.0,90.0,4.0,0.0
7790,71.0,2.0,90.0,4.0,0.0
7791,73.0,6.0,90.0,4.0,0.0
7792,73.0,2.0,210.0,2.0,0.0
7793,69.0,0.0,210.0,2.0,0.0
7794,73.0,30.0,120.0,1.0,0.0
7795,37.0,26.0,300.0,11.0,0.0
7796,49.0,0.0,210.0,3.0,0.0
7797,49.0,0.0,300.0,10.0,0.0
7798,85.0,4.0,150.0,0.0,0.0
7799,85.0,2.0,90.0,4.0,0.0
7800,81.0,18.0,90.0,4.0,0.0
7801,61.0,16.0,180.0,8.0,0.0
7802,81.0,6.0,90.0,4.0,0.0
7803,73.0,4.0,90.0,4.0,0.0
7804,85.0,82.0,90.0,4.0,0.0
7805,85.0,116.0,90.0,4.0,0.0
7806,81.0,4.0,90.0,4.0,0.0
7807,73.0,0.0,90.0,4.0,0.0
7808,85.0,64.0,90.0,4.0,0.0
7809,73.0,6.0,90.0,4.0,0.0
7810,81.0,8.0,90.0,4.0,0.0
7811,71.0,10.0,870.0,1.0,0.0
7812,81.0,38.0,30.0,4.0,0.0
7813,71.0,10.0,90.0,4.0,0.0
7814,80.0,2.0,90.0,4.0,0.0
7815,83.0,108.0,90.0,4.0,0.0
7816,76.0,44.0,870.0,1.0,0.0
7817,62.0,90.0,600.0,8.0,0.0
7818,50.0,0.0,690.0,3.0,0.0
7819,83.0,8.0,780.0,0.0,0.0
7820,88.0,44.0,810.0,0.0,0.0
7821,38.0,100.0,690.0,11.0,0.0
7822,68.0,0.0,870.0,2.0,0.0
7823,59.0,8.0,870.0,2.0,0.0
7824,50.0,0.0,690.0,10.0,0.0
7825,71.0,0.0,90.0,4.0,0.0
7826,83.0,116.0,90.0,4.0,0.0
7827,80.0,4.0,90.0,4.0,0.0
7828,80.0,8.0,90.0,4.0,0.0
7829,83.0,114.0,90.0,4.0,0.0
7830,71.0,2.0,90.0,4.0,0.0
7831,71.0,0.0,90.0,4.0,0.0
7832,80.0,110.0,90.0,4.0,0.0
7833,83.0,6.0,90.0,4.0,0.0
7834,71.0,8.0,90.0,4.0,0.0
7835,80.0,2.0,90.0,4.0,0.0
7836,83.0,18.0,90.0,4.0,0.0
7837,80.0,8.0,90.0,4.0,0.0
7838,83.0,2.0,90.0,4.0,0.0
7839,71.0,4.0,90.0,4.0,0.0
7840,62.0,14.0,300.0,8.0,0.0
7841,50.0,6.0,330.0,10.0,0.0
7842,50.0,32.0,270.0,3.0,0.0
7843,38.0,0.0,330.0,11.0,0.0
7844,83.0,8.0,90.0,4.0,0.0
7845,80.0,6.0,90.0,4.0,0.0
7846,71.0,4.0,90.0,4.0,0.0
7847,71.0,0.0,90.0,4.0,0.0
7848,80.0,8.0,90.0,4.0,0.0
7849,83.0,56.0,90.0,4.0,0.0
7850,64.0,4.0,300.0,8.0,0.0
7851,71.0,4.0,420.0,1.0,0.0
7852,76.0,6.0,780.0,1.0,0.0
7853,59.0,76.0,330.0,2.0,0.0
7854,52.0,30.0,270.0,3.0,0.0
7855,83.0,4.0,330.0,0.0,0.0
7856,40.0,0.0,300.0,11.0,0.0
7857,52.0,20.0,300.0,10.0,0.0
7858,88.0,86.0,840.0,0.0,0.0
7859,83.0,102.0,90.0,4.0,0.0
7860,80.0,8.0,90.0,4.0,0.0
7861,71.0,4.0,90.0,4.0,0.0
7862,68.0,22.0,420.0,2.0,0.0
7863,83.0,48.0,90.0,4.0,0.0
7864,71.0,8.0,90.0,4.0,0.0
7865,80.0,10.0,90.0,4.0,0.0
7866,83.0,8.0,90.0,4.0,0.0
7867,38.0,6.0,330.0,11.0,0.0
7868,50.0,16.0,300.0,3.0,0.0
7869,80.0,0.0,90.0,4.0,0.0
7870,62.0,76.0,330.0,8.0,0.0
7871,50.0,0.0,330.0,10.0,0.0
7872,71.0,6.0,90.0,4.0,0.0
7873,80.0,6.0,90.0,4.0,0.0
7874,83.0,84.0,90.0,4.0,0.0
7875,71.0,14.0,90.0,4.0,0.0
7876,49.0,2.0,210.0,10.0,0.0
7877,73.0,24.0,300.0,1.0,0.0
7878,85.0,4.0,270.0,0.0,0.0
7879,81.0,8.0,90.0,4.0,0.0
7880,49.0,6.0,210.0,3.0,0.0
7881,37.0,0.0,210.0,11.0,0.0
7882,61.0,62.0,210.0,8.0,0.0
7883,85.0,6.0,90.0,4.0,0.0
7884,61.0,4.0,210.0,2.0,0.0
7885,73.0,4.0,90.0,4.0,0.0
7886,69.0,20.0,180.0,2.0,0.0
7887,81.0,6.0,90.0,4.0,0.0
7888,85.0,2.0,90.0,4.0,0.0
7889,73.0,4.0,90.0,4.0,0.0
7890,85.0,24.0,90.0,4.0,0.0
7891,73.0,8.0,90.0,4.0,0.0
7892,81.0,6.0,90.0,4.0,0.0
7893,81.0,4.0,90.0,4.0,0.0
7894,85.0,96.0,90.0,4.0,0.0
7895,73.0,10.0,90.0,4.0,0.0
7896,83.0,0.0,90.0,4.0,0.0
7897,71.0,12.0,90.0,4.0,0.0
7898,50.0,44.0,630.0,3.0,0.0
7899,44.0,12.0,60.0,7.0,0.0
7900,38.0,0.0,690.0,11.0,0.0
7901,59.0,14.0,600.0,2.0,0.0
7902,68.0,6.0,630.0,2.0,0.0
7903,89.0,6.0,570.0,0.0,0.0
7904,83.0,6.0,600.0,0.0,0.0
7905,80.0,96.0,90.0,4.0,0.0
7906,65.0,10.0,540.0,8.0,0.0
7907,62.0,8.0,540.0,8.0,0.0
7908,50.0,0.0,690.0,10.0,0.0
7909,71.0,2.0,570.0,1.0,0.0
7910,77.0,0.0,570.0,1.0,0.0
7911,56.0,0.0,660.0,6.0,0.0
7912,68.0,10.0,660.0,6.0,0.0
7913,44.0,12.0,600.0,5.0,0.0
7914,56.0,2.0,600.0,5.0,0.0
7915,44.0,4.0,60.0,7.0,0.0
7916,83.0,100.0,90.0,4.0,0.0
7917,80.0,14.0,90.0,4.0,0.0
7918,71.0,2.0,60.0,4.0,0.0
7919,44.0,12.0,60.0,7.0,0.0
7920,83.0,92.0,90.0,4.0,0.0
7921,80.0,0.0,90.0,4.0,0.0
7922,71.0,10.0,90.0,4.0,0.0
7923,71.0,6.0,90.0,4.0,0.0
7924,80.0,10.0,90.0,4.0,0.0
7925,83.0,90.0,90.0,4.0,0.0
7926,44.0,12.0,60.0,7.0,0.0
7927,44.0,0.0,60.0,7.0,0.0
7928,80.0,2.0,90.0,4.0,0.0
7929,83.0,8.0,90.0,4.0,0.0
7930,71.0,8.0,90.0,4.0,0.0
7931,83.0,86.0,90.0,4.0,0.0
7932,80.0,0.0,90.0,4.0,0.0
7933,44.0,2.0,60.0,7.0,0.0
7934,71.0,4.0,90.0,4.0,0.0
7935,38.0,0.0,90.0,11.0,0.0
7936,77.0,6.0,60.0,1.0,0.0
7937,68.0,8.0,180.0,6.0,0.0
7938,56.0,0.0,180.0,6.0,0.0
7939,71.0,6.0,60.0,1.0,0.0
7940,56.0,4.0,60.0,5.0,0.0
7941,50.0,2.0,90.0,10.0,0.0
7942,50.0,2.0,60.0,3.0,0.0
7943,44.0,2.0,60.0,5.0,0.0
7944,44.0,0.0,90.0,7.0,0.0
7945,83.0,0.0,60.0,0.0,0.0
7946,89.0,0.0,60.0,0.0,0.0
7947,83.0,0.0,90.0,4.0,0.0
7948,65.0,4.0,90.0,8.0,0.0
7949,68.0,102.0,90.0,2.0,0.0
7950,59.0,0.0,60.0,2.0,0.0
7951,62.0,0.0,60.0,8.0,0.0
7952,80.0,4.0,90.0,4.0,0.0
7953,71.0,8.0,60.0,4.0,0.0
7954,71.0,6.0,90.0,4.0,0.0
7955,80.0,4.0,90.0,4.0,0.0
7956,83.0,76.0,90.0,4.0,0.0
7957,83.0,2.0,90.0,4.0,0.0
7958,80.0,0.0,90.0,4.0,0.0
7959,71.0,0.0,60.0,4.0,0.0
7960,38.0,10.0,90.0,11.0,0.0
7961,59.0,4.0,60.0,2.0,0.0
7962,56.0,0.0,180.0,6.0,0.0
7963,56.0,2.0,60.0,5.0,0.0
7964,65.0,4.0,60.0,8.0,0.0
7965,62.0,0.0,60.0,8.0,0.0
7966,83.0,6.0,60.0,0.0,0.0
7967,68.0,8.0,180.0,6.0,0.0
7968,68.0,4.0,90.0,2.0,0.0
7969,50.0,2.0,60.0,3.0,0.0
7970,89.0,2.0,60.0,0.0,0.0
7971,44.0,4.0,60.0,5.0,0.0
7972,44.0,100.0,90.0,7.0,0.0
7973,77.0,2.0,60.0,1.0,0.0
7974,50.0,0.0,90.0,10.0,0.0
7975,71.0,4.0,60.0,1.0,0.0
7976,80.0,2.0,90.0,4.0,0.0
7977,83.0,78.0,90.0,4.0,0.0
7978,71.0,2.0,90.0,4.0,0.0
7979,71.0,6.0,90.0,4.0,0.0
7980,71.0,8.0,30.0,1.0,0.0
7981,77.0,0.0,60.0,1.0,0.0
7982,68.0,0.0,180.0,6.0,0.0
7983,44.0,8.0,60.0,5.0,0.0
7984,56.0,2.0,60.0,5.0,0.0
7985,50.0,2.0,60.0,3.0,0.0
7986,83.0,0.0,90.0,4.0,0.0
7987,80.0,0.0,90.0,4.0,0.0
7988,44.0,4.0,90.0,7.0,0.0
7989,38.0,106.0,90.0,11.0,0.0
7990,59.0,0.0,60.0,2.0,0.0
7991,68.0,2.0,60.0,2.0,0.0
7992,65.0,6.0,60.0,8.0,0.0
7993,89.0,2.0,60.0,0.0,0.0
7994,83.0,2.0,60.0,0.0,0.0
7995,50.0,0.0,90.0,10.0,0.0
7996,62.0,2.0,60.0,8.0,0.0
7997,56.0,12.0,180.0,6.0,0.0
7998,71.0,2.0,90.0,4.0,0.0
7999,80.0,0.0,90.0,4.0,0.0
8000,83.0,108.0,90.0,4.0,0.0
8001,87.0,24.0,870.0,0.0,0.0
8002,84.0,2.0,870.0,0.0,0.0
8003,44.0,6.0,870.0,5.0,0.0
8004,39.0,0.0,90.0,11.0,0.0
8005,51.0,0.0,930.0,3.0,0.0
8006,39.0,90.0,930.0,3.0,0.0
8007,51.0,62.0,90.0,10.0,0.0
8008,56.0,0.0,870.0,5.0,0.0
8009,75.0,16.0,840.0,1.0,0.0
8010,72.0,2.0,870.0,1.0,0.0
8011,51.0,34.0,150.0,8.0,0.0
8012,72.0,4.0,90.0,4.0,0.0
8013,68.0,0.0,870.0,6.0,0.0
8014,84.0,0.0,90.0,4.0,0.0
8015,44.0,12.0,60.0,7.0,0.0
8016,56.0,0.0,870.0,6.0,0.0
8017,80.0,0.0,90.0,4.0,0.0
8018,60.0,10.0,930.0,2.0,0.0
8019,68.0,14.0,870.0,2.0,0.0
8020,44.0,20.0,60.0,7.0,0.0
8021,51.0,2.0,90.0,10.0,0.0
8022,39.0,0.0,90.0,11.0,0.0
8023,63.0,86.0,90.0,8.0,0.0
8024,84.0,4.0,90.0,4.0,0.0
8025,80.0,4.0,90.0,4.0,0.0
8026,51.0,6.0,90.0,10.0,0.0
8027,44.0,20.0,60.0,7.0,0.0
8028,39.0,0.0,90.0,11.0,0.0
8029,63.0,2.0,90.0,8.0,0.0
8030,84.0,2.0,90.0,4.0,0.0
8031,80.0,94.0,90.0,4.0,0.0
8032,80.0,0.0,90.0,4.0,0.0
8033,84.0,8.0,90.0,4.0,0.0
8034,44.0,16.0,60.0,7.0,0.0
8035,63.0,96.0,90.0,8.0,0.0
8036,51.0,0.0,90.0,10.0,0.0
8037,39.0,4.0,90.0,11.0,0.0
8038,39.0,0.0,90.0,11.0,0.0
8039,51.0,2.0,90.0,10.0,0.0
8040,44.0,14.0,60.0,7.0,0.0
8041,63.0,0.0,90.0,8.0,0.0
8042,80.0,96.0,90.0,4.0,0.0
8043,84.0,4.0,90.0,4.0,0.0
8044,80.0,0.0,90.0,4.0,0.0
8045,84.0,0.0,90.0,4.0,0.0
8046,51.0,0.0,90.0,10.0,0.0
8047,63.0,100.0,90.0,8.0,0.0
8048,39.0,8.0,90.0,11.0,0.0
8049,44.0,16.0,60.0,7.0,0.0
8050,51.0,0.0,90.0,10.0,0.0
8051,80.0,0.0,90.0,4.0,0.0
8052,84.0,30.0,90.0,4.0,0.0
8053,44.0,10.0,60.0,7.0,0.0
8054,39.0,10.0,90.0,11.0,0.0
8055,63.0,0.0,90.0,8.0,0.0
8056,84.0,4.0,90.0,4.0,0.0
8057,80.0,8.0,90.0,4.0,0.0
8058,51.0,0.0,90.0,10.0,0.0
8059,39.0,6.0,90.0,11.0,0.0
8060,44.0,12.0,60.0,7.0,0.0
8061,63.0,0.0,90.0,8.0,0.0
8062,73.0,0.0,870.0,1.0,0.0
8063,68.0,6.0,870.0,1.0,0.0
8064,40.0,0.0,90.0,11.0,0.0
8065,68.0,0.0,870.0,6.0,0.0
8066,56.0,0.0,870.0,6.0,0.0
8067,56.0,14.0,870.0,5.0,0.0
8068,44.0,0.0,870.0,5.0,0.0
8069,61.0,22.0,840.0,2.0,0.0
8070,52.0,2.0,900.0,3.0,0.0
8071,68.0,0.0,870.0,2.0,0.0
8072,52.0,4.0,90.0,10.0,0.0
8073,85.0,0.0,90.0,4.0,0.0
8074,44.0,16.0,60.0,7.0,0.0
8075,80.0,4.0,900.0,0.0,0.0
8076,85.0,12.0,870.0,0.0,0.0
8077,52.0,84.0,120.0,8.0,0.0
8078,40.0,18.0,900.0,3.0,0.0
8079,68.0,12.0,90.0,4.0,0.0
8080,64.0,76.0,120.0,8.0,0.0
8081,85.0,2.0,90.0,4.0,0.0
8082,40.0,0.0,90.0,11.0,0.0
8083,44.0,12.0,60.0,7.0,0.0
8084,80.0,18.0,90.0,4.0,0.0
8085,52.0,12.0,90.0,10.0,0.0
8086,40.0,0.0,90.0,11.0,0.0
8087,64.0,8.0,90.0,8.0,0.0
8088,52.0,2.0,90.0,10.0,0.0
8089,44.0,14.0,60.0,7.0,0.0
8090,85.0,88.0,90.0,4.0,0.0
8091,80.0,0.0,90.0,4.0,0.0
8092,52.0,0.0,90.0,10.0,0.0
8093,64.0,0.0,90.0,8.0,0.0
8094,85.0,8.0,90.0,4.0,0.0
8095,80.0,94.0,90.0,4.0,0.0
8096,40.0,8.0,90.0,11.0,0.0
8097,44.0,22.0,60.0,7.0,0.0
8098,85.0,96.0,90.0,4.0,0.0
8099,52.0,0.0,90.0,10.0,0.0
8100,64.0,2.0,90.0,8.0,0.0
8101,40.0,4.0,90.0,11.0,0.0
8102,44.0,10.0,60.0,7.0,0.0
8103,80.0,4.0,90.0,4.0,0.0
8104,64.0,6.0,90.0,8.0,0.0
8105,52.0,0.0,90.0,10.0,0.0
8106,80.0,0.0,90.0,4.0,0.0
8107,85.0,94.0,90.0,4.0,0.0
8108,44.0,14.0,60.0,7.0,0.0
8109,40.0,2.0,90.0,11.0,0.0
8110,85.0,36.0,90.0,4.0,0.0
8111,40.0,0.0,90.0,11.0,0.0
8112,80.0,0.0,90.0,4.0,0.0
8113,64.0,0.0,90.0,8.0,0.0
8114,44.0,20.0,60.0,7.0,0.0
8115,52.0,0.0,90.0,10.0,0.0
8116,64.0,84.0,90.0,8.0,0.0
8117,80.0,8.0,90.0,4.0,0.0
8118,85.0,2.0,90.0,4.0,0.0
8119,40.0,4.0,90.0,11.0,0.0
8120,52.0,0.0,90.0,10.0,0.0
8121,44.0,2.0,60.0,7.0,0.0
8122,86.0,14.0,900.0,0.0,0.0
8123,80.0,20.0,1320.0,1.0,0.0
8124,62.0,4.0,930.0,2.0,0.0
8125,71.0,60.0,960.0,2.0,0.0
8126,68.0,12.0,1290.0,1.0,0.0
8127,83.0,66.0,90.0,4.0,0.0
8128,86.0,2.0,90.0,4.0,0.0
8129,44.0,24.0,60.0,7.0,0.0
8130,53.0,0.0,90.0,10.0,0.0
8131,68.0,0.0,1290.0,6.0,0.0
8132,56.0,0.0,1350.0,6.0,0.0
8133,41.0,12.0,900.0,3.0,0.0
8134,53.0,16.0,870.0,3.0,0.0
8135,44.0,28.0,1350.0,5.0,0.0
8136,56.0,2.0,1290.0,5.0,0.0
8137,83.0,20.0,870.0,0.0,0.0
8138,41.0,8.0,90.0,11.0,0.0
8139,53.0,30.0,150.0,8.0,0.0
8140,53.0,0.0,90.0,10.0,0.0
8141,65.0,0.0,90.0,8.0,0.0
8142,41.0,2.0,90.0,11.0,0.0
8143,83.0,90.0,90.0,4.0,0.0
8144,44.0,14.0,60.0,7.0,0.0
8145,86.0,10.0,90.0,4.0,0.0
8146,65.0,0.0,90.0,8.0,0.0
8147,44.0,10.0,60.0,7.0,0.0
8148,83.0,94.0,90.0,4.0,0.0
8149,86.0,6.0,90.0,4.0,0.0
8150,53.0,0.0,90.0,10.0,0.0
8151,41.0,18.0,90.0,11.0,0.0
8152,86.0,2.0,90.0,4.0,0.0
8153,83.0,104.0,90.0,4.0,0.0
8154,65.0,2.0,90.0,8.0,0.0
8155,41.0,6.0,90.0,11.0,0.0
8156,53.0,0.0,90.0,10.0,0.0
8157,44.0,8.0,60.0,7.0,0.0
8158,53.0,0.0,90.0,10.0,0.0
8159,86.0,2.0,90.0,4.0,0.0
8160,44.0,4.0,90.0,7.0,0.0
8161,65.0,4.0,90.0,8.0,0.0
8162,41.0,0.0,90.0,11.0,0.0
8163,83.0,108.0,90.0,4.0,0.0
8164,53.0,0.0,90.0,10.0,0.0
8165,65.0,8.0,90.0,8.0,0.0
8166,44.0,10.0,60.0,7.0,0.0
8167,41.0,0.0,90.0,11.0,0.0
8168,86.0,2.0,90.0,4.0,0.0
8169,83.0,96.0,90.0,4.0,0.0
8170,44.0,10.0,60.0,7.0,0.0
8171,83.0,48.0,90.0,4.0,0.0
8172,41.0,0.0,90.0,11.0,0.0
8173,86.0,2.0,90.0,4.0,0.0
8174,53.0,2.0,90.0,10.0,0.0
8175,65.0,8.0,90.0,8.0,0.0
8176,86.0,16.0,90.0,4.0,0.0
8177,65.0,0.0,90.0,8.0,0.0
8178,41.0,0.0,90.0,11.0,0.0
8179,44.0,2.0,60.0,7.0,0.0
8180,83.0,6.0,90.0,4.0,0.0
8181,53.0,6.0,90.0,10.0,0.0
8182,39.0,20.0,60.0,7.0,0.0
8183,87.0,86.0,450.0,0.0,0.0
8184,72.0,20.0,330.0,2.0,0.0
8185,39.0,0.0,60.0,11.0,0.0
8186,41.0,14.0,60.0,11.0,0.0
8187,63.0,0.0,90.0,8.0,0.0
8188,84.0,0.0,420.0,0.0,0.0
8189,84.0,84.0,90.0,4.0,0.0
8190,63.0,2.0,420.0,2.0,0.0
8191,39.0,0.0,450.0,3.0,0.0
8192,87.0,10.0,90.0,4.0,0.0
8193,51.0,10.0,420.0,3.0,0.0
8194,53.0,0.0,60.0,10.0,0.0
8195,51.0,0.0,60.0,10.0,0.0
8196,87.0,2.0,90.0,4.0,0.0
8197,39.0,0.0,90.0,11.0,0.0
8198,39.0,18.0,60.0,7.0,0.0
8199,63.0,0.0,90.0,8.0,0.0
8200,84.0,98.0,90.0,4.0,0.0
8201,51.0,2.0,90.0,10.0,0.0
8202,63.0,10.0,90.0,8.0,0.0
8203,39.0,0.0,60.0,11.0,0.0
8204,87.0,0.0,90.0,4.0,0.0
8205,84.0,6.0,60.0,4.0,0.0
8206,39.0,8.0,60.0,7.0,0.0
8207,51.0,2.0,60.0,10.0,0.0
8208,39.0,6.0,60.0,7.0,0.0
8209,51.0,12.0,60.0,10.0,0.0
8210,63.0,8.0,90.0,8.0,0.0
8211,84.0,2.0,90.0,4.0,0.0
8212,87.0,2.0,90.0,4.0,0.0
8213,39.0,0.0,60.0,11.0,0.0
8214,79.0,18.0,390.0,0.0,0.0
8215,79.0,84.0,90.0,4.0,0.0
8216,73.0,18.0,330.0,1.0,0.0
8217,70.0,14.0,360.0,1.0,0.0
8218,73.0,4.0,90.0,4.0,0.0
8219,27.0,12.0,90.0,11.0,0.0
8220,51.0,12.0,360.0,3.0,0.0
8221,73.0,30.0,420.0,0.0,0.0
8222,39.0,10.0,390.0,3.0,0.0
8223,39.0,20.0,60.0,7.0,0.0
8224,61.0,0.0,450.0,2.0,0.0
8225,70.0,0.0,330.0,6.0,0.0
8226,67.0,64.0,480.0,2.0,0.0
8227,58.0,0.0,90.0,8.0,0.0
8228,51.0,6.0,330.0,5.0,0.0
8229,58.0,2.0,330.0,5.0,0.0
8230,39.0,0.0,90.0,10.0,0.0
8231,63.0,0.0,330.0,6.0,0.0
8232,58.0,6.0,90.0,8.0,0.0
8233,27.0,0.0,90.0,11.0,0.0
8234,39.0,16.0,60.0,7.0,0.0
8235,39.0,2.0,90.0,10.0,0.0
8236,73.0,6.0,90.0,4.0,0.0
8237,79.0,96.0,90.0,4.0,0.0
8238,27.0,4.0,90.0,11.0,0.0
8239,39.0,0.0,60.0,7.0,0.0
8240,79.0,2.0,90.0,4.0,0.0
8241,58.0,12.0,90.0,8.0,0.0
8242,39.0,0.0,90.0,10.0,0.0
8243,73.0,10.0,60.0,4.0,0.0
8244,58.0,2.0,90.0,8.0,0.0
8245,39.0,4.0,90.0,10.0,0.0
8246,27.0,0.0,90.0,11.0,0.0
8247,79.0,0.0,90.0,4.0,0.0
8248,73.0,18.0,90.0,4.0,0.0
8249,39.0,4.0,90.0,7.0,0.0
8250,44.0,0.0,870.0,10.0,0.0
8251,44.0,0.0,90.0,7.0,0.0
8252,56.0,90.0,690.0,8.0,0.0
8253,80.0,2.0,90.0,4.0,0.0
8254,72.0,4.0,90.0,1.0,0.0
8255,56.0,86.0,120.0,5.0,0.0
8256,72.0,28.0,60.0,4.0,0.0
8257,72.0,0.0,90.0,0.0,0.0
8258,32.0,10.0,870.0,11.0,0.0
8259,80.0,4.0,90.0,0.0,0.0
8260,68.0,6.0,120.0,2.0,0.0
8261,56.0,2.0,90.0,3.0,0.0
8262,44.0,4.0,90.0,3.0,0.0
8263,68.0,4.0,90.0,1.0,0.0
8264,68.0,2.0,90.0,6.0,0.0
8265,48.0,4.0,120.0,5.0,0.0
8266,56.0,0.0,90.0,6.0,0.0
8267,60.0,0.0,90.0,2.0,0.0
8268,63.0,116.0,90.0,4.0,0.0
8269,51.0,2.0,90.0,4.0,0.0
8270,65.0,116.0,90.0,4.0,0.0
8271,53.0,4.0,90.0,4.0,0.0
8272,67.0,108.0,90.0,4.0,0.0
8273,55.0,4.0,90.0,4.0,0.0
8274,80.0,28.0,90.0,0.0,0.0
8275,68.0,78.0,120.0,6.0,0.0
8276,56.0,0.0,120.0,6.0,0.0
8277,44.0,0.0,120.0,7.0,0.0
8278,44.0,4.0,360.0,3.0,0.0
8279,56.0,6.0,360.0,3.0,0.0
8280,68.0,0.0,90.0,4.0,0.0
8281,56.0,12.0,60.0,4.0,0.0
8282,68.0,28.0,390.0,2.0,0.0
8283,60.0,10.0,390.0,2.0,0.0
8284,44.0,16.0,330.0,5.0,0.0
8285,56.0,24.0,330.0,5.0,0.0
8286,68.0,0.0,360.0,1.0,0.0
8287,72.0,6.0,390.0,1.0,0.0
8288,70.0,18.0,90.0,4.0,0.0
8289,58.0,14.0,60.0,4.0,0.0
8290,60.0,12.0,60.0,4.0,0.0
8291,72.0,2.0,90.0,4.0,0.0
8292,70.0,116.0,90.0,4.0,0.0
8293,58.0,14.0,60.0,4.0,0.0
8294,29.0,20.0,870.0,11.0,0.0
8295,69.0,110.0,90.0,4.0,0.0
8296,57.0,4.0,90.0,4.0,0.0
8297,41.0,0.0,870.0,10.0,0.0
8298,53.0,0.0,900.0,8.0,0.0
8299,67.0,120.0,90.0,4.0,0.0
8300,55.0,10.0,60.0,4.0,0.0
8301,53.0,110.0,90.0,4.0,0.0
8302,65.0,0.0,90.0,4.0,0.0
8303,67.0,118.0,90.0,4.0,0.0
8304,55.0,10.0,60.0,4.0,0.0
8305,69.0,116.0,90.0,4.0,0.0
8306,57.0,2.0,90.0,4.0,0.0
8307,48.0,6.0,390.0,5.0,0.0
8308,69.0,8.0,450.0,1.0,0.0
8309,41.0,0.0,450.0,3.0,0.0
8310,69.0,0.0,450.0,2.0,0.0
8311,81.0,86.0,240.0,0.0,0.0
8312,60.0,14.0,420.0,2.0,0.0
8313,60.0,10.0,420.0,5.0,0.0
8314,72.0,94.0,450.0,1.0,0.0
8315,53.0,0.0,450.0,3.0,0.0
8316,70.0,26.0,90.0,4.0,0.0
8317,58.0,4.0,90.0,4.0,0.0
8318,60.0,8.0,90.0,4.0,0.0
8319,72.0,62.0,90.0,4.0,0.0
8320,57.0,8.0,90.0,4.0,0.0
8321,69.0,8.0,90.0,4.0,0.0
8322,46.0,32.0,840.0,10.0,0.0
8323,70.0,120.0,90.0,4.0,0.0
8324,58.0,10.0,60.0,4.0,0.0
8325,58.0,10.0,870.0,8.0,0.0
8326,34.0,0.0,840.0,11.0,0.0
8327,53.0,0.0,90.0,4.0,0.0
8328,65.0,112.0,90.0,4.0,0.0
8329,67.0,116.0,90.0,4.0,0.0
8330,55.0,8.0,90.0,4.0,0.0
8331,69.0,120.0,90.0,4.0,0.0
8332,57.0,4.0,90.0,4.0,0.0
8333,58.0,0.0,390.0,5.0,0.0
8334,46.0,0.0,420.0,3.0,0.0
8335,58.0,8.0,450.0,3.0,0.0
8336,82.0,60.0,240.0,0.0,0.0
8337,70.0,2.0,450.0,2.0,0.0
8338,61.0,98.0,450.0,2.0,0.0
8339,61.0,20.0,420.0,5.0,0.0
8340,70.0,2.0,90.0,4.0,0.0
8341,58.0,114.0,90.0,4.0,0.0
8342,70.0,0.0,420.0,1.0,0.0
8343,73.0,2.0,420.0,1.0,0.0
8344,72.0,50.0,90.0,4.0,0.0
8345,60.0,4.0,90.0,4.0,0.0
8346,73.0,48.0,90.0,4.0,0.0
8347,61.0,10.0,60.0,4.0,0.0
8348,70.0,2.0,90.0,4.0,0.0
8349,58.0,8.0,90.0,4.0,0.0
8350,55.0,10.0,60.0,4.0,0.0
8351,27.0,18.0,870.0,11.0,0.0
8352,67.0,118.0,90.0,4.0,0.0
8353,39.0,0.0,870.0,10.0,0.0
8354,51.0,6.0,900.0,8.0,0.0
8355,65.0,116.0,90.0,4.0,0.0
8356,53.0,2.0,90.0,4.0,0.0
8357,63.0,110.0,90.0,4.0,0.0
8358,51.0,4.0,90.0,4.0,0.0
8359,53.0,10.0,60.0,4.0,0.0
8360,65.0,108.0,90.0,4.0,0.0
8361,39.0,0.0,120.0,7.0,0.0
8362,39.0,24.0,450.0,3.0,0.0
8363,67.0,2.0,450.0,1.0,0.0
8364,51.0,78.0,120.0,6.0,0.0
8365,63.0,0.0,120.0,6.0,0.0
8366,58.0,0.0,450.0,5.0,0.0
8367,70.0,6.0,450.0,1.0,0.0
8368,51.0,68.0,480.0,3.0,0.0
8369,51.0,4.0,420.0,5.0,0.0
8370,79.0,2.0,300.0,0.0,0.0
8371,55.0,12.0,60.0,4.0,0.0
8372,58.0,6.0,450.0,2.0,0.0
8373,67.0,10.0,450.0,2.0,0.0
8374,67.0,30.0,90.0,4.0,0.0
8375,68.0,100.0,90.0,4.0,0.0
8376,56.0,12.0,60.0,4.0,0.0
8377,70.0,78.0,90.0,4.0,0.0
8378,58.0,18.0,60.0,4.0,0.0
8379,67.0,2.0,90.0,4.0,0.0
8380,55.0,6.0,60.0,4.0,0.0
8381,68.0,116.0,90.0,4.0,0.0
8382,56.0,10.0,60.0,4.0,0.0
8383,32.0,0.0,870.0,11.0,0.0
8384,44.0,6.0,870.0,10.0,0.0
8385,56.0,8.0,870.0,8.0,0.0
8386,63.0,116.0,90.0,4.0,0.0
8387,51.0,4.0,90.0,4.0,0.0
8388,65.0,110.0,90.0,4.0,0.0
8389,53.0,4.0,90.0,4.0,0.0
8390,55.0,10.0,60.0,4.0,0.0
8391,67.0,120.0,90.0,4.0,0.0
8392,56.0,104.0,90.0,4.0,0.0
8393,80.0,30.0,360.0,0.0,0.0
8394,84.0,6.0,420.0,0.0,0.0
8395,56.0,0.0,420.0,3.0,0.0
8396,44.0,0.0,420.0,3.0,0.0
8397,56.0,0.0,450.0,6.0,0.0
8398,56.0,14.0,420.0,5.0,0.0
8399,44.0,4.0,450.0,7.0,0.0
8400,68.0,4.0,450.0,1.0,0.0
8401,72.0,8.0,450.0,1.0,0.0
8402,60.0,6.0,450.0,2.0,0.0
8403,68.0,0.0,450.0,6.0,0.0
8404,68.0,2.0,90.0,4.0,0.0
8405,56.0,96.0,450.0,2.0,0.0
8406,60.0,6.0,420.0,5.0,0.0
8407,58.0,14.0,60.0,4.0,0.0
8408,70.0,108.0,90.0,4.0,0.0
8409,60.0,12.0,60.0,4.0,0.0
8410,72.0,38.0,90.0,4.0,0.0
8411,70.0,2.0,90.0,4.0,0.0
8412,58.0,4.0,60.0,4.0,0.0
8413,53.0,2.0,930.0,8.0,0.0
8414,41.0,0.0,870.0,10.0,0.0
8415,29.0,6.0,870.0,11.0,0.0
8416,69.0,102.0,90.0,4.0,0.0
8417,57.0,8.0,90.0,4.0,0.0
8418,67.0,116.0,90.0,4.0,0.0
8419,55.0,18.0,60.0,4.0,0.0
8420,65.0,102.0,90.0,4.0,0.0
8421,53.0,4.0,90.0,4.0,0.0
8422,55.0,18.0,60.0,4.0,0.0
8423,67.0,118.0,90.0,4.0,0.0
8424,41.0,6.0,450.0,3.0,0.0
8425,81.0,0.0,450.0,0.0,0.0
8426,84.0,74.0,480.0,0.0,0.0
8427,60.0,34.0,390.0,5.0,0.0
8428,69.0,18.0,450.0,1.0,0.0
8429,72.0,6.0,450.0,1.0,0.0
8430,53.0,2.0,450.0,3.0,0.0
8431,60.0,6.0,420.0,2.0,0.0
8432,57.0,4.0,450.0,2.0,0.0
8433,69.0,108.0,90.0,4.0,0.0
8434,57.0,2.0,90.0,4.0,0.0
8435,70.0,116.0,90.0,4.0,0.0
8436,58.0,12.0,60.0,4.0,0.0
8437,60.0,4.0,90.0,4.0,0.0
8438,72.0,66.0,90.0,4.0,0.0
8439,57.0,4.0,90.0,4.0,0.0
8440,69.0,2.0,90.0,4.0,0.0
8441,58.0,14.0,900.0,8.0,0.0
8442,58.0,10.0,60.0,4.0,0.0
8443,46.0,0.0,840.0,10.0,0.0
8444,70.0,118.0,90.0,4.0,0.0
8445,34.0,34.0,840.0,11.0,0.0
8446,53.0,2.0,90.0,4.0,0.0
8447,65.0,110.0,90.0,4.0,0.0
8448,67.0,116.0,90.0,4.0,0.0
8449,55.0,10.0,60.0,4.0,0.0
8450,69.0,120.0,90.0,4.0,0.0
8451,57.0,4.0,90.0,4.0,0.0
8452,61.0,0.0,450.0,2.0,0.0
8453,58.0,10.0,480.0,2.0,0.0
8454,73.0,6.0,450.0,1.0,0.0
8455,58.0,4.0,450.0,3.0,0.0
8456,70.0,2.0,90.0,4.0,0.0
8457,46.0,0.0,450.0,3.0,0.0
8458,70.0,4.0,450.0,1.0,0.0
8459,85.0,80.0,480.0,0.0,0.0
8460,82.0,6.0,450.0,0.0,0.0
8461,61.0,30.0,390.0,5.0,0.0
8462,58.0,2.0,390.0,5.0,0.0
8463,58.0,100.0,90.0,4.0,0.0
8464,72.0,116.0,90.0,4.0,0.0
8465,60.0,18.0,60.0,4.0,0.0
8466,61.0,4.0,90.0,4.0,0.0
8467,73.0,32.0,90.0,4.0,0.0
8468,70.0,6.0,90.0,4.0,0.0
8469,58.0,8.0,90.0,4.0,0.0
8470,39.0,4.0,930.0,10.0,0.0
8471,55.0,4.0,90.0,4.0,0.0
8472,51.0,6.0,900.0,8.0,0.0
8473,27.0,0.0,930.0,11.0,0.0
8474,67.0,116.0,90.0,4.0,0.0
8475,53.0,4.0,90.0,4.0,0.0
8476,65.0,120.0,90.0,4.0,0.0
8477,51.0,108.0,90.0,4.0,0.0
8478,63.0,2.0,90.0,4.0,0.0
8479,65.0,110.0,90.0,4.0,0.0
8480,53.0,10.0,60.0,4.0,0.0
8481,55.0,6.0,390.0,2.0,0.0
8482,58.0,6.0,330.0,5.0,0.0
8483,58.0,8.0,390.0,2.0,0.0
8484,67.0,42.0,90.0,4.0,0.0
8485,39.0,6.0,390.0,3.0,0.0
8486,51.0,18.0,330.0,5.0,0.0
8487,82.0,16.0,360.0,0.0,0.0
8488,79.0,2.0,390.0,0.0,0.0
8489,51.0,0.0,120.0,6.0,0.0
8490,67.0,12.0,360.0,1.0,0.0
8491,63.0,68.0,120.0,6.0,0.0
8492,70.0,2.0,360.0,1.0,0.0
8493,39.0,0.0,120.0,7.0,0.0
8494,55.0,10.0,60.0,4.0,0.0
8495,51.0,18.0,390.0,3.0,0.0
8496,56.0,10.0,60.0,4.0,0.0
8497,68.0,108.0,90.0,4.0,0.0
8498,70.0,2.0,90.0,4.0,0.0
8499,58.0,12.0,60.0,4.0,0.0
8500,67.0,108.0,90.0,4.0,0.0
8501,55.0,14.0,60.0,4.0,0.0
8502,60.0,2.0,360.0,5.0,0.0
8503,56.0,6.0,330.0,5.0,0.0
8504,32.0,0.0,360.0,11.0,0.0
8505,56.0,0.0,360.0,2.0,0.0
8506,56.0,4.0,420.0,8.0,0.0
8507,72.0,14.0,330.0,1.0,0.0
8508,68.0,4.0,360.0,1.0,0.0
8509,68.0,0.0,330.0,6.0,0.0
8510,80.0,2.0,360.0,0.0,0.0
8511,84.0,6.0,390.0,0.0,0.0
8512,44.0,20.0,360.0,10.0,0.0
8513,56.0,12.0,390.0,3.0,0.0
8514,44.0,28.0,390.0,3.0,0.0
8515,44.0,68.0,120.0,7.0,0.0
8516,56.0,12.0,60.0,4.0,0.0
8517,68.0,40.0,90.0,4.0,0.0
8518,60.0,10.0,360.0,2.0,0.0
8519,72.0,0.0,360.0,6.0,0.0
8520,70.0,112.0,90.0,4.0,0.0
8521,58.0,12.0,60.0,4.0,0.0
8522,72.0,2.0,90.0,4.0,0.0
8523,60.0,8.0,90.0,4.0,0.0
8524,68.0,116.0,90.0,4.0,0.0
8525,56.0,10.0,60.0,4.0,0.0
8526,41.0,0.0,360.0,10.0,0.0
8527,69.0,110.0,90.0,4.0,0.0
8528,60.0,4.0,330.0,5.0,0.0
8529,53.0,0.0,300.0,8.0,0.0
8530,57.0,18.0,390.0,2.0,0.0
8531,60.0,12.0,390.0,2.0,0.0
8532,29.0,18.0,360.0,11.0,0.0
8533,69.0,6.0,300.0,1.0,0.0
8534,72.0,34.0,330.0,1.0,0.0
8535,53.0,2.0,420.0,3.0,0.0
8536,84.0,20.0,420.0,0.0,0.0
8537,57.0,4.0,90.0,4.0,0.0
8538,41.0,6.0,420.0,3.0,0.0
8539,72.0,0.0,330.0,6.0,0.0
8540,81.0,0.0,390.0,0.0,0.0
8541,58.0,10.0,60.0,4.0,0.0
8542,70.0,106.0,90.0,4.0,0.0
8543,60.0,4.0,60.0,4.0,0.0
8544,72.0,8.0,90.0,4.0,0.0
8545,69.0,112.0,90.0,4.0,0.0
8546,57.0,2.0,90.0,4.0,0.0
8547,85.0,12.0,390.0,0.0,0.0
8548,73.0,0.0,420.0,6.0,0.0
8549,70.0,8.0,330.0,6.0,0.0
8550,46.0,0.0,330.0,10.0,0.0
8551,70.0,116.0,90.0,4.0,0.0
8552,82.0,22.0,360.0,0.0,0.0
8553,73.0,4.0,300.0,1.0,0.0
8554,58.0,8.0,90.0,4.0,0.0
8555,34.0,6.0,330.0,11.0,0.0
8556,70.0,10.0,300.0,1.0,0.0
8557,46.0,20.0,420.0,3.0,0.0
8558,58.0,0.0,360.0,2.0,0.0
8559,61.0,2.0,450.0,2.0,0.0
8560,58.0,22.0,360.0,3.0,0.0
8561,58.0,8.0,420.0,8.0,0.0
8562,58.0,0.0,330.0,5.0,0.0
8563,61.0,2.0,420.0,5.0,0.0
8564,72.0,106.0,90.0,4.0,0.0
8565,60.0,4.0,90.0,4.0,0.0
8566,73.0,12.0,90.0,4.0,0.0
8567,61.0,0.0,60.0,4.0,0.0
8568,58.0,6.0,90.0,4.0,0.0
8569,70.0,120.0,90.0,4.0,0.0
8570,27.0,0.0,360.0,11.0,0.0
8571,51.0,10.0,360.0,8.0,0.0
8572,58.0,30.0,360.0,5.0,0.0
8573,63.0,0.0,330.0,6.0,0.0
8574,51.0,0.0,330.0,5.0,0.0
8575,55.0,2.0,270.0,2.0,0.0
8576,39.0,58.0,150.0,7.0,0.0
8577,51.0,10.0,330.0,3.0,0.0
8578,39.0,16.0,300.0,3.0,0.0
8579,70.0,0.0,360.0,6.0,0.0
8580,58.0,2.0,390.0,2.0,0.0
8581,79.0,16.0,360.0,0.0,0.0
8582,55.0,50.0,90.0,4.0,0.0
8583,67.0,2.0,90.0,4.0,0.0
8584,39.0,0.0,360.0,10.0,0.0
8585,70.0,10.0,330.0,1.0,0.0
8586,67.0,12.0,270.0,1.0,0.0
8587,82.0,40.0,390.0,0.0,0.0
8588,68.0,78.0,90.0,4.0,0.0
8589,56.0,10.0,60.0,4.0,0.0
8590,70.0,2.0,90.0,4.0,0.0
8591,58.0,12.0,60.0,4.0,0.0
8592,55.0,88.0,90.0,4.0,0.0
8593,67.0,2.0,90.0,4.0,0.0
8594,56.0,0.0,90.0,8.0,0.0
8595,44.0,0.0,90.0,10.0,0.0
8596,68.0,0.0,90.0,6.0,0.0
8597,72.0,0.0,90.0,6.0,0.0
8598,60.0,10.0,60.0,2.0,0.0
8599,56.0,4.0,60.0,2.0,0.0
8600,32.0,16.0,90.0,11.0,0.0
8601,80.0,0.0,60.0,0.0,0.0
8602,60.0,0.0,90.0,5.0,0.0
8603,44.0,2.0,60.0,3.0,0.0
8604,68.0,0.0,60.0,1.0,0.0
8605,44.0,4.0,90.0,7.0,0.0
8606,56.0,4.0,90.0,5.0,0.0
8607,72.0,8.0,60.0,1.0,0.0
8608,56.0,0.0,90.0,4.0,0.0
8609,68.0,12.0,90.0,4.0,0.0
8610,84.0,68.0,120.0,0.0,0.0
8611,56.0,2.0,60.0,3.0,0.0
8612,44.0,16.0,60.0,7.0,0.0
8613,32.0,0.0,90.0,11.0,0.0
8614,58.0,4.0,90.0,4.0,0.0
8615,70.0,6.0,90.0,4.0,0.0
8616,44.0,10.0,90.0,10.0,0.0
8617,56.0,60.0,90.0,8.0,0.0
8618,60.0,0.0,60.0,4.0,0.0
8619,68.0,12.0,60.0,2.0,0.0
8620,60.0,6.0,60.0,2.0,0.0
8621,56.0,4.0,90.0,8.0,0.0
8622,72.0,0.0,90.0,6.0,0.0
8623,60.0,4.0,90.0,6.0,0.0
8624,72.0,2.0,90.0,4.0,0.0
8625,68.0,2.0,60.0,1.0,0.0
8626,32.0,0.0,90.0,11.0,0.0
8627,72.0,0.0,60.0,1.0,0.0
8628,60.0,0.0,90.0,5.0,0.0
8629,48.0,0.0,90.0,5.0,0.0
8630,44.0,6.0,90.0,10.0,0.0
8631,44.0,20.0,30.0,3.0,0.0
8632,56.0,0.0,60.0,3.0,0.0
8633,44.0,0.0,60.0,7.0,0.0
8634,80.0,4.0,60.0,0.0,0.0
8635,84.0,80.0,90.0,0.0,0.0
8636,32.0,2.0,90.0,11.0,0.0
8637,56.0,14.0,60.0,4.0,0.0
8638,68.0,6.0,90.0,4.0,0.0
8639,56.0,58.0,90.0,8.0,0.0
8640,44.0,10.0,60.0,7.0,0.0
8641,44.0,0.0,90.0,10.0,0.0
8642,60.0,0.0,60.0,2.0,0.0
8643,53.0,96.0,90.0,8.0,0.0
8644,48.0,0.0,90.0,5.0,0.0
8645,60.0,0.0,90.0,5.0,0.0
8646,72.0,4.0,60.0,1.0,0.0
8647,69.0,4.0,60.0,1.0,0.0
8648,72.0,0.0,90.0,6.0,0.0
8649,60.0,4.0,90.0,6.0,0.0
8650,53.0,0.0,60.0,3.0,0.0
8651,41.0,4.0,60.0,3.0,0.0
8652,43.0,22.0,30.0,3.0,0.0
8653,57.0,2.0,90.0,4.0,0.0
8654,29.0,0.0,90.0,11.0,0.0
8655,69.0,6.0,60.0,2.0,0.0
8656,41.0,4.0,90.0,10.0,0.0
8657,69.0,2.0,90.0,4.0,0.0
8658,84.0,10.0,90.0,0.0,0.0
8659,81.0,12.0,60.0,0.0,0.0
8660,29.0,0.0,90.0,11.0,0.0
8661,41.0,70.0,90.0,10.0,0.0
8662,53.0,0.0,90.0,8.0,0.0
8663,58.0,4.0,90.0,4.0,0.0
8664,70.0,12.0,90.0,4.0,0.0
8665,53.0,2.0,90.0,8.0,0.0
8666,48.0,0.0,90.0,5.0,0.0
8667,60.0,0.0,90.0,5.0,0.0
8668,60.0,8.0,60.0,2.0,0.0
8669,41.0,8.0,60.0,3.0,0.0
8670,53.0,2.0,60.0,3.0,0.0
8671,69.0,2.0,60.0,2.0,0.0
8672,72.0,6.0,60.0,1.0,0.0
8673,41.0,6.0,90.0,10.0,0.0
8674,84.0,4.0,90.0,0.0,0.0
8675,81.0,10.0,60.0,0.0,0.0
8676,60.0,0.0,90.0,6.0,0.0
8677,29.0,0.0,90.0,11.0,0.0
8678,60.0,0.0,60.0,4.0,0.0
8679,72.0,0.0,90.0,4.0,0.0
8680,72.0,96.0,90.0,6.0,0.0
8681,69.0,2.0,60.0,1.0,0.0
8682,53.0,88.0,90.0,8.0,0.0
8683,41.0,2.0,90.0,10.0,0.0
8684,29.0,0.0,90.0,11.0,0.0
8685,57.0,12.0,60.0,4.0,0.0
8686,69.0,10.0,90.0,4.0,0.0
8687,61.0,6.0,60.0,2.0,0.0
8688,70.0,8.0,90.0,4.0,0.0
8689,70.0,0.0,90.0,6.0,0.0
8690,58.0,2.0,60.0,4.0,0.0
8691,58.0,0.0,90.0,8.0,0.0
8692,46.0,6.0,90.0,3.0,0.0
8693,70.0,2.0,60.0,2.0,0.0
8694,34.0,0.0,90.0,11.0,0.0
8695,58.0,2.0,90.0,3.0,0.0
8696,70.0,0.0,60.0,1.0,0.0
8697,73.0,0.0,60.0,1.0,0.0
8698,58.0,0.0,90.0,5.0,0.0
8699,73.0,98.0,90.0,6.0,0.0
8700,61.0,0.0,90.0,5.0,0.0
8701,85.0,0.0,90.0,0.0,0.0
8702,46.0,4.0,90.0,10.0,0.0
8703,82.0,2.0,60.0,0.0,0.0
8704,46.0,78.0,90.0,10.0,0.0
8705,60.0,10.0,60.0,4.0,0.0
8706,58.0,4.0,90.0,8.0,0.0
8707,72.0,6.0,90.0,4.0,0.0
8708,34.0,0.0,90.0,11.0,0.0
8709,73.0,0.0,60.0,1.0,0.0
8710,58.0,0.0,90.0,8.0,0.0
8711,46.0,2.0,60.0,3.0,0.0
8712,58.0,2.0,60.0,3.0,0.0
8713,61.0,0.0,90.0,5.0,0.0
8714,58.0,0.0,90.0,5.0,0.0
8715,70.0,100.0,90.0,6.0,0.0
8716,61.0,6.0,60.0,4.0,0.0
8717,73.0,8.0,90.0,4.0,0.0
8718,73.0,0.0,90.0,6.0,0.0
8719,46.0,0.0,90.0,10.0,0.0
8720,34.0,4.0,90.0,11.0,0.0
8721,82.0,4.0,90.0,0.0,0.0
8722,85.0,4.0,90.0,0.0,0.0
8723,61.0,8.0,60.0,2.0,0.0
8724,70.0,6.0,60.0,1.0,0.0
8725,70.0,0.0,60.0,2.0,0.0
8726,70.0,0.0,90.0,4.0,0.0
8727,34.0,78.0,90.0,11.0,0.0
8728,58.0,8.0,90.0,8.0,0.0
8729,58.0,8.0,90.0,4.0,0.0
8730,46.0,0.0,90.0,10.0,0.0
8731,58.0,0.0,90.0,5.0,0.0
8732,51.0,0.0,90.0,5.0,0.0
8733,70.0,8.0,90.0,6.0,0.0
8734,51.0,0.0,60.0,3.0,0.0
8735,58.0,4.0,60.0,2.0,0.0
8736,67.0,2.0,60.0,2.0,0.0
8737,39.0,10.0,60.0,3.0,0.0
8738,63.0,0.0,90.0,6.0,0.0
8739,39.0,6.0,60.0,7.0,0.0
8740,79.0,8.0,90.0,0.0,0.0
8741,67.0,12.0,60.0,1.0,0.0
8742,27.0,80.0,90.0,11.0,0.0
8743,67.0,2.0,90.0,4.0,0.0
8744,51.0,2.0,90.0,8.0,0.0
8745,70.0,0.0,60.0,1.0,0.0
8746,82.0,0.0,90.0,0.0,0.0
8747,39.0,0.0,90.0,10.0,0.0
8748,55.0,0.0,90.0,4.0,0.0
8749,51.0,20.0,90.0,8.0,0.0
8750,39.0,66.0,90.0,10.0,0.0
8751,27.0,0.0,90.0,11.0,0.0
8752,56.0,4.0,90.0,4.0,0.0
8753,39.0,16.0,60.0,7.0,0.0
8754,68.0,0.0,90.0,4.0,0.0
8755,58.0,0.0,90.0,5.0,0.0
8756,67.0,4.0,60.0,1.0,0.0
8757,79.0,4.0,90.0,0.0,0.0
8758,39.0,0.0,60.0,7.0,0.0
8759,58.0,4.0,90.0,4.0,0.0
8760,70.0,2.0,90.0,4.0,0.0
8761,70.0,104.0,90.0,6.0,0.0
8762,51.0,0.0,90.0,5.0,0.0
8763,63.0,0.0,90.0,6.0,0.0
8764,27.0,0.0,90.0,11.0,0.0
8765,51.0,4.0,90.0,8.0,0.0
8766,51.0,4.0,60.0,3.0,0.0
8767,58.0,6.0,60.0,2.0,0.0
8768,39.0,0.0,60.0,3.0,0.0
8769,39.0,0.0,90.0,10.0,0.0
8770,70.0,6.0,60.0,1.0,0.0
8771,67.0,6.0,60.0,2.0,0.0
8772,82.0,6.0,90.0,0.0,0.0
8773,67.0,8.0,90.0,4.0,0.0
8774,39.0,0.0,90.0,7.0,0.0
8775,51.0,10.0,90.0,8.0,0.0
8776,39.0,0.0,90.0,10.0,0.0
8777,27.0,78.0,90.0,11.0,0.0
8778,55.0,4.0,90.0,4.0,0.0
8779,68.0,4.0,60.0,6.0,0.0
8780,60.0,14.0,90.0,2.0,0.0
8781,68.0,20.0,90.0,2.0,0.0
8782,56.0,0.0,60.0,5.0,0.0
8783,56.0,8.0,60.0,4.0,0.0
8784,44.0,0.0,90.0,7.0,0.0
8785,80.0,8.0,120.0,0.0,0.0
8786,56.0,88.0,1170.0,8.0,0.0
8787,56.0,4.0,90.0,3.0,0.0
8788,44.0,24.0,150.0,3.0,0.0
8789,68.0,40.0,180.0,1.0,0.0
8790,32.0,0.0,1080.0,11.0,0.0
8791,60.0,0.0,60.0,6.0,0.0
8792,44.0,18.0,1080.0,10.0,0.0
8793,48.0,10.0,60.0,5.0,0.0
8794,68.0,14.0,15.0,4.0,0.0
8795,56.0,34.0,90.0,4.0,0.0
8796,58.0,36.0,90.0,4.0,0.0
8797,70.0,90.0,120.0,4.0,0.0
8798,60.0,30.0,90.0,4.0,0.0
8799,72.0,62.0,120.0,4.0,0.0
8800,56.0,16.0,630.0,3.0,0.0
8801,56.0,4.0,1590.0,6.0,0.0
8802,56.0,36.0,1590.0,5.0,0.0
8803,68.0,0.0,1590.0,6.0,0.0
8804,44.0,50.0,630.0,3.0,0.0
8805,68.0,4.0,630.0,2.0,0.0
8806,80.0,6.0,570.0,1.0,0.0
8807,61.0,24.0,90.0,4.0,0.0
8808,44.0,0.0,1590.0,5.0,0.0
8809,44.0,34.0,60.0,7.0,0.0
8810,73.0,60.0,120.0,4.0,0.0
8811,44.0,46.0,60.0,7.0,0.0
8812,75.0,70.0,120.0,4.0,0.0
8813,63.0,14.0,120.0,4.0,0.0
8814,65.0,26.0,90.0,4.0,0.0
8815,77.0,72.0,120.0,4.0,0.0
8816,44.0,24.0,60.0,7.0,0.0
8817,79.0,84.0,120.0,4.0,0.0
8818,67.0,26.0,90.0,4.0,0.0
8819,44.0,22.0,60.0,7.0,0.0
8820,80.0,12.0,1110.0,4.0,0.0
8821,68.0,70.0,1140.0,4.0,0.0
8822,44.0,34.0,90.0,7.0,0.0
8823,56.0,16.0,60.0,3.0,0.0
8824,44.0,0.0,90.0,11.0,0.0
8825,68.0,4.0,60.0,2.0,0.0
8826,80.0,0.0,60.0,1.0,0.0
8827,44.0,10.0,90.0,3.0,0.0
8828,56.0,202.0,90.0,10.0,0.0
8829,44.0,0.0,90.0,7.0,0.0
8830,68.0,2.0,90.0,8.0,0.0
8831,55.0,8.0,90.0,3.0,0.0
8832,67.0,6.0,90.0,8.0,0.0
8833,43.0,10.0,60.0,3.0,0.0
8834,79.0,6.0,60.0,1.0,0.0
8835,44.0,194.0,90.0,7.0,0.0
8836,43.0,2.0,90.0,11.0,0.0
8837,55.0,0.0,90.0,10.0,0.0
8838,67.0,6.0,60.0,2.0,0.0
8839,53.0,2.0,90.0,10.0,0.0
8840,44.0,0.0,90.0,7.0,0.0
8841,65.0,6.0,60.0,2.0,0.0
8842,77.0,22.0,60.0,1.0,0.0
8843,41.0,0.0,90.0,11.0,0.0
8844,41.0,242.0,90.0,3.0,0.0
8845,53.0,16.0,60.0,3.0,0.0
8846,65.0,0.0,90.0,8.0,0.0
8847,63.0,10.0,1080.0,2.0,0.0
8848,44.0,46.0,90.0,7.0,0.0
8849,39.0,112.0,1140.0,3.0,0.0
8850,75.0,42.0,1110.0,2.0,0.0
8851,39.0,0.0,1050.0,11.0,0.0
8852,51.0,6.0,1110.0,3.0,0.0
8853,51.0,2.0,1050.0,10.0,0.0
8854,75.0,28.0,1050.0,1.0,0.0
8855,63.0,4.0,1080.0,8.0,0.0
8856,67.0,58.0,210.0,4.0,0.0
8857,79.0,62.0,150.0,4.0,0.0
8858,68.0,86.0,180.0,4.0,0.0
8859,80.0,34.0,150.0,4.0,0.0
8860,79.0,38.0,150.0,4.0,0.0
8861,67.0,10.0,180.0,4.0,0.0
8862,44.0,0.0,1620.0,5.0,0.0
8863,56.0,0.0,1620.0,5.0,0.0
8864,44.0,72.0,60.0,7.0,0.0
8865,87.0,2.0,570.0,0.0,0.0
8866,56.0,80.0,1620.0,6.0,0.0
8867,68.0,10.0,1620.0,6.0,0.0
8868,68.0,24.0,180.0,4.0,0.0
8869,80.0,28.0,150.0,4.0,0.0
8870,67.0,4.0,180.0,4.0,0.0
8871,44.0,68.0,60.0,7.0,0.0
8872,79.0,48.0,150.0,4.0,0.0
8873,80.0,22.0,150.0,4.0,0.0
8874,68.0,28.0,150.0,4.0,0.0
8875,44.0,68.0,60.0,7.0,0.0
8876,79.0,60.0,150.0,4.0,0.0
8877,67.0,22.0,120.0,4.0,0.0
8878,44.0,48.0,60.0,7.0,0.0
8879,68.0,2.0,1140.0,4.0,0.0
8880,44.0,8.0,90.0,7.0,0.0
8881,80.0,26.0,1110.0,4.0,0.0
8882,53.0,12.0,60.0,3.0,0.0
8883,77.0,0.0,60.0,2.0,0.0
8884,65.0,4.0,60.0,2.0,0.0
8885,89.0,6.0,90.0,0.0,0.0
8886,41.0,0.0,60.0,3.0,0.0
8887,53.0,2.0,60.0,10.0,0.0
8888,65.0,212.0,90.0,8.0,0.0
8889,41.0,0.0,60.0,11.0,0.0
8890,77.0,2.0,60.0,1.0,0.0
8891,44.0,2.0,90.0,7.0,0.0
8892,63.0,210.0,90.0,8.0,0.0
8893,39.0,4.0,90.0,11.0,0.0
8894,44.0,0.0,90.0,7.0,0.0
8895,75.0,4.0,60.0,1.0,0.0
8896,87.0,4.0,60.0,0.0,0.0
8897,75.0,6.0,60.0,2.0,0.0
8898,63.0,4.0,60.0,2.0,0.0
8899,51.0,2.0,60.0,3.0,0.0
8900,39.0,10.0,90.0,3.0,0.0
8901,51.0,0.0,90.0,10.0,0.0
8902,44.0,0.0,90.0,7.0,0.0
8903,49.0,6.0,60.0,3.0,0.0
8904,73.0,2.0,60.0,1.0,0.0
8905,37.0,4.0,90.0,3.0,0.0
8906,49.0,10.0,90.0,10.0,0.0
8907,37.0,0.0,90.0,11.0,0.0
8908,73.0,6.0,60.0,2.0,0.0
8909,61.0,234.0,90.0,8.0,0.0
8910,85.0,0.0,60.0,0.0,0.0
8911,61.0,2.0,60.0,2.0,0.0
8912,60.0,76.0,1140.0,8.0,0.0
8913,84.0,14.0,1080.0,0.0,0.0
8914,48.0,10.0,990.0,10.0,0.0
8915,48.0,0.0,1080.0,3.0,0.0
8916,36.0,14.0,1110.0,3.0,0.0
8917,44.0,60.0,90.0,7.0,0.0
8918,60.0,4.0,1050.0,2.0,0.0
8919,72.0,12.0,1080.0,2.0,0.0
8920,72.0,12.0,1080.0,1.0,0.0
8921,36.0,0.0,990.0,11.0,0.0
8922,79.0,20.0,150.0,4.0,0.0
8923,67.0,100.0,150.0,4.0,0.0
8924,80.0,32.0,150.0,4.0,0.0
8925,68.0,88.0,180.0,4.0,0.0
8926,67.0,20.0,180.0,4.0,0.0
8927,79.0,30.0,150.0,4.0,0.0
8928,44.0,70.0,60.0,7.0,0.0
8929,68.0,24.0,180.0,4.0,0.0
8930,56.0,2.0,1500.0,6.0,0.0
8931,44.0,0.0,1500.0,5.0,0.0
8932,56.0,2.0,1500.0,5.0,0.0
8933,68.0,0.0,1500.0,6.0,0.0
8934,80.0,28.0,150.0,4.0,0.0
8935,44.0,68.0,60.0,7.0,0.0
8936,79.0,44.0,150.0,4.0,0.0
8937,67.0,6.0,180.0,4.0,0.0
8938,44.0,70.0,60.0,7.0,0.0
8939,68.0,30.0,150.0,4.0,0.0
8940,80.0,22.0,150.0,4.0,0.0
8941,44.0,68.0,60.0,7.0,0.0
8942,79.0,18.0,150.0,4.0,0.0
8943,67.0,34.0,180.0,4.0,0.0
8944,44.0,18.0,90.0,7.0,0.0
8945,80.0,6.0,150.0,4.0,0.0
8946,68.0,22.0,150.0,4.0,0.0
8947,67.0,10.0,150.0,4.0,0.0
8948,79.0,20.0,150.0,4.0,0.0
8949,49.0,14.0,60.0,3.0,0.0
8950,37.0,2.0,90.0,3.0,0.0
8951,73.0,0.0,60.0,2.0,0.0
8952,61.0,8.0,60.0,2.0,0.0
8953,80.0,30.0,150.0,4.0,0.0
8954,68.0,90.0,180.0,4.0,0.0
8955,85.0,0.0,60.0,0.0,0.0
8956,49.0,0.0,90.0,10.0,0.0
8957,73.0,6.0,60.0,1.0,0.0
8958,37.0,0.0,90.0,11.0,0.0
8959,44.0,0.0,90.0,7.0,0.0
8960,61.0,60.0,90.0,8.0,0.0
8961,79.0,14.0,150.0,4.0,0.0
8962,67.0,20.0,150.0,4.0,0.0
8963,72.0,0.0,60.0,1.0,0.0
8964,60.0,10.0,90.0,8.0,0.0
8965,48.0,6.0,60.0,3.0,0.0
8966,36.0,52.0,90.0,3.0,0.0
8967,44.0,4.0,60.0,7.0,0.0
8968,36.0,0.0,90.0,11.0,0.0
8969,84.0,4.0,60.0,0.0,0.0
8970,48.0,0.0,90.0,10.0,0.0
8971,60.0,6.0,60.0,2.0,0.0
8972,68.0,100.0,150.0,4.0,0.0
8973,80.0,20.0,150.0,4.0,0.0
8974,72.0,4.0,60.0,2.0,0.0
8975,67.0,18.0,150.0,4.0,0.0
8976,79.0,12.0,150.0,4.0,0.0
8977,58.0,10.0,60.0,8.0,0.0
8978,58.0,4.0,60.0,2.0,0.0
8979,70.0,0.0,60.0,2.0,0.0
8980,70.0,8.0,60.0,1.0,0.0
8981,46.0,4.0,60.0,3.0,0.0
8982,34.0,0.0,60.0,3.0,0.0
8983,44.0,4.0,60.0,7.0,0.0
8984,82.0,2.0,60.0,0.0,0.0
8985,80.0,24.0,150.0,4.0,0.0
8986,68.0,96.0,180.0,4.0,0.0
8987,34.0,0.0,90.0,11.0,0.0
8988,46.0,58.0,90.0,10.0,0.0
8989,79.0,30.0,150.0,4.0,0.0
8990,67.0,6.0,180.0,4.0,0.0
8991,32.0,4.0,120.0,3.0,0.0
8992,44.0,10.0,90.0,3.0,0.0
8993,32.0,0.0,120.0,11.0,0.0
8994,68.0,10.0,60.0,1.0,0.0
8995,68.0,0.0,60.0,2.0,0.0
8996,56.0,8.0,90.0,8.0,0.0
8997,80.0,18.0,150.0,4.0,0.0
8998,68.0,30.0,150.0,4.0,0.0
8999,56.0,4.0,60.0,2.0,0.0
9000,44.0,24.0,120.0,10.0,0.0
9001,80.0,0.0,60.0,0.0,0.0
9002,44.0,22.0,90.0,7.0,0.0
9003,44.0,70.0,60.0,7.0,0.0
9004,79.0,32.0,150.0,4.0,0.0
9005,67.0,0.0,180.0,4.0,0.0
9006,49.0,0.0,90.0,10.0,0.0
9007,61.0,62.0,90.0,8.0,0.0
9008,77.0,4.0,60.0,1.0,0.0
9009,44.0,0.0,60.0,7.0,0.0
9010,49.0,6.0,60.0,3.0,0.0
9011,37.0,0.0,90.0,11.0,0.0
9012,65.0,2.0,60.0,2.0,0.0
9013,56.0,0.0,60.0,6.0,0.0
9014,68.0,34.0,150.0,4.0,0.0
9015,80.0,20.0,150.0,4.0,0.0
9016,77.0,4.0,90.0,0.0,0.0
9017,89.0,6.0,60.0,0.0,0.0
9018,56.0,0.0,60.0,5.0,0.0
9019,44.0,0.0,60.0,5.0,0.0
9020,68.0,4.0,60.0,6.0,0.0
9021,53.0,0.0,60.0,3.0,0.0
9022,44.0,66.0,90.0,7.0,0.0
9023,67.0,4.0,180.0,4.0,0.0
9024,79.0,28.0,150.0,4.0,0.0
9025,48.0,0.0,90.0,10.0,0.0
9026,63.0,0.0,60.0,2.0,0.0
9027,60.0,6.0,90.0,8.0,0.0
9028,44.0,48.0,90.0,7.0,0.0
9029,36.0,12.0,90.0,11.0,0.0
9030,80.0,20.0,150.0,4.0,0.0
9031,56.0,0.0,60.0,5.0,0.0
9032,68.0,38.0,150.0,4.0,0.0
9033,51.0,0.0,60.0,3.0,0.0
9034,44.0,0.0,60.0,5.0,0.0
9035,87.0,4.0,60.0,0.0,0.0
9036,56.0,2.0,60.0,6.0,0.0
9037,75.0,2.0,60.0,1.0,0.0
9038,48.0,4.0,60.0,3.0,0.0
9039,75.0,8.0,60.0,0.0,0.0
9040,68.0,2.0,60.0,6.0,0.0
9041,44.0,62.0,90.0,7.0,0.0
9042,67.0,6.0,150.0,4.0,0.0
9043,79.0,22.0,150.0,4.0,0.0
9044,80.0,18.0,150.0,4.0,0.0
9045,56.0,0.0,60.0,6.0,0.0
9046,68.0,0.0,60.0,6.0,0.0
9047,49.0,4.0,60.0,3.0,0.0
9048,46.0,0.0,90.0,10.0,0.0
9049,44.0,8.0,60.0,5.0,0.0
9050,61.0,0.0,30.0,2.0,0.0
9051,44.0,8.0,60.0,7.0,0.0
9052,56.0,2.0,60.0,5.0,0.0
9053,85.0,4.0,60.0,0.0,0.0
9054,68.0,24.0,150.0,4.0,0.0
9055,73.0,0.0,60.0,0.0,0.0
9056,34.0,50.0,90.0,11.0,0.0
9057,58.0,10.0,90.0,8.0,0.0
9058,73.0,2.0,60.0,1.0,0.0
9059,46.0,4.0,60.0,3.0,0.0
9060,44.0,78.0,60.0,7.0,0.0
9061,79.0,34.0,150.0,4.0,0.0
9062,67.0,2.0,180.0,4.0,0.0
9063,44.0,4.0,60.0,3.0,0.0
9064,72.0,2.0,60.0,0.0,0.0
9065,48.0,8.0,60.0,3.0,0.0
9066,32.0,0.0,120.0,11.0,0.0
9067,68.0,0.0,60.0,6.0,0.0
9068,56.0,0.0,60.0,6.0,0.0
9069,44.0,20.0,90.0,7.0,0.0
9070,84.0,10.0,60.0,0.0,0.0
9071,44.0,24.0,120.0,10.0,0.0
9072,60.0,0.0,60.0,2.0,0.0
9073,80.0,12.0,150.0,4.0,0.0
9074,68.0,28.0,150.0,4.0,0.0
9075,72.0,2.0,60.0,1.0,0.0
9076,56.0,16.0,90.0,8.0,0.0
9077,44.0,0.0,60.0,5.0,0.0
9078,56.0,0.0,60.0,5.0,0.0
9079,79.0,22.0,150.0,4.0,0.0
9080,67.0,6.0,150.0,4.0,0.0
9081,44.0,78.0,60.0,7.0,0.0
9082,61.0,58.0,90.0,8.0,0.0
9083,37.0,0.0,90.0,11.0,0.0
9084,77.0,4.0,60.0,0.0,0.0
9085,89.0,0.0,60.0,0.0,0.0
9086,77.0,4.0,60.0,1.0,0.0
9087,53.0,0.0,90.0,3.0,0.0
9088,49.0,0.0,90.0,10.0,0.0
9089,68.0,36.0,150.0,4.0,0.0
9090,44.0,4.0,90.0,7.0,0.0
9091,49.0,0.0,60.0,3.0,0.0
9092,80.0,12.0,150.0,4.0,0.0
9093,44.0,10.0,60.0,5.0,0.0
9094,65.0,2.0,60.0,2.0,0.0
9095,56.0,10.0,60.0,5.0,0.0
9096,68.0,0.0,60.0,6.0,0.0
9097,56.0,0.0,60.0,6.0,0.0
9098,44.0,72.0,60.0,7.0,0.0
9099,67.0,8.0,180.0,4.0,0.0
9100,79.0,30.0,150.0,4.0,0.0
9101,36.0,2.0,90.0,11.0,0.0
9102,56.0,2.0,60.0,6.0,0.0
9103,44.0,0.0,60.0,5.0,0.0
9104,75.0,0.0,60.0,0.0,0.0
9105,68.0,8.0,60.0,6.0,0.0
9106,56.0,0.0,60.0,5.0,0.0
9107,48.0,0.0,90.0,10.0,0.0
9108,87.0,2.0,60.0,0.0,0.0
9109,80.0,22.0,150.0,4.0,0.0
9110,44.0,56.0,90.0,7.0,0.0
9111,63.0,2.0,60.0,2.0,0.0
9112,68.0,26.0,150.0,4.0,0.0
9113,51.0,0.0,60.0,3.0,0.0
9114,60.0,8.0,90.0,8.0,0.0
9115,48.0,2.0,60.0,3.0,0.0
9116,75.0,0.0,60.0,1.0,0.0
9117,44.0,72.0,60.0,7.0,0.0
9118,79.0,24.0,150.0,4.0,0.0
9119,67.0,10.0,180.0,4.0,0.0
9120,49.0,0.0,60.0,3.0,0.0
9121,68.0,38.0,150.0,4.0,0.0
9122,56.0,0.0,60.0,5.0,0.0
9123,44.0,0.0,60.0,5.0,0.0
9124,80.0,14.0,150.0,4.0,0.0
9125,46.0,2.0,60.0,3.0,0.0
9126,46.0,0.0,90.0,10.0,0.0
9127,73.0,0.0,60.0,0.0,0.0
9128,61.0,8.0,60.0,2.0,0.0
9129,34.0,38.0,90.0,11.0,0.0
9130,44.0,8.0,90.0,7.0,0.0
9131,58.0,20.0,90.0,8.0,0.0
9132,73.0,4.0,60.0,1.0,0.0
9133,68.0,2.0,60.0,6.0,0.0
9134,56.0,2.0,60.0,6.0,0.0
9135,85.0,2.0,60.0,0.0,0.0
9136,67.0,8.0,180.0,4.0,0.0
9137,44.0,68.0,60.0,7.0,0.0
9138,79.0,30.0,150.0,4.0,0.0
9139,44.0,0.0,60.0,3.0,0.0
9140,48.0,2.0,60.0,3.0,0.0
9141,84.0,8.0,90.0,0.0,0.0
9142,56.0,18.0,90.0,8.0,0.0
9143,56.0,0.0,60.0,6.0,0.0
9144,68.0,0.0,60.0,6.0,0.0
9145,60.0,10.0,60.0,2.0,0.0
9146,56.0,6.0,60.0,5.0,0.0
9147,72.0,2.0,60.0,1.0,0.0
9148,72.0,0.0,60.0,0.0,0.0
9149,44.0,32.0,120.0,10.0,0.0
9150,44.0,4.0,60.0,5.0,0.0
9151,80.0,22.0,150.0,4.0,0.0
9152,32.0,0.0,120.0,11.0,0.0
9153,68.0,24.0,180.0,4.0,0.0
9154,44.0,2.0,90.0,7.0,0.0
9155,79.0,32.0,150.0,4.0,0.0
9156,44.0,72.0,60.0,7.0,0.0
9157,67.0,6.0,180.0,4.0,0.0
9158,61.0,2.0,90.0,8.0,0.0
9159,49.0,6.0,60.0,3.0,0.0
9160,65.0,2.0,60.0,2.0,0.0
9161,44.0,0.0,60.0,5.0,0.0
9162,44.0,4.0,90.0,7.0,0.0
9163,56.0,0.0,60.0,5.0,0.0
9164,56.0,6.0,60.0,6.0,0.0
9165,53.0,0.0,90.0,3.0,0.0
9166,68.0,46.0,150.0,4.0,0.0
9167,89.0,0.0,60.0,0.0,0.0
9168,77.0,4.0,60.0,0.0,0.0
9169,49.0,0.0,90.0,10.0,0.0
9170,68.0,2.0,60.0,6.0,0.0
9171,77.0,0.0,60.0,1.0,0.0
9172,80.0,8.0,150.0,4.0,0.0
9173,37.0,56.0,90.0,11.0,0.0
9174,44.0,66.0,90.0,7.0,0.0
9175,79.0,28.0,150.0,4.0,0.0
9176,67.0,6.0,180.0,4.0,0.0
9177,68.0,30.0,150.0,4.0,0.0
9178,51.0,0.0,60.0,3.0,0.0
9179,75.0,0.0,60.0,0.0,0.0
9180,68.0,2.0,60.0,6.0,0.0
9181,48.0,6.0,60.0,3.0,0.0
9182,75.0,2.0,60.0,1.0,0.0
9183,87.0,6.0,60.0,0.0,0.0
9184,44.0,6.0,90.0,7.0,0.0
9185,36.0,50.0,90.0,11.0,0.0
9186,60.0,6.0,90.0,8.0,0.0
9187,48.0,0.0,90.0,10.0,0.0
9188,80.0,18.0,150.0,4.0,0.0
9189,44.0,6.0,60.0,5.0,0.0
9190,56.0,0.0,60.0,5.0,0.0
9191,63.0,2.0,60.0,2.0,0.0
9192,56.0,0.0,60.0,6.0,0.0
9193,67.0,10.0,180.0,4.0,0.0
9194,44.0,72.0,60.0,7.0,0.0
9195,79.0,28.0,150.0,4.0,0.0
9196,46.0,2.0,60.0,3.0,0.0
9197,49.0,0.0,60.0,3.0,0.0
9198,56.0,0.0,60.0,5.0,0.0
9199,58.0,14.0,90.0,8.0,0.0
9200,46.0,38.0,90.0,10.0,0.0
9201,68.0,34.0,150.0,4.0,0.0
9202,80.0,14.0,150.0,4.0,0.0
9203,68.0,0.0,60.0,6.0,0.0
9204,61.0,10.0,60.0,2.0,0.0
9205,44.0,4.0,90.0,7.0,0.0
9206,73.0,0.0,60.0,0.0,0.0
9207,85.0,4.0,90.0,0.0,0.0
9208,44.0,0.0,60.0,5.0,0.0
9209,56.0,4.0,60.0,6.0,0.0
9210,34.0,0.0,90.0,11.0,0.0
9211,73.0,6.0,90.0,1.0,0.0
9212,67.0,10.0,180.0,4.0,0.0
9213,44.0,72.0,60.0,7.0,0.0
9214,79.0,28.0,150.0,4.0,0.0
9215,72.0,4.0,60.0,1.0,0.0
9216,68.0,36.0,150.0,4.0,0.0
9217,60.0,0.0,60.0,2.0,0.0
9218,80.0,12.0,150.0,4.0,0.0
9219,44.0,0.0,60.0,5.0,0.0
9220,56.0,0.0,60.0,5.0,0.0
9221,56.0,10.0,90.0,8.0,0.0
9222,44.0,4.0,60.0,3.0,0.0
9223,48.0,6.0,60.0,3.0,0.0
9224,32.0,0.0,120.0,11.0,0.0
9225,44.0,4.0,90.0,7.0,0.0
9226,84.0,12.0,90.0,0.0,0.0
9227,56.0,0.0,60.0,6.0,0.0
9228,68.0,0.0,60.0,6.0,0.0
9229,72.0,6.0,60.0,0.0,0.0
9230,44.0,38.0,120.0,10.0,0.0
9231,44.0,70.0,60.0,7.0,0.0
9232,79.0,28.0,150.0,4.0,0.0
9233,67.0,10.0,180.0,4.0,0.0
9234,49.0,0.0,90.0,10.0,0.0
9235,68.0,42.0,150.0,4.0,0.0
9236,77.0,6.0,60.0,0.0,0.0
9237,56.0,2.0,60.0,5.0,0.0
9238,44.0,4.0,60.0,5.0,0.0
9239,49.0,0.0,90.0,3.0,0.0
9240,61.0,2.0,90.0,8.0,0.0
9241,77.0,0.0,60.0,1.0,0.0
9242,80.0,10.0,150.0,4.0,0.0
9243,53.0,14.0,90.0,3.0,0.0
9244,89.0,2.0,60.0,0.0,0.0
9245,68.0,0.0,60.0,6.0,0.0
9246,56.0,0.0,60.0,6.0,0.0
9247,44.0,2.0,60.0,7.0,0.0
9248,37.0,50.0,90.0,11.0,0.0
9249,65.0,0.0,60.0,2.0,0.0
9250,67.0,12.0,180.0,4.0,0.0
9251,79.0,28.0,150.0,4.0,0.0
9252,44.0,68.0,60.0,7.0,0.0
9253,56.0,2.0,60.0,6.0,0.0
9254,68.0,0.0,60.0,6.0,0.0
9255,60.0,10.0,90.0,8.0,0.0
9256,36.0,0.0,90.0,11.0,0.0
9257,44.0,0.0,60.0,7.0,0.0
9258,75.0,2.0,60.0,1.0,0.0
9259,48.0,0.0,60.0,3.0,0.0
9260,48.0,46.0,90.0,10.0,0.0
9261,44.0,0.0,60.0,5.0,0.0
9262,56.0,0.0,60.0,5.0,0.0
9263,80.0,10.0,150.0,4.0,0.0
9264,87.0,12.0,60.0,0.0,0.0
9265,75.0,0.0,60.0,0.0,0.0
9266,68.0,44.0,150.0,4.0,0.0
9267,63.0,4.0,60.0,2.0,0.0
9268,51.0,4.0,60.0,3.0,0.0
9269,67.0,12.0,150.0,4.0,0.0
9270,79.0,18.0,150.0,4.0,0.0
9271,44.0,66.0,90.0,7.0,0.0
9272,56.0,0.0,60.0,5.0,0.0
9273,61.0,0.0,60.0,2.0,0.0
9274,56.0,0.0,60.0,6.0,0.0
9275,46.0,0.0,90.0,10.0,0.0
9276,46.0,2.0,60.0,3.0,0.0
9277,49.0,4.0,90.0,3.0,0.0
9278,73.0,8.0,60.0,1.0,0.0
9279,34.0,48.0,90.0,11.0,0.0
9280,58.0,2.0,90.0,8.0,0.0
9281,68.0,2.0,60.0,6.0,0.0
9282,44.0,12.0,90.0,7.0,0.0
9283,68.0,32.0,150.0,4.0,0.0
9284,73.0,2.0,60.0,0.0,0.0
9285,85.0,0.0,90.0,0.0,0.0
9286,80.0,10.0,150.0,4.0,0.0
9287,44.0,10.0,60.0,5.0,0.0
9288,67.0,106.0,150.0,4.0,0.0
9289,79.0,8.0,150.0,4.0,0.0
9290,44.0,78.0,60.0,7.0,0.0
9291,60.0,0.0,180.0,2.0,0.0
9292,44.0,0.0,180.0,10.0,0.0
9293,44.0,0.0,180.0,5.0,0.0
9294,56.0,0.0,180.0,5.0,0.0
9295,44.0,0.0,180.0,3.0,0.0
9296,56.0,0.0,180.0,8.0,0.0
9297,80.0,0.0,180.0,4.0,0.0
9298,68.0,0.0,180.0,4.0,0.0
9299,84.0,0.0,180.0,0.0,0.0
9300,72.0,0.0,180.0,0.0,0.0
9301,44.0,0.0,180.0,7.0,0.0
9302,72.0,0.0,180.0,1.0,0.0
9303,56.0,0.0,180.0,6.0,0.0
9304,48.0,480.0,180.0,3.0,0.0
9305,32.0,56.0,150.0,11.0,0.0
9306,68.0,0.0,180.0,6.0,0.0
9307,56.0,0.0,180.0,3.0,0.0
9308,44.0,0.0,180.0,3.0,0.0
9309,68.0,480.0,180.0,6.0,0.0
9310,68.0,0.0,180.0,2.0,0.0
9311,60.0,0.0,180.0,2.0,0.0
9312,56.0,0.0,180.0,6.0,0.0
9313,72.0,0.0,180.0,0.0,0.0
9314,56.0,0.0,180.0,5.0,0.0
9315,48.0,0.0,180.0,5.0,0.0
9316,68.0,0.0,180.0,1.0,0.0
9317,44.0,0.0,180.0,7.0,0.0
9318,80.0,0.0,180.0,0.0,0.0
9319,72.0,0.0,180.0,1.0,0.0
9320,56.0,0.0,180.0,8.0,0.0
9321,56.0,0.0,180.0,10.0,0.0
9322,72.0,0.0,180.0,4.0,0.0
9323,63.0,0.0,180.0,4.0,0.0
9324,44.0,0.0,180.0,11.0,0.0
9325,80.0,480.0,180.0,4.0,0.0
9326,56.0,0.0,180.0,5.0,0.0
9327,56.0,480.0,180.0,3.0,0.0
9328,44.0,0.0,180.0,3.0,0.0
9329,68.0,0.0,180.0,6.0,0.0
9330,60.0,0.0,180.0,5.0,0.0
9331,80.0,0.0,180.0,1.0,0.0
9332,80.0,0.0,180.0,0.0,0.0
9333,72.0,0.0,180.0,1.0,0.0
9334,68.0,0.0,180.0,2.0,0.0
9335,72.0,0.0,180.0,2.0,0.0
9336,84.0,0.0,180.0,0.0,0.0
9337,56.0,0.0,180.0,6.0,0.0
9338,44.0,0.0,180.0,7.0,0.0
9339,44.0,0.0,180.0,11.0,0.0
9340,56.0,480.0,180.0,10.0,0.0
9341,68.0,0.0,180.0,4.0,0.0
9342,75.0,0.0,180.0,4.0,0.0
9343,60.0,0.0,180.0,4.0,0.0
9344,56.0,0.0,180.0,8.0,0.0
9345,75.0,0.0,180.0,2.0,0.0
9346,72.0,0.0,180.0,2.0,0.0
9347,60.0,0.0,180.0,5.0,0.0
9348,44.0,0.0,180.0,7.0,0.0
9349,68.0,0.0,180.0,6.0,0.0
9350,56.0,0.0,180.0,6.0,0.0
9351,56.0,0.0,180.0,3.0,0.0
9352,44.0,0.0,180.0,3.0,0.0
9353,80.0,0.0,180.0,1.0,0.0
9354,87.0,0.0,180.0,0.0,0.0
9355,80.0,402.0,180.0,0.0,0.0
9356,72.0,0.0,180.0,1.0,0.0
9357,63.0,0.0,180.0,5.0,0.0
9358,32.0,78.0,120.0,11.0,0.0
9359,44.0,0.0,180.0,10.0,0.0
9360,72.0,0.0,180.0,4.0,0.0
9361,63.0,480.0,180.0,4.0,0.0
9362,56.0,0.0,180.0,8.0,0.0
9363,56.0,0.0,180.0,4.0,0.0
9364,68.0,0.0,180.0,6.0,0.0
9365,56.0,0.0,180.0,6.0,0.0
9366,80.0,0.0,180.0,0.0,0.0
9367,80.0,0.0,180.0,1.0,0.0
9368,60.0,0.0,180.0,5.0,0.0
9369,56.0,0.0,180.0,5.0,0.0
9370,44.0,0.0,180.0,3.0,0.0
9371,56.0,0.0,180.0,3.0,0.0
9372,72.0,0.0,180.0,1.0,0.0
9373,44.0,0.0,180.0,7.0,0.0
9374,84.0,0.0,180.0,0.0,0.0
9375,72.0,0.0,180.0,2.0,0.0
9376,63.0,392.0,180.0,2.0,0.0
9377,56.0,0.0,180.0,3.0,0.0
9378,32.0,88.0,90.0,11.0,0.0
9379,48.0,0.0,180.0,5.0,0.0
9380,56.0,0.0,180.0,6.0,0.0
9381,68.0,872.0,180.0,6.0,0.0
9382,60.0,0.0,180.0,2.0,0.0
9383,68.0,0.0,180.0,2.0,0.0
9384,44.0,0.0,180.0,3.0,0.0
9385,80.0,0.0,180.0,1.0,0.0
9386,80.0,0.0,180.0,0.0,0.0
9387,72.0,0.0,180.0,0.0,0.0
9388,56.0,0.0,180.0,5.0,0.0
9389,68.0,0.0,180.0,4.0,0.0
9390,44.0,0.0,180.0,10.0,0.0
9391,60.0,0.0,180.0,4.0,0.0
9392,60.0,0.0,180.0,8.0,0.0
9393,72.0,0.0,180.0,1.0,0.0
9394,68.0,0.0,180.0,8.0,0.0
9395,44.0,0.0,180.0,7.0,0.0
9396,51.0,0.0,180.0,4.0,0.0
9397,56.0,0.0,180.0,8.0,0.0
9398,60.0,0.0,180.0,3.0,0.0
9399,51.0,0.0,180.0,3.0,0.0
9400,44.0,0.0,180.0,7.0,0.0
9401,60.0,0.0,180.0,5.0,0.0
9402,56.0,888.0,180.0,5.0,0.0
9403,84.0,0.0,180.0,0.0,0.0
9404,72.0,0.0,180.0,4.0,0.0
9405,80.0,0.0,180.0,0.0,0.0
9406,32.0,88.0,90.0,11.0,0.0
9407,72.0,0.0,180.0,1.0,0.0
9408,75.0,0.0,180.0,1.0,0.0
9409,44.0,0.0,180.0,8.0,0.0
9410,63.0,0.0,180.0,4.0,0.0
9411,44.0,0.0,180.0,10.0,0.0
9412,72.0,0.0,180.0,2.0,0.0
9413,80.0,0.0,180.0,4.0,0.0
9414,56.0,0.0,180.0,6.0,0.0
9415,68.0,0.0,180.0,6.0,0.0
9416,63.0,0.0,180.0,2.0,0.0
9417,56.0,0.0,120.0,5.0,0.0
9418,48.0,0.0,120.0,5.0,0.0
9419,32.0,0.0,180.0,11.0,0.0
9420,60.0,0.0,180.0,4.0,0.0
9421,48.0,0.0,120.0,3.0,0.0
9422,44.0,48.0,120.0,7.0,0.0
9423,44.0,904.0,180.0,10.0,0.0
9424,51.0,0.0,180.0,4.0,0.0
9425,44.0,0.0,180.0,8.0,0.0
9426,56.0,0.0,120.0,3.0,0.0
9427,72.0,0.0,120.0,0.0,0.0
9428,68.0,0.0,120.0,6.0,0.0
9429,56.0,0.0,120.0,6.0,0.0
9430,68.0,0.0,120.0,2.0,0.0
9431,60.0,0.0,120.0,2.0,0.0
9432,68.0,0.0,120.0,1.0,0.0
9433,72.0,0.0,120.0,1.0,0.0
9434,68.0,0.0,180.0,4.0,0.0
9435,80.0,0.0,120.0,0.0,0.0
9436,68.0,0.0,120.0,6.0,0.0
9437,60.0,0.0,120.0,2.0,0.0
9438,56.0,0.0,120.0,6.0,0.0
9439,80.0,0.0,120.0,0.0,0.0
9440,56.0,0.0,120.0,3.0,0.0
9441,44.0,0.0,120.0,3.0,0.0
9442,44.0,0.0,120.0,8.0,0.0
9443,44.0,0.0,120.0,10.0,0.0
9444,72.0,120.0,120.0,1.0,0.0
9445,68.0,0.0,120.0,2.0,0.0
9446,80.0,0.0,120.0,1.0,0.0
9447,48.0,0.0,120.0,5.0,0.0
9448,56.0,0.0,120.0,5.0,0.0
9449,44.0,0.0,240.0,4.0,0.0
9450,32.0,8.0,120.0,11.0,0.0
9451,44.0,0.0,120.0,7.0,0.0
9452,56.0,346.0,240.0,4.0,0.0
9453,80.0,0.0,120.0,1.0,0.0
9454,72.0,120.0,120.0,1.0,0.0
9455,60.0,0.0,120.0,2.0,0.0
9456,68.0,0.0,120.0,2.0,0.0
9457,44.0,0.0,120.0,10.0,0.0
9458,44.0,0.0,120.0,8.0,0.0
9459,56.0,0.0,240.0,4.0,0.0
9460,44.0,340.0,240.0,4.0,0.0
9461,44.0,0.0,120.0,7.0,0.0
9462,80.0,0.0,120.0,0.0,0.0
9463,68.0,0.0,120.0,6.0,0.0
9464,32.0,14.0,120.0,11.0,0.0
9465,44.0,0.0,120.0,3.0,0.0
9466,56.0,0.0,120.0,3.0,0.0
9467,56.0,0.0,120.0,6.0,0.0
9468,48.0,0.0,120.0,5.0,0.0
9469,56.0,0.0,120.0,5.0,0.0
9470,32.0,20.0,90.0,11.0,0.0
9471,56.0,0.0,120.0,5.0,0.0
9472,48.0,120.0,120.0,5.0,0.0
9473,72.0,0.0,120.0,1.0,0.0
9474,44.0,0.0,240.0,4.0,0.0
9475,56.0,0.0,240.0,4.0,0.0
9476,80.0,0.0,120.0,1.0,0.0
9477,56.0,0.0,120.0,8.0,0.0
9478,60.0,0.0,120.0,2.0,0.0
9479,44.0,0.0,120.0,10.0,0.0
9480,68.0,0.0,120.0,6.0,0.0
9481,56.0,0.0,120.0,6.0,0.0
9482,44.0,0.0,120.0,7.0,0.0
9483,56.0,0.0,120.0,3.0,0.0
9484,80.0,0.0,120.0,0.0,0.0
9485,44.0,0.0,120.0,3.0,0.0
9486,68.0,0.0,120.0,2.0,0.0
