,note,step,duration,channel,velocity
0,39.0,0.0,240.0,14.0,0.0
1,27.0,240.0,240.0,15.0,0.0
2,44.0,240.0,240.0,14.0,0.0
3,32.0,0.0,240.0,15.0,0.0
4,35.0,240.0,240.0,15.0,0.0
5,47.0,0.0,240.0,14.0,0.0
6,51.0,480.0,240.0,14.0,0.0
7,39.0,0.0,240.0,15.0,0.0
8,44.0,0.0,480.0,15.0,0.0
9,56.0,240.0,480.0,14.0,0.0
10,47.0,480.0,240.0,15.0,0.0
11,59.0,0.0,240.0,14.0,0.0
12,46.0,0.0,480.0,15.0,0.0
13,58.0,220.0,480.0,14.0,0.0
14,50.0,1220.0,210.0,14.0,0.0
15,38.0,0.0,210.0,15.0,0.0
16,39.0,0.0,1410.0,15.0,0.0
17,51.0,0.0,2850.0,4.0,0.0
18,51.0,20.0,1410.0,14.0,0.0
19,61.0,0.0,720.0,12.0,0.0
20,63.0,220.0,480.0,11.0,0.0
21,58.0,480.0,720.0,13.0,0.0
22,67.0,0.0,240.0,11.0,0.0
23,68.0,220.0,480.0,11.0,0.0
24,56.0,0.0,480.0,13.0,0.0
25,32.0,0.0,1410.0,15.0,0.0
26,56.0,0.0,480.0,3.0,0.0
27,59.0,0.0,480.0,12.0,0.0
28,44.0,460.0,1410.0,14.0,0.0
29,58.0,0.0,210.0,13.0,0.0
30,58.0,0.0,210.0,3.0,0.0
31,55.0,0.0,210.0,3.0,0.0
32,70.0,460.0,210.0,11.0,0.0
33,67.0,0.0,210.0,12.0,0.0
34,61.0,0.0,450.0,13.0,0.0
35,73.0,0.0,450.0,2.0,0.0
36,70.0,0.0,450.0,2.0,0.0
37,58.0,0.0,450.0,3.0,0.0
38,70.0,0.0,450.0,12.0,0.0
39,61.0,240.0,450.0,3.0,0.0
40,73.0,0.0,450.0,11.0,0.0
41,68.0,0.0,210.0,12.0,0.0
42,59.0,0.0,210.0,13.0,0.0
43,59.0,20.0,210.0,3.0,0.0
44,71.0,0.0,210.0,11.0,0.0
45,68.0,0.0,210.0,2.0,0.0
46,56.0,0.0,210.0,3.0,0.0
47,71.0,0.0,210.0,2.0,0.0
48,39.0,0.0,450.0,14.0,0.0
49,58.0,0.0,480.0,3.0,0.0
50,67.0,0.0,480.0,12.0,0.0
51,70.0,0.0,480.0,2.0,0.0
52,67.0,0.0,480.0,2.0,0.0
53,55.0,240.0,480.0,3.0,0.0
54,58.0,0.0,480.0,13.0,0.0
55,27.0,40.0,450.0,15.0,0.0
56,51.0,0.0,480.0,4.0,0.0
57,70.0,0.0,480.0,11.0,0.0
58,39.0,0.0,240.0,14.0,0.0
59,27.0,240.0,240.0,15.0,0.0
60,44.0,0.0,240.0,14.0,0.0
61,32.0,240.0,240.0,15.0,0.0
62,47.0,240.0,240.0,14.0,0.0
63,35.0,0.0,240.0,15.0,0.0
64,39.0,0.0,240.0,15.0,0.0
65,51.0,480.0,240.0,14.0,0.0
66,44.0,240.0,480.0,15.0,0.0
67,56.0,0.0,480.0,14.0,0.0
68,47.0,0.0,240.0,15.0,0.0
69,59.0,480.0,240.0,14.0,0.0
70,46.0,240.0,480.0,15.0,0.0
71,58.0,0.0,480.0,14.0,0.0
72,38.0,480.0,240.0,15.0,0.0
73,50.0,0.0,240.0,14.0,0.0
74,39.0,220.0,480.0,15.0,0.0
75,51.0,0.0,480.0,14.0,0.0
76,45.0,140.0,210.0,14.0,0.0
77,33.0,0.0,210.0,15.0,0.0
78,46.0,1060.0,120.0,14.0,0.0
79,34.0,0.0,120.0,15.0,0.0
80,46.0,0.0,1050.0,14.0,0.0
81,34.0,260.0,1050.0,15.0,0.0
82,32.0,480.0,240.0,15.0,0.0
83,44.0,0.0,240.0,14.0,0.0
84,61.0,0.0,720.0,12.0,0.0
85,31.0,0.0,480.0,15.0,0.0
86,58.0,480.0,720.0,13.0,0.0
87,75.0,0.0,480.0,0.0,0.0
88,63.0,240.0,480.0,11.0,0.0
89,43.0,0.0,480.0,14.0,0.0
90,39.0,0.0,240.0,14.0,0.0
91,27.0,0.0,240.0,15.0,0.0
92,67.0,0.0,240.0,11.0,0.0
93,79.0,0.0,240.0,0.0,0.0
94,56.0,0.0,480.0,3.0,0.0
95,68.0,0.0,480.0,2.0,0.0
96,59.0,0.0,480.0,12.0,0.0
97,44.0,0.0,480.0,14.0,0.0
98,32.0,0.0,480.0,15.0,0.0
99,80.0,0.0,480.0,0.0,0.0
100,56.0,0.0,480.0,13.0,0.0
101,68.0,220.0,480.0,11.0,0.0
102,82.0,0.0,210.0,0.0,0.0
103,43.0,0.0,210.0,14.0,0.0
104,58.0,460.0,210.0,12.0,0.0
105,70.0,0.0,210.0,2.0,0.0
106,31.0,0.0,210.0,15.0,0.0
107,70.0,0.0,210.0,11.0,0.0
108,58.0,0.0,210.0,3.0,0.0
109,51.0,0.0,210.0,13.0,0.0
110,73.0,0.0,450.0,2.0,0.0
111,32.0,240.0,450.0,15.0,0.0
112,85.0,0.0,450.0,0.0,0.0
113,51.0,0.0,450.0,13.0,0.0
114,70.0,0.0,450.0,2.0,0.0
115,73.0,0.0,450.0,11.0,0.0
116,58.0,0.0,450.0,12.0,0.0
117,61.0,0.0,450.0,3.0,0.0
118,58.0,0.0,450.0,3.0,0.0
119,44.0,0.0,450.0,14.0,0.0
120,56.0,0.0,210.0,12.0,0.0
121,59.0,0.0,210.0,3.0,0.0
122,56.0,0.0,210.0,3.0,0.0
123,68.0,0.0,210.0,2.0,0.0
124,83.0,760.0,210.0,0.0,0.0
125,26.0,0.0,210.0,15.0,0.0
126,71.0,0.0,210.0,11.0,0.0
127,53.0,0.0,210.0,13.0,0.0
128,71.0,0.0,210.0,2.0,0.0
129,38.0,0.0,210.0,14.0,0.0
130,70.0,220.0,720.0,2.0,0.0
131,55.0,0.0,720.0,12.0,0.0
132,67.0,0.0,720.0,2.0,0.0
133,55.0,0.0,720.0,3.0,0.0
134,58.0,0.0,720.0,3.0,0.0
135,27.0,0.0,720.0,15.0,0.0
136,82.0,0.0,720.0,0.0,0.0
137,39.0,0.0,720.0,14.0,0.0
138,70.0,0.0,720.0,11.0,0.0
139,46.0,0.0,720.0,13.0,0.0
140,63.0,240.0,210.0,4.0,0.0
141,63.0,240.0,210.0,4.0,0.0
142,63.0,260.0,210.0,4.0,0.0
143,63.0,240.0,690.0,4.0,0.0
144,59.0,0.0,240.0,12.0,0.0
145,63.0,0.0,240.0,11.0,0.0
146,51.0,460.0,240.0,11.0,0.0
147,56.0,0.0,240.0,13.0,0.0
148,32.0,0.0,240.0,15.0,0.0
149,44.0,0.0,240.0,14.0,0.0
150,63.0,0.0,240.0,11.0,0.0
151,51.0,0.0,240.0,11.0,0.0
152,46.0,0.0,240.0,14.0,0.0
153,61.0,0.0,240.0,12.0,0.0
154,55.0,0.0,240.0,13.0,0.0
155,34.0,220.0,240.0,15.0,0.0
156,63.0,20.0,210.0,4.0,0.0
157,63.0,240.0,210.0,4.0,0.0
158,63.0,260.0,210.0,4.0,0.0
159,59.0,0.0,240.0,12.0,0.0
160,63.0,0.0,240.0,11.0,0.0
161,51.0,0.0,240.0,11.0,0.0
162,56.0,0.0,240.0,13.0,0.0
163,47.0,460.0,240.0,14.0,0.0
164,63.0,240.0,690.0,4.0,0.0
165,35.0,0.0,240.0,15.0,0.0
166,31.0,0.0,240.0,15.0,0.0
167,43.0,0.0,240.0,14.0,0.0
168,58.0,220.0,240.0,13.0,0.0
169,63.0,20.0,210.0,4.0,0.0
170,51.0,0.0,240.0,11.0,0.0
171,63.0,0.0,240.0,11.0,0.0
172,61.0,0.0,240.0,12.0,0.0
173,63.0,240.0,210.0,4.0,0.0
174,63.0,260.0,210.0,4.0,0.0
175,32.0,0.0,240.0,15.0,0.0
176,44.0,0.0,240.0,14.0,0.0
177,59.0,0.0,240.0,12.0,0.0
178,59.0,0.0,690.0,4.0,0.0
179,51.0,0.0,240.0,11.0,0.0
180,56.0,0.0,240.0,13.0,0.0
181,63.0,460.0,240.0,11.0,0.0
182,63.0,260.0,690.0,4.0,0.0
183,42.0,0.0,210.0,14.0,0.0
184,30.0,0.0,210.0,15.0,0.0
185,61.0,220.0,240.0,12.0,0.0
186,40.0,0.0,240.0,14.0,0.0
187,28.0,0.0,240.0,15.0,0.0
188,66.0,0.0,240.0,4.0,0.0
189,63.0,0.0,240.0,4.0,0.0
190,64.0,0.0,240.0,11.0,0.0
191,56.0,0.0,240.0,13.0,0.0
192,64.0,0.0,210.0,4.0,0.0
193,61.0,200.0,210.0,4.0,0.0
194,59.0,40.0,180.0,4.0,0.0
195,40.0,0.0,210.0,14.0,0.0
196,28.0,260.0,210.0,15.0,0.0
197,63.0,0.0,180.0,4.0,0.0
198,54.0,0.0,240.0,13.0,0.0
199,61.0,0.0,690.0,4.0,0.0
200,30.0,0.0,240.0,15.0,0.0
201,54.0,240.0,690.0,4.0,0.0
202,61.0,0.0,240.0,11.0,0.0
203,58.0,0.0,240.0,12.0,0.0
204,42.0,460.0,240.0,14.0,0.0
205,78.0,0.0,210.0,11.0,0.0
206,66.0,0.0,210.0,11.0,0.0
207,61.0,0.0,690.0,4.0,0.0
208,78.0,0.0,210.0,1.0,0.0
209,58.0,0.0,210.0,13.0,0.0
210,54.0,0.0,210.0,2.0,0.0
211,66.0,240.0,210.0,2.0,0.0
212,42.0,0.0,690.0,14.0,0.0
213,30.0,0.0,690.0,15.0,0.0
214,66.0,0.0,210.0,1.0,0.0
215,78.0,0.0,210.0,0.0,0.0
216,42.0,0.0,210.0,3.0,0.0
217,73.0,0.0,210.0,12.0,0.0
218,54.0,0.0,210.0,3.0,0.0
219,73.0,0.0,210.0,12.0,0.0
220,58.0,0.0,210.0,13.0,0.0
221,66.0,0.0,210.0,2.0,0.0
222,66.0,0.0,210.0,1.0,0.0
223,78.0,0.0,210.0,11.0,0.0
224,66.0,0.0,210.0,11.0,0.0
225,78.0,0.0,210.0,0.0,0.0
226,42.0,0.0,210.0,3.0,0.0
227,78.0,0.0,210.0,1.0,0.0
228,54.0,240.0,210.0,2.0,0.0
229,54.0,0.0,210.0,3.0,0.0
230,54.0,0.0,210.0,3.0,0.0
231,78.0,0.0,210.0,1.0,0.0
232,58.0,0.0,210.0,13.0,0.0
233,73.0,0.0,210.0,12.0,0.0
234,78.0,0.0,210.0,0.0,0.0
235,54.0,0.0,210.0,2.0,0.0
236,66.0,0.0,210.0,2.0,0.0
237,66.0,0.0,210.0,1.0,0.0
238,42.0,0.0,210.0,3.0,0.0
239,78.0,720.0,210.0,11.0,0.0
240,66.0,0.0,210.0,11.0,0.0
241,66.0,0.0,690.0,11.0,0.0
242,59.0,0.0,690.0,13.0,0.0
243,78.0,0.0,690.0,1.0,0.0
244,66.0,0.0,690.0,1.0,0.0
245,54.0,0.0,690.0,3.0,0.0
246,42.0,0.0,690.0,3.0,0.0
247,66.0,0.0,690.0,2.0,0.0
248,54.0,0.0,690.0,2.0,0.0
249,78.0,0.0,690.0,0.0,0.0
250,47.0,240.0,690.0,14.0,0.0
251,35.0,0.0,690.0,15.0,0.0
252,74.0,0.0,690.0,12.0,0.0
253,78.0,0.0,690.0,11.0,0.0
254,62.0,0.0,690.0,4.0,0.0
255,66.0,0.0,210.0,11.0,0.0
256,58.0,0.0,210.0,13.0,0.0
257,49.0,0.0,690.0,14.0,0.0
258,42.0,0.0,210.0,3.0,0.0
259,54.0,0.0,210.0,3.0,0.0
260,66.0,0.0,210.0,2.0,0.0
261,73.0,240.0,210.0,12.0,0.0
262,78.0,0.0,210.0,11.0,0.0
263,37.0,0.0,690.0,15.0,0.0
264,78.0,0.0,210.0,0.0,0.0
265,66.0,0.0,210.0,1.0,0.0
266,78.0,0.0,210.0,1.0,0.0
267,61.0,0.0,690.0,4.0,0.0
268,54.0,0.0,210.0,2.0,0.0
269,66.0,0.0,210.0,11.0,0.0
270,78.0,0.0,210.0,11.0,0.0
271,78.0,0.0,210.0,1.0,0.0
272,54.0,0.0,210.0,2.0,0.0
273,42.0,0.0,210.0,3.0,0.0
274,54.0,0.0,210.0,3.0,0.0
275,73.0,0.0,210.0,12.0,0.0
276,58.0,0.0,210.0,13.0,0.0
277,66.0,0.0,210.0,2.0,0.0
278,78.0,0.0,210.0,0.0,0.0
279,66.0,240.0,210.0,1.0,0.0
280,73.0,720.0,210.0,12.0,0.0
281,66.0,0.0,210.0,2.0,0.0
282,54.0,0.0,210.0,2.0,0.0
283,54.0,0.0,210.0,3.0,0.0
284,42.0,0.0,210.0,3.0,0.0
285,66.0,0.0,210.0,1.0,0.0
286,58.0,0.0,210.0,13.0,0.0
287,66.0,0.0,210.0,11.0,0.0
288,78.0,0.0,210.0,11.0,0.0
289,78.0,0.0,210.0,0.0,0.0
290,78.0,0.0,210.0,1.0,0.0
291,42.0,0.0,690.0,3.0,0.0
292,78.0,0.0,690.0,0.0,0.0
293,50.0,0.0,690.0,14.0,0.0
294,78.0,0.0,690.0,1.0,0.0
295,59.0,0.0,690.0,13.0,0.0
296,66.0,240.0,690.0,11.0,0.0
297,38.0,0.0,690.0,15.0,0.0
298,71.0,0.0,690.0,12.0,0.0
299,54.0,0.0,690.0,2.0,0.0
300,66.0,0.0,690.0,2.0,0.0
301,66.0,0.0,690.0,1.0,0.0
302,54.0,0.0,690.0,3.0,0.0
303,59.0,0.0,690.0,4.0,0.0
304,78.0,0.0,690.0,11.0,0.0
305,66.0,0.0,210.0,2.0,0.0
306,46.0,0.0,690.0,14.0,0.0
307,73.0,0.0,210.0,12.0,0.0
308,78.0,0.0,210.0,1.0,0.0
309,66.0,0.0,210.0,1.0,0.0
310,54.0,0.0,210.0,2.0,0.0
311,54.0,240.0,210.0,3.0,0.0
312,42.0,0.0,210.0,3.0,0.0
313,66.0,0.0,210.0,13.0,0.0
314,61.0,0.0,690.0,4.0,0.0
315,34.0,0.0,690.0,15.0,0.0
316,78.0,0.0,210.0,0.0,0.0
317,78.0,0.0,210.0,11.0,0.0
318,61.0,0.0,210.0,13.0,0.0
319,66.0,0.0,210.0,11.0,0.0
320,73.0,0.0,210.0,12.0,0.0
321,78.0,0.0,210.0,0.0,0.0
322,54.0,0.0,210.0,2.0,0.0
323,66.0,0.0,210.0,2.0,0.0
324,66.0,0.0,210.0,13.0,0.0
325,61.0,0.0,210.0,13.0,0.0
326,54.0,0.0,210.0,3.0,0.0
327,42.0,0.0,210.0,3.0,0.0
328,78.0,240.0,210.0,11.0,0.0
329,66.0,0.0,210.0,11.0,0.0
330,78.0,0.0,210.0,1.0,0.0
331,66.0,0.0,210.0,1.0,0.0
332,66.0,0.0,210.0,13.0,0.0
333,66.0,0.0,210.0,11.0,0.0
334,66.0,0.0,210.0,2.0,0.0
335,54.0,500.0,210.0,2.0,0.0
336,78.0,0.0,210.0,11.0,0.0
337,66.0,0.0,210.0,1.0,0.0
338,61.0,0.0,210.0,13.0,0.0
339,78.0,0.0,210.0,0.0,0.0
340,78.0,0.0,210.0,1.0,0.0
341,73.0,0.0,210.0,12.0,0.0
342,54.0,0.0,210.0,3.0,0.0
343,42.0,0.0,210.0,3.0,0.0
344,35.0,0.0,480.0,15.0,0.0
345,74.0,260.0,690.0,12.0,0.0
346,74.0,0.0,690.0,0.0,0.0
347,78.0,0.0,690.0,0.0,0.0
348,62.0,0.0,690.0,4.0,0.0
349,62.0,0.0,690.0,13.0,0.0
350,66.0,0.0,690.0,13.0,0.0
351,78.0,0.0,690.0,1.0,0.0
352,74.0,0.0,690.0,1.0,0.0
353,54.0,0.0,690.0,3.0,0.0
354,66.0,0.0,690.0,11.0,0.0
355,78.0,0.0,690.0,11.0,0.0
356,66.0,0.0,690.0,2.0,0.0
357,47.0,220.0,480.0,14.0,0.0
358,42.0,0.0,690.0,3.0,0.0
359,54.0,0.0,690.0,2.0,0.0
360,33.0,0.0,210.0,15.0,0.0
361,45.0,0.0,210.0,14.0,0.0
362,69.0,0.0,240.0,13.0,0.0
363,81.0,0.0,240.0,0.0,0.0
364,59.0,0.0,690.0,3.0,0.0
365,78.0,0.0,240.0,0.0,0.0
366,81.0,0.0,240.0,1.0,0.0
367,78.0,0.0,240.0,1.0,0.0
368,81.0,0.0,240.0,11.0,0.0
369,78.0,0.0,240.0,12.0,0.0
370,66.0,220.0,240.0,2.0,0.0
371,66.0,0.0,240.0,13.0,0.0
372,43.0,0.0,450.0,14.0,0.0
373,64.0,0.0,690.0,4.0,0.0
374,31.0,0.0,450.0,15.0,0.0
375,69.0,0.0,240.0,2.0,0.0
376,76.0,0.0,210.0,12.0,0.0
377,67.0,0.0,210.0,2.0,0.0
378,67.0,0.0,210.0,13.0,0.0
379,64.0,0.0,210.0,13.0,0.0
380,79.0,200.0,210.0,0.0,0.0
381,76.0,0.0,210.0,0.0,0.0
382,76.0,0.0,210.0,1.0,0.0
383,79.0,0.0,210.0,1.0,0.0
384,79.0,0.0,210.0,11.0,0.0
385,64.0,0.0,210.0,2.0,0.0
386,78.0,0.0,180.0,11.0,0.0
387,78.0,0.0,180.0,0.0,0.0
388,74.0,0.0,180.0,0.0,0.0
389,78.0,0.0,180.0,1.0,0.0
390,74.0,40.0,180.0,1.0,0.0
391,62.0,0.0,180.0,13.0,0.0
392,43.0,720.0,210.0,14.0,0.0
393,66.0,0.0,180.0,13.0,0.0
394,62.0,0.0,180.0,2.0,0.0
395,66.0,0.0,180.0,2.0,0.0
396,31.0,0.0,210.0,15.0,0.0
397,74.0,0.0,180.0,12.0,0.0
398,64.0,720.0,690.0,13.0,0.0
399,52.0,0.0,690.0,3.0,0.0
400,45.0,0.0,690.0,14.0,0.0
401,64.0,0.0,690.0,2.0,0.0
402,57.0,0.0,690.0,4.0,0.0
403,73.0,0.0,690.0,12.0,0.0
404,76.0,0.0,690.0,11.0,0.0
405,61.0,0.0,690.0,13.0,0.0
406,61.0,0.0,690.0,2.0,0.0
407,73.0,0.0,690.0,1.0,0.0
408,33.0,0.0,690.0,15.0,0.0
409,76.0,0.0,690.0,0.0,0.0
410,73.0,0.0,690.0,0.0,0.0
411,76.0,0.0,690.0,1.0,0.0
412,74.0,500.0,690.0,1.0,0.0
413,78.0,0.0,690.0,1.0,0.0
414,66.0,0.0,690.0,2.0,0.0
415,78.0,0.0,690.0,0.0,0.0
416,26.0,0.0,690.0,15.0,0.0
417,62.0,0.0,690.0,13.0,0.0
418,57.0,0.0,690.0,3.0,0.0
419,74.0,0.0,690.0,0.0,0.0
420,74.0,0.0,690.0,12.0,0.0
421,62.0,0.0,690.0,4.0,0.0
422,38.0,0.0,690.0,14.0,0.0
423,62.0,0.0,690.0,2.0,0.0
424,66.0,0.0,690.0,13.0,0.0
425,78.0,0.0,690.0,11.0,0.0
426,50.0,0.0,690.0,3.0,0.0
427,31.0,220.0,480.0,15.0,0.0
428,71.0,0.0,690.0,12.0,0.0
429,74.0,0.0,690.0,11.0,0.0
430,59.0,0.0,690.0,2.0,0.0
431,59.0,0.0,690.0,13.0,0.0
432,43.0,0.0,480.0,14.0,0.0
433,71.0,260.0,690.0,0.0,0.0
434,74.0,0.0,690.0,0.0,0.0
435,62.0,0.0,690.0,2.0,0.0
436,59.0,0.0,690.0,4.0,0.0
437,74.0,0.0,690.0,1.0,0.0
438,71.0,0.0,690.0,1.0,0.0
439,62.0,0.0,690.0,13.0,0.0
440,30.0,0.0,210.0,15.0,0.0
441,42.0,0.0,210.0,14.0,0.0
442,78.0,0.0,240.0,0.0,0.0
443,62.0,0.0,240.0,2.0,0.0
444,28.0,200.0,450.0,15.0,0.0
445,66.0,0.0,240.0,2.0,0.0
446,74.0,0.0,240.0,12.0,0.0
447,61.0,0.0,690.0,4.0,0.0
448,52.0,140.0,690.0,3.0,0.0
449,40.0,0.0,450.0,14.0,0.0
450,74.0,220.0,240.0,1.0,0.0
451,78.0,0.0,240.0,1.0,0.0
452,62.0,0.0,240.0,13.0,0.0
453,66.0,0.0,240.0,13.0,0.0
454,78.0,0.0,240.0,11.0,0.0
455,74.0,0.0,240.0,0.0,0.0
456,61.0,0.0,210.0,13.0,0.0
457,76.0,0.0,210.0,11.0,0.0
458,73.0,0.0,210.0,0.0,0.0
459,76.0,0.0,210.0,0.0,0.0
460,73.0,0.0,210.0,12.0,0.0
461,64.0,0.0,210.0,2.0,0.0
462,61.0,0.0,210.0,2.0,0.0
463,64.0,0.0,210.0,13.0,0.0
464,73.0,0.0,210.0,1.0,0.0
465,76.0,0.0,210.0,1.0,0.0
466,74.0,0.0,180.0,1.0,0.0
467,62.0,0.0,180.0,2.0,0.0
468,59.0,0.0,180.0,2.0,0.0
469,71.0,0.0,180.0,1.0,0.0
470,28.0,0.0,210.0,15.0,0.0
471,59.0,0.0,180.0,13.0,0.0
472,74.0,0.0,180.0,11.0,0.0
473,74.0,0.0,180.0,0.0,0.0
474,71.0,40.0,180.0,0.0,0.0
475,40.0,0.0,210.0,14.0,0.0
476,71.0,0.0,180.0,12.0,0.0
477,62.0,0.0,180.0,13.0,0.0
478,61.0,0.0,450.0,2.0,0.0
479,42.0,340.0,120.0,14.0,0.0
480,70.0,0.0,1200.0,1.0,0.0
481,70.0,0.0,1200.0,0.0,0.0
482,73.0,0.0,1200.0,1.0,0.0
483,73.0,0.0,1200.0,0.0,0.0
484,73.0,0.0,120.0,11.0,0.0
485,58.0,0.0,450.0,2.0,0.0
486,58.0,0.0,120.0,13.0,0.0
487,42.0,0.0,1170.0,4.0,0.0
488,54.0,20.0,1170.0,4.0,0.0
489,54.0,260.0,450.0,3.0,0.0
490,30.0,0.0,120.0,15.0,0.0
491,70.0,0.0,120.0,12.0,0.0
492,61.0,0.0,120.0,13.0,0.0
493,70.0,220.0,1080.0,12.0,0.0
494,73.0,0.0,1080.0,11.0,0.0
495,61.0,0.0,1080.0,13.0,0.0
496,30.0,0.0,1080.0,15.0,0.0
497,58.0,0.0,1080.0,13.0,0.0
498,42.0,0.0,1080.0,14.0,0.0
499,67.0,0.0,240.0,2.0,0.0
500,55.0,460.0,240.0,3.0,0.0
501,66.0,0.0,1170.0,2.0,0.0
502,54.0,260.0,1170.0,3.0,0.0
503,74.0,0.0,210.0,0.0,0.0
504,62.0,0.0,210.0,13.0,0.0
505,74.0,140.0,210.0,1.0,0.0
506,71.0,0.0,210.0,1.0,0.0
507,35.0,0.0,210.0,14.0,0.0
508,59.0,0.0,210.0,13.0,0.0
509,54.0,0.0,210.0,4.0,0.0
510,71.0,0.0,210.0,12.0,0.0
511,74.0,0.0,210.0,11.0,0.0
512,23.0,0.0,210.0,15.0,0.0
513,42.0,0.0,210.0,4.0,0.0
514,71.0,0.0,210.0,0.0,0.0
515,42.0,20.0,1170.0,4.0,0.0
516,42.0,340.0,120.0,14.0,0.0
517,70.0,0.0,120.0,12.0,0.0
518,70.0,0.0,1200.0,0.0,0.0
519,70.0,0.0,1200.0,1.0,0.0
520,73.0,0.0,1200.0,0.0,0.0
521,54.0,0.0,1170.0,4.0,0.0
522,58.0,0.0,120.0,13.0,0.0
523,61.0,0.0,120.0,13.0,0.0
524,30.0,0.0,120.0,15.0,0.0
525,73.0,0.0,120.0,11.0,0.0
526,73.0,220.0,1200.0,1.0,0.0
527,30.0,0.0,1080.0,15.0,0.0
528,70.0,0.0,1080.0,12.0,0.0
529,42.0,0.0,1080.0,14.0,0.0
530,61.0,0.0,1080.0,13.0,0.0
531,73.0,0.0,1080.0,11.0,0.0
532,58.0,0.0,1080.0,13.0,0.0
533,67.0,460.0,240.0,2.0,0.0
534,55.0,0.0,240.0,3.0,0.0
535,66.0,0.0,690.0,2.0,0.0
536,54.0,0.0,450.0,3.0,0.0
537,74.0,0.0,210.0,0.0,0.0
538,74.0,0.0,210.0,11.0,0.0
539,74.0,0.0,210.0,1.0,0.0
540,71.0,0.0,210.0,0.0,0.0
541,71.0,0.0,210.0,1.0,0.0
542,59.0,0.0,210.0,13.0,0.0
543,71.0,0.0,210.0,12.0,0.0
544,23.0,0.0,210.0,15.0,0.0
545,54.0,0.0,210.0,4.0,0.0
546,47.0,0.0,210.0,3.0,0.0
547,35.0,140.0,210.0,3.0,0.0
548,42.0,0.0,210.0,4.0,0.0
549,62.0,0.0,210.0,13.0,0.0
550,35.0,0.0,210.0,14.0,0.0
551,54.0,0.0,690.0,4.0,0.0
552,42.0,0.0,690.0,4.0,0.0
553,66.0,0.0,690.0,2.0,0.0
554,54.0,140.0,690.0,2.0,0.0
555,54.0,0.0,480.0,3.0,0.0
556,42.0,0.0,480.0,3.0,0.0
557,70.0,360.0,120.0,12.0,0.0
558,61.0,0.0,120.0,13.0,0.0
559,73.0,0.0,120.0,11.0,0.0
560,30.0,0.0,120.0,15.0,0.0
561,73.0,0.0,480.0,0.0,0.0
562,70.0,0.0,480.0,0.0,0.0
563,70.0,0.0,480.0,1.0,0.0
564,73.0,0.0,480.0,1.0,0.0
565,42.0,0.0,120.0,14.0,0.0
566,58.0,0.0,120.0,13.0,0.0
567,73.0,0.0,360.0,11.0,0.0
568,58.0,0.0,360.0,13.0,0.0
569,61.0,220.0,360.0,13.0,0.0
570,70.0,0.0,360.0,12.0,0.0
571,42.0,0.0,360.0,14.0,0.0
572,30.0,0.0,360.0,15.0,0.0
573,47.0,0.0,210.0,3.0,0.0
574,35.0,0.0,210.0,3.0,0.0
575,71.0,0.0,210.0,1.0,0.0
576,35.0,0.0,210.0,14.0,0.0
577,23.0,0.0,210.0,15.0,0.0
578,62.0,0.0,210.0,13.0,0.0
579,59.0,0.0,210.0,13.0,0.0
580,74.0,0.0,210.0,1.0,0.0
581,74.0,0.0,210.0,11.0,0.0
582,74.0,0.0,210.0,0.0,0.0
583,71.0,0.0,210.0,12.0,0.0
584,71.0,0.0,210.0,0.0,0.0
585,70.0,0.0,480.0,1.0,0.0
586,73.0,0.0,120.0,11.0,0.0
587,42.0,0.0,480.0,3.0,0.0
588,54.0,0.0,690.0,4.0,0.0
589,42.0,0.0,690.0,4.0,0.0
590,42.0,0.0,120.0,14.0,0.0
591,73.0,0.0,480.0,1.0,0.0
592,54.0,0.0,690.0,2.0,0.0
593,70.0,0.0,120.0,12.0,0.0
594,30.0,0.0,120.0,15.0,0.0
595,73.0,0.0,480.0,0.0,0.0
596,61.0,0.0,120.0,13.0,0.0
597,58.0,360.0,120.0,13.0,0.0
598,54.0,0.0,480.0,3.0,0.0
599,66.0,0.0,690.0,2.0,0.0
600,70.0,220.0,480.0,0.0,0.0
601,61.0,0.0,360.0,13.0,0.0
602,73.0,0.0,360.0,11.0,0.0
603,42.0,0.0,360.0,14.0,0.0
604,70.0,0.0,360.0,12.0,0.0
605,30.0,0.0,360.0,15.0,0.0
606,58.0,0.0,360.0,13.0,0.0
607,71.0,0.0,210.0,0.0,0.0
608,74.0,0.0,210.0,0.0,0.0
609,35.0,0.0,210.0,3.0,0.0
610,47.0,0.0,210.0,3.0,0.0
611,23.0,0.0,210.0,15.0,0.0
612,35.0,0.0,210.0,14.0,0.0
613,71.0,0.0,210.0,12.0,0.0
614,74.0,0.0,210.0,1.0,0.0
615,71.0,0.0,210.0,1.0,0.0
616,74.0,0.0,210.0,11.0,0.0
617,59.0,980.0,210.0,13.0,0.0
618,62.0,0.0,210.0,13.0,0.0
619,66.0,0.0,960.0,2.0,0.0
620,54.0,0.0,960.0,3.0,0.0
621,42.0,0.0,960.0,3.0,0.0
622,58.0,0.0,960.0,13.0,0.0
623,54.0,0.0,960.0,2.0,0.0
624,70.0,0.0,960.0,0.0,0.0
625,73.0,0.0,960.0,0.0,0.0
626,70.0,0.0,960.0,12.0,0.0
627,70.0,0.0,960.0,1.0,0.0
628,73.0,0.0,960.0,1.0,0.0
629,42.0,0.0,960.0,4.0,0.0
630,54.0,0.0,960.0,4.0,0.0
631,30.0,0.0,960.0,15.0,0.0
632,73.0,240.0,960.0,11.0,0.0
633,42.0,0.0,960.0,14.0,0.0
634,61.0,0.0,960.0,13.0,0.0
635,45.0,0.0,240.0,14.0,0.0
636,33.0,240.0,240.0,15.0,0.0
637,37.0,0.0,240.0,15.0,0.0
638,49.0,480.0,240.0,14.0,0.0
639,42.0,0.0,480.0,15.0,0.0
640,54.0,240.0,480.0,14.0,0.0
641,45.0,0.0,240.0,15.0,0.0
642,57.0,480.0,240.0,14.0,0.0
643,44.0,0.0,480.0,15.0,0.0
644,56.0,240.0,480.0,14.0,0.0
645,36.0,1200.0,240.0,15.0,0.0
646,48.0,0.0,240.0,14.0,0.0
647,37.0,0.0,1410.0,15.0,0.0
648,49.0,240.0,3360.0,3.0,0.0
649,49.0,20.0,1410.0,14.0,0.0
650,56.0,0.0,720.0,13.0,0.0
651,59.0,480.0,720.0,12.0,0.0
652,61.0,220.0,480.0,11.0,0.0
653,65.0,0.0,240.0,11.0,0.0
654,57.0,220.0,480.0,12.0,0.0
655,30.0,460.0,1410.0,15.0,0.0
656,42.0,0.0,1410.0,14.0,0.0
657,54.0,0.0,480.0,3.0,0.0
658,66.0,0.0,480.0,2.0,0.0
659,66.0,0.0,480.0,11.0,0.0
660,54.0,0.0,480.0,13.0,0.0
661,53.0,0.0,210.0,13.0,0.0
662,68.0,460.0,210.0,2.0,0.0
663,56.0,0.0,210.0,3.0,0.0
664,56.0,0.0,210.0,12.0,0.0
665,68.0,0.0,210.0,11.0,0.0
666,65.0,0.0,210.0,2.0,0.0
667,59.0,0.0,450.0,12.0,0.0
668,56.0,0.0,450.0,13.0,0.0
669,71.0,0.0,450.0,2.0,0.0
670,80.0,0.0,450.0,1.0,0.0
671,71.0,240.0,450.0,11.0,0.0
672,83.0,0.0,450.0,0.0,0.0
673,59.0,0.0,450.0,3.0,0.0
674,68.0,0.0,450.0,2.0,0.0
675,57.0,0.0,210.0,3.0,0.0
676,81.0,0.0,210.0,0.0,0.0
677,78.0,0.0,210.0,1.0,0.0
678,69.0,0.0,210.0,2.0,0.0
679,66.0,0.0,210.0,2.0,0.0
680,57.0,0.0,210.0,12.0,0.0
681,54.0,20.0,210.0,13.0,0.0
682,69.0,0.0,210.0,11.0,0.0
683,25.0,0.0,450.0,15.0,0.0
684,37.0,40.0,450.0,14.0,0.0
685,65.0,0.0,480.0,2.0,0.0
686,77.0,0.0,480.0,1.0,0.0
687,68.0,0.0,480.0,2.0,0.0
688,56.0,0.0,480.0,3.0,0.0
689,53.0,0.0,480.0,13.0,0.0
690,80.0,0.0,480.0,0.0,0.0
691,56.0,0.0,480.0,12.0,0.0
692,68.0,0.0,480.0,11.0,0.0
693,37.0,240.0,240.0,14.0,0.0
694,25.0,0.0,240.0,15.0,0.0
695,42.0,0.0,240.0,14.0,0.0
696,30.0,240.0,240.0,15.0,0.0
697,45.0,0.0,240.0,14.0,0.0
698,33.0,240.0,240.0,15.0,0.0
699,37.0,0.0,240.0,15.0,0.0
700,49.0,480.0,240.0,14.0,0.0
701,42.0,240.0,480.0,15.0,0.0
702,54.0,0.0,480.0,14.0,0.0
703,45.0,0.0,240.0,15.0,0.0
704,57.0,480.0,240.0,14.0,0.0
705,56.0,0.0,480.0,14.0,0.0
706,44.0,220.0,480.0,15.0,0.0
707,48.0,500.0,210.0,14.0,0.0
708,36.0,0.0,210.0,15.0,0.0
709,37.0,240.0,480.0,15.0,0.0
710,49.0,0.0,480.0,14.0,0.0
711,52.0,0.0,240.0,15.0,0.0
712,64.0,480.0,240.0,14.0,0.0
713,64.0,0.0,240.0,13.0,0.0
714,51.0,240.0,480.0,15.0,0.0
715,63.0,0.0,480.0,13.0,0.0
716,63.0,0.0,480.0,14.0,0.0
717,55.0,0.0,240.0,13.0,0.0
718,43.0,0.0,240.0,15.0,0.0
719,55.0,480.0,240.0,14.0,0.0
720,44.0,0.0,480.0,15.0,0.0
721,56.0,0.0,480.0,13.0,0.0
722,56.0,240.0,480.0,14.0,0.0
723,59.0,0.0,240.0,13.0,0.0
724,47.0,0.0,240.0,15.0,0.0
725,59.0,480.0,240.0,14.0,0.0
726,46.0,240.0,480.0,15.0,0.0
727,58.0,0.0,480.0,13.0,0.0
728,58.0,0.0,480.0,14.0,0.0
729,50.0,0.0,240.0,14.0,0.0
730,50.0,480.0,240.0,13.0,0.0
731,38.0,0.0,240.0,15.0,0.0
732,51.0,0.0,2880.0,4.0,0.0
733,39.0,0.0,480.0,15.0,0.0
734,51.0,0.0,480.0,13.0,0.0
735,51.0,220.0,480.0,14.0,0.0
736,63.0,0.0,2880.0,4.0,0.0
737,75.0,0.0,2880.0,1.0,0.0
738,33.0,500.0,210.0,15.0,0.0
739,45.0,0.0,210.0,13.0,0.0
740,45.0,0.0,210.0,14.0,0.0
741,46.0,20.0,690.0,13.0,0.0
742,46.0,0.0,690.0,14.0,0.0
743,34.0,0.0,690.0,15.0,0.0
744,55.0,220.0,240.0,12.0,0.0
745,67.0,0.0,240.0,11.0,0.0
746,60.0,180.0,240.0,12.0,0.0
747,72.0,0.0,240.0,11.0,0.0
748,73.0,300.0,180.0,11.0,0.0
749,51.0,220.0,480.0,14.0,0.0
750,51.0,0.0,480.0,13.0,0.0
751,39.0,0.0,480.0,15.0,0.0
752,61.0,0.0,180.0,12.0,0.0
753,45.0,0.0,210.0,13.0,0.0
754,45.0,0.0,210.0,14.0,0.0
755,33.0,500.0,210.0,15.0,0.0
756,46.0,20.0,690.0,13.0,0.0
757,46.0,0.0,690.0,14.0,0.0
758,34.0,0.0,690.0,15.0,0.0
759,67.0,0.0,240.0,11.0,0.0
760,55.0,220.0,240.0,12.0,0.0
761,60.0,180.0,240.0,12.0,0.0
762,72.0,0.0,240.0,11.0,0.0
763,63.0,0.0,2130.0,4.0,0.0
764,51.0,240.0,240.0,13.0,0.0
765,75.0,0.0,2130.0,1.0,0.0
766,61.0,0.0,180.0,12.0,0.0
767,51.0,260.0,2130.0,4.0,0.0
768,73.0,60.0,180.0,11.0,0.0
769,39.0,0.0,240.0,15.0,0.0
770,51.0,0.0,240.0,14.0,0.0
771,33.0,0.0,240.0,15.0,0.0
772,45.0,0.0,240.0,13.0,0.0
773,45.0,220.0,240.0,14.0,0.0
774,46.0,0.0,210.0,14.0,0.0
775,46.0,0.0,210.0,13.0,0.0
776,34.0,260.0,210.0,15.0,0.0
777,51.0,0.0,240.0,14.0,0.0
778,61.0,0.0,240.0,12.0,0.0
779,39.0,0.0,240.0,15.0,0.0
780,51.0,0.0,240.0,13.0,0.0
781,73.0,240.0,240.0,11.0,0.0
782,45.0,0.0,240.0,14.0,0.0
783,33.0,0.0,240.0,15.0,0.0
784,45.0,220.0,240.0,13.0,0.0
785,34.0,260.0,210.0,15.0,0.0
786,46.0,0.0,210.0,14.0,0.0
787,46.0,0.0,210.0,13.0,0.0
788,51.0,0.0,240.0,13.0,0.0
789,39.0,240.0,240.0,15.0,0.0
790,51.0,0.0,240.0,14.0,0.0
791,73.0,0.0,240.0,11.0,0.0
792,61.0,0.0,240.0,12.0,0.0
793,45.0,0.0,240.0,13.0,0.0
794,45.0,0.0,240.0,14.0,0.0
795,33.0,220.0,240.0,15.0,0.0
796,34.0,0.0,210.0,15.0,0.0
797,46.0,0.0,210.0,13.0,0.0
798,46.0,0.0,210.0,14.0,0.0
799,51.0,0.0,240.0,14.0,0.0
800,51.0,0.0,240.0,13.0,0.0
801,39.0,0.0,240.0,15.0,0.0
802,63.0,240.0,240.0,4.0,0.0
803,51.0,0.0,240.0,4.0,0.0
804,75.0,0.0,240.0,11.0,0.0
805,75.0,0.0,240.0,1.0,0.0
806,63.0,0.0,240.0,12.0,0.0
807,34.0,0.0,240.0,15.0,0.0
808,46.0,0.0,240.0,13.0,0.0
809,46.0,220.0,240.0,14.0,0.0
810,35.0,0.0,210.0,15.0,0.0
811,47.0,0.0,210.0,13.0,0.0
812,47.0,260.0,210.0,14.0,0.0
813,52.0,0.0,240.0,14.0,0.0
814,40.0,240.0,240.0,15.0,0.0
815,75.0,0.0,240.0,11.0,0.0
816,75.0,0.0,240.0,1.0,0.0
817,52.0,0.0,240.0,13.0,0.0
818,51.0,0.0,240.0,4.0,0.0
819,63.0,0.0,240.0,4.0,0.0
820,63.0,0.0,240.0,12.0,0.0
821,48.0,0.0,240.0,13.0,0.0
822,48.0,220.0,240.0,14.0,0.0
823,36.0,0.0,240.0,15.0,0.0
824,49.0,0.0,210.0,13.0,0.0
825,37.0,260.0,210.0,15.0,0.0
826,49.0,0.0,210.0,14.0,0.0
827,55.0,0.0,240.0,13.0,0.0
828,51.0,0.0,240.0,4.0,0.0
829,75.0,240.0,240.0,11.0,0.0
830,63.0,0.0,240.0,12.0,0.0
831,75.0,0.0,240.0,1.0,0.0
832,43.0,0.0,240.0,15.0,0.0
833,75.0,0.0,240.0,2.0,0.0
834,63.0,0.0,240.0,2.0,0.0
835,55.0,0.0,240.0,14.0,0.0
836,63.0,0.0,240.0,4.0,0.0
837,38.0,0.0,240.0,15.0,0.0
838,50.0,0.0,240.0,13.0,0.0
839,50.0,220.0,240.0,14.0,0.0
840,51.0,260.0,210.0,14.0,0.0
841,39.0,0.0,210.0,15.0,0.0
842,51.0,0.0,210.0,13.0,0.0
843,75.0,0.0,240.0,1.0,0.0
844,56.0,0.0,240.0,13.0,0.0
845,56.0,240.0,240.0,14.0,0.0
846,63.0,0.0,240.0,12.0,0.0
847,44.0,0.0,240.0,15.0,0.0
848,75.0,0.0,240.0,11.0,0.0
849,63.0,0.0,240.0,2.0,0.0
850,75.0,0.0,240.0,2.0,0.0
851,63.0,0.0,240.0,4.0,0.0
852,51.0,0.0,240.0,4.0,0.0
853,52.0,0.0,240.0,13.0,0.0
854,52.0,220.0,240.0,14.0,0.0
855,40.0,0.0,240.0,15.0,0.0
856,53.0,0.0,210.0,13.0,0.0
857,53.0,240.0,210.0,14.0,0.0
858,41.0,0.0,210.0,15.0,0.0
859,55.0,0.0,690.0,14.0,0.0
860,51.0,0.0,240.0,5.0,0.0
861,51.0,0.0,210.0,4.0,0.0
862,63.0,0.0,240.0,5.0,0.0
863,63.0,0.0,210.0,4.0,0.0
864,70.0,0.0,210.0,12.0,0.0
865,70.0,0.0,690.0,1.0,0.0
866,43.0,0.0,690.0,15.0,0.0
867,58.0,0.0,210.0,13.0,0.0
868,39.0,220.0,240.0,10.0,0.0
869,63.0,0.0,240.0,2.0,0.0
870,75.0,0.0,240.0,2.0,0.0
871,82.0,0.0,690.0,0.0,0.0
872,58.0,0.0,690.0,3.0,0.0
873,75.0,20.0,210.0,11.0,0.0
874,75.0,240.0,210.0,2.0,0.0
875,75.0,0.0,210.0,11.0,0.0
876,58.0,0.0,210.0,13.0,0.0
877,63.0,0.0,210.0,4.0,0.0
878,70.0,0.0,210.0,12.0,0.0
879,51.0,0.0,210.0,4.0,0.0
880,63.0,0.0,210.0,2.0,0.0
881,70.0,0.0,210.0,12.0,0.0
882,63.0,0.0,210.0,2.0,0.0
883,58.0,0.0,210.0,13.0,0.0
884,75.0,0.0,210.0,2.0,0.0
885,75.0,0.0,210.0,11.0,0.0
886,63.0,0.0,210.0,4.0,0.0
887,51.0,260.0,210.0,4.0,0.0
888,56.0,0.0,690.0,14.0,0.0
889,83.0,0.0,690.0,0.0,0.0
890,59.0,0.0,690.0,3.0,0.0
891,71.0,240.0,690.0,12.0,0.0
892,51.0,0.0,240.0,5.0,0.0
893,71.0,0.0,690.0,1.0,0.0
894,75.0,0.0,690.0,11.0,0.0
895,63.0,0.0,690.0,4.0,0.0
896,44.0,0.0,690.0,15.0,0.0
897,51.0,0.0,690.0,4.0,0.0
898,56.0,0.0,690.0,13.0,0.0
899,39.0,460.0,240.0,10.0,0.0
900,75.0,0.0,690.0,2.0,0.0
901,63.0,0.0,690.0,2.0,0.0
902,63.0,0.0,240.0,5.0,0.0
903,55.0,0.0,210.0,13.0,0.0
904,63.0,0.0,240.0,5.0,0.0
905,51.0,0.0,210.0,4.0,0.0
906,63.0,0.0,210.0,4.0,0.0
907,51.0,220.0,240.0,5.0,0.0
908,75.0,0.0,210.0,2.0,0.0
909,46.0,0.0,690.0,15.0,0.0
910,70.0,0.0,690.0,1.0,0.0
911,39.0,0.0,240.0,10.0,0.0
912,70.0,0.0,210.0,12.0,0.0
913,58.0,260.0,690.0,3.0,0.0
914,75.0,20.0,210.0,11.0,0.0
915,58.0,0.0,690.0,14.0,0.0
916,82.0,0.0,690.0,0.0,0.0
917,63.0,0.0,210.0,2.0,0.0
918,70.0,0.0,210.0,12.0,0.0
919,75.0,0.0,210.0,11.0,0.0
920,63.0,0.0,210.0,2.0,0.0
921,75.0,0.0,210.0,2.0,0.0
922,63.0,240.0,210.0,4.0,0.0
923,51.0,0.0,210.0,4.0,0.0
924,55.0,0.0,210.0,13.0,0.0
925,75.0,0.0,210.0,2.0,0.0
926,63.0,0.0,210.0,2.0,0.0
927,63.0,0.0,210.0,4.0,0.0
928,51.0,0.0,210.0,4.0,0.0
929,70.0,0.0,210.0,12.0,0.0
930,75.0,0.0,210.0,11.0,0.0
931,55.0,0.0,210.0,13.0,0.0
932,63.0,0.0,690.0,2.0,0.0
933,63.0,0.0,240.0,5.0,0.0
934,56.0,0.0,690.0,13.0,0.0
935,51.0,0.0,690.0,4.0,0.0
936,63.0,0.0,690.0,4.0,0.0
937,68.0,0.0,690.0,1.0,0.0
938,75.0,0.0,690.0,11.0,0.0
939,68.0,0.0,690.0,12.0,0.0
940,51.0,0.0,240.0,5.0,0.0
941,80.0,240.0,690.0,0.0,0.0
942,56.0,0.0,690.0,3.0,0.0
943,47.0,0.0,690.0,15.0,0.0
944,75.0,0.0,690.0,2.0,0.0
945,59.0,0.0,690.0,14.0,0.0
946,39.0,460.0,240.0,10.0,0.0
947,70.0,0.0,690.0,1.0,0.0
948,63.0,0.0,240.0,5.0,0.0
949,51.0,0.0,240.0,5.0,0.0
950,58.0,0.0,210.0,13.0,0.0
951,43.0,0.0,690.0,15.0,0.0
952,63.0,0.0,210.0,13.0,0.0
953,51.0,0.0,210.0,4.0,0.0
954,75.0,20.0,210.0,11.0,0.0
955,82.0,0.0,690.0,0.0,0.0
956,39.0,220.0,240.0,10.0,0.0
957,70.0,0.0,210.0,12.0,0.0
958,58.0,0.0,690.0,3.0,0.0
959,75.0,0.0,210.0,2.0,0.0
960,63.0,0.0,210.0,2.0,0.0
961,55.0,0.0,690.0,14.0,0.0
962,63.0,0.0,210.0,4.0,0.0
963,63.0,0.0,210.0,4.0,0.0
964,51.0,0.0,210.0,4.0,0.0
965,75.0,0.0,210.0,11.0,0.0
966,70.0,0.0,210.0,12.0,0.0
967,75.0,240.0,210.0,2.0,0.0
968,63.0,0.0,210.0,13.0,0.0
969,58.0,0.0,210.0,13.0,0.0
970,63.0,0.0,210.0,2.0,0.0
971,75.0,0.0,210.0,2.0,0.0
972,63.0,0.0,210.0,2.0,0.0
973,75.0,0.0,210.0,11.0,0.0
974,58.0,0.0,210.0,13.0,0.0
975,63.0,0.0,210.0,4.0,0.0
976,63.0,0.0,210.0,13.0,0.0
977,70.0,260.0,210.0,12.0,0.0
978,51.0,0.0,210.0,4.0,0.0
979,63.0,0.0,690.0,13.0,0.0
980,83.0,0.0,690.0,0.0,0.0
981,44.0,240.0,450.0,15.0,0.0
982,71.0,0.0,690.0,1.0,0.0
983,59.0,0.0,690.0,3.0,0.0
984,59.0,0.0,690.0,13.0,0.0
985,51.0,0.0,240.0,5.0,0.0
986,63.0,260.0,690.0,4.0,0.0
987,71.0,0.0,690.0,12.0,0.0
988,39.0,220.0,240.0,10.0,0.0
989,63.0,0.0,690.0,2.0,0.0
990,51.0,0.0,690.0,4.0,0.0
991,56.0,0.0,450.0,14.0,0.0
992,75.0,0.0,690.0,2.0,0.0
993,63.0,0.0,240.0,5.0,0.0
994,75.0,0.0,690.0,11.0,0.0
995,54.0,0.0,210.0,14.0,0.0
996,42.0,0.0,210.0,15.0,0.0
997,52.0,200.0,450.0,14.0,0.0
998,63.0,0.0,240.0,4.0,0.0
999,66.0,0.0,240.0,4.0,0.0
1000,73.0,0.0,690.0,1.0,0.0
1001,68.0,0.0,240.0,5.0,0.0
1002,61.0,0.0,690.0,3.0,0.0
1003,78.0,0.0,240.0,2.0,0.0
1004,78.0,0.0,240.0,11.0,0.0
1005,75.0,220.0,240.0,2.0,0.0
1006,44.0,0.0,240.0,10.0,0.0
1007,56.0,0.0,240.0,5.0,0.0
1008,40.0,0.0,450.0,15.0,0.0
1009,75.0,0.0,240.0,12.0,0.0
1010,63.0,0.0,240.0,13.0,0.0
1011,66.0,0.0,240.0,13.0,0.0
1012,85.0,260.0,690.0,0.0,0.0
1013,61.0,0.0,210.0,13.0,0.0
1014,64.0,0.0,210.0,13.0,0.0
1015,73.0,0.0,210.0,2.0,0.0
1016,76.0,0.0,210.0,11.0,0.0
1017,76.0,0.0,210.0,2.0,0.0
1018,61.0,0.0,210.0,4.0,0.0
1019,64.0,0.0,210.0,4.0,0.0
1020,73.0,0.0,210.0,12.0,0.0
1021,75.0,0.0,180.0,2.0,0.0
1022,40.0,0.0,210.0,15.0,0.0
1023,75.0,0.0,180.0,11.0,0.0
1024,71.0,0.0,180.0,12.0,0.0
1025,59.0,0.0,180.0,13.0,0.0
1026,63.0,0.0,180.0,13.0,0.0
1027,71.0,0.0,180.0,2.0,0.0
1028,63.0,40.0,180.0,4.0,0.0
1029,59.0,0.0,180.0,4.0,0.0
1030,52.0,0.0,210.0,14.0,0.0
1031,78.0,0.0,240.0,0.0,0.0
1032,66.0,0.0,240.0,1.0,0.0
1033,73.0,0.0,690.0,11.0,0.0
1034,70.0,0.0,690.0,2.0,0.0
1035,54.0,0.0,690.0,14.0,0.0
1036,61.0,0.0,690.0,4.0,0.0
1037,54.0,240.0,690.0,4.0,0.0
1038,70.0,0.0,690.0,12.0,0.0
1039,42.0,0.0,690.0,15.0,0.0
1040,54.0,460.0,240.0,3.0,0.0
1041,73.0,0.0,690.0,2.0,0.0
1042,58.0,0.0,690.0,13.0,0.0
1043,61.0,0.0,690.0,13.0,0.0
1044,68.0,0.0,240.0,12.0,0.0
1045,60.0,0.0,240.0,12.0,0.0
1046,51.0,220.0,240.0,12.0,0.0
1047,68.0,0.0,210.0,1.0,0.0
1048,80.0,20.0,210.0,1.0,0.0
1049,44.0,20.0,690.0,14.0,0.0
1050,32.0,0.0,690.0,15.0,0.0
1051,68.0,0.0,210.0,5.0,0.0
1052,56.0,0.0,210.0,5.0,0.0
1053,44.0,0.0,210.0,3.0,0.0
1054,72.0,0.0,240.0,11.0,0.0
1055,60.0,0.0,240.0,11.0,0.0
1056,68.0,0.0,240.0,11.0,0.0
1057,44.0,0.0,240.0,10.0,0.0
1058,80.0,0.0,210.0,0.0,0.0
1059,63.0,0.0,690.0,4.0,0.0
1060,80.0,0.0,210.0,2.0,0.0
1061,68.0,0.0,210.0,2.0,0.0
1062,56.0,0.0,210.0,3.0,0.0
1063,56.0,0.0,240.0,13.0,0.0
1064,68.0,0.0,210.0,1.0,0.0
1065,80.0,0.0,210.0,0.0,0.0
1066,56.0,20.0,210.0,5.0,0.0
1067,68.0,0.0,210.0,5.0,0.0
1068,68.0,0.0,210.0,2.0,0.0
1069,80.0,0.0,210.0,2.0,0.0
1070,80.0,0.0,210.0,1.0,0.0
1071,44.0,220.0,240.0,10.0,0.0
1072,44.0,0.0,210.0,3.0,0.0
1073,56.0,0.0,210.0,3.0,0.0
1074,68.0,0.0,210.0,1.0,0.0
1075,80.0,0.0,210.0,0.0,0.0
1076,80.0,0.0,210.0,1.0,0.0
1077,68.0,0.0,210.0,2.0,0.0
1078,80.0,0.0,210.0,2.0,0.0
1079,68.0,0.0,210.0,5.0,0.0
1080,56.0,0.0,210.0,3.0,0.0
1081,44.0,0.0,210.0,3.0,0.0
1082,56.0,0.0,210.0,5.0,0.0
1083,44.0,240.0,240.0,10.0,0.0
1084,56.0,0.0,690.0,5.0,0.0
1085,68.0,0.0,690.0,5.0,0.0
1086,80.0,0.0,690.0,1.0,0.0
1087,64.0,0.0,690.0,4.0,0.0
1088,80.0,0.0,690.0,2.0,0.0
1089,68.0,0.0,690.0,1.0,0.0
1090,68.0,0.0,690.0,2.0,0.0
1091,49.0,460.0,240.0,13.0,0.0
1092,76.0,0.0,240.0,11.0,0.0
1093,49.0,0.0,690.0,14.0,0.0
1094,52.0,0.0,240.0,12.0,0.0
1095,68.0,0.0,240.0,12.0,0.0
1096,61.0,0.0,240.0,12.0,0.0
1097,44.0,0.0,240.0,10.0,0.0
1098,37.0,240.0,690.0,15.0,0.0
1099,68.0,0.0,240.0,11.0,0.0
1100,56.0,0.0,690.0,3.0,0.0
1101,44.0,0.0,690.0,3.0,0.0
1102,80.0,0.0,690.0,0.0,0.0
1103,61.0,0.0,240.0,11.0,0.0
1104,68.0,0.0,210.0,5.0,0.0
1105,68.0,0.0,240.0,11.0,0.0
1106,60.0,0.0,240.0,11.0,0.0
1107,75.0,220.0,240.0,11.0,0.0
1108,68.0,0.0,240.0,12.0,0.0
1109,60.0,0.0,240.0,12.0,0.0
1110,80.0,0.0,210.0,0.0,0.0
1111,39.0,0.0,690.0,15.0,0.0
1112,51.0,0.0,240.0,13.0,0.0
1113,44.0,0.0,210.0,3.0,0.0
1114,68.0,0.0,210.0,2.0,0.0
1115,63.0,20.0,690.0,4.0,0.0
1116,44.0,0.0,240.0,10.0,0.0
1117,51.0,0.0,690.0,14.0,0.0
1118,56.0,0.0,210.0,5.0,0.0
1119,68.0,0.0,210.0,1.0,0.0
1120,80.0,20.0,210.0,1.0,0.0
1121,56.0,0.0,210.0,3.0,0.0
1122,80.0,0.0,210.0,2.0,0.0
1123,44.0,0.0,210.0,3.0,0.0
1124,56.0,0.0,210.0,3.0,0.0
1125,68.0,0.0,210.0,2.0,0.0
1126,80.0,0.0,210.0,2.0,0.0
1127,44.0,220.0,240.0,10.0,0.0
1128,68.0,0.0,210.0,5.0,0.0
1129,80.0,0.0,210.0,0.0,0.0
1130,68.0,0.0,210.0,1.0,0.0
1131,80.0,0.0,210.0,1.0,0.0
1132,56.0,20.0,210.0,5.0,0.0
1133,56.0,0.0,210.0,5.0,0.0
1134,56.0,0.0,210.0,3.0,0.0
1135,44.0,0.0,210.0,3.0,0.0
1136,80.0,0.0,210.0,0.0,0.0
1137,68.0,0.0,210.0,2.0,0.0
1138,80.0,0.0,210.0,2.0,0.0
1139,68.0,0.0,210.0,1.0,0.0
1140,80.0,0.0,210.0,1.0,0.0
1141,68.0,0.0,210.0,5.0,0.0
1142,44.0,240.0,240.0,10.0,0.0
1143,44.0,460.0,240.0,10.0,0.0
1144,68.0,0.0,240.0,11.0,0.0
1145,61.0,0.0,240.0,11.0,0.0
1146,61.0,0.0,240.0,12.0,0.0
1147,68.0,0.0,240.0,12.0,0.0
1148,52.0,0.0,690.0,14.0,0.0
1149,40.0,0.0,690.0,15.0,0.0
1150,44.0,0.0,690.0,3.0,0.0
1151,56.0,0.0,690.0,3.0,0.0
1152,73.0,0.0,240.0,11.0,0.0
1153,80.0,0.0,690.0,0.0,0.0
1154,52.0,0.0,240.0,13.0,0.0
1155,56.0,240.0,690.0,5.0,0.0
1156,68.0,0.0,690.0,5.0,0.0
1157,80.0,0.0,690.0,2.0,0.0
1158,61.0,0.0,690.0,4.0,0.0
1159,68.0,0.0,690.0,2.0,0.0
1160,68.0,0.0,690.0,1.0,0.0
1161,80.0,0.0,690.0,1.0,0.0
1162,75.0,0.0,210.0,0.0,0.0
1163,56.0,0.0,210.0,5.0,0.0
1164,48.0,0.0,690.0,14.0,0.0
1165,80.0,0.0,210.0,0.0,0.0
1166,75.0,0.0,210.0,12.0,0.0
1167,63.0,0.0,210.0,13.0,0.0
1168,44.0,0.0,210.0,3.0,0.0
1169,56.0,0.0,210.0,3.0,0.0
1170,68.0,0.0,210.0,12.0,0.0
1171,36.0,0.0,690.0,15.0,0.0
1172,68.0,0.0,210.0,13.0,0.0
1173,63.0,0.0,690.0,4.0,0.0
1174,68.0,0.0,210.0,5.0,0.0
1175,80.0,0.0,210.0,11.0,0.0
1176,68.0,0.0,210.0,2.0,0.0
1177,44.0,220.0,240.0,10.0,0.0
1178,68.0,0.0,210.0,1.0,0.0
1179,80.0,0.0,210.0,1.0,0.0
1180,63.0,20.0,210.0,2.0,0.0
1181,75.0,0.0,210.0,12.0,0.0
1182,68.0,20.0,210.0,12.0,0.0
1183,44.0,220.0,240.0,10.0,0.0
1184,56.0,0.0,210.0,3.0,0.0
1185,44.0,0.0,210.0,3.0,0.0
1186,56.0,0.0,210.0,5.0,0.0
1187,68.0,0.0,210.0,1.0,0.0
1188,68.0,0.0,210.0,2.0,0.0
1189,63.0,0.0,210.0,2.0,0.0
1190,63.0,0.0,210.0,13.0,0.0
1191,68.0,0.0,210.0,13.0,0.0
1192,75.0,0.0,210.0,0.0,0.0
1193,80.0,0.0,210.0,0.0,0.0
1194,68.0,0.0,210.0,5.0,0.0
1195,80.0,0.0,210.0,11.0,0.0
1196,80.0,0.0,210.0,1.0,0.0
1197,56.0,0.0,210.0,3.0,0.0
1198,44.0,0.0,210.0,3.0,0.0
1199,80.0,0.0,210.0,11.0,0.0
1200,56.0,0.0,210.0,5.0,0.0
1201,68.0,20.0,210.0,5.0,0.0
1202,68.0,0.0,210.0,12.0,0.0
1203,75.0,0.0,210.0,0.0,0.0
1204,80.0,0.0,210.0,0.0,0.0
1205,68.0,0.0,210.0,1.0,0.0
1206,75.0,0.0,210.0,12.0,0.0
1207,68.0,0.0,210.0,13.0,0.0
1208,63.0,0.0,210.0,2.0,0.0
1209,68.0,0.0,210.0,2.0,0.0
1210,80.0,0.0,210.0,1.0,0.0
1211,63.0,0.0,210.0,13.0,0.0
1212,44.0,240.0,240.0,10.0,0.0
1213,64.0,0.0,690.0,2.0,0.0
1214,80.0,0.0,690.0,11.0,0.0
1215,68.0,0.0,690.0,2.0,0.0
1216,76.0,0.0,690.0,0.0,0.0
1217,44.0,220.0,240.0,10.0,0.0
1218,64.0,0.0,690.0,4.0,0.0
1219,80.0,0.0,690.0,0.0,0.0
1220,64.0,0.0,690.0,13.0,0.0
1221,68.0,0.0,690.0,13.0,0.0
1222,37.0,240.0,450.0,15.0,0.0
1223,80.0,0.0,690.0,1.0,0.0
1224,68.0,0.0,690.0,1.0,0.0
1225,56.0,0.0,720.0,5.0,0.0
1226,56.0,20.0,690.0,3.0,0.0
1227,68.0,240.0,720.0,5.0,0.0
1228,76.0,0.0,690.0,12.0,0.0
1229,68.0,0.0,690.0,12.0,0.0
1230,49.0,0.0,450.0,14.0,0.0
1231,44.0,0.0,690.0,3.0,0.0
1232,35.0,0.0,210.0,15.0,0.0
1233,47.0,0.0,210.0,14.0,0.0
1234,83.0,0.0,240.0,11.0,0.0
1235,80.0,0.0,240.0,12.0,0.0
1236,80.0,0.0,240.0,1.0,0.0
1237,71.0,0.0,240.0,13.0,0.0
1238,71.0,0.0,240.0,2.0,0.0
1239,68.0,0.0,240.0,2.0,0.0
1240,45.0,0.0,450.0,14.0,0.0
1241,71.0,0.0,240.0,1.0,0.0
1242,68.0,0.0,240.0,13.0,0.0
1243,33.0,0.0,450.0,15.0,0.0
1244,80.0,0.0,240.0,0.0,0.0
1245,83.0,0.0,240.0,0.0,0.0
1246,56.0,0.0,240.0,3.0,0.0
1247,66.0,0.0,690.0,4.0,0.0
1248,59.0,220.0,240.0,3.0,0.0
1249,78.0,0.0,210.0,12.0,0.0
1250,69.0,0.0,210.0,1.0,0.0
1251,78.0,0.0,210.0,1.0,0.0
1252,54.0,0.0,210.0,3.0,0.0
1253,81.0,0.0,210.0,11.0,0.0
1254,69.0,0.0,210.0,2.0,0.0
1255,66.0,0.0,210.0,2.0,0.0
1256,57.0,200.0,210.0,3.0,0.0
1257,66.0,0.0,210.0,13.0,0.0
1258,78.0,0.0,210.0,0.0,0.0
1259,81.0,0.0,210.0,0.0,0.0
1260,69.0,0.0,210.0,13.0,0.0
1261,45.0,720.0,210.0,14.0,0.0
1262,68.0,0.0,180.0,1.0,0.0
1263,76.0,0.0,180.0,1.0,0.0
1264,76.0,0.0,180.0,12.0,0.0
1265,68.0,0.0,180.0,2.0,0.0
1266,64.0,0.0,180.0,2.0,0.0
1267,80.0,40.0,180.0,11.0,0.0
1268,33.0,0.0,210.0,15.0,0.0
1269,68.0,0.0,180.0,13.0,0.0
1270,64.0,0.0,180.0,13.0,0.0
1271,76.0,0.0,180.0,0.0,0.0
1272,80.0,0.0,180.0,0.0,0.0
1273,56.0,0.0,180.0,3.0,0.0
1274,52.0,0.0,180.0,3.0,0.0
1275,66.0,0.0,690.0,13.0,0.0
1276,75.0,0.0,690.0,12.0,0.0
1277,63.0,0.0,690.0,13.0,0.0
1278,63.0,0.0,690.0,2.0,0.0
1279,66.0,0.0,690.0,2.0,0.0
1280,54.0,0.0,690.0,3.0,0.0
1281,35.0,0.0,690.0,15.0,0.0
1282,51.0,0.0,690.0,3.0,0.0
1283,78.0,0.0,690.0,0.0,0.0
1284,75.0,0.0,690.0,0.0,0.0
1285,78.0,260.0,690.0,11.0,0.0
1286,75.0,0.0,690.0,1.0,0.0
1287,47.0,0.0,690.0,14.0,0.0
1288,59.0,0.0,690.0,4.0,0.0
1289,66.0,0.0,690.0,1.0,0.0
1290,28.0,0.0,690.0,15.0,0.0
1291,80.0,0.0,690.0,0.0,0.0
1292,76.0,480.0,690.0,0.0,0.0
1293,68.0,0.0,690.0,1.0,0.0
1294,76.0,0.0,690.0,1.0,0.0
1295,64.0,0.0,690.0,4.0,0.0
1296,76.0,0.0,690.0,12.0,0.0
1297,44.0,460.0,240.0,10.0,0.0
1298,68.0,0.0,690.0,2.0,0.0
1299,64.0,0.0,690.0,2.0,0.0
1300,64.0,0.0,690.0,13.0,0.0
1301,56.0,0.0,240.0,5.0,0.0
1302,56.0,0.0,690.0,3.0,0.0
1303,68.0,0.0,240.0,5.0,0.0
1304,40.0,0.0,690.0,14.0,0.0
1305,80.0,0.0,690.0,11.0,0.0
1306,68.0,0.0,690.0,13.0,0.0
1307,52.0,0.0,690.0,3.0,0.0
1308,64.0,0.0,690.0,2.0,0.0
1309,61.0,0.0,690.0,13.0,0.0
1310,64.0,0.0,690.0,13.0,0.0
1311,61.0,0.0,690.0,4.0,0.0
1312,61.0,0.0,690.0,2.0,0.0
1313,76.0,0.0,690.0,0.0,0.0
1314,33.0,240.0,450.0,15.0,0.0
1315,76.0,0.0,690.0,11.0,0.0
1316,45.0,0.0,450.0,14.0,0.0
1317,73.0,0.0,690.0,0.0,0.0
1318,73.0,260.0,690.0,12.0,0.0
1319,52.0,0.0,690.0,3.0,0.0
1320,49.0,0.0,690.0,3.0,0.0
1321,73.0,0.0,690.0,1.0,0.0
1322,64.0,0.0,690.0,1.0,0.0
1323,44.0,0.0,210.0,14.0,0.0
1324,32.0,0.0,210.0,15.0,0.0
1325,76.0,0.0,240.0,12.0,0.0
1326,68.0,0.0,240.0,1.0,0.0
1327,30.0,0.0,450.0,15.0,0.0
1328,80.0,0.0,240.0,11.0,0.0
1329,63.0,0.0,690.0,4.0,0.0
1330,76.0,0.0,240.0,1.0,0.0
1331,80.0,0.0,240.0,0.0,0.0
1332,64.0,0.0,240.0,13.0,0.0
1333,76.0,0.0,240.0,0.0,0.0
1334,52.0,0.0,240.0,3.0,0.0
1335,56.0,0.0,240.0,3.0,0.0
1336,68.0,0.0,240.0,2.0,0.0
1337,64.0,220.0,240.0,2.0,0.0
1338,68.0,0.0,240.0,13.0,0.0
1339,42.0,200.0,450.0,14.0,0.0
1340,66.0,0.0,210.0,2.0,0.0
1341,51.0,0.0,210.0,3.0,0.0
1342,63.0,0.0,210.0,13.0,0.0
1343,66.0,0.0,210.0,13.0,0.0
1344,63.0,0.0,210.0,2.0,0.0
1345,78.0,0.0,210.0,0.0,0.0
1346,75.0,0.0,210.0,12.0,0.0
1347,66.0,0.0,210.0,1.0,0.0
1348,78.0,0.0,210.0,11.0,0.0
1349,75.0,0.0,210.0,1.0,0.0
1350,54.0,0.0,210.0,3.0,0.0
1351,75.0,0.0,210.0,0.0,0.0
1352,73.0,0.0,180.0,1.0,0.0
1353,64.0,0.0,180.0,1.0,0.0
1354,64.0,0.0,180.0,13.0,0.0
1355,73.0,0.0,180.0,0.0,0.0
1356,49.0,0.0,180.0,3.0,0.0
1357,52.0,0.0,180.0,3.0,0.0
1358,64.0,40.0,180.0,2.0,0.0
1359,61.0,0.0,180.0,2.0,0.0
1360,42.0,140.0,210.0,14.0,0.0
1361,73.0,0.0,180.0,12.0,0.0
1362,30.0,0.0,210.0,15.0,0.0
1363,76.0,0.0,180.0,11.0,0.0
1364,76.0,0.0,180.0,0.0,0.0
1365,61.0,0.0,180.0,13.0,0.0
1366,56.0,20.0,1170.0,5.0,0.0
1367,63.0,0.0,1200.0,2.0,0.0
1368,68.0,0.0,1170.0,5.0,0.0
1369,63.0,0.0,450.0,13.0,0.0
1370,32.0,0.0,120.0,15.0,0.0
1371,75.0,0.0,120.0,11.0,0.0
1372,44.0,220.0,240.0,10.0,0.0
1373,60.0,0.0,450.0,13.0,0.0
1374,44.0,0.0,120.0,14.0,0.0
1375,72.0,120.0,120.0,12.0,0.0
1376,60.0,0.0,1200.0,2.0,0.0
1377,75.0,0.0,1200.0,0.0,0.0
1378,48.0,0.0,1200.0,3.0,0.0
1379,51.0,0.0,1200.0,3.0,0.0
1380,72.0,220.0,1200.0,0.0,0.0
1381,63.0,140.0,450.0,1.0,0.0
1382,63.0,0.0,240.0,4.0,0.0
1383,72.0,0.0,450.0,1.0,0.0
1384,44.0,0.0,1080.0,14.0,0.0
1385,75.0,0.0,1080.0,11.0,0.0
1386,32.0,0.0,1080.0,15.0,0.0
1387,72.0,0.0,1080.0,12.0,0.0
1388,57.0,120.0,120.0,13.0,0.0
1389,69.0,0.0,240.0,1.0,0.0
1390,57.0,460.0,120.0,13.0,0.0
1391,68.0,0.0,1170.0,1.0,0.0
1392,56.0,140.0,1170.0,13.0,0.0
1393,73.0,0.0,210.0,12.0,0.0
1394,44.0,120.0,240.0,10.0,0.0
1395,64.0,20.0,210.0,2.0,0.0
1396,61.0,0.0,210.0,2.0,0.0
1397,73.0,0.0,210.0,0.0,0.0
1398,76.0,0.0,210.0,0.0,0.0
1399,64.0,0.0,210.0,4.0,0.0
1400,68.0,0.0,210.0,5.0,0.0
1401,37.0,0.0,210.0,14.0,0.0
1402,56.0,0.0,210.0,5.0,0.0
1403,25.0,0.0,210.0,15.0,0.0
1404,76.0,0.0,210.0,11.0,0.0
1405,52.0,0.0,210.0,3.0,0.0
1406,49.0,0.0,210.0,3.0,0.0
1407,51.0,0.0,1200.0,3.0,0.0
1408,63.0,0.0,1200.0,2.0,0.0
1409,75.0,0.0,120.0,11.0,0.0
1410,48.0,0.0,1200.0,3.0,0.0
1411,56.0,20.0,1170.0,5.0,0.0
1412,63.0,0.0,240.0,4.0,0.0
1413,68.0,0.0,1170.0,5.0,0.0
1414,32.0,0.0,120.0,15.0,0.0
1415,60.0,220.0,1200.0,2.0,0.0
1416,72.0,0.0,120.0,12.0,0.0
1417,44.0,120.0,120.0,14.0,0.0
1418,44.0,220.0,240.0,10.0,0.0
1419,75.0,0.0,1200.0,0.0,0.0
1420,72.0,0.0,1200.0,0.0,0.0
1421,72.0,0.0,1080.0,12.0,0.0
1422,32.0,0.0,1080.0,15.0,0.0
1423,75.0,0.0,1080.0,11.0,0.0
1424,44.0,0.0,1080.0,14.0,0.0
1425,57.0,120.0,120.0,13.0,0.0
1426,69.0,460.0,240.0,1.0,0.0
1427,57.0,0.0,120.0,13.0,0.0
1428,68.0,0.0,690.0,1.0,0.0
1429,56.0,0.0,480.0,13.0,0.0
1430,76.0,0.0,210.0,11.0,0.0
1431,64.0,20.0,210.0,2.0,0.0
1432,61.0,0.0,210.0,2.0,0.0
1433,25.0,0.0,210.0,15.0,0.0
1434,49.0,0.0,210.0,3.0,0.0
1435,52.0,0.0,210.0,3.0,0.0
1436,61.0,0.0,210.0,13.0,0.0
1437,44.0,120.0,240.0,10.0,0.0
1438,68.0,0.0,210.0,5.0,0.0
1439,56.0,0.0,210.0,5.0,0.0
1440,64.0,0.0,210.0,4.0,0.0
1441,76.0,0.0,210.0,0.0,0.0
1442,73.0,0.0,210.0,0.0,0.0
1443,37.0,0.0,210.0,14.0,0.0
1444,73.0,0.0,210.0,12.0,0.0
1445,64.0,0.0,210.0,13.0,0.0
1446,51.0,0.0,480.0,3.0,0.0
1447,48.0,0.0,480.0,3.0,0.0
1448,68.0,0.0,690.0,1.0,0.0
1449,32.0,0.0,120.0,15.0,0.0
1450,44.0,120.0,120.0,14.0,0.0
1451,63.0,240.0,240.0,4.0,0.0
1452,44.0,0.0,240.0,10.0,0.0
1453,68.0,0.0,690.0,5.0,0.0
1454,63.0,0.0,480.0,2.0,0.0
1455,72.0,0.0,480.0,0.0,0.0
1456,75.0,0.0,480.0,0.0,0.0
1457,72.0,0.0,120.0,12.0,0.0
1458,60.0,0.0,480.0,2.0,0.0
1459,63.0,0.0,120.0,13.0,0.0
1460,56.0,0.0,690.0,5.0,0.0
1461,75.0,0.0,120.0,11.0,0.0
1462,60.0,0.0,120.0,13.0,0.0
1463,60.0,0.0,360.0,13.0,0.0
1464,63.0,0.0,360.0,13.0,0.0
1465,75.0,220.0,360.0,11.0,0.0
1466,32.0,0.0,360.0,15.0,0.0
1467,72.0,0.0,360.0,12.0,0.0
1468,44.0,0.0,360.0,14.0,0.0
1469,61.0,140.0,210.0,2.0,0.0
1470,64.0,0.0,210.0,2.0,0.0
1471,52.0,0.0,210.0,3.0,0.0
1472,61.0,0.0,210.0,13.0,0.0
1473,64.0,0.0,210.0,13.0,0.0
1474,49.0,0.0,210.0,3.0,0.0
1475,73.0,0.0,210.0,0.0,0.0
1476,76.0,0.0,210.0,11.0,0.0
1477,64.0,0.0,210.0,4.0,0.0
1478,37.0,0.0,210.0,14.0,0.0
1479,73.0,0.0,210.0,12.0,0.0
1480,25.0,0.0,210.0,15.0,0.0
1481,76.0,0.0,210.0,0.0,0.0
1482,75.0,0.0,120.0,11.0,0.0
1483,56.0,0.0,690.0,5.0,0.0
1484,72.0,0.0,120.0,12.0,0.0
1485,72.0,0.0,480.0,0.0,0.0
1486,60.0,0.0,480.0,2.0,0.0
1487,75.0,220.0,480.0,0.0,0.0
1488,44.0,240.0,240.0,10.0,0.0
1489,63.0,0.0,240.0,4.0,0.0
1490,68.0,0.0,690.0,5.0,0.0
1491,68.0,0.0,690.0,1.0,0.0
1492,63.0,0.0,480.0,2.0,0.0
1493,44.0,0.0,120.0,14.0,0.0
1494,48.0,0.0,480.0,3.0,0.0
1495,60.0,120.0,120.0,13.0,0.0
1496,51.0,0.0,480.0,3.0,0.0
1497,63.0,0.0,120.0,13.0,0.0
1498,32.0,0.0,120.0,15.0,0.0
1499,72.0,0.0,360.0,12.0,0.0
1500,60.0,0.0,360.0,13.0,0.0
1501,44.0,0.0,360.0,14.0,0.0
1502,75.0,0.0,360.0,11.0,0.0
1503,63.0,0.0,360.0,13.0,0.0
1504,32.0,0.0,360.0,15.0,0.0
1505,76.0,0.0,210.0,0.0,0.0
1506,76.0,0.0,210.0,11.0,0.0
1507,64.0,0.0,210.0,13.0,0.0
1508,61.0,0.0,210.0,2.0,0.0
1509,73.0,0.0,210.0,0.0,0.0
1510,64.0,0.0,210.0,2.0,0.0
1511,73.0,0.0,210.0,12.0,0.0
1512,61.0,260.0,210.0,13.0,0.0
1513,64.0,0.0,210.0,4.0,0.0
1514,25.0,0.0,210.0,15.0,0.0
1515,37.0,0.0,210.0,14.0,0.0
1516,49.0,0.0,210.0,3.0,0.0
1517,52.0,0.0,210.0,3.0,0.0
1518,63.0,0.0,960.0,13.0,0.0
1519,60.0,0.0,960.0,13.0,0.0
1520,44.0,0.0,240.0,10.0,0.0
1521,68.0,0.0,960.0,1.0,0.0
1522,72.0,0.0,960.0,12.0,0.0
1523,75.0,0.0,960.0,11.0,0.0
1524,48.0,0.0,960.0,3.0,0.0
1525,51.0,0.0,960.0,3.0,0.0
1526,56.0,0.0,960.0,5.0,0.0
1527,68.0,240.0,960.0,5.0,0.0
1528,63.0,700.0,240.0,4.0,0.0
1529,32.0,0.0,930.0,15.0,0.0
1530,72.0,0.0,960.0,0.0,0.0
1531,75.0,0.0,960.0,0.0,0.0
1532,44.0,20.0,930.0,14.0,0.0
1533,60.0,0.0,960.0,2.0,0.0
1534,63.0,0.0,960.0,2.0,0.0
1535,35.0,0.0,240.0,15.0,0.0
1536,47.0,240.0,240.0,14.0,0.0
1537,39.0,480.0,240.0,15.0,0.0
1538,51.0,0.0,240.0,14.0,0.0
1539,44.0,0.0,480.0,15.0,0.0
1540,56.0,240.0,480.0,14.0,0.0
1541,47.0,0.0,240.0,15.0,0.0
1542,59.0,480.0,240.0,14.0,0.0
1543,46.0,220.0,480.0,15.0,0.0
1544,58.0,0.0,480.0,14.0,0.0
1545,38.0,260.0,210.0,15.0,0.0
1546,50.0,0.0,210.0,14.0,0.0
1547,51.0,240.0,690.0,14.0,0.0
1548,51.0,0.0,2880.0,4.0,0.0
1549,39.0,460.0,240.0,15.0,0.0
1550,63.0,220.0,480.0,14.0,0.0
1551,75.0,240.0,210.0,11.0,0.0
1552,75.0,0.0,480.0,0.0,0.0
1553,63.0,0.0,480.0,1.0,0.0
1554,75.0,20.0,210.0,11.0,0.0
1555,79.0,0.0,240.0,0.0,0.0
1556,75.0,20.0,210.0,11.0,0.0
1557,61.0,240.0,240.0,14.0,0.0
1558,67.0,0.0,240.0,1.0,0.0
1559,63.0,0.0,480.0,3.0,0.0
1560,75.0,240.0,240.0,11.0,0.0
1561,63.0,0.0,480.0,2.0,0.0
1562,68.0,0.0,480.0,1.0,0.0
1563,80.0,240.0,480.0,0.0,0.0
1564,59.0,0.0,480.0,14.0,0.0
1565,82.0,0.0,240.0,0.0,0.0
1566,67.0,0.0,240.0,2.0,0.0
1567,61.0,220.0,240.0,3.0,0.0
1568,70.0,0.0,240.0,1.0,0.0
1569,58.0,0.0,240.0,14.0,0.0
1570,63.0,240.0,210.0,12.0,0.0
1571,70.0,0.0,480.0,2.0,0.0
1572,59.0,0.0,480.0,3.0,0.0
1573,73.0,220.0,480.0,1.0,0.0
1574,56.0,0.0,480.0,14.0,0.0
1575,85.0,0.0,480.0,0.0,0.0
1576,63.0,20.0,210.0,12.0,0.0
1577,71.0,240.0,240.0,1.0,0.0
1578,59.0,0.0,240.0,14.0,0.0
1579,83.0,0.0,240.0,0.0,0.0
1580,68.0,0.0,240.0,2.0,0.0
1581,63.0,0.0,210.0,3.0,0.0
1582,63.0,20.0,210.0,12.0,0.0
1583,63.0,0.0,240.0,14.0,0.0
1584,82.0,0.0,240.0,0.0,0.0
1585,70.0,0.0,240.0,1.0,0.0
1586,51.0,0.0,2880.0,4.0,0.0
1587,63.0,0.0,240.0,12.0,0.0
1588,67.0,440.0,240.0,2.0,0.0
1589,63.0,0.0,240.0,3.0,0.0
1590,27.0,220.0,240.0,15.0,0.0
1591,39.0,40.0,210.0,14.0,0.0
1592,75.0,240.0,210.0,11.0,0.0
1593,75.0,0.0,480.0,0.0,0.0
1594,63.0,0.0,480.0,1.0,0.0
1595,63.0,220.0,480.0,14.0,0.0
1596,75.0,20.0,210.0,11.0,0.0
1597,75.0,20.0,210.0,11.0,0.0
1598,67.0,0.0,240.0,1.0,0.0
1599,61.0,240.0,240.0,14.0,0.0
1600,79.0,0.0,240.0,0.0,0.0
1601,75.0,240.0,240.0,11.0,0.0
1602,63.0,0.0,480.0,2.0,0.0
1603,68.0,0.0,480.0,1.0,0.0
1604,59.0,0.0,480.0,14.0,0.0
1605,80.0,240.0,480.0,0.0,0.0
1606,63.0,0.0,480.0,3.0,0.0
1607,56.0,0.0,240.0,14.0,0.0
1608,68.0,0.0,240.0,2.0,0.0
1609,59.0,0.0,240.0,3.0,0.0
1610,83.0,220.0,240.0,0.0,0.0
1611,71.0,0.0,240.0,1.0,0.0
1612,53.0,0.0,480.0,14.0,0.0
1613,71.0,0.0,480.0,2.0,0.0
1614,87.0,220.0,480.0,0.0,0.0
1615,75.0,0.0,480.0,1.0,0.0
1616,56.0,0.0,480.0,3.0,0.0
1617,63.0,240.0,210.0,12.0,0.0
1618,63.0,20.0,210.0,12.0,0.0
1619,55.0,0.0,240.0,14.0,0.0
1620,63.0,20.0,210.0,12.0,0.0
1621,85.0,0.0,240.0,0.0,0.0
1622,73.0,0.0,240.0,1.0,0.0
1623,70.0,240.0,240.0,2.0,0.0
1624,58.0,0.0,240.0,3.0,0.0
1625,56.0,0.0,240.0,14.0,0.0
1626,59.0,0.0,240.0,3.0,0.0
1627,63.0,0.0,240.0,12.0,0.0
1628,68.0,440.0,240.0,2.0,0.0
1629,83.0,0.0,240.0,0.0,0.0
1630,71.0,0.0,240.0,1.0,0.0
1631,51.0,240.0,2880.0,4.0,0.0
1632,27.0,480.0,240.0,15.0,0.0
1633,39.0,40.0,210.0,14.0,0.0
1634,68.0,0.0,480.0,12.0,0.0
1635,68.0,0.0,480.0,11.0,0.0
1636,64.0,240.0,480.0,14.0,0.0
1637,71.0,0.0,240.0,11.0,0.0
1638,68.0,480.0,240.0,12.0,0.0
1639,63.0,0.0,240.0,14.0,0.0
1640,64.0,240.0,480.0,13.0,0.0
1641,70.0,0.0,480.0,12.0,0.0
1642,73.0,0.0,480.0,11.0,0.0
1643,61.0,0.0,480.0,14.0,0.0
1644,75.0,0.0,240.0,11.0,0.0
1645,63.0,0.0,240.0,13.0,0.0
1646,71.0,220.0,240.0,12.0,0.0
1647,59.0,0.0,240.0,14.0,0.0
1648,76.0,0.0,480.0,11.0,0.0
1649,88.0,0.0,210.0,0.0,0.0
1650,51.0,0.0,2610.0,3.0,0.0
1651,73.0,180.0,480.0,12.0,0.0
1652,76.0,200.0,210.0,1.0,0.0
1653,76.0,0.0,210.0,1.0,0.0
1654,61.0,40.0,180.0,13.0,0.0
1655,88.0,20.0,210.0,0.0,0.0
1656,58.0,0.0,180.0,14.0,0.0
1657,71.0,0.0,210.0,12.0,0.0
1658,88.0,0.0,210.0,0.0,0.0
1659,59.0,0.0,180.0,14.0,0.0
1660,63.0,40.0,180.0,13.0,0.0
1661,75.0,0.0,210.0,11.0,0.0
1662,76.0,20.0,210.0,1.0,0.0
1663,75.0,0.0,480.0,11.0,0.0
1664,39.0,0.0,240.0,10.0,0.0
1665,88.0,0.0,240.0,0.0,0.0
1666,76.0,180.0,240.0,1.0,0.0
1667,51.0,220.0,1920.0,4.0,0.0
1668,71.0,0.0,480.0,12.0,0.0
1669,63.0,0.0,180.0,13.0,0.0
1670,59.0,60.0,180.0,14.0,0.0
1671,39.0,180.0,240.0,10.0,0.0
1672,61.0,0.0,180.0,14.0,0.0
1673,39.0,0.0,240.0,10.0,0.0
1674,64.0,60.0,180.0,13.0,0.0
1675,70.0,220.0,240.0,12.0,0.0
1676,73.0,0.0,240.0,11.0,0.0
1677,76.0,0.0,480.0,11.0,0.0
1678,88.0,0.0,210.0,0.0,0.0
1679,39.0,180.0,240.0,10.0,0.0
1680,73.0,180.0,480.0,12.0,0.0
1681,76.0,20.0,210.0,1.0,0.0
1682,61.0,40.0,180.0,13.0,0.0
1683,88.0,20.0,210.0,0.0,0.0
1684,58.0,0.0,180.0,14.0,0.0
1685,76.0,0.0,210.0,1.0,0.0
1686,63.0,0.0,180.0,13.0,0.0
1687,88.0,0.0,210.0,0.0,0.0
1688,71.0,200.0,210.0,12.0,0.0
1689,76.0,0.0,210.0,1.0,0.0
1690,59.0,40.0,180.0,14.0,0.0
1691,75.0,0.0,210.0,11.0,0.0
1692,39.0,0.0,240.0,10.0,0.0
1693,76.0,0.0,240.0,1.0,0.0
1694,75.0,0.0,240.0,11.0,0.0
1695,71.0,0.0,240.0,12.0,0.0
1696,59.0,0.0,180.0,14.0,0.0
1697,88.0,180.0,240.0,0.0,0.0
1698,63.0,60.0,180.0,13.0,0.0
1699,73.0,20.0,210.0,11.0,0.0
1700,70.0,0.0,210.0,12.0,0.0
1701,64.0,40.0,180.0,13.0,0.0
1702,39.0,0.0,240.0,10.0,0.0
1703,61.0,0.0,180.0,14.0,0.0
1704,52.0,0.0,240.0,14.0,0.0
1705,61.0,0.0,210.0,12.0,0.0
1706,73.0,0.0,240.0,1.0,0.0
1707,39.0,0.0,240.0,10.0,0.0
1708,73.0,20.0,210.0,11.0,0.0
1709,70.0,0.0,240.0,1.0,0.0
1710,52.0,0.0,240.0,3.0,0.0
1711,85.0,220.0,240.0,0.0,0.0
1712,58.0,0.0,210.0,13.0,0.0
1713,82.0,0.0,240.0,0.0,0.0
1714,58.0,0.0,210.0,13.0,0.0
1715,73.0,0.0,210.0,11.0,0.0
1716,51.0,220.0,480.0,3.0,0.0
1717,61.0,20.0,210.0,12.0,0.0
1718,51.0,0.0,480.0,14.0,0.0
1719,39.0,220.0,240.0,10.0,0.0
1720,73.0,0.0,210.0,11.0,0.0
1721,58.0,20.0,210.0,13.0,0.0
1722,61.0,0.0,210.0,12.0,0.0
1723,55.0,0.0,240.0,14.0,0.0
1724,75.0,20.0,210.0,11.0,0.0
1725,85.0,0.0,240.0,0.0,0.0
1726,61.0,0.0,240.0,2.0,0.0
1727,58.0,0.0,240.0,2.0,0.0
1728,82.0,0.0,240.0,0.0,0.0
1729,55.0,0.0,240.0,3.0,0.0
1730,63.0,120.0,240.0,12.0,0.0
1731,73.0,0.0,240.0,1.0,0.0
1732,70.0,0.0,240.0,1.0,0.0
1733,58.0,0.0,240.0,13.0,0.0
1734,56.0,220.0,480.0,3.0,0.0
1735,73.0,100.0,120.0,11.0,0.0
1736,56.0,0.0,480.0,14.0,0.0
1737,71.0,110.0,90.0,11.0,0.0
1738,59.0,0.0,210.0,12.0,0.0
1739,51.0,20.0,210.0,13.0,0.0
1740,70.0,120.0,90.0,11.0,0.0
1741,68.0,10.0,90.0,11.0,0.0
1742,61.0,0.0,240.0,2.0,0.0
1743,73.0,0.0,240.0,1.0,0.0
1744,61.0,120.0,240.0,12.0,0.0
1745,68.0,0.0,240.0,1.0,0.0
1746,68.0,20.0,210.0,11.0,0.0
1747,56.0,0.0,240.0,2.0,0.0
1748,80.0,0.0,240.0,0.0,0.0
1749,52.0,0.0,240.0,3.0,0.0
1750,52.0,0.0,240.0,14.0,0.0
1751,56.0,0.0,240.0,13.0,0.0
1752,85.0,0.0,240.0,0.0,0.0
1753,68.0,100.0,120.0,11.0,0.0
1754,51.0,220.0,480.0,3.0,0.0
1755,51.0,0.0,480.0,14.0,0.0
1756,67.0,110.0,90.0,11.0,0.0
1757,58.0,0.0,210.0,13.0,0.0
1758,68.0,120.0,90.0,11.0,0.0
1759,61.0,20.0,210.0,12.0,0.0
1760,70.0,10.0,90.0,11.0,0.0
1761,85.0,0.0,240.0,0.0,0.0
1762,51.0,120.0,240.0,13.0,0.0
1763,43.0,0.0,240.0,3.0,0.0
1764,43.0,0.0,240.0,14.0,0.0
1765,51.0,0.0,240.0,4.0,0.0
1766,63.0,0.0,240.0,4.0,0.0
1767,58.0,0.0,240.0,2.0,0.0
1768,61.0,0.0,240.0,2.0,0.0
1769,70.0,20.0,210.0,11.0,0.0
1770,73.0,0.0,240.0,1.0,0.0
1771,70.0,0.0,240.0,1.0,0.0
1772,82.0,0.0,240.0,0.0,0.0
1773,58.0,0.0,240.0,12.0,0.0
1774,70.0,100.0,120.0,11.0,0.0
1775,44.0,0.0,450.0,3.0,0.0
1776,44.0,240.0,450.0,14.0,0.0
1777,68.0,110.0,90.0,11.0,0.0
1778,70.0,120.0,90.0,11.0,0.0
1779,51.0,0.0,210.0,13.0,0.0
1780,59.0,0.0,210.0,12.0,0.0
1781,71.0,10.0,90.0,11.0,0.0
1782,61.0,0.0,240.0,12.0,0.0
1783,68.0,0.0,240.0,1.0,0.0
1784,73.0,0.0,240.0,1.0,0.0
1785,52.0,220.0,240.0,3.0,0.0
1786,73.0,20.0,210.0,11.0,0.0
1787,56.0,0.0,240.0,13.0,0.0
1788,80.0,0.0,240.0,0.0,0.0
1789,61.0,0.0,240.0,2.0,0.0
1790,56.0,0.0,240.0,2.0,0.0
1791,85.0,0.0,240.0,0.0,0.0
1792,52.0,0.0,240.0,14.0,0.0
1793,73.0,240.0,210.0,11.0,0.0
1794,51.0,220.0,480.0,14.0,0.0
1795,51.0,0.0,480.0,3.0,0.0
1796,55.0,0.0,210.0,13.0,0.0
1797,61.0,20.0,210.0,12.0,0.0
1798,73.0,0.0,210.0,11.0,0.0
1799,55.0,120.0,240.0,3.0,0.0
1800,85.0,0.0,240.0,0.0,0.0
1801,82.0,0.0,240.0,0.0,0.0
1802,75.0,20.0,210.0,11.0,0.0
1803,58.0,0.0,240.0,2.0,0.0
1804,58.0,0.0,240.0,13.0,0.0
1805,63.0,0.0,240.0,12.0,0.0
1806,55.0,0.0,240.0,14.0,0.0
1807,73.0,0.0,240.0,1.0,0.0
1808,70.0,0.0,240.0,1.0,0.0
1809,61.0,0.0,240.0,2.0,0.0
1810,73.0,100.0,120.0,11.0,0.0
1811,56.0,0.0,480.0,3.0,0.0
1812,56.0,220.0,480.0,14.0,0.0
1813,71.0,110.0,90.0,11.0,0.0
1814,59.0,0.0,210.0,12.0,0.0
1815,70.0,120.0,90.0,11.0,0.0
1816,51.0,20.0,210.0,13.0,0.0
1817,68.0,10.0,90.0,11.0,0.0
1818,80.0,0.0,240.0,0.0,0.0
1819,52.0,0.0,240.0,3.0,0.0
1820,52.0,0.0,240.0,14.0,0.0
1821,61.0,0.0,240.0,2.0,0.0
1822,85.0,120.0,240.0,0.0,0.0
1823,61.0,0.0,240.0,12.0,0.0
1824,56.0,0.0,240.0,13.0,0.0
1825,68.0,0.0,240.0,1.0,0.0
1826,73.0,0.0,240.0,1.0,0.0
1827,68.0,20.0,210.0,11.0,0.0
1828,56.0,0.0,240.0,2.0,0.0
1829,51.0,0.0,480.0,3.0,0.0
1830,68.0,100.0,120.0,11.0,0.0
1831,51.0,220.0,480.0,14.0,0.0
1832,67.0,110.0,90.0,11.0,0.0
1833,68.0,120.0,90.0,11.0,0.0
1834,61.0,0.0,210.0,12.0,0.0
1835,58.0,20.0,210.0,13.0,0.0
1836,70.0,10.0,90.0,11.0,0.0
1837,58.0,120.0,240.0,2.0,0.0
1838,70.0,0.0,240.0,1.0,0.0
1839,73.0,0.0,240.0,1.0,0.0
1840,51.0,0.0,240.0,4.0,0.0
1841,63.0,0.0,240.0,4.0,0.0
1842,61.0,0.0,240.0,2.0,0.0
1843,43.0,0.0,240.0,14.0,0.0
1844,51.0,0.0,240.0,13.0,0.0
1845,43.0,0.0,240.0,3.0,0.0
1846,85.0,0.0,240.0,0.0,0.0
1847,82.0,0.0,240.0,0.0,0.0
1848,70.0,20.0,210.0,11.0,0.0
1849,58.0,0.0,240.0,12.0,0.0
1850,70.0,100.0,120.0,11.0,0.0
1851,44.0,240.0,450.0,3.0,0.0
1852,44.0,0.0,450.0,14.0,0.0
1853,68.0,110.0,90.0,11.0,0.0
1854,70.0,120.0,90.0,11.0,0.0
1855,59.0,0.0,210.0,12.0,0.0
1856,51.0,0.0,210.0,13.0,0.0
1857,71.0,10.0,90.0,11.0,0.0
1858,68.0,0.0,240.0,1.0,0.0
1859,73.0,0.0,240.0,1.0,0.0
1860,61.0,0.0,240.0,12.0,0.0
1861,56.0,0.0,240.0,13.0,0.0
1862,61.0,0.0,240.0,2.0,0.0
1863,80.0,220.0,240.0,0.0,0.0
1864,73.0,20.0,210.0,11.0,0.0
1865,56.0,0.0,240.0,2.0,0.0
1866,52.0,0.0,240.0,14.0,0.0
1867,85.0,0.0,240.0,0.0,0.0
1868,52.0,0.0,240.0,3.0,0.0
1869,51.0,0.0,480.0,14.0,0.0
1870,51.0,220.0,480.0,3.0,0.0
1871,73.0,240.0,210.0,11.0,0.0
1872,58.0,0.0,210.0,12.0,0.0
1873,73.0,20.0,210.0,11.0,0.0
1874,55.0,0.0,210.0,13.0,0.0
1875,61.0,0.0,240.0,2.0,0.0
1876,63.0,0.0,240.0,12.0,0.0
1877,82.0,0.0,240.0,0.0,0.0
1878,85.0,0.0,240.0,0.0,0.0
1879,70.0,0.0,240.0,1.0,0.0
1880,73.0,0.0,240.0,1.0,0.0
1881,55.0,0.0,240.0,14.0,0.0
1882,75.0,20.0,210.0,11.0,0.0
1883,58.0,0.0,240.0,2.0,0.0
1884,58.0,120.0,240.0,13.0,0.0
1885,55.0,0.0,240.0,3.0,0.0
1886,73.0,100.0,120.0,11.0,0.0
1887,56.0,0.0,480.0,14.0,0.0
1888,56.0,240.0,480.0,3.0,0.0
1889,71.0,110.0,90.0,11.0,0.0
1890,59.0,20.0,210.0,12.0,0.0
1891,70.0,120.0,90.0,11.0,0.0
1892,56.0,0.0,210.0,13.0,0.0
1893,68.0,10.0,90.0,11.0,0.0
1894,68.0,0.0,240.0,1.0,0.0
1895,54.0,0.0,240.0,14.0,0.0
1896,56.0,0.0,240.0,2.0,0.0
1897,80.0,0.0,240.0,0.0,0.0
1898,44.0,0.0,240.0,10.0,0.0
1899,68.0,0.0,240.0,5.0,0.0
1900,54.0,0.0,240.0,3.0,0.0
1901,59.0,0.0,240.0,2.0,0.0
1902,83.0,0.0,240.0,0.0,0.0
1903,71.0,0.0,240.0,1.0,0.0
1904,56.0,0.0,240.0,5.0,0.0
1905,59.0,220.0,240.0,13.0,0.0
1906,63.0,0.0,240.0,12.0,0.0
1907,68.0,0.0,240.0,11.0,0.0
1908,52.0,0.0,480.0,3.0,0.0
1909,52.0,240.0,480.0,14.0,0.0
1910,73.0,120.0,90.0,11.0,0.0
1911,75.0,120.0,90.0,11.0,0.0
1912,61.0,20.0,210.0,12.0,0.0
1913,56.0,0.0,210.0,13.0,0.0
1914,76.0,0.0,90.0,11.0,0.0
1915,56.0,0.0,240.0,2.0,0.0
1916,64.0,0.0,240.0,12.0,0.0
1917,61.0,0.0,240.0,2.0,0.0
1918,61.0,0.0,240.0,13.0,0.0
1919,85.0,120.0,240.0,0.0,0.0
1920,49.0,0.0,240.0,3.0,0.0
1921,68.0,0.0,240.0,5.0,0.0
1922,56.0,0.0,240.0,5.0,0.0
1923,73.0,0.0,240.0,1.0,0.0
1924,68.0,0.0,240.0,1.0,0.0
1925,80.0,0.0,240.0,0.0,0.0
1926,44.0,0.0,240.0,10.0,0.0
1927,76.0,0.0,240.0,11.0,0.0
1928,49.0,0.0,240.0,14.0,0.0
1929,51.0,240.0,480.0,14.0,0.0
1930,51.0,0.0,480.0,3.0,0.0
1931,68.0,100.0,120.0,11.0,0.0
1932,67.0,110.0,90.0,11.0,0.0
1933,65.0,120.0,90.0,11.0,0.0
1934,51.0,20.0,210.0,13.0,0.0
1935,55.0,0.0,210.0,12.0,0.0
1936,63.0,10.0,90.0,11.0,0.0
1937,49.0,0.0,240.0,3.0,0.0
1938,63.0,0.0,240.0,5.0,0.0
1939,70.0,0.0,240.0,1.0,0.0
1940,51.0,0.0,240.0,5.0,0.0
1941,39.0,0.0,240.0,10.0,0.0
1942,67.0,0.0,240.0,1.0,0.0
1943,49.0,0.0,240.0,14.0,0.0
1944,63.0,0.0,240.0,11.0,0.0
1945,55.0,220.0,240.0,2.0,0.0
1946,58.0,0.0,240.0,2.0,0.0
1947,55.0,0.0,240.0,13.0,0.0
1948,58.0,0.0,240.0,12.0,0.0
1949,79.0,0.0,240.0,0.0,0.0
1950,82.0,0.0,240.0,0.0,0.0
1951,47.0,0.0,480.0,14.0,0.0
1952,47.0,220.0,480.0,3.0,0.0
1953,63.0,120.0,90.0,11.0,0.0
1954,65.0,120.0,90.0,11.0,0.0
1955,51.0,0.0,210.0,13.0,0.0
1956,56.0,20.0,210.0,12.0,0.0
1957,67.0,0.0,90.0,11.0,0.0
1958,68.0,220.0,240.0,11.0,0.0
1959,56.0,0.0,240.0,13.0,0.0
1960,46.0,20.0,210.0,3.0,0.0
1961,80.0,0.0,240.0,0.0,0.0
1962,83.0,0.0,240.0,0.0,0.0
1963,56.0,0.0,240.0,5.0,0.0
1964,68.0,0.0,240.0,5.0,0.0
1965,59.0,0.0,240.0,2.0,0.0
1966,56.0,0.0,240.0,2.0,0.0
1967,68.0,0.0,240.0,1.0,0.0
1968,46.0,0.0,210.0,14.0,0.0
1969,71.0,0.0,240.0,1.0,0.0
1970,44.0,0.0,240.0,10.0,0.0
1971,59.0,0.0,240.0,12.0,0.0
1972,32.0,0.0,480.0,15.0,0.0
1973,44.0,0.0,480.0,3.0,0.0
1974,44.0,240.0,480.0,14.0,0.0
1975,68.0,120.0,90.0,11.0,0.0
1976,56.0,20.0,210.0,13.0,0.0
1977,59.0,0.0,210.0,12.0,0.0
1978,70.0,120.0,90.0,11.0,0.0
1979,71.0,0.0,90.0,11.0,0.0
1980,80.0,0.0,240.0,0.0,0.0
1981,44.0,0.0,240.0,10.0,0.0
1982,42.0,0.0,240.0,14.0,0.0
1983,63.0,0.0,240.0,12.0,0.0
1984,30.0,0.0,240.0,15.0,0.0
1985,42.0,0.0,240.0,3.0,0.0
1986,59.0,220.0,240.0,13.0,0.0
1987,71.0,0.0,240.0,1.0,0.0
1988,56.0,0.0,240.0,2.0,0.0
1989,59.0,0.0,240.0,2.0,0.0
1990,68.0,0.0,240.0,1.0,0.0
1991,83.0,0.0,240.0,0.0,0.0
1992,71.0,0.0,240.0,11.0,0.0
1993,68.0,0.0,240.0,5.0,0.0
1994,56.0,0.0,240.0,5.0,0.0
1995,28.0,220.0,480.0,15.0,0.0
1996,40.0,0.0,480.0,14.0,0.0
1997,40.0,0.0,480.0,3.0,0.0
1998,61.0,120.0,90.0,12.0,0.0
1999,73.0,0.0,90.0,11.0,0.0
2000,63.0,120.0,90.0,12.0,0.0
2001,44.0,20.0,210.0,13.0,0.0
2002,75.0,0.0,90.0,11.0,0.0
2003,76.0,0.0,90.0,11.0,0.0
2004,64.0,0.0,90.0,12.0,0.0
2005,56.0,20.0,210.0,2.0,0.0
2006,76.0,0.0,240.0,11.0,0.0
2007,56.0,0.0,240.0,5.0,0.0
2008,68.0,0.0,240.0,5.0,0.0
2009,56.0,0.0,240.0,13.0,0.0
2010,59.0,0.0,210.0,2.0,0.0
2011,39.0,0.0,240.0,3.0,0.0
2012,83.0,0.0,240.0,0.0,0.0
2013,71.0,220.0,240.0,1.0,0.0
2014,44.0,0.0,240.0,10.0,0.0
2015,27.0,0.0,240.0,15.0,0.0
2016,80.0,0.0,240.0,0.0,0.0
2017,68.0,0.0,240.0,1.0,0.0
2018,64.0,0.0,240.0,12.0,0.0
2019,39.0,0.0,240.0,14.0,0.0
2020,64.0,0.0,450.0,2.0,0.0
2021,37.0,0.0,480.0,14.0,0.0
2022,25.0,0.0,480.0,15.0,0.0
2023,37.0,220.0,480.0,3.0,0.0
2024,56.0,0.0,450.0,2.0,0.0
2025,64.0,0.0,90.0,12.0,0.0
2026,76.0,0.0,90.0,11.0,0.0
2027,56.0,120.0,90.0,13.0,0.0
2028,58.0,0.0,90.0,13.0,0.0
2029,78.0,0.0,90.0,11.0,0.0
2030,66.0,120.0,90.0,12.0,0.0
2031,59.0,20.0,90.0,13.0,0.0
2032,68.0,0.0,90.0,12.0,0.0
2033,80.0,0.0,90.0,11.0,0.0
2034,38.0,0.0,210.0,14.0,0.0
2035,59.0,0.0,210.0,13.0,0.0
2036,68.0,0.0,210.0,12.0,0.0
2037,83.0,20.0,210.0,0.0,0.0
2038,44.0,220.0,240.0,10.0,0.0
2039,26.0,0.0,210.0,15.0,0.0
2040,56.0,0.0,210.0,5.0,0.0
2041,68.0,0.0,210.0,5.0,0.0
2042,65.0,0.0,210.0,2.0,0.0
2043,56.0,0.0,210.0,2.0,0.0
2044,80.0,0.0,210.0,0.0,0.0
2045,80.0,0.0,210.0,11.0,0.0
2046,47.0,0.0,210.0,4.0,0.0
2047,68.0,0.0,210.0,1.0,0.0
2048,71.0,0.0,210.0,1.0,0.0
2049,59.0,0.0,210.0,4.0,0.0
2050,38.0,0.0,210.0,3.0,0.0
2051,83.0,0.0,210.0,0.0,0.0
2052,27.0,0.0,210.0,15.0,0.0
2053,44.0,220.0,240.0,10.0,0.0
2054,75.0,0.0,210.0,1.0,0.0
2055,56.0,0.0,210.0,5.0,0.0
2056,68.0,0.0,210.0,5.0,0.0
2057,68.0,20.0,210.0,12.0,0.0
2058,39.0,0.0,210.0,14.0,0.0
2059,39.0,0.0,210.0,3.0,0.0
2060,59.0,0.0,210.0,2.0,0.0
2061,59.0,0.0,210.0,13.0,0.0
2062,68.0,0.0,210.0,1.0,0.0
2063,47.0,0.0,210.0,4.0,0.0
2064,59.0,0.0,210.0,4.0,0.0
2065,80.0,0.0,210.0,11.0,0.0
2066,80.0,0.0,210.0,0.0,0.0
2067,68.0,0.0,210.0,2.0,0.0
2068,59.0,0.0,210.0,2.0,0.0
2069,68.0,0.0,210.0,2.0,0.0
2070,51.0,0.0,210.0,4.0,0.0
2071,63.0,0.0,210.0,11.0,0.0
2072,83.0,0.0,210.0,0.0,0.0
2073,80.0,0.0,210.0,0.0,0.0
2074,80.0,0.0,210.0,11.0,0.0
2075,63.0,0.0,210.0,4.0,0.0
2076,80.0,0.0,210.0,12.0,0.0
2077,71.0,0.0,210.0,12.0,0.0
2078,51.0,0.0,210.0,5.0,0.0
2079,39.0,220.0,240.0,10.0,0.0
2080,51.0,0.0,210.0,14.0,0.0
2081,71.0,0.0,210.0,11.0,0.0
2082,51.0,0.0,210.0,3.0,0.0
2083,63.0,0.0,210.0,12.0,0.0
2084,63.0,0.0,210.0,5.0,0.0
2085,75.0,0.0,210.0,1.0,0.0
2086,68.0,0.0,210.0,1.0,0.0
2087,39.0,20.0,210.0,15.0,0.0
2088,51.0,0.0,210.0,13.0,0.0
2089,68.0,0.0,210.0,13.0,0.0
2090,59.0,0.0,210.0,13.0,0.0
2091,51.0,0.0,210.0,3.0,0.0
2092,39.0,240.0,240.0,10.0,0.0
2093,58.0,0.0,210.0,2.0,0.0
2094,63.0,0.0,210.0,12.0,0.0
2095,79.0,0.0,210.0,12.0,0.0
2096,67.0,0.0,210.0,2.0,0.0
2097,51.0,0.0,210.0,4.0,0.0
2098,63.0,0.0,210.0,4.0,0.0
2099,79.0,0.0,210.0,11.0,0.0
2100,63.0,0.0,210.0,11.0,0.0
2101,70.0,0.0,210.0,12.0,0.0
2102,39.0,20.0,210.0,15.0,0.0
2103,51.0,0.0,210.0,14.0,0.0
2104,82.0,0.0,210.0,0.0,0.0
2105,70.0,0.0,210.0,11.0,0.0
2106,51.0,0.0,210.0,5.0,0.0
2107,63.0,0.0,210.0,5.0,0.0
2108,75.0,0.0,210.0,1.0,0.0
2109,51.0,0.0,210.0,13.0,0.0
2110,67.0,0.0,210.0,13.0,0.0
2111,58.0,0.0,210.0,13.0,0.0
2112,79.0,0.0,210.0,0.0,0.0
2113,67.0,0.0,210.0,1.0,0.0
2114,44.0,0.0,240.0,3.0,0.0
2115,71.0,0.0,240.0,1.0,0.0
2116,59.0,700.0,240.0,2.0,0.0
2117,59.0,0.0,240.0,4.0,0.0
2118,44.0,0.0,240.0,14.0,0.0
2119,68.0,0.0,240.0,1.0,0.0
2120,68.0,0.0,240.0,2.0,0.0
2121,47.0,0.0,240.0,4.0,0.0
2122,71.0,0.0,240.0,11.0,0.0
2123,56.0,0.0,240.0,5.0,0.0
2124,71.0,0.0,240.0,12.0,0.0
2125,80.0,0.0,240.0,12.0,0.0
2126,32.0,0.0,240.0,15.0,0.0
2127,80.0,0.0,240.0,0.0,0.0
2128,80.0,0.0,240.0,11.0,0.0
2129,51.0,0.0,240.0,13.0,0.0
2130,63.0,0.0,240.0,11.0,0.0
2131,44.0,0.0,240.0,10.0,0.0
2132,63.0,0.0,240.0,12.0,0.0
2133,59.0,0.0,240.0,13.0,0.0
2134,68.0,0.0,240.0,13.0,0.0
2135,70.0,0.0,690.0,2.0,0.0
2136,58.0,0.0,210.0,13.0,0.0
2137,63.0,0.0,210.0,5.0,0.0
2138,51.0,0.0,210.0,5.0,0.0
2139,31.0,0.0,690.0,15.0,0.0
2140,51.0,0.0,210.0,4.0,0.0
2141,63.0,0.0,210.0,4.0,0.0
2142,43.0,0.0,690.0,14.0,0.0
2143,63.0,20.0,210.0,1.0,0.0
2144,58.0,0.0,690.0,3.0,0.0
2145,75.0,0.0,210.0,1.0,0.0
2146,87.0,0.0,210.0,0.0,0.0
2147,82.0,0.0,210.0,0.0,0.0
2148,70.0,0.0,210.0,12.0,0.0
2149,55.0,0.0,690.0,3.0,0.0
2150,39.0,220.0,240.0,10.0,0.0
2151,75.0,0.0,210.0,11.0,0.0
2152,87.0,0.0,210.0,0.0,0.0
2153,39.0,220.0,240.0,10.0,0.0
2154,70.0,0.0,210.0,12.0,0.0
2155,63.0,0.0,210.0,5.0,0.0
2156,58.0,0.0,210.0,13.0,0.0
2157,75.0,0.0,210.0,11.0,0.0
2158,82.0,0.0,210.0,0.0,0.0
2159,75.0,0.0,210.0,1.0,0.0
2160,63.0,20.0,210.0,1.0,0.0
2161,51.0,0.0,210.0,4.0,0.0
2162,63.0,0.0,210.0,4.0,0.0
2163,51.0,0.0,210.0,5.0,0.0
2164,70.0,0.0,210.0,12.0,0.0
2165,51.0,0.0,210.0,5.0,0.0
2166,75.0,0.0,210.0,1.0,0.0
2167,63.0,0.0,210.0,5.0,0.0
2168,39.0,240.0,240.0,10.0,0.0
2169,51.0,0.0,210.0,4.0,0.0
2170,75.0,0.0,210.0,11.0,0.0
2171,58.0,0.0,210.0,13.0,0.0
2172,87.0,0.0,210.0,0.0,0.0
2173,82.0,20.0,210.0,0.0,0.0
2174,63.0,0.0,210.0,1.0,0.0
2175,63.0,0.0,210.0,4.0,0.0
2176,63.0,0.0,690.0,5.0,0.0
2177,39.0,460.0,240.0,10.0,0.0
2178,51.0,0.0,690.0,5.0,0.0
2179,87.0,0.0,690.0,0.0,0.0
2180,59.0,0.0,690.0,13.0,0.0
2181,83.0,0.0,690.0,0.0,0.0
2182,63.0,0.0,690.0,1.0,0.0
2183,75.0,0.0,690.0,11.0,0.0
2184,32.0,240.0,690.0,15.0,0.0
2185,75.0,0.0,690.0,1.0,0.0
2186,71.0,0.0,690.0,12.0,0.0
2187,63.0,0.0,690.0,4.0,0.0
2188,51.0,0.0,690.0,4.0,0.0
2189,71.0,0.0,690.0,2.0,0.0
2190,56.0,0.0,690.0,3.0,0.0
2191,59.0,0.0,690.0,3.0,0.0
2192,44.0,0.0,690.0,14.0,0.0
2193,51.0,0.0,210.0,4.0,0.0
2194,46.0,0.0,690.0,14.0,0.0
2195,75.0,0.0,210.0,1.0,0.0
2196,63.0,0.0,210.0,1.0,0.0
2197,63.0,0.0,210.0,4.0,0.0
2198,39.0,220.0,240.0,10.0,0.0
2199,82.0,0.0,210.0,0.0,0.0
2200,75.0,0.0,210.0,11.0,0.0
2201,34.0,0.0,690.0,15.0,0.0
2202,70.0,0.0,210.0,12.0,0.0
2203,51.0,0.0,210.0,5.0,0.0
2204,63.0,0.0,210.0,5.0,0.0
2205,61.0,0.0,690.0,3.0,0.0
2206,58.0,0.0,690.0,3.0,0.0
2207,70.0,0.0,690.0,2.0,0.0
2208,87.0,20.0,210.0,0.0,0.0
2209,61.0,0.0,210.0,13.0,0.0
2210,75.0,0.0,210.0,1.0,0.0
2211,63.0,0.0,210.0,4.0,0.0
2212,51.0,0.0,210.0,4.0,0.0
2213,61.0,0.0,210.0,13.0,0.0
2214,75.0,0.0,210.0,11.0,0.0
2215,70.0,0.0,210.0,12.0,0.0
2216,51.0,0.0,210.0,5.0,0.0
2217,63.0,0.0,210.0,5.0,0.0
2218,63.0,0.0,210.0,1.0,0.0
2219,87.0,0.0,210.0,0.0,0.0
2220,82.0,20.0,210.0,0.0,0.0
2221,39.0,220.0,240.0,10.0,0.0
2222,87.0,0.0,210.0,0.0,0.0
2223,82.0,20.0,210.0,0.0,0.0
2224,63.0,0.0,210.0,1.0,0.0
2225,39.0,240.0,240.0,10.0,0.0
2226,61.0,0.0,210.0,13.0,0.0
2227,75.0,0.0,210.0,11.0,0.0
2228,75.0,0.0,210.0,1.0,0.0
2229,63.0,0.0,210.0,5.0,0.0
2230,51.0,0.0,210.0,4.0,0.0
2231,51.0,0.0,210.0,5.0,0.0
2232,63.0,0.0,210.0,4.0,0.0
2233,70.0,0.0,210.0,12.0,0.0
2234,75.0,0.0,690.0,1.0,0.0
2235,59.0,0.0,690.0,3.0,0.0
2236,63.0,0.0,690.0,3.0,0.0
2237,63.0,0.0,690.0,1.0,0.0
2238,35.0,0.0,690.0,14.0,0.0
2239,39.0,460.0,240.0,10.0,0.0
2240,75.0,0.0,690.0,11.0,0.0
2241,51.0,220.0,720.0,4.0,0.0
2242,80.0,0.0,690.0,0.0,0.0
2243,63.0,0.0,690.0,13.0,0.0
2244,51.0,0.0,690.0,5.0,0.0
2245,63.0,0.0,690.0,5.0,0.0
2246,68.0,0.0,690.0,12.0,0.0
2247,35.0,20.0,690.0,15.0,0.0
2248,68.0,0.0,720.0,2.0,0.0
2249,63.0,0.0,720.0,4.0,0.0
2250,87.0,0.0,690.0,0.0,0.0
2251,36.0,220.0,240.0,14.0,0.0
2252,51.0,20.0,210.0,13.0,0.0
2253,75.0,0.0,210.0,0.0,0.0
2254,78.0,0.0,210.0,0.0,0.0
2255,54.0,0.0,210.0,3.0,0.0
2256,51.0,0.0,210.0,3.0,0.0
2257,44.0,0.0,240.0,10.0,0.0
2258,56.0,0.0,210.0,5.0,0.0
2259,68.0,0.0,210.0,5.0,0.0
2260,66.0,0.0,210.0,12.0,0.0
2261,36.0,0.0,240.0,15.0,0.0
2262,80.0,0.0,210.0,1.0,0.0
2263,68.0,0.0,210.0,11.0,0.0
2264,66.0,0.0,210.0,12.0,0.0
2265,24.0,0.0,240.0,15.0,0.0
2266,36.0,0.0,240.0,14.0,0.0
2267,80.0,0.0,210.0,1.0,0.0
2268,51.0,0.0,210.0,13.0,0.0
2269,68.0,0.0,210.0,5.0,0.0
2270,68.0,0.0,210.0,11.0,0.0
2271,75.0,0.0,210.0,0.0,0.0
2272,54.0,0.0,210.0,3.0,0.0
2273,44.0,220.0,240.0,10.0,0.0
2274,51.0,0.0,210.0,3.0,0.0
2275,56.0,0.0,210.0,5.0,0.0
2276,78.0,20.0,210.0,0.0,0.0
2277,75.0,0.0,210.0,0.0,0.0
2278,80.0,0.0,210.0,1.0,0.0
2279,36.0,0.0,240.0,14.0,0.0
2280,44.0,180.0,240.0,10.0,0.0
2281,51.0,0.0,210.0,13.0,0.0
2282,68.0,0.0,210.0,11.0,0.0
2283,24.0,0.0,240.0,15.0,0.0
2284,66.0,0.0,210.0,12.0,0.0
2285,78.0,20.0,210.0,0.0,0.0
2286,54.0,0.0,210.0,3.0,0.0
2287,51.0,0.0,210.0,3.0,0.0
2288,68.0,0.0,210.0,5.0,0.0
2289,56.0,0.0,210.0,5.0,0.0
2290,52.0,0.0,180.0,13.0,0.0
2291,49.0,0.0,180.0,3.0,0.0
2292,25.0,720.0,180.0,15.0,0.0
2293,52.0,0.0,180.0,3.0,0.0
2294,37.0,0.0,180.0,14.0,0.0
2295,56.0,0.0,180.0,5.0,0.0
2296,80.0,0.0,180.0,1.0,0.0
2297,68.0,0.0,180.0,5.0,0.0
2298,44.0,0.0,180.0,10.0,0.0
2299,68.0,0.0,180.0,11.0,0.0
2300,64.0,0.0,180.0,12.0,0.0
2301,73.0,0.0,180.0,0.0,0.0
2302,76.0,0.0,180.0,0.0,0.0
2303,51.0,0.0,180.0,5.0,0.0
2304,39.0,0.0,180.0,10.0,0.0
2305,63.0,0.0,180.0,5.0,0.0
2306,63.0,0.0,180.0,11.0,0.0
2307,55.0,0.0,180.0,13.0,0.0
2308,39.0,720.0,180.0,14.0,0.0
2309,70.0,0.0,180.0,0.0,0.0
2310,75.0,0.0,180.0,1.0,0.0
2311,55.0,0.0,180.0,3.0,0.0
2312,58.0,0.0,180.0,12.0,0.0
2313,51.0,0.0,180.0,3.0,0.0
2314,27.0,0.0,180.0,15.0,0.0
2315,67.0,0.0,180.0,0.0,0.0
2316,68.0,0.0,180.0,1.0,0.0
2317,68.0,0.0,180.0,0.0,0.0
2318,44.0,0.0,180.0,3.0,0.0
2319,56.0,0.0,180.0,3.0,0.0
2320,32.0,0.0,180.0,15.0,0.0
2321,56.0,0.0,180.0,5.0,0.0
2322,44.0,0.0,180.0,14.0,0.0
2323,56.0,520.0,180.0,12.0,0.0
2324,56.0,0.0,180.0,13.0,0.0
2325,44.0,0.0,180.0,10.0,0.0
2326,56.0,0.0,180.0,11.0,0.0
2327,44.0,120.0,210.0,14.0,0.0
2328,32.0,0.0,210.0,15.0,0.0
2329,31.0,0.0,90.0,15.0,0.0
2330,43.0,120.0,90.0,14.0,0.0
2331,32.0,0.0,90.0,15.0,0.0
2332,44.0,120.0,90.0,14.0,0.0
2333,34.0,120.0,90.0,15.0,0.0
2334,46.0,0.0,90.0,14.0,0.0
2335,39.0,0.0,90.0,14.0,0.0
2336,27.0,120.0,90.0,15.0,0.0
2337,41.0,0.0,90.0,14.0,0.0
2338,29.0,120.0,90.0,15.0,0.0
2339,43.0,0.0,90.0,14.0,0.0
2340,31.0,120.0,90.0,15.0,0.0
2341,44.0,0.0,90.0,14.0,0.0
2342,32.0,120.0,90.0,15.0,0.0
2343,31.0,0.0,90.0,15.0,0.0
2344,43.0,120.0,90.0,14.0,0.0
2345,44.0,0.0,90.0,14.0,0.0
2346,32.0,120.0,90.0,15.0,0.0
2347,46.0,0.0,90.0,14.0,0.0
2348,34.0,120.0,90.0,15.0,0.0
2349,48.0,120.0,90.0,14.0,0.0
2350,36.0,0.0,90.0,15.0,0.0
2351,37.0,0.0,90.0,15.0,0.0
2352,49.0,480.0,90.0,14.0,0.0
2353,39.0,0.0,450.0,15.0,0.0
2354,51.0,240.0,450.0,14.0,0.0
2355,49.0,0.0,210.0,14.0,0.0
2356,37.0,240.0,210.0,15.0,0.0
2357,48.0,0.0,210.0,14.0,0.0
2358,36.0,240.0,210.0,15.0,0.0
2359,32.0,240.0,210.0,15.0,0.0
2360,44.0,0.0,210.0,14.0,0.0
2361,53.0,240.0,210.0,14.0,0.0
2362,41.0,0.0,210.0,15.0,0.0
2363,37.0,240.0,210.0,15.0,0.0
2364,49.0,0.0,210.0,14.0,0.0
2365,46.0,0.0,210.0,14.0,0.0
2366,34.0,240.0,210.0,15.0,0.0
2367,43.0,0.0,210.0,15.0,0.0
2368,55.0,240.0,210.0,14.0,0.0
2369,51.0,240.0,210.0,14.0,0.0
2370,39.0,0.0,210.0,15.0,0.0
2371,48.0,0.0,210.0,14.0,0.0
2372,36.0,240.0,210.0,15.0,0.0
2373,44.0,0.0,210.0,15.0,0.0
2374,53.0,0.0,210.0,3.0,0.0
2375,53.0,0.0,210.0,13.0,0.0
2376,56.0,120.0,210.0,14.0,0.0
2377,50.0,120.0,90.0,3.0,0.0
2378,50.0,0.0,90.0,13.0,0.0
2379,53.0,120.0,210.0,14.0,0.0
2380,41.0,0.0,210.0,15.0,0.0
2381,51.0,0.0,90.0,13.0,0.0
2382,51.0,0.0,90.0,3.0,0.0
2383,58.0,0.0,210.0,14.0,0.0
2384,53.0,120.0,90.0,13.0,0.0
2385,53.0,0.0,90.0,3.0,0.0
2386,46.0,0.0,210.0,15.0,0.0
2387,46.0,0.0,90.0,13.0,0.0
2388,46.0,120.0,90.0,3.0,0.0
2389,56.0,0.0,210.0,14.0,0.0
2390,48.0,0.0,90.0,3.0,0.0
2391,44.0,0.0,210.0,15.0,0.0
2392,48.0,120.0,90.0,13.0,0.0
2393,50.0,0.0,90.0,13.0,0.0
2394,50.0,120.0,90.0,3.0,0.0
2395,55.0,0.0,210.0,14.0,0.0
2396,51.0,120.0,90.0,13.0,0.0
2397,43.0,0.0,210.0,15.0,0.0
2398,51.0,0.0,90.0,3.0,0.0
2399,50.0,0.0,90.0,13.0,0.0
2400,50.0,120.0,90.0,3.0,0.0
2401,51.0,0.0,90.0,3.0,0.0
2402,39.0,120.0,210.0,15.0,0.0
2403,51.0,0.0,210.0,14.0,0.0
2404,51.0,120.0,90.0,13.0,0.0
2405,53.0,0.0,90.0,3.0,0.0
2406,53.0,0.0,90.0,13.0,0.0
2407,48.0,0.0,210.0,14.0,0.0
2408,55.0,0.0,90.0,3.0,0.0
2409,55.0,120.0,90.0,13.0,0.0
2410,36.0,0.0,210.0,15.0,0.0
2411,57.0,0.0,90.0,13.0,0.0
2412,57.0,240.0,90.0,3.0,0.0
2413,50.0,0.0,210.0,14.0,0.0
2414,38.0,240.0,210.0,15.0,0.0
2415,58.0,0.0,450.0,13.0,0.0
2416,58.0,0.0,450.0,3.0,0.0
2417,34.0,240.0,210.0,15.0,0.0
2418,46.0,0.0,210.0,14.0,0.0
2419,56.0,0.0,210.0,3.0,0.0
2420,50.0,0.0,210.0,14.0,0.0
2421,56.0,240.0,210.0,13.0,0.0
2422,38.0,0.0,210.0,15.0,0.0
2423,55.0,0.0,210.0,3.0,0.0
2424,55.0,240.0,210.0,13.0,0.0
2425,39.0,0.0,210.0,15.0,0.0
2426,51.0,0.0,210.0,14.0,0.0
2427,51.0,0.0,210.0,3.0,0.0
2428,48.0,0.0,210.0,14.0,0.0
2429,36.0,0.0,210.0,15.0,0.0
2430,51.0,240.0,210.0,13.0,0.0
2431,60.0,0.0,210.0,3.0,0.0
2432,40.0,0.0,210.0,15.0,0.0
2433,52.0,240.0,210.0,14.0,0.0
2434,60.0,0.0,210.0,13.0,0.0
2435,56.0,0.0,210.0,3.0,0.0
2436,41.0,0.0,210.0,15.0,0.0
2437,56.0,0.0,210.0,13.0,0.0
2438,53.0,240.0,210.0,14.0,0.0
2439,53.0,240.0,210.0,3.0,0.0
2440,37.0,0.0,210.0,15.0,0.0
2441,49.0,0.0,210.0,14.0,0.0
2442,53.0,0.0,210.0,13.0,0.0
2443,41.0,0.0,210.0,15.0,0.0
2444,53.0,240.0,210.0,14.0,0.0
2445,61.0,0.0,210.0,13.0,0.0
2446,61.0,0.0,210.0,3.0,0.0
2447,43.0,0.0,210.0,15.0,0.0
2448,55.0,240.0,210.0,14.0,0.0
2449,58.0,0.0,210.0,13.0,0.0
2450,58.0,0.0,210.0,3.0,0.0
2451,55.0,0.0,210.0,13.0,0.0
2452,55.0,0.0,210.0,3.0,0.0
2453,51.0,0.0,210.0,14.0,0.0
2454,39.0,240.0,210.0,15.0,0.0
2455,63.0,120.0,210.0,3.0,0.0
2456,63.0,0.0,450.0,13.0,0.0
2457,60.0,0.0,210.0,14.0,0.0
2458,48.0,0.0,210.0,15.0,0.0
2459,68.0,0.0,210.0,12.0,0.0
2460,63.0,0.0,690.0,5.0,0.0
2461,51.0,0.0,690.0,5.0,0.0
2462,49.0,0.0,210.0,15.0,0.0
2463,51.0,120.0,690.0,3.0,0.0
2464,67.0,120.0,90.0,12.0,0.0
2465,39.0,100.0,240.0,10.0,0.0
2466,61.0,0.0,210.0,14.0,0.0
2467,39.0,0.0,690.0,3.0,0.0
2468,68.0,20.0,90.0,12.0,0.0
2469,39.0,120.0,210.0,15.0,0.0
2470,51.0,0.0,210.0,14.0,0.0
2471,70.0,120.0,90.0,12.0,0.0
2472,55.0,0.0,90.0,13.0,0.0
2473,55.0,0.0,90.0,13.0,0.0
2474,63.0,0.0,90.0,12.0,0.0
2475,56.0,0.0,90.0,13.0,0.0
2476,65.0,120.0,90.0,12.0,0.0
2477,61.0,0.0,210.0,14.0,0.0
2478,49.0,0.0,210.0,15.0,0.0
2479,58.0,0.0,90.0,13.0,0.0
2480,67.0,0.0,90.0,12.0,0.0
2481,60.0,0.0,210.0,14.0,0.0
2482,68.0,120.0,90.0,12.0,0.0
2483,44.0,0.0,690.0,3.0,0.0
2484,56.0,0.0,690.0,3.0,0.0
2485,44.0,100.0,240.0,10.0,0.0
2486,51.0,0.0,210.0,13.0,0.0
2487,48.0,20.0,210.0,15.0,0.0
2488,56.0,0.0,690.0,5.0,0.0
2489,68.0,0.0,690.0,5.0,0.0
2490,67.0,0.0,90.0,12.0,0.0
2491,44.0,0.0,210.0,15.0,0.0
2492,56.0,120.0,210.0,14.0,0.0
2493,68.0,120.0,90.0,12.0,0.0
2494,60.0,0.0,90.0,13.0,0.0
2495,61.0,0.0,90.0,13.0,0.0
2496,70.0,0.0,90.0,12.0,0.0
2497,75.0,0.0,210.0,11.0,0.0
2498,43.0,0.0,210.0,15.0,0.0
2499,72.0,120.0,90.0,12.0,0.0
2500,55.0,0.0,210.0,14.0,0.0
2501,63.0,0.0,90.0,13.0,0.0
2502,70.0,0.0,90.0,12.0,0.0
2503,63.0,120.0,90.0,13.0,0.0
2504,53.0,0.0,210.0,14.0,0.0
2505,46.0,0.0,690.0,3.0,0.0
2506,65.0,0.0,90.0,13.0,0.0
2507,74.0,120.0,90.0,11.0,0.0
2508,68.0,0.0,210.0,12.0,0.0
2509,70.0,0.0,690.0,5.0,0.0
2510,41.0,0.0,210.0,15.0,0.0
2511,58.0,0.0,690.0,3.0,0.0
2512,67.0,0.0,90.0,13.0,0.0
2513,75.0,120.0,90.0,11.0,0.0
2514,34.0,0.0,210.0,15.0,0.0
2515,77.0,120.0,90.0,11.0,0.0
2516,62.0,0.0,210.0,12.0,0.0
2517,46.0,120.0,210.0,14.0,0.0
2518,68.0,0.0,90.0,13.0,0.0
2519,70.0,0.0,90.0,11.0,0.0
2520,62.0,0.0,90.0,13.0,0.0
2521,72.0,120.0,90.0,11.0,0.0
2522,56.0,0.0,210.0,14.0,0.0
2523,44.0,120.0,210.0,15.0,0.0
2524,63.0,0.0,90.0,13.0,0.0
2525,65.0,0.0,210.0,12.0,0.0
2526,74.0,0.0,90.0,11.0,0.0
2527,65.0,0.0,90.0,13.0,0.0
2528,51.0,0.0,690.0,3.0,0.0
2529,63.0,0.0,690.0,1.0,0.0
2530,67.0,0.0,90.0,13.0,0.0
2531,63.0,0.0,690.0,3.0,0.0
2532,75.0,120.0,90.0,11.0,0.0
2533,75.0,120.0,690.0,1.0,0.0
2534,58.0,0.0,210.0,12.0,0.0
2535,75.0,0.0,690.0,0.0,0.0
2536,43.0,0.0,210.0,15.0,0.0
2537,55.0,0.0,210.0,14.0,0.0
2538,70.0,0.0,450.0,5.0,0.0
2539,39.0,100.0,240.0,10.0,0.0
2540,58.0,20.0,90.0,13.0,0.0
2541,74.0,0.0,90.0,11.0,0.0
2542,75.0,120.0,90.0,11.0,0.0
2543,67.0,0.0,210.0,12.0,0.0
2544,39.0,0.0,210.0,15.0,0.0
2545,56.0,0.0,90.0,13.0,0.0
2546,51.0,0.0,210.0,14.0,0.0
2547,77.0,0.0,90.0,11.0,0.0
2548,55.0,120.0,90.0,13.0,0.0
2549,63.0,0.0,210.0,12.0,0.0
2550,79.0,120.0,90.0,11.0,0.0
2551,48.0,0.0,210.0,14.0,0.0
2552,36.0,0.0,210.0,15.0,0.0
2553,53.0,0.0,90.0,13.0,0.0
2554,63.0,0.0,210.0,5.0,0.0
2555,51.0,0.0,90.0,13.0,0.0
2556,80.0,0.0,90.0,11.0,0.0
2557,74.0,120.0,450.0,1.0,0.0
2558,82.0,0.0,90.0,11.0,0.0
2559,46.0,120.0,90.0,14.0,0.0
2560,34.0,0.0,90.0,15.0,0.0
2561,70.0,0.0,450.0,1.0,0.0
2562,58.0,0.0,450.0,3.0,0.0
2563,70.0,0.0,90.0,12.0,0.0
2564,70.0,0.0,690.0,5.0,0.0
2565,82.0,0.0,450.0,0.0,0.0
2566,50.0,0.0,90.0,13.0,0.0
2567,70.0,0.0,90.0,12.0,0.0
2568,82.0,0.0,90.0,11.0,0.0
2569,33.0,0.0,90.0,15.0,0.0
2570,45.0,0.0,90.0,14.0,0.0
2571,62.0,120.0,90.0,13.0,0.0
2572,46.0,120.0,90.0,14.0,0.0
2573,70.0,0.0,90.0,12.0,0.0
2574,34.0,0.0,90.0,15.0,0.0
2575,82.0,0.0,90.0,11.0,0.0
2576,62.0,0.0,90.0,13.0,0.0
2577,70.0,0.0,90.0,12.0,0.0
2578,82.0,0.0,90.0,11.0,0.0
2579,44.0,0.0,90.0,14.0,0.0
2580,32.0,0.0,90.0,15.0,0.0
2581,62.0,0.0,90.0,13.0,0.0
2582,84.0,0.0,90.0,11.0,0.0
2583,58.0,0.0,90.0,3.0,0.0
2584,63.0,0.0,90.0,13.0,0.0
2585,31.0,0.0,90.0,15.0,0.0
2586,55.0,0.0,90.0,3.0,0.0
2587,72.0,0.0,90.0,12.0,0.0
2588,43.0,0.0,90.0,14.0,0.0
2589,75.0,120.0,90.0,1.0,0.0
2590,84.0,0.0,90.0,0.0,0.0
2591,72.0,0.0,90.0,1.0,0.0
2592,29.0,0.0,90.0,15.0,0.0
2593,74.0,0.0,90.0,12.0,0.0
2594,65.0,0.0,90.0,13.0,0.0
2595,77.0,0.0,90.0,1.0,0.0
2596,86.0,0.0,90.0,0.0,0.0
2597,41.0,0.0,90.0,14.0,0.0
2598,56.0,0.0,90.0,3.0,0.0
2599,86.0,0.0,90.0,11.0,0.0
2600,53.0,0.0,90.0,3.0,0.0
2601,74.0,120.0,90.0,1.0,0.0
2602,39.0,0.0,240.0,10.0,0.0
2603,75.0,0.0,240.0,1.0,0.0
2604,79.0,0.0,240.0,1.0,0.0
2605,67.0,0.0,240.0,13.0,0.0
2606,67.0,0.0,240.0,12.0,0.0
2607,51.0,0.0,240.0,3.0,0.0
2608,55.0,0.0,240.0,3.0,0.0
2609,51.0,0.0,240.0,4.0,0.0
2610,58.0,0.0,240.0,13.0,0.0
2611,51.0,0.0,240.0,13.0,0.0
2612,63.0,0.0,240.0,4.0,0.0
2613,87.0,0.0,240.0,11.0,0.0
2614,27.0,120.0,90.0,15.0,0.0
2615,39.0,0.0,90.0,14.0,0.0
2616,70.0,0.0,240.0,5.0,0.0
2617,75.0,0.0,240.0,12.0,0.0
2618,87.0,100.0,240.0,0.0,0.0
2619,63.0,0.0,240.0,5.0,0.0
2620,79.0,0.0,240.0,0.0,0.0
2621,31.0,0.0,90.0,15.0,0.0
2622,43.0,20.0,90.0,14.0,0.0
2623,46.0,0.0,90.0,14.0,0.0
2624,34.0,120.0,90.0,15.0,0.0
2625,82.0,0.0,90.0,11.0,0.0
2626,44.0,0.0,90.0,14.0,0.0
2627,70.0,0.0,90.0,12.0,0.0
2628,82.0,0.0,90.0,0.0,0.0
2629,62.0,0.0,90.0,13.0,0.0
2630,32.0,120.0,90.0,15.0,0.0
2631,72.0,0.0,90.0,12.0,0.0
2632,31.0,120.0,90.0,15.0,0.0
2633,84.0,0.0,90.0,11.0,0.0
2634,84.0,0.0,90.0,0.0,0.0
2635,63.0,0.0,90.0,13.0,0.0
2636,43.0,0.0,90.0,14.0,0.0
2637,86.0,0.0,90.0,0.0,0.0
2638,41.0,0.0,90.0,14.0,0.0
2639,65.0,0.0,90.0,13.0,0.0
2640,29.0,0.0,90.0,15.0,0.0
2641,86.0,120.0,90.0,11.0,0.0
2642,74.0,0.0,90.0,12.0,0.0
2643,39.0,0.0,90.0,14.0,0.0
2644,75.0,0.0,240.0,1.0,0.0
2645,79.0,0.0,240.0,1.0,0.0
2646,58.0,0.0,240.0,13.0,0.0
2647,87.0,0.0,240.0,11.0,0.0
2648,67.0,0.0,240.0,13.0,0.0
2649,75.0,0.0,240.0,12.0,0.0
2650,67.0,0.0,240.0,12.0,0.0
2651,27.0,120.0,90.0,15.0,0.0
2652,39.0,0.0,240.0,10.0,0.0
2653,55.0,0.0,240.0,3.0,0.0
2654,51.0,100.0,240.0,13.0,0.0
2655,63.0,0.0,240.0,5.0,0.0
2656,51.0,0.0,240.0,3.0,0.0
2657,63.0,0.0,240.0,4.0,0.0
2658,51.0,0.0,240.0,4.0,0.0
2659,79.0,0.0,240.0,0.0,0.0
2660,87.0,0.0,240.0,0.0,0.0
2661,70.0,0.0,240.0,5.0,0.0
2662,31.0,0.0,90.0,15.0,0.0
2663,43.0,20.0,90.0,14.0,0.0
2664,46.0,0.0,90.0,14.0,0.0
2665,34.0,120.0,90.0,15.0,0.0
2666,70.0,0.0,90.0,12.0,0.0
2667,44.0,0.0,90.0,14.0,0.0
2668,82.0,0.0,90.0,0.0,0.0
2669,82.0,120.0,90.0,11.0,0.0
2670,62.0,0.0,90.0,13.0,0.0
2671,32.0,0.0,90.0,15.0,0.0
2672,84.0,0.0,90.0,0.0,0.0
2673,43.0,0.0,90.0,14.0,0.0
2674,31.0,120.0,90.0,15.0,0.0
2675,63.0,0.0,90.0,13.0,0.0
2676,72.0,0.0,90.0,12.0,0.0
2677,84.0,0.0,90.0,11.0,0.0
2678,41.0,0.0,90.0,14.0,0.0
2679,86.0,260.0,90.0,0.0,0.0
2680,65.0,0.0,90.0,13.0,0.0
2681,29.0,0.0,90.0,15.0,0.0
2682,74.0,0.0,90.0,12.0,0.0
2683,86.0,0.0,90.0,11.0,0.0
2684,87.0,0.0,240.0,11.0,0.0
2685,51.0,0.0,240.0,4.0,0.0
2686,79.0,0.0,240.0,1.0,0.0
2687,63.0,0.0,240.0,4.0,0.0
2688,39.0,0.0,240.0,10.0,0.0
2689,75.0,0.0,240.0,12.0,0.0
2690,87.0,0.0,240.0,0.0,0.0
2691,63.0,0.0,240.0,5.0,0.0
2692,67.0,0.0,240.0,12.0,0.0
2693,58.0,0.0,240.0,12.0,0.0
2694,51.0,0.0,240.0,3.0,0.0
2695,55.0,460.0,240.0,3.0,0.0
2696,27.0,0.0,240.0,15.0,0.0
2697,51.0,0.0,240.0,13.0,0.0
2698,58.0,0.0,240.0,13.0,0.0
2699,67.0,0.0,240.0,13.0,0.0
2700,79.0,0.0,240.0,0.0,0.0
2701,70.0,0.0,240.0,5.0,0.0
2702,75.0,0.0,240.0,1.0,0.0
2703,39.0,0.0,240.0,14.0,0.0
2704,44.0,120.0,210.0,14.0,0.0
2705,32.0,0.0,210.0,15.0,0.0
2706,31.0,120.0,90.0,15.0,0.0
2707,43.0,0.0,90.0,14.0,0.0
2708,32.0,120.0,90.0,15.0,0.0
2709,44.0,0.0,90.0,14.0,0.0
2710,46.0,0.0,90.0,14.0,0.0
2711,34.0,120.0,90.0,15.0,0.0
2712,39.0,120.0,90.0,14.0,0.0
2713,27.0,0.0,90.0,15.0,0.0
2714,29.0,120.0,90.0,15.0,0.0
2715,41.0,0.0,90.0,14.0,0.0
2716,43.0,0.0,90.0,14.0,0.0
2717,31.0,120.0,90.0,15.0,0.0
2718,44.0,0.0,90.0,14.0,0.0
2719,32.0,120.0,90.0,15.0,0.0
2720,31.0,0.0,90.0,15.0,0.0
2721,43.0,120.0,90.0,14.0,0.0
2722,44.0,0.0,90.0,14.0,0.0
2723,32.0,120.0,90.0,15.0,0.0
2724,34.0,0.0,90.0,15.0,0.0
2725,46.0,120.0,90.0,14.0,0.0
2726,48.0,0.0,90.0,14.0,0.0
2727,36.0,120.0,90.0,15.0,0.0
2728,49.0,0.0,90.0,14.0,0.0
2729,37.0,480.0,90.0,15.0,0.0
2730,39.0,240.0,450.0,15.0,0.0
2731,51.0,0.0,450.0,14.0,0.0
2732,37.0,240.0,210.0,15.0,0.0
2733,49.0,0.0,210.0,14.0,0.0
2734,36.0,240.0,210.0,15.0,0.0
2735,48.0,0.0,210.0,14.0,0.0
2736,32.0,240.0,210.0,15.0,0.0
2737,44.0,0.0,210.0,14.0,0.0
2738,53.0,0.0,210.0,14.0,0.0
2739,41.0,240.0,210.0,15.0,0.0
2740,37.0,0.0,210.0,15.0,0.0
2741,49.0,240.0,210.0,14.0,0.0
2742,46.0,240.0,210.0,14.0,0.0
2743,34.0,0.0,210.0,15.0,0.0
2744,43.0,0.0,210.0,15.0,0.0
2745,55.0,240.0,210.0,14.0,0.0
2746,39.0,0.0,210.0,15.0,0.0
2747,51.0,240.0,210.0,14.0,0.0
2748,48.0,0.0,210.0,14.0,0.0
2749,36.0,240.0,210.0,15.0,0.0
2750,56.0,120.0,210.0,14.0,0.0
2751,53.0,0.0,210.0,13.0,0.0
2752,44.0,0.0,210.0,15.0,0.0
2753,53.0,0.0,210.0,3.0,0.0
2754,53.0,0.0,210.0,14.0,0.0
2755,50.0,120.0,90.0,3.0,0.0
2756,50.0,0.0,90.0,13.0,0.0
2757,41.0,120.0,210.0,15.0,0.0
2758,51.0,0.0,90.0,3.0,0.0
2759,51.0,0.0,90.0,13.0,0.0
2760,53.0,0.0,90.0,13.0,0.0
2761,58.0,0.0,210.0,14.0,0.0
2762,53.0,120.0,90.0,3.0,0.0
2763,46.0,120.0,210.0,15.0,0.0
2764,46.0,0.0,90.0,13.0,0.0
2765,46.0,0.0,90.0,3.0,0.0
2766,56.0,0.0,210.0,14.0,0.0
2767,48.0,0.0,90.0,13.0,0.0
2768,48.0,120.0,90.0,3.0,0.0
2769,44.0,0.0,210.0,15.0,0.0
2770,50.0,0.0,90.0,13.0,0.0
2771,50.0,120.0,90.0,3.0,0.0
2772,51.0,0.0,90.0,13.0,0.0
2773,55.0,0.0,210.0,14.0,0.0
2774,51.0,120.0,90.0,3.0,0.0
2775,43.0,0.0,210.0,15.0,0.0
2776,50.0,0.0,90.0,3.0,0.0
2777,50.0,120.0,90.0,13.0,0.0
2778,51.0,120.0,90.0,3.0,0.0
2779,51.0,0.0,210.0,14.0,0.0
2780,39.0,0.0,210.0,15.0,0.0
2781,51.0,0.0,90.0,13.0,0.0
2782,53.0,0.0,90.0,13.0,0.0
2783,53.0,120.0,90.0,3.0,0.0
2784,36.0,0.0,210.0,15.0,0.0
2785,55.0,0.0,90.0,13.0,0.0
2786,48.0,240.0,210.0,14.0,0.0
2787,55.0,120.0,90.0,3.0,0.0
2788,57.0,0.0,90.0,13.0,0.0
2789,57.0,0.0,90.0,3.0,0.0
2790,58.0,0.0,450.0,13.0,0.0
2791,38.0,240.0,210.0,15.0,0.0
2792,58.0,240.0,450.0,3.0,0.0
2793,50.0,0.0,210.0,14.0,0.0
2794,34.0,0.0,210.0,15.0,0.0
2795,46.0,0.0,210.0,14.0,0.0
2796,38.0,0.0,210.0,15.0,0.0
2797,56.0,0.0,210.0,3.0,0.0
2798,56.0,0.0,210.0,13.0,0.0
2799,50.0,240.0,210.0,14.0,0.0
2800,55.0,240.0,210.0,13.0,0.0
2801,55.0,0.0,210.0,3.0,0.0
2802,39.0,0.0,210.0,15.0,0.0
2803,51.0,0.0,210.0,14.0,0.0
2804,36.0,0.0,210.0,15.0,0.0
2805,51.0,0.0,210.0,3.0,0.0
2806,48.0,0.0,210.0,14.0,0.0
2807,51.0,240.0,210.0,13.0,0.0
2808,60.0,0.0,210.0,13.0,0.0
2809,52.0,240.0,210.0,14.0,0.0
2810,60.0,0.0,210.0,3.0,0.0
2811,40.0,0.0,210.0,15.0,0.0
2812,41.0,0.0,210.0,15.0,0.0
2813,53.0,240.0,210.0,14.0,0.0
2814,56.0,0.0,210.0,13.0,0.0
2815,56.0,0.0,210.0,3.0,0.0
2816,37.0,0.0,210.0,15.0,0.0
2817,53.0,0.0,210.0,3.0,0.0
2818,53.0,0.0,210.0,13.0,0.0
2819,49.0,240.0,210.0,14.0,0.0
2820,61.0,240.0,210.0,3.0,0.0
2821,61.0,0.0,210.0,13.0,0.0
2822,53.0,0.0,210.0,14.0,0.0
2823,41.0,0.0,210.0,15.0,0.0
2824,58.0,240.0,210.0,3.0,0.0
2825,43.0,0.0,210.0,15.0,0.0
2826,55.0,0.0,210.0,14.0,0.0
2827,58.0,0.0,210.0,13.0,0.0
2828,51.0,240.0,210.0,14.0,0.0
2829,39.0,0.0,210.0,15.0,0.0
2830,55.0,0.0,210.0,13.0,0.0
2831,55.0,0.0,210.0,3.0,0.0
2832,63.0,120.0,210.0,3.0,0.0
2833,60.0,0.0,210.0,14.0,0.0
2834,63.0,0.0,450.0,13.0,0.0
2835,68.0,0.0,210.0,12.0,0.0
2836,48.0,0.0,210.0,15.0,0.0
2837,67.0,120.0,90.0,12.0,0.0
2838,51.0,0.0,690.0,3.0,0.0
2839,49.0,20.0,210.0,15.0,0.0
2840,51.0,0.0,690.0,5.0,0.0
2841,63.0,0.0,690.0,5.0,0.0
2842,39.0,100.0,240.0,10.0,0.0
2843,39.0,0.0,690.0,3.0,0.0
2844,61.0,0.0,210.0,14.0,0.0
2845,68.0,0.0,90.0,12.0,0.0
2846,51.0,0.0,210.0,14.0,0.0
2847,70.0,0.0,90.0,12.0,0.0
2848,55.0,120.0,90.0,13.0,0.0
2849,39.0,0.0,210.0,15.0,0.0
2850,55.0,0.0,90.0,13.0,0.0
2851,63.0,120.0,90.0,12.0,0.0
2852,56.0,120.0,90.0,13.0,0.0
2853,49.0,0.0,210.0,15.0,0.0
2854,65.0,0.0,90.0,12.0,0.0
2855,61.0,0.0,210.0,14.0,0.0
2856,67.0,120.0,90.0,12.0,0.0
2857,58.0,0.0,90.0,13.0,0.0
2858,56.0,120.0,690.0,3.0,0.0
2859,51.0,20.0,210.0,13.0,0.0
2860,44.0,100.0,240.0,10.0,0.0
2861,68.0,120.0,90.0,12.0,0.0
2862,68.0,0.0,690.0,5.0,0.0
2863,60.0,0.0,210.0,14.0,0.0
2864,56.0,0.0,690.0,5.0,0.0
2865,44.0,0.0,690.0,3.0,0.0
2866,48.0,0.0,210.0,15.0,0.0
2867,67.0,0.0,90.0,12.0,0.0
2868,44.0,120.0,210.0,15.0,0.0
2869,68.0,120.0,90.0,12.0,0.0
2870,56.0,0.0,210.0,14.0,0.0
2871,60.0,0.0,90.0,13.0,0.0
2872,61.0,0.0,90.0,13.0,0.0
2873,70.0,0.0,90.0,12.0,0.0
2874,55.0,0.0,210.0,14.0,0.0
2875,43.0,0.0,210.0,15.0,0.0
2876,72.0,120.0,90.0,12.0,0.0
2877,75.0,0.0,210.0,11.0,0.0
2878,63.0,0.0,90.0,13.0,0.0
2879,63.0,0.0,90.0,13.0,0.0
2880,70.0,0.0,90.0,12.0,0.0
2881,53.0,0.0,210.0,14.0,0.0
2882,58.0,0.0,690.0,3.0,0.0
2883,46.0,0.0,690.0,3.0,0.0
2884,70.0,0.0,690.0,5.0,0.0
2885,74.0,0.0,90.0,11.0,0.0
2886,65.0,120.0,90.0,13.0,0.0
2887,41.0,120.0,210.0,15.0,0.0
2888,68.0,0.0,210.0,12.0,0.0
2889,75.0,0.0,90.0,11.0,0.0
2890,67.0,0.0,90.0,13.0,0.0
2891,77.0,0.0,90.0,11.0,0.0
2892,46.0,0.0,210.0,14.0,0.0
2893,62.0,0.0,210.0,12.0,0.0
2894,34.0,120.0,210.0,15.0,0.0
2895,68.0,120.0,90.0,13.0,0.0
2896,70.0,0.0,90.0,11.0,0.0
2897,62.0,0.0,90.0,13.0,0.0
2898,63.0,0.0,90.0,13.0,0.0
2899,56.0,0.0,210.0,14.0,0.0
2900,72.0,120.0,90.0,11.0,0.0
2901,65.0,0.0,210.0,12.0,0.0
2902,44.0,120.0,210.0,15.0,0.0
2903,74.0,0.0,90.0,11.0,0.0
2904,65.0,0.0,90.0,13.0,0.0
2905,75.0,0.0,690.0,1.0,0.0
2906,55.0,20.0,210.0,14.0,0.0
2907,70.0,120.0,450.0,5.0,0.0
2908,39.0,100.0,240.0,10.0,0.0
2909,58.0,0.0,210.0,12.0,0.0
2910,67.0,0.0,90.0,13.0,0.0
2911,75.0,120.0,90.0,11.0,0.0
2912,43.0,0.0,210.0,15.0,0.0
2913,51.0,0.0,690.0,3.0,0.0
2914,75.0,0.0,690.0,0.0,0.0
2915,63.0,0.0,690.0,1.0,0.0
2916,63.0,0.0,690.0,3.0,0.0
2917,58.0,0.0,90.0,13.0,0.0
2918,74.0,0.0,90.0,11.0,0.0
2919,67.0,0.0,210.0,12.0,0.0
2920,75.0,120.0,90.0,11.0,0.0
2921,51.0,0.0,210.0,14.0,0.0
2922,39.0,0.0,210.0,15.0,0.0
2923,56.0,0.0,90.0,13.0,0.0
2924,77.0,0.0,90.0,11.0,0.0
2925,55.0,0.0,90.0,13.0,0.0
2926,48.0,0.0,210.0,14.0,0.0
2927,36.0,0.0,210.0,15.0,0.0
2928,79.0,0.0,90.0,11.0,0.0
2929,63.0,0.0,210.0,12.0,0.0
2930,63.0,120.0,210.0,5.0,0.0
2931,53.0,120.0,90.0,13.0,0.0
2932,80.0,0.0,90.0,11.0,0.0
2933,51.0,0.0,90.0,13.0,0.0
2934,70.0,120.0,90.0,12.0,0.0
2935,70.0,0.0,690.0,5.0,0.0
2936,82.0,0.0,90.0,11.0,0.0
2937,34.0,0.0,90.0,15.0,0.0
2938,58.0,0.0,450.0,3.0,0.0
2939,50.0,0.0,90.0,13.0,0.0
2940,82.0,0.0,450.0,0.0,0.0
2941,74.0,0.0,450.0,1.0,0.0
2942,46.0,0.0,90.0,14.0,0.0
2943,70.0,0.0,450.0,1.0,0.0
2944,33.0,0.0,90.0,15.0,0.0
2945,82.0,0.0,90.0,11.0,0.0
2946,45.0,120.0,90.0,14.0,0.0
2947,70.0,0.0,90.0,12.0,0.0
2948,62.0,0.0,90.0,13.0,0.0
2949,34.0,0.0,90.0,15.0,0.0
2950,70.0,120.0,90.0,12.0,0.0
2951,82.0,0.0,90.0,11.0,0.0
2952,62.0,0.0,90.0,13.0,0.0
2953,46.0,0.0,90.0,14.0,0.0
2954,44.0,0.0,90.0,14.0,0.0
2955,82.0,120.0,90.0,11.0,0.0
2956,32.0,0.0,90.0,15.0,0.0
2957,70.0,0.0,90.0,12.0,0.0
2958,62.0,0.0,90.0,13.0,0.0
2959,55.0,0.0,90.0,3.0,0.0
2960,72.0,0.0,90.0,12.0,0.0
2961,84.0,0.0,90.0,0.0,0.0
2962,43.0,0.0,90.0,14.0,0.0
2963,75.0,0.0,90.0,1.0,0.0
2964,84.0,0.0,90.0,11.0,0.0
2965,58.0,0.0,90.0,3.0,0.0
2966,63.0,0.0,90.0,13.0,0.0
2967,31.0,0.0,90.0,15.0,0.0
2968,72.0,120.0,90.0,1.0,0.0
2969,77.0,0.0,90.0,1.0,0.0
2970,56.0,0.0,90.0,3.0,0.0
2971,53.0,0.0,90.0,3.0,0.0
2972,74.0,0.0,90.0,12.0,0.0
2973,86.0,0.0,90.0,11.0,0.0
2974,86.0,120.0,90.0,0.0,0.0
2975,65.0,0.0,90.0,13.0,0.0
2976,41.0,0.0,90.0,14.0,0.0
2977,29.0,0.0,90.0,15.0,0.0
2978,74.0,0.0,90.0,1.0,0.0
2979,51.0,0.0,240.0,3.0,0.0
2980,87.0,100.0,240.0,0.0,0.0
2981,87.0,0.0,240.0,11.0,0.0
2982,63.0,0.0,240.0,5.0,0.0
2983,70.0,0.0,240.0,5.0,0.0
2984,51.0,0.0,240.0,13.0,0.0
2985,39.0,0.0,240.0,10.0,0.0
2986,67.0,0.0,240.0,13.0,0.0
2987,58.0,0.0,240.0,13.0,0.0
2988,79.0,0.0,240.0,0.0,0.0
2989,51.0,0.0,240.0,4.0,0.0
2990,55.0,0.0,240.0,3.0,0.0
2991,63.0,0.0,240.0,4.0,0.0
2992,67.0,0.0,240.0,12.0,0.0
2993,75.0,0.0,240.0,12.0,0.0
2994,39.0,0.0,90.0,14.0,0.0
2995,75.0,0.0,240.0,1.0,0.0
2996,79.0,0.0,240.0,1.0,0.0
2997,27.0,120.0,90.0,15.0,0.0
2998,43.0,0.0,90.0,14.0,0.0
2999,31.0,20.0,90.0,15.0,0.0
3000,46.0,0.0,90.0,14.0,0.0
3001,34.0,120.0,90.0,15.0,0.0
3002,62.0,0.0,90.0,13.0,0.0
3003,70.0,0.0,90.0,12.0,0.0
3004,82.0,0.0,90.0,0.0,0.0
3005,32.0,0.0,90.0,15.0,0.0
3006,44.0,0.0,90.0,14.0,0.0
3007,82.0,120.0,90.0,11.0,0.0
3008,63.0,0.0,90.0,13.0,0.0
3009,43.0,0.0,90.0,14.0,0.0
3010,31.0,0.0,90.0,15.0,0.0
3011,72.0,0.0,90.0,12.0,0.0
3012,84.0,0.0,90.0,0.0,0.0
3013,84.0,120.0,90.0,11.0,0.0
3014,74.0,0.0,90.0,12.0,0.0
3015,41.0,0.0,90.0,14.0,0.0
3016,29.0,120.0,90.0,15.0,0.0
3017,86.0,0.0,90.0,0.0,0.0
3018,86.0,0.0,90.0,11.0,0.0
3019,65.0,0.0,90.0,13.0,0.0
3020,39.0,0.0,90.0,14.0,0.0
3021,51.0,0.0,240.0,13.0,0.0
3022,87.0,0.0,240.0,0.0,0.0
3023,67.0,0.0,240.0,13.0,0.0
3024,58.0,0.0,240.0,13.0,0.0
3025,79.0,0.0,240.0,1.0,0.0
3026,39.0,0.0,240.0,10.0,0.0
3027,79.0,0.0,240.0,0.0,0.0
3028,75.0,0.0,240.0,1.0,0.0
3029,75.0,0.0,240.0,12.0,0.0
3030,51.0,0.0,240.0,4.0,0.0
3031,70.0,0.0,240.0,5.0,0.0
3032,63.0,0.0,240.0,5.0,0.0
3033,51.0,0.0,240.0,3.0,0.0
3034,55.0,0.0,240.0,3.0,0.0
3035,27.0,120.0,90.0,15.0,0.0
3036,67.0,0.0,240.0,12.0,0.0
3037,87.0,100.0,240.0,11.0,0.0
3038,63.0,0.0,240.0,4.0,0.0
3039,31.0,0.0,90.0,15.0,0.0
3040,43.0,20.0,90.0,14.0,0.0
3041,34.0,0.0,90.0,15.0,0.0
3042,46.0,120.0,90.0,14.0,0.0
3043,32.0,0.0,90.0,15.0,0.0
3044,70.0,0.0,90.0,12.0,0.0
3045,44.0,120.0,90.0,14.0,0.0
3046,82.0,0.0,90.0,0.0,0.0
3047,62.0,0.0,90.0,13.0,0.0
3048,82.0,0.0,90.0,11.0,0.0
3049,31.0,0.0,90.0,15.0,0.0
3050,84.0,120.0,90.0,11.0,0.0
3051,84.0,0.0,90.0,0.0,0.0
3052,43.0,0.0,90.0,14.0,0.0
3053,72.0,0.0,90.0,12.0,0.0
3054,63.0,0.0,90.0,13.0,0.0
3055,41.0,0.0,90.0,14.0,0.0
3056,65.0,0.0,90.0,13.0,0.0
3057,86.0,260.0,90.0,0.0,0.0
3058,86.0,0.0,90.0,11.0,0.0
3059,74.0,0.0,90.0,12.0,0.0
3060,29.0,0.0,90.0,15.0,0.0
3061,27.0,0.0,240.0,15.0,0.0
3062,70.0,0.0,240.0,5.0,0.0
3063,63.0,0.0,240.0,5.0,0.0
3064,67.0,0.0,240.0,13.0,0.0
3065,58.0,0.0,240.0,13.0,0.0
3066,51.0,0.0,240.0,13.0,0.0
3067,39.0,0.0,240.0,14.0,0.0
3068,51.0,0.0,240.0,4.0,0.0
3069,39.0,0.0,240.0,10.0,0.0
3070,87.0,0.0,240.0,11.0,0.0
3071,79.0,0.0,240.0,1.0,0.0
3072,51.0,0.0,240.0,3.0,0.0
3073,55.0,0.0,240.0,3.0,0.0
3074,87.0,0.0,240.0,0.0,0.0
3075,79.0,0.0,240.0,0.0,0.0
3076,75.0,0.0,240.0,1.0,0.0
3077,63.0,0.0,240.0,4.0,0.0
3078,58.0,0.0,240.0,12.0,0.0
3079,51.0,0.0,240.0,12.0,0.0
3080,75.0,220.0,240.0,12.0,0.0
3081,67.0,0.0,240.0,12.0,0.0
3082,58.0,120.0,90.0,13.0,0.0
3083,58.0,0.0,90.0,12.0,0.0
3084,60.0,120.0,90.0,13.0,0.0
3085,60.0,0.0,90.0,12.0,0.0
3086,62.0,260.0,90.0,13.0,0.0
3087,62.0,0.0,90.0,12.0,0.0
3088,63.0,0.0,240.0,12.0,0.0
3089,63.0,460.0,240.0,13.0,0.0
3090,39.0,0.0,210.0,15.0,0.0
3091,51.0,120.0,210.0,14.0,0.0
3092,37.0,0.0,90.0,15.0,0.0
3093,49.0,120.0,90.0,14.0,0.0
3094,39.0,120.0,90.0,15.0,0.0
3095,51.0,0.0,90.0,14.0,0.0
3096,41.0,0.0,90.0,15.0,0.0
3097,53.0,120.0,90.0,14.0,0.0
3098,34.0,120.0,90.0,15.0,0.0
3099,46.0,0.0,90.0,14.0,0.0
3100,48.0,140.0,90.0,14.0,0.0
3101,36.0,0.0,90.0,15.0,0.0
3102,49.0,0.0,120.0,14.0,0.0
3103,37.0,700.0,120.0,15.0,0.0
3104,39.0,120.0,210.0,15.0,0.0
3105,51.0,0.0,210.0,14.0,0.0
3106,37.0,0.0,90.0,15.0,0.0
3107,49.0,120.0,90.0,14.0,0.0
3108,51.0,120.0,90.0,14.0,0.0
3109,39.0,0.0,90.0,15.0,0.0
3110,53.0,0.0,90.0,14.0,0.0
3111,41.0,120.0,90.0,15.0,0.0
3112,46.0,120.0,90.0,14.0,0.0
3113,34.0,0.0,90.0,15.0,0.0
3114,48.0,140.0,90.0,14.0,0.0
3115,36.0,0.0,90.0,15.0,0.0
3116,49.0,0.0,120.0,14.0,0.0
3117,37.0,700.0,120.0,15.0,0.0
3118,39.0,0.0,210.0,15.0,0.0
3119,51.0,120.0,210.0,14.0,0.0
3120,37.0,0.0,90.0,15.0,0.0
3121,49.0,120.0,90.0,14.0,0.0
3122,39.0,0.0,90.0,15.0,0.0
3123,51.0,120.0,90.0,14.0,0.0
3124,41.0,0.0,90.0,15.0,0.0
3125,53.0,120.0,90.0,14.0,0.0
3126,46.0,120.0,90.0,14.0,0.0
3127,34.0,0.0,90.0,15.0,0.0
3128,36.0,0.0,90.0,15.0,0.0
3129,48.0,120.0,90.0,14.0,0.0
3130,37.0,0.0,90.0,15.0,0.0
3131,49.0,120.0,90.0,14.0,0.0
3132,31.0,0.0,90.0,15.0,0.0
3133,43.0,120.0,90.0,14.0,0.0
3134,32.0,0.0,90.0,15.0,0.0
3135,44.0,120.0,90.0,14.0,0.0
3136,34.0,0.0,90.0,15.0,0.0
3137,46.0,120.0,90.0,14.0,0.0
3138,39.0,0.0,90.0,14.0,0.0
3139,27.0,120.0,90.0,15.0,0.0
3140,41.0,0.0,90.0,14.0,0.0
3141,29.0,120.0,90.0,15.0,0.0
3142,43.0,0.0,90.0,14.0,0.0
3143,31.0,120.0,90.0,15.0,0.0
3144,29.0,120.0,90.0,15.0,0.0
3145,41.0,0.0,90.0,14.0,0.0
3146,43.0,0.0,90.0,14.0,0.0
3147,31.0,120.0,90.0,15.0,0.0
3148,44.0,120.0,90.0,14.0,0.0
3149,32.0,0.0,90.0,15.0,0.0
3150,31.0,0.0,90.0,15.0,0.0
3151,43.0,120.0,90.0,14.0,0.0
3152,32.0,120.0,90.0,15.0,0.0
3153,44.0,0.0,90.0,14.0,0.0
3154,34.0,0.0,90.0,15.0,0.0
3155,46.0,120.0,90.0,14.0,0.0
3156,44.0,120.0,90.0,14.0,0.0
3157,32.0,0.0,90.0,15.0,0.0
3158,34.0,120.0,90.0,15.0,0.0
3159,46.0,0.0,90.0,14.0,0.0
3160,48.0,120.0,90.0,14.0,0.0
3161,36.0,0.0,90.0,15.0,0.0
3162,46.0,120.0,90.0,14.0,0.0
3163,34.0,0.0,90.0,15.0,0.0
3164,48.0,120.0,90.0,14.0,0.0
3165,56.0,0.0,210.0,3.0,0.0
3166,36.0,0.0,90.0,15.0,0.0
3167,56.0,120.0,210.0,13.0,0.0
3168,49.0,0.0,90.0,14.0,0.0
3169,37.0,0.0,90.0,15.0,0.0
3170,51.0,120.0,450.0,14.0,0.0
3171,39.0,0.0,450.0,15.0,0.0
3172,55.0,0.0,90.0,13.0,0.0
3173,55.0,120.0,90.0,3.0,0.0
3174,56.0,0.0,90.0,3.0,0.0
3175,56.0,120.0,90.0,13.0,0.0
3176,58.0,120.0,90.0,13.0,0.0
3177,58.0,0.0,90.0,3.0,0.0
3178,51.0,0.0,90.0,13.0,0.0
3179,51.0,0.0,90.0,3.0,0.0
3180,37.0,120.0,210.0,15.0,0.0
3181,49.0,0.0,210.0,14.0,0.0
3182,53.0,120.0,90.0,13.0,0.0
3183,53.0,0.0,90.0,3.0,0.0
3184,55.0,0.0,90.0,3.0,0.0
3185,55.0,0.0,90.0,13.0,0.0
3186,48.0,0.0,210.0,14.0,0.0
3187,56.0,0.0,90.0,13.0,0.0
3188,36.0,0.0,210.0,15.0,0.0
3189,56.0,120.0,90.0,3.0,0.0
3190,55.0,120.0,90.0,13.0,0.0
3191,55.0,0.0,90.0,3.0,0.0
3192,32.0,0.0,210.0,15.0,0.0
3193,56.0,120.0,90.0,3.0,0.0
3194,44.0,120.0,210.0,14.0,0.0
3195,56.0,0.0,90.0,13.0,0.0
3196,58.0,0.0,90.0,3.0,0.0
3197,58.0,0.0,90.0,13.0,0.0
3198,60.0,120.0,90.0,13.0,0.0
3199,31.0,0.0,210.0,15.0,0.0
3200,43.0,240.0,210.0,14.0,0.0
3201,60.0,0.0,90.0,3.0,0.0
3202,61.0,0.0,90.0,13.0,0.0
3203,61.0,0.0,90.0,3.0,0.0
3204,63.0,0.0,450.0,13.0,0.0
3205,63.0,0.0,450.0,3.0,0.0
3206,29.0,0.0,210.0,15.0,0.0
3207,41.0,240.0,210.0,14.0,0.0
3208,31.0,0.0,210.0,15.0,0.0
3209,43.0,240.0,210.0,14.0,0.0
3210,61.0,0.0,210.0,13.0,0.0
3211,39.0,0.0,210.0,14.0,0.0
3212,27.0,240.0,210.0,15.0,0.0
3213,61.0,0.0,210.0,3.0,0.0
3214,60.0,0.0,210.0,13.0,0.0
3215,60.0,0.0,210.0,3.0,0.0
3216,44.0,0.0,210.0,14.0,0.0
3217,32.0,240.0,210.0,15.0,0.0
3218,56.0,0.0,210.0,13.0,0.0
3219,36.0,20.0,210.0,15.0,0.0
3220,48.0,0.0,210.0,14.0,0.0
3221,56.0,220.0,240.0,3.0,0.0
3222,68.0,0.0,450.0,13.0,0.0
3223,49.0,120.0,210.0,14.0,0.0
3224,65.0,0.0,450.0,2.0,0.0
3225,37.0,0.0,210.0,15.0,0.0
3226,48.0,0.0,90.0,14.0,0.0
3227,36.0,120.0,90.0,15.0,0.0
3228,37.0,0.0,90.0,15.0,0.0
3229,49.0,120.0,90.0,14.0,0.0
3230,56.0,120.0,210.0,13.0,0.0
3231,56.0,0.0,210.0,2.0,0.0
3232,51.0,0.0,90.0,14.0,0.0
3233,39.0,120.0,90.0,15.0,0.0
3234,32.0,0.0,90.0,15.0,0.0
3235,44.0,0.0,90.0,14.0,0.0
3236,34.0,0.0,90.0,15.0,0.0
3237,66.0,120.0,450.0,13.0,0.0
3238,46.0,120.0,90.0,14.0,0.0
3239,63.0,0.0,450.0,2.0,0.0
3240,36.0,0.0,90.0,15.0,0.0
3241,48.0,120.0,90.0,14.0,0.0
3242,37.0,120.0,90.0,15.0,0.0
3243,49.0,0.0,90.0,14.0,0.0
3244,48.0,0.0,90.0,14.0,0.0
3245,36.0,0.0,90.0,15.0,0.0
3246,49.0,120.0,90.0,14.0,0.0
3247,56.0,0.0,210.0,13.0,0.0
3248,56.0,0.0,210.0,2.0,0.0
3249,37.0,0.0,90.0,15.0,0.0
3250,51.0,0.0,90.0,14.0,0.0
3251,39.0,120.0,90.0,15.0,0.0
3252,41.0,120.0,90.0,15.0,0.0
3253,65.0,240.0,450.0,13.0,0.0
3254,61.0,0.0,450.0,2.0,0.0
3255,53.0,0.0,90.0,14.0,0.0
3256,54.0,0.0,90.0,14.0,0.0
3257,42.0,240.0,90.0,15.0,0.0
3258,56.0,0.0,450.0,14.0,0.0
3259,44.0,240.0,450.0,15.0,0.0
3260,56.0,0.0,210.0,2.0,0.0
3261,56.0,0.0,210.0,13.0,0.0
3262,60.0,0.0,210.0,2.0,0.0
3263,63.0,0.0,450.0,13.0,0.0
3264,54.0,0.0,210.0,14.0,0.0
3265,42.0,240.0,210.0,15.0,0.0
3266,41.0,0.0,210.0,15.0,0.0
3267,53.0,0.0,210.0,14.0,0.0
3268,56.0,240.0,210.0,2.0,0.0
3269,65.0,0.0,240.0,2.0,0.0
3270,61.0,20.0,210.0,13.0,0.0
3271,49.0,220.0,240.0,14.0,0.0
3272,37.0,0.0,240.0,15.0,0.0
3273,61.0,120.0,450.0,3.0,0.0
3274,68.0,120.0,210.0,12.0,0.0
3275,65.0,0.0,210.0,13.0,0.0
3276,58.0,0.0,690.0,13.0,0.0
3277,39.0,0.0,690.0,15.0,0.0
3278,51.0,0.0,690.0,14.0,0.0
3279,67.0,120.0,90.0,12.0,0.0
3280,68.0,0.0,90.0,12.0,0.0
3281,70.0,120.0,90.0,12.0,0.0
3282,51.0,0.0,210.0,3.0,0.0
3283,63.0,120.0,90.0,12.0,0.0
3284,61.0,120.0,450.0,3.0,0.0
3285,65.0,120.0,90.0,12.0,0.0
3286,67.0,120.0,90.0,12.0,0.0
3287,68.0,120.0,90.0,12.0,0.0
3288,56.0,20.0,450.0,13.0,0.0
3289,32.0,0.0,690.0,15.0,0.0
3290,44.0,120.0,690.0,14.0,0.0
3291,67.0,0.0,90.0,12.0,0.0
3292,68.0,120.0,90.0,12.0,0.0
3293,60.0,100.0,240.0,3.0,0.0
3294,70.0,0.0,90.0,12.0,0.0
3295,63.0,0.0,480.0,4.0,0.0
3296,72.0,0.0,90.0,12.0,0.0
3297,63.0,0.0,450.0,2.0,0.0
3298,66.0,0.0,450.0,2.0,0.0
3299,75.0,0.0,450.0,1.0,0.0
3300,75.0,0.0,210.0,11.0,0.0
3301,78.0,0.0,450.0,1.0,0.0
3302,66.0,100.0,480.0,4.0,0.0
3303,60.0,120.0,90.0,13.0,0.0
3304,58.0,0.0,90.0,13.0,0.0
3305,73.0,0.0,90.0,12.0,0.0
3306,56.0,120.0,330.0,13.0,0.0
3307,72.0,0.0,90.0,11.0,0.0
3308,75.0,120.0,90.0,12.0,0.0
3309,44.0,0.0,690.0,15.0,0.0
3310,56.0,0.0,690.0,14.0,0.0
3311,73.0,20.0,90.0,11.0,0.0
3312,73.0,0.0,90.0,12.0,0.0
3313,68.0,0.0,210.0,1.0,0.0
3314,75.0,0.0,90.0,11.0,0.0
3315,56.0,0.0,210.0,2.0,0.0
3316,72.0,0.0,90.0,12.0,0.0
3317,68.0,0.0,90.0,11.0,0.0
3318,54.0,120.0,90.0,13.0,0.0
3319,70.0,0.0,90.0,12.0,0.0
3320,70.0,120.0,90.0,11.0,0.0
3321,78.0,20.0,450.0,1.0,0.0
3322,75.0,0.0,450.0,1.0,0.0
3323,68.0,0.0,90.0,12.0,0.0
3324,63.0,0.0,450.0,2.0,0.0
3325,66.0,0.0,450.0,2.0,0.0
3326,53.0,0.0,90.0,13.0,0.0
3327,51.0,0.0,90.0,13.0,0.0
3328,72.0,120.0,90.0,11.0,0.0
3329,66.0,0.0,90.0,12.0,0.0
3330,49.0,0.0,450.0,14.0,0.0
3331,37.0,20.0,450.0,15.0,0.0
3332,73.0,120.0,90.0,11.0,0.0
3333,49.0,0.0,240.0,13.0,0.0
3334,65.0,100.0,240.0,12.0,0.0
3335,72.0,0.0,90.0,11.0,0.0
3336,77.0,0.0,210.0,1.0,0.0
3337,65.0,100.0,240.0,2.0,0.0
3338,73.0,120.0,90.0,11.0,0.0
3339,61.0,0.0,240.0,2.0,0.0
3340,73.0,0.0,210.0,1.0,0.0
3341,75.0,0.0,90.0,11.0,0.0
3342,73.0,0.0,90.0,12.0,0.0
3343,68.0,0.0,210.0,1.0,0.0
3344,61.0,0.0,210.0,4.0,0.0
3345,65.0,0.0,90.0,13.0,0.0
3346,61.0,0.0,90.0,13.0,0.0
3347,68.0,0.0,210.0,5.0,0.0
3348,56.0,0.0,210.0,5.0,0.0
3349,37.0,0.0,210.0,15.0,0.0
3350,77.0,120.0,90.0,11.0,0.0
3351,44.0,100.0,240.0,10.0,0.0
3352,49.0,0.0,210.0,14.0,0.0
3353,56.0,0.0,210.0,3.0,0.0
3354,80.0,0.0,210.0,0.0,0.0
3355,53.0,0.0,90.0,13.0,0.0
3356,61.0,0.0,90.0,13.0,0.0
3357,65.0,0.0,90.0,12.0,0.0
3358,73.0,20.0,90.0,11.0,0.0
3359,73.0,0.0,690.0,2.0,0.0
3360,58.0,0.0,90.0,13.0,0.0
3361,55.0,0.0,90.0,13.0,0.0
3362,39.0,100.0,240.0,10.0,0.0
3363,79.0,0.0,90.0,0.0,0.0
3364,63.0,0.0,690.0,4.0,0.0
3365,67.0,0.0,90.0,1.0,0.0
3366,70.0,0.0,690.0,2.0,0.0
3367,51.0,0.0,210.0,14.0,0.0
3368,39.0,0.0,210.0,15.0,0.0
3369,55.0,120.0,90.0,3.0,0.0
3370,70.0,0.0,90.0,11.0,0.0
3371,67.0,0.0,90.0,12.0,0.0
3372,51.0,0.0,690.0,5.0,0.0
3373,63.0,0.0,690.0,5.0,0.0
3374,68.0,0.0,90.0,1.0,0.0
3375,56.0,0.0,90.0,3.0,0.0
3376,51.0,0.0,90.0,13.0,0.0
3377,55.0,0.0,90.0,13.0,0.0
3378,80.0,20.0,90.0,0.0,0.0
3379,63.0,0.0,90.0,11.0,0.0
3380,63.0,0.0,90.0,12.0,0.0
3381,67.0,0.0,90.0,12.0,0.0
3382,39.0,0.0,210.0,14.0,0.0
3383,70.0,0.0,90.0,1.0,0.0
3384,82.0,0.0,90.0,0.0,0.0
3385,70.0,0.0,90.0,11.0,0.0
3386,27.0,0.0,210.0,15.0,0.0
3387,58.0,120.0,90.0,13.0,0.0
3388,58.0,0.0,90.0,3.0,0.0
3389,55.0,0.0,90.0,13.0,0.0
3390,58.0,0.0,90.0,13.0,0.0
3391,55.0,0.0,90.0,13.0,0.0
3392,75.0,0.0,90.0,0.0,0.0
3393,70.0,0.0,90.0,11.0,0.0
3394,67.0,0.0,90.0,12.0,0.0
3395,51.0,120.0,90.0,3.0,0.0
3396,63.0,0.0,90.0,1.0,0.0
3397,58.0,0.0,90.0,13.0,0.0
3398,39.0,20.0,450.0,15.0,0.0
3399,65.0,0.0,90.0,1.0,0.0
3400,77.0,120.0,90.0,0.0,0.0
3401,70.0,0.0,90.0,11.0,0.0
3402,51.0,0.0,450.0,14.0,0.0
3403,53.0,0.0,90.0,3.0,0.0
3404,55.0,0.0,90.0,13.0,0.0
3405,67.0,0.0,90.0,12.0,0.0
3406,58.0,0.0,90.0,13.0,0.0
3407,67.0,0.0,90.0,1.0,0.0
3408,55.0,0.0,90.0,13.0,0.0
3409,67.0,0.0,90.0,12.0,0.0
3410,70.0,0.0,90.0,11.0,0.0
3411,79.0,0.0,90.0,0.0,0.0
3412,55.0,120.0,90.0,3.0,0.0
3413,63.0,0.0,690.0,4.0,0.0
3414,56.0,0.0,90.0,13.0,0.0
3415,60.0,0.0,90.0,13.0,0.0
3416,68.0,120.0,90.0,1.0,0.0
3417,80.0,0.0,90.0,0.0,0.0
3418,39.0,100.0,240.0,10.0,0.0
3419,68.0,0.0,690.0,5.0,0.0
3420,72.0,0.0,90.0,11.0,0.0
3421,56.0,0.0,690.0,5.0,0.0
3422,68.0,0.0,90.0,12.0,0.0
3423,72.0,0.0,690.0,2.0,0.0
3424,56.0,0.0,90.0,3.0,0.0
3425,68.0,0.0,690.0,2.0,0.0
3426,67.0,0.0,90.0,1.0,0.0
3427,79.0,0.0,90.0,0.0,0.0
3428,63.0,0.0,90.0,12.0,0.0
3429,56.0,0.0,90.0,13.0,0.0
3430,55.0,0.0,90.0,3.0,0.0
3431,51.0,0.0,90.0,13.0,0.0
3432,68.0,0.0,90.0,11.0,0.0
3433,68.0,120.0,90.0,1.0,0.0
3434,68.0,0.0,90.0,12.0,0.0
3435,80.0,0.0,90.0,0.0,0.0
3436,72.0,0.0,90.0,11.0,0.0
3437,60.0,0.0,90.0,13.0,0.0
3438,27.0,0.0,210.0,15.0,0.0
3439,39.0,0.0,210.0,14.0,0.0
3440,56.0,0.0,90.0,13.0,0.0
3441,56.0,0.0,90.0,3.0,0.0
3442,70.0,0.0,90.0,1.0,0.0
3443,72.0,0.0,90.0,11.0,0.0
3444,68.0,120.0,90.0,12.0,0.0
3445,82.0,0.0,90.0,0.0,0.0
3446,60.0,0.0,90.0,13.0,0.0
3447,58.0,0.0,90.0,3.0,0.0
3448,56.0,0.0,90.0,13.0,0.0
3449,39.0,0.0,450.0,15.0,0.0
3450,60.0,0.0,90.0,13.0,0.0
3451,72.0,0.0,90.0,1.0,0.0
3452,80.0,0.0,210.0,0.0,0.0
3453,56.0,120.0,210.0,3.0,0.0
3454,56.0,120.0,90.0,13.0,0.0
3455,68.0,0.0,210.0,1.0,0.0
3456,84.0,0.0,90.0,0.0,0.0
3457,60.0,0.0,90.0,3.0,0.0
3458,72.0,0.0,90.0,11.0,0.0
3459,51.0,0.0,450.0,14.0,0.0
3460,68.0,0.0,90.0,12.0,0.0
3461,70.0,0.0,90.0,12.0,0.0
3462,61.0,0.0,90.0,3.0,0.0
3463,73.0,0.0,90.0,1.0,0.0
3464,61.0,0.0,90.0,13.0,0.0
3465,58.0,0.0,90.0,13.0,0.0
3466,73.0,0.0,90.0,11.0,0.0
3467,85.0,0.0,90.0,0.0,0.0
3468,55.0,120.0,450.0,3.0,0.0
3469,67.0,0.0,450.0,1.0,0.0
3470,55.0,0.0,90.0,13.0,0.0
3471,39.0,100.0,240.0,10.0,0.0
3472,75.0,0.0,450.0,1.0,0.0
3473,63.0,0.0,90.0,13.0,0.0
3474,63.0,0.0,450.0,3.0,0.0
3475,70.0,0.0,690.0,2.0,0.0
3476,63.0,0.0,690.0,4.0,0.0
3477,67.0,0.0,90.0,12.0,0.0
3478,67.0,0.0,690.0,2.0,0.0
3479,87.0,0.0,450.0,0.0,0.0
3480,75.0,120.0,90.0,11.0,0.0
3481,79.0,0.0,450.0,0.0,0.0
3482,63.0,0.0,690.0,5.0,0.0
3483,70.0,0.0,690.0,5.0,0.0
3484,70.0,0.0,90.0,11.0,0.0
3485,51.0,0.0,90.0,13.0,0.0
3486,63.0,20.0,90.0,12.0,0.0
3487,58.0,0.0,90.0,13.0,0.0
3488,55.0,0.0,90.0,13.0,0.0
3489,63.0,0.0,90.0,13.0,0.0
3490,39.0,0.0,210.0,14.0,0.0
3491,75.0,120.0,90.0,11.0,0.0
3492,67.0,0.0,90.0,12.0,0.0
3493,27.0,0.0,210.0,15.0,0.0
3494,75.0,0.0,90.0,11.0,0.0
3495,67.0,0.0,90.0,12.0,0.0
3496,63.0,0.0,90.0,13.0,0.0
3497,55.0,0.0,90.0,13.0,0.0
3498,51.0,0.0,450.0,14.0,0.0
3499,61.0,80.0,90.0,13.0,0.0
3500,58.0,0.0,90.0,13.0,0.0
3501,58.0,40.0,180.0,3.0,0.0
3502,61.0,0.0,180.0,3.0,0.0
3503,82.0,0.0,180.0,0.0,0.0
3504,73.0,0.0,90.0,11.0,0.0
3505,85.0,0.0,180.0,0.0,0.0
3506,39.0,0.0,450.0,15.0,0.0
3507,70.0,0.0,90.0,12.0,0.0
3508,70.0,0.0,180.0,1.0,0.0
3509,73.0,0.0,180.0,1.0,0.0
3510,70.0,0.0,90.0,12.0,0.0
3511,58.0,0.0,90.0,13.0,0.0
3512,61.0,0.0,90.0,13.0,0.0
3513,73.0,120.0,90.0,11.0,0.0
3514,39.0,100.0,240.0,10.0,0.0
3515,72.0,0.0,180.0,1.0,0.0
3516,68.0,0.0,180.0,1.0,0.0
3517,68.0,0.0,690.0,5.0,0.0
3518,72.0,0.0,690.0,5.0,0.0
3519,56.0,0.0,90.0,13.0,0.0
3520,60.0,0.0,90.0,13.0,0.0
3521,72.0,80.0,90.0,11.0,0.0
3522,63.0,0.0,690.0,4.0,0.0
3523,56.0,40.0,180.0,3.0,0.0
3524,68.0,0.0,690.0,2.0,0.0
3525,84.0,0.0,180.0,0.0,0.0
3526,60.0,0.0,180.0,3.0,0.0
3527,68.0,0.0,90.0,12.0,0.0
3528,80.0,0.0,180.0,0.0,0.0
3529,72.0,0.0,690.0,2.0,0.0
3530,60.0,20.0,90.0,13.0,0.0
3531,68.0,0.0,90.0,12.0,0.0
3532,56.0,0.0,90.0,13.0,0.0
3533,72.0,0.0,90.0,11.0,0.0
3534,51.0,0.0,90.0,13.0,0.0
3535,56.0,0.0,90.0,13.0,0.0
3536,80.0,40.0,180.0,0.0,0.0
3537,27.0,0.0,210.0,15.0,0.0
3538,75.0,0.0,180.0,0.0,0.0
3539,39.0,0.0,210.0,14.0,0.0
3540,63.0,80.0,90.0,12.0,0.0
3541,56.0,0.0,180.0,3.0,0.0
3542,68.0,0.0,90.0,11.0,0.0
3543,63.0,0.0,180.0,1.0,0.0
3544,51.0,0.0,180.0,3.0,0.0
3545,68.0,0.0,180.0,1.0,0.0
3546,56.0,0.0,90.0,13.0,0.0
3547,51.0,0.0,90.0,13.0,0.0
3548,68.0,120.0,90.0,11.0,0.0
3549,63.0,0.0,90.0,12.0,0.0
3550,84.0,0.0,180.0,0.0,0.0
3551,60.0,0.0,180.0,3.0,0.0
3552,51.0,0.0,450.0,14.0,0.0
3553,68.0,0.0,90.0,12.0,0.0
3554,68.0,40.0,180.0,1.0,0.0
3555,80.0,0.0,180.0,0.0,0.0
3556,72.0,0.0,180.0,1.0,0.0
3557,39.0,0.0,450.0,15.0,0.0
3558,56.0,0.0,90.0,13.0,0.0
3559,60.0,80.0,90.0,13.0,0.0
3560,72.0,0.0,90.0,11.0,0.0
3561,56.0,0.0,180.0,3.0,0.0
3562,68.0,120.0,90.0,12.0,0.0
3563,72.0,0.0,90.0,11.0,0.0
3564,60.0,0.0,90.0,13.0,0.0
3565,56.0,0.0,90.0,13.0,0.0
3566,63.0,0.0,690.0,4.0,0.0
3567,75.0,0.0,90.0,11.0,0.0
3568,63.0,0.0,690.0,5.0,0.0
3569,67.0,0.0,90.0,12.0,0.0
3570,67.0,0.0,450.0,1.0,0.0
3571,75.0,0.0,450.0,1.0,0.0
3572,72.0,0.0,690.0,5.0,0.0
3573,67.0,120.0,690.0,2.0,0.0
3574,70.0,0.0,690.0,2.0,0.0
3575,63.0,0.0,450.0,3.0,0.0
3576,39.0,100.0,240.0,10.0,0.0
3577,87.0,0.0,450.0,0.0,0.0
3578,63.0,0.0,90.0,13.0,0.0
3579,55.0,120.0,90.0,13.0,0.0
3580,55.0,0.0,450.0,3.0,0.0
3581,79.0,0.0,450.0,0.0,0.0
3582,70.0,0.0,90.0,11.0,0.0
3583,58.0,0.0,90.0,13.0,0.0
3584,51.0,0.0,90.0,13.0,0.0
3585,63.0,20.0,90.0,12.0,0.0
3586,55.0,0.0,90.0,13.0,0.0
3587,67.0,0.0,90.0,12.0,0.0
3588,63.0,0.0,90.0,13.0,0.0
3589,27.0,0.0,210.0,15.0,0.0
3590,39.0,0.0,210.0,14.0,0.0
3591,75.0,120.0,90.0,11.0,0.0
3592,67.0,0.0,90.0,12.0,0.0
3593,63.0,0.0,90.0,13.0,0.0
3594,55.0,120.0,90.0,13.0,0.0
3595,75.0,0.0,90.0,11.0,0.0
3596,82.0,40.0,180.0,0.0,0.0
3597,85.0,0.0,180.0,0.0,0.0
3598,70.0,0.0,180.0,1.0,0.0
3599,73.0,0.0,180.0,1.0,0.0
3600,61.0,80.0,90.0,13.0,0.0
3601,61.0,0.0,210.0,3.0,0.0
3602,58.0,0.0,210.0,3.0,0.0
3603,70.0,0.0,90.0,12.0,0.0
3604,58.0,0.0,90.0,13.0,0.0
3605,51.0,0.0,450.0,14.0,0.0
3606,73.0,0.0,90.0,11.0,0.0
3607,39.0,0.0,450.0,15.0,0.0
3608,73.0,0.0,90.0,11.0,0.0
3609,61.0,0.0,90.0,13.0,0.0
3610,58.0,0.0,90.0,13.0,0.0
3611,70.0,0.0,90.0,12.0,0.0
3612,84.0,0.0,180.0,0.0,0.0
3613,80.0,0.0,180.0,0.0,0.0
3614,60.0,0.0,180.0,3.0,0.0
3615,56.0,40.0,180.0,3.0,0.0
3616,68.0,0.0,90.0,12.0,0.0
3617,39.0,100.0,240.0,10.0,0.0
3618,68.0,0.0,690.0,2.0,0.0
3619,72.0,0.0,690.0,2.0,0.0
3620,72.0,0.0,90.0,11.0,0.0
3621,72.0,0.0,180.0,1.0,0.0
3622,68.0,0.0,180.0,1.0,0.0
3623,72.0,0.0,690.0,5.0,0.0
3624,63.0,0.0,690.0,4.0,0.0
3625,60.0,0.0,90.0,13.0,0.0
3626,56.0,80.0,90.0,13.0,0.0
3627,68.0,0.0,690.0,5.0,0.0
3628,68.0,0.0,90.0,12.0,0.0
3629,60.0,0.0,90.0,13.0,0.0
3630,56.0,20.0,90.0,13.0,0.0
3631,72.0,0.0,90.0,11.0,0.0
3632,56.0,0.0,180.0,3.0,0.0
3633,27.0,0.0,210.0,15.0,0.0
3634,39.0,0.0,210.0,14.0,0.0
3635,68.0,0.0,90.0,11.0,0.0
3636,51.0,0.0,90.0,13.0,0.0
3637,80.0,0.0,180.0,0.0,0.0
3638,56.0,0.0,90.0,13.0,0.0
3639,68.0,0.0,180.0,1.0,0.0
3640,63.0,0.0,180.0,1.0,0.0
3641,51.0,0.0,180.0,3.0,0.0
3642,75.0,40.0,180.0,0.0,0.0
3643,63.0,80.0,90.0,12.0,0.0
3644,68.0,120.0,90.0,11.0,0.0
3645,63.0,0.0,90.0,12.0,0.0
3646,51.0,0.0,90.0,13.0,0.0
3647,56.0,0.0,90.0,13.0,0.0
3648,84.0,0.0,180.0,0.0,0.0
3649,80.0,0.0,180.0,0.0,0.0
3650,56.0,80.0,90.0,13.0,0.0
3651,60.0,0.0,90.0,13.0,0.0
3652,72.0,0.0,180.0,1.0,0.0
3653,68.0,0.0,180.0,1.0,0.0
3654,51.0,0.0,210.0,14.0,0.0
3655,68.0,0.0,90.0,12.0,0.0
3656,56.0,0.0,180.0,3.0,0.0
3657,60.0,40.0,180.0,3.0,0.0
3658,39.0,0.0,450.0,15.0,0.0
3659,72.0,0.0,90.0,11.0,0.0
3660,56.0,0.0,90.0,13.0,0.0
3661,72.0,0.0,90.0,11.0,0.0
3662,68.0,0.0,90.0,12.0,0.0
3663,60.0,120.0,90.0,13.0,0.0
3664,67.0,0.0,690.0,2.0,0.0
3665,70.0,0.0,690.0,2.0,0.0
3666,55.0,0.0,90.0,13.0,0.0
3667,75.0,0.0,90.0,11.0,0.0
3668,63.0,0.0,90.0,13.0,0.0
3669,51.0,0.0,90.0,14.0,0.0
3670,67.0,0.0,450.0,1.0,0.0
3671,63.0,0.0,690.0,5.0,0.0
3672,79.0,0.0,450.0,0.0,0.0
3673,87.0,0.0,450.0,0.0,0.0
3674,70.0,0.0,690.0,5.0,0.0
3675,75.0,0.0,450.0,1.0,0.0
3676,67.0,120.0,90.0,12.0,0.0
3677,63.0,0.0,210.0,4.0,0.0
3678,55.0,20.0,450.0,3.0,0.0
3679,63.0,0.0,450.0,3.0,0.0
3680,39.0,100.0,240.0,10.0,0.0
3681,63.0,0.0,90.0,12.0,0.0
3682,70.0,20.0,90.0,11.0,0.0
3683,58.0,0.0,90.0,13.0,0.0
3684,51.0,0.0,90.0,13.0,0.0
3685,51.0,0.0,90.0,14.0,0.0
3686,75.0,0.0,90.0,11.0,0.0
3687,63.0,0.0,210.0,4.0,0.0
3688,39.0,100.0,240.0,10.0,0.0
3689,27.0,0.0,210.0,15.0,0.0
3690,55.0,0.0,90.0,14.0,0.0
3691,67.0,120.0,90.0,12.0,0.0
3692,55.0,0.0,90.0,13.0,0.0
3693,63.0,0.0,90.0,13.0,0.0
3694,67.0,0.0,90.0,12.0,0.0
3695,75.0,0.0,90.0,11.0,0.0
3696,63.0,0.0,90.0,13.0,0.0
3697,55.0,0.0,90.0,13.0,0.0
3698,55.0,0.0,90.0,14.0,0.0
3699,73.0,0.0,90.0,11.0,0.0
3700,58.0,0.0,180.0,3.0,0.0
3701,61.0,0.0,180.0,3.0,0.0
3702,63.0,0.0,210.0,4.0,0.0
3703,39.0,100.0,240.0,10.0,0.0
3704,70.0,0.0,180.0,1.0,0.0
3705,70.0,80.0,90.0,12.0,0.0
3706,58.0,0.0,90.0,13.0,0.0
3707,85.0,40.0,180.0,0.0,0.0
3708,73.0,0.0,180.0,1.0,0.0
3709,61.0,0.0,90.0,13.0,0.0
3710,58.0,0.0,90.0,14.0,0.0
3711,39.0,0.0,210.0,15.0,0.0
3712,82.0,0.0,180.0,0.0,0.0
3713,58.0,0.0,90.0,14.0,0.0
3714,61.0,0.0,90.0,13.0,0.0
3715,58.0,0.0,90.0,13.0,0.0
3716,73.0,20.0,90.0,11.0,0.0
3717,70.0,0.0,90.0,12.0,0.0
3718,39.0,0.0,240.0,10.0,0.0
3719,68.0,0.0,90.0,12.0,0.0
3720,68.0,0.0,240.0,2.0,0.0
3721,63.0,0.0,240.0,2.0,0.0
3722,72.0,0.0,90.0,11.0,0.0
3723,72.0,0.0,180.0,1.0,0.0
3724,72.0,100.0,240.0,5.0,0.0
3725,68.0,0.0,240.0,5.0,0.0
3726,56.0,80.0,90.0,14.0,0.0
3727,80.0,40.0,180.0,0.0,0.0
3728,63.0,0.0,210.0,4.0,0.0
3729,84.0,0.0,180.0,0.0,0.0
3730,68.0,0.0,180.0,1.0,0.0
3731,56.0,0.0,180.0,3.0,0.0
3732,56.0,0.0,90.0,13.0,0.0
3733,27.0,0.0,210.0,15.0,0.0
3734,60.0,0.0,90.0,13.0,0.0
3735,60.0,0.0,180.0,3.0,0.0
3736,60.0,0.0,90.0,13.0,0.0
3737,52.0,0.0,90.0,13.0,0.0
3738,64.0,0.0,90.0,12.0,0.0
3739,52.0,0.0,90.0,14.0,0.0
3740,72.0,20.0,90.0,11.0,0.0
3741,63.0,0.0,210.0,4.0,0.0
3742,65.0,0.0,180.0,1.0,0.0
3743,68.0,0.0,180.0,1.0,0.0
3744,39.0,100.0,240.0,10.0,0.0
3745,56.0,0.0,180.0,3.0,0.0
3746,53.0,0.0,90.0,13.0,0.0
3747,53.0,0.0,90.0,14.0,0.0
3748,56.0,0.0,90.0,13.0,0.0
3749,77.0,0.0,180.0,0.0,0.0
3750,39.0,0.0,210.0,15.0,0.0
3751,53.0,40.0,180.0,3.0,0.0
3752,65.0,0.0,90.0,12.0,0.0
3753,68.0,80.0,90.0,11.0,0.0
3754,80.0,0.0,180.0,0.0,0.0
3755,53.0,0.0,90.0,14.0,0.0
3756,68.0,0.0,90.0,11.0,0.0
3757,56.0,0.0,90.0,13.0,0.0
3758,65.0,20.0,90.0,12.0,0.0
3759,53.0,0.0,90.0,13.0,0.0
3760,63.0,20.0,210.0,4.0,0.0
3761,73.0,0.0,90.0,11.0,0.0
3762,39.0,100.0,240.0,10.0,0.0
3763,77.0,0.0,180.0,0.0,0.0
3764,85.0,0.0,180.0,0.0,0.0
3765,65.0,80.0,90.0,12.0,0.0
3766,53.0,0.0,90.0,14.0,0.0
3767,53.0,0.0,180.0,3.0,0.0
3768,65.0,0.0,180.0,1.0,0.0
3769,53.0,0.0,90.0,13.0,0.0
3770,61.0,0.0,90.0,13.0,0.0
3771,27.0,0.0,210.0,15.0,0.0
3772,61.0,40.0,180.0,3.0,0.0
3773,73.0,0.0,180.0,1.0,0.0
3774,61.0,0.0,90.0,13.0,0.0
3775,73.0,0.0,90.0,11.0,0.0
3776,53.0,0.0,90.0,13.0,0.0
3777,53.0,0.0,90.0,14.0,0.0
3778,65.0,0.0,90.0,12.0,0.0
3779,55.0,0.0,210.0,3.0,0.0
3780,67.0,0.0,90.0,12.0,0.0
3781,55.0,0.0,90.0,13.0,0.0
3782,58.0,0.0,90.0,13.0,0.0
3783,39.0,0.0,210.0,15.0,0.0
3784,58.0,20.0,210.0,3.0,0.0
3785,67.0,0.0,210.0,1.0,0.0
3786,70.0,0.0,210.0,1.0,0.0
3787,70.0,120.0,90.0,11.0,0.0
3788,79.0,0.0,210.0,0.0,0.0
3789,55.0,0.0,90.0,14.0,0.0
3790,63.0,0.0,210.0,4.0,0.0
3791,39.0,100.0,240.0,10.0,0.0
3792,82.0,0.0,210.0,0.0,0.0
3793,70.0,0.0,240.0,5.0,0.0
3794,63.0,0.0,240.0,5.0,0.0
3795,62.0,0.0,90.0,12.0,0.0
3796,58.0,0.0,90.0,13.0,0.0
3797,50.0,0.0,90.0,13.0,0.0
3798,50.0,0.0,90.0,14.0,0.0
3799,70.0,0.0,90.0,11.0,0.0
3800,67.0,120.0,90.0,11.0,0.0
3801,51.0,0.0,210.0,3.0,0.0
3802,63.0,0.0,210.0,4.0,0.0
3803,55.0,0.0,210.0,3.0,0.0
3804,75.0,20.0,210.0,0.0,0.0
3805,79.0,0.0,210.0,0.0,0.0
3806,51.0,0.0,90.0,14.0,0.0
3807,27.0,0.0,210.0,15.0,0.0
3808,55.0,0.0,90.0,13.0,0.0
3809,51.0,0.0,90.0,13.0,0.0
3810,63.0,0.0,210.0,1.0,0.0
3811,67.0,0.0,210.0,1.0,0.0
3812,63.0,0.0,90.0,12.0,0.0
3813,39.0,100.0,240.0,10.0,0.0
3814,51.0,0.0,90.0,14.0,0.0
3815,63.0,0.0,90.0,12.0,0.0
3816,67.0,0.0,90.0,11.0,0.0
3817,55.0,0.0,90.0,13.0,0.0
3818,51.0,0.0,90.0,13.0,0.0
3819,72.0,0.0,90.0,11.0,0.0
3820,72.0,0.0,210.0,1.0,0.0
3821,63.0,0.0,210.0,1.0,0.0
3822,51.0,0.0,90.0,13.0,0.0
3823,84.0,0.0,210.0,0.0,0.0
3824,75.0,0.0,210.0,0.0,0.0
3825,39.0,0.0,210.0,15.0,0.0
3826,60.0,0.0,210.0,3.0,0.0
3827,39.0,100.0,240.0,10.0,0.0
3828,51.0,120.0,90.0,14.0,0.0
3829,63.0,0.0,90.0,12.0,0.0
3830,60.0,0.0,90.0,13.0,0.0
3831,63.0,0.0,210.0,4.0,0.0
3832,51.0,0.0,210.0,3.0,0.0
3833,51.0,0.0,90.0,14.0,0.0
3834,72.0,0.0,90.0,11.0,0.0
3835,60.0,20.0,90.0,13.0,0.0
3836,51.0,0.0,90.0,13.0,0.0
3837,63.0,0.0,90.0,12.0,0.0
3838,56.0,120.0,90.0,13.0,0.0
3839,56.0,0.0,240.0,5.0,0.0
3840,68.0,0.0,240.0,5.0,0.0
3841,68.0,0.0,90.0,11.0,0.0
3842,39.0,100.0,240.0,10.0,0.0
3843,68.0,0.0,210.0,1.0,0.0
3844,27.0,0.0,210.0,15.0,0.0
3845,65.0,0.0,210.0,1.0,0.0
3846,63.0,0.0,210.0,4.0,0.0
3847,77.0,0.0,210.0,0.0,0.0
3848,53.0,0.0,90.0,13.0,0.0
3849,80.0,20.0,210.0,0.0,0.0
3850,53.0,0.0,90.0,14.0,0.0
3851,56.0,0.0,210.0,3.0,0.0
3852,53.0,0.0,210.0,3.0,0.0
3853,65.0,0.0,90.0,12.0,0.0
3854,48.0,0.0,90.0,14.0,0.0
3855,68.0,0.0,90.0,11.0,0.0
3856,48.0,0.0,90.0,13.0,0.0
3857,56.0,0.0,90.0,13.0,0.0
3858,60.0,0.0,90.0,12.0,0.0
3859,39.0,0.0,210.0,15.0,0.0
3860,39.0,100.0,240.0,10.0,0.0
3861,49.0,0.0,90.0,14.0,0.0
3862,53.0,0.0,210.0,3.0,0.0
3863,49.0,0.0,210.0,3.0,0.0
3864,61.0,0.0,90.0,12.0,0.0
3865,77.0,0.0,210.0,0.0,0.0
3866,63.0,0.0,210.0,4.0,0.0
3867,77.0,0.0,210.0,1.0,0.0
3868,73.0,0.0,210.0,1.0,0.0
3869,53.0,0.0,90.0,13.0,0.0
3870,49.0,120.0,90.0,13.0,0.0
3871,65.0,0.0,90.0,11.0,0.0
3872,73.0,0.0,210.0,0.0,0.0
3873,65.0,0.0,90.0,11.0,0.0
3874,61.0,0.0,90.0,12.0,0.0
3875,53.0,0.0,90.0,13.0,0.0
3876,49.0,20.0,90.0,14.0,0.0
3877,49.0,0.0,90.0,13.0,0.0
3878,49.0,0.0,90.0,14.0,0.0
3879,58.0,0.0,210.0,3.0,0.0
3880,49.0,0.0,210.0,3.0,0.0
3881,58.0,120.0,90.0,13.0,0.0
3882,49.0,0.0,90.0,13.0,0.0
3883,61.0,0.0,90.0,12.0,0.0
3884,82.0,0.0,210.0,1.0,0.0
3885,63.0,0.0,210.0,4.0,0.0
3886,27.0,0.0,210.0,15.0,0.0
3887,73.0,0.0,210.0,1.0,0.0
3888,82.0,0.0,210.0,0.0,0.0
3889,77.0,0.0,210.0,0.0,0.0
3890,39.0,100.0,240.0,10.0,0.0
3891,70.0,0.0,90.0,11.0,0.0
3892,70.0,0.0,90.0,11.0,0.0
3893,49.0,0.0,90.0,13.0,0.0
3894,49.0,0.0,90.0,14.0,0.0
3895,61.0,0.0,90.0,12.0,0.0
3896,58.0,20.0,90.0,13.0,0.0
3897,63.0,0.0,210.0,4.0,0.0
3898,46.0,0.0,210.0,3.0,0.0
3899,55.0,0.0,210.0,3.0,0.0
3900,51.0,0.0,210.0,14.0,0.0
3901,67.0,0.0,90.0,11.0,0.0
3902,70.0,0.0,210.0,5.0,0.0
3903,39.0,0.0,210.0,15.0,0.0
3904,73.0,0.0,210.0,0.0,0.0
3905,79.0,20.0,210.0,0.0,0.0
3906,61.0,0.0,210.0,2.0,0.0
3907,73.0,0.0,210.0,2.0,0.0
3908,63.0,0.0,210.0,5.0,0.0
3909,49.0,0.0,90.0,13.0,0.0
3910,55.0,20.0,90.0,13.0,0.0
3911,61.0,0.0,90.0,12.0,0.0
3912,79.0,0.0,210.0,1.0,0.0
3913,70.0,0.0,210.0,1.0,0.0
3914,39.0,100.0,120.0,10.0,0.0
3915,39.0,100.0,120.0,10.0,0.0
3916,61.0,0.0,90.0,12.0,0.0
3917,49.0,0.0,90.0,13.0,0.0
3918,55.0,0.0,90.0,13.0,0.0
3919,67.0,0.0,90.0,11.0,0.0
3920,61.0,0.0,210.0,2.0,0.0
3921,67.0,0.0,210.0,1.0,0.0
3922,75.0,0.0,210.0,1.0,0.0
3923,39.0,0.0,210.0,14.0,0.0
3924,55.0,0.0,90.0,13.0,0.0
3925,58.0,20.0,90.0,13.0,0.0
3926,75.0,0.0,90.0,11.0,0.0
3927,39.0,0.0,210.0,15.0,0.0
3928,75.0,0.0,210.0,0.0,0.0
3929,39.0,100.0,120.0,10.0,0.0
3930,63.0,0.0,210.0,4.0,0.0
3931,73.0,0.0,210.0,0.0,0.0
3932,63.0,0.0,210.0,5.0,0.0
3933,51.0,0.0,210.0,5.0,0.0
3934,61.0,0.0,90.0,12.0,0.0
3935,73.0,0.0,210.0,2.0,0.0
3936,43.0,0.0,210.0,3.0,0.0
3937,51.0,0.0,210.0,3.0,0.0
3938,75.0,0.0,90.0,11.0,0.0
3939,55.0,0.0,90.0,13.0,0.0
3940,61.0,0.0,90.0,12.0,0.0
3941,58.0,20.0,90.0,13.0,0.0
3942,39.0,100.0,120.0,10.0,0.0
3943,61.0,0.0,210.0,2.0,0.0
3944,39.0,0.0,210.0,15.0,0.0
3945,49.0,0.0,210.0,3.0,0.0
3946,58.0,0.0,210.0,3.0,0.0
3947,82.0,0.0,210.0,1.0,0.0
3948,63.0,0.0,90.0,12.0,0.0
3949,70.0,0.0,210.0,5.0,0.0
3950,39.0,0.0,210.0,14.0,0.0
3951,39.0,100.0,120.0,10.0,0.0
3952,73.0,0.0,210.0,2.0,0.0
3953,70.0,0.0,90.0,11.0,0.0
3954,55.0,20.0,90.0,13.0,0.0
3955,63.0,0.0,210.0,4.0,0.0
3956,63.0,0.0,210.0,5.0,0.0
3957,61.0,0.0,90.0,13.0,0.0
3958,73.0,20.0,210.0,1.0,0.0
3959,82.0,0.0,210.0,0.0,0.0
3960,73.0,0.0,210.0,0.0,0.0
3961,70.0,0.0,90.0,11.0,0.0
3962,61.0,0.0,90.0,13.0,0.0
3963,63.0,0.0,90.0,12.0,0.0
3964,39.0,100.0,120.0,10.0,0.0
3965,55.0,0.0,90.0,13.0,0.0
3966,63.0,0.0,210.0,4.0,0.0
3967,61.0,20.0,90.0,13.0,0.0
3968,58.0,0.0,90.0,13.0,0.0
3969,39.0,0.0,90.0,14.0,0.0
3970,67.0,0.0,90.0,11.0,0.0
3971,55.0,0.0,210.0,3.0,0.0
3972,46.0,0.0,210.0,3.0,0.0
3973,63.0,0.0,90.0,12.0,0.0
3974,39.0,0.0,210.0,15.0,0.0
3975,63.0,0.0,210.0,5.0,0.0
3976,51.0,0.0,210.0,5.0,0.0
3977,39.0,100.0,120.0,10.0,0.0
3978,79.0,0.0,210.0,1.0,0.0
3979,70.0,0.0,210.0,1.0,0.0
3980,73.0,0.0,210.0,2.0,0.0
3981,79.0,0.0,210.0,0.0,0.0
3982,61.0,0.0,210.0,2.0,0.0
3983,73.0,0.0,210.0,0.0,0.0
3984,39.0,100.0,120.0,10.0,0.0
3985,39.0,0.0,90.0,14.0,0.0
3986,61.0,0.0,90.0,13.0,0.0
3987,63.0,0.0,90.0,12.0,0.0
3988,58.0,20.0,90.0,13.0,0.0
3989,67.0,0.0,90.0,11.0,0.0
3990,58.0,0.0,90.0,13.0,0.0
3991,73.0,0.0,210.0,0.0,0.0
3992,87.0,0.0,210.0,0.0,0.0
3993,75.0,0.0,210.0,1.0,0.0
3994,63.0,0.0,210.0,4.0,0.0
3995,37.0,0.0,210.0,15.0,0.0
3996,61.0,0.0,210.0,2.0,0.0
3997,73.0,0.0,210.0,2.0,0.0
3998,63.0,0.0,210.0,5.0,0.0
3999,67.0,0.0,90.0,12.0,0.0
4000,61.0,0.0,90.0,13.0,0.0
4001,67.0,20.0,210.0,1.0,0.0
4002,70.0,0.0,210.0,5.0,0.0
4003,55.0,0.0,210.0,3.0,0.0
4004,39.0,100.0,120.0,10.0,0.0
4005,75.0,20.0,90.0,11.0,0.0
4006,37.0,0.0,90.0,14.0,0.0
4007,63.0,0.0,210.0,3.0,0.0
4008,39.0,100.0,120.0,10.0,0.0
4009,67.0,0.0,90.0,12.0,0.0
4010,58.0,0.0,90.0,13.0,0.0
4011,61.0,0.0,90.0,13.0,0.0
4012,37.0,0.0,90.0,14.0,0.0
4013,75.0,0.0,90.0,11.0,0.0
4014,51.0,0.0,210.0,5.0,0.0
4015,79.0,0.0,210.0,0.0,0.0
4016,79.0,0.0,90.0,11.0,0.0
4017,73.0,0.0,210.0,0.0,0.0
4018,63.0,0.0,210.0,4.0,0.0
4019,39.0,100.0,120.0,10.0,0.0
4020,63.0,0.0,210.0,5.0,0.0
4021,70.0,0.0,210.0,1.0,0.0
4022,34.0,20.0,90.0,14.0,0.0
4023,73.0,20.0,210.0,2.0,0.0
4024,63.0,0.0,90.0,13.0,0.0
4025,34.0,0.0,210.0,15.0,0.0
4026,79.0,0.0,210.0,1.0,0.0
4027,61.0,0.0,90.0,13.0,0.0
4028,61.0,0.0,210.0,2.0,0.0
4029,75.0,0.0,90.0,12.0,0.0
4030,49.0,0.0,210.0,3.0,0.0
4031,55.0,0.0,210.0,3.0,0.0
4032,75.0,0.0,90.0,12.0,0.0
4033,63.0,0.0,90.0,13.0,0.0
4034,61.0,0.0,90.0,13.0,0.0
4035,39.0,100.0,120.0,10.0,0.0
4036,79.0,0.0,90.0,11.0,0.0
4037,34.0,0.0,90.0,14.0,0.0
4038,48.0,0.0,240.0,3.0,0.0
4039,60.0,0.0,240.0,2.0,0.0
4040,80.0,0.0,240.0,0.0,0.0
4041,80.0,0.0,240.0,11.0,0.0
4042,63.0,0.0,240.0,13.0,0.0
4043,75.0,0.0,240.0,12.0,0.0
4044,72.0,0.0,240.0,2.0,0.0
4045,72.0,0.0,240.0,0.0,0.0
4046,60.0,0.0,240.0,13.0,0.0
4047,44.0,0.0,240.0,10.0,0.0
4048,80.0,0.0,240.0,1.0,0.0
4049,72.0,0.0,240.0,1.0,0.0
4050,32.0,0.0,90.0,15.0,0.0
4051,56.0,0.0,240.0,3.0,0.0
4052,32.0,120.0,90.0,14.0,0.0
4053,68.0,0.0,240.0,5.0,0.0
4054,56.0,0.0,240.0,5.0,0.0
4055,63.0,100.0,240.0,4.0,0.0
4056,36.0,20.0,90.0,14.0,0.0
4057,36.0,0.0,90.0,15.0,0.0
4058,39.0,0.0,90.0,14.0,0.0
4059,39.0,120.0,90.0,15.0,0.0
4060,37.0,0.0,90.0,15.0,0.0
4061,63.0,0.0,90.0,13.0,0.0
4062,51.0,120.0,90.0,13.0,0.0
4063,75.0,0.0,90.0,11.0,0.0
4064,67.0,0.0,90.0,12.0,0.0
4065,37.0,0.0,90.0,14.0,0.0
4066,75.0,0.0,90.0,0.0,0.0
4067,68.0,0.0,90.0,12.0,0.0
4068,36.0,120.0,90.0,14.0,0.0
4069,36.0,0.0,90.0,15.0,0.0
4070,77.0,0.0,90.0,0.0,0.0
4071,77.0,0.0,90.0,11.0,0.0
4072,63.0,0.0,90.0,13.0,0.0
4073,51.0,0.0,90.0,13.0,0.0
4074,49.0,0.0,90.0,13.0,0.0
4075,61.0,0.0,90.0,13.0,0.0
4076,79.0,0.0,90.0,0.0,0.0
4077,79.0,120.0,90.0,11.0,0.0
4078,34.0,0.0,90.0,14.0,0.0
4079,34.0,0.0,90.0,15.0,0.0
4080,70.0,0.0,90.0,12.0,0.0
4081,60.0,0.0,240.0,2.0,0.0
4082,80.0,0.0,240.0,1.0,0.0
4083,72.0,0.0,240.0,1.0,0.0
4084,80.0,0.0,240.0,0.0,0.0
4085,60.0,0.0,240.0,13.0,0.0
4086,48.0,0.0,240.0,13.0,0.0
4087,56.0,0.0,240.0,3.0,0.0
4088,72.0,100.0,240.0,2.0,0.0
4089,32.0,0.0,90.0,15.0,0.0
4090,32.0,120.0,90.0,14.0,0.0
4091,80.0,0.0,240.0,11.0,0.0
4092,44.0,0.0,240.0,10.0,0.0
4093,48.0,0.0,240.0,3.0,0.0
4094,72.0,0.0,240.0,12.0,0.0
4095,63.0,0.0,240.0,4.0,0.0
4096,68.0,0.0,240.0,5.0,0.0
4097,56.0,0.0,240.0,5.0,0.0
4098,36.0,20.0,90.0,15.0,0.0
4099,36.0,0.0,90.0,14.0,0.0
4100,39.0,120.0,90.0,15.0,0.0
4101,39.0,0.0,90.0,14.0,0.0
4102,37.0,0.0,90.0,15.0,0.0
4103,37.0,0.0,90.0,14.0,0.0
4104,51.0,0.0,90.0,13.0,0.0
4105,63.0,0.0,90.0,13.0,0.0
4106,75.0,120.0,90.0,11.0,0.0
4107,75.0,0.0,90.0,0.0,0.0
4108,67.0,0.0,90.0,12.0,0.0
4109,77.0,0.0,90.0,0.0,0.0
4110,36.0,0.0,90.0,15.0,0.0
4111,51.0,120.0,90.0,13.0,0.0
4112,36.0,0.0,90.0,14.0,0.0
4113,63.0,0.0,90.0,13.0,0.0
4114,68.0,0.0,90.0,12.0,0.0
4115,77.0,0.0,90.0,11.0,0.0
4116,34.0,0.0,90.0,14.0,0.0
4117,49.0,0.0,90.0,13.0,0.0
4118,34.0,0.0,90.0,15.0,0.0
4119,61.0,260.0,90.0,13.0,0.0
4120,79.0,0.0,90.0,11.0,0.0
4121,79.0,0.0,90.0,0.0,0.0
4122,70.0,0.0,90.0,12.0,0.0
4123,48.0,0.0,240.0,3.0,0.0
4124,48.0,0.0,240.0,13.0,0.0
4125,60.0,0.0,240.0,13.0,0.0
4126,56.0,0.0,240.0,3.0,0.0
4127,72.0,0.0,240.0,1.0,0.0
4128,80.0,0.0,240.0,1.0,0.0
4129,80.0,0.0,240.0,11.0,0.0
4130,56.0,0.0,240.0,5.0,0.0
4131,44.0,0.0,240.0,10.0,0.0
4132,32.0,0.0,240.0,15.0,0.0
4133,32.0,0.0,240.0,14.0,0.0
4134,80.0,0.0,240.0,0.0,0.0
4135,60.0,0.0,240.0,2.0,0.0
4136,72.0,0.0,240.0,2.0,0.0
4137,72.0,220.0,240.0,12.0,0.0
4138,68.0,0.0,240.0,5.0,0.0
4139,63.0,0.0,240.0,4.0,0.0
4140,63.0,0.0,90.0,12.0,0.0
4141,51.0,120.0,90.0,13.0,0.0
4142,65.0,0.0,90.0,12.0,0.0
4143,53.0,120.0,90.0,13.0,0.0
4144,67.0,0.0,90.0,12.0,0.0
4145,55.0,260.0,90.0,13.0,0.0
4146,56.0,0.0,240.0,13.0,0.0
4147,68.0,460.0,240.0,12.0,0.0
4148,39.0,0.0,210.0,15.0,0.0
4149,51.0,120.0,210.0,14.0,0.0
4150,37.0,0.0,90.0,15.0,0.0
4151,49.0,120.0,90.0,14.0,0.0
4152,51.0,120.0,90.0,14.0,0.0
4153,39.0,0.0,90.0,15.0,0.0
4154,53.0,0.0,90.0,14.0,0.0
4155,41.0,120.0,90.0,15.0,0.0
4156,34.0,120.0,90.0,15.0,0.0
4157,46.0,0.0,90.0,14.0,0.0
4158,48.0,140.0,90.0,14.0,0.0
4159,36.0,0.0,90.0,15.0,0.0
4160,49.0,700.0,120.0,14.0,0.0
4161,37.0,0.0,120.0,15.0,0.0
4162,39.0,120.0,210.0,15.0,0.0
4163,51.0,0.0,210.0,14.0,0.0
4164,37.0,120.0,90.0,15.0,0.0
4165,49.0,0.0,90.0,14.0,0.0
4166,39.0,0.0,90.0,15.0,0.0
4167,51.0,120.0,90.0,14.0,0.0
4168,41.0,120.0,90.0,15.0,0.0
4169,53.0,0.0,90.0,14.0,0.0
4170,34.0,0.0,90.0,15.0,0.0
4171,46.0,120.0,90.0,14.0,0.0
4172,48.0,0.0,90.0,14.0,0.0
4173,36.0,140.0,90.0,15.0,0.0
4174,49.0,720.0,120.0,14.0,0.0
4175,37.0,0.0,120.0,15.0,0.0
4176,39.0,120.0,240.0,15.0,0.0
4177,51.0,0.0,240.0,14.0,0.0
4178,49.0,0.0,120.0,14.0,0.0
4179,37.0,120.0,120.0,15.0,0.0
4180,51.0,0.0,120.0,14.0,0.0
4181,39.0,120.0,120.0,15.0,0.0
4182,41.0,120.0,120.0,15.0,0.0
4183,53.0,0.0,120.0,14.0,0.0
4184,46.0,0.0,120.0,14.0,0.0
4185,34.0,120.0,120.0,15.0,0.0
4186,48.0,0.0,120.0,14.0,0.0
4187,36.0,120.0,120.0,15.0,0.0
4188,49.0,120.0,120.0,14.0,0.0
4189,37.0,0.0,120.0,15.0,0.0
4190,43.0,120.0,120.0,14.0,0.0
4191,31.0,0.0,120.0,15.0,0.0
4192,44.0,120.0,120.0,14.0,0.0
4193,32.0,0.0,120.0,15.0,0.0
4194,46.0,0.0,120.0,14.0,0.0
4195,34.0,120.0,120.0,15.0,0.0
4196,27.0,120.0,120.0,15.0,0.0
4197,39.0,0.0,120.0,14.0,0.0
4198,29.0,0.0,120.0,15.0,0.0
4199,41.0,120.0,120.0,14.0,0.0
4200,43.0,0.0,120.0,14.0,0.0
4201,31.0,120.0,120.0,15.0,0.0
4202,41.0,0.0,120.0,14.0,0.0
4203,29.0,120.0,120.0,15.0,0.0
4204,31.0,0.0,120.0,15.0,0.0
4205,43.0,120.0,120.0,14.0,0.0
4206,44.0,120.0,120.0,14.0,0.0
4207,32.0,0.0,120.0,15.0,0.0
4208,43.0,0.0,120.0,14.0,0.0
4209,31.0,120.0,120.0,15.0,0.0
4210,32.0,120.0,120.0,15.0,0.0
4211,44.0,0.0,120.0,14.0,0.0
4212,34.0,120.0,120.0,15.0,0.0
4213,46.0,0.0,120.0,14.0,0.0
4214,32.0,120.0,120.0,15.0,0.0
4215,44.0,0.0,120.0,14.0,0.0
4216,46.0,120.0,120.0,14.0,0.0
4217,34.0,0.0,120.0,15.0,0.0
4218,48.0,120.0,120.0,14.0,0.0
4219,36.0,0.0,120.0,15.0,0.0
4220,34.0,120.0,120.0,15.0,0.0
4221,46.0,0.0,120.0,14.0,0.0
4222,36.0,0.0,120.0,15.0,0.0
4223,48.0,100.0,120.0,14.0,0.0
4224,56.0,20.0,210.0,13.0,0.0
4225,49.0,0.0,120.0,14.0,0.0
4226,37.0,100.0,120.0,15.0,0.0
4227,39.0,100.0,480.0,15.0,0.0
4228,55.0,120.0,90.0,13.0,0.0
4229,51.0,0.0,480.0,14.0,0.0
4230,56.0,120.0,90.0,13.0,0.0
4231,58.0,120.0,90.0,13.0,0.0
4232,51.0,20.0,90.0,13.0,0.0
4233,37.0,100.0,240.0,15.0,0.0
4234,53.0,120.0,90.0,13.0,0.0
4235,49.0,0.0,240.0,14.0,0.0
4236,55.0,20.0,90.0,13.0,0.0
4237,48.0,0.0,240.0,14.0,0.0
4238,56.0,120.0,90.0,13.0,0.0
4239,36.0,100.0,240.0,15.0,0.0
4240,55.0,20.0,90.0,13.0,0.0
4241,32.0,0.0,240.0,15.0,0.0
4242,56.0,120.0,90.0,13.0,0.0
4243,44.0,100.0,240.0,14.0,0.0
4244,58.0,20.0,90.0,13.0,0.0
4245,31.0,240.0,240.0,15.0,0.0
4246,43.0,0.0,240.0,14.0,0.0
4247,60.0,120.0,90.0,13.0,0.0
4248,61.0,20.0,90.0,13.0,0.0
4249,41.0,0.0,240.0,14.0,0.0
4250,63.0,20.0,450.0,2.0,0.0
4251,29.0,220.0,240.0,15.0,0.0
4252,63.0,0.0,450.0,13.0,0.0
4253,43.0,0.0,240.0,14.0,0.0
4254,31.0,220.0,240.0,15.0,0.0
4255,61.0,20.0,210.0,2.0,0.0
4256,27.0,220.0,240.0,15.0,0.0
4257,61.0,0.0,210.0,13.0,0.0
4258,39.0,0.0,240.0,14.0,0.0
4259,44.0,0.0,240.0,14.0,0.0
4260,60.0,0.0,210.0,13.0,0.0
4261,60.0,20.0,210.0,2.0,0.0
4262,32.0,220.0,240.0,15.0,0.0
4263,56.0,0.0,210.0,13.0,0.0
4264,56.0,20.0,210.0,2.0,0.0
4265,36.0,0.0,240.0,15.0,0.0
4266,48.0,240.0,240.0,14.0,0.0
4267,68.0,0.0,450.0,13.0,0.0
4268,37.0,0.0,240.0,15.0,0.0
4269,49.0,120.0,240.0,14.0,0.0
4270,65.0,20.0,450.0,2.0,0.0
4271,36.0,0.0,120.0,15.0,0.0
4272,48.0,100.0,120.0,14.0,0.0
4273,37.0,120.0,120.0,15.0,0.0
4274,49.0,0.0,120.0,14.0,0.0
4275,51.0,0.0,120.0,14.0,0.0
4276,39.0,100.0,120.0,15.0,0.0
4277,56.0,0.0,210.0,2.0,0.0
4278,56.0,20.0,210.0,13.0,0.0
4279,32.0,120.0,120.0,15.0,0.0
4280,44.0,0.0,120.0,14.0,0.0
4281,66.0,20.0,450.0,13.0,0.0
4282,63.0,0.0,450.0,2.0,0.0
4283,34.0,120.0,120.0,15.0,0.0
4284,46.0,0.0,120.0,14.0,0.0
4285,48.0,120.0,120.0,14.0,0.0
4286,36.0,0.0,120.0,15.0,0.0
4287,37.0,100.0,120.0,15.0,0.0
4288,49.0,0.0,120.0,14.0,0.0
4289,48.0,0.0,120.0,14.0,0.0
4290,36.0,120.0,120.0,15.0,0.0
4291,49.0,0.0,120.0,14.0,0.0
4292,37.0,100.0,120.0,15.0,0.0
4293,56.0,20.0,210.0,2.0,0.0
4294,56.0,0.0,210.0,13.0,0.0
4295,51.0,0.0,120.0,14.0,0.0
4296,39.0,120.0,120.0,15.0,0.0
4297,61.0,0.0,450.0,2.0,0.0
4298,53.0,120.0,120.0,14.0,0.0
4299,65.0,240.0,450.0,13.0,0.0
4300,41.0,0.0,120.0,15.0,0.0
4301,54.0,220.0,120.0,14.0,0.0
4302,42.0,0.0,120.0,15.0,0.0
4303,44.0,0.0,480.0,15.0,0.0
4304,56.0,220.0,480.0,14.0,0.0
4305,56.0,20.0,210.0,13.0,0.0
4306,56.0,0.0,210.0,2.0,0.0
4307,42.0,220.0,240.0,15.0,0.0
4308,60.0,0.0,210.0,2.0,0.0
4309,54.0,0.0,240.0,14.0,0.0
4310,63.0,20.0,210.0,13.0,0.0
4311,56.0,0.0,210.0,2.0,0.0
4312,53.0,220.0,240.0,14.0,0.0
4313,61.0,20.0,210.0,13.0,0.0
4314,41.0,0.0,240.0,15.0,0.0
4315,61.0,20.0,210.0,2.0,0.0
4316,49.0,0.0,240.0,14.0,0.0
4317,65.0,220.0,240.0,13.0,0.0
4318,37.0,0.0,240.0,15.0,0.0
4319,65.0,0.0,210.0,2.0,0.0
4320,49.0,20.0,210.0,3.0,0.0
4321,68.0,120.0,240.0,12.0,0.0
4322,61.0,0.0,210.0,3.0,0.0
4323,68.0,0.0,210.0,1.0,0.0
4324,67.0,0.0,690.0,1.0,0.0
4325,67.0,120.0,120.0,12.0,0.0
4326,58.0,20.0,690.0,3.0,0.0
4327,51.0,0.0,690.0,3.0,0.0
4328,51.0,120.0,240.0,14.0,0.0
4329,61.0,0.0,690.0,2.0,0.0
4330,39.0,0.0,240.0,15.0,0.0
4331,68.0,0.0,120.0,12.0,0.0
4332,70.0,120.0,120.0,12.0,0.0
4333,63.0,120.0,120.0,12.0,0.0
4334,65.0,100.0,120.0,12.0,0.0
4335,67.0,120.0,120.0,12.0,0.0
4336,44.0,0.0,690.0,3.0,0.0
4337,32.0,0.0,240.0,15.0,0.0
4338,44.0,0.0,240.0,14.0,0.0
4339,68.0,0.0,690.0,1.0,0.0
4340,56.0,0.0,690.0,3.0,0.0
4341,60.0,0.0,690.0,2.0,0.0
4342,68.0,120.0,120.0,12.0,0.0
4343,67.0,120.0,120.0,12.0,0.0
4344,68.0,120.0,120.0,12.0,0.0
4345,70.0,120.0,120.0,12.0,0.0
4346,72.0,100.0,120.0,12.0,0.0
4347,75.0,120.0,240.0,11.0,0.0
4348,73.0,20.0,90.0,12.0,0.0
4349,75.0,120.0,240.0,12.0,0.0
4350,56.0,0.0,690.0,3.0,0.0
4351,44.0,0.0,690.0,3.0,0.0
4352,32.0,0.0,240.0,15.0,0.0
4353,72.0,0.0,690.0,1.0,0.0
4354,72.0,120.0,120.0,11.0,0.0
4355,44.0,0.0,240.0,14.0,0.0
4356,56.0,20.0,690.0,2.0,0.0
4357,63.0,0.0,690.0,2.0,0.0
4358,66.0,0.0,690.0,1.0,0.0
4359,73.0,0.0,120.0,11.0,0.0
4360,75.0,120.0,120.0,11.0,0.0
4361,68.0,120.0,120.0,11.0,0.0
4362,70.0,100.0,120.0,11.0,0.0
4363,72.0,120.0,120.0,11.0,0.0
4364,49.0,0.0,690.0,3.0,0.0
4365,25.0,0.0,240.0,15.0,0.0
4366,56.0,20.0,450.0,2.0,0.0
4367,37.0,120.0,240.0,14.0,0.0
4368,73.0,120.0,120.0,11.0,0.0
4369,37.0,0.0,690.0,3.0,0.0
4370,65.0,0.0,450.0,1.0,0.0
4371,73.0,0.0,450.0,1.0,0.0
4372,61.0,0.0,450.0,2.0,0.0
4373,72.0,0.0,120.0,11.0,0.0
4374,73.0,100.0,120.0,11.0,0.0
4375,75.0,120.0,120.0,11.0,0.0
4376,77.0,20.0,210.0,1.0,0.0
4377,65.0,0.0,210.0,2.0,0.0
4378,61.0,0.0,210.0,2.0,0.0
4379,77.0,100.0,120.0,11.0,0.0
4380,80.0,120.0,240.0,0.0,0.0
4381,73.0,0.0,210.0,1.0,0.0
4382,73.0,0.0,120.0,11.0,0.0
4383,58.0,0.0,720.0,2.0,0.0
4384,27.0,0.0,240.0,15.0,0.0
4385,39.0,0.0,1410.0,3.0,0.0
4386,73.0,0.0,720.0,1.0,0.0
4387,70.0,0.0,720.0,1.0,0.0
4388,51.0,0.0,1410.0,3.0,0.0
4389,61.0,0.0,720.0,2.0,0.0
4390,39.0,0.0,240.0,14.0,0.0
4391,79.0,120.0,120.0,0.0,0.0
4392,70.0,0.0,240.0,11.0,0.0
4393,80.0,120.0,120.0,0.0,0.0
4394,82.0,120.0,120.0,0.0,0.0
4395,75.0,120.0,120.0,0.0,0.0
4396,77.0,120.0,120.0,0.0,0.0
4397,79.0,120.0,120.0,0.0,0.0
4398,56.0,480.0,720.0,2.0,0.0
4399,60.0,0.0,720.0,2.0,0.0
4400,72.0,0.0,720.0,1.0,0.0
4401,68.0,0.0,720.0,1.0,0.0
4402,80.0,120.0,120.0,0.0,0.0
4403,79.0,120.0,120.0,0.0,0.0
4404,80.0,120.0,120.0,0.0,0.0
4405,82.0,120.0,120.0,0.0,0.0
4406,84.0,100.0,120.0,0.0,0.0
4407,85.0,20.0,90.0,0.0,0.0
4408,67.0,0.0,720.0,1.0,0.0
4409,58.0,240.0,720.0,2.0,0.0
4410,55.0,0.0,720.0,2.0,0.0
4411,51.0,0.0,1410.0,3.0,0.0
4412,39.0,0.0,1410.0,3.0,0.0
4413,70.0,0.0,720.0,1.0,0.0
4414,87.0,240.0,480.0,0.0,0.0
4415,85.0,0.0,240.0,0.0,0.0
4416,60.0,0.0,720.0,2.0,0.0
4417,72.0,0.0,720.0,1.0,0.0
4418,68.0,480.0,720.0,1.0,0.0
4419,56.0,0.0,720.0,2.0,0.0
4420,84.0,240.0,240.0,0.0,0.0
4421,80.0,220.0,240.0,0.0,0.0
4422,84.0,20.0,210.0,0.0,0.0
4423,70.0,0.0,720.0,1.0,0.0
4424,51.0,20.0,690.0,3.0,0.0
4425,55.0,0.0,720.0,2.0,0.0
4426,58.0,240.0,720.0,2.0,0.0
4427,87.0,220.0,480.0,0.0,0.0
4428,67.0,0.0,720.0,1.0,0.0
4429,39.0,0.0,690.0,3.0,0.0
4430,85.0,0.0,240.0,0.0,0.0
4431,56.0,0.0,720.0,2.0,0.0
4432,84.0,240.0,240.0,0.0,0.0
4433,60.0,240.0,720.0,2.0,0.0
4434,68.0,0.0,720.0,1.0,0.0
4435,51.0,0.0,690.0,3.0,0.0
4436,39.0,20.0,690.0,3.0,0.0
4437,72.0,0.0,720.0,1.0,0.0
4438,80.0,220.0,240.0,0.0,0.0
4439,84.0,0.0,210.0,0.0,0.0
4440,39.0,0.0,240.0,3.0,0.0
4441,51.0,0.0,240.0,3.0,0.0
4442,87.0,240.0,480.0,0.0,0.0
4443,67.0,0.0,240.0,1.0,0.0
4444,70.0,0.0,240.0,1.0,0.0
4445,58.0,240.0,240.0,2.0,0.0
4446,55.0,0.0,240.0,2.0,0.0
4447,85.0,240.0,240.0,0.0,0.0
4448,82.0,240.0,240.0,0.0,0.0
4449,79.0,240.0,240.0,0.0,0.0
4450,75.0,0.0,240.0,0.0,0.0
4451,75.0,240.0,240.0,1.0,0.0
4452,73.0,0.0,240.0,0.0,0.0
4453,73.0,240.0,240.0,1.0,0.0
4454,70.0,240.0,240.0,1.0,0.0
4455,67.0,240.0,240.0,2.0,0.0
4456,67.0,0.0,240.0,1.0,0.0
4457,63.0,0.0,240.0,1.0,0.0
4458,63.0,0.0,240.0,3.0,0.0
4459,63.0,240.0,240.0,2.0,0.0
4460,61.0,240.0,240.0,3.0,0.0
4461,61.0,0.0,240.0,2.0,0.0
4462,58.0,240.0,240.0,3.0,0.0
4463,58.0,0.0,240.0,2.0,0.0
4464,55.0,0.0,240.0,2.0,0.0
4465,55.0,720.0,240.0,3.0,0.0
4466,52.0,0.0,240.0,3.0,0.0
4467,52.0,720.0,240.0,2.0,0.0
4468,51.0,720.0,240.0,3.0,0.0
4469,51.0,0.0,240.0,2.0,0.0
4470,50.0,0.0,240.0,14.0,0.0
4471,38.0,720.0,240.0,15.0,0.0
4472,49.0,720.0,240.0,14.0,0.0
4473,37.0,0.0,240.0,15.0,0.0
4474,35.0,0.0,240.0,15.0,0.0
4475,47.0,720.0,240.0,14.0,0.0
4476,34.0,0.0,240.0,15.0,0.0
4477,46.0,480.0,240.0,14.0,0.0
4478,40.0,0.0,240.0,15.0,0.0
4479,52.0,240.0,240.0,14.0,0.0
4480,39.0,460.0,240.0,15.0,0.0
4481,51.0,0.0,240.0,14.0,0.0
4482,39.0,0.0,210.0,14.0,0.0
4483,27.0,980.0,210.0,15.0,0.0
4484,32.0,0.0,960.0,15.0,0.0
4485,44.0,240.0,960.0,14.0,0.0
4486,35.0,0.0,240.0,15.0,0.0
4487,47.0,220.0,240.0,14.0,0.0
4488,39.0,260.0,210.0,15.0,0.0
4489,51.0,0.0,210.0,14.0,0.0
4490,56.0,0.0,240.0,14.0,0.0
4491,44.0,460.0,240.0,15.0,0.0
4492,59.0,260.0,210.0,14.0,0.0
4493,47.0,0.0,210.0,15.0,0.0
4494,46.0,0.0,240.0,15.0,0.0
4495,58.0,460.0,240.0,14.0,0.0
4496,38.0,0.0,210.0,15.0,0.0
4497,50.0,1220.0,210.0,14.0,0.0
4498,51.0,0.0,1410.0,14.0,0.0
4499,51.0,440.0,2880.0,4.0,0.0
4500,39.0,20.0,1410.0,15.0,0.0
4501,51.0,460.0,960.0,3.0,0.0
4502,58.0,0.0,720.0,2.0,0.0
4503,61.0,240.0,720.0,4.0,0.0
4504,63.0,220.0,480.0,2.0,0.0
4505,67.0,0.0,240.0,2.0,0.0
4506,55.0,0.0,240.0,3.0,0.0
4507,56.0,0.0,240.0,2.0,0.0
4508,68.0,0.0,240.0,2.0,0.0
4509,56.0,0.0,240.0,3.0,0.0
4510,32.0,0.0,1410.0,15.0,0.0
4511,59.0,0.0,240.0,4.0,0.0
4512,44.0,0.0,1410.0,14.0,0.0
4513,67.0,0.0,210.0,2.0,0.0
4514,70.0,0.0,210.0,2.0,0.0
4515,58.0,0.0,210.0,3.0,0.0
4516,55.0,260.0,210.0,3.0,0.0
4517,58.0,0.0,240.0,3.0,0.0
4518,61.0,0.0,240.0,3.0,0.0
4519,73.0,0.0,240.0,2.0,0.0
4520,70.0,460.0,240.0,2.0,0.0
4521,71.0,0.0,210.0,2.0,0.0
4522,56.0,0.0,210.0,3.0,0.0
4523,68.0,0.0,210.0,2.0,0.0
4524,59.0,20.0,210.0,3.0,0.0
4525,39.0,20.0,450.0,14.0,0.0
4526,51.0,0.0,480.0,4.0,0.0
4527,70.0,220.0,480.0,2.0,0.0
4528,67.0,0.0,480.0,2.0,0.0
4529,55.0,20.0,450.0,3.0,0.0
4530,27.0,0.0,450.0,15.0,0.0
4531,58.0,0.0,450.0,3.0,0.0
4532,39.0,220.0,240.0,14.0,0.0
4533,39.0,20.0,210.0,3.0,0.0
4534,44.0,20.0,210.0,3.0,0.0
4535,44.0,220.0,240.0,14.0,0.0
4536,47.0,20.0,210.0,3.0,0.0
4537,47.0,220.0,240.0,14.0,0.0
4538,51.0,20.0,210.0,3.0,0.0
4539,51.0,220.0,240.0,14.0,0.0
4540,56.0,460.0,240.0,14.0,0.0
4541,56.0,20.0,210.0,3.0,0.0
4542,59.0,20.0,210.0,3.0,0.0
4543,59.0,240.0,240.0,14.0,0.0
4544,58.0,0.0,240.0,14.0,0.0
4545,58.0,460.0,240.0,3.0,0.0
4546,50.0,20.0,210.0,3.0,0.0
4547,50.0,240.0,240.0,14.0,0.0
4548,51.0,460.0,240.0,3.0,0.0
4549,51.0,0.0,240.0,14.0,0.0
4550,45.0,240.0,240.0,14.0,0.0
4551,45.0,20.0,210.0,3.0,0.0
4552,46.0,0.0,240.0,14.0,0.0
4553,46.0,460.0,240.0,3.0,0.0
4554,45.0,240.0,240.0,14.0,0.0
4555,45.0,20.0,210.0,3.0,0.0
4556,46.0,0.0,240.0,3.0,0.0
4557,46.0,460.0,240.0,14.0,0.0
4558,44.0,20.0,210.0,3.0,0.0
4559,44.0,240.0,240.0,14.0,0.0
4560,58.0,0.0,240.0,13.0,0.0
4561,43.0,0.0,240.0,14.0,0.0
4562,63.0,0.0,240.0,11.0,0.0
4563,43.0,0.0,240.0,3.0,0.0
4564,61.0,460.0,240.0,12.0,0.0
4565,39.0,20.0,210.0,3.0,0.0
4566,51.0,0.0,240.0,13.0,0.0
4567,67.0,240.0,240.0,11.0,0.0
4568,39.0,0.0,240.0,14.0,0.0
4569,58.0,0.0,240.0,12.0,0.0
4570,51.0,0.0,240.0,13.0,0.0
4571,44.0,0.0,240.0,3.0,0.0
4572,68.0,460.0,240.0,11.0,0.0
4573,44.0,0.0,240.0,14.0,0.0
4574,59.0,0.0,240.0,12.0,0.0
4575,51.0,0.0,240.0,13.0,0.0
4576,70.0,0.0,240.0,11.0,0.0
4577,58.0,0.0,240.0,12.0,0.0
4578,43.0,240.0,240.0,14.0,0.0
4579,43.0,20.0,210.0,3.0,0.0
4580,51.0,460.0,240.0,13.0,0.0
4581,73.0,0.0,240.0,11.0,0.0
4582,44.0,0.0,240.0,14.0,0.0
4583,44.0,0.0,240.0,3.0,0.0
4584,58.0,0.0,240.0,12.0,0.0
4585,38.0,0.0,240.0,14.0,0.0
4586,53.0,0.0,240.0,13.0,0.0
4587,38.0,20.0,210.0,3.0,0.0
4588,71.0,0.0,240.0,11.0,0.0
4589,56.0,240.0,240.0,12.0,0.0
4590,39.0,0.0,240.0,14.0,0.0
4591,46.0,0.0,240.0,13.0,0.0
4592,55.0,0.0,240.0,12.0,0.0
4593,39.0,0.0,240.0,3.0,0.0
4594,70.0,440.0,240.0,11.0,0.0
4595,55.0,40.0,40.0,11.0,0.0
4596,58.0,220.0,40.0,11.0,0.0
4597,55.0,0.0,240.0,14.0,0.0
4598,65.0,220.0,240.0,13.0,0.0
4599,58.0,0.0,240.0,12.0,0.0
4600,63.0,0.0,240.0,11.0,0.0
4601,75.0,20.0,210.0,2.0,0.0
4602,75.0,220.0,210.0,2.0,0.0
4603,75.0,20.0,210.0,2.0,0.0
4604,56.0,20.0,40.0,11.0,0.0
4605,59.0,240.0,40.0,11.0,0.0
4606,75.0,0.0,240.0,2.0,0.0
4607,59.0,440.0,240.0,12.0,0.0
4608,56.0,0.0,240.0,14.0,0.0
4609,63.0,0.0,240.0,11.0,0.0
4610,56.0,0.0,240.0,13.0,0.0
4611,58.0,40.0,40.0,11.0,0.0
4612,61.0,220.0,40.0,11.0,0.0
4613,67.0,0.0,240.0,11.0,0.0
4614,75.0,20.0,210.0,2.0,0.0
4615,58.0,0.0,240.0,14.0,0.0
4616,58.0,220.0,240.0,13.0,0.0
4617,61.0,0.0,240.0,12.0,0.0
4618,75.0,220.0,210.0,2.0,0.0
4619,75.0,20.0,210.0,2.0,0.0
4620,59.0,20.0,40.0,11.0,0.0
4621,63.0,240.0,40.0,11.0,0.0
4622,59.0,0.0,240.0,13.0,0.0
4623,75.0,0.0,240.0,2.0,0.0
4624,63.0,440.0,240.0,12.0,0.0
4625,68.0,0.0,240.0,11.0,0.0
4626,59.0,0.0,240.0,14.0,0.0
4627,46.0,40.0,40.0,13.0,0.0
4628,49.0,240.0,40.0,13.0,0.0
4629,58.0,0.0,240.0,3.0,0.0
4630,63.0,240.0,240.0,11.0,0.0
4631,58.0,0.0,240.0,12.0,0.0
4632,43.0,0.0,240.0,14.0,0.0
4633,61.0,0.0,240.0,12.0,0.0
4634,51.0,0.0,240.0,13.0,0.0
4635,63.0,200.0,240.0,11.0,0.0
4636,63.0,240.0,240.0,11.0,0.0
4637,44.0,40.0,40.0,13.0,0.0
4638,47.0,0.0,40.0,13.0,0.0
4639,51.0,0.0,240.0,13.0,0.0
4640,56.0,0.0,240.0,3.0,0.0
4641,63.0,0.0,240.0,11.0,0.0
4642,59.0,0.0,240.0,12.0,0.0
4643,44.0,440.0,240.0,14.0,0.0
4644,56.0,0.0,240.0,12.0,0.0
4645,42.0,0.0,240.0,14.0,0.0
4646,44.0,40.0,40.0,13.0,0.0
4647,49.0,240.0,40.0,13.0,0.0
4648,40.0,0.0,240.0,14.0,0.0
4649,66.0,0.0,240.0,11.0,0.0
4650,63.0,0.0,240.0,12.0,0.0
4651,56.0,240.0,240.0,3.0,0.0
4652,52.0,0.0,240.0,13.0,0.0
4653,61.0,200.0,240.0,12.0,0.0
4654,64.0,0.0,240.0,11.0,0.0
4655,40.0,0.0,240.0,14.0,0.0
4656,59.0,0.0,240.0,12.0,0.0
4657,63.0,0.0,240.0,11.0,0.0
4658,46.0,40.0,40.0,13.0,0.0
4659,49.0,240.0,40.0,13.0,0.0
4660,42.0,0.0,240.0,14.0,0.0
4661,49.0,0.0,240.0,3.0,0.0
4662,61.0,0.0,240.0,11.0,0.0
4663,54.0,0.0,240.0,13.0,0.0
4664,58.0,440.0,240.0,12.0,0.0
4665,60.0,40.0,40.0,11.0,0.0
4666,63.0,220.0,40.0,11.0,0.0
4667,68.0,220.0,240.0,11.0,0.0
4668,56.0,0.0,240.0,14.0,0.0
4669,63.0,0.0,240.0,12.0,0.0
4670,80.0,20.0,210.0,1.0,0.0
4671,60.0,0.0,240.0,13.0,0.0
4672,80.0,220.0,210.0,1.0,0.0
4673,80.0,20.0,210.0,1.0,0.0
4674,61.0,20.0,40.0,11.0,0.0
4675,64.0,240.0,40.0,11.0,0.0
4676,68.0,0.0,240.0,11.0,0.0
4677,61.0,440.0,240.0,13.0,0.0
4678,80.0,0.0,240.0,1.0,0.0
4679,61.0,0.0,240.0,14.0,0.0
4680,64.0,0.0,240.0,12.0,0.0
4681,60.0,40.0,40.0,11.0,0.0
4682,66.0,220.0,40.0,11.0,0.0
4683,66.0,0.0,240.0,12.0,0.0
4684,68.0,0.0,240.0,11.0,0.0
4685,60.0,220.0,240.0,13.0,0.0
4686,63.0,0.0,240.0,14.0,0.0
4687,80.0,20.0,210.0,1.0,0.0
4688,80.0,220.0,210.0,1.0,0.0
4689,80.0,20.0,210.0,1.0,0.0
4690,61.0,20.0,40.0,11.0,0.0
4691,64.0,240.0,40.0,11.0,0.0
4692,80.0,0.0,240.0,1.0,0.0
4693,64.0,0.0,240.0,12.0,0.0
4694,61.0,0.0,240.0,13.0,0.0
4695,64.0,440.0,240.0,14.0,0.0
4696,68.0,0.0,240.0,11.0,0.0
4697,48.0,40.0,40.0,13.0,0.0
4698,51.0,240.0,40.0,13.0,0.0
4699,56.0,0.0,240.0,13.0,0.0
4700,63.0,0.0,240.0,12.0,0.0
4701,56.0,240.0,240.0,3.0,0.0
4702,68.0,0.0,240.0,11.0,0.0
4703,48.0,0.0,240.0,14.0,0.0
4704,66.0,0.0,240.0,12.0,0.0
4705,68.0,200.0,240.0,11.0,0.0
4706,68.0,0.0,240.0,11.0,0.0
4707,49.0,40.0,40.0,13.0,0.0
4708,52.0,240.0,40.0,13.0,0.0
4709,56.0,0.0,240.0,13.0,0.0
4710,61.0,0.0,240.0,3.0,0.0
4711,64.0,0.0,240.0,12.0,0.0
4712,68.0,0.0,240.0,11.0,0.0
4713,49.0,440.0,240.0,14.0,0.0
4714,49.0,40.0,40.0,13.0,0.0
4715,54.0,240.0,40.0,13.0,0.0
4716,57.0,240.0,240.0,13.0,0.0
4717,71.0,0.0,240.0,11.0,0.0
4718,45.0,0.0,240.0,14.0,0.0
4719,61.0,0.0,240.0,3.0,0.0
4720,68.0,0.0,240.0,12.0,0.0
4721,69.0,0.0,240.0,11.0,0.0
4722,66.0,200.0,240.0,12.0,0.0
4723,68.0,0.0,240.0,11.0,0.0
4724,64.0,0.0,240.0,12.0,0.0
4725,45.0,0.0,240.0,14.0,0.0
4726,47.0,40.0,40.0,13.0,0.0
4727,51.0,240.0,40.0,13.0,0.0
4728,47.0,440.0,240.0,14.0,0.0
4729,66.0,0.0,240.0,11.0,0.0
4730,54.0,0.0,240.0,13.0,0.0
4731,54.0,0.0,240.0,3.0,0.0
4732,63.0,0.0,240.0,12.0,0.0
4733,47.0,40.0,40.0,13.0,0.0
4734,52.0,240.0,40.0,13.0,0.0
4735,64.0,0.0,240.0,12.0,0.0
4736,68.0,0.0,240.0,11.0,0.0
4737,40.0,440.0,240.0,14.0,0.0
4738,52.0,0.0,240.0,3.0,0.0
4739,56.0,0.0,240.0,13.0,0.0
4740,45.0,40.0,40.0,13.0,0.0
4741,49.0,240.0,40.0,13.0,0.0
4742,61.0,0.0,240.0,12.0,0.0
4743,52.0,0.0,240.0,13.0,0.0
4744,45.0,440.0,240.0,14.0,0.0
4745,57.0,0.0,240.0,3.0,0.0
4746,64.0,0.0,240.0,11.0,0.0
4747,44.0,0.0,240.0,14.0,0.0
4748,45.0,40.0,40.0,13.0,0.0
4749,51.0,240.0,40.0,13.0,0.0
4750,54.0,0.0,240.0,3.0,0.0
4751,64.0,240.0,240.0,12.0,0.0
4752,54.0,0.0,240.0,13.0,0.0
4753,42.0,0.0,240.0,14.0,0.0
4754,68.0,0.0,240.0,11.0,0.0
4755,63.0,200.0,240.0,12.0,0.0
4756,66.0,0.0,240.0,11.0,0.0
4757,42.0,0.0,240.0,14.0,0.0
4758,64.0,0.0,240.0,11.0,0.0
4759,61.0,0.0,240.0,12.0,0.0
4760,44.0,40.0,40.0,13.0,0.0
4761,48.0,240.0,40.0,13.0,0.0
4762,56.0,460.0,240.0,3.0,0.0
4763,44.0,0.0,240.0,14.0,0.0
4764,60.0,0.0,240.0,12.0,0.0
4765,63.0,0.0,240.0,11.0,0.0
4766,51.0,0.0,240.0,13.0,0.0
4767,57.0,260.0,210.0,3.0,0.0
4768,56.0,380.0,240.0,3.0,0.0
4769,44.0,60.0,150.0,13.0,0.0
4770,56.0,20.0,210.0,3.0,0.0
4771,37.0,0.0,240.0,14.0,0.0
4772,64.0,0.0,240.0,11.0,0.0
4773,61.0,0.0,240.0,12.0,0.0
4774,44.0,20.0,40.0,13.0,0.0
4775,48.0,240.0,40.0,13.0,0.0
4776,63.0,460.0,240.0,11.0,0.0
4777,60.0,0.0,240.0,12.0,0.0
4778,51.0,0.0,240.0,13.0,0.0
4779,44.0,0.0,240.0,14.0,0.0
4780,56.0,0.0,240.0,3.0,0.0
4781,57.0,260.0,210.0,3.0,0.0
4782,56.0,380.0,240.0,3.0,0.0
4783,64.0,0.0,240.0,11.0,0.0
4784,56.0,20.0,210.0,3.0,0.0
4785,37.0,0.0,240.0,14.0,0.0
4786,44.0,60.0,150.0,13.0,0.0
4787,61.0,0.0,240.0,12.0,0.0
4788,44.0,20.0,40.0,13.0,0.0
4789,48.0,240.0,40.0,13.0,0.0
4790,60.0,0.0,240.0,12.0,0.0
4791,44.0,0.0,240.0,14.0,0.0
4792,63.0,440.0,240.0,11.0,0.0
4793,51.0,0.0,240.0,13.0,0.0
4794,56.0,0.0,240.0,3.0,0.0
4795,37.0,240.0,240.0,14.0,0.0
4796,61.0,0.0,240.0,12.0,0.0
4797,56.0,20.0,210.0,3.0,0.0
4798,64.0,0.0,240.0,11.0,0.0
4799,44.0,20.0,40.0,13.0,0.0
4800,48.0,0.0,40.0,13.0,0.0
4801,63.0,0.0,240.0,11.0,0.0
4802,51.0,0.0,240.0,13.0,0.0
4803,60.0,0.0,240.0,12.0,0.0
4804,56.0,0.0,240.0,3.0,0.0
4805,44.0,440.0,240.0,14.0,0.0
4806,64.0,240.0,240.0,11.0,0.0
4807,56.0,20.0,210.0,3.0,0.0
4808,37.0,0.0,240.0,14.0,0.0
4809,61.0,0.0,240.0,12.0,0.0
4810,44.0,20.0,40.0,13.0,0.0
4811,48.0,0.0,40.0,13.0,0.0
4812,56.0,0.0,240.0,3.0,0.0
4813,51.0,0.0,240.0,13.0,0.0
4814,63.0,460.0,240.0,11.0,0.0
4815,44.0,0.0,240.0,14.0,0.0
4816,60.0,0.0,240.0,12.0,0.0
4817,39.0,20.0,210.0,3.0,0.0
4818,39.0,220.0,240.0,14.0,0.0
4819,44.0,220.0,240.0,14.0,0.0
4820,44.0,20.0,210.0,3.0,0.0
4821,47.0,20.0,210.0,3.0,0.0
4822,47.0,220.0,240.0,14.0,0.0
4823,51.0,20.0,210.0,3.0,0.0
4824,51.0,240.0,240.0,14.0,0.0
4825,56.0,0.0,240.0,3.0,0.0
4826,56.0,460.0,240.0,14.0,0.0
4827,59.0,20.0,210.0,3.0,0.0
4828,59.0,240.0,240.0,14.0,0.0
4829,58.0,460.0,240.0,3.0,0.0
4830,58.0,0.0,240.0,14.0,0.0
4831,50.0,240.0,240.0,14.0,0.0
4832,50.0,20.0,210.0,3.0,0.0
4833,51.0,0.0,240.0,3.0,0.0
4834,51.0,440.0,240.0,14.0,0.0
4835,51.0,40.0,40.0,13.0,0.0
4836,55.0,240.0,40.0,13.0,0.0
4837,63.0,0.0,240.0,3.0,0.0
4838,51.0,440.0,240.0,14.0,0.0
4839,58.0,0.0,240.0,13.0,0.0
4840,63.0,0.0,240.0,11.0,0.0
4841,63.0,0.0,240.0,12.0,0.0
4842,63.0,0.0,240.0,12.0,0.0
4843,67.0,0.0,240.0,11.0,0.0
4844,61.0,20.0,210.0,3.0,0.0
4845,51.0,0.0,240.0,14.0,0.0
4846,63.0,0.0,210.0,3.0,0.0
4847,51.0,20.0,40.0,13.0,0.0
4848,56.0,240.0,40.0,13.0,0.0
4849,63.0,0.0,240.0,4.0,0.0
4850,59.0,0.0,240.0,13.0,0.0
4851,59.0,0.0,240.0,3.0,0.0
4852,51.0,440.0,240.0,14.0,0.0
4853,68.0,0.0,240.0,11.0,0.0
4854,63.0,0.0,240.0,3.0,0.0
4855,63.0,0.0,240.0,12.0,0.0
4856,63.0,0.0,210.0,4.0,0.0
4857,51.0,0.0,240.0,14.0,0.0
4858,70.0,220.0,240.0,11.0,0.0
4859,67.0,0.0,240.0,12.0,0.0
4860,61.0,0.0,210.0,3.0,0.0
4861,58.0,20.0,210.0,3.0,0.0
4862,51.0,20.0,40.0,13.0,0.0
4863,56.0,0.0,40.0,13.0,0.0
4864,63.0,0.0,240.0,4.0,0.0
4865,51.0,0.0,240.0,14.0,0.0
4866,73.0,0.0,240.0,11.0,0.0
4867,59.0,0.0,240.0,3.0,0.0
4868,75.0,20.0,210.0,1.0,0.0
4869,70.0,0.0,240.0,12.0,0.0
4870,59.0,220.0,240.0,13.0,0.0
4871,56.0,0.0,240.0,3.0,0.0
4872,75.0,220.0,210.0,1.0,0.0
4873,68.0,240.0,240.0,12.0,0.0
4874,71.0,0.0,240.0,11.0,0.0
4875,51.0,0.0,240.0,14.0,0.0
4876,63.0,20.0,210.0,4.0,0.0
4877,59.0,0.0,210.0,3.0,0.0
4878,63.0,0.0,210.0,3.0,0.0
4879,75.0,0.0,210.0,1.0,0.0
4880,51.0,20.0,40.0,13.0,0.0
4881,55.0,0.0,40.0,13.0,0.0
4882,70.0,0.0,240.0,11.0,0.0
4883,58.0,440.0,240.0,13.0,0.0
4884,51.0,0.0,240.0,3.0,0.0
4885,63.0,0.0,240.0,3.0,0.0
4886,63.0,0.0,240.0,4.0,0.0
4887,75.0,0.0,240.0,1.0,0.0
4888,51.0,0.0,240.0,14.0,0.0
4889,67.0,0.0,240.0,12.0,0.0
4890,39.0,0.0,240.0,14.0,0.0
4891,51.0,40.0,40.0,13.0,0.0
4892,58.0,240.0,40.0,13.0,0.0
4893,51.0,0.0,240.0,14.0,0.0
4894,63.0,0.0,240.0,3.0,0.0
4895,61.0,0.0,240.0,13.0,0.0
4896,51.0,0.0,240.0,3.0,0.0
4897,63.0,0.0,240.0,11.0,0.0
4898,63.0,440.0,240.0,12.0,0.0
4899,58.0,0.0,210.0,3.0,0.0
4900,61.0,20.0,210.0,3.0,0.0
4901,61.0,0.0,240.0,12.0,0.0
4902,51.0,0.0,240.0,14.0,0.0
4903,67.0,0.0,240.0,11.0,0.0
4904,51.0,20.0,40.0,13.0,0.0
4905,56.0,240.0,40.0,13.0,0.0
4906,63.0,0.0,240.0,4.0,0.0
4907,63.0,0.0,240.0,3.0,0.0
4908,68.0,0.0,240.0,11.0,0.0
4909,63.0,0.0,240.0,12.0,0.0
4910,59.0,0.0,240.0,13.0,0.0
4911,59.0,440.0,240.0,3.0,0.0
4912,51.0,0.0,240.0,14.0,0.0
4913,51.0,0.0,240.0,14.0,0.0
4914,56.0,20.0,210.0,3.0,0.0
4915,68.0,220.0,240.0,12.0,0.0
4916,71.0,0.0,240.0,11.0,0.0
4917,63.0,0.0,210.0,4.0,0.0
4918,59.0,0.0,210.0,3.0,0.0
4919,51.0,20.0,40.0,13.0,0.0
4920,53.0,0.0,40.0,13.0,0.0
4921,75.0,0.0,240.0,11.0,0.0
4922,53.0,0.0,240.0,3.0,0.0
4923,63.0,0.0,240.0,4.0,0.0
4924,71.0,0.0,240.0,12.0,0.0
4925,75.0,20.0,210.0,1.0,0.0
4926,51.0,0.0,240.0,14.0,0.0
4927,56.0,200.0,240.0,13.0,0.0
4928,56.0,0.0,240.0,3.0,0.0
4929,75.0,20.0,210.0,1.0,0.0
4930,51.0,20.0,40.0,13.0,0.0
4931,55.0,140.0,40.0,13.0,0.0
4932,58.0,60.0,150.0,13.0,0.0
4933,51.0,0.0,240.0,14.0,0.0
4934,58.0,20.0,210.0,3.0,0.0
4935,55.0,0.0,210.0,3.0,0.0
4936,70.0,0.0,240.0,12.0,0.0
4937,73.0,0.0,240.0,11.0,0.0
4938,63.0,0.0,210.0,4.0,0.0
4939,75.0,0.0,210.0,1.0,0.0
4940,51.0,20.0,40.0,13.0,0.0
4941,56.0,240.0,40.0,13.0,0.0
4942,56.0,0.0,240.0,3.0,0.0
4943,71.0,440.0,240.0,11.0,0.0
4944,63.0,0.0,240.0,4.0,0.0
4945,51.0,0.0,240.0,14.0,0.0
4946,59.0,0.0,240.0,3.0,0.0
4947,59.0,0.0,240.0,13.0,0.0
4948,75.0,0.0,240.0,1.0,0.0
4949,68.0,0.0,240.0,12.0,0.0
4950,39.0,0.0,240.0,14.0,0.0
4951,51.0,40.0,40.0,13.0,0.0
4952,56.0,240.0,40.0,13.0,0.0
4953,68.0,220.0,240.0,11.0,0.0
4954,51.0,0.0,240.0,14.0,0.0
4955,68.0,0.0,240.0,12.0,0.0
4956,59.0,0.0,240.0,13.0,0.0
4957,64.0,220.0,210.0,3.0,0.0
4958,51.0,0.0,240.0,14.0,0.0
4959,71.0,0.0,240.0,11.0,0.0
4960,63.0,240.0,240.0,3.0,0.0
4961,68.0,0.0,240.0,12.0,0.0
4962,51.0,40.0,40.0,13.0,0.0
4963,58.0,0.0,40.0,13.0,0.0
4964,73.0,220.0,240.0,11.0,0.0
4965,61.0,0.0,240.0,13.0,0.0
4966,70.0,0.0,240.0,12.0,0.0
4967,51.0,0.0,240.0,14.0,0.0
4968,64.0,220.0,210.0,3.0,0.0
4969,61.0,0.0,210.0,3.0,0.0
4970,71.0,0.0,240.0,12.0,0.0
4971,59.0,0.0,240.0,3.0,0.0
4972,63.0,220.0,240.0,3.0,0.0
4973,51.0,0.0,240.0,14.0,0.0
4974,75.0,0.0,240.0,11.0,0.0
4975,51.0,40.0,40.0,13.0,0.0
4976,61.0,0.0,40.0,13.0,0.0
4977,76.0,0.0,240.0,11.0,0.0
4978,64.0,220.0,240.0,13.0,0.0
4979,64.0,20.0,210.0,4.0,0.0
4980,73.0,0.0,240.0,12.0,0.0
4981,51.0,0.0,240.0,14.0,0.0
4982,58.0,0.0,210.0,3.0,0.0
4983,61.0,0.0,210.0,3.0,0.0
4984,64.0,220.0,210.0,4.0,0.0
4985,64.0,20.0,210.0,4.0,0.0
4986,63.0,0.0,240.0,3.0,0.0
4987,59.0,0.0,240.0,3.0,0.0
4988,71.0,0.0,240.0,12.0,0.0
4989,75.0,240.0,240.0,11.0,0.0
4990,51.0,20.0,40.0,13.0,0.0
4991,58.0,0.0,40.0,13.0,0.0
4992,51.0,0.0,240.0,14.0,0.0
4993,71.0,220.0,240.0,12.0,0.0
4994,61.0,0.0,240.0,13.0,0.0
4995,75.0,0.0,240.0,11.0,0.0
4996,64.0,0.0,240.0,4.0,0.0
4997,59.0,0.0,210.0,3.0,0.0
4998,63.0,220.0,210.0,3.0,0.0
4999,64.0,0.0,240.0,3.0,0.0
5000,61.0,0.0,240.0,3.0,0.0
5001,70.0,0.0,240.0,12.0,0.0
5002,73.0,0.0,240.0,11.0,0.0
5003,51.0,220.0,240.0,14.0,0.0
5004,51.0,40.0,40.0,13.0,0.0
5005,61.0,0.0,40.0,13.0,0.0
5006,73.0,220.0,240.0,12.0,0.0
5007,51.0,0.0,240.0,14.0,0.0
5008,64.0,0.0,240.0,13.0,0.0
5009,76.0,0.0,240.0,11.0,0.0
5010,64.0,20.0,210.0,4.0,0.0
5011,61.0,220.0,210.0,3.0,0.0
5012,64.0,0.0,210.0,4.0,0.0
5013,58.0,0.0,210.0,3.0,0.0
5014,59.0,0.0,210.0,3.0,0.0
5015,71.0,0.0,240.0,12.0,0.0
5016,64.0,0.0,210.0,4.0,0.0
5017,75.0,0.0,240.0,11.0,0.0
5018,63.0,20.0,210.0,3.0,0.0
5019,51.0,20.0,40.0,13.0,0.0
5020,58.0,220.0,40.0,13.0,0.0
5021,61.0,220.0,240.0,13.0,0.0
5022,75.0,0.0,240.0,11.0,0.0
5023,59.0,20.0,210.0,3.0,0.0
5024,51.0,0.0,240.0,14.0,0.0
5025,63.0,0.0,210.0,3.0,0.0
5026,64.0,0.0,240.0,4.0,0.0
5027,71.0,0.0,240.0,12.0,0.0
5028,61.0,20.0,210.0,3.0,0.0
5029,70.0,200.0,240.0,12.0,0.0
5030,58.0,0.0,210.0,3.0,0.0
5031,73.0,0.0,240.0,11.0,0.0
5032,70.0,240.0,240.0,12.0,0.0
5033,52.0,0.0,240.0,14.0,0.0
5034,73.0,0.0,240.0,11.0,0.0
5035,52.0,20.0,210.0,3.0,0.0
5036,51.0,20.0,40.0,13.0,0.0
5037,58.0,0.0,40.0,13.0,0.0
5038,73.0,0.0,240.0,11.0,0.0
5039,51.0,0.0,240.0,3.0,0.0
5040,51.0,240.0,240.0,14.0,0.0
5041,70.0,0.0,240.0,12.0,0.0
5042,61.0,0.0,240.0,13.0,0.0
5043,58.0,0.0,240.0,12.0,0.0
5044,73.0,160.0,240.0,11.0,0.0
5045,63.0,0.0,240.0,12.0,0.0
5046,55.0,0.0,240.0,14.0,0.0
5047,75.0,40.0,150.0,11.0,0.0
5048,55.0,20.0,210.0,3.0,0.0
5049,73.0,0.0,90.0,11.0,0.0
5050,51.0,20.0,40.0,13.0,0.0
5051,56.0,240.0,40.0,13.0,0.0
5052,59.0,0.0,240.0,13.0,0.0
5053,56.0,240.0,240.0,3.0,0.0
5054,71.0,0.0,240.0,11.0,0.0
5055,56.0,0.0,240.0,14.0,0.0
5056,56.0,200.0,240.0,12.0,0.0
5057,70.0,0.0,240.0,11.0,0.0
5058,61.0,0.0,240.0,12.0,0.0
5059,52.0,240.0,240.0,14.0,0.0
5060,52.0,20.0,210.0,3.0,0.0
5061,68.0,0.0,240.0,11.0,0.0
5062,51.0,20.0,40.0,13.0,0.0
5063,58.0,0.0,40.0,13.0,0.0
5064,51.0,0.0,240.0,3.0,0.0
5065,67.0,0.0,240.0,11.0,0.0
5066,61.0,0.0,240.0,13.0,0.0
5067,51.0,240.0,240.0,14.0,0.0
5068,68.0,0.0,240.0,11.0,0.0
5069,58.0,200.0,240.0,12.0,0.0
5070,43.0,240.0,240.0,14.0,0.0
5071,63.0,0.0,240.0,12.0,0.0
5072,70.0,0.0,240.0,11.0,0.0
5073,43.0,20.0,210.0,3.0,0.0
5074,51.0,20.0,40.0,13.0,0.0
5075,56.0,0.0,40.0,13.0,0.0
5076,44.0,240.0,240.0,3.0,0.0
5077,68.0,0.0,240.0,11.0,0.0
5078,59.0,0.0,240.0,13.0,0.0
5079,44.0,0.0,240.0,14.0,0.0
5080,71.0,200.0,240.0,11.0,0.0
5081,56.0,0.0,240.0,12.0,0.0
5082,52.0,0.0,240.0,14.0,0.0
5083,73.0,0.0,240.0,11.0,0.0
5084,52.0,20.0,210.0,3.0,0.0
5085,61.0,240.0,240.0,12.0,0.0
5086,51.0,20.0,40.0,13.0,0.0
5087,58.0,0.0,40.0,13.0,0.0
5088,73.0,0.0,240.0,11.0,0.0
5089,61.0,0.0,240.0,13.0,0.0
5090,51.0,0.0,240.0,14.0,0.0
5091,51.0,240.0,240.0,3.0,0.0
5092,73.0,0.0,240.0,11.0,0.0
5093,58.0,160.0,240.0,12.0,0.0
5094,55.0,20.0,210.0,3.0,0.0
5095,55.0,0.0,240.0,14.0,0.0
5096,75.0,40.0,150.0,11.0,0.0
5097,63.0,0.0,240.0,12.0,0.0
5098,73.0,0.0,90.0,11.0,0.0
5099,51.0,20.0,40.0,13.0,0.0
5100,56.0,240.0,40.0,13.0,0.0
5101,59.0,0.0,240.0,13.0,0.0
5102,71.0,0.0,240.0,11.0,0.0
5103,56.0,240.0,240.0,3.0,0.0
5104,56.0,0.0,240.0,14.0,0.0
5105,56.0,0.0,240.0,12.0,0.0
5106,70.0,200.0,240.0,11.0,0.0
5107,52.0,0.0,240.0,14.0,0.0
5108,61.0,240.0,240.0,12.0,0.0
5109,68.0,0.0,240.0,11.0,0.0
5110,52.0,20.0,210.0,3.0,0.0
5111,51.0,20.0,40.0,13.0,0.0
5112,58.0,0.0,40.0,13.0,0.0
5113,61.0,0.0,240.0,13.0,0.0
5114,67.0,240.0,240.0,11.0,0.0
5115,51.0,0.0,240.0,14.0,0.0
5116,51.0,0.0,240.0,3.0,0.0
5117,58.0,200.0,240.0,12.0,0.0
5118,68.0,0.0,240.0,11.0,0.0
5119,43.0,0.0,240.0,14.0,0.0
5120,43.0,20.0,210.0,3.0,0.0
5121,70.0,0.0,240.0,11.0,0.0
5122,63.0,240.0,240.0,12.0,0.0
5123,51.0,20.0,40.0,13.0,0.0
5124,56.0,0.0,40.0,13.0,0.0
5125,68.0,0.0,240.0,11.0,0.0
5126,44.0,0.0,240.0,14.0,0.0
5127,59.0,0.0,240.0,13.0,0.0
5128,44.0,240.0,240.0,3.0,0.0
5129,56.0,0.0,240.0,12.0,0.0
5130,71.0,200.0,240.0,11.0,0.0
5131,52.0,240.0,240.0,14.0,0.0
5132,61.0,0.0,240.0,12.0,0.0
5133,52.0,20.0,210.0,3.0,0.0
5134,73.0,0.0,240.0,11.0,0.0
5135,51.0,20.0,40.0,13.0,0.0
5136,58.0,0.0,40.0,13.0,0.0
5137,61.0,0.0,240.0,13.0,0.0
5138,73.0,0.0,240.0,11.0,0.0
5139,51.0,240.0,240.0,3.0,0.0
5140,51.0,0.0,240.0,14.0,0.0
5141,58.0,0.0,240.0,12.0,0.0
5142,73.0,160.0,240.0,11.0,0.0
5143,75.0,40.0,150.0,11.0,0.0
5144,63.0,0.0,240.0,12.0,0.0
5145,55.0,0.0,240.0,14.0,0.0
5146,55.0,20.0,210.0,3.0,0.0
5147,73.0,240.0,90.0,11.0,0.0
5148,51.0,20.0,40.0,13.0,0.0
5149,56.0,0.0,40.0,13.0,0.0
5150,56.0,240.0,240.0,3.0,0.0
5151,59.0,0.0,240.0,13.0,0.0
5152,56.0,0.0,240.0,14.0,0.0
5153,71.0,0.0,240.0,11.0,0.0
5154,56.0,200.0,240.0,12.0,0.0
5155,70.0,0.0,240.0,11.0,0.0
5156,68.0,0.0,240.0,11.0,0.0
5157,59.0,240.0,240.0,12.0,0.0
5158,54.0,0.0,240.0,14.0,0.0
5159,54.0,20.0,210.0,3.0,0.0
5160,52.0,20.0,40.0,13.0,0.0
5161,56.0,0.0,40.0,13.0,0.0
5162,73.0,0.0,240.0,11.0,0.0
5163,52.0,0.0,240.0,3.0,0.0
5164,61.0,0.0,240.0,13.0,0.0
5165,52.0,240.0,240.0,14.0,0.0
5166,75.0,0.0,240.0,11.0,0.0
5167,56.0,160.0,240.0,12.0,0.0
5168,76.0,40.0,150.0,11.0,0.0
5169,49.0,20.0,210.0,3.0,0.0
5170,49.0,0.0,240.0,14.0,0.0
5171,64.0,240.0,240.0,12.0,0.0
5172,46.0,20.0,40.0,13.0,0.0
5173,68.0,0.0,90.0,11.0,0.0
5174,51.0,0.0,40.0,13.0,0.0
5175,51.0,0.0,240.0,3.0,0.0
5176,55.0,240.0,240.0,13.0,0.0
5177,67.0,0.0,240.0,11.0,0.0
5178,51.0,0.0,240.0,14.0,0.0
5179,55.0,0.0,240.0,12.0,0.0
5180,65.0,200.0,240.0,11.0,0.0
5181,49.0,20.0,210.0,3.0,0.0
5182,49.0,0.0,240.0,14.0,0.0
5183,58.0,0.0,240.0,12.0,0.0
5184,63.0,0.0,240.0,11.0,0.0
5185,47.0,20.0,40.0,13.0,0.0
5186,51.0,240.0,40.0,13.0,0.0
5187,63.0,0.0,240.0,11.0,0.0
5188,56.0,0.0,240.0,13.0,0.0
5189,47.0,240.0,240.0,14.0,0.0
5190,47.0,0.0,240.0,3.0,0.0
5191,65.0,200.0,240.0,11.0,0.0
5192,51.0,0.0,240.0,12.0,0.0
5193,46.0,0.0,240.0,14.0,0.0
5194,67.0,240.0,240.0,11.0,0.0
5195,46.0,20.0,210.0,3.0,0.0
5196,61.0,0.0,240.0,12.0,0.0
5197,44.0,20.0,40.0,13.0,0.0
5198,47.0,0.0,40.0,13.0,0.0
5199,44.0,0.0,240.0,3.0,0.0
5200,44.0,240.0,240.0,14.0,0.0
5201,68.0,0.0,240.0,11.0,0.0
5202,51.0,0.0,240.0,13.0,0.0
5203,56.0,200.0,240.0,12.0,0.0
5204,70.0,0.0,240.0,11.0,0.0
5205,42.0,0.0,240.0,14.0,0.0
5206,42.0,20.0,210.0,3.0,0.0
5207,68.0,240.0,240.0,12.0,0.0
5208,71.0,0.0,240.0,11.0,0.0
5209,44.0,20.0,40.0,13.0,0.0
5210,49.0,0.0,40.0,13.0,0.0
5211,40.0,0.0,240.0,14.0,0.0
5212,52.0,0.0,240.0,13.0,0.0
5213,73.0,0.0,240.0,11.0,0.0
5214,40.0,240.0,240.0,3.0,0.0
5215,56.0,200.0,240.0,12.0,0.0
5216,75.0,0.0,240.0,11.0,0.0
5217,39.0,240.0,240.0,14.0,0.0
5218,76.0,0.0,240.0,11.0,0.0
5219,39.0,20.0,210.0,3.0,0.0
5220,68.0,0.0,240.0,12.0,0.0
5221,44.0,20.0,40.0,13.0,0.0
5222,49.0,0.0,40.0,13.0,0.0
5223,37.0,0.0,240.0,3.0,0.0
5224,52.0,240.0,240.0,13.0,0.0
5225,76.0,0.0,240.0,11.0,0.0
5226,37.0,0.0,240.0,14.0,0.0
5227,78.0,0.0,240.0,11.0,0.0
5228,56.0,220.0,240.0,12.0,0.0
5229,50.0,0.0,240.0,13.0,0.0
5230,80.0,220.0,240.0,11.0,0.0
5231,71.0,0.0,240.0,12.0,0.0
5232,38.0,20.0,210.0,3.0,0.0
5233,38.0,0.0,240.0,14.0,0.0
5234,51.0,0.0,240.0,13.0,0.0
5235,71.0,0.0,240.0,12.0,0.0
5236,39.0,20.0,210.0,3.0,0.0
5237,39.0,0.0,240.0,14.0,0.0
5238,80.0,220.0,240.0,11.0,0.0
5239,39.0,20.0,210.0,3.0,0.0
5240,51.0,220.0,240.0,13.0,0.0
5241,63.0,0.0,240.0,13.0,0.0
5242,39.0,0.0,240.0,14.0,0.0
5243,71.0,0.0,240.0,12.0,0.0
5244,80.0,0.0,240.0,11.0,0.0
5245,39.0,0.0,240.0,14.0,0.0
5246,70.0,240.0,240.0,12.0,0.0
5247,51.0,0.0,240.0,13.0,0.0
5248,39.0,20.0,210.0,3.0,0.0
5249,79.0,0.0,240.0,11.0,0.0
5250,61.0,0.0,240.0,13.0,0.0
5251,80.0,440.0,240.0,11.0,0.0
5252,32.0,0.0,240.0,14.0,0.0
5253,32.0,0.0,240.0,3.0,0.0
5254,68.0,0.0,240.0,12.0,0.0
5255,51.0,0.0,240.0,13.0,0.0
5256,59.0,0.0,240.0,13.0,0.0
5257,46.0,40.0,40.0,13.0,0.0
5258,49.0,240.0,40.0,13.0,0.0
5259,43.0,0.0,240.0,14.0,0.0
5260,63.0,0.0,240.0,12.0,0.0
5261,75.0,0.0,240.0,11.0,0.0
5262,51.0,240.0,240.0,13.0,0.0
5263,70.0,0.0,240.0,12.0,0.0
5264,70.0,0.0,240.0,12.0,0.0
5265,63.0,0.0,240.0,12.0,0.0
5266,43.0,200.0,240.0,14.0,0.0
5267,75.0,0.0,240.0,11.0,0.0
5268,63.0,0.0,240.0,12.0,0.0
5269,70.0,0.0,240.0,12.0,0.0
5270,43.0,0.0,240.0,14.0,0.0
5271,75.0,220.0,240.0,11.0,0.0
5272,44.0,40.0,40.0,13.0,0.0
5273,47.0,0.0,40.0,13.0,0.0
5274,75.0,0.0,240.0,11.0,0.0
5275,63.0,0.0,240.0,12.0,0.0
5276,71.0,0.0,240.0,12.0,0.0
5277,63.0,20.0,210.0,3.0,0.0
5278,44.0,0.0,240.0,14.0,0.0
5279,51.0,220.0,240.0,13.0,0.0
5280,63.0,220.0,210.0,3.0,0.0
5281,63.0,240.0,240.0,3.0,0.0
5282,46.0,40.0,40.0,13.0,0.0
5283,49.0,0.0,40.0,13.0,0.0
5284,55.0,0.0,240.0,13.0,0.0
5285,61.0,0.0,240.0,12.0,0.0
5286,67.0,0.0,240.0,12.0,0.0
5287,46.0,0.0,240.0,14.0,0.0
5288,75.0,240.0,240.0,11.0,0.0
5289,46.0,0.0,240.0,14.0,0.0
5290,75.0,0.0,240.0,11.0,0.0
5291,61.0,0.0,240.0,12.0,0.0
5292,67.0,200.0,240.0,12.0,0.0
5293,46.0,0.0,240.0,14.0,0.0
5294,67.0,0.0,240.0,12.0,0.0
5295,75.0,0.0,240.0,11.0,0.0
5296,61.0,0.0,240.0,12.0,0.0
5297,47.0,40.0,40.0,13.0,0.0
5298,51.0,220.0,40.0,13.0,0.0
5299,56.0,220.0,240.0,13.0,0.0
5300,47.0,0.0,240.0,14.0,0.0
5301,63.0,20.0,210.0,3.0,0.0
5302,59.0,0.0,240.0,12.0,0.0
5303,68.0,0.0,240.0,12.0,0.0
5304,75.0,0.0,240.0,11.0,0.0
5305,63.0,220.0,210.0,3.0,0.0
5306,63.0,20.0,210.0,3.0,0.0
5307,51.0,20.0,40.0,13.0,0.0
5308,54.0,220.0,40.0,13.0,0.0
5309,68.0,0.0,240.0,11.0,0.0
5310,56.0,220.0,240.0,13.0,0.0
5311,36.0,0.0,240.0,14.0,0.0
5312,56.0,20.0,210.0,3.0,0.0
5313,63.0,0.0,240.0,12.0,0.0
5314,66.0,0.0,240.0,12.0,0.0
5315,56.0,20.0,210.0,3.0,0.0
5316,63.0,200.0,240.0,12.0,0.0
5317,66.0,0.0,240.0,12.0,0.0
5318,36.0,0.0,240.0,14.0,0.0
5319,68.0,0.0,240.0,11.0,0.0
5320,68.0,0.0,240.0,11.0,0.0
5321,66.0,0.0,240.0,12.0,0.0
5322,36.0,0.0,240.0,14.0,0.0
5323,56.0,20.0,210.0,3.0,0.0
5324,63.0,0.0,240.0,12.0,0.0
5325,49.0,20.0,40.0,13.0,0.0
5326,52.0,240.0,40.0,13.0,0.0
5327,64.0,0.0,240.0,12.0,0.0
5328,56.0,0.0,240.0,3.0,0.0
5329,37.0,440.0,240.0,14.0,0.0
5330,68.0,0.0,240.0,11.0,0.0
5331,56.0,0.0,240.0,13.0,0.0
5332,46.0,40.0,40.0,13.0,0.0
5333,51.0,240.0,40.0,13.0,0.0
5334,55.0,0.0,240.0,12.0,0.0
5335,51.0,0.0,240.0,3.0,0.0
5336,39.0,0.0,240.0,14.0,0.0
5337,58.0,0.0,240.0,12.0,0.0
5338,63.0,720.0,240.0,11.0,0.0
5339,55.0,0.0,240.0,13.0,0.0
5340,27.0,0.0,240.0,15.0,0.0
5341,40.0,0.0,1440.0,14.0,0.0
5342,44.0,0.0,240.0,10.0,0.0
5343,56.0,0.0,1440.0,11.0,0.0
5344,44.0,0.0,1440.0,13.0,0.0
5345,44.0,720.0,240.0,3.0,0.0
5346,28.0,240.0,1440.0,15.0,0.0
5347,44.0,240.0,240.0,10.0,0.0
5348,44.0,240.0,240.0,10.0,0.0
5349,44.0,0.0,240.0,10.0,0.0
5350,44.0,720.0,240.0,10.0,0.0
5351,40.0,0.0,1440.0,14.0,0.0
5352,56.0,240.0,1440.0,11.0,0.0
5353,28.0,0.0,1440.0,15.0,0.0
5354,44.0,0.0,1440.0,13.0,0.0
5355,44.0,240.0,240.0,10.0,0.0
5356,44.0,240.0,240.0,10.0,0.0
5357,44.0,0.0,240.0,10.0,0.0
5358,44.0,720.0,240.0,10.0,0.0
5359,40.0,0.0,1440.0,14.0,0.0
5360,28.0,0.0,1440.0,15.0,0.0
5361,44.0,240.0,1440.0,13.0,0.0
5362,56.0,0.0,1440.0,11.0,0.0
5363,44.0,480.0,240.0,10.0,0.0
5364,44.0,240.0,1440.0,13.0,0.0
5365,56.0,0.0,1440.0,11.0,0.0
5366,44.0,720.0,240.0,10.0,0.0
5367,28.0,0.0,1440.0,15.0,0.0
5368,40.0,0.0,1440.0,14.0,0.0
5369,44.0,480.0,240.0,10.0,0.0
5370,56.0,0.0,1440.0,11.0,0.0
5371,28.0,0.0,1440.0,15.0,0.0
5372,40.0,0.0,1440.0,14.0,0.0
5373,44.0,480.0,240.0,10.0,0.0
5374,44.0,240.0,1440.0,13.0,0.0
5375,44.0,240.0,240.0,10.0,0.0
5376,44.0,480.0,240.0,10.0,0.0
5377,44.0,0.0,240.0,10.0,0.0
5378,44.0,480.0,240.0,10.0,0.0
5379,28.0,240.0,1440.0,15.0,0.0
5380,44.0,0.0,1440.0,13.0,0.0
5381,40.0,0.0,1440.0,14.0,0.0
5382,56.0,0.0,1440.0,11.0,0.0
5383,44.0,240.0,240.0,10.0,0.0
5384,44.0,480.0,240.0,10.0,0.0
5385,44.0,0.0,240.0,10.0,0.0
5386,56.0,0.0,1440.0,12.0,0.0
5387,56.0,20.0,2130.0,11.0,0.0
5388,44.0,240.0,240.0,10.0,0.0
5389,40.0,240.0,1440.0,14.0,0.0
5390,28.0,0.0,1440.0,15.0,0.0
5391,44.0,0.0,1440.0,13.0,0.0
5392,44.0,240.0,240.0,10.0,0.0
5393,44.0,240.0,240.0,10.0,0.0
5394,44.0,240.0,240.0,10.0,0.0
5395,44.0,240.0,240.0,10.0,0.0
5396,44.0,0.0,240.0,10.0,0.0
5397,40.0,0.0,930.0,14.0,0.0
5398,44.0,240.0,240.0,10.0,0.0
5399,56.0,0.0,1440.0,12.0,0.0
5400,44.0,0.0,1440.0,13.0,0.0
5401,28.0,20.0,930.0,15.0,0.0
5402,44.0,220.0,240.0,10.0,0.0
5403,44.0,220.0,240.0,10.0,0.0
5404,56.0,0.0,240.0,11.0,0.0
5405,44.0,220.0,240.0,10.0,0.0
5406,44.0,220.0,240.0,10.0,0.0
5407,28.0,20.0,210.0,15.0,0.0
5408,40.0,0.0,210.0,14.0,0.0
5409,59.0,0.0,240.0,11.0,0.0
5410,44.0,220.0,240.0,10.0,0.0
5411,40.0,0.0,210.0,14.0,0.0
5412,64.0,0.0,240.0,11.0,0.0
5413,28.0,20.0,210.0,15.0,0.0
5414,28.0,0.0,210.0,15.0,0.0
5415,68.0,0.0,480.0,11.0,0.0
5416,44.0,220.0,240.0,10.0,0.0
5417,40.0,20.0,210.0,14.0,0.0
5418,44.0,240.0,1440.0,13.0,0.0
5419,56.0,0.0,1440.0,12.0,0.0
5420,40.0,0.0,210.0,14.0,0.0
5421,28.0,20.0,210.0,15.0,0.0
5422,44.0,220.0,240.0,10.0,0.0
5423,28.0,0.0,210.0,15.0,0.0
5424,40.0,20.0,210.0,14.0,0.0
5425,71.0,240.0,240.0,11.0,0.0
5426,44.0,0.0,240.0,10.0,0.0
5427,70.0,0.0,480.0,11.0,0.0
5428,44.0,0.0,240.0,10.0,0.0
5429,40.0,0.0,240.0,14.0,0.0
5430,28.0,240.0,240.0,15.0,0.0
5431,44.0,240.0,240.0,10.0,0.0
5432,44.0,0.0,240.0,10.0,0.0
5433,62.0,0.0,240.0,11.0,0.0
5434,44.0,220.0,240.0,10.0,0.0
5435,56.0,0.0,1440.0,12.0,0.0
5436,44.0,240.0,1440.0,13.0,0.0
5437,39.0,0.0,210.0,14.0,0.0
5438,27.0,20.0,210.0,15.0,0.0
5439,44.0,220.0,240.0,10.0,0.0
5440,39.0,0.0,210.0,14.0,0.0
5441,71.0,0.0,240.0,11.0,0.0
5442,44.0,240.0,240.0,10.0,0.0
5443,27.0,20.0,210.0,15.0,0.0
5444,39.0,0.0,240.0,14.0,0.0
5445,27.0,240.0,240.0,15.0,0.0
5446,70.0,240.0,480.0,11.0,0.0
5447,44.0,0.0,240.0,10.0,0.0
5448,44.0,0.0,240.0,10.0,0.0
5449,63.0,0.0,240.0,11.0,0.0
5450,44.0,0.0,240.0,10.0,0.0
5451,44.0,240.0,1440.0,13.0,0.0
5452,56.0,0.0,1440.0,12.0,0.0
5453,44.0,220.0,240.0,10.0,0.0
5454,26.0,20.0,210.0,15.0,0.0
5455,44.0,220.0,240.0,10.0,0.0
5456,38.0,0.0,210.0,14.0,0.0
5457,71.0,240.0,240.0,11.0,0.0
5458,38.0,0.0,210.0,14.0,0.0
5459,26.0,20.0,210.0,15.0,0.0
5460,44.0,0.0,240.0,10.0,0.0
5461,26.0,0.0,240.0,15.0,0.0
5462,38.0,240.0,240.0,14.0,0.0
5463,70.0,240.0,480.0,11.0,0.0
5464,44.0,0.0,240.0,10.0,0.0
5465,44.0,0.0,240.0,10.0,0.0
5466,44.0,0.0,240.0,10.0,0.0
5467,65.0,0.0,240.0,11.0,0.0
5468,56.0,0.0,1440.0,12.0,0.0
5469,44.0,220.0,240.0,10.0,0.0
5470,44.0,240.0,1440.0,13.0,0.0
5471,44.0,220.0,240.0,10.0,0.0
5472,39.0,20.0,210.0,14.0,0.0
5473,27.0,0.0,210.0,15.0,0.0
5474,71.0,240.0,240.0,11.0,0.0
5475,39.0,0.0,210.0,14.0,0.0
5476,27.0,20.0,210.0,15.0,0.0
5477,44.0,0.0,240.0,10.0,0.0
5478,70.0,240.0,480.0,11.0,0.0
5479,27.0,240.0,240.0,15.0,0.0
5480,44.0,0.0,240.0,10.0,0.0
5481,39.0,0.0,240.0,14.0,0.0
5482,44.0,0.0,240.0,10.0,0.0
5483,63.0,0.0,240.0,11.0,0.0
5484,44.0,0.0,240.0,10.0,0.0
5485,56.0,0.0,1440.0,12.0,0.0
5486,44.0,220.0,240.0,10.0,0.0
5487,44.0,240.0,1440.0,13.0,0.0
5488,40.0,0.0,210.0,14.0,0.0
5489,28.0,20.0,210.0,15.0,0.0
5490,44.0,220.0,240.0,10.0,0.0
5491,40.0,0.0,210.0,14.0,0.0
5492,28.0,20.0,210.0,15.0,0.0
5493,44.0,240.0,240.0,10.0,0.0
5494,71.0,0.0,240.0,11.0,0.0
5495,44.0,0.0,240.0,10.0,0.0
5496,70.0,0.0,480.0,11.0,0.0
5497,28.0,0.0,240.0,15.0,0.0
5498,40.0,240.0,240.0,14.0,0.0
5499,44.0,240.0,240.0,10.0,0.0
5500,62.0,0.0,240.0,11.0,0.0
5501,44.0,0.0,240.0,10.0,0.0
5502,44.0,220.0,240.0,10.0,0.0
5503,44.0,0.0,1440.0,13.0,0.0
5504,56.0,0.0,1440.0,12.0,0.0
5505,44.0,220.0,240.0,10.0,0.0
5506,39.0,20.0,210.0,14.0,0.0
5507,27.0,0.0,210.0,15.0,0.0
5508,44.0,220.0,240.0,10.0,0.0
5509,71.0,0.0,240.0,11.0,0.0
5510,27.0,20.0,210.0,15.0,0.0
5511,39.0,0.0,210.0,14.0,0.0
5512,44.0,220.0,240.0,10.0,0.0
5513,27.0,20.0,210.0,15.0,0.0
5514,39.0,0.0,210.0,14.0,0.0
5515,70.0,0.0,480.0,11.0,0.0
5516,44.0,220.0,240.0,10.0,0.0
5517,27.0,20.0,210.0,15.0,0.0
5518,39.0,0.0,210.0,14.0,0.0
5519,39.0,20.0,210.0,14.0,0.0
5520,27.0,0.0,210.0,15.0,0.0
5521,44.0,220.0,240.0,10.0,0.0
5522,63.0,0.0,210.0,11.0,0.0
5523,44.0,220.0,240.0,10.0,0.0
5524,44.0,220.0,1440.0,13.0,0.0
5525,71.0,0.0,480.0,11.0,0.0
5526,56.0,0.0,1440.0,12.0,0.0
5527,39.0,0.0,210.0,14.0,0.0
5528,27.0,20.0,210.0,15.0,0.0
5529,39.0,0.0,210.0,14.0,0.0
5530,27.0,20.0,210.0,15.0,0.0
5531,44.0,220.0,240.0,10.0,0.0
5532,39.0,0.0,210.0,14.0,0.0
5533,27.0,20.0,210.0,15.0,0.0
5534,44.0,0.0,240.0,10.0,0.0
5535,70.0,220.0,240.0,11.0,0.0
5536,39.0,20.0,210.0,14.0,0.0
5537,63.0,0.0,480.0,11.0,0.0
5538,44.0,220.0,240.0,10.0,0.0
5539,27.0,0.0,210.0,15.0,0.0
5540,44.0,220.0,240.0,10.0,0.0
5541,27.0,0.0,210.0,15.0,0.0
5542,39.0,20.0,210.0,14.0,0.0
5543,71.0,0.0,240.0,11.0,0.0
5544,39.0,20.0,210.0,14.0,0.0
5545,44.0,0.0,240.0,10.0,0.0
5546,27.0,0.0,210.0,15.0,0.0
5547,44.0,0.0,1440.0,13.0,0.0
5548,70.0,0.0,480.0,11.0,0.0
5549,44.0,220.0,240.0,10.0,0.0
5550,27.0,20.0,210.0,15.0,0.0
5551,39.0,0.0,210.0,14.0,0.0
5552,56.0,220.0,1440.0,12.0,0.0
5553,44.0,220.0,240.0,10.0,0.0
5554,27.0,0.0,210.0,15.0,0.0
5555,39.0,20.0,210.0,14.0,0.0
5556,27.0,20.0,210.0,15.0,0.0
5557,63.0,0.0,240.0,11.0,0.0
5558,39.0,0.0,210.0,14.0,0.0
5559,44.0,220.0,240.0,10.0,0.0
5560,44.0,220.0,240.0,10.0,0.0
5561,72.0,0.0,480.0,11.0,0.0
5562,27.0,0.0,210.0,15.0,0.0
5563,39.0,20.0,210.0,14.0,0.0
5564,27.0,20.0,210.0,15.0,0.0
5565,44.0,220.0,240.0,10.0,0.0
5566,39.0,0.0,210.0,14.0,0.0
5567,27.0,20.0,210.0,15.0,0.0
5568,44.0,0.0,240.0,10.0,0.0
5569,70.0,0.0,210.0,11.0,0.0
5570,39.0,0.0,210.0,14.0,0.0
5571,39.0,0.0,210.0,14.0,0.0
5572,44.0,220.0,240.0,10.0,0.0
5573,44.0,220.0,1440.0,13.0,0.0
5574,56.0,0.0,1440.0,12.0,0.0
5575,63.0,0.0,480.0,11.0,0.0
5576,27.0,20.0,210.0,15.0,0.0
5577,44.0,220.0,240.0,10.0,0.0
5578,39.0,20.0,210.0,14.0,0.0
5579,27.0,0.0,210.0,15.0,0.0
5580,27.0,20.0,210.0,15.0,0.0
5581,39.0,0.0,210.0,14.0,0.0
5582,44.0,0.0,240.0,10.0,0.0
5583,73.0,220.0,240.0,11.0,0.0
5584,44.0,220.0,240.0,10.0,0.0
5585,72.0,0.0,480.0,11.0,0.0
5586,27.0,20.0,210.0,15.0,0.0
5587,39.0,0.0,210.0,14.0,0.0
5588,27.0,0.0,210.0,15.0,0.0
5589,39.0,20.0,210.0,14.0,0.0
5590,44.0,220.0,240.0,10.0,0.0
5591,39.0,0.0,210.0,14.0,0.0
5592,27.0,20.0,210.0,15.0,0.0
5593,44.0,0.0,240.0,10.0,0.0
5594,65.0,0.0,240.0,11.0,0.0
5595,56.0,0.0,1440.0,12.0,0.0
5596,39.0,20.0,210.0,14.0,0.0
5597,44.0,0.0,1440.0,13.0,0.0
5598,75.0,0.0,480.0,11.0,0.0
5599,27.0,0.0,210.0,15.0,0.0
5600,44.0,220.0,240.0,10.0,0.0
5601,27.0,20.0,210.0,15.0,0.0
5602,39.0,0.0,210.0,14.0,0.0
5603,44.0,220.0,240.0,10.0,0.0
5604,27.0,0.0,210.0,15.0,0.0
5605,73.0,220.0,240.0,11.0,0.0
5606,44.0,0.0,240.0,10.0,0.0
5607,39.0,20.0,210.0,14.0,0.0
5608,39.0,0.0,210.0,14.0,0.0
5609,44.0,220.0,240.0,10.0,0.0
5610,27.0,20.0,210.0,15.0,0.0
5611,65.0,0.0,480.0,11.0,0.0
5612,27.0,20.0,210.0,15.0,0.0
5613,44.0,220.0,240.0,10.0,0.0
5614,39.0,0.0,210.0,14.0,0.0
5615,44.0,0.0,240.0,10.0,0.0
5616,77.0,220.0,240.0,11.0,0.0
5617,39.0,20.0,210.0,14.0,0.0
5618,27.0,0.0,210.0,15.0,0.0
5619,75.0,0.0,480.0,11.0,0.0
5620,39.0,20.0,210.0,14.0,0.0
5621,44.0,220.0,240.0,10.0,0.0
5622,56.0,0.0,1440.0,12.0,0.0
5623,27.0,0.0,210.0,15.0,0.0
5624,44.0,220.0,1440.0,13.0,0.0
5625,27.0,0.0,210.0,15.0,0.0
5626,39.0,20.0,210.0,14.0,0.0
5627,44.0,220.0,240.0,10.0,0.0
5628,44.0,220.0,240.0,10.0,0.0
5629,27.0,20.0,210.0,15.0,0.0
5630,39.0,0.0,210.0,14.0,0.0
5631,67.0,0.0,240.0,11.0,0.0
5632,44.0,220.0,240.0,10.0,0.0
5633,39.0,0.0,210.0,14.0,0.0
5634,79.0,0.0,480.0,11.0,0.0
5635,27.0,20.0,210.0,15.0,0.0
5636,39.0,20.0,210.0,14.0,0.0
5637,27.0,0.0,210.0,15.0,0.0
5638,44.0,220.0,240.0,10.0,0.0
5639,44.0,0.0,240.0,10.0,0.0
5640,27.0,0.0,210.0,15.0,0.0
5641,39.0,0.0,210.0,14.0,0.0
5642,77.0,20.0,210.0,11.0,0.0
5643,68.0,220.0,480.0,11.0,0.0
5644,27.0,0.0,210.0,15.0,0.0
5645,39.0,20.0,210.0,14.0,0.0
5646,44.0,220.0,240.0,10.0,0.0
5647,44.0,0.0,1440.0,13.0,0.0
5648,56.0,0.0,1440.0,12.0,0.0
5649,39.0,0.0,210.0,14.0,0.0
5650,44.0,0.0,240.0,10.0,0.0
5651,27.0,20.0,210.0,15.0,0.0
5652,39.0,0.0,210.0,14.0,0.0
5653,44.0,220.0,240.0,10.0,0.0
5654,80.0,0.0,240.0,11.0,0.0
5655,27.0,20.0,210.0,15.0,0.0
5656,27.0,0.0,210.0,15.0,0.0
5657,79.0,220.0,480.0,11.0,0.0
5658,44.0,220.0,240.0,10.0,0.0
5659,39.0,20.0,210.0,14.0,0.0
5660,39.0,0.0,210.0,14.0,0.0
5661,27.0,20.0,210.0,15.0,0.0
5662,44.0,0.0,240.0,10.0,0.0
5663,39.0,0.0,210.0,14.0,0.0
5664,44.0,0.0,240.0,10.0,0.0
5665,70.0,220.0,240.0,11.0,0.0
5666,27.0,20.0,210.0,15.0,0.0
5667,27.0,0.0,210.0,15.0,0.0
5668,44.0,0.0,1440.0,13.0,0.0
5669,44.0,220.0,240.0,10.0,0.0
5670,39.0,20.0,210.0,14.0,0.0
5671,56.0,8.0,1440.0,12.0,0.0
5672,82.0,0.0,480.0,11.0,0.0
5673,44.0,220.0,240.0,10.0,0.0
5674,39.0,0.0,210.0,14.0,0.0
5675,27.0,20.0,210.0,15.0,0.0
5676,27.0,20.0,210.0,15.0,0.0
5677,80.0,0.0,240.0,11.0,0.0
5678,44.0,220.0,240.0,10.0,0.0
5679,39.0,0.0,210.0,14.0,0.0
5680,27.0,0.0,210.0,15.0,0.0
5681,72.0,0.0,480.0,11.0,0.0
5682,44.0,220.0,240.0,10.0,0.0
5683,39.0,20.0,210.0,14.0,0.0
5684,44.0,220.0,240.0,10.0,0.0
5685,39.0,20.0,210.0,14.0,0.0
5686,27.0,0.0,210.0,15.0,0.0
5687,84.0,0.0,240.0,11.0,0.0
5688,44.0,100.0,240.0,10.0,0.0
5689,27.0,12.0,210.0,15.0,0.0
5690,39.0,0.0,210.0,14.0,0.0
5691,44.0,100.0,120.0,10.0,0.0
5692,56.0,0.0,690.0,12.0,0.0
5693,39.0,20.0,90.0,14.0,0.0
5694,44.0,100.0,2880.0,3.0,0.0
5695,82.0,0.0,480.0,11.0,0.0
5696,56.0,0.0,2880.0,3.0,0.0
5697,44.0,0.0,690.0,13.0,0.0
5698,27.0,0.0,90.0,15.0,0.0
5699,44.0,100.0,120.0,10.0,0.0
5700,27.0,20.0,90.0,15.0,0.0
5701,39.0,0.0,90.0,14.0,0.0
5702,39.0,0.0,90.0,14.0,0.0
5703,27.0,20.0,90.0,15.0,0.0
5704,44.0,100.0,120.0,10.0,0.0
5705,39.0,20.0,90.0,14.0,0.0
5706,27.0,0.0,90.0,15.0,0.0
5707,44.0,100.0,120.0,10.0,0.0
5708,73.0,0.0,210.0,11.0,0.0
5709,27.0,20.0,90.0,15.0,0.0
5710,44.0,100.0,120.0,10.0,0.0
5711,39.0,0.0,90.0,14.0,0.0
5712,39.0,0.0,90.0,14.0,0.0
5713,44.0,100.0,120.0,10.0,0.0
5714,27.0,20.0,90.0,15.0,0.0
5715,44.0,100.0,120.0,10.0,0.0
5716,27.0,0.0,90.0,15.0,0.0
5717,77.0,0.0,90.0,12.0,0.0
5718,73.0,0.0,2130.0,1.0,0.0
5719,65.0,0.0,2130.0,1.0,0.0
5720,56.0,0.0,90.0,13.0,0.0
5721,85.0,20.0,90.0,11.0,0.0
5722,39.0,0.0,90.0,14.0,0.0
5723,44.0,100.0,120.0,10.0,0.0
5724,56.0,0.0,90.0,13.0,0.0
5725,85.0,0.0,90.0,11.0,0.0
5726,27.0,0.0,90.0,15.0,0.0
5727,77.0,0.0,90.0,12.0,0.0
5728,39.0,20.0,90.0,14.0,0.0
5729,56.0,0.0,90.0,13.0,0.0
5730,77.0,0.0,90.0,12.0,0.0
5731,85.0,0.0,90.0,11.0,0.0
5732,44.0,100.0,120.0,10.0,0.0
5733,27.0,20.0,90.0,15.0,0.0
5734,39.0,0.0,90.0,14.0,0.0
5735,77.0,0.0,90.0,12.0,0.0
5736,56.0,0.0,90.0,13.0,0.0
5737,39.0,20.0,90.0,14.0,0.0
5738,44.0,100.0,120.0,10.0,0.0
5739,85.0,0.0,90.0,11.0,0.0
5740,27.0,0.0,90.0,15.0,0.0
5741,77.0,0.0,90.0,12.0,0.0
5742,27.0,0.0,90.0,15.0,0.0
5743,39.0,0.0,90.0,14.0,0.0
5744,56.0,0.0,90.0,13.0,0.0
5745,85.0,20.0,90.0,11.0,0.0
5746,44.0,100.0,120.0,10.0,0.0
5747,56.0,0.0,90.0,13.0,0.0
5748,27.0,0.0,90.0,15.0,0.0
5749,44.0,100.0,120.0,10.0,0.0
5750,39.0,0.0,90.0,14.0,0.0
5751,85.0,0.0,90.0,11.0,0.0
5752,77.0,20.0,90.0,12.0,0.0
5753,77.0,0.0,90.0,12.0,0.0
5754,39.0,0.0,90.0,14.0,0.0
5755,56.0,20.0,90.0,13.0,0.0
5756,44.0,100.0,120.0,10.0,0.0
5757,85.0,0.0,90.0,11.0,0.0
5758,27.0,0.0,90.0,15.0,0.0
5759,77.0,0.0,90.0,12.0,0.0
5760,44.0,100.0,120.0,10.0,0.0
5761,27.0,0.0,90.0,15.0,0.0
5762,39.0,0.0,90.0,14.0,0.0
5763,85.0,0.0,90.0,11.0,0.0
5764,56.0,20.0,90.0,13.0,0.0
5765,77.0,0.0,90.0,12.0,0.0
5766,85.0,0.0,90.0,11.0,0.0
5767,56.0,20.0,90.0,13.0,0.0
5768,27.0,0.0,90.0,15.0,0.0
5769,44.0,100.0,120.0,10.0,0.0
5770,39.0,0.0,90.0,14.0,0.0
5771,27.0,0.0,90.0,15.0,0.0
5772,85.0,0.0,90.0,11.0,0.0
5773,39.0,0.0,90.0,14.0,0.0
5774,56.0,0.0,90.0,13.0,0.0
5775,77.0,20.0,90.0,12.0,0.0
5776,44.0,100.0,120.0,10.0,0.0
5777,77.0,0.0,90.0,12.0,0.0
5778,44.0,100.0,120.0,10.0,0.0
5779,39.0,0.0,90.0,14.0,0.0
5780,56.0,20.0,90.0,13.0,0.0
5781,85.0,0.0,90.0,11.0,0.0
5782,27.0,0.0,90.0,15.0,0.0
5783,39.0,0.0,90.0,14.0,0.0
5784,44.0,100.0,120.0,10.0,0.0
5785,56.0,0.0,90.0,13.0,0.0
5786,85.0,0.0,90.0,11.0,0.0
5787,27.0,0.0,90.0,15.0,0.0
5788,77.0,20.0,90.0,12.0,0.0
5789,39.0,20.0,90.0,14.0,0.0
5790,77.0,0.0,90.0,12.0,0.0
5791,44.0,100.0,120.0,10.0,0.0
5792,27.0,0.0,90.0,15.0,0.0
5793,85.0,0.0,90.0,11.0,0.0
5794,56.0,0.0,90.0,13.0,0.0
5795,77.0,0.0,90.0,12.0,0.0
5796,27.0,0.0,90.0,15.0,0.0
5797,44.0,100.0,120.0,10.0,0.0
5798,85.0,0.0,90.0,11.0,0.0
5799,56.0,0.0,90.0,13.0,0.0
5800,39.0,20.0,90.0,14.0,0.0
5801,85.0,0.0,90.0,11.0,0.0
5802,27.0,0.0,90.0,15.0,0.0
5803,39.0,20.0,90.0,14.0,0.0
5804,56.0,0.0,90.0,13.0,0.0
5805,77.0,0.0,90.0,12.0,0.0
5806,44.0,100.0,120.0,10.0,0.0
5807,44.0,100.0,120.0,10.0,0.0
5808,27.0,20.0,90.0,15.0,0.0
5809,56.0,0.0,90.0,13.0,0.0
5810,77.0,0.0,90.0,12.0,0.0
5811,85.0,0.0,90.0,11.0,0.0
5812,39.0,0.0,90.0,14.0,0.0
5813,77.0,20.0,90.0,12.0,0.0
5814,44.0,100.0,120.0,10.0,0.0
5815,27.0,0.0,90.0,15.0,0.0
5816,85.0,0.0,90.0,11.0,0.0
5817,39.0,0.0,90.0,14.0,0.0
5818,56.0,0.0,90.0,13.0,0.0
5819,39.0,20.0,90.0,14.0,0.0
5820,85.0,0.0,90.0,11.0,0.0
5821,56.0,0.0,90.0,13.0,0.0
5822,77.0,0.0,90.0,12.0,0.0
5823,44.0,0.0,120.0,10.0,0.0
5824,27.0,0.0,90.0,15.0,0.0
5825,51.0,0.0,2880.0,4.0,0.0
5826,79.0,0.0,90.0,12.0,0.0
5827,44.0,100.0,120.0,10.0,0.0
5828,85.0,0.0,90.0,11.0,0.0
5829,70.0,0.0,2880.0,5.0,0.0
5830,63.0,0.0,2880.0,5.0,0.0
5831,58.0,0.0,2880.0,4.0,0.0
5832,73.0,0.0,2880.0,1.0,0.0
5833,67.0,0.0,2880.0,1.0,0.0
5834,82.0,0.0,2880.0,0.0,0.0
5835,79.0,53.0,2880.0,0.0,0.0
5836,39.0,0.0,90.0,14.0,0.0
5837,44.0,0.0,2880.0,3.0,0.0
5838,27.0,0.0,90.0,15.0,0.0
5839,56.0,0.0,2880.0,3.0,0.0
5840,58.0,20.0,90.0,13.0,0.0
5841,58.0,20.0,90.0,13.0,0.0
5842,79.0,0.0,90.0,12.0,0.0
5843,27.0,0.0,90.0,15.0,0.0
5844,85.0,0.0,90.0,11.0,0.0
5845,39.0,0.0,90.0,14.0,0.0
5846,44.0,100.0,120.0,10.0,0.0
5847,58.0,0.0,90.0,13.0,0.0
5848,39.0,0.0,90.0,14.0,0.0
5849,44.0,100.0,120.0,10.0,0.0
5850,27.0,0.0,90.0,15.0,0.0
5851,85.0,20.0,90.0,11.0,0.0
5852,79.0,0.0,90.0,12.0,0.0
5853,58.0,0.0,90.0,13.0,0.0
5854,79.0,0.0,90.0,12.0,0.0
5855,39.0,0.0,90.0,14.0,0.0
5856,27.0,20.0,90.0,15.0,0.0
5857,44.0,100.0,120.0,10.0,0.0
5858,85.0,0.0,90.0,11.0,0.0
5859,39.0,0.0,90.0,14.0,0.0
5860,27.0,0.0,90.0,15.0,0.0
5861,58.0,20.0,90.0,13.0,0.0
5862,79.0,0.0,90.0,12.0,0.0
5863,44.0,100.0,120.0,10.0,0.0
5864,85.0,0.0,90.0,11.0,0.0
5865,27.0,0.0,90.0,15.0,0.0
5866,44.0,100.0,120.0,10.0,0.0
5867,85.0,0.0,90.0,11.0,0.0
5868,39.0,0.0,90.0,14.0,0.0
5869,79.0,0.0,90.0,12.0,0.0
5870,58.0,20.0,90.0,13.0,0.0
5871,85.0,20.0,90.0,11.0,0.0
5872,58.0,0.0,90.0,13.0,0.0
5873,44.0,100.0,120.0,10.0,0.0
5874,79.0,0.0,90.0,12.0,0.0
5875,39.0,0.0,90.0,14.0,0.0
5876,27.0,0.0,90.0,15.0,0.0
5877,44.0,100.0,120.0,10.0,0.0
5878,39.0,0.0,90.0,14.0,0.0
5879,79.0,20.0,90.0,12.0,0.0
5880,58.0,0.0,90.0,13.0,0.0
5881,27.0,0.0,90.0,15.0,0.0
5882,85.0,0.0,90.0,11.0,0.0
5883,58.0,0.0,90.0,13.0,0.0
5884,27.0,0.0,90.0,15.0,0.0
5885,39.0,20.0,90.0,14.0,0.0
5886,44.0,100.0,120.0,10.0,0.0
5887,85.0,0.0,90.0,11.0,0.0
5888,79.0,0.0,90.0,12.0,0.0
5889,27.0,0.0,90.0,15.0,0.0
5890,85.0,20.0,90.0,11.0,0.0
5891,39.0,0.0,90.0,14.0,0.0
5892,44.0,100.0,120.0,10.0,0.0
5893,79.0,0.0,90.0,12.0,0.0
5894,58.0,0.0,90.0,13.0,0.0
5895,44.0,100.0,120.0,10.0,0.0
5896,39.0,0.0,90.0,14.0,0.0
5897,79.0,0.0,90.0,12.0,0.0
5898,27.0,20.0,90.0,15.0,0.0
5899,58.0,0.0,90.0,13.0,0.0
5900,85.0,0.0,90.0,11.0,0.0
5901,44.0,100.0,120.0,10.0,0.0
5902,79.0,0.0,90.0,12.0,0.0
5903,27.0,0.0,90.0,15.0,0.0
5904,39.0,0.0,90.0,14.0,0.0
5905,58.0,20.0,90.0,13.0,0.0
5906,85.0,0.0,90.0,11.0,0.0
5907,85.0,0.0,90.0,11.0,0.0
5908,27.0,0.0,90.0,15.0,0.0
5909,44.0,100.0,120.0,10.0,0.0
5910,58.0,0.0,90.0,13.0,0.0
5911,39.0,0.0,90.0,14.0,0.0
5912,79.0,20.0,90.0,12.0,0.0
5913,39.0,0.0,90.0,14.0,0.0
5914,27.0,0.0,90.0,15.0,0.0
5915,44.0,100.0,120.0,10.0,0.0
5916,85.0,20.0,90.0,11.0,0.0
5917,79.0,0.0,90.0,12.0,0.0
5918,58.0,0.0,90.0,13.0,0.0
5919,27.0,0.0,90.0,15.0,0.0
5920,58.0,0.0,90.0,13.0,0.0
5921,79.0,0.0,90.0,12.0,0.0
5922,39.0,20.0,90.0,14.0,0.0
5923,85.0,0.0,90.0,11.0,0.0
5924,44.0,100.0,120.0,10.0,0.0
5925,85.0,0.0,90.0,11.0,0.0
5926,44.0,100.0,120.0,10.0,0.0
5927,58.0,0.0,90.0,13.0,0.0
5928,27.0,0.0,90.0,15.0,0.0
5929,79.0,20.0,90.0,12.0,0.0
5930,39.0,0.0,90.0,14.0,0.0
5931,85.0,0.0,90.0,11.0,0.0
5932,39.0,0.0,90.0,14.0,0.0
5933,79.0,0.0,90.0,12.0,0.0
5934,58.0,0.0,90.0,13.0,0.0
5935,27.0,20.0,90.0,15.0,0.0
5936,44.0,100.0,120.0,10.0,0.0
5937,85.0,0.0,90.0,11.0,0.0
5938,58.0,20.0,90.0,13.0,0.0
5939,27.0,0.0,90.0,15.0,0.0
5940,79.0,0.0,90.0,12.0,0.0
5941,39.0,0.0,90.0,14.0,0.0
5942,44.0,100.0,120.0,10.0,0.0
5943,85.0,0.0,90.0,11.0,0.0
5944,44.0,100.0,120.0,10.0,0.0
5945,39.0,0.0,90.0,14.0,0.0
5946,58.0,20.0,90.0,13.0,0.0
5947,79.0,0.0,90.0,12.0,0.0
5948,27.0,0.0,90.0,15.0,0.0
5949,85.0,0.0,90.0,11.0,0.0
5950,27.0,20.0,90.0,15.0,0.0
5951,39.0,0.0,90.0,14.0,0.0
5952,79.0,0.0,90.0,12.0,0.0
5953,44.0,100.0,120.0,10.0,0.0
5954,58.0,0.0,90.0,13.0,0.0
5955,85.0,0.0,90.0,11.0,0.0
5956,39.0,20.0,90.0,14.0,0.0
5957,27.0,0.0,90.0,15.0,0.0
5958,58.0,0.0,90.0,13.0,0.0
5959,79.0,0.0,90.0,12.0,0.0
5960,44.0,100.0,120.0,10.0,0.0
5961,44.0,100.0,120.0,10.0,0.0
5962,39.0,0.0,90.0,14.0,0.0
5963,85.0,0.0,90.0,11.0,0.0
5964,79.0,0.0,90.0,12.0,0.0
5965,27.0,0.0,90.0,15.0,0.0
5966,58.0,20.0,90.0,13.0,0.0
5967,85.0,0.0,90.0,11.0,0.0
5968,44.0,100.0,120.0,10.0,0.0
5969,27.0,0.0,90.0,15.0,0.0
5970,79.0,0.0,90.0,12.0,0.0
5971,39.0,20.0,90.0,14.0,0.0
5972,58.0,0.0,90.0,13.0,0.0
5973,79.0,0.0,90.0,12.0,0.0
5974,27.0,20.0,90.0,15.0,0.0
5975,85.0,0.0,90.0,11.0,0.0
5976,58.0,0.0,90.0,13.0,0.0
5977,44.0,0.0,120.0,10.0,0.0
5978,39.0,0.0,90.0,14.0,0.0
5979,80.0,0.0,240.0,12.0,0.0
5980,32.0,0.0,240.0,3.0,0.0
5981,60.0,0.0,450.0,7.0,0.0
5982,56.0,60.0,60.0,13.0,0.0
5983,44.0,0.0,60.0,13.0,0.0
5984,60.0,7.0,450.0,1.0,0.0
5985,68.0,0.0,450.0,1.0,0.0
5986,84.0,0.0,240.0,11.0,0.0
5987,60.0,0.0,450.0,2.0,0.0
5988,72.0,0.0,240.0,12.0,0.0
5989,72.0,0.0,240.0,11.0,0.0
5990,68.0,0.0,450.0,2.0,0.0
5991,60.0,0.0,450.0,5.0,0.0
5992,68.0,0.0,450.0,5.0,0.0
5993,48.0,0.0,450.0,4.0,0.0
5994,56.0,0.0,450.0,4.0,0.0
5995,68.0,0.0,450.0,6.0,0.0
5996,63.0,52.0,240.0,12.0,0.0
5997,44.0,0.0,450.0,8.0,0.0
5998,80.0,0.0,240.0,0.0,0.0
5999,32.0,0.0,240.0,15.0,0.0
6000,44.0,0.0,240.0,10.0,0.0
6001,44.0,52.0,480.0,3.0,0.0
6002,44.0,0.0,240.0,14.0,0.0
6003,32.0,0.0,240.0,14.0,0.0
6004,44.0,60.0,60.0,13.0,0.0
6005,56.0,0.0,60.0,13.0,0.0
6006,44.0,60.0,60.0,13.0,0.0
6007,56.0,0.0,60.0,13.0,0.0
6008,44.0,8.0,60.0,13.0,0.0
6009,56.0,0.0,60.0,13.0,0.0
6010,44.0,60.0,60.0,13.0,0.0
6011,56.0,0.0,60.0,13.0,0.0
6012,44.0,0.0,60.0,13.0,0.0
6013,56.0,60.0,60.0,13.0,0.0
6014,56.0,53.0,60.0,13.0,0.0
6015,44.0,0.0,60.0,13.0,0.0
6016,44.0,0.0,60.0,13.0,0.0
6017,56.0,8.0,60.0,13.0,0.0
6018,80.0,0.0,240.0,0.0,0.0
6019,44.0,0.0,480.0,3.0,0.0
6020,44.0,52.0,240.0,14.0,0.0
6021,44.0,0.0,240.0,10.0,0.0
6022,56.0,0.0,60.0,13.0,0.0
6023,44.0,60.0,60.0,13.0,0.0
6024,84.0,0.0,240.0,0.0,0.0
6025,48.0,52.0,480.0,3.0,0.0
6026,72.0,0.0,450.0,1.0,0.0
6027,68.0,0.0,450.0,1.0,0.0
6028,60.0,0.0,240.0,12.0,0.0
6029,56.0,0.0,450.0,7.0,0.0
6030,32.0,0.0,240.0,3.0,0.0
6031,68.0,0.0,240.0,12.0,0.0
6032,72.0,0.0,450.0,2.0,0.0
6033,60.0,0.0,450.0,6.0,0.0
6034,56.0,0.0,450.0,4.0,0.0
6035,68.0,0.0,450.0,2.0,0.0
6036,51.0,0.0,240.0,11.0,0.0
6037,68.0,0.0,240.0,11.0,0.0
6038,72.0,0.0,240.0,11.0,0.0
6039,44.0,0.0,450.0,8.0,0.0
6040,60.0,0.0,240.0,11.0,0.0
6041,32.0,0.0,240.0,15.0,0.0
6042,32.0,0.0,240.0,14.0,0.0
6043,72.0,0.0,450.0,5.0,0.0
6044,68.0,7.0,450.0,5.0,0.0
6045,72.0,0.0,240.0,12.0,0.0
6046,51.0,0.0,240.0,12.0,0.0
6047,60.0,0.0,450.0,4.0,0.0
6048,56.0,60.0,60.0,13.0,0.0
6049,44.0,0.0,60.0,13.0,0.0
6050,56.0,0.0,60.0,13.0,0.0
6051,44.0,60.0,60.0,13.0,0.0
6052,44.0,8.0,60.0,13.0,0.0
6053,56.0,0.0,60.0,13.0,0.0
6054,44.0,60.0,60.0,13.0,0.0
6055,56.0,0.0,60.0,13.0,0.0
6056,44.0,60.0,60.0,13.0,0.0
6057,56.0,0.0,60.0,13.0,0.0
6058,44.0,0.0,60.0,13.0,0.0
6059,56.0,53.0,60.0,13.0,0.0
6060,44.0,0.0,60.0,13.0,0.0
6061,56.0,8.0,60.0,13.0,0.0
6062,60.0,0.0,240.0,12.0,0.0
6063,32.0,0.0,690.0,14.0,0.0
6064,87.0,0.0,240.0,0.0,0.0
6065,68.0,0.0,240.0,12.0,0.0
6066,44.0,0.0,240.0,10.0,0.0
6067,84.0,0.0,690.0,0.0,0.0
6068,44.0,0.0,690.0,14.0,0.0
6069,75.0,0.0,690.0,11.0,0.0
6070,75.0,0.0,690.0,12.0,0.0
6071,51.0,0.0,240.0,12.0,0.0
6072,51.0,52.0,240.0,11.0,0.0
6073,51.0,0.0,690.0,3.0,0.0
6074,60.0,0.0,240.0,11.0,0.0
6075,75.0,0.0,690.0,2.0,0.0
6076,72.0,0.0,690.0,2.0,0.0
6077,60.0,0.0,690.0,7.0,0.0
6078,75.0,0.0,690.0,1.0,0.0
6079,72.0,0.0,690.0,1.0,0.0
6080,75.0,0.0,690.0,5.0,0.0
6081,72.0,0.0,690.0,5.0,0.0
6082,68.0,0.0,240.0,11.0,0.0
6083,63.0,0.0,690.0,4.0,0.0
6084,63.0,0.0,690.0,6.0,0.0
6085,32.0,7.0,690.0,3.0,0.0
6086,56.0,60.0,60.0,13.0,0.0
6087,44.0,0.0,60.0,13.0,0.0
6088,60.0,0.0,690.0,4.0,0.0
6089,48.0,0.0,690.0,3.0,0.0
6090,44.0,0.0,690.0,8.0,0.0
6091,32.0,0.0,690.0,15.0,0.0
6092,44.0,60.0,60.0,13.0,0.0
6093,56.0,0.0,60.0,13.0,0.0
6094,56.0,60.0,60.0,13.0,0.0
6095,44.0,0.0,60.0,13.0,0.0
6096,44.0,8.0,60.0,13.0,0.0
6097,56.0,0.0,60.0,13.0,0.0
6098,56.0,60.0,60.0,13.0,0.0
6099,44.0,0.0,60.0,13.0,0.0
6100,44.0,60.0,60.0,13.0,0.0
6101,56.0,0.0,60.0,13.0,0.0
6102,56.0,60.0,60.0,13.0,0.0
6103,44.0,0.0,60.0,13.0,0.0
6104,44.0,60.0,60.0,13.0,0.0
6105,56.0,0.0,60.0,13.0,0.0
6106,56.0,0.0,60.0,13.0,0.0
6107,44.0,60.0,60.0,13.0,0.0
6108,56.0,60.0,60.0,13.0,0.0
6109,44.0,0.0,60.0,13.0,0.0
6110,44.0,53.0,60.0,13.0,0.0
6111,56.0,0.0,60.0,13.0,0.0
6112,44.0,60.0,60.0,13.0,0.0
6113,56.0,0.0,60.0,13.0,0.0
6114,46.0,0.0,120.0,3.0,0.0
6115,67.0,0.0,120.0,11.0,0.0
6116,82.0,0.0,120.0,0.0,0.0
6117,39.0,0.0,120.0,8.0,0.0
6118,58.0,0.0,120.0,4.0,0.0
6119,73.0,0.0,120.0,11.0,0.0
6120,67.0,0.0,120.0,12.0,0.0
6121,58.0,0.0,120.0,12.0,0.0
6122,51.0,0.0,120.0,11.0,0.0
6123,27.0,0.0,120.0,15.0,0.0
6124,39.0,0.0,120.0,10.0,0.0
6125,61.0,0.0,120.0,4.0,0.0
6126,27.0,0.0,120.0,3.0,0.0
6127,51.0,0.0,120.0,12.0,0.0
6128,73.0,0.0,120.0,12.0,0.0
6129,58.0,0.0,120.0,11.0,0.0
6130,49.0,0.0,120.0,3.0,0.0
6131,70.0,0.0,120.0,2.0,0.0
6132,73.0,0.0,120.0,5.0,0.0
6133,70.0,0.0,120.0,5.0,0.0
6134,61.0,0.0,120.0,6.0,0.0
6135,85.0,0.0,120.0,0.0,0.0
6136,58.0,0.0,120.0,7.0,0.0
6137,39.0,0.0,120.0,14.0,0.0
6138,70.0,52.0,120.0,1.0,0.0
6139,73.0,0.0,120.0,1.0,0.0
6140,46.0,60.0,60.0,13.0,0.0
6141,55.0,0.0,60.0,13.0,0.0
6142,73.0,0.0,120.0,2.0,0.0
6143,46.0,8.0,60.0,13.0,0.0
6144,55.0,0.0,60.0,13.0,0.0
6145,55.0,0.0,60.0,13.0,0.0
6146,46.0,60.0,60.0,13.0,0.0
6147,46.0,60.0,60.0,13.0,0.0
6148,55.0,0.0,60.0,13.0,0.0
6149,44.0,0.0,120.0,14.0,0.0
6150,72.0,0.0,120.0,1.0,0.0
6151,51.0,0.0,120.0,11.0,0.0
6152,60.0,0.0,120.0,11.0,0.0
6153,68.0,0.0,120.0,11.0,0.0
6154,72.0,0.0,120.0,11.0,0.0
6155,44.0,0.0,120.0,10.0,0.0
6156,44.0,52.0,120.0,8.0,0.0
6157,68.0,0.0,120.0,1.0,0.0
6158,72.0,0.0,120.0,2.0,0.0
6159,56.0,0.0,60.0,13.0,0.0
6160,84.0,0.0,120.0,0.0,0.0
6161,32.0,0.0,120.0,15.0,0.0
6162,80.0,0.0,120.0,0.0,0.0
6163,60.0,0.0,120.0,12.0,0.0
6164,72.0,0.0,120.0,12.0,0.0
6165,56.0,0.0,120.0,7.0,0.0
6166,60.0,0.0,120.0,6.0,0.0
6167,32.0,0.0,120.0,3.0,0.0
6168,44.0,60.0,60.0,13.0,0.0
6169,72.0,0.0,120.0,5.0,0.0
6170,68.0,0.0,120.0,5.0,0.0
6171,51.0,0.0,120.0,12.0,0.0
6172,48.0,0.0,120.0,3.0,0.0
6173,60.0,0.0,120.0,4.0,0.0
6174,68.0,0.0,120.0,12.0,0.0
6175,68.0,0.0,120.0,2.0,0.0
6176,56.0,0.0,120.0,4.0,0.0
6177,44.0,0.0,120.0,3.0,0.0
6178,56.0,8.0,60.0,13.0,0.0
6179,44.0,0.0,60.0,13.0,0.0
6180,44.0,60.0,60.0,13.0,0.0
6181,56.0,0.0,60.0,13.0,0.0
6182,44.0,60.0,60.0,13.0,0.0
6183,56.0,0.0,60.0,13.0,0.0
6184,39.0,0.0,120.0,8.0,0.0
6185,58.0,0.0,120.0,6.0,0.0
6186,61.0,0.0,120.0,12.0,0.0
6187,70.0,0.0,120.0,12.0,0.0
6188,51.0,0.0,120.0,12.0,0.0
6189,27.0,0.0,120.0,15.0,0.0
6190,49.0,0.0,120.0,7.0,0.0
6191,46.0,60.0,60.0,13.0,0.0
6192,46.0,0.0,120.0,3.0,0.0
6193,63.0,0.0,120.0,5.0,0.0
6194,70.0,0.0,120.0,5.0,0.0
6195,79.0,0.0,120.0,0.0,0.0
6196,70.0,0.0,120.0,2.0,0.0
6197,63.0,0.0,120.0,2.0,0.0
6198,39.0,0.0,120.0,14.0,0.0
6199,51.0,0.0,120.0,4.0,0.0
6200,58.0,0.0,120.0,4.0,0.0
6201,55.0,0.0,60.0,13.0,0.0
6202,82.0,0.0,120.0,0.0,0.0
6203,39.0,0.0,120.0,3.0,0.0
6204,70.0,0.0,120.0,11.0,0.0
6205,27.0,0.0,120.0,3.0,0.0
6206,61.0,0.0,120.0,11.0,0.0
6207,51.0,0.0,120.0,11.0,0.0
6208,39.0,0.0,120.0,10.0,0.0
6209,63.0,0.0,120.0,1.0,0.0
6210,70.0,0.0,120.0,1.0,0.0
6211,55.0,0.0,60.0,13.0,0.0
6212,46.0,8.0,60.0,13.0,0.0
6213,55.0,0.0,60.0,13.0,0.0
6214,46.0,60.0,60.0,13.0,0.0
6215,55.0,60.0,60.0,13.0,0.0
6216,46.0,0.0,60.0,13.0,0.0
6217,60.0,0.0,120.0,2.0,0.0
6218,68.0,0.0,120.0,2.0,0.0
6219,56.0,60.0,60.0,13.0,0.0
6220,44.0,0.0,60.0,13.0,0.0
6221,32.0,0.0,120.0,14.0,0.0
6222,32.0,0.0,120.0,3.0,0.0
6223,56.0,0.0,120.0,4.0,0.0
6224,48.0,0.0,120.0,4.0,0.0
6225,44.0,0.0,120.0,3.0,0.0
6226,60.0,0.0,120.0,5.0,0.0
6227,68.0,0.0,120.0,5.0,0.0
6228,60.0,0.0,120.0,1.0,0.0
6229,68.0,0.0,120.0,1.0,0.0
6230,60.0,0.0,120.0,11.0,0.0
6231,68.0,0.0,120.0,12.0,0.0
6232,51.0,0.0,120.0,12.0,0.0
6233,48.0,52.0,120.0,7.0,0.0
6234,60.0,0.0,120.0,12.0,0.0
6235,80.0,0.0,120.0,0.0,0.0
6236,56.0,0.0,120.0,6.0,0.0
6237,44.0,0.0,120.0,10.0,0.0
6238,68.0,0.0,120.0,11.0,0.0
6239,51.0,0.0,120.0,11.0,0.0
6240,32.0,0.0,120.0,15.0,0.0
6241,44.0,0.0,120.0,8.0,0.0
6242,44.0,0.0,60.0,13.0,0.0
6243,56.0,8.0,60.0,13.0,0.0
6244,44.0,60.0,60.0,13.0,0.0
6245,56.0,0.0,60.0,13.0,0.0
6246,44.0,60.0,60.0,13.0,0.0
6247,56.0,0.0,60.0,13.0,0.0
6248,58.0,0.0,120.0,4.0,0.0
6249,51.0,0.0,120.0,11.0,0.0
6250,39.0,0.0,120.0,3.0,0.0
6251,46.0,0.0,120.0,3.0,0.0
6252,49.0,0.0,120.0,7.0,0.0
6253,63.0,0.0,120.0,5.0,0.0
6254,70.0,0.0,120.0,11.0,0.0
6255,61.0,0.0,120.0,11.0,0.0
6256,39.0,0.0,120.0,10.0,0.0
6257,51.0,0.0,120.0,4.0,0.0
6258,39.0,52.0,120.0,8.0,0.0
6259,55.0,60.0,60.0,13.0,0.0
6260,46.0,0.0,60.0,13.0,0.0
6261,58.0,0.0,120.0,6.0,0.0
6262,51.0,0.0,120.0,12.0,0.0
6263,61.0,0.0,120.0,12.0,0.0
6264,63.0,0.0,120.0,2.0,0.0
6265,70.0,0.0,120.0,2.0,0.0
6266,27.0,0.0,120.0,15.0,0.0
6267,63.0,0.0,120.0,1.0,0.0
6268,70.0,0.0,120.0,5.0,0.0
6269,39.0,0.0,120.0,14.0,0.0
6270,70.0,0.0,120.0,1.0,0.0
6271,70.0,0.0,120.0,12.0,0.0
6272,27.0,0.0,120.0,3.0,0.0
6273,79.0,0.0,120.0,0.0,0.0
6274,82.0,0.0,120.0,0.0,0.0
6275,46.0,8.0,60.0,13.0,0.0
6276,55.0,0.0,60.0,13.0,0.0
6277,46.0,0.0,60.0,13.0,0.0
6278,55.0,60.0,60.0,13.0,0.0
6279,55.0,60.0,60.0,13.0,0.0
6280,46.0,0.0,60.0,13.0,0.0
6281,44.0,0.0,720.0,8.0,0.0
6282,32.0,0.0,690.0,3.0,0.0
6283,48.0,52.0,720.0,7.0,0.0
6284,51.0,52.0,240.0,11.0,0.0
6285,60.0,0.0,240.0,11.0,0.0
6286,60.0,0.0,690.0,5.0,0.0
6287,68.0,0.0,690.0,5.0,0.0
6288,44.0,0.0,690.0,3.0,0.0
6289,68.0,0.0,690.0,2.0,0.0
6290,60.0,0.0,690.0,2.0,0.0
6291,68.0,0.0,690.0,11.0,0.0
6292,68.0,0.0,690.0,1.0,0.0
6293,60.0,0.0,690.0,1.0,0.0
6294,44.0,0.0,60.0,13.0,0.0
6295,48.0,0.0,60.0,13.0,0.0
6296,44.0,0.0,240.0,10.0,0.0
6297,56.0,0.0,720.0,6.0,0.0
6298,72.0,0.0,690.0,0.0,0.0
6299,32.0,7.0,690.0,15.0,0.0
6300,80.0,0.0,690.0,0.0,0.0
6301,32.0,0.0,690.0,14.0,0.0
6302,60.0,60.0,60.0,12.0,0.0
6303,51.0,0.0,60.0,12.0,0.0
6304,68.0,0.0,60.0,12.0,0.0
6305,48.0,0.0,690.0,4.0,0.0
6306,56.0,0.0,690.0,4.0,0.0
6307,56.0,0.0,60.0,12.0,0.0
6308,48.0,0.0,60.0,13.0,0.0
6309,44.0,60.0,60.0,13.0,0.0
6310,56.0,60.0,60.0,12.0,0.0
6311,48.0,0.0,60.0,13.0,0.0
6312,44.0,0.0,60.0,13.0,0.0
6313,48.0,8.0,60.0,13.0,0.0
6314,44.0,0.0,60.0,13.0,0.0
6315,56.0,0.0,60.0,12.0,0.0
6316,48.0,60.0,60.0,13.0,0.0
6317,44.0,0.0,60.0,13.0,0.0
6318,56.0,0.0,60.0,12.0,0.0
6319,48.0,0.0,60.0,13.0,0.0
6320,56.0,60.0,60.0,12.0,0.0
6321,44.0,0.0,60.0,13.0,0.0
6322,44.0,60.0,60.0,13.0,0.0
6323,48.0,0.0,60.0,13.0,0.0
6324,56.0,0.0,60.0,12.0,0.0
6325,48.0,0.0,60.0,13.0,0.0
6326,44.0,60.0,60.0,13.0,0.0
6327,56.0,0.0,60.0,12.0,0.0
6328,44.0,0.0,60.0,13.0,0.0
6329,56.0,60.0,60.0,12.0,0.0
6330,48.0,0.0,60.0,13.0,0.0
6331,44.0,0.0,60.0,13.0,0.0
6332,48.0,0.0,60.0,13.0,0.0
6333,56.0,60.0,60.0,12.0,0.0
6334,56.0,53.0,60.0,12.0,0.0
6335,48.0,0.0,60.0,13.0,0.0
6336,44.0,0.0,60.0,13.0,0.0
6337,44.0,0.0,60.0,13.0,0.0
6338,56.0,0.0,60.0,12.0,0.0
6339,48.0,8.0,60.0,13.0,0.0
6340,60.0,0.0,180.0,1.0,0.0
6341,60.0,0.0,180.0,2.0,0.0
6342,72.0,0.0,180.0,0.0,0.0
6343,80.0,0.0,180.0,0.0,0.0
6344,60.0,0.0,180.0,5.0,0.0
6345,68.0,0.0,180.0,2.0,0.0
6346,44.0,0.0,180.0,14.0,0.0
6347,56.0,60.0,60.0,12.0,0.0
6348,56.0,0.0,180.0,4.0,0.0
6349,48.0,0.0,180.0,4.0,0.0
6350,68.0,0.0,180.0,5.0,0.0
6351,68.0,0.0,180.0,1.0,0.0
6352,44.0,52.0,180.0,10.0,0.0
6353,68.0,0.0,180.0,11.0,0.0
6354,44.0,0.0,180.0,3.0,0.0
6355,32.0,0.0,180.0,3.0,0.0
6356,32.0,0.0,180.0,15.0,0.0
6357,48.0,0.0,60.0,13.0,0.0
6358,44.0,0.0,60.0,13.0,0.0
6359,56.0,0.0,60.0,12.0,0.0
6360,48.0,0.0,60.0,13.0,0.0
6361,44.0,60.0,60.0,13.0,0.0
6362,44.0,0.0,60.0,13.0,0.0
6363,48.0,0.0,60.0,13.0,0.0
6364,56.0,8.0,60.0,12.0,0.0
6365,56.0,0.0,60.0,4.0,0.0
6366,48.0,0.0,60.0,4.0,0.0
6367,72.0,0.0,60.0,0.0,0.0
6368,44.0,52.0,60.0,10.0,0.0
6369,68.0,0.0,60.0,11.0,0.0
6370,68.0,0.0,60.0,5.0,0.0
6371,80.0,0.0,60.0,0.0,0.0
6372,44.0,0.0,60.0,14.0,0.0
6373,44.0,0.0,60.0,3.0,0.0
6374,68.0,0.0,60.0,2.0,0.0
6375,32.0,0.0,60.0,15.0,0.0
6376,44.0,0.0,60.0,13.0,0.0
6377,48.0,0.0,60.0,13.0,0.0
6378,68.0,0.0,60.0,1.0,0.0
6379,60.0,0.0,60.0,1.0,0.0
6380,60.0,0.0,60.0,5.0,0.0
6381,60.0,0.0,60.0,2.0,0.0
6382,56.0,0.0,60.0,12.0,0.0
6383,32.0,0.0,60.0,3.0,0.0
6384,63.0,0.0,690.0,2.0,0.0
6385,79.0,0.0,690.0,0.0,0.0
6386,55.0,0.0,60.0,12.0,0.0
6387,82.0,0.0,690.0,0.0,0.0
6388,70.0,0.0,690.0,11.0,0.0
6389,63.0,0.0,240.0,11.0,0.0
6390,51.0,52.0,240.0,11.0,0.0
6391,39.0,0.0,240.0,10.0,0.0
6392,70.0,0.0,690.0,1.0,0.0
6393,63.0,0.0,690.0,1.0,0.0
6394,43.0,0.0,690.0,3.0,0.0
6395,46.0,0.0,690.0,3.0,0.0
6396,27.0,0.0,690.0,3.0,0.0
6397,58.0,60.0,60.0,12.0,0.0
6398,58.0,0.0,720.0,6.0,0.0
6399,63.0,7.0,690.0,5.0,0.0
6400,70.0,0.0,690.0,2.0,0.0
6401,70.0,0.0,690.0,5.0,0.0
6402,27.0,0.0,690.0,15.0,0.0
6403,55.0,0.0,720.0,7.0,0.0
6404,46.0,0.0,60.0,13.0,0.0
6405,51.0,0.0,60.0,13.0,0.0
6406,39.0,52.0,720.0,8.0,0.0
6407,58.0,0.0,690.0,4.0,0.0
6408,51.0,0.0,690.0,4.0,0.0
6409,39.0,0.0,690.0,14.0,0.0
6410,51.0,0.0,60.0,13.0,0.0
6411,55.0,60.0,60.0,12.0,0.0
6412,46.0,0.0,60.0,13.0,0.0
6413,58.0,0.0,60.0,12.0,0.0
6414,51.0,60.0,60.0,13.0,0.0
6415,58.0,0.0,60.0,12.0,0.0
6416,46.0,0.0,60.0,13.0,0.0
6417,55.0,0.0,60.0,12.0,0.0
6418,58.0,0.0,60.0,12.0,0.0
6419,46.0,0.0,60.0,13.0,0.0
6420,51.0,0.0,60.0,13.0,0.0
6421,55.0,8.0,60.0,12.0,0.0
6422,46.0,60.0,60.0,13.0,0.0
6423,55.0,0.0,60.0,12.0,0.0
6424,51.0,0.0,60.0,13.0,0.0
6425,58.0,0.0,60.0,12.0,0.0
6426,58.0,0.0,60.0,12.0,0.0
6427,55.0,60.0,60.0,12.0,0.0
6428,46.0,0.0,60.0,13.0,0.0
6429,51.0,0.0,60.0,13.0,0.0
6430,46.0,0.0,60.0,13.0,0.0
6431,58.0,60.0,60.0,12.0,0.0
6432,55.0,0.0,60.0,12.0,0.0
6433,51.0,0.0,60.0,13.0,0.0
6434,51.0,0.0,60.0,13.0,0.0
6435,46.0,0.0,60.0,13.0,0.0
6436,58.0,0.0,60.0,12.0,0.0
6437,55.0,60.0,60.0,12.0,0.0
6438,51.0,0.0,60.0,13.0,0.0
6439,58.0,60.0,60.0,12.0,0.0
6440,55.0,0.0,60.0,12.0,0.0
6441,46.0,0.0,60.0,13.0,0.0
6442,46.0,0.0,60.0,13.0,0.0
6443,51.0,0.0,60.0,13.0,0.0
6444,58.0,0.0,60.0,12.0,0.0
6445,55.0,60.0,60.0,12.0,0.0
6446,55.0,53.0,60.0,12.0,0.0
6447,46.0,0.0,60.0,13.0,0.0
6448,51.0,0.0,60.0,13.0,0.0
6449,58.0,0.0,60.0,12.0,0.0
6450,51.0,8.0,60.0,13.0,0.0
6451,46.0,0.0,60.0,13.0,0.0
6452,58.0,0.0,60.0,12.0,0.0
6453,55.0,0.0,60.0,12.0,0.0
6454,43.0,0.0,180.0,3.0,0.0
6455,58.0,0.0,60.0,12.0,0.0
6456,39.0,52.0,180.0,10.0,0.0
6457,63.0,0.0,180.0,1.0,0.0
6458,27.0,0.0,180.0,15.0,0.0
6459,63.0,0.0,180.0,5.0,0.0
6460,58.0,0.0,180.0,4.0,0.0
6461,51.0,0.0,180.0,4.0,0.0
6462,27.0,0.0,180.0,3.0,0.0
6463,55.0,60.0,60.0,12.0,0.0
6464,70.0,0.0,180.0,2.0,0.0
6465,70.0,0.0,180.0,1.0,0.0
6466,70.0,0.0,180.0,5.0,0.0
6467,46.0,0.0,180.0,3.0,0.0
6468,79.0,0.0,180.0,0.0,0.0
6469,63.0,0.0,180.0,2.0,0.0
6470,51.0,0.0,60.0,13.0,0.0
6471,46.0,0.0,60.0,13.0,0.0
6472,39.0,0.0,180.0,14.0,0.0
6473,82.0,0.0,180.0,0.0,0.0
6474,70.0,0.0,180.0,11.0,0.0
6475,55.0,60.0,60.0,12.0,0.0
6476,51.0,0.0,60.0,13.0,0.0
6477,58.0,0.0,60.0,12.0,0.0
6478,46.0,0.0,60.0,13.0,0.0
6479,46.0,0.0,60.0,13.0,0.0
6480,55.0,8.0,60.0,12.0,0.0
6481,58.0,0.0,60.0,12.0,0.0
6482,51.0,0.0,60.0,13.0,0.0
6483,58.0,0.0,60.0,12.0,0.0
6484,70.0,0.0,60.0,2.0,0.0
6485,46.0,0.0,60.0,3.0,0.0
6486,43.0,0.0,60.0,3.0,0.0
6487,79.0,0.0,60.0,0.0,0.0
6488,39.0,52.0,60.0,10.0,0.0
6489,82.0,0.0,60.0,0.0,0.0
6490,51.0,0.0,60.0,13.0,0.0
6491,46.0,0.0,60.0,13.0,0.0
6492,55.0,0.0,60.0,12.0,0.0
6493,63.0,0.0,60.0,2.0,0.0
6494,27.0,0.0,60.0,3.0,0.0
6495,70.0,0.0,60.0,11.0,0.0
6496,27.0,0.0,60.0,15.0,0.0
6497,70.0,0.0,60.0,5.0,0.0
6498,58.0,0.0,60.0,4.0,0.0
6499,70.0,0.0,60.0,1.0,0.0
6500,63.0,0.0,60.0,5.0,0.0
6501,39.0,0.0,60.0,14.0,0.0
6502,63.0,0.0,60.0,1.0,0.0
6503,51.0,8.0,60.0,4.0,0.0
6504,44.0,0.0,930.0,14.0,0.0
6505,80.0,0.0,570.0,0.0,0.0
6506,68.0,0.0,570.0,5.0,0.0
6507,60.0,0.0,720.0,6.0,0.0
6508,48.0,0.0,570.0,3.0,0.0
6509,44.0,0.0,570.0,3.0,0.0
6510,72.0,0.0,570.0,5.0,0.0
6511,44.0,0.0,240.0,10.0,0.0
6512,48.0,0.0,60.0,13.0,0.0
6513,72.0,7.0,930.0,2.0,0.0
6514,68.0,0.0,930.0,2.0,0.0
6515,56.0,0.0,720.0,7.0,0.0
6516,51.0,0.0,60.0,13.0,0.0
6517,32.0,0.0,930.0,15.0,0.0
6518,60.0,60.0,60.0,12.0,0.0
6519,68.0,7.0,570.0,1.0,0.0
6520,72.0,0.0,570.0,1.0,0.0
6521,56.0,0.0,60.0,12.0,0.0
6522,68.0,0.0,240.0,11.0,0.0
6523,56.0,0.0,240.0,11.0,0.0
6524,72.0,0.0,570.0,11.0,0.0
6525,63.0,52.0,240.0,11.0,0.0
6526,44.0,0.0,720.0,8.0,0.0
6527,84.0,0.0,570.0,0.0,0.0
6528,56.0,0.0,570.0,4.0,0.0
6529,32.0,0.0,930.0,3.0,0.0
6530,60.0,0.0,570.0,4.0,0.0
6531,51.0,0.0,60.0,13.0,0.0
6532,56.0,0.0,60.0,12.0,0.0
6533,60.0,0.0,60.0,12.0,0.0
6534,48.0,60.0,60.0,13.0,0.0
6535,56.0,60.0,60.0,12.0,0.0
6536,60.0,0.0,60.0,12.0,0.0
6537,48.0,0.0,60.0,13.0,0.0
6538,51.0,0.0,60.0,13.0,0.0
6539,56.0,0.0,60.0,12.0,0.0
6540,51.0,0.0,60.0,13.0,0.0
6541,48.0,0.0,60.0,13.0,0.0
6542,60.0,8.0,60.0,12.0,0.0
6543,56.0,0.0,60.0,12.0,0.0
6544,60.0,0.0,60.0,12.0,0.0
6545,51.0,60.0,60.0,13.0,0.0
6546,48.0,0.0,60.0,13.0,0.0
6547,56.0,0.0,60.0,12.0,0.0
6548,60.0,0.0,60.0,12.0,0.0
6549,48.0,0.0,60.0,13.0,0.0
6550,51.0,60.0,60.0,13.0,0.0
6551,60.0,0.0,60.0,12.0,0.0
6552,56.0,0.0,60.0,12.0,0.0
6553,48.0,0.0,60.0,13.0,0.0
6554,51.0,60.0,60.0,13.0,0.0
6555,51.0,0.0,60.0,13.0,0.0
6556,48.0,0.0,60.0,13.0,0.0
6557,56.0,60.0,60.0,12.0,0.0
6558,60.0,0.0,60.0,12.0,0.0
6559,56.0,0.0,60.0,12.0,0.0
6560,60.0,0.0,60.0,12.0,0.0
6561,51.0,53.0,60.0,13.0,0.0
6562,48.0,0.0,60.0,13.0,0.0
6563,48.0,0.0,60.0,13.0,0.0
6564,60.0,60.0,60.0,12.0,0.0
6565,56.0,0.0,60.0,12.0,0.0
6566,51.0,0.0,60.0,13.0,0.0
6567,68.0,15.0,90.0,1.0,0.0
6568,68.0,0.0,90.0,0.0,0.0
6569,80.0,0.0,90.0,0.0,0.0
6570,48.0,0.0,60.0,13.0,0.0
6571,44.0,52.0,120.0,10.0,0.0
6572,44.0,0.0,90.0,4.0,0.0
6573,56.0,7.0,90.0,4.0,0.0
6574,68.0,0.0,90.0,5.0,0.0
6575,56.0,0.0,90.0,5.0,0.0
6576,60.0,0.0,60.0,12.0,0.0
6577,56.0,0.0,90.0,3.0,0.0
6578,56.0,0.0,60.0,12.0,0.0
6579,51.0,38.0,60.0,13.0,0.0
6580,68.0,0.0,90.0,11.0,0.0
6581,56.0,0.0,60.0,12.0,0.0
6582,48.0,0.0,60.0,13.0,0.0
6583,51.0,8.0,60.0,13.0,0.0
6584,60.0,0.0,60.0,12.0,0.0
6585,44.0,0.0,90.0,4.0,0.0
6586,56.0,7.0,90.0,5.0,0.0
6587,82.0,0.0,90.0,0.0,0.0
6588,70.0,0.0,90.0,11.0,0.0
6589,70.0,0.0,90.0,0.0,0.0
6590,70.0,15.0,90.0,1.0,0.0
6591,56.0,0.0,60.0,12.0,0.0
6592,60.0,38.0,60.0,12.0,0.0
6593,68.0,0.0,90.0,5.0,0.0
6594,56.0,0.0,90.0,4.0,0.0
6595,44.0,52.0,120.0,10.0,0.0
6596,51.0,0.0,60.0,13.0,0.0
6597,48.0,0.0,60.0,13.0,0.0
6598,55.0,0.0,90.0,3.0,0.0
6599,51.0,0.0,60.0,13.0,0.0
6600,56.0,8.0,60.0,12.0,0.0
6601,60.0,0.0,60.0,12.0,0.0
6602,48.0,0.0,60.0,13.0,0.0
6603,56.0,0.0,90.0,4.0,0.0
6604,72.0,0.0,90.0,11.0,0.0
6605,72.0,15.0,90.0,1.0,0.0
6606,51.0,38.0,60.0,13.0,0.0
6607,54.0,0.0,90.0,3.0,0.0
6608,48.0,0.0,60.0,13.0,0.0
6609,44.0,0.0,90.0,4.0,0.0
6610,72.0,0.0,90.0,0.0,0.0
6611,68.0,0.0,90.0,5.0,0.0
6612,44.0,52.0,120.0,10.0,0.0
6613,84.0,0.0,90.0,0.0,0.0
6614,60.0,0.0,60.0,12.0,0.0
6615,56.0,0.0,90.0,5.0,0.0
6616,56.0,0.0,60.0,12.0,0.0
6617,56.0,0.0,60.0,12.0,0.0
6618,60.0,0.0,60.0,12.0,0.0
6619,51.0,0.0,60.0,13.0,0.0
6620,48.0,8.0,60.0,13.0,0.0
6621,49.0,0.0,930.0,3.0,0.0
6622,44.0,0.0,210.0,4.0,0.0
6623,56.0,7.0,210.0,4.0,0.0
6624,44.0,52.0,240.0,10.0,0.0
6625,29.0,0.0,450.0,15.0,0.0
6626,73.0,0.0,90.0,1.0,0.0
6627,53.0,0.0,930.0,3.0,0.0
6628,85.0,0.0,90.0,0.0,0.0
6629,41.0,52.0,360.0,8.0,0.0
6630,61.0,0.0,60.0,12.0,0.0
6631,56.0,38.0,60.0,12.0,0.0
6632,41.0,7.0,450.0,14.0,0.0
6633,61.0,0.0,360.0,6.0,0.0
6634,29.0,0.0,450.0,3.0,0.0
6635,56.0,0.0,210.0,5.0,0.0
6636,73.0,0.0,90.0,11.0,0.0
6637,68.0,7.0,930.0,2.0,0.0
6638,73.0,0.0,450.0,2.0,0.0
6639,68.0,0.0,210.0,5.0,0.0
6640,53.0,0.0,60.0,13.0,0.0
6641,49.0,0.0,60.0,13.0,0.0
6642,73.0,22.0,90.0,0.0,0.0
6643,56.0,0.0,360.0,7.0,0.0
6644,49.0,0.0,60.0,13.0,0.0
6645,53.0,0.0,60.0,13.0,0.0
6646,56.0,0.0,60.0,12.0,0.0
6647,61.0,60.0,60.0,12.0,0.0
6648,56.0,0.0,60.0,12.0,0.0
6649,61.0,0.0,60.0,12.0,0.0
6650,72.0,15.0,90.0,11.0,0.0
6651,72.0,0.0,90.0,0.0,0.0
6652,84.0,0.0,90.0,0.0,0.0
6653,72.0,0.0,90.0,1.0,0.0
6654,53.0,0.0,60.0,13.0,0.0
6655,49.0,38.0,60.0,13.0,0.0
6656,61.0,8.0,60.0,12.0,0.0
6657,53.0,0.0,60.0,13.0,0.0
6658,49.0,0.0,60.0,13.0,0.0
6659,56.0,0.0,60.0,12.0,0.0
6660,49.0,0.0,60.0,13.0,0.0
6661,53.0,38.0,60.0,13.0,0.0
6662,44.0,0.0,120.0,10.0,0.0
6663,56.0,0.0,90.0,4.0,0.0
6664,44.0,0.0,90.0,4.0,0.0
6665,56.0,0.0,60.0,12.0,0.0
6666,56.0,0.0,90.0,5.0,0.0
6667,68.0,7.0,90.0,5.0,0.0
6668,85.0,0.0,90.0,0.0,0.0
6669,73.0,0.0,90.0,11.0,0.0
6670,73.0,0.0,90.0,1.0,0.0
6671,61.0,0.0,60.0,12.0,0.0
6672,73.0,15.0,90.0,0.0,0.0
6673,61.0,8.0,60.0,12.0,0.0
6674,56.0,0.0,60.0,12.0,0.0
6675,49.0,0.0,60.0,13.0,0.0
6676,53.0,0.0,60.0,13.0,0.0
6677,44.0,52.0,120.0,10.0,0.0
6678,56.0,0.0,90.0,4.0,0.0
6679,53.0,0.0,60.0,13.0,0.0
6680,44.0,0.0,90.0,4.0,0.0
6681,75.0,15.0,90.0,0.0,0.0
6682,75.0,0.0,90.0,1.0,0.0
6683,75.0,0.0,90.0,11.0,0.0
6684,68.0,0.0,90.0,5.0,0.0
6685,87.0,0.0,90.0,0.0,0.0
6686,56.0,38.0,60.0,12.0,0.0
6687,61.0,0.0,60.0,12.0,0.0
6688,49.0,0.0,60.0,13.0,0.0
6689,56.0,0.0,90.0,5.0,0.0
6690,53.0,0.0,60.0,13.0,0.0
6691,49.0,0.0,60.0,13.0,0.0
6692,56.0,0.0,60.0,12.0,0.0
6693,61.0,8.0,60.0,12.0,0.0
6694,25.0,0.0,450.0,3.0,0.0
6695,77.0,22.0,90.0,1.0,0.0
6696,56.0,0.0,360.0,7.0,0.0
6697,56.0,0.0,210.0,4.0,0.0
6698,77.0,0.0,450.0,2.0,0.0
6699,77.0,0.0,90.0,0.0,0.0
6700,77.0,0.0,90.0,11.0,0.0
6701,44.0,52.0,240.0,10.0,0.0
6702,44.0,7.0,210.0,4.0,0.0
6703,49.0,38.0,60.0,13.0,0.0
6704,25.0,0.0,450.0,15.0,0.0
6705,68.0,0.0,210.0,5.0,0.0
6706,37.0,0.0,360.0,8.0,0.0
6707,65.0,0.0,360.0,6.0,0.0
6708,61.0,0.0,60.0,12.0,0.0
6709,56.0,0.0,60.0,12.0,0.0
6710,56.0,0.0,210.0,5.0,0.0
6711,89.0,0.0,90.0,0.0,0.0
6712,37.0,0.0,450.0,14.0,0.0
6713,53.0,0.0,60.0,13.0,0.0
6714,49.0,0.0,60.0,13.0,0.0
6715,53.0,60.0,60.0,13.0,0.0
6716,61.0,0.0,60.0,12.0,0.0
6717,56.0,0.0,60.0,12.0,0.0
6718,75.0,0.0,90.0,11.0,0.0
6719,75.0,0.0,90.0,1.0,0.0
6720,61.0,38.0,60.0,12.0,0.0
6721,56.0,0.0,60.0,12.0,0.0
6722,49.0,0.0,60.0,13.0,0.0
6723,53.0,0.0,60.0,13.0,0.0
6724,87.0,0.0,90.0,0.0,0.0
6725,75.0,15.0,90.0,0.0,0.0
6726,53.0,0.0,60.0,13.0,0.0
6727,49.0,8.0,60.0,13.0,0.0
6728,61.0,0.0,60.0,12.0,0.0
6729,56.0,0.0,60.0,12.0,0.0
6730,77.0,0.0,90.0,0.0,0.0
6731,61.0,0.0,60.0,12.0,0.0
6732,53.0,0.0,60.0,13.0,0.0
6733,49.0,38.0,60.0,13.0,0.0
6734,56.0,0.0,60.0,12.0,0.0
6735,56.0,7.0,90.0,4.0,0.0
6736,44.0,0.0,90.0,4.0,0.0
6737,44.0,52.0,120.0,10.0,0.0
6738,77.0,0.0,90.0,1.0,0.0
6739,68.0,0.0,90.0,5.0,0.0
6740,56.0,0.0,90.0,5.0,0.0
6741,89.0,0.0,90.0,0.0,0.0
6742,77.0,15.0,90.0,11.0,0.0
6743,53.0,0.0,60.0,13.0,0.0
6744,49.0,8.0,60.0,13.0,0.0
6745,56.0,0.0,60.0,12.0,0.0
6746,61.0,0.0,60.0,12.0,0.0
6747,56.0,0.0,90.0,4.0,0.0
6748,61.0,38.0,60.0,12.0,0.0
6749,68.0,0.0,90.0,5.0,0.0
6750,79.0,0.0,90.0,11.0,0.0
6751,56.0,0.0,60.0,12.0,0.0
6752,44.0,0.0,90.0,4.0,0.0
6753,91.0,0.0,90.0,0.0,0.0
6754,56.0,0.0,90.0,5.0,0.0
6755,79.0,15.0,90.0,0.0,0.0
6756,79.0,0.0,90.0,1.0,0.0
6757,53.0,0.0,60.0,13.0,0.0
6758,44.0,52.0,120.0,10.0,0.0
6759,49.0,0.0,60.0,13.0,0.0
6760,49.0,0.0,60.0,13.0,0.0
6761,61.0,0.0,60.0,12.0,0.0
6762,56.0,8.0,60.0,12.0,0.0
6763,53.0,0.0,60.0,13.0,0.0
6764,36.0,7.0,90.0,14.0,0.0
6765,24.0,0.0,90.0,3.0,0.0
6766,51.0,0.0,930.0,3.0,0.0
6767,44.0,7.0,570.0,4.0,0.0
6768,51.0,0.0,60.0,13.0,0.0
6769,63.0,0.0,600.0,6.0,0.0
6770,48.0,52.0,480.0,8.0,0.0
6771,92.0,0.0,570.0,0.0,0.0
6772,44.0,45.0,60.0,10.0,0.0
6773,48.0,7.0,930.0,3.0,0.0
6774,48.0,0.0,60.0,13.0,0.0
6775,80.0,0.0,570.0,11.0,0.0
6776,56.0,0.0,570.0,4.0,0.0
6777,56.0,8.0,60.0,12.0,0.0
6778,63.0,0.0,60.0,12.0,0.0
6779,56.0,52.0,600.0,7.0,0.0
6780,80.0,0.0,570.0,0.0,0.0
6781,68.0,0.0,930.0,2.0,0.0
6782,24.0,0.0,90.0,15.0,0.0
6783,68.0,0.0,570.0,5.0,0.0
6784,56.0,0.0,570.0,5.0,0.0
6785,80.0,0.0,570.0,1.0,0.0
6786,75.0,0.0,690.0,2.0,0.0
6787,51.0,0.0,60.0,13.0,0.0
6788,63.0,0.0,60.0,12.0,0.0
6789,44.0,52.0,60.0,10.0,0.0
6790,56.0,8.0,60.0,12.0,0.0
6791,48.0,0.0,60.0,13.0,0.0
6792,25.0,7.0,90.0,15.0,0.0
6793,44.0,45.0,60.0,10.0,0.0
6794,25.0,0.0,90.0,3.0,0.0
6795,51.0,0.0,60.0,13.0,0.0
6796,37.0,0.0,90.0,14.0,0.0
6797,63.0,0.0,60.0,12.0,0.0
6798,56.0,8.0,60.0,12.0,0.0
6799,48.0,0.0,60.0,13.0,0.0
6800,56.0,0.0,60.0,12.0,0.0
6801,63.0,8.0,60.0,12.0,0.0
6802,48.0,0.0,60.0,13.0,0.0
6803,44.0,52.0,60.0,10.0,0.0
6804,51.0,0.0,60.0,13.0,0.0
6805,48.0,0.0,60.0,13.0,0.0
6806,24.0,0.0,90.0,3.0,0.0
6807,56.0,0.0,60.0,12.0,0.0
6808,63.0,8.0,60.0,12.0,0.0
6809,36.0,7.0,90.0,14.0,0.0
6810,24.0,0.0,90.0,15.0,0.0
6811,51.0,0.0,60.0,13.0,0.0
6812,44.0,45.0,60.0,10.0,0.0
6813,51.0,8.0,60.0,13.0,0.0
6814,63.0,0.0,60.0,12.0,0.0
6815,56.0,0.0,60.0,12.0,0.0
6816,44.0,52.0,60.0,10.0,0.0
6817,48.0,0.0,60.0,13.0,0.0
6818,56.0,0.0,60.0,12.0,0.0
6819,22.0,0.0,90.0,3.0,0.0
6820,22.0,0.0,90.0,15.0,0.0
6821,34.0,7.0,90.0,14.0,0.0
6822,44.0,45.0,60.0,10.0,0.0
6823,51.0,8.0,60.0,13.0,0.0
6824,48.0,0.0,60.0,13.0,0.0
6825,63.0,0.0,60.0,12.0,0.0
6826,63.0,0.0,60.0,12.0,0.0
6827,44.0,0.0,60.0,10.0,0.0
6828,48.0,0.0,60.0,13.0,0.0
6829,51.0,8.0,60.0,13.0,0.0
6830,56.0,0.0,60.0,12.0,0.0
6831,20.0,0.0,450.0,3.0,0.0
6832,48.0,0.0,60.0,13.0,0.0
6833,51.0,53.0,60.0,13.0,0.0
6834,44.0,0.0,120.0,8.0,0.0
6835,32.0,0.0,450.0,14.0,0.0
6836,56.0,0.0,60.0,12.0,0.0
6837,20.0,0.0,450.0,15.0,0.0
6838,60.0,0.0,60.0,12.0,0.0
6839,44.0,0.0,120.0,10.0,0.0
6840,51.0,0.0,60.0,13.0,0.0
6841,60.0,0.0,60.0,12.0,0.0
6842,56.0,0.0,60.0,12.0,0.0
6843,48.0,8.0,60.0,13.0,0.0
6844,51.0,0.0,60.0,13.0,0.0
6845,44.0,52.0,120.0,10.0,0.0
6846,48.0,38.0,60.0,13.0,0.0
6847,80.0,0.0,90.0,0.0,0.0
6848,68.0,7.0,90.0,5.0,0.0
6849,68.0,0.0,90.0,11.0,0.0
6850,68.0,0.0,90.0,0.0,0.0
6851,68.0,15.0,90.0,1.0,0.0
6852,56.0,0.0,60.0,12.0,0.0
6853,60.0,0.0,60.0,12.0,0.0
6854,44.0,0.0,90.0,4.0,0.0
6855,56.0,0.0,90.0,5.0,0.0
6856,56.0,0.0,90.0,4.0,0.0
6857,51.0,0.0,60.0,13.0,0.0
6858,56.0,0.0,60.0,12.0,0.0
6859,60.0,8.0,60.0,12.0,0.0
6860,48.0,0.0,60.0,13.0,0.0
6861,44.0,7.0,90.0,4.0,0.0
6862,56.0,0.0,90.0,4.0,0.0
6863,68.0,0.0,90.0,5.0,0.0
6864,44.0,52.0,120.0,10.0,0.0
6865,60.0,38.0,60.0,12.0,0.0
6866,56.0,0.0,60.0,12.0,0.0
6867,56.0,0.0,90.0,5.0,0.0
6868,72.0,0.0,210.0,2.0,0.0
6869,70.0,15.0,90.0,1.0,0.0
6870,70.0,0.0,90.0,0.0,0.0
6871,70.0,0.0,90.0,11.0,0.0
6872,48.0,0.0,60.0,13.0,0.0
6873,51.0,0.0,60.0,13.0,0.0
6874,82.0,0.0,90.0,0.0,0.0
6875,48.0,0.0,60.0,13.0,0.0
6876,51.0,0.0,60.0,13.0,0.0
6877,56.0,0.0,60.0,12.0,0.0
6878,60.0,8.0,60.0,12.0,0.0
6879,44.0,0.0,90.0,4.0,0.0
6880,51.0,38.0,60.0,13.0,0.0
6881,72.0,15.0,90.0,1.0,0.0
6882,72.0,0.0,90.0,11.0,0.0
6883,48.0,0.0,60.0,13.0,0.0
6884,72.0,0.0,90.0,0.0,0.0
6885,44.0,52.0,120.0,10.0,0.0
6886,84.0,0.0,90.0,0.0,0.0
6887,60.0,0.0,60.0,12.0,0.0
6888,56.0,0.0,60.0,12.0,0.0
6889,56.0,0.0,90.0,5.0,0.0
6890,68.0,0.0,90.0,5.0,0.0
6891,56.0,0.0,90.0,4.0,0.0
6892,51.0,0.0,60.0,13.0,0.0
6893,48.0,0.0,60.0,13.0,0.0
6894,60.0,8.0,60.0,12.0,0.0
6895,56.0,0.0,60.0,12.0,0.0
6896,56.0,0.0,60.0,12.0,0.0
6897,41.0,7.0,450.0,8.0,0.0
6898,73.0,0.0,90.0,11.0,0.0
6899,61.0,0.0,60.0,12.0,0.0
6900,73.0,22.0,90.0,1.0,0.0
6901,53.0,38.0,60.0,13.0,0.0
6902,49.0,0.0,60.0,13.0,0.0
6903,29.0,0.0,450.0,3.0,0.0
6904,29.0,0.0,450.0,15.0,0.0
6905,44.0,7.0,210.0,4.0,0.0
6906,49.0,0.0,930.0,3.0,0.0
6907,53.0,0.0,930.0,3.0,0.0
6908,85.0,0.0,90.0,0.0,0.0
6909,56.0,0.0,210.0,4.0,0.0
6910,56.0,0.0,450.0,7.0,0.0
6911,44.0,52.0,240.0,10.0,0.0
6912,73.0,0.0,450.0,2.0,0.0
6913,68.0,0.0,930.0,2.0,0.0
6914,41.0,0.0,450.0,14.0,0.0
6915,61.0,0.0,450.0,6.0,0.0
6916,56.0,0.0,210.0,5.0,0.0
6917,68.0,0.0,210.0,5.0,0.0
6918,73.0,0.0,90.0,0.0,0.0
6919,56.0,60.0,60.0,12.0,0.0
6920,61.0,0.0,60.0,12.0,0.0
6921,49.0,0.0,60.0,13.0,0.0
6922,53.0,0.0,60.0,13.0,0.0
6923,61.0,0.0,60.0,12.0,0.0
6924,56.0,38.0,60.0,12.0,0.0
6925,49.0,0.0,60.0,13.0,0.0
6926,72.0,15.0,90.0,11.0,0.0
6927,53.0,0.0,60.0,13.0,0.0
6928,84.0,0.0,90.0,0.0,0.0
6929,72.0,0.0,90.0,1.0,0.0
6930,72.0,0.0,90.0,0.0,0.0
6931,61.0,0.0,60.0,12.0,0.0
6932,56.0,0.0,60.0,12.0,0.0
6933,53.0,0.0,60.0,13.0,0.0
6934,49.0,8.0,60.0,13.0,0.0
6935,61.0,0.0,60.0,12.0,0.0
6936,56.0,38.0,60.0,12.0,0.0
6937,85.0,0.0,90.0,0.0,0.0
6938,44.0,52.0,120.0,10.0,0.0
6939,73.0,0.0,90.0,11.0,0.0
6940,73.0,15.0,90.0,1.0,0.0
6941,49.0,0.0,60.0,13.0,0.0
6942,53.0,0.0,60.0,13.0,0.0
6943,68.0,0.0,90.0,5.0,0.0
6944,56.0,0.0,90.0,5.0,0.0
6945,44.0,0.0,90.0,4.0,0.0
6946,56.0,7.0,90.0,4.0,0.0
6947,73.0,0.0,90.0,0.0,0.0
6948,61.0,8.0,60.0,12.0,0.0
6949,56.0,0.0,60.0,12.0,0.0
6950,49.0,0.0,60.0,13.0,0.0
6951,53.0,0.0,60.0,13.0,0.0
6952,44.0,52.0,120.0,10.0,0.0
6953,56.0,0.0,90.0,5.0,0.0
6954,68.0,0.0,90.0,5.0,0.0
6955,75.0,0.0,90.0,11.0,0.0
6956,49.0,0.0,60.0,13.0,0.0
6957,53.0,38.0,60.0,13.0,0.0
6958,75.0,15.0,90.0,0.0,0.0
6959,44.0,0.0,90.0,4.0,0.0
6960,56.0,0.0,90.0,4.0,0.0
6961,75.0,0.0,90.0,1.0,0.0
6962,87.0,0.0,90.0,0.0,0.0
6963,56.0,0.0,60.0,12.0,0.0
6964,61.0,0.0,60.0,12.0,0.0
6965,61.0,0.0,60.0,12.0,0.0
6966,49.0,0.0,60.0,13.0,0.0
6967,53.0,8.0,60.0,13.0,0.0
6968,56.0,0.0,60.0,12.0,0.0
6969,37.0,7.0,450.0,8.0,0.0
6970,68.0,0.0,210.0,5.0,0.0
6971,56.0,0.0,210.0,5.0,0.0
6972,44.0,52.0,240.0,10.0,0.0
6973,65.0,0.0,450.0,6.0,0.0
6974,89.0,0.0,90.0,0.0,0.0
6975,49.0,0.0,60.0,13.0,0.0
6976,56.0,0.0,210.0,4.0,0.0
6977,44.0,7.0,210.0,4.0,0.0
6978,53.0,38.0,60.0,13.0,0.0
6979,61.0,0.0,60.0,12.0,0.0
6980,25.0,0.0,450.0,15.0,0.0
6981,56.0,0.0,450.0,7.0,0.0
6982,25.0,0.0,450.0,3.0,0.0
6983,37.0,0.0,450.0,14.0,0.0
6984,77.0,0.0,450.0,2.0,0.0
6985,77.0,0.0,90.0,11.0,0.0
6986,77.0,0.0,90.0,0.0,0.0
6987,56.0,0.0,60.0,12.0,0.0
6988,77.0,22.0,90.0,1.0,0.0
6989,53.0,0.0,60.0,13.0,0.0
6990,49.0,0.0,60.0,13.0,0.0
6991,56.0,0.0,60.0,12.0,0.0
6992,61.0,60.0,60.0,12.0,0.0
6993,87.0,0.0,90.0,0.0,0.0
6994,49.0,0.0,60.0,13.0,0.0
6995,75.0,15.0,90.0,0.0,0.0
6996,75.0,0.0,90.0,1.0,0.0
6997,61.0,0.0,60.0,12.0,0.0
6998,56.0,0.0,60.0,12.0,0.0
6999,53.0,38.0,60.0,13.0,0.0
7000,75.0,0.0,90.0,11.0,0.0
7001,56.0,0.0,60.0,12.0,0.0
7002,53.0,0.0,60.0,13.0,0.0
7003,61.0,0.0,60.0,12.0,0.0
7004,49.0,8.0,60.0,13.0,0.0
7005,44.0,52.0,120.0,10.0,0.0
7006,77.0,15.0,90.0,11.0,0.0
7007,77.0,0.0,90.0,0.0,0.0
7008,56.0,0.0,90.0,5.0,0.0
7009,89.0,0.0,90.0,0.0,0.0
7010,77.0,0.0,90.0,1.0,0.0
7011,53.0,0.0,60.0,13.0,0.0
7012,56.0,38.0,60.0,12.0,0.0
7013,61.0,0.0,60.0,12.0,0.0
7014,44.0,0.0,90.0,4.0,0.0
7015,56.0,7.0,90.0,4.0,0.0
7016,49.0,0.0,60.0,13.0,0.0
7017,68.0,0.0,90.0,5.0,0.0
7018,61.0,8.0,60.0,12.0,0.0
7019,56.0,0.0,60.0,12.0,0.0
7020,53.0,0.0,60.0,13.0,0.0
7021,49.0,0.0,60.0,13.0,0.0
7022,44.0,52.0,120.0,10.0,0.0
7023,44.0,0.0,90.0,4.0,0.0
7024,79.0,0.0,90.0,0.0,0.0
7025,79.0,0.0,90.0,11.0,0.0
7026,56.0,0.0,60.0,12.0,0.0
7027,79.0,0.0,90.0,1.0,0.0
7028,49.0,38.0,60.0,13.0,0.0
7029,56.0,0.0,90.0,4.0,0.0
7030,91.0,15.0,90.0,0.0,0.0
7031,68.0,0.0,90.0,5.0,0.0
7032,56.0,0.0,90.0,5.0,0.0
7033,61.0,0.0,60.0,12.0,0.0
7034,53.0,0.0,60.0,13.0,0.0
7035,53.0,8.0,60.0,13.0,0.0
7036,49.0,0.0,60.0,13.0,0.0
7037,56.0,0.0,60.0,12.0,0.0
7038,61.0,0.0,60.0,12.0,0.0
7039,63.0,0.0,60.0,12.0,0.0
7040,44.0,0.0,570.0,4.0,0.0
7041,56.0,0.0,570.0,5.0,0.0
7042,48.0,0.0,360.0,8.0,0.0
7043,36.0,0.0,90.0,14.0,0.0
7044,44.0,45.0,60.0,10.0,0.0
7045,92.0,0.0,570.0,0.0,0.0
7046,24.0,0.0,90.0,15.0,0.0
7047,68.0,0.0,570.0,5.0,0.0
7048,56.0,0.0,60.0,12.0,0.0
7049,48.0,0.0,930.0,3.0,0.0
7050,56.0,7.0,570.0,4.0,0.0
7051,63.0,52.0,600.0,6.0,0.0
7052,48.0,0.0,60.0,13.0,0.0
7053,51.0,8.0,60.0,13.0,0.0
7054,80.0,0.0,570.0,11.0,0.0
7055,51.0,0.0,930.0,3.0,0.0
7056,80.0,0.0,570.0,1.0,0.0
7057,80.0,0.0,570.0,0.0,0.0
7058,75.0,0.0,690.0,2.0,0.0
7059,68.0,0.0,930.0,2.0,0.0
7060,56.0,0.0,600.0,7.0,0.0
7061,24.0,7.0,90.0,3.0,0.0
7062,51.0,0.0,60.0,13.0,0.0
7063,48.0,0.0,60.0,13.0,0.0
7064,56.0,8.0,60.0,12.0,0.0
7065,44.0,52.0,60.0,10.0,0.0
7066,63.0,0.0,60.0,12.0,0.0
7067,51.0,0.0,60.0,13.0,0.0
7068,37.0,0.0,90.0,14.0,0.0
7069,25.0,7.0,90.0,3.0,0.0
7070,56.0,8.0,60.0,12.0,0.0
7071,63.0,0.0,60.0,12.0,0.0
7072,25.0,0.0,90.0,15.0,0.0
7073,48.0,0.0,60.0,13.0,0.0
7074,44.0,45.0,60.0,10.0,0.0
7075,44.0,52.0,60.0,10.0,0.0
7076,48.0,8.0,60.0,13.0,0.0
7077,51.0,0.0,60.0,13.0,0.0
7078,56.0,0.0,60.0,12.0,0.0
7079,63.0,0.0,60.0,12.0,0.0
7080,56.0,0.0,60.0,12.0,0.0
7081,24.0,7.0,90.0,3.0,0.0
7082,24.0,0.0,90.0,15.0,0.0
7083,63.0,0.0,60.0,12.0,0.0
7084,51.0,0.0,60.0,13.0,0.0
7085,36.0,0.0,90.0,14.0,0.0
7086,48.0,8.0,60.0,13.0,0.0
7087,44.0,45.0,60.0,10.0,0.0
7088,48.0,0.0,60.0,13.0,0.0
7089,63.0,0.0,60.0,12.0,0.0
7090,56.0,8.0,60.0,12.0,0.0
7091,44.0,52.0,60.0,10.0,0.0
7092,51.0,0.0,60.0,13.0,0.0
7093,22.0,7.0,90.0,15.0,0.0
7094,44.0,45.0,60.0,10.0,0.0
7095,48.0,8.0,60.0,13.0,0.0
7096,56.0,0.0,60.0,12.0,0.0
7097,63.0,0.0,60.0,12.0,0.0
7098,51.0,0.0,60.0,13.0,0.0
7099,22.0,0.0,90.0,3.0,0.0
7100,34.0,0.0,90.0,14.0,0.0
7101,44.0,52.0,60.0,10.0,0.0
7102,63.0,8.0,60.0,12.0,0.0
7103,56.0,0.0,60.0,12.0,0.0
7104,48.0,0.0,60.0,13.0,0.0
7105,51.0,0.0,60.0,13.0,0.0
7106,44.0,0.0,120.0,10.0,0.0
7107,48.0,0.0,60.0,13.0,0.0
7108,51.0,0.0,60.0,13.0,0.0
7109,60.0,0.0,60.0,12.0,0.0
7110,56.0,53.0,60.0,12.0,0.0
7111,32.0,0.0,450.0,14.0,0.0
7112,20.0,0.0,450.0,3.0,0.0
7113,20.0,0.0,450.0,15.0,0.0
7114,56.0,0.0,60.0,12.0,0.0
7115,60.0,0.0,60.0,12.0,0.0
7116,48.0,8.0,60.0,13.0,0.0
7117,51.0,0.0,60.0,13.0,0.0
7118,56.0,0.0,60.0,12.0,0.0
7119,68.0,15.0,90.0,11.0,0.0
7120,80.0,0.0,90.0,0.0,0.0
7121,48.0,38.0,60.0,13.0,0.0
7122,51.0,0.0,60.0,13.0,0.0
7123,44.0,52.0,120.0,10.0,0.0
7124,56.0,0.0,90.0,5.0,0.0
7125,60.0,0.0,60.0,12.0,0.0
7126,68.0,0.0,90.0,1.0,0.0
7127,68.0,0.0,90.0,5.0,0.0
7128,44.0,7.0,90.0,4.0,0.0
7129,56.0,0.0,90.0,4.0,0.0
7130,68.0,0.0,90.0,0.0,0.0
7131,60.0,0.0,60.0,12.0,0.0
7132,56.0,0.0,60.0,12.0,0.0
7133,48.0,0.0,60.0,13.0,0.0
7134,51.0,8.0,60.0,13.0,0.0
7135,51.0,38.0,60.0,13.0,0.0
7136,48.0,0.0,60.0,13.0,0.0
7137,56.0,0.0,90.0,5.0,0.0
7138,56.0,0.0,90.0,4.0,0.0
7139,44.0,7.0,90.0,4.0,0.0
7140,70.0,15.0,90.0,0.0,0.0
7141,70.0,0.0,90.0,1.0,0.0
7142,60.0,0.0,60.0,12.0,0.0
7143,56.0,0.0,60.0,12.0,0.0
7144,68.0,0.0,90.0,5.0,0.0
7145,70.0,0.0,90.0,11.0,0.0
7146,44.0,52.0,120.0,10.0,0.0
7147,72.0,0.0,210.0,2.0,0.0
7148,82.0,0.0,90.0,0.0,0.0
7149,56.0,0.0,60.0,12.0,0.0
7150,60.0,8.0,60.0,12.0,0.0
7151,51.0,0.0,60.0,13.0,0.0
7152,48.0,0.0,60.0,13.0,0.0
7153,84.0,0.0,60.0,0.0,0.0
7154,72.0,37.0,60.0,1.0,0.0
7155,68.0,0.0,90.0,5.0,0.0
7156,72.0,0.0,60.0,11.0,0.0
7157,60.0,0.0,60.0,12.0,0.0
7158,56.0,0.0,60.0,12.0,0.0
7159,48.0,16.0,60.0,13.0,0.0
7160,44.0,0.0,90.0,4.0,0.0
7161,56.0,7.0,90.0,4.0,0.0
7162,72.0,0.0,60.0,0.0,0.0
7163,56.0,0.0,90.0,5.0,0.0
7164,51.0,0.0,60.0,13.0,0.0
7165,44.0,0.0,120.0,10.0,0.0
7166,56.0,0.0,60.0,12.0,0.0
7167,60.0,8.0,60.0,12.0,0.0
7168,48.0,0.0,60.0,13.0,0.0
7169,51.0,0.0,60.0,13.0,0.0
7170,87.0,0.0,40.0,0.0,0.0
7171,75.0,0.0,40.0,0.0,0.0
7172,75.0,52.0,40.0,11.0,0.0
7173,75.0,0.0,40.0,1.0,0.0
7174,29.0,7.0,450.0,3.0,0.0
7175,61.0,38.0,60.0,12.0,0.0
7176,85.0,0.0,90.0,0.0,0.0
7177,53.0,0.0,60.0,13.0,0.0
7178,73.0,0.0,450.0,2.0,0.0
7179,73.0,0.0,90.0,0.0,0.0
7180,56.0,0.0,60.0,12.0,0.0
7181,73.0,0.0,90.0,1.0,0.0
7182,53.0,0.0,930.0,3.0,0.0
7183,49.0,0.0,60.0,13.0,0.0
7184,61.0,52.0,360.0,6.0,0.0
7185,68.0,0.0,930.0,2.0,0.0
7186,73.0,22.0,90.0,11.0,0.0
7187,44.0,52.0,240.0,10.0,0.0
7188,44.0,0.0,210.0,4.0,0.0
7189,56.0,7.0,210.0,4.0,0.0
7190,49.0,0.0,930.0,3.0,0.0
7191,56.0,0.0,360.0,7.0,0.0
7192,29.0,0.0,450.0,15.0,0.0
7193,56.0,0.0,210.0,5.0,0.0
7194,41.0,0.0,450.0,14.0,0.0
7195,41.0,0.0,360.0,8.0,0.0
7196,68.0,0.0,210.0,5.0,0.0
7197,56.0,0.0,60.0,12.0,0.0
7198,61.0,0.0,60.0,12.0,0.0
7199,49.0,60.0,60.0,13.0,0.0
7200,53.0,0.0,60.0,13.0,0.0
7201,84.0,0.0,90.0,0.0,0.0
7202,53.0,0.0,60.0,13.0,0.0
7203,72.0,0.0,90.0,0.0,0.0
7204,72.0,0.0,90.0,11.0,0.0
7205,49.0,0.0,60.0,13.0,0.0
7206,72.0,15.0,90.0,1.0,0.0
7207,61.0,0.0,60.0,12.0,0.0
7208,56.0,38.0,60.0,12.0,0.0
7209,49.0,0.0,60.0,13.0,0.0
7210,53.0,0.0,60.0,13.0,0.0
7211,61.0,0.0,60.0,12.0,0.0
7212,56.0,8.0,60.0,12.0,0.0
7213,73.0,0.0,90.0,11.0,0.0
7214,44.0,0.0,90.0,4.0,0.0
7215,56.0,0.0,90.0,4.0,0.0
7216,73.0,15.0,90.0,1.0,0.0
7217,61.0,0.0,60.0,12.0,0.0
7218,56.0,0.0,60.0,12.0,0.0
7219,44.0,0.0,120.0,10.0,0.0
7220,68.0,7.0,90.0,5.0,0.0
7221,56.0,0.0,90.0,5.0,0.0
7222,53.0,0.0,60.0,13.0,0.0
7223,49.0,38.0,60.0,13.0,0.0
7224,73.0,0.0,90.0,0.0,0.0
7225,85.0,0.0,90.0,0.0,0.0
7226,61.0,0.0,60.0,12.0,0.0
7227,56.0,0.0,60.0,12.0,0.0
7228,49.0,0.0,60.0,13.0,0.0
7229,53.0,8.0,60.0,13.0,0.0
7230,75.0,0.0,60.0,1.0,0.0
7231,87.0,37.0,60.0,0.0,0.0
7232,56.0,0.0,90.0,5.0,0.0
7233,68.0,0.0,90.0,5.0,0.0
7234,75.0,0.0,60.0,0.0,0.0
7235,53.0,0.0,60.0,13.0,0.0
7236,44.0,0.0,90.0,4.0,0.0
7237,56.0,0.0,90.0,4.0,0.0
7238,49.0,0.0,60.0,13.0,0.0
7239,61.0,16.0,60.0,12.0,0.0
7240,56.0,0.0,60.0,12.0,0.0
7241,75.0,0.0,60.0,11.0,0.0
7242,44.0,0.0,120.0,10.0,0.0
7243,53.0,0.0,60.0,13.0,0.0
7244,49.0,8.0,60.0,13.0,0.0
7245,56.0,0.0,60.0,12.0,0.0
7246,61.0,0.0,60.0,12.0,0.0
7247,79.0,52.0,40.0,0.0,0.0
7248,79.0,0.0,40.0,1.0,0.0
7249,79.0,0.0,40.0,11.0,0.0
7250,91.0,0.0,40.0,0.0,0.0
7251,37.0,0.0,450.0,14.0,0.0
7252,77.0,0.0,90.0,0.0,0.0
7253,44.0,0.0,210.0,4.0,0.0
7254,53.0,0.0,60.0,13.0,0.0
7255,49.0,0.0,60.0,13.0,0.0
7256,56.0,7.0,210.0,4.0,0.0
7257,25.0,0.0,450.0,15.0,0.0
7258,77.0,22.0,90.0,1.0,0.0
7259,25.0,0.0,450.0,3.0,0.0
7260,44.0,52.0,240.0,10.0,0.0
7261,89.0,0.0,90.0,0.0,0.0
7262,56.0,0.0,60.0,12.0,0.0
7263,68.0,0.0,210.0,5.0,0.0
7264,77.0,0.0,450.0,2.0,0.0
7265,56.0,0.0,360.0,7.0,0.0
7266,65.0,0.0,360.0,6.0,0.0
7267,61.0,38.0,60.0,12.0,0.0
7268,77.0,0.0,90.0,11.0,0.0
7269,56.0,0.0,210.0,5.0,0.0
7270,37.0,52.0,360.0,8.0,0.0
7271,49.0,0.0,60.0,13.0,0.0
7272,53.0,60.0,60.0,13.0,0.0
7273,56.0,0.0,60.0,12.0,0.0
7274,61.0,0.0,60.0,12.0,0.0
7275,61.0,0.0,60.0,12.0,0.0
7276,49.0,0.0,60.0,13.0,0.0
7277,75.0,0.0,90.0,1.0,0.0
7278,75.0,0.0,90.0,0.0,0.0
7279,75.0,0.0,90.0,11.0,0.0
7280,87.0,15.0,90.0,0.0,0.0
7281,53.0,38.0,60.0,13.0,0.0
7282,56.0,0.0,60.0,12.0,0.0
7283,56.0,0.0,60.0,12.0,0.0
7284,61.0,0.0,60.0,12.0,0.0
7285,49.0,8.0,60.0,13.0,0.0
7286,53.0,0.0,60.0,13.0,0.0
7287,44.0,0.0,120.0,10.0,0.0
7288,56.0,0.0,90.0,4.0,0.0
7289,77.0,0.0,90.0,0.0,0.0
7290,53.0,0.0,60.0,13.0,0.0
7291,61.0,38.0,60.0,12.0,0.0
7292,56.0,0.0,60.0,12.0,0.0
7293,77.0,15.0,90.0,11.0,0.0
7294,68.0,0.0,90.0,5.0,0.0
7295,56.0,0.0,90.0,5.0,0.0
7296,89.0,0.0,90.0,0.0,0.0
7297,44.0,7.0,90.0,4.0,0.0
7298,77.0,0.0,90.0,1.0,0.0
7299,49.0,0.0,60.0,13.0,0.0
7300,49.0,0.0,60.0,13.0,0.0
7301,53.0,0.0,60.0,13.0,0.0
7302,61.0,0.0,60.0,12.0,0.0
7303,56.0,8.0,60.0,12.0,0.0
7304,61.0,0.0,60.0,12.0,0.0
7305,79.0,22.0,60.0,11.0,0.0
7306,53.0,0.0,60.0,13.0,0.0
7307,49.0,16.0,60.0,13.0,0.0
7308,44.0,0.0,120.0,10.0,0.0
7309,68.0,0.0,90.0,5.0,0.0
7310,56.0,7.0,90.0,5.0,0.0
7311,56.0,0.0,60.0,12.0,0.0
7312,79.0,0.0,60.0,0.0,0.0
7313,56.0,0.0,90.0,4.0,0.0
7314,91.0,0.0,60.0,0.0,0.0
7315,44.0,0.0,90.0,4.0,0.0
7316,79.0,15.0,90.0,1.0,0.0
7317,53.0,8.0,60.0,13.0,0.0
7318,49.0,0.0,60.0,13.0,0.0
7319,61.0,0.0,60.0,12.0,0.0
7320,56.0,0.0,60.0,12.0,0.0
7321,94.0,0.0,40.0,0.0,0.0
7322,82.0,0.0,40.0,11.0,0.0
7323,82.0,52.0,40.0,0.0,0.0
7324,56.0,0.0,690.0,5.0,0.0
7325,51.0,0.0,60.0,13.0,0.0
7326,75.0,0.0,690.0,2.0,0.0
7327,63.0,0.0,690.0,6.0,0.0
7328,24.0,0.0,90.0,3.0,0.0
7329,44.0,30.0,60.0,10.0,0.0
7330,24.0,0.0,90.0,15.0,0.0
7331,92.0,0.0,90.0,0.0,0.0
7332,48.0,0.0,450.0,8.0,0.0
7333,80.0,15.0,90.0,11.0,0.0
7334,68.0,0.0,690.0,2.0,0.0
7335,68.0,0.0,690.0,5.0,0.0
7336,48.0,8.0,60.0,13.0,0.0
7337,48.0,0.0,690.0,3.0,0.0
7338,56.0,0.0,690.0,4.0,0.0
7339,51.0,0.0,690.0,3.0,0.0
7340,56.0,7.0,690.0,7.0,0.0
7341,36.0,7.0,90.0,14.0,0.0
7342,75.0,0.0,90.0,1.0,0.0
7343,68.0,0.0,90.0,1.0,0.0
7344,80.0,0.0,90.0,0.0,0.0
7345,44.0,0.0,690.0,4.0,0.0
7346,56.0,0.0,60.0,12.0,0.0
7347,63.0,0.0,60.0,12.0,0.0
7348,44.0,52.0,60.0,10.0,0.0
7349,63.0,0.0,60.0,12.0,0.0
7350,56.0,8.0,60.0,12.0,0.0
7351,48.0,0.0,60.0,13.0,0.0
7352,51.0,0.0,60.0,13.0,0.0
7353,51.0,0.0,60.0,13.0,0.0
7354,63.0,0.0,60.0,12.0,0.0
7355,44.0,30.0,60.0,10.0,0.0
7356,91.0,0.0,90.0,0.0,0.0
7357,67.0,0.0,90.0,1.0,0.0
7358,48.0,8.0,60.0,13.0,0.0
7359,25.0,7.0,90.0,3.0,0.0
7360,56.0,0.0,60.0,12.0,0.0
7361,37.0,0.0,90.0,14.0,0.0
7362,79.0,15.0,90.0,0.0,0.0
7363,25.0,0.0,90.0,15.0,0.0
7364,79.0,0.0,90.0,11.0,0.0
7365,56.0,0.0,60.0,12.0,0.0
7366,48.0,0.0,60.0,13.0,0.0
7367,51.0,8.0,60.0,13.0,0.0
7368,63.0,0.0,60.0,12.0,0.0
7369,44.0,52.0,60.0,10.0,0.0
7370,48.0,0.0,60.0,13.0,0.0
7371,51.0,8.0,60.0,13.0,0.0
7372,56.0,0.0,60.0,12.0,0.0
7373,63.0,0.0,60.0,12.0,0.0
7374,80.0,15.0,90.0,0.0,0.0
7375,24.0,0.0,90.0,3.0,0.0
7376,24.0,0.0,90.0,15.0,0.0
7377,92.0,0.0,90.0,0.0,0.0
7378,80.0,0.0,90.0,11.0,0.0
7379,68.0,0.0,90.0,1.0,0.0
7380,36.0,7.0,90.0,14.0,0.0
7381,44.0,30.0,60.0,10.0,0.0
7382,44.0,52.0,60.0,10.0,0.0
7383,51.0,8.0,60.0,13.0,0.0
7384,63.0,0.0,60.0,12.0,0.0
7385,56.0,0.0,60.0,12.0,0.0
7386,48.0,0.0,60.0,13.0,0.0
7387,70.0,0.0,90.0,1.0,0.0
7388,56.0,0.0,60.0,12.0,0.0
7389,22.0,0.0,90.0,15.0,0.0
7390,82.0,0.0,90.0,11.0,0.0
7391,22.0,7.0,90.0,3.0,0.0
7392,82.0,15.0,90.0,0.0,0.0
7393,34.0,0.0,90.0,14.0,0.0
7394,44.0,30.0,60.0,10.0,0.0
7395,63.0,0.0,60.0,12.0,0.0
7396,48.0,8.0,60.0,13.0,0.0
7397,51.0,0.0,60.0,13.0,0.0
7398,94.0,0.0,90.0,0.0,0.0
7399,44.0,52.0,60.0,10.0,0.0
7400,56.0,0.0,60.0,12.0,0.0
7401,51.0,8.0,60.0,13.0,0.0
7402,63.0,0.0,60.0,12.0,0.0
7403,48.0,0.0,60.0,13.0,0.0
7404,56.0,60.0,60.0,12.0,0.0
7405,60.0,0.0,60.0,12.0,0.0
7406,44.0,0.0,210.0,8.0,0.0
7407,84.0,0.0,210.0,0.0,0.0
7408,84.0,0.0,210.0,11.0,0.0
7409,44.0,52.0,240.0,10.0,0.0
7410,20.0,0.0,210.0,15.0,0.0
7411,32.0,0.0,210.0,14.0,0.0
7412,20.0,0.0,210.0,3.0,0.0
7413,72.0,0.0,210.0,1.0,0.0
7414,51.0,0.0,60.0,13.0,0.0
7415,48.0,0.0,60.0,13.0,0.0
7416,96.0,0.0,210.0,0.0,0.0
7417,56.0,0.0,60.0,12.0,0.0
7418,60.0,0.0,60.0,12.0,0.0
7419,51.0,60.0,60.0,13.0,0.0
7420,48.0,0.0,60.0,13.0,0.0
7421,56.0,0.0,60.0,12.0,0.0
7422,60.0,0.0,60.0,12.0,0.0
7423,51.0,53.0,60.0,13.0,0.0
7424,48.0,0.0,60.0,13.0,0.0
7425,48.0,8.0,60.0,13.0,0.0
7426,51.0,0.0,60.0,13.0,0.0
7427,56.0,0.0,60.0,12.0,0.0
7428,60.0,0.0,60.0,12.0,0.0
7429,32.0,0.0,180.0,3.0,0.0
7430,48.0,0.0,210.0,3.0,0.0
7431,60.0,0.0,60.0,12.0,0.0
7432,56.0,0.0,60.0,12.0,0.0
7433,51.0,60.0,60.0,13.0,0.0
7434,75.0,0.0,120.0,11.0,0.0
7435,51.0,7.0,210.0,3.0,0.0
7436,32.0,0.0,180.0,15.0,0.0
7437,44.0,0.0,180.0,4.0,0.0
7438,44.0,0.0,180.0,14.0,0.0
7439,72.0,0.0,120.0,1.0,0.0
7440,75.0,0.0,120.0,1.0,0.0
7441,44.0,45.0,180.0,10.0,0.0
7442,44.0,0.0,210.0,8.0,0.0
7443,87.0,0.0,120.0,0.0,0.0
7444,63.0,0.0,210.0,2.0,0.0
7445,72.0,0.0,210.0,2.0,0.0
7446,60.0,0.0,180.0,4.0,0.0
7447,60.0,0.0,210.0,6.0,0.0
7448,48.0,0.0,60.0,13.0,0.0
7449,56.0,8.0,180.0,5.0,0.0
7450,75.0,52.0,120.0,0.0,0.0
7451,56.0,0.0,210.0,7.0,0.0
7452,72.0,0.0,180.0,5.0,0.0
7453,51.0,0.0,60.0,13.0,0.0
7454,60.0,0.0,60.0,12.0,0.0
7455,56.0,8.0,60.0,12.0,0.0
7456,48.0,0.0,60.0,13.0,0.0
7457,48.0,0.0,60.0,13.0,0.0
7458,56.0,0.0,60.0,12.0,0.0
7459,60.0,0.0,60.0,12.0,0.0
7460,51.0,0.0,60.0,13.0,0.0
7461,48.0,0.0,60.0,13.0,0.0
7462,32.0,0.0,60.0,3.0,0.0
7463,56.0,8.0,60.0,12.0,0.0
7464,51.0,0.0,60.0,13.0,0.0
7465,60.0,0.0,60.0,12.0,0.0
7466,75.0,0.0,60.0,1.0,0.0
7467,44.0,0.0,60.0,14.0,0.0
7468,44.0,120.0,60.0,10.0,0.0
7469,72.0,0.0,60.0,1.0,0.0
7470,72.0,0.0,60.0,5.0,0.0
7471,56.0,0.0,60.0,5.0,0.0
7472,60.0,0.0,60.0,4.0,0.0
7473,44.0,0.0,60.0,4.0,0.0
7474,32.0,0.0,60.0,15.0,0.0
7475,84.0,0.0,60.0,11.0,0.0
7476,84.0,0.0,60.0,0.0,0.0
7477,96.0,0.0,60.0,0.0,0.0
7478,58.0,0.0,210.0,13.0,0.0
7479,61.0,0.0,240.0,6.0,0.0
7480,84.0,0.0,120.0,11.0,0.0
7481,58.0,0.0,240.0,7.0,0.0
7482,70.0,0.0,450.0,2.0,0.0
7483,61.0,0.0,450.0,2.0,0.0
7484,84.0,0.0,120.0,0.0,0.0
7485,46.0,0.0,450.0,3.0,0.0
7486,31.0,0.0,450.0,3.0,0.0
7487,31.0,7.0,450.0,15.0,0.0
7488,51.0,0.0,210.0,12.0,0.0
7489,61.0,0.0,210.0,12.0,0.0
7490,75.0,0.0,120.0,1.0,0.0
7491,72.0,105.0,120.0,1.0,0.0
7492,43.0,0.0,450.0,14.0,0.0
7493,49.0,0.0,450.0,3.0,0.0
7494,70.0,0.0,210.0,5.0,0.0
7495,51.0,0.0,210.0,5.0,0.0
7496,58.0,0.0,210.0,4.0,0.0
7497,96.0,0.0,120.0,0.0,0.0
7498,39.0,120.0,240.0,10.0,0.0
7499,43.0,0.0,450.0,8.0,0.0
7500,39.0,0.0,210.0,4.0,0.0
7501,82.0,15.0,90.0,11.0,0.0
7502,70.0,0.0,90.0,1.0,0.0
7503,94.0,0.0,90.0,0.0,0.0
7504,73.0,0.0,90.0,1.0,0.0
7505,82.0,0.0,90.0,0.0,0.0
7506,85.0,0.0,120.0,0.0,0.0
7507,70.0,0.0,120.0,1.0,0.0
7508,73.0,52.0,120.0,1.0,0.0
7509,58.0,0.0,180.0,13.0,0.0
7510,39.0,0.0,180.0,4.0,0.0
7511,73.0,0.0,120.0,0.0,0.0
7512,70.0,0.0,180.0,5.0,0.0
7513,51.0,53.0,180.0,5.0,0.0
7514,61.0,0.0,180.0,12.0,0.0
7515,73.0,0.0,120.0,11.0,0.0
7516,51.0,0.0,180.0,12.0,0.0
7517,58.0,0.0,180.0,4.0,0.0
7518,51.0,0.0,60.0,12.0,0.0
7519,82.0,0.0,60.0,11.0,0.0
7520,94.0,0.0,60.0,0.0,0.0
7521,61.0,0.0,60.0,12.0,0.0
7522,73.0,0.0,60.0,1.0,0.0
7523,51.0,0.0,60.0,5.0,0.0
7524,39.0,0.0,60.0,4.0,0.0
7525,58.0,0.0,60.0,4.0,0.0
7526,82.0,128.0,60.0,0.0,0.0
7527,70.0,0.0,60.0,1.0,0.0
7528,70.0,0.0,60.0,5.0,0.0
7529,58.0,0.0,60.0,13.0,0.0
7530,68.0,0.0,450.0,2.0,0.0
7531,60.0,7.0,450.0,2.0,0.0
7532,44.0,0.0,450.0,14.0,0.0
7533,56.0,0.0,210.0,5.0,0.0
7534,44.0,0.0,450.0,8.0,0.0
7535,60.0,0.0,240.0,6.0,0.0
7536,72.0,0.0,210.0,5.0,0.0
7537,44.0,0.0,450.0,3.0,0.0
7538,48.0,0.0,450.0,3.0,0.0
7539,82.0,105.0,120.0,0.0,0.0
7540,82.0,0.0,120.0,11.0,0.0
7541,32.0,0.0,450.0,15.0,0.0
7542,51.0,0.0,210.0,12.0,0.0
7543,44.0,0.0,240.0,10.0,0.0
7544,73.0,0.0,120.0,1.0,0.0
7545,70.0,0.0,120.0,1.0,0.0
7546,44.0,15.0,210.0,4.0,0.0
7547,56.0,0.0,210.0,13.0,0.0
7548,56.0,120.0,240.0,7.0,0.0
7549,94.0,0.0,120.0,0.0,0.0
7550,32.0,0.0,450.0,3.0,0.0
7551,60.0,0.0,210.0,4.0,0.0
7552,60.0,0.0,210.0,12.0,0.0
7553,80.0,0.0,90.0,0.0,0.0
7554,72.0,0.0,90.0,1.0,0.0
7555,68.0,0.0,90.0,1.0,0.0
7556,92.0,0.0,90.0,0.0,0.0
7557,80.0,0.0,90.0,11.0,0.0
7558,84.0,0.0,120.0,0.0,0.0
7559,68.0,0.0,120.0,1.0,0.0
7560,72.0,0.0,120.0,1.0,0.0
7561,60.0,53.0,180.0,12.0,0.0
7562,72.0,0.0,180.0,5.0,0.0
7563,56.0,0.0,180.0,13.0,0.0
7564,72.0,0.0,120.0,0.0,0.0
7565,51.0,0.0,180.0,12.0,0.0
7566,60.0,0.0,180.0,4.0,0.0
7567,44.0,0.0,180.0,4.0,0.0
7568,56.0,0.0,180.0,5.0,0.0
7569,72.0,52.0,120.0,11.0,0.0
7570,56.0,0.0,60.0,13.0,0.0
7571,44.0,0.0,60.0,4.0,0.0
7572,60.0,0.0,60.0,4.0,0.0
7573,92.0,0.0,60.0,0.0,0.0
7574,51.0,0.0,60.0,12.0,0.0
7575,56.0,0.0,60.0,5.0,0.0
7576,72.0,0.0,60.0,5.0,0.0
7577,80.0,128.0,60.0,11.0,0.0
7578,68.0,0.0,60.0,1.0,0.0
7579,72.0,0.0,60.0,1.0,0.0
7580,80.0,0.0,60.0,0.0,0.0
7581,60.0,0.0,60.0,12.0,0.0
7582,72.0,0.0,120.0,1.0,0.0
7583,27.0,15.0,210.0,3.0,0.0
7584,80.0,0.0,120.0,0.0,0.0
7585,58.0,0.0,210.0,12.0,0.0
7586,51.0,0.0,210.0,12.0,0.0
7587,70.0,0.0,210.0,5.0,0.0
7588,51.0,0.0,210.0,5.0,0.0
7589,68.0,0.0,120.0,1.0,0.0
7590,80.0,105.0,120.0,11.0,0.0
7591,39.0,0.0,210.0,8.0,0.0
7592,43.0,0.0,210.0,3.0,0.0
7593,46.0,0.0,210.0,3.0,0.0
7594,58.0,0.0,210.0,6.0,0.0
7595,39.0,0.0,210.0,4.0,0.0
7596,58.0,0.0,210.0,4.0,0.0
7597,55.0,0.0,210.0,13.0,0.0
7598,27.0,0.0,210.0,15.0,0.0
7599,39.0,0.0,210.0,14.0,0.0
7600,55.0,0.0,210.0,7.0,0.0
7601,92.0,0.0,120.0,0.0,0.0
7602,60.0,0.0,120.0,2.0,0.0
7603,68.0,0.0,120.0,2.0,0.0
7604,39.0,240.0,240.0,10.0,0.0
7605,91.0,0.0,90.0,0.0,0.0
7606,67.0,0.0,90.0,2.0,0.0
7607,58.0,0.0,90.0,2.0,0.0
7608,70.0,0.0,90.0,1.0,0.0
7609,79.0,0.0,90.0,0.0,0.0
7610,79.0,0.0,90.0,11.0,0.0
7611,67.0,0.0,90.0,1.0,0.0
7612,55.0,225.0,240.0,7.0,0.0
7613,27.0,0.0,450.0,15.0,0.0
7614,58.0,0.0,450.0,12.0,0.0
7615,43.0,0.0,450.0,3.0,0.0
7616,46.0,0.0,450.0,3.0,0.0
7617,55.0,0.0,450.0,13.0,0.0
7618,58.0,0.0,240.0,6.0,0.0
7619,79.0,0.0,450.0,11.0,0.0
7620,91.0,0.0,450.0,0.0,0.0
7621,58.0,0.0,450.0,4.0,0.0
7622,51.0,0.0,450.0,5.0,0.0
7623,79.0,0.0,450.0,0.0,0.0
7624,70.0,0.0,450.0,5.0,0.0
7625,58.0,0.0,450.0,2.0,0.0
7626,67.0,0.0,450.0,2.0,0.0
7627,39.0,0.0,450.0,4.0,0.0
7628,39.0,135.0,450.0,14.0,0.0
7629,51.0,0.0,450.0,12.0,0.0
7630,39.0,0.0,240.0,8.0,0.0
7631,27.0,0.0,450.0,3.0,0.0
7632,70.0,0.0,450.0,1.0,0.0
7633,39.0,0.0,240.0,10.0,0.0
7634,67.0,0.0,450.0,1.0,0.0
7635,56.0,0.0,180.0,13.0,0.0
7636,56.0,7.0,210.0,7.0,0.0
7637,51.0,0.0,180.0,12.0,0.0
7638,72.0,0.0,120.0,1.0,0.0
7639,60.0,0.0,180.0,12.0,0.0
7640,44.0,0.0,180.0,3.0,0.0
7641,44.0,0.0,210.0,8.0,0.0
7642,92.0,0.0,120.0,0.0,0.0
7643,60.0,0.0,180.0,2.0,0.0
7644,68.0,0.0,180.0,2.0,0.0
7645,80.0,52.0,120.0,0.0,0.0
7646,68.0,0.0,120.0,1.0,0.0
7647,48.0,8.0,180.0,3.0,0.0
7648,32.0,0.0,180.0,3.0,0.0
7649,60.0,0.0,210.0,6.0,0.0
7650,44.0,0.0,180.0,14.0,0.0
7651,80.0,0.0,120.0,11.0,0.0
7652,44.0,45.0,180.0,10.0,0.0
7653,56.0,0.0,180.0,5.0,0.0
7654,44.0,0.0,180.0,4.0,0.0
7655,72.0,0.0,180.0,5.0,0.0
7656,60.0,0.0,180.0,4.0,0.0
7657,32.0,0.0,180.0,15.0,0.0
7658,60.0,0.0,60.0,2.0,0.0
7659,68.0,0.0,60.0,2.0,0.0
7660,75.0,0.0,60.0,1.0,0.0
7661,72.0,0.0,60.0,1.0,0.0
7662,44.0,120.0,60.0,10.0,0.0
7663,48.0,0.0,60.0,3.0,0.0
7664,44.0,0.0,60.0,3.0,0.0
7665,44.0,0.0,60.0,14.0,0.0
7666,32.0,0.0,60.0,3.0,0.0
7667,96.0,0.0,60.0,0.0,0.0
7668,72.0,0.0,60.0,5.0,0.0
7669,84.0,0.0,60.0,11.0,0.0
7670,56.0,0.0,60.0,13.0,0.0
7671,56.0,0.0,60.0,5.0,0.0
7672,32.0,8.0,60.0,15.0,0.0
7673,60.0,0.0,60.0,4.0,0.0
7674,60.0,0.0,60.0,12.0,0.0
7675,51.0,0.0,60.0,12.0,0.0
7676,44.0,0.0,60.0,4.0,0.0
7677,84.0,0.0,60.0,0.0,0.0
7678,58.0,0.0,210.0,4.0,0.0
7679,70.0,7.0,450.0,2.0,0.0
7680,39.0,0.0,210.0,4.0,0.0
7681,70.0,0.0,210.0,5.0,0.0
7682,51.0,0.0,210.0,5.0,0.0
7683,58.0,0.0,210.0,13.0,0.0
7684,84.0,0.0,120.0,11.0,0.0
7685,39.0,0.0,240.0,10.0,0.0
7686,61.0,0.0,450.0,2.0,0.0
7687,31.0,0.0,450.0,15.0,0.0
7688,72.0,0.0,120.0,1.0,0.0
7689,75.0,0.0,120.0,1.0,0.0
7690,61.0,15.0,210.0,12.0,0.0
7691,58.0,0.0,240.0,7.0,0.0
7692,43.0,0.0,450.0,8.0,0.0
7693,84.0,0.0,120.0,0.0,0.0
7694,31.0,0.0,450.0,3.0,0.0
7695,43.0,0.0,450.0,14.0,0.0
7696,61.0,120.0,240.0,6.0,0.0
7697,51.0,0.0,210.0,12.0,0.0
7698,49.0,0.0,450.0,3.0,0.0
7699,96.0,105.0,120.0,0.0,0.0
7700,46.0,0.0,450.0,3.0,0.0
7701,82.0,0.0,90.0,0.0,0.0
7702,94.0,0.0,90.0,0.0,0.0
7703,73.0,0.0,90.0,1.0,0.0
7704,70.0,0.0,90.0,1.0,0.0
7705,82.0,0.0,90.0,11.0,0.0
7706,58.0,53.0,180.0,13.0,0.0
7707,73.0,0.0,120.0,11.0,0.0
7708,61.0,0.0,180.0,12.0,0.0
7709,39.0,0.0,180.0,4.0,0.0
7710,70.0,0.0,180.0,5.0,0.0
7711,85.0,0.0,120.0,0.0,0.0
7712,58.0,0.0,180.0,4.0,0.0
7713,51.0,0.0,180.0,5.0,0.0
7714,73.0,0.0,120.0,0.0,0.0
7715,70.0,0.0,120.0,1.0,0.0
7716,51.0,0.0,180.0,12.0,0.0
7717,73.0,52.0,120.0,1.0,0.0
7718,82.0,0.0,60.0,0.0,0.0
7719,51.0,0.0,60.0,5.0,0.0
7720,70.0,0.0,60.0,5.0,0.0
7721,58.0,0.0,60.0,13.0,0.0
7722,94.0,0.0,60.0,0.0,0.0
7723,58.0,0.0,60.0,4.0,0.0
7724,70.0,0.0,60.0,1.0,0.0
7725,73.0,0.0,60.0,1.0,0.0
7726,82.0,0.0,60.0,11.0,0.0
7727,39.0,128.0,60.0,4.0,0.0
7728,61.0,0.0,60.0,12.0,0.0
7729,51.0,0.0,60.0,12.0,0.0
7730,51.0,0.0,210.0,12.0,0.0
7731,60.0,0.0,240.0,6.0,0.0
7732,44.0,0.0,210.0,4.0,0.0
7733,73.0,105.0,120.0,1.0,0.0
7734,94.0,0.0,120.0,0.0,0.0
7735,56.0,0.0,210.0,13.0,0.0
7736,44.0,0.0,240.0,10.0,0.0
7737,32.0,0.0,450.0,3.0,0.0
7738,60.0,0.0,450.0,2.0,0.0
7739,44.0,0.0,450.0,14.0,0.0
7740,44.0,0.0,450.0,3.0,0.0
7741,70.0,0.0,120.0,1.0,0.0
7742,48.0,0.0,450.0,3.0,0.0
7743,68.0,0.0,450.0,2.0,0.0
7744,82.0,0.0,120.0,11.0,0.0
7745,82.0,0.0,120.0,0.0,0.0
7746,56.0,0.0,210.0,5.0,0.0
7747,72.0,15.0,210.0,5.0,0.0
7748,60.0,0.0,210.0,12.0,0.0
7749,56.0,120.0,240.0,7.0,0.0
7750,60.0,0.0,210.0,4.0,0.0
7751,32.0,0.0,450.0,15.0,0.0
7752,44.0,7.0,450.0,8.0,0.0
7753,68.0,0.0,90.0,1.0,0.0
7754,92.0,0.0,90.0,0.0,0.0
7755,72.0,0.0,90.0,1.0,0.0
7756,80.0,0.0,90.0,0.0,0.0
7757,80.0,0.0,90.0,11.0,0.0
7758,44.0,0.0,180.0,4.0,0.0
7759,56.0,53.0,180.0,13.0,0.0
7760,72.0,0.0,120.0,0.0,0.0
7761,68.0,0.0,120.0,1.0,0.0
7762,72.0,52.0,120.0,1.0,0.0
7763,60.0,0.0,180.0,4.0,0.0
7764,56.0,0.0,180.0,5.0,0.0
7765,72.0,0.0,180.0,5.0,0.0
7766,60.0,0.0,180.0,12.0,0.0
7767,51.0,0.0,180.0,12.0,0.0
7768,72.0,0.0,120.0,11.0,0.0
7769,84.0,0.0,120.0,0.0,0.0
7770,51.0,0.0,60.0,12.0,0.0
7771,68.0,0.0,60.0,1.0,0.0
7772,60.0,0.0,60.0,12.0,0.0
7773,80.0,0.0,60.0,0.0,0.0
7774,92.0,0.0,60.0,0.0,0.0
7775,72.0,0.0,60.0,1.0,0.0
7776,44.0,0.0,60.0,4.0,0.0
7777,72.0,0.0,60.0,5.0,0.0
7778,56.0,0.0,60.0,5.0,0.0
7779,80.0,128.0,60.0,11.0,0.0
7780,60.0,0.0,60.0,4.0,0.0
7781,56.0,0.0,60.0,13.0,0.0
7782,43.0,0.0,210.0,3.0,0.0
7783,39.0,0.0,210.0,14.0,0.0
7784,68.0,0.0,120.0,1.0,0.0
7785,72.0,105.0,120.0,1.0,0.0
7786,51.0,0.0,210.0,12.0,0.0
7787,80.0,0.0,120.0,0.0,0.0
7788,27.0,15.0,210.0,3.0,0.0
7789,39.0,0.0,210.0,8.0,0.0
7790,58.0,0.0,210.0,12.0,0.0
7791,39.0,240.0,240.0,10.0,0.0
7792,60.0,0.0,120.0,2.0,0.0
7793,68.0,0.0,120.0,2.0,0.0
7794,80.0,0.0,120.0,11.0,0.0
7795,55.0,0.0,210.0,7.0,0.0
7796,51.0,0.0,210.0,5.0,0.0
7797,70.0,0.0,210.0,5.0,0.0
7798,46.0,0.0,210.0,3.0,0.0
7799,58.0,0.0,210.0,6.0,0.0
7800,92.0,0.0,120.0,0.0,0.0
7801,27.0,0.0,210.0,15.0,0.0
7802,58.0,0.0,210.0,4.0,0.0
7803,55.0,0.0,210.0,13.0,0.0
7804,39.0,0.0,210.0,4.0,0.0
7805,58.0,0.0,90.0,2.0,0.0
7806,67.0,0.0,90.0,2.0,0.0
7807,79.0,0.0,90.0,0.0,0.0
7808,67.0,0.0,90.0,1.0,0.0
7809,91.0,0.0,90.0,0.0,0.0
7810,79.0,0.0,90.0,11.0,0.0
7811,70.0,0.0,90.0,1.0,0.0
7812,70.0,0.0,450.0,5.0,0.0
7813,79.0,0.0,450.0,0.0,0.0
7814,51.0,0.0,450.0,5.0,0.0
7815,51.0,0.0,450.0,12.0,0.0
7816,55.0,105.0,450.0,13.0,0.0
7817,58.0,225.0,240.0,6.0,0.0
7818,58.0,0.0,450.0,12.0,0.0
7819,79.0,0.0,450.0,11.0,0.0
7820,39.0,0.0,450.0,4.0,0.0
7821,55.0,0.0,240.0,7.0,0.0
7822,39.0,0.0,240.0,10.0,0.0
7823,27.0,0.0,450.0,3.0,0.0
7824,58.0,0.0,450.0,4.0,0.0
7825,67.0,0.0,450.0,2.0,0.0
7826,39.0,0.0,240.0,8.0,0.0
7827,43.0,0.0,450.0,3.0,0.0
7828,46.0,0.0,450.0,3.0,0.0
7829,39.0,0.0,450.0,14.0,0.0
7830,27.0,0.0,450.0,15.0,0.0
7831,70.0,0.0,450.0,1.0,0.0
7832,58.0,0.0,450.0,2.0,0.0
7833,67.0,0.0,450.0,1.0,0.0
7834,91.0,0.0,450.0,0.0,0.0
7835,68.0,0.0,90.0,1.0,0.0
7836,44.0,0.0,210.0,8.0,0.0
7837,44.0,45.0,180.0,10.0,0.0
7838,44.0,0.0,180.0,14.0,0.0
7839,72.0,82.0,90.0,1.0,0.0
7840,44.0,0.0,180.0,3.0,0.0
7841,51.0,0.0,180.0,12.0,0.0
7842,60.0,8.0,180.0,12.0,0.0
7843,92.0,0.0,90.0,0.0,0.0
7844,68.0,0.0,90.0,2.0,0.0
7845,48.0,0.0,180.0,3.0,0.0
7846,32.0,0.0,180.0,15.0,0.0
7847,72.0,0.0,180.0,5.0,0.0
7848,60.0,0.0,180.0,4.0,0.0
7849,60.0,7.0,210.0,7.0,0.0
7850,80.0,0.0,90.0,11.0,0.0
7851,32.0,0.0,180.0,3.0,0.0
7852,56.0,0.0,180.0,5.0,0.0
7853,44.0,0.0,180.0,4.0,0.0
7854,60.0,0.0,90.0,2.0,0.0
7855,80.0,0.0,90.0,0.0,0.0
7856,56.0,0.0,180.0,13.0,0.0
7857,68.0,0.0,210.0,6.0,0.0
7858,51.0,8.0,60.0,12.0,0.0
7859,60.0,0.0,60.0,4.0,0.0
7860,32.0,0.0,60.0,3.0,0.0
7861,44.0,0.0,60.0,4.0,0.0
7862,44.0,90.0,60.0,10.0,0.0
7863,68.0,0.0,40.0,2.0,0.0
7864,60.0,0.0,40.0,2.0,0.0
7865,84.0,0.0,40.0,0.0,0.0
7866,32.0,0.0,60.0,15.0,0.0
7867,60.0,0.0,60.0,12.0,0.0
7868,72.0,0.0,40.0,1.0,0.0
7869,75.0,0.0,40.0,1.0,0.0
7870,48.0,0.0,60.0,3.0,0.0
7871,96.0,0.0,40.0,0.0,0.0
7872,44.0,0.0,60.0,3.0,0.0
7873,84.0,0.0,40.0,11.0,0.0
7874,56.0,0.0,60.0,13.0,0.0
7875,72.0,0.0,60.0,5.0,0.0
7876,44.0,0.0,60.0,14.0,0.0
7877,56.0,0.0,60.0,5.0,0.0
7878,43.0,0.0,180.0,14.0,0.0
7879,43.0,0.0,210.0,8.0,0.0
7880,31.0,0.0,180.0,15.0,0.0
7881,39.0,0.0,180.0,4.0,0.0
7882,58.0,0.0,180.0,4.0,0.0
7883,58.0,0.0,180.0,13.0,0.0
7884,70.0,0.0,210.0,6.0,0.0
7885,61.0,0.0,90.0,2.0,0.0
7886,70.0,0.0,90.0,2.0,0.0
7887,39.0,45.0,180.0,10.0,0.0
7888,84.0,82.0,90.0,0.0,0.0
7889,61.0,0.0,210.0,7.0,0.0
7890,75.0,0.0,90.0,1.0,0.0
7891,72.0,0.0,90.0,1.0,0.0
7892,96.0,0.0,90.0,0.0,0.0
7893,49.0,0.0,90.0,3.0,0.0
7894,46.0,0.0,90.0,3.0,0.0
7895,84.0,0.0,90.0,11.0,0.0
7896,31.0,8.0,180.0,3.0,0.0
7897,51.0,0.0,180.0,5.0,0.0
7898,70.0,0.0,180.0,5.0,0.0
7899,61.0,0.0,180.0,12.0,0.0
7900,51.0,0.0,180.0,12.0,0.0
7901,61.0,7.0,40.0,2.0,0.0
7902,70.0,0.0,40.0,2.0,0.0
7903,43.0,0.0,60.0,14.0,0.0
7904,51.0,0.0,60.0,5.0,0.0
7905,70.0,0.0,60.0,5.0,0.0
7906,51.0,0.0,60.0,12.0,0.0
7907,61.0,0.0,60.0,12.0,0.0
7908,82.0,0.0,40.0,11.0,0.0
7909,31.0,0.0,60.0,15.0,0.0
7910,70.0,0.0,40.0,1.0,0.0
7911,31.0,0.0,60.0,3.0,0.0
7912,94.0,0.0,40.0,0.0,0.0
7913,39.0,0.0,60.0,4.0,0.0
7914,58.0,0.0,60.0,13.0,0.0
7915,58.0,8.0,60.0,4.0,0.0
7916,49.0,0.0,40.0,3.0,0.0
7917,46.0,0.0,40.0,3.0,0.0
7918,39.0,90.0,60.0,10.0,0.0
7919,82.0,0.0,40.0,0.0,0.0
7920,73.0,0.0,40.0,1.0,0.0
7921,27.0,0.0,180.0,3.0,0.0
7922,39.0,45.0,180.0,10.0,0.0
7923,55.0,0.0,180.0,13.0,0.0
7924,61.0,0.0,180.0,12.0,0.0
7925,70.0,0.0,210.0,6.0,0.0
7926,70.0,0.0,90.0,2.0,0.0
7927,39.0,0.0,180.0,14.0,0.0
7928,61.0,0.0,90.0,2.0,0.0
7929,85.0,0.0,90.0,0.0,0.0
7930,51.0,0.0,180.0,12.0,0.0
7931,58.0,0.0,180.0,4.0,0.0
7932,61.0,0.0,210.0,7.0,0.0
7933,39.0,0.0,180.0,4.0,0.0
7934,39.0,0.0,210.0,8.0,0.0
7935,70.0,0.0,180.0,5.0,0.0
7936,70.0,0.0,90.0,1.0,0.0
7937,73.0,0.0,90.0,1.0,0.0
7938,27.0,8.0,180.0,15.0,0.0
7939,51.0,0.0,180.0,5.0,0.0
7940,46.0,0.0,90.0,3.0,0.0
7941,73.0,0.0,90.0,0.0,0.0
7942,73.0,82.0,90.0,11.0,0.0
7943,49.0,0.0,90.0,3.0,0.0
7944,51.0,0.0,60.0,5.0,0.0
7945,55.0,0.0,60.0,13.0,0.0
7946,27.0,0.0,60.0,3.0,0.0
7947,94.0,0.0,40.0,0.0,0.0
7948,39.0,0.0,60.0,14.0,0.0
7949,82.0,0.0,40.0,11.0,0.0
7950,46.0,7.0,40.0,3.0,0.0
7951,49.0,0.0,40.0,3.0,0.0
7952,27.0,0.0,60.0,15.0,0.0
7953,61.0,0.0,60.0,12.0,0.0
7954,70.0,0.0,60.0,5.0,0.0
7955,39.0,0.0,60.0,4.0,0.0
7956,82.0,0.0,40.0,0.0,0.0
7957,39.0,90.0,60.0,10.0,0.0
7958,51.0,0.0,60.0,12.0,0.0
7959,73.0,0.0,40.0,1.0,0.0
7960,58.0,8.0,60.0,4.0,0.0
7961,61.0,0.0,40.0,2.0,0.0
7962,70.0,0.0,40.0,2.0,0.0
7963,70.0,0.0,40.0,1.0,0.0
7964,32.0,0.0,180.0,15.0,0.0
7965,72.0,0.0,180.0,5.0,0.0
7966,82.0,0.0,90.0,11.0,0.0
7967,82.0,0.0,90.0,0.0,0.0
7968,44.0,0.0,180.0,14.0,0.0
7969,32.0,0.0,180.0,3.0,0.0
7970,60.0,0.0,180.0,4.0,0.0
7971,44.0,0.0,90.0,3.0,0.0
7972,60.0,0.0,180.0,12.0,0.0
7973,94.0,0.0,90.0,0.0,0.0
7974,51.0,0.0,180.0,12.0,0.0
7975,44.0,45.0,180.0,10.0,0.0
7976,48.0,0.0,90.0,3.0,0.0
7977,44.0,7.0,210.0,8.0,0.0
7978,56.0,0.0,180.0,13.0,0.0
7979,68.0,0.0,210.0,6.0,0.0
7980,44.0,0.0,180.0,4.0,0.0
7981,70.0,82.0,90.0,1.0,0.0
7982,73.0,0.0,90.0,1.0,0.0
7983,68.0,0.0,90.0,2.0,0.0
7984,60.0,0.0,210.0,7.0,0.0
7985,60.0,0.0,90.0,2.0,0.0
7986,56.0,8.0,180.0,5.0,0.0
7987,60.0,0.0,60.0,4.0,0.0
7988,44.0,0.0,60.0,4.0,0.0
7989,44.0,90.0,60.0,10.0,0.0
7990,68.0,0.0,40.0,2.0,0.0
7991,60.0,0.0,40.0,2.0,0.0
7992,44.0,0.0,60.0,14.0,0.0
7993,51.0,0.0,60.0,12.0,0.0
7994,56.0,0.0,60.0,13.0,0.0
7995,60.0,8.0,60.0,12.0,0.0
7996,92.0,0.0,40.0,0.0,0.0
7997,32.0,0.0,60.0,3.0,0.0
7998,80.0,0.0,40.0,11.0,0.0
7999,80.0,0.0,40.0,0.0,0.0
8000,48.0,0.0,40.0,3.0,0.0
8001,44.0,0.0,40.0,3.0,0.0
8002,72.0,0.0,60.0,5.0,0.0
8003,32.0,0.0,60.0,15.0,0.0
8004,72.0,0.0,40.0,1.0,0.0
8005,56.0,0.0,60.0,5.0,0.0
8006,68.0,0.0,40.0,1.0,0.0
8007,48.0,0.0,90.0,3.0,0.0
8008,36.0,0.0,180.0,3.0,0.0
8009,72.0,0.0,90.0,11.0,0.0
8010,44.0,0.0,180.0,4.0,0.0
8011,60.0,0.0,180.0,4.0,0.0
8012,60.0,8.0,180.0,12.0,0.0
8013,48.0,0.0,210.0,8.0,0.0
8014,44.0,45.0,180.0,10.0,0.0
8015,68.0,0.0,90.0,1.0,0.0
8016,72.0,0.0,90.0,1.0,0.0
8017,60.0,0.0,210.0,7.0,0.0
8018,36.0,0.0,180.0,15.0,0.0
8019,68.0,7.0,210.0,6.0,0.0
8020,44.0,0.0,90.0,3.0,0.0
8021,68.0,0.0,90.0,2.0,0.0
8022,60.0,0.0,90.0,2.0,0.0
8023,48.0,0.0,180.0,14.0,0.0
8024,56.0,0.0,180.0,5.0,0.0
8025,72.0,0.0,180.0,5.0,0.0
8026,56.0,0.0,180.0,13.0,0.0
8027,72.0,82.0,90.0,0.0,0.0
8028,84.0,0.0,90.0,0.0,0.0
8029,51.0,0.0,180.0,12.0,0.0
8030,80.0,0.0,40.0,11.0,0.0
8031,72.0,0.0,40.0,1.0,0.0
8032,72.0,0.0,60.0,5.0,0.0
8033,56.0,0.0,60.0,5.0,0.0
8034,68.0,0.0,40.0,1.0,0.0
8035,48.0,0.0,60.0,14.0,0.0
8036,44.0,0.0,40.0,3.0,0.0
8037,92.0,0.0,40.0,0.0,0.0
8038,80.0,0.0,40.0,0.0,0.0
8039,51.0,0.0,60.0,12.0,0.0
8040,60.0,0.0,60.0,12.0,0.0
8041,56.0,0.0,60.0,13.0,0.0
8042,48.0,0.0,40.0,3.0,0.0
8043,60.0,0.0,60.0,4.0,0.0
8044,36.0,0.0,60.0,3.0,0.0
8045,44.0,52.0,60.0,10.0,0.0
8046,68.0,0.0,40.0,2.0,0.0
8047,60.0,0.0,40.0,2.0,0.0
8048,36.0,0.0,60.0,15.0,0.0
8049,44.0,8.0,60.0,4.0,0.0
8050,91.0,0.0,90.0,0.0,0.0
8051,79.0,0.0,90.0,0.0,0.0
8052,67.0,0.0,210.0,2.0,0.0
8053,46.0,0.0,210.0,3.0,0.0
8054,58.0,0.0,210.0,4.0,0.0
8055,39.0,0.0,240.0,8.0,0.0
8056,67.0,0.0,240.0,6.0,0.0
8057,39.0,45.0,180.0,10.0,0.0
8058,39.0,0.0,210.0,4.0,0.0
8059,55.0,38.0,60.0,13.0,0.0
8060,51.0,7.0,90.0,14.0,0.0
8061,58.0,0.0,60.0,12.0,0.0
8062,39.0,0.0,90.0,15.0,0.0
8063,51.0,0.0,60.0,12.0,0.0
8064,39.0,0.0,90.0,3.0,0.0
8065,67.0,0.0,210.0,1.0,0.0
8066,58.0,0.0,210.0,2.0,0.0
8067,79.0,15.0,90.0,11.0,0.0
8068,51.0,0.0,210.0,5.0,0.0
8069,58.0,0.0,240.0,7.0,0.0
8070,70.0,0.0,210.0,1.0,0.0
8071,70.0,0.0,210.0,5.0,0.0
8072,58.0,60.0,60.0,12.0,0.0
8073,55.0,0.0,60.0,13.0,0.0
8074,51.0,0.0,60.0,12.0,0.0
8075,27.0,7.0,90.0,3.0,0.0
8076,51.0,0.0,60.0,12.0,0.0
8077,39.0,0.0,90.0,14.0,0.0
8078,58.0,0.0,60.0,12.0,0.0
8079,27.0,0.0,90.0,15.0,0.0
8080,55.0,8.0,60.0,13.0,0.0
8081,39.0,52.0,60.0,10.0,0.0
8082,58.0,0.0,60.0,12.0,0.0
8083,82.0,0.0,60.0,0.0,0.0
8084,70.0,0.0,60.0,0.0,0.0
8085,55.0,8.0,60.0,13.0,0.0
8086,70.0,0.0,60.0,11.0,0.0
8087,51.0,0.0,60.0,12.0,0.0
8088,63.0,0.0,210.0,2.0,0.0
8089,27.0,52.0,240.0,15.0,0.0
8090,51.0,0.0,60.0,12.0,0.0
8091,58.0,60.0,60.0,12.0,0.0
8092,55.0,0.0,60.0,13.0,0.0
8093,55.0,0.0,210.0,3.0,0.0
8094,58.0,0.0,210.0,4.0,0.0
8095,51.0,0.0,210.0,4.0,0.0
8096,87.0,0.0,450.0,0.0,0.0
8097,51.0,0.0,210.0,3.0,0.0
8098,75.0,0.0,450.0,1.0,0.0
8099,67.0,0.0,210.0,2.0,0.0
8100,75.0,0.0,450.0,11.0,0.0
8101,39.0,0.0,240.0,14.0,0.0
8102,27.0,0.0,240.0,3.0,0.0
8103,39.0,0.0,240.0,10.0,0.0
8104,70.0,0.0,210.0,5.0,0.0
8105,63.0,7.0,210.0,5.0,0.0
8106,75.0,0.0,450.0,0.0,0.0
8107,51.0,0.0,60.0,12.0,0.0
8108,58.0,0.0,60.0,12.0,0.0
8109,55.0,60.0,60.0,13.0,0.0
8110,58.0,0.0,60.0,12.0,0.0
8111,51.0,0.0,60.0,12.0,0.0
8112,55.0,53.0,60.0,13.0,0.0
8113,51.0,8.0,60.0,12.0,0.0
8114,58.0,0.0,60.0,12.0,0.0
8115,55.0,0.0,60.0,13.0,0.0
8116,72.0,0.0,210.0,5.0,0.0
8117,68.0,0.0,210.0,2.0,0.0
8118,72.0,0.0,210.0,2.0,0.0
8119,56.0,0.0,210.0,4.0,0.0
8120,60.0,0.0,210.0,4.0,0.0
8121,56.0,0.0,60.0,13.0,0.0
8122,56.0,0.0,210.0,3.0,0.0
8123,68.0,0.0,210.0,5.0,0.0
8124,51.0,60.0,60.0,12.0,0.0
8125,60.0,0.0,60.0,12.0,0.0
8126,60.0,7.0,210.0,3.0,0.0
8127,60.0,0.0,60.0,12.0,0.0
8128,51.0,0.0,60.0,12.0,0.0
8129,56.0,60.0,60.0,13.0,0.0
8130,51.0,0.0,60.0,12.0,0.0
8131,60.0,53.0,60.0,12.0,0.0
8132,56.0,0.0,60.0,13.0,0.0
8133,56.0,0.0,60.0,13.0,0.0
8134,60.0,60.0,60.0,12.0,0.0
8135,51.0,0.0,60.0,12.0,0.0
8136,89.0,0.0,60.0,0.0,0.0
8137,72.0,0.0,210.0,5.0,0.0
8138,68.0,0.0,210.0,5.0,0.0
8139,56.0,0.0,210.0,4.0,0.0
8140,56.0,0.0,60.0,13.0,0.0
8141,51.0,8.0,60.0,12.0,0.0
8142,60.0,0.0,60.0,12.0,0.0
8143,72.0,0.0,210.0,2.0,0.0
8144,68.0,0.0,210.0,2.0,0.0
8145,77.0,52.0,60.0,0.0,0.0
8146,77.0,0.0,60.0,11.0,0.0
8147,60.0,7.0,210.0,4.0,0.0
8148,77.0,0.0,60.0,1.0,0.0
8149,56.0,0.0,210.0,3.0,0.0
8150,60.0,0.0,210.0,3.0,0.0
8151,75.0,52.0,60.0,0.0,0.0
8152,75.0,0.0,60.0,1.0,0.0
8153,87.0,0.0,60.0,0.0,0.0
8154,51.0,8.0,60.0,12.0,0.0
8155,60.0,0.0,60.0,12.0,0.0
8156,75.0,0.0,60.0,11.0,0.0
8157,56.0,0.0,60.0,13.0,0.0
8158,85.0,0.0,60.0,0.0,0.0
8159,60.0,0.0,60.0,12.0,0.0
8160,51.0,8.0,60.0,12.0,0.0
8161,73.0,45.0,60.0,0.0,0.0
8162,73.0,0.0,60.0,1.0,0.0
8163,56.0,0.0,60.0,13.0,0.0
8164,73.0,0.0,60.0,11.0,0.0
8165,72.0,0.0,60.0,1.0,0.0
8166,84.0,0.0,60.0,0.0,0.0
8167,60.0,0.0,60.0,12.0,0.0
8168,51.0,0.0,60.0,12.0,0.0
8169,72.0,0.0,60.0,11.0,0.0
8170,56.0,60.0,60.0,13.0,0.0
8171,72.0,0.0,60.0,0.0,0.0
8172,58.0,0.0,60.0,12.0,0.0
8173,67.0,0.0,210.0,2.0,0.0
8174,70.0,52.0,120.0,0.0,0.0
8175,55.0,0.0,210.0,3.0,0.0
8176,58.0,0.0,210.0,3.0,0.0
8177,39.0,52.0,240.0,8.0,0.0
8178,58.0,0.0,240.0,7.0,0.0
8179,51.0,60.0,60.0,12.0,0.0
8180,55.0,0.0,60.0,13.0,0.0
8181,70.0,0.0,210.0,2.0,0.0
8182,70.0,0.0,120.0,1.0,0.0
8183,70.0,0.0,120.0,11.0,0.0
8184,67.0,0.0,240.0,6.0,0.0
8185,82.0,0.0,120.0,0.0,0.0
8186,70.0,0.0,210.0,5.0,0.0
8187,63.0,0.0,210.0,5.0,0.0
8188,51.0,0.0,210.0,4.0,0.0
8189,39.0,45.0,180.0,10.0,0.0
8190,58.0,0.0,210.0,4.0,0.0
8191,51.0,0.0,60.0,12.0,0.0
8192,58.0,8.0,60.0,12.0,0.0
8193,55.0,0.0,60.0,13.0,0.0
8194,55.0,0.0,60.0,13.0,0.0
8195,51.0,0.0,60.0,12.0,0.0
8196,27.0,0.0,90.0,15.0,0.0
8197,39.0,0.0,90.0,14.0,0.0
8198,58.0,8.0,60.0,12.0,0.0
8199,27.0,7.0,90.0,3.0,0.0
8200,55.0,0.0,60.0,13.0,0.0
8201,70.0,0.0,60.0,11.0,0.0
8202,58.0,0.0,60.0,12.0,0.0
8203,39.0,0.0,60.0,10.0,0.0
8204,82.0,8.0,60.0,0.0,0.0
8205,70.0,0.0,60.0,0.0,0.0
8206,51.0,0.0,60.0,12.0,0.0
8207,70.0,0.0,60.0,1.0,0.0
8208,58.0,0.0,60.0,12.0,0.0
8209,75.0,0.0,450.0,11.0,0.0
8210,51.0,60.0,60.0,12.0,0.0
8211,63.0,0.0,210.0,5.0,0.0
8212,63.0,0.0,210.0,2.0,0.0
8213,75.0,0.0,450.0,0.0,0.0
8214,55.0,0.0,60.0,13.0,0.0
8215,51.0,0.0,210.0,4.0,0.0
8216,58.0,0.0,210.0,4.0,0.0
8217,55.0,0.0,210.0,3.0,0.0
8218,27.0,0.0,240.0,15.0,0.0
8219,87.0,0.0,450.0,0.0,0.0
8220,27.0,0.0,240.0,3.0,0.0
8221,39.0,52.0,240.0,10.0,0.0
8222,75.0,0.0,450.0,1.0,0.0
8223,39.0,0.0,240.0,14.0,0.0
8224,70.0,7.0,210.0,5.0,0.0
8225,67.0,0.0,210.0,2.0,0.0
8226,51.0,0.0,210.0,3.0,0.0
8227,51.0,0.0,60.0,12.0,0.0
8228,58.0,0.0,60.0,12.0,0.0
8229,55.0,60.0,60.0,13.0,0.0
8230,58.0,0.0,60.0,12.0,0.0
8231,55.0,53.0,60.0,13.0,0.0
8232,51.0,0.0,60.0,12.0,0.0
8233,55.0,8.0,60.0,13.0,0.0
8234,51.0,0.0,60.0,12.0,0.0
8235,58.0,0.0,60.0,12.0,0.0
8236,60.0,0.0,60.0,12.0,0.0
8237,56.0,60.0,60.0,13.0,0.0
8238,68.0,0.0,210.0,5.0,0.0
8239,60.0,0.0,210.0,3.0,0.0
8240,56.0,0.0,210.0,3.0,0.0
8241,56.0,0.0,210.0,4.0,0.0
8242,72.0,0.0,210.0,5.0,0.0
8243,51.0,0.0,60.0,12.0,0.0
8244,68.0,7.0,210.0,2.0,0.0
8245,60.0,0.0,210.0,4.0,0.0
8246,72.0,0.0,210.0,2.0,0.0
8247,56.0,0.0,60.0,13.0,0.0
8248,60.0,60.0,60.0,12.0,0.0
8249,51.0,0.0,60.0,12.0,0.0
8250,51.0,0.0,60.0,12.0,0.0
8251,56.0,53.0,60.0,13.0,0.0
8252,60.0,0.0,60.0,12.0,0.0
8253,56.0,60.0,60.0,13.0,0.0
8254,51.0,0.0,60.0,12.0,0.0
8255,60.0,0.0,60.0,12.0,0.0
8256,68.0,0.0,210.0,5.0,0.0
8257,72.0,0.0,210.0,5.0,0.0
8258,77.0,0.0,60.0,1.0,0.0
8259,68.0,0.0,210.0,2.0,0.0
8260,56.0,0.0,210.0,3.0,0.0
8261,56.0,0.0,210.0,4.0,0.0
8262,77.0,0.0,60.0,11.0,0.0
8263,51.0,0.0,60.0,12.0,0.0
8264,72.0,7.0,210.0,2.0,0.0
8265,60.0,0.0,60.0,12.0,0.0
8266,60.0,0.0,210.0,3.0,0.0
8267,56.0,8.0,60.0,13.0,0.0
8268,89.0,0.0,60.0,0.0,0.0
8269,60.0,0.0,210.0,4.0,0.0
8270,77.0,52.0,60.0,0.0,0.0
8271,56.0,0.0,60.0,13.0,0.0
8272,75.0,0.0,60.0,1.0,0.0
8273,75.0,0.0,60.0,11.0,0.0
8274,87.0,0.0,60.0,0.0,0.0
8275,51.0,8.0,60.0,12.0,0.0
8276,60.0,0.0,60.0,12.0,0.0
8277,75.0,52.0,60.0,0.0,0.0
8278,73.0,0.0,60.0,0.0,0.0
8279,73.0,0.0,60.0,1.0,0.0
8280,85.0,0.0,60.0,0.0,0.0
8281,60.0,8.0,60.0,12.0,0.0
8282,56.0,0.0,60.0,13.0,0.0
8283,73.0,45.0,60.0,11.0,0.0
8284,51.0,0.0,60.0,12.0,0.0
8285,72.0,0.0,60.0,1.0,0.0
8286,72.0,0.0,60.0,0.0,0.0
8287,72.0,0.0,60.0,11.0,0.0
8288,51.0,60.0,60.0,12.0,0.0
8289,56.0,0.0,60.0,13.0,0.0
8290,84.0,0.0,60.0,0.0,0.0
8291,60.0,0.0,60.0,12.0,0.0
8292,67.0,0.0,120.0,2.0,0.0
8293,58.0,60.0,60.0,12.0,0.0
8294,58.0,0.0,120.0,3.0,0.0
8295,70.0,0.0,120.0,0.0,0.0
8296,58.0,0.0,120.0,4.0,0.0
8297,51.0,0.0,120.0,4.0,0.0
8298,51.0,0.0,60.0,12.0,0.0
8299,67.0,0.0,240.0,6.0,0.0
8300,82.0,0.0,120.0,0.0,0.0
8301,55.0,0.0,60.0,13.0,0.0
8302,58.0,0.0,240.0,7.0,0.0
8303,39.0,52.0,240.0,8.0,0.0
8304,55.0,0.0,120.0,3.0,0.0
8305,70.0,0.0,120.0,5.0,0.0
8306,70.0,52.0,120.0,2.0,0.0
8307,70.0,0.0,120.0,11.0,0.0
8308,63.0,0.0,120.0,5.0,0.0
8309,39.0,45.0,180.0,10.0,0.0
8310,70.0,0.0,120.0,1.0,0.0
8311,58.0,0.0,60.0,12.0,0.0
8312,51.0,8.0,60.0,12.0,0.0
8313,55.0,0.0,60.0,13.0,0.0
8314,51.0,0.0,60.0,12.0,0.0
8315,60.0,0.0,60.0,12.0,0.0
8316,27.0,0.0,90.0,15.0,0.0
8317,39.0,7.0,90.0,14.0,0.0
8318,56.0,8.0,60.0,13.0,0.0
8319,27.0,0.0,90.0,3.0,0.0
8320,68.0,8.0,60.0,2.0,0.0
8321,60.0,0.0,60.0,12.0,0.0
8322,75.0,0.0,60.0,0.0,0.0
8323,63.0,0.0,60.0,2.0,0.0
8324,75.0,0.0,60.0,1.0,0.0
8325,68.0,0.0,60.0,5.0,0.0
8326,39.0,0.0,60.0,10.0,0.0
8327,75.0,0.0,60.0,11.0,0.0
8328,60.0,0.0,60.0,4.0,0.0
8329,87.0,0.0,60.0,0.0,0.0
8330,56.0,0.0,60.0,4.0,0.0
8331,51.0,0.0,60.0,12.0,0.0
8332,51.0,0.0,60.0,3.0,0.0
8333,72.0,0.0,60.0,5.0,0.0
8334,56.0,0.0,60.0,3.0,0.0
8335,56.0,0.0,60.0,13.0,0.0
8336,56.0,0.0,210.0,4.0,0.0
8337,39.0,0.0,240.0,10.0,0.0
8338,77.0,0.0,60.0,0.0,0.0
8339,89.0,0.0,60.0,0.0,0.0
8340,27.0,0.0,240.0,3.0,0.0
8341,56.0,0.0,60.0,13.0,0.0
8342,72.0,0.0,210.0,5.0,0.0
8343,68.0,0.0,210.0,5.0,0.0
8344,77.0,0.0,60.0,1.0,0.0
8345,56.0,7.0,210.0,3.0,0.0
8346,60.0,0.0,210.0,3.0,0.0
8347,51.0,0.0,60.0,12.0,0.0
8348,77.0,52.0,60.0,11.0,0.0
8349,60.0,8.0,60.0,12.0,0.0
8350,60.0,0.0,210.0,4.0,0.0
8351,68.0,0.0,210.0,2.0,0.0
8352,72.0,0.0,210.0,2.0,0.0
8353,27.0,0.0,240.0,15.0,0.0
8354,39.0,52.0,240.0,14.0,0.0
8355,56.0,0.0,60.0,13.0,0.0
8356,75.0,52.0,60.0,11.0,0.0
8357,51.0,8.0,60.0,12.0,0.0
8358,60.0,0.0,60.0,12.0,0.0
8359,87.0,0.0,60.0,0.0,0.0
8360,75.0,0.0,60.0,1.0,0.0
8361,75.0,0.0,60.0,0.0,0.0
8362,56.0,0.0,60.0,13.0,0.0
8363,73.0,0.0,60.0,11.0,0.0
8364,73.0,0.0,60.0,0.0,0.0
8365,85.0,45.0,60.0,0.0,0.0
8366,60.0,8.0,60.0,12.0,0.0
8367,51.0,0.0,60.0,12.0,0.0
8368,73.0,0.0,60.0,1.0,0.0
8369,72.0,0.0,60.0,11.0,0.0
8370,84.0,0.0,60.0,0.0,0.0
8371,72.0,0.0,60.0,1.0,0.0
8372,60.0,0.0,60.0,12.0,0.0
8373,72.0,0.0,60.0,0.0,0.0
8374,51.0,8.0,60.0,12.0,0.0
8375,56.0,0.0,60.0,13.0,0.0
8376,70.0,0.0,120.0,11.0,0.0
8377,82.0,0.0,120.0,0.0,0.0
8378,51.0,0.0,60.0,12.0,0.0
8379,58.0,0.0,120.0,4.0,0.0
8380,39.0,52.0,240.0,8.0,0.0
8381,58.0,0.0,240.0,7.0,0.0
8382,58.0,0.0,60.0,12.0,0.0
8383,67.0,52.0,120.0,2.0,0.0
8384,39.0,45.0,180.0,10.0,0.0
8385,55.0,60.0,60.0,13.0,0.0
8386,70.0,0.0,120.0,2.0,0.0
8387,70.0,0.0,120.0,0.0,0.0
8388,58.0,0.0,120.0,3.0,0.0
8389,51.0,0.0,120.0,4.0,0.0
8390,67.0,0.0,240.0,6.0,0.0
8391,70.0,0.0,120.0,1.0,0.0
8392,70.0,0.0,120.0,5.0,0.0
8393,63.0,0.0,120.0,5.0,0.0
8394,55.0,0.0,120.0,3.0,0.0
8395,51.0,8.0,60.0,12.0,0.0
8396,58.0,0.0,60.0,12.0,0.0
8397,55.0,0.0,60.0,13.0,0.0
8398,51.0,0.0,60.0,12.0,0.0
8399,39.0,0.0,90.0,14.0,0.0
8400,56.0,8.0,60.0,13.0,0.0
8401,60.0,0.0,60.0,12.0,0.0
8402,27.0,0.0,90.0,15.0,0.0
8403,27.0,7.0,90.0,3.0,0.0
8404,72.0,0.0,60.0,5.0,0.0
8405,63.0,0.0,60.0,2.0,0.0
8406,68.0,0.0,60.0,2.0,0.0
8407,39.0,0.0,60.0,10.0,0.0
8408,68.0,0.0,60.0,5.0,0.0
8409,87.0,0.0,60.0,0.0,0.0
8410,60.0,0.0,60.0,12.0,0.0
8411,75.0,0.0,60.0,11.0,0.0
8412,75.0,0.0,60.0,1.0,0.0
8413,60.0,0.0,60.0,4.0,0.0
8414,51.0,0.0,60.0,12.0,0.0
8415,56.0,0.0,60.0,3.0,0.0
8416,56.0,0.0,60.0,13.0,0.0
8417,51.0,0.0,60.0,3.0,0.0
8418,56.0,8.0,60.0,4.0,0.0
8419,75.0,0.0,60.0,0.0,0.0
8420,56.0,0.0,210.0,4.0,0.0
8421,77.0,0.0,60.0,11.0,0.0
8422,60.0,0.0,210.0,4.0,0.0
8423,60.0,0.0,210.0,3.0,0.0
8424,56.0,0.0,210.0,3.0,0.0
8425,56.0,0.0,60.0,13.0,0.0
8426,77.0,0.0,60.0,0.0,0.0
8427,39.0,0.0,240.0,14.0,0.0
8428,68.0,0.0,210.0,2.0,0.0
8429,77.0,52.0,60.0,1.0,0.0
8430,39.0,0.0,240.0,10.0,0.0
8431,27.0,52.0,240.0,15.0,0.0
8432,68.0,0.0,210.0,5.0,0.0
8433,72.0,7.0,210.0,5.0,0.0
8434,72.0,0.0,210.0,2.0,0.0
8435,89.0,0.0,60.0,0.0,0.0
8436,60.0,8.0,60.0,12.0,0.0
8437,51.0,0.0,60.0,12.0,0.0
8438,27.0,0.0,240.0,3.0,0.0
8439,56.0,8.0,60.0,13.0,0.0
8440,75.0,52.0,60.0,0.0,0.0
8441,75.0,0.0,60.0,11.0,0.0
8442,87.0,0.0,60.0,0.0,0.0
8443,60.0,0.0,60.0,12.0,0.0
8444,51.0,0.0,60.0,12.0,0.0
8445,75.0,0.0,60.0,1.0,0.0
8446,51.0,0.0,60.0,12.0,0.0
8447,73.0,0.0,60.0,1.0,0.0
8448,85.0,0.0,60.0,0.0,0.0
8449,60.0,0.0,60.0,12.0,0.0
8450,56.0,8.0,60.0,13.0,0.0
8451,73.0,0.0,60.0,11.0,0.0
8452,73.0,45.0,60.0,0.0,0.0
8453,84.0,0.0,60.0,0.0,0.0
8454,56.0,8.0,60.0,13.0,0.0
8455,72.0,0.0,60.0,11.0,0.0
8456,72.0,0.0,60.0,0.0,0.0
8457,60.0,0.0,60.0,12.0,0.0
8458,51.0,0.0,60.0,12.0,0.0
8459,72.0,0.0,60.0,1.0,0.0
8460,70.0,0.0,120.0,1.0,0.0
8461,51.0,0.0,60.0,12.0,0.0
8462,39.0,0.0,240.0,8.0,0.0
8463,58.0,0.0,120.0,3.0,0.0
8464,55.0,0.0,120.0,3.0,0.0
8465,70.0,0.0,120.0,2.0,0.0
8466,70.0,0.0,120.0,11.0,0.0
8467,67.0,0.0,240.0,6.0,0.0
8468,58.0,0.0,120.0,4.0,0.0
8469,51.0,0.0,120.0,4.0,0.0
8470,82.0,0.0,120.0,0.0,0.0
8471,63.0,0.0,120.0,5.0,0.0
8472,39.0,45.0,180.0,10.0,0.0
8473,58.0,0.0,240.0,7.0,0.0
8474,67.0,52.0,120.0,2.0,0.0
8475,70.0,0.0,120.0,5.0,0.0
8476,55.0,0.0,60.0,13.0,0.0
8477,58.0,60.0,60.0,12.0,0.0
8478,70.0,0.0,120.0,0.0,0.0
8479,55.0,8.0,60.0,13.0,0.0
8480,51.0,0.0,60.0,12.0,0.0
8481,58.0,0.0,60.0,12.0,0.0
8482,51.0,8.0,60.0,12.0,0.0
8483,27.0,0.0,90.0,3.0,0.0
8484,27.0,0.0,90.0,15.0,0.0
8485,56.0,0.0,60.0,13.0,0.0
8486,39.0,7.0,90.0,14.0,0.0
8487,60.0,0.0,60.0,12.0,0.0
8488,51.0,0.0,60.0,12.0,0.0
8489,60.0,0.0,60.0,12.0,0.0
8490,60.0,0.0,60.0,4.0,0.0
8491,56.0,0.0,60.0,3.0,0.0
8492,75.0,8.0,60.0,0.0,0.0
8493,56.0,0.0,60.0,4.0,0.0
8494,75.0,0.0,60.0,1.0,0.0
8495,87.0,0.0,60.0,0.0,0.0
8496,51.0,0.0,60.0,3.0,0.0
8497,72.0,0.0,60.0,5.0,0.0
8498,75.0,0.0,60.0,11.0,0.0
8499,68.0,0.0,60.0,2.0,0.0
8500,39.0,52.0,60.0,10.0,0.0
8501,56.0,0.0,60.0,13.0,0.0
8502,68.0,0.0,60.0,5.0,0.0
8503,63.0,0.0,60.0,2.0,0.0
8504,68.0,0.0,210.0,2.0,0.0
8505,72.0,0.0,210.0,2.0,0.0
8506,68.0,0.0,210.0,5.0,0.0
8507,72.0,0.0,210.0,5.0,0.0
8508,56.0,0.0,60.0,13.0,0.0
8509,51.0,8.0,60.0,12.0,0.0
8510,60.0,0.0,60.0,12.0,0.0
8511,60.0,0.0,210.0,3.0,0.0
8512,77.0,52.0,60.0,11.0,0.0
8513,27.0,52.0,240.0,3.0,0.0
8514,39.0,0.0,240.0,10.0,0.0
8515,77.0,0.0,60.0,0.0,0.0
8516,89.0,0.0,60.0,0.0,0.0
8517,60.0,7.0,210.0,4.0,0.0
8518,77.0,0.0,60.0,1.0,0.0
8519,56.0,0.0,210.0,4.0,0.0
8520,27.0,0.0,240.0,15.0,0.0
8521,56.0,0.0,210.0,3.0,0.0
8522,39.0,0.0,240.0,14.0,0.0
8523,60.0,8.0,60.0,12.0,0.0
8524,56.0,0.0,60.0,13.0,0.0
8525,51.0,0.0,60.0,12.0,0.0
8526,75.0,0.0,60.0,1.0,0.0
8527,75.0,0.0,60.0,11.0,0.0
8528,75.0,52.0,60.0,0.0,0.0
8529,87.0,0.0,60.0,0.0,0.0
8530,73.0,0.0,60.0,1.0,0.0
8531,73.0,0.0,60.0,0.0,0.0
8532,60.0,8.0,60.0,12.0,0.0
8533,73.0,45.0,60.0,11.0,0.0
8534,85.0,0.0,60.0,0.0,0.0
8535,51.0,0.0,60.0,12.0,0.0
8536,56.0,0.0,60.0,13.0,0.0
8537,60.0,0.0,60.0,12.0,0.0
8538,84.0,0.0,60.0,0.0,0.0
8539,72.0,8.0,60.0,1.0,0.0
8540,72.0,0.0,60.0,0.0,0.0
8541,56.0,0.0,60.0,13.0,0.0
8542,72.0,0.0,60.0,11.0,0.0
8543,51.0,0.0,60.0,12.0,0.0
8544,39.0,45.0,180.0,10.0,0.0
8545,67.0,0.0,120.0,2.0,0.0
8546,70.0,0.0,120.0,2.0,0.0
8547,55.0,60.0,60.0,13.0,0.0
8548,58.0,0.0,60.0,12.0,0.0
8549,51.0,0.0,60.0,12.0,0.0
8550,70.0,0.0,120.0,1.0,0.0
8551,58.0,0.0,240.0,7.0,0.0
8552,70.0,0.0,120.0,0.0,0.0
8553,63.0,0.0,120.0,5.0,0.0
8554,82.0,0.0,120.0,0.0,0.0
8555,70.0,0.0,120.0,5.0,0.0
8556,51.0,52.0,120.0,4.0,0.0
8557,39.0,0.0,240.0,8.0,0.0
8558,67.0,0.0,240.0,6.0,0.0
8559,58.0,0.0,120.0,4.0,0.0
8560,58.0,0.0,120.0,3.0,0.0
8561,70.0,0.0,120.0,11.0,0.0
8562,55.0,0.0,120.0,3.0,0.0
8563,55.0,0.0,60.0,13.0,0.0
8564,51.0,8.0,60.0,12.0,0.0
8565,58.0,0.0,60.0,12.0,0.0
8566,27.0,0.0,90.0,15.0,0.0
8567,39.0,0.0,90.0,14.0,0.0
8568,56.0,0.0,60.0,13.0,0.0
8569,60.0,8.0,60.0,12.0,0.0
8570,51.0,0.0,60.0,12.0,0.0
8571,27.0,7.0,90.0,3.0,0.0
8572,60.0,0.0,60.0,12.0,0.0
8573,75.0,0.0,60.0,0.0,0.0
8574,63.0,0.0,60.0,2.0,0.0
8575,68.0,0.0,60.0,2.0,0.0
8576,68.0,0.0,60.0,5.0,0.0
8577,72.0,0.0,60.0,5.0,0.0
8578,51.0,0.0,60.0,12.0,0.0
8579,75.0,0.0,60.0,11.0,0.0
8580,75.0,8.0,60.0,1.0,0.0
8581,51.0,0.0,60.0,3.0,0.0
8582,60.0,0.0,60.0,4.0,0.0
8583,56.0,0.0,60.0,4.0,0.0
8584,56.0,0.0,60.0,3.0,0.0
8585,39.0,52.0,60.0,10.0,0.0
8586,87.0,0.0,60.0,0.0,0.0
8587,56.0,0.0,60.0,13.0,0.0
8588,72.0,0.0,210.0,2.0,0.0
8589,56.0,0.0,210.0,3.0,0.0
8590,60.0,0.0,210.0,3.0,0.0
8591,68.0,0.0,210.0,5.0,0.0
8592,72.0,0.0,210.0,5.0,0.0
8593,27.0,0.0,210.0,3.0,0.0
8594,56.0,8.0,60.0,13.0,0.0
8595,68.0,7.0,210.0,2.0,0.0
8596,77.0,52.0,60.0,0.0,0.0
8597,77.0,0.0,60.0,11.0,0.0
8598,51.0,0.0,60.0,12.0,0.0
8599,39.0,90.0,240.0,10.0,0.0
8600,60.0,0.0,60.0,12.0,0.0
8601,77.0,0.0,60.0,1.0,0.0
8602,60.0,0.0,210.0,4.0,0.0
8603,39.0,0.0,210.0,14.0,0.0
8604,89.0,0.0,60.0,0.0,0.0
8605,27.0,0.0,210.0,15.0,0.0
8606,56.0,0.0,210.0,4.0,0.0
8607,56.0,0.0,60.0,13.0,0.0
8608,75.0,0.0,60.0,11.0,0.0
8609,75.0,0.0,60.0,0.0,0.0
8610,60.0,0.0,60.0,12.0,0.0
8611,75.0,52.0,60.0,1.0,0.0
8612,51.0,8.0,60.0,12.0,0.0
8613,87.0,0.0,60.0,0.0,0.0
8614,73.0,0.0,60.0,1.0,0.0
8615,85.0,45.0,60.0,0.0,0.0
8616,60.0,0.0,60.0,12.0,0.0
8617,51.0,8.0,60.0,12.0,0.0
8618,73.0,0.0,60.0,11.0,0.0
8619,56.0,0.0,60.0,13.0,0.0
8620,73.0,0.0,60.0,0.0,0.0
8621,84.0,8.0,60.0,0.0,0.0
8622,51.0,0.0,60.0,12.0,0.0
8623,72.0,0.0,60.0,0.0,0.0
8624,60.0,0.0,60.0,12.0,0.0
8625,56.0,0.0,60.0,13.0,0.0
8626,72.0,0.0,60.0,11.0,0.0
8627,72.0,0.0,60.0,1.0,0.0
8628,55.0,0.0,120.0,3.0,0.0
8629,58.0,0.0,120.0,3.0,0.0
8630,70.0,0.0,90.0,11.0,0.0
8631,27.0,0.0,240.0,15.0,0.0
8632,70.0,0.0,120.0,0.0,0.0
8633,55.0,15.0,90.0,13.0,0.0
8634,67.0,0.0,240.0,6.0,0.0
8635,39.0,0.0,120.0,10.0,0.0
8636,58.0,0.0,90.0,12.0,0.0
8637,70.0,0.0,120.0,5.0,0.0
8638,70.0,0.0,120.0,2.0,0.0
8639,67.0,0.0,120.0,2.0,0.0
8640,39.0,0.0,240.0,8.0,0.0
8641,51.0,0.0,120.0,4.0,0.0
8642,27.0,0.0,240.0,3.0,0.0
8643,70.0,120.0,120.0,1.0,0.0
8644,39.0,0.0,240.0,14.0,0.0
8645,58.0,0.0,120.0,4.0,0.0
8646,58.0,0.0,240.0,7.0,0.0
8647,51.0,15.0,90.0,12.0,0.0
8648,63.0,0.0,120.0,5.0,0.0
8649,82.0,0.0,120.0,0.0,0.0
8650,75.0,0.0,120.0,12.0,0.0
8651,63.0,105.0,120.0,13.0,0.0
8652,75.0,0.0,120.0,11.0,0.0
8653,73.0,0.0,90.0,11.0,0.0
8654,61.0,105.0,90.0,13.0,0.0
8655,73.0,0.0,90.0,12.0,0.0
8656,72.0,0.0,90.0,12.0,0.0
8657,60.0,0.0,90.0,13.0,0.0
8658,72.0,120.0,90.0,11.0,0.0
8659,70.0,0.0,90.0,11.0,0.0
8660,70.0,0.0,90.0,12.0,0.0
8661,58.0,150.0,90.0,13.0,0.0
8662,72.0,105.0,120.0,11.0,0.0
8663,72.0,0.0,120.0,12.0,0.0
8664,60.0,0.0,120.0,13.0,0.0
8665,60.0,0.0,120.0,3.0,0.0
8666,70.0,0.0,90.0,12.0,0.0
8667,58.0,90.0,120.0,3.0,0.0
8668,58.0,15.0,90.0,13.0,0.0
8669,70.0,0.0,90.0,11.0,0.0
8670,68.0,0.0,90.0,11.0,0.0
8671,68.0,0.0,90.0,12.0,0.0
8672,56.0,120.0,90.0,13.0,0.0
8673,56.0,0.0,90.0,3.0,0.0
8674,55.0,150.0,90.0,3.0,0.0
8675,67.0,0.0,90.0,12.0,0.0
8676,55.0,0.0,90.0,13.0,0.0
8677,67.0,0.0,90.0,11.0,0.0
8678,60.0,0.0,120.0,13.0,0.0
8679,72.0,105.0,120.0,2.0,0.0
8680,60.0,0.0,120.0,3.0,0.0
8681,72.0,0.0,120.0,12.0,0.0
8682,60.0,0.0,120.0,14.0,0.0
8683,72.0,0.0,120.0,11.0,0.0
8684,70.0,0.0,90.0,11.0,0.0
8685,70.0,0.0,90.0,12.0,0.0
8686,70.0,0.0,90.0,2.0,0.0
8687,58.0,0.0,90.0,13.0,0.0
8688,58.0,0.0,90.0,3.0,0.0
8689,58.0,105.0,90.0,14.0,0.0
8690,56.0,0.0,90.0,14.0,0.0
8691,68.0,120.0,90.0,11.0,0.0
8692,56.0,0.0,90.0,3.0,0.0
8693,56.0,0.0,90.0,13.0,0.0
8694,68.0,0.0,90.0,2.0,0.0
8695,68.0,0.0,90.0,12.0,0.0
8696,67.0,0.0,90.0,12.0,0.0
8697,67.0,0.0,90.0,2.0,0.0
8698,55.0,0.0,90.0,3.0,0.0
8699,67.0,0.0,90.0,11.0,0.0
8700,55.0,0.0,90.0,13.0,0.0
8701,55.0,150.0,90.0,14.0,0.0
8702,68.0,0.0,120.0,12.0,0.0
8703,56.0,0.0,120.0,3.0,0.0
8704,56.0,0.0,120.0,14.0,0.0
8705,68.0,105.0,120.0,11.0,0.0
8706,68.0,0.0,120.0,2.0,0.0
8707,56.0,0.0,120.0,13.0,0.0
8708,55.0,0.0,90.0,13.0,0.0
8709,67.0,105.0,90.0,12.0,0.0
8710,67.0,0.0,90.0,11.0,0.0
8711,55.0,0.0,90.0,14.0,0.0
8712,55.0,0.0,90.0,3.0,0.0
8713,67.0,0.0,90.0,2.0,0.0
8714,65.0,0.0,90.0,2.0,0.0
8715,65.0,0.0,90.0,11.0,0.0
8716,53.0,0.0,90.0,14.0,0.0
8717,65.0,120.0,90.0,12.0,0.0
8718,53.0,0.0,90.0,13.0,0.0
8719,53.0,0.0,90.0,3.0,0.0
8720,51.0,150.0,90.0,3.0,0.0
8721,63.0,0.0,90.0,2.0,0.0
8722,51.0,0.0,90.0,13.0,0.0
8723,51.0,0.0,90.0,14.0,0.0
8724,63.0,0.0,90.0,11.0,0.0
8725,63.0,0.0,90.0,12.0,0.0
8726,68.0,0.0,120.0,11.0,0.0
8727,56.0,105.0,120.0,14.0,0.0
8728,56.0,0.0,120.0,3.0,0.0
8729,56.0,0.0,120.0,13.0,0.0
8730,68.0,0.0,120.0,12.0,0.0
8731,68.0,0.0,120.0,2.0,0.0
8732,68.0,0.0,120.0,1.0,0.0
8733,67.0,0.0,90.0,12.0,0.0
8734,55.0,0.0,90.0,14.0,0.0
8735,67.0,0.0,90.0,11.0,0.0
8736,55.0,0.0,90.0,3.0,0.0
8737,67.0,0.0,90.0,1.0,0.0
8738,67.0,0.0,90.0,2.0,0.0
8739,55.0,105.0,90.0,13.0,0.0
8740,53.0,0.0,90.0,3.0,0.0
8741,65.0,0.0,90.0,2.0,0.0
8742,53.0,120.0,90.0,14.0,0.0
8743,65.0,0.0,90.0,1.0,0.0
8744,53.0,0.0,90.0,13.0,0.0
8745,65.0,0.0,90.0,11.0,0.0
8746,65.0,0.0,90.0,12.0,0.0
8747,63.0,150.0,90.0,12.0,0.0
8748,51.0,0.0,90.0,14.0,0.0
8749,63.0,0.0,90.0,1.0,0.0
8750,63.0,0.0,90.0,2.0,0.0
8751,51.0,0.0,90.0,3.0,0.0
8752,63.0,0.0,90.0,11.0,0.0
8753,51.0,0.0,90.0,13.0,0.0
8754,56.0,0.0,120.0,14.0,0.0
8755,56.0,105.0,120.0,13.0,0.0
8756,56.0,0.0,120.0,3.0,0.0
8757,80.0,0.0,120.0,0.0,0.0
8758,68.0,0.0,120.0,11.0,0.0
8759,68.0,0.0,120.0,12.0,0.0
8760,68.0,0.0,120.0,2.0,0.0
8761,68.0,0.0,120.0,1.0,0.0
8762,55.0,0.0,90.0,3.0,0.0
8763,67.0,0.0,90.0,1.0,0.0
8764,67.0,0.0,90.0,12.0,0.0
8765,67.0,0.0,90.0,2.0,0.0
8766,79.0,0.0,90.0,0.0,0.0
8767,67.0,0.0,90.0,11.0,0.0
8768,55.0,105.0,90.0,13.0,0.0
8769,55.0,0.0,90.0,14.0,0.0
8770,65.0,0.0,90.0,1.0,0.0
8771,53.0,0.0,90.0,3.0,0.0
8772,77.0,0.0,90.0,0.0,0.0
8773,65.0,0.0,90.0,12.0,0.0
8774,65.0,0.0,90.0,11.0,0.0
8775,65.0,120.0,90.0,2.0,0.0
8776,53.0,0.0,90.0,14.0,0.0
8777,53.0,0.0,90.0,13.0,0.0
8778,51.0,0.0,90.0,13.0,0.0
8779,51.0,0.0,90.0,3.0,0.0
8780,75.0,0.0,90.0,0.0,0.0
8781,51.0,0.0,90.0,14.0,0.0
8782,63.0,150.0,90.0,2.0,0.0
8783,63.0,0.0,90.0,12.0,0.0
8784,63.0,0.0,90.0,11.0,0.0
8785,63.0,0.0,90.0,1.0,0.0
8786,68.0,0.0,120.0,11.0,0.0
8787,44.0,0.0,120.0,3.0,0.0
8788,92.0,0.0,120.0,0.0,0.0
8789,68.0,0.0,120.0,1.0,0.0
8790,56.0,0.0,120.0,13.0,0.0
8791,68.0,105.0,120.0,2.0,0.0
8792,44.0,0.0,120.0,15.0,0.0
8793,56.0,0.0,120.0,3.0,0.0
8794,80.0,0.0,120.0,0.0,0.0
8795,56.0,0.0,120.0,14.0,0.0
8796,68.0,0.0,120.0,12.0,0.0
8797,55.0,105.0,90.0,13.0,0.0
8798,55.0,0.0,90.0,14.0,0.0
8799,67.0,0.0,90.0,2.0,0.0
8800,67.0,0.0,90.0,11.0,0.0
8801,55.0,0.0,90.0,3.0,0.0
8802,43.0,0.0,90.0,15.0,0.0
8803,79.0,0.0,90.0,0.0,0.0
8804,67.0,0.0,90.0,1.0,0.0
8805,91.0,0.0,90.0,0.0,0.0
8806,43.0,0.0,90.0,3.0,0.0
8807,67.0,0.0,90.0,12.0,0.0
8808,65.0,0.0,90.0,1.0,0.0
8809,53.0,0.0,90.0,13.0,0.0
8810,77.0,0.0,90.0,0.0,0.0
8811,89.0,0.0,90.0,0.0,0.0
8812,65.0,0.0,90.0,2.0,0.0
8813,65.0,0.0,90.0,11.0,0.0
8814,53.0,0.0,90.0,14.0,0.0
8815,53.0,0.0,90.0,3.0,0.0
8816,41.0,0.0,90.0,3.0,0.0
8817,65.0,0.0,90.0,12.0,0.0
8818,41.0,120.0,90.0,15.0,0.0
8819,75.0,0.0,90.0,0.0,0.0
8820,63.0,0.0,90.0,12.0,0.0
8821,63.0,120.0,90.0,1.0,0.0
8822,63.0,0.0,90.0,2.0,0.0
8823,63.0,0.0,90.0,11.0,0.0
8824,87.0,0.0,90.0,0.0,0.0
8825,39.0,0.0,90.0,15.0,0.0
8826,51.0,0.0,90.0,3.0,0.0
8827,51.0,0.0,90.0,14.0,0.0
8828,51.0,0.0,90.0,13.0,0.0
8829,39.0,0.0,90.0,3.0,0.0
8830,61.0,0.0,90.0,11.0,0.0
8831,73.0,0.0,90.0,1.0,0.0
8832,85.0,0.0,90.0,0.0,0.0
8833,49.0,0.0,90.0,14.0,0.0
8834,49.0,0.0,90.0,3.0,0.0
8835,37.0,0.0,90.0,3.0,0.0
8836,73.0,120.0,90.0,0.0,0.0
8837,37.0,0.0,90.0,15.0,0.0
8838,49.0,0.0,90.0,13.0,0.0
8839,61.0,0.0,90.0,12.0,0.0
8840,61.0,0.0,90.0,2.0,0.0
8841,48.0,120.0,90.0,3.0,0.0
8842,48.0,0.0,90.0,13.0,0.0
8843,36.0,0.0,90.0,3.0,0.0
8844,48.0,0.0,90.0,14.0,0.0
8845,72.0,0.0,90.0,0.0,0.0
8846,72.0,0.0,90.0,1.0,0.0
8847,84.0,0.0,90.0,0.0,0.0
8848,60.0,0.0,90.0,2.0,0.0
8849,60.0,0.0,90.0,11.0,0.0
8850,36.0,0.0,90.0,15.0,0.0
8851,60.0,0.0,90.0,12.0,0.0
8852,70.0,0.0,90.0,0.0,0.0
8853,70.0,0.0,90.0,1.0,0.0
8854,46.0,0.0,90.0,3.0,0.0
8855,34.0,0.0,90.0,3.0,0.0
8856,58.0,0.0,90.0,2.0,0.0
8857,46.0,0.0,90.0,14.0,0.0
8858,58.0,0.0,90.0,12.0,0.0
8859,58.0,82.0,90.0,11.0,0.0
8860,46.0,0.0,90.0,13.0,0.0
8861,34.0,0.0,90.0,15.0,0.0
8862,82.0,0.0,90.0,0.0,0.0
8863,32.0,0.0,240.0,15.0,0.0
8864,48.0,0.0,690.0,4.0,0.0
8865,68.0,0.0,240.0,0.0,0.0
8866,44.0,60.0,60.0,13.0,0.0
8867,60.0,0.0,690.0,2.0,0.0
8868,68.0,0.0,690.0,2.0,0.0
8869,56.0,0.0,240.0,11.0,0.0
8870,80.0,0.0,240.0,0.0,0.0
8871,56.0,0.0,690.0,4.0,0.0
8872,44.0,52.0,240.0,14.0,0.0
8873,32.0,0.0,240.0,3.0,0.0
8874,56.0,0.0,60.0,12.0,0.0
8875,68.0,7.0,690.0,1.0,0.0
8876,60.0,0.0,690.0,1.0,0.0
8877,56.0,0.0,690.0,3.0,0.0
8878,48.0,0.0,690.0,3.0,0.0
8879,56.0,60.0,60.0,12.0,0.0
8880,48.0,0.0,60.0,13.0,0.0
8881,51.0,0.0,60.0,13.0,0.0
8882,56.0,0.0,60.0,12.0,0.0
8883,48.0,60.0,60.0,13.0,0.0
8884,51.0,0.0,60.0,13.0,0.0
8885,51.0,0.0,60.0,13.0,0.0
8886,56.0,8.0,60.0,12.0,0.0
8887,48.0,0.0,60.0,13.0,0.0
8888,56.0,60.0,60.0,12.0,0.0
8889,48.0,0.0,60.0,13.0,0.0
8890,51.0,0.0,60.0,13.0,0.0
8891,48.0,0.0,60.0,13.0,0.0
8892,51.0,0.0,60.0,13.0,0.0
8893,56.0,60.0,60.0,12.0,0.0
8894,51.0,0.0,60.0,13.0,0.0
8895,56.0,0.0,60.0,12.0,0.0
8896,48.0,60.0,60.0,13.0,0.0
8897,56.0,0.0,60.0,12.0,0.0
8898,51.0,0.0,60.0,13.0,0.0
8899,48.0,60.0,60.0,13.0,0.0
8900,51.0,0.0,60.0,13.0,0.0
8901,48.0,60.0,60.0,13.0,0.0
8902,56.0,0.0,60.0,12.0,0.0
8903,56.0,0.0,60.0,12.0,0.0
8904,48.0,60.0,60.0,13.0,0.0
8905,51.0,0.0,60.0,13.0,0.0
8906,51.0,53.0,60.0,13.0,0.0
8907,56.0,0.0,60.0,12.0,0.0
8908,48.0,0.0,60.0,13.0,0.0
8909,56.0,0.0,60.0,12.0,0.0
8910,48.0,0.0,60.0,13.0,0.0
8911,51.0,60.0,60.0,13.0,0.0
8912,48.0,60.0,60.0,13.0,0.0
8913,60.0,0.0,240.0,2.0,0.0
8914,63.0,0.0,240.0,2.0,0.0
8915,48.0,0.0,240.0,4.0,0.0
8916,63.0,0.0,240.0,1.0,0.0
8917,60.0,52.0,240.0,1.0,0.0
8918,56.0,0.0,60.0,12.0,0.0
8919,51.0,0.0,240.0,4.0,0.0
8920,48.0,0.0,240.0,3.0,0.0
8921,51.0,0.0,240.0,3.0,0.0
8922,51.0,0.0,60.0,13.0,0.0
8923,48.0,60.0,60.0,13.0,0.0
8924,51.0,0.0,60.0,13.0,0.0
8925,56.0,0.0,60.0,12.0,0.0
8926,51.0,0.0,60.0,13.0,0.0
8927,48.0,0.0,60.0,13.0,0.0
8928,56.0,60.0,60.0,12.0,0.0
8929,48.0,0.0,60.0,13.0,0.0
8930,51.0,0.0,60.0,13.0,0.0
8931,56.0,8.0,60.0,12.0,0.0
8932,72.0,0.0,720.0,1.0,0.0
8933,60.0,0.0,720.0,4.0,0.0
8934,51.0,0.0,720.0,4.0,0.0
8935,60.0,0.0,720.0,3.0,0.0
8936,51.0,52.0,720.0,3.0,0.0
8937,63.0,0.0,720.0,2.0,0.0
8938,51.0,60.0,60.0,13.0,0.0
8939,56.0,0.0,60.0,12.0,0.0
8940,72.0,0.0,720.0,2.0,0.0
8941,48.0,0.0,60.0,13.0,0.0
8942,63.0,0.0,720.0,1.0,0.0
8943,51.0,0.0,60.0,13.0,0.0
8944,48.0,60.0,60.0,13.0,0.0
8945,56.0,0.0,60.0,12.0,0.0
8946,56.0,0.0,60.0,12.0,0.0
8947,51.0,60.0,60.0,13.0,0.0
8948,48.0,0.0,60.0,13.0,0.0
8949,51.0,0.0,60.0,13.0,0.0
8950,56.0,0.0,60.0,12.0,0.0
8951,48.0,60.0,60.0,13.0,0.0
8952,48.0,0.0,60.0,13.0,0.0
8953,56.0,60.0,60.0,12.0,0.0
8954,51.0,0.0,60.0,13.0,0.0
8955,48.0,0.0,60.0,13.0,0.0
8956,51.0,60.0,60.0,13.0,0.0
8957,56.0,0.0,60.0,12.0,0.0
8958,56.0,60.0,60.0,12.0,0.0
8959,48.0,0.0,60.0,13.0,0.0
8960,51.0,0.0,60.0,13.0,0.0
8961,51.0,0.0,60.0,13.0,0.0
8962,56.0,60.0,60.0,12.0,0.0
8963,48.0,0.0,60.0,13.0,0.0
8964,48.0,60.0,60.0,13.0,0.0
8965,51.0,0.0,60.0,13.0,0.0
8966,56.0,0.0,60.0,12.0,0.0
8967,48.0,60.0,60.0,13.0,0.0
8968,51.0,0.0,60.0,13.0,0.0
8969,56.0,0.0,60.0,12.0,0.0
8970,51.0,60.0,60.0,13.0,0.0
8971,48.0,0.0,60.0,13.0,0.0
8972,56.0,0.0,60.0,12.0,0.0
8973,51.0,8.0,60.0,13.0,0.0
8974,48.0,0.0,60.0,13.0,0.0
8975,56.0,0.0,60.0,12.0,0.0
8976,61.0,0.0,180.0,2.0,0.0
8977,70.0,0.0,180.0,1.0,0.0
8978,51.0,0.0,60.0,13.0,0.0
8979,61.0,0.0,180.0,1.0,0.0
8980,70.0,0.0,180.0,2.0,0.0
8981,48.0,60.0,60.0,13.0,0.0
8982,49.0,0.0,180.0,3.0,0.0
8983,56.0,0.0,60.0,12.0,0.0
8984,51.0,52.0,180.0,4.0,0.0
8985,58.0,0.0,180.0,4.0,0.0
8986,58.0,0.0,180.0,3.0,0.0
8987,48.0,60.0,60.0,13.0,0.0
8988,51.0,0.0,60.0,13.0,0.0
8989,56.0,0.0,60.0,12.0,0.0
8990,51.0,0.0,60.0,13.0,0.0
8991,48.0,0.0,60.0,13.0,0.0
8992,56.0,8.0,60.0,12.0,0.0
8993,68.0,0.0,60.0,1.0,0.0
8994,56.0,60.0,60.0,4.0,0.0
8995,48.0,0.0,60.0,4.0,0.0
8996,56.0,0.0,60.0,3.0,0.0
8997,48.0,0.0,60.0,3.0,0.0
8998,48.0,0.0,60.0,13.0,0.0
8999,51.0,0.0,60.0,13.0,0.0
9000,60.0,0.0,60.0,1.0,0.0
9001,60.0,0.0,60.0,2.0,0.0
9002,68.0,0.0,60.0,2.0,0.0
9003,56.0,0.0,60.0,12.0,0.0
9004,58.0,0.0,1890.0,4.0,0.0
9005,51.0,0.0,240.0,7.0,0.0
9006,67.0,0.0,240.0,11.0,0.0
9007,58.0,0.0,240.0,11.0,0.0
9008,46.0,0.0,240.0,3.0,0.0
9009,55.0,0.0,240.0,3.0,0.0
9010,27.0,0.0,570.0,3.0,0.0
9011,51.0,0.0,60.0,13.0,0.0
9012,39.0,52.0,60.0,10.0,0.0
9013,55.0,8.0,60.0,12.0,0.0
9014,39.0,7.0,570.0,14.0,0.0
9015,49.0,0.0,60.0,13.0,0.0
9016,51.0,0.0,1890.0,4.0,0.0
9017,46.0,0.0,240.0,8.0,0.0
9018,51.0,0.0,240.0,11.0,0.0
9019,27.0,0.0,570.0,15.0,0.0
9020,55.0,0.0,240.0,6.0,0.0
9021,63.0,0.0,1890.0,5.0,0.0
9022,70.0,0.0,1890.0,5.0,0.0
9023,67.0,0.0,240.0,1.0,0.0
9024,58.0,0.0,240.0,1.0,0.0
9025,79.0,0.0,1890.0,0.0,0.0
9026,67.0,52.0,240.0,2.0,0.0
9027,58.0,0.0,240.0,2.0,0.0
9028,58.0,0.0,60.0,12.0,0.0
9029,82.0,7.0,1890.0,0.0,0.0
9030,39.0,52.0,60.0,10.0,0.0
9031,49.0,0.0,60.0,13.0,0.0
9032,58.0,8.0,60.0,12.0,0.0
9033,55.0,0.0,60.0,12.0,0.0
9034,51.0,0.0,60.0,13.0,0.0
9035,55.0,0.0,60.0,12.0,0.0
9036,39.0,52.0,60.0,10.0,0.0
9037,58.0,0.0,60.0,12.0,0.0
9038,51.0,8.0,60.0,13.0,0.0
9039,49.0,0.0,60.0,13.0,0.0
9040,58.0,0.0,60.0,12.0,0.0
9041,55.0,0.0,60.0,12.0,0.0
9042,49.0,8.0,60.0,13.0,0.0
9043,51.0,0.0,60.0,13.0,0.0
9044,39.0,0.0,60.0,10.0,0.0
9045,49.0,0.0,60.0,13.0,0.0
9046,51.0,8.0,60.0,13.0,0.0
9047,55.0,0.0,60.0,12.0,0.0
9048,58.0,0.0,60.0,12.0,0.0
9049,39.0,52.0,60.0,10.0,0.0
9050,55.0,0.0,60.0,12.0,0.0
9051,51.0,8.0,60.0,13.0,0.0
9052,49.0,0.0,60.0,13.0,0.0
9053,58.0,0.0,60.0,12.0,0.0
9054,39.0,52.0,60.0,10.0,0.0
9055,39.0,52.0,60.0,10.0,0.0
9056,55.0,0.0,60.0,12.0,0.0
9057,51.0,0.0,60.0,13.0,0.0
9058,49.0,0.0,60.0,13.0,0.0
9059,58.0,8.0,60.0,12.0,0.0
9060,49.0,8.0,60.0,13.0,0.0
9061,51.0,0.0,60.0,13.0,0.0
9062,39.0,52.0,60.0,10.0,0.0
9063,55.0,0.0,60.0,12.0,0.0
9064,58.0,0.0,60.0,12.0,0.0
9065,55.0,0.0,240.0,6.0,0.0
9066,46.0,52.0,240.0,8.0,0.0
9067,51.0,0.0,60.0,13.0,0.0
9068,51.0,0.0,240.0,7.0,0.0
9069,58.0,0.0,60.0,12.0,0.0
9070,67.0,0.0,240.0,11.0,0.0
9071,51.0,0.0,240.0,11.0,0.0
9072,58.0,0.0,240.0,11.0,0.0
9073,39.0,45.0,60.0,10.0,0.0
9074,49.0,0.0,60.0,13.0,0.0
9075,55.0,8.0,60.0,12.0,0.0
9076,49.0,0.0,60.0,13.0,0.0
9077,55.0,0.0,60.0,12.0,0.0
9078,58.0,8.0,60.0,12.0,0.0
9079,51.0,0.0,60.0,13.0,0.0
9080,39.0,52.0,60.0,10.0,0.0
9081,27.0,22.0,90.0,3.0,0.0
9082,55.0,8.0,60.0,12.0,0.0
9083,58.0,0.0,60.0,12.0,0.0
9084,27.0,0.0,90.0,15.0,0.0
9085,39.0,30.0,60.0,10.0,0.0
9086,49.0,0.0,60.0,13.0,0.0
9087,39.0,0.0,90.0,14.0,0.0
9088,51.0,0.0,60.0,13.0,0.0
9089,39.0,0.0,60.0,10.0,0.0
9090,55.0,0.0,60.0,12.0,0.0
9091,58.0,0.0,60.0,12.0,0.0
9092,51.0,8.0,60.0,13.0,0.0
9093,49.0,0.0,60.0,13.0,0.0
9094,39.0,30.0,60.0,10.0,0.0
9095,31.0,0.0,90.0,15.0,0.0
9096,55.0,8.0,60.0,12.0,0.0
9097,58.0,0.0,60.0,12.0,0.0
9098,43.0,22.0,90.0,14.0,0.0
9099,51.0,0.0,60.0,13.0,0.0
9100,49.0,0.0,60.0,13.0,0.0
9101,31.0,0.0,90.0,3.0,0.0
9102,39.0,52.0,60.0,10.0,0.0
9103,55.0,0.0,60.0,12.0,0.0
9104,58.0,0.0,60.0,12.0,0.0
9105,49.0,0.0,60.0,13.0,0.0
9106,51.0,8.0,60.0,13.0,0.0
9107,55.0,0.0,60.0,12.0,0.0
9108,58.0,0.0,60.0,12.0,0.0
9109,46.0,0.0,90.0,14.0,0.0
9110,39.0,30.0,60.0,10.0,0.0
9111,34.0,22.0,90.0,3.0,0.0
9112,34.0,0.0,90.0,15.0,0.0
9113,51.0,0.0,60.0,13.0,0.0
9114,49.0,8.0,60.0,13.0,0.0
9115,55.0,0.0,60.0,12.0,0.0
9116,49.0,0.0,60.0,13.0,0.0
9117,51.0,0.0,60.0,13.0,0.0
9118,39.0,52.0,60.0,10.0,0.0
9119,58.0,8.0,60.0,12.0,0.0
9120,55.0,0.0,60.0,12.0,0.0
9121,58.0,0.0,60.0,12.0,0.0
9122,55.0,0.0,240.0,6.0,0.0
9123,51.0,0.0,240.0,7.0,0.0
9124,51.0,0.0,240.0,11.0,0.0
9125,39.0,30.0,60.0,10.0,0.0
9126,37.0,0.0,90.0,3.0,0.0
9127,37.0,22.0,90.0,15.0,0.0
9128,58.0,0.0,240.0,11.0,0.0
9129,51.0,0.0,60.0,13.0,0.0
9130,49.0,8.0,60.0,13.0,0.0
9131,49.0,0.0,90.0,14.0,0.0
9132,67.0,52.0,240.0,11.0,0.0
9133,46.0,0.0,240.0,8.0,0.0
9134,49.0,0.0,60.0,13.0,0.0
9135,39.0,52.0,60.0,10.0,0.0
9136,51.0,8.0,60.0,13.0,0.0
9137,58.0,0.0,60.0,12.0,0.0
9138,55.0,0.0,60.0,12.0,0.0
9139,58.0,0.0,60.0,12.0,0.0
9140,39.0,22.0,90.0,15.0,0.0
9141,51.0,0.0,60.0,13.0,0.0
9142,39.0,0.0,90.0,3.0,0.0
9143,51.0,0.0,90.0,14.0,0.0
9144,39.0,30.0,60.0,10.0,0.0
9145,55.0,8.0,60.0,12.0,0.0
9146,49.0,0.0,60.0,13.0,0.0
9147,55.0,0.0,60.0,12.0,0.0
9148,49.0,8.0,60.0,13.0,0.0
9149,51.0,0.0,60.0,13.0,0.0
9150,39.0,0.0,60.0,10.0,0.0
9151,58.0,0.0,60.0,12.0,0.0
9152,58.0,0.0,60.0,12.0,0.0
9153,55.0,0.0,90.0,14.0,0.0
9154,51.0,0.0,60.0,13.0,0.0
9155,43.0,0.0,90.0,3.0,0.0
9156,43.0,22.0,90.0,15.0,0.0
9157,39.0,30.0,60.0,10.0,0.0
9158,55.0,8.0,60.0,12.0,0.0
9159,49.0,0.0,60.0,13.0,0.0
9160,58.0,0.0,60.0,12.0,0.0
9161,49.0,0.0,60.0,13.0,0.0
9162,51.0,8.0,60.0,13.0,0.0
9163,55.0,0.0,60.0,12.0,0.0
9164,39.0,52.0,60.0,10.0,0.0
9165,46.0,0.0,90.0,3.0,0.0
9166,51.0,0.0,60.0,13.0,0.0
9167,46.0,0.0,90.0,15.0,0.0
9168,55.0,0.0,60.0,12.0,0.0
9169,58.0,0.0,60.0,12.0,0.0
9170,39.0,30.0,60.0,10.0,0.0
9171,58.0,22.0,90.0,14.0,0.0
9172,49.0,8.0,60.0,13.0,0.0
9173,58.0,0.0,60.0,12.0,0.0
9174,55.0,0.0,60.0,12.0,0.0
9175,51.0,0.0,60.0,13.0,0.0
9176,49.0,8.0,60.0,13.0,0.0
9177,39.0,52.0,60.0,10.0,0.0
9178,55.0,0.0,60.0,12.0,0.0
9179,58.0,8.0,60.0,12.0,0.0
9180,67.0,0.0,240.0,11.0,0.0
9181,49.0,7.0,90.0,15.0,0.0
9182,51.0,0.0,240.0,11.0,0.0
9183,51.0,0.0,60.0,13.0,0.0
9184,55.0,52.0,240.0,6.0,0.0
9185,61.0,0.0,90.0,14.0,0.0
9186,58.0,0.0,240.0,11.0,0.0
9187,49.0,0.0,90.0,3.0,0.0
9188,49.0,0.0,60.0,13.0,0.0
9189,39.0,45.0,60.0,10.0,0.0
9190,46.0,0.0,240.0,8.0,0.0
9191,51.0,0.0,240.0,7.0,0.0
9192,39.0,52.0,60.0,10.0,0.0
9193,49.0,0.0,60.0,13.0,0.0
9194,55.0,0.0,60.0,12.0,0.0
9195,58.0,0.0,60.0,12.0,0.0
9196,51.0,8.0,60.0,13.0,0.0
9197,58.0,0.0,60.0,12.0,0.0
9198,51.0,7.0,90.0,15.0,0.0
9199,39.0,45.0,60.0,10.0,0.0
9200,55.0,0.0,60.0,12.0,0.0
9201,51.0,0.0,90.0,3.0,0.0
9202,63.0,0.0,90.0,14.0,0.0
9203,51.0,8.0,60.0,13.0,0.0
9204,49.0,0.0,60.0,13.0,0.0
9205,39.0,0.0,60.0,10.0,0.0
9206,51.0,0.0,60.0,13.0,0.0
9207,49.0,0.0,60.0,13.0,0.0
9208,58.0,0.0,60.0,12.0,0.0
9209,55.0,8.0,60.0,12.0,0.0
9210,49.0,0.0,60.0,13.0,0.0
9211,55.0,0.0,60.0,12.0,0.0
9212,58.0,0.0,60.0,12.0,0.0
9213,51.0,8.0,60.0,13.0,0.0
9214,61.0,0.0,90.0,14.0,0.0
9215,39.0,45.0,60.0,10.0,0.0
9216,49.0,0.0,90.0,3.0,0.0
9217,49.0,7.0,90.0,15.0,0.0
9218,58.0,0.0,60.0,12.0,0.0
9219,55.0,0.0,60.0,12.0,0.0
9220,39.0,52.0,60.0,10.0,0.0
9221,49.0,8.0,60.0,13.0,0.0
9222,51.0,0.0,60.0,13.0,0.0
9223,49.0,0.0,60.0,13.0,0.0
9224,51.0,0.0,60.0,13.0,0.0
9225,58.0,0.0,90.0,14.0,0.0
9226,58.0,0.0,60.0,12.0,0.0
9227,55.0,8.0,60.0,12.0,0.0
9228,39.0,45.0,60.0,10.0,0.0
9229,46.0,0.0,90.0,15.0,0.0
9230,46.0,0.0,90.0,3.0,0.0
9231,49.0,0.0,60.0,13.0,0.0
9232,51.0,0.0,60.0,13.0,0.0
9233,39.0,52.0,60.0,10.0,0.0
9234,58.0,8.0,60.0,12.0,0.0
9235,55.0,0.0,60.0,12.0,0.0
9236,70.0,0.0,690.0,1.0,0.0
9237,43.0,0.0,90.0,15.0,0.0
9238,70.0,7.0,690.0,2.0,0.0
9239,58.0,0.0,690.0,4.0,0.0
9240,51.0,0.0,690.0,4.0,0.0
9241,58.0,0.0,240.0,6.0,0.0
9242,67.0,0.0,690.0,2.0,0.0
9243,55.0,52.0,240.0,7.0,0.0
9244,51.0,0.0,240.0,8.0,0.0
9245,55.0,0.0,90.0,14.0,0.0
9246,67.0,0.0,690.0,1.0,0.0
9247,51.0,53.0,60.0,13.0,0.0
9248,49.0,0.0,60.0,13.0,0.0
9249,79.0,0.0,240.0,0.0,0.0
9250,43.0,7.0,90.0,3.0,0.0
9251,39.0,0.0,240.0,10.0,0.0
9252,82.0,0.0,240.0,0.0,0.0
9253,61.0,0.0,240.0,11.0,0.0
9254,70.0,0.0,240.0,5.0,0.0
9255,63.0,0.0,240.0,5.0,0.0
9256,58.0,0.0,690.0,3.0,0.0
9257,51.0,0.0,240.0,11.0,0.0
9258,55.0,0.0,690.0,3.0,0.0
9259,55.0,0.0,60.0,12.0,0.0
9260,70.0,0.0,240.0,11.0,0.0
9261,58.0,0.0,60.0,12.0,0.0
9262,49.0,0.0,60.0,13.0,0.0
9263,55.0,0.0,60.0,12.0,0.0
9264,58.0,0.0,60.0,12.0,0.0
9265,51.0,60.0,60.0,13.0,0.0
9266,46.0,0.0,90.0,3.0,0.0
9267,58.0,0.0,60.0,12.0,0.0
9268,51.0,0.0,60.0,13.0,0.0
9269,49.0,0.0,60.0,13.0,0.0
9270,55.0,53.0,60.0,12.0,0.0
9271,58.0,7.0,90.0,14.0,0.0
9272,46.0,0.0,90.0,15.0,0.0
9273,49.0,8.0,60.0,13.0,0.0
9274,51.0,0.0,60.0,13.0,0.0
9275,58.0,0.0,60.0,12.0,0.0
9276,55.0,0.0,60.0,12.0,0.0
9277,43.0,0.0,90.0,3.0,0.0
9278,51.0,0.0,60.0,13.0,0.0
9279,49.0,0.0,60.0,13.0,0.0
9280,43.0,7.0,90.0,15.0,0.0
9281,55.0,0.0,60.0,12.0,0.0
9282,58.0,53.0,60.0,12.0,0.0
9283,55.0,0.0,90.0,14.0,0.0
9284,58.0,0.0,60.0,12.0,0.0
9285,55.0,0.0,60.0,12.0,0.0
9286,51.0,0.0,60.0,13.0,0.0
9287,49.0,60.0,60.0,13.0,0.0
9288,58.0,0.0,60.0,12.0,0.0
9289,49.0,0.0,60.0,13.0,0.0
9290,51.0,0.0,60.0,13.0,0.0
9291,51.0,7.0,90.0,14.0,0.0
9292,39.0,0.0,90.0,15.0,0.0
9293,55.0,53.0,60.0,12.0,0.0
9294,39.0,0.0,90.0,3.0,0.0
9295,58.0,60.0,60.0,12.0,0.0
9296,49.0,0.0,60.0,13.0,0.0
9297,55.0,0.0,60.0,12.0,0.0
9298,51.0,0.0,60.0,13.0,0.0
9299,58.0,0.0,60.0,12.0,0.0
9300,55.0,53.0,60.0,12.0,0.0
9301,49.0,0.0,60.0,13.0,0.0
9302,51.0,0.0,60.0,13.0,0.0
9303,37.0,0.0,90.0,15.0,0.0
9304,49.0,0.0,90.0,14.0,0.0
9305,37.0,7.0,90.0,3.0,0.0
9306,55.0,60.0,60.0,12.0,0.0
9307,58.0,0.0,60.0,12.0,0.0
9308,49.0,0.0,60.0,13.0,0.0
9309,51.0,0.0,60.0,13.0,0.0
9310,46.0,0.0,90.0,14.0,0.0
9311,34.0,0.0,90.0,3.0,0.0
9312,49.0,0.0,60.0,13.0,0.0
9313,51.0,0.0,60.0,13.0,0.0
9314,55.0,0.0,60.0,12.0,0.0
9315,58.0,53.0,60.0,12.0,0.0
9316,34.0,0.0,90.0,15.0,0.0
9317,55.0,0.0,60.0,12.0,0.0
9318,51.0,0.0,60.0,13.0,0.0
9319,49.0,60.0,60.0,13.0,0.0
9320,58.0,0.0,60.0,12.0,0.0
9321,55.0,0.0,60.0,12.0,0.0
9322,51.0,53.0,60.0,13.0,0.0
9323,31.0,0.0,90.0,15.0,0.0
9324,43.0,0.0,90.0,14.0,0.0
9325,63.0,0.0,240.0,1.0,0.0
9326,58.0,0.0,60.0,12.0,0.0
9327,63.0,0.0,240.0,2.0,0.0
9328,51.0,0.0,240.0,4.0,0.0
9329,31.0,7.0,90.0,3.0,0.0
9330,49.0,0.0,60.0,13.0,0.0
9331,51.0,52.0,240.0,3.0,0.0
9332,58.0,0.0,60.0,12.0,0.0
9333,55.0,0.0,60.0,12.0,0.0
9334,51.0,0.0,60.0,13.0,0.0
9335,49.0,60.0,60.0,13.0,0.0
9336,55.0,53.0,60.0,12.0,0.0
9337,58.0,0.0,60.0,12.0,0.0
9338,46.0,0.0,90.0,14.0,0.0
9339,34.0,7.0,90.0,3.0,0.0
9340,49.0,0.0,60.0,13.0,0.0
9341,51.0,0.0,60.0,13.0,0.0
9342,34.0,0.0,90.0,15.0,0.0
9343,55.0,0.0,60.0,12.0,0.0
9344,49.0,0.0,60.0,13.0,0.0
9345,51.0,8.0,60.0,13.0,0.0
9346,58.0,0.0,60.0,12.0,0.0
9347,58.0,0.0,720.0,4.0,0.0
9348,58.0,0.0,720.0,3.0,0.0
9349,70.0,0.0,720.0,2.0,0.0
9350,73.0,52.0,720.0,2.0,0.0
9351,39.0,0.0,240.0,14.0,0.0
9352,55.0,0.0,60.0,12.0,0.0
9353,61.0,0.0,720.0,4.0,0.0
9354,73.0,0.0,720.0,1.0,0.0
9355,70.0,0.0,720.0,1.0,0.0
9356,61.0,0.0,720.0,3.0,0.0
9357,58.0,60.0,60.0,12.0,0.0
9358,51.0,0.0,60.0,13.0,0.0
9359,49.0,0.0,60.0,13.0,0.0
9360,27.0,52.0,240.0,15.0,0.0
9361,27.0,0.0,240.0,3.0,0.0
9362,55.0,0.0,60.0,12.0,0.0
9363,49.0,0.0,60.0,13.0,0.0
9364,51.0,0.0,60.0,13.0,0.0
9365,58.0,60.0,60.0,12.0,0.0
9366,49.0,0.0,60.0,13.0,0.0
9367,51.0,60.0,60.0,13.0,0.0
9368,55.0,0.0,60.0,12.0,0.0
9369,58.0,0.0,60.0,12.0,0.0
9370,58.0,0.0,60.0,12.0,0.0
9371,51.0,0.0,60.0,13.0,0.0
9372,49.0,0.0,60.0,13.0,0.0
9373,55.0,8.0,60.0,12.0,0.0
9374,58.0,60.0,60.0,12.0,0.0
9375,55.0,0.0,60.0,12.0,0.0
9376,49.0,0.0,60.0,13.0,0.0
9377,51.0,0.0,60.0,13.0,0.0
9378,55.0,0.0,60.0,12.0,0.0
9379,58.0,60.0,60.0,12.0,0.0
9380,51.0,0.0,60.0,13.0,0.0
9381,49.0,0.0,60.0,13.0,0.0
9382,58.0,60.0,60.0,12.0,0.0
9383,55.0,0.0,60.0,12.0,0.0
9384,49.0,0.0,60.0,13.0,0.0
9385,51.0,0.0,60.0,13.0,0.0
9386,55.0,0.0,60.0,12.0,0.0
9387,51.0,60.0,60.0,13.0,0.0
9388,58.0,0.0,60.0,12.0,0.0
9389,49.0,0.0,60.0,13.0,0.0
9390,51.0,60.0,60.0,13.0,0.0
9391,58.0,0.0,60.0,12.0,0.0
9392,55.0,0.0,60.0,12.0,0.0
9393,49.0,0.0,60.0,13.0,0.0
9394,49.0,0.0,60.0,13.0,0.0
9395,51.0,0.0,60.0,13.0,0.0
9396,55.0,60.0,60.0,12.0,0.0
9397,58.0,0.0,60.0,12.0,0.0
9398,58.0,0.0,60.0,12.0,0.0
9399,55.0,0.0,60.0,12.0,0.0
9400,51.0,0.0,60.0,13.0,0.0
9401,49.0,60.0,60.0,13.0,0.0
9402,49.0,8.0,60.0,13.0,0.0
9403,51.0,0.0,60.0,13.0,0.0
9404,55.0,0.0,60.0,12.0,0.0
9405,58.0,0.0,60.0,12.0,0.0
9406,51.0,0.0,60.0,13.0,0.0
9407,56.0,0.0,180.0,4.0,0.0
9408,56.0,0.0,180.0,3.0,0.0
9409,60.0,0.0,180.0,3.0,0.0
9410,72.0,0.0,180.0,1.0,0.0
9411,68.0,0.0,180.0,2.0,0.0
9412,72.0,0.0,180.0,2.0,0.0
9413,49.0,0.0,60.0,13.0,0.0
9414,58.0,60.0,60.0,12.0,0.0
9415,60.0,52.0,180.0,4.0,0.0
9416,68.0,0.0,180.0,1.0,0.0
9417,55.0,0.0,60.0,12.0,0.0
9418,55.0,0.0,60.0,12.0,0.0
9419,49.0,0.0,60.0,13.0,0.0
9420,51.0,60.0,60.0,13.0,0.0
9421,58.0,0.0,60.0,12.0,0.0
9422,49.0,0.0,60.0,13.0,0.0
9423,51.0,0.0,60.0,13.0,0.0
9424,55.0,8.0,60.0,12.0,0.0
9425,58.0,0.0,60.0,12.0,0.0
9426,58.0,0.0,60.0,4.0,0.0
9427,51.0,0.0,60.0,4.0,0.0
9428,70.0,0.0,60.0,1.0,0.0
9429,58.0,0.0,60.0,12.0,0.0
9430,58.0,0.0,60.0,3.0,0.0
9431,67.0,0.0,60.0,1.0,0.0
9432,55.0,0.0,60.0,12.0,0.0
9433,49.0,0.0,60.0,13.0,0.0
9434,55.0,0.0,60.0,3.0,0.0
9435,51.0,0.0,60.0,13.0,0.0
9436,67.0,60.0,60.0,2.0,0.0
9437,70.0,0.0,60.0,2.0,0.0
9438,44.0,0.0,240.0,8.0,0.0
9439,60.0,0.0,60.0,12.0,0.0
9440,56.0,0.0,60.0,12.0,0.0
9441,60.0,0.0,240.0,11.0,0.0
9442,84.0,0.0,1890.0,0.0,0.0
9443,67.0,0.0,240.0,1.0,0.0
9444,68.0,0.0,240.0,11.0,0.0
9445,56.0,0.0,240.0,7.0,0.0
9446,51.0,0.0,60.0,13.0,0.0
9447,48.0,8.0,60.0,13.0,0.0
9448,67.0,0.0,240.0,2.0,0.0
9449,70.0,52.0,240.0,2.0,0.0
9450,72.0,0.0,240.0,11.0,0.0
9451,32.0,0.0,570.0,14.0,0.0
9452,72.0,0.0,1890.0,5.0,0.0
9453,68.0,0.0,1890.0,5.0,0.0
9454,70.0,0.0,240.0,1.0,0.0
9455,58.0,0.0,240.0,4.0,0.0
9456,60.0,0.0,240.0,6.0,0.0
9457,51.0,0.0,240.0,11.0,0.0
9458,32.0,7.0,570.0,3.0,0.0
9459,44.0,52.0,60.0,10.0,0.0
9460,58.0,0.0,240.0,3.0,0.0
9461,55.0,0.0,240.0,3.0,0.0
9462,80.0,0.0,1890.0,0.0,0.0
9463,51.0,0.0,240.0,4.0,0.0
9464,32.0,0.0,570.0,15.0,0.0
9465,60.0,0.0,60.0,12.0,0.0
9466,56.0,8.0,60.0,12.0,0.0
9467,51.0,0.0,60.0,13.0,0.0
9468,48.0,0.0,60.0,13.0,0.0
9469,44.0,52.0,60.0,10.0,0.0
9470,44.0,52.0,60.0,10.0,0.0
9471,60.0,0.0,60.0,12.0,0.0
9472,51.0,8.0,60.0,13.0,0.0
9473,56.0,0.0,60.0,12.0,0.0
9474,48.0,0.0,60.0,13.0,0.0
9475,60.0,8.0,60.0,12.0,0.0
9476,51.0,0.0,60.0,13.0,0.0
9477,48.0,0.0,60.0,13.0,0.0
9478,56.0,0.0,60.0,12.0,0.0
9479,44.0,0.0,60.0,10.0,0.0
9480,51.0,8.0,60.0,13.0,0.0
9481,68.0,0.0,1650.0,1.0,0.0
9482,56.0,0.0,60.0,12.0,0.0
9483,56.0,0.0,1650.0,4.0,0.0
9484,60.0,0.0,1650.0,4.0,0.0
9485,72.0,0.0,1650.0,1.0,0.0
9486,60.0,0.0,60.0,12.0,0.0
9487,44.0,52.0,60.0,10.0,0.0
9488,56.0,0.0,1650.0,3.0,0.0
9489,72.0,0.0,1650.0,2.0,0.0
9490,68.0,7.0,1650.0,2.0,0.0
9491,48.0,0.0,60.0,13.0,0.0
9492,60.0,0.0,1650.0,3.0,0.0
9493,48.0,8.0,60.0,13.0,0.0
9494,51.0,0.0,60.0,13.0,0.0
9495,60.0,0.0,60.0,12.0,0.0
9496,56.0,0.0,60.0,12.0,0.0
9497,44.0,52.0,60.0,10.0,0.0
9498,48.0,0.0,60.0,13.0,0.0
9499,51.0,0.0,60.0,13.0,0.0
9500,56.0,0.0,60.0,12.0,0.0
9501,60.0,8.0,60.0,12.0,0.0
9502,44.0,52.0,60.0,10.0,0.0
9503,56.0,0.0,60.0,12.0,0.0
9504,48.0,0.0,60.0,13.0,0.0
9505,44.0,52.0,60.0,10.0,0.0
9506,60.0,8.0,60.0,12.0,0.0
9507,51.0,0.0,60.0,13.0,0.0
9508,44.0,45.0,60.0,10.0,0.0
9509,60.0,52.0,240.0,11.0,0.0
9510,68.0,0.0,240.0,11.0,0.0
9511,56.0,0.0,240.0,7.0,0.0
9512,72.0,0.0,240.0,11.0,0.0
9513,51.0,0.0,240.0,11.0,0.0
9514,44.0,0.0,240.0,8.0,0.0
9515,60.0,0.0,240.0,6.0,0.0
9516,56.0,0.0,60.0,12.0,0.0
9517,48.0,0.0,60.0,13.0,0.0
9518,60.0,0.0,60.0,12.0,0.0
9519,51.0,8.0,60.0,13.0,0.0
9520,44.0,52.0,60.0,10.0,0.0
9521,56.0,0.0,60.0,12.0,0.0
9522,60.0,8.0,60.0,12.0,0.0
9523,51.0,0.0,60.0,13.0,0.0
9524,48.0,0.0,60.0,13.0,0.0
9525,60.0,0.0,60.0,12.0,0.0
9526,56.0,8.0,60.0,12.0,0.0
9527,44.0,45.0,60.0,10.0,0.0
9528,32.0,0.0,90.0,3.0,0.0
9529,51.0,0.0,60.0,13.0,0.0
9530,48.0,0.0,60.0,13.0,0.0
9531,32.0,0.0,90.0,14.0,0.0
9532,32.0,7.0,90.0,15.0,0.0
9533,60.0,0.0,60.0,12.0,0.0
9534,44.0,0.0,60.0,10.0,0.0
9535,48.0,0.0,60.0,13.0,0.0
9536,51.0,0.0,60.0,13.0,0.0
9537,56.0,8.0,60.0,12.0,0.0
9538,44.0,45.0,60.0,10.0,0.0
9539,36.0,7.0,90.0,15.0,0.0
9540,56.0,0.0,60.0,12.0,0.0
9541,51.0,0.0,60.0,13.0,0.0
9542,48.0,8.0,60.0,13.0,0.0
9543,60.0,0.0,60.0,12.0,0.0
9544,36.0,0.0,90.0,14.0,0.0
9545,36.0,0.0,90.0,3.0,0.0
9546,56.0,8.0,60.0,12.0,0.0
9547,48.0,0.0,60.0,13.0,0.0
9548,44.0,52.0,60.0,10.0,0.0
9549,51.0,0.0,60.0,13.0,0.0
9550,60.0,0.0,60.0,12.0,0.0
9551,27.0,7.0,90.0,3.0,0.0
9552,44.0,45.0,60.0,10.0,0.0
9553,27.0,0.0,90.0,15.0,0.0
9554,39.0,0.0,90.0,14.0,0.0
9555,56.0,0.0,60.0,12.0,0.0
9556,51.0,8.0,60.0,13.0,0.0
9557,48.0,0.0,60.0,13.0,0.0
9558,60.0,0.0,60.0,12.0,0.0
9559,51.0,0.0,60.0,13.0,0.0
9560,48.0,0.0,60.0,13.0,0.0
9561,60.0,8.0,60.0,12.0,0.0
9562,56.0,0.0,60.0,12.0,0.0
9563,44.0,52.0,60.0,10.0,0.0
9564,44.0,45.0,60.0,10.0,0.0
9565,68.0,0.0,240.0,11.0,0.0
9566,51.0,0.0,240.0,11.0,0.0
9567,60.0,52.0,240.0,11.0,0.0
9568,72.0,0.0,240.0,11.0,0.0
9569,60.0,0.0,60.0,12.0,0.0
9570,56.0,0.0,60.0,12.0,0.0
9571,32.0,0.0,90.0,3.0,0.0
9572,32.0,0.0,90.0,15.0,0.0
9573,44.0,7.0,90.0,14.0,0.0
9574,44.0,0.0,240.0,8.0,0.0
9575,60.0,0.0,240.0,6.0,0.0
9576,51.0,0.0,60.0,13.0,0.0
9577,48.0,8.0,60.0,13.0,0.0
9578,56.0,0.0,240.0,7.0,0.0
9579,48.0,0.0,60.0,13.0,0.0
9580,44.0,52.0,60.0,10.0,0.0
9581,60.0,0.0,60.0,12.0,0.0
9582,56.0,0.0,60.0,12.0,0.0
9583,51.0,8.0,60.0,13.0,0.0
9584,48.0,7.0,90.0,14.0,0.0
9585,51.0,0.0,60.0,13.0,0.0
9586,48.0,0.0,60.0,13.0,0.0
9587,44.0,45.0,60.0,10.0,0.0
9588,56.0,8.0,60.0,12.0,0.0
9589,36.0,0.0,90.0,3.0,0.0
9590,60.0,0.0,60.0,12.0,0.0
9591,36.0,0.0,90.0,15.0,0.0
9592,44.0,0.0,60.0,10.0,0.0
9593,48.0,8.0,60.0,13.0,0.0
9594,60.0,0.0,60.0,12.0,0.0
9595,56.0,0.0,60.0,12.0,0.0
9596,51.0,0.0,60.0,13.0,0.0
9597,51.0,0.0,90.0,14.0,0.0
9598,51.0,8.0,60.0,13.0,0.0
9599,48.0,0.0,60.0,13.0,0.0
9600,60.0,0.0,60.0,12.0,0.0
9601,39.0,7.0,90.0,15.0,0.0
9602,56.0,0.0,60.0,12.0,0.0
9603,44.0,45.0,60.0,10.0,0.0
9604,39.0,0.0,90.0,3.0,0.0
9605,48.0,0.0,60.0,13.0,0.0
9606,51.0,0.0,60.0,13.0,0.0
9607,60.0,0.0,60.0,12.0,0.0
9608,56.0,8.0,60.0,12.0,0.0
9609,44.0,52.0,60.0,10.0,0.0
9610,48.0,8.0,60.0,13.0,0.0
9611,56.0,0.0,90.0,14.0,0.0
9612,44.0,7.0,90.0,15.0,0.0
9613,44.0,0.0,90.0,3.0,0.0
9614,56.0,0.0,60.0,12.0,0.0
9615,60.0,0.0,60.0,12.0,0.0
9616,51.0,0.0,60.0,13.0,0.0
9617,44.0,45.0,60.0,10.0,0.0
9618,51.0,0.0,60.0,13.0,0.0
9619,56.0,0.0,60.0,12.0,0.0
9620,44.0,52.0,60.0,10.0,0.0
9621,48.0,8.0,60.0,13.0,0.0
9622,60.0,0.0,60.0,12.0,0.0
9623,51.0,0.0,240.0,11.0,0.0
9624,60.0,0.0,240.0,11.0,0.0
9625,48.0,0.0,90.0,3.0,0.0
9626,72.0,0.0,240.0,11.0,0.0
9627,60.0,7.0,90.0,14.0,0.0
9628,68.0,0.0,240.0,11.0,0.0
9629,60.0,52.0,240.0,6.0,0.0
9630,48.0,0.0,90.0,15.0,0.0
9631,51.0,0.0,60.0,13.0,0.0
9632,44.0,0.0,240.0,8.0,0.0
9633,44.0,45.0,60.0,10.0,0.0
9634,56.0,8.0,60.0,12.0,0.0
9635,60.0,0.0,60.0,12.0,0.0
9636,48.0,0.0,60.0,13.0,0.0
9637,56.0,0.0,240.0,7.0,0.0
9638,48.0,8.0,60.0,13.0,0.0
9639,51.0,0.0,60.0,13.0,0.0
9640,44.0,52.0,60.0,10.0,0.0
9641,56.0,0.0,60.0,12.0,0.0
9642,60.0,0.0,60.0,12.0,0.0
9643,44.0,7.0,90.0,3.0,0.0
9644,48.0,8.0,60.0,13.0,0.0
9645,44.0,0.0,90.0,15.0,0.0
9646,60.0,0.0,60.0,12.0,0.0
9647,56.0,0.0,60.0,12.0,0.0
9648,56.0,0.0,90.0,14.0,0.0
9649,51.0,0.0,60.0,13.0,0.0
9650,44.0,45.0,60.0,10.0,0.0
9651,48.0,0.0,60.0,13.0,0.0
9652,51.0,0.0,60.0,13.0,0.0
9653,44.0,0.0,60.0,10.0,0.0
9654,60.0,8.0,60.0,12.0,0.0
9655,56.0,0.0,60.0,12.0,0.0
9656,51.0,7.0,90.0,14.0,0.0
9657,44.0,45.0,60.0,10.0,0.0
9658,56.0,0.0,60.0,12.0,0.0
9659,60.0,0.0,60.0,12.0,0.0
9660,39.0,0.0,90.0,15.0,0.0
9661,48.0,0.0,60.0,13.0,0.0
9662,39.0,0.0,90.0,3.0,0.0
9663,51.0,8.0,60.0,13.0,0.0
9664,51.0,0.0,60.0,13.0,0.0
9665,48.0,0.0,60.0,13.0,0.0
9666,44.0,52.0,60.0,10.0,0.0
9667,56.0,8.0,60.0,12.0,0.0
9668,60.0,0.0,60.0,12.0,0.0
9669,36.0,0.0,90.0,3.0,0.0
9670,44.0,45.0,60.0,10.0,0.0
9671,51.0,0.0,60.0,13.0,0.0
9672,48.0,0.0,60.0,13.0,0.0
9673,56.0,0.0,60.0,12.0,0.0
9674,36.0,0.0,90.0,15.0,0.0
9675,48.0,0.0,90.0,14.0,0.0
9676,60.0,8.0,60.0,12.0,0.0
9677,44.0,105.0,60.0,10.0,0.0
9678,60.0,0.0,60.0,12.0,0.0
9679,56.0,0.0,60.0,12.0,0.0
9680,48.0,8.0,60.0,13.0,0.0
9681,51.0,0.0,60.0,13.0,0.0
9682,56.0,0.0,240.0,7.0,0.0
9683,68.0,0.0,240.0,11.0,0.0
9684,68.0,0.0,240.0,12.0,0.0
9685,60.0,0.0,240.0,12.0,0.0
9686,72.0,240.0,690.0,12.0,0.0
9687,51.0,0.0,240.0,12.0,0.0
9688,44.0,0.0,240.0,8.0,0.0
9689,80.0,0.0,240.0,0.0,0.0
9690,72.0,0.0,240.0,1.0,0.0
9691,44.0,0.0,90.0,3.0,0.0
9692,72.0,0.0,690.0,11.0,0.0
9693,44.0,0.0,90.0,14.0,0.0
9694,68.0,0.0,240.0,2.0,0.0
9695,72.0,0.0,240.0,2.0,0.0
9696,56.0,15.0,930.0,5.0,0.0
9697,68.0,0.0,930.0,5.0,0.0
9698,44.0,0.0,930.0,4.0,0.0
9699,56.0,0.0,930.0,4.0,0.0
9700,44.0,105.0,240.0,10.0,0.0
9701,84.0,0.0,240.0,0.0,0.0
9702,48.0,0.0,960.0,13.0,0.0
9703,60.0,0.0,240.0,11.0,0.0
9704,80.0,0.0,240.0,1.0,0.0
9705,60.0,0.0,240.0,6.0,0.0
9706,32.0,0.0,90.0,15.0,0.0
9707,48.0,0.0,1410.0,3.0,0.0
9708,32.0,120.0,90.0,3.0,0.0
9709,43.0,0.0,90.0,3.0,0.0
9710,31.0,0.0,90.0,15.0,0.0
9711,43.0,15.0,90.0,14.0,0.0
9712,31.0,0.0,90.0,3.0,0.0
9713,44.0,120.0,90.0,14.0,0.0
9714,32.0,0.0,90.0,3.0,0.0
9715,32.0,0.0,90.0,15.0,0.0
9716,44.0,0.0,90.0,3.0,0.0
9717,44.0,0.0,90.0,3.0,0.0
9718,32.0,0.0,90.0,15.0,0.0
9719,32.0,240.0,90.0,3.0,0.0
9720,44.0,0.0,90.0,14.0,0.0
9721,32.0,120.0,570.0,15.0,0.0
9722,44.0,0.0,570.0,3.0,0.0
9723,44.0,0.0,570.0,14.0,0.0
9724,32.0,0.0,570.0,3.0,0.0
9725,56.0,0.0,240.0,12.0,0.0
9726,68.0,105.0,240.0,11.0,0.0
9727,44.0,0.0,240.0,10.0,0.0
9728,48.0,15.0,450.0,13.0,0.0
9729,56.0,7.0,930.0,4.0,0.0
9730,56.0,0.0,240.0,7.0,0.0
9731,72.0,0.0,240.0,11.0,0.0
9732,84.0,0.0,240.0,0.0,0.0
9733,80.0,0.0,240.0,0.0,0.0
9734,60.0,0.0,240.0,12.0,0.0
9735,44.0,0.0,240.0,8.0,0.0
9736,56.0,0.0,930.0,5.0,0.0
9737,68.0,0.0,930.0,5.0,0.0
9738,72.0,0.0,240.0,2.0,0.0
9739,68.0,0.0,240.0,2.0,0.0
9740,60.0,0.0,240.0,6.0,0.0
9741,72.0,0.0,240.0,1.0,0.0
9742,44.0,0.0,930.0,4.0,0.0
9743,80.0,105.0,240.0,1.0,0.0
9744,31.0,0.0,90.0,3.0,0.0
9745,31.0,0.0,90.0,15.0,0.0
9746,43.0,15.0,90.0,14.0,0.0
9747,43.0,0.0,90.0,3.0,0.0
9748,68.0,225.0,240.0,11.0,0.0
9749,32.0,0.0,90.0,15.0,0.0
9750,56.0,0.0,240.0,12.0,0.0
9751,32.0,0.0,90.0,3.0,0.0
9752,44.0,0.0,90.0,3.0,0.0
9753,44.0,120.0,90.0,14.0,0.0
9754,32.0,0.0,90.0,3.0,0.0
9755,32.0,0.0,90.0,15.0,0.0
9756,44.0,0.0,90.0,3.0,0.0
9757,44.0,0.0,90.0,14.0,0.0
9758,44.0,0.0,570.0,14.0,0.0
9759,48.0,15.0,210.0,3.0,0.0
9760,48.0,0.0,240.0,13.0,0.0
9761,63.0,180.0,240.0,12.0,0.0
9762,32.0,0.0,570.0,15.0,0.0
9763,44.0,120.0,570.0,3.0,0.0
9764,75.0,0.0,240.0,11.0,0.0
9765,32.0,0.0,570.0,3.0,0.0
9766,50.0,0.0,180.0,13.0,0.0
9767,50.0,0.0,180.0,3.0,0.0
9768,62.0,45.0,180.0,12.0,0.0
9769,74.0,0.0,180.0,11.0,0.0
9770,51.0,113.0,60.0,3.0,0.0
9771,72.0,0.0,60.0,11.0,0.0
9772,60.0,0.0,60.0,12.0,0.0
9773,51.0,0.0,60.0,13.0,0.0
9774,62.0,0.0,240.0,2.0,0.0
9775,68.0,0.0,240.0,2.0,0.0
9776,50.0,15.0,1410.0,3.0,0.0
9777,44.0,0.0,240.0,10.0,0.0
9778,77.0,0.0,240.0,1.0,0.0
9779,62.0,0.0,240.0,6.0,0.0
9780,86.0,0.0,240.0,0.0,0.0
9781,80.0,0.0,240.0,0.0,0.0
9782,58.0,15.0,930.0,4.0,0.0
9783,70.0,0.0,930.0,5.0,0.0
9784,62.0,240.0,690.0,12.0,0.0
9785,46.0,105.0,240.0,8.0,0.0
9786,56.0,0.0,240.0,7.0,0.0
9787,50.0,0.0,960.0,13.0,0.0
9788,74.0,0.0,690.0,11.0,0.0
9789,74.0,0.0,240.0,1.0,0.0
9790,45.0,0.0,90.0,14.0,0.0
9791,45.0,0.0,90.0,3.0,0.0
9792,33.0,0.0,90.0,3.0,0.0
9793,33.0,15.0,90.0,15.0,0.0
9794,34.0,0.0,90.0,15.0,0.0
9795,46.0,0.0,90.0,14.0,0.0
9796,34.0,0.0,90.0,3.0,0.0
9797,46.0,120.0,90.0,3.0,0.0
9798,34.0,0.0,90.0,3.0,0.0
9799,46.0,0.0,90.0,14.0,0.0
9800,34.0,0.0,90.0,15.0,0.0
9801,46.0,240.0,90.0,3.0,0.0
9802,46.0,0.0,570.0,14.0,0.0
9803,46.0,120.0,570.0,3.0,0.0
9804,34.0,0.0,570.0,15.0,0.0
9805,34.0,0.0,570.0,3.0,0.0
9806,68.0,0.0,240.0,11.0,0.0
9807,56.0,105.0,240.0,12.0,0.0
9808,74.0,0.0,240.0,1.0,0.0
9809,77.0,0.0,240.0,1.0,0.0
9810,70.0,7.0,930.0,5.0,0.0
9811,50.0,0.0,450.0,13.0,0.0
9812,86.0,0.0,240.0,0.0,0.0
9813,56.0,0.0,240.0,7.0,0.0
9814,65.0,0.0,240.0,2.0,0.0
9815,80.0,0.0,240.0,0.0,0.0
9816,58.0,0.0,930.0,4.0,0.0
9817,68.0,0.0,240.0,2.0,0.0
9818,62.0,0.0,240.0,12.0,0.0
9819,74.0,0.0,240.0,11.0,0.0
9820,46.0,0.0,240.0,8.0,0.0
9821,62.0,105.0,240.0,6.0,0.0
9822,45.0,0.0,90.0,3.0,0.0
9823,33.0,15.0,90.0,3.0,0.0
9824,33.0,0.0,90.0,15.0,0.0
9825,45.0,0.0,90.0,14.0,0.0
9826,46.0,0.0,90.0,3.0,0.0
9827,46.0,120.0,90.0,14.0,0.0
9828,34.0,0.0,90.0,15.0,0.0
9829,56.0,225.0,240.0,12.0,0.0
9830,34.0,0.0,90.0,3.0,0.0
9831,68.0,0.0,240.0,11.0,0.0
9832,34.0,0.0,90.0,15.0,0.0
9833,46.0,0.0,90.0,3.0,0.0
9834,34.0,0.0,90.0,3.0,0.0
9835,46.0,0.0,90.0,14.0,0.0
9836,34.0,0.0,570.0,3.0,0.0
9837,50.0,15.0,210.0,3.0,0.0
9838,46.0,0.0,570.0,3.0,0.0
9839,50.0,0.0,240.0,13.0,0.0
9840,77.0,180.0,240.0,11.0,0.0
9841,46.0,0.0,570.0,14.0,0.0
9842,65.0,0.0,240.0,12.0,0.0
9843,34.0,120.0,570.0,15.0,0.0
9844,63.0,0.0,180.0,12.0,0.0
9845,51.0,0.0,180.0,3.0,0.0
9846,51.0,45.0,180.0,13.0,0.0
9847,75.0,0.0,180.0,11.0,0.0
9848,53.0,113.0,60.0,3.0,0.0
9849,62.0,0.0,60.0,12.0,0.0
9850,53.0,0.0,60.0,13.0,0.0
9851,74.0,0.0,60.0,11.0,0.0
9852,55.0,0.0,450.0,3.0,0.0
9853,75.0,0.0,240.0,1.0,0.0
9854,70.0,7.0,930.0,5.0,0.0
9855,63.0,0.0,240.0,12.0,0.0
9856,58.0,0.0,930.0,4.0,0.0
9857,63.0,0.0,240.0,2.0,0.0
9858,67.0,0.0,240.0,2.0,0.0
9859,55.0,0.0,450.0,13.0,0.0
9860,63.0,0.0,240.0,6.0,0.0
9861,87.0,105.0,240.0,0.0,0.0
9862,79.0,0.0,240.0,1.0,0.0
9863,82.0,0.0,240.0,0.0,0.0
9864,55.0,0.0,240.0,7.0,0.0
9865,46.0,0.0,240.0,8.0,0.0
9866,75.0,0.0,240.0,11.0,0.0
9867,45.0,0.0,90.0,3.0,0.0
9868,33.0,0.0,90.0,3.0,0.0
9869,33.0,0.0,90.0,15.0,0.0
9870,45.0,15.0,90.0,14.0,0.0
9871,34.0,0.0,90.0,15.0,0.0
9872,34.0,0.0,90.0,3.0,0.0
9873,46.0,120.0,90.0,3.0,0.0
9874,46.0,0.0,90.0,14.0,0.0
9875,70.0,225.0,240.0,11.0,0.0
9876,58.0,0.0,240.0,12.0,0.0
9877,46.0,0.0,90.0,14.0,0.0
9878,34.0,0.0,90.0,3.0,0.0
9879,34.0,15.0,90.0,15.0,0.0
9880,46.0,0.0,90.0,3.0,0.0
9881,87.0,0.0,240.0,0.0,0.0
9882,79.0,0.0,240.0,11.0,0.0
9883,34.0,0.0,570.0,15.0,0.0
9884,34.0,0.0,570.0,3.0,0.0
9885,75.0,0.0,240.0,1.0,0.0
9886,79.0,0.0,240.0,1.0,0.0
9887,82.0,180.0,240.0,0.0,0.0
9888,67.0,0.0,240.0,12.0,0.0
9889,46.0,120.0,570.0,14.0,0.0
9890,46.0,0.0,570.0,3.0,0.0
9891,63.0,0.0,240.0,2.0,0.0
9892,67.0,0.0,240.0,2.0,0.0
9893,51.0,15.0,210.0,3.0,0.0
9894,51.0,0.0,240.0,13.0,0.0
9895,53.0,0.0,180.0,13.0,0.0
9896,77.0,0.0,180.0,11.0,0.0
9897,65.0,45.0,180.0,12.0,0.0
9898,53.0,0.0,180.0,3.0,0.0
9899,55.0,0.0,60.0,3.0,0.0
9900,55.0,0.0,60.0,13.0,0.0
9901,75.0,113.0,60.0,11.0,0.0
9902,63.0,0.0,60.0,12.0,0.0
9903,58.0,0.0,930.0,4.0,0.0
9904,74.0,0.0,330.0,11.0,0.0
9905,56.0,0.0,240.0,7.0,0.0
9906,62.0,0.0,330.0,12.0,0.0
9907,70.0,0.0,930.0,5.0,0.0
9908,82.0,0.0,240.0,0.0,0.0
9909,86.0,0.0,240.0,0.0,0.0
9910,53.0,120.0,450.0,13.0,0.0
9911,74.0,105.0,240.0,1.0,0.0
9912,53.0,0.0,450.0,3.0,0.0
9913,46.0,0.0,240.0,8.0,0.0
9914,62.0,0.0,240.0,2.0,0.0
9915,62.0,0.0,240.0,6.0,0.0
9916,65.0,0.0,240.0,2.0,0.0
9917,77.0,0.0,240.0,1.0,0.0
9918,45.0,0.0,90.0,3.0,0.0
9919,33.0,0.0,90.0,3.0,0.0
9920,33.0,0.0,90.0,15.0,0.0
9921,45.0,15.0,90.0,14.0,0.0
9922,46.0,0.0,90.0,14.0,0.0
9923,34.0,120.0,90.0,15.0,0.0
9924,34.0,0.0,90.0,3.0,0.0
9925,46.0,0.0,90.0,3.0,0.0
9926,46.0,0.0,90.0,14.0,0.0
9927,70.0,0.0,90.0,11.0,0.0
9928,58.0,0.0,90.0,12.0,0.0
9929,34.0,0.0,90.0,15.0,0.0
9930,34.0,0.0,90.0,3.0,0.0
9931,46.0,0.0,90.0,3.0,0.0
9932,65.0,0.0,240.0,2.0,0.0
9933,65.0,0.0,360.0,12.0,0.0
9934,46.0,120.0,90.0,3.0,0.0
9935,46.0,0.0,90.0,14.0,0.0
9936,62.0,0.0,240.0,2.0,0.0
9937,50.0,0.0,360.0,3.0,0.0
9938,56.0,0.0,240.0,7.0,0.0
9939,86.0,105.0,240.0,0.0,0.0
9940,62.0,0.0,240.0,6.0,0.0
9941,82.0,0.0,240.0,0.0,0.0
9942,34.0,0.0,90.0,3.0,0.0
9943,74.0,0.0,240.0,1.0,0.0
9944,77.0,0.0,240.0,1.0,0.0
9945,77.0,0.0,360.0,11.0,0.0
9946,50.0,60.0,360.0,13.0,0.0
9947,46.0,0.0,240.0,8.0,0.0
9948,34.0,0.0,90.0,15.0,0.0
9949,33.0,0.0,90.0,15.0,0.0
9950,33.0,15.0,90.0,3.0,0.0
9951,45.0,0.0,90.0,14.0,0.0
9952,45.0,0.0,90.0,3.0,0.0
9953,46.0,0.0,90.0,3.0,0.0
9954,34.0,15.0,90.0,15.0,0.0
9955,46.0,0.0,90.0,14.0,0.0
9956,34.0,0.0,90.0,3.0,0.0
9957,34.0,0.0,90.0,3.0,0.0
9958,46.0,7.0,90.0,14.0,0.0
9959,75.0,0.0,60.0,11.0,0.0
9960,63.0,45.0,60.0,12.0,0.0
9961,46.0,0.0,90.0,3.0,0.0
9962,51.0,0.0,60.0,3.0,0.0
9963,51.0,0.0,60.0,13.0,0.0
9964,34.0,0.0,90.0,15.0,0.0
9965,74.0,113.0,60.0,11.0,0.0
9966,62.0,0.0,60.0,12.0,0.0
9967,53.0,0.0,60.0,3.0,0.0
9968,53.0,0.0,60.0,13.0,0.0
9969,75.0,0.0,240.0,1.0,0.0
9970,79.0,0.0,240.0,1.0,0.0
9971,34.0,0.0,90.0,3.0,0.0
9972,82.0,0.0,240.0,0.0,0.0
9973,58.0,0.0,930.0,4.0,0.0
9974,87.0,0.0,240.0,0.0,0.0
9975,63.0,0.0,240.0,2.0,0.0
9976,75.0,0.0,330.0,11.0,0.0
9977,63.0,120.0,330.0,12.0,0.0
9978,34.0,120.0,90.0,15.0,0.0
9979,67.0,0.0,240.0,2.0,0.0
9980,46.0,0.0,240.0,8.0,0.0
9981,63.0,0.0,240.0,6.0,0.0
9982,55.0,105.0,240.0,7.0,0.0
9983,70.0,0.0,930.0,5.0,0.0
9984,55.0,0.0,450.0,13.0,0.0
9985,46.0,0.0,90.0,14.0,0.0
9986,46.0,0.0,90.0,3.0,0.0
9987,55.0,0.0,450.0,3.0,0.0
9988,33.0,15.0,90.0,3.0,0.0
9989,33.0,0.0,90.0,15.0,0.0
9990,45.0,0.0,90.0,3.0,0.0
9991,45.0,0.0,90.0,14.0,0.0
9992,46.0,0.0,90.0,14.0,0.0
9993,34.0,0.0,90.0,3.0,0.0
9994,46.0,0.0,90.0,3.0,0.0
9995,34.0,0.0,90.0,15.0,0.0
9996,70.0,0.0,90.0,11.0,0.0
9997,46.0,0.0,90.0,3.0,0.0
9998,34.0,120.0,90.0,3.0,0.0
9999,46.0,0.0,90.0,14.0,0.0
10000,58.0,0.0,90.0,12.0,0.0
10001,34.0,0.0,90.0,15.0,0.0
10002,46.0,0.0,90.0,3.0,0.0
10003,63.0,0.0,240.0,6.0,0.0
10004,55.0,0.0,240.0,7.0,0.0
10005,63.0,0.0,240.0,2.0,0.0
10006,51.0,0.0,360.0,3.0,0.0
10007,75.0,0.0,240.0,1.0,0.0
10008,87.0,0.0,240.0,0.0,0.0
10009,67.0,105.0,240.0,2.0,0.0
10010,46.0,0.0,90.0,14.0,0.0
10011,46.0,0.0,240.0,8.0,0.0
10012,51.0,0.0,360.0,13.0,0.0
10013,79.0,0.0,360.0,11.0,0.0
10014,67.0,60.0,360.0,12.0,0.0
10015,34.0,0.0,90.0,15.0,0.0
10016,79.0,0.0,240.0,1.0,0.0
10017,82.0,0.0,240.0,0.0,0.0
10018,34.0,120.0,90.0,3.0,0.0
10019,33.0,15.0,90.0,3.0,0.0
10020,45.0,0.0,90.0,14.0,0.0
10021,45.0,0.0,90.0,3.0,0.0
10022,33.0,0.0,90.0,15.0,0.0
10023,34.0,0.0,90.0,3.0,0.0
10024,46.0,0.0,90.0,3.0,0.0
10025,46.0,0.0,90.0,14.0,0.0
10026,34.0,15.0,90.0,15.0,0.0
10027,34.0,7.0,90.0,3.0,0.0
10028,46.0,0.0,90.0,3.0,0.0
10029,34.0,0.0,90.0,15.0,0.0
10030,53.0,45.0,60.0,13.0,0.0
10031,46.0,0.0,90.0,14.0,0.0
10032,77.0,0.0,60.0,11.0,0.0
10033,65.0,0.0,60.0,12.0,0.0
10034,53.0,0.0,60.0,3.0,0.0
10035,55.0,113.0,60.0,13.0,0.0
10036,55.0,0.0,60.0,3.0,0.0
10037,75.0,0.0,60.0,11.0,0.0
10038,63.0,0.0,60.0,12.0,0.0
10039,70.0,120.0,1560.0,6.0,0.0
10040,70.0,0.0,570.0,12.0,0.0
10041,62.0,105.0,120.0,2.0,0.0
10042,58.0,0.0,1560.0,7.0,0.0
10043,65.0,0.0,120.0,2.0,0.0
10044,50.0,15.0,90.0,13.0,0.0
10045,82.0,0.0,570.0,12.0,0.0
10046,70.0,0.0,570.0,5.0,0.0
10047,82.0,0.0,1530.0,0.0,0.0
10048,82.0,0.0,570.0,11.0,0.0
10049,34.0,0.0,90.0,3.0,0.0
10050,46.0,0.0,90.0,3.0,0.0
10051,58.0,135.0,570.0,4.0,0.0
10052,77.0,15.0,210.0,1.0,0.0
10053,46.0,0.0,1560.0,8.0,0.0
10054,34.0,0.0,90.0,15.0,0.0
10055,46.0,0.0,90.0,14.0,0.0
10056,74.0,0.0,210.0,1.0,0.0
10057,46.0,105.0,120.0,15.0,0.0
10058,62.0,0.0,210.0,13.0,0.0
10059,58.0,0.0,120.0,3.0,0.0
10060,58.0,0.0,120.0,14.0,0.0
10061,46.0,0.0,120.0,3.0,0.0
10062,70.0,0.0,1290.0,1.0,0.0
10063,56.0,105.0,90.0,14.0,0.0
10064,44.0,0.0,90.0,3.0,0.0
10065,56.0,0.0,90.0,3.0,0.0
10066,82.0,0.0,1290.0,1.0,0.0
10067,44.0,0.0,90.0,15.0,0.0
10068,55.0,15.0,90.0,14.0,0.0
10069,43.0,0.0,90.0,3.0,0.0
10070,63.0,105.0,90.0,13.0,0.0
10071,55.0,0.0,90.0,3.0,0.0
10072,43.0,0.0,90.0,15.0,0.0
10073,65.0,15.0,90.0,13.0,0.0
10074,53.0,0.0,90.0,14.0,0.0
10075,53.0,0.0,90.0,3.0,0.0
10076,41.0,0.0,90.0,15.0,0.0
10077,41.0,0.0,90.0,3.0,0.0
10078,58.0,0.0,210.0,4.0,0.0
10079,55.0,105.0,120.0,3.0,0.0
10080,70.0,0.0,210.0,5.0,0.0
10081,82.0,0.0,120.0,11.0,0.0
10082,70.0,0.0,120.0,13.0,0.0
10083,55.0,0.0,120.0,14.0,0.0
10084,43.0,0.0,120.0,3.0,0.0
10085,70.0,0.0,120.0,2.0,0.0
10086,82.0,0.0,120.0,12.0,0.0
10087,43.0,0.0,120.0,15.0,0.0
10088,53.0,0.0,90.0,3.0,0.0
10089,80.0,105.0,90.0,12.0,0.0
10090,41.0,0.0,90.0,15.0,0.0
10091,80.0,0.0,90.0,11.0,0.0
10092,68.0,0.0,90.0,2.0,0.0
10093,53.0,0.0,90.0,14.0,0.0
10094,41.0,0.0,90.0,3.0,0.0
10095,68.0,0.0,90.0,13.0,0.0
10096,39.0,0.0,90.0,3.0,0.0
10097,51.0,0.0,90.0,14.0,0.0
10098,51.0,120.0,90.0,3.0,0.0
10099,67.0,0.0,90.0,13.0,0.0
10100,67.0,0.0,90.0,2.0,0.0
10101,70.0,0.0,210.0,5.0,0.0
10102,79.0,0.0,90.0,12.0,0.0
10103,58.0,0.0,210.0,4.0,0.0
10104,39.0,0.0,90.0,15.0,0.0
10105,79.0,0.0,90.0,11.0,0.0
10106,50.0,0.0,90.0,3.0,0.0
10107,77.0,0.0,90.0,11.0,0.0
10108,38.0,15.0,90.0,15.0,0.0
10109,65.0,0.0,90.0,2.0,0.0
10110,65.0,0.0,90.0,13.0,0.0
10111,50.0,0.0,90.0,14.0,0.0
10112,77.0,0.0,90.0,12.0,0.0
10113,38.0,135.0,90.0,3.0,0.0
10114,79.0,0.0,120.0,12.0,0.0
10115,51.0,0.0,120.0,3.0,0.0
10116,70.0,0.0,210.0,5.0,0.0
10117,51.0,0.0,120.0,14.0,0.0
10118,67.0,105.0,120.0,13.0,0.0
10119,67.0,0.0,120.0,2.0,0.0
10120,58.0,0.0,210.0,4.0,0.0
10121,39.0,0.0,120.0,15.0,0.0
10122,79.0,0.0,120.0,11.0,0.0
10123,39.0,0.0,120.0,3.0,0.0
10124,50.0,0.0,90.0,14.0,0.0
10125,77.0,0.0,90.0,12.0,0.0
10126,38.0,105.0,90.0,3.0,0.0
10127,65.0,0.0,90.0,2.0,0.0
10128,77.0,0.0,90.0,11.0,0.0
10129,38.0,0.0,90.0,15.0,0.0
10130,50.0,0.0,90.0,3.0,0.0
10131,65.0,0.0,90.0,13.0,0.0
10132,63.0,0.0,90.0,2.0,0.0
10133,63.0,0.0,90.0,13.0,0.0
10134,70.0,105.0,90.0,5.0,0.0
10135,36.0,0.0,90.0,3.0,0.0
10136,48.0,0.0,90.0,14.0,0.0
10137,75.0,15.0,90.0,11.0,0.0
10138,48.0,0.0,90.0,3.0,0.0
10139,36.0,0.0,90.0,15.0,0.0
10140,58.0,0.0,90.0,4.0,0.0
10141,75.0,0.0,90.0,12.0,0.0
10142,58.0,15.0,90.0,4.0,0.0
10143,46.0,0.0,90.0,14.0,0.0
10144,34.0,0.0,90.0,15.0,0.0
10145,74.0,15.0,90.0,11.0,0.0
10146,62.0,0.0,90.0,2.0,0.0
10147,46.0,0.0,90.0,3.0,0.0
10148,34.0,0.0,90.0,3.0,0.0
10149,70.0,0.0,90.0,5.0,0.0
10150,58.0,0.0,90.0,13.0,0.0
10151,74.0,0.0,90.0,12.0,0.0
10152,58.0,0.0,120.0,13.0,0.0
10153,58.0,0.0,120.0,2.0,0.0
10154,62.0,0.0,120.0,12.0,0.0
10155,70.0,0.0,120.0,5.0,0.0
10156,34.0,0.0,120.0,3.0,0.0
10157,46.0,0.0,120.0,14.0,0.0
10158,62.0,0.0,120.0,2.0,0.0
10159,70.0,0.0,120.0,1.0,0.0
10160,34.0,0.0,120.0,15.0,0.0
10161,74.0,0.0,120.0,1.0,0.0
10162,70.0,0.0,120.0,11.0,0.0
10163,82.0,0.0,120.0,0.0,0.0
10164,74.0,0.0,120.0,0.0,0.0
10165,58.0,105.0,120.0,4.0,0.0
10166,58.0,0.0,120.0,3.0,0.0
10167,46.0,0.0,120.0,3.0,0.0
10168,69.0,0.0,90.0,11.0,0.0
10169,63.0,105.0,90.0,2.0,0.0
10170,53.0,0.0,90.0,3.0,0.0
10171,41.0,0.0,90.0,3.0,0.0
10172,72.0,0.0,90.0,5.0,0.0
10173,60.0,0.0,90.0,13.0,0.0
10174,75.0,0.0,90.0,1.0,0.0
10175,69.0,0.0,90.0,1.0,0.0
10176,81.0,0.0,90.0,0.0,0.0
10177,63.0,0.0,90.0,12.0,0.0
10178,36.0,0.0,90.0,15.0,0.0
10179,36.0,0.0,90.0,3.0,0.0
10180,60.0,0.0,90.0,4.0,0.0
10181,48.0,0.0,90.0,14.0,0.0
10182,57.0,0.0,90.0,2.0,0.0
10183,75.0,0.0,90.0,0.0,0.0
10184,81.0,0.0,90.0,0.0,0.0
10185,75.0,0.0,90.0,0.0,0.0
10186,29.0,0.0,90.0,3.0,0.0
10187,60.0,0.0,90.0,4.0,0.0
10188,75.0,0.0,90.0,1.0,0.0
10189,75.0,0.0,90.0,11.0,0.0
10190,72.0,0.0,90.0,5.0,0.0
10191,60.0,0.0,90.0,2.0,0.0
10192,63.0,0.0,90.0,2.0,0.0
10193,41.0,0.0,90.0,14.0,0.0
10194,53.0,0.0,90.0,3.0,0.0
10195,69.0,0.0,90.0,1.0,0.0
10196,41.0,135.0,90.0,3.0,0.0
10197,57.0,0.0,90.0,12.0,0.0
10198,53.0,0.0,90.0,13.0,0.0
10199,29.0,0.0,90.0,15.0,0.0
10200,70.0,0.0,90.0,1.0,0.0
10201,58.0,0.0,120.0,2.0,0.0
10202,82.0,15.0,90.0,0.0,0.0
10203,74.0,0.0,120.0,0.0,0.0
10204,62.0,0.0,120.0,2.0,0.0
10205,46.0,0.0,120.0,14.0,0.0
10206,74.0,0.0,90.0,1.0,0.0
10207,34.0,0.0,120.0,3.0,0.0
10208,58.0,0.0,120.0,4.0,0.0
10209,34.0,0.0,120.0,15.0,0.0
10210,74.0,0.0,120.0,11.0,0.0
10211,70.0,0.0,120.0,5.0,0.0
10212,46.0,0.0,90.0,3.0,0.0
10213,58.0,0.0,90.0,3.0,0.0
10214,58.0,0.0,120.0,12.0,0.0
10215,58.0,120.0,120.0,13.0,0.0
10216,70.0,0.0,120.0,1.0,0.0
10217,82.0,0.0,120.0,0.0,0.0
10218,58.0,105.0,120.0,3.0,0.0
10219,69.0,0.0,90.0,1.0,0.0
10220,57.0,105.0,90.0,3.0,0.0
10221,81.0,0.0,90.0,0.0,0.0
10222,87.0,0.0,90.0,0.0,0.0
10223,75.0,150.0,90.0,1.0,0.0
10224,63.0,0.0,90.0,3.0,0.0
10225,62.0,120.0,120.0,3.0,0.0
10226,74.0,0.0,120.0,1.0,0.0
10227,86.0,0.0,120.0,0.0,0.0
10228,46.0,0.0,120.0,13.0,0.0
10229,58.0,105.0,120.0,11.0,0.0
10230,45.0,105.0,90.0,13.0,0.0
10231,57.0,0.0,90.0,11.0,0.0
10232,51.0,150.0,90.0,13.0,0.0
10233,63.0,0.0,90.0,11.0,0.0
10234,62.0,0.0,120.0,11.0,0.0
10235,50.0,120.0,120.0,13.0,0.0
10236,46.0,105.0,120.0,14.0,0.0
10237,34.0,0.0,120.0,15.0,0.0
10238,34.0,0.0,120.0,3.0,0.0
10239,32.0,0.0,90.0,3.0,0.0
10240,32.0,105.0,90.0,15.0,0.0
10241,44.0,0.0,90.0,14.0,0.0
10242,53.0,120.0,90.0,14.0,0.0
10243,41.0,0.0,90.0,3.0,0.0
10244,41.0,0.0,90.0,15.0,0.0
10245,32.0,0.0,90.0,3.0,0.0
10246,44.0,0.0,90.0,14.0,0.0
10247,32.0,150.0,90.0,15.0,0.0
10248,31.0,80.0,120.0,15.0,0.0
10249,31.0,0.0,120.0,3.0,0.0
10250,43.0,0.0,120.0,14.0,0.0
10251,29.0,0.0,90.0,15.0,0.0
10252,29.0,55.0,90.0,3.0,0.0
10253,50.0,0.0,90.0,13.0,0.0
10254,65.0,0.0,90.0,11.0,0.0
10255,41.0,0.0,90.0,14.0,0.0
10256,53.0,25.0,90.0,12.0,0.0
10257,67.0,0.0,90.0,11.0,0.0
10258,55.0,0.0,90.0,12.0,0.0
10259,51.0,50.0,90.0,13.0,0.0
10260,38.0,0.0,90.0,15.0,0.0
10261,38.0,18.0,90.0,3.0,0.0
10262,50.0,0.0,90.0,14.0,0.0
10263,56.0,0.0,60.0,12.0,0.0
10264,68.0,80.0,60.0,11.0,0.0
10265,53.0,0.0,60.0,13.0,0.0
10266,55.0,48.0,180.0,3.0,0.0
10267,70.0,0.0,180.0,2.0,0.0
10268,63.0,68.0,240.0,5.0,0.0
10269,63.0,0.0,930.0,4.0,0.0
10270,51.0,3.0,930.0,4.0,0.0
10271,67.0,0.0,180.0,2.0,0.0
10272,70.0,0.0,240.0,1.0,0.0
10273,51.0,0.0,240.0,5.0,0.0
10274,79.0,0.0,180.0,0.0,0.0
10275,79.0,0.0,240.0,1.0,0.0
10276,39.0,0.0,240.0,10.0,0.0
10277,39.0,0.0,240.0,14.0,0.0
10278,27.0,0.0,240.0,15.0,0.0
10279,27.0,0.0,240.0,3.0,0.0
10280,58.0,0.0,60.0,12.0,0.0
10281,82.0,0.0,180.0,0.0,0.0
10282,58.0,0.0,180.0,3.0,0.0
10283,55.0,80.0,60.0,13.0,0.0
10284,70.0,0.0,180.0,11.0,0.0
10285,55.0,32.0,60.0,12.0,0.0
10286,51.0,0.0,60.0,13.0,0.0
10287,58.0,0.0,60.0,12.0,0.0
10288,55.0,12.0,60.0,13.0,0.0
10289,58.0,0.0,60.0,12.0,0.0
10290,55.0,12.0,60.0,13.0,0.0
10291,67.0,68.0,90.0,11.0,0.0
10292,68.0,68.0,90.0,11.0,0.0
10293,58.0,0.0,60.0,12.0,0.0
10294,55.0,12.0,60.0,13.0,0.0
10295,70.0,80.0,60.0,11.0,0.0
10296,55.0,0.0,60.0,13.0,0.0
10297,58.0,0.0,60.0,12.0,0.0
10298,56.0,0.0,60.0,12.0,0.0
10299,72.0,48.0,180.0,11.0,0.0
10300,80.0,0.0,240.0,1.0,0.0
10301,51.0,80.0,60.0,13.0,0.0
10302,72.0,68.0,240.0,1.0,0.0
10303,39.0,0.0,240.0,10.0,0.0
10304,27.0,0.0,240.0,15.0,0.0
10305,39.0,0.0,240.0,14.0,0.0
10306,60.0,0.0,180.0,3.0,0.0
10307,51.0,0.0,240.0,5.0,0.0
10308,68.0,0.0,180.0,2.0,0.0
10309,84.0,0.0,180.0,0.0,0.0
10310,80.0,0.0,180.0,0.0,0.0
10311,56.0,0.0,180.0,3.0,0.0
10312,72.0,0.0,180.0,2.0,0.0
10313,27.0,0.0,240.0,3.0,0.0
10314,63.0,0.0,240.0,5.0,0.0
10315,56.0,0.0,60.0,13.0,0.0
10316,60.0,32.0,60.0,12.0,0.0
10317,56.0,12.0,60.0,13.0,0.0
10318,60.0,0.0,60.0,12.0,0.0
10319,60.0,12.0,60.0,12.0,0.0
10320,72.0,68.0,90.0,11.0,0.0
10321,56.0,0.0,60.0,13.0,0.0
10322,60.0,12.0,60.0,12.0,0.0
10323,74.0,65.0,90.0,11.0,0.0
10324,56.0,0.0,60.0,13.0,0.0
10325,56.0,0.0,60.0,13.0,0.0
10326,75.0,80.0,60.0,11.0,0.0
10327,60.0,0.0,60.0,12.0,0.0
10328,39.0,3.0,210.0,14.0,0.0
10329,67.0,0.0,720.0,2.0,0.0
10330,51.0,80.0,60.0,13.0,0.0
10331,39.0,0.0,240.0,10.0,0.0
10332,63.0,0.0,240.0,5.0,0.0
10333,51.0,68.0,240.0,5.0,0.0
10334,58.0,0.0,720.0,3.0,0.0
10335,79.0,0.0,720.0,0.0,0.0
10336,27.0,0.0,210.0,3.0,0.0
10337,51.0,0.0,720.0,4.0,0.0
10338,70.0,0.0,720.0,1.0,0.0
10339,79.0,0.0,720.0,1.0,0.0
10340,70.0,15.0,690.0,11.0,0.0
10341,63.0,0.0,720.0,4.0,0.0
10342,27.0,0.0,210.0,15.0,0.0
10343,82.0,0.0,720.0,0.0,0.0
10344,55.0,0.0,60.0,12.0,0.0
10345,55.0,0.0,720.0,3.0,0.0
10346,70.0,0.0,720.0,2.0,0.0
10347,58.0,77.0,60.0,12.0,0.0
10348,55.0,0.0,60.0,13.0,0.0
10349,55.0,0.0,60.0,13.0,0.0
10350,58.0,12.0,60.0,12.0,0.0
10351,34.0,68.0,90.0,3.0,0.0
10352,34.0,0.0,90.0,15.0,0.0
10353,58.0,0.0,60.0,12.0,0.0
10354,55.0,12.0,60.0,13.0,0.0
10355,46.0,0.0,90.0,14.0,0.0
10356,36.0,0.0,90.0,15.0,0.0
10357,48.0,0.0,90.0,14.0,0.0
10358,55.0,0.0,60.0,13.0,0.0
10359,36.0,68.0,90.0,3.0,0.0
10360,58.0,12.0,60.0,12.0,0.0
10361,58.0,237.0,60.0,12.0,0.0
10362,38.0,0.0,60.0,15.0,0.0
10363,38.0,0.0,60.0,3.0,0.0
10364,55.0,0.0,60.0,13.0,0.0
10365,50.0,0.0,60.0,14.0,0.0
10366,39.0,80.0,240.0,3.0,0.0
10367,58.0,0.0,210.0,12.0,0.0
10368,51.0,0.0,210.0,14.0,0.0
10369,55.0,0.0,210.0,13.0,0.0
10370,39.0,0.0,240.0,15.0,0.0
10371,70.0,80.0,90.0,11.0,0.0
10372,58.0,0.0,240.0,13.0,0.0
10373,51.0,240.0,240.0,14.0,0.0
10374,55.0,0.0,90.0,12.0,0.0
10375,68.0,80.0,90.0,11.0,0.0
10376,56.0,0.0,90.0,12.0,0.0
10377,58.0,0.0,90.0,12.0,0.0
10378,67.0,0.0,90.0,11.0,0.0
10379,56.0,0.0,240.0,12.0,0.0
10380,58.0,0.0,960.0,13.0,0.0
10381,65.0,80.0,240.0,11.0,0.0
10382,50.0,240.0,480.0,14.0,0.0
10383,68.0,80.0,90.0,11.0,0.0
10384,53.0,0.0,90.0,12.0,0.0
10385,67.0,80.0,90.0,11.0,0.0
10386,55.0,0.0,90.0,12.0,0.0
10387,65.0,0.0,90.0,11.0,0.0
10388,56.0,0.0,90.0,12.0,0.0
10389,63.0,0.0,240.0,11.0,0.0
10390,55.0,80.0,240.0,12.0,0.0
10391,51.0,180.0,480.0,14.0,0.0
10392,67.0,0.0,90.0,11.0,0.0
10393,51.0,80.0,90.0,12.0,0.0
10394,53.0,0.0,90.0,12.0,0.0
10395,65.0,68.0,90.0,11.0,0.0
10396,63.0,0.0,60.0,11.0,0.0
10397,55.0,12.0,60.0,12.0,0.0
10398,53.0,95.0,210.0,14.0,0.0
10399,56.0,45.0,180.0,12.0,0.0
10400,58.0,0.0,210.0,13.0,0.0
10401,62.0,0.0,180.0,11.0,0.0
10402,50.0,80.0,90.0,13.0,0.0
10403,38.0,0.0,90.0,15.0,0.0
10404,62.0,0.0,90.0,11.0,0.0
10405,38.0,0.0,90.0,3.0,0.0
10406,50.0,0.0,90.0,14.0,0.0
10407,62.0,0.0,90.0,12.0,0.0
10408,51.0,0.0,90.0,14.0,0.0
10409,39.0,0.0,90.0,3.0,0.0
10410,63.0,0.0,90.0,11.0,0.0
10411,39.0,0.0,90.0,15.0,0.0
10412,51.0,68.0,90.0,13.0,0.0
10413,63.0,0.0,90.0,12.0,0.0
10414,65.0,0.0,60.0,11.0,0.0
10415,65.0,0.0,60.0,12.0,0.0
10416,41.0,0.0,60.0,3.0,0.0
10417,53.0,0.0,60.0,14.0,0.0
10418,41.0,237.0,60.0,15.0,0.0
10419,53.0,0.0,60.0,13.0,0.0
10420,58.0,0.0,210.0,12.0,0.0
10421,58.0,83.0,210.0,11.0,0.0
10422,34.0,0.0,210.0,15.0,0.0
10423,46.0,0.0,210.0,14.0,0.0
10424,34.0,0.0,210.0,3.0,0.0
10425,46.0,0.0,210.0,13.0,0.0
10426,65.0,0.0,60.0,1.0,0.0
10427,50.0,0.0,60.0,3.0,0.0
10428,32.0,80.0,60.0,15.0,0.0
10429,70.0,0.0,60.0,5.0,0.0
10430,56.0,0.0,60.0,13.0,0.0
10431,53.0,0.0,60.0,3.0,0.0
10432,62.0,0.0,60.0,1.0,0.0
10433,44.0,0.0,60.0,14.0,0.0
10434,56.0,0.0,60.0,12.0,0.0
10435,74.0,0.0,60.0,0.0,0.0
10436,77.0,0.0,60.0,0.0,0.0
10437,56.0,0.0,60.0,11.0,0.0
10438,32.0,0.0,60.0,3.0,0.0
10439,58.0,0.0,60.0,4.0,0.0
10440,55.0,0.0,60.0,13.0,0.0
10441,31.0,0.0,60.0,15.0,0.0
10442,70.0,0.0,60.0,5.0,0.0
10443,67.0,0.0,60.0,1.0,0.0
10444,63.0,0.0,60.0,1.0,0.0
10445,79.0,0.0,60.0,0.0,0.0
10446,58.0,0.0,60.0,4.0,0.0
10447,55.0,0.0,60.0,12.0,0.0
10448,43.0,0.0,60.0,14.0,0.0
10449,75.0,0.0,60.0,0.0,0.0
10450,55.0,0.0,60.0,11.0,0.0
10451,31.0,0.0,60.0,3.0,0.0
10452,51.0,0.0,60.0,3.0,0.0
10453,55.0,0.0,60.0,3.0,0.0
10454,53.0,0.0,60.0,3.0,0.0
10455,29.0,0.0,60.0,15.0,0.0
10456,58.0,0.0,60.0,4.0,0.0
10457,41.0,0.0,60.0,14.0,0.0
10458,53.0,0.0,60.0,12.0,0.0
10459,77.0,0.0,60.0,0.0,0.0
10460,29.0,80.0,60.0,3.0,0.0
10461,80.0,0.0,60.0,0.0,0.0
10462,70.0,0.0,60.0,5.0,0.0
10463,53.0,0.0,60.0,11.0,0.0
10464,65.0,0.0,60.0,1.0,0.0
10465,68.0,0.0,60.0,1.0,0.0
10466,56.0,0.0,60.0,3.0,0.0
10467,53.0,0.0,60.0,13.0,0.0
10468,39.0,0.0,240.0,14.0,0.0
10469,67.0,0.0,240.0,6.0,0.0
10470,63.0,3.0,210.0,5.0,0.0
10471,51.0,0.0,60.0,13.0,0.0
10472,51.0,0.0,240.0,11.0,0.0
10473,70.0,0.0,210.0,1.0,0.0
10474,67.0,0.0,210.0,1.0,0.0
10475,39.0,0.0,240.0,10.0,0.0
10476,58.0,0.0,210.0,3.0,0.0
10477,55.0,0.0,210.0,3.0,0.0
10478,51.0,0.0,210.0,4.0,0.0
10479,27.0,0.0,240.0,15.0,0.0
10480,27.0,68.0,240.0,3.0,0.0
10481,79.0,0.0,210.0,0.0,0.0
10482,82.0,0.0,210.0,0.0,0.0
10483,63.0,80.0,60.0,12.0,0.0
10484,58.0,0.0,240.0,7.0,0.0
10485,67.0,0.0,240.0,11.0,0.0
10486,39.0,0.0,240.0,8.0,0.0
10487,58.0,0.0,240.0,11.0,0.0
10488,75.0,0.0,240.0,11.0,0.0
10489,63.0,0.0,60.0,13.0,0.0
10490,75.0,77.0,60.0,12.0,0.0
10491,63.0,0.0,60.0,13.0,0.0
10492,75.0,12.0,60.0,12.0,0.0
10493,39.0,68.0,90.0,10.0,0.0
10494,63.0,0.0,60.0,5.0,0.0
10495,51.0,0.0,60.0,3.0,0.0
10496,75.0,0.0,60.0,12.0,0.0
10497,67.0,0.0,60.0,1.0,0.0
10498,63.0,0.0,60.0,1.0,0.0
10499,79.0,0.0,60.0,0.0,0.0
10500,55.0,0.0,60.0,3.0,0.0
10501,63.0,0.0,60.0,13.0,0.0
10502,75.0,0.0,60.0,0.0,0.0
10503,51.0,0.0,60.0,4.0,0.0
10504,74.0,0.0,60.0,12.0,0.0
10505,56.0,12.0,60.0,3.0,0.0
10506,63.0,0.0,60.0,5.0,0.0
10507,51.0,0.0,60.0,4.0,0.0
10508,62.0,0.0,60.0,13.0,0.0
10509,77.0,0.0,60.0,0.0,0.0
10510,80.0,0.0,60.0,0.0,0.0
10511,53.0,0.0,60.0,3.0,0.0
10512,39.0,68.0,90.0,10.0,0.0
10513,68.0,0.0,60.0,1.0,0.0
10514,65.0,0.0,60.0,1.0,0.0
10515,39.0,68.0,90.0,10.0,0.0
10516,51.0,0.0,60.0,4.0,0.0
10517,58.0,0.0,60.0,3.0,0.0
10518,55.0,0.0,60.0,3.0,0.0
10519,67.0,0.0,60.0,1.0,0.0
10520,73.0,0.0,60.0,12.0,0.0
10521,63.0,0.0,60.0,5.0,0.0
10522,82.0,0.0,60.0,0.0,0.0
10523,61.0,0.0,60.0,13.0,0.0
10524,70.0,12.0,60.0,1.0,0.0
10525,79.0,0.0,60.0,0.0,0.0
10526,39.0,0.0,240.0,10.0,0.0
10527,72.0,0.0,210.0,1.0,0.0
10528,63.0,0.0,210.0,5.0,0.0
10529,60.0,0.0,240.0,7.0,0.0
10530,60.0,0.0,60.0,13.0,0.0
10531,27.0,0.0,240.0,3.0,0.0
10532,56.0,3.0,210.0,3.0,0.0
10533,68.0,0.0,210.0,1.0,0.0
10534,39.0,68.0,240.0,14.0,0.0
10535,27.0,0.0,240.0,15.0,0.0
10536,75.0,0.0,240.0,11.0,0.0
10537,51.0,0.0,240.0,11.0,0.0
10538,51.0,0.0,210.0,4.0,0.0
10539,68.0,0.0,240.0,11.0,0.0
10540,60.0,0.0,240.0,11.0,0.0
10541,84.0,0.0,210.0,0.0,0.0
10542,68.0,0.0,240.0,6.0,0.0
10543,80.0,0.0,210.0,0.0,0.0
10544,72.0,80.0,60.0,12.0,0.0
10545,39.0,0.0,240.0,8.0,0.0
10546,60.0,0.0,210.0,3.0,0.0
10547,72.0,77.0,60.0,12.0,0.0
10548,60.0,0.0,60.0,13.0,0.0
10549,72.0,0.0,60.0,12.0,0.0
10550,60.0,12.0,60.0,13.0,0.0
10551,60.0,0.0,60.0,13.0,0.0
10552,68.0,0.0,60.0,1.0,0.0
10553,63.0,12.0,60.0,5.0,0.0
10554,72.0,0.0,60.0,1.0,0.0
10555,39.0,68.0,90.0,10.0,0.0
10556,72.0,0.0,60.0,12.0,0.0
10557,56.0,0.0,60.0,3.0,0.0
10558,60.0,0.0,60.0,3.0,0.0
10559,80.0,0.0,60.0,0.0,0.0
10560,84.0,0.0,60.0,0.0,0.0
10561,51.0,0.0,60.0,4.0,0.0
10562,63.0,0.0,60.0,5.0,0.0
10563,70.0,0.0,60.0,1.0,0.0
10564,39.0,68.0,90.0,10.0,0.0
10565,74.0,0.0,60.0,1.0,0.0
10566,86.0,0.0,60.0,0.0,0.0
10567,58.0,12.0,60.0,13.0,0.0
10568,82.0,0.0,60.0,0.0,0.0
10569,58.0,0.0,60.0,3.0,0.0
10570,51.0,0.0,60.0,4.0,0.0
10571,62.0,0.0,60.0,3.0,0.0
10572,70.0,0.0,60.0,12.0,0.0
10573,84.0,0.0,60.0,0.0,0.0
10574,75.0,0.0,60.0,1.0,0.0
10575,72.0,0.0,60.0,1.0,0.0
10576,68.0,0.0,60.0,12.0,0.0
10577,63.0,0.0,60.0,5.0,0.0
10578,51.0,0.0,60.0,4.0,0.0
10579,87.0,0.0,60.0,0.0,0.0
10580,63.0,0.0,60.0,3.0,0.0
10581,60.0,0.0,60.0,3.0,0.0
10582,39.0,68.0,90.0,10.0,0.0
10583,56.0,0.0,60.0,13.0,0.0
10584,27.0,3.0,210.0,15.0,0.0
10585,70.0,0.0,720.0,1.0,0.0
10586,70.0,0.0,720.0,2.0,0.0
10587,67.0,0.0,720.0,2.0,0.0
10588,58.0,80.0,60.0,13.0,0.0
10589,58.0,0.0,210.0,11.0,0.0
10590,67.0,0.0,210.0,11.0,0.0
10591,75.0,0.0,210.0,11.0,0.0
10592,58.0,80.0,720.0,7.0,0.0
10593,55.0,0.0,720.0,3.0,0.0
10594,58.0,0.0,720.0,3.0,0.0
10595,79.0,0.0,720.0,0.0,0.0
10596,70.0,0.0,60.0,12.0,0.0
10597,27.0,0.0,210.0,3.0,0.0
10598,39.0,68.0,240.0,10.0,0.0
10599,63.0,0.0,210.0,5.0,0.0
10600,39.0,0.0,720.0,8.0,0.0
10601,67.0,0.0,720.0,1.0,0.0
10602,51.0,0.0,210.0,11.0,0.0
10603,39.0,0.0,210.0,14.0,0.0
10604,82.0,0.0,720.0,0.0,0.0
10605,67.0,0.0,720.0,6.0,0.0
10606,51.0,0.0,210.0,4.0,0.0
10607,55.0,77.0,60.0,13.0,0.0
10608,58.0,0.0,60.0,12.0,0.0
10609,58.0,12.0,60.0,12.0,0.0
10610,55.0,0.0,60.0,13.0,0.0
10611,39.0,68.0,90.0,10.0,0.0
10612,34.0,0.0,60.0,3.0,0.0
10613,63.0,0.0,60.0,5.0,0.0
10614,34.0,0.0,60.0,15.0,0.0
10615,51.0,0.0,60.0,4.0,0.0
10616,58.0,0.0,60.0,12.0,0.0
10617,55.0,0.0,60.0,13.0,0.0
10618,46.0,0.0,60.0,14.0,0.0
10619,58.0,12.0,60.0,11.0,0.0
10620,55.0,0.0,60.0,13.0,0.0
10621,60.0,12.0,60.0,11.0,0.0
10622,36.0,0.0,60.0,15.0,0.0
10623,63.0,0.0,60.0,5.0,0.0
10624,58.0,0.0,60.0,12.0,0.0
10625,48.0,0.0,60.0,14.0,0.0
10626,39.0,68.0,90.0,10.0,0.0
10627,51.0,0.0,60.0,4.0,0.0
10628,36.0,0.0,60.0,3.0,0.0
10629,38.0,0.0,60.0,15.0,0.0
10630,62.0,0.0,60.0,11.0,0.0
10631,50.0,12.0,60.0,14.0,0.0
10632,58.0,0.0,60.0,12.0,0.0
10633,38.0,0.0,60.0,3.0,0.0
10634,55.0,0.0,60.0,13.0,0.0
10635,63.0,0.0,60.0,5.0,0.0
10636,39.0,225.0,90.0,10.0,0.0
10637,51.0,0.0,60.0,4.0,0.0
10638,63.0,0.0,240.0,5.0,0.0
10639,55.0,0.0,210.0,13.0,0.0
10640,39.0,0.0,240.0,3.0,0.0
10641,63.0,0.0,210.0,11.0,0.0
10642,39.0,0.0,240.0,10.0,0.0
10643,51.0,0.0,240.0,4.0,0.0
10644,51.0,15.0,210.0,14.0,0.0
10645,39.0,0.0,240.0,15.0,0.0
10646,58.0,0.0,210.0,12.0,0.0
10647,70.0,80.0,90.0,11.0,0.0
10648,55.0,0.0,90.0,12.0,0.0
10649,51.0,240.0,240.0,14.0,0.0
10650,58.0,0.0,240.0,13.0,0.0
10651,68.0,0.0,90.0,11.0,0.0
10652,56.0,80.0,90.0,12.0,0.0
10653,67.0,0.0,90.0,11.0,0.0
10654,58.0,0.0,90.0,12.0,0.0
10655,50.0,0.0,480.0,14.0,0.0
10656,65.0,80.0,240.0,11.0,0.0
10657,56.0,0.0,240.0,12.0,0.0
10658,58.0,0.0,960.0,13.0,0.0
10659,68.0,80.0,90.0,11.0,0.0
10660,53.0,0.0,90.0,12.0,0.0
10661,55.0,80.0,90.0,12.0,0.0
10662,67.0,0.0,90.0,11.0,0.0
10663,56.0,0.0,90.0,12.0,0.0
10664,65.0,240.0,90.0,11.0,0.0
10665,55.0,0.0,240.0,12.0,0.0
10666,63.0,80.0,240.0,11.0,0.0
10667,51.0,0.0,480.0,14.0,0.0
10668,67.0,0.0,90.0,11.0,0.0
10669,58.0,0.0,240.0,3.0,0.0
10670,51.0,80.0,90.0,12.0,0.0
10671,55.0,225.0,240.0,3.0,0.0
10672,65.0,80.0,90.0,11.0,0.0
10673,53.0,0.0,90.0,12.0,0.0
10674,55.0,0.0,90.0,12.0,0.0
10675,63.0,0.0,90.0,11.0,0.0
10676,62.0,68.0,240.0,11.0,0.0
10677,53.0,0.0,210.0,14.0,0.0
10678,53.0,225.0,480.0,3.0,0.0
10679,58.0,0.0,210.0,13.0,0.0
10680,56.0,15.0,210.0,12.0,0.0
10681,56.0,0.0,480.0,3.0,0.0
10682,46.0,0.0,60.0,14.0,0.0
10683,34.0,80.0,60.0,15.0,0.0
10684,34.0,0.0,60.0,3.0,0.0
10685,58.0,0.0,60.0,12.0,0.0
10686,46.0,0.0,60.0,13.0,0.0
10687,48.0,0.0,60.0,13.0,0.0
10688,48.0,0.0,60.0,14.0,0.0
10689,36.0,0.0,60.0,15.0,0.0
10690,36.0,80.0,60.0,3.0,0.0
10691,60.0,0.0,60.0,12.0,0.0
10692,50.0,12.0,60.0,13.0,0.0
10693,38.0,0.0,60.0,3.0,0.0
10694,50.0,0.0,60.0,14.0,0.0
10695,38.0,0.0,60.0,15.0,0.0
10696,62.0,0.0,60.0,12.0,0.0
10697,51.0,0.0,210.0,13.0,0.0
10698,39.0,0.0,240.0,15.0,0.0
10699,39.0,0.0,240.0,3.0,0.0
10700,51.0,0.0,210.0,14.0,0.0
10701,55.0,80.0,240.0,3.0,0.0
10702,51.0,0.0,240.0,3.0,0.0
10703,63.0,15.0,210.0,12.0,0.0
10704,53.0,240.0,240.0,14.0,0.0
10705,60.0,0.0,240.0,13.0,0.0
10706,56.0,80.0,90.0,12.0,0.0
10707,72.0,0.0,90.0,11.0,0.0
10708,70.0,80.0,90.0,11.0,0.0
10709,58.0,0.0,90.0,12.0,0.0
10710,60.0,0.0,90.0,12.0,0.0
10711,68.0,0.0,90.0,11.0,0.0
10712,58.0,80.0,240.0,12.0,0.0
10713,52.0,0.0,480.0,14.0,0.0
10714,67.0,0.0,240.0,11.0,0.0
10715,60.0,0.0,960.0,13.0,0.0
10716,55.0,80.0,90.0,12.0,0.0
10717,70.0,0.0,90.0,11.0,0.0
10718,56.0,80.0,90.0,12.0,0.0
10719,68.0,0.0,90.0,11.0,0.0
10720,58.0,0.0,90.0,12.0,0.0
10721,67.0,240.0,90.0,11.0,0.0
10722,53.0,225.0,480.0,14.0,0.0
10723,65.0,80.0,240.0,11.0,0.0
10724,56.0,0.0,240.0,12.0,0.0
10725,53.0,0.0,90.0,12.0,0.0
10726,56.0,0.0,240.0,3.0,0.0
10727,60.0,0.0,240.0,3.0,0.0
10728,68.0,80.0,90.0,11.0,0.0
10729,55.0,80.0,90.0,12.0,0.0
10730,67.0,0.0,90.0,11.0,0.0
10731,65.0,0.0,90.0,11.0,0.0
10732,56.0,0.0,90.0,12.0,0.0
10733,55.0,0.0,210.0,14.0,0.0
10734,58.0,0.0,210.0,12.0,0.0
10735,60.0,0.0,210.0,13.0,0.0
10736,55.0,0.0,480.0,3.0,0.0
10737,58.0,225.0,480.0,3.0,0.0
10738,64.0,83.0,210.0,11.0,0.0
10739,48.0,0.0,60.0,13.0,0.0
10740,36.0,0.0,60.0,15.0,0.0
10741,36.0,0.0,60.0,3.0,0.0
10742,60.0,80.0,60.0,12.0,0.0
10743,60.0,0.0,60.0,11.0,0.0
10744,48.0,0.0,60.0,14.0,0.0
10745,38.0,0.0,60.0,3.0,0.0
10746,62.0,0.0,60.0,11.0,0.0
10747,38.0,0.0,60.0,15.0,0.0
10748,50.0,80.0,60.0,13.0,0.0
10749,62.0,0.0,60.0,12.0,0.0
10750,50.0,0.0,60.0,14.0,0.0
10751,64.0,0.0,60.0,11.0,0.0
10752,40.0,0.0,60.0,3.0,0.0
10753,64.0,12.0,60.0,12.0,0.0
10754,52.0,0.0,60.0,14.0,0.0
10755,40.0,0.0,60.0,15.0,0.0
10756,52.0,0.0,60.0,13.0,0.0
10757,53.0,0.0,240.0,3.0,0.0
10758,41.0,15.0,210.0,15.0,0.0
10759,65.0,0.0,210.0,11.0,0.0
10760,56.0,0.0,240.0,3.0,0.0
10761,41.0,0.0,240.0,3.0,0.0
10762,53.0,68.0,240.0,13.0,0.0
10763,65.0,0.0,210.0,12.0,0.0
10764,53.0,0.0,210.0,14.0,0.0
10765,63.0,68.0,90.0,12.0,0.0
10766,44.0,225.0,240.0,14.0,0.0
10767,56.0,0.0,60.0,4.0,0.0
10768,48.0,12.0,60.0,4.0,0.0
10769,75.0,0.0,90.0,11.0,0.0
10770,32.0,0.0,240.0,15.0,0.0
10771,51.0,12.0,60.0,4.0,0.0
10772,73.0,0.0,90.0,11.0,0.0
10773,58.0,0.0,60.0,4.0,0.0
10774,61.0,68.0,90.0,12.0,0.0
10775,60.0,0.0,90.0,12.0,0.0
10776,72.0,0.0,90.0,11.0,0.0
10777,56.0,12.0,60.0,4.0,0.0
10778,60.0,0.0,60.0,4.0,0.0
10779,58.0,68.0,240.0,12.0,0.0
10780,58.0,15.0,210.0,4.0,0.0
10781,61.0,0.0,210.0,4.0,0.0
10782,31.0,225.0,480.0,15.0,0.0
10783,43.0,0.0,480.0,14.0,0.0
10784,70.0,0.0,240.0,11.0,0.0
10785,73.0,0.0,90.0,11.0,0.0
10786,61.0,68.0,90.0,12.0,0.0
10787,51.0,0.0,60.0,4.0,0.0
10788,58.0,12.0,60.0,4.0,0.0
10789,56.0,0.0,60.0,4.0,0.0
10790,72.0,68.0,90.0,11.0,0.0
10791,60.0,12.0,60.0,4.0,0.0
10792,60.0,0.0,90.0,12.0,0.0
10793,70.0,0.0,90.0,11.0,0.0
10794,61.0,0.0,60.0,4.0,0.0
10795,58.0,0.0,90.0,12.0,0.0
10796,58.0,12.0,60.0,4.0,0.0
10797,32.0,0.0,450.0,15.0,0.0
10798,44.0,0.0,450.0,14.0,0.0
10799,68.0,68.0,240.0,11.0,0.0
10800,60.0,0.0,210.0,4.0,0.0
10801,56.0,0.0,240.0,12.0,0.0
10802,56.0,15.0,210.0,4.0,0.0
10803,56.0,0.0,120.0,13.0,0.0
10804,56.0,0.0,60.0,4.0,0.0
10805,56.0,52.0,240.0,3.0,0.0
10806,68.0,0.0,240.0,1.0,0.0
10807,48.0,12.0,60.0,4.0,0.0
10808,72.0,0.0,90.0,11.0,0.0
10809,60.0,40.0,90.0,12.0,0.0
10810,55.0,28.0,120.0,13.0,0.0
10811,58.0,0.0,60.0,4.0,0.0
10812,51.0,12.0,60.0,4.0,0.0
10813,70.0,0.0,90.0,11.0,0.0
10814,58.0,65.0,90.0,12.0,0.0
10815,56.0,3.0,90.0,13.0,0.0
10816,60.0,0.0,60.0,4.0,0.0
10817,56.0,0.0,60.0,4.0,0.0
10818,68.0,12.0,60.0,11.0,0.0
10819,56.0,0.0,60.0,12.0,0.0
10820,70.0,0.0,930.0,1.0,0.0
10821,55.0,0.0,930.0,3.0,0.0
10822,58.0,0.0,930.0,3.0,0.0
10823,39.0,7.0,90.0,14.0,0.0
10824,27.0,0.0,90.0,15.0,0.0
10825,51.0,0.0,1890.0,4.0,0.0
10826,58.0,0.0,60.0,13.0,0.0
10827,61.0,0.0,1890.0,4.0,0.0
10828,55.0,0.0,60.0,12.0,0.0
10829,67.0,0.0,930.0,1.0,0.0
10830,55.0,0.0,60.0,13.0,0.0
10831,67.0,53.0,60.0,11.0,0.0
10832,58.0,60.0,60.0,13.0,0.0
10833,55.0,0.0,60.0,13.0,0.0
10834,70.0,0.0,60.0,11.0,0.0
10835,67.0,0.0,60.0,12.0,0.0
10836,58.0,0.0,60.0,13.0,0.0
10837,67.0,0.0,60.0,12.0,0.0
10838,51.0,7.0,90.0,14.0,0.0
10839,55.0,0.0,60.0,13.0,0.0
10840,70.0,53.0,60.0,11.0,0.0
10841,39.0,0.0,90.0,15.0,0.0
10842,67.0,0.0,60.0,12.0,0.0
10843,58.0,60.0,60.0,13.0,0.0
10844,55.0,0.0,60.0,13.0,0.0
10845,70.0,0.0,60.0,11.0,0.0
10846,51.0,0.0,90.0,14.0,0.0
10847,70.0,0.0,60.0,11.0,0.0
10848,58.0,0.0,60.0,13.0,0.0
10849,67.0,53.0,60.0,12.0,0.0
10850,39.0,7.0,90.0,15.0,0.0
10851,55.0,0.0,60.0,13.0,0.0
10852,55.0,0.0,60.0,13.0,0.0
10853,70.0,0.0,60.0,11.0,0.0
10854,67.0,60.0,60.0,12.0,0.0
10855,58.0,0.0,60.0,13.0,0.0
10856,51.0,7.0,90.0,14.0,0.0
10857,70.0,53.0,60.0,11.0,0.0
10858,58.0,0.0,60.0,13.0,0.0
10859,55.0,0.0,60.0,13.0,0.0
10860,67.0,0.0,60.0,12.0,0.0
10861,39.0,0.0,90.0,15.0,0.0
10862,70.0,0.0,60.0,11.0,0.0
10863,58.0,60.0,60.0,13.0,0.0
10864,55.0,0.0,60.0,13.0,0.0
10865,67.0,0.0,60.0,12.0,0.0
10866,70.0,0.0,60.0,11.0,0.0
10867,67.0,0.0,60.0,12.0,0.0
10868,55.0,53.0,60.0,13.0,0.0
10869,39.0,0.0,90.0,15.0,0.0
10870,51.0,7.0,90.0,14.0,0.0
10871,58.0,0.0,60.0,13.0,0.0
10872,67.0,60.0,60.0,12.0,0.0
10873,58.0,0.0,60.0,13.0,0.0
10874,55.0,0.0,60.0,13.0,0.0
10875,70.0,0.0,60.0,11.0,0.0
10876,67.0,53.0,60.0,12.0,0.0
10877,70.0,0.0,60.0,11.0,0.0
10878,58.0,0.0,60.0,13.0,0.0
10879,55.0,0.0,60.0,13.0,0.0
10880,39.0,0.0,90.0,15.0,0.0
10881,51.0,7.0,90.0,14.0,0.0
10882,55.0,0.0,60.0,13.0,0.0
10883,58.0,0.0,60.0,13.0,0.0
10884,70.0,0.0,60.0,11.0,0.0
10885,67.0,60.0,60.0,12.0,0.0
10886,55.0,0.0,60.0,13.0,0.0
10887,70.0,0.0,60.0,11.0,0.0
10888,51.0,7.0,90.0,14.0,0.0
10889,67.0,0.0,60.0,12.0,0.0
10890,58.0,53.0,60.0,13.0,0.0
10891,39.0,0.0,90.0,15.0,0.0
10892,55.0,0.0,60.0,13.0,0.0
10893,58.0,60.0,60.0,13.0,0.0
10894,67.0,0.0,60.0,12.0,0.0
10895,70.0,0.0,60.0,11.0,0.0
10896,55.0,0.0,60.0,13.0,0.0
10897,58.0,0.0,60.0,13.0,0.0
10898,51.0,7.0,90.0,14.0,0.0
10899,67.0,53.0,60.0,12.0,0.0
10900,39.0,0.0,90.0,15.0,0.0
10901,70.0,0.0,60.0,11.0,0.0
10902,55.0,0.0,60.0,13.0,0.0
10903,70.0,0.0,60.0,11.0,0.0
10904,67.0,60.0,60.0,12.0,0.0
10905,58.0,0.0,60.0,13.0,0.0
10906,55.0,0.0,930.0,3.0,0.0
10907,59.0,0.0,930.0,3.0,0.0
10908,67.0,0.0,60.0,12.0,0.0
10909,39.0,0.0,90.0,15.0,0.0
10910,71.0,0.0,930.0,1.0,0.0
10911,67.0,0.0,930.0,1.0,0.0
10912,51.0,7.0,90.0,14.0,0.0
10913,71.0,0.0,60.0,11.0,0.0
10914,55.0,0.0,60.0,13.0,0.0
10915,59.0,53.0,60.0,13.0,0.0
10916,71.0,0.0,60.0,11.0,0.0
10917,67.0,60.0,60.0,12.0,0.0
10918,55.0,0.0,60.0,13.0,0.0
10919,59.0,0.0,60.0,13.0,0.0
10920,55.0,0.0,60.0,13.0,0.0
10921,39.0,7.0,90.0,15.0,0.0
10922,71.0,0.0,60.0,11.0,0.0
10923,59.0,53.0,60.0,13.0,0.0
10924,51.0,0.0,90.0,14.0,0.0
10925,67.0,0.0,60.0,12.0,0.0
10926,71.0,60.0,60.0,11.0,0.0
10927,67.0,0.0,60.0,12.0,0.0
10928,55.0,0.0,60.0,13.0,0.0
10929,59.0,0.0,60.0,13.0,0.0
10930,67.0,0.0,60.0,12.0,0.0
10931,55.0,0.0,60.0,13.0,0.0
10932,59.0,53.0,60.0,13.0,0.0
10933,39.0,7.0,90.0,15.0,0.0
10934,51.0,0.0,90.0,14.0,0.0
10935,71.0,0.0,60.0,11.0,0.0
10936,71.0,0.0,60.0,11.0,0.0
10937,59.0,0.0,60.0,13.0,0.0
10938,55.0,0.0,60.0,13.0,0.0
10939,67.0,60.0,60.0,12.0,0.0
10940,67.0,0.0,60.0,12.0,0.0
10941,71.0,0.0,60.0,11.0,0.0
10942,55.0,0.0,60.0,13.0,0.0
10943,51.0,0.0,90.0,14.0,0.0
10944,39.0,7.0,90.0,15.0,0.0
10945,59.0,53.0,60.0,13.0,0.0
10946,59.0,0.0,60.0,13.0,0.0
10947,55.0,0.0,60.0,13.0,0.0
10948,71.0,60.0,60.0,11.0,0.0
10949,67.0,0.0,60.0,12.0,0.0
10950,67.0,0.0,60.0,12.0,0.0
10951,51.0,0.0,90.0,14.0,0.0
10952,59.0,53.0,60.0,13.0,0.0
10953,71.0,0.0,60.0,11.0,0.0
10954,39.0,7.0,90.0,15.0,0.0
10955,55.0,0.0,60.0,13.0,0.0
10956,67.0,60.0,60.0,12.0,0.0
10957,71.0,0.0,60.0,11.0,0.0
10958,55.0,0.0,60.0,13.0,0.0
10959,59.0,0.0,60.0,13.0,0.0
10960,39.0,0.0,90.0,15.0,0.0
10961,59.0,0.0,60.0,13.0,0.0
10962,67.0,0.0,60.0,12.0,0.0
10963,51.0,7.0,90.0,14.0,0.0
10964,71.0,53.0,60.0,11.0,0.0
10965,55.0,0.0,60.0,13.0,0.0
10966,71.0,60.0,60.0,11.0,0.0
10967,59.0,0.0,60.0,13.0,0.0
10968,55.0,0.0,60.0,13.0,0.0
10969,67.0,0.0,60.0,12.0,0.0
10970,39.0,7.0,90.0,15.0,0.0
10971,51.0,0.0,90.0,14.0,0.0
10972,59.0,0.0,60.0,13.0,0.0
10973,71.0,53.0,60.0,11.0,0.0
10974,55.0,0.0,60.0,13.0,0.0
10975,67.0,0.0,60.0,12.0,0.0
10976,67.0,0.0,60.0,12.0,0.0
10977,71.0,60.0,60.0,11.0,0.0
10978,55.0,0.0,60.0,13.0,0.0
10979,59.0,0.0,60.0,13.0,0.0
10980,51.0,0.0,90.0,14.0,0.0
10981,39.0,7.0,90.0,15.0,0.0
10982,67.0,53.0,60.0,12.0,0.0
10983,71.0,0.0,60.0,11.0,0.0
10984,55.0,0.0,60.0,13.0,0.0
10985,59.0,0.0,60.0,13.0,0.0
10986,71.0,0.0,60.0,11.0,0.0
10987,55.0,0.0,60.0,13.0,0.0
10988,67.0,0.0,60.0,12.0,0.0
10989,59.0,60.0,60.0,13.0,0.0
10990,68.0,8.0,60.0,12.0,0.0
10991,44.0,52.0,60.0,10.0,0.0
10992,56.0,0.0,2160.0,8.0,0.0
10993,72.0,0.0,480.0,2.0,0.0
10994,80.0,52.0,480.0,0.0,0.0
10995,56.0,0.0,2130.0,5.0,0.0
10996,72.0,0.0,2130.0,5.0,0.0
10997,44.0,0.0,570.0,14.0,0.0
10998,32.0,0.0,570.0,15.0,0.0
10999,60.0,0.0,570.0,3.0,0.0
11000,56.0,0.0,570.0,3.0,0.0
11001,32.0,7.0,570.0,3.0,0.0
11002,60.0,0.0,2130.0,4.0,0.0
11003,44.0,7.0,2130.0,4.0,0.0
11004,84.0,0.0,480.0,0.0,0.0
11005,56.0,0.0,60.0,13.0,0.0
11006,68.0,0.0,2160.0,6.0,0.0
11007,68.0,0.0,480.0,2.0,0.0
11008,80.0,0.0,480.0,1.0,0.0
11009,72.0,0.0,480.0,1.0,0.0
11010,72.0,0.0,60.0,11.0,0.0
11011,60.0,0.0,60.0,13.0,0.0
11012,60.0,0.0,2160.0,7.0,0.0
11013,72.0,0.0,60.0,11.0,0.0
11014,44.0,52.0,60.0,10.0,0.0
11015,68.0,0.0,60.0,12.0,0.0
11016,56.0,0.0,60.0,13.0,0.0
11017,60.0,8.0,60.0,13.0,0.0
11018,56.0,8.0,60.0,13.0,0.0
11019,60.0,0.0,60.0,13.0,0.0
11020,44.0,52.0,60.0,10.0,0.0
11021,68.0,0.0,60.0,12.0,0.0
11022,72.0,0.0,60.0,11.0,0.0
11023,72.0,8.0,60.0,11.0,0.0
11024,56.0,0.0,60.0,13.0,0.0
11025,60.0,0.0,60.0,13.0,0.0
11026,44.0,52.0,60.0,10.0,0.0
11027,68.0,0.0,60.0,12.0,0.0
11028,56.0,0.0,60.0,13.0,0.0
11029,72.0,0.0,60.0,11.0,0.0
11030,68.0,8.0,60.0,12.0,0.0
11031,60.0,0.0,60.0,13.0,0.0
11032,44.0,52.0,60.0,10.0,0.0
11033,44.0,52.0,60.0,10.0,0.0
11034,72.0,0.0,60.0,11.0,0.0
11035,60.0,8.0,60.0,13.0,0.0
11036,68.0,0.0,60.0,12.0,0.0
11037,56.0,0.0,60.0,13.0,0.0
11038,44.0,52.0,60.0,10.0,0.0
11039,72.0,0.0,60.0,11.0,0.0
11040,68.0,0.0,60.0,12.0,0.0
11041,56.0,0.0,60.0,13.0,0.0
11042,60.0,8.0,60.0,13.0,0.0
11043,60.0,0.0,60.0,13.0,0.0
11044,68.0,0.0,60.0,12.0,0.0
11045,56.0,0.0,60.0,13.0,0.0
11046,72.0,8.0,60.0,11.0,0.0
11047,44.0,0.0,60.0,10.0,0.0
11048,44.0,52.0,120.0,10.0,0.0
11049,80.0,0.0,90.0,1.0,0.0
11050,72.0,0.0,90.0,1.0,0.0
11051,80.0,0.0,90.0,0.0,0.0
11052,84.0,0.0,90.0,0.0,0.0
11053,72.0,0.0,60.0,11.0,0.0
11054,56.0,53.0,60.0,13.0,0.0
11055,68.0,0.0,60.0,12.0,0.0
11056,60.0,0.0,60.0,13.0,0.0
11057,72.0,0.0,90.0,2.0,0.0
11058,68.0,0.0,90.0,2.0,0.0
11059,44.0,0.0,60.0,13.0,0.0
11060,56.0,8.0,60.0,12.0,0.0
11061,56.0,0.0,60.0,11.0,0.0
11062,72.0,0.0,90.0,1.0,0.0
11063,80.0,0.0,90.0,1.0,0.0
11064,84.0,0.0,90.0,0.0,0.0
11065,58.0,0.0,60.0,12.0,0.0
11066,44.0,52.0,120.0,10.0,0.0
11067,80.0,0.0,90.0,0.0,0.0
11068,58.0,53.0,60.0,11.0,0.0
11069,72.0,0.0,90.0,2.0,0.0
11070,44.0,7.0,90.0,14.0,0.0
11071,32.0,0.0,90.0,3.0,0.0
11072,46.0,0.0,60.0,13.0,0.0
11073,32.0,0.0,90.0,15.0,0.0
11074,44.0,0.0,90.0,3.0,0.0
11075,68.0,0.0,90.0,2.0,0.0
11076,60.0,0.0,60.0,12.0,0.0
11077,48.0,0.0,60.0,13.0,0.0
11078,60.0,8.0,60.0,11.0,0.0
11079,32.0,0.0,90.0,3.0,0.0
11080,44.0,0.0,90.0,3.0,0.0
11081,32.0,0.0,90.0,15.0,0.0
11082,72.0,0.0,90.0,2.0,0.0
11083,68.0,0.0,90.0,2.0,0.0
11084,84.0,0.0,90.0,0.0,0.0
11085,44.0,0.0,90.0,14.0,0.0
11086,61.0,53.0,60.0,12.0,0.0
11087,80.0,7.0,90.0,0.0,0.0
11088,44.0,52.0,120.0,10.0,0.0
11089,49.0,0.0,60.0,13.0,0.0
11090,72.0,0.0,90.0,1.0,0.0
11091,61.0,0.0,60.0,11.0,0.0
11092,80.0,0.0,90.0,1.0,0.0
11093,51.0,0.0,60.0,13.0,0.0
11094,63.0,0.0,60.0,12.0,0.0
11095,63.0,8.0,60.0,11.0,0.0
11096,68.0,0.0,90.0,2.0,0.0
11097,44.0,0.0,90.0,14.0,0.0
11098,44.0,52.0,120.0,10.0,0.0
11099,72.0,0.0,90.0,2.0,0.0
11100,44.0,0.0,90.0,3.0,0.0
11101,84.0,0.0,90.0,0.0,0.0
11102,65.0,53.0,60.0,11.0,0.0
11103,32.0,7.0,90.0,15.0,0.0
11104,72.0,0.0,90.0,1.0,0.0
11105,65.0,0.0,60.0,12.0,0.0
11106,80.0,0.0,90.0,1.0,0.0
11107,80.0,0.0,90.0,0.0,0.0
11108,53.0,0.0,60.0,13.0,0.0
11109,32.0,0.0,90.0,3.0,0.0
11110,55.0,0.0,60.0,13.0,0.0
11111,67.0,8.0,60.0,11.0,0.0
11112,67.0,0.0,60.0,12.0,0.0
11113,80.0,0.0,90.0,0.0,0.0
11114,68.0,0.0,90.0,2.0,0.0
11115,72.0,0.0,90.0,2.0,0.0
11116,44.0,0.0,90.0,3.0,0.0
11117,84.0,0.0,90.0,0.0,0.0
11118,44.0,0.0,90.0,14.0,0.0
11119,32.0,7.0,90.0,3.0,0.0
11120,68.0,53.0,60.0,11.0,0.0
11121,80.0,0.0,90.0,1.0,0.0
11122,72.0,0.0,90.0,1.0,0.0
11123,32.0,0.0,90.0,15.0,0.0
11124,44.0,52.0,120.0,10.0,0.0
11125,56.0,0.0,60.0,13.0,0.0
11126,68.0,0.0,60.0,12.0,0.0
11127,60.0,0.0,60.0,11.0,0.0
11128,44.0,0.0,60.0,13.0,0.0
11129,48.0,0.0,60.0,13.0,0.0
11130,56.0,8.0,60.0,12.0,0.0
11131,44.0,0.0,90.0,14.0,0.0
11132,58.0,0.0,60.0,12.0,0.0
11133,44.0,52.0,120.0,10.0,0.0
11134,49.0,0.0,60.0,13.0,0.0
11135,80.0,0.0,90.0,0.0,0.0
11136,84.0,0.0,90.0,0.0,0.0
11137,32.0,0.0,90.0,3.0,0.0
11138,61.0,0.0,60.0,11.0,0.0
11139,68.0,0.0,90.0,2.0,0.0
11140,44.0,0.0,90.0,3.0,0.0
11141,32.0,7.0,90.0,15.0,0.0
11142,46.0,53.0,60.0,13.0,0.0
11143,80.0,0.0,90.0,1.0,0.0
11144,72.0,0.0,90.0,1.0,0.0
11145,72.0,0.0,90.0,2.0,0.0
11146,63.0,0.0,60.0,11.0,0.0
11147,60.0,0.0,60.0,12.0,0.0
11148,48.0,8.0,60.0,13.0,0.0
11149,51.0,0.0,60.0,13.0,0.0
11150,44.0,0.0,90.0,14.0,0.0
11151,72.0,0.0,90.0,2.0,0.0
11152,72.0,0.0,90.0,1.0,0.0
11153,80.0,0.0,90.0,1.0,0.0
11154,65.0,0.0,60.0,11.0,0.0
11155,32.0,0.0,90.0,15.0,0.0
11156,44.0,52.0,120.0,10.0,0.0
11157,68.0,7.0,90.0,2.0,0.0
11158,84.0,0.0,90.0,0.0,0.0
11159,80.0,0.0,90.0,0.0,0.0
11160,61.0,0.0,60.0,12.0,0.0
11161,53.0,53.0,60.0,13.0,0.0
11162,49.0,0.0,60.0,13.0,0.0
11163,44.0,0.0,90.0,3.0,0.0
11164,32.0,0.0,90.0,3.0,0.0
11165,67.0,0.0,60.0,11.0,0.0
11166,55.0,0.0,60.0,13.0,0.0
11167,51.0,0.0,60.0,13.0,0.0
11168,63.0,8.0,60.0,12.0,0.0
11169,53.0,0.0,60.0,13.0,0.0
11170,56.0,0.0,60.0,13.0,0.0
11171,32.0,0.0,90.0,3.0,0.0
11172,32.0,0.0,90.0,15.0,0.0
11173,80.0,0.0,90.0,0.0,0.0
11174,65.0,0.0,60.0,12.0,0.0
11175,44.0,0.0,90.0,14.0,0.0
11176,44.0,52.0,120.0,10.0,0.0
11177,84.0,0.0,90.0,0.0,0.0
11178,72.0,0.0,90.0,2.0,0.0
11179,44.0,0.0,90.0,3.0,0.0
11180,68.0,7.0,90.0,2.0,0.0
11181,72.0,0.0,90.0,1.0,0.0
11182,80.0,0.0,90.0,1.0,0.0
11183,68.0,53.0,60.0,11.0,0.0
11184,58.0,0.0,60.0,13.0,0.0
11185,55.0,0.0,60.0,13.0,0.0
11186,70.0,0.0,60.0,11.0,0.0
11187,67.0,8.0,60.0,12.0,0.0
11188,84.0,0.0,90.0,0.0,0.0
11189,80.0,7.0,90.0,0.0,0.0
11190,68.0,0.0,90.0,2.0,0.0
11191,80.0,0.0,90.0,1.0,0.0
11192,72.0,0.0,90.0,1.0,0.0
11193,32.0,0.0,90.0,15.0,0.0
11194,60.0,53.0,60.0,13.0,0.0
11195,72.0,0.0,60.0,11.0,0.0
11196,44.0,0.0,90.0,14.0,0.0
11197,72.0,0.0,90.0,2.0,0.0
11198,68.0,0.0,60.0,12.0,0.0
11199,56.0,0.0,60.0,13.0,0.0
11200,44.0,52.0,120.0,10.0,0.0
11201,44.0,0.0,90.0,3.0,0.0
11202,32.0,0.0,90.0,3.0,0.0
11203,60.0,8.0,60.0,12.0,0.0
11204,56.0,0.0,60.0,13.0,0.0
11205,48.0,0.0,60.0,13.0,0.0
11206,68.0,0.0,60.0,11.0,0.0
11207,61.0,0.0,60.0,12.0,0.0
11208,44.0,0.0,90.0,14.0,0.0
11209,80.0,7.0,90.0,1.0,0.0
11210,84.0,0.0,90.0,0.0,0.0
11211,72.0,0.0,90.0,1.0,0.0
11212,32.0,0.0,90.0,15.0,0.0
11213,32.0,0.0,90.0,3.0,0.0
11214,80.0,0.0,90.0,0.0,0.0
11215,44.0,52.0,120.0,10.0,0.0
11216,49.0,0.0,60.0,13.0,0.0
11217,58.0,53.0,60.0,13.0,0.0
11218,68.0,0.0,90.0,2.0,0.0
11219,70.0,0.0,60.0,11.0,0.0
11220,44.0,0.0,90.0,3.0,0.0
11221,72.0,0.0,90.0,2.0,0.0
11222,63.0,8.0,60.0,12.0,0.0
11223,60.0,0.0,60.0,13.0,0.0
11224,51.0,0.0,60.0,13.0,0.0
11225,72.0,0.0,60.0,11.0,0.0
11226,72.0,0.0,90.0,1.0,0.0
11227,32.0,7.0,90.0,3.0,0.0
11228,84.0,0.0,90.0,0.0,0.0
11229,72.0,0.0,90.0,2.0,0.0
11230,68.0,0.0,90.0,2.0,0.0
11231,80.0,0.0,90.0,0.0,0.0
11232,65.0,0.0,60.0,12.0,0.0
11233,44.0,0.0,90.0,3.0,0.0
11234,44.0,52.0,120.0,10.0,0.0
11235,32.0,0.0,90.0,15.0,0.0
11236,73.0,0.0,60.0,11.0,0.0
11237,53.0,0.0,60.0,13.0,0.0
11238,61.0,53.0,60.0,13.0,0.0
11239,44.0,0.0,90.0,14.0,0.0
11240,80.0,0.0,90.0,1.0,0.0
11241,63.0,0.0,60.0,13.0,0.0
11242,67.0,0.0,60.0,12.0,0.0
11243,55.0,0.0,60.0,13.0,0.0
11244,75.0,8.0,60.0,11.0,0.0
11245,32.0,0.0,90.0,3.0,0.0
11246,44.0,0.0,90.0,14.0,0.0
11247,44.0,52.0,120.0,10.0,0.0
11248,65.0,0.0,60.0,13.0,0.0
11249,56.0,53.0,60.0,13.0,0.0
11250,68.0,0.0,90.0,2.0,0.0
11251,68.0,0.0,60.0,12.0,0.0
11252,72.0,7.0,90.0,2.0,0.0
11253,44.0,0.0,90.0,3.0,0.0
11254,77.0,0.0,60.0,11.0,0.0
11255,80.0,0.0,90.0,0.0,0.0
11256,32.0,0.0,90.0,15.0,0.0
11257,72.0,0.0,90.0,1.0,0.0
11258,80.0,0.0,90.0,1.0,0.0
11259,84.0,0.0,90.0,0.0,0.0
11260,67.0,8.0,60.0,13.0,0.0
11261,79.0,0.0,60.0,11.0,0.0
11262,70.0,0.0,60.0,12.0,0.0
11263,58.0,0.0,60.0,13.0,0.0
11264,72.0,0.0,210.0,1.0,0.0
11265,60.0,0.0,60.0,13.0,0.0
11266,68.0,0.0,60.0,13.0,0.0
11267,80.0,0.0,210.0,1.0,0.0
11268,44.0,0.0,240.0,10.0,0.0
11269,32.0,0.0,90.0,3.0,0.0
11270,32.0,7.0,90.0,15.0,0.0
11271,44.0,0.0,90.0,14.0,0.0
11272,72.0,52.0,240.0,2.0,0.0
11273,68.0,0.0,240.0,2.0,0.0
11274,84.0,0.0,210.0,0.0,0.0
11275,80.0,0.0,210.0,0.0,0.0
11276,44.0,0.0,210.0,3.0,0.0
11277,72.0,53.0,60.0,12.0,0.0
11278,80.0,0.0,60.0,11.0,0.0
11279,70.0,0.0,60.0,12.0,0.0
11280,82.0,60.0,60.0,11.0,0.0
11281,56.0,0.0,60.0,13.0,0.0
11282,56.0,0.0,60.0,13.0,0.0
11283,72.0,0.0,60.0,12.0,0.0
11284,32.0,0.0,90.0,15.0,0.0
11285,84.0,53.0,60.0,11.0,0.0
11286,32.0,0.0,90.0,3.0,0.0
11287,44.0,0.0,90.0,14.0,0.0
11288,73.0,8.0,60.0,12.0,0.0
11289,85.0,0.0,60.0,11.0,0.0
11290,56.0,0.0,60.0,13.0,0.0
11291,33.0,0.0,90.0,3.0,0.0
11292,87.0,0.0,60.0,11.0,0.0
11293,57.0,53.0,60.0,13.0,0.0
11294,75.0,0.0,60.0,12.0,0.0
11295,57.0,0.0,210.0,3.0,0.0
11296,69.0,0.0,210.0,0.0,0.0
11297,81.0,0.0,210.0,0.0,0.0
11298,75.0,0.0,210.0,5.0,0.0
11299,63.0,0.0,210.0,5.0,0.0
11300,63.0,0.0,210.0,4.0,0.0
11301,45.0,7.0,90.0,14.0,0.0
11302,33.0,0.0,90.0,15.0,0.0
11303,39.0,52.0,240.0,10.0,0.0
11304,51.0,0.0,210.0,4.0,0.0
11305,45.0,0.0,210.0,3.0,0.0
11306,69.0,0.0,210.0,1.0,0.0
11307,75.0,0.0,60.0,12.0,0.0
11308,87.0,0.0,60.0,11.0,0.0
11309,57.0,60.0,60.0,13.0,0.0
11310,33.0,7.0,90.0,15.0,0.0
11311,75.0,0.0,60.0,12.0,0.0
11312,57.0,0.0,60.0,13.0,0.0
11313,45.0,0.0,90.0,14.0,0.0
11314,87.0,53.0,60.0,11.0,0.0
11315,33.0,0.0,90.0,3.0,0.0
11316,87.0,0.0,60.0,11.0,0.0
11317,75.0,8.0,60.0,12.0,0.0
11318,57.0,0.0,60.0,13.0,0.0
11319,58.0,0.0,60.0,13.0,0.0
11320,70.0,0.0,210.0,0.0,0.0
11321,82.0,0.0,210.0,0.0,0.0
11322,70.0,0.0,210.0,1.0,0.0
11323,34.0,0.0,90.0,15.0,0.0
11324,46.0,7.0,90.0,14.0,0.0
11325,46.0,0.0,210.0,3.0,0.0
11326,39.0,52.0,240.0,10.0,0.0
11327,75.0,0.0,210.0,5.0,0.0
11328,58.0,0.0,210.0,3.0,0.0
11329,87.0,0.0,60.0,11.0,0.0
11330,34.0,0.0,90.0,3.0,0.0
11331,75.0,53.0,60.0,12.0,0.0
11332,63.0,0.0,210.0,4.0,0.0
11333,63.0,7.0,210.0,5.0,0.0
11334,51.0,0.0,210.0,4.0,0.0
11335,58.0,0.0,60.0,13.0,0.0
11336,75.0,0.0,60.0,12.0,0.0
11337,87.0,60.0,60.0,11.0,0.0
11338,34.0,0.0,90.0,3.0,0.0
11339,34.0,0.0,90.0,15.0,0.0
11340,46.0,0.0,90.0,14.0,0.0
11341,75.0,0.0,60.0,12.0,0.0
11342,87.0,53.0,60.0,11.0,0.0
11343,58.0,0.0,60.0,13.0,0.0
11344,58.0,0.0,60.0,13.0,0.0
11345,87.0,8.0,60.0,11.0,0.0
11346,75.0,0.0,60.0,12.0,0.0
11347,35.0,0.0,90.0,15.0,0.0
11348,63.0,0.0,210.0,5.0,0.0
11349,75.0,0.0,60.0,12.0,0.0
11350,47.0,0.0,90.0,14.0,0.0
11351,75.0,7.0,210.0,5.0,0.0
11352,59.0,0.0,210.0,3.0,0.0
11353,59.0,0.0,60.0,13.0,0.0
11354,47.0,0.0,210.0,3.0,0.0
11355,51.0,0.0,210.0,4.0,0.0
11356,83.0,0.0,210.0,0.0,0.0
11357,71.0,0.0,210.0,0.0,0.0
11358,71.0,0.0,210.0,1.0,0.0
11359,87.0,53.0,60.0,11.0,0.0
11360,39.0,52.0,240.0,10.0,0.0
11361,35.0,7.0,90.0,3.0,0.0
11362,63.0,0.0,210.0,4.0,0.0
11363,75.0,60.0,60.0,12.0,0.0
11364,59.0,0.0,60.0,13.0,0.0
11365,87.0,0.0,60.0,11.0,0.0
11366,59.0,0.0,60.0,13.0,0.0
11367,47.0,0.0,90.0,14.0,0.0
11368,35.0,0.0,90.0,15.0,0.0
11369,87.0,0.0,60.0,11.0,0.0
11370,75.0,53.0,60.0,12.0,0.0
11371,35.0,0.0,90.0,3.0,0.0
11372,59.0,0.0,60.0,13.0,0.0
11373,75.0,8.0,60.0,12.0,0.0
11374,87.0,0.0,60.0,11.0,0.0
11375,72.0,0.0,210.0,0.0,0.0
11376,63.0,0.0,210.0,5.0,0.0
11377,75.0,0.0,210.0,5.0,0.0
11378,75.0,53.0,60.0,12.0,0.0
11379,48.0,0.0,210.0,3.0,0.0
11380,72.0,0.0,210.0,1.0,0.0
11381,60.0,0.0,60.0,13.0,0.0
11382,48.0,7.0,90.0,14.0,0.0
11383,39.0,52.0,240.0,10.0,0.0
11384,36.0,0.0,90.0,15.0,0.0
11385,36.0,0.0,90.0,3.0,0.0
11386,84.0,0.0,210.0,0.0,0.0
11387,60.0,0.0,210.0,3.0,0.0
11388,87.0,0.0,60.0,11.0,0.0
11389,51.0,0.0,210.0,4.0,0.0
11390,63.0,0.0,210.0,4.0,0.0
11391,60.0,60.0,60.0,13.0,0.0
11392,87.0,0.0,60.0,11.0,0.0
11393,75.0,0.0,60.0,12.0,0.0
11394,60.0,0.0,60.0,13.0,0.0
11395,86.0,0.0,60.0,11.0,0.0
11396,74.0,53.0,60.0,12.0,0.0
11397,48.0,0.0,90.0,14.0,0.0
11398,36.0,0.0,90.0,15.0,0.0
11399,36.0,7.0,90.0,3.0,0.0
11400,84.0,0.0,60.0,11.0,0.0
11401,72.0,0.0,60.0,12.0,0.0
11402,60.0,8.0,60.0,13.0,0.0
11403,50.0,0.0,210.0,3.0,0.0
11404,62.0,0.0,210.0,3.0,0.0
11405,74.0,0.0,210.0,1.0,0.0
11406,82.0,0.0,60.0,11.0,0.0
11407,38.0,0.0,90.0,15.0,0.0
11408,86.0,0.0,210.0,0.0,0.0
11409,74.0,0.0,210.0,0.0,0.0
11410,62.0,0.0,60.0,13.0,0.0
11411,50.0,0.0,90.0,14.0,0.0
11412,58.0,0.0,210.0,4.0,0.0
11413,70.0,53.0,60.0,12.0,0.0
11414,38.0,7.0,90.0,3.0,0.0
11415,56.0,0.0,210.0,4.0,0.0
11416,70.0,0.0,210.0,5.0,0.0
11417,80.0,60.0,60.0,11.0,0.0
11418,68.0,0.0,60.0,12.0,0.0
11419,62.0,0.0,60.0,13.0,0.0
11420,38.0,0.0,90.0,15.0,0.0
11421,38.0,0.0,90.0,3.0,0.0
11422,50.0,7.0,90.0,14.0,0.0
11423,79.0,0.0,60.0,11.0,0.0
11424,62.0,0.0,60.0,13.0,0.0
11425,67.0,53.0,60.0,12.0,0.0
11426,62.0,0.0,60.0,13.0,0.0
11427,77.0,0.0,60.0,11.0,0.0
11428,65.0,60.0,60.0,12.0,0.0
11429,39.0,7.0,90.0,15.0,0.0
11430,63.0,0.0,210.0,5.0,0.0
11431,58.0,0.0,210.0,4.0,0.0
11432,51.0,0.0,210.0,4.0,0.0
11433,63.0,0.0,60.0,13.0,0.0
11434,87.0,53.0,60.0,0.0,0.0
11435,75.0,0.0,90.0,1.0,0.0
11436,75.0,0.0,60.0,0.0,0.0
11437,70.0,0.0,210.0,5.0,0.0
11438,63.0,0.0,60.0,12.0,0.0
11439,39.0,0.0,90.0,3.0,0.0
11440,63.0,0.0,90.0,3.0,0.0
11441,51.0,0.0,90.0,3.0,0.0
11442,51.0,0.0,90.0,14.0,0.0
11443,75.0,0.0,60.0,11.0,0.0
11444,74.0,0.0,60.0,11.0,0.0
11445,63.0,0.0,60.0,13.0,0.0
11446,86.0,0.0,60.0,0.0,0.0
11447,62.0,0.0,60.0,12.0,0.0
11448,74.0,60.0,60.0,0.0,0.0
11449,60.0,53.0,60.0,12.0,0.0
11450,55.0,0.0,60.0,13.0,0.0
11451,67.0,0.0,90.0,1.0,0.0
11452,70.0,0.0,90.0,1.0,0.0
11453,27.0,0.0,90.0,3.0,0.0
11454,55.0,0.0,90.0,3.0,0.0
11455,72.0,0.0,60.0,0.0,0.0
11456,72.0,0.0,60.0,11.0,0.0
11457,84.0,0.0,60.0,0.0,0.0
11458,39.0,7.0,90.0,14.0,0.0
11459,27.0,0.0,90.0,15.0,0.0
11460,51.0,0.0,90.0,3.0,0.0
11461,55.0,0.0,60.0,13.0,0.0
11462,70.0,60.0,60.0,11.0,0.0
11463,70.0,0.0,60.0,0.0,0.0
11464,82.0,0.0,60.0,0.0,0.0
11465,58.0,0.0,60.0,12.0,0.0
11466,56.0,0.0,90.0,3.0,0.0
11467,53.0,0.0,90.0,3.0,0.0
11468,68.0,53.0,60.0,0.0,0.0
11469,65.0,0.0,90.0,1.0,0.0
11470,68.0,7.0,90.0,1.0,0.0
11471,58.0,0.0,210.0,4.0,0.0
11472,51.0,0.0,210.0,4.0,0.0
11473,80.0,0.0,60.0,0.0,0.0
11474,70.0,0.0,210.0,5.0,0.0
11475,39.0,180.0,240.0,10.0,0.0
11476,56.0,0.0,60.0,12.0,0.0
11477,41.0,0.0,90.0,14.0,0.0
11478,56.0,0.0,60.0,13.0,0.0
11479,63.0,0.0,210.0,5.0,0.0
11480,29.0,0.0,90.0,15.0,0.0
11481,29.0,0.0,90.0,3.0,0.0
11482,68.0,0.0,60.0,11.0,0.0
11483,79.0,0.0,60.0,0.0,0.0
11484,56.0,0.0,60.0,13.0,0.0
11485,67.0,0.0,60.0,0.0,0.0
11486,67.0,0.0,60.0,11.0,0.0
11487,55.0,60.0,60.0,12.0,0.0
11488,67.0,0.0,90.0,1.0,0.0
11489,65.0,53.0,60.0,11.0,0.0
11490,63.0,0.0,90.0,1.0,0.0
11491,58.0,0.0,60.0,13.0,0.0
11492,31.0,7.0,90.0,15.0,0.0
11493,65.0,0.0,60.0,0.0,0.0
11494,31.0,0.0,90.0,3.0,0.0
11495,77.0,0.0,60.0,0.0,0.0
11496,55.0,0.0,90.0,3.0,0.0
11497,58.0,0.0,90.0,3.0,0.0
11498,53.0,0.0,60.0,12.0,0.0
11499,43.0,0.0,90.0,14.0,0.0
11500,75.0,0.0,60.0,0.0,0.0
11501,51.0,0.0,60.0,12.0,0.0
11502,58.0,0.0,60.0,13.0,0.0
11503,63.0,0.0,60.0,11.0,0.0
11504,63.0,8.0,60.0,0.0,0.0
11505,44.0,60.0,180.0,8.0,0.0
11506,77.0,0.0,180.0,1.0,0.0
11507,56.0,0.0,180.0,4.0,0.0
11508,56.0,0.0,180.0,3.0,0.0
11509,60.0,0.0,180.0,3.0,0.0
11510,60.0,0.0,180.0,13.0,0.0
11511,44.0,900.0,240.0,10.0,0.0
11512,65.0,0.0,180.0,12.0,0.0
11513,80.0,0.0,180.0,1.0,0.0
11514,32.0,0.0,180.0,3.0,0.0
11515,65.0,0.0,180.0,7.0,0.0
11516,44.0,0.0,180.0,4.0,0.0
11517,68.0,0.0,180.0,5.0,0.0
11518,77.0,0.0,180.0,0.0,0.0
11519,80.0,0.0,180.0,0.0,0.0
11520,56.0,0.0,180.0,5.0,0.0
11521,68.0,0.0,180.0,11.0,0.0
11522,44.0,0.0,180.0,14.0,0.0
11523,32.0,0.0,180.0,15.0,0.0
11524,68.0,0.0,180.0,6.0,0.0
11525,58.0,840.0,180.0,4.0,0.0
11526,65.0,0.0,180.0,6.0,0.0
11527,58.0,0.0,180.0,11.0,0.0
11528,65.0,0.0,180.0,11.0,0.0
11529,62.0,0.0,180.0,11.0,0.0
11530,58.0,0.0,180.0,7.0,0.0
11531,77.0,0.0,180.0,1.0,0.0
11532,62.0,0.0,180.0,12.0,0.0
11533,58.0,0.0,180.0,12.0,0.0
11534,58.0,0.0,180.0,3.0,0.0
11535,74.0,0.0,180.0,1.0,0.0
11536,34.0,0.0,180.0,15.0,0.0
11537,74.0,0.0,180.0,0.0,0.0
11538,77.0,0.0,180.0,0.0,0.0
11539,46.0,0.0,180.0,8.0,0.0
11540,65.0,0.0,180.0,12.0,0.0
11541,46.0,0.0,180.0,14.0,0.0
11542,70.0,0.0,180.0,5.0,0.0
11543,34.0,0.0,180.0,3.0,0.0
11544,58.0,0.0,180.0,13.0,0.0
11545,63.0,60.0,60.0,13.0,0.0
11546,58.0,0.0,120.0,3.0,0.0
11547,55.0,360.0,120.0,3.0,0.0
11548,63.0,0.0,120.0,2.0,0.0
11549,63.0,240.0,660.0,13.0,0.0
11550,63.0,0.0,600.0,2.0,0.0
11551,55.0,0.0,600.0,3.0,0.0
11552,58.0,60.0,360.0,3.0,0.0
11553,59.0,180.0,60.0,12.0,0.0
11554,56.0,0.0,480.0,3.0,0.0
11555,59.0,0.0,420.0,12.0,0.0
11556,62.0,0.0,240.0,2.0,0.0
11557,53.0,0.0,240.0,3.0,0.0
11558,62.0,240.0,240.0,13.0,0.0
11559,60.0,0.0,240.0,12.0,0.0
11560,54.0,225.0,240.0,3.0,0.0
11561,51.0,0.0,240.0,3.0,0.0
11562,60.0,0.0,240.0,2.0,0.0
11563,57.0,0.0,240.0,2.0,0.0
11564,60.0,0.0,240.0,13.0,0.0
11565,57.0,0.0,240.0,14.0,0.0
11566,50.0,0.0,210.0,3.0,0.0
11567,53.0,195.0,210.0,3.0,0.0
11568,58.0,0.0,210.0,14.0,0.0
11569,58.0,0.0,210.0,2.0,0.0
11570,58.0,0.0,210.0,13.0,0.0
11571,58.0,0.0,210.0,2.0,0.0
11572,50.0,0.0,210.0,3.0,0.0
11573,53.0,15.0,210.0,3.0,0.0
11574,58.0,0.0,210.0,14.0,0.0
11575,58.0,0.0,210.0,13.0,0.0
11576,70.0,45.0,60.0,11.0,0.0
11577,72.0,60.0,60.0,11.0,0.0
11578,58.0,0.0,210.0,2.0,0.0
11579,53.0,0.0,210.0,3.0,0.0
11580,50.0,0.0,210.0,3.0,0.0
11581,74.0,60.0,60.0,11.0,0.0
11582,58.0,15.0,210.0,13.0,0.0
11583,58.0,60.0,240.0,14.0,0.0
11584,75.0,60.0,60.0,11.0,0.0
11585,77.0,45.0,60.0,11.0,0.0
11586,74.0,0.0,60.0,11.0,0.0
11587,63.0,0.0,120.0,2.0,0.0
11588,75.0,240.0,240.0,11.0,0.0
11589,55.0,0.0,120.0,3.0,0.0
11590,63.0,60.0,60.0,13.0,0.0
11591,58.0,120.0,120.0,3.0,0.0
11592,63.0,0.0,660.0,13.0,0.0
11593,58.0,60.0,360.0,3.0,0.0
11594,55.0,0.0,600.0,3.0,0.0
11595,63.0,240.0,600.0,2.0,0.0
11596,56.0,0.0,480.0,3.0,0.0
11597,59.0,180.0,60.0,12.0,0.0
11598,59.0,0.0,420.0,12.0,0.0
11599,62.0,240.0,240.0,2.0,0.0
11600,53.0,0.0,240.0,3.0,0.0
11601,62.0,0.0,240.0,13.0,0.0
11602,54.0,0.0,240.0,3.0,0.0
11603,60.0,0.0,240.0,12.0,0.0
11604,60.0,0.0,240.0,2.0,0.0
11605,57.0,225.0,240.0,2.0,0.0
11606,60.0,0.0,240.0,13.0,0.0
11607,57.0,0.0,240.0,14.0,0.0
11608,51.0,0.0,240.0,3.0,0.0
11609,58.0,0.0,210.0,14.0,0.0
11610,50.0,0.0,210.0,3.0,0.0
11611,53.0,0.0,210.0,3.0,0.0
11612,58.0,195.0,210.0,2.0,0.0
11613,58.0,0.0,210.0,13.0,0.0
11614,58.0,0.0,210.0,14.0,0.0
11615,58.0,0.0,210.0,2.0,0.0
11616,53.0,15.0,210.0,3.0,0.0
11617,50.0,0.0,210.0,3.0,0.0
11618,58.0,0.0,210.0,13.0,0.0
11619,70.0,45.0,60.0,11.0,0.0
11620,72.0,60.0,60.0,11.0,0.0
11621,58.0,0.0,210.0,2.0,0.0
11622,74.0,60.0,60.0,11.0,0.0
11623,50.0,0.0,210.0,3.0,0.0
11624,58.0,0.0,240.0,14.0,0.0
11625,58.0,0.0,210.0,13.0,0.0
11626,53.0,15.0,210.0,3.0,0.0
11627,75.0,60.0,60.0,11.0,0.0
11628,77.0,45.0,60.0,11.0,0.0
11629,79.0,60.0,60.0,11.0,0.0
11630,80.0,0.0,60.0,11.0,0.0
11631,68.0,0.0,120.0,2.0,0.0
11632,48.0,0.0,120.0,3.0,0.0
11633,51.0,0.0,120.0,3.0,0.0
11634,68.0,60.0,60.0,13.0,0.0
11635,48.0,0.0,60.0,14.0,0.0
11636,63.0,120.0,120.0,2.0,0.0
11637,68.0,0.0,660.0,13.0,0.0
11638,48.0,0.0,660.0,14.0,0.0
11639,80.0,240.0,180.0,11.0,0.0
11640,68.0,240.0,600.0,2.0,0.0
11641,51.0,0.0,360.0,3.0,0.0
11642,48.0,0.0,600.0,3.0,0.0
11643,63.0,60.0,360.0,2.0,0.0
11644,64.0,180.0,60.0,12.0,0.0
11645,52.0,0.0,480.0,3.0,0.0
11646,61.0,0.0,480.0,2.0,0.0
11647,64.0,0.0,420.0,12.0,0.0
11648,67.0,0.0,240.0,13.0,0.0
11649,46.0,0.0,240.0,3.0,0.0
11650,46.0,0.0,240.0,14.0,0.0
11651,67.0,240.0,240.0,2.0,0.0
11652,53.0,0.0,240.0,3.0,0.0
11653,44.0,0.0,240.0,3.0,0.0
11654,44.0,0.0,240.0,14.0,0.0
11655,65.0,0.0,240.0,12.0,0.0
11656,65.0,0.0,240.0,13.0,0.0
11657,60.0,0.0,240.0,2.0,0.0
11658,65.0,225.0,240.0,2.0,0.0
11659,55.0,0.0,210.0,3.0,0.0
11660,58.0,0.0,210.0,3.0,0.0
11661,61.0,195.0,210.0,6.0,0.0
11662,58.0,0.0,210.0,7.0,0.0
11663,43.0,0.0,210.0,8.0,0.0
11664,64.0,0.0,210.0,13.0,0.0
11665,73.0,0.0,210.0,1.0,0.0
11666,61.0,0.0,210.0,2.0,0.0
11667,43.0,0.0,210.0,14.0,0.0
11668,64.0,0.0,210.0,2.0,0.0
11669,64.0,15.0,210.0,13.0,0.0
11670,58.0,0.0,210.0,7.0,0.0
11671,64.0,0.0,210.0,2.0,0.0
11672,43.0,0.0,210.0,8.0,0.0
11673,61.0,0.0,210.0,2.0,0.0
11674,58.0,0.0,210.0,3.0,0.0
11675,43.0,0.0,210.0,14.0,0.0
11676,55.0,0.0,210.0,3.0,0.0
11677,61.0,0.0,210.0,6.0,0.0
11678,73.0,0.0,210.0,1.0,0.0
11679,76.0,45.0,60.0,11.0,0.0
11680,77.0,60.0,60.0,11.0,0.0
11681,58.0,0.0,210.0,7.0,0.0
11682,55.0,0.0,210.0,3.0,0.0
11683,61.0,0.0,210.0,6.0,0.0
11684,61.0,0.0,210.0,2.0,0.0
11685,73.0,0.0,210.0,1.0,0.0
11686,64.0,0.0,210.0,2.0,0.0
11687,58.0,0.0,210.0,3.0,0.0
11688,43.0,0.0,210.0,8.0,0.0
11689,79.0,60.0,60.0,11.0,0.0
11690,64.0,15.0,210.0,13.0,0.0
11691,43.0,0.0,210.0,14.0,0.0
11692,80.0,60.0,60.0,11.0,0.0
11693,82.0,45.0,60.0,11.0,0.0
11694,79.0,240.0,60.0,11.0,0.0
11695,65.0,0.0,450.0,13.0,0.0
11696,56.0,15.0,450.0,3.0,0.0
11697,72.0,0.0,450.0,1.0,0.0
11698,60.0,0.0,450.0,3.0,0.0
11699,65.0,120.0,480.0,2.0,0.0
11700,56.0,225.0,240.0,7.0,0.0
11701,44.0,0.0,240.0,8.0,0.0
11702,84.0,0.0,240.0,11.0,0.0
11703,44.0,0.0,450.0,14.0,0.0
11704,60.0,0.0,240.0,6.0,0.0
11705,68.0,0.0,420.0,13.0,0.0
11706,41.0,0.0,420.0,14.0,0.0
11707,56.0,60.0,240.0,7.0,0.0
11708,41.0,0.0,240.0,8.0,0.0
11709,72.0,0.0,420.0,1.0,0.0
11710,60.0,52.0,420.0,3.0,0.0
11711,68.0,0.0,420.0,2.0,0.0
11712,65.0,0.0,240.0,6.0,0.0
11713,56.0,0.0,420.0,3.0,0.0
11714,72.0,60.0,60.0,11.0,0.0
11715,74.0,60.0,60.0,11.0,0.0
11716,76.0,0.0,60.0,11.0,0.0
11717,77.0,60.0,60.0,11.0,0.0
11718,79.0,60.0,60.0,11.0,0.0
11719,80.0,0.0,60.0,11.0,0.0
11720,56.0,240.0,60.0,3.0,0.0
11721,65.0,0.0,60.0,13.0,0.0
11722,77.0,0.0,60.0,11.0,0.0
11723,53.0,0.0,60.0,3.0,0.0
11724,68.0,0.0,60.0,1.0,0.0
11725,65.0,0.0,60.0,2.0,0.0
11726,44.0,8.0,60.0,14.0,0.0
11727,67.0,0.0,480.0,1.0,0.0
11728,63.0,0.0,480.0,13.0,0.0
11729,46.0,0.0,240.0,8.0,0.0
11730,63.0,180.0,480.0,2.0,0.0
11731,55.0,225.0,240.0,7.0,0.0
11732,46.0,15.0,450.0,14.0,0.0
11733,63.0,0.0,240.0,6.0,0.0
11734,82.0,0.0,240.0,11.0,0.0
11735,55.0,0.0,480.0,3.0,0.0
11736,51.0,0.0,480.0,3.0,0.0
11737,56.0,0.0,420.0,3.0,0.0
11738,46.0,7.0,450.0,14.0,0.0
11739,68.0,0.0,420.0,1.0,0.0
11740,53.0,60.0,240.0,7.0,0.0
11741,65.0,45.0,420.0,2.0,0.0
11742,65.0,0.0,420.0,13.0,0.0
11743,53.0,0.0,420.0,3.0,0.0
11744,62.0,0.0,240.0,6.0,0.0
11745,46.0,0.0,240.0,8.0,0.0
11746,65.0,60.0,60.0,11.0,0.0
11747,67.0,0.0,60.0,11.0,0.0
11748,68.0,60.0,60.0,11.0,0.0
11749,70.0,60.0,60.0,11.0,0.0
11750,72.0,0.0,60.0,11.0,0.0
11751,65.0,0.0,60.0,1.0,0.0
11752,62.0,0.0,60.0,13.0,0.0
11753,74.0,60.0,60.0,11.0,0.0
11754,50.0,0.0,60.0,3.0,0.0
11755,53.0,0.0,60.0,3.0,0.0
11756,62.0,0.0,60.0,2.0,0.0
11757,63.0,0.0,690.0,2.0,0.0
11758,70.0,0.0,690.0,2.0,0.0
11759,75.0,7.0,690.0,0.0,0.0
11760,39.0,52.0,240.0,10.0,0.0
11761,58.0,0.0,690.0,3.0,0.0
11762,46.0,0.0,690.0,3.0,0.0
11763,63.0,0.0,60.0,12.0,0.0
11764,75.0,0.0,690.0,5.0,0.0
11765,55.0,0.0,60.0,13.0,0.0
11766,58.0,60.0,60.0,13.0,0.0
11767,31.0,0.0,690.0,15.0,0.0
11768,63.0,0.0,690.0,6.0,0.0
11769,63.0,0.0,690.0,5.0,0.0
11770,31.0,0.0,690.0,3.0,0.0
11771,75.0,0.0,60.0,11.0,0.0
11772,58.0,0.0,690.0,7.0,0.0
11773,75.0,0.0,690.0,1.0,0.0
11774,43.0,0.0,690.0,14.0,0.0
11775,55.0,0.0,690.0,8.0,0.0
11776,63.0,0.0,690.0,4.0,0.0
11777,75.0,0.0,60.0,11.0,0.0
11778,58.0,0.0,60.0,13.0,0.0
11779,55.0,0.0,60.0,13.0,0.0
11780,63.0,60.0,60.0,12.0,0.0
11781,75.0,0.0,60.0,11.0,0.0
11782,55.0,0.0,60.0,13.0,0.0
11783,58.0,0.0,60.0,13.0,0.0
11784,63.0,60.0,60.0,12.0,0.0
11785,58.0,0.0,60.0,13.0,0.0
11786,63.0,0.0,60.0,12.0,0.0
11787,75.0,8.0,60.0,11.0,0.0
11788,55.0,0.0,60.0,13.0,0.0
11789,63.0,60.0,60.0,12.0,0.0
11790,58.0,0.0,60.0,13.0,0.0
11791,75.0,0.0,60.0,11.0,0.0
11792,55.0,0.0,60.0,13.0,0.0
11793,58.0,0.0,60.0,13.0,0.0
11794,75.0,0.0,60.0,11.0,0.0
11795,63.0,60.0,60.0,12.0,0.0
11796,55.0,0.0,60.0,13.0,0.0
11797,58.0,60.0,60.0,13.0,0.0
11798,55.0,0.0,60.0,13.0,0.0
11799,75.0,0.0,60.0,11.0,0.0
11800,63.0,0.0,60.0,12.0,0.0
11801,58.0,0.0,60.0,13.0,0.0
11802,75.0,0.0,60.0,11.0,0.0
11803,55.0,60.0,60.0,13.0,0.0
11804,63.0,0.0,60.0,12.0,0.0
11805,58.0,60.0,60.0,13.0,0.0
11806,75.0,0.0,60.0,11.0,0.0
11807,63.0,0.0,60.0,12.0,0.0
11808,55.0,0.0,60.0,13.0,0.0
11809,75.0,0.0,60.0,11.0,0.0
11810,58.0,0.0,60.0,13.0,0.0
11811,55.0,0.0,60.0,13.0,0.0
11812,63.0,60.0,60.0,12.0,0.0
11813,63.0,0.0,60.0,12.0,0.0
11814,55.0,0.0,60.0,13.0,0.0
11815,58.0,0.0,60.0,13.0,0.0
11816,75.0,53.0,60.0,11.0,0.0
11817,75.0,0.0,60.0,11.0,0.0
11818,58.0,0.0,60.0,13.0,0.0
11819,63.0,60.0,60.0,12.0,0.0
11820,55.0,0.0,60.0,13.0,0.0
11821,53.0,0.0,60.0,13.0,0.0
11822,58.0,0.0,210.0,3.0,0.0
11823,46.0,7.0,210.0,3.0,0.0
11824,56.0,0.0,210.0,7.0,0.0
11825,62.0,0.0,210.0,2.0,0.0
11826,41.0,0.0,210.0,14.0,0.0
11827,53.0,0.0,210.0,8.0,0.0
11828,62.0,0.0,210.0,6.0,0.0
11829,70.0,0.0,210.0,5.0,0.0
11830,68.0,0.0,210.0,2.0,0.0
11831,74.0,0.0,210.0,1.0,0.0
11832,62.0,0.0,60.0,12.0,0.0
11833,62.0,0.0,210.0,4.0,0.0
11834,29.0,0.0,210.0,3.0,0.0
11835,29.0,0.0,210.0,15.0,0.0
11836,56.0,60.0,60.0,13.0,0.0
11837,74.0,0.0,210.0,0.0,0.0
11838,74.0,0.0,60.0,11.0,0.0
11839,74.0,60.0,60.0,11.0,0.0
11840,56.0,0.0,60.0,13.0,0.0
11841,53.0,0.0,60.0,13.0,0.0
11842,62.0,0.0,60.0,12.0,0.0
11843,74.0,0.0,60.0,11.0,0.0
11844,56.0,0.0,60.0,13.0,0.0
11845,53.0,53.0,60.0,13.0,0.0
11846,62.0,0.0,60.0,12.0,0.0
11847,74.0,0.0,60.0,11.0,0.0
11848,62.0,0.0,60.0,12.0,0.0
11849,53.0,60.0,60.0,13.0,0.0
11850,56.0,0.0,60.0,13.0,0.0
11851,27.0,0.0,210.0,15.0,0.0
11852,60.0,0.0,60.0,12.0,0.0
11853,72.0,60.0,60.0,11.0,0.0
11854,56.0,0.0,60.0,13.0,0.0
11855,51.0,0.0,60.0,13.0,0.0
11856,46.0,0.0,210.0,3.0,0.0
11857,56.0,0.0,210.0,7.0,0.0
11858,68.0,0.0,210.0,2.0,0.0
11859,63.0,0.0,210.0,2.0,0.0
11860,27.0,0.0,210.0,3.0,0.0
11861,72.0,0.0,210.0,0.0,0.0
11862,58.0,0.0,210.0,3.0,0.0
11863,60.0,0.0,210.0,4.0,0.0
11864,39.0,0.0,210.0,14.0,0.0
11865,51.0,0.0,210.0,8.0,0.0
11866,72.0,0.0,210.0,1.0,0.0
11867,70.0,0.0,210.0,5.0,0.0
11868,60.0,7.0,210.0,6.0,0.0
11869,51.0,0.0,60.0,13.0,0.0
11870,56.0,0.0,60.0,13.0,0.0
11871,60.0,0.0,60.0,12.0,0.0
11872,72.0,60.0,60.0,11.0,0.0
11873,60.0,0.0,60.0,12.0,0.0
11874,51.0,0.0,60.0,13.0,0.0
11875,72.0,0.0,60.0,11.0,0.0
11876,56.0,53.0,60.0,13.0,0.0
11877,72.0,0.0,60.0,11.0,0.0
11878,51.0,0.0,60.0,13.0,0.0
11879,60.0,60.0,60.0,12.0,0.0
11880,56.0,0.0,60.0,13.0,0.0
11881,38.0,0.0,210.0,14.0,0.0
11882,70.0,0.0,210.0,1.0,0.0
11883,58.0,7.0,210.0,6.0,0.0
11884,46.0,0.0,210.0,3.0,0.0
11885,56.0,0.0,210.0,7.0,0.0
11886,53.0,0.0,60.0,13.0,0.0
11887,56.0,0.0,60.0,13.0,0.0
11888,70.0,0.0,60.0,11.0,0.0
11889,26.0,0.0,210.0,15.0,0.0
11890,65.0,0.0,210.0,2.0,0.0
11891,68.0,0.0,210.0,2.0,0.0
11892,70.0,0.0,210.0,0.0,0.0
11893,58.0,0.0,210.0,3.0,0.0
11894,58.0,0.0,210.0,4.0,0.0
11895,26.0,0.0,210.0,3.0,0.0
11896,50.0,0.0,210.0,8.0,0.0
11897,70.0,0.0,210.0,5.0,0.0
11898,58.0,60.0,60.0,12.0,0.0
11899,70.0,0.0,60.0,11.0,0.0
11900,56.0,0.0,60.0,13.0,0.0
11901,58.0,0.0,60.0,12.0,0.0
11902,53.0,60.0,60.0,13.0,0.0
11903,70.0,0.0,60.0,11.0,0.0
11904,56.0,0.0,60.0,13.0,0.0
11905,58.0,0.0,60.0,12.0,0.0
11906,53.0,53.0,60.0,13.0,0.0
11907,56.0,0.0,60.0,13.0,0.0
11908,53.0,0.0,60.0,13.0,0.0
11909,58.0,0.0,60.0,12.0,0.0
11910,70.0,60.0,60.0,11.0,0.0
11911,53.0,0.0,60.0,13.0,0.0
11912,26.0,0.0,210.0,3.0,0.0
11913,56.0,0.0,210.0,7.0,0.0
11914,70.0,7.0,210.0,1.0,0.0
11915,50.0,0.0,210.0,8.0,0.0
11916,58.0,0.0,210.0,3.0,0.0
11917,46.0,0.0,210.0,3.0,0.0
11918,65.0,0.0,210.0,2.0,0.0
11919,70.0,0.0,210.0,0.0,0.0
11920,58.0,0.0,210.0,6.0,0.0
11921,26.0,0.0,210.0,15.0,0.0
11922,70.0,0.0,210.0,5.0,0.0
11923,68.0,0.0,210.0,2.0,0.0
11924,56.0,60.0,60.0,13.0,0.0
11925,58.0,0.0,210.0,4.0,0.0
11926,58.0,0.0,60.0,12.0,0.0
11927,38.0,0.0,210.0,14.0,0.0
11928,70.0,0.0,60.0,11.0,0.0
11929,58.0,0.0,60.0,12.0,0.0
11930,56.0,0.0,60.0,13.0,0.0
11931,70.0,60.0,60.0,11.0,0.0
11932,53.0,0.0,60.0,13.0,0.0
11933,70.0,8.0,60.0,11.0,0.0
11934,56.0,0.0,60.0,13.0,0.0
11935,58.0,0.0,60.0,12.0,0.0
11936,53.0,0.0,60.0,13.0,0.0
11937,82.0,45.0,60.0,0.0,0.0
11938,58.0,0.0,60.0,12.0,0.0
11939,53.0,0.0,60.0,13.0,0.0
11940,56.0,0.0,60.0,13.0,0.0
11941,84.0,52.0,60.0,0.0,0.0
11942,70.0,8.0,60.0,11.0,0.0
11943,70.0,0.0,210.0,0.0,0.0
11944,56.0,0.0,210.0,7.0,0.0
11945,70.0,0.0,60.0,11.0,0.0
11946,58.0,0.0,210.0,4.0,0.0
11947,26.0,0.0,210.0,15.0,0.0
11948,56.0,0.0,60.0,13.0,0.0
11949,70.0,0.0,210.0,5.0,0.0
11950,58.0,8.0,60.0,12.0,0.0
11951,86.0,52.0,60.0,0.0,0.0
11952,38.0,0.0,210.0,14.0,0.0
11953,58.0,0.0,210.0,6.0,0.0
11954,26.0,0.0,210.0,3.0,0.0
11955,50.0,7.0,210.0,8.0,0.0
11956,70.0,0.0,210.0,1.0,0.0
11957,46.0,0.0,210.0,3.0,0.0
11958,65.0,0.0,210.0,2.0,0.0
11959,68.0,0.0,210.0,2.0,0.0
11960,53.0,0.0,60.0,13.0,0.0
11961,58.0,0.0,210.0,3.0,0.0
11962,58.0,0.0,60.0,12.0,0.0
11963,70.0,8.0,60.0,11.0,0.0
11964,56.0,0.0,60.0,13.0,0.0
11965,53.0,0.0,60.0,13.0,0.0
11966,87.0,52.0,60.0,0.0,0.0
11967,89.0,45.0,60.0,0.0,0.0
11968,70.0,0.0,60.0,11.0,0.0
11969,53.0,0.0,60.0,13.0,0.0
11970,58.0,0.0,60.0,12.0,0.0
11971,56.0,8.0,60.0,13.0,0.0
11972,70.0,8.0,60.0,11.0,0.0
11973,58.0,0.0,60.0,12.0,0.0
11974,86.0,52.0,60.0,0.0,0.0
11975,56.0,0.0,60.0,13.0,0.0
11976,53.0,0.0,60.0,13.0,0.0
11977,70.0,0.0,690.0,2.0,0.0
11978,63.0,0.0,690.0,4.0,0.0
11979,63.0,0.0,690.0,2.0,0.0
11980,55.0,8.0,60.0,13.0,0.0
11981,58.0,0.0,60.0,13.0,0.0
11982,43.0,52.0,60.0,14.0,0.0
11983,63.0,0.0,60.0,12.0,0.0
11984,63.0,0.0,690.0,5.0,0.0
11985,87.0,52.0,240.0,0.0,0.0
11986,75.0,0.0,690.0,1.0,0.0
11987,63.0,0.0,690.0,6.0,0.0
11988,58.0,0.0,690.0,3.0,0.0
11989,46.0,0.0,690.0,3.0,0.0
11990,75.0,0.0,690.0,0.0,0.0
11991,55.0,7.0,690.0,8.0,0.0
11992,31.0,0.0,60.0,15.0,0.0
11993,58.0,0.0,690.0,7.0,0.0
11994,39.0,0.0,240.0,10.0,0.0
11995,75.0,0.0,60.0,11.0,0.0
11996,31.0,0.0,690.0,3.0,0.0
11997,75.0,0.0,690.0,5.0,0.0
11998,31.0,0.0,630.0,15.0,0.0
11999,43.0,0.0,630.0,14.0,0.0
12000,63.0,0.0,60.0,12.0,0.0
12001,75.0,0.0,60.0,11.0,0.0
12002,58.0,0.0,60.0,13.0,0.0
12003,55.0,60.0,60.0,13.0,0.0
12004,55.0,60.0,60.0,13.0,0.0
12005,75.0,0.0,60.0,11.0,0.0
12006,63.0,0.0,60.0,12.0,0.0
12007,58.0,0.0,60.0,13.0,0.0
12008,55.0,0.0,60.0,13.0,0.0
12009,58.0,0.0,60.0,13.0,0.0
12010,63.0,8.0,60.0,12.0,0.0
12011,75.0,0.0,60.0,11.0,0.0
12012,55.0,0.0,60.0,13.0,0.0
12013,75.0,0.0,60.0,11.0,0.0
12014,63.0,0.0,60.0,12.0,0.0
12015,58.0,60.0,60.0,13.0,0.0
12016,75.0,60.0,60.0,11.0,0.0
12017,55.0,0.0,60.0,13.0,0.0
12018,58.0,0.0,60.0,13.0,0.0
12019,63.0,0.0,60.0,12.0,0.0
12020,63.0,0.0,60.0,12.0,0.0
12021,58.0,60.0,60.0,13.0,0.0
12022,55.0,0.0,60.0,13.0,0.0
12023,75.0,0.0,60.0,11.0,0.0
12024,63.0,0.0,60.0,12.0,0.0
12025,55.0,0.0,60.0,13.0,0.0
12026,58.0,0.0,60.0,13.0,0.0
12027,75.0,60.0,60.0,11.0,0.0
12028,58.0,60.0,60.0,13.0,0.0
12029,63.0,0.0,60.0,12.0,0.0
12030,75.0,0.0,60.0,11.0,0.0
12031,55.0,0.0,60.0,13.0,0.0
12032,58.0,0.0,60.0,13.0,0.0
12033,55.0,0.0,60.0,13.0,0.0
12034,63.0,60.0,60.0,12.0,0.0
12035,75.0,0.0,60.0,11.0,0.0
12036,75.0,0.0,60.0,11.0,0.0
12037,63.0,0.0,60.0,12.0,0.0
12038,55.0,0.0,60.0,13.0,0.0
12039,58.0,53.0,60.0,13.0,0.0
12040,58.0,0.0,60.0,13.0,0.0
12041,55.0,0.0,60.0,13.0,0.0
12042,63.0,60.0,60.0,12.0,0.0
12043,75.0,0.0,60.0,11.0,0.0
12044,62.0,0.0,210.0,6.0,0.0
12045,74.0,0.0,210.0,0.0,0.0
12046,41.0,0.0,210.0,14.0,0.0
12047,53.0,0.0,210.0,8.0,0.0
12048,62.0,0.0,210.0,4.0,0.0
12049,29.0,0.0,210.0,3.0,0.0
12050,74.0,7.0,210.0,1.0,0.0
12051,58.0,0.0,210.0,3.0,0.0
12052,62.0,0.0,60.0,12.0,0.0
12053,46.0,0.0,210.0,3.0,0.0
12054,56.0,0.0,210.0,7.0,0.0
12055,74.0,60.0,60.0,11.0,0.0
12056,56.0,0.0,60.0,13.0,0.0
12057,53.0,0.0,60.0,13.0,0.0
12058,62.0,0.0,210.0,2.0,0.0
12059,68.0,0.0,210.0,2.0,0.0
12060,29.0,0.0,210.0,15.0,0.0
12061,70.0,0.0,210.0,5.0,0.0
12062,56.0,0.0,60.0,13.0,0.0
12063,62.0,0.0,60.0,12.0,0.0
12064,74.0,60.0,60.0,11.0,0.0
12065,53.0,0.0,60.0,13.0,0.0
12066,74.0,0.0,60.0,11.0,0.0
12067,62.0,53.0,60.0,12.0,0.0
12068,56.0,0.0,60.0,13.0,0.0
12069,53.0,0.0,60.0,13.0,0.0
12070,62.0,60.0,60.0,12.0,0.0
12071,74.0,0.0,60.0,11.0,0.0
12072,56.0,0.0,60.0,13.0,0.0
12073,53.0,0.0,60.0,13.0,0.0
12074,68.0,0.0,210.0,2.0,0.0
12075,56.0,0.0,210.0,7.0,0.0
12076,51.0,0.0,210.0,8.0,0.0
12077,72.0,60.0,60.0,11.0,0.0
12078,72.0,0.0,210.0,1.0,0.0
12079,56.0,0.0,60.0,13.0,0.0
12080,27.0,0.0,210.0,15.0,0.0
12081,39.0,0.0,210.0,14.0,0.0
12082,46.0,0.0,210.0,3.0,0.0
12083,58.0,0.0,210.0,3.0,0.0
12084,27.0,0.0,210.0,3.0,0.0
12085,51.0,0.0,60.0,13.0,0.0
12086,63.0,0.0,210.0,2.0,0.0
12087,60.0,0.0,210.0,4.0,0.0
12088,60.0,0.0,60.0,12.0,0.0
12089,72.0,0.0,210.0,0.0,0.0
12090,60.0,0.0,210.0,6.0,0.0
12091,70.0,7.0,210.0,5.0,0.0
12092,60.0,0.0,60.0,12.0,0.0
12093,56.0,0.0,60.0,13.0,0.0
12094,72.0,60.0,60.0,11.0,0.0
12095,51.0,0.0,60.0,13.0,0.0
12096,60.0,53.0,60.0,12.0,0.0
12097,56.0,0.0,60.0,13.0,0.0
12098,72.0,0.0,60.0,11.0,0.0
12099,51.0,0.0,60.0,13.0,0.0
12100,51.0,60.0,60.0,13.0,0.0
12101,56.0,0.0,60.0,13.0,0.0
12102,60.0,0.0,60.0,12.0,0.0
12103,72.0,0.0,60.0,11.0,0.0
12104,70.0,0.0,210.0,5.0,0.0
12105,70.0,0.0,210.0,0.0,0.0
12106,56.0,0.0,210.0,7.0,0.0
12107,70.0,0.0,60.0,11.0,0.0
12108,65.0,0.0,210.0,2.0,0.0
12109,26.0,0.0,210.0,15.0,0.0
12110,50.0,0.0,210.0,8.0,0.0
12111,58.0,0.0,60.0,12.0,0.0
12112,68.0,0.0,210.0,2.0,0.0
12113,58.0,0.0,210.0,4.0,0.0
12114,38.0,0.0,210.0,14.0,0.0
12115,58.0,0.0,210.0,3.0,0.0
12116,26.0,7.0,210.0,3.0,0.0
12117,46.0,0.0,210.0,3.0,0.0
12118,53.0,60.0,60.0,13.0,0.0
12119,70.0,0.0,210.0,1.0,0.0
12120,58.0,0.0,210.0,6.0,0.0
12121,56.0,0.0,60.0,13.0,0.0
12122,53.0,0.0,60.0,13.0,0.0
12123,70.0,0.0,60.0,11.0,0.0
12124,56.0,0.0,60.0,13.0,0.0
12125,58.0,60.0,60.0,12.0,0.0
12126,53.0,0.0,60.0,13.0,0.0
12127,56.0,0.0,60.0,13.0,0.0
12128,70.0,53.0,60.0,11.0,0.0
12129,58.0,0.0,60.0,12.0,0.0
12130,58.0,0.0,60.0,12.0,0.0
12131,56.0,60.0,60.0,13.0,0.0
12132,53.0,0.0,60.0,13.0,0.0
12133,70.0,0.0,60.0,11.0,0.0
12134,58.0,0.0,210.0,6.0,0.0
12135,50.0,0.0,210.0,8.0,0.0
12136,70.0,0.0,210.0,0.0,0.0
12137,70.0,0.0,210.0,1.0,0.0
12138,58.0,0.0,210.0,4.0,0.0
12139,26.0,7.0,210.0,3.0,0.0
12140,58.0,0.0,210.0,3.0,0.0
12141,56.0,0.0,210.0,7.0,0.0
12142,38.0,0.0,210.0,14.0,0.0
12143,56.0,0.0,60.0,13.0,0.0
12144,70.0,0.0,60.0,11.0,0.0
12145,46.0,0.0,210.0,3.0,0.0
12146,70.0,0.0,210.0,5.0,0.0
12147,53.0,60.0,60.0,13.0,0.0
12148,26.0,0.0,210.0,15.0,0.0
12149,58.0,0.0,60.0,12.0,0.0
12150,68.0,0.0,210.0,2.0,0.0
12151,65.0,0.0,210.0,2.0,0.0
12152,70.0,0.0,60.0,11.0,0.0
12153,56.0,0.0,60.0,13.0,0.0
12154,53.0,60.0,60.0,13.0,0.0
12155,58.0,0.0,60.0,12.0,0.0
12156,53.0,8.0,60.0,13.0,0.0
12157,70.0,0.0,60.0,11.0,0.0
12158,56.0,0.0,60.0,13.0,0.0
12159,82.0,45.0,60.0,0.0,0.0
12160,58.0,0.0,60.0,12.0,0.0
12161,53.0,0.0,60.0,13.0,0.0
12162,56.0,8.0,60.0,13.0,0.0
12163,84.0,52.0,60.0,0.0,0.0
12164,70.0,0.0,60.0,11.0,0.0
12165,58.0,0.0,60.0,12.0,0.0
12166,53.0,0.0,60.0,13.0,0.0
12167,56.0,0.0,60.0,13.0,0.0
12168,58.0,0.0,210.0,6.0,0.0
12169,68.0,0.0,210.0,2.0,0.0
12170,70.0,0.0,210.0,0.0,0.0
12171,50.0,0.0,210.0,8.0,0.0
12172,65.0,0.0,210.0,2.0,0.0
12173,70.0,0.0,210.0,5.0,0.0
12174,26.0,0.0,210.0,3.0,0.0
12175,58.0,8.0,60.0,12.0,0.0
12176,70.0,0.0,60.0,11.0,0.0
12177,58.0,0.0,210.0,4.0,0.0
12178,26.0,0.0,210.0,15.0,0.0
12179,46.0,7.0,210.0,3.0,0.0
12180,38.0,0.0,210.0,14.0,0.0
12181,70.0,0.0,210.0,1.0,0.0
12182,56.0,0.0,210.0,7.0,0.0
12183,58.0,0.0,210.0,3.0,0.0
12184,86.0,52.0,60.0,0.0,0.0
12185,70.0,0.0,60.0,11.0,0.0
12186,58.0,8.0,60.0,12.0,0.0
12187,53.0,0.0,60.0,13.0,0.0
12188,87.0,52.0,60.0,0.0,0.0
12189,56.0,0.0,60.0,13.0,0.0
12190,56.0,0.0,60.0,13.0,0.0
12191,70.0,0.0,60.0,11.0,0.0
12192,58.0,8.0,60.0,12.0,0.0
12193,89.0,45.0,60.0,0.0,0.0
12194,53.0,0.0,60.0,13.0,0.0
12195,56.0,0.0,60.0,13.0,0.0
12196,53.0,8.0,60.0,13.0,0.0
12197,91.0,52.0,60.0,0.0,0.0
12198,70.0,0.0,60.0,11.0,0.0
12199,58.0,0.0,60.0,12.0,0.0
12200,53.0,0.0,60.0,13.0,0.0
12201,70.0,0.0,690.0,5.0,0.0
12202,68.0,0.0,690.0,6.0,0.0
12203,65.0,0.0,690.0,2.0,0.0
12204,68.0,0.0,690.0,2.0,0.0
12205,68.0,8.0,60.0,12.0,0.0
12206,77.0,0.0,690.0,0.0,0.0
12207,80.0,0.0,690.0,0.0,0.0
12208,58.0,0.0,60.0,13.0,0.0
12209,26.0,0.0,690.0,3.0,0.0
12210,58.0,0.0,690.0,3.0,0.0
12211,50.0,0.0,690.0,8.0,0.0
12212,65.0,0.0,690.0,7.0,0.0
12213,92.0,52.0,240.0,0.0,0.0
12214,58.0,0.0,690.0,4.0,0.0
12215,38.0,0.0,60.0,14.0,0.0
12216,80.0,7.0,690.0,1.0,0.0
12217,77.0,0.0,690.0,1.0,0.0
12218,80.0,0.0,60.0,11.0,0.0
12219,26.0,52.0,60.0,15.0,0.0
12220,46.0,0.0,690.0,3.0,0.0
12221,80.0,0.0,60.0,11.0,0.0
12222,58.0,0.0,60.0,13.0,0.0
12223,26.0,0.0,630.0,15.0,0.0
12224,68.0,0.0,60.0,12.0,0.0
12225,53.0,60.0,60.0,13.0,0.0
12226,38.0,0.0,630.0,14.0,0.0
12227,80.0,0.0,60.0,11.0,0.0
12228,53.0,0.0,60.0,13.0,0.0
12229,58.0,0.0,60.0,13.0,0.0
12230,68.0,60.0,60.0,12.0,0.0
12231,68.0,8.0,60.0,12.0,0.0
12232,80.0,0.0,60.0,11.0,0.0
12233,53.0,0.0,60.0,13.0,0.0
12234,58.0,0.0,60.0,13.0,0.0
12235,68.0,0.0,60.0,12.0,0.0
12236,80.0,0.0,60.0,11.0,0.0
12237,53.0,60.0,60.0,13.0,0.0
12238,58.0,0.0,60.0,13.0,0.0
12239,53.0,0.0,60.0,13.0,0.0
12240,58.0,0.0,60.0,13.0,0.0
12241,80.0,0.0,60.0,11.0,0.0
12242,68.0,60.0,60.0,12.0,0.0
12243,68.0,60.0,60.0,12.0,0.0
12244,58.0,0.0,60.0,13.0,0.0
12245,53.0,0.0,60.0,13.0,0.0
12246,80.0,0.0,60.0,11.0,0.0
12247,58.0,0.0,60.0,13.0,0.0
12248,53.0,0.0,60.0,13.0,0.0
12249,68.0,60.0,60.0,12.0,0.0
12250,80.0,0.0,60.0,11.0,0.0
12251,80.0,0.0,60.0,11.0,0.0
12252,58.0,60.0,60.0,13.0,0.0
12253,53.0,0.0,60.0,13.0,0.0
12254,68.0,0.0,60.0,12.0,0.0
12255,58.0,0.0,60.0,13.0,0.0
12256,53.0,60.0,60.0,13.0,0.0
12257,68.0,0.0,60.0,12.0,0.0
12258,80.0,0.0,60.0,11.0,0.0
12259,80.0,0.0,60.0,11.0,0.0
12260,68.0,0.0,60.0,12.0,0.0
12261,53.0,0.0,60.0,13.0,0.0
12262,58.0,53.0,60.0,13.0,0.0
12263,68.0,0.0,60.0,12.0,0.0
12264,80.0,0.0,60.0,11.0,0.0
12265,58.0,0.0,60.0,13.0,0.0
12266,53.0,60.0,60.0,13.0,0.0
12267,75.0,0.0,210.0,1.0,0.0
12268,79.0,0.0,210.0,0.0,0.0
12269,75.0,0.0,210.0,0.0,0.0
12270,67.0,0.0,210.0,6.0,0.0
12271,79.0,0.0,60.0,11.0,0.0
12272,67.0,0.0,210.0,2.0,0.0
12273,39.0,52.0,240.0,10.0,0.0
12274,51.0,0.0,210.0,8.0,0.0
12275,27.0,0.0,210.0,15.0,0.0
12276,51.0,0.0,210.0,3.0,0.0
12277,58.0,0.0,210.0,3.0,0.0
12278,63.0,0.0,210.0,4.0,0.0
12279,51.0,7.0,210.0,4.0,0.0
12280,39.0,0.0,210.0,14.0,0.0
12281,63.0,0.0,210.0,7.0,0.0
12282,67.0,60.0,60.0,12.0,0.0
12283,27.0,0.0,210.0,3.0,0.0
12284,79.0,0.0,210.0,1.0,0.0
12285,63.0,0.0,210.0,2.0,0.0
12286,55.0,0.0,60.0,13.0,0.0
12287,58.0,0.0,60.0,13.0,0.0
12288,63.0,0.0,210.0,5.0,0.0
12289,67.0,0.0,60.0,12.0,0.0
12290,79.0,0.0,60.0,11.0,0.0
12291,58.0,0.0,60.0,13.0,0.0
12292,55.0,60.0,60.0,13.0,0.0
12293,55.0,53.0,60.0,13.0,0.0
12294,58.0,0.0,60.0,13.0,0.0
12295,79.0,0.0,60.0,11.0,0.0
12296,67.0,0.0,60.0,12.0,0.0
12297,67.0,0.0,60.0,12.0,0.0
12298,79.0,0.0,60.0,11.0,0.0
12299,55.0,0.0,60.0,13.0,0.0
12300,58.0,8.0,60.0,13.0,0.0
12301,32.0,0.0,210.0,15.0,0.0
12302,44.0,52.0,240.0,10.0,0.0
12303,56.0,0.0,210.0,5.0,0.0
12304,65.0,0.0,60.0,12.0,0.0
12305,65.0,0.0,240.0,6.0,0.0
12306,65.0,0.0,210.0,2.0,0.0
12307,60.0,0.0,210.0,2.0,0.0
12308,56.0,0.0,210.0,4.0,0.0
12309,77.0,0.0,210.0,0.0,0.0
12310,68.0,0.0,210.0,5.0,0.0
12311,72.0,0.0,210.0,0.0,0.0
12312,77.0,0.0,210.0,1.0,0.0
12313,72.0,0.0,210.0,1.0,0.0
12314,60.0,0.0,60.0,13.0,0.0
12315,56.0,0.0,60.0,13.0,0.0
12316,56.0,0.0,210.0,3.0,0.0
12317,77.0,60.0,60.0,11.0,0.0
12318,44.0,7.0,210.0,14.0,0.0
12319,44.0,0.0,240.0,8.0,0.0
12320,32.0,0.0,210.0,3.0,0.0
12321,60.0,0.0,210.0,3.0,0.0
12322,44.0,0.0,210.0,4.0,0.0
12323,56.0,0.0,240.0,7.0,0.0
12324,56.0,0.0,60.0,13.0,0.0
12325,77.0,0.0,60.0,11.0,0.0
12326,65.0,0.0,60.0,12.0,0.0
12327,60.0,60.0,60.0,13.0,0.0
12328,65.0,53.0,60.0,12.0,0.0
12329,77.0,0.0,60.0,11.0,0.0
12330,56.0,0.0,60.0,13.0,0.0
12331,60.0,0.0,60.0,13.0,0.0
12332,77.0,0.0,60.0,11.0,0.0
12333,56.0,0.0,60.0,13.0,0.0
12334,60.0,0.0,60.0,13.0,0.0
12335,65.0,8.0,60.0,12.0,0.0
12336,73.0,7.0,210.0,0.0,0.0
12337,44.0,0.0,210.0,14.0,0.0
12338,61.0,0.0,210.0,3.0,0.0
12339,76.0,0.0,210.0,1.0,0.0
12340,76.0,0.0,210.0,0.0,0.0
12341,56.0,0.0,210.0,3.0,0.0
12342,44.0,0.0,210.0,4.0,0.0
12343,61.0,0.0,60.0,13.0,0.0
12344,56.0,0.0,60.0,13.0,0.0
12345,73.0,0.0,210.0,1.0,0.0
12346,56.0,0.0,210.0,4.0,0.0
12347,68.0,0.0,210.0,5.0,0.0
12348,32.0,0.0,210.0,3.0,0.0
12349,61.0,0.0,210.0,2.0,0.0
12350,64.0,0.0,210.0,2.0,0.0
12351,44.0,52.0,240.0,10.0,0.0
12352,76.0,0.0,60.0,11.0,0.0
12353,32.0,0.0,210.0,15.0,0.0
12354,56.0,0.0,210.0,5.0,0.0
12355,64.0,60.0,60.0,12.0,0.0
12356,61.0,0.0,60.0,13.0,0.0
12357,56.0,0.0,60.0,13.0,0.0
12358,76.0,60.0,60.0,11.0,0.0
12359,64.0,0.0,60.0,12.0,0.0
12360,64.0,0.0,60.0,12.0,0.0
12361,56.0,0.0,60.0,13.0,0.0
12362,61.0,53.0,60.0,13.0,0.0
12363,76.0,0.0,60.0,11.0,0.0
12364,76.0,8.0,60.0,11.0,0.0
12365,56.0,0.0,60.0,13.0,0.0
12366,61.0,0.0,60.0,13.0,0.0
12367,64.0,0.0,60.0,12.0,0.0
12368,44.0,0.0,210.0,14.0,0.0
12369,44.0,52.0,240.0,10.0,0.0
12370,76.0,0.0,60.0,11.0,0.0
12371,64.0,0.0,60.0,12.0,0.0
12372,56.0,0.0,210.0,3.0,0.0
12373,61.0,0.0,210.0,3.0,0.0
12374,73.0,0.0,210.0,1.0,0.0
12375,64.0,0.0,210.0,2.0,0.0
12376,32.0,0.0,210.0,3.0,0.0
12377,44.0,0.0,210.0,4.0,0.0
12378,61.0,60.0,60.0,13.0,0.0
12379,56.0,0.0,60.0,13.0,0.0
12380,76.0,0.0,210.0,0.0,0.0
12381,73.0,0.0,210.0,0.0,0.0
12382,61.0,0.0,210.0,2.0,0.0
12383,32.0,0.0,210.0,15.0,0.0
12384,56.0,0.0,210.0,5.0,0.0
12385,56.0,0.0,210.0,4.0,0.0
12386,76.0,7.0,210.0,1.0,0.0
12387,68.0,0.0,210.0,5.0,0.0
12388,56.0,0.0,60.0,13.0,0.0
12389,61.0,0.0,60.0,13.0,0.0
12390,64.0,0.0,60.0,12.0,0.0
12391,76.0,60.0,60.0,11.0,0.0
12392,64.0,53.0,60.0,12.0,0.0
12393,76.0,0.0,60.0,11.0,0.0
12394,61.0,0.0,60.0,13.0,0.0
12395,56.0,0.0,60.0,13.0,0.0
12396,76.0,0.0,60.0,11.0,0.0
12397,56.0,8.0,60.0,13.0,0.0
12398,61.0,0.0,60.0,13.0,0.0
12399,64.0,0.0,60.0,12.0,0.0
12400,64.0,60.0,60.0,12.0,0.0
12401,68.0,0.0,210.0,5.0,0.0
12402,56.0,0.0,210.0,5.0,0.0
12403,56.0,0.0,210.0,4.0,0.0
12404,44.0,0.0,210.0,4.0,0.0
12405,32.0,0.0,210.0,15.0,0.0
12406,32.0,0.0,210.0,3.0,0.0
12407,73.0,0.0,210.0,1.0,0.0
12408,44.0,52.0,240.0,10.0,0.0
12409,61.0,0.0,210.0,3.0,0.0
12410,56.0,0.0,210.0,3.0,0.0
12411,61.0,0.0,210.0,2.0,0.0
12412,64.0,7.0,210.0,2.0,0.0
12413,44.0,0.0,210.0,14.0,0.0
12414,76.0,0.0,60.0,11.0,0.0
12415,61.0,0.0,60.0,13.0,0.0
12416,73.0,0.0,210.0,0.0,0.0
12417,76.0,0.0,210.0,0.0,0.0
12418,76.0,0.0,210.0,1.0,0.0
12419,56.0,0.0,60.0,13.0,0.0
12420,64.0,0.0,60.0,12.0,0.0
12421,61.0,0.0,60.0,13.0,0.0
12422,56.0,60.0,60.0,13.0,0.0
12423,76.0,0.0,60.0,11.0,0.0
12424,64.0,0.0,60.0,12.0,0.0
12425,56.0,0.0,60.0,13.0,0.0
12426,61.0,0.0,60.0,13.0,0.0
12427,76.0,53.0,60.0,11.0,0.0
12428,61.0,8.0,60.0,13.0,0.0
12429,56.0,0.0,60.0,13.0,0.0
12430,76.0,0.0,60.0,11.0,0.0
12431,64.0,0.0,60.0,12.0,0.0
12432,76.0,0.0,210.0,1.0,0.0
12433,64.0,0.0,210.0,2.0,0.0
12434,44.0,52.0,240.0,10.0,0.0
12435,44.0,0.0,210.0,14.0,0.0
12436,61.0,0.0,60.0,13.0,0.0
12437,56.0,60.0,60.0,13.0,0.0
12438,56.0,0.0,210.0,4.0,0.0
12439,44.0,0.0,210.0,4.0,0.0
12440,76.0,0.0,210.0,0.0,0.0
12441,73.0,7.0,210.0,0.0,0.0
12442,76.0,0.0,60.0,11.0,0.0
12443,61.0,0.0,210.0,3.0,0.0
12444,61.0,0.0,210.0,2.0,0.0
12445,73.0,0.0,210.0,1.0,0.0
12446,64.0,0.0,60.0,12.0,0.0
12447,56.0,0.0,210.0,5.0,0.0
12448,68.0,0.0,210.0,5.0,0.0
12449,56.0,0.0,210.0,3.0,0.0
12450,32.0,0.0,210.0,3.0,0.0
12451,32.0,0.0,210.0,15.0,0.0
12452,61.0,0.0,60.0,13.0,0.0
12453,64.0,60.0,60.0,12.0,0.0
12454,76.0,0.0,60.0,11.0,0.0
12455,56.0,0.0,60.0,13.0,0.0
12456,61.0,0.0,60.0,13.0,0.0
12457,56.0,0.0,60.0,13.0,0.0
12458,76.0,0.0,60.0,11.0,0.0
12459,64.0,53.0,60.0,12.0,0.0
12460,64.0,0.0,60.0,12.0,0.0
12461,56.0,8.0,60.0,13.0,0.0
12462,61.0,0.0,60.0,13.0,0.0
12463,76.0,0.0,60.0,11.0,0.0
12464,73.0,0.0,210.0,1.0,0.0
12465,56.0,0.0,210.0,3.0,0.0
12466,56.0,0.0,210.0,4.0,0.0
12467,32.0,0.0,210.0,15.0,0.0
12468,61.0,0.0,210.0,3.0,0.0
12469,68.0,0.0,210.0,5.0,0.0
12470,61.0,60.0,60.0,13.0,0.0
12471,76.0,0.0,210.0,1.0,0.0
12472,64.0,0.0,210.0,2.0,0.0
12473,56.0,0.0,210.0,5.0,0.0
12474,64.0,0.0,60.0,12.0,0.0
12475,32.0,0.0,210.0,3.0,0.0
12476,44.0,52.0,240.0,10.0,0.0
12477,44.0,7.0,210.0,14.0,0.0
12478,76.0,0.0,60.0,11.0,0.0
12479,44.0,0.0,210.0,4.0,0.0
12480,56.0,0.0,60.0,13.0,0.0
12481,61.0,0.0,210.0,2.0,0.0
12482,73.0,0.0,210.0,0.0,0.0
12483,76.0,0.0,210.0,0.0,0.0
12484,56.0,0.0,60.0,13.0,0.0
12485,76.0,60.0,60.0,11.0,0.0
12486,61.0,0.0,60.0,13.0,0.0
12487,64.0,0.0,60.0,12.0,0.0
12488,76.0,53.0,60.0,11.0,0.0
12489,56.0,0.0,60.0,13.0,0.0
12490,61.0,0.0,60.0,13.0,0.0
12491,64.0,0.0,60.0,12.0,0.0
12492,64.0,0.0,60.0,12.0,0.0
12493,56.0,8.0,60.0,13.0,0.0
12494,61.0,0.0,60.0,13.0,0.0
12495,76.0,0.0,60.0,11.0,0.0
12496,32.0,0.0,210.0,15.0,0.0
12497,64.0,60.0,60.0,12.0,0.0
12498,61.0,0.0,210.0,2.0,0.0
12499,73.0,0.0,210.0,0.0,0.0
12500,44.0,0.0,210.0,14.0,0.0
12501,76.0,0.0,210.0,1.0,0.0
12502,61.0,7.0,210.0,3.0,0.0
12503,32.0,0.0,210.0,3.0,0.0
12504,56.0,0.0,210.0,3.0,0.0
12505,76.0,0.0,60.0,11.0,0.0
12506,64.0,0.0,210.0,2.0,0.0
12507,76.0,0.0,210.0,0.0,0.0
12508,73.0,0.0,210.0,1.0,0.0
12509,56.0,0.0,210.0,5.0,0.0
12510,44.0,52.0,240.0,10.0,0.0
12511,61.0,0.0,60.0,13.0,0.0
12512,56.0,0.0,60.0,13.0,0.0
12513,68.0,0.0,210.0,5.0,0.0
12514,44.0,0.0,210.0,4.0,0.0
12515,56.0,0.0,210.0,4.0,0.0
12516,64.0,0.0,60.0,12.0,0.0
12517,56.0,60.0,60.0,13.0,0.0
12518,61.0,0.0,60.0,13.0,0.0
12519,76.0,0.0,60.0,11.0,0.0
12520,64.0,0.0,60.0,12.0,0.0
12521,56.0,53.0,60.0,13.0,0.0
12522,61.0,0.0,60.0,13.0,0.0
12523,76.0,0.0,60.0,11.0,0.0
12524,64.0,0.0,60.0,12.0,0.0
12525,76.0,0.0,60.0,11.0,0.0
12526,56.0,0.0,60.0,13.0,0.0
12527,61.0,8.0,60.0,13.0,0.0
12528,76.0,0.0,210.0,0.0,0.0
12529,56.0,0.0,210.0,4.0,0.0
12530,56.0,0.0,210.0,5.0,0.0
12531,68.0,0.0,210.0,5.0,0.0
12532,56.0,7.0,210.0,3.0,0.0
12533,61.0,0.0,210.0,3.0,0.0
12534,32.0,0.0,210.0,3.0,0.0
12535,44.0,52.0,240.0,10.0,0.0
12536,73.0,0.0,210.0,0.0,0.0
12537,44.0,0.0,210.0,14.0,0.0
12538,73.0,0.0,210.0,1.0,0.0
12539,76.0,0.0,210.0,1.0,0.0
12540,61.0,0.0,210.0,2.0,0.0
12541,56.0,0.0,60.0,13.0,0.0
12542,76.0,0.0,60.0,11.0,0.0
12543,61.0,0.0,60.0,13.0,0.0
12544,64.0,60.0,60.0,12.0,0.0
12545,32.0,0.0,210.0,15.0,0.0
12546,64.0,0.0,210.0,2.0,0.0
12547,44.0,0.0,210.0,4.0,0.0
12548,64.0,0.0,60.0,12.0,0.0
12549,61.0,60.0,60.0,13.0,0.0
12550,56.0,0.0,60.0,13.0,0.0
12551,76.0,0.0,60.0,11.0,0.0
12552,64.0,0.0,60.0,12.0,0.0
12553,56.0,0.0,60.0,13.0,0.0
12554,76.0,0.0,60.0,11.0,0.0
12555,61.0,53.0,60.0,13.0,0.0
12556,76.0,8.0,60.0,11.0,0.0
12557,61.0,0.0,60.0,13.0,0.0
12558,56.0,0.0,60.0,13.0,0.0
12559,64.0,0.0,60.0,12.0,0.0
12560,56.0,7.0,210.0,5.0,0.0
12561,76.0,0.0,60.0,11.0,0.0
12562,56.0,0.0,60.0,13.0,0.0
12563,64.0,0.0,210.0,2.0,0.0
12564,61.0,0.0,60.0,13.0,0.0
12565,44.0,0.0,210.0,4.0,0.0
12566,56.0,0.0,210.0,4.0,0.0
12567,44.0,0.0,210.0,14.0,0.0
12568,76.0,0.0,210.0,0.0,0.0
12569,73.0,0.0,210.0,0.0,0.0
12570,44.0,52.0,240.0,10.0,0.0
12571,32.0,0.0,210.0,15.0,0.0
12572,64.0,60.0,60.0,12.0,0.0
12573,61.0,0.0,210.0,3.0,0.0
12574,56.0,0.0,210.0,3.0,0.0
12575,76.0,0.0,210.0,1.0,0.0
12576,73.0,0.0,210.0,1.0,0.0
12577,61.0,0.0,210.0,2.0,0.0
12578,32.0,0.0,210.0,3.0,0.0
12579,68.0,0.0,210.0,5.0,0.0
12580,56.0,0.0,60.0,13.0,0.0
12581,61.0,0.0,60.0,13.0,0.0
12582,76.0,60.0,60.0,11.0,0.0
12583,64.0,0.0,60.0,12.0,0.0
12584,61.0,0.0,60.0,13.0,0.0
12585,64.0,0.0,60.0,12.0,0.0
12586,76.0,0.0,60.0,11.0,0.0
12587,56.0,53.0,60.0,13.0,0.0
12588,56.0,0.0,60.0,13.0,0.0
12589,61.0,0.0,60.0,13.0,0.0
12590,76.0,0.0,60.0,11.0,0.0
12591,64.0,8.0,60.0,12.0,0.0
12592,64.0,0.0,60.0,13.0,0.0
12593,61.0,0.0,60.0,13.0,0.0
12594,32.0,0.0,210.0,3.0,0.0
12595,64.0,7.0,210.0,2.0,0.0
12596,61.0,0.0,210.0,2.0,0.0
12597,76.0,60.0,60.0,12.0,0.0
12598,76.0,0.0,210.0,0.0,0.0
12599,32.0,0.0,210.0,15.0,0.0
12600,44.0,0.0,210.0,4.0,0.0
12601,76.0,0.0,210.0,1.0,0.0
12602,73.0,0.0,210.0,1.0,0.0
12603,44.0,52.0,240.0,10.0,0.0
12604,56.0,0.0,210.0,3.0,0.0
12605,61.0,0.0,210.0,3.0,0.0
12606,80.0,0.0,60.0,11.0,0.0
12607,44.0,0.0,210.0,14.0,0.0
12608,56.0,0.0,210.0,5.0,0.0
12609,68.0,0.0,210.0,5.0,0.0
12610,80.0,0.0,210.0,0.0,0.0
12611,56.0,0.0,210.0,4.0,0.0
12612,76.0,60.0,60.0,12.0,0.0
12613,64.0,0.0,60.0,13.0,0.0
12614,80.0,0.0,60.0,11.0,0.0
12615,61.0,0.0,60.0,13.0,0.0
12616,61.0,0.0,60.0,13.0,0.0
12617,80.0,0.0,60.0,11.0,0.0
12618,64.0,0.0,60.0,13.0,0.0
12619,76.0,53.0,60.0,12.0,0.0
12620,61.0,0.0,60.0,13.0,0.0
12621,76.0,0.0,60.0,12.0,0.0
12622,64.0,8.0,60.0,13.0,0.0
12623,80.0,0.0,60.0,11.0,0.0
12624,64.0,7.0,210.0,2.0,0.0
12625,61.0,60.0,60.0,13.0,0.0
12626,32.0,0.0,210.0,3.0,0.0
12627,73.0,0.0,210.0,1.0,0.0
12628,61.0,0.0,210.0,2.0,0.0
12629,44.0,0.0,210.0,14.0,0.0
12630,61.0,0.0,210.0,3.0,0.0
12631,76.0,0.0,60.0,12.0,0.0
12632,44.0,0.0,210.0,4.0,0.0
12633,56.0,0.0,210.0,4.0,0.0
12634,56.0,0.0,210.0,3.0,0.0
12635,76.0,0.0,210.0,0.0,0.0
12636,44.0,52.0,240.0,10.0,0.0
12637,56.0,0.0,210.0,5.0,0.0
12638,68.0,0.0,210.0,5.0,0.0
12639,32.0,0.0,210.0,15.0,0.0
12640,80.0,0.0,60.0,11.0,0.0
12641,76.0,0.0,210.0,1.0,0.0
12642,80.0,0.0,210.0,0.0,0.0
12643,64.0,0.0,60.0,13.0,0.0
12644,76.0,0.0,60.0,12.0,0.0
12645,80.0,0.0,60.0,11.0,0.0
12646,61.0,60.0,60.0,13.0,0.0
12647,64.0,0.0,60.0,13.0,0.0
12648,80.0,0.0,60.0,11.0,0.0
12649,76.0,53.0,60.0,12.0,0.0
12650,61.0,0.0,60.0,13.0,0.0
12651,64.0,0.0,60.0,13.0,0.0
12652,64.0,8.0,60.0,13.0,0.0
12653,80.0,0.0,60.0,11.0,0.0
12654,76.0,0.0,60.0,12.0,0.0
12655,61.0,0.0,60.0,13.0,0.0
12656,76.0,0.0,210.0,0.0,0.0
12657,76.0,60.0,60.0,12.0,0.0
12658,61.0,0.0,210.0,3.0,0.0
12659,44.0,7.0,210.0,14.0,0.0
12660,44.0,60.0,240.0,10.0,0.0
12661,56.0,0.0,210.0,3.0,0.0
12662,61.0,0.0,210.0,2.0,0.0
12663,32.0,0.0,210.0,15.0,0.0
12664,80.0,0.0,210.0,0.0,0.0
12665,68.0,0.0,210.0,5.0,0.0
12666,76.0,0.0,210.0,1.0,0.0
12667,80.0,0.0,60.0,11.0,0.0
12668,73.0,0.0,210.0,1.0,0.0
12669,56.0,0.0,210.0,4.0,0.0
12670,56.0,0.0,210.0,5.0,0.0
12671,44.0,0.0,210.0,4.0,0.0
12672,64.0,0.0,210.0,2.0,0.0
12673,64.0,0.0,60.0,13.0,0.0
12674,61.0,0.0,60.0,13.0,0.0
12675,32.0,0.0,210.0,3.0,0.0
12676,61.0,0.0,60.0,13.0,0.0
12677,64.0,0.0,60.0,13.0,0.0
12678,80.0,0.0,60.0,11.0,0.0
12679,76.0,60.0,60.0,12.0,0.0
12680,80.0,0.0,60.0,11.0,0.0
12681,64.0,0.0,60.0,13.0,0.0
12682,76.0,0.0,60.0,12.0,0.0
12683,61.0,53.0,60.0,13.0,0.0
12684,64.0,0.0,60.0,13.0,0.0
12685,76.0,8.0,60.0,12.0,0.0
12686,61.0,0.0,60.0,13.0,0.0
12687,80.0,0.0,60.0,11.0,0.0
12688,73.0,0.0,1890.0,1.0,0.0
12689,85.0,60.0,960.0,11.0,0.0
12690,37.0,0.0,1890.0,8.0,0.0
12691,25.0,0.0,90.0,15.0,0.0
12692,76.0,0.0,1890.0,0.0,0.0
12693,61.0,0.0,960.0,13.0,0.0
12694,68.0,0.0,1890.0,5.0,0.0
12695,64.0,0.0,960.0,13.0,0.0
12696,56.0,0.0,1890.0,5.0,0.0
12697,61.0,0.0,1890.0,7.0,0.0
12698,44.0,0.0,1890.0,4.0,0.0
12699,56.0,0.0,1890.0,4.0,0.0
12700,44.0,30.0,60.0,10.0,0.0
12701,37.0,0.0,90.0,14.0,0.0
12702,49.0,0.0,1890.0,3.0,0.0
12703,85.0,0.0,1890.0,0.0,0.0
12704,61.0,0.0,1890.0,3.0,0.0
12705,25.0,30.0,90.0,3.0,0.0
12706,73.0,0.0,1890.0,6.0,0.0
12707,76.0,0.0,960.0,12.0,0.0
12708,73.0,0.0,1890.0,2.0,0.0
12709,61.0,15.0,1890.0,2.0,0.0
12710,44.0,60.0,60.0,10.0,0.0
12711,20.0,0.0,90.0,3.0,0.0
12712,32.0,30.0,90.0,14.0,0.0
12713,20.0,0.0,90.0,15.0,0.0
12714,44.0,30.0,60.0,10.0,0.0
12715,44.0,60.0,60.0,10.0,0.0
12716,40.0,0.0,120.0,14.0,0.0
12717,28.0,60.0,120.0,15.0,0.0
12718,28.0,0.0,120.0,3.0,0.0
12719,44.0,60.0,60.0,10.0,0.0
12720,44.0,0.0,60.0,10.0,0.0
12721,44.0,45.0,60.0,10.0,0.0
12722,37.0,0.0,90.0,14.0,0.0
12723,25.0,0.0,90.0,3.0,0.0
12724,25.0,15.0,90.0,15.0,0.0
12725,44.0,60.0,60.0,10.0,0.0
12726,28.0,0.0,90.0,3.0,0.0
12727,44.0,30.0,60.0,10.0,0.0
12728,40.0,0.0,90.0,14.0,0.0
12729,28.0,30.0,90.0,15.0,0.0
12730,44.0,60.0,60.0,10.0,0.0
12731,25.0,0.0,90.0,15.0,0.0
12732,37.0,30.0,90.0,14.0,0.0
12733,44.0,30.0,60.0,10.0,0.0
12734,25.0,0.0,90.0,3.0,0.0
12735,44.0,60.0,60.0,10.0,0.0
12736,32.0,0.0,120.0,3.0,0.0
12737,32.0,0.0,120.0,15.0,0.0
12738,44.0,60.0,60.0,10.0,0.0
12739,44.0,60.0,120.0,14.0,0.0
12740,44.0,0.0,60.0,10.0,0.0
12741,28.0,0.0,90.0,3.0,0.0
12742,44.0,45.0,60.0,10.0,0.0
12743,40.0,0.0,90.0,14.0,0.0
12744,28.0,15.0,90.0,15.0,0.0
12745,44.0,0.0,60.0,10.0,0.0
12746,85.0,0.0,930.0,11.0,0.0
12747,64.0,0.0,930.0,13.0,0.0
12748,61.0,0.0,930.0,13.0,0.0
12749,44.0,0.0,90.0,14.0,0.0
12750,32.0,0.0,90.0,3.0,0.0
12751,76.0,0.0,930.0,12.0,0.0
12752,32.0,30.0,90.0,15.0,0.0
12753,44.0,30.0,60.0,10.0,0.0
12754,44.0,60.0,60.0,10.0,0.0
12755,44.0,30.0,60.0,10.0,0.0
12756,28.0,0.0,90.0,3.0,0.0
12757,40.0,0.0,90.0,14.0,0.0
12758,28.0,30.0,90.0,15.0,0.0
12759,44.0,60.0,60.0,10.0,0.0
12760,49.0,0.0,120.0,14.0,0.0
12761,44.0,60.0,60.0,10.0,0.0
12762,37.0,60.0,120.0,15.0,0.0
12763,37.0,0.0,120.0,3.0,0.0
12764,44.0,0.0,60.0,10.0,0.0
12765,32.0,15.0,90.0,3.0,0.0
12766,44.0,45.0,60.0,10.0,0.0
12767,44.0,0.0,90.0,14.0,0.0
12768,32.0,0.0,90.0,15.0,0.0
12769,44.0,60.0,60.0,10.0,0.0
12770,49.0,30.0,90.0,14.0,0.0
12771,44.0,30.0,60.0,10.0,0.0
12772,37.0,0.0,90.0,15.0,0.0
12773,37.0,0.0,90.0,3.0,0.0
12774,44.0,60.0,60.0,10.0,0.0
12775,32.0,30.0,90.0,3.0,0.0
12776,44.0,0.0,90.0,14.0,0.0
12777,32.0,0.0,90.0,15.0,0.0
12778,44.0,30.0,60.0,10.0,0.0
12779,44.0,60.0,60.0,10.0,0.0
12780,40.0,0.0,120.0,15.0,0.0
12781,52.0,0.0,120.0,14.0,0.0
12782,40.0,60.0,120.0,3.0,0.0
12783,44.0,60.0,60.0,10.0,0.0
12784,44.0,0.0,60.0,10.0,0.0
12785,37.0,0.0,90.0,15.0,0.0
12786,49.0,0.0,90.0,14.0,0.0
12787,44.0,45.0,60.0,10.0,0.0
12788,37.0,0.0,90.0,3.0,0.0
12789,44.0,90.0,60.0,10.0,0.0
12790,39.0,120.0,240.0,10.0,0.0
12791,63.0,0.0,240.0,5.0,0.0
12792,51.0,0.0,240.0,5.0,0.0
12793,79.0,0.0,240.0,0.0,0.0
12794,46.0,0.0,690.0,13.0,0.0
12795,55.0,0.0,90.0,12.0,0.0
12796,82.0,0.0,690.0,0.0,0.0
12797,85.0,120.0,690.0,0.0,0.0
12798,70.0,0.0,690.0,1.0,0.0
12799,67.0,0.0,690.0,2.0,0.0
12800,70.0,0.0,690.0,2.0,0.0
12801,73.0,0.0,690.0,1.0,0.0
12802,51.0,0.0,90.0,11.0,0.0
12803,67.0,120.0,90.0,11.0,0.0
12804,55.0,0.0,690.0,3.0,0.0
12805,39.0,0.0,1890.0,3.0,0.0
12806,61.0,0.0,690.0,3.0,0.0
12807,61.0,0.0,90.0,11.0,0.0
12808,67.0,0.0,240.0,6.0,0.0
12809,51.0,0.0,960.0,14.0,0.0
12810,39.0,0.0,690.0,4.0,0.0
12811,39.0,0.0,240.0,8.0,0.0
12812,51.0,0.0,690.0,4.0,0.0
12813,39.0,0.0,960.0,15.0,0.0
12814,58.0,0.0,240.0,7.0,0.0
12815,51.0,30.0,90.0,12.0,0.0
12816,51.0,0.0,90.0,11.0,0.0
12817,55.0,0.0,120.0,11.0,0.0
12818,55.0,105.0,120.0,12.0,0.0
12819,51.0,105.0,90.0,11.0,0.0
12820,51.0,0.0,90.0,12.0,0.0
12821,55.0,0.0,90.0,11.0,0.0
12822,55.0,120.0,90.0,12.0,0.0
12823,51.0,15.0,90.0,12.0,0.0
12824,51.0,0.0,90.0,11.0,0.0
12825,70.0,0.0,90.0,2.0,0.0
12826,70.0,0.0,90.0,1.0,0.0
12827,55.0,0.0,120.0,12.0,0.0
12828,67.0,0.0,90.0,2.0,0.0
12829,39.0,0.0,120.0,10.0,0.0
12830,82.0,0.0,90.0,0.0,0.0
12831,73.0,0.0,90.0,1.0,0.0
12832,58.0,105.0,120.0,11.0,0.0
12833,55.0,0.0,90.0,3.0,0.0
12834,61.0,15.0,90.0,3.0,0.0
12835,46.0,0.0,120.0,13.0,0.0
12836,51.0,0.0,210.0,5.0,0.0
12837,51.0,0.0,90.0,4.0,0.0
12838,85.0,0.0,90.0,0.0,0.0
12839,58.0,0.0,90.0,4.0,0.0
12840,63.0,0.0,210.0,5.0,0.0
12841,61.0,0.0,90.0,3.0,0.0
12842,82.0,0.0,90.0,0.0,0.0
12843,73.0,0.0,90.0,1.0,0.0
12844,58.0,0.0,90.0,4.0,0.0
12845,67.0,0.0,90.0,2.0,0.0
12846,70.0,0.0,90.0,2.0,0.0
12847,85.0,0.0,90.0,0.0,0.0
12848,51.0,0.0,90.0,12.0,0.0
12849,55.0,15.0,90.0,11.0,0.0
12850,51.0,0.0,90.0,4.0,0.0
12851,55.0,0.0,90.0,3.0,0.0
12852,70.0,0.0,90.0,1.0,0.0
12853,39.0,90.0,120.0,10.0,0.0
12854,49.0,0.0,90.0,13.0,0.0
12855,67.0,0.0,240.0,6.0,0.0
12856,58.0,0.0,90.0,11.0,0.0
12857,39.0,15.0,930.0,15.0,0.0
12858,58.0,0.0,240.0,7.0,0.0
12859,63.0,0.0,240.0,5.0,0.0
12860,49.0,0.0,90.0,13.0,0.0
12861,46.0,30.0,90.0,13.0,0.0
12862,85.0,0.0,690.0,0.0,0.0
12863,51.0,0.0,930.0,14.0,0.0
12864,55.0,120.0,690.0,3.0,0.0
12865,82.0,0.0,690.0,0.0,0.0
12866,61.0,0.0,690.0,3.0,0.0
12867,51.0,0.0,690.0,4.0,0.0
12868,39.0,0.0,240.0,8.0,0.0
12869,58.0,0.0,690.0,4.0,0.0
12870,51.0,0.0,240.0,5.0,0.0
12871,39.0,120.0,240.0,10.0,0.0
12872,73.0,0.0,690.0,1.0,0.0
12873,70.0,0.0,690.0,2.0,0.0
12874,67.0,0.0,690.0,2.0,0.0
12875,55.0,90.0,120.0,12.0,0.0
12876,70.0,0.0,690.0,1.0,0.0
12877,55.0,0.0,90.0,11.0,0.0
12878,51.0,15.0,90.0,12.0,0.0
12879,55.0,0.0,90.0,13.0,0.0
12880,49.0,15.0,90.0,13.0,0.0
12881,61.0,0.0,120.0,11.0,0.0
12882,49.0,0.0,120.0,13.0,0.0
12883,58.0,0.0,120.0,12.0,0.0
12884,46.0,105.0,120.0,13.0,0.0
12885,49.0,105.0,90.0,13.0,0.0
12886,55.0,0.0,90.0,12.0,0.0
12887,55.0,0.0,90.0,13.0,0.0
12888,58.0,0.0,90.0,11.0,0.0
12889,55.0,120.0,90.0,13.0,0.0
12890,49.0,0.0,90.0,13.0,0.0
12891,61.0,0.0,90.0,11.0,0.0
12892,58.0,0.0,90.0,12.0,0.0
12893,55.0,0.0,90.0,13.0,0.0
12894,58.0,0.0,90.0,13.0,0.0
12895,58.0,15.0,90.0,11.0,0.0
12896,55.0,0.0,90.0,12.0,0.0
12897,73.0,0.0,90.0,1.0,0.0
12898,61.0,0.0,90.0,3.0,0.0
12899,61.0,105.0,120.0,12.0,0.0
12900,55.0,0.0,90.0,3.0,0.0
12901,55.0,0.0,120.0,13.0,0.0
12902,58.0,0.0,90.0,4.0,0.0
12903,39.0,0.0,120.0,10.0,0.0
12904,70.0,0.0,90.0,2.0,0.0
12905,67.0,15.0,90.0,2.0,0.0
12906,51.0,0.0,90.0,4.0,0.0
12907,67.0,0.0,120.0,11.0,0.0
12908,82.0,0.0,90.0,0.0,0.0
12909,85.0,0.0,90.0,0.0,0.0
12910,51.0,0.0,90.0,5.0,0.0
12911,63.0,0.0,90.0,5.0,0.0
12912,70.0,0.0,90.0,1.0,0.0
12913,49.0,0.0,120.0,13.0,0.0
12914,73.0,0.0,90.0,1.0,0.0
12915,51.0,0.0,90.0,4.0,0.0
12916,70.0,0.0,90.0,1.0,0.0
12917,61.0,0.0,90.0,11.0,0.0
12918,55.0,0.0,90.0,3.0,0.0
12919,58.0,0.0,90.0,4.0,0.0
12920,55.0,0.0,90.0,13.0,0.0
12921,61.0,0.0,90.0,3.0,0.0
12922,58.0,0.0,90.0,12.0,0.0
12923,39.0,90.0,120.0,10.0,0.0
12924,63.0,0.0,90.0,5.0,0.0
12925,51.0,0.0,90.0,5.0,0.0
12926,58.0,0.0,90.0,13.0,0.0
12927,70.0,0.0,90.0,2.0,0.0
12928,67.0,0.0,90.0,2.0,0.0
12929,82.0,0.0,90.0,0.0,0.0
12930,85.0,0.0,90.0,0.0,0.0
12931,46.0,105.0,90.0,15.0,0.0
12932,70.0,0.0,210.0,2.0,0.0
12933,67.0,0.0,210.0,2.0,0.0
12934,67.0,15.0,90.0,11.0,0.0
12935,51.0,0.0,210.0,5.0,0.0
12936,61.0,0.0,90.0,12.0,0.0
12937,70.0,0.0,210.0,1.0,0.0
12938,63.0,0.0,210.0,5.0,0.0
12939,46.0,0.0,90.0,3.0,0.0
12940,55.0,0.0,210.0,3.0,0.0
12941,61.0,0.0,210.0,3.0,0.0
12942,39.0,0.0,240.0,10.0,0.0
12943,55.0,0.0,90.0,13.0,0.0
12944,49.0,0.0,90.0,13.0,0.0
12945,58.0,0.0,90.0,14.0,0.0
12946,73.0,15.0,210.0,1.0,0.0
12947,58.0,0.0,240.0,7.0,0.0
12948,85.0,0.0,210.0,0.0,0.0
12949,39.0,0.0,240.0,8.0,0.0
12950,82.0,0.0,210.0,0.0,0.0
12951,51.0,0.0,210.0,4.0,0.0
12952,58.0,0.0,210.0,4.0,0.0
12953,67.0,90.0,240.0,6.0,0.0
12954,49.0,0.0,90.0,15.0,0.0
12955,58.0,0.0,90.0,12.0,0.0
12956,61.0,15.0,90.0,11.0,0.0
12957,61.0,0.0,90.0,14.0,0.0
12958,49.0,0.0,90.0,3.0,0.0
12959,58.0,0.0,90.0,13.0,0.0
12960,55.0,0.0,90.0,13.0,0.0
12961,39.0,90.0,120.0,10.0,0.0
12962,73.0,0.0,90.0,1.0,0.0
12963,51.0,0.0,90.0,4.0,0.0
12964,58.0,15.0,90.0,4.0,0.0
12965,70.0,0.0,90.0,2.0,0.0
12966,67.0,0.0,90.0,2.0,0.0
12967,51.0,0.0,90.0,5.0,0.0
12968,63.0,0.0,90.0,5.0,0.0
12969,55.0,0.0,90.0,13.0,0.0
12970,85.0,0.0,90.0,0.0,0.0
12971,82.0,0.0,90.0,0.0,0.0
12972,70.0,0.0,90.0,11.0,0.0
12973,55.0,0.0,90.0,14.0,0.0
12974,61.0,0.0,90.0,3.0,0.0
12975,55.0,0.0,90.0,3.0,0.0
12976,70.0,0.0,90.0,1.0,0.0
12977,67.0,0.0,90.0,12.0,0.0
12978,43.0,0.0,90.0,3.0,0.0
12979,43.0,0.0,90.0,15.0,0.0
12980,58.0,15.0,90.0,13.0,0.0
12981,46.0,0.0,90.0,15.0,0.0
12982,61.0,0.0,90.0,13.0,0.0
12983,67.0,0.0,90.0,2.0,0.0
12984,70.0,15.0,90.0,2.0,0.0
12985,67.0,0.0,90.0,11.0,0.0
12986,82.0,0.0,90.0,0.0,0.0
12987,85.0,0.0,90.0,0.0,0.0
12988,58.0,0.0,90.0,13.0,0.0
12989,61.0,0.0,90.0,3.0,0.0
12990,55.0,0.0,90.0,3.0,0.0
12991,39.0,90.0,120.0,10.0,0.0
12992,46.0,0.0,90.0,3.0,0.0
12993,70.0,0.0,90.0,1.0,0.0
12994,51.0,0.0,90.0,5.0,0.0
12995,63.0,0.0,90.0,5.0,0.0
12996,58.0,0.0,90.0,14.0,0.0
12997,51.0,0.0,90.0,4.0,0.0
12998,58.0,0.0,90.0,4.0,0.0
12999,73.0,0.0,90.0,1.0,0.0
13000,61.0,15.0,90.0,12.0,0.0
13001,70.0,0.0,210.0,2.0,0.0
13002,67.0,15.0,210.0,2.0,0.0
13003,58.0,0.0,90.0,13.0,0.0
13004,39.0,0.0,240.0,10.0,0.0
13005,70.0,0.0,210.0,1.0,0.0
13006,85.0,0.0,210.0,0.0,0.0
13007,61.0,0.0,210.0,3.0,0.0
13008,55.0,0.0,210.0,3.0,0.0
13009,82.0,0.0,210.0,0.0,0.0
13010,73.0,15.0,90.0,11.0,0.0
13011,67.0,0.0,240.0,6.0,0.0
13012,73.0,0.0,210.0,1.0,0.0
13013,61.0,0.0,90.0,13.0,0.0
13014,70.0,0.0,90.0,12.0,0.0
13015,51.0,0.0,210.0,4.0,0.0
13016,58.0,90.0,240.0,7.0,0.0
13017,63.0,0.0,210.0,5.0,0.0
13018,51.0,0.0,210.0,5.0,0.0
13019,39.0,0.0,240.0,8.0,0.0
13020,58.0,0.0,210.0,4.0,0.0
13021,39.0,105.0,90.0,3.0,0.0
13022,51.0,0.0,90.0,14.0,0.0
13023,39.0,0.0,90.0,15.0,0.0
13024,67.0,0.0,90.0,13.0,0.0
13025,55.0,0.0,90.0,14.0,0.0
13026,61.0,0.0,90.0,13.0,0.0
13027,43.0,0.0,90.0,3.0,0.0
13028,70.0,15.0,90.0,11.0,0.0
13029,43.0,0.0,90.0,15.0,0.0
13030,67.0,0.0,90.0,12.0,0.0
13031,79.0,0.0,90.0,11.0,0.0
13032,51.0,0.0,90.0,4.0,0.0
13033,58.0,0.0,90.0,4.0,0.0
13034,61.0,15.0,90.0,13.0,0.0
13035,67.0,0.0,90.0,13.0,0.0
13036,49.0,0.0,90.0,14.0,0.0
13037,70.0,0.0,90.0,2.0,0.0
13038,67.0,0.0,90.0,2.0,0.0
13039,37.0,0.0,90.0,15.0,0.0
13040,73.0,15.0,90.0,1.0,0.0
13041,39.0,90.0,120.0,10.0,0.0
13042,82.0,0.0,90.0,0.0,0.0
13043,85.0,0.0,90.0,0.0,0.0
13044,55.0,0.0,90.0,3.0,0.0
13045,70.0,0.0,90.0,1.0,0.0
13046,37.0,0.0,90.0,3.0,0.0
13047,73.0,0.0,90.0,12.0,0.0
13048,63.0,0.0,90.0,5.0,0.0
13049,51.0,0.0,90.0,5.0,0.0
13050,61.0,0.0,90.0,3.0,0.0
13051,58.0,0.0,90.0,4.0,0.0
13052,70.0,0.0,90.0,2.0,0.0
13053,70.0,15.0,90.0,12.0,0.0
13054,51.0,0.0,90.0,5.0,0.0
13055,63.0,0.0,90.0,5.0,0.0
13056,39.0,0.0,90.0,3.0,0.0
13057,67.0,0.0,90.0,2.0,0.0
13058,51.0,0.0,90.0,14.0,0.0
13059,67.0,0.0,90.0,13.0,0.0
13060,73.0,0.0,90.0,11.0,0.0
13061,82.0,0.0,90.0,0.0,0.0
13062,39.0,90.0,120.0,10.0,0.0
13063,85.0,0.0,90.0,0.0,0.0
13064,51.0,0.0,90.0,4.0,0.0
13065,61.0,0.0,90.0,3.0,0.0
13066,70.0,0.0,90.0,1.0,0.0
13067,55.0,15.0,90.0,3.0,0.0
13068,70.0,0.0,90.0,13.0,0.0
13069,73.0,0.0,90.0,1.0,0.0
13070,39.0,0.0,90.0,15.0,0.0
13071,39.0,105.0,240.0,8.0,0.0
13072,58.0,15.0,90.0,4.0,0.0
13073,51.0,0.0,90.0,4.0,0.0
13074,39.0,90.0,120.0,10.0,0.0
13075,67.0,0.0,90.0,1.0,0.0
13076,67.0,0.0,90.0,13.0,0.0
13077,70.0,0.0,90.0,13.0,0.0
13078,70.0,0.0,90.0,2.0,0.0
13079,34.0,0.0,90.0,15.0,0.0
13080,55.0,0.0,90.0,3.0,0.0
13081,61.0,0.0,90.0,3.0,0.0
13082,82.0,15.0,90.0,11.0,0.0
13083,58.0,0.0,240.0,7.0,0.0
13084,79.0,0.0,90.0,0.0,0.0
13085,67.0,0.0,240.0,6.0,0.0
13086,51.0,0.0,90.0,5.0,0.0
13087,34.0,0.0,90.0,3.0,0.0
13088,46.0,0.0,90.0,14.0,0.0
13089,79.0,0.0,90.0,12.0,0.0
13090,67.0,0.0,90.0,2.0,0.0
13091,63.0,0.0,90.0,5.0,0.0
13092,79.0,0.0,90.0,11.0,0.0
13093,51.0,0.0,90.0,3.0,0.0
13094,51.0,0.0,90.0,2.0,0.0
13095,73.0,0.0,90.0,13.0,0.0
13096,63.0,0.0,90.0,1.0,0.0
13097,70.0,15.0,90.0,13.0,0.0
13098,75.0,15.0,90.0,0.0,0.0
13099,49.0,0.0,90.0,14.0,0.0
13100,63.0,0.0,90.0,2.0,0.0
13101,37.0,0.0,90.0,15.0,0.0
13102,51.0,0.0,90.0,5.0,0.0
13103,37.0,0.0,90.0,3.0,0.0
13104,63.0,0.0,90.0,5.0,0.0
13105,39.0,0.0,120.0,10.0,0.0
13106,73.0,0.0,90.0,12.0,0.0
13107,58.0,0.0,90.0,4.0,0.0
13108,51.0,0.0,90.0,4.0,0.0
13109,43.0,0.0,90.0,14.0,0.0
13110,63.0,105.0,240.0,5.0,0.0
13111,58.0,0.0,240.0,4.0,0.0
13112,51.0,0.0,240.0,4.0,0.0
13113,70.0,0.0,240.0,13.0,0.0
13114,73.0,0.0,240.0,13.0,0.0
13115,39.0,0.0,240.0,10.0,0.0
13116,70.0,0.0,240.0,5.0,0.0
13117,82.0,0.0,90.0,0.0,0.0
13118,31.0,0.0,90.0,15.0,0.0
13119,31.0,0.0,90.0,3.0,0.0
13120,58.0,120.0,90.0,3.0,0.0
13121,85.0,0.0,240.0,11.0,0.0
13122,82.0,0.0,240.0,12.0,0.0
13123,58.0,0.0,90.0,2.0,0.0
13124,70.0,0.0,90.0,1.0,0.0
13125,70.0,0.0,90.0,2.0,0.0
13126,55.0,0.0,90.0,3.0,0.0
13127,55.0,0.0,90.0,2.0,0.0
13128,46.0,0.0,90.0,14.0,0.0
13129,67.0,15.0,90.0,2.0,0.0
13130,67.0,0.0,90.0,1.0,0.0
13131,34.0,0.0,90.0,3.0,0.0
13132,34.0,0.0,90.0,15.0,0.0
13133,79.0,0.0,90.0,0.0,0.0
13134,27.0,120.0,90.0,15.0,0.0
13135,61.0,0.0,90.0,2.0,0.0
13136,39.0,0.0,240.0,8.0,0.0
13137,27.0,0.0,90.0,3.0,0.0
13138,85.0,0.0,90.0,0.0,0.0
13139,70.0,0.0,90.0,0.0,0.0
13140,73.0,0.0,90.0,1.0,0.0
13141,61.0,0.0,90.0,3.0,0.0
13142,39.0,0.0,90.0,14.0,0.0
13143,73.0,0.0,90.0,2.0,0.0
13144,58.0,105.0,240.0,7.0,0.0
13145,67.0,0.0,240.0,6.0,0.0
13146,39.0,0.0,90.0,3.0,0.0
13147,58.0,0.0,90.0,2.0,0.0
13148,58.0,0.0,90.0,3.0,0.0
13149,39.0,0.0,90.0,15.0,0.0
13150,70.0,0.0,90.0,1.0,0.0
13151,51.0,0.0,90.0,14.0,0.0
13152,82.0,15.0,90.0,0.0,0.0
13153,67.0,0.0,90.0,0.0,0.0
13154,70.0,0.0,90.0,2.0,0.0
13155,51.0,0.0,210.0,5.0,0.0
13156,79.0,0.0,90.0,0.0,0.0
13157,51.0,0.0,210.0,11.0,0.0
13158,55.0,0.0,90.0,3.0,0.0
13159,51.0,0.0,210.0,12.0,0.0
13160,58.0,15.0,210.0,12.0,0.0
13161,67.0,0.0,210.0,12.0,0.0
13162,63.0,0.0,210.0,5.0,0.0
13163,39.0,0.0,90.0,3.0,0.0
13164,39.0,0.0,90.0,15.0,0.0
13165,79.0,0.0,90.0,1.0,0.0
13166,51.0,0.0,210.0,13.0,0.0
13167,63.0,0.0,210.0,13.0,0.0
13168,51.0,0.0,90.0,14.0,0.0
13169,51.0,0.0,210.0,4.0,0.0
13170,58.0,0.0,210.0,4.0,0.0
13171,91.0,0.0,90.0,0.0,0.0
13172,67.0,120.0,90.0,2.0,0.0
13173,39.0,52.0,240.0,10.0,0.0
13174,67.0,0.0,210.0,11.0,0.0
13175,58.0,0.0,210.0,11.0,0.0
13176,75.0,0.0,90.0,1.0,0.0
13177,75.0,0.0,90.0,0.0,0.0
13178,51.0,0.0,90.0,3.0,0.0
13179,87.0,0.0,90.0,0.0,0.0
13180,51.0,0.0,90.0,14.0,0.0
13181,39.0,0.0,90.0,15.0,0.0
13182,63.0,0.0,90.0,2.0,0.0
13183,39.0,0.0,90.0,3.0,0.0
13184,40.0,22.0,90.0,14.0,0.0
13185,55.0,0.0,2850.0,3.0,0.0
13186,52.0,0.0,2850.0,3.0,0.0
13187,70.0,0.0,60.0,12.0,0.0
13188,79.0,0.0,60.0,12.0,0.0
13189,72.0,7.0,3810.0,5.0,0.0
13190,48.0,0.0,3810.0,8.0,0.0
13191,82.0,0.0,2850.0,0.0,0.0
13192,60.0,0.0,3810.0,5.0,0.0
13193,48.0,0.0,3810.0,4.0,0.0
13194,60.0,0.0,3810.0,4.0,0.0
13195,52.0,0.0,60.0,13.0,0.0
13196,72.0,0.0,60.0,11.0,0.0
13197,84.0,0.0,60.0,11.0,0.0
13198,28.0,0.0,90.0,3.0,0.0
13199,58.0,0.0,3810.0,7.0,0.0
13200,55.0,38.0,60.0,13.0,0.0
13201,84.0,7.0,2850.0,0.0,0.0
13202,82.0,0.0,2850.0,1.0,0.0
13203,28.0,0.0,90.0,15.0,0.0
13204,67.0,0.0,3810.0,6.0,0.0
13205,79.0,0.0,2850.0,1.0,0.0
13206,70.0,0.0,3810.0,2.0,0.0
13207,67.0,0.0,3810.0,2.0,0.0
13208,52.0,0.0,60.0,13.0,0.0
13209,79.0,0.0,60.0,12.0,0.0
13210,72.0,0.0,60.0,11.0,0.0
13211,84.0,60.0,60.0,11.0,0.0
13212,55.0,0.0,60.0,13.0,0.0
13213,70.0,0.0,60.0,12.0,0.0
13214,24.0,0.0,90.0,3.0,0.0
13215,70.0,0.0,60.0,12.0,0.0
13216,24.0,0.0,90.0,15.0,0.0
13217,72.0,0.0,60.0,11.0,0.0
13218,55.0,0.0,60.0,13.0,0.0
13219,84.0,0.0,60.0,11.0,0.0
13220,36.0,22.0,90.0,14.0,0.0
13221,52.0,38.0,60.0,13.0,0.0
13222,79.0,0.0,60.0,12.0,0.0
13223,79.0,0.0,60.0,12.0,0.0
13224,52.0,0.0,60.0,13.0,0.0
13225,84.0,0.0,60.0,11.0,0.0
13226,72.0,0.0,60.0,11.0,0.0
13227,70.0,60.0,60.0,12.0,0.0
13228,55.0,0.0,60.0,13.0,0.0
13229,70.0,0.0,60.0,12.0,0.0
13230,79.0,60.0,60.0,12.0,0.0
13231,52.0,0.0,60.0,13.0,0.0
13232,31.0,52.0,120.0,15.0,0.0
13233,55.0,0.0,60.0,13.0,0.0
13234,72.0,0.0,60.0,11.0,0.0
13235,84.0,0.0,60.0,11.0,0.0
13236,31.0,0.0,120.0,3.0,0.0
13237,43.0,0.0,120.0,14.0,0.0
13238,72.0,8.0,60.0,11.0,0.0
13239,79.0,0.0,60.0,12.0,0.0
13240,70.0,0.0,60.0,12.0,0.0
13241,84.0,0.0,60.0,11.0,0.0
13242,55.0,0.0,60.0,13.0,0.0
13243,52.0,0.0,60.0,13.0,0.0
13244,72.0,0.0,60.0,11.0,0.0
13245,79.0,0.0,60.0,12.0,0.0
13246,84.0,0.0,60.0,11.0,0.0
13247,40.0,7.0,90.0,14.0,0.0
13248,52.0,53.0,60.0,13.0,0.0
13249,55.0,0.0,60.0,13.0,0.0
13250,70.0,0.0,60.0,12.0,0.0
13251,28.0,0.0,90.0,3.0,0.0
13252,28.0,0.0,90.0,15.0,0.0
13253,79.0,0.0,60.0,12.0,0.0
13254,55.0,0.0,60.0,13.0,0.0
13255,52.0,0.0,60.0,13.0,0.0
13256,72.0,0.0,60.0,11.0,0.0
13257,84.0,0.0,60.0,11.0,0.0
13258,70.0,60.0,60.0,12.0,0.0
13259,84.0,0.0,60.0,11.0,0.0
13260,43.0,22.0,90.0,14.0,0.0
13261,52.0,38.0,60.0,13.0,0.0
13262,55.0,0.0,60.0,13.0,0.0
13263,31.0,0.0,90.0,3.0,0.0
13264,79.0,0.0,60.0,12.0,0.0
13265,72.0,0.0,60.0,11.0,0.0
13266,70.0,0.0,60.0,12.0,0.0
13267,31.0,0.0,90.0,15.0,0.0
13268,84.0,0.0,60.0,11.0,0.0
13269,79.0,60.0,60.0,12.0,0.0
13270,70.0,0.0,60.0,12.0,0.0
13271,55.0,0.0,60.0,13.0,0.0
13272,52.0,0.0,60.0,13.0,0.0
13273,72.0,0.0,60.0,11.0,0.0
13274,28.0,22.0,90.0,3.0,0.0
13275,72.0,0.0,60.0,11.0,0.0
13276,28.0,0.0,90.0,15.0,0.0
13277,79.0,38.0,60.0,12.0,0.0
13278,70.0,0.0,60.0,12.0,0.0
13279,55.0,0.0,60.0,13.0,0.0
13280,84.0,0.0,60.0,11.0,0.0
13281,52.0,0.0,60.0,13.0,0.0
13282,40.0,0.0,90.0,14.0,0.0
13283,72.0,0.0,60.0,11.0,0.0
13284,70.0,0.0,60.0,12.0,0.0
13285,84.0,0.0,60.0,11.0,0.0
13286,79.0,0.0,60.0,12.0,0.0
13287,55.0,60.0,60.0,13.0,0.0
13288,52.0,0.0,60.0,13.0,0.0
13289,52.0,60.0,60.0,13.0,0.0
13290,55.0,0.0,60.0,13.0,0.0
13291,36.0,0.0,120.0,15.0,0.0
13292,70.0,0.0,60.0,12.0,0.0
13293,79.0,0.0,60.0,12.0,0.0
13294,84.0,0.0,60.0,11.0,0.0
13295,36.0,52.0,120.0,3.0,0.0
13296,72.0,0.0,60.0,11.0,0.0
13297,48.0,0.0,120.0,14.0,0.0
13298,55.0,0.0,60.0,13.0,0.0
13299,84.0,8.0,60.0,11.0,0.0
13300,79.0,0.0,60.0,12.0,0.0
13301,52.0,0.0,60.0,13.0,0.0
13302,72.0,0.0,60.0,11.0,0.0
13303,70.0,0.0,60.0,12.0,0.0
13304,79.0,0.0,60.0,12.0,0.0
13305,70.0,53.0,60.0,12.0,0.0
13306,31.0,0.0,90.0,15.0,0.0
13307,31.0,7.0,90.0,3.0,0.0
13308,84.0,0.0,60.0,11.0,0.0
13309,43.0,0.0,90.0,14.0,0.0
13310,72.0,0.0,60.0,11.0,0.0
13311,55.0,0.0,60.0,13.0,0.0
13312,52.0,0.0,60.0,13.0,0.0
13313,72.0,0.0,60.0,11.0,0.0
13314,52.0,0.0,60.0,13.0,0.0
13315,55.0,0.0,60.0,13.0,0.0
13316,79.0,0.0,60.0,12.0,0.0
13317,70.0,0.0,60.0,12.0,0.0
13318,84.0,60.0,60.0,11.0,0.0
13319,52.0,0.0,60.0,13.0,0.0
13320,70.0,0.0,60.0,12.0,0.0
13321,79.0,0.0,60.0,12.0,0.0
13322,55.0,0.0,60.0,13.0,0.0
13323,36.0,22.0,90.0,15.0,0.0
13324,48.0,0.0,90.0,14.0,0.0
13325,72.0,38.0,60.0,11.0,0.0
13326,84.0,0.0,60.0,11.0,0.0
13327,36.0,0.0,90.0,3.0,0.0
13328,52.0,0.0,60.0,13.0,0.0
13329,79.0,0.0,60.0,12.0,0.0
13330,70.0,0.0,60.0,12.0,0.0
13331,72.0,0.0,60.0,11.0,0.0
13332,84.0,60.0,60.0,11.0,0.0
13333,55.0,0.0,60.0,13.0,0.0
13334,31.0,0.0,90.0,3.0,0.0
13335,72.0,38.0,60.0,11.0,0.0
13336,31.0,0.0,90.0,15.0,0.0
13337,79.0,0.0,60.0,12.0,0.0
13338,43.0,22.0,90.0,14.0,0.0
13339,84.0,0.0,60.0,11.0,0.0
13340,70.0,0.0,60.0,12.0,0.0
13341,52.0,0.0,60.0,13.0,0.0
13342,55.0,0.0,60.0,13.0,0.0
13343,79.0,60.0,60.0,12.0,0.0
13344,70.0,0.0,60.0,12.0,0.0
13345,52.0,0.0,60.0,13.0,0.0
13346,84.0,0.0,60.0,11.0,0.0
13347,55.0,0.0,60.0,13.0,0.0
13348,72.0,0.0,60.0,11.0,0.0
13349,72.0,0.0,60.0,11.0,0.0
13350,84.0,0.0,60.0,11.0,0.0
13351,40.0,0.0,120.0,3.0,0.0
13352,55.0,0.0,60.0,13.0,0.0
13353,52.0,52.0,120.0,14.0,0.0
13354,40.0,0.0,120.0,15.0,0.0
13355,70.0,60.0,60.0,12.0,0.0
13356,79.0,0.0,60.0,12.0,0.0
13357,52.0,0.0,60.0,13.0,0.0
13358,84.0,0.0,60.0,11.0,0.0
13359,70.0,0.0,60.0,12.0,0.0
13360,52.0,0.0,60.0,13.0,0.0
13361,55.0,0.0,60.0,13.0,0.0
13362,79.0,8.0,60.0,12.0,0.0
13363,72.0,0.0,60.0,11.0,0.0
13364,36.0,0.0,90.0,3.0,0.0
13365,70.0,0.0,60.0,12.0,0.0
13366,36.0,0.0,90.0,15.0,0.0
13367,72.0,0.0,60.0,11.0,0.0
13368,79.0,0.0,60.0,12.0,0.0
13369,84.0,53.0,60.0,11.0,0.0
13370,48.0,7.0,90.0,14.0,0.0
13371,52.0,0.0,60.0,13.0,0.0
13372,55.0,0.0,60.0,13.0,0.0
13373,72.0,0.0,60.0,11.0,0.0
13374,79.0,60.0,60.0,12.0,0.0
13375,52.0,0.0,60.0,13.0,0.0
13376,84.0,0.0,60.0,11.0,0.0
13377,55.0,0.0,60.0,13.0,0.0
13378,70.0,0.0,60.0,12.0,0.0
13379,52.0,0.0,90.0,14.0,0.0
13380,40.0,22.0,90.0,15.0,0.0
13381,55.0,0.0,60.0,13.0,0.0
13382,40.0,0.0,90.0,3.0,0.0
13383,52.0,38.0,60.0,13.0,0.0
13384,72.0,0.0,60.0,11.0,0.0
13385,79.0,0.0,60.0,12.0,0.0
13386,84.0,0.0,60.0,11.0,0.0
13387,70.0,0.0,60.0,12.0,0.0
13388,72.0,0.0,60.0,11.0,0.0
13389,79.0,0.0,60.0,12.0,0.0
13390,70.0,0.0,60.0,12.0,0.0
13391,52.0,0.0,60.0,13.0,0.0
13392,55.0,0.0,60.0,13.0,0.0
13393,84.0,60.0,60.0,11.0,0.0
13394,84.0,0.0,60.0,11.0,0.0
13395,55.0,0.0,60.0,13.0,0.0
13396,52.0,0.0,60.0,13.0,0.0
13397,79.0,38.0,60.0,12.0,0.0
13398,70.0,0.0,60.0,12.0,0.0
13399,36.0,22.0,90.0,3.0,0.0
13400,72.0,0.0,60.0,11.0,0.0
13401,48.0,0.0,90.0,14.0,0.0
13402,36.0,0.0,90.0,15.0,0.0
13403,79.0,0.0,60.0,12.0,0.0
13404,70.0,0.0,60.0,12.0,0.0
13405,84.0,0.0,60.0,11.0,0.0
13406,72.0,60.0,60.0,11.0,0.0
13407,55.0,0.0,60.0,13.0,0.0
13408,52.0,0.0,60.0,13.0,0.0
13409,55.0,52.0,120.0,14.0,0.0
13410,79.0,0.0,60.0,12.0,0.0
13411,43.0,0.0,120.0,15.0,0.0
13412,70.0,0.0,60.0,12.0,0.0
13413,43.0,0.0,120.0,3.0,0.0
13414,72.0,0.0,60.0,11.0,0.0
13415,84.0,60.0,60.0,11.0,0.0
13416,52.0,0.0,60.0,13.0,0.0
13417,55.0,0.0,60.0,13.0,0.0
13418,72.0,0.0,60.0,11.0,0.0
13419,52.0,0.0,60.0,13.0,0.0
13420,79.0,0.0,60.0,12.0,0.0
13421,70.0,0.0,60.0,12.0,0.0
13422,55.0,0.0,60.0,13.0,0.0
13423,84.0,8.0,60.0,11.0,0.0
13424,55.0,0.0,60.0,13.0,0.0
13425,40.0,0.0,90.0,15.0,0.0
13426,70.0,53.0,60.0,12.0,0.0
13427,52.0,0.0,60.0,13.0,0.0
13428,79.0,0.0,60.0,12.0,0.0
13429,52.0,7.0,90.0,14.0,0.0
13430,84.0,0.0,60.0,11.0,0.0
13431,40.0,0.0,90.0,3.0,0.0
13432,72.0,0.0,60.0,11.0,0.0
13433,84.0,0.0,60.0,11.0,0.0
13434,70.0,0.0,60.0,12.0,0.0
13435,72.0,60.0,60.0,11.0,0.0
13436,52.0,0.0,60.0,13.0,0.0
13437,55.0,0.0,60.0,13.0,0.0
13438,79.0,0.0,60.0,12.0,0.0
13439,72.0,0.0,60.0,11.0,0.0
13440,84.0,38.0,60.0,11.0,0.0
13441,60.0,22.0,90.0,12.0,0.0
13442,52.0,0.0,60.0,13.0,0.0
13443,48.0,0.0,90.0,3.0,0.0
13444,60.0,0.0,90.0,14.0,0.0
13445,55.0,0.0,60.0,13.0,0.0
13446,48.0,0.0,90.0,15.0,0.0
13447,52.0,0.0,60.0,13.0,0.0
13448,72.0,0.0,60.0,11.0,0.0
13449,55.0,0.0,60.0,13.0,0.0
13450,84.0,60.0,60.0,11.0,0.0
13451,55.0,0.0,90.0,12.0,0.0
13452,84.0,0.0,60.0,11.0,0.0
13453,52.0,0.0,60.0,13.0,0.0
13454,55.0,38.0,60.0,13.0,0.0
13455,43.0,0.0,90.0,15.0,0.0
13456,72.0,0.0,60.0,11.0,0.0
13457,55.0,0.0,90.0,14.0,0.0
13458,43.0,22.0,90.0,3.0,0.0
13459,84.0,60.0,60.0,11.0,0.0
13460,55.0,0.0,60.0,13.0,0.0
13461,52.0,0.0,60.0,13.0,0.0
13462,72.0,0.0,60.0,11.0,0.0
13463,52.0,38.0,60.0,13.0,0.0
13464,55.0,0.0,60.0,13.0,0.0
13465,40.0,0.0,90.0,15.0,0.0
13466,40.0,0.0,90.0,3.0,0.0
13467,64.0,22.0,90.0,12.0,0.0
13468,72.0,0.0,60.0,11.0,0.0
13469,52.0,0.0,90.0,14.0,0.0
13470,84.0,0.0,60.0,11.0,0.0
13471,52.0,0.0,60.0,13.0,0.0
13472,72.0,60.0,60.0,11.0,0.0
13473,84.0,0.0,60.0,11.0,0.0
13474,55.0,0.0,60.0,13.0,0.0
13475,43.0,0.0,90.0,15.0,0.0
13476,43.0,0.0,90.0,3.0,0.0
13477,84.0,0.0,60.0,11.0,0.0
13478,72.0,38.0,60.0,11.0,0.0
13479,52.0,0.0,60.0,13.0,0.0
13480,55.0,0.0,90.0,14.0,0.0
13481,55.0,0.0,60.0,13.0,0.0
13482,60.0,22.0,90.0,12.0,0.0
13483,72.0,0.0,60.0,11.0,0.0
13484,84.0,0.0,60.0,11.0,0.0
13485,52.0,0.0,60.0,13.0,0.0
13486,55.0,60.0,60.0,13.0,0.0
13487,36.0,0.0,90.0,3.0,0.0
13488,52.0,0.0,60.0,13.0,0.0
13489,67.0,22.0,90.0,12.0,0.0
13490,36.0,0.0,90.0,15.0,0.0
13491,48.0,0.0,90.0,14.0,0.0
13492,84.0,0.0,60.0,11.0,0.0
13493,55.0,0.0,60.0,13.0,0.0
13494,72.0,38.0,60.0,11.0,0.0
13495,84.0,0.0,60.0,11.0,0.0
13496,72.0,0.0,60.0,11.0,0.0
13497,52.0,60.0,60.0,13.0,0.0
13498,55.0,0.0,60.0,13.0,0.0
13499,52.0,0.0,60.0,13.0,0.0
13500,72.0,38.0,60.0,11.0,0.0
13501,64.0,0.0,90.0,12.0,0.0
13502,84.0,0.0,60.0,11.0,0.0
13503,52.0,22.0,90.0,14.0,0.0
13504,55.0,0.0,60.0,13.0,0.0
13505,40.0,0.0,90.0,15.0,0.0
13506,40.0,0.0,90.0,3.0,0.0
13507,52.0,60.0,60.0,13.0,0.0
13508,55.0,0.0,60.0,13.0,0.0
13509,72.0,0.0,60.0,11.0,0.0
13510,84.0,0.0,60.0,11.0,0.0
13511,72.0,22.0,90.0,12.0,0.0
13512,46.0,0.0,90.0,14.0,0.0
13513,34.0,0.0,90.0,15.0,0.0
13514,52.0,0.0,60.0,13.0,0.0
13515,72.0,0.0,60.0,11.0,0.0
13516,84.0,0.0,60.0,11.0,0.0
13517,34.0,0.0,90.0,3.0,0.0
13518,55.0,38.0,60.0,13.0,0.0
13519,52.0,0.0,60.0,13.0,0.0
13520,55.0,0.0,60.0,13.0,0.0
13521,72.0,0.0,60.0,11.0,0.0
13522,84.0,60.0,60.0,11.0,0.0
13523,67.0,0.0,90.0,12.0,0.0
13524,52.0,0.0,60.0,13.0,0.0
13525,36.0,0.0,90.0,3.0,0.0
13526,84.0,0.0,60.0,11.0,0.0
13527,72.0,0.0,60.0,11.0,0.0
13528,48.0,0.0,90.0,14.0,0.0
13529,36.0,15.0,90.0,15.0,0.0
13530,55.0,38.0,60.0,13.0,0.0
13531,72.0,0.0,60.0,11.0,0.0
13532,84.0,0.0,60.0,11.0,0.0
13533,52.0,60.0,60.0,13.0,0.0
13534,55.0,0.0,60.0,13.0,0.0
13535,72.0,0.0,60.0,11.0,0.0
13536,84.0,0.0,60.0,11.0,0.0
13537,31.0,0.0,90.0,15.0,0.0
13538,64.0,0.0,90.0,1.0,0.0
13539,76.0,7.0,90.0,0.0,0.0
13540,43.0,0.0,90.0,14.0,0.0
13541,52.0,0.0,90.0,3.0,0.0
13542,55.0,0.0,60.0,13.0,0.0
13543,52.0,38.0,60.0,13.0,0.0
13544,76.0,0.0,60.0,12.0,0.0
13545,31.0,15.0,90.0,3.0,0.0
13546,55.0,0.0,60.0,13.0,0.0
13547,72.0,0.0,60.0,11.0,0.0
13548,52.0,0.0,60.0,13.0,0.0
13549,84.0,0.0,60.0,11.0,0.0
13550,70.0,60.0,60.0,12.0,0.0
13551,79.0,0.0,60.0,12.0,0.0
13552,52.0,38.0,60.0,13.0,0.0
13553,55.0,0.0,60.0,13.0,0.0
13554,72.0,0.0,60.0,11.0,0.0
13555,46.0,0.0,90.0,14.0,0.0
13556,84.0,0.0,60.0,11.0,0.0
13557,34.0,0.0,90.0,3.0,0.0
13558,60.0,0.0,90.0,1.0,0.0
13559,34.0,15.0,90.0,15.0,0.0
13560,70.0,0.0,60.0,12.0,0.0
13561,79.0,0.0,60.0,12.0,0.0
13562,48.0,0.0,90.0,3.0,0.0
13563,72.0,7.0,90.0,0.0,0.0
13564,79.0,0.0,60.0,12.0,0.0
13565,70.0,0.0,60.0,12.0,0.0
13566,52.0,0.0,60.0,13.0,0.0
13567,72.0,60.0,60.0,11.0,0.0
13568,55.0,0.0,60.0,13.0,0.0
13569,84.0,0.0,60.0,11.0,0.0
13570,28.0,0.0,90.0,15.0,0.0
13571,72.0,0.0,60.0,11.0,0.0
13572,28.0,0.0,90.0,3.0,0.0
13573,55.0,7.0,90.0,3.0,0.0
13574,52.0,38.0,60.0,13.0,0.0
13575,79.0,0.0,90.0,0.0,0.0
13576,84.0,0.0,60.0,11.0,0.0
13577,55.0,0.0,60.0,13.0,0.0
13578,67.0,0.0,90.0,1.0,0.0
13579,70.0,0.0,60.0,12.0,0.0
13580,79.0,0.0,60.0,12.0,0.0
13581,40.0,15.0,90.0,14.0,0.0
13582,52.0,0.0,60.0,13.0,0.0
13583,55.0,0.0,60.0,13.0,0.0
13584,79.0,0.0,60.0,12.0,0.0
13585,84.0,0.0,60.0,11.0,0.0
13586,70.0,60.0,60.0,12.0,0.0
13587,72.0,0.0,60.0,11.0,0.0
13588,84.0,0.0,60.0,11.0,0.0
13589,70.0,0.0,60.0,12.0,0.0
13590,52.0,7.0,90.0,3.0,0.0
13591,52.0,0.0,60.0,13.0,0.0
13592,72.0,0.0,60.0,11.0,0.0
13593,79.0,0.0,60.0,12.0,0.0
13594,31.0,0.0,90.0,3.0,0.0
13595,64.0,0.0,90.0,1.0,0.0
13596,31.0,0.0,90.0,15.0,0.0
13597,76.0,0.0,90.0,0.0,0.0
13598,43.0,15.0,90.0,14.0,0.0
13599,55.0,38.0,60.0,13.0,0.0
13600,70.0,0.0,60.0,12.0,0.0
13601,55.0,0.0,60.0,13.0,0.0
13602,52.0,0.0,60.0,13.0,0.0
13603,84.0,60.0,60.0,11.0,0.0
13604,72.0,0.0,60.0,11.0,0.0
13605,79.0,0.0,60.0,12.0,0.0
13606,58.0,7.0,90.0,3.0,0.0
13607,70.0,0.0,90.0,0.0,0.0
13608,52.0,0.0,60.0,13.0,0.0
13609,82.0,0.0,90.0,0.0,0.0
13610,55.0,0.0,60.0,13.0,0.0
13611,84.0,53.0,60.0,11.0,0.0
13612,24.0,0.0,90.0,15.0,0.0
13613,36.0,0.0,90.0,14.0,0.0
13614,24.0,0.0,90.0,3.0,0.0
13615,70.0,0.0,60.0,12.0,0.0
13616,79.0,0.0,60.0,12.0,0.0
13617,72.0,0.0,60.0,11.0,0.0
13618,70.0,0.0,90.0,1.0,0.0
13619,84.0,0.0,60.0,11.0,0.0
13620,79.0,0.0,60.0,12.0,0.0
13621,70.0,0.0,60.0,12.0,0.0
13622,55.0,60.0,60.0,13.0,0.0
13623,58.0,0.0,60.0,13.0,0.0
13624,72.0,0.0,60.0,11.0,0.0
13625,79.0,0.0,60.0,12.0,0.0
13626,70.0,53.0,60.0,12.0,0.0
13627,36.0,0.0,90.0,15.0,0.0
13628,36.0,0.0,90.0,3.0,0.0
13629,58.0,0.0,60.0,13.0,0.0
13630,84.0,0.0,60.0,11.0,0.0
13631,55.0,0.0,90.0,3.0,0.0
13632,67.0,0.0,90.0,1.0,0.0
13633,79.0,0.0,90.0,0.0,0.0
13634,67.0,0.0,90.0,0.0,0.0
13635,48.0,0.0,90.0,14.0,0.0
13636,55.0,0.0,60.0,13.0,0.0
13637,72.0,0.0,60.0,11.0,0.0
13638,55.0,0.0,60.0,13.0,0.0
13639,58.0,60.0,60.0,13.0,0.0
13640,84.0,0.0,60.0,11.0,0.0
13641,72.0,0.0,60.0,11.0,0.0
13642,79.0,0.0,60.0,12.0,0.0
13643,70.0,0.0,60.0,12.0,0.0
13644,70.0,0.0,60.0,12.0,0.0
13645,79.0,0.0,60.0,12.0,0.0
13646,82.0,0.0,90.0,0.0,0.0
13647,79.0,0.0,90.0,0.0,0.0
13648,55.0,0.0,60.0,13.0,0.0
13649,36.0,0.0,90.0,15.0,0.0
13650,48.0,0.0,90.0,14.0,0.0
13651,36.0,0.0,90.0,3.0,0.0
13652,58.0,53.0,60.0,13.0,0.0
13653,72.0,0.0,60.0,11.0,0.0
13654,84.0,0.0,60.0,11.0,0.0
13655,58.0,0.0,90.0,3.0,0.0
13656,55.0,0.0,90.0,3.0,0.0
13657,88.0,0.0,90.0,0.0,0.0
13658,76.0,7.0,90.0,1.0,0.0
13659,84.0,60.0,60.0,11.0,0.0
13660,72.0,0.0,60.0,11.0,0.0
13661,58.0,0.0,60.0,13.0,0.0
13662,55.0,0.0,60.0,13.0,0.0
13663,70.0,0.0,60.0,12.0,0.0
13664,79.0,0.0,60.0,12.0,0.0
13665,58.0,0.0,90.0,3.0,0.0
13666,79.0,0.0,90.0,0.0,0.0
13667,84.0,0.0,90.0,0.0,0.0
13668,55.0,0.0,90.0,3.0,0.0
13669,72.0,0.0,90.0,1.0,0.0
13670,55.0,0.0,60.0,13.0,0.0
13671,82.0,0.0,90.0,0.0,0.0
13672,36.0,0.0,90.0,3.0,0.0
13673,84.0,53.0,60.0,11.0,0.0
13674,72.0,0.0,60.0,11.0,0.0
13675,79.0,0.0,60.0,12.0,0.0
13676,70.0,0.0,60.0,12.0,0.0
13677,48.0,0.0,90.0,14.0,0.0
13678,36.0,0.0,90.0,15.0,0.0
13679,58.0,0.0,60.0,13.0,0.0
13680,55.0,0.0,60.0,13.0,0.0
13681,58.0,76.0,60.0,13.0,0.0
13682,84.0,0.0,60.0,11.0,0.0
13683,72.0,0.0,60.0,11.0,0.0
13684,79.0,0.0,60.0,12.0,0.0
13685,70.0,0.0,60.0,12.0,0.0
13686,77.0,80.0,60.0,12.0,0.0
13687,81.0,0.0,240.0,0.0,0.0
13688,77.0,0.0,240.0,0.0,0.0
13689,41.0,68.0,240.0,14.0,0.0
13690,69.0,0.0,60.0,12.0,0.0
13691,53.0,0.0,240.0,3.0,0.0
13692,41.0,0.0,240.0,8.0,0.0
13693,48.0,0.0,240.0,4.0,0.0
13694,60.0,0.0,240.0,4.0,0.0
13695,65.0,0.0,240.0,2.0,0.0
13696,72.0,0.0,240.0,5.0,0.0
13697,53.0,0.0,60.0,13.0,0.0
13698,60.0,0.0,240.0,5.0,0.0
13699,89.0,0.0,180.0,0.0,0.0
13700,69.0,0.0,240.0,2.0,0.0
13701,72.0,0.0,240.0,1.0,0.0
13702,69.0,0.0,240.0,1.0,0.0
13703,57.0,0.0,240.0,3.0,0.0
13704,72.0,48.0,180.0,11.0,0.0
13705,84.0,0.0,180.0,11.0,0.0
13706,53.0,0.0,240.0,7.0,0.0
13707,29.0,0.0,240.0,15.0,0.0
13708,29.0,0.0,240.0,3.0,0.0
13709,65.0,0.0,240.0,6.0,0.0
13710,60.0,32.0,60.0,12.0,0.0
13711,57.0,0.0,60.0,13.0,0.0
13712,60.0,0.0,60.0,12.0,0.0
13713,57.0,12.0,60.0,13.0,0.0
13714,57.0,0.0,60.0,12.0,0.0
13715,81.0,68.0,90.0,0.0,0.0
13716,53.0,12.0,60.0,13.0,0.0
13717,69.0,0.0,90.0,11.0,0.0
13718,70.0,68.0,90.0,11.0,0.0
13719,57.0,0.0,60.0,13.0,0.0
13720,60.0,12.0,60.0,12.0,0.0
13721,82.0,0.0,90.0,0.0,0.0
13722,84.0,0.0,60.0,0.0,0.0
13723,57.0,0.0,60.0,13.0,0.0
13724,72.0,80.0,60.0,11.0,0.0
13725,60.0,0.0,60.0,12.0,0.0
13726,82.0,0.0,240.0,0.0,0.0
13727,86.0,48.0,180.0,0.0,0.0
13728,41.0,0.0,240.0,14.0,0.0
13729,29.0,0.0,240.0,15.0,0.0
13730,58.0,80.0,60.0,12.0,0.0
13731,62.0,0.0,240.0,3.0,0.0
13732,29.0,68.0,240.0,3.0,0.0
13733,70.0,0.0,240.0,1.0,0.0
13734,74.0,0.0,240.0,1.0,0.0
13735,53.0,0.0,60.0,13.0,0.0
13736,74.0,0.0,180.0,11.0,0.0
13737,58.0,0.0,240.0,3.0,0.0
13738,62.0,0.0,60.0,12.0,0.0
13739,58.0,32.0,60.0,13.0,0.0
13740,58.0,0.0,60.0,13.0,0.0
13741,62.0,12.0,60.0,12.0,0.0
13742,53.0,12.0,60.0,13.0,0.0
13743,74.0,68.0,90.0,11.0,0.0
13744,58.0,0.0,60.0,12.0,0.0
13745,86.0,0.0,90.0,0.0,0.0
13746,76.0,68.0,90.0,11.0,0.0
13747,62.0,0.0,60.0,12.0,0.0
13748,58.0,12.0,60.0,13.0,0.0
13749,88.0,0.0,90.0,0.0,0.0
13750,62.0,0.0,60.0,12.0,0.0
13751,89.0,0.0,60.0,0.0,0.0
13752,58.0,80.0,60.0,13.0,0.0
13753,77.0,0.0,60.0,11.0,0.0
13754,84.0,0.0,720.0,0.0,0.0
13755,81.0,0.0,720.0,0.0,0.0
13756,60.0,0.0,720.0,4.0,0.0
13757,29.0,0.0,210.0,15.0,0.0
13758,60.0,0.0,720.0,3.0,0.0
13759,57.0,0.0,720.0,3.0,0.0
13760,72.0,0.0,690.0,11.0,0.0
13761,57.0,80.0,60.0,12.0,0.0
13762,29.0,3.0,210.0,3.0,0.0
13763,53.0,0.0,60.0,13.0,0.0
13764,72.0,0.0,720.0,1.0,0.0
13765,41.0,0.0,210.0,14.0,0.0
13766,69.0,80.0,720.0,1.0,0.0
13767,57.0,77.0,60.0,13.0,0.0
13768,60.0,0.0,60.0,12.0,0.0
13769,57.0,0.0,60.0,13.0,0.0
13770,60.0,80.0,60.0,12.0,0.0
13771,60.0,0.0,60.0,12.0,0.0
13772,57.0,0.0,60.0,13.0,0.0
13773,36.0,0.0,60.0,3.0,0.0
13774,48.0,0.0,60.0,14.0,0.0
13775,36.0,80.0,60.0,15.0,0.0
13776,50.0,0.0,60.0,14.0,0.0
13777,38.0,0.0,60.0,15.0,0.0
13778,60.0,0.0,60.0,12.0,0.0
13779,38.0,0.0,60.0,3.0,0.0
13780,57.0,80.0,60.0,13.0,0.0
13781,60.0,0.0,60.0,12.0,0.0
13782,52.0,0.0,60.0,14.0,0.0
13783,40.0,0.0,60.0,15.0,0.0
13784,40.0,0.0,60.0,3.0,0.0
13785,57.0,237.0,60.0,13.0,0.0
13786,53.0,15.0,210.0,14.0,0.0
13787,41.0,0.0,240.0,3.0,0.0
13788,41.0,0.0,210.0,15.0,0.0
13789,60.0,0.0,210.0,12.0,0.0
13790,57.0,0.0,210.0,13.0,0.0
13791,72.0,0.0,90.0,11.0,0.0
13792,53.0,80.0,90.0,12.0,0.0
13793,53.0,0.0,240.0,13.0,0.0
13794,53.0,0.0,240.0,14.0,0.0
13795,70.0,0.0,90.0,11.0,0.0
13796,55.0,80.0,90.0,12.0,0.0
13797,57.0,240.0,90.0,12.0,0.0
13798,69.0,0.0,90.0,11.0,0.0
13799,52.0,0.0,480.0,13.0,0.0
13800,58.0,80.0,240.0,12.0,0.0
13801,67.0,0.0,240.0,11.0,0.0
13802,52.0,0.0,480.0,14.0,0.0
13803,55.0,0.0,90.0,12.0,0.0
13804,70.0,80.0,90.0,11.0,0.0
13805,69.0,80.0,90.0,11.0,0.0
13806,57.0,0.0,90.0,12.0,0.0
13807,58.0,0.0,90.0,12.0,0.0
13808,67.0,240.0,90.0,11.0,0.0
13809,53.0,0.0,480.0,14.0,0.0
13810,53.0,180.0,480.0,13.0,0.0
13811,57.0,80.0,240.0,12.0,0.0
13812,65.0,0.0,240.0,11.0,0.0
13813,69.0,80.0,90.0,11.0,0.0
13814,53.0,0.0,90.0,12.0,0.0
13815,55.0,0.0,90.0,12.0,0.0
13816,67.0,68.0,90.0,11.0,0.0
13817,57.0,0.0,60.0,12.0,0.0
13818,65.0,12.0,60.0,11.0,0.0
13819,55.0,0.0,690.0,14.0,0.0
13820,64.0,140.0,180.0,11.0,0.0
13821,55.0,0.0,690.0,13.0,0.0
13822,58.0,95.0,690.0,12.0,0.0
13823,64.0,80.0,90.0,11.0,0.0
13824,65.0,68.0,90.0,11.0,0.0
13825,67.0,237.0,60.0,11.0,0.0
13826,60.0,0.0,210.0,11.0,0.0
13827,53.0,0.0,240.0,13.0,0.0
13828,53.0,0.0,240.0,14.0,0.0
13829,72.0,0.0,90.0,11.0,0.0
13830,53.0,80.0,90.0,12.0,0.0
13831,70.0,0.0,90.0,11.0,0.0
13832,55.0,80.0,90.0,12.0,0.0
13833,68.0,0.0,90.0,11.0,0.0
13834,56.0,240.0,90.0,12.0,0.0
13835,52.0,0.0,480.0,13.0,0.0
13836,58.0,0.0,240.0,12.0,0.0
13837,52.0,0.0,480.0,14.0,0.0
13838,67.0,80.0,240.0,11.0,0.0
13839,55.0,0.0,90.0,12.0,0.0
13840,70.0,80.0,90.0,11.0,0.0
13841,56.0,80.0,90.0,12.0,0.0
13842,68.0,0.0,90.0,11.0,0.0
13843,58.0,240.0,90.0,12.0,0.0
13844,67.0,0.0,90.0,11.0,0.0
13845,53.0,0.0,480.0,14.0,0.0
13846,53.0,180.0,480.0,13.0,0.0
13847,65.0,0.0,240.0,11.0,0.0
13848,56.0,80.0,240.0,12.0,0.0
13849,68.0,80.0,90.0,11.0,0.0
13850,53.0,0.0,90.0,12.0,0.0
13851,55.0,68.0,90.0,12.0,0.0
13852,67.0,0.0,90.0,11.0,0.0
13853,56.0,12.0,60.0,12.0,0.0
13854,65.0,0.0,60.0,11.0,0.0
13855,58.0,95.0,690.0,12.0,0.0
13856,64.0,140.0,180.0,11.0,0.0
13857,55.0,0.0,690.0,14.0,0.0
13858,55.0,0.0,690.0,13.0,0.0
13859,64.0,80.0,90.0,11.0,0.0
13860,65.0,68.0,90.0,11.0,0.0
13861,67.0,237.0,60.0,11.0,0.0
13862,60.0,0.0,210.0,11.0,0.0
13863,44.0,0.0,180.0,13.0,0.0
13864,44.0,80.0,90.0,14.0,0.0
13865,56.0,0.0,210.0,4.0,0.0
13866,44.0,15.0,210.0,4.0,0.0
13867,56.0,0.0,180.0,11.0,0.0
13868,56.0,45.0,180.0,12.0,0.0
13869,42.0,20.0,90.0,14.0,0.0
13870,41.0,225.0,90.0,14.0,0.0
13871,56.0,15.0,210.0,4.0,0.0
13872,39.0,80.0,240.0,14.0,0.0
13873,54.0,0.0,480.0,12.0,0.0
13874,51.0,0.0,480.0,13.0,0.0
13875,60.0,0.0,480.0,11.0,0.0
13876,44.0,0.0,210.0,4.0,0.0
13877,42.0,0.0,90.0,14.0,0.0
13878,44.0,3.0,210.0,4.0,0.0
13879,56.0,0.0,210.0,4.0,0.0
13880,68.0,80.0,90.0,1.0,0.0
13881,70.0,65.0,90.0,1.0,0.0
13882,41.0,0.0,90.0,14.0,0.0
13883,39.0,180.0,90.0,14.0,0.0
13884,72.0,12.0,60.0,1.0,0.0
13885,49.0,0.0,480.0,13.0,0.0
13886,73.0,45.0,180.0,1.0,0.0
13887,53.0,0.0,480.0,12.0,0.0
13888,61.0,180.0,480.0,11.0,0.0
13889,56.0,15.0,210.0,4.0,0.0
13890,44.0,0.0,210.0,4.0,0.0
13891,37.0,80.0,240.0,14.0,0.0
13892,73.0,80.0,90.0,1.0,0.0
13893,56.0,0.0,210.0,4.0,0.0
13894,41.0,0.0,90.0,14.0,0.0
13895,44.0,3.0,210.0,4.0,0.0
13896,75.0,65.0,90.0,1.0,0.0
13897,39.0,0.0,90.0,14.0,0.0
13898,77.0,0.0,60.0,1.0,0.0
13899,37.0,12.0,60.0,14.0,0.0
13900,36.0,0.0,180.0,14.0,0.0
13901,48.0,0.0,690.0,13.0,0.0
13902,78.0,45.0,180.0,1.0,0.0
13903,56.0,0.0,210.0,4.0,0.0
13904,44.0,95.0,210.0,4.0,0.0
13905,63.0,0.0,690.0,11.0,0.0
13906,54.0,95.0,690.0,12.0,0.0
13907,75.0,80.0,90.0,0.0,0.0
13908,44.0,0.0,210.0,4.0,0.0
13909,56.0,3.0,210.0,4.0,0.0
13910,36.0,0.0,90.0,14.0,0.0
13911,77.0,0.0,90.0,0.0,0.0
13912,37.0,65.0,90.0,14.0,0.0
13913,39.0,0.0,60.0,14.0,0.0
13914,79.0,192.0,60.0,0.0,0.0
13915,80.0,45.0,180.0,0.0,0.0
13916,44.0,0.0,210.0,4.0,0.0
13917,56.0,0.0,210.0,4.0,0.0
13918,32.0,0.0,180.0,14.0,0.0
13919,44.0,80.0,90.0,14.0,0.0
13920,49.0,0.0,180.0,13.0,0.0
13921,44.0,0.0,210.0,4.0,0.0
13922,61.0,0.0,180.0,11.0,0.0
13923,53.0,45.0,180.0,12.0,0.0
13924,56.0,3.0,210.0,4.0,0.0
13925,42.0,20.0,90.0,14.0,0.0
13926,41.0,237.0,60.0,14.0,0.0
13927,56.0,15.0,210.0,4.0,0.0
13928,51.0,0.0,480.0,13.0,0.0
13929,54.0,0.0,480.0,12.0,0.0
13930,44.0,0.0,210.0,4.0,0.0
13931,39.0,80.0,240.0,14.0,0.0
13932,60.0,180.0,480.0,11.0,0.0
13933,42.0,0.0,90.0,14.0,0.0
13934,44.0,3.0,210.0,4.0,0.0
13935,56.0,0.0,210.0,4.0,0.0
13936,68.0,80.0,90.0,1.0,0.0
13937,41.0,0.0,90.0,14.0,0.0
13938,70.0,65.0,90.0,1.0,0.0
13939,39.0,0.0,90.0,14.0,0.0
13940,72.0,12.0,60.0,1.0,0.0
13941,73.0,45.0,180.0,1.0,0.0
13942,49.0,0.0,450.0,13.0,0.0
13943,53.0,0.0,450.0,12.0,0.0
13944,44.0,0.0,210.0,4.0,0.0
13945,56.0,15.0,210.0,4.0,0.0
13946,37.0,80.0,240.0,14.0,0.0
13947,61.0,3.0,450.0,11.0,0.0
13948,73.0,80.0,90.0,1.0,0.0
13949,44.0,0.0,210.0,4.0,0.0
13950,41.0,0.0,90.0,14.0,0.0
13951,56.0,0.0,210.0,4.0,0.0
13952,39.0,0.0,90.0,14.0,0.0
13953,75.0,65.0,90.0,1.0,0.0
13954,77.0,0.0,60.0,1.0,0.0
13955,37.0,192.0,60.0,14.0,0.0
13956,78.0,45.0,180.0,1.0,0.0
13957,36.0,0.0,240.0,14.0,0.0
13958,44.0,15.0,210.0,4.0,0.0
13959,63.0,0.0,240.0,11.0,0.0
13960,48.0,0.0,240.0,13.0,0.0
13961,56.0,0.0,210.0,4.0,0.0
13962,54.0,80.0,240.0,12.0,0.0
13963,75.0,80.0,90.0,0.0,0.0
13964,44.0,3.0,210.0,4.0,0.0
13965,56.0,0.0,210.0,4.0,0.0
13966,77.0,65.0,90.0,0.0,0.0
13967,79.0,237.0,60.0,0.0,0.0
13968,56.0,15.0,210.0,4.0,0.0
13969,44.0,0.0,210.0,4.0,0.0
13970,80.0,80.0,240.0,0.0,0.0
13971,78.0,0.0,240.0,0.0,0.0
13972,68.0,0.0,480.0,1.0,0.0
13973,56.0,3.0,210.0,4.0,0.0
13974,63.0,240.0,240.0,2.0,0.0
13975,56.0,80.0,90.0,3.0,0.0
13976,58.0,65.0,90.0,3.0,0.0
13977,60.0,12.0,60.0,3.0,0.0
13978,61.0,80.0,240.0,3.0,0.0
13979,65.0,15.0,690.0,2.0,0.0
13980,61.0,0.0,240.0,4.0,0.0
13981,77.0,0.0,240.0,0.0,0.0
13982,69.0,180.0,240.0,1.0,0.0
13983,65.0,80.0,90.0,11.0,0.0
13984,60.0,0.0,240.0,3.0,0.0
13985,75.0,0.0,240.0,0.0,0.0
13986,67.0,68.0,90.0,11.0,0.0
13987,69.0,12.0,60.0,11.0,0.0
13988,70.0,45.0,180.0,11.0,0.0
13989,73.0,80.0,240.0,0.0,0.0
13990,58.0,0.0,240.0,3.0,0.0
13991,70.0,0.0,240.0,1.0,0.0
13992,56.0,180.0,240.0,3.0,0.0
13993,65.0,0.0,240.0,2.0,0.0
13994,74.0,0.0,240.0,0.0,0.0
13995,62.0,80.0,90.0,12.0,0.0
13996,71.0,0.0,240.0,1.0,0.0
13997,63.0,68.0,90.0,12.0,0.0
13998,65.0,12.0,60.0,12.0,0.0
13999,54.0,80.0,240.0,3.0,0.0
14000,70.0,0.0,240.0,1.0,0.0
14001,66.0,60.0,180.0,12.0,0.0
14002,75.0,0.0,240.0,0.0,0.0
14003,66.0,0.0,240.0,2.0,0.0
14004,53.0,180.0,240.0,3.0,0.0
14005,74.0,0.0,240.0,1.0,0.0
14006,53.0,80.0,90.0,13.0,0.0
14007,77.0,0.0,240.0,0.0,0.0
14008,68.0,0.0,240.0,2.0,0.0
14009,54.0,68.0,90.0,13.0,0.0
14010,56.0,12.0,60.0,13.0,0.0
14011,78.0,0.0,210.0,0.0,0.0
14012,70.0,80.0,240.0,2.0,0.0
14013,58.0,45.0,180.0,13.0,0.0
14014,51.0,15.0,210.0,3.0,0.0
14015,75.0,0.0,240.0,1.0,0.0
14016,49.0,0.0,240.0,3.0,0.0
14017,64.0,180.0,240.0,12.0,0.0
14018,70.0,0.0,240.0,1.0,0.0
14019,67.0,0.0,240.0,11.0,0.0
14020,76.0,0.0,240.0,0.0,0.0
14021,58.0,0.0,240.0,13.0,0.0
14022,61.0,0.0,240.0,3.0,0.0
14023,79.0,0.0,240.0,0.0,0.0
14024,49.0,80.0,90.0,14.0,0.0
14025,67.0,0.0,240.0,2.0,0.0
14026,51.0,68.0,90.0,14.0,0.0
14027,52.0,12.0,60.0,14.0,0.0
14028,75.0,0.0,240.0,0.0,0.0
14029,68.0,0.0,240.0,11.0,0.0
14030,60.0,0.0,240.0,13.0,0.0
14031,80.0,0.0,240.0,0.0,0.0
14032,68.0,0.0,240.0,2.0,0.0
14033,75.0,0.0,240.0,1.0,0.0
14034,48.0,60.0,180.0,14.0,0.0
14035,48.0,0.0,240.0,3.0,0.0
14036,60.0,0.0,240.0,3.0,0.0
14037,63.0,80.0,240.0,12.0,0.0
14038,63.0,0.0,240.0,1.0,0.0
14039,67.0,180.0,240.0,12.0,0.0
14040,61.0,0.0,240.0,13.0,0.0
14041,70.0,0.0,240.0,11.0,0.0
14042,67.0,0.0,240.0,2.0,0.0
14043,82.0,0.0,240.0,0.0,0.0
14044,46.0,80.0,90.0,14.0,0.0
14045,46.0,0.0,240.0,3.0,0.0
14046,58.0,0.0,240.0,3.0,0.0
14047,79.0,0.0,240.0,0.0,0.0
14048,73.0,0.0,240.0,1.0,0.0
14049,48.0,68.0,90.0,14.0,0.0
14050,49.0,12.0,60.0,14.0,0.0
14051,63.0,0.0,210.0,13.0,0.0
14052,68.0,15.0,210.0,1.0,0.0
14053,44.0,45.0,180.0,14.0,0.0
14054,68.0,0.0,240.0,2.0,0.0
14055,71.0,0.0,240.0,1.0,0.0
14056,83.0,0.0,240.0,0.0,0.0
14057,80.0,0.0,240.0,0.0,0.0
14058,44.0,0.0,240.0,3.0,0.0
14059,56.0,0.0,240.0,3.0,0.0
14060,71.0,80.0,240.0,11.0,0.0
14061,68.0,0.0,210.0,12.0,0.0
14062,42.0,80.0,90.0,14.0,0.0
14063,72.0,0.0,240.0,1.0,0.0
14064,68.0,0.0,480.0,1.0,0.0
14065,54.0,0.0,240.0,3.0,0.0
14066,63.0,0.0,240.0,13.0,0.0
14067,68.0,0.0,480.0,12.0,0.0
14068,72.0,0.0,240.0,11.0,0.0
14069,42.0,225.0,240.0,3.0,0.0
14070,63.0,0.0,240.0,2.0,0.0
14071,84.0,0.0,240.0,0.0,0.0
14072,80.0,0.0,450.0,0.0,0.0
14073,44.0,68.0,90.0,14.0,0.0
14074,45.0,12.0,60.0,14.0,0.0
14075,41.0,0.0,240.0,14.0,0.0
14076,41.0,0.0,240.0,3.0,0.0
14077,68.0,0.0,240.0,2.0,0.0
14078,73.0,0.0,240.0,11.0,0.0
14079,85.0,15.0,210.0,0.0,0.0
14080,53.0,80.0,240.0,3.0,0.0
14081,73.0,0.0,240.0,1.0,0.0
14082,56.0,0.0,240.0,13.0,0.0
14083,77.0,80.0,90.0,0.0,0.0
14084,79.0,68.0,90.0,0.0,0.0
14085,81.0,252.0,60.0,0.0,0.0
14086,82.0,80.0,240.0,0.0,0.0
14087,70.0,15.0,450.0,1.0,0.0
14088,80.0,0.0,240.0,0.0,0.0
14089,65.0,225.0,240.0,2.0,0.0
14090,58.0,80.0,90.0,3.0,0.0
14091,60.0,68.0,90.0,3.0,0.0
14092,62.0,12.0,60.0,3.0,0.0
14093,63.0,0.0,240.0,3.0,0.0
14094,78.0,80.0,240.0,0.0,0.0
14095,66.0,0.0,240.0,2.0,0.0
14096,77.0,0.0,240.0,0.0,0.0
14097,65.0,80.0,90.0,11.0,0.0
14098,70.0,0.0,240.0,1.0,0.0
14099,61.0,0.0,240.0,3.0,0.0
14100,65.0,180.0,240.0,2.0,0.0
14101,68.0,68.0,90.0,11.0,0.0
14102,70.0,12.0,60.0,11.0,0.0
14103,72.0,15.0,210.0,1.0,0.0
14104,66.0,0.0,240.0,2.0,0.0
14105,60.0,0.0,210.0,3.0,0.0
14106,75.0,80.0,240.0,0.0,0.0
14107,72.0,45.0,180.0,11.0,0.0
14108,60.0,0.0,480.0,3.0,0.0
14109,60.0,80.0,90.0,12.0,0.0
14110,58.0,0.0,240.0,3.0,0.0
14111,67.0,240.0,240.0,2.0,0.0
14112,76.0,0.0,240.0,0.0,0.0
14113,72.0,3.0,210.0,1.0,0.0
14114,62.0,65.0,90.0,12.0,0.0
14115,64.0,12.0,60.0,12.0,0.0
14116,56.0,0.0,240.0,3.0,0.0
14117,77.0,0.0,240.0,0.0,0.0
14118,68.0,0.0,240.0,2.0,0.0
14119,72.0,0.0,690.0,1.0,0.0
14120,65.0,80.0,240.0,12.0,0.0
14121,79.0,0.0,240.0,0.0,0.0
14122,58.0,0.0,240.0,3.0,0.0
14123,55.0,0.0,240.0,3.0,0.0
14124,64.0,180.0,240.0,2.0,0.0
14125,55.0,80.0,90.0,13.0,0.0
14126,56.0,68.0,90.0,13.0,0.0
14127,58.0,12.0,60.0,13.0,0.0
14128,53.0,95.0,210.0,3.0,0.0
14129,80.0,0.0,210.0,0.0,0.0
14130,56.0,0.0,210.0,3.0,0.0
14131,60.0,45.0,180.0,13.0,0.0
14132,65.0,0.0,210.0,2.0,0.0
14133,72.0,0.0,240.0,2.0,0.0
14134,81.0,0.0,240.0,0.0,0.0
14135,54.0,0.0,480.0,12.0,0.0
14136,51.0,0.0,240.0,13.0,0.0
14137,57.0,0.0,240.0,11.0,0.0
14138,51.0,0.0,240.0,3.0,0.0
14139,60.0,0.0,240.0,3.0,0.0
14140,66.0,0.0,480.0,1.0,0.0
14141,68.0,180.0,240.0,1.0,0.0
14142,78.0,15.0,450.0,0.0,0.0
14143,51.0,80.0,90.0,14.0,0.0
14144,53.0,68.0,90.0,14.0,0.0
14145,54.0,12.0,60.0,14.0,0.0
14146,58.0,0.0,240.0,11.0,0.0
14147,49.0,45.0,180.0,14.0,0.0
14148,73.0,0.0,690.0,2.0,0.0
14149,70.0,0.0,240.0,1.0,0.0
14150,49.0,0.0,210.0,13.0,0.0
14151,49.0,0.0,240.0,3.0,0.0
14152,61.0,0.0,690.0,3.0,0.0
14153,82.0,80.0,240.0,0.0,0.0
14154,47.0,80.0,90.0,13.0,0.0
14155,59.0,180.0,240.0,11.0,0.0
14156,47.0,0.0,90.0,14.0,0.0
14157,68.0,0.0,240.0,1.0,0.0
14158,56.0,0.0,240.0,12.0,0.0
14159,80.0,0.0,240.0,0.0,0.0
14160,83.0,0.0,240.0,0.0,0.0
14161,71.0,0.0,240.0,1.0,0.0
14162,47.0,0.0,240.0,3.0,0.0
14163,49.0,0.0,90.0,13.0,0.0
14164,49.0,68.0,90.0,14.0,0.0
14165,50.0,12.0,60.0,14.0,0.0
14166,50.0,0.0,60.0,13.0,0.0
14167,46.0,45.0,180.0,13.0,0.0
14168,61.0,95.0,210.0,11.0,0.0
14169,58.0,0.0,210.0,12.0,0.0
14170,46.0,0.0,210.0,3.0,0.0
14171,82.0,0.0,210.0,0.0,0.0
14172,70.0,0.0,210.0,1.0,0.0
14173,46.0,0.0,180.0,14.0,0.0
14174,73.0,0.0,210.0,1.0,0.0
14175,85.0,0.0,210.0,0.0,0.0
14176,73.0,0.0,2850.0,1.0,0.0
14177,30.0,0.0,210.0,15.0,0.0
14178,73.0,0.0,2850.0,2.0,0.0
14179,61.0,0.0,2850.0,2.0,0.0
14180,61.0,0.0,2850.0,1.0,0.0
14181,85.0,0.0,2850.0,0.0,0.0
14182,73.0,0.0,2850.0,0.0,0.0
14183,61.0,0.0,90.0,12.0,0.0
14184,73.0,80.0,90.0,11.0,0.0
14185,49.0,0.0,2850.0,3.0,0.0
14186,30.0,0.0,210.0,3.0,0.0
14187,37.0,15.0,2850.0,3.0,0.0
14188,42.0,15.0,210.0,14.0,0.0
14189,71.0,65.0,90.0,11.0,0.0
14190,59.0,0.0,90.0,12.0,0.0
14191,70.0,240.0,90.0,11.0,0.0
14192,58.0,0.0,90.0,12.0,0.0
14193,56.0,68.0,240.0,12.0,0.0
14194,29.0,0.0,450.0,3.0,0.0
14195,68.0,0.0,240.0,11.0,0.0
14196,41.0,0.0,450.0,14.0,0.0
14197,29.0,15.0,450.0,15.0,0.0
14198,71.0,0.0,90.0,11.0,0.0
14199,44.0,12.0,60.0,13.0,0.0
14200,59.0,68.0,90.0,12.0,0.0
14201,58.0,0.0,90.0,12.0,0.0
14202,44.0,12.0,60.0,13.0,0.0
14203,70.0,65.0,90.0,11.0,0.0
14204,56.0,0.0,90.0,12.0,0.0
14205,68.0,0.0,90.0,11.0,0.0
14206,44.0,240.0,90.0,13.0,0.0
14207,66.0,0.0,240.0,11.0,0.0
14208,54.0,68.0,240.0,12.0,0.0
14209,30.0,0.0,450.0,3.0,0.0
14210,42.0,3.0,450.0,14.0,0.0
14211,30.0,0.0,450.0,15.0,0.0
14212,46.0,12.0,60.0,13.0,0.0
14213,70.0,0.0,90.0,11.0,0.0
14214,58.0,68.0,90.0,12.0,0.0
14215,68.0,65.0,90.0,11.0,0.0
14216,46.0,12.0,60.0,13.0,0.0
14217,56.0,0.0,90.0,12.0,0.0
14218,66.0,237.0,60.0,11.0,0.0
14219,54.0,0.0,60.0,12.0,0.0
14220,46.0,0.0,60.0,13.0,0.0
14221,61.0,0.0,240.0,12.0,0.0
14222,47.0,68.0,240.0,13.0,0.0
14223,32.0,0.0,960.0,15.0,0.0
14224,65.0,15.0,210.0,11.0,0.0
14225,44.0,240.0,960.0,14.0,0.0
14226,32.0,0.0,1650.0,3.0,0.0
14227,77.0,80.0,60.0,11.0,0.0
14228,78.0,80.0,60.0,11.0,0.0
14229,80.0,252.0,60.0,11.0,0.0
14230,73.0,68.0,240.0,11.0,0.0
14231,65.0,80.0,60.0,12.0,0.0
14232,66.0,80.0,60.0,12.0,0.0
14233,68.0,12.0,60.0,12.0,0.0
14234,44.0,0.0,690.0,14.0,0.0
14235,61.0,68.0,240.0,12.0,0.0
14236,32.0,0.0,690.0,15.0,0.0
14237,53.0,80.0,60.0,13.0,0.0
14238,54.0,80.0,60.0,13.0,0.0
14239,56.0,237.0,60.0,13.0,0.0
14240,49.0,80.0,240.0,13.0,0.0
14241,32.0,15.0,210.0,3.0,0.0
14242,61.0,0.0,2880.0,1.0,0.0
14243,32.0,0.0,210.0,15.0,0.0
14244,85.0,0.0,2880.0,0.0,0.0
14245,73.0,0.0,2880.0,0.0,0.0
14246,73.0,0.0,2880.0,1.0,0.0
14247,73.0,0.0,2880.0,2.0,0.0
14248,37.0,0.0,2850.0,3.0,0.0
14249,49.0,15.0,2850.0,3.0,0.0
14250,44.0,0.0,210.0,14.0,0.0
14251,62.0,0.0,90.0,12.0,0.0
14252,74.0,80.0,90.0,11.0,0.0
14253,61.0,80.0,2880.0,2.0,0.0
14254,73.0,65.0,90.0,11.0,0.0
14255,61.0,0.0,90.0,12.0,0.0
14256,71.0,0.0,90.0,11.0,0.0
14257,59.0,240.0,90.0,12.0,0.0
14258,57.0,68.0,240.0,12.0,0.0
14259,30.0,15.0,450.0,15.0,0.0
14260,69.0,0.0,240.0,11.0,0.0
14261,30.0,0.0,450.0,3.0,0.0
14262,42.0,0.0,450.0,14.0,0.0
14263,45.0,12.0,60.0,13.0,0.0
14264,73.0,68.0,90.0,11.0,0.0
14265,61.0,0.0,90.0,12.0,0.0
14266,71.0,0.0,90.0,11.0,0.0
14267,45.0,12.0,60.0,13.0,0.0
14268,59.0,65.0,90.0,12.0,0.0
14269,45.0,0.0,90.0,13.0,0.0
14270,57.0,0.0,90.0,12.0,0.0
14271,69.0,240.0,90.0,11.0,0.0
14272,32.0,3.0,450.0,15.0,0.0
14273,56.0,68.0,240.0,12.0,0.0
14274,68.0,0.0,240.0,11.0,0.0
14275,32.0,0.0,450.0,3.0,0.0
14276,44.0,0.0,450.0,14.0,0.0
14277,59.0,68.0,90.0,12.0,0.0
14278,71.0,0.0,90.0,11.0,0.0
14279,47.0,12.0,60.0,13.0,0.0
14280,47.0,12.0,60.0,13.0,0.0
14281,57.0,0.0,90.0,12.0,0.0
14282,69.0,65.0,90.0,11.0,0.0
14283,47.0,0.0,60.0,13.0,0.0
14284,56.0,0.0,60.0,12.0,0.0
14285,68.0,237.0,60.0,11.0,0.0
14286,66.0,15.0,210.0,11.0,0.0
14287,33.0,0.0,960.0,15.0,0.0
14288,33.0,0.0,1680.0,3.0,0.0
14289,45.0,240.0,960.0,14.0,0.0
14290,49.0,68.0,240.0,13.0,0.0
14291,54.0,0.0,240.0,12.0,0.0
14292,78.0,80.0,60.0,11.0,0.0
14293,80.0,80.0,60.0,11.0,0.0
14294,81.0,252.0,60.0,11.0,0.0
14295,73.0,68.0,240.0,11.0,0.0
14296,69.0,80.0,60.0,12.0,0.0
14297,71.0,80.0,60.0,12.0,0.0
14298,73.0,12.0,60.0,12.0,0.0
14299,33.0,0.0,690.0,15.0,0.0
14300,66.0,68.0,240.0,12.0,0.0
14301,45.0,0.0,690.0,14.0,0.0
14302,57.0,80.0,60.0,13.0,0.0
14303,59.0,80.0,60.0,13.0,0.0
14304,61.0,237.0,60.0,13.0,0.0
14305,54.0,0.0,240.0,13.0,0.0
14306,57.0,15.0,210.0,7.0,0.0
14307,52.0,80.0,90.0,14.0,0.0
14308,57.0,0.0,210.0,3.0,0.0
14309,57.0,0.0,210.0,6.0,0.0
14310,64.0,240.0,240.0,12.0,0.0
14311,52.0,0.0,240.0,12.0,0.0
14312,50.0,65.0,90.0,14.0,0.0
14313,49.0,0.0,90.0,14.0,0.0
14314,47.0,68.0,240.0,14.0,0.0
14315,56.0,0.0,450.0,7.0,0.0
14316,52.0,40.0,960.0,12.0,0.0
14317,64.0,0.0,960.0,12.0,0.0
14318,56.0,0.0,450.0,3.0,0.0
14319,56.0,15.0,450.0,6.0,0.0
14320,50.0,68.0,90.0,14.0,0.0
14321,76.0,0.0,60.0,1.0,0.0
14322,68.0,12.0,60.0,1.0,0.0
14323,68.0,12.0,60.0,1.0,0.0
14324,76.0,0.0,60.0,1.0,0.0
14325,49.0,65.0,90.0,14.0,0.0
14326,47.0,0.0,90.0,14.0,0.0
14327,68.0,240.0,90.0,1.0,0.0
14328,76.0,0.0,90.0,1.0,0.0
14329,45.0,68.0,240.0,14.0,0.0
14330,57.0,3.0,450.0,3.0,0.0
14331,57.0,0.0,450.0,6.0,0.0
14332,57.0,0.0,450.0,7.0,0.0
14333,69.0,0.0,60.0,1.0,0.0
14334,76.0,12.0,60.0,1.0,0.0
14335,49.0,68.0,90.0,14.0,0.0
14336,47.0,65.0,90.0,14.0,0.0
14337,69.0,0.0,60.0,1.0,0.0
14338,76.0,12.0,60.0,1.0,0.0
14339,45.0,0.0,60.0,14.0,0.0
14340,69.0,0.0,60.0,1.0,0.0
14341,76.0,12.0,60.0,1.0,0.0
14342,52.0,0.0,1680.0,8.0,0.0
14343,59.0,0.0,1650.0,7.0,0.0
14344,32.0,0.0,960.0,15.0,0.0
14345,71.0,0.0,1680.0,0.0,0.0
14346,76.0,0.0,1680.0,1.0,0.0
14347,56.0,0.0,1170.0,13.0,0.0
14348,76.0,0.0,1680.0,0.0,0.0
14349,32.0,80.0,1680.0,3.0,0.0
14350,56.0,0.0,1650.0,3.0,0.0
14351,59.0,0.0,1650.0,3.0,0.0
14352,71.0,0.0,1680.0,1.0,0.0
14353,44.0,15.0,1170.0,13.0,0.0
14354,59.0,15.0,1650.0,6.0,0.0
14355,56.0,0.0,1650.0,4.0,0.0
14356,52.0,0.0,690.0,12.0,0.0
14357,64.0,15.0,690.0,12.0,0.0
14358,68.0,0.0,1680.0,5.0,0.0
14359,56.0,0.0,1680.0,5.0,0.0
14360,44.0,0.0,1650.0,4.0,0.0
14361,44.0,40.0,40.0,10.0,0.0
14362,44.0,40.0,960.0,14.0,0.0
14363,64.0,0.0,1680.0,2.0,0.0
14364,76.0,15.0,210.0,11.0,0.0
14365,71.0,0.0,1680.0,2.0,0.0
14366,44.0,40.0,40.0,10.0,0.0
14367,44.0,40.0,40.0,10.0,0.0
14368,44.0,40.0,40.0,10.0,0.0
14369,44.0,25.0,40.0,10.0,0.0
14370,44.0,40.0,40.0,10.0,0.0
14371,80.0,12.0,60.0,11.0,0.0
14372,44.0,28.0,40.0,10.0,0.0
14373,44.0,40.0,40.0,10.0,0.0
14374,44.0,28.0,40.0,10.0,0.0
14375,81.0,12.0,60.0,11.0,0.0
14376,44.0,40.0,40.0,10.0,0.0
14377,83.0,12.0,60.0,11.0,0.0
14378,44.0,28.0,40.0,10.0,0.0
14379,44.0,40.0,40.0,10.0,0.0
14380,44.0,40.0,40.0,10.0,0.0
14381,76.0,0.0,240.0,11.0,0.0
14382,44.0,40.0,40.0,10.0,0.0
14383,44.0,40.0,40.0,10.0,0.0
14384,44.0,40.0,40.0,10.0,0.0
14385,44.0,25.0,40.0,10.0,0.0
14386,44.0,40.0,40.0,10.0,0.0
14387,44.0,28.0,40.0,10.0,0.0
14388,68.0,12.0,60.0,12.0,0.0
14389,44.0,40.0,40.0,10.0,0.0
14390,69.0,12.0,60.0,12.0,0.0
14391,44.0,28.0,40.0,10.0,0.0
14392,44.0,40.0,40.0,10.0,0.0
14393,71.0,12.0,60.0,12.0,0.0
14394,44.0,28.0,40.0,10.0,0.0
14395,44.0,0.0,40.0,10.0,0.0
14396,44.0,0.0,690.0,14.0,0.0
14397,32.0,0.0,690.0,15.0,0.0
14398,64.0,40.0,240.0,12.0,0.0
14399,44.0,40.0,40.0,10.0,0.0
14400,44.0,40.0,40.0,10.0,0.0
14401,44.0,40.0,40.0,10.0,0.0
14402,44.0,40.0,40.0,10.0,0.0
14403,44.0,25.0,40.0,10.0,0.0
14404,44.0,0.0,40.0,10.0,0.0
14405,44.0,28.0,40.0,10.0,0.0
14406,56.0,12.0,60.0,13.0,0.0
14407,44.0,40.0,40.0,10.0,0.0
14408,57.0,12.0,60.0,13.0,0.0
14409,44.0,28.0,40.0,10.0,0.0
14410,44.0,40.0,40.0,10.0,0.0
14411,59.0,12.0,60.0,13.0,0.0
14412,44.0,28.0,40.0,10.0,0.0
14413,44.0,225.0,40.0,10.0,0.0
14414,44.0,0.0,240.0,10.0,0.0
14415,52.0,0.0,240.0,13.0,0.0
14416,64.0,0.0,240.0,11.0,0.0
14417,52.0,240.0,240.0,13.0,0.0
14418,59.0,0.0,210.0,3.0,0.0
14419,54.0,80.0,90.0,14.0,0.0
14420,59.0,15.0,210.0,7.0,0.0
14421,59.0,0.0,210.0,6.0,0.0
14422,59.0,0.0,210.0,4.0,0.0
14423,52.0,65.0,90.0,14.0,0.0
14424,50.0,0.0,90.0,14.0,0.0
14425,58.0,15.0,450.0,4.0,0.0
14426,49.0,68.0,240.0,14.0,0.0
14427,58.0,0.0,450.0,3.0,0.0
14428,64.0,0.0,960.0,11.0,0.0
14429,55.0,0.0,960.0,12.0,0.0
14430,52.0,225.0,960.0,13.0,0.0
14431,58.0,0.0,450.0,6.0,0.0
14432,58.0,0.0,450.0,7.0,0.0
14433,70.0,12.0,60.0,1.0,0.0
14434,52.0,68.0,90.0,14.0,0.0
14435,76.0,0.0,60.0,1.0,0.0
14436,70.0,12.0,60.0,1.0,0.0
14437,76.0,0.0,60.0,1.0,0.0
14438,50.0,65.0,90.0,14.0,0.0
14439,49.0,240.0,90.0,14.0,0.0
14440,70.0,0.0,90.0,1.0,0.0
14441,76.0,0.0,90.0,1.0,0.0
14442,59.0,0.0,450.0,7.0,0.0
14443,59.0,0.0,450.0,4.0,0.0
14444,59.0,0.0,450.0,6.0,0.0
14445,59.0,3.0,450.0,3.0,0.0
14446,47.0,68.0,240.0,14.0,0.0
14447,76.0,12.0,60.0,1.0,0.0
14448,71.0,0.0,60.0,1.0,0.0
14449,50.0,68.0,90.0,14.0,0.0
14450,71.0,12.0,60.0,1.0,0.0
14451,76.0,0.0,60.0,1.0,0.0
14452,49.0,65.0,90.0,14.0,0.0
14453,71.0,0.0,60.0,1.0,0.0
14454,47.0,0.0,60.0,14.0,0.0
14455,76.0,12.0,60.0,1.0,0.0
14456,64.0,83.0,210.0,11.0,0.0
14457,58.0,0.0,1650.0,3.0,0.0
14458,52.0,15.0,1170.0,13.0,0.0
14459,61.0,0.0,1680.0,7.0,0.0
14460,34.0,225.0,960.0,15.0,0.0
14461,73.0,0.0,1680.0,2.0,0.0
14462,64.0,0.0,1680.0,2.0,0.0
14463,55.0,15.0,690.0,12.0,0.0
14464,76.0,0.0,1650.0,0.0,0.0
14465,73.0,0.0,1650.0,0.0,0.0
14466,46.0,0.0,960.0,14.0,0.0
14467,34.0,0.0,1650.0,3.0,0.0
14468,55.0,15.0,1650.0,3.0,0.0
14469,73.0,0.0,1650.0,1.0,0.0
14470,61.0,0.0,1680.0,4.0,0.0
14471,37.0,0.0,1680.0,8.0,0.0
14472,73.0,0.0,1680.0,5.0,0.0
14473,61.0,0.0,1680.0,6.0,0.0
14474,76.0,0.0,1650.0,1.0,0.0
14475,79.0,80.0,60.0,11.0,0.0
14476,80.0,80.0,60.0,11.0,0.0
14477,82.0,237.0,60.0,11.0,0.0
14478,73.0,68.0,240.0,11.0,0.0
14479,70.0,80.0,60.0,12.0,0.0
14480,71.0,80.0,60.0,12.0,0.0
14481,73.0,12.0,60.0,12.0,0.0
14482,67.0,68.0,240.0,12.0,0.0
14483,46.0,0.0,690.0,14.0,0.0
14484,34.0,0.0,690.0,15.0,0.0
14485,58.0,80.0,60.0,13.0,0.0
14486,59.0,80.0,60.0,13.0,0.0
14487,61.0,237.0,60.0,13.0,0.0
14488,55.0,80.0,240.0,13.0,0.0
14489,56.0,80.0,90.0,3.0,0.0
14490,33.0,15.0,210.0,15.0,0.0
14491,68.0,0.0,90.0,1.0,0.0
14492,33.0,0.0,210.0,14.0,0.0
14493,33.0,0.0,210.0,3.0,0.0
14494,80.0,0.0,90.0,0.0,0.0
14495,61.0,45.0,180.0,12.0,0.0
14496,73.0,0.0,180.0,11.0,0.0
14497,66.0,0.0,90.0,1.0,0.0
14498,78.0,20.0,90.0,0.0,0.0
14499,54.0,0.0,90.0,3.0,0.0
14500,76.0,240.0,90.0,0.0,0.0
14501,64.0,0.0,90.0,1.0,0.0
14502,52.0,0.0,90.0,3.0,0.0
14503,63.0,80.0,240.0,1.0,0.0
14504,51.0,0.0,240.0,3.0,0.0
14505,33.0,0.0,930.0,15.0,0.0
14506,75.0,0.0,240.0,0.0,0.0
14507,33.0,0.0,930.0,14.0,0.0
14508,60.0,0.0,360.0,12.0,0.0
14509,72.0,40.0,360.0,11.0,0.0
14510,33.0,0.0,930.0,3.0,0.0
14511,54.0,40.0,90.0,3.0,0.0
14512,78.0,0.0,90.0,0.0,0.0
14513,66.0,0.0,90.0,1.0,0.0
14514,76.0,0.0,90.0,0.0,0.0
14515,64.0,0.0,90.0,1.0,0.0
14516,52.0,80.0,90.0,3.0,0.0
14517,51.0,0.0,90.0,3.0,0.0
14518,63.0,0.0,90.0,1.0,0.0
14519,75.0,240.0,90.0,0.0,0.0
14520,61.0,40.0,360.0,12.0,0.0
14521,73.0,0.0,240.0,0.0,0.0
14522,49.0,0.0,240.0,3.0,0.0
14523,61.0,80.0,240.0,1.0,0.0
14524,73.0,0.0,360.0,11.0,0.0
14525,52.0,0.0,90.0,3.0,0.0
14526,76.0,40.0,90.0,0.0,0.0
14527,73.0,3.0,210.0,5.0,0.0
14528,61.0,0.0,210.0,4.0,0.0
14529,44.0,180.0,240.0,10.0,0.0
14530,64.0,0.0,90.0,1.0,0.0
14531,63.0,65.0,90.0,1.0,0.0
14532,75.0,0.0,90.0,0.0,0.0
14533,51.0,0.0,90.0,3.0,0.0
14534,49.0,0.0,60.0,3.0,0.0
14535,73.0,0.0,60.0,0.0,0.0
14536,61.0,12.0,60.0,1.0,0.0
14537,75.0,0.0,1650.0,11.0,0.0
14538,32.0,180.0,960.0,15.0,0.0
14539,48.0,140.0,180.0,3.0,0.0
14540,60.0,0.0,180.0,1.0,0.0
14541,63.0,135.0,1650.0,12.0,0.0
14542,60.0,68.0,2160.0,6.0,0.0
14543,32.0,15.0,2130.0,3.0,0.0
14544,44.0,180.0,480.0,10.0,0.0
14545,44.0,0.0,2160.0,8.0,0.0
14546,60.0,3.0,450.0,4.0,0.0
14547,72.0,0.0,180.0,0.0,0.0
14548,72.0,0.0,450.0,5.0,0.0
14549,32.0,95.0,690.0,14.0,0.0
14550,51.0,0.0,2160.0,7.0,0.0
14551,84.0,80.0,90.0,0.0,0.0
14552,85.0,65.0,90.0,0.0,0.0
14553,87.0,12.0,60.0,0.0,0.0
14554,80.0,45.0,180.0,0.0,0.0
14555,73.0,3.0,450.0,5.0,0.0
14556,44.0,0.0,480.0,10.0,0.0
14557,61.0,0.0,450.0,4.0,0.0
14558,72.0,80.0,90.0,1.0,0.0
14559,49.0,45.0,180.0,13.0,0.0
14560,49.0,0.0,180.0,14.0,0.0
14561,73.0,20.0,90.0,1.0,0.0
14562,75.0,12.0,60.0,1.0,0.0
14563,68.0,60.0,180.0,1.0,0.0
14564,63.0,0.0,690.0,4.0,0.0
14565,32.0,0.0,1170.0,15.0,0.0
14566,48.0,40.0,360.0,13.0,0.0
14567,75.0,0.0,690.0,5.0,0.0
14568,48.0,0.0,360.0,14.0,0.0
14569,44.0,80.0,240.0,10.0,0.0
14570,60.0,40.0,90.0,3.0,0.0
14571,61.0,68.0,90.0,3.0,0.0
14572,63.0,192.0,60.0,3.0,0.0
14573,49.0,0.0,360.0,14.0,0.0
14574,56.0,45.0,180.0,3.0,0.0
14575,49.0,60.0,360.0,13.0,0.0
14576,61.0,0.0,180.0,12.0,0.0
14577,73.0,60.0,180.0,11.0,0.0
14578,56.0,0.0,240.0,4.0,0.0
14579,56.0,180.0,240.0,5.0,0.0
14580,68.0,0.0,240.0,5.0,0.0
14581,44.0,0.0,240.0,10.0,0.0
14582,44.0,0.0,240.0,4.0,0.0
14583,51.0,45.0,180.0,13.0,0.0
14584,60.0,0.0,690.0,12.0,0.0
14585,51.0,0.0,180.0,14.0,0.0
14586,72.0,15.0,690.0,11.0,0.0
14587,33.0,3.0,210.0,15.0,0.0
14588,68.0,12.0,60.0,5.0,0.0
14589,56.0,0.0,60.0,5.0,0.0
14590,56.0,0.0,60.0,4.0,0.0
14591,44.0,0.0,60.0,4.0,0.0
14592,44.0,68.0,90.0,10.0,0.0
14593,45.0,0.0,180.0,14.0,0.0
14594,45.0,45.0,180.0,13.0,0.0
14595,33.0,0.0,210.0,3.0,0.0
14596,44.0,20.0,90.0,10.0,0.0
14597,44.0,0.0,60.0,4.0,0.0
14598,56.0,0.0,60.0,4.0,0.0
14599,56.0,0.0,60.0,5.0,0.0
14600,68.0,12.0,60.0,5.0,0.0
14601,56.0,12.0,60.0,4.0,0.0
14602,56.0,0.0,60.0,5.0,0.0
14603,68.0,0.0,60.0,5.0,0.0
14604,44.0,225.0,90.0,10.0,0.0
14605,44.0,0.0,60.0,4.0,0.0
14606,44.0,0.0,690.0,13.0,0.0
14607,44.0,0.0,690.0,14.0,0.0
14608,68.0,0.0,240.0,5.0,0.0
14609,44.0,68.0,240.0,10.0,0.0
14610,32.0,15.0,690.0,15.0,0.0
14611,32.0,0.0,690.0,3.0,0.0
14612,44.0,0.0,240.0,4.0,0.0
14613,56.0,0.0,240.0,5.0,0.0
14614,56.0,0.0,240.0,4.0,0.0
14615,63.0,0.0,60.0,2.0,0.0
14616,75.0,0.0,60.0,1.0,0.0
14617,72.0,0.0,60.0,1.0,0.0
14618,63.0,0.0,180.0,12.0,0.0
14619,60.0,0.0,60.0,2.0,0.0
14620,51.0,0.0,60.0,3.0,0.0
14621,44.0,0.0,60.0,3.0,0.0
14622,75.0,48.0,180.0,11.0,0.0
14623,72.0,80.0,60.0,0.0,0.0
14624,60.0,0.0,60.0,2.0,0.0
14625,63.0,0.0,60.0,2.0,0.0
14626,51.0,0.0,60.0,3.0,0.0
14627,44.0,0.0,60.0,3.0,0.0
14628,73.0,32.0,60.0,0.0,0.0
14629,75.0,0.0,60.0,1.0,0.0
14630,72.0,0.0,60.0,1.0,0.0
14631,60.0,237.0,60.0,2.0,0.0
14632,63.0,0.0,60.0,2.0,0.0
14633,44.0,0.0,60.0,3.0,0.0
14634,72.0,0.0,60.0,1.0,0.0
14635,51.0,0.0,60.0,3.0,0.0
14636,75.0,0.0,60.0,0.0,0.0
14637,75.0,0.0,60.0,1.0,0.0
14638,76.0,0.0,240.0,0.0,0.0
14639,44.0,0.0,240.0,8.0,0.0
14640,76.0,68.0,240.0,1.0,0.0
14641,73.0,0.0,690.0,11.0,0.0
14642,64.0,0.0,240.0,2.0,0.0
14643,52.0,0.0,240.0,6.0,0.0
14644,73.0,0.0,240.0,1.0,0.0
14645,61.0,15.0,690.0,12.0,0.0
14646,61.0,0.0,240.0,2.0,0.0
14647,49.0,0.0,240.0,7.0,0.0
14648,52.0,0.0,240.0,3.0,0.0
14649,37.0,0.0,240.0,3.0,0.0
14650,44.0,68.0,90.0,10.0,0.0
14651,27.0,48.0,180.0,3.0,0.0
14652,44.0,12.0,60.0,4.0,0.0
14653,68.0,0.0,60.0,5.0,0.0
14654,39.0,0.0,180.0,14.0,0.0
14655,51.0,0.0,180.0,13.0,0.0
14656,56.0,0.0,60.0,5.0,0.0
14657,27.0,0.0,180.0,15.0,0.0
14658,56.0,0.0,60.0,4.0,0.0
14659,56.0,12.0,60.0,4.0,0.0
14660,44.0,0.0,60.0,4.0,0.0
14661,44.0,20.0,90.0,10.0,0.0
14662,68.0,0.0,60.0,5.0,0.0
14663,56.0,0.0,60.0,5.0,0.0
14664,68.0,0.0,60.0,5.0,0.0
14665,56.0,0.0,60.0,5.0,0.0
14666,44.0,225.0,90.0,10.0,0.0
14667,56.0,12.0,60.0,4.0,0.0
14668,44.0,0.0,60.0,4.0,0.0
14669,37.0,0.0,690.0,14.0,0.0
14670,56.0,0.0,240.0,5.0,0.0
14671,25.0,0.0,690.0,15.0,0.0
14672,25.0,0.0,690.0,3.0,0.0
14673,49.0,15.0,690.0,13.0,0.0
14674,44.0,0.0,240.0,10.0,0.0
14675,56.0,0.0,240.0,4.0,0.0
14676,68.0,68.0,240.0,5.0,0.0
14677,44.0,0.0,240.0,4.0,0.0
14678,64.0,0.0,60.0,2.0,0.0
14679,49.0,0.0,60.0,3.0,0.0
14680,61.0,0.0,60.0,2.0,0.0
14681,76.0,0.0,180.0,11.0,0.0
14682,52.0,80.0,60.0,3.0,0.0
14683,76.0,0.0,60.0,1.0,0.0
14684,73.0,0.0,60.0,1.0,0.0
14685,64.0,48.0,180.0,12.0,0.0
14686,73.0,0.0,60.0,0.0,0.0
14687,76.0,0.0,60.0,1.0,0.0
14688,64.0,0.0,60.0,2.0,0.0
14689,61.0,0.0,60.0,2.0,0.0
14690,73.0,0.0,60.0,1.0,0.0
14691,75.0,32.0,60.0,0.0,0.0
14692,49.0,0.0,60.0,3.0,0.0
14693,52.0,0.0,60.0,3.0,0.0
14694,61.0,0.0,60.0,2.0,0.0
14695,64.0,237.0,60.0,2.0,0.0
14696,76.0,0.0,60.0,0.0,0.0
14697,76.0,0.0,60.0,1.0,0.0
14698,52.0,0.0,60.0,3.0,0.0
14699,49.0,0.0,60.0,3.0,0.0
14700,73.0,0.0,60.0,1.0,0.0
14701,51.0,0.0,240.0,7.0,0.0
14702,75.0,0.0,240.0,1.0,0.0
14703,78.0,0.0,240.0,1.0,0.0
14704,54.0,0.0,240.0,6.0,0.0
14705,66.0,0.0,240.0,2.0,0.0
14706,63.0,0.0,240.0,2.0,0.0
14707,78.0,68.0,240.0,0.0,0.0
14708,75.0,0.0,690.0,11.0,0.0
14709,47.0,0.0,240.0,3.0,0.0
14710,54.0,0.0,240.0,3.0,0.0
14711,63.0,15.0,690.0,12.0,0.0
14712,47.0,0.0,240.0,8.0,0.0
14713,37.0,48.0,180.0,3.0,0.0
14714,49.0,0.0,180.0,14.0,0.0
14715,37.0,0.0,180.0,15.0,0.0
14716,49.0,0.0,180.0,13.0,0.0
14717,39.0,68.0,90.0,10.0,0.0
14718,63.0,12.0,60.0,4.0,0.0
14719,51.0,0.0,60.0,4.0,0.0
14720,63.0,0.0,60.0,5.0,0.0
14721,51.0,0.0,60.0,5.0,0.0
14722,51.0,0.0,60.0,4.0,0.0
14723,63.0,12.0,60.0,4.0,0.0
14724,39.0,20.0,90.0,10.0,0.0
14725,63.0,0.0,60.0,5.0,0.0
14726,51.0,0.0,60.0,5.0,0.0
14727,39.0,225.0,90.0,10.0,0.0
14728,51.0,0.0,60.0,4.0,0.0
14729,63.0,0.0,60.0,4.0,0.0
14730,63.0,12.0,60.0,5.0,0.0
14731,51.0,0.0,60.0,5.0,0.0
14732,47.0,0.0,690.0,13.0,0.0
14733,51.0,68.0,240.0,4.0,0.0
14734,47.0,0.0,690.0,14.0,0.0
14735,63.0,0.0,240.0,4.0,0.0
14736,51.0,0.0,240.0,5.0,0.0
14737,39.0,0.0,240.0,10.0,0.0
14738,35.0,15.0,690.0,3.0,0.0
14739,35.0,0.0,690.0,15.0,0.0
14740,63.0,0.0,240.0,5.0,0.0
14741,47.0,0.0,60.0,3.0,0.0
14742,54.0,0.0,60.0,3.0,0.0
14743,78.0,0.0,60.0,1.0,0.0
14744,63.0,0.0,60.0,2.0,0.0
14745,66.0,80.0,60.0,2.0,0.0
14746,75.0,0.0,60.0,1.0,0.0
14747,66.0,0.0,180.0,12.0,0.0
14748,78.0,48.0,180.0,11.0,0.0
14749,75.0,0.0,60.0,0.0,0.0
14750,78.0,0.0,60.0,1.0,0.0
14751,75.0,0.0,60.0,1.0,0.0
14752,76.0,0.0,60.0,0.0,0.0
14753,63.0,0.0,60.0,2.0,0.0
14754,66.0,0.0,60.0,2.0,0.0
14755,54.0,0.0,60.0,3.0,0.0
14756,47.0,32.0,60.0,3.0,0.0
14757,66.0,0.0,60.0,2.0,0.0
14758,75.0,0.0,60.0,1.0,0.0
14759,63.0,0.0,60.0,2.0,0.0
14760,78.0,0.0,60.0,1.0,0.0
14761,54.0,0.0,60.0,3.0,0.0
14762,78.0,0.0,60.0,0.0,0.0
14763,47.0,237.0,60.0,3.0,0.0
14764,40.0,0.0,240.0,3.0,0.0
14765,76.0,0.0,690.0,11.0,0.0
14766,47.0,0.0,240.0,8.0,0.0
14767,80.0,0.0,240.0,0.0,0.0
14768,68.0,68.0,240.0,2.0,0.0
14769,76.0,0.0,240.0,1.0,0.0
14770,56.0,0.0,240.0,6.0,0.0
14771,80.0,0.0,240.0,1.0,0.0
14772,52.0,0.0,240.0,7.0,0.0
14773,64.0,0.0,240.0,2.0,0.0
14774,64.0,15.0,690.0,12.0,0.0
14775,56.0,0.0,240.0,3.0,0.0
14776,30.0,0.0,180.0,3.0,0.0
14777,44.0,68.0,90.0,10.0,0.0
14778,68.0,12.0,60.0,5.0,0.0
14779,56.0,0.0,60.0,4.0,0.0
14780,44.0,0.0,60.0,4.0,0.0
14781,30.0,0.0,180.0,15.0,0.0
14782,42.0,48.0,180.0,14.0,0.0
14783,54.0,0.0,180.0,13.0,0.0
14784,56.0,0.0,60.0,5.0,0.0
14785,44.0,0.0,60.0,4.0,0.0
14786,56.0,0.0,60.0,4.0,0.0
14787,44.0,20.0,90.0,10.0,0.0
14788,68.0,12.0,60.0,5.0,0.0
14789,56.0,0.0,60.0,5.0,0.0
14790,56.0,0.0,60.0,5.0,0.0
14791,68.0,0.0,60.0,5.0,0.0
14792,44.0,0.0,60.0,4.0,0.0
14793,56.0,12.0,60.0,4.0,0.0
14794,44.0,225.0,90.0,10.0,0.0
14795,52.0,0.0,690.0,13.0,0.0
14796,56.0,68.0,240.0,4.0,0.0
14797,44.0,0.0,240.0,4.0,0.0
14798,28.0,0.0,690.0,3.0,0.0
14799,44.0,0.0,240.0,10.0,0.0
14800,40.0,0.0,690.0,14.0,0.0
14801,68.0,0.0,240.0,5.0,0.0
14802,56.0,0.0,240.0,5.0,0.0
14803,28.0,15.0,690.0,15.0,0.0
14804,80.0,48.0,180.0,11.0,0.0
14805,56.0,0.0,60.0,2.0,0.0
14806,68.0,0.0,180.0,12.0,0.0
14807,76.0,0.0,60.0,0.0,0.0
14808,68.0,80.0,60.0,1.0,0.0
14809,52.0,0.0,60.0,3.0,0.0
14810,56.0,0.0,60.0,2.0,0.0
14811,52.0,0.0,60.0,3.0,0.0
14812,68.0,0.0,60.0,1.0,0.0
14813,78.0,32.0,60.0,0.0,0.0
14814,56.0,0.0,60.0,2.0,0.0
14815,80.0,0.0,60.0,0.0,0.0
14816,68.0,0.0,60.0,1.0,0.0
14817,52.0,237.0,60.0,3.0,0.0
14818,58.0,0.0,240.0,2.0,0.0
14819,55.0,0.0,240.0,2.0,0.0
14820,67.0,0.0,240.0,1.0,0.0
14821,70.0,68.0,240.0,1.0,0.0
14822,51.0,0.0,240.0,3.0,0.0
14823,67.0,15.0,690.0,12.0,0.0
14824,58.0,0.0,240.0,6.0,0.0
14825,82.0,0.0,240.0,0.0,0.0
14826,55.0,0.0,240.0,7.0,0.0
14827,79.0,0.0,690.0,11.0,0.0
14828,51.0,0.0,240.0,8.0,0.0
14829,52.0,0.0,180.0,13.0,0.0
14830,39.0,68.0,90.0,10.0,0.0
14831,52.0,48.0,180.0,14.0,0.0
14832,70.0,12.0,60.0,5.0,0.0
14833,40.0,0.0,180.0,15.0,0.0
14834,63.0,0.0,60.0,5.0,0.0
14835,51.0,0.0,60.0,4.0,0.0
14836,40.0,0.0,180.0,3.0,0.0
14837,63.0,0.0,60.0,4.0,0.0
14838,63.0,12.0,60.0,5.0,0.0
14839,63.0,0.0,60.0,4.0,0.0
14840,70.0,0.0,60.0,5.0,0.0
14841,51.0,0.0,60.0,4.0,0.0
14842,39.0,20.0,90.0,10.0,0.0
14843,70.0,0.0,60.0,5.0,0.0
14844,39.0,225.0,90.0,10.0,0.0
14845,63.0,0.0,60.0,4.0,0.0
14846,63.0,12.0,60.0,5.0,0.0
14847,51.0,0.0,60.0,4.0,0.0
14848,39.0,0.0,690.0,3.0,0.0
14849,70.0,0.0,240.0,5.0,0.0
14850,51.0,0.0,240.0,4.0,0.0
14851,63.0,0.0,240.0,4.0,0.0
14852,51.0,0.0,690.0,13.0,0.0
14853,39.0,68.0,240.0,10.0,0.0
14854,39.0,15.0,690.0,15.0,0.0
14855,63.0,0.0,240.0,5.0,0.0
14856,51.0,0.0,690.0,14.0,0.0
14857,70.0,0.0,180.0,12.0,0.0
14858,79.0,0.0,60.0,0.0,0.0
14859,51.0,0.0,60.0,3.0,0.0
14860,55.0,0.0,60.0,2.0,0.0
14861,70.0,0.0,60.0,1.0,0.0
14862,82.0,48.0,180.0,11.0,0.0
14863,67.0,0.0,60.0,1.0,0.0
14864,58.0,80.0,60.0,2.0,0.0
14865,58.0,0.0,60.0,2.0,0.0
14866,70.0,0.0,60.0,1.0,0.0
14867,55.0,0.0,60.0,2.0,0.0
14868,51.0,0.0,60.0,3.0,0.0
14869,80.0,32.0,60.0,0.0,0.0
14870,67.0,0.0,60.0,1.0,0.0
14871,82.0,0.0,60.0,0.0,0.0
14872,55.0,0.0,60.0,2.0,0.0
14873,58.0,0.0,60.0,2.0,0.0
14874,67.0,0.0,60.0,1.0,0.0
14875,51.0,0.0,60.0,3.0,0.0
14876,70.0,237.0,60.0,1.0,0.0
14877,59.0,68.0,240.0,2.0,0.0
14878,80.0,15.0,690.0,11.0,0.0
14879,56.0,0.0,240.0,2.0,0.0
14880,71.0,0.0,240.0,1.0,0.0
14881,68.0,0.0,240.0,1.0,0.0
14882,56.0,0.0,240.0,7.0,0.0
14883,83.0,0.0,240.0,0.0,0.0
14884,44.0,0.0,240.0,3.0,0.0
14885,59.0,0.0,240.0,6.0,0.0
14886,68.0,0.0,690.0,12.0,0.0
14887,51.0,0.0,240.0,8.0,0.0
14888,68.0,0.0,60.0,5.0,0.0
14889,46.0,0.0,180.0,14.0,0.0
14890,46.0,0.0,180.0,13.0,0.0
14891,44.0,68.0,90.0,10.0,0.0
14892,34.0,0.0,180.0,3.0,0.0
14893,56.0,0.0,60.0,4.0,0.0
14894,44.0,12.0,60.0,4.0,0.0
14895,56.0,0.0,60.0,5.0,0.0
14896,34.0,48.0,180.0,15.0,0.0
14897,68.0,0.0,60.0,5.0,0.0
14898,56.0,0.0,60.0,4.0,0.0
14899,44.0,12.0,60.0,4.0,0.0
14900,56.0,0.0,60.0,5.0,0.0
14901,44.0,20.0,90.0,10.0,0.0
14902,44.0,225.0,90.0,10.0,0.0
14903,44.0,0.0,60.0,4.0,0.0
14904,56.0,0.0,60.0,4.0,0.0
14905,56.0,0.0,60.0,5.0,0.0
14906,68.0,12.0,60.0,5.0,0.0
14907,56.0,0.0,240.0,4.0,0.0
14908,44.0,0.0,240.0,4.0,0.0
14909,44.0,0.0,690.0,13.0,0.0
14910,44.0,15.0,690.0,14.0,0.0
14911,56.0,0.0,240.0,5.0,0.0
14912,32.0,0.0,690.0,15.0,0.0
14913,32.0,0.0,690.0,3.0,0.0
14914,44.0,0.0,240.0,10.0,0.0
14915,68.0,68.0,240.0,5.0,0.0
14916,44.0,0.0,60.0,3.0,0.0
14917,80.0,0.0,60.0,0.0,0.0
14918,56.0,0.0,60.0,2.0,0.0
14919,59.0,0.0,60.0,2.0,0.0
14920,71.0,0.0,180.0,12.0,0.0
14921,83.0,48.0,180.0,11.0,0.0
14922,47.0,0.0,60.0,3.0,0.0
14923,68.0,80.0,60.0,1.0,0.0
14924,71.0,0.0,60.0,1.0,0.0
14925,82.0,0.0,60.0,0.0,0.0
14926,68.0,0.0,60.0,1.0,0.0
14927,71.0,0.0,60.0,1.0,0.0
14928,47.0,32.0,60.0,3.0,0.0
14929,44.0,0.0,60.0,3.0,0.0
14930,59.0,0.0,60.0,2.0,0.0
14931,56.0,0.0,60.0,2.0,0.0
14932,47.0,0.0,60.0,3.0,0.0
14933,68.0,0.0,60.0,1.0,0.0
14934,83.0,237.0,60.0,0.0,0.0
14935,56.0,0.0,60.0,2.0,0.0
14936,59.0,0.0,60.0,2.0,0.0
14937,44.0,0.0,60.0,3.0,0.0
14938,71.0,0.0,60.0,1.0,0.0
14939,61.0,0.0,240.0,2.0,0.0
14940,49.0,0.0,240.0,3.0,0.0
14941,42.0,0.0,240.0,3.0,0.0
14942,85.0,68.0,240.0,0.0,0.0
14943,58.0,0.0,240.0,7.0,0.0
14944,58.0,0.0,240.0,2.0,0.0
14945,70.0,0.0,240.0,1.0,0.0
14946,73.0,0.0,240.0,1.0,0.0
14947,70.0,0.0,690.0,12.0,0.0
14948,82.0,15.0,690.0,11.0,0.0
14949,61.0,0.0,240.0,6.0,0.0
14950,54.0,0.0,240.0,8.0,0.0
14951,44.0,48.0,180.0,15.0,0.0
14952,56.0,0.0,180.0,14.0,0.0
14953,56.0,0.0,180.0,13.0,0.0
14954,44.0,0.0,180.0,3.0,0.0
14955,58.0,0.0,60.0,4.0,0.0
14956,70.0,80.0,60.0,5.0,0.0
14957,58.0,32.0,60.0,4.0,0.0
14958,70.0,0.0,60.0,5.0,0.0
14959,70.0,0.0,60.0,5.0,0.0
14960,58.0,237.0,60.0,4.0,0.0
14961,42.0,15.0,690.0,15.0,0.0
14962,70.0,0.0,240.0,5.0,0.0
14963,58.0,68.0,240.0,4.0,0.0
14964,54.0,0.0,690.0,13.0,0.0
14965,54.0,0.0,690.0,14.0,0.0
14966,58.0,0.0,60.0,2.0,0.0
14967,82.0,80.0,60.0,0.0,0.0
14968,70.0,0.0,60.0,1.0,0.0
14969,61.0,0.0,60.0,2.0,0.0
14970,85.0,48.0,180.0,11.0,0.0
14971,73.0,0.0,180.0,12.0,0.0
14972,73.0,0.0,60.0,1.0,0.0
14973,42.0,0.0,60.0,3.0,0.0
14974,49.0,0.0,60.0,3.0,0.0
14975,83.0,0.0,60.0,0.0,0.0
14976,73.0,0.0,60.0,1.0,0.0
14977,58.0,0.0,60.0,2.0,0.0
14978,70.0,0.0,60.0,1.0,0.0
14979,61.0,0.0,60.0,2.0,0.0
14980,49.0,0.0,60.0,3.0,0.0
14981,42.0,32.0,60.0,3.0,0.0
14982,49.0,0.0,60.0,3.0,0.0
14983,42.0,0.0,60.0,3.0,0.0
14984,58.0,0.0,60.0,2.0,0.0
14985,61.0,0.0,60.0,2.0,0.0
14986,85.0,237.0,60.0,0.0,0.0
14987,70.0,0.0,60.0,1.0,0.0
14988,73.0,0.0,60.0,1.0,0.0
14989,83.0,15.0,690.0,11.0,0.0
14990,75.0,0.0,240.0,1.0,0.0
14991,87.0,0.0,240.0,0.0,0.0
14992,63.0,0.0,240.0,6.0,0.0
14993,47.0,0.0,240.0,3.0,0.0
14994,51.0,0.0,240.0,3.0,0.0
14995,71.0,0.0,690.0,12.0,0.0
14996,59.0,0.0,240.0,2.0,0.0
14997,59.0,68.0,240.0,7.0,0.0
14998,54.0,0.0,240.0,8.0,0.0
14999,71.0,0.0,240.0,1.0,0.0
15000,63.0,0.0,240.0,2.0,0.0
15001,63.0,0.0,60.0,5.0,0.0
15002,51.0,12.0,60.0,4.0,0.0
15003,51.0,0.0,60.0,5.0,0.0
15004,49.0,0.0,180.0,14.0,0.0
15005,49.0,0.0,180.0,13.0,0.0
15006,37.0,0.0,180.0,3.0,0.0
15007,37.0,48.0,180.0,15.0,0.0
15008,63.0,0.0,60.0,4.0,0.0
15009,39.0,68.0,90.0,10.0,0.0
15010,39.0,20.0,90.0,10.0,0.0
15011,51.0,0.0,60.0,4.0,0.0
15012,51.0,0.0,60.0,5.0,0.0
15013,63.0,12.0,60.0,5.0,0.0
15014,63.0,0.0,60.0,4.0,0.0
15015,51.0,0.0,60.0,4.0,0.0
15016,39.0,180.0,90.0,10.0,0.0
15017,63.0,12.0,60.0,4.0,0.0
15018,63.0,0.0,60.0,5.0,0.0
15019,51.0,0.0,60.0,5.0,0.0
15020,47.0,0.0,180.0,14.0,0.0
15021,39.0,0.0,240.0,10.0,0.0
15022,63.0,68.0,240.0,5.0,0.0
15023,63.0,0.0,240.0,4.0,0.0
15024,51.0,0.0,240.0,5.0,0.0
15025,51.0,0.0,240.0,4.0,0.0
15026,35.0,45.0,180.0,3.0,0.0
15027,35.0,0.0,180.0,15.0,0.0
15028,47.0,0.0,180.0,13.0,0.0
15029,83.0,0.0,60.0,0.0,0.0
15030,71.0,0.0,60.0,1.0,0.0
15031,63.0,0.0,60.0,2.0,0.0
15032,59.0,0.0,180.0,14.0,0.0
15033,47.0,0.0,180.0,15.0,0.0
15034,59.0,80.0,60.0,2.0,0.0
15035,75.0,0.0,60.0,1.0,0.0
15036,59.0,0.0,180.0,13.0,0.0
15037,75.0,0.0,180.0,12.0,0.0
15038,87.0,60.0,180.0,11.0,0.0
15039,51.0,0.0,60.0,3.0,0.0
15040,47.0,0.0,60.0,3.0,0.0
15041,63.0,32.0,60.0,2.0,0.0
15042,59.0,0.0,60.0,2.0,0.0
15043,85.0,0.0,60.0,0.0,0.0
15044,75.0,0.0,60.0,1.0,0.0
15045,71.0,0.0,60.0,1.0,0.0
15046,47.0,0.0,60.0,3.0,0.0
15047,51.0,0.0,60.0,3.0,0.0
15048,47.0,0.0,20.0,3.0,0.0
15049,59.0,0.0,90.0,2.0,0.0
15050,51.0,68.0,90.0,3.0,0.0
15051,63.0,0.0,90.0,2.0,0.0
15052,71.0,0.0,90.0,1.0,0.0
15053,75.0,0.0,90.0,1.0,0.0
15054,87.0,0.0,90.0,0.0,0.0
15055,68.0,0.0,60.0,13.0,0.0
15056,58.0,3.0,1890.0,7.0,0.0
15057,70.0,0.0,1890.0,6.0,0.0
15058,46.0,0.0,60.0,15.0,0.0
15059,74.0,0.0,60.0,12.0,0.0
15060,58.0,0.0,60.0,13.0,0.0
15061,65.0,0.0,60.0,12.0,0.0
15062,46.0,0.0,60.0,3.0,0.0
15063,58.0,0.0,60.0,14.0,0.0
15064,86.0,80.0,60.0,11.0,0.0
15065,74.0,0.0,60.0,12.0,0.0
15066,58.0,0.0,60.0,13.0,0.0
15067,86.0,0.0,60.0,11.0,0.0
15068,58.0,0.0,60.0,14.0,0.0
15069,46.0,0.0,60.0,3.0,0.0
15070,68.0,0.0,60.0,13.0,0.0
15071,46.0,80.0,60.0,15.0,0.0
15072,65.0,0.0,60.0,12.0,0.0
15073,68.0,0.0,60.0,13.0,0.0
15074,46.0,0.0,60.0,3.0,0.0
15075,58.0,0.0,60.0,13.0,0.0
15076,58.0,0.0,60.0,14.0,0.0
15077,46.0,80.0,60.0,15.0,0.0
15078,74.0,0.0,60.0,12.0,0.0
15079,65.0,0.0,60.0,12.0,0.0
15080,86.0,0.0,60.0,11.0,0.0
15081,68.0,0.0,60.0,13.0,0.0
15082,58.0,0.0,60.0,13.0,0.0
15083,86.0,80.0,60.0,11.0,0.0
15084,46.0,0.0,60.0,15.0,0.0
15085,58.0,0.0,60.0,4.0,0.0
15086,74.0,0.0,60.0,1.0,0.0
15087,58.0,0.0,60.0,3.0,0.0
15088,70.0,0.0,60.0,5.0,0.0
15089,58.0,0.0,60.0,14.0,0.0
15090,65.0,0.0,60.0,12.0,0.0
15091,74.0,0.0,60.0,12.0,0.0
15092,65.0,0.0,60.0,2.0,0.0
15093,68.0,0.0,60.0,2.0,0.0
15094,82.0,0.0,60.0,0.0,0.0
15095,46.0,0.0,60.0,3.0,0.0
15096,46.0,0.0,60.0,3.0,0.0
15097,74.0,0.0,60.0,1.0,0.0
15098,58.0,0.0,60.0,14.0,0.0
15099,65.0,0.0,60.0,12.0,0.0
15100,74.0,0.0,60.0,12.0,0.0
15101,58.0,0.0,60.0,3.0,0.0
15102,70.0,0.0,60.0,5.0,0.0
15103,68.0,0.0,60.0,2.0,0.0
15104,46.0,0.0,60.0,15.0,0.0
15105,86.0,0.0,60.0,11.0,0.0
15106,65.0,0.0,60.0,2.0,0.0
15107,68.0,80.0,60.0,13.0,0.0
15108,58.0,0.0,60.0,13.0,0.0
15109,58.0,0.0,60.0,4.0,0.0
15110,84.0,0.0,60.0,0.0,0.0
15111,58.0,0.0,60.0,14.0,0.0
15112,46.0,0.0,60.0,15.0,0.0
15113,65.0,12.0,60.0,12.0,0.0
15114,86.0,0.0,60.0,11.0,0.0
15115,74.0,0.0,90.0,1.0,0.0
15116,58.0,0.0,90.0,4.0,0.0
15117,68.0,0.0,60.0,13.0,0.0
15118,58.0,0.0,60.0,13.0,0.0
15119,70.0,0.0,90.0,5.0,0.0
15120,65.0,68.0,90.0,2.0,0.0
15121,74.0,0.0,60.0,12.0,0.0
15122,46.0,0.0,60.0,3.0,0.0
15123,86.0,0.0,90.0,0.0,0.0
15124,68.0,0.0,90.0,2.0,0.0
15125,58.0,0.0,90.0,3.0,0.0
15126,65.0,0.0,60.0,12.0,0.0
15127,74.0,0.0,60.0,12.0,0.0
15128,58.0,80.0,60.0,14.0,0.0
15129,46.0,0.0,60.0,15.0,0.0
15130,58.0,0.0,60.0,13.0,0.0
15131,86.0,0.0,60.0,11.0,0.0
15132,68.0,0.0,60.0,13.0,0.0
15133,46.0,0.0,60.0,3.0,0.0
15134,58.0,80.0,60.0,14.0,0.0
15135,58.0,0.0,60.0,13.0,0.0
15136,65.0,0.0,60.0,12.0,0.0
15137,74.0,0.0,60.0,12.0,0.0
15138,86.0,0.0,60.0,11.0,0.0
15139,46.0,0.0,60.0,3.0,0.0
15140,46.0,0.0,60.0,15.0,0.0
15141,68.0,0.0,60.0,13.0,0.0
15142,68.0,0.0,60.0,13.0,0.0
15143,58.0,80.0,60.0,13.0,0.0
15144,46.0,0.0,60.0,3.0,0.0
15145,86.0,0.0,60.0,11.0,0.0
15146,65.0,0.0,60.0,12.0,0.0
15147,58.0,0.0,60.0,14.0,0.0
15148,74.0,0.0,60.0,12.0,0.0
15149,46.0,0.0,60.0,15.0,0.0
15150,58.0,0.0,60.0,14.0,0.0
15151,68.0,0.0,60.0,2.0,0.0
15152,86.0,0.0,60.0,11.0,0.0
15153,82.0,0.0,60.0,0.0,0.0
15154,70.0,0.0,60.0,5.0,0.0
15155,58.0,0.0,60.0,3.0,0.0
15156,46.0,0.0,60.0,3.0,0.0
15157,65.0,0.0,60.0,2.0,0.0
15158,74.0,0.0,60.0,1.0,0.0
15159,46.0,0.0,60.0,15.0,0.0
15160,58.0,0.0,60.0,13.0,0.0
15161,68.0,0.0,60.0,13.0,0.0
15162,74.0,0.0,60.0,12.0,0.0
15163,65.0,0.0,60.0,12.0,0.0
15164,58.0,80.0,60.0,4.0,0.0
15165,70.0,0.0,60.0,5.0,0.0
15166,74.0,0.0,60.0,1.0,0.0
15167,58.0,0.0,60.0,3.0,0.0
15168,84.0,0.0,60.0,0.0,0.0
15169,65.0,0.0,60.0,2.0,0.0
15170,68.0,0.0,60.0,2.0,0.0
15171,46.0,0.0,60.0,15.0,0.0
15172,58.0,0.0,60.0,4.0,0.0
15173,58.0,0.0,60.0,13.0,0.0
15174,68.0,0.0,60.0,13.0,0.0
15175,86.0,0.0,60.0,11.0,0.0
15176,46.0,0.0,60.0,3.0,0.0
15177,65.0,0.0,60.0,12.0,0.0
15178,74.0,0.0,60.0,12.0,0.0
15179,58.0,0.0,60.0,14.0,0.0
15180,58.0,0.0,90.0,4.0,0.0
15181,65.0,0.0,90.0,2.0,0.0
15182,68.0,0.0,90.0,2.0,0.0
15183,65.0,0.0,60.0,12.0,0.0
15184,68.0,0.0,60.0,13.0,0.0
15185,74.0,12.0,60.0,12.0,0.0
15186,58.0,0.0,60.0,13.0,0.0
15187,58.0,0.0,60.0,14.0,0.0
15188,86.0,0.0,60.0,11.0,0.0
15189,46.0,0.0,60.0,15.0,0.0
15190,58.0,0.0,90.0,3.0,0.0
15191,70.0,0.0,90.0,5.0,0.0
15192,86.0,0.0,90.0,0.0,0.0
15193,74.0,68.0,90.0,1.0,0.0
15194,46.0,0.0,60.0,3.0,0.0
15195,74.0,80.0,60.0,12.0,0.0
15196,46.0,0.0,60.0,3.0,0.0
15197,46.0,0.0,60.0,15.0,0.0
15198,58.0,0.0,60.0,14.0,0.0
15199,86.0,0.0,60.0,11.0,0.0
15200,58.0,0.0,60.0,13.0,0.0
15201,68.0,0.0,60.0,13.0,0.0
15202,65.0,0.0,60.0,12.0,0.0
15203,46.0,0.0,60.0,15.0,0.0
15204,68.0,0.0,60.0,13.0,0.0
15205,58.0,0.0,60.0,13.0,0.0
15206,65.0,80.0,60.0,12.0,0.0
15207,46.0,0.0,60.0,3.0,0.0
15208,74.0,0.0,60.0,12.0,0.0
15209,86.0,0.0,60.0,11.0,0.0
15210,58.0,0.0,60.0,14.0,0.0
15211,74.0,0.0,60.0,12.0,0.0
15212,46.0,0.0,60.0,3.0,0.0
15213,68.0,0.0,60.0,13.0,0.0
15214,65.0,80.0,60.0,12.0,0.0
15215,58.0,0.0,60.0,13.0,0.0
15216,86.0,0.0,60.0,11.0,0.0
15217,46.0,0.0,60.0,15.0,0.0
15218,58.0,0.0,60.0,14.0,0.0
15219,46.0,0.0,60.0,15.0,0.0
15220,86.0,0.0,60.0,11.0,0.0
15221,65.0,0.0,60.0,12.0,0.0
15222,74.0,0.0,60.0,12.0,0.0
15223,65.0,0.0,60.0,2.0,0.0
15224,58.0,0.0,60.0,4.0,0.0
15225,82.0,80.0,60.0,0.0,0.0
15226,58.0,0.0,60.0,14.0,0.0
15227,70.0,0.0,60.0,5.0,0.0
15228,46.0,0.0,60.0,3.0,0.0
15229,58.0,0.0,60.0,3.0,0.0
15230,74.0,0.0,60.0,1.0,0.0
15231,68.0,0.0,60.0,2.0,0.0
15232,58.0,0.0,60.0,13.0,0.0
15233,68.0,0.0,60.0,13.0,0.0
15234,58.0,0.0,60.0,14.0,0.0
15235,58.0,0.0,60.0,3.0,0.0
15236,68.0,0.0,60.0,13.0,0.0
15237,74.0,0.0,60.0,1.0,0.0
15238,84.0,0.0,60.0,0.0,0.0
15239,58.0,0.0,60.0,13.0,0.0
15240,46.0,0.0,60.0,3.0,0.0
15241,74.0,0.0,60.0,12.0,0.0
15242,58.0,0.0,60.0,4.0,0.0
15243,65.0,0.0,60.0,12.0,0.0
15244,46.0,0.0,60.0,15.0,0.0
15245,68.0,0.0,60.0,2.0,0.0
15246,65.0,0.0,60.0,2.0,0.0
15247,86.0,0.0,60.0,11.0,0.0
15248,70.0,80.0,60.0,5.0,0.0
15249,46.0,0.0,60.0,15.0,0.0
15250,58.0,68.0,90.0,3.0,0.0
15251,74.0,0.0,60.0,12.0,0.0
15252,74.0,0.0,90.0,1.0,0.0
15253,58.0,12.0,60.0,13.0,0.0
15254,68.0,0.0,60.0,13.0,0.0
15255,65.0,0.0,60.0,12.0,0.0
15256,86.0,0.0,90.0,0.0,0.0
15257,46.0,0.0,60.0,3.0,0.0
15258,58.0,0.0,60.0,14.0,0.0
15259,68.0,0.0,90.0,2.0,0.0
15260,58.0,0.0,90.0,4.0,0.0
15261,70.0,0.0,90.0,5.0,0.0
15262,65.0,0.0,90.0,2.0,0.0
15263,86.0,0.0,60.0,11.0,0.0
15264,58.0,0.0,60.0,14.0,0.0
15265,46.0,0.0,60.0,15.0,0.0
15266,65.0,0.0,60.0,12.0,0.0
15267,86.0,80.0,60.0,11.0,0.0
15268,74.0,0.0,60.0,12.0,0.0
15269,58.0,0.0,60.0,13.0,0.0
15270,68.0,0.0,60.0,13.0,0.0
15271,46.0,0.0,60.0,3.0,0.0
15272,58.0,0.0,60.0,13.0,0.0
15273,68.0,0.0,60.0,13.0,0.0
15274,58.0,0.0,60.0,14.0,0.0
15275,65.0,0.0,60.0,12.0,0.0
15276,46.0,0.0,60.0,15.0,0.0
15277,74.0,0.0,60.0,12.0,0.0
15278,46.0,0.0,60.0,3.0,0.0
15279,86.0,80.0,60.0,11.0,0.0
15280,46.0,0.0,60.0,3.0,0.0
15281,58.0,0.0,60.0,14.0,0.0
15282,86.0,0.0,60.0,11.0,0.0
15283,58.0,0.0,60.0,13.0,0.0
15284,68.0,0.0,60.0,13.0,0.0
15285,46.0,0.0,60.0,15.0,0.0
15286,65.0,80.0,60.0,12.0,0.0
15287,74.0,0.0,60.0,12.0,0.0
15288,58.0,0.0,60.0,4.0,0.0
15289,68.0,0.0,60.0,2.0,0.0
15290,82.0,0.0,60.0,0.0,0.0
15291,65.0,0.0,60.0,2.0,0.0
15292,65.0,0.0,60.0,12.0,0.0
15293,74.0,0.0,60.0,1.0,0.0
15294,74.0,0.0,60.0,12.0,0.0
15295,58.0,0.0,60.0,3.0,0.0
15296,46.0,80.0,60.0,15.0,0.0
15297,70.0,0.0,60.0,5.0,0.0
15298,58.0,0.0,60.0,13.0,0.0
15299,68.0,0.0,60.0,13.0,0.0
15300,86.0,0.0,60.0,11.0,0.0
15301,58.0,0.0,60.0,14.0,0.0
15302,46.0,0.0,60.0,3.0,0.0
15303,58.0,0.0,60.0,4.0,0.0
15304,86.0,0.0,60.0,11.0,0.0
15305,46.0,0.0,60.0,15.0,0.0
15306,74.0,0.0,60.0,12.0,0.0
15307,68.0,0.0,60.0,2.0,0.0
15308,65.0,0.0,60.0,12.0,0.0
15309,74.0,0.0,60.0,1.0,0.0
15310,58.0,0.0,60.0,14.0,0.0
15311,70.0,0.0,60.0,5.0,0.0
15312,65.0,0.0,60.0,2.0,0.0
15313,58.0,77.0,60.0,3.0,0.0
15314,58.0,0.0,60.0,13.0,0.0
15315,84.0,0.0,60.0,0.0,0.0
15316,68.0,0.0,60.0,13.0,0.0
15317,46.0,0.0,60.0,3.0,0.0
15318,46.0,0.0,60.0,15.0,0.0
15319,70.0,0.0,60.0,5.0,0.0
15320,58.0,0.0,60.0,13.0,0.0
15321,68.0,0.0,60.0,13.0,0.0
15322,74.0,0.0,60.0,12.0,0.0
15323,65.0,0.0,60.0,12.0,0.0
15324,58.0,0.0,60.0,14.0,0.0
15325,68.0,80.0,60.0,2.0,0.0
15326,65.0,0.0,60.0,2.0,0.0
15327,58.0,0.0,60.0,4.0,0.0
15328,86.0,0.0,60.0,0.0,0.0
15329,74.0,0.0,60.0,1.0,0.0
15330,58.0,0.0,60.0,3.0,0.0
15331,86.0,0.0,60.0,11.0,0.0
15332,46.0,0.0,60.0,3.0,0.0
15333,39.0,0.0,240.0,8.0,0.0
15334,27.0,0.0,960.0,15.0,0.0
15335,63.0,0.0,240.0,5.0,0.0
15336,75.0,0.0,690.0,1.0,0.0
15337,63.0,0.0,690.0,1.0,0.0
15338,87.0,0.0,60.0,11.0,0.0
15339,75.0,80.0,60.0,11.0,0.0
15340,51.0,0.0,240.0,7.0,0.0
15341,63.0,0.0,690.0,2.0,0.0
15342,51.0,68.0,240.0,4.0,0.0
15343,51.0,0.0,240.0,5.0,0.0
15344,27.0,0.0,1890.0,3.0,0.0
15345,87.0,0.0,690.0,0.0,0.0
15346,75.0,0.0,690.0,0.0,0.0
15347,39.0,0.0,240.0,10.0,0.0
15348,63.0,3.0,690.0,3.0,0.0
15349,63.0,0.0,240.0,6.0,0.0
15350,58.0,0.0,240.0,4.0,0.0
15351,75.0,0.0,690.0,12.0,0.0
15352,51.0,0.0,690.0,13.0,0.0
15353,51.0,0.0,690.0,3.0,0.0
15354,67.0,0.0,690.0,12.0,0.0
15355,39.0,68.0,960.0,14.0,0.0
15356,75.0,0.0,60.0,11.0,0.0
15357,87.0,80.0,60.0,11.0,0.0
15358,75.0,12.0,60.0,11.0,0.0
15359,87.0,0.0,60.0,11.0,0.0
15360,75.0,80.0,60.0,11.0,0.0
15361,87.0,0.0,60.0,11.0,0.0
15362,87.0,80.0,60.0,11.0,0.0
15363,75.0,0.0,60.0,11.0,0.0
15364,75.0,0.0,60.0,11.0,0.0
15365,87.0,80.0,60.0,11.0,0.0
15366,75.0,80.0,60.0,11.0,0.0
15367,87.0,0.0,60.0,11.0,0.0
15368,87.0,0.0,60.0,11.0,0.0
15369,75.0,77.0,60.0,11.0,0.0
15370,87.0,0.0,60.0,11.0,0.0
15371,75.0,80.0,60.0,11.0,0.0
15372,75.0,80.0,60.0,11.0,0.0
15373,56.0,0.0,210.0,3.0,0.0
15374,75.0,0.0,60.0,12.0,0.0
15375,63.0,0.0,60.0,13.0,0.0
15376,68.0,0.0,210.0,2.0,0.0
15377,44.0,0.0,210.0,3.0,0.0
15378,80.0,0.0,210.0,1.0,0.0
15379,87.0,0.0,60.0,11.0,0.0
15380,68.0,0.0,210.0,1.0,0.0
15381,80.0,0.0,210.0,0.0,0.0
15382,68.0,3.0,210.0,0.0,0.0
15383,61.0,0.0,60.0,13.0,0.0
15384,73.0,77.0,60.0,12.0,0.0
15385,87.0,0.0,60.0,11.0,0.0
15386,75.0,0.0,60.0,11.0,0.0
15387,60.0,0.0,60.0,13.0,0.0
15388,72.0,12.0,60.0,12.0,0.0
15389,75.0,0.0,60.0,11.0,0.0
15390,87.0,0.0,60.0,11.0,0.0
15391,87.0,0.0,60.0,11.0,0.0
15392,75.0,80.0,60.0,11.0,0.0
15393,67.0,0.0,450.0,2.0,0.0
15394,55.0,3.0,450.0,3.0,0.0
15395,67.0,0.0,450.0,0.0,0.0
15396,70.0,0.0,60.0,12.0,0.0
15397,43.0,0.0,450.0,3.0,0.0
15398,58.0,0.0,60.0,13.0,0.0
15399,67.0,0.0,450.0,1.0,0.0
15400,39.0,0.0,930.0,14.0,0.0
15401,79.0,0.0,450.0,0.0,0.0
15402,27.0,3.0,930.0,15.0,0.0
15403,79.0,0.0,450.0,1.0,0.0
15404,69.0,80.0,60.0,12.0,0.0
15405,57.0,0.0,60.0,13.0,0.0
15406,87.0,0.0,60.0,11.0,0.0
15407,75.0,0.0,60.0,11.0,0.0
15408,70.0,0.0,60.0,12.0,0.0
15409,75.0,0.0,60.0,11.0,0.0
15410,87.0,0.0,60.0,11.0,0.0
15411,58.0,80.0,60.0,13.0,0.0
15412,75.0,0.0,60.0,11.0,0.0
15413,73.0,0.0,60.0,12.0,0.0
15414,87.0,0.0,60.0,11.0,0.0
15415,61.0,80.0,60.0,13.0,0.0
15416,87.0,0.0,60.0,11.0,0.0
15417,75.0,0.0,60.0,11.0,0.0
15418,72.0,0.0,60.0,12.0,0.0
15419,60.0,77.0,60.0,13.0,0.0
15420,70.0,0.0,60.0,12.0,0.0
15421,75.0,0.0,60.0,11.0,0.0
15422,87.0,0.0,60.0,11.0,0.0
15423,58.0,80.0,60.0,13.0,0.0
15424,80.0,0.0,450.0,0.0,0.0
15425,68.0,0.0,450.0,0.0,0.0
15426,87.0,0.0,60.0,11.0,0.0
15427,68.0,0.0,450.0,2.0,0.0
15428,80.0,0.0,450.0,1.0,0.0
15429,68.0,0.0,60.0,12.0,0.0
15430,75.0,80.0,60.0,11.0,0.0
15431,68.0,0.0,450.0,1.0,0.0
15432,56.0,0.0,450.0,3.0,0.0
15433,44.0,0.0,450.0,3.0,0.0
15434,56.0,0.0,60.0,13.0,0.0
15435,75.0,0.0,60.0,11.0,0.0
15436,87.0,80.0,60.0,11.0,0.0
15437,67.0,0.0,60.0,12.0,0.0
15438,55.0,0.0,60.0,13.0,0.0
15439,75.0,0.0,60.0,11.0,0.0
15440,56.0,0.0,60.0,13.0,0.0
15441,68.0,80.0,60.0,12.0,0.0
15442,87.0,0.0,60.0,11.0,0.0
15443,87.0,0.0,60.0,11.0,0.0
15444,75.0,80.0,60.0,11.0,0.0
15445,60.0,0.0,60.0,13.0,0.0
15446,72.0,0.0,60.0,12.0,0.0
15447,58.0,77.0,60.0,13.0,0.0
15448,87.0,0.0,60.0,11.0,0.0
15449,75.0,0.0,60.0,11.0,0.0
15450,70.0,0.0,60.0,12.0,0.0
15451,87.0,0.0,60.0,11.0,0.0
15452,75.0,80.0,60.0,11.0,0.0
15453,68.0,0.0,60.0,12.0,0.0
15454,56.0,0.0,60.0,13.0,0.0
15455,51.0,68.0,240.0,8.0,0.0
15456,51.0,0.0,240.0,4.0,0.0
15457,63.0,0.0,240.0,4.0,0.0
15458,39.0,0.0,240.0,10.0,0.0
15459,27.0,0.0,1890.0,3.0,0.0
15460,70.0,0.0,690.0,0.0,0.0
15461,58.0,0.0,690.0,3.0,0.0
15462,82.0,0.0,690.0,1.0,0.0
15463,70.0,3.0,690.0,2.0,0.0
15464,39.0,0.0,960.0,14.0,0.0
15465,55.0,0.0,60.0,13.0,0.0
15466,27.0,68.0,960.0,15.0,0.0
15467,67.0,0.0,60.0,12.0,0.0
15468,46.0,0.0,690.0,3.0,0.0
15469,55.0,0.0,240.0,7.0,0.0
15470,63.0,0.0,240.0,5.0,0.0
15471,87.0,80.0,60.0,11.0,0.0
15472,75.0,0.0,60.0,11.0,0.0
15473,70.0,0.0,690.0,1.0,0.0
15474,51.0,0.0,240.0,5.0,0.0
15475,58.0,0.0,240.0,6.0,0.0
15476,65.0,0.0,60.0,12.0,0.0
15477,53.0,0.0,60.0,13.0,0.0
15478,87.0,80.0,60.0,11.0,0.0
15479,75.0,0.0,60.0,11.0,0.0
15480,75.0,12.0,60.0,11.0,0.0
15481,67.0,0.0,60.0,12.0,0.0
15482,55.0,0.0,60.0,13.0,0.0
15483,87.0,0.0,60.0,11.0,0.0
15484,87.0,12.0,60.0,11.0,0.0
15485,70.0,0.0,60.0,12.0,0.0
15486,82.0,68.0,90.0,0.0,0.0
15487,75.0,0.0,60.0,11.0,0.0
15488,58.0,0.0,60.0,13.0,0.0
15489,75.0,12.0,60.0,11.0,0.0
15490,87.0,0.0,60.0,11.0,0.0
15491,68.0,0.0,60.0,12.0,0.0
15492,84.0,68.0,90.0,0.0,0.0
15493,56.0,0.0,60.0,13.0,0.0
15494,67.0,80.0,60.0,12.0,0.0
15495,87.0,0.0,60.0,11.0,0.0
15496,75.0,0.0,60.0,11.0,0.0
15497,55.0,0.0,60.0,13.0,0.0
15498,86.0,0.0,60.0,0.0,0.0
15499,51.0,80.0,60.0,13.0,0.0
15500,75.0,0.0,60.0,11.0,0.0
15501,87.0,68.0,240.0,0.0,0.0
15502,87.0,0.0,60.0,11.0,0.0
15503,63.0,0.0,60.0,12.0,0.0
15504,75.0,0.0,60.0,11.0,0.0
15505,87.0,0.0,60.0,11.0,0.0
15506,73.0,77.0,60.0,12.0,0.0
15507,61.0,0.0,60.0,13.0,0.0
15508,87.0,0.0,60.0,11.0,0.0
15509,75.0,12.0,60.0,11.0,0.0
15510,63.0,0.0,60.0,13.0,0.0
15511,75.0,0.0,60.0,12.0,0.0
15512,82.0,0.0,210.0,0.0,0.0
15513,87.0,0.0,60.0,11.0,0.0
15514,70.0,0.0,210.0,1.0,0.0
15515,79.0,0.0,210.0,0.0,0.0
15516,77.0,80.0,60.0,12.0,0.0
15517,55.0,0.0,210.0,2.0,0.0
15518,58.0,0.0,210.0,2.0,0.0
15519,75.0,0.0,60.0,11.0,0.0
15520,67.0,0.0,210.0,1.0,0.0
15521,65.0,0.0,60.0,13.0,0.0
15522,46.0,3.0,210.0,3.0,0.0
15523,43.0,0.0,210.0,3.0,0.0
15524,63.0,77.0,60.0,13.0,0.0
15525,75.0,0.0,60.0,12.0,0.0
15526,87.0,0.0,60.0,11.0,0.0
15527,75.0,0.0,60.0,11.0,0.0
15528,61.0,12.0,60.0,13.0,0.0
15529,75.0,0.0,60.0,11.0,0.0
15530,87.0,0.0,60.0,11.0,0.0
15531,73.0,0.0,60.0,12.0,0.0
15532,56.0,0.0,450.0,2.0,0.0
15533,73.0,0.0,60.0,12.0,0.0
15534,39.0,0.0,930.0,14.0,0.0
15535,65.0,0.0,450.0,1.0,0.0
15536,44.0,0.0,450.0,3.0,0.0
15537,68.0,0.0,450.0,1.0,0.0
15538,53.0,3.0,450.0,2.0,0.0
15539,80.0,0.0,450.0,0.0,0.0
15540,77.0,0.0,450.0,0.0,0.0
15541,27.0,0.0,930.0,15.0,0.0
15542,61.0,0.0,60.0,13.0,0.0
15543,87.0,80.0,60.0,11.0,0.0
15544,75.0,0.0,60.0,11.0,0.0
15545,41.0,0.0,450.0,3.0,0.0
15546,72.0,0.0,60.0,12.0,0.0
15547,87.0,0.0,60.0,11.0,0.0
15548,60.0,80.0,60.0,13.0,0.0
15549,75.0,0.0,60.0,11.0,0.0
15550,73.0,80.0,60.0,12.0,0.0
15551,75.0,0.0,60.0,11.0,0.0
15552,87.0,0.0,60.0,11.0,0.0
15553,61.0,0.0,60.0,13.0,0.0
15554,75.0,0.0,60.0,12.0,0.0
15555,63.0,80.0,60.0,13.0,0.0
15556,75.0,0.0,60.0,11.0,0.0
15557,87.0,0.0,60.0,11.0,0.0
15558,73.0,77.0,60.0,12.0,0.0
15559,61.0,0.0,60.0,13.0,0.0
15560,87.0,0.0,60.0,11.0,0.0
15561,75.0,0.0,60.0,11.0,0.0
15562,60.0,80.0,60.0,13.0,0.0
15563,75.0,0.0,60.0,11.0,0.0
15564,87.0,0.0,60.0,11.0,0.0
15565,72.0,0.0,60.0,12.0,0.0
15566,87.0,0.0,60.0,11.0,0.0
15567,70.0,0.0,450.0,1.0,0.0
15568,67.0,0.0,450.0,1.0,0.0
15569,46.0,0.0,450.0,3.0,0.0
15570,60.0,0.0,60.0,13.0,0.0
15571,43.0,0.0,450.0,3.0,0.0
15572,58.0,0.0,450.0,2.0,0.0
15573,55.0,0.0,450.0,2.0,0.0
15574,72.0,80.0,60.0,12.0,0.0
15575,82.0,0.0,450.0,0.0,0.0
15576,75.0,0.0,60.0,11.0,0.0
15577,79.0,3.0,450.0,0.0,0.0
15578,87.0,0.0,60.0,11.0,0.0
15579,58.0,80.0,60.0,13.0,0.0
15580,70.0,0.0,60.0,12.0,0.0
15581,75.0,0.0,60.0,11.0,0.0
15582,87.0,80.0,60.0,11.0,0.0
15583,75.0,0.0,60.0,11.0,0.0
15584,60.0,0.0,60.0,13.0,0.0
15585,72.0,0.0,60.0,12.0,0.0
15586,61.0,0.0,60.0,13.0,0.0
15587,75.0,0.0,60.0,11.0,0.0
15588,87.0,80.0,60.0,11.0,0.0
15589,73.0,0.0,60.0,12.0,0.0
15590,72.0,77.0,60.0,12.0,0.0
15591,87.0,0.0,60.0,11.0,0.0
15592,60.0,0.0,60.0,13.0,0.0
15593,75.0,0.0,60.0,11.0,0.0
15594,75.0,80.0,60.0,11.0,0.0
15595,70.0,0.0,60.0,12.0,0.0
15596,58.0,0.0,60.0,13.0,0.0
15597,87.0,0.0,60.0,11.0,0.0
15598,60.0,68.0,240.0,6.0,0.0
15599,39.0,80.0,540.0,14.0,0.0
15600,39.0,0.0,240.0,10.0,0.0
15601,58.0,0.0,60.0,13.0,0.0
15602,56.0,0.0,240.0,7.0,0.0
15603,27.0,68.0,960.0,15.0,0.0
15604,44.0,0.0,690.0,3.0,0.0
15605,51.0,0.0,240.0,8.0,0.0
15606,68.0,0.0,690.0,1.0,0.0
15607,63.0,0.0,240.0,5.0,0.0
15608,63.0,0.0,240.0,4.0,0.0
15609,51.0,0.0,240.0,4.0,0.0
15610,80.0,3.0,690.0,0.0,0.0
15611,51.0,0.0,240.0,5.0,0.0
15612,72.0,0.0,690.0,1.0,0.0
15613,48.0,0.0,690.0,3.0,0.0
15614,75.0,0.0,60.0,11.0,0.0
15615,27.0,0.0,1890.0,3.0,0.0
15616,60.0,0.0,690.0,2.0,0.0
15617,70.0,0.0,60.0,12.0,0.0
15618,56.0,0.0,690.0,2.0,0.0
15619,87.0,80.0,60.0,11.0,0.0
15620,56.0,80.0,60.0,13.0,0.0
15621,87.0,0.0,60.0,11.0,0.0
15622,75.0,0.0,60.0,11.0,0.0
15623,68.0,0.0,60.0,12.0,0.0
15624,75.0,0.0,60.0,11.0,0.0
15625,87.0,0.0,60.0,11.0,0.0
15626,70.0,12.0,60.0,12.0,0.0
15627,58.0,0.0,60.0,13.0,0.0
15628,84.0,68.0,90.0,0.0,0.0
15629,87.0,0.0,60.0,11.0,0.0
15630,75.0,0.0,60.0,11.0,0.0
15631,60.0,12.0,60.0,13.0,0.0
15632,72.0,0.0,60.0,12.0,0.0
15633,58.0,0.0,60.0,13.0,0.0
15634,87.0,12.0,60.0,11.0,0.0
15635,84.0,68.0,90.0,0.0,0.0
15636,75.0,0.0,60.0,11.0,0.0
15637,70.0,0.0,60.0,12.0,0.0
15638,68.0,0.0,60.0,12.0,0.0
15639,75.0,80.0,60.0,11.0,0.0
15640,56.0,0.0,60.0,13.0,0.0
15641,85.0,0.0,60.0,0.0,0.0
15642,87.0,0.0,60.0,11.0,0.0
15643,87.0,68.0,240.0,0.0,0.0
15644,87.0,0.0,60.0,11.0,0.0
15645,68.0,0.0,60.0,12.0,0.0
15646,75.0,0.0,60.0,11.0,0.0
15647,56.0,0.0,60.0,13.0,0.0
15648,60.0,77.0,60.0,13.0,0.0
15649,56.0,0.0,60.0,13.0,0.0
15650,60.0,0.0,60.0,14.0,0.0
15651,87.0,0.0,60.0,11.0,0.0
15652,56.0,0.0,60.0,14.0,0.0
15653,72.0,0.0,60.0,12.0,0.0
15654,75.0,0.0,60.0,11.0,0.0
15655,58.0,0.0,60.0,13.0,0.0
15656,75.0,12.0,60.0,11.0,0.0
15657,61.0,0.0,60.0,13.0,0.0
15658,61.0,0.0,60.0,14.0,0.0
15659,87.0,0.0,60.0,11.0,0.0
15660,58.0,0.0,60.0,14.0,0.0
15661,73.0,0.0,60.0,12.0,0.0
15662,63.0,80.0,60.0,13.0,0.0
15663,60.0,0.0,60.0,13.0,0.0
15664,63.0,0.0,60.0,14.0,0.0
15665,72.0,0.0,210.0,1.0,0.0
15666,68.0,0.0,210.0,1.0,0.0
15667,44.0,0.0,240.0,10.0,0.0
15668,72.0,0.0,210.0,5.0,0.0
15669,56.0,0.0,210.0,5.0,0.0
15670,60.0,0.0,60.0,14.0,0.0
15671,60.0,0.0,210.0,4.0,0.0
15672,44.0,3.0,210.0,4.0,0.0
15673,44.0,0.0,210.0,3.0,0.0
15674,84.0,0.0,210.0,0.0,0.0
15675,48.0,0.0,210.0,3.0,0.0
15676,80.0,0.0,210.0,0.0,0.0
15677,56.0,0.0,210.0,2.0,0.0
15678,75.0,0.0,60.0,11.0,0.0
15679,60.0,0.0,210.0,2.0,0.0
15680,75.0,0.0,60.0,12.0,0.0
15681,87.0,0.0,60.0,11.0,0.0
15682,87.0,0.0,60.0,11.0,0.0
15683,75.0,0.0,60.0,11.0,0.0
15684,61.0,0.0,60.0,13.0,0.0
15685,61.0,0.0,60.0,14.0,0.0
15686,58.0,0.0,60.0,14.0,0.0
15687,58.0,0.0,60.0,13.0,0.0
15688,73.0,77.0,60.0,12.0,0.0
15689,56.0,12.0,60.0,14.0,0.0
15690,75.0,0.0,60.0,11.0,0.0
15691,87.0,0.0,60.0,11.0,0.0
15692,72.0,0.0,60.0,12.0,0.0
15693,56.0,0.0,60.0,13.0,0.0
15694,60.0,0.0,60.0,13.0,0.0
15695,60.0,0.0,60.0,14.0,0.0
15696,67.0,0.0,450.0,1.0,0.0
15697,70.0,0.0,450.0,1.0,0.0
15698,70.0,0.0,60.0,12.0,0.0
15699,79.0,0.0,450.0,0.0,0.0
15700,82.0,0.0,450.0,0.0,0.0
15701,39.0,3.0,450.0,4.0,0.0
15702,58.0,0.0,450.0,4.0,0.0
15703,55.0,80.0,60.0,14.0,0.0
15704,58.0,0.0,60.0,14.0,0.0
15705,43.0,0.0,450.0,3.0,0.0
15706,58.0,0.0,450.0,2.0,0.0
15707,55.0,0.0,450.0,2.0,0.0
15708,27.0,0.0,930.0,15.0,0.0
15709,46.0,0.0,450.0,3.0,0.0
15710,39.0,68.0,240.0,10.0,0.0
15711,75.0,0.0,60.0,11.0,0.0
15712,87.0,0.0,60.0,11.0,0.0
15713,58.0,0.0,60.0,13.0,0.0
15714,55.0,0.0,60.0,13.0,0.0
15715,70.0,0.0,450.0,5.0,0.0
15716,51.0,0.0,450.0,5.0,0.0
15717,53.0,0.0,60.0,13.0,0.0
15718,56.0,0.0,60.0,13.0,0.0
15719,56.0,0.0,60.0,14.0,0.0
15720,87.0,0.0,60.0,11.0,0.0
15721,75.0,0.0,60.0,11.0,0.0
15722,68.0,0.0,60.0,12.0,0.0
15723,53.0,80.0,60.0,14.0,0.0
15724,55.0,0.0,60.0,13.0,0.0
15725,87.0,0.0,60.0,11.0,0.0
15726,75.0,0.0,60.0,11.0,0.0
15727,70.0,0.0,60.0,12.0,0.0
15728,58.0,0.0,60.0,13.0,0.0
15729,58.0,0.0,60.0,14.0,0.0
15730,55.0,12.0,60.0,14.0,0.0
15731,61.0,0.0,60.0,13.0,0.0
15732,87.0,0.0,60.0,11.0,0.0
15733,75.0,0.0,60.0,11.0,0.0
15734,73.0,80.0,60.0,12.0,0.0
15735,61.0,0.0,60.0,14.0,0.0
15736,58.0,0.0,60.0,13.0,0.0
15737,58.0,0.0,60.0,14.0,0.0
15738,75.0,0.0,60.0,11.0,0.0
15739,72.0,0.0,60.0,12.0,0.0
15740,56.0,0.0,60.0,14.0,0.0
15741,60.0,0.0,60.0,13.0,0.0
15742,87.0,0.0,60.0,11.0,0.0
15743,60.0,0.0,60.0,14.0,0.0
15744,56.0,77.0,60.0,13.0,0.0
15745,58.0,0.0,60.0,14.0,0.0
15746,75.0,0.0,60.0,11.0,0.0
15747,87.0,0.0,60.0,11.0,0.0
15748,55.0,0.0,60.0,14.0,0.0
15749,70.0,0.0,60.0,12.0,0.0
15750,58.0,0.0,60.0,13.0,0.0
15751,55.0,80.0,60.0,13.0,0.0
15752,84.0,0.0,450.0,0.0,0.0
15753,80.0,0.0,450.0,0.0,0.0
15754,48.0,0.0,450.0,3.0,0.0
15755,44.0,3.0,450.0,3.0,0.0
15756,87.0,0.0,60.0,11.0,0.0
15757,75.0,0.0,60.0,11.0,0.0
15758,44.0,0.0,450.0,4.0,0.0
15759,60.0,0.0,450.0,4.0,0.0
15760,56.0,0.0,450.0,5.0,0.0
15761,44.0,68.0,240.0,10.0,0.0
15762,72.0,0.0,450.0,5.0,0.0
15763,60.0,0.0,60.0,13.0,0.0
15764,56.0,0.0,60.0,13.0,0.0
15765,68.0,0.0,450.0,1.0,0.0
15766,60.0,0.0,450.0,2.0,0.0
15767,56.0,0.0,450.0,2.0,0.0
15768,72.0,0.0,450.0,1.0,0.0
15769,72.0,0.0,60.0,12.0,0.0
15770,60.0,0.0,60.0,14.0,0.0
15771,56.0,80.0,60.0,14.0,0.0
15772,70.0,0.0,60.0,12.0,0.0
15773,55.0,80.0,60.0,13.0,0.0
15774,75.0,0.0,60.0,11.0,0.0
15775,87.0,0.0,60.0,11.0,0.0
15776,58.0,0.0,60.0,13.0,0.0
15777,55.0,0.0,60.0,14.0,0.0
15778,58.0,0.0,60.0,14.0,0.0
15779,56.0,0.0,60.0,13.0,0.0
15780,60.0,0.0,60.0,13.0,0.0
15781,72.0,0.0,60.0,12.0,0.0
15782,87.0,0.0,60.0,11.0,0.0
15783,60.0,0.0,60.0,14.0,0.0
15784,56.0,0.0,60.0,14.0,0.0
15785,75.0,12.0,60.0,11.0,0.0
15786,63.0,80.0,60.0,14.0,0.0
15787,87.0,0.0,60.0,11.0,0.0
15788,60.0,0.0,60.0,13.0,0.0
15789,63.0,0.0,60.0,13.0,0.0
15790,60.0,0.0,60.0,14.0,0.0
15791,75.0,0.0,60.0,12.0,0.0
15792,75.0,0.0,60.0,11.0,0.0
15793,75.0,77.0,60.0,11.0,0.0
15794,87.0,0.0,60.0,11.0,0.0
15795,73.0,0.0,60.0,12.0,0.0
15796,58.0,0.0,60.0,13.0,0.0
15797,61.0,0.0,60.0,13.0,0.0
15798,58.0,0.0,60.0,14.0,0.0
15799,61.0,0.0,60.0,14.0,0.0
15800,72.0,0.0,60.0,12.0,0.0
15801,56.0,0.0,60.0,13.0,0.0
15802,75.0,0.0,60.0,11.0,0.0
15803,60.0,0.0,60.0,14.0,0.0
15804,56.0,80.0,60.0,14.0,0.0
15805,60.0,0.0,60.0,13.0,0.0
15806,87.0,0.0,60.0,11.0,0.0
15807,82.0,0.0,690.0,0.0,0.0
15808,49.0,0.0,690.0,3.0,0.0
15809,51.0,0.0,240.0,8.0,0.0
15810,61.0,0.0,690.0,2.0,0.0
15811,46.0,0.0,690.0,3.0,0.0
15812,58.0,0.0,690.0,2.0,0.0
15813,61.0,3.0,690.0,4.0,0.0
15814,39.0,0.0,240.0,10.0,0.0
15815,58.0,0.0,60.0,14.0,0.0
15816,61.0,0.0,60.0,14.0,0.0
15817,61.0,68.0,240.0,6.0,0.0
15818,70.0,0.0,690.0,1.0,0.0
15819,73.0,0.0,690.0,1.0,0.0
15820,73.0,0.0,60.0,12.0,0.0
15821,27.0,0.0,1890.0,3.0,0.0
15822,39.0,0.0,690.0,4.0,0.0
15823,85.0,0.0,690.0,0.0,0.0
15824,27.0,0.0,960.0,15.0,0.0
15825,73.0,0.0,690.0,5.0,0.0
15826,61.0,80.0,60.0,13.0,0.0
15827,58.0,0.0,60.0,13.0,0.0
15828,51.0,0.0,690.0,5.0,0.0
15829,75.0,0.0,60.0,11.0,0.0
15830,87.0,0.0,60.0,11.0,0.0
15831,58.0,0.0,240.0,7.0,0.0
15832,56.0,0.0,60.0,14.0,0.0
15833,72.0,80.0,60.0,12.0,0.0
15834,60.0,0.0,60.0,14.0,0.0
15835,60.0,0.0,60.0,13.0,0.0
15836,56.0,0.0,60.0,13.0,0.0
15837,87.0,0.0,60.0,11.0,0.0
15838,75.0,0.0,60.0,11.0,0.0
15839,58.0,0.0,60.0,14.0,0.0
15840,58.0,0.0,60.0,13.0,0.0
15841,61.0,0.0,60.0,13.0,0.0
15842,73.0,12.0,60.0,12.0,0.0
15843,61.0,0.0,60.0,14.0,0.0
15844,87.0,0.0,60.0,11.0,0.0
15845,75.0,0.0,60.0,11.0,0.0
15846,61.0,80.0,60.0,14.0,0.0
15847,65.0,0.0,60.0,14.0,0.0
15848,61.0,0.0,60.0,13.0,0.0
15849,77.0,0.0,60.0,12.0,0.0
15850,75.0,0.0,60.0,11.0,0.0
15851,87.0,0.0,60.0,11.0,0.0
15852,65.0,0.0,60.0,13.0,0.0
15853,63.0,0.0,60.0,14.0,0.0
15854,75.0,0.0,60.0,11.0,0.0
15855,60.0,0.0,60.0,14.0,0.0
15856,75.0,0.0,60.0,12.0,0.0
15857,60.0,0.0,60.0,13.0,0.0
15858,63.0,80.0,60.0,13.0,0.0
15859,87.0,0.0,60.0,11.0,0.0
15860,87.0,0.0,60.0,11.0,0.0
15861,75.0,0.0,60.0,11.0,0.0
15862,61.0,0.0,60.0,14.0,0.0
15863,61.0,80.0,60.0,13.0,0.0
15864,58.0,0.0,60.0,13.0,0.0
15865,58.0,0.0,60.0,14.0,0.0
15866,73.0,0.0,60.0,12.0,0.0
15867,58.0,0.0,60.0,14.0,0.0
15868,61.0,0.0,60.0,14.0,0.0
15869,58.0,0.0,60.0,13.0,0.0
15870,61.0,80.0,60.0,13.0,0.0
15871,73.0,0.0,60.0,12.0,0.0
15872,87.0,0.0,60.0,11.0,0.0
15873,75.0,0.0,60.0,11.0,0.0
15874,60.0,0.0,60.0,13.0,0.0
15875,56.0,0.0,60.0,14.0,0.0
15876,72.0,77.0,60.0,12.0,0.0
15877,60.0,0.0,60.0,14.0,0.0
15878,87.0,0.0,60.0,11.0,0.0
15879,75.0,0.0,60.0,11.0,0.0
15880,56.0,0.0,60.0,13.0,0.0
15881,87.0,0.0,60.0,11.0,0.0
15882,75.0,0.0,60.0,11.0,0.0
15883,61.0,0.0,60.0,14.0,0.0
15884,58.0,0.0,60.0,14.0,0.0
15885,73.0,0.0,60.0,12.0,0.0
15886,61.0,80.0,60.0,13.0,0.0
15887,58.0,0.0,60.0,13.0,0.0
15888,75.0,0.0,60.0,11.0,0.0
15889,77.0,0.0,60.0,12.0,0.0
15890,61.0,0.0,210.0,2.0,0.0
15891,73.0,0.0,210.0,1.0,0.0
15892,39.0,0.0,210.0,4.0,0.0
15893,58.0,0.0,210.0,2.0,0.0
15894,70.0,0.0,210.0,1.0,0.0
15895,49.0,0.0,210.0,3.0,0.0
15896,82.0,0.0,210.0,0.0,0.0
15897,85.0,0.0,210.0,0.0,0.0
15898,51.0,3.0,210.0,5.0,0.0
15899,61.0,0.0,60.0,13.0,0.0
15900,46.0,0.0,210.0,3.0,0.0
15901,65.0,0.0,60.0,13.0,0.0
15902,61.0,0.0,210.0,4.0,0.0
15903,39.0,68.0,240.0,10.0,0.0
15904,65.0,0.0,60.0,14.0,0.0
15905,87.0,80.0,60.0,11.0,0.0
15906,73.0,0.0,210.0,5.0,0.0
15907,61.0,0.0,60.0,14.0,0.0
15908,75.0,0.0,60.0,11.0,0.0
15909,75.0,0.0,60.0,12.0,0.0
15910,87.0,0.0,60.0,11.0,0.0
15911,60.0,0.0,60.0,14.0,0.0
15912,63.0,77.0,60.0,13.0,0.0
15913,60.0,0.0,60.0,13.0,0.0
15914,63.0,0.0,60.0,14.0,0.0
15915,73.0,0.0,60.0,12.0,0.0
15916,75.0,0.0,60.0,11.0,0.0
15917,87.0,0.0,60.0,11.0,0.0
15918,58.0,0.0,60.0,14.0,0.0
15919,61.0,12.0,60.0,14.0,0.0
15920,58.0,0.0,60.0,13.0,0.0
15921,61.0,0.0,60.0,13.0,0.0
15922,56.0,0.0,450.0,5.0,0.0
15923,72.0,0.0,450.0,5.0,0.0
15924,27.0,0.0,930.0,15.0,0.0
15925,60.0,0.0,60.0,13.0,0.0
15926,56.0,0.0,60.0,13.0,0.0
15927,44.0,0.0,450.0,4.0,0.0
15928,68.0,0.0,450.0,1.0,0.0
15929,56.0,0.0,450.0,2.0,0.0
15930,44.0,68.0,240.0,10.0,0.0
15931,44.0,0.0,450.0,3.0,0.0
15932,60.0,0.0,450.0,4.0,0.0
15933,72.0,80.0,60.0,12.0,0.0
15934,48.0,3.0,450.0,3.0,0.0
15935,72.0,0.0,450.0,1.0,0.0
15936,60.0,0.0,60.0,14.0,0.0
15937,87.0,0.0,60.0,11.0,0.0
15938,75.0,0.0,60.0,11.0,0.0
15939,80.0,0.0,450.0,0.0,0.0
15940,84.0,0.0,450.0,0.0,0.0
15941,56.0,0.0,60.0,14.0,0.0
15942,60.0,0.0,450.0,2.0,0.0
15943,75.0,0.0,60.0,11.0,0.0
15944,87.0,0.0,60.0,11.0,0.0
15945,58.0,80.0,60.0,13.0,0.0
15946,55.0,0.0,60.0,13.0,0.0
15947,55.0,0.0,60.0,14.0,0.0
15948,58.0,0.0,60.0,14.0,0.0
15949,70.0,0.0,60.0,12.0,0.0
15950,60.0,12.0,60.0,14.0,0.0
15951,72.0,0.0,60.0,12.0,0.0
15952,56.0,0.0,60.0,13.0,0.0
15953,60.0,0.0,60.0,13.0,0.0
15954,56.0,0.0,60.0,14.0,0.0
15955,87.0,0.0,60.0,11.0,0.0
15956,75.0,0.0,60.0,11.0,0.0
15957,63.0,0.0,60.0,13.0,0.0
15958,87.0,0.0,60.0,11.0,0.0
15959,60.0,0.0,60.0,13.0,0.0
15960,63.0,0.0,60.0,14.0,0.0
15961,60.0,0.0,60.0,14.0,0.0
15962,75.0,80.0,60.0,12.0,0.0
15963,75.0,0.0,60.0,11.0,0.0
15964,73.0,0.0,60.0,12.0,0.0
15965,58.0,0.0,60.0,13.0,0.0
15966,61.0,0.0,60.0,13.0,0.0
15967,75.0,0.0,60.0,11.0,0.0
15968,61.0,0.0,60.0,14.0,0.0
15969,58.0,0.0,60.0,14.0,0.0
15970,87.0,77.0,60.0,11.0,0.0
15971,60.0,80.0,60.0,13.0,0.0
15972,56.0,0.0,60.0,13.0,0.0
15973,56.0,0.0,60.0,14.0,0.0
15974,75.0,0.0,60.0,11.0,0.0
15975,87.0,0.0,60.0,11.0,0.0
15976,72.0,0.0,60.0,12.0,0.0
15977,60.0,0.0,60.0,14.0,0.0
15978,61.0,0.0,450.0,2.0,0.0
15979,51.0,0.0,450.0,5.0,0.0
15980,73.0,0.0,450.0,5.0,0.0
15981,58.0,0.0,60.0,14.0,0.0
15982,87.0,80.0,60.0,11.0,0.0
15983,75.0,0.0,60.0,11.0,0.0
15984,39.0,68.0,240.0,10.0,0.0
15985,73.0,0.0,450.0,1.0,0.0
15986,70.0,0.0,450.0,1.0,0.0
15987,82.0,0.0,450.0,0.0,0.0
15988,39.0,0.0,450.0,4.0,0.0
15989,61.0,0.0,450.0,4.0,0.0
15990,61.0,0.0,60.0,13.0,0.0
15991,85.0,0.0,450.0,0.0,0.0
15992,61.0,0.0,60.0,14.0,0.0
15993,49.0,0.0,450.0,3.0,0.0
15994,46.0,3.0,450.0,3.0,0.0
15995,58.0,0.0,60.0,13.0,0.0
15996,73.0,0.0,60.0,12.0,0.0
15997,58.0,0.0,450.0,2.0,0.0
15998,60.0,0.0,60.0,14.0,0.0
15999,56.0,0.0,60.0,14.0,0.0
16000,75.0,0.0,60.0,11.0,0.0
16001,87.0,0.0,60.0,11.0,0.0
16002,56.0,80.0,60.0,13.0,0.0
16003,72.0,0.0,60.0,12.0,0.0
16004,60.0,0.0,60.0,13.0,0.0
16005,75.0,0.0,60.0,11.0,0.0
16006,61.0,0.0,60.0,14.0,0.0
16007,58.0,0.0,60.0,14.0,0.0
16008,58.0,12.0,60.0,13.0,0.0
16009,61.0,0.0,60.0,13.0,0.0
16010,87.0,0.0,60.0,11.0,0.0
16011,73.0,0.0,60.0,12.0,0.0
16012,87.0,0.0,60.0,11.0,0.0
16013,75.0,0.0,60.0,11.0,0.0
16014,61.0,80.0,60.0,13.0,0.0
16015,77.0,0.0,60.0,12.0,0.0
16016,65.0,0.0,60.0,13.0,0.0
16017,65.0,0.0,60.0,14.0,0.0
16018,61.0,0.0,60.0,14.0,0.0
16019,75.0,77.0,60.0,11.0,0.0
16020,75.0,0.0,60.0,12.0,0.0
16021,63.0,0.0,60.0,14.0,0.0
16022,60.0,0.0,60.0,13.0,0.0
16023,60.0,0.0,60.0,14.0,0.0
16024,87.0,0.0,60.0,11.0,0.0
16025,63.0,0.0,60.0,13.0,0.0
16026,58.0,80.0,60.0,14.0,0.0
16027,61.0,0.0,60.0,14.0,0.0
16028,75.0,0.0,60.0,11.0,0.0
16029,87.0,0.0,60.0,11.0,0.0
16030,73.0,0.0,60.0,12.0,0.0
16031,61.0,0.0,60.0,13.0,0.0
16032,58.0,0.0,60.0,13.0,0.0
16033,75.0,0.0,60.0,12.0,0.0
16034,87.0,80.0,60.0,11.0,0.0
16035,51.0,0.0,930.0,5.0,0.0
16036,72.0,0.0,930.0,1.0,0.0
16037,60.0,0.0,60.0,13.0,0.0
16038,63.0,0.0,60.0,13.0,0.0
16039,75.0,0.0,60.0,11.0,0.0
16040,60.0,0.0,240.0,7.0,0.0
16041,75.0,0.0,930.0,5.0,0.0
16042,63.0,0.0,240.0,6.0,0.0
16043,27.0,0.0,60.0,3.0,0.0
16044,39.0,0.0,930.0,4.0,0.0
16045,75.0,0.0,930.0,1.0,0.0
16046,60.0,0.0,930.0,2.0,0.0
16047,63.0,0.0,60.0,14.0,0.0
16048,60.0,0.0,60.0,14.0,0.0
16049,39.0,68.0,240.0,10.0,0.0
16050,63.0,0.0,930.0,4.0,0.0
16051,87.0,0.0,930.0,0.0,0.0
16052,63.0,0.0,930.0,2.0,0.0
16053,27.0,0.0,60.0,15.0,0.0
16054,51.0,0.0,930.0,3.0,0.0
16055,84.0,0.0,930.0,0.0,0.0
16056,51.0,0.0,240.0,8.0,0.0
16057,48.0,3.0,930.0,3.0,0.0
16058,39.0,0.0,60.0,14.0,0.0
16059,75.0,0.0,60.0,11.0,0.0
16060,48.0,80.0,60.0,13.0,0.0
16061,27.0,0.0,60.0,15.0,0.0
16062,72.0,0.0,60.0,12.0,0.0
16063,27.0,0.0,60.0,3.0,0.0
16064,51.0,0.0,60.0,13.0,0.0
16065,27.0,0.0,60.0,3.0,0.0
16066,72.0,0.0,60.0,12.0,0.0
16067,75.0,0.0,60.0,11.0,0.0
16068,48.0,0.0,60.0,13.0,0.0
16069,27.0,12.0,60.0,15.0,0.0
16070,39.0,0.0,60.0,14.0,0.0
16071,51.0,0.0,60.0,13.0,0.0
16072,72.0,0.0,60.0,12.0,0.0
16073,39.0,0.0,60.0,14.0,0.0
16074,27.0,0.0,60.0,15.0,0.0
16075,27.0,0.0,60.0,3.0,0.0
16076,48.0,0.0,60.0,13.0,0.0
16077,75.0,0.0,60.0,11.0,0.0
16078,51.0,80.0,60.0,13.0,0.0
16079,39.0,0.0,60.0,14.0,0.0
16080,51.0,0.0,60.0,13.0,0.0
16081,72.0,80.0,60.0,12.0,0.0
16082,27.0,0.0,60.0,3.0,0.0
16083,75.0,0.0,60.0,11.0,0.0
16084,48.0,0.0,60.0,13.0,0.0
16085,27.0,0.0,60.0,15.0,0.0
16086,27.0,0.0,60.0,3.0,0.0
16087,39.0,80.0,60.0,14.0,0.0
16088,51.0,0.0,60.0,13.0,0.0
16089,27.0,0.0,60.0,15.0,0.0
16090,75.0,0.0,60.0,11.0,0.0
16091,48.0,0.0,60.0,13.0,0.0
16092,72.0,0.0,60.0,12.0,0.0
16093,39.0,0.0,60.0,14.0,0.0
16094,75.0,0.0,60.0,11.0,0.0
16095,27.0,80.0,60.0,3.0,0.0
16096,72.0,0.0,60.0,12.0,0.0
16097,51.0,0.0,60.0,13.0,0.0
16098,27.0,0.0,60.0,15.0,0.0
16099,48.0,0.0,60.0,13.0,0.0
16100,72.0,0.0,60.0,12.0,0.0
16101,51.0,80.0,60.0,13.0,0.0
16102,39.0,0.0,60.0,14.0,0.0
16103,75.0,0.0,60.0,11.0,0.0
16104,48.0,0.0,60.0,13.0,0.0
16105,27.0,0.0,60.0,15.0,0.0
16106,27.0,0.0,60.0,3.0,0.0
16107,75.0,0.0,60.0,11.0,0.0
16108,27.0,80.0,60.0,15.0,0.0
16109,39.0,0.0,60.0,14.0,0.0
16110,48.0,0.0,60.0,13.0,0.0
16111,51.0,0.0,60.0,13.0,0.0
16112,72.0,0.0,60.0,12.0,0.0
16113,27.0,0.0,60.0,3.0,0.0
16114,51.0,0.0,60.0,13.0,0.0
16115,39.0,0.0,60.0,14.0,0.0
16116,27.0,0.0,60.0,15.0,0.0
16117,48.0,0.0,60.0,13.0,0.0
16118,72.0,0.0,60.0,12.0,0.0
16119,27.0,0.0,60.0,3.0,0.0
16120,75.0,80.0,60.0,11.0,0.0
16121,75.0,0.0,60.0,11.0,0.0
16122,27.0,0.0,60.0,3.0,0.0
16123,51.0,77.0,60.0,13.0,0.0
16124,48.0,0.0,60.0,13.0,0.0
16125,39.0,0.0,60.0,14.0,0.0
16126,72.0,0.0,60.0,12.0,0.0
16127,27.0,0.0,60.0,15.0,0.0
16128,48.0,0.0,60.0,13.0,0.0
16129,75.0,0.0,60.0,11.0,0.0
16130,51.0,80.0,60.0,13.0,0.0
16131,27.0,0.0,60.0,3.0,0.0
16132,39.0,0.0,60.0,14.0,0.0
16133,72.0,0.0,60.0,12.0,0.0
16134,27.0,0.0,60.0,15.0,0.0
16135,73.0,0.0,930.0,1.0,0.0
16136,76.0,0.0,930.0,1.0,0.0
16137,61.0,0.0,930.0,2.0,0.0
16138,64.0,0.0,930.0,2.0,0.0
16139,88.0,0.0,930.0,0.0,0.0
16140,27.0,80.0,60.0,3.0,0.0
16141,49.0,0.0,60.0,13.0,0.0
16142,27.0,0.0,60.0,15.0,0.0
16143,52.0,0.0,60.0,13.0,0.0
16144,56.0,0.0,930.0,5.0,0.0
16145,68.0,0.0,930.0,5.0,0.0
16146,52.0,0.0,930.0,3.0,0.0
16147,49.0,0.0,930.0,3.0,0.0
16148,73.0,0.0,60.0,12.0,0.0
16149,85.0,3.0,930.0,0.0,0.0
16150,39.0,0.0,60.0,14.0,0.0
16151,44.0,68.0,240.0,10.0,0.0
16152,44.0,0.0,930.0,4.0,0.0
16153,56.0,0.0,930.0,4.0,0.0
16154,76.0,0.0,60.0,11.0,0.0
16155,52.0,80.0,60.0,13.0,0.0
16156,49.0,0.0,60.0,13.0,0.0
16157,76.0,0.0,60.0,11.0,0.0
16158,39.0,0.0,60.0,14.0,0.0
16159,27.0,0.0,60.0,15.0,0.0
16160,73.0,0.0,60.0,12.0,0.0
16161,27.0,0.0,60.0,3.0,0.0
16162,39.0,0.0,60.0,14.0,0.0
16163,27.0,0.0,60.0,3.0,0.0
16164,73.0,0.0,60.0,12.0,0.0
16165,76.0,0.0,60.0,11.0,0.0
16166,27.0,0.0,60.0,15.0,0.0
16167,49.0,0.0,60.0,13.0,0.0
16168,52.0,12.0,60.0,13.0,0.0
16169,52.0,0.0,60.0,13.0,0.0
16170,49.0,0.0,60.0,13.0,0.0
16171,27.0,0.0,60.0,3.0,0.0
16172,73.0,0.0,60.0,12.0,0.0
16173,27.0,0.0,60.0,15.0,0.0
16174,76.0,80.0,60.0,11.0,0.0
16175,39.0,0.0,60.0,14.0,0.0
16176,39.0,0.0,60.0,14.0,0.0
16177,52.0,0.0,60.0,13.0,0.0
16178,76.0,80.0,60.0,11.0,0.0
16179,49.0,0.0,60.0,13.0,0.0
16180,27.0,0.0,60.0,3.0,0.0
16181,27.0,0.0,60.0,15.0,0.0
16182,73.0,0.0,60.0,12.0,0.0
16183,76.0,0.0,60.0,11.0,0.0
16184,39.0,0.0,60.0,14.0,0.0
16185,52.0,0.0,60.0,13.0,0.0
16186,27.0,80.0,60.0,15.0,0.0
16187,49.0,0.0,60.0,13.0,0.0
16188,73.0,0.0,60.0,12.0,0.0
16189,27.0,0.0,60.0,3.0,0.0
16190,52.0,0.0,60.0,13.0,0.0
16191,73.0,0.0,60.0,12.0,0.0
16192,49.0,80.0,60.0,13.0,0.0
16193,39.0,0.0,60.0,14.0,0.0
16194,27.0,0.0,60.0,15.0,0.0
16195,27.0,0.0,60.0,3.0,0.0
16196,76.0,0.0,60.0,11.0,0.0
16197,27.0,0.0,60.0,3.0,0.0
16198,39.0,0.0,60.0,14.0,0.0
16199,49.0,0.0,60.0,13.0,0.0
16200,52.0,0.0,60.0,13.0,0.0
16201,27.0,80.0,60.0,15.0,0.0
16202,76.0,0.0,60.0,11.0,0.0
16203,73.0,0.0,60.0,12.0,0.0
16204,73.0,0.0,60.0,12.0,0.0
16205,49.0,0.0,60.0,13.0,0.0
16206,52.0,0.0,60.0,13.0,0.0
16207,27.0,0.0,60.0,3.0,0.0
16208,27.0,0.0,60.0,15.0,0.0
16209,39.0,80.0,60.0,14.0,0.0
16210,76.0,0.0,60.0,11.0,0.0
16211,76.0,0.0,60.0,11.0,0.0
16212,27.0,0.0,60.0,15.0,0.0
16213,39.0,0.0,60.0,14.0,0.0
16214,73.0,0.0,60.0,12.0,0.0
16215,27.0,80.0,60.0,3.0,0.0
16216,52.0,0.0,60.0,13.0,0.0
16217,49.0,0.0,60.0,13.0,0.0
16218,73.0,77.0,60.0,12.0,0.0
16219,52.0,0.0,60.0,13.0,0.0
16220,76.0,0.0,60.0,11.0,0.0
16221,49.0,0.0,60.0,13.0,0.0
16222,27.0,0.0,60.0,15.0,0.0
16223,27.0,0.0,60.0,3.0,0.0
16224,39.0,0.0,60.0,14.0,0.0
16225,52.0,0.0,60.0,13.0,0.0
16226,76.0,52.0,60.0,11.0,0.0
16227,39.0,0.0,60.0,14.0,0.0
16228,27.0,0.0,60.0,15.0,0.0
16229,27.0,0.0,60.0,3.0,0.0
16230,49.0,0.0,60.0,13.0,0.0
16231,73.0,0.0,60.0,12.0,0.0
16232,53.0,0.0,1890.0,3.0,0.0
16233,50.0,0.0,1890.0,3.0,0.0
16234,74.0,0.0,1890.0,1.0,0.0
16235,56.0,0.0,1890.0,5.0,0.0
16236,56.0,0.0,1890.0,7.0,0.0
16237,68.0,0.0,1890.0,5.0,0.0
16238,50.0,0.0,60.0,13.0,0.0
16239,74.0,0.0,60.0,12.0,0.0
16240,53.0,0.0,60.0,13.0,0.0
16241,27.0,0.0,60.0,3.0,0.0
16242,77.0,0.0,1890.0,1.0,0.0
16243,62.0,0.0,1890.0,2.0,0.0
16244,59.0,0.0,1890.0,6.0,0.0
16245,39.0,0.0,1890.0,8.0,0.0
16246,44.0,28.0,40.0,10.0,0.0
16247,27.0,0.0,60.0,15.0,0.0
16248,39.0,12.0,60.0,14.0,0.0
16249,77.0,0.0,60.0,11.0,0.0
16250,65.0,0.0,60.0,12.0,0.0
16251,44.0,0.0,1890.0,4.0,0.0
16252,56.0,0.0,1890.0,4.0,0.0
16253,65.0,0.0,1890.0,2.0,0.0
16254,44.0,40.0,40.0,10.0,0.0
16255,74.0,0.0,60.0,12.0,0.0
16256,65.0,0.0,60.0,12.0,0.0
16257,53.0,0.0,60.0,13.0,0.0
16258,50.0,0.0,60.0,13.0,0.0
16259,44.0,28.0,40.0,10.0,0.0
16260,27.0,0.0,60.0,3.0,0.0
16261,27.0,0.0,60.0,15.0,0.0
16262,74.0,0.0,60.0,11.0,0.0
16263,39.0,12.0,60.0,14.0,0.0
16264,44.0,40.0,40.0,10.0,0.0
16265,74.0,0.0,60.0,12.0,0.0
16266,27.0,0.0,60.0,15.0,0.0
16267,65.0,0.0,60.0,12.0,0.0
16268,53.0,0.0,60.0,13.0,0.0
16269,50.0,0.0,60.0,13.0,0.0
16270,44.0,28.0,40.0,10.0,0.0
16271,39.0,0.0,60.0,14.0,0.0
16272,71.0,12.0,60.0,11.0,0.0
16273,27.0,0.0,60.0,3.0,0.0
16274,44.0,40.0,40.0,10.0,0.0
16275,65.0,0.0,60.0,12.0,0.0
16276,50.0,0.0,60.0,13.0,0.0
16277,68.0,0.0,60.0,11.0,0.0
16278,74.0,0.0,60.0,12.0,0.0
16279,27.0,0.0,60.0,15.0,0.0
16280,27.0,0.0,60.0,3.0,0.0
16281,53.0,0.0,60.0,13.0,0.0
16282,44.0,28.0,40.0,10.0,0.0
16283,86.0,0.0,60.0,0.0,0.0
16284,39.0,12.0,60.0,14.0,0.0
16285,44.0,40.0,40.0,10.0,0.0
16286,50.0,0.0,60.0,13.0,0.0
16287,44.0,28.0,40.0,10.0,0.0
16288,27.0,0.0,60.0,15.0,0.0
16289,39.0,0.0,60.0,14.0,0.0
16290,65.0,0.0,60.0,11.0,0.0
16291,27.0,0.0,60.0,3.0,0.0
16292,65.0,12.0,60.0,12.0,0.0
16293,74.0,0.0,60.0,12.0,0.0
16294,87.0,0.0,60.0,0.0,0.0
16295,53.0,0.0,60.0,13.0,0.0
16296,44.0,40.0,40.0,10.0,0.0
16297,50.0,0.0,60.0,13.0,0.0
16298,53.0,12.0,60.0,13.0,0.0
16299,39.0,0.0,60.0,14.0,0.0
16300,89.0,0.0,90.0,0.0,0.0
16301,44.0,28.0,40.0,10.0,0.0
16302,62.0,0.0,60.0,11.0,0.0
16303,27.0,0.0,60.0,3.0,0.0
16304,27.0,0.0,60.0,15.0,0.0
16305,65.0,0.0,60.0,12.0,0.0
16306,74.0,0.0,60.0,12.0,0.0
16307,44.0,40.0,40.0,10.0,0.0
16308,74.0,0.0,60.0,12.0,0.0
16309,39.0,0.0,60.0,14.0,0.0
16310,53.0,0.0,60.0,13.0,0.0
16311,50.0,0.0,60.0,13.0,0.0
16312,27.0,0.0,60.0,3.0,0.0
16313,65.0,0.0,60.0,12.0,0.0
16314,44.0,28.0,40.0,10.0,0.0
16315,59.0,12.0,60.0,11.0,0.0
16316,27.0,0.0,60.0,15.0,0.0
16317,44.0,40.0,40.0,10.0,0.0
16318,56.0,0.0,60.0,11.0,0.0
16319,44.0,28.0,40.0,10.0,0.0
16320,53.0,0.0,60.0,13.0,0.0
16321,39.0,0.0,60.0,14.0,0.0
16322,27.0,0.0,60.0,3.0,0.0
16323,50.0,0.0,60.0,13.0,0.0
16324,27.0,0.0,60.0,15.0,0.0
16325,65.0,0.0,60.0,12.0,0.0
16326,74.0,12.0,60.0,12.0,0.0
16327,44.0,40.0,40.0,10.0,0.0
16328,65.0,0.0,60.0,12.0,0.0
16329,50.0,0.0,60.0,13.0,0.0
16330,39.0,12.0,60.0,14.0,0.0
16331,27.0,0.0,60.0,15.0,0.0
16332,53.0,0.0,60.0,13.0,0.0
16333,74.0,0.0,60.0,12.0,0.0
16334,27.0,0.0,60.0,3.0,0.0
16335,44.0,28.0,40.0,10.0,0.0
16336,53.0,0.0,60.0,11.0,0.0
16337,44.0,40.0,40.0,10.0,0.0
16338,74.0,0.0,60.0,12.0,0.0
16339,50.0,0.0,60.0,13.0,0.0
16340,53.0,0.0,60.0,13.0,0.0
16341,56.0,0.0,60.0,11.0,0.0
16342,86.0,12.0,60.0,0.0,0.0
16343,27.0,0.0,60.0,3.0,0.0
16344,65.0,0.0,60.0,12.0,0.0
16345,27.0,0.0,60.0,15.0,0.0
16346,39.0,0.0,60.0,14.0,0.0
16347,44.0,28.0,40.0,10.0,0.0
16348,44.0,40.0,40.0,10.0,0.0
16349,50.0,0.0,60.0,13.0,0.0
16350,53.0,0.0,60.0,13.0,0.0
16351,44.0,28.0,40.0,10.0,0.0
16352,59.0,0.0,60.0,11.0,0.0
16353,87.0,0.0,60.0,0.0,0.0
16354,74.0,12.0,60.0,12.0,0.0
16355,65.0,0.0,60.0,12.0,0.0
16356,27.0,0.0,60.0,3.0,0.0
16357,27.0,0.0,60.0,15.0,0.0
16358,39.0,0.0,60.0,14.0,0.0
16359,44.0,40.0,40.0,10.0,0.0
16360,74.0,0.0,60.0,12.0,0.0
16361,53.0,0.0,60.0,13.0,0.0
16362,89.0,40.0,90.0,0.0,0.0
16363,65.0,0.0,60.0,12.0,0.0
16364,62.0,0.0,60.0,11.0,0.0
16365,27.0,0.0,60.0,3.0,0.0
16366,44.0,28.0,40.0,10.0,0.0
16367,27.0,0.0,60.0,15.0,0.0
16368,39.0,12.0,60.0,14.0,0.0
16369,50.0,0.0,60.0,13.0,0.0
16370,44.0,0.0,40.0,10.0,0.0
16371,27.0,0.0,60.0,3.0,0.0
16372,39.0,0.0,60.0,14.0,0.0
16373,53.0,0.0,60.0,13.0,0.0
16374,50.0,0.0,60.0,13.0,0.0
16375,44.0,28.0,40.0,10.0,0.0
16376,27.0,0.0,60.0,15.0,0.0
16377,74.0,0.0,60.0,12.0,0.0
16378,65.0,12.0,60.0,11.0,0.0
16379,65.0,0.0,60.0,12.0,0.0
16380,44.0,40.0,40.0,10.0,0.0
16381,44.0,28.0,40.0,10.0,0.0
16382,65.0,0.0,60.0,12.0,0.0
16383,74.0,0.0,60.0,12.0,0.0
16384,68.0,0.0,60.0,11.0,0.0
16385,39.0,12.0,60.0,14.0,0.0
16386,27.0,0.0,60.0,3.0,0.0
16387,27.0,0.0,60.0,15.0,0.0
16388,53.0,0.0,60.0,13.0,0.0
16389,50.0,0.0,60.0,13.0,0.0
16390,44.0,40.0,40.0,10.0,0.0
16391,27.0,0.0,60.0,3.0,0.0
16392,27.0,0.0,60.0,15.0,0.0
16393,50.0,0.0,60.0,13.0,0.0
16394,53.0,0.0,60.0,13.0,0.0
16395,44.0,28.0,40.0,10.0,0.0
16396,39.0,0.0,60.0,14.0,0.0
16397,74.0,12.0,60.0,12.0,0.0
16398,65.0,0.0,60.0,12.0,0.0
16399,71.0,0.0,60.0,11.0,0.0
16400,44.0,40.0,40.0,10.0,0.0
16401,27.0,12.0,60.0,3.0,0.0
16402,53.0,0.0,60.0,13.0,0.0
16403,27.0,0.0,60.0,15.0,0.0
16404,44.0,28.0,40.0,10.0,0.0
16405,86.0,0.0,60.0,0.0,0.0
16406,50.0,0.0,60.0,13.0,0.0
16407,39.0,0.0,60.0,14.0,0.0
16408,65.0,0.0,60.0,12.0,0.0
16409,74.0,0.0,60.0,12.0,0.0
16410,74.0,0.0,60.0,11.0,0.0
16411,44.0,40.0,40.0,10.0,0.0
16412,27.0,12.0,60.0,3.0,0.0
16413,77.0,0.0,60.0,11.0,0.0
16414,50.0,0.0,60.0,13.0,0.0
16415,39.0,0.0,60.0,14.0,0.0
16416,53.0,0.0,60.0,13.0,0.0
16417,65.0,0.0,60.0,12.0,0.0
16418,44.0,28.0,40.0,10.0,0.0
16419,27.0,0.0,60.0,15.0,0.0
16420,87.0,0.0,60.0,0.0,0.0
16421,74.0,0.0,60.0,12.0,0.0
16422,44.0,40.0,40.0,10.0,0.0
16423,27.0,0.0,60.0,15.0,0.0
16424,27.0,0.0,60.0,3.0,0.0
16425,50.0,0.0,60.0,13.0,0.0
16426,74.0,0.0,60.0,12.0,0.0
16427,89.0,40.0,90.0,0.0,0.0
16428,44.0,28.0,40.0,10.0,0.0
16429,77.0,12.0,60.0,11.0,0.0
16430,65.0,0.0,60.0,12.0,0.0
16431,39.0,0.0,60.0,14.0,0.0
16432,53.0,0.0,60.0,13.0,0.0
16433,44.0,0.0,40.0,10.0,0.0
16434,74.0,0.0,60.0,12.0,0.0
16435,65.0,0.0,60.0,12.0,0.0
16436,53.0,0.0,60.0,13.0,0.0
16437,27.0,12.0,60.0,3.0,0.0
16438,39.0,0.0,60.0,14.0,0.0
16439,27.0,0.0,60.0,15.0,0.0
16440,50.0,0.0,60.0,13.0,0.0
16441,77.0,0.0,60.0,11.0,0.0
16442,44.0,28.0,40.0,10.0,0.0
16443,44.0,40.0,40.0,10.0,0.0
16444,74.0,0.0,60.0,12.0,0.0
16445,65.0,0.0,60.0,12.0,0.0
16446,50.0,0.0,60.0,13.0,0.0
16447,53.0,0.0,60.0,13.0,0.0
16448,77.0,0.0,60.0,11.0,0.0
16449,39.0,0.0,60.0,14.0,0.0
16450,27.0,0.0,60.0,15.0,0.0
16451,44.0,28.0,40.0,10.0,0.0
16452,27.0,12.0,60.0,3.0,0.0
16453,44.0,40.0,40.0,10.0,0.0
16454,39.0,0.0,60.0,14.0,0.0
16455,65.0,0.0,60.0,12.0,0.0
16456,74.0,0.0,60.0,12.0,0.0
16457,27.0,0.0,60.0,3.0,0.0
16458,77.0,0.0,60.0,11.0,0.0
16459,27.0,12.0,60.0,15.0,0.0
16460,44.0,28.0,40.0,10.0,0.0
16461,53.0,0.0,60.0,13.0,0.0
16462,50.0,0.0,60.0,13.0,0.0
16463,44.0,40.0,40.0,10.0,0.0
16464,27.0,0.0,60.0,15.0,0.0
16465,44.0,28.0,40.0,10.0,0.0
16466,86.0,12.0,60.0,0.0,0.0
16467,50.0,0.0,60.0,13.0,0.0
16468,77.0,0.0,60.0,11.0,0.0
16469,27.0,0.0,60.0,3.0,0.0
16470,39.0,0.0,60.0,14.0,0.0
16471,74.0,0.0,60.0,12.0,0.0
16472,53.0,0.0,60.0,13.0,0.0
16473,65.0,0.0,60.0,12.0,0.0
16474,44.0,40.0,40.0,10.0,0.0
16475,27.0,0.0,60.0,3.0,0.0
16476,53.0,12.0,60.0,13.0,0.0
16477,50.0,0.0,60.0,13.0,0.0
16478,87.0,0.0,60.0,0.0,0.0
16479,39.0,0.0,60.0,14.0,0.0
16480,44.0,28.0,40.0,10.0,0.0
16481,65.0,0.0,60.0,12.0,0.0
16482,27.0,0.0,60.0,15.0,0.0
16483,74.0,0.0,60.0,12.0,0.0
16484,77.0,0.0,60.0,11.0,0.0
16485,44.0,40.0,40.0,10.0,0.0
16486,89.0,3.0,60.0,0.0,0.0
16487,74.0,0.0,60.0,12.0,0.0
16488,65.0,0.0,60.0,12.0,0.0
16489,53.0,12.0,60.0,13.0,0.0
16490,27.0,0.0,60.0,3.0,0.0
16491,39.0,0.0,60.0,14.0,0.0
16492,77.0,0.0,60.0,11.0,0.0
16493,50.0,0.0,60.0,13.0,0.0
16494,27.0,0.0,60.0,15.0,0.0
16495,44.0,25.0,40.0,10.0,0.0
16496,44.0,52.0,40.0,10.0,0.0
16497,58.0,0.0,600.0,6.0,0.0
16498,75.0,7.0,930.0,1.0,0.0
16499,63.0,0.0,930.0,4.0,0.0
16500,87.0,0.0,930.0,0.0,0.0
16501,82.0,0.0,930.0,0.0,0.0
16502,75.0,0.0,930.0,5.0,0.0
16503,63.0,0.0,930.0,5.0,0.0
16504,79.0,0.0,930.0,1.0,0.0
16505,51.0,0.0,930.0,4.0,0.0
16506,55.0,0.0,600.0,7.0,0.0
16507,91.0,0.0,930.0,0.0,0.0
16508,75.0,8.0,60.0,12.0,0.0
16509,67.0,0.0,60.0,12.0,0.0
16510,55.0,0.0,930.0,3.0,0.0
16511,79.0,0.0,60.0,11.0,0.0
16512,51.0,0.0,930.0,3.0,0.0
16513,67.0,0.0,930.0,2.0,0.0
16514,55.0,0.0,60.0,13.0,0.0
16515,51.0,0.0,60.0,13.0,0.0
16516,27.0,7.0,570.0,3.0,0.0
16517,39.0,52.0,600.0,8.0,0.0
16518,39.0,52.0,60.0,10.0,0.0
16519,27.0,0.0,570.0,15.0,0.0
16520,39.0,0.0,570.0,14.0,0.0
16521,63.0,0.0,930.0,2.0,0.0
16522,51.0,8.0,60.0,13.0,0.0
16523,55.0,0.0,60.0,13.0,0.0
16524,67.0,0.0,60.0,12.0,0.0
16525,75.0,0.0,60.0,12.0,0.0
16526,39.0,52.0,60.0,10.0,0.0
16527,79.0,0.0,60.0,11.0,0.0
16528,39.0,52.0,60.0,10.0,0.0
16529,55.0,0.0,60.0,13.0,0.0
16530,75.0,8.0,60.0,12.0,0.0
16531,67.0,0.0,60.0,12.0,0.0
16532,79.0,0.0,60.0,11.0,0.0
16533,51.0,0.0,60.0,13.0,0.0
16534,75.0,0.0,60.0,12.0,0.0
16535,51.0,0.0,60.0,13.0,0.0
16536,55.0,8.0,60.0,13.0,0.0
16537,67.0,0.0,60.0,12.0,0.0
16538,39.0,52.0,60.0,10.0,0.0
16539,79.0,0.0,60.0,11.0,0.0
16540,55.0,0.0,60.0,13.0,0.0
16541,51.0,0.0,60.0,13.0,0.0
16542,67.0,8.0,60.0,12.0,0.0
16543,75.0,0.0,60.0,12.0,0.0
16544,39.0,52.0,60.0,10.0,0.0
16545,79.0,0.0,60.0,11.0,0.0
16546,75.0,0.0,60.0,12.0,0.0
16547,67.0,0.0,60.0,12.0,0.0
16548,39.0,52.0,60.0,10.0,0.0
16549,55.0,0.0,60.0,13.0,0.0
16550,51.0,0.0,60.0,13.0,0.0
16551,79.0,8.0,60.0,11.0,0.0
16552,79.0,8.0,60.0,11.0,0.0
16553,55.0,0.0,60.0,13.0,0.0
16554,75.0,0.0,60.0,12.0,0.0
16555,67.0,0.0,60.0,12.0,0.0
16556,39.0,52.0,60.0,10.0,0.0
16557,51.0,0.0,60.0,13.0,0.0
16558,55.0,0.0,60.0,13.0,0.0
16559,51.0,0.0,60.0,13.0,0.0
16560,79.0,0.0,60.0,11.0,0.0
16561,39.0,52.0,60.0,10.0,0.0
16562,67.0,0.0,60.0,12.0,0.0
16563,75.0,8.0,60.0,12.0,0.0
16564,39.0,0.0,120.0,10.0,0.0
16565,79.0,0.0,60.0,11.0,0.0
16566,67.0,0.0,60.0,12.0,0.0
16567,51.0,0.0,60.0,13.0,0.0
16568,75.0,0.0,60.0,12.0,0.0
16569,55.0,53.0,60.0,13.0,0.0
16570,75.0,0.0,60.0,12.0,0.0
16571,67.0,0.0,60.0,12.0,0.0
16572,79.0,0.0,60.0,11.0,0.0
16573,51.0,0.0,60.0,13.0,0.0
16574,55.0,8.0,60.0,13.0,0.0
16575,58.0,0.0,60.0,13.0,0.0
16576,46.0,0.0,90.0,14.0,0.0
16577,70.0,53.0,60.0,12.0,0.0
16578,34.0,7.0,90.0,3.0,0.0
16579,34.0,0.0,90.0,15.0,0.0
16580,82.0,0.0,60.0,11.0,0.0
16581,82.0,0.0,60.0,11.0,0.0
16582,58.0,0.0,60.0,13.0,0.0
16583,70.0,60.0,60.0,12.0,0.0
16584,31.0,7.0,90.0,15.0,0.0
16585,79.0,53.0,60.0,11.0,0.0
16586,67.0,0.0,60.0,12.0,0.0
16587,43.0,0.0,90.0,14.0,0.0
16588,31.0,0.0,90.0,3.0,0.0
16589,55.0,0.0,60.0,13.0,0.0
16590,55.0,60.0,60.0,13.0,0.0
16591,67.0,0.0,60.0,12.0,0.0
16592,79.0,0.0,60.0,11.0,0.0
16593,82.0,0.0,60.0,11.0,0.0
16594,34.0,0.0,90.0,15.0,0.0
16595,34.0,0.0,90.0,3.0,0.0
16596,58.0,0.0,60.0,13.0,0.0
16597,70.0,53.0,60.0,12.0,0.0
16598,46.0,0.0,90.0,14.0,0.0
16599,70.0,60.0,60.0,12.0,0.0
16600,82.0,0.0,60.0,11.0,0.0
16601,58.0,0.0,60.0,13.0,0.0
16602,91.0,0.0,930.0,0.0,0.0
16603,39.0,52.0,600.0,8.0,0.0
16604,51.0,0.0,930.0,3.0,0.0
16605,58.0,0.0,930.0,3.0,0.0
16606,79.0,0.0,930.0,1.0,0.0
16607,75.0,0.0,930.0,1.0,0.0
16608,63.0,7.0,930.0,5.0,0.0
16609,75.0,0.0,930.0,5.0,0.0
16610,75.0,8.0,60.0,12.0,0.0
16611,63.0,0.0,930.0,2.0,0.0
16612,39.0,0.0,570.0,15.0,0.0
16613,67.0,0.0,930.0,2.0,0.0
16614,63.0,0.0,60.0,13.0,0.0
16615,55.0,0.0,600.0,7.0,0.0
16616,39.0,7.0,570.0,3.0,0.0
16617,58.0,0.0,600.0,6.0,0.0
16618,87.0,0.0,60.0,11.0,0.0
16619,87.0,0.0,930.0,0.0,0.0
16620,82.0,0.0,930.0,0.0,0.0
16621,63.0,0.0,930.0,4.0,0.0
16622,51.0,0.0,930.0,4.0,0.0
16623,39.0,52.0,60.0,10.0,0.0
16624,51.0,0.0,570.0,14.0,0.0
16625,63.0,8.0,60.0,13.0,0.0
16626,75.0,0.0,60.0,12.0,0.0
16627,87.0,0.0,60.0,11.0,0.0
16628,39.0,52.0,60.0,10.0,0.0
16629,63.0,0.0,60.0,13.0,0.0
16630,75.0,8.0,60.0,12.0,0.0
16631,87.0,0.0,60.0,11.0,0.0
16632,39.0,52.0,60.0,10.0,0.0
16633,87.0,8.0,60.0,11.0,0.0
16634,39.0,52.0,60.0,10.0,0.0
16635,75.0,0.0,60.0,12.0,0.0
16636,63.0,0.0,60.0,13.0,0.0
16637,87.0,0.0,60.0,11.0,0.0
16638,39.0,52.0,60.0,10.0,0.0
16639,75.0,8.0,60.0,12.0,0.0
16640,63.0,0.0,60.0,13.0,0.0
16641,75.0,8.0,60.0,12.0,0.0
16642,63.0,0.0,60.0,13.0,0.0
16643,39.0,52.0,60.0,10.0,0.0
16644,87.0,0.0,60.0,11.0,0.0
16645,63.0,0.0,60.0,13.0,0.0
16646,87.0,8.0,60.0,11.0,0.0
16647,75.0,0.0,60.0,12.0,0.0
16648,39.0,52.0,60.0,10.0,0.0
16649,87.0,0.0,60.0,11.0,0.0
16650,75.0,8.0,60.0,12.0,0.0
16651,39.0,52.0,60.0,10.0,0.0
16652,63.0,0.0,60.0,13.0,0.0
16653,39.0,0.0,120.0,10.0,0.0
16654,63.0,53.0,60.0,13.0,0.0
16655,87.0,0.0,60.0,11.0,0.0
16656,75.0,0.0,60.0,12.0,0.0
16657,63.0,0.0,60.0,13.0,0.0
16658,87.0,8.0,60.0,11.0,0.0
16659,75.0,0.0,60.0,12.0,0.0
16660,46.0,0.0,90.0,14.0,0.0
16661,70.0,0.0,60.0,12.0,0.0
16662,82.0,53.0,60.0,11.0,0.0
16663,58.0,0.0,60.0,13.0,0.0
16664,34.0,0.0,90.0,3.0,0.0
16665,34.0,7.0,90.0,15.0,0.0
16666,82.0,0.0,60.0,11.0,0.0
16667,70.0,0.0,60.0,12.0,0.0
16668,58.0,60.0,60.0,13.0,0.0
16669,31.0,7.0,90.0,3.0,0.0
16670,55.0,0.0,60.0,13.0,0.0
16671,67.0,0.0,60.0,12.0,0.0
16672,43.0,0.0,90.0,14.0,0.0
16673,79.0,53.0,60.0,11.0,0.0
16674,31.0,0.0,90.0,15.0,0.0
16675,79.0,60.0,60.0,11.0,0.0
16676,55.0,0.0,60.0,13.0,0.0
16677,67.0,0.0,60.0,12.0,0.0
16678,70.0,53.0,60.0,12.0,0.0
16679,46.0,0.0,90.0,14.0,0.0
16680,82.0,0.0,60.0,11.0,0.0
16681,34.0,0.0,90.0,15.0,0.0
16682,34.0,0.0,90.0,3.0,0.0
16683,58.0,0.0,60.0,13.0,0.0
16684,58.0,0.0,60.0,13.0,0.0
16685,70.0,0.0,60.0,12.0,0.0
16686,82.0,60.0,60.0,11.0,0.0
16687,39.0,0.0,240.0,8.0,0.0
16688,87.0,0.0,60.0,11.0,0.0
16689,63.0,0.0,210.0,2.0,0.0
16690,67.0,0.0,210.0,2.0,0.0
16691,51.0,0.0,90.0,14.0,0.0
16692,39.0,7.0,90.0,15.0,0.0
16693,39.0,0.0,90.0,3.0,0.0
16694,75.0,0.0,210.0,5.0,0.0
16695,51.0,7.0,210.0,4.0,0.0
16696,55.0,52.0,240.0,7.0,0.0
16697,75.0,0.0,60.0,12.0,0.0
16698,63.0,0.0,210.0,5.0,0.0
16699,63.0,0.0,210.0,4.0,0.0
16700,39.0,0.0,240.0,10.0,0.0
16701,51.0,0.0,210.0,3.0,0.0
16702,87.0,0.0,210.0,0.0,0.0
16703,58.0,0.0,210.0,3.0,0.0
16704,58.0,0.0,240.0,6.0,0.0
16705,91.0,0.0,210.0,0.0,0.0
16706,79.0,0.0,210.0,1.0,0.0
16707,82.0,0.0,210.0,0.0,0.0
16708,75.0,0.0,210.0,1.0,0.0
16709,63.0,53.0,60.0,13.0,0.0
16710,75.0,60.0,60.0,12.0,0.0
16711,63.0,0.0,60.0,13.0,0.0
16712,87.0,0.0,60.0,11.0,0.0
16713,46.0,0.0,90.0,15.0,0.0
16714,70.0,0.0,60.0,13.0,0.0
16715,46.0,0.0,90.0,3.0,0.0
16716,82.0,0.0,60.0,11.0,0.0
16717,58.0,0.0,90.0,14.0,0.0
16718,70.0,53.0,60.0,12.0,0.0
16719,70.0,0.0,60.0,13.0,0.0
16720,82.0,0.0,60.0,11.0,0.0
16721,70.0,8.0,60.0,12.0,0.0
16722,67.0,0.0,60.0,12.0,0.0
16723,75.0,0.0,90.0,1.0,0.0
16724,79.0,7.0,90.0,1.0,0.0
16725,63.0,0.0,90.0,2.0,0.0
16726,67.0,0.0,90.0,2.0,0.0
16727,51.0,0.0,90.0,4.0,0.0
16728,63.0,0.0,90.0,4.0,0.0
16729,79.0,53.0,60.0,11.0,0.0
16730,55.0,0.0,90.0,14.0,0.0
16731,67.0,0.0,60.0,13.0,0.0
16732,39.0,52.0,120.0,10.0,0.0
16733,58.0,0.0,90.0,3.0,0.0
16734,63.0,0.0,90.0,5.0,0.0
16735,75.0,0.0,90.0,5.0,0.0
16736,43.0,0.0,90.0,3.0,0.0
16737,43.0,0.0,90.0,15.0,0.0
16738,87.0,0.0,90.0,0.0,0.0
16739,82.0,0.0,90.0,0.0,0.0
16740,91.0,0.0,90.0,0.0,0.0
16741,51.0,0.0,90.0,3.0,0.0
16742,79.0,8.0,60.0,11.0,0.0
16743,67.0,0.0,60.0,12.0,0.0
16744,67.0,0.0,60.0,13.0,0.0
16745,39.0,52.0,120.0,10.0,0.0
16746,75.0,0.0,90.0,5.0,0.0
16747,82.0,0.0,60.0,11.0,0.0
16748,46.0,0.0,90.0,3.0,0.0
16749,46.0,0.0,90.0,15.0,0.0
16750,63.0,7.0,90.0,5.0,0.0
16751,87.0,0.0,90.0,0.0,0.0
16752,67.0,0.0,90.0,2.0,0.0
16753,91.0,0.0,90.0,0.0,0.0
16754,82.0,0.0,90.0,0.0,0.0
16755,63.0,0.0,90.0,2.0,0.0
16756,75.0,0.0,90.0,1.0,0.0
16757,79.0,0.0,90.0,1.0,0.0
16758,58.0,0.0,90.0,14.0,0.0
16759,70.0,0.0,60.0,12.0,0.0
16760,51.0,0.0,90.0,4.0,0.0
16761,63.0,0.0,90.0,4.0,0.0
16762,58.0,0.0,90.0,3.0,0.0
16763,51.0,0.0,90.0,3.0,0.0
16764,70.0,53.0,60.0,13.0,0.0
16765,70.0,0.0,60.0,13.0,0.0
16766,70.0,8.0,60.0,12.0,0.0
16767,82.0,0.0,60.0,11.0,0.0
16768,75.0,0.0,210.0,1.0,0.0
16769,70.0,53.0,60.0,12.0,0.0
16770,82.0,0.0,60.0,11.0,0.0
16771,58.0,0.0,240.0,6.0,0.0
16772,55.0,0.0,240.0,7.0,0.0
16773,79.0,0.0,210.0,1.0,0.0
16774,63.0,0.0,210.0,2.0,0.0
16775,70.0,0.0,60.0,13.0,0.0
16776,82.0,0.0,210.0,0.0,0.0
16777,63.0,0.0,210.0,5.0,0.0
16778,75.0,0.0,210.0,5.0,0.0
16779,91.0,7.0,210.0,0.0,0.0
16780,58.0,7.0,90.0,14.0,0.0
16781,39.0,52.0,240.0,10.0,0.0
16782,39.0,0.0,240.0,8.0,0.0
16783,63.0,0.0,210.0,4.0,0.0
16784,46.0,0.0,90.0,3.0,0.0
16785,51.0,0.0,210.0,4.0,0.0
16786,51.0,0.0,210.0,3.0,0.0
16787,87.0,0.0,210.0,0.0,0.0
16788,58.0,0.0,210.0,3.0,0.0
16789,46.0,0.0,90.0,15.0,0.0
16790,67.0,0.0,210.0,2.0,0.0
16791,82.0,0.0,60.0,11.0,0.0
16792,70.0,0.0,60.0,13.0,0.0
16793,70.0,60.0,60.0,12.0,0.0
16794,79.0,0.0,60.0,12.0,0.0
16795,67.0,0.0,60.0,13.0,0.0
16796,43.0,0.0,90.0,15.0,0.0
16797,79.0,53.0,60.0,11.0,0.0
16798,43.0,0.0,90.0,3.0,0.0
16799,55.0,0.0,90.0,14.0,0.0
16800,79.0,0.0,60.0,11.0,0.0
16801,79.0,0.0,60.0,12.0,0.0
16802,67.0,8.0,60.0,13.0,0.0
16803,82.0,7.0,90.0,0.0,0.0
16804,75.0,0.0,60.0,11.0,0.0
16805,75.0,0.0,60.0,12.0,0.0
16806,87.0,0.0,90.0,0.0,0.0
16807,63.0,53.0,60.0,13.0,0.0
16808,39.0,52.0,120.0,10.0,0.0
16809,39.0,0.0,90.0,3.0,0.0
16810,75.0,0.0,90.0,1.0,0.0
16811,79.0,0.0,90.0,1.0,0.0
16812,63.0,0.0,90.0,2.0,0.0
16813,51.0,0.0,90.0,3.0,0.0
16814,58.0,0.0,90.0,3.0,0.0
16815,91.0,0.0,90.0,0.0,0.0
16816,51.0,0.0,90.0,14.0,0.0
16817,63.0,0.0,90.0,5.0,0.0
16818,75.0,0.0,90.0,5.0,0.0
16819,63.0,0.0,90.0,4.0,0.0
16820,51.0,0.0,90.0,4.0,0.0
16821,39.0,0.0,90.0,15.0,0.0
16822,67.0,0.0,90.0,2.0,0.0
16823,63.0,0.0,60.0,13.0,0.0
16824,75.0,0.0,60.0,12.0,0.0
16825,75.0,8.0,60.0,11.0,0.0
16826,91.0,0.0,90.0,0.0,0.0
16827,63.0,0.0,90.0,4.0,0.0
16828,67.0,0.0,60.0,13.0,0.0
16829,79.0,0.0,90.0,1.0,0.0
16830,63.0,0.0,90.0,2.0,0.0
16831,75.0,0.0,90.0,1.0,0.0
16832,43.0,0.0,90.0,3.0,0.0
16833,75.0,0.0,90.0,5.0,0.0
16834,43.0,0.0,90.0,15.0,0.0
16835,39.0,52.0,120.0,10.0,0.0
16836,51.0,0.0,90.0,4.0,0.0
16837,79.0,53.0,60.0,11.0,0.0
16838,67.0,0.0,90.0,2.0,0.0
16839,87.0,0.0,90.0,0.0,0.0
16840,82.0,0.0,90.0,0.0,0.0
16841,79.0,0.0,60.0,12.0,0.0
16842,58.0,0.0,90.0,3.0,0.0
16843,63.0,0.0,90.0,5.0,0.0
16844,55.0,0.0,90.0,14.0,0.0
16845,51.0,7.0,90.0,3.0,0.0
16846,79.0,0.0,60.0,12.0,0.0
16847,67.0,0.0,60.0,13.0,0.0
16848,79.0,8.0,60.0,11.0,0.0
16849,87.0,0.0,210.0,0.0,0.0
16850,39.0,0.0,240.0,8.0,0.0
16851,82.0,7.0,210.0,0.0,0.0
16852,79.0,0.0,60.0,11.0,0.0
16853,58.0,0.0,240.0,6.0,0.0
16854,43.0,7.0,90.0,3.0,0.0
16855,79.0,0.0,60.0,12.0,0.0
16856,75.0,0.0,210.0,1.0,0.0
16857,79.0,0.0,210.0,1.0,0.0
16858,43.0,0.0,90.0,15.0,0.0
16859,55.0,0.0,90.0,14.0,0.0
16860,51.0,0.0,210.0,3.0,0.0
16861,58.0,0.0,210.0,3.0,0.0
16862,67.0,0.0,210.0,2.0,0.0
16863,63.0,0.0,210.0,4.0,0.0
16864,39.0,0.0,240.0,10.0,0.0
16865,51.0,0.0,210.0,4.0,0.0
16866,63.0,0.0,210.0,2.0,0.0
16867,67.0,53.0,60.0,13.0,0.0
16868,63.0,0.0,210.0,5.0,0.0
16869,75.0,0.0,210.0,5.0,0.0
16870,91.0,0.0,210.0,0.0,0.0
16871,55.0,52.0,240.0,7.0,0.0
16872,67.0,0.0,60.0,13.0,0.0
16873,79.0,60.0,60.0,11.0,0.0
16874,79.0,0.0,60.0,12.0,0.0
16875,75.0,0.0,60.0,12.0,0.0
16876,51.0,0.0,90.0,14.0,0.0
16877,63.0,0.0,60.0,13.0,0.0
16878,75.0,53.0,60.0,11.0,0.0
16879,39.0,0.0,90.0,3.0,0.0
16880,39.0,0.0,90.0,15.0,0.0
16881,75.0,8.0,60.0,11.0,0.0
16882,75.0,0.0,60.0,12.0,0.0
16883,63.0,0.0,60.0,13.0,0.0
16884,39.0,52.0,120.0,10.0,0.0
16885,67.0,0.0,90.0,2.0,0.0
16886,82.0,0.0,90.0,0.0,0.0
16887,87.0,0.0,90.0,0.0,0.0
16888,63.0,0.0,90.0,4.0,0.0
16889,91.0,0.0,90.0,0.0,0.0
16890,34.0,0.0,90.0,3.0,0.0
16891,58.0,0.0,90.0,3.0,0.0
16892,63.0,0.0,90.0,5.0,0.0
16893,75.0,0.0,90.0,5.0,0.0
16894,58.0,0.0,60.0,13.0,0.0
16895,51.0,0.0,90.0,3.0,0.0
16896,46.0,0.0,90.0,14.0,0.0
16897,63.0,0.0,90.0,2.0,0.0
16898,51.0,0.0,90.0,4.0,0.0
16899,34.0,0.0,90.0,15.0,0.0
16900,75.0,7.0,90.0,1.0,0.0
16901,70.0,0.0,60.0,11.0,0.0
16902,79.0,0.0,90.0,1.0,0.0
16903,70.0,53.0,60.0,12.0,0.0
16904,70.0,0.0,60.0,11.0,0.0
16905,58.0,8.0,60.0,13.0,0.0
16906,70.0,0.0,60.0,12.0,0.0
16907,82.0,0.0,90.0,0.0,0.0
16908,87.0,0.0,90.0,0.0,0.0
16909,39.0,52.0,120.0,10.0,0.0
16910,91.0,0.0,90.0,0.0,0.0
16911,63.0,0.0,90.0,2.0,0.0
16912,63.0,0.0,90.0,5.0,0.0
16913,75.0,0.0,90.0,1.0,0.0
16914,79.0,0.0,90.0,1.0,0.0
16915,75.0,0.0,60.0,12.0,0.0
16916,75.0,0.0,90.0,5.0,0.0
16917,51.0,0.0,90.0,4.0,0.0
16918,63.0,0.0,90.0,4.0,0.0
16919,39.0,0.0,90.0,3.0,0.0
16920,51.0,0.0,90.0,3.0,0.0
16921,58.0,0.0,90.0,3.0,0.0
16922,51.0,0.0,90.0,14.0,0.0
16923,39.0,7.0,90.0,15.0,0.0
16924,63.0,53.0,60.0,13.0,0.0
16925,67.0,0.0,90.0,2.0,0.0
16926,75.0,0.0,60.0,11.0,0.0
16927,75.0,0.0,60.0,12.0,0.0
16928,75.0,0.0,60.0,11.0,0.0
16929,63.0,8.0,60.0,13.0,0.0
16930,75.0,0.0,210.0,1.0,0.0
16931,79.0,7.0,210.0,1.0,0.0
16932,63.0,0.0,210.0,2.0,0.0
16933,67.0,0.0,210.0,2.0,0.0
16934,39.0,0.0,90.0,3.0,0.0
16935,39.0,7.0,90.0,15.0,0.0
16936,55.0,0.0,240.0,7.0,0.0
16937,63.0,0.0,60.0,13.0,0.0
16938,58.0,0.0,210.0,3.0,0.0
16939,75.0,0.0,210.0,5.0,0.0
16940,51.0,0.0,210.0,3.0,0.0
16941,51.0,0.0,90.0,14.0,0.0
16942,63.0,0.0,210.0,4.0,0.0
16943,82.0,0.0,210.0,0.0,0.0
16944,87.0,0.0,210.0,0.0,0.0
16945,63.0,0.0,210.0,5.0,0.0
16946,75.0,0.0,60.0,12.0,0.0
16947,51.0,0.0,210.0,4.0,0.0
16948,91.0,0.0,210.0,0.0,0.0
16949,39.0,0.0,240.0,8.0,0.0
16950,75.0,53.0,60.0,11.0,0.0
16951,58.0,0.0,240.0,6.0,0.0
16952,39.0,52.0,240.0,10.0,0.0
16953,63.0,0.0,60.0,13.0,0.0
16954,75.0,0.0,60.0,12.0,0.0
16955,75.0,60.0,60.0,11.0,0.0
16956,34.0,0.0,90.0,3.0,0.0
16957,70.0,53.0,60.0,11.0,0.0
16958,58.0,0.0,60.0,13.0,0.0
16959,46.0,0.0,90.0,14.0,0.0
16960,70.0,0.0,60.0,12.0,0.0
16961,34.0,0.0,90.0,15.0,0.0
16962,58.0,8.0,60.0,13.0,0.0
16963,70.0,0.0,60.0,12.0,0.0
16964,70.0,0.0,60.0,11.0,0.0
16965,43.0,0.0,90.0,14.0,0.0
16966,75.0,0.0,90.0,5.0,0.0
16967,51.0,0.0,90.0,3.0,0.0
16968,58.0,0.0,90.0,3.0,0.0
16969,91.0,0.0,90.0,0.0,0.0
16970,31.0,0.0,90.0,15.0,0.0
16971,63.0,0.0,90.0,5.0,0.0
16972,87.0,0.0,90.0,0.0,0.0
16973,79.0,7.0,90.0,1.0,0.0
16974,67.0,0.0,60.0,11.0,0.0
16975,39.0,52.0,120.0,10.0,0.0
16976,75.0,0.0,90.0,1.0,0.0
16977,67.0,0.0,60.0,12.0,0.0
16978,63.0,0.0,90.0,2.0,0.0
16979,67.0,0.0,90.0,2.0,0.0
16980,31.0,0.0,90.0,3.0,0.0
16981,55.0,53.0,60.0,13.0,0.0
16982,82.0,0.0,90.0,0.0,0.0
16983,63.0,0.0,90.0,4.0,0.0
16984,51.0,0.0,90.0,4.0,0.0
16985,55.0,0.0,60.0,13.0,0.0
16986,67.0,8.0,60.0,12.0,0.0
16987,67.0,0.0,60.0,11.0,0.0
16988,51.0,0.0,90.0,3.0,0.0
16989,63.0,0.0,90.0,5.0,0.0
16990,91.0,0.0,90.0,0.0,0.0
16991,75.0,0.0,90.0,5.0,0.0
16992,39.0,52.0,120.0,10.0,0.0
16993,58.0,0.0,90.0,3.0,0.0
16994,34.0,0.0,90.0,3.0,0.0
16995,63.0,0.0,90.0,2.0,0.0
16996,79.0,0.0,90.0,1.0,0.0
16997,82.0,0.0,90.0,0.0,0.0
16998,87.0,0.0,90.0,0.0,0.0
16999,34.0,0.0,90.0,15.0,0.0
17000,46.0,0.0,90.0,14.0,0.0
17001,70.0,53.0,60.0,12.0,0.0
17002,67.0,0.0,90.0,2.0,0.0
17003,58.0,0.0,60.0,13.0,0.0
17004,51.0,0.0,90.0,4.0,0.0
17005,63.0,7.0,90.0,4.0,0.0
17006,70.0,0.0,60.0,11.0,0.0
17007,75.0,0.0,90.0,1.0,0.0
17008,70.0,0.0,60.0,11.0,0.0
17009,58.0,0.0,60.0,13.0,0.0
17010,70.0,8.0,60.0,12.0,0.0
17011,70.0,0.0,60.0,11.0,0.0
17012,63.0,0.0,210.0,4.0,0.0
17013,75.0,0.0,210.0,1.0,0.0
17014,91.0,0.0,210.0,0.0,0.0
17015,51.0,0.0,210.0,3.0,0.0
17016,58.0,0.0,60.0,13.0,0.0
17017,58.0,0.0,240.0,6.0,0.0
17018,39.0,0.0,240.0,8.0,0.0
17019,58.0,0.0,210.0,3.0,0.0
17020,39.0,0.0,240.0,10.0,0.0
17021,70.0,53.0,60.0,12.0,0.0
17022,51.0,0.0,210.0,4.0,0.0
17023,34.0,0.0,90.0,3.0,0.0
17024,79.0,7.0,210.0,1.0,0.0
17025,75.0,0.0,210.0,5.0,0.0
17026,46.0,0.0,90.0,14.0,0.0
17027,63.0,0.0,210.0,2.0,0.0
17028,67.0,0.0,210.0,2.0,0.0
17029,34.0,7.0,90.0,15.0,0.0
17030,63.0,0.0,210.0,5.0,0.0
17031,87.0,0.0,210.0,0.0,0.0
17032,82.0,0.0,210.0,0.0,0.0
17033,55.0,52.0,240.0,7.0,0.0
17034,70.0,0.0,60.0,11.0,0.0
17035,58.0,0.0,60.0,13.0,0.0
17036,70.0,60.0,60.0,12.0,0.0
17037,67.0,0.0,60.0,12.0,0.0
17038,67.0,53.0,60.0,11.0,0.0
17039,31.0,0.0,90.0,15.0,0.0
17040,43.0,0.0,90.0,14.0,0.0
17041,55.0,0.0,60.0,13.0,0.0
17042,31.0,0.0,90.0,3.0,0.0
17043,67.0,0.0,60.0,12.0,0.0
17044,55.0,8.0,60.0,13.0,0.0
17045,67.0,0.0,60.0,11.0,0.0
17046,67.0,0.0,90.0,2.0,0.0
17047,63.0,0.0,90.0,2.0,0.0
17048,63.0,0.0,90.0,5.0,0.0
17049,63.0,0.0,90.0,4.0,0.0
17050,39.0,7.0,90.0,14.0,0.0
17051,51.0,0.0,60.0,13.0,0.0
17052,39.0,52.0,120.0,10.0,0.0
17053,82.0,0.0,90.0,0.0,0.0
17054,51.0,0.0,90.0,4.0,0.0
17055,87.0,0.0,90.0,0.0,0.0
17056,63.0,53.0,60.0,12.0,0.0
17057,27.0,0.0,90.0,3.0,0.0
17058,51.0,0.0,90.0,3.0,0.0
17059,58.0,0.0,90.0,3.0,0.0
17060,27.0,0.0,90.0,15.0,0.0
17061,75.0,0.0,90.0,5.0,0.0
17062,63.0,0.0,60.0,11.0,0.0
17063,75.0,0.0,90.0,1.0,0.0
17064,91.0,0.0,90.0,0.0,0.0
17065,79.0,0.0,90.0,1.0,0.0
17066,63.0,8.0,60.0,12.0,0.0
17067,63.0,0.0,60.0,11.0,0.0
17068,51.0,0.0,60.0,13.0,0.0
17069,79.0,0.0,90.0,1.0,0.0
17070,75.0,0.0,90.0,1.0,0.0
17071,39.0,52.0,120.0,10.0,0.0
17072,67.0,0.0,90.0,2.0,0.0
17073,67.0,0.0,60.0,11.0,0.0
17074,51.0,0.0,90.0,4.0,0.0
17075,91.0,0.0,90.0,0.0,0.0
17076,63.0,0.0,90.0,4.0,0.0
17077,51.0,0.0,90.0,3.0,0.0
17078,55.0,0.0,60.0,13.0,0.0
17079,58.0,0.0,90.0,3.0,0.0
17080,67.0,53.0,60.0,12.0,0.0
17081,43.0,0.0,90.0,3.0,0.0
17082,63.0,0.0,90.0,2.0,0.0
17083,55.0,0.0,90.0,14.0,0.0
17084,75.0,0.0,90.0,5.0,0.0
17085,82.0,0.0,90.0,0.0,0.0
17086,63.0,0.0,90.0,5.0,0.0
17087,87.0,7.0,90.0,0.0,0.0
17088,43.0,0.0,90.0,15.0,0.0
17089,67.0,8.0,60.0,11.0,0.0
17090,55.0,0.0,60.0,13.0,0.0
17091,67.0,0.0,60.0,12.0,0.0
17092,51.0,0.0,210.0,3.0,0.0
17093,39.0,0.0,240.0,8.0,0.0
17094,87.0,7.0,210.0,0.0,0.0
17095,91.0,0.0,210.0,0.0,0.0
17096,82.0,0.0,210.0,0.0,0.0
17097,58.0,0.0,210.0,3.0,0.0
17098,55.0,0.0,60.0,13.0,0.0
17099,63.0,0.0,210.0,2.0,0.0
17100,55.0,7.0,90.0,14.0,0.0
17101,67.0,0.0,210.0,2.0,0.0
17102,79.0,0.0,210.0,1.0,0.0
17103,43.0,0.0,90.0,3.0,0.0
17104,75.0,0.0,210.0,1.0,0.0
17105,55.0,0.0,240.0,7.0,0.0
17106,43.0,0.0,90.0,15.0,0.0
17107,63.0,0.0,210.0,5.0,0.0
17108,39.0,0.0,240.0,10.0,0.0
17109,67.0,53.0,60.0,12.0,0.0
17110,58.0,52.0,240.0,6.0,0.0
17111,75.0,0.0,210.0,5.0,0.0
17112,51.0,0.0,210.0,4.0,0.0
17113,67.0,0.0,60.0,11.0,0.0
17114,63.0,0.0,210.0,4.0,0.0
17115,67.0,60.0,60.0,12.0,0.0
17116,67.0,0.0,60.0,11.0,0.0
17117,55.0,0.0,60.0,13.0,0.0
17118,39.0,0.0,90.0,15.0,0.0
17119,63.0,53.0,60.0,12.0,0.0
17120,51.0,0.0,60.0,13.0,0.0
17121,63.0,0.0,60.0,11.0,0.0
17122,39.0,0.0,90.0,3.0,0.0
17123,51.0,0.0,90.0,14.0,0.0
17124,63.0,8.0,60.0,11.0,0.0
17125,63.0,0.0,60.0,12.0,0.0
17126,51.0,0.0,60.0,13.0,0.0
17127,51.0,0.0,90.0,3.0,0.0
17128,58.0,0.0,90.0,3.0,0.0
17129,82.0,0.0,90.0,0.0,0.0
17130,39.0,52.0,120.0,10.0,0.0
17131,46.0,53.0,60.0,13.0,0.0
17132,34.0,0.0,90.0,15.0,0.0
17133,79.0,0.0,90.0,1.0,0.0
17134,75.0,0.0,90.0,1.0,0.0
17135,58.0,0.0,60.0,11.0,0.0
17136,63.0,0.0,90.0,2.0,0.0
17137,67.0,0.0,90.0,2.0,0.0
17138,58.0,0.0,60.0,12.0,0.0
17139,87.0,0.0,90.0,0.0,0.0
17140,63.0,7.0,90.0,5.0,0.0
17141,46.0,0.0,90.0,14.0,0.0
17142,51.0,0.0,90.0,4.0,0.0
17143,63.0,0.0,90.0,4.0,0.0
17144,91.0,0.0,90.0,0.0,0.0
17145,34.0,0.0,90.0,3.0,0.0
17146,75.0,0.0,90.0,5.0,0.0
17147,46.0,0.0,60.0,13.0,0.0
17148,58.0,0.0,60.0,11.0,0.0
17149,58.0,8.0,60.0,12.0,0.0
17150,82.0,0.0,90.0,0.0,0.0
17151,63.0,0.0,90.0,4.0,0.0
17152,91.0,7.0,90.0,0.0,0.0
17153,63.0,0.0,90.0,2.0,0.0
17154,67.0,0.0,90.0,2.0,0.0
17155,51.0,0.0,90.0,14.0,0.0
17156,51.0,53.0,60.0,13.0,0.0
17157,63.0,0.0,60.0,11.0,0.0
17158,63.0,0.0,60.0,12.0,0.0
17159,39.0,0.0,90.0,3.0,0.0
17160,87.0,0.0,90.0,0.0,0.0
17161,39.0,0.0,90.0,15.0,0.0
17162,51.0,0.0,90.0,4.0,0.0
17163,39.0,52.0,120.0,10.0,0.0
17164,75.0,0.0,90.0,5.0,0.0
17165,75.0,0.0,90.0,1.0,0.0
17166,63.0,0.0,90.0,5.0,0.0
17167,51.0,0.0,90.0,3.0,0.0
17168,58.0,0.0,90.0,3.0,0.0
17169,79.0,0.0,90.0,1.0,0.0
17170,63.0,0.0,60.0,11.0,0.0
17171,51.0,0.0,60.0,13.0,0.0
17172,63.0,8.0,60.0,12.0,0.0
17173,63.0,0.0,210.0,2.0,0.0
17174,39.0,52.0,240.0,10.0,0.0
17175,39.0,0.0,240.0,8.0,0.0
17176,63.0,0.0,210.0,4.0,0.0
17177,58.0,0.0,240.0,6.0,0.0
17178,87.0,0.0,210.0,0.0,0.0
17179,63.0,0.0,210.0,5.0,0.0
17180,82.0,7.0,210.0,0.0,0.0
17181,79.0,0.0,210.0,1.0,0.0
17182,75.0,0.0,210.0,1.0,0.0
17183,55.0,0.0,240.0,7.0,0.0
17184,91.0,0.0,210.0,0.0,0.0
17185,51.0,0.0,210.0,4.0,0.0
17186,75.0,0.0,210.0,5.0,0.0
17187,67.0,0.0,210.0,2.0,0.0
17188,39.0,0.0,90.0,15.0,0.0
17189,51.0,0.0,90.0,14.0,0.0
17190,58.0,0.0,210.0,3.0,0.0
17191,51.0,0.0,210.0,3.0,0.0
17192,63.0,0.0,60.0,12.0,0.0
17193,39.0,7.0,90.0,3.0,0.0
17194,63.0,53.0,60.0,11.0,0.0
17195,51.0,0.0,60.0,13.0,0.0
17196,63.0,0.0,60.0,12.0,0.0
17197,63.0,60.0,60.0,11.0,0.0
17198,51.0,0.0,60.0,13.0,0.0
17199,58.0,53.0,60.0,13.0,0.0
17200,58.0,0.0,60.0,11.0,0.0
17201,46.0,0.0,90.0,14.0,0.0
17202,58.0,0.0,60.0,12.0,0.0
17203,34.0,0.0,90.0,3.0,0.0
17204,34.0,0.0,90.0,15.0,0.0
17205,58.0,8.0,60.0,12.0,0.0
17206,58.0,0.0,60.0,13.0,0.0
17207,58.0,0.0,60.0,11.0,0.0
17208,82.0,0.0,90.0,0.0,0.0
17209,39.0,52.0,120.0,10.0,0.0
17210,43.0,0.0,90.0,14.0,0.0
17211,58.0,0.0,90.0,3.0,0.0
17212,51.0,0.0,90.0,4.0,0.0
17213,67.0,7.0,90.0,2.0,0.0
17214,63.0,0.0,90.0,2.0,0.0
17215,87.0,0.0,90.0,0.0,0.0
17216,55.0,0.0,60.0,12.0,0.0
17217,63.0,0.0,90.0,4.0,0.0
17218,51.0,0.0,90.0,3.0,0.0
17219,91.0,0.0,90.0,0.0,0.0
17220,31.0,0.0,90.0,3.0,0.0
17221,31.0,0.0,90.0,15.0,0.0
17222,79.0,0.0,90.0,1.0,0.0
17223,55.0,0.0,60.0,11.0,0.0
17224,63.0,0.0,90.0,5.0,0.0
17225,75.0,0.0,90.0,1.0,0.0
17226,55.0,53.0,60.0,13.0,0.0
17227,75.0,0.0,90.0,5.0,0.0
17228,55.0,0.0,60.0,11.0,0.0
17229,55.0,0.0,60.0,12.0,0.0
17230,55.0,8.0,60.0,13.0,0.0
17231,51.0,0.0,90.0,3.0,0.0
17232,58.0,0.0,90.0,3.0,0.0
17233,82.0,0.0,90.0,0.0,0.0
17234,34.0,0.0,90.0,15.0,0.0
17235,58.0,0.0,60.0,13.0,0.0
17236,67.0,0.0,90.0,2.0,0.0
17237,58.0,53.0,60.0,11.0,0.0
17238,79.0,0.0,90.0,1.0,0.0
17239,46.0,0.0,90.0,14.0,0.0
17240,39.0,52.0,120.0,10.0,0.0
17241,75.0,0.0,90.0,1.0,0.0
17242,63.0,0.0,90.0,2.0,0.0
17243,51.0,0.0,90.0,4.0,0.0
17244,34.0,0.0,90.0,3.0,0.0
17245,63.0,0.0,90.0,5.0,0.0
17246,58.0,0.0,60.0,12.0,0.0
17247,87.0,0.0,90.0,0.0,0.0
17248,75.0,0.0,90.0,5.0,0.0
17249,91.0,0.0,90.0,0.0,0.0
17250,63.0,7.0,90.0,4.0,0.0
17251,58.0,0.0,60.0,13.0,0.0
17252,58.0,0.0,60.0,11.0,0.0
17253,58.0,8.0,60.0,12.0,0.0
17254,58.0,0.0,210.0,3.0,0.0
17255,39.0,0.0,90.0,15.0,0.0
17256,75.0,0.0,210.0,5.0,0.0
17257,51.0,0.0,210.0,3.0,0.0
17258,63.0,0.0,210.0,5.0,0.0
17259,67.0,0.0,210.0,2.0,0.0
17260,63.0,0.0,210.0,4.0,0.0
17261,63.0,0.0,60.0,13.0,0.0
17262,63.0,53.0,60.0,12.0,0.0
17263,82.0,7.0,210.0,0.0,0.0
17264,39.0,0.0,240.0,10.0,0.0
17265,39.0,52.0,240.0,8.0,0.0
17266,79.0,0.0,210.0,1.0,0.0
17267,75.0,0.0,210.0,1.0,0.0
17268,55.0,0.0,240.0,7.0,0.0
17269,51.0,7.0,90.0,14.0,0.0
17270,87.0,0.0,210.0,0.0,0.0
17271,58.0,0.0,240.0,6.0,0.0
17272,63.0,0.0,60.0,11.0,0.0
17273,51.0,0.0,210.0,4.0,0.0
17274,91.0,0.0,210.0,0.0,0.0
17275,63.0,0.0,210.0,2.0,0.0
17276,39.0,0.0,90.0,3.0,0.0
17277,63.0,60.0,60.0,13.0,0.0
17278,63.0,0.0,60.0,11.0,0.0
17279,63.0,0.0,60.0,12.0,0.0
17280,34.0,0.0,90.0,3.0,0.0
17281,46.0,0.0,90.0,14.0,0.0
17282,58.0,0.0,60.0,11.0,0.0
17283,34.0,0.0,90.0,15.0,0.0
17284,58.0,53.0,60.0,12.0,0.0
17285,58.0,0.0,60.0,13.0,0.0
17286,58.0,8.0,60.0,12.0,0.0
17287,58.0,0.0,60.0,13.0,0.0
17288,58.0,0.0,60.0,11.0,0.0
17289,91.0,0.0,90.0,0.0,0.0
17290,67.0,0.0,90.0,2.0,0.0
17291,87.0,0.0,90.0,0.0,0.0
17292,63.0,0.0,90.0,2.0,0.0
17293,82.0,0.0,90.0,0.0,0.0
17294,55.0,53.0,60.0,12.0,0.0
17295,75.0,0.0,90.0,1.0,0.0
17296,55.0,0.0,60.0,13.0,0.0
17297,51.0,0.0,90.0,4.0,0.0
17298,63.0,0.0,90.0,4.0,0.0
17299,51.0,0.0,90.0,3.0,0.0
17300,58.0,0.0,90.0,3.0,0.0
17301,63.0,7.0,90.0,5.0,0.0
17302,39.0,52.0,120.0,10.0,0.0
17303,31.0,0.0,90.0,15.0,0.0
17304,31.0,0.0,90.0,3.0,0.0
17305,75.0,0.0,90.0,5.0,0.0
17306,55.0,0.0,60.0,11.0,0.0
17307,43.0,0.0,90.0,14.0,0.0
17308,79.0,0.0,90.0,1.0,0.0
17309,55.0,0.0,60.0,11.0,0.0
17310,55.0,8.0,60.0,12.0,0.0
17311,55.0,0.0,60.0,13.0,0.0
17312,46.0,0.0,90.0,14.0,0.0
17313,79.0,0.0,90.0,1.0,0.0
17314,75.0,0.0,90.0,1.0,0.0
17315,75.0,0.0,90.0,5.0,0.0
17316,87.0,0.0,90.0,0.0,0.0
17317,63.0,7.0,90.0,4.0,0.0
17318,63.0,0.0,90.0,5.0,0.0
17319,58.0,53.0,60.0,11.0,0.0
17320,39.0,60.0,120.0,10.0,0.0
17321,34.0,0.0,90.0,3.0,0.0
17322,34.0,0.0,90.0,15.0,0.0
17323,58.0,0.0,90.0,3.0,0.0
17324,51.0,0.0,90.0,3.0,0.0
17325,82.0,0.0,90.0,0.0,0.0
17326,51.0,0.0,90.0,4.0,0.0
17327,58.0,0.0,60.0,13.0,0.0
17328,58.0,0.0,60.0,12.0,0.0
17329,91.0,0.0,90.0,0.0,0.0
17330,63.0,0.0,90.0,2.0,0.0
17331,67.0,0.0,90.0,2.0,0.0
17332,58.0,0.0,60.0,13.0,0.0
17333,58.0,8.0,60.0,12.0,0.0
17334,58.0,0.0,60.0,11.0,0.0
17335,39.0,0.0,930.0,14.0,0.0
17336,51.0,0.0,930.0,13.0,0.0
17337,63.0,0.0,930.0,13.0,0.0
17338,63.0,0.0,2850.0,5.0,0.0
17339,58.0,0.0,2850.0,3.0,0.0
17340,27.0,0.0,930.0,3.0,0.0
17341,91.0,0.0,2850.0,0.0,0.0
17342,63.0,0.0,2850.0,4.0,0.0
17343,51.0,15.0,930.0,12.0,0.0
17344,63.0,0.0,930.0,12.0,0.0
17345,75.0,0.0,2850.0,5.0,0.0
17346,51.0,0.0,2850.0,4.0,0.0
17347,51.0,0.0,930.0,11.0,0.0
17348,75.0,0.0,2850.0,1.0,0.0
17349,27.0,0.0,930.0,15.0,0.0
17350,39.0,60.0,60.0,10.0,0.0
17351,55.0,0.0,2850.0,7.0,0.0
17352,51.0,0.0,2850.0,3.0,0.0
17353,67.0,0.0,2850.0,2.0,0.0
17354,63.0,0.0,930.0,11.0,0.0
17355,87.0,0.0,2850.0,0.0,0.0
17356,82.0,0.0,2850.0,0.0,0.0
17357,63.0,0.0,2850.0,6.0,0.0
17358,79.0,0.0,2850.0,1.0,0.0
17359,39.0,0.0,2850.0,8.0,0.0
17360,63.0,15.0,2850.0,2.0,0.0
17361,39.0,60.0,60.0,10.0,0.0
17362,39.0,60.0,60.0,10.0,0.0
17363,39.0,60.0,60.0,10.0,0.0
17364,39.0,60.0,60.0,10.0,0.0
17365,39.0,60.0,60.0,10.0,0.0
17366,39.0,60.0,60.0,10.0,0.0
17367,39.0,60.0,60.0,10.0,0.0
17368,39.0,60.0,60.0,10.0,0.0
17369,39.0,60.0,60.0,10.0,0.0
17370,39.0,60.0,60.0,10.0,0.0
17371,39.0,60.0,60.0,10.0,0.0
17372,39.0,60.0,60.0,10.0,0.0
17373,39.0,60.0,60.0,10.0,0.0
17374,39.0,45.0,60.0,10.0,0.0
17375,39.0,60.0,60.0,10.0,0.0
17376,27.0,0.0,930.0,15.0,0.0
17377,51.0,0.0,240.0,11.0,0.0
17378,51.0,0.0,240.0,12.0,0.0
17379,58.0,0.0,240.0,12.0,0.0
17380,39.0,60.0,60.0,10.0,0.0
17381,39.0,0.0,930.0,14.0,0.0
17382,58.0,0.0,240.0,13.0,0.0
17383,51.0,0.0,240.0,13.0,0.0
17384,67.0,15.0,930.0,13.0,0.0
17385,67.0,0.0,930.0,11.0,0.0
17386,58.0,0.0,240.0,11.0,0.0
17387,27.0,0.0,930.0,3.0,0.0
17388,67.0,0.0,930.0,12.0,0.0
17389,39.0,60.0,60.0,10.0,0.0
17390,39.0,60.0,60.0,10.0,0.0
17391,39.0,60.0,60.0,10.0,0.0
17392,39.0,60.0,60.0,10.0,0.0
17393,39.0,60.0,60.0,10.0,0.0
17394,39.0,60.0,60.0,10.0,0.0
17395,39.0,60.0,60.0,10.0,0.0
17396,39.0,60.0,60.0,10.0,0.0
17397,39.0,60.0,60.0,10.0,0.0
17398,39.0,60.0,60.0,10.0,0.0
17399,39.0,60.0,60.0,10.0,0.0
17400,39.0,60.0,60.0,10.0,0.0
17401,39.0,60.0,60.0,10.0,0.0
17402,39.0,45.0,60.0,10.0,0.0
17403,39.0,60.0,60.0,10.0,0.0
17404,51.0,0.0,240.0,13.0,0.0
17405,67.0,0.0,930.0,13.0,0.0
17406,58.0,0.0,240.0,12.0,0.0
17407,58.0,0.0,240.0,11.0,0.0
17408,39.0,0.0,930.0,14.0,0.0
17409,58.0,0.0,240.0,13.0,0.0
17410,51.0,60.0,240.0,11.0,0.0
17411,70.0,0.0,930.0,12.0,0.0
17412,27.0,0.0,930.0,15.0,0.0
17413,51.0,0.0,240.0,12.0,0.0
17414,39.0,60.0,60.0,10.0,0.0
17415,70.0,0.0,930.0,11.0,0.0
17416,27.0,0.0,930.0,3.0,0.0
17417,39.0,60.0,60.0,10.0,0.0
17418,39.0,60.0,60.0,10.0,0.0
17419,39.0,0.0,60.0,10.0,0.0
17420,39.0,60.0,60.0,10.0,0.0
17421,39.0,60.0,60.0,10.0,0.0
17422,39.0,60.0,60.0,10.0,0.0
17423,39.0,60.0,60.0,10.0,0.0
17424,39.0,60.0,60.0,10.0,0.0
17425,39.0,60.0,60.0,10.0,0.0
17426,39.0,60.0,60.0,10.0,0.0
17427,39.0,60.0,60.0,10.0,0.0
17428,39.0,60.0,60.0,10.0,0.0
17429,39.0,60.0,60.0,10.0,0.0
17430,39.0,45.0,60.0,10.0,0.0
17431,39.0,240.0,60.0,10.0,0.0
17432,39.0,0.0,240.0,10.0,0.0
17433,75.0,0.0,240.0,5.0,0.0
17434,63.0,0.0,240.0,5.0,0.0
17435,67.0,0.0,240.0,2.0,0.0
17436,27.0,0.0,240.0,15.0,0.0
17437,82.0,0.0,240.0,0.0,0.0
17438,63.0,0.0,240.0,4.0,0.0
17439,39.0,720.0,240.0,3.0,0.0
17440,51.0,0.0,240.0,3.0,0.0
17441,63.0,0.0,240.0,2.0,0.0
17442,39.0,0.0,240.0,8.0,0.0
17443,27.0,0.0,240.0,3.0,0.0
17444,87.0,0.0,240.0,0.0,0.0
17445,55.0,0.0,240.0,7.0,0.0
17446,67.0,0.0,240.0,11.0,0.0
17447,75.0,0.0,240.0,11.0,0.0
17448,58.0,0.0,240.0,11.0,0.0
17449,51.0,0.0,240.0,4.0,0.0
17450,51.0,0.0,240.0,11.0,0.0
17451,63.0,0.0,240.0,13.0,0.0
17452,51.0,0.0,240.0,13.0,0.0
17453,67.0,0.0,240.0,12.0,0.0
17454,75.0,0.0,240.0,12.0,0.0
17455,39.0,0.0,240.0,14.0,0.0
17456,63.0,0.0,240.0,6.0,0.0
17457,67.0,0.0,240.0,1.0,0.0
17458,75.0,0.0,240.0,1.0,0.0
17459,51.0,0.0,240.0,12.0,0.0
17460,58.0,0.0,240.0,12.0,0.0
17461,63.0,720.0,240.0,11.0,0.0
17462,63.0,720.0,240.0,11.0,0.0
17463,63.0,720.0,240.0,11.0,0.0
17464,63.0,720.0,240.0,11.0,0.0
17465,63.0,720.0,240.0,11.0,0.0
17466,63.0,700.0,240.0,11.0,0.0
17467,63.0,240.0,210.0,11.0,0.0
17468,63.0,240.0,210.0,11.0,0.0
17469,63.0,260.0,210.0,11.0,0.0
17470,44.0,0.0,240.0,14.0,0.0
17471,56.0,700.0,240.0,13.0,0.0
17472,63.0,0.0,240.0,11.0,0.0
17473,59.0,0.0,240.0,12.0,0.0
17474,63.0,20.0,210.0,11.0,0.0
17475,46.0,0.0,240.0,14.0,0.0
17476,55.0,220.0,240.0,13.0,0.0
17477,61.0,0.0,240.0,12.0,0.0
17478,63.0,240.0,210.0,11.0,0.0
17479,63.0,260.0,210.0,11.0,0.0
17480,63.0,0.0,240.0,11.0,0.0
17481,47.0,0.0,240.0,14.0,0.0
17482,56.0,700.0,240.0,13.0,0.0
17483,59.0,0.0,240.0,12.0,0.0
17484,61.0,0.0,240.0,11.0,0.0
17485,51.0,0.0,240.0,13.0,0.0
17486,61.0,20.0,210.0,2.0,0.0
17487,43.0,0.0,240.0,14.0,0.0
17488,63.0,0.0,210.0,2.0,0.0
17489,58.0,220.0,240.0,12.0,0.0
17490,61.0,240.0,210.0,2.0,0.0
17491,63.0,0.0,210.0,2.0,0.0
17492,61.0,0.0,210.0,2.0,0.0
17493,63.0,260.0,210.0,2.0,0.0
17494,59.0,0.0,240.0,11.0,0.0
17495,56.0,0.0,240.0,12.0,0.0
17496,51.0,460.0,240.0,13.0,0.0
17497,63.0,0.0,690.0,2.0,0.0
17498,59.0,20.0,690.0,2.0,0.0
17499,44.0,0.0,240.0,14.0,0.0
17500,42.0,240.0,240.0,14.0,0.0
17501,63.0,0.0,240.0,2.0,0.0
17502,66.0,0.0,240.0,2.0,0.0
17503,40.0,0.0,240.0,14.0,0.0
17504,49.0,0.0,240.0,13.0,0.0
17505,61.0,0.0,240.0,11.0,0.0
17506,56.0,220.0,240.0,12.0,0.0
17507,61.0,200.0,210.0,2.0,0.0
17508,64.0,0.0,210.0,2.0,0.0
17509,41.0,240.0,240.0,14.0,0.0
17510,59.0,0.0,180.0,2.0,0.0
17511,63.0,60.0,180.0,2.0,0.0
17512,61.0,0.0,240.0,2.0,0.0
17513,58.0,0.0,240.0,2.0,0.0
17514,42.0,0.0,240.0,14.0,0.0
17515,58.0,700.0,240.0,11.0,0.0
17516,49.0,0.0,240.0,13.0,0.0
17517,54.0,0.0,240.0,12.0,0.0
17518,68.0,20.0,210.0,11.0,0.0
17519,48.0,0.0,240.0,13.0,0.0
17520,60.0,220.0,240.0,12.0,0.0
17521,44.0,0.0,240.0,14.0,0.0
17522,68.0,240.0,210.0,11.0,0.0
17523,68.0,260.0,210.0,11.0,0.0
17524,64.0,700.0,240.0,12.0,0.0
17525,49.0,0.0,240.0,14.0,0.0
17526,68.0,0.0,240.0,11.0,0.0
17527,52.0,0.0,240.0,13.0,0.0
17528,51.0,220.0,240.0,14.0,0.0
17529,60.0,0.0,240.0,12.0,0.0
17530,54.0,0.0,240.0,13.0,0.0
17531,68.0,20.0,210.0,11.0,0.0
17532,68.0,240.0,210.0,11.0,0.0
17533,68.0,260.0,210.0,11.0,0.0
17534,56.0,0.0,240.0,13.0,0.0
17535,61.0,0.0,240.0,12.0,0.0
17536,52.0,0.0,240.0,14.0,0.0
17537,68.0,700.0,240.0,11.0,0.0
17538,60.0,0.0,240.0,11.0,0.0
17539,42.0,0.0,240.0,14.0,0.0
17540,68.0,20.0,210.0,1.0,0.0
17541,56.0,0.0,240.0,12.0,0.0
17542,51.0,220.0,240.0,13.0,0.0
17543,68.0,240.0,210.0,1.0,0.0
17544,68.0,260.0,210.0,1.0,0.0
17545,61.0,0.0,240.0,11.0,0.0
17546,40.0,0.0,240.0,14.0,0.0
17547,68.0,260.0,690.0,1.0,0.0
17548,49.0,460.0,240.0,13.0,0.0
17549,56.0,0.0,240.0,12.0,0.0
17550,71.0,0.0,240.0,1.0,0.0
17551,62.0,0.0,240.0,11.0,0.0
17552,56.0,0.0,240.0,12.0,0.0
17553,40.0,0.0,240.0,14.0,0.0
17554,56.0,220.0,240.0,13.0,0.0
17555,70.0,200.0,210.0,1.0,0.0
17556,68.0,300.0,180.0,1.0,0.0
17557,55.0,0.0,240.0,12.0,0.0
17558,39.0,0.0,240.0,14.0,0.0
17559,75.0,220.0,2160.0,1.0,0.0
17560,63.0,0.0,240.0,11.0,0.0
17561,58.0,700.0,240.0,13.0,0.0
17562,61.0,0.0,210.0,13.0,0.0
17563,58.0,240.0,210.0,13.0,0.0
17564,61.0,0.0,210.0,2.0,0.0
17565,58.0,0.0,210.0,2.0,0.0
17566,61.0,0.0,210.0,2.0,0.0
17567,58.0,0.0,210.0,2.0,0.0
17568,61.0,0.0,210.0,13.0,0.0
17569,58.0,240.0,210.0,13.0,0.0
17570,58.0,0.0,210.0,13.0,0.0
17571,61.0,0.0,210.0,13.0,0.0
17572,61.0,0.0,210.0,2.0,0.0
17573,58.0,260.0,210.0,2.0,0.0
17574,59.0,0.0,240.0,2.0,0.0
17575,56.0,0.0,240.0,2.0,0.0
17576,59.0,0.0,240.0,13.0,0.0
17577,56.0,480.0,240.0,13.0,0.0
17578,74.0,240.0,720.0,1.0,0.0
17579,56.0,220.0,240.0,12.0,0.0
17580,56.0,0.0,210.0,2.0,0.0
17581,59.0,0.0,210.0,2.0,0.0
17582,59.0,0.0,240.0,11.0,0.0
17583,51.0,0.0,240.0,11.0,0.0
17584,39.0,0.0,240.0,14.0,0.0
17585,59.0,0.0,210.0,13.0,0.0
17586,56.0,20.0,210.0,13.0,0.0
17587,39.0,0.0,210.0,4.0,0.0
17588,51.0,0.0,210.0,4.0,0.0
17589,59.0,0.0,210.0,2.0,0.0
17590,56.0,240.0,210.0,13.0,0.0
17591,59.0,0.0,210.0,13.0,0.0
17592,56.0,0.0,210.0,2.0,0.0
17593,51.0,0.0,210.0,4.0,0.0
17594,39.0,0.0,210.0,4.0,0.0
17595,59.0,0.0,210.0,2.0,0.0
17596,56.0,0.0,210.0,2.0,0.0
17597,39.0,20.0,210.0,4.0,0.0
17598,51.0,0.0,210.0,4.0,0.0
17599,59.0,0.0,210.0,13.0,0.0
17600,56.0,0.0,210.0,13.0,0.0
17601,58.0,0.0,240.0,2.0,0.0
17602,39.0,0.0,240.0,4.0,0.0
17603,51.0,0.0,240.0,4.0,0.0
17604,55.0,0.0,240.0,2.0,0.0
17605,39.0,0.0,240.0,14.0,0.0
17606,51.0,0.0,240.0,11.0,0.0
17607,58.0,700.0,240.0,11.0,0.0
17608,55.0,0.0,240.0,12.0,0.0
17609,55.0,0.0,240.0,13.0,0.0
17610,58.0,0.0,240.0,13.0,0.0
17611,75.0,220.0,2160.0,1.0,0.0
17612,61.0,240.0,210.0,2.0,0.0
17613,61.0,0.0,210.0,13.0,0.0
17614,58.0,0.0,210.0,13.0,0.0
17615,58.0,0.0,210.0,2.0,0.0
17616,58.0,0.0,210.0,13.0,0.0
17617,61.0,240.0,210.0,13.0,0.0
17618,61.0,0.0,210.0,2.0,0.0
17619,58.0,0.0,210.0,2.0,0.0
17620,61.0,0.0,210.0,13.0,0.0
17621,58.0,0.0,210.0,13.0,0.0
17622,61.0,260.0,210.0,2.0,0.0
17623,58.0,0.0,210.0,2.0,0.0
17624,56.0,0.0,240.0,13.0,0.0
17625,59.0,480.0,240.0,13.0,0.0
17626,59.0,0.0,240.0,2.0,0.0
17627,56.0,0.0,240.0,2.0,0.0
17628,56.0,0.0,210.0,2.0,0.0
17629,56.0,220.0,240.0,12.0,0.0
17630,59.0,20.0,210.0,2.0,0.0
17631,59.0,0.0,240.0,11.0,0.0
17632,39.0,0.0,240.0,14.0,0.0
17633,51.0,0.0,210.0,4.0,0.0
17634,74.0,240.0,720.0,1.0,0.0
17635,56.0,0.0,210.0,13.0,0.0
17636,51.0,0.0,240.0,11.0,0.0
17637,59.0,0.0,210.0,13.0,0.0
17638,39.0,0.0,210.0,4.0,0.0
17639,59.0,0.0,210.0,2.0,0.0
17640,56.0,0.0,210.0,2.0,0.0
17641,56.0,240.0,210.0,13.0,0.0
17642,51.0,0.0,210.0,4.0,0.0
17643,39.0,0.0,210.0,4.0,0.0
17644,59.0,0.0,210.0,13.0,0.0
17645,56.0,20.0,210.0,13.0,0.0
17646,39.0,0.0,210.0,4.0,0.0
17647,59.0,0.0,210.0,13.0,0.0
17648,56.0,0.0,210.0,2.0,0.0
17649,59.0,0.0,210.0,2.0,0.0
17650,51.0,0.0,210.0,4.0,0.0
17651,55.0,0.0,240.0,2.0,0.0
17652,39.0,0.0,240.0,4.0,0.0
17653,51.0,0.0,240.0,4.0,0.0
17654,55.0,0.0,240.0,12.0,0.0
17655,55.0,0.0,240.0,13.0,0.0
17656,58.0,0.0,240.0,13.0,0.0
17657,58.0,0.0,240.0,2.0,0.0
17658,39.0,0.0,240.0,14.0,0.0
17659,58.0,0.0,240.0,11.0,0.0
17660,51.0,460.0,240.0,11.0,0.0
17661,75.0,240.0,690.0,1.0,0.0
17662,58.0,0.0,210.0,13.0,0.0
17663,73.0,220.0,1440.0,1.0,0.0
17664,39.0,0.0,210.0,4.0,0.0
17665,58.0,0.0,210.0,2.0,0.0
17666,55.0,0.0,210.0,2.0,0.0
17667,51.0,240.0,210.0,4.0,0.0
17668,55.0,0.0,210.0,13.0,0.0
17669,58.0,0.0,210.0,2.0,0.0
17670,39.0,0.0,210.0,4.0,0.0
17671,55.0,0.0,210.0,2.0,0.0
17672,58.0,0.0,210.0,13.0,0.0
17673,55.0,0.0,210.0,13.0,0.0
17674,51.0,240.0,210.0,4.0,0.0
17675,58.0,0.0,210.0,13.0,0.0
17676,39.0,0.0,210.0,4.0,0.0
17677,55.0,260.0,210.0,2.0,0.0
17678,55.0,0.0,210.0,13.0,0.0
17679,58.0,0.0,210.0,2.0,0.0
17680,51.0,0.0,210.0,4.0,0.0
17681,58.0,0.0,240.0,13.0,0.0
17682,55.0,0.0,240.0,2.0,0.0
17683,51.0,0.0,240.0,4.0,0.0
17684,55.0,0.0,240.0,13.0,0.0
17685,39.0,0.0,240.0,4.0,0.0
17686,58.0,480.0,240.0,2.0,0.0
17687,51.0,0.0,210.0,4.0,0.0
17688,55.0,0.0,210.0,2.0,0.0
17689,70.0,220.0,1440.0,1.0,0.0
17690,55.0,240.0,210.0,13.0,0.0
17691,58.0,0.0,210.0,2.0,0.0
17692,39.0,0.0,210.0,4.0,0.0
17693,58.0,0.0,210.0,13.0,0.0
17694,51.0,0.0,210.0,4.0,0.0
17695,55.0,0.0,210.0,13.0,0.0
17696,58.0,240.0,210.0,2.0,0.0
17697,55.0,0.0,210.0,2.0,0.0
17698,58.0,0.0,210.0,13.0,0.0
17699,39.0,0.0,210.0,4.0,0.0
17700,51.0,0.0,210.0,4.0,0.0
17701,55.0,0.0,210.0,13.0,0.0
17702,58.0,0.0,210.0,13.0,0.0
17703,39.0,0.0,210.0,4.0,0.0
17704,55.0,260.0,210.0,2.0,0.0
17705,58.0,0.0,210.0,2.0,0.0
17706,58.0,0.0,240.0,2.0,0.0
17707,39.0,0.0,240.0,4.0,0.0
17708,51.0,0.0,240.0,4.0,0.0
17709,55.0,0.0,240.0,13.0,0.0
17710,55.0,480.0,240.0,2.0,0.0
17711,58.0,0.0,240.0,13.0,0.0
17712,55.0,0.0,210.0,13.0,0.0
17713,58.0,0.0,210.0,2.0,0.0
17714,55.0,0.0,210.0,2.0,0.0
17715,58.0,0.0,210.0,13.0,0.0
17716,67.0,220.0,1440.0,1.0,0.0
17717,39.0,0.0,210.0,4.0,0.0
17718,51.0,240.0,210.0,4.0,0.0
17719,39.0,240.0,210.0,4.0,0.0
17720,55.0,0.0,210.0,2.0,0.0
17721,58.0,0.0,210.0,13.0,0.0
17722,55.0,0.0,210.0,13.0,0.0
17723,51.0,0.0,210.0,4.0,0.0
17724,58.0,0.0,210.0,2.0,0.0
17725,58.0,0.0,210.0,2.0,0.0
17726,55.0,260.0,210.0,2.0,0.0
17727,58.0,0.0,210.0,13.0,0.0
17728,39.0,0.0,210.0,4.0,0.0
17729,55.0,0.0,210.0,13.0,0.0
17730,51.0,0.0,210.0,4.0,0.0
17731,55.0,0.0,240.0,13.0,0.0
17732,58.0,480.0,240.0,13.0,0.0
17733,58.0,0.0,240.0,2.0,0.0
17734,55.0,0.0,240.0,2.0,0.0
17735,51.0,0.0,240.0,4.0,0.0
17736,39.0,0.0,240.0,4.0,0.0
17737,51.0,0.0,210.0,4.0,0.0
17738,39.0,0.0,210.0,4.0,0.0
17739,55.0,0.0,210.0,2.0,0.0
17740,58.0,240.0,210.0,2.0,0.0
17741,55.0,0.0,210.0,13.0,0.0
17742,70.0,240.0,1410.0,1.0,0.0
17743,58.0,0.0,210.0,13.0,0.0
17744,51.0,0.0,210.0,4.0,0.0
17745,55.0,240.0,210.0,2.0,0.0
17746,58.0,0.0,210.0,2.0,0.0
17747,58.0,0.0,210.0,13.0,0.0
17748,55.0,0.0,210.0,13.0,0.0
17749,39.0,0.0,210.0,4.0,0.0
17750,58.0,0.0,210.0,13.0,0.0
17751,58.0,0.0,210.0,2.0,0.0
17752,55.0,260.0,210.0,2.0,0.0
17753,55.0,0.0,210.0,13.0,0.0
17754,39.0,0.0,210.0,4.0,0.0
17755,51.0,0.0,210.0,4.0,0.0
17756,39.0,0.0,240.0,4.0,0.0
17757,51.0,0.0,240.0,4.0,0.0
17758,55.0,0.0,240.0,13.0,0.0
17759,58.0,460.0,240.0,13.0,0.0
17760,58.0,0.0,240.0,2.0,0.0
17761,55.0,0.0,240.0,2.0,0.0
17762,58.0,0.0,210.0,13.0,0.0
17763,61.0,0.0,1440.0,3.0,0.0
17764,58.0,240.0,210.0,2.0,0.0
17765,73.0,0.0,1440.0,1.0,0.0
17766,55.0,0.0,210.0,2.0,0.0
17767,55.0,0.0,210.0,13.0,0.0
17768,39.0,0.0,210.0,4.0,0.0
17769,85.0,220.0,1440.0,0.0,0.0
17770,51.0,0.0,210.0,4.0,0.0
17771,58.0,0.0,210.0,2.0,0.0
17772,55.0,0.0,210.0,2.0,0.0
17773,39.0,240.0,210.0,4.0,0.0
17774,58.0,0.0,210.0,13.0,0.0
17775,55.0,0.0,210.0,13.0,0.0
17776,51.0,0.0,210.0,4.0,0.0
17777,51.0,260.0,210.0,4.0,0.0
17778,39.0,0.0,210.0,4.0,0.0
17779,55.0,0.0,210.0,2.0,0.0
17780,58.0,0.0,210.0,2.0,0.0
17781,58.0,0.0,210.0,13.0,0.0
17782,55.0,0.0,210.0,13.0,0.0
17783,51.0,0.0,240.0,4.0,0.0
17784,39.0,0.0,240.0,4.0,0.0
17785,55.0,480.0,240.0,2.0,0.0
17786,58.0,0.0,240.0,2.0,0.0
17787,58.0,0.0,240.0,13.0,0.0
17788,55.0,0.0,240.0,13.0,0.0
17789,58.0,0.0,1440.0,3.0,0.0
17790,55.0,0.0,210.0,2.0,0.0
17791,58.0,0.0,210.0,2.0,0.0
17792,70.0,0.0,1440.0,1.0,0.0
17793,55.0,0.0,210.0,13.0,0.0
17794,58.0,240.0,210.0,13.0,0.0
17795,82.0,220.0,1440.0,0.0,0.0
17796,51.0,0.0,210.0,4.0,0.0
17797,39.0,0.0,210.0,4.0,0.0
17798,55.0,0.0,210.0,13.0,0.0
17799,55.0,0.0,210.0,2.0,0.0
17800,58.0,0.0,210.0,13.0,0.0
17801,51.0,240.0,210.0,4.0,0.0
17802,58.0,0.0,210.0,2.0,0.0
17803,39.0,0.0,210.0,4.0,0.0
17804,39.0,0.0,210.0,4.0,0.0
17805,51.0,0.0,210.0,4.0,0.0
17806,58.0,0.0,210.0,13.0,0.0
17807,55.0,0.0,210.0,2.0,0.0
17808,58.0,260.0,210.0,2.0,0.0
17809,55.0,0.0,210.0,13.0,0.0
17810,39.0,480.0,240.0,4.0,0.0
17811,51.0,0.0,240.0,4.0,0.0
17812,55.0,0.0,240.0,2.0,0.0
17813,58.0,0.0,240.0,2.0,0.0
17814,58.0,0.0,240.0,13.0,0.0
17815,55.0,0.0,240.0,13.0,0.0
17816,67.0,0.0,1440.0,1.0,0.0
17817,51.0,0.0,210.0,4.0,0.0
17818,55.0,0.0,1440.0,3.0,0.0
17819,55.0,0.0,210.0,13.0,0.0
17820,79.0,220.0,1440.0,0.0,0.0
17821,55.0,0.0,210.0,2.0,0.0
17822,58.0,0.0,210.0,2.0,0.0
17823,58.0,0.0,210.0,13.0,0.0
17824,39.0,240.0,210.0,4.0,0.0
17825,58.0,0.0,210.0,13.0,0.0
17826,51.0,0.0,210.0,4.0,0.0
17827,39.0,0.0,210.0,4.0,0.0
17828,55.0,0.0,210.0,13.0,0.0
17829,58.0,0.0,210.0,2.0,0.0
17830,55.0,240.0,210.0,2.0,0.0
17831,55.0,0.0,210.0,13.0,0.0
17832,58.0,0.0,210.0,13.0,0.0
17833,51.0,0.0,210.0,4.0,0.0
17834,39.0,0.0,210.0,4.0,0.0
17835,55.0,260.0,210.0,2.0,0.0
17836,58.0,0.0,210.0,2.0,0.0
17837,55.0,0.0,240.0,13.0,0.0
17838,58.0,0.0,240.0,13.0,0.0
17839,51.0,480.0,240.0,4.0,0.0
17840,39.0,0.0,240.0,4.0,0.0
17841,55.0,0.0,240.0,2.0,0.0
17842,58.0,0.0,240.0,2.0,0.0
17843,58.0,240.0,210.0,13.0,0.0
17844,70.0,220.0,1440.0,1.0,0.0
17845,82.0,0.0,1440.0,0.0,0.0
17846,58.0,0.0,210.0,4.0,0.0
17847,55.0,0.0,210.0,2.0,0.0
17848,58.0,0.0,1440.0,3.0,0.0
17849,58.0,0.0,210.0,2.0,0.0
17850,51.0,0.0,210.0,4.0,0.0
17851,55.0,0.0,210.0,13.0,0.0
17852,51.0,0.0,210.0,4.0,0.0
17853,58.0,240.0,210.0,4.0,0.0
17854,55.0,0.0,210.0,13.0,0.0
17855,58.0,0.0,210.0,13.0,0.0
17856,55.0,0.0,210.0,2.0,0.0
17857,58.0,0.0,210.0,2.0,0.0
17858,51.0,0.0,210.0,4.0,0.0
17859,58.0,0.0,210.0,4.0,0.0
17860,55.0,0.0,210.0,2.0,0.0
17861,58.0,0.0,210.0,2.0,0.0
17862,55.0,240.0,210.0,13.0,0.0
17863,58.0,0.0,210.0,13.0,0.0
17864,55.0,0.0,210.0,13.0,0.0
17865,58.0,0.0,210.0,13.0,0.0
17866,55.0,0.0,210.0,2.0,0.0
17867,58.0,0.0,210.0,2.0,0.0
17868,58.0,0.0,210.0,4.0,0.0
17869,51.0,240.0,210.0,4.0,0.0
17870,58.0,0.0,210.0,4.0,0.0
17871,58.0,0.0,210.0,13.0,0.0
17872,51.0,0.0,210.0,4.0,0.0
17873,55.0,0.0,210.0,2.0,0.0
17874,58.0,240.0,210.0,2.0,0.0
17875,55.0,0.0,210.0,13.0,0.0
17876,55.0,0.0,210.0,2.0,0.0
17877,58.0,0.0,210.0,2.0,0.0
17878,58.0,0.0,210.0,4.0,0.0
17879,51.0,0.0,210.0,4.0,0.0
17880,58.0,0.0,210.0,13.0,0.0
17881,55.0,20.0,210.0,13.0,0.0
17882,73.0,0.0,1440.0,1.0,0.0
17883,55.0,0.0,210.0,2.0,0.0
17884,58.0,0.0,210.0,13.0,0.0
17885,55.0,0.0,210.0,13.0,0.0
17886,61.0,220.0,1440.0,3.0,0.0
17887,51.0,240.0,210.0,4.0,0.0
17888,58.0,0.0,210.0,4.0,0.0
17889,58.0,0.0,210.0,2.0,0.0
17890,85.0,0.0,1440.0,0.0,0.0
17891,58.0,0.0,210.0,13.0,0.0
17892,55.0,240.0,210.0,13.0,0.0
17893,51.0,0.0,210.0,4.0,0.0
17894,58.0,0.0,210.0,4.0,0.0
17895,55.0,0.0,210.0,2.0,0.0
17896,58.0,0.0,210.0,2.0,0.0
17897,58.0,240.0,210.0,2.0,0.0
17898,58.0,0.0,210.0,4.0,0.0
17899,55.0,0.0,210.0,13.0,0.0
17900,58.0,0.0,210.0,13.0,0.0
17901,51.0,0.0,210.0,4.0,0.0
17902,55.0,0.0,210.0,2.0,0.0
17903,55.0,0.0,210.0,2.0,0.0
17904,58.0,0.0,210.0,13.0,0.0
17905,58.0,0.0,210.0,4.0,0.0
17906,55.0,0.0,210.0,13.0,0.0
17907,58.0,240.0,210.0,2.0,0.0
17908,51.0,0.0,210.0,4.0,0.0
17909,51.0,240.0,210.0,4.0,0.0
17910,58.0,0.0,210.0,13.0,0.0
17911,55.0,0.0,210.0,13.0,0.0
17912,58.0,0.0,210.0,2.0,0.0
17913,58.0,0.0,210.0,4.0,0.0
17914,55.0,0.0,210.0,2.0,0.0
17915,55.0,0.0,210.0,13.0,0.0
17916,58.0,0.0,210.0,4.0,0.0
17917,55.0,0.0,210.0,2.0,0.0
17918,58.0,0.0,210.0,2.0,0.0
17919,58.0,0.0,210.0,13.0,0.0
17920,51.0,20.0,210.0,4.0,0.0
17921,51.0,0.0,210.0,4.0,0.0
17922,58.0,0.0,210.0,2.0,0.0
17923,55.0,0.0,210.0,2.0,0.0
17924,58.0,0.0,690.0,3.0,0.0
17925,82.0,0.0,690.0,0.0,0.0
17926,58.0,0.0,210.0,4.0,0.0
17927,55.0,240.0,210.0,13.0,0.0
17928,70.0,0.0,690.0,1.0,0.0
17929,58.0,0.0,210.0,13.0,0.0
17930,58.0,0.0,210.0,13.0,0.0
17931,55.0,0.0,210.0,2.0,0.0
17932,58.0,0.0,210.0,2.0,0.0
17933,51.0,0.0,210.0,4.0,0.0
17934,55.0,240.0,210.0,13.0,0.0
17935,58.0,0.0,210.0,4.0,0.0
17936,58.0,0.0,210.0,2.0,0.0
17937,55.0,0.0,210.0,2.0,0.0
17938,58.0,0.0,210.0,4.0,0.0
17939,58.0,0.0,210.0,13.0,0.0
17940,55.0,0.0,210.0,13.0,0.0
17941,51.0,140.0,210.0,4.0,0.0
17942,58.0,0.0,210.0,2.0,0.0
17943,55.0,0.0,210.0,2.0,0.0
17944,58.0,0.0,210.0,4.0,0.0
17945,55.0,0.0,210.0,13.0,0.0
17946,55.0,0.0,720.0,3.0,0.0
17947,51.0,20.0,210.0,4.0,0.0
17948,44.0,100.0,120.0,10.0,0.0
17949,67.0,0.0,720.0,1.0,0.0
17950,79.0,0.0,720.0,0.0,0.0
17951,58.0,0.0,210.0,13.0,0.0
17952,44.0,120.0,120.0,10.0,0.0
17953,44.0,100.0,120.0,10.0,0.0
17954,51.0,20.0,210.0,4.0,0.0
17955,58.0,0.0,210.0,2.0,0.0
17956,58.0,0.0,210.0,13.0,0.0
17957,55.0,0.0,210.0,13.0,0.0
17958,58.0,0.0,210.0,4.0,0.0
17959,55.0,0.0,210.0,2.0,0.0
17960,44.0,120.0,120.0,10.0,0.0
17961,58.0,0.0,210.0,4.0,0.0
17962,58.0,0.0,210.0,2.0,0.0
17963,44.0,100.0,120.0,10.0,0.0
17964,55.0,0.0,210.0,13.0,0.0
17965,51.0,20.0,210.0,4.0,0.0
17966,58.0,0.0,210.0,13.0,0.0
17967,55.0,0.0,210.0,2.0,0.0
17968,44.0,120.0,120.0,10.0,0.0
17969,44.0,100.0,120.0,10.0,0.0
17970,58.0,0.0,720.0,3.0,0.0
17971,58.0,0.0,210.0,4.0,0.0
17972,58.0,0.0,210.0,2.0,0.0
17973,55.0,20.0,210.0,2.0,0.0
17974,70.0,0.0,720.0,1.0,0.0
17975,58.0,0.0,210.0,13.0,0.0
17976,55.0,0.0,210.0,13.0,0.0
17977,82.0,0.0,720.0,0.0,0.0
17978,51.0,0.0,210.0,4.0,0.0
17979,44.0,120.0,120.0,10.0,0.0
17980,55.0,0.0,210.0,2.0,0.0
17981,58.0,0.0,210.0,13.0,0.0
17982,55.0,20.0,210.0,13.0,0.0
17983,44.0,100.0,120.0,10.0,0.0
17984,51.0,0.0,210.0,4.0,0.0
17985,58.0,0.0,210.0,4.0,0.0
17986,58.0,0.0,210.0,2.0,0.0
17987,44.0,120.0,120.0,10.0,0.0
17988,55.0,0.0,210.0,13.0,0.0
17989,44.0,100.0,120.0,10.0,0.0
17990,55.0,0.0,210.0,2.0,0.0
17991,58.0,20.0,210.0,4.0,0.0
17992,51.0,0.0,210.0,4.0,0.0
17993,58.0,0.0,210.0,2.0,0.0
17994,58.0,0.0,210.0,13.0,0.0
17995,44.0,100.0,120.0,10.0,0.0
17996,61.0,0.0,720.0,3.0,0.0
17997,73.0,100.0,720.0,1.0,0.0
17998,79.0,0.0,90.0,11.0,0.0
17999,58.0,0.0,210.0,4.0,0.0
18000,51.0,0.0,210.0,4.0,0.0
18001,58.0,0.0,210.0,13.0,0.0
18002,32.0,0.0,90.0,15.0,0.0
18003,55.0,0.0,210.0,2.0,0.0
18004,70.0,0.0,90.0,12.0,0.0
18005,44.0,100.0,120.0,10.0,0.0
18006,85.0,0.0,720.0,0.0,0.0
18007,55.0,20.0,210.0,13.0,0.0
18008,44.0,20.0,90.0,14.0,0.0
18009,58.0,0.0,210.0,2.0,0.0
18010,79.0,0.0,90.0,11.0,0.0
18011,32.0,0.0,90.0,15.0,0.0
18012,44.0,0.0,90.0,14.0,0.0
18013,44.0,100.0,120.0,10.0,0.0
18014,70.0,0.0,90.0,12.0,0.0
18015,70.0,20.0,90.0,12.0,0.0
18016,51.0,0.0,210.0,4.0,0.0
18017,58.0,0.0,210.0,4.0,0.0
18018,58.0,0.0,210.0,13.0,0.0
18019,58.0,0.0,210.0,2.0,0.0
18020,79.0,0.0,90.0,11.0,0.0
18021,55.0,0.0,210.0,13.0,0.0
18022,44.0,0.0,90.0,14.0,0.0
18023,32.0,0.0,90.0,15.0,0.0
18024,44.0,100.0,120.0,10.0,0.0
18025,55.0,0.0,210.0,2.0,0.0
18026,44.0,0.0,90.0,14.0,0.0
18027,70.0,0.0,90.0,12.0,0.0
18028,79.0,20.0,90.0,11.0,0.0
18029,44.0,100.0,120.0,10.0,0.0
18030,32.0,0.0,90.0,15.0,0.0
18031,44.0,20.0,90.0,14.0,0.0
18032,55.0,0.0,210.0,13.0,0.0
18033,58.0,0.0,210.0,4.0,0.0
18034,58.0,0.0,210.0,13.0,0.0
18035,70.0,0.0,90.0,12.0,0.0
18036,44.0,100.0,120.0,10.0,0.0
18037,55.0,0.0,210.0,2.0,0.0
18038,32.0,0.0,90.0,15.0,0.0
18039,79.0,0.0,90.0,11.0,0.0
18040,58.0,0.0,210.0,2.0,0.0
18041,51.0,20.0,210.0,4.0,0.0
18042,44.0,0.0,90.0,14.0,0.0
18043,79.0,0.0,90.0,11.0,0.0
18044,32.0,0.0,90.0,15.0,0.0
18045,44.0,0.0,120.0,10.0,0.0
18046,70.0,0.0,90.0,12.0,0.0
18047,79.0,0.0,90.0,11.0,0.0
18048,44.0,100.0,120.0,10.0,0.0
18049,70.0,20.0,90.0,12.0,0.0
18050,32.0,0.0,90.0,15.0,0.0
18051,67.0,0.0,690.0,1.0,0.0
18052,51.0,0.0,210.0,4.0,0.0
18053,44.0,0.0,90.0,14.0,0.0
18054,58.0,0.0,210.0,2.0,0.0
18055,58.0,0.0,210.0,4.0,0.0
18056,79.0,0.0,690.0,0.0,0.0
18057,55.0,0.0,690.0,3.0,0.0
18058,55.0,0.0,210.0,13.0,0.0
18059,55.0,0.0,210.0,2.0,0.0
18060,58.0,0.0,210.0,13.0,0.0
18061,44.0,100.0,120.0,10.0,0.0
18062,79.0,0.0,90.0,11.0,0.0
18063,32.0,0.0,90.0,15.0,0.0
18064,44.0,0.0,90.0,14.0,0.0
18065,70.0,20.0,90.0,12.0,0.0
18066,32.0,0.0,90.0,15.0,0.0
18067,44.0,100.0,120.0,10.0,0.0
18068,70.0,0.0,90.0,12.0,0.0
18069,58.0,0.0,210.0,4.0,0.0
18070,55.0,0.0,210.0,13.0,0.0
18071,58.0,0.0,210.0,13.0,0.0
18072,79.0,0.0,90.0,11.0,0.0
18073,58.0,0.0,210.0,2.0,0.0
18074,44.0,20.0,90.0,14.0,0.0
18075,51.0,0.0,210.0,4.0,0.0
18076,55.0,0.0,210.0,2.0,0.0
18077,44.0,100.0,120.0,10.0,0.0
18078,79.0,20.0,90.0,11.0,0.0
18079,44.0,0.0,90.0,14.0,0.0
18080,32.0,0.0,90.0,15.0,0.0
18081,70.0,0.0,90.0,12.0,0.0
18082,58.0,0.0,210.0,4.0,0.0
18083,55.0,0.0,210.0,2.0,0.0
18084,58.0,0.0,210.0,2.0,0.0
18085,51.0,20.0,210.0,4.0,0.0
18086,44.0,0.0,90.0,14.0,0.0
18087,70.0,0.0,90.0,12.0,0.0
18088,79.0,0.0,90.0,11.0,0.0
18089,55.0,0.0,210.0,13.0,0.0
18090,44.0,100.0,120.0,10.0,0.0
18091,32.0,20.0,90.0,15.0,0.0
18092,58.0,0.0,210.0,13.0,0.0
18093,44.0,0.0,90.0,14.0,0.0
18094,79.0,0.0,90.0,11.0,0.0
18095,32.0,0.0,90.0,15.0,0.0
18096,70.0,0.0,90.0,12.0,0.0
18097,44.0,52.0,120.0,10.0,0.0
18098,44.0,0.0,240.0,10.0,0.0
18099,48.0,0.0,450.0,4.0,0.0
18100,44.0,60.0,60.0,13.0,0.0
18101,56.0,0.0,450.0,4.0,0.0
18102,32.0,0.0,240.0,3.0,0.0
18103,80.0,0.0,180.0,0.0,0.0
18104,56.0,0.0,60.0,13.0,0.0
18105,32.0,0.0,240.0,15.0,0.0
18106,51.0,0.0,180.0,12.0,0.0
18107,44.0,0.0,450.0,8.0,0.0
18108,80.0,0.0,180.0,11.0,0.0
18109,63.0,0.0,180.0,11.0,0.0
18110,68.0,0.0,450.0,6.0,0.0
18111,72.0,52.0,180.0,11.0,0.0
18112,68.0,0.0,180.0,12.0,0.0
18113,60.0,0.0,450.0,5.0,0.0
18114,60.0,0.0,450.0,2.0,0.0
18115,68.0,0.0,450.0,5.0,0.0
18116,44.0,0.0,240.0,14.0,0.0
18117,60.0,0.0,180.0,12.0,0.0
18118,32.0,52.0,240.0,14.0,0.0
18119,56.0,7.0,450.0,2.0,0.0
18120,44.0,0.0,450.0,3.0,0.0
18121,60.0,0.0,450.0,7.0,0.0
18122,56.0,0.0,450.0,3.0,0.0
18123,68.0,0.0,450.0,1.0,0.0
18124,60.0,0.0,450.0,1.0,0.0
18125,56.0,0.0,60.0,13.0,0.0
18126,44.0,60.0,60.0,13.0,0.0
18127,56.0,0.0,60.0,13.0,0.0
18128,44.0,8.0,60.0,13.0,0.0
18129,56.0,0.0,60.0,13.0,0.0
18130,44.0,8.0,60.0,13.0,0.0
18131,44.0,60.0,60.0,13.0,0.0
18132,56.0,0.0,60.0,13.0,0.0
18133,56.0,60.0,60.0,13.0,0.0
18134,44.0,0.0,60.0,13.0,0.0
18135,56.0,53.0,60.0,13.0,0.0
18136,44.0,0.0,60.0,13.0,0.0
18137,56.0,0.0,60.0,13.0,0.0
18138,44.0,60.0,60.0,13.0,0.0
18139,32.0,0.0,240.0,15.0,0.0
18140,68.0,0.0,450.0,2.0,0.0
18141,72.0,0.0,450.0,2.0,0.0
18142,44.0,60.0,60.0,13.0,0.0
18143,56.0,0.0,60.0,13.0,0.0
18144,60.0,0.0,450.0,6.0,0.0
18145,44.0,0.0,240.0,10.0,0.0
18146,44.0,0.0,450.0,8.0,0.0
18147,56.0,0.0,450.0,7.0,0.0
18148,72.0,0.0,180.0,11.0,0.0
18149,80.0,0.0,180.0,0.0,0.0
18150,32.0,0.0,240.0,14.0,0.0
18151,84.0,0.0,180.0,0.0,0.0
18152,48.0,0.0,450.0,3.0,0.0
18153,44.0,0.0,450.0,3.0,0.0
18154,32.0,0.0,240.0,3.0,0.0
18155,68.0,0.0,450.0,5.0,0.0
18156,72.0,0.0,450.0,5.0,0.0
18157,72.0,0.0,450.0,1.0,0.0
18158,44.0,52.0,240.0,14.0,0.0
18159,56.0,0.0,450.0,4.0,0.0
18160,51.0,0.0,180.0,11.0,0.0
18161,68.0,0.0,180.0,11.0,0.0
18162,68.0,0.0,450.0,1.0,0.0
18163,72.0,0.0,180.0,12.0,0.0
18164,60.0,52.0,180.0,11.0,0.0
18165,60.0,0.0,180.0,12.0,0.0
18166,60.0,7.0,450.0,4.0,0.0
18167,51.0,0.0,180.0,12.0,0.0
18168,68.0,0.0,180.0,12.0,0.0
18169,56.0,60.0,60.0,13.0,0.0
18170,44.0,0.0,60.0,13.0,0.0
18171,44.0,8.0,60.0,13.0,0.0
18172,56.0,0.0,60.0,13.0,0.0
18173,44.0,8.0,60.0,13.0,0.0
18174,56.0,0.0,60.0,13.0,0.0
18175,56.0,0.0,60.0,13.0,0.0
18176,44.0,60.0,60.0,13.0,0.0
18177,44.0,60.0,60.0,13.0,0.0
18178,56.0,0.0,60.0,13.0,0.0
18179,56.0,0.0,60.0,13.0,0.0
18180,44.0,53.0,60.0,13.0,0.0
18181,56.0,0.0,60.0,13.0,0.0
18182,44.0,60.0,60.0,13.0,0.0
18183,60.0,0.0,690.0,4.0,0.0
18184,60.0,0.0,690.0,7.0,0.0
18185,75.0,0.0,690.0,2.0,0.0
18186,72.0,0.0,690.0,2.0,0.0
18187,68.0,0.0,240.0,12.0,0.0
18188,63.0,0.0,690.0,6.0,0.0
18189,51.0,0.0,240.0,12.0,0.0
18190,60.0,0.0,240.0,12.0,0.0
18191,84.0,0.0,690.0,0.0,0.0
18192,63.0,0.0,690.0,4.0,0.0
18193,75.0,0.0,690.0,12.0,0.0
18194,51.0,52.0,240.0,11.0,0.0
18195,51.0,0.0,690.0,3.0,0.0
18196,72.0,0.0,690.0,5.0,0.0
18197,75.0,0.0,690.0,5.0,0.0
18198,44.0,0.0,690.0,14.0,0.0
18199,32.0,0.0,690.0,14.0,0.0
18200,44.0,60.0,60.0,13.0,0.0
18201,56.0,0.0,60.0,13.0,0.0
18202,32.0,0.0,690.0,15.0,0.0
18203,87.0,0.0,240.0,0.0,0.0
18204,48.0,0.0,690.0,3.0,0.0
18205,72.0,7.0,690.0,1.0,0.0
18206,32.0,0.0,690.0,3.0,0.0
18207,75.0,0.0,690.0,1.0,0.0
18208,60.0,0.0,240.0,11.0,0.0
18209,44.0,0.0,690.0,8.0,0.0
18210,44.0,0.0,240.0,10.0,0.0
18211,68.0,0.0,240.0,11.0,0.0
18212,75.0,0.0,690.0,11.0,0.0
18213,44.0,0.0,60.0,13.0,0.0
18214,56.0,60.0,60.0,13.0,0.0
18215,56.0,0.0,60.0,13.0,0.0
18216,44.0,60.0,60.0,13.0,0.0
18217,56.0,8.0,60.0,13.0,0.0
18218,44.0,0.0,60.0,13.0,0.0
18219,44.0,0.0,60.0,13.0,0.0
18220,56.0,60.0,60.0,13.0,0.0
18221,44.0,0.0,60.0,13.0,0.0
18222,56.0,60.0,60.0,13.0,0.0
18223,44.0,0.0,60.0,13.0,0.0
18224,56.0,60.0,60.0,13.0,0.0
18225,56.0,60.0,60.0,13.0,0.0
18226,44.0,0.0,60.0,13.0,0.0
18227,44.0,0.0,60.0,13.0,0.0
18228,56.0,60.0,60.0,13.0,0.0
18229,56.0,0.0,60.0,13.0,0.0
18230,44.0,60.0,60.0,13.0,0.0
18231,56.0,0.0,60.0,13.0,0.0
18232,44.0,53.0,60.0,13.0,0.0
18233,44.0,0.0,60.0,13.0,0.0
18234,56.0,60.0,60.0,13.0,0.0
18235,67.0,0.0,120.0,11.0,0.0
18236,49.0,0.0,120.0,3.0,0.0
18237,46.0,0.0,120.0,3.0,0.0
18238,58.0,0.0,120.0,12.0,0.0
18239,61.0,0.0,120.0,6.0,0.0
18240,73.0,0.0,120.0,11.0,0.0
18241,39.0,0.0,120.0,8.0,0.0
18242,61.0,0.0,120.0,4.0,0.0
18243,70.0,0.0,120.0,5.0,0.0
18244,73.0,0.0,120.0,1.0,0.0
18245,70.0,0.0,120.0,1.0,0.0
18246,27.0,0.0,120.0,3.0,0.0
18247,51.0,0.0,120.0,11.0,0.0
18248,58.0,0.0,120.0,4.0,0.0
18249,27.0,0.0,120.0,15.0,0.0
18250,58.0,0.0,120.0,11.0,0.0
18251,39.0,0.0,120.0,10.0,0.0
18252,51.0,0.0,120.0,12.0,0.0
18253,73.0,0.0,120.0,12.0,0.0
18254,73.0,0.0,120.0,5.0,0.0
18255,85.0,0.0,120.0,0.0,0.0
18256,82.0,52.0,120.0,0.0,0.0
18257,55.0,60.0,60.0,13.0,0.0
18258,46.0,0.0,60.0,13.0,0.0
18259,39.0,0.0,120.0,14.0,0.0
18260,70.0,0.0,120.0,2.0,0.0
18261,73.0,0.0,120.0,2.0,0.0
18262,67.0,0.0,120.0,12.0,0.0
18263,58.0,0.0,120.0,7.0,0.0
18264,55.0,0.0,60.0,13.0,0.0
18265,46.0,8.0,60.0,13.0,0.0
18266,55.0,0.0,60.0,13.0,0.0
18267,46.0,60.0,60.0,13.0,0.0
18268,46.0,0.0,60.0,13.0,0.0
18269,55.0,60.0,60.0,13.0,0.0
18270,68.0,0.0,120.0,5.0,0.0
18271,72.0,0.0,120.0,5.0,0.0
18272,68.0,0.0,120.0,2.0,0.0
18273,72.0,0.0,120.0,1.0,0.0
18274,44.0,0.0,120.0,8.0,0.0
18275,56.0,60.0,60.0,13.0,0.0
18276,44.0,0.0,60.0,13.0,0.0
18277,68.0,52.0,120.0,1.0,0.0
18278,44.0,0.0,120.0,14.0,0.0
18279,32.0,0.0,120.0,15.0,0.0
18280,80.0,0.0,120.0,0.0,0.0
18281,51.0,0.0,120.0,11.0,0.0
18282,72.0,0.0,120.0,11.0,0.0
18283,60.0,0.0,120.0,6.0,0.0
18284,72.0,0.0,120.0,12.0,0.0
18285,60.0,0.0,120.0,12.0,0.0
18286,51.0,0.0,120.0,12.0,0.0
18287,68.0,0.0,120.0,12.0,0.0
18288,56.0,0.0,120.0,7.0,0.0
18289,60.0,0.0,120.0,11.0,0.0
18290,32.0,0.0,120.0,3.0,0.0
18291,44.0,0.0,120.0,3.0,0.0
18292,48.0,0.0,120.0,3.0,0.0
18293,60.0,0.0,120.0,4.0,0.0
18294,56.0,0.0,120.0,4.0,0.0
18295,84.0,0.0,120.0,0.0,0.0
18296,44.0,0.0,120.0,10.0,0.0
18297,72.0,0.0,120.0,2.0,0.0
18298,68.0,0.0,120.0,11.0,0.0
18299,44.0,0.0,60.0,13.0,0.0
18300,56.0,8.0,60.0,13.0,0.0
18301,56.0,60.0,60.0,13.0,0.0
18302,44.0,0.0,60.0,13.0,0.0
18303,44.0,0.0,60.0,13.0,0.0
18304,56.0,60.0,60.0,13.0,0.0
18305,46.0,60.0,60.0,13.0,0.0
18306,55.0,0.0,60.0,13.0,0.0
18307,39.0,0.0,120.0,8.0,0.0
18308,51.0,0.0,120.0,12.0,0.0
18309,63.0,0.0,120.0,2.0,0.0
18310,49.0,0.0,120.0,7.0,0.0
18311,70.0,0.0,120.0,1.0,0.0
18312,63.0,0.0,120.0,5.0,0.0
18313,70.0,0.0,120.0,11.0,0.0
18314,51.0,0.0,120.0,11.0,0.0
18315,61.0,0.0,120.0,11.0,0.0
18316,27.0,0.0,120.0,3.0,0.0
18317,58.0,52.0,120.0,6.0,0.0
18318,46.0,0.0,120.0,3.0,0.0
18319,70.0,0.0,120.0,2.0,0.0
18320,39.0,0.0,120.0,10.0,0.0
18321,39.0,0.0,120.0,3.0,0.0
18322,39.0,0.0,120.0,14.0,0.0
18323,79.0,0.0,120.0,0.0,0.0
18324,82.0,0.0,120.0,0.0,0.0
18325,58.0,0.0,120.0,4.0,0.0
18326,51.0,0.0,120.0,4.0,0.0
18327,63.0,0.0,120.0,1.0,0.0
18328,70.0,0.0,120.0,12.0,0.0
18329,70.0,0.0,120.0,5.0,0.0
18330,27.0,0.0,120.0,15.0,0.0
18331,61.0,0.0,120.0,12.0,0.0
18332,55.0,8.0,60.0,13.0,0.0
18333,46.0,0.0,60.0,13.0,0.0
18334,46.0,60.0,60.0,13.0,0.0
18335,55.0,0.0,60.0,13.0,0.0
18336,55.0,0.0,60.0,13.0,0.0
18337,46.0,60.0,60.0,13.0,0.0
18338,56.0,0.0,60.0,13.0,0.0
18339,32.0,0.0,120.0,14.0,0.0
18340,56.0,0.0,120.0,4.0,0.0
18341,48.0,0.0,120.0,4.0,0.0
18342,80.0,0.0,120.0,0.0,0.0
18343,32.0,0.0,120.0,15.0,0.0
18344,44.0,60.0,60.0,13.0,0.0
18345,60.0,0.0,120.0,5.0,0.0
18346,68.0,0.0,120.0,1.0,0.0
18347,60.0,0.0,120.0,12.0,0.0
18348,68.0,0.0,120.0,12.0,0.0
18349,51.0,0.0,120.0,12.0,0.0
18350,68.0,0.0,120.0,2.0,0.0
18351,44.0,0.0,120.0,10.0,0.0
18352,60.0,0.0,120.0,11.0,0.0
18353,51.0,0.0,120.0,11.0,0.0
18354,68.0,0.0,120.0,11.0,0.0
18355,60.0,0.0,120.0,2.0,0.0
18356,60.0,0.0,120.0,1.0,0.0
18357,32.0,0.0,120.0,3.0,0.0
18358,44.0,0.0,120.0,8.0,0.0
18359,56.0,0.0,120.0,6.0,0.0
18360,48.0,0.0,120.0,7.0,0.0
18361,68.0,0.0,120.0,5.0,0.0
18362,44.0,52.0,120.0,3.0,0.0
18363,44.0,0.0,60.0,13.0,0.0
18364,56.0,8.0,60.0,13.0,0.0
18365,44.0,60.0,60.0,13.0,0.0
18366,56.0,0.0,60.0,13.0,0.0
18367,56.0,60.0,60.0,13.0,0.0
18368,44.0,0.0,60.0,13.0,0.0
18369,58.0,0.0,120.0,6.0,0.0
18370,27.0,0.0,120.0,3.0,0.0
18371,70.0,52.0,120.0,5.0,0.0
18372,63.0,0.0,120.0,5.0,0.0
18373,70.0,0.0,120.0,11.0,0.0
18374,39.0,0.0,120.0,14.0,0.0
18375,39.0,0.0,120.0,3.0,0.0
18376,46.0,0.0,120.0,3.0,0.0
18377,39.0,0.0,120.0,10.0,0.0
18378,27.0,0.0,120.0,15.0,0.0
18379,51.0,0.0,120.0,4.0,0.0
18380,58.0,0.0,120.0,4.0,0.0
18381,63.0,0.0,120.0,2.0,0.0
18382,79.0,0.0,120.0,0.0,0.0
18383,82.0,0.0,120.0,0.0,0.0
18384,70.0,0.0,120.0,1.0,0.0
18385,63.0,0.0,120.0,1.0,0.0
18386,49.0,0.0,120.0,7.0,0.0
18387,70.0,0.0,120.0,2.0,0.0
18388,51.0,0.0,120.0,11.0,0.0
18389,61.0,0.0,120.0,11.0,0.0
18390,46.0,60.0,60.0,13.0,0.0
18391,55.0,0.0,60.0,13.0,0.0
18392,61.0,0.0,120.0,12.0,0.0
18393,39.0,0.0,120.0,8.0,0.0
18394,70.0,0.0,120.0,12.0,0.0
18395,51.0,0.0,120.0,12.0,0.0
18396,55.0,8.0,60.0,13.0,0.0
18397,46.0,0.0,60.0,13.0,0.0
18398,55.0,60.0,60.0,13.0,0.0
18399,46.0,0.0,60.0,13.0,0.0
18400,55.0,0.0,60.0,13.0,0.0
18401,46.0,60.0,60.0,13.0,0.0
18402,48.0,0.0,60.0,13.0,0.0
18403,44.0,0.0,60.0,13.0,0.0
18404,32.0,0.0,690.0,14.0,0.0
18405,32.0,0.0,690.0,15.0,0.0
18406,44.0,0.0,240.0,10.0,0.0
18407,48.0,0.0,690.0,4.0,0.0
18408,44.0,0.0,690.0,3.0,0.0
18409,60.0,0.0,690.0,1.0,0.0
18410,72.0,0.0,690.0,0.0,0.0
18411,68.0,0.0,690.0,11.0,0.0
18412,51.0,0.0,240.0,11.0,0.0
18413,60.0,52.0,240.0,11.0,0.0
18414,44.0,52.0,720.0,8.0,0.0
18415,60.0,0.0,690.0,5.0,0.0
18416,80.0,0.0,690.0,0.0,0.0
18417,68.0,0.0,690.0,5.0,0.0
18418,51.0,0.0,60.0,12.0,0.0
18419,56.0,0.0,690.0,4.0,0.0
18420,56.0,0.0,720.0,6.0,0.0
18421,60.0,0.0,690.0,2.0,0.0
18422,60.0,0.0,60.0,12.0,0.0
18423,68.0,0.0,690.0,2.0,0.0
18424,48.0,0.0,720.0,7.0,0.0
18425,68.0,7.0,690.0,1.0,0.0
18426,68.0,60.0,60.0,12.0,0.0
18427,32.0,0.0,690.0,3.0,0.0
18428,48.0,0.0,60.0,13.0,0.0
18429,44.0,0.0,60.0,13.0,0.0
18430,56.0,60.0,60.0,12.0,0.0
18431,48.0,0.0,60.0,13.0,0.0
18432,56.0,0.0,60.0,12.0,0.0
18433,44.0,60.0,60.0,13.0,0.0
18434,56.0,8.0,60.0,12.0,0.0
18435,48.0,0.0,60.0,13.0,0.0
18436,44.0,0.0,60.0,13.0,0.0
18437,56.0,60.0,60.0,12.0,0.0
18438,48.0,0.0,60.0,13.0,0.0
18439,44.0,0.0,60.0,13.0,0.0
18440,56.0,60.0,60.0,12.0,0.0
18441,48.0,0.0,60.0,13.0,0.0
18442,44.0,0.0,60.0,13.0,0.0
18443,44.0,60.0,60.0,13.0,0.0
18444,56.0,0.0,60.0,12.0,0.0
18445,48.0,0.0,60.0,13.0,0.0
18446,44.0,60.0,60.0,13.0,0.0
18447,48.0,0.0,60.0,13.0,0.0
18448,56.0,0.0,60.0,12.0,0.0
18449,56.0,60.0,60.0,12.0,0.0
18450,48.0,0.0,60.0,13.0,0.0
18451,44.0,0.0,60.0,13.0,0.0
18452,56.0,0.0,60.0,12.0,0.0
18453,44.0,60.0,60.0,13.0,0.0
18454,48.0,0.0,60.0,13.0,0.0
18455,44.0,0.0,60.0,13.0,0.0
18456,56.0,0.0,60.0,12.0,0.0
18457,48.0,53.0,60.0,13.0,0.0
18458,44.0,0.0,60.0,13.0,0.0
18459,56.0,0.0,60.0,12.0,0.0
18460,48.0,8.0,60.0,13.0,0.0
18461,68.0,0.0,180.0,1.0,0.0
18462,56.0,60.0,60.0,12.0,0.0
18463,68.0,0.0,180.0,11.0,0.0
18464,32.0,0.0,180.0,15.0,0.0
18465,44.0,0.0,60.0,13.0,0.0
18466,48.0,0.0,60.0,13.0,0.0
18467,44.0,8.0,180.0,14.0,0.0
18468,60.0,0.0,180.0,1.0,0.0
18469,60.0,0.0,180.0,2.0,0.0
18470,44.0,52.0,180.0,10.0,0.0
18471,68.0,0.0,180.0,2.0,0.0
18472,68.0,0.0,180.0,5.0,0.0
18473,72.0,0.0,180.0,0.0,0.0
18474,80.0,0.0,180.0,0.0,0.0
18475,60.0,0.0,180.0,5.0,0.0
18476,48.0,0.0,180.0,4.0,0.0
18477,44.0,0.0,180.0,3.0,0.0
18478,56.0,0.0,180.0,4.0,0.0
18479,32.0,0.0,180.0,3.0,0.0
18480,56.0,60.0,60.0,12.0,0.0
18481,44.0,0.0,60.0,13.0,0.0
18482,48.0,0.0,60.0,13.0,0.0
18483,56.0,0.0,60.0,12.0,0.0
18484,48.0,0.0,60.0,13.0,0.0
18485,44.0,0.0,60.0,13.0,0.0
18486,44.0,0.0,60.0,14.0,0.0
18487,68.0,0.0,60.0,5.0,0.0
18488,60.0,0.0,60.0,2.0,0.0
18489,68.0,0.0,60.0,11.0,0.0
18490,56.0,0.0,60.0,4.0,0.0
18491,48.0,0.0,60.0,4.0,0.0
18492,68.0,0.0,60.0,2.0,0.0
18493,32.0,0.0,60.0,3.0,0.0
18494,80.0,0.0,60.0,0.0,0.0
18495,72.0,0.0,60.0,0.0,0.0
18496,56.0,0.0,60.0,12.0,0.0
18497,60.0,0.0,60.0,1.0,0.0
18498,44.0,52.0,60.0,10.0,0.0
18499,44.0,0.0,60.0,13.0,0.0
18500,32.0,0.0,60.0,15.0,0.0
18501,60.0,0.0,60.0,5.0,0.0
18502,68.0,0.0,60.0,1.0,0.0
18503,48.0,0.0,60.0,13.0,0.0
18504,44.0,0.0,60.0,3.0,0.0
18505,55.0,0.0,720.0,7.0,0.0
18506,58.0,0.0,60.0,12.0,0.0
18507,55.0,0.0,60.0,12.0,0.0
18508,58.0,0.0,720.0,6.0,0.0
18509,43.0,0.0,690.0,3.0,0.0
18510,46.0,0.0,690.0,3.0,0.0
18511,27.0,0.0,690.0,3.0,0.0
18512,39.0,52.0,240.0,10.0,0.0
18513,63.0,0.0,240.0,11.0,0.0
18514,70.0,0.0,690.0,11.0,0.0
18515,51.0,0.0,240.0,11.0,0.0
18516,63.0,0.0,690.0,5.0,0.0
18517,39.0,0.0,690.0,14.0,0.0
18518,70.0,0.0,690.0,5.0,0.0
18519,79.0,0.0,690.0,0.0,0.0
18520,70.0,0.0,690.0,1.0,0.0
18521,51.0,0.0,60.0,13.0,0.0
18522,46.0,60.0,60.0,13.0,0.0
18523,27.0,0.0,690.0,15.0,0.0
18524,70.0,0.0,690.0,2.0,0.0
18525,63.0,0.0,690.0,2.0,0.0
18526,63.0,0.0,690.0,1.0,0.0
18527,51.0,7.0,690.0,4.0,0.0
18528,39.0,52.0,720.0,8.0,0.0
18529,58.0,0.0,690.0,4.0,0.0
18530,82.0,0.0,690.0,0.0,0.0
18531,46.0,0.0,60.0,13.0,0.0
18532,51.0,0.0,60.0,13.0,0.0
18533,58.0,0.0,60.0,12.0,0.0
18534,55.0,60.0,60.0,12.0,0.0
18535,58.0,60.0,60.0,12.0,0.0
18536,55.0,0.0,60.0,12.0,0.0
18537,51.0,0.0,60.0,13.0,0.0
18538,46.0,0.0,60.0,13.0,0.0
18539,46.0,0.0,60.0,13.0,0.0
18540,55.0,0.0,60.0,12.0,0.0
18541,58.0,0.0,60.0,12.0,0.0
18542,51.0,8.0,60.0,13.0,0.0
18543,55.0,60.0,60.0,12.0,0.0
18544,51.0,0.0,60.0,13.0,0.0
18545,46.0,0.0,60.0,13.0,0.0
18546,58.0,0.0,60.0,12.0,0.0
18547,51.0,0.0,60.0,13.0,0.0
18548,58.0,60.0,60.0,12.0,0.0
18549,46.0,0.0,60.0,13.0,0.0
18550,55.0,0.0,60.0,12.0,0.0
18551,55.0,60.0,60.0,12.0,0.0
18552,46.0,0.0,60.0,13.0,0.0
18553,51.0,0.0,60.0,13.0,0.0
18554,58.0,0.0,60.0,12.0,0.0
18555,58.0,0.0,60.0,12.0,0.0
18556,55.0,60.0,60.0,12.0,0.0
18557,51.0,0.0,60.0,13.0,0.0
18558,46.0,0.0,60.0,13.0,0.0
18559,58.0,0.0,60.0,12.0,0.0
18560,55.0,60.0,60.0,12.0,0.0
18561,51.0,0.0,60.0,13.0,0.0
18562,46.0,0.0,60.0,13.0,0.0
18563,58.0,60.0,60.0,12.0,0.0
18564,55.0,0.0,60.0,12.0,0.0
18565,51.0,0.0,60.0,13.0,0.0
18566,46.0,0.0,60.0,13.0,0.0
18567,46.0,0.0,60.0,13.0,0.0
18568,51.0,0.0,60.0,13.0,0.0
18569,55.0,53.0,60.0,12.0,0.0
18570,58.0,0.0,60.0,12.0,0.0
18571,46.0,0.0,60.0,13.0,0.0
18572,58.0,8.0,60.0,12.0,0.0
18573,51.0,0.0,60.0,13.0,0.0
18574,55.0,0.0,60.0,12.0,0.0
18575,70.0,0.0,180.0,1.0,0.0
18576,55.0,60.0,60.0,12.0,0.0
18577,58.0,0.0,60.0,12.0,0.0
18578,63.0,0.0,180.0,2.0,0.0
18579,70.0,0.0,180.0,2.0,0.0
18580,70.0,0.0,180.0,11.0,0.0
18581,43.0,0.0,180.0,3.0,0.0
18582,58.0,0.0,180.0,4.0,0.0
18583,39.0,52.0,180.0,10.0,0.0
18584,70.0,0.0,180.0,5.0,0.0
18585,63.0,0.0,180.0,5.0,0.0
18586,79.0,0.0,180.0,0.0,0.0
18587,27.0,0.0,180.0,15.0,0.0
18588,39.0,0.0,180.0,14.0,0.0
18589,51.0,0.0,180.0,4.0,0.0
18590,82.0,0.0,180.0,0.0,0.0
18591,63.0,0.0,180.0,1.0,0.0
18592,46.0,0.0,180.0,3.0,0.0
18593,27.0,0.0,180.0,3.0,0.0
18594,51.0,0.0,60.0,13.0,0.0
18595,46.0,0.0,60.0,13.0,0.0
18596,55.0,0.0,60.0,12.0,0.0
18597,46.0,0.0,60.0,13.0,0.0
18598,51.0,60.0,60.0,13.0,0.0
18599,58.0,0.0,60.0,12.0,0.0
18600,51.0,0.0,60.0,13.0,0.0
18601,55.0,0.0,60.0,12.0,0.0
18602,58.0,0.0,60.0,12.0,0.0
18603,46.0,8.0,60.0,13.0,0.0
18604,70.0,0.0,60.0,1.0,0.0
18605,39.0,0.0,60.0,14.0,0.0
18606,58.0,0.0,60.0,4.0,0.0
18607,63.0,0.0,60.0,1.0,0.0
18608,51.0,0.0,60.0,4.0,0.0
18609,27.0,0.0,60.0,15.0,0.0
18610,27.0,0.0,60.0,3.0,0.0
18611,70.0,0.0,60.0,2.0,0.0
18612,43.0,0.0,60.0,3.0,0.0
18613,70.0,0.0,60.0,11.0,0.0
18614,39.0,52.0,60.0,10.0,0.0
18615,58.0,0.0,60.0,12.0,0.0
18616,55.0,0.0,60.0,12.0,0.0
18617,46.0,8.0,60.0,3.0,0.0
18618,82.0,0.0,60.0,0.0,0.0
18619,51.0,0.0,60.0,13.0,0.0
18620,63.0,0.0,60.0,5.0,0.0
18621,70.0,0.0,60.0,5.0,0.0
18622,46.0,0.0,60.0,13.0,0.0
18623,79.0,0.0,60.0,0.0,0.0
18624,63.0,0.0,60.0,2.0,0.0
18625,56.0,0.0,60.0,12.0,0.0
18626,56.0,0.0,720.0,7.0,0.0
18627,60.0,0.0,720.0,6.0,0.0
18628,60.0,0.0,60.0,12.0,0.0
18629,68.0,0.0,570.0,5.0,0.0
18630,44.0,0.0,240.0,10.0,0.0
18631,44.0,0.0,570.0,3.0,0.0
18632,56.0,52.0,240.0,11.0,0.0
18633,68.0,0.0,240.0,11.0,0.0
18634,63.0,0.0,240.0,11.0,0.0
18635,72.0,0.0,570.0,11.0,0.0
18636,32.0,0.0,930.0,3.0,0.0
18637,84.0,0.0,570.0,0.0,0.0
18638,80.0,0.0,570.0,0.0,0.0
18639,72.0,0.0,570.0,5.0,0.0
18640,68.0,0.0,930.0,2.0,0.0
18641,72.0,0.0,930.0,2.0,0.0
18642,32.0,0.0,930.0,15.0,0.0
18643,44.0,0.0,930.0,14.0,0.0
18644,68.0,0.0,570.0,1.0,0.0
18645,72.0,7.0,570.0,1.0,0.0
18646,56.0,0.0,570.0,4.0,0.0
18647,60.0,0.0,570.0,4.0,0.0
18648,48.0,60.0,60.0,13.0,0.0
18649,51.0,0.0,60.0,13.0,0.0
18650,48.0,0.0,570.0,3.0,0.0
18651,44.0,52.0,720.0,8.0,0.0
18652,60.0,60.0,60.0,12.0,0.0
18653,56.0,0.0,60.0,12.0,0.0
18654,51.0,0.0,60.0,13.0,0.0
18655,48.0,0.0,60.0,13.0,0.0
18656,60.0,0.0,60.0,12.0,0.0
18657,56.0,0.0,60.0,12.0,0.0
18658,48.0,0.0,60.0,13.0,0.0
18659,51.0,60.0,60.0,13.0,0.0
18660,48.0,0.0,60.0,13.0,0.0
18661,51.0,0.0,60.0,13.0,0.0
18662,56.0,8.0,60.0,12.0,0.0
18663,60.0,0.0,60.0,12.0,0.0
18664,56.0,0.0,60.0,12.0,0.0
18665,51.0,0.0,60.0,13.0,0.0
18666,48.0,60.0,60.0,13.0,0.0
18667,60.0,0.0,60.0,12.0,0.0
18668,48.0,60.0,60.0,13.0,0.0
18669,51.0,0.0,60.0,13.0,0.0
18670,60.0,0.0,60.0,12.0,0.0
18671,56.0,0.0,60.0,12.0,0.0
18672,48.0,0.0,60.0,13.0,0.0
18673,51.0,0.0,60.0,13.0,0.0
18674,60.0,60.0,60.0,12.0,0.0
18675,56.0,0.0,60.0,12.0,0.0
18676,56.0,0.0,60.0,12.0,0.0
18677,51.0,60.0,60.0,13.0,0.0
18678,48.0,0.0,60.0,13.0,0.0
18679,60.0,0.0,60.0,12.0,0.0
18680,51.0,0.0,60.0,13.0,0.0
18681,48.0,0.0,60.0,13.0,0.0
18682,56.0,53.0,60.0,12.0,0.0
18683,60.0,0.0,60.0,12.0,0.0
18684,48.0,0.0,60.0,13.0,0.0
18685,51.0,0.0,60.0,13.0,0.0
18686,56.0,60.0,60.0,12.0,0.0
18687,60.0,0.0,60.0,12.0,0.0
18688,56.0,0.0,90.0,5.0,0.0
18689,68.0,7.0,90.0,5.0,0.0
18690,56.0,0.0,90.0,4.0,0.0
18691,44.0,0.0,90.0,4.0,0.0
18692,68.0,15.0,90.0,1.0,0.0
18693,56.0,0.0,90.0,3.0,0.0
18694,68.0,0.0,90.0,0.0,0.0
18695,48.0,0.0,60.0,13.0,0.0
18696,51.0,0.0,60.0,13.0,0.0
18697,80.0,0.0,90.0,0.0,0.0
18698,60.0,38.0,60.0,12.0,0.0
18699,56.0,0.0,60.0,12.0,0.0
18700,68.0,0.0,90.0,11.0,0.0
18701,44.0,0.0,120.0,10.0,0.0
18702,51.0,0.0,60.0,13.0,0.0
18703,48.0,8.0,60.0,13.0,0.0
18704,60.0,0.0,60.0,12.0,0.0
18705,56.0,0.0,60.0,12.0,0.0
18706,70.0,0.0,90.0,0.0,0.0
18707,44.0,52.0,120.0,10.0,0.0
18708,70.0,0.0,90.0,1.0,0.0
18709,82.0,15.0,90.0,0.0,0.0
18710,44.0,0.0,90.0,4.0,0.0
18711,70.0,0.0,90.0,11.0,0.0
18712,48.0,38.0,60.0,13.0,0.0
18713,51.0,0.0,60.0,13.0,0.0
18714,56.0,0.0,90.0,4.0,0.0
18715,68.0,0.0,90.0,5.0,0.0
18716,60.0,0.0,60.0,12.0,0.0
18717,56.0,0.0,60.0,12.0,0.0
18718,55.0,0.0,90.0,3.0,0.0
18719,56.0,7.0,90.0,5.0,0.0
18720,48.0,0.0,60.0,13.0,0.0
18721,60.0,0.0,60.0,12.0,0.0
18722,51.0,8.0,60.0,13.0,0.0
18723,56.0,0.0,60.0,12.0,0.0
18724,51.0,0.0,60.0,13.0,0.0
18725,48.0,0.0,60.0,13.0,0.0
18726,72.0,15.0,90.0,11.0,0.0
18727,84.0,0.0,90.0,0.0,0.0
18728,72.0,0.0,90.0,1.0,0.0
18729,56.0,0.0,90.0,4.0,0.0
18730,72.0,0.0,90.0,0.0,0.0
18731,60.0,38.0,60.0,12.0,0.0
18732,54.0,7.0,90.0,3.0,0.0
18733,56.0,0.0,60.0,12.0,0.0
18734,44.0,0.0,90.0,4.0,0.0
18735,68.0,0.0,90.0,5.0,0.0
18736,44.0,52.0,120.0,10.0,0.0
18737,56.0,0.0,90.0,5.0,0.0
18738,60.0,0.0,60.0,12.0,0.0
18739,56.0,0.0,60.0,12.0,0.0
18740,51.0,8.0,60.0,13.0,0.0
18741,48.0,0.0,60.0,13.0,0.0
18742,56.0,0.0,60.0,12.0,0.0
18743,85.0,0.0,90.0,0.0,0.0
18744,61.0,0.0,360.0,6.0,0.0
18745,73.0,0.0,450.0,2.0,0.0
18746,29.0,0.0,450.0,15.0,0.0
18747,41.0,0.0,360.0,8.0,0.0
18748,41.0,0.0,450.0,14.0,0.0
18749,68.0,0.0,930.0,2.0,0.0
18750,61.0,0.0,60.0,12.0,0.0
18751,56.0,52.0,360.0,7.0,0.0
18752,49.0,38.0,60.0,13.0,0.0
18753,68.0,0.0,210.0,5.0,0.0
18754,56.0,0.0,210.0,5.0,0.0
18755,56.0,7.0,210.0,4.0,0.0
18756,73.0,0.0,90.0,1.0,0.0
18757,44.0,0.0,210.0,4.0,0.0
18758,44.0,52.0,240.0,10.0,0.0
18759,29.0,7.0,450.0,3.0,0.0
18760,73.0,0.0,90.0,11.0,0.0
18761,73.0,22.0,90.0,0.0,0.0
18762,53.0,0.0,60.0,13.0,0.0
18763,49.0,0.0,930.0,3.0,0.0
18764,53.0,0.0,930.0,3.0,0.0
18765,53.0,0.0,60.0,13.0,0.0
18766,49.0,0.0,60.0,13.0,0.0
18767,61.0,0.0,60.0,12.0,0.0
18768,56.0,60.0,60.0,12.0,0.0
18769,84.0,0.0,90.0,0.0,0.0
18770,56.0,0.0,60.0,12.0,0.0
18771,61.0,0.0,60.0,12.0,0.0
18772,72.0,15.0,90.0,0.0,0.0
18773,72.0,0.0,90.0,11.0,0.0
18774,72.0,0.0,90.0,1.0,0.0
18775,49.0,0.0,60.0,13.0,0.0
18776,53.0,38.0,60.0,13.0,0.0
18777,49.0,0.0,60.0,13.0,0.0
18778,53.0,0.0,60.0,13.0,0.0
18779,56.0,8.0,60.0,12.0,0.0
18780,61.0,0.0,60.0,12.0,0.0
18781,73.0,0.0,90.0,0.0,0.0
18782,73.0,0.0,90.0,1.0,0.0
18783,68.0,0.0,90.0,5.0,0.0
18784,85.0,0.0,90.0,0.0,0.0
18785,73.0,15.0,90.0,11.0,0.0
18786,44.0,0.0,90.0,4.0,0.0
18787,56.0,7.0,90.0,5.0,0.0
18788,61.0,0.0,60.0,12.0,0.0
18789,44.0,0.0,120.0,10.0,0.0
18790,49.0,38.0,60.0,13.0,0.0
18791,53.0,0.0,60.0,13.0,0.0
18792,56.0,0.0,90.0,4.0,0.0
18793,56.0,0.0,60.0,12.0,0.0
18794,49.0,0.0,60.0,13.0,0.0
18795,61.0,0.0,60.0,12.0,0.0
18796,53.0,0.0,60.0,13.0,0.0
18797,56.0,8.0,60.0,12.0,0.0
18798,44.0,52.0,120.0,10.0,0.0
18799,75.0,0.0,90.0,0.0,0.0
18800,87.0,0.0,90.0,0.0,0.0
18801,53.0,0.0,60.0,13.0,0.0
18802,44.0,0.0,90.0,4.0,0.0
18803,56.0,0.0,90.0,4.0,0.0
18804,75.0,15.0,90.0,1.0,0.0
18805,56.0,0.0,90.0,5.0,0.0
18806,49.0,0.0,60.0,13.0,0.0
18807,68.0,0.0,90.0,5.0,0.0
18808,61.0,38.0,60.0,12.0,0.0
18809,75.0,0.0,90.0,11.0,0.0
18810,56.0,0.0,60.0,12.0,0.0
18811,53.0,0.0,60.0,13.0,0.0
18812,56.0,0.0,60.0,12.0,0.0
18813,49.0,0.0,60.0,13.0,0.0
18814,61.0,8.0,60.0,12.0,0.0
18815,53.0,0.0,60.0,13.0,0.0
18816,56.0,0.0,210.0,5.0,0.0
18817,49.0,0.0,60.0,13.0,0.0
18818,77.0,0.0,90.0,0.0,0.0
18819,56.0,38.0,60.0,12.0,0.0
18820,61.0,0.0,60.0,12.0,0.0
18821,44.0,52.0,240.0,10.0,0.0
18822,44.0,0.0,210.0,4.0,0.0
18823,56.0,7.0,210.0,4.0,0.0
18824,56.0,52.0,360.0,7.0,0.0
18825,65.0,0.0,360.0,6.0,0.0
18826,68.0,0.0,210.0,5.0,0.0
18827,37.0,0.0,450.0,14.0,0.0
18828,25.0,0.0,450.0,15.0,0.0
18829,77.0,0.0,450.0,2.0,0.0
18830,37.0,0.0,360.0,8.0,0.0
18831,89.0,0.0,90.0,0.0,0.0
18832,77.0,22.0,90.0,1.0,0.0
18833,77.0,0.0,90.0,11.0,0.0
18834,25.0,7.0,450.0,3.0,0.0
18835,49.0,0.0,60.0,13.0,0.0
18836,53.0,0.0,60.0,13.0,0.0
18837,56.0,60.0,60.0,12.0,0.0
18838,61.0,0.0,60.0,12.0,0.0
18839,49.0,0.0,60.0,13.0,0.0
18840,75.0,0.0,90.0,0.0,0.0
18841,61.0,38.0,60.0,12.0,0.0
18842,56.0,0.0,60.0,12.0,0.0
18843,87.0,0.0,90.0,0.0,0.0
18844,75.0,15.0,90.0,11.0,0.0
18845,53.0,0.0,60.0,13.0,0.0
18846,75.0,0.0,90.0,1.0,0.0
18847,49.0,0.0,60.0,13.0,0.0
18848,53.0,0.0,60.0,13.0,0.0
18849,61.0,8.0,60.0,12.0,0.0
18850,56.0,0.0,60.0,12.0,0.0
18851,77.0,0.0,90.0,1.0,0.0
18852,56.0,7.0,90.0,4.0,0.0
18853,44.0,0.0,90.0,4.0,0.0
18854,77.0,0.0,90.0,0.0,0.0
18855,56.0,0.0,90.0,5.0,0.0
18856,68.0,0.0,90.0,5.0,0.0
18857,61.0,38.0,60.0,12.0,0.0
18858,56.0,0.0,60.0,12.0,0.0
18859,77.0,15.0,90.0,11.0,0.0
18860,89.0,0.0,90.0,0.0,0.0
18861,53.0,0.0,60.0,13.0,0.0
18862,49.0,0.0,60.0,13.0,0.0
18863,44.0,0.0,120.0,10.0,0.0
18864,49.0,0.0,60.0,13.0,0.0
18865,53.0,0.0,60.0,13.0,0.0
18866,61.0,8.0,60.0,12.0,0.0
18867,56.0,0.0,60.0,12.0,0.0
18868,79.0,15.0,90.0,11.0,0.0
18869,56.0,0.0,60.0,12.0,0.0
18870,79.0,0.0,90.0,0.0,0.0
18871,53.0,0.0,60.0,13.0,0.0
18872,49.0,0.0,60.0,13.0,0.0
18873,44.0,0.0,90.0,4.0,0.0
18874,68.0,0.0,90.0,5.0,0.0
18875,56.0,0.0,90.0,5.0,0.0
18876,79.0,0.0,90.0,1.0,0.0
18877,61.0,38.0,60.0,12.0,0.0
18878,91.0,0.0,90.0,0.0,0.0
18879,56.0,0.0,90.0,4.0,0.0
18880,44.0,52.0,120.0,10.0,0.0
18881,49.0,0.0,60.0,13.0,0.0
18882,56.0,8.0,60.0,12.0,0.0
18883,61.0,0.0,60.0,12.0,0.0
18884,53.0,0.0,60.0,13.0,0.0
18885,51.0,0.0,60.0,13.0,0.0
18886,68.0,0.0,930.0,2.0,0.0
18887,75.0,7.0,690.0,2.0,0.0
18888,44.0,45.0,60.0,10.0,0.0
18889,24.0,0.0,90.0,15.0,0.0
18890,92.0,7.0,570.0,0.0,0.0
18891,48.0,0.0,930.0,3.0,0.0
18892,51.0,0.0,930.0,3.0,0.0
18893,36.0,0.0,90.0,14.0,0.0
18894,56.0,0.0,570.0,4.0,0.0
18895,80.0,0.0,570.0,11.0,0.0
18896,24.0,7.0,90.0,3.0,0.0
18897,80.0,0.0,570.0,0.0,0.0
18898,80.0,0.0,570.0,1.0,0.0
18899,48.0,8.0,60.0,13.0,0.0
18900,48.0,0.0,480.0,8.0,0.0
18901,63.0,52.0,600.0,6.0,0.0
18902,56.0,0.0,570.0,5.0,0.0
18903,68.0,0.0,570.0,5.0,0.0
18904,56.0,0.0,600.0,7.0,0.0
18905,63.0,0.0,60.0,12.0,0.0
18906,44.0,0.0,570.0,4.0,0.0
18907,56.0,0.0,60.0,12.0,0.0
18908,48.0,8.0,60.0,13.0,0.0
18909,51.0,0.0,60.0,13.0,0.0
18910,63.0,0.0,60.0,12.0,0.0
18911,44.0,52.0,60.0,10.0,0.0
18912,56.0,0.0,60.0,12.0,0.0
18913,63.0,0.0,60.0,12.0,0.0
18914,44.0,45.0,60.0,10.0,0.0
18915,56.0,8.0,60.0,12.0,0.0
18916,25.0,0.0,90.0,15.0,0.0
18917,37.0,7.0,90.0,14.0,0.0
18918,48.0,0.0,60.0,13.0,0.0
18919,51.0,0.0,60.0,13.0,0.0
18920,25.0,0.0,90.0,3.0,0.0
18921,56.0,0.0,60.0,12.0,0.0
18922,63.0,0.0,60.0,12.0,0.0
18923,51.0,8.0,60.0,13.0,0.0
18924,48.0,0.0,60.0,13.0,0.0
18925,44.0,52.0,60.0,10.0,0.0
18926,63.0,0.0,60.0,12.0,0.0
18927,56.0,8.0,60.0,12.0,0.0
18928,44.0,45.0,60.0,10.0,0.0
18929,51.0,0.0,60.0,13.0,0.0
18930,24.0,0.0,90.0,3.0,0.0
18931,48.0,0.0,60.0,13.0,0.0
18932,24.0,0.0,90.0,15.0,0.0
18933,36.0,7.0,90.0,14.0,0.0
18934,63.0,0.0,60.0,12.0,0.0
18935,51.0,0.0,60.0,13.0,0.0
18936,56.0,8.0,60.0,12.0,0.0
18937,48.0,0.0,60.0,13.0,0.0
18938,44.0,52.0,60.0,10.0,0.0
18939,51.0,8.0,60.0,13.0,0.0
18940,34.0,7.0,90.0,14.0,0.0
18941,44.0,45.0,60.0,10.0,0.0
18942,63.0,0.0,60.0,12.0,0.0
18943,56.0,0.0,60.0,12.0,0.0
18944,22.0,0.0,90.0,3.0,0.0
18945,22.0,0.0,90.0,15.0,0.0
18946,48.0,0.0,60.0,13.0,0.0
18947,56.0,0.0,60.0,12.0,0.0
18948,63.0,0.0,60.0,12.0,0.0
18949,51.0,0.0,60.0,13.0,0.0
18950,44.0,52.0,60.0,10.0,0.0
18951,48.0,8.0,60.0,13.0,0.0
18952,20.0,0.0,450.0,3.0,0.0
18953,44.0,0.0,120.0,10.0,0.0
18954,60.0,0.0,60.0,12.0,0.0
18955,56.0,0.0,60.0,12.0,0.0
18956,44.0,0.0,120.0,8.0,0.0
18957,51.0,53.0,60.0,13.0,0.0
18958,20.0,0.0,450.0,15.0,0.0
18959,32.0,0.0,450.0,14.0,0.0
18960,48.0,0.0,60.0,13.0,0.0
18961,51.0,0.0,60.0,13.0,0.0
18962,60.0,0.0,60.0,12.0,0.0
18963,56.0,0.0,60.0,12.0,0.0
18964,48.0,8.0,60.0,13.0,0.0
18965,44.0,0.0,90.0,4.0,0.0
18966,56.0,0.0,90.0,4.0,0.0
18967,48.0,0.0,60.0,13.0,0.0
18968,51.0,0.0,60.0,13.0,0.0
18969,56.0,0.0,90.0,5.0,0.0
18970,80.0,0.0,90.0,0.0,0.0
18971,68.0,15.0,90.0,11.0,0.0
18972,68.0,0.0,90.0,0.0,0.0
18973,68.0,0.0,90.0,1.0,0.0
18974,44.0,52.0,120.0,10.0,0.0
18975,60.0,0.0,60.0,12.0,0.0
18976,56.0,38.0,60.0,12.0,0.0
18977,68.0,0.0,90.0,5.0,0.0
18978,51.0,8.0,60.0,13.0,0.0
18979,60.0,0.0,60.0,12.0,0.0
18980,56.0,0.0,60.0,12.0,0.0
18981,48.0,0.0,60.0,13.0,0.0
18982,44.0,0.0,90.0,4.0,0.0
18983,56.0,7.0,90.0,4.0,0.0
18984,56.0,0.0,60.0,12.0,0.0
18985,60.0,0.0,60.0,12.0,0.0
18986,70.0,0.0,90.0,1.0,0.0
18987,48.0,38.0,60.0,13.0,0.0
18988,44.0,52.0,120.0,10.0,0.0
18989,82.0,0.0,90.0,0.0,0.0
18990,51.0,0.0,60.0,13.0,0.0
18991,72.0,0.0,210.0,2.0,0.0
18992,70.0,15.0,90.0,11.0,0.0
18993,68.0,0.0,90.0,5.0,0.0
18994,56.0,0.0,90.0,5.0,0.0
18995,70.0,0.0,90.0,0.0,0.0
18996,56.0,0.0,60.0,12.0,0.0
18997,60.0,0.0,60.0,12.0,0.0
18998,48.0,8.0,60.0,13.0,0.0
18999,51.0,0.0,60.0,13.0,0.0
19000,56.0,0.0,60.0,12.0,0.0
19001,68.0,0.0,90.0,5.0,0.0
19002,56.0,7.0,90.0,5.0,0.0
19003,44.0,52.0,120.0,10.0,0.0
19004,84.0,15.0,90.0,0.0,0.0
19005,72.0,0.0,90.0,1.0,0.0
19006,60.0,38.0,60.0,12.0,0.0
19007,72.0,0.0,90.0,11.0,0.0
19008,72.0,0.0,90.0,0.0,0.0
19009,51.0,0.0,60.0,13.0,0.0
19010,48.0,0.0,60.0,13.0,0.0
19011,44.0,0.0,90.0,4.0,0.0
19012,56.0,0.0,90.0,4.0,0.0
19013,51.0,0.0,60.0,13.0,0.0
19014,60.0,0.0,60.0,12.0,0.0
19015,48.0,0.0,60.0,13.0,0.0
19016,56.0,8.0,60.0,12.0,0.0
19017,53.0,0.0,60.0,13.0,0.0
19018,73.0,22.0,90.0,0.0,0.0
19019,49.0,38.0,60.0,13.0,0.0
19020,41.0,0.0,450.0,8.0,0.0
19021,41.0,0.0,450.0,14.0,0.0
19022,73.0,0.0,450.0,2.0,0.0
19023,68.0,0.0,930.0,2.0,0.0
19024,56.0,0.0,210.0,5.0,0.0
19025,68.0,0.0,210.0,5.0,0.0
19026,56.0,7.0,210.0,4.0,0.0
19027,44.0,0.0,210.0,4.0,0.0
19028,61.0,0.0,450.0,6.0,0.0
19029,73.0,0.0,90.0,1.0,0.0
19030,56.0,0.0,60.0,12.0,0.0
19031,61.0,0.0,60.0,12.0,0.0
19032,29.0,0.0,450.0,15.0,0.0
19033,56.0,0.0,450.0,7.0,0.0
19034,85.0,0.0,90.0,0.0,0.0
19035,49.0,0.0,930.0,3.0,0.0
19036,53.0,0.0,930.0,3.0,0.0
19037,29.0,0.0,450.0,3.0,0.0
19038,44.0,52.0,240.0,10.0,0.0
19039,73.0,0.0,90.0,11.0,0.0
19040,61.0,0.0,60.0,12.0,0.0
19041,56.0,0.0,60.0,12.0,0.0
19042,53.0,60.0,60.0,13.0,0.0
19043,49.0,0.0,60.0,13.0,0.0
19044,56.0,38.0,60.0,12.0,0.0
19045,49.0,0.0,60.0,13.0,0.0
19046,61.0,0.0,60.0,12.0,0.0
19047,53.0,0.0,60.0,13.0,0.0
19048,72.0,0.0,90.0,1.0,0.0
19049,72.0,0.0,90.0,11.0,0.0
19050,84.0,0.0,90.0,0.0,0.0
19051,72.0,15.0,90.0,0.0,0.0
19052,53.0,0.0,60.0,13.0,0.0
19053,49.0,0.0,60.0,13.0,0.0
19054,61.0,0.0,60.0,12.0,0.0
19055,56.0,8.0,60.0,12.0,0.0
19056,49.0,0.0,60.0,13.0,0.0
19057,53.0,38.0,60.0,13.0,0.0
19058,73.0,0.0,90.0,0.0,0.0
19059,73.0,0.0,90.0,1.0,0.0
19060,44.0,0.0,90.0,4.0,0.0
19061,56.0,0.0,90.0,5.0,0.0
19062,68.0,0.0,90.0,5.0,0.0
19063,56.0,0.0,60.0,12.0,0.0
19064,61.0,0.0,60.0,12.0,0.0
19065,44.0,52.0,120.0,10.0,0.0
19066,73.0,0.0,90.0,11.0,0.0
19067,56.0,7.0,90.0,4.0,0.0
19068,85.0,15.0,90.0,0.0,0.0
19069,49.0,0.0,60.0,13.0,0.0
19070,53.0,0.0,60.0,13.0,0.0
19071,56.0,0.0,60.0,12.0,0.0
19072,61.0,8.0,60.0,12.0,0.0
19073,75.0,15.0,90.0,1.0,0.0
19074,49.0,0.0,60.0,13.0,0.0
19075,87.0,0.0,90.0,0.0,0.0
19076,53.0,0.0,60.0,13.0,0.0
19077,56.0,0.0,90.0,4.0,0.0
19078,44.0,0.0,90.0,4.0,0.0
19079,75.0,0.0,90.0,11.0,0.0
19080,56.0,0.0,60.0,12.0,0.0
19081,68.0,7.0,90.0,5.0,0.0
19082,56.0,0.0,90.0,5.0,0.0
19083,44.0,52.0,120.0,10.0,0.0
19084,75.0,0.0,90.0,0.0,0.0
19085,61.0,38.0,60.0,12.0,0.0
19086,56.0,0.0,60.0,12.0,0.0
19087,61.0,0.0,60.0,12.0,0.0
19088,49.0,0.0,60.0,13.0,0.0
19089,53.0,8.0,60.0,13.0,0.0
19090,68.0,0.0,210.0,5.0,0.0
19091,25.0,0.0,450.0,3.0,0.0
19092,44.0,52.0,240.0,10.0,0.0
19093,49.0,0.0,60.0,13.0,0.0
19094,53.0,0.0,60.0,13.0,0.0
19095,37.0,0.0,450.0,8.0,0.0
19096,65.0,7.0,450.0,6.0,0.0
19097,25.0,0.0,450.0,15.0,0.0
19098,56.0,0.0,210.0,5.0,0.0
19099,77.0,0.0,450.0,2.0,0.0
19100,56.0,0.0,450.0,7.0,0.0
19101,77.0,22.0,90.0,0.0,0.0
19102,44.0,0.0,210.0,4.0,0.0
19103,89.0,0.0,90.0,0.0,0.0
19104,37.0,0.0,450.0,14.0,0.0
19105,77.0,0.0,90.0,1.0,0.0
19106,61.0,0.0,60.0,12.0,0.0
19107,77.0,0.0,90.0,11.0,0.0
19108,56.0,38.0,60.0,12.0,0.0
19109,56.0,7.0,210.0,4.0,0.0
19110,53.0,60.0,60.0,13.0,0.0
19111,61.0,0.0,60.0,12.0,0.0
19112,56.0,0.0,60.0,12.0,0.0
19113,49.0,0.0,60.0,13.0,0.0
19114,61.0,0.0,60.0,12.0,0.0
19115,56.0,0.0,60.0,12.0,0.0
19116,75.0,0.0,90.0,0.0,0.0
19117,49.0,38.0,60.0,13.0,0.0
19118,53.0,0.0,60.0,13.0,0.0
19119,75.0,15.0,90.0,11.0,0.0
19120,75.0,0.0,90.0,1.0,0.0
19121,87.0,0.0,90.0,0.0,0.0
19122,61.0,8.0,60.0,12.0,0.0
19123,56.0,0.0,60.0,12.0,0.0
19124,49.0,0.0,60.0,13.0,0.0
19125,53.0,0.0,60.0,13.0,0.0
19126,61.0,38.0,60.0,12.0,0.0
19127,77.0,15.0,90.0,0.0,0.0
19128,44.0,52.0,120.0,10.0,0.0
19129,49.0,0.0,60.0,13.0,0.0
19130,53.0,0.0,60.0,13.0,0.0
19131,89.0,0.0,90.0,0.0,0.0
19132,77.0,0.0,90.0,11.0,0.0
19133,44.0,7.0,90.0,4.0,0.0
19134,56.0,0.0,90.0,4.0,0.0
19135,77.0,0.0,90.0,1.0,0.0
19136,68.0,0.0,90.0,5.0,0.0
19137,56.0,0.0,90.0,5.0,0.0
19138,56.0,0.0,60.0,12.0,0.0
19139,53.0,0.0,60.0,13.0,0.0
19140,49.0,0.0,60.0,13.0,0.0
19141,61.0,0.0,60.0,12.0,0.0
19142,56.0,8.0,60.0,12.0,0.0
19143,53.0,0.0,60.0,13.0,0.0
19144,49.0,38.0,60.0,13.0,0.0
19145,91.0,0.0,90.0,0.0,0.0
19146,79.0,0.0,90.0,11.0,0.0
19147,79.0,0.0,90.0,0.0,0.0
19148,44.0,52.0,120.0,10.0,0.0
19149,56.0,0.0,90.0,4.0,0.0
19150,79.0,15.0,90.0,1.0,0.0
19151,68.0,0.0,90.0,5.0,0.0
19152,56.0,0.0,90.0,5.0,0.0
19153,56.0,0.0,60.0,12.0,0.0
19154,61.0,0.0,60.0,12.0,0.0
19155,44.0,0.0,90.0,4.0,0.0
19156,49.0,0.0,60.0,13.0,0.0
19157,53.0,0.0,60.0,13.0,0.0
19158,56.0,0.0,60.0,12.0,0.0
19159,61.0,8.0,60.0,12.0,0.0
19160,48.0,0.0,360.0,8.0,0.0
19161,63.0,0.0,600.0,6.0,0.0
19162,24.0,0.0,90.0,3.0,0.0
19163,92.0,0.0,570.0,0.0,0.0
19164,63.0,0.0,60.0,12.0,0.0
19165,56.0,0.0,60.0,12.0,0.0
19166,75.0,0.0,690.0,2.0,0.0
19167,68.0,0.0,930.0,2.0,0.0
19168,80.0,0.0,570.0,1.0,0.0
19169,68.0,0.0,570.0,5.0,0.0
19170,44.0,0.0,570.0,4.0,0.0
19171,56.0,0.0,570.0,4.0,0.0
19172,80.0,0.0,570.0,11.0,0.0
19173,51.0,8.0,60.0,13.0,0.0
19174,48.0,0.0,60.0,13.0,0.0
19175,56.0,7.0,570.0,5.0,0.0
19176,36.0,0.0,90.0,14.0,0.0
19177,24.0,7.0,90.0,15.0,0.0
19178,48.0,0.0,930.0,3.0,0.0
19179,44.0,45.0,60.0,10.0,0.0
19180,56.0,52.0,600.0,7.0,0.0
19181,80.0,0.0,570.0,0.0,0.0
19182,51.0,0.0,930.0,3.0,0.0
19183,48.0,8.0,60.0,13.0,0.0
19184,51.0,0.0,60.0,13.0,0.0
19185,56.0,0.0,60.0,12.0,0.0
19186,63.0,0.0,60.0,12.0,0.0
19187,44.0,52.0,60.0,10.0,0.0
19188,51.0,0.0,60.0,13.0,0.0
19189,37.0,0.0,90.0,14.0,0.0
19190,48.0,8.0,60.0,13.0,0.0
19191,25.0,7.0,90.0,15.0,0.0
19192,44.0,45.0,60.0,10.0,0.0
19193,25.0,0.0,90.0,3.0,0.0
19194,56.0,0.0,60.0,12.0,0.0
19195,63.0,0.0,60.0,12.0,0.0
19196,56.0,0.0,60.0,12.0,0.0
19197,63.0,8.0,60.0,12.0,0.0
19198,51.0,0.0,60.0,13.0,0.0
19199,48.0,0.0,60.0,13.0,0.0
19200,44.0,52.0,60.0,10.0,0.0
19201,48.0,0.0,60.0,13.0,0.0
19202,51.0,8.0,60.0,13.0,0.0
19203,36.0,0.0,90.0,14.0,0.0
19204,44.0,45.0,60.0,10.0,0.0
19205,24.0,0.0,90.0,3.0,0.0
19206,56.0,0.0,60.0,12.0,0.0
19207,63.0,0.0,60.0,12.0,0.0
19208,24.0,7.0,90.0,15.0,0.0
19209,63.0,0.0,60.0,12.0,0.0
19210,51.0,0.0,60.0,13.0,0.0
19211,48.0,8.0,60.0,13.0,0.0
19212,44.0,52.0,60.0,10.0,0.0
19213,56.0,0.0,60.0,12.0,0.0
19214,22.0,0.0,90.0,3.0,0.0
19215,48.0,0.0,60.0,13.0,0.0
19216,22.0,0.0,90.0,15.0,0.0
19217,63.0,0.0,60.0,12.0,0.0
19218,56.0,8.0,60.0,12.0,0.0
19219,51.0,0.0,60.0,13.0,0.0
19220,44.0,45.0,60.0,10.0,0.0
19221,34.0,7.0,90.0,14.0,0.0
19222,44.0,52.0,60.0,10.0,0.0
19223,48.0,8.0,60.0,13.0,0.0
19224,51.0,0.0,60.0,13.0,0.0
19225,56.0,0.0,60.0,12.0,0.0
19226,63.0,0.0,60.0,12.0,0.0
19227,48.0,53.0,60.0,13.0,0.0
19228,51.0,0.0,60.0,13.0,0.0
19229,20.0,0.0,450.0,15.0,0.0
19230,44.0,0.0,120.0,10.0,0.0
19231,60.0,0.0,60.0,12.0,0.0
19232,20.0,7.0,450.0,3.0,0.0
19233,56.0,0.0,60.0,12.0,0.0
19234,32.0,0.0,450.0,14.0,0.0
19235,56.0,8.0,60.0,12.0,0.0
19236,51.0,0.0,60.0,13.0,0.0
19237,60.0,0.0,60.0,12.0,0.0
19238,48.0,0.0,60.0,13.0,0.0
19239,48.0,0.0,60.0,13.0,0.0
19240,68.0,0.0,90.0,11.0,0.0
19241,56.0,0.0,90.0,4.0,0.0
19242,44.0,0.0,90.0,4.0,0.0
19243,44.0,52.0,120.0,10.0,0.0
19244,80.0,15.0,90.0,0.0,0.0
19245,56.0,0.0,60.0,12.0,0.0
19246,60.0,38.0,60.0,12.0,0.0
19247,51.0,0.0,60.0,13.0,0.0
19248,68.0,0.0,90.0,1.0,0.0
19249,68.0,0.0,90.0,0.0,0.0
19250,68.0,0.0,90.0,5.0,0.0
19251,56.0,7.0,90.0,5.0,0.0
19252,60.0,8.0,60.0,12.0,0.0
19253,56.0,0.0,60.0,12.0,0.0
19254,51.0,0.0,60.0,13.0,0.0
19255,48.0,0.0,60.0,13.0,0.0
19256,44.0,0.0,90.0,4.0,0.0
19257,56.0,0.0,90.0,4.0,0.0
19258,72.0,0.0,210.0,2.0,0.0
19259,70.0,15.0,90.0,11.0,0.0
19260,44.0,52.0,120.0,10.0,0.0
19261,70.0,0.0,90.0,0.0,0.0
19262,82.0,0.0,90.0,0.0,0.0
19263,51.0,0.0,60.0,13.0,0.0
19264,48.0,0.0,60.0,13.0,0.0
19265,68.0,0.0,90.0,5.0,0.0
19266,56.0,7.0,90.0,5.0,0.0
19267,70.0,0.0,90.0,1.0,0.0
19268,56.0,38.0,60.0,12.0,0.0
19269,60.0,0.0,60.0,12.0,0.0
19270,51.0,0.0,60.0,13.0,0.0
19271,60.0,0.0,60.0,12.0,0.0
19272,56.0,8.0,60.0,12.0,0.0
19273,48.0,0.0,60.0,13.0,0.0
19274,44.0,0.0,120.0,10.0,0.0
19275,51.0,0.0,60.0,13.0,0.0
19276,56.0,0.0,90.0,4.0,0.0
19277,44.0,0.0,90.0,4.0,0.0
19278,72.0,37.0,60.0,11.0,0.0
19279,56.0,0.0,90.0,5.0,0.0
19280,60.0,16.0,60.0,12.0,0.0
19281,48.0,0.0,60.0,13.0,0.0
19282,68.0,0.0,90.0,5.0,0.0
19283,72.0,0.0,60.0,0.0,0.0
19284,72.0,0.0,60.0,1.0,0.0
19285,84.0,0.0,60.0,0.0,0.0
19286,56.0,0.0,60.0,12.0,0.0
19287,56.0,0.0,60.0,12.0,0.0
19288,51.0,0.0,60.0,13.0,0.0
19289,48.0,0.0,60.0,13.0,0.0
19290,60.0,8.0,60.0,12.0,0.0
19291,75.0,0.0,40.0,0.0,0.0
19292,75.0,0.0,40.0,1.0,0.0
19293,87.0,0.0,40.0,0.0,0.0
19294,75.0,52.0,40.0,11.0,0.0
19295,41.0,0.0,450.0,14.0,0.0
19296,49.0,0.0,930.0,3.0,0.0
19297,68.0,0.0,930.0,2.0,0.0
19298,73.0,0.0,450.0,2.0,0.0
19299,29.0,7.0,450.0,3.0,0.0
19300,29.0,0.0,450.0,15.0,0.0
19301,53.0,0.0,930.0,3.0,0.0
19302,73.0,0.0,90.0,0.0,0.0
19303,41.0,0.0,360.0,8.0,0.0
19304,85.0,0.0,90.0,0.0,0.0
19305,56.0,0.0,210.0,4.0,0.0
19306,56.0,38.0,60.0,12.0,0.0
19307,68.0,7.0,210.0,5.0,0.0
19308,56.0,0.0,210.0,5.0,0.0
19309,73.0,0.0,90.0,1.0,0.0
19310,56.0,52.0,360.0,7.0,0.0
19311,49.0,0.0,60.0,13.0,0.0
19312,53.0,0.0,60.0,13.0,0.0
19313,61.0,0.0,60.0,12.0,0.0
19314,44.0,52.0,240.0,10.0,0.0
19315,61.0,0.0,360.0,6.0,0.0
19316,44.0,0.0,210.0,4.0,0.0
19317,73.0,22.0,90.0,11.0,0.0
19318,61.0,0.0,60.0,12.0,0.0
19319,53.0,60.0,60.0,13.0,0.0
19320,49.0,0.0,60.0,13.0,0.0
19321,56.0,0.0,60.0,12.0,0.0
19322,72.0,15.0,90.0,0.0,0.0
19323,72.0,0.0,90.0,11.0,0.0
19324,49.0,38.0,60.0,13.0,0.0
19325,53.0,0.0,60.0,13.0,0.0
19326,72.0,0.0,90.0,1.0,0.0
19327,56.0,0.0,60.0,12.0,0.0
19328,84.0,0.0,90.0,0.0,0.0
19329,61.0,0.0,60.0,12.0,0.0
19330,56.0,0.0,60.0,12.0,0.0
19331,61.0,0.0,60.0,12.0,0.0
19332,53.0,0.0,60.0,13.0,0.0
19333,49.0,8.0,60.0,13.0,0.0
19334,61.0,38.0,60.0,12.0,0.0
19335,56.0,0.0,60.0,12.0,0.0
19336,44.0,0.0,90.0,4.0,0.0
19337,49.0,0.0,60.0,13.0,0.0
19338,53.0,0.0,60.0,13.0,0.0
19339,68.0,0.0,90.0,5.0,0.0
19340,56.0,0.0,90.0,4.0,0.0
19341,73.0,0.0,90.0,0.0,0.0
19342,85.0,0.0,90.0,0.0,0.0
19343,44.0,0.0,120.0,10.0,0.0
19344,56.0,7.0,90.0,5.0,0.0
19345,73.0,0.0,90.0,1.0,0.0
19346,73.0,15.0,90.0,11.0,0.0
19347,53.0,0.0,60.0,13.0,0.0
19348,56.0,0.0,60.0,12.0,0.0
19349,49.0,0.0,60.0,13.0,0.0
19350,61.0,8.0,60.0,12.0,0.0
19351,44.0,0.0,120.0,10.0,0.0
19352,53.0,0.0,60.0,13.0,0.0
19353,49.0,0.0,60.0,13.0,0.0
19354,75.0,0.0,60.0,1.0,0.0
19355,75.0,0.0,60.0,11.0,0.0
19356,56.0,0.0,90.0,5.0,0.0
19357,68.0,0.0,90.0,5.0,0.0
19358,75.0,37.0,60.0,0.0,0.0
19359,56.0,0.0,90.0,4.0,0.0
19360,44.0,0.0,90.0,4.0,0.0
19361,87.0,0.0,60.0,0.0,0.0
19362,61.0,0.0,60.0,12.0,0.0
19363,56.0,16.0,60.0,12.0,0.0
19364,56.0,0.0,60.0,12.0,0.0
19365,49.0,0.0,60.0,13.0,0.0
19366,53.0,8.0,60.0,13.0,0.0
19367,61.0,0.0,60.0,12.0,0.0
19368,79.0,52.0,40.0,0.0,0.0
19369,91.0,0.0,40.0,0.0,0.0
19370,79.0,0.0,40.0,11.0,0.0
19371,79.0,0.0,40.0,1.0,0.0
19372,65.0,0.0,360.0,6.0,0.0
19373,56.0,0.0,360.0,7.0,0.0
19374,56.0,0.0,210.0,5.0,0.0
19375,68.0,7.0,210.0,5.0,0.0
19376,77.0,0.0,90.0,1.0,0.0
19377,37.0,0.0,450.0,14.0,0.0
19378,77.0,0.0,90.0,0.0,0.0
19379,61.0,38.0,60.0,12.0,0.0
19380,56.0,0.0,60.0,12.0,0.0
19381,44.0,52.0,240.0,10.0,0.0
19382,44.0,0.0,210.0,4.0,0.0
19383,77.0,22.0,90.0,11.0,0.0
19384,89.0,0.0,90.0,0.0,0.0
19385,37.0,52.0,360.0,8.0,0.0
19386,25.0,7.0,450.0,3.0,0.0
19387,77.0,0.0,450.0,2.0,0.0
19388,25.0,0.0,450.0,15.0,0.0
19389,56.0,0.0,210.0,4.0,0.0
19390,49.0,0.0,60.0,13.0,0.0
19391,53.0,0.0,60.0,13.0,0.0
19392,49.0,0.0,60.0,13.0,0.0
19393,53.0,60.0,60.0,13.0,0.0
19394,56.0,0.0,60.0,12.0,0.0
19395,61.0,0.0,60.0,12.0,0.0
19396,75.0,15.0,90.0,0.0,0.0
19397,61.0,0.0,60.0,12.0,0.0
19398,53.0,0.0,60.0,13.0,0.0
19399,75.0,0.0,90.0,11.0,0.0
19400,87.0,0.0,90.0,0.0,0.0
19401,56.0,0.0,60.0,12.0,0.0
19402,75.0,0.0,90.0,1.0,0.0
19403,49.0,38.0,60.0,13.0,0.0
19404,49.0,8.0,60.0,13.0,0.0
19405,56.0,0.0,60.0,12.0,0.0
19406,53.0,0.0,60.0,13.0,0.0
19407,61.0,0.0,60.0,12.0,0.0
19408,77.0,0.0,90.0,11.0,0.0
19409,89.0,0.0,90.0,0.0,0.0
19410,77.0,0.0,90.0,1.0,0.0
19411,56.0,0.0,60.0,12.0,0.0
19412,61.0,0.0,60.0,12.0,0.0
19413,56.0,7.0,90.0,4.0,0.0
19414,44.0,0.0,90.0,4.0,0.0
19415,53.0,0.0,60.0,13.0,0.0
19416,56.0,0.0,90.0,5.0,0.0
19417,77.0,15.0,90.0,0.0,0.0
19418,49.0,38.0,60.0,13.0,0.0
19419,44.0,0.0,120.0,10.0,0.0
19420,68.0,0.0,90.0,5.0,0.0
19421,61.0,0.0,60.0,12.0,0.0
19422,49.0,0.0,60.0,13.0,0.0
19423,53.0,8.0,60.0,13.0,0.0
19424,56.0,0.0,60.0,12.0,0.0
19425,56.0,0.0,60.0,12.0,0.0
19426,56.0,0.0,90.0,5.0,0.0
19427,68.0,0.0,90.0,5.0,0.0
19428,61.0,16.0,60.0,12.0,0.0
19429,49.0,0.0,60.0,13.0,0.0
19430,79.0,15.0,90.0,1.0,0.0
19431,44.0,52.0,120.0,10.0,0.0
19432,91.0,0.0,60.0,0.0,0.0
19433,53.0,0.0,60.0,13.0,0.0
19434,44.0,0.0,90.0,4.0,0.0
19435,79.0,0.0,60.0,0.0,0.0
19436,56.0,0.0,90.0,4.0,0.0
19437,79.0,22.0,60.0,11.0,0.0
19438,53.0,8.0,60.0,13.0,0.0
19439,49.0,0.0,60.0,13.0,0.0
19440,61.0,0.0,60.0,12.0,0.0
19441,56.0,0.0,60.0,12.0,0.0
19442,94.0,0.0,40.0,0.0,0.0
19443,82.0,0.0,40.0,0.0,0.0
19444,82.0,0.0,40.0,11.0,0.0
19445,24.0,7.0,90.0,15.0,0.0
19446,36.0,0.0,90.0,14.0,0.0
19447,56.0,0.0,60.0,12.0,0.0
19448,44.0,30.0,60.0,10.0,0.0
19449,48.0,0.0,690.0,3.0,0.0
19450,51.0,0.0,690.0,3.0,0.0
19451,63.0,0.0,60.0,12.0,0.0
19452,68.0,0.0,90.0,1.0,0.0
19453,75.0,0.0,690.0,2.0,0.0
19454,56.0,0.0,690.0,4.0,0.0
19455,44.0,0.0,690.0,4.0,0.0
19456,80.0,0.0,90.0,11.0,0.0
19457,75.0,15.0,90.0,1.0,0.0
19458,68.0,7.0,690.0,5.0,0.0
19459,56.0,0.0,690.0,5.0,0.0
19460,80.0,0.0,90.0,0.0,0.0
19461,24.0,0.0,90.0,3.0,0.0
19462,48.0,0.0,60.0,13.0,0.0
19463,51.0,8.0,60.0,13.0,0.0
19464,56.0,0.0,690.0,7.0,0.0
19465,68.0,0.0,690.0,2.0,0.0
19466,92.0,0.0,90.0,0.0,0.0
19467,48.0,0.0,450.0,8.0,0.0
19468,63.0,0.0,690.0,6.0,0.0
19469,51.0,0.0,60.0,13.0,0.0
19470,44.0,52.0,60.0,10.0,0.0
19471,63.0,0.0,60.0,12.0,0.0
19472,56.0,8.0,60.0,12.0,0.0
19473,48.0,0.0,60.0,13.0,0.0
19474,79.0,0.0,90.0,11.0,0.0
19475,63.0,0.0,60.0,12.0,0.0
19476,91.0,15.0,90.0,0.0,0.0
19477,25.0,0.0,90.0,15.0,0.0
19478,25.0,0.0,90.0,3.0,0.0
19479,56.0,0.0,60.0,12.0,0.0
19480,79.0,0.0,90.0,0.0,0.0
19481,67.0,0.0,90.0,1.0,0.0
19482,37.0,7.0,90.0,14.0,0.0
19483,44.0,30.0,60.0,10.0,0.0
19484,48.0,8.0,60.0,13.0,0.0
19485,51.0,0.0,60.0,13.0,0.0
19486,63.0,8.0,60.0,12.0,0.0
19487,48.0,0.0,60.0,13.0,0.0
19488,51.0,0.0,60.0,13.0,0.0
19489,44.0,52.0,60.0,10.0,0.0
19490,56.0,0.0,60.0,12.0,0.0
19491,63.0,8.0,60.0,12.0,0.0
19492,36.0,0.0,90.0,14.0,0.0
19493,80.0,0.0,90.0,0.0,0.0
19494,56.0,0.0,60.0,12.0,0.0
19495,51.0,0.0,60.0,13.0,0.0
19496,92.0,0.0,90.0,0.0,0.0
19497,80.0,15.0,90.0,11.0,0.0
19498,68.0,0.0,90.0,1.0,0.0
19499,48.0,0.0,60.0,13.0,0.0
19500,44.0,30.0,60.0,10.0,0.0
19501,24.0,0.0,90.0,3.0,0.0
19502,24.0,7.0,90.0,15.0,0.0
19503,51.0,0.0,60.0,13.0,0.0
19504,63.0,8.0,60.0,12.0,0.0
19505,56.0,0.0,60.0,12.0,0.0
19506,48.0,0.0,60.0,13.0,0.0
19507,44.0,52.0,60.0,10.0,0.0
19508,82.0,0.0,90.0,11.0,0.0
19509,82.0,15.0,90.0,0.0,0.0
19510,56.0,0.0,60.0,12.0,0.0
19511,70.0,0.0,90.0,1.0,0.0
19512,63.0,8.0,60.0,12.0,0.0
19513,44.0,30.0,60.0,10.0,0.0
19514,94.0,0.0,90.0,0.0,0.0
19515,34.0,7.0,90.0,14.0,0.0
19516,51.0,0.0,60.0,13.0,0.0
19517,48.0,0.0,60.0,13.0,0.0
19518,22.0,0.0,90.0,15.0,0.0
19519,22.0,0.0,90.0,3.0,0.0
19520,56.0,8.0,60.0,12.0,0.0
19521,63.0,0.0,60.0,12.0,0.0
19522,51.0,0.0,60.0,13.0,0.0
19523,48.0,0.0,60.0,13.0,0.0
19524,44.0,52.0,60.0,10.0,0.0
19525,32.0,0.0,210.0,14.0,0.0
19526,20.0,0.0,210.0,15.0,0.0
19527,48.0,0.0,60.0,13.0,0.0
19528,44.0,0.0,210.0,8.0,0.0
19529,51.0,0.0,60.0,13.0,0.0
19530,44.0,52.0,240.0,10.0,0.0
19531,84.0,0.0,210.0,0.0,0.0
19532,84.0,0.0,210.0,11.0,0.0
19533,60.0,60.0,60.0,12.0,0.0
19534,56.0,0.0,60.0,12.0,0.0
19535,20.0,0.0,210.0,3.0,0.0
19536,96.0,0.0,210.0,0.0,0.0
19537,72.0,0.0,210.0,1.0,0.0
19538,56.0,0.0,60.0,12.0,0.0
19539,60.0,0.0,60.0,12.0,0.0
19540,48.0,0.0,60.0,13.0,0.0
19541,51.0,60.0,60.0,13.0,0.0
19542,48.0,0.0,60.0,13.0,0.0
19543,51.0,0.0,60.0,13.0,0.0
19544,60.0,53.0,60.0,12.0,0.0
19545,56.0,0.0,60.0,12.0,0.0
19546,56.0,0.0,60.0,12.0,0.0
19547,51.0,0.0,60.0,13.0,0.0
19548,48.0,0.0,60.0,13.0,0.0
19549,60.0,8.0,60.0,12.0,0.0
19550,75.0,0.0,120.0,1.0,0.0
19551,51.0,0.0,210.0,3.0,0.0
19552,87.0,52.0,120.0,0.0,0.0
19553,75.0,0.0,120.0,0.0,0.0
19554,48.0,0.0,60.0,13.0,0.0
19555,60.0,60.0,60.0,12.0,0.0
19556,51.0,0.0,60.0,13.0,0.0
19557,44.0,45.0,180.0,10.0,0.0
19558,56.0,0.0,60.0,12.0,0.0
19559,48.0,7.0,210.0,3.0,0.0
19560,32.0,0.0,180.0,15.0,0.0
19561,72.0,0.0,120.0,1.0,0.0
19562,32.0,0.0,180.0,3.0,0.0
19563,56.0,0.0,210.0,7.0,0.0
19564,72.0,0.0,180.0,5.0,0.0
19565,60.0,0.0,210.0,6.0,0.0
19566,63.0,0.0,210.0,2.0,0.0
19567,56.0,0.0,180.0,5.0,0.0
19568,72.0,0.0,210.0,2.0,0.0
19569,75.0,0.0,120.0,11.0,0.0
19570,44.0,0.0,180.0,14.0,0.0
19571,44.0,0.0,180.0,4.0,0.0
19572,44.0,0.0,210.0,8.0,0.0
19573,60.0,0.0,180.0,4.0,0.0
19574,48.0,0.0,60.0,13.0,0.0
19575,56.0,8.0,60.0,12.0,0.0
19576,51.0,0.0,60.0,13.0,0.0
19577,60.0,0.0,60.0,12.0,0.0
19578,48.0,0.0,60.0,13.0,0.0
19579,51.0,8.0,60.0,13.0,0.0
19580,56.0,0.0,60.0,12.0,0.0
19581,60.0,0.0,60.0,12.0,0.0
19582,44.0,0.0,60.0,4.0,0.0
19583,32.0,0.0,60.0,15.0,0.0
19584,44.0,0.0,60.0,14.0,0.0
19585,96.0,0.0,60.0,0.0,0.0
19586,84.0,0.0,60.0,11.0,0.0
19587,75.0,0.0,60.0,1.0,0.0
19588,32.0,0.0,60.0,3.0,0.0
19589,44.0,120.0,60.0,10.0,0.0
19590,60.0,0.0,60.0,4.0,0.0
19591,84.0,0.0,60.0,0.0,0.0
19592,72.0,0.0,60.0,1.0,0.0
19593,60.0,8.0,60.0,12.0,0.0
19594,48.0,0.0,60.0,13.0,0.0
19595,51.0,0.0,60.0,13.0,0.0
19596,56.0,0.0,60.0,5.0,0.0
19597,56.0,0.0,60.0,12.0,0.0
19598,72.0,0.0,60.0,5.0,0.0
19599,72.0,0.0,120.0,1.0,0.0
19600,43.0,0.0,450.0,8.0,0.0
19601,58.0,15.0,210.0,13.0,0.0
19602,51.0,0.0,210.0,12.0,0.0
19603,51.0,0.0,210.0,5.0,0.0
19604,70.0,0.0,210.0,5.0,0.0
19605,43.0,0.0,450.0,14.0,0.0
19606,61.0,0.0,240.0,6.0,0.0
19607,31.0,0.0,450.0,15.0,0.0
19608,61.0,7.0,450.0,2.0,0.0
19609,84.0,105.0,120.0,11.0,0.0
19610,96.0,0.0,120.0,0.0,0.0
19611,61.0,0.0,210.0,12.0,0.0
19612,84.0,0.0,120.0,0.0,0.0
19613,70.0,0.0,450.0,2.0,0.0
19614,58.0,0.0,240.0,7.0,0.0
19615,49.0,0.0,450.0,3.0,0.0
19616,46.0,0.0,450.0,3.0,0.0
19617,31.0,0.0,450.0,3.0,0.0
19618,39.0,0.0,210.0,4.0,0.0
19619,75.0,0.0,120.0,1.0,0.0
19620,39.0,120.0,240.0,10.0,0.0
19621,58.0,0.0,210.0,4.0,0.0
19622,82.0,0.0,90.0,0.0,0.0
19623,94.0,0.0,90.0,0.0,0.0
19624,73.0,0.0,90.0,1.0,0.0
19625,70.0,0.0,90.0,1.0,0.0
19626,82.0,0.0,90.0,11.0,0.0
19627,51.0,0.0,180.0,12.0,0.0
19628,61.0,0.0,180.0,12.0,0.0
19629,73.0,0.0,120.0,11.0,0.0
19630,51.0,0.0,180.0,5.0,0.0
19631,70.0,0.0,180.0,5.0,0.0
19632,73.0,52.0,120.0,0.0,0.0
19633,70.0,0.0,120.0,1.0,0.0
19634,73.0,0.0,120.0,1.0,0.0
19635,39.0,0.0,180.0,4.0,0.0
19636,85.0,0.0,120.0,0.0,0.0
19637,58.0,0.0,180.0,4.0,0.0
19638,58.0,53.0,180.0,13.0,0.0
19639,61.0,0.0,60.0,12.0,0.0
19640,82.0,0.0,60.0,0.0,0.0
19641,70.0,128.0,60.0,1.0,0.0
19642,73.0,0.0,60.0,1.0,0.0
19643,51.0,0.0,60.0,5.0,0.0
19644,51.0,0.0,60.0,12.0,0.0
19645,39.0,0.0,60.0,4.0,0.0
19646,94.0,0.0,60.0,0.0,0.0
19647,70.0,0.0,60.0,5.0,0.0
19648,58.0,0.0,60.0,4.0,0.0
19649,82.0,0.0,60.0,11.0,0.0
19650,58.0,0.0,60.0,13.0,0.0
19651,68.0,0.0,450.0,2.0,0.0
19652,82.0,105.0,120.0,0.0,0.0
19653,44.0,0.0,450.0,14.0,0.0
19654,56.0,0.0,210.0,5.0,0.0
19655,32.0,7.0,450.0,15.0,0.0
19656,72.0,0.0,210.0,5.0,0.0
19657,44.0,0.0,240.0,10.0,0.0
19658,44.0,0.0,210.0,4.0,0.0
19659,60.0,0.0,210.0,4.0,0.0
19660,60.0,0.0,450.0,2.0,0.0
19661,32.0,0.0,450.0,3.0,0.0
19662,60.0,15.0,210.0,12.0,0.0
19663,56.0,0.0,210.0,13.0,0.0
19664,82.0,0.0,120.0,11.0,0.0
19665,48.0,0.0,450.0,3.0,0.0
19666,44.0,0.0,450.0,3.0,0.0
19667,51.0,0.0,210.0,12.0,0.0
19668,94.0,0.0,120.0,0.0,0.0
19669,56.0,120.0,240.0,7.0,0.0
19670,73.0,0.0,120.0,1.0,0.0
19671,70.0,0.0,120.0,1.0,0.0
19672,44.0,0.0,450.0,8.0,0.0
19673,60.0,0.0,240.0,6.0,0.0
19674,72.0,0.0,90.0,1.0,0.0
19675,68.0,0.0,90.0,1.0,0.0
19676,80.0,0.0,90.0,11.0,0.0
19677,80.0,0.0,90.0,0.0,0.0
19678,92.0,0.0,90.0,0.0,0.0
19679,56.0,53.0,180.0,13.0,0.0
19680,68.0,0.0,120.0,1.0,0.0
19681,72.0,52.0,120.0,1.0,0.0
19682,72.0,0.0,120.0,0.0,0.0
19683,44.0,0.0,180.0,4.0,0.0
19684,60.0,0.0,180.0,4.0,0.0
19685,84.0,0.0,120.0,0.0,0.0
19686,72.0,0.0,180.0,5.0,0.0
19687,72.0,0.0,120.0,11.0,0.0
19688,51.0,0.0,180.0,12.0,0.0
19689,60.0,0.0,180.0,12.0,0.0
19690,56.0,0.0,180.0,5.0,0.0
19691,60.0,0.0,60.0,4.0,0.0
19692,92.0,128.0,60.0,0.0,0.0
19693,80.0,0.0,60.0,0.0,0.0
19694,80.0,0.0,60.0,11.0,0.0
19695,60.0,0.0,60.0,12.0,0.0
19696,51.0,0.0,60.0,12.0,0.0
19697,72.0,0.0,60.0,1.0,0.0
19698,44.0,0.0,60.0,4.0,0.0
19699,72.0,0.0,60.0,5.0,0.0
19700,56.0,0.0,60.0,5.0,0.0
19701,68.0,0.0,60.0,1.0,0.0
19702,56.0,0.0,60.0,13.0,0.0
19703,80.0,0.0,120.0,0.0,0.0
19704,80.0,0.0,120.0,11.0,0.0
19705,39.0,0.0,210.0,14.0,0.0
19706,27.0,0.0,210.0,3.0,0.0
19707,58.0,0.0,210.0,6.0,0.0
19708,39.0,0.0,210.0,8.0,0.0
19709,92.0,0.0,120.0,0.0,0.0
19710,39.0,240.0,240.0,10.0,0.0
19711,27.0,0.0,210.0,15.0,0.0
19712,43.0,0.0,210.0,3.0,0.0
19713,68.0,0.0,120.0,1.0,0.0
19714,46.0,0.0,210.0,3.0,0.0
19715,60.0,0.0,120.0,2.0,0.0
19716,68.0,105.0,120.0,2.0,0.0
19717,51.0,0.0,210.0,12.0,0.0
19718,58.0,0.0,210.0,12.0,0.0
19719,72.0,0.0,120.0,1.0,0.0
19720,51.0,0.0,210.0,5.0,0.0
19721,55.0,0.0,210.0,7.0,0.0
19722,55.0,0.0,210.0,13.0,0.0
19723,58.0,0.0,210.0,4.0,0.0
19724,70.0,0.0,210.0,5.0,0.0
19725,39.0,0.0,210.0,4.0,0.0
19726,91.0,0.0,90.0,0.0,0.0
19727,67.0,0.0,90.0,2.0,0.0
19728,79.0,0.0,90.0,0.0,0.0
19729,79.0,0.0,90.0,11.0,0.0
19730,67.0,0.0,90.0,1.0,0.0
19731,70.0,0.0,90.0,1.0,0.0
19732,58.0,15.0,90.0,2.0,0.0
19733,39.0,225.0,240.0,8.0,0.0
19734,55.0,0.0,240.0,7.0,0.0
19735,46.0,0.0,450.0,3.0,0.0
19736,70.0,0.0,450.0,1.0,0.0
19737,43.0,0.0,450.0,3.0,0.0
19738,58.0,0.0,450.0,12.0,0.0
19739,51.0,0.0,450.0,12.0,0.0
19740,67.0,0.0,450.0,1.0,0.0
19741,79.0,0.0,450.0,11.0,0.0
19742,27.0,0.0,450.0,3.0,0.0
19743,79.0,0.0,450.0,0.0,0.0
19744,51.0,0.0,450.0,5.0,0.0
19745,58.0,0.0,450.0,4.0,0.0
19746,70.0,0.0,450.0,5.0,0.0
19747,55.0,0.0,450.0,13.0,0.0
19748,67.0,135.0,450.0,2.0,0.0
19749,27.0,0.0,450.0,15.0,0.0
19750,39.0,0.0,240.0,10.0,0.0
19751,58.0,0.0,240.0,6.0,0.0
19752,39.0,0.0,450.0,4.0,0.0
19753,58.0,0.0,450.0,2.0,0.0
19754,91.0,0.0,450.0,0.0,0.0
19755,39.0,0.0,450.0,14.0,0.0
19756,48.0,0.0,180.0,3.0,0.0
19757,44.0,0.0,210.0,8.0,0.0
19758,60.0,0.0,180.0,12.0,0.0
19759,68.0,0.0,180.0,2.0,0.0
19760,60.0,0.0,180.0,4.0,0.0
19761,56.0,0.0,180.0,13.0,0.0
19762,51.0,0.0,180.0,12.0,0.0
19763,56.0,7.0,210.0,7.0,0.0
19764,44.0,0.0,180.0,4.0,0.0
19765,92.0,0.0,120.0,0.0,0.0
19766,32.0,0.0,180.0,15.0,0.0
19767,68.0,52.0,120.0,1.0,0.0
19768,60.0,0.0,180.0,2.0,0.0
19769,44.0,0.0,180.0,3.0,0.0
19770,72.0,0.0,120.0,1.0,0.0
19771,80.0,0.0,120.0,0.0,0.0
19772,56.0,0.0,180.0,5.0,0.0
19773,44.0,0.0,180.0,14.0,0.0
19774,80.0,0.0,120.0,11.0,0.0
19775,44.0,45.0,180.0,10.0,0.0
19776,60.0,0.0,210.0,6.0,0.0
19777,72.0,0.0,180.0,5.0,0.0
19778,32.0,8.0,180.0,3.0,0.0
19779,72.0,0.0,60.0,5.0,0.0
19780,60.0,0.0,60.0,12.0,0.0
19781,51.0,0.0,60.0,12.0,0.0
19782,44.0,0.0,60.0,3.0,0.0
19783,48.0,0.0,60.0,3.0,0.0
19784,96.0,0.0,60.0,0.0,0.0
19785,84.0,0.0,60.0,0.0,0.0
19786,56.0,0.0,60.0,5.0,0.0
19787,84.0,0.0,60.0,11.0,0.0
19788,32.0,0.0,60.0,15.0,0.0
19789,75.0,0.0,60.0,1.0,0.0
19790,68.0,8.0,60.0,2.0,0.0
19791,72.0,0.0,60.0,1.0,0.0
19792,60.0,0.0,60.0,2.0,0.0
19793,60.0,0.0,60.0,4.0,0.0
19794,44.0,0.0,60.0,4.0,0.0
19795,44.0,0.0,60.0,14.0,0.0
19796,56.0,0.0,60.0,13.0,0.0
19797,32.0,0.0,60.0,3.0,0.0
19798,44.0,120.0,60.0,10.0,0.0
19799,39.0,0.0,210.0,4.0,0.0
19800,49.0,7.0,450.0,3.0,0.0
19801,46.0,0.0,450.0,3.0,0.0
19802,31.0,0.0,450.0,15.0,0.0
19803,51.0,0.0,210.0,12.0,0.0
19804,58.0,0.0,210.0,4.0,0.0
19805,39.0,0.0,240.0,10.0,0.0
19806,61.0,120.0,240.0,6.0,0.0
19807,84.0,0.0,120.0,11.0,0.0
19808,51.0,0.0,210.0,5.0,0.0
19809,31.0,0.0,450.0,3.0,0.0
19810,70.0,0.0,210.0,5.0,0.0
19811,61.0,0.0,450.0,2.0,0.0
19812,61.0,0.0,210.0,12.0,0.0
19813,70.0,0.0,450.0,2.0,0.0
19814,58.0,0.0,240.0,7.0,0.0
19815,43.0,0.0,450.0,14.0,0.0
19816,58.0,0.0,210.0,13.0,0.0
19817,43.0,0.0,450.0,8.0,0.0
19818,96.0,105.0,120.0,0.0,0.0
19819,75.0,0.0,120.0,1.0,0.0
19820,72.0,0.0,120.0,1.0,0.0
19821,84.0,0.0,120.0,0.0,0.0
19822,73.0,0.0,90.0,1.0,0.0
19823,82.0,0.0,90.0,11.0,0.0
19824,94.0,0.0,90.0,0.0,0.0
19825,82.0,15.0,90.0,0.0,0.0
19826,70.0,0.0,90.0,1.0,0.0
19827,85.0,0.0,120.0,0.0,0.0
19828,51.0,0.0,180.0,12.0,0.0
19829,61.0,0.0,180.0,12.0,0.0
19830,73.0,0.0,120.0,11.0,0.0
19831,73.0,0.0,120.0,1.0,0.0
19832,58.0,0.0,180.0,13.0,0.0
19833,70.0,52.0,120.0,1.0,0.0
19834,73.0,0.0,120.0,0.0,0.0
19835,70.0,0.0,180.0,5.0,0.0
19836,51.0,0.0,180.0,5.0,0.0
19837,58.0,0.0,180.0,4.0,0.0
19838,39.0,53.0,180.0,4.0,0.0
19839,51.0,0.0,60.0,12.0,0.0
19840,61.0,0.0,60.0,12.0,0.0
19841,94.0,0.0,60.0,0.0,0.0
19842,51.0,0.0,60.0,5.0,0.0
19843,39.0,0.0,60.0,4.0,0.0
19844,70.0,0.0,60.0,5.0,0.0
19845,70.0,0.0,60.0,1.0,0.0
19846,73.0,0.0,60.0,1.0,0.0
19847,58.0,0.0,60.0,4.0,0.0
19848,58.0,0.0,60.0,13.0,0.0
19849,82.0,0.0,60.0,11.0,0.0
19850,82.0,128.0,60.0,0.0,0.0
19851,48.0,0.0,450.0,3.0,0.0
19852,94.0,0.0,120.0,0.0,0.0
19853,56.0,120.0,240.0,7.0,0.0
19854,82.0,0.0,120.0,11.0,0.0
19855,32.0,0.0,450.0,3.0,0.0
19856,70.0,0.0,120.0,1.0,0.0
19857,44.0,7.0,450.0,8.0,0.0
19858,73.0,105.0,120.0,1.0,0.0
19859,60.0,0.0,210.0,12.0,0.0
19860,60.0,0.0,210.0,4.0,0.0
19861,60.0,0.0,240.0,6.0,0.0
19862,44.0,0.0,450.0,3.0,0.0
19863,82.0,0.0,120.0,0.0,0.0
19864,72.0,0.0,210.0,5.0,0.0
19865,44.0,0.0,240.0,10.0,0.0
19866,56.0,15.0,210.0,5.0,0.0
19867,44.0,0.0,450.0,14.0,0.0
19868,44.0,0.0,210.0,4.0,0.0
19869,60.0,0.0,450.0,2.0,0.0
19870,51.0,0.0,210.0,12.0,0.0
19871,56.0,0.0,210.0,13.0,0.0
19872,32.0,0.0,450.0,15.0,0.0
19873,68.0,0.0,450.0,2.0,0.0
19874,92.0,0.0,90.0,0.0,0.0
19875,80.0,0.0,90.0,0.0,0.0
19876,80.0,0.0,90.0,11.0,0.0
19877,68.0,0.0,90.0,1.0,0.0
19878,72.0,0.0,90.0,1.0,0.0
19879,56.0,0.0,180.0,13.0,0.0
19880,72.0,0.0,120.0,11.0,0.0
19881,56.0,0.0,180.0,5.0,0.0
19882,60.0,0.0,180.0,4.0,0.0
19883,44.0,0.0,180.0,4.0,0.0
19884,51.0,0.0,180.0,12.0,0.0
19885,72.0,0.0,120.0,0.0,0.0
19886,60.0,0.0,180.0,12.0,0.0
19887,84.0,0.0,120.0,0.0,0.0
19888,68.0,0.0,120.0,1.0,0.0
19889,72.0,52.0,120.0,1.0,0.0
19890,72.0,53.0,180.0,5.0,0.0
19891,60.0,0.0,60.0,4.0,0.0
19892,44.0,128.0,60.0,4.0,0.0
19893,72.0,0.0,60.0,1.0,0.0
19894,68.0,0.0,60.0,1.0,0.0
19895,80.0,0.0,60.0,11.0,0.0
19896,92.0,0.0,60.0,0.0,0.0
19897,72.0,0.0,60.0,5.0,0.0
19898,56.0,0.0,60.0,5.0,0.0
19899,56.0,0.0,60.0,13.0,0.0
19900,60.0,0.0,60.0,12.0,0.0
19901,51.0,0.0,60.0,12.0,0.0
19902,80.0,0.0,60.0,0.0,0.0
19903,39.0,0.0,210.0,14.0,0.0
19904,68.0,0.0,120.0,2.0,0.0
19905,27.0,0.0,210.0,3.0,0.0
19906,60.0,0.0,120.0,2.0,0.0
19907,92.0,105.0,120.0,0.0,0.0
19908,80.0,0.0,120.0,11.0,0.0
19909,39.0,0.0,210.0,8.0,0.0
19910,39.0,240.0,240.0,10.0,0.0
19911,80.0,0.0,120.0,0.0,0.0
19912,55.0,0.0,210.0,13.0,0.0
19913,43.0,0.0,210.0,3.0,0.0
19914,68.0,0.0,120.0,1.0,0.0
19915,72.0,0.0,120.0,1.0,0.0
19916,58.0,0.0,210.0,6.0,0.0
19917,51.0,0.0,210.0,12.0,0.0
19918,46.0,0.0,210.0,3.0,0.0
19919,70.0,15.0,210.0,5.0,0.0
19920,55.0,0.0,210.0,7.0,0.0
19921,58.0,0.0,210.0,4.0,0.0
19922,39.0,0.0,210.0,4.0,0.0
19923,51.0,0.0,210.0,5.0,0.0
19924,58.0,0.0,210.0,12.0,0.0
19925,27.0,0.0,210.0,15.0,0.0
19926,79.0,0.0,90.0,0.0,0.0
19927,67.0,0.0,90.0,1.0,0.0
19928,70.0,0.0,90.0,1.0,0.0
19929,79.0,0.0,90.0,11.0,0.0
19930,58.0,0.0,90.0,2.0,0.0
19931,91.0,0.0,90.0,0.0,0.0
19932,67.0,0.0,90.0,2.0,0.0
19933,27.0,0.0,450.0,3.0,0.0
19934,27.0,0.0,450.0,15.0,0.0
19935,39.0,0.0,450.0,14.0,0.0
19936,46.0,0.0,450.0,3.0,0.0
19937,43.0,0.0,450.0,3.0,0.0
19938,39.0,0.0,240.0,10.0,0.0
19939,58.0,0.0,450.0,4.0,0.0
19940,55.0,0.0,240.0,7.0,0.0
19941,51.0,0.0,450.0,12.0,0.0
19942,70.0,0.0,450.0,5.0,0.0
19943,51.0,0.0,450.0,5.0,0.0
19944,58.0,105.0,450.0,12.0,0.0
19945,58.0,225.0,240.0,6.0,0.0
19946,79.0,0.0,450.0,11.0,0.0
19947,79.0,0.0,450.0,0.0,0.0
19948,39.0,0.0,450.0,4.0,0.0
19949,70.0,0.0,450.0,1.0,0.0
19950,67.0,0.0,450.0,1.0,0.0
19951,67.0,0.0,450.0,2.0,0.0
19952,91.0,0.0,450.0,0.0,0.0
19953,39.0,0.0,240.0,8.0,0.0
19954,55.0,0.0,450.0,13.0,0.0
19955,58.0,0.0,450.0,2.0,0.0
19956,48.0,0.0,180.0,3.0,0.0
19957,60.0,0.0,210.0,7.0,0.0
19958,60.0,0.0,180.0,4.0,0.0
19959,44.0,0.0,180.0,4.0,0.0
19960,51.0,8.0,180.0,12.0,0.0
19961,44.0,0.0,180.0,3.0,0.0
19962,60.0,82.0,90.0,2.0,0.0
19963,68.0,0.0,90.0,2.0,0.0
19964,68.0,0.0,210.0,6.0,0.0
19965,44.0,0.0,210.0,8.0,0.0
19966,92.0,0.0,90.0,0.0,0.0
19967,72.0,0.0,90.0,1.0,0.0
19968,60.0,0.0,180.0,12.0,0.0
19969,44.0,0.0,180.0,14.0,0.0
19970,68.0,0.0,90.0,1.0,0.0
19971,56.0,0.0,180.0,13.0,0.0
19972,44.0,45.0,180.0,10.0,0.0
19973,80.0,0.0,90.0,0.0,0.0
19974,32.0,0.0,180.0,15.0,0.0
19975,80.0,0.0,90.0,11.0,0.0
19976,32.0,0.0,180.0,3.0,0.0
19977,56.0,0.0,180.0,5.0,0.0
19978,72.0,0.0,180.0,5.0,0.0
19979,56.0,0.0,60.0,13.0,0.0
19980,75.0,0.0,40.0,1.0,0.0
19981,72.0,0.0,40.0,1.0,0.0
19982,56.0,0.0,60.0,5.0,0.0
19983,48.0,0.0,60.0,3.0,0.0
19984,60.0,0.0,60.0,12.0,0.0
19985,44.0,8.0,60.0,3.0,0.0
19986,72.0,0.0,60.0,5.0,0.0
19987,44.0,90.0,60.0,10.0,0.0
19988,51.0,0.0,60.0,12.0,0.0
19989,32.0,0.0,60.0,15.0,0.0
19990,96.0,0.0,40.0,0.0,0.0
19991,84.0,7.0,40.0,0.0,0.0
19992,44.0,0.0,60.0,4.0,0.0
19993,60.0,0.0,60.0,4.0,0.0
19994,84.0,0.0,40.0,11.0,0.0
19995,44.0,0.0,60.0,14.0,0.0
19996,32.0,0.0,60.0,3.0,0.0
19997,68.0,0.0,40.0,2.0,0.0
19998,60.0,0.0,40.0,2.0,0.0
19999,58.0,0.0,180.0,13.0,0.0
20000,46.0,0.0,90.0,3.0,0.0
20001,49.0,0.0,90.0,3.0,0.0
20002,70.0,0.0,180.0,5.0,0.0
20003,39.0,45.0,180.0,10.0,0.0
20004,31.0,0.0,180.0,15.0,0.0
20005,84.0,0.0,90.0,0.0,0.0
20006,61.0,0.0,90.0,2.0,0.0
20007,84.0,0.0,90.0,11.0,0.0
20008,70.0,0.0,90.0,2.0,0.0
20009,31.0,0.0,180.0,3.0,0.0
20010,43.0,0.0,180.0,14.0,0.0
20011,51.0,0.0,180.0,5.0,0.0
20012,61.0,0.0,210.0,7.0,0.0
20013,43.0,7.0,210.0,8.0,0.0
20014,96.0,82.0,90.0,0.0,0.0
20015,58.0,0.0,180.0,4.0,0.0
20016,39.0,0.0,180.0,4.0,0.0
20017,75.0,0.0,90.0,1.0,0.0
20018,61.0,0.0,180.0,12.0,0.0
20019,72.0,0.0,90.0,1.0,0.0
20020,70.0,0.0,210.0,6.0,0.0
20021,51.0,8.0,180.0,12.0,0.0
20022,70.0,0.0,40.0,2.0,0.0
20023,94.0,0.0,40.0,0.0,0.0
20024,43.0,0.0,60.0,14.0,0.0
20025,73.0,0.0,40.0,1.0,0.0
20026,70.0,0.0,40.0,1.0,0.0
20027,31.0,0.0,60.0,3.0,0.0
20028,51.0,8.0,60.0,12.0,0.0
20029,61.0,0.0,60.0,12.0,0.0
20030,82.0,0.0,40.0,11.0,0.0
20031,51.0,0.0,60.0,5.0,0.0
20032,46.0,0.0,40.0,3.0,0.0
20033,49.0,0.0,40.0,3.0,0.0
20034,82.0,0.0,40.0,0.0,0.0
20035,39.0,0.0,60.0,4.0,0.0
20036,58.0,0.0,60.0,4.0,0.0
20037,39.0,90.0,60.0,10.0,0.0
20038,70.0,0.0,60.0,5.0,0.0
20039,58.0,0.0,60.0,13.0,0.0
20040,61.0,0.0,40.0,2.0,0.0
20041,31.0,0.0,60.0,15.0,0.0
20042,70.0,0.0,180.0,5.0,0.0
20043,51.0,0.0,180.0,5.0,0.0
20044,85.0,0.0,90.0,0.0,0.0
20045,39.0,0.0,180.0,4.0,0.0
20046,61.0,0.0,90.0,2.0,0.0
20047,61.0,0.0,180.0,12.0,0.0
20048,39.0,0.0,180.0,14.0,0.0
20049,51.0,0.0,180.0,12.0,0.0
20050,39.0,0.0,210.0,8.0,0.0
20051,73.0,0.0,90.0,11.0,0.0
20052,70.0,0.0,90.0,2.0,0.0
20053,27.0,0.0,180.0,3.0,0.0
20054,70.0,7.0,210.0,6.0,0.0
20055,27.0,0.0,180.0,15.0,0.0
20056,73.0,82.0,90.0,1.0,0.0
20057,70.0,0.0,90.0,1.0,0.0
20058,55.0,0.0,180.0,13.0,0.0
20059,58.0,8.0,180.0,4.0,0.0
20060,49.0,0.0,90.0,3.0,0.0
20061,46.0,0.0,90.0,3.0,0.0
20062,73.0,0.0,90.0,0.0,0.0
20063,39.0,45.0,180.0,10.0,0.0
20064,61.0,0.0,210.0,7.0,0.0
20065,27.0,0.0,60.0,3.0,0.0
20066,39.0,90.0,60.0,10.0,0.0
20067,70.0,0.0,40.0,1.0,0.0
20068,27.0,0.0,60.0,15.0,0.0
20069,82.0,0.0,40.0,0.0,0.0
20070,70.0,0.0,40.0,2.0,0.0
20071,94.0,0.0,40.0,0.0,0.0
20072,39.0,0.0,60.0,14.0,0.0
20073,55.0,0.0,60.0,13.0,0.0
20074,46.0,0.0,40.0,3.0,0.0
20075,49.0,0.0,40.0,3.0,0.0
20076,70.0,0.0,60.0,5.0,0.0
20077,73.0,0.0,40.0,1.0,0.0
20078,51.0,0.0,60.0,5.0,0.0
20079,61.0,0.0,40.0,2.0,0.0
20080,82.0,0.0,40.0,11.0,0.0
20081,39.0,8.0,60.0,4.0,0.0
20082,58.0,0.0,60.0,4.0,0.0
20083,51.0,0.0,60.0,12.0,0.0
20084,61.0,0.0,60.0,12.0,0.0
20085,60.0,0.0,180.0,4.0,0.0
20086,32.0,0.0,180.0,15.0,0.0
20087,56.0,8.0,180.0,13.0,0.0
20088,48.0,0.0,90.0,3.0,0.0
20089,44.0,0.0,90.0,3.0,0.0
20090,70.0,0.0,90.0,1.0,0.0
20091,32.0,0.0,180.0,3.0,0.0
20092,60.0,0.0,210.0,7.0,0.0
20093,44.0,0.0,180.0,4.0,0.0
20094,68.0,0.0,210.0,6.0,0.0
20095,68.0,0.0,90.0,2.0,0.0
20096,51.0,0.0,180.0,12.0,0.0
20097,44.0,45.0,180.0,10.0,0.0
20098,82.0,0.0,90.0,11.0,0.0
20099,94.0,0.0,90.0,0.0,0.0
20100,60.0,82.0,90.0,2.0,0.0
20101,44.0,0.0,210.0,8.0,0.0
20102,73.0,0.0,90.0,1.0,0.0
20103,60.0,0.0,180.0,12.0,0.0
20104,44.0,0.0,180.0,14.0,0.0
20105,56.0,0.0,180.0,5.0,0.0
20106,82.0,0.0,90.0,0.0,0.0
20107,72.0,0.0,180.0,5.0,0.0
20108,60.0,0.0,60.0,12.0,0.0
20109,68.0,0.0,40.0,1.0,0.0
20110,44.0,7.0,40.0,3.0,0.0
20111,80.0,0.0,40.0,0.0,0.0
20112,51.0,0.0,60.0,12.0,0.0
20113,32.0,0.0,60.0,15.0,0.0
20114,56.0,0.0,60.0,13.0,0.0
20115,44.0,0.0,60.0,4.0,0.0
20116,60.0,0.0,60.0,4.0,0.0
20117,44.0,0.0,60.0,14.0,0.0
20118,48.0,0.0,40.0,3.0,0.0
20119,92.0,0.0,40.0,0.0,0.0
20120,56.0,8.0,60.0,5.0,0.0
20121,80.0,0.0,40.0,11.0,0.0
20122,68.0,0.0,40.0,2.0,0.0
20123,44.0,90.0,60.0,10.0,0.0
20124,32.0,0.0,60.0,3.0,0.0
20125,60.0,0.0,40.0,2.0,0.0
20126,72.0,0.0,60.0,5.0,0.0
20127,72.0,0.0,40.0,1.0,0.0
20128,72.0,0.0,90.0,0.0,0.0
20129,72.0,0.0,90.0,1.0,0.0
20130,48.0,0.0,180.0,14.0,0.0
20131,44.0,45.0,180.0,10.0,0.0
20132,72.0,0.0,180.0,5.0,0.0
20133,84.0,0.0,90.0,0.0,0.0
20134,68.0,0.0,90.0,1.0,0.0
20135,60.0,0.0,90.0,2.0,0.0
20136,51.0,0.0,180.0,12.0,0.0
20137,68.0,0.0,90.0,2.0,0.0
20138,72.0,82.0,90.0,11.0,0.0
20139,48.0,0.0,90.0,3.0,0.0
20140,60.0,0.0,180.0,12.0,0.0
20141,36.0,0.0,180.0,15.0,0.0
20142,44.0,0.0,180.0,4.0,0.0
20143,60.0,0.0,180.0,4.0,0.0
20144,56.0,0.0,180.0,13.0,0.0
20145,60.0,0.0,210.0,7.0,0.0
20146,36.0,0.0,180.0,3.0,0.0
20147,68.0,0.0,210.0,6.0,0.0
20148,56.0,8.0,180.0,5.0,0.0
20149,48.0,0.0,210.0,8.0,0.0
20150,44.0,0.0,90.0,3.0,0.0
20151,44.0,0.0,40.0,3.0,0.0
20152,48.0,0.0,40.0,3.0,0.0
20153,80.0,0.0,40.0,11.0,0.0
20154,48.0,0.0,60.0,14.0,0.0
20155,72.0,0.0,40.0,1.0,0.0
20156,68.0,0.0,40.0,1.0,0.0
20157,80.0,0.0,40.0,0.0,0.0
20158,60.0,0.0,60.0,12.0,0.0
20159,51.0,0.0,60.0,12.0,0.0
20160,36.0,0.0,60.0,15.0,0.0
20161,68.0,0.0,40.0,2.0,0.0
20162,56.0,0.0,60.0,13.0,0.0
20163,36.0,0.0,60.0,3.0,0.0
20164,44.0,0.0,60.0,4.0,0.0
20165,60.0,0.0,60.0,4.0,0.0
20166,44.0,52.0,60.0,10.0,0.0
20167,92.0,0.0,40.0,0.0,0.0
20168,56.0,8.0,60.0,5.0,0.0
20169,72.0,0.0,60.0,5.0,0.0
20170,60.0,7.0,40.0,2.0,0.0
20171,67.0,0.0,210.0,1.0,0.0
20172,70.0,0.0,210.0,1.0,0.0
20173,51.0,0.0,90.0,14.0,0.0
20174,58.0,0.0,210.0,4.0,0.0
20175,91.0,0.0,90.0,0.0,0.0
20176,51.0,0.0,60.0,12.0,0.0
20177,67.0,0.0,210.0,2.0,0.0
20178,51.0,0.0,210.0,5.0,0.0
20179,39.0,0.0,240.0,8.0,0.0
20180,79.0,0.0,90.0,0.0,0.0
20181,55.0,38.0,60.0,13.0,0.0
20182,39.0,0.0,210.0,4.0,0.0
20183,58.0,0.0,210.0,2.0,0.0
20184,39.0,0.0,90.0,15.0,0.0
20185,70.0,0.0,210.0,5.0,0.0
20186,58.0,0.0,60.0,12.0,0.0
20187,39.0,7.0,90.0,3.0,0.0
20188,46.0,0.0,210.0,3.0,0.0
20189,58.0,52.0,240.0,7.0,0.0
20190,67.0,0.0,240.0,6.0,0.0
20191,39.0,45.0,180.0,10.0,0.0
20192,79.0,15.0,90.0,11.0,0.0
20193,58.0,0.0,60.0,12.0,0.0
20194,51.0,60.0,60.0,12.0,0.0
20195,55.0,0.0,60.0,13.0,0.0
20196,55.0,0.0,60.0,13.0,0.0
20197,27.0,0.0,90.0,15.0,0.0
20198,39.0,7.0,90.0,14.0,0.0
20199,27.0,0.0,90.0,3.0,0.0
20200,58.0,0.0,60.0,12.0,0.0
20201,51.0,8.0,60.0,12.0,0.0
20202,58.0,0.0,60.0,12.0,0.0
20203,51.0,0.0,60.0,12.0,0.0
20204,39.0,0.0,60.0,10.0,0.0
20205,70.0,0.0,60.0,11.0,0.0
20206,70.0,8.0,60.0,0.0,0.0
20207,82.0,0.0,60.0,0.0,0.0
20208,55.0,0.0,60.0,13.0,0.0
20209,58.0,0.0,60.0,12.0,0.0
20210,51.0,60.0,60.0,12.0,0.0
20211,63.0,0.0,210.0,5.0,0.0
20212,75.0,0.0,450.0,0.0,0.0
20213,70.0,0.0,210.0,5.0,0.0
20214,51.0,7.0,210.0,4.0,0.0
20215,58.0,0.0,210.0,4.0,0.0
20216,87.0,0.0,450.0,0.0,0.0
20217,75.0,0.0,450.0,1.0,0.0
20218,75.0,0.0,450.0,11.0,0.0
20219,55.0,0.0,210.0,3.0,0.0
20220,27.0,0.0,240.0,15.0,0.0
20221,39.0,0.0,240.0,10.0,0.0
20222,27.0,0.0,240.0,3.0,0.0
20223,51.0,0.0,210.0,3.0,0.0
20224,63.0,0.0,210.0,2.0,0.0
20225,55.0,0.0,60.0,13.0,0.0
20226,67.0,0.0,210.0,2.0,0.0
20227,39.0,52.0,240.0,14.0,0.0
20228,55.0,0.0,60.0,13.0,0.0
20229,58.0,60.0,60.0,12.0,0.0
20230,51.0,0.0,60.0,12.0,0.0
20231,55.0,53.0,60.0,13.0,0.0
20232,51.0,0.0,60.0,12.0,0.0
20233,58.0,0.0,60.0,12.0,0.0
20234,51.0,8.0,60.0,12.0,0.0
20235,58.0,0.0,60.0,12.0,0.0
20236,55.0,0.0,60.0,13.0,0.0
20237,56.0,0.0,210.0,4.0,0.0
20238,72.0,0.0,210.0,5.0,0.0
20239,60.0,0.0,210.0,3.0,0.0
20240,56.0,0.0,60.0,13.0,0.0
20241,68.0,0.0,210.0,5.0,0.0
20242,72.0,0.0,210.0,2.0,0.0
20243,68.0,0.0,210.0,2.0,0.0
20244,56.0,0.0,210.0,3.0,0.0
20245,60.0,7.0,210.0,4.0,0.0
20246,60.0,60.0,60.0,12.0,0.0
20247,51.0,0.0,60.0,12.0,0.0
20248,56.0,0.0,60.0,13.0,0.0
20249,51.0,0.0,60.0,12.0,0.0
20250,60.0,60.0,60.0,12.0,0.0
20251,51.0,53.0,60.0,12.0,0.0
20252,56.0,0.0,60.0,13.0,0.0
20253,60.0,0.0,60.0,12.0,0.0
20254,51.0,60.0,60.0,12.0,0.0
20255,56.0,0.0,60.0,13.0,0.0
20256,60.0,0.0,60.0,12.0,0.0
20257,77.0,0.0,60.0,0.0,0.0
20258,60.0,0.0,210.0,3.0,0.0
20259,68.0,0.0,210.0,2.0,0.0
20260,72.0,0.0,210.0,2.0,0.0
20261,56.0,0.0,210.0,4.0,0.0
20262,56.0,0.0,210.0,3.0,0.0
20263,51.0,0.0,60.0,12.0,0.0
20264,72.0,0.0,210.0,5.0,0.0
20265,68.0,7.0,210.0,5.0,0.0
20266,56.0,8.0,60.0,13.0,0.0
20267,60.0,0.0,210.0,4.0,0.0
20268,77.0,0.0,60.0,1.0,0.0
20269,89.0,52.0,60.0,0.0,0.0
20270,60.0,0.0,60.0,12.0,0.0
20271,77.0,0.0,60.0,11.0,0.0
20272,87.0,0.0,60.0,0.0,0.0
20273,75.0,0.0,60.0,0.0,0.0
20274,75.0,52.0,60.0,11.0,0.0
20275,51.0,0.0,60.0,12.0,0.0
20276,60.0,8.0,60.0,12.0,0.0
20277,56.0,0.0,60.0,13.0,0.0
20278,75.0,0.0,60.0,1.0,0.0
20279,60.0,8.0,60.0,12.0,0.0
20280,56.0,0.0,60.0,13.0,0.0
20281,73.0,0.0,60.0,1.0,0.0
20282,73.0,45.0,60.0,0.0,0.0
20283,85.0,0.0,60.0,0.0,0.0
20284,51.0,0.0,60.0,12.0,0.0
20285,73.0,0.0,60.0,11.0,0.0
20286,72.0,0.0,60.0,11.0,0.0
20287,84.0,60.0,60.0,0.0,0.0
20288,60.0,0.0,60.0,12.0,0.0
20289,72.0,0.0,60.0,0.0,0.0
20290,56.0,0.0,60.0,13.0,0.0
20291,51.0,0.0,60.0,12.0,0.0
20292,72.0,0.0,60.0,1.0,0.0
20293,58.0,0.0,210.0,3.0,0.0
20294,63.0,0.0,210.0,5.0,0.0
20295,70.0,0.0,210.0,5.0,0.0
20296,39.0,45.0,180.0,10.0,0.0
20297,70.0,0.0,120.0,0.0,0.0
20298,82.0,0.0,120.0,0.0,0.0
20299,70.0,0.0,120.0,11.0,0.0
20300,67.0,0.0,210.0,2.0,0.0
20301,70.0,0.0,210.0,2.0,0.0
20302,55.0,0.0,210.0,3.0,0.0
20303,58.0,0.0,210.0,4.0,0.0
20304,67.0,52.0,240.0,6.0,0.0
20305,55.0,60.0,60.0,13.0,0.0
20306,51.0,0.0,60.0,12.0,0.0
20307,58.0,0.0,60.0,12.0,0.0
20308,51.0,0.0,210.0,4.0,0.0
20309,39.0,0.0,240.0,8.0,0.0
20310,70.0,52.0,120.0,1.0,0.0
20311,58.0,0.0,240.0,7.0,0.0
20312,58.0,8.0,60.0,12.0,0.0
20313,55.0,0.0,60.0,13.0,0.0
20314,51.0,0.0,60.0,12.0,0.0
20315,51.0,0.0,60.0,12.0,0.0
20316,27.0,7.0,90.0,15.0,0.0
20317,39.0,0.0,90.0,14.0,0.0
20318,55.0,0.0,60.0,13.0,0.0
20319,58.0,8.0,60.0,12.0,0.0
20320,27.0,0.0,90.0,3.0,0.0
20321,70.0,0.0,60.0,0.0,0.0
20322,82.0,0.0,60.0,0.0,0.0
20323,39.0,0.0,60.0,10.0,0.0
20324,70.0,0.0,60.0,11.0,0.0
20325,70.0,8.0,60.0,1.0,0.0
20326,58.0,0.0,60.0,12.0,0.0
20327,51.0,0.0,60.0,12.0,0.0
20328,55.0,0.0,60.0,13.0,0.0
20329,58.0,0.0,210.0,4.0,0.0
20330,51.0,0.0,210.0,4.0,0.0
20331,87.0,0.0,450.0,0.0,0.0
20332,63.0,7.0,210.0,2.0,0.0
20333,67.0,0.0,210.0,2.0,0.0
20334,63.0,0.0,210.0,5.0,0.0
20335,75.0,0.0,450.0,0.0,0.0
20336,51.0,0.0,60.0,12.0,0.0
20337,58.0,60.0,60.0,12.0,0.0
20338,55.0,0.0,60.0,13.0,0.0
20339,39.0,0.0,240.0,14.0,0.0
20340,55.0,0.0,210.0,3.0,0.0
20341,75.0,0.0,450.0,1.0,0.0
20342,51.0,0.0,210.0,3.0,0.0
20343,39.0,52.0,240.0,10.0,0.0
20344,27.0,0.0,240.0,15.0,0.0
20345,75.0,0.0,450.0,11.0,0.0
20346,27.0,0.0,240.0,3.0,0.0
20347,70.0,0.0,210.0,5.0,0.0
20348,58.0,60.0,60.0,12.0,0.0
20349,55.0,0.0,60.0,13.0,0.0
20350,51.0,0.0,60.0,12.0,0.0
20351,51.0,53.0,60.0,12.0,0.0
20352,58.0,0.0,60.0,12.0,0.0
20353,55.0,0.0,60.0,13.0,0.0
20354,58.0,0.0,60.0,12.0,0.0
20355,51.0,8.0,60.0,12.0,0.0
20356,55.0,0.0,60.0,13.0,0.0
20357,60.0,0.0,210.0,3.0,0.0
20358,72.0,0.0,210.0,2.0,0.0
20359,72.0,0.0,210.0,5.0,0.0
20360,51.0,0.0,60.0,12.0,0.0
20361,60.0,60.0,60.0,12.0,0.0
20362,56.0,7.0,210.0,4.0,0.0
20363,68.0,0.0,210.0,2.0,0.0
20364,68.0,0.0,210.0,5.0,0.0
20365,60.0,0.0,210.0,4.0,0.0
20366,56.0,0.0,210.0,3.0,0.0
20367,56.0,0.0,60.0,13.0,0.0
20368,51.0,0.0,60.0,12.0,0.0
20369,56.0,0.0,60.0,13.0,0.0
20370,60.0,60.0,60.0,12.0,0.0
20371,60.0,53.0,60.0,12.0,0.0
20372,56.0,0.0,60.0,13.0,0.0
20373,51.0,0.0,60.0,12.0,0.0
20374,51.0,60.0,60.0,12.0,0.0
20375,56.0,0.0,60.0,13.0,0.0
20376,60.0,0.0,60.0,12.0,0.0
20377,51.0,0.0,60.0,12.0,0.0
20378,77.0,0.0,60.0,11.0,0.0
20379,60.0,8.0,60.0,12.0,0.0
20380,68.0,0.0,210.0,2.0,0.0
20381,72.0,0.0,210.0,2.0,0.0
20382,77.0,0.0,60.0,1.0,0.0
20383,72.0,0.0,210.0,5.0,0.0
20384,56.0,7.0,210.0,4.0,0.0
20385,60.0,0.0,210.0,4.0,0.0
20386,56.0,0.0,210.0,3.0,0.0
20387,60.0,0.0,210.0,3.0,0.0
20388,89.0,0.0,60.0,0.0,0.0
20389,56.0,0.0,60.0,13.0,0.0
20390,77.0,52.0,60.0,0.0,0.0
20391,68.0,0.0,210.0,5.0,0.0
20392,75.0,0.0,60.0,1.0,0.0
20393,75.0,52.0,60.0,11.0,0.0
20394,51.0,0.0,60.0,12.0,0.0
20395,87.0,0.0,60.0,0.0,0.0
20396,56.0,8.0,60.0,13.0,0.0
20397,75.0,0.0,60.0,0.0,0.0
20398,60.0,0.0,60.0,12.0,0.0
20399,73.0,0.0,60.0,11.0,0.0
20400,60.0,8.0,60.0,12.0,0.0
20401,85.0,0.0,60.0,0.0,0.0
20402,73.0,45.0,60.0,1.0,0.0
20403,73.0,0.0,60.0,0.0,0.0
20404,51.0,0.0,60.0,12.0,0.0
20405,56.0,0.0,60.0,13.0,0.0
20406,84.0,0.0,60.0,0.0,0.0
20407,51.0,0.0,60.0,12.0,0.0
20408,60.0,0.0,60.0,12.0,0.0
20409,72.0,0.0,60.0,0.0,0.0
20410,56.0,60.0,60.0,13.0,0.0
20411,72.0,0.0,60.0,11.0,0.0
20412,72.0,0.0,60.0,1.0,0.0
20413,82.0,0.0,120.0,0.0,0.0
20414,67.0,0.0,240.0,6.0,0.0
20415,70.0,0.0,120.0,0.0,0.0
20416,51.0,60.0,60.0,12.0,0.0
20417,51.0,0.0,120.0,4.0,0.0
20418,55.0,52.0,120.0,3.0,0.0
20419,70.0,0.0,120.0,2.0,0.0
20420,58.0,0.0,240.0,7.0,0.0
20421,67.0,0.0,120.0,2.0,0.0
20422,39.0,45.0,180.0,10.0,0.0
20423,63.0,0.0,120.0,5.0,0.0
20424,70.0,0.0,120.0,11.0,0.0
20425,58.0,0.0,120.0,4.0,0.0
20426,58.0,0.0,120.0,3.0,0.0
20427,70.0,0.0,120.0,5.0,0.0
20428,70.0,0.0,120.0,1.0,0.0
20429,39.0,0.0,240.0,8.0,0.0
20430,55.0,0.0,60.0,13.0,0.0
20431,58.0,0.0,60.0,12.0,0.0
20432,58.0,0.0,60.0,12.0,0.0
20433,51.0,0.0,60.0,12.0,0.0
20434,55.0,8.0,60.0,13.0,0.0
20435,39.0,7.0,90.0,14.0,0.0
20436,51.0,0.0,60.0,12.0,0.0
20437,56.0,8.0,60.0,13.0,0.0
20438,60.0,0.0,60.0,12.0,0.0
20439,27.0,0.0,90.0,15.0,0.0
20440,27.0,0.0,90.0,3.0,0.0
20441,63.0,0.0,60.0,2.0,0.0
20442,60.0,0.0,60.0,12.0,0.0
20443,51.0,0.0,60.0,12.0,0.0
20444,60.0,0.0,60.0,4.0,0.0
20445,75.0,8.0,60.0,0.0,0.0
20446,56.0,0.0,60.0,4.0,0.0
20447,75.0,0.0,60.0,11.0,0.0
20448,75.0,0.0,60.0,1.0,0.0
20449,68.0,0.0,60.0,5.0,0.0
20450,39.0,52.0,60.0,10.0,0.0
20451,68.0,0.0,60.0,2.0,0.0
20452,56.0,0.0,60.0,13.0,0.0
20453,72.0,0.0,60.0,5.0,0.0
20454,87.0,0.0,60.0,0.0,0.0
20455,56.0,0.0,60.0,3.0,0.0
20456,51.0,0.0,60.0,3.0,0.0
20457,56.0,0.0,60.0,13.0,0.0
20458,60.0,0.0,210.0,3.0,0.0
20459,39.0,0.0,240.0,10.0,0.0
20460,68.0,7.0,210.0,2.0,0.0
20461,72.0,0.0,210.0,2.0,0.0
20462,56.0,0.0,210.0,4.0,0.0
20463,72.0,0.0,210.0,5.0,0.0
20464,56.0,0.0,210.0,3.0,0.0
20465,77.0,0.0,60.0,11.0,0.0
20466,27.0,0.0,240.0,15.0,0.0
20467,89.0,0.0,60.0,0.0,0.0
20468,27.0,0.0,240.0,3.0,0.0
20469,68.0,0.0,210.0,5.0,0.0
20470,51.0,8.0,60.0,12.0,0.0
20471,39.0,52.0,240.0,14.0,0.0
20472,60.0,0.0,60.0,12.0,0.0
20473,60.0,0.0,210.0,4.0,0.0
20474,77.0,52.0,60.0,0.0,0.0
20475,77.0,0.0,60.0,1.0,0.0
20476,75.0,0.0,60.0,11.0,0.0
20477,75.0,0.0,60.0,0.0,0.0
20478,75.0,52.0,60.0,1.0,0.0
20479,60.0,0.0,60.0,12.0,0.0
20480,87.0,0.0,60.0,0.0,0.0
20481,51.0,0.0,60.0,12.0,0.0
20482,56.0,8.0,60.0,13.0,0.0
20483,73.0,0.0,60.0,0.0,0.0
20484,85.0,0.0,60.0,0.0,0.0
20485,73.0,0.0,60.0,1.0,0.0
20486,73.0,45.0,60.0,11.0,0.0
20487,51.0,8.0,60.0,12.0,0.0
20488,60.0,0.0,60.0,12.0,0.0
20489,56.0,0.0,60.0,13.0,0.0
20490,72.0,0.0,60.0,11.0,0.0
20491,72.0,0.0,60.0,0.0,0.0
20492,72.0,0.0,60.0,1.0,0.0
20493,56.0,8.0,60.0,13.0,0.0
20494,60.0,0.0,60.0,12.0,0.0
20495,51.0,0.0,60.0,12.0,0.0
20496,84.0,0.0,60.0,0.0,0.0
20497,39.0,0.0,240.0,8.0,0.0
20498,67.0,0.0,120.0,2.0,0.0
20499,70.0,0.0,120.0,2.0,0.0
20500,70.0,0.0,120.0,0.0,0.0
20501,82.0,0.0,120.0,0.0,0.0
20502,67.0,52.0,240.0,6.0,0.0
20503,58.0,0.0,120.0,4.0,0.0
20504,51.0,0.0,120.0,4.0,0.0
20505,55.0,0.0,60.0,13.0,0.0
20506,58.0,0.0,120.0,3.0,0.0
20507,51.0,0.0,60.0,12.0,0.0
20508,70.0,52.0,120.0,1.0,0.0
20509,39.0,45.0,180.0,10.0,0.0
20510,70.0,0.0,120.0,11.0,0.0
20511,70.0,0.0,120.0,5.0,0.0
20512,63.0,0.0,120.0,5.0,0.0
20513,58.0,60.0,60.0,12.0,0.0
20514,55.0,0.0,120.0,3.0,0.0
20515,58.0,0.0,240.0,7.0,0.0
20516,58.0,0.0,60.0,12.0,0.0
20517,55.0,8.0,60.0,13.0,0.0
20518,51.0,0.0,60.0,12.0,0.0
20519,56.0,8.0,60.0,13.0,0.0
20520,27.0,0.0,90.0,3.0,0.0
20521,27.0,7.0,90.0,15.0,0.0
20522,39.0,0.0,90.0,14.0,0.0
20523,51.0,0.0,60.0,12.0,0.0
20524,60.0,0.0,60.0,12.0,0.0
20525,68.0,0.0,60.0,2.0,0.0
20526,51.0,0.0,60.0,3.0,0.0
20527,56.0,0.0,60.0,3.0,0.0
20528,60.0,0.0,60.0,4.0,0.0
20529,56.0,0.0,60.0,4.0,0.0
20530,75.0,0.0,60.0,11.0,0.0
20531,63.0,0.0,60.0,2.0,0.0
20532,39.0,0.0,60.0,10.0,0.0
20533,51.0,8.0,60.0,12.0,0.0
20534,60.0,0.0,60.0,12.0,0.0
20535,72.0,0.0,60.0,5.0,0.0
20536,68.0,0.0,60.0,5.0,0.0
20537,87.0,0.0,60.0,0.0,0.0
20538,75.0,0.0,60.0,1.0,0.0
20539,56.0,0.0,60.0,13.0,0.0
20540,75.0,0.0,60.0,0.0,0.0
20541,77.0,52.0,60.0,0.0,0.0
20542,89.0,0.0,60.0,0.0,0.0
20543,72.0,0.0,210.0,2.0,0.0
20544,27.0,0.0,240.0,3.0,0.0
20545,68.0,0.0,210.0,2.0,0.0
20546,56.0,0.0,210.0,3.0,0.0
20547,77.0,0.0,60.0,11.0,0.0
20548,56.0,8.0,60.0,13.0,0.0
20549,27.0,0.0,240.0,15.0,0.0
20550,39.0,52.0,240.0,14.0,0.0
20551,77.0,0.0,60.0,1.0,0.0
20552,60.0,0.0,210.0,3.0,0.0
20553,60.0,0.0,60.0,12.0,0.0
20554,39.0,0.0,240.0,10.0,0.0
20555,60.0,7.0,210.0,4.0,0.0
20556,68.0,0.0,210.0,5.0,0.0
20557,72.0,0.0,210.0,5.0,0.0
20558,56.0,0.0,210.0,4.0,0.0
20559,51.0,0.0,60.0,12.0,0.0
20560,87.0,0.0,60.0,0.0,0.0
20561,56.0,8.0,60.0,13.0,0.0
20562,75.0,52.0,60.0,1.0,0.0
20563,75.0,0.0,60.0,0.0,0.0
20564,60.0,0.0,60.0,12.0,0.0
20565,51.0,0.0,60.0,12.0,0.0
20566,75.0,0.0,60.0,11.0,0.0
20567,56.0,0.0,60.0,13.0,0.0
20568,60.0,8.0,60.0,12.0,0.0
20569,51.0,0.0,60.0,12.0,0.0
20570,85.0,45.0,60.0,0.0,0.0
20571,73.0,0.0,60.0,11.0,0.0
20572,73.0,0.0,60.0,1.0,0.0
20573,73.0,0.0,60.0,0.0,0.0
20574,60.0,0.0,60.0,12.0,0.0
20575,72.0,0.0,60.0,0.0,0.0
20576,72.0,8.0,60.0,11.0,0.0
20577,72.0,0.0,60.0,1.0,0.0
20578,51.0,0.0,60.0,12.0,0.0
20579,56.0,0.0,60.0,13.0,0.0
20580,84.0,0.0,60.0,0.0,0.0
20581,70.0,0.0,120.0,2.0,0.0
20582,67.0,0.0,120.0,2.0,0.0
20583,67.0,52.0,240.0,6.0,0.0
20584,58.0,0.0,240.0,7.0,0.0
20585,39.0,0.0,240.0,8.0,0.0
20586,39.0,45.0,180.0,10.0,0.0
20587,82.0,0.0,120.0,0.0,0.0
20588,51.0,60.0,60.0,12.0,0.0
20589,63.0,0.0,120.0,5.0,0.0
20590,70.0,0.0,120.0,5.0,0.0
20591,70.0,0.0,120.0,11.0,0.0
20592,55.0,0.0,120.0,3.0,0.0
20593,58.0,0.0,120.0,3.0,0.0
20594,51.0,0.0,120.0,4.0,0.0
20595,58.0,0.0,120.0,4.0,0.0
20596,70.0,52.0,120.0,0.0,0.0
20597,70.0,0.0,120.0,1.0,0.0
20598,58.0,0.0,60.0,12.0,0.0
20599,55.0,0.0,60.0,13.0,0.0
20600,55.0,0.0,60.0,13.0,0.0
20601,51.0,0.0,60.0,12.0,0.0
20602,58.0,8.0,60.0,12.0,0.0
20603,51.0,0.0,60.0,12.0,0.0
20604,27.0,0.0,90.0,3.0,0.0
20605,27.0,7.0,90.0,15.0,0.0
20606,60.0,8.0,60.0,12.0,0.0
20607,56.0,0.0,60.0,13.0,0.0
20608,39.0,0.0,90.0,14.0,0.0
20609,60.0,0.0,60.0,12.0,0.0
20610,51.0,0.0,60.0,12.0,0.0
20611,56.0,0.0,60.0,13.0,0.0
20612,75.0,0.0,60.0,1.0,0.0
20613,68.0,0.0,60.0,5.0,0.0
20614,72.0,0.0,60.0,5.0,0.0
20615,68.0,0.0,60.0,2.0,0.0
20616,63.0,8.0,60.0,2.0,0.0
20617,75.0,0.0,60.0,11.0,0.0
20618,87.0,0.0,60.0,0.0,0.0
20619,75.0,0.0,60.0,0.0,0.0
20620,56.0,0.0,60.0,3.0,0.0
20621,39.0,0.0,60.0,10.0,0.0
20622,60.0,0.0,60.0,4.0,0.0
20623,51.0,0.0,60.0,3.0,0.0
20624,56.0,0.0,60.0,4.0,0.0
20625,77.0,0.0,60.0,0.0,0.0
20626,56.0,0.0,210.0,3.0,0.0
20627,27.0,0.0,240.0,15.0,0.0
20628,68.0,0.0,210.0,5.0,0.0
20629,72.0,0.0,210.0,5.0,0.0
20630,60.0,0.0,210.0,4.0,0.0
20631,56.0,8.0,60.0,13.0,0.0
20632,60.0,0.0,210.0,3.0,0.0
20633,56.0,7.0,210.0,4.0,0.0
20634,77.0,0.0,60.0,11.0,0.0
20635,68.0,0.0,210.0,2.0,0.0
20636,39.0,0.0,240.0,10.0,0.0
20637,60.0,0.0,60.0,12.0,0.0
20638,51.0,0.0,60.0,12.0,0.0
20639,39.0,52.0,240.0,14.0,0.0
20640,27.0,0.0,240.0,3.0,0.0
20641,77.0,0.0,60.0,1.0,0.0
20642,72.0,0.0,210.0,2.0,0.0
20643,89.0,52.0,60.0,0.0,0.0
20644,51.0,0.0,60.0,12.0,0.0
20645,60.0,0.0,60.0,12.0,0.0
20646,56.0,8.0,60.0,13.0,0.0
20647,75.0,0.0,60.0,11.0,0.0
20648,75.0,0.0,60.0,1.0,0.0
20649,75.0,0.0,60.0,0.0,0.0
20650,87.0,52.0,60.0,0.0,0.0
20651,73.0,0.0,60.0,11.0,0.0
20652,73.0,45.0,60.0,1.0,0.0
20653,73.0,0.0,60.0,0.0,0.0
20654,60.0,8.0,60.0,12.0,0.0
20655,85.0,0.0,60.0,0.0,0.0
20656,51.0,0.0,60.0,12.0,0.0
20657,56.0,0.0,60.0,13.0,0.0
20658,56.0,0.0,60.0,13.0,0.0
20659,60.0,0.0,60.0,12.0,0.0
20660,51.0,0.0,60.0,12.0,0.0
20661,72.0,0.0,60.0,11.0,0.0
20662,84.0,0.0,60.0,0.0,0.0
20663,72.0,0.0,60.0,0.0,0.0
20664,72.0,8.0,60.0,1.0,0.0
20665,39.0,45.0,180.0,10.0,0.0
20666,70.0,0.0,120.0,11.0,0.0
20667,58.0,0.0,120.0,4.0,0.0
20668,70.0,0.0,120.0,0.0,0.0
20669,51.0,0.0,120.0,4.0,0.0
20670,55.0,0.0,120.0,3.0,0.0
20671,58.0,0.0,120.0,3.0,0.0
20672,58.0,0.0,60.0,12.0,0.0
20673,70.0,0.0,120.0,2.0,0.0
20674,55.0,60.0,60.0,13.0,0.0
20675,82.0,0.0,120.0,0.0,0.0
20676,39.0,0.0,240.0,8.0,0.0
20677,70.0,0.0,120.0,5.0,0.0
20678,63.0,52.0,120.0,5.0,0.0
20679,58.0,0.0,240.0,7.0,0.0
20680,67.0,0.0,240.0,6.0,0.0
20681,51.0,0.0,60.0,12.0,0.0
20682,70.0,0.0,120.0,1.0,0.0
20683,67.0,0.0,120.0,2.0,0.0
20684,55.0,0.0,60.0,13.0,0.0
20685,58.0,8.0,60.0,12.0,0.0
20686,51.0,0.0,60.0,12.0,0.0
20687,56.0,0.0,60.0,13.0,0.0
20688,27.0,0.0,90.0,15.0,0.0
20689,60.0,8.0,60.0,12.0,0.0
20690,51.0,0.0,60.0,12.0,0.0
20691,27.0,7.0,90.0,3.0,0.0
20692,39.0,0.0,90.0,14.0,0.0
20693,56.0,0.0,60.0,3.0,0.0
20694,51.0,0.0,60.0,3.0,0.0
20695,56.0,0.0,60.0,4.0,0.0
20696,60.0,0.0,60.0,4.0,0.0
20697,75.0,0.0,60.0,11.0,0.0
20698,87.0,0.0,60.0,0.0,0.0
20699,75.0,0.0,60.0,1.0,0.0
20700,72.0,0.0,60.0,5.0,0.0
20701,68.0,8.0,60.0,5.0,0.0
20702,39.0,52.0,60.0,10.0,0.0
20703,75.0,0.0,60.0,0.0,0.0
20704,63.0,0.0,60.0,2.0,0.0
20705,60.0,0.0,60.0,12.0,0.0
20706,51.0,0.0,60.0,12.0,0.0
20707,56.0,0.0,60.0,13.0,0.0
20708,68.0,0.0,60.0,2.0,0.0
20709,89.0,0.0,60.0,0.0,0.0
20710,77.0,0.0,60.0,1.0,0.0
20711,39.0,90.0,240.0,10.0,0.0
20712,77.0,52.0,60.0,0.0,0.0
20713,27.0,0.0,210.0,15.0,0.0
20714,72.0,0.0,210.0,2.0,0.0
20715,68.0,0.0,210.0,2.0,0.0
20716,56.0,0.0,210.0,4.0,0.0
20717,51.0,0.0,60.0,12.0,0.0
20718,39.0,0.0,210.0,14.0,0.0
20719,27.0,0.0,210.0,3.0,0.0
20720,60.0,0.0,60.0,12.0,0.0
20721,77.0,0.0,60.0,11.0,0.0
20722,56.0,8.0,60.0,13.0,0.0
20723,56.0,7.0,210.0,3.0,0.0
20724,60.0,0.0,210.0,3.0,0.0
20725,60.0,0.0,210.0,4.0,0.0
20726,68.0,0.0,210.0,5.0,0.0
20727,72.0,0.0,210.0,5.0,0.0
20728,87.0,0.0,60.0,0.0,0.0
20729,75.0,0.0,60.0,1.0,0.0
20730,56.0,0.0,60.0,13.0,0.0
20731,51.0,8.0,60.0,12.0,0.0
20732,60.0,0.0,60.0,12.0,0.0
20733,75.0,52.0,60.0,11.0,0.0
20734,75.0,0.0,60.0,0.0,0.0
20735,51.0,0.0,60.0,12.0,0.0
20736,73.0,0.0,60.0,1.0,0.0
20737,56.0,8.0,60.0,13.0,0.0
20738,85.0,0.0,60.0,0.0,0.0
20739,73.0,0.0,60.0,11.0,0.0
20740,60.0,0.0,60.0,12.0,0.0
20741,73.0,45.0,60.0,0.0,0.0
20742,72.0,0.0,60.0,1.0,0.0
20743,51.0,0.0,60.0,12.0,0.0
20744,72.0,0.0,60.0,11.0,0.0
20745,84.0,0.0,60.0,0.0,0.0
20746,72.0,8.0,60.0,0.0,0.0
20747,60.0,0.0,60.0,12.0,0.0
20748,56.0,0.0,60.0,13.0,0.0
20749,58.0,0.0,120.0,4.0,0.0
20750,70.0,15.0,90.0,11.0,0.0
20751,51.0,0.0,120.0,4.0,0.0
20752,39.0,0.0,120.0,10.0,0.0
20753,39.0,105.0,240.0,14.0,0.0
20754,55.0,0.0,90.0,13.0,0.0
20755,51.0,15.0,90.0,12.0,0.0
20756,70.0,0.0,120.0,5.0,0.0
20757,63.0,120.0,120.0,5.0,0.0
20758,27.0,0.0,240.0,15.0,0.0
20759,67.0,0.0,240.0,6.0,0.0
20760,39.0,0.0,240.0,8.0,0.0
20761,82.0,0.0,120.0,0.0,0.0
20762,58.0,0.0,240.0,7.0,0.0
20763,70.0,0.0,120.0,1.0,0.0
20764,27.0,0.0,240.0,3.0,0.0
20765,58.0,0.0,90.0,12.0,0.0
20766,67.0,0.0,120.0,2.0,0.0
20767,70.0,0.0,120.0,2.0,0.0
20768,55.0,0.0,120.0,3.0,0.0
20769,58.0,0.0,120.0,3.0,0.0
20770,70.0,0.0,120.0,0.0,0.0
20771,75.0,0.0,120.0,12.0,0.0
20772,75.0,0.0,120.0,11.0,0.0
20773,63.0,0.0,120.0,13.0,0.0
20774,61.0,105.0,90.0,13.0,0.0
20775,73.0,0.0,90.0,11.0,0.0
20776,73.0,0.0,90.0,12.0,0.0
20777,72.0,0.0,90.0,12.0,0.0
20778,60.0,0.0,90.0,13.0,0.0
20779,72.0,120.0,90.0,11.0,0.0
20780,58.0,150.0,90.0,13.0,0.0
20781,70.0,0.0,90.0,12.0,0.0
20782,70.0,0.0,90.0,11.0,0.0
20783,72.0,0.0,120.0,11.0,0.0
20784,60.0,0.0,120.0,3.0,0.0
20785,72.0,105.0,120.0,12.0,0.0
20786,60.0,0.0,120.0,13.0,0.0
20787,70.0,0.0,90.0,12.0,0.0
20788,70.0,0.0,90.0,11.0,0.0
20789,58.0,15.0,90.0,13.0,0.0
20790,58.0,90.0,120.0,3.0,0.0
20791,56.0,0.0,90.0,13.0,0.0
20792,68.0,0.0,90.0,12.0,0.0
20793,56.0,120.0,90.0,3.0,0.0
20794,68.0,0.0,90.0,11.0,0.0
20795,67.0,150.0,90.0,11.0,0.0
20796,55.0,0.0,90.0,3.0,0.0
20797,55.0,0.0,90.0,13.0,0.0
20798,67.0,0.0,90.0,12.0,0.0
20799,72.0,0.0,120.0,12.0,0.0
20800,60.0,105.0,120.0,13.0,0.0
20801,72.0,0.0,120.0,2.0,0.0
20802,60.0,0.0,120.0,3.0,0.0
20803,72.0,0.0,120.0,11.0,0.0
20804,60.0,0.0,120.0,14.0,0.0
20805,70.0,0.0,90.0,12.0,0.0
20806,70.0,0.0,90.0,11.0,0.0
20807,58.0,0.0,90.0,13.0,0.0
20808,58.0,0.0,90.0,14.0,0.0
20809,58.0,0.0,90.0,3.0,0.0
20810,70.0,105.0,90.0,2.0,0.0
20811,68.0,120.0,90.0,11.0,0.0
20812,56.0,0.0,90.0,14.0,0.0
20813,56.0,0.0,90.0,13.0,0.0
20814,56.0,0.0,90.0,3.0,0.0
20815,68.0,0.0,90.0,2.0,0.0
20816,68.0,0.0,90.0,12.0,0.0
20817,67.0,150.0,90.0,12.0,0.0
20818,55.0,0.0,90.0,14.0,0.0
20819,67.0,0.0,90.0,2.0,0.0
20820,55.0,0.0,90.0,13.0,0.0
20821,55.0,0.0,90.0,3.0,0.0
20822,67.0,0.0,90.0,11.0,0.0
20823,68.0,0.0,120.0,2.0,0.0
20824,68.0,0.0,120.0,11.0,0.0
20825,68.0,0.0,120.0,12.0,0.0
20826,56.0,0.0,120.0,3.0,0.0
20827,56.0,105.0,120.0,13.0,0.0
20828,56.0,0.0,120.0,14.0,0.0
20829,67.0,0.0,90.0,11.0,0.0
20830,55.0,0.0,90.0,3.0,0.0
20831,55.0,0.0,90.0,13.0,0.0
20832,67.0,105.0,90.0,2.0,0.0
20833,67.0,0.0,90.0,12.0,0.0
20834,55.0,0.0,90.0,14.0,0.0
20835,65.0,0.0,90.0,11.0,0.0
20836,53.0,0.0,90.0,14.0,0.0
20837,53.0,0.0,90.0,3.0,0.0
20838,53.0,0.0,90.0,13.0,0.0
20839,65.0,120.0,90.0,12.0,0.0
20840,65.0,0.0,90.0,2.0,0.0
20841,51.0,0.0,90.0,13.0,0.0
20842,63.0,0.0,90.0,2.0,0.0
20843,51.0,0.0,90.0,14.0,0.0
20844,63.0,0.0,90.0,12.0,0.0
20845,51.0,0.0,90.0,3.0,0.0
20846,63.0,150.0,90.0,11.0,0.0
20847,68.0,0.0,120.0,11.0,0.0
20848,68.0,0.0,120.0,1.0,0.0
20849,56.0,0.0,120.0,13.0,0.0
20850,56.0,105.0,120.0,14.0,0.0
20851,68.0,0.0,120.0,2.0,0.0
20852,68.0,0.0,120.0,12.0,0.0
20853,56.0,0.0,120.0,3.0,0.0
20854,67.0,0.0,90.0,11.0,0.0
20855,55.0,105.0,90.0,13.0,0.0
20856,67.0,0.0,90.0,2.0,0.0
20857,67.0,0.0,90.0,12.0,0.0
20858,55.0,0.0,90.0,14.0,0.0
20859,67.0,0.0,90.0,1.0,0.0
20860,55.0,0.0,90.0,3.0,0.0
20861,53.0,0.0,90.0,13.0,0.0
20862,65.0,0.0,90.0,11.0,0.0
20863,65.0,0.0,90.0,12.0,0.0
20864,53.0,0.0,90.0,14.0,0.0
20865,65.0,0.0,90.0,2.0,0.0
20866,53.0,0.0,90.0,3.0,0.0
20867,65.0,120.0,90.0,1.0,0.0
20868,63.0,0.0,90.0,11.0,0.0
20869,63.0,0.0,90.0,2.0,0.0
20870,51.0,0.0,90.0,13.0,0.0
20871,63.0,0.0,90.0,12.0,0.0
20872,63.0,150.0,90.0,1.0,0.0
20873,51.0,0.0,90.0,3.0,0.0
20874,51.0,0.0,90.0,14.0,0.0
20875,68.0,0.0,120.0,12.0,0.0
20876,56.0,105.0,120.0,14.0,0.0
20877,68.0,0.0,120.0,2.0,0.0
20878,80.0,0.0,120.0,0.0,0.0
20879,68.0,0.0,120.0,1.0,0.0
20880,56.0,0.0,120.0,13.0,0.0
20881,56.0,0.0,120.0,3.0,0.0
20882,68.0,0.0,120.0,11.0,0.0
20883,79.0,0.0,90.0,0.0,0.0
20884,67.0,0.0,90.0,12.0,0.0
20885,67.0,0.0,90.0,11.0,0.0
20886,55.0,0.0,90.0,14.0,0.0
20887,67.0,0.0,90.0,2.0,0.0
20888,55.0,0.0,90.0,3.0,0.0
20889,55.0,105.0,90.0,13.0,0.0
20890,67.0,0.0,90.0,1.0,0.0
20891,65.0,0.0,90.0,2.0,0.0
20892,65.0,0.0,90.0,11.0,0.0
20893,77.0,0.0,90.0,0.0,0.0
20894,53.0,120.0,90.0,13.0,0.0
20895,53.0,0.0,90.0,3.0,0.0
20896,53.0,0.0,90.0,14.0,0.0
20897,65.0,0.0,90.0,1.0,0.0
20898,65.0,0.0,90.0,12.0,0.0
20899,75.0,0.0,90.0,0.0,0.0
20900,51.0,0.0,90.0,13.0,0.0
20901,51.0,150.0,90.0,3.0,0.0
20902,51.0,0.0,90.0,14.0,0.0
20903,63.0,0.0,90.0,12.0,0.0
20904,63.0,0.0,90.0,1.0,0.0
20905,63.0,0.0,90.0,11.0,0.0
20906,63.0,0.0,90.0,2.0,0.0
20907,56.0,0.0,120.0,3.0,0.0
20908,68.0,0.0,120.0,11.0,0.0
20909,44.0,0.0,120.0,15.0,0.0
20910,68.0,0.0,120.0,2.0,0.0
20911,56.0,105.0,120.0,14.0,0.0
20912,92.0,0.0,120.0,0.0,0.0
20913,68.0,0.0,120.0,1.0,0.0
20914,56.0,0.0,120.0,13.0,0.0
20915,44.0,0.0,120.0,3.0,0.0
20916,80.0,0.0,120.0,0.0,0.0
20917,68.0,0.0,120.0,12.0,0.0
20918,67.0,0.0,90.0,11.0,0.0
20919,79.0,0.0,90.0,0.0,0.0
20920,55.0,0.0,90.0,13.0,0.0
20921,43.0,0.0,90.0,3.0,0.0
20922,67.0,0.0,90.0,2.0,0.0
20923,55.0,0.0,90.0,3.0,0.0
20924,55.0,0.0,90.0,14.0,0.0
20925,67.0,0.0,90.0,12.0,0.0
20926,91.0,0.0,90.0,0.0,0.0
20927,43.0,0.0,90.0,15.0,0.0
20928,67.0,105.0,90.0,1.0,0.0
20929,65.0,120.0,90.0,1.0,0.0
20930,65.0,0.0,90.0,2.0,0.0
20931,89.0,0.0,90.0,0.0,0.0
20932,65.0,0.0,90.0,12.0,0.0
20933,41.0,0.0,90.0,15.0,0.0
20934,53.0,0.0,90.0,13.0,0.0
20935,77.0,0.0,90.0,0.0,0.0
20936,41.0,0.0,90.0,3.0,0.0
20937,53.0,0.0,90.0,14.0,0.0
20938,65.0,0.0,90.0,11.0,0.0
20939,53.0,0.0,90.0,3.0,0.0
20940,75.0,0.0,90.0,0.0,0.0
20941,63.0,0.0,90.0,1.0,0.0
20942,39.0,120.0,90.0,15.0,0.0
20943,51.0,0.0,90.0,3.0,0.0
20944,87.0,0.0,90.0,0.0,0.0
20945,51.0,0.0,90.0,14.0,0.0
20946,63.0,0.0,90.0,2.0,0.0
20947,39.0,0.0,90.0,3.0,0.0
20948,63.0,0.0,90.0,12.0,0.0
20949,51.0,0.0,90.0,13.0,0.0
20950,63.0,0.0,90.0,11.0,0.0
20951,49.0,0.0,90.0,13.0,0.0
20952,73.0,0.0,90.0,1.0,0.0
20953,73.0,0.0,90.0,0.0,0.0
20954,61.0,0.0,90.0,12.0,0.0
20955,37.0,0.0,90.0,3.0,0.0
20956,49.0,0.0,90.0,3.0,0.0
20957,49.0,0.0,90.0,14.0,0.0
20958,61.0,0.0,90.0,2.0,0.0
20959,61.0,0.0,90.0,11.0,0.0
20960,37.0,0.0,90.0,15.0,0.0
20961,85.0,120.0,90.0,0.0,0.0
20962,84.0,0.0,90.0,0.0,0.0
20963,72.0,0.0,90.0,1.0,0.0
20964,36.0,0.0,90.0,3.0,0.0
20965,36.0,0.0,90.0,15.0,0.0
20966,48.0,0.0,90.0,14.0,0.0
20967,60.0,120.0,90.0,11.0,0.0
20968,60.0,0.0,90.0,2.0,0.0
20969,60.0,0.0,90.0,12.0,0.0
20970,72.0,0.0,90.0,0.0,0.0
20971,48.0,0.0,90.0,3.0,0.0
20972,48.0,0.0,90.0,13.0,0.0
20973,58.0,0.0,90.0,12.0,0.0
20974,82.0,0.0,90.0,0.0,0.0
20975,34.0,0.0,90.0,3.0,0.0
20976,46.0,0.0,90.0,13.0,0.0
20977,58.0,0.0,90.0,11.0,0.0
20978,46.0,0.0,90.0,3.0,0.0
20979,34.0,0.0,90.0,15.0,0.0
20980,70.0,0.0,90.0,1.0,0.0
20981,46.0,82.0,90.0,14.0,0.0
20982,58.0,0.0,90.0,2.0,0.0
20983,70.0,0.0,90.0,0.0,0.0
20984,51.0,60.0,60.0,13.0,0.0
20985,48.0,0.0,60.0,13.0,0.0
20986,68.0,0.0,690.0,2.0,0.0
20987,60.0,0.0,690.0,2.0,0.0
20988,48.0,0.0,690.0,3.0,0.0
20989,56.0,7.0,690.0,4.0,0.0
20990,56.0,0.0,60.0,12.0,0.0
20991,44.0,0.0,240.0,14.0,0.0
20992,68.0,0.0,240.0,0.0,0.0
20993,32.0,0.0,240.0,3.0,0.0
20994,56.0,0.0,690.0,3.0,0.0
20995,80.0,0.0,240.0,0.0,0.0
20996,32.0,52.0,240.0,15.0,0.0
20997,48.0,0.0,690.0,4.0,0.0
20998,56.0,0.0,240.0,11.0,0.0
20999,68.0,0.0,690.0,1.0,0.0
21000,60.0,0.0,690.0,1.0,0.0
21001,48.0,0.0,60.0,13.0,0.0
21002,51.0,0.0,60.0,13.0,0.0
21003,56.0,60.0,60.0,12.0,0.0
21004,56.0,0.0,60.0,12.0,0.0
21005,48.0,60.0,60.0,13.0,0.0
21006,51.0,0.0,60.0,13.0,0.0
21007,48.0,0.0,60.0,13.0,0.0
21008,56.0,8.0,60.0,12.0,0.0
21009,51.0,0.0,60.0,13.0,0.0
21010,48.0,0.0,60.0,13.0,0.0
21011,51.0,0.0,60.0,13.0,0.0
21012,56.0,60.0,60.0,12.0,0.0
21013,48.0,0.0,60.0,13.0,0.0
21014,56.0,60.0,60.0,12.0,0.0
21015,51.0,0.0,60.0,13.0,0.0
21016,48.0,0.0,60.0,13.0,0.0
21017,51.0,0.0,60.0,13.0,0.0
21018,56.0,60.0,60.0,12.0,0.0
21019,51.0,0.0,60.0,13.0,0.0
21020,48.0,60.0,60.0,13.0,0.0
21021,56.0,0.0,60.0,12.0,0.0
21022,48.0,0.0,60.0,13.0,0.0
21023,56.0,0.0,60.0,12.0,0.0
21024,51.0,60.0,60.0,13.0,0.0
21025,48.0,60.0,60.0,13.0,0.0
21026,51.0,0.0,60.0,13.0,0.0
21027,56.0,0.0,60.0,12.0,0.0
21028,51.0,0.0,60.0,13.0,0.0
21029,56.0,53.0,60.0,12.0,0.0
21030,48.0,0.0,60.0,13.0,0.0
21031,48.0,60.0,60.0,13.0,0.0
21032,56.0,0.0,60.0,12.0,0.0
21033,51.0,0.0,60.0,13.0,0.0
21034,51.0,0.0,240.0,4.0,0.0
21035,63.0,0.0,240.0,2.0,0.0
21036,63.0,52.0,240.0,1.0,0.0
21037,48.0,0.0,60.0,13.0,0.0
21038,51.0,60.0,60.0,13.0,0.0
21039,60.0,0.0,240.0,1.0,0.0
21040,48.0,0.0,240.0,4.0,0.0
21041,51.0,0.0,240.0,3.0,0.0
21042,48.0,0.0,240.0,3.0,0.0
21043,60.0,0.0,240.0,2.0,0.0
21044,56.0,0.0,60.0,12.0,0.0
21045,51.0,0.0,60.0,13.0,0.0
21046,56.0,60.0,60.0,12.0,0.0
21047,48.0,0.0,60.0,13.0,0.0
21048,51.0,60.0,60.0,13.0,0.0
21049,48.0,0.0,60.0,13.0,0.0
21050,56.0,0.0,60.0,12.0,0.0
21051,56.0,0.0,60.0,12.0,0.0
21052,48.0,0.0,60.0,13.0,0.0
21053,51.0,8.0,60.0,13.0,0.0
21054,56.0,60.0,60.0,12.0,0.0
21055,63.0,0.0,720.0,1.0,0.0
21056,72.0,0.0,720.0,1.0,0.0
21057,51.0,0.0,720.0,4.0,0.0
21058,51.0,0.0,60.0,13.0,0.0
21059,48.0,0.0,60.0,13.0,0.0
21060,60.0,0.0,720.0,3.0,0.0
21061,60.0,52.0,720.0,4.0,0.0
21062,63.0,0.0,720.0,2.0,0.0
21063,72.0,0.0,720.0,2.0,0.0
21064,51.0,0.0,720.0,3.0,0.0
21065,56.0,60.0,60.0,12.0,0.0
21066,48.0,0.0,60.0,13.0,0.0
21067,51.0,0.0,60.0,13.0,0.0
21068,56.0,0.0,60.0,12.0,0.0
21069,51.0,60.0,60.0,13.0,0.0
21070,48.0,0.0,60.0,13.0,0.0
21071,51.0,0.0,60.0,13.0,0.0
21072,48.0,60.0,60.0,13.0,0.0
21073,56.0,0.0,60.0,12.0,0.0
21074,56.0,0.0,60.0,12.0,0.0
21075,51.0,60.0,60.0,13.0,0.0
21076,48.0,0.0,60.0,13.0,0.0
21077,48.0,60.0,60.0,13.0,0.0
21078,51.0,0.0,60.0,13.0,0.0
21079,56.0,0.0,60.0,12.0,0.0
21080,56.0,0.0,60.0,12.0,0.0
21081,51.0,60.0,60.0,13.0,0.0
21082,48.0,0.0,60.0,13.0,0.0
21083,56.0,0.0,60.0,12.0,0.0
21084,51.0,0.0,60.0,13.0,0.0
21085,48.0,60.0,60.0,13.0,0.0
21086,48.0,0.0,60.0,13.0,0.0
21087,51.0,60.0,60.0,13.0,0.0
21088,56.0,0.0,60.0,12.0,0.0
21089,51.0,0.0,60.0,13.0,0.0
21090,56.0,60.0,60.0,12.0,0.0
21091,48.0,0.0,60.0,13.0,0.0
21092,51.0,0.0,60.0,13.0,0.0
21093,48.0,60.0,60.0,13.0,0.0
21094,56.0,0.0,60.0,12.0,0.0
21095,51.0,0.0,60.0,13.0,0.0
21096,56.0,0.0,60.0,12.0,0.0
21097,48.0,8.0,60.0,13.0,0.0
21098,61.0,0.0,180.0,1.0,0.0
21099,48.0,0.0,60.0,13.0,0.0
21100,51.0,60.0,60.0,13.0,0.0
21101,58.0,0.0,180.0,4.0,0.0
21102,58.0,0.0,180.0,3.0,0.0
21103,51.0,0.0,180.0,4.0,0.0
21104,49.0,0.0,180.0,3.0,0.0
21105,61.0,0.0,180.0,2.0,0.0
21106,70.0,0.0,180.0,2.0,0.0
21107,56.0,0.0,60.0,12.0,0.0
21108,70.0,52.0,180.0,1.0,0.0
21109,56.0,0.0,60.0,12.0,0.0
21110,51.0,60.0,60.0,13.0,0.0
21111,48.0,0.0,60.0,13.0,0.0
21112,51.0,0.0,60.0,13.0,0.0
21113,56.0,8.0,60.0,12.0,0.0
21114,48.0,0.0,60.0,13.0,0.0
21115,60.0,0.0,60.0,2.0,0.0
21116,48.0,0.0,60.0,4.0,0.0
21117,68.0,0.0,60.0,1.0,0.0
21118,56.0,0.0,60.0,4.0,0.0
21119,48.0,0.0,60.0,3.0,0.0
21120,56.0,0.0,60.0,3.0,0.0
21121,48.0,0.0,60.0,13.0,0.0
21122,51.0,0.0,60.0,13.0,0.0
21123,60.0,60.0,60.0,1.0,0.0
21124,56.0,0.0,60.0,12.0,0.0
21125,68.0,0.0,60.0,2.0,0.0
21126,67.0,0.0,240.0,2.0,0.0
21127,58.0,0.0,240.0,2.0,0.0
21128,63.0,0.0,1890.0,5.0,0.0
21129,46.0,0.0,240.0,8.0,0.0
21130,58.0,0.0,240.0,1.0,0.0
21131,67.0,0.0,240.0,1.0,0.0
21132,27.0,7.0,570.0,3.0,0.0
21133,82.0,0.0,1890.0,0.0,0.0
21134,67.0,0.0,240.0,11.0,0.0
21135,39.0,52.0,60.0,10.0,0.0
21136,51.0,0.0,1890.0,4.0,0.0
21137,58.0,0.0,1890.0,4.0,0.0
21138,49.0,0.0,60.0,13.0,0.0
21139,51.0,0.0,60.0,13.0,0.0
21140,79.0,7.0,1890.0,0.0,0.0
21141,58.0,0.0,240.0,11.0,0.0
21142,70.0,0.0,1890.0,5.0,0.0
21143,39.0,0.0,570.0,14.0,0.0
21144,46.0,0.0,240.0,3.0,0.0
21145,55.0,52.0,240.0,3.0,0.0
21146,51.0,0.0,240.0,11.0,0.0
21147,51.0,0.0,240.0,7.0,0.0
21148,55.0,0.0,240.0,6.0,0.0
21149,27.0,0.0,570.0,15.0,0.0
21150,55.0,0.0,60.0,12.0,0.0
21151,58.0,8.0,60.0,12.0,0.0
21152,39.0,52.0,60.0,10.0,0.0
21153,49.0,0.0,60.0,13.0,0.0
21154,51.0,0.0,60.0,13.0,0.0
21155,58.0,0.0,60.0,12.0,0.0
21156,55.0,8.0,60.0,12.0,0.0
21157,39.0,52.0,60.0,10.0,0.0
21158,51.0,0.0,60.0,13.0,0.0
21159,58.0,0.0,60.0,12.0,0.0
21160,55.0,8.0,60.0,12.0,0.0
21161,49.0,0.0,60.0,13.0,0.0
21162,49.0,8.0,60.0,13.0,0.0
21163,51.0,0.0,60.0,13.0,0.0
21164,39.0,0.0,60.0,10.0,0.0
21165,55.0,0.0,60.0,12.0,0.0
21166,58.0,0.0,60.0,12.0,0.0
21167,58.0,0.0,60.0,12.0,0.0
21168,55.0,8.0,60.0,12.0,0.0
21169,51.0,0.0,60.0,13.0,0.0
21170,49.0,0.0,60.0,13.0,0.0
21171,39.0,52.0,60.0,10.0,0.0
21172,58.0,8.0,60.0,12.0,0.0
21173,55.0,0.0,60.0,12.0,0.0
21174,39.0,52.0,60.0,10.0,0.0
21175,49.0,0.0,60.0,13.0,0.0
21176,51.0,0.0,60.0,13.0,0.0
21177,55.0,0.0,60.0,12.0,0.0
21178,39.0,52.0,60.0,10.0,0.0
21179,58.0,0.0,60.0,12.0,0.0
21180,51.0,0.0,60.0,13.0,0.0
21181,49.0,8.0,60.0,13.0,0.0
21182,49.0,8.0,60.0,13.0,0.0
21183,51.0,0.0,60.0,13.0,0.0
21184,55.0,0.0,60.0,12.0,0.0
21185,58.0,0.0,60.0,12.0,0.0
21186,39.0,52.0,60.0,10.0,0.0
21187,58.0,0.0,60.0,12.0,0.0
21188,51.0,52.0,240.0,7.0,0.0
21189,46.0,0.0,240.0,8.0,0.0
21190,55.0,0.0,60.0,12.0,0.0
21191,58.0,0.0,240.0,11.0,0.0
21192,67.0,0.0,240.0,11.0,0.0
21193,51.0,0.0,240.0,11.0,0.0
21194,51.0,8.0,60.0,13.0,0.0
21195,49.0,0.0,60.0,13.0,0.0
21196,39.0,45.0,60.0,10.0,0.0
21197,55.0,0.0,240.0,6.0,0.0
21198,58.0,0.0,60.0,12.0,0.0
21199,49.0,0.0,60.0,13.0,0.0
21200,51.0,8.0,60.0,13.0,0.0
21201,39.0,52.0,60.0,10.0,0.0
21202,55.0,0.0,60.0,12.0,0.0
21203,39.0,30.0,60.0,10.0,0.0
21204,27.0,0.0,90.0,3.0,0.0
21205,55.0,0.0,60.0,12.0,0.0
21206,58.0,8.0,60.0,12.0,0.0
21207,27.0,0.0,90.0,15.0,0.0
21208,49.0,0.0,60.0,13.0,0.0
21209,51.0,0.0,60.0,13.0,0.0
21210,39.0,22.0,90.0,14.0,0.0
21211,49.0,0.0,60.0,13.0,0.0
21212,58.0,0.0,60.0,12.0,0.0
21213,51.0,0.0,60.0,13.0,0.0
21214,55.0,8.0,60.0,12.0,0.0
21215,39.0,0.0,60.0,10.0,0.0
21216,55.0,0.0,60.0,12.0,0.0
21217,43.0,0.0,90.0,14.0,0.0
21218,31.0,0.0,90.0,15.0,0.0
21219,31.0,22.0,90.0,3.0,0.0
21220,49.0,0.0,60.0,13.0,0.0
21221,58.0,0.0,60.0,12.0,0.0
21222,39.0,30.0,60.0,10.0,0.0
21223,51.0,8.0,60.0,13.0,0.0
21224,39.0,52.0,60.0,10.0,0.0
21225,49.0,0.0,60.0,13.0,0.0
21226,51.0,8.0,60.0,13.0,0.0
21227,58.0,0.0,60.0,12.0,0.0
21228,55.0,0.0,60.0,12.0,0.0
21229,46.0,0.0,90.0,14.0,0.0
21230,49.0,0.0,60.0,13.0,0.0
21231,39.0,30.0,60.0,10.0,0.0
21232,58.0,0.0,60.0,12.0,0.0
21233,34.0,22.0,90.0,3.0,0.0
21234,34.0,0.0,90.0,15.0,0.0
21235,51.0,0.0,60.0,13.0,0.0
21236,55.0,8.0,60.0,12.0,0.0
21237,58.0,0.0,60.0,12.0,0.0
21238,39.0,52.0,60.0,10.0,0.0
21239,51.0,8.0,60.0,13.0,0.0
21240,55.0,0.0,60.0,12.0,0.0
21241,49.0,0.0,60.0,13.0,0.0
21242,49.0,0.0,60.0,13.0,0.0
21243,49.0,0.0,90.0,14.0,0.0
21244,58.0,0.0,60.0,12.0,0.0
21245,51.0,0.0,240.0,7.0,0.0
21246,67.0,0.0,240.0,11.0,0.0
21247,58.0,0.0,240.0,11.0,0.0
21248,51.0,0.0,240.0,11.0,0.0
21249,37.0,22.0,90.0,3.0,0.0
21250,55.0,0.0,60.0,12.0,0.0
21251,39.0,30.0,60.0,10.0,0.0
21252,46.0,52.0,240.0,8.0,0.0
21253,55.0,0.0,240.0,6.0,0.0
21254,51.0,8.0,60.0,13.0,0.0
21255,37.0,0.0,90.0,15.0,0.0
21256,51.0,0.0,60.0,13.0,0.0
21257,49.0,8.0,60.0,13.0,0.0
21258,55.0,0.0,60.0,12.0,0.0
21259,58.0,0.0,60.0,12.0,0.0
21260,39.0,52.0,60.0,10.0,0.0
21261,39.0,22.0,90.0,15.0,0.0
21262,39.0,30.0,60.0,10.0,0.0
21263,49.0,0.0,60.0,13.0,0.0
21264,51.0,8.0,60.0,13.0,0.0
21265,39.0,0.0,90.0,3.0,0.0
21266,51.0,0.0,90.0,14.0,0.0
21267,55.0,0.0,60.0,12.0,0.0
21268,58.0,0.0,60.0,12.0,0.0
21269,39.0,0.0,60.0,10.0,0.0
21270,55.0,0.0,60.0,12.0,0.0
21271,58.0,8.0,60.0,12.0,0.0
21272,49.0,0.0,60.0,13.0,0.0
21273,51.0,0.0,60.0,13.0,0.0
21274,43.0,22.0,90.0,3.0,0.0
21275,39.0,30.0,60.0,10.0,0.0
21276,55.0,0.0,90.0,14.0,0.0
21277,51.0,0.0,60.0,13.0,0.0
21278,49.0,8.0,60.0,13.0,0.0
21279,55.0,0.0,60.0,12.0,0.0
21280,58.0,0.0,60.0,12.0,0.0
21281,43.0,0.0,90.0,15.0,0.0
21282,49.0,8.0,60.0,13.0,0.0
21283,51.0,0.0,60.0,13.0,0.0
21284,39.0,52.0,60.0,10.0,0.0
21285,55.0,0.0,60.0,12.0,0.0
21286,58.0,0.0,60.0,12.0,0.0
21287,46.0,0.0,90.0,15.0,0.0
21288,49.0,0.0,60.0,13.0,0.0
21289,51.0,0.0,60.0,13.0,0.0
21290,58.0,8.0,60.0,12.0,0.0
21291,55.0,0.0,60.0,12.0,0.0
21292,39.0,30.0,60.0,10.0,0.0
21293,58.0,0.0,90.0,14.0,0.0
21294,46.0,22.0,90.0,3.0,0.0
21295,51.0,0.0,60.0,13.0,0.0
21296,39.0,52.0,60.0,10.0,0.0
21297,55.0,8.0,60.0,12.0,0.0
21298,58.0,0.0,60.0,12.0,0.0
21299,49.0,0.0,60.0,13.0,0.0
21300,55.0,0.0,60.0,12.0,0.0
21301,39.0,30.0,60.0,10.0,0.0
21302,58.0,8.0,60.0,12.0,0.0
21303,46.0,0.0,240.0,8.0,0.0
21304,49.0,0.0,90.0,15.0,0.0
21305,51.0,0.0,240.0,11.0,0.0
21306,67.0,0.0,240.0,11.0,0.0
21307,58.0,0.0,240.0,11.0,0.0
21308,55.0,0.0,240.0,6.0,0.0
21309,51.0,0.0,240.0,7.0,0.0
21310,49.0,22.0,90.0,3.0,0.0
21311,49.0,0.0,60.0,13.0,0.0
21312,51.0,0.0,60.0,13.0,0.0
21313,61.0,0.0,90.0,14.0,0.0
21314,51.0,0.0,60.0,13.0,0.0
21315,39.0,52.0,60.0,10.0,0.0
21316,49.0,0.0,60.0,13.0,0.0
21317,55.0,0.0,60.0,12.0,0.0
21318,58.0,8.0,60.0,12.0,0.0
21319,51.0,0.0,60.0,13.0,0.0
21320,49.0,8.0,60.0,13.0,0.0
21321,58.0,0.0,60.0,12.0,0.0
21322,63.0,0.0,90.0,14.0,0.0
21323,51.0,0.0,90.0,3.0,0.0
21324,51.0,22.0,90.0,15.0,0.0
21325,39.0,30.0,60.0,10.0,0.0
21326,55.0,0.0,60.0,12.0,0.0
21327,55.0,0.0,60.0,12.0,0.0
21328,49.0,8.0,60.0,13.0,0.0
21329,51.0,0.0,60.0,13.0,0.0
21330,39.0,52.0,60.0,10.0,0.0
21331,58.0,0.0,60.0,12.0,0.0
21332,58.0,0.0,60.0,12.0,0.0
21333,55.0,0.0,60.0,12.0,0.0
21334,49.0,0.0,90.0,15.0,0.0
21335,49.0,0.0,90.0,3.0,0.0
21336,49.0,0.0,60.0,13.0,0.0
21337,61.0,22.0,90.0,14.0,0.0
21338,39.0,30.0,60.0,10.0,0.0
21339,51.0,8.0,60.0,13.0,0.0
21340,49.0,0.0,60.0,13.0,0.0
21341,51.0,0.0,60.0,13.0,0.0
21342,58.0,0.0,60.0,12.0,0.0
21343,39.0,52.0,60.0,10.0,0.0
21344,55.0,8.0,60.0,12.0,0.0
21345,46.0,0.0,90.0,3.0,0.0
21346,46.0,0.0,90.0,15.0,0.0
21347,58.0,15.0,90.0,14.0,0.0
21348,49.0,0.0,60.0,13.0,0.0
21349,55.0,0.0,60.0,12.0,0.0
21350,58.0,0.0,60.0,12.0,0.0
21351,39.0,30.0,60.0,10.0,0.0
21352,51.0,8.0,60.0,13.0,0.0
21353,39.0,52.0,60.0,10.0,0.0
21354,58.0,8.0,60.0,12.0,0.0
21355,55.0,0.0,60.0,12.0,0.0
21356,49.0,0.0,60.0,13.0,0.0
21357,51.0,0.0,60.0,13.0,0.0
21358,39.0,0.0,240.0,10.0,0.0
21359,70.0,0.0,690.0,1.0,0.0
21360,79.0,0.0,240.0,0.0,0.0
21361,43.0,0.0,90.0,15.0,0.0
21362,58.0,0.0,690.0,3.0,0.0
21363,51.0,0.0,60.0,13.0,0.0
21364,49.0,0.0,60.0,13.0,0.0
21365,55.0,53.0,60.0,12.0,0.0
21366,43.0,0.0,90.0,3.0,0.0
21367,55.0,0.0,690.0,3.0,0.0
21368,82.0,0.0,240.0,0.0,0.0
21369,51.0,0.0,240.0,8.0,0.0
21370,67.0,0.0,690.0,1.0,0.0
21371,67.0,0.0,690.0,2.0,0.0
21372,70.0,0.0,690.0,2.0,0.0
21373,51.0,0.0,240.0,11.0,0.0
21374,61.0,0.0,240.0,11.0,0.0
21375,58.0,0.0,60.0,12.0,0.0
21376,70.0,0.0,240.0,5.0,0.0
21377,63.0,0.0,240.0,5.0,0.0
21378,70.0,0.0,240.0,11.0,0.0
21379,51.0,0.0,690.0,4.0,0.0
21380,55.0,52.0,240.0,7.0,0.0
21381,55.0,7.0,90.0,14.0,0.0
21382,58.0,0.0,690.0,4.0,0.0
21383,58.0,0.0,240.0,6.0,0.0
21384,55.0,0.0,60.0,12.0,0.0
21385,58.0,60.0,60.0,12.0,0.0
21386,51.0,0.0,60.0,13.0,0.0
21387,49.0,0.0,60.0,13.0,0.0
21388,51.0,0.0,60.0,13.0,0.0
21389,58.0,53.0,60.0,12.0,0.0
21390,55.0,0.0,60.0,12.0,0.0
21391,58.0,0.0,90.0,14.0,0.0
21392,46.0,0.0,90.0,15.0,0.0
21393,49.0,0.0,60.0,13.0,0.0
21394,46.0,7.0,90.0,3.0,0.0
21395,58.0,0.0,60.0,12.0,0.0
21396,49.0,0.0,60.0,13.0,0.0
21397,55.0,8.0,60.0,12.0,0.0
21398,51.0,0.0,60.0,13.0,0.0
21399,43.0,0.0,90.0,15.0,0.0
21400,43.0,7.0,90.0,3.0,0.0
21401,55.0,0.0,90.0,14.0,0.0
21402,51.0,53.0,60.0,13.0,0.0
21403,49.0,0.0,60.0,13.0,0.0
21404,58.0,0.0,60.0,12.0,0.0
21405,55.0,0.0,60.0,12.0,0.0
21406,58.0,0.0,60.0,12.0,0.0
21407,49.0,60.0,60.0,13.0,0.0
21408,55.0,0.0,60.0,12.0,0.0
21409,51.0,0.0,60.0,13.0,0.0
21410,39.0,7.0,90.0,15.0,0.0
21411,58.0,53.0,60.0,12.0,0.0
21412,51.0,0.0,60.0,13.0,0.0
21413,51.0,0.0,90.0,14.0,0.0
21414,39.0,0.0,90.0,3.0,0.0
21415,49.0,0.0,60.0,13.0,0.0
21416,55.0,0.0,60.0,12.0,0.0
21417,55.0,0.0,60.0,12.0,0.0
21418,58.0,0.0,60.0,12.0,0.0
21419,51.0,60.0,60.0,13.0,0.0
21420,49.0,0.0,60.0,13.0,0.0
21421,58.0,0.0,60.0,12.0,0.0
21422,37.0,7.0,90.0,15.0,0.0
21423,49.0,0.0,90.0,14.0,0.0
21424,49.0,53.0,60.0,13.0,0.0
21425,37.0,0.0,90.0,3.0,0.0
21426,51.0,0.0,60.0,13.0,0.0
21427,55.0,0.0,60.0,12.0,0.0
21428,55.0,0.0,60.0,12.0,0.0
21429,58.0,0.0,60.0,12.0,0.0
21430,51.0,0.0,60.0,13.0,0.0
21431,49.0,60.0,60.0,13.0,0.0
21432,51.0,0.0,60.0,13.0,0.0
21433,49.0,53.0,60.0,13.0,0.0
21434,46.0,0.0,90.0,14.0,0.0
21435,34.0,0.0,90.0,15.0,0.0
21436,34.0,7.0,90.0,3.0,0.0
21437,55.0,0.0,60.0,12.0,0.0
21438,58.0,0.0,60.0,12.0,0.0
21439,49.0,60.0,60.0,13.0,0.0
21440,51.0,0.0,60.0,13.0,0.0
21441,55.0,0.0,60.0,12.0,0.0
21442,58.0,0.0,60.0,12.0,0.0
21443,51.0,0.0,240.0,4.0,0.0
21444,43.0,0.0,90.0,14.0,0.0
21445,51.0,0.0,60.0,13.0,0.0
21446,31.0,7.0,90.0,3.0,0.0
21447,55.0,53.0,60.0,12.0,0.0
21448,49.0,0.0,60.0,13.0,0.0
21449,58.0,0.0,60.0,12.0,0.0
21450,63.0,0.0,240.0,2.0,0.0
21451,51.0,0.0,240.0,3.0,0.0
21452,63.0,52.0,240.0,1.0,0.0
21453,31.0,0.0,90.0,15.0,0.0
21454,58.0,0.0,60.0,12.0,0.0
21455,51.0,60.0,60.0,13.0,0.0
21456,49.0,0.0,60.0,13.0,0.0
21457,55.0,0.0,60.0,12.0,0.0
21458,49.0,53.0,60.0,13.0,0.0
21459,51.0,0.0,60.0,13.0,0.0
21460,46.0,7.0,90.0,14.0,0.0
21461,58.0,0.0,60.0,12.0,0.0
21462,55.0,0.0,60.0,12.0,0.0
21463,34.0,0.0,90.0,15.0,0.0
21464,34.0,0.0,90.0,3.0,0.0
21465,55.0,0.0,60.0,12.0,0.0
21466,51.0,0.0,60.0,13.0,0.0
21467,49.0,0.0,60.0,13.0,0.0
21468,58.0,8.0,60.0,12.0,0.0
21469,61.0,0.0,720.0,4.0,0.0
21470,73.0,0.0,720.0,2.0,0.0
21471,70.0,0.0,720.0,2.0,0.0
21472,27.0,0.0,240.0,15.0,0.0
21473,39.0,52.0,240.0,14.0,0.0
21474,51.0,60.0,60.0,13.0,0.0
21475,58.0,0.0,60.0,12.0,0.0
21476,55.0,0.0,60.0,12.0,0.0
21477,73.0,0.0,720.0,1.0,0.0
21478,27.0,0.0,240.0,3.0,0.0
21479,58.0,0.0,720.0,3.0,0.0
21480,61.0,52.0,720.0,3.0,0.0
21481,49.0,0.0,60.0,13.0,0.0
21482,58.0,0.0,720.0,4.0,0.0
21483,70.0,0.0,720.0,1.0,0.0
21484,58.0,0.0,60.0,12.0,0.0
21485,55.0,0.0,60.0,12.0,0.0
21486,49.0,60.0,60.0,13.0,0.0
21487,51.0,0.0,60.0,13.0,0.0
21488,51.0,60.0,60.0,13.0,0.0
21489,58.0,0.0,60.0,12.0,0.0
21490,55.0,0.0,60.0,12.0,0.0
21491,49.0,0.0,60.0,13.0,0.0
21492,58.0,0.0,60.0,12.0,0.0
21493,55.0,0.0,60.0,12.0,0.0
21494,49.0,8.0,60.0,13.0,0.0
21495,51.0,0.0,60.0,13.0,0.0
21496,51.0,0.0,60.0,13.0,0.0
21497,49.0,0.0,60.0,13.0,0.0
21498,55.0,60.0,60.0,12.0,0.0
21499,58.0,0.0,60.0,12.0,0.0
21500,55.0,60.0,60.0,12.0,0.0
21501,49.0,0.0,60.0,13.0,0.0
21502,51.0,0.0,60.0,13.0,0.0
21503,58.0,0.0,60.0,12.0,0.0
21504,55.0,0.0,60.0,12.0,0.0
21505,58.0,60.0,60.0,12.0,0.0
21506,51.0,0.0,60.0,13.0,0.0
21507,49.0,0.0,60.0,13.0,0.0
21508,58.0,60.0,60.0,12.0,0.0
21509,55.0,0.0,60.0,12.0,0.0
21510,51.0,0.0,60.0,13.0,0.0
21511,49.0,0.0,60.0,13.0,0.0
21512,51.0,0.0,60.0,13.0,0.0
21513,49.0,0.0,60.0,13.0,0.0
21514,55.0,60.0,60.0,12.0,0.0
21515,58.0,0.0,60.0,12.0,0.0
21516,51.0,0.0,60.0,13.0,0.0
21517,55.0,0.0,60.0,12.0,0.0
21518,58.0,0.0,60.0,12.0,0.0
21519,49.0,60.0,60.0,13.0,0.0
21520,58.0,0.0,60.0,12.0,0.0
21521,55.0,0.0,60.0,12.0,0.0
21522,51.0,0.0,60.0,13.0,0.0
21523,49.0,60.0,60.0,13.0,0.0
21524,58.0,0.0,60.0,12.0,0.0
21525,49.0,0.0,60.0,13.0,0.0
21526,55.0,8.0,60.0,12.0,0.0
21527,51.0,0.0,60.0,13.0,0.0
21528,68.0,0.0,180.0,1.0,0.0
21529,51.0,60.0,60.0,13.0,0.0
21530,60.0,52.0,180.0,4.0,0.0
21531,56.0,0.0,180.0,3.0,0.0
21532,72.0,0.0,180.0,1.0,0.0
21533,72.0,0.0,180.0,2.0,0.0
21534,60.0,0.0,180.0,3.0,0.0
21535,56.0,0.0,180.0,4.0,0.0
21536,49.0,0.0,60.0,13.0,0.0
21537,58.0,0.0,60.0,12.0,0.0
21538,55.0,0.0,60.0,12.0,0.0
21539,68.0,0.0,180.0,2.0,0.0
21540,55.0,60.0,60.0,12.0,0.0
21541,58.0,0.0,60.0,12.0,0.0
21542,49.0,0.0,60.0,13.0,0.0
21543,51.0,0.0,60.0,13.0,0.0
21544,49.0,8.0,60.0,13.0,0.0
21545,51.0,0.0,60.0,13.0,0.0
21546,58.0,0.0,60.0,12.0,0.0
21547,55.0,0.0,60.0,12.0,0.0
21548,70.0,0.0,60.0,1.0,0.0
21549,55.0,0.0,60.0,3.0,0.0
21550,58.0,0.0,60.0,3.0,0.0
21551,55.0,0.0,60.0,12.0,0.0
21552,58.0,0.0,60.0,12.0,0.0
21553,58.0,0.0,60.0,4.0,0.0
21554,67.0,0.0,60.0,1.0,0.0
21555,51.0,0.0,60.0,4.0,0.0
21556,51.0,0.0,60.0,13.0,0.0
21557,49.0,0.0,60.0,13.0,0.0
21558,70.0,60.0,60.0,2.0,0.0
21559,67.0,0.0,60.0,2.0,0.0
21560,54.0,0.0,1890.0,3.0,0.0
21561,51.0,0.0,240.0,11.0,0.0
21562,66.0,0.0,240.0,11.0,0.0
21563,72.0,0.0,1890.0,5.0,0.0
21564,56.0,0.0,1890.0,5.0,0.0
21565,44.0,0.0,1890.0,4.0,0.0
21566,60.0,0.0,1890.0,4.0,0.0
21567,72.0,0.0,1890.0,2.0,0.0
21568,60.0,0.0,60.0,12.0,0.0
21569,56.0,0.0,60.0,12.0,0.0
21570,54.0,0.0,240.0,7.0,0.0
21571,75.0,0.0,1890.0,1.0,0.0
21572,78.0,0.0,1890.0,1.0,0.0
21573,66.0,0.0,1890.0,2.0,0.0
21574,63.0,0.0,240.0,11.0,0.0
21575,72.0,0.0,240.0,11.0,0.0
21576,51.0,0.0,60.0,13.0,0.0
21577,32.0,0.0,570.0,14.0,0.0
21578,60.0,52.0,240.0,6.0,0.0
21579,20.0,7.0,570.0,3.0,0.0
21580,84.0,0.0,1890.0,0.0,0.0
21581,80.0,0.0,1890.0,0.0,0.0
21582,56.0,0.0,1890.0,3.0,0.0
21583,44.0,52.0,60.0,10.0,0.0
21584,54.0,8.0,60.0,13.0,0.0
21585,20.0,0.0,570.0,15.0,0.0
21586,51.0,0.0,240.0,8.0,0.0
21587,56.0,0.0,60.0,12.0,0.0
21588,60.0,0.0,60.0,12.0,0.0
21589,44.0,52.0,60.0,10.0,0.0
21590,54.0,0.0,60.0,13.0,0.0
21591,51.0,8.0,60.0,13.0,0.0
21592,56.0,0.0,60.0,12.0,0.0
21593,44.0,52.0,60.0,10.0,0.0
21594,60.0,8.0,60.0,12.0,0.0
21595,54.0,0.0,60.0,13.0,0.0
21596,51.0,0.0,60.0,13.0,0.0
21597,51.0,0.0,60.0,13.0,0.0
21598,44.0,0.0,60.0,10.0,0.0
21599,54.0,8.0,60.0,13.0,0.0
21600,56.0,0.0,60.0,12.0,0.0
21601,60.0,0.0,60.0,12.0,0.0
21602,51.0,0.0,60.0,13.0,0.0
21603,56.0,0.0,60.0,12.0,0.0
21604,44.0,52.0,60.0,10.0,0.0
21605,60.0,0.0,60.0,12.0,0.0
21606,54.0,8.0,60.0,13.0,0.0
21607,60.0,0.0,60.0,12.0,0.0
21608,44.0,52.0,60.0,10.0,0.0
21609,54.0,0.0,60.0,13.0,0.0
21610,51.0,0.0,60.0,13.0,0.0
21611,56.0,8.0,60.0,12.0,0.0
21612,54.0,8.0,60.0,13.0,0.0
21613,51.0,0.0,60.0,13.0,0.0
21614,56.0,0.0,60.0,12.0,0.0
21615,60.0,0.0,60.0,12.0,0.0
21616,44.0,52.0,60.0,10.0,0.0
21617,51.0,0.0,60.0,13.0,0.0
21618,54.0,0.0,60.0,13.0,0.0
21619,44.0,52.0,60.0,10.0,0.0
21620,56.0,8.0,60.0,12.0,0.0
21621,60.0,0.0,60.0,12.0,0.0
21622,44.0,45.0,60.0,10.0,0.0
21623,51.0,52.0,240.0,8.0,0.0
21624,66.0,0.0,240.0,11.0,0.0
21625,51.0,0.0,240.0,11.0,0.0
21626,54.0,0.0,240.0,7.0,0.0
21627,60.0,8.0,60.0,12.0,0.0
21628,60.0,0.0,240.0,6.0,0.0
21629,72.0,0.0,240.0,11.0,0.0
21630,63.0,0.0,240.0,11.0,0.0
21631,56.0,0.0,60.0,12.0,0.0
21632,51.0,0.0,60.0,13.0,0.0
21633,54.0,0.0,60.0,13.0,0.0
21634,51.0,0.0,60.0,13.0,0.0
21635,44.0,52.0,60.0,10.0,0.0
21636,54.0,8.0,60.0,13.0,0.0
21637,60.0,0.0,60.0,12.0,0.0
21638,56.0,0.0,60.0,12.0,0.0
21639,44.0,45.0,60.0,10.0,0.0
21640,60.0,0.0,60.0,12.0,0.0
21641,56.0,0.0,60.0,12.0,0.0
21642,32.0,0.0,90.0,14.0,0.0
21643,54.0,8.0,60.0,13.0,0.0
21644,51.0,0.0,60.0,13.0,0.0
21645,20.0,0.0,90.0,3.0,0.0
21646,20.0,7.0,90.0,15.0,0.0
21647,56.0,0.0,60.0,12.0,0.0
21648,60.0,8.0,60.0,12.0,0.0
21649,44.0,0.0,60.0,10.0,0.0
21650,54.0,0.0,60.0,13.0,0.0
21651,51.0,0.0,60.0,13.0,0.0
21652,44.0,45.0,60.0,10.0,0.0
21653,60.0,0.0,60.0,12.0,0.0
21654,54.0,0.0,60.0,13.0,0.0
21655,56.0,8.0,60.0,12.0,0.0
21656,51.0,0.0,60.0,13.0,0.0
21657,36.0,0.0,90.0,14.0,0.0
21658,24.0,0.0,90.0,15.0,0.0
21659,24.0,7.0,90.0,3.0,0.0
21660,60.0,0.0,60.0,12.0,0.0
21661,44.0,52.0,60.0,10.0,0.0
21662,51.0,0.0,60.0,13.0,0.0
21663,54.0,8.0,60.0,13.0,0.0
21664,56.0,0.0,60.0,12.0,0.0
21665,44.0,45.0,60.0,10.0,0.0
21666,60.0,0.0,60.0,12.0,0.0
21667,39.0,0.0,90.0,14.0,0.0
21668,27.0,0.0,90.0,3.0,0.0
21669,27.0,7.0,90.0,15.0,0.0
21670,56.0,0.0,60.0,12.0,0.0
21671,54.0,8.0,60.0,13.0,0.0
21672,51.0,0.0,60.0,13.0,0.0
21673,56.0,0.0,60.0,12.0,0.0
21674,44.0,52.0,60.0,10.0,0.0
21675,60.0,8.0,60.0,12.0,0.0
21676,54.0,0.0,60.0,13.0,0.0
21677,51.0,0.0,60.0,13.0,0.0
21678,44.0,45.0,60.0,10.0,0.0
21679,54.0,52.0,240.0,7.0,0.0
21680,32.0,0.0,90.0,3.0,0.0
21681,60.0,0.0,60.0,12.0,0.0
21682,56.0,8.0,60.0,12.0,0.0
21683,51.0,0.0,240.0,11.0,0.0
21684,54.0,0.0,60.0,13.0,0.0
21685,60.0,0.0,240.0,6.0,0.0
21686,51.0,0.0,240.0,8.0,0.0
21687,72.0,0.0,240.0,11.0,0.0
21688,51.0,0.0,60.0,13.0,0.0
21689,63.0,0.0,240.0,11.0,0.0
21690,32.0,7.0,90.0,15.0,0.0
21691,44.0,0.0,90.0,14.0,0.0
21692,66.0,0.0,240.0,11.0,0.0
21693,60.0,0.0,60.0,12.0,0.0
21694,54.0,0.0,60.0,13.0,0.0
21695,51.0,8.0,60.0,13.0,0.0
21696,44.0,52.0,60.0,10.0,0.0
21697,56.0,0.0,60.0,12.0,0.0
21698,36.0,0.0,90.0,15.0,0.0
21699,54.0,0.0,60.0,13.0,0.0
21700,44.0,45.0,60.0,10.0,0.0
21701,36.0,7.0,90.0,3.0,0.0
21702,56.0,8.0,60.0,12.0,0.0
21703,48.0,0.0,90.0,14.0,0.0
21704,51.0,0.0,60.0,13.0,0.0
21705,60.0,0.0,60.0,12.0,0.0
21706,54.0,0.0,60.0,13.0,0.0
21707,60.0,0.0,60.0,12.0,0.0
21708,56.0,8.0,60.0,12.0,0.0
21709,44.0,0.0,60.0,10.0,0.0
21710,51.0,0.0,60.0,13.0,0.0
21711,39.0,7.0,90.0,15.0,0.0
21712,60.0,0.0,60.0,12.0,0.0
21713,56.0,8.0,60.0,12.0,0.0
21714,44.0,45.0,60.0,10.0,0.0
21715,51.0,0.0,90.0,14.0,0.0
21716,54.0,0.0,60.0,13.0,0.0
21717,51.0,0.0,60.0,13.0,0.0
21718,39.0,0.0,90.0,3.0,0.0
21719,56.0,8.0,60.0,12.0,0.0
21720,60.0,0.0,60.0,12.0,0.0
21721,54.0,0.0,60.0,13.0,0.0
21722,51.0,0.0,60.0,13.0,0.0
21723,44.0,52.0,60.0,10.0,0.0
21724,54.0,0.0,60.0,13.0,0.0
21725,56.0,0.0,60.0,12.0,0.0
21726,56.0,7.0,90.0,14.0,0.0
21727,44.0,0.0,90.0,15.0,0.0
21728,44.0,45.0,60.0,10.0,0.0
21729,44.0,0.0,90.0,3.0,0.0
21730,60.0,8.0,60.0,12.0,0.0
21731,51.0,0.0,60.0,13.0,0.0
21732,54.0,0.0,60.0,13.0,0.0
21733,51.0,0.0,60.0,13.0,0.0
21734,44.0,52.0,60.0,10.0,0.0
21735,56.0,0.0,60.0,12.0,0.0
21736,60.0,8.0,60.0,12.0,0.0
21737,54.0,0.0,240.0,7.0,0.0
21738,44.0,45.0,60.0,10.0,0.0
21739,60.0,0.0,240.0,6.0,0.0
21740,60.0,0.0,90.0,14.0,0.0
21741,54.0,0.0,60.0,13.0,0.0
21742,48.0,0.0,90.0,15.0,0.0
21743,56.0,0.0,60.0,12.0,0.0
21744,60.0,0.0,60.0,12.0,0.0
21745,51.0,52.0,240.0,11.0,0.0
21746,72.0,0.0,240.0,11.0,0.0
21747,66.0,0.0,240.0,11.0,0.0
21748,48.0,7.0,90.0,3.0,0.0
21749,63.0,0.0,240.0,11.0,0.0
21750,51.0,8.0,60.0,13.0,0.0
21751,51.0,0.0,240.0,8.0,0.0
21752,51.0,0.0,60.0,13.0,0.0
21753,56.0,0.0,60.0,12.0,0.0
21754,60.0,0.0,60.0,12.0,0.0
21755,44.0,52.0,60.0,10.0,0.0
21756,54.0,8.0,60.0,13.0,0.0
21757,56.0,0.0,90.0,14.0,0.0
21758,44.0,0.0,90.0,3.0,0.0
21759,44.0,45.0,60.0,10.0,0.0
21760,44.0,7.0,90.0,15.0,0.0
21761,56.0,0.0,60.0,12.0,0.0
21762,60.0,0.0,60.0,12.0,0.0
21763,54.0,0.0,60.0,13.0,0.0
21764,51.0,8.0,60.0,13.0,0.0
21765,51.0,8.0,60.0,13.0,0.0
21766,54.0,0.0,60.0,13.0,0.0
21767,56.0,0.0,60.0,12.0,0.0
21768,60.0,0.0,60.0,12.0,0.0
21769,44.0,0.0,60.0,10.0,0.0
21770,51.0,0.0,90.0,14.0,0.0
21771,56.0,0.0,60.0,12.0,0.0
21772,39.0,7.0,90.0,3.0,0.0
21773,39.0,0.0,90.0,15.0,0.0
21774,54.0,8.0,60.0,13.0,0.0
21775,51.0,0.0,60.0,13.0,0.0
21776,60.0,0.0,60.0,12.0,0.0
21777,44.0,45.0,60.0,10.0,0.0
21778,60.0,0.0,60.0,12.0,0.0
21779,56.0,8.0,60.0,12.0,0.0
21780,44.0,52.0,60.0,10.0,0.0
21781,51.0,0.0,60.0,13.0,0.0
21782,54.0,0.0,60.0,13.0,0.0
21783,36.0,0.0,90.0,3.0,0.0
21784,51.0,0.0,60.0,13.0,0.0
21785,48.0,7.0,90.0,14.0,0.0
21786,44.0,45.0,60.0,10.0,0.0
21787,56.0,8.0,60.0,12.0,0.0
21788,54.0,0.0,60.0,13.0,0.0
21789,36.0,0.0,90.0,15.0,0.0
21790,60.0,0.0,60.0,12.0,0.0
21791,44.0,105.0,60.0,10.0,0.0
21792,51.0,0.0,60.0,13.0,0.0
21793,54.0,0.0,60.0,13.0,0.0
21794,56.0,0.0,60.0,12.0,0.0
21795,60.0,8.0,60.0,12.0,0.0
21796,80.0,105.0,240.0,0.0,0.0
21797,84.0,0.0,240.0,0.0,0.0
21798,63.0,0.0,240.0,2.0,0.0
21799,56.0,0.0,240.0,5.0,0.0
21800,56.0,0.0,210.0,3.0,0.0
21801,30.0,120.0,90.0,3.0,0.0
21802,68.0,0.0,240.0,5.0,0.0
21803,54.0,0.0,210.0,3.0,0.0
21804,56.0,0.0,1920.0,4.0,0.0
21805,44.0,105.0,1920.0,4.0,0.0
21806,60.0,0.0,690.0,12.0,0.0
21807,72.0,255.0,690.0,11.0,0.0
21808,72.0,0.0,240.0,2.0,0.0
21809,56.0,0.0,240.0,7.0,0.0
21810,72.0,0.0,240.0,1.0,0.0
21811,75.0,0.0,240.0,1.0,0.0
21812,51.0,0.0,240.0,8.0,0.0
21813,60.0,0.0,240.0,6.0,0.0
21814,30.0,0.0,90.0,15.0,0.0
21815,48.0,105.0,960.0,13.0,0.0
21816,44.0,0.0,240.0,10.0,0.0
21817,42.0,0.0,90.0,14.0,0.0
21818,29.0,15.0,90.0,3.0,0.0
21819,41.0,0.0,90.0,14.0,0.0
21820,29.0,0.0,90.0,15.0,0.0
21821,42.0,120.0,90.0,14.0,0.0
21822,30.0,0.0,90.0,15.0,0.0
21823,30.0,0.0,90.0,3.0,0.0
21824,30.0,0.0,90.0,15.0,0.0
21825,42.0,0.0,90.0,14.0,0.0
21826,30.0,240.0,90.0,3.0,0.0
21827,30.0,0.0,570.0,15.0,0.0
21828,42.0,120.0,570.0,14.0,0.0
21829,30.0,0.0,570.0,3.0,0.0
21830,68.0,0.0,240.0,11.0,0.0
21831,56.0,0.0,240.0,12.0,0.0
21832,72.0,0.0,240.0,11.0,0.0
21833,72.0,0.0,210.0,2.0,0.0
21834,48.0,0.0,450.0,13.0,0.0
21835,60.0,0.0,240.0,6.0,0.0
21836,63.0,0.0,210.0,2.0,0.0
21837,51.0,0.0,240.0,8.0,0.0
21838,44.0,0.0,240.0,10.0,0.0
21839,54.0,0.0,240.0,3.0,0.0
21840,72.0,0.0,240.0,1.0,0.0
21841,56.0,0.0,240.0,7.0,0.0
21842,56.0,0.0,240.0,3.0,0.0
21843,60.0,105.0,240.0,12.0,0.0
21844,80.0,0.0,240.0,0.0,0.0
21845,84.0,0.0,240.0,0.0,0.0
21846,75.0,0.0,240.0,1.0,0.0
21847,56.0,0.0,240.0,5.0,0.0
21848,68.0,0.0,240.0,5.0,0.0
21849,29.0,15.0,90.0,3.0,0.0
21850,29.0,0.0,90.0,15.0,0.0
21851,41.0,0.0,90.0,14.0,0.0
21852,30.0,120.0,90.0,15.0,0.0
21853,68.0,240.0,240.0,11.0,0.0
21854,42.0,0.0,90.0,14.0,0.0
21855,56.0,0.0,240.0,12.0,0.0
21856,30.0,0.0,90.0,3.0,0.0
21857,30.0,0.0,90.0,3.0,0.0
21858,30.0,15.0,90.0,15.0,0.0
21859,42.0,0.0,90.0,14.0,0.0
21860,42.0,0.0,450.0,14.0,0.0
21861,30.0,7.0,450.0,15.0,0.0
21862,30.0,0.0,450.0,3.0,0.0
21863,63.0,180.0,240.0,12.0,0.0
21864,48.0,0.0,240.0,13.0,0.0
21865,75.0,0.0,240.0,11.0,0.0
21866,49.0,0.0,180.0,13.0,0.0
21867,73.0,0.0,180.0,11.0,0.0
21868,61.0,45.0,180.0,12.0,0.0
21869,60.0,8.0,60.0,12.0,0.0
21870,51.0,0.0,60.0,13.0,0.0
21871,72.0,0.0,60.0,11.0,0.0
21872,44.0,0.0,1890.0,4.0,0.0
21873,56.0,0.0,1890.0,4.0,0.0
21874,61.0,0.0,240.0,6.0,0.0
21875,85.0,0.0,240.0,0.0,0.0
21876,80.0,0.0,240.0,0.0,0.0
21877,41.0,0.0,90.0,14.0,0.0
21878,44.0,0.0,240.0,10.0,0.0
21879,56.0,0.0,240.0,7.0,0.0
21880,56.0,0.0,240.0,3.0,0.0
21881,53.0,0.0,240.0,3.0,0.0
21882,61.0,255.0,690.0,12.0,0.0
21883,73.0,0.0,690.0,11.0,0.0
21884,65.0,0.0,210.0,2.0,0.0
21885,73.0,105.0,240.0,1.0,0.0
21886,49.0,105.0,960.0,13.0,0.0
21887,29.0,0.0,90.0,15.0,0.0
21888,53.0,0.0,240.0,8.0,0.0
21889,73.0,0.0,210.0,2.0,0.0
21890,77.0,0.0,240.0,1.0,0.0
21891,29.0,120.0,90.0,3.0,0.0
21892,56.0,0.0,240.0,5.0,0.0
21893,68.0,0.0,240.0,5.0,0.0
21894,40.0,0.0,90.0,14.0,0.0
21895,28.0,15.0,90.0,3.0,0.0
21896,28.0,0.0,90.0,15.0,0.0
21897,29.0,0.0,90.0,15.0,0.0
21898,29.0,0.0,90.0,3.0,0.0
21899,41.0,120.0,90.0,14.0,0.0
21900,29.0,0.0,90.0,15.0,0.0
21901,41.0,0.0,90.0,14.0,0.0
21902,29.0,240.0,90.0,3.0,0.0
21903,41.0,120.0,570.0,14.0,0.0
21904,29.0,0.0,570.0,3.0,0.0
21905,29.0,0.0,570.0,15.0,0.0
21906,56.0,0.0,240.0,12.0,0.0
21907,68.0,0.0,240.0,11.0,0.0
21908,73.0,0.0,240.0,11.0,0.0
21909,56.0,0.0,240.0,3.0,0.0
21910,53.0,0.0,240.0,3.0,0.0
21911,56.0,0.0,240.0,7.0,0.0
21912,53.0,0.0,240.0,8.0,0.0
21913,61.0,0.0,240.0,6.0,0.0
21914,44.0,0.0,240.0,10.0,0.0
21915,61.0,0.0,240.0,12.0,0.0
21916,85.0,0.0,240.0,0.0,0.0
21917,56.0,0.0,240.0,5.0,0.0
21918,65.0,15.0,210.0,2.0,0.0
21919,73.0,0.0,240.0,1.0,0.0
21920,77.0,0.0,240.0,1.0,0.0
21921,73.0,0.0,210.0,2.0,0.0
21922,49.0,0.0,450.0,13.0,0.0
21923,80.0,105.0,240.0,0.0,0.0
21924,68.0,0.0,240.0,5.0,0.0
21925,28.0,0.0,90.0,3.0,0.0
21926,40.0,0.0,90.0,14.0,0.0
21927,28.0,0.0,90.0,15.0,0.0
21928,29.0,0.0,90.0,15.0,0.0
21929,56.0,240.0,240.0,12.0,0.0
21930,68.0,0.0,240.0,11.0,0.0
21931,29.0,120.0,90.0,3.0,0.0
21932,41.0,0.0,90.0,14.0,0.0
21933,41.0,0.0,90.0,14.0,0.0
21934,29.0,0.0,90.0,15.0,0.0
21935,29.0,15.0,90.0,3.0,0.0
21936,49.0,0.0,240.0,13.0,0.0
21937,29.0,7.0,450.0,3.0,0.0
21938,65.0,0.0,240.0,12.0,0.0
21939,41.0,0.0,450.0,14.0,0.0
21940,77.0,180.0,240.0,11.0,0.0
21941,29.0,0.0,450.0,15.0,0.0
21942,51.0,45.0,180.0,13.0,0.0
21943,63.0,0.0,180.0,12.0,0.0
21944,75.0,0.0,180.0,11.0,0.0
21945,53.0,60.0,60.0,13.0,0.0
21946,73.0,0.0,60.0,11.0,0.0
21947,61.0,0.0,60.0,12.0,0.0
21948,55.0,7.0,690.0,13.0,0.0
21949,73.0,0.0,60.0,12.0,0.0
21950,70.0,60.0,60.0,12.0,0.0
21951,75.0,0.0,60.0,11.0,0.0
21952,63.0,0.0,60.0,11.0,0.0
21953,73.0,0.0,1890.0,2.0,0.0
21954,39.0,52.0,240.0,10.0,0.0
21955,61.0,0.0,480.0,6.0,0.0
21956,58.0,52.0,480.0,7.0,0.0
21957,67.0,0.0,1410.0,1.0,0.0
21958,31.0,0.0,690.0,3.0,0.0
21959,51.0,0.0,480.0,8.0,0.0
21960,75.0,52.0,1920.0,5.0,0.0
21961,70.0,7.0,1890.0,2.0,0.0
21962,31.0,0.0,690.0,15.0,0.0
21963,51.0,0.0,1920.0,4.0,0.0
21964,63.0,0.0,1920.0,5.0,0.0
21965,43.0,0.0,690.0,14.0,0.0
21966,55.0,0.0,1410.0,3.0,0.0
21967,79.0,7.0,1410.0,0.0,0.0
21968,63.0,0.0,1920.0,4.0,0.0
21969,70.0,0.0,60.0,12.0,0.0
21970,75.0,60.0,60.0,11.0,0.0
21971,63.0,0.0,60.0,11.0,0.0
21972,73.0,0.0,60.0,12.0,0.0
21973,86.0,7.0,90.0,0.0,0.0
21974,63.0,0.0,60.0,11.0,0.0
21975,75.0,53.0,60.0,11.0,0.0
21976,70.0,0.0,60.0,12.0,0.0
21977,73.0,0.0,60.0,12.0,0.0
21978,75.0,8.0,60.0,11.0,0.0
21979,63.0,0.0,60.0,11.0,0.0
21980,70.0,0.0,60.0,12.0,0.0
21981,73.0,0.0,60.0,12.0,0.0
21982,70.0,0.0,60.0,12.0,0.0
21983,63.0,0.0,60.0,11.0,0.0
21984,75.0,0.0,60.0,11.0,0.0
21985,87.0,7.0,90.0,0.0,0.0
21986,73.0,53.0,60.0,12.0,0.0
21987,75.0,0.0,60.0,11.0,0.0
21988,63.0,60.0,60.0,11.0,0.0
21989,70.0,0.0,60.0,12.0,0.0
21990,73.0,0.0,60.0,12.0,0.0
21991,87.0,7.0,90.0,0.0,0.0
21992,63.0,0.0,60.0,11.0,0.0
21993,75.0,0.0,60.0,11.0,0.0
21994,70.0,0.0,60.0,12.0,0.0
21995,73.0,53.0,60.0,12.0,0.0
21996,70.0,0.0,60.0,12.0,0.0
21997,73.0,0.0,60.0,12.0,0.0
21998,75.0,8.0,60.0,11.0,0.0
21999,63.0,0.0,60.0,11.0,0.0
22000,87.0,7.0,570.0,0.0,0.0
22001,63.0,0.0,60.0,11.0,0.0
22002,73.0,60.0,60.0,12.0,0.0
22003,75.0,0.0,60.0,11.0,0.0
22004,70.0,0.0,60.0,12.0,0.0
22005,73.0,60.0,60.0,12.0,0.0
22006,75.0,0.0,60.0,11.0,0.0
22007,63.0,0.0,60.0,11.0,0.0
22008,70.0,0.0,60.0,12.0,0.0
22009,75.0,0.0,60.0,11.0,0.0
22010,63.0,0.0,60.0,11.0,0.0
22011,70.0,0.0,60.0,12.0,0.0
22012,73.0,53.0,60.0,12.0,0.0
22013,73.0,0.0,60.0,12.0,0.0
22014,70.0,0.0,60.0,12.0,0.0
22015,75.0,60.0,60.0,11.0,0.0
22016,63.0,0.0,60.0,11.0,0.0
22017,27.0,0.0,240.0,3.0,0.0
22018,39.0,0.0,240.0,14.0,0.0
22019,73.0,0.0,60.0,12.0,0.0
22020,51.0,0.0,240.0,13.0,0.0
22021,27.0,52.0,240.0,15.0,0.0
22022,63.0,0.0,60.0,11.0,0.0
22023,70.0,60.0,60.0,12.0,0.0
22024,75.0,0.0,60.0,11.0,0.0
22025,75.0,0.0,60.0,11.0,0.0
22026,63.0,0.0,60.0,11.0,0.0
22027,73.0,60.0,60.0,12.0,0.0
22028,70.0,0.0,60.0,12.0,0.0
22029,63.0,0.0,60.0,11.0,0.0
22030,75.0,60.0,60.0,11.0,0.0
22031,73.0,0.0,60.0,12.0,0.0
22032,70.0,0.0,60.0,12.0,0.0
22033,73.0,8.0,60.0,12.0,0.0
22034,70.0,0.0,60.0,12.0,0.0
22035,75.0,0.0,60.0,11.0,0.0
22036,63.0,0.0,60.0,11.0,0.0
22037,43.0,0.0,240.0,14.0,0.0
22038,39.0,0.0,240.0,10.0,0.0
22039,31.0,52.0,240.0,15.0,0.0
22040,55.0,0.0,240.0,13.0,0.0
22041,75.0,0.0,60.0,11.0,0.0
22042,73.0,53.0,60.0,12.0,0.0
22043,70.0,0.0,60.0,12.0,0.0
22044,31.0,0.0,240.0,3.0,0.0
22045,63.0,0.0,60.0,11.0,0.0
22046,75.0,60.0,60.0,11.0,0.0
22047,63.0,0.0,60.0,11.0,0.0
22048,73.0,0.0,60.0,12.0,0.0
22049,70.0,0.0,60.0,12.0,0.0
22050,75.0,0.0,60.0,11.0,0.0
22051,63.0,0.0,60.0,11.0,0.0
22052,70.0,53.0,60.0,12.0,0.0
22053,73.0,0.0,60.0,12.0,0.0
22054,86.0,7.0,90.0,0.0,0.0
22055,75.0,0.0,60.0,11.0,0.0
22056,63.0,0.0,60.0,11.0,0.0
22057,73.0,0.0,60.0,12.0,0.0
22058,70.0,8.0,60.0,12.0,0.0
22059,70.0,53.0,60.0,12.0,0.0
22060,63.0,0.0,60.0,11.0,0.0
22061,75.0,0.0,60.0,11.0,0.0
22062,27.0,0.0,240.0,3.0,0.0
22063,39.0,0.0,240.0,14.0,0.0
22064,27.0,52.0,240.0,15.0,0.0
22065,87.0,7.0,90.0,0.0,0.0
22066,73.0,0.0,60.0,12.0,0.0
22067,51.0,0.0,240.0,13.0,0.0
22068,70.0,60.0,60.0,12.0,0.0
22069,73.0,0.0,60.0,12.0,0.0
22070,75.0,0.0,60.0,11.0,0.0
22071,63.0,0.0,60.0,11.0,0.0
22072,70.0,53.0,60.0,12.0,0.0
22073,63.0,0.0,60.0,11.0,0.0
22074,73.0,0.0,60.0,12.0,0.0
22075,87.0,0.0,90.0,0.0,0.0
22076,75.0,0.0,60.0,11.0,0.0
22077,63.0,8.0,60.0,11.0,0.0
22078,75.0,0.0,60.0,11.0,0.0
22079,73.0,0.0,60.0,12.0,0.0
22080,70.0,0.0,60.0,12.0,0.0
22081,79.0,0.0,240.0,0.0,0.0
22082,75.0,0.0,60.0,11.0,0.0
22083,63.0,60.0,60.0,11.0,0.0
22084,87.0,7.0,570.0,0.0,0.0
22085,70.0,0.0,60.0,12.0,0.0
22086,73.0,0.0,60.0,12.0,0.0
22087,55.0,52.0,240.0,3.0,0.0
22088,67.0,0.0,240.0,1.0,0.0
22089,46.0,0.0,240.0,14.0,0.0
22090,34.0,0.0,240.0,3.0,0.0
22091,58.0,0.0,240.0,13.0,0.0
22092,34.0,0.0,240.0,15.0,0.0
22093,70.0,0.0,60.0,12.0,0.0
22094,63.0,60.0,60.0,11.0,0.0
22095,75.0,0.0,60.0,11.0,0.0
22096,73.0,0.0,60.0,12.0,0.0
22097,63.0,60.0,60.0,11.0,0.0
22098,75.0,0.0,60.0,11.0,0.0
22099,73.0,0.0,60.0,12.0,0.0
22100,70.0,0.0,60.0,12.0,0.0
22101,73.0,0.0,60.0,12.0,0.0
22102,70.0,0.0,60.0,12.0,0.0
22103,63.0,8.0,60.0,11.0,0.0
22104,75.0,0.0,60.0,11.0,0.0
22105,80.0,0.0,180.0,0.0,0.0
22106,56.0,0.0,180.0,13.0,0.0
22107,44.0,0.0,180.0,14.0,0.0
22108,70.0,0.0,60.0,12.0,0.0
22109,32.0,45.0,180.0,3.0,0.0
22110,63.0,0.0,60.0,11.0,0.0
22111,73.0,60.0,60.0,12.0,0.0
22112,56.0,0.0,180.0,3.0,0.0
22113,32.0,0.0,180.0,15.0,0.0
22114,68.0,0.0,180.0,1.0,0.0
22115,75.0,0.0,60.0,11.0,0.0
22116,70.0,0.0,60.0,12.0,0.0
22117,63.0,60.0,60.0,11.0,0.0
22118,75.0,0.0,60.0,11.0,0.0
22119,73.0,0.0,60.0,12.0,0.0
22120,73.0,0.0,60.0,12.0,0.0
22121,70.0,0.0,60.0,12.0,0.0
22122,75.0,8.0,60.0,11.0,0.0
22123,63.0,0.0,60.0,11.0,0.0
22124,55.0,0.0,60.0,13.0,0.0
22125,70.0,0.0,60.0,1.0,0.0
22126,58.0,0.0,60.0,3.0,0.0
22127,73.0,0.0,60.0,12.0,0.0
22128,70.0,0.0,60.0,12.0,0.0
22129,43.0,0.0,60.0,14.0,0.0
22130,31.0,0.0,60.0,15.0,0.0
22131,63.0,0.0,60.0,11.0,0.0
22132,75.0,0.0,60.0,11.0,0.0
22133,82.0,8.0,60.0,0.0,0.0
22134,31.0,0.0,60.0,3.0,0.0
22135,60.0,52.0,480.0,6.0,0.0
22136,63.0,0.0,1890.0,5.0,0.0
22137,68.0,0.0,1890.0,2.0,0.0
22138,72.0,7.0,1890.0,2.0,0.0
22139,39.0,52.0,240.0,10.0,0.0
22140,56.0,0.0,480.0,7.0,0.0
22141,56.0,0.0,690.0,13.0,0.0
22142,56.0,7.0,1410.0,3.0,0.0
22143,75.0,0.0,60.0,11.0,0.0
22144,63.0,0.0,60.0,11.0,0.0
22145,32.0,7.0,690.0,3.0,0.0
22146,68.0,0.0,60.0,12.0,0.0
22147,72.0,53.0,60.0,12.0,0.0
22148,32.0,0.0,690.0,15.0,0.0
22149,75.0,0.0,1890.0,5.0,0.0
22150,68.0,0.0,1410.0,1.0,0.0
22151,80.0,0.0,1410.0,0.0,0.0
22152,44.0,0.0,690.0,14.0,0.0
22153,51.0,0.0,1890.0,4.0,0.0
22154,63.0,0.0,1890.0,4.0,0.0
22155,51.0,0.0,480.0,8.0,0.0
22156,68.0,0.0,60.0,12.0,0.0
22157,72.0,0.0,60.0,12.0,0.0
22158,63.0,0.0,60.0,11.0,0.0
22159,75.0,60.0,60.0,11.0,0.0
22160,68.0,0.0,60.0,12.0,0.0
22161,63.0,0.0,60.0,11.0,0.0
22162,72.0,0.0,60.0,12.0,0.0
22163,86.0,7.0,90.0,0.0,0.0
22164,75.0,53.0,60.0,11.0,0.0
22165,68.0,0.0,60.0,12.0,0.0
22166,63.0,0.0,60.0,11.0,0.0
22167,75.0,8.0,60.0,11.0,0.0
22168,72.0,0.0,60.0,12.0,0.0
22169,63.0,0.0,60.0,11.0,0.0
22170,68.0,0.0,60.0,12.0,0.0
22171,72.0,0.0,60.0,12.0,0.0
22172,87.0,7.0,90.0,0.0,0.0
22173,75.0,53.0,60.0,11.0,0.0
22174,75.0,60.0,60.0,11.0,0.0
22175,63.0,0.0,60.0,11.0,0.0
22176,68.0,0.0,60.0,12.0,0.0
22177,72.0,0.0,60.0,12.0,0.0
22178,63.0,0.0,60.0,11.0,0.0
22179,87.0,7.0,90.0,0.0,0.0
22180,75.0,0.0,60.0,11.0,0.0
22181,72.0,0.0,60.0,12.0,0.0
22182,68.0,53.0,60.0,12.0,0.0
22183,68.0,0.0,60.0,12.0,0.0
22184,72.0,8.0,60.0,12.0,0.0
22185,63.0,0.0,60.0,11.0,0.0
22186,75.0,0.0,60.0,11.0,0.0
22187,68.0,0.0,60.0,12.0,0.0
22188,63.0,0.0,60.0,11.0,0.0
22189,75.0,0.0,60.0,11.0,0.0
22190,87.0,7.0,570.0,0.0,0.0
22191,72.0,60.0,60.0,12.0,0.0
22192,63.0,0.0,60.0,11.0,0.0
22193,75.0,0.0,60.0,11.0,0.0
22194,68.0,0.0,60.0,12.0,0.0
22195,72.0,60.0,60.0,12.0,0.0
22196,72.0,0.0,60.0,12.0,0.0
22197,75.0,0.0,60.0,11.0,0.0
22198,63.0,0.0,60.0,11.0,0.0
22199,68.0,53.0,60.0,12.0,0.0
22200,68.0,0.0,60.0,12.0,0.0
22201,72.0,0.0,60.0,12.0,0.0
22202,75.0,0.0,60.0,11.0,0.0
22203,63.0,60.0,60.0,11.0,0.0
22204,27.0,0.0,240.0,3.0,0.0
22205,68.0,0.0,60.0,12.0,0.0
22206,63.0,60.0,60.0,11.0,0.0
22207,72.0,0.0,60.0,12.0,0.0
22208,51.0,52.0,240.0,13.0,0.0
22209,39.0,0.0,240.0,14.0,0.0
22210,75.0,0.0,60.0,11.0,0.0
22211,27.0,0.0,240.0,15.0,0.0
22212,68.0,0.0,60.0,12.0,0.0
22213,72.0,0.0,60.0,12.0,0.0
22214,63.0,60.0,60.0,11.0,0.0
22215,75.0,0.0,60.0,11.0,0.0
22216,75.0,0.0,60.0,11.0,0.0
22217,63.0,0.0,60.0,11.0,0.0
22218,68.0,60.0,60.0,12.0,0.0
22219,72.0,0.0,60.0,12.0,0.0
22220,63.0,8.0,60.0,11.0,0.0
22221,68.0,0.0,60.0,12.0,0.0
22222,75.0,0.0,60.0,11.0,0.0
22223,72.0,0.0,60.0,12.0,0.0
22224,72.0,0.0,60.0,12.0,0.0
22225,68.0,0.0,60.0,12.0,0.0
22226,75.0,53.0,60.0,11.0,0.0
22227,39.0,0.0,240.0,10.0,0.0
22228,63.0,0.0,60.0,11.0,0.0
22229,32.0,0.0,240.0,3.0,0.0
22230,56.0,0.0,240.0,13.0,0.0
22231,32.0,0.0,240.0,15.0,0.0
22232,44.0,52.0,240.0,14.0,0.0
22233,68.0,0.0,60.0,12.0,0.0
22234,72.0,60.0,60.0,12.0,0.0
22235,63.0,0.0,60.0,11.0,0.0
22236,75.0,0.0,60.0,11.0,0.0
22237,68.0,0.0,60.0,12.0,0.0
22238,72.0,53.0,60.0,12.0,0.0
22239,63.0,0.0,60.0,11.0,0.0
22240,75.0,0.0,60.0,11.0,0.0
22241,86.0,7.0,90.0,0.0,0.0
22242,68.0,8.0,60.0,12.0,0.0
22243,72.0,0.0,60.0,12.0,0.0
22244,63.0,0.0,60.0,11.0,0.0
22245,75.0,0.0,60.0,11.0,0.0
22246,27.0,52.0,240.0,3.0,0.0
22247,51.0,0.0,240.0,13.0,0.0
22248,27.0,0.0,240.0,15.0,0.0
22249,87.0,7.0,90.0,0.0,0.0
22250,39.0,0.0,240.0,14.0,0.0
22251,72.0,0.0,60.0,12.0,0.0
22252,68.0,0.0,60.0,12.0,0.0
22253,63.0,53.0,60.0,11.0,0.0
22254,75.0,0.0,60.0,11.0,0.0
22255,75.0,60.0,60.0,11.0,0.0
22256,63.0,0.0,60.0,11.0,0.0
22257,68.0,0.0,60.0,12.0,0.0
22258,72.0,0.0,60.0,12.0,0.0
22259,72.0,0.0,60.0,12.0,0.0
22260,75.0,0.0,60.0,11.0,0.0
22261,63.0,53.0,60.0,11.0,0.0
22262,87.0,0.0,90.0,0.0,0.0
22263,68.0,0.0,60.0,12.0,0.0
22264,72.0,0.0,60.0,12.0,0.0
22265,68.0,0.0,60.0,12.0,0.0
22266,75.0,8.0,60.0,11.0,0.0
22267,63.0,0.0,60.0,11.0,0.0
22268,48.0,0.0,240.0,14.0,0.0
22269,36.0,0.0,240.0,15.0,0.0
22270,72.0,0.0,60.0,12.0,0.0
22271,36.0,0.0,240.0,3.0,0.0
22272,68.0,52.0,240.0,1.0,0.0
22273,87.0,52.0,600.0,0.0,0.0
22274,60.0,0.0,240.0,13.0,0.0
22275,68.0,0.0,60.0,12.0,0.0
22276,63.0,60.0,60.0,11.0,0.0
22277,75.0,0.0,60.0,11.0,0.0
22278,56.0,0.0,240.0,3.0,0.0
22279,80.0,0.0,240.0,0.0,0.0
22280,72.0,0.0,60.0,12.0,0.0
22281,68.0,0.0,60.0,12.0,0.0
22282,75.0,60.0,60.0,11.0,0.0
22283,63.0,0.0,60.0,11.0,0.0
22284,72.0,0.0,60.0,12.0,0.0
22285,63.0,60.0,60.0,11.0,0.0
22286,75.0,0.0,60.0,11.0,0.0
22287,68.0,0.0,60.0,12.0,0.0
22288,63.0,0.0,60.0,11.0,0.0
22289,68.0,0.0,60.0,12.0,0.0
22290,72.0,0.0,60.0,12.0,0.0
22291,75.0,8.0,60.0,11.0,0.0
22292,58.0,45.0,180.0,13.0,0.0
22293,34.0,0.0,180.0,3.0,0.0
22294,58.0,0.0,180.0,3.0,0.0
22295,82.0,0.0,180.0,0.0,0.0
22296,70.0,0.0,180.0,1.0,0.0
22297,68.0,0.0,60.0,12.0,0.0
22298,72.0,0.0,60.0,12.0,0.0
22299,34.0,0.0,180.0,15.0,0.0
22300,46.0,0.0,180.0,14.0,0.0
22301,75.0,0.0,60.0,11.0,0.0
22302,63.0,60.0,60.0,11.0,0.0
22303,63.0,0.0,60.0,11.0,0.0
22304,68.0,0.0,60.0,12.0,0.0
22305,72.0,0.0,60.0,12.0,0.0
22306,75.0,60.0,60.0,11.0,0.0
22307,75.0,8.0,60.0,11.0,0.0
22308,72.0,0.0,60.0,12.0,0.0
22309,68.0,0.0,60.0,12.0,0.0
22310,63.0,0.0,60.0,11.0,0.0
22311,68.0,0.0,60.0,12.0,0.0
22312,84.0,0.0,60.0,0.0,0.0
22313,60.0,0.0,60.0,3.0,0.0
22314,32.0,0.0,60.0,3.0,0.0
22315,63.0,0.0,60.0,11.0,0.0
22316,75.0,0.0,60.0,11.0,0.0
22317,32.0,60.0,60.0,15.0,0.0
22318,72.0,0.0,60.0,12.0,0.0
22319,56.0,0.0,60.0,13.0,0.0
22320,44.0,0.0,60.0,14.0,0.0
22321,72.0,0.0,60.0,1.0,0.0
22322,70.0,0.0,450.0,1.0,0.0
22323,51.0,0.0,930.0,4.0,0.0
22324,63.0,0.0,930.0,4.0,0.0
22325,63.0,7.0,930.0,5.0,0.0
22326,55.0,0.0,330.0,13.0,0.0
22327,51.0,0.0,480.0,8.0,0.0
22328,75.0,0.0,930.0,5.0,0.0
22329,70.0,60.0,60.0,12.0,0.0
22330,73.0,0.0,60.0,12.0,0.0
22331,58.0,0.0,450.0,3.0,0.0
22332,61.0,52.0,480.0,6.0,0.0
22333,58.0,0.0,480.0,7.0,0.0
22334,39.0,52.0,240.0,10.0,0.0
22335,82.0,0.0,450.0,0.0,0.0
22336,31.0,7.0,330.0,15.0,0.0
22337,31.0,0.0,330.0,3.0,0.0
22338,75.0,0.0,60.0,11.0,0.0
22339,70.0,0.0,930.0,2.0,0.0
22340,73.0,0.0,930.0,2.0,0.0
22341,43.0,0.0,330.0,14.0,0.0
22342,63.0,0.0,60.0,11.0,0.0
22343,70.0,0.0,60.0,12.0,0.0
22344,63.0,0.0,60.0,11.0,0.0
22345,75.0,8.0,60.0,11.0,0.0
22346,73.0,0.0,60.0,12.0,0.0
22347,63.0,0.0,60.0,11.0,0.0
22348,70.0,0.0,60.0,12.0,0.0
22349,86.0,7.0,90.0,0.0,0.0
22350,75.0,53.0,60.0,11.0,0.0
22351,73.0,0.0,60.0,12.0,0.0
22352,70.0,0.0,60.0,12.0,0.0
22353,73.0,8.0,60.0,12.0,0.0
22354,75.0,0.0,60.0,11.0,0.0
22355,63.0,0.0,60.0,11.0,0.0
22356,75.0,0.0,60.0,11.0,0.0
22357,63.0,0.0,60.0,11.0,0.0
22358,73.0,0.0,60.0,12.0,0.0
22359,70.0,38.0,60.0,12.0,0.0
22360,87.0,15.0,90.0,0.0,0.0
22361,75.0,0.0,60.0,11.0,0.0
22362,70.0,60.0,60.0,12.0,0.0
22363,73.0,0.0,60.0,12.0,0.0
22364,63.0,0.0,60.0,11.0,0.0
22365,70.0,0.0,60.0,12.0,0.0
22366,73.0,0.0,60.0,12.0,0.0
22367,27.0,0.0,90.0,15.0,0.0
22368,63.0,0.0,60.0,11.0,0.0
22369,75.0,38.0,60.0,11.0,0.0
22370,51.0,7.0,90.0,13.0,0.0
22371,39.0,0.0,90.0,14.0,0.0
22372,87.0,15.0,90.0,0.0,0.0
22373,27.0,0.0,90.0,3.0,0.0
22374,75.0,0.0,60.0,11.0,0.0
22375,63.0,8.0,60.0,11.0,0.0
22376,73.0,0.0,60.0,12.0,0.0
22377,70.0,0.0,60.0,12.0,0.0
22378,70.0,0.0,60.0,12.0,0.0
22379,73.0,0.0,60.0,12.0,0.0
22380,55.0,52.0,360.0,3.0,0.0
22381,63.0,0.0,60.0,11.0,0.0
22382,87.0,52.0,120.0,0.0,0.0
22383,67.0,0.0,360.0,1.0,0.0
22384,46.0,0.0,360.0,14.0,0.0
22385,79.0,0.0,360.0,0.0,0.0
22386,34.0,0.0,360.0,3.0,0.0
22387,75.0,60.0,60.0,11.0,0.0
22388,34.0,0.0,360.0,15.0,0.0
22389,58.0,0.0,360.0,13.0,0.0
22390,73.0,0.0,60.0,12.0,0.0
22391,63.0,8.0,60.0,11.0,0.0
22392,70.0,0.0,60.0,12.0,0.0
22393,75.0,0.0,60.0,11.0,0.0
22394,70.0,0.0,60.0,12.0,0.0
22395,73.0,53.0,60.0,12.0,0.0
22396,86.0,7.0,90.0,0.0,0.0
22397,75.0,0.0,60.0,11.0,0.0
22398,63.0,0.0,60.0,11.0,0.0
22399,70.0,0.0,60.0,12.0,0.0
22400,73.0,0.0,60.0,12.0,0.0
22401,75.0,60.0,60.0,11.0,0.0
22402,63.0,0.0,60.0,11.0,0.0
22403,87.0,22.0,90.0,0.0,0.0
22404,73.0,38.0,60.0,12.0,0.0
22405,70.0,0.0,60.0,12.0,0.0
22406,63.0,0.0,60.0,11.0,0.0
22407,75.0,0.0,60.0,11.0,0.0
22408,75.0,0.0,60.0,11.0,0.0
22409,63.0,0.0,60.0,11.0,0.0
22410,70.0,8.0,60.0,12.0,0.0
22411,73.0,0.0,60.0,12.0,0.0
22412,32.0,0.0,60.0,3.0,0.0
22413,44.0,0.0,60.0,14.0,0.0
22414,87.0,15.0,90.0,0.0,0.0
22415,75.0,0.0,60.0,11.0,0.0
22416,63.0,8.0,60.0,11.0,0.0
22417,80.0,0.0,60.0,0.0,0.0
22418,32.0,0.0,60.0,15.0,0.0
22419,56.0,0.0,60.0,3.0,0.0
22420,68.0,30.0,60.0,1.0,0.0
22421,70.0,0.0,60.0,12.0,0.0
22422,73.0,0.0,60.0,12.0,0.0
22423,56.0,0.0,60.0,13.0,0.0
22424,70.0,0.0,60.0,1.0,0.0
22425,43.0,0.0,60.0,14.0,0.0
22426,75.0,0.0,60.0,11.0,0.0
22427,31.0,0.0,60.0,15.0,0.0
22428,55.0,0.0,60.0,13.0,0.0
22429,73.0,0.0,60.0,12.0,0.0
22430,70.0,60.0,60.0,12.0,0.0
22431,31.0,0.0,60.0,3.0,0.0
22432,58.0,0.0,60.0,3.0,0.0
22433,63.0,0.0,60.0,11.0,0.0
22434,82.0,0.0,60.0,0.0,0.0
22435,32.0,7.0,330.0,3.0,0.0
22436,56.0,0.0,450.0,3.0,0.0
22437,56.0,0.0,480.0,7.0,0.0
22438,44.0,0.0,330.0,14.0,0.0
22439,32.0,0.0,330.0,15.0,0.0
22440,68.0,0.0,60.0,12.0,0.0
22441,80.0,0.0,450.0,0.0,0.0
22442,75.0,0.0,60.0,11.0,0.0
22443,63.0,0.0,60.0,11.0,0.0
22444,68.0,7.0,450.0,1.0,0.0
22445,68.0,7.0,930.0,2.0,0.0
22446,72.0,0.0,930.0,2.0,0.0
22447,56.0,0.0,330.0,13.0,0.0
22448,72.0,60.0,60.0,12.0,0.0
22449,39.0,52.0,240.0,10.0,0.0
22450,51.0,0.0,930.0,4.0,0.0
22451,60.0,0.0,480.0,6.0,0.0
22452,87.0,52.0,120.0,0.0,0.0
22453,63.0,0.0,930.0,5.0,0.0
22454,51.0,52.0,480.0,8.0,0.0
22455,63.0,0.0,930.0,4.0,0.0
22456,75.0,0.0,930.0,5.0,0.0
22457,72.0,0.0,60.0,12.0,0.0
22458,63.0,0.0,60.0,11.0,0.0
22459,75.0,8.0,60.0,11.0,0.0
22460,68.0,0.0,60.0,12.0,0.0
22461,63.0,53.0,60.0,11.0,0.0
22462,68.0,0.0,60.0,12.0,0.0
22463,86.0,7.0,90.0,0.0,0.0
22464,72.0,0.0,60.0,12.0,0.0
22465,75.0,0.0,60.0,11.0,0.0
22466,72.0,8.0,60.0,12.0,0.0
22467,68.0,0.0,60.0,12.0,0.0
22468,63.0,0.0,60.0,11.0,0.0
22469,75.0,0.0,60.0,11.0,0.0
22470,87.0,15.0,90.0,0.0,0.0
22471,72.0,0.0,60.0,12.0,0.0
22472,68.0,0.0,60.0,12.0,0.0
22473,63.0,38.0,60.0,11.0,0.0
22474,75.0,0.0,60.0,11.0,0.0
22475,68.0,0.0,60.0,12.0,0.0
22476,72.0,0.0,60.0,12.0,0.0
22477,63.0,60.0,60.0,11.0,0.0
22478,75.0,0.0,60.0,11.0,0.0
22479,27.0,0.0,90.0,3.0,0.0
22480,68.0,38.0,60.0,12.0,0.0
22481,63.0,0.0,60.0,11.0,0.0
22482,87.0,15.0,90.0,0.0,0.0
22483,72.0,0.0,60.0,12.0,0.0
22484,75.0,0.0,60.0,11.0,0.0
22485,39.0,0.0,90.0,14.0,0.0
22486,51.0,0.0,90.0,13.0,0.0
22487,27.0,0.0,90.0,15.0,0.0
22488,63.0,8.0,60.0,11.0,0.0
22489,75.0,0.0,60.0,11.0,0.0
22490,72.0,0.0,60.0,12.0,0.0
22491,68.0,0.0,60.0,12.0,0.0
22492,56.0,0.0,360.0,3.0,0.0
22493,75.0,0.0,60.0,11.0,0.0
22494,63.0,0.0,60.0,11.0,0.0
22495,72.0,0.0,60.0,12.0,0.0
22496,68.0,60.0,60.0,12.0,0.0
22497,48.0,0.0,360.0,14.0,0.0
22498,87.0,52.0,120.0,0.0,0.0
22499,68.0,0.0,360.0,1.0,0.0
22500,60.0,52.0,360.0,13.0,0.0
22501,36.0,0.0,360.0,3.0,0.0
22502,36.0,0.0,360.0,15.0,0.0
22503,80.0,0.0,360.0,0.0,0.0
22504,72.0,0.0,60.0,12.0,0.0
22505,68.0,0.0,60.0,12.0,0.0
22506,75.0,0.0,60.0,11.0,0.0
22507,63.0,8.0,60.0,11.0,0.0
22508,68.0,0.0,60.0,12.0,0.0
22509,75.0,0.0,60.0,11.0,0.0
22510,86.0,7.0,90.0,0.0,0.0
22511,72.0,0.0,60.0,12.0,0.0
22512,63.0,53.0,60.0,11.0,0.0
22513,75.0,0.0,60.0,11.0,0.0
22514,63.0,60.0,60.0,11.0,0.0
22515,68.0,0.0,60.0,12.0,0.0
22516,72.0,0.0,60.0,12.0,0.0
22517,87.0,22.0,90.0,0.0,0.0
22518,72.0,0.0,60.0,12.0,0.0
22519,68.0,0.0,60.0,12.0,0.0
22520,75.0,38.0,60.0,11.0,0.0
22521,63.0,0.0,60.0,11.0,0.0
22522,63.0,0.0,60.0,11.0,0.0
22523,75.0,8.0,60.0,11.0,0.0
22524,68.0,0.0,60.0,12.0,0.0
22525,72.0,0.0,60.0,12.0,0.0
22526,34.0,0.0,60.0,15.0,0.0
22527,34.0,0.0,60.0,3.0,0.0
22528,70.0,0.0,60.0,1.0,0.0
22529,46.0,0.0,60.0,14.0,0.0
22530,82.0,0.0,60.0,0.0,0.0
22531,58.0,30.0,60.0,3.0,0.0
22532,63.0,0.0,60.0,11.0,0.0
22533,75.0,0.0,60.0,11.0,0.0
22534,87.0,15.0,90.0,0.0,0.0
22535,72.0,0.0,60.0,12.0,0.0
22536,58.0,0.0,60.0,13.0,0.0
22537,68.0,8.0,60.0,12.0,0.0
22538,84.0,0.0,60.0,0.0,0.0
22539,44.0,0.0,60.0,14.0,0.0
22540,72.0,0.0,60.0,12.0,0.0
22541,68.0,0.0,60.0,12.0,0.0
22542,32.0,0.0,60.0,15.0,0.0
22543,60.0,68.0,60.0,3.0,0.0
22544,63.0,0.0,60.0,11.0,0.0
22545,32.0,0.0,60.0,3.0,0.0
22546,56.0,0.0,60.0,13.0,0.0
22547,75.0,0.0,60.0,11.0,0.0
22548,72.0,0.0,60.0,1.0,0.0
22549,70.0,0.0,90.0,1.0,0.0
22550,63.0,0.0,570.0,5.0,0.0
22551,75.0,0.0,570.0,5.0,0.0
22552,58.0,0.0,90.0,3.0,0.0
22553,67.0,15.0,90.0,2.0,0.0
22554,55.0,0.0,90.0,3.0,0.0
22555,58.0,0.0,240.0,6.0,0.0
22556,70.0,0.0,90.0,12.0,0.0
22557,70.0,0.0,90.0,2.0,0.0
22558,75.0,15.0,570.0,11.0,0.0
22559,51.0,0.0,570.0,4.0,0.0
22560,63.0,0.0,570.0,4.0,0.0
22561,39.0,0.0,90.0,15.0,0.0
22562,39.0,30.0,60.0,10.0,0.0
22563,51.0,0.0,240.0,8.0,0.0
22564,39.0,15.0,90.0,3.0,0.0
22565,55.0,0.0,240.0,7.0,0.0
22566,51.0,0.0,90.0,14.0,0.0
22567,55.0,0.0,90.0,13.0,0.0
22568,82.0,0.0,90.0,0.0,0.0
22569,39.0,60.0,60.0,10.0,0.0
22570,87.0,0.0,120.0,0.0,0.0
22571,67.0,0.0,210.0,1.0,0.0
22572,67.0,0.0,210.0,2.0,0.0
22573,75.0,15.0,450.0,1.0,0.0
22574,63.0,0.0,120.0,14.0,0.0
22575,55.0,15.0,210.0,13.0,0.0
22576,51.0,0.0,120.0,15.0,0.0
22577,39.0,60.0,60.0,10.0,0.0
22578,51.0,0.0,120.0,3.0,0.0
22579,63.0,0.0,120.0,3.0,0.0
22580,67.0,0.0,210.0,12.0,0.0
22581,39.0,60.0,60.0,10.0,0.0
22582,61.0,0.0,90.0,3.0,0.0
22583,61.0,0.0,90.0,14.0,0.0
22584,39.0,45.0,60.0,10.0,0.0
22585,49.0,0.0,90.0,15.0,0.0
22586,49.0,0.0,90.0,3.0,0.0
22587,39.0,60.0,60.0,10.0,0.0
22588,68.0,0.0,90.0,1.0,0.0
22589,39.0,30.0,60.0,10.0,0.0
22590,68.0,15.0,90.0,12.0,0.0
22591,56.0,0.0,90.0,13.0,0.0
22592,48.0,0.0,90.0,3.0,0.0
22593,60.0,0.0,90.0,3.0,0.0
22594,68.0,0.0,120.0,2.0,0.0
22595,48.0,0.0,90.0,15.0,0.0
22596,60.0,15.0,90.0,14.0,0.0
22597,39.0,90.0,60.0,10.0,0.0
22598,70.0,0.0,90.0,12.0,0.0
22599,70.0,0.0,90.0,1.0,0.0
22600,46.0,0.0,90.0,3.0,0.0
22601,39.0,120.0,120.0,10.0,0.0
22602,46.0,0.0,90.0,15.0,0.0
22603,70.0,0.0,90.0,2.0,0.0
22604,58.0,0.0,90.0,13.0,0.0
22605,58.0,0.0,90.0,14.0,0.0
22606,58.0,0.0,90.0,3.0,0.0
22607,75.0,0.0,120.0,11.0,0.0
22608,51.0,0.0,210.0,4.0,0.0
22609,63.0,0.0,210.0,4.0,0.0
22610,75.0,0.0,120.0,12.0,0.0
22611,60.0,0.0,120.0,14.0,0.0
22612,75.0,0.0,120.0,2.0,0.0
22613,63.0,0.0,120.0,13.0,0.0
22614,63.0,105.0,210.0,5.0,0.0
22615,87.0,0.0,450.0,0.0,0.0
22616,75.0,105.0,120.0,1.0,0.0
22617,39.0,0.0,120.0,10.0,0.0
22618,75.0,0.0,210.0,5.0,0.0
22619,48.0,0.0,120.0,3.0,0.0
22620,48.0,0.0,120.0,15.0,0.0
22621,60.0,0.0,120.0,3.0,0.0
22622,63.0,0.0,120.0,2.0,0.0
22623,46.0,0.0,90.0,3.0,0.0
22624,73.0,0.0,90.0,12.0,0.0
22625,46.0,0.0,90.0,15.0,0.0
22626,73.0,0.0,90.0,1.0,0.0
22627,85.0,0.0,90.0,0.0,0.0
22628,58.0,0.0,90.0,3.0,0.0
22629,73.0,0.0,90.0,11.0,0.0
22630,58.0,0.0,90.0,14.0,0.0
22631,73.0,0.0,90.0,2.0,0.0
22632,61.0,0.0,90.0,13.0,0.0
22633,61.0,0.0,90.0,2.0,0.0
22634,39.0,90.0,120.0,10.0,0.0
22635,60.0,0.0,90.0,13.0,0.0
22636,84.0,0.0,90.0,0.0,0.0
22637,75.0,0.0,90.0,5.0,0.0
22638,72.0,0.0,90.0,1.0,0.0
22639,63.0,0.0,90.0,5.0,0.0
22640,44.0,15.0,90.0,15.0,0.0
22641,44.0,0.0,90.0,3.0,0.0
22642,72.0,0.0,90.0,12.0,0.0
22643,56.0,0.0,90.0,14.0,0.0
22644,60.0,0.0,90.0,2.0,0.0
22645,56.0,0.0,90.0,3.0,0.0
22646,63.0,15.0,90.0,4.0,0.0
22647,51.0,0.0,90.0,4.0,0.0
22648,72.0,0.0,90.0,2.0,0.0
22649,72.0,0.0,90.0,11.0,0.0
22650,70.0,15.0,90.0,2.0,0.0
22651,63.0,0.0,90.0,4.0,0.0
22652,70.0,0.0,90.0,12.0,0.0
22653,43.0,0.0,90.0,15.0,0.0
22654,39.0,120.0,120.0,10.0,0.0
22655,70.0,0.0,90.0,1.0,0.0
22656,55.0,0.0,90.0,3.0,0.0
22657,82.0,0.0,90.0,0.0,0.0
22658,70.0,0.0,90.0,11.0,0.0
22659,58.0,0.0,90.0,13.0,0.0
22660,43.0,0.0,90.0,3.0,0.0
22661,55.0,0.0,90.0,14.0,0.0
22662,75.0,15.0,90.0,5.0,0.0
22663,51.0,0.0,90.0,4.0,0.0
22664,63.0,0.0,90.0,5.0,0.0
22665,58.0,0.0,90.0,2.0,0.0
22666,72.0,0.0,120.0,12.0,0.0
22667,56.0,0.0,120.0,3.0,0.0
22668,72.0,0.0,120.0,2.0,0.0
22669,84.0,0.0,120.0,0.0,0.0
22670,72.0,0.0,120.0,11.0,0.0
22671,44.0,0.0,120.0,15.0,0.0
22672,72.0,0.0,120.0,1.0,0.0
22673,51.0,0.0,210.0,4.0,0.0
22674,63.0,0.0,210.0,4.0,0.0
22675,75.0,105.0,210.0,5.0,0.0
22676,60.0,105.0,120.0,13.0,0.0
22677,63.0,0.0,210.0,5.0,0.0
22678,87.0,0.0,210.0,0.0,0.0
22679,60.0,0.0,120.0,2.0,0.0
22680,56.0,0.0,120.0,14.0,0.0
22681,44.0,0.0,120.0,3.0,0.0
22682,39.0,0.0,120.0,10.0,0.0
22683,43.0,0.0,90.0,3.0,0.0
22684,55.0,0.0,90.0,14.0,0.0
22685,58.0,0.0,90.0,13.0,0.0
22686,70.0,0.0,90.0,1.0,0.0
22687,43.0,0.0,90.0,15.0,0.0
22688,70.0,0.0,90.0,11.0,0.0
22689,55.0,0.0,90.0,3.0,0.0
22690,70.0,0.0,90.0,12.0,0.0
22691,70.0,0.0,90.0,2.0,0.0
22692,58.0,0.0,90.0,2.0,0.0
22693,82.0,0.0,90.0,0.0,0.0
22694,56.0,15.0,90.0,2.0,0.0
22695,68.0,0.0,90.0,12.0,0.0
22696,56.0,0.0,90.0,13.0,0.0
22697,53.0,0.0,90.0,14.0,0.0
22698,80.0,0.0,90.0,0.0,0.0
22699,63.0,0.0,90.0,4.0,0.0
22700,39.0,90.0,120.0,10.0,0.0
22701,87.0,0.0,90.0,0.0,0.0
22702,51.0,0.0,90.0,4.0,0.0
22703,41.0,0.0,90.0,3.0,0.0
22704,63.0,0.0,90.0,5.0,0.0
22705,68.0,0.0,90.0,11.0,0.0
22706,75.0,15.0,90.0,5.0,0.0
22707,53.0,0.0,90.0,3.0,0.0
22708,41.0,0.0,90.0,15.0,0.0
22709,68.0,0.0,90.0,2.0,0.0
22710,68.0,0.0,90.0,1.0,0.0
22711,67.0,0.0,90.0,2.0,0.0
22712,55.0,0.0,90.0,2.0,0.0
22713,39.0,120.0,120.0,10.0,0.0
22714,67.0,0.0,90.0,1.0,0.0
22715,63.0,0.0,90.0,4.0,0.0
22716,55.0,0.0,90.0,13.0,0.0
22717,51.0,15.0,90.0,4.0,0.0
22718,39.0,0.0,90.0,3.0,0.0
22719,39.0,15.0,90.0,15.0,0.0
22720,51.0,0.0,90.0,14.0,0.0
22721,75.0,0.0,90.0,5.0,0.0
22722,63.0,0.0,90.0,5.0,0.0
22723,67.0,0.0,90.0,12.0,0.0
22724,79.0,0.0,90.0,0.0,0.0
22725,87.0,0.0,90.0,0.0,0.0
22726,51.0,0.0,90.0,3.0,0.0
22727,67.0,0.0,90.0,11.0,0.0
22728,63.0,0.0,120.0,2.0,0.0
22729,58.0,0.0,210.0,4.0,0.0
22730,67.0,0.0,120.0,2.0,0.0
22731,51.0,0.0,120.0,14.0,0.0
22732,75.0,0.0,120.0,11.0,0.0
22733,51.0,0.0,120.0,3.0,0.0
22734,63.0,0.0,120.0,13.0,0.0
22735,67.0,0.0,120.0,12.0,0.0
22736,79.0,105.0,120.0,0.0,0.0
22737,87.0,0.0,120.0,0.0,0.0
22738,39.0,0.0,120.0,15.0,0.0
22739,39.0,0.0,120.0,3.0,0.0
22740,75.0,0.0,120.0,1.0,0.0
22741,79.0,0.0,120.0,1.0,0.0
22742,70.0,0.0,210.0,5.0,0.0
22743,39.0,0.0,120.0,10.0,0.0
22744,68.0,0.0,90.0,2.0,0.0
22745,58.0,0.0,90.0,13.0,0.0
22746,53.0,0.0,90.0,3.0,0.0
22747,62.0,0.0,90.0,2.0,0.0
22748,53.0,0.0,90.0,14.0,0.0
22749,41.0,0.0,90.0,3.0,0.0
22750,86.0,0.0,90.0,0.0,0.0
22751,74.0,105.0,90.0,11.0,0.0
22752,68.0,0.0,90.0,12.0,0.0
22753,41.0,0.0,90.0,15.0,0.0
22754,80.0,0.0,90.0,1.0,0.0
22755,74.0,0.0,90.0,1.0,0.0
22756,80.0,0.0,90.0,0.0,0.0
22757,86.0,0.0,90.0,0.0,0.0
22758,80.0,0.0,90.0,0.0,0.0
22759,34.0,0.0,90.0,3.0,0.0
22760,80.0,0.0,90.0,11.0,0.0
22761,46.0,0.0,90.0,3.0,0.0
22762,62.0,0.0,90.0,2.0,0.0
22763,68.0,15.0,90.0,2.0,0.0
22764,58.0,0.0,90.0,4.0,0.0
22765,70.0,105.0,90.0,5.0,0.0
22766,62.0,0.0,90.0,12.0,0.0
22767,65.0,0.0,90.0,13.0,0.0
22768,46.0,0.0,90.0,14.0,0.0
22769,34.0,0.0,90.0,15.0,0.0
22770,74.0,0.0,90.0,1.0,0.0
22771,80.0,0.0,90.0,1.0,0.0
22772,67.0,0.0,90.0,2.0,0.0
22773,63.0,0.0,240.0,13.0,0.0
22774,39.0,105.0,240.0,3.0,0.0
22775,79.0,0.0,240.0,11.0,0.0
22776,63.0,0.0,240.0,12.0,0.0
22777,63.0,0.0,240.0,6.0,0.0
22778,70.0,0.0,240.0,5.0,0.0
22779,51.0,0.0,240.0,8.0,0.0
22780,39.0,0.0,240.0,15.0,0.0
22781,63.0,0.0,240.0,5.0,0.0
22782,51.0,0.0,240.0,14.0,0.0
22783,51.0,0.0,240.0,4.0,0.0
22784,63.0,0.0,90.0,2.0,0.0
22785,39.0,0.0,240.0,10.0,0.0
22786,58.0,0.0,240.0,4.0,0.0
22787,51.0,0.0,240.0,3.0,0.0
22788,58.0,0.0,240.0,7.0,0.0
22789,79.0,0.0,90.0,0.0,0.0
22790,75.0,150.0,90.0,1.0,0.0
22791,79.0,0.0,90.0,1.0,0.0
22792,87.0,0.0,90.0,0.0,0.0
22793,75.0,0.0,120.0,1.0,0.0
22794,75.0,0.0,120.0,0.0,0.0
22795,63.0,0.0,120.0,2.0,0.0
22796,63.0,0.0,120.0,1.0,0.0
22797,62.0,0.0,90.0,1.0,0.0
22798,74.0,0.0,90.0,0.0,0.0
22799,74.0,0.0,90.0,1.0,0.0
22800,62.0,105.0,90.0,2.0,0.0
22801,80.0,150.0,90.0,0.0,0.0
22802,68.0,0.0,90.0,1.0,0.0
22803,80.0,0.0,90.0,1.0,0.0
22804,68.0,0.0,90.0,2.0,0.0
22805,67.0,120.0,120.0,2.0,0.0
22806,79.0,0.0,120.0,0.0,0.0
22807,79.0,0.0,120.0,1.0,0.0
22808,67.0,0.0,120.0,1.0,0.0
22809,63.0,0.0,120.0,12.0,0.0
22810,51.0,105.0,120.0,13.0,0.0
22811,63.0,0.0,120.0,11.0,0.0
22812,62.0,0.0,90.0,11.0,0.0
22813,62.0,0.0,90.0,12.0,0.0
22814,50.0,105.0,90.0,13.0,0.0
22815,68.0,150.0,90.0,11.0,0.0
22816,68.0,0.0,90.0,12.0,0.0
22817,56.0,0.0,90.0,13.0,0.0
22818,67.0,0.0,120.0,11.0,0.0
22819,67.0,120.0,120.0,12.0,0.0
22820,55.0,0.0,120.0,13.0,0.0
22821,39.0,0.0,120.0,15.0,0.0
22822,39.0,0.0,120.0,3.0,0.0
22823,51.0,105.0,120.0,14.0,0.0
22824,37.0,0.0,90.0,15.0,0.0
22825,49.0,105.0,90.0,14.0,0.0
22826,37.0,0.0,90.0,3.0,0.0
22827,46.0,120.0,90.0,3.0,0.0
22828,58.0,0.0,90.0,14.0,0.0
22829,46.0,0.0,90.0,15.0,0.0
22830,37.0,0.0,90.0,15.0,0.0
22831,49.0,0.0,90.0,14.0,0.0
22832,37.0,150.0,90.0,3.0,0.0
22833,36.0,80.0,120.0,3.0,0.0
22834,36.0,0.0,120.0,15.0,0.0
22835,48.0,0.0,120.0,14.0,0.0
22836,34.0,0.0,90.0,15.0,0.0
22837,70.0,25.0,90.0,11.0,0.0
22838,34.0,0.0,90.0,3.0,0.0
22839,58.0,0.0,90.0,12.0,0.0
22840,55.0,0.0,90.0,13.0,0.0
22841,46.0,55.0,90.0,14.0,0.0
22842,72.0,50.0,90.0,11.0,0.0
22843,56.0,0.0,90.0,13.0,0.0
22844,60.0,0.0,90.0,12.0,0.0
22845,55.0,18.0,90.0,14.0,0.0
22846,43.0,0.0,90.0,15.0,0.0
22847,43.0,0.0,90.0,3.0,0.0
22848,58.0,80.0,60.0,13.0,0.0
22849,61.0,0.0,60.0,12.0,0.0
22850,73.0,0.0,60.0,11.0,0.0
22851,68.0,0.0,240.0,5.0,0.0
22852,56.0,0.0,240.0,5.0,0.0
22853,44.0,0.0,240.0,14.0,0.0
22854,51.0,0.0,60.0,13.0,0.0
22855,48.0,80.0,60.0,13.0,0.0
22856,75.0,0.0,180.0,11.0,0.0
22857,32.0,68.0,240.0,15.0,0.0
22858,32.0,0.0,240.0,3.0,0.0
22859,75.0,0.0,180.0,1.0,0.0
22860,44.0,0.0,240.0,10.0,0.0
22861,63.0,48.0,180.0,12.0,0.0
22862,51.0,0.0,180.0,3.0,0.0
22863,48.0,0.0,180.0,3.0,0.0
22864,63.0,0.0,180.0,2.0,0.0
22865,60.0,0.0,180.0,2.0,0.0
22866,56.0,0.0,240.0,4.0,0.0
22867,44.0,0.0,240.0,4.0,0.0
22868,72.0,0.0,180.0,1.0,0.0
22869,44.0,0.0,60.0,13.0,0.0
22870,48.0,32.0,60.0,13.0,0.0
22871,48.0,0.0,60.0,13.0,0.0
22872,51.0,12.0,60.0,13.0,0.0
22873,60.0,0.0,90.0,12.0,0.0
22874,72.0,68.0,90.0,11.0,0.0
22875,51.0,12.0,60.0,13.0,0.0
22876,48.0,0.0,60.0,13.0,0.0
22877,48.0,0.0,60.0,13.0,0.0
22878,51.0,12.0,60.0,13.0,0.0
22879,73.0,0.0,90.0,11.0,0.0
22880,61.0,68.0,90.0,12.0,0.0
22881,75.0,80.0,60.0,11.0,0.0
22882,51.0,0.0,60.0,13.0,0.0
22883,63.0,0.0,60.0,12.0,0.0
22884,48.0,0.0,60.0,13.0,0.0
22885,61.0,0.0,180.0,2.0,0.0
22886,32.0,0.0,240.0,3.0,0.0
22887,73.0,0.0,180.0,1.0,0.0
22888,65.0,48.0,180.0,2.0,0.0
22889,68.0,68.0,240.0,5.0,0.0
22890,56.0,0.0,240.0,5.0,0.0
22891,77.0,0.0,180.0,11.0,0.0
22892,44.0,0.0,240.0,10.0,0.0
22893,77.0,0.0,180.0,1.0,0.0
22894,44.0,0.0,240.0,14.0,0.0
22895,53.0,0.0,180.0,3.0,0.0
22896,49.0,0.0,60.0,13.0,0.0
22897,44.0,80.0,60.0,13.0,0.0
22898,44.0,0.0,240.0,4.0,0.0
22899,56.0,0.0,240.0,4.0,0.0
22900,32.0,0.0,240.0,15.0,0.0
22901,49.0,0.0,180.0,3.0,0.0
22902,65.0,0.0,180.0,12.0,0.0
22903,53.0,0.0,60.0,13.0,0.0
22904,49.0,32.0,60.0,13.0,0.0
22905,53.0,12.0,60.0,13.0,0.0
22906,49.0,0.0,60.0,13.0,0.0
22907,65.0,0.0,90.0,12.0,0.0
22908,77.0,68.0,90.0,11.0,0.0
22909,53.0,0.0,60.0,13.0,0.0
22910,49.0,12.0,60.0,13.0,0.0
22911,53.0,12.0,60.0,13.0,0.0
22912,67.0,68.0,90.0,12.0,0.0
22913,79.0,0.0,90.0,11.0,0.0
22914,49.0,0.0,60.0,13.0,0.0
22915,80.0,80.0,60.0,11.0,0.0
22916,68.0,0.0,60.0,12.0,0.0
22917,49.0,0.0,60.0,13.0,0.0
22918,53.0,0.0,60.0,13.0,0.0
22919,72.0,0.0,720.0,1.0,0.0
22920,60.0,0.0,720.0,2.0,0.0
22921,32.0,0.0,210.0,15.0,0.0
22922,32.0,0.0,210.0,3.0,0.0
22923,44.0,68.0,240.0,10.0,0.0
22924,48.0,0.0,60.0,13.0,0.0
22925,75.0,0.0,690.0,11.0,0.0
22926,44.0,3.0,210.0,14.0,0.0
22927,63.0,0.0,690.0,12.0,0.0
22928,56.0,0.0,720.0,4.0,0.0
22929,44.0,0.0,720.0,4.0,0.0
22930,75.0,0.0,720.0,1.0,0.0
22931,44.0,80.0,60.0,13.0,0.0
22932,63.0,80.0,720.0,2.0,0.0
22933,56.0,0.0,720.0,5.0,0.0
22934,68.0,0.0,720.0,5.0,0.0
22935,51.0,0.0,720.0,3.0,0.0
22936,48.0,0.0,720.0,3.0,0.0
22937,51.0,77.0,60.0,13.0,0.0
22938,48.0,0.0,60.0,13.0,0.0
22939,51.0,0.0,60.0,13.0,0.0
22940,48.0,12.0,60.0,13.0,0.0
22941,27.0,0.0,60.0,15.0,0.0
22942,39.0,0.0,60.0,14.0,0.0
22943,51.0,80.0,60.0,13.0,0.0
22944,27.0,0.0,60.0,3.0,0.0
22945,48.0,0.0,60.0,13.0,0.0
22946,29.0,0.0,60.0,3.0,0.0
22947,48.0,0.0,60.0,13.0,0.0
22948,51.0,0.0,60.0,13.0,0.0
22949,41.0,80.0,60.0,14.0,0.0
22950,29.0,0.0,60.0,15.0,0.0
22951,48.0,0.0,60.0,13.0,0.0
22952,51.0,0.0,60.0,13.0,0.0
22953,31.0,0.0,60.0,3.0,0.0
22954,31.0,0.0,60.0,15.0,0.0
22955,43.0,237.0,60.0,14.0,0.0
22956,48.0,0.0,210.0,13.0,0.0
22957,44.0,0.0,210.0,14.0,0.0
22958,32.0,0.0,240.0,15.0,0.0
22959,51.0,15.0,210.0,13.0,0.0
22960,32.0,0.0,240.0,3.0,0.0
22961,75.0,80.0,90.0,11.0,0.0
22962,56.0,0.0,240.0,14.0,0.0
22963,63.0,95.0,1410.0,13.0,0.0
22964,60.0,0.0,90.0,12.0,0.0
22965,73.0,0.0,90.0,11.0,0.0
22966,61.0,80.0,90.0,12.0,0.0
22967,63.0,240.0,90.0,12.0,0.0
22968,72.0,0.0,90.0,11.0,0.0
22969,61.0,80.0,240.0,12.0,0.0
22970,55.0,0.0,480.0,14.0,0.0
22971,70.0,0.0,240.0,11.0,0.0
22972,73.0,0.0,90.0,11.0,0.0
22973,58.0,80.0,90.0,12.0,0.0
22974,60.0,80.0,90.0,12.0,0.0
22975,72.0,0.0,90.0,11.0,0.0
22976,70.0,0.0,90.0,11.0,0.0
22977,61.0,240.0,90.0,12.0,0.0
22978,68.0,80.0,240.0,11.0,0.0
22979,56.0,180.0,480.0,14.0,0.0
22980,60.0,0.0,240.0,12.0,0.0
22981,56.0,0.0,90.0,12.0,0.0
22982,72.0,80.0,90.0,11.0,0.0
22983,58.0,0.0,90.0,12.0,0.0
22984,70.0,68.0,90.0,11.0,0.0
22985,68.0,0.0,60.0,11.0,0.0
22986,60.0,12.0,60.0,12.0,0.0
22987,61.0,45.0,180.0,12.0,0.0
22988,67.0,0.0,180.0,11.0,0.0
22989,58.0,0.0,210.0,14.0,0.0
22990,43.0,0.0,90.0,15.0,0.0
22991,67.0,0.0,90.0,11.0,0.0
22992,55.0,0.0,90.0,13.0,0.0
22993,55.0,80.0,90.0,12.0,0.0
22994,43.0,0.0,90.0,3.0,0.0
22995,55.0,0.0,90.0,14.0,0.0
22996,44.0,0.0,90.0,15.0,0.0
22997,68.0,0.0,90.0,11.0,0.0
22998,56.0,0.0,90.0,13.0,0.0
22999,56.0,0.0,90.0,12.0,0.0
23000,44.0,0.0,90.0,3.0,0.0
23001,56.0,68.0,90.0,14.0,0.0
23002,46.0,237.0,60.0,3.0,0.0
23003,46.0,0.0,60.0,15.0,0.0
23004,58.0,0.0,60.0,13.0,0.0
23005,70.0,0.0,60.0,11.0,0.0
23006,58.0,0.0,60.0,14.0,0.0
23007,58.0,0.0,60.0,12.0,0.0
23008,51.0,0.0,210.0,12.0,0.0
23009,63.0,0.0,210.0,11.0,0.0
23010,51.0,0.0,210.0,13.0,0.0
23011,51.0,83.0,210.0,14.0,0.0
23012,39.0,0.0,210.0,15.0,0.0
23013,39.0,0.0,210.0,3.0,0.0
23014,49.0,0.0,60.0,13.0,0.0
23015,37.0,12.0,60.0,15.0,0.0
23016,39.0,68.0,90.0,10.0,0.0
23017,67.0,0.0,60.0,0.0,0.0
23018,82.0,0.0,60.0,0.0,0.0
23019,67.0,0.0,60.0,1.0,0.0
23020,70.0,0.0,60.0,1.0,0.0
23021,46.0,0.0,60.0,3.0,0.0
23022,43.0,0.0,60.0,3.0,0.0
23023,58.0,0.0,60.0,2.0,0.0
23024,55.0,0.0,60.0,2.0,0.0
23025,58.0,0.0,60.0,11.0,0.0
23026,70.0,0.0,60.0,0.0,0.0
23027,51.0,0.0,60.0,5.0,0.0
23028,63.0,0.0,60.0,5.0,0.0
23029,37.0,0.0,60.0,3.0,0.0
23030,67.0,0.0,60.0,12.0,0.0
23031,49.0,0.0,60.0,14.0,0.0
23032,51.0,0.0,60.0,4.0,0.0
23033,63.0,0.0,60.0,4.0,0.0
23034,36.0,0.0,60.0,3.0,0.0
23035,63.0,12.0,60.0,4.0,0.0
23036,51.0,0.0,60.0,4.0,0.0
23037,48.0,0.0,60.0,13.0,0.0
23038,48.0,0.0,60.0,3.0,0.0
23039,44.0,0.0,60.0,3.0,0.0
23040,60.0,0.0,60.0,2.0,0.0
23041,56.0,0.0,60.0,2.0,0.0
23042,60.0,0.0,60.0,11.0,0.0
23043,48.0,0.0,60.0,14.0,0.0
23044,39.0,68.0,90.0,10.0,0.0
23045,63.0,0.0,60.0,5.0,0.0
23046,51.0,0.0,60.0,5.0,0.0
23047,68.0,0.0,60.0,1.0,0.0
23048,72.0,0.0,60.0,1.0,0.0
23049,68.0,0.0,60.0,12.0,0.0
23050,72.0,0.0,60.0,0.0,0.0
23051,68.0,0.0,60.0,0.0,0.0
23052,84.0,0.0,60.0,0.0,0.0
23053,36.0,0.0,60.0,15.0,0.0
23054,51.0,0.0,60.0,4.0,0.0
23055,34.0,0.0,60.0,3.0,0.0
23056,39.0,68.0,90.0,10.0,0.0
23057,46.0,0.0,60.0,14.0,0.0
23058,70.0,0.0,60.0,12.0,0.0
23059,61.0,0.0,60.0,11.0,0.0
23060,63.0,0.0,60.0,4.0,0.0
23061,70.0,0.0,60.0,1.0,0.0
23062,51.0,0.0,60.0,5.0,0.0
23063,46.0,0.0,60.0,13.0,0.0
23064,73.0,0.0,60.0,0.0,0.0
23065,70.0,0.0,60.0,0.0,0.0
23066,85.0,0.0,60.0,0.0,0.0
23067,34.0,0.0,60.0,15.0,0.0
23068,49.0,12.0,60.0,3.0,0.0
23069,63.0,0.0,60.0,5.0,0.0
23070,73.0,0.0,60.0,1.0,0.0
23071,46.0,0.0,60.0,3.0,0.0
23072,61.0,0.0,60.0,2.0,0.0
23073,58.0,0.0,60.0,2.0,0.0
23074,75.0,3.0,210.0,1.0,0.0
23075,51.0,0.0,210.0,3.0,0.0
23076,80.0,0.0,240.0,11.0,0.0
23077,72.0,0.0,240.0,11.0,0.0
23078,68.0,80.0,60.0,12.0,0.0
23079,63.0,0.0,240.0,11.0,0.0
23080,75.0,0.0,210.0,0.0,0.0
23081,72.0,0.0,210.0,0.0,0.0
23082,60.0,68.0,240.0,7.0,0.0
23083,32.0,0.0,240.0,15.0,0.0
23084,44.0,0.0,240.0,10.0,0.0
23085,44.0,0.0,60.0,13.0,0.0
23086,60.0,0.0,210.0,2.0,0.0
23087,63.0,0.0,210.0,2.0,0.0
23088,72.0,0.0,210.0,1.0,0.0
23089,87.0,0.0,210.0,0.0,0.0
23090,48.0,0.0,210.0,3.0,0.0
23091,56.0,0.0,240.0,8.0,0.0
23092,44.0,0.0,210.0,4.0,0.0
23093,44.0,0.0,240.0,14.0,0.0
23094,68.0,0.0,210.0,5.0,0.0
23095,56.0,0.0,210.0,5.0,0.0
23096,63.0,0.0,240.0,6.0,0.0
23097,32.0,0.0,240.0,3.0,0.0
23098,56.0,0.0,210.0,4.0,0.0
23099,56.0,77.0,60.0,13.0,0.0
23100,56.0,0.0,60.0,12.0,0.0
23101,68.0,12.0,60.0,12.0,0.0
23102,56.0,0.0,60.0,13.0,0.0
23103,68.0,0.0,60.0,12.0,0.0
23104,44.0,68.0,90.0,10.0,0.0
23105,44.0,0.0,60.0,3.0,0.0
23106,56.0,0.0,60.0,4.0,0.0
23107,44.0,0.0,60.0,4.0,0.0
23108,68.0,0.0,60.0,1.0,0.0
23109,72.0,0.0,60.0,1.0,0.0
23110,56.0,0.0,60.0,5.0,0.0
23111,84.0,0.0,60.0,0.0,0.0
23112,60.0,12.0,60.0,2.0,0.0
23113,56.0,0.0,60.0,2.0,0.0
23114,56.0,0.0,60.0,13.0,0.0
23115,68.0,0.0,60.0,5.0,0.0
23116,48.0,0.0,60.0,3.0,0.0
23117,72.0,0.0,60.0,0.0,0.0
23118,68.0,0.0,60.0,0.0,0.0
23119,68.0,0.0,60.0,5.0,0.0
23120,58.0,0.0,60.0,2.0,0.0
23121,56.0,0.0,60.0,4.0,0.0
23122,56.0,0.0,60.0,5.0,0.0
23123,55.0,12.0,60.0,13.0,0.0
23124,61.0,0.0,60.0,2.0,0.0
23125,44.0,0.0,60.0,4.0,0.0
23126,73.0,0.0,60.0,0.0,0.0
23127,67.0,0.0,60.0,12.0,0.0
23128,70.0,0.0,60.0,0.0,0.0
23129,44.0,68.0,90.0,10.0,0.0
23130,46.0,0.0,60.0,3.0,0.0
23131,49.0,0.0,60.0,3.0,0.0
23132,85.0,0.0,60.0,0.0,0.0
23133,70.0,0.0,60.0,1.0,0.0
23134,73.0,0.0,60.0,1.0,0.0
23135,56.0,0.0,60.0,5.0,0.0
23136,44.0,68.0,90.0,10.0,0.0
23137,51.0,0.0,60.0,3.0,0.0
23138,75.0,0.0,60.0,1.0,0.0
23139,72.0,0.0,60.0,1.0,0.0
23140,87.0,0.0,60.0,0.0,0.0
23141,48.0,0.0,60.0,3.0,0.0
23142,68.0,0.0,60.0,5.0,0.0
23143,66.0,0.0,60.0,12.0,0.0
23144,44.0,0.0,60.0,4.0,0.0
23145,72.0,0.0,60.0,0.0,0.0
23146,75.0,0.0,60.0,0.0,0.0
23147,56.0,0.0,60.0,4.0,0.0
23148,54.0,0.0,60.0,13.0,0.0
23149,63.0,0.0,60.0,2.0,0.0
23150,60.0,12.0,60.0,2.0,0.0
23151,73.0,3.0,210.0,0.0,0.0
23152,53.0,80.0,60.0,13.0,0.0
23153,77.0,0.0,210.0,0.0,0.0
23154,65.0,0.0,60.0,12.0,0.0
23155,32.0,0.0,240.0,15.0,0.0
23156,56.0,0.0,240.0,8.0,0.0
23157,61.0,0.0,240.0,7.0,0.0
23158,77.0,0.0,210.0,1.0,0.0
23159,44.0,0.0,210.0,4.0,0.0
23160,65.0,68.0,240.0,11.0,0.0
23161,73.0,0.0,240.0,11.0,0.0
23162,80.0,0.0,240.0,11.0,0.0
23163,53.0,0.0,210.0,3.0,0.0
23164,49.0,0.0,210.0,3.0,0.0
23165,61.0,0.0,210.0,2.0,0.0
23166,65.0,0.0,210.0,2.0,0.0
23167,32.0,0.0,240.0,3.0,0.0
23168,56.0,0.0,210.0,4.0,0.0
23169,89.0,0.0,210.0,0.0,0.0
23170,56.0,0.0,210.0,5.0,0.0
23171,68.0,0.0,210.0,5.0,0.0
23172,65.0,0.0,240.0,6.0,0.0
23173,44.0,0.0,240.0,10.0,0.0
23174,44.0,0.0,240.0,14.0,0.0
23175,73.0,0.0,210.0,1.0,0.0
23176,53.0,77.0,60.0,13.0,0.0
23177,65.0,0.0,60.0,12.0,0.0
23178,53.0,12.0,60.0,13.0,0.0
23179,65.0,0.0,60.0,12.0,0.0
23180,44.0,0.0,60.0,4.0,0.0
23181,56.0,0.0,60.0,5.0,0.0
23182,68.0,12.0,60.0,5.0,0.0
23183,77.0,0.0,60.0,0.0,0.0
23184,73.0,0.0,60.0,0.0,0.0
23185,56.0,0.0,60.0,4.0,0.0
23186,53.0,0.0,60.0,13.0,0.0
23187,89.0,0.0,60.0,0.0,0.0
23188,77.0,0.0,60.0,1.0,0.0
23189,65.0,0.0,60.0,2.0,0.0
23190,65.0,0.0,60.0,12.0,0.0
23191,61.0,0.0,60.0,2.0,0.0
23192,49.0,0.0,60.0,3.0,0.0
23193,44.0,68.0,90.0,10.0,0.0
23194,73.0,0.0,60.0,1.0,0.0
23195,53.0,0.0,60.0,3.0,0.0
23196,79.0,0.0,60.0,0.0,0.0
23197,75.0,0.0,60.0,0.0,0.0
23198,63.0,0.0,60.0,2.0,0.0
23199,51.0,0.0,60.0,13.0,0.0
23200,67.0,0.0,60.0,2.0,0.0
23201,68.0,0.0,60.0,5.0,0.0
23202,51.0,0.0,60.0,3.0,0.0
23203,75.0,0.0,60.0,1.0,0.0
23204,79.0,0.0,60.0,1.0,0.0
23205,56.0,0.0,60.0,4.0,0.0
23206,44.0,12.0,60.0,4.0,0.0
23207,63.0,0.0,60.0,12.0,0.0
23208,56.0,0.0,60.0,5.0,0.0
23209,55.0,0.0,60.0,3.0,0.0
23210,91.0,0.0,60.0,0.0,0.0
23211,44.0,68.0,90.0,10.0,0.0
23212,56.0,0.0,60.0,4.0,0.0
23213,92.0,0.0,60.0,0.0,0.0
23214,49.0,0.0,60.0,13.0,0.0
23215,68.0,0.0,60.0,2.0,0.0
23216,65.0,0.0,60.0,2.0,0.0
23217,44.0,0.0,60.0,4.0,0.0
23218,80.0,0.0,60.0,1.0,0.0
23219,77.0,0.0,60.0,1.0,0.0
23220,44.0,68.0,90.0,10.0,0.0
23221,56.0,0.0,60.0,3.0,0.0
23222,61.0,12.0,60.0,12.0,0.0
23223,68.0,0.0,60.0,5.0,0.0
23224,80.0,0.0,60.0,0.0,0.0
23225,77.0,0.0,60.0,0.0,0.0
23226,56.0,0.0,60.0,5.0,0.0
23227,53.0,0.0,60.0,3.0,0.0
23228,56.0,0.0,720.0,4.0,0.0
23229,44.0,0.0,720.0,4.0,0.0
23230,80.0,0.0,210.0,11.0,0.0
23231,51.0,0.0,720.0,3.0,0.0
23232,32.0,3.0,210.0,15.0,0.0
23233,60.0,0.0,720.0,7.0,0.0
23234,56.0,0.0,720.0,8.0,0.0
23235,56.0,0.0,720.0,5.0,0.0
23236,68.0,0.0,720.0,5.0,0.0
23237,60.0,0.0,60.0,12.0,0.0
23238,48.0,0.0,720.0,3.0,0.0
23239,63.0,0.0,720.0,2.0,0.0
23240,44.0,68.0,240.0,10.0,0.0
23241,60.0,0.0,720.0,2.0,0.0
23242,87.0,0.0,720.0,0.0,0.0
23243,75.0,0.0,720.0,1.0,0.0
23244,48.0,80.0,60.0,13.0,0.0
23245,72.0,0.0,720.0,1.0,0.0
23246,32.0,0.0,210.0,3.0,0.0
23247,44.0,0.0,210.0,14.0,0.0
23248,75.0,0.0,720.0,0.0,0.0
23249,72.0,0.0,720.0,0.0,0.0
23250,72.0,0.0,210.0,11.0,0.0
23251,63.0,0.0,720.0,6.0,0.0
23252,63.0,0.0,210.0,11.0,0.0
23253,51.0,0.0,60.0,13.0,0.0
23254,51.0,77.0,60.0,12.0,0.0
23255,51.0,0.0,60.0,12.0,0.0
23256,51.0,12.0,60.0,13.0,0.0
23257,63.0,0.0,60.0,11.0,0.0
23258,27.0,0.0,60.0,3.0,0.0
23259,51.0,0.0,60.0,13.0,0.0
23260,51.0,80.0,60.0,12.0,0.0
23261,39.0,0.0,60.0,14.0,0.0
23262,27.0,0.0,60.0,15.0,0.0
23263,41.0,0.0,60.0,14.0,0.0
23264,53.0,0.0,60.0,13.0,0.0
23265,29.0,80.0,60.0,15.0,0.0
23266,65.0,0.0,60.0,11.0,0.0
23267,29.0,0.0,60.0,3.0,0.0
23268,53.0,0.0,60.0,12.0,0.0
23269,31.0,0.0,60.0,15.0,0.0
23270,67.0,0.0,60.0,11.0,0.0
23271,55.0,237.0,60.0,13.0,0.0
23272,31.0,0.0,60.0,3.0,0.0
23273,55.0,0.0,60.0,12.0,0.0
23274,43.0,0.0,60.0,14.0,0.0
23275,56.0,0.0,210.0,13.0,0.0
23276,44.0,0.0,210.0,14.0,0.0
23277,68.0,15.0,210.0,11.0,0.0
23278,56.0,0.0,210.0,12.0,0.0
23279,32.0,80.0,240.0,3.0,0.0
23280,32.0,0.0,240.0,15.0,0.0
23281,60.0,0.0,90.0,12.0,0.0
23282,56.0,240.0,240.0,14.0,0.0
23283,63.0,0.0,1410.0,13.0,0.0
23284,75.0,80.0,90.0,11.0,0.0
23285,61.0,0.0,90.0,12.0,0.0
23286,73.0,80.0,90.0,11.0,0.0
23287,63.0,0.0,90.0,12.0,0.0
23288,72.0,0.0,90.0,11.0,0.0
23289,55.0,0.0,480.0,14.0,0.0
23290,61.0,0.0,240.0,12.0,0.0
23291,70.0,80.0,240.0,11.0,0.0
23292,58.0,0.0,90.0,12.0,0.0
23293,73.0,80.0,90.0,11.0,0.0
23294,60.0,80.0,90.0,12.0,0.0
23295,72.0,0.0,90.0,11.0,0.0
23296,61.0,240.0,90.0,12.0,0.0
23297,70.0,0.0,90.0,11.0,0.0
23298,56.0,0.0,480.0,14.0,0.0
23299,68.0,0.0,240.0,11.0,0.0
23300,60.0,80.0,240.0,12.0,0.0
23301,63.0,0.0,240.0,3.0,0.0
23302,60.0,225.0,240.0,3.0,0.0
23303,72.0,0.0,90.0,11.0,0.0
23304,56.0,80.0,90.0,12.0,0.0
23305,58.0,68.0,90.0,12.0,0.0
23306,70.0,0.0,90.0,11.0,0.0
23307,60.0,12.0,60.0,12.0,0.0
23308,68.0,0.0,60.0,11.0,0.0
23309,58.0,15.0,210.0,14.0,0.0
23310,58.0,0.0,480.0,3.0,0.0
23311,67.0,68.0,240.0,11.0,0.0
23312,61.0,0.0,210.0,12.0,0.0
23313,61.0,0.0,480.0,3.0,0.0
23314,27.0,0.0,60.0,3.0,0.0
23315,63.0,0.0,60.0,12.0,0.0
23316,51.0,12.0,60.0,5.0,0.0
23317,27.0,0.0,60.0,15.0,0.0
23318,39.0,68.0,90.0,10.0,0.0
23319,39.0,0.0,60.0,14.0,0.0
23320,58.0,0.0,60.0,4.0,0.0
23321,51.0,0.0,60.0,4.0,0.0
23322,63.0,0.0,60.0,5.0,0.0
23323,51.0,0.0,60.0,13.0,0.0
23324,29.0,0.0,60.0,15.0,0.0
23325,51.0,0.0,60.0,4.0,0.0
23326,39.0,68.0,90.0,10.0,0.0
23327,41.0,0.0,60.0,14.0,0.0
23328,53.0,0.0,60.0,13.0,0.0
23329,58.0,0.0,60.0,4.0,0.0
23330,51.0,12.0,60.0,5.0,0.0
23331,29.0,0.0,60.0,3.0,0.0
23332,65.0,0.0,60.0,12.0,0.0
23333,63.0,0.0,60.0,5.0,0.0
23334,31.0,0.0,60.0,3.0,0.0
23335,67.0,0.0,60.0,12.0,0.0
23336,31.0,0.0,60.0,15.0,0.0
23337,51.0,0.0,60.0,5.0,0.0
23338,58.0,0.0,60.0,4.0,0.0
23339,43.0,0.0,60.0,14.0,0.0
23340,39.0,225.0,90.0,10.0,0.0
23341,63.0,12.0,60.0,5.0,0.0
23342,51.0,0.0,60.0,4.0,0.0
23343,55.0,0.0,60.0,13.0,0.0
23344,44.0,0.0,210.0,14.0,0.0
23345,56.0,0.0,240.0,4.0,0.0
23346,56.0,0.0,240.0,5.0,0.0
23347,68.0,0.0,240.0,5.0,0.0
23348,60.0,0.0,240.0,4.0,0.0
23349,68.0,15.0,210.0,12.0,0.0
23350,32.0,80.0,240.0,15.0,0.0
23351,44.0,0.0,240.0,10.0,0.0
23352,32.0,0.0,240.0,3.0,0.0
23353,56.0,0.0,210.0,13.0,0.0
23354,56.0,0.0,240.0,3.0,0.0
23355,60.0,0.0,240.0,3.0,0.0
23356,58.0,0.0,240.0,14.0,0.0
23357,77.0,80.0,90.0,11.0,0.0
23358,77.0,0.0,90.0,2.0,0.0
23359,61.0,0.0,90.0,12.0,0.0
23360,65.0,15.0,1410.0,13.0,0.0
23361,63.0,80.0,90.0,12.0,0.0
23362,75.0,0.0,90.0,2.0,0.0
23363,75.0,0.0,90.0,11.0,0.0
23364,73.0,0.0,90.0,11.0,0.0
23365,73.0,0.0,90.0,2.0,0.0
23366,65.0,240.0,90.0,12.0,0.0
23367,63.0,0.0,240.0,12.0,0.0
23368,72.0,80.0,240.0,11.0,0.0
23369,72.0,0.0,240.0,2.0,0.0
23370,57.0,0.0,480.0,14.0,0.0
23371,75.0,80.0,90.0,2.0,0.0
23372,60.0,0.0,90.0,12.0,0.0
23373,75.0,0.0,90.0,11.0,0.0
23374,73.0,80.0,90.0,11.0,0.0
23375,73.0,0.0,90.0,2.0,0.0
23376,61.0,0.0,90.0,12.0,0.0
23377,72.0,0.0,90.0,11.0,0.0
23378,72.0,240.0,90.0,2.0,0.0
23379,63.0,0.0,90.0,12.0,0.0
23380,61.0,0.0,240.0,12.0,0.0
23381,70.0,0.0,240.0,11.0,0.0
23382,58.0,0.0,480.0,14.0,0.0
23383,70.0,80.0,240.0,2.0,0.0
23384,58.0,0.0,90.0,12.0,0.0
23385,73.0,80.0,90.0,11.0,0.0
23386,61.0,225.0,240.0,3.0,0.0
23387,73.0,0.0,90.0,2.0,0.0
23388,65.0,0.0,240.0,3.0,0.0
23389,72.0,0.0,90.0,11.0,0.0
23390,60.0,0.0,90.0,12.0,0.0
23391,72.0,68.0,90.0,2.0,0.0
23392,61.0,0.0,60.0,12.0,0.0
23393,70.0,0.0,60.0,11.0,0.0
23394,70.0,12.0,60.0,2.0,0.0
23395,63.0,225.0,480.0,3.0,0.0
23396,60.0,0.0,210.0,14.0,0.0
23397,69.0,68.0,240.0,11.0,0.0
23398,60.0,0.0,480.0,3.0,0.0
23399,69.0,0.0,240.0,2.0,0.0
23400,63.0,0.0,210.0,12.0,0.0
23401,53.0,80.0,60.0,13.0,0.0
23402,29.0,0.0,60.0,15.0,0.0
23403,41.0,0.0,60.0,14.0,0.0
23404,53.0,0.0,60.0,12.0,0.0
23405,29.0,0.0,60.0,3.0,0.0
23406,43.0,80.0,60.0,14.0,0.0
23407,55.0,0.0,60.0,13.0,0.0
23408,31.0,0.0,60.0,15.0,0.0
23409,55.0,0.0,60.0,12.0,0.0
23410,31.0,0.0,60.0,3.0,0.0
23411,45.0,0.0,60.0,14.0,0.0
23412,33.0,0.0,60.0,3.0,0.0
23413,33.0,12.0,60.0,15.0,0.0
23414,57.0,0.0,60.0,12.0,0.0
23415,57.0,0.0,60.0,13.0,0.0
23416,58.0,68.0,240.0,12.0,0.0
23417,34.0,0.0,210.0,15.0,0.0
23418,46.0,0.0,210.0,14.0,0.0
23419,58.0,0.0,210.0,13.0,0.0
23420,34.0,0.0,240.0,3.0,0.0
23421,58.0,15.0,210.0,3.0,0.0
23422,61.0,0.0,210.0,3.0,0.0
23423,49.0,0.0,240.0,14.0,0.0
23424,56.0,0.0,1200.0,4.0,0.0
23425,56.0,0.0,60.0,2.0,0.0
23426,80.0,0.0,90.0,11.0,0.0
23427,37.0,0.0,240.0,15.0,0.0
23428,80.0,68.0,90.0,1.0,0.0
23429,44.0,12.0,60.0,3.0,0.0
23430,44.0,52.0,1200.0,4.0,0.0
23431,68.0,0.0,90.0,13.0,0.0
23432,48.0,12.0,60.0,3.0,0.0
23433,78.0,68.0,90.0,1.0,0.0
23434,78.0,0.0,90.0,11.0,0.0
23435,60.0,0.0,60.0,2.0,0.0
23436,66.0,0.0,90.0,13.0,0.0
23437,77.0,225.0,90.0,11.0,0.0
23438,49.0,12.0,60.0,3.0,0.0
23439,65.0,0.0,90.0,13.0,0.0
23440,77.0,0.0,90.0,1.0,0.0
23441,61.0,0.0,60.0,2.0,0.0
23442,63.0,0.0,210.0,2.0,0.0
23443,51.0,15.0,210.0,3.0,0.0
23444,48.0,0.0,480.0,14.0,0.0
23445,75.0,0.0,240.0,1.0,0.0
23446,36.0,0.0,480.0,15.0,0.0
23447,75.0,68.0,240.0,11.0,0.0
23448,63.0,0.0,240.0,13.0,0.0
23449,78.0,0.0,90.0,11.0,0.0
23450,66.0,0.0,90.0,13.0,0.0
23451,78.0,68.0,90.0,1.0,0.0
23452,56.0,0.0,60.0,2.0,0.0
23453,44.0,12.0,60.0,3.0,0.0
23454,49.0,0.0,60.0,3.0,0.0
23455,77.0,68.0,90.0,11.0,0.0
23456,77.0,0.0,90.0,1.0,0.0
23457,65.0,0.0,90.0,13.0,0.0
23458,61.0,12.0,60.0,2.0,0.0
23459,75.0,0.0,90.0,11.0,0.0
23460,51.0,0.0,60.0,3.0,0.0
23461,75.0,0.0,90.0,1.0,0.0
23462,63.0,12.0,60.0,2.0,0.0
23463,63.0,225.0,90.0,13.0,0.0
23464,53.0,0.0,210.0,3.0,0.0
23465,65.0,15.0,210.0,2.0,0.0
23466,73.0,68.0,240.0,11.0,0.0
23467,37.0,0.0,450.0,15.0,0.0
23468,49.0,3.0,450.0,14.0,0.0
23469,73.0,0.0,240.0,1.0,0.0
23470,61.0,0.0,240.0,13.0,0.0
23471,44.0,12.0,60.0,3.0,0.0
23472,80.0,0.0,90.0,0.0,0.0
23473,77.0,0.0,90.0,1.0,0.0
23474,77.0,68.0,90.0,11.0,0.0
23475,68.0,0.0,90.0,12.0,0.0
23476,65.0,0.0,90.0,13.0,0.0
23477,56.0,0.0,60.0,2.0,0.0
23478,75.0,65.0,90.0,1.0,0.0
23479,78.0,0.0,90.0,0.0,0.0
23480,75.0,0.0,90.0,11.0,0.0
23481,66.0,0.0,90.0,12.0,0.0
23482,63.0,12.0,60.0,2.0,0.0
23483,63.0,0.0,90.0,13.0,0.0
23484,51.0,0.0,60.0,3.0,0.0
23485,61.0,0.0,60.0,13.0,0.0
23486,65.0,0.0,60.0,2.0,0.0
23487,73.0,0.0,60.0,1.0,0.0
23488,73.0,12.0,60.0,11.0,0.0
23489,53.0,0.0,60.0,3.0,0.0
23490,77.0,0.0,60.0,0.0,0.0
23491,65.0,0.0,60.0,12.0,0.0
23492,66.0,7.0,1890.0,2.0,0.0
23493,75.0,0.0,930.0,0.0,0.0
23494,32.0,7.0,90.0,15.0,0.0
23495,72.0,0.0,1890.0,1.0,0.0
23496,72.0,53.0,60.0,11.0,0.0
23497,44.0,0.0,90.0,14.0,0.0
23498,60.0,0.0,60.0,13.0,0.0
23499,56.0,0.0,1890.0,4.0,0.0
23500,44.0,0.0,1890.0,4.0,0.0
23501,63.0,0.0,60.0,12.0,0.0
23502,54.0,0.0,1890.0,3.0,0.0
23503,75.0,60.0,60.0,11.0,0.0
23504,60.0,0.0,60.0,13.0,0.0
23505,63.0,0.0,60.0,13.0,0.0
23506,72.0,0.0,60.0,12.0,0.0
23507,75.0,53.0,60.0,11.0,0.0
23508,72.0,0.0,60.0,12.0,0.0
23509,60.0,0.0,60.0,13.0,0.0
23510,44.0,0.0,90.0,15.0,0.0
23511,63.0,0.0,60.0,13.0,0.0
23512,56.0,7.0,90.0,14.0,0.0
23513,75.0,60.0,60.0,11.0,0.0
23514,72.0,0.0,60.0,12.0,0.0
23515,60.0,0.0,60.0,13.0,0.0
23516,63.0,0.0,60.0,13.0,0.0
23517,44.0,7.0,90.0,15.0,0.0
23518,75.0,53.0,60.0,11.0,0.0
23519,63.0,0.0,60.0,13.0,0.0
23520,60.0,0.0,60.0,13.0,0.0
23521,72.0,0.0,60.0,12.0,0.0
23522,56.0,0.0,90.0,14.0,0.0
23523,75.0,0.0,60.0,11.0,0.0
23524,60.0,0.0,60.0,13.0,0.0
23525,63.0,60.0,60.0,13.0,0.0
23526,72.0,0.0,60.0,12.0,0.0
23527,72.0,0.0,60.0,12.0,0.0
23528,56.0,0.0,90.0,14.0,0.0
23529,63.0,0.0,60.0,13.0,0.0
23530,60.0,0.0,60.0,13.0,0.0
23531,75.0,53.0,60.0,11.0,0.0
23532,44.0,7.0,90.0,15.0,0.0
23533,75.0,60.0,60.0,11.0,0.0
23534,63.0,0.0,60.0,13.0,0.0
23535,72.0,0.0,60.0,12.0,0.0
23536,60.0,0.0,60.0,13.0,0.0
23537,56.0,7.0,90.0,14.0,0.0
23538,60.0,0.0,60.0,13.0,0.0
23539,63.0,53.0,60.0,13.0,0.0
23540,75.0,0.0,60.0,11.0,0.0
23541,44.0,0.0,90.0,15.0,0.0
23542,72.0,0.0,60.0,12.0,0.0
23543,63.0,0.0,60.0,13.0,0.0
23544,75.0,0.0,60.0,11.0,0.0
23545,72.0,60.0,60.0,12.0,0.0
23546,60.0,0.0,60.0,13.0,0.0
23547,75.0,0.0,60.0,11.0,0.0
23548,56.0,0.0,90.0,14.0,0.0
23549,60.0,0.0,60.0,13.0,0.0
23550,44.0,7.0,90.0,15.0,0.0
23551,63.0,53.0,60.0,13.0,0.0
23552,72.0,0.0,60.0,12.0,0.0
23553,63.0,0.0,60.0,13.0,0.0
23554,60.0,0.0,60.0,13.0,0.0
23555,75.0,0.0,60.0,11.0,0.0
23556,72.0,60.0,60.0,12.0,0.0
23557,72.0,53.0,60.0,12.0,0.0
23558,56.0,7.0,90.0,14.0,0.0
23559,44.0,0.0,90.0,15.0,0.0
23560,75.0,0.0,60.0,11.0,0.0
23561,60.0,0.0,60.0,13.0,0.0
23562,63.0,0.0,60.0,13.0,0.0
23563,75.0,60.0,60.0,11.0,0.0
23564,60.0,0.0,60.0,13.0,0.0
23565,63.0,0.0,60.0,13.0,0.0
23566,72.0,0.0,60.0,12.0,0.0
23567,72.0,0.0,60.0,12.0,0.0
23568,63.0,0.0,60.0,13.0,0.0
23569,44.0,7.0,90.0,15.0,0.0
23570,60.0,0.0,60.0,13.0,0.0
23571,56.0,0.0,90.0,14.0,0.0
23572,75.0,53.0,60.0,11.0,0.0
23573,72.0,0.0,60.0,12.0,0.0
23574,60.0,0.0,60.0,13.0,0.0
23575,63.0,0.0,60.0,13.0,0.0
23576,75.0,60.0,60.0,11.0,0.0
23577,76.0,0.0,60.0,11.0,0.0
23578,60.0,0.0,60.0,13.0,0.0
23579,44.0,0.0,90.0,15.0,0.0
23580,64.0,53.0,60.0,13.0,0.0
23581,72.0,0.0,60.0,12.0,0.0
23582,76.0,0.0,930.0,0.0,0.0
23583,56.0,7.0,90.0,14.0,0.0
23584,76.0,0.0,60.0,11.0,0.0
23585,64.0,0.0,60.0,13.0,0.0
23586,60.0,60.0,60.0,13.0,0.0
23587,72.0,0.0,60.0,12.0,0.0
23588,56.0,0.0,90.0,14.0,0.0
23589,64.0,0.0,60.0,13.0,0.0
23590,60.0,0.0,60.0,13.0,0.0
23591,72.0,53.0,60.0,12.0,0.0
23592,44.0,7.0,90.0,15.0,0.0
23593,76.0,0.0,60.0,11.0,0.0
23594,76.0,0.0,60.0,11.0,0.0
23595,64.0,0.0,60.0,13.0,0.0
23596,60.0,60.0,60.0,13.0,0.0
23597,72.0,0.0,60.0,12.0,0.0
23598,44.0,0.0,90.0,15.0,0.0
23599,60.0,0.0,60.0,13.0,0.0
23600,76.0,53.0,60.0,11.0,0.0
23601,56.0,7.0,90.0,14.0,0.0
23602,64.0,0.0,60.0,13.0,0.0
23603,72.0,0.0,60.0,12.0,0.0
23604,76.0,0.0,60.0,11.0,0.0
23605,60.0,0.0,60.0,13.0,0.0
23606,64.0,60.0,60.0,13.0,0.0
23607,72.0,0.0,60.0,12.0,0.0
23608,44.0,0.0,90.0,15.0,0.0
23609,76.0,0.0,60.0,11.0,0.0
23610,72.0,0.0,60.0,12.0,0.0
23611,56.0,7.0,90.0,14.0,0.0
23612,60.0,0.0,60.0,13.0,0.0
23613,64.0,53.0,60.0,13.0,0.0
23614,76.0,0.0,60.0,11.0,0.0
23615,60.0,0.0,60.0,13.0,0.0
23616,72.0,60.0,60.0,12.0,0.0
23617,64.0,0.0,60.0,13.0,0.0
23618,64.0,0.0,60.0,13.0,0.0
23619,60.0,53.0,60.0,13.0,0.0
23620,72.0,0.0,60.0,12.0,0.0
23621,56.0,0.0,90.0,14.0,0.0
23622,44.0,7.0,90.0,15.0,0.0
23623,76.0,0.0,60.0,11.0,0.0
23624,72.0,60.0,60.0,12.0,0.0
23625,60.0,0.0,60.0,13.0,0.0
23626,64.0,0.0,60.0,13.0,0.0
23627,76.0,0.0,60.0,11.0,0.0
23628,56.0,0.0,90.0,14.0,0.0
23629,44.0,7.0,90.0,15.0,0.0
23630,64.0,0.0,60.0,13.0,0.0
23631,76.0,0.0,60.0,11.0,0.0
23632,72.0,53.0,60.0,12.0,0.0
23633,60.0,0.0,60.0,13.0,0.0
23634,60.0,0.0,60.0,13.0,0.0
23635,76.0,0.0,60.0,11.0,0.0
23636,72.0,60.0,60.0,12.0,0.0
23637,64.0,0.0,60.0,13.0,0.0
23638,64.0,0.0,60.0,13.0,0.0
23639,60.0,0.0,60.0,13.0,0.0
23640,44.0,0.0,90.0,15.0,0.0
23641,76.0,0.0,60.0,11.0,0.0
23642,72.0,53.0,60.0,12.0,0.0
23643,56.0,7.0,90.0,14.0,0.0
23644,72.0,0.0,60.0,12.0,0.0
23645,64.0,0.0,60.0,13.0,0.0
23646,60.0,0.0,60.0,13.0,0.0
23647,76.0,60.0,60.0,11.0,0.0
23648,56.0,0.0,90.0,14.0,0.0
23649,64.0,0.0,60.0,13.0,0.0
23650,44.0,0.0,90.0,15.0,0.0
23651,72.0,0.0,60.0,12.0,0.0
23652,60.0,53.0,60.0,13.0,0.0
23653,76.0,0.0,60.0,11.0,0.0
23654,60.0,60.0,60.0,13.0,0.0
23655,76.0,0.0,60.0,11.0,0.0
23656,72.0,0.0,60.0,12.0,0.0
23657,64.0,0.0,60.0,13.0,0.0
23658,65.0,0.0,1890.0,6.0,0.0
23659,61.0,8.0,60.0,13.0,0.0
23660,73.0,0.0,480.0,0.0,0.0
23661,53.0,0.0,480.0,3.0,0.0
23662,49.0,0.0,480.0,3.0,0.0
23663,37.0,0.0,480.0,15.0,0.0
23664,77.0,0.0,60.0,11.0,0.0
23665,49.0,0.0,1890.0,8.0,0.0
23666,49.0,52.0,480.0,14.0,0.0
23667,61.0,0.0,1890.0,7.0,0.0
23668,44.0,0.0,480.0,4.0,0.0
23669,56.0,0.0,480.0,4.0,0.0
23670,68.0,0.0,480.0,5.0,0.0
23671,56.0,0.0,480.0,5.0,0.0
23672,37.0,0.0,480.0,3.0,0.0
23673,65.0,0.0,60.0,12.0,0.0
23674,73.0,0.0,60.0,12.0,0.0
23675,77.0,0.0,480.0,0.0,0.0
23676,77.0,0.0,480.0,1.0,0.0
23677,44.0,52.0,60.0,10.0,0.0
23678,65.0,0.0,60.0,13.0,0.0
23679,65.0,0.0,480.0,2.0,0.0
23680,73.0,0.0,480.0,1.0,0.0
23681,61.0,0.0,480.0,2.0,0.0
23682,44.0,52.0,60.0,10.0,0.0
23683,53.0,0.0,60.0,13.0,0.0
23684,49.0,0.0,60.0,13.0,0.0
23685,77.0,0.0,60.0,11.0,0.0
23686,73.0,8.0,60.0,12.0,0.0
23687,65.0,0.0,60.0,12.0,0.0
23688,73.0,0.0,60.0,12.0,0.0
23689,44.0,52.0,60.0,10.0,0.0
23690,49.0,0.0,60.0,13.0,0.0
23691,77.0,8.0,60.0,11.0,0.0
23692,65.0,0.0,60.0,12.0,0.0
23693,53.0,0.0,60.0,13.0,0.0
23694,73.0,0.0,60.0,12.0,0.0
23695,65.0,0.0,60.0,12.0,0.0
23696,49.0,0.0,60.0,13.0,0.0
23697,44.0,52.0,60.0,10.0,0.0
23698,77.0,0.0,60.0,11.0,0.0
23699,53.0,8.0,60.0,13.0,0.0
23700,77.0,8.0,60.0,11.0,0.0
23701,49.0,0.0,60.0,13.0,0.0
23702,53.0,0.0,60.0,13.0,0.0
23703,44.0,52.0,60.0,10.0,0.0
23704,65.0,0.0,60.0,12.0,0.0
23705,73.0,0.0,60.0,12.0,0.0
23706,73.0,0.0,60.0,12.0,0.0
23707,65.0,0.0,60.0,12.0,0.0
23708,53.0,0.0,60.0,13.0,0.0
23709,49.0,8.0,60.0,13.0,0.0
23710,44.0,52.0,60.0,10.0,0.0
23711,77.0,0.0,60.0,11.0,0.0
23712,44.0,52.0,60.0,10.0,0.0
23713,49.0,0.0,60.0,13.0,0.0
23714,53.0,0.0,60.0,13.0,0.0
23715,73.0,8.0,60.0,12.0,0.0
23716,77.0,0.0,60.0,11.0,0.0
23717,65.0,0.0,60.0,12.0,0.0
23718,44.0,0.0,60.0,10.0,0.0
23719,73.0,8.0,60.0,12.0,0.0
23720,77.0,0.0,60.0,11.0,0.0
23721,65.0,0.0,60.0,12.0,0.0
23722,49.0,0.0,60.0,13.0,0.0
23723,53.0,0.0,60.0,13.0,0.0
23724,77.0,53.0,60.0,11.0,0.0
23725,73.0,0.0,60.0,12.0,0.0
23726,65.0,0.0,60.0,12.0,0.0
23727,56.0,0.0,90.0,4.0,0.0
23728,77.0,0.0,90.0,0.0,0.0
23729,53.0,0.0,60.0,13.0,0.0
23730,49.0,0.0,60.0,13.0,0.0
23731,44.0,0.0,90.0,4.0,0.0
23732,73.0,0.0,90.0,0.0,0.0
23733,37.0,0.0,90.0,3.0,0.0
23734,49.0,0.0,90.0,14.0,0.0
23735,68.0,7.0,90.0,5.0,0.0
23736,37.0,0.0,90.0,15.0,0.0
23737,49.0,0.0,90.0,3.0,0.0
23738,44.0,52.0,120.0,10.0,0.0
23739,77.0,0.0,90.0,1.0,0.0
23740,73.0,0.0,90.0,1.0,0.0
23741,61.0,0.0,90.0,2.0,0.0
23742,65.0,0.0,90.0,2.0,0.0
23743,53.0,0.0,90.0,3.0,0.0
23744,56.0,0.0,90.0,5.0,0.0
23745,65.0,0.0,60.0,12.0,0.0
23746,73.0,0.0,60.0,12.0,0.0
23747,53.0,0.0,60.0,13.0,0.0
23748,53.0,0.0,60.0,11.0,0.0
23749,49.0,8.0,60.0,13.0,0.0
23750,73.0,0.0,60.0,12.0,0.0
23751,65.0,0.0,60.0,12.0,0.0
23752,49.0,53.0,60.0,13.0,0.0
23753,53.0,0.0,60.0,13.0,0.0
23754,54.0,0.0,60.0,11.0,0.0
23755,77.0,7.0,90.0,1.0,0.0
23756,44.0,0.0,90.0,4.0,0.0
23757,77.0,0.0,90.0,0.0,0.0
23758,73.0,0.0,90.0,0.0,0.0
23759,56.0,0.0,90.0,4.0,0.0
23760,56.0,0.0,90.0,5.0,0.0
23761,44.0,52.0,120.0,10.0,0.0
23762,37.0,0.0,90.0,15.0,0.0
23763,73.0,0.0,90.0,1.0,0.0
23764,37.0,0.0,90.0,3.0,0.0
23765,49.0,0.0,90.0,14.0,0.0
23766,53.0,0.0,90.0,3.0,0.0
23767,61.0,0.0,90.0,2.0,0.0
23768,65.0,0.0,90.0,2.0,0.0
23769,49.0,0.0,90.0,3.0,0.0
23770,68.0,0.0,90.0,5.0,0.0
23771,65.0,0.0,60.0,12.0,0.0
23772,49.0,0.0,60.0,13.0,0.0
23773,53.0,0.0,60.0,13.0,0.0
23774,56.0,0.0,60.0,11.0,0.0
23775,73.0,8.0,60.0,12.0,0.0
23776,53.0,0.0,90.0,3.0,0.0
23777,77.0,0.0,90.0,0.0,0.0
23778,73.0,0.0,90.0,0.0,0.0
23779,73.0,0.0,60.0,12.0,0.0
23780,65.0,53.0,60.0,12.0,0.0
23781,37.0,7.0,90.0,3.0,0.0
23782,44.0,0.0,90.0,4.0,0.0
23783,37.0,0.0,90.0,15.0,0.0
23784,44.0,52.0,120.0,10.0,0.0
23785,68.0,0.0,90.0,5.0,0.0
23786,49.0,0.0,90.0,3.0,0.0
23787,49.0,0.0,90.0,14.0,0.0
23788,56.0,0.0,90.0,5.0,0.0
23789,73.0,0.0,90.0,1.0,0.0
23790,56.0,0.0,90.0,4.0,0.0
23791,65.0,0.0,90.0,2.0,0.0
23792,61.0,0.0,90.0,2.0,0.0
23793,77.0,0.0,90.0,1.0,0.0
23794,58.0,0.0,60.0,11.0,0.0
23795,53.0,0.0,60.0,13.0,0.0
23796,49.0,0.0,60.0,13.0,0.0
23797,53.0,0.0,60.0,13.0,0.0
23798,73.0,0.0,60.0,12.0,0.0
23799,65.0,8.0,60.0,12.0,0.0
23800,60.0,0.0,60.0,11.0,0.0
23801,49.0,0.0,60.0,13.0,0.0
23802,56.0,0.0,90.0,5.0,0.0
23803,49.0,0.0,90.0,14.0,0.0
23804,65.0,0.0,60.0,12.0,0.0
23805,65.0,0.0,90.0,2.0,0.0
23806,73.0,0.0,60.0,12.0,0.0
23807,61.0,0.0,90.0,2.0,0.0
23808,61.0,0.0,60.0,11.0,0.0
23809,77.0,0.0,90.0,1.0,0.0
23810,77.0,0.0,90.0,0.0,0.0
23811,37.0,0.0,90.0,3.0,0.0
23812,68.0,0.0,90.0,5.0,0.0
23813,44.0,0.0,90.0,4.0,0.0
23814,49.0,0.0,60.0,13.0,0.0
23815,56.0,0.0,90.0,4.0,0.0
23816,73.0,0.0,90.0,0.0,0.0
23817,37.0,7.0,90.0,15.0,0.0
23818,53.0,53.0,60.0,13.0,0.0
23819,44.0,52.0,120.0,10.0,0.0
23820,53.0,0.0,90.0,3.0,0.0
23821,73.0,0.0,90.0,1.0,0.0
23822,49.0,0.0,90.0,3.0,0.0
23823,63.0,0.0,60.0,11.0,0.0
23824,65.0,8.0,60.0,12.0,0.0
23825,73.0,0.0,60.0,12.0,0.0
23826,49.0,0.0,60.0,13.0,0.0
23827,53.0,0.0,60.0,13.0,0.0
23828,77.0,0.0,90.0,0.0,0.0
23829,49.0,0.0,60.0,13.0,0.0
23830,53.0,0.0,60.0,13.0,0.0
23831,37.0,0.0,90.0,3.0,0.0
23832,49.0,0.0,90.0,14.0,0.0
23833,73.0,0.0,90.0,1.0,0.0
23834,77.0,0.0,90.0,1.0,0.0
23835,65.0,0.0,90.0,2.0,0.0
23836,61.0,0.0,90.0,2.0,0.0
23837,56.0,0.0,90.0,4.0,0.0
23838,44.0,0.0,90.0,4.0,0.0
23839,37.0,0.0,90.0,15.0,0.0
23840,65.0,0.0,60.0,11.0,0.0
23841,44.0,52.0,120.0,10.0,0.0
23842,53.0,7.0,90.0,3.0,0.0
23843,49.0,0.0,90.0,3.0,0.0
23844,68.0,0.0,90.0,5.0,0.0
23845,73.0,0.0,90.0,0.0,0.0
23846,56.0,0.0,90.0,5.0,0.0
23847,73.0,0.0,60.0,12.0,0.0
23848,65.0,53.0,60.0,12.0,0.0
23849,44.0,0.0,60.0,13.0,0.0
23850,56.0,8.0,60.0,11.0,0.0
23851,53.0,0.0,60.0,12.0,0.0
23852,44.0,0.0,90.0,4.0,0.0
23853,77.0,0.0,90.0,0.0,0.0
23854,73.0,0.0,90.0,0.0,0.0
23855,68.0,0.0,90.0,5.0,0.0
23856,37.0,0.0,90.0,15.0,0.0
23857,56.0,0.0,90.0,5.0,0.0
23858,54.0,53.0,60.0,12.0,0.0
23859,46.0,0.0,60.0,13.0,0.0
23860,44.0,52.0,120.0,10.0,0.0
23861,58.0,0.0,60.0,11.0,0.0
23862,53.0,0.0,90.0,3.0,0.0
23863,49.0,0.0,90.0,3.0,0.0
23864,77.0,0.0,90.0,1.0,0.0
23865,49.0,7.0,90.0,14.0,0.0
23866,56.0,0.0,90.0,4.0,0.0
23867,73.0,0.0,90.0,1.0,0.0
23868,61.0,0.0,90.0,2.0,0.0
23869,37.0,0.0,90.0,3.0,0.0
23870,65.0,0.0,90.0,2.0,0.0
23871,60.0,0.0,60.0,11.0,0.0
23872,48.0,8.0,60.0,13.0,0.0
23873,56.0,0.0,60.0,12.0,0.0
23874,49.0,0.0,90.0,3.0,0.0
23875,49.0,0.0,90.0,14.0,0.0
23876,56.0,0.0,90.0,4.0,0.0
23877,65.0,0.0,90.0,2.0,0.0
23878,77.0,0.0,90.0,1.0,0.0
23879,61.0,0.0,60.0,11.0,0.0
23880,73.0,0.0,90.0,1.0,0.0
23881,61.0,7.0,90.0,2.0,0.0
23882,44.0,0.0,90.0,4.0,0.0
23883,37.0,0.0,90.0,3.0,0.0
23884,37.0,0.0,90.0,15.0,0.0
23885,53.0,0.0,90.0,3.0,0.0
23886,49.0,53.0,60.0,13.0,0.0
23887,68.0,0.0,90.0,5.0,0.0
23888,56.0,0.0,90.0,5.0,0.0
23889,73.0,0.0,90.0,0.0,0.0
23890,77.0,0.0,90.0,0.0,0.0
23891,44.0,52.0,120.0,10.0,0.0
23892,58.0,0.0,60.0,12.0,0.0
23893,60.0,0.0,60.0,12.0,0.0
23894,63.0,0.0,60.0,11.0,0.0
23895,51.0,8.0,60.0,13.0,0.0
23896,65.0,53.0,60.0,11.0,0.0
23897,44.0,52.0,120.0,10.0,0.0
23898,61.0,0.0,60.0,12.0,0.0
23899,77.0,0.0,90.0,0.0,0.0
23900,73.0,0.0,90.0,0.0,0.0
23901,49.0,0.0,90.0,3.0,0.0
23902,53.0,0.0,90.0,3.0,0.0
23903,68.0,0.0,90.0,5.0,0.0
23904,73.0,0.0,90.0,1.0,0.0
23905,49.0,0.0,90.0,14.0,0.0
23906,53.0,0.0,60.0,13.0,0.0
23907,37.0,0.0,90.0,15.0,0.0
23908,61.0,0.0,90.0,2.0,0.0
23909,65.0,0.0,90.0,2.0,0.0
23910,37.0,0.0,90.0,3.0,0.0
23911,77.0,0.0,90.0,1.0,0.0
23912,56.0,7.0,90.0,5.0,0.0
23913,56.0,0.0,90.0,4.0,0.0
23914,44.0,0.0,90.0,4.0,0.0
23915,54.0,0.0,60.0,13.0,0.0
23916,63.0,8.0,60.0,12.0,0.0
23917,66.0,0.0,60.0,11.0,0.0
23918,49.0,0.0,90.0,14.0,0.0
23919,56.0,0.0,90.0,5.0,0.0
23920,65.0,53.0,60.0,12.0,0.0
23921,73.0,0.0,90.0,1.0,0.0
23922,44.0,52.0,120.0,10.0,0.0
23923,37.0,0.0,90.0,3.0,0.0
23924,68.0,0.0,60.0,11.0,0.0
23925,56.0,0.0,60.0,13.0,0.0
23926,73.0,0.0,90.0,0.0,0.0
23927,37.0,0.0,90.0,15.0,0.0
23928,68.0,0.0,90.0,5.0,0.0
23929,56.0,0.0,90.0,4.0,0.0
23930,44.0,0.0,90.0,4.0,0.0
23931,77.0,0.0,90.0,0.0,0.0
23932,77.0,0.0,90.0,1.0,0.0
23933,65.0,0.0,90.0,2.0,0.0
23934,49.0,7.0,90.0,3.0,0.0
23935,53.0,0.0,90.0,3.0,0.0
23936,61.0,0.0,90.0,2.0,0.0
23937,53.0,0.0,60.0,13.0,0.0
23938,49.0,0.0,60.0,13.0,0.0
23939,61.0,8.0,60.0,12.0,0.0
23940,65.0,0.0,60.0,11.0,0.0
23941,77.0,0.0,90.0,0.0,0.0
23942,51.0,0.0,60.0,13.0,0.0
23943,54.0,0.0,60.0,13.0,0.0
23944,37.0,0.0,90.0,3.0,0.0
23945,61.0,0.0,90.0,2.0,0.0
23946,63.0,0.0,60.0,12.0,0.0
23947,49.0,0.0,90.0,3.0,0.0
23948,53.0,0.0,90.0,3.0,0.0
23949,68.0,7.0,90.0,5.0,0.0
23950,44.0,0.0,90.0,4.0,0.0
23951,56.0,0.0,90.0,4.0,0.0
23952,73.0,0.0,90.0,1.0,0.0
23953,77.0,0.0,90.0,1.0,0.0
23954,56.0,0.0,90.0,5.0,0.0
23955,85.0,0.0,90.0,0.0,0.0
23956,65.0,0.0,90.0,2.0,0.0
23957,37.0,0.0,90.0,15.0,0.0
23958,66.0,53.0,60.0,11.0,0.0
23959,44.0,52.0,120.0,10.0,0.0
23960,49.0,0.0,90.0,14.0,0.0
23961,53.0,8.0,60.0,13.0,0.0
23962,65.0,0.0,60.0,12.0,0.0
23963,56.0,0.0,60.0,13.0,0.0
23964,68.0,0.0,60.0,11.0,0.0
23965,49.0,0.0,90.0,14.0,0.0
23966,37.0,0.0,90.0,3.0,0.0
23967,37.0,0.0,90.0,15.0,0.0
23968,56.0,0.0,90.0,5.0,0.0
23969,53.0,7.0,90.0,3.0,0.0
23970,58.0,0.0,60.0,13.0,0.0
23971,54.0,53.0,60.0,13.0,0.0
23972,73.0,0.0,90.0,1.0,0.0
23973,77.0,0.0,90.0,1.0,0.0
23974,68.0,0.0,90.0,5.0,0.0
23975,49.0,0.0,90.0,3.0,0.0
23976,44.0,0.0,90.0,4.0,0.0
23977,70.0,0.0,60.0,11.0,0.0
23978,66.0,0.0,60.0,12.0,0.0
23979,56.0,0.0,90.0,4.0,0.0
23980,77.0,0.0,90.0,0.0,0.0
23981,44.0,52.0,120.0,10.0,0.0
23982,85.0,0.0,90.0,0.0,0.0
23983,65.0,0.0,90.0,2.0,0.0
23984,61.0,0.0,90.0,2.0,0.0
23985,56.0,0.0,60.0,13.0,0.0
23986,72.0,0.0,60.0,11.0,0.0
23987,68.0,8.0,60.0,12.0,0.0
23988,60.0,0.0,60.0,13.0,0.0
23989,73.0,0.0,90.0,1.0,0.0
23990,77.0,0.0,90.0,1.0,0.0
23991,44.0,0.0,90.0,4.0,0.0
23992,56.0,0.0,90.0,4.0,0.0
23993,73.0,0.0,60.0,11.0,0.0
23994,49.0,0.0,90.0,3.0,0.0
23995,68.0,0.0,90.0,5.0,0.0
23996,37.0,0.0,90.0,15.0,0.0
23997,77.0,0.0,90.0,0.0,0.0
23998,37.0,0.0,90.0,3.0,0.0
23999,49.0,7.0,90.0,14.0,0.0
24000,44.0,52.0,120.0,10.0,0.0
24001,56.0,0.0,90.0,5.0,0.0
24002,61.0,0.0,90.0,2.0,0.0
24003,65.0,0.0,90.0,2.0,0.0
24004,53.0,0.0,90.0,3.0,0.0
24005,70.0,0.0,60.0,12.0,0.0
24006,85.0,0.0,90.0,0.0,0.0
24007,58.0,0.0,60.0,13.0,0.0
24008,61.0,53.0,60.0,13.0,0.0
24009,72.0,0.0,60.0,12.0,0.0
24010,63.0,8.0,60.0,13.0,0.0
24011,60.0,0.0,60.0,13.0,0.0
24012,75.0,0.0,60.0,11.0,0.0
24013,65.0,0.0,210.0,2.0,0.0
24014,77.0,0.0,60.0,11.0,0.0
24015,61.0,0.0,60.0,13.0,0.0
24016,65.0,53.0,60.0,13.0,0.0
24017,73.0,0.0,210.0,1.0,0.0
24018,77.0,0.0,210.0,1.0,0.0
24019,61.0,0.0,210.0,2.0,0.0
24020,49.0,52.0,240.0,8.0,0.0
24021,65.0,0.0,240.0,6.0,0.0
24022,44.0,0.0,240.0,10.0,0.0
24023,61.0,0.0,240.0,7.0,0.0
24024,37.0,0.0,90.0,3.0,0.0
24025,73.0,0.0,60.0,12.0,0.0
24026,56.0,0.0,210.0,5.0,0.0
24027,68.0,0.0,210.0,5.0,0.0
24028,49.0,7.0,90.0,14.0,0.0
24029,56.0,0.0,210.0,4.0,0.0
24030,44.0,7.0,210.0,4.0,0.0
24031,37.0,0.0,90.0,15.0,0.0
24032,53.0,0.0,210.0,3.0,0.0
24033,77.0,0.0,210.0,0.0,0.0
24034,49.0,0.0,210.0,3.0,0.0
24035,85.0,0.0,210.0,0.0,0.0
24036,75.0,60.0,60.0,11.0,0.0
24037,75.0,0.0,60.0,12.0,0.0
24038,61.0,0.0,60.0,13.0,0.0
24039,61.0,53.0,60.0,13.0,0.0
24040,77.0,0.0,60.0,11.0,0.0
24041,77.0,0.0,60.0,12.0,0.0
24042,37.0,0.0,90.0,15.0,0.0
24043,37.0,0.0,90.0,3.0,0.0
24044,49.0,0.0,90.0,14.0,0.0
24045,79.0,0.0,60.0,12.0,0.0
24046,79.0,8.0,60.0,11.0,0.0
24047,61.0,0.0,60.0,13.0,0.0
24048,44.0,0.0,210.0,4.0,0.0
24049,86.0,0.0,210.0,0.0,0.0
24050,74.0,0.0,210.0,0.0,0.0
24051,38.0,0.0,90.0,15.0,0.0
24052,74.0,0.0,210.0,1.0,0.0
24053,62.0,0.0,60.0,13.0,0.0
24054,62.0,0.0,210.0,2.0,0.0
24055,44.0,52.0,240.0,10.0,0.0
24056,80.0,0.0,60.0,11.0,0.0
24057,56.0,0.0,210.0,4.0,0.0
24058,50.0,7.0,90.0,14.0,0.0
24059,38.0,0.0,90.0,3.0,0.0
24060,50.0,0.0,210.0,3.0,0.0
24061,80.0,53.0,60.0,12.0,0.0
24062,68.0,7.0,210.0,5.0,0.0
24063,56.0,0.0,210.0,5.0,0.0
24064,80.0,0.0,60.0,11.0,0.0
24065,80.0,0.0,60.0,12.0,0.0
24066,62.0,60.0,60.0,13.0,0.0
24067,38.0,0.0,90.0,3.0,0.0
24068,62.0,0.0,60.0,13.0,0.0
24069,80.0,53.0,60.0,12.0,0.0
24070,38.0,0.0,90.0,15.0,0.0
24071,50.0,0.0,90.0,14.0,0.0
24072,80.0,0.0,60.0,11.0,0.0
24073,80.0,0.0,60.0,11.0,0.0
24074,62.0,8.0,60.0,13.0,0.0
24075,80.0,0.0,60.0,12.0,0.0
24076,63.0,7.0,210.0,2.0,0.0
24077,63.0,53.0,60.0,13.0,0.0
24078,80.0,0.0,60.0,11.0,0.0
24079,87.0,0.0,210.0,0.0,0.0
24080,80.0,0.0,60.0,12.0,0.0
24081,44.0,52.0,240.0,10.0,0.0
24082,56.0,0.0,210.0,4.0,0.0
24083,44.0,0.0,210.0,4.0,0.0
24084,51.0,0.0,90.0,14.0,0.0
24085,39.0,7.0,90.0,15.0,0.0
24086,56.0,0.0,210.0,5.0,0.0
24087,68.0,0.0,210.0,5.0,0.0
24088,75.0,0.0,210.0,1.0,0.0
24089,75.0,0.0,210.0,0.0,0.0
24090,51.0,0.0,210.0,3.0,0.0
24091,39.0,0.0,90.0,3.0,0.0
24092,80.0,0.0,60.0,11.0,0.0
24093,80.0,60.0,60.0,12.0,0.0
24094,63.0,0.0,60.0,13.0,0.0
24095,80.0,53.0,60.0,12.0,0.0
24096,63.0,0.0,60.0,13.0,0.0
24097,51.0,0.0,90.0,14.0,0.0
24098,80.0,0.0,60.0,11.0,0.0
24099,39.0,0.0,90.0,15.0,0.0
24100,39.0,0.0,90.0,3.0,0.0
24101,63.0,8.0,60.0,13.0,0.0
24102,80.0,0.0,60.0,11.0,0.0
24103,80.0,0.0,60.0,12.0,0.0
24104,76.0,0.0,210.0,0.0,0.0
24105,80.0,0.0,60.0,11.0,0.0
24106,40.0,7.0,90.0,15.0,0.0
24107,40.0,0.0,90.0,3.0,0.0
24108,44.0,52.0,240.0,10.0,0.0
24109,52.0,0.0,90.0,14.0,0.0
24110,52.0,0.0,210.0,3.0,0.0
24111,64.0,0.0,210.0,2.0,0.0
24112,88.0,0.0,210.0,0.0,0.0
24113,68.0,0.0,210.0,5.0,0.0
24114,44.0,0.0,210.0,4.0,0.0
24115,76.0,0.0,210.0,1.0,0.0
24116,64.0,0.0,60.0,13.0,0.0
24117,80.0,53.0,60.0,12.0,0.0
24118,56.0,0.0,210.0,4.0,0.0
24119,56.0,7.0,210.0,5.0,0.0
24120,80.0,60.0,60.0,12.0,0.0
24121,64.0,0.0,60.0,13.0,0.0
24122,80.0,0.0,60.0,11.0,0.0
24123,52.0,0.0,90.0,14.0,0.0
24124,40.0,0.0,90.0,15.0,0.0
24125,80.0,0.0,60.0,12.0,0.0
24126,40.0,0.0,90.0,3.0,0.0
24127,64.0,53.0,60.0,13.0,0.0
24128,80.0,0.0,60.0,11.0,0.0
24129,80.0,0.0,60.0,11.0,0.0
24130,80.0,8.0,60.0,12.0,0.0
24131,64.0,0.0,60.0,13.0,0.0
24132,53.0,0.0,90.0,14.0,0.0
24133,44.0,0.0,210.0,4.0,0.0
24134,56.0,0.0,210.0,4.0,0.0
24135,44.0,52.0,240.0,10.0,0.0
24136,53.0,0.0,210.0,3.0,0.0
24137,80.0,0.0,60.0,12.0,0.0
24138,65.0,0.0,60.0,13.0,0.0
24139,80.0,53.0,60.0,11.0,0.0
24140,41.0,0.0,90.0,15.0,0.0
24141,77.0,0.0,210.0,0.0,0.0
24142,89.0,0.0,210.0,0.0,0.0
24143,56.0,0.0,210.0,5.0,0.0
24144,68.0,7.0,210.0,5.0,0.0
24145,65.0,0.0,210.0,2.0,0.0
24146,41.0,7.0,90.0,3.0,0.0
24147,77.0,0.0,210.0,1.0,0.0
24148,80.0,0.0,60.0,11.0,0.0
24149,65.0,60.0,60.0,13.0,0.0
24150,80.0,0.0,60.0,12.0,0.0
24151,79.0,0.0,60.0,12.0,0.0
24152,79.0,53.0,60.0,11.0,0.0
24153,41.0,0.0,90.0,15.0,0.0
24154,65.0,0.0,60.0,13.0,0.0
24155,53.0,0.0,90.0,14.0,0.0
24156,41.0,0.0,90.0,3.0,0.0
24157,65.0,8.0,60.0,13.0,0.0
24158,77.0,0.0,60.0,12.0,0.0
24159,77.0,0.0,60.0,11.0,0.0
24160,55.0,7.0,90.0,14.0,0.0
24161,55.0,0.0,210.0,3.0,0.0
24162,68.0,0.0,210.0,5.0,0.0
24163,79.0,0.0,210.0,1.0,0.0
24164,75.0,0.0,60.0,11.0,0.0
24165,56.0,0.0,210.0,5.0,0.0
24166,56.0,0.0,210.0,4.0,0.0
24167,91.0,0.0,210.0,0.0,0.0
24168,44.0,0.0,210.0,4.0,0.0
24169,67.0,0.0,210.0,2.0,0.0
24170,43.0,0.0,90.0,15.0,0.0
24171,79.0,0.0,210.0,0.0,0.0
24172,75.0,0.0,60.0,12.0,0.0
24173,44.0,52.0,240.0,10.0,0.0
24174,67.0,53.0,60.0,13.0,0.0
24175,43.0,0.0,90.0,3.0,0.0
24176,73.0,0.0,60.0,11.0,0.0
24177,73.0,0.0,60.0,12.0,0.0
24178,67.0,60.0,60.0,13.0,0.0
24179,72.0,0.0,60.0,11.0,0.0
24180,43.0,0.0,90.0,3.0,0.0
24181,67.0,53.0,60.0,13.0,0.0
24182,55.0,0.0,90.0,14.0,0.0
24183,43.0,7.0,90.0,15.0,0.0
24184,72.0,0.0,60.0,12.0,0.0
24185,70.0,8.0,60.0,11.0,0.0
24186,70.0,0.0,60.0,12.0,0.0
24187,67.0,0.0,60.0,13.0,0.0
24188,68.0,0.0,90.0,5.0,0.0
24189,68.0,0.0,90.0,13.0,0.0
24190,56.0,0.0,90.0,14.0,0.0
24191,68.0,0.0,60.0,12.0,0.0
24192,80.0,53.0,60.0,0.0,0.0
24193,68.0,0.0,90.0,2.0,0.0
24194,56.0,0.0,90.0,5.0,0.0
24195,56.0,0.0,90.0,4.0,0.0
24196,44.0,52.0,120.0,10.0,0.0
24197,56.0,0.0,90.0,3.0,0.0
24198,68.0,0.0,60.0,11.0,0.0
24199,80.0,7.0,90.0,1.0,0.0
24200,92.0,0.0,60.0,0.0,0.0
24201,44.0,0.0,90.0,4.0,0.0
24202,44.0,0.0,90.0,3.0,0.0
24203,44.0,0.0,90.0,15.0,0.0
24204,91.0,0.0,60.0,0.0,0.0
24205,67.0,8.0,60.0,11.0,0.0
24206,79.0,0.0,60.0,0.0,0.0
24207,67.0,0.0,60.0,12.0,0.0
24208,79.0,0.0,60.0,1.0,0.0
24209,63.0,0.0,90.0,2.0,0.0
24210,77.0,0.0,60.0,0.0,0.0
24211,65.0,0.0,60.0,11.0,0.0
24212,32.0,0.0,90.0,3.0,0.0
24213,32.0,0.0,90.0,15.0,0.0
24214,44.0,52.0,120.0,10.0,0.0
24215,65.0,53.0,60.0,12.0,0.0
24216,77.0,0.0,60.0,1.0,0.0
24217,89.0,0.0,60.0,0.0,0.0
24218,44.0,0.0,60.0,13.0,0.0
24219,68.0,0.0,90.0,1.0,0.0
24220,44.0,0.0,90.0,4.0,0.0
24221,68.0,0.0,90.0,5.0,0.0
24222,56.0,0.0,90.0,5.0,0.0
24223,60.0,0.0,90.0,2.0,0.0
24224,48.0,0.0,60.0,13.0,0.0
24225,56.0,0.0,90.0,4.0,0.0
24226,44.0,0.0,90.0,3.0,0.0
24227,48.0,0.0,90.0,3.0,0.0
24228,44.0,7.0,90.0,14.0,0.0
24229,48.0,0.0,60.0,13.0,0.0
24230,87.0,8.0,60.0,0.0,0.0
24231,75.0,0.0,60.0,0.0,0.0
24232,44.0,0.0,60.0,13.0,0.0
24233,75.0,0.0,60.0,1.0,0.0
24234,63.0,0.0,60.0,12.0,0.0
24235,63.0,0.0,60.0,11.0,0.0
24236,34.0,0.0,90.0,15.0,0.0
24237,44.0,7.0,90.0,4.0,0.0
24238,85.0,0.0,60.0,0.0,0.0
24239,56.0,0.0,90.0,5.0,0.0
24240,44.0,52.0,120.0,10.0,0.0
24241,58.0,0.0,90.0,2.0,0.0
24242,56.0,0.0,90.0,4.0,0.0
24243,46.0,0.0,90.0,14.0,0.0
24244,61.0,0.0,90.0,2.0,0.0
24245,49.0,53.0,60.0,13.0,0.0
24246,68.0,0.0,90.0,5.0,0.0
24247,46.0,0.0,60.0,13.0,0.0
24248,61.0,0.0,60.0,12.0,0.0
24249,49.0,0.0,90.0,3.0,0.0
24250,46.0,0.0,90.0,3.0,0.0
24251,73.0,0.0,60.0,1.0,0.0
24252,34.0,0.0,90.0,3.0,0.0
24253,73.0,0.0,60.0,0.0,0.0
24254,61.0,0.0,60.0,11.0,0.0
24255,68.0,0.0,90.0,1.0,0.0
24256,46.0,0.0,60.0,13.0,0.0
24257,72.0,0.0,60.0,1.0,0.0
24258,60.0,0.0,60.0,11.0,0.0
24259,60.0,0.0,60.0,12.0,0.0
24260,72.0,8.0,60.0,0.0,0.0
24261,84.0,0.0,60.0,0.0,0.0
24262,49.0,0.0,60.0,13.0,0.0
24263,36.0,0.0,90.0,15.0,0.0
24264,48.0,7.0,90.0,3.0,0.0
24265,68.0,0.0,90.0,5.0,0.0
24266,48.0,0.0,90.0,14.0,0.0
24267,51.0,0.0,90.0,3.0,0.0
24268,51.0,0.0,60.0,13.0,0.0
24269,48.0,0.0,60.0,13.0,0.0
24270,56.0,0.0,90.0,2.0,0.0
24271,56.0,0.0,90.0,5.0,0.0
24272,60.0,0.0,90.0,2.0,0.0
24273,44.0,0.0,90.0,4.0,0.0
24274,82.0,53.0,60.0,0.0,0.0
24275,68.0,0.0,90.0,1.0,0.0
24276,70.0,0.0,60.0,1.0,0.0
24277,56.0,0.0,90.0,4.0,0.0
24278,44.0,180.0,120.0,10.0,0.0
24279,36.0,0.0,90.0,3.0,0.0
24280,70.0,0.0,60.0,0.0,0.0
24281,58.0,0.0,60.0,11.0,0.0
24282,58.0,0.0,60.0,12.0,0.0
24283,56.0,8.0,60.0,11.0,0.0
24284,51.0,0.0,60.0,13.0,0.0
24285,80.0,0.0,60.0,0.0,0.0
24286,48.0,0.0,60.0,13.0,0.0
24287,56.0,0.0,60.0,12.0,0.0
24288,68.0,0.0,60.0,0.0,0.0
24289,61.0,0.0,180.0,11.0,0.0
24290,56.0,0.0,180.0,4.0,0.0
24291,82.0,0.0,180.0,0.0,0.0
24292,58.0,0.0,180.0,12.0,0.0
24293,73.0,0.0,180.0,0.0,0.0
24294,44.0,0.0,180.0,4.0,0.0
24295,37.0,0.0,180.0,3.0,0.0
24296,44.0,0.0,180.0,10.0,0.0
24297,49.0,0.0,180.0,14.0,0.0
24298,49.0,0.0,180.0,3.0,0.0
24299,49.0,0.0,180.0,13.0,0.0
24300,68.0,0.0,180.0,5.0,0.0
24301,70.0,0.0,180.0,1.0,0.0
24302,73.0,0.0,180.0,1.0,0.0
24303,53.0,0.0,180.0,3.0,0.0
24304,56.0,0.0,180.0,5.0,0.0
24305,53.0,0.0,180.0,13.0,0.0
24306,37.0,0.0,180.0,15.0,0.0
24307,61.0,0.0,180.0,2.0,0.0
24308,65.0,0.0,180.0,2.0,0.0
24309,85.0,960.0,180.0,0.0,0.0
24310,70.0,0.0,180.0,1.0,0.0
24311,51.0,0.0,180.0,13.0,0.0
24312,67.0,0.0,180.0,1.0,0.0
24313,39.0,0.0,180.0,15.0,0.0
24314,63.0,0.0,180.0,5.0,0.0
24315,51.0,0.0,180.0,3.0,0.0
24316,58.0,0.0,180.0,11.0,0.0
24317,39.0,0.0,180.0,3.0,0.0
24318,55.0,0.0,180.0,12.0,0.0
24319,51.0,0.0,180.0,11.0,0.0
24320,58.0,0.0,180.0,2.0,0.0
24321,51.0,0.0,180.0,14.0,0.0
24322,79.0,0.0,180.0,0.0,0.0
24323,51.0,0.0,180.0,5.0,0.0
24324,51.0,0.0,180.0,4.0,0.0
24325,39.0,840.0,180.0,4.0,0.0
24326,82.0,0.0,180.0,0.0,0.0
24327,55.0,0.0,180.0,2.0,0.0
24328,39.0,0.0,180.0,10.0,0.0
24329,51.0,420.0,60.0,13.0,0.0
24330,56.0,0.0,720.0,3.0,0.0
24331,63.0,0.0,480.0,2.0,0.0
24332,68.0,0.0,720.0,2.0,0.0
24333,68.0,0.0,720.0,1.0,0.0
24334,48.0,0.0,720.0,3.0,0.0
24335,51.0,60.0,420.0,13.0,0.0
24336,61.0,0.0,480.0,2.0,0.0
24337,52.0,180.0,60.0,12.0,0.0
24338,49.0,240.0,240.0,13.0,0.0
24339,52.0,240.0,420.0,12.0,0.0
24340,55.0,0.0,240.0,13.0,0.0
24341,58.0,0.0,240.0,4.0,0.0
24342,46.0,0.0,240.0,3.0,0.0
24343,55.0,0.0,240.0,3.0,0.0
24344,67.0,0.0,240.0,1.0,0.0
24345,67.0,0.0,240.0,2.0,0.0
24346,62.0,0.0,240.0,2.0,0.0
24347,53.0,0.0,240.0,12.0,0.0
24348,56.0,0.0,240.0,4.0,0.0
24349,59.0,0.0,240.0,14.0,0.0
24350,65.0,0.0,240.0,2.0,0.0
24351,65.0,0.0,240.0,1.0,0.0
24352,56.0,0.0,240.0,13.0,0.0
24353,53.0,225.0,240.0,3.0,0.0
24354,44.0,0.0,240.0,3.0,0.0
24355,58.0,195.0,210.0,4.0,0.0
24356,51.0,0.0,210.0,4.0,0.0
24357,43.0,0.0,210.0,3.0,0.0
24358,55.0,0.0,210.0,3.0,0.0
24359,58.0,0.0,210.0,14.0,0.0
24360,63.0,0.0,210.0,2.0,0.0
24361,63.0,0.0,210.0,1.0,0.0
24362,51.0,0.0,210.0,4.0,0.0
24363,63.0,0.0,210.0,2.0,0.0
24364,55.0,0.0,210.0,3.0,0.0
24365,58.0,0.0,210.0,14.0,0.0
24366,43.0,0.0,210.0,3.0,0.0
24367,63.0,0.0,210.0,1.0,0.0
24368,58.0,15.0,210.0,4.0,0.0
24369,63.0,45.0,60.0,11.0,0.0
24370,65.0,60.0,60.0,11.0,0.0
24371,43.0,15.0,210.0,3.0,0.0
24372,55.0,0.0,210.0,3.0,0.0
24373,63.0,0.0,210.0,2.0,0.0
24374,58.0,0.0,240.0,14.0,0.0
24375,63.0,0.0,210.0,1.0,0.0
24376,58.0,0.0,240.0,4.0,0.0
24377,51.0,60.0,240.0,4.0,0.0
24378,67.0,60.0,60.0,11.0,0.0
24379,68.0,60.0,60.0,11.0,0.0
24380,70.0,45.0,60.0,11.0,0.0
24381,67.0,0.0,60.0,11.0,0.0
24382,68.0,240.0,240.0,11.0,0.0
24383,51.0,180.0,60.0,13.0,0.0
24384,68.0,240.0,720.0,1.0,0.0
24385,68.0,0.0,720.0,2.0,0.0
24386,63.0,0.0,480.0,2.0,0.0
24387,48.0,0.0,720.0,3.0,0.0
24388,56.0,0.0,720.0,3.0,0.0
24389,51.0,60.0,420.0,13.0,0.0
24390,49.0,0.0,240.0,13.0,0.0
24391,52.0,180.0,60.0,12.0,0.0
24392,61.0,0.0,480.0,2.0,0.0
24393,52.0,0.0,420.0,12.0,0.0
24394,67.0,0.0,240.0,1.0,0.0
24395,58.0,240.0,240.0,4.0,0.0
24396,46.0,0.0,240.0,3.0,0.0
24397,67.0,0.0,240.0,2.0,0.0
24398,55.0,0.0,240.0,3.0,0.0
24399,55.0,0.0,240.0,13.0,0.0
24400,56.0,0.0,240.0,4.0,0.0
24401,59.0,0.0,240.0,14.0,0.0
24402,65.0,0.0,240.0,1.0,0.0
24403,53.0,0.0,240.0,3.0,0.0
24404,44.0,0.0,240.0,3.0,0.0
24405,53.0,0.0,240.0,12.0,0.0
24406,56.0,0.0,240.0,13.0,0.0
24407,65.0,225.0,240.0,2.0,0.0
24408,62.0,0.0,240.0,2.0,0.0
24409,43.0,0.0,210.0,3.0,0.0
24410,55.0,0.0,210.0,3.0,0.0
24411,63.0,0.0,210.0,1.0,0.0
24412,51.0,0.0,210.0,4.0,0.0
24413,58.0,0.0,210.0,4.0,0.0
24414,63.0,195.0,210.0,2.0,0.0
24415,58.0,0.0,210.0,14.0,0.0
24416,51.0,0.0,210.0,4.0,0.0
24417,58.0,0.0,210.0,4.0,0.0
24418,58.0,0.0,210.0,14.0,0.0
24419,43.0,0.0,210.0,3.0,0.0
24420,63.0,0.0,210.0,1.0,0.0
24421,55.0,0.0,210.0,3.0,0.0
24422,63.0,15.0,210.0,2.0,0.0
24423,63.0,45.0,60.0,11.0,0.0
24424,65.0,60.0,60.0,11.0,0.0
24425,63.0,0.0,210.0,2.0,0.0
24426,58.0,0.0,240.0,14.0,0.0
24427,55.0,0.0,210.0,3.0,0.0
24428,43.0,0.0,210.0,3.0,0.0
24429,67.0,60.0,60.0,11.0,0.0
24430,58.0,15.0,210.0,4.0,0.0
24431,51.0,0.0,210.0,4.0,0.0
24432,63.0,0.0,210.0,1.0,0.0
24433,68.0,60.0,60.0,11.0,0.0
24434,70.0,45.0,60.0,11.0,0.0
24435,72.0,60.0,60.0,11.0,0.0
24436,73.0,180.0,60.0,11.0,0.0
24437,53.0,0.0,720.0,3.0,0.0
24438,56.0,0.0,480.0,3.0,0.0
24439,68.0,60.0,480.0,2.0,0.0
24440,73.0,240.0,720.0,2.0,0.0
24441,73.0,0.0,720.0,1.0,0.0
24442,61.0,0.0,720.0,4.0,0.0
24443,73.0,240.0,180.0,11.0,0.0
24444,57.0,180.0,60.0,13.0,0.0
24445,54.0,0.0,480.0,3.0,0.0
24446,66.0,0.0,480.0,2.0,0.0
24447,69.0,0.0,60.0,12.0,0.0
24448,57.0,0.0,420.0,13.0,0.0
24449,69.0,0.0,420.0,12.0,0.0
24450,72.0,0.0,240.0,1.0,0.0
24451,72.0,0.0,240.0,2.0,0.0
24452,51.0,0.0,240.0,3.0,0.0
24453,60.0,225.0,240.0,4.0,0.0
24454,70.0,0.0,210.0,12.0,0.0
24455,70.0,225.0,240.0,1.0,0.0
24456,58.0,0.0,240.0,4.0,0.0
24457,58.0,15.0,210.0,13.0,0.0
24458,53.0,0.0,240.0,3.0,0.0
24459,49.0,0.0,240.0,3.0,0.0
24460,65.0,0.0,240.0,2.0,0.0
24461,70.0,0.0,240.0,2.0,0.0
24462,69.0,0.0,210.0,1.0,0.0
24463,78.0,0.0,210.0,0.0,0.0
24464,57.0,0.0,210.0,3.0,0.0
24465,48.0,0.0,210.0,3.0,0.0
24466,60.0,0.0,210.0,4.0,0.0
24467,63.0,0.0,210.0,4.0,0.0
24468,51.0,0.0,210.0,13.0,0.0
24469,66.0,0.0,210.0,2.0,0.0
24470,54.0,0.0,210.0,12.0,0.0
24471,69.0,195.0,210.0,2.0,0.0
24472,48.0,0.0,210.0,3.0,0.0
24473,66.0,15.0,210.0,2.0,0.0
24474,51.0,0.0,210.0,13.0,0.0
24475,57.0,0.0,210.0,3.0,0.0
24476,78.0,0.0,210.0,0.0,0.0
24477,63.0,0.0,210.0,4.0,0.0
24478,54.0,0.0,210.0,12.0,0.0
24479,60.0,0.0,210.0,4.0,0.0
24480,69.0,0.0,210.0,1.0,0.0
24481,69.0,0.0,210.0,2.0,0.0
24482,69.0,45.0,60.0,11.0,0.0
24483,70.0,60.0,60.0,11.0,0.0
24484,69.0,0.0,210.0,1.0,0.0
24485,66.0,0.0,210.0,2.0,0.0
24486,51.0,0.0,210.0,13.0,0.0
24487,57.0,0.0,210.0,3.0,0.0
24488,48.0,0.0,210.0,3.0,0.0
24489,78.0,0.0,210.0,0.0,0.0
24490,72.0,60.0,60.0,11.0,0.0
24491,63.0,15.0,210.0,4.0,0.0
24492,60.0,0.0,210.0,4.0,0.0
24493,54.0,0.0,210.0,12.0,0.0
24494,69.0,0.0,210.0,2.0,0.0
24495,73.0,60.0,60.0,11.0,0.0
24496,75.0,45.0,60.0,11.0,0.0
24497,72.0,240.0,60.0,11.0,0.0
24498,61.0,0.0,450.0,4.0,0.0
24499,77.0,0.0,450.0,0.0,0.0
24500,77.0,225.0,240.0,11.0,0.0
24501,70.0,0.0,450.0,1.0,0.0
24502,53.0,0.0,240.0,12.0,0.0
24503,58.0,0.0,450.0,4.0,0.0
24504,49.0,0.0,240.0,13.0,0.0
24505,70.0,0.0,450.0,2.0,0.0
24506,65.0,0.0,450.0,2.0,0.0
24507,49.0,0.0,450.0,3.0,0.0
24508,58.0,135.0,450.0,3.0,0.0
24509,58.0,0.0,450.0,4.0,0.0
24510,61.0,7.0,450.0,4.0,0.0
24511,46.0,0.0,420.0,3.0,0.0
24512,65.0,0.0,420.0,2.0,0.0
24513,61.0,0.0,420.0,2.0,0.0
24514,73.0,0.0,420.0,1.0,0.0
24515,77.0,45.0,420.0,0.0,0.0
24516,65.0,60.0,60.0,11.0,0.0
24517,67.0,60.0,60.0,11.0,0.0
24518,69.0,60.0,60.0,11.0,0.0
24519,70.0,60.0,60.0,11.0,0.0
24520,72.0,60.0,60.0,11.0,0.0
24521,73.0,0.0,60.0,11.0,0.0
24522,49.0,8.0,60.0,3.0,0.0
24523,70.0,0.0,60.0,1.0,0.0
24524,58.0,0.0,60.0,2.0,0.0
24525,73.0,0.0,60.0,0.0,0.0
24526,70.0,0.0,60.0,11.0,0.0
24527,61.0,240.0,60.0,2.0,0.0
24528,56.0,0.0,480.0,2.0,0.0
24529,72.0,0.0,480.0,0.0,0.0
24530,56.0,0.0,480.0,4.0,0.0
24531,68.0,180.0,480.0,1.0,0.0
24532,51.0,15.0,450.0,3.0,0.0
24533,75.0,225.0,240.0,11.0,0.0
24534,60.0,0.0,480.0,2.0,0.0
24535,60.0,0.0,480.0,4.0,0.0
24536,61.0,0.0,420.0,2.0,0.0
24537,58.0,0.0,420.0,2.0,0.0
24538,39.0,7.0,450.0,3.0,0.0
24539,58.0,0.0,420.0,4.0,0.0
24540,61.0,0.0,420.0,4.0,0.0
24541,70.0,0.0,420.0,1.0,0.0
24542,73.0,0.0,420.0,0.0,0.0
24543,70.0,0.0,60.0,11.0,0.0
24544,58.0,60.0,60.0,12.0,0.0
24545,72.0,0.0,60.0,11.0,0.0
24546,60.0,60.0,60.0,12.0,0.0
24547,73.0,60.0,60.0,11.0,0.0
24548,61.0,0.0,60.0,12.0,0.0
24549,75.0,60.0,60.0,11.0,0.0
24550,63.0,0.0,60.0,12.0,0.0
24551,65.0,0.0,60.0,12.0,0.0
24552,77.0,45.0,60.0,11.0,0.0
24553,67.0,0.0,60.0,12.0,0.0
24554,70.0,0.0,60.0,0.0,0.0
24555,79.0,0.0,60.0,11.0,0.0
24556,58.0,60.0,60.0,2.0,0.0
24557,58.0,0.0,60.0,4.0,0.0
24558,51.0,0.0,60.0,4.0,0.0
24559,67.0,0.0,60.0,1.0,0.0
24560,55.0,0.0,60.0,2.0,0.0
24561,48.0,0.0,690.0,4.0,0.0
24562,56.0,0.0,690.0,4.0,0.0
24563,63.0,0.0,690.0,2.0,0.0
24564,68.0,0.0,690.0,2.0,0.0
24565,56.0,0.0,690.0,7.0,0.0
24566,36.0,0.0,690.0,3.0,0.0
24567,36.0,0.0,690.0,15.0,0.0
24568,80.0,0.0,690.0,0.0,0.0
24569,63.0,0.0,60.0,13.0,0.0
24570,68.0,0.0,690.0,6.0,0.0
24571,75.0,0.0,690.0,1.0,0.0
24572,68.0,0.0,690.0,1.0,0.0
24573,68.0,0.0,60.0,12.0,0.0
24574,48.0,7.0,690.0,14.0,0.0
24575,48.0,0.0,690.0,8.0,0.0
24576,48.0,0.0,690.0,3.0,0.0
24577,51.0,0.0,690.0,3.0,0.0
24578,44.0,52.0,240.0,10.0,0.0
24579,56.0,0.0,690.0,5.0,0.0
24580,56.0,0.0,60.0,13.0,0.0
24581,68.0,0.0,690.0,5.0,0.0
24582,80.0,60.0,60.0,11.0,0.0
24583,68.0,60.0,60.0,12.0,0.0
24584,63.0,0.0,60.0,13.0,0.0
24585,56.0,0.0,60.0,13.0,0.0
24586,80.0,0.0,60.0,11.0,0.0
24587,68.0,0.0,60.0,12.0,0.0
24588,80.0,0.0,60.0,11.0,0.0
24589,56.0,0.0,60.0,13.0,0.0
24590,63.0,60.0,60.0,13.0,0.0
24591,68.0,0.0,60.0,12.0,0.0
24592,80.0,0.0,60.0,11.0,0.0
24593,56.0,0.0,60.0,13.0,0.0
24594,63.0,8.0,60.0,13.0,0.0
24595,80.0,0.0,60.0,11.0,0.0
24596,63.0,0.0,60.0,13.0,0.0
24597,68.0,60.0,60.0,12.0,0.0
24598,56.0,0.0,60.0,13.0,0.0
24599,56.0,60.0,60.0,13.0,0.0
24600,80.0,0.0,60.0,11.0,0.0
24601,63.0,0.0,60.0,13.0,0.0
24602,68.0,0.0,60.0,12.0,0.0
24603,80.0,0.0,60.0,11.0,0.0
24604,56.0,0.0,60.0,13.0,0.0
24605,63.0,0.0,60.0,13.0,0.0
24606,68.0,60.0,60.0,12.0,0.0
24607,80.0,0.0,60.0,11.0,0.0
24608,68.0,0.0,60.0,12.0,0.0
24609,63.0,60.0,60.0,13.0,0.0
24610,56.0,0.0,60.0,13.0,0.0
24611,80.0,60.0,60.0,11.0,0.0
24612,56.0,0.0,60.0,13.0,0.0
24613,63.0,0.0,60.0,13.0,0.0
24614,68.0,0.0,60.0,12.0,0.0
24615,56.0,60.0,60.0,13.0,0.0
24616,63.0,0.0,60.0,13.0,0.0
24617,68.0,0.0,60.0,12.0,0.0
24618,80.0,0.0,60.0,11.0,0.0
24619,68.0,0.0,60.0,12.0,0.0
24620,63.0,0.0,60.0,13.0,0.0
24621,56.0,0.0,60.0,13.0,0.0
24622,80.0,53.0,60.0,11.0,0.0
24623,80.0,60.0,60.0,11.0,0.0
24624,56.0,0.0,60.0,13.0,0.0
24625,63.0,0.0,60.0,13.0,0.0
24626,68.0,0.0,60.0,12.0,0.0
24627,39.0,52.0,240.0,10.0,0.0
24628,67.0,0.0,210.0,6.0,0.0
24629,73.0,0.0,210.0,1.0,0.0
24630,67.0,0.0,210.0,1.0,0.0
24631,51.0,0.0,210.0,4.0,0.0
24632,58.0,0.0,210.0,4.0,0.0
24633,55.0,0.0,210.0,3.0,0.0
24634,46.0,7.0,210.0,3.0,0.0
24635,34.0,0.0,210.0,15.0,0.0
24636,55.0,0.0,210.0,7.0,0.0
24637,79.0,60.0,60.0,11.0,0.0
24638,34.0,0.0,210.0,3.0,0.0
24639,61.0,0.0,60.0,13.0,0.0
24640,58.0,0.0,60.0,13.0,0.0
24641,67.0,0.0,60.0,12.0,0.0
24642,63.0,0.0,210.0,5.0,0.0
24643,46.0,0.0,210.0,14.0,0.0
24644,61.0,0.0,210.0,2.0,0.0
24645,67.0,0.0,210.0,2.0,0.0
24646,51.0,0.0,210.0,5.0,0.0
24647,46.0,0.0,210.0,8.0,0.0
24648,79.0,0.0,210.0,0.0,0.0
24649,79.0,0.0,60.0,11.0,0.0
24650,67.0,0.0,60.0,12.0,0.0
24651,58.0,0.0,60.0,13.0,0.0
24652,61.0,60.0,60.0,13.0,0.0
24653,58.0,0.0,60.0,13.0,0.0
24654,79.0,0.0,60.0,11.0,0.0
24655,67.0,0.0,60.0,12.0,0.0
24656,61.0,53.0,60.0,13.0,0.0
24657,61.0,0.0,60.0,13.0,0.0
24658,79.0,0.0,60.0,11.0,0.0
24659,58.0,8.0,60.0,13.0,0.0
24660,67.0,0.0,60.0,12.0,0.0
24661,53.0,0.0,210.0,7.0,0.0
24662,61.0,0.0,210.0,2.0,0.0
24663,65.0,0.0,210.0,2.0,0.0
24664,77.0,0.0,210.0,0.0,0.0
24665,44.0,0.0,210.0,4.0,0.0
24666,51.0,0.0,210.0,5.0,0.0
24667,77.0,0.0,60.0,11.0,0.0
24668,65.0,0.0,60.0,12.0,0.0
24669,56.0,0.0,210.0,4.0,0.0
24670,56.0,0.0,210.0,3.0,0.0
24671,68.0,0.0,210.0,1.0,0.0
24672,65.0,0.0,210.0,6.0,0.0
24673,56.0,60.0,60.0,13.0,0.0
24674,32.0,0.0,210.0,3.0,0.0
24675,44.0,0.0,210.0,8.0,0.0
24676,44.0,7.0,210.0,14.0,0.0
24677,63.0,0.0,210.0,5.0,0.0
24678,44.0,0.0,210.0,3.0,0.0
24679,73.0,0.0,210.0,1.0,0.0
24680,61.0,0.0,60.0,13.0,0.0
24681,32.0,0.0,210.0,15.0,0.0
24682,39.0,52.0,240.0,10.0,0.0
24683,61.0,0.0,60.0,13.0,0.0
24684,56.0,60.0,60.0,13.0,0.0
24685,65.0,0.0,60.0,12.0,0.0
24686,77.0,0.0,60.0,11.0,0.0
24687,77.0,0.0,60.0,11.0,0.0
24688,65.0,53.0,60.0,12.0,0.0
24689,61.0,0.0,60.0,13.0,0.0
24690,56.0,0.0,60.0,13.0,0.0
24691,56.0,0.0,60.0,13.0,0.0
24692,61.0,0.0,60.0,13.0,0.0
24693,65.0,8.0,60.0,12.0,0.0
24694,77.0,0.0,60.0,11.0,0.0
24695,31.0,0.0,210.0,3.0,0.0
24696,39.0,52.0,240.0,10.0,0.0
24697,70.0,0.0,210.0,1.0,0.0
24698,73.0,7.0,210.0,1.0,0.0
24699,75.0,0.0,60.0,11.0,0.0
24700,75.0,0.0,210.0,0.0,0.0
24701,63.0,0.0,210.0,6.0,0.0
24702,63.0,0.0,210.0,5.0,0.0
24703,55.0,0.0,210.0,3.0,0.0
24704,43.0,0.0,210.0,3.0,0.0
24705,58.0,0.0,60.0,13.0,0.0
24706,61.0,60.0,60.0,13.0,0.0
24707,63.0,0.0,210.0,2.0,0.0
24708,43.0,0.0,210.0,14.0,0.0
24709,61.0,0.0,210.0,2.0,0.0
24710,51.0,0.0,210.0,5.0,0.0
24711,63.0,0.0,60.0,12.0,0.0
24712,43.0,0.0,210.0,8.0,0.0
24713,61.0,0.0,210.0,4.0,0.0
24714,51.0,0.0,210.0,7.0,0.0
24715,31.0,0.0,210.0,15.0,0.0
24716,58.0,0.0,210.0,4.0,0.0
24717,75.0,60.0,60.0,11.0,0.0
24718,63.0,0.0,60.0,12.0,0.0
24719,58.0,0.0,60.0,13.0,0.0
24720,61.0,0.0,60.0,13.0,0.0
24721,58.0,0.0,60.0,13.0,0.0
24722,61.0,53.0,60.0,13.0,0.0
24723,75.0,0.0,60.0,11.0,0.0
24724,63.0,0.0,60.0,12.0,0.0
24725,75.0,8.0,60.0,11.0,0.0
24726,63.0,0.0,60.0,12.0,0.0
24727,61.0,0.0,60.0,13.0,0.0
24728,58.0,0.0,60.0,13.0,0.0
24729,39.0,52.0,240.0,10.0,0.0
24730,51.0,0.0,210.0,5.0,0.0
24731,63.0,0.0,210.0,5.0,0.0
24732,75.0,0.0,60.0,11.0,0.0
24733,61.0,0.0,210.0,4.0,0.0
24734,43.0,0.0,210.0,8.0,0.0
24735,61.0,0.0,210.0,2.0,0.0
24736,63.0,0.0,210.0,2.0,0.0
24737,55.0,0.0,210.0,3.0,0.0
24738,51.0,0.0,210.0,7.0,0.0
24739,63.0,0.0,210.0,6.0,0.0
24740,58.0,0.0,210.0,4.0,0.0
24741,43.0,0.0,210.0,3.0,0.0
24742,31.0,0.0,210.0,15.0,0.0
24743,63.0,60.0,60.0,12.0,0.0
24744,70.0,0.0,210.0,1.0,0.0
24745,73.0,0.0,210.0,1.0,0.0
24746,43.0,7.0,210.0,14.0,0.0
24747,61.0,0.0,60.0,13.0,0.0
24748,75.0,0.0,210.0,0.0,0.0
24749,58.0,0.0,60.0,13.0,0.0
24750,31.0,0.0,210.0,3.0,0.0
24751,61.0,0.0,60.0,13.0,0.0
24752,75.0,0.0,60.0,11.0,0.0
24753,63.0,0.0,60.0,12.0,0.0
24754,58.0,60.0,60.0,13.0,0.0
24755,61.0,53.0,60.0,13.0,0.0
24756,58.0,0.0,60.0,13.0,0.0
24757,63.0,0.0,60.0,12.0,0.0
24758,75.0,0.0,60.0,11.0,0.0
24759,63.0,0.0,60.0,12.0,0.0
24760,75.0,8.0,60.0,11.0,0.0
24761,61.0,0.0,60.0,13.0,0.0
24762,58.0,0.0,60.0,13.0,0.0
24763,75.0,0.0,60.0,11.0,0.0
24764,43.0,0.0,210.0,3.0,0.0
24765,55.0,0.0,210.0,3.0,0.0
24766,58.0,0.0,210.0,4.0,0.0
24767,70.0,0.0,210.0,1.0,0.0
24768,61.0,0.0,210.0,4.0,0.0
24769,43.0,0.0,210.0,14.0,0.0
24770,31.0,0.0,210.0,3.0,0.0
24771,75.0,0.0,210.0,0.0,0.0
24772,73.0,0.0,210.0,1.0,0.0
24773,63.0,0.0,210.0,2.0,0.0
24774,63.0,0.0,60.0,12.0,0.0
24775,39.0,52.0,240.0,10.0,0.0
24776,63.0,0.0,210.0,5.0,0.0
24777,61.0,60.0,60.0,13.0,0.0
24778,61.0,7.0,210.0,2.0,0.0
24779,58.0,0.0,60.0,13.0,0.0
24780,43.0,0.0,210.0,8.0,0.0
24781,63.0,0.0,210.0,6.0,0.0
24782,51.0,0.0,210.0,7.0,0.0
24783,51.0,0.0,210.0,5.0,0.0
24784,31.0,0.0,210.0,15.0,0.0
24785,58.0,0.0,60.0,13.0,0.0
24786,63.0,0.0,60.0,12.0,0.0
24787,75.0,60.0,60.0,11.0,0.0
24788,61.0,0.0,60.0,13.0,0.0
24789,61.0,0.0,60.0,13.0,0.0
24790,63.0,53.0,60.0,12.0,0.0
24791,75.0,0.0,60.0,11.0,0.0
24792,58.0,0.0,60.0,13.0,0.0
24793,75.0,0.0,60.0,11.0,0.0
24794,61.0,0.0,60.0,13.0,0.0
24795,63.0,0.0,60.0,12.0,0.0
24796,58.0,8.0,60.0,13.0,0.0
24797,36.0,0.0,690.0,3.0,0.0
24798,56.0,0.0,690.0,7.0,0.0
24799,68.0,0.0,690.0,1.0,0.0
24800,68.0,0.0,690.0,5.0,0.0
24801,56.0,0.0,690.0,5.0,0.0
24802,48.0,0.0,690.0,3.0,0.0
24803,68.0,0.0,60.0,12.0,0.0
24804,44.0,52.0,240.0,10.0,0.0
24805,51.0,0.0,690.0,3.0,0.0
24806,63.0,0.0,690.0,2.0,0.0
24807,68.0,0.0,690.0,6.0,0.0
24808,56.0,0.0,690.0,4.0,0.0
24809,48.0,0.0,690.0,4.0,0.0
24810,68.0,0.0,690.0,2.0,0.0
24811,80.0,0.0,690.0,0.0,0.0
24812,48.0,0.0,60.0,14.0,0.0
24813,80.0,8.0,60.0,11.0,0.0
24814,75.0,0.0,690.0,1.0,0.0
24815,36.0,52.0,60.0,15.0,0.0
24816,48.0,7.0,690.0,8.0,0.0
24817,56.0,0.0,60.0,13.0,0.0
24818,63.0,0.0,60.0,13.0,0.0
24819,68.0,0.0,60.0,12.0,0.0
24820,48.0,0.0,630.0,14.0,0.0
24821,80.0,0.0,60.0,11.0,0.0
24822,36.0,0.0,630.0,15.0,0.0
24823,56.0,0.0,60.0,13.0,0.0
24824,63.0,60.0,60.0,13.0,0.0
24825,56.0,0.0,60.0,13.0,0.0
24826,80.0,60.0,60.0,11.0,0.0
24827,63.0,0.0,60.0,13.0,0.0
24828,68.0,0.0,60.0,12.0,0.0
24829,80.0,0.0,60.0,11.0,0.0
24830,63.0,0.0,60.0,13.0,0.0
24831,68.0,8.0,60.0,12.0,0.0
24832,56.0,0.0,60.0,13.0,0.0
24833,68.0,0.0,60.0,12.0,0.0
24834,80.0,0.0,60.0,11.0,0.0
24835,63.0,60.0,60.0,13.0,0.0
24836,56.0,0.0,60.0,13.0,0.0
24837,68.0,0.0,60.0,12.0,0.0
24838,80.0,60.0,60.0,11.0,0.0
24839,63.0,0.0,60.0,13.0,0.0
24840,56.0,0.0,60.0,13.0,0.0
24841,80.0,0.0,60.0,11.0,0.0
24842,68.0,60.0,60.0,12.0,0.0
24843,63.0,0.0,60.0,13.0,0.0
24844,56.0,0.0,60.0,13.0,0.0
24845,63.0,0.0,60.0,13.0,0.0
24846,56.0,0.0,60.0,13.0,0.0
24847,80.0,0.0,60.0,11.0,0.0
24848,68.0,60.0,60.0,12.0,0.0
24849,63.0,60.0,60.0,13.0,0.0
24850,80.0,0.0,60.0,11.0,0.0
24851,68.0,0.0,60.0,12.0,0.0
24852,56.0,0.0,60.0,13.0,0.0
24853,56.0,0.0,60.0,13.0,0.0
24854,63.0,60.0,60.0,13.0,0.0
24855,68.0,0.0,60.0,12.0,0.0
24856,80.0,0.0,60.0,11.0,0.0
24857,68.0,0.0,60.0,12.0,0.0
24858,80.0,53.0,60.0,11.0,0.0
24859,56.0,0.0,60.0,13.0,0.0
24860,63.0,0.0,60.0,13.0,0.0
24861,80.0,0.0,60.0,11.0,0.0
24862,56.0,0.0,60.0,13.0,0.0
24863,68.0,60.0,60.0,12.0,0.0
24864,63.0,0.0,60.0,13.0,0.0
24865,55.0,0.0,210.0,3.0,0.0
24866,58.0,0.0,210.0,4.0,0.0
24867,73.0,0.0,210.0,1.0,0.0
24868,67.0,0.0,210.0,1.0,0.0
24869,63.0,7.0,210.0,5.0,0.0
24870,67.0,0.0,210.0,6.0,0.0
24871,34.0,0.0,210.0,3.0,0.0
24872,46.0,0.0,210.0,3.0,0.0
24873,46.0,0.0,210.0,14.0,0.0
24874,61.0,0.0,210.0,2.0,0.0
24875,67.0,0.0,210.0,2.0,0.0
24876,55.0,0.0,210.0,7.0,0.0
24877,51.0,0.0,210.0,4.0,0.0
24878,39.0,52.0,240.0,10.0,0.0
24879,67.0,0.0,60.0,12.0,0.0
24880,79.0,60.0,60.0,11.0,0.0
24881,79.0,0.0,210.0,0.0,0.0
24882,61.0,0.0,60.0,13.0,0.0
24883,46.0,0.0,210.0,8.0,0.0
24884,58.0,0.0,60.0,13.0,0.0
24885,34.0,0.0,210.0,15.0,0.0
24886,51.0,0.0,210.0,5.0,0.0
24887,58.0,60.0,60.0,13.0,0.0
24888,61.0,0.0,60.0,13.0,0.0
24889,79.0,0.0,60.0,11.0,0.0
24890,67.0,0.0,60.0,12.0,0.0
24891,58.0,0.0,60.0,13.0,0.0
24892,67.0,0.0,60.0,12.0,0.0
24893,61.0,0.0,60.0,13.0,0.0
24894,79.0,53.0,60.0,11.0,0.0
24895,58.0,8.0,60.0,13.0,0.0
24896,61.0,0.0,60.0,13.0,0.0
24897,67.0,0.0,60.0,12.0,0.0
24898,79.0,0.0,60.0,11.0,0.0
24899,56.0,60.0,60.0,13.0,0.0
24900,44.0,0.0,210.0,4.0,0.0
24901,56.0,0.0,210.0,4.0,0.0
24902,44.0,0.0,210.0,8.0,0.0
24903,65.0,0.0,60.0,12.0,0.0
24904,56.0,0.0,210.0,3.0,0.0
24905,44.0,7.0,210.0,3.0,0.0
24906,77.0,0.0,210.0,0.0,0.0
24907,53.0,0.0,210.0,7.0,0.0
24908,61.0,0.0,60.0,13.0,0.0
24909,44.0,0.0,210.0,14.0,0.0
24910,65.0,0.0,210.0,6.0,0.0
24911,32.0,0.0,210.0,15.0,0.0
24912,73.0,0.0,210.0,1.0,0.0
24913,68.0,0.0,210.0,1.0,0.0
24914,61.0,0.0,210.0,2.0,0.0
24915,39.0,52.0,240.0,10.0,0.0
24916,63.0,0.0,210.0,5.0,0.0
24917,51.0,0.0,210.0,5.0,0.0
24918,32.0,0.0,210.0,3.0,0.0
24919,65.0,0.0,210.0,2.0,0.0
24920,77.0,0.0,60.0,11.0,0.0
24921,65.0,0.0,60.0,12.0,0.0
24922,77.0,0.0,60.0,11.0,0.0
24923,56.0,60.0,60.0,13.0,0.0
24924,61.0,0.0,60.0,13.0,0.0
24925,61.0,0.0,60.0,13.0,0.0
24926,77.0,0.0,60.0,11.0,0.0
24927,56.0,0.0,60.0,13.0,0.0
24928,65.0,53.0,60.0,12.0,0.0
24929,77.0,0.0,60.0,11.0,0.0
24930,61.0,0.0,60.0,13.0,0.0
24931,56.0,0.0,60.0,13.0,0.0
24932,65.0,8.0,60.0,12.0,0.0
24933,31.0,0.0,210.0,3.0,0.0
24934,51.0,0.0,210.0,5.0,0.0
24935,75.0,0.0,60.0,11.0,0.0
24936,58.0,0.0,60.0,13.0,0.0
24937,61.0,0.0,60.0,13.0,0.0
24938,43.0,0.0,210.0,8.0,0.0
24939,63.0,0.0,210.0,6.0,0.0
24940,63.0,0.0,210.0,2.0,0.0
24941,61.0,0.0,210.0,2.0,0.0
24942,43.0,0.0,210.0,14.0,0.0
24943,63.0,60.0,60.0,12.0,0.0
24944,63.0,0.0,210.0,5.0,0.0
24945,55.0,7.0,210.0,3.0,0.0
24946,51.0,0.0,210.0,7.0,0.0
24947,58.0,0.0,210.0,4.0,0.0
24948,39.0,52.0,240.0,10.0,0.0
24949,31.0,0.0,210.0,15.0,0.0
24950,75.0,0.0,210.0,0.0,0.0
24951,73.0,0.0,210.0,1.0,0.0
24952,61.0,0.0,210.0,4.0,0.0
24953,70.0,0.0,210.0,1.0,0.0
24954,43.0,0.0,210.0,3.0,0.0
24955,58.0,0.0,60.0,13.0,0.0
24956,63.0,0.0,60.0,12.0,0.0
24957,75.0,0.0,60.0,11.0,0.0
24958,61.0,60.0,60.0,13.0,0.0
24959,58.0,0.0,60.0,13.0,0.0
24960,63.0,53.0,60.0,12.0,0.0
24961,61.0,0.0,60.0,13.0,0.0
24962,75.0,0.0,60.0,11.0,0.0
24963,75.0,0.0,60.0,11.0,0.0
24964,58.0,0.0,60.0,13.0,0.0
24965,61.0,8.0,60.0,13.0,0.0
24966,63.0,0.0,60.0,12.0,0.0
24967,61.0,0.0,210.0,2.0,0.0
24968,39.0,52.0,240.0,10.0,0.0
24969,43.0,0.0,210.0,8.0,0.0
24970,51.0,0.0,210.0,7.0,0.0
24971,63.0,0.0,210.0,5.0,0.0
24972,63.0,0.0,210.0,6.0,0.0
24973,63.0,0.0,60.0,12.0,0.0
24974,61.0,60.0,60.0,13.0,0.0
24975,75.0,0.0,60.0,11.0,0.0
24976,31.0,0.0,210.0,15.0,0.0
24977,51.0,0.0,210.0,5.0,0.0
24978,63.0,0.0,210.0,2.0,0.0
24979,58.0,0.0,60.0,13.0,0.0
24980,55.0,0.0,210.0,3.0,0.0
24981,31.0,0.0,210.0,3.0,0.0
24982,43.0,0.0,210.0,14.0,0.0
24983,75.0,0.0,210.0,0.0,0.0
24984,58.0,0.0,210.0,4.0,0.0
24985,61.0,0.0,210.0,4.0,0.0
24986,70.0,0.0,210.0,1.0,0.0
24987,73.0,7.0,210.0,1.0,0.0
24988,43.0,0.0,210.0,3.0,0.0
24989,61.0,0.0,60.0,13.0,0.0
24990,58.0,0.0,60.0,13.0,0.0
24991,63.0,0.0,60.0,12.0,0.0
24992,75.0,60.0,60.0,11.0,0.0
24993,58.0,53.0,60.0,13.0,0.0
24994,61.0,0.0,60.0,13.0,0.0
24995,63.0,0.0,60.0,12.0,0.0
24996,75.0,0.0,60.0,11.0,0.0
24997,75.0,0.0,60.0,11.0,0.0
24998,61.0,0.0,60.0,13.0,0.0
24999,58.0,0.0,60.0,13.0,0.0
25000,63.0,8.0,60.0,12.0,0.0
25001,58.0,0.0,210.0,4.0,0.0
25002,61.0,0.0,60.0,13.0,0.0
25003,61.0,0.0,210.0,2.0,0.0
25004,31.0,0.0,210.0,15.0,0.0
25005,63.0,0.0,210.0,2.0,0.0
25006,63.0,0.0,210.0,6.0,0.0
25007,75.0,0.0,210.0,0.0,0.0
25008,39.0,52.0,240.0,10.0,0.0
25009,58.0,0.0,60.0,13.0,0.0
25010,43.0,0.0,210.0,8.0,0.0
25011,43.0,0.0,210.0,14.0,0.0
25012,51.0,0.0,210.0,7.0,0.0
25013,51.0,0.0,210.0,5.0,0.0
25014,63.0,0.0,210.0,5.0,0.0
25015,75.0,0.0,60.0,11.0,0.0
25016,70.0,0.0,210.0,1.0,0.0
25017,61.0,0.0,210.0,4.0,0.0
25018,73.0,0.0,210.0,1.0,0.0
25019,31.0,7.0,210.0,3.0,0.0
25020,63.0,60.0,60.0,12.0,0.0
25021,43.0,0.0,210.0,3.0,0.0
25022,55.0,0.0,210.0,3.0,0.0
25023,58.0,60.0,60.0,13.0,0.0
25024,75.0,0.0,60.0,11.0,0.0
25025,61.0,0.0,60.0,13.0,0.0
25026,63.0,0.0,60.0,12.0,0.0
25027,61.0,0.0,60.0,13.0,0.0
25028,58.0,53.0,60.0,13.0,0.0
25029,75.0,0.0,60.0,11.0,0.0
25030,63.0,0.0,60.0,12.0,0.0
25031,61.0,0.0,60.0,13.0,0.0
25032,58.0,0.0,60.0,13.0,0.0
25033,75.0,8.0,60.0,11.0,0.0
25034,63.0,0.0,60.0,12.0,0.0
25035,61.0,0.0,690.0,2.0,0.0
25036,70.0,0.0,690.0,2.0,0.0
25037,58.0,0.0,690.0,7.0,0.0
25038,51.0,0.0,690.0,4.0,0.0
25039,43.0,0.0,690.0,3.0,0.0
25040,43.0,0.0,690.0,8.0,0.0
25041,63.0,0.0,690.0,5.0,0.0
25042,85.0,0.0,60.0,11.0,0.0
25043,31.0,0.0,690.0,3.0,0.0
25044,51.0,0.0,690.0,5.0,0.0
25045,43.0,0.0,60.0,14.0,0.0
25046,73.0,0.0,60.0,12.0,0.0
25047,82.0,0.0,690.0,0.0,0.0
25048,31.0,52.0,60.0,15.0,0.0
25049,85.0,0.0,690.0,0.0,0.0
25050,58.0,8.0,60.0,13.0,0.0
25051,61.0,0.0,690.0,6.0,0.0
25052,39.0,52.0,240.0,10.0,0.0
25053,51.0,0.0,60.0,13.0,0.0
25054,73.0,0.0,690.0,1.0,0.0
25055,55.0,0.0,690.0,3.0,0.0
25056,75.0,7.0,690.0,1.0,0.0
25057,58.0,0.0,690.0,4.0,0.0
25058,85.0,0.0,60.0,11.0,0.0
25059,43.0,0.0,630.0,14.0,0.0
25060,51.0,60.0,60.0,13.0,0.0
25061,73.0,0.0,60.0,12.0,0.0
25062,31.0,0.0,630.0,15.0,0.0
25063,58.0,0.0,60.0,13.0,0.0
25064,73.0,0.0,60.0,12.0,0.0
25065,85.0,0.0,60.0,11.0,0.0
25066,51.0,60.0,60.0,13.0,0.0
25067,58.0,0.0,60.0,13.0,0.0
25068,73.0,0.0,60.0,12.0,0.0
25069,58.0,0.0,60.0,13.0,0.0
25070,51.0,8.0,60.0,13.0,0.0
25071,85.0,0.0,60.0,11.0,0.0
25072,85.0,60.0,60.0,11.0,0.0
25073,51.0,0.0,60.0,13.0,0.0
25074,73.0,0.0,60.0,12.0,0.0
25075,58.0,0.0,60.0,13.0,0.0
25076,51.0,60.0,60.0,13.0,0.0
25077,85.0,0.0,60.0,11.0,0.0
25078,73.0,0.0,60.0,12.0,0.0
25079,58.0,0.0,60.0,13.0,0.0
25080,85.0,0.0,60.0,11.0,0.0
25081,73.0,0.0,60.0,12.0,0.0
25082,51.0,0.0,60.0,13.0,0.0
25083,58.0,60.0,60.0,13.0,0.0
25084,58.0,0.0,60.0,13.0,0.0
25085,51.0,0.0,60.0,13.0,0.0
25086,73.0,60.0,60.0,12.0,0.0
25087,85.0,0.0,60.0,11.0,0.0
25088,85.0,0.0,60.0,11.0,0.0
25089,58.0,0.0,60.0,13.0,0.0
25090,73.0,0.0,60.0,12.0,0.0
25091,51.0,60.0,60.0,13.0,0.0
25092,85.0,0.0,60.0,11.0,0.0
25093,51.0,0.0,60.0,13.0,0.0
25094,58.0,0.0,60.0,13.0,0.0
25095,73.0,60.0,60.0,12.0,0.0
25096,58.0,0.0,60.0,13.0,0.0
25097,73.0,53.0,60.0,12.0,0.0
25098,51.0,0.0,60.0,13.0,0.0
25099,85.0,0.0,60.0,11.0,0.0
25100,85.0,0.0,60.0,11.0,0.0
25101,51.0,0.0,60.0,13.0,0.0
25102,58.0,0.0,60.0,13.0,0.0
25103,73.0,60.0,60.0,12.0,0.0
25104,51.0,0.0,60.0,13.0,0.0
25105,84.0,0.0,60.0,11.0,0.0
25106,56.0,0.0,210.0,5.0,0.0
25107,56.0,0.0,210.0,7.0,0.0
25108,72.0,60.0,60.0,12.0,0.0
25109,32.0,0.0,210.0,15.0,0.0
25110,84.0,0.0,210.0,0.0,0.0
25111,44.0,0.0,210.0,8.0,0.0
25112,80.0,0.0,210.0,0.0,0.0
25113,44.0,52.0,240.0,10.0,0.0
25114,68.0,0.0,210.0,5.0,0.0
25115,32.0,7.0,210.0,3.0,0.0
25116,44.0,0.0,210.0,3.0,0.0
25117,44.0,0.0,210.0,14.0,0.0
25118,48.0,0.0,210.0,4.0,0.0
25119,60.0,0.0,210.0,6.0,0.0
25120,56.0,0.0,210.0,4.0,0.0
25121,56.0,0.0,60.0,13.0,0.0
25122,68.0,0.0,210.0,2.0,0.0
25123,60.0,0.0,210.0,2.0,0.0
25124,75.0,0.0,210.0,1.0,0.0
25125,72.0,0.0,210.0,1.0,0.0
25126,56.0,0.0,210.0,3.0,0.0
25127,56.0,0.0,60.0,13.0,0.0
25128,72.0,60.0,60.0,12.0,0.0
25129,51.0,0.0,60.0,13.0,0.0
25130,84.0,0.0,60.0,11.0,0.0
25131,84.0,0.0,60.0,11.0,0.0
25132,56.0,0.0,60.0,13.0,0.0
25133,51.0,0.0,60.0,13.0,0.0
25134,72.0,53.0,60.0,12.0,0.0
25135,72.0,0.0,60.0,12.0,0.0
25136,84.0,0.0,60.0,11.0,0.0
25137,51.0,8.0,60.0,13.0,0.0
25138,56.0,0.0,60.0,13.0,0.0
25139,70.0,0.0,210.0,1.0,0.0
25140,56.0,7.0,210.0,4.0,0.0
25141,44.0,0.0,210.0,4.0,0.0
25142,25.0,0.0,210.0,15.0,0.0
25143,82.0,0.0,60.0,11.0,0.0
25144,56.0,0.0,210.0,5.0,0.0
25145,68.0,0.0,210.0,5.0,0.0
25146,49.0,0.0,210.0,3.0,0.0
25147,37.0,0.0,210.0,3.0,0.0
25148,82.0,0.0,210.0,0.0,0.0
25149,77.0,0.0,210.0,0.0,0.0
25150,70.0,60.0,60.0,12.0,0.0
25151,49.0,0.0,210.0,8.0,0.0
25152,53.0,0.0,60.0,13.0,0.0
25153,49.0,0.0,60.0,13.0,0.0
25154,58.0,0.0,210.0,6.0,0.0
25155,25.0,0.0,210.0,3.0,0.0
25156,70.0,0.0,210.0,2.0,0.0
25157,65.0,0.0,210.0,2.0,0.0
25158,37.0,0.0,210.0,14.0,0.0
25159,44.0,52.0,240.0,10.0,0.0
25160,53.0,0.0,210.0,7.0,0.0
25161,77.0,0.0,210.0,1.0,0.0
25162,49.0,0.0,60.0,13.0,0.0
25163,53.0,0.0,60.0,13.0,0.0
25164,82.0,60.0,60.0,11.0,0.0
25165,70.0,0.0,60.0,12.0,0.0
25166,70.0,53.0,60.0,12.0,0.0
25167,82.0,0.0,60.0,11.0,0.0
25168,49.0,0.0,60.0,13.0,0.0
25169,53.0,0.0,60.0,13.0,0.0
25170,53.0,8.0,60.0,13.0,0.0
25171,49.0,0.0,60.0,13.0,0.0
25172,70.0,0.0,60.0,12.0,0.0
25173,82.0,0.0,60.0,11.0,0.0
25174,51.0,0.0,210.0,5.0,0.0
25175,24.0,0.0,210.0,15.0,0.0
25176,63.0,0.0,210.0,5.0,0.0
25177,69.0,0.0,210.0,1.0,0.0
25178,36.0,0.0,210.0,14.0,0.0
25179,78.0,0.0,210.0,1.0,0.0
25180,54.0,0.0,60.0,13.0,0.0
25181,51.0,0.0,60.0,13.0,0.0
25182,81.0,60.0,60.0,11.0,0.0
25183,24.0,0.0,210.0,3.0,0.0
25184,78.0,0.0,210.0,0.0,0.0
25185,81.0,0.0,210.0,0.0,0.0
25186,66.0,7.0,210.0,2.0,0.0
25187,63.0,0.0,210.0,2.0,0.0
25188,66.0,0.0,210.0,6.0,0.0
25189,51.0,0.0,210.0,7.0,0.0
25190,51.0,0.0,210.0,3.0,0.0
25191,48.0,0.0,210.0,4.0,0.0
25192,69.0,0.0,60.0,12.0,0.0
25193,48.0,0.0,210.0,8.0,0.0
25194,39.0,52.0,240.0,10.0,0.0
25195,60.0,0.0,210.0,4.0,0.0
25196,48.0,0.0,210.0,3.0,0.0
25197,69.0,0.0,60.0,12.0,0.0
25198,81.0,0.0,60.0,11.0,0.0
25199,51.0,0.0,60.0,13.0,0.0
25200,54.0,60.0,60.0,13.0,0.0
25201,69.0,0.0,60.0,12.0,0.0
25202,54.0,0.0,60.0,13.0,0.0
25203,81.0,0.0,60.0,11.0,0.0
25204,51.0,53.0,60.0,13.0,0.0
25205,51.0,0.0,60.0,13.0,0.0
25206,69.0,0.0,60.0,12.0,0.0
25207,81.0,0.0,60.0,11.0,0.0
25208,54.0,8.0,60.0,13.0,0.0
25209,48.0,0.0,210.0,3.0,0.0
25210,81.0,60.0,60.0,11.0,0.0
25211,39.0,52.0,240.0,10.0,0.0
25212,69.0,0.0,60.0,12.0,0.0
25213,51.0,0.0,210.0,3.0,0.0
25214,81.0,7.0,210.0,0.0,0.0
25215,78.0,0.0,210.0,1.0,0.0
25216,78.0,0.0,210.0,0.0,0.0
25217,48.0,0.0,210.0,8.0,0.0
25218,36.0,0.0,210.0,14.0,0.0
25219,54.0,0.0,60.0,13.0,0.0
25220,24.0,0.0,210.0,3.0,0.0
25221,66.0,0.0,210.0,2.0,0.0
25222,51.0,0.0,210.0,7.0,0.0
25223,51.0,0.0,60.0,13.0,0.0
25224,69.0,0.0,210.0,1.0,0.0
25225,63.0,0.0,210.0,2.0,0.0
25226,63.0,0.0,210.0,5.0,0.0
25227,48.0,0.0,210.0,4.0,0.0
25228,60.0,0.0,210.0,4.0,0.0
25229,66.0,0.0,210.0,6.0,0.0
25230,51.0,0.0,210.0,5.0,0.0
25231,24.0,0.0,210.0,15.0,0.0
25232,81.0,60.0,60.0,11.0,0.0
25233,51.0,0.0,60.0,13.0,0.0
25234,54.0,0.0,60.0,13.0,0.0
25235,69.0,0.0,60.0,12.0,0.0
25236,81.0,0.0,60.0,11.0,0.0
25237,54.0,53.0,60.0,13.0,0.0
25238,51.0,0.0,60.0,13.0,0.0
25239,69.0,0.0,60.0,12.0,0.0
25240,81.0,0.0,60.0,11.0,0.0
25241,54.0,0.0,60.0,13.0,0.0
25242,69.0,8.0,60.0,12.0,0.0
25243,51.0,0.0,60.0,13.0,0.0
25244,66.0,0.0,210.0,2.0,0.0
25245,63.0,0.0,210.0,5.0,0.0
25246,63.0,0.0,210.0,2.0,0.0
25247,36.0,0.0,210.0,14.0,0.0
25248,48.0,7.0,210.0,8.0,0.0
25249,51.0,0.0,210.0,5.0,0.0
25250,51.0,0.0,210.0,7.0,0.0
25251,39.0,52.0,240.0,10.0,0.0
25252,24.0,0.0,210.0,15.0,0.0
25253,69.0,0.0,60.0,12.0,0.0
25254,48.0,0.0,210.0,3.0,0.0
25255,69.0,0.0,210.0,1.0,0.0
25256,66.0,0.0,210.0,6.0,0.0
25257,78.0,0.0,210.0,1.0,0.0
25258,78.0,0.0,210.0,0.0,0.0
25259,81.0,0.0,210.0,0.0,0.0
25260,24.0,0.0,210.0,3.0,0.0
25261,81.0,60.0,60.0,11.0,0.0
25262,48.0,0.0,210.0,4.0,0.0
25263,51.0,0.0,210.0,3.0,0.0
25264,60.0,0.0,210.0,4.0,0.0
25265,51.0,0.0,60.0,13.0,0.0
25266,54.0,0.0,60.0,13.0,0.0
25267,51.0,0.0,60.0,13.0,0.0
25268,81.0,0.0,60.0,11.0,0.0
25269,54.0,60.0,60.0,13.0,0.0
25270,69.0,0.0,60.0,12.0,0.0
25271,81.0,0.0,60.0,11.0,0.0
25272,54.0,0.0,60.0,13.0,0.0
25273,51.0,0.0,60.0,13.0,0.0
25274,69.0,53.0,60.0,12.0,0.0
25275,81.0,0.0,60.0,11.0,0.0
25276,51.0,0.0,60.0,13.0,0.0
25277,69.0,8.0,60.0,12.0,0.0
25278,54.0,0.0,60.0,13.0,0.0
25279,66.0,0.0,210.0,2.0,0.0
25280,81.0,0.0,60.0,11.0,0.0
25281,63.0,0.0,210.0,5.0,0.0
25282,48.0,0.0,210.0,8.0,0.0
25283,36.0,0.0,210.0,14.0,0.0
25284,54.0,0.0,60.0,13.0,0.0
25285,81.0,0.0,210.0,0.0,0.0
25286,39.0,52.0,240.0,10.0,0.0
25287,63.0,0.0,210.0,2.0,0.0
25288,24.0,0.0,210.0,15.0,0.0
25289,51.0,0.0,60.0,13.0,0.0
25290,78.0,0.0,210.0,0.0,0.0
25291,51.0,0.0,210.0,5.0,0.0
25292,66.0,0.0,210.0,6.0,0.0
25293,78.0,7.0,210.0,1.0,0.0
25294,69.0,0.0,210.0,1.0,0.0
25295,51.0,0.0,210.0,7.0,0.0
25296,48.0,0.0,210.0,3.0,0.0
25297,51.0,0.0,210.0,3.0,0.0
25298,24.0,0.0,210.0,3.0,0.0
25299,60.0,0.0,210.0,4.0,0.0
25300,48.0,0.0,210.0,4.0,0.0
25301,69.0,60.0,60.0,12.0,0.0
25302,54.0,0.0,60.0,13.0,0.0
25303,51.0,0.0,60.0,13.0,0.0
25304,81.0,0.0,60.0,11.0,0.0
25305,69.0,60.0,60.0,12.0,0.0
25306,51.0,0.0,60.0,13.0,0.0
25307,81.0,0.0,60.0,11.0,0.0
25308,54.0,0.0,60.0,13.0,0.0
25309,69.0,53.0,60.0,12.0,0.0
25310,69.0,8.0,60.0,12.0,0.0
25311,54.0,0.0,60.0,13.0,0.0
25312,81.0,0.0,60.0,11.0,0.0
25313,51.0,0.0,60.0,13.0,0.0
25314,48.0,0.0,210.0,4.0,0.0
25315,69.0,0.0,60.0,12.0,0.0
25316,72.0,0.0,60.0,12.0,0.0
25317,66.0,0.0,210.0,6.0,0.0
25318,48.0,0.0,210.0,8.0,0.0
25319,69.0,0.0,210.0,2.0,0.0
25320,81.0,0.0,210.0,1.0,0.0
25321,51.0,0.0,60.0,13.0,0.0
25322,54.0,0.0,60.0,13.0,0.0
25323,54.0,0.0,210.0,3.0,0.0
25324,24.0,7.0,210.0,3.0,0.0
25325,24.0,0.0,210.0,15.0,0.0
25326,78.0,0.0,210.0,1.0,0.0
25327,60.0,0.0,210.0,4.0,0.0
25328,84.0,60.0,60.0,11.0,0.0
25329,51.0,0.0,210.0,5.0,0.0
25330,63.0,0.0,210.0,5.0,0.0
25331,39.0,52.0,240.0,10.0,0.0
25332,84.0,0.0,210.0,0.0,0.0
25333,81.0,0.0,210.0,0.0,0.0
25334,51.0,0.0,210.0,3.0,0.0
25335,66.0,0.0,210.0,2.0,0.0
25336,36.0,0.0,210.0,14.0,0.0
25337,51.0,0.0,210.0,7.0,0.0
25338,54.0,0.0,60.0,13.0,0.0
25339,51.0,60.0,60.0,13.0,0.0
25340,72.0,0.0,60.0,12.0,0.0
25341,84.0,0.0,60.0,11.0,0.0
25342,69.0,0.0,60.0,12.0,0.0
25343,54.0,0.0,60.0,13.0,0.0
25344,72.0,0.0,60.0,12.0,0.0
25345,69.0,0.0,60.0,12.0,0.0
25346,84.0,53.0,60.0,11.0,0.0
25347,51.0,0.0,60.0,13.0,0.0
25348,51.0,0.0,60.0,13.0,0.0
25349,54.0,0.0,60.0,13.0,0.0
25350,69.0,0.0,60.0,12.0,0.0
25351,84.0,0.0,60.0,11.0,0.0
25352,72.0,8.0,60.0,12.0,0.0
25353,84.0,0.0,210.0,0.0,0.0
25354,54.0,60.0,60.0,13.0,0.0
25355,51.0,0.0,60.0,13.0,0.0
25356,63.0,0.0,210.0,5.0,0.0
25357,81.0,0.0,210.0,1.0,0.0
25358,51.0,0.0,210.0,3.0,0.0
25359,54.0,0.0,210.0,3.0,0.0
25360,72.0,0.0,60.0,12.0,0.0
25361,51.0,0.0,210.0,5.0,0.0
25362,69.0,0.0,60.0,12.0,0.0
25363,81.0,0.0,210.0,0.0,0.0
25364,36.0,7.0,210.0,14.0,0.0
25365,60.0,0.0,210.0,4.0,0.0
25366,24.0,0.0,210.0,3.0,0.0
25367,48.0,0.0,210.0,8.0,0.0
25368,66.0,0.0,210.0,2.0,0.0
25369,69.0,0.0,210.0,2.0,0.0
25370,24.0,0.0,210.0,15.0,0.0
25371,39.0,52.0,240.0,10.0,0.0
25372,51.0,0.0,210.0,7.0,0.0
25373,48.0,0.0,210.0,4.0,0.0
25374,78.0,0.0,210.0,1.0,0.0
25375,84.0,0.0,60.0,11.0,0.0
25376,66.0,0.0,210.0,6.0,0.0
25377,72.0,60.0,60.0,12.0,0.0
25378,51.0,0.0,60.0,13.0,0.0
25379,54.0,0.0,60.0,13.0,0.0
25380,84.0,0.0,60.0,11.0,0.0
25381,69.0,0.0,60.0,12.0,0.0
25382,69.0,0.0,60.0,12.0,0.0
25383,72.0,0.0,60.0,12.0,0.0
25384,51.0,0.0,60.0,13.0,0.0
25385,84.0,53.0,60.0,11.0,0.0
25386,54.0,0.0,60.0,13.0,0.0
25387,72.0,0.0,60.0,12.0,0.0
25388,69.0,0.0,60.0,12.0,0.0
25389,84.0,0.0,60.0,11.0,0.0
25390,54.0,8.0,60.0,13.0,0.0
25391,51.0,0.0,60.0,13.0,0.0
25392,24.0,0.0,210.0,3.0,0.0
25393,48.0,0.0,210.0,8.0,0.0
25394,51.0,0.0,210.0,5.0,0.0
25395,78.0,0.0,210.0,1.0,0.0
25396,81.0,0.0,210.0,0.0,0.0
25397,24.0,0.0,210.0,15.0,0.0
25398,69.0,60.0,60.0,12.0,0.0
25399,63.0,0.0,210.0,5.0,0.0
25400,66.0,0.0,210.0,6.0,0.0
25401,84.0,0.0,210.0,0.0,0.0
25402,51.0,0.0,210.0,7.0,0.0
25403,36.0,0.0,210.0,14.0,0.0
25404,84.0,0.0,60.0,11.0,0.0
25405,69.0,7.0,210.0,2.0,0.0
25406,66.0,0.0,210.0,2.0,0.0
25407,60.0,0.0,210.0,4.0,0.0
25408,51.0,0.0,60.0,13.0,0.0
25409,48.0,0.0,210.0,4.0,0.0
25410,51.0,0.0,210.0,3.0,0.0
25411,54.0,0.0,210.0,3.0,0.0
25412,72.0,0.0,60.0,12.0,0.0
25413,39.0,52.0,240.0,10.0,0.0
25414,54.0,0.0,60.0,13.0,0.0
25415,81.0,0.0,210.0,1.0,0.0
25416,72.0,0.0,60.0,12.0,0.0
25417,54.0,60.0,60.0,13.0,0.0
25418,51.0,0.0,60.0,13.0,0.0
25419,69.0,0.0,60.0,12.0,0.0
25420,84.0,0.0,60.0,11.0,0.0
25421,84.0,0.0,60.0,11.0,0.0
25422,69.0,0.0,60.0,12.0,0.0
25423,51.0,53.0,60.0,13.0,0.0
25424,54.0,0.0,60.0,13.0,0.0
25425,72.0,0.0,60.0,12.0,0.0
25426,51.0,0.0,60.0,13.0,0.0
25427,54.0,0.0,60.0,13.0,0.0
25428,84.0,0.0,60.0,11.0,0.0
25429,72.0,8.0,60.0,12.0,0.0
25430,69.0,0.0,60.0,12.0,0.0
25431,81.0,7.0,210.0,0.0,0.0
25432,54.0,0.0,60.0,13.0,0.0
25433,51.0,0.0,210.0,7.0,0.0
25434,72.0,60.0,60.0,12.0,0.0
25435,69.0,0.0,60.0,12.0,0.0
25436,48.0,0.0,210.0,4.0,0.0
25437,39.0,52.0,240.0,10.0,0.0
25438,60.0,0.0,210.0,4.0,0.0
25439,24.0,0.0,210.0,15.0,0.0
25440,36.0,0.0,210.0,14.0,0.0
25441,63.0,0.0,210.0,5.0,0.0
25442,51.0,0.0,60.0,13.0,0.0
25443,84.0,0.0,210.0,0.0,0.0
25444,51.0,0.0,210.0,5.0,0.0
25445,48.0,0.0,210.0,8.0,0.0
25446,81.0,0.0,210.0,1.0,0.0
25447,78.0,0.0,210.0,1.0,0.0
25448,66.0,0.0,210.0,6.0,0.0
25449,54.0,0.0,210.0,3.0,0.0
25450,66.0,0.0,210.0,2.0,0.0
25451,69.0,0.0,210.0,2.0,0.0
25452,24.0,0.0,210.0,3.0,0.0
25453,84.0,0.0,60.0,11.0,0.0
25454,51.0,0.0,210.0,3.0,0.0
25455,72.0,0.0,60.0,12.0,0.0
25456,54.0,0.0,60.0,13.0,0.0
25457,84.0,0.0,60.0,11.0,0.0
25458,51.0,0.0,60.0,13.0,0.0
25459,69.0,60.0,60.0,12.0,0.0
25460,72.0,53.0,60.0,12.0,0.0
25461,54.0,0.0,60.0,13.0,0.0
25462,84.0,0.0,60.0,11.0,0.0
25463,51.0,0.0,60.0,13.0,0.0
25464,69.0,0.0,60.0,12.0,0.0
25465,54.0,0.0,60.0,13.0,0.0
25466,51.0,0.0,60.0,13.0,0.0
25467,72.0,0.0,60.0,12.0,0.0
25468,69.0,0.0,60.0,12.0,0.0
25469,84.0,8.0,60.0,11.0,0.0
25470,78.0,7.0,210.0,1.0,0.0
25471,72.0,0.0,210.0,5.0,0.0
25472,84.0,0.0,210.0,0.0,0.0
25473,87.0,0.0,210.0,0.0,0.0
25474,54.0,0.0,210.0,3.0,0.0
25475,57.0,0.0,210.0,3.0,0.0
25476,60.0,0.0,210.0,5.0,0.0
25477,24.0,0.0,210.0,3.0,0.0
25478,66.0,0.0,210.0,2.0,0.0
25479,69.0,0.0,210.0,2.0,0.0
25480,48.0,0.0,210.0,8.0,0.0
25481,54.0,0.0,210.0,7.0,0.0
25482,66.0,0.0,210.0,6.0,0.0
25483,87.0,0.0,60.0,11.0,0.0
25484,81.0,0.0,210.0,1.0,0.0
25485,36.0,0.0,210.0,14.0,0.0
25486,51.0,60.0,60.0,13.0,0.0
25487,78.0,0.0,60.0,12.0,0.0
25488,39.0,52.0,240.0,10.0,0.0
25489,54.0,0.0,60.0,13.0,0.0
25490,69.0,0.0,60.0,12.0,0.0
25491,24.0,0.0,210.0,15.0,0.0
25492,48.0,0.0,210.0,4.0,0.0
25493,60.0,0.0,210.0,4.0,0.0
25494,51.0,0.0,60.0,13.0,0.0
25495,54.0,0.0,60.0,13.0,0.0
25496,78.0,60.0,60.0,12.0,0.0
25497,87.0,0.0,60.0,11.0,0.0
25498,69.0,0.0,60.0,12.0,0.0
25499,51.0,0.0,60.0,13.0,0.0
25500,54.0,53.0,60.0,13.0,0.0
25501,87.0,0.0,60.0,11.0,0.0
25502,69.0,0.0,60.0,12.0,0.0
25503,78.0,0.0,60.0,12.0,0.0
25504,51.0,0.0,60.0,13.0,0.0
25505,87.0,0.0,60.0,11.0,0.0
25506,78.0,8.0,60.0,12.0,0.0
25507,69.0,0.0,60.0,12.0,0.0
25508,54.0,0.0,60.0,13.0,0.0
25509,24.0,0.0,210.0,3.0,0.0
25510,87.0,0.0,60.0,11.0,0.0
25511,54.0,0.0,210.0,7.0,0.0
25512,84.0,7.0,210.0,0.0,0.0
25513,48.0,0.0,210.0,8.0,0.0
25514,72.0,0.0,210.0,5.0,0.0
25515,60.0,0.0,210.0,5.0,0.0
25516,66.0,0.0,210.0,6.0,0.0
25517,57.0,0.0,210.0,3.0,0.0
25518,48.0,0.0,210.0,4.0,0.0
25519,60.0,0.0,210.0,4.0,0.0
25520,36.0,0.0,210.0,14.0,0.0
25521,24.0,0.0,210.0,15.0,0.0
25522,54.0,0.0,210.0,3.0,0.0
25523,39.0,52.0,240.0,10.0,0.0
25524,87.0,0.0,210.0,0.0,0.0
25525,69.0,60.0,60.0,12.0,0.0
25526,51.0,0.0,60.0,13.0,0.0
25527,54.0,0.0,60.0,13.0,0.0
25528,69.0,0.0,210.0,2.0,0.0
25529,66.0,0.0,210.0,2.0,0.0
25530,78.0,0.0,210.0,1.0,0.0
25531,81.0,0.0,210.0,1.0,0.0
25532,78.0,0.0,60.0,12.0,0.0
25533,87.0,60.0,60.0,11.0,0.0
25534,51.0,0.0,60.0,13.0,0.0
25535,54.0,0.0,60.0,13.0,0.0
25536,78.0,0.0,60.0,12.0,0.0
25537,69.0,0.0,60.0,12.0,0.0
25538,69.0,0.0,60.0,12.0,0.0
25539,78.0,0.0,60.0,12.0,0.0
25540,87.0,53.0,60.0,11.0,0.0
25541,54.0,0.0,60.0,13.0,0.0
25542,51.0,0.0,60.0,13.0,0.0
25543,51.0,0.0,60.0,13.0,0.0
25544,54.0,0.0,60.0,13.0,0.0
25545,87.0,0.0,60.0,11.0,0.0
25546,69.0,0.0,60.0,12.0,0.0
25547,78.0,8.0,60.0,12.0,0.0
25548,60.0,0.0,210.0,4.0,0.0
25549,24.0,0.0,210.0,15.0,0.0
25550,78.0,0.0,210.0,1.0,0.0
25551,54.0,0.0,60.0,13.0,0.0
25552,69.0,0.0,210.0,2.0,0.0
25553,66.0,0.0,210.0,2.0,0.0
25554,72.0,0.0,210.0,5.0,0.0
25555,60.0,0.0,210.0,5.0,0.0
25556,81.0,0.0,210.0,1.0,0.0
25557,51.0,0.0,60.0,13.0,0.0
25558,78.0,60.0,60.0,12.0,0.0
25559,48.0,0.0,210.0,8.0,0.0
25560,36.0,0.0,210.0,14.0,0.0
25561,84.0,0.0,210.0,0.0,0.0
25562,54.0,0.0,210.0,7.0,0.0
25563,57.0,0.0,210.0,3.0,0.0
25564,54.0,7.0,210.0,3.0,0.0
25565,39.0,52.0,240.0,10.0,0.0
25566,87.0,0.0,60.0,11.0,0.0
25567,87.0,0.0,210.0,0.0,0.0
25568,66.0,0.0,210.0,6.0,0.0
25569,69.0,0.0,60.0,12.0,0.0
25570,24.0,0.0,210.0,3.0,0.0
25571,48.0,0.0,210.0,4.0,0.0
25572,51.0,0.0,60.0,13.0,0.0
25573,78.0,0.0,60.0,12.0,0.0
25574,69.0,0.0,60.0,12.0,0.0
25575,87.0,0.0,60.0,11.0,0.0
25576,54.0,60.0,60.0,13.0,0.0
25577,69.0,53.0,60.0,12.0,0.0
25578,54.0,0.0,60.0,13.0,0.0
25579,51.0,0.0,60.0,13.0,0.0
25580,87.0,0.0,60.0,11.0,0.0
25581,78.0,0.0,60.0,12.0,0.0
25582,51.0,0.0,60.0,13.0,0.0
25583,87.0,0.0,60.0,11.0,0.0
25584,78.0,0.0,60.0,12.0,0.0
25585,54.0,8.0,60.0,13.0,0.0
25586,69.0,0.0,60.0,12.0,0.0
25587,66.0,0.0,930.0,6.0,0.0
25588,49.0,0.0,930.0,8.0,0.0
25589,87.0,0.0,930.0,0.0,0.0
25590,84.0,0.0,930.0,0.0,0.0
25591,69.0,0.0,930.0,2.0,0.0
25592,81.0,0.0,930.0,1.0,0.0
25593,87.0,0.0,60.0,11.0,0.0
25594,60.0,7.0,930.0,4.0,0.0
25595,37.0,0.0,960.0,14.0,0.0
25596,69.0,0.0,60.0,12.0,0.0
25597,78.0,0.0,60.0,12.0,0.0
25598,54.0,0.0,930.0,7.0,0.0
25599,78.0,0.0,930.0,1.0,0.0
25600,57.0,0.0,930.0,3.0,0.0
25601,25.0,0.0,2850.0,3.0,0.0
25602,54.0,0.0,60.0,13.0,0.0
25603,49.0,60.0,60.0,13.0,0.0
25604,66.0,0.0,930.0,2.0,0.0
25605,60.0,0.0,930.0,5.0,0.0
25606,72.0,0.0,930.0,5.0,0.0
25607,25.0,52.0,960.0,15.0,0.0
25608,54.0,0.0,930.0,3.0,0.0
25609,87.0,0.0,60.0,11.0,0.0
25610,69.0,0.0,60.0,12.0,0.0
25611,54.0,60.0,60.0,13.0,0.0
25612,49.0,0.0,60.0,13.0,0.0
25613,78.0,0.0,60.0,12.0,0.0
25614,54.0,0.0,60.0,13.0,0.0
25615,78.0,60.0,60.0,12.0,0.0
25616,69.0,0.0,60.0,12.0,0.0
25617,87.0,0.0,60.0,11.0,0.0
25618,49.0,0.0,60.0,13.0,0.0
25619,69.0,0.0,60.0,12.0,0.0
25620,78.0,0.0,60.0,12.0,0.0
25621,87.0,60.0,60.0,11.0,0.0
25622,54.0,0.0,60.0,13.0,0.0
25623,49.0,0.0,60.0,13.0,0.0
25624,87.0,0.0,60.0,11.0,0.0
25625,78.0,0.0,60.0,12.0,0.0
25626,54.0,0.0,60.0,13.0,0.0
25627,49.0,60.0,60.0,13.0,0.0
25628,69.0,0.0,60.0,12.0,0.0
25629,87.0,0.0,60.0,11.0,0.0
25630,78.0,0.0,60.0,12.0,0.0
25631,69.0,0.0,60.0,12.0,0.0
25632,49.0,60.0,60.0,13.0,0.0
25633,54.0,0.0,60.0,13.0,0.0
25634,87.0,60.0,60.0,11.0,0.0
25635,54.0,0.0,60.0,13.0,0.0
25636,49.0,0.0,60.0,13.0,0.0
25637,69.0,0.0,60.0,12.0,0.0
25638,78.0,0.0,60.0,12.0,0.0
25639,69.0,0.0,60.0,12.0,0.0
25640,78.0,0.0,60.0,12.0,0.0
25641,87.0,60.0,60.0,11.0,0.0
25642,49.0,0.0,60.0,13.0,0.0
25643,54.0,0.0,60.0,13.0,0.0
25644,78.0,0.0,60.0,12.0,0.0
25645,87.0,0.0,60.0,11.0,0.0
25646,69.0,0.0,60.0,12.0,0.0
25647,49.0,60.0,60.0,13.0,0.0
25648,54.0,0.0,60.0,13.0,0.0
25649,54.0,60.0,60.0,13.0,0.0
25650,49.0,0.0,60.0,13.0,0.0
25651,69.0,0.0,60.0,12.0,0.0
25652,78.0,0.0,60.0,12.0,0.0
25653,87.0,0.0,60.0,11.0,0.0
25654,87.0,0.0,60.0,11.0,0.0
25655,49.0,0.0,60.0,13.0,0.0
25656,69.0,0.0,60.0,12.0,0.0
25657,78.0,0.0,60.0,12.0,0.0
25658,54.0,60.0,60.0,13.0,0.0
25659,87.0,0.0,60.0,11.0,0.0
25660,78.0,60.0,60.0,12.0,0.0
25661,69.0,0.0,60.0,12.0,0.0
25662,54.0,0.0,60.0,13.0,0.0
25663,49.0,0.0,60.0,13.0,0.0
25664,78.0,0.0,60.0,12.0,0.0
25665,54.0,0.0,60.0,13.0,0.0
25666,49.0,0.0,60.0,13.0,0.0
25667,87.0,60.0,60.0,11.0,0.0
25668,69.0,0.0,60.0,12.0,0.0
25669,87.0,60.0,60.0,11.0,0.0
25670,78.0,0.0,60.0,12.0,0.0
25671,69.0,0.0,60.0,12.0,0.0
25672,49.0,0.0,60.0,13.0,0.0
25673,54.0,0.0,60.0,13.0,0.0
25674,78.0,53.0,60.0,12.0,0.0
25675,69.0,0.0,60.0,12.0,0.0
25676,54.0,0.0,60.0,13.0,0.0
25677,49.0,0.0,60.0,13.0,0.0
25678,87.0,0.0,60.0,11.0,0.0
25679,49.0,0.0,60.0,13.0,0.0
25680,69.0,0.0,60.0,12.0,0.0
25681,78.0,0.0,60.0,12.0,0.0
25682,87.0,8.0,60.0,11.0,0.0
25683,54.0,0.0,60.0,13.0,0.0
25684,70.0,0.0,60.0,12.0,0.0
25685,61.0,0.0,1890.0,4.0,0.0
25686,70.0,0.0,930.0,2.0,0.0
25687,66.0,0.0,930.0,2.0,0.0
25688,54.0,0.0,60.0,13.0,0.0
25689,78.0,0.0,60.0,12.0,0.0
25690,49.0,60.0,60.0,13.0,0.0
25691,66.0,0.0,930.0,6.0,0.0
25692,85.0,0.0,60.0,11.0,0.0
25693,54.0,0.0,930.0,7.0,0.0
25694,49.0,7.0,930.0,8.0,0.0
25695,78.0,0.0,930.0,1.0,0.0
25696,58.0,0.0,930.0,3.0,0.0
25697,73.0,0.0,1890.0,5.0,0.0
25698,25.0,0.0,960.0,15.0,0.0
25699,54.0,0.0,930.0,3.0,0.0
25700,37.0,52.0,960.0,14.0,0.0
25701,85.0,0.0,930.0,0.0,0.0
25702,82.0,0.0,930.0,0.0,0.0
25703,82.0,0.0,930.0,1.0,0.0
25704,85.0,0.0,60.0,11.0,0.0
25705,78.0,0.0,60.0,12.0,0.0
25706,54.0,0.0,60.0,13.0,0.0
25707,49.0,60.0,60.0,13.0,0.0
25708,70.0,0.0,60.0,12.0,0.0
25709,85.0,0.0,60.0,11.0,0.0
25710,70.0,0.0,60.0,12.0,0.0
25711,78.0,60.0,60.0,12.0,0.0
25712,54.0,0.0,60.0,13.0,0.0
25713,49.0,0.0,60.0,13.0,0.0
25714,49.0,0.0,60.0,13.0,0.0
25715,54.0,0.0,60.0,13.0,0.0
25716,78.0,60.0,60.0,12.0,0.0
25717,70.0,0.0,60.0,12.0,0.0
25718,85.0,0.0,60.0,11.0,0.0
25719,54.0,0.0,60.0,13.0,0.0
25720,49.0,0.0,60.0,13.0,0.0
25721,70.0,0.0,60.0,12.0,0.0
25722,78.0,60.0,60.0,12.0,0.0
25723,85.0,0.0,60.0,11.0,0.0
25724,54.0,0.0,60.0,13.0,0.0
25725,85.0,60.0,60.0,11.0,0.0
25726,78.0,0.0,60.0,12.0,0.0
25727,70.0,0.0,60.0,12.0,0.0
25728,49.0,0.0,60.0,13.0,0.0
25729,54.0,60.0,60.0,13.0,0.0
25730,49.0,0.0,60.0,13.0,0.0
25731,85.0,0.0,60.0,11.0,0.0
25732,70.0,0.0,60.0,12.0,0.0
25733,78.0,0.0,60.0,12.0,0.0
25734,49.0,0.0,60.0,13.0,0.0
25735,54.0,0.0,60.0,13.0,0.0
25736,70.0,60.0,60.0,12.0,0.0
25737,78.0,0.0,60.0,12.0,0.0
25738,85.0,0.0,60.0,11.0,0.0
25739,54.0,0.0,60.0,13.0,0.0
25740,49.0,0.0,60.0,13.0,0.0
25741,70.0,0.0,60.0,12.0,0.0
25742,85.0,0.0,60.0,11.0,0.0
25743,78.0,60.0,60.0,12.0,0.0
25744,78.0,0.0,60.0,12.0,0.0
25745,54.0,0.0,60.0,13.0,0.0
25746,70.0,0.0,60.0,12.0,0.0
25747,85.0,60.0,60.0,11.0,0.0
25748,49.0,0.0,60.0,13.0,0.0
25749,78.0,0.0,60.0,12.0,0.0
25750,70.0,0.0,60.0,12.0,0.0
25751,49.0,0.0,60.0,13.0,0.0
25752,85.0,60.0,60.0,11.0,0.0
25753,54.0,0.0,60.0,13.0,0.0
25754,70.0,0.0,60.0,12.0,0.0
25755,85.0,0.0,60.0,11.0,0.0
25756,78.0,60.0,60.0,12.0,0.0
25757,54.0,0.0,60.0,13.0,0.0
25758,49.0,0.0,60.0,13.0,0.0
25759,85.0,0.0,60.0,11.0,0.0
25760,49.0,0.0,60.0,13.0,0.0
25761,54.0,0.0,60.0,13.0,0.0
25762,78.0,60.0,60.0,12.0,0.0
25763,70.0,0.0,60.0,12.0,0.0
25764,78.0,60.0,60.0,12.0,0.0
25765,85.0,0.0,60.0,11.0,0.0
25766,54.0,0.0,60.0,13.0,0.0
25767,49.0,0.0,60.0,13.0,0.0
25768,70.0,0.0,60.0,12.0,0.0
25769,78.0,53.0,60.0,12.0,0.0
25770,49.0,0.0,60.0,13.0,0.0
25771,54.0,0.0,60.0,13.0,0.0
25772,70.0,0.0,60.0,12.0,0.0
25773,85.0,0.0,60.0,11.0,0.0
25774,54.0,0.0,60.0,13.0,0.0
25775,49.0,8.0,60.0,13.0,0.0
25776,70.0,0.0,60.0,12.0,0.0
25777,85.0,0.0,60.0,11.0,0.0
25778,78.0,0.0,60.0,12.0,0.0
25779,82.0,0.0,930.0,1.0,0.0
25780,79.0,0.0,930.0,1.0,0.0
25781,67.0,0.0,930.0,6.0,0.0
25782,85.0,0.0,930.0,0.0,0.0
25783,25.0,0.0,930.0,15.0,0.0
25784,82.0,0.0,930.0,0.0,0.0
25785,37.0,0.0,930.0,14.0,0.0
25786,55.0,0.0,930.0,7.0,0.0
25787,55.0,0.0,930.0,3.0,0.0
25788,79.0,0.0,60.0,12.0,0.0
25789,70.0,0.0,60.0,12.0,0.0
25790,70.0,0.0,930.0,2.0,0.0
25791,67.0,0.0,930.0,2.0,0.0
25792,49.0,7.0,930.0,8.0,0.0
25793,55.0,0.0,60.0,13.0,0.0
25794,49.0,0.0,60.0,13.0,0.0
25795,58.0,0.0,930.0,3.0,0.0
25796,85.0,60.0,60.0,11.0,0.0
25797,85.0,60.0,60.0,11.0,0.0
25798,70.0,0.0,60.0,12.0,0.0
25799,79.0,0.0,60.0,12.0,0.0
25800,49.0,0.0,60.0,13.0,0.0
25801,55.0,0.0,60.0,13.0,0.0
25802,49.0,0.0,60.0,13.0,0.0
25803,70.0,0.0,60.0,12.0,0.0
25804,85.0,0.0,60.0,11.0,0.0
25805,79.0,0.0,60.0,12.0,0.0
25806,55.0,60.0,60.0,13.0,0.0
25807,49.0,0.0,60.0,13.0,0.0
25808,55.0,0.0,60.0,13.0,0.0
25809,85.0,60.0,60.0,11.0,0.0
25810,70.0,0.0,60.0,12.0,0.0
25811,79.0,0.0,60.0,12.0,0.0
25812,55.0,0.0,60.0,13.0,0.0
25813,49.0,60.0,60.0,13.0,0.0
25814,70.0,0.0,60.0,12.0,0.0
25815,79.0,0.0,60.0,12.0,0.0
25816,85.0,0.0,60.0,11.0,0.0
25817,55.0,0.0,60.0,13.0,0.0
25818,49.0,0.0,60.0,13.0,0.0
25819,79.0,0.0,60.0,12.0,0.0
25820,70.0,0.0,60.0,12.0,0.0
25821,85.0,60.0,60.0,11.0,0.0
25822,85.0,60.0,60.0,11.0,0.0
25823,79.0,0.0,60.0,12.0,0.0
25824,55.0,0.0,60.0,13.0,0.0
25825,49.0,0.0,60.0,13.0,0.0
25826,70.0,0.0,60.0,12.0,0.0
25827,79.0,0.0,60.0,12.0,0.0
25828,70.0,60.0,60.0,12.0,0.0
25829,55.0,0.0,60.0,13.0,0.0
25830,49.0,0.0,60.0,13.0,0.0
25831,85.0,0.0,60.0,11.0,0.0
25832,79.0,0.0,60.0,12.0,0.0
25833,70.0,0.0,60.0,12.0,0.0
25834,85.0,0.0,60.0,11.0,0.0
25835,49.0,60.0,60.0,13.0,0.0
25836,55.0,0.0,60.0,13.0,0.0
25837,79.0,0.0,60.0,12.0,0.0
25838,85.0,0.0,60.0,11.0,0.0
25839,49.0,0.0,60.0,13.0,0.0
25840,70.0,60.0,60.0,12.0,0.0
25841,55.0,0.0,60.0,13.0,0.0
25842,85.0,0.0,60.0,11.0,0.0
25843,70.0,0.0,60.0,12.0,0.0
25844,49.0,0.0,60.0,13.0,0.0
25845,79.0,60.0,60.0,12.0,0.0
25846,55.0,0.0,60.0,13.0,0.0
25847,49.0,60.0,60.0,13.0,0.0
25848,85.0,0.0,60.0,11.0,0.0
25849,79.0,0.0,60.0,12.0,0.0
25850,55.0,0.0,60.0,13.0,0.0
25851,70.0,0.0,60.0,12.0,0.0
25852,85.0,60.0,60.0,11.0,0.0
25853,49.0,0.0,60.0,13.0,0.0
25854,55.0,0.0,60.0,13.0,0.0
25855,79.0,0.0,60.0,12.0,0.0
25856,70.0,0.0,60.0,12.0,0.0
25857,70.0,60.0,60.0,12.0,0.0
25858,55.0,0.0,60.0,13.0,0.0
25859,49.0,0.0,60.0,13.0,0.0
25860,85.0,0.0,60.0,11.0,0.0
25861,79.0,0.0,60.0,12.0,0.0
25862,79.0,0.0,60.0,12.0,0.0
25863,70.0,0.0,60.0,12.0,0.0
25864,55.0,53.0,60.0,13.0,0.0
25865,85.0,0.0,60.0,11.0,0.0
25866,49.0,0.0,60.0,13.0,0.0
25867,70.0,48.0,60.0,12.0,0.0
25868,79.0,0.0,60.0,12.0,0.0
25869,85.0,0.0,60.0,11.0,0.0
25870,49.0,0.0,60.0,13.0,0.0
25871,55.0,0.0,60.0,13.0,0.0
25872,59.0,7.0,1890.0,3.0,0.0
25873,26.0,0.0,1890.0,3.0,0.0
25874,68.0,7.0,930.0,6.0,0.0
25875,83.0,0.0,1890.0,0.0,0.0
25876,80.0,0.0,1890.0,0.0,0.0
25877,68.0,0.0,1890.0,2.0,0.0
25878,80.0,0.0,1890.0,1.0,0.0
25879,71.0,0.0,1890.0,1.0,0.0
25880,83.0,28.0,60.0,11.0,0.0
25881,71.0,0.0,1890.0,2.0,0.0
25882,56.0,0.0,1890.0,3.0,0.0
25883,56.0,0.0,1890.0,4.0,0.0
25884,56.0,0.0,1890.0,7.0,0.0
25885,26.0,0.0,960.0,15.0,0.0
25886,71.0,0.0,60.0,12.0,0.0
25887,50.0,0.0,1890.0,8.0,0.0
25888,44.0,12.0,40.0,10.0,0.0
25889,56.0,0.0,1890.0,5.0,0.0
25890,50.0,0.0,60.0,13.0,0.0
25891,68.0,0.0,1890.0,5.0,0.0
25892,56.0,0.0,60.0,13.0,0.0
25893,38.0,0.0,960.0,14.0,0.0
25894,44.0,0.0,1890.0,4.0,0.0
25895,80.0,0.0,60.0,12.0,0.0
25896,44.0,32.0,40.0,10.0,0.0
25897,71.0,0.0,60.0,12.0,0.0
25898,80.0,0.0,60.0,12.0,0.0
25899,56.0,0.0,60.0,13.0,0.0
25900,83.0,0.0,60.0,11.0,0.0
25901,50.0,8.0,60.0,13.0,0.0
25902,44.0,40.0,40.0,10.0,0.0
25903,50.0,0.0,60.0,13.0,0.0
25904,83.0,0.0,60.0,11.0,0.0
25905,71.0,0.0,60.0,12.0,0.0
25906,44.0,12.0,40.0,10.0,0.0
25907,56.0,0.0,60.0,13.0,0.0
25908,80.0,28.0,60.0,12.0,0.0
25909,44.0,32.0,40.0,10.0,0.0
25910,50.0,0.0,60.0,13.0,0.0
25911,56.0,0.0,60.0,13.0,0.0
25912,80.0,0.0,60.0,12.0,0.0
25913,71.0,8.0,60.0,12.0,0.0
25914,83.0,0.0,60.0,11.0,0.0
25915,44.0,40.0,40.0,10.0,0.0
25916,83.0,0.0,60.0,11.0,0.0
25917,44.0,12.0,40.0,10.0,0.0
25918,50.0,0.0,60.0,13.0,0.0
25919,80.0,28.0,60.0,12.0,0.0
25920,71.0,0.0,60.0,12.0,0.0
25921,56.0,0.0,60.0,13.0,0.0
25922,44.0,32.0,40.0,10.0,0.0
25923,83.0,0.0,60.0,11.0,0.0
25924,80.0,0.0,60.0,12.0,0.0
25925,71.0,0.0,60.0,12.0,0.0
25926,56.0,8.0,60.0,13.0,0.0
25927,50.0,0.0,60.0,13.0,0.0
25928,44.0,40.0,40.0,10.0,0.0
25929,50.0,0.0,60.0,13.0,0.0
25930,71.0,0.0,60.0,12.0,0.0
25931,80.0,0.0,60.0,12.0,0.0
25932,44.0,12.0,40.0,10.0,0.0
25933,83.0,28.0,60.0,11.0,0.0
25934,56.0,0.0,60.0,13.0,0.0
25935,44.0,32.0,40.0,10.0,0.0
25936,71.0,0.0,60.0,12.0,0.0
25937,83.0,0.0,60.0,11.0,0.0
25938,80.0,8.0,60.0,12.0,0.0
25939,50.0,0.0,60.0,13.0,0.0
25940,56.0,0.0,60.0,13.0,0.0
25941,44.0,40.0,40.0,10.0,0.0
25942,71.0,28.0,60.0,12.0,0.0
25943,80.0,0.0,60.0,12.0,0.0
25944,50.0,0.0,60.0,13.0,0.0
25945,44.0,12.0,40.0,10.0,0.0
25946,56.0,0.0,60.0,13.0,0.0
25947,83.0,0.0,60.0,11.0,0.0
25948,44.0,32.0,40.0,10.0,0.0
25949,80.0,0.0,60.0,12.0,0.0
25950,71.0,0.0,60.0,12.0,0.0
25951,83.0,0.0,60.0,11.0,0.0
25952,50.0,0.0,60.0,13.0,0.0
25953,56.0,8.0,60.0,13.0,0.0
25954,44.0,40.0,40.0,10.0,0.0
25955,44.0,12.0,40.0,10.0,0.0
25956,83.0,0.0,60.0,11.0,0.0
25957,80.0,0.0,60.0,12.0,0.0
25958,71.0,0.0,60.0,12.0,0.0
25959,50.0,28.0,60.0,13.0,0.0
25960,56.0,0.0,60.0,13.0,0.0
25961,44.0,32.0,40.0,10.0,0.0
25962,50.0,0.0,60.0,13.0,0.0
25963,71.0,0.0,60.0,12.0,0.0
25964,80.0,0.0,60.0,12.0,0.0
25965,83.0,8.0,60.0,11.0,0.0
25966,56.0,0.0,60.0,13.0,0.0
25967,44.0,40.0,40.0,10.0,0.0
25968,50.0,28.0,60.0,13.0,0.0
25969,44.0,12.0,40.0,10.0,0.0
25970,71.0,0.0,60.0,12.0,0.0
25971,80.0,0.0,60.0,12.0,0.0
25972,83.0,0.0,60.0,11.0,0.0
25973,56.0,0.0,60.0,13.0,0.0
25974,44.0,32.0,40.0,10.0,0.0
25975,80.0,0.0,60.0,12.0,0.0
25976,71.0,0.0,60.0,12.0,0.0
25977,50.0,8.0,60.0,13.0,0.0
25978,83.0,0.0,60.0,11.0,0.0
25979,56.0,0.0,60.0,13.0,0.0
25980,44.0,40.0,40.0,10.0,0.0
25981,83.0,28.0,60.0,11.0,0.0
25982,44.0,12.0,40.0,10.0,0.0
25983,56.0,0.0,60.0,13.0,0.0
25984,50.0,0.0,60.0,13.0,0.0
25985,71.0,0.0,60.0,12.0,0.0
25986,80.0,0.0,60.0,12.0,0.0
25987,44.0,25.0,40.0,10.0,0.0
25988,56.0,8.0,60.0,13.0,0.0
25989,80.0,0.0,60.0,12.0,0.0
25990,83.0,0.0,60.0,11.0,0.0
25991,71.0,0.0,60.0,12.0,0.0
25992,50.0,0.0,60.0,13.0,0.0
25993,44.0,40.0,40.0,10.0,0.0
25994,71.0,0.0,60.0,12.0,0.0
25995,44.0,12.0,40.0,10.0,0.0
25996,38.0,0.0,930.0,14.0,0.0
25997,56.0,0.0,60.0,13.0,0.0
25998,65.0,0.0,930.0,6.0,0.0
25999,26.0,0.0,930.0,15.0,0.0
26000,50.0,28.0,60.0,13.0,0.0
26001,80.0,0.0,60.0,12.0,0.0
26002,83.0,0.0,60.0,11.0,0.0
26003,44.0,32.0,40.0,10.0,0.0
26004,50.0,0.0,60.0,13.0,0.0
26005,71.0,0.0,60.0,12.0,0.0
26006,56.0,0.0,60.0,13.0,0.0
26007,80.0,8.0,60.0,12.0,0.0
26008,83.0,0.0,60.0,11.0,0.0
26009,44.0,40.0,40.0,10.0,0.0
26010,56.0,0.0,60.0,13.0,0.0
26011,50.0,0.0,60.0,13.0,0.0
26012,83.0,0.0,60.0,11.0,0.0
26013,44.0,12.0,40.0,10.0,0.0
26014,80.0,0.0,60.0,12.0,0.0
26015,71.0,28.0,60.0,12.0,0.0
26016,44.0,32.0,40.0,10.0,0.0
26017,71.0,8.0,60.0,12.0,0.0
26018,80.0,0.0,60.0,12.0,0.0
26019,83.0,0.0,60.0,11.0,0.0
26020,56.0,0.0,60.0,13.0,0.0
26021,50.0,0.0,60.0,13.0,0.0
26022,44.0,40.0,40.0,10.0,0.0
26023,56.0,0.0,60.0,13.0,0.0
26024,50.0,28.0,60.0,13.0,0.0
26025,71.0,0.0,60.0,12.0,0.0
26026,80.0,0.0,60.0,12.0,0.0
26027,83.0,0.0,60.0,11.0,0.0
26028,44.0,12.0,40.0,10.0,0.0
26029,44.0,32.0,40.0,10.0,0.0
26030,50.0,0.0,60.0,13.0,0.0
26031,83.0,0.0,60.0,11.0,0.0
26032,80.0,0.0,60.0,12.0,0.0
26033,71.0,0.0,60.0,12.0,0.0
26034,56.0,8.0,60.0,13.0,0.0
26035,44.0,40.0,40.0,10.0,0.0
26036,56.0,28.0,60.0,13.0,0.0
26037,44.0,12.0,40.0,10.0,0.0
26038,83.0,0.0,60.0,11.0,0.0
26039,80.0,0.0,60.0,12.0,0.0
26040,71.0,0.0,60.0,12.0,0.0
26041,50.0,0.0,60.0,13.0,0.0
26042,44.0,32.0,40.0,10.0,0.0
26043,83.0,8.0,60.0,11.0,0.0
26044,50.0,0.0,60.0,13.0,0.0
26045,80.0,0.0,60.0,12.0,0.0
26046,71.0,0.0,60.0,12.0,0.0
26047,56.0,0.0,60.0,13.0,0.0
26048,44.0,40.0,40.0,10.0,0.0
26049,44.0,12.0,40.0,10.0,0.0
26050,71.0,28.0,60.0,12.0,0.0
26051,80.0,0.0,60.0,12.0,0.0
26052,56.0,0.0,60.0,13.0,0.0
26053,83.0,0.0,60.0,11.0,0.0
26054,50.0,0.0,60.0,13.0,0.0
26055,44.0,32.0,40.0,10.0,0.0
26056,50.0,0.0,60.0,13.0,0.0
26057,83.0,0.0,60.0,11.0,0.0
26058,56.0,0.0,60.0,13.0,0.0
26059,80.0,8.0,60.0,12.0,0.0
26060,71.0,0.0,60.0,12.0,0.0
26061,44.0,40.0,40.0,10.0,0.0
26062,80.0,0.0,60.0,12.0,0.0
26063,44.0,12.0,40.0,10.0,0.0
26064,83.0,28.0,60.0,11.0,0.0
26065,71.0,0.0,60.0,12.0,0.0
26066,56.0,0.0,60.0,13.0,0.0
26067,50.0,0.0,60.0,13.0,0.0
26068,44.0,32.0,40.0,10.0,0.0
26069,71.0,0.0,60.0,12.0,0.0
26070,83.0,0.0,60.0,11.0,0.0
26071,50.0,8.0,60.0,13.0,0.0
26072,80.0,0.0,60.0,12.0,0.0
26073,56.0,0.0,60.0,13.0,0.0
26074,44.0,40.0,40.0,10.0,0.0
26075,44.0,12.0,40.0,10.0,0.0
26076,80.0,28.0,60.0,12.0,0.0
26077,56.0,0.0,60.0,13.0,0.0
26078,50.0,0.0,60.0,13.0,0.0
26079,71.0,0.0,60.0,12.0,0.0
26080,83.0,0.0,60.0,11.0,0.0
26081,44.0,32.0,40.0,10.0,0.0
26082,71.0,0.0,60.0,12.0,0.0
26083,56.0,0.0,60.0,13.0,0.0
26084,50.0,0.0,60.0,13.0,0.0
26085,83.0,8.0,60.0,11.0,0.0
26086,80.0,0.0,60.0,12.0,0.0
26087,44.0,40.0,40.0,10.0,0.0
26088,44.0,12.0,40.0,10.0,0.0
26089,56.0,0.0,60.0,13.0,0.0
26090,83.0,0.0,60.0,11.0,0.0
26091,50.0,28.0,60.0,13.0,0.0
26092,71.0,0.0,60.0,12.0,0.0
26093,80.0,0.0,60.0,12.0,0.0
26094,44.0,25.0,40.0,10.0,0.0
26095,71.0,0.0,60.0,12.0,0.0
26096,80.0,0.0,60.0,12.0,0.0
26097,56.0,0.0,60.0,13.0,0.0
26098,50.0,8.0,60.0,13.0,0.0
26099,83.0,0.0,60.0,11.0,0.0
26100,44.0,60.0,40.0,10.0,0.0
26101,80.0,0.0,60.0,12.0,0.0
26102,44.0,0.0,60.0,10.0,0.0
26103,80.0,0.0,720.0,1.0,0.0
26104,72.0,0.0,720.0,1.0,0.0
26105,39.0,0.0,60.0,14.0,0.0
26106,56.0,80.0,720.0,4.0,0.0
26107,48.0,0.0,720.0,4.0,0.0
26108,51.0,0.0,60.0,13.0,0.0
26109,80.0,0.0,720.0,0.0,0.0
26110,68.0,0.0,720.0,5.0,0.0
26111,56.0,0.0,720.0,5.0,0.0
26112,56.0,0.0,720.0,7.0,0.0
26113,27.0,0.0,1890.0,3.0,0.0
26114,56.0,0.0,720.0,3.0,0.0
26115,84.0,0.0,720.0,0.0,0.0
26116,60.0,0.0,720.0,3.0,0.0
26117,72.0,0.0,720.0,2.0,0.0
26118,68.0,0.0,720.0,2.0,0.0
26119,63.0,15.0,690.0,6.0,0.0
26120,51.0,0.0,720.0,8.0,0.0
26121,27.0,0.0,60.0,15.0,0.0
26122,72.0,0.0,60.0,12.0,0.0
26123,84.0,60.0,60.0,11.0,0.0
26124,84.0,0.0,630.0,11.0,0.0
26125,39.0,0.0,630.0,14.0,0.0
26126,80.0,0.0,660.0,12.0,0.0
26127,72.0,0.0,660.0,12.0,0.0
26128,27.0,0.0,900.0,15.0,0.0
26129,51.0,0.0,660.0,13.0,0.0
26130,44.0,60.0,60.0,10.0,0.0
26131,44.0,60.0,60.0,10.0,0.0
26132,44.0,60.0,60.0,10.0,0.0
26133,44.0,60.0,60.0,10.0,0.0
26134,44.0,60.0,60.0,10.0,0.0
26135,44.0,60.0,60.0,10.0,0.0
26136,44.0,225.0,60.0,10.0,0.0
26137,44.0,0.0,240.0,10.0,0.0
26138,75.0,80.0,90.0,11.0,0.0
26139,44.0,15.0,210.0,14.0,0.0
26140,73.0,65.0,90.0,11.0,0.0
26141,72.0,240.0,90.0,11.0,0.0
26142,70.0,80.0,240.0,11.0,0.0
26143,43.0,15.0,450.0,14.0,0.0
26144,27.0,0.0,930.0,15.0,0.0
26145,58.0,0.0,90.0,12.0,0.0
26146,58.0,0.0,90.0,13.0,0.0
26147,73.0,80.0,90.0,11.0,0.0
26148,60.0,65.0,90.0,13.0,0.0
26149,60.0,0.0,90.0,12.0,0.0
26150,72.0,0.0,90.0,11.0,0.0
26151,70.0,20.0,90.0,11.0,0.0
26152,61.0,220.0,90.0,12.0,0.0
26153,61.0,0.0,90.0,13.0,0.0
26154,68.0,80.0,240.0,11.0,0.0
26155,44.0,3.0,450.0,14.0,0.0
26156,72.0,80.0,90.0,11.0,0.0
26157,56.0,0.0,90.0,12.0,0.0
26158,56.0,0.0,90.0,13.0,0.0
26159,58.0,65.0,90.0,12.0,0.0
26160,58.0,0.0,90.0,13.0,0.0
26161,70.0,0.0,90.0,11.0,0.0
26162,68.0,12.0,60.0,11.0,0.0
26163,60.0,60.0,90.0,13.0,0.0
26164,60.0,0.0,90.0,12.0,0.0
26165,27.0,3.0,1890.0,3.0,0.0
26166,51.0,0.0,240.0,4.0,0.0
26167,46.0,120.0,60.0,14.0,0.0
26168,27.0,0.0,60.0,15.0,0.0
26169,63.0,0.0,240.0,4.0,0.0
26170,39.0,30.0,210.0,10.0,0.0
26171,51.0,0.0,240.0,5.0,0.0
26172,67.0,0.0,60.0,11.0,0.0
26173,63.0,80.0,240.0,5.0,0.0
26174,67.0,30.0,120.0,11.0,0.0
26175,27.0,240.0,900.0,15.0,0.0
26176,46.0,95.0,630.0,14.0,0.0
26177,67.0,80.0,90.0,11.0,0.0
26178,55.0,0.0,90.0,12.0,0.0
26179,55.0,0.0,90.0,13.0,0.0
26180,56.0,68.0,90.0,13.0,0.0
26181,56.0,0.0,90.0,12.0,0.0
26182,68.0,0.0,90.0,11.0,0.0
26183,58.0,0.0,90.0,12.0,0.0
26184,70.0,12.0,60.0,11.0,0.0
26185,58.0,180.0,90.0,13.0,0.0
26186,63.0,45.0,180.0,11.0,0.0
26187,46.0,15.0,210.0,14.0,0.0
26188,77.0,80.0,90.0,11.0,0.0
26189,75.0,65.0,90.0,11.0,0.0
26190,73.0,0.0,90.0,11.0,0.0
26191,72.0,80.0,240.0,11.0,0.0
26192,27.0,0.0,930.0,15.0,0.0
26193,44.0,15.0,450.0,14.0,0.0
26194,60.0,0.0,90.0,13.0,0.0
26195,60.0,80.0,90.0,12.0,0.0
26196,75.0,0.0,90.0,11.0,0.0
26197,73.0,0.0,90.0,11.0,0.0
26198,61.0,0.0,90.0,12.0,0.0
26199,61.0,65.0,90.0,13.0,0.0
26200,63.0,0.0,90.0,12.0,0.0
26201,72.0,240.0,90.0,11.0,0.0
26202,63.0,0.0,90.0,13.0,0.0
26203,70.0,80.0,240.0,11.0,0.0
26204,46.0,0.0,450.0,14.0,0.0
26205,58.0,80.0,90.0,12.0,0.0
26206,73.0,0.0,90.0,11.0,0.0
26207,58.0,0.0,90.0,13.0,0.0
26208,72.0,0.0,90.0,11.0,0.0
26209,60.0,0.0,90.0,12.0,0.0
26210,60.0,65.0,90.0,13.0,0.0
26211,70.0,12.0,60.0,11.0,0.0
26212,61.0,60.0,90.0,12.0,0.0
26213,61.0,0.0,90.0,13.0,0.0
26214,63.0,0.0,240.0,5.0,0.0
26215,51.0,0.0,240.0,5.0,0.0
26216,48.0,0.0,60.0,14.0,0.0
26217,51.0,80.0,240.0,4.0,0.0
26218,63.0,0.0,240.0,4.0,0.0
26219,27.0,0.0,60.0,15.0,0.0
26220,68.0,120.0,60.0,11.0,0.0
26221,39.0,0.0,240.0,10.0,0.0
26222,27.0,3.0,1890.0,3.0,0.0
26223,68.0,60.0,120.0,11.0,0.0
26224,27.0,0.0,900.0,15.0,0.0
26225,48.0,95.0,630.0,14.0,0.0
26226,56.0,0.0,90.0,13.0,0.0
26227,68.0,80.0,90.0,11.0,0.0
26228,56.0,0.0,90.0,12.0,0.0
26229,58.0,68.0,90.0,13.0,0.0
26230,70.0,0.0,90.0,11.0,0.0
26231,58.0,0.0,90.0,12.0,0.0
26232,72.0,12.0,60.0,11.0,0.0
26233,60.0,0.0,90.0,12.0,0.0
26234,60.0,180.0,90.0,13.0,0.0
26235,63.0,45.0,180.0,11.0,0.0
26236,51.0,80.0,90.0,14.0,0.0
26237,63.0,0.0,90.0,12.0,0.0
26238,68.0,15.0,210.0,11.0,0.0
26239,63.0,0.0,90.0,13.0,0.0
26240,61.0,0.0,90.0,13.0,0.0
26241,61.0,65.0,90.0,12.0,0.0
26242,49.0,0.0,90.0,14.0,0.0
26243,48.0,0.0,90.0,14.0,0.0
26244,60.0,240.0,90.0,12.0,0.0
26245,60.0,0.0,90.0,13.0,0.0
26246,58.0,80.0,240.0,13.0,0.0
26247,46.0,0.0,240.0,14.0,0.0
26248,27.0,0.0,930.0,15.0,0.0
26249,67.0,15.0,450.0,11.0,0.0
26250,58.0,0.0,240.0,12.0,0.0
26251,55.0,0.0,90.0,3.0,0.0
26252,49.0,0.0,90.0,14.0,0.0
26253,61.0,0.0,90.0,13.0,0.0
26254,61.0,80.0,90.0,12.0,0.0
26255,79.0,0.0,90.0,0.0,0.0
26256,67.0,0.0,90.0,1.0,0.0
26257,60.0,0.0,90.0,12.0,0.0
26258,56.0,0.0,90.0,3.0,0.0
26259,80.0,0.0,90.0,0.0,0.0
26260,60.0,65.0,90.0,13.0,0.0
26261,68.0,0.0,90.0,1.0,0.0
26262,48.0,0.0,90.0,14.0,0.0
26263,70.0,240.0,90.0,1.0,0.0
26264,46.0,0.0,90.0,14.0,0.0
26265,58.0,0.0,90.0,13.0,0.0
26266,58.0,0.0,90.0,3.0,0.0
26267,58.0,0.0,90.0,12.0,0.0
26268,82.0,0.0,90.0,0.0,0.0
26269,56.0,0.0,240.0,12.0,0.0
26270,56.0,0.0,240.0,13.0,0.0
26271,44.0,80.0,240.0,14.0,0.0
26272,68.0,0.0,450.0,11.0,0.0
26273,60.0,0.0,90.0,13.0,0.0
26274,48.0,0.0,90.0,14.0,0.0
26275,80.0,80.0,90.0,0.0,0.0
26276,68.0,0.0,90.0,1.0,0.0
26277,60.0,0.0,90.0,12.0,0.0
26278,56.0,0.0,90.0,3.0,0.0
26279,58.0,0.0,90.0,3.0,0.0
26280,58.0,0.0,90.0,12.0,0.0
26281,70.0,65.0,90.0,1.0,0.0
26282,58.0,0.0,90.0,13.0,0.0
26283,46.0,0.0,90.0,14.0,0.0
26284,82.0,0.0,90.0,0.0,0.0
26285,44.0,0.0,60.0,14.0,0.0
26286,60.0,60.0,90.0,3.0,0.0
26287,56.0,12.0,60.0,13.0,0.0
26288,56.0,0.0,60.0,12.0,0.0
26289,84.0,0.0,90.0,0.0,0.0
26290,72.0,0.0,90.0,1.0,0.0
26291,63.0,0.0,240.0,6.0,0.0
26292,70.0,0.0,60.0,11.0,0.0
26293,39.0,0.0,240.0,10.0,0.0
26294,55.0,0.0,180.0,12.0,0.0
26295,63.0,0.0,240.0,5.0,0.0
26296,51.0,0.0,240.0,5.0,0.0
26297,43.0,0.0,180.0,14.0,0.0
26298,51.0,0.0,240.0,4.0,0.0
26299,63.0,0.0,240.0,4.0,0.0
26300,55.0,60.0,180.0,13.0,0.0
26301,51.0,80.0,240.0,8.0,0.0
26302,27.0,60.0,60.0,15.0,0.0
26303,58.0,0.0,240.0,7.0,0.0
26304,27.0,60.0,120.0,3.0,0.0
26305,27.0,0.0,900.0,15.0,0.0
26306,70.0,95.0,630.0,11.0,0.0
26307,27.0,0.0,1770.0,3.0,0.0
26308,58.0,0.0,90.0,3.0,0.0
26309,82.0,80.0,90.0,0.0,0.0
26310,43.0,0.0,90.0,14.0,0.0
26311,55.0,0.0,90.0,12.0,0.0
26312,55.0,0.0,90.0,13.0,0.0
26313,70.0,0.0,90.0,1.0,0.0
26314,60.0,0.0,90.0,3.0,0.0
26315,56.0,68.0,90.0,12.0,0.0
26316,56.0,0.0,90.0,13.0,0.0
26317,72.0,0.0,90.0,1.0,0.0
26318,44.0,0.0,90.0,14.0,0.0
26319,84.0,0.0,90.0,0.0,0.0
26320,46.0,0.0,60.0,14.0,0.0
26321,85.0,180.0,90.0,0.0,0.0
26322,73.0,0.0,90.0,1.0,0.0
26323,61.0,0.0,90.0,3.0,0.0
26324,58.0,12.0,60.0,13.0,0.0
26325,58.0,0.0,60.0,12.0,0.0
26326,51.0,45.0,180.0,12.0,0.0
26327,39.0,0.0,180.0,14.0,0.0
26328,51.0,0.0,180.0,13.0,0.0
26329,65.0,80.0,90.0,13.0,0.0
26330,70.0,15.0,210.0,11.0,0.0
26331,53.0,0.0,90.0,14.0,0.0
26332,65.0,0.0,90.0,12.0,0.0
26333,63.0,0.0,90.0,13.0,0.0
26334,63.0,0.0,90.0,12.0,0.0
26335,51.0,65.0,90.0,14.0,0.0
26336,61.0,240.0,90.0,12.0,0.0
26337,49.0,0.0,90.0,14.0,0.0
26338,61.0,0.0,90.0,13.0,0.0
26339,27.0,3.0,930.0,15.0,0.0
26340,48.0,0.0,240.0,14.0,0.0
26341,68.0,15.0,450.0,11.0,0.0
26342,60.0,0.0,240.0,12.0,0.0
26343,60.0,80.0,240.0,13.0,0.0
26344,63.0,80.0,90.0,13.0,0.0
26345,56.0,0.0,90.0,3.0,0.0
26346,68.0,0.0,90.0,1.0,0.0
26347,51.0,0.0,90.0,14.0,0.0
26348,80.0,0.0,90.0,0.0,0.0
26349,63.0,0.0,90.0,12.0,0.0
26350,61.0,0.0,90.0,13.0,0.0
26351,49.0,0.0,90.0,14.0,0.0
26352,58.0,65.0,90.0,3.0,0.0
26353,61.0,0.0,90.0,12.0,0.0
26354,82.0,0.0,90.0,0.0,0.0
26355,70.0,0.0,90.0,1.0,0.0
26356,60.0,0.0,90.0,13.0,0.0
26357,48.0,0.0,90.0,14.0,0.0
26358,84.0,0.0,90.0,0.0,0.0
26359,60.0,0.0,90.0,3.0,0.0
26360,60.0,0.0,90.0,12.0,0.0
26361,72.0,240.0,90.0,1.0,0.0
26362,46.0,80.0,240.0,14.0,0.0
26363,58.0,0.0,240.0,13.0,0.0
26364,70.0,0.0,450.0,11.0,0.0
26365,58.0,0.0,240.0,12.0,0.0
26366,61.0,0.0,90.0,13.0,0.0
26367,70.0,80.0,90.0,1.0,0.0
26368,61.0,0.0,90.0,12.0,0.0
26369,58.0,0.0,90.0,3.0,0.0
26370,82.0,0.0,90.0,0.0,0.0
26371,49.0,0.0,90.0,14.0,0.0
26372,60.0,0.0,90.0,13.0,0.0
26373,72.0,0.0,90.0,1.0,0.0
26374,84.0,0.0,90.0,0.0,0.0
26375,60.0,0.0,90.0,12.0,0.0
26376,60.0,65.0,90.0,3.0,0.0
26377,48.0,0.0,90.0,14.0,0.0
26378,46.0,12.0,60.0,14.0,0.0
26379,85.0,0.0,90.0,0.0,0.0
26380,61.0,0.0,90.0,3.0,0.0
26381,58.0,0.0,60.0,12.0,0.0
26382,58.0,0.0,60.0,13.0,0.0
26383,73.0,60.0,90.0,1.0,0.0
26384,56.0,60.0,180.0,12.0,0.0
26385,60.0,0.0,240.0,7.0,0.0
26386,51.0,0.0,240.0,5.0,0.0
26387,63.0,0.0,240.0,5.0,0.0
26388,39.0,0.0,240.0,10.0,0.0
26389,72.0,120.0,60.0,11.0,0.0
26390,44.0,0.0,180.0,14.0,0.0
26391,63.0,0.0,240.0,6.0,0.0
26392,51.0,80.0,240.0,8.0,0.0
26393,63.0,0.0,240.0,4.0,0.0
26394,51.0,0.0,240.0,4.0,0.0
26395,56.0,0.0,180.0,13.0,0.0
26396,27.0,0.0,690.0,3.0,0.0
26397,27.0,83.0,690.0,15.0,0.0
26398,72.0,0.0,630.0,11.0,0.0
26399,56.0,0.0,90.0,12.0,0.0
26400,72.0,0.0,90.0,1.0,0.0
26401,56.0,0.0,90.0,13.0,0.0
26402,60.0,0.0,90.0,3.0,0.0
26403,84.0,80.0,90.0,0.0,0.0
26404,44.0,0.0,90.0,14.0,0.0
26405,46.0,0.0,90.0,14.0,0.0
26406,58.0,0.0,90.0,13.0,0.0
26407,85.0,68.0,90.0,0.0,0.0
26408,73.0,0.0,90.0,1.0,0.0
26409,61.0,0.0,90.0,3.0,0.0
26410,58.0,0.0,90.0,12.0,0.0
26411,75.0,180.0,90.0,1.0,0.0
26412,87.0,0.0,90.0,0.0,0.0
26413,48.0,12.0,60.0,14.0,0.0
26414,60.0,0.0,60.0,13.0,0.0
26415,63.0,0.0,90.0,3.0,0.0
26416,60.0,0.0,60.0,12.0,0.0
26417,51.0,45.0,180.0,12.0,0.0
26418,39.0,0.0,180.0,14.0,0.0
26419,51.0,0.0,180.0,13.0,0.0
26420,44.0,0.0,210.0,4.0,0.0
26421,60.0,3.0,210.0,6.0,0.0
26422,44.0,0.0,60.0,14.0,0.0
26423,44.0,68.0,240.0,10.0,0.0
26424,56.0,0.0,210.0,5.0,0.0
26425,32.0,0.0,210.0,3.0,0.0
26426,72.0,0.0,210.0,1.0,0.0
26427,68.0,0.0,210.0,1.0,0.0
26428,60.0,0.0,210.0,4.0,0.0
26429,75.0,0.0,60.0,11.0,0.0
26430,51.0,0.0,210.0,7.0,0.0
26431,32.0,0.0,60.0,15.0,0.0
26432,44.0,0.0,210.0,3.0,0.0
26433,51.0,80.0,60.0,13.0,0.0
26434,56.0,0.0,210.0,2.0,0.0
26435,60.0,0.0,210.0,2.0,0.0
26436,80.0,0.0,210.0,0.0,0.0
26437,44.0,0.0,210.0,8.0,0.0
26438,68.0,0.0,60.0,12.0,0.0
26439,84.0,0.0,210.0,0.0,0.0
26440,56.0,0.0,60.0,14.0,0.0
26441,44.0,77.0,60.0,15.0,0.0
26442,51.0,0.0,60.0,13.0,0.0
26443,68.0,0.0,60.0,12.0,0.0
26444,73.0,0.0,60.0,11.0,0.0
26445,44.0,12.0,60.0,15.0,0.0
26446,68.0,0.0,60.0,12.0,0.0
26447,72.0,0.0,60.0,11.0,0.0
26448,56.0,0.0,60.0,14.0,0.0
26449,51.0,0.0,60.0,13.0,0.0
26450,67.0,0.0,450.0,1.0,0.0
26451,70.0,0.0,450.0,1.0,0.0
26452,70.0,0.0,450.0,5.0,0.0
26453,39.0,0.0,450.0,3.0,0.0
26454,51.0,0.0,450.0,7.0,0.0
26455,79.0,3.0,450.0,0.0,0.0
26456,82.0,0.0,450.0,0.0,0.0
26457,39.0,0.0,60.0,14.0,0.0
26458,27.0,0.0,450.0,3.0,0.0
26459,70.0,0.0,60.0,11.0,0.0
26460,39.0,0.0,450.0,8.0,0.0
26461,51.0,0.0,450.0,5.0,0.0
26462,27.0,0.0,60.0,15.0,0.0
26463,51.0,80.0,60.0,13.0,0.0
26464,39.0,68.0,240.0,10.0,0.0
26465,58.0,0.0,450.0,4.0,0.0
26466,58.0,0.0,450.0,2.0,0.0
26467,39.0,0.0,450.0,4.0,0.0
26468,67.0,0.0,60.0,12.0,0.0
26469,55.0,0.0,450.0,2.0,0.0
26470,58.0,0.0,450.0,6.0,0.0
26471,63.0,0.0,60.0,13.0,0.0
26472,63.0,0.0,60.0,13.0,0.0
26473,51.0,0.0,60.0,13.0,0.0
26474,69.0,0.0,60.0,11.0,0.0
26475,67.0,0.0,60.0,12.0,0.0
26476,39.0,80.0,60.0,15.0,0.0
26477,51.0,0.0,60.0,14.0,0.0
26478,67.0,0.0,60.0,12.0,0.0
26479,70.0,12.0,60.0,11.0,0.0
26480,51.0,0.0,60.0,14.0,0.0
26481,51.0,0.0,60.0,13.0,0.0
26482,39.0,0.0,60.0,15.0,0.0
26483,63.0,0.0,60.0,13.0,0.0
26484,63.0,0.0,60.0,13.0,0.0
26485,51.0,80.0,60.0,13.0,0.0
26486,39.0,0.0,60.0,15.0,0.0
26487,73.0,0.0,60.0,11.0,0.0
26488,51.0,0.0,60.0,14.0,0.0
26489,67.0,0.0,60.0,12.0,0.0
26490,67.0,0.0,60.0,12.0,0.0
26491,39.0,0.0,60.0,15.0,0.0
26492,51.0,77.0,60.0,14.0,0.0
26493,72.0,0.0,60.0,11.0,0.0
26494,51.0,0.0,60.0,13.0,0.0
26495,63.0,0.0,60.0,13.0,0.0
26496,39.0,0.0,60.0,15.0,0.0
26497,51.0,0.0,60.0,13.0,0.0
26498,63.0,0.0,60.0,13.0,0.0
26499,67.0,80.0,60.0,12.0,0.0
26500,51.0,0.0,60.0,14.0,0.0
26501,70.0,0.0,60.0,11.0,0.0
26502,51.0,80.0,60.0,13.0,0.0
26503,72.0,0.0,60.0,11.0,0.0
26504,68.0,0.0,450.0,1.0,0.0
26505,72.0,0.0,450.0,1.0,0.0
26506,60.0,0.0,450.0,2.0,0.0
26507,56.0,0.0,450.0,2.0,0.0
26508,44.0,68.0,240.0,10.0,0.0
26509,60.0,0.0,450.0,6.0,0.0
26510,68.0,0.0,60.0,12.0,0.0
26511,51.0,0.0,450.0,7.0,0.0
26512,44.0,0.0,450.0,3.0,0.0
26513,80.0,0.0,450.0,0.0,0.0
26514,44.0,0.0,450.0,8.0,0.0
26515,84.0,0.0,450.0,0.0,0.0
26516,32.0,0.0,450.0,3.0,0.0
26517,44.0,3.0,450.0,4.0,0.0
26518,60.0,0.0,450.0,4.0,0.0
26519,56.0,0.0,450.0,5.0,0.0
26520,72.0,0.0,450.0,5.0,0.0
26521,44.0,0.0,60.0,14.0,0.0
26522,63.0,0.0,60.0,13.0,0.0
26523,32.0,0.0,60.0,15.0,0.0
26524,56.0,80.0,60.0,14.0,0.0
26525,51.0,0.0,60.0,13.0,0.0
26526,63.0,0.0,60.0,13.0,0.0
26527,68.0,0.0,60.0,12.0,0.0
26528,44.0,0.0,60.0,15.0,0.0
26529,70.0,0.0,60.0,11.0,0.0
26530,56.0,0.0,60.0,14.0,0.0
26531,68.0,0.0,60.0,12.0,0.0
26532,44.0,12.0,60.0,15.0,0.0
26533,72.0,0.0,60.0,11.0,0.0
26534,63.0,0.0,60.0,13.0,0.0
26535,51.0,0.0,60.0,13.0,0.0
26536,51.0,0.0,60.0,13.0,0.0
26537,44.0,80.0,60.0,15.0,0.0
26538,68.0,0.0,60.0,12.0,0.0
26539,75.0,0.0,60.0,11.0,0.0
26540,56.0,0.0,60.0,14.0,0.0
26541,63.0,0.0,60.0,13.0,0.0
26542,56.0,0.0,60.0,14.0,0.0
26543,73.0,0.0,60.0,11.0,0.0
26544,44.0,0.0,60.0,15.0,0.0
26545,68.0,0.0,60.0,12.0,0.0
26546,51.0,77.0,60.0,13.0,0.0
26547,63.0,0.0,60.0,13.0,0.0
26548,44.0,0.0,60.0,15.0,0.0
26549,72.0,0.0,60.0,11.0,0.0
26550,63.0,80.0,60.0,13.0,0.0
26551,51.0,0.0,60.0,13.0,0.0
26552,56.0,0.0,60.0,14.0,0.0
26553,68.0,0.0,60.0,12.0,0.0
26554,67.0,0.0,60.0,12.0,0.0
26555,39.0,0.0,690.0,4.0,0.0
26556,61.0,0.0,690.0,4.0,0.0
26557,51.0,0.0,60.0,13.0,0.0
26558,63.0,0.0,60.0,13.0,0.0
26559,46.0,0.0,690.0,8.0,0.0
26560,46.0,0.0,690.0,3.0,0.0
26561,61.0,3.0,690.0,6.0,0.0
26562,55.0,0.0,690.0,2.0,0.0
26563,61.0,0.0,690.0,2.0,0.0
26564,73.0,0.0,690.0,1.0,0.0
26565,39.0,68.0,240.0,10.0,0.0
26566,73.0,0.0,690.0,5.0,0.0
26567,51.0,0.0,690.0,5.0,0.0
26568,67.0,0.0,690.0,1.0,0.0
26569,51.0,0.0,690.0,7.0,0.0
26570,46.0,0.0,60.0,14.0,0.0
26571,34.0,0.0,690.0,3.0,0.0
26572,73.0,0.0,60.0,11.0,0.0
26573,34.0,80.0,60.0,15.0,0.0
26574,85.0,0.0,690.0,0.0,0.0
26575,79.0,0.0,690.0,0.0,0.0
26576,67.0,0.0,60.0,12.0,0.0
26577,63.0,0.0,60.0,13.0,0.0
26578,51.0,0.0,60.0,13.0,0.0
26579,72.0,0.0,60.0,11.0,0.0
26580,46.0,0.0,60.0,15.0,0.0
26581,58.0,80.0,60.0,14.0,0.0
26582,46.0,0.0,60.0,15.0,0.0
26583,67.0,0.0,60.0,12.0,0.0
26584,63.0,0.0,60.0,13.0,0.0
26585,58.0,0.0,60.0,14.0,0.0
26586,73.0,12.0,60.0,11.0,0.0
26587,51.0,0.0,60.0,13.0,0.0
26588,58.0,0.0,60.0,14.0,0.0
26589,77.0,80.0,60.0,11.0,0.0
26590,46.0,0.0,60.0,15.0,0.0
26591,67.0,0.0,60.0,12.0,0.0
26592,51.0,0.0,60.0,13.0,0.0
26593,63.0,0.0,60.0,13.0,0.0
26594,58.0,0.0,60.0,14.0,0.0
26595,63.0,80.0,60.0,13.0,0.0
26596,51.0,0.0,60.0,13.0,0.0
26597,67.0,0.0,60.0,12.0,0.0
26598,75.0,0.0,60.0,11.0,0.0
26599,46.0,0.0,60.0,15.0,0.0
26600,73.0,0.0,60.0,11.0,0.0
26601,46.0,0.0,60.0,15.0,0.0
26602,63.0,0.0,60.0,13.0,0.0
26603,51.0,0.0,60.0,13.0,0.0
26604,58.0,0.0,60.0,14.0,0.0
26605,67.0,80.0,60.0,12.0,0.0
26606,46.0,0.0,60.0,15.0,0.0
26607,73.0,0.0,60.0,11.0,0.0
26608,58.0,0.0,60.0,14.0,0.0
26609,51.0,80.0,60.0,13.0,0.0
26610,63.0,0.0,60.0,13.0,0.0
26611,67.0,0.0,60.0,12.0,0.0
26612,51.0,77.0,60.0,13.0,0.0
26613,63.0,0.0,60.0,13.0,0.0
26614,46.0,0.0,60.0,15.0,0.0
26615,72.0,0.0,60.0,11.0,0.0
26616,58.0,0.0,60.0,14.0,0.0
26617,67.0,0.0,60.0,12.0,0.0
26618,46.0,80.0,60.0,15.0,0.0
26619,58.0,0.0,60.0,14.0,0.0
26620,51.0,0.0,60.0,13.0,0.0
26621,67.0,0.0,60.0,12.0,0.0
26622,73.0,0.0,60.0,11.0,0.0
26623,63.0,0.0,60.0,13.0,0.0
26624,51.0,80.0,60.0,13.0,0.0
26625,61.0,0.0,210.0,4.0,0.0
26626,55.0,0.0,210.0,2.0,0.0
26627,61.0,0.0,210.0,2.0,0.0
26628,39.0,68.0,240.0,10.0,0.0
26629,63.0,0.0,60.0,13.0,0.0
26630,46.0,0.0,210.0,8.0,0.0
26631,61.0,3.0,210.0,6.0,0.0
26632,39.0,0.0,210.0,4.0,0.0
26633,67.0,0.0,60.0,12.0,0.0
26634,51.0,0.0,210.0,5.0,0.0
26635,67.0,0.0,210.0,1.0,0.0
26636,73.0,0.0,210.0,1.0,0.0
26637,77.0,0.0,60.0,11.0,0.0
26638,51.0,0.0,210.0,7.0,0.0
26639,73.0,0.0,210.0,5.0,0.0
26640,85.0,0.0,210.0,0.0,0.0
26641,58.0,0.0,60.0,14.0,0.0
26642,46.0,0.0,210.0,3.0,0.0
26643,34.0,0.0,210.0,3.0,0.0
26644,79.0,0.0,210.0,0.0,0.0
26645,46.0,0.0,60.0,15.0,0.0
26646,51.0,0.0,60.0,13.0,0.0
26647,58.0,0.0,60.0,14.0,0.0
26648,46.0,0.0,60.0,15.0,0.0
26649,67.0,77.0,60.0,12.0,0.0
26650,75.0,0.0,60.0,11.0,0.0
26651,63.0,0.0,60.0,13.0,0.0
26652,67.0,0.0,60.0,12.0,0.0
26653,63.0,0.0,60.0,13.0,0.0
26654,51.0,0.0,60.0,13.0,0.0
26655,46.0,12.0,60.0,15.0,0.0
26656,73.0,0.0,60.0,11.0,0.0
26657,58.0,0.0,60.0,14.0,0.0
26658,60.0,0.0,450.0,4.0,0.0
26659,39.0,0.0,450.0,4.0,0.0
26660,72.0,0.0,60.0,11.0,0.0
26661,84.0,0.0,450.0,0.0,0.0
26662,78.0,0.0,450.0,0.0,0.0
26663,45.0,0.0,60.0,14.0,0.0
26664,45.0,0.0,450.0,8.0,0.0
26665,72.0,0.0,450.0,1.0,0.0
26666,51.0,3.0,450.0,7.0,0.0
26667,45.0,0.0,450.0,3.0,0.0
26668,60.0,0.0,450.0,6.0,0.0
26669,63.0,0.0,60.0,13.0,0.0
26670,66.0,80.0,60.0,12.0,0.0
26671,33.0,0.0,450.0,3.0,0.0
26672,66.0,0.0,450.0,1.0,0.0
26673,72.0,0.0,450.0,5.0,0.0
26674,60.0,0.0,450.0,2.0,0.0
26675,39.0,68.0,240.0,10.0,0.0
26676,54.0,0.0,450.0,2.0,0.0
26677,51.0,0.0,60.0,13.0,0.0
26678,33.0,0.0,60.0,15.0,0.0
26679,51.0,0.0,450.0,5.0,0.0
26680,57.0,0.0,60.0,14.0,0.0
26681,63.0,0.0,60.0,13.0,0.0
26682,66.0,0.0,60.0,12.0,0.0
26683,70.0,0.0,60.0,11.0,0.0
26684,45.0,0.0,60.0,15.0,0.0
26685,51.0,80.0,60.0,13.0,0.0
26686,63.0,0.0,60.0,13.0,0.0
26687,66.0,0.0,60.0,12.0,0.0
26688,72.0,0.0,60.0,11.0,0.0
26689,51.0,0.0,60.0,13.0,0.0
26690,57.0,0.0,60.0,14.0,0.0
26691,45.0,12.0,60.0,15.0,0.0
26692,45.0,0.0,60.0,15.0,0.0
26693,57.0,0.0,60.0,14.0,0.0
26694,75.0,80.0,60.0,11.0,0.0
26695,51.0,0.0,60.0,13.0,0.0
26696,63.0,0.0,60.0,13.0,0.0
26697,66.0,0.0,60.0,12.0,0.0
26698,66.0,0.0,60.0,12.0,0.0
26699,45.0,77.0,60.0,15.0,0.0
26700,63.0,0.0,60.0,13.0,0.0
26701,51.0,0.0,60.0,13.0,0.0
26702,73.0,0.0,60.0,11.0,0.0
26703,57.0,0.0,60.0,14.0,0.0
26704,45.0,0.0,60.0,15.0,0.0
26705,51.0,0.0,60.0,13.0,0.0
26706,66.0,0.0,60.0,12.0,0.0
26707,63.0,80.0,60.0,13.0,0.0
26708,57.0,0.0,60.0,14.0,0.0
26709,72.0,0.0,60.0,11.0,0.0
26710,63.0,0.0,60.0,13.0,0.0
26711,73.0,0.0,60.0,11.0,0.0
26712,46.0,3.0,450.0,8.0,0.0
26713,46.0,0.0,60.0,14.0,0.0
26714,51.0,0.0,450.0,7.0,0.0
26715,51.0,0.0,450.0,5.0,0.0
26716,61.0,0.0,450.0,6.0,0.0
26717,34.0,0.0,450.0,3.0,0.0
26718,34.0,0.0,60.0,15.0,0.0
26719,85.0,0.0,450.0,0.0,0.0
26720,78.0,0.0,450.0,0.0,0.0
26721,73.0,0.0,450.0,1.0,0.0
26722,73.0,0.0,450.0,5.0,0.0
26723,66.0,0.0,450.0,1.0,0.0
26724,61.0,0.0,450.0,2.0,0.0
26725,46.0,0.0,450.0,3.0,0.0
26726,66.0,80.0,60.0,12.0,0.0
26727,39.0,0.0,450.0,4.0,0.0
26728,54.0,0.0,450.0,2.0,0.0
26729,61.0,0.0,450.0,4.0,0.0
26730,51.0,0.0,60.0,13.0,0.0
26731,39.0,68.0,240.0,10.0,0.0
26732,46.0,0.0,60.0,15.0,0.0
26733,51.0,0.0,60.0,13.0,0.0
26734,63.0,0.0,60.0,13.0,0.0
26735,72.0,0.0,60.0,11.0,0.0
26736,66.0,0.0,60.0,12.0,0.0
26737,58.0,80.0,60.0,14.0,0.0
26738,58.0,0.0,60.0,14.0,0.0
26739,63.0,0.0,60.0,13.0,0.0
26740,73.0,12.0,60.0,11.0,0.0
26741,46.0,0.0,60.0,15.0,0.0
26742,51.0,0.0,60.0,13.0,0.0
26743,66.0,0.0,60.0,12.0,0.0
26744,46.0,0.0,60.0,15.0,0.0
26745,66.0,80.0,60.0,12.0,0.0
26746,77.0,0.0,60.0,11.0,0.0
26747,63.0,0.0,60.0,13.0,0.0
26748,58.0,0.0,60.0,14.0,0.0
26749,51.0,0.0,60.0,13.0,0.0
26750,75.0,0.0,60.0,11.0,0.0
26751,58.0,77.0,60.0,14.0,0.0
26752,63.0,0.0,60.0,13.0,0.0
26753,66.0,0.0,60.0,12.0,0.0
26754,51.0,0.0,60.0,13.0,0.0
26755,46.0,0.0,60.0,15.0,0.0
26756,66.0,0.0,60.0,12.0,0.0
26757,73.0,0.0,60.0,11.0,0.0
26758,51.0,0.0,60.0,13.0,0.0
26759,58.0,80.0,60.0,14.0,0.0
26760,63.0,0.0,60.0,13.0,0.0
26761,46.0,0.0,60.0,15.0,0.0
26762,57.0,0.0,60.0,13.0,0.0
26763,66.0,0.0,60.0,12.0,0.0
26764,63.0,0.0,1890.0,2.0,0.0
26765,48.0,0.0,1890.0,3.0,0.0
26766,57.0,0.0,930.0,3.0,0.0
26767,36.0,0.0,60.0,15.0,0.0
26768,48.0,0.0,60.0,14.0,0.0
26769,87.0,0.0,1890.0,0.0,0.0
26770,81.0,0.0,930.0,0.0,0.0
26771,48.0,3.0,1890.0,8.0,0.0
26772,54.0,0.0,930.0,7.0,0.0
26773,66.0,0.0,1890.0,2.0,0.0
26774,51.0,0.0,1890.0,5.0,0.0
26775,75.0,0.0,1890.0,5.0,0.0
26776,75.0,0.0,1890.0,1.0,0.0
26777,39.0,68.0,240.0,10.0,0.0
26778,36.0,0.0,1890.0,3.0,0.0
26779,69.0,3.0,930.0,1.0,0.0
26780,39.0,0.0,1890.0,4.0,0.0
26781,75.0,80.0,60.0,11.0,0.0
26782,63.0,0.0,1890.0,4.0,0.0
26783,63.0,0.0,1890.0,6.0,0.0
26784,48.0,0.0,60.0,15.0,0.0
26785,60.0,80.0,60.0,14.0,0.0
26786,66.0,0.0,60.0,12.0,0.0
26787,74.0,0.0,60.0,11.0,0.0
26788,57.0,0.0,60.0,13.0,0.0
26789,57.0,0.0,60.0,13.0,0.0
26790,48.0,12.0,60.0,15.0,0.0
26791,66.0,0.0,60.0,12.0,0.0
26792,60.0,0.0,60.0,14.0,0.0
26793,75.0,0.0,60.0,11.0,0.0
26794,66.0,0.0,60.0,12.0,0.0
26795,57.0,0.0,60.0,13.0,0.0
26796,48.0,0.0,60.0,15.0,0.0
26797,60.0,0.0,60.0,14.0,0.0
26798,78.0,80.0,60.0,11.0,0.0
26799,77.0,0.0,60.0,11.0,0.0
26800,60.0,0.0,60.0,14.0,0.0
26801,48.0,80.0,60.0,15.0,0.0
26802,57.0,0.0,60.0,13.0,0.0
26803,66.0,0.0,60.0,12.0,0.0
26804,48.0,80.0,60.0,15.0,0.0
26805,75.0,0.0,60.0,11.0,0.0
26806,60.0,0.0,60.0,14.0,0.0
26807,57.0,0.0,60.0,13.0,0.0
26808,66.0,0.0,60.0,12.0,0.0
26809,48.0,80.0,60.0,14.0,0.0
26810,75.0,0.0,60.0,11.0,0.0
26811,66.0,0.0,60.0,12.0,0.0
26812,57.0,0.0,60.0,13.0,0.0
26813,36.0,0.0,60.0,15.0,0.0
26814,48.0,80.0,60.0,15.0,0.0
26815,66.0,0.0,60.0,12.0,0.0
26816,74.0,0.0,60.0,11.0,0.0
26817,57.0,0.0,60.0,13.0,0.0
26818,60.0,0.0,60.0,14.0,0.0
26819,60.0,0.0,60.0,14.0,0.0
26820,57.0,0.0,60.0,13.0,0.0
26821,75.0,0.0,60.0,11.0,0.0
26822,66.0,0.0,60.0,12.0,0.0
26823,48.0,80.0,60.0,15.0,0.0
26824,48.0,80.0,60.0,15.0,0.0
26825,57.0,0.0,60.0,13.0,0.0
26826,66.0,0.0,60.0,12.0,0.0
26827,78.0,0.0,60.0,11.0,0.0
26828,60.0,0.0,60.0,14.0,0.0
26829,60.0,0.0,60.0,14.0,0.0
26830,57.0,77.0,60.0,13.0,0.0
26831,66.0,0.0,60.0,12.0,0.0
26832,77.0,0.0,60.0,11.0,0.0
26833,48.0,0.0,60.0,15.0,0.0
26834,66.0,0.0,60.0,12.0,0.0
26835,48.0,0.0,60.0,15.0,0.0
26836,75.0,0.0,60.0,11.0,0.0
26837,57.0,80.0,60.0,13.0,0.0
26838,60.0,0.0,60.0,14.0,0.0
26839,36.0,0.0,60.0,15.0,0.0
26840,56.0,0.0,930.0,3.0,0.0
26841,80.0,0.0,930.0,0.0,0.0
26842,75.0,0.0,60.0,11.0,0.0
26843,68.0,0.0,930.0,1.0,0.0
26844,66.0,0.0,60.0,12.0,0.0
26845,56.0,0.0,60.0,13.0,0.0
26846,39.0,68.0,240.0,10.0,0.0
26847,56.0,0.0,930.0,7.0,0.0
26848,48.0,80.0,60.0,14.0,0.0
26849,66.0,80.0,60.0,12.0,0.0
26850,48.0,0.0,60.0,15.0,0.0
26851,56.0,0.0,60.0,13.0,0.0
26852,74.0,0.0,60.0,11.0,0.0
26853,60.0,0.0,60.0,14.0,0.0
26854,60.0,12.0,60.0,14.0,0.0
26855,66.0,0.0,60.0,12.0,0.0
26856,48.0,0.0,60.0,15.0,0.0
26857,56.0,0.0,60.0,13.0,0.0
26858,75.0,0.0,60.0,11.0,0.0
26859,66.0,0.0,60.0,12.0,0.0
26860,48.0,0.0,60.0,15.0,0.0
26861,56.0,80.0,60.0,13.0,0.0
26862,78.0,0.0,60.0,11.0,0.0
26863,60.0,0.0,60.0,14.0,0.0
26864,77.0,0.0,60.0,11.0,0.0
26865,60.0,0.0,60.0,14.0,0.0
26866,66.0,0.0,60.0,12.0,0.0
26867,48.0,0.0,60.0,15.0,0.0
26868,56.0,80.0,60.0,13.0,0.0
26869,75.0,0.0,60.0,11.0,0.0
26870,48.0,80.0,60.0,15.0,0.0
26871,60.0,0.0,60.0,14.0,0.0
26872,56.0,0.0,60.0,13.0,0.0
26873,66.0,0.0,60.0,12.0,0.0
26874,75.0,80.0,60.0,11.0,0.0
26875,48.0,0.0,60.0,14.0,0.0
26876,66.0,0.0,60.0,12.0,0.0
26877,36.0,0.0,60.0,15.0,0.0
26878,56.0,0.0,60.0,13.0,0.0
26879,48.0,0.0,60.0,15.0,0.0
26880,66.0,0.0,60.0,12.0,0.0
26881,56.0,0.0,60.0,13.0,0.0
26882,60.0,0.0,60.0,14.0,0.0
26883,74.0,80.0,60.0,11.0,0.0
26884,56.0,0.0,60.0,13.0,0.0
26885,66.0,80.0,60.0,12.0,0.0
26886,48.0,0.0,60.0,15.0,0.0
26887,60.0,0.0,60.0,14.0,0.0
26888,75.0,0.0,60.0,11.0,0.0
26889,48.0,0.0,60.0,15.0,0.0
26890,56.0,0.0,60.0,13.0,0.0
26891,78.0,80.0,60.0,11.0,0.0
26892,60.0,0.0,60.0,14.0,0.0
26893,66.0,0.0,60.0,12.0,0.0
26894,66.0,0.0,60.0,12.0,0.0
26895,56.0,77.0,60.0,13.0,0.0
26896,60.0,0.0,60.0,14.0,0.0
26897,48.0,0.0,60.0,15.0,0.0
26898,77.0,0.0,60.0,11.0,0.0
26899,56.0,0.0,60.0,13.0,0.0
26900,48.0,64.0,60.0,15.0,0.0
26901,66.0,0.0,60.0,12.0,0.0
26902,60.0,0.0,60.0,14.0,0.0
26903,75.0,0.0,60.0,11.0,0.0
26904,49.0,0.0,480.0,3.0,0.0
26905,85.0,0.0,480.0,0.0,0.0
26906,49.0,0.0,930.0,8.0,0.0
26907,44.0,52.0,480.0,4.0,0.0
26908,56.0,0.0,480.0,4.0,0.0
26909,65.0,0.0,930.0,6.0,0.0
26910,56.0,0.0,60.0,13.0,0.0
26911,65.0,53.0,60.0,12.0,0.0
26912,65.0,0.0,480.0,2.0,0.0
26913,61.0,0.0,480.0,2.0,0.0
26914,68.0,0.0,240.0,5.0,0.0
26915,56.0,52.0,240.0,5.0,0.0
26916,77.0,0.0,480.0,1.0,0.0
26917,68.0,0.0,480.0,1.0,0.0
26918,44.0,0.0,240.0,10.0,0.0
26919,53.0,0.0,480.0,3.0,0.0
26920,89.0,0.0,480.0,0.0,0.0
26921,37.0,0.0,90.0,15.0,0.0
26922,49.0,7.0,90.0,14.0,0.0
26923,61.0,0.0,930.0,7.0,0.0
26924,77.0,0.0,60.0,11.0,0.0
26925,37.0,0.0,90.0,3.0,0.0
26926,53.0,0.0,60.0,13.0,0.0
26927,65.0,60.0,60.0,11.0,0.0
26928,56.0,0.0,60.0,12.0,0.0
26929,65.0,0.0,60.0,12.0,0.0
26930,25.0,0.0,90.0,15.0,0.0
26931,56.0,0.0,60.0,13.0,0.0
26932,37.0,0.0,90.0,14.0,0.0
26933,25.0,7.0,90.0,3.0,0.0
26934,77.0,53.0,60.0,11.0,0.0
26935,77.0,0.0,60.0,11.0,0.0
26936,56.0,8.0,60.0,13.0,0.0
26937,65.0,0.0,60.0,12.0,0.0
26938,25.0,0.0,90.0,15.0,0.0
26939,77.0,0.0,60.0,11.0,0.0
26940,65.0,0.0,60.0,12.0,0.0
26941,37.0,7.0,90.0,14.0,0.0
26942,25.0,0.0,90.0,3.0,0.0
26943,56.0,53.0,60.0,13.0,0.0
26944,56.0,0.0,60.0,13.0,0.0
26945,65.0,0.0,60.0,12.0,0.0
26946,77.0,60.0,60.0,11.0,0.0
26947,25.0,7.0,90.0,15.0,0.0
26948,56.0,53.0,60.0,13.0,0.0
26949,37.0,0.0,90.0,14.0,0.0
26950,25.0,0.0,90.0,3.0,0.0
26951,77.0,0.0,60.0,11.0,0.0
26952,65.0,0.0,60.0,12.0,0.0
26953,77.0,8.0,60.0,11.0,0.0
26954,65.0,0.0,60.0,12.0,0.0
26955,56.0,0.0,60.0,13.0,0.0
26956,37.0,0.0,90.0,14.0,0.0
26957,85.0,0.0,90.0,0.0,0.0
26958,89.0,0.0,90.0,0.0,0.0
26959,56.0,53.0,60.0,13.0,0.0
26960,68.0,0.0,90.0,1.0,0.0
26961,77.0,0.0,90.0,1.0,0.0
26962,53.0,0.0,90.0,3.0,0.0
26963,49.0,0.0,90.0,3.0,0.0
26964,44.0,0.0,90.0,4.0,0.0
26965,25.0,7.0,90.0,15.0,0.0
26966,65.0,0.0,60.0,12.0,0.0
26967,65.0,0.0,90.0,2.0,0.0
26968,56.0,0.0,90.0,4.0,0.0
26969,61.0,0.0,90.0,2.0,0.0
26970,25.0,0.0,90.0,3.0,0.0
26971,77.0,0.0,60.0,11.0,0.0
26972,77.0,60.0,60.0,11.0,0.0
26973,65.0,0.0,60.0,12.0,0.0
26974,56.0,0.0,60.0,13.0,0.0
26975,53.0,0.0,90.0,3.0,0.0
26976,49.0,0.0,90.0,3.0,0.0
26977,77.0,0.0,60.0,11.0,0.0
26978,65.0,7.0,90.0,2.0,0.0
26979,77.0,0.0,90.0,1.0,0.0
26980,68.0,0.0,90.0,1.0,0.0
26981,61.0,0.0,90.0,2.0,0.0
26982,44.0,52.0,120.0,10.0,0.0
26983,68.0,0.0,90.0,5.0,0.0
26984,56.0,0.0,90.0,5.0,0.0
26985,56.0,0.0,90.0,4.0,0.0
26986,44.0,0.0,90.0,4.0,0.0
26987,25.0,0.0,90.0,3.0,0.0
26988,56.0,53.0,60.0,13.0,0.0
26989,25.0,0.0,90.0,15.0,0.0
26990,85.0,0.0,90.0,0.0,0.0
26991,37.0,0.0,90.0,14.0,0.0
26992,65.0,0.0,60.0,12.0,0.0
26993,89.0,0.0,90.0,0.0,0.0
26994,65.0,0.0,60.0,12.0,0.0
26995,77.0,8.0,60.0,11.0,0.0
26996,56.0,0.0,60.0,13.0,0.0
26997,44.0,0.0,90.0,4.0,0.0
26998,65.0,0.0,60.0,12.0,0.0
26999,56.0,0.0,90.0,4.0,0.0
27000,65.0,0.0,90.0,2.0,0.0
27001,61.0,0.0,90.0,2.0,0.0
27002,37.0,0.0,90.0,14.0,0.0
27003,77.0,53.0,60.0,11.0,0.0
27004,77.0,0.0,90.0,1.0,0.0
27005,68.0,0.0,90.0,1.0,0.0
27006,44.0,52.0,120.0,10.0,0.0
27007,56.0,0.0,60.0,13.0,0.0
27008,89.0,7.0,90.0,0.0,0.0
27009,68.0,0.0,90.0,5.0,0.0
27010,25.0,0.0,90.0,15.0,0.0
27011,56.0,0.0,90.0,5.0,0.0
27012,25.0,0.0,90.0,3.0,0.0
27013,85.0,0.0,90.0,0.0,0.0
27014,53.0,0.0,90.0,3.0,0.0
27015,49.0,0.0,90.0,3.0,0.0
27016,65.0,0.0,60.0,12.0,0.0
27017,77.0,0.0,60.0,11.0,0.0
27018,56.0,8.0,60.0,13.0,0.0
27019,44.0,52.0,120.0,10.0,0.0
27020,25.0,7.0,90.0,3.0,0.0
27021,56.0,0.0,60.0,13.0,0.0
27022,68.0,0.0,90.0,1.0,0.0
27023,25.0,0.0,90.0,15.0,0.0
27024,68.0,0.0,90.0,5.0,0.0
27025,65.0,0.0,90.0,2.0,0.0
27026,56.0,0.0,90.0,5.0,0.0
27027,56.0,0.0,90.0,4.0,0.0
27028,44.0,0.0,90.0,4.0,0.0
27029,77.0,0.0,90.0,1.0,0.0
27030,61.0,0.0,90.0,2.0,0.0
27031,89.0,0.0,90.0,0.0,0.0
27032,85.0,0.0,90.0,0.0,0.0
27033,53.0,0.0,90.0,3.0,0.0
27034,49.0,0.0,90.0,3.0,0.0
27035,65.0,53.0,60.0,12.0,0.0
27036,37.0,0.0,90.0,14.0,0.0
27037,77.0,0.0,60.0,11.0,0.0
27038,56.0,8.0,60.0,13.0,0.0
27039,65.0,0.0,60.0,12.0,0.0
27040,77.0,0.0,60.0,11.0,0.0
27041,65.0,7.0,930.0,6.0,0.0
27042,68.0,0.0,240.0,5.0,0.0
27043,56.0,52.0,240.0,5.0,0.0
27044,80.0,53.0,60.0,11.0,0.0
27045,49.0,0.0,480.0,3.0,0.0
27046,44.0,0.0,240.0,10.0,0.0
27047,77.0,0.0,480.0,1.0,0.0
27048,80.0,52.0,480.0,1.0,0.0
27049,68.0,0.0,480.0,2.0,0.0
27050,65.0,0.0,480.0,2.0,0.0
27051,53.0,0.0,480.0,3.0,0.0
27052,56.0,0.0,480.0,4.0,0.0
27053,44.0,0.0,480.0,4.0,0.0
27054,25.0,7.0,90.0,15.0,0.0
27055,65.0,0.0,60.0,13.0,0.0
27056,49.0,0.0,930.0,8.0,0.0
27057,68.0,0.0,60.0,12.0,0.0
27058,37.0,0.0,90.0,14.0,0.0
27059,61.0,0.0,930.0,7.0,0.0
27060,89.0,0.0,480.0,0.0,0.0
27061,85.0,0.0,480.0,0.0,0.0
27062,25.0,0.0,90.0,3.0,0.0
27063,56.0,60.0,60.0,13.0,0.0
27064,65.0,0.0,60.0,12.0,0.0
27065,65.0,0.0,60.0,11.0,0.0
27066,80.0,0.0,60.0,11.0,0.0
27067,25.0,0.0,90.0,15.0,0.0
27068,68.0,53.0,60.0,12.0,0.0
27069,37.0,7.0,90.0,14.0,0.0
27070,25.0,0.0,90.0,3.0,0.0
27071,65.0,0.0,60.0,13.0,0.0
27072,80.0,0.0,60.0,11.0,0.0
27073,65.0,0.0,60.0,13.0,0.0
27074,68.0,8.0,60.0,12.0,0.0
27075,65.0,0.0,60.0,13.0,0.0
27076,25.0,0.0,90.0,15.0,0.0
27077,68.0,53.0,60.0,12.0,0.0
27078,37.0,7.0,90.0,14.0,0.0
27079,25.0,0.0,90.0,3.0,0.0
27080,80.0,0.0,60.0,11.0,0.0
27081,80.0,0.0,60.0,11.0,0.0
27082,68.0,60.0,60.0,12.0,0.0
27083,65.0,0.0,60.0,13.0,0.0
27084,68.0,0.0,60.0,12.0,0.0
27085,25.0,0.0,90.0,15.0,0.0
27086,25.0,7.0,90.0,3.0,0.0
27087,37.0,0.0,90.0,14.0,0.0
27088,65.0,0.0,60.0,13.0,0.0
27089,80.0,53.0,60.0,11.0,0.0
27090,65.0,0.0,60.0,13.0,0.0
27091,80.0,0.0,60.0,11.0,0.0
27092,68.0,8.0,60.0,12.0,0.0
27093,53.0,0.0,90.0,3.0,0.0
27094,65.0,53.0,60.0,13.0,0.0
27095,25.0,0.0,90.0,3.0,0.0
27096,49.0,0.0,90.0,3.0,0.0
27097,44.0,0.0,90.0,4.0,0.0
27098,89.0,7.0,90.0,0.0,0.0
27099,56.0,0.0,90.0,4.0,0.0
27100,68.0,0.0,90.0,2.0,0.0
27101,25.0,0.0,90.0,15.0,0.0
27102,77.0,0.0,90.0,1.0,0.0
27103,68.0,0.0,60.0,12.0,0.0
27104,80.0,0.0,60.0,11.0,0.0
27105,80.0,0.0,90.0,1.0,0.0
27106,37.0,0.0,90.0,14.0,0.0
27107,85.0,0.0,90.0,0.0,0.0
27108,65.0,0.0,90.0,2.0,0.0
27109,68.0,0.0,60.0,12.0,0.0
27110,80.0,60.0,60.0,11.0,0.0
27111,65.0,0.0,60.0,13.0,0.0
27112,85.0,0.0,90.0,0.0,0.0
27113,25.0,7.0,90.0,3.0,0.0
27114,89.0,0.0,90.0,0.0,0.0
27115,80.0,53.0,60.0,11.0,0.0
27116,77.0,0.0,90.0,1.0,0.0
27117,37.0,0.0,90.0,14.0,0.0
27118,44.0,52.0,120.0,10.0,0.0
27119,56.0,0.0,90.0,4.0,0.0
27120,44.0,0.0,90.0,4.0,0.0
27121,65.0,0.0,60.0,13.0,0.0
27122,80.0,0.0,90.0,1.0,0.0
27123,56.0,0.0,90.0,5.0,0.0
27124,68.0,0.0,90.0,5.0,0.0
27125,68.0,0.0,90.0,2.0,0.0
27126,49.0,0.0,90.0,3.0,0.0
27127,25.0,0.0,90.0,15.0,0.0
27128,65.0,0.0,90.0,2.0,0.0
27129,53.0,0.0,90.0,3.0,0.0
27130,68.0,0.0,60.0,12.0,0.0
27131,68.0,0.0,60.0,12.0,0.0
27132,65.0,0.0,60.0,13.0,0.0
27133,80.0,8.0,60.0,11.0,0.0
27134,44.0,0.0,90.0,4.0,0.0
27135,68.0,0.0,60.0,12.0,0.0
27136,77.0,0.0,90.0,1.0,0.0
27137,56.0,0.0,90.0,4.0,0.0
27138,56.0,0.0,90.0,5.0,0.0
27139,68.0,0.0,90.0,5.0,0.0
27140,65.0,0.0,60.0,13.0,0.0
27141,89.0,0.0,90.0,0.0,0.0
27142,49.0,0.0,90.0,3.0,0.0
27143,80.0,53.0,60.0,11.0,0.0
27144,44.0,52.0,120.0,10.0,0.0
27145,25.0,0.0,90.0,15.0,0.0
27146,53.0,0.0,90.0,3.0,0.0
27147,37.0,7.0,90.0,14.0,0.0
27148,68.0,0.0,90.0,2.0,0.0
27149,25.0,0.0,90.0,3.0,0.0
27150,85.0,0.0,90.0,0.0,0.0
27151,80.0,0.0,90.0,1.0,0.0
27152,65.0,0.0,90.0,2.0,0.0
27153,65.0,8.0,60.0,13.0,0.0
27154,80.0,0.0,60.0,11.0,0.0
27155,68.0,0.0,60.0,12.0,0.0
27156,80.0,0.0,90.0,1.0,0.0
27157,77.0,0.0,90.0,1.0,0.0
27158,68.0,0.0,90.0,5.0,0.0
27159,85.0,0.0,90.0,0.0,0.0
27160,53.0,0.0,90.0,3.0,0.0
27161,44.0,52.0,120.0,10.0,0.0
27162,49.0,0.0,90.0,3.0,0.0
27163,56.0,0.0,90.0,5.0,0.0
27164,25.0,0.0,90.0,3.0,0.0
27165,37.0,0.0,90.0,14.0,0.0
27166,65.0,0.0,90.0,2.0,0.0
27167,68.0,0.0,90.0,2.0,0.0
27168,89.0,0.0,90.0,0.0,0.0
27169,68.0,0.0,60.0,12.0,0.0
27170,25.0,0.0,90.0,15.0,0.0
27171,44.0,0.0,90.0,4.0,0.0
27172,80.0,53.0,60.0,11.0,0.0
27173,56.0,0.0,90.0,4.0,0.0
27174,65.0,0.0,60.0,13.0,0.0
27175,65.0,8.0,60.0,13.0,0.0
27176,80.0,0.0,60.0,11.0,0.0
27177,68.0,0.0,60.0,12.0,0.0
27178,44.0,52.0,240.0,10.0,0.0
27179,25.0,0.0,90.0,3.0,0.0
27180,65.0,0.0,450.0,6.0,0.0
27181,49.0,0.0,210.0,3.0,0.0
27182,25.0,0.0,90.0,15.0,0.0
27183,85.0,0.0,60.0,11.0,0.0
27184,53.0,0.0,210.0,3.0,0.0
27185,56.0,0.0,210.0,5.0,0.0
27186,89.0,7.0,210.0,0.0,0.0
27187,80.0,0.0,210.0,1.0,0.0
27188,68.0,0.0,210.0,5.0,0.0
27189,37.0,7.0,90.0,14.0,0.0
27190,49.0,0.0,450.0,8.0,0.0
27191,73.0,0.0,210.0,2.0,0.0
27192,61.0,0.0,450.0,7.0,0.0
27193,65.0,0.0,60.0,13.0,0.0
27194,73.0,53.0,60.0,12.0,0.0
27195,65.0,0.0,210.0,2.0,0.0
27196,77.0,0.0,210.0,1.0,0.0
27197,85.0,0.0,210.0,0.0,0.0
27198,44.0,0.0,210.0,4.0,0.0
27199,56.0,0.0,210.0,4.0,0.0
27200,65.0,60.0,60.0,12.0,0.0
27201,56.0,0.0,60.0,13.0,0.0
27202,65.0,0.0,60.0,11.0,0.0
27203,73.0,0.0,60.0,12.0,0.0
27204,85.0,53.0,60.0,11.0,0.0
27205,37.0,0.0,90.0,14.0,0.0
27206,65.0,0.0,60.0,13.0,0.0
27207,25.0,0.0,90.0,15.0,0.0
27208,25.0,0.0,90.0,3.0,0.0
27209,65.0,0.0,60.0,13.0,0.0
27210,73.0,8.0,60.0,12.0,0.0
27211,85.0,0.0,60.0,11.0,0.0
27212,49.0,0.0,90.0,3.0,0.0
27213,65.0,0.0,60.0,13.0,0.0
27214,53.0,0.0,90.0,3.0,0.0
27215,68.0,0.0,90.0,5.0,0.0
27216,89.0,0.0,90.0,0.0,0.0
27217,56.0,0.0,90.0,5.0,0.0
27218,80.0,0.0,90.0,1.0,0.0
27219,85.0,0.0,90.0,0.0,0.0
27220,56.0,0.0,90.0,4.0,0.0
27221,61.0,0.0,90.0,4.0,0.0
27222,85.0,0.0,60.0,11.0,0.0
27223,25.0,0.0,90.0,3.0,0.0
27224,77.0,0.0,90.0,1.0,0.0
27225,37.0,0.0,90.0,14.0,0.0
27226,73.0,0.0,90.0,2.0,0.0
27227,65.0,7.0,90.0,2.0,0.0
27228,25.0,0.0,90.0,15.0,0.0
27229,73.0,53.0,60.0,12.0,0.0
27230,44.0,52.0,120.0,10.0,0.0
27231,85.0,8.0,60.0,11.0,0.0
27232,65.0,0.0,60.0,13.0,0.0
27233,73.0,0.0,60.0,12.0,0.0
27234,85.0,0.0,90.0,0.0,0.0
27235,73.0,53.0,60.0,12.0,0.0
27236,85.0,0.0,60.0,11.0,0.0
27237,89.0,0.0,90.0,0.0,0.0
27238,25.0,7.0,90.0,15.0,0.0
27239,56.0,0.0,90.0,5.0,0.0
27240,37.0,0.0,90.0,14.0,0.0
27241,65.0,0.0,90.0,2.0,0.0
27242,73.0,0.0,90.0,2.0,0.0
27243,65.0,0.0,60.0,13.0,0.0
27244,25.0,0.0,90.0,3.0,0.0
27245,77.0,0.0,90.0,1.0,0.0
27246,61.0,0.0,90.0,4.0,0.0
27247,80.0,0.0,90.0,1.0,0.0
27248,53.0,0.0,90.0,3.0,0.0
27249,49.0,0.0,90.0,3.0,0.0
27250,68.0,0.0,90.0,5.0,0.0
27251,56.0,0.0,90.0,4.0,0.0
27252,44.0,52.0,120.0,10.0,0.0
27253,85.0,0.0,60.0,11.0,0.0
27254,65.0,8.0,60.0,13.0,0.0
27255,73.0,0.0,60.0,12.0,0.0
27256,68.0,0.0,90.0,5.0,0.0
27257,61.0,0.0,90.0,4.0,0.0
27258,56.0,0.0,90.0,5.0,0.0
27259,37.0,0.0,90.0,14.0,0.0
27260,89.0,0.0,90.0,0.0,0.0
27261,25.0,7.0,90.0,15.0,0.0
27262,56.0,0.0,90.0,4.0,0.0
27263,65.0,0.0,90.0,2.0,0.0
27264,73.0,0.0,90.0,2.0,0.0
27265,73.0,0.0,60.0,12.0,0.0
27266,49.0,0.0,90.0,3.0,0.0
27267,25.0,0.0,90.0,3.0,0.0
27268,85.0,53.0,60.0,11.0,0.0
27269,65.0,0.0,450.0,6.0,0.0
27270,85.0,0.0,90.0,0.0,0.0
27271,53.0,0.0,90.0,3.0,0.0
27272,77.0,0.0,90.0,1.0,0.0
27273,61.0,0.0,450.0,7.0,0.0
27274,80.0,0.0,90.0,1.0,0.0
27275,49.0,0.0,450.0,8.0,0.0
27276,65.0,0.0,60.0,13.0,0.0
27277,44.0,52.0,120.0,10.0,0.0
27278,73.0,0.0,60.0,12.0,0.0
27279,65.0,0.0,60.0,13.0,0.0
27280,85.0,8.0,60.0,11.0,0.0
27281,85.0,0.0,90.0,0.0,0.0
27282,80.0,0.0,90.0,1.0,0.0
27283,89.0,0.0,90.0,0.0,0.0
27284,53.0,0.0,90.0,3.0,0.0
27285,49.0,0.0,90.0,3.0,0.0
27286,25.0,0.0,90.0,3.0,0.0
27287,65.0,53.0,60.0,13.0,0.0
27288,56.0,0.0,90.0,4.0,0.0
27289,61.0,0.0,90.0,4.0,0.0
27290,85.0,0.0,60.0,11.0,0.0
27291,44.0,52.0,120.0,10.0,0.0
27292,73.0,0.0,60.0,12.0,0.0
27293,56.0,0.0,90.0,5.0,0.0
27294,68.0,0.0,90.0,5.0,0.0
27295,37.0,0.0,90.0,14.0,0.0
27296,77.0,0.0,90.0,1.0,0.0
27297,25.0,0.0,90.0,15.0,0.0
27298,65.0,7.0,90.0,2.0,0.0
27299,73.0,0.0,90.0,2.0,0.0
27300,73.0,8.0,60.0,12.0,0.0
27301,85.0,0.0,60.0,11.0,0.0
27302,65.0,0.0,60.0,13.0,0.0
27303,80.0,0.0,90.0,1.0,0.0
27304,68.0,0.0,90.0,5.0,0.0
27305,53.0,0.0,90.0,3.0,0.0
27306,65.0,0.0,90.0,2.0,0.0
27307,73.0,0.0,90.0,2.0,0.0
27308,85.0,0.0,60.0,11.0,0.0
27309,56.0,0.0,90.0,5.0,0.0
27310,49.0,0.0,90.0,3.0,0.0
27311,25.0,0.0,90.0,15.0,0.0
27312,37.0,0.0,90.0,14.0,0.0
27313,61.0,0.0,90.0,4.0,0.0
27314,85.0,0.0,90.0,0.0,0.0
27315,25.0,0.0,90.0,3.0,0.0
27316,89.0,0.0,90.0,0.0,0.0
27317,73.0,53.0,60.0,12.0,0.0
27318,77.0,0.0,90.0,1.0,0.0
27319,44.0,52.0,120.0,10.0,0.0
27320,56.0,7.0,90.0,4.0,0.0
27321,65.0,0.0,60.0,13.0,0.0
27322,73.0,0.0,60.0,12.0,0.0
27323,85.0,0.0,60.0,11.0,0.0
27324,65.0,8.0,60.0,13.0,0.0
27325,56.0,0.0,90.0,4.0,0.0
27326,49.0,0.0,90.0,3.0,0.0
27327,68.0,0.0,90.0,5.0,0.0
27328,73.0,0.0,90.0,2.0,0.0
27329,25.0,0.0,90.0,15.0,0.0
27330,25.0,7.0,90.0,3.0,0.0
27331,44.0,52.0,120.0,10.0,0.0
27332,65.0,0.0,60.0,13.0,0.0
27333,73.0,53.0,60.0,12.0,0.0
27334,37.0,0.0,90.0,14.0,0.0
27335,85.0,0.0,60.0,11.0,0.0
27336,77.0,0.0,90.0,1.0,0.0
27337,65.0,0.0,90.0,2.0,0.0
27338,85.0,0.0,90.0,0.0,0.0
27339,89.0,0.0,90.0,0.0,0.0
27340,56.0,0.0,90.0,5.0,0.0
27341,80.0,0.0,90.0,1.0,0.0
27342,53.0,0.0,90.0,3.0,0.0
27343,61.0,0.0,90.0,4.0,0.0
27344,85.0,0.0,60.0,11.0,0.0
27345,65.0,0.0,60.0,13.0,0.0
27346,73.0,8.0,60.0,12.0,0.0
27347,49.0,0.0,450.0,8.0,0.0
27348,37.0,0.0,90.0,14.0,0.0
27349,61.0,0.0,90.0,4.0,0.0
27350,56.0,0.0,90.0,5.0,0.0
27351,65.0,0.0,450.0,6.0,0.0
27352,77.0,53.0,60.0,12.0,0.0
27353,53.0,0.0,90.0,3.0,0.0
27354,49.0,0.0,90.0,3.0,0.0
27355,61.0,0.0,450.0,7.0,0.0
27356,44.0,52.0,120.0,10.0,0.0
27357,68.0,0.0,60.0,13.0,0.0
27358,56.0,0.0,90.0,4.0,0.0
27359,89.0,0.0,90.0,0.0,0.0
27360,89.0,0.0,60.0,11.0,0.0
27361,77.0,7.0,90.0,1.0,0.0
27362,80.0,0.0,90.0,1.0,0.0
27363,25.0,0.0,90.0,3.0,0.0
27364,65.0,0.0,90.0,2.0,0.0
27365,25.0,0.0,90.0,15.0,0.0
27366,68.0,0.0,90.0,5.0,0.0
27367,73.0,0.0,90.0,2.0,0.0
27368,85.0,0.0,90.0,0.0,0.0
27369,65.0,0.0,60.0,12.0,0.0
27370,65.0,0.0,60.0,13.0,0.0
27371,65.0,8.0,60.0,11.0,0.0
27372,25.0,0.0,90.0,3.0,0.0
27373,85.0,0.0,90.0,0.0,0.0
27374,89.0,0.0,90.0,0.0,0.0
27375,77.0,53.0,60.0,12.0,0.0
27376,25.0,0.0,90.0,15.0,0.0
27377,89.0,0.0,60.0,11.0,0.0
27378,77.0,0.0,90.0,1.0,0.0
27379,68.0,0.0,90.0,5.0,0.0
27380,56.0,0.0,90.0,5.0,0.0
27381,49.0,0.0,90.0,3.0,0.0
27382,53.0,0.0,90.0,3.0,0.0
27383,68.0,0.0,60.0,13.0,0.0
27384,37.0,0.0,90.0,14.0,0.0
27385,65.0,0.0,90.0,2.0,0.0
27386,73.0,0.0,90.0,2.0,0.0
27387,56.0,0.0,90.0,4.0,0.0
27388,61.0,7.0,90.0,4.0,0.0
27389,44.0,52.0,120.0,10.0,0.0
27390,80.0,0.0,90.0,1.0,0.0
27391,68.0,0.0,60.0,13.0,0.0
27392,89.0,0.0,60.0,11.0,0.0
27393,77.0,8.0,60.0,12.0,0.0
27394,53.0,0.0,90.0,3.0,0.0
27395,77.0,0.0,60.0,12.0,0.0
27396,44.0,52.0,120.0,10.0,0.0
27397,77.0,0.0,90.0,1.0,0.0
27398,80.0,0.0,90.0,1.0,0.0
27399,37.0,0.0,90.0,14.0,0.0
27400,73.0,0.0,90.0,2.0,0.0
27401,56.0,0.0,90.0,4.0,0.0
27402,65.0,0.0,90.0,2.0,0.0
27403,25.0,0.0,90.0,15.0,0.0
27404,56.0,0.0,90.0,5.0,0.0
27405,49.0,0.0,90.0,3.0,0.0
27406,89.0,7.0,90.0,0.0,0.0
27407,85.0,0.0,90.0,0.0,0.0
27408,25.0,0.0,90.0,3.0,0.0
27409,68.0,0.0,60.0,13.0,0.0
27410,89.0,53.0,60.0,11.0,0.0
27411,68.0,0.0,90.0,5.0,0.0
27412,61.0,0.0,90.0,4.0,0.0
27413,89.0,0.0,60.0,11.0,0.0
27414,77.0,0.0,60.0,12.0,0.0
27415,68.0,8.0,60.0,13.0,0.0
27416,85.0,7.0,90.0,0.0,0.0
27417,89.0,53.0,60.0,11.0,0.0
27418,56.0,0.0,90.0,4.0,0.0
27419,25.0,0.0,90.0,3.0,0.0
27420,68.0,0.0,90.0,5.0,0.0
27421,56.0,0.0,90.0,5.0,0.0
27422,73.0,0.0,90.0,2.0,0.0
27423,65.0,0.0,90.0,2.0,0.0
27424,89.0,0.0,90.0,0.0,0.0
27425,80.0,0.0,90.0,1.0,0.0
27426,37.0,0.0,90.0,14.0,0.0
27427,44.0,52.0,120.0,10.0,0.0
27428,49.0,0.0,90.0,3.0,0.0
27429,53.0,0.0,90.0,3.0,0.0
27430,77.0,0.0,60.0,12.0,0.0
27431,68.0,0.0,60.0,13.0,0.0
27432,61.0,0.0,90.0,4.0,0.0
27433,25.0,0.0,90.0,15.0,0.0
27434,77.0,0.0,90.0,1.0,0.0
27435,77.0,0.0,60.0,12.0,0.0
27436,68.0,0.0,60.0,13.0,0.0
27437,89.0,8.0,60.0,11.0,0.0
27438,49.0,0.0,450.0,8.0,0.0
27439,68.0,0.0,90.0,5.0,0.0
27440,56.0,0.0,90.0,5.0,0.0
27441,53.0,0.0,90.0,3.0,0.0
27442,25.0,0.0,90.0,3.0,0.0
27443,68.0,0.0,60.0,13.0,0.0
27444,37.0,0.0,90.0,14.0,0.0
27445,89.0,0.0,90.0,0.0,0.0
27446,49.0,7.0,90.0,3.0,0.0
27447,77.0,0.0,90.0,1.0,0.0
27448,80.0,0.0,90.0,1.0,0.0
27449,77.0,53.0,60.0,12.0,0.0
27450,25.0,0.0,90.0,15.0,0.0
27451,73.0,0.0,90.0,2.0,0.0
27452,89.0,0.0,60.0,11.0,0.0
27453,44.0,52.0,120.0,10.0,0.0
27454,65.0,7.0,450.0,6.0,0.0
27455,85.0,0.0,90.0,0.0,0.0
27456,56.0,0.0,90.0,4.0,0.0
27457,61.0,0.0,90.0,4.0,0.0
27458,61.0,0.0,450.0,7.0,0.0
27459,65.0,0.0,90.0,2.0,0.0
27460,77.0,0.0,60.0,12.0,0.0
27461,68.0,8.0,60.0,13.0,0.0
27462,89.0,0.0,60.0,11.0,0.0
27463,73.0,7.0,90.0,2.0,0.0
27464,68.0,0.0,60.0,13.0,0.0
27465,61.0,0.0,90.0,4.0,0.0
27466,85.0,0.0,90.0,0.0,0.0
27467,89.0,0.0,90.0,0.0,0.0
27468,65.0,0.0,90.0,2.0,0.0
27469,56.0,0.0,90.0,4.0,0.0
27470,25.0,0.0,90.0,15.0,0.0
27471,37.0,0.0,90.0,14.0,0.0
27472,77.0,53.0,60.0,12.0,0.0
27473,53.0,0.0,90.0,3.0,0.0
27474,49.0,0.0,90.0,3.0,0.0
27475,89.0,0.0,60.0,11.0,0.0
27476,80.0,0.0,90.0,1.0,0.0
27477,77.0,0.0,90.0,1.0,0.0
27478,25.0,0.0,90.0,3.0,0.0
27479,68.0,0.0,90.0,5.0,0.0
27480,56.0,0.0,90.0,5.0,0.0
27481,44.0,52.0,120.0,10.0,0.0
27482,68.0,0.0,60.0,13.0,0.0
27483,77.0,8.0,60.0,12.0,0.0
27484,89.0,0.0,60.0,11.0,0.0
27485,89.0,0.0,90.0,0.0,0.0
27486,85.0,0.0,90.0,0.0,0.0
27487,65.0,0.0,90.0,2.0,0.0
27488,56.0,0.0,90.0,5.0,0.0
27489,68.0,7.0,90.0,5.0,0.0
27490,73.0,0.0,90.0,2.0,0.0
27491,44.0,52.0,120.0,10.0,0.0
27492,56.0,0.0,90.0,4.0,0.0
27493,25.0,0.0,90.0,3.0,0.0
27494,49.0,0.0,90.0,3.0,0.0
27495,37.0,0.0,90.0,14.0,0.0
27496,53.0,0.0,90.0,3.0,0.0
27497,77.0,53.0,60.0,12.0,0.0
27498,77.0,0.0,90.0,1.0,0.0
27499,80.0,0.0,90.0,1.0,0.0
27500,89.0,0.0,60.0,11.0,0.0
27501,68.0,0.0,60.0,13.0,0.0
27502,25.0,0.0,90.0,15.0,0.0
27503,61.0,0.0,90.0,4.0,0.0
27504,68.0,0.0,60.0,13.0,0.0
27505,77.0,0.0,60.0,12.0,0.0
27506,89.0,8.0,60.0,11.0,0.0
27507,25.0,0.0,90.0,15.0,0.0
27508,68.0,0.0,90.0,5.0,0.0
27509,77.0,0.0,90.0,1.0,0.0
27510,89.0,53.0,60.0,11.0,0.0
27511,44.0,180.0,120.0,10.0,0.0
27512,73.0,0.0,90.0,2.0,0.0
27513,65.0,0.0,90.0,2.0,0.0
27514,77.0,0.0,60.0,12.0,0.0
27515,80.0,0.0,90.0,1.0,0.0
27516,37.0,0.0,90.0,14.0,0.0
27517,56.0,0.0,90.0,5.0,0.0
27518,25.0,0.0,90.0,3.0,0.0
27519,61.0,0.0,90.0,4.0,0.0
27520,56.0,0.0,90.0,4.0,0.0
27521,89.0,0.0,90.0,0.0,0.0
27522,68.0,0.0,60.0,13.0,0.0
27523,49.0,0.0,90.0,3.0,0.0
27524,85.0,0.0,90.0,0.0,0.0
27525,53.0,0.0,90.0,3.0,0.0
27526,68.0,0.0,60.0,13.0,0.0
27527,77.0,0.0,60.0,12.0,0.0
27528,89.0,8.0,60.0,11.0,0.0
27529,39.0,0.0,180.0,10.0,0.0
27530,51.0,0.0,180.0,3.0,0.0
27531,55.0,0.0,180.0,3.0,0.0
27532,87.0,0.0,180.0,0.0,0.0
27533,51.0,0.0,180.0,4.0,0.0
27534,67.0,0.0,180.0,2.0,0.0
27535,75.0,0.0,180.0,12.0,0.0
27536,51.0,960.0,180.0,5.0,0.0
27537,63.0,0.0,180.0,5.0,0.0
27538,70.0,0.0,180.0,1.0,0.0
27539,79.0,0.0,180.0,1.0,0.0
27540,67.0,0.0,180.0,13.0,0.0
27541,39.0,0.0,180.0,8.0,0.0
27542,87.0,0.0,180.0,11.0,0.0
27543,55.0,0.0,180.0,7.0,0.0
27544,63.0,0.0,180.0,6.0,0.0
27545,70.0,0.0,180.0,2.0,0.0
27546,58.0,0.0,180.0,4.0,0.0
27547,27.0,0.0,180.0,3.0,0.0
27548,82.0,0.0,180.0,0.0,0.0
27549,39.0,0.0,180.0,14.0,0.0
27550,27.0,0.0,180.0,15.0,0.0
27551,58.0,0.0,180.0,11.0,0.0
27552,67.0,0.0,180.0,2.0,0.0
27553,67.0,0.0,180.0,11.0,0.0
27554,75.0,960.0,180.0,2.0,0.0
27555,75.0,0.0,180.0,12.0,0.0
27556,82.0,0.0,180.0,0.0,0.0
27557,63.0,0.0,180.0,5.0,0.0
27558,70.0,0.0,180.0,5.0,0.0
27559,27.0,0.0,180.0,15.0,0.0
27560,39.0,0.0,180.0,10.0,0.0
27561,39.0,0.0,180.0,8.0,0.0
27562,39.0,0.0,180.0,14.0,0.0
27563,27.0,0.0,180.0,3.0,0.0
27564,51.0,0.0,180.0,12.0,0.0
27565,51.0,0.0,180.0,7.0,0.0
27566,63.0,0.0,180.0,6.0,0.0
27567,58.0,0.0,180.0,4.0,0.0
27568,51.0,0.0,180.0,4.0,0.0
27569,87.0,0.0,180.0,0.0,0.0
27570,51.0,0.0,180.0,11.0,0.0
27571,75.0,0.0,180.0,11.0,0.0
27572,79.0,0.0,180.0,1.0,0.0
27573,70.0,0.0,180.0,1.0,0.0
27574,67.0,0.0,180.0,12.0,0.0
27575,58.0,0.0,180.0,3.0,0.0
27576,58.0,0.0,180.0,12.0,0.0
27577,55.0,0.0,180.0,3.0,0.0
27578,51.0,0.0,180.0,13.0,0.0
27579,67.0,0.0,180.0,13.0,0.0
27580,58.0,0.0,180.0,13.0,0.0
27581,44.0,0.0,180.0,8.0,0.0
27582,44.0,0.0,180.0,10.0,0.0
27583,68.0,0.0,180.0,11.0,0.0
27584,72.0,0.0,180.0,12.0,0.0
27585,32.0,0.0,180.0,3.0,0.0
27586,72.0,0.0,180.0,1.0,0.0
27587,60.0,0.0,180.0,12.0,0.0
27588,44.0,0.0,180.0,14.0,0.0
27589,51.0,0.0,180.0,12.0,0.0
27590,48.0,0.0,180.0,4.0,0.0
27591,51.0,0.0,180.0,7.0,0.0
27592,56.0,0.0,180.0,4.0,0.0
27593,68.0,0.0,180.0,12.0,0.0
27594,80.0,960.0,180.0,1.0,0.0
27595,60.0,0.0,180.0,6.0,0.0
27596,51.0,0.0,180.0,11.0,0.0
27597,32.0,0.0,180.0,15.0,0.0
27598,68.0,0.0,180.0,2.0,0.0
27599,60.0,0.0,180.0,3.0,0.0
27600,56.0,0.0,180.0,3.0,0.0
27601,72.0,0.0,180.0,11.0,0.0
27602,80.0,0.0,180.0,0.0,0.0
27603,84.0,0.0,180.0,0.0,0.0
27604,68.0,0.0,180.0,5.0,0.0
27605,51.0,0.0,180.0,13.0,0.0
27606,72.0,0.0,180.0,2.0,0.0
27607,60.0,0.0,180.0,5.0,0.0
27608,44.0,0.0,180.0,13.0,0.0
27609,68.0,0.0,180.0,13.0,0.0
27610,60.0,0.0,180.0,11.0,0.0
27611,60.0,0.0,180.0,13.0,0.0
27612,51.0,0.0,180.0,7.0,0.0
27613,79.0,960.0,180.0,1.0,0.0
27614,70.0,0.0,180.0,1.0,0.0
27615,75.0,0.0,180.0,11.0,0.0
27616,67.0,0.0,180.0,11.0,0.0
27617,39.0,0.0,180.0,14.0,0.0
27618,51.0,0.0,180.0,11.0,0.0
27619,82.0,0.0,180.0,0.0,0.0
27620,87.0,0.0,180.0,0.0,0.0
27621,39.0,0.0,180.0,10.0,0.0
27622,58.0,0.0,180.0,11.0,0.0
27623,51.0,0.0,180.0,13.0,0.0
27624,67.0,0.0,180.0,13.0,0.0
27625,51.0,0.0,180.0,4.0,0.0
27626,55.0,0.0,180.0,3.0,0.0
27627,75.0,0.0,180.0,12.0,0.0
27628,39.0,0.0,180.0,8.0,0.0
27629,58.0,0.0,180.0,3.0,0.0
27630,51.0,0.0,180.0,12.0,0.0
27631,67.0,0.0,180.0,12.0,0.0
27632,58.0,0.0,180.0,12.0,0.0
27633,63.0,0.0,180.0,5.0,0.0
27634,70.0,0.0,180.0,5.0,0.0
27635,67.0,0.0,180.0,2.0,0.0
27636,27.0,0.0,180.0,15.0,0.0
27637,27.0,0.0,180.0,3.0,0.0
27638,63.0,0.0,180.0,6.0,0.0
27639,58.0,0.0,180.0,13.0,0.0
27640,75.0,0.0,180.0,2.0,0.0
27641,58.0,0.0,180.0,4.0,0.0
27642,72.0,0.0,180.0,1.0,0.0
27643,68.0,0.0,180.0,5.0,0.0
27644,68.0,0.0,180.0,11.0,0.0
27645,51.0,0.0,180.0,11.0,0.0
27646,72.0,0.0,180.0,11.0,0.0
27647,60.0,0.0,180.0,5.0,0.0
27648,72.0,0.0,180.0,2.0,0.0
27649,60.0,0.0,180.0,11.0,0.0
27650,68.0,960.0,180.0,2.0,0.0
27651,84.0,0.0,180.0,0.0,0.0
27652,60.0,0.0,180.0,6.0,0.0
27653,56.0,0.0,180.0,4.0,0.0
27654,48.0,0.0,180.0,4.0,0.0
27655,32.0,0.0,180.0,3.0,0.0
27656,80.0,0.0,180.0,1.0,0.0
27657,32.0,0.0,180.0,15.0,0.0
27658,44.0,0.0,180.0,14.0,0.0
27659,51.0,0.0,180.0,7.0,0.0
27660,80.0,0.0,180.0,0.0,0.0
27661,51.0,0.0,180.0,12.0,0.0
27662,72.0,0.0,180.0,12.0,0.0
27663,60.0,0.0,180.0,12.0,0.0
27664,44.0,0.0,180.0,8.0,0.0
27665,68.0,0.0,180.0,12.0,0.0
27666,44.0,0.0,180.0,10.0,0.0
27667,44.0,0.0,180.0,13.0,0.0
27668,51.0,0.0,180.0,13.0,0.0
27669,68.0,0.0,180.0,13.0,0.0
27670,60.0,0.0,180.0,13.0,0.0
27671,60.0,0.0,180.0,3.0,0.0
27672,56.0,0.0,180.0,3.0,0.0
27673,75.0,0.0,180.0,11.0,0.0
27674,58.0,0.0,180.0,11.0,0.0
27675,70.0,0.0,180.0,1.0,0.0
27676,79.0,0.0,180.0,1.0,0.0
27677,55.0,0.0,180.0,3.0,0.0
27678,58.0,0.0,180.0,3.0,0.0
27679,51.0,0.0,180.0,7.0,0.0
27680,39.0,0.0,180.0,8.0,0.0
27681,51.0,0.0,180.0,11.0,0.0
27682,67.0,0.0,180.0,11.0,0.0
27683,67.0,780.0,180.0,13.0,0.0
27684,27.0,0.0,180.0,3.0,0.0
27685,75.0,0.0,180.0,2.0,0.0
27686,63.0,0.0,180.0,5.0,0.0
27687,75.0,0.0,180.0,12.0,0.0
27688,58.0,0.0,180.0,13.0,0.0
27689,51.0,0.0,180.0,13.0,0.0
27690,39.0,0.0,180.0,10.0,0.0
27691,27.0,0.0,180.0,15.0,0.0
27692,70.0,0.0,180.0,5.0,0.0
27693,39.0,0.0,180.0,14.0,0.0
27694,87.0,0.0,180.0,0.0,0.0
27695,82.0,0.0,180.0,0.0,0.0
27696,63.0,0.0,180.0,6.0,0.0
27697,58.0,0.0,180.0,12.0,0.0
27698,51.0,0.0,180.0,12.0,0.0
27699,51.0,0.0,180.0,4.0,0.0
27700,58.0,0.0,180.0,4.0,0.0
27701,67.0,0.0,180.0,12.0,0.0
27702,67.0,0.0,180.0,2.0,0.0
27703,39.0,240.0,240.0,3.0,0.0
27704,44.0,240.0,240.0,3.0,0.0
27705,39.0,240.0,240.0,3.0,0.0
27706,48.0,180.0,240.0,3.0,0.0
27707,46.0,52.0,180.0,3.0,0.0
27708,44.0,728.0,60.0,3.0,0.0
27709,51.0,240.0,720.0,3.0,0.0
27710,48.0,240.0,240.0,4.0,0.0
27711,56.0,240.0,240.0,4.0,0.0
27712,51.0,240.0,240.0,4.0,0.0
27713,60.0,180.0,240.0,4.0,0.0
27714,58.0,52.0,180.0,4.0,0.0
27715,56.0,968.0,60.0,4.0,0.0
27716,63.0,120.0,1920.0,4.0,0.0
27717,75.0,120.0,240.0,0.0,0.0
27718,61.0,80.0,120.0,13.0,0.0
27719,79.0,0.0,240.0,0.0,0.0
27720,63.0,120.0,120.0,13.0,0.0
27721,67.0,40.0,40.0,11.0,0.0
27722,68.0,0.0,40.0,11.0,0.0
27723,70.0,0.0,240.0,11.0,0.0
27724,75.0,120.0,240.0,0.0,0.0
27725,61.0,120.0,120.0,13.0,0.0
27726,63.0,0.0,120.0,13.0,0.0
27727,82.0,0.0,240.0,0.0,0.0
27728,61.0,80.0,120.0,13.0,0.0
27729,63.0,120.0,120.0,13.0,0.0
27730,67.0,40.0,40.0,11.0,0.0
27731,68.0,0.0,40.0,11.0,0.0
27732,61.0,60.0,120.0,13.0,0.0
27733,70.0,0.0,240.0,11.0,0.0
27734,80.0,45.0,180.0,0.0,0.0
27735,63.0,0.0,240.0,2.0,0.0
27736,63.0,7.0,90.0,13.0,0.0
27737,79.0,8.0,60.0,0.0,0.0
27738,63.0,120.0,1920.0,4.0,0.0
27739,60.0,80.0,120.0,13.0,0.0
27740,80.0,0.0,240.0,0.0,0.0
27741,68.0,0.0,240.0,2.0,0.0
27742,63.0,0.0,120.0,13.0,0.0
27743,68.0,40.0,40.0,11.0,0.0
27744,70.0,120.0,40.0,11.0,0.0
27745,72.0,0.0,240.0,11.0,0.0
27746,63.0,120.0,240.0,2.0,0.0
27747,60.0,120.0,120.0,13.0,0.0
27748,75.0,0.0,240.0,0.0,0.0
27749,63.0,0.0,120.0,13.0,0.0
27750,84.0,0.0,240.0,0.0,0.0
27751,72.0,0.0,240.0,2.0,0.0
27752,60.0,80.0,120.0,13.0,0.0
27753,63.0,0.0,120.0,13.0,0.0
27754,68.0,40.0,40.0,11.0,0.0
27755,70.0,120.0,40.0,11.0,0.0
27756,51.0,120.0,240.0,3.0,0.0
27757,60.0,60.0,120.0,13.0,0.0
27758,72.0,0.0,240.0,11.0,0.0
27759,70.0,0.0,180.0,2.0,0.0
27760,82.0,45.0,180.0,0.0,0.0
27761,63.0,7.0,90.0,13.0,0.0
27762,68.0,8.0,60.0,2.0,0.0
27763,80.0,0.0,60.0,0.0,0.0
27764,67.0,120.0,240.0,2.0,0.0
27765,49.0,80.0,120.0,14.0,0.0
27766,55.0,0.0,240.0,3.0,0.0
27767,61.0,0.0,120.0,13.0,0.0
27768,79.0,0.0,240.0,0.0,0.0
27769,51.0,0.0,120.0,14.0,0.0
27770,63.0,0.0,120.0,13.0,0.0
27771,67.0,40.0,40.0,11.0,0.0
27772,55.0,0.0,40.0,12.0,0.0
27773,56.0,0.0,40.0,12.0,0.0
27774,68.0,0.0,40.0,11.0,0.0
27775,61.0,120.0,120.0,13.0,0.0
27776,63.0,0.0,240.0,2.0,0.0
27777,58.0,0.0,240.0,12.0,0.0
27778,75.0,0.0,240.0,0.0,0.0
27779,49.0,0.0,120.0,14.0,0.0
27780,51.0,0.0,240.0,3.0,0.0
27781,70.0,0.0,240.0,11.0,0.0
27782,51.0,120.0,120.0,14.0,0.0
27783,63.0,0.0,120.0,13.0,0.0
27784,82.0,0.0,240.0,0.0,0.0
27785,61.0,80.0,120.0,13.0,0.0
27786,49.0,0.0,120.0,14.0,0.0
27787,70.0,0.0,240.0,2.0,0.0
27788,58.0,0.0,240.0,3.0,0.0
27789,51.0,0.0,120.0,14.0,0.0
27790,63.0,0.0,120.0,13.0,0.0
27791,55.0,40.0,40.0,12.0,0.0
27792,67.0,0.0,40.0,11.0,0.0
27793,68.0,120.0,40.0,11.0,0.0
27794,56.0,0.0,40.0,12.0,0.0
27795,63.0,0.0,240.0,1.0,0.0
27796,58.0,0.0,240.0,12.0,0.0
27797,68.0,0.0,180.0,2.0,0.0
27798,49.0,60.0,120.0,14.0,0.0
27799,80.0,0.0,180.0,0.0,0.0
27800,61.0,0.0,120.0,13.0,0.0
27801,56.0,45.0,180.0,3.0,0.0
27802,70.0,0.0,240.0,11.0,0.0
27803,63.0,7.0,90.0,13.0,0.0
27804,51.0,0.0,90.0,14.0,0.0
27805,79.0,8.0,60.0,0.0,0.0
27806,67.0,0.0,60.0,2.0,0.0
27807,55.0,0.0,60.0,3.0,0.0
27808,63.0,0.0,1890.0,4.0,0.0
27809,68.0,0.0,240.0,1.0,0.0
27810,56.0,0.0,240.0,3.0,0.0
27811,80.0,0.0,240.0,0.0,0.0
27812,68.0,0.0,240.0,2.0,0.0
27813,48.0,80.0,120.0,14.0,0.0
27814,60.0,0.0,120.0,13.0,0.0
27815,63.0,0.0,120.0,13.0,0.0
27816,51.0,0.0,120.0,14.0,0.0
27817,68.0,40.0,40.0,11.0,0.0
27818,56.0,0.0,40.0,12.0,0.0
27819,58.0,120.0,40.0,12.0,0.0
27820,70.0,0.0,40.0,11.0,0.0
27821,63.0,0.0,240.0,2.0,0.0
27822,72.0,0.0,240.0,11.0,0.0
27823,48.0,0.0,120.0,14.0,0.0
27824,63.0,0.0,240.0,1.0,0.0
27825,60.0,0.0,240.0,12.0,0.0
27826,51.0,0.0,240.0,3.0,0.0
27827,60.0,120.0,120.0,13.0,0.0
27828,75.0,0.0,240.0,0.0,0.0
27829,51.0,0.0,120.0,14.0,0.0
27830,63.0,120.0,120.0,13.0,0.0
27831,72.0,0.0,240.0,1.0,0.0
27832,60.0,0.0,240.0,3.0,0.0
27833,48.0,80.0,120.0,14.0,0.0
27834,60.0,0.0,120.0,13.0,0.0
27835,84.0,120.0,240.0,0.0,0.0
27836,72.0,0.0,240.0,2.0,0.0
27837,63.0,0.0,120.0,13.0,0.0
27838,51.0,0.0,120.0,14.0,0.0
27839,56.0,40.0,40.0,12.0,0.0
27840,68.0,0.0,40.0,11.0,0.0
27841,70.0,0.0,40.0,11.0,0.0
27842,58.0,0.0,40.0,12.0,0.0
27843,70.0,45.0,180.0,2.0,0.0
27844,70.0,0.0,180.0,1.0,0.0
27845,60.0,40.0,240.0,12.0,0.0
27846,60.0,0.0,120.0,13.0,0.0
27847,58.0,0.0,180.0,3.0,0.0
27848,48.0,60.0,120.0,14.0,0.0
27849,72.0,0.0,240.0,11.0,0.0
27850,87.0,0.0,240.0,0.0,0.0
27851,82.0,0.0,180.0,0.0,0.0
27852,63.0,0.0,90.0,13.0,0.0
27853,51.0,7.0,90.0,14.0,0.0
27854,80.0,8.0,60.0,0.0,0.0
27855,68.0,0.0,60.0,2.0,0.0
27856,68.0,0.0,60.0,1.0,0.0
27857,56.0,0.0,60.0,3.0,0.0
27858,49.0,0.0,120.0,14.0,0.0
27859,67.0,0.0,240.0,1.0,0.0
27860,25.0,0.0,120.0,15.0,0.0
27861,91.0,40.0,240.0,0.0,0.0
27862,79.0,0.0,240.0,0.0,0.0
27863,55.0,0.0,240.0,3.0,0.0
27864,39.0,40.0,40.0,10.0,0.0
27865,63.0,0.0,930.0,5.0,0.0
27866,51.0,0.0,930.0,5.0,0.0
27867,61.0,40.0,120.0,13.0,0.0
27868,67.0,0.0,240.0,2.0,0.0
27869,39.0,40.0,40.0,10.0,0.0
27870,39.0,0.0,40.0,10.0,0.0
27871,63.0,0.0,120.0,13.0,0.0
27872,51.0,0.0,120.0,14.0,0.0
27873,27.0,0.0,120.0,15.0,0.0
27874,39.0,40.0,40.0,10.0,0.0
27875,75.0,0.0,40.0,11.0,0.0
27876,67.0,40.0,40.0,12.0,0.0
27877,39.0,0.0,40.0,10.0,0.0
27878,68.0,0.0,40.0,12.0,0.0
27879,39.0,0.0,40.0,10.0,0.0
27880,77.0,0.0,40.0,11.0,0.0
27881,61.0,0.0,120.0,13.0,0.0
27882,70.0,0.0,240.0,12.0,0.0
27883,51.0,0.0,240.0,3.0,0.0
27884,49.0,0.0,120.0,14.0,0.0
27885,75.0,0.0,240.0,0.0,0.0
27886,39.0,40.0,40.0,10.0,0.0
27887,63.0,0.0,240.0,2.0,0.0
27888,79.0,0.0,240.0,11.0,0.0
27889,63.0,0.0,240.0,1.0,0.0
27890,25.0,40.0,120.0,15.0,0.0
27891,87.0,0.0,240.0,0.0,0.0
27892,39.0,40.0,40.0,10.0,0.0
27893,39.0,0.0,40.0,10.0,0.0
27894,39.0,40.0,40.0,10.0,0.0
27895,63.0,0.0,120.0,13.0,0.0
27896,51.0,0.0,120.0,14.0,0.0
27897,27.0,40.0,120.0,15.0,0.0
27898,39.0,40.0,40.0,10.0,0.0
27899,39.0,0.0,40.0,10.0,0.0
27900,94.0,0.0,240.0,0.0,0.0
27901,58.0,0.0,240.0,3.0,0.0
27902,82.0,0.0,240.0,0.0,0.0
27903,49.0,0.0,120.0,14.0,0.0
27904,61.0,0.0,120.0,13.0,0.0
27905,70.0,0.0,240.0,1.0,0.0
27906,70.0,0.0,240.0,2.0,0.0
27907,39.0,40.0,40.0,10.0,0.0
27908,25.0,40.0,120.0,15.0,0.0
27909,39.0,40.0,40.0,10.0,0.0
27910,39.0,0.0,40.0,10.0,0.0
27911,63.0,0.0,120.0,13.0,0.0
27912,27.0,0.0,120.0,15.0,0.0
27913,39.0,40.0,40.0,10.0,0.0
27914,51.0,0.0,120.0,14.0,0.0
27915,39.0,0.0,40.0,10.0,0.0
27916,67.0,40.0,40.0,12.0,0.0
27917,75.0,0.0,40.0,11.0,0.0
27918,68.0,0.0,40.0,12.0,0.0
27919,39.0,40.0,40.0,10.0,0.0
27920,77.0,0.0,40.0,11.0,0.0
27921,80.0,0.0,180.0,0.0,0.0
27922,68.0,0.0,180.0,2.0,0.0
27923,56.0,0.0,180.0,3.0,0.0
27924,49.0,0.0,120.0,14.0,0.0
27925,25.0,0.0,120.0,15.0,0.0
27926,39.0,40.0,40.0,10.0,0.0
27927,79.0,0.0,210.0,11.0,0.0
27928,68.0,20.0,180.0,1.0,0.0
27929,61.0,0.0,120.0,13.0,0.0
27930,70.0,7.0,210.0,12.0,0.0
27931,92.0,0.0,180.0,0.0,0.0
27932,39.0,40.0,40.0,10.0,0.0
27933,39.0,40.0,40.0,10.0,0.0
27934,63.0,0.0,90.0,13.0,0.0
27935,51.0,0.0,90.0,14.0,0.0
27936,27.0,0.0,90.0,15.0,0.0
27937,39.0,20.0,40.0,10.0,0.0
27938,39.0,25.0,40.0,10.0,0.0
27939,91.0,0.0,60.0,0.0,0.0
27940,67.0,0.0,60.0,2.0,0.0
27941,55.0,0.0,60.0,3.0,0.0
27942,67.0,8.0,60.0,1.0,0.0
27943,79.0,0.0,60.0,0.0,0.0
27944,39.0,52.0,40.0,10.0,0.0
27945,60.0,60.0,60.0,13.0,0.0
27946,80.0,52.0,240.0,11.0,0.0
27947,56.0,0.0,210.0,4.0,0.0
27948,80.0,0.0,240.0,0.0,0.0
27949,44.0,0.0,240.0,10.0,0.0
27950,24.0,0.0,210.0,3.0,0.0
27951,68.0,0.0,240.0,2.0,0.0
27952,24.0,7.0,210.0,15.0,0.0
27953,63.0,0.0,60.0,12.0,0.0
27954,92.0,0.0,240.0,0.0,0.0
27955,68.0,0.0,210.0,5.0,0.0
27956,56.0,0.0,210.0,5.0,0.0
27957,36.0,0.0,210.0,14.0,0.0
27958,56.0,0.0,240.0,3.0,0.0
27959,68.0,0.0,240.0,1.0,0.0
27960,60.0,0.0,60.0,13.0,0.0
27961,63.0,60.0,60.0,12.0,0.0
27962,63.0,53.0,60.0,12.0,0.0
27963,60.0,0.0,60.0,13.0,0.0
27964,60.0,0.0,60.0,13.0,0.0
27965,63.0,8.0,60.0,12.0,0.0
27966,61.0,0.0,240.0,3.0,0.0
27967,58.0,0.0,240.0,3.0,0.0
27968,34.0,0.0,240.0,3.0,0.0
27969,67.0,52.0,240.0,2.0,0.0
27970,79.0,0.0,240.0,11.0,0.0
27971,68.0,7.0,210.0,5.0,0.0
27972,44.0,0.0,210.0,4.0,0.0
27973,56.0,0.0,210.0,4.0,0.0
27974,91.0,0.0,240.0,0.0,0.0
27975,46.0,0.0,240.0,14.0,0.0
27976,56.0,0.0,210.0,5.0,0.0
27977,73.0,0.0,240.0,1.0,0.0
27978,67.0,0.0,240.0,1.0,0.0
27979,44.0,0.0,240.0,10.0,0.0
27980,58.0,0.0,60.0,13.0,0.0
27981,34.0,0.0,240.0,15.0,0.0
27982,61.0,60.0,60.0,12.0,0.0
27983,79.0,0.0,240.0,0.0,0.0
27984,61.0,0.0,60.0,12.0,0.0
27985,58.0,60.0,60.0,13.0,0.0
27986,58.0,0.0,60.0,13.0,0.0
27987,61.0,53.0,60.0,12.0,0.0
27988,58.0,0.0,60.0,13.0,0.0
27989,61.0,8.0,60.0,12.0,0.0
27990,68.0,0.0,210.0,5.0,0.0
27991,56.0,7.0,210.0,5.0,0.0
27992,68.0,0.0,240.0,1.0,0.0
27993,77.0,0.0,240.0,0.0,0.0
27994,60.0,60.0,60.0,12.0,0.0
27995,72.0,0.0,240.0,1.0,0.0
27996,32.0,0.0,240.0,3.0,0.0
27997,56.0,0.0,60.0,13.0,0.0
27998,44.0,0.0,240.0,14.0,0.0
27999,44.0,0.0,240.0,10.0,0.0
28000,56.0,0.0,210.0,4.0,0.0
28001,44.0,0.0,210.0,4.0,0.0
28002,60.0,0.0,240.0,3.0,0.0
28003,56.0,0.0,240.0,3.0,0.0
28004,77.0,0.0,240.0,11.0,0.0
28005,68.0,0.0,240.0,2.0,0.0
28006,32.0,52.0,240.0,15.0,0.0
28007,89.0,0.0,240.0,0.0,0.0
28008,56.0,0.0,60.0,13.0,0.0
28009,60.0,60.0,60.0,12.0,0.0
28010,56.0,53.0,60.0,13.0,0.0
28011,60.0,0.0,60.0,12.0,0.0
28012,60.0,0.0,60.0,12.0,0.0
28013,56.0,8.0,60.0,13.0,0.0
28014,68.0,7.0,210.0,5.0,0.0
28015,43.0,0.0,240.0,14.0,0.0
28016,63.0,0.0,240.0,1.0,0.0
28017,31.0,0.0,240.0,3.0,0.0
28018,44.0,0.0,240.0,10.0,0.0
28019,56.0,0.0,210.0,5.0,0.0
28020,70.0,0.0,240.0,2.0,0.0
28021,31.0,0.0,240.0,15.0,0.0
28022,55.0,60.0,60.0,13.0,0.0
28023,63.0,0.0,240.0,2.0,0.0
28024,56.0,0.0,210.0,4.0,0.0
28025,44.0,0.0,210.0,4.0,0.0
28026,55.0,0.0,240.0,3.0,0.0
28027,58.0,0.0,240.0,3.0,0.0
28028,75.0,0.0,240.0,11.0,0.0
28029,58.0,0.0,60.0,12.0,0.0
28030,87.0,0.0,240.0,0.0,0.0
28031,75.0,52.0,240.0,0.0,0.0
28032,70.0,0.0,240.0,1.0,0.0
28033,55.0,0.0,60.0,13.0,0.0
28034,58.0,60.0,60.0,12.0,0.0
28035,55.0,53.0,60.0,13.0,0.0
28036,58.0,0.0,60.0,12.0,0.0
28037,58.0,8.0,60.0,12.0,0.0
28038,55.0,0.0,60.0,13.0,0.0
28039,56.0,0.0,240.0,3.0,0.0
28040,53.0,0.0,240.0,3.0,0.0
28041,41.0,0.0,240.0,14.0,0.0
28042,68.0,0.0,240.0,2.0,0.0
28043,73.0,0.0,240.0,0.0,0.0
28044,53.0,0.0,60.0,13.0,0.0
28045,65.0,0.0,240.0,1.0,0.0
28046,68.0,0.0,240.0,1.0,0.0
28047,56.0,60.0,60.0,12.0,0.0
28048,29.0,0.0,240.0,15.0,0.0
28049,56.0,7.0,210.0,4.0,0.0
28050,44.0,0.0,210.0,4.0,0.0
28051,68.0,0.0,210.0,5.0,0.0
28052,65.0,0.0,240.0,2.0,0.0
28053,56.0,0.0,210.0,5.0,0.0
28054,85.0,0.0,240.0,0.0,0.0
28055,44.0,0.0,240.0,10.0,0.0
28056,73.0,0.0,240.0,11.0,0.0
28057,29.0,0.0,240.0,3.0,0.0
28058,56.0,60.0,60.0,12.0,0.0
28059,53.0,0.0,60.0,13.0,0.0
28060,53.0,53.0,60.0,13.0,0.0
28061,56.0,0.0,60.0,12.0,0.0
28062,53.0,0.0,60.0,13.0,0.0
28063,56.0,8.0,60.0,12.0,0.0
28064,72.0,0.0,240.0,0.0,0.0
28065,27.0,0.0,240.0,3.0,0.0
28066,51.0,60.0,60.0,13.0,0.0
28067,56.0,0.0,210.0,5.0,0.0
28068,68.0,7.0,210.0,5.0,0.0
28069,72.0,0.0,240.0,2.0,0.0
28070,27.0,0.0,240.0,15.0,0.0
28071,39.0,0.0,240.0,14.0,0.0
28072,60.0,0.0,240.0,2.0,0.0
28073,51.0,0.0,240.0,3.0,0.0
28074,56.0,0.0,240.0,3.0,0.0
28075,44.0,0.0,210.0,4.0,0.0
28076,44.0,0.0,240.0,10.0,0.0
28077,84.0,0.0,240.0,0.0,0.0
28078,72.0,0.0,240.0,11.0,0.0
28079,72.0,0.0,240.0,1.0,0.0
28080,56.0,0.0,210.0,4.0,0.0
28081,63.0,0.0,60.0,12.0,0.0
28082,75.0,0.0,240.0,1.0,0.0
28083,63.0,60.0,60.0,12.0,0.0
28084,51.0,0.0,60.0,13.0,0.0
28085,51.0,0.0,60.0,13.0,0.0
28086,63.0,53.0,60.0,12.0,0.0
28087,51.0,8.0,60.0,13.0,0.0
28088,63.0,0.0,60.0,12.0,0.0
28089,77.0,0.0,240.0,1.0,0.0
28090,65.0,0.0,240.0,1.0,0.0
28091,25.0,0.0,240.0,15.0,0.0
28092,82.0,0.0,240.0,0.0,0.0
28093,70.0,0.0,240.0,2.0,0.0
28094,37.0,0.0,240.0,14.0,0.0
28095,70.0,0.0,240.0,0.0,0.0
28096,44.0,7.0,210.0,4.0,0.0
28097,53.0,0.0,240.0,3.0,0.0
28098,49.0,52.0,240.0,3.0,0.0
28099,44.0,0.0,240.0,10.0,0.0
28100,65.0,0.0,240.0,2.0,0.0
28101,70.0,0.0,240.0,11.0,0.0
28102,56.0,0.0,210.0,4.0,0.0
28103,56.0,0.0,210.0,5.0,0.0
28104,49.0,0.0,60.0,13.0,0.0
28105,65.0,60.0,60.0,12.0,0.0
28106,25.0,0.0,240.0,3.0,0.0
28107,53.0,0.0,60.0,13.0,0.0
28108,68.0,0.0,210.0,5.0,0.0
28109,65.0,0.0,60.0,12.0,0.0
28110,49.0,0.0,60.0,13.0,0.0
28111,53.0,60.0,60.0,13.0,0.0
28112,53.0,53.0,60.0,13.0,0.0
28113,65.0,0.0,60.0,12.0,0.0
28114,49.0,0.0,60.0,13.0,0.0
28115,65.0,0.0,60.0,12.0,0.0
28116,49.0,8.0,60.0,13.0,0.0
28117,53.0,0.0,60.0,13.0,0.0
28118,69.0,0.0,210.0,0.0,0.0
28119,65.0,60.0,60.0,12.0,0.0
28120,36.0,0.0,210.0,14.0,0.0
28121,75.0,0.0,210.0,1.0,0.0
28122,56.0,0.0,210.0,5.0,0.0
28123,63.0,0.0,210.0,2.0,0.0
28124,24.0,0.0,210.0,3.0,0.0
28125,60.0,7.0,210.0,3.0,0.0
28126,48.0,0.0,210.0,3.0,0.0
28127,68.0,0.0,210.0,5.0,0.0
28128,44.0,52.0,240.0,10.0,0.0
28129,69.0,0.0,210.0,11.0,0.0
28130,51.0,0.0,60.0,13.0,0.0
28131,24.0,0.0,210.0,15.0,0.0
28132,63.0,0.0,210.0,1.0,0.0
28133,56.0,0.0,210.0,4.0,0.0
28134,44.0,0.0,210.0,4.0,0.0
28135,81.0,0.0,210.0,0.0,0.0
28136,65.0,0.0,60.0,12.0,0.0
28137,51.0,60.0,60.0,13.0,0.0
28138,65.0,0.0,60.0,12.0,0.0
28139,51.0,53.0,60.0,13.0,0.0
28140,65.0,0.0,60.0,12.0,0.0
28141,51.0,8.0,60.0,13.0,0.0
28142,53.0,0.0,690.0,13.0,0.0
28143,56.0,0.0,690.0,5.0,0.0
28144,49.0,0.0,240.0,8.0,0.0
28145,25.0,0.0,690.0,3.0,0.0
28146,44.0,0.0,240.0,10.0,0.0
28147,56.0,52.0,240.0,7.0,0.0
28148,44.0,0.0,690.0,4.0,0.0
28149,56.0,0.0,690.0,4.0,0.0
28150,37.0,0.0,690.0,14.0,0.0
28151,70.0,7.0,210.0,0.0,0.0
28152,82.0,60.0,60.0,0.0,0.0
28153,68.0,0.0,690.0,5.0,0.0
28154,58.0,0.0,240.0,6.0,0.0
28155,25.0,0.0,690.0,15.0,0.0
28156,46.0,0.0,690.0,3.0,0.0
28157,58.0,0.0,690.0,3.0,0.0
28158,77.0,0.0,690.0,1.0,0.0
28159,65.0,0.0,690.0,1.0,0.0
28160,70.0,0.0,690.0,11.0,0.0
28161,70.0,0.0,690.0,2.0,0.0
28162,65.0,0.0,690.0,2.0,0.0
28163,65.0,0.0,690.0,12.0,0.0
28164,80.0,60.0,60.0,0.0,0.0
28165,82.0,53.0,60.0,0.0,0.0
28166,84.0,8.0,60.0,0.0,0.0
28167,85.0,60.0,60.0,0.0,0.0
28168,80.0,0.0,450.0,0.0,0.0
28169,87.0,60.0,60.0,0.0,0.0
28170,89.0,60.0,60.0,0.0,0.0
28171,91.0,188.0,60.0,0.0,0.0
28172,92.0,45.0,180.0,0.0,0.0
28173,51.0,0.0,180.0,13.0,0.0
28174,27.0,0.0,180.0,15.0,0.0
28175,39.0,0.0,180.0,14.0,0.0
28176,44.0,0.0,180.0,10.0,0.0
28177,75.0,0.0,180.0,1.0,0.0
28178,63.0,172.0,180.0,1.0,0.0
28179,80.0,0.0,180.0,0.0,0.0
28180,84.0,0.0,180.0,0.0,0.0
28181,60.0,0.0,180.0,3.0,0.0
28182,48.0,0.0,180.0,3.0,0.0
28183,27.0,0.0,180.0,3.0,0.0
28184,56.0,0.0,180.0,5.0,0.0
28185,72.0,0.0,180.0,11.0,0.0
28186,68.0,0.0,180.0,5.0,0.0
28187,56.0,0.0,180.0,4.0,0.0
28188,72.0,0.0,180.0,2.0,0.0
28189,63.0,0.0,180.0,12.0,0.0
28190,63.0,0.0,180.0,2.0,0.0
28191,44.0,0.0,180.0,4.0,0.0
28192,61.0,0.0,690.0,2.0,0.0
28193,73.0,0.0,690.0,1.0,0.0
28194,41.0,0.0,690.0,14.0,0.0
28195,73.0,0.0,690.0,2.0,0.0
28196,49.0,0.0,690.0,13.0,0.0
28197,56.0,52.0,240.0,7.0,0.0
28198,68.0,0.0,690.0,5.0,0.0
28199,56.0,0.0,690.0,5.0,0.0
28200,73.0,195.0,690.0,11.0,0.0
28201,56.0,0.0,690.0,4.0,0.0
28202,44.0,0.0,690.0,4.0,0.0
28203,29.0,0.0,690.0,15.0,0.0
28204,61.0,0.0,690.0,1.0,0.0
28205,53.0,0.0,240.0,8.0,0.0
28206,61.0,0.0,240.0,6.0,0.0
28207,61.0,0.0,690.0,12.0,0.0
28208,44.0,0.0,240.0,10.0,0.0
28209,49.0,0.0,690.0,3.0,0.0
28210,61.0,0.0,690.0,3.0,0.0
28211,29.0,0.0,690.0,3.0,0.0
28212,80.0,60.0,60.0,0.0,0.0
28213,82.0,60.0,60.0,0.0,0.0
28214,84.0,8.0,60.0,0.0,0.0
28215,85.0,60.0,60.0,0.0,0.0
28216,87.0,60.0,60.0,0.0,0.0
28217,89.0,60.0,60.0,0.0,0.0
28218,91.0,188.0,60.0,0.0,0.0
28219,92.0,45.0,180.0,0.0,0.0
28220,51.0,0.0,180.0,13.0,0.0
28221,39.0,172.0,180.0,14.0,0.0
28222,80.0,0.0,180.0,0.0,0.0
28223,47.0,0.0,180.0,3.0,0.0
28224,27.0,0.0,180.0,3.0,0.0
28225,56.0,0.0,180.0,4.0,0.0
28226,44.0,0.0,180.0,4.0,0.0
28227,63.0,0.0,180.0,12.0,0.0
28228,83.0,0.0,180.0,0.0,0.0
28229,44.0,0.0,180.0,10.0,0.0
28230,75.0,0.0,180.0,1.0,0.0
28231,63.0,0.0,180.0,1.0,0.0
28232,59.0,0.0,180.0,3.0,0.0
28233,68.0,0.0,180.0,5.0,0.0
28234,56.0,0.0,180.0,5.0,0.0
28235,71.0,0.0,180.0,11.0,0.0
28236,27.0,0.0,180.0,15.0,0.0
28237,63.0,0.0,180.0,2.0,0.0
28238,71.0,0.0,180.0,2.0,0.0
28239,56.0,0.0,690.0,4.0,0.0
28240,58.0,52.0,240.0,6.0,0.0
28241,50.0,0.0,240.0,8.0,0.0
28242,38.0,0.0,690.0,14.0,0.0
28243,65.0,195.0,690.0,2.0,0.0
28244,53.0,0.0,240.0,7.0,0.0
28245,65.0,0.0,690.0,12.0,0.0
28246,70.0,0.0,690.0,2.0,0.0
28247,44.0,0.0,240.0,10.0,0.0
28248,77.0,0.0,690.0,1.0,0.0
28249,65.0,0.0,690.0,1.0,0.0
28250,68.0,0.0,690.0,5.0,0.0
28251,44.0,0.0,690.0,4.0,0.0
28252,70.0,0.0,690.0,11.0,0.0
28253,56.0,0.0,690.0,5.0,0.0
28254,46.0,0.0,690.0,3.0,0.0
28255,58.0,0.0,690.0,3.0,0.0
28256,26.0,0.0,690.0,15.0,0.0
28257,26.0,0.0,690.0,3.0,0.0
28258,53.0,0.0,690.0,13.0,0.0
28259,80.0,60.0,60.0,0.0,0.0
28260,82.0,60.0,60.0,0.0,0.0
28261,84.0,8.0,60.0,0.0,0.0
28262,85.0,60.0,60.0,0.0,0.0
28263,87.0,60.0,60.0,0.0,0.0
28264,89.0,60.0,60.0,0.0,0.0
28265,91.0,188.0,60.0,0.0,0.0
28266,92.0,45.0,180.0,0.0,0.0
28267,48.0,0.0,180.0,3.0,0.0
28268,27.0,0.0,180.0,3.0,0.0
28269,44.0,0.0,180.0,4.0,0.0
28270,60.0,0.0,180.0,3.0,0.0
28271,27.0,0.0,180.0,15.0,0.0
28272,51.0,0.0,180.0,13.0,0.0
28273,56.0,0.0,180.0,4.0,0.0
28274,39.0,0.0,180.0,14.0,0.0
28275,68.0,0.0,180.0,5.0,0.0
28276,84.0,0.0,180.0,0.0,0.0
28277,56.0,0.0,180.0,5.0,0.0
28278,63.0,0.0,180.0,1.0,0.0
28279,72.0,0.0,180.0,2.0,0.0
28280,63.0,0.0,180.0,2.0,0.0
28281,44.0,0.0,180.0,10.0,0.0
28282,63.0,0.0,180.0,12.0,0.0
28283,72.0,172.0,180.0,11.0,0.0
28284,80.0,0.0,180.0,0.0,0.0
28285,75.0,0.0,180.0,1.0,0.0
28286,49.0,0.0,690.0,13.0,0.0
28287,40.0,0.0,690.0,14.0,0.0
28288,61.0,0.0,240.0,6.0,0.0
28289,61.0,0.0,690.0,3.0,0.0
28290,28.0,0.0,690.0,15.0,0.0
28291,44.0,0.0,240.0,10.0,0.0
28292,28.0,0.0,690.0,3.0,0.0
28293,73.0,0.0,690.0,11.0,0.0
28294,61.0,0.0,690.0,12.0,0.0
28295,56.0,52.0,240.0,7.0,0.0
28296,56.0,120.0,690.0,4.0,0.0
28297,52.0,0.0,240.0,8.0,0.0
28298,73.0,0.0,690.0,1.0,0.0
28299,61.0,0.0,690.0,1.0,0.0
28300,73.0,0.0,690.0,2.0,0.0
28301,44.0,0.0,690.0,4.0,0.0
28302,68.0,0.0,690.0,5.0,0.0
28303,56.0,0.0,690.0,5.0,0.0
28304,61.0,0.0,690.0,2.0,0.0
28305,49.0,0.0,690.0,3.0,0.0
28306,80.0,60.0,60.0,0.0,0.0
28307,82.0,60.0,60.0,0.0,0.0
28308,83.0,8.0,60.0,0.0,0.0
28309,85.0,60.0,60.0,0.0,0.0
28310,87.0,60.0,60.0,0.0,0.0
28311,89.0,60.0,60.0,0.0,0.0
28312,91.0,113.0,60.0,0.0,0.0
28313,92.0,120.0,90.0,0.0,0.0
28314,92.0,0.0,90.0,0.0,0.0
28315,62.0,0.0,180.0,3.0,0.0
28316,50.0,0.0,180.0,3.0,0.0
28317,92.0,75.0,90.0,0.0,0.0
28318,53.0,0.0,180.0,13.0,0.0
28319,59.0,0.0,180.0,2.0,0.0
28320,83.0,0.0,180.0,0.0,0.0
28321,86.0,0.0,180.0,0.0,0.0
28322,68.0,45.0,180.0,5.0,0.0
28323,56.0,0.0,180.0,5.0,0.0
28324,53.0,0.0,180.0,8.0,0.0
28325,56.0,0.0,180.0,7.0,0.0
28326,41.0,0.0,180.0,14.0,0.0
28327,71.0,0.0,180.0,2.0,0.0
28328,44.0,0.0,180.0,10.0,0.0
28329,29.0,0.0,180.0,15.0,0.0
28330,74.0,0.0,180.0,11.0,0.0
28331,56.0,0.0,180.0,4.0,0.0
28332,29.0,0.0,180.0,3.0,0.0
28333,44.0,0.0,180.0,4.0,0.0
28334,71.0,0.0,180.0,1.0,0.0
28335,68.0,0.0,180.0,12.0,0.0
28336,62.0,0.0,180.0,6.0,0.0
28337,74.0,0.0,180.0,1.0,0.0
28338,92.0,255.0,90.0,0.0,0.0
28339,63.0,0.0,240.0,6.0,0.0
28340,51.0,0.0,240.0,5.0,0.0
28341,63.0,0.0,240.0,5.0,0.0
28342,51.0,0.0,240.0,3.0,0.0
28343,63.0,0.0,240.0,3.0,0.0
28344,58.0,0.0,240.0,7.0,0.0
28345,82.0,0.0,240.0,0.0,0.0
28346,43.0,0.0,240.0,14.0,0.0
28347,55.0,0.0,240.0,8.0,0.0
28348,61.0,0.0,240.0,12.0,0.0
28349,87.0,0.0,240.0,0.0,0.0
28350,70.0,0.0,240.0,12.0,0.0
28351,58.0,0.0,240.0,2.0,0.0
28352,70.0,0.0,240.0,2.0,0.0
28353,31.0,0.0,240.0,15.0,0.0
28354,39.0,0.0,240.0,10.0,0.0
28355,39.0,0.0,240.0,4.0,0.0
28356,55.0,0.0,240.0,13.0,0.0
28357,75.0,0.0,240.0,11.0,0.0
28358,51.0,0.0,240.0,4.0,0.0
28359,70.0,0.0,240.0,1.0,0.0
28360,75.0,0.0,240.0,1.0,0.0
28361,31.0,0.0,240.0,3.0,0.0
28362,51.0,0.0,240.0,12.0,0.0
28363,48.0,0.0,240.0,3.0,0.0
28364,56.0,0.0,240.0,5.0,0.0
28365,80.0,0.0,240.0,0.0,0.0
28366,84.0,0.0,240.0,0.0,0.0
28367,60.0,0.0,240.0,4.0,0.0
28368,56.0,0.0,240.0,4.0,0.0
28369,32.0,480.0,240.0,15.0,0.0
28370,44.0,0.0,240.0,10.0,0.0
28371,44.0,0.0,240.0,3.0,0.0
28372,32.0,0.0,240.0,3.0,0.0
28373,68.0,0.0,240.0,1.0,0.0
28374,56.0,0.0,240.0,13.0,0.0
28375,68.0,0.0,240.0,12.0,0.0
28376,72.0,0.0,240.0,1.0,0.0
28377,68.0,0.0,240.0,2.0,0.0
28378,44.0,0.0,240.0,14.0,0.0
28379,72.0,0.0,240.0,11.0,0.0
28380,60.0,0.0,240.0,2.0,0.0
28381,37.0,0.0,240.0,14.0,0.0
28382,53.0,465.0,240.0,13.0,0.0
28383,82.0,0.0,240.0,0.0,0.0
28384,85.0,0.0,240.0,0.0,0.0
28385,25.0,0.0,240.0,15.0,0.0
28386,44.0,0.0,240.0,10.0,0.0
28387,49.0,0.0,240.0,3.0,0.0
28388,70.0,0.0,240.0,2.0,0.0
28389,73.0,0.0,240.0,11.0,0.0
28390,56.0,0.0,240.0,5.0,0.0
28391,25.0,0.0,240.0,3.0,0.0
28392,73.0,0.0,240.0,1.0,0.0
28393,70.0,0.0,240.0,1.0,0.0
28394,58.0,0.0,240.0,4.0,0.0
28395,61.0,0.0,240.0,4.0,0.0
28396,70.0,0.0,240.0,12.0,0.0
28397,61.0,0.0,240.0,2.0,0.0
28398,46.0,0.0,240.0,3.0,0.0
28399,63.0,0.0,240.0,5.0,0.0
28400,51.0,0.0,240.0,5.0,0.0
28401,43.0,0.0,240.0,3.0,0.0
28402,39.0,0.0,240.0,10.0,0.0
28403,70.0,0.0,210.0,11.0,0.0
28404,27.0,0.0,210.0,15.0,0.0
28405,27.0,15.0,210.0,3.0,0.0
28406,46.0,0.0,240.0,3.0,0.0
28407,70.0,0.0,240.0,1.0,0.0
28408,55.0,0.0,210.0,13.0,0.0
28409,61.0,0.0,210.0,12.0,0.0
28410,79.0,240.0,240.0,0.0,0.0
28411,82.0,0.0,240.0,0.0,0.0
28412,67.0,0.0,240.0,2.0,0.0
28413,58.0,0.0,240.0,4.0,0.0
28414,51.0,0.0,240.0,4.0,0.0
28415,67.0,0.0,240.0,1.0,0.0
28416,39.0,0.0,210.0,14.0,0.0
28417,58.0,0.0,240.0,2.0,0.0
28418,27.0,0.0,240.0,3.0,0.0
28419,27.0,240.0,240.0,15.0,0.0
28420,51.0,0.0,240.0,11.0,0.0
28421,39.0,0.0,240.0,14.0,0.0
28422,51.0,0.0,240.0,12.0,0.0
28423,51.0,0.0,240.0,13.0,0.0
28424,56.0,240.0,240.0,12.0,0.0
28425,56.0,0.0,240.0,13.0,0.0
28426,44.0,0.0,240.0,14.0,0.0
28427,56.0,0.0,240.0,11.0,0.0
28428,32.0,0.0,240.0,3.0,0.0
28429,32.0,0.0,240.0,15.0,0.0
28430,27.0,0.0,240.0,15.0,0.0
28431,51.0,0.0,240.0,11.0,0.0
28432,39.0,0.0,240.0,14.0,0.0
28433,27.0,240.0,240.0,3.0,0.0
28434,51.0,0.0,240.0,12.0,0.0
28435,51.0,0.0,240.0,13.0,0.0
28436,60.0,0.0,240.0,13.0,0.0
28437,60.0,0.0,240.0,12.0,0.0
28438,36.0,0.0,240.0,3.0,0.0
28439,60.0,0.0,240.0,11.0,0.0
28440,48.0,0.0,240.0,14.0,0.0
28441,36.0,180.0,240.0,15.0,0.0
28442,46.0,0.0,180.0,14.0,0.0
28443,58.0,52.0,180.0,13.0,0.0
28444,58.0,0.0,180.0,11.0,0.0
28445,34.0,0.0,180.0,3.0,0.0
28446,34.0,0.0,180.0,15.0,0.0
28447,58.0,0.0,180.0,12.0,0.0
28448,32.0,728.0,60.0,3.0,0.0
28449,56.0,0.0,60.0,13.0,0.0
28450,32.0,0.0,60.0,15.0,0.0
28451,56.0,0.0,60.0,11.0,0.0
28452,44.0,0.0,60.0,14.0,0.0
28453,56.0,0.0,60.0,12.0,0.0
28454,51.0,0.0,720.0,14.0,0.0
28455,63.0,0.0,720.0,12.0,0.0
28456,39.0,240.0,720.0,15.0,0.0
28457,63.0,0.0,720.0,11.0,0.0
28458,39.0,0.0,720.0,3.0,0.0
28459,63.0,0.0,720.0,13.0,0.0
28460,48.0,0.0,240.0,4.0,0.0
28461,60.0,0.0,240.0,1.0,0.0
28462,72.0,240.0,240.0,0.0,0.0
28463,56.0,0.0,240.0,4.0,0.0
28464,68.0,240.0,240.0,1.0,0.0
28465,80.0,0.0,240.0,0.0,0.0
28466,75.0,0.0,240.0,0.0,0.0
28467,63.0,240.0,240.0,1.0,0.0
28468,51.0,0.0,240.0,4.0,0.0
28469,84.0,180.0,240.0,0.0,0.0
28470,60.0,0.0,240.0,4.0,0.0
28471,72.0,0.0,240.0,1.0,0.0
28472,58.0,52.0,180.0,4.0,0.0
28473,82.0,0.0,180.0,0.0,0.0
28474,70.0,0.0,180.0,1.0,0.0
28475,56.0,0.0,60.0,4.0,0.0
28476,68.0,0.0,60.0,1.0,0.0
28477,80.0,68.0,60.0,0.0,0.0
28478,63.0,15.0,690.0,4.0,0.0
28479,87.0,60.0,60.0,0.0,0.0
28480,75.0,0.0,690.0,1.0,0.0
28481,89.0,60.0,60.0,0.0,0.0
28482,87.0,60.0,60.0,0.0,0.0
28483,89.0,60.0,60.0,0.0,0.0
28484,87.0,60.0,60.0,0.0,0.0
28485,89.0,60.0,60.0,0.0,0.0
28486,87.0,60.0,60.0,0.0,0.0
28487,89.0,60.0,60.0,0.0,0.0
28488,87.0,60.0,60.0,0.0,0.0
28489,89.0,60.0,60.0,0.0,0.0
28490,87.0,45.0,60.0,0.0,0.0
28491,89.0,60.0,60.0,0.0,0.0
28492,63.0,0.0,240.0,12.0,0.0
28493,67.0,0.0,450.0,1.0,0.0
28494,75.0,60.0,240.0,1.0,0.0
28495,75.0,0.0,240.0,11.0,0.0
28496,63.0,0.0,240.0,4.0,0.0
28497,87.0,60.0,60.0,0.0,0.0
28498,51.0,15.0,450.0,4.0,0.0
28499,89.0,60.0,60.0,0.0,0.0
28500,87.0,60.0,60.0,0.0,0.0
28501,89.0,0.0,60.0,0.0,0.0
28502,49.0,0.0,120.0,14.0,0.0
28503,87.0,60.0,60.0,0.0,0.0
28504,79.0,0.0,240.0,11.0,0.0
28505,70.0,0.0,210.0,1.0,0.0
28506,58.0,0.0,210.0,4.0,0.0
28507,58.0,0.0,120.0,13.0,0.0
28508,67.0,60.0,240.0,12.0,0.0
28509,89.0,60.0,60.0,0.0,0.0
28510,87.0,20.0,60.0,0.0,0.0
28511,55.0,0.0,120.0,13.0,0.0
28512,51.0,0.0,120.0,14.0,0.0
28513,67.0,25.0,40.0,0.0,0.0
28514,89.0,0.0,60.0,0.0,0.0
28515,68.0,0.0,40.0,0.0,0.0
28516,87.0,60.0,60.0,0.0,0.0
28517,49.0,0.0,120.0,14.0,0.0
28518,58.0,0.0,120.0,13.0,0.0
28519,51.0,0.0,240.0,4.0,0.0
28520,70.0,0.0,240.0,0.0,0.0
28521,75.0,0.0,240.0,11.0,0.0
28522,70.0,0.0,240.0,1.0,0.0
28523,58.0,60.0,240.0,4.0,0.0
28524,63.0,0.0,240.0,12.0,0.0
28525,67.0,0.0,240.0,1.0,0.0
28526,89.0,60.0,60.0,0.0,0.0
28527,55.0,0.0,120.0,13.0,0.0
28528,87.0,60.0,60.0,0.0,0.0
28529,51.0,0.0,120.0,14.0,0.0
28530,89.0,0.0,60.0,0.0,0.0
28531,70.0,0.0,240.0,12.0,0.0
28532,58.0,60.0,120.0,13.0,0.0
28533,82.0,0.0,240.0,11.0,0.0
28534,49.0,0.0,120.0,14.0,0.0
28535,87.0,60.0,60.0,0.0,0.0
28536,89.0,0.0,60.0,0.0,0.0
28537,55.0,0.0,120.0,13.0,0.0
28538,51.0,0.0,120.0,14.0,0.0
28539,87.0,20.0,60.0,0.0,0.0
28540,67.0,40.0,40.0,0.0,0.0
28541,89.0,60.0,60.0,0.0,0.0
28542,68.0,0.0,40.0,0.0,0.0
28543,80.0,45.0,180.0,11.0,0.0
28544,68.0,0.0,180.0,12.0,0.0
28545,70.0,0.0,240.0,1.0,0.0
28546,67.0,60.0,240.0,1.0,0.0
28547,49.0,0.0,120.0,14.0,0.0
28548,87.0,60.0,60.0,0.0,0.0
28549,70.0,0.0,240.0,0.0,0.0
28550,51.0,0.0,240.0,4.0,0.0
28551,58.0,0.0,240.0,4.0,0.0
28552,58.0,60.0,120.0,13.0,0.0
28553,89.0,0.0,60.0,0.0,0.0
28554,55.0,7.0,90.0,13.0,0.0
28555,87.0,0.0,60.0,0.0,0.0
28556,51.0,0.0,90.0,14.0,0.0
28557,79.0,8.0,60.0,11.0,0.0
28558,67.0,0.0,60.0,12.0,0.0
28559,89.0,0.0,60.0,0.0,0.0
28560,80.0,0.0,240.0,11.0,0.0
28561,48.0,60.0,120.0,14.0,0.0
28562,68.0,60.0,240.0,12.0,0.0
28563,87.0,60.0,60.0,0.0,0.0
28564,60.0,0.0,120.0,13.0,0.0
28565,89.0,0.0,60.0,0.0,0.0
28566,87.0,20.0,60.0,0.0,0.0
28567,51.0,0.0,120.0,14.0,0.0
28568,56.0,0.0,120.0,13.0,0.0
28569,68.0,40.0,40.0,0.0,0.0
28570,89.0,0.0,60.0,0.0,0.0
28571,70.0,0.0,40.0,0.0,0.0
28572,72.0,0.0,240.0,0.0,0.0
28573,60.0,0.0,120.0,13.0,0.0
28574,63.0,0.0,240.0,12.0,0.0
28575,75.0,60.0,240.0,11.0,0.0
28576,68.0,0.0,240.0,1.0,0.0
28577,56.0,0.0,240.0,4.0,0.0
28578,60.0,0.0,240.0,4.0,0.0
28579,48.0,0.0,120.0,14.0,0.0
28580,72.0,0.0,240.0,1.0,0.0
28581,87.0,60.0,60.0,0.0,0.0
28582,89.0,60.0,60.0,0.0,0.0
28583,87.0,60.0,60.0,0.0,0.0
28584,51.0,0.0,120.0,14.0,0.0
28585,56.0,0.0,120.0,13.0,0.0
28586,89.0,0.0,60.0,0.0,0.0
28587,87.0,60.0,60.0,0.0,0.0
28588,48.0,0.0,120.0,14.0,0.0
28589,72.0,0.0,240.0,12.0,0.0
28590,60.0,60.0,120.0,13.0,0.0
28591,84.0,0.0,240.0,11.0,0.0
28592,89.0,0.0,60.0,0.0,0.0
28593,51.0,0.0,120.0,14.0,0.0
28594,87.0,20.0,60.0,0.0,0.0
28595,56.0,60.0,120.0,13.0,0.0
28596,68.0,40.0,40.0,0.0,0.0
28597,89.0,0.0,60.0,0.0,0.0
28598,70.0,0.0,40.0,0.0,0.0
28599,72.0,60.0,240.0,1.0,0.0
28600,68.0,0.0,240.0,1.0,0.0
28601,48.0,60.0,120.0,14.0,0.0
28602,72.0,0.0,240.0,0.0,0.0
28603,87.0,60.0,60.0,0.0,0.0
28604,60.0,0.0,120.0,13.0,0.0
28605,56.0,0.0,240.0,4.0,0.0
28606,70.0,0.0,180.0,12.0,0.0
28607,82.0,0.0,180.0,11.0,0.0
28608,60.0,0.0,240.0,4.0,0.0
28609,89.0,0.0,60.0,0.0,0.0
28610,56.0,0.0,90.0,13.0,0.0
28611,51.0,7.0,90.0,14.0,0.0
28612,87.0,45.0,60.0,0.0,0.0
28613,80.0,0.0,60.0,11.0,0.0
28614,89.0,0.0,60.0,0.0,0.0
28615,68.0,8.0,60.0,12.0,0.0
28616,25.0,0.0,120.0,15.0,0.0
28617,49.0,0.0,120.0,14.0,0.0
28618,87.0,60.0,60.0,0.0,0.0
28619,67.0,0.0,240.0,12.0,0.0
28620,79.0,0.0,240.0,11.0,0.0
28621,58.0,0.0,120.0,13.0,0.0
28622,89.0,60.0,60.0,0.0,0.0
28623,27.0,0.0,120.0,15.0,0.0
28624,87.0,20.0,60.0,0.0,0.0
28625,55.0,0.0,120.0,13.0,0.0
28626,51.0,60.0,120.0,14.0,0.0
28627,70.0,40.0,40.0,0.0,0.0
28628,79.0,0.0,40.0,0.0,0.0
28629,89.0,0.0,60.0,0.0,0.0
28630,80.0,0.0,40.0,0.0,0.0
28631,72.0,0.0,40.0,0.0,0.0
28632,58.0,0.0,120.0,13.0,0.0
28633,58.0,0.0,240.0,3.0,0.0
28634,75.0,0.0,240.0,11.0,0.0
28635,55.0,0.0,240.0,3.0,0.0
28636,67.0,0.0,240.0,1.0,0.0
28637,25.0,0.0,120.0,15.0,0.0
28638,87.0,60.0,60.0,0.0,0.0
28639,70.0,0.0,240.0,1.0,0.0
28640,58.0,0.0,240.0,4.0,0.0
28641,49.0,0.0,120.0,14.0,0.0
28642,73.0,0.0,240.0,0.0,0.0
28643,63.0,0.0,240.0,12.0,0.0
28644,51.0,60.0,240.0,4.0,0.0
28645,82.0,0.0,240.0,0.0,0.0
28646,89.0,60.0,60.0,0.0,0.0
28647,27.0,0.0,120.0,15.0,0.0
28648,55.0,0.0,120.0,13.0,0.0
28649,87.0,60.0,60.0,0.0,0.0
28650,51.0,0.0,120.0,14.0,0.0
28651,89.0,0.0,60.0,0.0,0.0
28652,87.0,60.0,60.0,0.0,0.0
28653,58.0,0.0,120.0,13.0,0.0
28654,25.0,60.0,120.0,15.0,0.0
28655,70.0,0.0,240.0,12.0,0.0
28656,49.0,0.0,120.0,14.0,0.0
28657,82.0,0.0,240.0,11.0,0.0
28658,89.0,0.0,60.0,0.0,0.0
28659,55.0,60.0,120.0,13.0,0.0
28660,51.0,0.0,120.0,14.0,0.0
28661,87.0,20.0,60.0,0.0,0.0
28662,27.0,0.0,120.0,15.0,0.0
28663,70.0,40.0,40.0,0.0,0.0
28664,79.0,0.0,40.0,0.0,0.0
28665,89.0,0.0,60.0,0.0,0.0
28666,80.0,0.0,40.0,0.0,0.0
28667,72.0,0.0,40.0,0.0,0.0
28668,58.0,0.0,240.0,4.0,0.0
28669,82.0,0.0,240.0,0.0,0.0
28670,73.0,60.0,240.0,0.0,0.0
28671,80.0,0.0,180.0,11.0,0.0
28672,87.0,60.0,60.0,0.0,0.0
28673,68.0,0.0,180.0,12.0,0.0
28674,55.0,0.0,240.0,3.0,0.0
28675,51.0,0.0,240.0,4.0,0.0
28676,67.0,0.0,240.0,1.0,0.0
28677,49.0,0.0,120.0,14.0,0.0
28678,25.0,60.0,120.0,15.0,0.0
28679,70.0,0.0,240.0,1.0,0.0
28680,58.0,0.0,120.0,13.0,0.0
28681,58.0,0.0,240.0,3.0,0.0
28682,89.0,0.0,60.0,0.0,0.0
28683,55.0,7.0,90.0,13.0,0.0
28684,27.0,0.0,90.0,15.0,0.0
28685,51.0,0.0,90.0,14.0,0.0
28686,87.0,45.0,60.0,0.0,0.0
28687,67.0,0.0,60.0,12.0,0.0
28688,79.0,8.0,60.0,11.0,0.0
28689,89.0,0.0,60.0,0.0,0.0
28690,87.0,60.0,60.0,0.0,0.0
28691,60.0,0.0,120.0,13.0,0.0
28692,80.0,60.0,240.0,11.0,0.0
28693,24.0,60.0,120.0,15.0,0.0
28694,48.0,0.0,120.0,14.0,0.0
28695,68.0,0.0,240.0,12.0,0.0
28696,89.0,0.0,60.0,0.0,0.0
28697,51.0,0.0,120.0,14.0,0.0
28698,27.0,0.0,120.0,15.0,0.0
28699,87.0,20.0,60.0,0.0,0.0
28700,56.0,0.0,120.0,13.0,0.0
28701,72.0,40.0,40.0,0.0,0.0
28702,80.0,0.0,40.0,0.0,0.0
28703,89.0,0.0,60.0,0.0,0.0
28704,82.0,0.0,40.0,0.0,0.0
28705,73.0,0.0,40.0,0.0,0.0
28706,63.0,0.0,240.0,12.0,0.0
28707,60.0,0.0,120.0,13.0,0.0
28708,24.0,0.0,120.0,15.0,0.0
28709,75.0,0.0,240.0,0.0,0.0
28710,60.0,0.0,240.0,4.0,0.0
28711,56.0,0.0,240.0,4.0,0.0
28712,75.0,0.0,240.0,11.0,0.0
28713,87.0,60.0,60.0,0.0,0.0
28714,68.0,0.0,240.0,1.0,0.0
28715,48.0,60.0,120.0,14.0,0.0
28716,72.0,0.0,240.0,1.0,0.0
28717,84.0,0.0,240.0,0.0,0.0
28718,60.0,0.0,240.0,3.0,0.0
28719,56.0,0.0,240.0,3.0,0.0
28720,89.0,0.0,60.0,0.0,0.0
28721,87.0,60.0,60.0,0.0,0.0
28722,27.0,0.0,120.0,15.0,0.0
28723,51.0,0.0,120.0,14.0,0.0
28724,56.0,0.0,120.0,13.0,0.0
28725,89.0,60.0,60.0,0.0,0.0
28726,84.0,0.0,240.0,11.0,0.0
28727,72.0,0.0,240.0,12.0,0.0
28728,48.0,60.0,120.0,14.0,0.0
28729,24.0,0.0,120.0,15.0,0.0
28730,87.0,60.0,60.0,0.0,0.0
28731,60.0,0.0,120.0,13.0,0.0
28732,89.0,0.0,60.0,0.0,0.0
28733,87.0,20.0,60.0,0.0,0.0
28734,27.0,60.0,120.0,15.0,0.0
28735,51.0,0.0,120.0,14.0,0.0
28736,56.0,0.0,120.0,13.0,0.0
28737,72.0,0.0,40.0,0.0,0.0
28738,80.0,40.0,40.0,0.0,0.0
28739,89.0,0.0,60.0,0.0,0.0
28740,73.0,0.0,40.0,0.0,0.0
28741,82.0,0.0,40.0,0.0,0.0
28742,68.0,0.0,240.0,1.0,0.0
28743,60.0,0.0,120.0,13.0,0.0
28744,87.0,60.0,60.0,0.0,0.0
28745,84.0,0.0,240.0,0.0,0.0
28746,60.0,60.0,240.0,4.0,0.0
28747,82.0,0.0,180.0,11.0,0.0
28748,75.0,0.0,240.0,0.0,0.0
28749,56.0,0.0,240.0,4.0,0.0
28750,70.0,0.0,180.0,12.0,0.0
28751,60.0,0.0,240.0,3.0,0.0
28752,56.0,0.0,240.0,3.0,0.0
28753,24.0,0.0,120.0,15.0,0.0
28754,72.0,0.0,240.0,1.0,0.0
28755,48.0,60.0,120.0,14.0,0.0
28756,89.0,0.0,60.0,0.0,0.0
28757,87.0,45.0,60.0,0.0,0.0
28758,27.0,0.0,90.0,15.0,0.0
28759,51.0,7.0,90.0,14.0,0.0
28760,56.0,0.0,90.0,13.0,0.0
28761,89.0,0.0,60.0,0.0,0.0
28762,80.0,0.0,60.0,11.0,0.0
28763,68.0,8.0,60.0,12.0,0.0
28764,79.0,0.0,240.0,11.0,0.0
28765,49.0,60.0,120.0,14.0,0.0
28766,58.0,0.0,120.0,13.0,0.0
28767,87.0,60.0,60.0,0.0,0.0
28768,25.0,0.0,120.0,15.0,0.0
28769,67.0,0.0,240.0,12.0,0.0
28770,89.0,0.0,60.0,0.0,0.0
28771,51.0,0.0,120.0,14.0,0.0
28772,87.0,20.0,60.0,0.0,0.0
28773,27.0,0.0,120.0,15.0,0.0
28774,55.0,60.0,120.0,13.0,0.0
28775,79.0,40.0,40.0,0.0,0.0
28776,70.0,0.0,40.0,0.0,0.0
28777,89.0,0.0,60.0,0.0,0.0
28778,80.0,0.0,40.0,0.0,0.0
28779,72.0,0.0,40.0,0.0,0.0
28780,63.0,0.0,240.0,12.0,0.0
28781,75.0,0.0,240.0,11.0,0.0
28782,63.0,0.0,240.0,5.0,0.0
28783,51.0,0.0,240.0,5.0,0.0
28784,51.0,0.0,240.0,4.0,0.0
28785,58.0,0.0,240.0,4.0,0.0
28786,49.0,60.0,120.0,14.0,0.0
28787,39.0,0.0,240.0,10.0,0.0
28788,87.0,60.0,60.0,0.0,0.0
28789,82.0,0.0,240.0,0.0,0.0
28790,70.0,0.0,240.0,1.0,0.0
28791,73.0,0.0,240.0,0.0,0.0
28792,58.0,0.0,120.0,13.0,0.0
28793,67.0,0.0,240.0,1.0,0.0
28794,25.0,0.0,120.0,15.0,0.0
28795,58.0,0.0,240.0,2.0,0.0
28796,58.0,0.0,240.0,3.0,0.0
28797,67.0,60.0,240.0,2.0,0.0
28798,55.0,0.0,240.0,3.0,0.0
28799,89.0,0.0,60.0,0.0,0.0
28800,27.0,0.0,120.0,15.0,0.0
28801,55.0,0.0,120.0,13.0,0.0
28802,51.0,0.0,120.0,14.0,0.0
28803,87.0,60.0,60.0,0.0,0.0
28804,89.0,0.0,60.0,0.0,0.0
28805,70.0,0.0,240.0,12.0,0.0
28806,87.0,60.0,60.0,0.0,0.0
28807,58.0,60.0,120.0,13.0,0.0
28808,82.0,0.0,240.0,11.0,0.0
28809,25.0,0.0,120.0,15.0,0.0
28810,49.0,0.0,120.0,14.0,0.0
28811,89.0,0.0,60.0,0.0,0.0
28812,87.0,20.0,60.0,0.0,0.0
28813,55.0,0.0,120.0,13.0,0.0
28814,51.0,60.0,120.0,14.0,0.0
28815,27.0,0.0,120.0,15.0,0.0
28816,70.0,40.0,40.0,0.0,0.0
28817,79.0,0.0,40.0,0.0,0.0
28818,89.0,0.0,60.0,0.0,0.0
28819,80.0,0.0,40.0,0.0,0.0
28820,72.0,0.0,40.0,0.0,0.0
28821,82.0,0.0,210.0,0.0,0.0
28822,58.0,0.0,210.0,2.0,0.0
28823,39.0,52.0,240.0,10.0,0.0
28824,58.0,7.0,210.0,4.0,0.0
28825,67.0,0.0,210.0,2.0,0.0
28826,58.0,0.0,210.0,3.0,0.0
28827,55.0,0.0,210.0,3.0,0.0
28828,70.0,0.0,210.0,1.0,0.0
28829,67.0,0.0,210.0,1.0,0.0
28830,49.0,0.0,120.0,14.0,0.0
28831,25.0,0.0,120.0,15.0,0.0
28832,80.0,0.0,180.0,11.0,0.0
28833,68.0,45.0,180.0,12.0,0.0
28834,58.0,60.0,120.0,13.0,0.0
28835,63.0,0.0,210.0,5.0,0.0
28836,51.0,0.0,210.0,4.0,0.0
28837,51.0,0.0,210.0,5.0,0.0
28838,85.0,60.0,60.0,0.0,0.0
28839,73.0,0.0,210.0,0.0,0.0
28840,87.0,0.0,60.0,0.0,0.0
28841,89.0,0.0,60.0,0.0,0.0
28842,51.0,0.0,90.0,14.0,0.0
28843,55.0,0.0,90.0,13.0,0.0
28844,27.0,0.0,90.0,15.0,0.0
28845,91.0,8.0,60.0,0.0,0.0
28846,79.0,0.0,60.0,11.0,0.0
28847,67.0,0.0,60.0,12.0,0.0
28848,80.0,0.0,240.0,0.0,0.0
28849,24.0,0.0,210.0,15.0,0.0
28850,68.0,60.0,60.0,12.0,0.0
28851,56.0,0.0,210.0,5.0,0.0
28852,92.0,0.0,240.0,0.0,0.0
28853,68.0,0.0,210.0,5.0,0.0
28854,68.0,0.0,240.0,1.0,0.0
28855,60.0,0.0,60.0,13.0,0.0
28856,24.0,0.0,210.0,3.0,0.0
28857,60.0,0.0,240.0,2.0,0.0
28858,36.0,7.0,210.0,14.0,0.0
28859,80.0,0.0,60.0,11.0,0.0
28860,60.0,52.0,240.0,3.0,0.0
28861,56.0,0.0,240.0,3.0,0.0
28862,68.0,0.0,240.0,2.0,0.0
28863,56.0,0.0,210.0,4.0,0.0
28864,44.0,0.0,240.0,10.0,0.0
28865,44.0,0.0,210.0,4.0,0.0
28866,60.0,0.0,60.0,13.0,0.0
28867,80.0,60.0,60.0,11.0,0.0
28868,68.0,0.0,60.0,12.0,0.0
28869,80.0,53.0,60.0,11.0,0.0
28870,60.0,0.0,60.0,13.0,0.0
28871,68.0,0.0,60.0,12.0,0.0
28872,80.0,0.0,60.0,11.0,0.0
28873,68.0,0.0,60.0,12.0,0.0
28874,60.0,8.0,60.0,13.0,0.0
28875,34.0,0.0,240.0,15.0,0.0
28876,46.0,0.0,240.0,14.0,0.0
28877,56.0,0.0,210.0,5.0,0.0
28878,61.0,52.0,240.0,3.0,0.0
28879,58.0,0.0,240.0,3.0,0.0
28880,34.0,0.0,240.0,3.0,0.0
28881,68.0,0.0,210.0,5.0,0.0
28882,79.0,0.0,240.0,1.0,0.0
28883,79.0,0.0,240.0,0.0,0.0
28884,61.0,0.0,60.0,12.0,0.0
28885,73.0,0.0,240.0,2.0,0.0
28886,67.0,0.0,240.0,2.0,0.0
28887,56.0,7.0,210.0,4.0,0.0
28888,44.0,0.0,210.0,4.0,0.0
28889,58.0,60.0,60.0,13.0,0.0
28890,91.0,0.0,240.0,0.0,0.0
28891,44.0,0.0,240.0,10.0,0.0
28892,79.0,0.0,60.0,11.0,0.0
28893,79.0,60.0,60.0,11.0,0.0
28894,58.0,0.0,60.0,13.0,0.0
28895,61.0,0.0,60.0,12.0,0.0
28896,58.0,0.0,60.0,13.0,0.0
28897,79.0,53.0,60.0,11.0,0.0
28898,61.0,0.0,60.0,12.0,0.0
28899,61.0,0.0,60.0,12.0,0.0
28900,58.0,0.0,60.0,13.0,0.0
28901,79.0,8.0,60.0,11.0,0.0
28902,68.0,0.0,210.0,5.0,0.0
28903,68.0,0.0,240.0,2.0,0.0
28904,32.0,0.0,240.0,15.0,0.0
28905,44.0,0.0,240.0,10.0,0.0
28906,77.0,0.0,240.0,1.0,0.0
28907,56.0,0.0,240.0,3.0,0.0
28908,60.0,52.0,240.0,3.0,0.0
28909,44.0,0.0,240.0,14.0,0.0
28910,77.0,0.0,240.0,0.0,0.0
28911,77.0,0.0,60.0,11.0,0.0
28912,89.0,0.0,240.0,0.0,0.0
28913,32.0,0.0,240.0,3.0,0.0
28914,60.0,60.0,60.0,12.0,0.0
28915,44.0,0.0,210.0,4.0,0.0
28916,56.0,0.0,210.0,4.0,0.0
28917,56.0,0.0,60.0,13.0,0.0
28918,72.0,0.0,240.0,2.0,0.0
28919,56.0,7.0,210.0,5.0,0.0
28920,56.0,0.0,60.0,13.0,0.0
28921,77.0,0.0,60.0,11.0,0.0
28922,60.0,60.0,60.0,12.0,0.0
28923,56.0,0.0,60.0,13.0,0.0
28924,77.0,0.0,60.0,11.0,0.0
28925,60.0,53.0,60.0,12.0,0.0
28926,60.0,8.0,60.0,12.0,0.0
28927,77.0,0.0,60.0,11.0,0.0
28928,56.0,0.0,60.0,13.0,0.0
28929,31.0,0.0,240.0,3.0,0.0
28930,43.0,0.0,240.0,14.0,0.0
28931,58.0,0.0,60.0,12.0,0.0
28932,55.0,52.0,240.0,3.0,0.0
28933,58.0,0.0,240.0,3.0,0.0
28934,44.0,0.0,210.0,4.0,0.0
28935,56.0,7.0,210.0,4.0,0.0
28936,75.0,0.0,240.0,1.0,0.0
28937,87.0,0.0,240.0,0.0,0.0
28938,55.0,60.0,60.0,13.0,0.0
28939,44.0,0.0,240.0,10.0,0.0
28940,75.0,0.0,240.0,0.0,0.0
28941,63.0,0.0,240.0,2.0,0.0
28942,68.0,0.0,210.0,5.0,0.0
28943,31.0,0.0,240.0,15.0,0.0
28944,70.0,0.0,240.0,2.0,0.0
28945,56.0,0.0,210.0,5.0,0.0
28946,75.0,0.0,60.0,11.0,0.0
28947,75.0,0.0,60.0,11.0,0.0
28948,55.0,0.0,60.0,13.0,0.0
28949,58.0,60.0,60.0,12.0,0.0
28950,58.0,0.0,60.0,12.0,0.0
28951,75.0,0.0,60.0,11.0,0.0
28952,55.0,53.0,60.0,13.0,0.0
28953,58.0,0.0,60.0,12.0,0.0
28954,75.0,0.0,60.0,11.0,0.0
28955,55.0,8.0,60.0,13.0,0.0
28956,53.0,0.0,240.0,3.0,0.0
28957,56.0,0.0,240.0,3.0,0.0
28958,68.0,0.0,210.0,5.0,0.0
28959,41.0,0.0,240.0,14.0,0.0
28960,56.0,0.0,60.0,12.0,0.0
28961,68.0,0.0,240.0,2.0,0.0
28962,65.0,0.0,240.0,2.0,0.0
28963,29.0,0.0,240.0,3.0,0.0
28964,29.0,0.0,240.0,15.0,0.0
28965,53.0,0.0,60.0,13.0,0.0
28966,56.0,0.0,210.0,5.0,0.0
28967,44.0,0.0,240.0,10.0,0.0
28968,56.0,7.0,210.0,4.0,0.0
28969,85.0,0.0,240.0,0.0,0.0
28970,73.0,0.0,240.0,0.0,0.0
28971,73.0,0.0,240.0,1.0,0.0
28972,44.0,0.0,210.0,4.0,0.0
28973,73.0,60.0,60.0,11.0,0.0
28974,56.0,0.0,60.0,12.0,0.0
28975,53.0,0.0,60.0,13.0,0.0
28976,73.0,60.0,60.0,11.0,0.0
28977,56.0,53.0,60.0,12.0,0.0
28978,53.0,0.0,60.0,13.0,0.0
28979,73.0,0.0,60.0,11.0,0.0
28980,73.0,0.0,60.0,11.0,0.0
28981,53.0,0.0,60.0,13.0,0.0
28982,56.0,8.0,60.0,12.0,0.0
28983,39.0,0.0,240.0,14.0,0.0
28984,72.0,0.0,240.0,0.0,0.0
28985,84.0,0.0,240.0,0.0,0.0
28986,51.0,0.0,60.0,13.0,0.0
28987,56.0,0.0,210.0,5.0,0.0
28988,68.0,0.0,210.0,5.0,0.0
28989,44.0,0.0,210.0,4.0,0.0
28990,56.0,7.0,210.0,4.0,0.0
28991,60.0,0.0,60.0,12.0,0.0
28992,68.0,0.0,240.0,2.0,0.0
28993,27.0,0.0,240.0,3.0,0.0
28994,72.0,60.0,60.0,11.0,0.0
28995,56.0,0.0,240.0,3.0,0.0
28996,51.0,0.0,240.0,3.0,0.0
28997,72.0,0.0,240.0,1.0,0.0
28998,27.0,0.0,240.0,15.0,0.0
28999,60.0,0.0,240.0,2.0,0.0
29000,44.0,52.0,240.0,10.0,0.0
29001,51.0,0.0,60.0,13.0,0.0
29002,72.0,60.0,60.0,11.0,0.0
29003,60.0,0.0,60.0,12.0,0.0
29004,60.0,0.0,60.0,12.0,0.0
29005,72.0,53.0,60.0,11.0,0.0
29006,51.0,0.0,60.0,13.0,0.0
29007,72.0,0.0,60.0,11.0,0.0
29008,60.0,8.0,60.0,12.0,0.0
29009,51.0,0.0,60.0,13.0,0.0
29010,70.0,0.0,240.0,1.0,0.0
29011,44.0,0.0,240.0,10.0,0.0
29012,56.0,0.0,210.0,4.0,0.0
29013,70.0,0.0,240.0,0.0,0.0
29014,25.0,0.0,240.0,3.0,0.0
29015,44.0,0.0,210.0,4.0,0.0
29016,65.0,0.0,60.0,12.0,0.0
29017,56.0,0.0,210.0,5.0,0.0
29018,68.0,7.0,210.0,5.0,0.0
29019,25.0,0.0,240.0,15.0,0.0
29020,70.0,60.0,60.0,11.0,0.0
29021,37.0,52.0,240.0,14.0,0.0
29022,61.0,0.0,240.0,2.0,0.0
29023,65.0,0.0,240.0,2.0,0.0
29024,49.0,0.0,240.0,3.0,0.0
29025,82.0,0.0,240.0,0.0,0.0
29026,53.0,0.0,240.0,3.0,0.0
29027,49.0,0.0,60.0,13.0,0.0
29028,65.0,0.0,60.0,12.0,0.0
29029,49.0,60.0,60.0,13.0,0.0
29030,70.0,0.0,60.0,11.0,0.0
29031,65.0,0.0,60.0,12.0,0.0
29032,70.0,0.0,60.0,11.0,0.0
29033,49.0,53.0,60.0,13.0,0.0
29034,70.0,8.0,60.0,11.0,0.0
29035,65.0,0.0,60.0,12.0,0.0
29036,49.0,0.0,60.0,13.0,0.0
29037,63.0,60.0,60.0,12.0,0.0
29038,56.0,0.0,210.0,5.0,0.0
29039,68.0,0.0,210.0,5.0,0.0
29040,36.0,0.0,210.0,14.0,0.0
29041,69.0,0.0,210.0,0.0,0.0
29042,69.0,0.0,210.0,1.0,0.0
29043,81.0,0.0,210.0,0.0,0.0
29044,48.0,0.0,210.0,3.0,0.0
29045,51.0,0.0,210.0,3.0,0.0
29046,24.0,7.0,210.0,15.0,0.0
29047,56.0,0.0,210.0,4.0,0.0
29048,44.0,0.0,210.0,4.0,0.0
29049,51.0,0.0,60.0,13.0,0.0
29050,69.0,0.0,60.0,11.0,0.0
29051,24.0,0.0,210.0,3.0,0.0
29052,44.0,52.0,240.0,10.0,0.0
29053,63.0,0.0,210.0,2.0,0.0
29054,63.0,60.0,60.0,12.0,0.0
29055,51.0,0.0,60.0,13.0,0.0
29056,69.0,0.0,60.0,11.0,0.0
29057,63.0,53.0,60.0,12.0,0.0
29058,51.0,0.0,60.0,13.0,0.0
29059,69.0,0.0,60.0,11.0,0.0
29060,63.0,0.0,60.0,12.0,0.0
29061,51.0,0.0,60.0,13.0,0.0
29062,69.0,8.0,60.0,11.0,0.0
29063,25.0,180.0,720.0,3.0,0.0
29064,25.0,0.0,690.0,15.0,0.0
29065,49.0,0.0,690.0,13.0,0.0
29066,53.0,0.0,690.0,13.0,0.0
29067,44.0,0.0,240.0,10.0,0.0
29068,37.0,0.0,690.0,14.0,0.0
29069,70.0,0.0,690.0,11.0,0.0
29070,82.0,60.0,60.0,0.0,0.0
29071,70.0,7.0,210.0,0.0,0.0
29072,58.0,0.0,690.0,2.0,0.0
29073,44.0,0.0,690.0,4.0,0.0
29074,56.0,0.0,690.0,4.0,0.0
29075,46.0,0.0,690.0,3.0,0.0
29076,58.0,0.0,690.0,3.0,0.0
29077,56.0,0.0,240.0,7.0,0.0
29078,70.0,0.0,690.0,2.0,0.0
29079,49.0,52.0,240.0,8.0,0.0
29080,56.0,15.0,690.0,5.0,0.0
29081,70.0,0.0,210.0,1.0,0.0
29082,58.0,0.0,240.0,6.0,0.0
29083,68.0,0.0,690.0,5.0,0.0
29084,65.0,0.0,690.0,12.0,0.0
29085,80.0,60.0,60.0,0.0,0.0
29086,82.0,53.0,60.0,0.0,0.0
29087,84.0,8.0,60.0,0.0,0.0
29088,77.0,0.0,450.0,1.0,0.0
29089,80.0,0.0,450.0,0.0,0.0
29090,65.0,0.0,450.0,1.0,0.0
29091,85.0,60.0,60.0,0.0,0.0
29092,87.0,60.0,60.0,0.0,0.0
29093,89.0,60.0,60.0,0.0,0.0
29094,91.0,188.0,60.0,0.0,0.0
29095,92.0,45.0,180.0,0.0,0.0
29096,72.0,0.0,180.0,11.0,0.0
29097,72.0,0.0,180.0,2.0,0.0
29098,48.0,0.0,180.0,3.0,0.0
29099,60.0,0.0,180.0,3.0,0.0
29100,60.0,0.0,180.0,2.0,0.0
29101,80.0,127.0,210.0,0.0,0.0
29102,44.0,0.0,180.0,10.0,0.0
29103,44.0,0.0,180.0,4.0,0.0
29104,68.0,0.0,180.0,5.0,0.0
29105,51.0,45.0,180.0,13.0,0.0
29106,56.0,0.0,180.0,5.0,0.0
29107,84.0,0.0,210.0,0.0,0.0
29108,39.0,0.0,180.0,14.0,0.0
29109,63.0,0.0,180.0,12.0,0.0
29110,56.0,0.0,180.0,4.0,0.0
29111,75.0,0.0,180.0,1.0,0.0
29112,27.0,0.0,180.0,15.0,0.0
29113,63.0,0.0,180.0,1.0,0.0
29114,27.0,0.0,180.0,3.0,0.0
29115,73.0,0.0,690.0,2.0,0.0
29116,56.0,0.0,240.0,7.0,0.0
29117,44.0,0.0,240.0,10.0,0.0
29118,61.0,0.0,690.0,2.0,0.0
29119,53.0,0.0,690.0,13.0,0.0
29120,49.0,0.0,690.0,3.0,0.0
29121,61.0,0.0,240.0,6.0,0.0
29122,41.0,0.0,690.0,14.0,0.0
29123,29.0,0.0,690.0,15.0,0.0
29124,73.0,0.0,690.0,1.0,0.0
29125,61.0,0.0,690.0,3.0,0.0
29126,29.0,180.0,720.0,3.0,0.0
29127,53.0,52.0,240.0,8.0,0.0
29128,61.0,0.0,690.0,12.0,0.0
29129,73.0,0.0,690.0,11.0,0.0
29130,56.0,0.0,690.0,5.0,0.0
29131,61.0,15.0,690.0,1.0,0.0
29132,44.0,0.0,690.0,4.0,0.0
29133,56.0,0.0,690.0,4.0,0.0
29134,68.0,0.0,690.0,5.0,0.0
29135,80.0,60.0,60.0,0.0,0.0
29136,82.0,60.0,60.0,0.0,0.0
29137,84.0,8.0,60.0,0.0,0.0
29138,85.0,60.0,60.0,0.0,0.0
29139,87.0,60.0,60.0,0.0,0.0
29140,89.0,60.0,60.0,0.0,0.0
29141,91.0,188.0,60.0,0.0,0.0
29142,92.0,45.0,180.0,0.0,0.0
29143,75.0,0.0,180.0,1.0,0.0
29144,56.0,0.0,180.0,5.0,0.0
29145,68.0,0.0,180.0,5.0,0.0
29146,27.0,0.0,180.0,3.0,0.0
29147,63.0,0.0,180.0,12.0,0.0
29148,51.0,0.0,180.0,13.0,0.0
29149,27.0,0.0,180.0,15.0,0.0
29150,56.0,0.0,180.0,4.0,0.0
29151,71.0,0.0,180.0,11.0,0.0
29152,44.0,0.0,180.0,4.0,0.0
29153,59.0,0.0,180.0,3.0,0.0
29154,63.0,0.0,180.0,1.0,0.0
29155,59.0,0.0,180.0,2.0,0.0
29156,47.0,172.0,180.0,3.0,0.0
29157,80.0,0.0,180.0,0.0,0.0
29158,83.0,0.0,180.0,0.0,0.0
29159,71.0,0.0,180.0,2.0,0.0
29160,39.0,0.0,180.0,14.0,0.0
29161,44.0,0.0,180.0,10.0,0.0
29162,58.0,0.0,240.0,6.0,0.0
29163,56.0,0.0,240.0,7.0,0.0
29164,70.0,0.0,690.0,11.0,0.0
29165,44.0,52.0,240.0,10.0,0.0
29166,58.0,0.0,690.0,3.0,0.0
29167,56.0,0.0,690.0,5.0,0.0
29168,77.0,0.0,690.0,1.0,0.0
29169,38.0,0.0,690.0,14.0,0.0
29170,50.0,0.0,240.0,8.0,0.0
29171,46.0,0.0,690.0,3.0,0.0
29172,65.0,15.0,690.0,1.0,0.0
29173,50.0,0.0,690.0,13.0,0.0
29174,44.0,0.0,690.0,4.0,0.0
29175,68.0,0.0,690.0,5.0,0.0
29176,26.0,180.0,720.0,3.0,0.0
29177,56.0,0.0,690.0,4.0,0.0
29178,26.0,0.0,690.0,15.0,0.0
29179,70.0,0.0,690.0,2.0,0.0
29180,58.0,0.0,690.0,2.0,0.0
29181,65.0,0.0,690.0,12.0,0.0
29182,80.0,60.0,60.0,0.0,0.0
29183,82.0,60.0,60.0,0.0,0.0
29184,84.0,8.0,60.0,0.0,0.0
29185,85.0,60.0,60.0,0.0,0.0
29186,87.0,60.0,60.0,0.0,0.0
29187,89.0,60.0,60.0,0.0,0.0
29188,91.0,188.0,60.0,0.0,0.0
29189,92.0,45.0,180.0,0.0,0.0
29190,56.0,0.0,180.0,5.0,0.0
29191,63.0,0.0,180.0,1.0,0.0
29192,39.0,0.0,180.0,14.0,0.0
29193,80.0,0.0,180.0,0.0,0.0
29194,83.0,0.0,180.0,0.0,0.0
29195,75.0,0.0,180.0,1.0,0.0
29196,71.0,0.0,180.0,11.0,0.0
29197,56.0,172.0,180.0,4.0,0.0
29198,44.0,0.0,180.0,4.0,0.0
29199,68.0,0.0,180.0,5.0,0.0
29200,27.0,0.0,180.0,15.0,0.0
29201,71.0,0.0,180.0,2.0,0.0
29202,44.0,0.0,180.0,10.0,0.0
29203,27.0,0.0,180.0,3.0,0.0
29204,63.0,0.0,180.0,12.0,0.0
29205,47.0,0.0,180.0,3.0,0.0
29206,59.0,0.0,180.0,3.0,0.0
29207,51.0,0.0,180.0,13.0,0.0
29208,59.0,0.0,180.0,2.0,0.0
29209,73.0,0.0,690.0,11.0,0.0
29210,73.0,0.0,690.0,2.0,0.0
29211,61.0,15.0,690.0,2.0,0.0
29212,40.0,0.0,690.0,14.0,0.0
29213,52.0,0.0,690.0,13.0,0.0
29214,52.0,52.0,240.0,8.0,0.0
29215,56.0,0.0,690.0,5.0,0.0
29216,68.0,0.0,690.0,5.0,0.0
29217,61.0,0.0,690.0,3.0,0.0
29218,28.0,0.0,690.0,15.0,0.0
29219,61.0,0.0,690.0,12.0,0.0
29220,44.0,0.0,240.0,10.0,0.0
29221,49.0,0.0,690.0,3.0,0.0
29222,61.0,0.0,690.0,1.0,0.0
29223,56.0,0.0,690.0,4.0,0.0
29224,61.0,0.0,240.0,6.0,0.0
29225,73.0,0.0,690.0,1.0,0.0
29226,56.0,0.0,240.0,7.0,0.0
29227,44.0,0.0,690.0,4.0,0.0
29228,28.0,105.0,720.0,3.0,0.0
29229,80.0,60.0,60.0,0.0,0.0
29230,82.0,60.0,60.0,0.0,0.0
29231,83.0,8.0,60.0,0.0,0.0
29232,85.0,60.0,60.0,0.0,0.0
29233,87.0,60.0,60.0,0.0,0.0
29234,89.0,60.0,60.0,0.0,0.0
29235,91.0,113.0,60.0,0.0,0.0
29236,92.0,120.0,90.0,0.0,0.0
29237,92.0,0.0,90.0,0.0,0.0
29238,92.0,75.0,90.0,0.0,0.0
29239,56.0,45.0,180.0,4.0,0.0
29240,44.0,0.0,180.0,4.0,0.0
29241,53.0,0.0,180.0,13.0,0.0
29242,29.0,0.0,180.0,3.0,0.0
29243,44.0,0.0,180.0,10.0,0.0
29244,29.0,0.0,180.0,15.0,0.0
29245,71.0,0.0,180.0,1.0,0.0
29246,74.0,0.0,180.0,1.0,0.0
29247,56.0,0.0,180.0,5.0,0.0
29248,68.0,0.0,180.0,5.0,0.0
29249,68.0,0.0,180.0,2.0,0.0
29250,41.0,0.0,180.0,14.0,0.0
29251,86.0,0.0,180.0,0.0,0.0
29252,74.0,0.0,180.0,11.0,0.0
29253,59.0,0.0,180.0,3.0,0.0
29254,56.0,0.0,180.0,3.0,0.0
29255,68.0,0.0,180.0,12.0,0.0
29256,83.0,0.0,180.0,0.0,0.0
29257,71.0,0.0,180.0,2.0,0.0
29258,92.0,67.0,90.0,0.0,0.0
29259,56.0,52.0,120.0,5.0,0.0
29260,56.0,0.0,60.0,4.0,0.0
29261,44.0,0.0,60.0,4.0,0.0
29262,60.0,0.0,60.0,3.0,0.0
29263,84.0,0.0,60.0,0.0,0.0
29264,56.0,0.0,60.0,3.0,0.0
29265,68.0,0.0,120.0,5.0,0.0
29266,75.0,0.0,120.0,11.0,0.0
29267,68.0,0.0,60.0,2.0,0.0
29268,72.0,60.0,60.0,2.0,0.0
29269,68.0,0.0,120.0,12.0,0.0
29270,87.0,0.0,60.0,0.0,0.0
29271,42.0,0.0,120.0,14.0,0.0
29272,92.0,0.0,60.0,0.0,0.0
29273,30.0,0.0,120.0,3.0,0.0
29274,44.0,0.0,120.0,10.0,0.0
29275,54.0,0.0,120.0,13.0,0.0
29276,30.0,0.0,120.0,15.0,0.0
29277,72.0,0.0,60.0,1.0,0.0
29278,75.0,0.0,60.0,1.0,0.0
29279,87.0,0.0,60.0,0.0,0.0
29280,72.0,0.0,60.0,2.0,0.0
29281,68.0,8.0,60.0,2.0,0.0
29282,56.0,0.0,60.0,3.0,0.0
29283,54.0,0.0,60.0,3.0,0.0
29284,75.0,0.0,60.0,1.0,0.0
29285,72.0,0.0,60.0,1.0,0.0
29286,56.0,0.0,60.0,4.0,0.0
29287,80.0,0.0,60.0,0.0,0.0
29288,80.0,0.0,60.0,0.0,0.0
29289,72.0,0.0,60.0,1.0,0.0
29290,54.0,0.0,60.0,3.0,0.0
29291,75.0,0.0,60.0,1.0,0.0
29292,56.0,0.0,60.0,3.0,0.0
29293,56.0,68.0,60.0,4.0,0.0
29294,84.0,0.0,60.0,0.0,0.0
29295,72.0,0.0,60.0,2.0,0.0
29296,68.0,0.0,60.0,2.0,0.0
29297,54.0,0.0,60.0,3.0,0.0
29298,56.0,0.0,60.0,4.0,0.0
29299,87.0,0.0,60.0,0.0,0.0
29300,68.0,0.0,60.0,2.0,0.0
29301,72.0,0.0,60.0,1.0,0.0
29302,75.0,0.0,60.0,1.0,0.0
29303,80.0,0.0,60.0,0.0,0.0
29304,72.0,0.0,60.0,2.0,0.0
29305,56.0,112.0,60.0,3.0,0.0
29306,72.0,0.0,120.0,12.0,0.0
29307,75.0,0.0,120.0,11.0,0.0
29308,54.0,0.0,120.0,14.0,0.0
29309,42.0,52.0,120.0,15.0,0.0
29310,56.0,0.0,120.0,13.0,0.0
29311,63.0,0.0,60.0,2.0,0.0
29312,60.0,0.0,60.0,2.0,0.0
29313,68.0,0.0,60.0,1.0,0.0
29314,87.0,8.0,60.0,0.0,0.0
29315,56.0,0.0,60.0,3.0,0.0
29316,54.0,0.0,60.0,3.0,0.0
29317,75.0,0.0,60.0,1.0,0.0
29318,56.0,0.0,60.0,4.0,0.0
29319,80.0,0.0,60.0,0.0,0.0
29320,75.0,0.0,60.0,1.0,0.0
29321,68.0,0.0,60.0,1.0,0.0
29322,56.0,0.0,60.0,4.0,0.0
29323,84.0,0.0,60.0,0.0,0.0
29324,63.0,68.0,60.0,2.0,0.0
29325,80.0,0.0,60.0,0.0,0.0
29326,54.0,0.0,60.0,3.0,0.0
29327,56.0,0.0,60.0,3.0,0.0
29328,60.0,0.0,60.0,2.0,0.0
29329,68.0,0.0,60.0,1.0,0.0
29330,80.0,0.0,60.0,0.0,0.0
29331,56.0,0.0,60.0,4.0,0.0
29332,75.0,0.0,60.0,1.0,0.0
29333,54.0,0.0,60.0,3.0,0.0
29334,60.0,0.0,60.0,2.0,0.0
29335,63.0,0.0,60.0,2.0,0.0
29336,87.0,0.0,60.0,0.0,0.0
29337,56.0,112.0,60.0,3.0,0.0
29338,56.0,0.0,120.0,13.0,0.0
29339,52.0,0.0,120.0,14.0,0.0
29340,75.0,52.0,120.0,11.0,0.0
29341,40.0,0.0,120.0,15.0,0.0
29342,68.0,0.0,120.0,12.0,0.0
29343,80.0,0.0,60.0,0.0,0.0
29344,87.0,0.0,60.0,0.0,0.0
29345,56.0,0.0,60.0,4.0,0.0
29346,75.0,0.0,60.0,1.0,0.0
29347,52.0,0.0,60.0,3.0,0.0
29348,56.0,8.0,60.0,2.0,0.0
29349,56.0,0.0,60.0,3.0,0.0
29350,68.0,0.0,60.0,1.0,0.0
29351,63.0,0.0,60.0,2.0,0.0
29352,68.0,0.0,60.0,1.0,0.0
29353,75.0,0.0,60.0,1.0,0.0
29354,80.0,0.0,60.0,0.0,0.0
29355,56.0,0.0,60.0,3.0,0.0
29356,63.0,0.0,60.0,2.0,0.0
29357,56.0,0.0,60.0,2.0,0.0
29358,84.0,0.0,60.0,0.0,0.0
29359,52.0,68.0,60.0,3.0,0.0
29360,56.0,0.0,60.0,4.0,0.0
29361,68.0,0.0,60.0,1.0,0.0
29362,75.0,112.0,60.0,1.0,0.0
29363,80.0,0.0,60.0,0.0,0.0
29364,87.0,0.0,60.0,0.0,0.0
29365,56.0,0.0,60.0,4.0,0.0
29366,56.0,0.0,60.0,3.0,0.0
29367,52.0,0.0,60.0,3.0,0.0
29368,63.0,0.0,60.0,2.0,0.0
29369,56.0,0.0,60.0,2.0,0.0
29370,56.0,0.0,120.0,13.0,0.0
29371,73.0,0.0,120.0,11.0,0.0
29372,52.0,52.0,120.0,14.0,0.0
29373,40.0,0.0,120.0,15.0,0.0
29374,68.0,0.0,120.0,12.0,0.0
29375,52.0,8.0,60.0,3.0,0.0
29376,56.0,0.0,60.0,3.0,0.0
29377,85.0,0.0,60.0,0.0,0.0
29378,68.0,0.0,60.0,1.0,0.0
29379,73.0,0.0,60.0,1.0,0.0
29380,80.0,0.0,60.0,0.0,0.0
29381,56.0,0.0,60.0,2.0,0.0
29382,61.0,0.0,60.0,2.0,0.0
29383,56.0,0.0,60.0,4.0,0.0
29384,52.0,0.0,60.0,3.0,0.0
29385,56.0,0.0,60.0,4.0,0.0
29386,80.0,0.0,60.0,0.0,0.0
29387,56.0,0.0,60.0,3.0,0.0
29388,61.0,0.0,60.0,2.0,0.0
29389,84.0,68.0,60.0,0.0,0.0
29390,68.0,0.0,60.0,1.0,0.0
29391,73.0,0.0,60.0,1.0,0.0
29392,56.0,0.0,60.0,2.0,0.0
29393,52.0,0.0,60.0,3.0,0.0
29394,56.0,0.0,60.0,3.0,0.0
29395,73.0,0.0,60.0,1.0,0.0
29396,61.0,0.0,60.0,2.0,0.0
29397,56.0,0.0,60.0,2.0,0.0
29398,80.0,112.0,60.0,0.0,0.0
29399,56.0,0.0,60.0,4.0,0.0
29400,68.0,0.0,60.0,1.0,0.0
29401,85.0,0.0,60.0,0.0,0.0
29402,58.0,52.0,120.0,13.0,0.0
29403,39.0,0.0,120.0,15.0,0.0
29404,73.0,0.0,120.0,11.0,0.0
29405,67.0,0.0,120.0,12.0,0.0
29406,51.0,0.0,120.0,14.0,0.0
29407,85.0,0.0,60.0,0.0,0.0
29408,51.0,0.0,60.0,3.0,0.0
29409,61.0,8.0,60.0,2.0,0.0
29410,58.0,0.0,60.0,2.0,0.0
29411,73.0,0.0,60.0,1.0,0.0
29412,70.0,0.0,60.0,1.0,0.0
29413,73.0,0.0,60.0,0.0,0.0
29414,79.0,0.0,60.0,0.0,0.0
29415,58.0,0.0,60.0,4.0,0.0
29416,51.0,0.0,60.0,4.0,0.0
29417,55.0,0.0,60.0,3.0,0.0
29418,51.0,0.0,60.0,4.0,0.0
29419,58.0,0.0,60.0,4.0,0.0
29420,82.0,0.0,60.0,0.0,0.0
29421,51.0,68.0,60.0,3.0,0.0
29422,73.0,0.0,60.0,1.0,0.0
29423,70.0,0.0,60.0,1.0,0.0
29424,61.0,0.0,60.0,2.0,0.0
29425,58.0,0.0,60.0,2.0,0.0
29426,55.0,0.0,60.0,3.0,0.0
29427,79.0,0.0,60.0,0.0,0.0
29428,73.0,0.0,60.0,0.0,0.0
29429,85.0,0.0,60.0,0.0,0.0
29430,51.0,0.0,60.0,3.0,0.0
29431,55.0,0.0,60.0,3.0,0.0
29432,73.0,0.0,60.0,1.0,0.0
29433,58.0,0.0,60.0,4.0,0.0
29434,51.0,0.0,60.0,4.0,0.0
29435,73.0,0.0,60.0,0.0,0.0
29436,79.0,112.0,60.0,0.0,0.0
29437,70.0,0.0,60.0,1.0,0.0
29438,61.0,0.0,60.0,2.0,0.0
29439,58.0,0.0,60.0,2.0,0.0
29440,68.0,0.0,120.0,12.0,0.0
29441,51.0,0.0,120.0,14.0,0.0
29442,60.0,0.0,120.0,13.0,0.0
29443,72.0,52.0,120.0,11.0,0.0
29444,39.0,0.0,120.0,15.0,0.0
29445,68.0,0.0,60.0,1.0,0.0
29446,84.0,8.0,60.0,0.0,0.0
29447,60.0,0.0,60.0,4.0,0.0
29448,51.0,0.0,60.0,3.0,0.0
29449,56.0,0.0,60.0,4.0,0.0
29450,60.0,0.0,60.0,2.0,0.0
29451,72.0,0.0,60.0,0.0,0.0
29452,56.0,0.0,60.0,2.0,0.0
29453,80.0,0.0,60.0,0.0,0.0
29454,56.0,0.0,60.0,3.0,0.0
29455,72.0,0.0,60.0,1.0,0.0
29456,60.0,0.0,60.0,2.0,0.0
29457,56.0,0.0,60.0,2.0,0.0
29458,56.0,0.0,60.0,4.0,0.0
29459,80.0,0.0,60.0,0.0,0.0
29460,68.0,0.0,60.0,1.0,0.0
29461,72.0,0.0,60.0,1.0,0.0
29462,72.0,0.0,60.0,0.0,0.0
29463,82.0,68.0,60.0,0.0,0.0
29464,51.0,0.0,60.0,3.0,0.0
29465,56.0,0.0,60.0,3.0,0.0
29466,60.0,0.0,60.0,4.0,0.0
29467,60.0,0.0,60.0,4.0,0.0
29468,80.0,0.0,60.0,0.0,0.0
29469,56.0,0.0,60.0,4.0,0.0
29470,72.0,0.0,60.0,0.0,0.0
29471,56.0,0.0,60.0,2.0,0.0
29472,51.0,0.0,60.0,3.0,0.0
29473,56.0,120.0,60.0,3.0,0.0
29474,84.0,0.0,60.0,0.0,0.0
29475,72.0,0.0,60.0,1.0,0.0
29476,68.0,0.0,60.0,1.0,0.0
29477,60.0,0.0,60.0,2.0,0.0
29478,39.0,0.0,120.0,15.0,0.0
29479,51.0,0.0,120.0,14.0,0.0
29480,61.0,120.0,120.0,13.0,0.0
29481,67.0,0.0,120.0,12.0,0.0
29482,70.0,0.0,120.0,11.0,0.0
29483,70.0,0.0,120.0,1.0,0.0
29484,79.0,0.0,120.0,0.0,0.0
29485,51.0,0.0,120.0,4.0,0.0
29486,82.0,0.0,120.0,0.0,0.0
29487,67.0,0.0,120.0,1.0,0.0
29488,58.0,0.0,120.0,4.0,0.0
29489,55.0,0.0,120.0,2.0,0.0
29490,61.0,0.0,120.0,2.0,0.0
29491,55.0,120.0,120.0,3.0,0.0
29492,51.0,0.0,120.0,3.0,0.0
29493,60.0,0.0,120.0,13.0,0.0
29494,54.0,120.0,120.0,14.0,0.0
29495,68.0,0.0,120.0,12.0,0.0
29496,75.0,0.0,120.0,11.0,0.0
29497,42.0,0.0,120.0,15.0,0.0
29498,68.0,0.0,120.0,1.0,0.0
29499,75.0,120.0,120.0,1.0,0.0
29500,56.0,0.0,120.0,3.0,0.0
29501,54.0,0.0,120.0,3.0,0.0
29502,87.0,0.0,120.0,0.0,0.0
29503,56.0,0.0,120.0,4.0,0.0
29504,72.0,0.0,120.0,2.0,0.0
29505,60.0,0.0,120.0,2.0,0.0
29506,84.0,0.0,120.0,0.0,0.0
29507,80.0,0.0,120.0,0.0,0.0
29508,60.0,0.0,120.0,13.0,0.0
29509,68.0,0.0,120.0,12.0,0.0
29510,42.0,0.0,120.0,15.0,0.0
29511,54.0,0.0,120.0,14.0,0.0
29512,75.0,120.0,120.0,11.0,0.0
29513,68.0,0.0,120.0,1.0,0.0
29514,56.0,120.0,120.0,3.0,0.0
29515,87.0,0.0,120.0,0.0,0.0
29516,72.0,0.0,120.0,2.0,0.0
29517,60.0,0.0,120.0,2.0,0.0
29518,80.0,0.0,120.0,0.0,0.0
29519,75.0,0.0,120.0,1.0,0.0
29520,84.0,0.0,120.0,0.0,0.0
29521,54.0,0.0,120.0,3.0,0.0
29522,56.0,0.0,120.0,4.0,0.0
29523,75.0,0.0,120.0,11.0,0.0
29524,60.0,0.0,120.0,13.0,0.0
29525,42.0,0.0,120.0,15.0,0.0
29526,54.0,120.0,120.0,14.0,0.0
29527,68.0,0.0,120.0,12.0,0.0
29528,84.0,0.0,120.0,0.0,0.0
29529,80.0,0.0,120.0,0.0,0.0
29530,56.0,0.0,120.0,4.0,0.0
29531,63.0,0.0,120.0,2.0,0.0
29532,60.0,0.0,120.0,2.0,0.0
29533,75.0,0.0,120.0,1.0,0.0
29534,54.0,0.0,120.0,3.0,0.0
29535,56.0,0.0,120.0,3.0,0.0
29536,87.0,0.0,120.0,0.0,0.0
29537,68.0,120.0,120.0,1.0,0.0
29538,75.0,0.0,120.0,11.0,0.0
29539,68.0,0.0,120.0,12.0,0.0
29540,56.0,120.0,120.0,13.0,0.0
29541,52.0,0.0,120.0,14.0,0.0
29542,40.0,0.0,120.0,15.0,0.0
29543,63.0,0.0,120.0,2.0,0.0
29544,75.0,0.0,120.0,1.0,0.0
29545,68.0,0.0,120.0,1.0,0.0
29546,52.0,120.0,120.0,3.0,0.0
29547,56.0,0.0,120.0,2.0,0.0
29548,56.0,0.0,120.0,4.0,0.0
29549,80.0,0.0,120.0,0.0,0.0
29550,87.0,0.0,120.0,0.0,0.0
29551,56.0,0.0,120.0,3.0,0.0
29552,73.0,120.0,120.0,11.0,0.0
29553,40.0,0.0,120.0,15.0,0.0
29554,56.0,0.0,120.0,13.0,0.0
29555,52.0,0.0,120.0,14.0,0.0
29556,68.0,0.0,120.0,12.0,0.0
29557,61.0,0.0,120.0,2.0,0.0
29558,68.0,0.0,120.0,1.0,0.0
29559,52.0,0.0,120.0,3.0,0.0
29560,56.0,0.0,120.0,4.0,0.0
29561,73.0,0.0,120.0,1.0,0.0
29562,56.0,120.0,120.0,3.0,0.0
29563,85.0,0.0,120.0,0.0,0.0
29564,56.0,0.0,120.0,2.0,0.0
29565,80.0,0.0,120.0,0.0,0.0
29566,67.0,0.0,120.0,12.0,0.0
29567,73.0,0.0,120.0,11.0,0.0
29568,51.0,0.0,120.0,14.0,0.0
29569,58.0,0.0,120.0,13.0,0.0
29570,39.0,120.0,120.0,15.0,0.0
29571,55.0,0.0,120.0,3.0,0.0
29572,82.0,0.0,120.0,0.0,0.0
29573,79.0,0.0,120.0,0.0,0.0
29574,67.0,0.0,120.0,1.0,0.0
29575,61.0,0.0,120.0,2.0,0.0
29576,51.0,0.0,120.0,3.0,0.0
29577,58.0,0.0,120.0,2.0,0.0
29578,51.0,0.0,120.0,4.0,0.0
29579,85.0,0.0,120.0,0.0,0.0
29580,58.0,120.0,120.0,4.0,0.0
29581,73.0,0.0,120.0,1.0,0.0
29582,39.0,0.0,120.0,15.0,0.0
29583,60.0,0.0,120.0,13.0,0.0
29584,51.0,0.0,120.0,14.0,0.0
29585,68.0,0.0,120.0,12.0,0.0
29586,72.0,120.0,120.0,11.0,0.0
29587,56.0,0.0,120.0,2.0,0.0
29588,60.0,0.0,120.0,2.0,0.0
29589,51.0,0.0,120.0,3.0,0.0
29590,84.0,0.0,120.0,0.0,0.0
29591,80.0,0.0,120.0,0.0,0.0
29592,68.0,0.0,120.0,1.0,0.0
29593,72.0,0.0,120.0,1.0,0.0
29594,60.0,0.0,120.0,4.0,0.0
29595,56.0,0.0,120.0,4.0,0.0
29596,56.0,0.0,120.0,3.0,0.0
29597,51.0,0.0,120.0,14.0,0.0
29598,70.0,0.0,120.0,11.0,0.0
29599,61.0,0.0,120.0,13.0,0.0
29600,39.0,120.0,120.0,15.0,0.0
29601,67.0,0.0,120.0,12.0,0.0
29602,58.0,0.0,120.0,4.0,0.0
29603,51.0,0.0,120.0,4.0,0.0
29604,55.0,0.0,120.0,2.0,0.0
29605,79.0,0.0,120.0,0.0,0.0
29606,58.0,0.0,120.0,2.0,0.0
29607,51.0,0.0,120.0,3.0,0.0
29608,67.0,120.0,120.0,1.0,0.0
29609,70.0,0.0,120.0,1.0,0.0
29610,55.0,0.0,120.0,3.0,0.0
29611,82.0,0.0,120.0,0.0,0.0
29612,68.0,0.0,120.0,12.0,0.0
29613,42.0,0.0,120.0,15.0,0.0
29614,54.0,120.0,120.0,14.0,0.0
29615,75.0,0.0,120.0,11.0,0.0
29616,42.0,0.0,120.0,3.0,0.0
29617,60.0,0.0,120.0,13.0,0.0
29618,60.0,0.0,120.0,3.0,0.0
29619,54.0,120.0,120.0,3.0,0.0
29620,87.0,0.0,120.0,0.0,0.0
29621,68.0,0.0,120.0,1.0,0.0
29622,75.0,0.0,120.0,1.0,0.0
29623,80.0,0.0,120.0,0.0,0.0
29624,56.0,0.0,120.0,2.0,0.0
29625,63.0,0.0,120.0,2.0,0.0
29626,84.0,0.0,120.0,0.0,0.0
29627,56.0,0.0,120.0,4.0,0.0
29628,60.0,0.0,120.0,13.0,0.0
29629,42.0,0.0,120.0,3.0,0.0
29630,54.0,0.0,120.0,14.0,0.0
29631,68.0,120.0,120.0,12.0,0.0
29632,42.0,0.0,120.0,15.0,0.0
29633,75.0,0.0,120.0,11.0,0.0
29634,87.0,0.0,120.0,0.0,0.0
29635,68.0,0.0,120.0,1.0,0.0
29636,75.0,0.0,120.0,1.0,0.0
29637,60.0,0.0,120.0,3.0,0.0
29638,54.0,0.0,120.0,3.0,0.0
29639,80.0,0.0,120.0,0.0,0.0
29640,84.0,0.0,120.0,0.0,0.0
29641,63.0,120.0,120.0,2.0,0.0
29642,56.0,0.0,120.0,2.0,0.0
29643,56.0,0.0,120.0,4.0,0.0
29644,56.0,0.0,120.0,5.0,0.0
29645,54.0,0.0,120.0,14.0,0.0
29646,68.0,0.0,120.0,12.0,0.0
29647,68.0,120.0,120.0,5.0,0.0
29648,42.0,0.0,120.0,3.0,0.0
29649,42.0,0.0,120.0,15.0,0.0
29650,60.0,0.0,120.0,13.0,0.0
29651,75.0,0.0,120.0,11.0,0.0
29652,44.0,0.0,120.0,10.0,0.0
29653,60.0,0.0,120.0,3.0,0.0
29654,80.0,0.0,120.0,0.0,0.0
29655,56.0,0.0,120.0,2.0,0.0
29656,54.0,120.0,120.0,3.0,0.0
29657,68.0,0.0,120.0,1.0,0.0
29658,75.0,0.0,120.0,1.0,0.0
29659,84.0,0.0,120.0,0.0,0.0
29660,63.0,0.0,120.0,2.0,0.0
29661,56.0,0.0,120.0,4.0,0.0
29662,87.0,0.0,120.0,0.0,0.0
29663,56.0,0.0,120.0,5.0,0.0
29664,40.0,0.0,120.0,15.0,0.0
29665,40.0,0.0,120.0,3.0,0.0
29666,44.0,0.0,120.0,10.0,0.0
29667,68.0,0.0,120.0,12.0,0.0
29668,75.0,0.0,120.0,11.0,0.0
29669,60.0,0.0,120.0,13.0,0.0
29670,68.0,120.0,120.0,5.0,0.0
29671,52.0,0.0,120.0,14.0,0.0
29672,56.0,0.0,120.0,4.0,0.0
29673,56.0,120.0,120.0,2.0,0.0
29674,52.0,0.0,120.0,3.0,0.0
29675,63.0,0.0,120.0,2.0,0.0
29676,75.0,0.0,120.0,1.0,0.0
29677,68.0,0.0,120.0,1.0,0.0
29678,87.0,0.0,120.0,0.0,0.0
29679,56.0,0.0,120.0,3.0,0.0
29680,80.0,0.0,120.0,0.0,0.0
29681,40.0,0.0,120.0,3.0,0.0
29682,68.0,0.0,120.0,5.0,0.0
29683,68.0,0.0,120.0,12.0,0.0
29684,56.0,0.0,120.0,5.0,0.0
29685,52.0,0.0,120.0,14.0,0.0
29686,44.0,100.0,120.0,10.0,0.0
29687,40.0,0.0,120.0,15.0,0.0
29688,73.0,0.0,120.0,11.0,0.0
29689,61.0,0.0,120.0,13.0,0.0
29690,85.0,0.0,120.0,0.0,0.0
29691,56.0,20.0,90.0,4.0,0.0
29692,80.0,0.0,120.0,0.0,0.0
29693,56.0,0.0,120.0,2.0,0.0
29694,68.0,0.0,120.0,1.0,0.0
29695,73.0,0.0,120.0,1.0,0.0
29696,52.0,0.0,120.0,3.0,0.0
29697,56.0,0.0,120.0,3.0,0.0
29698,61.0,120.0,120.0,2.0,0.0
29699,39.0,0.0,120.0,3.0,0.0
29700,39.0,0.0,120.0,15.0,0.0
29701,51.0,0.0,120.0,5.0,0.0
29702,63.0,0.0,120.0,5.0,0.0
29703,73.0,0.0,120.0,11.0,0.0
29704,39.0,0.0,120.0,10.0,0.0
29705,67.0,0.0,120.0,12.0,0.0
29706,58.0,120.0,120.0,13.0,0.0
29707,51.0,0.0,120.0,4.0,0.0
29708,58.0,0.0,120.0,4.0,0.0
29709,51.0,0.0,120.0,14.0,0.0
29710,82.0,0.0,120.0,0.0,0.0
29711,79.0,0.0,120.0,0.0,0.0
29712,51.0,0.0,120.0,3.0,0.0
29713,85.0,0.0,120.0,0.0,0.0
29714,73.0,0.0,120.0,1.0,0.0
29715,67.0,0.0,120.0,1.0,0.0
29716,61.0,120.0,120.0,2.0,0.0
29717,58.0,0.0,120.0,2.0,0.0
29718,55.0,0.0,120.0,3.0,0.0
29719,63.0,0.0,120.0,5.0,0.0
29720,39.0,0.0,120.0,15.0,0.0
29721,51.0,0.0,120.0,5.0,0.0
29722,39.0,0.0,120.0,10.0,0.0
29723,68.0,120.0,120.0,12.0,0.0
29724,56.0,0.0,120.0,4.0,0.0
29725,60.0,0.0,120.0,13.0,0.0
29726,60.0,0.0,120.0,4.0,0.0
29727,51.0,0.0,120.0,14.0,0.0
29728,39.0,0.0,120.0,3.0,0.0
29729,72.0,0.0,120.0,11.0,0.0
29730,80.0,0.0,120.0,0.0,0.0
29731,68.0,0.0,120.0,1.0,0.0
29732,72.0,0.0,120.0,1.0,0.0
29733,56.0,0.0,120.0,2.0,0.0
29734,60.0,0.0,120.0,2.0,0.0
29735,51.0,0.0,120.0,3.0,0.0
29736,56.0,0.0,120.0,3.0,0.0
29737,84.0,0.0,120.0,0.0,0.0
29738,70.0,0.0,120.0,11.0,0.0
29739,39.0,0.0,120.0,15.0,0.0
29740,61.0,0.0,120.0,13.0,0.0
29741,68.0,0.0,120.0,12.0,0.0
29742,39.0,0.0,120.0,3.0,0.0
29743,56.0,0.0,120.0,4.0,0.0
29744,58.0,0.0,120.0,4.0,0.0
29745,63.0,0.0,120.0,5.0,0.0
29746,51.0,120.0,120.0,5.0,0.0
29747,51.0,0.0,120.0,14.0,0.0
29748,39.0,0.0,120.0,10.0,0.0
29749,58.0,0.0,120.0,2.0,0.0
29750,56.0,120.0,120.0,2.0,0.0
29751,56.0,0.0,120.0,3.0,0.0
29752,51.0,0.0,120.0,3.0,0.0
29753,70.0,0.0,120.0,1.0,0.0
29754,82.0,0.0,120.0,0.0,0.0
29755,68.0,0.0,120.0,1.0,0.0
29756,80.0,0.0,120.0,0.0,0.0
29757,51.0,0.0,120.0,5.0,0.0
29758,39.0,90.0,120.0,14.0,0.0
29759,27.0,0.0,120.0,15.0,0.0
29760,39.0,0.0,120.0,10.0,0.0
29761,63.0,0.0,120.0,5.0,0.0
29762,67.0,0.0,120.0,12.0,0.0
29763,75.0,0.0,120.0,11.0,0.0
29764,27.0,0.0,120.0,3.0,0.0
29765,58.0,0.0,120.0,4.0,0.0
29766,58.0,0.0,120.0,13.0,0.0
29767,51.0,0.0,120.0,4.0,0.0
29768,82.0,80.0,90.0,0.0,0.0
29769,87.0,0.0,90.0,0.0,0.0
29770,51.0,0.0,90.0,3.0,0.0
29771,55.0,0.0,90.0,3.0,0.0
29772,67.0,0.0,90.0,1.0,0.0
29773,55.0,0.0,90.0,2.0,0.0
29774,75.0,0.0,90.0,1.0,0.0
29775,79.0,0.0,90.0,0.0,0.0
29776,63.0,0.0,90.0,2.0,0.0
29777,48.0,0.0,40.0,13.0,0.0
29778,56.0,0.0,120.0,5.0,0.0
29779,44.0,0.0,120.0,3.0,0.0
29780,32.0,0.0,120.0,3.0,0.0
29781,68.0,0.0,120.0,1.0,0.0
29782,44.0,0.0,60.0,14.0,0.0
29783,44.0,10.0,40.0,13.0,0.0
29784,56.0,0.0,120.0,1.0,0.0
29785,44.0,0.0,120.0,10.0,0.0
29786,56.0,50.0,60.0,11.0,0.0
29787,44.0,0.0,120.0,4.0,0.0
29788,32.0,0.0,60.0,15.0,0.0
29789,56.0,50.0,120.0,4.0,0.0
29790,80.0,0.0,120.0,0.0,0.0
29791,56.0,0.0,120.0,2.0,0.0
29792,48.0,0.0,40.0,13.0,0.0
29793,44.0,0.0,60.0,14.0,0.0
29794,56.0,10.0,270.0,11.0,0.0
29795,44.0,10.0,40.0,13.0,0.0
29796,32.0,0.0,60.0,15.0,0.0
29797,44.0,60.0,40.0,13.0,0.0
29798,48.0,0.0,40.0,13.0,0.0
29799,48.0,60.0,40.0,13.0,0.0
29800,44.0,0.0,40.0,13.0,0.0
29801,48.0,0.0,40.0,13.0,0.0
29802,44.0,50.0,40.0,13.0,0.0
29803,48.0,60.0,40.0,13.0,0.0
29804,44.0,0.0,40.0,13.0,0.0
29805,44.0,50.0,40.0,13.0,0.0
29806,48.0,0.0,40.0,13.0,0.0
29807,55.0,10.0,90.0,11.0,0.0
29808,44.0,60.0,40.0,13.0,0.0
29809,48.0,0.0,40.0,13.0,0.0
29810,49.0,0.0,40.0,13.0,0.0
29811,53.0,50.0,120.0,11.0,0.0
29812,46.0,60.0,40.0,13.0,0.0
29813,46.0,10.0,40.0,13.0,0.0
29814,49.0,0.0,40.0,13.0,0.0
29815,49.0,0.0,40.0,13.0,0.0
29816,46.0,50.0,40.0,13.0,0.0
29817,39.0,0.0,90.0,14.0,0.0
29818,27.0,0.0,90.0,3.0,0.0
29819,51.0,0.0,90.0,11.0,0.0
29820,27.0,10.0,90.0,15.0,0.0
29821,46.0,60.0,40.0,13.0,0.0
29822,49.0,0.0,40.0,13.0,0.0
29823,51.0,10.0,90.0,11.0,0.0
29824,27.0,0.0,90.0,15.0,0.0
29825,27.0,10.0,90.0,3.0,0.0
29826,46.0,0.0,40.0,13.0,0.0
29827,49.0,40.0,40.0,13.0,0.0
29828,39.0,0.0,90.0,14.0,0.0
29829,46.0,60.0,40.0,13.0,0.0
29830,49.0,0.0,40.0,13.0,0.0
29831,27.0,10.0,90.0,3.0,0.0
29832,27.0,0.0,90.0,15.0,0.0
29833,51.0,10.0,90.0,11.0,0.0
29834,49.0,40.0,40.0,13.0,0.0
29835,39.0,0.0,90.0,14.0,0.0
29836,46.0,0.0,40.0,13.0,0.0
29837,46.0,60.0,40.0,13.0,0.0
29838,49.0,0.0,40.0,13.0,0.0
29839,44.0,0.0,120.0,10.0,0.0
29840,56.0,0.0,120.0,4.0,0.0
29841,44.0,50.0,60.0,14.0,0.0
29842,56.0,50.0,120.0,5.0,0.0
29843,32.0,0.0,60.0,15.0,0.0
29844,32.0,0.0,120.0,3.0,0.0
29845,56.0,0.0,60.0,11.0,0.0
29846,44.0,0.0,120.0,4.0,0.0
29847,48.0,10.0,40.0,13.0,0.0
29848,44.0,0.0,40.0,13.0,0.0
29849,44.0,0.0,40.0,13.0,0.0
29850,32.0,0.0,60.0,15.0,0.0
29851,56.0,10.0,270.0,11.0,0.0
29852,44.0,0.0,60.0,14.0,0.0
29853,48.0,10.0,40.0,13.0,0.0
29854,48.0,60.0,40.0,13.0,0.0
29855,44.0,0.0,40.0,13.0,0.0
29856,48.0,60.0,40.0,13.0,0.0
29857,44.0,0.0,40.0,13.0,0.0
29858,48.0,50.0,40.0,13.0,0.0
29859,44.0,0.0,40.0,13.0,0.0
29860,48.0,60.0,40.0,13.0,0.0
29861,44.0,0.0,40.0,13.0,0.0
29862,48.0,50.0,40.0,13.0,0.0
29863,44.0,0.0,40.0,13.0,0.0
29864,55.0,10.0,90.0,11.0,0.0
29865,48.0,0.0,40.0,13.0,0.0
29866,44.0,60.0,40.0,13.0,0.0
29867,53.0,50.0,120.0,11.0,0.0
29868,46.0,60.0,40.0,13.0,0.0
29869,49.0,0.0,40.0,13.0,0.0
29870,46.0,10.0,40.0,13.0,0.0
29871,49.0,0.0,40.0,13.0,0.0
29872,39.0,0.0,90.0,14.0,0.0
29873,51.0,0.0,90.0,11.0,0.0
29874,27.0,0.0,90.0,3.0,0.0
29875,27.0,10.0,90.0,15.0,0.0
29876,46.0,0.0,40.0,13.0,0.0
29877,49.0,50.0,40.0,13.0,0.0
29878,46.0,60.0,40.0,13.0,0.0
29879,49.0,0.0,40.0,13.0,0.0
29880,27.0,0.0,90.0,3.0,0.0
29881,27.0,10.0,90.0,15.0,0.0
29882,39.0,0.0,90.0,14.0,0.0
29883,51.0,10.0,90.0,11.0,0.0
29884,46.0,40.0,40.0,13.0,0.0
29885,49.0,0.0,40.0,13.0,0.0
29886,49.0,60.0,40.0,13.0,0.0
29887,46.0,0.0,40.0,13.0,0.0
29888,27.0,10.0,90.0,3.0,0.0
29889,51.0,10.0,90.0,11.0,0.0
29890,49.0,0.0,40.0,13.0,0.0
29891,27.0,0.0,90.0,15.0,0.0
29892,39.0,0.0,90.0,14.0,0.0
29893,46.0,40.0,40.0,13.0,0.0
29894,46.0,0.0,40.0,13.0,0.0
29895,49.0,60.0,40.0,13.0,0.0
29896,44.0,0.0,120.0,4.0,0.0
29897,44.0,0.0,60.0,14.0,0.0
29898,56.0,50.0,120.0,5.0,0.0
29899,56.0,0.0,60.0,12.0,0.0
29900,56.0,0.0,120.0,4.0,0.0
29901,32.0,0.0,120.0,3.0,0.0
29902,32.0,50.0,60.0,15.0,0.0
29903,60.0,0.0,60.0,11.0,0.0
29904,44.0,0.0,120.0,10.0,0.0
29905,48.0,0.0,40.0,13.0,0.0
29906,44.0,10.0,40.0,13.0,0.0
29907,44.0,0.0,60.0,14.0,0.0
29908,60.0,0.0,270.0,11.0,0.0
29909,44.0,10.0,40.0,13.0,0.0
29910,48.0,0.0,40.0,13.0,0.0
29911,56.0,10.0,270.0,12.0,0.0
29912,32.0,0.0,60.0,15.0,0.0
29913,44.0,60.0,40.0,13.0,0.0
29914,48.0,0.0,40.0,13.0,0.0
29915,48.0,0.0,40.0,13.0,0.0
29916,44.0,60.0,40.0,13.0,0.0
29917,48.0,50.0,40.0,13.0,0.0
29918,44.0,0.0,40.0,13.0,0.0
29919,48.0,0.0,40.0,13.0,0.0
29920,44.0,60.0,40.0,13.0,0.0
29921,58.0,0.0,90.0,11.0,0.0
29922,44.0,0.0,40.0,13.0,0.0
29923,48.0,50.0,40.0,13.0,0.0
29924,55.0,10.0,90.0,12.0,0.0
29925,44.0,0.0,40.0,13.0,0.0
29926,48.0,60.0,40.0,13.0,0.0
29927,53.0,0.0,120.0,12.0,0.0
29928,49.0,0.0,40.0,13.0,0.0
29929,56.0,50.0,120.0,11.0,0.0
29930,46.0,60.0,40.0,13.0,0.0
29931,46.0,10.0,40.0,13.0,0.0
29932,49.0,0.0,40.0,13.0,0.0
29933,27.0,0.0,90.0,3.0,0.0
29934,49.0,50.0,40.0,13.0,0.0
29935,55.0,0.0,90.0,11.0,0.0
29936,39.0,0.0,90.0,14.0,0.0
29937,27.0,10.0,90.0,15.0,0.0
29938,51.0,0.0,90.0,12.0,0.0
29939,46.0,0.0,40.0,13.0,0.0
29940,46.0,0.0,40.0,13.0,0.0
29941,49.0,60.0,40.0,13.0,0.0
29942,27.0,10.0,90.0,15.0,0.0
29943,55.0,0.0,90.0,11.0,0.0
29944,27.0,0.0,90.0,3.0,0.0
29945,46.0,40.0,40.0,13.0,0.0
29946,49.0,0.0,40.0,13.0,0.0
29947,51.0,10.0,90.0,12.0,0.0
29948,39.0,0.0,90.0,14.0,0.0
29949,49.0,0.0,40.0,13.0,0.0
29950,46.0,60.0,40.0,13.0,0.0
29951,46.0,0.0,40.0,13.0,0.0
29952,27.0,0.0,90.0,3.0,0.0
29953,27.0,10.0,90.0,15.0,0.0
29954,55.0,10.0,90.0,11.0,0.0
29955,49.0,40.0,40.0,13.0,0.0
29956,39.0,0.0,90.0,14.0,0.0
29957,51.0,0.0,90.0,12.0,0.0
29958,49.0,60.0,40.0,13.0,0.0
29959,46.0,0.0,40.0,13.0,0.0
29960,44.0,0.0,40.0,13.0,0.0
29961,44.0,50.0,120.0,4.0,0.0
29962,56.0,0.0,120.0,4.0,0.0
29963,48.0,10.0,40.0,13.0,0.0
29964,44.0,0.0,60.0,14.0,0.0
29965,56.0,0.0,120.0,5.0,0.0
29966,44.0,0.0,120.0,10.0,0.0
29967,32.0,0.0,120.0,3.0,0.0
29968,60.0,50.0,60.0,11.0,0.0
29969,32.0,0.0,60.0,15.0,0.0
29970,56.0,0.0,60.0,12.0,0.0
29971,60.0,10.0,270.0,11.0,0.0
29972,44.0,0.0,60.0,14.0,0.0
29973,48.0,10.0,40.0,13.0,0.0
29974,44.0,0.0,40.0,13.0,0.0
29975,32.0,0.0,60.0,15.0,0.0
29976,56.0,0.0,270.0,12.0,0.0
29977,48.0,60.0,40.0,13.0,0.0
29978,44.0,0.0,40.0,13.0,0.0
29979,44.0,0.0,40.0,13.0,0.0
29980,48.0,60.0,40.0,13.0,0.0
29981,48.0,0.0,40.0,13.0,0.0
29982,44.0,50.0,40.0,13.0,0.0
29983,44.0,0.0,40.0,13.0,0.0
29984,48.0,60.0,40.0,13.0,0.0
29985,48.0,50.0,40.0,13.0,0.0
29986,44.0,0.0,40.0,13.0,0.0
29987,55.0,10.0,90.0,12.0,0.0
29988,58.0,0.0,90.0,11.0,0.0
29989,44.0,60.0,40.0,13.0,0.0
29990,48.0,0.0,40.0,13.0,0.0
29991,53.0,50.0,120.0,12.0,0.0
29992,46.0,60.0,40.0,13.0,0.0
29993,49.0,0.0,40.0,13.0,0.0
29994,56.0,0.0,120.0,11.0,0.0
29995,49.0,0.0,40.0,13.0,0.0
29996,46.0,10.0,40.0,13.0,0.0
29997,55.0,0.0,90.0,11.0,0.0
29998,27.0,0.0,90.0,3.0,0.0
29999,51.0,0.0,90.0,12.0,0.0
30000,27.0,10.0,90.0,15.0,0.0
30001,46.0,0.0,40.0,13.0,0.0
30002,49.0,50.0,40.0,13.0,0.0
30003,39.0,0.0,90.0,14.0,0.0
30004,46.0,60.0,40.0,13.0,0.0
30005,49.0,0.0,40.0,13.0,0.0
30006,46.0,40.0,40.0,13.0,0.0
30007,51.0,0.0,90.0,12.0,0.0
30008,55.0,10.0,90.0,11.0,0.0
30009,49.0,0.0,40.0,13.0,0.0
30010,27.0,0.0,90.0,3.0,0.0
30011,39.0,10.0,90.0,14.0,0.0
30012,27.0,0.0,90.0,15.0,0.0
30013,49.0,0.0,40.0,13.0,0.0
30014,46.0,60.0,40.0,13.0,0.0
30015,27.0,0.0,90.0,3.0,0.0
30016,55.0,0.0,90.0,11.0,0.0
30017,49.0,0.0,40.0,13.0,0.0
30018,46.0,40.0,40.0,13.0,0.0
30019,51.0,10.0,90.0,12.0,0.0
30020,27.0,0.0,90.0,15.0,0.0
30021,39.0,10.0,90.0,14.0,0.0
30022,49.0,60.0,40.0,13.0,0.0
30023,46.0,0.0,40.0,13.0,0.0
30024,44.0,0.0,60.0,14.0,0.0
30025,68.0,0.0,60.0,11.0,0.0
30026,44.0,0.0,120.0,4.0,0.0
30027,56.0,0.0,120.0,4.0,0.0
30028,56.0,10.0,330.0,3.0,0.0
30029,60.0,0.0,60.0,12.0,0.0
30030,44.0,10.0,40.0,13.0,0.0
30031,80.0,0.0,330.0,0.0,0.0
30032,32.0,0.0,120.0,3.0,0.0
30033,68.0,50.0,120.0,5.0,0.0
30034,32.0,50.0,60.0,15.0,0.0
30035,56.0,0.0,120.0,5.0,0.0
30036,44.0,0.0,120.0,10.0,0.0
30037,60.0,0.0,450.0,2.0,0.0
30038,56.0,0.0,450.0,2.0,0.0
30039,68.0,0.0,330.0,1.0,0.0
30040,48.0,0.0,40.0,13.0,0.0
30041,60.0,0.0,270.0,12.0,0.0
30042,68.0,0.0,270.0,11.0,0.0
30043,44.0,0.0,40.0,13.0,0.0
30044,48.0,10.0,40.0,13.0,0.0
30045,44.0,0.0,60.0,14.0,0.0
30046,32.0,0.0,60.0,15.0,0.0
30047,44.0,60.0,40.0,13.0,0.0
30048,48.0,0.0,40.0,13.0,0.0
30049,48.0,60.0,40.0,13.0,0.0
30050,44.0,0.0,40.0,13.0,0.0
30051,44.0,50.0,40.0,13.0,0.0
30052,48.0,0.0,40.0,13.0,0.0
30053,44.0,60.0,40.0,13.0,0.0
30054,48.0,0.0,40.0,13.0,0.0
30055,79.0,0.0,90.0,0.0,0.0
30056,55.0,10.0,90.0,3.0,0.0
30057,67.0,0.0,90.0,1.0,0.0
30058,44.0,0.0,40.0,13.0,0.0
30059,48.0,50.0,40.0,13.0,0.0
30060,58.0,0.0,90.0,12.0,0.0
30061,67.0,0.0,90.0,11.0,0.0
30062,48.0,60.0,40.0,13.0,0.0
30063,44.0,0.0,40.0,13.0,0.0
30064,58.0,0.0,450.0,2.0,0.0
30065,53.0,0.0,120.0,3.0,0.0
30066,61.0,0.0,450.0,2.0,0.0
30067,77.0,50.0,120.0,0.0,0.0
30068,56.0,0.0,120.0,12.0,0.0
30069,49.0,0.0,40.0,13.0,0.0
30070,46.0,60.0,40.0,13.0,0.0
30071,65.0,0.0,120.0,11.0,0.0
30072,65.0,0.0,120.0,1.0,0.0
30073,49.0,10.0,40.0,13.0,0.0
30074,46.0,0.0,40.0,13.0,0.0
30075,27.0,0.0,90.0,15.0,0.0
30076,27.0,0.0,90.0,3.0,0.0
30077,46.0,0.0,40.0,13.0,0.0
30078,49.0,50.0,40.0,13.0,0.0
30079,63.0,10.0,90.0,1.0,0.0
30080,39.0,0.0,90.0,14.0,0.0
30081,51.0,0.0,90.0,3.0,0.0
30082,63.0,0.0,90.0,11.0,0.0
30083,75.0,0.0,90.0,0.0,0.0
30084,55.0,0.0,90.0,12.0,0.0
30085,49.0,60.0,40.0,13.0,0.0
30086,46.0,0.0,40.0,13.0,0.0
30087,39.0,0.0,90.0,14.0,0.0
30088,51.0,0.0,90.0,3.0,0.0
30089,75.0,0.0,90.0,0.0,0.0
30090,46.0,0.0,40.0,13.0,0.0
30091,27.0,10.0,90.0,15.0,0.0
30092,49.0,40.0,40.0,13.0,0.0
30093,63.0,0.0,90.0,1.0,0.0
30094,27.0,0.0,90.0,3.0,0.0
30095,63.0,0.0,90.0,11.0,0.0
30096,55.0,10.0,90.0,12.0,0.0
30097,46.0,0.0,40.0,13.0,0.0
30098,49.0,60.0,40.0,13.0,0.0
30099,27.0,10.0,90.0,3.0,0.0
30100,39.0,0.0,90.0,14.0,0.0
30101,55.0,0.0,90.0,12.0,0.0
30102,63.0,0.0,90.0,11.0,0.0
30103,63.0,0.0,90.0,1.0,0.0
30104,75.0,0.0,90.0,0.0,0.0
30105,46.0,40.0,40.0,13.0,0.0
30106,49.0,0.0,40.0,13.0,0.0
30107,51.0,10.0,90.0,3.0,0.0
30108,27.0,0.0,90.0,15.0,0.0
30109,49.0,60.0,40.0,13.0,0.0
30110,46.0,0.0,40.0,13.0,0.0
30111,48.0,10.0,40.0,13.0,0.0
30112,44.0,0.0,60.0,14.0,0.0
30113,68.0,0.0,60.0,11.0,0.0
30114,32.0,0.0,60.0,15.0,0.0
30115,44.0,0.0,120.0,10.0,0.0
30116,60.0,0.0,450.0,2.0,0.0
30117,44.0,0.0,120.0,4.0,0.0
30118,32.0,0.0,120.0,3.0,0.0
30119,56.0,10.0,330.0,3.0,0.0
30120,56.0,0.0,120.0,4.0,0.0
30121,44.0,0.0,40.0,13.0,0.0
30122,56.0,0.0,120.0,5.0,0.0
30123,56.0,0.0,450.0,2.0,0.0
30124,80.0,0.0,330.0,0.0,0.0
30125,68.0,0.0,330.0,1.0,0.0
30126,60.0,50.0,60.0,12.0,0.0
30127,68.0,0.0,120.0,5.0,0.0
30128,32.0,50.0,60.0,15.0,0.0
30129,60.0,0.0,270.0,12.0,0.0
30130,44.0,0.0,60.0,14.0,0.0
30131,48.0,0.0,40.0,13.0,0.0
30132,44.0,10.0,40.0,13.0,0.0
30133,68.0,0.0,270.0,11.0,0.0
30134,44.0,0.0,40.0,13.0,0.0
30135,48.0,60.0,40.0,13.0,0.0
30136,44.0,60.0,40.0,13.0,0.0
30137,48.0,0.0,40.0,13.0,0.0
30138,44.0,50.0,40.0,13.0,0.0
30139,48.0,0.0,40.0,13.0,0.0
30140,48.0,0.0,40.0,13.0,0.0
30141,44.0,60.0,40.0,13.0,0.0
30142,44.0,0.0,40.0,13.0,0.0
30143,48.0,50.0,40.0,13.0,0.0
30144,79.0,0.0,90.0,0.0,0.0
30145,67.0,0.0,90.0,1.0,0.0
30146,58.0,10.0,90.0,12.0,0.0
30147,67.0,0.0,90.0,11.0,0.0
30148,55.0,0.0,90.0,3.0,0.0
30149,44.0,0.0,40.0,13.0,0.0
30150,48.0,60.0,40.0,13.0,0.0
30151,53.0,0.0,120.0,3.0,0.0
30152,56.0,0.0,120.0,12.0,0.0
30153,65.0,0.0,120.0,1.0,0.0
30154,58.0,0.0,450.0,2.0,0.0
30155,61.0,0.0,450.0,2.0,0.0
30156,65.0,0.0,120.0,11.0,0.0
30157,46.0,0.0,40.0,13.0,0.0
30158,77.0,50.0,120.0,0.0,0.0
30159,49.0,60.0,40.0,13.0,0.0
30160,49.0,10.0,40.0,13.0,0.0
30161,46.0,0.0,40.0,13.0,0.0
30162,27.0,0.0,90.0,3.0,0.0
30163,49.0,0.0,40.0,13.0,0.0
30164,63.0,0.0,90.0,1.0,0.0
30165,55.0,0.0,90.0,12.0,0.0
30166,63.0,0.0,90.0,11.0,0.0
30167,46.0,50.0,40.0,13.0,0.0
30168,39.0,10.0,90.0,14.0,0.0
30169,51.0,0.0,90.0,3.0,0.0
30170,27.0,0.0,90.0,15.0,0.0
30171,75.0,0.0,90.0,0.0,0.0
30172,49.0,0.0,40.0,13.0,0.0
30173,46.0,60.0,40.0,13.0,0.0
30174,51.0,0.0,90.0,3.0,0.0
30175,49.0,0.0,40.0,13.0,0.0
30176,46.0,40.0,40.0,13.0,0.0
30177,27.0,10.0,90.0,3.0,0.0
30178,27.0,0.0,90.0,15.0,0.0
30179,75.0,0.0,90.0,0.0,0.0
30180,39.0,0.0,90.0,14.0,0.0
30181,63.0,10.0,90.0,1.0,0.0
30182,55.0,0.0,90.0,12.0,0.0
30183,63.0,0.0,90.0,11.0,0.0
30184,46.0,0.0,40.0,13.0,0.0
30185,49.0,60.0,40.0,13.0,0.0
30186,63.0,0.0,90.0,1.0,0.0
30187,63.0,10.0,90.0,11.0,0.0
30188,27.0,0.0,90.0,15.0,0.0
30189,51.0,0.0,90.0,3.0,0.0
30190,49.0,40.0,40.0,13.0,0.0
30191,46.0,0.0,40.0,13.0,0.0
30192,27.0,10.0,90.0,3.0,0.0
30193,55.0,0.0,90.0,12.0,0.0
30194,39.0,0.0,90.0,14.0,0.0
30195,75.0,0.0,90.0,0.0,0.0
30196,46.0,0.0,40.0,13.0,0.0
30197,49.0,60.0,40.0,13.0,0.0
30198,48.0,0.0,40.0,13.0,0.0
30199,44.0,0.0,120.0,10.0,0.0
30200,44.0,10.0,40.0,13.0,0.0
30201,32.0,0.0,60.0,15.0,0.0
30202,56.0,0.0,450.0,2.0,0.0
30203,60.0,0.0,450.0,2.0,0.0
30204,56.0,0.0,120.0,4.0,0.0
30205,72.0,0.0,330.0,1.0,0.0
30206,56.0,0.0,330.0,3.0,0.0
30207,60.0,0.0,330.0,3.0,0.0
30208,68.0,50.0,60.0,12.0,0.0
30209,68.0,0.0,330.0,1.0,0.0
30210,44.0,0.0,120.0,4.0,0.0
30211,44.0,0.0,60.0,14.0,0.0
30212,32.0,0.0,120.0,3.0,0.0
30213,72.0,0.0,60.0,11.0,0.0
30214,80.0,0.0,330.0,0.0,0.0
30215,56.0,0.0,120.0,5.0,0.0
30216,68.0,50.0,120.0,5.0,0.0
30217,84.0,10.0,330.0,0.0,0.0
30218,72.0,0.0,270.0,11.0,0.0
30219,44.0,0.0,60.0,14.0,0.0
30220,32.0,0.0,60.0,15.0,0.0
30221,68.0,0.0,270.0,12.0,0.0
30222,44.0,10.0,40.0,13.0,0.0
30223,48.0,0.0,40.0,13.0,0.0
30224,48.0,0.0,40.0,13.0,0.0
30225,44.0,60.0,40.0,13.0,0.0
30226,48.0,60.0,40.0,13.0,0.0
30227,44.0,0.0,40.0,13.0,0.0
30228,48.0,50.0,40.0,13.0,0.0
30229,44.0,0.0,40.0,13.0,0.0
30230,44.0,0.0,40.0,13.0,0.0
30231,48.0,60.0,40.0,13.0,0.0
30232,67.0,0.0,90.0,1.0,0.0
30233,70.0,10.0,90.0,1.0,0.0
30234,70.0,0.0,90.0,11.0,0.0
30235,82.0,0.0,90.0,0.0,0.0
30236,79.0,0.0,90.0,0.0,0.0
30237,55.0,0.0,90.0,3.0,0.0
30238,58.0,0.0,90.0,3.0,0.0
30239,67.0,0.0,90.0,12.0,0.0
30240,48.0,50.0,40.0,13.0,0.0
30241,44.0,0.0,40.0,13.0,0.0
30242,48.0,0.0,40.0,13.0,0.0
30243,44.0,60.0,40.0,13.0,0.0
30244,65.0,0.0,120.0,12.0,0.0
30245,80.0,50.0,120.0,0.0,0.0
30246,46.0,60.0,40.0,13.0,0.0
30247,56.0,0.0,120.0,3.0,0.0
30248,58.0,0.0,450.0,2.0,0.0
30249,61.0,0.0,450.0,2.0,0.0
30250,68.0,0.0,120.0,11.0,0.0
30251,77.0,0.0,120.0,0.0,0.0
30252,68.0,0.0,120.0,1.0,0.0
30253,65.0,0.0,120.0,1.0,0.0
30254,49.0,0.0,40.0,13.0,0.0
30255,53.0,0.0,120.0,3.0,0.0
30256,49.0,10.0,40.0,13.0,0.0
30257,46.0,0.0,40.0,13.0,0.0
30258,63.0,0.0,90.0,12.0,0.0
30259,63.0,0.0,90.0,1.0,0.0
30260,67.0,0.0,90.0,1.0,0.0
30261,67.0,0.0,90.0,11.0,0.0
30262,58.0,0.0,90.0,4.0,0.0
30263,51.0,0.0,90.0,4.0,0.0
30264,39.0,0.0,90.0,14.0,0.0
30265,27.0,0.0,90.0,15.0,0.0
30266,27.0,10.0,90.0,3.0,0.0
30267,79.0,0.0,90.0,0.0,0.0
30268,49.0,0.0,40.0,13.0,0.0
30269,46.0,50.0,40.0,13.0,0.0
30270,75.0,0.0,90.0,0.0,0.0
30271,55.0,0.0,90.0,3.0,0.0
30272,51.0,0.0,90.0,3.0,0.0
30273,49.0,0.0,40.0,13.0,0.0
30274,46.0,60.0,40.0,13.0,0.0
30275,27.0,0.0,90.0,3.0,0.0
30276,67.0,10.0,90.0,1.0,0.0
30277,63.0,0.0,90.0,1.0,0.0
30278,49.0,0.0,40.0,13.0,0.0
30279,39.0,10.0,90.0,14.0,0.0
30280,63.0,0.0,90.0,12.0,0.0
30281,75.0,0.0,90.0,0.0,0.0
30282,79.0,0.0,90.0,0.0,0.0
30283,46.0,40.0,40.0,13.0,0.0
30284,55.0,0.0,90.0,3.0,0.0
30285,51.0,0.0,90.0,4.0,0.0
30286,58.0,0.0,90.0,4.0,0.0
30287,27.0,0.0,90.0,15.0,0.0
30288,67.0,0.0,90.0,11.0,0.0
30289,51.0,0.0,90.0,3.0,0.0
30290,49.0,0.0,40.0,13.0,0.0
30291,46.0,60.0,40.0,13.0,0.0
30292,58.0,0.0,90.0,4.0,0.0
30293,51.0,0.0,90.0,4.0,0.0
30294,49.0,40.0,40.0,13.0,0.0
30295,67.0,0.0,90.0,1.0,0.0
30296,63.0,0.0,90.0,1.0,0.0
30297,46.0,0.0,40.0,13.0,0.0
30298,39.0,0.0,90.0,14.0,0.0
30299,27.0,0.0,90.0,3.0,0.0
30300,55.0,0.0,90.0,3.0,0.0
30301,63.0,0.0,90.0,12.0,0.0
30302,75.0,0.0,90.0,0.0,0.0
30303,79.0,10.0,90.0,0.0,0.0
30304,67.0,0.0,90.0,11.0,0.0
30305,27.0,10.0,90.0,15.0,0.0
30306,51.0,0.0,90.0,3.0,0.0
30307,46.0,0.0,40.0,13.0,0.0
30308,49.0,60.0,40.0,13.0,0.0
30309,68.0,0.0,330.0,1.0,0.0
30310,56.0,10.0,330.0,3.0,0.0
30311,72.0,0.0,330.0,1.0,0.0
30312,60.0,0.0,330.0,3.0,0.0
30313,48.0,0.0,40.0,13.0,0.0
30314,44.0,10.0,40.0,13.0,0.0
30315,68.0,50.0,60.0,12.0,0.0
30316,44.0,0.0,120.0,4.0,0.0
30317,60.0,0.0,450.0,2.0,0.0
30318,44.0,0.0,60.0,14.0,0.0
30319,56.0,0.0,120.0,4.0,0.0
30320,84.0,0.0,330.0,0.0,0.0
30321,56.0,0.0,450.0,2.0,0.0
30322,68.0,0.0,120.0,5.0,0.0
30323,56.0,50.0,120.0,5.0,0.0
30324,32.0,0.0,120.0,3.0,0.0
30325,32.0,0.0,60.0,15.0,0.0
30326,72.0,0.0,60.0,11.0,0.0
30327,44.0,0.0,120.0,10.0,0.0
30328,80.0,0.0,330.0,0.0,0.0
30329,72.0,0.0,270.0,11.0,0.0
30330,44.0,0.0,60.0,14.0,0.0
30331,44.0,0.0,40.0,13.0,0.0
30332,48.0,10.0,40.0,13.0,0.0
30333,32.0,0.0,60.0,15.0,0.0
30334,68.0,0.0,270.0,12.0,0.0
30335,48.0,60.0,40.0,13.0,0.0
30336,44.0,0.0,40.0,13.0,0.0
30337,44.0,0.0,40.0,13.0,0.0
30338,48.0,60.0,40.0,13.0,0.0
30339,44.0,50.0,40.0,13.0,0.0
30340,48.0,0.0,40.0,13.0,0.0
30341,44.0,0.0,40.0,13.0,0.0
30342,48.0,60.0,40.0,13.0,0.0
30343,44.0,0.0,40.0,13.0,0.0
30344,48.0,50.0,40.0,13.0,0.0
30345,67.0,0.0,90.0,12.0,0.0
30346,70.0,0.0,90.0,11.0,0.0
30347,67.0,10.0,90.0,1.0,0.0
30348,70.0,0.0,90.0,1.0,0.0
30349,55.0,0.0,90.0,3.0,0.0
30350,79.0,0.0,90.0,0.0,0.0
30351,82.0,0.0,90.0,0.0,0.0
30352,58.0,0.0,90.0,3.0,0.0
30353,44.0,60.0,40.0,13.0,0.0
30354,48.0,0.0,40.0,13.0,0.0
30355,68.0,0.0,120.0,11.0,0.0
30356,53.0,0.0,120.0,3.0,0.0
30357,56.0,50.0,120.0,3.0,0.0
30358,58.0,0.0,450.0,2.0,0.0
30359,61.0,0.0,450.0,2.0,0.0
30360,68.0,0.0,120.0,1.0,0.0
30361,65.0,0.0,120.0,12.0,0.0
30362,65.0,0.0,120.0,1.0,0.0
30363,77.0,0.0,120.0,0.0,0.0
30364,80.0,0.0,120.0,0.0,0.0
30365,46.0,60.0,40.0,13.0,0.0
30366,49.0,0.0,40.0,13.0,0.0
30367,49.0,10.0,40.0,13.0,0.0
30368,46.0,0.0,40.0,13.0,0.0
30369,27.0,0.0,90.0,15.0,0.0
30370,55.0,0.0,90.0,3.0,0.0
30371,51.0,0.0,90.0,4.0,0.0
30372,75.0,0.0,90.0,0.0,0.0
30373,63.0,0.0,90.0,12.0,0.0
30374,51.0,0.0,90.0,3.0,0.0
30375,27.0,0.0,90.0,3.0,0.0
30376,79.0,0.0,90.0,0.0,0.0
30377,58.0,0.0,90.0,4.0,0.0
30378,39.0,0.0,90.0,14.0,0.0
30379,67.0,10.0,90.0,11.0,0.0
30380,63.0,0.0,90.0,1.0,0.0
30381,67.0,0.0,90.0,1.0,0.0
30382,46.0,50.0,40.0,13.0,0.0
30383,49.0,0.0,40.0,13.0,0.0
30384,49.0,60.0,40.0,13.0,0.0
30385,46.0,0.0,40.0,13.0,0.0
30386,51.0,0.0,90.0,3.0,0.0
30387,55.0,10.0,90.0,3.0,0.0
30388,63.0,0.0,90.0,12.0,0.0
30389,39.0,0.0,90.0,14.0,0.0
30390,27.0,10.0,90.0,3.0,0.0
30391,67.0,0.0,90.0,11.0,0.0
30392,27.0,0.0,90.0,15.0,0.0
30393,79.0,0.0,90.0,0.0,0.0
30394,63.0,0.0,90.0,1.0,0.0
30395,58.0,0.0,90.0,4.0,0.0
30396,51.0,0.0,90.0,4.0,0.0
30397,75.0,0.0,90.0,0.0,0.0
30398,67.0,0.0,90.0,1.0,0.0
30399,46.0,40.0,40.0,13.0,0.0
30400,49.0,0.0,40.0,13.0,0.0
30401,49.0,0.0,40.0,13.0,0.0
30402,46.0,60.0,40.0,13.0,0.0
30403,27.0,10.0,90.0,3.0,0.0
30404,79.0,0.0,90.0,0.0,0.0
30405,75.0,10.0,90.0,0.0,0.0
30406,58.0,0.0,90.0,4.0,0.0
30407,51.0,0.0,90.0,3.0,0.0
30408,55.0,0.0,90.0,3.0,0.0
30409,39.0,0.0,90.0,14.0,0.0
30410,67.0,0.0,90.0,11.0,0.0
30411,67.0,0.0,90.0,1.0,0.0
30412,63.0,0.0,90.0,1.0,0.0
30413,27.0,0.0,90.0,15.0,0.0
30414,49.0,0.0,40.0,13.0,0.0
30415,46.0,40.0,40.0,13.0,0.0
30416,63.0,0.0,90.0,12.0,0.0
30417,51.0,0.0,90.0,4.0,0.0
30418,49.0,130.0,40.0,13.0,0.0
30419,46.0,0.0,40.0,13.0,0.0
30420,54.0,0.0,120.0,14.0,0.0
30421,42.0,0.0,120.0,3.0,0.0
30422,44.0,0.0,120.0,10.0,0.0
30423,60.0,0.0,120.0,13.0,0.0
30424,68.0,0.0,120.0,12.0,0.0
30425,60.0,0.0,120.0,3.0,0.0
30426,56.0,0.0,120.0,3.0,0.0
30427,68.0,0.0,120.0,1.0,0.0
30428,72.0,240.0,120.0,1.0,0.0
30429,42.0,0.0,120.0,15.0,0.0
30430,60.0,0.0,120.0,2.0,0.0
30431,75.0,0.0,120.0,11.0,0.0
30432,56.0,0.0,120.0,2.0,0.0
30433,48.0,0.0,120.0,4.0,0.0
30434,68.0,0.0,120.0,5.0,0.0
30435,56.0,0.0,120.0,4.0,0.0
30436,80.0,0.0,120.0,0.0,0.0
30437,84.0,0.0,120.0,0.0,0.0
30438,56.0,0.0,120.0,5.0,0.0
30439,54.0,0.0,120.0,14.0,0.0
30440,63.0,0.0,120.0,3.0,0.0
30441,42.0,0.0,120.0,3.0,0.0
30442,56.0,0.0,120.0,5.0,0.0
30443,75.0,0.0,120.0,1.0,0.0
30444,68.0,0.0,120.0,1.0,0.0
30445,68.0,0.0,120.0,5.0,0.0
30446,54.0,0.0,120.0,3.0,0.0
30447,60.0,0.0,120.0,2.0,0.0
30448,68.0,0.0,120.0,12.0,0.0
30449,87.0,0.0,120.0,0.0,0.0
30450,60.0,0.0,120.0,13.0,0.0
30451,80.0,240.0,120.0,0.0,0.0
30452,42.0,0.0,120.0,15.0,0.0
30453,44.0,0.0,120.0,4.0,0.0
30454,68.0,0.0,120.0,2.0,0.0
30455,44.0,0.0,120.0,10.0,0.0
30456,75.0,0.0,120.0,11.0,0.0
30457,56.0,0.0,120.0,4.0,0.0
30458,68.0,0.0,120.0,2.0,0.0
30459,60.0,0.0,120.0,2.0,0.0
30460,63.0,0.0,120.0,3.0,0.0
30461,56.0,0.0,120.0,13.0,0.0
30462,52.0,0.0,120.0,14.0,0.0
30463,44.0,0.0,120.0,10.0,0.0
30464,40.0,0.0,120.0,3.0,0.0
30465,68.0,0.0,120.0,12.0,0.0
30466,52.0,0.0,120.0,3.0,0.0
30467,68.0,0.0,120.0,5.0,0.0
30468,40.0,0.0,120.0,15.0,0.0
30469,75.0,0.0,120.0,11.0,0.0
30470,75.0,240.0,120.0,1.0,0.0
30471,68.0,0.0,120.0,1.0,0.0
30472,56.0,0.0,120.0,5.0,0.0
30473,87.0,0.0,120.0,0.0,0.0
30474,80.0,0.0,120.0,0.0,0.0
30475,44.0,0.0,120.0,4.0,0.0
30476,56.0,0.0,120.0,4.0,0.0
30477,52.0,240.0,120.0,3.0,0.0
30478,68.0,0.0,120.0,12.0,0.0
30479,61.0,0.0,120.0,2.0,0.0
30480,56.0,0.0,120.0,5.0,0.0
30481,52.0,0.0,120.0,14.0,0.0
30482,40.0,0.0,120.0,15.0,0.0
30483,44.0,0.0,120.0,4.0,0.0
30484,68.0,0.0,120.0,5.0,0.0
30485,85.0,0.0,120.0,0.0,0.0
30486,68.0,0.0,120.0,1.0,0.0
30487,40.0,0.0,120.0,3.0,0.0
30488,80.0,0.0,120.0,0.0,0.0
30489,56.0,0.0,120.0,13.0,0.0
30490,73.0,0.0,120.0,11.0,0.0
30491,73.0,0.0,120.0,1.0,0.0
30492,44.0,0.0,120.0,10.0,0.0
30493,61.0,0.0,120.0,3.0,0.0
30494,56.0,0.0,120.0,4.0,0.0
30495,68.0,0.0,120.0,2.0,0.0
30496,58.0,0.0,120.0,2.0,0.0
30497,67.0,0.0,120.0,2.0,0.0
30498,55.0,0.0,120.0,3.0,0.0
30499,85.0,0.0,120.0,0.0,0.0
30500,51.0,0.0,120.0,14.0,0.0
30501,58.0,0.0,120.0,13.0,0.0
30502,63.0,0.0,120.0,5.0,0.0
30503,39.0,0.0,120.0,3.0,0.0
30504,79.0,0.0,120.0,0.0,0.0
30505,58.0,0.0,120.0,4.0,0.0
30506,51.0,0.0,120.0,4.0,0.0
30507,67.0,0.0,120.0,12.0,0.0
30508,73.0,0.0,120.0,11.0,0.0
30509,61.0,0.0,120.0,3.0,0.0
30510,51.0,0.0,120.0,5.0,0.0
30511,39.0,0.0,120.0,15.0,0.0
30512,73.0,0.0,120.0,1.0,0.0
30513,67.0,0.0,120.0,1.0,0.0
30514,39.0,240.0,120.0,10.0,0.0
30515,39.0,0.0,120.0,3.0,0.0
30516,60.0,0.0,120.0,4.0,0.0
30517,56.0,0.0,120.0,4.0,0.0
30518,60.0,0.0,120.0,13.0,0.0
30519,72.0,0.0,120.0,11.0,0.0
30520,68.0,0.0,120.0,1.0,0.0
30521,72.0,0.0,120.0,1.0,0.0
30522,51.0,240.0,120.0,14.0,0.0
30523,68.0,0.0,120.0,12.0,0.0
30524,60.0,0.0,120.0,3.0,0.0
30525,39.0,0.0,120.0,10.0,0.0
30526,60.0,0.0,120.0,2.0,0.0
30527,56.0,0.0,120.0,3.0,0.0
30528,63.0,0.0,120.0,5.0,0.0
30529,51.0,0.0,120.0,5.0,0.0
30530,84.0,0.0,120.0,0.0,0.0
30531,39.0,0.0,120.0,15.0,0.0
30532,68.0,0.0,120.0,2.0,0.0
30533,80.0,0.0,120.0,0.0,0.0
30534,61.0,0.0,120.0,13.0,0.0
30535,39.0,0.0,120.0,15.0,0.0
30536,58.0,0.0,120.0,2.0,0.0
30537,67.0,0.0,120.0,2.0,0.0
30538,51.0,0.0,120.0,14.0,0.0
30539,39.0,0.0,120.0,3.0,0.0
30540,63.0,0.0,120.0,5.0,0.0
30541,58.0,0.0,120.0,3.0,0.0
30542,82.0,0.0,120.0,0.0,0.0
30543,58.0,0.0,120.0,4.0,0.0
30544,70.0,0.0,120.0,1.0,0.0
30545,67.0,0.0,120.0,1.0,0.0
30546,55.0,0.0,120.0,3.0,0.0
30547,67.0,0.0,120.0,12.0,0.0
30548,79.0,0.0,120.0,0.0,0.0
30549,70.0,0.0,120.0,11.0,0.0
30550,51.0,240.0,120.0,5.0,0.0
30551,39.0,0.0,120.0,10.0,0.0
30552,51.0,0.0,120.0,4.0,0.0
30553,42.0,0.0,120.0,15.0,0.0
30554,68.0,0.0,120.0,5.0,0.0
30555,68.0,0.0,120.0,1.0,0.0
30556,80.0,0.0,120.0,0.0,0.0
30557,87.0,0.0,120.0,0.0,0.0
30558,75.0,0.0,120.0,1.0,0.0
30559,68.0,0.0,120.0,12.0,0.0
30560,56.0,0.0,120.0,5.0,0.0
30561,48.0,0.0,120.0,4.0,0.0
30562,56.0,0.0,120.0,4.0,0.0
30563,44.0,170.0,120.0,10.0,0.0
30564,54.0,0.0,120.0,14.0,0.0
30565,63.0,0.0,120.0,3.0,0.0
30566,75.0,0.0,120.0,11.0,0.0
30567,60.0,0.0,120.0,2.0,0.0
30568,60.0,0.0,120.0,13.0,0.0
30569,54.0,0.0,120.0,3.0,0.0
30570,42.0,0.0,120.0,3.0,0.0
30571,68.0,0.0,120.0,2.0,0.0
30572,44.0,0.0,120.0,10.0,0.0
30573,87.0,0.0,120.0,0.0,0.0
30574,68.0,60.0,40.0,12.0,0.0
30575,54.0,0.0,120.0,14.0,0.0
30576,75.0,0.0,120.0,1.0,0.0
30577,80.0,0.0,120.0,0.0,0.0
30578,68.0,0.0,120.0,2.0,0.0
30579,42.0,0.0,120.0,3.0,0.0
30580,60.0,0.0,120.0,2.0,0.0
30581,68.0,0.0,120.0,1.0,0.0
30582,63.0,0.0,120.0,3.0,0.0
30583,54.0,0.0,120.0,3.0,0.0
30584,56.0,100.0,120.0,4.0,0.0
30585,48.0,0.0,120.0,4.0,0.0
30586,56.0,0.0,120.0,5.0,0.0
30587,68.0,0.0,120.0,5.0,0.0
30588,60.0,0.0,40.0,13.0,0.0
30589,42.0,0.0,120.0,15.0,0.0
30590,75.0,0.0,120.0,11.0,0.0
30591,60.0,0.0,40.0,13.0,0.0
30592,68.0,10.0,40.0,12.0,0.0
30593,68.0,0.0,90.0,12.0,0.0
30594,60.0,70.0,90.0,13.0,0.0
30595,54.0,0.0,120.0,14.0,0.0
30596,68.0,0.0,40.0,12.0,0.0
30597,60.0,0.0,120.0,2.0,0.0
30598,68.0,0.0,120.0,2.0,0.0
30599,60.0,60.0,40.0,13.0,0.0
30600,44.0,0.0,120.0,10.0,0.0
30601,56.0,0.0,120.0,4.0,0.0
30602,80.0,0.0,120.0,0.0,0.0
30603,63.0,0.0,120.0,3.0,0.0
30604,54.0,0.0,120.0,3.0,0.0
30605,68.0,100.0,120.0,1.0,0.0
30606,75.0,0.0,120.0,1.0,0.0
30607,87.0,0.0,120.0,0.0,0.0
30608,75.0,0.0,120.0,11.0,0.0
30609,42.0,0.0,120.0,15.0,0.0
30610,42.0,0.0,120.0,3.0,0.0
30611,48.0,0.0,120.0,4.0,0.0
30612,68.0,0.0,120.0,5.0,0.0
30613,56.0,0.0,120.0,5.0,0.0
30614,68.0,10.0,40.0,12.0,0.0
30615,60.0,0.0,40.0,13.0,0.0
30616,60.0,70.0,90.0,13.0,0.0
30617,68.0,0.0,90.0,12.0,0.0
30618,40.0,0.0,120.0,3.0,0.0
30619,56.0,0.0,120.0,4.0,0.0
30620,44.0,100.0,120.0,4.0,0.0
30621,68.0,0.0,120.0,2.0,0.0
30622,44.0,0.0,120.0,10.0,0.0
30623,68.0,0.0,120.0,1.0,0.0
30624,52.0,0.0,120.0,3.0,0.0
30625,63.0,0.0,120.0,3.0,0.0
30626,75.0,0.0,120.0,11.0,0.0
30627,68.0,60.0,40.0,12.0,0.0
30628,68.0,0.0,120.0,5.0,0.0
30629,40.0,0.0,120.0,15.0,0.0
30630,75.0,0.0,120.0,1.0,0.0
30631,56.0,0.0,120.0,2.0,0.0
30632,87.0,0.0,120.0,0.0,0.0
30633,52.0,0.0,120.0,14.0,0.0
30634,80.0,0.0,120.0,0.0,0.0
30635,56.0,0.0,120.0,5.0,0.0
30636,61.0,0.0,40.0,13.0,0.0
30637,61.0,10.0,40.0,13.0,0.0
30638,68.0,0.0,40.0,12.0,0.0
30639,68.0,0.0,90.0,12.0,0.0
30640,61.0,70.0,90.0,13.0,0.0
30641,68.0,0.0,120.0,1.0,0.0
30642,73.0,0.0,120.0,1.0,0.0
30643,61.0,0.0,120.0,3.0,0.0
30644,52.0,100.0,120.0,3.0,0.0
30645,73.0,0.0,120.0,11.0,0.0
30646,61.0,60.0,40.0,13.0,0.0
30647,52.0,0.0,120.0,14.0,0.0
30648,56.0,0.0,120.0,4.0,0.0
30649,44.0,0.0,120.0,4.0,0.0
30650,40.0,0.0,120.0,15.0,0.0
30651,40.0,0.0,120.0,3.0,0.0
30652,68.0,0.0,120.0,5.0,0.0
30653,68.0,0.0,120.0,2.0,0.0
30654,85.0,0.0,120.0,0.0,0.0
30655,44.0,0.0,120.0,10.0,0.0
30656,80.0,0.0,120.0,0.0,0.0
30657,68.0,0.0,40.0,12.0,0.0
30658,56.0,0.0,120.0,5.0,0.0
30659,68.0,0.0,40.0,12.0,0.0
30660,61.0,10.0,40.0,13.0,0.0
30661,61.0,0.0,90.0,13.0,0.0
30662,68.0,70.0,90.0,12.0,0.0
30663,58.0,0.0,40.0,13.0,0.0
30664,73.0,0.0,120.0,1.0,0.0
30665,58.0,0.0,120.0,4.0,0.0
30666,67.0,60.0,40.0,12.0,0.0
30667,58.0,100.0,120.0,2.0,0.0
30668,67.0,0.0,120.0,2.0,0.0
30669,51.0,0.0,120.0,4.0,0.0
30670,79.0,0.0,120.0,0.0,0.0
30671,85.0,0.0,120.0,0.0,0.0
30672,39.0,0.0,120.0,3.0,0.0
30673,61.0,0.0,120.0,3.0,0.0
30674,67.0,0.0,120.0,1.0,0.0
30675,51.0,0.0,120.0,14.0,0.0
30676,55.0,0.0,120.0,3.0,0.0
30677,39.0,0.0,120.0,10.0,0.0
30678,73.0,0.0,120.0,11.0,0.0
30679,39.0,0.0,120.0,15.0,0.0
30680,63.0,0.0,120.0,5.0,0.0
30681,51.0,0.0,120.0,5.0,0.0
30682,58.0,0.0,40.0,13.0,0.0
30683,67.0,10.0,40.0,12.0,0.0
30684,58.0,0.0,90.0,13.0,0.0
30685,67.0,70.0,90.0,12.0,0.0
30686,68.0,0.0,120.0,2.0,0.0
30687,39.0,0.0,120.0,10.0,0.0
30688,39.0,0.0,120.0,15.0,0.0
30689,56.0,0.0,120.0,3.0,0.0
30690,60.0,0.0,120.0,3.0,0.0
30691,60.0,0.0,120.0,2.0,0.0
30692,39.0,0.0,120.0,3.0,0.0
30693,68.0,0.0,120.0,1.0,0.0
30694,51.0,0.0,120.0,5.0,0.0
30695,84.0,0.0,120.0,0.0,0.0
30696,80.0,0.0,120.0,0.0,0.0
30697,56.0,0.0,120.0,4.0,0.0
30698,60.0,0.0,120.0,4.0,0.0
30699,51.0,100.0,120.0,14.0,0.0
30700,72.0,0.0,120.0,1.0,0.0
30701,60.0,0.0,40.0,13.0,0.0
30702,63.0,0.0,120.0,5.0,0.0
30703,68.0,60.0,40.0,12.0,0.0
30704,72.0,0.0,120.0,11.0,0.0
30705,60.0,0.0,40.0,13.0,0.0
30706,68.0,10.0,40.0,12.0,0.0
30707,60.0,0.0,90.0,13.0,0.0
30708,68.0,70.0,90.0,12.0,0.0
30709,39.0,0.0,120.0,3.0,0.0
30710,67.0,0.0,120.0,2.0,0.0
30711,61.0,60.0,40.0,13.0,0.0
30712,63.0,0.0,120.0,5.0,0.0
30713,82.0,0.0,120.0,0.0,0.0
30714,58.0,0.0,120.0,3.0,0.0
30715,67.0,100.0,120.0,1.0,0.0
30716,70.0,0.0,120.0,1.0,0.0
30717,79.0,0.0,120.0,0.0,0.0
30718,51.0,0.0,120.0,5.0,0.0
30719,55.0,0.0,120.0,3.0,0.0
30720,67.0,0.0,40.0,12.0,0.0
30721,51.0,0.0,120.0,14.0,0.0
30722,51.0,0.0,120.0,4.0,0.0
30723,39.0,0.0,120.0,15.0,0.0
30724,58.0,0.0,120.0,4.0,0.0
30725,39.0,0.0,120.0,10.0,0.0
30726,58.0,0.0,120.0,2.0,0.0
30727,70.0,0.0,120.0,11.0,0.0
30728,67.0,10.0,40.0,12.0,0.0
30729,61.0,0.0,40.0,13.0,0.0
30730,67.0,70.0,90.0,12.0,0.0
30731,61.0,0.0,90.0,13.0,0.0
30732,75.0,0.0,90.0,1.0,0.0
30733,42.0,0.0,90.0,15.0,0.0
30734,68.0,0.0,90.0,1.0,0.0
30735,56.0,0.0,90.0,5.0,0.0
30736,60.0,50.0,40.0,13.0,0.0
30737,68.0,0.0,40.0,12.0,0.0
30738,75.0,0.0,40.0,11.0,0.0
30739,68.0,0.0,90.0,5.0,0.0
30740,54.0,0.0,90.0,3.0,0.0
30741,42.0,0.0,90.0,3.0,0.0
30742,44.0,50.0,120.0,10.0,0.0
30743,54.0,0.0,90.0,14.0,0.0
30744,68.0,0.0,90.0,2.0,0.0
30745,60.0,0.0,90.0,2.0,0.0
30746,87.0,0.0,90.0,0.0,0.0
30747,80.0,0.0,90.0,0.0,0.0
30748,56.0,10.0,90.0,4.0,0.0
30749,48.0,0.0,90.0,4.0,0.0
30750,63.0,0.0,90.0,3.0,0.0
30751,60.0,0.0,40.0,13.0,0.0
30752,68.0,10.0,40.0,12.0,0.0
30753,75.0,0.0,40.0,11.0,0.0
30754,54.0,0.0,90.0,14.0,0.0
30755,75.0,0.0,40.0,11.0,0.0
30756,42.0,0.0,90.0,3.0,0.0
30757,63.0,0.0,90.0,3.0,0.0
30758,68.0,0.0,90.0,1.0,0.0
30759,44.0,50.0,120.0,10.0,0.0
30760,42.0,0.0,90.0,15.0,0.0
30761,54.0,0.0,90.0,3.0,0.0
30762,75.0,0.0,90.0,1.0,0.0
30763,68.0,0.0,40.0,12.0,0.0
30764,48.0,0.0,90.0,4.0,0.0
30765,56.0,10.0,90.0,4.0,0.0
30766,68.0,0.0,90.0,5.0,0.0
30767,60.0,0.0,90.0,2.0,0.0
30768,68.0,0.0,90.0,2.0,0.0
30769,56.0,0.0,90.0,5.0,0.0
30770,80.0,0.0,90.0,0.0,0.0
30771,87.0,0.0,90.0,0.0,0.0
30772,60.0,50.0,40.0,13.0,0.0
30773,68.0,0.0,40.0,12.0,0.0
30774,75.0,10.0,40.0,11.0,0.0
30775,60.0,0.0,40.0,13.0,0.0
30776,63.0,10.0,90.0,3.0,0.0
30777,68.0,0.0,90.0,5.0,0.0
30778,56.0,0.0,90.0,5.0,0.0
30779,54.0,0.0,90.0,3.0,0.0
30780,44.0,50.0,120.0,10.0,0.0
30781,44.0,0.0,90.0,4.0,0.0
30782,42.0,0.0,90.0,15.0,0.0
30783,56.0,0.0,90.0,4.0,0.0
30784,60.0,50.0,40.0,13.0,0.0
30785,87.0,0.0,90.0,0.0,0.0
30786,75.0,0.0,40.0,11.0,0.0
30787,80.0,0.0,90.0,0.0,0.0
30788,68.0,0.0,90.0,2.0,0.0
30789,54.0,0.0,90.0,14.0,0.0
30790,42.0,0.0,90.0,3.0,0.0
30791,60.0,0.0,90.0,2.0,0.0
30792,63.0,0.0,690.0,7.0,0.0
30793,68.0,0.0,40.0,12.0,0.0
30794,54.0,0.0,450.0,8.0,0.0
30795,72.0,0.0,90.0,1.0,0.0
30796,75.0,0.0,90.0,1.0,0.0
30797,68.0,10.0,40.0,12.0,0.0
30798,75.0,0.0,40.0,11.0,0.0
30799,60.0,0.0,40.0,13.0,0.0
30800,75.0,0.0,90.0,1.0,0.0
30801,68.0,0.0,40.0,12.0,0.0
30802,72.0,0.0,90.0,1.0,0.0
30803,54.0,0.0,90.0,3.0,0.0
30804,75.0,50.0,40.0,11.0,0.0
30805,44.0,0.0,90.0,4.0,0.0
30806,56.0,10.0,90.0,4.0,0.0
30807,60.0,0.0,40.0,13.0,0.0
30808,56.0,0.0,90.0,5.0,0.0
30809,68.0,0.0,90.0,5.0,0.0
30810,63.0,0.0,90.0,3.0,0.0
30811,44.0,50.0,120.0,10.0,0.0
30812,54.0,0.0,90.0,14.0,0.0
30813,87.0,0.0,90.0,0.0,0.0
30814,60.0,0.0,90.0,2.0,0.0
30815,80.0,0.0,90.0,0.0,0.0
30816,68.0,0.0,90.0,2.0,0.0
30817,42.0,0.0,90.0,3.0,0.0
30818,42.0,0.0,90.0,15.0,0.0
30819,68.0,0.0,40.0,12.0,0.0
30820,75.0,0.0,40.0,11.0,0.0
30821,60.0,10.0,40.0,13.0,0.0
30822,80.0,0.0,90.0,0.0,0.0
30823,87.0,0.0,90.0,0.0,0.0
30824,68.0,0.0,90.0,2.0,0.0
30825,60.0,0.0,90.0,2.0,0.0
30826,63.0,10.0,90.0,3.0,0.0
30827,54.0,0.0,90.0,3.0,0.0
30828,54.0,0.0,90.0,14.0,0.0
30829,68.0,0.0,90.0,5.0,0.0
30830,75.0,50.0,40.0,11.0,0.0
30831,44.0,0.0,90.0,4.0,0.0
30832,56.0,0.0,90.0,5.0,0.0
30833,75.0,0.0,90.0,1.0,0.0
30834,72.0,0.0,90.0,1.0,0.0
30835,42.0,0.0,90.0,15.0,0.0
30836,60.0,0.0,40.0,13.0,0.0
30837,68.0,0.0,40.0,12.0,0.0
30838,42.0,0.0,90.0,3.0,0.0
30839,44.0,50.0,120.0,10.0,0.0
30840,56.0,0.0,90.0,4.0,0.0
30841,75.0,0.0,40.0,11.0,0.0
30842,60.0,10.0,40.0,13.0,0.0
30843,68.0,0.0,40.0,12.0,0.0
30844,54.0,0.0,90.0,14.0,0.0
30845,56.0,0.0,90.0,5.0,0.0
30846,42.0,0.0,90.0,15.0,0.0
30847,56.0,0.0,90.0,4.0,0.0
30848,44.0,0.0,90.0,4.0,0.0
30849,44.0,50.0,120.0,10.0,0.0
30850,68.0,0.0,40.0,12.0,0.0
30851,72.0,0.0,90.0,1.0,0.0
30852,75.0,0.0,90.0,1.0,0.0
30853,42.0,0.0,90.0,3.0,0.0
30854,54.0,0.0,90.0,3.0,0.0
30855,75.0,0.0,40.0,11.0,0.0
30856,87.0,0.0,90.0,0.0,0.0
30857,80.0,0.0,90.0,0.0,0.0
30858,68.0,10.0,90.0,5.0,0.0
30859,68.0,0.0,90.0,2.0,0.0
30860,60.0,50.0,40.0,13.0,0.0
30861,63.0,0.0,90.0,3.0,0.0
30862,60.0,0.0,90.0,2.0,0.0
30863,60.0,0.0,40.0,13.0,0.0
30864,75.0,10.0,40.0,11.0,0.0
30865,68.0,0.0,40.0,12.0,0.0
30866,68.0,0.0,450.0,6.0,0.0
30867,68.0,0.0,90.0,2.0,0.0
30868,56.0,0.0,90.0,5.0,0.0
30869,68.0,10.0,90.0,1.0,0.0
30870,56.0,0.0,90.0,4.0,0.0
30871,75.0,0.0,90.0,1.0,0.0
30872,75.0,50.0,40.0,11.0,0.0
30873,40.0,0.0,90.0,3.0,0.0
30874,44.0,0.0,90.0,4.0,0.0
30875,68.0,0.0,90.0,5.0,0.0
30876,56.0,0.0,90.0,2.0,0.0
30877,68.0,0.0,40.0,12.0,0.0
30878,40.0,0.0,90.0,15.0,0.0
30879,61.0,0.0,40.0,13.0,0.0
30880,52.0,0.0,90.0,14.0,0.0
30881,87.0,0.0,90.0,0.0,0.0
30882,80.0,0.0,90.0,0.0,0.0
30883,44.0,50.0,120.0,10.0,0.0
30884,63.0,0.0,90.0,3.0,0.0
30885,52.0,0.0,450.0,8.0,0.0
30886,52.0,0.0,90.0,3.0,0.0
30887,68.0,10.0,40.0,12.0,0.0
30888,61.0,0.0,40.0,13.0,0.0
30889,75.0,0.0,40.0,11.0,0.0
30890,61.0,50.0,40.0,13.0,0.0
30891,52.0,0.0,90.0,14.0,0.0
30892,56.0,0.0,90.0,5.0,0.0
30893,87.0,0.0,90.0,0.0,0.0
30894,68.0,0.0,40.0,12.0,0.0
30895,68.0,0.0,90.0,2.0,0.0
30896,56.0,0.0,90.0,2.0,0.0
30897,40.0,0.0,90.0,15.0,0.0
30898,80.0,10.0,90.0,0.0,0.0
30899,68.0,0.0,90.0,1.0,0.0
30900,44.0,50.0,120.0,10.0,0.0
30901,40.0,0.0,90.0,3.0,0.0
30902,63.0,0.0,90.0,3.0,0.0
30903,75.0,0.0,40.0,11.0,0.0
30904,52.0,0.0,90.0,3.0,0.0
30905,56.0,0.0,90.0,4.0,0.0
30906,44.0,0.0,90.0,4.0,0.0
30907,68.0,0.0,90.0,5.0,0.0
30908,75.0,0.0,90.0,1.0,0.0
30909,68.0,0.0,40.0,12.0,0.0
30910,75.0,0.0,40.0,11.0,0.0
30911,61.0,10.0,40.0,13.0,0.0
30912,73.0,0.0,40.0,11.0,0.0
30913,44.0,0.0,90.0,4.0,0.0
30914,40.0,0.0,90.0,15.0,0.0
30915,80.0,0.0,90.0,0.0,0.0
30916,40.0,10.0,90.0,3.0,0.0
30917,68.0,50.0,40.0,12.0,0.0
30918,73.0,0.0,90.0,1.0,0.0
30919,61.0,0.0,40.0,13.0,0.0
30920,68.0,0.0,90.0,1.0,0.0
30921,56.0,0.0,90.0,4.0,0.0
30922,56.0,0.0,90.0,5.0,0.0
30923,68.0,0.0,90.0,5.0,0.0
30924,61.0,0.0,90.0,2.0,0.0
30925,68.0,0.0,90.0,2.0,0.0
30926,85.0,0.0,90.0,0.0,0.0
30927,61.0,0.0,210.0,7.0,0.0
30928,52.0,0.0,90.0,3.0,0.0
30929,61.0,0.0,90.0,3.0,0.0
30930,52.0,0.0,90.0,14.0,0.0
30931,44.0,50.0,120.0,10.0,0.0
30932,61.0,10.0,40.0,13.0,0.0
30933,68.0,0.0,40.0,12.0,0.0
30934,73.0,0.0,40.0,11.0,0.0
30935,73.0,0.0,90.0,1.0,0.0
30936,68.0,0.0,40.0,12.0,0.0
30937,44.0,50.0,120.0,10.0,0.0
30938,56.0,0.0,90.0,5.0,0.0
30939,68.0,0.0,90.0,5.0,0.0
30940,68.0,0.0,90.0,1.0,0.0
30941,61.0,50.0,40.0,13.0,0.0
30942,52.0,0.0,90.0,14.0,0.0
30943,61.0,0.0,90.0,3.0,0.0
30944,40.0,0.0,90.0,3.0,0.0
30945,73.0,0.0,40.0,11.0,0.0
30946,80.0,10.0,90.0,0.0,0.0
30947,40.0,0.0,90.0,15.0,0.0
30948,68.0,0.0,90.0,2.0,0.0
30949,61.0,0.0,90.0,2.0,0.0
30950,44.0,0.0,90.0,4.0,0.0
30951,56.0,0.0,90.0,4.0,0.0
30952,52.0,0.0,90.0,3.0,0.0
30953,85.0,0.0,90.0,0.0,0.0
30954,61.0,0.0,40.0,13.0,0.0
30955,73.0,10.0,40.0,11.0,0.0
30956,68.0,0.0,40.0,12.0,0.0
30957,85.0,0.0,90.0,0.0,0.0
30958,67.0,0.0,90.0,1.0,0.0
30959,73.0,0.0,90.0,1.0,0.0
30960,67.0,0.0,40.0,12.0,0.0
30961,39.0,50.0,120.0,10.0,0.0
30962,61.0,0.0,90.0,3.0,0.0
30963,51.0,0.0,90.0,3.0,0.0
30964,63.0,0.0,90.0,5.0,0.0
30965,51.0,10.0,450.0,8.0,0.0
30966,80.0,0.0,90.0,0.0,0.0
30967,39.0,10.0,90.0,15.0,0.0
30968,51.0,0.0,90.0,5.0,0.0
30969,58.0,50.0,40.0,13.0,0.0
30970,51.0,0.0,90.0,4.0,0.0
30971,58.0,0.0,90.0,4.0,0.0
30972,67.0,0.0,210.0,6.0,0.0
30973,39.0,0.0,90.0,3.0,0.0
30974,67.0,0.0,90.0,2.0,0.0
30975,58.0,0.0,90.0,2.0,0.0
30976,73.0,0.0,40.0,11.0,0.0
30977,51.0,0.0,90.0,14.0,0.0
30978,58.0,10.0,210.0,7.0,0.0
30979,58.0,0.0,40.0,13.0,0.0
30980,73.0,10.0,40.0,11.0,0.0
30981,67.0,0.0,40.0,12.0,0.0
30982,39.0,50.0,120.0,10.0,0.0
30983,39.0,0.0,90.0,15.0,0.0
30984,51.0,0.0,90.0,4.0,0.0
30985,58.0,0.0,90.0,4.0,0.0
30986,73.0,50.0,40.0,11.0,0.0
30987,51.0,0.0,90.0,3.0,0.0
30988,63.0,0.0,90.0,5.0,0.0
30989,51.0,0.0,90.0,14.0,0.0
30990,67.0,0.0,40.0,12.0,0.0
30991,80.0,0.0,90.0,0.0,0.0
30992,85.0,0.0,90.0,0.0,0.0
30993,51.0,0.0,90.0,5.0,0.0
30994,73.0,0.0,90.0,1.0,0.0
30995,39.0,0.0,90.0,3.0,0.0
30996,58.0,0.0,90.0,2.0,0.0
30997,67.0,0.0,90.0,1.0,0.0
30998,67.0,0.0,90.0,2.0,0.0
30999,58.0,0.0,40.0,13.0,0.0
31000,61.0,0.0,90.0,3.0,0.0
31001,73.0,0.0,40.0,11.0,0.0
31002,67.0,10.0,40.0,12.0,0.0
31003,58.0,0.0,40.0,13.0,0.0
31004,39.0,0.0,90.0,3.0,0.0
31005,60.0,0.0,210.0,7.0,0.0
31006,80.0,0.0,90.0,0.0,0.0
31007,84.0,0.0,90.0,0.0,0.0
31008,56.0,0.0,90.0,4.0,0.0
31009,60.0,0.0,90.0,4.0,0.0
31010,68.0,0.0,40.0,12.0,0.0
31011,68.0,0.0,210.0,6.0,0.0
31012,51.0,0.0,90.0,14.0,0.0
31013,63.0,0.0,90.0,5.0,0.0
31014,39.0,50.0,120.0,10.0,0.0
31015,68.0,10.0,90.0,2.0,0.0
31016,39.0,0.0,90.0,15.0,0.0
31017,51.0,0.0,90.0,5.0,0.0
31018,60.0,0.0,90.0,3.0,0.0
31019,68.0,0.0,90.0,1.0,0.0
31020,72.0,0.0,90.0,1.0,0.0
31021,56.0,50.0,40.0,13.0,0.0
31022,60.0,0.0,90.0,2.0,0.0
31023,72.0,0.0,40.0,11.0,0.0
31024,51.0,0.0,90.0,3.0,0.0
31025,72.0,0.0,40.0,11.0,0.0
31026,68.0,10.0,40.0,12.0,0.0
31027,56.0,0.0,40.0,13.0,0.0
31028,68.0,0.0,90.0,1.0,0.0
31029,56.0,0.0,90.0,4.0,0.0
31030,60.0,0.0,90.0,4.0,0.0
31031,56.0,50.0,40.0,13.0,0.0
31032,60.0,0.0,90.0,3.0,0.0
31033,63.0,0.0,90.0,5.0,0.0
31034,51.0,0.0,90.0,5.0,0.0
31035,84.0,0.0,90.0,0.0,0.0
31036,68.0,0.0,40.0,12.0,0.0
31037,68.0,0.0,90.0,2.0,0.0
31038,39.0,0.0,90.0,15.0,0.0
31039,39.0,50.0,120.0,10.0,0.0
31040,39.0,0.0,90.0,3.0,0.0
31041,80.0,0.0,90.0,0.0,0.0
31042,51.0,0.0,90.0,3.0,0.0
31043,60.0,0.0,90.0,2.0,0.0
31044,51.0,0.0,90.0,14.0,0.0
31045,72.0,0.0,90.0,1.0,0.0
31046,72.0,0.0,40.0,11.0,0.0
31047,68.0,10.0,40.0,12.0,0.0
31048,72.0,0.0,40.0,11.0,0.0
31049,56.0,0.0,40.0,13.0,0.0
31050,56.0,0.0,90.0,4.0,0.0
31051,58.0,0.0,90.0,4.0,0.0
31052,61.0,50.0,40.0,13.0,0.0
31053,27.0,10.0,90.0,3.0,0.0
31054,58.0,0.0,450.0,7.0,0.0
31055,39.0,0.0,90.0,14.0,0.0
31056,82.0,0.0,90.0,0.0,0.0
31057,80.0,0.0,90.0,0.0,0.0
31058,68.0,10.0,210.0,6.0,0.0
31059,39.0,50.0,120.0,10.0,0.0
31060,68.0,0.0,40.0,12.0,0.0
31061,51.0,0.0,90.0,5.0,0.0
31062,58.0,0.0,90.0,3.0,0.0
31063,70.0,0.0,90.0,1.0,0.0
31064,68.0,0.0,90.0,1.0,0.0
31065,70.0,0.0,40.0,11.0,0.0
31066,39.0,0.0,450.0,8.0,0.0
31067,61.0,0.0,90.0,2.0,0.0
31068,68.0,0.0,90.0,2.0,0.0
31069,63.0,0.0,90.0,5.0,0.0
31070,27.0,0.0,90.0,15.0,0.0
31071,51.0,0.0,90.0,3.0,0.0
31072,61.0,0.0,40.0,13.0,0.0
31073,70.0,10.0,40.0,11.0,0.0
31074,68.0,0.0,40.0,12.0,0.0
31075,70.0,0.0,90.0,1.0,0.0
31076,27.0,0.0,90.0,3.0,0.0
31077,27.0,0.0,90.0,15.0,0.0
31078,61.0,0.0,90.0,2.0,0.0
31079,68.0,0.0,40.0,12.0,0.0
31080,80.0,0.0,90.0,0.0,0.0
31081,82.0,0.0,90.0,0.0,0.0
31082,68.0,0.0,90.0,2.0,0.0
31083,68.0,0.0,90.0,1.0,0.0
31084,70.0,0.0,40.0,11.0,0.0
31085,63.0,0.0,90.0,5.0,0.0
31086,58.0,0.0,90.0,3.0,0.0
31087,51.0,0.0,90.0,3.0,0.0
31088,61.0,50.0,40.0,13.0,0.0
31089,39.0,0.0,90.0,14.0,0.0
31090,58.0,0.0,90.0,4.0,0.0
31091,56.0,0.0,90.0,4.0,0.0
31092,51.0,0.0,90.0,5.0,0.0
31093,39.0,50.0,120.0,10.0,0.0
31094,68.0,0.0,40.0,12.0,0.0
31095,61.0,10.0,40.0,13.0,0.0
31096,70.0,0.0,40.0,11.0,0.0
31097,61.0,0.0,90.0,2.0,0.0
31098,51.0,0.0,90.0,3.0,0.0
31099,67.0,50.0,40.0,12.0,0.0
31100,27.0,0.0,90.0,15.0,0.0
31101,63.0,0.0,90.0,5.0,0.0
31102,51.0,0.0,90.0,5.0,0.0
31103,58.0,0.0,90.0,3.0,0.0
31104,67.0,0.0,90.0,2.0,0.0
31105,79.0,10.0,90.0,0.0,0.0
31106,58.0,0.0,40.0,13.0,0.0
31107,27.0,0.0,90.0,3.0,0.0
31108,58.0,0.0,90.0,4.0,0.0
31109,51.0,0.0,90.0,4.0,0.0
31110,75.0,0.0,40.0,11.0,0.0
31111,39.0,50.0,120.0,10.0,0.0
31112,75.0,0.0,90.0,1.0,0.0
31113,67.0,0.0,90.0,1.0,0.0
31114,67.0,0.0,210.0,6.0,0.0
31115,87.0,0.0,90.0,0.0,0.0
31116,39.0,0.0,90.0,14.0,0.0
31117,75.0,0.0,40.0,11.0,0.0
31118,67.0,0.0,40.0,12.0,0.0
31119,58.0,10.0,40.0,13.0,0.0
31120,87.0,0.0,90.0,0.0,0.0
31121,63.0,0.0,90.0,5.0,0.0
31122,51.0,0.0,90.0,5.0,0.0
31123,67.0,0.0,40.0,12.0,0.0
31124,58.0,50.0,40.0,13.0,0.0
31125,39.0,0.0,90.0,14.0,0.0
31126,61.0,0.0,90.0,2.0,0.0
31127,27.0,0.0,90.0,3.0,0.0
31128,79.0,0.0,90.0,0.0,0.0
31129,75.0,0.0,90.0,1.0,0.0
31130,67.0,0.0,90.0,2.0,0.0
31131,51.0,0.0,90.0,3.0,0.0
31132,67.0,0.0,90.0,1.0,0.0
31133,58.0,0.0,90.0,3.0,0.0
31134,75.0,0.0,40.0,11.0,0.0
31135,27.0,0.0,90.0,15.0,0.0
31136,51.0,0.0,90.0,4.0,0.0
31137,58.0,0.0,90.0,4.0,0.0
31138,39.0,50.0,120.0,10.0,0.0
31139,58.0,0.0,40.0,13.0,0.0
31140,67.0,0.0,40.0,12.0,0.0
31141,75.0,10.0,40.0,11.0,0.0
31142,56.0,0.0,120.0,7.0,0.0
31143,48.0,0.0,210.0,4.0,0.0
31144,56.0,0.0,210.0,4.0,0.0
31145,56.0,0.0,210.0,1.0,0.0
31146,44.0,0.0,120.0,8.0,0.0
31147,68.0,0.0,40.0,11.0,0.0
31148,68.0,10.0,210.0,1.0,0.0
31149,56.0,60.0,40.0,13.0,0.0
31150,60.0,0.0,210.0,2.0,0.0
31151,44.0,0.0,210.0,3.0,0.0
31152,68.0,0.0,210.0,2.0,0.0
31153,68.0,0.0,120.0,6.0,0.0
31154,44.0,0.0,120.0,14.0,0.0
31155,80.0,0.0,210.0,0.0,0.0
31156,32.0,0.0,120.0,15.0,0.0
31157,56.0,0.0,210.0,3.0,0.0
31158,60.0,0.0,210.0,5.0,0.0
31159,68.0,0.0,210.0,0.0,0.0
31160,32.0,0.0,120.0,3.0,0.0
31161,44.0,50.0,120.0,10.0,0.0
31162,68.0,0.0,210.0,5.0,0.0
31163,68.0,0.0,40.0,12.0,0.0
31164,68.0,0.0,40.0,11.0,0.0
31165,56.0,0.0,40.0,12.0,0.0
31166,48.0,10.0,40.0,13.0,0.0
31167,51.0,0.0,40.0,13.0,0.0
31168,48.0,0.0,40.0,13.0,0.0
31169,51.0,0.0,40.0,13.0,0.0
31170,56.0,50.0,40.0,12.0,0.0
31171,68.0,0.0,40.0,11.0,0.0
31172,56.0,0.0,40.0,12.0,0.0
31173,68.0,0.0,40.0,11.0,0.0
31174,48.0,60.0,40.0,13.0,0.0
31175,51.0,0.0,40.0,13.0,0.0
31176,60.0,0.0,210.0,1.0,0.0
31177,48.0,0.0,210.0,3.0,0.0
31178,72.0,0.0,210.0,5.0,0.0
31179,48.0,0.0,40.0,13.0,0.0
31180,56.0,0.0,40.0,12.0,0.0
31181,84.0,0.0,210.0,0.0,0.0
31182,68.0,0.0,210.0,5.0,0.0
31183,51.0,0.0,40.0,13.0,0.0
31184,44.0,50.0,120.0,10.0,0.0
31185,60.0,0.0,210.0,3.0,0.0
31186,72.0,60.0,40.0,11.0,0.0
31187,56.0,0.0,210.0,4.0,0.0
31188,60.0,0.0,210.0,4.0,0.0
31189,72.0,0.0,210.0,2.0,0.0
31190,60.0,0.0,210.0,2.0,0.0
31191,72.0,0.0,210.0,0.0,0.0
31192,72.0,10.0,210.0,1.0,0.0
31193,56.0,0.0,40.0,12.0,0.0
31194,72.0,0.0,40.0,11.0,0.0
31195,51.0,0.0,40.0,13.0,0.0
31196,48.0,10.0,40.0,13.0,0.0
31197,72.0,0.0,40.0,11.0,0.0
31198,51.0,0.0,40.0,13.0,0.0
31199,48.0,0.0,40.0,13.0,0.0
31200,56.0,50.0,40.0,12.0,0.0
31201,56.0,60.0,40.0,12.0,0.0
31202,51.0,0.0,40.0,13.0,0.0
31203,48.0,0.0,40.0,13.0,0.0
31204,72.0,0.0,40.0,11.0,0.0
31205,51.0,0.0,40.0,13.0,0.0
31206,75.0,0.0,330.0,5.0,0.0
31207,48.0,0.0,40.0,13.0,0.0
31208,75.0,0.0,330.0,1.0,0.0
31209,63.0,0.0,330.0,1.0,0.0
31210,72.0,0.0,330.0,5.0,0.0
31211,63.0,0.0,330.0,2.0,0.0
31212,75.0,0.0,330.0,2.0,0.0
31213,44.0,50.0,120.0,10.0,0.0
31214,51.0,0.0,330.0,3.0,0.0
31215,44.0,10.0,210.0,14.0,0.0
31216,56.0,60.0,40.0,12.0,0.0
31217,63.0,10.0,330.0,3.0,0.0
31218,75.0,0.0,330.0,0.0,0.0
31219,63.0,0.0,330.0,4.0,0.0
31220,32.0,0.0,210.0,15.0,0.0
31221,87.0,0.0,330.0,0.0,0.0
31222,32.0,0.0,210.0,3.0,0.0
31223,75.0,0.0,40.0,11.0,0.0
31224,60.0,0.0,330.0,4.0,0.0
31225,75.0,0.0,40.0,11.0,0.0
31226,48.0,10.0,40.0,13.0,0.0
31227,51.0,0.0,40.0,13.0,0.0
31228,56.0,0.0,40.0,12.0,0.0
31229,75.0,0.0,40.0,11.0,0.0
31230,48.0,0.0,40.0,13.0,0.0
31231,51.0,0.0,40.0,13.0,0.0
31232,56.0,50.0,40.0,12.0,0.0
31233,51.0,0.0,40.0,13.0,0.0
31234,75.0,0.0,40.0,11.0,0.0
31235,56.0,60.0,40.0,12.0,0.0
31236,48.0,0.0,40.0,13.0,0.0
31237,36.0,0.0,210.0,15.0,0.0
31238,36.0,0.0,210.0,3.0,0.0
31239,48.0,0.0,210.0,14.0,0.0
31240,48.0,0.0,40.0,13.0,0.0
31241,44.0,50.0,120.0,10.0,0.0
31242,51.0,0.0,40.0,13.0,0.0
31243,75.0,0.0,40.0,11.0,0.0
31244,56.0,50.0,40.0,12.0,0.0
31245,56.0,0.0,40.0,12.0,0.0
31246,48.0,0.0,40.0,13.0,0.0
31247,75.0,0.0,40.0,11.0,0.0
31248,51.0,10.0,40.0,13.0,0.0
31249,61.0,0.0,90.0,3.0,0.0
31250,61.0,0.0,90.0,2.0,0.0
31251,49.0,0.0,90.0,3.0,0.0
31252,73.0,0.0,90.0,2.0,0.0
31253,61.0,10.0,90.0,4.0,0.0
31254,58.0,0.0,90.0,4.0,0.0
31255,73.0,0.0,40.0,11.0,0.0
31256,73.0,0.0,90.0,0.0,0.0
31257,61.0,0.0,90.0,1.0,0.0
31258,73.0,0.0,90.0,5.0,0.0
31259,85.0,0.0,90.0,0.0,0.0
31260,51.0,50.0,40.0,13.0,0.0
31261,48.0,0.0,40.0,13.0,0.0
31262,56.0,0.0,40.0,12.0,0.0
31263,70.0,0.0,90.0,5.0,0.0
31264,73.0,0.0,90.0,1.0,0.0
31265,51.0,0.0,40.0,13.0,0.0
31266,48.0,60.0,40.0,13.0,0.0
31267,73.0,0.0,40.0,11.0,0.0
31268,56.0,0.0,40.0,12.0,0.0
31269,48.0,0.0,40.0,13.0,0.0
31270,84.0,0.0,90.0,0.0,0.0
31271,51.0,0.0,330.0,14.0,0.0
31272,51.0,50.0,40.0,13.0,0.0
31273,72.0,0.0,90.0,0.0,0.0
31274,60.0,0.0,90.0,3.0,0.0
31275,48.0,0.0,90.0,3.0,0.0
31276,72.0,10.0,90.0,1.0,0.0
31277,72.0,0.0,40.0,11.0,0.0
31278,60.0,0.0,90.0,1.0,0.0
31279,39.0,0.0,330.0,3.0,0.0
31280,39.0,0.0,330.0,15.0,0.0
31281,60.0,0.0,90.0,2.0,0.0
31282,72.0,0.0,90.0,2.0,0.0
31283,56.0,0.0,90.0,4.0,0.0
31284,60.0,0.0,90.0,4.0,0.0
31285,44.0,50.0,120.0,10.0,0.0
31286,68.0,0.0,90.0,5.0,0.0
31287,72.0,0.0,90.0,5.0,0.0
31288,56.0,0.0,40.0,12.0,0.0
31289,72.0,10.0,40.0,11.0,0.0
31290,51.0,0.0,40.0,13.0,0.0
31291,48.0,0.0,40.0,13.0,0.0
31292,56.0,0.0,40.0,12.0,0.0
31293,56.0,0.0,40.0,12.0,0.0
31294,70.0,0.0,40.0,11.0,0.0
31295,70.0,0.0,90.0,0.0,0.0
31296,58.0,0.0,90.0,3.0,0.0
31297,58.0,0.0,90.0,1.0,0.0
31298,46.0,10.0,90.0,3.0,0.0
31299,82.0,0.0,90.0,0.0,0.0
31300,51.0,0.0,90.0,4.0,0.0
31301,58.0,0.0,90.0,4.0,0.0
31302,70.0,0.0,90.0,2.0,0.0
31303,44.0,50.0,120.0,10.0,0.0
31304,58.0,0.0,90.0,2.0,0.0
31305,70.0,0.0,90.0,1.0,0.0
31306,48.0,50.0,40.0,13.0,0.0
31307,51.0,0.0,40.0,13.0,0.0
31308,70.0,0.0,90.0,5.0,0.0
31309,63.0,0.0,90.0,5.0,0.0
31310,51.0,0.0,40.0,13.0,0.0
31311,70.0,0.0,40.0,11.0,0.0
31312,48.0,10.0,40.0,13.0,0.0
31313,56.0,0.0,40.0,12.0,0.0
31314,44.0,10.0,90.0,3.0,0.0
31315,68.0,0.0,90.0,5.0,0.0
31316,60.0,0.0,90.0,5.0,0.0
31317,56.0,0.0,40.0,12.0,0.0
31318,51.0,50.0,40.0,13.0,0.0
31319,56.0,0.0,90.0,2.0,0.0
31320,44.0,50.0,120.0,10.0,0.0
31321,68.0,0.0,90.0,0.0,0.0
31322,80.0,0.0,90.0,0.0,0.0
31323,68.0,0.0,90.0,1.0,0.0
31324,56.0,0.0,90.0,1.0,0.0
31325,68.0,0.0,90.0,2.0,0.0
31326,48.0,0.0,40.0,13.0,0.0
31327,56.0,0.0,90.0,3.0,0.0
31328,68.0,0.0,40.0,11.0,0.0
31329,48.0,0.0,90.0,4.0,0.0
31330,56.0,0.0,90.0,4.0,0.0
31331,56.0,10.0,40.0,12.0,0.0
31332,48.0,0.0,40.0,13.0,0.0
31333,51.0,0.0,40.0,13.0,0.0
31334,68.0,0.0,40.0,11.0,0.0
31335,70.0,0.0,90.0,2.0,0.0
31336,70.0,0.0,90.0,0.0,0.0
31337,46.0,0.0,90.0,3.0,0.0
31338,49.0,0.0,90.0,14.0,0.0
31339,48.0,0.0,40.0,13.0,0.0
31340,44.0,50.0,120.0,10.0,0.0
31341,51.0,50.0,40.0,13.0,0.0
31342,56.0,0.0,40.0,12.0,0.0
31343,63.0,0.0,90.0,5.0,0.0
31344,58.0,0.0,90.0,2.0,0.0
31345,70.0,0.0,90.0,1.0,0.0
31346,37.0,0.0,90.0,3.0,0.0
31347,70.0,0.0,40.0,11.0,0.0
31348,58.0,0.0,90.0,3.0,0.0
31349,51.0,0.0,90.0,4.0,0.0
31350,37.0,10.0,90.0,15.0,0.0
31351,58.0,0.0,90.0,4.0,0.0
31352,82.0,0.0,90.0,0.0,0.0
31353,70.0,0.0,90.0,5.0,0.0
31354,58.0,0.0,90.0,1.0,0.0
31355,70.0,0.0,40.0,11.0,0.0
31356,48.0,0.0,40.0,13.0,0.0
31357,56.0,10.0,40.0,12.0,0.0
31358,51.0,0.0,40.0,13.0,0.0
31359,36.0,0.0,90.0,15.0,0.0
31360,72.0,0.0,330.0,2.0,0.0
31361,48.0,10.0,90.0,14.0,0.0
31362,60.0,0.0,330.0,4.0,0.0
31363,60.0,0.0,330.0,3.0,0.0
31364,48.0,0.0,330.0,3.0,0.0
31365,48.0,50.0,40.0,13.0,0.0
31366,51.0,0.0,40.0,13.0,0.0
31367,84.0,0.0,330.0,0.0,0.0
31368,60.0,0.0,330.0,2.0,0.0
31369,36.0,0.0,90.0,3.0,0.0
31370,72.0,0.0,330.0,1.0,0.0
31371,60.0,0.0,330.0,1.0,0.0
31372,44.0,50.0,120.0,10.0,0.0
31373,72.0,0.0,40.0,11.0,0.0
31374,72.0,0.0,330.0,0.0,0.0
31375,56.0,0.0,330.0,4.0,0.0
31376,72.0,0.0,330.0,5.0,0.0
31377,68.0,0.0,330.0,5.0,0.0
31378,60.0,0.0,40.0,12.0,0.0
31379,56.0,0.0,40.0,12.0,0.0
31380,72.0,10.0,40.0,11.0,0.0
31381,60.0,0.0,40.0,12.0,0.0
31382,56.0,0.0,40.0,12.0,0.0
31383,48.0,0.0,40.0,13.0,0.0
31384,51.0,0.0,40.0,13.0,0.0
31385,60.0,0.0,40.0,12.0,0.0
31386,56.0,0.0,40.0,12.0,0.0
31387,34.0,0.0,90.0,3.0,0.0
31388,46.0,10.0,90.0,14.0,0.0
31389,51.0,0.0,40.0,13.0,0.0
31390,48.0,0.0,40.0,13.0,0.0
31391,34.0,0.0,90.0,15.0,0.0
31392,72.0,50.0,40.0,11.0,0.0
31393,60.0,0.0,40.0,12.0,0.0
31394,72.0,0.0,40.0,11.0,0.0
31395,56.0,0.0,40.0,12.0,0.0
31396,48.0,0.0,40.0,13.0,0.0
31397,51.0,60.0,40.0,13.0,0.0
31398,32.0,0.0,90.0,15.0,0.0
31399,56.0,0.0,40.0,12.0,0.0
31400,60.0,50.0,40.0,12.0,0.0
31401,51.0,0.0,40.0,13.0,0.0
31402,72.0,0.0,40.0,11.0,0.0
31403,44.0,10.0,90.0,14.0,0.0
31404,32.0,0.0,90.0,3.0,0.0
31405,48.0,0.0,40.0,13.0,0.0
31406,51.0,60.0,40.0,13.0,0.0
31407,72.0,0.0,40.0,11.0,0.0
31408,48.0,0.0,40.0,13.0,0.0
31409,60.0,0.0,40.0,12.0,0.0
31410,56.0,0.0,40.0,12.0,0.0
31411,34.0,0.0,90.0,15.0,0.0
31412,48.0,50.0,40.0,13.0,0.0
31413,48.0,0.0,90.0,3.0,0.0
31414,60.0,0.0,90.0,2.0,0.0
31415,72.0,0.0,90.0,2.0,0.0
31416,56.0,0.0,40.0,12.0,0.0
31417,72.0,0.0,40.0,11.0,0.0
31418,60.0,0.0,40.0,12.0,0.0
31419,72.0,0.0,90.0,0.0,0.0
31420,72.0,10.0,90.0,5.0,0.0
31421,84.0,0.0,90.0,0.0,0.0
31422,46.0,0.0,90.0,14.0,0.0
31423,60.0,0.0,90.0,3.0,0.0
31424,34.0,0.0,90.0,3.0,0.0
31425,44.0,50.0,120.0,10.0,0.0
31426,72.0,0.0,90.0,1.0,0.0
31427,60.0,0.0,90.0,1.0,0.0
31428,51.0,0.0,40.0,13.0,0.0
31429,60.0,0.0,90.0,4.0,0.0
31430,51.0,0.0,40.0,13.0,0.0
31431,56.0,10.0,40.0,12.0,0.0
31432,72.0,0.0,40.0,11.0,0.0
31433,60.0,0.0,40.0,12.0,0.0
31434,48.0,0.0,40.0,13.0,0.0
31435,72.0,0.0,90.0,5.0,0.0
31436,60.0,0.0,40.0,12.0,0.0
31437,56.0,50.0,40.0,12.0,0.0
31438,60.0,0.0,90.0,3.0,0.0
31439,60.0,0.0,90.0,4.0,0.0
31440,72.0,0.0,90.0,0.0,0.0
31441,60.0,0.0,90.0,1.0,0.0
31442,44.0,50.0,120.0,10.0,0.0
31443,48.0,0.0,90.0,3.0,0.0
31444,48.0,0.0,330.0,14.0,0.0
31445,36.0,0.0,330.0,3.0,0.0
31446,60.0,0.0,90.0,2.0,0.0
31447,72.0,10.0,90.0,2.0,0.0
31448,84.0,0.0,90.0,0.0,0.0
31449,36.0,0.0,330.0,15.0,0.0
31450,51.0,0.0,40.0,13.0,0.0
31451,72.0,0.0,40.0,11.0,0.0
31452,72.0,0.0,90.0,1.0,0.0
31453,48.0,0.0,40.0,13.0,0.0
31454,56.0,0.0,40.0,12.0,0.0
31455,48.0,0.0,40.0,13.0,0.0
31456,72.0,0.0,40.0,11.0,0.0
31457,51.0,10.0,40.0,13.0,0.0
31458,60.0,0.0,40.0,12.0,0.0
31459,70.0,0.0,90.0,1.0,0.0
31460,70.0,10.0,90.0,2.0,0.0
31461,58.0,0.0,90.0,2.0,0.0
31462,58.0,0.0,90.0,4.0,0.0
31463,70.0,0.0,40.0,11.0,0.0
31464,51.0,0.0,40.0,13.0,0.0
31465,56.0,50.0,40.0,12.0,0.0
31466,58.0,0.0,90.0,1.0,0.0
31467,60.0,0.0,40.0,12.0,0.0
31468,46.0,0.0,90.0,3.0,0.0
31469,58.0,0.0,90.0,3.0,0.0
31470,82.0,0.0,90.0,0.0,0.0
31471,44.0,50.0,120.0,10.0,0.0
31472,48.0,0.0,40.0,13.0,0.0
31473,70.0,0.0,90.0,0.0,0.0
31474,70.0,0.0,90.0,5.0,0.0
31475,48.0,0.0,40.0,13.0,0.0
31476,51.0,10.0,40.0,13.0,0.0
31477,56.0,0.0,40.0,12.0,0.0
31478,60.0,0.0,40.0,12.0,0.0
31479,70.0,0.0,40.0,11.0,0.0
31480,60.0,0.0,40.0,12.0,0.0
31481,84.0,0.0,90.0,0.0,0.0
31482,48.0,0.0,90.0,3.0,0.0
31483,72.0,0.0,90.0,1.0,0.0
31484,60.0,0.0,90.0,4.0,0.0
31485,72.0,0.0,40.0,11.0,0.0
31486,51.0,50.0,40.0,13.0,0.0
31487,48.0,0.0,40.0,13.0,0.0
31488,72.0,0.0,90.0,0.0,0.0
31489,60.0,0.0,90.0,3.0,0.0
31490,72.0,0.0,90.0,2.0,0.0
31491,60.0,0.0,90.0,2.0,0.0
31492,44.0,50.0,120.0,10.0,0.0
31493,56.0,0.0,40.0,12.0,0.0
31494,72.0,0.0,90.0,5.0,0.0
31495,60.0,10.0,90.0,1.0,0.0
31496,51.0,0.0,40.0,13.0,0.0
31497,48.0,0.0,40.0,13.0,0.0
31498,56.0,0.0,40.0,12.0,0.0
31499,72.0,10.0,40.0,11.0,0.0
31500,60.0,0.0,40.0,12.0,0.0
31501,48.0,0.0,90.0,14.0,0.0
31502,48.0,0.0,40.0,13.0,0.0
31503,73.0,0.0,90.0,1.0,0.0
31504,61.0,0.0,90.0,1.0,0.0
31505,73.0,0.0,40.0,11.0,0.0
31506,61.0,0.0,90.0,4.0,0.0
31507,51.0,50.0,40.0,13.0,0.0
31508,44.0,50.0,120.0,10.0,0.0
31509,61.0,0.0,90.0,3.0,0.0
31510,85.0,0.0,90.0,0.0,0.0
31511,36.0,0.0,90.0,15.0,0.0
31512,73.0,0.0,90.0,2.0,0.0
31513,61.0,0.0,90.0,2.0,0.0
31514,49.0,0.0,90.0,3.0,0.0
31515,36.0,10.0,90.0,3.0,0.0
31516,73.0,0.0,90.0,0.0,0.0
31517,73.0,0.0,90.0,5.0,0.0
31518,60.0,0.0,40.0,12.0,0.0
31519,56.0,0.0,40.0,12.0,0.0
31520,48.0,0.0,40.0,13.0,0.0
31521,51.0,10.0,40.0,13.0,0.0
31522,60.0,0.0,40.0,12.0,0.0
31523,56.0,0.0,40.0,12.0,0.0
31524,73.0,0.0,40.0,11.0,0.0
31525,75.0,0.0,330.0,2.0,0.0
31526,63.0,10.0,330.0,2.0,0.0
31527,36.0,0.0,90.0,3.0,0.0
31528,87.0,0.0,330.0,0.0,0.0
31529,75.0,0.0,40.0,11.0,0.0
31530,63.0,0.0,330.0,1.0,0.0
31531,75.0,0.0,330.0,1.0,0.0
31532,36.0,10.0,90.0,15.0,0.0
31533,63.0,0.0,330.0,4.0,0.0
31534,51.0,0.0,330.0,3.0,0.0
31535,56.0,50.0,40.0,12.0,0.0
31536,60.0,0.0,40.0,12.0,0.0
31537,44.0,50.0,120.0,10.0,0.0
31538,48.0,0.0,90.0,14.0,0.0
31539,63.0,0.0,330.0,3.0,0.0
31540,51.0,0.0,40.0,13.0,0.0
31541,48.0,0.0,40.0,13.0,0.0
31542,75.0,0.0,330.0,5.0,0.0
31543,75.0,0.0,330.0,0.0,0.0
31544,48.0,0.0,40.0,13.0,0.0
31545,56.0,10.0,40.0,12.0,0.0
31546,60.0,0.0,40.0,12.0,0.0
31547,75.0,0.0,40.0,11.0,0.0
31548,51.0,0.0,40.0,13.0,0.0
31549,75.0,0.0,40.0,11.0,0.0
31550,48.0,0.0,40.0,13.0,0.0
31551,34.0,0.0,90.0,15.0,0.0
31552,51.0,0.0,40.0,13.0,0.0
31553,46.0,0.0,90.0,14.0,0.0
31554,60.0,50.0,40.0,12.0,0.0
31555,56.0,0.0,40.0,12.0,0.0
31556,34.0,10.0,90.0,3.0,0.0
31557,60.0,0.0,40.0,12.0,0.0
31558,48.0,60.0,40.0,13.0,0.0
31559,51.0,0.0,40.0,13.0,0.0
31560,75.0,0.0,40.0,11.0,0.0
31561,56.0,0.0,40.0,12.0,0.0
31562,36.0,0.0,90.0,3.0,0.0
31563,51.0,0.0,40.0,13.0,0.0
31564,48.0,50.0,40.0,13.0,0.0
31565,48.0,0.0,90.0,14.0,0.0
31566,75.0,0.0,40.0,11.0,0.0
31567,56.0,0.0,40.0,12.0,0.0
31568,36.0,0.0,90.0,15.0,0.0
31569,60.0,0.0,40.0,12.0,0.0
31570,60.0,0.0,40.0,12.0,0.0
31571,75.0,0.0,40.0,11.0,0.0
31572,56.0,0.0,40.0,12.0,0.0
31573,48.0,0.0,40.0,13.0,0.0
31574,51.0,60.0,40.0,13.0,0.0
31575,75.0,0.0,90.0,0.0,0.0
31576,75.0,0.0,90.0,1.0,0.0
31577,37.0,10.0,90.0,3.0,0.0
31578,51.0,0.0,90.0,4.0,0.0
31579,63.0,0.0,90.0,4.0,0.0
31580,63.0,0.0,90.0,1.0,0.0
31581,48.0,0.0,40.0,13.0,0.0
31582,51.0,0.0,40.0,13.0,0.0
31583,63.0,0.0,90.0,2.0,0.0
31584,75.0,0.0,90.0,2.0,0.0
31585,75.0,0.0,90.0,5.0,0.0
31586,87.0,0.0,90.0,0.0,0.0
31587,44.0,50.0,120.0,10.0,0.0
31588,51.0,0.0,90.0,3.0,0.0
31589,75.0,0.0,40.0,11.0,0.0
31590,56.0,50.0,40.0,12.0,0.0
31591,60.0,0.0,40.0,12.0,0.0
31592,49.0,0.0,90.0,14.0,0.0
31593,63.0,0.0,90.0,5.0,0.0
31594,37.0,0.0,90.0,15.0,0.0
31595,48.0,0.0,40.0,13.0,0.0
31596,56.0,10.0,40.0,12.0,0.0
31597,60.0,0.0,40.0,12.0,0.0
31598,75.0,0.0,40.0,11.0,0.0
31599,51.0,0.0,40.0,13.0,0.0
31600,39.0,0.0,330.0,3.0,0.0
31601,75.0,0.0,90.0,0.0,0.0
31602,75.0,0.0,90.0,2.0,0.0
31603,39.0,50.0,120.0,10.0,0.0
31604,51.0,0.0,90.0,3.0,0.0
31605,63.0,0.0,90.0,2.0,0.0
31606,39.0,0.0,330.0,15.0,0.0
31607,75.0,0.0,40.0,11.0,0.0
31608,60.0,50.0,40.0,12.0,0.0
31609,56.0,0.0,40.0,12.0,0.0
31610,63.0,0.0,90.0,1.0,0.0
31611,75.0,0.0,90.0,1.0,0.0
31612,63.0,0.0,90.0,5.0,0.0
31613,87.0,10.0,90.0,0.0,0.0
31614,75.0,0.0,90.0,5.0,0.0
31615,63.0,0.0,90.0,4.0,0.0
31616,51.0,0.0,330.0,14.0,0.0
31617,48.0,0.0,40.0,13.0,0.0
31618,51.0,0.0,90.0,4.0,0.0
31619,51.0,0.0,40.0,13.0,0.0
31620,60.0,0.0,40.0,12.0,0.0
31621,56.0,10.0,40.0,12.0,0.0
31622,75.0,0.0,40.0,11.0,0.0
31623,51.0,0.0,40.0,13.0,0.0
31624,48.0,0.0,40.0,13.0,0.0
31625,73.0,10.0,90.0,0.0,0.0
31626,39.0,50.0,120.0,10.0,0.0
31627,73.0,0.0,40.0,11.0,0.0
31628,51.0,0.0,40.0,13.0,0.0
31629,61.0,0.0,90.0,2.0,0.0
31630,63.0,0.0,90.0,5.0,0.0
31631,63.0,0.0,90.0,4.0,0.0
31632,85.0,0.0,90.0,0.0,0.0
31633,48.0,0.0,40.0,13.0,0.0
31634,49.0,0.0,90.0,3.0,0.0
31635,75.0,0.0,90.0,5.0,0.0
31636,56.0,50.0,40.0,12.0,0.0
31637,60.0,0.0,40.0,12.0,0.0
31638,73.0,0.0,90.0,1.0,0.0
31639,51.0,0.0,90.0,4.0,0.0
31640,73.0,0.0,90.0,2.0,0.0
31641,61.0,0.0,90.0,1.0,0.0
31642,60.0,10.0,40.0,12.0,0.0
31643,51.0,0.0,40.0,13.0,0.0
31644,48.0,0.0,40.0,13.0,0.0
31645,56.0,0.0,40.0,12.0,0.0
31646,73.0,0.0,40.0,11.0,0.0
31647,75.0,0.0,90.0,5.0,0.0
31648,48.0,0.0,40.0,13.0,0.0
31649,51.0,0.0,40.0,13.0,0.0
31650,75.0,50.0,40.0,11.0,0.0
31651,63.0,0.0,90.0,5.0,0.0
31652,56.0,0.0,40.0,12.0,0.0
31653,51.0,0.0,90.0,3.0,0.0
31654,87.0,0.0,90.0,0.0,0.0
31655,39.0,50.0,120.0,10.0,0.0
31656,51.0,10.0,90.0,4.0,0.0
31657,63.0,0.0,90.0,4.0,0.0
31658,75.0,0.0,90.0,1.0,0.0
31659,63.0,0.0,90.0,1.0,0.0
31660,60.0,0.0,40.0,12.0,0.0
31661,75.0,0.0,90.0,2.0,0.0
31662,63.0,0.0,90.0,2.0,0.0
31663,75.0,0.0,90.0,0.0,0.0
31664,48.0,0.0,40.0,13.0,0.0
31665,75.0,10.0,40.0,11.0,0.0
31666,56.0,0.0,40.0,12.0,0.0
31667,60.0,0.0,40.0,12.0,0.0
31668,51.0,0.0,40.0,13.0,0.0
31669,51.0,0.0,90.0,4.0,0.0
31670,48.0,0.0,40.0,13.0,0.0
31671,67.0,0.0,90.0,2.0,0.0
31672,79.0,10.0,90.0,0.0,0.0
31673,51.0,0.0,40.0,13.0,0.0
31674,67.0,0.0,90.0,1.0,0.0
31675,79.0,0.0,90.0,1.0,0.0
31676,39.0,50.0,120.0,10.0,0.0
31677,63.0,0.0,90.0,5.0,0.0
31678,39.0,0.0,90.0,3.0,0.0
31679,79.0,0.0,40.0,11.0,0.0
31680,75.0,0.0,90.0,5.0,0.0
31681,39.0,0.0,90.0,15.0,0.0
31682,56.0,0.0,40.0,12.0,0.0
31683,91.0,0.0,90.0,0.0,0.0
31684,60.0,50.0,40.0,12.0,0.0
31685,55.0,0.0,90.0,3.0,0.0
31686,51.0,0.0,90.0,14.0,0.0
31687,63.0,0.0,90.0,4.0,0.0
31688,79.0,0.0,90.0,2.0,0.0
31689,60.0,0.0,40.0,12.0,0.0
31690,79.0,0.0,40.0,11.0,0.0
31691,56.0,0.0,40.0,12.0,0.0
31692,51.0,0.0,40.0,13.0,0.0
31693,48.0,10.0,40.0,13.0,0.0
31694,63.0,0.0,330.0,4.0,0.0
31695,68.0,0.0,330.0,2.0,0.0
31696,80.0,0.0,330.0,2.0,0.0
31697,56.0,0.0,40.0,12.0,0.0
31698,39.0,50.0,120.0,10.0,0.0
31699,60.0,50.0,40.0,12.0,0.0
31700,63.0,0.0,330.0,5.0,0.0
31701,75.0,0.0,330.0,5.0,0.0
31702,39.0,0.0,90.0,15.0,0.0
31703,80.0,0.0,330.0,0.0,0.0
31704,51.0,0.0,40.0,13.0,0.0
31705,51.0,0.0,330.0,4.0,0.0
31706,80.0,0.0,40.0,11.0,0.0
31707,39.0,0.0,90.0,3.0,0.0
31708,80.0,0.0,330.0,1.0,0.0
31709,56.0,0.0,330.0,3.0,0.0
31710,68.0,10.0,330.0,1.0,0.0
31711,51.0,10.0,90.0,14.0,0.0
31712,48.0,0.0,40.0,13.0,0.0
31713,92.0,0.0,330.0,0.0,0.0
31714,48.0,0.0,40.0,13.0,0.0
31715,51.0,10.0,40.0,13.0,0.0
31716,80.0,0.0,40.0,11.0,0.0
31717,56.0,0.0,40.0,12.0,0.0
31718,60.0,0.0,40.0,12.0,0.0
31719,49.0,0.0,90.0,14.0,0.0
31720,51.0,0.0,40.0,13.0,0.0
31721,48.0,0.0,40.0,13.0,0.0
31722,37.0,10.0,90.0,3.0,0.0
31723,56.0,0.0,40.0,12.0,0.0
31724,60.0,0.0,40.0,12.0,0.0
31725,37.0,0.0,90.0,15.0,0.0
31726,80.0,50.0,40.0,11.0,0.0
31727,80.0,0.0,40.0,11.0,0.0
31728,51.0,60.0,40.0,13.0,0.0
31729,48.0,0.0,40.0,13.0,0.0
31730,60.0,0.0,40.0,12.0,0.0
31731,56.0,0.0,40.0,12.0,0.0
31732,56.0,0.0,40.0,12.0,0.0
31733,39.0,0.0,90.0,15.0,0.0
31734,51.0,0.0,90.0,14.0,0.0
31735,80.0,0.0,40.0,11.0,0.0
31736,39.0,0.0,90.0,3.0,0.0
31737,60.0,0.0,40.0,12.0,0.0
31738,51.0,50.0,40.0,13.0,0.0
31739,48.0,0.0,40.0,13.0,0.0
31740,48.0,60.0,40.0,13.0,0.0
31741,51.0,0.0,40.0,13.0,0.0
31742,56.0,0.0,40.0,12.0,0.0
31743,80.0,0.0,40.0,11.0,0.0
31744,60.0,0.0,40.0,12.0,0.0
31745,60.0,0.0,40.0,12.0,0.0
31746,43.0,0.0,90.0,3.0,0.0
31747,67.0,0.0,90.0,1.0,0.0
31748,79.0,0.0,90.0,1.0,0.0
31749,56.0,0.0,40.0,12.0,0.0
31750,75.0,0.0,90.0,5.0,0.0
31751,67.0,0.0,90.0,2.0,0.0
31752,48.0,50.0,40.0,13.0,0.0
31753,63.0,0.0,90.0,5.0,0.0
31754,55.0,0.0,90.0,14.0,0.0
31755,51.0,0.0,40.0,13.0,0.0
31756,43.0,0.0,90.0,15.0,0.0
31757,79.0,0.0,90.0,0.0,0.0
31758,63.0,0.0,90.0,4.0,0.0
31759,79.0,0.0,40.0,11.0,0.0
31760,39.0,50.0,120.0,10.0,0.0
31761,51.0,10.0,90.0,4.0,0.0
31762,91.0,0.0,90.0,0.0,0.0
31763,55.0,0.0,90.0,3.0,0.0
31764,79.0,0.0,40.0,11.0,0.0
31765,51.0,0.0,40.0,13.0,0.0
31766,56.0,0.0,40.0,12.0,0.0
31767,48.0,0.0,40.0,13.0,0.0
31768,60.0,10.0,40.0,12.0,0.0
31769,48.0,0.0,40.0,13.0,0.0
31770,68.0,0.0,90.0,2.0,0.0
31771,63.0,0.0,90.0,4.0,0.0
31772,80.0,50.0,40.0,11.0,0.0
31773,80.0,0.0,90.0,0.0,0.0
31774,39.0,50.0,120.0,10.0,0.0
31775,51.0,0.0,90.0,4.0,0.0
31776,44.0,10.0,90.0,15.0,0.0
31777,51.0,0.0,40.0,13.0,0.0
31778,56.0,0.0,90.0,3.0,0.0
31779,60.0,0.0,40.0,12.0,0.0
31780,56.0,0.0,40.0,12.0,0.0
31781,80.0,0.0,90.0,1.0,0.0
31782,68.0,0.0,90.0,1.0,0.0
31783,56.0,0.0,90.0,14.0,0.0
31784,44.0,0.0,90.0,3.0,0.0
31785,75.0,0.0,90.0,5.0,0.0
31786,63.0,0.0,90.0,5.0,0.0
31787,92.0,0.0,90.0,0.0,0.0
31788,48.0,10.0,40.0,13.0,0.0
31789,51.0,0.0,40.0,13.0,0.0
31790,60.0,0.0,40.0,12.0,0.0
31791,56.0,0.0,40.0,12.0,0.0
31792,80.0,0.0,40.0,11.0,0.0
31793,79.0,0.0,90.0,1.0,0.0
31794,79.0,50.0,40.0,11.0,0.0
31795,63.0,0.0,90.0,4.0,0.0
31796,51.0,0.0,90.0,4.0,0.0
31797,91.0,0.0,90.0,0.0,0.0
31798,63.0,0.0,90.0,5.0,0.0
31799,75.0,0.0,90.0,5.0,0.0
31800,55.0,0.0,90.0,3.0,0.0
31801,56.0,0.0,40.0,12.0,0.0
31802,67.0,0.0,90.0,2.0,0.0
31803,67.0,0.0,90.0,0.0,0.0
31804,79.0,0.0,90.0,0.0,0.0
31805,55.0,0.0,90.0,14.0,0.0
31806,43.0,0.0,90.0,15.0,0.0
31807,48.0,0.0,40.0,13.0,0.0
31808,51.0,0.0,40.0,13.0,0.0
31809,39.0,50.0,120.0,10.0,0.0
31810,67.0,0.0,90.0,1.0,0.0
31811,60.0,0.0,40.0,12.0,0.0
31812,43.0,0.0,90.0,3.0,0.0
31813,48.0,0.0,40.0,13.0,0.0
31814,51.0,0.0,40.0,13.0,0.0
31815,60.0,0.0,40.0,12.0,0.0
31816,79.0,10.0,40.0,11.0,0.0
31817,56.0,0.0,40.0,12.0,0.0
31818,56.0,10.0,90.0,14.0,0.0
31819,60.0,0.0,40.0,12.0,0.0
31820,68.0,0.0,90.0,1.0,0.0
31821,80.0,0.0,90.0,1.0,0.0
31822,68.0,0.0,90.0,0.0,0.0
31823,56.0,0.0,40.0,12.0,0.0
31824,39.0,50.0,120.0,10.0,0.0
31825,92.0,0.0,90.0,0.0,0.0
31826,51.0,0.0,90.0,4.0,0.0
31827,63.0,0.0,90.0,4.0,0.0
31828,48.0,0.0,40.0,13.0,0.0
31829,51.0,50.0,40.0,13.0,0.0
31830,44.0,0.0,90.0,15.0,0.0
31831,44.0,0.0,90.0,3.0,0.0
31832,80.0,0.0,90.0,0.0,0.0
31833,80.0,0.0,40.0,11.0,0.0
31834,56.0,0.0,90.0,3.0,0.0
31835,75.0,0.0,90.0,5.0,0.0
31836,68.0,0.0,90.0,2.0,0.0
31837,63.0,0.0,90.0,5.0,0.0
31838,56.0,0.0,40.0,12.0,0.0
31839,60.0,0.0,40.0,12.0,0.0
31840,48.0,10.0,40.0,13.0,0.0
31841,51.0,0.0,40.0,13.0,0.0
31842,80.0,0.0,40.0,11.0,0.0
31843,51.0,0.0,90.0,4.0,0.0
31844,46.0,0.0,90.0,15.0,0.0
31845,39.0,50.0,120.0,10.0,0.0
31846,82.0,0.0,40.0,11.0,0.0
31847,48.0,50.0,40.0,13.0,0.0
31848,51.0,0.0,40.0,13.0,0.0
31849,63.0,0.0,90.0,4.0,0.0
31850,63.0,0.0,90.0,5.0,0.0
31851,75.0,0.0,90.0,5.0,0.0
31852,82.0,0.0,90.0,0.0,0.0
31853,70.0,0.0,90.0,2.0,0.0
31854,94.0,0.0,90.0,0.0,0.0
31855,46.0,0.0,90.0,3.0,0.0
31856,70.0,0.0,90.0,0.0,0.0
31857,82.0,0.0,90.0,1.0,0.0
31858,56.0,0.0,40.0,12.0,0.0
31859,58.0,0.0,90.0,3.0,0.0
31860,60.0,0.0,40.0,12.0,0.0
31861,70.0,0.0,90.0,1.0,0.0
31862,58.0,0.0,90.0,14.0,0.0
31863,82.0,0.0,40.0,11.0,0.0
31864,60.0,0.0,40.0,12.0,0.0
31865,48.0,0.0,40.0,13.0,0.0
31866,51.0,0.0,40.0,13.0,0.0
31867,56.0,10.0,40.0,12.0,0.0
31868,72.0,0.0,90.0,1.0,0.0
31869,96.0,0.0,90.0,0.0,0.0
31870,56.0,0.0,40.0,12.0,0.0
31871,60.0,0.0,90.0,3.0,0.0
31872,48.0,0.0,40.0,13.0,0.0
31873,51.0,0.0,40.0,13.0,0.0
31874,39.0,50.0,120.0,10.0,0.0
31875,63.0,0.0,90.0,4.0,0.0
31876,75.0,0.0,90.0,5.0,0.0
31877,48.0,10.0,90.0,15.0,0.0
31878,84.0,0.0,90.0,0.0,0.0
31879,72.0,0.0,90.0,0.0,0.0
31880,48.0,0.0,90.0,3.0,0.0
31881,63.0,0.0,90.0,5.0,0.0
31882,60.0,50.0,40.0,12.0,0.0
31883,72.0,0.0,90.0,2.0,0.0
31884,84.0,0.0,40.0,11.0,0.0
31885,60.0,0.0,90.0,14.0,0.0
31886,51.0,0.0,90.0,4.0,0.0
31887,56.0,0.0,40.0,12.0,0.0
31888,48.0,0.0,40.0,13.0,0.0
31889,60.0,10.0,40.0,12.0,0.0
31890,84.0,0.0,40.0,11.0,0.0
31891,51.0,0.0,40.0,13.0,0.0
31892,56.0,0.0,40.0,12.0,0.0
31893,34.0,0.0,90.0,15.0,0.0
31894,51.0,0.0,90.0,4.0,0.0
31895,82.0,0.0,40.0,11.0,0.0
31896,70.0,0.0,90.0,2.0,0.0
31897,58.0,0.0,90.0,3.0,0.0
31898,46.0,0.0,90.0,3.0,0.0
31899,82.0,0.0,90.0,0.0,0.0
31900,63.0,0.0,90.0,4.0,0.0
31901,70.0,10.0,90.0,1.0,0.0
31902,70.0,0.0,90.0,0.0,0.0
31903,75.0,0.0,90.0,5.0,0.0
31904,60.0,0.0,40.0,12.0,0.0
31905,46.0,0.0,90.0,14.0,0.0
31906,94.0,0.0,90.0,0.0,0.0
31907,48.0,50.0,40.0,13.0,0.0
31908,63.0,0.0,90.0,5.0,0.0
31909,51.0,0.0,40.0,13.0,0.0
31910,39.0,50.0,120.0,10.0,0.0
31911,34.0,0.0,90.0,3.0,0.0
31912,51.0,10.0,40.0,13.0,0.0
31913,82.0,0.0,40.0,11.0,0.0
31914,56.0,0.0,40.0,12.0,0.0
31915,60.0,0.0,40.0,12.0,0.0
31916,48.0,0.0,40.0,13.0,0.0
31917,84.0,0.0,40.0,11.0,0.0
31918,96.0,0.0,90.0,0.0,0.0
31919,72.0,0.0,90.0,1.0,0.0
31920,39.0,50.0,120.0,10.0,0.0
31921,72.0,0.0,90.0,0.0,0.0
31922,84.0,10.0,90.0,0.0,0.0
31923,48.0,0.0,90.0,14.0,0.0
31924,48.0,0.0,40.0,13.0,0.0
31925,75.0,0.0,90.0,5.0,0.0
31926,60.0,0.0,90.0,3.0,0.0
31927,63.0,0.0,90.0,5.0,0.0
31928,36.0,0.0,90.0,3.0,0.0
31929,51.0,0.0,90.0,4.0,0.0
31930,63.0,0.0,90.0,4.0,0.0
31931,60.0,0.0,40.0,12.0,0.0
31932,56.0,50.0,40.0,12.0,0.0
31933,48.0,0.0,90.0,3.0,0.0
31934,51.0,0.0,40.0,13.0,0.0
31935,72.0,0.0,90.0,2.0,0.0
31936,36.0,0.0,90.0,15.0,0.0
31937,60.0,0.0,40.0,12.0,0.0
31938,56.0,0.0,40.0,12.0,0.0
31939,84.0,10.0,40.0,11.0,0.0
31940,48.0,0.0,40.0,13.0,0.0
31941,51.0,0.0,40.0,13.0,0.0
31942,48.0,50.0,40.0,13.0,0.0
31943,51.0,0.0,40.0,13.0,0.0
31944,73.0,0.0,90.0,2.0,0.0
31945,37.0,0.0,90.0,15.0,0.0
31946,63.0,0.0,90.0,5.0,0.0
31947,75.0,0.0,90.0,5.0,0.0
31948,85.0,0.0,90.0,0.0,0.0
31949,61.0,0.0,90.0,3.0,0.0
31950,49.0,0.0,90.0,3.0,0.0
31951,85.0,0.0,40.0,11.0,0.0
31952,51.0,0.0,90.0,4.0,0.0
31953,97.0,0.0,90.0,0.0,0.0
31954,37.0,0.0,90.0,3.0,0.0
31955,49.0,10.0,90.0,14.0,0.0
31956,56.0,0.0,40.0,12.0,0.0
31957,39.0,50.0,120.0,10.0,0.0
31958,60.0,0.0,40.0,12.0,0.0
31959,73.0,0.0,90.0,0.0,0.0
31960,73.0,0.0,90.0,1.0,0.0
31961,63.0,0.0,90.0,4.0,0.0
31962,60.0,0.0,40.0,12.0,0.0
31963,56.0,0.0,40.0,12.0,0.0
31964,51.0,10.0,40.0,13.0,0.0
31965,85.0,0.0,40.0,11.0,0.0
31966,48.0,0.0,40.0,13.0,0.0
31967,39.0,50.0,60.0,10.0,0.0
31968,75.0,0.0,930.0,0.0,0.0
31969,60.0,0.0,40.0,12.0,0.0
31970,51.0,0.0,930.0,3.0,0.0
31971,39.0,0.0,930.0,3.0,0.0
31972,63.0,0.0,930.0,3.0,0.0
31973,99.0,10.0,930.0,0.0,0.0
31974,63.0,0.0,930.0,5.0,0.0
31975,51.0,0.0,40.0,13.0,0.0
31976,48.0,0.0,40.0,13.0,0.0
31977,87.0,0.0,930.0,0.0,0.0
31978,56.0,0.0,40.0,12.0,0.0
31979,75.0,0.0,930.0,5.0,0.0
31980,63.0,0.0,930.0,4.0,0.0
31981,39.0,0.0,930.0,15.0,0.0
31982,75.0,0.0,930.0,1.0,0.0
31983,51.0,0.0,930.0,14.0,0.0
31984,75.0,0.0,930.0,2.0,0.0
31985,87.0,10.0,40.0,11.0,0.0
31986,51.0,0.0,930.0,4.0,0.0
31987,87.0,0.0,40.0,11.0,0.0
31988,60.0,10.0,40.0,12.0,0.0
31989,39.0,50.0,60.0,10.0,0.0
31990,68.0,0.0,40.0,12.0,0.0
31991,48.0,0.0,40.0,13.0,0.0
31992,51.0,0.0,40.0,13.0,0.0
31993,68.0,0.0,40.0,12.0,0.0
31994,60.0,0.0,40.0,12.0,0.0
31995,87.0,10.0,40.0,11.0,0.0
31996,51.0,0.0,40.0,13.0,0.0
31997,48.0,0.0,40.0,13.0,0.0
31998,39.0,50.0,60.0,10.0,0.0
31999,48.0,0.0,40.0,13.0,0.0
32000,51.0,0.0,40.0,13.0,0.0
32001,39.0,50.0,60.0,10.0,0.0
32002,87.0,10.0,40.0,11.0,0.0
32003,60.0,0.0,40.0,12.0,0.0
32004,68.0,0.0,40.0,12.0,0.0
32005,68.0,0.0,40.0,12.0,0.0
32006,60.0,0.0,40.0,12.0,0.0
32007,87.0,0.0,40.0,11.0,0.0
32008,48.0,0.0,40.0,13.0,0.0
32009,39.0,50.0,60.0,10.0,0.0
32010,51.0,10.0,40.0,13.0,0.0
32011,68.0,0.0,40.0,12.0,0.0
32012,60.0,0.0,40.0,12.0,0.0
32013,87.0,10.0,40.0,11.0,0.0
32014,51.0,0.0,40.0,13.0,0.0
32015,48.0,0.0,40.0,13.0,0.0
32016,39.0,50.0,60.0,10.0,0.0
32017,68.0,0.0,40.0,12.0,0.0
32018,39.0,50.0,60.0,10.0,0.0
32019,87.0,10.0,40.0,11.0,0.0
32020,48.0,0.0,40.0,13.0,0.0
32021,60.0,0.0,40.0,12.0,0.0
32022,51.0,0.0,40.0,13.0,0.0
32023,39.0,50.0,60.0,10.0,0.0
32024,60.0,0.0,40.0,12.0,0.0
32025,68.0,0.0,40.0,12.0,0.0
32026,51.0,10.0,40.0,13.0,0.0
32027,48.0,0.0,40.0,13.0,0.0
32028,87.0,0.0,40.0,11.0,0.0
32029,39.0,50.0,60.0,10.0,0.0
32030,60.0,0.0,40.0,12.0,0.0
32031,68.0,10.0,40.0,12.0,0.0
32032,87.0,0.0,40.0,11.0,0.0
32033,48.0,0.0,40.0,13.0,0.0
32034,51.0,0.0,40.0,13.0,0.0
32035,51.0,0.0,40.0,13.0,0.0
32036,48.0,0.0,40.0,13.0,0.0
32037,60.0,0.0,40.0,12.0,0.0
32038,39.0,50.0,60.0,10.0,0.0
32039,68.0,0.0,40.0,12.0,0.0
32040,87.0,10.0,40.0,11.0,0.0
32041,51.0,0.0,40.0,13.0,0.0
32042,48.0,0.0,40.0,13.0,0.0
32043,60.0,10.0,40.0,12.0,0.0
32044,68.0,0.0,40.0,12.0,0.0
32045,39.0,50.0,60.0,10.0,0.0
32046,87.0,0.0,40.0,11.0,0.0
32047,39.0,50.0,60.0,10.0,0.0
32048,87.0,0.0,40.0,11.0,0.0
32049,48.0,0.0,40.0,13.0,0.0
32050,51.0,0.0,40.0,13.0,0.0
32051,60.0,10.0,40.0,12.0,0.0
32052,68.0,0.0,40.0,12.0,0.0
32053,39.0,50.0,60.0,10.0,0.0
32054,68.0,0.0,40.0,12.0,0.0
32055,60.0,0.0,40.0,12.0,0.0
32056,51.0,10.0,40.0,13.0,0.0
32057,48.0,0.0,40.0,13.0,0.0
32058,87.0,0.0,40.0,11.0,0.0
32059,39.0,50.0,60.0,10.0,0.0
32060,51.0,0.0,40.0,13.0,0.0
32061,60.0,10.0,40.0,12.0,0.0
32062,87.0,0.0,40.0,11.0,0.0
32063,48.0,0.0,40.0,13.0,0.0
32064,68.0,0.0,40.0,12.0,0.0
32065,48.0,0.0,40.0,13.0,0.0
32066,68.0,10.0,40.0,12.0,0.0
32067,60.0,0.0,40.0,12.0,0.0
32068,87.0,0.0,40.0,11.0,0.0
32069,39.0,40.0,60.0,10.0,0.0
32070,51.0,0.0,40.0,13.0,0.0
32071,48.0,0.0,40.0,13.0,0.0
32072,51.0,0.0,40.0,13.0,0.0
32073,39.0,50.0,60.0,10.0,0.0
32074,60.0,10.0,40.0,12.0,0.0
32075,68.0,0.0,40.0,12.0,0.0
32076,87.0,0.0,40.0,11.0,0.0
32077,60.0,0.0,930.0,3.0,0.0
32078,48.0,0.0,930.0,3.0,0.0
32079,60.0,0.0,930.0,4.0,0.0
32080,84.0,0.0,40.0,11.0,0.0
32081,68.0,10.0,40.0,12.0,0.0
32082,48.0,0.0,930.0,4.0,0.0
32083,72.0,10.0,930.0,2.0,0.0
32084,72.0,0.0,930.0,1.0,0.0
32085,48.0,0.0,930.0,14.0,0.0
32086,36.0,0.0,930.0,3.0,0.0
32087,48.0,0.0,40.0,13.0,0.0
32088,36.0,0.0,930.0,15.0,0.0
32089,51.0,0.0,40.0,13.0,0.0
32090,39.0,50.0,60.0,10.0,0.0
32091,60.0,0.0,40.0,12.0,0.0
32092,84.0,0.0,930.0,0.0,0.0
32093,72.0,0.0,930.0,0.0,0.0
32094,96.0,0.0,930.0,0.0,0.0
32095,72.0,0.0,930.0,5.0,0.0
32096,60.0,0.0,930.0,5.0,0.0
32097,51.0,0.0,40.0,13.0,0.0
32098,39.0,50.0,60.0,10.0,0.0
32099,48.0,0.0,40.0,13.0,0.0
32100,84.0,0.0,40.0,11.0,0.0
32101,68.0,10.0,40.0,12.0,0.0
32102,60.0,0.0,40.0,12.0,0.0
32103,68.0,0.0,40.0,12.0,0.0
32104,51.0,0.0,40.0,13.0,0.0
32105,48.0,0.0,40.0,13.0,0.0
32106,39.0,50.0,60.0,10.0,0.0
32107,84.0,10.0,40.0,11.0,0.0
32108,60.0,0.0,40.0,12.0,0.0
32109,84.0,0.0,40.0,11.0,0.0
32110,48.0,0.0,40.0,13.0,0.0
32111,39.0,50.0,60.0,10.0,0.0
32112,60.0,10.0,40.0,12.0,0.0
32113,68.0,0.0,40.0,12.0,0.0
32114,51.0,0.0,40.0,13.0,0.0
32115,48.0,0.0,40.0,13.0,0.0
32116,51.0,0.0,40.0,13.0,0.0
32117,84.0,0.0,40.0,11.0,0.0
32118,39.0,50.0,60.0,10.0,0.0
32119,68.0,0.0,40.0,12.0,0.0
32120,60.0,10.0,40.0,12.0,0.0
32121,60.0,0.0,40.0,12.0,0.0
32122,68.0,0.0,40.0,12.0,0.0
32123,84.0,0.0,40.0,11.0,0.0
32124,48.0,10.0,40.0,13.0,0.0
32125,51.0,0.0,40.0,13.0,0.0
32126,39.0,50.0,60.0,10.0,0.0
32127,39.0,50.0,60.0,10.0,0.0
32128,84.0,0.0,40.0,11.0,0.0
32129,51.0,0.0,40.0,13.0,0.0
32130,60.0,0.0,40.0,12.0,0.0
32131,68.0,10.0,40.0,12.0,0.0
32132,48.0,0.0,40.0,13.0,0.0
32133,39.0,50.0,60.0,10.0,0.0
32134,60.0,0.0,40.0,12.0,0.0
32135,84.0,0.0,40.0,11.0,0.0
32136,51.0,10.0,40.0,13.0,0.0
32137,48.0,0.0,40.0,13.0,0.0
32138,68.0,0.0,40.0,12.0,0.0
32139,51.0,0.0,40.0,13.0,0.0
32140,68.0,10.0,40.0,12.0,0.0
32141,48.0,0.0,40.0,13.0,0.0
32142,60.0,0.0,40.0,12.0,0.0
32143,84.0,0.0,40.0,11.0,0.0
32144,39.0,50.0,60.0,10.0,0.0
32145,60.0,0.0,40.0,12.0,0.0
32146,68.0,0.0,40.0,12.0,0.0
32147,51.0,0.0,40.0,13.0,0.0
32148,39.0,50.0,60.0,10.0,0.0
32149,84.0,10.0,40.0,11.0,0.0
32150,48.0,0.0,40.0,13.0,0.0
32151,60.0,10.0,40.0,12.0,0.0
32152,84.0,0.0,40.0,11.0,0.0
32153,51.0,0.0,40.0,13.0,0.0
32154,39.0,50.0,60.0,10.0,0.0
32155,48.0,0.0,40.0,13.0,0.0
32156,68.0,0.0,40.0,12.0,0.0
32157,39.0,50.0,60.0,10.0,0.0
32158,51.0,0.0,40.0,13.0,0.0
32159,60.0,0.0,40.0,12.0,0.0
32160,84.0,0.0,40.0,11.0,0.0
32161,48.0,0.0,40.0,13.0,0.0
32162,68.0,10.0,40.0,12.0,0.0
32163,60.0,0.0,40.0,12.0,0.0
32164,68.0,10.0,40.0,12.0,0.0
32165,51.0,0.0,40.0,13.0,0.0
32166,48.0,0.0,40.0,13.0,0.0
32167,84.0,0.0,40.0,11.0,0.0
32168,39.0,50.0,60.0,10.0,0.0
32169,51.0,0.0,40.0,13.0,0.0
32170,48.0,0.0,40.0,13.0,0.0
32171,39.0,50.0,60.0,10.0,0.0
32172,84.0,0.0,40.0,11.0,0.0
32173,68.0,10.0,40.0,12.0,0.0
32174,60.0,0.0,40.0,12.0,0.0
32175,39.0,40.0,60.0,10.0,0.0
32176,84.0,0.0,40.0,11.0,0.0
32177,68.0,0.0,40.0,12.0,0.0
32178,51.0,0.0,40.0,13.0,0.0
32179,48.0,0.0,40.0,13.0,0.0
32180,60.0,10.0,40.0,12.0,0.0
32181,84.0,0.0,40.0,11.0,0.0
32182,48.0,0.0,40.0,13.0,0.0
32183,51.0,0.0,40.0,13.0,0.0
32184,60.0,10.0,40.0,12.0,0.0
32185,68.0,0.0,40.0,12.0,0.0
32186,39.0,120.0,60.0,10.0,0.0
32187,32.0,0.0,120.0,3.0,0.0
32188,44.0,0.0,120.0,3.0,0.0
32189,56.0,480.0,120.0,3.0,0.0
32190,56.0,0.0,120.0,4.0,0.0
32191,68.0,0.0,120.0,5.0,0.0
32192,56.0,0.0,120.0,5.0,0.0
32193,80.0,0.0,120.0,11.0,0.0
32194,68.0,0.0,120.0,12.0,0.0
32195,92.0,0.0,120.0,0.0,0.0
32196,60.0,0.0,120.0,12.0,0.0
32197,44.0,0.0,120.0,14.0,0.0
32198,51.0,0.0,120.0,13.0,0.0
32199,80.0,0.0,120.0,0.0,0.0
32200,68.0,0.0,120.0,2.0,0.0
32201,68.0,0.0,120.0,0.0,0.0
32202,48.0,0.0,120.0,13.0,0.0
32203,44.0,0.0,120.0,4.0,0.0
32204,68.0,0.0,120.0,1.0,0.0
32205,32.0,0.0,120.0,15.0,0.0
32206,44.0,0.0,120.0,10.0,0.0
32207,67.0,0.0,120.0,2.0,0.0
32208,79.0,0.0,120.0,0.0,0.0
32209,70.0,0.0,120.0,11.0,0.0
32210,63.0,0.0,120.0,11.0,0.0
32211,70.0,0.0,120.0,12.0,0.0
32212,79.0,0.0,120.0,1.0,0.0
32213,51.0,0.0,120.0,12.0,0.0
32214,63.0,480.0,120.0,12.0,0.0
32215,58.0,0.0,120.0,3.0,0.0
32216,55.0,0.0,120.0,3.0,0.0
32217,27.0,0.0,120.0,15.0,0.0
32218,51.0,0.0,120.0,11.0,0.0
32219,27.0,0.0,120.0,3.0,0.0
32220,39.0,0.0,120.0,10.0,0.0
32221,67.0,0.0,120.0,13.0,0.0
32222,51.0,0.0,120.0,4.0,0.0
32223,58.0,0.0,120.0,13.0,0.0
32224,51.0,0.0,120.0,13.0,0.0
32225,39.0,0.0,120.0,14.0,0.0
32226,70.0,0.0,120.0,2.0,0.0
32227,70.0,0.0,120.0,1.0,0.0
32228,82.0,0.0,120.0,0.0,0.0
32229,63.0,0.0,120.0,5.0,0.0
32230,58.0,0.0,120.0,4.0,0.0
32231,70.0,0.0,120.0,5.0,0.0
32232,72.0,0.0,120.0,2.0,0.0
32233,72.0,0.0,120.0,5.0,0.0
32234,51.0,0.0,120.0,12.0,0.0
32235,68.0,480.0,120.0,5.0,0.0
32236,84.0,0.0,120.0,0.0,0.0
32237,68.0,0.0,120.0,2.0,0.0
32238,44.0,0.0,120.0,14.0,0.0
32239,56.0,0.0,120.0,4.0,0.0
32240,72.0,0.0,120.0,1.0,0.0
32241,80.0,0.0,120.0,1.0,0.0
32242,32.0,0.0,120.0,15.0,0.0
32243,60.0,0.0,120.0,3.0,0.0
32244,56.0,0.0,120.0,3.0,0.0
32245,72.0,0.0,120.0,12.0,0.0
32246,60.0,0.0,120.0,4.0,0.0
32247,32.0,0.0,120.0,3.0,0.0
32248,63.0,0.0,120.0,11.0,0.0
32249,72.0,0.0,120.0,11.0,0.0
32250,51.0,0.0,120.0,11.0,0.0
32251,80.0,0.0,120.0,0.0,0.0
32252,68.0,0.0,120.0,13.0,0.0
32253,60.0,0.0,120.0,13.0,0.0
32254,44.0,0.0,120.0,10.0,0.0
32255,63.0,0.0,120.0,12.0,0.0
32256,51.0,0.0,120.0,13.0,0.0
32257,75.0,0.0,120.0,12.0,0.0
32258,58.0,0.0,120.0,12.0,0.0
32259,51.0,0.0,120.0,4.0,0.0
32260,79.0,0.0,120.0,1.0,0.0
32261,70.0,0.0,120.0,1.0,0.0
32262,27.0,0.0,120.0,3.0,0.0
32263,75.0,0.0,120.0,5.0,0.0
32264,70.0,0.0,120.0,2.0,0.0
32265,67.0,0.0,120.0,2.0,0.0
32266,67.0,0.0,120.0,11.0,0.0
32267,51.0,0.0,120.0,11.0,0.0
32268,75.0,0.0,120.0,11.0,0.0
32269,58.0,0.0,120.0,11.0,0.0
32270,63.0,0.0,120.0,4.0,0.0
32271,63.0,0.0,120.0,5.0,0.0
32272,79.0,0.0,120.0,0.0,0.0
32273,87.0,0.0,120.0,0.0,0.0
32274,39.0,0.0,120.0,10.0,0.0
32275,39.0,0.0,120.0,14.0,0.0
32276,67.0,0.0,120.0,12.0,0.0
32277,51.0,0.0,120.0,12.0,0.0
32278,27.0,0.0,120.0,15.0,0.0
32279,51.0,0.0,120.0,13.0,0.0
32280,67.0,0.0,120.0,13.0,0.0
32281,58.0,0.0,120.0,13.0,0.0
32282,58.0,480.0,120.0,3.0,0.0
32283,55.0,0.0,120.0,3.0,0.0
32284,60.0,0.0,120.0,3.0,0.0
32285,56.0,0.0,120.0,3.0,0.0
32286,44.0,0.0,120.0,14.0,0.0
32287,44.0,0.0,120.0,10.0,0.0
32288,72.0,0.0,120.0,11.0,0.0
32289,72.0,0.0,120.0,12.0,0.0
32290,51.0,0.0,120.0,12.0,0.0
32291,68.0,0.0,120.0,12.0,0.0
32292,51.0,0.0,120.0,11.0,0.0
32293,60.0,0.0,120.0,11.0,0.0
32294,60.0,0.0,120.0,12.0,0.0
32295,68.0,0.0,120.0,11.0,0.0
32296,72.0,0.0,120.0,2.0,0.0
32297,60.0,0.0,120.0,4.0,0.0
32298,56.0,0.0,120.0,4.0,0.0
32299,68.0,0.0,120.0,5.0,0.0
32300,84.0,0.0,120.0,0.0,0.0
32301,80.0,0.0,120.0,0.0,0.0
32302,32.0,0.0,120.0,3.0,0.0
32303,72.0,0.0,120.0,1.0,0.0
32304,80.0,0.0,120.0,1.0,0.0
32305,72.0,0.0,120.0,5.0,0.0
32306,68.0,0.0,120.0,2.0,0.0
32307,51.0,0.0,120.0,13.0,0.0
32308,60.0,0.0,120.0,13.0,0.0
32309,68.0,480.0,120.0,13.0,0.0
32310,32.0,0.0,120.0,15.0,0.0
32311,63.0,0.0,120.0,12.0,0.0
32312,39.0,0.0,120.0,10.0,0.0
32313,67.0,0.0,120.0,13.0,0.0
32314,70.0,0.0,120.0,2.0,0.0
32315,67.0,0.0,120.0,2.0,0.0
32316,55.0,0.0,120.0,3.0,0.0
32317,58.0,0.0,120.0,3.0,0.0
32318,58.0,0.0,120.0,13.0,0.0
32319,51.0,0.0,120.0,11.0,0.0
32320,51.0,0.0,120.0,13.0,0.0
32321,27.0,0.0,120.0,3.0,0.0
32322,70.0,0.0,120.0,11.0,0.0
32323,70.0,0.0,120.0,12.0,0.0
32324,51.0,0.0,120.0,4.0,0.0
32325,79.0,0.0,120.0,0.0,0.0
32326,51.0,0.0,120.0,12.0,0.0
32327,70.0,0.0,120.0,5.0,0.0
32328,63.0,0.0,120.0,5.0,0.0
32329,39.0,0.0,120.0,14.0,0.0
32330,79.0,0.0,120.0,1.0,0.0
32331,63.0,0.0,120.0,11.0,0.0
32332,82.0,0.0,120.0,0.0,0.0
32333,27.0,0.0,120.0,15.0,0.0
32334,58.0,0.0,120.0,4.0,0.0
32335,70.0,0.0,120.0,1.0,0.0
32336,44.0,0.0,120.0,14.0,0.0
32337,44.0,0.0,120.0,10.0,0.0
32338,60.0,0.0,120.0,3.0,0.0
32339,56.0,0.0,120.0,3.0,0.0
32340,63.0,0.0,120.0,12.0,0.0
32341,72.0,0.0,120.0,12.0,0.0
32342,68.0,0.0,120.0,5.0,0.0
32343,72.0,0.0,120.0,5.0,0.0
32344,56.0,0.0,120.0,4.0,0.0
32345,51.0,480.0,120.0,12.0,0.0
32346,72.0,0.0,120.0,2.0,0.0
32347,68.0,0.0,120.0,2.0,0.0
32348,60.0,0.0,120.0,4.0,0.0
32349,68.0,0.0,120.0,13.0,0.0
32350,60.0,0.0,120.0,13.0,0.0
32351,51.0,0.0,120.0,13.0,0.0
32352,80.0,0.0,120.0,1.0,0.0
32353,72.0,0.0,120.0,1.0,0.0
32354,80.0,0.0,120.0,0.0,0.0
32355,84.0,0.0,120.0,0.0,0.0
32356,63.0,0.0,120.0,11.0,0.0
32357,51.0,0.0,120.0,11.0,0.0
32358,32.0,0.0,120.0,3.0,0.0
32359,72.0,0.0,120.0,11.0,0.0
32360,32.0,0.0,120.0,15.0,0.0
32361,79.0,0.0,120.0,1.0,0.0
32362,39.0,0.0,120.0,10.0,0.0
32363,67.0,0.0,120.0,13.0,0.0
32364,58.0,0.0,120.0,13.0,0.0
32365,51.0,0.0,120.0,13.0,0.0
32366,70.0,0.0,120.0,1.0,0.0
32367,39.0,0.0,120.0,8.0,0.0
32368,58.0,0.0,120.0,7.0,0.0
32369,51.0,480.0,120.0,4.0,0.0
32370,55.0,0.0,120.0,3.0,0.0
32371,58.0,0.0,120.0,3.0,0.0
32372,63.0,0.0,120.0,4.0,0.0
32373,39.0,0.0,120.0,14.0,0.0
32374,67.0,0.0,120.0,6.0,0.0
32375,75.0,0.0,120.0,2.0,0.0
32376,75.0,0.0,120.0,12.0,0.0
32377,51.0,0.0,120.0,12.0,0.0
32378,79.0,0.0,120.0,0.0,0.0
32379,87.0,0.0,120.0,0.0,0.0
32380,27.0,0.0,120.0,15.0,0.0
32381,58.0,0.0,120.0,12.0,0.0
32382,58.0,0.0,120.0,11.0,0.0
32383,75.0,0.0,120.0,5.0,0.0
32384,63.0,0.0,120.0,5.0,0.0
32385,67.0,0.0,120.0,12.0,0.0
32386,67.0,0.0,120.0,11.0,0.0
32387,51.0,0.0,120.0,11.0,0.0
32388,27.0,0.0,120.0,3.0,0.0
32389,67.0,0.0,120.0,2.0,0.0
32390,75.0,0.0,120.0,11.0,0.0
32391,56.0,0.0,120.0,4.0,0.0
32392,80.0,0.0,120.0,1.0,0.0
32393,44.0,0.0,120.0,8.0,0.0
32394,68.0,0.0,120.0,2.0,0.0
32395,72.0,0.0,120.0,2.0,0.0
32396,44.0,0.0,120.0,14.0,0.0
32397,60.0,0.0,120.0,12.0,0.0
32398,68.0,0.0,120.0,12.0,0.0
32399,51.0,0.0,120.0,12.0,0.0
32400,72.0,0.0,120.0,12.0,0.0
32401,60.0,480.0,120.0,7.0,0.0
32402,32.0,0.0,120.0,3.0,0.0
32403,60.0,0.0,120.0,4.0,0.0
32404,56.0,0.0,120.0,3.0,0.0
32405,60.0,0.0,120.0,3.0,0.0
32406,72.0,0.0,120.0,5.0,0.0
32407,60.0,0.0,120.0,11.0,0.0
32408,68.0,0.0,120.0,11.0,0.0
32409,51.0,0.0,120.0,11.0,0.0
32410,72.0,0.0,120.0,11.0,0.0
32411,80.0,0.0,120.0,0.0,0.0
32412,32.0,0.0,120.0,15.0,0.0
32413,44.0,0.0,120.0,10.0,0.0
32414,68.0,0.0,120.0,6.0,0.0
32415,72.0,0.0,120.0,1.0,0.0
32416,68.0,0.0,120.0,13.0,0.0
32417,68.0,0.0,120.0,5.0,0.0
32418,60.0,0.0,120.0,13.0,0.0
32419,51.0,0.0,120.0,13.0,0.0
32420,84.0,0.0,120.0,0.0,0.0
32421,79.0,0.0,120.0,0.0,0.0
32422,51.0,0.0,120.0,12.0,0.0
32423,79.0,0.0,120.0,1.0,0.0
32424,70.0,0.0,120.0,1.0,0.0
32425,58.0,0.0,120.0,12.0,0.0
32426,75.0,0.0,120.0,5.0,0.0
32427,27.0,0.0,120.0,3.0,0.0
32428,27.0,0.0,120.0,15.0,0.0
32429,39.0,480.0,120.0,10.0,0.0
32430,67.0,0.0,120.0,12.0,0.0
32431,67.0,0.0,120.0,13.0,0.0
32432,58.0,0.0,120.0,13.0,0.0
32433,51.0,0.0,120.0,13.0,0.0
32434,39.0,0.0,120.0,8.0,0.0
32435,63.0,0.0,120.0,4.0,0.0
32436,51.0,0.0,120.0,4.0,0.0
32437,67.0,0.0,120.0,6.0,0.0
32438,58.0,0.0,120.0,7.0,0.0
32439,87.0,0.0,120.0,0.0,0.0
32440,75.0,0.0,120.0,11.0,0.0
32441,63.0,0.0,120.0,5.0,0.0
32442,58.0,0.0,120.0,11.0,0.0
32443,58.0,0.0,120.0,3.0,0.0
32444,51.0,0.0,120.0,11.0,0.0
32445,67.0,0.0,120.0,11.0,0.0
32446,39.0,0.0,120.0,14.0,0.0
32447,55.0,0.0,120.0,3.0,0.0
32448,75.0,0.0,120.0,2.0,0.0
32449,75.0,0.0,120.0,12.0,0.0
32450,67.0,0.0,120.0,2.0,0.0
32451,80.0,0.0,120.0,1.0,0.0
32452,44.0,0.0,120.0,8.0,0.0
32453,60.0,0.0,120.0,7.0,0.0
32454,72.0,0.0,120.0,5.0,0.0
32455,44.0,0.0,120.0,10.0,0.0
32456,68.0,0.0,120.0,6.0,0.0
32457,60.0,0.0,120.0,4.0,0.0
32458,32.0,0.0,120.0,3.0,0.0
32459,32.0,0.0,120.0,15.0,0.0
32460,72.0,0.0,120.0,2.0,0.0
32461,60.0,0.0,120.0,13.0,0.0
32462,72.0,0.0,120.0,1.0,0.0
32463,80.0,0.0,120.0,0.0,0.0
32464,60.0,0.0,120.0,11.0,0.0
32465,72.0,0.0,120.0,12.0,0.0
32466,60.0,0.0,120.0,12.0,0.0
32467,68.0,0.0,120.0,12.0,0.0
32468,51.0,0.0,120.0,12.0,0.0
32469,68.0,0.0,120.0,11.0,0.0
32470,72.0,0.0,120.0,11.0,0.0
32471,51.0,0.0,120.0,11.0,0.0
32472,44.0,480.0,120.0,14.0,0.0
32473,84.0,0.0,120.0,0.0,0.0
32474,60.0,0.0,120.0,3.0,0.0
32475,56.0,0.0,120.0,3.0,0.0
32476,56.0,0.0,120.0,4.0,0.0
32477,68.0,0.0,120.0,2.0,0.0
32478,51.0,0.0,120.0,13.0,0.0
32479,68.0,0.0,120.0,13.0,0.0
32480,68.0,0.0,120.0,5.0,0.0
32481,51.0,0.0,120.0,11.0,0.0
32482,67.0,0.0,120.0,6.0,0.0
32483,27.0,0.0,120.0,15.0,0.0
32484,67.0,0.0,120.0,12.0,0.0
32485,58.0,0.0,120.0,3.0,0.0
32486,51.0,0.0,120.0,13.0,0.0
32487,75.0,0.0,120.0,12.0,0.0
32488,58.0,0.0,120.0,7.0,0.0
32489,67.0,410.0,120.0,11.0,0.0
32490,51.0,0.0,120.0,12.0,0.0
32491,39.0,0.0,120.0,8.0,0.0
32492,75.0,0.0,120.0,11.0,0.0
32493,55.0,0.0,120.0,3.0,0.0
32494,63.0,0.0,120.0,5.0,0.0
32495,58.0,0.0,120.0,13.0,0.0
32496,75.0,0.0,120.0,5.0,0.0
32497,51.0,0.0,120.0,4.0,0.0
32498,63.0,0.0,120.0,4.0,0.0
32499,39.0,0.0,120.0,14.0,0.0
32500,27.0,0.0,120.0,3.0,0.0
32501,87.0,0.0,120.0,0.0,0.0
32502,39.0,0.0,120.0,10.0,0.0
32503,79.0,0.0,120.0,0.0,0.0
32504,67.0,0.0,120.0,2.0,0.0
32505,58.0,0.0,120.0,11.0,0.0
32506,79.0,0.0,120.0,1.0,0.0
32507,70.0,0.0,120.0,1.0,0.0
32508,67.0,0.0,120.0,13.0,0.0
32509,75.0,0.0,120.0,2.0,0.0
32510,58.0,0.0,120.0,12.0,0.0
32511,72.0,0.0,930.0,0.0,0.0
32512,80.0,0.0,930.0,0.0,0.0
32513,44.0,0.0,930.0,3.0,0.0
32514,56.0,0.0,930.0,3.0,0.0
32515,68.0,0.0,930.0,2.0,0.0
32516,80.0,0.0,930.0,1.0,0.0
32517,72.0,0.0,930.0,1.0,0.0
32518,56.0,0.0,930.0,8.0,0.0
32519,44.0,50.0,60.0,10.0,0.0
32520,80.0,0.0,40.0,11.0,0.0
32521,72.0,0.0,930.0,2.0,0.0
32522,68.0,10.0,930.0,5.0,0.0
32523,68.0,0.0,930.0,6.0,0.0
32524,56.0,0.0,930.0,14.0,0.0
32525,80.0,0.0,40.0,12.0,0.0
32526,56.0,0.0,930.0,4.0,0.0
32527,60.0,0.0,930.0,7.0,0.0
32528,68.0,10.0,40.0,13.0,0.0
32529,68.0,0.0,930.0,4.0,0.0
32530,44.0,0.0,930.0,15.0,0.0
32531,92.0,0.0,930.0,0.0,0.0
32532,68.0,10.0,40.0,13.0,0.0
32533,80.0,0.0,40.0,12.0,0.0
32534,44.0,50.0,60.0,10.0,0.0
32535,80.0,0.0,40.0,11.0,0.0
32536,80.0,0.0,40.0,11.0,0.0
32537,68.0,10.0,40.0,13.0,0.0
32538,44.0,50.0,60.0,10.0,0.0
32539,80.0,0.0,40.0,12.0,0.0
32540,44.0,50.0,60.0,10.0,0.0
32541,80.0,0.0,40.0,11.0,0.0
32542,68.0,10.0,40.0,13.0,0.0
32543,80.0,0.0,40.0,12.0,0.0
32544,68.0,0.0,40.0,13.0,0.0
32545,80.0,10.0,40.0,11.0,0.0
32546,44.0,50.0,60.0,10.0,0.0
32547,80.0,0.0,40.0,12.0,0.0
32548,44.0,50.0,60.0,10.0,0.0
32549,80.0,10.0,40.0,12.0,0.0
32550,68.0,0.0,40.0,13.0,0.0
32551,80.0,0.0,40.0,11.0,0.0
32552,68.0,0.0,40.0,13.0,0.0
32553,44.0,50.0,60.0,10.0,0.0
32554,80.0,10.0,40.0,11.0,0.0
32555,80.0,0.0,40.0,12.0,0.0
32556,68.0,0.0,40.0,13.0,0.0
32557,80.0,0.0,40.0,12.0,0.0
32558,80.0,10.0,40.0,11.0,0.0
32559,44.0,50.0,60.0,10.0,0.0
32560,80.0,0.0,40.0,11.0,0.0
32561,68.0,10.0,40.0,13.0,0.0
32562,44.0,50.0,60.0,10.0,0.0
32563,80.0,0.0,40.0,12.0,0.0
32564,80.0,0.0,40.0,11.0,0.0
32565,44.0,50.0,60.0,10.0,0.0
32566,68.0,0.0,40.0,13.0,0.0
32567,80.0,10.0,40.0,12.0,0.0
32568,80.0,10.0,40.0,11.0,0.0
32569,44.0,50.0,60.0,10.0,0.0
32570,80.0,0.0,40.0,12.0,0.0
32571,68.0,0.0,40.0,13.0,0.0
32572,44.0,50.0,60.0,10.0,0.0
32573,80.0,10.0,40.0,11.0,0.0
32574,80.0,0.0,40.0,12.0,0.0
32575,68.0,0.0,40.0,13.0,0.0
32576,75.0,10.0,40.0,11.0,0.0
32577,44.0,50.0,60.0,10.0,0.0
32578,75.0,0.0,40.0,12.0,0.0
32579,63.0,0.0,40.0,13.0,0.0
32580,44.0,50.0,60.0,10.0,0.0
32581,75.0,0.0,40.0,12.0,0.0
32582,75.0,10.0,40.0,11.0,0.0
32583,63.0,0.0,40.0,13.0,0.0
32584,72.0,10.0,40.0,11.0,0.0
32585,72.0,0.0,40.0,12.0,0.0
32586,44.0,40.0,60.0,10.0,0.0
32587,60.0,0.0,40.0,13.0,0.0
32588,72.0,0.0,40.0,11.0,0.0
32589,72.0,10.0,40.0,12.0,0.0
32590,44.0,50.0,60.0,10.0,0.0
32591,60.0,0.0,40.0,13.0,0.0
32592,68.0,0.0,40.0,11.0,0.0
32593,68.0,0.0,930.0,6.0,0.0
32594,56.0,0.0,930.0,8.0,0.0
32595,68.0,10.0,40.0,12.0,0.0
32596,80.0,0.0,690.0,1.0,0.0
32597,92.0,0.0,690.0,0.0,0.0
32598,60.0,0.0,930.0,7.0,0.0
32599,44.0,0.0,690.0,15.0,0.0
32600,44.0,50.0,60.0,10.0,0.0
32601,56.0,0.0,40.0,13.0,0.0
32602,56.0,0.0,690.0,3.0,0.0
32603,80.0,10.0,690.0,0.0,0.0
32604,68.0,0.0,690.0,4.0,0.0
32605,44.0,0.0,690.0,3.0,0.0
32606,56.0,0.0,690.0,14.0,0.0
32607,80.0,0.0,690.0,2.0,0.0
32608,68.0,0.0,690.0,2.0,0.0
32609,68.0,0.0,690.0,5.0,0.0
32610,56.0,0.0,690.0,4.0,0.0
32611,44.0,50.0,60.0,10.0,0.0
32612,56.0,0.0,40.0,13.0,0.0
32613,68.0,0.0,40.0,12.0,0.0
32614,68.0,10.0,40.0,11.0,0.0
32615,68.0,0.0,40.0,12.0,0.0
32616,56.0,10.0,40.0,13.0,0.0
32617,44.0,50.0,60.0,10.0,0.0
32618,68.0,0.0,40.0,11.0,0.0
32619,68.0,0.0,40.0,12.0,0.0
32620,56.0,0.0,40.0,13.0,0.0
32621,68.0,10.0,40.0,11.0,0.0
32622,44.0,50.0,60.0,10.0,0.0
32623,56.0,0.0,40.0,13.0,0.0
32624,68.0,0.0,40.0,12.0,0.0
32625,44.0,50.0,60.0,10.0,0.0
32626,68.0,10.0,40.0,11.0,0.0
32627,68.0,10.0,40.0,12.0,0.0
32628,44.0,50.0,60.0,10.0,0.0
32629,68.0,0.0,40.0,11.0,0.0
32630,56.0,0.0,40.0,13.0,0.0
32631,44.0,50.0,60.0,10.0,0.0
32632,68.0,10.0,40.0,12.0,0.0
32633,68.0,0.0,40.0,11.0,0.0
32634,56.0,0.0,40.0,13.0,0.0
32635,44.0,50.0,60.0,10.0,0.0
32636,68.0,10.0,40.0,12.0,0.0
32637,56.0,0.0,40.0,13.0,0.0
32638,68.0,0.0,40.0,11.0,0.0
32639,44.0,50.0,60.0,10.0,0.0
32640,68.0,0.0,40.0,11.0,0.0
32641,56.0,10.0,40.0,13.0,0.0
32642,68.0,0.0,40.0,12.0,0.0
32643,68.0,10.0,40.0,11.0,0.0
32644,68.0,0.0,40.0,12.0,0.0
32645,56.0,0.0,40.0,13.0,0.0
32646,44.0,50.0,60.0,10.0,0.0
32647,44.0,40.0,60.0,10.0,0.0
32648,56.0,0.0,40.0,13.0,0.0
32649,68.0,0.0,40.0,11.0,0.0
32650,68.0,10.0,40.0,12.0,0.0
32651,56.0,0.0,40.0,13.0,0.0
32652,68.0,10.0,40.0,12.0,0.0
32653,44.0,50.0,60.0,10.0,0.0
32654,68.0,0.0,40.0,11.0,0.0
32655,51.0,0.0,90.0,14.0,0.0
32656,44.0,40.0,60.0,10.0,0.0
32657,39.0,0.0,90.0,3.0,0.0
32658,63.0,10.0,90.0,5.0,0.0
32659,63.0,0.0,40.0,11.0,0.0
32660,75.0,0.0,90.0,1.0,0.0
32661,63.0,0.0,90.0,4.0,0.0
32662,51.0,0.0,90.0,4.0,0.0
32663,75.0,0.0,90.0,2.0,0.0
32664,51.0,0.0,90.0,3.0,0.0
32665,75.0,0.0,90.0,0.0,0.0
32666,87.0,0.0,90.0,0.0,0.0
32667,39.0,0.0,90.0,15.0,0.0
32668,51.0,10.0,40.0,13.0,0.0
32669,63.0,0.0,90.0,2.0,0.0
32670,63.0,0.0,40.0,12.0,0.0
32671,63.0,0.0,40.0,12.0,0.0
32672,51.0,0.0,40.0,13.0,0.0
32673,63.0,10.0,40.0,11.0,0.0
32674,44.0,50.0,60.0,10.0,0.0
32675,48.0,0.0,90.0,4.0,0.0
32676,72.0,0.0,90.0,1.0,0.0
32677,48.0,0.0,90.0,3.0,0.0
32678,48.0,0.0,40.0,13.0,0.0
32679,60.0,0.0,90.0,2.0,0.0
32680,60.0,0.0,40.0,11.0,0.0
32681,60.0,10.0,40.0,12.0,0.0
32682,72.0,0.0,90.0,2.0,0.0
32683,36.0,0.0,90.0,15.0,0.0
32684,72.0,10.0,90.0,0.0,0.0
32685,60.0,0.0,90.0,4.0,0.0
32686,60.0,0.0,90.0,5.0,0.0
32687,44.0,40.0,60.0,10.0,0.0
32688,48.0,0.0,90.0,14.0,0.0
32689,84.0,0.0,90.0,0.0,0.0
32690,36.0,0.0,90.0,3.0,0.0
32691,48.0,0.0,40.0,13.0,0.0
32692,44.0,120.0,60.0,10.0,0.0
32693,60.0,0.0,40.0,12.0,0.0
32694,60.0,10.0,40.0,11.0,0.0
32695,32.0,0.0,120.0,15.0,0.0
32696,44.0,0.0,120.0,14.0,0.0
32697,68.0,0.0,120.0,6.0,0.0
32698,44.0,0.0,120.0,3.0,0.0
32699,68.0,0.0,120.0,1.0,0.0
32700,56.0,0.0,120.0,4.0,0.0
32701,44.0,0.0,120.0,4.0,0.0
32702,44.0,0.0,120.0,10.0,0.0
32703,56.0,0.0,120.0,12.0,0.0
32704,56.0,340.0,120.0,8.0,0.0
32705,56.0,0.0,120.0,11.0,0.0
32706,44.0,0.0,120.0,13.0,0.0
32707,80.0,0.0,120.0,0.0,0.0
32708,60.0,0.0,120.0,7.0,0.0
32709,32.0,0.0,120.0,3.0,0.0
32710,56.0,0.0,120.0,5.0,0.0
32711,68.0,0.0,120.0,2.0,0.0
32712,68.0,0.0,120.0,0.0,0.0
32713,56.0,0.0,90.0,5.0,0.0
32714,56.0,0.0,90.0,13.0,0.0
32715,32.0,0.0,90.0,15.0,0.0
32716,44.0,0.0,90.0,14.0,0.0
32717,80.0,0.0,90.0,0.0,0.0
32718,72.0,0.0,90.0,0.0,0.0
32719,68.0,0.0,90.0,5.0,0.0
32720,60.0,0.0,90.0,12.0,0.0
32721,48.0,0.0,90.0,4.0,0.0
32722,68.0,0.0,90.0,2.0,0.0
32723,68.0,0.0,90.0,11.0,0.0
32724,32.0,0.0,90.0,3.0,0.0
32725,44.0,0.0,90.0,3.0,0.0
32726,68.0,0.0,90.0,1.0,0.0
32727,56.0,20.0,90.0,4.0,0.0
32728,60.0,0.0,90.0,1.0,0.0
32729,60.0,0.0,90.0,2.0,0.0
32730,44.0,100.0,120.0,10.0,0.0
32731,68.0,0.0,90.0,1.0,0.0
32732,60.0,0.0,90.0,1.0,0.0
32733,32.0,0.0,90.0,15.0,0.0
32734,56.0,0.0,90.0,5.0,0.0
32735,60.0,0.0,90.0,2.0,0.0
32736,72.0,0.0,90.0,0.0,0.0
32737,68.0,0.0,90.0,11.0,0.0
32738,48.0,0.0,90.0,4.0,0.0
32739,80.0,0.0,90.0,0.0,0.0
32740,44.0,0.0,90.0,3.0,0.0
32741,44.0,0.0,90.0,14.0,0.0
32742,44.0,100.0,120.0,10.0,0.0
32743,32.0,0.0,90.0,3.0,0.0
32744,60.0,0.0,90.0,12.0,0.0
32745,68.0,0.0,90.0,5.0,0.0
32746,68.0,20.0,90.0,2.0,0.0
32747,56.0,0.0,90.0,4.0,0.0
32748,56.0,0.0,90.0,13.0,0.0
32749,60.0,0.0,90.0,12.0,0.0
32750,68.0,20.0,90.0,11.0,0.0
32751,72.0,0.0,90.0,0.0,0.0
32752,68.0,0.0,90.0,1.0,0.0
32753,60.0,0.0,90.0,1.0,0.0
32754,32.0,0.0,90.0,15.0,0.0
32755,44.0,0.0,90.0,14.0,0.0
32756,44.0,100.0,120.0,10.0,0.0
32757,56.0,0.0,90.0,4.0,0.0
32758,48.0,0.0,90.0,4.0,0.0
32759,68.0,0.0,90.0,5.0,0.0
32760,56.0,0.0,90.0,13.0,0.0
32761,68.0,0.0,90.0,2.0,0.0
32762,32.0,0.0,90.0,3.0,0.0
32763,60.0,0.0,90.0,2.0,0.0
32764,56.0,0.0,90.0,5.0,0.0
32765,80.0,0.0,90.0,0.0,0.0
32766,44.0,0.0,90.0,3.0,0.0
32767,56.0,0.0,90.0,13.0,0.0
32768,68.0,0.0,90.0,5.0,0.0
32769,32.0,0.0,90.0,3.0,0.0
32770,48.0,0.0,90.0,4.0,0.0
32771,56.0,20.0,90.0,4.0,0.0
32772,60.0,0.0,90.0,12.0,0.0
32773,56.0,0.0,90.0,5.0,0.0
32774,44.0,0.0,90.0,3.0,0.0
32775,44.0,0.0,90.0,14.0,0.0
32776,60.0,0.0,90.0,2.0,0.0
32777,32.0,0.0,90.0,15.0,0.0
32778,72.0,0.0,90.0,0.0,0.0
32779,80.0,0.0,90.0,0.0,0.0
32780,68.0,0.0,90.0,2.0,0.0
32781,60.0,0.0,90.0,1.0,0.0
32782,68.0,0.0,90.0,11.0,0.0
32783,44.0,100.0,120.0,10.0,0.0
32784,68.0,0.0,90.0,1.0,0.0
32785,44.0,0.0,90.0,3.0,0.0
32786,48.0,0.0,90.0,4.0,0.0
32787,56.0,0.0,90.0,5.0,0.0
32788,32.0,0.0,90.0,15.0,0.0
32789,44.0,0.0,90.0,14.0,0.0
32790,56.0,0.0,90.0,4.0,0.0
32791,68.0,20.0,90.0,5.0,0.0
32792,68.0,0.0,90.0,11.0,0.0
32793,72.0,0.0,90.0,0.0,0.0
32794,32.0,0.0,90.0,3.0,0.0
32795,68.0,0.0,90.0,2.0,0.0
32796,60.0,0.0,90.0,2.0,0.0
32797,68.0,0.0,90.0,1.0,0.0
32798,80.0,0.0,90.0,0.0,0.0
32799,44.0,120.0,120.0,10.0,0.0
32800,60.0,0.0,90.0,1.0,0.0
32801,56.0,0.0,90.0,13.0,0.0
32802,60.0,0.0,90.0,12.0,0.0
32803,68.0,0.0,120.0,11.0,0.0
32804,56.0,0.0,120.0,6.0,0.0
32805,68.0,0.0,120.0,5.0,0.0
32806,56.0,0.0,120.0,4.0,0.0
32807,56.0,0.0,120.0,5.0,0.0
32808,60.0,0.0,120.0,1.0,0.0
32809,72.0,0.0,120.0,0.0,0.0
32810,56.0,0.0,120.0,7.0,0.0
32811,60.0,0.0,120.0,12.0,0.0
32812,60.0,0.0,120.0,2.0,0.0
32813,68.0,0.0,120.0,2.0,0.0
32814,56.0,0.0,120.0,13.0,0.0
32815,80.0,0.0,120.0,0.0,0.0
32816,48.0,0.0,120.0,4.0,0.0
32817,44.0,0.0,120.0,14.0,0.0
32818,32.0,0.0,120.0,3.0,0.0
32819,68.0,0.0,120.0,1.0,0.0
32820,44.0,340.0,120.0,8.0,0.0
32821,44.0,0.0,120.0,3.0,0.0
32822,32.0,0.0,120.0,15.0,0.0
32823,44.0,0.0,120.0,10.0,0.0
32824,44.0,0.0,90.0,3.0,0.0
32825,44.0,100.0,120.0,10.0,0.0
32826,68.0,20.0,90.0,1.0,0.0
32827,72.0,0.0,90.0,1.0,0.0
32828,68.0,0.0,90.0,12.0,0.0
32829,32.0,0.0,90.0,3.0,0.0
32830,56.0,0.0,90.0,13.0,0.0
32831,80.0,0.0,90.0,0.0,0.0
32832,32.0,0.0,90.0,15.0,0.0
32833,68.0,0.0,90.0,5.0,0.0
32834,44.0,0.0,90.0,14.0,0.0
32835,72.0,0.0,90.0,11.0,0.0
32836,72.0,0.0,90.0,2.0,0.0
32837,84.0,0.0,90.0,0.0,0.0
32838,56.0,0.0,90.0,5.0,0.0
32839,56.0,0.0,90.0,4.0,0.0
32840,60.0,0.0,90.0,4.0,0.0
32841,68.0,0.0,90.0,2.0,0.0
32842,80.0,0.0,90.0,0.0,0.0
32843,84.0,0.0,90.0,0.0,0.0
32844,32.0,0.0,90.0,3.0,0.0
32845,44.0,100.0,120.0,10.0,0.0
32846,44.0,20.0,90.0,14.0,0.0
32847,72.0,0.0,90.0,2.0,0.0
32848,56.0,0.0,90.0,13.0,0.0
32849,32.0,0.0,90.0,15.0,0.0
32850,68.0,0.0,90.0,2.0,0.0
32851,56.0,0.0,90.0,5.0,0.0
32852,68.0,0.0,90.0,5.0,0.0
32853,68.0,0.0,90.0,1.0,0.0
32854,72.0,0.0,90.0,1.0,0.0
32855,60.0,0.0,90.0,4.0,0.0
32856,44.0,0.0,90.0,3.0,0.0
32857,72.0,0.0,90.0,11.0,0.0
32858,56.0,0.0,90.0,4.0,0.0
32859,68.0,0.0,90.0,12.0,0.0
32860,68.0,20.0,90.0,2.0,0.0
32861,56.0,0.0,90.0,4.0,0.0
32862,68.0,0.0,90.0,12.0,0.0
32863,72.0,0.0,90.0,11.0,0.0
32864,60.0,0.0,90.0,4.0,0.0
32865,72.0,0.0,90.0,2.0,0.0
32866,44.0,100.0,120.0,10.0,0.0
32867,68.0,0.0,90.0,1.0,0.0
32868,68.0,0.0,90.0,5.0,0.0
32869,56.0,0.0,90.0,5.0,0.0
32870,32.0,0.0,90.0,15.0,0.0
32871,44.0,0.0,90.0,3.0,0.0
32872,80.0,0.0,90.0,0.0,0.0
32873,84.0,0.0,90.0,0.0,0.0
32874,32.0,0.0,90.0,3.0,0.0
32875,44.0,0.0,90.0,14.0,0.0
32876,72.0,0.0,90.0,1.0,0.0
32877,56.0,0.0,90.0,13.0,0.0
32878,56.0,0.0,90.0,5.0,0.0
32879,56.0,0.0,90.0,4.0,0.0
32880,68.0,0.0,90.0,5.0,0.0
32881,32.0,0.0,90.0,15.0,0.0
32882,68.0,0.0,90.0,12.0,0.0
32883,44.0,0.0,90.0,3.0,0.0
32884,72.0,0.0,90.0,2.0,0.0
32885,80.0,0.0,90.0,0.0,0.0
32886,72.0,0.0,90.0,11.0,0.0
32887,68.0,0.0,90.0,2.0,0.0
32888,44.0,100.0,120.0,10.0,0.0
32889,72.0,0.0,90.0,1.0,0.0
32890,32.0,0.0,90.0,3.0,0.0
32891,56.0,0.0,90.0,13.0,0.0
32892,68.0,0.0,90.0,1.0,0.0
32893,60.0,0.0,90.0,4.0,0.0
32894,84.0,0.0,90.0,0.0,0.0
32895,44.0,20.0,90.0,14.0,0.0
32896,68.0,0.0,90.0,2.0,0.0
32897,56.0,0.0,90.0,13.0,0.0
32898,68.0,0.0,90.0,5.0,0.0
32899,56.0,0.0,90.0,5.0,0.0
32900,44.0,0.0,90.0,3.0,0.0
32901,32.0,0.0,90.0,15.0,0.0
32902,44.0,120.0,120.0,10.0,0.0
32903,72.0,0.0,90.0,1.0,0.0
32904,68.0,0.0,90.0,1.0,0.0
32905,72.0,0.0,90.0,11.0,0.0
32906,84.0,0.0,90.0,0.0,0.0
32907,68.0,0.0,90.0,12.0,0.0
32908,32.0,0.0,90.0,3.0,0.0
32909,44.0,0.0,90.0,14.0,0.0
32910,60.0,0.0,90.0,4.0,0.0
32911,80.0,0.0,90.0,0.0,0.0
32912,72.0,0.0,90.0,2.0,0.0
32913,56.0,20.0,90.0,4.0,0.0
32914,56.0,0.0,120.0,4.0,0.0
32915,60.0,0.0,120.0,4.0,0.0
32916,44.0,0.0,120.0,10.0,0.0
32917,44.0,0.0,120.0,8.0,0.0
32918,44.0,0.0,120.0,14.0,0.0
32919,80.0,0.0,120.0,0.0,0.0
32920,84.0,0.0,120.0,0.0,0.0
32921,56.0,0.0,120.0,5.0,0.0
32922,56.0,0.0,120.0,13.0,0.0
32923,44.0,0.0,120.0,3.0,0.0
32924,68.0,0.0,120.0,1.0,0.0
32925,56.0,0.0,120.0,7.0,0.0
32926,68.0,0.0,120.0,2.0,0.0
32927,72.0,0.0,120.0,2.0,0.0
32928,32.0,0.0,120.0,15.0,0.0
32929,68.0,0.0,120.0,12.0,0.0
32930,72.0,0.0,120.0,1.0,0.0
32931,72.0,0.0,120.0,11.0,0.0
32932,68.0,220.0,120.0,5.0,0.0
32933,60.0,0.0,120.0,6.0,0.0
32934,32.0,0.0,120.0,3.0,0.0
32935,68.0,0.0,90.0,5.0,0.0
32936,72.0,0.0,90.0,0.0,0.0
32937,80.0,0.0,90.0,0.0,0.0
32938,56.0,0.0,90.0,5.0,0.0
32939,32.0,0.0,90.0,3.0,0.0
32940,56.0,0.0,90.0,4.0,0.0
32941,60.0,0.0,90.0,2.0,0.0
32942,44.0,0.0,90.0,14.0,0.0
32943,68.0,0.0,90.0,11.0,0.0
32944,32.0,0.0,90.0,15.0,0.0
32945,60.0,0.0,90.0,12.0,0.0
32946,44.0,0.0,90.0,3.0,0.0
32947,56.0,0.0,90.0,13.0,0.0
32948,44.0,100.0,120.0,10.0,0.0
32949,68.0,20.0,90.0,2.0,0.0
32950,44.0,0.0,90.0,13.0,0.0
32951,48.0,0.0,90.0,4.0,0.0
32952,60.0,0.0,90.0,1.0,0.0
32953,68.0,0.0,90.0,1.0,0.0
32954,60.0,0.0,90.0,12.0,0.0
32955,68.0,20.0,90.0,2.0,0.0
32956,60.0,0.0,90.0,2.0,0.0
32957,44.0,120.0,120.0,10.0,0.0
32958,44.0,0.0,90.0,14.0,0.0
32959,68.0,0.0,90.0,1.0,0.0
32960,56.0,0.0,90.0,13.0,0.0
32961,60.0,0.0,90.0,1.0,0.0
32962,44.0,0.0,90.0,13.0,0.0
32963,44.0,0.0,90.0,3.0,0.0
32964,32.0,0.0,90.0,3.0,0.0
32965,56.0,0.0,90.0,4.0,0.0
32966,32.0,0.0,90.0,15.0,0.0
32967,48.0,0.0,90.0,4.0,0.0
32968,56.0,0.0,90.0,5.0,0.0
32969,80.0,0.0,90.0,0.0,0.0
32970,68.0,0.0,90.0,11.0,0.0
32971,68.0,0.0,90.0,5.0,0.0
32972,72.0,0.0,90.0,0.0,0.0
32973,56.0,0.0,120.0,4.0,0.0
32974,48.0,0.0,120.0,4.0,0.0
32975,32.0,0.0,120.0,3.0,0.0
32976,44.0,0.0,120.0,13.0,0.0
32977,56.0,0.0,120.0,13.0,0.0
32978,68.0,0.0,120.0,11.0,0.0
32979,44.0,0.0,120.0,10.0,0.0
32980,44.0,0.0,120.0,14.0,0.0
32981,56.0,0.0,120.0,5.0,0.0
32982,60.0,0.0,120.0,1.0,0.0
32983,44.0,0.0,120.0,8.0,0.0
32984,68.0,0.0,120.0,1.0,0.0
32985,60.0,0.0,120.0,12.0,0.0
32986,56.0,0.0,120.0,6.0,0.0
32987,56.0,220.0,120.0,7.0,0.0
32988,44.0,0.0,120.0,3.0,0.0
32989,68.0,0.0,120.0,2.0,0.0
32990,68.0,0.0,120.0,5.0,0.0
32991,32.0,0.0,120.0,15.0,0.0
32992,80.0,0.0,120.0,0.0,0.0
32993,60.0,0.0,120.0,2.0,0.0
32994,32.0,0.0,90.0,3.0,0.0
32995,44.0,100.0,120.0,10.0,0.0
32996,56.0,0.0,90.0,13.0,0.0
32997,56.0,0.0,90.0,5.0,0.0
32998,68.0,0.0,90.0,5.0,0.0
32999,44.0,0.0,90.0,13.0,0.0
33000,72.0,0.0,90.0,1.0,0.0
33001,32.0,0.0,90.0,15.0,0.0
33002,72.0,0.0,90.0,11.0,0.0
33003,68.0,0.0,90.0,1.0,0.0
33004,44.0,0.0,90.0,14.0,0.0
33005,84.0,0.0,90.0,0.0,0.0
33006,68.0,0.0,90.0,2.0,0.0
33007,60.0,0.0,90.0,4.0,0.0
33008,68.0,20.0,90.0,12.0,0.0
33009,72.0,0.0,90.0,2.0,0.0
33010,44.0,0.0,90.0,3.0,0.0
33011,56.0,0.0,90.0,4.0,0.0
33012,80.0,0.0,90.0,0.0,0.0
33013,68.0,0.0,90.0,2.0,0.0
33014,72.0,20.0,90.0,2.0,0.0
33015,32.0,0.0,90.0,3.0,0.0
33016,44.0,0.0,90.0,14.0,0.0
33017,44.0,0.0,90.0,13.0,0.0
33018,80.0,0.0,90.0,0.0,0.0
33019,84.0,0.0,90.0,0.0,0.0
33020,56.0,0.0,90.0,13.0,0.0
33021,44.0,0.0,90.0,3.0,0.0
33022,68.0,0.0,90.0,5.0,0.0
33023,72.0,0.0,90.0,11.0,0.0
33024,60.0,0.0,90.0,4.0,0.0
33025,56.0,0.0,90.0,4.0,0.0
33026,44.0,120.0,120.0,10.0,0.0
33027,32.0,0.0,90.0,15.0,0.0
33028,72.0,0.0,90.0,1.0,0.0
33029,68.0,0.0,90.0,1.0,0.0
33030,56.0,0.0,90.0,5.0,0.0
33031,68.0,0.0,90.0,12.0,0.0
33032,68.0,220.0,120.0,2.0,0.0
33033,72.0,0.0,120.0,1.0,0.0
33034,56.0,0.0,120.0,7.0,0.0
33035,80.0,0.0,120.0,0.0,0.0
33036,72.0,0.0,120.0,11.0,0.0
33037,68.0,0.0,120.0,1.0,0.0
33038,68.0,0.0,120.0,12.0,0.0
33039,60.0,0.0,120.0,4.0,0.0
33040,56.0,0.0,120.0,4.0,0.0
33041,60.0,0.0,120.0,6.0,0.0
33042,84.0,0.0,120.0,0.0,0.0
33043,44.0,0.0,120.0,13.0,0.0
33044,44.0,0.0,120.0,14.0,0.0
33045,56.0,0.0,120.0,13.0,0.0
33046,44.0,0.0,120.0,3.0,0.0
33047,68.0,0.0,120.0,5.0,0.0
33048,44.0,0.0,120.0,10.0,0.0
33049,56.0,0.0,120.0,5.0,0.0
33050,32.0,0.0,120.0,3.0,0.0
33051,44.0,0.0,120.0,8.0,0.0
33052,32.0,0.0,120.0,15.0,0.0
33053,72.0,0.0,120.0,2.0,0.0
33054,72.0,0.0,90.0,12.0,0.0
33055,44.0,0.0,90.0,13.0,0.0
33056,68.0,0.0,90.0,5.0,0.0
33057,56.0,0.0,90.0,5.0,0.0
33058,48.0,0.0,90.0,4.0,0.0
33059,63.0,0.0,90.0,4.0,0.0
33060,51.0,0.0,90.0,3.0,0.0
33061,56.0,0.0,90.0,13.0,0.0
33062,44.0,0.0,90.0,14.0,0.0
33063,60.0,0.0,90.0,2.0,0.0
33064,44.0,100.0,120.0,10.0,0.0
33065,63.0,0.0,90.0,2.0,0.0
33066,72.0,20.0,90.0,1.0,0.0
33067,75.0,0.0,90.0,1.0,0.0
33068,48.0,0.0,90.0,3.0,0.0
33069,75.0,0.0,90.0,11.0,0.0
33070,32.0,0.0,90.0,15.0,0.0
33071,32.0,0.0,90.0,3.0,0.0
33072,84.0,0.0,90.0,0.0,0.0
33073,87.0,0.0,90.0,0.0,0.0
33074,72.0,0.0,90.0,1.0,0.0
33075,75.0,0.0,90.0,1.0,0.0
33076,51.0,0.0,90.0,3.0,0.0
33077,48.0,0.0,90.0,3.0,0.0
33078,32.0,0.0,90.0,15.0,0.0
33079,75.0,0.0,90.0,11.0,0.0
33080,63.0,0.0,90.0,4.0,0.0
33081,48.0,0.0,90.0,4.0,0.0
33082,60.0,0.0,90.0,2.0,0.0
33083,44.0,120.0,120.0,10.0,0.0
33084,72.0,0.0,90.0,12.0,0.0
33085,63.0,20.0,90.0,2.0,0.0
33086,68.0,0.0,90.0,5.0,0.0
33087,56.0,0.0,90.0,5.0,0.0
33088,44.0,0.0,90.0,14.0,0.0
33089,44.0,0.0,90.0,13.0,0.0
33090,32.0,0.0,90.0,3.0,0.0
33091,87.0,0.0,90.0,0.0,0.0
33092,84.0,0.0,90.0,0.0,0.0
33093,56.0,0.0,90.0,13.0,0.0
33094,72.0,0.0,120.0,12.0,0.0
33095,32.0,0.0,120.0,3.0,0.0
33096,44.0,0.0,120.0,14.0,0.0
33097,60.0,0.0,120.0,2.0,0.0
33098,60.0,0.0,120.0,7.0,0.0
33099,63.0,0.0,120.0,6.0,0.0
33100,75.0,0.0,120.0,1.0,0.0
33101,72.0,0.0,120.0,1.0,0.0
33102,63.0,0.0,120.0,2.0,0.0
33103,44.0,0.0,120.0,10.0,0.0
33104,84.0,0.0,120.0,0.0,0.0
33105,48.0,0.0,120.0,4.0,0.0
33106,87.0,0.0,120.0,0.0,0.0
33107,44.0,0.0,120.0,13.0,0.0
33108,56.0,0.0,120.0,13.0,0.0
33109,44.0,0.0,120.0,8.0,0.0
33110,63.0,220.0,120.0,4.0,0.0
33111,68.0,0.0,120.0,5.0,0.0
33112,75.0,0.0,120.0,11.0,0.0
33113,48.0,0.0,120.0,3.0,0.0
33114,56.0,0.0,120.0,5.0,0.0
33115,32.0,0.0,120.0,15.0,0.0
33116,51.0,0.0,120.0,3.0,0.0
33117,56.0,0.0,90.0,13.0,0.0
33118,80.0,0.0,90.0,1.0,0.0
33119,44.0,0.0,90.0,14.0,0.0
33120,72.0,0.0,90.0,1.0,0.0
33121,44.0,100.0,120.0,10.0,0.0
33122,80.0,0.0,90.0,11.0,0.0
33123,60.0,0.0,90.0,2.0,0.0
33124,68.0,0.0,90.0,2.0,0.0
33125,68.0,0.0,90.0,5.0,0.0
33126,92.0,0.0,90.0,0.0,0.0
33127,56.0,0.0,90.0,3.0,0.0
33128,48.0,0.0,90.0,3.0,0.0
33129,32.0,0.0,90.0,15.0,0.0
33130,72.0,0.0,90.0,0.0,0.0
33131,56.0,0.0,90.0,5.0,0.0
33132,72.0,0.0,90.0,12.0,0.0
33133,80.0,0.0,90.0,0.0,0.0
33134,32.0,20.0,90.0,3.0,0.0
33135,56.0,0.0,90.0,4.0,0.0
33136,44.0,0.0,90.0,4.0,0.0
33137,32.0,0.0,90.0,15.0,0.0
33138,68.0,0.0,90.0,5.0,0.0
33139,68.0,0.0,90.0,2.0,0.0
33140,44.0,50.0,120.0,10.0,0.0
33141,56.0,0.0,90.0,3.0,0.0
33142,48.0,0.0,90.0,3.0,0.0
33143,56.0,0.0,90.0,13.0,0.0
33144,56.0,0.0,90.0,5.0,0.0
33145,60.0,0.0,90.0,2.0,0.0
33146,72.0,0.0,90.0,12.0,0.0
33147,92.0,0.0,90.0,0.0,0.0
33148,44.0,0.0,90.0,4.0,0.0
33149,72.0,0.0,90.0,0.0,0.0
33150,80.0,0.0,90.0,0.0,0.0
33151,32.0,0.0,90.0,3.0,0.0
33152,44.0,0.0,90.0,14.0,0.0
33153,72.0,0.0,90.0,1.0,0.0
33154,80.0,0.0,90.0,1.0,0.0
33155,80.0,0.0,90.0,11.0,0.0
33156,56.0,20.0,90.0,4.0,0.0
33157,68.0,0.0,930.0,2.0,0.0
33158,32.0,10.0,90.0,15.0,0.0
33159,44.0,0.0,90.0,14.0,0.0
33160,56.0,10.0,930.0,8.0,0.0
33161,56.0,0.0,930.0,3.0,0.0
33162,60.0,0.0,930.0,2.0,0.0
33163,68.0,0.0,930.0,5.0,0.0
33164,68.0,0.0,930.0,6.0,0.0
33165,80.0,0.0,930.0,0.0,0.0
33166,72.0,0.0,930.0,0.0,0.0
33167,56.0,0.0,930.0,7.0,0.0
33168,56.0,0.0,930.0,5.0,0.0
33169,32.0,0.0,90.0,3.0,0.0
33170,56.0,0.0,90.0,13.0,0.0
33171,44.0,0.0,930.0,4.0,0.0
33172,56.0,0.0,930.0,4.0,0.0
33173,44.0,40.0,60.0,10.0,0.0
33174,80.0,10.0,40.0,11.0,0.0
33175,80.0,0.0,930.0,1.0,0.0
33176,72.0,0.0,930.0,1.0,0.0
33177,72.0,0.0,40.0,12.0,0.0
33178,92.0,0.0,930.0,0.0,0.0
33179,44.0,50.0,60.0,10.0,0.0
33180,80.0,0.0,40.0,11.0,0.0
33181,72.0,10.0,40.0,12.0,0.0
33182,36.0,0.0,90.0,3.0,0.0
33183,60.0,10.0,90.0,13.0,0.0
33184,48.0,0.0,90.0,14.0,0.0
33185,36.0,0.0,90.0,15.0,0.0
33186,44.0,40.0,60.0,10.0,0.0
33187,80.0,10.0,40.0,11.0,0.0
33188,72.0,0.0,40.0,12.0,0.0
33189,72.0,10.0,40.0,12.0,0.0
33190,44.0,50.0,60.0,10.0,0.0
33191,80.0,0.0,40.0,11.0,0.0
33192,80.0,10.0,40.0,11.0,0.0
33193,44.0,40.0,60.0,10.0,0.0
33194,39.0,0.0,90.0,15.0,0.0
33195,51.0,0.0,90.0,14.0,0.0
33196,63.0,10.0,90.0,13.0,0.0
33197,72.0,0.0,40.0,12.0,0.0
33198,39.0,0.0,90.0,3.0,0.0
33199,80.0,0.0,40.0,11.0,0.0
33200,44.0,50.0,60.0,10.0,0.0
33201,72.0,10.0,40.0,12.0,0.0
33202,44.0,0.0,90.0,15.0,0.0
33203,44.0,0.0,90.0,3.0,0.0
33204,44.0,40.0,60.0,10.0,0.0
33205,80.0,10.0,40.0,11.0,0.0
33206,68.0,0.0,90.0,13.0,0.0
33207,72.0,0.0,40.0,12.0,0.0
33208,56.0,10.0,90.0,14.0,0.0
33209,44.0,50.0,60.0,10.0,0.0
33210,72.0,10.0,40.0,12.0,0.0
33211,80.0,0.0,40.0,11.0,0.0
33212,80.0,0.0,40.0,11.0,0.0
33213,72.0,0.0,90.0,13.0,0.0
33214,72.0,10.0,40.0,12.0,0.0
33215,48.0,0.0,90.0,15.0,0.0
33216,44.0,40.0,60.0,10.0,0.0
33217,60.0,10.0,90.0,14.0,0.0
33218,48.0,0.0,90.0,3.0,0.0
33219,80.0,10.0,40.0,11.0,0.0
33220,72.0,0.0,40.0,12.0,0.0
33221,44.0,50.0,60.0,10.0,0.0
33222,72.0,0.0,40.0,12.0,0.0
33223,63.0,0.0,90.0,14.0,0.0
33224,51.0,0.0,90.0,15.0,0.0
33225,44.0,40.0,60.0,10.0,0.0
33226,75.0,0.0,90.0,13.0,0.0
33227,51.0,10.0,90.0,3.0,0.0
33228,80.0,10.0,40.0,11.0,0.0
33229,72.0,0.0,40.0,12.0,0.0
33230,44.0,50.0,60.0,10.0,0.0
33231,80.0,10.0,40.0,11.0,0.0
33232,80.0,0.0,40.0,11.0,0.0
33233,44.0,40.0,60.0,10.0,0.0
33234,72.0,10.0,40.0,12.0,0.0
33235,60.0,0.0,90.0,14.0,0.0
33236,48.0,10.0,90.0,15.0,0.0
33237,48.0,0.0,90.0,3.0,0.0
33238,72.0,0.0,90.0,13.0,0.0
33239,80.0,10.0,40.0,11.0,0.0
33240,44.0,50.0,60.0,10.0,0.0
33241,72.0,0.0,40.0,12.0,0.0
33242,56.0,0.0,90.0,14.0,0.0
33243,72.0,0.0,40.0,12.0,0.0
33244,68.0,0.0,90.0,13.0,0.0
33245,80.0,10.0,40.0,11.0,0.0
33246,44.0,40.0,60.0,10.0,0.0
33247,44.0,0.0,90.0,3.0,0.0
33248,44.0,0.0,90.0,15.0,0.0
33249,80.0,10.0,40.0,11.0,0.0
33250,44.0,50.0,60.0,10.0,0.0
33251,72.0,0.0,40.0,12.0,0.0
33252,80.0,0.0,930.0,1.0,0.0
33253,72.0,0.0,930.0,5.0,0.0
33254,60.0,0.0,930.0,4.0,0.0
33255,44.0,0.0,930.0,4.0,0.0
33256,72.0,0.0,930.0,1.0,0.0
33257,56.0,0.0,930.0,8.0,0.0
33258,72.0,0.0,930.0,2.0,0.0
33259,68.0,0.0,930.0,2.0,0.0
33260,56.0,0.0,930.0,5.0,0.0
33261,84.0,0.0,930.0,0.0,0.0
33262,80.0,0.0,930.0,0.0,0.0
33263,39.0,0.0,90.0,3.0,0.0
33264,44.0,40.0,60.0,10.0,0.0
33265,56.0,0.0,930.0,3.0,0.0
33266,84.0,0.0,40.0,11.0,0.0
33267,96.0,0.0,930.0,0.0,0.0
33268,72.0,0.0,930.0,6.0,0.0
33269,60.0,10.0,930.0,3.0,0.0
33270,51.0,0.0,90.0,14.0,0.0
33271,63.0,0.0,90.0,13.0,0.0
33272,80.0,0.0,40.0,12.0,0.0
33273,72.0,10.0,40.0,12.0,0.0
33274,60.0,0.0,930.0,7.0,0.0
33275,39.0,10.0,90.0,15.0,0.0
33276,44.0,50.0,60.0,10.0,0.0
33277,80.0,0.0,40.0,12.0,0.0
33278,72.0,10.0,40.0,12.0,0.0
33279,84.0,0.0,40.0,11.0,0.0
33280,60.0,10.0,90.0,13.0,0.0
33281,48.0,0.0,90.0,14.0,0.0
33282,44.0,40.0,60.0,10.0,0.0
33283,84.0,10.0,40.0,11.0,0.0
33284,36.0,0.0,90.0,15.0,0.0
33285,80.0,0.0,40.0,12.0,0.0
33286,72.0,0.0,40.0,12.0,0.0
33287,36.0,0.0,90.0,3.0,0.0
33288,72.0,10.0,40.0,12.0,0.0
33289,44.0,50.0,60.0,10.0,0.0
33290,84.0,0.0,40.0,11.0,0.0
33291,80.0,0.0,40.0,12.0,0.0
33292,72.0,0.0,40.0,12.0,0.0
33293,80.0,0.0,40.0,12.0,0.0
33294,32.0,0.0,90.0,15.0,0.0
33295,32.0,0.0,90.0,3.0,0.0
33296,44.0,0.0,90.0,14.0,0.0
33297,44.0,40.0,60.0,10.0,0.0
33298,84.0,10.0,40.0,11.0,0.0
33299,56.0,10.0,90.0,13.0,0.0
33300,84.0,0.0,40.0,11.0,0.0
33301,80.0,10.0,40.0,12.0,0.0
33302,44.0,50.0,60.0,10.0,0.0
33303,72.0,0.0,40.0,12.0,0.0
33304,27.0,0.0,90.0,15.0,0.0
33305,84.0,0.0,40.0,11.0,0.0
33306,72.0,10.0,40.0,12.0,0.0
33307,27.0,0.0,90.0,3.0,0.0
33308,80.0,0.0,40.0,12.0,0.0
33309,39.0,0.0,90.0,14.0,0.0
33310,44.0,40.0,60.0,10.0,0.0
33311,51.0,10.0,90.0,13.0,0.0
33312,44.0,50.0,60.0,10.0,0.0
33313,80.0,10.0,40.0,12.0,0.0
33314,84.0,0.0,40.0,11.0,0.0
33315,72.0,0.0,40.0,12.0,0.0
33316,72.0,0.0,40.0,12.0,0.0
33317,44.0,40.0,60.0,10.0,0.0
33318,80.0,10.0,40.0,12.0,0.0
33319,36.0,0.0,90.0,14.0,0.0
33320,84.0,0.0,40.0,11.0,0.0
33321,24.0,10.0,90.0,3.0,0.0
33322,48.0,0.0,90.0,13.0,0.0
33323,24.0,0.0,90.0,15.0,0.0
33324,84.0,0.0,40.0,11.0,0.0
33325,44.0,50.0,60.0,10.0,0.0
33326,72.0,0.0,40.0,12.0,0.0
33327,80.0,10.0,40.0,12.0,0.0
33328,44.0,0.0,90.0,13.0,0.0
33329,84.0,0.0,40.0,11.0,0.0
33330,32.0,0.0,90.0,14.0,0.0
33331,20.0,0.0,90.0,15.0,0.0
33332,80.0,10.0,40.0,12.0,0.0
33333,72.0,0.0,40.0,12.0,0.0
33334,44.0,40.0,60.0,10.0,0.0
33335,20.0,10.0,90.0,3.0,0.0
33336,44.0,50.0,60.0,10.0,0.0
33337,84.0,0.0,40.0,11.0,0.0
33338,72.0,0.0,40.0,12.0,0.0
33339,80.0,10.0,40.0,12.0,0.0
33340,32.0,0.0,90.0,3.0,0.0
33341,44.0,40.0,60.0,10.0,0.0
33342,56.0,0.0,90.0,13.0,0.0
33343,80.0,0.0,40.0,12.0,0.0
33344,44.0,0.0,90.0,14.0,0.0
33345,84.0,10.0,40.0,11.0,0.0
33346,72.0,0.0,40.0,12.0,0.0
33347,32.0,10.0,90.0,15.0,0.0
33348,72.0,10.0,40.0,12.0,0.0
33349,80.0,0.0,40.0,12.0,0.0
33350,44.0,50.0,60.0,10.0,0.0
33351,84.0,0.0,40.0,11.0,0.0
33352,32.0,0.0,90.0,15.0,0.0
33353,56.0,0.0,90.0,13.0,0.0
33354,80.0,0.0,40.0,12.0,0.0
33355,84.0,10.0,40.0,11.0,0.0
33356,72.0,0.0,40.0,12.0,0.0
33357,44.0,0.0,90.0,14.0,0.0
33358,32.0,0.0,90.0,3.0,0.0
33359,44.0,40.0,60.0,10.0,0.0
33360,80.0,10.0,40.0,12.0,0.0
33361,72.0,0.0,40.0,12.0,0.0
33362,44.0,156.0,60.0,10.0,0.0
33363,84.0,0.0,40.0,11.0,0.0
33364,96.0,0.0,150.0,0.0,0.0
33365,56.0,0.0,150.0,8.0,0.0
33366,72.0,0.0,150.0,5.0,0.0
33367,56.0,0.0,150.0,5.0,0.0
33368,44.0,0.0,150.0,13.0,0.0
33369,72.0,0.0,150.0,6.0,0.0
33370,80.0,0.0,150.0,12.0,0.0
33371,84.0,0.0,150.0,0.0,0.0
33372,44.0,0.0,150.0,10.0,0.0
33373,72.0,0.0,150.0,1.0,0.0
33374,80.0,0.0,150.0,1.0,0.0
33375,72.0,960.0,150.0,12.0,0.0
33376,80.0,0.0,150.0,0.0,0.0
33377,56.0,0.0,150.0,13.0,0.0
33378,68.0,0.0,150.0,2.0,0.0
33379,44.0,0.0,150.0,4.0,0.0
33380,60.0,0.0,150.0,4.0,0.0
33381,32.0,0.0,150.0,15.0,0.0
33382,63.0,0.0,150.0,11.0,0.0
33383,72.0,0.0,150.0,11.0,0.0
33384,84.0,0.0,150.0,11.0,0.0
33385,72.0,0.0,150.0,2.0,0.0
33386,44.0,0.0,150.0,14.0,0.0
33387,60.0,0.0,150.0,3.0,0.0
33388,56.0,0.0,150.0,3.0,0.0
33389,56.0,0.0,150.0,7.0,0.0
33390,32.0,0.0,150.0,3.0,0.0
33391,80.0,0.0,150.0,0.0,0.0
33392,72.0,0.0,150.0,0.0,0.0
33393,63.0,0.0,150.0,12.0,0.0
33394,51.0,0.0,150.0,13.0,0.0
33395,72.0,0.0,150.0,11.0,0.0
33396,63.0,0.0,150.0,11.0,0.0
33397,56.0,0.0,150.0,11.0,0.0
33398,32.0,0.0,150.0,3.0,0.0
33399,60.0,0.0,150.0,2.0,0.0
33400,68.0,0.0,150.0,2.0,0.0
33401,56.0,0.0,150.0,12.0,0.0
33402,80.0,0.0,150.0,12.0,0.0
33403,72.0,0.0,150.0,12.0,0.0
33404,44.0,0.0,150.0,10.0,0.0
33405,72.0,0.0,150.0,1.0,0.0
33406,80.0,0.0,150.0,1.0,0.0
33407,56.0,0.0,150.0,3.0,0.0
33408,68.0,0.0,150.0,13.0,0.0
33409,60.0,0.0,150.0,13.0,0.0
33410,44.0,0.0,150.0,8.0,0.0
33411,44.0,0.0,150.0,14.0,0.0
33412,80.0,0.0,150.0,11.0,0.0
33413,44.0,0.0,150.0,3.0,0.0
33414,60.0,0.0,150.0,5.0,0.0
33415,48.0,0.0,150.0,4.0,0.0
33416,56.0,0.0,150.0,4.0,0.0
33417,68.0,0.0,150.0,5.0,0.0
33418,60.0,0.0,150.0,7.0,0.0
33419,32.0,960.0,150.0,15.0,0.0
33420,68.0,0.0,150.0,6.0,0.0
33421,92.0,0.0,150.0,0.0,0.0
33422,56.0,0.0,150.0,3.0,0.0
33423,44.0,0.0,150.0,3.0,0.0
33424,48.0,0.0,150.0,4.0,0.0
33425,56.0,0.0,150.0,13.0,0.0
33426,32.0,0.0,150.0,15.0,0.0
33427,32.0,0.0,150.0,3.0,0.0
33428,44.0,0.0,150.0,13.0,0.0
33429,51.0,0.0,150.0,12.0,0.0
33430,72.0,0.0,150.0,1.0,0.0
33431,80.0,0.0,150.0,0.0,0.0
33432,72.0,0.0,150.0,0.0,0.0
33433,56.0,0.0,150.0,4.0,0.0
33434,68.0,0.0,150.0,11.0,0.0
33435,60.0,0.0,150.0,11.0,0.0
33436,51.0,0.0,150.0,11.0,0.0
33437,56.0,0.0,150.0,7.0,0.0
33438,68.0,0.0,150.0,2.0,0.0
33439,60.0,0.0,150.0,2.0,0.0
33440,68.0,0.0,150.0,5.0,0.0
33441,44.0,0.0,150.0,10.0,0.0
33442,80.0,0.0,150.0,1.0,0.0
33443,68.0,0.0,150.0,12.0,0.0
33444,60.0,0.0,150.0,6.0,0.0
33445,60.0,0.0,150.0,12.0,0.0
33446,60.0,0.0,150.0,5.0,0.0
33447,44.0,0.0,150.0,14.0,0.0
33448,44.0,960.0,150.0,8.0,0.0
33449,60.0,0.0,150.0,5.0,0.0
33450,80.0,0.0,150.0,1.0,0.0
33451,68.0,0.0,150.0,5.0,0.0
33452,72.0,0.0,150.0,1.0,0.0
33453,48.0,0.0,150.0,4.0,0.0
33454,68.0,0.0,150.0,13.0,0.0
33455,44.0,0.0,150.0,14.0,0.0
33456,32.0,0.0,150.0,15.0,0.0
33457,80.0,0.0,150.0,0.0,0.0
33458,72.0,0.0,150.0,0.0,0.0
33459,60.0,0.0,150.0,7.0,0.0
33460,80.0,0.0,150.0,11.0,0.0
33461,72.0,0.0,150.0,11.0,0.0
33462,63.0,0.0,150.0,11.0,0.0
33463,56.0,0.0,150.0,11.0,0.0
33464,92.0,0.0,150.0,0.0,0.0
33465,68.0,0.0,150.0,6.0,0.0
33466,44.0,0.0,150.0,8.0,0.0
33467,80.0,0.0,150.0,12.0,0.0
33468,56.0,0.0,150.0,12.0,0.0
33469,44.0,0.0,150.0,3.0,0.0
33470,72.0,0.0,150.0,12.0,0.0
33471,56.0,0.0,150.0,4.0,0.0
33472,32.0,0.0,150.0,3.0,0.0
33473,60.0,0.0,150.0,2.0,0.0
33474,68.0,0.0,150.0,2.0,0.0
33475,44.0,480.0,150.0,13.0,0.0
33476,51.0,0.0,150.0,13.0,0.0
33477,60.0,0.0,150.0,13.0,0.0
33478,63.0,0.0,150.0,12.0,0.0
33479,44.0,0.0,150.0,10.0,0.0
33480,48.0,0.0,150.0,4.0,0.0
33481,72.0,0.0,150.0,0.0,0.0
33482,44.0,0.0,150.0,8.0,0.0
33483,72.0,480.0,150.0,1.0,0.0
33484,80.0,0.0,150.0,1.0,0.0
33485,60.0,0.0,150.0,2.0,0.0
33486,60.0,0.0,150.0,7.0,0.0
33487,44.0,0.0,150.0,13.0,0.0
33488,51.0,0.0,150.0,13.0,0.0
33489,80.0,0.0,150.0,0.0,0.0
33490,60.0,0.0,150.0,5.0,0.0
33491,92.0,0.0,150.0,0.0,0.0
33492,56.0,0.0,150.0,4.0,0.0
33493,60.0,0.0,150.0,13.0,0.0
33494,68.0,0.0,150.0,2.0,0.0
33495,80.0,0.0,150.0,12.0,0.0
33496,56.0,0.0,150.0,11.0,0.0
33497,72.0,0.0,150.0,12.0,0.0
33498,63.0,0.0,150.0,12.0,0.0
33499,68.0,0.0,150.0,13.0,0.0
33500,44.0,0.0,150.0,14.0,0.0
33501,32.0,0.0,150.0,15.0,0.0
33502,56.0,0.0,150.0,12.0,0.0
33503,32.0,0.0,150.0,3.0,0.0
33504,63.0,0.0,150.0,11.0,0.0
33505,80.0,0.0,150.0,11.0,0.0
33506,68.0,0.0,150.0,6.0,0.0
33507,44.0,0.0,150.0,10.0,0.0
33508,68.0,0.0,150.0,5.0,0.0
33509,72.0,0.0,150.0,11.0,0.0
33510,44.0,0.0,150.0,3.0,0.0
33511,72.0,0.0,150.0,11.0,0.0
33512,80.0,0.0,150.0,11.0,0.0
33513,32.0,0.0,150.0,15.0,0.0
33514,92.0,0.0,150.0,0.0,0.0
33515,72.0,0.0,150.0,0.0,0.0
33516,80.0,0.0,150.0,0.0,0.0
33517,44.0,0.0,150.0,14.0,0.0
33518,68.0,0.0,150.0,6.0,0.0
33519,60.0,0.0,150.0,7.0,0.0
33520,63.0,0.0,150.0,11.0,0.0
33521,56.0,0.0,150.0,11.0,0.0
33522,56.0,0.0,150.0,12.0,0.0
33523,72.0,0.0,150.0,1.0,0.0
33524,68.0,0.0,150.0,5.0,0.0
33525,68.0,0.0,150.0,2.0,0.0
33526,60.0,0.0,150.0,2.0,0.0
33527,32.0,0.0,150.0,3.0,0.0
33528,80.0,0.0,150.0,1.0,0.0
33529,72.0,960.0,150.0,12.0,0.0
33530,68.0,0.0,150.0,13.0,0.0
33531,60.0,0.0,150.0,13.0,0.0
33532,44.0,0.0,150.0,10.0,0.0
33533,60.0,0.0,150.0,5.0,0.0
33534,51.0,0.0,150.0,13.0,0.0
33535,44.0,0.0,150.0,13.0,0.0
33536,56.0,0.0,150.0,4.0,0.0
33537,48.0,0.0,150.0,4.0,0.0
33538,63.0,0.0,150.0,12.0,0.0
33539,44.0,0.0,150.0,8.0,0.0
33540,80.0,0.0,150.0,12.0,0.0
33541,44.0,0.0,150.0,3.0,0.0
33542,44.0,0.0,150.0,14.0,0.0
33543,72.0,834.0,150.0,1.0,0.0
33544,80.0,0.0,150.0,11.0,0.0
33545,80.0,0.0,150.0,1.0,0.0
33546,48.0,0.0,150.0,4.0,0.0
33547,72.0,0.0,150.0,11.0,0.0
33548,63.0,0.0,150.0,11.0,0.0
33549,56.0,0.0,150.0,11.0,0.0
33550,80.0,0.0,150.0,0.0,0.0
33551,72.0,0.0,150.0,0.0,0.0
33552,68.0,0.0,150.0,6.0,0.0
33553,92.0,0.0,150.0,0.0,0.0
33554,56.0,0.0,150.0,7.0,0.0
33555,44.0,0.0,150.0,10.0,0.0
33556,44.0,0.0,150.0,13.0,0.0
33557,44.0,0.0,150.0,8.0,0.0
33558,51.0,0.0,150.0,13.0,0.0
33559,44.0,0.0,150.0,3.0,0.0
33560,32.0,0.0,150.0,15.0,0.0
33561,68.0,0.0,150.0,5.0,0.0
33562,60.0,0.0,150.0,13.0,0.0
33563,68.0,0.0,150.0,13.0,0.0
33564,60.0,0.0,150.0,2.0,0.0
33565,68.0,0.0,150.0,2.0,0.0
33566,72.0,0.0,150.0,12.0,0.0
33567,80.0,0.0,150.0,12.0,0.0
33568,63.0,0.0,150.0,12.0,0.0
33569,56.0,0.0,150.0,12.0,0.0
33570,32.0,0.0,150.0,3.0,0.0
33571,60.0,0.0,150.0,5.0,0.0
33572,56.0,0.0,150.0,4.0,0.0
33573,56.0,0.0,2400.0,11.0,0.0
33574,32.0,0.0,2400.0,15.0,0.0
33575,44.0,0.0,120.0,8.0,0.0
33576,44.0,0.0,2400.0,3.0,0.0
33577,32.0,0.0,2400.0,3.0,0.0
33578,44.0,0.0,2400.0,14.0,0.0
33579,56.0,0.0,2400.0,12.0,0.0
33580,56.0,0.0,2400.0,4.0,0.0
33581,56.0,0.0,2400.0,2.0,0.0
33582,68.0,1200.0,2400.0,1.0,0.0
33583,44.0,0.0,2400.0,4.0,0.0
33584,56.0,0.0,2400.0,5.0,0.0
33585,44.0,0.0,2400.0,13.0,0.0
33586,48.0,0.0,120.0,7.0,0.0
33587,68.0,0.0,2400.0,0.0,0.0
33588,80.0,0.0,2400.0,0.0,0.0
33589,92.0,0.0,2400.0,0.0,0.0
33590,56.0,30.0,120.0,6.0,0.0
33591,44.0,30.0,30.0,10.0,0.0
33592,44.0,30.0,30.0,10.0,0.0
33593,44.0,30.0,30.0,10.0,0.0
33594,44.0,0.0,30.0,10.0,0.0
33595,44.0,30.0,30.0,10.0,0.0
33596,44.0,30.0,30.0,10.0,0.0
33597,44.0,30.0,30.0,10.0,0.0
33598,44.0,30.0,30.0,10.0,0.0
33599,44.0,30.0,30.0,10.0,0.0
33600,44.0,30.0,30.0,10.0,0.0
33601,44.0,30.0,30.0,10.0,0.0
33602,44.0,30.0,30.0,10.0,0.0
33603,44.0,30.0,30.0,10.0,0.0
33604,44.0,30.0,30.0,10.0,0.0
33605,44.0,30.0,30.0,10.0,0.0
33606,44.0,30.0,30.0,10.0,0.0
33607,44.0,30.0,30.0,10.0,0.0
33608,44.0,30.0,30.0,10.0,0.0
33609,44.0,30.0,30.0,10.0,0.0
33610,44.0,30.0,30.0,10.0,0.0
33611,44.0,30.0,30.0,10.0,0.0
33612,44.0,30.0,30.0,10.0,0.0
33613,44.0,30.0,30.0,10.0,0.0
33614,44.0,30.0,30.0,10.0,0.0
33615,44.0,30.0,30.0,10.0,0.0
33616,44.0,30.0,30.0,10.0,0.0
33617,44.0,30.0,30.0,10.0,0.0
33618,44.0,30.0,30.0,10.0,0.0
33619,44.0,30.0,30.0,10.0,0.0
33620,44.0,30.0,30.0,10.0,0.0
33621,44.0,30.0,30.0,10.0,0.0
33622,44.0,30.0,30.0,10.0,0.0
33623,44.0,30.0,30.0,10.0,0.0
33624,44.0,30.0,30.0,10.0,0.0
33625,44.0,30.0,30.0,10.0,0.0
33626,44.0,30.0,30.0,10.0,0.0
33627,44.0,30.0,30.0,10.0,0.0
33628,44.0,30.0,30.0,10.0,0.0
33629,44.0,30.0,30.0,10.0,0.0
33630,44.0,30.0,30.0,10.0,0.0
33631,44.0,30.0,30.0,10.0,0.0
33632,44.0,30.0,30.0,10.0,0.0
33633,44.0,30.0,30.0,10.0,0.0
33634,44.0,30.0,30.0,10.0,0.0
33635,44.0,30.0,30.0,10.0,0.0
33636,44.0,30.0,30.0,10.0,0.0
33637,44.0,30.0,30.0,10.0,0.0
33638,44.0,30.0,30.0,10.0,0.0
33639,44.0,30.0,30.0,10.0,0.0
33640,44.0,30.0,30.0,10.0,0.0
33641,44.0,30.0,30.0,10.0,0.0
33642,44.0,30.0,30.0,10.0,0.0
33643,44.0,30.0,30.0,10.0,0.0
33644,44.0,30.0,30.0,10.0,0.0
33645,44.0,30.0,30.0,10.0,0.0
33646,44.0,30.0,30.0,10.0,0.0
33647,44.0,30.0,30.0,10.0,0.0
33648,44.0,30.0,30.0,10.0,0.0
33649,44.0,30.0,30.0,10.0,0.0
33650,44.0,30.0,30.0,10.0,0.0
33651,44.0,30.0,30.0,10.0,0.0
33652,44.0,30.0,30.0,10.0,0.0
33653,44.0,30.0,30.0,10.0,0.0
33654,44.0,30.0,30.0,10.0,0.0
33655,44.0,30.0,30.0,10.0,0.0
33656,44.0,30.0,30.0,10.0,0.0
33657,44.0,30.0,30.0,10.0,0.0
33658,44.0,30.0,30.0,10.0,0.0
33659,44.0,30.0,30.0,10.0,0.0
33660,44.0,30.0,30.0,10.0,0.0
33661,44.0,30.0,30.0,10.0,0.0
33662,44.0,30.0,30.0,10.0,0.0
33663,44.0,30.0,30.0,10.0,0.0
33664,44.0,30.0,30.0,10.0,0.0
33665,44.0,30.0,30.0,10.0,0.0
33666,44.0,30.0,30.0,10.0,0.0
33667,44.0,30.0,30.0,10.0,0.0
33668,44.0,30.0,30.0,10.0,0.0
33669,44.0,30.0,30.0,10.0,0.0
33670,44.0,0.0,30.0,10.0,0.0
33671,53.0,0.0,240.0,11.0,0.0
