,note,step,duration,channel,velocity
0,54.0,36.0,660.0,5.0,0.0
1,42.0,0.0,660.0,5.0,0.0
2,66.0,0.0,40.0,7.0,0.0
3,59.0,0.0,40.0,7.0,0.0
4,63.0,60.0,40.0,7.0,0.0
5,35.0,0.0,40.0,10.0,0.0
6,63.0,0.0,40.0,7.0,0.0
7,59.0,0.0,40.0,7.0,0.0
8,71.0,0.0,40.0,7.0,0.0
9,54.0,60.0,40.0,10.0,0.0
10,42.0,60.0,40.0,10.0,0.0
11,51.0,0.0,40.0,10.0,0.0
12,47.0,0.0,40.0,10.0,0.0
13,71.0,0.0,40.0,7.0,0.0
14,66.0,0.0,40.0,7.0,0.0
15,63.0,0.0,40.0,7.0,0.0
16,63.0,0.0,40.0,7.0,0.0
17,66.0,0.0,40.0,7.0,0.0
18,75.0,0.0,40.0,7.0,0.0
19,35.0,60.0,40.0,10.0,0.0
20,54.0,36.0,40.0,10.0,0.0
21,75.0,24.0,20.0,7.0,0.0
22,66.0,0.0,40.0,7.0,0.0
23,71.0,6.0,40.0,7.0,0.0
24,42.0,0.0,40.0,10.0,0.0
25,51.0,0.0,40.0,10.0,0.0
26,47.0,0.0,40.0,10.0,0.0
27,78.0,30.0,20.0,7.0,0.0
28,78.0,24.0,20.0,7.0,0.0
29,35.0,0.0,40.0,10.0,0.0
30,71.0,6.0,40.0,7.0,0.0
31,75.0,0.0,40.0,7.0,0.0
32,83.0,54.0,20.0,7.0,0.0
33,71.0,0.0,210.0,7.0,0.0
34,75.0,0.0,210.0,7.0,0.0
35,78.0,0.0,210.0,7.0,0.0
36,83.0,12.0,210.0,7.0,0.0
37,54.0,60.0,40.0,10.0,0.0
38,47.0,60.0,40.0,10.0,0.0
39,51.0,0.0,40.0,10.0,0.0
40,42.0,0.0,40.0,10.0,0.0
41,35.0,48.0,40.0,10.0,0.0
42,54.0,0.0,40.0,10.0,0.0
43,83.0,24.0,20.0,7.0,0.0
44,75.0,0.0,40.0,7.0,0.0
45,78.0,0.0,40.0,7.0,0.0
46,47.0,0.0,40.0,10.0,0.0
47,51.0,6.0,40.0,10.0,0.0
48,42.0,0.0,40.0,10.0,0.0
49,87.0,54.0,20.0,7.0,0.0
50,30.0,0.0,40.0,10.0,0.0
51,54.0,0.0,2100.0,5.0,0.0
52,42.0,36.0,2100.0,5.0,0.0
53,76.0,0.0,40.0,7.0,0.0
54,78.0,0.0,40.0,7.0,0.0
55,73.0,0.0,40.0,7.0,0.0
56,85.0,60.0,40.0,7.0,0.0
57,54.0,36.0,40.0,10.0,0.0
58,76.0,6.0,40.0,7.0,0.0
59,82.0,24.0,20.0,7.0,0.0
60,78.0,0.0,40.0,7.0,0.0
61,73.0,0.0,40.0,7.0,0.0
62,46.0,0.0,40.0,10.0,0.0
63,49.0,0.0,40.0,10.0,0.0
64,42.0,0.0,40.0,10.0,0.0
65,85.0,54.0,20.0,7.0,0.0
66,78.0,60.0,40.0,7.0,0.0
67,75.0,0.0,40.0,7.0,0.0
68,35.0,0.0,40.0,10.0,0.0
69,83.0,0.0,40.0,7.0,0.0
70,54.0,36.0,40.0,10.0,0.0
71,42.0,0.0,40.0,10.0,0.0
72,51.0,6.0,40.0,10.0,0.0
73,47.0,0.0,40.0,10.0,0.0
74,75.0,24.0,20.0,7.0,0.0
75,71.0,0.0,40.0,7.0,0.0
76,78.0,18.0,20.0,7.0,0.0
77,70.0,12.0,270.0,7.0,0.0
78,73.0,0.0,270.0,7.0,0.0
79,30.0,9.0,40.0,10.0,0.0
80,78.0,15.0,15.0,7.0,0.0
81,80.0,15.0,15.0,7.0,0.0
82,78.0,6.0,15.0,7.0,0.0
83,80.0,15.0,15.0,7.0,0.0
84,78.0,15.0,15.0,7.0,0.0
85,54.0,9.0,40.0,10.0,0.0
86,80.0,15.0,15.0,7.0,0.0
87,78.0,6.0,15.0,7.0,0.0
88,80.0,27.0,15.0,7.0,0.0
89,78.0,24.0,20.0,7.0,0.0
90,49.0,6.0,40.0,10.0,0.0
91,46.0,0.0,40.0,10.0,0.0
92,42.0,0.0,40.0,10.0,0.0
93,77.0,54.0,20.0,7.0,0.0
94,78.0,0.0,90.0,7.0,0.0
95,30.0,48.0,40.0,10.0,0.0
96,54.0,60.0,40.0,10.0,0.0
97,46.0,0.0,40.0,10.0,0.0
98,66.0,60.0,40.0,7.0,0.0
99,49.0,0.0,40.0,10.0,0.0
100,42.0,0.0,40.0,10.0,0.0
101,63.0,0.0,40.0,7.0,0.0
102,66.0,0.0,40.0,7.0,0.0
103,59.0,0.0,40.0,7.0,0.0
104,35.0,60.0,40.0,10.0,0.0
105,71.0,60.0,40.0,7.0,0.0
106,54.0,0.0,40.0,10.0,0.0
107,63.0,0.0,40.0,7.0,0.0
108,59.0,0.0,40.0,7.0,0.0
109,47.0,0.0,40.0,10.0,0.0
110,63.0,0.0,40.0,7.0,0.0
111,42.0,0.0,40.0,10.0,0.0
112,51.0,0.0,40.0,10.0,0.0
113,71.0,60.0,40.0,7.0,0.0
114,66.0,0.0,40.0,7.0,0.0
115,35.0,0.0,40.0,10.0,0.0
116,75.0,0.0,40.0,7.0,0.0
117,66.0,60.0,40.0,7.0,0.0
118,63.0,0.0,40.0,7.0,0.0
119,54.0,36.0,40.0,10.0,0.0
120,75.0,24.0,20.0,7.0,0.0
121,47.0,0.0,40.0,10.0,0.0
122,42.0,6.0,40.0,10.0,0.0
123,51.0,0.0,40.0,10.0,0.0
124,71.0,0.0,40.0,7.0,0.0
125,66.0,0.0,40.0,7.0,0.0
126,78.0,30.0,20.0,7.0,0.0
127,75.0,0.0,40.0,7.0,0.0
128,71.0,0.0,40.0,7.0,0.0
129,78.0,24.0,20.0,7.0,0.0
130,35.0,6.0,40.0,10.0,0.0
131,83.0,54.0,20.0,7.0,0.0
132,54.0,60.0,40.0,10.0,0.0
133,78.0,0.0,210.0,7.0,0.0
134,75.0,0.0,210.0,7.0,0.0
135,71.0,12.0,210.0,7.0,0.0
136,83.0,0.0,210.0,7.0,0.0
137,51.0,0.0,40.0,10.0,0.0
138,42.0,0.0,40.0,10.0,0.0
139,47.0,60.0,40.0,10.0,0.0
140,35.0,48.0,40.0,10.0,0.0
141,54.0,36.0,40.0,10.0,0.0
142,75.0,0.0,40.0,7.0,0.0
143,78.0,6.0,40.0,7.0,0.0
144,42.0,0.0,40.0,10.0,0.0
145,51.0,0.0,40.0,10.0,0.0
146,47.0,0.0,40.0,10.0,0.0
147,83.0,24.0,20.0,7.0,0.0
148,87.0,54.0,20.0,7.0,0.0
149,76.0,60.0,40.0,7.0,0.0
150,30.0,0.0,40.0,10.0,0.0
151,85.0,0.0,40.0,7.0,0.0
152,78.0,0.0,40.0,7.0,0.0
153,73.0,0.0,40.0,7.0,0.0
154,54.0,36.0,40.0,10.0,0.0
155,46.0,0.0,40.0,10.0,0.0
156,49.0,6.0,40.0,10.0,0.0
157,42.0,0.0,40.0,10.0,0.0
158,73.0,0.0,40.0,7.0,0.0
159,76.0,0.0,40.0,7.0,0.0
160,78.0,0.0,40.0,7.0,0.0
161,82.0,24.0,20.0,7.0,0.0
162,85.0,54.0,20.0,7.0,0.0
163,35.0,0.0,40.0,10.0,0.0
164,75.0,60.0,40.0,7.0,0.0
165,78.0,0.0,40.0,7.0,0.0
166,83.0,0.0,40.0,7.0,0.0
167,54.0,36.0,40.0,10.0,0.0
168,75.0,24.0,20.0,7.0,0.0
169,42.0,6.0,40.0,10.0,0.0
170,47.0,0.0,40.0,10.0,0.0
171,51.0,0.0,40.0,10.0,0.0
172,71.0,0.0,40.0,7.0,0.0
173,78.0,18.0,20.0,7.0,0.0
174,42.0,9.0,40.0,10.0,0.0
175,73.0,0.0,270.0,7.0,0.0
176,70.0,0.0,270.0,7.0,0.0
177,78.0,15.0,15.0,7.0,0.0
178,80.0,15.0,15.0,7.0,0.0
179,78.0,6.0,15.0,7.0,0.0
180,80.0,15.0,15.0,7.0,0.0
181,54.0,9.0,40.0,10.0,0.0
182,78.0,15.0,15.0,7.0,0.0
183,80.0,15.0,15.0,7.0,0.0
184,78.0,6.0,15.0,7.0,0.0
185,80.0,27.0,15.0,7.0,0.0
186,46.0,6.0,40.0,10.0,0.0
187,49.0,0.0,40.0,10.0,0.0
188,78.0,24.0,20.0,7.0,0.0
189,77.0,54.0,20.0,7.0,0.0
190,78.0,12.0,90.0,7.0,0.0
191,42.0,48.0,40.0,10.0,0.0
192,61.0,0.0,40.0,10.0,0.0
193,58.0,0.0,40.0,10.0,0.0
194,60.0,6.0,40.0,10.0,0.0
195,57.0,0.0,40.0,10.0,0.0
196,66.0,0.0,20.0,7.0,0.0
197,78.0,24.0,20.0,7.0,0.0
198,77.0,54.0,20.0,7.0,0.0
199,65.0,0.0,20.0,7.0,0.0
200,77.0,0.0,40.0,7.0,0.0
201,42.0,48.0,40.0,10.0,0.0
202,65.0,0.0,40.0,7.0,0.0
203,42.0,0.0,90.0,5.0,0.0
204,54.0,12.0,90.0,5.0,0.0
205,59.0,36.0,40.0,10.0,0.0
206,56.0,0.0,40.0,10.0,0.0
207,55.0,6.0,40.0,10.0,0.0
208,76.0,0.0,20.0,7.0,0.0
209,58.0,0.0,40.0,10.0,0.0
210,64.0,24.0,20.0,7.0,0.0
211,75.0,0.0,20.0,7.0,0.0
212,63.0,54.0,20.0,7.0,0.0
213,75.0,0.0,40.0,7.0,0.0
214,63.0,0.0,40.0,7.0,0.0
215,42.0,48.0,40.0,10.0,0.0
216,42.0,12.0,90.0,5.0,0.0
217,54.0,0.0,90.0,5.0,0.0
218,54.0,36.0,40.0,10.0,0.0
219,57.0,0.0,40.0,10.0,0.0
220,53.0,0.0,40.0,10.0,0.0
221,56.0,6.0,40.0,10.0,0.0
222,74.0,24.0,20.0,7.0,0.0
223,62.0,0.0,20.0,7.0,0.0
224,61.0,0.0,20.0,7.0,0.0
225,73.0,54.0,20.0,7.0,0.0
226,42.0,0.0,90.0,5.0,0.0
227,61.0,0.0,40.0,7.0,0.0
228,73.0,48.0,40.0,7.0,0.0
229,54.0,12.0,90.0,5.0,0.0
230,42.0,0.0,40.0,10.0,0.0
231,55.0,36.0,40.0,10.0,0.0
232,52.0,0.0,40.0,10.0,0.0
233,72.0,24.0,20.0,7.0,0.0
234,60.0,0.0,20.0,7.0,0.0
235,51.0,0.0,40.0,10.0,0.0
236,54.0,6.0,40.0,10.0,0.0
237,71.0,0.0,20.0,7.0,0.0
238,59.0,54.0,20.0,7.0,0.0
239,71.0,0.0,40.0,7.0,0.0
240,42.0,48.0,40.0,10.0,0.0
241,59.0,0.0,40.0,7.0,0.0
242,54.0,0.0,90.0,5.0,0.0
243,42.0,12.0,90.0,5.0,0.0
244,53.0,36.0,40.0,10.0,0.0
245,50.0,0.0,40.0,10.0,0.0
246,71.0,0.0,20.0,7.0,0.0
247,64.0,0.0,40.0,7.0,0.0
248,49.0,0.0,40.0,10.0,0.0
249,66.0,0.0,40.0,7.0,0.0
250,59.0,24.0,20.0,7.0,0.0
251,52.0,6.0,40.0,10.0,0.0
252,58.0,54.0,20.0,7.0,0.0
253,70.0,0.0,20.0,7.0,0.0
254,30.0,48.0,40.0,10.0,0.0
255,58.0,12.0,90.0,7.0,0.0
256,54.0,0.0,660.0,5.0,0.0
257,42.0,36.0,660.0,5.0,0.0
258,64.0,0.0,90.0,7.0,0.0
259,70.0,0.0,90.0,7.0,0.0
260,66.0,0.0,90.0,7.0,0.0
261,54.0,60.0,40.0,10.0,0.0
262,58.0,0.0,40.0,7.0,0.0
263,49.0,0.0,40.0,10.0,0.0
264,46.0,0.0,40.0,10.0,0.0
265,42.0,60.0,40.0,10.0,0.0
266,64.0,0.0,40.0,7.0,0.0
267,70.0,0.0,40.0,7.0,0.0
268,66.0,0.0,40.0,7.0,0.0
269,30.0,24.0,40.0,10.0,0.0
270,70.0,0.0,60.0,7.0,0.0
271,64.0,0.0,60.0,7.0,0.0
272,66.0,36.0,60.0,7.0,0.0
273,58.0,0.0,60.0,7.0,0.0
274,54.0,6.0,40.0,10.0,0.0
275,71.0,0.0,20.0,7.0,0.0
276,66.0,0.0,20.0,7.0,0.0
277,64.0,54.0,20.0,7.0,0.0
278,59.0,0.0,20.0,7.0,0.0
279,61.0,0.0,40.0,7.0,0.0
280,49.0,0.0,40.0,10.0,0.0
281,42.0,60.0,40.0,10.0,0.0
282,64.0,0.0,40.0,7.0,0.0
283,66.0,0.0,40.0,7.0,0.0
284,73.0,0.0,40.0,7.0,0.0
285,46.0,0.0,40.0,10.0,0.0
286,64.0,0.0,40.0,7.0,0.0
287,66.0,0.0,40.0,7.0,0.0
288,61.0,60.0,40.0,7.0,0.0
289,73.0,0.0,40.0,7.0,0.0
290,35.0,0.0,40.0,10.0,0.0
291,75.0,60.0,40.0,7.0,0.0
292,63.0,0.0,40.0,7.0,0.0
293,66.0,0.0,40.0,7.0,0.0
294,54.0,0.0,40.0,10.0,0.0
295,47.0,0.0,40.0,10.0,0.0
296,42.0,60.0,40.0,10.0,0.0
297,71.0,0.0,40.0,7.0,0.0
298,63.0,0.0,40.0,7.0,0.0
299,66.0,0.0,40.0,7.0,0.0
300,51.0,0.0,40.0,10.0,0.0
301,59.0,0.0,40.0,7.0,0.0
302,63.0,12.0,90.0,7.0,0.0
303,59.0,0.0,90.0,7.0,0.0
304,66.0,0.0,90.0,7.0,0.0
305,71.0,0.0,90.0,7.0,0.0
306,35.0,48.0,40.0,10.0,0.0
307,58.0,0.0,40.0,10.0,0.0
308,61.0,0.0,40.0,10.0,0.0
309,78.0,24.0,20.0,7.0,0.0
310,57.0,6.0,40.0,10.0,0.0
311,60.0,0.0,40.0,10.0,0.0
312,66.0,0.0,20.0,7.0,0.0
313,77.0,0.0,20.0,7.0,0.0
314,65.0,54.0,20.0,7.0,0.0
315,77.0,48.0,40.0,7.0,0.0
316,65.0,0.0,40.0,7.0,0.0
317,42.0,0.0,40.0,10.0,0.0
318,42.0,0.0,90.0,5.0,0.0
319,54.0,12.0,90.0,5.0,0.0
320,59.0,36.0,40.0,10.0,0.0
321,56.0,0.0,40.0,10.0,0.0
322,64.0,24.0,20.0,7.0,0.0
323,58.0,0.0,40.0,10.0,0.0
324,76.0,0.0,20.0,7.0,0.0
325,55.0,6.0,40.0,10.0,0.0
326,75.0,54.0,20.0,7.0,0.0
327,63.0,0.0,20.0,7.0,0.0
328,35.0,0.0,40.0,10.0,0.0
329,54.0,12.0,90.0,5.0,0.0
330,42.0,0.0,90.0,5.0,0.0
331,63.0,48.0,40.0,7.0,0.0
332,75.0,0.0,40.0,7.0,0.0
333,54.0,36.0,40.0,10.0,0.0
334,57.0,0.0,40.0,10.0,0.0
335,56.0,6.0,40.0,10.0,0.0
336,62.0,0.0,20.0,7.0,0.0
337,74.0,24.0,20.0,7.0,0.0
338,53.0,0.0,40.0,10.0,0.0
339,61.0,0.0,20.0,7.0,0.0
340,73.0,54.0,20.0,7.0,0.0
341,42.0,12.0,90.0,5.0,0.0
342,54.0,0.0,90.0,5.0,0.0
343,35.0,48.0,40.0,10.0,0.0
344,61.0,0.0,40.0,7.0,0.0
345,73.0,0.0,40.0,7.0,0.0
346,55.0,0.0,40.0,10.0,0.0
347,52.0,36.0,40.0,10.0,0.0
348,51.0,0.0,40.0,10.0,0.0
349,54.0,6.0,40.0,10.0,0.0
350,72.0,24.0,20.0,7.0,0.0
351,60.0,0.0,20.0,7.0,0.0
352,59.0,54.0,20.0,7.0,0.0
353,71.0,0.0,20.0,7.0,0.0
354,49.0,0.0,90.0,10.0,0.0
355,58.0,48.0,40.0,7.0,0.0
356,42.0,0.0,90.0,5.0,0.0
357,54.0,0.0,90.0,5.0,0.0
358,52.0,48.0,90.0,10.0,0.0
359,70.0,0.0,40.0,7.0,0.0
360,42.0,0.0,90.0,10.0,0.0
361,46.0,0.0,90.0,10.0,0.0
362,46.0,0.0,20.0,12.0,0.0
363,58.0,0.0,20.0,11.0,0.0
364,45.0,0.0,20.0,12.0,0.0
365,57.0,0.0,20.0,11.0,0.0
366,45.0,0.0,40.0,12.0,0.0
367,57.0,0.0,40.0,11.0,0.0
368,44.0,0.0,20.0,12.0,0.0
369,56.0,0.0,20.0,11.0,0.0
370,43.0,0.0,20.0,12.0,0.0
371,55.0,0.0,20.0,11.0,0.0
372,43.0,0.0,40.0,12.0,0.0
373,55.0,0.0,40.0,11.0,0.0
374,54.0,0.0,20.0,11.0,0.0
375,42.0,30.0,20.0,12.0,0.0
376,41.0,54.0,20.0,12.0,0.0
377,53.0,0.0,20.0,11.0,0.0
378,53.0,0.0,40.0,11.0,0.0
379,41.0,0.0,40.0,12.0,0.0
380,40.0,0.0,20.0,12.0,0.0
381,52.0,0.0,20.0,11.0,0.0
382,51.0,0.0,20.0,11.0,0.0
383,39.0,54.0,20.0,12.0,0.0
384,51.0,0.0,40.0,11.0,0.0
385,39.0,96.0,40.0,12.0,0.0
386,66.0,6.0,40.0,3.0,0.0
387,49.0,0.0,20.0,11.0,0.0
388,54.0,0.0,20.0,11.0,0.0
389,54.0,0.0,40.0,3.0,0.0
390,54.0,0.0,40.0,4.0,0.0
391,66.0,0.0,40.0,1.0,0.0
392,54.0,0.0,40.0,5.0,0.0
393,66.0,0.0,40.0,5.0,0.0
394,78.0,0.0,40.0,1.0,0.0
395,49.0,0.0,20.0,13.0,0.0
396,37.0,24.0,20.0,12.0,0.0
397,66.0,0.0,20.0,11.0,0.0
398,66.0,0.0,40.0,0.0,0.0
399,42.0,0.0,40.0,4.0,0.0
400,47.0,0.0,20.0,11.0,0.0
401,35.0,0.0,20.0,12.0,0.0
402,54.0,0.0,20.0,11.0,0.0
403,47.0,0.0,20.0,13.0,0.0
404,66.0,0.0,20.0,11.0,0.0
405,42.0,0.0,40.0,4.0,0.0
406,35.0,0.0,40.0,12.0,0.0
407,75.0,0.0,40.0,1.0,0.0
408,71.0,60.0,40.0,1.0,0.0
409,47.0,0.0,40.0,8.0,0.0
410,54.0,0.0,40.0,4.0,0.0
411,66.0,0.0,40.0,11.0,0.0
412,51.0,0.0,150.0,11.0,0.0
413,47.0,0.0,150.0,11.0,0.0
414,54.0,0.0,150.0,11.0,0.0
415,47.0,0.0,40.0,13.0,0.0
416,47.0,0.0,40.0,6.0,0.0
417,66.0,0.0,40.0,3.0,0.0
418,54.0,0.0,40.0,3.0,0.0
419,66.0,0.0,40.0,0.0,0.0
420,63.0,0.0,120.0,5.0,0.0
421,59.0,0.0,120.0,5.0,0.0
422,59.0,0.0,40.0,6.0,0.0
423,71.0,0.0,40.0,0.0,0.0
424,47.0,0.0,40.0,13.0,0.0
425,71.0,0.0,40.0,11.0,0.0
426,47.0,0.0,40.0,6.0,0.0
427,59.0,0.0,40.0,4.0,0.0
428,47.0,0.0,40.0,4.0,0.0
429,71.0,0.0,40.0,3.0,0.0
430,59.0,0.0,40.0,3.0,0.0
431,71.0,0.0,40.0,1.0,0.0
432,75.0,0.0,40.0,1.0,0.0
433,59.0,36.0,40.0,6.0,0.0
434,35.0,0.0,40.0,12.0,0.0
435,71.0,0.0,40.0,0.0,0.0
436,47.0,0.0,40.0,13.0,0.0
437,47.0,0.0,40.0,8.0,0.0
438,35.0,0.0,40.0,12.0,0.0
439,63.0,0.0,150.0,5.0,0.0
440,59.0,0.0,150.0,6.0,0.0
441,47.0,0.0,150.0,6.0,0.0
442,59.0,0.0,40.0,4.0,0.0
443,47.0,0.0,40.0,4.0,0.0
444,71.0,0.0,40.0,1.0,0.0
445,59.0,0.0,150.0,5.0,0.0
446,75.0,0.0,40.0,1.0,0.0
447,59.0,0.0,40.0,3.0,0.0
448,71.0,0.0,40.0,3.0,0.0
449,71.0,60.0,40.0,11.0,0.0
450,75.0,0.0,40.0,0.0,0.0
451,75.0,0.0,120.0,1.0,0.0
452,71.0,32.0,120.0,1.0,0.0
453,54.0,0.0,150.0,11.0,0.0
454,66.0,0.0,150.0,11.0,0.0
455,63.0,0.0,40.0,3.0,0.0
456,47.0,0.0,90.0,13.0,0.0
457,75.0,0.0,40.0,3.0,0.0
458,63.0,0.0,40.0,4.0,0.0
459,51.0,0.0,150.0,11.0,0.0
460,47.0,0.0,150.0,11.0,0.0
461,51.0,0.0,40.0,4.0,0.0
462,35.0,16.0,90.0,12.0,0.0
463,75.0,48.0,40.0,11.0,0.0
464,47.0,0.0,40.0,8.0,0.0
465,75.0,0.0,20.0,11.0,0.0
466,75.0,0.0,20.0,3.0,0.0
467,63.0,0.0,20.0,3.0,0.0
468,59.0,24.0,20.0,6.0,0.0
469,35.0,0.0,40.0,12.0,0.0
470,71.0,6.0,40.0,1.0,0.0
471,75.0,0.0,20.0,0.0,0.0
472,63.0,0.0,20.0,0.0,0.0
473,47.0,0.0,20.0,6.0,0.0
474,59.0,0.0,40.0,5.0,0.0
475,47.0,0.0,40.0,13.0,0.0
476,63.0,0.0,40.0,5.0,0.0
477,47.0,0.0,20.0,4.0,0.0
478,51.0,0.0,20.0,4.0,0.0
479,75.0,0.0,40.0,1.0,0.0
480,59.0,30.0,20.0,6.0,0.0
481,78.0,0.0,20.0,11.0,0.0
482,66.0,0.0,20.0,3.0,0.0
483,78.0,0.0,20.0,0.0,0.0
484,66.0,0.0,20.0,0.0,0.0
485,54.0,0.0,20.0,4.0,0.0
486,51.0,0.0,20.0,4.0,0.0
487,78.0,0.0,20.0,3.0,0.0
488,47.0,0.0,20.0,6.0,0.0
489,75.0,0.0,40.0,1.0,0.0
490,66.0,24.0,20.0,3.0,0.0
491,47.0,6.0,40.0,6.0,0.0
492,66.0,0.0,20.0,0.0,0.0
493,35.0,0.0,40.0,12.0,0.0
494,78.0,0.0,20.0,0.0,0.0
495,54.0,0.0,20.0,11.0,0.0
496,66.0,0.0,20.0,11.0,0.0
497,54.0,0.0,20.0,4.0,0.0
498,63.0,0.0,40.0,5.0,0.0
499,51.0,0.0,40.0,4.0,0.0
500,47.0,0.0,40.0,13.0,0.0
501,59.0,0.0,40.0,6.0,0.0
502,59.0,0.0,40.0,5.0,0.0
503,54.0,0.0,20.0,3.0,0.0
504,47.0,0.0,40.0,8.0,0.0
505,71.0,0.0,40.0,1.0,0.0
506,51.0,0.0,20.0,11.0,0.0
507,47.0,0.0,20.0,11.0,0.0
508,78.0,0.0,20.0,11.0,0.0
509,59.0,0.0,20.0,3.0,0.0
510,71.0,30.0,20.0,3.0,0.0
511,54.0,0.0,20.0,11.0,0.0
512,66.0,0.0,20.0,11.0,0.0
513,83.0,0.0,20.0,11.0,0.0
514,51.0,0.0,20.0,11.0,0.0
515,47.0,0.0,20.0,11.0,0.0
516,83.0,0.0,20.0,0.0,0.0
517,71.0,0.0,20.0,0.0,0.0
518,59.0,0.0,20.0,4.0,0.0
519,59.0,0.0,210.0,6.0,0.0
520,47.0,0.0,210.0,6.0,0.0
521,59.0,0.0,210.0,3.0,0.0
522,66.0,0.0,20.0,11.0,0.0
523,51.0,0.0,210.0,4.0,0.0
524,71.0,0.0,210.0,0.0,0.0
525,47.0,30.0,20.0,11.0,0.0
526,51.0,0.0,20.0,11.0,0.0
527,83.0,0.0,210.0,11.0,0.0
528,83.0,0.0,210.0,0.0,0.0
529,54.0,0.0,20.0,11.0,0.0
530,47.0,0.0,20.0,8.0,0.0
531,75.0,0.0,210.0,1.0,0.0
532,71.0,0.0,210.0,1.0,0.0
533,71.0,0.0,210.0,3.0,0.0
534,63.0,0.0,210.0,5.0,0.0
535,59.0,48.0,210.0,5.0,0.0
536,47.0,0.0,210.0,13.0,0.0
537,59.0,0.0,210.0,4.0,0.0
538,35.0,0.0,210.0,12.0,0.0
539,66.0,0.0,20.0,11.0,0.0
540,54.0,0.0,20.0,11.0,0.0
541,51.0,0.0,20.0,11.0,0.0
542,47.0,0.0,20.0,11.0,0.0
543,47.0,30.0,20.0,8.0,0.0
544,51.0,0.0,20.0,11.0,0.0
545,47.0,0.0,20.0,11.0,0.0
546,47.0,30.0,20.0,8.0,0.0
547,66.0,0.0,20.0,11.0,0.0
548,54.0,0.0,20.0,11.0,0.0
549,47.0,0.0,20.0,11.0,0.0
550,47.0,0.0,20.0,8.0,0.0
551,54.0,102.0,20.0,11.0,0.0
552,66.0,0.0,20.0,11.0,0.0
553,51.0,0.0,20.0,11.0,0.0
554,54.0,0.0,150.0,11.0,0.0
555,66.0,0.0,150.0,11.0,0.0
556,51.0,0.0,150.0,11.0,0.0
557,47.0,0.0,150.0,11.0,0.0
558,47.0,0.0,90.0,8.0,0.0
559,47.0,0.0,40.0,12.0,0.0
560,59.0,0.0,20.0,4.0,0.0
561,47.0,0.0,40.0,4.0,0.0
562,47.0,0.0,40.0,6.0,0.0
563,59.0,0.0,40.0,6.0,0.0
564,83.0,24.0,20.0,11.0,0.0
565,47.0,0.0,40.0,8.0,0.0
566,75.0,6.0,40.0,1.0,0.0
567,71.0,0.0,40.0,1.0,0.0
568,71.0,0.0,20.0,3.0,0.0
569,59.0,0.0,20.0,3.0,0.0
570,59.0,0.0,40.0,5.0,0.0
571,47.0,0.0,40.0,13.0,0.0
572,83.0,0.0,20.0,0.0,0.0
573,71.0,0.0,20.0,0.0,0.0
574,63.0,0.0,40.0,5.0,0.0
575,87.0,0.0,20.0,0.0,0.0
576,75.0,0.0,20.0,0.0,0.0
577,75.0,0.0,20.0,3.0,0.0
578,87.0,0.0,20.0,11.0,0.0
579,63.0,0.0,20.0,4.0,0.0
580,63.0,54.0,20.0,3.0,0.0
581,73.0,0.0,40.0,1.0,0.0
582,42.0,48.0,40.0,8.0,0.0
583,76.0,0.0,40.0,1.0,0.0
584,85.0,0.0,40.0,0.0,0.0
585,61.0,0.0,40.0,3.0,0.0
586,73.0,0.0,40.0,3.0,0.0
587,46.0,0.0,40.0,13.0,0.0
588,49.0,24.0,150.0,11.0,0.0
589,52.0,0.0,150.0,11.0,0.0
590,64.0,0.0,150.0,11.0,0.0
591,54.0,0.0,150.0,11.0,0.0
592,85.0,0.0,40.0,11.0,0.0
593,61.0,48.0,90.0,5.0,0.0
594,54.0,0.0,90.0,5.0,0.0
595,46.0,0.0,40.0,4.0,0.0
596,61.0,0.0,40.0,4.0,0.0
597,73.0,0.0,40.0,0.0,0.0
598,42.0,0.0,40.0,6.0,0.0
599,54.0,0.0,40.0,6.0,0.0
600,46.0,0.0,40.0,12.0,0.0
601,61.0,0.0,40.0,5.0,0.0
602,76.0,0.0,40.0,1.0,0.0
603,82.0,0.0,20.0,11.0,0.0
604,42.0,0.0,40.0,13.0,0.0
605,58.0,0.0,20.0,3.0,0.0
606,73.0,0.0,40.0,1.0,0.0
607,70.0,0.0,20.0,3.0,0.0
608,54.0,0.0,40.0,5.0,0.0
609,42.0,6.0,40.0,4.0,0.0
610,42.0,0.0,40.0,8.0,0.0
611,42.0,0.0,40.0,6.0,0.0
612,58.0,0.0,20.0,4.0,0.0
613,54.0,0.0,40.0,6.0,0.0
614,70.0,0.0,20.0,0.0,0.0
615,82.0,0.0,20.0,0.0,0.0
616,42.0,0.0,40.0,12.0,0.0
617,73.0,0.0,20.0,3.0,0.0
618,61.0,0.0,20.0,3.0,0.0
619,85.0,0.0,20.0,0.0,0.0
620,61.0,0.0,20.0,4.0,0.0
621,73.0,0.0,20.0,0.0,0.0
622,85.0,54.0,20.0,11.0,0.0
623,83.0,48.0,40.0,11.0,0.0
624,47.0,0.0,40.0,13.0,0.0
625,47.0,0.0,40.0,8.0,0.0
626,54.0,0.0,150.0,11.0,0.0
627,83.0,0.0,40.0,0.0,0.0
628,71.0,0.0,40.0,0.0,0.0
629,47.0,0.0,40.0,12.0,0.0
630,59.0,0.0,40.0,3.0,0.0
631,71.0,0.0,40.0,3.0,0.0
632,47.0,0.0,40.0,4.0,0.0
633,63.0,0.0,150.0,11.0,0.0
634,47.0,24.0,150.0,11.0,0.0
635,59.0,0.0,40.0,4.0,0.0
636,75.0,0.0,40.0,1.0,0.0
637,59.0,0.0,40.0,6.0,0.0
638,51.0,48.0,90.0,5.0,0.0
639,59.0,0.0,90.0,5.0,0.0
640,51.0,0.0,150.0,11.0,0.0
641,71.0,0.0,40.0,1.0,0.0
642,47.0,0.0,40.0,6.0,0.0
643,66.0,0.0,40.0,0.0,0.0
644,78.0,0.0,40.0,11.0,0.0
645,51.0,0.0,40.0,12.0,0.0
646,63.0,24.0,40.0,5.0,0.0
647,47.0,0.0,40.0,8.0,0.0
648,59.0,0.0,40.0,6.0,0.0
649,75.0,0.0,40.0,1.0,0.0
650,71.0,0.0,40.0,1.0,0.0
651,47.0,0.0,40.0,6.0,0.0
652,66.0,0.0,40.0,3.0,0.0
653,54.0,0.0,40.0,3.0,0.0
654,54.0,0.0,40.0,4.0,0.0
655,51.0,0.0,40.0,4.0,0.0
656,78.0,0.0,40.0,0.0,0.0
657,59.0,0.0,40.0,5.0,0.0
658,51.0,0.0,40.0,13.0,0.0
659,46.0,0.0,150.0,11.0,0.0
660,49.0,0.0,150.0,11.0,0.0
661,66.0,0.0,15.0,0.0,0.0
662,61.0,24.0,150.0,5.0,0.0
663,54.0,9.0,40.0,13.0,0.0
664,54.0,0.0,150.0,5.0,0.0
665,42.0,0.0,150.0,6.0,0.0
666,61.0,0.0,150.0,11.0,0.0
667,54.0,0.0,150.0,11.0,0.0
668,58.0,0.0,40.0,3.0,0.0
669,54.0,0.0,40.0,12.0,0.0
670,42.0,0.0,15.0,8.0,0.0
671,54.0,0.0,150.0,6.0,0.0
672,54.0,15.0,15.0,4.0,0.0
673,66.0,0.0,15.0,3.0,0.0
674,78.0,0.0,15.0,0.0,0.0
675,78.0,0.0,15.0,11.0,0.0
676,70.0,0.0,150.0,1.0,0.0
677,73.0,0.0,150.0,1.0,0.0
678,42.0,0.0,15.0,8.0,0.0
679,80.0,0.0,15.0,0.0,0.0
680,56.0,15.0,15.0,4.0,0.0
681,68.0,0.0,15.0,0.0,0.0
682,68.0,0.0,15.0,3.0,0.0
683,80.0,0.0,15.0,11.0,0.0
684,78.0,0.0,15.0,0.0,0.0
685,78.0,0.0,15.0,11.0,0.0
686,54.0,6.0,15.0,4.0,0.0
687,42.0,0.0,15.0,8.0,0.0
688,66.0,0.0,15.0,0.0,0.0
689,66.0,0.0,15.0,3.0,0.0
690,68.0,0.0,15.0,0.0,0.0
691,80.0,0.0,15.0,0.0,0.0
692,80.0,15.0,15.0,11.0,0.0
693,42.0,0.0,15.0,8.0,0.0
694,68.0,0.0,15.0,3.0,0.0
695,56.0,0.0,15.0,4.0,0.0
696,78.0,0.0,15.0,11.0,0.0
697,78.0,0.0,15.0,0.0,0.0
698,42.0,0.0,40.0,4.0,0.0
699,54.0,0.0,15.0,4.0,0.0
700,66.0,0.0,15.0,0.0,0.0
701,42.0,15.0,15.0,8.0,0.0
702,42.0,9.0,40.0,13.0,0.0
703,61.0,0.0,40.0,3.0,0.0
704,42.0,0.0,40.0,12.0,0.0
705,66.0,0.0,15.0,3.0,0.0
706,80.0,0.0,15.0,0.0,0.0
707,42.0,0.0,15.0,8.0,0.0
708,68.0,15.0,15.0,3.0,0.0
709,56.0,0.0,15.0,4.0,0.0
710,68.0,0.0,15.0,0.0,0.0
711,80.0,0.0,15.0,11.0,0.0
712,54.0,6.0,15.0,4.0,0.0
713,78.0,0.0,15.0,11.0,0.0
714,66.0,0.0,15.0,0.0,0.0
715,42.0,0.0,15.0,8.0,0.0
716,78.0,0.0,15.0,0.0,0.0
717,66.0,0.0,15.0,3.0,0.0
718,68.0,0.0,15.0,0.0,0.0
719,80.0,0.0,15.0,0.0,0.0
720,56.0,0.0,15.0,4.0,0.0
721,68.0,0.0,15.0,3.0,0.0
722,42.0,0.0,15.0,8.0,0.0
723,80.0,27.0,15.0,11.0,0.0
724,78.0,0.0,20.0,0.0,0.0
725,66.0,0.0,20.0,0.0,0.0
726,42.0,0.0,40.0,4.0,0.0
727,42.0,0.0,40.0,8.0,0.0
728,54.0,0.0,20.0,4.0,0.0
729,78.0,0.0,20.0,11.0,0.0
730,66.0,0.0,20.0,3.0,0.0
731,58.0,0.0,40.0,3.0,0.0
732,42.0,0.0,40.0,13.0,0.0
733,42.0,6.0,40.0,12.0,0.0
734,77.0,0.0,20.0,11.0,0.0
735,65.0,0.0,20.0,3.0,0.0
736,53.0,30.0,20.0,4.0,0.0
737,77.0,0.0,20.0,0.0,0.0
738,65.0,0.0,20.0,0.0,0.0
739,42.0,0.0,40.0,6.0,0.0
740,54.0,0.0,40.0,6.0,0.0
741,46.0,24.0,20.0,11.0,0.0
742,66.0,0.0,40.0,3.0,0.0
743,54.0,0.0,40.0,3.0,0.0
744,70.0,0.0,40.0,1.0,0.0
745,73.0,0.0,40.0,1.0,0.0
746,42.0,0.0,40.0,4.0,0.0
747,54.0,0.0,40.0,4.0,0.0
748,54.0,0.0,40.0,5.0,0.0
749,78.0,0.0,40.0,11.0,0.0
750,49.0,0.0,20.0,11.0,0.0
751,54.0,0.0,20.0,11.0,0.0
752,42.0,6.0,40.0,13.0,0.0
753,66.0,0.0,40.0,0.0,0.0
754,42.0,0.0,40.0,12.0,0.0
755,61.0,0.0,20.0,11.0,0.0
756,61.0,0.0,40.0,5.0,0.0
757,78.0,0.0,40.0,0.0,0.0
758,49.0,0.0,20.0,11.0,0.0
759,46.0,0.0,20.0,11.0,0.0
760,54.0,0.0,20.0,11.0,0.0
761,61.0,30.0,20.0,11.0,0.0
762,42.0,0.0,20.0,12.0,0.0
763,61.0,0.0,20.0,11.0,0.0
764,42.0,0.0,20.0,13.0,0.0
765,54.0,0.0,20.0,11.0,0.0
766,61.0,0.0,20.0,11.0,0.0
767,52.0,0.0,20.0,13.0,0.0
768,54.0,30.0,20.0,11.0,0.0
769,52.0,0.0,20.0,11.0,0.0
770,40.0,0.0,20.0,12.0,0.0
771,75.0,0.0,40.0,1.0,0.0
772,42.0,0.0,40.0,4.0,0.0
773,39.0,24.0,20.0,12.0,0.0
774,66.0,0.0,40.0,0.0,0.0
775,54.0,0.0,20.0,11.0,0.0
776,66.0,0.0,40.0,3.0,0.0
777,54.0,6.0,40.0,3.0,0.0
778,51.0,0.0,20.0,13.0,0.0
779,63.0,0.0,20.0,11.0,0.0
780,66.0,0.0,40.0,5.0,0.0
781,66.0,0.0,40.0,11.0,0.0
782,54.0,0.0,40.0,5.0,0.0
783,71.0,0.0,40.0,1.0,0.0
784,54.0,0.0,40.0,4.0,0.0
785,51.0,0.0,20.0,11.0,0.0
786,54.0,0.0,20.0,11.0,0.0
787,63.0,54.0,20.0,11.0,0.0
788,37.0,0.0,20.0,12.0,0.0
789,49.0,0.0,20.0,11.0,0.0
790,49.0,0.0,20.0,13.0,0.0
791,63.0,0.0,120.0,5.0,0.0
792,47.0,0.0,40.0,13.0,0.0
793,47.0,0.0,40.0,8.0,0.0
794,47.0,0.0,150.0,11.0,0.0
795,51.0,0.0,150.0,11.0,0.0
796,59.0,36.0,120.0,6.0,0.0
797,47.0,0.0,120.0,6.0,0.0
798,63.0,0.0,150.0,11.0,0.0
799,59.0,0.0,120.0,5.0,0.0
800,54.0,24.0,150.0,11.0,0.0
801,66.0,0.0,40.0,3.0,0.0
802,54.0,0.0,40.0,3.0,0.0
803,42.0,0.0,40.0,4.0,0.0
804,54.0,0.0,40.0,4.0,0.0
805,71.0,0.0,40.0,1.0,0.0
806,35.0,0.0,40.0,12.0,0.0
807,75.0,0.0,40.0,1.0,0.0
808,66.0,0.0,40.0,11.0,0.0
809,66.0,60.0,40.0,0.0,0.0
810,59.0,0.0,40.0,3.0,0.0
811,35.0,0.0,40.0,12.0,0.0
812,71.0,0.0,40.0,1.0,0.0
813,59.0,0.0,40.0,4.0,0.0
814,47.0,0.0,40.0,4.0,0.0
815,71.0,0.0,40.0,3.0,0.0
816,75.0,0.0,40.0,1.0,0.0
817,71.0,0.0,40.0,11.0,0.0
818,47.0,0.0,40.0,13.0,0.0
819,71.0,0.0,40.0,0.0,0.0
820,75.0,0.0,40.0,1.0,0.0
821,47.0,0.0,40.0,8.0,0.0
822,59.0,0.0,150.0,6.0,0.0
823,47.0,0.0,150.0,6.0,0.0
824,47.0,0.0,40.0,13.0,0.0
825,71.0,0.0,40.0,0.0,0.0
826,71.0,60.0,40.0,1.0,0.0
827,35.0,0.0,40.0,12.0,0.0
828,71.0,0.0,40.0,11.0,0.0
829,71.0,0.0,40.0,3.0,0.0
830,59.0,0.0,40.0,3.0,0.0
831,63.0,16.0,150.0,5.0,0.0
832,47.0,0.0,40.0,4.0,0.0
833,59.0,0.0,40.0,4.0,0.0
834,59.0,0.0,150.0,5.0,0.0
835,54.0,24.0,150.0,11.0,0.0
836,35.0,0.0,90.0,12.0,0.0
837,75.0,0.0,120.0,1.0,0.0
838,63.0,48.0,40.0,4.0,0.0
839,47.0,0.0,90.0,13.0,0.0
840,51.0,0.0,40.0,4.0,0.0
841,63.0,0.0,150.0,11.0,0.0
842,63.0,0.0,40.0,3.0,0.0
843,75.0,0.0,40.0,3.0,0.0
844,75.0,0.0,40.0,11.0,0.0
845,47.0,0.0,150.0,11.0,0.0
846,51.0,0.0,150.0,11.0,0.0
847,71.0,32.0,120.0,1.0,0.0
848,75.0,0.0,40.0,0.0,0.0
849,75.0,0.0,20.0,3.0,0.0
850,63.0,0.0,20.0,3.0,0.0
851,63.0,0.0,20.0,0.0,0.0
852,47.0,0.0,40.0,8.0,0.0
853,75.0,6.0,40.0,1.0,0.0
854,59.0,0.0,40.0,5.0,0.0
855,63.0,0.0,40.0,5.0,0.0
856,75.0,0.0,20.0,11.0,0.0
857,47.0,0.0,40.0,13.0,0.0
858,75.0,0.0,20.0,0.0,0.0
859,71.0,0.0,40.0,1.0,0.0
860,59.0,0.0,20.0,6.0,0.0
861,47.0,0.0,20.0,6.0,0.0
862,51.0,0.0,20.0,4.0,0.0
863,47.0,0.0,20.0,4.0,0.0
864,35.0,0.0,40.0,12.0,0.0
865,78.0,0.0,20.0,3.0,0.0
866,66.0,0.0,20.0,0.0,0.0
867,78.0,0.0,20.0,0.0,0.0
868,78.0,0.0,20.0,11.0,0.0
869,47.0,0.0,20.0,6.0,0.0
870,59.0,30.0,20.0,6.0,0.0
871,66.0,0.0,20.0,3.0,0.0
872,54.0,0.0,20.0,4.0,0.0
873,51.0,0.0,20.0,4.0,0.0
874,35.0,0.0,40.0,12.0,0.0
875,54.0,0.0,20.0,4.0,0.0
876,66.0,24.0,20.0,3.0,0.0
877,54.0,0.0,20.0,3.0,0.0
878,51.0,0.0,40.0,4.0,0.0
879,51.0,0.0,20.0,11.0,0.0
880,47.0,0.0,20.0,11.0,0.0
881,59.0,0.0,40.0,6.0,0.0
882,63.0,0.0,20.0,11.0,0.0
883,47.0,0.0,40.0,6.0,0.0
884,66.0,0.0,20.0,0.0,0.0
885,63.0,0.0,40.0,5.0,0.0
886,71.0,0.0,40.0,1.0,0.0
887,47.0,0.0,40.0,13.0,0.0
888,78.0,0.0,20.0,11.0,0.0
889,54.0,0.0,20.0,11.0,0.0
890,59.0,0.0,40.0,5.0,0.0
891,47.0,0.0,40.0,8.0,0.0
892,78.0,0.0,20.0,0.0,0.0
893,75.0,6.0,40.0,1.0,0.0
894,83.0,0.0,20.0,11.0,0.0
895,47.0,0.0,20.0,11.0,0.0
896,51.0,0.0,20.0,11.0,0.0
897,59.0,0.0,240.0,4.0,0.0
898,54.0,0.0,20.0,11.0,0.0
899,59.0,0.0,20.0,3.0,0.0
900,71.0,30.0,20.0,0.0,0.0
901,83.0,0.0,20.0,0.0,0.0
902,71.0,0.0,20.0,3.0,0.0
903,63.0,0.0,20.0,11.0,0.0
904,59.0,0.0,210.0,3.0,0.0
905,71.0,0.0,210.0,3.0,0.0
906,51.0,0.0,210.0,4.0,0.0
907,83.0,0.0,210.0,11.0,0.0
908,47.0,48.0,210.0,13.0,0.0
909,51.0,0.0,20.0,11.0,0.0
910,35.0,0.0,210.0,12.0,0.0
911,54.0,0.0,20.0,11.0,0.0
912,63.0,0.0,20.0,11.0,0.0
913,63.0,0.0,210.0,5.0,0.0
914,59.0,0.0,210.0,5.0,0.0
915,83.0,0.0,210.0,0.0,0.0
916,71.0,0.0,210.0,0.0,0.0
917,47.0,0.0,20.0,11.0,0.0
918,75.0,0.0,210.0,1.0,0.0
919,47.0,30.0,20.0,8.0,0.0
920,59.0,0.0,210.0,6.0,0.0
921,47.0,0.0,210.0,6.0,0.0
922,71.0,0.0,210.0,1.0,0.0
923,63.0,0.0,20.0,11.0,0.0
924,51.0,0.0,20.0,11.0,0.0
925,47.0,0.0,20.0,8.0,0.0
926,47.0,0.0,20.0,11.0,0.0
927,54.0,30.0,20.0,11.0,0.0
928,54.0,0.0,20.0,11.0,0.0
929,63.0,0.0,20.0,11.0,0.0
930,47.0,30.0,20.0,8.0,0.0
931,51.0,0.0,20.0,11.0,0.0
932,47.0,0.0,20.0,11.0,0.0
933,47.0,0.0,20.0,8.0,0.0
934,51.0,0.0,20.0,11.0,0.0
935,47.0,102.0,20.0,11.0,0.0
936,54.0,0.0,20.0,11.0,0.0
937,63.0,0.0,20.0,11.0,0.0
938,54.0,0.0,150.0,11.0,0.0
939,63.0,0.0,150.0,11.0,0.0
940,47.0,0.0,90.0,8.0,0.0
941,47.0,0.0,150.0,11.0,0.0
942,51.0,0.0,150.0,11.0,0.0
943,47.0,0.0,40.0,6.0,0.0
944,47.0,0.0,40.0,13.0,0.0
945,47.0,0.0,40.0,12.0,0.0
946,71.0,0.0,20.0,3.0,0.0
947,47.0,0.0,40.0,4.0,0.0
948,59.0,0.0,20.0,3.0,0.0
949,59.0,24.0,20.0,4.0,0.0
950,47.0,6.0,40.0,8.0,0.0
951,83.0,0.0,20.0,0.0,0.0
952,59.0,0.0,40.0,6.0,0.0
953,71.0,0.0,20.0,0.0,0.0
954,83.0,0.0,20.0,11.0,0.0
955,71.0,0.0,40.0,1.0,0.0
956,75.0,0.0,40.0,1.0,0.0
957,63.0,0.0,40.0,5.0,0.0
958,59.0,0.0,40.0,5.0,0.0
959,87.0,0.0,20.0,11.0,0.0
960,75.0,0.0,20.0,3.0,0.0
961,63.0,0.0,20.0,4.0,0.0
962,75.0,54.0,20.0,0.0,0.0
963,87.0,0.0,20.0,0.0,0.0
964,63.0,0.0,20.0,3.0,0.0
965,54.0,0.0,90.0,5.0,0.0
966,61.0,0.0,90.0,5.0,0.0
967,73.0,0.0,40.0,0.0,0.0
968,85.0,0.0,40.0,0.0,0.0
969,73.0,0.0,40.0,1.0,0.0
970,46.0,48.0,40.0,13.0,0.0
971,61.0,0.0,40.0,3.0,0.0
972,46.0,48.0,90.0,11.0,0.0
973,49.0,0.0,90.0,11.0,0.0
974,61.0,0.0,40.0,4.0,0.0
975,64.0,0.0,150.0,11.0,0.0
976,76.0,0.0,40.0,1.0,0.0
977,42.0,0.0,40.0,6.0,0.0
978,46.0,0.0,40.0,12.0,0.0
979,85.0,0.0,40.0,11.0,0.0
980,73.0,0.0,40.0,3.0,0.0
981,54.0,0.0,40.0,6.0,0.0
982,42.0,0.0,40.0,8.0,0.0
983,54.0,0.0,150.0,11.0,0.0
984,46.0,0.0,40.0,4.0,0.0
985,49.0,0.0,20.0,11.0,0.0
986,52.0,0.0,20.0,11.0,0.0
987,42.0,0.0,40.0,13.0,0.0
988,54.0,0.0,40.0,5.0,0.0
989,42.0,0.0,40.0,8.0,0.0
990,82.0,0.0,20.0,11.0,0.0
991,42.0,0.0,40.0,12.0,0.0
992,42.0,0.0,40.0,6.0,0.0
993,73.0,0.0,40.0,1.0,0.0
994,61.0,0.0,40.0,5.0,0.0
995,82.0,0.0,20.0,0.0,0.0
996,58.0,0.0,20.0,3.0,0.0
997,70.0,0.0,20.0,3.0,0.0
998,58.0,0.0,20.0,4.0,0.0
999,54.0,0.0,40.0,6.0,0.0
1000,42.0,6.0,40.0,4.0,0.0
1001,70.0,24.0,20.0,0.0,0.0
1002,76.0,0.0,40.0,1.0,0.0
1003,61.0,0.0,20.0,3.0,0.0
1004,73.0,0.0,20.0,3.0,0.0
1005,52.0,0.0,20.0,11.0,0.0
1006,85.0,0.0,20.0,11.0,0.0
1007,61.0,0.0,20.0,4.0,0.0
1008,73.0,54.0,20.0,0.0,0.0
1009,85.0,0.0,20.0,0.0,0.0
1010,49.0,0.0,20.0,11.0,0.0
1011,71.0,0.0,40.0,0.0,0.0
1012,47.0,0.0,40.0,13.0,0.0
1013,47.0,0.0,40.0,6.0,0.0
1014,59.0,0.0,40.0,6.0,0.0
1015,51.0,0.0,150.0,11.0,0.0
1016,47.0,0.0,150.0,11.0,0.0
1017,59.0,0.0,40.0,4.0,0.0
1018,63.0,0.0,150.0,11.0,0.0
1019,54.0,24.0,150.0,11.0,0.0
1020,47.0,0.0,40.0,4.0,0.0
1021,47.0,0.0,40.0,12.0,0.0
1022,47.0,0.0,40.0,8.0,0.0
1023,51.0,48.0,90.0,5.0,0.0
1024,59.0,0.0,90.0,5.0,0.0
1025,83.0,0.0,40.0,0.0,0.0
1026,83.0,0.0,40.0,11.0,0.0
1027,71.0,0.0,40.0,1.0,0.0
1028,71.0,48.0,40.0,3.0,0.0
1029,75.0,0.0,40.0,1.0,0.0
1030,59.0,0.0,40.0,3.0,0.0
1031,59.0,0.0,40.0,5.0,0.0
1032,51.0,0.0,40.0,12.0,0.0
1033,54.0,0.0,40.0,4.0,0.0
1034,54.0,0.0,40.0,3.0,0.0
1035,66.0,0.0,40.0,3.0,0.0
1036,75.0,0.0,40.0,1.0,0.0
1037,71.0,0.0,40.0,1.0,0.0
1038,51.0,0.0,40.0,13.0,0.0
1039,59.0,0.0,40.0,6.0,0.0
1040,78.0,24.0,40.0,11.0,0.0
1041,47.0,0.0,40.0,8.0,0.0
1042,78.0,0.0,40.0,0.0,0.0
1043,66.0,0.0,40.0,0.0,0.0
1044,47.0,0.0,40.0,6.0,0.0
1045,63.0,0.0,40.0,5.0,0.0
1046,51.0,0.0,40.0,4.0,0.0
1047,66.0,0.0,15.0,0.0,0.0
1048,78.0,0.0,15.0,0.0,0.0
1049,58.0,0.0,40.0,3.0,0.0
1050,66.0,0.0,15.0,3.0,0.0
1051,54.0,0.0,150.0,6.0,0.0
1052,78.0,0.0,15.0,11.0,0.0
1053,49.0,0.0,150.0,11.0,0.0
1054,73.0,0.0,150.0,1.0,0.0
1055,70.0,0.0,150.0,1.0,0.0
1056,54.0,0.0,40.0,13.0,0.0
1057,46.0,0.0,150.0,11.0,0.0
1058,42.0,0.0,150.0,6.0,0.0
1059,54.0,0.0,150.0,5.0,0.0
1060,42.0,3.0,20.0,8.0,0.0
1061,54.0,0.0,150.0,11.0,0.0
1062,61.0,0.0,150.0,11.0,0.0
1063,54.0,6.0,40.0,12.0,0.0
1064,54.0,12.0,15.0,4.0,0.0
1065,61.0,0.0,150.0,5.0,0.0
1066,68.0,0.0,15.0,0.0,0.0
1067,80.0,0.0,15.0,0.0,0.0
1068,56.0,15.0,15.0,4.0,0.0
1069,80.0,0.0,15.0,11.0,0.0
1070,68.0,0.0,15.0,3.0,0.0
1071,42.0,3.0,20.0,8.0,0.0
1072,66.0,0.0,15.0,3.0,0.0
1073,78.0,0.0,15.0,11.0,0.0
1074,54.0,0.0,15.0,4.0,0.0
1075,66.0,6.0,15.0,0.0,0.0
1076,78.0,0.0,15.0,0.0,0.0
1077,68.0,0.0,15.0,0.0,0.0
1078,56.0,0.0,15.0,4.0,0.0
1079,80.0,0.0,15.0,0.0,0.0
1080,68.0,15.0,15.0,3.0,0.0
1081,80.0,0.0,15.0,11.0,0.0
1082,42.0,0.0,40.0,4.0,0.0
1083,54.0,0.0,15.0,4.0,0.0
1084,42.0,3.0,20.0,8.0,0.0
1085,42.0,0.0,40.0,12.0,0.0
1086,61.0,0.0,40.0,3.0,0.0
1087,78.0,0.0,15.0,0.0,0.0
1088,66.0,0.0,15.0,0.0,0.0
1089,42.0,6.0,40.0,13.0,0.0
1090,78.0,12.0,15.0,11.0,0.0
1091,66.0,0.0,15.0,3.0,0.0
1092,68.0,15.0,15.0,0.0,0.0
1093,68.0,0.0,15.0,3.0,0.0
1094,80.0,0.0,15.0,0.0,0.0
1095,80.0,0.0,15.0,11.0,0.0
1096,56.0,0.0,15.0,4.0,0.0
1097,78.0,0.0,15.0,11.0,0.0
1098,78.0,0.0,15.0,0.0,0.0
1099,66.0,6.0,15.0,0.0,0.0
1100,54.0,0.0,15.0,4.0,0.0
1101,66.0,0.0,15.0,3.0,0.0
1102,42.0,3.0,20.0,8.0,0.0
1103,68.0,0.0,15.0,3.0,0.0
1104,56.0,0.0,15.0,4.0,0.0
1105,80.0,0.0,15.0,0.0,0.0
1106,80.0,27.0,15.0,11.0,0.0
1107,68.0,0.0,15.0,0.0,0.0
1108,42.0,0.0,40.0,4.0,0.0
1109,42.0,0.0,20.0,8.0,0.0
1110,66.0,0.0,20.0,3.0,0.0
1111,58.0,6.0,40.0,3.0,0.0
1112,66.0,24.0,20.0,0.0,0.0
1113,42.0,0.0,40.0,12.0,0.0
1114,42.0,0.0,40.0,13.0,0.0
1115,78.0,0.0,20.0,11.0,0.0
1116,78.0,0.0,20.0,0.0,0.0
1117,54.0,0.0,20.0,4.0,0.0
1118,77.0,0.0,20.0,11.0,0.0
1119,77.0,0.0,20.0,0.0,0.0
1120,53.0,30.0,20.0,4.0,0.0
1121,65.0,0.0,20.0,0.0,0.0
1122,65.0,0.0,20.0,3.0,0.0
1123,42.0,0.0,20.0,8.0,0.0
1124,73.0,6.0,40.0,1.0,0.0
1125,61.0,0.0,20.0,11.0,0.0
1126,54.0,24.0,20.0,11.0,0.0
1127,42.0,0.0,90.0,8.0,0.0
1128,78.0,0.0,40.0,11.0,0.0
1129,54.0,0.0,40.0,3.0,0.0
1130,42.0,0.0,40.0,13.0,0.0
1131,42.0,0.0,40.0,12.0,0.0
1132,61.0,0.0,90.0,5.0,0.0
1133,70.0,0.0,40.0,1.0,0.0
1134,54.0,0.0,90.0,5.0,0.0
1135,42.0,0.0,40.0,4.0,0.0
1136,66.0,0.0,40.0,3.0,0.0
1137,49.0,0.0,20.0,11.0,0.0
1138,42.0,0.0,90.0,6.0,0.0
1139,78.0,0.0,40.0,0.0,0.0
1140,66.0,0.0,40.0,0.0,0.0
1141,54.0,0.0,40.0,4.0,0.0
1142,54.0,12.0,90.0,6.0,0.0
1143,46.0,0.0,20.0,11.0,0.0
1144,46.0,30.0,20.0,11.0,0.0
1145,49.0,0.0,20.0,11.0,0.0
1146,61.0,0.0,20.0,11.0,0.0
1147,54.0,0.0,20.0,11.0,0.0
1148,58.0,0.0,20.0,11.0,0.0
1149,42.0,0.0,40.0,13.0,0.0
1150,42.0,6.0,40.0,12.0,0.0
1151,61.0,12.0,20.0,11.0,0.0
1152,42.0,0.0,40.0,4.0,0.0
1153,61.0,0.0,20.0,11.0,0.0
1154,58.0,30.0,20.0,11.0,0.0
1155,42.0,6.0,40.0,4.0,0.0
1156,78.0,0.0,20.0,3.0,0.0
1157,66.0,24.0,20.0,3.0,0.0
1158,78.0,0.0,20.0,11.0,0.0
1159,57.0,0.0,20.0,11.0,0.0
1160,66.0,0.0,690.0,1.0,0.0
1161,60.0,0.0,20.0,11.0,0.0
1162,42.0,0.0,40.0,12.0,0.0
1163,78.0,18.0,690.0,1.0,0.0
1164,42.0,0.0,40.0,13.0,0.0
1165,76.0,0.0,20.0,11.0,0.0
1166,65.0,0.0,20.0,3.0,0.0
1167,77.0,0.0,20.0,3.0,0.0
1168,57.0,30.0,20.0,11.0,0.0
1169,60.0,0.0,20.0,11.0,0.0
1170,42.0,0.0,90.0,6.0,0.0
1171,77.0,6.0,40.0,11.0,0.0
1172,59.0,0.0,20.0,11.0,0.0
1173,42.0,0.0,90.0,13.0,0.0
1174,42.0,0.0,90.0,12.0,0.0
1175,51.0,0.0,90.0,5.0,0.0
1176,42.0,0.0,90.0,5.0,0.0
1177,42.0,0.0,90.0,4.0,0.0
1178,54.0,18.0,90.0,6.0,0.0
1179,56.0,24.0,20.0,11.0,0.0
1180,65.0,0.0,40.0,3.0,0.0
1181,42.0,0.0,90.0,8.0,0.0
1182,77.0,0.0,40.0,3.0,0.0
1183,59.0,30.0,20.0,11.0,0.0
1184,56.0,0.0,20.0,11.0,0.0
1185,59.0,0.0,20.0,11.0,0.0
1186,56.0,12.0,20.0,11.0,0.0
1187,59.0,30.0,20.0,11.0,0.0
1188,56.0,0.0,20.0,11.0,0.0
1189,64.0,0.0,20.0,3.0,0.0
1190,76.0,0.0,20.0,3.0,0.0
1191,76.0,30.0,20.0,11.0,0.0
1192,58.0,0.0,20.0,11.0,0.0
1193,55.0,0.0,20.0,11.0,0.0
1194,75.0,0.0,20.0,3.0,0.0
1195,63.0,0.0,20.0,3.0,0.0
1196,58.0,0.0,20.0,11.0,0.0
1197,75.0,0.0,20.0,11.0,0.0
1198,55.0,30.0,20.0,11.0,0.0
1199,42.0,0.0,90.0,4.0,0.0
1200,75.0,0.0,40.0,11.0,0.0
1201,54.0,0.0,90.0,6.0,0.0
1202,42.0,0.0,90.0,6.0,0.0
1203,54.0,24.0,20.0,11.0,0.0
1204,75.0,6.0,40.0,3.0,0.0
1205,42.0,0.0,90.0,8.0,0.0
1206,42.0,18.0,90.0,13.0,0.0
1207,63.0,0.0,40.0,3.0,0.0
1208,51.0,0.0,90.0,5.0,0.0
1209,42.0,0.0,90.0,5.0,0.0
1210,57.0,0.0,20.0,11.0,0.0
1211,42.0,0.0,90.0,12.0,0.0
1212,54.0,30.0,20.0,11.0,0.0
1213,57.0,0.0,20.0,11.0,0.0
1214,54.0,12.0,20.0,11.0,0.0
1215,57.0,0.0,20.0,11.0,0.0
1216,54.0,0.0,20.0,11.0,0.0
1217,57.0,30.0,20.0,11.0,0.0
1218,74.0,0.0,20.0,3.0,0.0
1219,86.0,0.0,20.0,0.0,0.0
1220,74.0,0.0,20.0,0.0,0.0
1221,74.0,0.0,20.0,11.0,0.0
1222,62.0,0.0,20.0,3.0,0.0
1223,62.0,0.0,20.0,4.0,0.0
1224,53.0,0.0,20.0,11.0,0.0
1225,56.0,30.0,20.0,11.0,0.0
1226,73.0,0.0,20.0,3.0,0.0
1227,56.0,0.0,20.0,11.0,0.0
1228,73.0,0.0,20.0,0.0,0.0
1229,85.0,0.0,20.0,0.0,0.0
1230,61.0,0.0,20.0,3.0,0.0
1231,61.0,30.0,20.0,4.0,0.0
1232,73.0,0.0,20.0,11.0,0.0
1233,53.0,0.0,20.0,11.0,0.0
1234,52.0,0.0,20.0,11.0,0.0
1235,73.0,0.0,40.0,3.0,0.0
1236,54.0,0.0,90.0,6.0,0.0
1237,42.0,0.0,90.0,12.0,0.0
1238,42.0,0.0,90.0,6.0,0.0
1239,61.0,0.0,40.0,4.0,0.0
1240,42.0,0.0,90.0,13.0,0.0
1241,73.0,0.0,40.0,0.0,0.0
1242,85.0,0.0,40.0,0.0,0.0
1243,42.0,18.0,90.0,5.0,0.0
1244,61.0,0.0,40.0,3.0,0.0
1245,73.0,6.0,40.0,11.0,0.0
1246,55.0,24.0,20.0,11.0,0.0
1247,42.0,0.0,90.0,8.0,0.0
1248,42.0,0.0,90.0,4.0,0.0
1249,51.0,0.0,90.0,5.0,0.0
1250,52.0,0.0,20.0,11.0,0.0
1251,55.0,30.0,20.0,11.0,0.0
1252,55.0,12.0,20.0,11.0,0.0
1253,52.0,0.0,20.0,11.0,0.0
1254,52.0,0.0,20.0,11.0,0.0
1255,55.0,30.0,20.0,11.0,0.0
1256,72.0,0.0,20.0,11.0,0.0
1257,72.0,30.0,20.0,3.0,0.0
1258,60.0,0.0,20.0,3.0,0.0
1259,84.0,0.0,20.0,0.0,0.0
1260,72.0,0.0,20.0,0.0,0.0
1261,51.0,0.0,20.0,11.0,0.0
1262,60.0,0.0,20.0,4.0,0.0
1263,54.0,0.0,20.0,11.0,0.0
1264,71.0,0.0,20.0,3.0,0.0
1265,59.0,0.0,20.0,3.0,0.0
1266,71.0,0.0,20.0,11.0,0.0
1267,83.0,30.0,20.0,0.0,0.0
1268,71.0,0.0,20.0,0.0,0.0
1269,59.0,0.0,20.0,4.0,0.0
1270,54.0,0.0,20.0,11.0,0.0
1271,51.0,0.0,20.0,11.0,0.0
1272,50.0,24.0,20.0,11.0,0.0
1273,42.0,0.0,90.0,12.0,0.0
1274,42.0,0.0,90.0,8.0,0.0
1275,42.0,0.0,90.0,5.0,0.0
1276,42.0,0.0,90.0,13.0,0.0
1277,59.0,0.0,40.0,3.0,0.0
1278,42.0,0.0,90.0,4.0,0.0
1279,71.0,0.0,40.0,0.0,0.0
1280,71.0,0.0,40.0,11.0,0.0
1281,59.0,0.0,40.0,4.0,0.0
1282,71.0,0.0,40.0,3.0,0.0
1283,42.0,0.0,90.0,6.0,0.0
1284,54.0,0.0,90.0,6.0,0.0
1285,51.0,0.0,90.0,5.0,0.0
1286,53.0,0.0,20.0,11.0,0.0
1287,83.0,6.0,40.0,0.0,0.0
1288,50.0,30.0,20.0,11.0,0.0
1289,53.0,0.0,20.0,11.0,0.0
1290,50.0,0.0,20.0,11.0,0.0
1291,53.0,12.0,20.0,11.0,0.0
1292,50.0,0.0,20.0,11.0,0.0
1293,53.0,30.0,20.0,11.0,0.0
1294,59.0,0.0,20.0,3.0,0.0
1295,71.0,24.0,20.0,11.0,0.0
1296,52.0,0.0,20.0,11.0,0.0
1297,76.0,6.0,40.0,1.0,0.0
1298,59.0,0.0,20.0,4.0,0.0
1299,73.0,0.0,40.0,1.0,0.0
1300,83.0,0.0,20.0,0.0,0.0
1301,78.0,0.0,60.0,0.0,0.0
1302,49.0,0.0,20.0,11.0,0.0
1303,71.0,0.0,20.0,3.0,0.0
1304,49.0,30.0,20.0,11.0,0.0
1305,58.0,0.0,20.0,4.0,0.0
1306,52.0,0.0,20.0,11.0,0.0
1307,70.0,0.0,20.0,11.0,0.0
1308,82.0,0.0,20.0,0.0,0.0
1309,70.0,0.0,20.0,3.0,0.0
1310,58.0,0.0,20.0,3.0,0.0
1311,82.0,0.0,90.0,0.0,0.0
1312,78.0,18.0,90.0,0.0,0.0
1313,70.0,0.0,90.0,3.0,0.0
1314,42.0,0.0,90.0,12.0,0.0
1315,49.0,30.0,20.0,11.0,0.0
1316,70.0,0.0,90.0,11.0,0.0
1317,64.0,0.0,90.0,5.0,0.0
1318,61.0,0.0,90.0,5.0,0.0
1319,52.0,0.0,20.0,11.0,0.0
1320,58.0,0.0,90.0,3.0,0.0
1321,42.0,0.0,90.0,4.0,0.0
1322,42.0,0.0,90.0,13.0,0.0
1323,76.0,0.0,90.0,1.0,0.0
1324,73.0,0.0,90.0,1.0,0.0
1325,42.0,0.0,90.0,8.0,0.0
1326,58.0,0.0,90.0,4.0,0.0
1327,54.0,0.0,90.0,6.0,0.0
1328,42.0,0.0,90.0,6.0,0.0
1329,54.0,0.0,20.0,11.0,0.0
1330,52.0,30.0,20.0,11.0,0.0
1331,52.0,12.0,20.0,11.0,0.0
1332,49.0,0.0,20.0,11.0,0.0
1333,52.0,0.0,20.0,11.0,0.0
1334,54.0,30.0,20.0,11.0,0.0
1335,76.0,0.0,40.0,1.0,0.0
1336,42.0,0.0,40.0,6.0,0.0
1337,54.0,0.0,40.0,6.0,0.0
1338,58.0,6.0,40.0,3.0,0.0
1339,82.0,0.0,40.0,0.0,0.0
1340,52.0,24.0,20.0,11.0,0.0
1341,78.0,0.0,40.0,0.0,0.0
1342,42.0,0.0,40.0,13.0,0.0
1343,70.0,0.0,40.0,3.0,0.0
1344,42.0,0.0,40.0,4.0,0.0
1345,58.0,0.0,40.0,4.0,0.0
1346,42.0,0.0,40.0,12.0,0.0
1347,64.0,0.0,40.0,5.0,0.0
1348,73.0,0.0,40.0,1.0,0.0
1349,61.0,0.0,40.0,5.0,0.0
1350,49.0,0.0,20.0,11.0,0.0
1351,70.0,0.0,40.0,11.0,0.0
1352,42.0,0.0,40.0,8.0,0.0
1353,54.0,0.0,20.0,11.0,0.0
1354,52.0,30.0,20.0,11.0,0.0
1355,76.0,0.0,60.0,1.0,0.0
1356,70.0,0.0,60.0,3.0,0.0
1357,42.0,0.0,60.0,6.0,0.0
1358,54.0,0.0,60.0,6.0,0.0
1359,42.0,0.0,60.0,8.0,0.0
1360,42.0,0.0,60.0,13.0,0.0
1361,73.0,0.0,60.0,1.0,0.0
1362,58.0,0.0,60.0,3.0,0.0
1363,82.0,0.0,60.0,0.0,0.0
1364,42.0,0.0,60.0,4.0,0.0
1365,58.0,0.0,60.0,4.0,0.0
1366,64.0,0.0,60.0,5.0,0.0
1367,61.0,0.0,60.0,5.0,0.0
1368,52.0,0.0,20.0,11.0,0.0
1369,49.0,30.0,20.0,11.0,0.0
1370,42.0,12.0,60.0,12.0,0.0
1371,78.0,0.0,60.0,0.0,0.0
1372,70.0,0.0,60.0,11.0,0.0
1373,54.0,0.0,20.0,11.0,0.0
1374,52.0,18.0,20.0,11.0,0.0
1375,52.0,0.0,20.0,11.0,0.0
1376,49.0,30.0,20.0,11.0,0.0
1377,42.0,0.0,20.0,6.0,0.0
1378,71.0,0.0,20.0,11.0,0.0
1379,42.0,0.0,20.0,12.0,0.0
1380,63.0,0.0,20.0,5.0,0.0
1381,54.0,0.0,20.0,6.0,0.0
1382,71.0,0.0,20.0,3.0,0.0
1383,83.0,0.0,20.0,0.0,0.0
1384,78.0,0.0,20.0,0.0,0.0
1385,42.0,0.0,20.0,8.0,0.0
1386,59.0,0.0,20.0,5.0,0.0
1387,59.0,0.0,20.0,3.0,0.0
1388,51.0,0.0,20.0,11.0,0.0
1389,42.0,0.0,20.0,4.0,0.0
1390,47.0,30.0,20.0,11.0,0.0
1391,75.0,0.0,20.0,1.0,0.0
1392,71.0,0.0,20.0,1.0,0.0
1393,42.0,0.0,20.0,13.0,0.0
1394,59.0,0.0,20.0,4.0,0.0
1395,76.0,0.0,40.0,1.0,0.0
1396,73.0,0.0,40.0,11.0,0.0
1397,61.0,0.0,40.0,5.0,0.0
1398,54.0,0.0,40.0,5.0,0.0
1399,78.0,0.0,40.0,0.0,0.0
1400,85.0,0.0,40.0,0.0,0.0
1401,46.0,24.0,20.0,11.0,0.0
1402,73.0,0.0,40.0,1.0,0.0
1403,73.0,0.0,40.0,3.0,0.0
1404,42.0,0.0,40.0,12.0,0.0
1405,42.0,0.0,40.0,13.0,0.0
1406,61.0,0.0,40.0,3.0,0.0
1407,42.0,6.0,40.0,6.0,0.0
1408,54.0,0.0,40.0,6.0,0.0
1409,61.0,0.0,40.0,4.0,0.0
1410,42.0,0.0,40.0,4.0,0.0
1411,52.0,0.0,20.0,11.0,0.0
1412,42.0,0.0,40.0,8.0,0.0
1413,54.0,0.0,20.0,11.0,0.0
1414,58.0,30.0,20.0,11.0,0.0
1415,47.0,0.0,90.0,13.0,0.0
1416,51.0,0.0,90.0,5.0,0.0
1417,47.0,0.0,90.0,6.0,0.0
1418,61.0,0.0,40.0,3.0,0.0
1419,73.0,0.0,40.0,3.0,0.0
1420,73.0,6.0,40.0,11.0,0.0
1421,51.0,12.0,90.0,6.0,0.0
1422,85.0,0.0,40.0,0.0,0.0
1423,51.0,24.0,20.0,11.0,0.0
1424,47.0,0.0,90.0,4.0,0.0
1425,59.0,0.0,90.0,5.0,0.0
1426,47.0,0.0,20.0,11.0,0.0
1427,61.0,0.0,40.0,4.0,0.0
1428,76.0,0.0,40.0,1.0,0.0
1429,47.0,0.0,90.0,12.0,0.0
1430,47.0,0.0,90.0,8.0,0.0
1431,73.0,0.0,40.0,1.0,0.0
1432,54.0,0.0,20.0,11.0,0.0
1433,51.0,30.0,20.0,11.0,0.0
1434,87.0,0.0,40.0,0.0,0.0
1435,51.0,12.0,20.0,11.0,0.0
1436,63.0,0.0,40.0,3.0,0.0
1437,75.0,0.0,40.0,11.0,0.0
1438,47.0,0.0,20.0,11.0,0.0
1439,63.0,0.0,40.0,4.0,0.0
1440,75.0,0.0,40.0,3.0,0.0
1441,75.0,0.0,40.0,1.0,0.0
1442,71.0,6.0,40.0,1.0,0.0
1443,54.0,30.0,20.0,11.0,0.0
1444,51.0,0.0,20.0,11.0,0.0
1445,71.0,6.0,40.0,3.0,0.0
1446,71.0,0.0,40.0,1.0,0.0
1447,51.0,0.0,40.0,6.0,0.0
1448,75.0,0.0,40.0,1.0,0.0
1449,59.0,0.0,40.0,4.0,0.0
1450,71.0,0.0,40.0,11.0,0.0
1451,47.0,0.0,40.0,12.0,0.0
1452,47.0,0.0,40.0,4.0,0.0
1453,47.0,0.0,20.0,11.0,0.0
1454,59.0,0.0,40.0,5.0,0.0
1455,47.0,0.0,40.0,13.0,0.0
1456,47.0,0.0,40.0,6.0,0.0
1457,51.0,0.0,40.0,5.0,0.0
1458,47.0,0.0,40.0,8.0,0.0
1459,83.0,0.0,40.0,0.0,0.0
1460,59.0,0.0,40.0,3.0,0.0
1461,51.0,24.0,20.0,11.0,0.0
1462,51.0,0.0,20.0,11.0,0.0
1463,54.0,30.0,20.0,11.0,0.0
1464,71.0,0.0,90.0,1.0,0.0
1465,47.0,0.0,90.0,6.0,0.0
1466,51.0,0.0,90.0,6.0,0.0
1467,47.0,0.0,90.0,8.0,0.0
1468,83.0,0.0,90.0,0.0,0.0
1469,47.0,0.0,90.0,12.0,0.0
1470,51.0,24.0,20.0,11.0,0.0
1471,71.0,0.0,90.0,3.0,0.0
1472,59.0,6.0,40.0,3.0,0.0
1473,71.0,0.0,90.0,11.0,0.0
1474,47.0,18.0,90.0,4.0,0.0
1475,59.0,0.0,90.0,4.0,0.0
1476,47.0,0.0,20.0,11.0,0.0
1477,47.0,0.0,90.0,13.0,0.0
1478,75.0,0.0,90.0,1.0,0.0
1479,59.0,0.0,90.0,5.0,0.0
1480,51.0,0.0,90.0,5.0,0.0
1481,54.0,30.0,20.0,11.0,0.0
1482,51.0,0.0,20.0,11.0,0.0
1483,51.0,12.0,20.0,11.0,0.0
1484,47.0,0.0,20.0,11.0,0.0
1485,54.0,30.0,20.0,11.0,0.0
1486,51.0,0.0,20.0,11.0,0.0
1487,73.0,0.0,40.0,1.0,0.0
1488,42.0,6.0,40.0,13.0,0.0
1489,76.0,0.0,40.0,1.0,0.0
1490,54.0,0.0,40.0,5.0,0.0
1491,61.0,0.0,40.0,5.0,0.0
1492,71.0,24.0,20.0,11.0,0.0
1493,49.0,0.0,20.0,11.0,0.0
1494,83.0,0.0,20.0,0.0,0.0
1495,42.0,0.0,40.0,6.0,0.0
1496,42.0,0.0,40.0,8.0,0.0
1497,59.0,0.0,20.0,4.0,0.0
1498,42.0,0.0,40.0,4.0,0.0
1499,42.0,0.0,40.0,12.0,0.0
1500,54.0,0.0,40.0,6.0,0.0
1501,52.0,0.0,20.0,11.0,0.0
1502,59.0,0.0,20.0,3.0,0.0
1503,71.0,0.0,20.0,3.0,0.0
1504,54.0,0.0,20.0,11.0,0.0
1505,70.0,0.0,20.0,11.0,0.0
1506,82.0,30.0,20.0,0.0,0.0
1507,58.0,0.0,20.0,3.0,0.0
1508,70.0,0.0,20.0,3.0,0.0
1509,52.0,0.0,20.0,11.0,0.0
1510,58.0,0.0,20.0,4.0,0.0
1511,58.0,0.0,90.0,3.0,0.0
1512,64.0,0.0,90.0,5.0,0.0
1513,61.0,0.0,90.0,5.0,0.0
1514,78.0,0.0,90.0,0.0,0.0
1515,70.0,0.0,90.0,11.0,0.0
1516,58.0,0.0,90.0,4.0,0.0
1517,42.0,0.0,90.0,4.0,0.0
1518,70.0,0.0,90.0,3.0,0.0
1519,82.0,0.0,90.0,0.0,0.0
1520,52.0,30.0,20.0,11.0,0.0
1521,42.0,18.0,90.0,12.0,0.0
1522,42.0,0.0,90.0,6.0,0.0
1523,54.0,0.0,90.0,6.0,0.0
1524,42.0,0.0,90.0,8.0,0.0
1525,42.0,0.0,90.0,13.0,0.0
1526,49.0,0.0,20.0,11.0,0.0
1527,73.0,0.0,90.0,1.0,0.0
1528,76.0,0.0,90.0,1.0,0.0
1529,52.0,30.0,20.0,11.0,0.0
1530,54.0,0.0,20.0,11.0,0.0
1531,52.0,0.0,20.0,11.0,0.0
1532,49.0,12.0,20.0,11.0,0.0
1533,52.0,0.0,20.0,11.0,0.0
1534,54.0,30.0,20.0,11.0,0.0
1535,58.0,0.0,40.0,3.0,0.0
1536,52.0,0.0,20.0,11.0,0.0
1537,49.0,24.0,20.0,11.0,0.0
1538,42.0,0.0,40.0,13.0,0.0
1539,42.0,0.0,40.0,4.0,0.0
1540,58.0,0.0,40.0,4.0,0.0
1541,54.0,6.0,40.0,6.0,0.0
1542,42.0,0.0,40.0,6.0,0.0
1543,78.0,0.0,40.0,0.0,0.0
1544,70.0,0.0,40.0,3.0,0.0
1545,42.0,0.0,40.0,8.0,0.0
1546,82.0,0.0,40.0,0.0,0.0
1547,76.0,0.0,40.0,1.0,0.0
1548,64.0,0.0,40.0,5.0,0.0
1549,61.0,0.0,40.0,5.0,0.0
1550,70.0,0.0,40.0,11.0,0.0
1551,42.0,0.0,40.0,12.0,0.0
1552,73.0,0.0,40.0,1.0,0.0
1553,54.0,0.0,20.0,11.0,0.0
1554,52.0,30.0,20.0,11.0,0.0
1555,54.0,0.0,60.0,6.0,0.0
1556,70.0,0.0,60.0,11.0,0.0
1557,58.0,0.0,60.0,4.0,0.0
1558,52.0,30.0,20.0,11.0,0.0
1559,42.0,12.0,60.0,6.0,0.0
1560,42.0,0.0,60.0,4.0,0.0
1561,42.0,0.0,60.0,12.0,0.0
1562,76.0,0.0,60.0,1.0,0.0
1563,73.0,0.0,60.0,1.0,0.0
1564,49.0,0.0,20.0,11.0,0.0
1565,58.0,0.0,60.0,3.0,0.0
1566,70.0,0.0,60.0,3.0,0.0
1567,42.0,0.0,60.0,8.0,0.0
1568,61.0,0.0,60.0,5.0,0.0
1569,64.0,0.0,60.0,5.0,0.0
1570,82.0,0.0,60.0,0.0,0.0
1571,78.0,0.0,60.0,0.0,0.0
1572,42.0,0.0,60.0,13.0,0.0
1573,54.0,18.0,20.0,11.0,0.0
1574,52.0,0.0,20.0,11.0,0.0
1575,52.0,0.0,20.0,11.0,0.0
1576,49.0,30.0,20.0,11.0,0.0
1577,42.0,0.0,20.0,12.0,0.0
1578,59.0,0.0,20.0,5.0,0.0
1579,71.0,0.0,20.0,11.0,0.0
1580,42.0,0.0,20.0,4.0,0.0
1581,59.0,0.0,20.0,4.0,0.0
1582,42.0,0.0,20.0,13.0,0.0
1583,42.0,0.0,20.0,8.0,0.0
1584,83.0,0.0,20.0,0.0,0.0
1585,47.0,0.0,20.0,11.0,0.0
1586,71.0,0.0,20.0,1.0,0.0
1587,75.0,0.0,20.0,1.0,0.0
1588,78.0,0.0,20.0,0.0,0.0
1589,42.0,30.0,20.0,6.0,0.0
1590,71.0,0.0,20.0,3.0,0.0
1591,63.0,0.0,20.0,5.0,0.0
1592,51.0,0.0,20.0,11.0,0.0
1593,54.0,0.0,20.0,6.0,0.0
1594,59.0,0.0,20.0,3.0,0.0
1595,52.0,24.0,20.0,11.0,0.0
1596,42.0,0.0,40.0,4.0,0.0
1597,42.0,0.0,40.0,6.0,0.0
1598,73.0,0.0,40.0,11.0,0.0
1599,42.0,6.0,40.0,13.0,0.0
1600,42.0,0.0,40.0,8.0,0.0
1601,76.0,0.0,40.0,1.0,0.0
1602,61.0,0.0,40.0,4.0,0.0
1603,73.0,0.0,40.0,1.0,0.0
1604,42.0,0.0,40.0,12.0,0.0
1605,54.0,0.0,40.0,6.0,0.0
1606,61.0,0.0,40.0,3.0,0.0
1607,73.0,0.0,40.0,3.0,0.0
1608,85.0,0.0,40.0,0.0,0.0
1609,54.0,0.0,40.0,5.0,0.0
1610,78.0,0.0,40.0,0.0,0.0
1611,61.0,0.0,40.0,5.0,0.0
1612,46.0,0.0,20.0,11.0,0.0
1613,58.0,0.0,20.0,11.0,0.0
1614,54.0,30.0,20.0,11.0,0.0
1615,73.0,30.0,20.0,3.0,0.0
1616,51.0,0.0,90.0,5.0,0.0
1617,59.0,0.0,90.0,5.0,0.0
1618,85.0,0.0,20.0,0.0,0.0
1619,61.0,0.0,20.0,4.0,0.0
1620,47.0,0.0,270.0,12.0,0.0
1621,71.0,0.0,90.0,1.0,0.0
1622,59.0,0.0,90.0,6.0,0.0
1623,73.0,0.0,20.0,11.0,0.0
1624,47.0,18.0,270.0,13.0,0.0
1625,51.0,0.0,20.0,11.0,0.0
1626,61.0,0.0,20.0,3.0,0.0
1627,47.0,0.0,20.0,11.0,0.0
1628,47.0,0.0,90.0,8.0,0.0
1629,47.0,18.0,90.0,6.0,0.0
1630,75.0,0.0,90.0,1.0,0.0
1631,51.0,0.0,20.0,11.0,0.0
1632,75.0,0.0,20.0,3.0,0.0
1633,87.0,0.0,20.0,0.0,0.0
1634,54.0,30.0,20.0,11.0,0.0
1635,75.0,0.0,20.0,11.0,0.0
1636,63.0,0.0,20.0,4.0,0.0
1637,63.0,0.0,20.0,3.0,0.0
1638,47.0,12.0,20.0,11.0,0.0
1639,51.0,0.0,20.0,11.0,0.0
1640,51.0,30.0,20.0,11.0,0.0
1641,54.0,0.0,20.0,11.0,0.0
1642,71.0,0.0,40.0,11.0,0.0
1643,83.0,0.0,40.0,0.0,0.0
1644,47.0,0.0,20.0,11.0,0.0
1645,71.0,0.0,40.0,0.0,0.0
1646,47.0,0.0,40.0,4.0,0.0
1647,71.0,0.0,40.0,3.0,0.0
1648,59.0,0.0,40.0,1.0,0.0
1649,51.0,24.0,20.0,11.0,0.0
1650,71.0,0.0,40.0,1.0,0.0
1651,59.0,6.0,40.0,3.0,0.0
1652,51.0,30.0,20.0,11.0,0.0
1653,54.0,0.0,20.0,11.0,0.0
1654,59.0,0.0,60.0,1.0,0.0
1655,71.0,0.0,60.0,1.0,0.0
1656,47.0,0.0,60.0,4.0,0.0
1657,71.0,12.0,60.0,11.0,0.0
1658,47.0,0.0,20.0,11.0,0.0
1659,51.0,30.0,20.0,11.0,0.0
1660,71.0,0.0,60.0,3.0,0.0
1661,59.0,0.0,60.0,3.0,0.0
1662,83.0,0.0,60.0,0.0,0.0
1663,71.0,0.0,60.0,0.0,0.0
1664,54.0,0.0,20.0,11.0,0.0
1665,51.0,18.0,20.0,11.0,0.0
1666,59.0,12.0,20.0,11.0,0.0
1667,54.0,0.0,20.0,11.0,0.0
1668,73.0,0.0,20.0,3.0,0.0
1669,49.0,0.0,20.0,4.0,0.0
1670,85.0,0.0,20.0,0.0,0.0
1671,73.0,0.0,20.0,0.0,0.0
1672,61.0,0.0,20.0,3.0,0.0
1673,54.0,30.0,20.0,11.0,0.0
1674,73.0,0.0,20.0,11.0,0.0
1675,51.0,0.0,20.0,11.0,0.0
1676,61.0,0.0,20.0,1.0,0.0
1677,73.0,0.0,20.0,1.0,0.0
1678,35.0,0.0,40.0,13.0,0.0
1679,51.0,0.0,40.0,4.0,0.0
1680,63.0,0.0,40.0,1.0,0.0
1681,75.0,0.0,40.0,1.0,0.0
1682,75.0,6.0,40.0,11.0,0.0
1683,75.0,0.0,40.0,0.0,0.0
1684,35.0,0.0,40.0,4.0,0.0
1685,63.0,0.0,40.0,3.0,0.0
1686,47.0,24.0,20.0,11.0,0.0
1687,87.0,0.0,40.0,0.0,0.0
1688,75.0,0.0,40.0,3.0,0.0
1689,35.0,0.0,40.0,12.0,0.0
1690,51.0,0.0,20.0,11.0,0.0
1691,54.0,30.0,20.0,11.0,0.0
1692,51.0,0.0,20.0,11.0,0.0
1693,49.0,0.0,20.0,11.0,0.0
1694,52.0,0.0,20.0,11.0,0.0
1695,75.0,0.0,20.0,3.0,0.0
1696,63.0,30.0,20.0,3.0,0.0
1697,63.0,0.0,20.0,1.0,0.0
1698,49.0,18.0,270.0,12.0,0.0
1699,75.0,0.0,20.0,11.0,0.0
1700,54.0,0.0,90.0,6.0,0.0
1701,42.0,0.0,90.0,6.0,0.0
1702,42.0,18.0,90.0,8.0,0.0
1703,49.0,0.0,270.0,13.0,0.0
1704,87.0,0.0,20.0,0.0,0.0
1705,51.0,0.0,20.0,4.0,0.0
1706,75.0,0.0,20.0,0.0,0.0
1707,61.0,0.0,90.0,5.0,0.0
1708,75.0,0.0,20.0,1.0,0.0
1709,54.0,0.0,20.0,11.0,0.0
1710,76.0,0.0,20.0,11.0,0.0
1711,76.0,0.0,20.0,3.0,0.0
1712,64.0,0.0,20.0,3.0,0.0
1713,76.0,30.0,20.0,0.0,0.0
1714,52.0,0.0,20.0,4.0,0.0
1715,64.0,0.0,20.0,1.0,0.0
1716,76.0,0.0,20.0,1.0,0.0
1717,52.0,0.0,20.0,11.0,0.0
1718,88.0,0.0,20.0,0.0,0.0
1719,52.0,12.0,20.0,11.0,0.0
1720,49.0,0.0,20.0,11.0,0.0
1721,54.0,0.0,20.0,11.0,0.0
1722,52.0,30.0,20.0,11.0,0.0
1723,49.0,0.0,40.0,4.0,0.0
1724,73.0,0.0,40.0,0.0,0.0
1725,49.0,0.0,20.0,11.0,0.0
1726,73.0,0.0,40.0,1.0,0.0
1727,61.0,0.0,40.0,1.0,0.0
1728,85.0,0.0,40.0,0.0,0.0
1729,61.0,0.0,40.0,3.0,0.0
1730,73.0,0.0,40.0,11.0,0.0
1731,73.0,6.0,40.0,3.0,0.0
1732,52.0,24.0,20.0,11.0,0.0
1733,52.0,0.0,20.0,11.0,0.0
1734,54.0,30.0,20.0,11.0,0.0
1735,73.0,12.0,60.0,3.0,0.0
1736,49.0,30.0,20.0,11.0,0.0
1737,73.0,0.0,60.0,1.0,0.0
1738,61.0,0.0,60.0,3.0,0.0
1739,52.0,0.0,20.0,11.0,0.0
1740,61.0,0.0,60.0,1.0,0.0
1741,73.0,0.0,60.0,11.0,0.0
1742,73.0,0.0,60.0,0.0,0.0
1743,49.0,0.0,60.0,4.0,0.0
1744,85.0,0.0,60.0,0.0,0.0
1745,54.0,18.0,20.0,11.0,0.0
1746,52.0,0.0,20.0,11.0,0.0
1747,54.0,12.0,20.0,11.0,0.0
1748,58.0,0.0,20.0,11.0,0.0
1749,63.0,0.0,20.0,1.0,0.0
1750,75.0,30.0,20.0,1.0,0.0
1751,54.0,0.0,20.0,11.0,0.0
1752,51.0,0.0,20.0,4.0,0.0
1753,52.0,0.0,20.0,11.0,0.0
1754,63.0,0.0,20.0,3.0,0.0
1755,75.0,0.0,20.0,3.0,0.0
1756,75.0,0.0,20.0,11.0,0.0
1757,75.0,0.0,20.0,0.0,0.0
1758,87.0,0.0,20.0,0.0,0.0
1759,76.0,0.0,40.0,0.0,0.0
1760,37.0,6.0,40.0,13.0,0.0
1761,52.0,0.0,20.0,11.0,0.0
1762,64.0,0.0,40.0,1.0,0.0
1763,76.0,0.0,40.0,1.0,0.0
1764,88.0,0.0,40.0,0.0,0.0
1765,76.0,0.0,40.0,11.0,0.0
1766,37.0,0.0,40.0,4.0,0.0
1767,52.0,0.0,40.0,4.0,0.0
1768,76.0,0.0,40.0,3.0,0.0
1769,64.0,0.0,40.0,3.0,0.0
1770,37.0,0.0,40.0,12.0,0.0
1771,49.0,24.0,20.0,11.0,0.0
1772,54.0,0.0,20.0,11.0,0.0
1773,52.0,30.0,20.0,11.0,0.0
1774,76.0,0.0,20.0,3.0,0.0
1775,78.0,0.0,40.0,0.0,0.0
1776,66.0,6.0,40.0,0.0,0.0
1777,59.0,0.0,90.0,6.0,0.0
1778,47.0,0.0,20.0,11.0,0.0
1779,51.0,0.0,270.0,13.0,0.0
1780,52.0,0.0,20.0,4.0,0.0
1781,63.0,0.0,90.0,5.0,0.0
1782,64.0,24.0,20.0,3.0,0.0
1783,47.0,18.0,90.0,8.0,0.0
1784,47.0,0.0,90.0,6.0,0.0
1785,76.0,0.0,20.0,1.0,0.0
1786,51.0,18.0,270.0,12.0,0.0
1787,76.0,0.0,20.0,11.0,0.0
1788,64.0,0.0,20.0,1.0,0.0
1789,54.0,0.0,20.0,11.0,0.0
1790,78.0,0.0,20.0,3.0,0.0
1791,66.0,0.0,20.0,1.0,0.0
1792,78.0,0.0,20.0,1.0,0.0
1793,66.0,0.0,20.0,3.0,0.0
1794,59.0,0.0,20.0,11.0,0.0
1795,54.0,0.0,20.0,4.0,0.0
1796,54.0,30.0,20.0,11.0,0.0
1797,78.0,0.0,20.0,11.0,0.0
1798,54.0,0.0,20.0,11.0,0.0
1799,47.0,12.0,20.0,11.0,0.0
1800,54.0,30.0,20.0,11.0,0.0
1801,59.0,0.0,20.0,11.0,0.0
1802,75.0,0.0,40.0,3.0,0.0
1803,51.0,0.0,40.0,4.0,0.0
1804,47.0,0.0,20.0,11.0,0.0
1805,63.0,6.0,40.0,3.0,0.0
1806,75.0,0.0,40.0,11.0,0.0
1807,75.0,0.0,40.0,1.0,0.0
1808,54.0,24.0,20.0,11.0,0.0
1809,63.0,0.0,40.0,1.0,0.0
1810,54.0,30.0,20.0,11.0,0.0
1811,59.0,0.0,20.0,11.0,0.0
1812,51.0,0.0,60.0,4.0,0.0
1813,47.0,30.0,20.0,11.0,0.0
1814,75.0,0.0,60.0,11.0,0.0
1815,75.0,0.0,60.0,1.0,0.0
1816,63.0,0.0,60.0,1.0,0.0
1817,54.0,0.0,20.0,11.0,0.0
1818,75.0,12.0,60.0,3.0,0.0
1819,63.0,0.0,60.0,3.0,0.0
1820,59.0,0.0,20.0,11.0,0.0
1821,54.0,18.0,20.0,11.0,0.0
1822,63.0,12.0,20.0,11.0,0.0
1823,59.0,0.0,20.0,11.0,0.0
1824,76.0,0.0,20.0,1.0,0.0
1825,76.0,30.0,20.0,3.0,0.0
1826,59.0,0.0,20.0,11.0,0.0
1827,64.0,0.0,20.0,3.0,0.0
1828,54.0,0.0,20.0,11.0,0.0
1829,76.0,0.0,20.0,11.0,0.0
1830,52.0,0.0,20.0,4.0,0.0
1831,64.0,0.0,20.0,1.0,0.0
1832,54.0,0.0,20.0,11.0,0.0
1833,39.0,6.0,40.0,4.0,0.0
1834,54.0,0.0,40.0,4.0,0.0
1835,66.0,0.0,40.0,3.0,0.0
1836,78.0,0.0,40.0,3.0,0.0
1837,47.0,24.0,20.0,11.0,0.0
1838,78.0,0.0,40.0,1.0,0.0
1839,39.0,0.0,40.0,12.0,0.0
1840,66.0,0.0,40.0,1.0,0.0
1841,39.0,0.0,40.0,13.0,0.0
1842,78.0,0.0,40.0,11.0,0.0
1843,59.0,0.0,20.0,11.0,0.0
1844,54.0,30.0,20.0,11.0,0.0
1845,56.0,0.0,20.0,11.0,0.0
1846,80.0,0.0,60.0,11.0,0.0
1847,40.0,0.0,60.0,13.0,0.0
1848,61.0,18.0,90.0,5.0,0.0
1849,59.0,0.0,90.0,5.0,0.0
1850,40.0,0.0,60.0,4.0,0.0
1851,56.0,0.0,60.0,4.0,0.0
1852,47.0,0.0,90.0,8.0,0.0
1853,80.0,0.0,60.0,3.0,0.0
1854,68.0,0.0,60.0,3.0,0.0
1855,47.0,30.0,20.0,11.0,0.0
1856,68.0,12.0,60.0,1.0,0.0
1857,80.0,0.0,60.0,1.0,0.0
1858,47.0,0.0,90.0,6.0,0.0
1859,59.0,0.0,90.0,6.0,0.0
1860,40.0,0.0,60.0,12.0,0.0
1861,59.0,18.0,20.0,11.0,0.0
1862,56.0,0.0,20.0,11.0,0.0
1863,56.0,0.0,20.0,11.0,0.0
1864,47.0,12.0,20.0,11.0,0.0
1865,59.0,0.0,20.0,11.0,0.0
1866,78.0,0.0,20.0,11.0,0.0
1867,66.0,0.0,20.0,3.0,0.0
1868,68.0,0.0,20.0,1.0,0.0
1869,52.0,0.0,20.0,13.0,0.0
1870,52.0,0.0,20.0,4.0,0.0
1871,54.0,0.0,20.0,4.0,0.0
1872,78.0,30.0,20.0,3.0,0.0
1873,52.0,0.0,20.0,12.0,0.0
1874,56.0,0.0,20.0,11.0,0.0
1875,78.0,0.0,20.0,1.0,0.0
1876,68.0,0.0,40.0,1.0,0.0
1877,52.0,0.0,40.0,12.0,0.0
1878,76.0,0.0,40.0,11.0,0.0
1879,76.0,0.0,40.0,1.0,0.0
1880,56.0,24.0,20.0,11.0,0.0
1881,52.0,0.0,40.0,4.0,0.0
1882,76.0,6.0,40.0,3.0,0.0
1883,64.0,0.0,40.0,3.0,0.0
1884,52.0,0.0,40.0,13.0,0.0
1885,47.0,0.0,20.0,11.0,0.0
1886,56.0,0.0,20.0,11.0,0.0
1887,59.0,30.0,20.0,11.0,0.0
1888,80.0,0.0,60.0,0.0,0.0
1889,56.0,0.0,20.0,11.0,0.0
1890,52.0,0.0,60.0,13.0,0.0
1891,47.0,0.0,90.0,6.0,0.0
1892,49.0,30.0,20.0,11.0,0.0
1893,59.0,0.0,90.0,6.0,0.0
1894,75.0,0.0,60.0,3.0,0.0
1895,63.0,0.0,60.0,3.0,0.0
1896,52.0,0.0,60.0,4.0,0.0
1897,64.0,0.0,60.0,4.0,0.0
1898,75.0,0.0,60.0,11.0,0.0
1899,47.0,0.0,90.0,8.0,0.0
1900,87.0,0.0,60.0,0.0,0.0
1901,75.0,0.0,60.0,1.0,0.0
1902,61.0,0.0,90.0,5.0,0.0
1903,59.0,18.0,90.0,5.0,0.0
1904,52.0,12.0,60.0,12.0,0.0
1905,68.0,0.0,60.0,1.0,0.0
1906,59.0,18.0,20.0,11.0,0.0
1907,56.0,0.0,20.0,11.0,0.0
1908,49.0,12.0,20.0,11.0,0.0
1909,56.0,0.0,20.0,11.0,0.0
1910,52.0,0.0,20.0,4.0,0.0
1911,73.0,30.0,20.0,11.0,0.0
1912,61.0,0.0,20.0,3.0,0.0
1913,73.0,0.0,20.0,3.0,0.0
1914,52.0,0.0,20.0,12.0,0.0
1915,59.0,0.0,20.0,11.0,0.0
1916,61.0,0.0,20.0,4.0,0.0
1917,52.0,0.0,20.0,13.0,0.0
1918,68.0,0.0,20.0,1.0,0.0
1919,80.0,0.0,20.0,0.0,0.0
1920,85.0,0.0,20.0,0.0,0.0
1921,73.0,0.0,20.0,1.0,0.0
1922,56.0,0.0,20.0,11.0,0.0
1923,51.0,0.0,40.0,4.0,0.0
1924,71.0,0.0,40.0,3.0,0.0
1925,71.0,0.0,40.0,1.0,0.0
1926,59.0,0.0,40.0,4.0,0.0
1927,59.0,0.0,40.0,3.0,0.0
1928,80.0,0.0,40.0,0.0,0.0
1929,53.0,0.0,40.0,12.0,0.0
1930,49.0,0.0,20.0,11.0,0.0
1931,83.0,0.0,40.0,0.0,0.0
1932,56.0,24.0,20.0,11.0,0.0
1933,53.0,0.0,40.0,13.0,0.0
1934,71.0,0.0,40.0,11.0,0.0
1935,68.0,6.0,40.0,1.0,0.0
1936,56.0,0.0,20.0,11.0,0.0
1937,59.0,30.0,20.0,11.0,0.0
1938,70.0,0.0,60.0,3.0,0.0
1939,42.0,0.0,60.0,6.0,0.0
1940,54.0,0.0,60.0,5.0,0.0
1941,54.0,0.0,60.0,6.0,0.0
1942,58.0,30.0,20.0,11.0,0.0
1943,42.0,0.0,60.0,8.0,0.0
1944,61.0,0.0,60.0,5.0,0.0
1945,58.0,0.0,60.0,3.0,0.0
1946,66.0,12.0,60.0,1.0,0.0
1947,54.0,0.0,60.0,4.0,0.0
1948,70.0,0.0,60.0,11.0,0.0
1949,54.0,0.0,60.0,12.0,0.0
1950,54.0,0.0,20.0,11.0,0.0
1951,70.0,0.0,60.0,1.0,0.0
1952,54.0,0.0,60.0,13.0,0.0
1953,82.0,0.0,60.0,0.0,0.0
1954,73.0,0.0,60.0,0.0,0.0
1955,58.0,0.0,60.0,4.0,0.0
1956,54.0,18.0,20.0,11.0,0.0
1957,49.0,0.0,20.0,11.0,0.0
1958,54.0,30.0,20.0,11.0,0.0
1959,59.0,0.0,20.0,11.0,0.0
1960,49.0,0.0,20.0,11.0,0.0
1961,71.0,0.0,20.0,1.0,0.0
1962,42.0,0.0,20.0,8.0,0.0
1963,42.0,0.0,20.0,6.0,0.0
1964,54.0,0.0,20.0,6.0,0.0
1965,54.0,0.0,20.0,5.0,0.0
1966,68.0,0.0,20.0,1.0,0.0
1967,53.0,30.0,20.0,13.0,0.0
1968,61.0,0.0,20.0,5.0,0.0
1969,53.0,0.0,20.0,4.0,0.0
1970,56.0,0.0,20.0,4.0,0.0
1971,68.0,0.0,20.0,11.0,0.0
1972,56.0,0.0,20.0,11.0,0.0
1973,68.0,0.0,20.0,3.0,0.0
1974,56.0,0.0,20.0,3.0,0.0
1975,71.0,0.0,20.0,0.0,0.0
1976,80.0,0.0,20.0,0.0,0.0
1977,53.0,0.0,20.0,12.0,0.0
1978,52.0,0.0,40.0,4.0,0.0
1979,54.0,0.0,40.0,4.0,0.0
1980,58.0,0.0,20.0,11.0,0.0
1981,42.0,0.0,40.0,6.0,0.0
1982,70.0,0.0,40.0,0.0,0.0
1983,73.0,0.0,40.0,1.0,0.0
1984,42.0,0.0,40.0,8.0,0.0
1985,52.0,0.0,40.0,12.0,0.0
1986,66.0,0.0,40.0,3.0,0.0
1987,70.0,0.0,40.0,1.0,0.0
1988,54.0,0.0,40.0,5.0,0.0
1989,61.0,0.0,40.0,5.0,0.0
1990,78.0,0.0,40.0,0.0,0.0
1991,66.0,0.0,40.0,11.0,0.0
1992,61.0,24.0,20.0,11.0,0.0
1993,54.0,0.0,40.0,3.0,0.0
1994,54.0,6.0,40.0,6.0,0.0
1995,52.0,0.0,40.0,13.0,0.0
1996,54.0,0.0,20.0,11.0,0.0
1997,58.0,30.0,20.0,11.0,0.0
1998,51.0,0.0,60.0,4.0,0.0
1999,59.0,0.0,60.0,5.0,0.0
2000,59.0,30.0,20.0,11.0,0.0
2001,87.0,0.0,60.0,0.0,0.0
2002,83.0,12.0,60.0,0.0,0.0
2003,54.0,0.0,60.0,6.0,0.0
2004,51.0,0.0,60.0,13.0,0.0
2005,63.0,0.0,60.0,5.0,0.0
2006,47.0,0.0,60.0,4.0,0.0
2007,63.0,0.0,60.0,3.0,0.0
2008,75.0,0.0,60.0,11.0,0.0
2009,63.0,0.0,20.0,11.0,0.0
2010,71.0,0.0,60.0,1.0,0.0
2011,75.0,0.0,60.0,1.0,0.0
2012,51.0,0.0,60.0,12.0,0.0
2013,42.0,0.0,60.0,8.0,0.0
2014,75.0,0.0,60.0,3.0,0.0
2015,42.0,0.0,60.0,6.0,0.0
2016,59.0,0.0,20.0,11.0,0.0
2017,54.0,18.0,20.0,11.0,0.0
2018,52.0,0.0,20.0,11.0,0.0
2019,64.0,30.0,20.0,11.0,0.0
2020,59.0,0.0,20.0,5.0,0.0
2021,42.0,0.0,20.0,8.0,0.0
2022,76.0,0.0,20.0,1.0,0.0
2023,73.0,0.0,20.0,1.0,0.0
2024,61.0,0.0,20.0,11.0,0.0
2025,42.0,0.0,20.0,6.0,0.0
2026,85.0,0.0,20.0,0.0,0.0
2027,76.0,30.0,20.0,11.0,0.0
2028,63.0,0.0,20.0,5.0,0.0
2029,88.0,0.0,20.0,0.0,0.0
2030,64.0,0.0,20.0,3.0,0.0
2031,54.0,0.0,20.0,6.0,0.0
2032,49.0,0.0,20.0,4.0,0.0
2033,49.0,0.0,20.0,12.0,0.0
2034,76.0,0.0,20.0,3.0,0.0
2035,49.0,0.0,20.0,13.0,0.0
2036,54.0,0.0,20.0,11.0,0.0
2037,52.0,0.0,20.0,4.0,0.0
2038,51.0,0.0,40.0,4.0,0.0
2039,54.0,0.0,40.0,4.0,0.0
2040,78.0,0.0,40.0,11.0,0.0
2041,47.0,0.0,40.0,13.0,0.0
2042,47.0,0.0,40.0,12.0,0.0
2043,87.0,0.0,40.0,0.0,0.0
2044,59.0,0.0,40.0,6.0,0.0
2045,66.0,0.0,20.0,11.0,0.0
2046,66.0,0.0,40.0,3.0,0.0
2047,63.0,0.0,40.0,5.0,0.0
2048,51.0,24.0,20.0,11.0,0.0
2049,47.0,0.0,40.0,6.0,0.0
2050,47.0,6.0,40.0,8.0,0.0
2051,59.0,0.0,40.0,5.0,0.0
2052,78.0,0.0,40.0,1.0,0.0
2053,75.0,0.0,40.0,1.0,0.0
2054,75.0,0.0,40.0,3.0,0.0
2055,54.0,102.0,20.0,11.0,0.0
2056,63.0,0.0,20.0,11.0,0.0
2057,80.0,0.0,90.0,1.0,0.0
2058,47.0,0.0,90.0,8.0,0.0
2059,68.0,0.0,90.0,3.0,0.0
2060,80.0,0.0,90.0,0.0,0.0
2061,88.0,0.0,90.0,0.0,0.0
2062,52.0,0.0,90.0,13.0,0.0
2063,59.0,0.0,90.0,5.0,0.0
2064,61.0,0.0,90.0,5.0,0.0
2065,64.0,0.0,90.0,11.0,0.0
2066,52.0,0.0,90.0,12.0,0.0
2067,80.0,0.0,90.0,3.0,0.0
2068,80.0,180.0,90.0,11.0,0.0
2069,76.0,0.0,90.0,1.0,0.0
2070,59.0,0.0,90.0,6.0,0.0
2071,47.0,0.0,90.0,6.0,0.0
2072,56.0,0.0,90.0,4.0,0.0
2073,52.0,0.0,90.0,4.0,0.0
2074,68.0,0.0,90.0,11.0,0.0
2075,54.0,0.0,90.0,4.0,0.0
2076,76.0,0.0,90.0,1.0,0.0
2077,73.0,0.0,90.0,1.0,0.0
2078,42.0,0.0,90.0,4.0,0.0
2079,82.0,156.0,90.0,11.0,0.0
2080,61.0,0.0,90.0,5.0,0.0
2081,54.0,0.0,90.0,5.0,0.0
2082,42.0,0.0,90.0,8.0,0.0
2083,85.0,0.0,90.0,0.0,0.0
2084,82.0,0.0,90.0,0.0,0.0
2085,54.0,0.0,90.0,11.0,0.0
2086,54.0,0.0,90.0,6.0,0.0
2087,42.0,0.0,90.0,6.0,0.0
2088,42.0,0.0,90.0,13.0,0.0
2089,73.0,0.0,90.0,11.0,0.0
2090,66.0,0.0,90.0,11.0,0.0
2091,42.0,0.0,90.0,12.0,0.0
2092,61.0,0.0,90.0,11.0,0.0
2093,70.0,0.0,90.0,3.0,0.0
2094,61.0,0.0,90.0,3.0,0.0
2095,70.0,0.0,90.0,11.0,0.0
2096,47.0,0.0,90.0,8.0,0.0
2097,47.0,0.0,90.0,12.0,0.0
2098,83.0,0.0,90.0,0.0,0.0
2099,63.0,0.0,90.0,11.0,0.0
2100,47.0,0.0,90.0,11.0,0.0
2101,83.0,0.0,90.0,11.0,0.0
2102,54.0,0.0,90.0,11.0,0.0
2103,47.0,0.0,90.0,13.0,0.0
2104,47.0,0.0,90.0,6.0,0.0
2105,71.0,0.0,90.0,1.0,0.0
2106,75.0,0.0,90.0,1.0,0.0
2107,75.0,0.0,90.0,11.0,0.0
2108,66.0,0.0,90.0,11.0,0.0
2109,59.0,0.0,90.0,6.0,0.0
2110,71.0,18.0,90.0,11.0,0.0
2111,35.0,0.0,90.0,4.0,0.0
2112,63.0,0.0,90.0,3.0,0.0
2113,71.0,0.0,90.0,3.0,0.0
2114,47.0,24.0,60.0,5.0,0.0
2115,59.0,0.0,60.0,5.0,0.0
2116,47.0,0.0,90.0,4.0,0.0
2117,47.0,54.0,20.0,5.0,0.0
2118,59.0,0.0,20.0,5.0,0.0
2119,59.0,60.0,40.0,5.0,0.0
2120,47.0,0.0,40.0,5.0,0.0
2121,47.0,60.0,40.0,5.0,0.0
2122,59.0,0.0,40.0,5.0,0.0
2123,59.0,60.0,40.0,5.0,0.0
2124,47.0,0.0,40.0,5.0,0.0
2125,47.0,0.0,40.0,5.0,0.0
2126,59.0,66.0,40.0,5.0,0.0
2127,47.0,0.0,300.0,5.0,0.0
2128,71.0,0.0,150.0,3.0,0.0
2129,56.0,0.0,150.0,12.0,0.0
2130,59.0,0.0,150.0,4.0,0.0
2131,83.0,30.0,150.0,11.0,0.0
2132,47.0,18.0,90.0,8.0,0.0
2133,71.0,0.0,150.0,1.0,0.0
2134,56.0,0.0,150.0,4.0,0.0
2135,83.0,0.0,150.0,0.0,0.0
2136,56.0,0.0,150.0,13.0,0.0
2137,59.0,6.0,300.0,5.0,0.0
2138,59.0,0.0,20.0,11.0,0.0
2139,47.0,30.0,20.0,11.0,0.0
2140,61.0,0.0,20.0,11.0,0.0
2141,49.0,12.0,20.0,11.0,0.0
2142,63.0,0.0,20.0,11.0,0.0
2143,51.0,30.0,20.0,11.0,0.0
2144,64.0,0.0,20.0,11.0,0.0
2145,52.0,0.0,20.0,11.0,0.0
2146,66.0,30.0,20.0,11.0,0.0
2147,54.0,0.0,20.0,11.0,0.0
2148,68.0,0.0,150.0,3.0,0.0
2149,80.0,0.0,150.0,3.0,0.0
2150,71.0,0.0,150.0,1.0,0.0
2151,80.0,0.0,150.0,0.0,0.0
2152,56.0,0.0,20.0,11.0,0.0
2153,80.0,0.0,150.0,1.0,0.0
2154,52.0,0.0,150.0,12.0,0.0
2155,52.0,0.0,150.0,13.0,0.0
2156,52.0,30.0,150.0,4.0,0.0
2157,56.0,0.0,150.0,4.0,0.0
2158,68.0,0.0,20.0,11.0,0.0
2159,80.0,0.0,20.0,11.0,0.0
2160,47.0,30.0,20.0,8.0,0.0
2161,79.0,0.0,20.0,11.0,0.0
2162,47.0,0.0,20.0,8.0,0.0
2163,67.0,0.0,20.0,11.0,0.0
2164,55.0,30.0,20.0,11.0,0.0
2165,80.0,24.0,20.0,11.0,0.0
2166,56.0,0.0,20.0,11.0,0.0
2167,68.0,0.0,20.0,11.0,0.0
2168,47.0,0.0,20.0,8.0,0.0
2169,70.0,0.0,20.0,11.0,0.0
2170,58.0,0.0,20.0,11.0,0.0
2171,82.0,0.0,20.0,11.0,0.0
2172,47.0,30.0,20.0,8.0,0.0
2173,83.0,0.0,20.0,11.0,0.0
2174,71.0,0.0,20.0,11.0,0.0
2175,47.0,0.0,20.0,8.0,0.0
2176,59.0,0.0,20.0,11.0,0.0
2177,80.0,78.0,20.0,11.0,0.0
2178,68.0,0.0,20.0,11.0,0.0
2179,56.0,0.0,20.0,11.0,0.0
2180,47.0,0.0,20.0,8.0,0.0
2181,78.0,0.0,90.0,3.0,0.0
2182,66.0,0.0,90.0,11.0,0.0
2183,78.0,0.0,90.0,1.0,0.0
2184,42.0,0.0,60.0,6.0,0.0
2185,54.0,24.0,60.0,6.0,0.0
2186,51.0,0.0,90.0,4.0,0.0
2187,54.0,18.0,90.0,4.0,0.0
2188,66.0,0.0,90.0,3.0,0.0
2189,42.0,0.0,60.0,5.0,0.0
2190,51.0,0.0,90.0,12.0,0.0
2191,54.0,0.0,90.0,11.0,0.0
2192,78.0,0.0,90.0,0.0,0.0
2193,83.0,0.0,90.0,0.0,0.0
2194,51.0,0.0,90.0,13.0,0.0
2195,42.0,0.0,90.0,8.0,0.0
2196,54.0,0.0,60.0,5.0,0.0
2197,71.0,0.0,90.0,1.0,0.0
2198,78.0,0.0,90.0,11.0,0.0
2199,54.0,0.0,20.0,5.0,0.0
2200,42.0,54.0,20.0,5.0,0.0
2201,42.0,0.0,20.0,6.0,0.0
2202,54.0,0.0,20.0,6.0,0.0
2203,42.0,0.0,40.0,5.0,0.0
2204,54.0,0.0,40.0,5.0,0.0
2205,54.0,0.0,40.0,6.0,0.0
2206,42.0,60.0,40.0,6.0,0.0
2207,42.0,0.0,40.0,5.0,0.0
2208,54.0,60.0,40.0,6.0,0.0
2209,42.0,0.0,40.0,6.0,0.0
2210,54.0,0.0,40.0,5.0,0.0
2211,42.0,0.0,40.0,6.0,0.0
2212,54.0,0.0,40.0,5.0,0.0
2213,42.0,0.0,40.0,5.0,0.0
2214,54.0,60.0,40.0,6.0,0.0
2215,42.0,0.0,40.0,5.0,0.0
2216,54.0,36.0,40.0,6.0,0.0
2217,42.0,0.0,40.0,6.0,0.0
2218,54.0,0.0,40.0,5.0,0.0
2219,52.0,0.0,150.0,4.0,0.0
2220,54.0,0.0,150.0,13.0,0.0
2221,54.0,6.0,300.0,5.0,0.0
2222,42.0,0.0,300.0,5.0,0.0
2223,61.0,0.0,150.0,3.0,0.0
2224,64.0,0.0,150.0,3.0,0.0
2225,42.0,18.0,90.0,8.0,0.0
2226,52.0,30.0,20.0,11.0,0.0
2227,85.0,0.0,150.0,0.0,0.0
2228,54.0,0.0,150.0,12.0,0.0
2229,42.0,0.0,300.0,6.0,0.0
2230,76.0,0.0,150.0,11.0,0.0
2231,54.0,0.0,300.0,6.0,0.0
2232,88.0,0.0,150.0,0.0,0.0
2233,76.0,0.0,150.0,1.0,0.0
2234,73.0,0.0,150.0,1.0,0.0
2235,49.0,0.0,150.0,4.0,0.0
2236,54.0,30.0,20.0,11.0,0.0
2237,54.0,0.0,20.0,11.0,0.0
2238,52.0,12.0,20.0,11.0,0.0
2239,54.0,30.0,20.0,11.0,0.0
2240,56.0,0.0,20.0,11.0,0.0
2241,58.0,0.0,20.0,11.0,0.0
2242,52.0,30.0,20.0,11.0,0.0
2243,54.0,0.0,20.0,11.0,0.0
2244,59.0,30.0,20.0,11.0,0.0
2245,73.0,0.0,20.0,11.0,0.0
2246,52.0,30.0,20.0,11.0,0.0
2247,61.0,0.0,20.0,11.0,0.0
2248,42.0,0.0,20.0,8.0,0.0
2249,61.0,0.0,150.0,3.0,0.0
2250,49.0,0.0,150.0,4.0,0.0
2251,58.0,0.0,150.0,3.0,0.0
2252,42.0,0.0,150.0,12.0,0.0
2253,85.0,0.0,150.0,0.0,0.0
2254,42.0,0.0,150.0,4.0,0.0
2255,70.0,0.0,150.0,1.0,0.0
2256,73.0,0.0,150.0,1.0,0.0
2257,42.0,0.0,150.0,13.0,0.0
2258,80.0,0.0,150.0,0.0,0.0
2259,54.0,0.0,20.0,11.0,0.0
2260,60.0,30.0,20.0,11.0,0.0
2261,72.0,0.0,20.0,11.0,0.0
2262,42.0,0.0,20.0,8.0,0.0
2263,52.0,0.0,20.0,11.0,0.0
2264,42.0,0.0,20.0,8.0,0.0
2265,61.0,24.0,20.0,11.0,0.0
2266,73.0,0.0,20.0,11.0,0.0
2267,54.0,0.0,20.0,11.0,0.0
2268,75.0,0.0,20.0,11.0,0.0
2269,63.0,30.0,20.0,11.0,0.0
2270,42.0,0.0,20.0,8.0,0.0
2271,76.0,0.0,20.0,11.0,0.0
2272,42.0,30.0,20.0,8.0,0.0
2273,64.0,0.0,20.0,11.0,0.0
2274,52.0,0.0,20.0,11.0,0.0
2275,73.0,0.0,20.0,11.0,0.0
2276,61.0,0.0,20.0,11.0,0.0
2277,54.0,78.0,20.0,11.0,0.0
2278,42.0,0.0,20.0,8.0,0.0
2279,71.0,0.0,90.0,1.0,0.0
2280,59.0,24.0,60.0,5.0,0.0
2281,59.0,0.0,90.0,3.0,0.0
2282,47.0,0.0,60.0,5.0,0.0
2283,47.0,0.0,90.0,13.0,0.0
2284,59.0,0.0,60.0,6.0,0.0
2285,63.0,0.0,90.0,3.0,0.0
2286,47.0,0.0,60.0,6.0,0.0
2287,59.0,0.0,90.0,11.0,0.0
2288,47.0,0.0,90.0,12.0,0.0
2289,51.0,0.0,90.0,11.0,0.0
2290,47.0,0.0,90.0,11.0,0.0
2291,75.0,0.0,90.0,0.0,0.0
2292,51.0,0.0,90.0,4.0,0.0
2293,47.0,0.0,90.0,4.0,0.0
2294,47.0,18.0,90.0,8.0,0.0
2295,71.0,0.0,90.0,11.0,0.0
2296,83.0,0.0,90.0,0.0,0.0
2297,59.0,0.0,20.0,6.0,0.0
2298,47.0,54.0,20.0,6.0,0.0
2299,59.0,0.0,20.0,5.0,0.0
2300,47.0,0.0,20.0,5.0,0.0
2301,59.0,60.0,40.0,6.0,0.0
2302,59.0,0.0,40.0,5.0,0.0
2303,47.0,0.0,40.0,5.0,0.0
2304,47.0,0.0,40.0,6.0,0.0
2305,59.0,60.0,40.0,5.0,0.0
2306,47.0,0.0,40.0,6.0,0.0
2307,47.0,0.0,40.0,5.0,0.0
2308,59.0,0.0,40.0,6.0,0.0
2309,47.0,60.0,40.0,5.0,0.0
2310,47.0,0.0,40.0,6.0,0.0
2311,59.0,0.0,40.0,5.0,0.0
2312,59.0,0.0,40.0,6.0,0.0
2313,59.0,0.0,40.0,5.0,0.0
2314,47.0,84.0,40.0,5.0,0.0
2315,59.0,0.0,40.0,6.0,0.0
2316,47.0,0.0,40.0,6.0,0.0
2317,59.0,24.0,60.0,6.0,0.0
2318,47.0,0.0,60.0,6.0,0.0
2319,63.0,0.0,90.0,3.0,0.0
2320,71.0,0.0,90.0,3.0,0.0
2321,47.0,0.0,90.0,8.0,0.0
2322,47.0,0.0,90.0,13.0,0.0
2323,71.0,0.0,90.0,1.0,0.0
2324,47.0,0.0,90.0,12.0,0.0
2325,59.0,0.0,90.0,11.0,0.0
2326,75.0,0.0,90.0,11.0,0.0
2327,66.0,0.0,90.0,11.0,0.0
2328,51.0,0.0,90.0,11.0,0.0
2329,87.0,0.0,90.0,0.0,0.0
2330,47.0,0.0,60.0,5.0,0.0
2331,78.0,0.0,90.0,0.0,0.0
2332,59.0,0.0,60.0,5.0,0.0
2333,47.0,18.0,90.0,4.0,0.0
2334,51.0,0.0,90.0,4.0,0.0
2335,75.0,0.0,90.0,1.0,0.0
2336,47.0,54.0,20.0,5.0,0.0
2337,59.0,0.0,20.0,5.0,0.0
2338,47.0,0.0,20.0,6.0,0.0
2339,59.0,0.0,20.0,6.0,0.0
2340,59.0,0.0,40.0,5.0,0.0
2341,47.0,0.0,40.0,6.0,0.0
2342,59.0,60.0,40.0,6.0,0.0
2343,47.0,0.0,40.0,5.0,0.0
2344,47.0,0.0,40.0,6.0,0.0
2345,59.0,60.0,40.0,5.0,0.0
2346,47.0,0.0,40.0,5.0,0.0
2347,59.0,0.0,40.0,6.0,0.0
2348,47.0,0.0,40.0,6.0,0.0
2349,59.0,0.0,40.0,6.0,0.0
2350,59.0,0.0,40.0,5.0,0.0
2351,47.0,60.0,40.0,5.0,0.0
2352,47.0,0.0,40.0,5.0,0.0
2353,59.0,0.0,40.0,5.0,0.0
2354,47.0,0.0,40.0,6.0,0.0
2355,59.0,108.0,40.0,6.0,0.0
2356,71.0,0.0,90.0,1.0,0.0
2357,59.0,0.0,90.0,3.0,0.0
2358,47.0,0.0,90.0,12.0,0.0
2359,83.0,0.0,90.0,0.0,0.0
2360,75.0,0.0,90.0,0.0,0.0
2361,47.0,100.0,90.0,6.0,0.0
2362,47.0,0.0,90.0,8.0,0.0
2363,47.0,0.0,90.0,4.0,0.0
2364,63.0,0.0,90.0,3.0,0.0
2365,59.0,0.0,90.0,6.0,0.0
2366,47.0,0.0,90.0,13.0,0.0
2367,59.0,0.0,90.0,11.0,0.0
2368,51.0,0.0,90.0,11.0,0.0
2369,59.0,0.0,90.0,5.0,0.0
2370,47.0,0.0,90.0,5.0,0.0
2371,47.0,0.0,90.0,11.0,0.0
2372,47.0,20.0,15.0,10.0,0.0
2373,59.0,0.0,15.0,7.0,0.0
2374,58.0,20.0,15.0,7.0,0.0
2375,46.0,0.0,15.0,10.0,0.0
2376,56.0,0.0,15.0,7.0,0.0
2377,44.0,20.0,15.0,10.0,0.0
2378,54.0,20.0,15.0,7.0,0.0
2379,42.0,0.0,15.0,10.0,0.0
2380,56.0,0.0,15.0,7.0,0.0
2381,44.0,20.0,15.0,10.0,0.0
2382,58.0,28.0,15.0,7.0,0.0
2383,46.0,0.0,15.0,10.0,0.0
2384,47.0,0.0,20.0,10.0,0.0
2385,59.0,30.0,20.0,7.0,0.0
2386,49.0,0.0,20.0,10.0,0.0
2387,61.0,22.0,20.0,7.0,0.0
2388,63.0,20.0,15.0,7.0,0.0
2389,51.0,0.0,15.0,10.0,0.0
2390,49.0,20.0,15.0,10.0,0.0
2391,61.0,0.0,15.0,7.0,0.0
2392,47.0,0.0,15.0,10.0,0.0
2393,59.0,20.0,15.0,7.0,0.0
2394,46.0,20.0,15.0,10.0,0.0
2395,58.0,0.0,15.0,7.0,0.0
2396,59.0,0.0,15.0,7.0,0.0
2397,47.0,20.0,15.0,10.0,0.0
2398,49.0,0.0,15.0,10.0,0.0
2399,61.0,28.0,15.0,7.0,0.0
2400,51.0,0.0,20.0,10.0,0.0
2401,63.0,30.0,20.0,7.0,0.0
2402,52.0,0.0,20.0,10.0,0.0
2403,64.0,22.0,20.0,7.0,0.0
2404,66.0,20.0,15.0,7.0,0.0
2405,54.0,0.0,15.0,10.0,0.0
2406,52.0,0.0,15.0,10.0,0.0
2407,64.0,20.0,15.0,7.0,0.0
2408,63.0,0.0,15.0,7.0,0.0
2409,51.0,28.0,15.0,10.0,0.0
2410,64.0,30.0,20.0,7.0,0.0
2411,52.0,0.0,20.0,10.0,0.0
2412,66.0,0.0,20.0,7.0,0.0
2413,54.0,30.0,20.0,10.0,0.0
2414,68.0,0.0,20.0,7.0,0.0
2415,56.0,30.0,20.0,10.0,0.0
2416,70.0,0.0,20.0,7.0,0.0
2417,58.0,102.0,20.0,10.0,0.0
2418,71.0,0.0,90.0,7.0,0.0
2419,59.0,100.0,90.0,10.0,0.0
2420,59.0,0.0,15.0,10.0,0.0
2421,71.0,20.0,15.0,7.0,0.0
2422,58.0,20.0,15.0,10.0,0.0
2423,70.0,0.0,15.0,7.0,0.0
2424,56.0,20.0,15.0,10.0,0.0
2425,68.0,0.0,15.0,7.0,0.0
2426,54.0,20.0,15.0,10.0,0.0
2427,66.0,0.0,15.0,7.0,0.0
2428,68.0,20.0,15.0,7.0,0.0
2429,56.0,0.0,15.0,10.0,0.0
2430,70.0,0.0,15.0,7.0,0.0
2431,58.0,28.0,15.0,10.0,0.0
2432,71.0,30.0,20.0,7.0,0.0
2433,59.0,0.0,20.0,10.0,0.0
2434,61.0,22.0,20.0,10.0,0.0
2435,73.0,0.0,20.0,7.0,0.0
2436,63.0,20.0,15.0,10.0,0.0
2437,75.0,0.0,15.0,7.0,0.0
2438,61.0,20.0,15.0,10.0,0.0
2439,73.0,0.0,15.0,7.0,0.0
2440,71.0,20.0,15.0,7.0,0.0
2441,59.0,0.0,15.0,10.0,0.0
2442,70.0,0.0,15.0,7.0,0.0
2443,58.0,20.0,15.0,10.0,0.0
2444,71.0,0.0,15.0,7.0,0.0
2445,59.0,20.0,15.0,10.0,0.0
2446,73.0,0.0,15.0,7.0,0.0
2447,61.0,28.0,15.0,10.0,0.0
2448,75.0,30.0,20.0,7.0,0.0
2449,63.0,0.0,20.0,10.0,0.0
2450,64.0,0.0,20.0,10.0,0.0
2451,76.0,22.0,20.0,7.0,0.0
2452,66.0,0.0,15.0,10.0,0.0
2453,78.0,20.0,15.0,7.0,0.0
2454,76.0,20.0,15.0,7.0,0.0
2455,64.0,0.0,15.0,10.0,0.0
2456,63.0,28.0,15.0,10.0,0.0
2457,75.0,0.0,15.0,7.0,0.0
2458,76.0,0.0,20.0,7.0,0.0
2459,64.0,30.0,20.0,10.0,0.0
2460,78.0,0.0,20.0,7.0,0.0
2461,66.0,30.0,20.0,10.0,0.0
2462,80.0,30.0,20.0,7.0,0.0
2463,68.0,0.0,20.0,10.0,0.0
2464,70.0,0.0,20.0,10.0,0.0
2465,82.0,22.0,20.0,7.0,0.0
2466,71.0,20.0,15.0,10.0,0.0
2467,83.0,0.0,15.0,7.0,0.0
2468,70.0,0.0,15.0,10.0,0.0
2469,82.0,20.0,15.0,7.0,0.0
2470,68.0,0.0,15.0,10.0,0.0
2471,80.0,20.0,15.0,7.0,0.0
2472,78.0,20.0,15.0,7.0,0.0
2473,66.0,0.0,15.0,10.0,0.0
2474,68.0,0.0,15.0,10.0,0.0
2475,80.0,20.0,15.0,7.0,0.0
2476,70.0,0.0,15.0,10.0,0.0
2477,82.0,28.0,15.0,7.0,0.0
2478,71.0,30.0,20.0,10.0,0.0
2479,83.0,0.0,20.0,7.0,0.0
2480,73.0,0.0,20.0,10.0,0.0
2481,85.0,22.0,20.0,7.0,0.0
2482,87.0,0.0,15.0,7.0,0.0
2483,75.0,20.0,15.0,10.0,0.0
2484,85.0,0.0,15.0,7.0,0.0
2485,73.0,20.0,15.0,10.0,0.0
2486,71.0,0.0,15.0,10.0,0.0
2487,83.0,20.0,15.0,7.0,0.0
2488,82.0,0.0,15.0,7.0,0.0
2489,70.0,20.0,15.0,10.0,0.0
2490,83.0,20.0,15.0,7.0,0.0
2491,71.0,0.0,15.0,10.0,0.0
2492,73.0,28.0,15.0,10.0,0.0
2493,85.0,0.0,15.0,7.0,0.0
2494,87.0,30.0,20.0,7.0,0.0
2495,75.0,0.0,20.0,10.0,0.0
2496,76.0,30.0,20.0,10.0,0.0
2497,88.0,0.0,20.0,7.0,0.0
2498,78.0,21.0,20.0,10.0,0.0
2499,90.0,9.0,40.0,7.0,0.0
2500,76.0,21.0,20.0,10.0,0.0
2501,88.0,9.0,40.0,7.0,0.0
2502,75.0,21.0,20.0,10.0,0.0
2503,87.0,9.0,40.0,7.0,0.0
2504,92.0,9.0,40.0,7.0,0.0
2505,80.0,21.0,20.0,10.0,0.0
2506,78.0,21.0,20.0,10.0,0.0
2507,90.0,9.0,40.0,7.0,0.0
2508,76.0,21.0,20.0,10.0,0.0
2509,88.0,9.0,40.0,7.0,0.0
2510,75.0,21.0,20.0,10.0,0.0
2511,87.0,9.0,40.0,7.0,0.0
2512,85.0,9.0,40.0,7.0,0.0
2513,73.0,21.0,20.0,10.0,0.0
2514,83.0,9.0,40.0,7.0,0.0
2515,71.0,21.0,20.0,10.0,0.0
2516,70.0,21.0,20.0,10.0,0.0
2517,82.0,9.0,40.0,7.0,0.0
2518,68.0,21.0,20.0,10.0,0.0
2519,80.0,9.0,40.0,7.0,0.0
2520,79.0,9.0,40.0,7.0,0.0
2521,67.0,21.0,20.0,10.0,0.0
2522,66.0,21.0,20.0,10.0,0.0
2523,78.0,9.0,40.0,7.0,0.0
2524,64.0,21.0,20.0,10.0,0.0
2525,76.0,9.0,40.0,7.0,0.0
2526,75.0,9.0,40.0,7.0,0.0
2527,63.0,21.0,20.0,10.0,0.0
2528,80.0,9.0,40.0,7.0,0.0
2529,68.0,21.0,20.0,10.0,0.0
2530,66.0,21.0,20.0,10.0,0.0
2531,78.0,9.0,40.0,7.0,0.0
2532,76.0,9.0,40.0,7.0,0.0
2533,64.0,21.0,20.0,10.0,0.0
2534,63.0,21.0,20.0,10.0,0.0
2535,75.0,9.0,40.0,7.0,0.0
2536,73.0,9.0,40.0,7.0,0.0
2537,61.0,21.0,20.0,10.0,0.0
2538,71.0,9.0,40.0,7.0,0.0
2539,59.0,21.0,20.0,10.0,0.0
2540,58.0,21.0,20.0,10.0,0.0
2541,70.0,9.0,40.0,7.0,0.0
2542,68.0,9.0,40.0,7.0,0.0
2543,56.0,21.0,20.0,10.0,0.0
2544,55.0,6.0,20.0,10.0,0.0
2545,67.0,48.0,30.0,7.0,0.0
2546,63.0,3.0,300.0,7.0,0.0
2547,66.0,18.0,90.0,7.0,0.0
2548,23.0,0.0,1350.0,5.0,0.0
2549,47.0,0.0,300.0,10.0,0.0
2550,51.0,42.0,40.0,10.0,0.0
2551,54.0,6.0,40.0,10.0,0.0
2552,68.0,15.0,20.0,7.0,0.0
2553,66.0,15.0,20.0,7.0,0.0
2554,65.0,15.0,20.0,7.0,0.0
2555,59.0,60.0,40.0,10.0,0.0
2556,66.0,9.0,20.0,7.0,0.0
2557,75.0,1.0,120.0,7.0,0.0
2558,51.0,56.0,40.0,10.0,0.0
2559,54.0,60.0,40.0,10.0,0.0
2560,71.0,60.0,40.0,7.0,0.0
2561,59.0,0.0,40.0,10.0,0.0
2562,47.0,0.0,300.0,10.0,0.0
2563,52.0,60.0,40.0,10.0,0.0
2564,64.0,12.0,270.0,7.0,0.0
2565,70.0,34.0,180.0,7.0,0.0
2566,56.0,60.0,40.0,10.0,0.0
2567,59.0,26.0,40.0,10.0,0.0
2568,68.0,49.0,120.0,7.0,0.0
2569,52.0,48.0,40.0,10.0,0.0
2570,55.0,11.0,40.0,10.0,0.0
2571,64.0,60.0,40.0,7.0,0.0
2572,59.0,0.0,40.0,10.0,0.0
2573,67.0,0.0,40.0,7.0,0.0
2574,64.0,24.0,150.0,7.0,0.0
2575,61.0,0.0,150.0,7.0,0.0
2576,67.0,25.0,120.0,7.0,0.0
2577,49.0,0.0,300.0,10.0,0.0
2578,52.0,60.0,40.0,10.0,0.0
2579,47.0,0.0,300.0,10.0,0.0
2580,54.0,11.0,40.0,10.0,0.0
2581,58.0,60.0,40.0,10.0,0.0
2582,66.0,0.0,40.0,7.0,0.0
2583,64.0,0.0,90.0,7.0,0.0
2584,66.0,12.0,90.0,7.0,0.0
2585,52.0,48.0,40.0,10.0,0.0
2586,61.0,0.0,90.0,7.0,0.0
2587,54.0,60.0,40.0,10.0,0.0
2588,58.0,11.0,40.0,10.0,0.0
2589,61.0,0.0,40.0,7.0,0.0
2590,66.0,0.0,40.0,7.0,0.0
2591,68.0,13.0,15.0,7.0,0.0
2592,51.0,9.0,40.0,10.0,0.0
2593,47.0,26.0,300.0,10.0,0.0
2594,66.0,15.0,15.0,7.0,0.0
2595,63.0,12.0,270.0,7.0,0.0
2596,68.0,15.0,15.0,7.0,0.0
2597,66.0,6.0,15.0,7.0,0.0
2598,68.0,15.0,15.0,7.0,0.0
2599,66.0,15.0,15.0,7.0,0.0
2600,54.0,9.0,40.0,10.0,0.0
2601,68.0,15.0,15.0,7.0,0.0
2602,66.0,6.0,15.0,7.0,0.0
2603,68.0,15.0,15.0,7.0,0.0
2604,66.0,15.0,15.0,7.0,0.0
2605,59.0,21.0,40.0,10.0,0.0
2606,68.0,15.0,15.0,7.0,0.0
2607,66.0,6.0,15.0,7.0,0.0
2608,65.0,15.0,20.0,7.0,0.0
2609,51.0,48.0,40.0,10.0,0.0
2610,66.0,24.0,20.0,7.0,0.0
2611,71.0,34.0,120.0,7.0,0.0
2612,54.0,0.0,40.0,10.0,0.0
2613,59.0,24.0,40.0,10.0,0.0
2614,66.0,21.0,15.0,7.0,0.0
2615,49.0,60.0,40.0,10.0,0.0
2616,46.0,0.0,150.0,10.0,0.0
2617,61.0,24.0,150.0,7.0,0.0
2618,73.0,0.0,90.0,7.0,0.0
2619,66.0,15.0,20.0,7.0,0.0
2620,54.0,3.0,40.0,10.0,0.0
2621,58.0,15.0,40.0,10.0,0.0
2622,66.0,24.0,40.0,7.0,0.0
2623,51.0,60.0,40.0,10.0,0.0
2624,48.0,0.0,150.0,10.0,0.0
2625,63.0,24.0,150.0,7.0,0.0
2626,66.0,21.0,15.0,7.0,0.0
2627,75.0,18.0,90.0,7.0,0.0
2628,66.0,0.0,90.0,7.0,0.0
2629,54.0,18.0,40.0,10.0,0.0
2630,60.0,24.0,40.0,10.0,0.0
2631,52.0,60.0,40.0,10.0,0.0
2632,49.0,3.0,300.0,10.0,0.0
2633,66.0,6.0,15.0,7.0,0.0
2634,66.0,30.0,15.0,7.0,0.0
2635,64.0,0.0,270.0,7.0,0.0
2636,76.0,0.0,270.0,7.0,0.0
2637,54.0,60.0,40.0,10.0,0.0
2638,64.0,0.0,40.0,11.0,0.0
2639,61.0,0.0,40.0,11.0,0.0
2640,49.0,0.0,40.0,13.0,0.0
2641,61.0,60.0,40.0,10.0,0.0
2642,49.0,0.0,40.0,12.0,0.0
2643,49.0,0.0,90.0,12.0,0.0
2644,52.0,48.0,40.0,10.0,0.0
2645,49.0,0.0,90.0,13.0,0.0
2646,54.0,0.0,90.0,11.0,0.0
2647,64.0,12.0,90.0,11.0,0.0
2648,54.0,0.0,40.0,10.0,0.0
2649,61.0,15.0,40.0,10.0,0.0
2650,52.0,60.0,40.0,10.0,0.0
2651,64.0,0.0,150.0,7.0,0.0
2652,49.0,24.0,150.0,10.0,0.0
2653,66.0,9.0,15.0,7.0,0.0
2654,76.0,33.0,90.0,7.0,0.0
2655,66.0,0.0,90.0,7.0,0.0
2656,54.0,3.0,40.0,10.0,0.0
2657,54.0,0.0,40.0,11.0,0.0
2658,61.0,15.0,40.0,10.0,0.0
2659,51.0,0.0,150.0,10.0,0.0
2660,66.0,24.0,15.0,7.0,0.0
2661,54.0,12.0,90.0,11.0,0.0
2662,54.0,48.0,40.0,10.0,0.0
2663,71.0,21.0,15.0,7.0,0.0
2664,78.0,18.0,90.0,7.0,0.0
2665,71.0,0.0,90.0,7.0,0.0
2666,59.0,18.0,40.0,10.0,0.0
2667,63.0,24.0,40.0,10.0,0.0
2668,71.0,6.0,15.0,7.0,0.0
2669,56.0,60.0,40.0,10.0,0.0
2670,71.0,30.0,15.0,7.0,0.0
2671,80.0,0.0,270.0,7.0,0.0
2672,68.0,0.0,270.0,7.0,0.0
2673,59.0,60.0,40.0,10.0,0.0
2674,52.0,0.0,40.0,13.0,0.0
2675,64.0,0.0,40.0,10.0,0.0
2676,68.0,0.0,40.0,11.0,0.0
2677,52.0,0.0,40.0,12.0,0.0
2678,47.0,60.0,40.0,11.0,0.0
2679,52.0,0.0,90.0,13.0,0.0
2680,52.0,0.0,90.0,12.0,0.0
2681,56.0,48.0,40.0,10.0,0.0
2682,68.0,0.0,90.0,11.0,0.0
2683,52.0,12.0,90.0,11.0,0.0
2684,59.0,0.0,40.0,10.0,0.0
2685,64.0,15.0,40.0,10.0,0.0
2686,61.0,5.0,510.0,4.0,0.0
2687,73.0,36.0,15.0,7.0,0.0
2688,68.0,9.0,15.0,7.0,0.0
2689,56.0,0.0,150.0,10.0,0.0
2690,53.0,24.0,150.0,10.0,0.0
2691,59.0,60.0,40.0,10.0,0.0
2692,80.0,33.0,90.0,7.0,0.0
2693,73.0,0.0,90.0,7.0,0.0
2694,61.0,3.0,40.0,10.0,0.0
2695,65.0,0.0,40.0,10.0,0.0
2696,56.0,15.0,40.0,11.0,0.0
2697,73.0,45.0,40.0,7.0,0.0
2698,54.0,0.0,150.0,10.0,0.0
2699,56.0,12.0,90.0,11.0,0.0
2700,70.0,24.0,150.0,7.0,0.0
2701,58.0,48.0,40.0,10.0,0.0
2702,73.0,0.0,90.0,7.0,0.0
2703,82.0,33.0,90.0,7.0,0.0
2704,61.0,3.0,40.0,10.0,0.0
2705,66.0,15.0,40.0,10.0,0.0
2706,73.0,141.0,40.0,7.0,0.0
2707,71.0,34.0,180.0,7.0,0.0
2708,56.0,0.0,180.0,10.0,0.0
2709,59.0,0.0,150.0,10.0,0.0
2710,73.0,0.0,150.0,7.0,0.0
2711,77.0,15.0,120.0,7.0,0.0
2712,80.0,15.0,90.0,7.0,0.0
2713,61.0,0.0,120.0,10.0,0.0
2714,83.0,15.0,60.0,7.0,0.0
2715,65.0,0.0,90.0,10.0,0.0
2716,68.0,0.0,60.0,10.0,0.0
2717,59.0,60.0,40.0,4.0,0.0
2718,58.0,60.0,40.0,4.0,0.0
2719,56.0,60.0,40.0,4.0,0.0
2720,54.0,60.0,40.0,4.0,0.0
2721,53.0,60.0,40.0,4.0,0.0
2722,51.0,108.0,40.0,4.0,0.0
2723,49.0,72.0,90.0,4.0,0.0
2724,49.0,146.0,40.0,4.0,0.0
2725,73.0,0.0,180.0,7.0,0.0
2726,46.0,0.0,180.0,10.0,0.0
2727,76.0,15.0,150.0,7.0,0.0
2728,49.0,0.0,150.0,10.0,0.0
2729,78.0,15.0,120.0,7.0,0.0
2730,82.0,15.0,90.0,7.0,0.0
2731,52.0,0.0,120.0,10.0,0.0
2732,85.0,15.0,60.0,7.0,0.0
2733,55.0,34.0,90.0,10.0,0.0
2734,58.0,0.0,60.0,10.0,0.0
2735,61.0,60.0,40.0,4.0,0.0
2736,73.0,0.0,40.0,3.0,0.0
2737,71.0,0.0,40.0,3.0,0.0
2738,59.0,60.0,40.0,4.0,0.0
2739,58.0,60.0,40.0,4.0,0.0
2740,70.0,0.0,40.0,3.0,0.0
2741,56.0,49.0,60.0,4.0,0.0
2742,68.0,11.0,40.0,3.0,0.0
2743,67.0,60.0,40.0,3.0,0.0
2744,55.0,0.0,40.0,4.0,0.0
2745,64.0,0.0,40.0,3.0,0.0
2746,52.0,108.0,40.0,4.0,0.0
2747,63.0,0.0,90.0,3.0,0.0
2748,51.0,72.0,90.0,4.0,0.0
2749,63.0,108.0,40.0,3.0,0.0
2750,51.0,0.0,40.0,4.0,0.0
2751,63.0,48.0,90.0,5.0,0.0
2752,75.0,0.0,90.0,11.0,0.0
2753,47.0,60.0,150.0,11.0,0.0
2754,59.0,0.0,90.0,11.0,0.0
2755,51.0,0.0,90.0,5.0,0.0
2756,68.0,0.0,90.0,11.0,0.0
2757,47.0,0.0,240.0,13.0,0.0
2758,63.0,0.0,90.0,11.0,0.0
2759,59.0,0.0,90.0,6.0,0.0
2760,75.0,0.0,90.0,1.0,0.0
2761,68.0,0.0,90.0,1.0,0.0
2762,56.0,0.0,90.0,11.0,0.0
2763,63.0,0.0,90.0,3.0,0.0
2764,59.0,0.0,90.0,3.0,0.0
2765,47.0,0.0,90.0,8.0,0.0
2766,47.0,0.0,90.0,6.0,0.0
2767,47.0,0.0,90.0,4.0,0.0
2768,51.0,0.0,90.0,4.0,0.0
2769,80.0,0.0,90.0,0.0,0.0
2770,35.0,0.0,240.0,12.0,0.0
2771,63.0,0.0,40.0,3.0,0.0
2772,75.0,0.0,40.0,3.0,0.0
2773,87.0,6.0,40.0,0.0,0.0
2774,75.0,0.0,20.0,11.0,0.0
2775,63.0,0.0,40.0,4.0,0.0
2776,47.0,0.0,40.0,11.0,0.0
2777,63.0,24.0,20.0,11.0,0.0
2778,75.0,0.0,40.0,1.0,0.0
2779,63.0,0.0,20.0,11.0,0.0
2780,75.0,30.0,20.0,11.0,0.0
2781,52.0,0.0,40.0,12.0,0.0
2782,73.0,0.0,20.0,11.0,0.0
2783,73.0,0.0,40.0,1.0,0.0
2784,52.0,0.0,20.0,11.0,0.0
2785,52.0,0.0,40.0,13.0,0.0
2786,52.0,0.0,40.0,4.0,0.0
2787,61.0,0.0,40.0,4.0,0.0
2788,61.0,0.0,40.0,3.0,0.0
2789,73.0,6.0,40.0,3.0,0.0
2790,85.0,0.0,40.0,0.0,0.0
2791,61.0,24.0,20.0,11.0,0.0
2792,52.0,30.0,20.0,11.0,0.0
2793,73.0,0.0,20.0,11.0,0.0
2794,61.0,0.0,20.0,11.0,0.0
2795,59.0,0.0,40.0,4.0,0.0
2796,59.0,0.0,20.0,11.0,0.0
2797,51.0,0.0,40.0,12.0,0.0
2798,71.0,0.0,40.0,1.0,0.0
2799,51.0,0.0,20.0,11.0,0.0
2800,59.0,0.0,40.0,3.0,0.0
2801,71.0,6.0,40.0,3.0,0.0
2802,71.0,24.0,20.0,11.0,0.0
2803,83.0,0.0,40.0,0.0,0.0
2804,51.0,0.0,40.0,13.0,0.0
2805,51.0,0.0,40.0,4.0,0.0
2806,51.0,0.0,20.0,11.0,0.0
2807,71.0,0.0,20.0,11.0,0.0
2808,59.0,30.0,20.0,11.0,0.0
2809,70.0,0.0,60.0,3.0,0.0
2810,70.0,0.0,60.0,1.0,0.0
2811,49.0,6.0,40.0,4.0,0.0
2812,58.0,0.0,60.0,4.0,0.0
2813,58.0,25.0,60.0,3.0,0.0
2814,49.0,0.0,40.0,12.0,0.0
2815,82.0,0.0,60.0,0.0,0.0
2816,58.0,0.0,20.0,11.0,0.0
2817,51.0,0.0,20.0,11.0,0.0
2818,70.0,24.0,20.0,11.0,0.0
2819,49.0,0.0,40.0,13.0,0.0
2820,58.0,0.0,20.0,11.0,0.0
2821,51.0,0.0,20.0,11.0,0.0
2822,70.0,5.0,20.0,11.0,0.0
2823,68.0,0.0,20.0,11.0,0.0
2824,56.0,0.0,40.0,3.0,0.0
2825,63.0,0.0,40.0,5.0,0.0
2826,51.0,0.0,40.0,5.0,0.0
2827,68.0,0.0,40.0,3.0,0.0
2828,80.0,0.0,40.0,0.0,0.0
2829,56.0,0.0,40.0,4.0,0.0
2830,47.0,6.0,40.0,4.0,0.0
2831,68.0,0.0,40.0,1.0,0.0
2832,47.0,0.0,40.0,13.0,0.0
2833,56.0,24.0,20.0,11.0,0.0
2834,51.0,0.0,20.0,11.0,0.0
2835,47.0,0.0,40.0,12.0,0.0
2836,51.0,30.0,20.0,11.0,0.0
2837,56.0,0.0,20.0,11.0,0.0
2838,68.0,0.0,20.0,11.0,0.0
2839,46.0,0.0,40.0,12.0,0.0
2840,55.0,0.0,40.0,4.0,0.0
2841,61.0,0.0,40.0,5.0,0.0
2842,51.0,0.0,20.0,11.0,0.0
2843,51.0,0.0,40.0,5.0,0.0
2844,55.0,0.0,20.0,11.0,0.0
2845,46.0,6.0,40.0,13.0,0.0
2846,79.0,0.0,30.0,0.0,0.0
2847,67.0,5.0,20.0,11.0,0.0
2848,67.0,0.0,40.0,3.0,0.0
2849,55.0,0.0,40.0,3.0,0.0
2850,46.0,0.0,40.0,4.0,0.0
2851,67.0,19.0,30.0,1.0,0.0
2852,67.0,0.0,20.0,11.0,0.0
2853,55.0,30.0,20.0,11.0,0.0
2854,51.0,0.0,20.0,11.0,0.0
2855,44.0,0.0,40.0,12.0,0.0
2856,56.0,0.0,20.0,11.0,0.0
2857,59.0,12.0,90.0,5.0,0.0
2858,47.0,0.0,40.0,8.0,0.0
2859,68.0,0.0,20.0,11.0,0.0
2860,80.0,25.0,120.0,0.0,0.0
2861,47.0,0.0,40.0,6.0,0.0
2862,59.0,0.0,40.0,6.0,0.0
2863,68.0,0.0,120.0,3.0,0.0
2864,56.0,0.0,120.0,4.0,0.0
2865,44.0,0.0,40.0,4.0,0.0
2866,56.0,0.0,120.0,3.0,0.0
2867,68.0,0.0,120.0,1.0,0.0
2868,44.0,6.0,40.0,13.0,0.0
2869,68.0,0.0,20.0,11.0,0.0
2870,56.0,0.0,20.0,11.0,0.0
2871,59.0,0.0,40.0,6.0,0.0
2872,47.0,0.0,40.0,6.0,0.0
2873,42.0,0.0,40.0,12.0,0.0
2874,54.0,0.0,20.0,11.0,0.0
2875,68.0,12.0,20.0,11.0,0.0
2876,56.0,0.0,20.0,11.0,0.0
2877,42.0,0.0,40.0,13.0,0.0
2878,42.0,6.0,40.0,4.0,0.0
2879,47.0,0.0,40.0,8.0,0.0
2880,56.0,5.0,20.0,11.0,0.0
2881,54.0,0.0,20.0,11.0,0.0
2882,68.0,0.0,20.0,11.0,0.0
2883,70.0,24.0,20.0,11.0,0.0
2884,41.0,6.0,40.0,13.0,0.0
2885,41.0,0.0,40.0,12.0,0.0
2886,70.0,0.0,60.0,3.0,0.0
2887,58.0,0.0,60.0,3.0,0.0
2888,82.0,0.0,60.0,0.0,0.0
2889,58.0,0.0,60.0,4.0,0.0
2890,70.0,25.0,60.0,1.0,0.0
2891,41.0,0.0,40.0,4.0,0.0
2892,53.0,0.0,20.0,11.0,0.0
2893,58.0,0.0,20.0,11.0,0.0
2894,58.0,0.0,20.0,11.0,0.0
2895,70.0,0.0,20.0,11.0,0.0
2896,53.0,5.0,20.0,11.0,0.0
2897,71.0,0.0,20.0,11.0,0.0
2898,39.0,0.0,40.0,13.0,0.0
2899,51.0,0.0,20.0,11.0,0.0
2900,59.0,0.0,20.0,11.0,0.0
2901,56.0,5.0,20.0,11.0,0.0
2902,59.0,0.0,40.0,4.0,0.0
2903,39.0,0.0,40.0,4.0,0.0
2904,59.0,6.0,40.0,3.0,0.0
2905,71.0,0.0,40.0,3.0,0.0
2906,39.0,0.0,40.0,12.0,0.0
2907,83.0,0.0,40.0,0.0,0.0
2908,71.0,19.0,30.0,1.0,0.0
2909,56.0,0.0,20.0,11.0,0.0
2910,59.0,0.0,20.0,11.0,0.0
2911,51.0,0.0,20.0,11.0,0.0
2912,71.0,30.0,20.0,11.0,0.0
2913,49.0,0.0,20.0,11.0,0.0
2914,83.0,0.0,60.0,0.0,0.0
2915,75.0,25.0,60.0,0.0,0.0
2916,37.0,0.0,40.0,12.0,0.0
2917,37.0,6.0,40.0,13.0,0.0
2918,71.0,0.0,60.0,3.0,0.0
2919,71.0,0.0,60.0,1.0,0.0
2920,51.0,0.0,60.0,4.0,0.0
2921,37.0,0.0,40.0,4.0,0.0
2922,75.0,0.0,60.0,1.0,0.0
2923,63.0,0.0,60.0,3.0,0.0
2924,59.0,0.0,20.0,11.0,0.0
2925,56.0,0.0,20.0,11.0,0.0
2926,56.0,5.0,20.0,11.0,0.0
2927,49.0,0.0,20.0,11.0,0.0
2928,59.0,0.0,20.0,11.0,0.0
2929,49.0,0.0,40.0,13.0,0.0
2930,65.0,0.0,20.0,11.0,0.0
2931,80.0,25.0,60.0,0.0,0.0
2932,49.0,6.0,40.0,4.0,0.0
2933,52.0,0.0,60.0,4.0,0.0
2934,77.0,0.0,60.0,0.0,0.0
2935,49.0,0.0,40.0,12.0,0.0
2936,56.0,0.0,20.0,11.0,0.0
2937,68.0,0.0,60.0,3.0,0.0
2938,61.0,24.0,20.0,11.0,0.0
2939,61.0,0.0,40.0,5.0,0.0
2940,59.0,0.0,20.0,11.0,0.0
2941,77.0,0.0,60.0,1.0,0.0
2942,65.0,0.0,60.0,3.0,0.0
2943,68.0,0.0,60.0,1.0,0.0
2944,56.0,0.0,20.0,11.0,0.0
2945,65.0,5.0,20.0,11.0,0.0
2946,59.0,0.0,20.0,11.0,0.0
2947,61.0,0.0,20.0,11.0,0.0
2948,66.0,24.0,20.0,11.0,0.0
2949,58.0,0.0,20.0,11.0,0.0
2950,54.0,0.0,20.0,11.0,0.0
2951,49.0,6.0,40.0,12.0,0.0
2952,66.0,0.0,120.0,3.0,0.0
2953,61.0,12.0,90.0,5.0,0.0
2954,49.0,0.0,40.0,13.0,0.0
2955,70.0,0.0,120.0,1.0,0.0
2956,78.0,0.0,120.0,1.0,0.0
2957,70.0,0.0,120.0,3.0,0.0
2958,54.0,25.0,120.0,4.0,0.0
2959,49.0,0.0,40.0,4.0,0.0
2960,61.0,0.0,20.0,11.0,0.0
2961,78.0,0.0,120.0,0.0,0.0
2962,82.0,0.0,120.0,0.0,0.0
2963,66.0,0.0,20.0,11.0,0.0
2964,58.0,0.0,20.0,11.0,0.0
2965,61.0,30.0,20.0,11.0,0.0
2966,54.0,0.0,20.0,11.0,0.0
2967,49.0,0.0,40.0,4.0,0.0
2968,58.0,0.0,20.0,11.0,0.0
2969,54.0,0.0,20.0,11.0,0.0
2970,49.0,6.0,40.0,13.0,0.0
2971,66.0,12.0,20.0,11.0,0.0
2972,49.0,0.0,40.0,12.0,0.0
2973,66.0,0.0,20.0,11.0,0.0
2974,54.0,5.0,20.0,11.0,0.0
2975,58.0,0.0,20.0,11.0,0.0
2976,61.0,0.0,40.0,5.0,0.0
2977,53.0,24.0,20.0,11.0,0.0
2978,68.0,0.0,20.0,11.0,0.0
2979,65.0,6.0,40.0,3.0,0.0
2980,68.0,0.0,40.0,3.0,0.0
2981,77.0,0.0,40.0,1.0,0.0
2982,80.0,0.0,40.0,1.0,0.0
2983,49.0,0.0,40.0,12.0,0.0
2984,80.0,0.0,40.0,0.0,0.0
2985,77.0,0.0,40.0,0.0,0.0
2986,56.0,0.0,20.0,11.0,0.0
2987,49.0,0.0,40.0,4.0,0.0
2988,56.0,0.0,40.0,4.0,0.0
2989,49.0,0.0,40.0,13.0,0.0
2990,68.0,0.0,20.0,11.0,0.0
2991,56.0,102.0,20.0,11.0,0.0
2992,53.0,0.0,20.0,11.0,0.0
2993,56.0,0.0,90.0,4.0,0.0
2994,77.0,0.0,120.0,1.0,0.0
2995,80.0,116.0,120.0,1.0,0.0
2996,49.0,0.0,90.0,13.0,0.0
2997,49.0,16.0,90.0,4.0,0.0
2998,49.0,0.0,90.0,11.0,0.0
2999,77.0,0.0,90.0,0.0,0.0
3000,68.0,0.0,90.0,3.0,0.0
3001,61.0,0.0,90.0,5.0,0.0
3002,80.0,0.0,90.0,0.0,0.0
3003,65.0,0.0,90.0,3.0,0.0
3004,61.0,0.0,90.0,11.0,0.0
3005,68.0,0.0,90.0,11.0,0.0
3006,53.0,0.0,90.0,11.0,0.0
3007,49.0,0.0,90.0,12.0,0.0
3008,83.0,0.0,40.0,7.0,0.0
3009,59.0,60.0,40.0,10.0,0.0
3010,71.0,0.0,40.0,7.0,0.0
3011,70.0,0.0,40.0,7.0,0.0
3012,82.0,60.0,40.0,7.0,0.0
3013,58.0,0.0,40.0,10.0,0.0
3014,80.0,0.0,40.0,7.0,0.0
3015,68.0,0.0,40.0,7.0,0.0
3016,56.0,60.0,40.0,10.0,0.0
3017,66.0,0.0,40.0,7.0,0.0
3018,78.0,0.0,40.0,7.0,0.0
3019,54.0,60.0,40.0,10.0,0.0
3020,65.0,0.0,40.0,7.0,0.0
3021,53.0,0.0,40.0,10.0,0.0
3022,77.0,60.0,40.0,7.0,0.0
3023,63.0,0.0,40.0,7.0,0.0
3024,51.0,0.0,40.0,10.0,0.0
3025,75.0,108.0,40.0,7.0,0.0
3026,73.0,0.0,90.0,7.0,0.0
3027,49.0,0.0,90.0,10.0,0.0
3028,61.0,72.0,90.0,7.0,0.0
3029,49.0,0.0,40.0,10.0,0.0
3030,61.0,0.0,40.0,7.0,0.0
3031,73.0,108.0,40.0,7.0,0.0
3032,46.0,0.0,90.0,13.0,0.0
3033,79.0,0.0,90.0,0.0,0.0
3034,46.0,0.0,90.0,12.0,0.0
3035,55.0,0.0,90.0,11.0,0.0
3036,82.0,0.0,90.0,0.0,0.0
3037,58.0,0.0,90.0,4.0,0.0
3038,73.0,0.0,90.0,1.0,0.0
3039,55.0,0.0,90.0,4.0,0.0
3040,67.0,0.0,90.0,3.0,0.0
3041,64.0,0.0,90.0,3.0,0.0
3042,70.0,0.0,90.0,11.0,0.0
3043,61.0,132.0,90.0,11.0,0.0
3044,61.0,0.0,90.0,5.0,0.0
3045,49.0,0.0,90.0,11.0,0.0
3046,52.0,0.0,90.0,11.0,0.0
3047,76.0,0.0,90.0,1.0,0.0
3048,85.0,0.0,40.0,7.0,0.0
3049,73.0,0.0,40.0,7.0,0.0
3050,61.0,60.0,40.0,10.0,0.0
3051,71.0,60.0,40.0,7.0,0.0
3052,59.0,0.0,40.0,10.0,0.0
3053,83.0,0.0,40.0,7.0,0.0
3054,58.0,60.0,40.0,10.0,0.0
3055,82.0,0.0,40.0,7.0,0.0
3056,70.0,0.0,40.0,7.0,0.0
3057,80.0,0.0,40.0,7.0,0.0
3058,56.0,60.0,40.0,10.0,0.0
3059,68.0,0.0,40.0,7.0,0.0
3060,79.0,0.0,40.0,7.0,0.0
3061,67.0,0.0,40.0,7.0,0.0
3062,55.0,60.0,40.0,10.0,0.0
3063,64.0,0.0,40.0,7.0,0.0
3064,76.0,0.0,40.0,7.0,0.0
3065,52.0,108.0,40.0,10.0,0.0
3066,63.0,0.0,90.0,7.0,0.0
3067,75.0,0.0,90.0,7.0,0.0
3068,51.0,72.0,90.0,10.0,0.0
3069,63.0,0.0,40.0,7.0,0.0
3070,51.0,0.0,40.0,10.0,0.0
3071,75.0,36.0,40.0,7.0,0.0
3072,47.0,0.0,90.0,12.0,0.0
3073,56.0,18.0,90.0,11.0,0.0
3074,51.0,0.0,90.0,11.0,0.0
3075,47.0,0.0,90.0,13.0,0.0
3076,35.0,30.0,20.0,10.0,0.0
3077,63.0,0.0,90.0,11.0,0.0
3078,39.0,30.0,20.0,10.0,0.0
3079,44.0,12.0,20.0,10.0,0.0
3080,47.0,12.0,20.0,10.0,0.0
3081,51.0,7.0,15.0,7.0,0.0
3082,56.0,8.0,15.0,7.0,0.0
3083,59.0,7.0,15.0,7.0,0.0
3084,63.0,8.0,15.0,7.0,0.0
3085,68.0,7.0,15.0,7.0,0.0
3086,71.0,8.0,15.0,7.0,0.0
3087,75.0,7.0,15.0,7.0,0.0
3088,80.0,8.0,15.0,7.0,0.0
3089,83.0,42.0,15.0,7.0,0.0
3090,63.0,7.0,40.0,10.0,0.0
3091,75.0,53.0,40.0,7.0,0.0
3092,87.0,0.0,40.0,7.0,0.0
3093,61.0,7.0,40.0,10.0,0.0
3094,73.0,53.0,40.0,7.0,0.0
3095,85.0,0.0,40.0,7.0,0.0
3096,59.0,7.0,40.0,10.0,0.0
3097,71.0,0.0,40.0,7.0,0.0
3098,83.0,53.0,40.0,7.0,0.0
3099,82.0,0.0,40.0,7.0,0.0
3100,58.0,60.0,40.0,10.0,0.0
3101,70.0,0.0,40.0,7.0,0.0
3102,56.0,60.0,40.0,10.0,0.0
3103,68.0,0.0,40.0,7.0,0.0
3104,80.0,0.0,40.0,7.0,0.0
3105,55.0,0.0,40.0,10.0,0.0
3106,67.0,24.0,40.0,7.0,0.0
3107,79.0,0.0,40.0,7.0,0.0
3108,56.0,0.0,15.0,10.0,0.0
3109,68.0,3.0,90.0,7.0,0.0
3110,80.0,15.0,15.0,7.0,0.0
3111,82.0,15.0,15.0,7.0,0.0
3112,58.0,0.0,15.0,10.0,0.0
3113,56.0,15.0,15.0,10.0,0.0
3114,80.0,0.0,15.0,7.0,0.0
3115,58.0,15.0,15.0,10.0,0.0
3116,82.0,0.0,15.0,7.0,0.0
3117,55.0,3.0,20.0,10.0,0.0
3118,80.0,12.0,15.0,7.0,0.0
3119,82.0,9.0,15.0,7.0,0.0
3120,78.0,15.0,20.0,7.0,0.0
3121,56.0,15.0,20.0,10.0,0.0
3122,80.0,39.0,20.0,7.0,0.0
3123,58.0,15.0,40.0,10.0,0.0
3124,82.0,45.0,40.0,7.0,0.0
3125,59.0,0.0,40.0,10.0,0.0
3126,71.0,0.0,40.0,7.0,0.0
3127,83.0,60.0,40.0,7.0,0.0
3128,75.0,60.0,40.0,7.0,0.0
3129,63.0,0.0,40.0,7.0,0.0
3130,51.0,0.0,40.0,10.0,0.0
3131,77.0,0.0,40.0,7.0,0.0
3132,65.0,0.0,40.0,7.0,0.0
3133,53.0,108.0,40.0,10.0,0.0
3134,66.0,34.0,120.0,7.0,0.0
3135,78.0,0.0,120.0,7.0,0.0
3136,54.0,38.0,90.0,10.0,0.0
3137,49.0,0.0,40.0,14.0,0.0
3138,56.0,0.0,40.0,11.0,0.0
3139,56.0,0.0,40.0,10.0,0.0
3140,53.0,24.0,40.0,11.0,0.0
3141,37.0,0.0,40.0,14.0,0.0
3142,80.0,0.0,40.0,7.0,0.0
3143,68.0,0.0,40.0,7.0,0.0
3144,68.0,12.0,15.0,7.0,0.0
3145,53.0,6.0,660.0,11.0,0.0
3146,49.0,18.0,90.0,14.0,0.0
3147,56.0,0.0,660.0,11.0,0.0
3148,37.0,0.0,90.0,14.0,0.0
3149,49.0,30.0,20.0,10.0,0.0
3150,80.0,21.0,240.0,7.0,0.0
3151,53.0,30.0,20.0,10.0,0.0
3152,56.0,12.0,20.0,10.0,0.0
3153,53.0,30.0,20.0,10.0,0.0
3154,56.0,30.0,20.0,10.0,0.0
3155,53.0,30.0,20.0,10.0,0.0
3156,49.0,30.0,20.0,10.0,0.0
3157,49.0,18.0,90.0,14.0,0.0
3158,37.0,0.0,90.0,14.0,0.0
3159,53.0,9.0,20.0,10.0,0.0
3160,56.0,12.0,20.0,10.0,0.0
3161,78.0,21.0,40.0,7.0,0.0
3162,53.0,9.0,20.0,10.0,0.0
3163,56.0,30.0,20.0,10.0,0.0
3164,77.0,21.0,40.0,7.0,0.0
3165,53.0,9.0,20.0,10.0,0.0
3166,49.0,30.0,20.0,10.0,0.0
3167,37.0,0.0,90.0,14.0,0.0
3168,49.0,12.0,90.0,14.0,0.0
3169,75.0,10.0,60.0,7.0,0.0
3170,53.0,20.0,20.0,10.0,0.0
3171,56.0,12.0,20.0,10.0,0.0
3172,77.0,6.0,40.0,7.0,0.0
3173,53.0,30.0,20.0,10.0,0.0
3174,56.0,24.0,20.0,10.0,0.0
3175,73.0,6.0,40.0,7.0,0.0
3176,53.0,30.0,20.0,10.0,0.0
3177,49.0,30.0,20.0,10.0,0.0
3178,49.0,0.0,90.0,14.0,0.0
3179,37.0,12.0,90.0,14.0,0.0
3180,75.0,10.0,60.0,7.0,0.0
3181,53.0,20.0,20.0,10.0,0.0
3182,56.0,12.0,20.0,10.0,0.0
3183,77.0,0.0,40.0,7.0,0.0
3184,53.0,30.0,20.0,10.0,0.0
3185,73.0,6.0,40.0,7.0,0.0
3186,56.0,24.0,20.0,10.0,0.0
3187,53.0,30.0,20.0,10.0,0.0
3188,49.0,30.0,20.0,10.0,0.0
3189,54.0,6.0,660.0,11.0,0.0
3190,37.0,0.0,90.0,14.0,0.0
3191,58.0,0.0,660.0,11.0,0.0
3192,73.0,6.0,240.0,7.0,0.0
3193,49.0,18.0,90.0,14.0,0.0
3194,54.0,30.0,20.0,10.0,0.0
3195,58.0,12.0,20.0,10.0,0.0
3196,82.0,0.0,180.0,7.0,0.0
3197,54.0,30.0,20.0,10.0,0.0
3198,58.0,30.0,20.0,10.0,0.0
3199,54.0,30.0,20.0,10.0,0.0
3200,49.0,24.0,20.0,10.0,0.0
3201,37.0,12.0,90.0,14.0,0.0
3202,49.0,0.0,90.0,14.0,0.0
3203,54.0,30.0,20.0,10.0,0.0
3204,80.0,6.0,40.0,7.0,0.0
3205,58.0,12.0,20.0,10.0,0.0
3206,54.0,30.0,20.0,10.0,0.0
3207,78.0,6.0,40.0,7.0,0.0
3208,58.0,24.0,20.0,10.0,0.0
3209,54.0,30.0,20.0,10.0,0.0
3210,49.0,30.0,20.0,10.0,0.0
3211,37.0,12.0,90.0,14.0,0.0
3212,77.0,10.0,60.0,7.0,0.0
3213,49.0,0.0,90.0,14.0,0.0
3214,54.0,20.0,20.0,10.0,0.0
3215,58.0,12.0,20.0,10.0,0.0
3216,78.0,6.0,40.0,7.0,0.0
3217,54.0,30.0,20.0,10.0,0.0
3218,73.0,6.0,40.0,7.0,0.0
3219,58.0,24.0,20.0,10.0,0.0
3220,54.0,30.0,20.0,10.0,0.0
3221,77.0,10.0,60.0,7.0,0.0
3222,49.0,12.0,90.0,14.0,0.0
3223,37.0,0.0,90.0,14.0,0.0
3224,49.0,30.0,20.0,10.0,0.0
3225,54.0,20.0,20.0,10.0,0.0
3226,78.0,0.0,40.0,7.0,0.0
3227,58.0,12.0,20.0,10.0,0.0
3228,54.0,30.0,20.0,10.0,0.0
3229,58.0,24.0,20.0,10.0,0.0
3230,73.0,6.0,40.0,7.0,0.0
3231,54.0,30.0,20.0,10.0,0.0
3232,59.0,0.0,660.0,11.0,0.0
3233,49.0,30.0,20.0,10.0,0.0
3234,49.0,0.0,90.0,14.0,0.0
3235,37.0,18.0,90.0,14.0,0.0
3236,56.0,6.0,660.0,11.0,0.0
3237,73.0,30.0,150.0,7.0,0.0
3238,56.0,30.0,20.0,10.0,0.0
3239,59.0,12.0,20.0,10.0,0.0
3240,83.0,6.0,180.0,7.0,0.0
3241,56.0,30.0,20.0,10.0,0.0
3242,59.0,0.0,20.0,10.0,0.0
3243,56.0,30.0,20.0,10.0,0.0
3244,37.0,12.0,90.0,14.0,0.0
3245,49.0,24.0,20.0,10.0,0.0
3246,49.0,0.0,90.0,14.0,0.0
3247,56.0,30.0,20.0,10.0,0.0
3248,82.0,6.0,40.0,7.0,0.0
3249,59.0,12.0,20.0,10.0,0.0
3250,56.0,30.0,20.0,10.0,0.0
3251,80.0,6.0,40.0,7.0,0.0
3252,59.0,24.0,20.0,10.0,0.0
3253,56.0,30.0,20.0,10.0,0.0
3254,49.0,30.0,20.0,10.0,0.0
3255,49.0,12.0,90.0,14.0,0.0
3256,37.0,0.0,90.0,14.0,0.0
3257,79.0,10.0,60.0,7.0,0.0
3258,56.0,20.0,20.0,10.0,0.0
3259,59.0,12.0,20.0,10.0,0.0
3260,80.0,6.0,40.0,7.0,0.0
3261,56.0,30.0,20.0,10.0,0.0
3262,73.0,6.0,40.0,7.0,0.0
3263,59.0,24.0,20.0,10.0,0.0
3264,56.0,30.0,20.0,10.0,0.0
3265,37.0,12.0,90.0,14.0,0.0
3266,49.0,0.0,90.0,14.0,0.0
3267,49.0,30.0,20.0,10.0,0.0
3268,79.0,25.0,60.0,7.0,0.0
3269,56.0,5.0,20.0,10.0,0.0
3270,80.0,0.0,40.0,7.0,0.0
3271,59.0,12.0,20.0,10.0,0.0
3272,56.0,30.0,20.0,10.0,0.0
3273,59.0,20.0,20.0,10.0,0.0
3274,73.0,10.0,40.0,7.0,0.0
3275,85.0,0.0,20.0,7.0,0.0
3276,56.0,30.0,20.0,10.0,0.0
3277,30.0,18.0,90.0,14.0,0.0
3278,54.0,0.0,20.0,10.0,0.0
3279,42.0,0.0,90.0,14.0,0.0
3280,54.0,0.0,210.0,11.0,0.0
3281,85.0,30.0,20.0,7.0,0.0
3282,58.0,25.0,210.0,11.0,0.0
3283,58.0,0.0,20.0,10.0,0.0
3284,61.0,30.0,20.0,10.0,0.0
3285,82.0,0.0,20.0,7.0,0.0
3286,66.0,0.0,20.0,10.0,0.0
3287,78.0,12.0,20.0,7.0,0.0
3288,61.0,0.0,20.0,10.0,0.0
3289,85.0,0.0,20.0,7.0,0.0
3290,58.0,30.0,20.0,10.0,0.0
3291,82.0,30.0,20.0,7.0,0.0
3292,66.0,0.0,20.0,10.0,0.0
3293,61.0,0.0,20.0,10.0,0.0
3294,58.0,0.0,20.0,10.0,0.0
3295,78.0,30.0,20.0,7.0,0.0
3296,87.0,5.0,20.0,7.0,0.0
3297,54.0,0.0,20.0,10.0,0.0
3298,63.0,10.0,210.0,11.0,0.0
3299,59.0,15.0,210.0,11.0,0.0
3300,59.0,0.0,20.0,10.0,0.0
3301,83.0,0.0,20.0,7.0,0.0
3302,63.0,30.0,20.0,10.0,0.0
3303,66.0,0.0,20.0,10.0,0.0
3304,78.0,30.0,20.0,7.0,0.0
3305,59.0,0.0,20.0,10.0,0.0
3306,63.0,30.0,20.0,10.0,0.0
3307,87.0,0.0,20.0,7.0,0.0
3308,66.0,30.0,20.0,10.0,0.0
3309,83.0,0.0,20.0,7.0,0.0
3310,63.0,0.0,20.0,10.0,0.0
3311,59.0,0.0,20.0,10.0,0.0
3312,78.0,30.0,20.0,7.0,0.0
3313,85.0,5.0,20.0,7.0,0.0
3314,54.0,0.0,20.0,10.0,0.0
3315,58.0,0.0,210.0,11.0,0.0
3316,61.0,25.0,210.0,11.0,0.0
3317,61.0,0.0,20.0,10.0,0.0
3318,58.0,0.0,20.0,10.0,0.0
3319,82.0,30.0,20.0,7.0,0.0
3320,66.0,0.0,20.0,10.0,0.0
3321,78.0,30.0,20.0,7.0,0.0
3322,58.0,0.0,20.0,10.0,0.0
3323,61.0,0.0,20.0,10.0,0.0
3324,85.0,30.0,20.0,7.0,0.0
3325,82.0,30.0,20.0,7.0,0.0
3326,66.0,0.0,20.0,10.0,0.0
3327,78.0,30.0,20.0,7.0,0.0
3328,58.0,0.0,20.0,10.0,0.0
3329,61.0,0.0,20.0,10.0,0.0
3330,54.0,5.0,20.0,10.0,0.0
3331,42.0,0.0,90.0,14.0,0.0
3332,56.0,0.0,150.0,11.0,0.0
3333,85.0,0.0,20.0,7.0,0.0
3334,30.0,12.0,90.0,14.0,0.0
3335,59.0,0.0,150.0,11.0,0.0
3336,61.0,0.0,20.0,10.0,0.0
3337,56.0,0.0,20.0,10.0,0.0
3338,83.0,30.0,20.0,7.0,0.0
3339,65.0,12.0,20.0,10.0,0.0
3340,80.0,0.0,20.0,7.0,0.0
3341,56.0,30.0,20.0,10.0,0.0
3342,85.0,0.0,20.0,7.0,0.0
3343,61.0,0.0,20.0,10.0,0.0
3344,83.0,0.0,20.0,7.0,0.0
3345,42.0,0.0,40.0,14.0,0.0
3346,30.0,6.0,40.0,14.0,0.0
3347,65.0,24.0,20.0,10.0,0.0
3348,80.0,0.0,20.0,7.0,0.0
3349,56.0,0.0,20.0,10.0,0.0
3350,61.0,30.0,20.0,10.0,0.0
3351,42.0,0.0,90.0,14.0,0.0
3352,30.0,18.0,90.0,14.0,0.0
3353,58.0,10.0,210.0,11.0,0.0
3354,54.0,0.0,20.0,10.0,0.0
3355,54.0,10.0,180.0,11.0,0.0
3356,85.0,30.0,20.0,7.0,0.0
3357,61.0,0.0,20.0,10.0,0.0
3358,82.0,30.0,20.0,7.0,0.0
3359,78.0,0.0,20.0,7.0,0.0
3360,66.0,12.0,20.0,10.0,0.0
3361,58.0,0.0,20.0,10.0,0.0
3362,85.0,30.0,20.0,7.0,0.0
3363,61.0,0.0,20.0,10.0,0.0
3364,82.0,0.0,20.0,7.0,0.0
3365,66.0,30.0,20.0,10.0,0.0
3366,61.0,20.0,20.0,10.0,0.0
3367,58.0,0.0,20.0,10.0,0.0
3368,78.0,0.0,20.0,7.0,0.0
3369,87.0,0.0,20.0,7.0,0.0
3370,54.0,20.0,20.0,10.0,0.0
3371,59.0,10.0,180.0,11.0,0.0
3372,63.0,25.0,210.0,11.0,0.0
3373,83.0,0.0,20.0,7.0,0.0
3374,59.0,30.0,20.0,10.0,0.0
3375,63.0,0.0,20.0,10.0,0.0
3376,66.0,30.0,20.0,10.0,0.0
3377,78.0,0.0,20.0,7.0,0.0
3378,63.0,0.0,20.0,10.0,0.0
3379,59.0,0.0,20.0,10.0,0.0
3380,87.0,30.0,20.0,7.0,0.0
3381,83.0,0.0,20.0,7.0,0.0
3382,66.0,30.0,20.0,10.0,0.0
3383,78.0,0.0,20.0,7.0,0.0
3384,59.0,20.0,20.0,10.0,0.0
3385,63.0,0.0,20.0,10.0,0.0
3386,58.0,25.0,210.0,11.0,0.0
3387,54.0,0.0,20.0,10.0,0.0
3388,85.0,5.0,20.0,7.0,0.0
3389,61.0,10.0,180.0,11.0,0.0
3390,58.0,0.0,20.0,10.0,0.0
3391,82.0,30.0,20.0,7.0,0.0
3392,61.0,0.0,20.0,10.0,0.0
3393,66.0,30.0,20.0,10.0,0.0
3394,78.0,0.0,20.0,7.0,0.0
3395,58.0,0.0,20.0,10.0,0.0
3396,61.0,30.0,20.0,10.0,0.0
3397,85.0,0.0,20.0,7.0,0.0
3398,66.0,30.0,20.0,10.0,0.0
3399,82.0,0.0,20.0,7.0,0.0
3400,58.0,20.0,20.0,10.0,0.0
3401,78.0,0.0,20.0,7.0,0.0
3402,61.0,0.0,20.0,10.0,0.0
3403,42.0,0.0,90.0,12.0,0.0
3404,85.0,0.0,20.0,7.0,0.0
3405,56.0,24.0,150.0,11.0,0.0
3406,42.0,12.0,90.0,13.0,0.0
3407,59.0,0.0,150.0,11.0,0.0
3408,54.0,5.0,20.0,10.0,0.0
3409,83.0,0.0,20.0,7.0,0.0
3410,61.0,30.0,20.0,10.0,0.0
3411,56.0,0.0,20.0,10.0,0.0
3412,65.0,12.0,20.0,10.0,0.0
3413,80.0,0.0,20.0,7.0,0.0
3414,56.0,0.0,20.0,10.0,0.0
3415,85.0,30.0,20.0,7.0,0.0
3416,61.0,0.0,20.0,10.0,0.0
3417,42.0,6.0,40.0,13.0,0.0
3418,42.0,0.0,40.0,12.0,0.0
3419,65.0,0.0,20.0,10.0,0.0
3420,83.0,0.0,20.0,7.0,0.0
3421,56.0,0.0,20.0,10.0,0.0
3422,80.0,30.0,20.0,7.0,0.0
3423,61.0,0.0,20.0,10.0,0.0
3424,42.0,0.0,150.0,13.0,0.0
3425,42.0,0.0,150.0,12.0,0.0
3426,54.0,25.0,210.0,11.0,0.0
3427,85.0,0.0,20.0,7.0,0.0
3428,58.0,10.0,180.0,11.0,0.0
3429,54.0,30.0,20.0,10.0,0.0
3430,58.0,30.0,20.0,10.0,0.0
3431,61.0,0.0,20.0,10.0,0.0
3432,82.0,0.0,20.0,7.0,0.0
3433,78.0,30.0,20.0,7.0,0.0
3434,66.0,0.0,20.0,10.0,0.0
3435,58.0,0.0,20.0,10.0,0.0
3436,61.0,0.0,20.0,10.0,0.0
3437,85.0,30.0,20.0,7.0,0.0
3438,66.0,0.0,20.0,10.0,0.0
3439,82.0,30.0,20.0,7.0,0.0
3440,78.0,0.0,20.0,7.0,0.0
3441,61.0,20.0,20.0,10.0,0.0
3442,58.0,0.0,20.0,10.0,0.0
3443,87.0,0.0,20.0,7.0,0.0
3444,54.0,5.0,20.0,10.0,0.0
3445,47.0,30.0,150.0,13.0,0.0
3446,47.0,0.0,150.0,12.0,0.0
3447,63.0,0.0,210.0,11.0,0.0
3448,59.0,25.0,210.0,11.0,0.0
3449,63.0,30.0,20.0,10.0,0.0
3450,59.0,0.0,20.0,10.0,0.0
3451,83.0,0.0,20.0,7.0,0.0
3452,78.0,30.0,20.0,7.0,0.0
3453,66.0,0.0,20.0,10.0,0.0
3454,87.0,0.0,20.0,7.0,0.0
3455,59.0,30.0,20.0,10.0,0.0
3456,63.0,0.0,20.0,10.0,0.0
3457,66.0,0.0,20.0,10.0,0.0
3458,83.0,0.0,20.0,7.0,0.0
3459,63.0,0.0,20.0,10.0,0.0
3460,78.0,30.0,20.0,7.0,0.0
3461,59.0,0.0,20.0,10.0,0.0
3462,61.0,0.0,210.0,11.0,0.0
3463,42.0,30.0,150.0,12.0,0.0
3464,58.0,25.0,210.0,11.0,0.0
3465,85.0,0.0,20.0,7.0,0.0
3466,42.0,0.0,150.0,13.0,0.0
3467,54.0,5.0,20.0,10.0,0.0
3468,58.0,0.0,20.0,10.0,0.0
3469,61.0,0.0,20.0,10.0,0.0
3470,82.0,30.0,20.0,7.0,0.0
3471,66.0,0.0,20.0,10.0,0.0
3472,78.0,30.0,20.0,7.0,0.0
3473,85.0,0.0,20.0,7.0,0.0
3474,58.0,30.0,20.0,10.0,0.0
3475,61.0,0.0,20.0,10.0,0.0
3476,82.0,0.0,20.0,7.0,0.0
3477,66.0,0.0,20.0,10.0,0.0
3478,58.0,30.0,20.0,10.0,0.0
3479,61.0,0.0,20.0,10.0,0.0
3480,78.0,0.0,20.0,7.0,0.0
3481,87.0,5.0,20.0,7.0,0.0
3482,47.0,0.0,150.0,13.0,0.0
3483,63.0,0.0,150.0,11.0,0.0
3484,59.0,0.0,150.0,11.0,0.0
3485,47.0,0.0,150.0,12.0,0.0
3486,54.0,0.0,20.0,10.0,0.0
3487,59.0,0.0,20.0,10.0,0.0
3488,63.0,30.0,20.0,10.0,0.0
3489,83.0,0.0,20.0,7.0,0.0
3490,78.0,24.0,20.0,7.0,0.0
3491,66.0,0.0,20.0,10.0,0.0
3492,87.0,0.0,20.0,7.0,0.0
3493,63.0,30.0,20.0,10.0,0.0
3494,59.0,0.0,20.0,10.0,0.0
3495,66.0,0.0,20.0,10.0,0.0
3496,83.0,30.0,20.0,7.0,0.0
3497,78.0,30.0,20.0,7.0,0.0
3498,59.0,0.0,20.0,10.0,0.0
3499,63.0,0.0,20.0,10.0,0.0
3500,42.0,0.0,90.0,13.0,0.0
3501,42.0,0.0,90.0,12.0,0.0
3502,54.0,30.0,20.0,10.0,0.0
3503,54.0,0.0,90.0,11.0,0.0
3504,61.0,18.0,90.0,11.0,0.0
3505,85.0,0.0,20.0,7.0,0.0
3506,58.0,0.0,90.0,11.0,0.0
3507,58.0,30.0,20.0,10.0,0.0
3508,82.0,0.0,20.0,7.0,0.0
3509,61.0,12.0,20.0,10.0,0.0
3510,78.0,0.0,20.0,7.0,0.0
3511,54.0,30.0,20.0,10.0,0.0
3512,87.0,0.0,20.0,7.0,0.0
3513,59.0,6.0,40.0,11.0,0.0
3514,47.0,0.0,40.0,13.0,0.0
3515,63.0,0.0,40.0,11.0,0.0
3516,54.0,0.0,40.0,11.0,0.0
3517,83.0,0.0,20.0,7.0,0.0
3518,47.0,0.0,40.0,12.0,0.0
3519,59.0,24.0,20.0,10.0,0.0
3520,78.0,30.0,20.0,7.0,0.0
3521,63.0,0.0,20.0,10.0,0.0
3522,42.0,0.0,90.0,12.0,0.0
3523,54.0,0.0,90.0,11.0,0.0
3524,85.0,30.0,20.0,7.0,0.0
3525,42.0,0.0,90.0,13.0,0.0
3526,58.0,2.0,120.0,11.0,0.0
3527,54.0,0.0,20.0,10.0,0.0
3528,61.0,16.0,90.0,11.0,0.0
3529,58.0,30.0,20.0,10.0,0.0
3530,82.0,0.0,20.0,7.0,0.0
3531,78.0,0.0,20.0,7.0,0.0
3532,61.0,12.0,20.0,10.0,0.0
3533,87.0,30.0,20.0,7.0,0.0
3534,54.0,0.0,20.0,10.0,0.0
3535,54.0,0.0,40.0,11.0,0.0
3536,59.0,0.0,20.0,10.0,0.0
3537,47.0,0.0,40.0,13.0,0.0
3538,83.0,24.0,20.0,7.0,0.0
3539,47.0,0.0,40.0,12.0,0.0
3540,59.0,0.0,40.0,11.0,0.0
3541,63.0,6.0,40.0,11.0,0.0
3542,63.0,0.0,20.0,10.0,0.0
3543,78.0,30.0,20.0,7.0,0.0
3544,54.0,30.0,20.0,10.0,0.0
3545,42.0,18.0,90.0,12.0,0.0
3546,85.0,0.0,20.0,7.0,0.0
3547,61.0,0.0,90.0,11.0,0.0
3548,54.0,0.0,90.0,11.0,0.0
3549,42.0,0.0,90.0,13.0,0.0
3550,58.0,0.0,90.0,11.0,0.0
3551,82.0,0.0,20.0,7.0,0.0
3552,58.0,30.0,20.0,10.0,0.0
3553,78.0,12.0,20.0,7.0,0.0
3554,61.0,0.0,20.0,10.0,0.0
3555,87.0,30.0,20.0,7.0,0.0
3556,54.0,0.0,20.0,10.0,0.0
3557,83.0,24.0,20.0,7.0,0.0
3558,54.0,0.0,40.0,11.0,0.0
3559,47.0,0.0,40.0,12.0,0.0
3560,47.0,0.0,40.0,13.0,0.0
3561,59.0,0.0,20.0,10.0,0.0
3562,63.0,6.0,40.0,11.0,0.0
3563,59.0,0.0,40.0,11.0,0.0
3564,63.0,30.0,20.0,10.0,0.0
3565,78.0,0.0,20.0,7.0,0.0
3566,85.0,0.0,20.0,7.0,0.0
3567,61.0,0.0,90.0,11.0,0.0
3568,54.0,18.0,90.0,11.0,0.0
3569,42.0,0.0,90.0,13.0,0.0
3570,54.0,30.0,20.0,10.0,0.0
3571,42.0,0.0,90.0,12.0,0.0
3572,58.0,0.0,90.0,11.0,0.0
3573,82.0,0.0,20.0,7.0,0.0
3574,58.0,30.0,20.0,10.0,0.0
3575,61.0,12.0,20.0,10.0,0.0
3576,78.0,0.0,20.0,7.0,0.0
3577,87.0,0.0,20.0,7.0,0.0
3578,54.0,30.0,20.0,10.0,0.0
3579,63.0,0.0,40.0,11.0,0.0
3580,47.0,0.0,40.0,13.0,0.0
3581,59.0,6.0,40.0,11.0,0.0
3582,54.0,0.0,40.0,11.0,0.0
3583,83.0,0.0,20.0,7.0,0.0
3584,59.0,24.0,20.0,10.0,0.0
3585,47.0,0.0,40.0,12.0,0.0
3586,78.0,0.0,20.0,7.0,0.0
3587,63.0,30.0,20.0,10.0,0.0
3588,64.0,0.0,90.0,11.0,0.0
3589,42.0,0.0,90.0,13.0,0.0
3590,61.0,0.0,90.0,11.0,0.0
3591,42.0,0.0,90.0,12.0,0.0
3592,54.0,0.0,90.0,11.0,0.0
3593,76.0,24.0,20.0,7.0,0.0
3594,64.0,6.0,40.0,10.0,0.0
3595,58.0,12.0,90.0,11.0,0.0
3596,88.0,30.0,20.0,7.0,0.0
3597,61.0,6.0,40.0,10.0,0.0
3598,73.0,12.0,20.0,7.0,0.0
3599,85.0,30.0,20.0,7.0,0.0
3600,58.0,6.0,40.0,10.0,0.0
3601,70.0,24.0,20.0,7.0,0.0
3602,82.0,30.0,20.0,7.0,0.0
3603,54.0,6.0,40.0,10.0,0.0
3604,66.0,24.0,20.0,7.0,0.0
3605,78.0,30.0,20.0,7.0,0.0
3606,64.0,24.0,20.0,7.0,0.0
3607,52.0,6.0,40.0,10.0,0.0
3608,76.0,30.0,20.0,7.0,0.0
3609,61.0,24.0,20.0,7.0,0.0
3610,49.0,6.0,40.0,10.0,0.0
3611,73.0,30.0,20.0,7.0,0.0
3612,58.0,24.0,20.0,7.0,0.0
3613,46.0,6.0,40.0,10.0,0.0
3614,70.0,30.0,20.0,7.0,0.0
3615,42.0,6.0,40.0,10.0,0.0
3616,54.0,24.0,20.0,7.0,0.0
3617,66.0,30.0,20.0,7.0,0.0
3618,40.0,6.0,40.0,10.0,0.0
3619,52.0,24.0,20.0,7.0,0.0
3620,64.0,30.0,20.0,7.0,0.0
3621,49.0,24.0,20.0,7.0,0.0
3622,37.0,6.0,40.0,10.0,0.0
3623,61.0,30.0,20.0,7.0,0.0
3624,46.0,24.0,20.0,7.0,0.0
3625,34.0,6.0,40.0,10.0,0.0
3626,58.0,30.0,20.0,7.0,0.0
3627,42.0,24.0,20.0,7.0,0.0
3628,30.0,6.0,40.0,10.0,0.0
3629,54.0,30.0,20.0,7.0,0.0
3630,46.0,24.0,20.0,7.0,0.0
3631,34.0,6.0,40.0,10.0,0.0
3632,58.0,30.0,20.0,7.0,0.0
3633,37.0,6.0,40.0,10.0,0.0
3634,49.0,24.0,20.0,7.0,0.0
3635,61.0,30.0,20.0,7.0,0.0
3636,52.0,24.0,20.0,7.0,0.0
3637,40.0,6.0,40.0,10.0,0.0
3638,64.0,30.0,20.0,7.0,0.0
3639,54.0,24.0,20.0,7.0,0.0
3640,42.0,6.0,40.0,10.0,0.0
3641,66.0,30.0,20.0,7.0,0.0
3642,46.0,6.0,40.0,10.0,0.0
3643,58.0,24.0,20.0,7.0,0.0
3644,70.0,30.0,20.0,7.0,0.0
3645,49.0,6.0,40.0,10.0,0.0
3646,61.0,24.0,20.0,7.0,0.0
3647,73.0,30.0,20.0,7.0,0.0
3648,64.0,24.0,20.0,7.0,0.0
3649,52.0,6.0,40.0,10.0,0.0
3650,76.0,30.0,20.0,7.0,0.0
3651,66.0,24.0,20.0,7.0,0.0
3652,54.0,6.0,40.0,10.0,0.0
3653,78.0,30.0,20.0,7.0,0.0
3654,58.0,6.0,40.0,10.0,0.0
3655,70.0,24.0,20.0,7.0,0.0
3656,82.0,30.0,20.0,7.0,0.0
3657,61.0,6.0,40.0,10.0,0.0
3658,73.0,24.0,20.0,7.0,0.0
3659,85.0,30.0,20.0,7.0,0.0
3660,76.0,24.0,20.0,7.0,0.0
3661,64.0,6.0,40.0,10.0,0.0
3662,88.0,30.0,20.0,7.0,0.0
3663,66.0,6.0,40.0,10.0,0.0
3664,78.0,24.0,20.0,7.0,0.0
3665,90.0,30.0,20.0,7.0,0.0
3666,79.0,24.0,20.0,7.0,0.0
3667,67.0,6.0,40.0,10.0,0.0
3668,91.0,30.0,20.0,7.0,0.0
3669,55.0,6.0,40.0,10.0,0.0
3670,67.0,24.0,20.0,7.0,0.0
3671,79.0,30.0,20.0,7.0,0.0
3672,66.0,24.0,20.0,7.0,0.0
3673,54.0,6.0,40.0,10.0,0.0
3674,78.0,30.0,20.0,7.0,0.0
3675,79.0,24.0,20.0,7.0,0.0
3676,67.0,6.0,40.0,10.0,0.0
3677,91.0,30.0,20.0,7.0,0.0
3678,67.0,24.0,20.0,7.0,0.0
3679,55.0,6.0,40.0,10.0,0.0
3680,79.0,30.0,20.0,7.0,0.0
3681,66.0,24.0,20.0,7.0,0.0
3682,54.0,6.0,40.0,10.0,0.0
3683,78.0,30.0,20.0,7.0,0.0
3684,67.0,6.0,40.0,10.0,0.0
3685,79.0,24.0,20.0,7.0,0.0
3686,91.0,30.0,20.0,7.0,0.0
3687,55.0,6.0,40.0,10.0,0.0
3688,67.0,24.0,20.0,7.0,0.0
3689,79.0,30.0,20.0,7.0,0.0
3690,54.0,6.0,40.0,10.0,0.0
3691,66.0,24.0,20.0,7.0,0.0
3692,78.0,30.0,20.0,7.0,0.0
3693,79.0,24.0,20.0,7.0,0.0
3694,67.0,6.0,40.0,10.0,0.0
3695,91.0,30.0,20.0,7.0,0.0
3696,67.0,24.0,20.0,7.0,0.0
3697,55.0,6.0,40.0,10.0,0.0
3698,79.0,30.0,20.0,7.0,0.0
3699,66.0,24.0,20.0,7.0,0.0
3700,54.0,6.0,40.0,10.0,0.0
3701,78.0,30.0,20.0,7.0,0.0
3702,65.0,24.0,20.0,7.0,0.0
3703,53.0,6.0,40.0,10.0,0.0
3704,77.0,30.0,20.0,7.0,0.0
3705,52.0,6.0,40.0,10.0,0.0
3706,64.0,24.0,20.0,7.0,0.0
3707,76.0,30.0,20.0,7.0,0.0
3708,63.0,24.0,20.0,7.0,0.0
3709,51.0,6.0,40.0,10.0,0.0
3710,75.0,30.0,20.0,7.0,0.0
3711,50.0,6.0,40.0,10.0,0.0
3712,62.0,24.0,20.0,7.0,0.0
3713,74.0,30.0,20.0,7.0,0.0
3714,49.0,6.0,40.0,10.0,0.0
3715,61.0,24.0,20.0,7.0,0.0
3716,73.0,30.0,20.0,7.0,0.0
3717,48.0,6.0,40.0,10.0,0.0
3718,60.0,24.0,20.0,7.0,0.0
3719,72.0,30.0,20.0,7.0,0.0
3720,59.0,24.0,20.0,7.0,0.0
3721,47.0,6.0,40.0,10.0,0.0
3722,71.0,30.0,20.0,7.0,0.0
3723,58.0,24.0,20.0,7.0,0.0
3724,46.0,6.0,40.0,10.0,0.0
3725,70.0,30.0,20.0,7.0,0.0
3726,45.0,6.0,40.0,10.0,0.0
3727,57.0,24.0,20.0,7.0,0.0
3728,69.0,30.0,20.0,7.0,0.0
3729,44.0,6.0,40.0,10.0,0.0
3730,56.0,24.0,20.0,7.0,0.0
3731,68.0,30.0,20.0,7.0,0.0
3732,43.0,6.0,40.0,10.0,0.0
3733,55.0,24.0,20.0,7.0,0.0
3734,67.0,30.0,20.0,7.0,0.0
3735,54.0,24.0,20.0,7.0,0.0
3736,42.0,6.0,40.0,10.0,0.0
3737,66.0,54.0,20.0,7.0,0.0
3738,59.0,0.0,40.0,7.0,0.0
3739,54.0,0.0,600.0,5.0,0.0
3740,42.0,37.0,600.0,5.0,0.0
3741,63.0,60.0,40.0,7.0,0.0
3742,35.0,0.0,40.0,10.0,0.0
3743,66.0,0.0,40.0,7.0,0.0
3744,54.0,0.0,40.0,10.0,0.0
3745,71.0,60.0,40.0,7.0,0.0
3746,59.0,0.0,40.0,7.0,0.0
3747,63.0,0.0,40.0,7.0,0.0
3748,47.0,0.0,40.0,10.0,0.0
3749,66.0,0.0,40.0,7.0,0.0
3750,42.0,0.0,40.0,10.0,0.0
3751,71.0,60.0,40.0,7.0,0.0
3752,51.0,0.0,40.0,10.0,0.0
3753,63.0,0.0,40.0,7.0,0.0
3754,75.0,0.0,40.0,7.0,0.0
3755,63.0,0.0,40.0,7.0,0.0
3756,66.0,0.0,40.0,7.0,0.0
3757,35.0,60.0,40.0,10.0,0.0
3758,54.0,36.0,40.0,10.0,0.0
3759,47.0,0.0,40.0,10.0,0.0
3760,66.0,6.0,40.0,7.0,0.0
3761,42.0,0.0,40.0,10.0,0.0
3762,75.0,24.0,20.0,7.0,0.0
3763,51.0,0.0,40.0,10.0,0.0
3764,71.0,0.0,40.0,7.0,0.0
3765,78.0,30.0,20.0,7.0,0.0
3766,71.0,0.0,40.0,7.0,0.0
3767,75.0,6.0,40.0,7.0,0.0
3768,35.0,0.0,40.0,10.0,0.0
3769,78.0,24.0,20.0,7.0,0.0
3770,83.0,54.0,20.0,7.0,0.0
3771,78.0,0.0,210.0,7.0,0.0
3772,71.0,0.0,210.0,7.0,0.0
3773,83.0,0.0,210.0,7.0,0.0
3774,54.0,60.0,40.0,10.0,0.0
3775,75.0,12.0,210.0,7.0,0.0
3776,42.0,0.0,40.0,10.0,0.0
3777,51.0,60.0,40.0,10.0,0.0
3778,47.0,0.0,40.0,10.0,0.0
3779,35.0,11.0,40.0,10.0,0.0
3780,54.0,36.0,40.0,10.0,0.0
3781,42.0,6.0,40.0,10.0,0.0
3782,47.0,0.0,40.0,10.0,0.0
3783,51.0,0.0,40.0,10.0,0.0
3784,75.0,0.0,40.0,7.0,0.0
3785,78.0,0.0,40.0,7.0,0.0
3786,83.0,24.0,20.0,7.0,0.0
3787,87.0,54.0,20.0,7.0,0.0
3788,78.0,0.0,40.0,7.0,0.0
3789,54.0,0.0,2100.0,5.0,0.0
3790,42.0,0.0,2100.0,5.0,0.0
3791,76.0,0.0,40.0,7.0,0.0
3792,30.0,60.0,40.0,10.0,0.0
3793,73.0,0.0,40.0,7.0,0.0
3794,85.0,0.0,40.0,7.0,0.0
3795,54.0,36.0,40.0,10.0,0.0
3796,49.0,0.0,40.0,10.0,0.0
3797,76.0,0.0,40.0,7.0,0.0
3798,42.0,6.0,40.0,10.0,0.0
3799,52.0,0.0,40.0,10.0,0.0
3800,82.0,24.0,20.0,7.0,0.0
3801,73.0,0.0,40.0,7.0,0.0
3802,78.0,0.0,40.0,7.0,0.0
3803,85.0,54.0,20.0,7.0,0.0
3804,78.0,0.0,40.0,7.0,0.0
3805,35.0,60.0,40.0,10.0,0.0
3806,75.0,0.0,40.0,7.0,0.0
3807,83.0,0.0,40.0,7.0,0.0
3808,54.0,36.0,40.0,10.0,0.0
3809,51.0,0.0,40.0,10.0,0.0
3810,47.0,0.0,40.0,10.0,0.0
3811,42.0,0.0,40.0,10.0,0.0
3812,75.0,24.0,20.0,7.0,0.0
3813,71.0,6.0,40.0,7.0,0.0
3814,78.0,18.0,20.0,7.0,0.0
3815,73.0,0.0,270.0,7.0,0.0
3816,30.0,9.0,40.0,10.0,0.0
3817,78.0,15.0,15.0,7.0,0.0
3818,70.0,0.0,270.0,7.0,0.0
3819,80.0,15.0,15.0,7.0,0.0
3820,78.0,6.0,15.0,7.0,0.0
3821,80.0,15.0,15.0,7.0,0.0
3822,78.0,15.0,15.0,7.0,0.0
3823,54.0,9.0,40.0,10.0,0.0
3824,80.0,15.0,15.0,7.0,0.0
3825,78.0,6.0,15.0,7.0,0.0
3826,80.0,27.0,15.0,7.0,0.0
3827,42.0,0.0,40.0,10.0,0.0
3828,78.0,24.0,20.0,7.0,0.0
3829,49.0,6.0,40.0,10.0,0.0
3830,46.0,0.0,40.0,10.0,0.0
3831,77.0,54.0,20.0,7.0,0.0
3832,78.0,12.0,90.0,7.0,0.0
3833,30.0,48.0,40.0,10.0,0.0
3834,54.0,60.0,40.0,10.0,0.0
3835,42.0,0.0,40.0,10.0,0.0
3836,49.0,0.0,40.0,10.0,0.0
3837,66.0,60.0,40.0,7.0,0.0
3838,52.0,0.0,40.0,10.0,0.0
3839,63.0,0.0,40.0,7.0,0.0
3840,59.0,0.0,40.0,7.0,0.0
3841,66.0,0.0,40.0,7.0,0.0
3842,35.0,60.0,40.0,10.0,0.0
3843,63.0,0.0,40.0,7.0,0.0
3844,54.0,0.0,40.0,10.0,0.0
3845,59.0,60.0,40.0,7.0,0.0
3846,71.0,0.0,40.0,7.0,0.0
3847,71.0,0.0,40.0,7.0,0.0
3848,66.0,0.0,40.0,7.0,0.0
3849,47.0,0.0,40.0,10.0,0.0
3850,51.0,0.0,40.0,10.0,0.0
3851,42.0,0.0,40.0,10.0,0.0
3852,63.0,60.0,40.0,7.0,0.0
3853,75.0,0.0,40.0,7.0,0.0
3854,63.0,60.0,40.0,7.0,0.0
3855,66.0,0.0,40.0,7.0,0.0
3856,35.0,0.0,40.0,10.0,0.0
3857,54.0,36.0,40.0,10.0,0.0
3858,75.0,24.0,20.0,7.0,0.0
3859,66.0,0.0,40.0,7.0,0.0
3860,71.0,0.0,40.0,7.0,0.0
3861,51.0,0.0,40.0,10.0,0.0
3862,42.0,0.0,40.0,10.0,0.0
3863,47.0,6.0,40.0,10.0,0.0
3864,78.0,30.0,20.0,7.0,0.0
3865,71.0,6.0,40.0,7.0,0.0
3866,78.0,24.0,20.0,7.0,0.0
3867,75.0,0.0,40.0,7.0,0.0
3868,35.0,0.0,40.0,10.0,0.0
3869,83.0,54.0,20.0,7.0,0.0
3870,54.0,60.0,40.0,10.0,0.0
3871,71.0,12.0,210.0,7.0,0.0
3872,83.0,0.0,210.0,7.0,0.0
3873,75.0,0.0,210.0,7.0,0.0
3874,78.0,0.0,210.0,7.0,0.0
3875,47.0,0.0,40.0,10.0,0.0
3876,42.0,60.0,40.0,10.0,0.0
3877,51.0,0.0,40.0,10.0,0.0
3878,35.0,48.0,40.0,10.0,0.0
3879,54.0,36.0,40.0,10.0,0.0
3880,75.0,0.0,40.0,7.0,0.0
3881,83.0,24.0,20.0,7.0,0.0
3882,78.0,0.0,40.0,7.0,0.0
3883,47.0,0.0,40.0,10.0,0.0
3884,51.0,0.0,40.0,10.0,0.0
3885,42.0,6.0,40.0,10.0,0.0
3886,87.0,54.0,20.0,7.0,0.0
3887,85.0,0.0,40.0,7.0,0.0
3888,30.0,60.0,40.0,10.0,0.0
3889,78.0,0.0,40.0,7.0,0.0
3890,73.0,0.0,40.0,7.0,0.0
3891,76.0,0.0,40.0,7.0,0.0
3892,54.0,36.0,40.0,10.0,0.0
3893,42.0,0.0,40.0,10.0,0.0
3894,52.0,0.0,40.0,10.0,0.0
3895,49.0,0.0,40.0,10.0,0.0
3896,82.0,24.0,20.0,7.0,0.0
3897,78.0,6.0,40.0,7.0,0.0
3898,73.0,0.0,40.0,7.0,0.0
3899,76.0,0.0,40.0,7.0,0.0
3900,85.0,54.0,20.0,7.0,0.0
3901,78.0,0.0,40.0,7.0,0.0
3902,35.0,0.0,40.0,10.0,0.0
3903,83.0,60.0,40.0,7.0,0.0
3904,75.0,0.0,40.0,7.0,0.0
3905,54.0,36.0,40.0,10.0,0.0
3906,75.0,24.0,20.0,7.0,0.0
3907,47.0,0.0,40.0,10.0,0.0
3908,42.0,0.0,40.0,10.0,0.0
3909,71.0,6.0,40.0,7.0,0.0
3910,51.0,0.0,40.0,10.0,0.0
3911,78.0,18.0,20.0,7.0,0.0
3912,70.0,0.0,270.0,7.0,0.0
3913,78.0,15.0,15.0,7.0,0.0
3914,73.0,12.0,270.0,7.0,0.0
3915,42.0,9.0,40.0,10.0,0.0
3916,80.0,15.0,15.0,7.0,0.0
3917,78.0,6.0,15.0,7.0,0.0
3918,80.0,15.0,15.0,7.0,0.0
3919,78.0,15.0,15.0,7.0,0.0
3920,54.0,9.0,40.0,10.0,0.0
3921,80.0,15.0,15.0,7.0,0.0
3922,78.0,6.0,15.0,7.0,0.0
3923,80.0,27.0,15.0,7.0,0.0
3924,46.0,0.0,40.0,10.0,0.0
3925,78.0,24.0,20.0,7.0,0.0
3926,49.0,6.0,40.0,10.0,0.0
3927,77.0,54.0,20.0,7.0,0.0
3928,42.0,48.0,40.0,10.0,0.0
3929,78.0,0.0,90.0,7.0,0.0
3930,58.0,0.0,40.0,10.0,0.0
3931,61.0,36.0,40.0,10.0,0.0
3932,57.0,0.0,40.0,10.0,0.0
3933,60.0,6.0,40.0,10.0,0.0
3934,78.0,0.0,20.0,7.0,0.0
3935,66.0,24.0,20.0,7.0,0.0
3936,65.0,0.0,20.0,7.0,0.0
3937,77.0,54.0,20.0,7.0,0.0
3938,65.0,48.0,40.0,7.0,0.0
3939,77.0,0.0,40.0,7.0,0.0
3940,42.0,0.0,90.0,5.0,0.0
3941,54.0,12.0,90.0,5.0,0.0
3942,42.0,0.0,40.0,10.0,0.0
3943,56.0,36.0,40.0,10.0,0.0
3944,59.0,0.0,40.0,10.0,0.0
3945,64.0,24.0,20.0,7.0,0.0
3946,76.0,0.0,20.0,7.0,0.0
3947,58.0,6.0,40.0,10.0,0.0
3948,55.0,0.0,40.0,10.0,0.0
3949,63.0,54.0,20.0,7.0,0.0
3950,75.0,0.0,20.0,7.0,0.0
3951,54.0,12.0,90.0,5.0,0.0
3952,75.0,0.0,40.0,7.0,0.0
3953,42.0,0.0,40.0,10.0,0.0
3954,63.0,48.0,40.0,7.0,0.0
3955,42.0,0.0,90.0,5.0,0.0
3956,54.0,36.0,40.0,10.0,0.0
3957,57.0,0.0,40.0,10.0,0.0
3958,74.0,24.0,20.0,7.0,0.0
3959,62.0,0.0,20.0,7.0,0.0
3960,53.0,0.0,40.0,10.0,0.0
3961,56.0,6.0,40.0,10.0,0.0
3962,73.0,0.0,20.0,7.0,0.0
3963,61.0,54.0,20.0,7.0,0.0
3964,54.0,12.0,90.0,5.0,0.0
3965,42.0,0.0,90.0,5.0,0.0
3966,73.0,0.0,40.0,7.0,0.0
3967,61.0,0.0,40.0,7.0,0.0
3968,42.0,48.0,40.0,10.0,0.0
3969,52.0,36.0,40.0,10.0,0.0
3970,55.0,0.0,40.0,10.0,0.0
3971,60.0,24.0,20.0,7.0,0.0
3972,72.0,0.0,20.0,7.0,0.0
3973,54.0,0.0,40.0,10.0,0.0
3974,51.0,6.0,40.0,10.0,0.0
3975,71.0,54.0,20.0,7.0,0.0
3976,59.0,0.0,20.0,7.0,0.0
3977,42.0,12.0,90.0,5.0,0.0
3978,54.0,0.0,90.0,5.0,0.0
3979,42.0,0.0,40.0,10.0,0.0
3980,71.0,0.0,40.0,7.0,0.0
3981,59.0,48.0,40.0,7.0,0.0
3982,53.0,36.0,40.0,10.0,0.0
3983,50.0,0.0,40.0,10.0,0.0
3984,66.0,0.0,40.0,7.0,0.0
3985,64.0,6.0,40.0,7.0,0.0
3986,71.0,0.0,20.0,7.0,0.0
3987,49.0,0.0,40.0,10.0,0.0
3988,52.0,0.0,40.0,10.0,0.0
3989,59.0,24.0,20.0,7.0,0.0
3990,58.0,0.0,20.0,7.0,0.0
3991,70.0,54.0,20.0,7.0,0.0
3992,30.0,48.0,40.0,10.0,0.0
3993,42.0,0.0,660.0,5.0,0.0
3994,54.0,0.0,660.0,5.0,0.0
3995,58.0,0.0,90.0,14.0,0.0
3996,42.0,12.0,90.0,14.0,0.0
3997,49.0,0.0,90.0,14.0,0.0
3998,54.0,0.0,90.0,14.0,0.0
3999,58.0,0.0,90.0,7.0,0.0
4000,66.0,0.0,90.0,7.0,0.0
4001,70.0,0.0,90.0,7.0,0.0
4002,64.0,0.0,90.0,7.0,0.0
4003,30.0,0.0,90.0,14.0,0.0
4004,54.0,60.0,40.0,10.0,0.0
4005,58.0,60.0,40.0,7.0,0.0
4006,49.0,0.0,40.0,10.0,0.0
4007,52.0,0.0,40.0,10.0,0.0
4008,42.0,0.0,40.0,10.0,0.0
4009,66.0,0.0,40.0,7.0,0.0
4010,70.0,0.0,40.0,7.0,0.0
4011,64.0,0.0,40.0,7.0,0.0
4012,30.0,24.0,40.0,10.0,0.0
4013,54.0,0.0,90.0,14.0,0.0
4014,61.0,12.0,90.0,14.0,0.0
4015,42.0,0.0,90.0,14.0,0.0
4016,46.0,0.0,90.0,14.0,0.0
4017,58.0,0.0,60.0,7.0,0.0
4018,66.0,0.0,60.0,7.0,0.0
4019,64.0,24.0,60.0,7.0,0.0
4020,70.0,0.0,60.0,7.0,0.0
4021,30.0,0.0,90.0,14.0,0.0
4022,54.0,6.0,40.0,10.0,0.0
4023,66.0,54.0,20.0,7.0,0.0
4024,71.0,0.0,20.0,7.0,0.0
4025,59.0,0.0,20.0,7.0,0.0
4026,64.0,0.0,20.0,7.0,0.0
4027,64.0,0.0,40.0,7.0,0.0
4028,66.0,0.0,40.0,7.0,0.0
4029,73.0,0.0,40.0,7.0,0.0
4030,61.0,0.0,40.0,7.0,0.0
4031,49.0,0.0,40.0,10.0,0.0
4032,52.0,0.0,40.0,10.0,0.0
4033,42.0,60.0,40.0,10.0,0.0
4034,35.0,0.0,40.0,10.0,0.0
4035,59.0,0.0,90.0,14.0,0.0
4036,35.0,0.0,90.0,14.0,0.0
4037,54.0,0.0,90.0,14.0,0.0
4038,51.0,12.0,90.0,14.0,0.0
4039,47.0,0.0,90.0,14.0,0.0
4040,73.0,0.0,40.0,7.0,0.0
4041,66.0,0.0,40.0,7.0,0.0
4042,64.0,48.0,40.0,7.0,0.0
4043,61.0,0.0,40.0,7.0,0.0
4044,54.0,0.0,40.0,10.0,0.0
4045,66.0,0.0,40.0,7.0,0.0
4046,63.0,60.0,40.0,7.0,0.0
4047,75.0,0.0,40.0,7.0,0.0
4048,59.0,0.0,40.0,7.0,0.0
4049,63.0,60.0,40.0,7.0,0.0
4050,71.0,0.0,40.0,7.0,0.0
4051,66.0,0.0,40.0,7.0,0.0
4052,42.0,0.0,40.0,10.0,0.0
4053,51.0,0.0,40.0,10.0,0.0
4054,47.0,0.0,40.0,10.0,0.0
4055,71.0,12.0,90.0,7.0,0.0
4056,35.0,48.0,40.0,10.0,0.0
4057,66.0,0.0,90.0,7.0,0.0
4058,63.0,0.0,90.0,7.0,0.0
4059,59.0,0.0,90.0,7.0,0.0
4060,58.0,36.0,40.0,10.0,0.0
4061,61.0,0.0,40.0,10.0,0.0
4062,57.0,0.0,40.0,10.0,0.0
4063,60.0,6.0,40.0,10.0,0.0
4064,66.0,24.0,20.0,7.0,0.0
4065,78.0,0.0,20.0,7.0,0.0
4066,77.0,0.0,20.0,7.0,0.0
4067,65.0,54.0,20.0,7.0,0.0
4068,42.0,12.0,90.0,5.0,0.0
4069,77.0,0.0,40.0,7.0,0.0
4070,65.0,0.0,40.0,7.0,0.0
4071,54.0,0.0,90.0,5.0,0.0
4072,42.0,48.0,40.0,10.0,0.0
4073,56.0,36.0,40.0,10.0,0.0
4074,59.0,0.0,40.0,10.0,0.0
4075,55.0,0.0,40.0,10.0,0.0
4076,76.0,0.0,20.0,7.0,0.0
4077,64.0,24.0,20.0,7.0,0.0
4078,58.0,6.0,40.0,10.0,0.0
4079,63.0,0.0,20.0,7.0,0.0
4080,75.0,54.0,20.0,7.0,0.0
4081,63.0,48.0,40.0,7.0,0.0
4082,35.0,0.0,40.0,10.0,0.0
4083,42.0,12.0,90.0,5.0,0.0
4084,54.0,0.0,90.0,5.0,0.0
4085,75.0,0.0,40.0,7.0,0.0
4086,54.0,36.0,40.0,10.0,0.0
4087,57.0,0.0,40.0,10.0,0.0
4088,53.0,0.0,40.0,10.0,0.0
4089,56.0,6.0,40.0,10.0,0.0
4090,74.0,0.0,20.0,7.0,0.0
4091,62.0,24.0,20.0,7.0,0.0
4092,73.0,0.0,20.0,7.0,0.0
4093,61.0,54.0,20.0,7.0,0.0
4094,73.0,48.0,40.0,7.0,0.0
4095,61.0,0.0,40.0,7.0,0.0
4096,35.0,0.0,40.0,10.0,0.0
4097,54.0,0.0,90.0,5.0,0.0
4098,42.0,12.0,90.0,5.0,0.0
4099,55.0,36.0,40.0,10.0,0.0
4100,52.0,0.0,40.0,10.0,0.0
4101,51.0,6.0,40.0,10.0,0.0
4102,54.0,0.0,40.0,10.0,0.0
4103,72.0,0.0,20.0,7.0,0.0
4104,60.0,24.0,20.0,7.0,0.0
4105,59.0,0.0,20.0,7.0,0.0
4106,71.0,54.0,20.0,7.0,0.0
4107,35.0,0.0,60.0,10.0,0.0
4108,59.0,0.0,60.0,7.0,0.0
4109,63.0,112.0,60.0,7.0,0.0
4110,66.0,0.0,60.0,7.0,0.0
4111,54.0,8.0,40.0,5.0,0.0
4112,42.0,0.0,40.0,5.0,0.0
4113,71.0,0.0,60.0,7.0,0.0
4114,54.0,0.0,40.0,11.0,0.0
4115,59.0,0.0,40.0,11.0,0.0
4116,54.0,108.0,40.0,5.0,0.0
4117,42.0,0.0,40.0,5.0,0.0
4118,51.0,0.0,40.0,11.0,0.0
4119,47.0,0.0,40.0,12.0,0.0
4120,58.0,0.0,90.0,11.0,0.0
4121,49.0,0.0,90.0,11.0,0.0
4122,54.0,0.0,90.0,5.0,0.0
4123,42.0,0.0,90.0,5.0,0.0
4124,42.0,0.0,90.0,12.0,0.0
4125,64.0,72.0,90.0,11.0,0.0
4126,54.0,0.0,40.0,5.0,0.0
4127,42.0,0.0,40.0,5.0,0.0
4128,42.0,0.0,40.0,12.0,0.0
4129,58.0,84.0,40.0,11.0,0.0
4130,64.0,0.0,40.0,11.0,0.0
4131,49.0,0.0,40.0,11.0,0.0
4132,49.0,0.0,60.0,11.0,0.0
4133,58.0,0.0,60.0,11.0,0.0
4134,64.0,0.0,60.0,11.0,0.0
4135,42.0,0.0,60.0,12.0,0.0
4136,54.0,42.0,60.0,5.0,0.0
4137,42.0,0.0,60.0,5.0,0.0
4138,54.0,0.0,20.0,5.0,0.0
4139,42.0,0.0,20.0,5.0,0.0
4140,47.0,30.0,40.0,11.0,0.0
4141,42.0,24.0,20.0,12.0,0.0
4142,59.0,0.0,20.0,11.0,0.0
4143,63.0,0.0,20.0,11.0,0.0
4144,42.0,0.0,40.0,5.0,0.0
4145,42.0,60.0,40.0,12.0,0.0
4146,54.0,0.0,40.0,5.0,0.0
4147,61.0,0.0,40.0,11.0,0.0
4148,46.0,30.0,90.0,11.0,0.0
4149,47.0,0.0,90.0,11.0,0.0
4150,54.0,0.0,90.0,5.0,0.0
4151,42.0,0.0,90.0,5.0,0.0
4152,61.0,18.0,40.0,11.0,0.0
4153,35.0,12.0,90.0,12.0,0.0
4154,63.0,60.0,40.0,11.0,0.0
4155,54.0,0.0,40.0,11.0,0.0
4156,54.0,108.0,40.0,5.0,0.0
4157,51.0,0.0,40.0,11.0,0.0
4158,59.0,0.0,40.0,11.0,0.0
4159,42.0,0.0,40.0,5.0,0.0
4160,35.0,0.0,40.0,12.0,0.0
4161,47.0,0.0,40.0,11.0,0.0
4162,47.0,0.0,90.0,11.0,0.0
4163,35.0,48.0,90.0,12.0,0.0
4164,42.0,0.0,90.0,5.0,0.0
4165,51.0,0.0,90.0,11.0,0.0
4166,59.0,0.0,90.0,11.0,0.0
4167,54.0,0.0,90.0,5.0,0.0
4168,71.0,30.0,20.0,10.0,0.0
4169,83.0,0.0,20.0,7.0,0.0
4170,78.0,0.0,20.0,7.0,0.0
4171,75.0,30.0,20.0,10.0,0.0
4172,82.0,0.0,20.0,7.0,0.0
4173,73.0,30.0,20.0,10.0,0.0
4174,76.0,30.0,20.0,10.0,0.0
4175,78.0,0.0,20.0,7.0,0.0
4176,73.0,0.0,20.0,10.0,0.0
4177,82.0,30.0,20.0,7.0,0.0
4178,78.0,30.0,20.0,7.0,0.0
4179,76.0,0.0,20.0,10.0,0.0
4180,73.0,0.0,20.0,10.0,0.0
4181,82.0,30.0,20.0,7.0,0.0
4182,76.0,30.0,20.0,10.0,0.0
4183,78.0,0.0,20.0,7.0,0.0
4184,82.0,0.0,20.0,7.0,0.0
4185,73.0,30.0,20.0,10.0,0.0
4186,78.0,30.0,20.0,7.0,0.0
4187,76.0,0.0,20.0,10.0,0.0
4188,83.0,0.0,20.0,7.0,0.0
4189,71.0,30.0,20.0,10.0,0.0
4190,78.0,30.0,20.0,7.0,0.0
4191,76.0,0.0,20.0,10.0,0.0
4192,85.0,0.0,20.0,7.0,0.0
4193,70.0,24.0,20.0,10.0,0.0
4194,61.0,6.0,40.0,11.0,0.0
4195,78.0,30.0,20.0,7.0,0.0
4196,76.0,0.0,20.0,10.0,0.0
4197,59.0,18.0,90.0,11.0,0.0
4198,71.0,0.0,20.0,10.0,0.0
4199,85.0,30.0,20.0,7.0,0.0
4200,75.0,0.0,20.0,10.0,0.0
4201,78.0,30.0,20.0,7.0,0.0
4202,87.0,0.0,20.0,7.0,0.0
4203,71.0,12.0,20.0,10.0,0.0
4204,75.0,0.0,20.0,10.0,0.0
4205,78.0,30.0,20.0,7.0,0.0
4206,59.0,6.0,40.0,11.0,0.0
4207,71.0,0.0,20.0,10.0,0.0
4208,83.0,24.0,20.0,7.0,0.0
4209,75.0,30.0,20.0,10.0,0.0
4210,78.0,0.0,20.0,7.0,0.0
4211,83.0,0.0,20.0,7.0,0.0
4212,59.0,12.0,60.0,11.0,0.0
4213,71.0,30.0,20.0,10.0,0.0
4214,75.0,18.0,20.0,10.0,0.0
4215,78.0,0.0,20.0,7.0,0.0
4216,83.0,0.0,20.0,7.0,0.0
4217,71.0,30.0,20.0,10.0,0.0
4218,75.0,0.0,20.0,10.0,0.0
4219,78.0,0.0,20.0,7.0,0.0
4220,61.0,30.0,20.0,11.0,0.0
4221,63.0,0.0,40.0,11.0,0.0
4222,47.0,6.0,40.0,12.0,0.0
4223,75.0,24.0,20.0,7.0,0.0
4224,71.0,30.0,20.0,7.0,0.0
4225,64.0,18.0,90.0,11.0,0.0
4226,46.0,0.0,90.0,12.0,0.0
4227,76.0,30.0,20.0,7.0,0.0
4228,73.0,30.0,20.0,7.0,0.0
4229,76.0,12.0,20.0,7.0,0.0
4230,75.0,30.0,20.0,7.0,0.0
4231,46.0,6.0,40.0,12.0,0.0
4232,73.0,24.0,20.0,7.0,0.0
4233,71.0,30.0,20.0,7.0,0.0
4234,70.0,30.0,20.0,7.0,0.0
4235,46.0,12.0,60.0,12.0,0.0
4236,68.0,18.0,20.0,7.0,0.0
4237,66.0,30.0,20.0,7.0,0.0
4238,64.0,0.0,20.0,7.0,0.0
4239,47.0,30.0,20.0,12.0,0.0
4240,63.0,24.0,20.0,7.0,0.0
4241,64.0,0.0,40.0,11.0,0.0
4242,49.0,6.0,40.0,12.0,0.0
4243,61.0,30.0,20.0,7.0,0.0
4244,49.0,6.0,40.0,12.0,0.0
4245,63.0,12.0,90.0,11.0,0.0
4246,66.0,24.0,20.0,7.0,0.0
4247,63.0,30.0,20.0,7.0,0.0
4248,51.0,6.0,40.0,12.0,0.0
4249,66.0,12.0,20.0,7.0,0.0
4250,64.0,30.0,20.0,7.0,0.0
4251,47.0,0.0,40.0,12.0,0.0
4252,63.0,6.0,40.0,11.0,0.0
4253,63.0,24.0,20.0,7.0,0.0
4254,61.0,30.0,20.0,7.0,0.0
4255,63.0,12.0,60.0,11.0,0.0
4256,47.0,18.0,90.0,12.0,0.0
4257,59.0,30.0,20.0,7.0,0.0
4258,58.0,18.0,20.0,7.0,0.0
4259,56.0,12.0,20.0,7.0,0.0
4260,64.0,30.0,20.0,11.0,0.0
4261,54.0,0.0,20.0,7.0,0.0
4262,54.0,18.0,90.0,11.0,0.0
4263,52.0,24.0,20.0,7.0,0.0
4264,66.0,6.0,40.0,11.0,0.0
4265,51.0,30.0,20.0,7.0,0.0
4266,56.0,12.0,20.0,7.0,0.0
4267,68.0,18.0,90.0,11.0,0.0
4268,53.0,0.0,90.0,11.0,0.0
4269,53.0,30.0,20.0,7.0,0.0
4270,56.0,12.0,20.0,7.0,0.0
4271,54.0,30.0,20.0,7.0,0.0
4272,53.0,6.0,40.0,11.0,0.0
4273,53.0,24.0,20.0,7.0,0.0
4274,50.0,30.0,20.0,7.0,0.0
4275,49.0,30.0,20.0,7.0,0.0
4276,53.0,12.0,60.0,11.0,0.0
4277,47.0,18.0,20.0,7.0,0.0
4278,45.0,30.0,20.0,7.0,0.0
4279,44.0,0.0,20.0,7.0,0.0
4280,54.0,30.0,20.0,11.0,0.0
4281,56.0,0.0,40.0,11.0,0.0
4282,42.0,24.0,20.0,7.0,0.0
4283,44.0,6.0,40.0,12.0,0.0
4284,41.0,30.0,20.0,7.0,0.0
4285,56.0,6.0,40.0,11.0,0.0
4286,45.0,24.0,20.0,10.0,0.0
4287,42.0,12.0,90.0,12.0,0.0
4288,42.0,30.0,20.0,10.0,0.0
4289,57.0,6.0,40.0,11.0,0.0
4290,45.0,12.0,20.0,10.0,0.0
4291,44.0,30.0,20.0,10.0,0.0
4292,42.0,24.0,20.0,10.0,0.0
4293,54.0,0.0,40.0,11.0,0.0
4294,42.0,6.0,40.0,12.0,0.0
4295,40.0,30.0,20.0,10.0,0.0
4296,54.0,18.0,90.0,11.0,0.0
4297,38.0,30.0,20.0,10.0,0.0
4298,42.0,12.0,60.0,12.0,0.0
4299,66.0,18.0,20.0,7.0,0.0
4300,37.0,0.0,20.0,10.0,0.0
4301,69.0,12.0,20.0,7.0,0.0
4302,35.0,0.0,20.0,10.0,0.0
4303,73.0,0.0,20.0,7.0,0.0
4304,33.0,30.0,20.0,10.0,0.0
4305,44.0,0.0,20.0,12.0,0.0
4306,61.0,6.0,40.0,11.0,0.0
4307,45.0,0.0,40.0,12.0,0.0
4308,78.0,24.0,20.0,7.0,0.0
4309,32.0,0.0,20.0,10.0,0.0
4310,78.0,0.0,20.0,7.0,0.0
4311,30.0,30.0,20.0,10.0,0.0
4312,60.0,0.0,90.0,11.0,0.0
4313,78.0,30.0,20.0,7.0,0.0
4314,32.0,18.0,90.0,10.0,0.0
4315,44.0,0.0,90.0,12.0,0.0
4316,75.0,30.0,20.0,7.0,0.0
4317,78.0,12.0,20.0,7.0,0.0
4318,76.0,30.0,20.0,7.0,0.0
4319,75.0,24.0,20.0,7.0,0.0
4320,60.0,6.0,40.0,11.0,0.0
4321,73.0,30.0,20.0,7.0,0.0
4322,72.0,30.0,20.0,7.0,0.0
4323,60.0,12.0,60.0,11.0,0.0
4324,69.0,18.0,20.0,7.0,0.0
4325,68.0,30.0,20.0,7.0,0.0
4326,61.0,0.0,20.0,11.0,0.0
4327,66.0,30.0,20.0,7.0,0.0
4328,51.0,6.0,40.0,12.0,0.0
4329,63.0,0.0,40.0,11.0,0.0
4330,64.0,24.0,20.0,7.0,0.0
4331,63.0,30.0,20.0,7.0,0.0
4332,52.0,24.0,20.0,10.0,0.0
4333,61.0,12.0,90.0,7.0,0.0
4334,63.0,6.0,40.0,11.0,0.0
4335,49.0,0.0,90.0,12.0,0.0
4336,49.0,30.0,20.0,10.0,0.0
4337,52.0,12.0,20.0,10.0,0.0
4338,64.0,6.0,40.0,11.0,0.0
4339,51.0,30.0,20.0,10.0,0.0
4340,49.0,24.0,20.0,10.0,0.0
4341,49.0,6.0,40.0,12.0,0.0
4342,61.0,0.0,40.0,11.0,0.0
4343,47.0,30.0,20.0,10.0,0.0
4344,61.0,18.0,90.0,11.0,0.0
4345,49.0,12.0,60.0,12.0,0.0
4346,45.0,30.0,20.0,10.0,0.0
4347,73.0,18.0,20.0,7.0,0.0
4348,44.0,0.0,20.0,10.0,0.0
4349,42.0,12.0,20.0,10.0,0.0
4350,76.0,0.0,20.0,7.0,0.0
4351,51.0,0.0,20.0,12.0,0.0
4352,80.0,0.0,20.0,7.0,0.0
4353,40.0,30.0,20.0,10.0,0.0
4354,39.0,24.0,20.0,10.0,0.0
4355,68.0,0.0,40.0,11.0,0.0
4356,85.0,0.0,20.0,7.0,0.0
4357,52.0,6.0,40.0,12.0,0.0
4358,37.0,0.0,20.0,10.0,0.0
4359,85.0,30.0,20.0,7.0,0.0
4360,67.0,0.0,90.0,11.0,0.0
4361,85.0,30.0,20.0,7.0,0.0
4362,51.0,0.0,90.0,12.0,0.0
4363,39.0,18.0,90.0,10.0,0.0
4364,82.0,30.0,20.0,7.0,0.0
4365,88.0,12.0,20.0,7.0,0.0
4366,87.0,30.0,20.0,7.0,0.0
4367,67.0,6.0,40.0,11.0,0.0
4368,85.0,0.0,20.0,7.0,0.0
4369,73.0,24.0,20.0,10.0,0.0
4370,71.0,30.0,20.0,10.0,0.0
4371,83.0,0.0,20.0,7.0,0.0
4372,67.0,12.0,60.0,11.0,0.0
4373,82.0,30.0,20.0,7.0,0.0
4374,70.0,0.0,20.0,10.0,0.0
4375,80.0,0.0,20.0,7.0,0.0
4376,68.0,18.0,20.0,10.0,0.0
4377,67.0,30.0,20.0,10.0,0.0
4378,79.0,0.0,20.0,7.0,0.0
4379,76.0,30.0,20.0,7.0,0.0
4380,64.0,0.0,20.0,10.0,0.0
4381,68.0,0.0,20.0,11.0,0.0
4382,46.0,6.0,40.0,12.0,0.0
4383,70.0,0.0,40.0,11.0,0.0
4384,63.0,0.0,20.0,10.0,0.0
4385,75.0,24.0,20.0,7.0,0.0
4386,61.0,22.0,20.0,10.0,0.0
4387,73.0,0.0,20.0,7.0,0.0
4388,44.0,12.0,90.0,12.0,0.0
4389,71.0,0.0,15.0,7.0,0.0
4390,59.0,20.0,15.0,10.0,0.0
4391,70.0,8.0,40.0,11.0,0.0
4392,58.0,12.0,15.0,10.0,0.0
4393,70.0,0.0,15.0,7.0,0.0
4394,68.0,0.0,15.0,7.0,0.0
4395,56.0,20.0,15.0,10.0,0.0
4396,71.0,8.0,40.0,11.0,0.0
4397,66.0,20.0,15.0,7.0,0.0
4398,54.0,0.0,15.0,10.0,0.0
4399,64.0,0.0,15.0,7.0,0.0
4400,52.0,0.0,15.0,10.0,0.0
4401,63.0,0.0,15.0,7.0,0.0
4402,51.0,20.0,15.0,10.0,0.0
4403,68.0,8.0,40.0,11.0,0.0
4404,44.0,0.0,40.0,12.0,0.0
4405,61.0,20.0,15.0,7.0,0.0
4406,49.0,0.0,15.0,10.0,0.0
4407,47.0,12.0,15.0,10.0,0.0
4408,59.0,0.0,15.0,7.0,0.0
4409,46.0,0.0,15.0,10.0,0.0
4410,58.0,20.0,15.0,7.0,0.0
4411,68.0,18.0,90.0,11.0,0.0
4412,44.0,0.0,15.0,10.0,0.0
4413,56.0,20.0,15.0,7.0,0.0
4414,44.0,4.0,60.0,12.0,0.0
4415,42.0,20.0,15.0,10.0,0.0
4416,54.0,0.0,15.0,7.0,0.0
4417,40.0,0.0,15.0,10.0,0.0
4418,52.0,16.0,15.0,7.0,0.0
4419,51.0,0.0,15.0,7.0,0.0
4420,39.0,20.0,15.0,10.0,0.0
4421,37.0,0.0,15.0,10.0,0.0
4422,49.0,0.0,15.0,7.0,0.0
4423,46.0,2.0,20.0,12.0,0.0
4424,35.0,28.0,15.0,10.0,0.0
4425,47.0,0.0,15.0,7.0,0.0
4426,68.0,0.0,40.0,11.0,0.0
4427,56.0,0.0,40.0,11.0,0.0
4428,46.0,24.0,20.0,7.0,0.0
4429,44.0,0.0,40.0,12.0,0.0
4430,34.0,0.0,20.0,10.0,0.0
4431,44.0,0.0,20.0,7.0,0.0
4432,32.0,102.0,20.0,10.0,0.0
4433,31.0,0.0,90.0,10.0,0.0
4434,43.0,0.0,90.0,10.0,0.0
4435,55.0,0.0,90.0,11.0,0.0
4436,43.0,72.0,90.0,12.0,0.0
4437,67.0,0.0,90.0,11.0,0.0
4438,43.0,84.0,40.0,12.0,0.0
4439,55.0,0.0,40.0,11.0,0.0
4440,67.0,0.0,40.0,11.0,0.0
4441,67.0,0.0,60.0,11.0,0.0
4442,43.0,42.0,60.0,12.0,0.0
4443,55.0,0.0,60.0,11.0,0.0
4444,68.0,0.0,20.0,11.0,0.0
4445,56.0,0.0,20.0,11.0,0.0
4446,44.0,0.0,20.0,12.0,0.0
4447,70.0,0.0,40.0,11.0,0.0
4448,58.0,0.0,40.0,11.0,0.0
4449,46.0,108.0,40.0,12.0,0.0
4450,59.0,0.0,90.0,11.0,0.0
4451,71.0,0.0,90.0,11.0,0.0
4452,47.0,72.0,90.0,12.0,0.0
4453,68.0,0.0,40.0,11.0,0.0
4454,56.0,0.0,40.0,11.0,0.0
4455,44.0,0.0,40.0,12.0,0.0
4456,68.0,0.0,60.0,11.0,0.0
4457,56.0,0.0,60.0,11.0,0.0
4458,44.0,42.0,60.0,12.0,0.0
4459,46.0,54.0,20.0,12.0,0.0
4460,58.0,0.0,20.0,11.0,0.0
4461,70.0,0.0,20.0,11.0,0.0
4462,47.0,0.0,40.0,12.0,0.0
4463,59.0,0.0,40.0,11.0,0.0
4464,71.0,108.0,40.0,11.0,0.0
4465,73.0,0.0,90.0,11.0,0.0
4466,49.0,0.0,90.0,12.0,0.0
4467,61.0,0.0,90.0,11.0,0.0
4468,46.0,0.0,40.0,12.0,0.0
4469,70.0,0.0,40.0,11.0,0.0
4470,58.0,0.0,40.0,11.0,0.0
4471,70.0,42.0,60.0,11.0,0.0
4472,46.0,0.0,60.0,12.0,0.0
4473,58.0,0.0,60.0,11.0,0.0
4474,47.0,0.0,20.0,12.0,0.0
4475,59.0,0.0,20.0,11.0,0.0
4476,71.0,0.0,20.0,11.0,0.0
4477,73.0,108.0,40.0,11.0,0.0
4478,49.0,0.0,40.0,12.0,0.0
4479,61.0,0.0,40.0,11.0,0.0
4480,75.0,0.0,90.0,11.0,0.0
4481,63.0,0.0,90.0,11.0,0.0
4482,51.0,0.0,90.0,12.0,0.0
4483,80.0,0.0,40.0,0.0,0.0
4484,56.0,84.0,40.0,4.0,0.0
4485,68.0,0.0,40.0,1.0,0.0
4486,68.0,42.0,60.0,1.0,0.0
4487,80.0,0.0,60.0,0.0,0.0
4488,56.0,0.0,60.0,4.0,0.0
4489,82.0,0.0,20.0,0.0,0.0
4490,70.0,0.0,20.0,1.0,0.0
4491,58.0,54.0,20.0,4.0,0.0
4492,84.0,60.0,40.0,0.0,0.0
4493,72.0,0.0,40.0,1.0,0.0
4494,60.0,0.0,40.0,4.0,0.0
4495,61.0,0.0,40.0,4.0,0.0
4496,85.0,120.0,40.0,0.0,0.0
4497,73.0,0.0,40.0,1.0,0.0
4498,82.0,0.0,40.0,0.0,0.0
4499,70.0,84.0,40.0,1.0,0.0
4500,58.0,0.0,40.0,4.0,0.0
4501,70.0,0.0,60.0,1.0,0.0
4502,82.0,0.0,60.0,0.0,0.0
4503,58.0,42.0,60.0,4.0,0.0
4504,72.0,0.0,20.0,1.0,0.0
4505,84.0,0.0,20.0,0.0,0.0
4506,60.0,54.0,20.0,4.0,0.0
4507,85.0,108.0,40.0,0.0,0.0
4508,73.0,0.0,40.0,1.0,0.0
4509,61.0,0.0,40.0,4.0,0.0
4510,75.0,0.0,90.0,1.0,0.0
4511,63.0,0.0,90.0,4.0,0.0
4512,87.0,72.0,90.0,0.0,0.0
4513,56.0,0.0,40.0,10.0,0.0
4514,80.0,84.0,40.0,7.0,0.0
4515,68.0,0.0,40.0,7.0,0.0
4516,68.0,0.0,60.0,7.0,0.0
4517,56.0,0.0,60.0,10.0,0.0
4518,80.0,42.0,60.0,7.0,0.0
4519,70.0,0.0,20.0,7.0,0.0
4520,82.0,0.0,20.0,7.0,0.0
4521,58.0,54.0,20.0,10.0,0.0
4522,84.0,36.0,40.0,7.0,0.0
4523,72.0,0.0,40.0,7.0,0.0
4524,60.0,0.0,40.0,10.0,0.0
4525,55.0,18.0,90.0,11.0,0.0
4526,73.0,0.0,20.0,10.0,0.0
4527,61.0,0.0,90.0,11.0,0.0
4528,58.0,0.0,90.0,11.0,0.0
4529,82.0,0.0,20.0,7.0,0.0
4530,79.0,30.0,20.0,7.0,0.0
4531,72.0,0.0,20.0,10.0,0.0
4532,84.0,30.0,20.0,7.0,0.0
4533,79.0,0.0,20.0,7.0,0.0
4534,70.0,12.0,20.0,10.0,0.0
4535,85.0,0.0,20.0,7.0,0.0
4536,82.0,0.0,20.0,7.0,0.0
4537,73.0,30.0,20.0,10.0,0.0
4538,84.0,0.0,20.0,7.0,0.0
4539,79.0,0.0,20.0,7.0,0.0
4540,72.0,30.0,20.0,10.0,0.0
4541,70.0,0.0,20.0,10.0,0.0
4542,85.0,30.0,20.0,7.0,0.0
4543,73.0,30.0,20.0,10.0,0.0
4544,79.0,0.0,20.0,7.0,0.0
4545,82.0,0.0,20.0,7.0,0.0
4546,72.0,0.0,20.0,10.0,0.0
4547,84.0,30.0,20.0,7.0,0.0
4548,79.0,0.0,20.0,7.0,0.0
4549,70.0,0.0,20.0,10.0,0.0
4550,85.0,30.0,20.0,7.0,0.0
4551,73.0,30.0,20.0,10.0,0.0
4552,82.0,0.0,20.0,7.0,0.0
4553,79.0,30.0,20.0,7.0,0.0
4554,84.0,0.0,20.0,7.0,0.0
4555,72.0,0.0,20.0,10.0,0.0
4556,85.0,0.0,20.0,7.0,0.0
4557,70.0,30.0,20.0,10.0,0.0
4558,82.0,0.0,20.0,7.0,0.0
4559,79.0,0.0,20.0,7.0,0.0
4560,73.0,30.0,20.0,10.0,0.0
4561,84.0,30.0,20.0,7.0,0.0
4562,72.0,0.0,20.0,10.0,0.0
4563,70.0,0.0,20.0,10.0,0.0
4564,85.0,30.0,20.0,7.0,0.0
4565,79.0,0.0,20.0,7.0,0.0
4566,82.0,30.0,20.0,7.0,0.0
4567,73.0,0.0,20.0,10.0,0.0
4568,79.0,0.0,20.0,7.0,0.0
4569,72.0,0.0,20.0,10.0,0.0
4570,84.0,30.0,20.0,7.0,0.0
4571,70.0,30.0,20.0,10.0,0.0
4572,85.0,0.0,20.0,7.0,0.0
4573,82.0,0.0,20.0,7.0,0.0
4574,79.0,0.0,20.0,7.0,0.0
4575,73.0,30.0,20.0,10.0,0.0
4576,72.0,30.0,20.0,10.0,0.0
4577,84.0,0.0,20.0,7.0,0.0
4578,70.0,0.0,20.0,10.0,0.0
4579,85.0,0.0,20.0,7.0,0.0
4580,79.0,30.0,20.0,7.0,0.0
4581,73.0,30.0,20.0,10.0,0.0
4582,82.0,0.0,20.0,7.0,0.0
4583,72.0,30.0,20.0,10.0,0.0
4584,84.0,0.0,20.0,7.0,0.0
4585,79.0,0.0,20.0,7.0,0.0
4586,85.0,0.0,20.0,7.0,0.0
4587,70.0,30.0,20.0,10.0,0.0
4588,73.0,30.0,20.0,10.0,0.0
4589,79.0,0.0,20.0,7.0,0.0
4590,70.0,0.0,20.0,10.0,0.0
4591,82.0,30.0,20.0,7.0,0.0
4592,85.0,0.0,20.0,7.0,0.0
4593,67.0,30.0,20.0,10.0,0.0
4594,73.0,30.0,20.0,7.0,0.0
4595,70.0,0.0,20.0,10.0,0.0
4596,67.0,0.0,20.0,10.0,0.0
4597,79.0,30.0,20.0,7.0,0.0
4598,61.0,30.0,20.0,10.0,0.0
4599,82.0,0.0,20.0,7.0,0.0
4600,67.0,0.0,20.0,10.0,0.0
4601,70.0,30.0,20.0,7.0,0.0
4602,61.0,30.0,20.0,10.0,0.0
4603,73.0,0.0,20.0,7.0,0.0
4604,79.0,0.0,20.0,7.0,0.0
4605,58.0,30.0,20.0,10.0,0.0
4606,67.0,30.0,20.0,7.0,0.0
4607,61.0,0.0,20.0,10.0,0.0
4608,58.0,0.0,20.0,10.0,0.0
4609,70.0,30.0,20.0,7.0,0.0
4610,55.0,0.0,20.0,10.0,0.0
4611,73.0,30.0,20.0,7.0,0.0
4612,58.0,0.0,20.0,10.0,0.0
4613,61.0,30.0,20.0,7.0,0.0
4614,67.0,0.0,20.0,7.0,0.0
4615,55.0,30.0,20.0,10.0,0.0
4616,49.0,30.0,20.0,10.0,0.0
4617,70.0,0.0,20.0,7.0,0.0
4618,55.0,30.0,20.0,10.0,0.0
4619,58.0,0.0,20.0,7.0,0.0
4620,61.0,0.0,20.0,7.0,0.0
4621,49.0,30.0,20.0,10.0,0.0
4622,67.0,30.0,20.0,7.0,0.0
4623,46.0,0.0,20.0,10.0,0.0
4624,49.0,0.0,20.0,10.0,0.0
4625,55.0,30.0,20.0,7.0,0.0
4626,58.0,0.0,20.0,7.0,0.0
4627,46.0,30.0,20.0,10.0,0.0
4628,61.0,0.0,20.0,7.0,0.0
4629,43.0,30.0,20.0,10.0,0.0
4630,46.0,0.0,20.0,10.0,0.0
4631,49.0,30.0,20.0,7.0,0.0
4632,43.0,0.0,20.0,10.0,0.0
4633,55.0,30.0,20.0,7.0,0.0
4634,37.0,0.0,20.0,10.0,0.0
4635,58.0,30.0,20.0,7.0,0.0
4636,49.0,0.0,20.0,7.0,0.0
4637,46.0,30.0,20.0,10.0,0.0
4638,43.0,30.0,20.0,10.0,0.0
4639,55.0,0.0,20.0,7.0,0.0
4640,58.0,30.0,20.0,7.0,0.0
4641,37.0,0.0,20.0,10.0,0.0
4642,55.0,0.0,20.0,7.0,0.0
4643,49.0,30.0,20.0,10.0,0.0
4644,58.0,0.0,20.0,7.0,0.0
4645,46.0,30.0,20.0,10.0,0.0
4646,43.0,0.0,20.0,10.0,0.0
4647,61.0,30.0,20.0,7.0,0.0
4648,49.0,30.0,20.0,10.0,0.0
4649,55.0,0.0,20.0,7.0,0.0
4650,46.0,0.0,20.0,10.0,0.0
4651,58.0,30.0,20.0,7.0,0.0
4652,43.0,30.0,20.0,10.0,0.0
4653,61.0,0.0,20.0,7.0,0.0
4654,55.0,30.0,20.0,10.0,0.0
4655,58.0,0.0,20.0,7.0,0.0
4656,61.0,30.0,20.0,7.0,0.0
4657,49.0,0.0,20.0,10.0,0.0
4658,46.0,0.0,20.0,10.0,0.0
4659,67.0,30.0,20.0,7.0,0.0
4660,55.0,0.0,20.0,10.0,0.0
4661,58.0,30.0,20.0,7.0,0.0
4662,49.0,0.0,20.0,10.0,0.0
4663,61.0,30.0,20.0,7.0,0.0
4664,46.0,0.0,20.0,10.0,0.0
4665,67.0,30.0,20.0,7.0,0.0
4666,58.0,0.0,20.0,10.0,0.0
4667,61.0,30.0,20.0,7.0,0.0
4668,55.0,30.0,20.0,10.0,0.0
4669,67.0,0.0,20.0,7.0,0.0
4670,49.0,30.0,20.0,10.0,0.0
4671,70.0,0.0,20.0,7.0,0.0
4672,61.0,30.0,20.0,7.0,0.0
4673,58.0,0.0,20.0,10.0,0.0
4674,67.0,0.0,20.0,7.0,0.0
4675,55.0,30.0,20.0,10.0,0.0
4676,49.0,30.0,20.0,10.0,0.0
4677,70.0,0.0,20.0,7.0,0.0
4678,61.0,30.0,20.0,10.0,0.0
4679,67.0,0.0,20.0,7.0,0.0
4680,70.0,30.0,20.0,7.0,0.0
4681,58.0,0.0,20.0,10.0,0.0
4682,73.0,0.0,20.0,7.0,0.0
4683,55.0,30.0,20.0,10.0,0.0
4684,67.0,30.0,20.0,7.0,0.0
4685,61.0,0.0,20.0,10.0,0.0
4686,58.0,30.0,20.0,10.0,0.0
4687,70.0,0.0,20.0,7.0,0.0
4688,73.0,30.0,20.0,7.0,0.0
4689,55.0,0.0,20.0,10.0,0.0
4690,67.0,30.0,20.0,10.0,0.0
4691,70.0,0.0,20.0,7.0,0.0
4692,73.0,0.0,20.0,7.0,0.0
4693,61.0,30.0,20.0,10.0,0.0
4694,58.0,0.0,20.0,10.0,0.0
4695,79.0,30.0,20.0,7.0,0.0
4696,70.0,30.0,20.0,7.0,0.0
4697,67.0,0.0,20.0,10.0,0.0
4698,73.0,30.0,20.0,7.0,0.0
4699,61.0,0.0,20.0,10.0,0.0
4700,58.0,0.0,20.0,10.0,0.0
4701,79.0,30.0,20.0,7.0,0.0
4702,70.0,30.0,20.0,10.0,0.0
4703,73.0,0.0,20.0,7.0,0.0
4704,67.0,30.0,20.0,10.0,0.0
4705,79.0,0.0,20.0,7.0,0.0
4706,82.0,0.0,20.0,7.0,0.0
4707,61.0,30.0,20.0,10.0,0.0
4708,73.0,0.0,20.0,7.0,0.0
4709,70.0,30.0,20.0,10.0,0.0
4710,79.0,0.0,20.0,7.0,0.0
4711,67.0,30.0,20.0,10.0,0.0
4712,61.0,30.0,20.0,10.0,0.0
4713,82.0,0.0,20.0,7.0,0.0
4714,73.0,0.0,20.0,10.0,0.0
4715,79.0,30.0,20.0,7.0,0.0
4716,70.0,0.0,20.0,10.0,0.0
4717,82.0,30.0,20.0,7.0,0.0
4718,67.0,0.0,20.0,10.0,0.0
4719,85.0,30.0,20.0,7.0,0.0
4720,79.0,30.0,20.0,7.0,0.0
4721,73.0,0.0,20.0,10.0,0.0
4722,82.0,0.0,20.0,7.0,0.0
4723,70.0,30.0,20.0,10.0,0.0
4724,67.0,0.0,20.0,10.0,0.0
4725,85.0,30.0,20.0,7.0,0.0
4726,82.0,30.0,20.0,7.0,0.0
4727,79.0,0.0,20.0,10.0,0.0
4728,85.0,30.0,20.0,7.0,0.0
4729,73.0,0.0,20.0,10.0,0.0
4730,70.0,30.0,20.0,10.0,0.0
4731,91.0,0.0,20.0,7.0,0.0
4732,85.0,0.0,20.0,7.0,0.0
4733,82.0,30.0,20.0,10.0,0.0
4734,87.0,0.0,20.0,7.0,0.0
4735,79.0,30.0,20.0,10.0,0.0
4736,91.0,0.0,20.0,7.0,0.0
4737,75.0,30.0,20.0,10.0,0.0
4738,94.0,30.0,20.0,7.0,0.0
4739,73.0,0.0,20.0,10.0,0.0
4740,82.0,30.0,20.0,10.0,0.0
4741,85.0,0.0,20.0,7.0,0.0
4742,79.0,30.0,20.0,10.0,0.0
4743,87.0,0.0,20.0,7.0,0.0
4744,75.0,30.0,20.0,10.0,0.0
4745,91.0,0.0,20.0,7.0,0.0
4746,73.0,0.0,20.0,10.0,0.0
4747,94.0,30.0,20.0,7.0,0.0
4748,82.0,30.0,20.0,10.0,0.0
4749,85.0,0.0,20.0,7.0,0.0
4750,87.0,0.0,20.0,7.0,0.0
4751,79.0,30.0,20.0,10.0,0.0
4752,75.0,0.0,20.0,10.0,0.0
4753,91.0,30.0,20.0,7.0,0.0
4754,94.0,0.0,20.0,7.0,0.0
4755,73.0,30.0,20.0,10.0,0.0
4756,85.0,0.0,20.0,7.0,0.0
4757,82.0,30.0,20.0,10.0,0.0
4758,87.0,0.0,20.0,7.0,0.0
4759,79.0,30.0,20.0,10.0,0.0
4760,75.0,30.0,20.0,10.0,0.0
4761,91.0,0.0,20.0,7.0,0.0
4762,94.0,0.0,20.0,7.0,0.0
4763,73.0,30.0,20.0,10.0,0.0
4764,85.0,0.0,20.0,7.0,0.0
4765,82.0,30.0,20.0,10.0,0.0
4766,87.0,0.0,20.0,7.0,0.0
4767,79.0,30.0,20.0,10.0,0.0
4768,91.0,30.0,20.0,7.0,0.0
4769,75.0,0.0,20.0,10.0,0.0
4770,73.0,0.0,20.0,10.0,0.0
4771,94.0,30.0,20.0,7.0,0.0
4772,82.0,0.0,20.0,10.0,0.0
4773,85.0,30.0,20.0,7.0,0.0
4774,79.0,0.0,20.0,10.0,0.0
4775,87.0,30.0,20.0,7.0,0.0
4776,91.0,0.0,20.0,7.0,0.0
4777,75.0,30.0,20.0,10.0,0.0
4778,73.0,0.0,20.0,10.0,0.0
4779,94.0,30.0,20.0,7.0,0.0
4780,85.0,30.0,20.0,7.0,0.0
4781,73.0,0.0,90.0,10.0,0.0
4782,75.0,18.0,90.0,10.0,0.0
4783,79.0,0.0,90.0,10.0,0.0
4784,82.0,0.0,90.0,10.0,0.0
4785,87.0,30.0,20.0,7.0,0.0
4786,91.0,12.0,20.0,7.0,0.0
4787,94.0,30.0,20.0,7.0,0.0
4788,85.0,30.0,20.0,7.0,0.0
4789,87.0,30.0,20.0,7.0,0.0
4790,91.0,30.0,20.0,7.0,0.0
4791,94.0,30.0,20.0,7.0,0.0
4792,85.0,30.0,20.0,7.0,0.0
4793,87.0,30.0,20.0,7.0,0.0
4794,91.0,30.0,20.0,7.0,0.0
4795,94.0,30.0,20.0,7.0,0.0
4796,85.0,30.0,20.0,7.0,0.0
4797,87.0,30.0,20.0,7.0,0.0
4798,91.0,30.0,20.0,7.0,0.0
4799,94.0,22.0,20.0,7.0,0.0
4800,85.0,20.0,15.0,7.0,0.0
4801,87.0,20.0,15.0,7.0,0.0
4802,91.0,16.0,15.0,7.0,0.0
4803,85.0,15.0,15.0,7.0,0.0
4804,87.0,15.0,15.0,7.0,0.0
4805,91.0,51.0,15.0,7.0,0.0
4806,94.0,75.0,40.0,7.0,0.0
4807,63.0,45.0,40.0,14.0,0.0
4808,51.0,0.0,40.0,14.0,0.0
4809,44.0,0.0,90.0,14.0,0.0
4810,51.0,0.0,90.0,14.0,0.0
4811,56.0,0.0,90.0,14.0,0.0
4812,60.0,0.0,90.0,14.0,0.0
4813,63.0,12.0,90.0,14.0,0.0
4814,72.0,0.0,40.0,7.0,0.0
4815,68.0,0.0,40.0,7.0,0.0
4816,75.0,15.0,30.0,7.0,0.0
4817,32.0,48.0,40.0,10.0,0.0
4818,68.0,0.0,40.0,7.0,0.0
4819,80.0,0.0,40.0,7.0,0.0
4820,56.0,60.0,40.0,10.0,0.0
4821,72.0,0.0,40.0,7.0,0.0
4822,72.0,0.0,40.0,7.0,0.0
4823,75.0,60.0,40.0,7.0,0.0
4824,51.0,0.0,40.0,10.0,0.0
4825,48.0,0.0,40.0,10.0,0.0
4826,80.0,0.0,40.0,7.0,0.0
4827,32.0,0.0,40.0,10.0,0.0
4828,72.0,0.0,40.0,7.0,0.0
4829,75.0,60.0,40.0,7.0,0.0
4830,84.0,0.0,40.0,7.0,0.0
4831,56.0,36.0,40.0,10.0,0.0
4832,51.0,0.0,40.0,10.0,0.0
4833,48.0,0.0,40.0,10.0,0.0
4834,84.0,24.0,20.0,7.0,0.0
4835,75.0,6.0,40.0,7.0,0.0
4836,60.0,0.0,40.0,14.0,0.0
4837,63.0,0.0,40.0,14.0,0.0
4838,56.0,0.0,40.0,14.0,0.0
4839,51.0,0.0,40.0,14.0,0.0
4840,44.0,0.0,40.0,14.0,0.0
4841,87.0,30.0,20.0,7.0,0.0
4842,84.0,0.0,40.0,7.0,0.0
4843,87.0,24.0,20.0,7.0,0.0
4844,44.0,0.0,90.0,14.0,0.0
4845,80.0,6.0,40.0,7.0,0.0
4846,51.0,0.0,90.0,14.0,0.0
4847,63.0,12.0,90.0,14.0,0.0
4848,60.0,0.0,90.0,14.0,0.0
4849,56.0,0.0,90.0,14.0,0.0
4850,32.0,0.0,40.0,10.0,0.0
4851,92.0,42.0,20.0,7.0,0.0
4852,80.0,0.0,270.0,7.0,0.0
4853,84.0,24.0,270.0,7.0,0.0
4854,87.0,0.0,270.0,7.0,0.0
4855,92.0,0.0,270.0,7.0,0.0
4856,56.0,60.0,40.0,10.0,0.0
4857,48.0,0.0,40.0,10.0,0.0
4858,51.0,60.0,40.0,10.0,0.0
4859,32.0,60.0,40.0,10.0,0.0
4860,56.0,36.0,40.0,10.0,0.0
4861,51.0,0.0,40.0,10.0,0.0
4862,48.0,36.0,40.0,10.0,0.0
4863,60.0,0.0,40.0,14.0,0.0
4864,51.0,0.0,40.0,14.0,0.0
4865,44.0,0.0,40.0,14.0,0.0
4866,56.0,0.0,40.0,14.0,0.0
4867,63.0,0.0,40.0,14.0,0.0
4868,51.0,12.0,90.0,14.0,0.0
4869,32.0,0.0,40.0,10.0,0.0
4870,84.0,24.0,20.0,7.0,0.0
4871,75.0,0.0,40.0,7.0,0.0
4872,80.0,6.0,40.0,7.0,0.0
4873,44.0,0.0,90.0,14.0,0.0
4874,63.0,0.0,90.0,14.0,0.0
4875,60.0,0.0,90.0,14.0,0.0
4876,56.0,0.0,90.0,14.0,0.0
4877,87.0,42.0,20.0,7.0,0.0
4878,87.0,24.0,270.0,7.0,0.0
4879,75.0,0.0,270.0,7.0,0.0
4880,56.0,60.0,40.0,10.0,0.0
4881,80.0,0.0,270.0,7.0,0.0
4882,48.0,60.0,40.0,10.0,0.0
4883,51.0,0.0,40.0,10.0,0.0
4884,32.0,60.0,40.0,10.0,0.0
4885,56.0,36.0,40.0,10.0,0.0
4886,51.0,0.0,40.0,10.0,0.0
4887,48.0,0.0,40.0,10.0,0.0
4888,44.0,36.0,40.0,14.0,0.0
4889,60.0,0.0,40.0,14.0,0.0
4890,56.0,0.0,40.0,14.0,0.0
4891,63.0,0.0,40.0,14.0,0.0
4892,51.0,0.0,40.0,14.0,0.0
4893,80.0,24.0,20.0,7.0,0.0
4894,63.0,0.0,90.0,14.0,0.0
4895,60.0,0.0,90.0,14.0,0.0
4896,72.0,0.0,40.0,7.0,0.0
4897,56.0,12.0,90.0,14.0,0.0
4898,75.0,6.0,40.0,7.0,0.0
4899,51.0,0.0,90.0,14.0,0.0
4900,44.0,0.0,90.0,14.0,0.0
4901,32.0,0.0,40.0,10.0,0.0
4902,84.0,42.0,20.0,7.0,0.0
4903,84.0,0.0,270.0,7.0,0.0
4904,72.0,0.0,270.0,7.0,0.0
4905,56.0,60.0,40.0,10.0,0.0
4906,75.0,24.0,270.0,7.0,0.0
4907,51.0,60.0,40.0,10.0,0.0
4908,48.0,0.0,40.0,10.0,0.0
4909,32.0,60.0,40.0,10.0,0.0
4910,56.0,36.0,40.0,10.0,0.0
4911,51.0,0.0,40.0,10.0,0.0
4912,48.0,0.0,40.0,10.0,0.0
4913,56.0,0.0,40.0,14.0,0.0
4914,60.0,0.0,40.0,14.0,0.0
4915,63.0,0.0,40.0,14.0,0.0
4916,44.0,36.0,40.0,14.0,0.0
4917,51.0,0.0,40.0,14.0,0.0
4918,77.0,24.0,20.0,7.0,0.0
4919,37.0,6.0,40.0,10.0,0.0
4920,58.0,0.0,90.0,14.0,0.0
4921,65.0,0.0,90.0,14.0,0.0
4922,53.0,12.0,90.0,14.0,0.0
4923,49.0,0.0,90.0,14.0,0.0
4924,56.0,0.0,90.0,14.0,0.0
4925,92.0,42.0,20.0,7.0,0.0
4926,92.0,12.0,90.0,7.0,0.0
4927,53.0,48.0,40.0,10.0,0.0
4928,46.0,0.0,40.0,10.0,0.0
4929,49.0,36.0,40.0,10.0,0.0
4930,53.0,12.0,90.0,14.0,0.0
4931,73.0,24.0,20.0,7.0,0.0
4932,49.0,0.0,90.0,14.0,0.0
4933,65.0,0.0,90.0,14.0,0.0
4934,37.0,6.0,40.0,10.0,0.0
4935,56.0,0.0,90.0,14.0,0.0
4936,58.0,0.0,90.0,14.0,0.0
4937,89.0,42.0,20.0,7.0,0.0
4938,89.0,12.0,90.0,7.0,0.0
4939,53.0,48.0,40.0,10.0,0.0
4940,49.0,0.0,40.0,10.0,0.0
4941,46.0,36.0,40.0,10.0,0.0
4942,49.0,12.0,90.0,14.0,0.0
4943,58.0,0.0,90.0,14.0,0.0
4944,65.0,0.0,90.0,14.0,0.0
4945,53.0,0.0,90.0,14.0,0.0
4946,56.0,0.0,90.0,14.0,0.0
4947,70.0,24.0,20.0,7.0,0.0
4948,37.0,6.0,40.0,10.0,0.0
4949,85.0,42.0,20.0,7.0,0.0
4950,85.0,12.0,90.0,7.0,0.0
4951,53.0,48.0,40.0,10.0,0.0
4952,49.0,36.0,40.0,10.0,0.0
4953,46.0,0.0,40.0,10.0,0.0
4954,65.0,24.0,20.0,7.0,0.0
4955,56.0,0.0,90.0,14.0,0.0
4956,37.0,6.0,40.0,10.0,0.0
4957,53.0,12.0,90.0,14.0,0.0
4958,49.0,0.0,90.0,14.0,0.0
4959,65.0,0.0,90.0,14.0,0.0
4960,58.0,0.0,90.0,14.0,0.0
4961,82.0,42.0,20.0,7.0,0.0
4962,82.0,12.0,90.0,7.0,0.0
4963,53.0,48.0,40.0,10.0,0.0
4964,46.0,36.0,40.0,10.0,0.0
4965,49.0,0.0,40.0,10.0,0.0
4966,51.0,0.0,90.0,14.0,0.0
4967,39.0,6.0,40.0,10.0,0.0
4968,63.0,0.0,90.0,14.0,0.0
4969,60.0,0.0,90.0,14.0,0.0
4970,56.0,12.0,90.0,14.0,0.0
4971,63.0,24.0,20.0,7.0,0.0
4972,72.0,30.0,20.0,7.0,0.0
4973,68.0,12.0,20.0,7.0,0.0
4974,56.0,6.0,40.0,10.0,0.0
4975,75.0,30.0,20.0,7.0,0.0
4976,72.0,24.0,20.0,7.0,0.0
4977,48.0,0.0,40.0,10.0,0.0
4978,51.0,6.0,40.0,10.0,0.0
4979,80.0,22.0,20.0,7.0,0.0
4980,56.0,0.0,90.0,14.0,0.0
4981,75.0,20.0,15.0,7.0,0.0
4982,63.0,12.0,90.0,14.0,0.0
4983,60.0,0.0,90.0,14.0,0.0
4984,51.0,0.0,90.0,14.0,0.0
4985,39.0,8.0,40.0,10.0,0.0
4986,84.0,12.0,15.0,7.0,0.0
4987,80.0,20.0,15.0,7.0,0.0
4988,56.0,8.0,40.0,10.0,0.0
4989,87.0,20.0,15.0,7.0,0.0
4990,84.0,0.0,15.0,7.0,0.0
4991,92.0,20.0,15.0,7.0,0.0
4992,48.0,0.0,40.0,10.0,0.0
4993,51.0,8.0,40.0,10.0,0.0
4994,87.0,20.0,15.0,7.0,0.0
4995,84.0,12.0,15.0,7.0,0.0
4996,80.0,52.0,15.0,7.0,0.0
4997,63.0,12.0,90.0,14.0,0.0
4998,51.0,0.0,90.0,14.0,0.0
4999,75.0,0.0,90.0,7.0,0.0
5000,58.0,0.0,90.0,14.0,0.0
5001,39.0,48.0,40.0,10.0,0.0
5002,55.0,0.0,90.0,14.0,0.0
5003,55.0,60.0,40.0,10.0,0.0
5004,46.0,24.0,40.0,10.0,0.0
5005,51.0,0.0,40.0,10.0,0.0
5006,63.0,6.0,90.0,14.0,0.0
5007,58.0,0.0,90.0,14.0,0.0
5008,82.0,15.0,15.0,7.0,0.0
5009,51.0,0.0,90.0,14.0,0.0
5010,55.0,0.0,90.0,14.0,0.0
5011,39.0,9.0,40.0,10.0,0.0
5012,84.0,15.0,15.0,7.0,0.0
5013,82.0,6.0,15.0,7.0,0.0
5014,84.0,15.0,15.0,7.0,0.0
5015,82.0,15.0,15.0,7.0,0.0
5016,55.0,9.0,40.0,10.0,0.0
5017,84.0,9.0,15.0,7.0,0.0
5018,82.0,6.0,15.0,7.0,0.0
5019,84.0,15.0,15.0,7.0,0.0
5020,82.0,15.0,15.0,7.0,0.0
5021,51.0,0.0,40.0,10.0,0.0
5022,46.0,9.0,40.0,10.0,0.0
5023,84.0,15.0,15.0,7.0,0.0
5024,80.0,6.0,15.0,7.0,0.0
5025,82.0,27.0,15.0,7.0,0.0
5026,32.0,24.0,20.0,10.0,0.0
5027,84.0,6.0,40.0,7.0,0.0
5028,80.0,0.0,40.0,7.0,0.0
5029,34.0,30.0,20.0,10.0,0.0
5030,84.0,6.0,40.0,7.0,0.0
5031,80.0,0.0,40.0,7.0,0.0
5032,36.0,24.0,20.0,10.0,0.0
5033,37.0,30.0,20.0,10.0,0.0
5034,80.0,6.0,40.0,7.0,0.0
5035,39.0,24.0,20.0,10.0,0.0
5036,84.0,0.0,40.0,7.0,0.0
5037,41.0,30.0,20.0,10.0,0.0
5038,44.0,0.0,20.0,11.0,0.0
5039,43.0,24.0,20.0,10.0,0.0
5040,84.0,0.0,40.0,7.0,0.0
5041,80.0,6.0,40.0,7.0,0.0
5042,44.0,30.0,20.0,10.0,0.0
5043,56.0,0.0,20.0,11.0,0.0
5044,56.0,12.0,90.0,11.0,0.0
5045,84.0,6.0,40.0,7.0,0.0
5046,80.0,0.0,40.0,7.0,0.0
5047,46.0,24.0,20.0,10.0,0.0
5048,48.0,30.0,20.0,10.0,0.0
5049,49.0,12.0,20.0,10.0,0.0
5050,84.0,6.0,40.0,7.0,0.0
5051,80.0,0.0,40.0,7.0,0.0
5052,51.0,30.0,20.0,10.0,0.0
5053,53.0,24.0,20.0,10.0,0.0
5054,80.0,0.0,40.0,7.0,0.0
5055,84.0,6.0,40.0,7.0,0.0
5056,55.0,30.0,20.0,10.0,0.0
5057,80.0,6.0,40.0,7.0,0.0
5058,84.0,0.0,40.0,7.0,0.0
5059,56.0,24.0,20.0,10.0,0.0
5060,58.0,30.0,20.0,10.0,0.0
5061,60.0,24.0,20.0,10.0,0.0
5062,84.0,0.0,40.0,7.0,0.0
5063,80.0,6.0,40.0,7.0,0.0
5064,61.0,30.0,20.0,10.0,0.0
5065,56.0,24.0,20.0,11.0,0.0
5066,80.0,6.0,40.0,7.0,0.0
5067,63.0,0.0,20.0,10.0,0.0
5068,84.0,0.0,40.0,7.0,0.0
5069,65.0,0.0,20.0,10.0,0.0
5070,68.0,30.0,20.0,11.0,0.0
5071,84.0,6.0,40.0,7.0,0.0
5072,68.0,12.0,90.0,11.0,0.0
5073,80.0,0.0,40.0,7.0,0.0
5074,67.0,24.0,20.0,10.0,0.0
5075,68.0,30.0,20.0,10.0,0.0
5076,80.0,6.0,40.0,7.0,0.0
5077,70.0,12.0,20.0,10.0,0.0
5078,84.0,0.0,40.0,7.0,0.0
5079,72.0,30.0,20.0,10.0,0.0
5080,87.0,30.0,20.0,7.0,0.0
5081,73.0,0.0,20.0,10.0,0.0
5082,85.0,30.0,20.0,7.0,0.0
5083,75.0,18.0,90.0,10.0,0.0
5084,84.0,30.0,20.0,7.0,0.0
5085,82.0,12.0,20.0,7.0,0.0
5086,80.0,30.0,20.0,7.0,0.0
5087,79.0,30.0,20.0,7.0,0.0
5088,77.0,30.0,20.0,7.0,0.0
5089,51.0,0.0,20.0,11.0,0.0
5090,75.0,0.0,20.0,7.0,0.0
5091,51.0,6.0,40.0,10.0,0.0
5092,63.0,24.0,20.0,11.0,0.0
5093,73.0,30.0,20.0,7.0,0.0
5094,63.0,18.0,90.0,11.0,0.0
5095,56.0,0.0,40.0,10.0,0.0
5096,72.0,24.0,20.0,7.0,0.0
5097,60.0,6.0,40.0,10.0,0.0
5098,70.0,12.0,20.0,7.0,0.0
5099,60.0,0.0,40.0,10.0,0.0
5100,56.0,6.0,40.0,10.0,0.0
5101,68.0,24.0,20.0,7.0,0.0
5102,39.0,6.0,40.0,10.0,0.0
5103,67.0,24.0,20.0,7.0,0.0
5104,65.0,30.0,20.0,7.0,0.0
5105,63.0,24.0,20.0,7.0,0.0
5106,48.0,6.0,40.0,10.0,0.0
5107,44.0,0.0,40.0,10.0,0.0
5108,61.0,30.0,20.0,7.0,0.0
5109,48.0,0.0,40.0,10.0,0.0
5110,44.0,6.0,40.0,10.0,0.0
5111,60.0,24.0,20.0,7.0,0.0
5112,58.0,22.0,20.0,7.0,0.0
5113,56.0,8.0,15.0,7.0,0.0
5114,39.0,6.0,40.0,10.0,0.0
5115,39.0,12.0,20.0,12.0,0.0
5116,55.0,12.0,15.0,7.0,0.0
5117,51.0,2.0,20.0,12.0,0.0
5118,53.0,20.0,15.0,7.0,0.0
5119,51.0,12.0,90.0,12.0,0.0
5120,46.0,8.0,40.0,10.0,0.0
5121,51.0,20.0,15.0,7.0,0.0
5122,43.0,0.0,40.0,10.0,0.0
5123,50.0,12.0,15.0,7.0,0.0
5124,51.0,32.0,15.0,7.0,0.0
5125,46.0,0.0,40.0,10.0,0.0
5126,43.0,10.0,40.0,10.0,0.0
5127,53.0,8.0,30.0,7.0,0.0
5128,54.0,26.0,30.0,7.0,0.0
5129,56.0,6.0,40.0,7.0,0.0
5130,32.0,24.0,20.0,10.0,0.0
5131,34.0,30.0,20.0,10.0,0.0
5132,68.0,6.0,40.0,7.0,0.0
5133,36.0,24.0,20.0,10.0,0.0
5134,72.0,0.0,40.0,7.0,0.0
5135,37.0,30.0,20.0,10.0,0.0
5136,39.0,24.0,20.0,10.0,0.0
5137,72.0,0.0,40.0,7.0,0.0
5138,68.0,6.0,40.0,7.0,0.0
5139,41.0,30.0,20.0,10.0,0.0
5140,43.0,0.0,20.0,10.0,0.0
5141,44.0,24.0,20.0,11.0,0.0
5142,68.0,0.0,40.0,7.0,0.0
5143,72.0,6.0,40.0,7.0,0.0
5144,44.0,0.0,20.0,10.0,0.0
5145,56.0,30.0,20.0,11.0,0.0
5146,80.0,0.0,40.0,7.0,0.0
5147,84.0,6.0,40.0,7.0,0.0
5148,56.0,12.0,90.0,11.0,0.0
5149,46.0,24.0,20.0,10.0,0.0
5150,48.0,30.0,20.0,10.0,0.0
5151,84.0,6.0,40.0,7.0,0.0
5152,49.0,12.0,20.0,10.0,0.0
5153,80.0,0.0,40.0,7.0,0.0
5154,51.0,22.0,20.0,10.0,0.0
5155,80.0,0.0,40.0,7.0,0.0
5156,84.0,8.0,40.0,7.0,0.0
5157,53.0,20.0,15.0,10.0,0.0
5158,55.0,12.0,15.0,10.0,0.0
5159,56.0,20.0,15.0,10.0,0.0
5160,58.0,20.0,15.0,10.0,0.0
5161,80.0,0.0,40.0,7.0,0.0
5162,84.0,8.0,40.0,7.0,0.0
5163,60.0,12.0,15.0,10.0,0.0
5164,61.0,20.0,15.0,10.0,0.0
5165,80.0,8.0,40.0,7.0,0.0
5166,84.0,0.0,40.0,7.0,0.0
5167,63.0,20.0,15.0,10.0,0.0
5168,65.0,12.0,15.0,10.0,0.0
5169,67.0,20.0,15.0,10.0,0.0
5170,68.0,8.0,15.0,10.0,0.0
5171,80.0,6.0,40.0,7.0,0.0
5172,84.0,0.0,40.0,7.0,0.0
5173,56.0,12.0,20.0,11.0,0.0
5174,70.0,12.0,15.0,10.0,0.0
5175,68.0,2.0,20.0,11.0,0.0
5176,72.0,28.0,15.0,10.0,0.0
5177,84.0,6.0,40.0,7.0,0.0
5178,80.0,0.0,40.0,7.0,0.0
5179,68.0,12.0,90.0,11.0,0.0
5180,73.0,24.0,20.0,10.0,0.0
5181,75.0,30.0,20.0,10.0,0.0
5182,84.0,6.0,40.0,7.0,0.0
5183,80.0,0.0,40.0,7.0,0.0
5184,77.0,12.0,20.0,10.0,0.0
5185,79.0,30.0,20.0,10.0,0.0
5186,80.0,20.0,90.0,10.0,0.0
5187,92.0,30.0,20.0,7.0,0.0
5188,91.0,22.0,20.0,7.0,0.0
5189,89.0,20.0,15.0,7.0,0.0
5190,87.0,0.0,15.0,7.0,0.0
5191,85.0,20.0,15.0,7.0,0.0
5192,84.0,20.0,15.0,7.0,0.0
5193,82.0,20.0,15.0,7.0,0.0
5194,80.0,20.0,15.0,7.0,0.0
5195,79.0,8.0,15.0,7.0,0.0
5196,51.0,6.0,40.0,10.0,0.0
5197,51.0,12.0,20.0,11.0,0.0
5198,77.0,12.0,15.0,7.0,0.0
5199,63.0,2.0,20.0,11.0,0.0
5200,75.0,28.0,15.0,7.0,0.0
5201,73.0,24.0,20.0,7.0,0.0
5202,60.0,6.0,40.0,10.0,0.0
5203,63.0,12.0,90.0,11.0,0.0
5204,56.0,0.0,40.0,10.0,0.0
5205,72.0,30.0,20.0,7.0,0.0
5206,56.0,6.0,40.0,10.0,0.0
5207,60.0,0.0,40.0,10.0,0.0
5208,70.0,12.0,20.0,7.0,0.0
5209,68.0,30.0,20.0,7.0,0.0
5210,39.0,6.0,40.0,10.0,0.0
5211,67.0,24.0,20.0,7.0,0.0
5212,65.0,30.0,20.0,7.0,0.0
5213,48.0,0.0,40.0,10.0,0.0
5214,44.0,6.0,40.0,10.0,0.0
5215,63.0,24.0,20.0,7.0,0.0
5216,61.0,30.0,20.0,7.0,0.0
5217,44.0,6.0,40.0,10.0,0.0
5218,48.0,0.0,40.0,10.0,0.0
5219,60.0,24.0,20.0,7.0,0.0
5220,58.0,22.0,20.0,7.0,0.0
5221,39.0,12.0,20.0,12.0,0.0
5222,56.0,8.0,15.0,7.0,0.0
5223,39.0,6.0,40.0,10.0,0.0
5224,55.0,12.0,15.0,7.0,0.0
5225,51.0,2.0,20.0,12.0,0.0
5226,53.0,20.0,15.0,7.0,0.0
5227,46.0,0.0,40.0,10.0,0.0
5228,49.0,8.0,40.0,10.0,0.0
5229,51.0,20.0,15.0,7.0,0.0
5230,51.0,12.0,90.0,12.0,0.0
5231,50.0,12.0,15.0,7.0,0.0
5232,51.0,28.0,15.0,7.0,0.0
5233,53.0,12.0,20.0,7.0,0.0
5234,49.0,0.0,40.0,10.0,0.0
5235,46.0,6.0,40.0,10.0,0.0
5236,55.0,78.0,20.0,7.0,0.0
5237,44.0,0.0,90.0,13.0,0.0
5238,56.0,0.0,60.0,11.0,0.0
5239,68.0,0.0,90.0,11.0,0.0
5240,60.0,0.0,90.0,11.0,0.0
5241,56.0,0.0,90.0,7.0,0.0
5242,51.0,0.0,90.0,11.0,0.0
5243,44.0,0.0,90.0,4.0,0.0
5244,44.0,0.0,90.0,12.0,0.0
5245,72.0,18.0,90.0,0.0,0.0
5246,80.0,0.0,90.0,0.0,0.0
5247,56.0,0.0,90.0,3.0,0.0
5248,72.0,0.0,90.0,1.0,0.0
5249,72.0,0.0,90.0,11.0,0.0
5250,63.0,0.0,90.0,11.0,0.0
5251,80.0,0.0,90.0,11.0,0.0
5252,68.0,0.0,90.0,3.0,0.0
5253,48.0,0.0,90.0,10.0,0.0
5254,44.0,0.0,90.0,10.0,0.0
5255,68.0,0.0,90.0,1.0,0.0
5256,44.0,24.0,60.0,11.0,0.0
5257,44.0,54.0,20.0,11.0,0.0
5258,56.0,0.0,20.0,11.0,0.0
5259,44.0,60.0,40.0,11.0,0.0
5260,56.0,0.0,40.0,11.0,0.0
5261,44.0,0.0,40.0,11.0,0.0
5262,56.0,60.0,40.0,11.0,0.0
5263,56.0,0.0,40.0,11.0,0.0
5264,44.0,60.0,40.0,11.0,0.0
5265,44.0,66.0,40.0,11.0,0.0
5266,56.0,0.0,40.0,11.0,0.0
5267,68.0,0.0,300.0,3.0,0.0
5268,44.0,0.0,300.0,11.0,0.0
5269,80.0,0.0,150.0,11.0,0.0
5270,68.0,0.0,150.0,1.0,0.0
5271,80.0,0.0,150.0,0.0,0.0
5272,53.0,30.0,150.0,12.0,0.0
5273,56.0,0.0,300.0,3.0,0.0
5274,56.0,0.0,150.0,4.0,0.0
5275,53.0,0.0,150.0,13.0,0.0
5276,80.0,0.0,150.0,1.0,0.0
5277,53.0,0.0,150.0,4.0,0.0
5278,56.0,30.0,20.0,11.0,0.0
5279,58.0,30.0,20.0,11.0,0.0
5280,60.0,30.0,20.0,11.0,0.0
5281,61.0,0.0,20.0,11.0,0.0
5282,63.0,30.0,20.0,11.0,0.0
5283,49.0,0.0,150.0,13.0,0.0
5284,53.0,0.0,150.0,4.0,0.0
5285,49.0,0.0,150.0,4.0,0.0
5286,92.0,0.0,150.0,0.0,0.0
5287,77.0,0.0,150.0,1.0,0.0
5288,65.0,30.0,20.0,11.0,0.0
5289,49.0,30.0,150.0,12.0,0.0
5290,77.0,0.0,20.0,11.0,0.0
5291,64.0,0.0,20.0,11.0,0.0
5292,76.0,30.0,20.0,11.0,0.0
5293,77.0,0.0,20.0,11.0,0.0
5294,65.0,24.0,20.0,11.0,0.0
5295,79.0,0.0,20.0,11.0,0.0
5296,67.0,30.0,20.0,11.0,0.0
5297,80.0,0.0,20.0,11.0,0.0
5298,68.0,0.0,20.0,11.0,0.0
5299,65.0,0.0,20.0,11.0,0.0
5300,77.0,78.0,20.0,11.0,0.0
5301,75.0,0.0,90.0,11.0,0.0
5302,63.0,0.0,60.0,3.0,0.0
5303,75.0,0.0,60.0,3.0,0.0
5304,48.0,0.0,90.0,13.0,0.0
5305,63.0,0.0,90.0,11.0,0.0
5306,48.0,0.0,90.0,12.0,0.0
5307,75.0,0.0,90.0,1.0,0.0
5308,80.0,18.0,90.0,0.0,0.0
5309,51.0,0.0,90.0,11.0,0.0
5310,87.0,0.0,90.0,0.0,0.0
5311,63.0,0.0,60.0,4.0,0.0
5312,51.0,24.0,60.0,4.0,0.0
5313,63.0,0.0,20.0,4.0,0.0
5314,51.0,0.0,20.0,4.0,0.0
5315,75.0,54.0,20.0,3.0,0.0
5316,63.0,0.0,20.0,3.0,0.0
5317,51.0,60.0,40.0,4.0,0.0
5318,63.0,0.0,40.0,4.0,0.0
5319,75.0,0.0,40.0,3.0,0.0
5320,63.0,0.0,40.0,3.0,0.0
5321,63.0,0.0,40.0,4.0,0.0
5322,51.0,0.0,40.0,4.0,0.0
5323,63.0,0.0,40.0,3.0,0.0
5324,75.0,60.0,40.0,3.0,0.0
5325,63.0,60.0,40.0,4.0,0.0
5326,63.0,0.0,40.0,3.0,0.0
5327,75.0,0.0,40.0,3.0,0.0
5328,51.0,0.0,40.0,4.0,0.0
5329,51.0,0.0,40.0,4.0,0.0
5330,75.0,0.0,40.0,3.0,0.0
5331,63.0,36.0,40.0,3.0,0.0
5332,63.0,0.0,40.0,4.0,0.0
5333,79.0,0.0,150.0,0.0,0.0
5334,85.0,30.0,150.0,0.0,0.0
5335,67.0,0.0,150.0,1.0,0.0
5336,51.0,0.0,300.0,4.0,0.0
5337,73.0,0.0,150.0,1.0,0.0
5338,73.0,0.0,150.0,11.0,0.0
5339,46.0,30.0,20.0,11.0,0.0
5340,51.0,0.0,150.0,12.0,0.0
5341,51.0,0.0,150.0,13.0,0.0
5342,63.0,0.0,300.0,4.0,0.0
5343,63.0,0.0,300.0,3.0,0.0
5344,75.0,6.0,300.0,3.0,0.0
5345,45.0,30.0,20.0,11.0,0.0
5346,51.0,30.0,20.0,11.0,0.0
5347,46.0,0.0,20.0,11.0,0.0
5348,45.0,30.0,20.0,11.0,0.0
5349,53.0,0.0,20.0,11.0,0.0
5350,46.0,0.0,20.0,11.0,0.0
5351,55.0,0.0,20.0,11.0,0.0
5352,56.0,30.0,20.0,11.0,0.0
5353,48.0,0.0,20.0,11.0,0.0
5354,79.0,0.0,150.0,0.0,0.0
5355,39.0,0.0,150.0,13.0,0.0
5356,70.0,0.0,20.0,11.0,0.0
5357,39.0,0.0,150.0,12.0,0.0
5358,58.0,0.0,20.0,11.0,0.0
5359,70.0,0.0,150.0,1.0,0.0
5360,49.0,30.0,20.0,11.0,0.0
5361,82.0,0.0,150.0,0.0,0.0
5362,67.0,0.0,150.0,1.0,0.0
5363,51.0,30.0,20.0,11.0,0.0
5364,69.0,0.0,20.0,11.0,0.0
5365,57.0,0.0,20.0,11.0,0.0
5366,70.0,0.0,20.0,11.0,0.0
5367,58.0,24.0,20.0,11.0,0.0
5368,49.0,0.0,20.0,11.0,0.0
5369,60.0,30.0,20.0,11.0,0.0
5370,72.0,0.0,20.0,11.0,0.0
5371,51.0,0.0,20.0,11.0,0.0
5372,73.0,30.0,20.0,11.0,0.0
5373,61.0,0.0,20.0,11.0,0.0
5374,49.0,0.0,20.0,11.0,0.0
5375,70.0,0.0,20.0,11.0,0.0
5376,58.0,0.0,20.0,11.0,0.0
5377,51.0,78.0,20.0,11.0,0.0
5378,68.0,0.0,90.0,0.0,0.0
5379,56.0,0.0,90.0,3.0,0.0
5380,68.0,0.0,90.0,1.0,0.0
5381,44.0,18.0,90.0,13.0,0.0
5382,44.0,0.0,90.0,12.0,0.0
5383,60.0,0.0,90.0,11.0,0.0
5384,68.0,0.0,90.0,11.0,0.0
5385,80.0,0.0,90.0,0.0,0.0
5386,72.0,0.0,90.0,11.0,0.0
5387,80.0,0.0,90.0,11.0,0.0
5388,44.0,0.0,90.0,4.0,0.0
5389,68.0,0.0,90.0,3.0,0.0
5390,56.0,0.0,90.0,4.0,0.0
5391,56.0,0.0,60.0,11.0,0.0
5392,44.0,24.0,60.0,11.0,0.0
5393,63.0,0.0,90.0,11.0,0.0
5394,44.0,0.0,20.0,11.0,0.0
5395,56.0,54.0,20.0,11.0,0.0
5396,56.0,60.0,40.0,11.0,0.0
5397,44.0,0.0,40.0,11.0,0.0
5398,44.0,60.0,40.0,11.0,0.0
5399,56.0,0.0,40.0,11.0,0.0
5400,44.0,0.0,40.0,11.0,0.0
5401,56.0,60.0,40.0,11.0,0.0
5402,44.0,84.0,40.0,11.0,0.0
5403,56.0,0.0,40.0,11.0,0.0
5404,44.0,0.0,60.0,11.0,0.0
5405,68.0,0.0,90.0,0.0,0.0
5406,80.0,0.0,90.0,0.0,0.0
5407,56.0,0.0,90.0,4.0,0.0
5408,44.0,0.0,90.0,4.0,0.0
5409,68.0,0.0,90.0,3.0,0.0
5410,56.0,24.0,60.0,11.0,0.0
5411,44.0,0.0,90.0,13.0,0.0
5412,68.0,0.0,90.0,1.0,0.0
5413,44.0,0.0,90.0,12.0,0.0
5414,80.0,0.0,90.0,11.0,0.0
5415,68.0,0.0,90.0,11.0,0.0
5416,44.0,0.0,20.0,11.0,0.0
5417,56.0,54.0,20.0,11.0,0.0
5418,44.0,60.0,40.0,11.0,0.0
5419,56.0,0.0,40.0,11.0,0.0
5420,56.0,60.0,40.0,11.0,0.0
5421,44.0,0.0,40.0,11.0,0.0
5422,44.0,60.0,40.0,11.0,0.0
5423,56.0,0.0,40.0,11.0,0.0
5424,44.0,84.0,40.0,11.0,0.0
5425,56.0,0.0,40.0,11.0,0.0
5426,59.0,42.0,60.0,5.0,0.0
5427,47.0,0.0,60.0,5.0,0.0
5428,47.0,54.0,20.0,5.0,0.0
5429,59.0,0.0,20.0,5.0,0.0
5430,47.0,60.0,40.0,5.0,0.0
5431,59.0,0.0,40.0,5.0,0.0
5432,47.0,60.0,40.0,5.0,0.0
5433,59.0,0.0,40.0,5.0,0.0
5434,47.0,0.0,40.0,5.0,0.0
5435,59.0,60.0,40.0,5.0,0.0
5436,59.0,60.0,40.0,5.0,0.0
5437,47.0,0.0,40.0,5.0,0.0
5438,59.0,0.0,40.0,5.0,0.0
5439,47.0,60.0,40.0,5.0,0.0
5440,47.0,0.0,40.0,5.0,0.0
5441,59.0,60.0,40.0,5.0,0.0
5442,47.0,0.0,40.0,5.0,0.0
5443,59.0,60.0,40.0,5.0,0.0
5444,59.0,60.0,40.0,5.0,0.0
5445,47.0,0.0,40.0,5.0,0.0
5446,47.0,60.0,40.0,5.0,0.0
5447,59.0,0.0,40.0,5.0,0.0
5448,71.0,0.0,40.0,7.0,0.0
5449,47.0,60.0,40.0,5.0,0.0
5450,59.0,0.0,40.0,5.0,0.0
5451,71.0,48.0,40.0,7.0,0.0
5452,40.0,0.0,40.0,10.0,0.0
5453,40.0,0.0,90.0,14.0,0.0
5454,59.0,0.0,1890.0,5.0,0.0
5455,52.0,0.0,90.0,14.0,0.0
5456,64.0,0.0,90.0,14.0,0.0
5457,59.0,0.0,90.0,14.0,0.0
5458,56.0,12.0,90.0,14.0,0.0
5459,47.0,12.0,1890.0,5.0,0.0
5460,59.0,0.0,40.0,10.0,0.0
5461,76.0,60.0,40.0,7.0,0.0
5462,47.0,0.0,40.0,10.0,0.0
5463,52.0,0.0,40.0,10.0,0.0
5464,56.0,0.0,40.0,10.0,0.0
5465,76.0,60.0,40.0,7.0,0.0
5466,40.0,60.0,40.0,10.0,0.0
5467,80.0,0.0,40.0,7.0,0.0
5468,59.0,36.0,40.0,10.0,0.0
5469,59.0,0.0,40.0,14.0,0.0
5470,56.0,0.0,40.0,10.0,0.0
5471,52.0,0.0,40.0,10.0,0.0
5472,47.0,0.0,40.0,10.0,0.0
5473,64.0,0.0,40.0,14.0,0.0
5474,56.0,0.0,40.0,14.0,0.0
5475,52.0,6.0,40.0,14.0,0.0
5476,40.0,0.0,40.0,14.0,0.0
5477,80.0,24.0,20.0,7.0,0.0
5478,83.0,30.0,20.0,7.0,0.0
5479,40.0,6.0,40.0,10.0,0.0
5480,52.0,0.0,90.0,14.0,0.0
5481,59.0,0.0,90.0,14.0,0.0
5482,64.0,0.0,90.0,14.0,0.0
5483,56.0,12.0,90.0,14.0,0.0
5484,83.0,24.0,20.0,7.0,0.0
5485,40.0,0.0,90.0,14.0,0.0
5486,88.0,42.0,20.0,7.0,0.0
5487,88.0,12.0,210.0,7.0,0.0
5488,59.0,60.0,40.0,10.0,0.0
5489,56.0,0.0,40.0,10.0,0.0
5490,52.0,0.0,40.0,10.0,0.0
5491,47.0,60.0,40.0,10.0,0.0
5492,40.0,48.0,40.0,10.0,0.0
5493,59.0,24.0,40.0,10.0,0.0
5494,52.0,9.0,40.0,14.0,0.0
5495,88.0,15.0,15.0,7.0,0.0
5496,40.0,0.0,40.0,14.0,0.0
5497,56.0,0.0,40.0,10.0,0.0
5498,59.0,0.0,40.0,14.0,0.0
5499,47.0,0.0,40.0,10.0,0.0
5500,52.0,0.0,40.0,10.0,0.0
5501,64.0,0.0,40.0,14.0,0.0
5502,56.0,0.0,40.0,14.0,0.0
5503,90.0,15.0,15.0,7.0,0.0
5504,87.0,6.0,15.0,7.0,0.0
5505,88.0,51.0,15.0,7.0,0.0
5506,40.0,0.0,90.0,14.0,0.0
5507,92.0,48.0,40.0,7.0,0.0
5508,57.0,0.0,90.0,14.0,0.0
5509,59.0,0.0,90.0,14.0,0.0
5510,52.0,0.0,90.0,14.0,0.0
5511,63.0,12.0,90.0,14.0,0.0
5512,40.0,0.0,40.0,10.0,0.0
5513,90.0,0.0,40.0,7.0,0.0
5514,57.0,60.0,40.0,10.0,0.0
5515,88.0,0.0,40.0,7.0,0.0
5516,47.0,0.0,40.0,10.0,0.0
5517,54.0,60.0,40.0,10.0,0.0
5518,51.0,0.0,40.0,10.0,0.0
5519,40.0,0.0,40.0,10.0,0.0
5520,87.0,60.0,40.0,7.0,0.0
5521,57.0,0.0,40.0,10.0,0.0
5522,85.0,60.0,40.0,7.0,0.0
5523,63.0,0.0,40.0,14.0,0.0
5524,40.0,0.0,40.0,14.0,0.0
5525,52.0,0.0,40.0,14.0,0.0
5526,59.0,0.0,40.0,14.0,0.0
5527,51.0,36.0,40.0,10.0,0.0
5528,83.0,0.0,40.0,7.0,0.0
5529,57.0,0.0,40.0,14.0,0.0
5530,47.0,0.0,40.0,10.0,0.0
5531,54.0,0.0,40.0,10.0,0.0
5532,40.0,12.0,90.0,14.0,0.0
5533,52.0,0.0,90.0,14.0,0.0
5534,64.0,0.0,90.0,14.0,0.0
5535,59.0,0.0,90.0,14.0,0.0
5536,56.0,0.0,90.0,14.0,0.0
5537,83.0,24.0,20.0,7.0,0.0
5538,40.0,6.0,40.0,10.0,0.0
5539,85.0,30.0,20.0,7.0,0.0
5540,59.0,6.0,40.0,10.0,0.0
5541,83.0,12.0,20.0,7.0,0.0
5542,82.0,30.0,20.0,7.0,0.0
5543,47.0,6.0,40.0,10.0,0.0
5544,56.0,0.0,40.0,10.0,0.0
5545,83.0,24.0,20.0,7.0,0.0
5546,84.0,30.0,20.0,7.0,0.0
5547,40.0,6.0,40.0,10.0,0.0
5548,85.0,24.0,20.0,7.0,0.0
5549,86.0,30.0,20.0,7.0,0.0
5550,87.0,24.0,20.0,7.0,0.0
5551,59.0,6.0,40.0,10.0,0.0
5552,88.0,22.0,20.0,7.0,0.0
5553,47.0,8.0,40.0,10.0,0.0
5554,89.0,20.0,15.0,7.0,0.0
5555,52.0,0.0,40.0,10.0,0.0
5556,59.0,0.0,40.0,14.0,0.0
5557,56.0,0.0,40.0,14.0,0.0
5558,64.0,0.0,40.0,14.0,0.0
5559,40.0,0.0,40.0,14.0,0.0
5560,52.0,0.0,40.0,14.0,0.0
5561,56.0,0.0,40.0,10.0,0.0
5562,90.0,12.0,15.0,7.0,0.0
5563,91.0,28.0,15.0,7.0,0.0
5564,92.0,24.0,20.0,7.0,0.0
5565,57.0,0.0,90.0,14.0,0.0
5566,63.0,0.0,90.0,14.0,0.0
5567,52.0,0.0,90.0,14.0,0.0
5568,40.0,12.0,90.0,14.0,0.0
5569,40.0,6.0,40.0,10.0,0.0
5570,59.0,0.0,90.0,14.0,0.0
5571,91.0,30.0,20.0,7.0,0.0
5572,57.0,6.0,40.0,10.0,0.0
5573,90.0,12.0,20.0,7.0,0.0
5574,89.0,30.0,20.0,7.0,0.0
5575,47.0,0.0,40.0,10.0,0.0
5576,51.0,6.0,40.0,10.0,0.0
5577,54.0,0.0,40.0,10.0,0.0
5578,88.0,24.0,20.0,7.0,0.0
5579,87.0,30.0,20.0,7.0,0.0
5580,40.0,6.0,40.0,10.0,0.0
5581,86.0,24.0,20.0,7.0,0.0
5582,85.0,30.0,20.0,7.0,0.0
5583,84.0,24.0,20.0,7.0,0.0
5584,57.0,6.0,40.0,10.0,0.0
5585,83.0,30.0,20.0,7.0,0.0
5586,54.0,0.0,40.0,11.0,0.0
5587,51.0,0.0,40.0,10.0,0.0
5588,82.0,24.0,20.0,7.0,0.0
5589,47.0,0.0,40.0,10.0,0.0
5590,54.0,0.0,40.0,10.0,0.0
5591,63.0,0.0,40.0,11.0,0.0
5592,57.0,6.0,40.0,11.0,0.0
5593,59.0,0.0,40.0,11.0,0.0
5594,83.0,30.0,20.0,7.0,0.0
5595,52.0,12.0,40.0,12.0,0.0
5596,40.0,0.0,40.0,10.0,0.0
5597,64.0,0.0,40.0,11.0,0.0
5598,59.0,0.0,40.0,11.0,0.0
5599,52.0,0.0,40.0,13.0,0.0
5600,84.0,12.0,20.0,7.0,0.0
5601,56.0,0.0,40.0,11.0,0.0
5602,52.0,0.0,40.0,11.0,0.0
5603,85.0,30.0,20.0,7.0,0.0
5604,56.0,6.0,40.0,10.0,0.0
5605,52.0,0.0,40.0,11.0,0.0
5606,64.0,0.0,40.0,11.0,0.0
5607,52.0,0.0,40.0,12.0,0.0
5608,86.0,12.0,20.0,7.0,0.0
5609,56.0,0.0,40.0,11.0,0.0
5610,52.0,0.0,40.0,13.0,0.0
5611,59.0,0.0,40.0,11.0,0.0
5612,87.0,30.0,20.0,7.0,0.0
5613,88.0,24.0,20.0,7.0,0.0
5614,52.0,0.0,40.0,10.0,0.0
5615,47.0,6.0,40.0,10.0,0.0
5616,89.0,35.0,20.0,7.0,0.0
5617,40.0,0.0,40.0,10.0,0.0
5618,52.0,0.0,40.0,12.0,0.0
5619,52.0,0.0,40.0,11.0,0.0
5620,56.0,0.0,40.0,11.0,0.0
5621,64.0,17.0,40.0,11.0,0.0
5622,59.0,0.0,40.0,11.0,0.0
5623,90.0,19.0,30.0,7.0,0.0
5624,52.0,0.0,40.0,13.0,0.0
5625,91.0,36.0,30.0,7.0,0.0
5626,64.0,29.0,40.0,11.0,0.0
5627,56.0,0.0,40.0,11.0,0.0
5628,52.0,0.0,40.0,13.0,0.0
5629,59.0,0.0,40.0,11.0,0.0
5630,56.0,0.0,40.0,10.0,0.0
5631,52.0,0.0,40.0,12.0,0.0
5632,52.0,0.0,40.0,11.0,0.0
5633,92.0,7.0,30.0,7.0,0.0
5634,93.0,31.0,30.0,7.0,0.0
5635,47.0,5.0,40.0,10.0,0.0
5636,52.0,0.0,40.0,10.0,0.0
5637,94.0,31.0,30.0,7.0,0.0
5638,64.0,0.0,40.0,11.0,0.0
5639,40.0,6.0,40.0,10.0,0.0
5640,56.0,0.0,40.0,11.0,0.0
5641,59.0,0.0,40.0,11.0,0.0
5642,52.0,0.0,40.0,13.0,0.0
5643,52.0,0.0,40.0,11.0,0.0
5644,52.0,0.0,40.0,12.0,0.0
5645,95.0,24.0,20.0,7.0,0.0
5646,94.0,30.0,20.0,7.0,0.0
5647,52.0,0.0,40.0,12.0,0.0
5648,64.0,0.0,40.0,11.0,0.0
5649,56.0,0.0,40.0,10.0,0.0
5650,52.0,0.0,40.0,13.0,0.0
5651,52.0,6.0,40.0,11.0,0.0
5652,56.0,0.0,40.0,11.0,0.0
5653,93.0,24.0,20.0,7.0,0.0
5654,59.0,0.0,40.0,11.0,0.0
5655,92.0,30.0,20.0,7.0,0.0
5656,52.0,6.0,40.0,10.0,0.0
5657,47.0,0.0,40.0,10.0,0.0
5658,91.0,24.0,20.0,7.0,0.0
5659,90.0,30.0,20.0,7.0,0.0
5660,56.0,0.0,40.0,11.0,0.0
5661,40.0,0.0,40.0,10.0,0.0
5662,89.0,24.0,20.0,7.0,0.0
5663,52.0,6.0,40.0,13.0,0.0
5664,52.0,0.0,40.0,12.0,0.0
5665,59.0,0.0,40.0,11.0,0.0
5666,52.0,0.0,40.0,11.0,0.0
5667,64.0,0.0,40.0,11.0,0.0
5668,88.0,30.0,20.0,7.0,0.0
5669,52.0,0.0,40.0,12.0,0.0
5670,64.0,0.0,40.0,11.0,0.0
5671,56.0,6.0,40.0,11.0,0.0
5672,52.0,0.0,40.0,11.0,0.0
5673,87.0,24.0,20.0,7.0,0.0
5674,59.0,0.0,40.0,11.0,0.0
5675,56.0,0.0,40.0,10.0,0.0
5676,52.0,0.0,40.0,13.0,0.0
5677,86.0,30.0,20.0,7.0,0.0
5678,47.0,6.0,40.0,10.0,0.0
5679,52.0,0.0,40.0,10.0,0.0
5680,85.0,24.0,20.0,7.0,0.0
5681,84.0,30.0,20.0,7.0,0.0
5682,85.0,24.0,20.0,7.0,0.0
5683,45.0,0.0,40.0,13.0,0.0
5684,45.0,6.0,40.0,12.0,0.0
5685,52.0,0.0,40.0,11.0,0.0
5686,45.0,0.0,40.0,10.0,0.0
5687,64.0,0.0,40.0,11.0,0.0
5688,57.0,0.0,40.0,11.0,0.0
5689,61.0,0.0,40.0,11.0,0.0
5690,86.0,30.0,20.0,7.0,0.0
5691,61.0,0.0,40.0,10.0,0.0
5692,64.0,0.0,40.0,11.0,0.0
5693,52.0,0.0,40.0,11.0,0.0
5694,45.0,0.0,40.0,13.0,0.0
5695,87.0,24.0,20.0,7.0,0.0
5696,61.0,6.0,40.0,11.0,0.0
5697,45.0,0.0,40.0,12.0,0.0
5698,57.0,0.0,40.0,11.0,0.0
5699,88.0,30.0,20.0,7.0,0.0
5700,89.0,24.0,20.0,7.0,0.0
5701,52.0,0.0,40.0,10.0,0.0
5702,54.0,0.0,40.0,10.0,0.0
5703,57.0,6.0,40.0,10.0,0.0
5704,90.0,30.0,20.0,7.0,0.0
5705,52.0,6.0,40.0,11.0,0.0
5706,45.0,0.0,40.0,13.0,0.0
5707,64.0,0.0,40.0,11.0,0.0
5708,45.0,0.0,40.0,12.0,0.0
5709,45.0,0.0,40.0,10.0,0.0
5710,61.0,0.0,40.0,11.0,0.0
5711,57.0,0.0,40.0,11.0,0.0
5712,91.0,24.0,20.0,7.0,0.0
5713,92.0,30.0,20.0,7.0,0.0
5714,93.0,24.0,20.0,7.0,0.0
5715,61.0,0.0,40.0,11.0,0.0
5716,52.0,0.0,40.0,11.0,0.0
5717,57.0,6.0,40.0,11.0,0.0
5718,61.0,0.0,40.0,10.0,0.0
5719,64.0,0.0,40.0,11.0,0.0
5720,45.0,0.0,40.0,12.0,0.0
5721,45.0,0.0,40.0,13.0,0.0
5722,94.0,30.0,20.0,7.0,0.0
5723,95.0,24.0,20.0,7.0,0.0
5724,54.0,0.0,40.0,10.0,0.0
5725,57.0,6.0,40.0,10.0,0.0
5726,52.0,0.0,40.0,10.0,0.0
5727,96.0,30.0,20.0,7.0,0.0
5728,45.0,0.0,40.0,12.0,0.0
5729,45.0,0.0,40.0,10.0,0.0
5730,64.0,6.0,40.0,11.0,0.0
5731,52.0,0.0,40.0,11.0,0.0
5732,57.0,0.0,40.0,11.0,0.0
5733,45.0,0.0,40.0,13.0,0.0
5734,97.0,24.0,20.0,7.0,0.0
5735,61.0,0.0,40.0,11.0,0.0
5736,96.0,30.0,20.0,7.0,0.0
5737,52.0,6.0,40.0,11.0,0.0
5738,95.0,24.0,20.0,7.0,0.0
5739,57.0,0.0,40.0,11.0,0.0
5740,61.0,0.0,40.0,11.0,0.0
5741,45.0,0.0,40.0,12.0,0.0
5742,64.0,0.0,40.0,11.0,0.0
5743,61.0,0.0,40.0,10.0,0.0
5744,45.0,0.0,40.0,13.0,0.0
5745,94.0,30.0,20.0,7.0,0.0
5746,93.0,24.0,20.0,7.0,0.0
5747,54.0,0.0,40.0,10.0,0.0
5748,57.0,6.0,40.0,10.0,0.0
5749,52.0,0.0,40.0,10.0,0.0
5750,92.0,30.0,20.0,7.0,0.0
5751,45.0,0.0,40.0,13.0,0.0
5752,57.0,0.0,40.0,11.0,0.0
5753,91.0,24.0,20.0,7.0,0.0
5754,61.0,0.0,40.0,11.0,0.0
5755,45.0,0.0,40.0,10.0,0.0
5756,52.0,0.0,40.0,11.0,0.0
5757,64.0,6.0,40.0,11.0,0.0
5758,45.0,0.0,40.0,12.0,0.0
5759,90.0,30.0,20.0,7.0,0.0
5760,45.0,0.0,40.0,12.0,0.0
5761,61.0,6.0,40.0,11.0,0.0
5762,57.0,0.0,40.0,11.0,0.0
5763,45.0,0.0,40.0,13.0,0.0
5764,52.0,0.0,40.0,11.0,0.0
5765,89.0,24.0,20.0,7.0,0.0
5766,61.0,0.0,40.0,10.0,0.0
5767,64.0,0.0,40.0,11.0,0.0
5768,88.0,22.0,20.0,7.0,0.0
5769,87.0,20.0,15.0,7.0,0.0
5770,52.0,0.0,40.0,10.0,0.0
5771,54.0,0.0,40.0,10.0,0.0
5772,57.0,8.0,40.0,10.0,0.0
5773,86.0,12.0,15.0,7.0,0.0
5774,85.0,28.0,15.0,7.0,0.0
5775,59.0,0.0,40.0,11.0,0.0
5776,84.0,24.0,20.0,7.0,0.0
5777,47.0,0.0,40.0,10.0,0.0
5778,47.0,0.0,40.0,13.0,0.0
5779,56.0,6.0,40.0,11.0,0.0
5780,52.0,0.0,40.0,11.0,0.0
5781,47.0,0.0,40.0,12.0,0.0
5782,83.0,30.0,20.0,7.0,0.0
5783,56.0,0.0,40.0,11.0,0.0
5784,59.0,0.0,40.0,11.0,0.0
5785,82.0,24.0,20.0,7.0,0.0
5786,47.0,6.0,40.0,12.0,0.0
5787,59.0,0.0,40.0,10.0,0.0
5788,47.0,0.0,40.0,13.0,0.0
5789,52.0,0.0,40.0,11.0,0.0
5790,81.0,30.0,20.0,7.0,0.0
5791,56.0,0.0,40.0,10.0,0.0
5792,52.0,6.0,40.0,10.0,0.0
5793,80.0,24.0,20.0,7.0,0.0
5794,79.0,30.0,20.0,7.0,0.0
5795,78.0,24.0,20.0,7.0,0.0
5796,47.0,0.0,40.0,13.0,0.0
5797,52.0,0.0,40.0,11.0,0.0
5798,47.0,0.0,40.0,12.0,0.0
5799,56.0,6.0,40.0,11.0,0.0
5800,59.0,0.0,40.0,11.0,0.0
5801,47.0,0.0,40.0,10.0,0.0
5802,77.0,30.0,20.0,7.0,0.0
5803,59.0,0.0,40.0,11.0,0.0
5804,56.0,0.0,40.0,11.0,0.0
5805,59.0,0.0,40.0,10.0,0.0
5806,47.0,0.0,40.0,12.0,0.0
5807,76.0,24.0,20.0,7.0,0.0
5808,52.0,0.0,40.0,11.0,0.0
5809,47.0,6.0,40.0,13.0,0.0
5810,75.0,30.0,20.0,7.0,0.0
5811,56.0,6.0,40.0,10.0,0.0
5812,52.0,0.0,40.0,10.0,0.0
5813,74.0,24.0,20.0,7.0,0.0
5814,73.0,30.0,20.0,7.0,0.0
5815,47.0,0.0,40.0,13.0,0.0
5816,47.0,0.0,40.0,12.0,0.0
5817,59.0,0.0,40.0,11.0,0.0
5818,72.0,24.0,20.0,7.0,0.0
5819,57.0,0.0,40.0,11.0,0.0
5820,47.0,0.0,40.0,11.0,0.0
5821,35.0,6.0,40.0,10.0,0.0
5822,54.0,0.0,40.0,11.0,0.0
5823,51.0,0.0,40.0,11.0,0.0
5824,71.0,30.0,20.0,7.0,0.0
5825,47.0,0.0,40.0,13.0,0.0
5826,47.0,0.0,40.0,12.0,0.0
5827,70.0,24.0,20.0,7.0,0.0
5828,47.0,6.0,40.0,11.0,0.0
5829,57.0,0.0,40.0,10.0,0.0
5830,57.0,0.0,40.0,11.0,0.0
5831,59.0,0.0,40.0,11.0,0.0
5832,54.0,0.0,40.0,11.0,0.0
5833,51.0,0.0,40.0,11.0,0.0
5834,69.0,30.0,20.0,7.0,0.0
5835,54.0,0.0,40.0,10.0,0.0
5836,51.0,0.0,40.0,10.0,0.0
5837,68.0,24.0,20.0,7.0,0.0
5838,47.0,6.0,40.0,10.0,0.0
5839,67.0,22.0,20.0,7.0,0.0
5840,57.0,0.0,40.0,11.0,0.0
5841,66.0,20.0,15.0,7.0,0.0
5842,59.0,0.0,40.0,11.0,0.0
5843,47.0,0.0,40.0,11.0,0.0
5844,47.0,0.0,40.0,13.0,0.0
5845,35.0,0.0,40.0,10.0,0.0
5846,51.0,8.0,40.0,11.0,0.0
5847,47.0,0.0,40.0,12.0,0.0
5848,54.0,0.0,40.0,11.0,0.0
5849,68.0,12.0,15.0,7.0,0.0
5850,66.0,28.0,15.0,7.0,0.0
5851,47.0,0.0,40.0,12.0,0.0
5852,51.0,0.0,40.0,11.0,0.0
5853,47.0,0.0,40.0,13.0,0.0
5854,57.0,6.0,40.0,11.0,0.0
5855,59.0,0.0,40.0,11.0,0.0
5856,65.0,24.0,20.0,7.0,0.0
5857,57.0,0.0,40.0,10.0,0.0
5858,54.0,0.0,40.0,11.0,0.0
5859,47.0,0.0,40.0,11.0,0.0
5860,66.0,30.0,20.0,7.0,0.0
5861,51.0,6.0,40.0,10.0,0.0
5862,47.0,0.0,40.0,10.0,0.0
5863,54.0,0.0,40.0,10.0,0.0
5864,71.0,24.0,20.0,7.0,0.0
5865,63.0,30.0,20.0,7.0,0.0
5866,64.0,6.0,40.0,7.0,0.0
5867,40.0,24.0,20.0,10.0,0.0
5868,42.0,30.0,20.0,10.0,0.0
5869,80.0,6.0,40.0,7.0,0.0
5870,76.0,0.0,40.0,7.0,0.0
5871,44.0,24.0,20.0,10.0,0.0
5872,45.0,30.0,20.0,10.0,0.0
5873,80.0,0.0,40.0,7.0,0.0
5874,76.0,6.0,40.0,7.0,0.0
5875,47.0,24.0,20.0,10.0,0.0
5876,49.0,30.0,20.0,10.0,0.0
5877,51.0,24.0,20.0,10.0,0.0
5878,40.0,0.0,20.0,12.0,0.0
5879,80.0,6.0,40.0,7.0,0.0
5880,76.0,0.0,40.0,7.0,0.0
5881,52.0,0.0,20.0,12.0,0.0
5882,52.0,30.0,20.0,10.0,0.0
5883,54.0,24.0,20.0,10.0,0.0
5884,83.0,0.0,40.0,7.0,0.0
5885,52.0,12.0,90.0,12.0,0.0
5886,80.0,6.0,40.0,7.0,0.0
5887,56.0,30.0,20.0,10.0,0.0
5888,83.0,6.0,40.0,7.0,0.0
5889,80.0,0.0,40.0,7.0,0.0
5890,57.0,12.0,20.0,10.0,0.0
5891,59.0,30.0,20.0,10.0,0.0
5892,83.0,0.0,40.0,7.0,0.0
5893,80.0,6.0,40.0,7.0,0.0
5894,61.0,24.0,20.0,10.0,0.0
5895,63.0,30.0,20.0,10.0,0.0
5896,64.0,24.0,20.0,10.0,0.0
5897,83.0,6.0,40.0,7.0,0.0
5898,88.0,0.0,40.0,7.0,0.0
5899,66.0,30.0,20.0,10.0,0.0
5900,88.0,6.0,40.0,7.0,0.0
5901,68.0,24.0,20.0,10.0,0.0
5902,83.0,0.0,40.0,7.0,0.0
5903,69.0,30.0,20.0,10.0,0.0
5904,88.0,0.0,40.0,7.0,0.0
5905,71.0,19.0,30.0,10.0,0.0
5906,52.0,5.0,20.0,11.0,0.0
5907,83.0,6.0,40.0,7.0,0.0
5908,64.0,11.0,20.0,11.0,0.0
5909,73.0,36.0,30.0,10.0,0.0
5910,64.0,12.0,90.0,11.0,0.0
5911,88.0,29.0,40.0,7.0,0.0
5912,83.0,0.0,40.0,7.0,0.0
5913,75.0,7.0,30.0,10.0,0.0
5914,76.0,19.0,30.0,10.0,0.0
5915,88.0,5.0,40.0,7.0,0.0
5916,83.0,0.0,40.0,7.0,0.0
5917,78.0,31.0,30.0,10.0,0.0
5918,80.0,18.0,90.0,10.0,0.0
5919,92.0,30.0,20.0,7.0,0.0
5920,90.0,30.0,20.0,7.0,0.0
5921,88.0,12.0,20.0,7.0,0.0
5922,87.0,30.0,20.0,7.0,0.0
5923,85.0,30.0,20.0,7.0,0.0
5924,83.0,30.0,20.0,7.0,0.0
5925,81.0,24.0,20.0,7.0,0.0
5926,59.0,6.0,40.0,10.0,0.0
5927,59.0,0.0,20.0,11.0,0.0
5928,80.0,30.0,20.0,7.0,0.0
5929,71.0,0.0,20.0,11.0,0.0
5930,64.0,0.0,40.0,10.0,0.0
5931,78.0,24.0,20.0,7.0,0.0
5932,68.0,6.0,40.0,10.0,0.0
5933,71.0,12.0,90.0,11.0,0.0
5934,76.0,30.0,20.0,7.0,0.0
5935,68.0,0.0,40.0,10.0,0.0
5936,64.0,6.0,40.0,10.0,0.0
5937,75.0,12.0,20.0,7.0,0.0
5938,73.0,30.0,20.0,7.0,0.0
5939,47.0,6.0,40.0,10.0,0.0
5940,71.0,24.0,20.0,7.0,0.0
5941,69.0,30.0,20.0,7.0,0.0
5942,56.0,6.0,40.0,10.0,0.0
5943,52.0,0.0,40.0,10.0,0.0
5944,68.0,24.0,20.0,7.0,0.0
5945,66.0,30.0,20.0,7.0,0.0
5946,56.0,6.0,40.0,10.0,0.0
5947,52.0,0.0,40.0,10.0,0.0
5948,64.0,24.0,20.0,7.0,0.0
5949,63.0,22.0,20.0,7.0,0.0
5950,47.0,12.0,20.0,11.0,0.0
5951,56.0,6.0,40.0,10.0,0.0
5952,61.0,8.0,15.0,7.0,0.0
5953,59.0,12.0,15.0,7.0,0.0
5954,59.0,2.0,20.0,11.0,0.0
5955,58.0,20.0,15.0,7.0,0.0
5956,59.0,12.0,90.0,11.0,0.0
5957,63.0,8.0,40.0,10.0,0.0
5958,66.0,0.0,40.0,10.0,0.0
5959,59.0,20.0,15.0,7.0,0.0
5960,60.0,12.0,15.0,7.0,0.0
5961,61.0,28.0,15.0,7.0,0.0
5962,62.0,12.0,20.0,7.0,0.0
5963,66.0,0.0,40.0,10.0,0.0
5964,63.0,6.0,40.0,10.0,0.0
5965,63.0,30.0,20.0,7.0,0.0
5966,64.0,6.0,40.0,7.0,0.0
5967,41.0,24.0,20.0,10.0,0.0
5968,42.0,30.0,20.0,10.0,0.0
5969,80.0,6.0,40.0,7.0,0.0
5970,76.0,0.0,40.0,7.0,0.0
5971,44.0,24.0,20.0,10.0,0.0
5972,45.0,30.0,20.0,10.0,0.0
5973,76.0,0.0,40.0,7.0,0.0
5974,80.0,6.0,40.0,7.0,0.0
5975,47.0,24.0,20.0,10.0,0.0
5976,49.0,30.0,20.0,10.0,0.0
5977,40.0,0.0,20.0,12.0,0.0
5978,80.0,6.0,40.0,7.0,0.0
5979,76.0,0.0,40.0,7.0,0.0
5980,51.0,24.0,20.0,10.0,0.0
5981,52.0,30.0,20.0,12.0,0.0
5982,52.0,0.0,20.0,10.0,0.0
5983,80.0,0.0,40.0,7.0,0.0
5984,54.0,24.0,20.0,10.0,0.0
5985,83.0,6.0,40.0,7.0,0.0
5986,52.0,12.0,90.0,12.0,0.0
5987,56.0,30.0,20.0,10.0,0.0
5988,57.0,12.0,20.0,10.0,0.0
5989,80.0,6.0,40.0,7.0,0.0
5990,83.0,0.0,40.0,7.0,0.0
5991,59.0,30.0,20.0,10.0,0.0
5992,61.0,24.0,20.0,10.0,0.0
5993,83.0,6.0,40.0,7.0,0.0
5994,80.0,0.0,40.0,7.0,0.0
5995,63.0,30.0,20.0,10.0,0.0
5996,83.0,6.0,40.0,7.0,0.0
5997,88.0,0.0,40.0,7.0,0.0
5998,64.0,24.0,20.0,10.0,0.0
5999,66.0,30.0,20.0,10.0,0.0
6000,68.0,24.0,20.0,10.0,0.0
6001,83.0,0.0,40.0,7.0,0.0
6002,88.0,6.0,40.0,7.0,0.0
6003,69.0,22.0,20.0,10.0,0.0
6004,71.0,8.0,15.0,10.0,0.0
6005,52.0,12.0,20.0,11.0,0.0
6006,83.0,0.0,40.0,7.0,0.0
6007,88.0,6.0,40.0,7.0,0.0
6008,73.0,12.0,15.0,10.0,0.0
6009,64.0,2.0,20.0,11.0,0.0
6010,75.0,28.0,15.0,10.0,0.0
6011,76.0,24.0,20.0,10.0,0.0
6012,88.0,6.0,40.0,7.0,0.0
6013,92.0,0.0,40.0,7.0,0.0
6014,64.0,12.0,90.0,11.0,0.0
6015,78.0,30.0,20.0,10.0,0.0
6016,88.0,0.0,40.0,7.0,0.0
6017,92.0,6.0,40.0,7.0,0.0
6018,80.0,12.0,20.0,10.0,0.0
6019,81.0,30.0,20.0,10.0,0.0
6020,95.0,30.0,20.0,7.0,0.0
6021,83.0,18.0,90.0,10.0,0.0
6022,93.0,30.0,20.0,7.0,0.0
6023,92.0,12.0,20.0,7.0,0.0
6024,90.0,30.0,20.0,7.0,0.0
6025,88.0,30.0,20.0,7.0,0.0
6026,87.0,22.0,20.0,7.0,0.0
6027,59.0,6.0,40.0,10.0,0.0
6028,85.0,8.0,15.0,7.0,0.0
6029,59.0,12.0,20.0,11.0,0.0
6030,83.0,12.0,15.0,7.0,0.0
6031,71.0,2.0,20.0,11.0,0.0
6032,81.0,20.0,15.0,7.0,0.0
6033,68.0,8.0,40.0,10.0,0.0
6034,80.0,20.0,15.0,7.0,0.0
6035,71.0,0.0,90.0,11.0,0.0
6036,64.0,0.0,40.0,10.0,0.0
6037,78.0,12.0,15.0,7.0,0.0
6038,76.0,20.0,15.0,7.0,0.0
6039,68.0,8.0,40.0,10.0,0.0
6040,75.0,20.0,15.0,7.0,0.0
6041,64.0,0.0,40.0,10.0,0.0
6042,73.0,12.0,15.0,7.0,0.0
6043,71.0,20.0,15.0,7.0,0.0
6044,47.0,8.0,40.0,10.0,0.0
6045,69.0,20.0,15.0,7.0,0.0
6046,68.0,12.0,15.0,7.0,0.0
6047,66.0,20.0,15.0,7.0,0.0
6048,64.0,20.0,15.0,7.0,0.0
6049,56.0,8.0,40.0,10.0,0.0
6050,52.0,0.0,40.0,10.0,0.0
6051,63.0,12.0,15.0,7.0,0.0
6052,61.0,20.0,15.0,7.0,0.0
6053,59.0,20.0,15.0,7.0,0.0
6054,52.0,8.0,40.0,10.0,0.0
6055,56.0,0.0,40.0,10.0,0.0
6056,57.0,12.0,15.0,7.0,0.0
6057,56.0,20.0,15.0,7.0,0.0
6058,54.0,0.0,15.0,10.0,0.0
6059,35.0,6.0,40.0,10.0,0.0
6060,54.0,8.0,15.0,7.0,0.0
6061,47.0,12.0,20.0,11.0,0.0
6062,52.0,12.0,15.0,7.0,0.0
6063,52.0,0.0,15.0,10.0,0.0
6064,59.0,2.0,20.0,11.0,0.0
6065,51.0,0.0,15.0,10.0,0.0
6066,51.0,28.0,15.0,7.0,0.0
6067,49.0,24.0,20.0,7.0,0.0
6068,59.0,12.0,90.0,11.0,0.0
6069,45.0,6.0,40.0,10.0,0.0
6070,49.0,0.0,20.0,10.0,0.0
6071,42.0,0.0,40.0,10.0,0.0
6072,47.0,30.0,20.0,10.0,0.0
6073,47.0,0.0,20.0,7.0,0.0
6074,42.0,0.0,40.0,10.0,0.0
6075,45.0,6.0,40.0,10.0,0.0
6076,49.0,12.0,20.0,7.0,0.0
6077,49.0,0.0,20.0,10.0,0.0
6078,51.0,0.0,20.0,7.0,0.0
6079,51.0,78.0,20.0,10.0,0.0
6080,44.0,0.0,90.0,10.0,0.0
6081,40.0,0.0,90.0,10.0,0.0
6082,76.0,0.0,90.0,0.0,0.0
6083,76.0,0.0,90.0,1.0,0.0
6084,64.0,0.0,90.0,1.0,0.0
6085,47.0,0.0,90.0,11.0,0.0
6086,52.0,0.0,90.0,7.0,0.0
6087,40.0,18.0,90.0,4.0,0.0
6088,64.0,0.0,90.0,3.0,0.0
6089,52.0,0.0,90.0,4.0,0.0
6090,52.0,0.0,60.0,11.0,0.0
6091,64.0,24.0,60.0,11.0,0.0
6092,56.0,0.0,90.0,11.0,0.0
6093,59.0,0.0,90.0,11.0,0.0
6094,76.0,0.0,90.0,11.0,0.0
6095,52.0,0.0,90.0,13.0,0.0
6096,68.0,0.0,90.0,11.0,0.0
6097,52.0,0.0,90.0,12.0,0.0
6098,52.0,0.0,20.0,11.0,0.0
6099,64.0,54.0,20.0,11.0,0.0
6100,52.0,60.0,40.0,11.0,0.0
6101,64.0,0.0,40.0,11.0,0.0
6102,64.0,60.0,40.0,11.0,0.0
6103,52.0,0.0,40.0,11.0,0.0
6104,64.0,60.0,40.0,11.0,0.0
6105,52.0,0.0,40.0,11.0,0.0
6106,64.0,66.0,40.0,11.0,0.0
6107,52.0,0.0,40.0,11.0,0.0
6108,64.0,0.0,300.0,11.0,0.0
6109,88.0,0.0,150.0,0.0,0.0
6110,49.0,0.0,150.0,12.0,0.0
6111,76.0,0.0,150.0,1.0,0.0
6112,76.0,6.0,300.0,3.0,0.0
6113,64.0,0.0,300.0,3.0,0.0
6114,52.0,0.0,150.0,4.0,0.0
6115,49.0,0.0,150.0,4.0,0.0
6116,76.0,30.0,150.0,11.0,0.0
6117,76.0,0.0,300.0,0.0,0.0
6118,49.0,0.0,150.0,13.0,0.0
6119,52.0,30.0,20.0,11.0,0.0
6120,54.0,30.0,20.0,11.0,0.0
6121,56.0,30.0,20.0,11.0,0.0
6122,57.0,0.0,20.0,11.0,0.0
6123,58.0,30.0,20.0,11.0,0.0
6124,45.0,0.0,150.0,13.0,0.0
6125,59.0,30.0,20.0,11.0,0.0
6126,73.0,0.0,150.0,1.0,0.0
6127,85.0,0.0,150.0,0.0,0.0
6128,45.0,0.0,150.0,4.0,0.0
6129,61.0,0.0,150.0,4.0,0.0
6130,73.0,0.0,20.0,11.0,0.0
6131,45.0,30.0,150.0,12.0,0.0
6132,72.0,30.0,20.0,11.0,0.0
6133,58.0,0.0,20.0,11.0,0.0
6134,59.0,24.0,20.0,11.0,0.0
6135,73.0,0.0,20.0,11.0,0.0
6136,75.0,0.0,20.0,11.0,0.0
6137,61.0,30.0,20.0,11.0,0.0
6138,76.0,0.0,20.0,11.0,0.0
6139,63.0,0.0,20.0,11.0,0.0
6140,61.0,0.0,20.0,11.0,0.0
6141,73.0,78.0,20.0,11.0,0.0
6142,59.0,0.0,90.0,3.0,0.0
6143,47.0,0.0,60.0,6.0,0.0
6144,59.0,0.0,60.0,6.0,0.0
6145,59.0,0.0,60.0,5.0,0.0
6146,71.0,0.0,90.0,0.0,0.0
6147,83.0,0.0,90.0,0.0,0.0
6148,44.0,0.0,90.0,13.0,0.0
6149,71.0,0.0,90.0,3.0,0.0
6150,47.0,24.0,60.0,5.0,0.0
6151,59.0,0.0,90.0,4.0,0.0
6152,44.0,0.0,90.0,4.0,0.0
6153,59.0,0.0,90.0,11.0,0.0
6154,44.0,0.0,90.0,12.0,0.0
6155,71.0,18.0,90.0,11.0,0.0
6156,71.0,0.0,90.0,1.0,0.0
6157,59.0,54.0,20.0,6.0,0.0
6158,47.0,0.0,20.0,6.0,0.0
6159,59.0,0.0,20.0,5.0,0.0
6160,47.0,0.0,20.0,5.0,0.0
6161,59.0,60.0,40.0,5.0,0.0
6162,47.0,0.0,40.0,5.0,0.0
6163,47.0,0.0,40.0,6.0,0.0
6164,59.0,0.0,40.0,6.0,0.0
6165,59.0,0.0,40.0,5.0,0.0
6166,47.0,0.0,40.0,6.0,0.0
6167,59.0,60.0,40.0,6.0,0.0
6168,47.0,0.0,40.0,5.0,0.0
6169,59.0,0.0,40.0,5.0,0.0
6170,59.0,60.0,40.0,6.0,0.0
6171,47.0,0.0,40.0,6.0,0.0
6172,47.0,0.0,40.0,5.0,0.0
6173,59.0,0.0,40.0,5.0,0.0
6174,47.0,0.0,40.0,5.0,0.0
6175,47.0,36.0,40.0,6.0,0.0
6176,59.0,0.0,40.0,6.0,0.0
6177,54.0,0.0,150.0,4.0,0.0
6178,66.0,0.0,150.0,3.0,0.0
6179,57.0,0.0,150.0,4.0,0.0
6180,47.0,0.0,300.0,5.0,0.0
6181,59.0,0.0,300.0,5.0,0.0
6182,54.0,0.0,20.0,11.0,0.0
6183,78.0,0.0,150.0,1.0,0.0
6184,69.0,30.0,150.0,11.0,0.0
6185,69.0,0.0,150.0,3.0,0.0
6186,51.0,30.0,20.0,11.0,0.0
6187,71.0,0.0,300.0,1.0,0.0
6188,59.0,0.0,150.0,12.0,0.0
6189,78.0,0.0,150.0,0.0,0.0
6190,81.0,0.0,150.0,0.0,0.0
6191,81.0,0.0,150.0,11.0,0.0
6192,47.0,0.0,300.0,6.0,0.0
6193,59.0,6.0,300.0,6.0,0.0
6194,59.0,0.0,150.0,13.0,0.0
6195,54.0,0.0,20.0,11.0,0.0
6196,57.0,30.0,20.0,11.0,0.0
6197,51.0,30.0,20.0,11.0,0.0
6198,54.0,0.0,20.0,11.0,0.0
6199,57.0,30.0,20.0,11.0,0.0
6200,54.0,0.0,20.0,11.0,0.0
6201,51.0,0.0,20.0,11.0,0.0
6202,54.0,0.0,20.0,11.0,0.0
6203,57.0,30.0,20.0,11.0,0.0
6204,78.0,0.0,150.0,0.0,0.0
6205,54.0,0.0,20.0,11.0,0.0
6206,75.0,30.0,150.0,1.0,0.0
6207,66.0,0.0,150.0,3.0,0.0
6208,63.0,0.0,150.0,3.0,0.0
6209,51.0,30.0,20.0,11.0,0.0
6210,78.0,0.0,20.0,11.0,0.0
6211,75.0,0.0,150.0,0.0,0.0
6212,47.0,0.0,150.0,13.0,0.0
6213,47.0,0.0,150.0,12.0,0.0
6214,66.0,0.0,20.0,11.0,0.0
6215,54.0,0.0,150.0,4.0,0.0
6216,51.0,0.0,150.0,4.0,0.0
6217,50.0,0.0,20.0,11.0,0.0
6218,77.0,0.0,20.0,11.0,0.0
6219,53.0,0.0,20.0,11.0,0.0
6220,65.0,30.0,20.0,11.0,0.0
6221,54.0,0.0,20.0,11.0,0.0
6222,78.0,24.0,20.0,11.0,0.0
6223,66.0,0.0,20.0,11.0,0.0
6224,51.0,0.0,20.0,11.0,0.0
6225,68.0,0.0,20.0,11.0,0.0
6226,52.0,0.0,20.0,11.0,0.0
6227,80.0,30.0,20.0,11.0,0.0
6228,56.0,0.0,20.0,11.0,0.0
6229,54.0,0.0,20.0,11.0,0.0
6230,58.0,0.0,20.0,11.0,0.0
6231,69.0,0.0,20.0,11.0,0.0
6232,81.0,0.0,20.0,11.0,0.0
6233,78.0,0.0,20.0,11.0,0.0
6234,51.0,78.0,20.0,11.0,0.0
6235,54.0,0.0,20.0,11.0,0.0
6236,66.0,0.0,20.0,11.0,0.0
6237,76.0,0.0,90.0,11.0,0.0
6238,64.0,0.0,60.0,11.0,0.0
6239,64.0,0.0,90.0,3.0,0.0
6240,76.0,0.0,90.0,1.0,0.0
6241,40.0,0.0,90.0,13.0,0.0
6242,40.0,0.0,90.0,12.0,0.0
6243,52.0,0.0,90.0,4.0,0.0
6244,52.0,24.0,60.0,11.0,0.0
6245,76.0,0.0,90.0,0.0,0.0
6246,44.0,0.0,90.0,11.0,0.0
6247,68.0,0.0,90.0,1.0,0.0
6248,52.0,18.0,15.0,11.0,0.0
6249,64.0,54.0,20.0,11.0,0.0
6250,52.0,60.0,40.0,11.0,0.0
6251,64.0,0.0,40.0,11.0,0.0
6252,64.0,60.0,40.0,11.0,0.0
6253,52.0,0.0,40.0,11.0,0.0
6254,64.0,60.0,40.0,11.0,0.0
6255,52.0,0.0,40.0,11.0,0.0
6256,64.0,0.0,40.0,11.0,0.0
6257,52.0,84.0,40.0,11.0,0.0
6258,52.0,0.0,90.0,4.0,0.0
6259,40.0,0.0,90.0,13.0,0.0
6260,64.0,0.0,90.0,3.0,0.0
6261,40.0,0.0,90.0,12.0,0.0
6262,40.0,0.0,90.0,4.0,0.0
6263,64.0,0.0,90.0,1.0,0.0
6264,76.0,0.0,90.0,1.0,0.0
6265,52.0,24.0,60.0,11.0,0.0
6266,64.0,0.0,60.0,11.0,0.0
6267,76.0,18.0,90.0,0.0,0.0
6268,52.0,0.0,15.0,11.0,0.0
6269,64.0,0.0,15.0,11.0,0.0
6270,64.0,60.0,40.0,11.0,0.0
6271,52.0,0.0,40.0,11.0,0.0
6272,64.0,0.0,40.0,11.0,0.0
6273,52.0,60.0,40.0,11.0,0.0
6274,52.0,60.0,40.0,11.0,0.0
6275,64.0,0.0,40.0,11.0,0.0
6276,64.0,0.0,40.0,11.0,0.0
6277,52.0,84.0,40.0,11.0,0.0
6278,67.0,42.0,60.0,1.0,0.0
6279,55.0,0.0,60.0,4.0,0.0
6280,67.0,0.0,20.0,1.0,0.0
6281,55.0,54.0,20.0,4.0,0.0
6282,67.0,60.0,40.0,1.0,0.0
6283,55.0,0.0,40.0,4.0,0.0
6284,55.0,0.0,40.0,4.0,0.0
6285,67.0,60.0,40.0,1.0,0.0
6286,67.0,60.0,40.0,1.0,0.0
6287,55.0,0.0,40.0,4.0,0.0
6288,55.0,0.0,40.0,4.0,0.0
6289,67.0,60.0,40.0,1.0,0.0
6290,55.0,0.0,40.0,4.0,0.0
6291,67.0,60.0,40.0,1.0,0.0
6292,67.0,60.0,40.0,1.0,0.0
6293,55.0,0.0,40.0,4.0,0.0
6294,67.0,60.0,40.0,1.0,0.0
6295,55.0,0.0,40.0,4.0,0.0
6296,67.0,0.0,40.0,1.0,0.0
6297,55.0,60.0,40.0,4.0,0.0
6298,67.0,60.0,40.0,1.0,0.0
6299,55.0,0.0,40.0,4.0,0.0
6300,67.0,360.0,40.0,1.0,0.0
6301,55.0,0.0,40.0,4.0,0.0
6302,67.0,0.0,1890.0,1.0,0.0
6303,55.0,0.0,1890.0,4.0,0.0
6304,67.0,60.0,40.0,7.0,0.0
6305,64.0,0.0,90.0,14.0,0.0
6306,60.0,0.0,90.0,14.0,0.0
6307,55.0,0.0,90.0,14.0,0.0
6308,67.0,48.0,40.0,7.0,0.0
6309,36.0,12.0,90.0,14.0,0.0
6310,36.0,0.0,40.0,10.0,0.0
6311,48.0,0.0,90.0,14.0,0.0
6312,60.0,0.0,40.0,10.0,0.0
6313,72.0,60.0,40.0,7.0,0.0
6314,55.0,60.0,40.0,10.0,0.0
6315,72.0,0.0,40.0,7.0,0.0
6316,76.0,0.0,40.0,7.0,0.0
6317,52.0,60.0,40.0,10.0,0.0
6318,60.0,36.0,40.0,10.0,0.0
6319,55.0,0.0,40.0,14.0,0.0
6320,76.0,24.0,20.0,7.0,0.0
6321,36.0,0.0,40.0,14.0,0.0
6322,64.0,0.0,40.0,14.0,0.0
6323,55.0,0.0,40.0,10.0,0.0
6324,60.0,6.0,40.0,14.0,0.0
6325,48.0,0.0,40.0,14.0,0.0
6326,79.0,30.0,20.0,7.0,0.0
6327,55.0,0.0,90.0,14.0,0.0
6328,36.0,0.0,90.0,14.0,0.0
6329,64.0,0.0,90.0,14.0,0.0
6330,60.0,12.0,90.0,14.0,0.0
6331,48.0,0.0,90.0,14.0,0.0
6332,79.0,24.0,20.0,7.0,0.0
6333,52.0,6.0,40.0,10.0,0.0
6334,84.0,42.0,20.0,7.0,0.0
6335,60.0,60.0,40.0,10.0,0.0
6336,84.0,12.0,210.0,7.0,0.0
6337,55.0,60.0,40.0,10.0,0.0
6338,52.0,48.0,40.0,10.0,0.0
6339,60.0,36.0,40.0,10.0,0.0
6340,36.0,0.0,40.0,14.0,0.0
6341,84.0,24.0,20.0,7.0,0.0
6342,55.0,6.0,40.0,14.0,0.0
6343,64.0,0.0,40.0,14.0,0.0
6344,55.0,0.0,40.0,10.0,0.0
6345,48.0,0.0,40.0,14.0,0.0
6346,60.0,0.0,40.0,14.0,0.0
6347,88.0,30.0,20.0,7.0,0.0
6348,36.0,0.0,90.0,14.0,0.0
6349,55.0,0.0,90.0,14.0,0.0
6350,48.0,0.0,90.0,14.0,0.0
6351,50.0,6.0,40.0,10.0,0.0
6352,62.0,12.0,90.0,14.0,0.0
6353,83.0,24.0,20.0,7.0,0.0
6354,65.0,0.0,90.0,14.0,0.0
6355,86.0,30.0,20.0,7.0,0.0
6356,59.0,6.0,40.0,10.0,0.0
6357,89.0,12.0,20.0,7.0,0.0
6358,86.0,30.0,20.0,7.0,0.0
6359,83.0,24.0,20.0,7.0,0.0
6360,55.0,6.0,40.0,10.0,0.0
6361,79.0,30.0,20.0,7.0,0.0
6362,83.0,24.0,20.0,7.0,0.0
6363,50.0,6.0,40.0,10.0,0.0
6364,86.0,30.0,20.0,7.0,0.0
6365,59.0,6.0,40.0,10.0,0.0
6366,89.0,24.0,20.0,7.0,0.0
6367,86.0,30.0,20.0,7.0,0.0
6368,55.0,0.0,40.0,14.0,0.0
6369,36.0,0.0,40.0,14.0,0.0
6370,48.0,0.0,40.0,14.0,0.0
6371,65.0,0.0,40.0,14.0,0.0
6372,61.0,0.0,40.0,14.0,0.0
6373,83.0,24.0,20.0,7.0,0.0
6374,55.0,6.0,40.0,10.0,0.0
6375,79.0,30.0,20.0,7.0,0.0
6376,52.0,6.0,40.0,10.0,0.0
6377,64.0,12.0,90.0,14.0,0.0
6378,55.0,0.0,90.0,14.0,0.0
6379,84.0,24.0,20.0,7.0,0.0
6380,36.0,0.0,90.0,14.0,0.0
6381,60.0,0.0,90.0,14.0,0.0
6382,48.0,0.0,90.0,14.0,0.0
6383,88.0,30.0,20.0,7.0,0.0
6384,60.0,6.0,40.0,10.0,0.0
6385,91.0,12.0,20.0,7.0,0.0
6386,88.0,30.0,20.0,7.0,0.0
6387,55.0,6.0,40.0,10.0,0.0
6388,84.0,24.0,20.0,7.0,0.0
6389,79.0,30.0,20.0,7.0,0.0
6390,84.0,24.0,20.0,7.0,0.0
6391,52.0,6.0,40.0,10.0,0.0
6392,88.0,30.0,20.0,7.0,0.0
6393,60.0,6.0,40.0,10.0,0.0
6394,91.0,24.0,20.0,7.0,0.0
6395,88.0,30.0,20.0,7.0,0.0
6396,64.0,0.0,40.0,14.0,0.0
6397,84.0,24.0,20.0,7.0,0.0
6398,55.0,0.0,40.0,14.0,0.0
6399,36.0,0.0,40.0,14.0,0.0
6400,48.0,6.0,40.0,14.0,0.0
6401,55.0,0.0,40.0,10.0,0.0
6402,60.0,0.0,40.0,14.0,0.0
6403,79.0,30.0,20.0,7.0,0.0
6404,83.0,24.0,20.0,7.0,0.0
6405,62.0,12.0,90.0,14.0,0.0
6406,55.0,0.0,90.0,14.0,0.0
6407,36.0,0.0,90.0,14.0,0.0
6408,48.0,0.0,90.0,14.0,0.0
6409,50.0,6.0,40.0,10.0,0.0
6410,65.0,0.0,90.0,14.0,0.0
6411,86.0,30.0,20.0,7.0,0.0
6412,59.0,6.0,40.0,10.0,0.0
6413,89.0,12.0,20.0,7.0,0.0
6414,86.0,30.0,20.0,7.0,0.0
6415,83.0,24.0,20.0,7.0,0.0
6416,55.0,6.0,40.0,10.0,0.0
6417,79.0,30.0,20.0,7.0,0.0
6418,83.0,24.0,20.0,7.0,0.0
6419,50.0,6.0,40.0,10.0,0.0
6420,86.0,30.0,20.0,7.0,0.0
6421,59.0,6.0,40.0,10.0,0.0
6422,89.0,24.0,20.0,7.0,0.0
6423,86.0,30.0,20.0,7.0,0.0
6424,61.0,0.0,40.0,11.0,0.0
6425,83.0,24.0,20.0,7.0,0.0
6426,65.0,0.0,40.0,11.0,0.0
6427,55.0,0.0,40.0,10.0,0.0
6428,55.0,6.0,40.0,11.0,0.0
6429,48.0,0.0,40.0,12.0,0.0
6430,79.0,30.0,20.0,7.0,0.0
6431,60.0,0.0,40.0,11.0,0.0
6432,64.0,0.0,40.0,11.0,0.0
6433,84.0,24.0,20.0,7.0,0.0
6434,52.0,0.0,40.0,10.0,0.0
6435,55.0,0.0,40.0,11.0,0.0
6436,48.0,6.0,40.0,12.0,0.0
6437,88.0,30.0,20.0,7.0,0.0
6438,91.0,24.0,20.0,7.0,0.0
6439,60.0,0.0,40.0,11.0,0.0
6440,60.0,0.0,40.0,10.0,0.0
6441,55.0,6.0,40.0,11.0,0.0
6442,64.0,0.0,40.0,11.0,0.0
6443,48.0,0.0,40.0,12.0,0.0
6444,88.0,30.0,20.0,7.0,0.0
6445,84.0,24.0,20.0,7.0,0.0
6446,55.0,6.0,40.0,10.0,0.0
6447,79.0,30.0,20.0,7.0,0.0
6448,84.0,24.0,20.0,7.0,0.0
6449,67.0,0.0,40.0,11.0,0.0
6450,55.0,0.0,40.0,11.0,0.0
6451,52.0,6.0,40.0,11.0,0.0
6452,60.0,0.0,40.0,11.0,0.0
6453,52.0,0.0,40.0,10.0,0.0
6454,48.0,0.0,40.0,12.0,0.0
6455,88.0,30.0,20.0,7.0,0.0
6456,91.0,24.0,20.0,7.0,0.0
6457,55.0,0.0,40.0,11.0,0.0
6458,60.0,0.0,40.0,11.0,0.0
6459,52.0,0.0,40.0,11.0,0.0
6460,48.0,0.0,40.0,12.0,0.0
6461,60.0,0.0,40.0,10.0,0.0
6462,67.0,6.0,40.0,11.0,0.0
6463,88.0,30.0,20.0,7.0,0.0
6464,84.0,24.0,20.0,7.0,0.0
6465,55.0,6.0,40.0,10.0,0.0
6466,79.0,30.0,20.0,7.0,0.0
6467,52.0,0.0,40.0,10.0,0.0
6468,84.0,24.0,20.0,7.0,0.0
6469,60.0,0.0,40.0,11.0,0.0
6470,52.0,0.0,40.0,11.0,0.0
6471,55.0,0.0,40.0,11.0,0.0
6472,67.0,0.0,40.0,11.0,0.0
6473,48.0,6.0,40.0,12.0,0.0
6474,88.0,30.0,20.0,7.0,0.0
6475,48.0,0.0,40.0,12.0,0.0
6476,52.0,6.0,40.0,11.0,0.0
6477,55.0,0.0,40.0,11.0,0.0
6478,67.0,0.0,40.0,11.0,0.0
6479,60.0,0.0,40.0,11.0,0.0
6480,60.0,0.0,40.0,10.0,0.0
6481,91.0,24.0,20.0,7.0,0.0
6482,88.0,30.0,20.0,7.0,0.0
6483,84.0,24.0,20.0,7.0,0.0
6484,55.0,6.0,40.0,10.0,0.0
6485,79.0,30.0,20.0,7.0,0.0
6486,52.0,6.0,40.0,11.0,0.0
6487,55.0,0.0,40.0,11.0,0.0
6488,52.0,0.0,40.0,10.0,0.0
6489,60.0,0.0,40.0,11.0,0.0
6490,67.0,0.0,40.0,11.0,0.0
6491,48.0,0.0,40.0,12.0,0.0
6492,84.0,24.0,20.0,7.0,0.0
6493,88.0,30.0,20.0,7.0,0.0
6494,55.0,0.0,40.0,11.0,0.0
6495,52.0,6.0,40.0,11.0,0.0
6496,91.0,24.0,20.0,7.0,0.0
6497,60.0,0.0,40.0,10.0,0.0
6498,67.0,0.0,40.0,11.0,0.0
6499,60.0,0.0,40.0,11.0,0.0
6500,48.0,0.0,40.0,12.0,0.0
6501,88.0,30.0,20.0,7.0,0.0
6502,55.0,6.0,40.0,10.0,0.0
6503,84.0,24.0,20.0,7.0,0.0
6504,79.0,30.0,20.0,7.0,0.0
6505,60.0,0.0,40.0,11.0,0.0
6506,41.0,0.0,40.0,10.0,0.0
6507,84.0,24.0,20.0,7.0,0.0
6508,57.0,0.0,40.0,11.0,0.0
6509,53.0,0.0,40.0,11.0,0.0
6510,53.0,0.0,40.0,12.0,0.0
6511,69.0,6.0,40.0,11.0,0.0
6512,89.0,30.0,20.0,7.0,0.0
6513,60.0,6.0,40.0,10.0,0.0
6514,53.0,0.0,40.0,11.0,0.0
6515,60.0,0.0,40.0,11.0,0.0
6516,69.0,0.0,40.0,11.0,0.0
6517,53.0,0.0,40.0,12.0,0.0
6518,57.0,0.0,40.0,11.0,0.0
6519,93.0,24.0,20.0,7.0,0.0
6520,89.0,30.0,20.0,7.0,0.0
6521,53.0,6.0,40.0,10.0,0.0
6522,57.0,0.0,40.0,10.0,0.0
6523,84.0,24.0,20.0,7.0,0.0
6524,81.0,30.0,20.0,7.0,0.0
6525,57.0,0.0,40.0,11.0,0.0
6526,69.0,6.0,40.0,11.0,0.0
6527,53.0,0.0,40.0,11.0,0.0
6528,60.0,0.0,40.0,11.0,0.0
6529,53.0,0.0,40.0,12.0,0.0
6530,84.0,24.0,20.0,7.0,0.0
6531,41.0,0.0,40.0,10.0,0.0
6532,89.0,30.0,20.0,7.0,0.0
6533,69.0,0.0,40.0,11.0,0.0
6534,53.0,0.0,40.0,12.0,0.0
6535,60.0,0.0,40.0,10.0,0.0
6536,57.0,6.0,40.0,11.0,0.0
6537,93.0,24.0,20.0,7.0,0.0
6538,53.0,0.0,40.0,11.0,0.0
6539,60.0,0.0,40.0,11.0,0.0
6540,89.0,30.0,20.0,7.0,0.0
6541,84.0,24.0,20.0,7.0,0.0
6542,57.0,0.0,40.0,10.0,0.0
6543,53.0,6.0,40.0,10.0,0.0
6544,81.0,30.0,20.0,7.0,0.0
6545,60.0,0.0,40.0,11.0,0.0
6546,53.0,6.0,40.0,11.0,0.0
6547,57.0,0.0,40.0,11.0,0.0
6548,41.0,0.0,40.0,10.0,0.0
6549,53.0,0.0,40.0,12.0,0.0
6550,84.0,24.0,20.0,7.0,0.0
6551,69.0,0.0,40.0,11.0,0.0
6552,89.0,30.0,20.0,7.0,0.0
6553,57.0,0.0,40.0,11.0,0.0
6554,53.0,0.0,40.0,11.0,0.0
6555,60.0,6.0,40.0,10.0,0.0
6556,93.0,24.0,20.0,7.0,0.0
6557,69.0,0.0,40.0,11.0,0.0
6558,53.0,0.0,40.0,12.0,0.0
6559,60.0,0.0,40.0,11.0,0.0
6560,89.0,30.0,20.0,7.0,0.0
6561,84.0,24.0,20.0,7.0,0.0
6562,53.0,6.0,40.0,10.0,0.0
6563,57.0,0.0,40.0,10.0,0.0
6564,81.0,30.0,20.0,7.0,0.0
6565,53.0,6.0,40.0,12.0,0.0
6566,41.0,0.0,40.0,10.0,0.0
6567,60.0,0.0,40.0,11.0,0.0
6568,84.0,24.0,20.0,7.0,0.0
6569,53.0,0.0,40.0,11.0,0.0
6570,57.0,0.0,40.0,11.0,0.0
6571,69.0,0.0,40.0,11.0,0.0
6572,89.0,30.0,20.0,7.0,0.0
6573,93.0,24.0,20.0,7.0,0.0
6574,53.0,0.0,40.0,11.0,0.0
6575,57.0,0.0,40.0,11.0,0.0
6576,53.0,0.0,40.0,12.0,0.0
6577,60.0,6.0,40.0,11.0,0.0
6578,69.0,0.0,40.0,11.0,0.0
6579,60.0,0.0,40.0,10.0,0.0
6580,89.0,30.0,20.0,7.0,0.0
6581,57.0,6.0,40.0,10.0,0.0
6582,84.0,24.0,20.0,7.0,0.0
6583,53.0,0.0,40.0,10.0,0.0
6584,81.0,30.0,20.0,7.0,0.0
6585,43.0,6.0,40.0,10.0,0.0
6586,84.0,24.0,20.0,7.0,0.0
6587,55.0,0.0,40.0,11.0,0.0
6588,67.0,0.0,40.0,11.0,0.0
6589,60.0,0.0,40.0,11.0,0.0
6590,55.0,0.0,40.0,12.0,0.0
6591,52.0,0.0,40.0,11.0,0.0
6592,88.0,30.0,20.0,7.0,0.0
6593,91.0,24.0,20.0,7.0,0.0
6594,67.0,0.0,40.0,11.0,0.0
6595,55.0,0.0,40.0,12.0,0.0
6596,55.0,0.0,40.0,11.0,0.0
6597,60.0,6.0,40.0,10.0,0.0
6598,52.0,0.0,40.0,11.0,0.0
6599,60.0,0.0,40.0,11.0,0.0
6600,79.0,30.0,20.0,7.0,0.0
6601,84.0,24.0,20.0,7.0,0.0
6602,52.0,0.0,40.0,10.0,0.0
6603,55.0,6.0,40.0,10.0,0.0
6604,88.0,22.0,20.0,7.0,0.0
6605,60.0,0.0,40.0,11.0,0.0
6606,43.0,0.0,40.0,10.0,0.0
6607,96.0,20.0,15.0,7.0,0.0
6608,67.0,0.0,40.0,11.0,0.0
6609,43.0,8.0,40.0,12.0,0.0
6610,52.0,0.0,40.0,11.0,0.0
6611,55.0,0.0,40.0,11.0,0.0
6612,100.0,12.0,15.0,7.0,0.0
6613,103.0,20.0,15.0,7.0,0.0
6614,96.0,20.0,15.0,7.0,0.0
6615,60.0,0.0,40.0,10.0,0.0
6616,55.0,8.0,40.0,11.0,0.0
6617,52.0,0.0,40.0,11.0,0.0
6618,67.0,0.0,40.0,11.0,0.0
6619,60.0,0.0,40.0,11.0,0.0
6620,43.0,0.0,40.0,12.0,0.0
6621,91.0,12.0,15.0,7.0,0.0
6622,88.0,16.0,15.0,7.0,0.0
6623,52.0,9.0,40.0,10.0,0.0
6624,96.0,15.0,15.0,7.0,0.0
6625,55.0,0.0,40.0,10.0,0.0
6626,91.0,15.0,15.0,7.0,0.0
6627,88.0,6.0,15.0,7.0,0.0
6628,84.0,51.0,15.0,7.0,0.0
6629,67.0,12.0,90.0,7.0,0.0
6630,43.0,0.0,40.0,10.0,0.0
6631,57.0,48.0,40.0,11.0,0.0
6632,55.0,0.0,40.0,11.0,0.0
6633,67.0,0.0,40.0,11.0,0.0
6634,62.0,0.0,40.0,11.0,0.0
6635,43.0,0.0,40.0,12.0,0.0
6636,59.0,0.0,40.0,10.0,0.0
6637,57.0,0.0,40.0,11.0,0.0
6638,67.0,0.0,40.0,11.0,0.0
6639,43.0,0.0,40.0,12.0,0.0
6640,55.0,60.0,40.0,11.0,0.0
6641,62.0,0.0,40.0,11.0,0.0
6642,50.0,24.0,40.0,10.0,0.0
6643,55.0,0.0,40.0,10.0,0.0
6644,57.0,0.0,40.0,11.0,0.0
6645,62.0,0.0,40.0,11.0,0.0
6646,55.0,0.0,40.0,11.0,0.0
6647,43.0,0.0,40.0,12.0,0.0
6648,74.0,15.0,15.0,7.0,0.0
6649,43.0,9.0,40.0,10.0,0.0
6650,67.0,0.0,40.0,11.0,0.0
6651,76.0,15.0,15.0,7.0,0.0
6652,74.0,6.0,15.0,7.0,0.0
6653,76.0,15.0,15.0,7.0,0.0
6654,62.0,0.0,40.0,11.0,0.0
6655,55.0,0.0,40.0,11.0,0.0
6656,57.0,0.0,40.0,11.0,0.0
6657,43.0,9.0,40.0,12.0,0.0
6658,74.0,15.0,15.0,7.0,0.0
6659,59.0,0.0,40.0,10.0,0.0
6660,67.0,0.0,40.0,11.0,0.0
6661,76.0,15.0,15.0,7.0,0.0
6662,74.0,6.0,15.0,7.0,0.0
6663,76.0,15.0,15.0,7.0,0.0
6664,55.0,0.0,40.0,10.0,0.0
6665,74.0,15.0,15.0,7.0,0.0
6666,50.0,9.0,40.0,10.0,0.0
6667,76.0,15.0,15.0,7.0,0.0
6668,74.0,6.0,15.0,7.0,0.0
6669,76.0,27.0,15.0,7.0,0.0
6670,36.0,24.0,20.0,10.0,0.0
6671,72.0,6.0,40.0,7.0,0.0
6672,38.0,30.0,20.0,10.0,0.0
6673,79.0,6.0,40.0,7.0,0.0
6674,40.0,24.0,20.0,10.0,0.0
6675,76.0,0.0,40.0,7.0,0.0
6676,41.0,30.0,20.0,10.0,0.0
6677,76.0,6.0,40.0,7.0,0.0
6678,43.0,24.0,20.0,10.0,0.0
6679,79.0,0.0,40.0,7.0,0.0
6680,45.0,30.0,20.0,10.0,0.0
6681,76.0,0.0,40.0,7.0,0.0
6682,48.0,0.0,20.0,11.0,0.0
6683,79.0,6.0,40.0,7.0,0.0
6684,47.0,24.0,20.0,10.0,0.0
6685,60.0,0.0,20.0,11.0,0.0
6686,48.0,30.0,20.0,10.0,0.0
6687,79.0,6.0,40.0,7.0,0.0
6688,84.0,0.0,40.0,7.0,0.0
6689,60.0,12.0,90.0,11.0,0.0
6690,50.0,24.0,20.0,10.0,0.0
6691,52.0,30.0,20.0,10.0,0.0
6692,79.0,0.0,40.0,7.0,0.0
6693,84.0,6.0,40.0,7.0,0.0
6694,53.0,12.0,20.0,10.0,0.0
6695,55.0,30.0,20.0,10.0,0.0
6696,57.0,24.0,20.0,10.0,0.0
6697,79.0,6.0,40.0,7.0,0.0
6698,84.0,0.0,40.0,7.0,0.0
6699,59.0,30.0,20.0,10.0,0.0
6700,84.0,6.0,40.0,7.0,0.0
6701,88.0,0.0,40.0,7.0,0.0
6702,60.0,24.0,20.0,10.0,0.0
6703,62.0,30.0,20.0,10.0,0.0
6704,88.0,6.0,40.0,7.0,0.0
6705,84.0,0.0,40.0,7.0,0.0
6706,64.0,24.0,20.0,10.0,0.0
6707,65.0,30.0,20.0,10.0,0.0
6708,84.0,6.0,40.0,7.0,0.0
6709,88.0,0.0,40.0,7.0,0.0
6710,60.0,0.0,20.0,11.0,0.0
6711,67.0,24.0,20.0,10.0,0.0
6712,72.0,0.0,20.0,11.0,0.0
6713,69.0,30.0,20.0,10.0,0.0
6714,88.0,0.0,40.0,7.0,0.0
6715,84.0,6.0,40.0,7.0,0.0
6716,71.0,24.0,20.0,10.0,0.0
6717,72.0,0.0,90.0,11.0,0.0
6718,72.0,22.0,20.0,10.0,0.0
6719,88.0,0.0,40.0,7.0,0.0
6720,84.0,8.0,40.0,7.0,0.0
6721,74.0,20.0,15.0,10.0,0.0
6722,76.0,12.0,15.0,10.0,0.0
6723,77.0,28.0,15.0,10.0,0.0
6724,79.0,2.0,120.0,10.0,0.0
6725,91.0,30.0,20.0,7.0,0.0
6726,89.0,30.0,20.0,7.0,0.0
6727,88.0,28.0,20.0,7.0,0.0
6728,86.0,30.0,20.0,7.0,0.0
6729,84.0,30.0,20.0,7.0,0.0
6730,83.0,30.0,20.0,7.0,0.0
6731,55.0,0.0,20.0,11.0,0.0
6732,81.0,24.0,20.0,7.0,0.0
6733,55.0,6.0,40.0,10.0,0.0
6734,67.0,30.0,20.0,11.0,0.0
6735,79.0,0.0,20.0,7.0,0.0
6736,77.0,24.0,20.0,7.0,0.0
6737,60.0,6.0,40.0,10.0,0.0
6738,67.0,12.0,90.0,11.0,0.0
6739,64.0,0.0,40.0,10.0,0.0
6740,76.0,22.0,20.0,7.0,0.0
6741,64.0,8.0,40.0,10.0,0.0
6742,60.0,0.0,40.0,10.0,0.0
6743,74.0,20.0,15.0,7.0,0.0
6744,72.0,0.0,15.0,7.0,0.0
6745,71.0,28.0,15.0,7.0,0.0
6746,69.0,24.0,20.0,7.0,0.0
6747,43.0,6.0,40.0,10.0,0.0
6748,67.0,30.0,20.0,7.0,0.0
6749,52.0,6.0,40.0,10.0,0.0
6750,65.0,24.0,20.0,7.0,0.0
6751,48.0,0.0,40.0,10.0,0.0
6752,64.0,30.0,20.0,7.0,0.0
6753,48.0,0.0,40.0,10.0,0.0
6754,52.0,6.0,40.0,10.0,0.0
6755,62.0,24.0,20.0,7.0,0.0
6756,60.0,22.0,20.0,7.0,0.0
6757,59.0,8.0,15.0,7.0,0.0
6758,43.0,12.0,20.0,12.0,0.0
6759,43.0,6.0,40.0,10.0,0.0
6760,57.0,12.0,15.0,7.0,0.0
6761,55.0,2.0,20.0,12.0,0.0
6762,55.0,20.0,15.0,7.0,0.0
6763,55.0,12.0,90.0,12.0,0.0
6764,50.0,8.0,40.0,10.0,0.0
6765,54.0,20.0,15.0,7.0,0.0
6766,53.0,0.0,40.0,10.0,0.0
6767,55.0,12.0,15.0,7.0,0.0
6768,57.0,28.0,15.0,7.0,0.0
6769,50.0,0.0,40.0,10.0,0.0
6770,53.0,6.0,40.0,10.0,0.0
6771,58.0,12.0,20.0,7.0,0.0
6772,59.0,30.0,20.0,7.0,0.0
6773,36.0,24.0,20.0,10.0,0.0
6774,60.0,6.0,40.0,7.0,0.0
6775,38.0,30.0,20.0,10.0,0.0
6776,40.0,24.0,20.0,10.0,0.0
6777,76.0,0.0,40.0,7.0,0.0
6778,79.0,6.0,40.0,7.0,0.0
6779,41.0,30.0,20.0,10.0,0.0
6780,76.0,6.0,40.0,7.0,0.0
6781,79.0,0.0,40.0,7.0,0.0
6782,43.0,24.0,20.0,10.0,0.0
6783,45.0,30.0,20.0,10.0,0.0
6784,76.0,6.0,40.0,7.0,0.0
6785,79.0,0.0,40.0,7.0,0.0
6786,48.0,24.0,20.0,11.0,0.0
6787,47.0,0.0,20.0,10.0,0.0
6788,60.0,30.0,20.0,11.0,0.0
6789,48.0,0.0,20.0,10.0,0.0
6790,60.0,12.0,90.0,11.0,0.0
6791,84.0,6.0,40.0,7.0,0.0
6792,79.0,0.0,40.0,7.0,0.0
6793,50.0,24.0,20.0,10.0,0.0
6794,52.0,30.0,20.0,10.0,0.0
6795,84.0,0.0,40.0,7.0,0.0
6796,79.0,6.0,40.0,7.0,0.0
6797,53.0,12.0,20.0,10.0,0.0
6798,55.0,22.0,20.0,10.0,0.0
6799,57.0,20.0,15.0,10.0,0.0
6800,79.0,0.0,40.0,7.0,0.0
6801,84.0,8.0,40.0,7.0,0.0
6802,59.0,12.0,15.0,10.0,0.0
6803,60.0,20.0,15.0,10.0,0.0
6804,88.0,8.0,40.0,7.0,0.0
6805,84.0,0.0,40.0,7.0,0.0
6806,62.0,20.0,15.0,10.0,0.0
6807,64.0,12.0,15.0,10.0,0.0
6808,65.0,20.0,15.0,10.0,0.0
6809,88.0,8.0,40.0,7.0,0.0
6810,67.0,20.0,15.0,10.0,0.0
6811,84.0,0.0,40.0,7.0,0.0
6812,69.0,12.0,15.0,10.0,0.0
6813,71.0,20.0,15.0,10.0,0.0
6814,72.0,8.0,15.0,10.0,0.0
6815,84.0,0.0,40.0,7.0,0.0
6816,88.0,6.0,40.0,7.0,0.0
6817,60.0,12.0,20.0,11.0,0.0
6818,74.0,12.0,15.0,10.0,0.0
6819,72.0,2.0,20.0,11.0,0.0
6820,76.0,28.0,15.0,10.0,0.0
6821,84.0,0.0,40.0,7.0,0.0
6822,77.0,24.0,20.0,10.0,0.0
6823,88.0,6.0,40.0,7.0,0.0
6824,72.0,12.0,90.0,11.0,0.0
6825,79.0,30.0,20.0,10.0,0.0
6826,84.0,0.0,40.0,7.0,0.0
6827,81.0,12.0,20.0,10.0,0.0
6828,88.0,6.0,40.0,7.0,0.0
6829,83.0,22.0,20.0,10.0,0.0
6830,84.0,20.0,90.0,10.0,0.0
6831,96.0,20.0,15.0,7.0,0.0
6832,95.0,20.0,15.0,7.0,0.0
6833,93.0,20.0,15.0,7.0,0.0
6834,91.0,20.0,15.0,7.0,0.0
6835,89.0,0.0,15.0,7.0,0.0
6836,88.0,20.0,15.0,7.0,0.0
6837,86.0,20.0,15.0,7.0,0.0
6838,84.0,20.0,15.0,7.0,0.0
6839,83.0,20.0,15.0,7.0,0.0
6840,55.0,12.0,20.0,11.0,0.0
6841,81.0,8.0,15.0,7.0,0.0
6842,55.0,6.0,40.0,10.0,0.0
6843,79.0,12.0,15.0,7.0,0.0
6844,67.0,2.0,20.0,11.0,0.0
6845,77.0,20.0,15.0,7.0,0.0
6846,67.0,12.0,90.0,11.0,0.0
6847,76.0,20.0,15.0,7.0,0.0
6848,60.0,0.0,40.0,10.0,0.0
6849,64.0,8.0,40.0,10.0,0.0
6850,74.0,12.0,15.0,7.0,0.0
6851,72.0,20.0,15.0,7.0,0.0
6852,71.0,20.0,15.0,7.0,0.0
6853,60.0,8.0,40.0,10.0,0.0
6854,64.0,0.0,40.0,10.0,0.0
6855,69.0,0.0,15.0,7.0,0.0
6856,67.0,20.0,15.0,7.0,0.0
6857,43.0,8.0,40.0,10.0,0.0
6858,65.0,20.0,15.0,7.0,0.0
6859,64.0,12.0,15.0,7.0,0.0
6860,62.0,20.0,15.0,7.0,0.0
6861,60.0,20.0,15.0,7.0,0.0
6862,48.0,8.0,40.0,10.0,0.0
6863,52.0,0.0,40.0,10.0,0.0
6864,59.0,12.0,15.0,7.0,0.0
6865,57.0,20.0,15.0,7.0,0.0
6866,55.0,20.0,15.0,7.0,0.0
6867,52.0,8.0,40.0,10.0,0.0
6868,48.0,0.0,40.0,10.0,0.0
6869,53.0,12.0,15.0,7.0,0.0
6870,52.0,20.0,15.0,7.0,0.0
6871,50.0,8.0,15.0,7.0,0.0
6872,43.0,12.0,20.0,12.0,0.0
6873,31.0,6.0,40.0,10.0,0.0
6874,48.0,12.0,15.0,7.0,0.0
6875,55.0,2.0,20.0,12.0,0.0
6876,48.0,28.0,15.0,7.0,0.0
6877,45.0,24.0,20.0,7.0,0.0
6878,38.0,6.0,40.0,10.0,0.0
6879,41.0,0.0,40.0,10.0,0.0
6880,55.0,12.0,90.0,12.0,0.0
6881,43.0,30.0,20.0,7.0,0.0
6882,38.0,0.0,40.0,10.0,0.0
6883,41.0,6.0,40.0,10.0,0.0
6884,45.0,12.0,20.0,7.0,0.0
6885,47.0,78.0,20.0,7.0,0.0
6886,52.0,18.0,90.0,11.0,0.0
6887,72.0,0.0,90.0,11.0,0.0
6888,48.0,0.0,90.0,12.0,0.0
6889,60.0,0.0,90.0,11.0,0.0
6890,72.0,0.0,90.0,1.0,0.0
6891,60.0,0.0,90.0,1.0,0.0
6892,36.0,0.0,90.0,10.0,0.0
6893,40.0,0.0,90.0,10.0,0.0
6894,48.0,0.0,90.0,13.0,0.0
6895,48.0,0.0,90.0,7.0,0.0
6896,72.0,0.0,90.0,0.0,0.0
6897,67.0,0.0,90.0,11.0,0.0
6898,48.0,0.0,90.0,11.0,0.0
6899,60.0,0.0,60.0,4.0,0.0
6900,48.0,24.0,60.0,4.0,0.0
6901,60.0,0.0,20.0,4.0,0.0
6902,48.0,54.0,20.0,4.0,0.0
6903,48.0,60.0,40.0,4.0,0.0
6904,60.0,0.0,40.0,4.0,0.0
6905,60.0,60.0,40.0,4.0,0.0
6906,48.0,0.0,40.0,4.0,0.0
6907,60.0,0.0,40.0,4.0,0.0
6908,48.0,60.0,40.0,4.0,0.0
6909,60.0,108.0,40.0,4.0,0.0
6910,48.0,0.0,40.0,4.0,0.0
6911,72.0,0.0,150.0,0.0,0.0
6912,60.0,0.0,300.0,4.0,0.0
6913,57.0,48.0,90.0,11.0,0.0
6914,57.0,0.0,150.0,13.0,0.0
6915,48.0,0.0,300.0,4.0,0.0
6916,72.0,0.0,150.0,1.0,0.0
6917,84.0,6.0,300.0,0.0,0.0
6918,72.0,0.0,150.0,11.0,0.0
6919,57.0,0.0,150.0,12.0,0.0
6920,60.0,24.0,150.0,11.0,0.0
6921,48.0,36.0,40.0,11.0,0.0
6922,53.0,0.0,150.0,13.0,0.0
6923,69.0,24.0,150.0,1.0,0.0
6924,53.0,0.0,150.0,12.0,0.0
6925,81.0,0.0,150.0,1.0,0.0
6926,69.0,30.0,20.0,11.0,0.0
6927,81.0,0.0,150.0,0.0,0.0
6928,60.0,0.0,150.0,11.0,0.0
6929,53.0,12.0,90.0,11.0,0.0
6930,68.0,30.0,20.0,11.0,0.0
6931,69.0,12.0,20.0,11.0,0.0
6932,71.0,30.0,20.0,11.0,0.0
6933,72.0,0.0,20.0,11.0,0.0
6934,48.0,6.0,40.0,11.0,0.0
6935,69.0,78.0,20.0,11.0,0.0
6936,52.0,0.0,90.0,12.0,0.0
6937,52.0,16.0,90.0,13.0,0.0
6938,79.0,0.0,90.0,1.0,0.0
6939,67.0,0.0,90.0,1.0,0.0
6940,43.0,0.0,60.0,4.0,0.0
6941,55.0,24.0,60.0,4.0,0.0
6942,52.0,0.0,90.0,11.0,0.0
6943,79.0,0.0,90.0,0.0,0.0
6944,67.0,0.0,90.0,11.0,0.0
6945,55.0,0.0,20.0,4.0,0.0
6946,43.0,54.0,20.0,4.0,0.0
6947,43.0,0.0,40.0,4.0,0.0
6948,55.0,60.0,40.0,4.0,0.0
6949,55.0,0.0,40.0,4.0,0.0
6950,43.0,60.0,40.0,4.0,0.0
6951,55.0,0.0,40.0,4.0,0.0
6952,43.0,60.0,40.0,4.0,0.0
6953,43.0,36.0,40.0,4.0,0.0
6954,55.0,0.0,40.0,4.0,0.0
6955,79.0,6.0,300.0,0.0,0.0
6956,77.0,30.0,150.0,1.0,0.0
6957,43.0,0.0,300.0,4.0,0.0
6958,55.0,0.0,300.0,4.0,0.0
6959,86.0,0.0,150.0,0.0,0.0
6960,55.0,0.0,150.0,12.0,0.0
6961,77.0,0.0,150.0,11.0,0.0
6962,55.0,0.0,150.0,13.0,0.0
6963,65.0,0.0,150.0,11.0,0.0
6964,67.0,0.0,300.0,1.0,0.0
6965,47.0,30.0,20.0,11.0,0.0
6966,55.0,30.0,20.0,11.0,0.0
6967,47.0,30.0,20.0,11.0,0.0
6968,55.0,30.0,20.0,11.0,0.0
6969,47.0,0.0,20.0,11.0,0.0
6970,55.0,30.0,20.0,11.0,0.0
6971,47.0,0.0,20.0,11.0,0.0
6972,74.0,0.0,150.0,1.0,0.0
6973,43.0,30.0,150.0,12.0,0.0
6974,83.0,0.0,150.0,0.0,0.0
6975,74.0,0.0,20.0,11.0,0.0
6976,43.0,0.0,150.0,13.0,0.0
6977,62.0,30.0,20.0,11.0,0.0
6978,73.0,0.0,20.0,11.0,0.0
6979,55.0,0.0,20.0,11.0,0.0
6980,61.0,30.0,20.0,11.0,0.0
6981,74.0,0.0,20.0,11.0,0.0
6982,47.0,0.0,20.0,11.0,0.0
6983,62.0,24.0,20.0,11.0,0.0
6984,76.0,0.0,20.0,11.0,0.0
6985,55.0,30.0,20.0,11.0,0.0
6986,64.0,0.0,20.0,11.0,0.0
6987,77.0,0.0,20.0,11.0,0.0
6988,65.0,0.0,20.0,11.0,0.0
6989,47.0,0.0,20.0,11.0,0.0
6990,55.0,0.0,20.0,11.0,0.0
6991,74.0,30.0,20.0,11.0,0.0
6992,62.0,0.0,20.0,11.0,0.0
6993,36.0,30.0,20.0,10.0,0.0
6994,60.0,0.0,90.0,11.0,0.0
6995,72.0,0.0,90.0,11.0,0.0
6996,48.0,12.0,60.0,11.0,0.0
6997,48.0,0.0,90.0,13.0,0.0
6998,48.0,18.0,90.0,12.0,0.0
6999,60.0,0.0,20.0,7.0,0.0
7000,67.0,18.0,20.0,7.0,0.0
7001,43.0,0.0,20.0,10.0,0.0
7002,51.0,0.0,20.0,10.0,0.0
7003,75.0,12.0,20.0,7.0,0.0
7004,43.0,30.0,20.0,10.0,0.0
7005,67.0,0.0,20.0,7.0,0.0
7006,48.0,0.0,20.0,11.0,0.0
7007,48.0,6.0,40.0,11.0,0.0
7008,36.0,0.0,20.0,10.0,0.0
7009,60.0,24.0,20.0,7.0,0.0
7010,67.0,30.0,20.0,7.0,0.0
7011,43.0,0.0,20.0,10.0,0.0
7012,48.0,12.0,90.0,14.0,0.0
7013,60.0,24.0,20.0,7.0,0.0
7014,48.0,6.0,40.0,11.0,0.0
7015,36.0,0.0,20.0,10.0,0.0
7016,36.0,0.0,90.0,14.0,0.0
7017,43.0,30.0,20.0,10.0,0.0
7018,67.0,0.0,20.0,7.0,0.0
7019,51.0,0.0,20.0,10.0,0.0
7020,75.0,12.0,20.0,7.0,0.0
7021,48.0,6.0,40.0,11.0,0.0
7022,43.0,30.0,20.0,10.0,0.0
7023,67.0,0.0,20.0,7.0,0.0
7024,60.0,0.0,20.0,7.0,0.0
7025,36.0,24.0,20.0,10.0,0.0
7026,48.0,6.0,40.0,11.0,0.0
7027,67.0,0.0,20.0,7.0,0.0
7028,43.0,30.0,20.0,10.0,0.0
7029,48.0,12.0,60.0,11.0,0.0
7030,60.0,30.0,20.0,7.0,0.0
7031,36.0,18.0,90.0,14.0,0.0
7032,48.0,0.0,90.0,14.0,0.0
7033,36.0,0.0,20.0,10.0,0.0
7034,43.0,18.0,20.0,10.0,0.0
7035,67.0,0.0,20.0,7.0,0.0
7036,51.0,0.0,20.0,10.0,0.0
7037,75.0,12.0,20.0,7.0,0.0
7038,67.0,0.0,20.0,7.0,0.0
7039,43.0,30.0,20.0,10.0,0.0
7040,48.0,0.0,20.0,11.0,0.0
7041,36.0,0.0,20.0,10.0,0.0
7042,48.0,6.0,40.0,11.0,0.0
7043,60.0,24.0,20.0,7.0,0.0
7044,43.0,0.0,20.0,10.0,0.0
7045,67.0,30.0,20.0,7.0,0.0
7046,60.0,24.0,20.0,7.0,0.0
7047,36.0,0.0,20.0,10.0,0.0
7048,36.0,12.0,90.0,14.0,0.0
7049,48.0,6.0,40.0,11.0,0.0
7050,48.0,0.0,90.0,14.0,0.0
7051,43.0,0.0,20.0,10.0,0.0
7052,67.0,30.0,20.0,7.0,0.0
7053,48.0,6.0,40.0,11.0,0.0
7054,75.0,12.0,20.0,7.0,0.0
7055,51.0,0.0,20.0,10.0,0.0
7056,67.0,30.0,20.0,7.0,0.0
7057,43.0,0.0,20.0,10.0,0.0
7058,48.0,6.0,40.0,11.0,0.0
7059,60.0,0.0,20.0,7.0,0.0
7060,36.0,24.0,20.0,10.0,0.0
7061,43.0,30.0,20.0,10.0,0.0
7062,67.0,0.0,20.0,7.0,0.0
7063,65.0,0.0,20.0,7.0,0.0
7064,68.0,12.0,60.0,11.0,0.0
7065,41.0,0.0,90.0,14.0,0.0
7066,53.0,18.0,90.0,14.0,0.0
7067,56.0,0.0,60.0,11.0,0.0
7068,41.0,30.0,20.0,10.0,0.0
7069,72.0,0.0,20.0,7.0,0.0
7070,48.0,18.0,20.0,10.0,0.0
7071,80.0,0.0,20.0,7.0,0.0
7072,56.0,12.0,20.0,10.0,0.0
7073,56.0,0.0,20.0,11.0,0.0
7074,72.0,30.0,20.0,7.0,0.0
7075,48.0,0.0,20.0,10.0,0.0
7076,68.0,0.0,20.0,11.0,0.0
7077,68.0,6.0,40.0,11.0,0.0
7078,41.0,0.0,20.0,10.0,0.0
7079,65.0,24.0,20.0,7.0,0.0
7080,56.0,0.0,40.0,11.0,0.0
7081,48.0,30.0,20.0,10.0,0.0
7082,72.0,0.0,20.0,7.0,0.0
7083,41.0,12.0,90.0,14.0,0.0
7084,41.0,0.0,20.0,10.0,0.0
7085,53.0,0.0,90.0,14.0,0.0
7086,68.0,0.0,40.0,11.0,0.0
7087,56.0,6.0,40.0,11.0,0.0
7088,65.0,24.0,20.0,7.0,0.0
7089,48.0,0.0,20.0,10.0,0.0
7090,72.0,30.0,20.0,7.0,0.0
7091,80.0,0.0,20.0,7.0,0.0
7092,68.0,6.0,40.0,11.0,0.0
7093,56.0,0.0,40.0,11.0,0.0
7094,56.0,12.0,20.0,10.0,0.0
7095,48.0,0.0,20.0,10.0,0.0
7096,72.0,30.0,20.0,7.0,0.0
7097,56.0,0.0,40.0,11.0,0.0
7098,68.0,6.0,40.0,11.0,0.0
7099,41.0,0.0,20.0,10.0,0.0
7100,65.0,24.0,20.0,7.0,0.0
7101,48.0,0.0,20.0,10.0,0.0
7102,72.0,30.0,20.0,7.0,0.0
7103,53.0,0.0,90.0,14.0,0.0
7104,68.0,12.0,60.0,11.0,0.0
7105,56.0,0.0,60.0,11.0,0.0
7106,41.0,30.0,20.0,10.0,0.0
7107,41.0,18.0,90.0,14.0,0.0
7108,65.0,0.0,20.0,7.0,0.0
7109,72.0,0.0,20.0,7.0,0.0
7110,48.0,18.0,20.0,10.0,0.0
7111,56.0,12.0,20.0,10.0,0.0
7112,80.0,0.0,20.0,7.0,0.0
7113,72.0,0.0,20.0,7.0,0.0
7114,48.0,0.0,20.0,10.0,0.0
7115,56.0,0.0,20.0,11.0,0.0
7116,68.0,30.0,20.0,11.0,0.0
7117,68.0,0.0,40.0,11.0,0.0
7118,56.0,6.0,40.0,11.0,0.0
7119,65.0,24.0,20.0,7.0,0.0
7120,41.0,0.0,20.0,10.0,0.0
7121,72.0,30.0,20.0,7.0,0.0
7122,48.0,0.0,20.0,10.0,0.0
7123,65.0,0.0,20.0,7.0,0.0
7124,53.0,12.0,90.0,14.0,0.0
7125,41.0,0.0,90.0,14.0,0.0
7126,41.0,24.0,20.0,10.0,0.0
7127,56.0,0.0,40.0,11.0,0.0
7128,68.0,6.0,40.0,11.0,0.0
7129,72.0,30.0,20.0,7.0,0.0
7130,48.0,0.0,20.0,10.0,0.0
7131,68.0,6.0,40.0,11.0,0.0
7132,80.0,12.0,20.0,7.0,0.0
7133,56.0,0.0,20.0,10.0,0.0
7134,56.0,0.0,40.0,11.0,0.0
7135,48.0,30.0,20.0,10.0,0.0
7136,72.0,0.0,20.0,7.0,0.0
7137,41.0,0.0,20.0,10.0,0.0
7138,68.0,6.0,40.0,11.0,0.0
7139,56.0,0.0,40.0,11.0,0.0
7140,65.0,24.0,20.0,7.0,0.0
7141,48.0,0.0,20.0,10.0,0.0
7142,72.0,30.0,20.0,7.0,0.0
7143,46.0,0.0,90.0,14.0,0.0
7144,65.0,0.0,20.0,7.0,0.0
7145,41.0,30.0,20.0,10.0,0.0
7146,46.0,12.0,60.0,11.0,0.0
7147,34.0,18.0,90.0,14.0,0.0
7148,70.0,18.0,20.0,7.0,0.0
7149,46.0,0.0,20.0,10.0,0.0
7150,56.0,0.0,20.0,10.0,0.0
7151,80.0,12.0,20.0,7.0,0.0
7152,70.0,0.0,20.0,7.0,0.0
7153,46.0,30.0,20.0,10.0,0.0
7154,46.0,0.0,20.0,11.0,0.0
7155,41.0,0.0,20.0,10.0,0.0
7156,46.0,6.0,40.0,11.0,0.0
7157,65.0,24.0,20.0,7.0,0.0
7158,70.0,0.0,20.0,7.0,0.0
7159,46.0,30.0,20.0,10.0,0.0
7160,39.0,0.0,20.0,10.0,0.0
7161,51.0,0.0,120.0,14.0,0.0
7162,39.0,2.0,120.0,14.0,0.0
7163,66.0,12.0,60.0,11.0,0.0
7164,54.0,0.0,60.0,11.0,0.0
7165,63.0,30.0,20.0,7.0,0.0
7166,70.0,0.0,20.0,7.0,0.0
7167,46.0,18.0,20.0,10.0,0.0
7168,78.0,0.0,20.0,7.0,0.0
7169,54.0,28.0,20.0,10.0,0.0
7170,66.0,0.0,20.0,11.0,0.0
7171,70.0,0.0,20.0,7.0,0.0
7172,46.0,0.0,20.0,10.0,0.0
7173,54.0,30.0,20.0,11.0,0.0
7174,54.0,0.0,40.0,11.0,0.0
7175,66.0,0.0,20.0,7.0,0.0
7176,39.0,24.0,20.0,10.0,0.0
7177,66.0,6.0,40.0,11.0,0.0
7178,70.0,30.0,20.0,7.0,0.0
7179,46.0,0.0,20.0,10.0,0.0
7180,39.0,0.0,20.0,10.0,0.0
7181,32.0,18.0,90.0,14.0,0.0
7182,44.0,12.0,60.0,11.0,0.0
7183,63.0,30.0,20.0,7.0,0.0
7184,44.0,0.0,90.0,14.0,0.0
7185,44.0,0.0,20.0,10.0,0.0
7186,68.0,18.0,20.0,7.0,0.0
7187,78.0,12.0,20.0,7.0,0.0
7188,54.0,0.0,20.0,10.0,0.0
7189,44.0,0.0,20.0,10.0,0.0
7190,44.0,30.0,20.0,11.0,0.0
7191,68.0,0.0,20.0,7.0,0.0
7192,39.0,24.0,20.0,10.0,0.0
7193,44.0,6.0,40.0,11.0,0.0
7194,63.0,0.0,20.0,7.0,0.0
7195,44.0,0.0,20.0,10.0,0.0
7196,68.0,30.0,20.0,7.0,0.0
7197,49.0,0.0,120.0,14.0,0.0
7198,37.0,2.0,120.0,14.0,0.0
7199,52.0,12.0,60.0,11.0,0.0
7200,64.0,0.0,60.0,11.0,0.0
7201,37.0,30.0,20.0,10.0,0.0
7202,61.0,0.0,20.0,7.0,0.0
7203,68.0,0.0,20.0,7.0,0.0
7204,44.0,18.0,20.0,10.0,0.0
7205,76.0,0.0,20.0,7.0,0.0
7206,52.0,28.0,20.0,10.0,0.0
7207,52.0,0.0,20.0,11.0,0.0
7208,68.0,0.0,20.0,7.0,0.0
7209,64.0,0.0,20.0,11.0,0.0
7210,44.0,30.0,20.0,10.0,0.0
7211,37.0,0.0,20.0,10.0,0.0
7212,52.0,6.0,40.0,11.0,0.0
7213,64.0,0.0,40.0,11.0,0.0
7214,61.0,24.0,20.0,7.0,0.0
7215,44.0,30.0,20.0,10.0,0.0
7216,68.0,0.0,20.0,7.0,0.0
7217,61.0,0.0,20.0,7.0,0.0
7218,37.0,0.0,90.0,14.0,0.0
7219,49.0,18.0,90.0,14.0,0.0
7220,49.0,12.0,60.0,11.0,0.0
7221,37.0,30.0,20.0,10.0,0.0
7222,68.0,0.0,20.0,7.0,0.0
7223,44.0,18.0,20.0,10.0,0.0
7224,52.0,0.0,20.0,10.0,0.0
7225,76.0,12.0,20.0,7.0,0.0
7226,49.0,0.0,20.0,11.0,0.0
7227,68.0,30.0,20.0,7.0,0.0
7228,44.0,0.0,20.0,10.0,0.0
7229,61.0,24.0,20.0,7.0,0.0
7230,37.0,0.0,20.0,10.0,0.0
7231,49.0,6.0,40.0,11.0,0.0
7232,68.0,0.0,20.0,7.0,0.0
7233,44.0,30.0,20.0,10.0,0.0
7234,64.0,0.0,60.0,11.0,0.0
7235,37.0,0.0,20.0,10.0,0.0
7236,52.0,12.0,60.0,11.0,0.0
7237,61.0,30.0,20.0,7.0,0.0
7238,49.0,18.0,90.0,14.0,0.0
7239,37.0,0.0,90.0,14.0,0.0
7240,44.0,0.0,20.0,10.0,0.0
7241,68.0,18.0,20.0,7.0,0.0
7242,76.0,12.0,20.0,7.0,0.0
7243,52.0,0.0,20.0,10.0,0.0
7244,44.0,0.0,20.0,10.0,0.0
7245,68.0,0.0,20.0,7.0,0.0
7246,52.0,30.0,20.0,11.0,0.0
7247,64.0,0.0,20.0,11.0,0.0
7248,64.0,6.0,40.0,11.0,0.0
7249,37.0,0.0,20.0,10.0,0.0
7250,61.0,24.0,20.0,7.0,0.0
7251,52.0,0.0,40.0,11.0,0.0
7252,44.0,0.0,20.0,10.0,0.0
7253,68.0,30.0,20.0,7.0,0.0
7254,61.0,0.0,20.0,7.0,0.0
7255,34.0,30.0,20.0,10.0,0.0
7256,46.0,18.0,90.0,14.0,0.0
7257,46.0,12.0,60.0,11.0,0.0
7258,34.0,0.0,90.0,14.0,0.0
7259,46.0,0.0,20.0,10.0,0.0
7260,70.0,18.0,20.0,7.0,0.0
7261,76.0,0.0,20.0,7.0,0.0
7262,52.0,12.0,20.0,10.0,0.0
7263,70.0,0.0,20.0,7.0,0.0
7264,46.0,30.0,20.0,10.0,0.0
7265,46.0,0.0,20.0,11.0,0.0
7266,61.0,0.0,20.0,7.0,0.0
7267,46.0,6.0,40.0,11.0,0.0
7268,36.0,13.0,120.0,10.0,0.0
7269,34.0,24.0,20.0,10.0,0.0
7270,46.0,0.0,20.0,10.0,0.0
7271,70.0,30.0,20.0,7.0,0.0
7272,32.0,18.0,90.0,14.0,0.0
7273,32.0,0.0,20.0,10.0,0.0
7274,44.0,0.0,90.0,14.0,0.0
7275,52.0,0.0,60.0,11.0,0.0
7276,73.0,30.0,20.0,7.0,0.0
7277,64.0,12.0,60.0,11.0,0.0
7278,82.0,0.0,20.0,7.0,0.0
7279,44.0,5.0,20.0,10.0,0.0
7280,49.0,0.0,20.0,10.0,0.0
7281,88.0,12.0,20.0,7.0,0.0
7282,52.0,0.0,20.0,11.0,0.0
7283,44.0,0.0,20.0,10.0,0.0
7284,64.0,30.0,20.0,11.0,0.0
7285,82.0,0.0,20.0,7.0,0.0
7286,64.0,6.0,40.0,11.0,0.0
7287,32.0,24.0,20.0,10.0,0.0
7288,52.0,0.0,40.0,11.0,0.0
7289,73.0,0.0,20.0,7.0,0.0
7290,82.0,0.0,20.0,7.0,0.0
7291,44.0,30.0,20.0,10.0,0.0
7292,42.0,0.0,60.0,13.0,0.0
7293,42.0,0.0,60.0,12.0,0.0
7294,49.0,12.0,60.0,11.0,0.0
7295,30.0,18.0,90.0,10.0,0.0
7296,88.0,30.0,20.0,7.0,0.0
7297,42.0,0.0,90.0,10.0,0.0
7298,58.0,0.0,60.0,11.0,0.0
7299,64.0,0.0,60.0,11.0,0.0
7300,82.0,18.0,20.0,7.0,0.0
7301,73.0,12.0,20.0,7.0,0.0
7302,49.0,30.0,20.0,11.0,0.0
7303,42.0,0.0,20.0,13.0,0.0
7304,58.0,0.0,20.0,11.0,0.0
7305,64.0,0.0,20.0,11.0,0.0
7306,82.0,0.0,20.0,7.0,0.0
7307,42.0,0.0,20.0,12.0,0.0
7308,88.0,24.0,20.0,7.0,0.0
7309,42.0,0.0,40.0,12.0,0.0
7310,49.0,6.0,40.0,11.0,0.0
7311,64.0,0.0,40.0,11.0,0.0
7312,58.0,0.0,40.0,11.0,0.0
7313,42.0,0.0,40.0,13.0,0.0
7314,82.0,30.0,20.0,7.0,0.0
7315,64.0,0.0,40.0,11.0,0.0
7316,73.0,24.0,20.0,7.0,0.0
7317,42.0,0.0,40.0,12.0,0.0
7318,42.0,0.0,40.0,13.0,0.0
7319,58.0,0.0,40.0,11.0,0.0
7320,49.0,6.0,40.0,11.0,0.0
7321,70.0,30.0,20.0,7.0,0.0
7322,42.0,6.0,40.0,12.0,0.0
7323,64.0,0.0,40.0,11.0,0.0
7324,49.0,0.0,40.0,11.0,0.0
7325,61.0,24.0,20.0,7.0,0.0
7326,42.0,0.0,40.0,13.0,0.0
7327,58.0,0.0,40.0,11.0,0.0
7328,70.0,30.0,20.0,7.0,0.0
7329,76.0,24.0,20.0,7.0,0.0
7330,58.0,0.0,40.0,11.0,0.0
7331,64.0,0.0,40.0,11.0,0.0
7332,42.0,0.0,40.0,13.0,0.0
7333,42.0,6.0,40.0,12.0,0.0
7334,49.0,0.0,40.0,11.0,0.0
7335,70.0,30.0,20.0,7.0,0.0
7336,49.0,0.0,60.0,11.0,0.0
7337,61.0,30.0,20.0,7.0,0.0
7338,64.0,0.0,60.0,11.0,0.0
7339,42.0,0.0,60.0,13.0,0.0
7340,42.0,0.0,60.0,12.0,0.0
7341,58.0,12.0,60.0,11.0,0.0
7342,58.0,18.0,20.0,7.0,0.0
7343,49.0,30.0,20.0,7.0,0.0
7344,58.0,0.0,20.0,11.0,0.0
7345,64.0,0.0,20.0,11.0,0.0
7346,58.0,0.0,20.0,7.0,0.0
7347,49.0,0.0,20.0,11.0,0.0
7348,42.0,0.0,20.0,12.0,0.0
7349,42.0,30.0,20.0,13.0,0.0
7350,49.0,0.0,40.0,11.0,0.0
7351,64.0,0.0,40.0,11.0,0.0
7352,42.0,0.0,40.0,12.0,0.0
7353,42.0,0.0,40.0,13.0,0.0
7354,58.0,6.0,40.0,11.0,0.0
7355,61.0,24.0,20.0,7.0,0.0
7356,58.0,30.0,20.0,7.0,0.0
7357,42.0,6.0,40.0,13.0,0.0
7358,42.0,0.0,40.0,12.0,0.0
7359,58.0,0.0,40.0,11.0,0.0
7360,49.0,24.0,20.0,10.0,0.0
7361,64.0,0.0,40.0,11.0,0.0
7362,49.0,0.0,40.0,11.0,0.0
7363,46.0,30.0,20.0,10.0,0.0
7364,42.0,0.0,40.0,12.0,0.0
7365,37.0,24.0,20.0,10.0,0.0
7366,42.0,0.0,40.0,13.0,0.0
7367,49.0,6.0,40.0,11.0,0.0
7368,58.0,0.0,40.0,11.0,0.0
7369,64.0,0.0,40.0,11.0,0.0
7370,46.0,30.0,20.0,10.0,0.0
7371,64.0,0.0,40.0,11.0,0.0
7372,58.0,0.0,40.0,11.0,0.0
7373,49.0,24.0,20.0,10.0,0.0
7374,42.0,0.0,40.0,13.0,0.0
7375,42.0,6.0,40.0,12.0,0.0
7376,49.0,0.0,40.0,11.0,0.0
7377,46.0,30.0,20.0,10.0,0.0
7378,61.0,0.0,60.0,5.0,0.0
7379,37.0,30.0,20.0,10.0,0.0
7380,70.0,0.0,60.0,3.0,0.0
7381,64.0,0.0,60.0,3.0,0.0
7382,54.0,0.0,60.0,5.0,0.0
7383,76.0,12.0,60.0,1.0,0.0
7384,46.0,18.0,20.0,10.0,0.0
7385,49.0,30.0,20.0,10.0,0.0
7386,70.0,0.0,20.0,3.0,0.0
7387,46.0,0.0,20.0,10.0,0.0
7388,64.0,30.0,20.0,3.0,0.0
7389,61.0,0.0,20.0,5.0,0.0
7390,54.0,0.0,20.0,5.0,0.0
7391,76.0,0.0,20.0,1.0,0.0
7392,37.0,24.0,20.0,10.0,0.0
7393,76.0,0.0,40.0,1.0,0.0
7394,54.0,0.0,40.0,5.0,0.0
7395,64.0,6.0,40.0,3.0,0.0
7396,70.0,0.0,40.0,3.0,0.0
7397,61.0,0.0,40.0,5.0,0.0
7398,46.0,30.0,20.0,10.0,0.0
7399,64.0,0.0,40.0,3.0,0.0
7400,76.0,0.0,40.0,1.0,0.0
7401,70.0,6.0,40.0,3.0,0.0
7402,61.0,0.0,40.0,5.0,0.0
7403,49.0,24.0,20.0,7.0,0.0
7404,54.0,0.0,40.0,5.0,0.0
7405,58.0,30.0,20.0,7.0,0.0
7406,61.0,0.0,40.0,5.0,0.0
7407,54.0,6.0,40.0,5.0,0.0
7408,64.0,24.0,20.0,7.0,0.0
7409,64.0,0.0,40.0,3.0,0.0
7410,70.0,0.0,40.0,3.0,0.0
7411,76.0,0.0,40.0,1.0,0.0
7412,58.0,30.0,20.0,7.0,0.0
7413,49.0,24.0,20.0,7.0,0.0
7414,61.0,0.0,40.0,5.0,0.0
7415,54.0,6.0,40.0,5.0,0.0
7416,76.0,0.0,40.0,1.0,0.0
7417,64.0,0.0,40.0,3.0,0.0
7418,70.0,0.0,40.0,3.0,0.0
7419,58.0,30.0,20.0,7.0,0.0
7420,61.0,0.0,60.0,5.0,0.0
7421,54.0,0.0,60.0,5.0,0.0
7422,70.0,0.0,60.0,3.0,0.0
7423,76.0,12.0,60.0,1.0,0.0
7424,61.0,30.0,20.0,7.0,0.0
7425,64.0,0.0,60.0,3.0,0.0
7426,70.0,18.0,20.0,7.0,0.0
7427,76.0,30.0,20.0,7.0,0.0
7428,70.0,0.0,20.0,3.0,0.0
7429,64.0,30.0,20.0,3.0,0.0
7430,61.0,0.0,20.0,5.0,0.0
7431,54.0,0.0,20.0,5.0,0.0
7432,76.0,0.0,20.0,1.0,0.0
7433,70.0,0.0,20.0,7.0,0.0
7434,64.0,0.0,40.0,3.0,0.0
7435,61.0,0.0,40.0,5.0,0.0
7436,54.0,0.0,40.0,5.0,0.0
7437,76.0,6.0,40.0,1.0,0.0
7438,61.0,24.0,20.0,7.0,0.0
7439,70.0,0.0,40.0,3.0,0.0
7440,70.0,30.0,20.0,7.0,0.0
7441,61.0,0.0,40.0,5.0,0.0
7442,64.0,0.0,40.0,3.0,0.0
7443,70.0,6.0,40.0,3.0,0.0
7444,54.0,0.0,40.0,5.0,0.0
7445,73.0,24.0,20.0,7.0,0.0
7446,76.0,0.0,40.0,1.0,0.0
7447,82.0,30.0,20.0,7.0,0.0
7448,70.0,0.0,40.0,3.0,0.0
7449,88.0,24.0,20.0,7.0,0.0
7450,64.0,6.0,40.0,3.0,0.0
7451,76.0,0.0,40.0,1.0,0.0
7452,54.0,0.0,40.0,5.0,0.0
7453,61.0,0.0,40.0,5.0,0.0
7454,82.0,30.0,20.0,7.0,0.0
7455,76.0,6.0,40.0,1.0,0.0
7456,61.0,0.0,40.0,5.0,0.0
7457,54.0,0.0,40.0,5.0,0.0
7458,64.0,0.0,40.0,3.0,0.0
7459,70.0,0.0,40.0,3.0,0.0
7460,73.0,24.0,20.0,7.0,0.0
7461,82.0,30.0,20.0,7.0,0.0
7462,30.0,18.0,90.0,10.0,0.0
7463,49.0,12.0,60.0,11.0,0.0
7464,58.0,0.0,60.0,11.0,0.0
7465,42.0,0.0,60.0,13.0,0.0
7466,88.0,30.0,20.0,7.0,0.0
7467,64.0,0.0,60.0,11.0,0.0
7468,42.0,0.0,60.0,12.0,0.0
7469,82.0,18.0,20.0,7.0,0.0
7470,73.0,12.0,20.0,7.0,0.0
7471,64.0,0.0,20.0,11.0,0.0
7472,42.0,30.0,20.0,12.0,0.0
7473,58.0,0.0,20.0,11.0,0.0
7474,82.0,0.0,20.0,7.0,0.0
7475,49.0,0.0,20.0,11.0,0.0
7476,42.0,0.0,20.0,13.0,0.0
7477,49.0,6.0,40.0,11.0,0.0
7478,64.0,0.0,40.0,11.0,0.0
7479,58.0,0.0,40.0,11.0,0.0
7480,42.0,0.0,40.0,12.0,0.0
7481,88.0,24.0,20.0,7.0,0.0
7482,42.0,0.0,40.0,13.0,0.0
7483,82.0,30.0,20.0,7.0,0.0
7484,49.0,0.0,40.0,11.0,0.0
7485,58.0,0.0,40.0,11.0,0.0
7486,73.0,24.0,20.0,7.0,0.0
7487,42.0,6.0,40.0,12.0,0.0
7488,64.0,0.0,40.0,11.0,0.0
7489,42.0,0.0,40.0,13.0,0.0
7490,70.0,30.0,20.0,7.0,0.0
7491,49.0,6.0,40.0,11.0,0.0
7492,58.0,0.0,40.0,11.0,0.0
7493,42.0,0.0,40.0,12.0,0.0
7494,42.0,0.0,40.0,13.0,0.0
7495,64.0,0.0,40.0,11.0,0.0
7496,61.0,24.0,20.0,7.0,0.0
7497,70.0,30.0,20.0,7.0,0.0
7498,42.0,0.0,40.0,13.0,0.0
7499,76.0,24.0,20.0,7.0,0.0
7500,64.0,0.0,40.0,11.0,0.0
7501,42.0,6.0,40.0,12.0,0.0
7502,58.0,0.0,40.0,11.0,0.0
7503,49.0,0.0,40.0,11.0,0.0
7504,70.0,30.0,20.0,7.0,0.0
7505,49.0,0.0,60.0,11.0,0.0
7506,58.0,12.0,60.0,11.0,0.0
7507,42.0,0.0,60.0,13.0,0.0
7508,61.0,30.0,20.0,7.0,0.0
7509,64.0,0.0,60.0,11.0,0.0
7510,42.0,0.0,60.0,12.0,0.0
7511,58.0,18.0,20.0,7.0,0.0
7512,49.0,30.0,20.0,7.0,0.0
7513,58.0,30.0,20.0,7.0,0.0
7514,42.0,0.0,20.0,12.0,0.0
7515,64.0,0.0,20.0,11.0,0.0
7516,42.0,0.0,20.0,13.0,0.0
7517,49.0,0.0,20.0,11.0,0.0
7518,58.0,0.0,20.0,11.0,0.0
7519,49.0,0.0,40.0,11.0,0.0
7520,42.0,0.0,40.0,13.0,0.0
7521,42.0,0.0,40.0,12.0,0.0
7522,64.0,0.0,40.0,11.0,0.0
7523,64.0,24.0,20.0,7.0,0.0
7524,58.0,6.0,40.0,11.0,0.0
7525,58.0,30.0,20.0,7.0,0.0
7526,49.0,0.0,40.0,11.0,0.0
7527,58.0,6.0,40.0,11.0,0.0
7528,49.0,24.0,20.0,10.0,0.0
7529,42.0,0.0,40.0,12.0,0.0
7530,64.0,0.0,40.0,11.0,0.0
7531,42.0,0.0,40.0,13.0,0.0
7532,46.0,30.0,20.0,10.0,0.0
7533,64.0,6.0,40.0,11.0,0.0
7534,37.0,24.0,20.0,10.0,0.0
7535,42.0,0.0,40.0,13.0,0.0
7536,49.0,0.0,40.0,11.0,0.0
7537,58.0,0.0,40.0,11.0,0.0
7538,42.0,0.0,40.0,12.0,0.0
7539,46.0,30.0,20.0,10.0,0.0
7540,64.0,0.0,40.0,11.0,0.0
7541,49.0,0.0,40.0,11.0,0.0
7542,49.0,24.0,20.0,10.0,0.0
7543,42.0,6.0,40.0,13.0,0.0
7544,58.0,0.0,40.0,11.0,0.0
7545,42.0,0.0,40.0,12.0,0.0
7546,46.0,30.0,20.0,10.0,0.0
7547,37.0,30.0,20.0,10.0,0.0
7548,76.0,0.0,60.0,1.0,0.0
7549,54.0,12.0,60.0,5.0,0.0
7550,61.0,0.0,60.0,5.0,0.0
7551,70.0,0.0,60.0,3.0,0.0
7552,64.0,0.0,60.0,3.0,0.0
7553,46.0,18.0,20.0,10.0,0.0
7554,52.0,30.0,20.0,10.0,0.0
7555,46.0,0.0,20.0,10.0,0.0
7556,76.0,30.0,20.0,1.0,0.0
7557,64.0,0.0,20.0,3.0,0.0
7558,70.0,0.0,20.0,3.0,0.0
7559,54.0,0.0,20.0,5.0,0.0
7560,61.0,0.0,20.0,5.0,0.0
7561,76.0,0.0,40.0,1.0,0.0
7562,54.0,0.0,40.0,5.0,0.0
7563,37.0,24.0,20.0,10.0,0.0
7564,64.0,0.0,40.0,3.0,0.0
7565,61.0,0.0,40.0,5.0,0.0
7566,70.0,6.0,40.0,3.0,0.0
7567,46.0,30.0,20.0,10.0,0.0
7568,76.0,6.0,40.0,1.0,0.0
7569,49.0,24.0,20.0,7.0,0.0
7570,70.0,0.0,40.0,3.0,0.0
7571,64.0,0.0,40.0,3.0,0.0
7572,61.0,0.0,40.0,5.0,0.0
7573,54.0,0.0,40.0,5.0,0.0
7574,58.0,30.0,20.0,7.0,0.0
7575,61.0,0.0,40.0,5.0,0.0
7576,70.0,0.0,40.0,3.0,0.0
7577,64.0,0.0,40.0,3.0,0.0
7578,54.0,0.0,40.0,5.0,0.0
7579,76.0,6.0,40.0,1.0,0.0
7580,64.0,24.0,20.0,7.0,0.0
7581,58.0,30.0,20.0,7.0,0.0
7582,49.0,24.0,20.0,7.0,0.0
7583,64.0,0.0,40.0,3.0,0.0
7584,76.0,0.0,40.0,1.0,0.0
7585,61.0,0.0,40.0,5.0,0.0
7586,54.0,6.0,40.0,5.0,0.0
7587,70.0,0.0,40.0,3.0,0.0
7588,58.0,30.0,20.0,7.0,0.0
7589,64.0,0.0,60.0,3.0,0.0
7590,54.0,0.0,60.0,5.0,0.0
7591,61.0,0.0,60.0,5.0,0.0
7592,70.0,0.0,60.0,3.0,0.0
7593,61.0,30.0,20.0,7.0,0.0
7594,76.0,12.0,60.0,1.0,0.0
7595,70.0,18.0,20.0,7.0,0.0
7596,76.0,30.0,20.0,7.0,0.0
7597,64.0,0.0,20.0,3.0,0.0
7598,70.0,30.0,20.0,3.0,0.0
7599,61.0,0.0,20.0,5.0,0.0
7600,70.0,0.0,20.0,7.0,0.0
7601,54.0,0.0,20.0,5.0,0.0
7602,76.0,0.0,20.0,1.0,0.0
7603,76.0,0.0,40.0,1.0,0.0
7604,61.0,24.0,20.0,7.0,0.0
7605,70.0,0.0,40.0,3.0,0.0
7606,54.0,0.0,40.0,5.0,0.0
7607,61.0,0.0,40.0,5.0,0.0
7608,64.0,6.0,40.0,3.0,0.0
7609,70.0,30.0,20.0,7.0,0.0
7610,64.0,0.0,40.0,3.0,0.0
7611,76.0,0.0,40.0,1.0,0.0
7612,70.0,0.0,40.0,3.0,0.0
7613,61.0,0.0,40.0,5.0,0.0
7614,54.0,6.0,40.0,5.0,0.0
7615,73.0,24.0,20.0,7.0,0.0
7616,82.0,30.0,20.0,7.0,0.0
7617,61.0,0.0,40.0,5.0,0.0
7618,88.0,24.0,20.0,7.0,0.0
7619,54.0,0.0,40.0,5.0,0.0
7620,76.0,0.0,40.0,1.0,0.0
7621,70.0,6.0,40.0,3.0,0.0
7622,64.0,0.0,40.0,3.0,0.0
7623,82.0,30.0,20.0,7.0,0.0
7624,70.0,6.0,40.0,3.0,0.0
7625,64.0,0.0,40.0,3.0,0.0
7626,76.0,0.0,40.0,1.0,0.0
7627,54.0,0.0,40.0,5.0,0.0
7628,61.0,0.0,40.0,5.0,0.0
7629,73.0,24.0,20.0,7.0,0.0
7630,82.0,30.0,20.0,7.0,0.0
7631,61.0,0.0,60.0,5.0,0.0
7632,88.0,0.0,20.0,7.0,0.0
7633,70.0,0.0,60.0,3.0,0.0
7634,76.0,0.0,60.0,1.0,0.0
7635,54.0,12.0,60.0,5.0,0.0
7636,64.0,0.0,60.0,3.0,0.0
7637,42.0,30.0,20.0,10.0,0.0
7638,82.0,0.0,20.0,7.0,0.0
7639,46.0,18.0,20.0,10.0,0.0
7640,49.0,0.0,20.0,10.0,0.0
7641,73.0,30.0,20.0,7.0,0.0
7642,82.0,0.0,20.0,7.0,0.0
7643,76.0,30.0,20.0,1.0,0.0
7644,61.0,0.0,20.0,5.0,0.0
7645,52.0,0.0,20.0,10.0,0.0
7646,54.0,0.0,20.0,5.0,0.0
7647,64.0,0.0,20.0,3.0,0.0
7648,70.0,0.0,20.0,3.0,0.0
7649,76.0,0.0,40.0,1.0,0.0
7650,54.0,24.0,20.0,10.0,0.0
7651,70.0,0.0,40.0,3.0,0.0
7652,54.0,0.0,40.0,5.0,0.0
7653,64.0,6.0,40.0,3.0,0.0
7654,61.0,0.0,40.0,5.0,0.0
7655,88.0,0.0,20.0,7.0,0.0
7656,58.0,30.0,20.0,10.0,0.0
7657,82.0,0.0,20.0,7.0,0.0
7658,73.0,0.0,20.0,7.0,0.0
7659,42.0,12.0,60.0,13.0,0.0
7660,58.0,0.0,60.0,11.0,0.0
7661,49.0,0.0,60.0,11.0,0.0
7662,61.0,30.0,20.0,10.0,0.0
7663,42.0,0.0,60.0,12.0,0.0
7664,64.0,0.0,60.0,11.0,0.0
7665,64.0,18.0,20.0,10.0,0.0
7666,82.0,0.0,20.0,7.0,0.0
7667,54.0,30.0,20.0,10.0,0.0
7668,88.0,0.0,20.0,7.0,0.0
7669,58.0,0.0,20.0,10.0,0.0
7670,58.0,0.0,20.0,11.0,0.0
7671,42.0,0.0,20.0,12.0,0.0
7672,64.0,30.0,20.0,11.0,0.0
7673,49.0,0.0,20.0,11.0,0.0
7674,82.0,0.0,20.0,7.0,0.0
7675,42.0,0.0,20.0,13.0,0.0
7676,42.0,0.0,40.0,13.0,0.0
7677,58.0,0.0,40.0,11.0,0.0
7678,42.0,0.0,40.0,12.0,0.0
7679,73.0,24.0,20.0,7.0,0.0
7680,64.0,0.0,40.0,11.0,0.0
7681,61.0,0.0,20.0,10.0,0.0
7682,49.0,6.0,40.0,11.0,0.0
7683,64.0,30.0,20.0,10.0,0.0
7684,82.0,0.0,20.0,7.0,0.0
7685,64.0,0.0,60.0,3.0,0.0
7686,88.0,0.0,20.0,7.0,0.0
7687,61.0,0.0,60.0,5.0,0.0
7688,54.0,0.0,60.0,5.0,0.0
7689,76.0,12.0,60.0,1.0,0.0
7690,54.0,30.0,20.0,10.0,0.0
7691,70.0,0.0,60.0,3.0,0.0
7692,58.0,18.0,20.0,10.0,0.0
7693,82.0,0.0,20.0,7.0,0.0
7694,61.0,30.0,20.0,10.0,0.0
7695,73.0,0.0,20.0,7.0,0.0
7696,64.0,0.0,20.0,10.0,0.0
7697,61.0,0.0,20.0,5.0,0.0
7698,82.0,0.0,20.0,7.0,0.0
7699,76.0,0.0,20.0,1.0,0.0
7700,64.0,0.0,20.0,3.0,0.0
7701,70.0,30.0,20.0,3.0,0.0
7702,54.0,0.0,20.0,5.0,0.0
7703,54.0,0.0,40.0,5.0,0.0
7704,61.0,6.0,40.0,5.0,0.0
7705,54.0,24.0,20.0,10.0,0.0
7706,64.0,0.0,40.0,3.0,0.0
7707,76.0,0.0,40.0,1.0,0.0
7708,70.0,0.0,40.0,3.0,0.0
7709,88.0,0.0,20.0,7.0,0.0
7710,58.0,0.0,20.0,10.0,0.0
7711,82.0,30.0,20.0,7.0,0.0
7712,42.0,0.0,60.0,12.0,0.0
7713,58.0,0.0,60.0,11.0,0.0
7714,61.0,30.0,20.0,10.0,0.0
7715,73.0,0.0,20.0,7.0,0.0
7716,42.0,0.0,60.0,13.0,0.0
7717,64.0,12.0,60.0,11.0,0.0
7718,49.0,0.0,60.0,11.0,0.0
7719,82.0,18.0,20.0,7.0,0.0
7720,64.0,0.0,20.0,10.0,0.0
7721,54.0,30.0,20.0,10.0,0.0
7722,88.0,0.0,20.0,7.0,0.0
7723,58.0,0.0,20.0,11.0,0.0
7724,42.0,0.0,20.0,12.0,0.0
7725,64.0,0.0,20.0,11.0,0.0
7726,82.0,0.0,20.0,7.0,0.0
7727,42.0,0.0,20.0,13.0,0.0
7728,58.0,0.0,20.0,10.0,0.0
7729,49.0,30.0,20.0,11.0,0.0
7730,49.0,0.0,40.0,11.0,0.0
7731,73.0,24.0,20.0,7.0,0.0
7732,42.0,0.0,40.0,13.0,0.0
7733,58.0,0.0,40.0,11.0,0.0
7734,61.0,0.0,20.0,10.0,0.0
7735,42.0,6.0,40.0,12.0,0.0
7736,64.0,0.0,40.0,11.0,0.0
7737,64.0,0.0,20.0,10.0,0.0
7738,82.0,30.0,20.0,7.0,0.0
7739,88.0,0.0,20.0,7.0,0.0
7740,55.0,30.0,20.0,10.0,0.0
7741,85.0,30.0,20.0,7.0,0.0
7742,58.0,0.0,20.0,10.0,0.0
7743,61.0,30.0,20.0,10.0,0.0
7744,82.0,0.0,20.0,7.0,0.0
7745,64.0,0.0,20.0,10.0,0.0
7746,79.0,30.0,20.0,7.0,0.0
7747,87.0,0.0,20.0,7.0,0.0
7748,54.0,30.0,20.0,10.0,0.0
7749,78.0,0.0,20.0,7.0,0.0
7750,63.0,30.0,20.0,10.0,0.0
7751,86.0,0.0,20.0,7.0,0.0
7752,53.0,30.0,20.0,10.0,0.0
7753,83.0,0.0,20.0,7.0,0.0
7754,56.0,30.0,20.0,10.0,0.0
7755,80.0,30.0,20.0,7.0,0.0
7756,60.0,0.0,20.0,10.0,0.0
7757,64.0,0.0,20.0,10.0,0.0
7758,77.0,30.0,20.0,7.0,0.0
7759,85.0,0.0,20.0,7.0,0.0
7760,52.0,30.0,20.0,10.0,0.0
7761,76.0,0.0,20.0,7.0,0.0
7762,61.0,30.0,20.0,10.0,0.0
7763,51.0,30.0,20.0,10.0,0.0
7764,84.0,0.0,20.0,7.0,0.0
7765,75.0,0.0,20.0,7.0,0.0
7766,60.0,30.0,20.0,10.0,0.0
7767,50.0,30.0,20.0,10.0,0.0
7768,83.0,0.0,20.0,7.0,0.0
7769,74.0,30.0,20.0,7.0,0.0
7770,59.0,0.0,20.0,10.0,0.0
7771,82.0,0.0,20.0,7.0,0.0
7772,49.0,30.0,20.0,10.0,0.0
7773,58.0,0.0,20.0,10.0,0.0
7774,73.0,30.0,20.0,7.0,0.0
7775,81.0,0.0,20.0,7.0,0.0
7776,48.0,30.0,20.0,10.0,0.0
7777,72.0,30.0,20.0,7.0,0.0
7778,57.0,0.0,20.0,10.0,0.0
7779,47.0,0.0,20.0,10.0,0.0
7780,80.0,30.0,20.0,7.0,0.0
7781,71.0,30.0,20.0,7.0,0.0
7782,56.0,0.0,20.0,10.0,0.0
7783,79.0,0.0,20.0,7.0,0.0
7784,46.0,30.0,20.0,10.0,0.0
7785,54.0,0.0,20.0,10.0,0.0
7786,70.0,30.0,20.0,7.0,0.0
7787,79.0,30.0,20.0,7.0,0.0
7788,55.0,0.0,20.0,10.0,0.0
7789,54.0,0.0,20.0,10.0,0.0
7790,78.0,30.0,20.0,7.0,0.0
7791,55.0,0.0,20.0,10.0,0.0
7792,79.0,30.0,20.0,7.0,0.0
7793,54.0,0.0,20.0,10.0,0.0
7794,78.0,30.0,20.0,7.0,0.0
7795,55.0,0.0,20.0,10.0,0.0
7796,79.0,30.0,20.0,7.0,0.0
7797,54.0,30.0,20.0,10.0,0.0
7798,78.0,0.0,20.0,7.0,0.0
7799,79.0,0.0,20.0,7.0,0.0
7800,55.0,30.0,20.0,10.0,0.0
7801,78.0,0.0,20.0,7.0,0.0
7802,54.0,30.0,20.0,10.0,0.0
7803,79.0,0.0,20.0,7.0,0.0
7804,55.0,30.0,20.0,10.0,0.0
7805,54.0,0.0,20.0,10.0,0.0
7806,78.0,30.0,20.0,7.0,0.0
7807,79.0,0.0,20.0,7.0,0.0
7808,55.0,30.0,20.0,10.0,0.0
7809,78.0,0.0,20.0,7.0,0.0
7810,54.0,30.0,20.0,10.0,0.0
7811,79.0,0.0,20.0,7.0,0.0
7812,55.0,30.0,20.0,10.0,0.0
7813,54.0,30.0,20.0,10.0,0.0
7814,78.0,0.0,20.0,7.0,0.0
7815,55.0,30.0,20.0,10.0,0.0
7816,79.0,0.0,20.0,7.0,0.0
7817,78.0,0.0,20.0,7.0,0.0
7818,54.0,30.0,20.0,10.0,0.0
7819,79.0,0.0,20.0,7.0,0.0
7820,55.0,30.0,20.0,10.0,0.0
7821,54.0,30.0,20.0,10.0,0.0
7822,78.0,0.0,20.0,7.0,0.0
7823,79.0,0.0,20.0,7.0,0.0
7824,55.0,30.0,20.0,10.0,0.0
7825,78.0,0.0,20.0,7.0,0.0
7826,54.0,30.0,20.0,10.0,0.0
7827,55.0,0.0,20.0,10.0,0.0
7828,79.0,30.0,20.0,7.0,0.0
7829,78.0,30.0,20.0,7.0,0.0
7830,54.0,0.0,20.0,10.0,0.0
7831,79.0,30.0,20.0,7.0,0.0
7832,55.0,0.0,20.0,10.0,0.0
7833,54.0,0.0,20.0,10.0,0.0
7834,78.0,18.0,20.0,7.0,0.0
7835,54.0,15.0,15.0,10.0,0.0
7836,78.0,0.0,15.0,7.0,0.0
7837,79.0,15.0,15.0,7.0,0.0
7838,53.0,0.0,15.0,10.0,0.0
7839,78.0,0.0,15.0,7.0,0.0
7840,54.0,15.0,15.0,10.0,0.0
7841,79.0,15.0,15.0,7.0,0.0
7842,53.0,0.0,15.0,10.0,0.0
7843,54.0,0.0,15.0,10.0,0.0
7844,78.0,15.0,15.0,7.0,0.0
7845,53.0,0.0,15.0,10.0,0.0
7846,79.0,15.0,15.0,7.0,0.0
7847,78.0,15.0,15.0,7.0,0.0
7848,54.0,0.0,15.0,10.0,0.0
7849,53.0,0.0,15.0,10.0,0.0
7850,79.0,15.0,15.0,7.0,0.0
7851,54.0,0.0,15.0,10.0,0.0
7852,78.0,15.0,15.0,7.0,0.0
7853,79.0,15.0,15.0,7.0,0.0
7854,53.0,0.0,15.0,10.0,0.0
7855,54.0,0.0,15.0,10.0,0.0
7856,78.0,15.0,15.0,7.0,0.0
7857,53.0,0.0,15.0,10.0,0.0
7858,79.0,15.0,15.0,7.0,0.0
7859,54.0,0.0,15.0,10.0,0.0
7860,78.0,15.0,15.0,7.0,0.0
7861,79.0,0.0,15.0,7.0,0.0
7862,53.0,15.0,15.0,10.0,0.0
7863,78.0,0.0,15.0,7.0,0.0
7864,54.0,15.0,15.0,10.0,0.0
7865,79.0,0.0,15.0,7.0,0.0
7866,53.0,15.0,15.0,10.0,0.0
7867,54.0,0.0,15.0,10.0,0.0
7868,78.0,15.0,15.0,7.0,0.0
7869,53.0,0.0,15.0,10.0,0.0
7870,79.0,15.0,15.0,7.0,0.0
7871,54.0,0.0,15.0,10.0,0.0
7872,78.0,15.0,15.0,7.0,0.0
7873,79.0,0.0,15.0,7.0,0.0
7874,53.0,15.0,15.0,10.0,0.0
7875,54.0,0.0,15.0,10.0,0.0
7876,78.0,15.0,15.0,7.0,0.0
7877,53.0,15.0,15.0,10.0,0.0
7878,79.0,0.0,15.0,7.0,0.0
7879,78.0,0.0,15.0,7.0,0.0
7880,54.0,15.0,15.0,10.0,0.0
7881,79.0,0.0,15.0,7.0,0.0
7882,53.0,15.0,15.0,10.0,0.0
7883,54.0,0.0,15.0,10.0,0.0
7884,78.0,15.0,15.0,7.0,0.0
7885,53.0,0.0,15.0,10.0,0.0
7886,79.0,15.0,15.0,7.0,0.0
7887,78.0,15.0,15.0,7.0,0.0
7888,54.0,0.0,15.0,10.0,0.0
7889,79.0,15.0,15.0,7.0,0.0
7890,53.0,0.0,15.0,10.0,0.0
7891,54.0,0.0,15.0,10.0,0.0
7892,78.0,15.0,15.0,7.0,0.0
7893,79.0,15.0,15.0,7.0,0.0
7894,53.0,0.0,15.0,10.0,0.0
7895,78.0,15.0,15.0,7.0,0.0
7896,54.0,0.0,15.0,10.0,0.0
7897,53.0,0.0,15.0,10.0,0.0
7898,79.0,15.0,15.0,7.0,0.0
7899,78.0,0.0,15.0,7.0,0.0
7900,54.0,15.0,15.0,10.0,0.0
7901,53.0,0.0,15.0,10.0,0.0
7902,79.0,15.0,15.0,7.0,0.0
7903,78.0,15.0,15.0,7.0,0.0
7904,54.0,0.0,15.0,10.0,0.0
7905,53.0,15.0,15.0,10.0,0.0
7906,79.0,0.0,15.0,7.0,0.0
7907,54.0,0.0,15.0,10.0,0.0
7908,78.0,15.0,15.0,7.0,0.0
7909,79.0,15.0,15.0,7.0,0.0
7910,53.0,0.0,15.0,10.0,0.0
7911,78.0,0.0,15.0,7.0,0.0
7912,54.0,15.0,15.0,10.0,0.0
7913,79.0,0.0,15.0,7.0,0.0
7914,53.0,15.0,15.0,10.0,0.0
7915,54.0,15.0,15.0,10.0,0.0
7916,78.0,0.0,15.0,7.0,0.0
7917,53.0,0.0,15.0,10.0,0.0
7918,79.0,15.0,15.0,7.0,0.0
7919,78.0,0.0,15.0,7.0,0.0
7920,54.0,15.0,15.0,10.0,0.0
7921,79.0,0.0,15.0,7.0,0.0
7922,53.0,15.0,15.0,10.0,0.0
7923,78.0,0.0,15.0,7.0,0.0
7924,54.0,15.0,15.0,10.0,0.0
7925,53.0,15.0,15.0,10.0,0.0
7926,79.0,0.0,15.0,7.0,0.0
7927,78.0,0.0,15.0,7.0,0.0
7928,54.0,15.0,15.0,10.0,0.0
7929,79.0,0.0,15.0,7.0,0.0
7930,53.0,15.0,15.0,10.0,0.0
7931,78.0,0.0,15.0,7.0,0.0
7932,54.0,15.0,15.0,10.0,0.0
7933,56.0,15.0,15.0,10.0,0.0
7934,80.0,0.0,15.0,7.0,0.0
7935,78.0,15.0,15.0,7.0,0.0
7936,54.0,0.0,15.0,10.0,0.0
7937,56.0,0.0,15.0,10.0,0.0
7938,80.0,15.0,15.0,7.0,0.0
7939,54.0,0.0,15.0,10.0,0.0
7940,78.0,15.0,15.0,7.0,0.0
7941,56.0,15.0,15.0,10.0,0.0
7942,80.0,0.0,15.0,7.0,0.0
7943,54.0,0.0,15.0,10.0,0.0
7944,78.0,15.0,15.0,7.0,0.0
7945,56.0,0.0,15.0,10.0,0.0
7946,80.0,15.0,15.0,7.0,0.0
7947,54.0,0.0,15.0,10.0,0.0
7948,78.0,15.0,15.0,7.0,0.0
7949,80.0,0.0,15.0,7.0,0.0
7950,56.0,15.0,15.0,10.0,0.0
7951,78.0,0.0,15.0,7.0,0.0
7952,54.0,15.0,15.0,10.0,0.0
7953,56.0,15.0,15.0,10.0,0.0
7954,80.0,0.0,15.0,7.0,0.0
7955,54.0,15.0,15.0,10.0,0.0
7956,78.0,0.0,15.0,7.0,0.0
7957,80.0,0.0,15.0,7.0,0.0
7958,56.0,15.0,15.0,10.0,0.0
7959,78.0,0.0,15.0,7.0,0.0
7960,54.0,15.0,15.0,10.0,0.0
7961,56.0,0.0,15.0,10.0,0.0
7962,80.0,15.0,15.0,7.0,0.0
7963,54.0,0.0,15.0,10.0,0.0
7964,78.0,15.0,15.0,7.0,0.0
7965,56.0,15.0,15.0,10.0,0.0
7966,80.0,0.0,15.0,7.0,0.0
7967,78.0,0.0,15.0,7.0,0.0
7968,54.0,15.0,15.0,10.0,0.0
7969,56.0,15.0,15.0,10.0,0.0
7970,80.0,0.0,15.0,7.0,0.0
7971,54.0,0.0,15.0,10.0,0.0
7972,78.0,15.0,15.0,7.0,0.0
7973,80.0,0.0,15.0,7.0,0.0
7974,56.0,15.0,15.0,10.0,0.0
7975,78.0,0.0,15.0,7.0,0.0
7976,54.0,15.0,15.0,10.0,0.0
7977,80.0,0.0,15.0,7.0,0.0
7978,56.0,15.0,15.0,10.0,0.0
7979,54.0,15.0,15.0,10.0,0.0
7980,78.0,0.0,15.0,7.0,0.0
7981,80.0,0.0,15.0,7.0,0.0
7982,56.0,15.0,15.0,10.0,0.0
7983,78.0,15.0,15.0,7.0,0.0
7984,54.0,0.0,15.0,10.0,0.0
7985,56.0,15.0,15.0,10.0,0.0
7986,80.0,0.0,15.0,7.0,0.0
7987,54.0,0.0,15.0,10.0,0.0
7988,78.0,15.0,15.0,7.0,0.0
7989,56.0,0.0,15.0,10.0,0.0
7990,80.0,15.0,15.0,7.0,0.0
7991,54.0,0.0,15.0,10.0,0.0
7992,78.0,15.0,15.0,7.0,0.0
7993,80.0,15.0,15.0,7.0,0.0
7994,56.0,0.0,15.0,10.0,0.0
7995,54.0,0.0,15.0,10.0,0.0
7996,78.0,15.0,15.0,7.0,0.0
7997,56.0,0.0,15.0,10.0,0.0
7998,80.0,15.0,15.0,7.0,0.0
7999,54.0,0.0,15.0,10.0,0.0
8000,78.0,15.0,15.0,7.0,0.0
8001,56.0,0.0,15.0,10.0,0.0
8002,80.0,15.0,15.0,7.0,0.0
8003,54.0,15.0,15.0,10.0,0.0
8004,78.0,0.0,15.0,7.0,0.0
8005,80.0,0.0,15.0,7.0,0.0
8006,56.0,15.0,15.0,10.0,0.0
8007,78.0,15.0,15.0,7.0,0.0
8008,54.0,0.0,15.0,10.0,0.0
8009,80.0,0.0,15.0,7.0,0.0
8010,56.0,15.0,15.0,10.0,0.0
8011,78.0,0.0,15.0,7.0,0.0
8012,54.0,15.0,15.0,10.0,0.0
8013,56.0,0.0,15.0,10.0,0.0
8014,80.0,15.0,15.0,7.0,0.0
8015,78.0,15.0,15.0,7.0,0.0
8016,54.0,0.0,15.0,10.0,0.0
8017,56.0,0.0,15.0,10.0,0.0
8018,80.0,15.0,15.0,7.0,0.0
8019,54.0,0.0,40.0,11.0,0.0
8020,54.0,15.0,15.0,10.0,0.0
8021,51.0,9.0,40.0,11.0,0.0
8022,78.0,0.0,15.0,7.0,0.0
8023,80.0,0.0,15.0,7.0,0.0
8024,56.0,15.0,15.0,10.0,0.0
8025,78.0,6.0,15.0,7.0,0.0
8026,54.0,0.0,15.0,10.0,0.0
8027,56.0,15.0,15.0,10.0,0.0
8028,80.0,0.0,15.0,7.0,0.0
8029,47.0,0.0,90.0,14.0,0.0
8030,78.0,15.0,15.0,7.0,0.0
8031,51.0,0.0,40.0,11.0,0.0
8032,54.0,9.0,40.0,11.0,0.0
8033,35.0,6.0,90.0,14.0,0.0
8034,54.0,0.0,15.0,10.0,0.0
8035,56.0,15.0,15.0,10.0,0.0
8036,80.0,0.0,15.0,7.0,0.0
8037,78.0,0.0,15.0,7.0,0.0
8038,54.0,6.0,15.0,10.0,0.0
8039,56.0,15.0,15.0,10.0,0.0
8040,80.0,0.0,15.0,7.0,0.0
8041,54.0,15.0,15.0,10.0,0.0
8042,78.0,0.0,15.0,7.0,0.0
8043,54.0,0.0,40.0,11.0,0.0
8044,59.0,9.0,40.0,11.0,0.0
8045,56.0,0.0,15.0,10.0,0.0
8046,80.0,9.0,15.0,7.0,0.0
8047,78.0,0.0,15.0,7.0,0.0
8048,54.0,6.0,15.0,10.0,0.0
8049,56.0,0.0,15.0,10.0,0.0
8050,80.0,15.0,15.0,7.0,0.0
8051,78.0,15.0,15.0,7.0,0.0
8052,54.0,0.0,15.0,10.0,0.0
8053,80.0,0.0,15.0,7.0,0.0
8054,56.0,15.0,15.0,10.0,0.0
8055,54.0,15.0,15.0,10.0,0.0
8056,78.0,0.0,15.0,7.0,0.0
8057,80.0,0.0,15.0,7.0,0.0
8058,56.0,15.0,15.0,10.0,0.0
8059,78.0,0.0,15.0,7.0,0.0
8060,54.0,15.0,15.0,10.0,0.0
8061,56.0,15.0,15.0,10.0,0.0
8062,80.0,0.0,15.0,7.0,0.0
8063,54.0,0.0,15.0,10.0,0.0
8064,78.0,15.0,15.0,7.0,0.0
8065,56.0,15.0,15.0,10.0,0.0
8066,80.0,0.0,15.0,7.0,0.0
8067,78.0,0.0,15.0,7.0,0.0
8068,54.0,15.0,15.0,10.0,0.0
8069,80.0,0.0,15.0,7.0,0.0
8070,56.0,15.0,15.0,10.0,0.0
8071,78.0,0.0,15.0,7.0,0.0
8072,54.0,15.0,15.0,10.0,0.0
8073,80.0,0.0,15.0,7.0,0.0
8074,56.0,15.0,15.0,10.0,0.0
8075,47.0,0.0,40.0,11.0,0.0
8076,51.0,9.0,40.0,11.0,0.0
8077,54.0,0.0,15.0,10.0,0.0
8078,54.0,0.0,40.0,11.0,0.0
8079,78.0,15.0,15.0,7.0,0.0
8080,59.0,0.0,40.0,11.0,0.0
8081,56.0,15.0,15.0,10.0,0.0
8082,80.0,0.0,15.0,7.0,0.0
8083,78.0,0.0,15.0,7.0,0.0
8084,54.0,6.0,15.0,10.0,0.0
8085,56.0,15.0,15.0,10.0,0.0
8086,80.0,0.0,15.0,7.0,0.0
8087,51.0,6.0,90.0,11.0,0.0
8088,59.0,9.0,40.0,11.0,0.0
8089,78.0,0.0,15.0,7.0,0.0
8090,54.0,15.0,15.0,10.0,0.0
8091,54.0,0.0,40.0,11.0,0.0
8092,47.0,0.0,90.0,11.0,0.0
8093,80.0,0.0,15.0,7.0,0.0
8094,56.0,15.0,15.0,10.0,0.0
8095,54.0,6.0,15.0,10.0,0.0
8096,78.0,0.0,15.0,7.0,0.0
8097,80.0,0.0,15.0,7.0,0.0
8098,56.0,15.0,15.0,10.0,0.0
8099,59.0,9.0,40.0,11.0,0.0
8100,63.0,0.0,40.0,11.0,0.0
8101,78.0,15.0,15.0,7.0,0.0
8102,54.0,0.0,15.0,10.0,0.0
8103,80.0,0.0,15.0,7.0,0.0
8104,56.0,9.0,15.0,10.0,0.0
8105,78.0,0.0,15.0,7.0,0.0
8106,54.0,6.0,15.0,10.0,0.0
8107,80.0,15.0,15.0,7.0,0.0
8108,56.0,0.0,15.0,10.0,0.0
8109,54.0,0.0,15.0,10.0,0.0
8110,78.0,15.0,15.0,7.0,0.0
8111,80.0,15.0,15.0,7.0,0.0
8112,56.0,0.0,15.0,10.0,0.0
8113,78.0,15.0,15.0,7.0,0.0
8114,54.0,0.0,15.0,10.0,0.0
8115,56.0,0.0,15.0,10.0,0.0
8116,80.0,15.0,15.0,7.0,0.0
8117,54.0,0.0,15.0,10.0,0.0
8118,78.0,15.0,15.0,7.0,0.0
8119,80.0,15.0,15.0,7.0,0.0
8120,56.0,0.0,15.0,10.0,0.0
8121,54.0,15.0,15.0,10.0,0.0
8122,78.0,0.0,15.0,7.0,0.0
8123,80.0,0.0,15.0,7.0,0.0
8124,56.0,15.0,15.0,10.0,0.0
8125,54.0,15.0,15.0,10.0,0.0
8126,78.0,0.0,15.0,7.0,0.0
8127,56.0,15.0,15.0,10.0,0.0
8128,80.0,0.0,15.0,7.0,0.0
8129,78.0,15.0,15.0,7.0,0.0
8130,54.0,0.0,15.0,10.0,0.0
8131,56.0,0.0,15.0,10.0,0.0
8132,80.0,15.0,15.0,7.0,0.0
8133,54.0,0.0,15.0,10.0,0.0
8134,63.0,9.0,40.0,11.0,0.0
8135,59.0,0.0,40.0,11.0,0.0
8136,54.0,0.0,40.0,11.0,0.0
8137,51.0,0.0,40.0,11.0,0.0
8138,78.0,15.0,15.0,7.0,0.0
8139,56.0,15.0,15.0,10.0,0.0
8140,80.0,0.0,15.0,7.0,0.0
8141,78.0,0.0,15.0,7.0,0.0
8142,54.0,6.0,15.0,10.0,0.0
8143,56.0,0.0,15.0,10.0,0.0
8144,80.0,15.0,15.0,7.0,0.0
8145,63.0,0.0,20.0,11.0,0.0
8146,54.0,0.0,90.0,11.0,0.0
8147,59.0,3.0,20.0,11.0,0.0
8148,78.0,0.0,15.0,7.0,0.0
8149,51.0,6.0,90.0,11.0,0.0
8150,54.0,12.0,15.0,10.0,0.0
8151,80.0,15.0,15.0,7.0,0.0
8152,56.0,0.0,15.0,10.0,0.0
8153,54.0,0.0,15.0,10.0,0.0
8154,78.0,12.0,15.0,7.0,0.0
8155,66.0,0.0,20.0,11.0,0.0
8156,63.0,3.0,20.0,11.0,0.0
8157,80.0,15.0,15.0,7.0,0.0
8158,56.0,0.0,15.0,10.0,0.0
8159,66.0,0.0,40.0,11.0,0.0
8160,54.0,0.0,15.0,10.0,0.0
8161,78.0,15.0,15.0,7.0,0.0
8162,63.0,9.0,40.0,11.0,0.0
8163,56.0,9.0,15.0,10.0,0.0
8164,80.0,0.0,15.0,7.0,0.0
8165,78.0,6.0,15.0,7.0,0.0
8166,54.0,0.0,15.0,10.0,0.0
8167,80.0,0.0,15.0,7.0,0.0
8168,56.0,15.0,15.0,10.0,0.0
8169,78.0,0.0,15.0,7.0,0.0
8170,54.0,15.0,15.0,10.0,0.0
8171,80.0,0.0,15.0,7.0,0.0
8172,56.0,15.0,15.0,10.0,0.0
8173,78.0,15.0,15.0,7.0,0.0
8174,54.0,0.0,15.0,10.0,0.0
8175,56.0,0.0,15.0,10.0,0.0
8176,80.0,15.0,15.0,7.0,0.0
8177,54.0,15.0,15.0,10.0,0.0
8178,78.0,0.0,15.0,7.0,0.0
8179,56.0,15.0,15.0,10.0,0.0
8180,80.0,0.0,15.0,7.0,0.0
8181,54.0,0.0,15.0,10.0,0.0
8182,78.0,15.0,15.0,7.0,0.0
8183,56.0,0.0,15.0,10.0,0.0
8184,80.0,15.0,15.0,7.0,0.0
8185,54.0,0.0,15.0,10.0,0.0
8186,78.0,15.0,15.0,7.0,0.0
8187,56.0,15.0,15.0,10.0,0.0
8188,80.0,0.0,15.0,7.0,0.0
8189,78.0,0.0,15.0,7.0,0.0
8190,54.0,15.0,15.0,10.0,0.0
8191,80.0,15.0,15.0,7.0,0.0
8192,56.0,0.0,15.0,10.0,0.0
8193,54.0,15.0,15.0,10.0,0.0
8194,78.0,0.0,15.0,7.0,0.0
8195,80.0,0.0,15.0,7.0,0.0
8196,56.0,15.0,15.0,10.0,0.0
8197,78.0,0.0,15.0,7.0,0.0
8198,54.0,15.0,15.0,10.0,0.0
8199,80.0,0.0,15.0,7.0,0.0
8200,56.0,15.0,15.0,10.0,0.0
8201,54.0,15.0,15.0,10.0,0.0
8202,78.0,0.0,15.0,7.0,0.0
8203,80.0,15.0,15.0,7.0,0.0
8204,56.0,0.0,15.0,10.0,0.0
8205,54.0,15.0,15.0,10.0,0.0
8206,78.0,0.0,15.0,7.0,0.0
8207,56.0,15.0,15.0,10.0,0.0
8208,80.0,0.0,15.0,7.0,0.0
8209,78.0,15.0,15.0,7.0,0.0
8210,54.0,0.0,15.0,10.0,0.0
8211,56.0,15.0,15.0,10.0,0.0
8212,80.0,0.0,15.0,7.0,0.0
8213,78.0,15.0,15.0,7.0,0.0
8214,54.0,0.0,15.0,10.0,0.0
8215,80.0,15.0,15.0,7.0,0.0
8216,56.0,0.0,15.0,10.0,0.0
8217,54.0,0.0,15.0,10.0,0.0
8218,78.0,15.0,15.0,7.0,0.0
8219,56.0,15.0,15.0,10.0,0.0
8220,80.0,0.0,15.0,7.0,0.0
8221,54.0,0.0,15.0,10.0,0.0
8222,78.0,15.0,15.0,7.0,0.0
8223,56.0,15.0,15.0,10.0,0.0
8224,80.0,0.0,15.0,7.0,0.0
8225,78.0,0.0,15.0,7.0,0.0
8226,54.0,15.0,15.0,10.0,0.0
8227,80.0,0.0,15.0,7.0,0.0
8228,56.0,15.0,15.0,10.0,0.0
8229,78.0,15.0,15.0,7.0,0.0
8230,54.0,0.0,15.0,10.0,0.0
8231,56.0,0.0,15.0,10.0,0.0
8232,80.0,15.0,15.0,7.0,0.0
8233,78.0,0.0,15.0,7.0,0.0
8234,54.0,15.0,15.0,10.0,0.0
8235,56.0,15.0,15.0,10.0,0.0
8236,80.0,0.0,15.0,7.0,0.0
8237,54.0,0.0,15.0,10.0,0.0
8238,78.0,15.0,15.0,7.0,0.0
8239,56.0,0.0,15.0,10.0,0.0
8240,80.0,15.0,15.0,7.0,0.0
8241,59.0,0.0,40.0,11.0,0.0
8242,54.0,9.0,40.0,11.0,0.0
8243,54.0,15.0,15.0,10.0,0.0
8244,78.0,0.0,15.0,7.0,0.0
8245,80.0,0.0,15.0,7.0,0.0
8246,56.0,15.0,15.0,10.0,0.0
8247,78.0,6.0,15.0,7.0,0.0
8248,54.0,0.0,15.0,10.0,0.0
8249,80.0,0.0,15.0,7.0,0.0
8250,56.0,15.0,15.0,10.0,0.0
8251,54.0,9.0,40.0,11.0,0.0
8252,47.0,0.0,90.0,14.0,0.0
8253,35.0,6.0,90.0,14.0,0.0
8254,78.0,0.0,15.0,7.0,0.0
8255,59.0,0.0,40.0,11.0,0.0
8256,54.0,15.0,15.0,10.0,0.0
8257,80.0,15.0,15.0,7.0,0.0
8258,56.0,0.0,15.0,10.0,0.0
8259,54.0,6.0,15.0,10.0,0.0
8260,78.0,0.0,15.0,7.0,0.0
8261,80.0,15.0,15.0,7.0,0.0
8262,56.0,0.0,15.0,10.0,0.0
8263,78.0,15.0,15.0,7.0,0.0
8264,63.0,0.0,40.0,11.0,0.0
8265,54.0,0.0,15.0,10.0,0.0
8266,59.0,9.0,40.0,11.0,0.0
8267,80.0,9.0,15.0,7.0,0.0
8268,56.0,0.0,15.0,10.0,0.0
8269,54.0,6.0,15.0,10.0,0.0
8270,78.0,0.0,15.0,7.0,0.0
8271,80.0,15.0,15.0,7.0,0.0
8272,56.0,0.0,15.0,10.0,0.0
8273,54.0,0.0,15.0,10.0,0.0
8274,78.0,15.0,15.0,7.0,0.0
8275,56.0,0.0,15.0,10.0,0.0
8276,80.0,15.0,15.0,7.0,0.0
8277,78.0,0.0,15.0,7.0,0.0
8278,54.0,15.0,15.0,10.0,0.0
8279,56.0,15.0,15.0,10.0,0.0
8280,80.0,0.0,15.0,7.0,0.0
8281,54.0,0.0,15.0,10.0,0.0
8282,78.0,15.0,15.0,7.0,0.0
8283,80.0,0.0,15.0,7.0,0.0
8284,56.0,15.0,15.0,10.0,0.0
8285,54.0,15.0,15.0,10.0,0.0
8286,78.0,0.0,15.0,7.0,0.0
8287,56.0,15.0,15.0,10.0,0.0
8288,80.0,0.0,15.0,7.0,0.0
8289,78.0,15.0,15.0,7.0,0.0
8290,54.0,0.0,15.0,10.0,0.0
8291,80.0,0.0,15.0,7.0,0.0
8292,56.0,15.0,15.0,10.0,0.0
8293,54.0,15.0,15.0,10.0,0.0
8294,78.0,0.0,15.0,7.0,0.0
8295,80.0,15.0,15.0,7.0,0.0
8296,56.0,0.0,15.0,10.0,0.0
8297,54.0,0.0,15.0,10.0,0.0
8298,59.0,0.0,40.0,11.0,0.0
8299,47.0,0.0,40.0,11.0,0.0
8300,63.0,9.0,40.0,11.0,0.0
8301,78.0,15.0,15.0,7.0,0.0
8302,51.0,0.0,40.0,11.0,0.0
8303,80.0,0.0,15.0,7.0,0.0
8304,56.0,15.0,15.0,10.0,0.0
8305,54.0,6.0,15.0,10.0,0.0
8306,78.0,0.0,15.0,7.0,0.0
8307,80.0,0.0,15.0,7.0,0.0
8308,56.0,15.0,15.0,10.0,0.0
8309,51.0,6.0,90.0,11.0,0.0
8310,54.0,15.0,15.0,10.0,0.0
8311,63.0,9.0,40.0,11.0,0.0
8312,59.0,0.0,40.0,11.0,0.0
8313,78.0,0.0,15.0,7.0,0.0
8314,47.0,0.0,90.0,11.0,0.0
8315,80.0,15.0,15.0,7.0,0.0
8316,56.0,0.0,15.0,10.0,0.0
8317,54.0,0.0,15.0,10.0,0.0
8318,78.0,6.0,15.0,7.0,0.0
8319,56.0,0.0,15.0,10.0,0.0
8320,80.0,15.0,15.0,7.0,0.0
8321,63.0,9.0,40.0,11.0,0.0
8322,66.0,0.0,40.0,11.0,0.0
8323,54.0,15.0,15.0,10.0,0.0
8324,78.0,0.0,15.0,7.0,0.0
8325,80.0,0.0,15.0,7.0,0.0
8326,56.0,9.0,15.0,10.0,0.0
8327,54.0,0.0,15.0,10.0,0.0
8328,78.0,6.0,15.0,7.0,0.0
8329,56.0,0.0,15.0,10.0,0.0
8330,80.0,15.0,15.0,7.0,0.0
8331,54.0,0.0,15.0,10.0,0.0
8332,78.0,15.0,15.0,7.0,0.0
8333,80.0,0.0,15.0,7.0,0.0
8334,56.0,15.0,15.0,10.0,0.0
8335,78.0,0.0,15.0,7.0,0.0
8336,54.0,15.0,15.0,10.0,0.0
8337,80.0,15.0,15.0,7.0,0.0
8338,56.0,0.0,15.0,10.0,0.0
8339,78.0,15.0,15.0,7.0,0.0
8340,54.0,0.0,15.0,10.0,0.0
8341,56.0,15.0,15.0,10.0,0.0
8342,80.0,0.0,15.0,7.0,0.0
8343,78.0,15.0,15.0,7.0,0.0
8344,54.0,0.0,15.0,10.0,0.0
8345,80.0,0.0,15.0,7.0,0.0
8346,56.0,15.0,15.0,10.0,0.0
8347,78.0,0.0,15.0,7.0,0.0
8348,54.0,15.0,15.0,10.0,0.0
8349,56.0,0.0,15.0,10.0,0.0
8350,80.0,15.0,15.0,7.0,0.0
8351,54.0,0.0,15.0,10.0,0.0
8352,78.0,15.0,15.0,7.0,0.0
8353,80.0,0.0,15.0,7.0,0.0
8354,56.0,15.0,15.0,10.0,0.0
8355,63.0,9.0,40.0,11.0,0.0
8356,54.0,15.0,15.0,10.0,0.0
8357,59.0,0.0,40.0,11.0,0.0
8358,54.0,0.0,40.0,11.0,0.0
8359,66.0,0.0,40.0,11.0,0.0
8360,78.0,0.0,15.0,7.0,0.0
8361,80.0,0.0,15.0,7.0,0.0
8362,56.0,15.0,15.0,10.0,0.0
8363,54.0,0.0,15.0,10.0,0.0
8364,78.0,6.0,15.0,7.0,0.0
8365,56.0,15.0,15.0,10.0,0.0
8366,80.0,0.0,15.0,7.0,0.0
8367,63.0,6.0,40.0,11.0,0.0
8368,59.0,6.0,90.0,11.0,0.0
8369,78.0,0.0,20.0,7.0,0.0
8370,66.0,3.0,20.0,11.0,0.0
8371,54.0,0.0,90.0,11.0,0.0
8372,54.0,12.0,15.0,10.0,0.0
8373,56.0,15.0,15.0,10.0,0.0
8374,71.0,3.0,20.0,11.0,0.0
8375,76.0,0.0,20.0,7.0,0.0
8376,54.0,6.0,15.0,10.0,0.0
8377,56.0,15.0,15.0,10.0,0.0
8378,71.0,0.0,40.0,11.0,0.0
8379,75.0,3.0,20.0,7.0,0.0
8380,63.0,6.0,40.0,11.0,0.0
8381,54.0,12.0,15.0,10.0,0.0
8382,56.0,9.0,15.0,10.0,0.0
8383,54.0,6.0,15.0,10.0,0.0
8384,73.0,3.0,20.0,7.0,0.0
8385,56.0,15.0,15.0,10.0,0.0
8386,71.0,3.0,20.0,7.0,0.0
8387,54.0,12.0,15.0,10.0,0.0
8388,56.0,15.0,15.0,10.0,0.0
8389,54.0,12.0,15.0,10.0,0.0
8390,70.0,3.0,20.0,7.0,0.0
8391,56.0,15.0,15.0,10.0,0.0
8392,54.0,12.0,15.0,10.0,0.0
8393,68.0,3.0,20.0,7.0,0.0
8394,56.0,15.0,15.0,10.0,0.0
8395,54.0,12.0,15.0,10.0,0.0
8396,66.0,3.0,20.0,7.0,0.0
8397,56.0,15.0,15.0,10.0,0.0
8398,64.0,3.0,20.0,7.0,0.0
8399,54.0,12.0,15.0,10.0,0.0
8400,56.0,15.0,15.0,10.0,0.0
8401,63.0,3.0,20.0,7.0,0.0
8402,54.0,12.0,15.0,10.0,0.0
8403,56.0,15.0,15.0,10.0,0.0
8404,54.0,12.0,15.0,10.0,0.0
8405,61.0,3.0,20.0,7.0,0.0
8406,56.0,15.0,15.0,10.0,0.0
8407,59.0,3.0,20.0,7.0,0.0
8408,54.0,12.0,15.0,10.0,0.0
8409,56.0,27.0,15.0,10.0,0.0
8410,58.0,24.0,20.0,7.0,0.0
8411,54.0,6.0,40.0,10.0,0.0
8412,56.0,30.0,20.0,7.0,0.0
8413,52.0,0.0,20.0,10.0,0.0
8414,54.0,30.0,20.0,7.0,0.0
8415,51.0,0.0,20.0,10.0,0.0
8416,56.0,30.0,20.0,7.0,0.0
8417,49.0,0.0,20.0,10.0,0.0
8418,58.0,30.0,20.0,7.0,0.0
8419,47.0,30.0,20.0,10.0,0.0
8420,59.0,0.0,20.0,7.0,0.0
8421,54.0,0.0,3000.0,5.0,0.0
8422,42.0,0.0,3000.0,5.0,0.0
8423,46.0,30.0,20.0,10.0,0.0
8424,61.0,0.0,20.0,7.0,0.0
8425,44.0,30.0,20.0,10.0,0.0
8426,63.0,0.0,20.0,7.0,0.0
8427,64.0,30.0,20.0,7.0,0.0
8428,42.0,0.0,20.0,10.0,0.0
8429,66.0,30.0,20.0,7.0,0.0
8430,40.0,0.0,20.0,10.0,0.0
8431,39.0,0.0,20.0,10.0,0.0
8432,68.0,30.0,20.0,7.0,0.0
8433,37.0,54.0,20.0,10.0,0.0
8434,70.0,0.0,20.0,7.0,0.0
8435,35.0,0.0,40.0,10.0,0.0
8436,71.0,60.0,40.0,7.0,0.0
8437,66.0,0.0,40.0,7.0,0.0
8438,63.0,60.0,40.0,7.0,0.0
8439,54.0,0.0,40.0,10.0,0.0
8440,42.0,0.0,40.0,10.0,0.0
8441,51.0,0.0,40.0,10.0,0.0
8442,47.0,60.0,40.0,10.0,0.0
8443,71.0,0.0,40.0,7.0,0.0
8444,66.0,0.0,40.0,7.0,0.0
8445,63.0,0.0,40.0,7.0,0.0
8446,75.0,0.0,40.0,7.0,0.0
8447,35.0,60.0,40.0,10.0,0.0
8448,71.0,36.0,40.0,7.0,0.0
8449,54.0,0.0,40.0,10.0,0.0
8450,66.0,0.0,40.0,7.0,0.0
8451,47.0,0.0,40.0,10.0,0.0
8452,51.0,0.0,40.0,10.0,0.0
8453,42.0,6.0,40.0,10.0,0.0
8454,75.0,24.0,20.0,7.0,0.0
8455,78.0,30.0,20.0,7.0,0.0
8456,71.0,0.0,40.0,7.0,0.0
8457,35.0,0.0,40.0,10.0,0.0
8458,75.0,6.0,40.0,7.0,0.0
8459,78.0,24.0,20.0,7.0,0.0
8460,83.0,54.0,20.0,7.0,0.0
8461,75.0,0.0,210.0,7.0,0.0
8462,71.0,12.0,210.0,7.0,0.0
8463,54.0,60.0,40.0,10.0,0.0
8464,83.0,0.0,210.0,7.0,0.0
8465,78.0,0.0,210.0,7.0,0.0
8466,42.0,0.0,40.0,10.0,0.0
8467,51.0,60.0,40.0,10.0,0.0
8468,47.0,0.0,40.0,10.0,0.0
8469,35.0,48.0,40.0,10.0,0.0
8470,54.0,36.0,40.0,10.0,0.0
8471,75.0,0.0,40.0,7.0,0.0
8472,78.0,0.0,40.0,7.0,0.0
8473,83.0,24.0,20.0,7.0,0.0
8474,42.0,6.0,40.0,10.0,0.0
8475,47.0,0.0,40.0,10.0,0.0
8476,51.0,0.0,40.0,10.0,0.0
8477,87.0,54.0,20.0,7.0,0.0
8478,78.0,60.0,40.0,7.0,0.0
8479,76.0,0.0,40.0,7.0,0.0
8480,73.0,0.0,40.0,7.0,0.0
8481,85.0,0.0,40.0,7.0,0.0
8482,30.0,0.0,40.0,10.0,0.0
8483,54.0,36.0,40.0,10.0,0.0
8484,73.0,0.0,40.0,7.0,0.0
8485,42.0,0.0,40.0,10.0,0.0
8486,49.0,0.0,40.0,10.0,0.0
8487,76.0,6.0,40.0,7.0,0.0
8488,78.0,0.0,40.0,7.0,0.0
8489,46.0,0.0,40.0,10.0,0.0
8490,82.0,24.0,20.0,7.0,0.0
8491,85.0,54.0,20.0,7.0,0.0
8492,83.0,60.0,40.0,7.0,0.0
8493,78.0,0.0,40.0,7.0,0.0
8494,75.0,0.0,40.0,7.0,0.0
8495,35.0,0.0,40.0,10.0,0.0
8496,54.0,36.0,40.0,10.0,0.0
8497,51.0,0.0,40.0,10.0,0.0
8498,47.0,0.0,40.0,10.0,0.0
8499,42.0,0.0,40.0,10.0,0.0
8500,71.0,6.0,40.0,7.0,0.0
8501,75.0,24.0,20.0,7.0,0.0
8502,78.0,18.0,20.0,7.0,0.0
8503,30.0,9.0,40.0,10.0,0.0
8504,78.0,15.0,15.0,7.0,0.0
8505,73.0,12.0,270.0,7.0,0.0
8506,70.0,0.0,270.0,7.0,0.0
8507,80.0,15.0,15.0,7.0,0.0
8508,78.0,6.0,15.0,7.0,0.0
8509,80.0,15.0,15.0,7.0,0.0
8510,78.0,15.0,15.0,7.0,0.0
8511,54.0,9.0,40.0,10.0,0.0
8512,80.0,15.0,15.0,7.0,0.0
8513,78.0,6.0,15.0,7.0,0.0
8514,80.0,27.0,15.0,7.0,0.0
8515,49.0,0.0,40.0,10.0,0.0
8516,46.0,6.0,40.0,10.0,0.0
8517,42.0,0.0,40.0,10.0,0.0
8518,78.0,24.0,20.0,7.0,0.0
8519,77.0,54.0,20.0,7.0,0.0
8520,30.0,48.0,40.0,10.0,0.0
8521,78.0,0.0,90.0,7.0,0.0
8522,54.0,60.0,40.0,10.0,0.0
8523,42.0,0.0,40.0,10.0,0.0
8524,46.0,60.0,40.0,10.0,0.0
8525,49.0,0.0,40.0,10.0,0.0
8526,66.0,0.0,40.0,7.0,0.0
8527,35.0,60.0,40.0,10.0,0.0
8528,66.0,0.0,40.0,7.0,0.0
8529,59.0,0.0,40.0,7.0,0.0
8530,63.0,0.0,40.0,7.0,0.0
8531,63.0,0.0,40.0,7.0,0.0
8532,59.0,0.0,40.0,7.0,0.0
8533,54.0,60.0,40.0,10.0,0.0
8534,71.0,0.0,40.0,7.0,0.0
8535,47.0,0.0,40.0,10.0,0.0
8536,51.0,0.0,40.0,10.0,0.0
8537,42.0,0.0,40.0,10.0,0.0
8538,71.0,60.0,40.0,7.0,0.0
8539,63.0,0.0,40.0,7.0,0.0
8540,66.0,0.0,40.0,7.0,0.0
8541,63.0,60.0,40.0,7.0,0.0
8542,66.0,0.0,40.0,7.0,0.0
8543,35.0,0.0,40.0,10.0,0.0
8544,75.0,0.0,40.0,7.0,0.0
8545,54.0,36.0,40.0,10.0,0.0
8546,75.0,24.0,20.0,7.0,0.0
8547,66.0,0.0,40.0,7.0,0.0
8548,71.0,6.0,40.0,7.0,0.0
8549,51.0,0.0,40.0,10.0,0.0
8550,47.0,0.0,40.0,10.0,0.0
8551,42.0,0.0,40.0,10.0,0.0
8552,78.0,30.0,20.0,7.0,0.0
8553,35.0,6.0,40.0,10.0,0.0
8554,78.0,24.0,20.0,7.0,0.0
8555,71.0,0.0,40.0,7.0,0.0
8556,75.0,0.0,40.0,7.0,0.0
8557,83.0,54.0,20.0,7.0,0.0
8558,83.0,0.0,210.0,7.0,0.0
8559,78.0,0.0,210.0,7.0,0.0
8560,75.0,12.0,210.0,7.0,0.0
8561,71.0,0.0,210.0,7.0,0.0
8562,54.0,60.0,40.0,10.0,0.0
8563,42.0,0.0,40.0,10.0,0.0
8564,51.0,0.0,40.0,10.0,0.0
8565,47.0,60.0,40.0,10.0,0.0
8566,35.0,48.0,40.0,10.0,0.0
8567,54.0,36.0,40.0,10.0,0.0
8568,51.0,0.0,40.0,10.0,0.0
8569,83.0,24.0,20.0,7.0,0.0
8570,42.0,0.0,40.0,10.0,0.0
8571,47.0,6.0,40.0,10.0,0.0
8572,75.0,0.0,40.0,7.0,0.0
8573,78.0,0.0,40.0,7.0,0.0
8574,87.0,54.0,20.0,7.0,0.0
8575,85.0,0.0,40.0,7.0,0.0
8576,78.0,60.0,40.0,7.0,0.0
8577,76.0,0.0,40.0,7.0,0.0
8578,30.0,0.0,40.0,10.0,0.0
8579,73.0,0.0,40.0,7.0,0.0
8580,54.0,36.0,40.0,10.0,0.0
8581,76.0,0.0,40.0,7.0,0.0
8582,49.0,6.0,40.0,10.0,0.0
8583,46.0,0.0,40.0,10.0,0.0
8584,82.0,24.0,20.0,7.0,0.0
8585,78.0,0.0,40.0,7.0,0.0
8586,73.0,0.0,40.0,7.0,0.0
8587,42.0,0.0,40.0,10.0,0.0
8588,85.0,54.0,20.0,7.0,0.0
8589,83.0,0.0,40.0,7.0,0.0
8590,35.0,60.0,40.0,10.0,0.0
8591,78.0,0.0,40.0,7.0,0.0
8592,75.0,0.0,40.0,7.0,0.0
8593,54.0,36.0,40.0,10.0,0.0
8594,51.0,0.0,40.0,10.0,0.0
8595,47.0,0.0,40.0,10.0,0.0
8596,42.0,0.0,40.0,10.0,0.0
8597,71.0,6.0,40.0,7.0,0.0
8598,75.0,24.0,20.0,7.0,0.0
8599,78.0,18.0,20.0,7.0,0.0
8600,78.0,15.0,15.0,7.0,0.0
8601,70.0,12.0,270.0,7.0,0.0
8602,73.0,0.0,270.0,7.0,0.0
8603,42.0,9.0,40.0,10.0,0.0
8604,80.0,15.0,15.0,7.0,0.0
8605,78.0,6.0,15.0,7.0,0.0
8606,80.0,15.0,15.0,7.0,0.0
8607,78.0,15.0,15.0,7.0,0.0
8608,54.0,9.0,40.0,10.0,0.0
8609,80.0,15.0,15.0,7.0,0.0
8610,78.0,6.0,15.0,7.0,0.0
8611,80.0,27.0,15.0,7.0,0.0
8612,49.0,0.0,40.0,10.0,0.0
8613,78.0,24.0,20.0,7.0,0.0
8614,46.0,6.0,40.0,10.0,0.0
8615,77.0,54.0,20.0,7.0,0.0
8616,42.0,48.0,40.0,10.0,0.0
8617,78.0,0.0,90.0,7.0,0.0
8618,58.0,36.0,40.0,10.0,0.0
8619,61.0,0.0,40.0,10.0,0.0
8620,60.0,0.0,40.0,10.0,0.0
8621,57.0,6.0,40.0,10.0,0.0
8622,66.0,24.0,20.0,7.0,0.0
8623,78.0,0.0,20.0,7.0,0.0
8624,77.0,0.0,20.0,7.0,0.0
8625,65.0,54.0,20.0,7.0,0.0
8626,77.0,0.0,40.0,7.0,0.0
8627,65.0,0.0,40.0,7.0,0.0
8628,42.0,0.0,90.0,5.0,0.0
8629,54.0,12.0,90.0,5.0,0.0
8630,42.0,48.0,40.0,10.0,0.0
8631,56.0,0.0,40.0,10.0,0.0
8632,59.0,36.0,40.0,10.0,0.0
8633,55.0,0.0,40.0,10.0,0.0
8634,58.0,6.0,40.0,10.0,0.0
8635,64.0,0.0,20.0,7.0,0.0
8636,76.0,24.0,20.0,7.0,0.0
8637,63.0,54.0,20.0,7.0,0.0
8638,75.0,0.0,20.0,7.0,0.0
8639,63.0,48.0,40.0,7.0,0.0
8640,75.0,0.0,40.0,7.0,0.0
8641,42.0,0.0,90.0,5.0,0.0
8642,54.0,12.0,90.0,5.0,0.0
8643,42.0,0.0,40.0,10.0,0.0
8644,57.0,0.0,40.0,10.0,0.0
8645,54.0,36.0,40.0,10.0,0.0
8646,53.0,0.0,40.0,10.0,0.0
8647,56.0,6.0,40.0,10.0,0.0
8648,62.0,0.0,20.0,7.0,0.0
8649,74.0,24.0,20.0,7.0,0.0
8650,73.0,0.0,20.0,7.0,0.0
8651,61.0,54.0,20.0,7.0,0.0
8652,42.0,48.0,40.0,10.0,0.0
8653,54.0,12.0,90.0,5.0,0.0
8654,61.0,0.0,40.0,7.0,0.0
8655,73.0,0.0,40.0,7.0,0.0
8656,42.0,0.0,90.0,5.0,0.0
8657,52.0,0.0,40.0,10.0,0.0
8658,55.0,36.0,40.0,10.0,0.0
8659,62.0,0.0,20.0,7.0,0.0
8660,51.0,0.0,40.0,10.0,0.0
8661,72.0,24.0,20.0,7.0,0.0
8662,54.0,6.0,40.0,10.0,0.0
8663,59.0,0.0,20.0,7.0,0.0
8664,71.0,54.0,20.0,7.0,0.0
8665,42.0,0.0,90.0,5.0,0.0
8666,42.0,48.0,40.0,10.0,0.0
8667,71.0,0.0,40.0,7.0,0.0
8668,59.0,0.0,40.0,7.0,0.0
8669,54.0,12.0,90.0,5.0,0.0
8670,50.0,36.0,40.0,10.0,0.0
8671,53.0,0.0,40.0,10.0,0.0
8672,59.0,0.0,20.0,7.0,0.0
8673,64.0,6.0,40.0,7.0,0.0
8674,66.0,0.0,40.0,7.0,0.0
8675,49.0,0.0,40.0,10.0,0.0
8676,52.0,0.0,40.0,10.0,0.0
8677,71.0,24.0,20.0,7.0,0.0
8678,70.0,0.0,20.0,7.0,0.0
8679,58.0,54.0,20.0,7.0,0.0
8680,30.0,0.0,90.0,14.0,0.0
8681,58.0,0.0,90.0,14.0,0.0
8682,54.0,0.0,90.0,14.0,0.0
8683,42.0,4.0,660.0,5.0,0.0
8684,54.0,0.0,660.0,5.0,0.0
8685,42.0,0.0,90.0,14.0,0.0
8686,49.0,12.0,90.0,14.0,0.0
8687,58.0,0.0,90.0,7.0,0.0
8688,66.0,0.0,90.0,7.0,0.0
8689,70.0,0.0,90.0,7.0,0.0
8690,64.0,0.0,90.0,7.0,0.0
8691,30.0,48.0,40.0,10.0,0.0
8692,54.0,60.0,40.0,10.0,0.0
8693,70.0,60.0,40.0,7.0,0.0
8694,49.0,0.0,40.0,10.0,0.0
8695,46.0,0.0,40.0,10.0,0.0
8696,42.0,0.0,40.0,10.0,0.0
8697,66.0,0.0,40.0,7.0,0.0
8698,64.0,0.0,40.0,7.0,0.0
8699,58.0,0.0,40.0,7.0,0.0
8700,54.0,12.0,90.0,14.0,0.0
8701,66.0,24.0,60.0,7.0,0.0
8702,64.0,0.0,60.0,7.0,0.0
8703,70.0,0.0,60.0,7.0,0.0
8704,42.0,0.0,90.0,14.0,0.0
8705,46.0,0.0,90.0,14.0,0.0
8706,61.0,0.0,90.0,14.0,0.0
8707,58.0,0.0,60.0,7.0,0.0
8708,30.0,24.0,40.0,10.0,0.0
8709,30.0,0.0,90.0,14.0,0.0
8710,54.0,6.0,40.0,10.0,0.0
8711,71.0,0.0,20.0,7.0,0.0
8712,66.0,0.0,20.0,7.0,0.0
8713,64.0,54.0,20.0,7.0,0.0
8714,59.0,0.0,20.0,7.0,0.0
8715,66.0,0.0,40.0,7.0,0.0
8716,49.0,0.0,40.0,10.0,0.0
8717,42.0,0.0,40.0,10.0,0.0
8718,46.0,0.0,40.0,10.0,0.0
8719,61.0,0.0,40.0,7.0,0.0
8720,73.0,0.0,40.0,7.0,0.0
8721,64.0,60.0,40.0,7.0,0.0
8722,35.0,0.0,90.0,14.0,0.0
8723,47.0,0.0,90.0,14.0,0.0
8724,51.0,12.0,90.0,14.0,0.0
8725,35.0,0.0,40.0,10.0,0.0
8726,59.0,0.0,90.0,14.0,0.0
8727,54.0,0.0,90.0,14.0,0.0
8728,64.0,0.0,40.0,7.0,0.0
8729,61.0,0.0,40.0,7.0,0.0
8730,73.0,0.0,40.0,7.0,0.0
8731,66.0,48.0,40.0,7.0,0.0
8732,63.0,0.0,40.0,7.0,0.0
8733,66.0,60.0,40.0,7.0,0.0
8734,54.0,0.0,40.0,10.0,0.0
8735,75.0,0.0,40.0,7.0,0.0
8736,63.0,0.0,40.0,7.0,0.0
8737,51.0,0.0,40.0,10.0,0.0
8738,47.0,0.0,40.0,10.0,0.0
8739,42.0,0.0,40.0,10.0,0.0
8740,66.0,108.0,40.0,7.0,0.0
8741,71.0,0.0,40.0,7.0,0.0
8742,59.0,0.0,40.0,7.0,0.0
8743,35.0,32.0,120.0,10.0,0.0
8744,63.0,0.0,90.0,7.0,0.0
8745,59.0,12.0,90.0,7.0,0.0
8746,66.0,0.0,90.0,7.0,0.0
8747,71.0,0.0,90.0,7.0,0.0
8748,66.0,24.0,20.0,7.0,0.0
8749,61.0,6.0,40.0,10.0,0.0
8750,58.0,0.0,40.0,10.0,0.0
8751,78.0,30.0,20.0,7.0,0.0
8752,60.0,6.0,40.0,10.0,0.0
8753,57.0,0.0,40.0,10.0,0.0
8754,65.0,24.0,20.0,7.0,0.0
8755,77.0,30.0,20.0,7.0,0.0
8756,65.0,24.0,20.0,7.0,0.0
8757,57.0,6.0,40.0,10.0,0.0
8758,60.0,0.0,40.0,10.0,0.0
8759,77.0,30.0,20.0,7.0,0.0
8760,64.0,24.0,20.0,7.0,0.0
8761,56.0,0.0,40.0,10.0,0.0
8762,59.0,6.0,40.0,10.0,0.0
8763,76.0,30.0,20.0,7.0,0.0
8764,55.0,6.0,40.0,10.0,0.0
8765,58.0,0.0,40.0,10.0,0.0
8766,63.0,24.0,20.0,7.0,0.0
8767,75.0,30.0,20.0,7.0,0.0
8768,58.0,6.0,40.0,10.0,0.0
8769,63.0,24.0,20.0,7.0,0.0
8770,55.0,0.0,40.0,10.0,0.0
8771,75.0,30.0,20.0,7.0,0.0
8772,62.0,24.0,20.0,7.0,0.0
8773,54.0,0.0,40.0,10.0,0.0
8774,57.0,6.0,40.0,10.0,0.0
8775,74.0,30.0,20.0,7.0,0.0
8776,53.0,0.0,40.0,10.0,0.0
8777,61.0,24.0,20.0,7.0,0.0
8778,56.0,6.0,40.0,10.0,0.0
8779,73.0,30.0,20.0,7.0,0.0
8780,61.0,24.0,20.0,7.0,0.0
8781,56.0,0.0,40.0,10.0,0.0
8782,53.0,6.0,40.0,10.0,0.0
8783,73.0,30.0,20.0,7.0,0.0
8784,60.0,24.0,20.0,7.0,0.0
8785,55.0,6.0,40.0,10.0,0.0
8786,52.0,0.0,40.0,10.0,0.0
8787,72.0,30.0,20.0,7.0,0.0
8788,51.0,6.0,40.0,10.0,0.0
8789,54.0,0.0,40.0,10.0,0.0
8790,59.0,24.0,20.0,7.0,0.0
8791,71.0,30.0,20.0,7.0,0.0
8792,54.0,6.0,40.0,10.0,0.0
8793,51.0,0.0,40.0,10.0,0.0
8794,59.0,24.0,20.0,7.0,0.0
8795,71.0,30.0,20.0,7.0,0.0
8796,46.0,30.0,20.0,12.0,0.0
8797,58.0,0.0,20.0,11.0,0.0
8798,45.0,0.0,20.0,12.0,0.0
8799,57.0,0.0,20.0,11.0,0.0
8800,45.0,0.0,40.0,12.0,0.0
8801,57.0,0.0,40.0,11.0,0.0
8802,45.0,36.0,40.0,12.0,0.0
8803,57.0,0.0,40.0,11.0,0.0
8804,44.0,0.0,20.0,12.0,0.0
8805,56.0,0.0,20.0,11.0,0.0
8806,43.0,54.0,20.0,12.0,0.0
8807,55.0,0.0,20.0,11.0,0.0
8808,55.0,0.0,40.0,11.0,0.0
8809,43.0,0.0,40.0,12.0,0.0
8810,43.0,36.0,40.0,12.0,0.0
8811,55.0,0.0,40.0,11.0,0.0
8812,42.0,0.0,20.0,12.0,0.0
8813,54.0,0.0,20.0,11.0,0.0
8814,53.0,0.0,20.0,11.0,0.0
8815,41.0,0.0,20.0,12.0,0.0
8816,41.0,0.0,40.0,12.0,0.0
8817,53.0,0.0,40.0,11.0,0.0
8818,53.0,0.0,40.0,11.0,0.0
8819,41.0,0.0,40.0,12.0,0.0
8820,52.0,0.0,20.0,11.0,0.0
8821,40.0,30.0,20.0,12.0,0.0
8822,39.0,54.0,20.0,12.0,0.0
8823,51.0,0.0,20.0,11.0,0.0
8824,39.0,0.0,40.0,12.0,0.0
8825,51.0,0.0,40.0,11.0,0.0
8826,51.0,0.0,40.0,11.0,0.0
8827,39.0,0.0,40.0,12.0,0.0
8828,66.0,6.0,40.0,3.0,0.0
8829,54.0,0.0,40.0,3.0,0.0
8830,66.0,0.0,40.0,5.0,0.0
8831,54.0,0.0,40.0,5.0,0.0
8832,49.0,0.0,20.0,13.0,0.0
8833,54.0,0.0,20.0,11.0,0.0
8834,66.0,0.0,40.0,0.0,0.0
8835,78.0,0.0,40.0,1.0,0.0
8836,66.0,0.0,40.0,1.0,0.0
8837,42.0,0.0,40.0,4.0,0.0
8838,37.0,0.0,20.0,12.0,0.0
8839,49.0,0.0,20.0,11.0,0.0
8840,66.0,24.0,20.0,11.0,0.0
8841,54.0,0.0,40.0,4.0,0.0
8842,54.0,0.0,20.0,11.0,0.0
8843,47.0,0.0,20.0,13.0,0.0
8844,35.0,54.0,20.0,12.0,0.0
8845,47.0,0.0,20.0,11.0,0.0
8846,66.0,0.0,20.0,11.0,0.0
8847,59.0,0.0,40.0,6.0,0.0
8848,75.0,0.0,40.0,1.0,0.0
8849,63.0,0.0,120.0,5.0,0.0
8850,47.0,60.0,40.0,8.0,0.0
8851,47.0,0.0,40.0,6.0,0.0
8852,54.0,0.0,150.0,11.0,0.0
8853,47.0,0.0,40.0,13.0,0.0
8854,59.0,0.0,120.0,5.0,0.0
8855,66.0,0.0,40.0,0.0,0.0
8856,71.0,0.0,40.0,1.0,0.0
8857,54.0,0.0,40.0,4.0,0.0
8858,51.0,0.0,150.0,11.0,0.0
8859,47.0,24.0,150.0,11.0,0.0
8860,66.0,0.0,40.0,3.0,0.0
8861,54.0,0.0,40.0,3.0,0.0
8862,35.0,0.0,40.0,12.0,0.0
8863,42.0,0.0,40.0,4.0,0.0
8864,66.0,0.0,40.0,11.0,0.0
8865,59.0,0.0,40.0,3.0,0.0
8866,35.0,0.0,40.0,12.0,0.0
8867,71.0,0.0,40.0,3.0,0.0
8868,71.0,36.0,40.0,1.0,0.0
8869,47.0,0.0,40.0,4.0,0.0
8870,59.0,0.0,40.0,4.0,0.0
8871,75.0,0.0,40.0,1.0,0.0
8872,59.0,0.0,40.0,6.0,0.0
8873,47.0,0.0,40.0,6.0,0.0
8874,71.0,0.0,40.0,0.0,0.0
8875,71.0,0.0,40.0,11.0,0.0
8876,47.0,0.0,40.0,13.0,0.0
8877,59.0,0.0,150.0,5.0,0.0
8878,59.0,0.0,150.0,6.0,0.0
8879,47.0,16.0,150.0,6.0,0.0
8880,47.0,0.0,40.0,8.0,0.0
8881,71.0,0.0,40.0,1.0,0.0
8882,47.0,0.0,40.0,4.0,0.0
8883,75.0,0.0,40.0,1.0,0.0
8884,59.0,0.0,40.0,4.0,0.0
8885,71.0,0.0,40.0,0.0,0.0
8886,71.0,60.0,40.0,11.0,0.0
8887,59.0,0.0,40.0,3.0,0.0
8888,71.0,0.0,40.0,3.0,0.0
8889,47.0,0.0,40.0,13.0,0.0
8890,35.0,0.0,40.0,12.0,0.0
8891,63.0,0.0,150.0,5.0,0.0
8892,51.0,0.0,40.0,4.0,0.0
8893,75.0,0.0,40.0,0.0,0.0
8894,47.0,0.0,150.0,11.0,0.0
8895,51.0,24.0,150.0,11.0,0.0
8896,47.0,0.0,90.0,13.0,0.0
8897,35.0,0.0,90.0,12.0,0.0
8898,71.0,32.0,120.0,1.0,0.0
8899,75.0,0.0,40.0,3.0,0.0
8900,63.0,0.0,40.0,3.0,0.0
8901,63.0,0.0,40.0,4.0,0.0
8902,54.0,0.0,150.0,11.0,0.0
8903,75.0,48.0,40.0,11.0,0.0
8904,66.0,0.0,150.0,11.0,0.0
8905,75.0,0.0,120.0,1.0,0.0
8906,59.0,0.0,20.0,6.0,0.0
8907,59.0,0.0,40.0,5.0,0.0
8908,63.0,0.0,40.0,5.0,0.0
8909,75.0,0.0,40.0,1.0,0.0
8910,47.0,0.0,40.0,13.0,0.0
8911,71.0,0.0,40.0,1.0,0.0
8912,35.0,6.0,40.0,12.0,0.0
8913,47.0,0.0,40.0,8.0,0.0
8914,47.0,0.0,20.0,6.0,0.0
8915,47.0,0.0,20.0,4.0,0.0
8916,63.0,0.0,20.0,3.0,0.0
8917,75.0,0.0,20.0,3.0,0.0
8918,75.0,0.0,20.0,0.0,0.0
8919,51.0,0.0,20.0,4.0,0.0
8920,75.0,0.0,20.0,11.0,0.0
8921,63.0,0.0,20.0,0.0,0.0
8922,78.0,0.0,20.0,3.0,0.0
8923,78.0,0.0,20.0,0.0,0.0
8924,47.0,0.0,20.0,6.0,0.0
8925,66.0,0.0,20.0,3.0,0.0
8926,66.0,30.0,20.0,0.0,0.0
8927,54.0,0.0,20.0,4.0,0.0
8928,78.0,0.0,20.0,11.0,0.0
8929,51.0,0.0,20.0,4.0,0.0
8930,59.0,0.0,20.0,6.0,0.0
8931,59.0,0.0,40.0,6.0,0.0
8932,66.0,0.0,20.0,3.0,0.0
8933,54.0,0.0,20.0,3.0,0.0
8934,71.0,0.0,40.0,1.0,0.0
8935,66.0,0.0,20.0,11.0,0.0
8936,54.0,0.0,20.0,11.0,0.0
8937,35.0,0.0,40.0,12.0,0.0
8938,47.0,0.0,40.0,6.0,0.0
8939,51.0,0.0,20.0,11.0,0.0
8940,59.0,0.0,40.0,5.0,0.0
8941,78.0,0.0,20.0,11.0,0.0
8942,51.0,0.0,40.0,4.0,0.0
8943,47.0,0.0,40.0,13.0,0.0
8944,54.0,0.0,20.0,4.0,0.0
8945,47.0,0.0,40.0,8.0,0.0
8946,66.0,24.0,20.0,0.0,0.0
8947,63.0,0.0,40.0,5.0,0.0
8948,47.0,0.0,20.0,11.0,0.0
8949,78.0,0.0,20.0,0.0,0.0
8950,75.0,6.0,40.0,1.0,0.0
8951,51.0,0.0,20.0,11.0,0.0
8952,71.0,30.0,20.0,3.0,0.0
8953,59.0,0.0,20.0,4.0,0.0
8954,71.0,0.0,20.0,0.0,0.0
8955,66.0,0.0,20.0,11.0,0.0
8956,83.0,0.0,20.0,0.0,0.0
8957,83.0,0.0,20.0,11.0,0.0
8958,47.0,0.0,20.0,11.0,0.0
8959,54.0,0.0,20.0,11.0,0.0
8960,59.0,0.0,20.0,3.0,0.0
8961,54.0,0.0,20.0,11.0,0.0
8962,51.0,0.0,20.0,11.0,0.0
8963,63.0,0.0,210.0,5.0,0.0
8964,59.0,48.0,210.0,5.0,0.0
8965,59.0,0.0,210.0,4.0,0.0
8966,35.0,0.0,210.0,12.0,0.0
8967,75.0,0.0,210.0,1.0,0.0
8968,59.0,0.0,210.0,3.0,0.0
8969,71.0,0.0,210.0,3.0,0.0
8970,51.0,0.0,210.0,4.0,0.0
8971,66.0,30.0,20.0,11.0,0.0
8972,71.0,0.0,210.0,1.0,0.0
8973,47.0,0.0,20.0,11.0,0.0
8974,59.0,0.0,210.0,6.0,0.0
8975,71.0,0.0,210.0,0.0,0.0
8976,83.0,0.0,210.0,0.0,0.0
8977,47.0,0.0,210.0,6.0,0.0
8978,47.0,0.0,210.0,13.0,0.0
8979,83.0,0.0,210.0,11.0,0.0
8980,47.0,0.0,20.0,8.0,0.0
8981,51.0,30.0,20.0,11.0,0.0
8982,47.0,0.0,20.0,8.0,0.0
8983,54.0,0.0,20.0,11.0,0.0
8984,66.0,0.0,20.0,11.0,0.0
8985,47.0,0.0,20.0,11.0,0.0
8986,51.0,0.0,20.0,11.0,0.0
8987,47.0,0.0,20.0,8.0,0.0
8988,47.0,0.0,20.0,11.0,0.0
8989,66.0,0.0,20.0,11.0,0.0
8990,54.0,30.0,20.0,11.0,0.0
8991,47.0,0.0,20.0,8.0,0.0
8992,47.0,0.0,20.0,11.0,0.0
8993,51.0,0.0,20.0,11.0,0.0
8994,66.0,102.0,20.0,11.0,0.0
8995,54.0,0.0,20.0,11.0,0.0
8996,54.0,0.0,150.0,11.0,0.0
8997,66.0,0.0,150.0,11.0,0.0
8998,51.0,0.0,150.0,11.0,0.0
8999,47.0,0.0,150.0,11.0,0.0
9000,47.0,0.0,90.0,8.0,0.0
9001,75.0,0.0,40.0,1.0,0.0
9002,47.0,0.0,40.0,4.0,0.0
9003,63.0,0.0,40.0,5.0,0.0
9004,71.0,0.0,40.0,1.0,0.0
9005,83.0,24.0,20.0,0.0,0.0
9006,71.0,0.0,20.0,0.0,0.0
9007,83.0,0.0,20.0,11.0,0.0
9008,47.0,6.0,40.0,13.0,0.0
9009,59.0,0.0,40.0,5.0,0.0
9010,59.0,0.0,20.0,4.0,0.0
9011,71.0,0.0,20.0,3.0,0.0
9012,47.0,0.0,40.0,6.0,0.0
9013,59.0,0.0,40.0,6.0,0.0
9014,47.0,0.0,40.0,8.0,0.0
9015,59.0,0.0,20.0,3.0,0.0
9016,47.0,0.0,40.0,12.0,0.0
9017,75.0,54.0,20.0,0.0,0.0
9018,87.0,0.0,20.0,0.0,0.0
9019,63.0,0.0,20.0,3.0,0.0
9020,75.0,0.0,20.0,3.0,0.0
9021,87.0,0.0,20.0,11.0,0.0
9022,63.0,0.0,20.0,4.0,0.0
9023,73.0,0.0,40.0,0.0,0.0
9024,85.0,0.0,40.0,0.0,0.0
9025,85.0,0.0,40.0,11.0,0.0
9026,54.0,0.0,40.0,6.0,0.0
9027,73.0,0.0,40.0,3.0,0.0
9028,76.0,0.0,40.0,1.0,0.0
9029,46.0,48.0,40.0,13.0,0.0
9030,42.0,0.0,40.0,6.0,0.0
9031,61.0,0.0,40.0,3.0,0.0
9032,46.0,0.0,40.0,12.0,0.0
9033,42.0,0.0,40.0,8.0,0.0
9034,54.0,48.0,90.0,5.0,0.0
9035,61.0,0.0,90.0,5.0,0.0
9036,49.0,0.0,150.0,11.0,0.0
9037,52.0,24.0,150.0,11.0,0.0
9038,73.0,0.0,40.0,1.0,0.0
9039,64.0,0.0,150.0,11.0,0.0
9040,54.0,0.0,150.0,11.0,0.0
9041,61.0,0.0,40.0,4.0,0.0
9042,46.0,0.0,40.0,4.0,0.0
9043,82.0,0.0,20.0,11.0,0.0
9044,42.0,0.0,40.0,13.0,0.0
9045,42.0,0.0,40.0,4.0,0.0
9046,54.0,0.0,40.0,6.0,0.0
9047,42.0,0.0,40.0,6.0,0.0
9048,58.0,0.0,20.0,4.0,0.0
9049,61.0,0.0,40.0,5.0,0.0
9050,54.0,6.0,40.0,5.0,0.0
9051,70.0,0.0,20.0,3.0,0.0
9052,42.0,0.0,40.0,8.0,0.0
9053,82.0,0.0,20.0,0.0,0.0
9054,42.0,0.0,40.0,12.0,0.0
9055,58.0,0.0,20.0,3.0,0.0
9056,73.0,0.0,40.0,1.0,0.0
9057,70.0,0.0,20.0,0.0,0.0
9058,76.0,0.0,40.0,1.0,0.0
9059,85.0,0.0,20.0,0.0,0.0
9060,73.0,0.0,20.0,3.0,0.0
9061,61.0,54.0,20.0,3.0,0.0
9062,85.0,0.0,20.0,11.0,0.0
9063,73.0,0.0,20.0,0.0,0.0
9064,61.0,0.0,20.0,4.0,0.0
9065,59.0,0.0,40.0,3.0,0.0
9066,75.0,0.0,40.0,1.0,0.0
9067,71.0,0.0,40.0,3.0,0.0
9068,47.0,0.0,150.0,11.0,0.0
9069,51.0,0.0,150.0,11.0,0.0
9070,71.0,0.0,40.0,1.0,0.0
9071,54.0,0.0,150.0,11.0,0.0
9072,63.0,24.0,150.0,11.0,0.0
9073,83.0,0.0,40.0,0.0,0.0
9074,59.0,0.0,40.0,6.0,0.0
9075,83.0,0.0,40.0,11.0,0.0
9076,51.0,48.0,90.0,5.0,0.0
9077,59.0,0.0,90.0,5.0,0.0
9078,47.0,0.0,40.0,6.0,0.0
9079,47.0,0.0,40.0,12.0,0.0
9080,59.0,0.0,40.0,4.0,0.0
9081,47.0,0.0,40.0,13.0,0.0
9082,47.0,0.0,40.0,8.0,0.0
9083,71.0,48.0,40.0,0.0,0.0
9084,47.0,0.0,40.0,4.0,0.0
9085,66.0,0.0,40.0,0.0,0.0
9086,51.0,0.0,40.0,4.0,0.0
9087,51.0,0.0,40.0,12.0,0.0
9088,47.0,0.0,40.0,6.0,0.0
9089,78.0,0.0,40.0,11.0,0.0
9090,54.0,0.0,40.0,4.0,0.0
9091,59.0,0.0,40.0,6.0,0.0
9092,78.0,0.0,40.0,0.0,0.0
9093,59.0,0.0,40.0,5.0,0.0
9094,63.0,0.0,40.0,5.0,0.0
9095,54.0,0.0,40.0,3.0,0.0
9096,51.0,24.0,40.0,13.0,0.0
9097,66.0,0.0,40.0,3.0,0.0
9098,47.0,0.0,40.0,8.0,0.0
9099,71.0,0.0,40.0,1.0,0.0
9100,75.0,0.0,40.0,1.0,0.0
9101,54.0,0.0,40.0,12.0,0.0
9102,58.0,0.0,40.0,3.0,0.0
9103,66.0,0.0,15.0,3.0,0.0
9104,42.0,0.0,15.0,8.0,0.0
9105,78.0,0.0,15.0,0.0,0.0
9106,42.0,0.0,150.0,6.0,0.0
9107,73.0,0.0,150.0,1.0,0.0
9108,54.0,9.0,40.0,13.0,0.0
9109,61.0,0.0,150.0,5.0,0.0
9110,54.0,0.0,150.0,5.0,0.0
9111,54.0,0.0,150.0,6.0,0.0
9112,70.0,0.0,150.0,1.0,0.0
9113,61.0,24.0,150.0,11.0,0.0
9114,46.0,0.0,150.0,11.0,0.0
9115,49.0,0.0,150.0,11.0,0.0
9116,54.0,0.0,150.0,11.0,0.0
9117,78.0,0.0,15.0,11.0,0.0
9118,66.0,0.0,15.0,0.0,0.0
9119,54.0,15.0,15.0,4.0,0.0
9120,42.0,15.0,15.0,8.0,0.0
9121,56.0,0.0,15.0,4.0,0.0
9122,80.0,0.0,15.0,0.0,0.0
9123,68.0,0.0,15.0,0.0,0.0
9124,80.0,0.0,15.0,11.0,0.0
9125,68.0,0.0,15.0,3.0,0.0
9126,42.0,0.0,15.0,8.0,0.0
9127,78.0,0.0,15.0,11.0,0.0
9128,66.0,0.0,15.0,3.0,0.0
9129,78.0,0.0,15.0,0.0,0.0
9130,66.0,0.0,15.0,0.0,0.0
9131,54.0,6.0,15.0,4.0,0.0
9132,68.0,0.0,15.0,3.0,0.0
9133,68.0,0.0,15.0,0.0,0.0
9134,80.0,0.0,15.0,0.0,0.0
9135,42.0,0.0,15.0,8.0,0.0
9136,56.0,15.0,15.0,4.0,0.0
9137,80.0,0.0,15.0,11.0,0.0
9138,78.0,0.0,15.0,11.0,0.0
9139,42.0,0.0,40.0,13.0,0.0
9140,66.0,0.0,15.0,0.0,0.0
9141,66.0,0.0,15.0,3.0,0.0
9142,42.0,0.0,40.0,12.0,0.0
9143,42.0,0.0,15.0,8.0,0.0
9144,78.0,0.0,15.0,0.0,0.0
9145,61.0,0.0,40.0,3.0,0.0
9146,54.0,15.0,15.0,4.0,0.0
9147,42.0,9.0,40.0,4.0,0.0
9148,68.0,0.0,15.0,0.0,0.0
9149,80.0,0.0,15.0,0.0,0.0
9150,68.0,0.0,15.0,3.0,0.0
9151,80.0,0.0,15.0,11.0,0.0
9152,42.0,15.0,15.0,8.0,0.0
9153,56.0,0.0,15.0,4.0,0.0
9154,66.0,0.0,15.0,3.0,0.0
9155,78.0,0.0,15.0,11.0,0.0
9156,78.0,0.0,15.0,0.0,0.0
9157,66.0,0.0,15.0,0.0,0.0
9158,42.0,6.0,15.0,8.0,0.0
9159,54.0,0.0,15.0,4.0,0.0
9160,42.0,0.0,15.0,8.0,0.0
9161,56.0,0.0,15.0,4.0,0.0
9162,80.0,0.0,15.0,11.0,0.0
9163,80.0,0.0,15.0,0.0,0.0
9164,68.0,0.0,15.0,0.0,0.0
9165,68.0,27.0,15.0,3.0,0.0
9166,78.0,0.0,20.0,0.0,0.0
9167,42.0,0.0,40.0,13.0,0.0
9168,66.0,0.0,20.0,0.0,0.0
9169,42.0,0.0,40.0,4.0,0.0
9170,54.0,0.0,20.0,4.0,0.0
9171,66.0,0.0,20.0,3.0,0.0
9172,58.0,6.0,40.0,3.0,0.0
9173,42.0,0.0,40.0,8.0,0.0
9174,78.0,0.0,20.0,11.0,0.0
9175,42.0,0.0,40.0,12.0,0.0
9176,77.0,0.0,20.0,11.0,0.0
9177,53.0,30.0,20.0,4.0,0.0
9178,65.0,0.0,20.0,0.0,0.0
9179,77.0,0.0,20.0,0.0,0.0
9180,65.0,0.0,20.0,3.0,0.0
9181,42.0,0.0,40.0,4.0,0.0
9182,54.0,0.0,40.0,4.0,0.0
9183,54.0,6.0,40.0,5.0,0.0
9184,42.0,0.0,40.0,13.0,0.0
9185,61.0,0.0,40.0,5.0,0.0
9186,66.0,0.0,40.0,3.0,0.0
9187,54.0,0.0,40.0,3.0,0.0
9188,46.0,0.0,20.0,11.0,0.0
9189,54.0,0.0,40.0,6.0,0.0
9190,42.0,0.0,40.0,6.0,0.0
9191,78.0,0.0,40.0,0.0,0.0
9192,66.0,0.0,40.0,0.0,0.0
9193,78.0,0.0,40.0,11.0,0.0
9194,49.0,0.0,20.0,11.0,0.0
9195,70.0,0.0,40.0,1.0,0.0
9196,73.0,0.0,40.0,1.0,0.0
9197,61.0,0.0,20.0,11.0,0.0
9198,42.0,0.0,40.0,12.0,0.0
9199,54.0,24.0,20.0,11.0,0.0
9200,54.0,0.0,20.0,11.0,0.0
9201,46.0,0.0,20.0,11.0,0.0
9202,49.0,0.0,20.0,11.0,0.0
9203,61.0,30.0,20.0,11.0,0.0
9204,42.0,0.0,20.0,13.0,0.0
9205,42.0,0.0,20.0,12.0,0.0
9206,54.0,0.0,20.0,11.0,0.0
9207,61.0,30.0,20.0,11.0,0.0
9208,52.0,0.0,20.0,13.0,0.0
9209,40.0,0.0,20.0,12.0,0.0
9210,54.0,30.0,20.0,11.0,0.0
9211,61.0,0.0,20.0,11.0,0.0
9212,52.0,0.0,20.0,11.0,0.0
9213,42.0,0.0,40.0,4.0,0.0
9214,63.0,0.0,20.0,11.0,0.0
9215,54.0,24.0,20.0,11.0,0.0
9216,54.0,6.0,40.0,5.0,0.0
9217,66.0,0.0,40.0,5.0,0.0
9218,39.0,0.0,20.0,12.0,0.0
9219,54.0,0.0,40.0,4.0,0.0
9220,51.0,0.0,20.0,11.0,0.0
9221,51.0,0.0,20.0,13.0,0.0
9222,66.0,0.0,40.0,11.0,0.0
9223,66.0,0.0,40.0,0.0,0.0
9224,75.0,0.0,40.0,1.0,0.0
9225,66.0,0.0,40.0,3.0,0.0
9226,54.0,0.0,40.0,3.0,0.0
9227,71.0,0.0,40.0,1.0,0.0
9228,49.0,0.0,20.0,11.0,0.0
9229,54.0,0.0,20.0,11.0,0.0
9230,63.0,0.0,20.0,11.0,0.0
9231,49.0,0.0,20.0,13.0,0.0
9232,37.0,54.0,20.0,12.0,0.0
9233,47.0,0.0,40.0,8.0,0.0
9234,35.0,0.0,40.0,12.0,0.0
9235,54.0,0.0,40.0,4.0,0.0
9236,42.0,0.0,40.0,4.0,0.0
9237,47.0,0.0,150.0,11.0,0.0
9238,51.0,24.0,150.0,11.0,0.0
9239,75.0,0.0,40.0,1.0,0.0
9240,71.0,0.0,40.0,1.0,0.0
9241,47.0,0.0,40.0,13.0,0.0
9242,66.0,0.0,40.0,11.0,0.0
9243,54.0,60.0,40.0,3.0,0.0
9244,66.0,0.0,40.0,0.0,0.0
9245,59.0,0.0,120.0,5.0,0.0
9246,47.0,0.0,120.0,6.0,0.0
9247,59.0,0.0,120.0,6.0,0.0
9248,54.0,0.0,150.0,11.0,0.0
9249,63.0,0.0,150.0,11.0,0.0
9250,63.0,36.0,120.0,5.0,0.0
9251,66.0,0.0,40.0,3.0,0.0
9252,71.0,0.0,40.0,0.0,0.0
9253,47.0,0.0,40.0,13.0,0.0
9254,47.0,0.0,40.0,4.0,0.0
9255,59.0,0.0,40.0,4.0,0.0
9256,35.0,0.0,40.0,12.0,0.0
9257,71.0,0.0,40.0,3.0,0.0
9258,71.0,0.0,40.0,11.0,0.0
9259,75.0,0.0,40.0,1.0,0.0
9260,71.0,0.0,40.0,1.0,0.0
9261,59.0,0.0,40.0,3.0,0.0
9262,75.0,0.0,40.0,1.0,0.0
9263,71.0,0.0,40.0,1.0,0.0
9264,59.0,0.0,40.0,4.0,0.0
9265,47.0,0.0,40.0,13.0,0.0
9266,47.0,0.0,40.0,4.0,0.0
9267,71.0,0.0,40.0,11.0,0.0
9268,71.0,0.0,40.0,0.0,0.0
9269,59.0,0.0,150.0,6.0,0.0
9270,63.0,0.0,150.0,5.0,0.0
9271,59.0,0.0,150.0,5.0,0.0
9272,47.0,60.0,40.0,8.0,0.0
9273,35.0,0.0,40.0,12.0,0.0
9274,59.0,0.0,40.0,3.0,0.0
9275,71.0,0.0,40.0,3.0,0.0
9276,47.0,16.0,150.0,6.0,0.0
9277,63.0,0.0,150.0,11.0,0.0
9278,75.0,0.0,40.0,0.0,0.0
9279,75.0,0.0,40.0,11.0,0.0
9280,35.0,0.0,90.0,12.0,0.0
9281,75.0,48.0,40.0,3.0,0.0
9282,63.0,0.0,40.0,3.0,0.0
9283,51.0,0.0,150.0,11.0,0.0
9284,47.0,0.0,150.0,11.0,0.0
9285,51.0,0.0,40.0,4.0,0.0
9286,63.0,0.0,40.0,4.0,0.0
9287,54.0,24.0,150.0,11.0,0.0
9288,47.0,0.0,90.0,13.0,0.0
9289,75.0,0.0,120.0,1.0,0.0
9290,71.0,32.0,120.0,1.0,0.0
9291,59.0,0.0,20.0,6.0,0.0
9292,47.0,0.0,20.0,6.0,0.0
9293,63.0,0.0,20.0,3.0,0.0
9294,59.0,0.0,40.0,5.0,0.0
9295,47.0,0.0,40.0,13.0,0.0
9296,75.0,0.0,20.0,3.0,0.0
9297,75.0,6.0,40.0,1.0,0.0
9298,63.0,0.0,40.0,5.0,0.0
9299,47.0,0.0,40.0,8.0,0.0
9300,75.0,0.0,20.0,11.0,0.0
9301,35.0,0.0,40.0,12.0,0.0
9302,51.0,0.0,20.0,4.0,0.0
9303,63.0,0.0,20.0,0.0,0.0
9304,75.0,0.0,20.0,0.0,0.0
9305,71.0,0.0,40.0,1.0,0.0
9306,47.0,0.0,20.0,4.0,0.0
9307,54.0,0.0,20.0,4.0,0.0
9308,51.0,0.0,20.0,4.0,0.0
9309,66.0,0.0,20.0,3.0,0.0
9310,78.0,0.0,20.0,3.0,0.0
9311,47.0,0.0,20.0,6.0,0.0
9312,59.0,0.0,20.0,6.0,0.0
9313,66.0,0.0,20.0,0.0,0.0
9314,78.0,0.0,20.0,0.0,0.0
9315,78.0,30.0,20.0,11.0,0.0
9316,78.0,0.0,20.0,0.0,0.0
9317,54.0,0.0,20.0,11.0,0.0
9318,63.0,0.0,20.0,11.0,0.0
9319,78.0,0.0,20.0,11.0,0.0
9320,54.0,0.0,20.0,3.0,0.0
9321,66.0,0.0,20.0,3.0,0.0
9322,59.0,0.0,40.0,6.0,0.0
9323,71.0,0.0,40.0,1.0,0.0
9324,35.0,0.0,40.0,12.0,0.0
9325,47.0,24.0,20.0,11.0,0.0
9326,59.0,6.0,40.0,5.0,0.0
9327,51.0,0.0,20.0,11.0,0.0
9328,47.0,0.0,40.0,6.0,0.0
9329,66.0,0.0,20.0,0.0,0.0
9330,47.0,0.0,40.0,8.0,0.0
9331,63.0,0.0,40.0,5.0,0.0
9332,75.0,0.0,40.0,1.0,0.0
9333,47.0,0.0,40.0,13.0,0.0
9334,54.0,0.0,20.0,4.0,0.0
9335,51.0,0.0,40.0,4.0,0.0
9336,63.0,0.0,20.0,11.0,0.0
9337,47.0,0.0,20.0,11.0,0.0
9338,51.0,0.0,20.0,11.0,0.0
9339,71.0,30.0,20.0,3.0,0.0
9340,54.0,0.0,20.0,11.0,0.0
9341,59.0,0.0,240.0,4.0,0.0
9342,71.0,0.0,20.0,0.0,0.0
9343,59.0,0.0,20.0,3.0,0.0
9344,83.0,0.0,20.0,11.0,0.0
9345,83.0,0.0,20.0,0.0,0.0
9346,83.0,0.0,210.0,0.0,0.0
9347,59.0,0.0,210.0,3.0,0.0
9348,51.0,0.0,20.0,11.0,0.0
9349,47.0,0.0,20.0,11.0,0.0
9350,71.0,0.0,210.0,1.0,0.0
9351,75.0,0.0,210.0,1.0,0.0
9352,51.0,48.0,210.0,4.0,0.0
9353,59.0,0.0,210.0,5.0,0.0
9354,63.0,0.0,210.0,5.0,0.0
9355,47.0,0.0,210.0,6.0,0.0
9356,71.0,0.0,210.0,0.0,0.0
9357,35.0,0.0,210.0,12.0,0.0
9358,47.0,30.0,20.0,8.0,0.0
9359,54.0,0.0,20.0,11.0,0.0
9360,47.0,0.0,210.0,13.0,0.0
9361,63.0,0.0,20.0,11.0,0.0
9362,59.0,0.0,210.0,6.0,0.0
9363,71.0,0.0,210.0,3.0,0.0
9364,83.0,0.0,210.0,11.0,0.0
9365,47.0,0.0,20.0,11.0,0.0
9366,54.0,0.0,20.0,11.0,0.0
9367,63.0,0.0,20.0,11.0,0.0
9368,47.0,30.0,20.0,8.0,0.0
9369,51.0,0.0,20.0,11.0,0.0
9370,47.0,0.0,20.0,11.0,0.0
9371,51.0,0.0,20.0,11.0,0.0
9372,63.0,30.0,20.0,11.0,0.0
9373,54.0,0.0,20.0,11.0,0.0
9374,47.0,0.0,20.0,8.0,0.0
9375,47.0,0.0,20.0,11.0,0.0
9376,63.0,0.0,20.0,11.0,0.0
9377,54.0,0.0,20.0,11.0,0.0
9378,51.0,102.0,20.0,11.0,0.0
9379,47.0,0.0,20.0,8.0,0.0
9380,47.0,0.0,150.0,11.0,0.0
9381,51.0,0.0,150.0,11.0,0.0
9382,47.0,0.0,90.0,8.0,0.0
9383,63.0,0.0,150.0,11.0,0.0
9384,54.0,0.0,150.0,11.0,0.0
9385,47.0,0.0,40.0,13.0,0.0
9386,47.0,0.0,40.0,8.0,0.0
9387,71.0,0.0,20.0,3.0,0.0
9388,59.0,0.0,20.0,3.0,0.0
9389,71.0,0.0,40.0,1.0,0.0
9390,59.0,24.0,20.0,4.0,0.0
9391,47.0,6.0,40.0,4.0,0.0
9392,63.0,0.0,40.0,5.0,0.0
9393,47.0,0.0,40.0,6.0,0.0
9394,47.0,0.0,40.0,12.0,0.0
9395,71.0,0.0,20.0,0.0,0.0
9396,59.0,0.0,40.0,6.0,0.0
9397,75.0,0.0,40.0,1.0,0.0
9398,83.0,0.0,20.0,0.0,0.0
9399,83.0,0.0,20.0,11.0,0.0
9400,59.0,0.0,40.0,5.0,0.0
9401,63.0,0.0,20.0,4.0,0.0
9402,63.0,0.0,20.0,3.0,0.0
9403,75.0,0.0,20.0,3.0,0.0
9404,75.0,54.0,20.0,0.0,0.0
9405,87.0,0.0,20.0,0.0,0.0
9406,87.0,0.0,20.0,11.0,0.0
9407,46.0,0.0,40.0,13.0,0.0
9408,61.0,0.0,90.0,5.0,0.0
9409,42.0,0.0,40.0,8.0,0.0
9410,61.0,0.0,40.0,4.0,0.0
9411,46.0,0.0,40.0,4.0,0.0
9412,85.0,0.0,40.0,11.0,0.0
9413,54.0,48.0,90.0,5.0,0.0
9414,54.0,24.0,150.0,11.0,0.0
9415,61.0,0.0,40.0,3.0,0.0
9416,64.0,0.0,150.0,11.0,0.0
9417,54.0,0.0,40.0,6.0,0.0
9418,73.0,0.0,40.0,3.0,0.0
9419,42.0,48.0,40.0,6.0,0.0
9420,49.0,0.0,90.0,11.0,0.0
9421,46.0,0.0,40.0,12.0,0.0
9422,76.0,0.0,40.0,1.0,0.0
9423,73.0,0.0,40.0,1.0,0.0
9424,85.0,0.0,40.0,0.0,0.0
9425,73.0,0.0,40.0,0.0,0.0
9426,46.0,0.0,90.0,11.0,0.0
9427,42.0,0.0,40.0,8.0,0.0
9428,42.0,0.0,40.0,6.0,0.0
9429,82.0,0.0,20.0,11.0,0.0
9430,70.0,0.0,20.0,0.0,0.0
9431,82.0,0.0,20.0,0.0,0.0
9432,42.0,0.0,40.0,4.0,0.0
9433,42.0,0.0,40.0,12.0,0.0
9434,52.0,0.0,20.0,11.0,0.0
9435,42.0,6.0,40.0,13.0,0.0
9436,54.0,0.0,40.0,6.0,0.0
9437,58.0,0.0,20.0,4.0,0.0
9438,49.0,0.0,20.0,11.0,0.0
9439,54.0,0.0,40.0,5.0,0.0
9440,61.0,0.0,40.0,5.0,0.0
9441,76.0,0.0,40.0,1.0,0.0
9442,58.0,0.0,20.0,3.0,0.0
9443,70.0,0.0,20.0,3.0,0.0
9444,73.0,0.0,40.0,1.0,0.0
9445,49.0,0.0,20.0,11.0,0.0
9446,85.0,54.0,20.0,11.0,0.0
9447,73.0,0.0,20.0,3.0,0.0
9448,61.0,0.0,20.0,3.0,0.0
9449,52.0,0.0,20.0,11.0,0.0
9450,85.0,0.0,20.0,0.0,0.0
9451,73.0,0.0,20.0,0.0,0.0
9452,61.0,0.0,20.0,4.0,0.0
9453,59.0,0.0,40.0,6.0,0.0
9454,83.0,0.0,40.0,0.0,0.0
9455,47.0,0.0,40.0,6.0,0.0
9456,71.0,0.0,40.0,0.0,0.0
9457,63.0,24.0,150.0,11.0,0.0
9458,54.0,0.0,150.0,11.0,0.0
9459,51.0,0.0,150.0,11.0,0.0
9460,47.0,0.0,40.0,13.0,0.0
9461,47.0,0.0,150.0,11.0,0.0
9462,75.0,0.0,40.0,1.0,0.0
9463,59.0,0.0,90.0,5.0,0.0
9464,47.0,0.0,40.0,4.0,0.0
9465,59.0,0.0,40.0,4.0,0.0
9466,47.0,0.0,40.0,8.0,0.0
9467,47.0,0.0,40.0,12.0,0.0
9468,71.0,0.0,40.0,3.0,0.0
9469,59.0,0.0,40.0,3.0,0.0
9470,71.0,48.0,40.0,1.0,0.0
9471,83.0,0.0,40.0,11.0,0.0
9472,51.0,48.0,90.0,5.0,0.0
9473,78.0,0.0,40.0,11.0,0.0
9474,66.0,0.0,40.0,0.0,0.0
9475,78.0,0.0,40.0,0.0,0.0
9476,63.0,0.0,40.0,5.0,0.0
9477,59.0,0.0,40.0,6.0,0.0
9478,47.0,0.0,40.0,6.0,0.0
9479,59.0,0.0,40.0,5.0,0.0
9480,47.0,0.0,40.0,8.0,0.0
9481,66.0,0.0,40.0,3.0,0.0
9482,54.0,0.0,40.0,3.0,0.0
9483,51.0,0.0,40.0,13.0,0.0
9484,51.0,0.0,40.0,12.0,0.0
9485,71.0,0.0,40.0,1.0,0.0
9486,75.0,0.0,40.0,1.0,0.0
9487,54.0,0.0,40.0,4.0,0.0
9488,51.0,0.0,40.0,4.0,0.0
9489,49.0,0.0,150.0,11.0,0.0
9490,46.0,0.0,150.0,11.0,0.0
9491,66.0,0.0,15.0,0.0,0.0
9492,70.0,0.0,150.0,1.0,0.0
9493,54.0,6.0,40.0,12.0,0.0
9494,58.0,0.0,40.0,3.0,0.0
9495,78.0,12.0,15.0,0.0,0.0
9496,66.0,0.0,15.0,3.0,0.0
9497,42.0,3.0,20.0,8.0,0.0
9498,54.0,0.0,150.0,11.0,0.0
9499,73.0,0.0,150.0,1.0,0.0
9500,61.0,0.0,150.0,11.0,0.0
9501,78.0,0.0,15.0,11.0,0.0
9502,54.0,24.0,150.0,5.0,0.0
9503,42.0,0.0,150.0,6.0,0.0
9504,54.0,0.0,150.0,6.0,0.0
9505,61.0,0.0,150.0,5.0,0.0
9506,54.0,0.0,40.0,13.0,0.0
9507,54.0,0.0,15.0,4.0,0.0
9508,56.0,0.0,15.0,4.0,0.0
9509,68.0,0.0,15.0,0.0,0.0
9510,80.0,15.0,15.0,0.0,0.0
9511,68.0,0.0,15.0,3.0,0.0
9512,80.0,0.0,15.0,11.0,0.0
9513,78.0,6.0,15.0,11.0,0.0
9514,42.0,3.0,20.0,8.0,0.0
9515,66.0,0.0,15.0,3.0,0.0
9516,78.0,0.0,15.0,0.0,0.0
9517,54.0,0.0,15.0,4.0,0.0
9518,66.0,0.0,15.0,0.0,0.0
9519,68.0,0.0,15.0,0.0,0.0
9520,80.0,15.0,15.0,0.0,0.0
9521,68.0,0.0,15.0,3.0,0.0
9522,80.0,0.0,15.0,11.0,0.0
9523,56.0,0.0,15.0,4.0,0.0
9524,66.0,0.0,15.0,3.0,0.0
9525,66.0,12.0,15.0,0.0,0.0
9526,42.0,3.0,20.0,8.0,0.0
9527,78.0,0.0,15.0,0.0,0.0
9528,61.0,0.0,40.0,3.0,0.0
9529,42.0,0.0,40.0,4.0,0.0
9530,54.0,0.0,15.0,4.0,0.0
9531,42.0,6.0,40.0,13.0,0.0
9532,42.0,0.0,40.0,12.0,0.0
9533,78.0,0.0,15.0,11.0,0.0
9534,80.0,0.0,15.0,11.0,0.0
9535,56.0,15.0,15.0,4.0,0.0
9536,68.0,0.0,15.0,0.0,0.0
9537,80.0,0.0,15.0,0.0,0.0
9538,68.0,0.0,15.0,3.0,0.0
9539,66.0,0.0,15.0,3.0,0.0
9540,78.0,0.0,15.0,0.0,0.0
9541,42.0,3.0,20.0,8.0,0.0
9542,54.0,0.0,15.0,4.0,0.0
9543,66.0,0.0,15.0,0.0,0.0
9544,78.0,6.0,15.0,11.0,0.0
9545,56.0,0.0,15.0,4.0,0.0
9546,68.0,0.0,15.0,0.0,0.0
9547,80.0,27.0,15.0,0.0,0.0
9548,68.0,0.0,15.0,3.0,0.0
9549,80.0,0.0,15.0,11.0,0.0
9550,42.0,0.0,20.0,8.0,0.0
9551,42.0,0.0,40.0,4.0,0.0
9552,54.0,0.0,20.0,4.0,0.0
9553,42.0,0.0,40.0,12.0,0.0
9554,58.0,6.0,40.0,3.0,0.0
9555,78.0,0.0,20.0,0.0,0.0
9556,66.0,0.0,20.0,0.0,0.0
9557,66.0,0.0,20.0,3.0,0.0
9558,78.0,0.0,20.0,11.0,0.0
9559,42.0,0.0,40.0,13.0,0.0
9560,65.0,0.0,20.0,3.0,0.0
9561,65.0,0.0,20.0,0.0,0.0
9562,77.0,0.0,20.0,0.0,0.0
9563,77.0,0.0,20.0,11.0,0.0
9564,42.0,30.0,20.0,8.0,0.0
9565,53.0,0.0,20.0,4.0,0.0
9566,42.0,0.0,40.0,13.0,0.0
9567,66.0,0.0,40.0,3.0,0.0
9568,54.0,0.0,40.0,4.0,0.0
9569,42.0,0.0,40.0,4.0,0.0
9570,54.0,0.0,40.0,3.0,0.0
9571,70.0,0.0,40.0,1.0,0.0
9572,42.0,12.0,90.0,6.0,0.0
9573,61.0,0.0,90.0,5.0,0.0
9574,54.0,0.0,90.0,5.0,0.0
9575,42.0,0.0,40.0,12.0,0.0
9576,46.0,24.0,20.0,11.0,0.0
9577,49.0,0.0,20.0,11.0,0.0
9578,73.0,0.0,40.0,1.0,0.0
9579,54.0,0.0,20.0,11.0,0.0
9580,78.0,0.0,40.0,11.0,0.0
9581,54.0,0.0,90.0,6.0,0.0
9582,66.0,0.0,40.0,0.0,0.0
9583,78.0,6.0,40.0,0.0,0.0
9584,61.0,0.0,20.0,11.0,0.0
9585,42.0,0.0,90.0,8.0,0.0
9586,49.0,0.0,20.0,11.0,0.0
9587,46.0,0.0,20.0,11.0,0.0
9588,61.0,0.0,20.0,11.0,0.0
9589,54.0,30.0,20.0,11.0,0.0
9590,42.0,6.0,40.0,4.0,0.0
9591,58.0,12.0,20.0,11.0,0.0
9592,42.0,0.0,40.0,13.0,0.0
9593,61.0,0.0,20.0,11.0,0.0
9594,42.0,0.0,40.0,12.0,0.0
9595,61.0,0.0,20.0,11.0,0.0
9596,58.0,30.0,20.0,11.0,0.0
9597,66.0,0.0,690.0,1.0,0.0
9598,60.0,0.0,20.0,11.0,0.0
9599,78.0,0.0,20.0,3.0,0.0
9600,78.0,0.0,690.0,1.0,0.0
9601,42.0,0.0,40.0,13.0,0.0
9602,66.0,0.0,20.0,3.0,0.0
9603,78.0,24.0,20.0,11.0,0.0
9604,57.0,0.0,20.0,11.0,0.0
9605,42.0,6.0,40.0,12.0,0.0
9606,42.0,0.0,40.0,4.0,0.0
9607,60.0,0.0,20.0,11.0,0.0
9608,57.0,0.0,20.0,11.0,0.0
9609,65.0,30.0,20.0,3.0,0.0
9610,77.0,0.0,20.0,3.0,0.0
9611,76.0,0.0,20.0,11.0,0.0
9612,54.0,0.0,90.0,6.0,0.0
9613,42.0,0.0,90.0,5.0,0.0
9614,42.0,0.0,90.0,4.0,0.0
9615,56.0,0.0,20.0,11.0,0.0
9616,77.0,0.0,40.0,3.0,0.0
9617,42.0,0.0,90.0,12.0,0.0
9618,42.0,0.0,90.0,6.0,0.0
9619,51.0,0.0,90.0,5.0,0.0
9620,77.0,0.0,40.0,11.0,0.0
9621,59.0,24.0,20.0,11.0,0.0
9622,42.0,18.0,90.0,13.0,0.0
9623,65.0,6.0,40.0,3.0,0.0
9624,42.0,0.0,90.0,8.0,0.0
9625,59.0,0.0,20.0,11.0,0.0
9626,56.0,30.0,20.0,11.0,0.0
9627,59.0,12.0,20.0,11.0,0.0
9628,56.0,0.0,20.0,11.0,0.0
9629,59.0,0.0,20.0,11.0,0.0
9630,56.0,30.0,20.0,11.0,0.0
9631,55.0,30.0,20.0,11.0,0.0
9632,58.0,0.0,20.0,11.0,0.0
9633,76.0,0.0,20.0,11.0,0.0
9634,76.0,0.0,20.0,3.0,0.0
9635,64.0,0.0,20.0,3.0,0.0
9636,55.0,0.0,20.0,11.0,0.0
9637,75.0,0.0,20.0,11.0,0.0
9638,58.0,30.0,20.0,11.0,0.0
9639,63.0,0.0,20.0,3.0,0.0
9640,75.0,0.0,20.0,3.0,0.0
9641,75.0,0.0,40.0,11.0,0.0
9642,42.0,18.0,90.0,5.0,0.0
9643,42.0,0.0,90.0,8.0,0.0
9644,57.0,0.0,20.0,11.0,0.0
9645,42.0,0.0,90.0,12.0,0.0
9646,63.0,6.0,40.0,3.0,0.0
9647,51.0,0.0,90.0,5.0,0.0
9648,42.0,0.0,90.0,13.0,0.0
9649,42.0,0.0,90.0,6.0,0.0
9650,54.0,0.0,90.0,6.0,0.0
9651,54.0,24.0,20.0,11.0,0.0
9652,75.0,0.0,40.0,3.0,0.0
9653,42.0,0.0,90.0,4.0,0.0
9654,54.0,30.0,20.0,11.0,0.0
9655,57.0,0.0,20.0,11.0,0.0
9656,57.0,0.0,20.0,11.0,0.0
9657,54.0,12.0,20.0,11.0,0.0
9658,54.0,0.0,20.0,11.0,0.0
9659,57.0,30.0,20.0,11.0,0.0
9660,62.0,0.0,20.0,3.0,0.0
9661,62.0,0.0,20.0,4.0,0.0
9662,74.0,0.0,20.0,3.0,0.0
9663,74.0,0.0,20.0,0.0,0.0
9664,86.0,30.0,20.0,0.0,0.0
9665,74.0,0.0,20.0,11.0,0.0
9666,53.0,0.0,20.0,11.0,0.0
9667,56.0,0.0,20.0,11.0,0.0
9668,53.0,30.0,20.0,11.0,0.0
9669,85.0,0.0,20.0,0.0,0.0
9670,73.0,0.0,20.0,3.0,0.0
9671,56.0,0.0,20.0,11.0,0.0
9672,61.0,0.0,20.0,4.0,0.0
9673,73.0,0.0,20.0,0.0,0.0
9674,73.0,0.0,20.0,11.0,0.0
9675,61.0,0.0,20.0,3.0,0.0
9676,73.0,0.0,40.0,11.0,0.0
9677,61.0,0.0,40.0,4.0,0.0
9678,52.0,0.0,20.0,11.0,0.0
9679,42.0,0.0,90.0,4.0,0.0
9680,42.0,0.0,90.0,6.0,0.0
9681,54.0,0.0,90.0,6.0,0.0
9682,51.0,0.0,90.0,5.0,0.0
9683,42.0,0.0,90.0,13.0,0.0
9684,55.0,24.0,20.0,11.0,0.0
9685,73.0,0.0,40.0,0.0,0.0
9686,42.0,0.0,90.0,12.0,0.0
9687,61.0,0.0,40.0,3.0,0.0
9688,42.0,18.0,90.0,8.0,0.0
9689,85.0,6.0,40.0,0.0,0.0
9690,42.0,0.0,90.0,5.0,0.0
9691,73.0,0.0,40.0,3.0,0.0
9692,52.0,30.0,20.0,11.0,0.0
9693,55.0,0.0,20.0,11.0,0.0
9694,52.0,12.0,20.0,11.0,0.0
9695,55.0,0.0,20.0,11.0,0.0
9696,55.0,30.0,20.0,11.0,0.0
9697,52.0,0.0,20.0,11.0,0.0
9698,72.0,0.0,20.0,0.0,0.0
9699,60.0,0.0,20.0,4.0,0.0
9700,84.0,0.0,20.0,0.0,0.0
9701,72.0,0.0,20.0,11.0,0.0
9702,60.0,0.0,20.0,3.0,0.0
9703,54.0,30.0,20.0,11.0,0.0
9704,51.0,0.0,20.0,11.0,0.0
9705,72.0,0.0,20.0,3.0,0.0
9706,71.0,0.0,20.0,11.0,0.0
9707,71.0,0.0,20.0,0.0,0.0
9708,83.0,0.0,20.0,0.0,0.0
9709,59.0,0.0,20.0,4.0,0.0
9710,59.0,0.0,20.0,3.0,0.0
9711,71.0,0.0,20.0,3.0,0.0
9712,51.0,0.0,20.0,11.0,0.0
9713,54.0,30.0,20.0,11.0,0.0
9714,53.0,24.0,20.0,11.0,0.0
9715,71.0,0.0,40.0,3.0,0.0
9716,59.0,0.0,40.0,3.0,0.0
9717,50.0,0.0,20.0,11.0,0.0
9718,71.0,0.0,40.0,0.0,0.0
9719,83.0,0.0,40.0,0.0,0.0
9720,59.0,6.0,40.0,4.0,0.0
9721,42.0,0.0,90.0,4.0,0.0
9722,54.0,0.0,90.0,6.0,0.0
9723,42.0,0.0,90.0,6.0,0.0
9724,51.0,0.0,90.0,5.0,0.0
9725,42.0,0.0,90.0,8.0,0.0
9726,42.0,18.0,90.0,12.0,0.0
9727,42.0,0.0,90.0,13.0,0.0
9728,71.0,0.0,40.0,11.0,0.0
9729,42.0,0.0,90.0,5.0,0.0
9730,53.0,30.0,20.0,11.0,0.0
9731,50.0,0.0,20.0,11.0,0.0
9732,50.0,0.0,20.0,11.0,0.0
9733,53.0,12.0,20.0,11.0,0.0
9734,50.0,0.0,20.0,11.0,0.0
9735,53.0,30.0,20.0,11.0,0.0
9736,59.0,0.0,20.0,4.0,0.0
9737,49.0,24.0,20.0,11.0,0.0
9738,78.0,0.0,60.0,0.0,0.0
9739,52.0,0.0,20.0,11.0,0.0
9740,71.0,0.0,20.0,3.0,0.0
9741,76.0,0.0,40.0,1.0,0.0
9742,71.0,0.0,20.0,11.0,0.0
9743,73.0,6.0,40.0,1.0,0.0
9744,83.0,0.0,20.0,0.0,0.0
9745,59.0,0.0,20.0,3.0,0.0
9746,70.0,30.0,20.0,3.0,0.0
9747,58.0,0.0,20.0,3.0,0.0
9748,58.0,0.0,20.0,4.0,0.0
9749,52.0,0.0,20.0,11.0,0.0
9750,49.0,0.0,20.0,11.0,0.0
9751,70.0,0.0,20.0,11.0,0.0
9752,82.0,0.0,20.0,0.0,0.0
9753,52.0,30.0,20.0,11.0,0.0
9754,76.0,0.0,90.0,1.0,0.0
9755,54.0,0.0,90.0,6.0,0.0
9756,49.0,0.0,20.0,11.0,0.0
9757,42.0,0.0,90.0,6.0,0.0
9758,73.0,0.0,90.0,1.0,0.0
9759,42.0,0.0,90.0,4.0,0.0
9760,61.0,18.0,90.0,5.0,0.0
9761,64.0,0.0,90.0,5.0,0.0
9762,42.0,0.0,90.0,8.0,0.0
9763,82.0,0.0,90.0,0.0,0.0
9764,42.0,0.0,90.0,12.0,0.0
9765,58.0,0.0,90.0,4.0,0.0
9766,78.0,0.0,90.0,0.0,0.0
9767,70.0,0.0,90.0,11.0,0.0
9768,42.0,0.0,90.0,13.0,0.0
9769,58.0,0.0,90.0,3.0,0.0
9770,70.0,0.0,90.0,3.0,0.0
9771,54.0,30.0,20.0,11.0,0.0
9772,52.0,0.0,20.0,11.0,0.0
9773,49.0,12.0,20.0,11.0,0.0
9774,52.0,0.0,20.0,11.0,0.0
9775,52.0,30.0,20.0,11.0,0.0
9776,54.0,0.0,20.0,11.0,0.0
9777,58.0,0.0,40.0,3.0,0.0
9778,70.0,0.0,40.0,3.0,0.0
9779,52.0,0.0,20.0,11.0,0.0
9780,76.0,0.0,40.0,1.0,0.0
9781,42.0,0.0,40.0,4.0,0.0
9782,58.0,6.0,40.0,4.0,0.0
9783,73.0,0.0,40.0,1.0,0.0
9784,49.0,24.0,20.0,11.0,0.0
9785,42.0,0.0,40.0,12.0,0.0
9786,64.0,0.0,40.0,5.0,0.0
9787,61.0,0.0,40.0,5.0,0.0
9788,54.0,0.0,40.0,6.0,0.0
9789,42.0,0.0,40.0,6.0,0.0
9790,78.0,0.0,40.0,0.0,0.0
9791,42.0,0.0,40.0,13.0,0.0
9792,70.0,0.0,40.0,11.0,0.0
9793,42.0,0.0,40.0,8.0,0.0
9794,82.0,0.0,40.0,0.0,0.0
9795,54.0,0.0,20.0,11.0,0.0
9796,52.0,30.0,20.0,11.0,0.0
9797,58.0,0.0,60.0,4.0,0.0
9798,42.0,0.0,60.0,4.0,0.0
9799,64.0,0.0,60.0,5.0,0.0
9800,52.0,0.0,20.0,11.0,0.0
9801,42.0,0.0,60.0,8.0,0.0
9802,61.0,0.0,60.0,5.0,0.0
9803,42.0,0.0,60.0,13.0,0.0
9804,73.0,12.0,60.0,1.0,0.0
9805,70.0,0.0,60.0,11.0,0.0
9806,82.0,0.0,60.0,0.0,0.0
9807,78.0,0.0,60.0,0.0,0.0
9808,76.0,0.0,60.0,1.0,0.0
9809,58.0,0.0,60.0,3.0,0.0
9810,70.0,0.0,60.0,3.0,0.0
9811,42.0,0.0,60.0,12.0,0.0
9812,54.0,0.0,60.0,6.0,0.0
9813,42.0,0.0,60.0,6.0,0.0
9814,49.0,30.0,20.0,11.0,0.0
9815,52.0,0.0,20.0,11.0,0.0
9816,54.0,18.0,20.0,11.0,0.0
9817,49.0,30.0,20.0,11.0,0.0
9818,52.0,0.0,20.0,11.0,0.0
9819,59.0,0.0,20.0,5.0,0.0
9820,71.0,0.0,20.0,11.0,0.0
9821,63.0,0.0,20.0,5.0,0.0
9822,51.0,0.0,20.0,11.0,0.0
9823,78.0,0.0,20.0,0.0,0.0
9824,83.0,0.0,20.0,0.0,0.0
9825,71.0,0.0,20.0,1.0,0.0
9826,71.0,0.0,20.0,3.0,0.0
9827,59.0,0.0,20.0,3.0,0.0
9828,42.0,0.0,20.0,12.0,0.0
9829,47.0,0.0,20.0,11.0,0.0
9830,75.0,0.0,20.0,1.0,0.0
9831,59.0,0.0,20.0,4.0,0.0
9832,42.0,30.0,20.0,4.0,0.0
9833,42.0,0.0,20.0,13.0,0.0
9834,42.0,0.0,20.0,8.0,0.0
9835,54.0,0.0,20.0,6.0,0.0
9836,42.0,0.0,20.0,6.0,0.0
9837,61.0,0.0,40.0,4.0,0.0
9838,42.0,0.0,40.0,13.0,0.0
9839,73.0,0.0,40.0,1.0,0.0
9840,61.0,0.0,40.0,3.0,0.0
9841,73.0,0.0,40.0,3.0,0.0
9842,76.0,0.0,40.0,1.0,0.0
9843,42.0,0.0,40.0,12.0,0.0
9844,42.0,0.0,40.0,8.0,0.0
9845,46.0,0.0,20.0,11.0,0.0
9846,42.0,0.0,40.0,6.0,0.0
9847,61.0,0.0,40.0,5.0,0.0
9848,54.0,0.0,40.0,5.0,0.0
9849,54.0,0.0,40.0,6.0,0.0
9850,73.0,0.0,40.0,11.0,0.0
9851,52.0,24.0,20.0,11.0,0.0
9852,78.0,6.0,40.0,0.0,0.0
9853,85.0,0.0,40.0,0.0,0.0
9854,42.0,0.0,40.0,4.0,0.0
9855,54.0,30.0,20.0,11.0,0.0
9856,58.0,0.0,20.0,11.0,0.0
9857,85.0,0.0,40.0,0.0,0.0
9858,47.0,0.0,90.0,4.0,0.0
9859,47.0,0.0,90.0,8.0,0.0
9860,61.0,6.0,40.0,4.0,0.0
9861,73.0,0.0,40.0,3.0,0.0
9862,47.0,0.0,90.0,6.0,0.0
9863,47.0,0.0,90.0,12.0,0.0
9864,76.0,0.0,40.0,1.0,0.0
9865,73.0,0.0,40.0,1.0,0.0
9866,47.0,24.0,20.0,11.0,0.0
9867,51.0,0.0,20.0,11.0,0.0
9868,47.0,12.0,90.0,13.0,0.0
9869,51.0,0.0,90.0,6.0,0.0
9870,51.0,0.0,90.0,5.0,0.0
9871,59.0,0.0,90.0,5.0,0.0
9872,73.0,0.0,40.0,11.0,0.0
9873,61.0,0.0,40.0,3.0,0.0
9874,54.0,0.0,20.0,11.0,0.0
9875,51.0,30.0,20.0,11.0,0.0
9876,75.0,0.0,40.0,11.0,0.0
9877,47.0,0.0,20.0,11.0,0.0
9878,71.0,0.0,40.0,1.0,0.0
9879,63.0,6.0,40.0,3.0,0.0
9880,75.0,0.0,40.0,1.0,0.0
9881,87.0,0.0,40.0,0.0,0.0
9882,75.0,0.0,40.0,3.0,0.0
9883,51.0,12.0,20.0,11.0,0.0
9884,63.0,0.0,40.0,4.0,0.0
9885,51.0,0.0,20.0,11.0,0.0
9886,54.0,30.0,20.0,11.0,0.0
9887,51.0,0.0,40.0,5.0,0.0
9888,51.0,24.0,20.0,11.0,0.0
9889,71.0,0.0,40.0,11.0,0.0
9890,71.0,0.0,40.0,3.0,0.0
9891,47.0,0.0,40.0,13.0,0.0
9892,47.0,0.0,40.0,8.0,0.0
9893,59.0,0.0,40.0,4.0,0.0
9894,47.0,0.0,40.0,4.0,0.0
9895,83.0,0.0,40.0,0.0,0.0
9896,59.0,6.0,40.0,5.0,0.0
9897,59.0,0.0,40.0,3.0,0.0
9898,71.0,0.0,40.0,1.0,0.0
9899,47.0,0.0,20.0,11.0,0.0
9900,47.0,0.0,40.0,6.0,0.0
9901,51.0,0.0,40.0,6.0,0.0
9902,47.0,0.0,40.0,12.0,0.0
9903,75.0,0.0,40.0,1.0,0.0
9904,51.0,0.0,20.0,11.0,0.0
9905,54.0,30.0,20.0,11.0,0.0
9906,75.0,18.0,90.0,1.0,0.0
9907,51.0,0.0,90.0,6.0,0.0
9908,47.0,0.0,90.0,6.0,0.0
9909,51.0,0.0,90.0,5.0,0.0
9910,71.0,0.0,90.0,1.0,0.0
9911,47.0,24.0,20.0,11.0,0.0
9912,47.0,0.0,90.0,12.0,0.0
9913,83.0,0.0,90.0,0.0,0.0
9914,47.0,0.0,90.0,8.0,0.0
9915,59.0,0.0,90.0,5.0,0.0
9916,51.0,0.0,20.0,11.0,0.0
9917,59.0,0.0,90.0,4.0,0.0
9918,47.0,0.0,90.0,13.0,0.0
9919,71.0,0.0,90.0,3.0,0.0
9920,71.0,0.0,90.0,11.0,0.0
9921,59.0,6.0,40.0,3.0,0.0
9922,47.0,0.0,90.0,4.0,0.0
9923,51.0,30.0,20.0,11.0,0.0
9924,54.0,0.0,20.0,11.0,0.0
9925,51.0,12.0,20.0,11.0,0.0
9926,47.0,0.0,20.0,11.0,0.0
9927,51.0,30.0,20.0,11.0,0.0
9928,54.0,0.0,20.0,11.0,0.0
9929,54.0,0.0,40.0,6.0,0.0
9930,71.0,0.0,20.0,11.0,0.0
9931,42.0,6.0,40.0,6.0,0.0
9932,42.0,0.0,40.0,13.0,0.0
9933,61.0,0.0,40.0,5.0,0.0
9934,54.0,0.0,40.0,5.0,0.0
9935,83.0,24.0,20.0,0.0,0.0
9936,49.0,0.0,20.0,11.0,0.0
9937,59.0,0.0,20.0,3.0,0.0
9938,71.0,0.0,20.0,3.0,0.0
9939,42.0,0.0,40.0,12.0,0.0
9940,42.0,0.0,40.0,8.0,0.0
9941,52.0,0.0,20.0,11.0,0.0
9942,73.0,0.0,40.0,1.0,0.0
9943,42.0,0.0,40.0,4.0,0.0
9944,59.0,0.0,20.0,4.0,0.0
9945,76.0,0.0,40.0,1.0,0.0
9946,52.0,0.0,20.0,11.0,0.0
9947,82.0,0.0,20.0,0.0,0.0
9948,70.0,0.0,20.0,11.0,0.0
9949,54.0,0.0,20.0,11.0,0.0
9950,58.0,0.0,20.0,3.0,0.0
9951,58.0,30.0,20.0,4.0,0.0
9952,70.0,0.0,20.0,3.0,0.0
9953,70.0,0.0,90.0,11.0,0.0
9954,64.0,0.0,90.0,5.0,0.0
9955,52.0,30.0,20.0,11.0,0.0
9956,61.0,0.0,90.0,5.0,0.0
9957,58.0,0.0,90.0,4.0,0.0
9958,82.0,18.0,90.0,0.0,0.0
9959,58.0,0.0,90.0,3.0,0.0
9960,76.0,0.0,90.0,1.0,0.0
9961,49.0,0.0,20.0,11.0,0.0
9962,42.0,0.0,90.0,4.0,0.0
9963,42.0,0.0,90.0,13.0,0.0
9964,42.0,0.0,90.0,6.0,0.0
9965,54.0,0.0,90.0,6.0,0.0
9966,78.0,0.0,90.0,0.0,0.0
9967,42.0,0.0,90.0,8.0,0.0
9968,42.0,0.0,90.0,12.0,0.0
9969,73.0,0.0,90.0,1.0,0.0
9970,70.0,0.0,90.0,3.0,0.0
9971,52.0,0.0,20.0,11.0,0.0
9972,54.0,30.0,20.0,11.0,0.0
9973,52.0,0.0,20.0,11.0,0.0
9974,49.0,12.0,20.0,11.0,0.0
9975,54.0,30.0,20.0,11.0,0.0
9976,52.0,0.0,20.0,11.0,0.0
9977,42.0,0.0,40.0,8.0,0.0
9978,64.0,0.0,40.0,5.0,0.0
9979,61.0,0.0,40.0,5.0,0.0
9980,52.0,24.0,20.0,11.0,0.0
9981,42.0,0.0,40.0,13.0,0.0
9982,58.0,0.0,40.0,4.0,0.0
9983,70.0,6.0,40.0,3.0,0.0
9984,58.0,0.0,40.0,3.0,0.0
9985,42.0,0.0,40.0,4.0,0.0
9986,82.0,0.0,40.0,0.0,0.0
9987,70.0,0.0,40.0,11.0,0.0
9988,78.0,0.0,40.0,0.0,0.0
9989,73.0,0.0,40.0,1.0,0.0
9990,42.0,0.0,40.0,12.0,0.0
9991,76.0,0.0,40.0,1.0,0.0
9992,42.0,0.0,40.0,6.0,0.0
9993,54.0,0.0,40.0,6.0,0.0
9994,49.0,0.0,20.0,11.0,0.0
9995,54.0,0.0,20.0,11.0,0.0
9996,52.0,30.0,20.0,11.0,0.0
9997,78.0,0.0,60.0,0.0,0.0
9998,70.0,0.0,60.0,3.0,0.0
9999,58.0,0.0,60.0,3.0,0.0
10000,73.0,0.0,60.0,1.0,0.0
10001,61.0,0.0,60.0,5.0,0.0
10002,42.0,0.0,60.0,4.0,0.0
10003,58.0,0.0,60.0,4.0,0.0
10004,76.0,0.0,60.0,1.0,0.0
10005,82.0,12.0,60.0,0.0,0.0
10006,42.0,0.0,60.0,8.0,0.0
10007,64.0,0.0,60.0,5.0,0.0
10008,42.0,0.0,60.0,12.0,0.0
10009,70.0,0.0,60.0,11.0,0.0
10010,49.0,0.0,20.0,11.0,0.0
10011,42.0,0.0,60.0,13.0,0.0
10012,52.0,30.0,20.0,11.0,0.0
10013,54.0,0.0,60.0,6.0,0.0
10014,42.0,0.0,60.0,6.0,0.0
10015,52.0,18.0,20.0,11.0,0.0
10016,54.0,0.0,20.0,11.0,0.0
10017,49.0,0.0,20.0,11.0,0.0
10018,52.0,30.0,20.0,11.0,0.0
10019,59.0,0.0,20.0,3.0,0.0
10020,51.0,0.0,20.0,11.0,0.0
10021,71.0,0.0,20.0,11.0,0.0
10022,42.0,0.0,20.0,6.0,0.0
10023,54.0,0.0,20.0,6.0,0.0
10024,42.0,0.0,20.0,8.0,0.0
10025,42.0,0.0,20.0,4.0,0.0
10026,59.0,0.0,20.0,4.0,0.0
10027,47.0,30.0,20.0,11.0,0.0
10028,75.0,0.0,20.0,1.0,0.0
10029,71.0,0.0,20.0,3.0,0.0
10030,71.0,0.0,20.0,1.0,0.0
10031,78.0,0.0,20.0,0.0,0.0
10032,83.0,0.0,20.0,0.0,0.0
10033,42.0,0.0,20.0,12.0,0.0
10034,59.0,0.0,20.0,5.0,0.0
10035,63.0,0.0,20.0,5.0,0.0
10036,42.0,0.0,20.0,13.0,0.0
10037,73.0,0.0,40.0,11.0,0.0
10038,42.0,0.0,40.0,13.0,0.0
10039,42.0,0.0,40.0,8.0,0.0
10040,42.0,0.0,40.0,12.0,0.0
10041,42.0,0.0,40.0,6.0,0.0
10042,85.0,0.0,40.0,0.0,0.0
10043,54.0,0.0,40.0,6.0,0.0
10044,52.0,0.0,20.0,11.0,0.0
10045,42.0,0.0,40.0,4.0,0.0
10046,78.0,0.0,40.0,0.0,0.0
10047,61.0,0.0,40.0,4.0,0.0
10048,61.0,0.0,40.0,5.0,0.0
10049,73.0,0.0,40.0,3.0,0.0
10050,54.0,0.0,40.0,5.0,0.0
10051,46.0,24.0,20.0,11.0,0.0
10052,61.0,0.0,40.0,3.0,0.0
10053,73.0,6.0,40.0,1.0,0.0
10054,76.0,0.0,40.0,1.0,0.0
10055,58.0,0.0,20.0,11.0,0.0
10056,54.0,30.0,20.0,11.0,0.0
10057,75.0,0.0,90.0,1.0,0.0
10058,73.0,0.0,20.0,11.0,0.0
10059,71.0,0.0,90.0,1.0,0.0
10060,47.0,0.0,90.0,6.0,0.0
10061,85.0,0.0,20.0,0.0,0.0
10062,59.0,18.0,90.0,6.0,0.0
10063,51.0,0.0,90.0,5.0,0.0
10064,47.0,0.0,20.0,11.0,0.0
10065,47.0,18.0,270.0,12.0,0.0
10066,61.0,30.0,20.0,3.0,0.0
10067,73.0,0.0,20.0,3.0,0.0
10068,47.0,0.0,90.0,8.0,0.0
10069,59.0,0.0,90.0,5.0,0.0
10070,47.0,0.0,270.0,13.0,0.0
10071,61.0,0.0,20.0,4.0,0.0
10072,51.0,0.0,20.0,11.0,0.0
10073,54.0,30.0,20.0,11.0,0.0
10074,51.0,0.0,20.0,11.0,0.0
10075,63.0,0.0,20.0,3.0,0.0
10076,75.0,0.0,20.0,3.0,0.0
10077,63.0,0.0,20.0,4.0,0.0
10078,87.0,0.0,20.0,0.0,0.0
10079,75.0,0.0,20.0,11.0,0.0
10080,51.0,0.0,20.0,11.0,0.0
10081,47.0,12.0,20.0,11.0,0.0
10082,54.0,0.0,20.0,11.0,0.0
10083,51.0,30.0,20.0,11.0,0.0
10084,51.0,0.0,20.0,11.0,0.0
10085,59.0,6.0,40.0,1.0,0.0
10086,71.0,0.0,40.0,1.0,0.0
10087,59.0,0.0,40.0,3.0,0.0
10088,71.0,0.0,40.0,11.0,0.0
10089,71.0,0.0,40.0,3.0,0.0
10090,71.0,0.0,40.0,0.0,0.0
10091,83.0,0.0,40.0,0.0,0.0
10092,47.0,0.0,40.0,4.0,0.0
10093,47.0,24.0,20.0,11.0,0.0
10094,54.0,0.0,20.0,11.0,0.0
10095,51.0,30.0,20.0,11.0,0.0
10096,59.0,12.0,60.0,1.0,0.0
10097,71.0,0.0,60.0,1.0,0.0
10098,71.0,0.0,60.0,0.0,0.0
10099,51.0,30.0,20.0,11.0,0.0
10100,83.0,0.0,60.0,0.0,0.0
10101,71.0,0.0,60.0,11.0,0.0
10102,47.0,0.0,20.0,11.0,0.0
10103,71.0,0.0,60.0,3.0,0.0
10104,59.0,0.0,60.0,3.0,0.0
10105,47.0,0.0,60.0,4.0,0.0
10106,54.0,0.0,20.0,11.0,0.0
10107,51.0,18.0,20.0,11.0,0.0
10108,59.0,0.0,20.0,11.0,0.0
10109,54.0,12.0,20.0,11.0,0.0
10110,61.0,0.0,20.0,3.0,0.0
10111,49.0,0.0,20.0,4.0,0.0
10112,73.0,0.0,20.0,3.0,0.0
10113,54.0,0.0,20.0,11.0,0.0
10114,73.0,0.0,20.0,0.0,0.0
10115,85.0,0.0,20.0,0.0,0.0
10116,73.0,0.0,20.0,1.0,0.0
10117,61.0,30.0,20.0,1.0,0.0
10118,73.0,0.0,20.0,11.0,0.0
10119,51.0,0.0,20.0,11.0,0.0
10120,75.0,0.0,40.0,1.0,0.0
10121,63.0,0.0,40.0,3.0,0.0
10122,75.0,0.0,40.0,3.0,0.0
10123,63.0,0.0,40.0,1.0,0.0
10124,75.0,6.0,40.0,11.0,0.0
10125,35.0,0.0,40.0,12.0,0.0
10126,51.0,0.0,40.0,4.0,0.0
10127,35.0,0.0,40.0,4.0,0.0
10128,87.0,0.0,40.0,0.0,0.0
10129,75.0,0.0,40.0,0.0,0.0
10130,47.0,24.0,20.0,11.0,0.0
10131,51.0,0.0,20.0,11.0,0.0
10132,35.0,0.0,40.0,13.0,0.0
10133,51.0,0.0,20.0,11.0,0.0
10134,54.0,30.0,20.0,11.0,0.0
10135,42.0,0.0,90.0,8.0,0.0
10136,75.0,0.0,20.0,3.0,0.0
10137,51.0,0.0,20.0,4.0,0.0
10138,75.0,0.0,20.0,1.0,0.0
10139,49.0,0.0,20.0,11.0,0.0
10140,63.0,0.0,20.0,1.0,0.0
10141,87.0,0.0,20.0,0.0,0.0
10142,49.0,0.0,270.0,13.0,0.0
10143,75.0,0.0,20.0,0.0,0.0
10144,61.0,0.0,90.0,5.0,0.0
10145,42.0,0.0,90.0,6.0,0.0
10146,63.0,0.0,20.0,3.0,0.0
10147,49.0,0.0,270.0,12.0,0.0
10148,52.0,0.0,20.0,11.0,0.0
10149,54.0,18.0,90.0,6.0,0.0
10150,75.0,30.0,20.0,11.0,0.0
10151,64.0,0.0,20.0,3.0,0.0
10152,76.0,0.0,20.0,3.0,0.0
10153,54.0,0.0,20.0,11.0,0.0
10154,76.0,0.0,20.0,0.0,0.0
10155,76.0,0.0,20.0,11.0,0.0
10156,76.0,0.0,20.0,1.0,0.0
10157,64.0,0.0,20.0,1.0,0.0
10158,52.0,0.0,20.0,4.0,0.0
10159,52.0,30.0,20.0,11.0,0.0
10160,88.0,0.0,20.0,0.0,0.0
10161,52.0,12.0,20.0,11.0,0.0
10162,49.0,0.0,20.0,11.0,0.0
10163,52.0,0.0,20.0,11.0,0.0
10164,54.0,30.0,20.0,11.0,0.0
10165,49.0,0.0,40.0,4.0,0.0
10166,52.0,24.0,20.0,11.0,0.0
10167,73.0,0.0,40.0,0.0,0.0
10168,73.0,0.0,40.0,1.0,0.0
10169,73.0,0.0,40.0,3.0,0.0
10170,61.0,6.0,40.0,3.0,0.0
10171,73.0,0.0,40.0,11.0,0.0
10172,85.0,0.0,40.0,0.0,0.0
10173,61.0,0.0,40.0,1.0,0.0
10174,49.0,0.0,20.0,11.0,0.0
10175,54.0,30.0,20.0,11.0,0.0
10176,52.0,0.0,20.0,11.0,0.0
10177,49.0,30.0,20.0,11.0,0.0
10178,85.0,0.0,60.0,0.0,0.0
10179,52.0,0.0,20.0,11.0,0.0
10180,73.0,0.0,60.0,0.0,0.0
10181,73.0,0.0,60.0,11.0,0.0
10182,73.0,12.0,60.0,1.0,0.0
10183,61.0,0.0,60.0,1.0,0.0
10184,73.0,0.0,60.0,3.0,0.0
10185,61.0,0.0,60.0,3.0,0.0
10186,49.0,0.0,60.0,4.0,0.0
10187,54.0,0.0,20.0,11.0,0.0
10188,52.0,18.0,20.0,11.0,0.0
10189,58.0,0.0,20.0,11.0,0.0
10190,54.0,12.0,20.0,11.0,0.0
10191,75.0,0.0,20.0,11.0,0.0
10192,54.0,0.0,20.0,11.0,0.0
10193,52.0,0.0,20.0,11.0,0.0
10194,63.0,0.0,20.0,3.0,0.0
10195,75.0,0.0,20.0,0.0,0.0
10196,63.0,0.0,20.0,1.0,0.0
10197,75.0,0.0,20.0,1.0,0.0
10198,51.0,0.0,20.0,4.0,0.0
10199,87.0,30.0,20.0,0.0,0.0
10200,75.0,0.0,20.0,3.0,0.0
10201,64.0,0.0,40.0,1.0,0.0
10202,76.0,0.0,40.0,1.0,0.0
10203,49.0,0.0,20.0,11.0,0.0
10204,37.0,0.0,40.0,4.0,0.0
10205,64.0,0.0,40.0,3.0,0.0
10206,76.0,0.0,40.0,11.0,0.0
10207,52.0,24.0,20.0,11.0,0.0
10208,37.0,0.0,40.0,12.0,0.0
10209,52.0,0.0,40.0,4.0,0.0
10210,37.0,0.0,40.0,13.0,0.0
10211,76.0,0.0,40.0,0.0,0.0
10212,88.0,6.0,40.0,0.0,0.0
10213,76.0,0.0,40.0,3.0,0.0
10214,52.0,0.0,20.0,11.0,0.0
10215,54.0,30.0,20.0,11.0,0.0
10216,76.0,0.0,20.0,11.0,0.0
10217,64.0,0.0,20.0,3.0,0.0
10218,76.0,0.0,20.0,3.0,0.0
10219,51.0,0.0,270.0,13.0,0.0
10220,64.0,24.0,20.0,1.0,0.0
10221,78.0,6.0,40.0,0.0,0.0
10222,52.0,0.0,20.0,4.0,0.0
10223,54.0,0.0,20.0,11.0,0.0
10224,47.0,0.0,90.0,8.0,0.0
10225,59.0,0.0,90.0,6.0,0.0
10226,47.0,18.0,90.0,6.0,0.0
10227,66.0,0.0,40.0,0.0,0.0
10228,47.0,0.0,20.0,11.0,0.0
10229,76.0,0.0,20.0,1.0,0.0
10230,63.0,0.0,90.0,5.0,0.0
10231,51.0,18.0,270.0,12.0,0.0
10232,78.0,0.0,20.0,11.0,0.0
10233,54.0,0.0,20.0,4.0,0.0
10234,78.0,0.0,20.0,1.0,0.0
10235,66.0,30.0,20.0,1.0,0.0
10236,54.0,0.0,20.0,11.0,0.0
10237,59.0,0.0,20.0,11.0,0.0
10238,78.0,0.0,20.0,3.0,0.0
10239,66.0,0.0,20.0,3.0,0.0
10240,54.0,0.0,20.0,11.0,0.0
10241,47.0,12.0,20.0,11.0,0.0
10242,54.0,0.0,20.0,11.0,0.0
10243,59.0,30.0,20.0,11.0,0.0
10244,51.0,0.0,40.0,4.0,0.0
10245,54.0,24.0,20.0,11.0,0.0
10246,75.0,0.0,40.0,1.0,0.0
10247,75.0,6.0,40.0,3.0,0.0
10248,63.0,0.0,40.0,3.0,0.0
10249,63.0,0.0,40.0,1.0,0.0
10250,75.0,0.0,40.0,11.0,0.0
10251,47.0,0.0,20.0,11.0,0.0
10252,54.0,0.0,20.0,11.0,0.0
10253,59.0,30.0,20.0,11.0,0.0
10254,75.0,0.0,60.0,1.0,0.0
10255,63.0,0.0,60.0,3.0,0.0
10256,63.0,12.0,60.0,1.0,0.0
10257,47.0,0.0,20.0,11.0,0.0
10258,75.0,0.0,60.0,3.0,0.0
10259,51.0,0.0,60.0,4.0,0.0
10260,75.0,0.0,60.0,11.0,0.0
10261,54.0,30.0,20.0,11.0,0.0
10262,59.0,18.0,20.0,11.0,0.0
10263,54.0,0.0,20.0,11.0,0.0
10264,59.0,12.0,20.0,11.0,0.0
10265,63.0,0.0,20.0,11.0,0.0
10266,59.0,0.0,20.0,11.0,0.0
10267,76.0,0.0,20.0,1.0,0.0
10268,54.0,0.0,20.0,11.0,0.0
10269,64.0,0.0,20.0,3.0,0.0
10270,76.0,0.0,20.0,3.0,0.0
10271,76.0,0.0,20.0,11.0,0.0
10272,64.0,30.0,20.0,1.0,0.0
10273,52.0,0.0,20.0,4.0,0.0
10274,78.0,0.0,40.0,11.0,0.0
10275,66.0,0.0,40.0,3.0,0.0
10276,78.0,0.0,40.0,3.0,0.0
10277,39.0,0.0,40.0,13.0,0.0
10278,47.0,0.0,20.0,11.0,0.0
10279,39.0,0.0,40.0,12.0,0.0
10280,78.0,0.0,40.0,1.0,0.0
10281,66.0,6.0,40.0,1.0,0.0
10282,54.0,0.0,40.0,4.0,0.0
10283,39.0,0.0,40.0,4.0,0.0
10284,54.0,24.0,20.0,11.0,0.0
10285,59.0,0.0,20.0,11.0,0.0
10286,54.0,30.0,20.0,11.0,0.0
10287,61.0,18.0,90.0,5.0,0.0
10288,80.0,0.0,60.0,3.0,0.0
10289,68.0,0.0,60.0,3.0,0.0
10290,56.0,0.0,20.0,11.0,0.0
10291,56.0,0.0,60.0,4.0,0.0
10292,47.0,0.0,90.0,6.0,0.0
10293,59.0,0.0,90.0,6.0,0.0
10294,59.0,0.0,90.0,5.0,0.0
10295,47.0,30.0,20.0,11.0,0.0
10296,40.0,0.0,60.0,13.0,0.0
10297,47.0,0.0,90.0,8.0,0.0
10298,80.0,0.0,60.0,11.0,0.0
10299,40.0,0.0,60.0,4.0,0.0
10300,80.0,12.0,60.0,1.0,0.0
10301,68.0,0.0,60.0,1.0,0.0
10302,40.0,0.0,60.0,12.0,0.0
10303,59.0,0.0,20.0,11.0,0.0
10304,56.0,18.0,20.0,11.0,0.0
10305,47.0,0.0,20.0,11.0,0.0
10306,56.0,12.0,20.0,11.0,0.0
10307,56.0,0.0,20.0,11.0,0.0
10308,78.0,0.0,20.0,11.0,0.0
10309,52.0,0.0,20.0,4.0,0.0
10310,78.0,0.0,20.0,1.0,0.0
10311,59.0,30.0,20.0,11.0,0.0
10312,78.0,0.0,20.0,3.0,0.0
10313,66.0,0.0,20.0,3.0,0.0
10314,52.0,0.0,20.0,13.0,0.0
10315,68.0,0.0,20.0,1.0,0.0
10316,52.0,0.0,20.0,12.0,0.0
10317,54.0,0.0,20.0,4.0,0.0
10318,76.0,0.0,40.0,11.0,0.0
10319,76.0,0.0,40.0,1.0,0.0
10320,47.0,24.0,20.0,11.0,0.0
10321,52.0,0.0,40.0,12.0,0.0
10322,52.0,0.0,40.0,13.0,0.0
10323,76.0,0.0,40.0,3.0,0.0
10324,64.0,0.0,40.0,3.0,0.0
10325,68.0,0.0,40.0,1.0,0.0
10326,56.0,0.0,20.0,11.0,0.0
10327,52.0,0.0,40.0,4.0,0.0
10328,59.0,0.0,20.0,11.0,0.0
10329,56.0,30.0,20.0,11.0,0.0
10330,59.0,0.0,90.0,6.0,0.0
10331,52.0,0.0,60.0,13.0,0.0
10332,80.0,0.0,60.0,0.0,0.0
10333,87.0,0.0,60.0,0.0,0.0
10334,49.0,0.0,20.0,11.0,0.0
10335,63.0,0.0,60.0,3.0,0.0
10336,75.0,0.0,60.0,3.0,0.0
10337,47.0,0.0,90.0,6.0,0.0
10338,64.0,0.0,60.0,4.0,0.0
10339,59.0,18.0,90.0,5.0,0.0
10340,61.0,0.0,90.0,5.0,0.0
10341,56.0,30.0,20.0,11.0,0.0
10342,75.0,0.0,60.0,11.0,0.0
10343,47.0,0.0,90.0,8.0,0.0
10344,52.0,0.0,60.0,12.0,0.0
10345,75.0,12.0,60.0,1.0,0.0
10346,68.0,0.0,60.0,1.0,0.0
10347,52.0,0.0,60.0,4.0,0.0
10348,56.0,18.0,20.0,11.0,0.0
10349,59.0,0.0,20.0,11.0,0.0
10350,49.0,0.0,20.0,11.0,0.0
10351,56.0,12.0,20.0,11.0,0.0
10352,52.0,0.0,20.0,13.0,0.0
10353,56.0,0.0,20.0,11.0,0.0
10354,85.0,0.0,20.0,0.0,0.0
10355,52.0,30.0,20.0,4.0,0.0
10356,61.0,0.0,20.0,4.0,0.0
10357,59.0,0.0,20.0,11.0,0.0
10358,52.0,0.0,20.0,12.0,0.0
10359,80.0,0.0,20.0,0.0,0.0
10360,73.0,0.0,20.0,1.0,0.0
10361,73.0,0.0,20.0,11.0,0.0
10362,73.0,0.0,20.0,3.0,0.0
10363,68.0,0.0,20.0,1.0,0.0
10364,61.0,0.0,20.0,3.0,0.0
10365,53.0,0.0,40.0,13.0,0.0
10366,53.0,0.0,40.0,12.0,0.0
10367,83.0,0.0,40.0,0.0,0.0
10368,59.0,0.0,40.0,3.0,0.0
10369,71.0,6.0,40.0,3.0,0.0
10370,59.0,0.0,40.0,4.0,0.0
10371,49.0,24.0,20.0,11.0,0.0
10372,56.0,0.0,20.0,11.0,0.0
10373,71.0,0.0,40.0,1.0,0.0
10374,71.0,0.0,40.0,11.0,0.0
10375,68.0,0.0,40.0,1.0,0.0
10376,80.0,0.0,40.0,0.0,0.0
10377,51.0,0.0,40.0,4.0,0.0
10378,59.0,30.0,20.0,11.0,0.0
10379,56.0,0.0,20.0,11.0,0.0
10380,54.0,0.0,20.0,11.0,0.0
10381,54.0,0.0,60.0,5.0,0.0
10382,70.0,0.0,60.0,3.0,0.0
10383,54.0,0.0,60.0,4.0,0.0
10384,54.0,0.0,60.0,13.0,0.0
10385,82.0,0.0,60.0,0.0,0.0
10386,73.0,0.0,60.0,0.0,0.0
10387,54.0,0.0,60.0,6.0,0.0
10388,42.0,0.0,60.0,6.0,0.0
10389,58.0,12.0,60.0,4.0,0.0
10390,54.0,0.0,60.0,12.0,0.0
10391,58.0,30.0,20.0,11.0,0.0
10392,42.0,0.0,60.0,8.0,0.0
10393,70.0,0.0,60.0,1.0,0.0
10394,66.0,0.0,60.0,1.0,0.0
10395,70.0,0.0,60.0,11.0,0.0
10396,61.0,0.0,60.0,5.0,0.0
10397,58.0,0.0,60.0,3.0,0.0
10398,54.0,0.0,20.0,11.0,0.0
10399,49.0,18.0,20.0,11.0,0.0
10400,59.0,0.0,20.0,11.0,0.0
10401,54.0,30.0,20.0,11.0,0.0
10402,71.0,0.0,20.0,0.0,0.0
10403,71.0,0.0,20.0,1.0,0.0
10404,68.0,0.0,20.0,1.0,0.0
10405,68.0,0.0,20.0,11.0,0.0
10406,42.0,0.0,20.0,6.0,0.0
10407,56.0,0.0,20.0,11.0,0.0
10408,53.0,0.0,20.0,13.0,0.0
10409,80.0,0.0,20.0,0.0,0.0
10410,42.0,0.0,20.0,8.0,0.0
10411,54.0,0.0,20.0,6.0,0.0
10412,54.0,0.0,20.0,5.0,0.0
10413,68.0,0.0,20.0,3.0,0.0
10414,49.0,0.0,20.0,11.0,0.0
10415,53.0,0.0,20.0,4.0,0.0
10416,56.0,0.0,20.0,4.0,0.0
10417,56.0,0.0,20.0,3.0,0.0
10418,61.0,0.0,20.0,5.0,0.0
10419,53.0,30.0,20.0,12.0,0.0
10420,66.0,0.0,40.0,11.0,0.0
10421,58.0,24.0,20.0,11.0,0.0
10422,52.0,0.0,40.0,4.0,0.0
10423,54.0,6.0,40.0,4.0,0.0
10424,52.0,0.0,40.0,12.0,0.0
10425,61.0,0.0,40.0,5.0,0.0
10426,70.0,0.0,40.0,0.0,0.0
10427,70.0,0.0,40.0,1.0,0.0
10428,54.0,0.0,40.0,6.0,0.0
10429,61.0,0.0,20.0,11.0,0.0
10430,42.0,0.0,40.0,6.0,0.0
10431,54.0,0.0,40.0,5.0,0.0
10432,42.0,0.0,40.0,8.0,0.0
10433,66.0,0.0,40.0,3.0,0.0
10434,54.0,0.0,40.0,3.0,0.0
10435,52.0,0.0,40.0,13.0,0.0
10436,73.0,0.0,40.0,1.0,0.0
10437,78.0,0.0,40.0,0.0,0.0
10438,58.0,30.0,20.0,11.0,0.0
10439,54.0,0.0,20.0,11.0,0.0
10440,63.0,0.0,60.0,5.0,0.0
10441,63.0,30.0,20.0,11.0,0.0
10442,63.0,0.0,60.0,3.0,0.0
10443,75.0,0.0,60.0,3.0,0.0
10444,59.0,0.0,60.0,5.0,0.0
10445,42.0,0.0,60.0,6.0,0.0
10446,54.0,0.0,60.0,6.0,0.0
10447,59.0,0.0,20.0,11.0,0.0
10448,75.0,0.0,60.0,1.0,0.0
10449,42.0,0.0,60.0,8.0,0.0
10450,51.0,0.0,60.0,4.0,0.0
10451,87.0,0.0,60.0,0.0,0.0
10452,47.0,0.0,60.0,4.0,0.0
10453,51.0,12.0,60.0,13.0,0.0
10454,51.0,0.0,60.0,12.0,0.0
10455,71.0,0.0,60.0,1.0,0.0
10456,75.0,0.0,60.0,11.0,0.0
10457,83.0,0.0,60.0,0.0,0.0
10458,54.0,18.0,20.0,11.0,0.0
10459,59.0,0.0,20.0,11.0,0.0
10460,64.0,0.0,20.0,11.0,0.0
10461,52.0,30.0,20.0,11.0,0.0
10462,76.0,0.0,20.0,11.0,0.0
10463,76.0,0.0,20.0,1.0,0.0
10464,49.0,0.0,20.0,13.0,0.0
10465,54.0,0.0,20.0,6.0,0.0
10466,49.0,0.0,20.0,12.0,0.0
10467,59.0,0.0,20.0,5.0,0.0
10468,54.0,0.0,20.0,11.0,0.0
10469,61.0,0.0,20.0,11.0,0.0
10470,49.0,0.0,20.0,4.0,0.0
10471,52.0,0.0,20.0,4.0,0.0
10472,88.0,0.0,20.0,0.0,0.0
10473,85.0,0.0,20.0,0.0,0.0
10474,42.0,0.0,20.0,6.0,0.0
10475,63.0,30.0,20.0,5.0,0.0
10476,73.0,0.0,20.0,1.0,0.0
10477,64.0,0.0,20.0,3.0,0.0
10478,76.0,0.0,20.0,3.0,0.0
10479,42.0,0.0,20.0,8.0,0.0
10480,54.0,0.0,40.0,4.0,0.0
10481,47.0,0.0,40.0,12.0,0.0
10482,66.0,24.0,20.0,11.0,0.0
10483,47.0,0.0,40.0,13.0,0.0
10484,47.0,0.0,40.0,8.0,0.0
10485,78.0,0.0,40.0,1.0,0.0
10486,51.0,0.0,20.0,11.0,0.0
10487,66.0,0.0,40.0,3.0,0.0
10488,87.0,0.0,40.0,0.0,0.0
10489,51.0,0.0,40.0,4.0,0.0
10490,75.0,0.0,40.0,1.0,0.0
10491,75.0,0.0,40.0,3.0,0.0
10492,78.0,0.0,40.0,11.0,0.0
10493,63.0,0.0,40.0,5.0,0.0
10494,59.0,0.0,40.0,5.0,0.0
10495,59.0,6.0,40.0,6.0,0.0
10496,47.0,0.0,40.0,6.0,0.0
10497,54.0,102.0,20.0,11.0,0.0
10498,63.0,0.0,20.0,11.0,0.0
10499,47.0,0.0,90.0,8.0,0.0
10500,52.0,0.0,90.0,4.0,0.0
10501,56.0,0.0,90.0,4.0,0.0
10502,80.0,0.0,90.0,11.0,0.0
10503,80.0,0.0,90.0,0.0,0.0
10504,88.0,0.0,90.0,0.0,0.0
10505,59.0,0.0,90.0,5.0,0.0
10506,61.0,0.0,90.0,5.0,0.0
10507,52.0,0.0,90.0,13.0,0.0
10508,80.0,0.0,90.0,3.0,0.0
10509,47.0,0.0,90.0,6.0,0.0
10510,52.0,0.0,90.0,12.0,0.0
10511,59.0,0.0,90.0,6.0,0.0
10512,76.0,0.0,90.0,1.0,0.0
10513,80.0,0.0,90.0,1.0,0.0
10514,64.0,0.0,90.0,11.0,0.0
10515,68.0,180.0,90.0,11.0,0.0
10516,68.0,0.0,90.0,3.0,0.0
10517,54.0,0.0,90.0,4.0,0.0
10518,42.0,0.0,90.0,4.0,0.0
10519,42.0,0.0,90.0,8.0,0.0
10520,70.0,0.0,90.0,11.0,0.0
10521,85.0,0.0,90.0,0.0,0.0
10522,82.0,0.0,90.0,0.0,0.0
10523,61.0,0.0,90.0,11.0,0.0
10524,42.0,0.0,90.0,12.0,0.0
10525,70.0,0.0,90.0,3.0,0.0
10526,42.0,0.0,90.0,6.0,0.0
10527,42.0,0.0,90.0,13.0,0.0
10528,54.0,0.0,90.0,6.0,0.0
10529,54.0,0.0,90.0,5.0,0.0
10530,54.0,0.0,90.0,11.0,0.0
10531,61.0,0.0,90.0,5.0,0.0
10532,82.0,0.0,90.0,11.0,0.0
10533,61.0,0.0,90.0,3.0,0.0
10534,73.0,0.0,90.0,11.0,0.0
10535,66.0,0.0,90.0,11.0,0.0
10536,76.0,0.0,90.0,1.0,0.0
10537,73.0,156.0,90.0,1.0,0.0
10538,71.0,0.0,90.0,1.0,0.0
10539,75.0,0.0,90.0,1.0,0.0
10540,47.0,24.0,60.0,5.0,0.0
10541,47.0,0.0,90.0,4.0,0.0
10542,47.0,0.0,90.0,11.0,0.0
10543,47.0,0.0,90.0,13.0,0.0
10544,59.0,0.0,60.0,5.0,0.0
10545,47.0,0.0,90.0,8.0,0.0
10546,35.0,18.0,90.0,4.0,0.0
10547,47.0,0.0,90.0,6.0,0.0
10548,71.0,0.0,90.0,3.0,0.0
10549,63.0,0.0,90.0,3.0,0.0
10550,83.0,0.0,90.0,0.0,0.0
10551,54.0,0.0,90.0,11.0,0.0
10552,71.0,0.0,90.0,11.0,0.0
10553,63.0,0.0,90.0,11.0,0.0
10554,83.0,0.0,90.0,11.0,0.0
10555,75.0,0.0,90.0,11.0,0.0
10556,59.0,0.0,90.0,6.0,0.0
10557,47.0,0.0,90.0,12.0,0.0
10558,66.0,0.0,90.0,11.0,0.0
10559,47.0,54.0,20.0,5.0,0.0
10560,59.0,0.0,20.0,5.0,0.0
10561,47.0,60.0,40.0,5.0,0.0
10562,59.0,0.0,40.0,5.0,0.0
10563,47.0,60.0,40.0,5.0,0.0
10564,59.0,0.0,40.0,5.0,0.0
10565,47.0,0.0,40.0,5.0,0.0
10566,59.0,60.0,40.0,5.0,0.0
10567,59.0,66.0,40.0,5.0,0.0
10568,47.0,0.0,40.0,5.0,0.0
10569,59.0,6.0,300.0,5.0,0.0
10570,83.0,30.0,150.0,11.0,0.0
10571,47.0,0.0,300.0,5.0,0.0
10572,47.0,18.0,90.0,8.0,0.0
10573,56.0,0.0,150.0,12.0,0.0
10574,71.0,0.0,150.0,1.0,0.0
10575,83.0,0.0,150.0,0.0,0.0
10576,56.0,0.0,150.0,13.0,0.0
10577,71.0,0.0,150.0,3.0,0.0
10578,56.0,0.0,150.0,4.0,0.0
10579,59.0,0.0,150.0,4.0,0.0
10580,47.0,0.0,20.0,11.0,0.0
10581,59.0,30.0,20.0,11.0,0.0
10582,49.0,12.0,20.0,11.0,0.0
10583,61.0,0.0,20.0,11.0,0.0
10584,63.0,0.0,20.0,11.0,0.0
10585,51.0,30.0,20.0,11.0,0.0
10586,64.0,0.0,20.0,11.0,0.0
10587,52.0,0.0,20.0,11.0,0.0
10588,66.0,0.0,20.0,11.0,0.0
10589,54.0,30.0,20.0,11.0,0.0
10590,52.0,0.0,150.0,13.0,0.0
10591,47.0,0.0,20.0,8.0,0.0
10592,52.0,0.0,150.0,12.0,0.0
10593,68.0,0.0,20.0,11.0,0.0
10594,56.0,30.0,20.0,11.0,0.0
10595,71.0,0.0,150.0,1.0,0.0
10596,68.0,0.0,150.0,3.0,0.0
10597,80.0,0.0,20.0,11.0,0.0
10598,56.0,0.0,150.0,4.0,0.0
10599,80.0,0.0,150.0,1.0,0.0
10600,52.0,0.0,150.0,4.0,0.0
10601,80.0,0.0,150.0,0.0,0.0
10602,80.0,0.0,150.0,3.0,0.0
10603,55.0,30.0,20.0,11.0,0.0
10604,79.0,0.0,20.0,11.0,0.0
10605,47.0,0.0,20.0,8.0,0.0
10606,67.0,0.0,20.0,11.0,0.0
10607,80.0,0.0,20.0,11.0,0.0
10608,47.0,0.0,20.0,8.0,0.0
10609,68.0,0.0,20.0,11.0,0.0
10610,56.0,24.0,20.0,11.0,0.0
10611,82.0,0.0,20.0,11.0,0.0
10612,70.0,0.0,20.0,11.0,0.0
10613,58.0,0.0,20.0,11.0,0.0
10614,47.0,30.0,20.0,8.0,0.0
10615,71.0,0.0,20.0,11.0,0.0
10616,59.0,30.0,20.0,11.0,0.0
10617,83.0,0.0,20.0,11.0,0.0
10618,47.0,0.0,20.0,8.0,0.0
10619,80.0,0.0,20.0,11.0,0.0
10620,47.0,0.0,20.0,8.0,0.0
10621,56.0,0.0,20.0,11.0,0.0
10622,68.0,78.0,20.0,11.0,0.0
10623,42.0,18.0,90.0,8.0,0.0
10624,78.0,0.0,90.0,1.0,0.0
10625,71.0,0.0,90.0,1.0,0.0
10626,54.0,0.0,90.0,4.0,0.0
10627,66.0,0.0,90.0,11.0,0.0
10628,54.0,0.0,60.0,6.0,0.0
10629,51.0,0.0,90.0,12.0,0.0
10630,54.0,0.0,90.0,11.0,0.0
10631,83.0,0.0,90.0,0.0,0.0
10632,78.0,0.0,90.0,0.0,0.0
10633,51.0,0.0,90.0,13.0,0.0
10634,78.0,0.0,90.0,11.0,0.0
10635,51.0,0.0,90.0,4.0,0.0
10636,54.0,0.0,60.0,5.0,0.0
10637,66.0,0.0,90.0,3.0,0.0
10638,42.0,24.0,60.0,6.0,0.0
10639,78.0,0.0,90.0,3.0,0.0
10640,42.0,0.0,60.0,5.0,0.0
10641,42.0,54.0,20.0,5.0,0.0
10642,42.0,0.0,20.0,6.0,0.0
10643,54.0,0.0,20.0,6.0,0.0
10644,54.0,0.0,20.0,5.0,0.0
10645,42.0,60.0,40.0,6.0,0.0
10646,54.0,0.0,40.0,6.0,0.0
10647,42.0,0.0,40.0,5.0,0.0
10648,54.0,0.0,40.0,5.0,0.0
10649,42.0,0.0,40.0,5.0,0.0
10650,54.0,0.0,40.0,5.0,0.0
10651,42.0,60.0,40.0,6.0,0.0
10652,54.0,0.0,40.0,6.0,0.0
10653,54.0,60.0,40.0,6.0,0.0
10654,42.0,0.0,40.0,6.0,0.0
10655,54.0,0.0,40.0,5.0,0.0
10656,42.0,0.0,40.0,5.0,0.0
10657,54.0,0.0,40.0,5.0,0.0
10658,42.0,0.0,40.0,5.0,0.0
10659,54.0,0.0,40.0,6.0,0.0
10660,42.0,36.0,40.0,6.0,0.0
10661,64.0,0.0,150.0,3.0,0.0
10662,42.0,0.0,300.0,5.0,0.0
10663,54.0,6.0,300.0,5.0,0.0
10664,88.0,0.0,150.0,0.0,0.0
10665,85.0,0.0,150.0,0.0,0.0
10666,54.0,30.0,150.0,12.0,0.0
10667,76.0,0.0,150.0,11.0,0.0
10668,42.0,18.0,90.0,8.0,0.0
10669,61.0,0.0,150.0,3.0,0.0
10670,52.0,30.0,20.0,11.0,0.0
10671,52.0,0.0,150.0,4.0,0.0
10672,54.0,0.0,300.0,6.0,0.0
10673,42.0,0.0,300.0,6.0,0.0
10674,49.0,0.0,150.0,4.0,0.0
10675,73.0,0.0,150.0,1.0,0.0
10676,76.0,0.0,150.0,1.0,0.0
10677,54.0,0.0,150.0,13.0,0.0
10678,54.0,30.0,20.0,11.0,0.0
10679,52.0,12.0,20.0,11.0,0.0
10680,54.0,0.0,20.0,11.0,0.0
10681,56.0,0.0,20.0,11.0,0.0
10682,54.0,30.0,20.0,11.0,0.0
10683,52.0,0.0,20.0,11.0,0.0
10684,58.0,0.0,20.0,11.0,0.0
10685,59.0,0.0,20.0,11.0,0.0
10686,54.0,30.0,20.0,11.0,0.0
10687,73.0,0.0,20.0,11.0,0.0
10688,80.0,0.0,150.0,0.0,0.0
10689,58.0,0.0,150.0,3.0,0.0
10690,61.0,0.0,150.0,3.0,0.0
10691,42.0,0.0,150.0,12.0,0.0
10692,61.0,0.0,20.0,11.0,0.0
10693,73.0,30.0,150.0,1.0,0.0
10694,42.0,0.0,150.0,4.0,0.0
10695,42.0,0.0,150.0,13.0,0.0
10696,49.0,0.0,150.0,4.0,0.0
10697,85.0,0.0,150.0,0.0,0.0
10698,52.0,30.0,20.0,11.0,0.0
10699,42.0,0.0,20.0,8.0,0.0
10700,70.0,0.0,150.0,1.0,0.0
10701,72.0,0.0,20.0,11.0,0.0
10702,42.0,0.0,20.0,8.0,0.0
10703,54.0,0.0,20.0,11.0,0.0
10704,60.0,30.0,20.0,11.0,0.0
10705,42.0,0.0,20.0,8.0,0.0
10706,52.0,0.0,20.0,11.0,0.0
10707,61.0,0.0,20.0,11.0,0.0
10708,73.0,24.0,20.0,11.0,0.0
10709,54.0,0.0,20.0,11.0,0.0
10710,42.0,0.0,20.0,8.0,0.0
10711,75.0,0.0,20.0,11.0,0.0
10712,63.0,30.0,20.0,11.0,0.0
10713,52.0,0.0,20.0,11.0,0.0
10714,76.0,0.0,20.0,11.0,0.0
10715,64.0,0.0,20.0,11.0,0.0
10716,42.0,0.0,20.0,8.0,0.0
10717,73.0,0.0,20.0,11.0,0.0
10718,54.0,78.0,20.0,11.0,0.0
10719,61.0,0.0,20.0,11.0,0.0
10720,42.0,0.0,20.0,8.0,0.0
10721,59.0,0.0,60.0,5.0,0.0
10722,47.0,0.0,90.0,12.0,0.0
10723,47.0,24.0,60.0,5.0,0.0
10724,47.0,0.0,90.0,13.0,0.0
10725,59.0,0.0,90.0,3.0,0.0
10726,83.0,0.0,90.0,0.0,0.0
10727,75.0,0.0,90.0,0.0,0.0
10728,51.0,0.0,90.0,4.0,0.0
10729,47.0,0.0,90.0,4.0,0.0
10730,63.0,0.0,90.0,3.0,0.0
10731,59.0,0.0,60.0,6.0,0.0
10732,47.0,0.0,60.0,6.0,0.0
10733,47.0,0.0,90.0,11.0,0.0
10734,47.0,18.0,90.0,8.0,0.0
10735,59.0,0.0,90.0,11.0,0.0
10736,51.0,0.0,90.0,11.0,0.0
10737,71.0,0.0,90.0,11.0,0.0
10738,71.0,0.0,90.0,1.0,0.0
10739,47.0,0.0,20.0,6.0,0.0
10740,59.0,0.0,20.0,6.0,0.0
10741,47.0,0.0,20.0,5.0,0.0
10742,59.0,54.0,20.0,5.0,0.0
10743,59.0,0.0,40.0,5.0,0.0
10744,47.0,0.0,40.0,5.0,0.0
10745,47.0,60.0,40.0,6.0,0.0
10746,59.0,0.0,40.0,6.0,0.0
10747,47.0,60.0,40.0,5.0,0.0
10748,59.0,0.0,40.0,5.0,0.0
10749,59.0,0.0,40.0,6.0,0.0
10750,47.0,0.0,40.0,6.0,0.0
10751,59.0,0.0,40.0,5.0,0.0
10752,47.0,0.0,40.0,5.0,0.0
10753,47.0,0.0,40.0,6.0,0.0
10754,59.0,60.0,40.0,6.0,0.0
10755,59.0,0.0,40.0,5.0,0.0
10756,47.0,0.0,40.0,5.0,0.0
10757,47.0,84.0,40.0,6.0,0.0
10758,59.0,0.0,40.0,6.0,0.0
10759,47.0,0.0,90.0,12.0,0.0
10760,59.0,0.0,60.0,6.0,0.0
10761,47.0,0.0,60.0,5.0,0.0
10762,47.0,0.0,60.0,6.0,0.0
10763,71.0,18.0,90.0,1.0,0.0
10764,63.0,0.0,90.0,3.0,0.0
10765,47.0,0.0,90.0,13.0,0.0
10766,71.0,0.0,90.0,3.0,0.0
10767,78.0,0.0,90.0,0.0,0.0
10768,87.0,0.0,90.0,0.0,0.0
10769,51.0,0.0,90.0,11.0,0.0
10770,47.0,0.0,90.0,8.0,0.0
10771,66.0,0.0,90.0,11.0,0.0
10772,59.0,24.0,60.0,5.0,0.0
10773,75.0,0.0,90.0,11.0,0.0
10774,59.0,0.0,90.0,11.0,0.0
10775,51.0,0.0,90.0,4.0,0.0
10776,47.0,0.0,90.0,4.0,0.0
10777,75.0,0.0,90.0,1.0,0.0
10778,59.0,0.0,20.0,5.0,0.0
10779,47.0,0.0,20.0,5.0,0.0
10780,59.0,54.0,20.0,6.0,0.0
10781,47.0,0.0,20.0,6.0,0.0
10782,59.0,0.0,40.0,6.0,0.0
10783,47.0,60.0,40.0,6.0,0.0
10784,47.0,0.0,40.0,5.0,0.0
10785,59.0,0.0,40.0,5.0,0.0
10786,47.0,0.0,40.0,5.0,0.0
10787,59.0,60.0,40.0,5.0,0.0
10788,59.0,0.0,40.0,6.0,0.0
10789,47.0,0.0,40.0,6.0,0.0
10790,47.0,0.0,40.0,5.0,0.0
10791,47.0,0.0,40.0,6.0,0.0
10792,59.0,0.0,40.0,6.0,0.0
10793,59.0,60.0,40.0,5.0,0.0
10794,59.0,0.0,40.0,6.0,0.0
10795,59.0,0.0,40.0,5.0,0.0
10796,47.0,0.0,40.0,5.0,0.0
10797,47.0,108.0,40.0,6.0,0.0
10798,59.0,0.0,90.0,5.0,0.0
10799,71.0,0.0,90.0,1.0,0.0
10800,47.0,0.0,90.0,6.0,0.0
10801,59.0,100.0,90.0,6.0,0.0
10802,59.0,0.0,90.0,3.0,0.0
10803,47.0,0.0,90.0,8.0,0.0
10804,47.0,0.0,90.0,4.0,0.0
10805,47.0,0.0,90.0,5.0,0.0
10806,63.0,0.0,90.0,3.0,0.0
10807,51.0,0.0,90.0,11.0,0.0
10808,59.0,0.0,90.0,11.0,0.0
10809,75.0,0.0,90.0,0.0,0.0
10810,83.0,0.0,90.0,0.0,0.0
10811,47.0,0.0,90.0,11.0,0.0
10812,47.0,0.0,90.0,12.0,0.0
10813,47.0,0.0,90.0,13.0,0.0
10814,59.0,20.0,15.0,7.0,0.0
10815,47.0,0.0,15.0,10.0,0.0
10816,46.0,20.0,15.0,10.0,0.0
10817,58.0,0.0,15.0,7.0,0.0
10818,56.0,20.0,15.0,7.0,0.0
10819,44.0,0.0,15.0,10.0,0.0
10820,42.0,0.0,15.0,10.0,0.0
10821,54.0,20.0,15.0,7.0,0.0
10822,44.0,20.0,15.0,10.0,0.0
10823,56.0,0.0,15.0,7.0,0.0
10824,58.0,0.0,15.0,7.0,0.0
10825,46.0,28.0,15.0,10.0,0.0
10826,59.0,0.0,20.0,7.0,0.0
10827,47.0,30.0,20.0,10.0,0.0
10828,49.0,22.0,20.0,10.0,0.0
10829,61.0,0.0,20.0,7.0,0.0
10830,63.0,0.0,15.0,7.0,0.0
10831,51.0,20.0,15.0,10.0,0.0
10832,49.0,0.0,15.0,10.0,0.0
10833,61.0,20.0,15.0,7.0,0.0
10834,59.0,20.0,15.0,7.0,0.0
10835,47.0,0.0,15.0,10.0,0.0
10836,46.0,20.0,15.0,10.0,0.0
10837,58.0,0.0,15.0,7.0,0.0
10838,59.0,0.0,15.0,7.0,0.0
10839,47.0,20.0,15.0,10.0,0.0
10840,61.0,0.0,15.0,7.0,0.0
10841,49.0,28.0,15.0,10.0,0.0
10842,63.0,0.0,20.0,7.0,0.0
10843,51.0,30.0,20.0,10.0,0.0
10844,52.0,0.0,20.0,10.0,0.0
10845,64.0,22.0,20.0,7.0,0.0
10846,54.0,0.0,15.0,10.0,0.0
10847,66.0,20.0,15.0,7.0,0.0
10848,52.0,0.0,15.0,10.0,0.0
10849,64.0,20.0,15.0,7.0,0.0
10850,63.0,28.0,15.0,7.0,0.0
10851,51.0,0.0,15.0,10.0,0.0
10852,64.0,30.0,20.0,7.0,0.0
10853,52.0,0.0,20.0,10.0,0.0
10854,66.0,30.0,20.0,7.0,0.0
10855,54.0,0.0,20.0,10.0,0.0
10856,56.0,0.0,20.0,10.0,0.0
10857,68.0,30.0,20.0,7.0,0.0
10858,58.0,0.0,20.0,10.0,0.0
10859,70.0,102.0,20.0,7.0,0.0
10860,59.0,100.0,90.0,10.0,0.0
10861,71.0,0.0,90.0,7.0,0.0
10862,59.0,20.0,15.0,10.0,0.0
10863,71.0,0.0,15.0,7.0,0.0
10864,70.0,20.0,15.0,7.0,0.0
10865,58.0,0.0,15.0,10.0,0.0
10866,56.0,0.0,15.0,10.0,0.0
10867,68.0,20.0,15.0,7.0,0.0
10868,54.0,0.0,15.0,10.0,0.0
10869,66.0,20.0,15.0,7.0,0.0
10870,68.0,20.0,15.0,7.0,0.0
10871,56.0,0.0,15.0,10.0,0.0
10872,70.0,0.0,15.0,7.0,0.0
10873,58.0,28.0,15.0,10.0,0.0
10874,71.0,0.0,20.0,7.0,0.0
10875,59.0,30.0,20.0,10.0,0.0
10876,73.0,0.0,20.0,7.0,0.0
10877,61.0,22.0,20.0,10.0,0.0
10878,75.0,0.0,15.0,7.0,0.0
10879,63.0,20.0,15.0,10.0,0.0
10880,73.0,20.0,15.0,7.0,0.0
10881,61.0,0.0,15.0,10.0,0.0
10882,71.0,0.0,15.0,7.0,0.0
10883,59.0,20.0,15.0,10.0,0.0
10884,70.0,0.0,15.0,7.0,0.0
10885,58.0,20.0,15.0,10.0,0.0
10886,71.0,0.0,15.0,7.0,0.0
10887,59.0,20.0,15.0,10.0,0.0
10888,73.0,28.0,15.0,7.0,0.0
10889,61.0,0.0,15.0,10.0,0.0
10890,63.0,0.0,20.0,10.0,0.0
10891,75.0,30.0,20.0,7.0,0.0
10892,64.0,0.0,20.0,10.0,0.0
10893,76.0,22.0,20.0,7.0,0.0
10894,66.0,0.0,15.0,10.0,0.0
10895,78.0,20.0,15.0,7.0,0.0
10896,64.0,20.0,15.0,10.0,0.0
10897,76.0,0.0,15.0,7.0,0.0
10898,75.0,28.0,15.0,7.0,0.0
10899,63.0,0.0,15.0,10.0,0.0
10900,64.0,0.0,20.0,10.0,0.0
10901,76.0,30.0,20.0,7.0,0.0
10902,66.0,0.0,20.0,10.0,0.0
10903,78.0,30.0,20.0,7.0,0.0
10904,68.0,0.0,20.0,10.0,0.0
10905,80.0,30.0,20.0,7.0,0.0
10906,82.0,22.0,20.0,7.0,0.0
10907,70.0,0.0,20.0,10.0,0.0
10908,83.0,20.0,15.0,7.0,0.0
10909,71.0,0.0,15.0,10.0,0.0
10910,70.0,0.0,15.0,10.0,0.0
10911,82.0,20.0,15.0,7.0,0.0
10912,68.0,20.0,15.0,10.0,0.0
10913,80.0,0.0,15.0,7.0,0.0
10914,78.0,20.0,15.0,7.0,0.0
10915,66.0,0.0,15.0,10.0,0.0
10916,80.0,0.0,15.0,7.0,0.0
10917,68.0,20.0,15.0,10.0,0.0
10918,82.0,0.0,15.0,7.0,0.0
10919,70.0,28.0,15.0,10.0,0.0
10920,71.0,0.0,20.0,10.0,0.0
10921,83.0,30.0,20.0,7.0,0.0
10922,73.0,0.0,20.0,10.0,0.0
10923,85.0,22.0,20.0,7.0,0.0
10924,87.0,0.0,15.0,7.0,0.0
10925,75.0,20.0,15.0,10.0,0.0
10926,85.0,0.0,15.0,7.0,0.0
10927,73.0,20.0,15.0,10.0,0.0
10928,83.0,0.0,15.0,7.0,0.0
10929,71.0,20.0,15.0,10.0,0.0
10930,82.0,20.0,15.0,7.0,0.0
10931,70.0,0.0,15.0,10.0,0.0
10932,83.0,0.0,15.0,7.0,0.0
10933,71.0,20.0,15.0,10.0,0.0
10934,73.0,0.0,15.0,10.0,0.0
10935,85.0,28.0,15.0,7.0,0.0
10936,87.0,30.0,20.0,7.0,0.0
10937,75.0,0.0,20.0,10.0,0.0
10938,88.0,0.0,20.0,7.0,0.0
10939,76.0,30.0,20.0,10.0,0.0
10940,90.0,0.0,20.0,7.0,0.0
10941,78.0,30.0,20.0,10.0,0.0
10942,76.0,0.0,20.0,10.0,0.0
10943,88.0,30.0,20.0,7.0,0.0
10944,75.0,30.0,20.0,10.0,0.0
10945,87.0,0.0,20.0,7.0,0.0
10946,80.0,0.0,20.0,10.0,0.0
10947,92.0,30.0,20.0,7.0,0.0
10948,90.0,0.0,20.0,7.0,0.0
10949,78.0,30.0,20.0,10.0,0.0
10950,88.0,30.0,20.0,7.0,0.0
10951,76.0,0.0,20.0,10.0,0.0
10952,75.0,0.0,20.0,10.0,0.0
10953,87.0,30.0,20.0,7.0,0.0
10954,85.0,0.0,20.0,7.0,0.0
10955,73.0,30.0,20.0,10.0,0.0
10956,83.0,0.0,20.0,7.0,0.0
10957,71.0,30.0,20.0,10.0,0.0
10958,82.0,0.0,20.0,7.0,0.0
10959,70.0,30.0,20.0,10.0,0.0
10960,80.0,30.0,20.0,7.0,0.0
10961,68.0,0.0,20.0,10.0,0.0
10962,79.0,0.0,20.0,7.0,0.0
10963,67.0,30.0,20.0,10.0,0.0
10964,66.0,30.0,20.0,10.0,0.0
10965,78.0,0.0,20.0,7.0,0.0
10966,76.0,0.0,20.0,7.0,0.0
10967,64.0,30.0,20.0,10.0,0.0
10968,63.0,0.0,20.0,10.0,0.0
10969,75.0,30.0,20.0,7.0,0.0
10970,68.0,0.0,20.0,10.0,0.0
10971,80.0,30.0,20.0,7.0,0.0
10972,66.0,0.0,20.0,10.0,0.0
10973,78.0,30.0,20.0,7.0,0.0
10974,64.0,30.0,20.0,10.0,0.0
10975,76.0,0.0,20.0,7.0,0.0
10976,75.0,0.0,20.0,7.0,0.0
10977,63.0,30.0,20.0,10.0,0.0
10978,73.0,30.0,20.0,7.0,0.0
10979,61.0,0.0,20.0,10.0,0.0
10980,59.0,30.0,20.0,10.0,0.0
10981,71.0,0.0,20.0,7.0,0.0
10982,70.0,30.0,20.0,7.0,0.0
10983,58.0,0.0,20.0,10.0,0.0
10984,68.0,30.0,20.0,7.0,0.0
10985,56.0,0.0,20.0,10.0,0.0
10986,55.0,54.0,20.0,10.0,0.0
10987,67.0,0.0,20.0,7.0,0.0
10988,47.0,0.0,300.0,10.0,0.0
10989,63.0,26.0,300.0,7.0,0.0
10990,66.0,12.0,90.0,7.0,0.0
10991,23.0,12.0,1350.0,5.0,0.0
10992,51.0,48.0,40.0,10.0,0.0
10993,54.0,36.0,40.0,10.0,0.0
10994,68.0,15.0,20.0,7.0,0.0
10995,59.0,6.0,40.0,10.0,0.0
10996,66.0,9.0,20.0,7.0,0.0
10997,65.0,15.0,20.0,7.0,0.0
10998,66.0,39.0,20.0,7.0,0.0
10999,75.0,34.0,120.0,7.0,0.0
11000,51.0,60.0,40.0,10.0,0.0
11001,54.0,0.0,40.0,10.0,0.0
11002,59.0,11.0,40.0,10.0,0.0
11003,71.0,49.0,60.0,7.0,0.0
11004,70.0,24.0,150.0,7.0,0.0
11005,64.0,12.0,270.0,7.0,0.0
11006,52.0,60.0,40.0,10.0,0.0
11007,47.0,4.0,300.0,10.0,0.0
11008,56.0,36.0,40.0,10.0,0.0
11009,59.0,60.0,40.0,10.0,0.0
11010,52.0,48.0,40.0,10.0,0.0
11011,68.0,56.0,120.0,7.0,0.0
11012,55.0,0.0,40.0,10.0,0.0
11013,61.0,0.0,40.0,7.0,0.0
11014,64.0,0.0,40.0,7.0,0.0
11015,59.0,60.0,40.0,10.0,0.0
11016,67.0,0.0,40.0,7.0,0.0
11017,49.0,0.0,300.0,10.0,0.0
11018,47.0,60.0,300.0,10.0,0.0
11019,67.0,12.0,90.0,7.0,0.0
11020,61.0,24.0,150.0,7.0,0.0
11021,64.0,0.0,150.0,7.0,0.0
11022,52.0,48.0,40.0,10.0,0.0
11023,54.0,36.0,40.0,10.0,0.0
11024,58.0,60.0,40.0,10.0,0.0
11025,66.0,0.0,40.0,7.0,0.0
11026,66.0,0.0,90.0,7.0,0.0
11027,64.0,0.0,90.0,7.0,0.0
11028,61.0,12.0,90.0,7.0,0.0
11029,52.0,48.0,40.0,10.0,0.0
11030,54.0,0.0,40.0,10.0,0.0
11031,58.0,0.0,40.0,10.0,0.0
11032,66.0,0.0,40.0,7.0,0.0
11033,61.0,24.0,40.0,7.0,0.0
11034,47.0,0.0,300.0,10.0,0.0
11035,51.0,9.0,40.0,10.0,0.0
11036,66.0,15.0,15.0,7.0,0.0
11037,63.0,0.0,270.0,7.0,0.0
11038,68.0,15.0,15.0,7.0,0.0
11039,66.0,6.0,15.0,7.0,0.0
11040,68.0,15.0,15.0,7.0,0.0
11041,66.0,15.0,15.0,7.0,0.0
11042,54.0,9.0,40.0,10.0,0.0
11043,68.0,15.0,15.0,7.0,0.0
11044,66.0,6.0,15.0,7.0,0.0
11045,68.0,15.0,15.0,7.0,0.0
11046,66.0,15.0,15.0,7.0,0.0
11047,59.0,21.0,40.0,10.0,0.0
11048,68.0,15.0,15.0,7.0,0.0
11049,66.0,6.0,15.0,7.0,0.0
11050,65.0,30.0,20.0,7.0,0.0
11051,51.0,48.0,40.0,10.0,0.0
11052,66.0,9.0,20.0,7.0,0.0
11053,71.0,27.0,90.0,7.0,0.0
11054,54.0,33.0,40.0,10.0,0.0
11055,59.0,24.0,40.0,10.0,0.0
11056,61.0,24.0,150.0,7.0,0.0
11057,49.0,60.0,40.0,10.0,0.0
11058,46.0,0.0,150.0,10.0,0.0
11059,66.0,21.0,15.0,7.0,0.0
11060,73.0,33.0,90.0,7.0,0.0
11061,66.0,15.0,20.0,7.0,0.0
11062,54.0,3.0,40.0,10.0,0.0
11063,58.0,15.0,40.0,10.0,0.0
11064,66.0,24.0,40.0,7.0,0.0
11065,63.0,24.0,150.0,7.0,0.0
11066,48.0,0.0,150.0,10.0,0.0
11067,51.0,60.0,40.0,10.0,0.0
11068,66.0,21.0,15.0,7.0,0.0
11069,75.0,0.0,90.0,7.0,0.0
11070,66.0,18.0,90.0,7.0,0.0
11071,54.0,18.0,40.0,10.0,0.0
11072,60.0,24.0,40.0,10.0,0.0
11073,49.0,3.0,300.0,10.0,0.0
11074,52.0,60.0,40.0,10.0,0.0
11075,66.0,6.0,15.0,7.0,0.0
11076,66.0,30.0,15.0,7.0,0.0
11077,76.0,0.0,270.0,7.0,0.0
11078,64.0,57.0,270.0,7.0,0.0
11079,54.0,60.0,40.0,10.0,0.0
11080,64.0,0.0,40.0,11.0,0.0
11081,49.0,60.0,40.0,13.0,0.0
11082,49.0,0.0,40.0,12.0,0.0
11083,54.0,0.0,40.0,11.0,0.0
11084,61.0,0.0,40.0,10.0,0.0
11085,61.0,0.0,40.0,11.0,0.0
11086,49.0,0.0,90.0,13.0,0.0
11087,49.0,0.0,90.0,11.0,0.0
11088,54.0,0.0,90.0,11.0,0.0
11089,52.0,48.0,40.0,10.0,0.0
11090,49.0,0.0,90.0,12.0,0.0
11091,64.0,12.0,90.0,11.0,0.0
11092,54.0,0.0,40.0,10.0,0.0
11093,61.0,15.0,40.0,10.0,0.0
11094,52.0,60.0,40.0,10.0,0.0
11095,66.0,9.0,15.0,7.0,0.0
11096,64.0,0.0,150.0,7.0,0.0
11097,49.0,24.0,150.0,10.0,0.0
11098,76.0,0.0,90.0,7.0,0.0
11099,66.0,33.0,90.0,7.0,0.0
11100,54.0,3.0,40.0,10.0,0.0
11101,61.0,15.0,40.0,10.0,0.0
11102,66.0,24.0,15.0,7.0,0.0
11103,51.0,24.0,150.0,10.0,0.0
11104,54.0,60.0,40.0,10.0,0.0
11105,71.0,21.0,15.0,7.0,0.0
11106,71.0,18.0,90.0,7.0,0.0
11107,78.0,0.0,90.0,7.0,0.0
11108,59.0,18.0,40.0,10.0,0.0
11109,63.0,24.0,40.0,10.0,0.0
11110,56.0,60.0,40.0,10.0,0.0
11111,71.0,6.0,15.0,7.0,0.0
11112,71.0,30.0,15.0,7.0,0.0
11113,68.0,0.0,270.0,7.0,0.0
11114,80.0,0.0,270.0,7.0,0.0
11115,59.0,56.0,40.0,10.0,0.0
11116,66.0,0.0,40.0,11.0,0.0
11117,47.0,0.0,40.0,11.0,0.0
11118,64.0,60.0,40.0,10.0,0.0
11119,52.0,0.0,40.0,13.0,0.0
11120,52.0,4.0,40.0,12.0,0.0
11121,56.0,60.0,40.0,10.0,0.0
11122,52.0,49.0,120.0,12.0,0.0
11123,52.0,0.0,120.0,11.0,0.0
11124,52.0,0.0,120.0,13.0,0.0
11125,66.0,0.0,120.0,11.0,0.0
11126,59.0,3.0,40.0,10.0,0.0
11127,64.0,15.0,40.0,10.0,0.0
11128,56.0,60.0,40.0,10.0,0.0
11129,73.0,9.0,15.0,7.0,0.0
11130,68.0,0.0,150.0,7.0,0.0
11131,71.0,24.0,150.0,7.0,0.0
11132,73.0,0.0,90.0,7.0,0.0
11133,80.0,33.0,90.0,7.0,0.0
11134,61.0,3.0,40.0,10.0,0.0
11135,65.0,15.0,40.0,10.0,0.0
11136,70.0,0.0,150.0,7.0,0.0
11137,58.0,60.0,40.0,10.0,0.0
11138,73.0,24.0,15.0,7.0,0.0
11139,73.0,21.0,15.0,7.0,0.0
11140,82.0,0.0,90.0,7.0,0.0
11141,73.0,18.0,90.0,7.0,0.0
11142,61.0,18.0,40.0,10.0,0.0
11143,66.0,24.0,40.0,10.0,0.0
11144,59.0,60.0,40.0,10.0,0.0
11145,73.0,6.0,15.0,7.0,0.0
11146,71.0,0.0,270.0,7.0,0.0
11147,77.0,0.0,270.0,7.0,0.0
11148,73.0,30.0,15.0,7.0,0.0
11149,83.0,57.0,270.0,7.0,0.0
11150,61.0,56.0,40.0,10.0,0.0
11151,65.0,60.0,40.0,10.0,0.0
11152,71.0,4.0,40.0,11.0,0.0
11153,71.0,4.0,90.0,11.0,0.0
11154,59.0,56.0,40.0,10.0,0.0
11155,61.0,3.0,40.0,10.0,0.0
11156,65.0,15.0,40.0,10.0,0.0
11157,61.0,60.0,40.0,10.0,0.0
11158,73.0,9.0,15.0,7.0,0.0
11159,78.0,36.0,15.0,7.0,0.0
11160,85.0,33.0,90.0,7.0,0.0
11161,78.0,0.0,90.0,7.0,0.0
11162,66.0,3.0,40.0,10.0,0.0
11163,70.0,15.0,40.0,10.0,0.0
11164,78.0,24.0,40.0,7.0,0.0
11165,75.0,24.0,150.0,7.0,0.0
11166,63.0,60.0,40.0,10.0,0.0
11167,78.0,21.0,15.0,7.0,0.0
11168,78.0,0.0,90.0,7.0,0.0
11169,87.0,18.0,90.0,7.0,0.0
11170,66.0,18.0,40.0,10.0,0.0
11171,72.0,30.0,40.0,10.0,0.0
11172,78.0,96.0,40.0,7.0,0.0
11173,76.0,30.0,120.0,7.0,0.0
11174,61.0,0.0,120.0,10.0,0.0
11175,64.0,0.0,90.0,10.0,0.0
11176,78.0,0.0,90.0,7.0,0.0
11177,82.0,0.0,60.0,7.0,0.0
11178,66.0,0.0,60.0,10.0,0.0
11179,85.0,0.0,20.0,7.0,0.0
11180,70.0,0.0,20.0,10.0,0.0
11181,78.0,0.0,20.0,7.0,0.0
11182,82.0,0.0,20.0,7.0,0.0
11183,85.0,0.0,20.0,7.0,0.0
11184,88.0,0.0,20.0,7.0,0.0
11185,73.0,0.0,20.0,10.0,0.0
11186,66.0,0.0,20.0,10.0,0.0
11187,64.0,84.0,20.0,10.0,0.0
11188,70.0,0.0,20.0,10.0,0.0
11189,64.0,60.0,40.0,5.0,0.0
11190,63.0,60.0,40.0,5.0,0.0
11191,61.0,60.0,40.0,5.0,0.0
11192,59.0,60.0,40.0,5.0,0.0
11193,58.0,60.0,40.0,5.0,0.0
11194,56.0,108.0,40.0,5.0,0.0
11195,54.0,72.0,90.0,5.0,0.0
11196,54.0,126.0,40.0,5.0,0.0
11197,51.0,0.0,120.0,10.0,0.0
11198,66.0,30.0,120.0,7.0,0.0
11199,68.0,0.0,120.0,7.0,0.0
11200,54.0,0.0,90.0,10.0,0.0
11201,71.0,0.0,90.0,7.0,0.0
11202,56.0,0.0,60.0,10.0,0.0
11203,75.0,0.0,60.0,7.0,0.0
11204,59.0,0.0,20.0,10.0,0.0
11205,66.0,84.0,20.0,7.0,0.0
11206,78.0,0.0,20.0,7.0,0.0
11207,63.0,0.0,20.0,10.0,0.0
11208,59.0,0.0,20.0,10.0,0.0
11209,56.0,0.0,20.0,10.0,0.0
11210,54.0,0.0,20.0,10.0,0.0
11211,78.0,60.0,40.0,1.0,0.0
11212,66.0,0.0,40.0,3.0,0.0
11213,54.0,0.0,40.0,4.0,0.0
11214,52.0,0.0,40.0,4.0,0.0
11215,64.0,0.0,40.0,3.0,0.0
11216,76.0,60.0,40.0,1.0,0.0
11217,51.0,0.0,40.0,4.0,0.0
11218,63.0,0.0,40.0,3.0,0.0
11219,75.0,60.0,40.0,1.0,0.0
11220,49.0,0.0,40.0,4.0,0.0
11221,61.0,60.0,40.0,3.0,0.0
11222,73.0,0.0,40.0,1.0,0.0
11223,48.0,0.0,40.0,4.0,0.0
11224,72.0,60.0,40.0,1.0,0.0
11225,60.0,0.0,40.0,3.0,0.0
11226,57.0,0.0,40.0,3.0,0.0
11227,69.0,0.0,40.0,1.0,0.0
11228,45.0,108.0,40.0,4.0,0.0
11229,68.0,72.0,90.0,1.0,0.0
11230,56.0,0.0,90.0,3.0,0.0
11231,44.0,0.0,90.0,4.0,0.0
11232,56.0,108.0,40.0,3.0,0.0
11233,68.0,0.0,40.0,1.0,0.0
11234,44.0,0.0,40.0,4.0,0.0
11235,52.0,0.0,240.0,11.0,0.0
11236,61.0,0.0,90.0,5.0,0.0
11237,52.0,0.0,90.0,4.0,0.0
11238,56.0,0.0,90.0,4.0,0.0
11239,56.0,0.0,90.0,11.0,0.0
11240,64.0,0.0,90.0,5.0,0.0
11241,40.0,28.0,240.0,12.0,0.0
11242,68.0,0.0,90.0,1.0,0.0
11243,80.0,0.0,90.0,0.0,0.0
11244,76.0,0.0,90.0,0.0,0.0
11245,73.0,0.0,90.0,1.0,0.0
11246,40.0,0.0,240.0,13.0,0.0
11247,68.0,0.0,90.0,3.0,0.0
11248,64.0,0.0,90.0,3.0,0.0
11249,68.0,108.0,90.0,11.0,0.0
11250,61.0,0.0,90.0,11.0,0.0
11251,56.0,0.0,40.0,4.0,0.0
11252,68.0,6.0,40.0,3.0,0.0
11253,80.0,0.0,40.0,1.0,0.0
11254,80.0,0.0,20.0,11.0,0.0
11255,68.0,24.0,20.0,11.0,0.0
11256,68.0,2.0,20.0,11.0,0.0
11257,80.0,0.0,20.0,11.0,0.0
11258,54.0,0.0,40.0,4.0,0.0
11259,78.0,0.0,40.0,1.0,0.0
11260,57.0,6.0,40.0,13.0,0.0
11261,57.0,0.0,40.0,12.0,0.0
11262,66.0,0.0,20.0,11.0,0.0
11263,66.0,0.0,40.0,3.0,0.0
11264,78.0,24.0,20.0,11.0,0.0
11265,57.0,0.0,20.0,11.0,0.0
11266,57.0,0.0,20.0,11.0,0.0
11267,66.0,0.0,20.0,11.0,0.0
11268,78.0,30.0,20.0,11.0,0.0
11269,56.0,6.0,40.0,12.0,0.0
11270,52.0,0.0,40.0,4.0,0.0
11271,76.0,0.0,20.0,11.0,0.0
11272,56.0,24.0,20.0,11.0,0.0
11273,64.0,0.0,40.0,3.0,0.0
11274,64.0,0.0,20.0,11.0,0.0
11275,76.0,0.0,40.0,1.0,0.0
11276,56.0,0.0,40.0,13.0,0.0
11277,64.0,0.0,20.0,11.0,0.0
11278,76.0,0.0,20.0,11.0,0.0
11279,56.0,30.0,20.0,11.0,0.0
11280,75.0,0.0,20.0,11.0,0.0
11281,44.0,24.0,20.0,11.0,0.0
11282,63.0,0.0,20.0,11.0,0.0
11283,63.0,0.0,40.0,3.0,0.0
11284,56.0,0.0,20.0,11.0,0.0
11285,75.0,6.0,40.0,1.0,0.0
11286,51.0,0.0,40.0,4.0,0.0
11287,54.0,0.0,40.0,13.0,0.0
11288,87.0,0.0,40.0,0.0,0.0
11289,54.0,0.0,40.0,12.0,0.0
11290,44.0,0.0,20.0,11.0,0.0
11291,63.0,0.0,20.0,11.0,0.0
11292,75.0,30.0,20.0,11.0,0.0
11293,56.0,0.0,20.0,11.0,0.0
11294,85.0,0.0,40.0,0.0,0.0
11295,44.0,0.0,20.0,11.0,0.0
11296,56.0,0.0,20.0,11.0,0.0
11297,61.0,0.0,40.0,3.0,0.0
11298,73.0,0.0,40.0,1.0,0.0
11299,49.0,0.0,40.0,4.0,0.0
11300,52.0,0.0,40.0,13.0,0.0
11301,61.0,0.0,20.0,11.0,0.0
11302,52.0,6.0,40.0,12.0,0.0
11303,73.0,24.0,20.0,11.0,0.0
11304,73.0,0.0,20.0,11.0,0.0
11305,56.0,0.0,20.0,11.0,0.0
11306,61.0,30.0,20.0,11.0,0.0
11307,44.0,0.0,20.0,11.0,0.0
11308,48.0,0.0,40.0,4.0,0.0
11309,72.0,24.0,20.0,11.0,0.0
11310,51.0,0.0,40.0,13.0,0.0
11311,72.0,0.0,40.0,1.0,0.0
11312,60.0,0.0,20.0,11.0,0.0
11313,51.0,6.0,40.0,12.0,0.0
11314,56.0,0.0,20.0,11.0,0.0
11315,60.0,0.0,40.0,3.0,0.0
11316,84.0,0.0,40.0,0.0,0.0
11317,44.0,0.0,20.0,11.0,0.0
11318,44.0,0.0,20.0,11.0,0.0
11319,56.0,30.0,20.0,11.0,0.0
11320,72.0,0.0,20.0,11.0,0.0
11321,60.0,0.0,20.0,11.0,0.0
11322,49.0,0.0,40.0,13.0,0.0
11323,49.0,0.0,90.0,4.0,0.0
11324,61.0,0.0,20.0,11.0,0.0
11325,61.0,0.0,90.0,3.0,0.0
11326,73.0,24.0,20.0,11.0,0.0
11327,73.0,12.0,90.0,1.0,0.0
11328,49.0,0.0,20.0,11.0,0.0
11329,49.0,6.0,40.0,12.0,0.0
11330,85.0,0.0,90.0,0.0,0.0
11331,61.0,0.0,20.0,11.0,0.0
11332,73.0,0.0,20.0,11.0,0.0
11333,47.0,6.0,40.0,13.0,0.0
11334,73.0,0.0,20.0,11.0,0.0
11335,47.0,0.0,40.0,12.0,0.0
11336,61.0,0.0,20.0,11.0,0.0
11337,59.0,12.0,20.0,11.0,0.0
11338,59.0,0.0,20.0,11.0,0.0
11339,73.0,0.0,20.0,11.0,0.0
11340,61.0,30.0,20.0,11.0,0.0
11341,63.0,24.0,20.0,11.0,0.0
11342,51.0,0.0,40.0,4.0,0.0
11343,75.0,0.0,40.0,1.0,0.0
11344,46.0,0.0,40.0,13.0,0.0
11345,58.0,0.0,20.0,11.0,0.0
11346,75.0,0.0,20.0,11.0,0.0
11347,46.0,0.0,40.0,12.0,0.0
11348,63.0,0.0,40.0,3.0,0.0
11349,87.0,6.0,40.0,0.0,0.0
11350,75.0,30.0,20.0,11.0,0.0
11351,58.0,0.0,20.0,11.0,0.0
11352,63.0,0.0,20.0,11.0,0.0
11353,44.0,6.0,40.0,13.0,0.0
11354,64.0,0.0,20.0,11.0,0.0
11355,88.0,0.0,40.0,0.0,0.0
11356,56.0,24.0,20.0,11.0,0.0
11357,64.0,0.0,40.0,3.0,0.0
11358,76.0,0.0,20.0,11.0,0.0
11359,44.0,0.0,40.0,12.0,0.0
11360,76.0,0.0,40.0,1.0,0.0
11361,52.0,0.0,40.0,4.0,0.0
11362,76.0,0.0,20.0,11.0,0.0
11363,64.0,30.0,20.0,11.0,0.0
11364,56.0,0.0,20.0,11.0,0.0
11365,42.0,0.0,40.0,12.0,0.0
11366,64.0,0.0,40.0,3.0,0.0
11367,64.0,0.0,40.0,1.0,0.0
11368,68.0,0.0,20.0,11.0,0.0
11369,54.0,0.0,20.0,11.0,0.0
11370,56.0,0.0,40.0,3.0,0.0
11371,76.0,0.0,40.0,1.0,0.0
11372,76.0,0.0,40.0,0.0,0.0
11373,80.0,0.0,40.0,0.0,0.0
11374,56.0,24.0,20.0,11.0,0.0
11375,42.0,6.0,40.0,13.0,0.0
11376,52.0,0.0,40.0,4.0,0.0
11377,44.0,0.0,40.0,4.0,0.0
11378,68.0,0.0,20.0,11.0,0.0
11379,54.0,30.0,20.0,11.0,0.0
11380,56.0,0.0,20.0,11.0,0.0
11381,52.0,0.0,20.0,11.0,0.0
11382,70.0,24.0,20.0,11.0,0.0
11383,61.0,0.0,40.0,5.0,0.0
11384,54.0,0.0,40.0,5.0,0.0
11385,54.0,6.0,40.0,13.0,0.0
11386,49.0,0.0,40.0,4.0,0.0
11387,46.0,0.0,40.0,4.0,0.0
11388,70.0,0.0,40.0,1.0,0.0
11389,73.0,0.0,40.0,1.0,0.0
11390,49.0,0.0,20.0,11.0,0.0
11391,82.0,0.0,40.0,0.0,0.0
11392,76.0,0.0,40.0,0.0,0.0
11393,42.0,0.0,40.0,8.0,0.0
11394,54.0,0.0,40.0,12.0,0.0
11395,61.0,0.0,40.0,3.0,0.0
11396,54.0,0.0,40.0,6.0,0.0
11397,42.0,0.0,40.0,6.0,0.0
11398,58.0,0.0,40.0,3.0,0.0
11399,58.0,0.0,20.0,11.0,0.0
11400,70.0,0.0,20.0,11.0,0.0
11401,49.0,30.0,20.0,11.0,0.0
11402,52.0,0.0,20.0,11.0,0.0
11403,58.0,0.0,20.0,11.0,0.0
11404,83.0,0.0,40.0,0.0,0.0
11405,59.0,0.0,20.0,11.0,0.0
11406,42.0,0.0,40.0,13.0,0.0
11407,75.0,0.0,90.0,1.0,0.0
11408,71.0,0.0,20.0,11.0,0.0
11409,63.0,12.0,90.0,3.0,0.0
11410,54.0,0.0,90.0,6.0,0.0
11411,42.0,0.0,90.0,6.0,0.0
11412,71.0,0.0,90.0,1.0,0.0
11413,78.0,0.0,40.0,0.0,0.0
11414,59.0,0.0,90.0,3.0,0.0
11415,51.0,0.0,90.0,4.0,0.0
11416,47.0,0.0,90.0,4.0,0.0
11417,54.0,0.0,90.0,5.0,0.0
11418,63.0,0.0,90.0,5.0,0.0
11419,47.0,24.0,20.0,11.0,0.0
11420,51.0,0.0,20.0,11.0,0.0
11421,42.0,6.0,40.0,12.0,0.0
11422,42.0,0.0,90.0,8.0,0.0
11423,59.0,30.0,20.0,11.0,0.0
11424,47.0,0.0,20.0,11.0,0.0
11425,51.0,0.0,20.0,11.0,0.0
11426,71.0,0.0,20.0,11.0,0.0
11427,51.0,12.0,20.0,11.0,0.0
11428,47.0,0.0,20.0,11.0,0.0
11429,54.0,0.0,40.0,12.0,0.0
11430,71.0,0.0,20.0,11.0,0.0
11431,59.0,0.0,20.0,11.0,0.0
11432,83.0,0.0,40.0,0.0,0.0
11433,54.0,6.0,40.0,13.0,0.0
11434,59.0,0.0,20.0,11.0,0.0
11435,71.0,0.0,20.0,11.0,0.0
11436,47.0,0.0,20.0,11.0,0.0
11437,51.0,30.0,20.0,11.0,0.0
11438,85.0,0.0,40.0,0.0,0.0
11439,54.0,0.0,40.0,5.0,0.0
11440,46.0,0.0,40.0,4.0,0.0
11441,46.0,24.0,20.0,11.0,0.0
11442,42.0,0.0,40.0,12.0,0.0
11443,49.0,0.0,20.0,11.0,0.0
11444,61.0,0.0,20.0,11.0,0.0
11445,61.0,0.0,40.0,5.0,0.0
11446,49.0,0.0,40.0,4.0,0.0
11447,82.0,0.0,40.0,0.0,0.0
11448,54.0,0.0,20.0,11.0,0.0
11449,42.0,0.0,40.0,6.0,0.0
11450,61.0,0.0,40.0,3.0,0.0
11451,73.0,0.0,20.0,11.0,0.0
11452,54.0,0.0,40.0,6.0,0.0
11453,42.0,0.0,40.0,13.0,0.0
11454,42.0,6.0,40.0,8.0,0.0
11455,73.0,0.0,40.0,1.0,0.0
11456,58.0,0.0,40.0,3.0,0.0
11457,70.0,0.0,40.0,1.0,0.0
11458,49.0,102.0,20.0,11.0,0.0
11459,46.0,0.0,20.0,11.0,0.0
11460,73.0,0.0,20.0,11.0,0.0
11461,54.0,0.0,20.0,11.0,0.0
11462,61.0,0.0,20.0,11.0,0.0
11463,61.0,0.0,90.0,3.0,0.0
11464,70.0,0.0,90.0,1.0,0.0
11465,54.0,0.0,90.0,6.0,0.0
11466,61.0,0.0,90.0,5.0,0.0
11467,42.0,0.0,90.0,13.0,0.0
11468,42.0,0.0,90.0,6.0,0.0
11469,54.0,0.0,90.0,5.0,0.0
11470,58.0,0.0,90.0,11.0,0.0
11471,73.0,0.0,90.0,11.0,0.0
11472,66.0,0.0,90.0,11.0,0.0
11473,42.0,0.0,90.0,12.0,0.0
11474,42.0,0.0,90.0,8.0,0.0
11475,61.0,0.0,90.0,11.0,0.0
11476,58.0,0.0,90.0,3.0,0.0
11477,46.0,0.0,90.0,11.0,0.0
11478,49.0,0.0,90.0,11.0,0.0
11479,73.0,0.0,90.0,1.0,0.0
11480,46.0,0.0,90.0,4.0,0.0
11481,49.0,0.0,90.0,4.0,0.0
11482,82.0,132.0,90.0,0.0,0.0
11483,85.0,0.0,90.0,0.0,0.0
11484,54.0,0.0,90.0,11.0,0.0
11485,64.0,0.0,40.0,10.0,0.0
11486,88.0,0.0,40.0,7.0,0.0
11487,76.0,60.0,40.0,7.0,0.0
11488,75.0,0.0,40.0,7.0,0.0
11489,87.0,60.0,40.0,7.0,0.0
11490,63.0,0.0,40.0,10.0,0.0
11491,61.0,0.0,40.0,10.0,0.0
11492,85.0,60.0,40.0,7.0,0.0
11493,73.0,0.0,40.0,7.0,0.0
11494,83.0,0.0,40.0,7.0,0.0
11495,71.0,0.0,40.0,7.0,0.0
11496,59.0,60.0,40.0,10.0,0.0
11497,58.0,0.0,40.0,10.0,0.0
11498,70.0,0.0,40.0,7.0,0.0
11499,82.0,60.0,40.0,7.0,0.0
11500,56.0,0.0,40.0,10.0,0.0
11501,80.0,108.0,40.0,7.0,0.0
11502,68.0,0.0,40.0,7.0,0.0
11503,78.0,0.0,90.0,7.0,0.0
11504,54.0,72.0,90.0,10.0,0.0
11505,66.0,0.0,90.0,7.0,0.0
11506,66.0,0.0,40.0,7.0,0.0
11507,54.0,108.0,40.0,10.0,0.0
11508,78.0,0.0,40.0,7.0,0.0
11509,51.0,0.0,90.0,12.0,0.0
11510,51.0,0.0,90.0,13.0,0.0
11511,84.0,0.0,90.0,0.0,0.0
11512,87.0,0.0,90.0,0.0,0.0
11513,54.0,0.0,90.0,4.0,0.0
11514,51.0,0.0,90.0,4.0,0.0
11515,60.0,0.0,90.0,11.0,0.0
11516,51.0,0.0,90.0,11.0,0.0
11517,66.0,0.0,90.0,11.0,0.0
11518,63.0,0.0,90.0,3.0,0.0
11519,66.0,0.0,90.0,3.0,0.0
11520,63.0,0.0,90.0,11.0,0.0
11521,78.0,0.0,90.0,11.0,0.0
11522,42.0,0.0,90.0,8.0,0.0
11523,42.0,0.0,90.0,6.0,0.0
11524,42.0,0.0,90.0,5.0,0.0
11525,54.0,0.0,90.0,5.0,0.0
11526,54.0,0.0,90.0,6.0,0.0
11527,75.0,0.0,90.0,1.0,0.0
11528,72.0,132.0,90.0,1.0,0.0
11529,54.0,0.0,90.0,11.0,0.0
11530,66.0,0.0,40.0,10.0,0.0
11531,90.0,60.0,40.0,7.0,0.0
11532,78.0,0.0,40.0,7.0,0.0
11533,88.0,60.0,40.0,7.0,0.0
11534,64.0,0.0,40.0,10.0,0.0
11535,76.0,0.0,40.0,7.0,0.0
11536,75.0,60.0,40.0,7.0,0.0
11537,87.0,0.0,40.0,7.0,0.0
11538,63.0,0.0,40.0,10.0,0.0
11539,73.0,0.0,40.0,7.0,0.0
11540,61.0,0.0,40.0,10.0,0.0
11541,85.0,60.0,40.0,7.0,0.0
11542,60.0,60.0,40.0,10.0,0.0
11543,72.0,0.0,40.0,7.0,0.0
11544,84.0,0.0,40.0,7.0,0.0
11545,81.0,108.0,40.0,7.0,0.0
11546,69.0,0.0,40.0,7.0,0.0
11547,57.0,0.0,40.0,10.0,0.0
11548,68.0,72.0,90.0,7.0,0.0
11549,56.0,0.0,90.0,10.0,0.0
11550,80.0,0.0,90.0,7.0,0.0
11551,68.0,0.0,40.0,7.0,0.0
11552,80.0,0.0,40.0,7.0,0.0
11553,56.0,36.0,40.0,10.0,0.0
11554,56.0,0.0,90.0,11.0,0.0
11555,52.0,0.0,90.0,13.0,0.0
11556,52.0,18.0,90.0,12.0,0.0
11557,61.0,0.0,90.0,11.0,0.0
11558,68.0,0.0,90.0,11.0,0.0
11559,40.0,30.0,20.0,10.0,0.0
11560,44.0,30.0,20.0,10.0,0.0
11561,49.0,12.0,20.0,10.0,0.0
11562,52.0,18.0,20.0,10.0,0.0
11563,56.0,15.0,15.0,7.0,0.0
11564,61.0,15.0,15.0,7.0,0.0
11565,64.0,15.0,15.0,7.0,0.0
11566,68.0,15.0,15.0,7.0,0.0
11567,73.0,15.0,15.0,7.0,0.0
11568,76.0,15.0,15.0,7.0,0.0
11569,80.0,15.0,15.0,7.0,0.0
11570,85.0,15.0,15.0,7.0,0.0
11571,92.0,0.0,40.0,7.0,0.0
11572,80.0,60.0,40.0,7.0,0.0
11573,88.0,36.0,15.0,7.0,0.0
11574,68.0,0.0,40.0,10.0,0.0
11575,78.0,0.0,40.0,7.0,0.0
11576,90.0,60.0,40.0,7.0,0.0
11577,66.0,0.0,40.0,10.0,0.0
11578,88.0,0.0,40.0,7.0,0.0
11579,76.0,60.0,40.0,7.0,0.0
11580,64.0,0.0,40.0,10.0,0.0
11581,87.0,0.0,40.0,7.0,0.0
11582,63.0,0.0,40.0,10.0,0.0
11583,75.0,60.0,40.0,7.0,0.0
11584,85.0,0.0,40.0,7.0,0.0
11585,73.0,0.0,40.0,7.0,0.0
11586,61.0,60.0,40.0,10.0,0.0
11587,84.0,24.0,40.0,7.0,0.0
11588,60.0,0.0,40.0,10.0,0.0
11589,72.0,0.0,40.0,7.0,0.0
11590,85.0,0.0,15.0,7.0,0.0
11591,73.0,15.0,15.0,7.0,0.0
11592,61.0,0.0,15.0,10.0,0.0
11593,87.0,0.0,15.0,7.0,0.0
11594,75.0,0.0,15.0,7.0,0.0
11595,63.0,15.0,15.0,10.0,0.0
11596,61.0,0.0,15.0,10.0,0.0
11597,85.0,0.0,15.0,7.0,0.0
11598,73.0,15.0,15.0,7.0,0.0
11599,63.0,15.0,15.0,10.0,0.0
11600,87.0,0.0,15.0,7.0,0.0
11601,75.0,0.0,15.0,7.0,0.0
11602,61.0,15.0,15.0,10.0,0.0
11603,85.0,0.0,15.0,7.0,0.0
11604,73.0,0.0,15.0,7.0,0.0
11605,87.0,15.0,15.0,7.0,0.0
11606,63.0,0.0,15.0,10.0,0.0
11607,75.0,0.0,15.0,7.0,0.0
11608,85.0,15.0,15.0,7.0,0.0
11609,61.0,0.0,15.0,10.0,0.0
11610,73.0,0.0,15.0,7.0,0.0
11611,63.0,0.0,15.0,10.0,0.0
11612,75.0,51.0,15.0,7.0,0.0
11613,87.0,0.0,15.0,7.0,0.0
11614,87.0,0.0,40.0,7.0,0.0
11615,63.0,0.0,40.0,10.0,0.0
11616,75.0,60.0,40.0,7.0,0.0
11617,64.0,60.0,40.0,10.0,0.0
11618,88.0,0.0,40.0,7.0,0.0
11619,76.0,0.0,40.0,7.0,0.0
11620,80.0,0.0,40.0,7.0,0.0
11621,56.0,60.0,40.0,10.0,0.0
11622,68.0,0.0,40.0,7.0,0.0
11623,58.0,0.0,40.0,10.0,0.0
11624,70.0,101.0,40.0,7.0,0.0
11625,82.0,0.0,40.0,7.0,0.0
11626,59.0,7.0,90.0,10.0,0.0
11627,83.0,0.0,90.0,7.0,0.0
11628,71.0,72.0,90.0,7.0,0.0
11629,61.0,0.0,40.0,10.0,0.0
11630,54.0,0.0,40.0,14.0,0.0
11631,73.0,0.0,40.0,7.0,0.0
11632,61.0,0.0,40.0,11.0,0.0
11633,85.0,41.0,40.0,7.0,0.0
11634,73.0,4.0,40.0,7.0,0.0
11635,85.0,25.0,210.0,7.0,0.0
11636,58.0,11.0,40.0,11.0,0.0
11637,54.0,10.0,90.0,14.0,0.0
11638,42.0,0.0,40.0,14.0,0.0
11639,54.0,15.0,30.0,10.0,0.0
11640,61.0,6.0,660.0,11.0,0.0
11641,58.0,25.0,30.0,10.0,0.0
11642,42.0,25.0,60.0,14.0,0.0
11643,58.0,0.0,660.0,11.0,0.0
11644,61.0,20.0,20.0,10.0,0.0
11645,58.0,5.0,20.0,10.0,0.0
11646,61.0,30.0,20.0,10.0,0.0
11647,58.0,30.0,20.0,10.0,0.0
11648,54.0,5.0,20.0,10.0,0.0
11649,42.0,12.0,90.0,14.0,0.0
11650,54.0,0.0,90.0,14.0,0.0
11651,58.0,30.0,20.0,10.0,0.0
11652,83.0,6.0,40.0,7.0,0.0
11653,61.0,12.0,20.0,10.0,0.0
11654,58.0,30.0,20.0,10.0,0.0
11655,82.0,6.0,40.0,7.0,0.0
11656,61.0,24.0,20.0,10.0,0.0
11657,58.0,30.0,20.0,10.0,0.0
11658,80.0,6.0,40.0,7.0,0.0
11659,54.0,24.0,20.0,10.0,0.0
11660,42.0,12.0,90.0,14.0,0.0
11661,54.0,0.0,90.0,14.0,0.0
11662,58.0,30.0,20.0,10.0,0.0
11663,61.0,12.0,20.0,10.0,0.0
11664,82.0,6.0,40.0,7.0,0.0
11665,58.0,30.0,20.0,10.0,0.0
11666,78.0,6.0,40.0,7.0,0.0
11667,61.0,24.0,20.0,10.0,0.0
11668,58.0,30.0,20.0,10.0,0.0
11669,54.0,24.0,20.0,10.0,0.0
11670,80.0,6.0,40.0,7.0,0.0
11671,42.0,12.0,90.0,14.0,0.0
11672,54.0,0.0,90.0,14.0,0.0
11673,58.0,30.0,20.0,10.0,0.0
11674,82.0,0.0,40.0,7.0,0.0
11675,61.0,12.0,20.0,10.0,0.0
11676,58.0,30.0,20.0,10.0,0.0
11677,61.0,24.0,20.0,10.0,0.0
11678,78.0,6.0,40.0,7.0,0.0
11679,58.0,30.0,20.0,10.0,0.0
11680,63.0,6.0,660.0,11.0,0.0
11681,78.0,24.0,180.0,7.0,0.0
11682,42.0,0.0,90.0,14.0,0.0
11683,54.0,18.0,90.0,14.0,0.0
11684,54.0,30.0,20.0,10.0,0.0
11685,59.0,0.0,660.0,11.0,0.0
11686,59.0,30.0,20.0,10.0,0.0
11687,87.0,6.0,180.0,7.0,0.0
11688,63.0,12.0,20.0,10.0,0.0
11689,59.0,30.0,20.0,10.0,0.0
11690,63.0,30.0,20.0,10.0,0.0
11691,59.0,6.0,20.0,10.0,0.0
11692,54.0,24.0,20.0,10.0,0.0
11693,54.0,0.0,90.0,14.0,0.0
11694,42.0,12.0,90.0,14.0,0.0
11695,59.0,30.0,20.0,10.0,0.0
11696,63.0,12.0,20.0,10.0,0.0
11697,85.0,6.0,40.0,7.0,0.0
11698,59.0,30.0,20.0,10.0,0.0
11699,63.0,24.0,20.0,10.0,0.0
11700,83.0,6.0,40.0,7.0,0.0
11701,59.0,30.0,20.0,10.0,0.0
11702,54.0,24.0,20.0,10.0,0.0
11703,54.0,12.0,90.0,14.0,0.0
11704,42.0,0.0,90.0,14.0,0.0
11705,82.0,6.0,40.0,7.0,0.0
11706,59.0,30.0,20.0,10.0,0.0
11707,63.0,12.0,20.0,10.0,0.0
11708,83.0,6.0,40.0,7.0,0.0
11709,59.0,30.0,20.0,10.0,0.0
11710,78.0,6.0,40.0,7.0,0.0
11711,63.0,24.0,20.0,10.0,0.0
11712,59.0,30.0,20.0,10.0,0.0
11713,82.0,6.0,40.0,7.0,0.0
11714,42.0,0.0,90.0,14.0,0.0
11715,54.0,12.0,90.0,14.0,0.0
11716,54.0,24.0,20.0,10.0,0.0
11717,59.0,30.0,20.0,10.0,0.0
11718,83.0,0.0,40.0,7.0,0.0
11719,63.0,12.0,20.0,10.0,0.0
11720,59.0,30.0,20.0,10.0,0.0
11721,78.0,6.0,40.0,7.0,0.0
11722,63.0,24.0,20.0,10.0,0.0
11723,59.0,30.0,20.0,10.0,0.0
11724,54.0,18.0,90.0,14.0,0.0
11725,61.0,6.0,660.0,11.0,0.0
11726,42.0,0.0,90.0,14.0,0.0
11727,64.0,0.0,660.0,11.0,0.0
11728,78.0,6.0,40.0,7.0,0.0
11729,54.0,24.0,20.0,10.0,0.0
11730,61.0,30.0,20.0,10.0,0.0
11731,64.0,12.0,20.0,10.0,0.0
11732,88.0,6.0,180.0,7.0,0.0
11733,61.0,30.0,20.0,10.0,0.0
11734,64.0,30.0,20.0,10.0,0.0
11735,61.0,30.0,20.0,10.0,0.0
11736,42.0,12.0,90.0,14.0,0.0
11737,54.0,0.0,90.0,14.0,0.0
11738,54.0,24.0,20.0,10.0,0.0
11739,61.0,30.0,20.0,10.0,0.0
11740,87.0,6.0,40.0,7.0,0.0
11741,64.0,12.0,20.0,10.0,0.0
11742,61.0,30.0,20.0,10.0,0.0
11743,85.0,6.0,40.0,7.0,0.0
11744,64.0,24.0,20.0,10.0,0.0
11745,61.0,30.0,20.0,10.0,0.0
11746,54.0,12.0,90.0,14.0,0.0
11747,84.0,6.0,40.0,7.0,0.0
11748,42.0,0.0,90.0,14.0,0.0
11749,54.0,24.0,20.0,10.0,0.0
11750,61.0,30.0,20.0,10.0,0.0
11751,85.0,6.0,40.0,7.0,0.0
11752,64.0,12.0,20.0,10.0,0.0
11753,61.0,30.0,20.0,10.0,0.0
11754,78.0,6.0,40.0,7.0,0.0
11755,64.0,24.0,20.0,10.0,0.0
11756,61.0,30.0,20.0,10.0,0.0
11757,84.0,6.0,40.0,7.0,0.0
11758,42.0,0.0,90.0,14.0,0.0
11759,54.0,24.0,20.0,10.0,0.0
11760,54.0,12.0,90.0,14.0,0.0
11761,61.0,30.0,20.0,10.0,0.0
11762,85.0,0.0,40.0,7.0,0.0
11763,64.0,12.0,20.0,10.0,0.0
11764,61.0,30.0,20.0,10.0,0.0
11765,64.0,30.0,20.0,10.0,0.0
11766,78.0,0.0,20.0,7.0,0.0
11767,61.0,30.0,20.0,10.0,0.0
11768,90.0,0.0,20.0,7.0,0.0
11769,59.0,0.0,20.0,10.0,0.0
11770,63.0,30.0,150.0,11.0,0.0
11771,59.0,0.0,150.0,11.0,0.0
11772,35.0,0.0,90.0,14.0,0.0
11773,47.0,18.0,90.0,14.0,0.0
11774,90.0,30.0,20.0,7.0,0.0
11775,63.0,0.0,20.0,10.0,0.0
11776,87.0,0.0,20.0,7.0,0.0
11777,66.0,30.0,20.0,10.0,0.0
11778,71.0,0.0,20.0,10.0,0.0
11779,83.0,12.0,20.0,7.0,0.0
11780,66.0,0.0,20.0,10.0,0.0
11781,63.0,30.0,20.0,10.0,0.0
11782,90.0,0.0,20.0,7.0,0.0
11783,87.0,0.0,20.0,7.0,0.0
11784,71.0,0.0,20.0,10.0,0.0
11785,63.0,0.0,20.0,10.0,0.0
11786,66.0,0.0,20.0,10.0,0.0
11787,83.0,30.0,20.0,7.0,0.0
11788,92.0,0.0,20.0,7.0,0.0
11789,68.0,30.0,150.0,11.0,0.0
11790,64.0,0.0,150.0,11.0,0.0
11791,59.0,30.0,20.0,10.0,0.0
11792,68.0,0.0,20.0,10.0,0.0
11793,88.0,30.0,20.0,7.0,0.0
11794,83.0,0.0,20.0,7.0,0.0
11795,71.0,30.0,20.0,10.0,0.0
11796,92.0,0.0,20.0,7.0,0.0
11797,64.0,0.0,20.0,10.0,0.0
11798,68.0,30.0,20.0,10.0,0.0
11799,71.0,0.0,20.0,10.0,0.0
11800,88.0,0.0,20.0,7.0,0.0
11801,83.0,30.0,20.0,7.0,0.0
11802,64.0,0.0,20.0,10.0,0.0
11803,68.0,0.0,20.0,10.0,0.0
11804,59.0,30.0,20.0,10.0,0.0
11805,66.0,30.0,150.0,11.0,0.0
11806,90.0,0.0,20.0,7.0,0.0
11807,63.0,0.0,150.0,11.0,0.0
11808,87.0,0.0,20.0,7.0,0.0
11809,66.0,30.0,20.0,10.0,0.0
11810,63.0,0.0,20.0,10.0,0.0
11811,71.0,30.0,20.0,10.0,0.0
11812,83.0,0.0,20.0,7.0,0.0
11813,63.0,0.0,20.0,10.0,0.0
11814,90.0,30.0,20.0,7.0,0.0
11815,66.0,0.0,20.0,10.0,0.0
11816,71.0,0.0,20.0,10.0,0.0
11817,87.0,0.0,20.0,7.0,0.0
11818,83.0,30.0,20.0,7.0,0.0
11819,66.0,0.0,20.0,10.0,0.0
11820,63.0,0.0,20.0,10.0,0.0
11821,47.0,0.0,90.0,14.0,0.0
11822,64.0,0.0,150.0,11.0,0.0
11823,61.0,24.0,150.0,11.0,0.0
11824,90.0,30.0,20.0,7.0,0.0
11825,59.0,0.0,20.0,10.0,0.0
11826,59.0,12.0,90.0,14.0,0.0
11827,88.0,0.0,20.0,7.0,0.0
11828,64.0,30.0,20.0,10.0,0.0
11829,61.0,0.0,20.0,10.0,0.0
11830,85.0,0.0,20.0,7.0,0.0
11831,70.0,12.0,20.0,10.0,0.0
11832,90.0,30.0,20.0,7.0,0.0
11833,64.0,0.0,20.0,10.0,0.0
11834,61.0,0.0,20.0,10.0,0.0
11835,70.0,0.0,20.0,10.0,0.0
11836,88.0,0.0,20.0,7.0,0.0
11837,47.0,6.0,40.0,14.0,0.0
11838,59.0,0.0,40.0,14.0,0.0
11839,64.0,30.0,20.0,10.0,0.0
11840,61.0,0.0,20.0,10.0,0.0
11841,85.0,0.0,20.0,7.0,0.0
11842,47.0,0.0,90.0,14.0,0.0
11843,35.0,18.0,90.0,14.0,0.0
11844,63.0,30.0,150.0,11.0,0.0
11845,59.0,30.0,20.0,10.0,0.0
11846,90.0,0.0,20.0,7.0,0.0
11847,59.0,0.0,150.0,11.0,0.0
11848,63.0,0.0,20.0,10.0,0.0
11849,87.0,30.0,20.0,7.0,0.0
11850,66.0,0.0,20.0,10.0,0.0
11851,71.0,0.0,20.0,10.0,0.0
11852,83.0,12.0,20.0,7.0,0.0
11853,66.0,0.0,20.0,10.0,0.0
11854,90.0,0.0,20.0,7.0,0.0
11855,63.0,30.0,20.0,10.0,0.0
11856,71.0,0.0,20.0,10.0,0.0
11857,87.0,0.0,20.0,7.0,0.0
11858,83.0,0.0,20.0,7.0,0.0
11859,63.0,0.0,20.0,10.0,0.0
11860,66.0,30.0,20.0,10.0,0.0
11861,68.0,0.0,150.0,11.0,0.0
11862,59.0,30.0,20.0,10.0,0.0
11863,92.0,0.0,20.0,7.0,0.0
11864,64.0,0.0,150.0,11.0,0.0
11865,68.0,0.0,20.0,10.0,0.0
11866,64.0,0.0,20.0,10.0,0.0
11867,88.0,30.0,20.0,7.0,0.0
11868,71.0,30.0,20.0,10.0,0.0
11869,83.0,0.0,20.0,7.0,0.0
11870,92.0,0.0,20.0,7.0,0.0
11871,64.0,0.0,20.0,10.0,0.0
11872,68.0,30.0,20.0,10.0,0.0
11873,88.0,0.0,20.0,7.0,0.0
11874,71.0,30.0,20.0,10.0,0.0
11875,64.0,0.0,20.0,10.0,0.0
11876,68.0,0.0,20.0,10.0,0.0
11877,83.0,30.0,20.0,7.0,0.0
11878,63.0,30.0,150.0,11.0,0.0
11879,66.0,0.0,150.0,11.0,0.0
11880,90.0,30.0,20.0,7.0,0.0
11881,59.0,0.0,20.0,10.0,0.0
11882,66.0,30.0,20.0,10.0,0.0
11883,63.0,0.0,20.0,10.0,0.0
11884,87.0,0.0,20.0,7.0,0.0
11885,83.0,0.0,20.0,7.0,0.0
11886,71.0,30.0,20.0,10.0,0.0
11887,63.0,0.0,20.0,10.0,0.0
11888,90.0,0.0,20.0,7.0,0.0
11889,66.0,30.0,20.0,10.0,0.0
11890,87.0,0.0,20.0,7.0,0.0
11891,71.0,0.0,20.0,10.0,0.0
11892,83.0,0.0,20.0,7.0,0.0
11893,63.0,30.0,20.0,10.0,0.0
11894,66.0,0.0,20.0,10.0,0.0
11895,59.0,0.0,90.0,14.0,0.0
11896,47.0,12.0,90.0,14.0,0.0
11897,90.0,0.0,20.0,7.0,0.0
11898,59.0,30.0,20.0,10.0,0.0
11899,61.0,24.0,150.0,11.0,0.0
11900,64.0,0.0,150.0,11.0,0.0
11901,64.0,30.0,20.0,10.0,0.0
11902,88.0,0.0,20.0,7.0,0.0
11903,61.0,0.0,20.0,10.0,0.0
11904,85.0,0.0,20.0,7.0,0.0
11905,70.0,12.0,20.0,10.0,0.0
11906,90.0,30.0,20.0,7.0,0.0
11907,61.0,0.0,20.0,10.0,0.0
11908,64.0,0.0,20.0,10.0,0.0
11909,88.0,0.0,20.0,7.0,0.0
11910,59.0,6.0,40.0,14.0,0.0
11911,47.0,0.0,40.0,14.0,0.0
11912,70.0,0.0,20.0,10.0,0.0
11913,64.0,0.0,20.0,10.0,0.0
11914,61.0,30.0,20.0,10.0,0.0
11915,85.0,0.0,20.0,7.0,0.0
11916,35.0,18.0,90.0,14.0,0.0
11917,90.0,30.0,20.0,7.0,0.0
11918,59.0,0.0,20.0,10.0,0.0
11919,63.0,0.0,150.0,11.0,0.0
11920,59.0,30.0,150.0,11.0,0.0
11921,47.0,0.0,150.0,12.0,0.0
11922,63.0,0.0,20.0,10.0,0.0
11923,87.0,30.0,20.0,7.0,0.0
11924,66.0,0.0,20.0,10.0,0.0
11925,71.0,12.0,20.0,10.0,0.0
11926,83.0,0.0,20.0,7.0,0.0
11927,66.0,30.0,20.0,10.0,0.0
11928,90.0,0.0,20.0,7.0,0.0
11929,63.0,0.0,20.0,10.0,0.0
11930,87.0,0.0,20.0,7.0,0.0
11931,71.0,0.0,20.0,10.0,0.0
11932,83.0,30.0,20.0,7.0,0.0
11933,63.0,0.0,20.0,10.0,0.0
11934,66.0,0.0,20.0,10.0,0.0
11935,92.0,0.0,20.0,7.0,0.0
11936,52.0,0.0,150.0,12.0,0.0
11937,64.0,30.0,150.0,11.0,0.0
11938,68.0,0.0,150.0,11.0,0.0
11939,59.0,30.0,20.0,10.0,0.0
11940,88.0,0.0,20.0,7.0,0.0
11941,68.0,30.0,20.0,10.0,0.0
11942,64.0,0.0,20.0,10.0,0.0
11943,83.0,30.0,20.0,7.0,0.0
11944,59.0,0.0,20.0,10.0,0.0
11945,68.0,0.0,20.0,10.0,0.0
11946,64.0,0.0,20.0,10.0,0.0
11947,92.0,30.0,20.0,7.0,0.0
11948,59.0,0.0,20.0,10.0,0.0
11949,88.0,0.0,20.0,7.0,0.0
11950,83.0,30.0,20.0,7.0,0.0
11951,68.0,0.0,20.0,10.0,0.0
11952,64.0,0.0,20.0,10.0,0.0
11953,47.0,0.0,150.0,12.0,0.0
11954,90.0,30.0,20.0,7.0,0.0
11955,66.0,0.0,150.0,11.0,0.0
11956,63.0,0.0,150.0,11.0,0.0
11957,59.0,0.0,20.0,10.0,0.0
11958,63.0,0.0,20.0,10.0,0.0
11959,66.0,30.0,20.0,10.0,0.0
11960,87.0,0.0,20.0,7.0,0.0
11961,71.0,0.0,20.0,10.0,0.0
11962,83.0,30.0,20.0,7.0,0.0
11963,63.0,0.0,20.0,10.0,0.0
11964,66.0,30.0,20.0,10.0,0.0
11965,90.0,0.0,20.0,7.0,0.0
11966,87.0,30.0,20.0,7.0,0.0
11967,71.0,0.0,20.0,10.0,0.0
11968,63.0,0.0,20.0,10.0,0.0
11969,66.0,0.0,20.0,10.0,0.0
11970,83.0,30.0,20.0,7.0,0.0
11971,64.0,0.0,150.0,11.0,0.0
11972,68.0,0.0,150.0,11.0,0.0
11973,92.0,30.0,20.0,7.0,0.0
11974,52.0,0.0,150.0,12.0,0.0
11975,59.0,0.0,20.0,10.0,0.0
11976,88.0,0.0,20.0,7.0,0.0
11977,64.0,30.0,20.0,10.0,0.0
11978,68.0,0.0,20.0,10.0,0.0
11979,59.0,0.0,20.0,10.0,0.0
11980,83.0,24.0,20.0,7.0,0.0
11981,64.0,0.0,20.0,10.0,0.0
11982,68.0,0.0,20.0,10.0,0.0
11983,92.0,30.0,20.0,7.0,0.0
11984,59.0,0.0,20.0,10.0,0.0
11985,88.0,30.0,20.0,7.0,0.0
11986,64.0,30.0,20.0,10.0,0.0
11987,68.0,0.0,20.0,10.0,0.0
11988,83.0,0.0,20.0,7.0,0.0
11989,90.0,30.0,20.0,7.0,0.0
11990,47.0,0.0,90.0,12.0,0.0
11991,66.0,0.0,90.0,11.0,0.0
11992,59.0,18.0,90.0,11.0,0.0
11993,59.0,0.0,20.0,10.0,0.0
11994,63.0,0.0,90.0,11.0,0.0
11995,87.0,30.0,20.0,7.0,0.0
11996,63.0,0.0,20.0,10.0,0.0
11997,83.0,12.0,20.0,7.0,0.0
11998,66.0,0.0,20.0,10.0,0.0
11999,59.0,0.0,20.0,10.0,0.0
12000,92.0,30.0,20.0,7.0,0.0
12001,52.0,0.0,40.0,12.0,0.0
12002,59.0,6.0,40.0,11.0,0.0
12003,68.0,0.0,40.0,11.0,0.0
12004,64.0,0.0,20.0,10.0,0.0
12005,64.0,0.0,40.0,11.0,0.0
12006,88.0,24.0,20.0,7.0,0.0
12007,68.0,0.0,20.0,10.0,0.0
12008,83.0,30.0,20.0,7.0,0.0
12009,59.0,30.0,20.0,10.0,0.0
12010,59.0,0.0,90.0,11.0,0.0
12011,90.0,0.0,20.0,7.0,0.0
12012,66.0,18.0,90.0,11.0,0.0
12013,63.0,0.0,90.0,11.0,0.0
12014,47.0,0.0,90.0,12.0,0.0
12015,63.0,0.0,20.0,10.0,0.0
12016,87.0,30.0,20.0,7.0,0.0
12017,83.0,0.0,20.0,7.0,0.0
12018,66.0,12.0,20.0,10.0,0.0
12019,92.0,0.0,20.0,7.0,0.0
12020,59.0,30.0,20.0,10.0,0.0
12021,64.0,24.0,20.0,10.0,0.0
12022,52.0,6.0,40.0,12.0,0.0
12023,64.0,0.0,40.0,11.0,0.0
12024,59.0,0.0,40.0,11.0,0.0
12025,68.0,0.0,40.0,11.0,0.0
12026,88.0,0.0,20.0,7.0,0.0
12027,83.0,30.0,20.0,7.0,0.0
12028,68.0,0.0,20.0,10.0,0.0
12029,63.0,18.0,90.0,11.0,0.0
12030,90.0,0.0,20.0,7.0,0.0
12031,59.0,30.0,20.0,10.0,0.0
12032,47.0,0.0,90.0,12.0,0.0
12033,66.0,0.0,90.0,11.0,0.0
12034,59.0,0.0,90.0,11.0,0.0
12035,87.0,0.0,20.0,7.0,0.0
12036,63.0,30.0,20.0,10.0,0.0
12037,66.0,0.0,20.0,10.0,0.0
12038,83.0,12.0,20.0,7.0,0.0
12039,59.0,30.0,20.0,10.0,0.0
12040,92.0,0.0,20.0,7.0,0.0
12041,59.0,0.0,40.0,11.0,0.0
12042,52.0,0.0,40.0,12.0,0.0
12043,68.0,0.0,40.0,11.0,0.0
12044,64.0,0.0,20.0,10.0,0.0
12045,88.0,24.0,20.0,7.0,0.0
12046,64.0,6.0,40.0,11.0,0.0
12047,68.0,0.0,20.0,10.0,0.0
12048,83.0,30.0,20.0,7.0,0.0
12049,47.0,0.0,90.0,12.0,0.0
12050,59.0,0.0,90.0,11.0,0.0
12051,63.0,0.0,90.0,11.0,0.0
12052,47.0,0.0,90.0,13.0,0.0
12053,90.0,30.0,20.0,7.0,0.0
12054,59.0,0.0,20.0,10.0,0.0
12055,66.0,18.0,90.0,11.0,0.0
12056,87.0,30.0,20.0,7.0,0.0
12057,63.0,0.0,20.0,10.0,0.0
12058,66.0,12.0,20.0,10.0,0.0
12059,83.0,0.0,20.0,7.0,0.0
12060,92.0,0.0,20.0,7.0,0.0
12061,59.0,30.0,20.0,10.0,0.0
12062,64.0,0.0,40.0,11.0,0.0
12063,88.0,0.0,20.0,7.0,0.0
12064,52.0,0.0,40.0,12.0,0.0
12065,64.0,24.0,20.0,10.0,0.0
12066,52.0,0.0,40.0,13.0,0.0
12067,68.0,0.0,40.0,11.0,0.0
12068,59.0,6.0,40.0,11.0,0.0
12069,83.0,0.0,20.0,7.0,0.0
12070,68.0,30.0,20.0,10.0,0.0
12071,69.0,24.0,20.0,7.0,0.0
12072,47.0,0.0,90.0,13.0,0.0
12073,69.0,6.0,40.0,10.0,0.0
12074,47.0,0.0,90.0,12.0,0.0
12075,69.0,0.0,90.0,11.0,0.0
12076,59.0,12.0,90.0,11.0,0.0
12077,63.0,0.0,90.0,11.0,0.0
12078,66.0,0.0,90.0,11.0,0.0
12079,81.0,30.0,20.0,7.0,0.0
12080,66.0,6.0,40.0,10.0,0.0
12081,66.0,12.0,20.0,7.0,0.0
12082,78.0,30.0,20.0,7.0,0.0
12083,63.0,6.0,40.0,10.0,0.0
12084,63.0,24.0,20.0,7.0,0.0
12085,75.0,30.0,20.0,7.0,0.0
12086,71.0,24.0,20.0,7.0,0.0
12087,59.0,6.0,40.0,10.0,0.0
12088,83.0,30.0,20.0,7.0,0.0
12089,57.0,6.0,40.0,10.0,0.0
12090,69.0,24.0,20.0,7.0,0.0
12091,81.0,30.0,20.0,7.0,0.0
12092,66.0,24.0,20.0,7.0,0.0
12093,54.0,6.0,40.0,10.0,0.0
12094,78.0,30.0,20.0,7.0,0.0
12095,63.0,24.0,20.0,7.0,0.0
12096,51.0,6.0,40.0,10.0,0.0
12097,75.0,30.0,20.0,7.0,0.0
12098,59.0,24.0,20.0,7.0,0.0
12099,47.0,6.0,40.0,10.0,0.0
12100,71.0,30.0,20.0,7.0,0.0
12101,45.0,6.0,40.0,10.0,0.0
12102,57.0,24.0,20.0,7.0,0.0
12103,69.0,30.0,20.0,7.0,0.0
12104,54.0,24.0,20.0,7.0,0.0
12105,42.0,6.0,40.0,10.0,0.0
12106,66.0,30.0,20.0,7.0,0.0
12107,51.0,24.0,20.0,7.0,0.0
12108,39.0,6.0,40.0,10.0,0.0
12109,63.0,30.0,20.0,7.0,0.0
12110,47.0,24.0,20.0,7.0,0.0
12111,35.0,6.0,40.0,10.0,0.0
12112,59.0,30.0,20.0,7.0,0.0
12113,51.0,24.0,20.0,7.0,0.0
12114,39.0,6.0,40.0,10.0,0.0
12115,63.0,30.0,20.0,7.0,0.0
12116,42.0,6.0,40.0,10.0,0.0
12117,54.0,24.0,20.0,7.0,0.0
12118,66.0,30.0,20.0,7.0,0.0
12119,45.0,6.0,40.0,10.0,0.0
12120,57.0,24.0,20.0,7.0,0.0
12121,69.0,30.0,20.0,7.0,0.0
12122,59.0,24.0,20.0,7.0,0.0
12123,47.0,6.0,40.0,10.0,0.0
12124,71.0,30.0,20.0,7.0,0.0
12125,51.0,6.0,40.0,10.0,0.0
12126,63.0,24.0,20.0,7.0,0.0
12127,75.0,30.0,20.0,7.0,0.0
12128,54.0,6.0,40.0,10.0,0.0
12129,66.0,24.0,20.0,7.0,0.0
12130,78.0,30.0,20.0,7.0,0.0
12131,69.0,24.0,20.0,7.0,0.0
12132,57.0,6.0,40.0,10.0,0.0
12133,81.0,30.0,20.0,7.0,0.0
12134,71.0,24.0,20.0,7.0,0.0
12135,59.0,6.0,40.0,10.0,0.0
12136,83.0,30.0,20.0,7.0,0.0
12137,75.0,24.0,20.0,7.0,0.0
12138,63.0,6.0,40.0,10.0,0.0
12139,87.0,30.0,20.0,7.0,0.0
12140,66.0,6.0,40.0,10.0,0.0
12141,78.0,24.0,20.0,7.0,0.0
12142,90.0,30.0,20.0,7.0,0.0
12143,79.0,24.0,20.0,7.0,0.0
12144,67.0,6.0,40.0,10.0,0.0
12145,91.0,30.0,20.0,7.0,0.0
12146,80.0,24.0,20.0,7.0,0.0
12147,68.0,6.0,40.0,10.0,0.0
12148,92.0,30.0,20.0,7.0,0.0
12149,81.0,24.0,20.0,7.0,0.0
12150,69.0,6.0,40.0,10.0,0.0
12151,93.0,30.0,20.0,7.0,0.0
12152,57.0,6.0,40.0,10.0,0.0
12153,69.0,24.0,20.0,7.0,0.0
12154,81.0,30.0,20.0,7.0,0.0
12155,68.0,24.0,20.0,7.0,0.0
12156,56.0,6.0,40.0,10.0,0.0
12157,80.0,30.0,20.0,7.0,0.0
12158,81.0,24.0,20.0,7.0,0.0
12159,69.0,6.0,40.0,10.0,0.0
12160,93.0,30.0,20.0,7.0,0.0
12161,57.0,6.0,40.0,10.0,0.0
12162,69.0,24.0,20.0,7.0,0.0
12163,81.0,30.0,20.0,7.0,0.0
12164,56.0,6.0,40.0,10.0,0.0
12165,68.0,24.0,20.0,7.0,0.0
12166,80.0,30.0,20.0,7.0,0.0
12167,69.0,6.0,40.0,10.0,0.0
12168,81.0,24.0,20.0,7.0,0.0
12169,93.0,30.0,20.0,7.0,0.0
12170,57.0,6.0,40.0,10.0,0.0
12171,69.0,24.0,20.0,7.0,0.0
12172,81.0,30.0,20.0,7.0,0.0
12173,68.0,24.0,20.0,7.0,0.0
12174,56.0,6.0,40.0,10.0,0.0
12175,80.0,30.0,20.0,7.0,0.0
12176,81.0,24.0,20.0,7.0,0.0
12177,69.0,6.0,40.0,10.0,0.0
12178,93.0,30.0,20.0,7.0,0.0
12179,57.0,6.0,40.0,10.0,0.0
12180,69.0,24.0,20.0,7.0,0.0
12181,81.0,30.0,20.0,7.0,0.0
12182,68.0,24.0,20.0,7.0,0.0
12183,56.0,6.0,40.0,10.0,0.0
12184,80.0,30.0,20.0,7.0,0.0
12185,67.0,24.0,20.0,7.0,0.0
12186,55.0,6.0,40.0,10.0,0.0
12187,79.0,30.0,20.0,7.0,0.0
12188,54.0,6.0,40.0,10.0,0.0
12189,66.0,24.0,20.0,7.0,0.0
12190,78.0,30.0,20.0,7.0,0.0
12191,53.0,6.0,40.0,10.0,0.0
12192,65.0,24.0,20.0,7.0,0.0
12193,77.0,30.0,20.0,7.0,0.0
12194,64.0,24.0,20.0,7.0,0.0
12195,52.0,6.0,40.0,10.0,0.0
12196,76.0,30.0,20.0,7.0,0.0
12197,51.0,6.0,40.0,10.0,0.0
12198,63.0,24.0,20.0,7.0,0.0
12199,75.0,30.0,20.0,7.0,0.0
12200,62.0,24.0,20.0,7.0,0.0
12201,50.0,6.0,40.0,10.0,0.0
12202,74.0,30.0,20.0,7.0,0.0
12203,49.0,6.0,40.0,10.0,0.0
12204,61.0,24.0,20.0,7.0,0.0
12205,73.0,30.0,20.0,7.0,0.0
12206,60.0,24.0,20.0,7.0,0.0
12207,48.0,6.0,40.0,10.0,0.0
12208,72.0,30.0,20.0,7.0,0.0
12209,47.0,6.0,40.0,10.0,0.0
12210,59.0,24.0,20.0,7.0,0.0
12211,71.0,30.0,20.0,7.0,0.0
12212,46.0,6.0,40.0,10.0,0.0
12213,58.0,24.0,20.0,7.0,0.0
12214,70.0,30.0,20.0,7.0,0.0
12215,59.0,24.0,20.0,7.0,0.0
12216,47.0,6.0,40.0,10.0,0.0
12217,71.0,30.0,20.0,7.0,0.0
12218,47.0,6.0,40.0,10.0,0.0
12219,59.0,24.0,20.0,7.0,0.0
12220,71.0,54.0,20.0,7.0,0.0
12221,40.0,60.0,40.0,10.0,0.0
12222,64.0,0.0,40.0,7.0,0.0
12223,68.0,0.0,40.0,7.0,0.0
12224,71.0,0.0,40.0,7.0,0.0
12225,59.0,60.0,40.0,10.0,0.0
12226,68.0,0.0,40.0,7.0,0.0
12227,76.0,0.0,40.0,7.0,0.0
12228,64.0,0.0,40.0,7.0,0.0
12229,56.0,0.0,40.0,10.0,0.0
12230,47.0,0.0,40.0,10.0,0.0
12231,52.0,0.0,40.0,10.0,0.0
12232,71.0,60.0,40.0,7.0,0.0
12233,76.0,0.0,40.0,7.0,0.0
12234,68.0,0.0,40.0,7.0,0.0
12235,40.0,60.0,40.0,10.0,0.0
12236,68.0,0.0,40.0,7.0,0.0
12237,71.0,0.0,40.0,7.0,0.0
12238,80.0,0.0,40.0,7.0,0.0
12239,59.0,36.0,40.0,10.0,0.0
12240,71.0,54.0,60.0,7.0,0.0
12241,76.0,0.0,60.0,7.0,0.0
12242,56.0,6.0,40.0,10.0,0.0
12243,47.0,0.0,40.0,10.0,0.0
12244,80.0,24.0,20.0,7.0,0.0
12245,83.0,0.0,20.0,7.0,0.0
12246,76.0,0.0,60.0,7.0,0.0
12247,83.0,0.0,60.0,7.0,0.0
12248,80.0,54.0,60.0,7.0,0.0
12249,40.0,6.0,40.0,10.0,0.0
12250,88.0,0.0,20.0,7.0,0.0
12251,59.0,60.0,40.0,10.0,0.0
12252,83.0,12.0,210.0,7.0,0.0
12253,76.0,0.0,210.0,7.0,0.0
12254,88.0,0.0,210.0,7.0,0.0
12255,80.0,0.0,210.0,7.0,0.0
12256,56.0,60.0,40.0,10.0,0.0
12257,47.0,0.0,40.0,10.0,0.0
12258,40.0,48.0,40.0,10.0,0.0
12259,59.0,36.0,40.0,10.0,0.0
12260,56.0,0.0,20.0,11.0,0.0
12261,52.0,0.0,40.0,13.0,0.0
12262,44.0,0.0,20.0,11.0,0.0
12263,76.0,0.0,20.0,11.0,0.0
12264,76.0,0.0,20.0,0.0,0.0
12265,52.0,6.0,40.0,12.0,0.0
12266,59.0,0.0,40.0,5.0,0.0
12267,64.0,24.0,20.0,3.0,0.0
12268,64.0,0.0,20.0,0.0,0.0
12269,52.0,0.0,20.0,4.0,0.0
12270,71.0,0.0,40.0,1.0,0.0
12271,68.0,0.0,40.0,1.0,0.0
12272,47.0,0.0,40.0,10.0,0.0
12273,56.0,0.0,40.0,10.0,0.0
12274,52.0,0.0,40.0,10.0,0.0
12275,47.0,0.0,40.0,5.0,0.0
12276,68.0,0.0,20.0,3.0,0.0
12277,68.0,0.0,20.0,0.0,0.0
12278,47.0,0.0,20.0,11.0,0.0
12279,80.0,0.0,20.0,0.0,0.0
12280,52.0,30.0,20.0,11.0,0.0
12281,80.0,0.0,20.0,11.0,0.0
12282,56.0,0.0,20.0,4.0,0.0
12283,57.0,24.0,20.0,11.0,0.0
12284,66.0,0.0,40.0,3.0,0.0
12285,51.0,6.0,40.0,12.0,0.0
12286,51.0,0.0,40.0,13.0,0.0
12287,78.0,0.0,40.0,11.0,0.0
12288,59.0,0.0,90.0,5.0,0.0
12289,47.0,18.0,90.0,5.0,0.0
12290,54.0,0.0,40.0,4.0,0.0
12291,47.0,0.0,90.0,6.0,0.0
12292,59.0,0.0,90.0,6.0,0.0
12293,47.0,0.0,90.0,8.0,0.0
12294,71.0,0.0,40.0,1.0,0.0
12295,66.0,0.0,40.0,1.0,0.0
12296,45.0,0.0,20.0,11.0,0.0
12297,78.0,0.0,40.0,0.0,0.0
12298,66.0,0.0,40.0,0.0,0.0
12299,47.0,30.0,20.0,11.0,0.0
12300,54.0,0.0,20.0,11.0,0.0
12301,57.0,0.0,20.0,11.0,0.0
12302,45.0,12.0,20.0,11.0,0.0
12303,54.0,30.0,20.0,11.0,0.0
12304,47.0,0.0,20.0,11.0,0.0
12305,83.0,0.0,40.0,0.0,0.0
12306,47.0,6.0,40.0,5.0,0.0
12307,59.0,0.0,40.0,5.0,0.0
12308,51.0,0.0,20.0,4.0,0.0
12309,47.0,0.0,40.0,13.0,0.0
12310,47.0,0.0,40.0,12.0,0.0
12311,57.0,24.0,20.0,11.0,0.0
12312,75.0,0.0,20.0,11.0,0.0
12313,45.0,0.0,20.0,11.0,0.0
12314,75.0,0.0,20.0,1.0,0.0
12315,78.0,0.0,40.0,0.0,0.0
12316,62.0,0.0,20.0,3.0,0.0
12317,66.0,0.0,20.0,3.0,0.0
12318,78.0,0.0,20.0,11.0,0.0
12319,54.0,0.0,20.0,11.0,0.0
12320,78.0,30.0,20.0,1.0,0.0
12321,54.0,0.0,20.0,4.0,0.0
12322,47.0,0.0,20.0,11.0,0.0
12323,47.0,0.0,90.0,5.0,0.0
12324,59.0,16.0,90.0,5.0,0.0
12325,76.0,0.0,40.0,1.0,0.0
12326,52.0,0.0,40.0,12.0,0.0
12327,64.0,0.0,40.0,3.0,0.0
12328,52.0,0.0,40.0,13.0,0.0
12329,52.0,0.0,40.0,4.0,0.0
12330,80.0,0.0,40.0,0.0,0.0
12331,42.0,24.0,20.0,11.0,0.0
12332,47.0,0.0,90.0,8.0,0.0
12333,56.0,0.0,20.0,11.0,0.0
12334,76.0,6.0,40.0,11.0,0.0
12335,47.0,0.0,120.0,6.0,0.0
12336,59.0,2.0,120.0,6.0,0.0
12337,83.0,0.0,40.0,0.0,0.0
12338,52.0,0.0,20.0,11.0,0.0
12339,47.0,30.0,20.0,11.0,0.0
12340,56.0,0.0,20.0,11.0,0.0
12341,42.0,12.0,20.0,11.0,0.0
12342,52.0,0.0,20.0,11.0,0.0
12343,47.0,30.0,20.0,11.0,0.0
12344,56.0,0.0,40.0,13.0,0.0
12345,76.0,0.0,40.0,1.0,0.0
12346,71.0,0.0,40.0,11.0,0.0
12347,68.0,0.0,40.0,3.0,0.0
12348,71.0,0.0,40.0,0.0,0.0
12349,83.0,0.0,40.0,0.0,0.0
12350,80.0,0.0,40.0,1.0,0.0
12351,56.0,0.0,20.0,11.0,0.0
12352,59.0,0.0,40.0,5.0,0.0
12353,56.0,0.0,40.0,12.0,0.0
12354,47.0,0.0,40.0,5.0,0.0
12355,42.0,24.0,20.0,11.0,0.0
12356,59.0,6.0,40.0,4.0,0.0
12357,56.0,0.0,40.0,4.0,0.0
12358,64.0,0.0,40.0,3.0,0.0
12359,47.0,18.0,20.0,11.0,0.0
12360,52.0,0.0,20.0,11.0,0.0
12361,47.0,6.0,90.0,5.0,0.0
12362,71.0,0.0,90.0,0.0,0.0
12363,83.0,0.0,15.0,0.0,0.0
12364,47.0,0.0,90.0,6.0,0.0
12365,59.0,0.0,90.0,6.0,0.0
12366,54.0,0.0,90.0,11.0,0.0
12367,59.0,0.0,90.0,5.0,0.0
12368,47.0,0.0,90.0,8.0,0.0
12369,78.0,0.0,90.0,1.0,0.0
12370,47.0,0.0,90.0,12.0,0.0
12371,75.0,0.0,90.0,1.0,0.0
12372,71.0,0.0,15.0,11.0,0.0
12373,47.0,0.0,90.0,4.0,0.0
12374,47.0,0.0,90.0,13.0,0.0
12375,63.0,0.0,90.0,3.0,0.0
12376,66.0,0.0,90.0,3.0,0.0
12377,51.0,0.0,90.0,11.0,0.0
12378,59.0,15.0,15.0,4.0,0.0
12379,61.0,0.0,15.0,4.0,0.0
12380,85.0,0.0,15.0,0.0,0.0
12381,73.0,15.0,15.0,11.0,0.0
12382,59.0,0.0,15.0,4.0,0.0
12383,83.0,0.0,15.0,0.0,0.0
12384,71.0,15.0,15.0,11.0,0.0
12385,85.0,15.0,15.0,0.0,0.0
12386,73.0,0.0,15.0,11.0,0.0
12387,61.0,0.0,15.0,4.0,0.0
12388,83.0,0.0,15.0,0.0,0.0
12389,71.0,0.0,15.0,11.0,0.0
12390,59.0,15.0,15.0,4.0,0.0
12391,73.0,0.0,15.0,11.0,0.0
12392,85.0,0.0,15.0,0.0,0.0
12393,61.0,9.0,15.0,4.0,0.0
12394,71.0,0.0,15.0,11.0,0.0
12395,83.0,0.0,15.0,0.0,0.0
12396,59.0,15.0,15.0,4.0,0.0
12397,73.0,27.0,15.0,11.0,0.0
12398,85.0,0.0,15.0,0.0,0.0
12399,61.0,0.0,15.0,4.0,0.0
12400,59.0,30.0,20.0,4.0,0.0
12401,83.0,0.0,20.0,0.0,0.0
12402,71.0,0.0,20.0,11.0,0.0
12403,82.0,0.0,20.0,0.0,0.0
12404,58.0,102.0,20.0,4.0,0.0
12405,70.0,0.0,20.0,11.0,0.0
12406,71.0,0.0,90.0,11.0,0.0
12407,83.0,72.0,90.0,0.0,0.0
12408,59.0,0.0,90.0,4.0,0.0
12409,71.0,60.0,40.0,7.0,0.0
12410,68.0,60.0,40.0,7.0,0.0
12411,40.0,0.0,40.0,10.0,0.0
12412,52.0,0.0,40.0,10.0,0.0
12413,64.0,0.0,40.0,7.0,0.0
12414,71.0,0.0,40.0,7.0,0.0
12415,59.0,60.0,40.0,10.0,0.0
12416,76.0,0.0,40.0,7.0,0.0
12417,64.0,0.0,40.0,7.0,0.0
12418,68.0,0.0,40.0,7.0,0.0
12419,56.0,0.0,40.0,10.0,0.0
12420,76.0,0.0,40.0,7.0,0.0
12421,71.0,0.0,40.0,7.0,0.0
12422,68.0,60.0,40.0,7.0,0.0
12423,52.0,0.0,40.0,10.0,0.0
12424,47.0,0.0,40.0,10.0,0.0
12425,40.0,0.0,40.0,10.0,0.0
12426,68.0,60.0,40.0,7.0,0.0
12427,80.0,0.0,40.0,7.0,0.0
12428,71.0,0.0,40.0,7.0,0.0
12429,59.0,36.0,40.0,10.0,0.0
12430,76.0,0.0,60.0,7.0,0.0
12431,80.0,24.0,20.0,7.0,0.0
12432,47.0,6.0,40.0,10.0,0.0
12433,56.0,0.0,40.0,10.0,0.0
12434,71.0,0.0,60.0,7.0,0.0
12435,83.0,54.0,20.0,7.0,0.0
12436,40.0,6.0,40.0,10.0,0.0
12437,80.0,0.0,60.0,7.0,0.0
12438,76.0,0.0,60.0,7.0,0.0
12439,83.0,0.0,60.0,7.0,0.0
12440,88.0,54.0,20.0,7.0,0.0
12441,83.0,0.0,210.0,7.0,0.0
12442,76.0,12.0,210.0,7.0,0.0
12443,59.0,60.0,40.0,10.0,0.0
12444,80.0,0.0,210.0,7.0,0.0
12445,88.0,0.0,210.0,7.0,0.0
12446,47.0,60.0,40.0,10.0,0.0
12447,56.0,0.0,40.0,10.0,0.0
12448,40.0,48.0,40.0,10.0,0.0
12449,59.0,36.0,40.0,10.0,0.0
12450,56.0,0.0,40.0,10.0,0.0
12451,76.0,0.0,20.0,0.0,0.0
12452,47.0,0.0,40.0,10.0,0.0
12453,76.0,0.0,20.0,11.0,0.0
12454,64.0,0.0,20.0,0.0,0.0
12455,44.0,0.0,20.0,11.0,0.0
12456,52.0,0.0,40.0,12.0,0.0
12457,47.0,0.0,40.0,5.0,0.0
12458,59.0,0.0,40.0,5.0,0.0
12459,52.0,0.0,20.0,4.0,0.0
12460,56.0,0.0,20.0,11.0,0.0
12461,52.0,0.0,40.0,13.0,0.0
12462,71.0,0.0,40.0,1.0,0.0
12463,68.0,0.0,40.0,1.0,0.0
12464,64.0,24.0,20.0,3.0,0.0
12465,52.0,6.0,40.0,10.0,0.0
12466,80.0,0.0,20.0,11.0,0.0
12467,80.0,0.0,20.0,0.0,0.0
12468,52.0,0.0,20.0,11.0,0.0
12469,47.0,0.0,20.0,11.0,0.0
12470,56.0,0.0,20.0,4.0,0.0
12471,68.0,0.0,20.0,0.0,0.0
12472,68.0,30.0,20.0,3.0,0.0
12473,45.0,24.0,20.0,11.0,0.0
12474,51.0,0.0,40.0,13.0,0.0
12475,57.0,0.0,20.0,11.0,0.0
12476,66.0,0.0,40.0,0.0,0.0
12477,47.0,0.0,90.0,8.0,0.0
12478,51.0,0.0,40.0,12.0,0.0
12479,59.0,18.0,90.0,6.0,0.0
12480,47.0,0.0,90.0,6.0,0.0
12481,66.0,0.0,40.0,1.0,0.0
12482,78.0,0.0,40.0,0.0,0.0
12483,71.0,6.0,40.0,1.0,0.0
12484,66.0,0.0,40.0,3.0,0.0
12485,59.0,0.0,90.0,5.0,0.0
12486,47.0,0.0,90.0,5.0,0.0
12487,54.0,0.0,40.0,4.0,0.0
12488,78.0,0.0,40.0,11.0,0.0
12489,47.0,0.0,20.0,11.0,0.0
12490,54.0,30.0,20.0,11.0,0.0
12491,45.0,0.0,20.0,11.0,0.0
12492,57.0,12.0,20.0,11.0,0.0
12493,47.0,30.0,20.0,11.0,0.0
12494,54.0,0.0,20.0,11.0,0.0
12495,75.0,0.0,20.0,1.0,0.0
12496,78.0,0.0,40.0,0.0,0.0
12497,75.0,0.0,20.0,11.0,0.0
12498,47.0,0.0,40.0,5.0,0.0
12499,59.0,0.0,40.0,5.0,0.0
12500,45.0,24.0,20.0,11.0,0.0
12501,83.0,0.0,40.0,0.0,0.0
12502,47.0,6.0,40.0,12.0,0.0
12503,62.0,0.0,20.0,3.0,0.0
12504,57.0,0.0,20.0,11.0,0.0
12505,51.0,0.0,20.0,4.0,0.0
12506,47.0,0.0,40.0,13.0,0.0
12507,54.0,0.0,20.0,4.0,0.0
12508,78.0,0.0,20.0,11.0,0.0
12509,47.0,0.0,20.0,11.0,0.0
12510,78.0,30.0,20.0,1.0,0.0
12511,54.0,0.0,20.0,11.0,0.0
12512,66.0,0.0,20.0,3.0,0.0
12513,56.0,24.0,20.0,11.0,0.0
12514,47.0,16.0,90.0,5.0,0.0
12515,59.0,0.0,90.0,5.0,0.0
12516,59.0,2.0,120.0,6.0,0.0
12517,47.0,0.0,120.0,6.0,0.0
12518,52.0,0.0,40.0,12.0,0.0
12519,47.0,0.0,90.0,8.0,0.0
12520,76.0,0.0,40.0,1.0,0.0
12521,52.0,0.0,40.0,13.0,0.0
12522,80.0,0.0,40.0,0.0,0.0
12523,83.0,0.0,40.0,0.0,0.0
12524,52.0,0.0,40.0,4.0,0.0
12525,42.0,0.0,20.0,11.0,0.0
12526,64.0,0.0,40.0,3.0,0.0
12527,76.0,6.0,40.0,11.0,0.0
12528,47.0,30.0,20.0,11.0,0.0
12529,52.0,0.0,20.0,11.0,0.0
12530,56.0,12.0,20.0,11.0,0.0
12531,42.0,0.0,20.0,11.0,0.0
12532,52.0,0.0,20.0,11.0,0.0
12533,47.0,30.0,20.0,11.0,0.0
12534,42.0,0.0,20.0,11.0,0.0
12535,76.0,0.0,40.0,1.0,0.0
12536,56.0,6.0,40.0,4.0,0.0
12537,71.0,0.0,40.0,11.0,0.0
12538,59.0,0.0,40.0,5.0,0.0
12539,47.0,0.0,40.0,5.0,0.0
12540,56.0,0.0,40.0,12.0,0.0
12541,56.0,24.0,20.0,11.0,0.0
12542,56.0,0.0,40.0,13.0,0.0
12543,59.0,0.0,40.0,4.0,0.0
12544,68.0,0.0,40.0,3.0,0.0
12545,64.0,0.0,40.0,3.0,0.0
12546,80.0,0.0,40.0,1.0,0.0
12547,71.0,0.0,40.0,0.0,0.0
12548,83.0,0.0,40.0,0.0,0.0
12549,52.0,0.0,20.0,11.0,0.0
12550,47.0,18.0,20.0,11.0,0.0
12551,47.0,0.0,90.0,8.0,0.0
12552,47.0,0.0,90.0,6.0,0.0
12553,63.0,0.0,90.0,3.0,0.0
12554,66.0,6.0,90.0,3.0,0.0
12555,78.0,0.0,90.0,1.0,0.0
12556,59.0,0.0,90.0,6.0,0.0
12557,47.0,0.0,90.0,12.0,0.0
12558,51.0,0.0,90.0,11.0,0.0
12559,47.0,0.0,90.0,5.0,0.0
12560,59.0,0.0,90.0,5.0,0.0
12561,71.0,0.0,90.0,0.0,0.0
12562,47.0,0.0,90.0,13.0,0.0
12563,75.0,0.0,90.0,1.0,0.0
12564,83.0,0.0,15.0,0.0,0.0
12565,71.0,0.0,15.0,11.0,0.0
12566,54.0,0.0,90.0,11.0,0.0
12567,59.0,15.0,15.0,4.0,0.0
12568,47.0,0.0,90.0,4.0,0.0
12569,73.0,0.0,15.0,11.0,0.0
12570,85.0,15.0,15.0,0.0,0.0
12571,61.0,0.0,15.0,4.0,0.0
12572,71.0,15.0,15.0,11.0,0.0
12573,83.0,0.0,15.0,0.0,0.0
12574,59.0,0.0,15.0,4.0,0.0
12575,85.0,0.0,15.0,0.0,0.0
12576,61.0,0.0,15.0,4.0,0.0
12577,73.0,15.0,15.0,11.0,0.0
12578,59.0,0.0,15.0,4.0,0.0
12579,83.0,0.0,15.0,0.0,0.0
12580,71.0,15.0,15.0,11.0,0.0
12581,61.0,0.0,15.0,4.0,0.0
12582,85.0,0.0,15.0,0.0,0.0
12583,73.0,9.0,15.0,11.0,0.0
12584,83.0,0.0,15.0,0.0,0.0
12585,59.0,0.0,15.0,4.0,0.0
12586,71.0,15.0,15.0,11.0,0.0
12587,73.0,0.0,15.0,11.0,0.0
12588,61.0,27.0,15.0,4.0,0.0
12589,85.0,0.0,15.0,0.0,0.0
12590,83.0,30.0,20.0,0.0,0.0
12591,59.0,0.0,20.0,4.0,0.0
12592,71.0,0.0,20.0,11.0,0.0
12593,58.0,102.0,20.0,4.0,0.0
12594,70.0,0.0,20.0,11.0,0.0
12595,82.0,0.0,20.0,0.0,0.0
12596,71.0,0.0,90.0,11.0,0.0
12597,59.0,48.0,90.0,4.0,0.0
12598,83.0,0.0,90.0,0.0,0.0
12599,61.0,0.0,20.0,10.0,0.0
12600,71.0,30.0,20.0,7.0,0.0
12601,83.0,0.0,20.0,7.0,0.0
12602,70.0,0.0,20.0,7.0,0.0
12603,64.0,30.0,20.0,10.0,0.0
12604,82.0,0.0,20.0,7.0,0.0
12605,70.0,18.0,90.0,7.0,0.0
12606,82.0,0.0,90.0,7.0,0.0
12607,61.0,30.0,20.0,10.0,0.0
12608,64.0,30.0,20.0,10.0,0.0
12609,61.0,12.0,20.0,10.0,0.0
12610,64.0,30.0,20.0,10.0,0.0
12611,59.0,30.0,20.0,10.0,0.0
12612,81.0,0.0,20.0,7.0,0.0
12613,69.0,0.0,20.0,7.0,0.0
12614,68.0,0.0,20.0,7.0,0.0
12615,63.0,30.0,20.0,10.0,0.0
12616,80.0,0.0,20.0,7.0,0.0
12617,80.0,0.0,90.0,7.0,0.0
12618,68.0,18.0,90.0,7.0,0.0
12619,59.0,30.0,20.0,10.0,0.0
12620,63.0,30.0,20.0,10.0,0.0
12621,59.0,12.0,20.0,10.0,0.0
12622,63.0,30.0,20.0,10.0,0.0
12623,57.0,30.0,20.0,10.0,0.0
12624,79.0,0.0,20.0,7.0,0.0
12625,67.0,0.0,20.0,7.0,0.0
12626,66.0,0.0,20.0,7.0,0.0
12627,78.0,0.0,20.0,7.0,0.0
12628,61.0,30.0,20.0,10.0,0.0
12629,57.0,30.0,20.0,10.0,0.0
12630,78.0,18.0,90.0,7.0,0.0
12631,66.0,0.0,90.0,7.0,0.0
12632,61.0,30.0,20.0,10.0,0.0
12633,57.0,12.0,20.0,10.0,0.0
12634,61.0,30.0,20.0,10.0,0.0
12635,56.0,0.0,20.0,10.0,0.0
12636,77.0,30.0,20.0,7.0,0.0
12637,65.0,0.0,20.0,7.0,0.0
12638,76.0,30.0,20.0,7.0,0.0
12639,64.0,0.0,20.0,7.0,0.0
12640,59.0,0.0,20.0,10.0,0.0
12641,56.0,30.0,20.0,10.0,0.0
12642,64.0,0.0,90.0,7.0,0.0
12643,76.0,18.0,90.0,7.0,0.0
12644,59.0,30.0,20.0,10.0,0.0
12645,56.0,12.0,20.0,10.0,0.0
12646,59.0,30.0,20.0,10.0,0.0
12647,64.0,0.0,40.0,3.0,0.0
12648,56.0,24.0,20.0,11.0,0.0
12649,52.0,0.0,20.0,11.0,0.0
12650,47.0,0.0,40.0,5.0,0.0
12651,59.0,0.0,40.0,5.0,0.0
12652,52.0,0.0,40.0,13.0,0.0
12653,76.0,6.0,40.0,11.0,0.0
12654,52.0,0.0,40.0,12.0,0.0
12655,68.0,0.0,40.0,1.0,0.0
12656,76.0,0.0,40.0,1.0,0.0
12657,52.0,0.0,40.0,4.0,0.0
12658,47.0,30.0,20.0,11.0,0.0
12659,59.0,0.0,20.0,11.0,0.0
12660,47.0,0.0,90.0,8.0,0.0
12661,75.0,0.0,90.0,1.0,0.0
12662,47.0,0.0,90.0,5.0,0.0
12663,59.0,0.0,90.0,5.0,0.0
12664,47.0,0.0,90.0,13.0,0.0
12665,47.0,16.0,90.0,12.0,0.0
12666,59.0,0.0,90.0,6.0,0.0
12667,51.0,0.0,90.0,4.0,0.0
12668,63.0,2.0,120.0,3.0,0.0
12669,66.0,0.0,90.0,1.0,0.0
12670,57.0,0.0,20.0,11.0,0.0
12671,54.0,30.0,20.0,11.0,0.0
12672,47.0,0.0,90.0,6.0,0.0
12673,75.0,0.0,90.0,11.0,0.0
12674,47.0,0.0,20.0,11.0,0.0
12675,59.0,30.0,20.0,11.0,0.0
12676,63.0,0.0,20.0,11.0,0.0
12677,54.0,12.0,20.0,11.0,0.0
12678,47.0,30.0,20.0,11.0,0.0
12679,66.0,0.0,20.0,11.0,0.0
12680,69.0,0.0,40.0,3.0,0.0
12681,78.0,0.0,40.0,0.0,0.0
12682,83.0,0.0,40.0,0.0,0.0
12683,47.0,0.0,40.0,12.0,0.0
12684,47.0,0.0,40.0,5.0,0.0
12685,59.0,0.0,40.0,5.0,0.0
12686,75.0,6.0,40.0,11.0,0.0
12687,63.0,0.0,40.0,3.0,0.0
12688,47.0,0.0,40.0,13.0,0.0
12689,51.0,0.0,40.0,4.0,0.0
12690,54.0,0.0,20.0,11.0,0.0
12691,69.0,24.0,20.0,11.0,0.0
12692,57.0,0.0,40.0,4.0,0.0
12693,66.0,0.0,40.0,1.0,0.0
12694,75.0,0.0,40.0,1.0,0.0
12695,54.0,30.0,20.0,11.0,0.0
12696,69.0,0.0,20.0,11.0,0.0
12697,69.0,0.0,60.0,3.0,0.0
12698,66.0,0.0,60.0,1.0,0.0
12699,59.0,0.0,90.0,6.0,0.0
12700,47.0,18.0,90.0,6.0,0.0
12701,51.0,0.0,60.0,4.0,0.0
12702,57.0,0.0,60.0,4.0,0.0
12703,63.0,0.0,60.0,3.0,0.0
12704,47.0,0.0,90.0,8.0,0.0
12705,78.0,0.0,60.0,0.0,0.0
12706,59.0,0.0,60.0,5.0,0.0
12707,47.0,12.0,60.0,13.0,0.0
12708,47.0,0.0,60.0,12.0,0.0
12709,54.0,0.0,20.0,11.0,0.0
12710,83.0,0.0,60.0,0.0,0.0
12711,75.0,0.0,60.0,11.0,0.0
12712,47.0,0.0,60.0,5.0,0.0
12713,69.0,30.0,20.0,11.0,0.0
12714,75.0,0.0,60.0,1.0,0.0
12715,47.0,0.0,20.0,11.0,0.0
12716,59.0,18.0,20.0,11.0,0.0
12717,54.0,0.0,20.0,11.0,0.0
12718,69.0,12.0,20.0,11.0,0.0
12719,52.0,0.0,20.0,11.0,0.0
12720,76.0,30.0,20.0,11.0,0.0
12721,68.0,0.0,20.0,11.0,0.0
12722,59.0,0.0,20.0,5.0,0.0
12723,47.0,0.0,20.0,5.0,0.0
12724,52.0,0.0,20.0,4.0,0.0
12725,68.0,0.0,20.0,1.0,0.0
12726,47.0,0.0,20.0,13.0,0.0
12727,56.0,0.0,20.0,4.0,0.0
12728,76.0,0.0,20.0,1.0,0.0
12729,47.0,0.0,20.0,12.0,0.0
12730,68.0,0.0,20.0,3.0,0.0
12731,64.0,0.0,20.0,3.0,0.0
12732,83.0,0.0,20.0,0.0,0.0
12733,80.0,0.0,20.0,0.0,0.0
12734,66.0,24.0,20.0,11.0,0.0
12735,47.0,0.0,40.0,12.0,0.0
12736,47.0,0.0,40.0,13.0,0.0
12737,63.0,0.0,40.0,3.0,0.0
12738,66.0,0.0,40.0,3.0,0.0
12739,47.0,0.0,40.0,4.0,0.0
12740,83.0,0.0,40.0,0.0,0.0
12741,78.0,0.0,40.0,0.0,0.0
12742,78.0,0.0,40.0,1.0,0.0
12743,75.0,0.0,40.0,1.0,0.0
12744,51.0,0.0,20.0,11.0,0.0
12745,47.0,0.0,40.0,5.0,0.0
12746,59.0,6.0,40.0,5.0,0.0
12747,54.0,0.0,40.0,4.0,0.0
12748,78.0,0.0,40.0,11.0,0.0
12749,66.0,30.0,20.0,11.0,0.0
12750,51.0,0.0,20.0,11.0,0.0
12751,59.0,0.0,90.0,5.0,0.0
12752,47.0,0.0,90.0,5.0,0.0
12753,52.0,24.0,20.0,11.0,0.0
12754,40.0,0.0,90.0,4.0,0.0
12755,54.0,6.0,40.0,4.0,0.0
12756,66.0,0.0,40.0,3.0,0.0
12757,52.0,0.0,90.0,12.0,0.0
12758,78.0,0.0,40.0,1.0,0.0
12759,83.0,0.0,90.0,0.0,0.0
12760,80.0,0.0,90.0,0.0,0.0
12761,47.0,12.0,90.0,8.0,0.0
12762,68.0,0.0,20.0,11.0,0.0
12763,59.0,0.0,90.0,6.0,0.0
12764,78.0,0.0,40.0,11.0,0.0
12765,47.0,0.0,90.0,6.0,0.0
12766,52.0,0.0,90.0,13.0,0.0
12767,59.0,30.0,20.0,11.0,0.0
12768,47.0,0.0,20.0,11.0,0.0
12769,80.0,0.0,40.0,1.0,0.0
12770,52.0,12.0,20.0,11.0,0.0
12771,56.0,0.0,40.0,4.0,0.0
12772,80.0,0.0,40.0,11.0,0.0
12773,68.0,0.0,20.0,11.0,0.0
12774,68.0,6.0,40.0,3.0,0.0
12775,71.0,0.0,40.0,1.0,0.0
12776,59.0,0.0,40.0,3.0,0.0
12777,59.0,30.0,20.0,11.0,0.0
12778,47.0,0.0,20.0,11.0,0.0
12779,52.0,0.0,20.0,11.0,0.0
12780,68.0,24.0,20.0,11.0,0.0
12781,52.0,0.0,40.0,12.0,0.0
12782,52.0,0.0,40.0,13.0,0.0
12783,59.0,0.0,40.0,5.0,0.0
12784,47.0,0.0,40.0,5.0,0.0
12785,76.0,0.0,40.0,11.0,0.0
12786,52.0,0.0,40.0,4.0,0.0
12787,83.0,0.0,40.0,0.0,0.0
12788,64.0,0.0,40.0,3.0,0.0
12789,40.0,0.0,40.0,4.0,0.0
12790,56.0,0.0,40.0,3.0,0.0
12791,80.0,0.0,40.0,0.0,0.0
12792,76.0,0.0,40.0,1.0,0.0
12793,68.0,6.0,40.0,1.0,0.0
12794,59.0,102.0,20.0,11.0,0.0
12795,47.0,0.0,20.0,11.0,0.0
12796,76.0,0.0,90.0,11.0,0.0
12797,40.0,16.0,90.0,4.0,0.0
12798,52.0,0.0,90.0,4.0,0.0
12799,64.0,0.0,90.0,3.0,0.0
12800,56.0,0.0,90.0,3.0,0.0
12801,47.0,0.0,90.0,5.0,0.0
12802,59.0,0.0,90.0,5.0,0.0
12803,80.0,0.0,90.0,0.0,0.0
12804,59.0,0.0,90.0,11.0,0.0
12805,76.0,0.0,120.0,1.0,0.0
12806,68.0,32.0,120.0,1.0,0.0
12807,52.0,0.0,90.0,13.0,0.0
12808,52.0,0.0,90.0,11.0,0.0
12809,83.0,0.0,90.0,0.0,0.0
12810,68.0,0.0,90.0,11.0,0.0
12811,52.0,0.0,90.0,12.0,0.0
12812,47.0,0.0,90.0,11.0,0.0
12813,71.0,30.0,20.0,7.0,0.0
12814,61.0,0.0,20.0,10.0,0.0
12815,83.0,0.0,20.0,7.0,0.0
12816,64.0,30.0,20.0,10.0,0.0
12817,61.0,0.0,20.0,10.0,0.0
12818,71.0,30.0,20.0,7.0,0.0
12819,64.0,0.0,20.0,10.0,0.0
12820,83.0,30.0,20.0,7.0,0.0
12821,71.0,30.0,20.0,7.0,0.0
12822,61.0,0.0,20.0,10.0,0.0
12823,64.0,0.0,20.0,10.0,0.0
12824,70.0,30.0,20.0,7.0,0.0
12825,59.0,30.0,20.0,10.0,0.0
12826,69.0,0.0,20.0,7.0,0.0
12827,81.0,30.0,20.0,7.0,0.0
12828,63.0,0.0,20.0,10.0,0.0
12829,59.0,0.0,20.0,10.0,0.0
12830,69.0,30.0,20.0,7.0,0.0
12831,63.0,0.0,20.0,10.0,0.0
12832,81.0,30.0,20.0,7.0,0.0
12833,69.0,0.0,20.0,7.0,0.0
12834,59.0,30.0,20.0,10.0,0.0
12835,63.0,30.0,20.0,10.0,0.0
12836,68.0,0.0,20.0,7.0,0.0
12837,67.0,0.0,20.0,7.0,0.0
12838,57.0,30.0,20.0,10.0,0.0
12839,61.0,0.0,20.0,10.0,0.0
12840,79.0,30.0,20.0,7.0,0.0
12841,57.0,0.0,20.0,10.0,0.0
12842,67.0,30.0,20.0,7.0,0.0
12843,61.0,30.0,20.0,10.0,0.0
12844,79.0,0.0,20.0,7.0,0.0
12845,67.0,0.0,20.0,7.0,0.0
12846,57.0,30.0,20.0,10.0,0.0
12847,66.0,30.0,20.0,7.0,0.0
12848,61.0,0.0,20.0,10.0,0.0
12849,56.0,30.0,20.0,10.0,0.0
12850,65.0,0.0,20.0,7.0,0.0
12851,77.0,30.0,20.0,7.0,0.0
12852,59.0,0.0,20.0,10.0,0.0
12853,56.0,0.0,20.0,10.0,0.0
12854,64.0,30.0,20.0,7.0,0.0
12855,59.0,0.0,20.0,10.0,0.0
12856,76.0,30.0,20.0,7.0,0.0
12857,56.0,0.0,20.0,10.0,0.0
12858,64.0,30.0,20.0,7.0,0.0
12859,59.0,0.0,20.0,10.0,0.0
12860,76.0,30.0,20.0,7.0,0.0
12861,44.0,0.0,20.0,12.0,0.0
12862,56.0,0.0,20.0,11.0,0.0
12863,43.0,0.0,20.0,12.0,0.0
12864,55.0,0.0,20.0,11.0,0.0
12865,43.0,0.0,20.0,12.0,0.0
12866,55.0,0.0,20.0,11.0,0.0
12867,55.0,0.0,20.0,11.0,0.0
12868,43.0,0.0,20.0,12.0,0.0
12869,55.0,0.0,20.0,11.0,0.0
12870,43.0,30.0,20.0,12.0,0.0
12871,43.0,0.0,20.0,12.0,0.0
12872,55.0,0.0,20.0,11.0,0.0
12873,42.0,0.0,20.0,12.0,0.0
12874,54.0,0.0,20.0,11.0,0.0
12875,53.0,0.0,20.0,11.0,0.0
12876,41.0,30.0,20.0,12.0,0.0
12877,53.0,0.0,20.0,11.0,0.0
12878,41.0,0.0,20.0,12.0,0.0
12879,53.0,0.0,20.0,11.0,0.0
12880,41.0,30.0,20.0,12.0,0.0
12881,53.0,0.0,20.0,11.0,0.0
12882,41.0,30.0,20.0,12.0,0.0
12883,41.0,0.0,20.0,12.0,0.0
12884,53.0,0.0,20.0,11.0,0.0
12885,52.0,0.0,20.0,11.0,0.0
12886,40.0,30.0,20.0,12.0,0.0
12887,39.0,30.0,20.0,12.0,0.0
12888,51.0,0.0,20.0,11.0,0.0
12889,51.0,0.0,20.0,11.0,0.0
12890,39.0,0.0,20.0,12.0,0.0
12891,39.0,0.0,20.0,12.0,0.0
12892,51.0,0.0,20.0,11.0,0.0
12893,51.0,0.0,20.0,11.0,0.0
12894,39.0,0.0,20.0,12.0,0.0
12895,51.0,0.0,20.0,11.0,0.0
12896,39.0,30.0,20.0,12.0,0.0
12897,38.0,0.0,20.0,12.0,0.0
12898,50.0,30.0,20.0,11.0,0.0
12899,37.0,0.0,20.0,12.0,0.0
12900,49.0,30.0,20.0,11.0,0.0
12901,37.0,30.0,20.0,12.0,0.0
12902,49.0,0.0,20.0,11.0,0.0
12903,37.0,30.0,20.0,12.0,0.0
12904,49.0,0.0,20.0,11.0,0.0
12905,36.0,30.0,20.0,12.0,0.0
12906,48.0,0.0,20.0,11.0,0.0
12907,36.0,0.0,20.0,12.0,0.0
12908,48.0,30.0,20.0,11.0,0.0
12909,51.0,0.0,40.0,4.0,0.0
12910,54.0,0.0,40.0,4.0,0.0
12911,42.0,0.0,40.0,5.0,0.0
12912,47.0,24.0,20.0,13.0,0.0
12913,35.0,0.0,20.0,12.0,0.0
12914,51.0,0.0,20.0,11.0,0.0
12915,47.0,0.0,20.0,11.0,0.0
12916,78.0,6.0,40.0,0.0,0.0
12917,66.0,0.0,40.0,0.0,0.0
12918,54.0,0.0,40.0,5.0,0.0
12919,66.0,0.0,40.0,1.0,0.0
12920,78.0,0.0,40.0,1.0,0.0
12921,66.0,0.0,20.0,11.0,0.0
12922,54.0,0.0,20.0,11.0,0.0
12923,66.0,0.0,40.0,3.0,0.0
12924,63.0,0.0,40.0,3.0,0.0
12925,54.0,0.0,20.0,11.0,0.0
12926,47.0,0.0,20.0,11.0,0.0
12927,51.0,30.0,20.0,11.0,0.0
12928,47.0,0.0,20.0,13.0,0.0
12929,66.0,0.0,20.0,11.0,0.0
12930,35.0,0.0,20.0,12.0,0.0
12931,47.0,0.0,90.0,6.0,0.0
12932,47.0,0.0,90.0,8.0,0.0
12933,35.0,0.0,20.0,12.0,0.0
12934,83.0,0.0,90.0,0.0,0.0
12935,66.0,0.0,90.0,3.0,0.0
12936,54.0,0.0,90.0,4.0,0.0
12937,51.0,0.0,90.0,5.0,0.0
12938,75.0,0.0,90.0,3.0,0.0
12939,51.0,0.0,90.0,4.0,0.0
12940,47.0,0.0,20.0,11.0,0.0
12941,51.0,30.0,20.0,11.0,0.0
12942,54.0,0.0,20.0,11.0,0.0
12943,66.0,0.0,20.0,11.0,0.0
12944,87.0,0.0,90.0,0.0,0.0
12945,75.0,0.0,90.0,1.0,0.0
12946,47.0,0.0,20.0,13.0,0.0
12947,78.0,0.0,90.0,1.0,0.0
12948,59.0,18.0,90.0,6.0,0.0
12949,59.0,0.0,90.0,5.0,0.0
12950,47.0,0.0,20.0,13.0,0.0
12951,71.0,0.0,20.0,11.0,0.0
12952,51.0,0.0,20.0,11.0,0.0
12953,54.0,30.0,20.0,11.0,0.0
12954,47.0,0.0,20.0,12.0,0.0
12955,59.0,0.0,20.0,11.0,0.0
12956,47.0,0.0,20.0,13.0,0.0
12957,54.0,0.0,20.0,11.0,0.0
12958,47.0,0.0,20.0,12.0,0.0
12959,51.0,0.0,20.0,11.0,0.0
12960,59.0,0.0,20.0,11.0,0.0
12961,71.0,12.0,20.0,11.0,0.0
12962,59.0,0.0,20.0,11.0,0.0
12963,54.0,0.0,20.0,11.0,0.0
12964,51.0,0.0,20.0,11.0,0.0
12965,47.0,0.0,20.0,13.0,0.0
12966,47.0,0.0,20.0,12.0,0.0
12967,71.0,30.0,20.0,11.0,0.0
12968,59.0,0.0,20.0,11.0,0.0
12969,47.0,0.0,20.0,13.0,0.0
12970,71.0,0.0,20.0,11.0,0.0
12971,47.0,30.0,20.0,12.0,0.0
12972,51.0,0.0,20.0,11.0,0.0
12973,54.0,0.0,20.0,11.0,0.0
12974,47.0,0.0,20.0,12.0,0.0
12975,47.0,0.0,20.0,13.0,0.0
12976,59.0,30.0,20.0,11.0,0.0
12977,54.0,0.0,20.0,11.0,0.0
12978,75.0,0.0,20.0,11.0,0.0
12979,63.0,0.0,20.0,11.0,0.0
12980,59.0,0.0,20.0,11.0,0.0
12981,54.0,30.0,20.0,11.0,0.0
12982,75.0,0.0,90.0,1.0,0.0
12983,47.0,0.0,90.0,6.0,0.0
12984,63.0,0.0,20.0,11.0,0.0
12985,59.0,0.0,90.0,5.0,0.0
12986,87.0,0.0,90.0,0.0,0.0
12987,66.0,0.0,90.0,3.0,0.0
12988,75.0,18.0,90.0,3.0,0.0
12989,83.0,0.0,90.0,0.0,0.0
12990,59.0,0.0,90.0,6.0,0.0
12991,47.0,0.0,20.0,13.0,0.0
12992,47.0,0.0,20.0,12.0,0.0
12993,47.0,0.0,90.0,8.0,0.0
12994,75.0,0.0,20.0,11.0,0.0
12995,54.0,0.0,90.0,4.0,0.0
12996,51.0,0.0,90.0,4.0,0.0
12997,78.0,0.0,90.0,1.0,0.0
12998,51.0,0.0,90.0,5.0,0.0
12999,47.0,30.0,20.0,12.0,0.0
13000,63.0,0.0,20.0,11.0,0.0
13001,47.0,0.0,20.0,13.0,0.0
13002,54.0,0.0,20.0,11.0,0.0
13003,75.0,0.0,20.0,11.0,0.0
13004,59.0,0.0,20.0,11.0,0.0
13005,54.0,0.0,20.0,11.0,0.0
13006,59.0,0.0,20.0,11.0,0.0
13007,75.0,0.0,20.0,11.0,0.0
13008,63.0,0.0,20.0,11.0,0.0
13009,47.0,0.0,20.0,12.0,0.0
13010,47.0,12.0,20.0,13.0,0.0
13011,75.0,30.0,20.0,11.0,0.0
13012,59.0,0.0,20.0,11.0,0.0
13013,47.0,0.0,20.0,12.0,0.0
13014,63.0,0.0,20.0,11.0,0.0
13015,47.0,0.0,20.0,13.0,0.0
13016,54.0,0.0,20.0,11.0,0.0
13017,47.0,30.0,20.0,13.0,0.0
13018,47.0,0.0,20.0,12.0,0.0
13019,54.0,0.0,20.0,11.0,0.0
13020,75.0,0.0,20.0,11.0,0.0
13021,63.0,0.0,20.0,11.0,0.0
13022,59.0,0.0,20.0,11.0,0.0
13023,47.0,0.0,20.0,13.0,0.0
13024,78.0,0.0,20.0,11.0,0.0
13025,59.0,0.0,20.0,11.0,0.0
13026,63.0,0.0,20.0,11.0,0.0
13027,47.0,30.0,20.0,12.0,0.0
13028,66.0,0.0,20.0,11.0,0.0
13029,66.0,0.0,20.0,11.0,0.0
13030,47.0,0.0,20.0,13.0,0.0
13031,47.0,0.0,20.0,12.0,0.0
13032,87.0,0.0,90.0,0.0,0.0
13033,59.0,0.0,90.0,6.0,0.0
13034,59.0,0.0,90.0,5.0,0.0
13035,66.0,0.0,90.0,3.0,0.0
13036,47.0,18.0,90.0,6.0,0.0
13037,47.0,0.0,90.0,8.0,0.0
13038,54.0,0.0,90.0,4.0,0.0
13039,75.0,0.0,90.0,3.0,0.0
13040,78.0,0.0,90.0,1.0,0.0
13041,83.0,0.0,90.0,0.0,0.0
13042,51.0,0.0,90.0,4.0,0.0
13043,78.0,30.0,20.0,11.0,0.0
13044,63.0,0.0,20.0,11.0,0.0
13045,59.0,0.0,20.0,11.0,0.0
13046,75.0,0.0,90.0,1.0,0.0
13047,51.0,0.0,90.0,5.0,0.0
13048,47.0,30.0,20.0,12.0,0.0
13049,66.0,0.0,20.0,11.0,0.0
13050,47.0,0.0,20.0,13.0,0.0
13051,83.0,0.0,20.0,11.0,0.0
13052,63.0,0.0,20.0,11.0,0.0
13053,71.0,0.0,20.0,11.0,0.0
13054,71.0,0.0,20.0,11.0,0.0
13055,66.0,0.0,20.0,11.0,0.0
13056,63.0,0.0,20.0,11.0,0.0
13057,47.0,12.0,20.0,12.0,0.0
13058,47.0,0.0,20.0,13.0,0.0
13059,83.0,0.0,20.0,11.0,0.0
13060,47.0,30.0,20.0,13.0,0.0
13061,83.0,0.0,20.0,11.0,0.0
13062,63.0,0.0,20.0,11.0,0.0
13063,47.0,0.0,20.0,12.0,0.0
13064,66.0,0.0,20.0,11.0,0.0
13065,71.0,0.0,20.0,11.0,0.0
13066,63.0,0.0,20.0,11.0,0.0
13067,83.0,0.0,20.0,11.0,0.0
13068,71.0,0.0,20.0,11.0,0.0
13069,47.0,30.0,20.0,13.0,0.0
13070,66.0,0.0,20.0,11.0,0.0
13071,47.0,0.0,20.0,12.0,0.0
13072,47.0,0.0,20.0,12.0,0.0
13073,83.0,0.0,20.0,11.0,0.0
13074,47.0,0.0,20.0,13.0,0.0
13075,66.0,0.0,20.0,11.0,0.0
13076,71.0,30.0,20.0,11.0,0.0
13077,63.0,0.0,20.0,11.0,0.0
13078,75.0,18.0,90.0,1.0,0.0
13079,78.0,0.0,90.0,1.0,0.0
13080,47.0,0.0,90.0,6.0,0.0
13081,75.0,0.0,90.0,3.0,0.0
13082,66.0,0.0,20.0,11.0,0.0
13083,63.0,0.0,20.0,11.0,0.0
13084,59.0,0.0,90.0,6.0,0.0
13085,59.0,0.0,90.0,5.0,0.0
13086,47.0,30.0,20.0,12.0,0.0
13087,51.0,0.0,90.0,5.0,0.0
13088,47.0,0.0,90.0,8.0,0.0
13089,83.0,0.0,20.0,11.0,0.0
13090,66.0,0.0,90.0,3.0,0.0
13091,51.0,0.0,90.0,4.0,0.0
13092,54.0,0.0,90.0,4.0,0.0
13093,83.0,0.0,90.0,0.0,0.0
13094,87.0,0.0,90.0,0.0,0.0
13095,47.0,0.0,20.0,13.0,0.0
13096,71.0,0.0,20.0,11.0,0.0
13097,66.0,30.0,20.0,11.0,0.0
13098,71.0,0.0,20.0,11.0,0.0
13099,83.0,0.0,20.0,11.0,0.0
13100,47.0,0.0,20.0,12.0,0.0
13101,63.0,0.0,20.0,11.0,0.0
13102,47.0,0.0,20.0,13.0,0.0
13103,63.0,0.0,20.0,11.0,0.0
13104,66.0,0.0,20.0,11.0,0.0
13105,47.0,0.0,20.0,13.0,0.0
13106,83.0,0.0,20.0,11.0,0.0
13107,71.0,0.0,20.0,11.0,0.0
13108,47.0,0.0,20.0,12.0,0.0
13109,63.0,0.0,20.0,11.0,0.0
13110,47.0,0.0,20.0,13.0,0.0
13111,83.0,0.0,20.0,11.0,0.0
13112,71.0,0.0,20.0,11.0,0.0
13113,47.0,0.0,20.0,12.0,0.0
13114,66.0,30.0,20.0,11.0,0.0
13115,66.0,0.0,20.0,11.0,0.0
13116,47.0,0.0,20.0,13.0,0.0
13117,83.0,0.0,20.0,11.0,0.0
13118,63.0,0.0,20.0,11.0,0.0
13119,71.0,30.0,20.0,11.0,0.0
13120,47.0,0.0,20.0,12.0,0.0
13121,47.0,0.0,20.0,12.0,0.0
13122,47.0,30.0,20.0,13.0,0.0
13123,75.0,0.0,20.0,11.0,0.0
13124,63.0,0.0,20.0,11.0,0.0
13125,54.0,0.0,20.0,11.0,0.0
13126,87.0,0.0,20.0,11.0,0.0
13127,54.0,0.0,90.0,5.0,0.0
13128,54.0,0.0,90.0,6.0,0.0
13129,54.0,0.0,20.0,11.0,0.0
13130,73.0,0.0,90.0,1.0,0.0
13131,42.0,0.0,90.0,6.0,0.0
13132,64.0,0.0,20.0,11.0,0.0
13133,49.0,0.0,90.0,4.0,0.0
13134,46.0,30.0,20.0,13.0,0.0
13135,76.0,0.0,90.0,1.0,0.0
13136,82.0,0.0,90.0,0.0,0.0
13137,73.0,0.0,20.0,11.0,0.0
13138,52.0,0.0,90.0,4.0,0.0
13139,85.0,18.0,90.0,0.0,0.0
13140,64.0,0.0,90.0,3.0,0.0
13141,73.0,0.0,90.0,3.0,0.0
13142,42.0,0.0,90.0,8.0,0.0
13143,46.0,0.0,20.0,12.0,0.0
13144,85.0,0.0,20.0,11.0,0.0
13145,61.0,0.0,90.0,5.0,0.0
13146,54.0,0.0,20.0,11.0,0.0
13147,73.0,30.0,20.0,11.0,0.0
13148,46.0,0.0,20.0,13.0,0.0
13149,46.0,0.0,20.0,12.0,0.0
13150,85.0,0.0,20.0,11.0,0.0
13151,52.0,0.0,20.0,11.0,0.0
13152,73.0,0.0,20.0,11.0,0.0
13153,46.0,0.0,20.0,13.0,0.0
13154,46.0,12.0,20.0,12.0,0.0
13155,52.0,0.0,20.0,11.0,0.0
13156,54.0,0.0,20.0,11.0,0.0
13157,85.0,0.0,20.0,11.0,0.0
13158,54.0,0.0,20.0,11.0,0.0
13159,46.0,0.0,20.0,13.0,0.0
13160,52.0,0.0,20.0,11.0,0.0
13161,73.0,0.0,20.0,11.0,0.0
13162,46.0,30.0,20.0,12.0,0.0
13163,85.0,0.0,20.0,11.0,0.0
13164,42.0,0.0,20.0,13.0,0.0
13165,42.0,0.0,20.0,12.0,0.0
13166,54.0,0.0,20.0,11.0,0.0
13167,52.0,0.0,20.0,11.0,0.0
13168,82.0,0.0,20.0,11.0,0.0
13169,70.0,30.0,20.0,11.0,0.0
13170,85.0,0.0,20.0,11.0,0.0
13171,42.0,0.0,20.0,13.0,0.0
13172,52.0,0.0,20.0,11.0,0.0
13173,73.0,0.0,20.0,11.0,0.0
13174,54.0,0.0,20.0,11.0,0.0
13175,42.0,30.0,20.0,12.0,0.0
13176,83.0,0.0,20.0,11.0,0.0
13177,71.0,0.0,20.0,11.0,0.0
13178,59.0,0.0,90.0,5.0,0.0
13179,47.0,30.0,20.0,12.0,0.0
13180,42.0,18.0,90.0,8.0,0.0
13181,54.0,0.0,90.0,6.0,0.0
13182,42.0,0.0,90.0,6.0,0.0
13183,47.0,0.0,20.0,13.0,0.0
13184,47.0,0.0,90.0,4.0,0.0
13185,51.0,0.0,90.0,5.0,0.0
13186,51.0,0.0,90.0,4.0,0.0
13187,64.0,0.0,90.0,3.0,0.0
13188,75.0,0.0,90.0,1.0,0.0
13189,51.0,0.0,20.0,11.0,0.0
13190,54.0,0.0,20.0,11.0,0.0
13191,71.0,0.0,90.0,1.0,0.0
13192,78.0,0.0,90.0,0.0,0.0
13193,83.0,0.0,90.0,0.0,0.0
13194,71.0,0.0,90.0,3.0,0.0
13195,47.0,30.0,20.0,13.0,0.0
13196,71.0,0.0,20.0,11.0,0.0
13197,51.0,0.0,20.0,11.0,0.0
13198,83.0,0.0,20.0,11.0,0.0
13199,54.0,0.0,20.0,11.0,0.0
13200,47.0,0.0,20.0,12.0,0.0
13201,47.0,0.0,20.0,13.0,0.0
13202,51.0,0.0,20.0,11.0,0.0
13203,54.0,0.0,20.0,11.0,0.0
13204,47.0,0.0,20.0,12.0,0.0
13205,71.0,12.0,20.0,11.0,0.0
13206,83.0,0.0,20.0,11.0,0.0
13207,83.0,0.0,20.0,11.0,0.0
13208,47.0,0.0,20.0,12.0,0.0
13209,54.0,0.0,20.0,11.0,0.0
13210,47.0,0.0,20.0,13.0,0.0
13211,51.0,0.0,20.0,11.0,0.0
13212,71.0,30.0,20.0,11.0,0.0
13213,54.0,0.0,20.0,11.0,0.0
13214,51.0,0.0,20.0,13.0,0.0
13215,59.0,0.0,20.0,11.0,0.0
13216,51.0,30.0,20.0,11.0,0.0
13217,78.0,0.0,20.0,11.0,0.0
13218,51.0,0.0,20.0,12.0,0.0
13219,66.0,0.0,20.0,11.0,0.0
13220,51.0,0.0,20.0,12.0,0.0
13221,51.0,0.0,20.0,13.0,0.0
13222,78.0,0.0,20.0,11.0,0.0
13223,54.0,0.0,20.0,11.0,0.0
13224,59.0,0.0,20.0,11.0,0.0
13225,66.0,0.0,20.0,11.0,0.0
13226,51.0,30.0,20.0,11.0,0.0
13227,54.0,0.0,20.0,12.0,0.0
13228,66.0,0.0,20.0,11.0,0.0
13229,70.0,0.0,120.0,3.0,0.0
13230,61.0,2.0,120.0,3.0,0.0
13231,54.0,0.0,20.0,13.0,0.0
13232,54.0,0.0,90.0,6.0,0.0
13233,42.0,16.0,90.0,6.0,0.0
13234,78.0,0.0,20.0,11.0,0.0
13235,54.0,0.0,90.0,5.0,0.0
13236,82.0,0.0,90.0,0.0,0.0
13237,58.0,0.0,90.0,4.0,0.0
13238,61.0,0.0,90.0,5.0,0.0
13239,42.0,0.0,90.0,8.0,0.0
13240,85.0,0.0,90.0,0.0,0.0
13241,54.0,0.0,20.0,11.0,0.0
13242,58.0,30.0,20.0,11.0,0.0
13243,49.0,0.0,20.0,11.0,0.0
13244,49.0,0.0,90.0,4.0,0.0
13245,78.0,0.0,90.0,1.0,0.0
13246,73.0,0.0,90.0,1.0,0.0
13247,66.0,30.0,20.0,11.0,0.0
13248,78.0,0.0,20.0,11.0,0.0
13249,58.0,0.0,20.0,11.0,0.0
13250,42.0,0.0,20.0,12.0,0.0
13251,42.0,0.0,20.0,13.0,0.0
13252,61.0,0.0,20.0,11.0,0.0
13253,78.0,0.0,20.0,11.0,0.0
13254,42.0,0.0,20.0,13.0,0.0
13255,66.0,0.0,20.0,11.0,0.0
13256,42.0,0.0,20.0,12.0,0.0
13257,58.0,0.0,20.0,11.0,0.0
13258,61.0,12.0,20.0,11.0,0.0
13259,42.0,0.0,20.0,12.0,0.0
13260,61.0,30.0,20.0,11.0,0.0
13261,66.0,0.0,20.0,11.0,0.0
13262,42.0,0.0,20.0,13.0,0.0
13263,58.0,0.0,20.0,11.0,0.0
13264,78.0,0.0,20.0,11.0,0.0
13265,42.0,0.0,20.0,13.0,0.0
13266,42.0,30.0,20.0,12.0,0.0
13267,58.0,0.0,20.0,11.0,0.0
13268,61.0,0.0,20.0,11.0,0.0
13269,66.0,0.0,20.0,11.0,0.0
13270,78.0,0.0,20.0,11.0,0.0
13271,42.0,30.0,20.0,12.0,0.0
13272,65.0,0.0,20.0,11.0,0.0
13273,54.0,0.0,20.0,13.0,0.0
13274,59.0,0.0,20.0,11.0,0.0
13275,62.0,0.0,20.0,11.0,0.0
13276,77.0,0.0,20.0,11.0,0.0
13277,70.0,0.0,90.0,3.0,0.0
13278,82.0,0.0,90.0,0.0,0.0
13279,73.0,0.0,90.0,1.0,0.0
13280,78.0,18.0,90.0,1.0,0.0
13281,61.0,0.0,90.0,3.0,0.0
13282,85.0,0.0,90.0,0.0,0.0
13283,54.0,0.0,90.0,6.0,0.0
13284,54.0,0.0,90.0,5.0,0.0
13285,61.0,0.0,90.0,5.0,0.0
13286,49.0,0.0,90.0,4.0,0.0
13287,58.0,0.0,90.0,4.0,0.0
13288,42.0,0.0,90.0,8.0,0.0
13289,66.0,0.0,20.0,11.0,0.0
13290,61.0,0.0,20.0,11.0,0.0
13291,78.0,0.0,20.0,11.0,0.0
13292,42.0,30.0,20.0,12.0,0.0
13293,58.0,0.0,20.0,11.0,0.0
13294,42.0,0.0,90.0,6.0,0.0
13295,54.0,0.0,20.0,13.0,0.0
13296,78.0,0.0,20.0,11.0,0.0
13297,54.0,0.0,20.0,11.0,0.0
13298,66.0,0.0,20.0,11.0,0.0
13299,42.0,0.0,20.0,12.0,0.0
13300,54.0,30.0,20.0,13.0,0.0
13301,66.0,0.0,20.0,11.0,0.0
13302,42.0,0.0,20.0,12.0,0.0
13303,54.0,0.0,20.0,13.0,0.0
13304,54.0,0.0,20.0,11.0,0.0
13305,78.0,12.0,20.0,11.0,0.0
13306,40.0,0.0,20.0,12.0,0.0
13307,52.0,30.0,20.0,11.0,0.0
13308,66.0,0.0,20.0,11.0,0.0
13309,52.0,0.0,20.0,13.0,0.0
13310,78.0,0.0,20.0,11.0,0.0
13311,51.0,0.0,40.0,4.0,0.0
13312,66.0,0.0,40.0,0.0,0.0
13313,78.0,0.0,40.0,0.0,0.0
13314,54.0,0.0,40.0,6.0,0.0
13315,42.0,0.0,40.0,6.0,0.0
13316,54.0,0.0,20.0,11.0,0.0
13317,51.0,0.0,20.0,11.0,0.0
13318,66.0,0.0,40.0,3.0,0.0
13319,39.0,24.0,20.0,12.0,0.0
13320,47.0,0.0,20.0,11.0,0.0
13321,51.0,0.0,20.0,13.0,0.0
13322,42.0,0.0,40.0,5.0,0.0
13323,78.0,6.0,40.0,1.0,0.0
13324,66.0,0.0,40.0,1.0,0.0
13325,42.0,0.0,40.0,8.0,0.0
13326,54.0,0.0,40.0,5.0,0.0
13327,66.0,0.0,20.0,11.0,0.0
13328,54.0,0.0,40.0,4.0,0.0
13329,51.0,0.0,20.0,11.0,0.0
13330,54.0,30.0,20.0,11.0,0.0
13331,66.0,0.0,20.0,11.0,0.0
13332,49.0,0.0,20.0,13.0,0.0
13333,37.0,0.0,20.0,12.0,0.0
13334,47.0,0.0,20.0,11.0,0.0
13335,47.0,0.0,90.0,6.0,0.0
13336,66.0,0.0,20.0,11.0,0.0
13337,51.0,0.0,20.0,11.0,0.0
13338,47.0,0.0,20.0,11.0,0.0
13339,35.0,30.0,20.0,12.0,0.0
13340,78.0,0.0,90.0,1.0,0.0
13341,47.0,0.0,20.0,13.0,0.0
13342,59.0,0.0,90.0,6.0,0.0
13343,51.0,18.0,90.0,5.0,0.0
13344,59.0,0.0,90.0,5.0,0.0
13345,51.0,0.0,90.0,4.0,0.0
13346,66.0,0.0,90.0,3.0,0.0
13347,75.0,0.0,90.0,3.0,0.0
13348,54.0,0.0,90.0,4.0,0.0
13349,47.0,0.0,90.0,8.0,0.0
13350,87.0,0.0,90.0,0.0,0.0
13351,83.0,0.0,90.0,0.0,0.0
13352,75.0,0.0,90.0,1.0,0.0
13353,54.0,0.0,20.0,11.0,0.0
13354,54.0,0.0,20.0,11.0,0.0
13355,51.0,0.0,20.0,11.0,0.0
13356,47.0,30.0,20.0,12.0,0.0
13357,47.0,0.0,20.0,13.0,0.0
13358,59.0,0.0,20.0,11.0,0.0
13359,71.0,0.0,20.0,11.0,0.0
13360,71.0,0.0,20.0,11.0,0.0
13361,47.0,0.0,20.0,12.0,0.0
13362,54.0,0.0,20.0,11.0,0.0
13363,51.0,12.0,20.0,11.0,0.0
13364,47.0,0.0,20.0,13.0,0.0
13365,59.0,0.0,20.0,11.0,0.0
13366,59.0,0.0,20.0,11.0,0.0
13367,47.0,0.0,20.0,12.0,0.0
13368,51.0,0.0,20.0,11.0,0.0
13369,71.0,0.0,20.0,11.0,0.0
13370,54.0,0.0,20.0,11.0,0.0
13371,47.0,30.0,20.0,13.0,0.0
13372,47.0,0.0,20.0,12.0,0.0
13373,47.0,30.0,20.0,13.0,0.0
13374,54.0,0.0,20.0,11.0,0.0
13375,51.0,0.0,20.0,11.0,0.0
13376,59.0,0.0,20.0,11.0,0.0
13377,71.0,0.0,20.0,11.0,0.0
13378,47.0,0.0,20.0,12.0,0.0
13379,54.0,0.0,20.0,11.0,0.0
13380,59.0,30.0,20.0,11.0,0.0
13381,75.0,0.0,20.0,11.0,0.0
13382,47.0,0.0,20.0,13.0,0.0
13383,63.0,0.0,20.0,11.0,0.0
13384,66.0,0.0,90.0,3.0,0.0
13385,87.0,0.0,90.0,0.0,0.0
13386,75.0,0.0,90.0,3.0,0.0
13387,63.0,0.0,20.0,11.0,0.0
13388,59.0,0.0,20.0,11.0,0.0
13389,54.0,0.0,20.0,11.0,0.0
13390,47.0,0.0,90.0,8.0,0.0
13391,75.0,0.0,90.0,1.0,0.0
13392,51.0,0.0,90.0,5.0,0.0
13393,59.0,0.0,90.0,5.0,0.0
13394,75.0,0.0,20.0,11.0,0.0
13395,78.0,0.0,90.0,1.0,0.0
13396,47.0,0.0,90.0,6.0,0.0
13397,51.0,0.0,90.0,4.0,0.0
13398,54.0,0.0,90.0,4.0,0.0
13399,47.0,30.0,20.0,13.0,0.0
13400,59.0,18.0,90.0,6.0,0.0
13401,47.0,0.0,20.0,12.0,0.0
13402,83.0,0.0,90.0,0.0,0.0
13403,47.0,0.0,20.0,12.0,0.0
13404,54.0,0.0,20.0,11.0,0.0
13405,75.0,0.0,20.0,11.0,0.0
13406,47.0,0.0,20.0,13.0,0.0
13407,63.0,0.0,20.0,11.0,0.0
13408,59.0,30.0,20.0,11.0,0.0
13409,47.0,0.0,20.0,13.0,0.0
13410,47.0,0.0,20.0,12.0,0.0
13411,59.0,0.0,20.0,11.0,0.0
13412,54.0,0.0,20.0,11.0,0.0
13413,75.0,0.0,20.0,11.0,0.0
13414,63.0,12.0,20.0,11.0,0.0
13415,63.0,0.0,20.0,11.0,0.0
13416,75.0,0.0,20.0,11.0,0.0
13417,47.0,0.0,20.0,12.0,0.0
13418,54.0,0.0,20.0,11.0,0.0
13419,59.0,0.0,20.0,11.0,0.0
13420,47.0,30.0,20.0,13.0,0.0
13421,54.0,0.0,20.0,11.0,0.0
13422,59.0,0.0,20.0,11.0,0.0
13423,75.0,0.0,20.0,11.0,0.0
13424,47.0,30.0,20.0,12.0,0.0
13425,47.0,0.0,20.0,13.0,0.0
13426,63.0,0.0,20.0,11.0,0.0
13427,47.0,0.0,20.0,12.0,0.0
13428,63.0,0.0,20.0,11.0,0.0
13429,59.0,0.0,20.0,11.0,0.0
13430,66.0,30.0,20.0,11.0,0.0
13431,47.0,0.0,20.0,13.0,0.0
13432,78.0,0.0,20.0,11.0,0.0
13433,63.0,0.0,20.0,11.0,0.0
13434,51.0,0.0,90.0,5.0,0.0
13435,47.0,0.0,90.0,6.0,0.0
13436,59.0,0.0,90.0,6.0,0.0
13437,78.0,0.0,20.0,11.0,0.0
13438,66.0,0.0,20.0,11.0,0.0
13439,59.0,0.0,90.0,5.0,0.0
13440,51.0,0.0,90.0,4.0,0.0
13441,47.0,0.0,20.0,13.0,0.0
13442,59.0,30.0,20.0,11.0,0.0
13443,66.0,0.0,90.0,3.0,0.0
13444,75.0,0.0,90.0,1.0,0.0
13445,78.0,0.0,90.0,1.0,0.0
13446,47.0,0.0,20.0,12.0,0.0
13447,87.0,0.0,90.0,0.0,0.0
13448,83.0,0.0,90.0,0.0,0.0
13449,75.0,18.0,90.0,3.0,0.0
13450,54.0,0.0,90.0,4.0,0.0
13451,47.0,0.0,90.0,8.0,0.0
13452,63.0,0.0,20.0,11.0,0.0
13453,66.0,0.0,20.0,11.0,0.0
13454,47.0,0.0,20.0,13.0,0.0
13455,47.0,0.0,20.0,12.0,0.0
13456,83.0,0.0,20.0,11.0,0.0
13457,71.0,30.0,20.0,11.0,0.0
13458,47.0,0.0,20.0,12.0,0.0
13459,83.0,0.0,20.0,11.0,0.0
13460,71.0,0.0,20.0,11.0,0.0
13461,47.0,0.0,20.0,13.0,0.0
13462,63.0,12.0,20.0,11.0,0.0
13463,66.0,0.0,20.0,11.0,0.0
13464,83.0,0.0,20.0,11.0,0.0
13465,47.0,0.0,20.0,12.0,0.0
13466,71.0,0.0,20.0,11.0,0.0
13467,47.0,0.0,20.0,13.0,0.0
13468,66.0,30.0,20.0,11.0,0.0
13469,63.0,0.0,20.0,11.0,0.0
13470,66.0,0.0,20.0,11.0,0.0
13471,63.0,0.0,20.0,11.0,0.0
13472,47.0,30.0,20.0,12.0,0.0
13473,47.0,0.0,20.0,13.0,0.0
13474,71.0,0.0,20.0,11.0,0.0
13475,83.0,0.0,20.0,11.0,0.0
13476,47.0,0.0,20.0,12.0,0.0
13477,66.0,0.0,20.0,11.0,0.0
13478,63.0,0.0,20.0,11.0,0.0
13479,71.0,30.0,20.0,11.0,0.0
13480,47.0,0.0,20.0,13.0,0.0
13481,83.0,0.0,20.0,11.0,0.0
13482,78.0,0.0,90.0,1.0,0.0
13483,75.0,0.0,90.0,1.0,0.0
13484,47.0,0.0,90.0,6.0,0.0
13485,47.0,0.0,20.0,12.0,0.0
13486,71.0,30.0,20.0,11.0,0.0
13487,59.0,0.0,90.0,5.0,0.0
13488,66.0,0.0,20.0,11.0,0.0
13489,63.0,0.0,20.0,11.0,0.0
13490,47.0,0.0,20.0,13.0,0.0
13491,66.0,0.0,90.0,3.0,0.0
13492,51.0,0.0,90.0,5.0,0.0
13493,75.0,0.0,90.0,3.0,0.0
13494,47.0,0.0,90.0,8.0,0.0
13495,51.0,18.0,90.0,4.0,0.0
13496,59.0,0.0,90.0,6.0,0.0
13497,83.0,0.0,90.0,0.0,0.0
13498,87.0,0.0,90.0,0.0,0.0
13499,83.0,0.0,20.0,11.0,0.0
13500,54.0,0.0,90.0,4.0,0.0
13501,47.0,0.0,20.0,12.0,0.0
13502,47.0,0.0,20.0,13.0,0.0
13503,83.0,0.0,20.0,11.0,0.0
13504,66.0,0.0,20.0,11.0,0.0
13505,63.0,30.0,20.0,11.0,0.0
13506,71.0,0.0,20.0,11.0,0.0
13507,71.0,0.0,20.0,11.0,0.0
13508,66.0,12.0,20.0,11.0,0.0
13509,63.0,0.0,20.0,11.0,0.0
13510,47.0,0.0,20.0,12.0,0.0
13511,83.0,0.0,20.0,11.0,0.0
13512,47.0,0.0,20.0,13.0,0.0
13513,71.0,30.0,20.0,11.0,0.0
13514,47.0,0.0,20.0,12.0,0.0
13515,83.0,0.0,20.0,11.0,0.0
13516,63.0,0.0,20.0,11.0,0.0
13517,66.0,0.0,20.0,11.0,0.0
13518,47.0,0.0,20.0,13.0,0.0
13519,71.0,0.0,20.0,11.0,0.0
13520,83.0,0.0,20.0,11.0,0.0
13521,47.0,30.0,20.0,12.0,0.0
13522,66.0,0.0,20.0,11.0,0.0
13523,63.0,0.0,20.0,11.0,0.0
13524,47.0,0.0,20.0,13.0,0.0
13525,47.0,0.0,20.0,13.0,0.0
13526,63.0,0.0,20.0,11.0,0.0
13527,75.0,30.0,20.0,11.0,0.0
13528,87.0,0.0,20.0,11.0,0.0
13529,54.0,0.0,20.0,11.0,0.0
13530,47.0,0.0,20.0,12.0,0.0
13531,42.0,0.0,90.0,6.0,0.0
13532,52.0,0.0,90.0,4.0,0.0
13533,49.0,0.0,90.0,4.0,0.0
13534,78.0,0.0,90.0,0.0,0.0
13535,85.0,0.0,90.0,0.0,0.0
13536,64.0,0.0,20.0,11.0,0.0
13537,66.0,0.0,20.0,11.0,0.0
13538,42.0,0.0,90.0,8.0,0.0
13539,73.0,0.0,90.0,3.0,0.0
13540,73.0,18.0,90.0,1.0,0.0
13541,76.0,0.0,90.0,1.0,0.0
13542,85.0,30.0,20.0,11.0,0.0
13543,61.0,0.0,90.0,5.0,0.0
13544,54.0,0.0,90.0,5.0,0.0
13545,54.0,0.0,90.0,6.0,0.0
13546,64.0,0.0,90.0,3.0,0.0
13547,46.0,0.0,20.0,12.0,0.0
13548,73.0,0.0,20.0,11.0,0.0
13549,46.0,0.0,20.0,13.0,0.0
13550,54.0,30.0,20.0,11.0,0.0
13551,46.0,0.0,20.0,12.0,0.0
13552,73.0,0.0,20.0,11.0,0.0
13553,52.0,0.0,20.0,11.0,0.0
13554,85.0,0.0,20.0,11.0,0.0
13555,46.0,0.0,20.0,13.0,0.0
13556,52.0,12.0,20.0,11.0,0.0
13557,85.0,0.0,20.0,11.0,0.0
13558,46.0,0.0,20.0,13.0,0.0
13559,73.0,0.0,20.0,11.0,0.0
13560,54.0,0.0,20.0,11.0,0.0
13561,46.0,0.0,20.0,12.0,0.0
13562,73.0,0.0,20.0,11.0,0.0
13563,85.0,30.0,20.0,11.0,0.0
13564,46.0,0.0,20.0,13.0,0.0
13565,46.0,0.0,20.0,12.0,0.0
13566,54.0,0.0,20.0,11.0,0.0
13567,52.0,0.0,20.0,11.0,0.0
13568,54.0,30.0,20.0,11.0,0.0
13569,52.0,0.0,20.0,11.0,0.0
13570,42.0,0.0,20.0,12.0,0.0
13571,42.0,0.0,20.0,13.0,0.0
13572,82.0,0.0,20.0,11.0,0.0
13573,70.0,0.0,20.0,11.0,0.0
13574,85.0,30.0,20.0,11.0,0.0
13575,42.0,0.0,20.0,13.0,0.0
13576,52.0,0.0,20.0,11.0,0.0
13577,54.0,0.0,20.0,11.0,0.0
13578,73.0,0.0,20.0,11.0,0.0
13579,42.0,0.0,20.0,12.0,0.0
13580,47.0,0.0,20.0,12.0,0.0
13581,59.0,0.0,90.0,6.0,0.0
13582,54.0,30.0,20.0,11.0,0.0
13583,51.0,0.0,20.0,11.0,0.0
13584,51.0,0.0,90.0,4.0,0.0
13585,59.0,0.0,90.0,5.0,0.0
13586,51.0,0.0,90.0,5.0,0.0
13587,47.0,0.0,90.0,4.0,0.0
13588,71.0,0.0,20.0,11.0,0.0
13589,71.0,18.0,90.0,1.0,0.0
13590,75.0,0.0,90.0,1.0,0.0
13591,71.0,0.0,90.0,3.0,0.0
13592,47.0,0.0,90.0,8.0,0.0
13593,47.0,0.0,20.0,13.0,0.0
13594,63.0,0.0,90.0,3.0,0.0
13595,78.0,0.0,90.0,0.0,0.0
13596,85.0,0.0,90.0,0.0,0.0
13597,83.0,0.0,20.0,11.0,0.0
13598,47.0,0.0,90.0,6.0,0.0
13599,47.0,0.0,20.0,13.0,0.0
13600,47.0,0.0,20.0,12.0,0.0
13601,51.0,0.0,20.0,11.0,0.0
13602,54.0,0.0,20.0,11.0,0.0
13603,83.0,30.0,20.0,11.0,0.0
13604,71.0,0.0,20.0,11.0,0.0
13605,71.0,0.0,20.0,11.0,0.0
13606,47.0,0.0,20.0,13.0,0.0
13607,83.0,12.0,20.0,11.0,0.0
13608,51.0,0.0,20.0,11.0,0.0
13609,47.0,0.0,20.0,12.0,0.0
13610,54.0,0.0,20.0,11.0,0.0
13611,83.0,0.0,20.0,11.0,0.0
13612,71.0,30.0,20.0,11.0,0.0
13613,47.0,0.0,20.0,13.0,0.0
13614,47.0,0.0,20.0,12.0,0.0
13615,54.0,0.0,20.0,11.0,0.0
13616,51.0,0.0,20.0,11.0,0.0
13617,51.0,0.0,20.0,13.0,0.0
13618,66.0,30.0,20.0,11.0,0.0
13619,51.0,0.0,20.0,11.0,0.0
13620,59.0,0.0,20.0,11.0,0.0
13621,78.0,0.0,20.0,11.0,0.0
13622,51.0,0.0,20.0,12.0,0.0
13623,54.0,0.0,20.0,11.0,0.0
13624,78.0,0.0,20.0,11.0,0.0
13625,51.0,0.0,20.0,12.0,0.0
13626,66.0,30.0,20.0,11.0,0.0
13627,51.0,0.0,20.0,11.0,0.0
13628,54.0,0.0,20.0,11.0,0.0
13629,59.0,0.0,20.0,11.0,0.0
13630,51.0,0.0,20.0,13.0,0.0
13631,73.0,0.0,90.0,1.0,0.0
13632,78.0,0.0,20.0,11.0,0.0
13633,85.0,0.0,90.0,0.0,0.0
13634,82.0,0.0,90.0,0.0,0.0
13635,61.0,0.0,90.0,5.0,0.0
13636,54.0,0.0,90.0,5.0,0.0
13637,54.0,30.0,20.0,11.0,0.0
13638,58.0,0.0,20.0,11.0,0.0
13639,49.0,0.0,20.0,11.0,0.0
13640,78.0,0.0,90.0,1.0,0.0
13641,49.0,0.0,90.0,4.0,0.0
13642,46.0,0.0,90.0,4.0,0.0
13643,54.0,0.0,20.0,12.0,0.0
13644,61.0,0.0,90.0,3.0,0.0
13645,42.0,0.0,90.0,8.0,0.0
13646,70.0,18.0,90.0,3.0,0.0
13647,54.0,0.0,20.0,13.0,0.0
13648,42.0,0.0,90.0,6.0,0.0
13649,54.0,0.0,90.0,6.0,0.0
13650,66.0,0.0,20.0,11.0,0.0
13651,66.0,0.0,20.0,11.0,0.0
13652,42.0,0.0,20.0,13.0,0.0
13653,78.0,0.0,20.0,11.0,0.0
13654,61.0,0.0,20.0,11.0,0.0
13655,42.0,30.0,20.0,12.0,0.0
13656,58.0,0.0,20.0,11.0,0.0
13657,42.0,12.0,20.0,13.0,0.0
13658,78.0,0.0,20.0,11.0,0.0
13659,61.0,0.0,20.0,11.0,0.0
13660,42.0,0.0,20.0,12.0,0.0
13661,66.0,0.0,20.0,11.0,0.0
13662,58.0,0.0,20.0,11.0,0.0
13663,66.0,30.0,20.0,11.0,0.0
13664,61.0,0.0,20.0,11.0,0.0
13665,42.0,0.0,20.0,12.0,0.0
13666,42.0,0.0,20.0,13.0,0.0
13667,78.0,0.0,20.0,11.0,0.0
13668,58.0,0.0,20.0,11.0,0.0
13669,61.0,0.0,20.0,11.0,0.0
13670,42.0,0.0,20.0,13.0,0.0
13671,42.0,30.0,20.0,12.0,0.0
13672,78.0,0.0,20.0,11.0,0.0
13673,58.0,0.0,20.0,11.0,0.0
13674,66.0,0.0,20.0,11.0,0.0
13675,42.0,0.0,20.0,12.0,0.0
13676,59.0,0.0,20.0,11.0,0.0
13677,62.0,0.0,20.0,11.0,0.0
13678,42.0,30.0,20.0,13.0,0.0
13679,65.0,0.0,20.0,11.0,0.0
13680,77.0,0.0,20.0,11.0,0.0
13681,78.0,0.0,20.0,11.0,0.0
13682,42.0,0.0,90.0,4.0,0.0
13683,54.0,0.0,90.0,4.0,0.0
13684,42.0,0.0,90.0,6.0,0.0
13685,54.0,0.0,90.0,6.0,0.0
13686,66.0,0.0,90.0,3.0,0.0
13687,78.0,0.0,90.0,3.0,0.0
13688,42.0,0.0,90.0,8.0,0.0
13689,42.0,0.0,20.0,13.0,0.0
13690,58.0,0.0,20.0,11.0,0.0
13691,61.0,0.0,20.0,11.0,0.0
13692,42.0,30.0,20.0,12.0,0.0
13693,66.0,18.0,90.0,1.0,0.0
13694,78.0,0.0,90.0,1.0,0.0
13695,42.0,0.0,90.0,5.0,0.0
13696,66.0,0.0,90.0,0.0,0.0
13697,66.0,0.0,20.0,11.0,0.0
13698,78.0,0.0,90.0,0.0,0.0
13699,54.0,0.0,90.0,5.0,0.0
13700,61.0,30.0,20.0,11.0,0.0
13701,66.0,0.0,20.0,11.0,0.0
13702,54.0,0.0,20.0,13.0,0.0
13703,54.0,0.0,20.0,12.0,0.0
13704,78.0,0.0,20.0,11.0,0.0
13705,58.0,0.0,20.0,11.0,0.0
13706,58.0,0.0,20.0,11.0,0.0
13707,61.0,0.0,20.0,11.0,0.0
13708,54.0,0.0,20.0,13.0,0.0
13709,54.0,0.0,20.0,12.0,0.0
13710,78.0,12.0,20.0,11.0,0.0
13711,66.0,0.0,20.0,11.0,0.0
13712,66.0,0.0,20.0,11.0,0.0
13713,54.0,0.0,20.0,12.0,0.0
13714,58.0,0.0,20.0,11.0,0.0
13715,54.0,0.0,20.0,13.0,0.0
13716,61.0,30.0,20.0,11.0,0.0
13717,78.0,0.0,20.0,11.0,0.0
13718,54.0,0.0,20.0,12.0,0.0
13719,66.0,0.0,20.0,11.0,0.0
13720,54.0,30.0,20.0,13.0,0.0
13721,61.0,0.0,20.0,11.0,0.0
13722,78.0,0.0,20.0,11.0,0.0
13723,58.0,0.0,20.0,11.0,0.0
13724,60.0,0.0,20.0,11.0,0.0
13725,54.0,0.0,20.0,12.0,0.0
13726,57.0,0.0,20.0,11.0,0.0
13727,65.0,0.0,20.0,11.0,0.0
13728,54.0,0.0,20.0,13.0,0.0
13729,77.0,30.0,20.0,11.0,0.0
13730,54.0,18.0,90.0,5.0,0.0
13731,66.0,0.0,90.0,1.0,0.0
13732,78.0,0.0,90.0,1.0,0.0
13733,78.0,0.0,90.0,0.0,0.0
13734,42.0,0.0,90.0,5.0,0.0
13735,42.0,0.0,20.0,13.0,0.0
13736,42.0,0.0,90.0,6.0,0.0
13737,65.0,0.0,20.0,11.0,0.0
13738,42.0,30.0,20.0,12.0,0.0
13739,66.0,0.0,90.0,3.0,0.0
13740,54.0,0.0,90.0,6.0,0.0
13741,78.0,0.0,90.0,3.0,0.0
13742,77.0,0.0,20.0,11.0,0.0
13743,54.0,0.0,90.0,4.0,0.0
13744,42.0,0.0,90.0,4.0,0.0
13745,56.0,0.0,20.0,11.0,0.0
13746,59.0,0.0,20.0,11.0,0.0
13747,66.0,0.0,90.0,0.0,0.0
13748,42.0,0.0,90.0,8.0,0.0
13749,77.0,0.0,20.0,11.0,0.0
13750,54.0,30.0,20.0,12.0,0.0
13751,65.0,0.0,20.0,11.0,0.0
13752,54.0,0.0,20.0,13.0,0.0
13753,59.0,0.0,20.0,11.0,0.0
13754,56.0,0.0,20.0,11.0,0.0
13755,77.0,0.0,20.0,11.0,0.0
13756,54.0,0.0,20.0,13.0,0.0
13757,59.0,12.0,20.0,11.0,0.0
13758,56.0,0.0,20.0,11.0,0.0
13759,65.0,0.0,20.0,11.0,0.0
13760,54.0,0.0,20.0,12.0,0.0
13761,56.0,30.0,20.0,11.0,0.0
13762,77.0,0.0,20.0,11.0,0.0
13763,54.0,0.0,20.0,12.0,0.0
13764,59.0,0.0,20.0,11.0,0.0
13765,54.0,0.0,20.0,13.0,0.0
13766,65.0,0.0,20.0,11.0,0.0
13767,55.0,0.0,20.0,11.0,0.0
13768,54.0,30.0,20.0,12.0,0.0
13769,54.0,0.0,20.0,13.0,0.0
13770,64.0,0.0,20.0,11.0,0.0
13771,58.0,0.0,20.0,11.0,0.0
13772,76.0,0.0,20.0,11.0,0.0
13773,75.0,30.0,20.0,11.0,0.0
13774,54.0,0.0,20.0,12.0,0.0
13775,63.0,0.0,20.0,11.0,0.0
13776,54.0,0.0,20.0,13.0,0.0
13777,58.0,0.0,20.0,11.0,0.0
13778,55.0,0.0,20.0,11.0,0.0
13779,66.0,0.0,90.0,0.0,0.0
13780,78.0,0.0,90.0,0.0,0.0
13781,42.0,0.0,90.0,5.0,0.0
13782,78.0,0.0,90.0,1.0,0.0
13783,66.0,0.0,90.0,1.0,0.0
13784,42.0,0.0,20.0,13.0,0.0
13785,66.0,0.0,90.0,3.0,0.0
13786,78.0,0.0,90.0,3.0,0.0
13787,63.0,0.0,20.0,11.0,0.0
13788,42.0,0.0,20.0,12.0,0.0
13789,42.0,0.0,90.0,6.0,0.0
13790,54.0,0.0,90.0,6.0,0.0
13791,42.0,0.0,90.0,8.0,0.0
13792,54.0,0.0,90.0,4.0,0.0
13793,42.0,18.0,90.0,4.0,0.0
13794,54.0,0.0,20.0,11.0,0.0
13795,57.0,30.0,20.0,11.0,0.0
13796,75.0,0.0,20.0,11.0,0.0
13797,54.0,0.0,90.0,5.0,0.0
13798,63.0,0.0,20.0,11.0,0.0
13799,75.0,0.0,20.0,11.0,0.0
13800,57.0,0.0,20.0,11.0,0.0
13801,54.0,0.0,20.0,13.0,0.0
13802,54.0,30.0,20.0,11.0,0.0
13803,54.0,0.0,20.0,12.0,0.0
13804,75.0,0.0,20.0,11.0,0.0
13805,54.0,0.0,20.0,13.0,0.0
13806,54.0,0.0,20.0,11.0,0.0
13807,57.0,0.0,20.0,11.0,0.0
13808,63.0,0.0,20.0,11.0,0.0
13809,54.0,12.0,20.0,12.0,0.0
13810,57.0,30.0,20.0,11.0,0.0
13811,54.0,0.0,20.0,11.0,0.0
13812,75.0,0.0,20.0,11.0,0.0
13813,54.0,0.0,20.0,13.0,0.0
13814,63.0,0.0,20.0,11.0,0.0
13815,54.0,0.0,20.0,12.0,0.0
13816,56.0,0.0,20.0,11.0,0.0
13817,74.0,0.0,20.0,11.0,0.0
13818,62.0,0.0,20.0,11.0,0.0
13819,54.0,0.0,20.0,12.0,0.0
13820,53.0,30.0,20.0,11.0,0.0
13821,54.0,0.0,20.0,13.0,0.0
13822,54.0,0.0,20.0,12.0,0.0
13823,61.0,30.0,20.0,11.0,0.0
13824,53.0,0.0,20.0,11.0,0.0
13825,56.0,0.0,20.0,11.0,0.0
13826,54.0,0.0,20.0,13.0,0.0
13827,73.0,0.0,20.0,11.0,0.0
13828,42.0,0.0,90.0,4.0,0.0
13829,73.0,0.0,20.0,11.0,0.0
13830,61.0,0.0,20.0,11.0,0.0
13831,54.0,0.0,90.0,4.0,0.0
13832,66.0,0.0,90.0,3.0,0.0
13833,78.0,0.0,90.0,3.0,0.0
13834,42.0,30.0,20.0,13.0,0.0
13835,54.0,0.0,90.0,5.0,0.0
13836,66.0,0.0,90.0,0.0,0.0
13837,42.0,0.0,20.0,12.0,0.0
13838,42.0,0.0,90.0,8.0,0.0
13839,42.0,0.0,90.0,6.0,0.0
13840,52.0,0.0,20.0,11.0,0.0
13841,42.0,0.0,90.0,5.0,0.0
13842,78.0,0.0,90.0,0.0,0.0
13843,55.0,0.0,20.0,11.0,0.0
13844,54.0,0.0,90.0,6.0,0.0
13845,78.0,18.0,90.0,1.0,0.0
13846,66.0,0.0,90.0,1.0,0.0
13847,61.0,0.0,20.0,11.0,0.0
13848,52.0,0.0,20.0,11.0,0.0
13849,54.0,0.0,20.0,13.0,0.0
13850,55.0,0.0,20.0,11.0,0.0
13851,54.0,0.0,20.0,12.0,0.0
13852,73.0,30.0,20.0,11.0,0.0
13853,73.0,12.0,20.0,11.0,0.0
13854,54.0,0.0,20.0,13.0,0.0
13855,55.0,0.0,20.0,11.0,0.0
13856,52.0,0.0,20.0,11.0,0.0
13857,61.0,0.0,20.0,11.0,0.0
13858,54.0,0.0,20.0,12.0,0.0
13859,55.0,0.0,20.0,11.0,0.0
13860,54.0,0.0,20.0,12.0,0.0
13861,54.0,30.0,20.0,13.0,0.0
13862,61.0,0.0,20.0,11.0,0.0
13863,52.0,0.0,20.0,11.0,0.0
13864,73.0,0.0,20.0,11.0,0.0
13865,54.0,0.0,20.0,12.0,0.0
13866,51.0,0.0,20.0,11.0,0.0
13867,54.0,0.0,20.0,13.0,0.0
13868,54.0,30.0,20.0,11.0,0.0
13869,72.0,0.0,20.0,11.0,0.0
13870,60.0,0.0,20.0,11.0,0.0
13871,71.0,0.0,20.0,11.0,0.0
13872,54.0,30.0,20.0,13.0,0.0
13873,53.0,0.0,20.0,11.0,0.0
13874,59.0,0.0,20.0,11.0,0.0
13875,50.0,0.0,20.0,11.0,0.0
13876,54.0,0.0,20.0,12.0,0.0
13877,42.0,0.0,90.0,8.0,0.0
13878,71.0,0.0,20.0,11.0,0.0
13879,66.0,0.0,90.0,0.0,0.0
13880,78.0,0.0,90.0,0.0,0.0
13881,42.0,0.0,90.0,6.0,0.0
13882,54.0,0.0,90.0,6.0,0.0
13883,52.0,0.0,20.0,11.0,0.0
13884,42.0,0.0,20.0,13.0,0.0
13885,49.0,0.0,20.0,11.0,0.0
13886,54.0,0.0,90.0,4.0,0.0
13887,42.0,0.0,90.0,4.0,0.0
13888,78.0,0.0,90.0,1.0,0.0
13889,59.0,30.0,20.0,11.0,0.0
13890,78.0,0.0,90.0,3.0,0.0
13891,42.0,0.0,90.0,5.0,0.0
13892,54.0,0.0,90.0,5.0,0.0
13893,42.0,0.0,20.0,12.0,0.0
13894,66.0,18.0,90.0,3.0,0.0
13895,66.0,0.0,90.0,1.0,0.0
13896,54.0,0.0,20.0,13.0,0.0
13897,49.0,0.0,20.0,11.0,0.0
13898,71.0,0.0,20.0,11.0,0.0
13899,52.0,0.0,20.0,11.0,0.0
13900,59.0,0.0,20.0,11.0,0.0
13901,54.0,30.0,20.0,12.0,0.0
13902,49.0,0.0,20.0,11.0,0.0
13903,52.0,12.0,20.0,11.0,0.0
13904,59.0,0.0,20.0,11.0,0.0
13905,71.0,0.0,20.0,11.0,0.0
13906,54.0,0.0,20.0,13.0,0.0
13907,54.0,0.0,20.0,12.0,0.0
13908,71.0,0.0,20.0,11.0,0.0
13909,54.0,0.0,20.0,12.0,0.0
13910,54.0,0.0,20.0,13.0,0.0
13911,59.0,0.0,20.0,11.0,0.0
13912,49.0,30.0,20.0,11.0,0.0
13913,52.0,0.0,20.0,11.0,0.0
13914,59.0,0.0,20.0,11.0,0.0
13915,54.0,30.0,20.0,13.0,0.0
13916,52.0,0.0,20.0,11.0,0.0
13917,49.0,0.0,20.0,11.0,0.0
13918,71.0,0.0,20.0,11.0,0.0
13919,54.0,0.0,20.0,12.0,0.0
13920,49.0,0.0,20.0,11.0,0.0
13921,54.0,0.0,20.0,12.0,0.0
13922,58.0,0.0,20.0,11.0,0.0
13923,52.0,0.0,20.0,11.0,0.0
13924,54.0,30.0,20.0,13.0,0.0
13925,70.0,0.0,20.0,11.0,0.0
13926,42.0,0.0,20.0,13.0,0.0
13927,54.0,0.0,90.0,6.0,0.0
13928,52.0,0.0,20.0,11.0,0.0
13929,73.0,0.0,90.0,1.0,0.0
13930,61.0,0.0,90.0,6.0,0.0
13931,58.0,0.0,20.0,11.0,0.0
13932,52.0,0.0,90.0,4.0,0.0
13933,58.0,0.0,90.0,4.0,0.0
13934,73.0,0.0,90.0,3.0,0.0
13935,64.0,0.0,90.0,3.0,0.0
13936,70.0,0.0,20.0,11.0,0.0
13937,76.0,0.0,90.0,1.0,0.0
13938,54.0,18.0,90.0,5.0,0.0
13939,61.0,0.0,90.0,5.0,0.0
13940,49.0,0.0,20.0,11.0,0.0
13941,82.0,0.0,90.0,0.0,0.0
13942,85.0,0.0,90.0,0.0,0.0
13943,42.0,30.0,20.0,12.0,0.0
13944,42.0,0.0,90.0,8.0,0.0
13945,54.0,0.0,20.0,11.0,0.0
13946,58.0,0.0,20.0,11.0,0.0
13947,54.0,0.0,20.0,13.0,0.0
13948,70.0,0.0,20.0,11.0,0.0
13949,51.0,0.0,20.0,11.0,0.0
13950,54.0,30.0,20.0,12.0,0.0
13951,54.0,0.0,20.0,12.0,0.0
13952,54.0,0.0,20.0,13.0,0.0
13953,70.0,0.0,20.0,11.0,0.0
13954,49.0,0.0,20.0,11.0,0.0
13955,52.0,0.0,20.0,11.0,0.0
13956,58.0,12.0,20.0,11.0,0.0
13957,70.0,0.0,20.0,11.0,0.0
13958,49.0,0.0,20.0,11.0,0.0
13959,58.0,30.0,20.0,11.0,0.0
13960,54.0,0.0,20.0,13.0,0.0
13961,54.0,0.0,20.0,12.0,0.0
13962,52.0,0.0,20.0,11.0,0.0
13963,70.0,30.0,20.0,11.0,0.0
13964,54.0,0.0,20.0,12.0,0.0
13965,54.0,0.0,20.0,13.0,0.0
13966,52.0,0.0,20.0,11.0,0.0
13967,49.0,0.0,20.0,11.0,0.0
13968,58.0,0.0,20.0,11.0,0.0
13969,49.0,0.0,20.0,11.0,0.0
13970,54.0,30.0,20.0,13.0,0.0
13971,54.0,0.0,20.0,12.0,0.0
13972,58.0,0.0,20.0,11.0,0.0
13973,52.0,0.0,20.0,11.0,0.0
13974,70.0,0.0,20.0,11.0,0.0
13975,82.0,16.0,90.0,0.0,0.0
13976,52.0,30.0,20.0,11.0,0.0
13977,49.0,0.0,20.0,11.0,0.0
13978,85.0,0.0,90.0,0.0,0.0
13979,42.0,0.0,20.0,13.0,0.0
13980,54.0,0.0,90.0,5.0,0.0
13981,76.0,0.0,90.0,1.0,0.0
13982,58.0,0.0,20.0,11.0,0.0
13983,73.0,0.0,90.0,3.0,0.0
13984,64.0,0.0,90.0,3.0,0.0
13985,42.0,0.0,90.0,8.0,0.0
13986,70.0,0.0,20.0,11.0,0.0
13987,61.0,2.0,120.0,6.0,0.0
13988,61.0,0.0,90.0,5.0,0.0
13989,54.0,0.0,120.0,6.0,0.0
13990,73.0,0.0,90.0,1.0,0.0
13991,52.0,0.0,90.0,4.0,0.0
13992,58.0,0.0,90.0,4.0,0.0
13993,42.0,0.0,20.0,12.0,0.0
13994,54.0,0.0,20.0,12.0,0.0
13995,71.0,0.0,20.0,11.0,0.0
13996,54.0,0.0,20.0,13.0,0.0
13997,59.0,30.0,20.0,11.0,0.0
13998,52.0,0.0,20.0,11.0,0.0
13999,59.0,0.0,20.0,11.0,0.0
14000,52.0,0.0,20.0,11.0,0.0
14001,49.0,0.0,20.0,11.0,0.0
14002,42.0,12.0,20.0,13.0,0.0
14003,71.0,0.0,20.0,11.0,0.0
14004,42.0,0.0,20.0,12.0,0.0
14005,42.0,30.0,20.0,12.0,0.0
14006,73.0,0.0,20.0,11.0,0.0
14007,52.0,0.0,20.0,11.0,0.0
14008,54.0,0.0,20.0,11.0,0.0
14009,42.0,0.0,20.0,13.0,0.0
14010,61.0,0.0,20.0,11.0,0.0
14011,49.0,0.0,20.0,11.0,0.0
14012,73.0,30.0,20.0,11.0,0.0
14013,42.0,0.0,20.0,12.0,0.0
14014,49.0,0.0,20.0,11.0,0.0
14015,42.0,0.0,20.0,13.0,0.0
14016,52.0,0.0,20.0,11.0,0.0
14017,61.0,0.0,20.0,11.0,0.0
14018,54.0,0.0,20.0,11.0,0.0
14019,61.0,0.0,20.0,11.0,0.0
14020,49.0,30.0,20.0,11.0,0.0
14021,52.0,0.0,20.0,11.0,0.0
14022,42.0,0.0,20.0,13.0,0.0
14023,42.0,0.0,20.0,12.0,0.0
14024,73.0,0.0,20.0,11.0,0.0
14025,54.0,0.0,20.0,11.0,0.0
14026,47.0,0.0,20.0,12.0,0.0
14027,71.0,2.0,120.0,3.0,0.0
14028,63.0,0.0,120.0,3.0,0.0
14029,47.0,0.0,20.0,13.0,0.0
14030,59.0,0.0,90.0,5.0,0.0
14031,51.0,16.0,90.0,4.0,0.0
14032,61.0,26.0,30.0,11.0,0.0
14033,47.0,0.0,90.0,4.0,0.0
14034,87.0,0.0,90.0,0.0,0.0
14035,71.0,0.0,90.0,1.0,0.0
14036,75.0,0.0,90.0,1.0,0.0
14037,47.0,0.0,90.0,6.0,0.0
14038,47.0,0.0,90.0,8.0,0.0
14039,51.0,0.0,90.0,5.0,0.0
14040,78.0,0.0,90.0,0.0,0.0
14041,54.0,0.0,20.0,11.0,0.0
14042,51.0,4.0,20.0,11.0,0.0
14043,47.0,0.0,20.0,11.0,0.0
14044,73.0,0.0,20.0,11.0,0.0
14045,59.0,0.0,90.0,6.0,0.0
14046,47.0,0.0,20.0,13.0,0.0
14047,47.0,0.0,20.0,11.0,0.0
14048,51.0,30.0,20.0,11.0,0.0
14049,54.0,0.0,20.0,11.0,0.0
14050,73.0,0.0,20.0,11.0,0.0
14051,47.0,0.0,20.0,12.0,0.0
14052,61.0,0.0,20.0,11.0,0.0
14053,54.0,0.0,20.0,11.0,0.0
14054,47.0,0.0,20.0,11.0,0.0
14055,47.0,0.0,20.0,12.0,0.0
14056,51.0,0.0,20.0,11.0,0.0
14057,63.0,0.0,20.0,11.0,0.0
14058,47.0,12.0,20.0,13.0,0.0
14059,75.0,0.0,20.0,11.0,0.0
14060,47.0,0.0,20.0,13.0,0.0
14061,75.0,0.0,20.0,11.0,0.0
14062,63.0,0.0,20.0,11.0,0.0
14063,51.0,0.0,20.0,11.0,0.0
14064,47.0,0.0,20.0,11.0,0.0
14065,47.0,0.0,20.0,12.0,0.0
14066,54.0,30.0,20.0,11.0,0.0
14067,54.0,0.0,20.0,11.0,0.0
14068,47.0,0.0,20.0,11.0,0.0
14069,51.0,30.0,20.0,11.0,0.0
14070,47.0,0.0,20.0,13.0,0.0
14071,47.0,0.0,20.0,12.0,0.0
14072,71.0,0.0,20.0,11.0,0.0
14073,63.0,0.0,90.0,3.0,0.0
14074,71.0,60.0,90.0,3.0,0.0
14075,59.0,0.0,20.0,11.0,0.0
14076,54.0,0.0,20.0,11.0,0.0
14077,51.0,42.0,20.0,11.0,0.0
14078,47.0,0.0,20.0,11.0,0.0
14079,47.0,0.0,20.0,13.0,0.0
14080,47.0,0.0,20.0,12.0,0.0
14081,59.0,0.0,20.0,11.0,0.0
14082,71.0,0.0,20.0,11.0,0.0
14083,78.0,0.0,90.0,0.0,0.0
14084,59.0,16.0,90.0,11.0,0.0
14085,75.0,0.0,90.0,1.0,0.0
14086,51.0,0.0,90.0,5.0,0.0
14087,47.0,0.0,90.0,12.0,0.0
14088,83.0,0.0,90.0,0.0,0.0
14089,59.0,0.0,90.0,5.0,0.0
14090,51.0,0.0,90.0,11.0,0.0
14091,47.0,0.0,90.0,11.0,0.0
14092,59.0,0.0,90.0,6.0,0.0
14093,47.0,0.0,90.0,6.0,0.0
14094,71.0,0.0,90.0,1.0,0.0
14095,71.0,0.0,90.0,11.0,0.0
14096,47.0,0.0,90.0,4.0,0.0
14097,51.0,56.0,120.0,4.0,0.0
14098,47.0,0.0,90.0,13.0,0.0
14099,54.0,0.0,90.0,11.0,0.0
14100,47.0,0.0,90.0,8.0,0.0
14101,59.0,108.0,40.0,4.0,0.0
14102,58.0,72.0,90.0,4.0,0.0
14103,58.0,84.0,40.0,4.0,0.0
14104,58.0,42.0,60.0,4.0,0.0
14105,59.0,54.0,20.0,4.0,0.0
14106,61.0,60.0,40.0,4.0,0.0
14107,61.0,60.0,40.0,4.0,0.0
14108,63.0,60.0,40.0,4.0,0.0
14109,59.0,0.0,40.0,4.0,0.0
14110,47.0,0.0,40.0,5.0,0.0
14111,59.0,60.0,40.0,5.0,0.0
14112,47.0,0.0,40.0,5.0,0.0
14113,59.0,0.0,40.0,5.0,0.0
14114,59.0,60.0,40.0,4.0,0.0
14115,63.0,60.0,40.0,5.0,0.0
14116,51.0,0.0,40.0,5.0,0.0
14117,47.0,0.0,40.0,5.0,0.0
14118,59.0,36.0,40.0,5.0,0.0
14119,71.0,0.0,40.0,7.0,0.0
14120,83.0,0.0,40.0,7.0,0.0
14121,54.0,0.0,1890.0,5.0,0.0
14122,82.0,0.0,90.0,7.0,0.0
14123,49.0,30.0,20.0,10.0,0.0
14124,66.0,6.0,1890.0,5.0,0.0
14125,70.0,18.0,90.0,7.0,0.0
14126,52.0,0.0,20.0,10.0,0.0
14127,54.0,30.0,20.0,10.0,0.0
14128,58.0,12.0,20.0,10.0,0.0
14129,52.0,30.0,20.0,10.0,0.0
14130,54.0,0.0,20.0,10.0,0.0
14131,58.0,24.0,20.0,10.0,0.0
14132,70.0,0.0,40.0,7.0,0.0
14133,82.0,6.0,40.0,7.0,0.0
14134,54.0,30.0,20.0,10.0,0.0
14135,52.0,0.0,20.0,10.0,0.0
14136,42.0,30.0,20.0,10.0,0.0
14137,82.0,0.0,60.0,7.0,0.0
14138,70.0,12.0,60.0,7.0,0.0
14139,54.0,18.0,20.0,10.0,0.0
14140,52.0,0.0,20.0,10.0,0.0
14141,58.0,30.0,20.0,10.0,0.0
14142,83.0,0.0,20.0,7.0,0.0
14143,71.0,0.0,20.0,7.0,0.0
14144,52.0,30.0,20.0,10.0,0.0
14145,54.0,0.0,20.0,10.0,0.0
14146,85.0,6.0,40.0,7.0,0.0
14147,73.0,0.0,40.0,7.0,0.0
14148,58.0,24.0,20.0,10.0,0.0
14149,52.0,30.0,20.0,10.0,0.0
14150,54.0,0.0,20.0,10.0,0.0
14151,85.0,6.0,40.0,7.0,0.0
14152,47.0,24.0,20.0,10.0,0.0
14153,73.0,0.0,40.0,7.0,0.0
14154,54.0,30.0,20.0,10.0,0.0
14155,51.0,0.0,20.0,10.0,0.0
14156,87.0,0.0,40.0,7.0,0.0
14157,75.0,6.0,40.0,7.0,0.0
14158,59.0,24.0,20.0,10.0,0.0
14159,54.0,30.0,20.0,10.0,0.0
14160,51.0,0.0,20.0,10.0,0.0
14161,71.0,6.0,40.0,7.0,0.0
14162,83.0,0.0,40.0,7.0,0.0
14163,59.0,24.0,20.0,10.0,0.0
14164,54.0,0.0,20.0,10.0,0.0
14165,51.0,30.0,20.0,10.0,0.0
14166,42.0,30.0,20.0,10.0,0.0
14167,71.0,0.0,60.0,7.0,0.0
14168,83.0,12.0,60.0,7.0,0.0
14169,54.0,0.0,20.0,10.0,0.0
14170,51.0,18.0,20.0,10.0,0.0
14171,59.0,30.0,20.0,10.0,0.0
14172,85.0,0.0,20.0,7.0,0.0
14173,51.0,30.0,20.0,10.0,0.0
14174,54.0,0.0,20.0,10.0,0.0
14175,73.0,0.0,20.0,7.0,0.0
14176,87.0,6.0,40.0,7.0,0.0
14177,75.0,0.0,40.0,7.0,0.0
14178,59.0,24.0,20.0,10.0,0.0
14179,51.0,0.0,20.0,10.0,0.0
14180,54.0,30.0,20.0,10.0,0.0
14181,87.0,0.0,40.0,7.0,0.0
14182,49.0,24.0,20.0,10.0,0.0
14183,35.0,12.0,90.0,14.0,0.0
14184,47.0,0.0,90.0,14.0,0.0
14185,75.0,6.0,40.0,7.0,0.0
14186,52.0,30.0,20.0,10.0,0.0
14187,54.0,0.0,20.0,10.0,0.0
14188,76.0,0.0,40.0,7.0,0.0
14189,88.0,6.0,40.0,7.0,0.0
14190,58.0,12.0,20.0,10.0,0.0
14191,52.0,30.0,20.0,10.0,0.0
14192,54.0,0.0,20.0,10.0,0.0
14193,85.0,0.0,40.0,7.0,0.0
14194,73.0,6.0,40.0,7.0,0.0
14195,58.0,24.0,20.0,10.0,0.0
14196,54.0,30.0,20.0,10.0,0.0
14197,52.0,0.0,20.0,10.0,0.0
14198,73.0,0.0,60.0,7.0,0.0
14199,42.0,30.0,20.0,10.0,0.0
14200,30.0,18.0,90.0,14.0,0.0
14201,42.0,0.0,90.0,14.0,0.0
14202,85.0,12.0,60.0,7.0,0.0
14203,54.0,18.0,20.0,10.0,0.0
14204,52.0,0.0,20.0,10.0,0.0
14205,58.0,12.0,20.0,10.0,0.0
14206,52.0,30.0,20.0,10.0,0.0
14207,54.0,0.0,20.0,10.0,0.0
14208,75.0,0.0,20.0,7.0,0.0
14209,87.0,0.0,20.0,7.0,0.0
14210,88.0,0.0,40.0,7.0,0.0
14211,76.0,6.0,40.0,7.0,0.0
14212,58.0,24.0,20.0,10.0,0.0
14213,54.0,0.0,20.0,10.0,0.0
14214,52.0,18.0,20.0,10.0,0.0
14215,37.0,6.0,90.0,14.0,0.0
14216,47.0,3.0,20.0,10.0,0.0
14217,90.0,12.0,15.0,7.0,0.0
14218,49.0,0.0,90.0,14.0,0.0
14219,92.0,15.0,15.0,7.0,0.0
14220,54.0,3.0,20.0,10.0,0.0
14221,90.0,12.0,15.0,7.0,0.0
14222,51.0,0.0,20.0,10.0,0.0
14223,92.0,15.0,15.0,7.0,0.0
14224,59.0,3.0,20.0,10.0,0.0
14225,90.0,12.0,15.0,7.0,0.0
14226,92.0,9.0,15.0,7.0,0.0
14227,90.0,12.0,15.0,7.0,0.0
14228,51.0,0.0,20.0,10.0,0.0
14229,54.0,3.0,20.0,10.0,0.0
14230,92.0,15.0,15.0,7.0,0.0
14231,59.0,0.0,40.0,11.0,0.0
14232,90.0,12.0,15.0,7.0,0.0
14233,59.0,3.0,20.0,10.0,0.0
14234,47.0,6.0,40.0,11.0,0.0
14235,92.0,15.0,15.0,7.0,0.0
14236,51.0,3.0,20.0,10.0,0.0
14237,90.0,6.0,15.0,7.0,0.0
14238,54.0,0.0,20.0,10.0,0.0
14239,92.0,15.0,15.0,7.0,0.0
14240,90.0,12.0,15.0,7.0,0.0
14241,59.0,0.0,60.0,11.0,0.0
14242,30.0,6.0,90.0,14.0,0.0
14243,47.0,12.0,60.0,11.0,0.0
14244,42.0,3.0,20.0,10.0,0.0
14245,42.0,0.0,90.0,14.0,0.0
14246,92.0,15.0,15.0,7.0,0.0
14247,90.0,12.0,15.0,7.0,0.0
14248,54.0,3.0,20.0,10.0,0.0
14249,51.0,0.0,20.0,10.0,0.0
14250,92.0,15.0,15.0,7.0,0.0
14251,90.0,0.0,15.0,7.0,0.0
14252,59.0,3.0,20.0,10.0,0.0
14253,92.0,9.0,15.0,7.0,0.0
14254,49.0,0.0,20.0,11.0,0.0
14255,90.0,12.0,15.0,7.0,0.0
14256,54.0,3.0,20.0,10.0,0.0
14257,51.0,0.0,20.0,10.0,0.0
14258,61.0,0.0,20.0,11.0,0.0
14259,92.0,15.0,15.0,7.0,0.0
14260,59.0,3.0,20.0,10.0,0.0
14261,90.0,12.0,15.0,7.0,0.0
14262,63.0,6.0,40.0,11.0,0.0
14263,51.0,0.0,40.0,11.0,0.0
14264,92.0,15.0,15.0,7.0,0.0
14265,54.0,3.0,20.0,10.0,0.0
14266,51.0,0.0,20.0,10.0,0.0
14267,90.0,6.0,15.0,7.0,0.0
14268,92.0,15.0,15.0,7.0,0.0
14269,49.0,3.0,20.0,10.0,0.0
14270,47.0,6.0,90.0,14.0,0.0
14271,35.0,0.0,90.0,14.0,0.0
14272,90.0,12.0,15.0,7.0,0.0
14273,64.0,6.0,40.0,11.0,0.0
14274,52.0,13.0,60.0,11.0,0.0
14275,92.0,15.0,15.0,7.0,0.0
14276,52.0,3.0,20.0,10.0,0.0
14277,90.0,6.0,15.0,7.0,0.0
14278,54.0,0.0,20.0,10.0,0.0
14279,92.0,2.0,15.0,7.0,0.0
14280,58.0,3.0,20.0,10.0,0.0
14281,90.0,12.0,15.0,7.0,0.0
14282,92.0,9.0,15.0,7.0,0.0
14283,90.0,12.0,15.0,7.0,0.0
14284,52.0,0.0,20.0,10.0,0.0
14285,54.0,3.0,20.0,10.0,0.0
14286,92.0,15.0,15.0,7.0,0.0
14287,49.0,0.0,40.0,11.0,0.0
14288,61.0,6.0,40.0,11.0,0.0
14289,90.0,12.0,15.0,7.0,0.0
14290,58.0,3.0,20.0,10.0,0.0
14291,92.0,15.0,15.0,7.0,0.0
14292,54.0,3.0,20.0,10.0,0.0
14293,52.0,0.0,20.0,10.0,0.0
14294,90.0,6.0,15.0,7.0,0.0
14295,92.0,15.0,15.0,7.0,0.0
14296,90.0,12.0,15.0,7.0,0.0
14297,49.0,0.0,60.0,11.0,0.0
14298,61.0,12.0,60.0,11.0,0.0
14299,30.0,6.0,90.0,14.0,0.0
14300,42.0,0.0,90.0,14.0,0.0
14301,42.0,3.0,20.0,10.0,0.0
14302,92.0,15.0,15.0,7.0,0.0
14303,54.0,0.0,20.0,10.0,0.0
14304,90.0,12.0,15.0,7.0,0.0
14305,52.0,3.0,20.0,10.0,0.0
14306,92.0,15.0,15.0,7.0,0.0
14307,90.0,0.0,15.0,7.0,0.0
14308,58.0,3.0,20.0,10.0,0.0
14309,92.0,9.0,15.0,7.0,0.0
14310,90.0,12.0,15.0,7.0,0.0
14311,51.0,14.0,30.0,11.0,0.0
14312,54.0,3.0,20.0,10.0,0.0
14313,52.0,0.0,20.0,10.0,0.0
14314,63.0,0.0,20.0,11.0,0.0
14315,92.0,1.0,15.0,7.0,0.0
14316,52.0,6.0,40.0,11.0,0.0
14317,64.0,0.0,40.0,11.0,0.0
14318,90.0,12.0,15.0,7.0,0.0
14319,58.0,3.0,20.0,10.0,0.0
14320,92.0,15.0,15.0,7.0,0.0
14321,90.0,6.0,15.0,7.0,0.0
14322,52.0,0.0,20.0,10.0,0.0
14323,54.0,3.0,20.0,10.0,0.0
14324,92.0,15.0,15.0,7.0,0.0
14325,47.0,3.0,20.0,10.0,0.0
14326,66.0,13.0,300.0,11.0,0.0
14327,54.0,0.0,300.0,11.0,0.0
14328,54.0,0.0,90.0,14.0,0.0
14329,42.0,0.0,90.0,14.0,0.0
14330,90.0,12.0,15.0,7.0,0.0
14331,92.0,15.0,15.0,7.0,0.0
14332,51.0,0.0,20.0,10.0,0.0
14333,54.0,3.0,20.0,10.0,0.0
14334,90.0,12.0,15.0,7.0,0.0
14335,92.0,15.0,15.0,7.0,0.0
14336,59.0,3.0,20.0,10.0,0.0
14337,90.0,12.0,15.0,7.0,0.0
14338,92.0,9.0,15.0,7.0,0.0
14339,90.0,12.0,15.0,7.0,0.0
14340,54.0,0.0,20.0,10.0,0.0
14341,51.0,3.0,20.0,10.0,0.0
14342,92.0,15.0,15.0,7.0,0.0
14343,59.0,3.0,20.0,10.0,0.0
14344,90.0,12.0,15.0,7.0,0.0
14345,71.0,6.0,40.0,1.0,0.0
14346,51.0,0.0,40.0,5.0,0.0
14347,59.0,0.0,40.0,5.0,0.0
14348,66.0,0.0,40.0,3.0,0.0
14349,92.0,15.0,15.0,7.0,0.0
14350,54.0,0.0,20.0,10.0,0.0
14351,51.0,3.0,20.0,10.0,0.0
14352,90.0,6.0,15.0,7.0,0.0
14353,92.0,15.0,15.0,7.0,0.0
14354,66.0,12.0,60.0,3.0,0.0
14355,42.0,6.0,90.0,14.0,0.0
14356,30.0,0.0,90.0,14.0,0.0
14357,90.0,12.0,15.0,7.0,0.0
14358,59.0,0.0,60.0,5.0,0.0
14359,51.0,0.0,60.0,5.0,0.0
14360,42.0,3.0,20.0,10.0,0.0
14361,71.0,0.0,60.0,1.0,0.0
14362,92.0,15.0,15.0,7.0,0.0
14363,90.0,12.0,15.0,7.0,0.0
14364,54.0,3.0,20.0,10.0,0.0
14365,51.0,0.0,20.0,10.0,0.0
14366,92.0,15.0,15.0,7.0,0.0
14367,59.0,3.0,20.0,10.0,0.0
14368,90.0,0.0,15.0,7.0,0.0
14369,92.0,9.0,15.0,7.0,0.0
14370,70.0,0.0,20.0,3.0,0.0
14371,90.0,12.0,15.0,7.0,0.0
14372,51.0,0.0,20.0,10.0,0.0
14373,54.0,3.0,20.0,5.0,0.0
14374,54.0,0.0,20.0,10.0,0.0
14375,73.0,0.0,20.0,1.0,0.0
14376,61.0,0.0,20.0,5.0,0.0
14377,92.0,2.0,15.0,7.0,0.0
14378,90.0,12.0,15.0,7.0,0.0
14379,71.0,0.0,40.0,3.0,0.0
14380,59.0,3.0,20.0,10.0,0.0
14381,59.0,6.0,40.0,5.0,0.0
14382,63.0,0.0,40.0,5.0,0.0
14383,75.0,0.0,40.0,1.0,0.0
14384,92.0,15.0,15.0,7.0,0.0
14385,90.0,6.0,15.0,7.0,0.0
14386,51.0,0.0,20.0,10.0,0.0
14387,54.0,3.0,20.0,10.0,0.0
14388,92.0,15.0,15.0,7.0,0.0
14389,51.0,0.0,90.0,11.0,0.0
14390,49.0,3.0,20.0,10.0,0.0
14391,70.0,0.0,40.0,3.0,0.0
14392,61.0,0.0,40.0,5.0,0.0
14393,64.0,0.0,40.0,5.0,0.0
14394,63.0,0.0,90.0,11.0,0.0
14395,90.0,12.0,15.0,7.0,0.0
14396,35.0,6.0,90.0,14.0,0.0
14397,47.0,0.0,90.0,14.0,0.0
14398,76.0,6.0,40.0,1.0,0.0
14399,92.0,15.0,15.0,7.0,0.0
14400,52.0,0.0,20.0,10.0,0.0
14401,54.0,3.0,20.0,10.0,0.0
14402,90.0,6.0,15.0,7.0,0.0
14403,92.0,15.0,15.0,7.0,0.0
14404,58.0,3.0,20.0,10.0,0.0
14405,90.0,12.0,15.0,7.0,0.0
14406,92.0,9.0,15.0,7.0,0.0
14407,54.0,0.0,20.0,10.0,0.0
14408,52.0,3.0,20.0,10.0,0.0
14409,90.0,12.0,15.0,7.0,0.0
14410,92.0,15.0,15.0,7.0,0.0
14411,61.0,0.0,40.0,5.0,0.0
14412,73.0,0.0,40.0,1.0,0.0
14413,70.0,0.0,40.0,3.0,0.0
14414,54.0,6.0,40.0,5.0,0.0
14415,58.0,3.0,20.0,10.0,0.0
14416,90.0,12.0,15.0,7.0,0.0
14417,92.0,15.0,15.0,7.0,0.0
14418,52.0,0.0,20.0,10.0,0.0
14419,90.0,6.0,15.0,7.0,0.0
14420,54.0,3.0,20.0,10.0,0.0
14421,92.0,15.0,15.0,7.0,0.0
14422,70.0,0.0,60.0,3.0,0.0
14423,73.0,0.0,60.0,1.0,0.0
14424,42.0,3.0,20.0,10.0,0.0
14425,61.0,12.0,60.0,5.0,0.0
14426,54.0,0.0,60.0,5.0,0.0
14427,90.0,12.0,15.0,7.0,0.0
14428,92.0,15.0,15.0,7.0,0.0
14429,52.0,0.0,20.0,10.0,0.0
14430,54.0,3.0,20.0,10.0,0.0
14431,90.0,12.0,15.0,7.0,0.0
14432,92.0,15.0,15.0,7.0,0.0
14433,90.0,0.0,15.0,7.0,0.0
14434,58.0,3.0,20.0,10.0,0.0
14435,92.0,15.0,15.0,7.0,0.0
14436,75.0,0.0,20.0,1.0,0.0
14437,71.0,3.0,20.0,3.0,0.0
14438,54.0,0.0,20.0,10.0,0.0
14439,52.0,0.0,20.0,10.0,0.0
14440,90.0,12.0,15.0,7.0,0.0
14441,63.0,0.0,20.0,5.0,0.0
14442,59.0,0.0,20.0,5.0,0.0
14443,92.0,15.0,15.0,7.0,0.0
14444,61.0,6.0,40.0,5.0,0.0
14445,64.0,0.0,40.0,5.0,0.0
14446,76.0,0.0,40.0,1.0,0.0
14447,90.0,12.0,15.0,7.0,0.0
14448,73.0,0.0,40.0,3.0,0.0
14449,58.0,3.0,20.0,10.0,0.0
14450,92.0,15.0,15.0,7.0,0.0
14451,90.0,6.0,15.0,7.0,0.0
14452,54.0,3.0,20.0,10.0,0.0
14453,52.0,0.0,20.0,10.0,0.0
14454,92.0,27.0,15.0,7.0,0.0
14455,75.0,0.0,90.0,3.0,0.0
14456,63.0,0.0,90.0,5.0,0.0
14457,66.0,0.0,90.0,5.0,0.0
14458,78.0,18.0,90.0,1.0,0.0
14459,78.0,0.0,60.0,7.0,0.0
14460,47.0,30.0,20.0,10.0,0.0
14461,90.0,12.0,60.0,7.0,0.0
14462,51.0,0.0,20.0,10.0,0.0
14463,54.0,18.0,20.0,10.0,0.0
14464,59.0,12.0,20.0,10.0,0.0
14465,76.0,0.0,20.0,7.0,0.0
14466,88.0,0.0,20.0,7.0,0.0
14467,51.0,30.0,20.0,10.0,0.0
14468,54.0,0.0,20.0,10.0,0.0
14469,75.0,6.0,40.0,7.0,0.0
14470,87.0,0.0,40.0,7.0,0.0
14471,59.0,24.0,20.0,10.0,0.0
14472,54.0,0.0,20.0,10.0,0.0
14473,51.0,30.0,20.0,10.0,0.0
14474,47.0,30.0,20.0,10.0,0.0
14475,75.0,12.0,60.0,7.0,0.0
14476,87.0,0.0,60.0,7.0,0.0
14477,51.0,18.0,20.0,10.0,0.0
14478,54.0,0.0,20.0,10.0,0.0
14479,59.0,30.0,20.0,10.0,0.0
14480,73.0,0.0,20.0,7.0,0.0
14481,85.0,0.0,20.0,7.0,0.0
14482,51.0,0.0,20.0,10.0,0.0
14483,54.0,30.0,20.0,10.0,0.0
14484,71.0,6.0,40.0,7.0,0.0
14485,83.0,0.0,40.0,7.0,0.0
14486,59.0,24.0,20.0,10.0,0.0
14487,54.0,0.0,20.0,10.0,0.0
14488,51.0,30.0,20.0,10.0,0.0
14489,71.0,12.0,60.0,7.0,0.0
14490,83.0,0.0,60.0,7.0,0.0
14491,47.0,30.0,20.0,10.0,0.0
14492,54.0,18.0,20.0,10.0,0.0
14493,51.0,0.0,20.0,10.0,0.0
14494,59.0,30.0,20.0,10.0,0.0
14495,54.0,0.0,20.0,10.0,0.0
14496,51.0,0.0,20.0,10.0,0.0
14497,85.0,30.0,20.0,7.0,0.0
14498,73.0,0.0,20.0,7.0,0.0
14499,87.0,6.0,40.0,7.0,0.0
14500,75.0,0.0,40.0,7.0,0.0
14501,59.0,24.0,20.0,10.0,0.0
14502,51.0,30.0,20.0,10.0,0.0
14503,54.0,0.0,20.0,10.0,0.0
14504,47.0,30.0,20.0,10.0,0.0
14505,71.0,0.0,60.0,3.0,0.0
14506,63.0,12.0,60.0,5.0,0.0
14507,75.0,0.0,60.0,7.0,0.0
14508,87.0,0.0,60.0,7.0,0.0
14509,75.0,0.0,60.0,1.0,0.0
14510,59.0,0.0,60.0,5.0,0.0
14511,51.0,18.0,20.0,10.0,0.0
14512,54.0,0.0,20.0,10.0,0.0
14513,59.0,30.0,20.0,10.0,0.0
14514,75.0,0.0,20.0,1.0,0.0
14515,88.0,0.0,20.0,7.0,0.0
14516,54.0,30.0,20.0,10.0,0.0
14517,51.0,0.0,20.0,10.0,0.0
14518,76.0,0.0,20.0,7.0,0.0
14519,59.0,0.0,20.0,5.0,0.0
14520,71.0,0.0,20.0,3.0,0.0
14521,63.0,0.0,20.0,5.0,0.0
14522,63.0,0.0,40.0,5.0,0.0
14523,59.0,0.0,40.0,5.0,0.0
14524,59.0,24.0,20.0,10.0,0.0
14525,90.0,0.0,40.0,7.0,0.0
14526,75.0,0.0,40.0,1.0,0.0
14527,71.0,6.0,40.0,3.0,0.0
14528,78.0,0.0,40.0,7.0,0.0
14529,54.0,30.0,20.0,10.0,0.0
14530,51.0,0.0,20.0,10.0,0.0
14531,40.0,30.0,20.0,10.0,0.0
14532,92.0,0.0,60.0,7.0,0.0
14533,80.0,12.0,60.0,7.0,0.0
14534,47.0,18.0,20.0,10.0,0.0
14535,52.0,0.0,20.0,10.0,0.0
14536,49.0,0.0,20.0,10.0,0.0
14537,56.0,30.0,20.0,10.0,0.0
14538,78.0,30.0,20.0,7.0,0.0
14539,47.0,0.0,20.0,10.0,0.0
14540,52.0,0.0,20.0,10.0,0.0
14541,49.0,0.0,20.0,10.0,0.0
14542,90.0,0.0,20.0,7.0,0.0
14543,88.0,0.0,40.0,7.0,0.0
14544,56.0,24.0,20.0,10.0,0.0
14545,76.0,6.0,40.0,7.0,0.0
14546,47.0,0.0,20.0,10.0,0.0
14547,49.0,0.0,20.0,10.0,0.0
14548,52.0,30.0,20.0,10.0,0.0
14549,40.0,30.0,20.0,10.0,0.0
14550,76.0,0.0,60.0,7.0,0.0
14551,88.0,12.0,60.0,7.0,0.0
14552,47.0,0.0,20.0,10.0,0.0
14553,52.0,18.0,20.0,10.0,0.0
14554,49.0,0.0,20.0,10.0,0.0
14555,56.0,30.0,20.0,10.0,0.0
14556,49.0,0.0,20.0,10.0,0.0
14557,52.0,30.0,20.0,10.0,0.0
14558,47.0,0.0,20.0,10.0,0.0
14559,75.0,0.0,20.0,7.0,0.0
14560,87.0,0.0,20.0,7.0,0.0
14561,56.0,24.0,20.0,10.0,0.0
14562,73.0,6.0,40.0,7.0,0.0
14563,85.0,0.0,40.0,7.0,0.0
14564,47.0,0.0,20.0,10.0,0.0
14565,49.0,30.0,20.0,10.0,0.0
14566,52.0,0.0,20.0,10.0,0.0
14567,40.0,30.0,20.0,10.0,0.0
14568,85.0,12.0,60.0,7.0,0.0
14569,73.0,0.0,60.0,7.0,0.0
14570,52.0,18.0,20.0,10.0,0.0
14571,47.0,0.0,20.0,10.0,0.0
14572,49.0,0.0,20.0,10.0,0.0
14573,56.0,30.0,20.0,10.0,0.0
14574,87.0,0.0,20.0,7.0,0.0
14575,75.0,0.0,20.0,7.0,0.0
14576,52.0,0.0,20.0,10.0,0.0
14577,47.0,30.0,20.0,10.0,0.0
14578,49.0,0.0,20.0,10.0,0.0
14579,88.0,6.0,40.0,7.0,0.0
14580,56.0,24.0,20.0,10.0,0.0
14581,76.0,0.0,40.0,7.0,0.0
14582,49.0,30.0,20.0,10.0,0.0
14583,47.0,0.0,20.0,10.0,0.0
14584,52.0,0.0,20.0,10.0,0.0
14585,61.0,12.0,60.0,5.0,0.0
14586,73.0,0.0,60.0,1.0,0.0
14587,76.0,0.0,60.0,7.0,0.0
14588,88.0,0.0,60.0,7.0,0.0
14589,40.0,30.0,20.0,10.0,0.0
14590,71.0,0.0,60.0,3.0,0.0
14591,59.0,0.0,60.0,5.0,0.0
14592,52.0,18.0,20.0,10.0,0.0
14593,47.0,0.0,20.0,10.0,0.0
14594,49.0,0.0,20.0,10.0,0.0
14595,56.0,30.0,20.0,10.0,0.0
14596,47.0,0.0,20.0,10.0,0.0
14597,61.0,0.0,20.0,5.0,0.0
14598,59.0,0.0,20.0,5.0,0.0
14599,78.0,30.0,20.0,7.0,0.0
14600,90.0,0.0,20.0,7.0,0.0
14601,52.0,0.0,20.0,10.0,0.0
14602,49.0,0.0,20.0,10.0,0.0
14603,73.0,0.0,20.0,1.0,0.0
14604,71.0,0.0,20.0,3.0,0.0
14605,92.0,0.0,40.0,7.0,0.0
14606,80.0,0.0,40.0,7.0,0.0
14607,73.0,0.0,40.0,1.0,0.0
14608,59.0,0.0,40.0,5.0,0.0
14609,71.0,6.0,40.0,3.0,0.0
14610,56.0,24.0,20.0,10.0,0.0
14611,61.0,0.0,40.0,5.0,0.0
14612,49.0,30.0,20.0,10.0,0.0
14613,52.0,0.0,20.0,10.0,0.0
14614,47.0,0.0,20.0,10.0,0.0
14615,42.0,24.0,20.0,10.0,0.0
14616,80.0,0.0,40.0,7.0,0.0
14617,51.0,0.0,20.0,11.0,0.0
14618,47.0,0.0,20.0,11.0,0.0
14619,92.0,6.0,40.0,7.0,0.0
14620,51.0,0.0,20.0,11.0,0.0
14621,47.0,30.0,20.0,10.0,0.0
14622,51.0,0.0,20.0,10.0,0.0
14623,47.0,0.0,20.0,11.0,0.0
14624,47.0,0.0,20.0,11.0,0.0
14625,51.0,0.0,20.0,11.0,0.0
14626,59.0,24.0,20.0,10.0,0.0
14627,78.0,6.0,40.0,7.0,0.0
14628,90.0,0.0,40.0,7.0,0.0
14629,51.0,0.0,20.0,11.0,0.0
14630,51.0,30.0,20.0,10.0,0.0
14631,47.0,0.0,20.0,11.0,0.0
14632,47.0,0.0,20.0,10.0,0.0
14633,88.0,6.0,40.0,7.0,0.0
14634,76.0,0.0,40.0,7.0,0.0
14635,59.0,24.0,20.0,10.0,0.0
14636,47.0,0.0,20.0,11.0,0.0
14637,51.0,0.0,20.0,11.0,0.0
14638,51.0,30.0,20.0,11.0,0.0
14639,47.0,0.0,20.0,10.0,0.0
14640,51.0,0.0,20.0,10.0,0.0
14641,47.0,0.0,20.0,11.0,0.0
14642,75.0,0.0,40.0,7.0,0.0
14643,87.0,6.0,40.0,7.0,0.0
14644,42.0,0.0,20.0,10.0,0.0
14645,51.0,24.0,20.0,11.0,0.0
14646,47.0,0.0,20.0,11.0,0.0
14647,47.0,30.0,20.0,11.0,0.0
14648,47.0,0.0,20.0,10.0,0.0
14649,51.0,0.0,20.0,10.0,0.0
14650,51.0,0.0,20.0,11.0,0.0
14651,85.0,0.0,40.0,7.0,0.0
14652,51.0,0.0,20.0,11.0,0.0
14653,73.0,6.0,40.0,7.0,0.0
14654,47.0,0.0,20.0,11.0,0.0
14655,59.0,24.0,20.0,10.0,0.0
14656,51.0,0.0,20.0,10.0,0.0
14657,47.0,0.0,20.0,10.0,0.0
14658,51.0,0.0,20.0,11.0,0.0
14659,47.0,30.0,20.0,11.0,0.0
14660,59.0,0.0,20.0,10.0,0.0
14661,47.0,0.0,20.0,11.0,0.0
14662,71.0,0.0,40.0,7.0,0.0
14663,83.0,6.0,40.0,7.0,0.0
14664,51.0,24.0,20.0,11.0,0.0
14665,51.0,0.0,20.0,10.0,0.0
14666,51.0,0.0,20.0,11.0,0.0
14667,47.0,30.0,20.0,11.0,0.0
14668,47.0,0.0,20.0,10.0,0.0
14669,42.0,30.0,20.0,10.0,0.0
14670,59.0,0.0,20.0,11.0,0.0
14671,71.0,0.0,150.0,7.0,0.0
14672,47.0,0.0,20.0,11.0,0.0
14673,83.0,0.0,150.0,7.0,0.0
14674,51.0,0.0,20.0,11.0,0.0
14675,47.0,18.0,90.0,12.0,0.0
14676,51.0,30.0,20.0,11.0,0.0
14677,54.0,0.0,20.0,11.0,0.0
14678,47.0,0.0,20.0,10.0,0.0
14679,51.0,0.0,20.0,10.0,0.0
14680,47.0,0.0,20.0,11.0,0.0
14681,59.0,12.0,20.0,10.0,0.0
14682,51.0,0.0,20.0,11.0,0.0
14683,47.0,0.0,20.0,11.0,0.0
14684,54.0,0.0,20.0,11.0,0.0
14685,54.0,30.0,20.0,11.0,0.0
14686,47.0,0.0,20.0,10.0,0.0
14687,51.0,0.0,20.0,10.0,0.0
14688,51.0,0.0,20.0,11.0,0.0
14689,47.0,0.0,20.0,11.0,0.0
14690,51.0,0.0,20.0,11.0,0.0
14691,47.0,30.0,20.0,11.0,0.0
14692,59.0,0.0,20.0,10.0,0.0
14693,54.0,0.0,20.0,11.0,0.0
14694,51.0,0.0,20.0,10.0,0.0
14695,54.0,0.0,20.0,11.0,0.0
14696,51.0,30.0,20.0,11.0,0.0
14697,47.0,0.0,20.0,11.0,0.0
14698,47.0,0.0,20.0,10.0,0.0
14699,54.0,0.0,20.0,11.0,0.0
14700,42.0,30.0,20.0,10.0,0.0
14701,75.0,18.0,90.0,7.0,0.0
14702,52.0,0.0,20.0,11.0,0.0
14703,70.0,0.0,60.0,1.0,0.0
14704,54.0,0.0,60.0,5.0,0.0
14705,61.0,0.0,60.0,5.0,0.0
14706,87.0,0.0,90.0,7.0,0.0
14707,64.0,12.0,60.0,3.0,0.0
14708,46.0,0.0,20.0,11.0,0.0
14709,42.0,0.0,90.0,12.0,0.0
14710,46.0,0.0,20.0,11.0,0.0
14711,52.0,0.0,20.0,11.0,0.0
14712,54.0,18.0,20.0,11.0,0.0
14713,52.0,0.0,20.0,10.0,0.0
14714,49.0,0.0,20.0,10.0,0.0
14715,58.0,0.0,20.0,10.0,0.0
14716,54.0,0.0,20.0,11.0,0.0
14717,46.0,12.0,20.0,11.0,0.0
14718,52.0,0.0,20.0,11.0,0.0
14719,54.0,30.0,20.0,5.0,0.0
14720,49.0,0.0,20.0,10.0,0.0
14721,52.0,0.0,20.0,10.0,0.0
14722,54.0,0.0,20.0,11.0,0.0
14723,64.0,0.0,20.0,3.0,0.0
14724,61.0,0.0,20.0,5.0,0.0
14725,46.0,0.0,20.0,11.0,0.0
14726,70.0,0.0,20.0,1.0,0.0
14727,52.0,0.0,20.0,11.0,0.0
14728,85.0,0.0,40.0,7.0,0.0
14729,73.0,0.0,40.0,7.0,0.0
14730,70.0,0.0,40.0,1.0,0.0
14731,46.0,0.0,20.0,11.0,0.0
14732,54.0,6.0,40.0,5.0,0.0
14733,61.0,0.0,40.0,5.0,0.0
14734,52.0,0.0,20.0,11.0,0.0
14735,64.0,0.0,40.0,3.0,0.0
14736,58.0,0.0,20.0,10.0,0.0
14737,54.0,0.0,20.0,11.0,0.0
14738,52.0,0.0,20.0,11.0,0.0
14739,54.0,0.0,20.0,11.0,0.0
14740,49.0,0.0,20.0,10.0,0.0
14741,52.0,0.0,20.0,10.0,0.0
14742,46.0,30.0,20.0,11.0,0.0
14743,75.0,0.0,90.0,1.0,0.0
14744,51.0,0.0,90.0,11.0,0.0
14745,51.0,0.0,90.0,5.0,0.0
14746,59.0,0.0,90.0,5.0,0.0
14747,47.0,0.0,90.0,6.0,0.0
14748,71.0,0.0,90.0,7.0,0.0
14749,83.0,0.0,90.0,7.0,0.0
14750,47.0,0.0,90.0,11.0,0.0
14751,66.0,0.0,90.0,3.0,0.0
14752,63.0,0.0,90.0,3.0,0.0
14753,71.0,0.0,90.0,1.0,0.0
14754,49.0,0.0,90.0,12.0,0.0
14755,54.0,30.0,20.0,11.0,0.0
14756,54.0,0.0,90.0,10.0,0.0
14757,83.0,0.0,90.0,0.0,0.0
14758,59.0,0.0,90.0,4.0,0.0
14759,51.0,0.0,90.0,4.0,0.0
14760,47.0,0.0,90.0,10.0,0.0
14761,51.0,0.0,90.0,10.0,0.0
14762,59.0,18.0,90.0,11.0,0.0
14763,78.0,0.0,90.0,0.0,0.0
14764,59.0,0.0,90.0,10.0,0.0
14765,54.0,30.0,20.0,11.0,0.0
14766,54.0,12.0,20.0,11.0,0.0
14767,54.0,30.0,20.0,11.0,0.0
14768,54.0,24.0,20.0,11.0,0.0
14769,59.0,6.0,40.0,11.0,0.0
14770,54.0,30.0,20.0,11.0,0.0
14771,59.0,12.0,60.0,11.0,0.0
14772,42.0,18.0,90.0,12.0,0.0
14773,54.0,30.0,20.0,11.0,0.0
14774,54.0,18.0,20.0,11.0,0.0
14775,54.0,12.0,20.0,11.0,0.0
14776,54.0,0.0,20.0,11.0,0.0
14777,61.0,30.0,20.0,11.0,0.0
14778,63.0,6.0,40.0,11.0,0.0
14779,54.0,24.0,20.0,11.0,0.0
14780,54.0,102.0,20.0,11.0,0.0
14781,54.0,0.0,90.0,6.0,0.0
14782,54.0,6.0,660.0,11.0,0.0
14783,42.0,0.0,90.0,6.0,0.0
14784,54.0,0.0,90.0,5.0,0.0
14785,70.0,0.0,90.0,1.0,0.0
14786,76.0,0.0,90.0,1.0,0.0
14787,58.0,0.0,90.0,4.0,0.0
14788,54.0,0.0,90.0,4.0,0.0
14789,61.0,0.0,90.0,5.0,0.0
14790,64.0,0.0,90.0,11.0,0.0
14791,47.0,72.0,90.0,14.0,0.0
14792,82.0,0.0,90.0,0.0,0.0
14793,66.0,0.0,90.0,3.0,0.0
14794,64.0,0.0,90.0,3.0,0.0
14795,35.0,0.0,90.0,14.0,0.0
14796,78.0,0.0,90.0,0.0,0.0
14797,61.0,84.0,40.0,11.0,0.0
14798,61.0,24.0,60.0,11.0,0.0
14799,42.0,18.0,90.0,14.0,0.0
14800,30.0,0.0,90.0,14.0,0.0
14801,63.0,69.0,20.0,11.0,0.0
14802,64.0,21.0,40.0,11.0,0.0
14803,47.0,30.0,20.0,10.0,0.0
14804,66.0,25.0,300.0,11.0,0.0
14805,37.0,18.0,90.0,14.0,0.0
14806,49.0,0.0,90.0,14.0,0.0
14807,51.0,30.0,20.0,10.0,0.0
14808,54.0,12.0,20.0,10.0,0.0
14809,51.0,30.0,20.0,10.0,0.0
14810,54.0,0.0,20.0,10.0,0.0
14811,59.0,30.0,20.0,7.0,0.0
14812,71.0,0.0,20.0,7.0,0.0
14813,51.0,30.0,20.0,10.0,0.0
14814,59.0,0.0,20.0,7.0,0.0
14815,42.0,30.0,20.0,10.0,0.0
14816,42.0,0.0,90.0,14.0,0.0
14817,30.0,12.0,90.0,14.0,0.0
14818,71.0,0.0,20.0,7.0,0.0
14819,51.0,30.0,20.0,10.0,0.0
14820,61.0,0.0,20.0,7.0,0.0
14821,54.0,12.0,20.0,10.0,0.0
14822,73.0,0.0,20.0,7.0,0.0
14823,51.0,5.0,20.0,10.0,0.0
14824,63.0,0.0,20.0,7.0,0.0
14825,54.0,30.0,20.0,10.0,0.0
14826,75.0,0.0,20.0,7.0,0.0
14827,51.0,30.0,20.0,10.0,0.0
14828,35.0,0.0,90.0,14.0,0.0
14829,49.0,0.0,20.0,10.0,0.0
14830,66.0,6.0,300.0,11.0,0.0
14831,47.0,18.0,90.0,14.0,0.0
14832,54.0,0.0,300.0,11.0,0.0
14833,64.0,30.0,20.0,7.0,0.0
14834,76.0,0.0,20.0,7.0,0.0
14835,54.0,30.0,20.0,10.0,0.0
14836,52.0,0.0,20.0,10.0,0.0
14837,58.0,12.0,20.0,10.0,0.0
14838,54.0,30.0,20.0,10.0,0.0
14839,52.0,0.0,20.0,10.0,0.0
14840,61.0,0.0,20.0,7.0,0.0
14841,58.0,30.0,20.0,10.0,0.0
14842,73.0,30.0,20.0,7.0,0.0
14843,52.0,0.0,20.0,10.0,0.0
14844,54.0,0.0,20.0,10.0,0.0
14845,61.0,0.0,20.0,7.0,0.0
14846,42.0,12.0,90.0,14.0,0.0
14847,30.0,0.0,90.0,14.0,0.0
14848,42.0,30.0,20.0,10.0,0.0
14849,54.0,30.0,20.0,10.0,0.0
14850,73.0,0.0,20.0,7.0,0.0
14851,52.0,0.0,20.0,10.0,0.0
14852,63.0,0.0,20.0,7.0,0.0
14853,58.0,12.0,20.0,10.0,0.0
14854,75.0,30.0,20.0,7.0,0.0
14855,52.0,0.0,20.0,10.0,0.0
14856,54.0,0.0,20.0,10.0,0.0
14857,64.0,0.0,20.0,7.0,0.0
14858,58.0,30.0,20.0,10.0,0.0
14859,76.0,30.0,20.0,7.0,0.0
14860,52.0,0.0,20.0,10.0,0.0
14861,54.0,0.0,20.0,10.0,0.0
14862,37.0,0.0,90.0,14.0,0.0
14863,66.0,0.0,1020.0,11.0,0.0
14864,54.0,6.0,1020.0,11.0,0.0
14865,47.0,0.0,20.0,10.0,0.0
14866,66.0,30.0,20.0,7.0,0.0
14867,49.0,18.0,90.0,14.0,0.0
14868,78.0,0.0,20.0,7.0,0.0
14869,54.0,0.0,20.0,10.0,0.0
14870,51.0,30.0,20.0,10.0,0.0
14871,75.0,0.0,20.0,7.0,0.0
14872,59.0,12.0,20.0,10.0,0.0
14873,87.0,30.0,20.0,7.0,0.0
14874,51.0,0.0,20.0,10.0,0.0
14875,54.0,0.0,20.0,10.0,0.0
14876,70.0,30.0,20.0,7.0,0.0
14877,59.0,0.0,20.0,10.0,0.0
14878,82.0,30.0,20.0,7.0,0.0
14879,54.0,0.0,20.0,10.0,0.0
14880,51.0,0.0,20.0,10.0,0.0
14881,42.0,0.0,90.0,14.0,0.0
14882,42.0,30.0,20.0,10.0,0.0
14883,71.0,0.0,20.0,7.0,0.0
14884,30.0,18.0,90.0,14.0,0.0
14885,83.0,0.0,20.0,7.0,0.0
14886,54.0,0.0,20.0,10.0,0.0
14887,51.0,30.0,20.0,10.0,0.0
14888,73.0,0.0,20.0,7.0,0.0
14889,59.0,12.0,20.0,10.0,0.0
14890,54.0,30.0,20.0,10.0,0.0
14891,85.0,0.0,20.0,7.0,0.0
14892,51.0,0.0,20.0,10.0,0.0
14893,59.0,0.0,20.0,10.0,0.0
14894,75.0,30.0,20.0,7.0,0.0
14895,54.0,0.0,20.0,10.0,0.0
14896,87.0,0.0,20.0,7.0,0.0
14897,51.0,30.0,20.0,10.0,0.0
14898,75.0,0.0,20.0,7.0,0.0
14899,49.0,30.0,20.0,10.0,0.0
14900,47.0,0.0,90.0,14.0,0.0
14901,35.0,18.0,90.0,14.0,0.0
14902,52.0,0.0,20.0,10.0,0.0
14903,87.0,0.0,20.0,7.0,0.0
14904,54.0,30.0,20.0,10.0,0.0
14905,58.0,12.0,20.0,10.0,0.0
14906,76.0,0.0,20.0,7.0,0.0
14907,88.0,0.0,20.0,7.0,0.0
14908,52.0,30.0,20.0,10.0,0.0
14909,54.0,0.0,20.0,10.0,0.0
14910,72.0,30.0,20.0,7.0,0.0
14911,58.0,0.0,20.0,10.0,0.0
14912,54.0,30.0,20.0,10.0,0.0
14913,52.0,0.0,20.0,10.0,0.0
14914,84.0,0.0,20.0,7.0,0.0
14915,30.0,18.0,90.0,14.0,0.0
14916,42.0,0.0,90.0,14.0,0.0
14917,73.0,0.0,20.0,7.0,0.0
14918,42.0,30.0,20.0,10.0,0.0
14919,85.0,0.0,20.0,7.0,0.0
14920,54.0,30.0,20.0,10.0,0.0
14921,52.0,0.0,20.0,10.0,0.0
14922,75.0,0.0,20.0,7.0,0.0
14923,58.0,12.0,20.0,10.0,0.0
14924,87.0,0.0,20.0,7.0,0.0
14925,54.0,30.0,20.0,10.0,0.0
14926,52.0,0.0,20.0,10.0,0.0
14927,76.0,0.0,20.0,7.0,0.0
14928,58.0,30.0,20.0,10.0,0.0
14929,52.0,0.0,20.0,10.0,0.0
14930,88.0,0.0,20.0,7.0,0.0
14931,54.0,18.0,20.0,10.0,0.0
14932,42.0,6.0,90.0,14.0,0.0
14933,47.0,3.0,20.0,10.0,0.0
14934,90.0,12.0,15.0,7.0,0.0
14935,54.0,0.0,90.0,14.0,0.0
14936,92.0,15.0,15.0,7.0,0.0
14937,90.0,12.0,15.0,7.0,0.0
14938,51.0,3.0,20.0,10.0,0.0
14939,92.0,15.0,15.0,7.0,0.0
14940,90.0,12.0,15.0,7.0,0.0
14941,54.0,3.0,20.0,10.0,0.0
14942,92.0,9.0,15.0,7.0,0.0
14943,90.0,12.0,15.0,7.0,0.0
14944,59.0,3.0,20.0,10.0,0.0
14945,92.0,15.0,15.0,7.0,0.0
14946,51.0,0.0,40.0,5.0,0.0
14947,59.0,6.0,40.0,5.0,0.0
14948,63.0,3.0,20.0,10.0,0.0
14949,71.0,0.0,40.0,1.0,0.0
14950,66.0,0.0,40.0,3.0,0.0
14951,90.0,12.0,15.0,7.0,0.0
14952,92.0,15.0,15.0,7.0,0.0
14953,90.0,6.0,15.0,7.0,0.0
14954,66.0,3.0,20.0,10.0,0.0
14955,92.0,15.0,15.0,7.0,0.0
14956,71.0,0.0,60.0,1.0,0.0
14957,66.0,0.0,60.0,3.0,0.0
14958,71.0,3.0,20.0,10.0,0.0
14959,90.0,12.0,15.0,7.0,0.0
14960,59.0,0.0,60.0,5.0,0.0
14961,51.0,12.0,60.0,5.0,0.0
14962,30.0,6.0,90.0,14.0,0.0
14963,42.0,0.0,90.0,14.0,0.0
14964,92.0,15.0,15.0,7.0,0.0
14965,66.0,3.0,20.0,10.0,0.0
14966,90.0,12.0,15.0,7.0,0.0
14967,92.0,15.0,15.0,7.0,0.0
14968,90.0,0.0,15.0,7.0,0.0
14969,73.0,3.0,20.0,10.0,0.0
14970,92.0,9.0,15.0,7.0,0.0
14971,70.0,0.0,20.0,3.0,0.0
14972,61.0,0.0,20.0,5.0,0.0
14973,54.0,0.0,20.0,5.0,0.0
14974,90.0,6.0,15.0,7.0,0.0
14975,70.0,0.0,20.0,10.0,0.0
14976,73.0,3.0,20.0,1.0,0.0
14977,92.0,15.0,15.0,7.0,0.0
14978,90.0,12.0,15.0,7.0,0.0
14979,63.0,0.0,40.0,5.0,0.0
14980,75.0,3.0,20.0,10.0,0.0
14981,71.0,0.0,40.0,3.0,0.0
14982,75.0,6.0,40.0,1.0,0.0
14983,59.0,0.0,40.0,5.0,0.0
14984,92.0,15.0,15.0,7.0,0.0
14985,92.0,0.0,15.0,7.0,0.0
14986,71.0,3.0,20.0,10.0,0.0
14987,90.0,6.0,15.0,7.0,0.0
14988,90.0,15.0,15.0,7.0,0.0
14989,73.0,6.0,40.0,3.0,0.0
14990,90.0,12.0,15.0,7.0,0.0
14991,47.0,0.0,90.0,14.0,0.0
14992,76.0,0.0,40.0,1.0,0.0
14993,66.0,6.0,300.0,11.0,0.0
14994,92.0,0.0,15.0,7.0,0.0
14995,61.0,0.0,40.0,5.0,0.0
14996,64.0,0.0,40.0,5.0,0.0
14997,76.0,3.0,20.0,10.0,0.0
14998,54.0,0.0,300.0,11.0,0.0
14999,35.0,6.0,90.0,14.0,0.0
15000,92.0,15.0,15.0,7.0,0.0
15001,73.0,3.0,20.0,10.0,0.0
15002,90.0,6.0,15.0,7.0,0.0
15003,92.0,15.0,15.0,7.0,0.0
15004,90.0,12.0,15.0,7.0,0.0
15005,70.0,3.0,20.0,10.0,0.0
15006,92.0,9.0,15.0,7.0,0.0
15007,90.0,12.0,15.0,7.0,0.0
15008,66.0,3.0,20.0,10.0,0.0
15009,92.0,15.0,15.0,7.0,0.0
15010,90.0,12.0,15.0,7.0,0.0
15011,73.0,6.0,40.0,1.0,0.0
15012,70.0,0.0,40.0,3.0,0.0
15013,73.0,3.0,20.0,10.0,0.0
15014,54.0,0.0,40.0,5.0,0.0
15015,61.0,0.0,40.0,5.0,0.0
15016,92.0,15.0,15.0,7.0,0.0
15017,90.0,6.0,15.0,7.0,0.0
15018,70.0,3.0,20.0,10.0,0.0
15019,92.0,15.0,15.0,7.0,0.0
15020,61.0,0.0,60.0,5.0,0.0
15021,54.0,0.0,60.0,5.0,0.0
15022,73.0,0.0,60.0,1.0,0.0
15023,70.0,0.0,60.0,3.0,0.0
15024,90.0,12.0,15.0,7.0,0.0
15025,73.0,3.0,20.0,10.0,0.0
15026,92.0,15.0,15.0,7.0,0.0
15027,90.0,12.0,15.0,7.0,0.0
15028,70.0,3.0,20.0,10.0,0.0
15029,92.0,15.0,15.0,7.0,0.0
15030,75.0,3.0,20.0,10.0,0.0
15031,90.0,12.0,15.0,7.0,0.0
15032,92.0,0.0,15.0,7.0,0.0
15033,90.0,15.0,15.0,7.0,0.0
15034,59.0,0.0,20.0,5.0,0.0
15035,71.0,3.0,20.0,3.0,0.0
15036,71.0,0.0,20.0,10.0,0.0
15037,75.0,0.0,20.0,1.0,0.0
15038,63.0,0.0,20.0,5.0,0.0
15039,92.0,6.0,15.0,7.0,0.0
15040,90.0,15.0,15.0,7.0,0.0
15041,76.0,3.0,20.0,10.0,0.0
15042,61.0,0.0,40.0,5.0,0.0
15043,90.0,0.0,15.0,7.0,0.0
15044,73.0,0.0,40.0,3.0,0.0
15045,92.0,12.0,15.0,7.0,0.0
15046,64.0,6.0,40.0,5.0,0.0
15047,76.0,0.0,40.0,1.0,0.0
15048,92.0,15.0,15.0,7.0,0.0
15049,90.0,6.0,15.0,7.0,0.0
15050,73.0,3.0,20.0,10.0,0.0
15051,92.0,27.0,15.0,7.0,0.0
15052,54.0,0.0,90.0,11.0,0.0
15053,63.0,18.0,90.0,5.0,0.0
15054,66.0,0.0,90.0,5.0,0.0
15055,75.0,0.0,90.0,3.0,0.0
15056,66.0,12.0,60.0,11.0,0.0
15057,90.0,30.0,20.0,7.0,0.0
15058,78.0,0.0,90.0,1.0,0.0
15059,78.0,0.0,20.0,10.0,0.0
15060,75.0,0.0,20.0,10.0,0.0
15061,87.0,18.0,20.0,7.0,0.0
15062,83.0,12.0,20.0,7.0,0.0
15063,71.0,0.0,20.0,10.0,0.0
15064,66.0,0.0,20.0,10.0,0.0
15065,78.0,30.0,20.0,7.0,0.0
15066,64.0,0.0,20.0,11.0,0.0
15067,75.0,0.0,20.0,10.0,0.0
15068,87.0,24.0,20.0,7.0,0.0
15069,63.0,6.0,40.0,11.0,0.0
15070,71.0,30.0,20.0,10.0,0.0
15071,83.0,0.0,20.0,7.0,0.0
15072,47.0,18.0,90.0,5.0,0.0
15073,59.0,0.0,90.0,5.0,0.0
15074,63.0,12.0,60.0,11.0,0.0
15075,71.0,0.0,90.0,3.0,0.0
15076,66.0,30.0,20.0,10.0,0.0
15077,75.0,0.0,90.0,1.0,0.0
15078,78.0,0.0,20.0,7.0,0.0
15079,63.0,0.0,20.0,10.0,0.0
15080,75.0,18.0,20.0,7.0,0.0
15081,71.0,12.0,20.0,10.0,0.0
15082,83.0,0.0,20.0,7.0,0.0
15083,61.0,30.0,20.0,11.0,0.0
15084,66.0,0.0,20.0,10.0,0.0
15085,78.0,0.0,20.0,7.0,0.0
15086,75.0,24.0,20.0,7.0,0.0
15087,63.0,0.0,20.0,10.0,0.0
15088,59.0,6.0,40.0,11.0,0.0
15089,59.0,30.0,20.0,10.0,0.0
15090,71.0,0.0,20.0,7.0,0.0
15091,59.0,0.0,90.0,5.0,0.0
15092,66.0,30.0,20.0,10.0,0.0
15093,59.0,12.0,60.0,11.0,0.0
15094,71.0,0.0,90.0,3.0,0.0
15095,75.0,18.0,90.0,1.0,0.0
15096,78.0,0.0,20.0,7.0,0.0
15097,47.0,0.0,90.0,5.0,0.0
15098,75.0,0.0,20.0,7.0,0.0
15099,63.0,18.0,20.0,10.0,0.0
15100,71.0,0.0,20.0,7.0,0.0
15101,59.0,12.0,20.0,10.0,0.0
15102,54.0,0.0,20.0,10.0,0.0
15103,61.0,0.0,20.0,11.0,0.0
15104,66.0,30.0,20.0,7.0,0.0
15105,59.0,0.0,20.0,10.0,0.0
15106,71.0,24.0,20.0,7.0,0.0
15107,63.0,6.0,40.0,11.0,0.0
15108,75.0,30.0,20.0,7.0,0.0
15109,63.0,0.0,20.0,10.0,0.0
15110,78.0,0.0,20.0,7.0,0.0
15111,63.0,12.0,60.0,11.0,0.0
15112,66.0,30.0,20.0,10.0,0.0
15113,75.0,18.0,90.0,1.0,0.0
15114,59.0,0.0,90.0,5.0,0.0
15115,47.0,0.0,90.0,5.0,0.0
15116,71.0,0.0,90.0,3.0,0.0
15117,71.0,18.0,20.0,10.0,0.0
15118,83.0,0.0,20.0,7.0,0.0
15119,75.0,0.0,20.0,10.0,0.0
15120,87.0,12.0,20.0,7.0,0.0
15121,71.0,0.0,20.0,10.0,0.0
15122,64.0,0.0,20.0,11.0,0.0
15123,83.0,30.0,20.0,7.0,0.0
15124,66.0,6.0,40.0,11.0,0.0
15125,78.0,24.0,20.0,10.0,0.0
15126,90.0,0.0,20.0,7.0,0.0
15127,75.0,0.0,20.0,10.0,0.0
15128,87.0,30.0,20.0,7.0,0.0
15129,52.0,0.0,90.0,4.0,0.0
15130,73.0,0.0,90.0,1.0,0.0
15131,61.0,0.0,90.0,5.0,0.0
15132,59.0,18.0,90.0,5.0,0.0
15133,56.0,0.0,90.0,4.0,0.0
15134,71.0,0.0,90.0,3.0,0.0
15135,68.0,12.0,60.0,11.0,0.0
15136,92.0,0.0,20.0,7.0,0.0
15137,80.0,30.0,20.0,10.0,0.0
15138,76.0,18.0,20.0,10.0,0.0
15139,88.0,0.0,20.0,7.0,0.0
15140,73.0,12.0,20.0,10.0,0.0
15141,85.0,0.0,20.0,7.0,0.0
15142,80.0,30.0,20.0,7.0,0.0
15143,66.0,0.0,20.0,11.0,0.0
15144,68.0,0.0,20.0,10.0,0.0
15145,64.0,6.0,40.0,11.0,0.0
15146,76.0,24.0,20.0,10.0,0.0
15147,88.0,0.0,20.0,7.0,0.0
15148,73.0,30.0,20.0,10.0,0.0
15149,85.0,0.0,20.0,7.0,0.0
15150,64.0,12.0,60.0,11.0,0.0
15151,73.0,0.0,90.0,1.0,0.0
15152,71.0,0.0,90.0,3.0,0.0
15153,68.0,30.0,20.0,10.0,0.0
15154,61.0,0.0,90.0,5.0,0.0
15155,59.0,18.0,90.0,5.0,0.0
15156,56.0,0.0,90.0,4.0,0.0
15157,52.0,0.0,90.0,4.0,0.0
15158,80.0,0.0,20.0,7.0,0.0
15159,76.0,0.0,20.0,7.0,0.0
15160,64.0,18.0,20.0,10.0,0.0
15161,73.0,12.0,20.0,10.0,0.0
15162,85.0,0.0,20.0,7.0,0.0
15163,80.0,0.0,20.0,7.0,0.0
15164,68.0,30.0,20.0,10.0,0.0
15165,63.0,0.0,20.0,11.0,0.0
15166,61.0,6.0,40.0,11.0,0.0
15167,76.0,0.0,20.0,7.0,0.0
15168,64.0,24.0,20.0,10.0,0.0
15169,73.0,30.0,20.0,7.0,0.0
15170,61.0,0.0,20.0,10.0,0.0
15171,61.0,0.0,90.0,5.0,0.0
15172,52.0,0.0,90.0,4.0,0.0
15173,68.0,30.0,20.0,10.0,0.0
15174,56.0,0.0,90.0,4.0,0.0
15175,73.0,0.0,90.0,1.0,0.0
15176,80.0,0.0,20.0,7.0,0.0
15177,59.0,18.0,90.0,5.0,0.0
15178,61.0,12.0,60.0,11.0,0.0
15179,71.0,0.0,90.0,3.0,0.0
15180,64.0,18.0,20.0,10.0,0.0
15181,76.0,0.0,20.0,7.0,0.0
15182,73.0,0.0,20.0,7.0,0.0
15183,61.0,12.0,20.0,10.0,0.0
15184,63.0,30.0,20.0,11.0,0.0
15185,68.0,0.0,20.0,7.0,0.0
15186,56.0,0.0,20.0,10.0,0.0
15187,61.0,24.0,20.0,10.0,0.0
15188,73.0,0.0,20.0,7.0,0.0
15189,64.0,6.0,40.0,11.0,0.0
15190,76.0,30.0,20.0,7.0,0.0
15191,64.0,0.0,20.0,10.0,0.0
15192,59.0,0.0,90.0,5.0,0.0
15193,64.0,12.0,60.0,11.0,0.0
15194,52.0,0.0,90.0,4.0,0.0
15195,56.0,0.0,90.0,4.0,0.0
15196,71.0,0.0,90.0,3.0,0.0
15197,61.0,18.0,90.0,5.0,0.0
15198,68.0,0.0,20.0,10.0,0.0
15199,80.0,30.0,20.0,7.0,0.0
15200,73.0,0.0,90.0,1.0,0.0
15201,85.0,0.0,20.0,7.0,0.0
15202,73.0,18.0,20.0,10.0,0.0
15203,88.0,0.0,20.0,7.0,0.0
15204,76.0,12.0,20.0,10.0,0.0
15205,85.0,30.0,20.0,7.0,0.0
15206,66.0,0.0,20.0,11.0,0.0
15207,73.0,0.0,20.0,10.0,0.0
15208,68.0,6.0,40.0,11.0,0.0
15209,80.0,24.0,20.0,10.0,0.0
15210,92.0,0.0,20.0,7.0,0.0
15211,76.0,0.0,20.0,10.0,0.0
15212,88.0,54.0,20.0,7.0,0.0
15213,75.0,0.0,90.0,1.0,0.0
15214,59.0,0.0,90.0,5.0,0.0
15215,71.0,0.0,90.0,3.0,0.0
15216,63.0,0.0,90.0,5.0,0.0
15217,54.0,12.0,90.0,4.0,0.0
15218,68.0,36.0,40.0,11.0,0.0
15219,92.0,0.0,40.0,7.0,0.0
15220,80.0,0.0,40.0,10.0,0.0
15221,78.0,0.0,20.0,10.0,0.0
15222,90.0,12.0,20.0,7.0,0.0
15223,66.0,6.0,40.0,11.0,0.0
15224,76.0,30.0,20.0,10.0,0.0
15225,88.0,0.0,20.0,7.0,0.0
15226,64.0,6.0,40.0,11.0,0.0
15227,87.0,0.0,20.0,7.0,0.0
15228,75.0,24.0,20.0,10.0,0.0
15229,85.0,0.0,20.0,7.0,0.0
15230,73.0,30.0,20.0,10.0,0.0
15231,63.0,0.0,90.0,5.0,0.0
15232,71.0,0.0,90.0,3.0,0.0
15233,71.0,24.0,20.0,10.0,0.0
15234,63.0,6.0,40.0,11.0,0.0
15235,54.0,12.0,90.0,4.0,0.0
15236,59.0,0.0,90.0,5.0,0.0
15237,75.0,0.0,90.0,1.0,0.0
15238,83.0,0.0,20.0,7.0,0.0
15239,82.0,0.0,20.0,7.0,0.0
15240,70.0,30.0,20.0,10.0,0.0
15241,80.0,0.0,20.0,7.0,0.0
15242,61.0,6.0,40.0,11.0,0.0
15243,68.0,12.0,20.0,10.0,0.0
15244,66.0,30.0,20.0,10.0,0.0
15245,78.0,0.0,20.0,7.0,0.0
15246,76.0,24.0,20.0,7.0,0.0
15247,64.0,0.0,20.0,10.0,0.0
15248,59.0,6.0,40.0,11.0,0.0
15249,63.0,0.0,20.0,10.0,0.0
15250,75.0,30.0,20.0,7.0,0.0
15251,75.0,0.0,90.0,1.0,0.0
15252,73.0,30.0,20.0,7.0,0.0
15253,59.0,0.0,90.0,5.0,0.0
15254,71.0,16.0,90.0,3.0,0.0
15255,63.0,0.0,90.0,5.0,0.0
15256,42.0,0.0,90.0,4.0,0.0
15257,54.0,0.0,90.0,4.0,0.0
15258,61.0,0.0,20.0,10.0,0.0
15259,59.0,2.0,120.0,11.0,0.0
15260,59.0,0.0,20.0,10.0,0.0
15261,71.0,30.0,20.0,7.0,0.0
15262,70.0,12.0,20.0,7.0,0.0
15263,58.0,0.0,20.0,10.0,0.0
15264,71.0,0.0,20.0,7.0,0.0
15265,59.0,18.0,20.0,10.0,0.0
15266,75.0,3.0,20.0,7.0,0.0
15267,61.0,12.0,15.0,11.0,0.0
15268,63.0,0.0,20.0,10.0,0.0
15269,59.0,15.0,15.0,11.0,0.0
15270,58.0,12.0,15.0,11.0,0.0
15271,59.0,0.0,20.0,10.0,0.0
15272,71.0,3.0,20.0,7.0,0.0
15273,59.0,27.0,15.0,11.0,0.0
15274,66.0,30.0,20.0,10.0,0.0
15275,78.0,0.0,20.0,7.0,0.0
15276,63.0,18.0,90.0,11.0,0.0
15277,75.0,30.0,20.0,7.0,0.0
15278,63.0,0.0,20.0,10.0,0.0
15279,71.0,0.0,20.0,10.0,0.0
15280,83.0,12.0,20.0,7.0,0.0
15281,78.0,0.0,20.0,7.0,0.0
15282,66.0,30.0,20.0,10.0,0.0
15283,75.0,24.0,20.0,10.0,0.0
15284,54.0,0.0,40.0,5.0,0.0
15285,73.0,0.0,40.0,1.0,0.0
15286,54.0,0.0,40.0,4.0,0.0
15287,70.0,6.0,40.0,3.0,0.0
15288,61.0,0.0,40.0,11.0,0.0
15289,87.0,0.0,20.0,7.0,0.0
15290,61.0,0.0,40.0,5.0,0.0
15291,42.0,0.0,40.0,4.0,0.0
15292,73.0,78.0,20.0,10.0,0.0
15293,85.0,0.0,20.0,7.0,0.0
15294,63.0,0.0,90.0,3.0,0.0
15295,59.0,0.0,90.0,11.0,0.0
15296,71.0,0.0,90.0,3.0,0.0
15297,83.0,18.0,90.0,0.0,0.0
15298,47.0,0.0,90.0,4.0,0.0
15299,47.0,0.0,90.0,12.0,0.0
15300,71.0,0.0,90.0,1.0,0.0
15301,63.0,0.0,90.0,1.0,0.0
15302,47.0,0.0,60.0,5.0,0.0
15303,59.0,0.0,60.0,5.0,0.0
15304,51.0,0.0,90.0,11.0,0.0
15305,47.0,0.0,90.0,11.0,0.0
15306,71.0,0.0,90.0,10.0,0.0
15307,71.0,0.0,90.0,0.0,0.0
15308,83.0,0.0,90.0,7.0,0.0
15309,71.0,0.0,90.0,11.0,0.0
15310,59.0,24.0,60.0,6.0,0.0
15311,47.0,0.0,60.0,6.0,0.0
15312,47.0,0.0,90.0,8.0,0.0
15313,47.0,54.0,20.0,6.0,0.0
15314,59.0,0.0,20.0,5.0,0.0
15315,47.0,0.0,20.0,5.0,0.0
15316,59.0,0.0,20.0,6.0,0.0
15317,59.0,60.0,40.0,5.0,0.0
15318,59.0,0.0,40.0,6.0,0.0
15319,47.0,0.0,40.0,6.0,0.0
15320,47.0,0.0,40.0,5.0,0.0
15321,59.0,0.0,40.0,6.0,0.0
15322,47.0,0.0,40.0,6.0,0.0
15323,59.0,60.0,40.0,5.0,0.0
15324,47.0,0.0,40.0,5.0,0.0
15325,59.0,0.0,40.0,6.0,0.0
15326,47.0,0.0,40.0,6.0,0.0
15327,47.0,0.0,40.0,5.0,0.0
15328,59.0,60.0,40.0,5.0,0.0
15329,47.0,0.0,40.0,5.0,0.0
15330,59.0,0.0,40.0,5.0,0.0
15331,59.0,66.0,40.0,6.0,0.0
15332,47.0,0.0,40.0,6.0,0.0
15333,83.0,0.0,150.0,11.0,0.0
15334,56.0,0.0,150.0,12.0,0.0
15335,59.0,0.0,300.0,6.0,0.0
15336,47.0,0.0,300.0,6.0,0.0
15337,83.0,0.0,150.0,0.0,0.0
15338,47.0,0.0,300.0,5.0,0.0
15339,59.0,0.0,300.0,5.0,0.0
15340,56.0,0.0,150.0,4.0,0.0
15341,59.0,0.0,150.0,4.0,0.0
15342,71.0,0.0,150.0,3.0,0.0
15343,71.0,0.0,150.0,1.0,0.0
15344,47.0,30.0,20.0,11.0,0.0
15345,59.0,0.0,20.0,11.0,0.0
15346,49.0,0.0,20.0,11.0,0.0
15347,61.0,30.0,20.0,11.0,0.0
15348,63.0,30.0,20.0,11.0,0.0
15349,51.0,0.0,20.0,11.0,0.0
15350,52.0,0.0,20.0,11.0,0.0
15351,64.0,30.0,20.0,11.0,0.0
15352,66.0,30.0,20.0,11.0,0.0
15353,54.0,0.0,20.0,11.0,0.0
15354,80.0,0.0,150.0,1.0,0.0
15355,68.0,0.0,150.0,3.0,0.0
15356,68.0,30.0,20.0,11.0,0.0
15357,68.0,0.0,150.0,1.0,0.0
15358,80.0,0.0,150.0,0.0,0.0
15359,56.0,0.0,20.0,11.0,0.0
15360,80.0,0.0,150.0,3.0,0.0
15361,80.0,0.0,20.0,11.0,0.0
15362,56.0,0.0,150.0,4.0,0.0
15363,52.0,0.0,150.0,4.0,0.0
15364,52.0,0.0,150.0,12.0,0.0
15365,79.0,0.0,20.0,11.0,0.0
15366,67.0,30.0,20.0,11.0,0.0
15367,55.0,0.0,20.0,11.0,0.0
15368,68.0,0.0,20.0,11.0,0.0
15369,80.0,24.0,20.0,11.0,0.0
15370,56.0,0.0,20.0,11.0,0.0
15371,70.0,0.0,20.0,11.0,0.0
15372,58.0,0.0,20.0,11.0,0.0
15373,82.0,30.0,20.0,11.0,0.0
15374,83.0,0.0,20.0,11.0,0.0
15375,59.0,30.0,20.0,11.0,0.0
15376,71.0,0.0,20.0,11.0,0.0
15377,80.0,78.0,20.0,11.0,0.0
15378,56.0,0.0,20.0,11.0,0.0
15379,68.0,0.0,20.0,11.0,0.0
15380,78.0,0.0,90.0,0.0,0.0
15381,42.0,0.0,90.0,8.0,0.0
15382,78.0,0.0,90.0,11.0,0.0
15383,66.0,0.0,90.0,1.0,0.0
15384,54.0,0.0,60.0,5.0,0.0
15385,78.0,0.0,90.0,1.0,0.0
15386,66.0,0.0,90.0,3.0,0.0
15387,78.0,18.0,90.0,3.0,0.0
15388,51.0,0.0,90.0,4.0,0.0
15389,54.0,0.0,90.0,4.0,0.0
15390,66.0,0.0,90.0,11.0,0.0
15391,54.0,0.0,90.0,11.0,0.0
15392,51.0,0.0,90.0,12.0,0.0
15393,42.0,24.0,60.0,5.0,0.0
15394,42.0,0.0,60.0,6.0,0.0
15395,54.0,0.0,60.0,6.0,0.0
15396,54.0,0.0,20.0,6.0,0.0
15397,42.0,0.0,20.0,6.0,0.0
15398,42.0,0.0,20.0,5.0,0.0
15399,54.0,54.0,20.0,5.0,0.0
15400,42.0,0.0,40.0,5.0,0.0
15401,54.0,0.0,40.0,5.0,0.0
15402,42.0,60.0,40.0,6.0,0.0
15403,54.0,0.0,40.0,6.0,0.0
15404,42.0,60.0,40.0,5.0,0.0
15405,54.0,0.0,40.0,6.0,0.0
15406,42.0,0.0,40.0,6.0,0.0
15407,54.0,0.0,40.0,5.0,0.0
15408,54.0,0.0,40.0,6.0,0.0
15409,42.0,0.0,40.0,5.0,0.0
15410,54.0,0.0,40.0,5.0,0.0
15411,42.0,60.0,40.0,6.0,0.0
15412,42.0,36.0,40.0,6.0,0.0
15413,54.0,0.0,40.0,6.0,0.0
15414,42.0,0.0,40.0,5.0,0.0
15415,54.0,0.0,40.0,5.0,0.0
15416,42.0,6.0,300.0,6.0,0.0
15417,49.0,0.0,150.0,4.0,0.0
15418,52.0,0.0,150.0,4.0,0.0
15419,61.0,30.0,150.0,3.0,0.0
15420,54.0,0.0,150.0,12.0,0.0
15421,73.0,0.0,150.0,1.0,0.0
15422,76.0,0.0,150.0,11.0,0.0
15423,54.0,0.0,300.0,6.0,0.0
15424,64.0,0.0,150.0,3.0,0.0
15425,76.0,0.0,150.0,1.0,0.0
15426,52.0,30.0,20.0,11.0,0.0
15427,83.0,0.0,90.0,0.0,0.0
15428,75.0,18.0,90.0,0.0,0.0
15429,42.0,0.0,300.0,5.0,0.0
15430,54.0,0.0,300.0,5.0,0.0
15431,54.0,30.0,20.0,11.0,0.0
15432,52.0,0.0,20.0,11.0,0.0
15433,54.0,12.0,20.0,11.0,0.0
15434,54.0,0.0,20.0,11.0,0.0
15435,56.0,30.0,20.0,11.0,0.0
15436,52.0,0.0,20.0,11.0,0.0
15437,58.0,0.0,20.0,11.0,0.0
15438,54.0,30.0,20.0,11.0,0.0
15439,59.0,0.0,20.0,11.0,0.0
15440,52.0,0.0,20.0,11.0,0.0
15441,70.0,0.0,150.0,1.0,0.0
15442,73.0,0.0,150.0,1.0,0.0
15443,46.0,0.0,150.0,4.0,0.0
15444,61.0,30.0,20.0,11.0,0.0
15445,42.0,0.0,150.0,12.0,0.0
15446,58.0,30.0,150.0,3.0,0.0
15447,61.0,0.0,150.0,3.0,0.0
15448,73.0,0.0,20.0,11.0,0.0
15449,49.0,0.0,150.0,4.0,0.0
15450,72.0,30.0,20.0,11.0,0.0
15451,60.0,0.0,20.0,11.0,0.0
15452,54.0,0.0,20.0,11.0,0.0
15453,73.0,0.0,20.0,11.0,0.0
15454,52.0,0.0,20.0,11.0,0.0
15455,61.0,24.0,20.0,11.0,0.0
15456,75.0,0.0,20.0,11.0,0.0
15457,54.0,30.0,20.0,11.0,0.0
15458,63.0,0.0,20.0,11.0,0.0
15459,76.0,0.0,20.0,11.0,0.0
15460,64.0,0.0,20.0,11.0,0.0
15461,52.0,0.0,20.0,11.0,0.0
15462,73.0,78.0,20.0,11.0,0.0
15463,54.0,0.0,20.0,11.0,0.0
15464,61.0,0.0,20.0,11.0,0.0
15465,47.0,18.0,90.0,4.0,0.0
15466,47.0,0.0,90.0,5.0,0.0
15467,47.0,0.0,90.0,6.0,0.0
15468,59.0,0.0,90.0,3.0,0.0
15469,63.0,0.0,90.0,3.0,0.0
15470,71.0,0.0,90.0,1.0,0.0
15471,51.0,0.0,90.0,4.0,0.0
15472,47.0,0.0,90.0,12.0,0.0
15473,47.0,24.0,60.0,8.0,0.0
15474,59.0,0.0,90.0,11.0,0.0
15475,71.0,0.0,90.0,11.0,0.0
15476,47.0,0.0,90.0,11.0,0.0
15477,51.0,0.0,90.0,11.0,0.0
15478,47.0,30.0,20.0,8.0,0.0
15479,47.0,6.0,40.0,8.0,0.0
15480,47.0,24.0,20.0,7.0,0.0
15481,49.0,22.0,20.0,7.0,0.0
15482,47.0,8.0,40.0,8.0,0.0
15483,51.0,20.0,15.0,7.0,0.0
15484,52.0,12.0,15.0,7.0,0.0
15485,54.0,20.0,15.0,7.0,0.0
15486,56.0,20.0,15.0,7.0,0.0
15487,47.0,8.0,40.0,8.0,0.0
15488,58.0,12.0,15.0,7.0,0.0
15489,59.0,20.0,15.0,7.0,0.0
15490,47.0,8.0,40.0,8.0,0.0
15491,61.0,20.0,15.0,7.0,0.0
15492,63.0,12.0,15.0,7.0,0.0
15493,64.0,20.0,15.0,7.0,0.0
15494,59.0,0.0,150.0,10.0,0.0
15495,56.0,12.0,150.0,10.0,0.0
15496,66.0,20.0,15.0,7.0,0.0
15497,47.0,4.0,60.0,8.0,0.0
15498,68.0,20.0,15.0,7.0,0.0
15499,70.0,16.0,15.0,7.0,0.0
15500,71.0,20.0,15.0,7.0,0.0
15501,73.0,18.0,15.0,7.0,0.0
15502,47.0,2.0,20.0,8.0,0.0
15503,75.0,20.0,15.0,7.0,0.0
15504,47.0,8.0,40.0,8.0,0.0
15505,76.0,8.0,15.0,7.0,0.0
15506,78.0,12.0,15.0,7.0,0.0
15507,80.0,20.0,15.0,7.0,0.0
15508,47.0,8.0,40.0,8.0,0.0
15509,82.0,20.0,15.0,7.0,0.0
15510,52.0,24.0,150.0,10.0,0.0
15511,56.0,0.0,150.0,10.0,0.0
15512,83.0,12.0,15.0,7.0,0.0
15513,82.0,52.0,15.0,7.0,0.0
15514,85.0,0.0,40.0,7.0,0.0
15515,47.0,36.0,40.0,8.0,0.0
15516,47.0,6.0,40.0,8.0,0.0
15517,83.0,0.0,20.0,7.0,0.0
15518,80.0,78.0,20.0,7.0,0.0
15519,42.0,24.0,60.0,8.0,0.0
15520,54.0,0.0,90.0,10.0,0.0
15521,78.0,18.0,90.0,7.0,0.0
15522,51.0,0.0,90.0,10.0,0.0
15523,42.0,30.0,20.0,8.0,0.0
15524,42.0,6.0,40.0,8.0,0.0
15525,66.0,24.0,20.0,7.0,0.0
15526,68.0,30.0,20.0,7.0,0.0
15527,42.0,6.0,40.0,8.0,0.0
15528,70.0,24.0,20.0,7.0,0.0
15529,71.0,22.0,20.0,7.0,0.0
15530,73.0,20.0,15.0,7.0,0.0
15531,42.0,8.0,40.0,8.0,0.0
15532,75.0,12.0,15.0,7.0,0.0
15533,76.0,20.0,15.0,7.0,0.0
15534,42.0,8.0,40.0,8.0,0.0
15535,78.0,20.0,15.0,7.0,0.0
15536,80.0,12.0,15.0,7.0,0.0
15537,82.0,20.0,15.0,7.0,0.0
15538,42.0,42.0,60.0,8.0,0.0
15539,83.0,20.0,15.0,7.0,0.0
15540,54.0,0.0,300.0,10.0,0.0
15541,61.0,24.0,150.0,10.0,0.0
15542,64.0,0.0,150.0,10.0,0.0
15543,85.0,20.0,15.0,7.0,0.0
15544,87.0,16.0,15.0,7.0,0.0
15545,88.0,12.0,210.0,7.0,0.0
15546,42.0,30.0,20.0,8.0,0.0
15547,42.0,60.0,40.0,8.0,0.0
15548,61.0,24.0,150.0,10.0,0.0
15549,42.0,48.0,40.0,8.0,0.0
15550,58.0,0.0,150.0,10.0,0.0
15551,42.0,36.0,40.0,8.0,0.0
15552,85.0,0.0,40.0,7.0,0.0
15553,42.0,28.0,40.0,8.0,0.0
15554,64.0,0.0,150.0,10.0,0.0
15555,61.0,24.0,150.0,10.0,0.0
15556,54.0,36.0,300.0,10.0,0.0
15557,42.0,4.0,60.0,8.0,0.0
15558,78.0,20.0,15.0,7.0,0.0
15559,80.0,20.0,15.0,7.0,0.0
15560,82.0,16.0,15.0,7.0,0.0
15561,83.0,20.0,15.0,7.0,0.0
15562,85.0,18.0,15.0,7.0,0.0
15563,42.0,2.0,20.0,8.0,0.0
15564,87.0,28.0,15.0,7.0,0.0
15565,42.0,60.0,40.0,8.0,0.0
15566,88.0,12.0,150.0,7.0,0.0
15567,61.0,24.0,150.0,10.0,0.0
15568,58.0,0.0,150.0,10.0,0.0
15569,42.0,48.0,40.0,8.0,0.0
15570,42.0,0.0,40.0,8.0,0.0
15571,85.0,28.0,40.0,7.0,0.0
15572,42.0,0.0,40.0,8.0,0.0
15573,64.0,24.0,150.0,10.0,0.0
15574,61.0,0.0,150.0,10.0,0.0
15575,78.0,20.0,15.0,7.0,0.0
15576,42.0,4.0,60.0,8.0,0.0
15577,54.0,4.0,300.0,10.0,0.0
15578,80.0,20.0,15.0,7.0,0.0
15579,82.0,16.0,15.0,7.0,0.0
15580,83.0,20.0,15.0,7.0,0.0
15581,85.0,18.0,15.0,7.0,0.0
15582,42.0,2.0,20.0,8.0,0.0
15583,87.0,28.0,15.0,7.0,0.0
15584,42.0,60.0,40.0,8.0,0.0
15585,88.0,32.0,180.0,7.0,0.0
15586,42.0,60.0,40.0,8.0,0.0
15587,61.0,24.0,150.0,10.0,0.0
15588,58.0,0.0,150.0,10.0,0.0
15589,42.0,0.0,40.0,8.0,0.0
15590,42.0,0.0,40.0,8.0,0.0
15591,73.0,0.0,40.0,7.0,0.0
15592,85.0,84.0,40.0,7.0,0.0
15593,78.0,0.0,40.0,7.0,0.0
15594,76.0,0.0,40.0,7.0,0.0
15595,72.0,0.0,150.0,7.0,0.0
15596,76.0,0.0,150.0,7.0,0.0
15597,54.0,0.0,300.0,10.0,0.0
15598,57.0,24.0,150.0,10.0,0.0
15599,60.0,0.0,150.0,10.0,0.0
15600,84.0,0.0,150.0,7.0,0.0
15601,78.0,0.0,150.0,7.0,0.0
15602,42.0,42.0,60.0,8.0,0.0
15603,42.0,30.0,20.0,8.0,0.0
15604,42.0,60.0,40.0,8.0,0.0
15605,42.0,60.0,40.0,8.0,0.0
15606,85.0,24.0,150.0,7.0,0.0
15607,76.0,0.0,150.0,7.0,0.0
15608,58.0,0.0,150.0,10.0,0.0
15609,61.0,0.0,150.0,10.0,0.0
15610,73.0,0.0,150.0,7.0,0.0
15611,42.0,36.0,40.0,8.0,0.0
15612,42.0,84.0,40.0,8.0,0.0
15613,55.0,0.0,150.0,10.0,0.0
15614,58.0,0.0,150.0,10.0,0.0
15615,61.0,0.0,150.0,10.0,0.0
15616,85.0,0.0,150.0,7.0,0.0
15617,76.0,24.0,150.0,7.0,0.0
15618,73.0,0.0,150.0,7.0,0.0
15619,42.0,42.0,60.0,8.0,0.0
15620,42.0,30.0,20.0,8.0,0.0
15621,42.0,60.0,40.0,8.0,0.0
15622,59.0,0.0,150.0,10.0,0.0
15623,42.0,60.0,40.0,8.0,0.0
15624,56.0,24.0,150.0,10.0,0.0
15625,83.0,0.0,150.0,7.0,0.0
15626,71.0,0.0,150.0,7.0,0.0
15627,75.0,0.0,150.0,7.0,0.0
15628,42.0,36.0,40.0,8.0,0.0
15629,42.0,84.0,40.0,8.0,0.0
15630,83.0,0.0,150.0,7.0,0.0
15631,74.0,0.0,150.0,7.0,0.0
15632,53.0,0.0,150.0,10.0,0.0
15633,56.0,0.0,150.0,10.0,0.0
15634,59.0,0.0,150.0,10.0,0.0
15635,42.0,42.0,60.0,8.0,0.0
15636,71.0,24.0,150.0,7.0,0.0
15637,42.0,30.0,20.0,8.0,0.0
15638,42.0,60.0,40.0,8.0,0.0
15639,54.0,0.0,150.0,10.0,0.0
15640,70.0,0.0,150.0,7.0,0.0
15641,73.0,24.0,150.0,7.0,0.0
15642,58.0,0.0,150.0,10.0,0.0
15643,42.0,60.0,40.0,8.0,0.0
15644,82.0,0.0,150.0,7.0,0.0
15645,42.0,36.0,40.0,8.0,0.0
15646,42.0,84.0,40.0,8.0,0.0
15647,72.0,0.0,150.0,7.0,0.0
15648,78.0,0.0,150.0,7.0,0.0
15649,69.0,0.0,150.0,7.0,0.0
15650,81.0,0.0,150.0,7.0,0.0
15651,54.0,0.0,150.0,10.0,0.0
15652,51.0,0.0,150.0,10.0,0.0
15653,57.0,24.0,150.0,10.0,0.0
15654,42.0,42.0,60.0,8.0,0.0
15655,42.0,30.0,20.0,8.0,0.0
15656,42.0,60.0,40.0,8.0,0.0
15657,75.0,0.0,150.0,7.0,0.0
15658,80.0,0.0,150.0,7.0,0.0
15659,72.0,24.0,150.0,7.0,0.0
15660,56.0,0.0,150.0,10.0,0.0
15661,54.0,0.0,150.0,10.0,0.0
15662,48.0,0.0,150.0,10.0,0.0
15663,42.0,60.0,40.0,8.0,0.0
15664,68.0,0.0,150.0,7.0,0.0
15665,51.0,0.0,150.0,10.0,0.0
15666,42.0,36.0,40.0,8.0,0.0
15667,42.0,84.0,40.0,8.0,0.0
15668,72.0,0.0,150.0,7.0,0.0
15669,78.0,0.0,150.0,7.0,0.0
15670,42.0,42.0,60.0,8.0,0.0
15671,44.0,0.0,150.0,10.0,0.0
15672,54.0,0.0,150.0,10.0,0.0
15673,66.0,0.0,150.0,7.0,0.0
15674,48.0,0.0,150.0,10.0,0.0
15675,68.0,0.0,150.0,7.0,0.0
15676,75.0,0.0,150.0,7.0,0.0
15677,51.0,24.0,150.0,10.0,0.0
15678,42.0,30.0,20.0,8.0,0.0
15679,42.0,60.0,40.0,8.0,0.0
15680,52.0,0.0,150.0,10.0,0.0
15681,68.0,0.0,150.0,7.0,0.0
15682,73.0,24.0,150.0,7.0,0.0
15683,49.0,0.0,150.0,10.0,0.0
15684,76.0,0.0,150.0,7.0,0.0
15685,64.0,0.0,150.0,7.0,0.0
15686,42.0,60.0,40.0,8.0,0.0
15687,42.0,36.0,40.0,8.0,0.0
15688,42.0,84.0,40.0,8.0,0.0
15689,64.0,0.0,150.0,7.0,0.0
15690,49.0,0.0,150.0,10.0,0.0
15691,42.0,42.0,60.0,8.0,0.0
15692,66.0,0.0,150.0,7.0,0.0
15693,52.0,0.0,150.0,10.0,0.0
15694,42.0,36.0,300.0,10.0,0.0
15695,76.0,0.0,150.0,7.0,0.0
15696,70.0,24.0,150.0,7.0,0.0
15697,73.0,0.0,150.0,7.0,0.0
15698,42.0,30.0,20.0,8.0,0.0
15699,42.0,60.0,40.0,8.0,0.0
15700,42.0,60.0,40.0,8.0,0.0
15701,63.0,0.0,150.0,7.0,0.0
15702,66.0,0.0,150.0,7.0,0.0
15703,47.0,24.0,150.0,10.0,0.0
15704,51.0,0.0,150.0,10.0,0.0
15705,71.0,0.0,150.0,7.0,0.0
15706,75.0,0.0,150.0,7.0,0.0
15707,42.0,0.0,40.0,8.0,0.0
15708,42.0,84.0,40.0,8.0,0.0
15709,42.0,36.0,300.0,10.0,0.0
15710,52.0,24.0,150.0,10.0,0.0
15711,49.0,0.0,150.0,10.0,0.0
15712,42.0,42.0,60.0,8.0,0.0
15713,73.0,0.0,150.0,7.0,0.0
15714,76.0,0.0,150.0,7.0,0.0
15715,66.0,0.0,150.0,7.0,0.0
15716,64.0,0.0,150.0,7.0,0.0
15717,70.0,0.0,150.0,7.0,0.0
15718,42.0,30.0,20.0,8.0,0.0
15719,42.0,60.0,40.0,8.0,0.0
15720,64.0,0.0,150.0,7.0,0.0
15721,49.0,0.0,150.0,10.0,0.0
15722,42.0,60.0,40.0,8.0,0.0
15723,46.0,0.0,150.0,10.0,0.0
15724,73.0,0.0,150.0,7.0,0.0
15725,66.0,24.0,150.0,7.0,0.0
15726,61.0,0.0,150.0,7.0,0.0
15727,42.0,0.0,40.0,8.0,0.0
15728,42.0,60.0,40.0,8.0,0.0
15729,35.0,24.0,40.0,10.0,0.0
15730,59.0,12.0,150.0,7.0,0.0
15731,42.0,42.0,60.0,8.0,0.0
15732,66.0,0.0,150.0,7.0,0.0
15733,71.0,0.0,150.0,7.0,0.0
15734,51.0,12.0,90.0,10.0,0.0
15735,42.0,30.0,20.0,8.0,0.0
15736,42.0,60.0,40.0,8.0,0.0
15737,42.0,60.0,40.0,8.0,0.0
15738,42.0,60.0,40.0,8.0,0.0
15739,42.0,60.0,40.0,8.0,0.0
15740,42.0,42.0,60.0,8.0,0.0
15741,59.0,0.0,150.0,7.0,0.0
15742,54.0,0.0,150.0,7.0,0.0
15743,66.0,12.0,150.0,7.0,0.0
15744,35.0,24.0,40.0,10.0,0.0
15745,51.0,12.0,90.0,10.0,0.0
15746,42.0,30.0,20.0,8.0,0.0
15747,42.0,60.0,40.0,8.0,0.0
15748,42.0,60.0,40.0,8.0,0.0
15749,42.0,60.0,40.0,8.0,0.0
15750,42.0,84.0,40.0,8.0,0.0
15751,63.0,24.0,150.0,7.0,0.0
15752,54.0,0.0,150.0,7.0,0.0
15753,51.0,0.0,150.0,7.0,0.0
15754,35.0,0.0,150.0,10.0,0.0
15755,42.0,42.0,60.0,8.0,0.0
15756,42.0,30.0,20.0,8.0,0.0
15757,42.0,60.0,40.0,8.0,0.0
15758,42.0,60.0,40.0,8.0,0.0
15759,42.0,60.0,40.0,8.0,0.0
15760,42.0,84.0,40.0,8.0,0.0
15761,35.0,24.0,150.0,10.0,0.0
15762,42.0,0.0,150.0,10.0,0.0
15763,51.0,0.0,150.0,7.0,0.0
15764,42.0,42.0,60.0,8.0,0.0
15765,59.0,0.0,150.0,7.0,0.0
15766,54.0,0.0,150.0,7.0,0.0
15767,42.0,30.0,20.0,8.0,0.0
15768,42.0,60.0,40.0,8.0,0.0
15769,42.0,60.0,40.0,8.0,0.0
15770,42.0,60.0,40.0,8.0,0.0
15771,42.0,36.0,40.0,8.0,0.0
15772,47.0,30.0,20.0,7.0,0.0
15773,35.0,0.0,20.0,10.0,0.0
15774,49.0,30.0,20.0,7.0,0.0
15775,37.0,0.0,20.0,10.0,0.0
15776,39.0,30.0,20.0,10.0,0.0
15777,51.0,0.0,20.0,7.0,0.0
15778,52.0,0.0,20.0,7.0,0.0
15779,40.0,30.0,20.0,10.0,0.0
15780,54.0,30.0,20.0,7.0,0.0
15781,42.0,0.0,20.0,10.0,0.0
15782,44.0,30.0,20.0,10.0,0.0
15783,56.0,0.0,20.0,7.0,0.0
15784,58.0,30.0,20.0,7.0,0.0
15785,46.0,0.0,20.0,10.0,0.0
15786,59.0,30.0,20.0,7.0,0.0
15787,47.0,0.0,20.0,10.0,0.0
15788,58.0,30.0,20.0,7.0,0.0
15789,46.0,0.0,20.0,10.0,0.0
15790,44.0,30.0,20.0,10.0,0.0
15791,56.0,0.0,20.0,7.0,0.0
15792,42.0,30.0,20.0,10.0,0.0
15793,54.0,0.0,20.0,7.0,0.0
15794,53.0,0.0,20.0,7.0,0.0
15795,41.0,30.0,20.0,10.0,0.0
15796,42.0,0.0,20.0,10.0,0.0
15797,54.0,30.0,20.0,7.0,0.0
15798,44.0,30.0,20.0,10.0,0.0
15799,56.0,0.0,20.0,7.0,0.0
15800,46.0,0.0,20.0,10.0,0.0
15801,58.0,30.0,20.0,7.0,0.0
15802,47.0,30.0,20.0,10.0,0.0
15803,59.0,0.0,20.0,7.0,0.0
15804,49.0,30.0,20.0,10.0,0.0
15805,61.0,0.0,20.0,7.0,0.0
15806,63.0,30.0,20.0,7.0,0.0
15807,51.0,0.0,20.0,10.0,0.0
15808,52.0,0.0,20.0,10.0,0.0
15809,64.0,30.0,20.0,7.0,0.0
15810,54.0,30.0,20.0,10.0,0.0
15811,66.0,0.0,20.0,7.0,0.0
15812,52.0,30.0,20.0,10.0,0.0
15813,64.0,0.0,20.0,7.0,0.0
15814,51.0,22.0,20.0,10.0,0.0
15815,63.0,0.0,20.0,7.0,0.0
15816,61.0,0.0,15.0,7.0,0.0
15817,49.0,20.0,15.0,10.0,0.0
15818,47.0,0.0,15.0,10.0,0.0
15819,59.0,20.0,15.0,7.0,0.0
15820,46.0,0.0,15.0,10.0,0.0
15821,58.0,28.0,15.0,7.0,0.0
15822,59.0,30.0,20.0,7.0,0.0
15823,47.0,0.0,20.0,10.0,0.0
15824,49.0,30.0,20.0,10.0,0.0
15825,61.0,0.0,20.0,7.0,0.0
15826,51.0,30.0,20.0,10.0,0.0
15827,63.0,0.0,20.0,7.0,0.0
15828,64.0,30.0,20.0,7.0,0.0
15829,52.0,0.0,20.0,10.0,0.0
15830,66.0,0.0,20.0,7.0,0.0
15831,54.0,30.0,20.0,10.0,0.0
15832,68.0,30.0,20.0,7.0,0.0
15833,56.0,0.0,20.0,10.0,0.0
15834,58.0,30.0,20.0,10.0,0.0
15835,70.0,0.0,20.0,7.0,0.0
15836,59.0,0.0,20.0,10.0,0.0
15837,71.0,30.0,20.0,7.0,0.0
15838,58.0,30.0,20.0,10.0,0.0
15839,70.0,0.0,20.0,7.0,0.0
15840,56.0,0.0,20.0,10.0,0.0
15841,68.0,30.0,20.0,7.0,0.0
15842,66.0,0.0,20.0,7.0,0.0
15843,54.0,30.0,20.0,10.0,0.0
15844,52.0,0.0,20.0,10.0,0.0
15845,64.0,30.0,20.0,7.0,0.0
15846,51.0,30.0,20.0,10.0,0.0
15847,63.0,0.0,20.0,7.0,0.0
15848,52.0,30.0,20.0,10.0,0.0
15849,64.0,0.0,20.0,7.0,0.0
15850,54.0,0.0,20.0,10.0,0.0
15851,66.0,30.0,20.0,7.0,0.0
15852,56.0,22.0,20.0,10.0,0.0
15853,68.0,0.0,20.0,7.0,0.0
15854,58.0,0.0,15.0,10.0,0.0
15855,70.0,20.0,15.0,7.0,0.0
15856,59.0,0.0,15.0,10.0,0.0
15857,71.0,20.0,15.0,7.0,0.0
15858,61.0,20.0,15.0,10.0,0.0
15859,73.0,0.0,15.0,7.0,0.0
15860,63.0,20.0,15.0,10.0,0.0
15861,75.0,0.0,15.0,7.0,0.0
15862,61.0,0.0,15.0,10.0,0.0
15863,73.0,20.0,15.0,7.0,0.0
15864,71.0,0.0,15.0,7.0,0.0
15865,59.0,20.0,15.0,10.0,0.0
15866,70.0,0.0,15.0,7.0,0.0
15867,58.0,20.0,15.0,10.0,0.0
15868,56.0,0.0,15.0,10.0,0.0
15869,68.0,20.0,15.0,7.0,0.0
15870,54.0,0.0,15.0,10.0,0.0
15871,66.0,20.0,15.0,7.0,0.0
15872,52.0,20.0,15.0,10.0,0.0
15873,64.0,0.0,15.0,7.0,0.0
15874,63.0,20.0,15.0,7.0,0.0
15875,51.0,0.0,15.0,10.0,0.0
15876,49.0,28.0,15.0,10.0,0.0
15877,61.0,0.0,15.0,7.0,0.0
15878,59.0,0.0,20.0,7.0,0.0
15879,47.0,30.0,20.0,10.0,0.0
15880,49.0,30.0,20.0,10.0,0.0
15881,61.0,0.0,20.0,7.0,0.0
15882,63.0,30.0,20.0,7.0,0.0
15883,51.0,0.0,20.0,10.0,0.0
15884,64.0,30.0,20.0,7.0,0.0
15885,52.0,0.0,20.0,10.0,0.0
15886,54.0,0.0,20.0,10.0,0.0
15887,66.0,30.0,20.0,7.0,0.0
15888,56.0,0.0,20.0,10.0,0.0
15889,68.0,30.0,20.0,7.0,0.0
15890,70.0,0.0,20.0,7.0,0.0
15891,58.0,30.0,20.0,10.0,0.0
15892,71.0,0.0,20.0,7.0,0.0
15893,59.0,30.0,20.0,10.0,0.0
15894,58.0,0.0,20.0,10.0,0.0
15895,70.0,30.0,20.0,7.0,0.0
15896,68.0,0.0,20.0,7.0,0.0
15897,56.0,30.0,20.0,10.0,0.0
15898,66.0,0.0,20.0,7.0,0.0
15899,54.0,30.0,20.0,10.0,0.0
15900,53.0,0.0,20.0,10.0,0.0
15901,65.0,22.0,20.0,7.0,0.0
15902,54.0,0.0,15.0,10.0,0.0
15903,66.0,20.0,15.0,7.0,0.0
15904,56.0,20.0,15.0,10.0,0.0
15905,68.0,0.0,15.0,7.0,0.0
15906,58.0,20.0,15.0,10.0,0.0
15907,70.0,0.0,15.0,7.0,0.0
15908,59.0,20.0,15.0,10.0,0.0
15909,71.0,0.0,15.0,7.0,0.0
15910,73.0,20.0,15.0,7.0,0.0
15911,61.0,0.0,15.0,10.0,0.0
15912,75.0,20.0,15.0,7.0,0.0
15913,63.0,0.0,15.0,10.0,0.0
15914,76.0,0.0,15.0,7.0,0.0
15915,64.0,20.0,15.0,10.0,0.0
15916,78.0,0.0,15.0,7.0,0.0
15917,66.0,20.0,15.0,10.0,0.0
15918,68.0,0.0,15.0,10.0,0.0
15919,80.0,20.0,15.0,7.0,0.0
15920,70.0,0.0,15.0,10.0,0.0
15921,82.0,20.0,15.0,7.0,0.0
15922,71.0,0.0,15.0,10.0,0.0
15923,83.0,20.0,15.0,7.0,0.0
15924,85.0,20.0,15.0,7.0,0.0
15925,73.0,0.0,15.0,10.0,0.0
15926,75.0,0.0,15.0,10.0,0.0
15927,87.0,20.0,15.0,7.0,0.0
15928,76.0,20.0,15.0,10.0,0.0
15929,88.0,0.0,15.0,7.0,0.0
15930,78.0,0.0,15.0,10.0,0.0
15931,90.0,28.0,15.0,7.0,0.0
15932,92.0,30.0,20.0,7.0,0.0
15933,80.0,0.0,20.0,10.0,0.0
15934,94.0,0.0,20.0,7.0,0.0
15935,82.0,54.0,20.0,10.0,0.0
15936,63.0,0.0,40.0,3.0,0.0
15937,51.0,0.0,40.0,5.0,0.0
15938,54.0,0.0,40.0,11.0,0.0
15939,51.0,0.0,40.0,4.0,0.0
15940,54.0,0.0,40.0,4.0,0.0
15941,47.0,0.0,90.0,8.0,0.0
15942,66.0,0.0,40.0,3.0,0.0
15943,66.0,0.0,40.0,1.0,0.0
15944,63.0,0.0,40.0,1.0,0.0
15945,51.0,0.0,40.0,11.0,0.0
15946,59.0,0.0,90.0,6.0,0.0
15947,47.0,0.0,90.0,6.0,0.0
15948,47.0,0.0,40.0,13.0,0.0
15949,83.0,12.0,90.0,10.0,0.0
15950,75.0,0.0,40.0,0.0,0.0
15951,78.0,0.0,40.0,0.0,0.0
15952,66.0,0.0,40.0,11.0,0.0
15953,95.0,0.0,90.0,7.0,0.0
15954,59.0,0.0,40.0,5.0,0.0
15955,47.0,48.0,40.0,12.0,0.0
15956,83.0,0.0,40.0,0.0,0.0
15957,75.0,0.0,40.0,0.0,0.0
15958,71.0,0.0,40.0,3.0,0.0
15959,63.0,0.0,40.0,1.0,0.0
15960,71.0,0.0,40.0,1.0,0.0
15961,47.0,0.0,40.0,12.0,0.0
15962,51.0,0.0,40.0,5.0,0.0
15963,54.0,60.0,40.0,11.0,0.0
15964,71.0,0.0,40.0,11.0,0.0
15965,47.0,0.0,40.0,13.0,0.0
15966,59.0,0.0,40.0,11.0,0.0
15967,59.0,0.0,40.0,4.0,0.0
15968,59.0,0.0,40.0,5.0,0.0
15969,63.0,0.0,40.0,3.0,0.0
15970,59.0,0.0,150.0,5.0,0.0
15971,59.0,0.0,40.0,11.0,0.0
15972,54.0,60.0,40.0,11.0,0.0
15973,47.0,0.0,40.0,12.0,0.0
15974,51.0,0.0,150.0,5.0,0.0
15975,71.0,0.0,40.0,3.0,0.0
15976,75.0,0.0,40.0,0.0,0.0
15977,47.0,0.0,40.0,13.0,0.0
15978,51.0,0.0,120.0,4.0,0.0
15979,54.0,0.0,120.0,4.0,0.0
15980,71.0,0.0,40.0,11.0,0.0
15981,63.0,0.0,40.0,1.0,0.0
15982,63.0,0.0,40.0,3.0,0.0
15983,83.0,0.0,40.0,0.0,0.0
15984,71.0,0.0,40.0,1.0,0.0
15985,59.0,0.0,40.0,11.0,0.0
15986,75.0,0.0,40.0,11.0,0.0
15987,59.0,0.0,90.0,6.0,0.0
15988,47.0,0.0,90.0,6.0,0.0
15989,47.0,0.0,90.0,8.0,0.0
15990,71.0,0.0,40.0,3.0,0.0
15991,71.0,48.0,40.0,1.0,0.0
15992,83.0,0.0,40.0,0.0,0.0
15993,63.0,0.0,40.0,3.0,0.0
15994,63.0,0.0,40.0,1.0,0.0
15995,75.0,0.0,40.0,0.0,0.0
15996,63.0,0.0,40.0,11.0,0.0
15997,47.0,0.0,90.0,13.0,0.0
15998,47.0,48.0,90.0,12.0,0.0
15999,47.0,0.0,40.0,13.0,0.0
16000,63.0,0.0,40.0,3.0,0.0
16001,47.0,0.0,40.0,8.0,0.0
16002,71.0,0.0,40.0,3.0,0.0
16003,51.0,0.0,40.0,4.0,0.0
16004,59.0,0.0,40.0,6.0,0.0
16005,75.0,0.0,40.0,1.0,0.0
16006,78.0,0.0,40.0,0.0,0.0
16007,54.0,0.0,40.0,4.0,0.0
16008,59.0,24.0,20.0,11.0,0.0
16009,83.0,0.0,40.0,0.0,0.0
16010,59.0,6.0,40.0,5.0,0.0
16011,71.0,0.0,40.0,1.0,0.0
16012,63.0,0.0,20.0,11.0,0.0
16013,47.0,0.0,40.0,12.0,0.0
16014,51.0,0.0,40.0,5.0,0.0
16015,75.0,0.0,20.0,11.0,0.0
16016,47.0,0.0,40.0,6.0,0.0
16017,63.0,0.0,20.0,11.0,0.0
16018,66.0,30.0,20.0,11.0,0.0
16019,78.0,0.0,20.0,11.0,0.0
16020,47.0,0.0,40.0,8.0,0.0
16021,66.0,24.0,20.0,11.0,0.0
16022,59.0,0.0,40.0,5.0,0.0
16023,71.0,0.0,40.0,3.0,0.0
16024,75.0,0.0,40.0,1.0,0.0
16025,71.0,0.0,40.0,1.0,0.0
16026,51.0,6.0,40.0,5.0,0.0
16027,63.0,0.0,40.0,3.0,0.0
16028,59.0,0.0,40.0,6.0,0.0
16029,78.0,0.0,20.0,11.0,0.0
16030,47.0,0.0,40.0,13.0,0.0
16031,47.0,0.0,40.0,6.0,0.0
16032,47.0,0.0,40.0,12.0,0.0
16033,54.0,0.0,20.0,11.0,0.0
16034,54.0,0.0,40.0,4.0,0.0
16035,83.0,0.0,40.0,0.0,0.0
16036,78.0,0.0,40.0,0.0,0.0
16037,51.0,0.0,40.0,4.0,0.0
16038,59.0,0.0,20.0,11.0,0.0
16039,83.0,0.0,20.0,11.0,0.0
16040,51.0,102.0,20.0,11.0,0.0
16041,71.0,0.0,20.0,11.0,0.0
16042,51.0,0.0,210.0,5.0,0.0
16043,47.0,0.0,210.0,12.0,0.0
16044,59.0,0.0,210.0,5.0,0.0
16045,54.0,0.0,210.0,4.0,0.0
16046,51.0,0.0,210.0,4.0,0.0
16047,47.0,0.0,210.0,6.0,0.0
16048,59.0,0.0,210.0,6.0,0.0
16049,47.0,120.0,90.0,8.0,0.0
16050,71.0,0.0,210.0,11.0,0.0
16051,47.0,0.0,210.0,13.0,0.0
16052,75.0,0.0,210.0,1.0,0.0
16053,71.0,0.0,210.0,1.0,0.0
16054,78.0,0.0,210.0,0.0,0.0
16055,63.0,0.0,210.0,3.0,0.0
16056,71.0,0.0,210.0,3.0,0.0
16057,83.0,0.0,210.0,11.0,0.0
16058,59.0,0.0,210.0,11.0,0.0
16059,83.0,72.0,210.0,0.0,0.0
16060,51.0,0.0,210.0,11.0,0.0
16061,66.0,0.0,40.0,11.0,0.0
16062,63.0,0.0,40.0,11.0,0.0
16063,66.0,0.0,40.0,1.0,0.0
16064,78.0,0.0,40.0,1.0,0.0
16065,78.0,36.0,40.0,0.0,0.0
16066,42.0,0.0,40.0,12.0,0.0
16067,54.0,0.0,40.0,6.0,0.0
16068,42.0,0.0,40.0,6.0,0.0
16069,54.0,0.0,40.0,4.0,0.0
16070,54.0,0.0,40.0,11.0,0.0
16071,42.0,0.0,40.0,4.0,0.0
16072,54.0,0.0,40.0,5.0,0.0
16073,42.0,0.0,40.0,13.0,0.0
16074,66.0,0.0,40.0,3.0,0.0
16075,42.0,0.0,40.0,8.0,0.0
16076,63.0,0.0,40.0,3.0,0.0
16077,61.0,0.0,40.0,3.0,0.0
16078,42.0,0.0,40.0,8.0,0.0
16079,61.0,0.0,40.0,5.0,0.0
16080,54.0,0.0,40.0,4.0,0.0
16081,70.0,0.0,40.0,3.0,0.0
16082,58.0,0.0,40.0,4.0,0.0
16083,54.0,0.0,20.0,11.0,0.0
16084,42.0,0.0,40.0,6.0,0.0
16085,54.0,6.0,40.0,6.0,0.0
16086,42.0,0.0,40.0,13.0,0.0
16087,42.0,0.0,40.0,12.0,0.0
16088,85.0,0.0,40.0,0.0,0.0
16089,66.0,0.0,20.0,11.0,0.0
16090,73.0,0.0,40.0,1.0,0.0
16091,70.0,0.0,40.0,1.0,0.0
16092,82.0,0.0,40.0,0.0,0.0
16093,54.0,0.0,40.0,5.0,0.0
16094,70.0,0.0,20.0,11.0,0.0
16095,73.0,0.0,20.0,11.0,0.0
16096,61.0,0.0,20.0,11.0,0.0
16097,58.0,102.0,20.0,11.0,0.0
16098,61.0,0.0,210.0,5.0,0.0
16099,54.0,0.0,210.0,5.0,0.0
16100,85.0,0.0,210.0,0.0,0.0
16101,82.0,0.0,210.0,0.0,0.0
16102,73.0,0.0,210.0,11.0,0.0
16103,70.0,0.0,210.0,3.0,0.0
16104,42.0,0.0,210.0,6.0,0.0
16105,42.0,0.0,210.0,13.0,0.0
16106,61.0,0.0,210.0,11.0,0.0
16107,58.0,0.0,210.0,11.0,0.0
16108,42.0,0.0,210.0,12.0,0.0
16109,70.0,0.0,210.0,11.0,0.0
16110,54.0,0.0,210.0,6.0,0.0
16111,61.0,0.0,210.0,3.0,0.0
16112,70.0,0.0,210.0,1.0,0.0
16113,73.0,0.0,210.0,1.0,0.0
16114,42.0,120.0,90.0,8.0,0.0
16115,54.0,0.0,210.0,4.0,0.0
16116,58.0,72.0,210.0,4.0,0.0
16117,42.0,0.0,40.0,13.0,0.0
16118,42.0,0.0,40.0,8.0,0.0
16119,66.0,0.0,40.0,1.0,0.0
16120,42.0,0.0,40.0,12.0,0.0
16121,78.0,0.0,40.0,0.0,0.0
16122,54.0,36.0,40.0,6.0,0.0
16123,66.0,0.0,40.0,3.0,0.0
16124,54.0,0.0,40.0,3.0,0.0
16125,42.0,0.0,40.0,6.0,0.0
16126,66.0,0.0,40.0,11.0,0.0
16127,54.0,0.0,40.0,5.0,0.0
16128,54.0,0.0,40.0,11.0,0.0
16129,54.0,0.0,40.0,4.0,0.0
16130,42.0,0.0,40.0,4.0,0.0
16131,71.0,0.0,40.0,3.0,0.0
16132,54.0,24.0,20.0,11.0,0.0
16133,71.0,0.0,40.0,1.0,0.0
16134,75.0,0.0,40.0,1.0,0.0
16135,83.0,0.0,40.0,0.0,0.0
16136,63.0,0.0,40.0,3.0,0.0
16137,47.0,0.0,40.0,12.0,0.0
16138,87.0,0.0,40.0,0.0,0.0
16139,59.0,0.0,40.0,6.0,0.0
16140,47.0,0.0,40.0,13.0,0.0
16141,66.0,0.0,20.0,11.0,0.0
16142,47.0,0.0,40.0,6.0,0.0
16143,51.0,0.0,40.0,4.0,0.0
16144,63.0,0.0,40.0,5.0,0.0
16145,59.0,6.0,40.0,4.0,0.0
16146,54.0,0.0,40.0,5.0,0.0
16147,47.0,0.0,40.0,8.0,0.0
16148,75.0,0.0,20.0,11.0,0.0
16149,71.0,0.0,20.0,11.0,0.0
16150,59.0,0.0,20.0,11.0,0.0
16151,63.0,102.0,20.0,11.0,0.0
16152,75.0,0.0,90.0,11.0,0.0
16153,47.0,0.0,90.0,8.0,0.0
16154,71.0,0.0,90.0,1.0,0.0
16155,51.0,0.0,90.0,4.0,0.0
16156,59.0,0.0,90.0,4.0,0.0
16157,47.0,0.0,90.0,6.0,0.0
16158,59.0,0.0,90.0,6.0,0.0
16159,54.0,0.0,90.0,5.0,0.0
16160,63.0,0.0,90.0,5.0,0.0
16161,47.0,0.0,90.0,12.0,0.0
16162,63.0,0.0,90.0,3.0,0.0
16163,71.0,0.0,90.0,3.0,0.0
16164,47.0,0.0,90.0,13.0,0.0
16165,63.0,0.0,90.0,11.0,0.0
16166,59.0,0.0,90.0,11.0,0.0
16167,71.0,0.0,90.0,11.0,0.0
16168,83.0,0.0,90.0,0.0,0.0
16169,87.0,48.0,90.0,0.0,0.0
16170,75.0,0.0,90.0,1.0,0.0
16171,59.0,6.0,40.0,6.0,0.0
16172,47.0,0.0,40.0,6.0,0.0
16173,47.0,0.0,40.0,8.0,0.0
16174,75.0,0.0,40.0,1.0,0.0
16175,71.0,0.0,40.0,1.0,0.0
16176,71.0,0.0,40.0,3.0,0.0
16177,63.0,0.0,40.0,3.0,0.0
16178,47.0,0.0,40.0,13.0,0.0
16179,59.0,0.0,40.0,4.0,0.0
16180,54.0,0.0,40.0,5.0,0.0
16181,63.0,0.0,40.0,5.0,0.0
16182,47.0,0.0,40.0,12.0,0.0
16183,54.0,0.0,20.0,11.0,0.0
16184,51.0,0.0,40.0,4.0,0.0
16185,83.0,0.0,40.0,0.0,0.0
16186,87.0,0.0,40.0,0.0,0.0
16187,66.0,0.0,20.0,11.0,0.0
16188,71.0,0.0,20.0,11.0,0.0
16189,75.0,0.0,20.0,11.0,0.0
16190,59.0,102.0,20.0,11.0,0.0
16191,63.0,0.0,20.0,11.0,0.0
16192,59.0,0.0,90.0,6.0,0.0
16193,47.0,0.0,90.0,6.0,0.0
16194,71.0,0.0,90.0,1.0,0.0
16195,75.0,0.0,90.0,1.0,0.0
16196,63.0,0.0,90.0,3.0,0.0
16197,71.0,48.0,90.0,3.0,0.0
16198,71.0,0.0,90.0,11.0,0.0
16199,47.0,0.0,90.0,8.0,0.0
16200,59.0,0.0,90.0,4.0,0.0
16201,51.0,0.0,90.0,4.0,0.0
16202,54.0,0.0,90.0,5.0,0.0
16203,47.0,0.0,90.0,13.0,0.0
16204,63.0,0.0,90.0,5.0,0.0
16205,75.0,0.0,90.0,11.0,0.0
16206,47.0,0.0,90.0,12.0,0.0
16207,63.0,0.0,90.0,11.0,0.0
16208,83.0,0.0,90.0,0.0,0.0
16209,87.0,0.0,90.0,0.0,0.0
16210,59.0,0.0,90.0,11.0,0.0
16211,47.0,0.0,40.0,12.0,0.0
16212,54.0,0.0,20.0,11.0,0.0
16213,47.0,0.0,40.0,13.0,0.0
16214,47.0,0.0,40.0,8.0,0.0
16215,63.0,0.0,40.0,3.0,0.0
16216,59.0,0.0,40.0,6.0,0.0
16217,47.0,6.0,40.0,6.0,0.0
16218,59.0,0.0,40.0,4.0,0.0
16219,71.0,0.0,40.0,3.0,0.0
16220,87.0,0.0,40.0,0.0,0.0
16221,71.0,0.0,40.0,1.0,0.0
16222,54.0,0.0,40.0,5.0,0.0
16223,63.0,0.0,40.0,5.0,0.0
16224,83.0,0.0,40.0,0.0,0.0
16225,66.0,0.0,20.0,11.0,0.0
16226,75.0,0.0,40.0,1.0,0.0
16227,51.0,0.0,40.0,4.0,0.0
16228,63.0,0.0,20.0,11.0,0.0
16229,59.0,0.0,20.0,11.0,0.0
16230,71.0,0.0,20.0,11.0,0.0
16231,75.0,102.0,20.0,11.0,0.0
16232,71.0,0.0,90.0,11.0,0.0
16233,54.0,0.0,90.0,5.0,0.0
16234,75.0,0.0,90.0,11.0,0.0
16235,87.0,0.0,90.0,0.0,0.0
16236,63.0,0.0,90.0,5.0,0.0
16237,71.0,0.0,90.0,3.0,0.0
16238,63.0,0.0,90.0,3.0,0.0
16239,47.0,0.0,90.0,12.0,0.0
16240,71.0,0.0,90.0,1.0,0.0
16241,51.0,0.0,90.0,4.0,0.0
16242,83.0,0.0,90.0,0.0,0.0
16243,75.0,0.0,90.0,1.0,0.0
16244,59.0,0.0,90.0,4.0,0.0
16245,47.0,0.0,90.0,6.0,0.0
16246,47.0,0.0,90.0,8.0,0.0
16247,59.0,48.0,90.0,6.0,0.0
16248,47.0,0.0,90.0,13.0,0.0
16249,63.0,0.0,90.0,11.0,0.0
16250,59.0,0.0,90.0,11.0,0.0
16251,47.0,0.0,40.0,12.0,0.0
16252,54.0,0.0,40.0,5.0,0.0
16253,63.0,0.0,40.0,5.0,0.0
16254,47.0,0.0,40.0,8.0,0.0
16255,51.0,0.0,40.0,4.0,0.0
16256,59.0,0.0,40.0,4.0,0.0
16257,87.0,0.0,40.0,0.0,0.0
16258,83.0,6.0,40.0,0.0,0.0
16259,66.0,0.0,20.0,11.0,0.0
16260,47.0,0.0,40.0,6.0,0.0
16261,54.0,0.0,20.0,11.0,0.0
16262,71.0,0.0,40.0,3.0,0.0
16263,63.0,0.0,40.0,3.0,0.0
16264,75.0,0.0,40.0,1.0,0.0
16265,47.0,0.0,40.0,13.0,0.0
16266,59.0,0.0,40.0,6.0,0.0
16267,71.0,0.0,40.0,1.0,0.0
16268,63.0,0.0,20.0,11.0,0.0
16269,75.0,102.0,20.0,11.0,0.0
16270,71.0,0.0,20.0,11.0,0.0
16271,59.0,0.0,20.0,11.0,0.0
16272,83.0,0.0,90.0,0.0,0.0
16273,71.0,0.0,90.0,1.0,0.0
16274,75.0,0.0,90.0,1.0,0.0
16275,87.0,0.0,90.0,0.0,0.0
16276,47.0,120.0,90.0,8.0,0.0
16277,47.0,0.0,90.0,13.0,0.0
16278,63.0,0.0,90.0,5.0,0.0
16279,47.0,0.0,90.0,12.0,0.0
16280,63.0,0.0,90.0,3.0,0.0
16281,71.0,0.0,90.0,3.0,0.0
16282,51.0,0.0,90.0,4.0,0.0
16283,71.0,0.0,90.0,11.0,0.0
16284,63.0,0.0,90.0,11.0,0.0
16285,59.0,0.0,90.0,11.0,0.0
16286,47.0,0.0,90.0,6.0,0.0
16287,59.0,0.0,90.0,4.0,0.0
16288,54.0,0.0,90.0,5.0,0.0
16289,75.0,0.0,90.0,11.0,0.0
16290,59.0,0.0,90.0,6.0,0.0
16291,54.0,0.0,90.0,11.0,0.0
16292,71.0,0.0,90.0,1.0,0.0
16293,75.0,0.0,90.0,1.0,0.0
16294,59.0,0.0,90.0,6.0,0.0
16295,47.0,0.0,90.0,6.0,0.0
16296,83.0,0.0,90.0,0.0,0.0
16297,87.0,0.0,90.0,0.0,0.0
16298,47.0,0.0,90.0,13.0,0.0
16299,47.0,0.0,90.0,8.0,0.0
16300,71.0,0.0,90.0,3.0,0.0
16301,63.0,0.0,90.0,3.0,0.0
16302,51.0,0.0,90.0,4.0,0.0
16303,71.0,0.0,90.0,11.0,0.0
16304,54.0,0.0,90.0,5.0,0.0
16305,63.0,0.0,90.0,5.0,0.0
16306,63.0,0.0,90.0,11.0,0.0
16307,47.0,0.0,90.0,12.0,0.0
16308,75.0,180.0,90.0,11.0,0.0
16309,51.0,0.0,90.0,11.0,0.0
16310,59.0,0.0,90.0,11.0,0.0
16311,59.0,0.0,90.0,4.0,0.0
16312,47.0,0.0,90.0,11.0,0.0
16313,66.0,0.0,90.0,11.0,0.0
16314,75.0,0.0,90.0,0.0,0.0
16315,47.0,0.0,90.0,12.0,0.0
16316,47.0,0.0,90.0,4.0,0.0
16317,47.0,0.0,90.0,8.0,0.0
16318,51.0,0.0,90.0,5.0,0.0
16319,63.0,180.0,90.0,1.0,0.0
16320,71.0,0.0,90.0,1.0,0.0
16321,59.0,0.0,90.0,6.0,0.0
16322,47.0,0.0,90.0,13.0,0.0
16323,51.0,0.0,90.0,11.0,0.0
16324,71.0,0.0,90.0,3.0,0.0
16325,59.0,0.0,90.0,5.0,0.0
16326,83.0,0.0,90.0,0.0,0.0
16327,71.0,0.0,90.0,11.0,0.0
16328,47.0,0.0,90.0,6.0,0.0
16329,59.0,0.0,90.0,4.0,0.0
16330,59.0,0.0,90.0,11.0,0.0
16331,54.0,0.0,90.0,11.0,0.0
16332,63.0,0.0,90.0,3.0,0.0
16333,47.0,0.0,90.0,6.0,0.0
16334,47.0,0.0,90.0,8.0,0.0
16335,47.0,0.0,90.0,11.0,0.0
16336,59.0,0.0,90.0,6.0,0.0
16337,59.0,0.0,90.0,1.0,0.0
16338,59.0,0.0,90.0,5.0,0.0
16339,47.0,0.0,90.0,5.0,0.0
16340,47.0,0.0,90.0,12.0,0.0
16341,71.0,0.0,90.0,0.0,0.0
16342,59.0,0.0,90.0,11.0,0.0
16343,47.0,0.0,90.0,4.0,0.0
16344,59.0,0.0,90.0,3.0,0.0
16345,51.0,0.0,90.0,11.0,0.0
16346,47.0,0.0,90.0,13.0,0.0
